<svg xmlns="http://www.w3.org/2000/svg" width="500" height="677"><path d="M.013 75.5c.018 41.525.263 75.5.543 75.5.279 0 .915-1.012 1.413-2.25.812-2.021.911-1.908.968 1.107.048 2.588-.281 3.225-1.437 2.781-2.376-.911-1.969 5.893.5 8.362 2.362 2.362 3.436 2.578 2.651.532-.31-.807-.121-1.742.421-2.076.608-.376.914 1.534.8 5.005-.1 3.087-.563 5.848-1.028 6.135-.464.287-.844 1.485-.844 2.663 0 1.665-.267 1.874-1.2.941-1.908-1.908-2.801-1.411-2.785 1.55.012 2.038.251 2.378.924 1.315.691-1.092 1.144-.614 1.894 2l.987 3.435.105-3.5c.058-1.925.48-4.09.937-4.811.469-.739.873 4.395.927 11.773.058 7.958-.274 12.856-.847 12.502-.518-.32-.949.007-.957.727-.011.951-.281.899-.985-.191-.74-1.145-.973-.76-.985 1.628-.008 1.72.725 3.741 1.629 4.492 1.468 1.218 1.564 1.11.893-1.003-.467-1.471-.38-2.138.228-1.762 1.234.762 1.407 23.064.203 26.229-.549 1.445-.519 2.575.079 2.945.534.33.886 3.73.784 7.556-.103 3.826-.533 6.398-.955 5.715-.422-.683-1.089-.92-1.482-.527s.032 1.54.945 2.55C6.169 248.845 6.572 252 5 252c-.55 0-1 .477-1 1.059s.36.837.799.565c.439-.271.852 4.086.916 9.684.075 6.497-.283 10.425-.992 10.863-.803.497-.81 1.342-.025 3.065C6.265 280.675 6.449 379 4.888 379c-.828 0-.836.357-.032 1.326.698.841 1.063 6.475.996 15.392-.057 7.735.124 14.451.404 14.923.279.473.588 59.124.687 130.337.098 71.212.368 129.666.598 129.896.68.68 40.779 1.053 124.809 1.159 67.856.086 78.592.296 77 1.502-1.763 1.335-1.744 1.403.4 1.433 1.238.018 2.25.435 2.25.928 0 1.2 18.886 1.236 21.12.04.976-.523 1.997-.556 2.295-.074.763 1.234 35.585 1.285 35.585.051 0-.627.701-.608 1.934.052 1.301.696 38.818 1.035 114.5 1.035H500v-64c0-42-.344-64-1-64-.55 0-1-.477-1-1.059s.45-.781 1-.441c.618.382 1-1.374 1-4.594v-5.212l-1.981 2.403a467.005 467.005 0 01-3.06 3.675c-1.747 2.059-2.553.664-2.138-3.697.356-3.725 3.153-6.199 3.194-2.825.011.905.256.87.889-.128.48-.758 1.373-1.069 1.984-.691.789.487 1.112-2.379 1.112-9.872 0-7.772-.33-10.563-1.25-10.574-.905-.011-.934-.218-.105-.75 1.323-.849 1.781-47.384.525-53.235-.6-2.791-2.418-4.851-2.085-2.362.101.756-2.211 2.325-3.457 2.347-.48.008-.352-.613.285-1.38.636-.767 1.088-1.779 1.004-2.25-.443-2.467.21-5.395 1.083-4.855.55.34 1.036-.196 1.079-1.191.046-1.06.289-1.289.585-.553 1.81 4.488 2.242-5.886 2.274-54.535.035-52.128-.045-54.591-1.682-51.971-.946 1.512-2.065 2.75-2.488 2.75-1.162 0-.921-1.447.474-2.842.988-.988.964-1.413-.122-2.084-.75-.463-1.176-1.405-.947-2.092.306-.92.849-.817 2.058.392.903.903 1.85 1.3 2.105.884.255-.417.781-77.595 1.17-171.508L501.212 0H387.547C312.025 0 274.089.336 274.5 1c.34.55.141 1-.441 1S273 1.56 273 1.023c0-1.698-45.713-1.074-47.139.644-1.419 1.71-.315 2.986 3.139 3.628 1.375.256-1.668.467-6.762.47-5.095.002-9.509-.394-9.809-.88-.301-.487.631-.885 2.071-.885 1.656 0 2.367-.406 1.936-1.104-.852-1.379-14.6-.249-15.543 1.277-.438.708-.862.687-1.327-.066-.973-1.574-1.939-1.385-4.567.894-2.269 1.968-3.48 1.995-73.903 1.657-39.378-.189-74.521-.684-78.096-1.1-3.575-.416-9.2-.824-12.5-.907-3.3-.083-6.273-.523-6.606-.977-.333-.454-2.461-1.075-4.729-1.379-2.268-.304-3.881-.945-3.585-1.424C15.876.392 12.487 0 8.048 0H-.021l.034 75.5m.461-3c0 39.6.124 55.654.276 35.676.151-19.978.151-52.378 0-72C.598 16.554.474 32.9.474 72.5M487.81 8.523c-.257.258-45.658.526-100.889.596-55.232.07-99.656.325-98.721.568 1.334.346 1.499.91.766 2.627-.514 1.202-1.869 5.786-3.012 10.186-1.144 4.4-2.726 9.307-3.516 10.904-.791 1.597-1.438 3.74-1.438 4.763 0 1.023-.412 2.642-.916 3.597-.504.955-1.629 3.424-2.5 5.486a593.196 593.196 0 01-3.017 7c-2.971 6.741-6.298 18.582-12.01 42.75-1.365 5.775-4.299 16.045-6.519 22.823-2.221 6.778-4.038 13.115-4.038 14.083s-.308 2.069-.685 2.446c-.987.986-3.051 7.142-4.912 14.648-.887 3.575-2.243 7.501-3.014 8.724-.77 1.223-2.031 4.598-2.802 7.5-1.316 4.958-2.006 7.188-3.334 10.776-.82 2.216-1.008 2.9-2.736 9.936-.869 3.539-2.016 6.96-2.548 7.601s-1.065 2.357-1.186 3.814c-.309 3.734-1.878 3.253-4.783-1.467-1.811-2.942-2.596-3.59-2.847-2.35-.191.942.597 2.989 1.75 4.549 1.153 1.56 2.061 3.642 2.018 4.627-.044.997-.298 1.249-.574.569-.542-1.338-1.953-.493-5.167 3.096-6.026 6.729-7.18 8.16-7.18 8.907 0 .46-.45.558-1 .218-.55-.34-1-.141-1 .441s-.605 1.059-1.345 1.059-2.16.9-3.155 2c-.995 1.1-2.342 2-2.992 2-1.415 0-10.183 8.396-14.015 13.421-1.502 1.968-3.352 3.579-4.112 3.579-.759 0-1.381.675-1.381 1.5s-.356 1.5-.792 1.5c-.435 0-2.427 1.543-4.427 3.429-2 1.887-4.794 4.188-6.209 5.115-1.414.928-2.572 2.309-2.572 3.071 0 1.075-2.185 1.42-9.75 1.541l-15.75.25c-3.3.052-6.9-.317-8-.82-1.1-.502-2.413-.952-2.917-1-2.014-.189-1.608-2.646.583-3.524 1.284-.514 2.049-.964 1.701-.999-.348-.034 1.09-1.839 3.196-4.009 2.106-2.17 4.529-5.298 5.383-6.95.855-1.653 2.124-3.364 2.821-3.804.697-.44 2.539-2.375 4.093-4.3 6.146-7.61 17.997-20.172 36.06-38.224 16.617-16.607 19.218-18.833 21.376-18.291 2.102.528 2.335.357 1.613-1.184-1.478-3.152-.746-10.064 1.463-13.808 2.492-4.224 2.724-7.05.643-7.849-1.913-.734-3.417 2.087-3.301 6.189.178 6.259-3.145 5.124-3.651-1.246-.257-3.238-2.582-6.454-4.739-6.555-1.424-.067-6.033-11.044-5.363-12.77.608-1.568.825-1.499 1.969.623.763 1.416 1.553 1.952 1.944 1.319.362-.586.194-1.353-.374-1.704-.568-.351-.73-1.128-.36-1.727.437-.706-.063-.896-1.423-.54-2.053.537-7.217-5.381-7.217-8.271 0-.594-.52-.759-1.155-.367-.682.422-.884.277-.493-.355.363-.588.273-1.22-.199-1.405-.919-.358-8.153-15.163-8.153-16.684 0-.498-.675-1.466-1.5-2.151-.825-.685-1.5-2.283-1.5-3.551 0-1.268-.707-3.013-1.571-3.878-.865-.864-1.202-1.578-.75-1.586.451-.009.332-.346-.266-.75-3.419-2.312-9.819-18.84-6.5-16.789.522.323 1.258.086 1.636-.526.435-.703.001-.969-1.181-.721-2.323.486-4.161-1.514-7.368-8.014-1.375-2.787-3.29-5.278-4.257-5.534-.991-.264-2.026-1.815-2.375-3.559-.34-1.701-.961-3.092-1.38-3.092-.418 0-.959-1.35-1.201-3-.242-1.65.006-3 .553-3 .546 0 .697-.296.335-.658-.362-.362-.156-1.262.456-2 .857-1.032.726-1.342-.568-1.342-.924 0-1.42.423-1.1.939.319.517-.341.871-1.466.786-1.125-.085-1.843-.683-1.595-1.33s-.416-2.106-1.475-3.243c-2.114-2.269-2.558-3.66-.827-2.59.729.451.697-.073-.097-1.557-.972-1.815-.943-2.152.15-1.787.741.247 1.347.936 1.347 1.532 0 1.634 1.06 2.378 3.823 2.681 2.77.304 3.958-2.466 2.574-6-.66-1.686-.765-1.709-.827-.181-.038.962-.547 1.75-1.129 1.75s-.781-.45-.441-1 .164-1-.391-1-1.468.788-2.029 1.75c-.561.962-1.067 1.525-1.126 1.25-.721-3.371-.597-4 .789-4 1.335 0 1.296-.299-.264-2.024-1.268-1.4-2.051-1.668-2.544-.872-.391.634-1.173.867-1.738.518-.564-.349-1.216-.294-1.448.122-.232.416-.286.199-.121-.482.165-.681-.19-1.131-.789-1s-1.27-.25-1.492-.845c-.221-.596.285-1.084 1.125-1.084.841 0 1.528.483 1.528 1.073 0 .591 1.096-.109 2.436-1.553 2.657-2.866 2.553-6.358-.255-8.603-1.3-1.039-1.32-1.265-.122-1.34.792-.05-.071-.525-1.919-1.057-1.847-.532-3.089-1.237-2.758-1.568.33-.331.099-1.205-.513-1.943-.897-1.081-.36-1.367 2.759-1.47 5.333-.175 7.228-.417 12.93-1.646 6.179-1.331 15.546-1.346 17.162-.026.696.567 3.278.719 6 .353 8.083-1.088 14.446-.902 15.279.446.428.692 1.252.964 1.833.605 1.152-.712 8.747-1.361 36.168-3.089 6.325-.399 11.596-.812 11.714-.917.251-.226-138.325.276-193.427.701-21.018.162-38.568.648-39 1.081-1.429 1.428-.97 184.892.463 185.37.688.229 1.214 1.167 1.171 2.083-.049 1.04-.269 1.197-.583.417-1.492-3.697-1.817 1.036-1.614 23.5.123 13.612.236 25.088.25 25.5.031.907 4.636.978 8.846.136 2.068-.414 3.208-1.312 3.489-2.75.349-1.781.441-1.701.555.485.149 2.862 1.149 3.101 18.636 4.444 3.85.296 7.537.716 8.193.933.656.218 2.592-.006 4.302-.497 2.332-.668 3.24-.553 3.63.463.388 1.011 1.298 1.132 3.59.474 1.688-.484 3.456-.642 3.927-.35.472.292.858-.002.858-.651 0-.881.382-.865 1.5.063.825.685 1.5.949 1.5.587 0-.361 1.002-.121 2.228.535 2.164 1.158 2.171 1.214.25 1.965-1.691.66-1.724.783-.228.843 2.22.089 2.22.962 0 2.791-1.595 1.315-1.6 1.395-.051.912 1.074-.336 1.91.134 2.272 1.277.678 2.133-.279 5.09-1.645 5.09-.529 0-.694.841-.368 1.868.326 1.027.127 3.094-.443 4.594-.57 1.499-1.105 4.462-1.188 6.585-.083 2.123-.471 4.376-.861 5.008-.39.631-.372 2.643.039 4.469.461 2.042.334 3.737-.328 4.399-.769.769-.52 1.1.873 1.156 1.072.043 1.413.297.756.565-.656.267-.959 1.096-.673 1.842.287.747.021 2.293-.591 3.436-.776 1.45-.789 2.078-.042 2.078.743 0 .726.643-.055 2.102-.619 1.156-.901 2.956-.629 4 .273 1.044.18 1.898-.206 1.898-.387 0-.623 2.813-.524 6.25.099 3.438-.272 6.813-.825 7.5-.553.688-.671 1.25-.261 1.25.41 0 .301.563-.241 1.25-.542.688-.898 2.262-.79 3.5.108 1.238-.113 2.25-.493 2.25-.717 0-2.289 12.714-2.089 16.896.063 1.318-.391 3.006-1.009 3.75-.617.745-.788 1.354-.378 1.354.41 0 .234.615-.389 1.367-.624.751-1.017 2.427-.873 3.723.145 1.302-.297 2.424-.988 2.508-.687.084-1.925.208-2.75.277-.825.069-1.5.751-1.5 1.517 0 .935-1.231 1.404-3.75 1.429-2.062.021-4.65.26-5.75.532-1.1.272-2.998.528-4.219.57-1.546.054-2.044.532-1.643 1.577.374.974-.025 1.5-1.138 1.5-1.165 0-1.516-.516-1.096-1.611.511-1.332.14-1.49-2.143-.908-4.41 1.122-19.955 2.403-22.467 1.85-1.907-.419-2.041-.305-.794.677 1.313 1.033 1.299 1.117-.11.672-1.411-.447-1.622.898-1.715 10.905-.063 6.746.289 11.415.859 11.415.531 0 .966.477.966 1.059s-.45.781-1 .441c-1.248-.771-1.252-.293-.025 2.935.612 1.608.62 2.565.023 2.565-1.179 0-1.064-12.247-1.3 139.331-.188 121.624-.111 127.893 1.585 129.134 2.577 1.885 83.443 1.118 86.511-.82.731-.462 1.887-.325 2.657.314.932.774 6.93 1.038 18.957.836 9.677-.162 17.594.042 17.593.455 0 .413.701.75 1.558.75.857 0 1.318-.39 1.023-.867-.294-.477 4.292-.776 10.191-.665 5.9.111 13.314-.085 16.477-.436 3.162-.351 5.75-.262 5.75.197 0 .675 45.508.434 61.571-.326 2.239-.106 5.726.118 7.75.497 2.023.38 3.679.318 3.679-.137s1.15-.922 2.555-1.038c1.481-.123 2.297.206 1.941.782-.787 1.272 4.561 1.302 7.872.043 1.779-.676 2.615-.604 2.903.25.311.924.75.914 1.908-.041.828-.683 1.764-.983 2.08-.667 1.129 1.13 17.226 1.247 18.567.136.899-.745 1.543-.768 2-.07.412.629 7.381 1.09 17.938 1.186l17.265.156-3.184-6.25c-1.75-3.437-3.313-7.375-3.472-8.75-.61-5.29-3.813-15.607-5.552-17.885-1.002-1.312-1.821-3.449-1.821-4.75 0-1.301-.502-2.365-1.117-2.365-.624 0-.886-.882-.593-2 .287-1.1.062-2-.5-2-.563 0-.788-.901-.5-2.001.348-1.332.136-1.78-.633-1.34-.636.364-.857.327-.49-.082.366-.409-.216-1.626-1.295-2.705-1.696-1.696-1.869-2.78-1.276-8.02.45-3.975.314-6.29-.396-6.728-2.105-1.301-8.222-17.186-7.59-19.708.334-1.329.221-2.416-.252-2.417-.472 0-.927-1.185-1.011-2.633-.083-1.448-.613-3.586-1.177-4.75-.564-1.164-1.993-5.149-3.176-8.855-1.182-3.707-2.565-6.996-3.072-7.309-.507-.314-.922-1.578-.922-2.811 0-1.233-.419-2.668-.931-3.191-.928-.948-6.999-19.176-9.045-27.158-.593-2.314-1.564-4.508-2.158-4.875-.715-.442-.738-.878-.067-1.293.642-.396.099-3.372-1.481-8.125-1.372-4.124-2.456-8.399-2.41-9.499.046-1.1-.547-3.8-1.317-6-.771-2.2-1.67-5.206-1.998-6.68-.328-1.474-1.252-3.337-2.055-4.139-.802-.802-1.682-2.688-1.954-4.191-.272-1.502-2.004-5.94-3.849-9.861-1.844-3.921-4.14-10.504-5.101-14.629-2.083-8.933-3.785-15.126-4.533-16.5-.3-.55-.632-1.579-.74-2.286-1.182-7.797-12.989-45.317-17.69-56.214-.356-.825-.765-2.625-.909-4-.144-1.375-.931-3.022-1.749-3.66-1.825-1.423.283-4.129 5.921-7.599 1.961-1.207 4.691-3.186 6.066-4.397a704.484 704.484 0 014.735-4.127c11.58-9.975 33.764-31.626 38.228-37.308 1.905-2.425 3.842-4.567 4.306-4.761 1.854-.774 4.624-4.512 4.042-5.454-.377-.61-.107-.686.689-.194.921.569 1.069.421.5-.5s-.421-1.069.5-.5c.821.508 1.066.417.658-.244-.358-.579.423-2.087 1.735-3.35 2.582-2.484 2.136-5.179-1.524-9.225-1.755-1.939-1.37-6.015.508-5.389.618.206 1.13.787 1.138 1.291.028 1.678 1.61 3.458 2.554 2.874.512-.316.931-.098.931.484s.75 1.059 1.667 1.059c.916 0 1.374.292 1.017.649-.356.357.44 1.594 1.771 2.75 1.664 1.446 2.539 3.423 2.803 6.339.211 2.33.689 4.543 1.063 4.916.373.374.679 1.697.679 2.941 0 1.244.675 2.937 1.5 3.762.825.825 1.5 1.913 1.5 2.417 0 .504.9 1.731 2 2.726 1.1.995 2 2.81 2 4.033 0 1.222.625 2.741 1.389 3.375 2.818 2.338 2.49 5.817-.853 9.057-1.742 1.689-3.548 2.725-4.012 2.303-.465-.423-.521-.205-.125.482.44.765.135 1.25-.784 1.25-.827 0-3.216 1.573-5.309 3.495-2.093 1.923-4.145 3.498-4.559 3.5-1.371.009-10.778 9.641-10.089 10.33.371.371.126.675-.546.675-1.043 0-10.37 7.333-17.826 14.016-1.611 1.443-3.654 1.988-7.5 1.999-2.907.009-4.787.346-4.178.75.61.404.972 1.627.805 2.716-.167 1.09.329 2.681 1.102 3.535.773.855 1.604 3.563 1.847 6.019.243 2.456.936 5.732 1.54 7.28s1.098 3.911 1.098 5.25.525 2.435 1.167 2.435c.641 0 .892.274.556.61-.335.335.419 2.248 1.676 4.25 1.256 2.002 2.592 5.587 2.967 7.968.375 2.38 2.702 10.705 5.169 18.5a5051.64 5051.64 0 017.585 24.172c1.703 5.5 4.101 12.7 5.327 16 3.544 9.534 5.419 15.694 6.088 20 .341 2.2.884 4.675 1.207 5.5.686 1.757.577 1.408 2.023 6.5 2.842 10.003 5.558 21.197 5.643 23.25.05 1.237.382 2.25.737 2.25s.9 1.688 1.212 3.75c1.375 9.102 1.915 11.2 2.751 10.683.491-.303.892.354.892 1.461 0 1.107.413 3.046.919 4.309 1.044 2.61 2.337 6.054 2.554 6.797.08.275.477 2.525.882 5 .762 4.653 4.575 14.246 5.895 14.833.413.184.75 2.295.75 4.691 0 2.397.45 4.636 1 4.976.55.34 1 1.679 1 2.976 0 1.296.422 2.507.939 2.691.516.183 1.154 1.683 1.417 3.333.264 1.65.575 3 .692 3 .184 0 .399 1.861.845 7.309.059.72.504 1.063.99.763.81-.5 4.136 7.454 5.614 13.428.912 3.684 3.819 10.408 4.801 11.106.47.333 1.118 2.576 1.441 4.984.323 2.409 1.189 4.981 1.924 5.716.735.735 1.394 1.867 1.465 2.515.07.649.233 2.079.362 3.179.305 2.593 3.23 11.132 4.751 13.869.651 1.172 1.088 2.468.971 2.881-.292 1.034-1.728 1.011 73.538 1.145l67.25.119.189-33.507c.103-18.429.113-40.932.021-50.007-.091-9.075-.185-50.824-.208-92.775-.039-73.764-.101-76.242-1.882-75.289-2.849 1.524-20.12 1.408-20.12-.136 0-.44-1.295-.8-2.878-.8-1.582 0-3.453-.694-4.157-1.542-.888-1.07-1.599-1.224-2.323-.5-.573.573-2.064 1.042-3.313 1.042-2.505 0-4.66-5.19-3.321-8 .393-.825 1.038-3.75 1.433-6.5 1.639-11.409 1.601-11.606-1.747-9.067-1.316.998-1.818 2.757-1.846 6.469-.022 2.804-.475 5.098-1.007 5.098-.532 0-.887.788-.789 1.75.396 3.891-.025 4.25-4.993 4.25-2.718 0-5.219-.45-5.559-1-.34-.55-2.301-1-4.359-1s-4.281-.54-4.941-1.2c-.66-.66-1.2-.905-1.2-.544 0 .36-1.857 0-4.126-.8-2.269-.801-7.331-1.472-11.25-1.492-3.918-.019-9.824-.738-13.124-1.597-3.3-.859-8.475-1.757-11.5-1.995-3.025-.239-8.74-1.135-12.701-1.992-3.96-.857-7.56-1.346-8-1.087-.439.26-1.854.074-3.143-.413-2.985-1.127-2.471-6.553 2.027-21.38 1.669-5.5 3.488-11.8 4.044-14 .555-2.2 1.252-4.675 1.549-5.5.297-.825.449-2.062.338-2.75-.111-.688.295-1.25.901-1.25.607 0 .866-.383.576-.852-.289-.469.345-2.56 1.409-4.648 1.064-2.088 1.717-4.148 1.451-4.579-.266-.43-.026-1.065.533-1.411.559-.345 1.032-1.839 1.051-3.319.02-1.48.679-3.816 1.465-5.191s1.445-2.795 1.465-3.156c.078-1.449-4.208.582-7.242 3.43-1.772 1.665-4.909 3.786-6.969 4.714-2.06.928-3.447 1.986-3.083 2.35.364.364-.088.662-1.004.662-.917 0-1.614.337-1.549.75.315 1.994-.253 2.598-1.175 1.25-.88-1.286-.985-1.258-.735.196.323 1.877-6.467 7.527-7.027 5.847-.3-.9-2.796.656-9.553 5.957-1.052.825-2.824 2.505-3.937 3.734-1.434 1.582-2.379 1.94-3.241 1.225-2.391-1.985-2.319 1.762.126 6.593 1.333 2.633 2.424 5.611 2.424 6.617 0 1.007.45 1.831 1 1.831s1 .62 1 1.378c0 .757.67 1.933 1.489 2.613.819.68 1.242 1.635.941 2.122-.301.488-.045.887.57.887s.84.45.5 1c-.34.55-.141 1 .441 1s1.059.45 1.059 1c0 1.449-1.631 1.226-3.31-.452-.798-.799-1.803-1.137-2.231-.75-.429.386-.413.07.035-.703.585-1.007.445-1.175-.494-.595-.816.504-1.066.416-.665-.233.354-.573-.09-.98-.988-.904-.898.075-1.866-.538-2.152-1.363-.446-1.287-.284-1.305 1.142-.128 1.431 1.182 1.663 1.147 1.663-.25 0-.892-.562-1.509-1.25-1.372-.687.138-1.138-.312-1-1 .389-1.947-1.883-1.473-4.436.924L328 377.349v-2.234c0-1.234.447-1.957 1-1.615.55.34 1-.341 1-1.512 0-1.172.675-2.806 1.5-3.631 1.333-1.333 1.5-1.303 1.5.272 0 1.288.3 1.471 1.1.671s.527-1.673-1-3.2c-2.558-2.558-3.697-2.638-4.988-.35-.791 1.402-1.239 1.501-2.25.5-.694-.687-2.249-1.25-3.455-1.25s-2.4-.563-2.653-1.25c-.626-1.703.221-3.883 1.259-3.242.464.287 1.13-.383 1.481-1.488.35-1.104 1.296-2.667 2.102-3.473 1.66-1.66 2.764-9.547 1.336-9.547-.512 0-.932.927-.932 2.059 0 1.299-.425 1.796-1.152 1.347-.633-.391-1.721.068-2.418 1.02-1.343 1.838-5.43.694-5.43-1.52 0-.563-.45-.746-1-.406-.55.34-1-.031-1-.824 0-.794.974-1.697 2.164-2.009 1.826-.477 1.964-.808.882-2.111-1.054-1.27-.994-1.986.336-4.016.89-1.358 1.625-3.048 1.633-3.755.012-1.065 15.906-13.804 28.053-22.484 1.693-1.21 4.761-3.685 6.819-5.5 4.104-3.621 16.328-12.243 25.419-17.928 5.717-3.576 5.946-3.627 15-3.341 5.057.16 9.671-.103 10.253-.584.583-.482 3.62-.734 6.75-.56 3.926.217 5.691-.056 5.691-.881 0-.849-2.538-1.15-8.75-1.038-12.441.225-17.25-.373-17.25-2.145 0-.807-.675-2.142-1.5-2.967-.825-.825-1.5-2.493-1.5-3.706s-.748-3.274-1.662-4.578c-2.587-3.694-6.329-11.412-6.338-13.073-.005-.825-1.381-3.525-3.059-6-3.337-4.922-9.238-16-8.523-16 .246 0-1.089-2.282-2.966-5.072-1.878-2.79-3.887-6.83-4.466-8.979-.578-2.148-2.776-6.503-4.884-9.678-2.108-3.174-5.972-10.046-8.588-15.271-2.615-5.225-5.151-9.65-5.635-9.833-1.776-.674-.821-4.255 1.371-5.136 1.238-.497 1.81-.933 1.272-.968-.538-.034 1.149-2.016 3.75-4.404 2.6-2.387 4.728-4.862 4.728-5.5 0-.637.441-1.159.981-1.159.539 0 1.29-1.238 1.668-2.75.564-2.256 5.594-8.25 6.923-8.25 1.139 0 7.379 7.27 6.902 8.042-.315.51 2.149 7.003 5.476 14.428 3.328 7.425 6.05 13.716 6.05 13.979 0 .526 9.338 20.383 14.282 30.368 1.72 3.475 3.485 6.539 3.923 6.809.437.271.795 1.815.795 3.433 0 1.618.45 2.941 1 2.941s1 1.575 1 3.5.45 3.5 1 3.5 1 .927 1 2.059c0 1.132.45 1.781 1 1.441.559-.346 1 .427 1 1.754 0 1.315 1.3 3.617 2.919 5.168 1.606 1.539 3.189 3.873 3.519 5.188.33 1.314 1.042 2.39 1.581 2.39.54 0 .981 1.054.981 2.341 0 1.733 6.833 17.384 8.479 19.421.733.907 21.014.996 23.292.101 1.501-.589 7.73-1.2 13.843-1.358 6.113-.157 12.582-.609 14.375-1.003 2.237-.491 3.51-.312 4.056.571 1.182 1.912 4.162 2.026 5.49.21.668-.914 1.992-1.379 3.099-1.089 1.903.498 1.937-1.621 2.174-136.27.215-122.935-.024-139.375-1.998-137.401m-354.599 5.794c-1.25 1.604-2.151 5.517-1.355 5.885.354.164 1.465 2.071 2.468 4.237 1.248 2.696 2.072 3.538 2.611 2.666.606-.98.926-.909 1.394.311.335.871 1.313 1.584 2.175 1.584 1.272 0 1.359-.388.464-2.059-.937-1.751-.829-2.013.715-1.75 1.288.219 1.918-.418 2.163-2.191.19-1.375.028-2.187-.361-1.805-.88.864-6.076-5.18-5.74-6.677.336-1.499-3.393-1.664-4.534-.201M204.5 50.512c-1.1 1.33-2.064 3.672-2.143 5.203-.232 4.533-.347 4.85-1.239 3.442-.533-.841-.851.562-.851 3.75 0 3.07.443 5.102 1.116 5.115.615.012.083.818-1.182 1.791-2.262 1.741-2.268 1.803-.416 3.939 2.591 2.987 6.677.593 5.276-3.091-.632-1.664-.24-3.575 1.457-7.095 1.633-3.389 2.203-6.041 1.923-8.942-.239-2.469-.062-3.589.441-2.79.669 1.062.97.993 1.482-.34 1.537-4.006-2.768-4.727-5.864-.982M98.765 254.569c-.171.17-3.113.411-6.538.534-3.425.124-6.227.356-6.227.517 0 .16 1.125 1.949 2.5 3.975s2.5 4.248 2.5 4.938c0 .689.675 1.512 1.5 1.829.825.316 1.5 1.489 1.5 2.607 0 1.117.379 2.031.843 2.031.463 0 1.7 1.688 2.75 3.75 1.049 2.063 2.152 3.975 2.451 4.25.3.275 2.421 3.425 4.715 7s5.449 8.3 7.011 10.5c1.563 2.2 4.565 7.108 6.673 10.908 2.107 3.799 4.782 8.341 5.944 10.093 1.162 1.752 3.238 5.044 4.613 7.315 1.375 2.272 3.063 4.142 3.75 4.157.688.015 1.25.476 1.25 1.024 0 .908 5.966 10.391 17.74 28.2 5.412 8.186 6.306 8.957 11.024 9.507 3.837.447 4.453.462 17.236.396 4.125-.021 9.027.235 10.893.569 3.232.578 3.363.487 2.759-1.919-.349-1.389-2.258-5.389-4.244-8.888-1.985-3.499-5.662-10.412-8.171-15.362-2.508-4.95-5.741-10.8-7.184-13-1.443-2.2-3.922-6.475-5.509-9.5-1.587-3.025-4.771-8.65-7.076-12.5-2.304-3.85-5.015-8.8-6.024-11-1.814-3.957-3.678-7.116-10.128-17.169-1.824-2.844-3.316-5.656-3.316-6.25 0-.595-.4-1.081-.889-1.081-.488 0-2.759-3.597-5.046-7.993-3.309-6.359-4.711-8.113-6.862-8.583-1.487-.325-3.271-.767-3.966-.981-.695-.215-4.763.104-9.039.709-5.32.753-9.252.785-12.45.103-2.57-.548-4.813-.857-4.983-.686M203 260.962c0 .58-2.582.722-6.5.356l-6.5-.607-.121 5.394c-.619 27.674.379 53.184 2.656 67.895.383 2.475.849 8.325 1.036 13 .522 13.064 1.2 17.143 3.143 18.898 2.482 2.242 9.633 4.266 16.995 4.81 8.273.612 8.838 2.286 3.355 9.943-4.432 6.188-5.294 8.757-1.931 5.754 2.123-1.897 2.129-1.894 1.378.595-.416 1.375-1.147 2.991-1.625 3.592-1.138 1.43-.089 2.423 1.796 1.7 1.219-.468 1.246-.742.152-1.525-1.026-.735-.958-.837.294-.439.896.283 2.133.011 2.75-.606.829-.829 1.126-.483 1.137 1.328.011 1.784.253 2.076.889 1.072.914-1.444 3.096-.734 3.096 1.008 0 2.087-2.651 3.819-3.912 2.558-.912-.912-1.127-.331-.934 2.529.137 2.042-.066 4.028-.452 4.414-.386.386-.702-.974-.702-3.023 0-2.229-.402-3.478-1-3.108-.55.34-1 .104-1-.524 0-.629-.562-.936-1.25-.684-.687.252-1.118 1.022-.957 1.711.192.824-.433 1.063-1.829.698-1.559-.408-1.977-.176-1.574.872.678 1.767-.317 4.59-1.385 3.93-1.219-.753-4.23 4.469-3.57 6.189.411 1.071.134 1.357-.924.951-1.09-.419-1.511.09-1.511 1.829 0 1.326-.457 2.693-1.016 3.038-.559.346-.753 1.054-.431 1.575a1.106 1.106 0 001.516.372c.512-.316.924.464.916 1.734-.011 1.648-.258 1.927-.862.974-.466-.735-1.134-1.297-1.485-1.25-2.079.278-2.638-.121-2.638-1.884 0-1.441-.455-1.794-1.699-1.316-1.063.408-1.251.802-.5 1.052 1.924.641 1.392 2.704-1.301 5.046-2.543 2.211-3.055 3.89-1.735 5.687 1.127 1.533 3.715 1.163 5.692-.814 2.143-2.143 3.142-1.55 1.665.989-.584 1.004-1.075 1.382-1.092.84-.016-.542-.943.718-2.058 2.799-1.116 2.082-1.722 4.282-1.346 4.89.412.667.225.822-.471.391-.706-.436-1.155-.029-1.155 1.046 0 1.368.267 1.492 1.2.559.66-.66 2.006-1.2 2.99-1.2 1.695 0 1.699.107.078 2-1.92 2.243-4.26 2.652-4.283.75-.011-.833-.339-.75-.985.25-.533.825-.941 2.175-.906 3 .044 1.022.225 1.101.568.25.278-.687 1.255-1.243 2.171-1.235 1.337.013 1.394.189.289.889-.758.48-1.046 1.409-.641 2.066.481.778.091 1.124-1.122.996-3.486-.368-5.478.032-4.89.984.323.522-.309 1.429-1.404 2.015-1.126.603-1.753 1.684-1.444 2.49.3.783.028 2.238-.606 3.234-1.041 1.636-1.107 1.594-.677-.44.305-1.445.09-2.013-.601-1.586-.715.442-.817.023-.303-1.249.426-1.053 1.169-3.232 1.652-4.844.483-1.611 1.448-3.292 2.146-3.734.999-.635 1.003-.809.018-.821-.687-.008-1.25-.451-1.25-.984 0-.532.675-.709 1.5-.393.825.317 1.5.115 1.5-.448 0-.563-.446-1.173-.991-1.357-.545-.183.339-2.341 1.965-4.796 2.069-3.124 2.606-4.679 1.789-5.184-1.533-.947-2.98-.014-2.125 1.371.401.647.206.797-.483.371-1.031-.637-1.604.558-1.273 2.655.065.413-.557.75-1.382.75-.825 0-1.5.45-1.5 1s-.675 1-1.5 1-1.5.477-1.5 1.059-.45.781-1 .441-1 .051-1 .868c0 .818-1.025 2.307-2.279 3.309-1.318 1.055-2.121 2.611-1.904 3.691.232 1.153-.04 1.612-.709 1.198-.675-.416-.86-.083-.49.882.329.856.073 1.552-.57 1.552-.641 0-.907.419-.591.931.317.512.118 1.213-.441 1.559-.559.345-1.016.07-1.016-.611 0-1.676-5.632 4.718-8.255 9.371-1.162 2.063-2.48 3.75-2.929 3.75-.449 0-.816.9-.816 2s-.436 2-.969 2c-.532 0-.728.626-.434 1.392.411 1.072 1.121.847 3.094-.982 1.408-1.305 2.923-2.149 3.366-1.875.443.274 1.087.04 1.433-.519 1.128-1.825 2.65-1.145 1.644.734-.959 1.791-1.134 2.457-1.134 4.309 0 .582-.45.781-1 .441-1.134-.701-1.152-.635-1.456 5.5-.163 3.281-.673 4.588-1.884 4.823-.913.178-1.66-.186-1.66-.809 0-.622-.5-.823-1.112-.445-.611.378-1.504.067-1.984-.691-.703-1.109-.876-1.058-.889.265-.017 1.887-2.994 3.423-3.055 1.576-.022-.671-.744.081-1.605 1.67-1.062 1.962-1.806 2.5-2.315 1.676-.561-.909-1.164-.798-2.404.442-.91.91-1.399 2.068-1.086 2.574.312.505.091.919-.491.919s-1.059.59-1.059 1.311c0 .722-.9 2.278-2 3.459-1.1 1.18-2 2.593-2 3.138 0 .546-.787 1.451-1.75 2.012-.971.566-1.194 1.033-.5 1.05.747.018.414.866-.827 2.107-1.143 1.143-1.832 2.718-1.532 3.5.301.783.11 1.423-.422 1.423-.533 0-.969.477-.969 1.059s.45.781 1 .441 1 .309 1 1.441c0 1.132.45 2.059 1 2.059s1-.661 1-1.469c0-.894.586-1.243 1.5-.893 1.131.434 1.5-.174 1.5-2.472 0-1.676.45-3.326 1-3.666.55-.34 1-1.299 1-2.13 0-.832.679-2.192 1.509-3.022.83-.83 1.254-1.923.941-2.429-.312-.505.145-.919 1.016-.919s2.001-1.098 2.511-2.439c.785-2.066 3.719-4.561 5.364-4.561.259 0 .236.9-.051 2-.293 1.118-.031 2 .593 2 .615 0 1.117-.62 1.117-1.378 0-.757.675-1.937 1.5-2.622.946-.785 1.5-.852 1.5-.181 0 .584-.45 1.341-1 1.681-.55.34-1 1.068-1 1.618s.485.7 1.078.334c.72-.445.954.606.704 3.173-.332 3.405-.698 3.864-3.23 4.059-2.154.166-2.573-.063-1.704-.932 2.335-2.335 1.316-4.249-1.098-2.063-1.237 1.121-3.15 2.536-4.25 3.144-1.1.608-1.48 1.12-.844 1.137.652.017.975 1.012.739 2.28-.229 1.238-.15 1.688.177 1 .327-.687 1.062-1.25 1.634-1.25.596 0 .47.686-.296 1.609-.734.884-1.417 3.022-1.517 4.75-.099 1.727-.229 3.73-.287 4.45-.058.72-.563 1.026-1.122.681-.559-.346-.758-1.047-.441-1.559 1.238-2.004-.865-.791-2.722 1.569-2.987 3.798-7.234 3.427-8.574-.75-.574-1.788-1.089-2.493-1.145-1.567-.056.925-1.114 1.989-2.352 2.365-2.413.731-6.75 4.307-6.75 5.564 0 1.05 4.216.749 5.75-.411.814-.616 1.25-.565 1.25.145 0 .6.687.828 1.527.505 2.097-.804 7.02 4.502 5.544 5.978-.589.589-1.057 1.543-1.039 2.121.017.577.692.176 1.5-.891 1.512-1.999 1.923-1.271 1.52 2.691-.104 1.021.498 1.75 1.444 1.75.892 0 1.346-.446 1.009-.992-.702-1.135.724-4.108 2.085-4.348.5-.088.797-.497.66-.91-.138-.413.252-.75.867-.75.656 0 .916 1.046.631 2.535-.339 1.775.065 2.83 1.347 3.516 1.157.619 1.598 1.586 1.198 2.628-.421 1.096-.245 1.41.522.935.825-.509.975.187.525 2.438-.704 3.518 1.165 5.604 3.376 3.768.965-.801 1.304-.6 1.363.808.045 1.064.297 1.33.585.616.279-.691.918-1.002 1.421-.691.828.511 1.338-.873 1.033-2.803-.065-.413.332-.75.882-.75s.888-.536.75-1.191c-.137-.654.537-1.362 1.5-1.573 1.143-.25 1.75.221 1.75 1.357 0 2.278.945 1.291 1.494-1.56.237-1.23.872-2.769 1.411-3.419.539-.649.669-1.682.288-2.294-1.047-1.68-7.464 1.742-7.805 4.162-.154 1.09-.754 2.14-1.334 2.333-.579.193-1.054 1.016-1.054 1.827 0 .812-.381 1.24-.847.952-1.709-1.055-.512-6.181 2.999-12.844 1.087-2.062 1.667-3.75 1.29-3.75-.378 0-.131-.67.549-1.489.68-.819 1.683-1.213 2.229-.875.652.403.643.831-.028 1.245-.658.407-.506 1.336.425 2.61 1.427 1.951 1.455 1.948 2.032-.256.572-2.187 3.351-3.211 3.351-1.235 0 .55.702 1 1.559 1s1.281-.45.941-1c-.34-.55-.19-1 .334-1s1.225.712 1.559 1.582c.849 2.211.777 2.452-.643 2.168-.719-.144-1.392 1-1.585 2.693-.302 2.652-.169 2.806 1.339 1.554 1.435-1.191 1.644-1.183 1.466.057-.64 4.469-.063 5.223 3.552 4.636 1.938-.314 3.286-.188 2.995.282-1.041 1.685 4.597.254 5.873-1.491.746-1.02 1.566-1.362 1.914-.797 1.105 1.787-1.588 8.272-4.125 9.934-2.292 1.502-2.439 1.503-1.865.006.343-.893.179-1.624-.364-1.624-.55 0-.735-1.221-.417-2.75l.571-2.75-1.75 3c-2.391 4.097-2.797 6.884-.897 6.155 1.736-.666 3.054.911 1.543 1.845-.568.351-.774 1.057-.457 1.569.316.512-.074.931-.867.931-.794 0-1.69.945-1.992 2.101-.336 1.286-1.005 1.819-1.723 1.375-.692-.428-.787-.983-.232-1.351.518-.344.885-2.875.816-5.625-.077-3.055.437-5.681 1.32-6.75.838-1.015.994-1.75.372-1.75-.59 0-1.863-.303-2.829-.674-1.293-.496-1.604-.279-1.181.822.329.86-.235 2-1.327 2.682-1.125.703-1.894 2.305-1.885 3.928.012 2.083.239 2.388.947 1.27.799-1.264 1.022-1.232 1.581.224.377.983-.021 2.368-.946 3.294-.878.878-1.597 1.245-1.597.814 0-.431-.893.969-1.985 3.11-1.092 2.142-1.786 4.092-1.543 4.335.664.664 3.566-.633 3.419-1.527-.331-2.015.296-2.201 2.516-.747 1.763 1.155 2.6 1.267 3.125.417.527-.853.947-.8 1.578.195.685 1.081.862 1.091.875.048.008-.733.523-.995 1.17-.596.715.443.883.275.44-.44-.392-.635-.236-1.155.346-1.155s1.059.675 1.059 1.5-.436 1.5-.969 1.5c-.532 0-.704.688-.381 1.53.353.92 1.289 1.307 2.35.97 1.991-.632 3.592 2.059 1.665 2.798-1.884.723-1.956 5.702-.082 5.702 2.169 0 4.151-2.203 3.847-4.276-.14-.953.151-1.483.646-1.177.496.306.679-.029.408-.745-.272-.716.857-2.202 2.508-3.302s3.004-2.37 3.005-2.821c.004-1.21 2.683-3.679 3.991-3.679.621 0 .808-.521.415-1.158-.491-.793-.037-.98 1.441-.593 1.453.38 2.156.105 2.156-.843 0-.773.402-1.406.893-1.406 1.324 0 2.038 2.493 1.133 3.957-.983 1.591-.238 10.778 1.072 13.226.76 1.42.606 1.817-.703 1.817-.921 0-2.289.788-3.041 1.75-1.236 1.582-1.325 1.488-.93-.984.241-1.503.061-2.966-.399-3.251-1.046-.646-.11-4.515 1.092-4.515.485 0 .883-.675.883-1.5 0-2.231-1.543-1.815-2.78.75-.901 1.87-1.096 1.944-1.152.441-.038-.995-.525-1.526-1.084-1.181-.559.346-.715 1.117-.346 1.714.431.697.198.793-.653.266-.957-.591-1.151-.365-.699.814.789 2.056-1.219 3.423-2.346 1.598-.633-1.023-1.066-.748-1.772 1.122-1.113 2.949-.719 3.678 1.15 2.127.751-.623 1.687-.813 2.078-.421.392.392 1.131.05 1.643-.759.814-1.287.934-1.284.961.029.027 1.304.151 1.31.954.041.604-.956.872 1.202.775 6.25-.104 5.481-.52 7.745-1.438 7.834-2.678.259-3.144.395-3.874 1.125-.413.413.251.75 1.475.75 1.229 0 1.949.448 1.608 1-.34.55-.109 1 .512 1 1.359 0 3.988-2.489 3.988-3.776 0-.505.9-1.956 2-3.224l2-2.306v2.344c0 2.266.047 2.28 1.415.409.999-1.366 1.089-2.135.307-2.619-1.622-1.002.645-5.495 2.772-5.495 1.322 0 1.566.617 1.123 2.834-.312 1.559-.151 3.929.358 5.267.626 1.648.568 2.552-.181 2.801-.608.203-1.148 1.808-1.199 3.567-.087 2.94.522 3.675 2.729 3.292.454-.079.497.387.096 1.036-.438.708-.3.914.345.515.591-.365 1.785.048 2.654.917 1.441 1.441 1.581 1.351 1.581-1.022 0-1.432.675-2.862 1.5-3.178.825-.317 1.5-.978 1.5-1.469 0-.491-.675-.893-1.5-.893-.95 0-1.5-.956-1.5-2.607 0-1.906.403-2.452 1.5-2.031 1.165.447 1.507-.256 1.53-3.143.026-3.085.21-3.411 1.081-1.913.578.993.8 3.601.493 5.795-.346 2.476-.187 3.76.419 3.385.537-.332.977.098.977.955s.408 1.559.906 1.559c.499 0 .663 1.013.364 2.25-.437 1.813-.29 2.014.758 1.035 1.127-1.052 1.425-2.092 1.889-6.594.046-.445.515-.542 1.043-.216.528.327 1.86-1.269 2.96-3.545 1.981-4.101 1.981-4.143.04-4.651-2.737-.715-2.467-2.203.29-1.599 1.364.299 1.793.163 1.091-.346-.842-.61-.637-1.485.75-3.198l1.909-2.358v2.445c0 1.344.338 2.781.75 3.194.412.412.75 1.162.75 1.666 0 1.168.539 1.223 2.94.302 1.22-.469 2.091-.292 2.347.477.313.939.735.95 1.823.047.907-.753 1.081-1.576.485-2.295-1.083-1.304 2.369-9.614 3.993-9.614.567 0 .771.419.455.931-.317.512-.118 1.213.441 1.559.559.345 1.016-.074 1.016-.931 0-.857.45-1.559 1-1.559s1-.723 1-1.607c0-1.047.545-1.398 1.565-1.006 1.188.455 1.419.137.957-1.319-.4-1.258.008-2.279 1.184-2.963 1.553-.904 1.574-1.048.161-1.075-1.758-.032-3.309-5.03-1.562-5.03.566 0 .732-.296.37-.658-.362-.362-.156-1.262.456-2 .862-1.039.691-1.369-.759-1.46-1.09-.069-.62-.437 1.128-.882 2.376-.605 2.539-.788.781-.882-1.662-.088-2.062-.556-1.596-1.868.531-1.495.326-1.458-1.404.25-1.114 1.1-1.831 2.337-1.594 2.75.237.413-.046.75-.628.75s-1.059-.675-1.059-1.5.405-1.5.899-1.5c1.687 0 1.794-8.992.108-9.07-1.014-.048-.853-.352.493-.93 1.937-.832 1.931-.862-.167-.93-1.191-.038-2.425.493-2.74 1.18-.316.688-.358.125-.093-1.25s.223-1.937-.093-1.25c-1.014 2.209-2.407 1.335-2.392-1.5.012-2.143.23-2.419.985-1.25.783 1.211.972 1.063.985-.769.013-1.945.388-2.175 2.626-1.614 2.386.599 2.548.451 1.887-1.731-.514-1.696-.409-2.09.361-1.365.596.562 1.209 2.137 1.362 3.5.154 1.364.7 2.782 1.215 3.153.559.402.45 1.259-.271 2.128-.98 1.18-.827 1.553.814 1.982 1.349.353 2.021.042 2.021-.937 0-.806.45-1.187 1-.847.55.34 1-.011 1-.78 0-.77 1.066-1.884 2.368-2.478 3.07-1.399 4.087-5.963 1.509-6.781-1.01-.321-1.756-.893-1.659-1.272.459-1.778-1.531-5.191-3.035-5.204-1.465-.014-1.488-.156-.183-1.095 1.266-.91 1.227-.991-.25-.516-1.966.633-2.454-.985-.5-1.657.688-.237.462-.312-.5-.167-1.332.2-1.75-.445-1.75-2.703 0-1.722.419-2.706 1-2.347 1.321.816 1.319-7.036-.003-9.505-.62-1.159-.643-2.096-.061-2.455 1.675-1.035-1.117-8.54-3.177-8.54-.417 0-.762-.788-.765-1.75-.004-.962-.72-3.1-1.593-4.75s-1.791-4.079-2.04-5.397c-.249-1.318-1.108-3.331-1.907-4.472-.8-1.142-1.454-4.061-1.454-6.486 0-2.918-.592-4.958-1.75-6.028-1.081-.999-1.809-3.265-1.904-5.928-.191-5.364-2.296-10.889-3.441-9.035-.6.97-.979.816-1.531-.622-.461-1.2-.272-2.066.507-2.326.918-.306.822-.877-.368-2.191-.885-.978-1.803-4.086-2.04-6.906-.237-2.82-1.115-6.45-1.952-8.068-.837-1.618-1.525-3.977-1.531-5.241-.005-1.265-1.034-4.55-2.287-7.3-1.252-2.75-2.204-6.11-2.116-7.466.199-3.048-1.564-6.029-3.578-6.049-1.339-.014-1.34-.125-.009-.985.825-.533 1.05-.98.5-.992-1.417-.033-3.513-4.882-2.406-5.566 1.608-.994.965-3.574-.844-3.39-2.949.3-3.139.048-2.266-2.997.558-1.945.474-3.069-.247-3.309-.635-.212-.75-.916-.275-1.685.449-.727.689-5.2.532-9.941-.156-4.741-.357-17.845-.446-29.12-.089-11.275-.544-30.27-1.01-42.211-.67-17.146-.58-22.034.429-23.25 1.093-1.316.915-1.539-1.222-1.539-1.375 0-3.025-.633-3.667-1.406-.727-.876-2.306-1.226-4.19-.929-1.802.284-3.992-.158-5.42-1.094-2.723-1.784-4.468-2.022-4.468-.609m134 27.347c0 .445-.45.531-1 .191s-1-.141-1 .441v1.809c0 .778.473.905 4.25 1.14 1.774.111 1.942.335.798 1.059-.799.506-1.811.697-2.25.426-1.574-.972-.761.932.952 2.233 1.503 1.141 1.528 1.333.171 1.36-.873.018-2.437 1.931-3.5 4.282-1.056 2.337-2.558 4.25-3.338 4.25-.779 0-1.6.551-1.824 1.224-.313.939.302.976 2.645.16 1.679-.586 3.626-.867 4.325-.624.699.242 3.022-.169 5.162-.915 2.908-1.013 4.235-1.071 5.25-.228 1.307 1.085 1.819.491 1.394-1.617-.111-.55.098-.7.465-.333.367.366 1.529-.196 2.583-1.25 1.054-1.054 3.015-1.917 4.358-1.917 1.343 0 2.719-.45 3.059-1 .34-.55.115-1-.5-1s-.796-.521-.403-1.158c.502-.811-.003-.965-1.691-.513-1.323.354-2.995.65-3.715.657-.72.008-1.05.433-.734.945.856 1.385-.837 2.073-2.505 1.018-.996-.63-1.06-.923-.202-.934.688-.008 1.25-.492 1.25-1.074 0-.582-.419-.8-.931-.484-.512.317-1.164.199-1.449-.262-.884-1.431 3.753-4.644 6.242-4.325 1.501.192 2.118-.094 1.691-.784-.377-.61.037-1.086.947-1.086.981 0 1.333.461.895 1.17-.477.772-.19.965.842.569 1.903-.73 2.918 2.232 1.583 4.619-.596 1.063-.55 1.642.13 1.642.578 0 1.05-.477 1.05-1.059s.359-.837.798-.566c.439.271 1.451.064 2.25-.46 1.248-.819 1.216-1.134-.226-2.242-1.529-1.174-1.126-3.981.54-3.758.351.047.641-.244.645-.647.009-.811-4.686-1.185-19.257-1.534-5.363-.129-9.75.13-9.75.575M205 444.393c0 .766-.675 1.652-1.5 1.969-.825.316-1.5 1.264-1.5 2.107 0 1.833-1.661 2.048-2.247.29-.64-1.921-3.234 1.137-4.68 5.519-.675 2.047-1.699 3.722-2.276 3.722-.62 0-.812 1.173-.472 2.877.352 1.756.023 3.606-.843 4.75-.78 1.03-1.417 2.998-1.415 4.373l.004 2.5 1.429-2.5c.786-1.375 1.452-2.05 1.48-1.5.028.55.455.361.95-.421 1.244-1.966 6.07 1.169 6.07 3.944 0 1.087.499 1.977 1.108 1.977.652 0 .875-.931.542-2.258-.312-1.242-.142-2.93.376-3.75 1.065-1.685.986-1.999 1.513 6.008.786 11.945 2.244 12.653 2.368 1.15.053-4.947.392-9.817.754-10.822.362-1.006.293-1.497-.153-1.094-.446.404-1.403-.046-2.127-1-1.018-1.34-1.325-1.407-1.349-.293-.023 1.034-.437.893-1.465-.5-.788-1.067-1.065-2.316-.615-2.775.449-.459.557-1.809.239-3-.561-2.102-.599-2.092-1.285.334-.568 2.009-.723 2.107-.791.5-.114-2.706.843-3.935 4.359-5.597 2.938-1.388 5.01-7.903 2.514-7.903-.543 0-.988.627-.988 1.393m-31 29.867c0 .693-1.098 2.445-2.441 3.893-2.496 2.691-2.474 4.136.046 3.168.776-.297 2.532.194 3.903 1.092 1.833 1.201 2.496 1.296 2.507.36.011-.905.281-.853.934.179.506.799.697 1.811.426 2.25-.271.439-.016.798.566.798.62 0 1.059 2.332 1.059 5.622 0 4.794.213 5.446 1.448 4.421 1.038-.862 1.957-.905 3.25-.152 1.079.628 1.277 1.06.493 1.079-.72.016-1.05.449-.734.961.317.512.111 1.218-.457 1.569-1.178.728-.386 2.5 1.118 2.5.55 0 .722-.45.382-1-.34-.55-.115-1 .5-1s.838-.453.496-1.007c-.343-.554.081-1.277.941-1.607.859-.33 1.57-1.339 1.578-2.243.012-1.272.205-1.344.855-.319.678 1.069 1.156 1.007 2.485-.322 1.527-1.527 1.645-1.446 1.645 1.127 0 1.968.31 2.461 1.07 1.701 1.576-1.576.076-8.6-1.693-7.921-.776.298-1.377-.099-1.377-.909 0-.92.589-1.211 1.636-.809 1.128.432 1.488.189 1.157-.782-.282-.829-1.45-1.266-2.839-1.062-2.061.304-2.192.145-1.035-1.25 1.143-1.376 1.037-1.597-.765-1.597-1.568 0-1.932-.438-1.453-1.75.587-1.611.472-1.604-1.457.087-2.062 1.81-2.099 1.794-2.419-1-.28-2.445-.705-2.793-3.075-2.515-2.007.234-2.75-.119-2.75-1.309 0-.897-.39-1.39-.866-1.096-.476.294-.666 1.784-.422 3.309.347 2.165.211 2.445-.618 1.274-.898-1.266-1.068-1.188-1.094.5-.025 1.643-.199 1.734-.973.51-.635-1.005-.459-2.227.539-3.75.901-1.375 1.057-2.26.398-2.26-.595 0-.804-.45-.464-1s-.084-1-.941-1-1.559.567-1.559 1.26m321.365 17.535c-1.511.962-2.273 8.156-1.179 11.122.625 1.694.506 2.689-.397 3.326-1.02.72-1.028 1.015-.039 1.416 1.383.562 1.748 5.341.408 5.341-.464 0-.939 2.963-1.056 6.584-.19 5.885-.021 6.542 1.592 6.191.994-.217 1.682-.963 1.531-1.659-.151-.695.187-.98.75-.631.622.384 1.019-.668 1.01-2.676-.012-2.489-.253-2.937-.973-1.809-.697 1.093-.92.482-.822-2.25.074-2.062.624-3.757 1.222-3.765.598-.009.477-.402-.269-.875-.882-.559-.991-1.086-.312-1.506.959-.592.594-12.481-.415-13.512-.219-.224.083-.988.672-1.698 1.306-1.574-.144-4.604-1.723-3.599m-256.039 23.829c-.067 2.504.186 3.199.819 2.25.613-.92.714-.502.304 1.267-.336 1.452-.199 2.896.305 3.207.504.311.78 2.835.614 5.609-.166 2.788.131 5.043.665 5.043.532 0 .967 1.575.967 3.5 0 3.108.293 3.5 2.617 3.5 2.124 0 2.518-.376 2.093-2-.287-1.1-.115-2 .384-2 .498 0 .906-2.718.906-6.039 0-5.116-.213-5.843-1.395-4.75-.767.709-1.21 1.595-.984 1.97.227.374-.053.968-.621 1.319s-.803 1.01-.522 1.464c.281.455-.11 1.065-.868 1.356-1.084.416-1.304-.525-1.028-4.396.218-3.059-.055-4.924-.722-4.924-.591 0-.789-.744-.44-1.653.684-1.781-1.115-8.347-2.286-8.347-.392 0-.755 1.631-.808 3.624m-31.06 7.489c-.217 2.889-1.169 3.621-2.415 1.858-.858-1.214-.941-1.165-.477.279.31.962.127 1.75-.405 1.75-.533 0-.969-.45-.969-1s-.502-1-1.117-1c-.624 0-.886.882-.594 1.999.745 2.847-.625 3.257-2.717.814-2.018-2.357-3.529-1.135-3.557 2.878-.008 1.205-.496 2.488-1.083 2.851-.588.363-.827 1.29-.532 2.059.316.822-.092 1.399-.99 1.399-.9 0-1.235.474-.815 1.155.443.715.275.883-.44.44-.635-.392-1.155-.269-1.155.275 0 .543-.729 1.716-1.619 2.606-2.012 2.012-1.198 3.032 1.337 1.675 1.165-.623 2.445-.66 3.336-.097 1.193.755 1.203.918.056.931-.764.008-1.897.71-2.518 1.559-.666.91-2.865 1.613-5.361 1.712-2.327.093-4.231.574-4.231 1.07 0 .496 1.35.703 3 .461 3.213-.472 3.719.094 1.8 2.013-.933.933-.933 1.2 0 1.2.66 0 1.214.788 1.23 1.75.027 1.529.177 1.497 1.186-.25.635-1.1 1.746-2.595 2.469-3.321.723-.727 1.315-1.974 1.315-2.771 0-.797 2.05-2.894 4.556-4.661 3.185-2.244 4.417-3.743 4.094-4.978-.513-1.961.8-3.227 2.353-2.267.667.412.655 1.269-.035 2.559-.818 1.527-.712 1.939.497 1.939.844 0 1.567-.788 1.605-1.75.063-1.549.156-1.532.816.151.655 1.669.906 1.516 2.051-1.25.718-1.733 1.701-3.151 2.184-3.151 1.54 0 .944-3.226-.871-4.721-1.622-1.337-1.625-1.403-.032-.904.945.296 1.984.107 2.309-.419.325-.526.114-.956-.468-.956-.582 0-1.059-.661-1.059-1.469 0-.899.586-1.243 1.511-.888 1.063.408 1.335.12.918-.969-.327-.851-1.232-1.303-2.012-1.004-.779.299-1.417.046-1.417-.563 0-2.044-1.573-1.132-1.734 1.006m-52.709 21.11c-.856 1.222-1.557 1.672-1.557 1 0-.673-.45-1.223-1-1.223s-1 .613-1 1.361c0 .913-.824 1.204-2.5.884-1.375-.263-2.5-.924-2.5-1.469 0-.544-.675-.731-1.5-.414-.825.316-1.532.027-1.571-.643-.038-.671-.963.795-2.054 3.256-1.091 2.461-2.522 4.816-3.179 5.234-.809.514-.629.765.554.776.963.008 1.75-.435 1.75-.985 0-1.843 1.76-1.024 2.309 1.074l.543 2.074 2.074-2.074c1.141-1.141 2.074-2.749 2.074-3.574 0-.825.498-1.5 1.107-1.5s.857.652.551 1.449c-.337.878.217 1.694 1.408 2.072 1.092.346 1.662 1.11 1.284 1.721-.412.667-.121.884.741.553 1.525-.585 4.189 1.591 3.182 2.598-.333.334-.194.603.31.599 1.866-.016 3.18-4.632 1.964-6.903-.633-1.184-1.465-1.838-1.849-1.454-.384.384-.698.173-.698-.468 0-.642.338-1.167.75-1.168.412 0 .815-1.125.894-2.5.177-3.068-.106-3.105-2.087-.276m105.693 6.495c-.687.247-1.25 1.563-1.25 2.924 0 1.396.436 2.206 1 1.858 1.402-.867 1.25.85-.204 2.304-.662.662-1.102 2.723-.977 4.579.195 2.895-.132 3.444-2.296 3.857-1.388.266-2.523.069-2.523-.438 0-.506-.457-.637-1.016-.292-.559.346-.777 1.016-.484 1.49.293.474.075 1.144-.484 1.49-.559.345-1.016.151-1.016-.431s-.498-1.059-1.107-1.059-.875.603-.593 1.341c.801 2.085-1.064 4.524-2.161 2.825-1.054-1.633-2.548 1.363-1.514 3.036.347.562.011 1.414-.747 1.894-1.016.644-.767.877.943.889 2.14.014 2.195.142.703 1.634-1.978 1.978-1.172 3.164.952 1.401 1.486-1.234 2.065-.448 1.642 2.23-.065.413.332.75.882.75s1.007-.562 1.015-1.25c.012-.937.227-.917.86.082.543.856 1.996 1.151 4.063.825 2.504-.395 3.097-.191 2.672.918-.36.936.128 1.425 1.421 1.425 2.271 0 2.374.375.872 3.181-.837 1.564-.805 1.953.133 1.64.677-.225 1.755-1.965 2.396-3.865.641-1.901 1.706-3.344 2.367-3.206.66.138 1.201-.2 1.201-.75s-1.125-1-2.5-1-2.5.45-2.5 1c0 3.398-1.736-.014-2.764-5.434-1.251-6.593-.75-9.856 1.588-10.341.787-.163 1.061.243.674 1-.358.701.283.214 1.423-1.083 1.141-1.297 2.679-2.126 3.417-1.842 4.126 1.583 4.616-4.646.635-8.055-1.085-.929-1.973-2.249-1.973-2.932 0-1.534-3.055-3.202-4.75-2.595" fill="#d3d3d3" fill-rule="evenodd"/></svg>