<svg xmlns="http://www.w3.org/2000/svg" width="500" height="656"><path d="M0 328.002v328.002l250.25-.252 250.25-.252.252-327.75L501.003 0H0v328.002m.494.498c0 180.4.115 254.051.256 163.669.141-90.382.141-237.982 0-328S.494 148.1.494 328.5M16.158 16.089c-1.289.503-2.751.662-3.25.354-1.165-.72-1.155 42.331.042 176.057 1.415 158.114 2.043 253.841 2.258 344 .107 44.55.364 87.481.571 95.403l.378 14.403 92.171-.656c50.695-.36 130.422-.881 177.172-1.156 92.27-.543 200.879-1.522 201.122-1.812.2-.239.727-621.692.53-623.802-.139-1.484-17.539-1.677-208.902-2.314-114.812-.382-220.225-.852-234.25-1.043-14.025-.191-26.554.063-27.842.566m161.898 104.666c-77.229.2-98.615.523-99.239 1.5-.437.685-.558 28.47-.268 61.745 1.255 144.031 2.502 249.482 3.102 262.238l.646 13.737 9.601-.169c5.281-.094 10.502.261 11.602.788 3.037 1.454 316.332-.026 317.807-1.501 1.36-1.36 1.717-336.402.36-337.76-.857-.856-71.42-1.024-243.611-.578" fill="#d3d3d3" fill-rule="evenodd"/></svg>