<svg xmlns="http://www.w3.org/2000/svg" width="500" height="672"><path d="M100.98 1.475c5.467 6.588 19.573 14.845 41.084 24.048 12.34 5.28 30.311 13.376 39.936 17.991 13.183 6.322 19.843 8.909 27 10.486 5.225 1.152 12.875 3.135 17 4.407 4.125 1.271 11.706 3.388 16.848 4.702 9.188 2.35 9.474 2.515 16.776 9.675 11.815 11.583 19.769 18.558 35.376 31.022 4.125 3.294 10.807 8.908 14.849 12.475 4.252 3.753 11.837 8.915 18 12.251 11.839 6.407 31.45 19.669 40.651 27.49 3.3 2.806 13.14 9.871 21.866 15.701 18.094 12.089 17.679 11.597 30.354 36.041 13.679 26.378 17.126 33.597 20.369 42.648l3.192 8.912-.705 25.588c-.388 14.073-.872 26.938-1.074 28.588-.203 1.65-.654 6.29-1.002 10.312-.348 4.022-2.157 11.914-4.02 17.54-2.869 8.664-5.732 24.246-7.93 43.148-.128 1.1-.857 5.375-1.62 9.5-1.04 5.614-1.318 15.294-1.106 38.5.155 17.05.32 36.175.366 42.5.045 6.325-.251 17.35-.658 24.5-.634 11.124-.762 29.021-.404 56.5.046 3.575-.237 15.95-.629 27.5-.707 20.781-.686 21.099 1.961 30.5 2.884 10.245 13.974 41.576 18.317 51.75l2.668 6.25h6.778c3.727 0 6.777-.356 6.777-.791 0-2.313-6.577-20.544-10.495-29.091-7.259-15.837-12.541-43.638-15.053-79.224-.334-4.733-.087-17.333.549-28 .819-13.745.86-23.096.139-32.105-.662-8.272-.687-17.002-.073-25 .796-10.371.612-15.176-1.18-30.789-2.366-20.615-2.179-35.52.594-47.5 1.986-8.574 10.102-33.897 11.995-37.427.76-1.415 1.906-6.173 2.549-10.573.642-4.4 2.754-14.075 4.693-21.5 5.96-22.819 5.667-39.164-1.203-67a304.252 304.252 0 01-2.472-11.09c-2.744-13.759-9.72-32.604-15.747-42.535L423.322 188c-3.84-6.325-8.914-15.1-11.276-19.5-6.591-12.275-7.28-12.996-15.798-16.524-50.262-20.819-52.065-21.694-65.158-31.64-5.673-4.31-13.077-9.795-16.453-12.188-8.385-5.947-12.353-9.832-23.129-22.648-5.088-6.05-10.996-12.303-13.129-13.895-2.133-1.593-5.679-5.075-7.879-7.738-4.551-5.51-5.405-5.863-22.5-9.289-11.821-2.37-33.286-10.092-45.807-16.479-2.318-1.183-9.943-4.44-16.946-7.239-12.693-5.073-26.998-12.076-49.747-24.353L123.5.03 111.628.015c-10.354-.013-11.716.174-10.648 1.46M0 166.874c0 4.52.3 5.232 2.75 6.515 1.513.791 5.45 4.218 8.75 7.614s10.05 9.54 15 13.652c11.451 9.514 18.404 17.666 23.623 27.698 2.274 4.372 6.632 11.594 9.682 16.048C75.253 260.957 80.006 268.21 84.444 276c2.663 4.675 8.773 14.125 13.577 21 13.713 19.626 21.755 32.407 29.244 46.479 3.811 7.162 8.46 15.007 10.332 17.435 1.872 2.428 3.403 4.958 3.403 5.623s2.498 3.931 5.552 7.258l5.551 6.05 5.199-.506c4.29-.418 6.944.133 15.198 3.155 21.191 7.757 20.404 7.732 45 1.439 23.375-5.98 28.475-8.025 34.997-14.037 4.032-3.717 7.59-8.63 24.186-33.396 16.614-24.795 16.424-30.224-2.026-57.852-12.908-19.329-19.422-24.137-43.522-32.124-15.114-5.008-22.47-10.947-32.859-26.524-6.092-9.136-8.276-15.375-8.276-23.643 0-11.228 1.989-10.933 24.5 3.638 6.6 4.273 14.179 8.79 16.843 10.04 2.679 1.257 9.157 6.336 14.5 11.369 5.311 5.003 12.357 11.321 15.657 14.042 11.139 9.181 14.62 13.026 19.061 21.054 2.434 4.4 5.666 9.849 7.182 12.109 1.516 2.261 4.063 6.086 5.66 8.5a681.9 681.9 0 004.886 7.285c2.962 4.321 7.71 18.524 7.721 23.098.006 2.204 1.103 14.583 2.437 27.508 2.372 22.977 2.395 24.032 1.029 47.4-1.98 33.893-2.498 35.705-12.079 42.283-2.257 1.549-9.971 7.903-17.143 14.12l-13.039 11.303-1.369 9.197c-1.746 11.732-.707 16.216 6.29 27.16 2.827 4.42 6.267 10.062 7.645 12.537 1.377 2.475 3.285 5.625 4.239 7 2.466 3.554 12.997 24.871 17.5 35.422l3.807 8.921-.197 14.579c-.109 8.018.223 16.603.738 19.078a3949.76 3949.76 0 011.988 9.648c2.811 13.736 2.008 54.486-1.469 74.602l-.649 3.75h15.171l.496-3.25c2.999-19.667 3.007-27.281.065-61.75-.258-3.025-.737-15.625-1.063-28-.958-36.303-6.827-56.75-20.957-73.013-4.795-5.519-8.381-11.248-13.642-21.793l-7.138-14.306 1.704-5.406c1.73-5.487 4.55-9.028 10.711-13.448 1.878-1.348 9.957-9.219 17.952-17.492 20.163-20.864 19.492-17.637 15.921-76.542-.55-9.075-1.461-20.325-2.024-25-.563-4.675-1.288-16.375-1.611-26-.678-20.146.291-17.43-12.66-35.5-17.535-24.464-25.984-34.584-33.813-40.5-7.064-5.338-8.983-6.919-21.244-17.5-16.744-14.451-41.384-29.64-59.86-36.901l-4.838-1.902-3.204 2.965c-3.489 3.228-7.715 5.338-10.692 5.338-1.042 0-2.082.338-2.311.75-.858 1.542 1.295 19.115 3.95 32.25.299 1.479 6.701 8.778 15.677 17.875L207.5 248.25l24.184 11.931c25.618 12.638 24.165 11.582 30.816 22.385 9.022 14.654 13.133 27.279 10.52 32.302-.467.898-1.848 4.107-3.069 7.132-2.474 6.128-11.76 22.371-14.61 25.558-1.013 1.131-3.866 4.564-6.341 7.627-10.92 13.514-25.956 18.235-57.278 17.982-8.678-.07-16.553-.551-17.5-1.07-2.403-1.316-25.094-24.266-26.539-26.841-.651-1.16-2.475-4.28-4.053-6.933A498.153 498.153 0 01137.698 328c-5.052-9.079-9.795-16.262-13.601-20.601-6.876-7.838-16.999-22.962-22.472-33.575-3.029-5.872-6.744-12.622-8.258-15-1.513-2.378-3.794-6.268-5.068-8.644-3.094-5.768-19.073-25.3-26.326-32.18-3.02-2.865-20.763-23.026-24.861-28.25-2.912-3.713-5.796-6.75-6.41-6.75-2.293 0-19.733-11.176-25.115-16.094L0 161.799v5.075" fill="#d3d3d3" fill-rule="evenodd"/></svg>