<svg xmlns="http://www.w3.org/2000/svg" width="500" height="500"><path d="M10.677 11.656c-1.223 1.224-.773 427.524.453 429.001.825.994.811 1.343-.055 1.343-.801 0-1.076 1.974-.873 6.25l.298 6.25 3.626.303c2.263.189 4.198-.27 5.15-1.222 1.328-1.328 1.681-1.338 2.726-.078 1.229 1.481.482 2.022-5.502 3.993-1.858.611-1.805.762.75 2.113 1.512.8 2.75 1.943 2.75 2.54 0 .617 1.076.878 2.5.606 1.375-.263 2.5-.137 2.5.279 0 1.129 8.19 4.967 9.229 4.325.493-.305 1.656.126 2.584.958.928.833 3.487 1.823 5.687 2.201 7.451 1.281 14.991 3.701 17 5.457 1.981 1.731 8.5 4.368 8.5 3.438 0-.266.913.005 2.028.602s1.778 1.49 1.472 1.985c-.834 1.35 6.007 2.334 8.171 1.176 2.162-1.157 15.625-1.729 19.287-.821 1.352.336 4.052.675 6 .754 6.779.275 17.551 2.107 18.909 3.215 1.5 1.224 350.113 2.319 353.058 1.109 1.342-.552 1.29-.754-.351-1.365-1.112-.415-2.085-1.905-2.302-3.528-.357-2.664-.214-2.778 2.736-2.188 2.587.517 3.065.328 2.828-1.115-.329-1.999.845-4.237 2.223-4.237.518 0 .948.563.956 1.25.033 2.674 1.888 4.399 2.959 2.75 1.063-1.635 1.413-376.876.366-392.23-.327-4.802-.988-8.488-1.467-8.191-.48.296-.873-.388-.873-1.52 0-1.132-.413-2.059-.918-2.059-.505 0-1.635-.275-2.512-.611-1.2-.461-1.428-.184-.927 1.124.628 1.637.52 1.64-1.904.051-4.515-2.957-4.666-8.781-.208-7.973 4.012.728 5.163-4.666 2.755-12.915-1.163-3.987-1.18-5.1-.097-6.413 1.035-1.254 1.048-1.677.061-2.009-1.887-.635-1.499-2.251.5-2.084 4.119.345 5.25-.204 5.25-2.553 0-3.435-3.415-4.079-5.084-.959-1.364 2.549-3.933 2.795-4.713.453-.266-.798-.011-1.111.598-.734.584.361 1.345.195 1.693-.368.348-.563-.071-1.293-.931-1.623-1.981-.76-1.978-1.828.008-3.815 1.995-1.994 3.822-2.036 3.067-.071-.316.825-.155 1.5.358 1.5 1.01 0 3.114-3.419 2.899-4.709-.333-1.994.223-2.654 1.086-1.291.662 1.044.868.064.678-3.224-.15-2.598-.585-5.035-.966-5.416-1.067-1.067-.821-2.557.307-1.86.611.378 1-1.161 1-3.955v-4.573l-31.641.264c-28.687.239-31.743.425-32.728 1.987-.858 1.36-.672 2.027.885 3.165 1.462 1.069 2.167 1.141 2.728.277.995-1.532 2.72 1.001 2.741 4.026.008 1.205.465 2.469 1.015 2.809.55.34 1 1.661 1 2.937 0 1.275.681 2.883 1.512 3.573 1.073.891 1.212 1.618.478 2.502-.773.932-.335 1.387 1.738 1.805 1.818.367 3.167.046 3.921-.932.903-1.171 1.251-1.212 1.625-.188.357.976.779 1.018 1.685.169 2.071-1.943 4.795-.532 4.271 2.211-.468 2.45-2.594 3.261-3.73 1.423-1.132-1.832-5.956-1.012-8.244 1.402l-2.244 2.368 2.227.582c1.224.32 2.662.147 3.194-.385 1.419-1.419 8.146-1.179 9.403.335.594.716.822 2.291.506 3.5-.339 1.295-.116 2.198.541 2.198.615 0 1.117-.9 1.117-2s.372-2 .827-2c.455 0 .627 1.462.383 3.25-.362 2.662-.204 3.024.874 2 1.727-1.641 2.916-1.586 2.916.133 0 .761.9 1.619 2 1.907 2.28.596 2.576-.279.75-2.215-1.009-1.069-.961-1.236.25-.862.825.254 2.022-.246 2.66-1.113 1.287-1.747 2.661 3.219 2.669 9.65.002 1.788.379 3.25.838 3.25.458 0 .833-.9.833-2 0-2.941 1.674-2.434 2.473.749.631 2.513.8 2.598 1.969 1C469.123 56.45 470 56.536 470 59c0 1.1-.562 2.007-1.25 2.015-.846.011-.765.355.25 1.066 1.174.821 1.009.912-.755.416-1.55-.437-2.442-.146-2.855.928-.33.86-1.002 1.315-1.495 1.01-.492-.304-.895-.125-.895.399 0 2.011 3.361 2.176 5.405.266 1.756-1.64 2.376-1.75 3.829-.68.954.703 1.411 1.602 1.015 1.998-.987.987-1.199 6.582-.249 6.582.422 0 1.002.9 1.29 2 .287 1.1.115 2-.384 2-.498 0-.942-.787-.985-1.75-.047-1.045-.282-1.247-.583-.5-.652 1.616-3.037 1.616-3.632 0-.29-.788-1.721.096-3.87 2.393-2.96 3.162-3.358 4.184-3.018 7.75.345 3.613.143 4.107-1.678 4.107-1.138 0-2.558.913-3.155 2.028-1.339 2.502-2.993 1.719-2.263-1.071.494-1.89.141-2.02-4.738-1.749-3.36.186-5.421-.132-5.684-.878-.433-1.224 1.409-1.268 3.311-.079 1.302.815 2.389-.044 2.389-1.886 0-.716-.634-1.059-1.41-.761-.841.323-1.668-.274-2.051-1.481-.81-2.551-4.473-3.835-5.649-1.98-.63.995-.863.764-.875-.862-.01-1.558-.462-2.047-1.515-1.643-1.872.719-1.957 2.973-.139 3.67 1.388.533 2.99 4.705 1.795 4.677-1.076-.025-3.333-1.659-3.241-2.347.274-2.05-.098-2.636-1.665-2.623-1.493.013-1.53.156-.25.97 1.279.813 1.301 1.274.151 3.129-1.178 1.901-1.151 2.1.218 1.575.862-.331 1.833-.171 2.158.355.325.526-.534.956-1.909.956-2.71 0-4.273-1.477-2.634-2.49 1.62-1.002 1.177-2.301-.734-2.149-1.202.096-1.797-.644-1.901-2.361-.261-4.305-.357-4.536-1.274-3.087-.492.777-.755 2.914-.584 4.75.222 2.387-.102 3.337-1.136 3.337-.795 0-2.61 1.165-4.034 2.588l-2.588 2.588.485-2.538c.303-1.581-.024-2.733-.866-3.057-.744-.285-1.352-1.357-1.352-2.382 0-1.341-.632-1.795-2.25-1.615a81.128 81.128 0 01-3.906.333c-1.151.058-1.497.694-1.134 2.083.392 1.499.031 2-1.441 2-1.08 0-2.494 1.012-3.142 2.25l-1.179 2.25.432-2.249c.238-1.237-.015-2.525-.561-2.863-.546-.337-.791-1.386-.544-2.33.246-.944-.134-2.512-.845-3.484-1.366-1.869-.848-4.95.675-4.009.492.304.895-.149.895-1.006S405.743 74 405.429 74c-.979 0-3.429 2.802-3.429 3.921 0 1.207-4.018 6.079-5.014 6.079-.359 0-.653-.675-.653-1.5s.69-1.5 1.534-1.5c2.2 0 .054-1.937-2.743-2.476-1.899-.366-2.13-.104-1.564 1.773.366 1.212 1.064 2.63 1.552 3.153 1.224 1.31 1.116 3.55-.171 3.55-.582 0-.781-.45-.441-1s.174-1-.368-1-1.151-.787-1.352-1.75c-.314-1.493-.556-1.407-1.655.586-1.413 2.564-.583 4.503.914 2.135.727-1.15.934-.954.946.896.012 1.877-.399 2.258-1.985 1.843-1.1-.287-2-.115-2 .384 0 .498-1.125.906-2.5.906-1.686 0-2.5.553-2.5 1.7 0 1.236-.3 1.4-1.099.601-2.146-2.146-.005-5.543 3.198-5.073 2.256.331 2.901.037 2.901-1.319 0-.96.256-2.412.568-3.226.418-1.09-.112-1.441-2.01-1.331-1.491.085-2.392.634-2.137 1.299.826 2.159-11.125 4.447-12.405 2.375-.439-.711-1.327.11-2.339 2.164-.982 1.993-1.641 2.614-1.654 1.56-.031-2.391-1.668-2.214-2.313.25-.287 1.1-1.041 2-1.675 2-.634 0-.889-.427-.566-.95.323-.522-.326-1.438-1.441-2.035-1.115-.597-2.028-1.745-2.028-2.55 0-.806-.73-1.465-1.622-1.465-1.13 0-1.339.38-.689 1.25.513.688.85 1.813.747 2.5-.102.688-.242 2.177-.311 3.309-.069 1.132-.524 1.812-1.012 1.511-.487-.301-1.5.198-2.25 1.11-1.229 1.495-1.062 1.598 1.707 1.05 2.655-.526 3.311-.202 4.844 2.394 1.666 2.82 1.857 2.892 3.148 1.189 1.296-1.71 1.376-1.685 1.406.437.018 1.237-.418 2.25-.968 2.25s-.947.338-.882.75c.452 2.862-.262 3.644-1.65 1.809-.873-1.155-1.468-1.415-1.468-.643 0 .846-.609 1.045-1.75.572-.962-.399-2.425-.741-3.25-.758-.825-.018-1.747-.408-2.049-.866-.303-.458-1.562-.125-2.798.742-1.746 1.223-1.995 1.879-1.115 2.94.624.752.844 1.836.489 2.41-.355.574.083 1.044.973 1.044s1.34.45 1 1c-1.14 1.844-3.277 1.024-3.911-1.5-.345-1.375-1.043-2.5-1.551-2.5-.902 0-.724-2.263.474-6.039.51-1.605.155-1.824-2.429-1.497-1.665.211-3.602.744-4.305 1.185-.703.44-2.178.686-3.278.545-1.953-.249-1.955-.22-.102 1.244 1.57 1.239 1.678 1.765.628 3.031-1.398 1.685-3.514 2.13-2.526.531.975-1.578-.71-1.169-4.363 1.058-1.849 1.127-3.101 2.311-2.781 2.631.32.32 1.79-.21 3.268-1.178 2.493-1.633 2.638-1.637 2.031-.054-.36.939-.655 2.12-.655 2.625 0 .505-1.356.918-3.014.918-1.657 0-3.897.552-4.977 1.227-1.928 1.203-1.923 1.25.263 2.464 1.981 1.101 2.018 1.242.338 1.274-1.039.019-2.487-.752-3.218-1.715-1.251-1.648-1.33-1.638-1.36.174-.03 1.83-.146 1.817-2.346-.25-2.73-2.564-3.686-2.733-3.686-.649 0 .838 1.152 1.963 2.56 2.498 2.597.987 2.518 2.977-.119 2.977-.793 0-1.441.928-1.441 2.063 0 1.543-.544 1.984-2.157 1.75-1.186-.172-2.329.19-2.539.804-.23.672.63 1.005 2.157.838 1.651-.181 2.539.215 2.539 1.133 0 .856 1.03 1.412 2.617 1.412 2.124 0 2.518.376 2.093 2-.629 2.408-.091 2.524 2.001.432 1.423-1.423 1.707-1.279 3.089 1.574 1.466 3.028 1.423 3.232-1.205 5.669-1.499 1.39-2.447 2.806-2.106 3.147.341.341 1.021-.029 1.512-.823.741-1.2 1.012-1.128 1.608.424.468 1.219.152 2.279-.912 3.056-1.285.94-1.372 1.462-.412 2.481.979 1.041.682 1.196-1.535.804-1.513-.268-2.75-.099-2.75.375 0 .473.723.861 1.607.861 1.067 0 1.399.542.989 1.611-.453 1.18-.192 1.448.974 1 .877-.336 1.894-.618 2.262-.626.367-.009-.007-.488-.832-1.066-1.147-.803-.912-.89 1-.372 1.92.521 2.237.4 1.366-.519-1.467-1.547-.56-5.028 1.31-5.028.793 0 1.164-.45.824-1-.717-1.16-.474-1.224 5.432-1.433 3.663-.129 7.605-2.567 4.151-2.567-.595 0-1.083-.45-1.083-1 0-1.446 3.756-1.232 4.247.241.297.892.903.752 2.155-.5 3.457-3.457 3.753-.217.308 3.373l-2.289 2.386 2.435 2.5 2.436 2.5-.569-2.311c-.366-1.489-.064-2.505.849-2.855.779-.299 1.168-.946.863-1.439-.304-.492.163-.895 1.037-.895.875 0 1.813.58 2.085 1.289.687 1.788 4.415 1.91 4.568.149.069-.791.238-1.888.375-2.438.137-.55.306-1.702.375-2.559.076-.948.597-1.267 1.33-.814.662.409 2.559.892 4.215 1.074 1.656.181 3.453.772 3.995 1.314.542.542 1.908.933 3.035.869 1.687-.095 1.74-.197.3-.573-2.613-.683-2.112-2.061.75-2.061 2.522 0 3.309 1.132 1.544 2.223-.526.325-.74 1.155-.476 1.844.279.728-.369 1.318-1.543 1.406-1.114.084-2.025-.324-2.025-.908 0-.665-.559-.596-1.5.185-1.65 1.369-2.034 4-.583 4 .504 0 1.143-.563 1.421-1.25.277-.687.54-.012.583 1.5.059 2.057.583 2.75 2.079 2.75 1.1 0 2 .498 2 1.107s.662.853 1.471.542c2.593-.995 4.535 1.935 3.192 4.818-1.19 2.555-3.663 4.244-3.663 2.502 0-.533-.675-.969-1.5-.969-1.698 0-2.011 1.566-.5 2.5 1.702 1.052 1.1 2.476-.747 1.767-1.598-.613-1.585-.423.153 2.23 1.281 1.955 1.525 3.026.747 3.285-.634.212-1.153 1.049-1.153 1.86 0 .812.45 1.198 1 .858.55-.34 1-.101 1 .531 0 .631 1.013 2.008 2.25 3.058 2.117 1.797 2.146 1.99.5 3.271-.962.748-1.75 2.084-1.75 2.968 0 1.255-.494 1.419-2.25.749-1.491-.569-2.17-1.57-2.012-2.968.295-2.611-.86-2.714-2.647-.236-1.204 1.671-1.634 1.726-3.971.507-1.441-.752-3.155-1.37-3.809-1.374-.654-.003-1.509-2.143-1.901-4.756-.809-5.399-2.151-6.756-6.999-7.083-2.496-.168-3.411.181-3.411 1.302 0 .842-.498 1.531-1.107 1.531s-.862.638-.563 1.417c.299.78-.121 1.673-.933 1.984-1.003.385-1.384.01-1.187-1.167.222-1.328-.322-1.672-2.324-1.467-1.444.147-3.198-.439-3.92-1.308-1.166-1.405-.804-1.514 3.364-1.013 2.568.308 4.703.221 4.744-.193.041-.414.263-1.765.494-3.003.541-2.903-.381-2.903-1.497 0-.86 2.237-.871 2.234-1.943-.5-1.029-2.624-5.128-4.048-5.128-1.781 0 .532.749.681 1.664.33 1.119-.43 1.427-.256.941.531-.398.644-1.371 1.17-2.164 1.17-.793 0-1.441.477-1.441 1.059s-.526.734-1.17.336c-.777-.48-.964-.186-.556.876.337.88.076 1.818-.58 2.085-.657.268-.406.522.556.565 1.641.074 2.621 2.097 1 2.064-1.623-.033-3.472-1.816-2.879-2.776.917-1.484-4.87-3.31-6.219-1.961-.756.756-1.558.66-2.754-.333-1.511-1.253-1.615-1.174-1.001.76.578 1.823.364 2.075-1.378 1.62-1.844-.482-1.961-.272-1.105 1.98.527 1.386.687 2.791.355 3.122-.331.332.058.603.864.603.807 0 1.956-.489 2.554-1.087.783-.783 1.284-.768 1.792.052.431.699-.492 1.591-2.388 2.307-2.958 1.116-4.194 2.728-2.091 2.728.55 0 1 .477 1 1.059s-.399.813-.886.511c-.488-.301-1.13.383-1.427 1.52-.406 1.551-.164 1.923.97 1.488 1.906-.731 1.276 1.492-.717 2.528-2.327 1.211-5.382 2.224-6.19 2.053-.413-.088-.806.291-.875.841-.069.55-.238 1.45-.375 2s-.306 1.45-.375 2-.913 1.032-1.875 1.07c-1.489.06-1.452.193.25.893 1.845.759 1.864.878.237 1.542-.987.402-2.417.176-3.25-.516-.818-.678-1.539-.841-1.602-.361a24.18 24.18 0 01-.348 1.872c-.128.55-.301 1.98-.385 3.179-.083 1.198-.859 2.885-1.723 3.75-.865.864-1.09 1.571-.5 1.571 1.922 0 1.125 1.753-1.057 2.323-1.641.429-2.019 1.128-1.651 3.052.262 1.373.102 3.087-.357 3.81-.633.999-.837 1.015-.849.065-.008-.687-.514-1.25-1.123-1.25-.669 0-.871.946-.51 2.386.359 1.431.066 2.828-.734 3.491-1.922 1.596-2.519.495-2.031-3.75.534-4.649-3.256-8.686-7.22-7.691-1.355.341-2.397.159-2.397-.417 0-.56.45-1.019 1-1.019s1-.9 1-2c0-1.333.667-2 2-2 1.1 0 2-.402 2-.893 0-1.345-2.846-2.165-3.552-1.023-.339.549-1.478.724-2.532.389-2.243-.712-2.629 1.04-.416 1.889 2.39.917 1.737 2.638-1 2.638-1.375 0-2.5.536-2.5 1.191s-.592.382-1.315-.608c-.724-.989-2.861-1.926-4.75-2.081-1.889-.156-3.74-.332-4.112-.392-.372-.061-.882-.897-1.134-1.86-.366-1.401-.48-1.329-.573.36-.064 1.161-1.691 3.78-3.616 5.821s-3.5 4.16-3.5 4.708c0 .547-.844.728-1.876.4-1.336-.424-2.029-.011-2.406 1.433-.292 1.115-.933 2.028-1.424 2.028-1.081 0-.411-7.057.816-8.592.48-.601.579-1.385.221-1.744-1.167-1.166-3.127 2.794-3.896 7.872-.414 2.73-.943 4.402-1.177 3.714-.234-.688-1.025-1.25-1.758-1.25-.733 0-1.483-.413-1.667-.918-.183-.504-1.58-.675-3.105-.379-2.221.432-2.545.813-1.627 1.918.92 1.109.55 1.499-1.89 1.987-1.668.333-3.299 1.346-3.623 2.249a49.304 49.304 0 01-1.223 3.045c-.478 1.059-.068 1.254 1.676.798 4.099-1.072 5.11 2.011 1.835 5.597-1.53 1.675-2.521 3.469-2.201 3.986.32.517.098 1.239-.492 1.604-.702.434-.787 1.937-.245 4.338.927 4.111.404 5.304-1.596 3.644-1.065-.884-1.342-.572-1.342 1.509 0 1.442-.257 2.622-.571 2.622-1.229 0-3.068-2.584-2.676-3.759.228-.683-.038-1.241-.59-1.241-.552 0-1.292-1.312-1.645-2.916-.677-3.085-3.056-4.79-3.874-2.778-.268.657-.522.181-.565-1.056-.043-1.238-.631-2.138-1.305-2-3.075.627-1.798-3.831 1.369-4.782 1.774-.532 3.399-1.512 3.611-2.176.263-.826-.607-.713-2.747.354-1.722.86-3.255 1.403-3.407 1.208-1.062-1.368-3.538-9.146-3.124-9.815.282-.456-.236-1.117-1.152-1.468-.915-.351-1.981-.125-2.369.502-.522.845-.896.831-1.443-.053-.406-.657-.237-1.695.375-2.307.612-.612 1.113-1.923 1.113-2.913 0-.99.498-1.8 1.107-1.8s.853.661.544 1.468c-.31.807-.133 1.734.393 2.059 1.019.63 1.24-.541 1.373-7.275.045-2.337-.287-4.249-.738-4.25-2.043-.005-4.042-3.159-2.591-4.087.97-.621 1.911-.304 3.008 1.011 1.546 1.855 1.645 1.858 3.168.079 1.865-2.179 1.317-2.964-2.181-3.121-1.694-.076-1.981-.273-.833-.573 3.623-.947 1.552-2.066-3.592-1.941-3.319.081-5.993-.408-7.06-1.292-.944-.781-2.864-1.543-4.267-1.693-3.169-.338-3.739-.88-2.986-2.842.326-.849 1.746-1.543 3.156-1.543 3.012 0 4.829-3.499 3.183-6.134-.775-1.242-.602-2.091.69-3.383 2.643-2.642 1.643-4.932-2.319-5.31-2.866-.274-3.235-.095-2.25 1.092.648.78.882 1.715.52 2.077-.362.362-.13.658.517.658.875 0 .857.51-.074 2-.687 1.1-1.802 2-2.477 2-.681 0-.972.668-.653 1.5.4 1.041-.069 1.5-1.531 1.5-1.206 0-2.107-.641-2.107-1.5 0-.825-.45-1.5-1-1.5s-1-.675-1-1.5c0-.833-.889-1.5-2-1.5-1.1 0-2-.498-2-1.107s-.661-.853-1.468-.544c-.807.31-1.734.133-2.059-.393-.325-.526-.002-.97.718-.986.879-.021.78-.34-.3-.971-.885-.517-2.91-.591-4.5-.164-1.59.428-11.666.752-22.391.721l-19.5-.056-.338-3c-.187-1.65-.771-3.522-1.299-4.161-.62-.75-.589-1.391.088-1.809.577-.356 1.049-1.927 1.049-3.489v-2.842l6.583.487c5.958.44 6.902.824 9.93 4.034 2.422 2.568 3.847 3.356 5.16 2.852 1.665-.639 1.618-.844-.573-2.497-1.313-.99-2.084-2.293-1.712-2.894 1.213-1.962 3.543-.065 4.196 3.416.703 3.749 1.094 3.963 3.666 2.011 1.106-.839 1.75-2.675 1.75-4.987 0-3.404.175-3.615 2.5-3.032 2.918.733 3.254-.597.727-2.883-1.13-1.023-2.275-1.294-3.159-.748-.763.471-1.99.625-2.727.342-1.409-.54-1.88-3.24-.591-3.383l3-.333c2.675-.297 2.793-.406 3.733-3.459.516-1.677.393-2.166-.42-1.664-.633.391-2.215.014-3.516-.839-1.432-.938-4.967-1.621-8.956-1.731-7.14-.196-9.349-2.389-3.57-3.545 3.571-.714 4.596-1.895 2.382-2.745-1.188-.456-1.531-1.802-1.366-5.355.506-10.883.259-11.785-4.016-14.613-4.532-3-6.021-3.28-6.021-1.133 0 .825-.67 1.5-1.489 1.5-3.959 0-7.559 7.616-4.495 9.51.559.346.734 1.086.388 1.645-.345.559-.611 3.875-.591 7.37.025 4.402-.414 6.729-1.431 7.573-2.108 1.749-4.274-.461-2.776-2.835.767-1.215.705-2.386-.222-4.222-2.629-5.211-3.602-9.041-2.296-9.041 1.142 0 1.215-10.695.079-11.397-.459-.283-.643-1.812-.41-3.398.273-1.865-.196-3.501-1.329-4.634-1.382-1.383-1.478-1.922-.453-2.555.875-.541 1.065-1.736.583-3.66-.394-1.571-.794-4.431-.887-6.356-.094-1.925-.621-3.831-1.171-4.235-.603-.443-.458-.74.367-.75.871-.009 1.177-.739.844-2.014-.288-1.099-.133-2.24.345-2.535 2.652-1.64-6.14-14.098-9.626-13.641-2.228.292-2.43-.021-2.43-3.753 0-2.24-.45-4.072-1-4.072-2.135 0-.863-2.996 1.527-3.596 2.141-.538 2.332-.869 1.25-2.172-.826-.995-1.327-5.106-1.419-11.635-.156-11.132-1.054-16.301-2.569-14.786-1.406 1.406-4.753.259-4.113-1.41.296-.77.04-1.401-.569-1.401S114 25.54 114 26.2c0 .858-.307.893-1.078.122-.593-.593-.931-2.371-.75-3.95.314-2.749.531-2.863 5.078-2.656 2.613.119 4.75-.203 4.75-.715 0-1.662-3.764-3.001-8.434-3.001-4.468 0-6.048-1.217-3.066-2.362.825-.316 1.5-1.039 1.5-1.607 0-1.149-100.178-1.52-101.323-.375m302.248 37.166c-1.467 1.866-1.809 3.389-1.366 6.083.428 2.607.31 3.191-.43 2.124-.561-.809-1.28-1.211-1.598-.893-.967.966.59 3.864 2.076 3.864 1.85 0 1.777 2.436-.119 4.01-.941.781-1.176 1.677-.622 2.373.49.614.742 4.154.562 7.867-.187 3.829.082 6.75.622 6.75.522 0 .95.666.95 1.481 0 .814 1.125 1.763 2.5 2.108 1.605.403 2.5 1.331 2.5 2.591 0 1.822.118 1.845 1.645.318.905-.905 1.918-1.275 2.25-.822.333.453 1.1.914 1.704 1.024 1.35.245 1.638-5.436.317-6.252a1.107 1.107 0 01-.373-1.517c.316-.512.136-.931-.401-.931-.536 0-1.238.563-1.559 1.25-.465.998-.701.997-1.168-.006-.322-.691-.997-1.002-1.5-.691-.503.311-.915-.362-.915-1.494 0-1.329.649-2.059 1.832-2.059 1.223 0 2.19-1.164 2.907-3.5.816-2.659.784-3.5-.133-3.5-1.771 0-3.606 2.137-3.606 4.2 0 .99-.675 1.8-1.5 1.8-1.812 0-2.008-2.628-.25-3.338.747-.301.545-.536-.5-.583-4.281-.193-1.164-3.768 4.092-4.693 2.293-.403 2.599-1.386.432-1.386-3.151 0-3.592-2.745-.742-4.613C322.984 58.781 323.914 56 322 56c-1.717 0-1.092-1.836.833-2.447 1.245-.395 1.834-1.552 1.834-3.601 0-2.077-.323-2.696-1.034-1.985-1.429 1.429-2.633 1.292-2.633-.3 0-2.431-5.92-1.584-8.075 1.155m78.742 7.845c-.367.366-.667 1.69-.667 2.941 0 2.591-1.573 4.036-2.338 2.148-.388-.954-.712-.973-1.352-.075-.625.876-1.447.724-3.189-.59-2.149-1.621-7.143-1.778-7.106-.224.044 1.814 2.061 3.38 4.613 3.581 1.579.124 4.139.749 5.687 1.389S390.974 67 392.006 67s2.159.457 2.504 1.016a1.196 1.196 0 001.64.391c.576-.356.881.177.706 1.234-.392 2.381.85 4.359 2.738 4.359 1.161 0 1.25-.422.417-1.979-.583-1.089-.775-3.114-.427-4.5.661-2.634 1.98-3.33 2.627-1.387.245.734.976.536 2.076-.564.934-.934 2.151-1.417 2.705-1.075 1.406.869 1.263-.84-.192-2.295-.933-.933-.878-1.203.25-1.215 1.233-.013 1.225-.16-.05-.977-1.871-1.2-5.09-.329-6.789 1.838-1.131 1.441-1.404 1.459-2.214.149-.659-1.067-.433-1.689.79-2.174 1.259-.5.984-.699-1.037-.751-1.747-.044-2.75-.617-2.75-1.57 0-1.522-2.115-2.051-3.333-.833m-85.212 70.588c-.885 3.006-1.232 3.221-4.705 2.917-3.567-.312-5.163 1.078-2.5 2.177.797.329.525.741-.75 1.135-2.27.702-4.799 5.213-3.406 6.074.498.308.906.066.906-.538 0-.719.467-.663 1.349.161.742.693 1.155 1.999.919 2.902-.236.902.299 1.921 1.189 2.262 1.627.624 2.442-.479 2.97-4.017.17-1.141 1.109-1.828 2.499-1.828 1.224 0 2.754-.929 3.4-2.064 1.275-2.242 9.421-2.94 10.924-.936.471.628 1.102.452 1.697-.474.611-.949.58-1.7-.085-2.111-.568-.351-1.107-1.038-1.197-1.527-.091-.488-.558-.757-1.038-.597-.48.16-.606-.403-.281-1.25.373-.974.029-1.541-.936-1.541-.841 0-1.25.45-.91 1 .34.55.141 1-.441 1s-1.059-.9-1.059-2-.45-2-1-2-1 .45-1 1-.498 1-1.107 1-.829-.725-.489-1.611c.426-1.108.185-1.445-.771-1.078-.764.293-1.802.12-2.306-.384-.555-.555-1.293.362-1.872 2.328m-113.886 14.668c-.966 1.068-2.39 1.699-3.163 1.403-.773-.297-1.406-.042-1.406.567s.702 1.107 1.559 1.107c.958 0 1.273.463.818 1.2-1.682 2.72-1.035 5.823 1.09 5.233 1.639-.455 1.742-.361.533.486-1.242.87-1.118 1.053.719 1.066 1.486.01 2.041.477 1.681 1.414-.628 1.637 1.179 3.092 2.063 1.661.331-.535 1.28-.712 2.11-.394.941.361 1.399.071 1.218-.77-.175-.812.704-1.431 2.209-1.557 1.401-.117 1.731.015.75.3-1.896.55-2.299 1.904-.835 2.808.503.311 1.112 0 1.353-.691.318-.907 1.041-.722 2.602.663 2.132 1.893 2.182 1.893 3.614 0 1.91-2.524 1.869-3.18-.234-3.73-1.077-.281-.692-.502 1-.573 1.512-.064 2.75-.566 2.75-1.116 0-.55-.506-.888-1.125-.75-.619.137-1.354-.381-1.634-1.152-.367-1.011.075-1.249 1.588-.853 1.226.321 2.612-.072 3.337-.945 1.065-1.283.753-1.446-2.213-1.155-2.726.268-3.398 0-3.19-1.269.433-2.649-2.245-3.967-9.023-4.444-5.432-.381-6.682-.153-8.171 1.491M268 158.062c-1.925.371-3.163.79-2.75.931 1.624.556 2.851.762 5.25.882 1.792.09 2.5.692 2.5 2.125 0 1.1.563 2.041 1.25 2.09.688.05-.212.513-2 1.029-3.56 1.028-4.094 2.934-2.067 7.383 1.643 3.607 6.369 3.229 6.211-.497-.058-1.373.573-2.991 1.402-3.598 1.094-.8 1.187-1.299.339-1.823-.642-.397-.907-1.144-.588-1.66.319-.516-.121-1.207-.978-1.536-.857-.329-1.349-.935-1.094-1.347 1.174-1.901-3.992-4.65-7.475-3.979m69.162 53.243c-.646.778-.858 3.489-.527 6.748.61 6.02.523 12.122-.183 12.828-.251.251.179 1.168.956 2.038 1.917 2.146-1.849 5.21-4.908 3.993-1.936-.77-1.928-.817.25-1.47 3.17-.951 2.799-2.442-.607-2.442-2.722 0-2.857.214-2.857 4.529 0 4.47.98 6.467 2.204 4.487 1.05-1.699 4.337-1.135 4.968.853.696 2.191 10.894 4.762 14.902 3.756 2.735-.687 5.9.145 5.153 1.354-.459.743-.866 8.684-.629 12.271.179 2.695 3.661 2.094 5.674-.98 1.056-1.611 1.957-2.225 2.199-1.5.587 1.763 2.666 1.518 5.315-.627l2.294-1.857-2.639-1.729c-1.452-.951-3.063-1.467-3.582-1.147-.518.321-2-.517-3.294-1.86-3.103-3.225-3.124-8.186-.047-11.263 3.086-3.086 2.23-4.005-4.57-4.909l-5.734-.762 4.848-.739c4.693-.716 6.434-1.432 5.569-2.291-.782-.777-10.52-.95-11.72-.208-1.559.964-3.197-.084-3.197-2.044 0-.997-.56-1.333-1.572-.945-2.546.977-5.812-1.221-4.379-2.948.648-.78 1.577-1.172 2.064-.871.488.301.887-.154.887-1.011 0-3.234 5.97-1.685 7.478 1.941.767 1.846.865 1.86 1.261.193.475-1.997 4.069-3.693 7.826-3.693 1.339 0 2.435-.45 2.435-1 0-1.09-.891-1.214-8.75-1.214-3.13-.001-5.25-.442-5.25-1.093 0-.77-.333-.76-1.127.034-.719.719-1.941.817-3.373.273-1.358-.516-2.642-.458-3.248.148-.669.669-1.002.167-1.002-1.514 0-3.075 1.848-3.942 7.867-3.692 3.199.133 4.785-.243 5.161-1.225.753-1.962-14.506-2.352-16.116-.412M248 256.5c0 1.681-.826 1.882-6.348 1.544-3.345-.204-3.77.008-3.257 1.625.741 2.335-3.196 5.272-4.417 3.295-1.017-1.644-3.038-.283-2.327 1.568.369.964-.075 1.473-1.294 1.483-1.517.013-1.591.184-.405.934.799.506 1.811.697 2.25.426 1.49-.921 2.974.708 1.864 2.046-.725.873-.6 1.814.419 3.161 1.331 1.759 1.454 1.772 1.483.154.031-1.695 4.537-1.778 7.198-.134.459.284.834-.662.834-2.102 0-1.564-.42-2.358-1.044-1.973-1.305.807-3.956-1.304-3.956-3.149 0-.758.9-1.378 2-1.378s2-.436 2-.969c0-.532-.675-.709-1.5-.393-.825.317-1.5.078-1.5-.531s1.336-1.107 2.969-1.107c2.268 0 2.828.365 2.374 1.548-.335.874.155 2.095 1.125 2.805.946.691 1.79 2.47 1.876 3.951.143 2.463 1.656 4.012 1.656 1.696 0-.55.505-1 1.122-1 .824 0 .828.356.013 1.338-.854 1.029-.595 1.587 1.127 2.421 3.296 1.597 5.738 1.189 5.738-.957 0-2.459 2.296-3.249 5.093-1.752 1.858.994 2.453.923 3.427-.408.648-.886 1.471-1.318 1.829-.96.358.358.651-.739.651-2.438 0-2.688-.487-3.246-3.75-4.298-5.2-1.676-5.505-1.934-4.176-3.535 1.369-1.65 1.1-1.709-7.074-1.557-3.025.056-4.937-.151-4.25-.459 1.736-.78 1.568-2.395-.25-2.395-.825 0-1.5.675-1.5 1.5m-51 29.417c0 1.054.563 2.143 1.25 2.421.688.277-.55.504-2.75.504s-3.435-.228-2.744-.506c2.354-.949.137-2.336-3.733-2.336-6.375 0-9.757 2.334-4.773 3.294 1.644.317 1.383.47-.969.57-2.452.104-3.084-.214-2.654-1.334.452-1.178-.297-1.412-3.782-1.179-3.43.23-4.283.645-4.051 1.97.369 2.111-10.287 2.522-11.132.429-.316-.784-.534-.633-.583.405-.067 1.41-1.006 1.584-6.329 1.172-4.58-.354-5.849-.199-4.75.58 1.173.831.711 1.066-2.125 1.078-5.797.024-10 1.173-10.638 2.907-.325.884-.849 1.833-1.164 2.108-.948.827-5.21 13.262-5.741 16.75-.63 4.138-5.115 4.164 51.514-.303 10.09-.796 20.912-1.447 24.05-1.447 7.008 0 8.401-1.098 6.423-5.062-.795-1.594-1.867-3.159-2.382-3.477-.515-.319-.937-1.404-.937-2.413s-.726-2.112-1.613-2.453c-1.283-.492-1.367-.914-.414-2.063 1.374-1.655.576-3.532-1.501-3.532-.782 0-1.175-.609-.884-1.369.317-.826-.341-1.595-1.661-1.94-1.551-.406-1.999-1.062-1.54-2.258.739-1.925-.963-4.433-3.009-4.433-.758 0-1.378.863-1.378 1.917m-33.714 7.948c-11.668.951-21.393 1.933-21.612 2.182-1.317 1.497-7.674 16.463-7.674 18.066 0 1.805.549 1.893 8.25 1.321 27.332-2.029 66.136-5.486 66.582-5.932.74-.741-5.851-13.209-8.021-15.173-2.612-2.364-12.7-2.489-37.525-.464m249.57 97.066c-.525 1.575-18.856 2.314-18.856.76 0-.445-.457-.527-1.015-.182-.558.345-2.858.796-5.11 1.002-4.568.419-5.38.864-4.416 2.422.84 1.36 10.216 1.403 11.051.051.346-.559 1.046-.759 1.556-.443 2.005 1.239 16.753 1.064 18.509-.219 1.265-.925 2.124-.987 3.049-.219.709.588 1.791.758 2.406.379 1.513-.936-2.669-3.835-4.512-3.127-.764.293-1.568-.005-1.787-.661-.271-.815-.549-.739-.875.237m-58.562 3.175c-.874.874-9.808 1.812-22.794 2.394-4.4.197-14.3.862-22 1.477-15.183 1.214-39.633 2.895-43.25 2.974-1.238.027-2.25.676-2.25 1.442 0 1.676 2.733 2.89 4.31 1.915.621-.384 4.743-.748 9.16-.809 9.588-.133 26.516-1.35 35.53-2.554 3.575-.478 10.325-1.101 15-1.385 4.675-.284 11.425-.995 15-1.581 3.575-.585 11.45-1.157 17.5-1.272 8.578-.161 11-.51 11-1.585 0-1.512-5.504-2.356-7.464-1.145-.647.401-2.921.41-5.051.02-2.131-.389-4.242-.34-4.691.109m36.505 34.394c-.69.614-11.597 1.827-15.144 1.685-3.876-.155-7.655 1.184-7.655 2.712 0 .454 1.192.598 2.649.319 1.828-.349 2.429-.151 1.941.639-.888 1.436-.421 1.434 3.095-.016 1.548-.638 6.865-1.296 11.815-1.463 24.544-.824 28.689-1.38 25.471-3.415-1.977-1.25-6.325-1.207-7.608.076-.693.693-1.889.714-3.604.062-2.274-.865-10.174-1.296-10.96-.599M10 481.008v7.183l27.029-.458c14.865-.251 27.315-.744 27.666-1.095.351-.351-.715-.638-2.369-.638-1.655 0-5.217-.67-7.917-1.489-5.869-1.78-5.682-1.761-4.909-.511.34.55.169 1-.379 1-2.028 0-14.638-3.182-15.612-3.94-.89-.692-5.765-2.256-7.727-2.478-.394-.045-1.531-.757-2.526-1.582-.995-.825-2.472-1.549-3.282-1.609-.811-.059-3.387-.436-5.724-.837l-4.25-.73v7.184" fill="#d3d3d3" fill-rule="evenodd"/></svg>