<svg xmlns="http://www.w3.org/2000/svg" width="500" height="658"><path d="M0 329.002v329.002l250.25-.252 250.25-.252.252-328.75L501.003 0H0v329.002m.494.498c0 180.95.115 254.826.256 164.169.141-90.657.141-238.707 0-329S.494 148.55.494 329.5M407.639 7.694c-.552.552-58.92 1.579-79.639 1.402-22.845-.196-82.773-.012-114.5.352-55.834.641-65.778.653-137.274.172l-63.273-.426-1.902 3.936C9.17 17.023 8.378 29.204 9.856 31.5c.59.916.907 6.897 1.061 20 .033 2.75.087 6.974.12 9.386.034 2.413-.679 5.947-1.584 7.854-1.488 3.135-1.501 3.865-.14 7.614 1.141 3.141 1.438 7.662 1.224 18.646-.191 9.772.141 15.913 1.017 18.832 1.091 3.637 1.068 4.988-.143 8.421-.794 2.248-1.405 6.824-1.358 10.168.046 3.343.041 13.729-.011 23.079-.052 9.35 0 20.171.117 24.046.116 3.875-.028 7.475-.321 8-.292.525-.642 5.454-.778 10.954-.325 13.204-.377 12.323 1.045 17.778 1.007 3.865.989 6.254-.094 12.5-1.134 6.543-1.29 13.021-.822 34.222.031 1.375-.182 7.45-.472 13.5-.422 8.785-.235 11.33.931 12.638 1.738 1.951 1.857 3.724.694 10.362-.482 2.75-.791 12.425-.685 21.5.306 26.276.179 67.091-.223 72a211.54 211.54 0 01-.989 9.091c-.488 3.608-.248 4.963 1.122 6.333 1.556 1.556 1.642 2.777.802 11.409-.79 8.109-.875 17.026-.356 37.417.039 1.512.042 3.538.007 4.5-.232 6.407-.344 16.351-.297 26.25.15 31.158-.223 49.476-1.18 58-.34 3.025-.559 6.175-.486 7 .073.825.202 8.25.288 16.5.085 8.25.522 15.567.97 16.26.96 1.483.956 18.344-.006 26.24-.818 6.721-.569 21.921.457 27.9 1.417 8.258-.071 8.001 47.234 8.163 22.825.079 43.975.06 47-.042 3.025-.102 14.275.148 25 .556 10.725.408 20.625.703 22 .656 19.606-.671 47.611-.036 52.397 1.19 3.016.771 5.921.969 7.103.483 3.229-1.329 16.505-3.122 23-3.107 9.319.022 30.83 1.303 32.5 1.935 3.2 1.211 8.093.923 8.903-.525.664-1.187 3.994-1.515 17.21-1.698 35.865-.496 48.046-.531 48.702-.142.377.225 3.522-.027 6.989-.558 4.061-.622 6.73-.621 7.5.002.711.575 4.216.685 8.64.271 4.094-.383 11.069-.553 15.5-.377 4.431.175 13.456.467 20.056.649 6.6.181 12.818.685 13.817 1.119 1.073.467 2.282.326 2.95-.342 1.24-1.24 8.764-1.361 12.733-.206 1.375.401 3.477.299 4.672-.224 1.434-.629 3.269-.571 5.398.172 2.366.824 3.583.828 4.564.014.796-.661 2.864-.853 5.102-.474 2.07.35 10.289.819 18.264 1.042 7.975.223 16.652.63 19.282.905l4.783.5-.719-3.681c-.395-2.025-.61-14.931-.479-28.681.132-13.75.201-26.575.152-28.5-.663-26.29.517-112.097 1.551-112.786.726-.485.817-3.602.283-9.714-.432-4.95-1.066-14.396-1.409-20.99-.342-6.595-.772-12.231-.954-12.526-.182-.294.341-3.674 1.163-7.51.821-3.836 1.558-8.099 1.637-9.474.079-1.375.488-2.747.909-3.048.421-.301-.138-2.234-1.243-4.295-1.709-3.19-1.803-3.953-.626-5.13 1.044-1.044 1.259-3.419.877-9.705-.747-12.308-.608-16.772.699-22.322.91-3.868.9-6.471-.044-11.5-.671-3.575-1.116-9.425-.989-13 .126-3.575.192-13.925.146-23-.046-9.075-.05-21-.009-26.5s.063-10.675.049-11.5c-.565-33.633-.433-62.777.289-63.767.539-.738.635-6.37.23-13.5-.982-17.28-1.003-17.491-1.761-18.249-.376-.376-.177-1.795.442-3.152.838-1.841.821-4.237-.067-9.419-1.611-9.392-1.499-14.029.402-16.744 1.421-2.029 1.456-3.593.319-14.472-.701-6.708-1.171-13.547-1.044-15.197.615-8.036.728-43.233.143-44.899-.366-1.044-.256-4.194.246-7 1.255-7.021 1.276-12.722.054-15.101-.565-1.1-.822-4.7-.57-8 .77-10.102.731-38.729-.059-43.549l-.745-4.549-8.719.457c-10.717.561-15.27.587-21.719.126-2.75-.196-9.222-.036-14.383.357-8.109.617-23.224-.227-33.689-1.88-1.689-.267-3.394-.163-3.789.232M275.5 97.934c-1.65.466-11.325 3.562-21.5 6.881-10.175 3.318-20.412 6.534-22.75 7.147-4.692 1.231-5.137 2.422-2.681 7.172.863 1.668 2.007 5.809 2.542 9.2.535 3.391 3.683 17.641 6.996 31.666 6.825 28.889 8.645 36.719 12.32 53 1.427 6.325 4.62 20.232 7.095 30.906 2.475 10.673 4.383 19.514 4.239 19.646-.143.133-5.58-.586-12.082-1.596l-11.82-1.838-8.68-7.786c-4.773-4.283-11.829-10.758-15.679-14.39-8.901-8.396-15.261-14.112-33.431-30.048C160.229 190.496 156.072 187 155.22 187c-1.783 0-27.032 25.686-33.42 34C89.584 262.927 78 295.988 78 346.008c0 17.914.946 27.783 5.466 56.992a7895.156 7895.156 0 014.577 30c1.113 7.425 2.449 16.2 2.97 19.5.52 3.3 2.067 13.216 3.437 22.035 2.428 15.631 11.129 61.377 11.802 62.05.52.52 18.207 4.127 28.248 5.76 4.95.806 14.4 2.385 21 3.511 6.6 1.125 16.275 2.762 21.5 3.637 5.225.874 20.065 3.372 32.978 5.549 12.913 2.177 24.013 3.958 24.667 3.958.654 0 1.652-2.138 2.217-4.75a802.403 802.403 0 012.497-11.014c1.267-5.4 1.275-6.459.056-7.679-1.75-1.75-1.845-3.643-.165-3.307.688.138 1.25-.425 1.25-1.25s.509-1.95 1.13-2.5c3.044-2.693 2.406-6.078-2.152-11.417-3.614-4.234-4.478-5.986-4.478-9.083 0-2.11-.273-4.548-.607-5.418-.423-1.102-.028-1.582 1.3-1.582 1.049 0 2.414-.507 3.034-1.127.66-.66 2.249-.845 3.838-.446 2.694.676 2.708.726 2.098 7.377-.962 10.496.698 10.48 3.124-.031 1.177-5.1 3.947-16.923 6.154-26.273 4.674-19.794 4.921-22.5 2.059-22.5-2.84 0-2.5-1.123 1.519-5.019 3.218-3.118 4.557-6.087 5.858-12.981.26-1.375 1.179-5.782 2.043-9.793 1.914-8.886.969-11.945-5.287-17.135-4.636-3.845-5.132-6.3-2.037-10.072 1.491-1.817 2.2-2.132 2.594-1.153.297.741 1.874 2.864 3.502 4.719l2.961 3.372 2.448-2.641c1.346-1.453 2.665-3.801 2.931-5.219.266-1.418 1.816-8.203 3.444-15.078s4.604-19.925 6.614-29c4.375-19.759 5.387-24.034 9.234-39 1.625-6.325 4.805-20.023 7.066-30.441 4.453-20.519 4.453-20.515-1.548-20.544-4.021-.019-26.205-2.884-29.818-3.85-2.209-.591-.077-1.376 11.122-4.098 16.749-4.071 44.401-11.126 57.263-14.61 5.175-1.402 9.932-2.348 10.571-2.103 1.024.393 2.17 5.46 4.022 17.782.633 4.213 7.668 12.864 10.461 12.864.985 0 2.391-.722 3.123-1.604.733-.882 2.293-1.97 3.468-2.417 2.366-.899 4.446-8.694 4.446-16.659 0-3.741 1.224-7.544 3-9.32.275-.275.643-1.824.818-3.443.395-3.652 2.003-6.786 3.125-6.092 2.698 1.667 2.755-21.605.063-25.465-.959-1.375-2.048-3.481-2.42-4.681-.65-2.093-4.748-3.788-7.536-3.117-.831.2-2.029-3.482-3.643-11.202-12.916-61.74-36.787-89.872-78.407-92.398-4.675-.284-9.85-.134-11.5.332m25.819 280.336c-3.429 3.839-6.319 8.474-6.319 10.134 0 .945-.841 1.596-2.059 1.596-1.132 0-1.779.453-1.436 1.008.342.554-.081 1.711-.941 2.571-1.112 1.112-1.564 1.196-1.564.292 0-.878-.321-.95-1.037-.234-1.474 1.474.551 6.363 2.635 6.363 1.204 0 1.368.336.609 1.25-1.025 1.236-1.207 1.8-1.207 3.75 0 .55-.408 1-.906 1-.499 0-.685-1.012-.414-2.25.397-1.808.283-1.955-.578-.75-1.58 2.212-1.386 5.323.292 4.679 1.401-.538 5.606 3.133 5.606 4.895 0 2.094-4.24 3.749-5.202 2.03-1.305-2.332-3.33-1.968-5.236.942-2.152 3.284-1.404 5.384 2.979 8.362 2.041 1.387 3.416 3.084 3.242 4-.395 2.072-4.783 2.777-4.783.769 0-.805-.675-1.722-1.5-2.039-.825-.316-1.5-1.264-1.5-2.107 0-3.365-3.189-1.226-5.767 3.87-1.503 2.97-5.943 11.183-9.866 18.25l-7.132 12.849.923 7.5c2.063 16.761 8.206 36.971 15.933 52.417 9.493 18.977 29.321 44.959 43.86 57.472 11.878 10.223 10.238 10.081 28.67 2.483 8.733-3.601 19.479-7.824 23.879-9.385 10.422-3.698 18.134-6.746 21.605-8.541l2.789-1.443-.499-42.251c-.274-23.239-.627-58.489-.784-78.334-.157-19.845-.586-36.569-.954-37.164-.368-.596-.329-1.273.087-1.505.416-.232.164-.273-.559-.091-.895.224-1.117-.296-.695-1.627.341-1.075.16-2.816-.402-3.867-.8-1.495-.586-2.308.982-3.727 1.744-1.578 1.805-1.928.468-2.676-.846-.473-1.538-1.465-1.538-2.204 0-2.648-.624-2.706-49.876-4.644-22.965-.903-27.961-1.369-31-2.888-6.164-3.082-8.576-3.25-10.805-.755" fill="#d3d3d3" fill-rule="evenodd"/></svg>