<svg xmlns="http://www.w3.org/2000/svg" width="500" height="500"><path d="M.264 250.002L.029 500.004l250.235-.252L500.5 499.5V0H.5L.264 250.002M201.746 43.803c-.594.717-.961 2.742-.815 4.5.145 1.758.251 5.335.236 7.947-.033 5.584 1.918 6.439 3.993 1.75 1.617-3.653 2.84-3.868 2.84-.5 0 1.375.45 2.5 1 2.5s1 .89 1 1.977c0 2.221 4.349 5.544 5.956 4.55.574-.355 1.044.074 1.044.953 0 1.33.368 1.256 2.189-.441 1.203-1.121 2.553-2.039 3-2.039.446 0 .811-.73.811-1.622 0-1.329-.271-1.398-1.5-.378-.984.816-1.5.871-1.5.158 0-.598.9-1.569 2-2.158s2-1.968 2-3.065c0-1.098 1.151-4.73 2.558-8.074 1.407-3.343 2.42-6.215 2.25-6.384-1.136-1.128-26.107-.827-27.062.326m42.894 1.692c-.371.967-.211 2.317.355 2.999.723.871.62 1.581-.347 2.383-2.602 2.16.401 16.123 3.468 16.123 2.359 0-.14 13.354-2.775 14.829-.831.465-1.669 2.555-1.863 4.646-.357 3.846-1.896 6.44-3.104 5.232-.362-.362-.207-1.232.345-1.933 1.811-2.299 2.341-8.774.718-8.774-.79 0-1.445.338-1.454.75-.01.412-.684 3.895-1.498 7.739-1.736 8.194-2.771 28.806-1.404 27.961.505-.312.986-2.454 1.069-4.759.114-3.191.237-3.475.518-1.191.317 2.584 1.423 7.665 2.967 13.627.254.978 1.904 1.865 4.143 2.224 2.212.356 4.243 1.436 5.005 2.663.705 1.135 1.687 1.814 2.181 1.508.494-.305 1.18-.097 1.526.462 1.042 1.685 2.51 1.144 2.51-.925 0-1.068.43-2.207.956-2.532 1.018-.629.404-3.165-1.298-5.355-.568-.73-.922-3.43-.788-6 .136-2.596-.472-6.384-1.369-8.526-1.757-4.193-1.341-8.513 1.207-12.528 1.196-1.885 1.692-2.094 2.381-1 .652 1.036 1.181.567 2.11-1.868 1.405-3.683 2.801-4.269 2.801-1.177 0 2.865 3.398 2.123 3.82-.833.175-1.232.786-2.24 1.357-2.24.57 0 .783.663.472 1.474-.312.811.187 1.895 1.111 2.412 1.334.746 1.653 2.336 1.561 7.776-.084 4.929.428 7.955 1.833 10.838 2.014 4.133 1.847 14.764-.252 16.061-1.607.993-1.061 4.714.598 4.077 2.148-.824 1.851 1.081-.479 3.076-1.171 1.002-1.565 1.95-.966 2.32.557.344.694 1.457.304 2.473-.681 1.774-.739 1.771-1.464-.08-.703-1.797-.759-1.781-.825.24-.038 1.191.427 2.332 1.033 2.534.76.253.631 1.5-.415 4.004-2.626 6.285-1.62 19.097 2.025 25.795 1.647 3.025 2.797 6.063 2.557 6.75-.258.74.414 1.25 1.647 1.25 1.146 0 2.083.52 2.083 1.155 0 .663.835.399 1.96-.618 2.719-2.462 9.18-2.179 14.883.652l4.657 2.311v10.248c0 6.153-.4 10.254-1 10.265-.55.01-.325.454.5.987 1.318.852 1.311.971-.065.985-1.633.016-4.997 5.708-5.919 10.013-.326 1.524-1.227 2.499-2.309 2.5-.975.001-2.096.519-2.49 1.151-.394.632-1.842 1.307-3.217 1.5-1.736.244-2.602 1.073-2.834 2.712-.213 1.503.06 2.118.75 1.691.681-.421 1.078.373 1.069 2.139-.011 1.954-.277 2.397-.875 1.453-.532-.84-.839.87-.806 4.5.029 3.221-.272 7.656-.668 9.856-.397 2.2-.931 9.593-1.186 16.43-.479 12.792-2.01 17.51-4.904 15.108-.632-.525-2.027-.732-3.098-.46-1.173.297-2.943-.416-4.448-1.792-1.375-1.257-3.163-2.286-3.972-2.286-2.953 0-3.272-15.096-.585-27.686.568-2.664-1.428-5.358-2.217-2.991-.216.647-1.057 1.177-1.868 1.177-.812 0-1.198.45-.858 1 .806 1.304.527 1.274-4.464-.487-3.356-1.184-4.655-1.243-6.376-.288-1.188.66-2.498 1.104-2.91.987-.412-.116-.75.238-.75.788s.45 1 1 1 1 .675 1 1.5c0 1.764 1.158 1.942 2.687.413.783-.783 1.275-.783 1.759 0 .37.598.195 1.087-.387 1.087-.582 0-1.059.517-1.059 1.149 0 1.667-6.848 8.063-7.921 7.4-.5-.309-1.093-.006-1.32.674-.31.929-1.012.844-2.835-.34-2.941-1.91-7.779-2.926-8.487-1.782-.733 1.188-6.726-.087-8.036-1.709-.604-.749-1.371-1.089-1.703-.756-1.249 1.248-5.478-.628-5.338-2.368.1-1.255-.849-1.927-3.36-2.377-2.964-.532-3.088-.648-.809-.759 1.48-.073 2.89-.47 3.133-.882.848-1.441-1.345-5.443-3.257-5.943-1.065-.278-1.705-1.087-1.43-1.804.275-.716.011-1.602-.585-1.971-.597-.369-.857-1.038-.579-1.488 1.425-2.306-2.561-3.307-7.243-1.819-4.844 1.541-7.086 5.125-3.957 6.326.916.352 1.474 2.275 1.588 5.471.142 4.038-.1 4.823-1.344 4.346-.834-.32-1.517-1.01-1.517-1.534s-.45-.674-1-.334c-1.305.806-1.282 6.627.039 10.102 1.141 3.001-.488 5.101-2.597 3.349-.62-.513-1.46-.6-1.867-.192-.408.407-1.042.763-1.408.79-3.449.254-4.791 1.649-4.367 4.538.295 2.012.787 2.726 1.434 2.079.647-.647 1.982-.098 3.889 1.601 5.933 5.287 26.352 10.354 56.877 14.115 9.829 1.211 24.495 2.955 31 3.687 6.123.689 10.225 1.539 9.745 2.019-.879.879-21.35 2.371-39.745 2.897-10.725.307-20.85.765-22.5 1.018-1.65.253-11.55.937-22 1.521-10.45.583-28.675 1.704-40.5 2.49-11.825.786-36.35 2.364-54.5 3.507-18.15 1.143-34.006 2.288-35.235 2.544-2.933.611-2.995 1.013-4.316 27.935-1.017 20.749-1.358 23.483-3.482 27.937-1.295 2.715-2.191 5.201-1.991 5.525.421.681 1.421 13.125 1.67 20.788.098 3.011.637 5.257 1.263 5.265.636.009.556.355-.193.83-1.675 1.063-.75 3.202 2.374 5.488 2.672 1.954 5.41.964 5.41-1.955 0-1.794-.369-1.857 9.752 1.676 26.901 9.393 93.172 27.396 112.248 30.494 12.859 2.088 42.42 5.431 48.128 5.443 5.352.01 7.955-1.981 5.872-4.491-.838-1.01-.922-1.909-.258-2.75 2.063-2.612 7.053-17.491 7.713-23.001.379-3.162 1.332-6.393 2.117-7.178.785-.786 1.428-2.045 1.428-2.798 0-1.541 6.908-9.041 10.29-11.172 1.216-.766 4.91-1.688 8.21-2.048 3.3-.361 7.8-.893 10-1.183 2.2-.289 6.238-.514 8.973-.5 2.752.015 5.354-.508 5.826-1.172.655-.92.973-.901 1.37.081.605 1.497 10.839 8.221 12.513 8.221.628 0 2.982 1.07 5.23 2.378s6.113 2.641 8.588 2.962c2.475.322 5.625.847 7 1.169 1.375.321 6.1 1.269 10.5 2.107 4.4.837 10.475 2.329 13.5 3.316 3.025.986 6.645 1.843 8.044 1.903 1.4.059 4.494.796 6.876 1.637 6.464 2.28 12.08 2.061 12.08-.472 0-1.1.616-2 1.368-2 .827 0 1.569-1.494 1.875-3.772.635-4.738 4.717-14.37 5.805-13.698.908.561.64 2.43-1.935 13.489-.979 4.204-1.669 8.397-1.534 9.317.135.92-.159 1.424-.653 1.118-.494-.305-.739.818-.544 2.495.196 1.678-.035 3.051-.513 3.051s-.869 2.089-.869 4.642c0 2.553-.869 7.616-1.932 11.25-4.232 14.471-3.576 16.092 5.432 13.429 2.2-.65 5.35-1.49 7-1.866 2.655-.605 2.77-.771 1-1.435l-2-.75 2-.604c1.1-.332-.377-.412-3.282-.178-6.788.547-5.882-1.136 1.081-2.006 5.56-.695 6.227-1.51 8.379-10.232.305-1.237 1.1-2.25 1.766-2.25 1.394 0 2.533-5.568 9.509-46.5 6.909-40.54 7.548-46.573 7.527-71-.028-33.366-3.244-46.72-14.921-61.966-17.482-22.824-39.182-32.317-83.525-36.541-6.306-.6-11.636-1.262-11.844-1.47-.209-.208 1.187-1.198 3.101-2.201C335.553 191.854 346 173.413 346 155.706c0-41.545-8.193-66.787-28.862-88.92-6.605-7.074-26.034-17.808-29.691-16.404-.683.262-2.864-.394-4.848-1.457-6.915-3.706-36.816-6.408-37.959-3.43m-73.446 57.324c-2.015 1.55-2.566 3.627-4.364 16.461-2.848 20.314-1.523 26.834 4.229 20.816 2.522-2.64 3.378-3.045 4.137-1.962.786 1.123.886 1.106.559-.099-.219-.805.872-2.533 2.423-3.839 1.552-1.305 2.822-2.983 2.822-3.728 0-.745.844-1.946 1.875-2.668 2.93-2.052 2.288-6.581-1.881-13.272-2.065-3.316-4.294-7.715-4.952-9.778-1.36-4.26-1.664-4.381-4.848-1.931M193 152.465c0 .844-.461 1.535-1.025 1.535-.563 0-1.463 1.152-1.998 2.56-.535 1.408-1.424 2.282-1.975 1.941-.551-.34-1.002.109-1.002.999s-.45 1.34-1 1c-.55-.34-1 .11-1 1s-.403 1.369-.895 1.065c-1.026-.634-2.058 1.594-2.207 4.767-.067 1.402-.408.931-.966-1.332-.475-1.925-.652-4.104-.394-4.843.264-.753-.409-1.572-1.534-1.866-2.261-.591-2.628-1.872-.754-2.629.688-.277.238-.54-1-.583-1.24-.044-2.25.515-2.25 1.245 0 .728-1.687 1.74-3.75 2.25-4.192 1.035-4.959 3.244-1.784 5.141 1.766 1.054 1.803 1.219.284 1.25-2.125.043-2.133.184-.25 4.689.825 1.975 1.5 4.384 1.5 5.354 0 .97.657 3.029 1.459 4.576l1.459 2.812.933-2.448.934-2.448.707 2.717c.39 1.494 1.001 2.642 1.358 2.552 1.298-.33 5.15 1.39 5.15 2.298 0 .513 1.125.933 2.5.933 1.63 0 2.5.56 2.5 1.607 0 1.035.547 1.397 1.538 1.017.851-.327 1.776.032 2.072.803.294.766 1.74 1.679 3.212 2.03 1.473.351 3.442.865 4.376 1.141 1.168.347 2.207-.48 3.329-2.65 2.396-4.634 4.434-11.948 3.329-11.948-.521 0-.84-2.08-.709-4.622.184-3.556-.195-4.94-1.644-6-2.114-1.545-5.593-8.424-4.86-9.609.261-.423-.002-.769-.584-.769S197 156.891 197 155.535c0-1.441-.83-2.909-2-3.535-1.596-.854-2-.76-2 .465m-14.777 17.907c1.017.773 1.552 2.2 1.305 3.484-.297 1.541.754 3.336 3.606 6.159 3.993 3.954 5.866 4.907 5.866 2.985 0-1.221 2.223-.878 3.235.5.404.55.741.014.75-1.191.008-1.205.465-2.469 1.015-2.809 1.773-1.096 1.067-3.149-1.483-4.31-2.237-1.019-2.46-.922-2.25.979.128 1.161-.329 2.31-1.017 2.554-.797.283-1.25-.516-1.25-2.205 0-3.934-1.65-6.422-3.874-5.841-1.045.274-2.203.008-2.572-.59-.37-.598-1.658-1.073-2.863-1.055-2.018.029-2.055.135-.468 1.34m81.169 34.106c-5.485 3.626-8.483 6.328-9.354 8.429-.704 1.701-1.691 3.093-2.192 3.093-2.547 0-2.582 4.559-.054 7.25 3.167 3.373 3.975 3.392 10.614.251 8.064-3.815 10.023-6.665 11.051-16.078.995-9.108-.209-9.46-10.065-2.945M.483 388.5c0 61.6.12 86.653.267 55.673.147-30.98.147-81.38 0-112C.603 301.553.483 326.9.483 388.5" fill="#d3d3d3" fill-rule="evenodd"/></svg>