<svg xmlns="http://www.w3.org/2000/svg" width="500" height="766"><path d="M239.526 52.7c-2.52 16.424-2.943 17.094-9.076 14.381-3.5-1.548-5.001-1.808-5.526-.957-.397.642-1.373.918-2.168.613-1.256-.482-5.816 1.248-10.756 4.08-.825.473-4.2 2.162-7.5 3.753-3.3 1.591-7.463 4.426-9.25 6.301S192 84.057 192 83.784c0-.991-14.347 13.712-17.135 17.56-3.957 5.463-3.602 6.838.535 2.073 4.628-5.331 5.338-3.948 1.097 2.138-1.895 2.72-3.939 6.146-4.541 7.615-1.162 2.832-3.932 4.6-3.991 2.549-.035-1.175-2.857 3.102-2.93 4.437-.019.361.916.408 2.078.104 1.92-.502 2.004-.346.911 1.696-.662 1.237-.98 3.102-.708 4.146.273 1.044.089 1.898-.41 1.898-.498 0-.906.9-.906 2s-.485 2-1.078 2c-.713 0-.895 2.116-.538 6.25.296 3.438.556 6.587.578 7 .021.412.601.637 1.288.5.72-.144 1.279.81 1.319 2.25.068 2.48.577 4.184 2.691 9 .604 1.375 1.186 2.838 1.294 3.25.108.412.309.975.446 1.25s.306.913.375 1.417.421 1.213.784 1.575c.362.362.249 2.084-.25 3.827-.5 1.742-.909 3.244-.909 3.337 0 .092 1.75.464 3.888.825 2.959.5 3.795 1.059 3.496 2.338-.444 1.904 3.599 5.229 6.639 5.458 1.087.082 1.977.569 1.977 1.083 0 .551 3.045.676 7.43.305 6.522-.551 7.486-.416 7.884 1.104.354 1.348.48 1.26.57-.402.071-1.311.984-2.366 2.366-2.737 3.604-.966 5.002-.73 4.435.748-.291.758-.186 1.771.232 2.25 1.136 1.301-.837 9.372-2.291 9.372-.69 0-2.014 1.59-2.941 3.534-1.945 4.079-2.074 4.824-.685 3.966.55-.34 1-.166 1 .386 0 .553-1.238 1.596-2.75 2.319-1.746.834-2.845 2.223-3.011 3.804-.634 6.058-2.695 14.674-3.994 16.697-.78 1.213-1.127 2.676-.772 3.25.355.574.168 1.044-.414 1.044s-1.059.62-1.059 1.378c0 .757-.619 1.891-1.375 2.519-2.168 1.799-4.16 9.968-2.77 11.358 1.693 1.693 1.392 3.447-.684 3.99-1.734.454-4.802 8.832-5.769 15.755-.192 1.375-1.009 7.384-1.815 13.354-1.74 12.89-.924 11.821-17.736 23.229-34.012 23.079-56.439 51.155-65.436 81.917-5.321 18.192-3.956 51.441 1.872 45.613.612-.612 1.458-1.113 1.879-1.113.945 0-3.712 7.058-11.231 17.021-21.079 27.929-29.958 52.658-29.915 83.317.036 26.442 3.154 41.257 14.537 69.076.552 1.349.437 1.701-.387 1.191-1.683-1.04-1.445.922.285 2.358.801.664 4.149 5.591 7.441 10.947 22.4 36.451 59.029 68.053 93.927 81.036 6.206 2.309 6.357 2.317 8.138.453.998-1.044 10.302-11.843 20.677-23.998a92279.14 92279.14 0 0131.812-37.25c7.122-8.333 13.561-15.151 14.309-15.151.773 0 1.051-.498.646-1.155-.393-.634-.307-.912.19-.617 1.944 1.154 5.648-1.191 5.113-3.238-.68-2.599.044-2.517 2.295.26l1.824 2.25 2.087-2.403c1.147-1.322 2.086-2.019 2.086-1.55 0 2.321 2.17-1.766 3.347-6.305 1.236-4.763 1.201-5.167-.468-5.443-1.38-.229.949-3.485 9.958-13.919 6.468-7.49 13.238-15.365 15.044-17.5 1.912-2.258 3.008-3.044 2.622-1.88-.365 1.1-.897 6.95-1.182 13-.938 19.906 4.484 47.203 12.57 63.282 6.721 13.364 5.59 12.718 22.27 12.718 21.689 0 42.226-5.239 62.405-15.919l10.201-5.399 1.866 3.898c1.027 2.143 2.136 3.902 2.465 3.909.329.006.636 1.369.683 3.029.048 1.66-.334 2.758-.847 2.441-.514-.317-.934-.127-.934.423s.457 1.283 1.016 1.628c.559.346.753 1.055.431 1.576-1.122 1.815-1.589 6.562-.484 4.914.864-1.287 1.009-1.252 1.022.25.008.962-.487 1.75-1.102 1.75-.635 0-.884.888-.577 2.061.339 1.296-.019 2.275-.964 2.638-.862.331-1.301 1.351-1.029 2.391.261.998-.04 2.025-.669 2.283s-.132.505 1.106.548c1.597.056 2.25.691 2.25 2.187 0 1.768-.417 2.004-2.584 1.46-1.962-.492-2.39-.338-1.778.642 2.031 3.253 2.635 8.981 1.294 12.29-1.672 4.129-1.865 6.863-.545 7.735.692.456.445.74-.653.75-1.302.011-1.717.737-1.579 2.765.103 1.513-.128 3.709-.514 4.882-.491 1.495-.222 2.315.904 2.747 1.459.56 1.462.757.029 2.19-1.399 1.399-1.407 1.741-.074 3.074.825.825 1.5 1.868 1.5 2.317 0 .45.739.755 1.642.679.904-.077 1.864.492 2.134 1.263.356 1.013-.099 1.247-1.642.843-1.378-.36-2.134-.093-2.134.755 0 .854.757 1.115 2.169.746 1.753-.459 2.04-.234 1.5 1.175-.368.958-.685 2.493-.704 3.411-.026 1.191-.444.954-1.465-.832-1.091-1.908-1.438-2.086-1.465-.75-.019.962-.512 1.75-1.094 1.75-.582 0-.81.403-.506.895.305.493-.119 1.153-.941 1.469-.939.36-1.494 1.898-1.494 4.136 0 2.134-.562 3.779-1.402 4.101-1.584.607-1.106 6.462.614 7.528.622.386.488.839-.349 1.174-1.147.458-1.148.696-.006 1.496 1.063.745 1.087 1.117.115 1.719-.889.549-.564 1.171 1.143 2.187 2.348 1.399 2.35 1.413.135.951-2.367-.493-3.143.815-1 1.685.954.387.91.743-.184 1.506-1.099.765-.632 1.084 2 1.365l3.434.367-3.5 1.12c-2.736.876-2.996 1.14-1.191 1.211 1.474.057 2.052.506 1.597 1.242-.391.633.118 1.758 1.132 2.5 1.389 1.015 1.482 1.348.375 1.348-.808 0-2.239.9-3.181 2-1.618 1.89-1.617 2.001.028 2.015 1.489.013 1.524.155.24.985-1.156.747-.813.983 1.5 1.03l3 .06-3 1.374c-1.65.755-2.607 1.41-2.128 1.455.48.044.313.756-.372 1.581-1.09 1.314-.156 1.5 7.533 1.5h8.777l-1.865-2.061c-1.597-1.764-1.655-2.194-.405-2.985.946-.598 1.031-.929.241-.939-.674-.008-.959-.69-.638-1.528.783-2.04-1.311-4.385-3.43-3.841-.995.256-2.24-.416-2.971-1.603-1.372-2.226-.368-2.769 1.558-.843 1.454 1.454 1.395 1.654 1.613-5.514.097-3.198.638-6.123 1.202-6.5.564-.377 1.072-3.386 1.128-6.686.134-7.801 1.077-23.648 1.786-30 .306-2.75.813-7.925 1.127-11.5.313-3.575.9-7.109 1.304-7.852.404-.744.412-3.116.017-5.272-.419-2.292-.311-4.17.26-4.523.578-.357.423-.954-.38-1.463-1.022-.647-.862-.867.643-.89 1.688-.026 1.766-.196.5-1.091-1.129-.799-1.191-1.187-.25-1.568.687-.279 1.25-.947 1.25-1.483 0-.537-.418-.718-.928-.402-.51.315-1.234-.39-1.607-1.566-.41-1.292-.19-2.442.556-2.903.679-.42.946-1.231.593-1.803-.354-.572.263-1.328 1.371-1.679 2.463-.782 2.584-2.087.311-3.359-1.463-.819-1.529-1.338-.467-3.67 1.048-2.299 1.015-2.63-.213-2.159-1.637.628-3.051-1.93-1.572-2.844.526-.325.956-1.866.956-3.425 0-1.56.655-3.085 1.457-3.393 1.126-.432 1.361-1.958 1.032-6.702-.354-5.102-.177-6.047 1.043-5.579 1.816.697 1.91-1.692.303-7.7-1.152-4.309-1.116-4.422 3.486-10.871 7.135-9.999 10.401-17.904 12.26-29.675 1.613-10.212 1.603-10.504-.615-19-3.659-14.01-12.709-31.981-23.484-46.628-6.575-8.939-8.343-12.107-7.51-13.455.414-.669 1.151-1.065 1.64-.88.488.184 1.452-1.915 2.141-4.665 4.515-18.025 4.591-36.946.223-56-4.006-17.479-3.796-16.72-4.953-17.877-.562-.562-1.023-2.508-1.023-4.323 0-1.815-.468-3.3-1.041-3.3-.586 0-.937-1.744-.804-3.997.242-4.101-3.195-8.89-3.962-5.521-.401 1.761-2.534 2.543-4.173 1.53-.944-.583-.509-1.23 1.591-2.367 3.342-1.81 2.07-2.127-2.353-.585-2.407.839-2.925 1.496-2.491 3.156.406 1.553.208 1.887-.764 1.286-.924-.571-1.073-.424-.503.498.508.822.417 1.066-.245.658-.664-.411-1.189 1.046-1.419 3.932-.2 2.521.028 4.826.507 5.122.479.296.26.925-.486 1.398-1.138.721-1.136.862.015.875 1.107.012 1.132.306.128 1.515-.937 1.129-.95 1.5-.055 1.5 1.228 0 .48 4.016-.932 5-.394.275-.656 1.738-.582 3.25.074 1.513-.117 2.75-.424 2.75-.308 0-.63 1.913-.716 4.25-.086 2.337-.256 5.15-.378 6.25-.122 1.1.135 3.753.571 5.895.618 3.036.513 3.721-.475 3.11-.844-.521-1.1-.318-.764.606.278.764 1.045 1.265 1.704 1.114.66-.151.915.187.566.75-.348.564.095 1.025.985 1.025.893 0 1.322.479.958 1.068-.363.588-1.29.827-2.059.532-.942-.362-1.394.188-1.384 1.681.011 1.597.253 1.845.861.885.687-1.084.954-1.05 1.425.177.631 1.644-1.558 4.067-2.669 2.955-.377-.376-.435 1.394-.13 3.933.328 2.737.129 4.879-.49 5.262-.575.355-.8 1.041-.501 1.525.299.484.032 2.913-.594 5.398-1.359 5.395-8.973 10.559-15.652 10.616-2.071.017-4.651.701-5.734 1.52-1.083.819-3.675 1.948-5.759 2.509-3.221.868-3.708 1.352-3.243 3.23.452 1.83-.236 2.621-4.009 4.608-5.816 3.061-6.088 2.651-2.278-3.422 13.055-20.813 28.597-64.961 31.324-88.977.765-6.74 1.747-8.5 4.742-8.5 1.135 0 8.392-1.518 16.128-3.374 7.735-1.855 16.651-3.952 19.814-4.659 3.45-.772 5.75-1.815 5.75-2.608 0-.727 1.122-9.767 2.494-20.09s3.148-23.719 3.947-29.769c6.845-51.817 5.276-74.949-7.347-108.363-12.76-33.775-26.109-48.894-68.594-77.687-38.075-25.804-63.624-50.307-69.547-66.7-1.618-4.48-1.327-4.453-19.453-1.811-7.15 1.042-13.173 1.721-13.385 1.509-1.266-1.266-.772-8.987 1.018-15.914 4.534-17.538 4.718-19.569 1.711-18.783-1.607.42-1.95.229-1.346-.748.537-.869.421-1.071-.343-.598-.635.392-1.155.272-1.155-.267 0-.538-1.463-1.273-3.25-1.633-1.787-.36-4.013-.868-4.945-1.13-1.318-.369-1.825.371-2.279 3.325m-16.773 29.173c-1.269.377-7.767 3.56-13.253 6.492-7.45 3.982-18.467 14.296-23.568 22.065-11.557 17.6-11.985 21.023-4.576 36.568 1.179 2.475 2.819 5.039 3.644 5.698 4.851 3.879 17 7.797 17 5.483 0-.574.9-1.33 2-1.679s2.007-1.392 2.015-2.317c.013-1.426.158-1.459.946-.212 1.879 2.971 2.528-.402 2.082-10.81-.252-5.864-.477-13.57-.5-17.125l-.043-6.464 5-1.803c14.731-5.315 13.5-4.469 13.5-9.268 0-2.384.514-4.506 1.141-4.715 1.261-.42-1.379-12.663-2.957-13.713-1.582-1.054-2.096-5.073-.649-5.073.741 0 1.625.45 1.965 1 .898 1.452 1.916 1.241 4.397-.91 1.698-1.474 1.905-2.103.903-2.75-1.327-.858-6.787-1.139-9.047-.467m11.708 69.19c-.361.585-.022 1.822.754 2.75.777.928 1.354 2.362 1.284 3.187-.071.825.462 2.712 1.183 4.193.857 1.761.96 2.91.298 3.319-.557.345-.68 1.158-.274 1.807 1.135 1.817 1.222 3.681.17 3.681-.55 0-.493.846.137 2.024.838 1.565.732 2.373-.465 3.571-1.596 1.596-2.168 3.906-.75 3.03.439-.271 1.451-.08 2.25.426.814.515.95.925.309.934-2.537.034-2.163 3.167.78 6.518 1.776 2.023 2.832 4.135 2.5 5-.316.823-.138 1.497.394 1.497.533 0 .976-.562.984-1.25.011-.858.304-.794.934.202.506.799.654 1.881.331 2.405-.345.558-.047.617.72.143.892-.551 1.068-.42.554.412-.462.749-.232 1.15.596 1.036 7.304-1.002 9.918 2.521 10.196 13.744.082 3.285.543 4.328 2.129 4.818 1.284.396 1.567.814.775 1.141-1.661.685-1.594 3.819.112 5.234.749.622 1.238 2.252 1.088 3.623-.151 1.37.163 2.492.697 2.492.534 0 .693.45.353 1-.34.55-.151 1 .419 1 .588 0 .955 1.901.847 4.387-.136 3.114-.565 4.244-1.479 3.893-.72-.277-1.287.213-1.287 1.113a1.62 1.62 0 01-1.622 1.607c-1.208 0-1.35.329-.558 1.284.641.771.717 1.848.191 2.699-.68 1.099-1.281.694-2.693-1.818-1.23-2.188-2.384-3.09-3.568-2.792-1.059.266-1.75-.128-1.75-.998 0-.791-.787-1.718-1.75-2.061-2.133-.76-6.165-5.343-6.214-7.064-.02-.687-.534-1.25-1.143-1.25s-.831-.72-.493-1.6c.391-1.019-.301-2.321-1.902-3.581-1.393-1.095-2.218-2.502-1.847-3.149.368-.644.28-.815-.197-.381-.881.804-1.353.057-7.363-11.649-1.875-3.652-3.769-6.64-4.208-6.64-1.527 0-6.233 9.294-8.04 15.877-1 3.643-2.241 7.523-2.758 8.623-1.872 3.979-5.923 15.09-6.928 19-7.118 27.694-7.651 31.37-4.288 29.57 1.027-.55 2.152-.715 2.5-.368.347.347.631.106.631-.535 0-.642.675-1.167 1.5-1.167s1.5.398 1.5.883c0 1.329 4.333 2.196 5.064 1.013.35-.566 1.266-1.124 2.036-1.241 2.443-.369 3.9-1.715 3.9-3.603 0-1.869 5.972-3.806 7.956-2.579.506.313 1.286-.071 1.733-.853.446-.783 1.936-1.58 3.311-1.772 1.375-.191 2.872-.798 3.326-1.348.533-.645 1.011-.542 1.347.292.401.992.847 1.021 1.924.127 1.129-.936 1.403-.749 1.403.959 0 1.343.643 2.133 1.75 2.152 1.63.029 1.626.103-.061 1.084-.996.579-2.458.805-3.25.501-.815-.313-1.439.034-1.439.8 0 .743-.9 1.587-2 1.875-1.1.287-2 1.266-2 2.175 0 .909-.45 1.375-1 1.035-.55-.34-1 .031-1 .824 0 .794-1.151 1.663-2.558 1.932-1.945.372-2.424.14-1.999-.967.307-.801.221-1.277-.192-1.057-.413.219-2.164.958-3.892 1.643-2.376.942-3.017 1.717-2.633 3.185.407 1.555-.012 1.94-2.109 1.94-1.562 0-2.617-.558-2.617-1.383 0-.761-.871-1.611-1.935-1.89-2.104-.55-3.065.957-3.065 4.803 0 3.357-4.539 8.097-6.33 6.611-1.747-1.45-2.995-.237-1.549 1.505.833 1.003.708 1.483-.508 1.949-.887.341-1.613 1.471-1.613 2.512s-.462 1.893-1.027 1.893c-.621 0-.917 2.463-.75 6.25.152 3.438-.107 11.2-.576 17.25l-.853 11 2.715-2.5c9.263-8.53 31.693-40.59 41.171-58.847.58-1.117 20.384 3.485 20.78 4.83.246.834 1.166 5.567 2.045 10.517.878 4.95 1.76 9.498 1.96 10.106.318.972 11.183-.546 22.213-3.103l2.177-.505-2.498-9.249c-1.374-5.087-7.14-29.049-12.814-53.249-13.794-58.832-11.868-52.725-16.341-51.842-7.569 1.495-8.61 1.18-9.624-2.908-.512-2.062-1.328-3.75-1.813-3.75-.486 0-.602-.454-.259-1.009.94-1.521-.492-5.118-1.733-4.351-.69.427-.789.195-.273-.64.558-.903.42-1.069-.445-.534-.993.614-1.009.316-.074-1.431.65-1.213.902-2.486.56-2.827-.341-.341-.894.428-1.23 1.709l-.609 2.329-1.315-2.373c-.724-1.305-1.332-3.16-1.352-4.123-.019-.963-.471-1.75-1.004-1.75-.532 0-.679-.753-.326-1.674.498-1.298.242-1.519-1.143-.988-1.296.497-1.635.293-1.236-.744.301-.786-.136-1.691-.971-2.011-2.016-.774-2.131-.755-2.894.48m-60.145 171.835c-.302 1.156-.834 2.102-1.183 2.102-.348 0-.722 1.012-.831 2.25-.235 2.677-1.934 14.009-2.735 18.25-.312 1.65-1.038 5.889-1.613 9.421-.576 3.531-1.278 6.794-1.559 7.25-1.613 2.609 1.942.047 6.936-5 6.028-6.092 6.2-6.569 5.288-14.671-.31-2.75-.688-8.204-.841-12.121-.288-7.367-2.335-11.791-3.462-7.481m-6.995 6.59c-.648.701-1.323 2.116-1.5 3.144-.457 2.661-3.161 4.664-3.821 2.83-.366-1.016-.903-1.11-2-.349-1.128.781-1.19 1.165-.25 1.546 1.794.728 1.55 2.393-.25 1.703-.922-.354-1.5.002-1.5.924 0 .825-.704 1.77-1.563 2.1-.86.33-1.329.979-1.043 1.443 1.153 1.865-.838 6.137-2.394 5.136-1.333-.858-1.333-1.074 0-1.95 1.284-.843 1.248-.987-.25-1-.963-.008-1.75.512-1.75 1.156 0 .644-.77 2.022-1.71 3.061-1.469 1.623-1.505 2.017-.259 2.787 1.157.715 1.199 1.151.211 2.139-.906.906-1.242.926-1.242.073 0-.642-.675-.909-1.5-.593-2.053.788-1.892 2.348.25 2.425 1.341.049 1.224.275-.5.968-2.047.823-2.65 2.191-2.519 5.719.056 1.496-1.363 1.655-2.231.25-.718-1.162-2.556-1.355-2.382-.25.467 2.956-.406 4.358-3.044 4.885-2.062.413-2.758 1.026-2.355 2.076.315.82.008 1.84-.682 2.266-.69.427-1.494 2.895-1.786 5.484-.295 2.619-1.131 4.94-1.885 5.229-.745.286-1.106.922-.801 1.415.304.492-.711.947-2.256 1.011-1.553.064-2.058.314-1.128.56 1.538.406 1.514.727-.286 3.777-1.081 1.833-1.897 3.719-1.812 4.19.441 2.454-.25 4.357-1.583 4.357-.844 0-1.5.894-1.5 2.044 0 1.392-.558 1.95-1.75 1.75-1.068-.179-1.634.25-1.452 1.101.164.767-.782 2.567-2.103 4-1.321 1.433-2.69 3.421-3.041 4.418-.352.998-1.093 1.534-1.647 1.191-.554-.342-1.007.272-1.007 1.366 0 1.093-.775 2.762-1.722 3.709-1.654 1.654-4.278 6.065-4.278 7.192 0 .298 7.088-6.655 15.75-15.452 8.662-8.796 22.5-22.301 30.75-30.01l15-14.016 1.193-6.396c3.385-18.143 4.16-32.15 1.628-29.409" fill="#d3d3d3" fill-rule="evenodd"/></svg>