<svg xmlns="http://www.w3.org/2000/svg" width="500" height="786"><path d="M131.098 548.289c-.879 3.003-.985 3.065-1.635.961-.383-1.237-1.082-2.25-1.554-2.25-1.386 0-3.926 5.692-3.657 8.196.199 1.853-.193 2.257-2.002 2.066-1.432-.152-2.25.303-2.25 1.25 0 1.803-2.63 1.99-3.341.238-.392-.968-.7-.979-1.364-.046-.928 1.304-5.295 1.373-5.295.083 0-.433-.868-.787-1.929-.787-1.06 0-2.712-.783-3.669-1.741-1.252-1.252-1.858-1.392-2.155-.5-.581 1.742-2.247 1.55-2.247-.259 0-.825-.477-1.5-1.059-1.5s-.781.45-.441 1-.046 1-.858 1c-.811 0-1.702-.562-1.98-1.25-.306-.759-.535-.575-.583.469-.139 3.024-3.079.804-3.079-2.326 0-2.896-1.302-3.832-2.541-1.827-.362.587-.659 2.613-.659 4.503 0 4.125-1.766 5.76-1.879 1.74-.043-1.545-.305-2.251-.58-1.568-.577 1.427-3.341-.782-3.341-2.67 0-.589-.434-1.071-.965-1.071-1.257 0-3.153 3.549-2.333 4.369.347.347.106.631-.535.631-.642 0-1.167-1.098-1.167-2.441 0-1.343-.526-2.766-1.17-3.164-.762-.471-.968-.198-.591.784.318.829.818 4.166 1.111 7.414l.533 5.907-1.082-5.25c-.595-2.888-1.421-5.25-1.835-5.25-1.291 0-2.09 3.306-.966 4 .587.363.779 1.411.427 2.33-.404 1.052-.139 1.676.716 1.685 1.109.013 1.117.168.042.849-.723.459-2.41.624-3.75.368-2.012-.384-2.447-.055-2.505 1.901-.066 2.215-.126 2.239-.93.367-.8-1.861-.864-1.87-.93-.128-.058 1.55-.329 1.658-1.57.628-1.23-1.021-1.5-.949-1.5.397 0 1.965-4.795 1.238-6.599-1.001-1.463-1.818-2.401-.712-2.401 2.83 0 1.673-.421 2.632-1 2.274-.55-.34-1 .174-1 1.141 0 1.368-.267 1.492-1.2.559-2.261-2.261-3.484-1.3-3.243 2.55.129 2.063.281 4.915.339 6.339.12 2.984 4.844 5.95 6.138 3.855.541-.874.894-.87 1.442.017.444.718-.089 1.387-1.375 1.723-2.127.556-2.994 3.316-1.042 3.316.582 0 .781-.45.441-1s-.15-1 .422-1 1.349 1.233 1.728 2.74c.378 1.507 1.367 3.42 2.197 4.25 1.347 1.347 1.329 1.545-.168 1.833-1.997.385-2.035.651-.497 3.493 1.874 3.463 2.041 7.114.257 5.634-.791-.657-1.441-1.702-1.444-2.322-.002-.621-1.489-2.744-3.303-4.719-1.814-1.975-3.124-4.112-2.912-4.75.213-.637-.101-1.159-.697-1.159S49 593.325 49 592.5c0-2.468-1.913-1.695-2.602 1.051-.457 1.82-.132 2.923 1.134 3.848 1.11.812 1.472 1.786.966 2.604-.533.863-.416 1.064.347.592.635-.392 1.155-.236 1.155.346 0 1.516-1.065 1.31-3.195-.617-2.268-2.053-5.141-.26-3.005 1.876 2.293 2.293 1.408 4.058-1.8 3.587-1.736-.255-3.016.013-3.039.636-.022.592-.652-.331-1.401-2.053-2.776-6.377-4.657-4.682-2.634 2.373.845 2.945-.233 5.837-1.15 3.086-.677-2.032-2.772.155-2.855 2.98l-.079 2.691-1.004-2.75c-1.142-3.126-4.975-3.719-8.209-1.269-1.543 1.168-1.767 2.259-1.279 6.218.326 2.64.342 4.236.036 3.545-.306-.691-.988-.99-1.515-.664-.528.326-2.177-.212-3.665-1.196-3.443-2.274-8.146-2.704-8.873-.811C6.032 619.358 5.207 620 4.5 620c-.707 0-1.583.775-1.947 1.722-.566 1.475-.794 1.511-1.591.25-.579-.915-.937 29.814-.947 81.28L0 786.004l250.25-.252 250.25-.252.085-83c.046-45.65-.179-80.461-.5-77.357-.485 4.676-.806 5.404-1.874 4.25-.71-.766-.935-1.445-.5-1.508.434-.063-1.001-.459-3.189-.88-2.788-.536-4.283-.387-5 .495-.932 1.149-3.964 2.229-8.898 3.168-2.267.432-11.868 5.48-12.762 6.71-.351.483-1.1.593-1.665.244-.564-.349-1.185-.157-1.38.426-.194.584-1.111 1.172-2.037 1.308-.926.136-2.671 1.124-3.877 2.196l-2.194 1.948.507-2.75c.279-1.513.095-2.75-.407-2.75-.503 0-.858-2.587-.79-5.75.276-12.751-1.607-24.996-3.544-23.058-1.306 1.306-2.578 15.541-1.675 18.737 1.478 5.228-.662 18.464-3.05 18.865-.962.161-1.75-.084-1.75-.547 0-.462-1.237-.794-2.75-.737-1.512.056-3.312-.315-4-.826-.843-.626-1.26-.482-1.282.444-.021.918-.517.73-1.5-.569-1.325-1.753-1.468-1.771-1.468-.191 0 .962-.47 1.46-1.044 1.105-.574-.355-1.733-.073-2.576.627-1.25 1.037-1.703 1.007-2.456-.164-.798-1.24-1.057-1.231-1.898.064-.74 1.139-.499 1.577 1 1.82 2.253.364 2.429 1.575.876 6.031-1.003 2.878-2.113 3.549-5.652 3.418-.687-.026-1.25.353-1.25.842s-.644.889-1.43.889c-1.06 0-1.253-.713-.745-2.75.613-2.46.699-6.139.304-13-.093-1.621-.758-2.256-2.379-2.272-4.894-.049-6.625-2.837-7.124-11.478-.254-4.4-.499-8.145-.544-8.321-.376-1.478-2.875 3.161-3.381 6.276-.898 5.535-4.895 9.494-7.229 7.16-.999-.999-3.165-1.655-5.328-1.613-3.105.059-8.099-.455-12.489-1.287-.67-.127-1.062 1.012-.958 2.785.096 1.65-.055 2.212-.335 1.25-.281-.967-1.482-1.757-2.685-1.765-1.377-.01-1.738-.295-.982-.775 1.47-.935.968-4.806-.578-4.46-.614.138-1.117-.584-1.117-1.604s-1.128-3.071-2.507-4.559c-2.19-2.364-2.443-3.355-1.996-7.845.634-6.362-.065-8.742-2.564-8.742-1.285 0-1.933-.691-1.933-2.059 0-1.132-.355-1.84-.788-1.572-.433.268-1.372-.833-2.086-2.447-.714-1.613-1.71-2.679-2.212-2.369-.503.311-.914.088-.914-.494s-.439-1.059-.975-1.059c-.627 0-.636.893-.025 2.5.693 1.823.619 2.501-.275 2.505-1.835.007-7.708 5.846-7.84 7.796-.063.934-.036 2.483.061 3.441.122 1.2-.309 1.556-1.384 1.143-1.267-.486-1.565.223-1.577 3.758-.018 4.997-.55 6.065-3.907 7.835-2.213 1.166-2.644 1.005-5-1.877l-2.578-3.153-2.312 5.053c-1.272 2.779-2.429 6.053-2.573 7.276-.748 6.37-2.125 8.446-5.115 7.715-2.96-.723-5.5-.717-5.5.014 0 .457-.303 1.62-.674 2.586-.503 1.311-.282 1.605.871 1.163 1.227-.471 1.671.467 2.165 4.576 1.191 9.918.224 13.318-1.403 4.93l-.729-3.761-.115 3.774c-.115 3.759-.131 3.773-4.068 3.5-3.695-.256-3.993-.51-4.567-3.899-.501-2.961-1.043-3.625-2.957-3.625-2.158 0-2.901.91-6.185 7.578-.385.784-5.918.866-8.495.127-1.673-.48-3.061-.412-3.419.168-.333.539-1.466-.019-2.529-1.244-1.885-2.174-1.956-2.18-3.378-.299-.903 1.193-1.465 1.424-1.485.611-.018-.72-.482-1.031-1.032-.691-.55.34-1.032.029-1.07-.691-.039-.72-.416-.425-.838.655-.681 1.741-.851 1.631-1.505-.975-.462-1.839-.335-3.073.338-3.297.591-.197 1.082-2.009 1.09-4.025.011-2.463.301-3.217.883-2.297.709 1.119 1.044 1.055 1.828-.345 1.22-2.18.407-7.342-.845-5.367-.682 1.076-.853 1.039-.866-.187-.008-.841-.915-2.178-2.015-2.971-1.1-.793-2-2.031-2-2.752 0-.721-.788-1.604-1.75-1.962-.962-.358-2.9-1.489-4.307-2.514-2.226-1.622-4.166-2.154-9.693-2.658-.687-.063-1.25-.687-1.25-1.387 0-2.84-6.501-5.051-10.658-3.625-2.113.724-5.289 1.394-7.057 1.487-1.769.094-3.963.457-4.877.808-.914.351-2.349.067-3.188-.63-.964-.8-4.606-1.267-9.874-1.267-4.59 0-8.346-.337-8.346-.75s-.45-.75-1-.75-1 .675-1 1.5-.375 1.5-.833 1.5c-.459 0-.834-.675-.834-1.5s.43-1.5.956-1.5.407-.661-.263-1.469c-.983-1.184-.812-1.988.877-4.135 1.153-1.466 2.097-2.397 2.097-2.069 0 .327 1.688-1.134 3.75-3.247 3.648-3.739 10.25-7.864 10.25-6.406 0 .399.54.186 1.2-.474.66-.66 1.962-1.2 2.893-1.2.931 0 1.966-.712 2.3-1.582.925-2.411.731-2.942-.593-1.618-1.735 1.735-3.276 1.478-1.8-.3.928-1.118.944-1.5.063-1.5-.649 0-.903-.45-.563-1 .34-.55.141-1-.441-1s-1.059.675-1.059 1.5-.675 1.5-1.5 1.5c-2.13 0-1.857-1.76.5-3.232 1.1-.687 2-1.761 2-2.387 0-.625 1.002-1.802 2.226-2.615 1.954-1.298 2.083-1.793 1.052-4.056-.906-1.987-.9-2.689.024-3.065.701-.285.523-.52-.431-.566-.906-.044-2.174 1.238-2.857 2.888-1.641 3.96-4.026 6.001-3.982 3.405.017-1.029.692-2.746 1.5-3.813.807-1.068 1.468-2.855 1.468-3.973 0-1.953-.06-1.945-1.568.208-1.841 2.628-3.432 2.054-3.432-1.239 0-1.279-.634-3.549-1.41-5.044l-1.409-2.717-1.255 2.344c-1.253 2.341-1.255 2.34-2.434-1.147-.84-2.487-1.784-3.5-3.282-3.521-1.157-.017-2.412-.338-2.788-.715-.377-.376-1.561-.216-2.632.357-1.07.573-2.699.711-3.618.307-.92-.404-2.183-.655-2.808-.559-.625.096-1.398-.507-1.719-1.342-.428-1.117-1.504-1.371-4.075-.962-1.922.305-4.375.084-5.451-.492-1.439-.77-2.095-.719-2.476.194-.373.895-.92.746-1.957-.531-1.359-1.673-1.476-1.644-2.063.5-.483 1.763-.822 1.964-1.511.895-1.039-1.611-3.112-.654-3.112 1.437 0 1.658-1.582 1.926-2.51.425-.346-.559-1.047-.758-1.559-.441-.512.316-.931-.802-.931-2.484 0-3.094-1.27-3.808-3.857-2.169-.785.498-1.102 1.664-.752 2.767.478 1.505.072 1.951-1.923 2.116-2.208.183-2.398-.035-1.499-1.716 2.112-3.945-.786-6.437-4.051-3.483-.985.892-2.239 1.345-2.786 1.008-.547-.338-1.239-.218-1.538.266-.3.485-1.568.83-2.819.767-2.025-.102-2.275-.627-2.275-4.781 0-5.087-1.075-7.12-2.539-4.805-1.398 2.211-1.256 7.924.149 5.971.897-1.248.979-1.192.484.332-.327 1.007-.594 2.149-.594 2.537 0 .388-.863.77-1.918.85-1.991.15-5.009-4.748-5.158-8.37-.051-1.231-.468-.847-1.25 1.151-1.543 3.944-4.674 4.599-4.674.978 0-4.876-3.395-8.682-4.217-4.728-.201.962-.902-.337-1.56-2.888-1.508-5.852-3.826-7.016-5.125-2.573m82.488 46.615c-.99 1.095-2.757 1.791-4.154 1.638-1.338-.147-2.432.107-2.432.564 0 .457-.693.565-1.541.24-.968-.372-1.433-.095-1.25.744.274 1.258 5.803 3.944 8.541 4.15.688.051 1.25.412 1.25.802 0 .389 1.387.985 3.083 1.325 3.039.607 14.886-3.731 13.626-4.991-.296-.296-1.417-.067-2.492.508-2.539 1.359-3.311.493-2.19-2.454.843-2.219.716-2.329-2.064-1.773-1.839.368-2.963.178-2.963-.501 0-.601-.629-.852-1.399-.556-.769.295-1.696.056-2.059-.532-.954-1.544-2.001-1.323-3.956.836m-4.105 13.758c-1.405 1.405-1.801 1.444-2.556.25-.666-1.051-.902-.773-.925 1.088-.024 1.983-.231 2.19-1 1-.862-1.333-.974-1.333-1.015 0-.036 1.183-.261 1.13-1.065-.25-1.234-2.118-2.92-2.296-2.92-.309 0 .793-.48 1.738-1.067 2.1-.587.363-.983.052-.881-.691.512-3.731-.258-3.994-2.427-.828-2.269 3.311-2.527 6.653-.413 5.347.62-.383.746.188.33 1.499-.738 2.324.978 2.138 4.931-.534 2.333-1.578 3.9-1.747 3.022-.326-.342.554.082 1.712.944 2.574 1.422 1.422 1.622 1.421 2.171-.008.332-.866 1.201-1.574 1.93-1.574 1.406 0 1.903-1.235 2.918-7.25.707-4.192.425-4.49-1.977-2.088M.477 703.5c0 45.65.123 64.471.273 41.825.149-22.647.15-59.997 0-83C.6 639.321.477 657.85.477 703.5" fill="#d3d3d3" fill-rule="evenodd"/></svg>