<svg xmlns="http://www.w3.org/2000/svg" width="500" height="720"><path d="M0 360.002v360.002l250.25-.252 250.25-.252.251-359.75L501.003 0H0v360.002m.495.498c0 198 .114 279.149.255 180.331.14-98.818.14-260.818 0-360C.609 81.649.495 162.5.495 360.5M240.16 86.24c-.664.664-1.16 4.222-1.16 8.324 0 3.939-.477 9.587-1.06 12.55-1.757 8.929-1.248 29.124.772 30.636.919.688 1.225 1.25.68 1.25s-1.564 1.586-2.265 3.525c-.701 1.939-2.431 4.283-3.845 5.21-2.525 1.654-2.62 1.623-5.484-1.776-1.603-1.902-3.183-4.763-3.511-6.358-.557-2.704-.687-2.775-1.942-1.059-1.242 1.699-1.353 1.615-1.447-1.101l-.102-2.941-1.043 3.25c-1.201 3.744-2.738 4.296-2.785 1-.029-2.036-.153-2.09-1.307-.572-.922 1.212-1.677 1.399-2.719.674-1.098-.765-1.144-1.125-.192-1.511 2.079-.844 1.395-2.767-1.457-4.091-3.178-1.476-6.661-1.654-5.822-.297.324.524.76 2.681.971 4.793.6 6.039 4.149 11.254 7.657 11.254 3.773 0 3.715 1.848-.173 5.563-2.889 2.761-3.533 2.929-10.75 2.799-4.222-.076-8.943-.638-10.491-1.25-5.931-2.343-8.255 1.887-5.137 9.349 1.281 3.064 1.799 3.496 3 2.499 1.168-.969 1.452-.887 1.452.418 0 .892-.45 1.622-1 1.622-1.916 0-.978 2.133 2.223 5.056 1.772 1.619 3.46 2.951 3.75 2.959 2.424.071 3.002 1.806 1.684 5.058-1.899 4.687-1.07 10.927 1.452 10.927 2.285 0 2.379-.655.382-2.652-.83-.83-1.299-1.849-1.043-2.265.784-1.268 4.207-.571 6 1.222 2.347 2.347 3.751 2.118 3.4-.555-.162-1.238.143-2.318.679-2.4.535-.083.861.255.723.75-.137.495.2.9.75.9s1 .482 1 1.071c0 1.888 2.764 4.097 3.341 2.67.275-.683.537-.229.58 1.009.043 1.238.417 2.287.829 2.333.412.046 1.83.201 3.149.344 2.532.275 5.402 3.277 4.511 4.718-.616.997 4.622.571 6.385-.518 1.16-.717 1.618-.093 1.283 1.746-.088.48.534.606 1.381.281 1.838-.705 2.069 1.418.341 3.146-.933.933-.792 1.2.635 1.2 1.511 0 1.36.373-.853 2.114-1.478 1.163-2.988 1.813-3.356 1.446-.367-.368-.019-1.07.774-1.56 1.969-1.217.998-1.801-1.807-1.087l-2.308.587 2.136 2.292c1.412 1.516 2.785 2.087 4.051 1.685 1.512-.48 1.776-.244 1.252 1.122-.451 1.176-.289 1.498.506 1.006.644-.398 1.17-.246 1.17.336 0 .582-.675 1.059-1.5 1.059s-1.5.62-1.5 1.378c0 .758-.96 2.016-2.134 2.795-2.023 1.343-2.044 1.506-.403 3.147.98.98 1.462 2.433 1.111 3.349-.342.889-.907 1.332-1.256.983-.348-.349-1.238-.133-1.976.479-1.065.884-1.342.572-1.342-1.509 0-1.442-.372-2.622-.827-2.622-.455 0-.628-1.35-.386-3 .275-1.878.001-3-.733-3-.644 0-.894-.45-.554-1 .34-.55-.335-1-1.5-1s-1.846-.441-1.513-.979c.829-1.341-1.478-5.448-2.459-4.378-.432.471-1.314 2.508-1.958 4.526-1.653 5.178-10.641 12.386-17.945 14.394-11.532 3.168-13.594 4.279-17.532 9.443-2.094 2.747-4.162 4.994-4.594 4.994-2.143 0-2.909 7.074-3.465 32-.595 26.675-.859 29.099-3.823 35.159-1.491 3.047-2.711 5.881-2.711 6.296 0 .416-1.113 2.079-2.474 3.696-2.161 2.569-2.474 3.912-2.48 10.645-.003 4.237-.237 10.147-.519 13.133-.608 6.431.188 7.601 8.407 12.353l5.566 3.218-16.5.711c-9.075.392-17.527 1.176-18.783 1.744-1.55.701-4.182 4.969-8.195 13.289-3.251 6.741-8.97 17.431-12.708 23.756l-6.797 11.5.075 9.5c.105 13.303 3.183 113.269 4.433 144C119.316 621.307 121 670.648 121 681.456c0 6.277.436 12.561.969 13.962l.969 2.549 13.281-.41c7.305-.225 33.756-.715 58.781-1.088 38.418-.573 45.683-.909 46.673-2.159.645-.814 1.485-4.817 1.867-8.895.382-4.078 1.141-7.415 1.686-7.415.555 0 .718 1.089.37 2.475-.342 1.361-.905 5.186-1.251 8.5l-.63 6.025h3.571c3.42 0 3.659-.236 5.671-5.613 1.575-4.21 1.821-5.949.985-6.957-1.916-2.309.203-4.259 2.822-2.597 1.001.636.938 1.456-.303 3.944-2.706 5.425-1.162 9.866 3.654 10.512 8.875 1.19 34.678.824 35.21-.5.397-.989.535-.998.596-.039.043.688.475 1.25.959 1.25s1.198-5.087 1.587-11.305c.664-10.632 2.086-20.021 2.528-16.695.263 1.983-.071 8.8-.555 11.312-.212 1.098-.684 5.302-1.05 9.342l-.666 7.346h2.572c2.037 0 2.658-.571 2.988-2.75l.416-2.75.15 2.75c.135 2.472.529 2.756 3.9 2.814 2.063.035 5.111.2 6.774.366 1.663.166 14.038.596 27.5.955s30.326.887 37.476 1.174c7.15.286 13.564.138 14.252-.33.892-.605 1.543-7.597 2.261-24.289 6.173-143.496 9.811-233.465 10.179-251.721l.226-11.28-9.056-12.22c-4.981-6.72-12.738-17.731-17.237-24.469-7.265-10.877-8.5-12.25-11.025-12.25-2.549 0-2.911-.419-3.489-4.034-.355-2.218-.188-4.889.372-5.934.559-1.045 1.017-3.731 1.017-5.967 0-3.782-.417-4.391-5.935-8.676-3.265-2.535-6.176-5.236-6.47-6.002-.769-2.004-9.6-7.387-12.118-7.387-1.173 0-4.901-1.125-8.285-2.5-3.384-1.375-7.182-2.5-8.44-2.5-1.258 0-3.943-1.125-5.967-2.5-2.023-1.375-4.265-2.514-4.982-2.532-1.818-.044-4.138-1.983-6.243-5.218-.985-1.512-2.381-2.75-3.103-2.75-.866 0-1.505-1.956-1.877-5.75-.31-3.163-1.076-9.125-1.701-13.25s-1.248-9.611-1.385-12.192c-.136-2.581-.6-5.956-1.03-7.5-.43-1.544-.678-3.622-.55-4.618.128-.995-.197-2.345-.722-3-.524-.654-1.261-4.541-1.636-8.637-1.493-16.287-2.887-20.112-9.777-26.816-4.628-4.503-8.818-6.237-15.072-6.237-3.81 0-8.905-2.055-11.48-4.63-.753-.753-1.715-1.37-2.138-1.37-1.392 0-3.351-5.414-3.793-10.484-.239-2.741-.785-5.216-1.214-5.5-.429-.284-.773-2.221-.764-4.305.009-2.353.325-3.301.833-2.5.614.966.822.871.834-.379.008-.918.295-2.399.638-3.291.342-.893.23-1.551-.25-1.463-2.294.418-3.143-.241-2.665-2.068.415-1.588 1.054-1.858 3.156-1.335 2.37.591 2.498.489 1.264-1.009-1.218-1.478-1.084-1.666 1.191-1.666 1.409 0 2.804-.39 3.098-.866.294-.476 1.654-.652 3.021-.391 2.35.45 2.437.308 1.603-2.601-.486-1.692-1.146-3.503-1.468-4.024-.322-.521-.02-1.149.671-1.396.691-.246.921-.808.511-1.247-1.043-1.118-8.827 1.6-8.073 2.819.375.606-.407.801-1.998.496-1.438-.274-2.854-.002-3.148.605-.293.608-.389-.34-.213-2.106.225-2.263-.145-3.336-1.252-3.634-.864-.233-.324-.475 1.2-.539 1.92-.08 3.121-.883 3.908-2.61 1.806-3.964 6.589-6.233 12.154-5.766 2.636.22 5.326-.017 5.979-.529 1.645-1.287 7.815-.624 8.784.944.61.988.951.886 1.457-.433 1.882-4.904-3.269-6.487-15.125-4.649-12.294 1.907-14.905 1.806-14.917-.573-.01-1.733-.612-1.972-4.511-1.794-3.141.144-3.781-.012-2.117-.517 1.956-.594 2.135-.929 1-1.871-.761-.632-1.822-1.152-2.358-1.158-1.655-.017-1.692-1.85-.07-3.472 1.766-1.766 1.974-4.5.511-6.688-.892-1.333-1.141-1.333-2.235 0-1.608 1.959-5.113 2.602-4.462.818.265-.725.987-1.205 1.606-1.068 1.659.369 1.368-4.364-.375-6.107-2.272-2.272-1.951-4.921.503-4.142 1.798.57 1.956.271 1.545-2.933-.251-1.962-.027-3.568.498-3.568s.954-.9.954-2 .45-2 1-2 1 .873 1 1.941.45 2.219 1 2.559c1.641 1.014 1.141 2.23-1.164 2.833-1.774.463-1.945.831-.947 2.033.976 1.176.915 1.533-.31 1.8-1.034.226-1.245.784-.654 1.73 1.465 2.341 4.075.469 4.075-2.924 0-1.711.427-2.826.956-2.499.526.325.703 1.252.393 2.059-.676 1.761 1.547 1.902 6.833.434 2.025-.562 3.922-1.797 4.214-2.744.293-.947.386-.485.207 1.028-.395 3.336-.542 3.327 3.988.253 3.652-2.478 3.692-2.482 5.395-.519 1.695 1.954 1.75 1.942 4.404-1.038 1.478-1.659 3.154-2.728 3.723-2.376.569.352 2.093-.355 3.387-1.57s2.823-1.919 3.398-1.563c.575.355 2.183-.099 3.574-1.01 1.535-1.007 2.528-1.219 2.528-.542 0 .613.9 1.115 2 1.115 2.353 0 2.453-1.112.586-6.477-2.322-6.671-4.257-7.213-12.256-3.434-3.757 1.774-7.955 4.241-9.33 5.48-2.458 2.217-14.121 7.431-16.621 7.431-1.845 0-6.481-4.551-5.613-5.51.404-.446.172-.487-.516-.091-.833.479-1.25.012-1.25-1.399 0-1.165.45-1.84 1-1.5.616.381 1-1.323 1-4.441 0-3.372-.417-5.064-1.25-5.074-.874-.011-.821-.287.176-.918 1.217-.77 1.178-1.246-.26-3.235-.928-1.283-2.789-3.982-4.136-5.998-3.001-4.493-3.882-5.082-5.37-3.594m-16.408 2.476c-2.008.304-2.906 1.138-3.339 3.1-1.09 4.94-2.441 8.817-4.435 12.727-1.088 2.134-1.978 5.839-1.978 8.234 0 6.564-1.281 8.223-6.348 8.223-4.94 0-7.966-2.577-11.65-9.923-3.148-6.275-15.975-17.83-18.239-16.43-1.286.794-.846 7.196.586 8.534.742.693 1.152 2.01.913 2.927-.24.916.129 2.016.821 2.443.897.555 1.065.277.586-.971-.446-1.162-.251-1.608.58-1.33.774.257 1.279 2.401 1.325 5.62.073 5.123 1.992 8.068 10.485 16.101 1.561 1.476 5.664 10.029 4.812 10.029-.544 0-.723.43-.398.956.325.526 1.364.667 2.309.313 1.501-.562 1.545-.431.346 1.044-1.223 1.503-1.086 1.687 1.25 1.687 1.442 0 2.622-.45 2.622-1s-.502-1-1.117-1c-.645 0-.919-1.033-.648-2.45.288-1.506-.058-2.652-.898-2.974-.752-.289-1.799-1.661-2.327-3.05-.528-1.389-1.422-2.526-1.985-2.526-1.33 0-1.334-3.691-.005-4.513.561-.346 2.9.752 5.197 2.441 5.67 4.17 11.783 3.501 11.783-1.288 0-.973.813-1.64 2-1.64 1.1 0 2 .408 2 .906 0 .499.869.68 1.931.402 1.258-.329 1.721-1.05 1.33-2.071-.398-1.037-.204-1.32.577-.837 1.24.766 4.162-1.536 4.162-3.279 0-.562.607-1.381 1.348-1.821 1.732-1.028 2.853-8.056 1.645-10.313-.651-1.216-1.85-1.625-4.024-1.372-2.807.327-3.031.151-2.398-1.877.755-2.42 2.397-3.876 3.559-3.157.399.246 1.014-.458 1.365-1.566C228.15 96.951 230 96.202 230 98c0 .55.45 1 1 1 1.857 0 1.089-6.911-1-9-1.1-1.1-2.338-1.933-2.75-1.85-.412.082-1.986.337-3.498.566M285 267.154c0 .95.45 2.006 1 2.346 1.619 1 1.181 3.507-.5 2.862-2.306-.885-1.778 1.2.75 2.964 1.76 1.227 1.892 1.581.607 1.622-2.153.068-3.205 2.927-1.732 4.703.638.768.881 1.676.541 2.016-.34.341-.914-.149-1.274-1.088-.519-1.352-1.051-.915-2.558 2.107a184.714 184.714 0 01-4.199 7.814c-1.262 2.2-2.086 4.817-1.831 5.816.255.998-.098 2.865-.785 4.148-1.493 2.79-.982 7.385 1.944 17.491 2.824 9.755 5.999 17.045 7.423 17.045.627 0 1.584 1.006 2.127 2.236 1.084 2.456 2.629 3.034 12.959 4.846 3.834.673 9.074 2.28 11.645 3.571 2.57 1.291 5.508 2.35 6.528 2.354 2.48.008 6.687 2.873 10.775 7.336 3.203 3.497 3.637 3.657 9.904 3.657h6.553l.677-4.509c.45-3.003.266-5.003-.551-5.987-.675-.813-.979-2.125-.676-2.915.586-1.526-4.785-4.042-6.442-3.018-.487.301-.885-1.055-.885-3.012 0-2.557-.439-3.559-1.559-3.559-.857 0-1.344-.348-1.081-.773.263-.425-3.536-.646-8.441-.49-8.443.268-8.919.173-8.919-1.786 0-1.138-.419-1.81-.931-1.494-.512.317-1.225.1-1.584-.481-.359-.582-1.539-.776-2.622-.433-2.219.705-9.117-5.72-8.635-8.043.375-1.805-4.067-5.499-5.809-4.831-.863.331-1.419-.085-1.419-1.062 0-.884.52-1.607 1.155-1.607.691 0 .49-.735-.5-1.829-2.436-2.691-2.03-4.146 1.345-4.821 2.956-.591 3.64-1.377 2.335-2.682-.366-.366-.793-1.862-.949-3.326-.156-1.463-.657-2.926-1.112-3.251-2.201-1.569-4.655-9.237-3.237-10.114.882-.545 1.695-.423 2.171.326.457.718.768.11.777-1.518.01-1.748-.736-3.116-2.092-3.842-1.541-.825-1.81-1.426-1-2.236 1.725-1.725 1.326-3.397-1.481-6.204-2.094-2.095-2.357-2.865-1.377-4.045.975-1.175.895-1.458-.413-1.458-.892 0-1.622.54-1.622 1.2 0 .751-.342.845-.914.25-1.224-1.273-1.706-5.659-.784-7.139.489-.784.052-1.138-1.28-1.038-1.191.09-2.022.863-2.022 1.881M200.5 287c.34.55.081 1-.575 1-.859 0-1.053 1.96-.694 6.98.616 8.616.058 12.068-1.834 11.342-.924-.354-1.397.178-1.397 1.571 0 1.159-.436 2.107-.969 2.107-.532 0-.681.749-.33 1.664.401 1.044.242 1.419-.426 1.006-.586-.362-1.321.006-1.632.819-.312.812-1.164 1.248-1.894.968-1.495-.574-2.121-4.457-.718-4.457.498 0 .619-.749.268-1.664-.465-1.21-.277-1.44.689-.844.995.616 1.186.282.763-1.337-.311-1.187-.156-1.906.342-1.597.499.308.907-.592.907-1.999 0-3.25-.781-3.266-2.007-.041-.526 1.385-1.978 2.913-3.225 3.395-2.868 1.11-8.604 6.033-7.268 6.238.55.085 1.45.258 2 .386s1.96.284 3.133.348c3.566.192 3.575 4.457.021 9.823-2.042 3.084-2.671 4.786-1.867 5.054.667.223 1.213 1.039 1.213 1.815 0 .888.814 1.286 2.197 1.075 2.23-.34 3.874-2.652 1.886-2.652-1.938 0-1.141-2.752.957-3.3 1.67-.437 1.919-1.047 1.371-3.367-.563-2.382-.45-2.626.71-1.533.758.715 1.418 1.615 1.465 2 .048.385.436 1.493.862 2.463.471 1.071.246 2.401-.574 3.389-1.081 1.302-4.156 10.764-3.536 10.878.089.016 1.805.775 3.814 1.687 3.41 1.547 3.752 1.546 5.171-.03 1.334-1.481 6.381-11.002 8.05-15.187.329-.825 1.351-2.536 2.27-3.803 1.596-2.199 1.574-2.328-.486-2.866-3.011-.788-3.341-6.252-.697-11.552 1.283-2.572 1.241-2.949-.447-4.003-1.731-1.081-1.745-1.255-.189-2.438.961-.731 1.168-1.288.485-1.306-.655-.018-1.469.418-1.809.968-.985 1.594-2.224 1.164-2.78-.963-.283-1.08.126-2.494.907-3.143.782-.648 1.189-1.411.906-1.694-.284-.284-.014-1.12.598-1.858.819-.987.817-1.342-.009-1.342-.617 0-1.122.454-1.122 1.008 0 .605-.785.519-1.96-.215-1.274-.795-1.573-1.464-.854-1.908 1.313-.811.353-3.885-1.214-3.885-.599 0-.812.45-.472 1m-13.783 74.295c-.333.867-.292 1.756.089 1.976.382.221.081.245-.667.054-.845-.216-1.15.205-.804 1.106.307.8.152 2.87-.344 4.6l-.902 3.145 4.206-.711c5.343-.904 16.361-.838 18.54.112.916.399 2.115.831 2.665.961 12.107 2.853 14.86 4.592 16.632 10.509l1.186 3.957 2.841-3.182c1.563-1.75 2.841-3.551 2.841-4.002 0-.451.675-.82 1.5-.82 1.005 0 1.5 1.005 1.5 3.042 0 1.673.889 3.996 1.975 5.162 1.087 1.166 1.889 3.172 1.782 4.458-.246 2.976-1.485 3.029-2.051.088-.239-1.238-.495-.083-.57 2.566-.075 2.648-.602 5.686-1.171 6.75-1.324 2.473.596 2.642 3.205.281 1.813-1.642 26.83-3.518 26.83-2.012 0 .332-.865 2.145-1.923 4.027-2.283 4.065-3.816 12.638-2.26 12.638.574 0 1.239 1.012 1.477 2.25.256 1.327.489.645.57-1.663.197-5.656 3.324-14.492 5.362-15.15.949-.306 6.364 1.046 12.034 3.003 5.67 1.958 11.211 3.56 12.313 3.56 1.102 0 3.787.91 5.966 2.022 4.517 2.307 10.021 1.881 9.032-.699-.314-.817-.571-1.923-.571-2.457 0-.533-1.359-1.444-3.02-2.023-1.661-.579-2.957-1.568-2.881-2.198.443-3.672-2.503-5.363-3.737-2.145-.699 1.821-4.463 1.971-6.287.25-.94-.887-1.445-.925-1.74-.131-.611 1.651-7.752-1.016-8.163-3.049-.181-.892.044-1.557.5-1.478 2.055.359 4.593-.16 3.947-.807-1.585-1.585-5.473-.951-5.976.974-.713 2.726-2.939 1.071-2.394-1.779.397-2.079-.16-2.429-6.156-3.865-3.626-.868-8.055-1.383-9.843-1.144-2.622.35-3.25.087-3.25-1.364 0-5.278-6.579-6.521-10.003-1.888l-2.38 3.218-1.641-3.719c-.903-2.046-1.997-3.382-2.433-2.969-.435.413-.498-.206-.139-1.375.5-1.629.154-2.256-1.478-2.683-1.806-.472-1.925-.776-.783-1.999.74-.793 1.973-1.201 2.738-.907.887.34 1.213.022.898-.876-.272-.775-1.346-1.267-2.387-1.094-5.248.874-5.893.701-5.813-1.565.086-2.434-1.07-3.022-1.967-1-.304.688-.454.397-.333-.646.122-1.043-.306-2.081-.95-2.307-.721-.253-.984.307-.684 1.455.547 2.088-4.084 4.964-5.168 3.21-1.151-1.862-2.612-.962-1.929 1.189.574 1.81.386 2.033-1.183 1.403-1.026-.412-4.058-1.414-6.738-2.227-3.083-.935-6.666-3.154-9.75-6.039-2.683-2.509-4.877-4.298-4.877-3.976 0 .322-1.575-.072-3.5-.876-2.284-.955-3.5-1.086-3.5-.378 0 1.507-5.259.75-6.589-.948-.919-1.173-1.184-1.144-1.694.185m71.518 56.604c-.679 1.87-1.236 5.245-1.237 7.5-.001 2.256-.685 10.581-1.52 18.5-.835 7.92-1.236 15.289-.891 16.375.345 1.087.177 2.257-.372 2.601-.549.344-1.29 4.675-1.646 9.625-.356 4.95-1.007 12.6-1.446 17-.439 4.4-.501 8.123-.137 8.274.363.151.465 1.609.225 3.24-.239 1.631-.835 2.719-1.323 2.417-.488-.302-.888.404-.888 1.569s-.399 1.871-.887 1.57c-.489-.302-.67-2.867-.404-5.701.47-5.009.418-5.135-1.863-4.524-1.29.345-2.684.634-3.096.641-.412.008-.75.716-.75 1.573s.375 1.327.833 1.044c.459-.283.834.14.834.941 0 .801-.375 1.456-.834 1.456-.458 0-.833.75-.833 1.667 0 .916-.27 1.397-.6 1.067-.909-.91-1.051-7.832-.171-8.375.424-.263.832-3.038.907-6.168.075-3.13.331-4.679.57-3.441.238 1.238.816 2.25 1.283 2.25.467 0 .446-1.464-.049-3.254-.494-1.789-.795-8.061-.669-13.936.189-8.831.018-10.304-.986-8.497-.735 1.324-1.228 1.618-1.25.746-.025-1.055-.457-.92-1.609.5-1.516 1.869-1.549 1.848-.895-.559.374-1.375.669-4.975.657-8-.019-4.557.114-4.986.776-2.5.6 2.251.861 2.501 1.047 1 .918-7.432.038-10.179-3.261-10.171-1.989.005-2.3 1.721-.617 3.404.623.623.824 1.938.446 2.922-.589 1.536-.833 1.58-1.72.317-.777-1.108-.867-.854-.365 1.028 1.9 7.117 1.919 6.998-1.127 7.03-2.439.026-2.605.184-1.109 1.055.967.563 2.204.747 2.75.41.546-.337.992-.163.992.387s-.45 1.278-1 1.618c-.55.34-1 1.491-1 2.559s.45 1.941 1 1.941 1.032.788 1.07 1.75c.062 1.539.161 1.519.821-.165.97-2.474 4.109-2.997 4.109-.685 0 2.99-3.789 6.1-7.432 6.1-2.136 0-3.574.574-3.961 1.582-.848 2.209-.761 2.631.393 1.918.55-.34 1 .084 1 .941s.338 1.506.75 1.441c3.266-.516 4.586 1.622 1.5 2.429-1.483.387-1.501.475-.118.573 1.182.084 1.655 1.15 1.716 3.866.068 3.062.528 8.93 1.233 15.75.057.55.003 3.025-.119 5.5s.316 6.458.974 8.851c.657 2.393.937 4.61.621 4.926-.317.316.387 1.599 1.563 2.851 1.378 1.467 1.942 3.028 1.585 4.392-.304 1.164-.186 3.323.263 4.798s1.387 5.382 2.085 8.682c1.591 7.521 2.334 8.394 3.91 4.589.689-1.662 2.216-3.316 3.395-3.674 1.178-.358 2.817-1.235 3.642-1.948.825-.713 3.075-1.701 5-2.196 3.175-.816 3.51-1.242 3.603-4.585.057-2.027-.28-3.686-.75-3.686-.469 0-.86.563-.868 1.25-.029 2.309-1.949-1.636-2.069-4.25l-.115-2.5-.678 2.426c-.373 1.334-1.161 2.587-1.752 2.784-1.732.577-4.67-8.381-3.942-12.018.901-4.503 1.266-7.857 2.033-18.692.37-5.225 1.072-12.425 1.561-16 .782-5.721 1.431-13.907 3.488-44 .281-4.125.163-11.55-.265-16.5-.749-8.679-.82-8.879-2.011-5.601m64.015 68.472c0 1.305-.946 3.667-2.101 5.25-1.952 2.675-2.409 7.453-.86 9.002.341.34 1.622-1.444 2.846-3.965 2.062-4.243 5.898-7.791 4.508-4.169-.319.831-.144 1.511.388 1.511.533 0 .897 1.688.809 3.75-.159 3.719-.163 3.723-.565.481-.423-3.417-2.275-3.549-2.275-.162 0 1.073-.9 2.721-2 3.663-1.1.942-2.045 2.85-2.1 4.24-.088 2.248-.171 2.301-.75.481-.566-1.783-.951-1.894-2.989-.863-1.287.651-1.894 1.347-1.349 1.547.545.2.292 1.007-.562 1.794-1.378 1.27-1.495 1.13-1.04-1.25.282-1.475.125-2.681-.349-2.681-.473 0-.861.9-.861 2s-.633 2-1.406 2c-.876 0-1.224.698-.923 1.849.353 1.352-.426 2.281-2.897 3.454-4.108 1.949-7.301 5.253-5.908 6.114.548.339 1.282.153 1.632-.413.41-.664 1.232-.695 2.319-.086 1.281.718 1.973.422 2.898-1.237.668-1.2 1.23-1.601 1.25-.892.028 1.053.291 1.053 1.43 0 .767-.709 1.191-1.626.941-2.039-.25-.413.248-.75 1.105-.75s1.559-.723 1.559-1.607c0-1.018-.55-1.396-1.5-1.031-.825.316-1.5.106-1.5-.467 0-.573.788-.876 1.75-.673.962.202 2.538-.509 3.5-1.58.962-1.071 1.75-1.504 1.75-.962 0 .543.675.987 1.5.987 1.006 0 1.505-1.016 1.515-3.084.01-1.976.308-2.622.83-1.799.449.708 1.564.996 2.485.643 1.374-.527 1.686.042 1.76 3.216l.09 3.857.996-3.471c.746-2.6.685-3.575-.241-3.884-.741-.247-.273-.947 1.164-1.743 1.32-.732 1.897-1.347 1.282-1.367-.721-.022-1.011-1.923-.814-5.329.168-2.912-.109-5.949-.615-6.75-.599-.946-.927-1.029-.937-.237-.008.67-.687.96-1.509.645-.822-.316-1.246-.976-.941-1.469.304-.492.024-.895-.623-.895-.683 0-.956-.838-.652-2 .322-1.232.03-2-.759-2-.704 0-1.281 1.067-1.281 2.371m-4.966 27.265c-.769 1.657-.887 3.237-.32 4.296 1.049 1.961.164 3.568-1.964 3.568-.825 0-1.5.638-1.5 1.417s-.625 1.625-1.389 1.879c-.843.281-1.115.019-.691-.666 1.154-1.868-1.203-1.271-2.613.661-.719.985-2.882 2.875-4.807 4.2-1.925 1.325-3.864 3.001-4.308 3.724-1.844 3.001-5.244 5.285-7.867 5.285-1.955 0-3.832 1.129-6.232 3.747-4.217 4.602-3.942 5.12 1.063 2.002 5.403-3.366 7.344-3.971 7.344-2.289 0 1.576-2.658 4.54-4.071 4.54-.511 0-.929.675-.929 1.5s-.682 1.5-1.516 1.5c-1.034 0-1.454.874-1.322 2.75.106 1.513-.369 4.43-1.057 6.484-1.282 3.831-.691 8.246.967 7.222.51-.316.944.69.963 2.235.02 1.545.679 3.934 1.465 5.309s1.475 4.3 1.531 6.5l.103 4 1.52-4.5c.836-2.475 1.484-5.542 1.439-6.816-.066-1.871.301-2.194 1.913-1.682 1.688.536 1.994.175 1.994-2.351 0-1.642.563-3.176 1.25-3.411.978-.335.997-1.114.087-3.584-.983-2.667-.928-3.156.357-3.156.94 0 1.3.572.944 1.5-.316.825-.139 1.5.393 1.5.533 0 .969-.9.969-2s-.45-2-1-2-1-1.114-1-2.475c0-2.209.262-2.376 2.433-1.55 1.704.647 2.595.565 2.973-.275.297-.66.331 1.95.077 5.8-.314 4.753-.149 6.519.512 5.5.536-.825.981-2.737.99-4.25.01-1.771.549-2.75 1.515-2.75 1.091 0 1.463-1.023 1.364-3.75-.084-2.321-.301-2.893-.57-1.5-.238 1.237-.9 2.25-1.471 2.25-.57 0-.764-.712-.43-1.582.334-.87.639-2.782.677-4.25.063-2.389.16-2.459.93-.668.992 2.308 1.137 1.577 1.227-6.164.063-5.512 2.667-6.851 2.875-1.479.115 2.966 1.23-.308 2.845-8.357l.803-4 .3 5 .299 5 .383-4.25c.258-2.859.855-4.25 1.825-4.25.794 0 1.443-.801 1.443-1.779 0-.979.9-2.428 2-3.221 1.186-.855 1.945-2.471 1.864-3.971-.127-2.352-.167-2.371-.57-.279-.274 1.423-1.155 2.25-2.399 2.25-1.676 0-1.803-.304-.861-2.064.76-1.419.784-2.451.077-3.302-.565-.681-.769-2.227-.453-3.436.8-3.056-.898-2.743-2.374.438m-67.834 45.633c-.691 1.801 1.988 6.381 5.295 9.054 1.24 1.002 2.255 2.476 2.255 3.274 0 .799 1.228 1.92 2.73 2.49 4.407 1.676 6.567 7.777 2.27 6.413-1.553-.493-2-.18-2 1.401 0 1.355.478 1.853 1.431 1.487 1.027-.394 1.535.389 1.801 2.782l.371 3.33 1.135-2.5 1.135-2.5.064 2.417c.083 3.171.749 2.392 1.372-1.606.625-4.007 1.423-5.311 3.25-5.311.793 0 1.441-.477 1.441-1.059s-.419-.8-.931-.484c-.512.317-1.213.118-1.559-.441-.345-.559.136-1.016 1.071-1.016.934 0 2.296-.788 3.027-1.75 1.26-1.66 1.33-1.657 1.36.059.044 2.473 2.032 1.077 2.032-1.427 0-1.1-.404-1.751-.897-1.446-1.343.83-13.103-.587-13.103-1.578 0-.808-4.348-5.345-10.306-10.758-2.239-2.033-2.734-2.16-3.244-.831m-9.078 24.502c-1.148 1.148-2.797 1.337-7.168.823-3.821-.449-5.347-.337-4.667.343.555.555 2.574 1.134 4.486 1.286 4.408.351 5.137 2.931 3.821 13.528-.577 4.649-.585 9.345-.02 12.161.523 2.606.571 7.828.11 12.088-.446 4.125-.786 10.2-.757 13.5.05 5.678.095 5.786.83 2 .428-2.2.583-4.323.346-4.719-.238-.395.31-5.172 1.217-10.616 1.281-7.688 1.415-10.989.601-14.782-.652-3.042-.694-5.241-.109-5.833.516-.523.938-2.633.938-4.691s.452-4.02 1.004-4.361c.552-.341.743-1.657.425-2.924-.744-2.964 2.173-4.403 3.087-1.523.34 1.072 1.009 1.949 1.485 1.949.476 0 1.054 1.237 1.283 2.75.277 1.831.472 1.246.581-1.75.163-4.435 2.086-9.651 2.12-5.75.008.962.503 1.75 1.098 1.75.596 0 .877.563.625 1.25-.252.688-.964 1.138-1.583 1-.619-.138-1.125.2-1.125.75s.45 1 1 1 1 .927 1 2.059c0 1.132.45 1.781 1 1.441.55-.34 1-2.13 1-3.977 0-5.821 2.155-8.923 2.968-4.273.216 1.237.425 5.288.463 9.001.038 3.713.406 6.75.819 6.75.413-.001.75 2.924.75 6.499 0 5.329.292 6.5 1.622 6.5 1.107 0 1.34-.397.732-1.25-.491-.687-.883-6.044-.873-11.904.011-5.859-.287-10.465-.66-10.234-.374.23-.431-1.993-.126-4.942l.553-5.36-2.874.41c-1.581.225-5.493-.006-8.693-.514-4.719-.75-6.101-.643-7.309.565m30.512 7.479c-.078 1.517-.258 1.715-.553.607-.468-1.761-4.331-1.435-4.331.367 0 .544.631.748 1.401.452 1.597-.612 2.564 2.067 2.585 7.157.016 3.864-2.038 3.925-3.109.093-.593-2.122-.7-1.987-.856 1.074-.099 1.925-.406 2.938-.683 2.25-1.058-2.622-2.14-1.084-1.942 2.76.21 4.082 2.104 5.276 2.104 1.326 0-1.19.337-2.502.75-2.916.413-.414.75.447.75 1.913 0 1.467.45 2.667 1 2.667s1.053 1.688 1.118 3.75c.112 3.542.154 3.588.75.832.683-3.152 3.132-4.8 3.132-2.106 0 .903-.441 1.369-.981 1.036-.581-.359-.938.941-.876 3.191.152 5.568-1.136 15.662-2.128 16.669-.472.479-.619 1.497-.326 2.261.377.98.029 1.196-1.179.732-1.302-.499-1.625-.202-1.348 1.239.442 2.293 2.882 2.518 4.556.422.858-1.074 1.228-1.15 1.25-.256.02.804.949 1.103 2.532.816 1.375-.25 2.5-.033 2.5.48 0 .514-.99.934-2.2.934-2.641 0-1.143 1.983 1.819 2.409 1.304.187 1.977 1.239 2.194 3.43.399 4.021 2.187 4.152 2.187.161 0-2 .5-3 1.5-3 .825 0 1.5-.498 1.5-1.107s.675-.848 1.5-.531c.894.343 1.5.009 1.5-.826 0-.771 1.012-1.712 2.25-2.091 3.435-1.053 4.593-2.328 4.039-4.446-.277-1.06-.793-1.89-1.146-1.845-3.258.419-3.866-.294-3.538-4.154.186-2.2-.099-4-.633-4-.535 0-1.004-1.462-1.042-3.25-.059-2.724-.21-2.926-.93-1.25-1.298 3.021-1.248 9.406.059 7.5.813-1.186.967-.98.734.99-.161 1.369-1.005 2.625-1.876 2.791-1.236.235-1.485-.365-1.136-2.74.569-3.876-1.164-3.945-2.753-.108-.77 1.859-1.73 2.735-2.621 2.393-.774-.297-1.407-.079-1.407.484s.436 1.173.968 1.357c.624.215.624.866 0 1.833-.86 1.333-1.077 1.333-1.953 0-.541-.825-.998-1.05-1.015-.5-.017.55-.467.325-1-.5-.828-1.282-.972-1.246-.985.25-.008.962-.465 1.75-1.015 1.75-1.389 0-1.258-2.863.656-14.355 1.583-9.502 1.577-10.002-.15-11.264-1.592-1.165-1.737-2.388-1.221-10.351.322-4.966.389-9.03.15-9.03-.239 0-.487 1.013-.551 2.25" fill="#d3d3d3" fill-rule="evenodd"/></svg>