<svg xmlns="http://www.w3.org/2000/svg" width="500" height="1029"><path d="M72.008 1.25c.015 2.378 5.754 24.297 9.451 36.095l3.712 11.846 3.664-.664c2.016-.365 4.645-.898 5.843-1.186 1.836-.44 2.345.081 3.241 3.319C99.561 56.59 119 133.68 119 134.26c0 1.052-6.001 1.367-6.03.317-.017-.592-.489-.29-1.05.673-1.674 2.875-5.773 2.243-6.491-1-.335-1.512-1.05-4.204-1.59-5.98-.54-1.777-.721-3.651-.404-4.165.318-.514.21-1.085-.238-1.27-.672-.276-10.011-36.234-11.644-44.835-.261-1.375-1.384-5.875-2.496-10s-2.516-9.633-3.12-12.241c-.604-2.608-1.512-4.997-2.018-5.309-1.312-.811-1.817-3.049 9.092 40.285 5.505 21.871 10.19 40.558 10.409 41.528.481 2.125-1.742 3.445-7.295 4.333-3.414.546-4.125.379-4.125-.968 0-1.807-2.206-2.123-4.87-.698-2.071 1.109-10.096 2.028-10.21 1.17-.043-.33-.252-2.85-.464-5.6-.903-11.75-2.398-10.921-1.802 1 .356 7.129 1.056 12.298 1.723 12.735.618.404 5.173.743 10.123.753 4.95.011 20.137.314 33.75.675 20.513.543 24.75.422 24.75-.704 0-1.057.267-1.092 1.2-.159 1.4 1.4 13.8 1.655 13.8.283 0-.504-.562-1.143-1.25-1.421-.775-.312-.612-.534.429-.583.923-.043 2.353.596 3.178 1.421.825.825 2.193 1.5 3.04 1.5.958 0 1.323-.567.965-1.5-.487-1.269.902-1.5 9.031-1.5H185l.001-3.75c.001-2.062-.497-20.09-1.106-40.06-.61-19.971-.828-36.59-.486-36.932.341-.342 2.639-.74 5.106-.886 4.271-.251 4.485-.135 4.48 2.432-.029 16.875 2.421 78.935 3.146 79.694.607.634.75-2.826.392-9.5-.874-16.345-2.664-71.207-2.331-71.478.931-.756 8.755-1.399 9.155-.751.263.425.971 15.838 1.573 34.252 1.119 34.208 1.859 46.523 2.746 45.637.275-.275.021-14.373-.565-31.329-.585-16.956-1.169-35.104-1.297-40.329l-.233-9.5h9.919l.612 17.5c.336 9.625.95 28.229 1.364 41.342l.754 23.841 4.385-.349c2.412-.191 4.385-.008 4.385.409 0 .416.886.757 1.969.757 1.339 0 1.784.48 1.393 1.5-.372.968.022 1.5 1.111 1.5 1.461 0 1.612-.836 1.135-6.25-.304-3.437-.806-23.8-1.116-45.25-.501-34.638-1.067-49.646-3.035-80.5-.298-4.675-.798-9.963-1.111-11.75L226.777 0h-77.388C88.14 0 72.002.261 72.008 1.25M235.236.569c.313.313 4.59.55 9.504.527l8.936-.043 1.203 12.724c.662 6.998 1.863 18.798 2.668 26.223 1.951 17.981 8.179 76.259 9.864 92.295 1.183 11.254 2.589 17.785 2.589 12.024 0-1.81 14.43-65.036 17.076-74.819.595-2.2 1.074-4.787 1.065-5.75-.009-.963.453-1.75 1.028-1.75s.782-.685.461-1.522c-.629-1.639 1.334-11.474 2.292-11.484.318-.003.646-1.816.73-4.029.083-2.213.662-4.638 1.285-5.389.623-.751 1.064-1.75.98-2.221-.085-.47-.075-1.08.022-1.355.097-.275.351-2.158.565-4.185.214-2.026 1.313-5.496 2.442-7.71 1.13-2.214 2.068-4.831 2.086-5.815.039-2.194 2.421-5.503 3.317-4.608.358.358.651-.125.651-1.074 0-.949-.45-1.448-1-1.108-.567.351-1-.49-1-1.941 0-3.149 1.955-3.434 2.116-.309.087 1.693.229 1.817.573.5.591-2.26 1.846-2.215 4.212.151 1.869 1.869 1.913 1.825 2.562-2.503.723-4.819 1.994-5.088 8.787-1.859 2.45 1.165 2.75 1.117 2.75-.442 0-1.376.642-1.656 3-1.31 1.65.242 3 .558 3 .703 0 .144-3.122 15.055-6.939 33.136-15.188 71.959-23.129 108.674-23.706 109.608-.363.589.21.722 1.436.332 1.122-.356 2.33-.179 2.684.393.905 1.466 6.272 1.3 6.776-.209.321-.959 6.71-1.25 27.428-1.25 21.422 0 27.352-.284 28.665-1.372.922-.765 1.656-.915 1.656-.339 0 1.486 3.251.799 4.149-.876.417-.777 1.929-13.113 3.36-27.413 1.432-14.3 3.451-34.325 4.486-44.5a5875.68 5875.68 0 003.98-41c2.782-29.844 2.371-28.18 6.867-27.805 3.52.293 3.681.475 4.258 4.805l.6 4.5.15-5.25L395 2h3.833c2.109 0 4.028.194 4.265.432 1.069 1.068-1.416 30.068-9.924 115.842l-2.755 27.774 5.791-.174 5.79-.173.007-11.101c.004-6.105.45-23.025.992-37.6.542-14.575 1.43-40.544 1.975-57.709.544-17.165 1.28-33.028 1.635-35.25L407.256 0h-86.295c-47.462 0-86.038.256-85.725.569M415.627 20.75c-.369 10.863-1.129 31.45-1.688 45.75-1.392 35.562-2.736 78.941-2.456 79.274.127.15.97-.011 1.874-.357 1.453-.558 1.645-3.131 1.661-22.274.009-11.904.226-28.168.482-36.143.695-21.694 1.555-86 1.15-86-.194 0-.655 8.887-1.023 19.75M235.251 17.5c-.047 7.15.665 38.63 1.582 69.956l1.667 56.956 2.5.641 2.5.642-2.5.516c-1.553.321-.795.524 2 .537 2.475.011 3.713-.186 2.75-.437-2.424-.634-2.2-2.311.309-2.311 1.132 0 1.784.445 1.448.989-.35.566.051.734.941.393 2.02-.776 3.209 12.627-8.948-100.882-1.885-17.6-3.593-33.8-3.795-36-.203-2.2-.407 1.85-.454 9m73.434-3.25c-.719 2.734-2.995 3.675-4.195 1.734-1.054-1.705-2.228-.202-2.935 3.755-1.14 6.377-13.09 60.144-20.505 92.261-3.874 16.775-7.051 31.625-7.062 33-.015 1.982-.22 2.189-.988 1-.828-1.282-.972-1.246-.985.25-.016 1.912 6.332 2.615 7.439.824.339-.547 1.796-.576 3.559-.07 1.789.513 2.987.483 2.987-.074 0-.511-.675-.93-1.5-.93-2.227 0-2.527 1.679 12.026-67.343 7.439-35.283 13.381-64.828 13.204-65.655-.18-.838-.641-.286-1.045 1.248M111.75 48.716c-2.027.307-2.754.991-2.765 2.6-.012 1.68-.223 1.857-.914.765-1.218-1.924-7.767-.093-7.162 2.002.382 1.321.821 4.678 1.01 7.726.044.72.549 1.02 1.121.666.675-.417.812.266.392 1.941-.42 1.673-.237 2.584.519 2.584.642 0 .914.41.604.91-.309.501 1.421 7.364 3.845 15.25 2.424 7.887 7.408 24.24 11.076 36.34 5.896 19.452 8.524 26.475 8.524 22.779 0-.616 1.35-1.417 3-1.779 1.65-.362 3-1.094 3-1.625 0-.561 1.456-.692 3.473-.314 3.027.568 3.616.338 4.586-1.791 1.132-2.484 1.077-2.679-22.175-79.02-1.727-5.668-3.475-9.687-4.177-9.6-.664.082-2.444.337-3.957.566m172.536 55.588c.345.898.253 1.863-.205 2.146-.457.282-.831 1.643-.831 3.023 0 1.38-.489 3.751-1.088 5.268-2.696 6.838-7.153 29.647-5.94 30.396.671.415 1.295.666 1.387.559.55-.645 4.49-17.966 4.833-21.246.226-2.172 1.12-6.632 1.985-9.91 1.875-7.103 1.985-10.167.403-11.145-.782-.483-.962-.182-.544.909M224 152.207c-2.55.97-8.778 2.057-19.5 3.405-10.805 1.359-70.222.647-71.148-.852-.291-.47-2.177-.58-4.19-.243-2.014.337-10.75.67-19.412.739-8.662.07-15.75.493-15.75.94 0 .448-3.263.81-7.25.805-12.262-.017-12.029-.098-11.357 3.963.322 1.945.59 17.542.596 34.661L76 226.75l3.108.622c2.298.459 2.951 1.032 2.504 2.197-.333.867-.168 2.392.365 3.389 1.091 2.037 2.334 9.14 2.321 13.261-.004 1.583.416 2.458 1.005 2.094.62-.383.794.21.448 1.531-.31 1.186-.156 2.156.343 2.156 1.26 0 1.181-.877-1.183-13.235-1.149-6.006-1.937-11.047-1.75-11.202.186-.155 1.555-.573 3.042-.93 2.505-.6 2.75-.372 3.339 3.11.349 2.066 4.42 23.266 9.046 47.111 8.712 44.9 9.066 47.146 7.431 47.146-.539 0-1.256 1.095-1.592 2.433-.582 2.319-3.427 2.652-3.427.401 0-.524.45-.674 1-.334s1-.057 1-.882-.45-1.778-1-2.118c-.55-.34-1.032-1.604-1.07-2.809-.068-2.112-.101-2.119-.93-.191-.473 1.1-.891 1.438-.93.75-.038-.687-.547-1.25-1.129-1.25s-.812.399-.511.887c.681 1.101-1.868 3.342-2.772 2.438-.362-.362-.658-.171-.658.425s.563 1.31 1.25 1.588c.77.31.6.534-.441.583-.93.043-1.986-.399-2.347-.983s-1.625-1.432-2.809-1.885c-1.933-.74-2.707-3.669-7.575-28.673-2.982-15.317-5.592-27.338-5.801-26.712-.208.625.318 5.118 1.169 9.984 1.85 10.575 1.878 13.298.082 7.848-1.312-3.981-1.319-3.96-1.423 4.417-.098 7.821.607 10.836 1.11 4.752.122-1.468.6-2.669 1.062-2.669.463 0 .563-.45.223-1-.34-.55-.214-1 .28-1 .493 0 2.122 7.087 3.619 15.75 1.497 8.663 3.112 16.96 3.588 18.439.628 1.949.474 3.013-.56 3.872-1.149.953-1.43.819-1.442-.689-.013-1.574-.17-1.634-.985-.372-.646 1-.974 1.083-.985.25-.008-.687-.451-1.25-.984-1.25-.532 0-.709.675-.393 1.5.317.825.13 1.5-.414 1.5-.545 0-1.226-.9-1.514-2-.791-3.025-2.71-2.395-2.71.889 0 1.669.528 2.869 1.25 2.842 4.364-.162 6.204.33 4.75 1.269-1.222.79-1.099.972.667.985 1.191.008 2.393-.547 2.671-1.235.403-1 .52-1 .583 0 .043.688.717 1.25 1.496 1.25s1.643-.562 1.921-1.25c.403-1 .52-1 .583 0 .043.688.763 1.25 1.598 1.25 1.121 0 1.378-.72.979-2.75-.517-2.634-.49-2.655.634-.5 1.302 2.496 4.154 3.158 3.23.75-.317-.825-.078-1.5.531-1.5s1.107.586 1.107 1.302c0 .802 1.343 1.34 3.5 1.401 2.022.057 3.506-.387 3.515-1.052.009-.64.453-.484 1 .349.822 1.251 1.087 1.127 1.602-.75.339-1.238 1.329-2.25 2.2-2.25 1.231 0 1.316.267.383 1.2-.66.66-1.193 1.897-1.185 2.75.012 1.231.19 1.275.862.215.649-1.025.965-.878 1.36.632.658 2.517-2.673 2.938-21.447 2.712l-13.709-.164-.291 7.077c-.816 19.907 1.475 49.626 9.257 120.078 3.341 30.244 3.666 32.311 3.852 24.5.072-3.025.791-21.7 1.598-41.5.806-19.8 1.475-38.419 1.485-41.375L92 398.75l3.177.635c1.747.35 3.259.744 3.359.875.225.297-3.111 77.083-4.018 92.49-.568 9.643-.448 11.25.842 11.25 2.21 0 2.236.139 4.11 22.253.391 4.611.33 4.735-2.033 4.142-1.942-.488-2.421-.234-2.358 1.247.043 1.022.289 1.347.545.723.342-.832 1.083-.843 2.782-.041 1.992.94 2.33 1.869 2.41 6.634.051 3.048.554 8.692 1.118 12.542.565 3.85 1.035 7.563 1.046 8.25.011.688.947 1.25 2.079 1.25 1.302 0 1.797-.425 1.346-1.155-.393-.634-.293-.894.221-.576 2.087 1.29 14.753 1.093 15.196-.236.322-.966-.26-1.14-2.192-.655-2.906.729-3.312.161-1.311-1.84 1.569-1.569 4.681-.232 4.681 2.012 0 1.901 1.626 1.867 2.362-.05.316-.825.139-1.5-.393-1.5-.533 0-.969-.375-.969-.833 0-1.374 3.368-.942 4.943.634.996.995 1.589 1.102 1.846.333.6-1.801 3.079-1.318 4.443.866.687 1.1 2.292 2 3.568 2 1.291 0 2.044-.443 1.7-1-.34-.55.11-1 1-1s1.34.45 1 1c-.34.55.069 1 .91 1 .947 0 1.308-.57.952-1.5-.317-.825-.078-1.5.531-1.5s1.107.45 1.107 1 .675 1 1.5 1 1.5-.4 1.5-.889.563-.868 1.25-.842c4.365.162 7.75-.418 7.75-1.328 0-.582-.419-.8-.931-.484-.512.317-1.213.118-1.559-.441-.39-.63 1.066-1.016 3.832-1.016h4.461l.607-11.25c.939-17.39 2.436-75.291 3.627-140.25.595-32.45 1.295-60.04 1.556-61.311.763-3.706 6.785-2.757 7.231 1.14.223 1.95.762 2.66 1.735 2.287.776-.298 1.806.229 2.289 1.171.916 1.785 2.639 30.008 2.364 38.713-.362 11.47-.206 40.409.325 60.342.316 11.88.186 21.105-.295 20.808-.474-.294-.724 2.253-.555 5.658.485 9.75-.85 75.338-1.557 76.481-.349.565-2.339 1.347-4.423 1.738l-3.788.711.146-12.18c.08-6.699-.102-12.428-.405-12.732-.304-.303-.689 5.8-.856 13.563-.241 11.186-.03 14.114 1.017 14.113 2.28-.003 4.215 2.562 2.915 3.862-.848.848-.62 1.136.897 1.136 1.141 0 2.034-.658 2.034-1.5 0-.825-.375-1.5-.834-1.5-.458 0-.833-.45-.833-1s.675-1 1.5-1 1.556.45 1.625 1c.069.55.181 1.563.25 2.25.074.736 1.925 1.379 4.507 1.564 3.725.267 4.286.067 3.75-1.332-.348-.905-.632-1.834-.632-2.064 0-.23-.45-.418-1-.418s-.887.405-.75.9c.138.495-.088.945-.5 1-.412.055-.717-.22-.676-.611.041-.391-.747-1.034-1.75-1.43-1.2-.473-.36-.742 2.457-.789 2.932-.048 4.463.403 4.857 1.43.746 1.944 3.09 1.915 5.067-.062 2.129-2.129-.233-114.61-4.299-204.746l-.668-14.807-8.119.158c-25.727.501-40.164-.088-37.619-1.535 1.375-.781 3.344-1.167 4.375-.857 1.178.354 1.631.168 1.218-.5-.43-.697.466-.922 2.594-.653 1.831.232 3.566-.098 3.973-.757.532-.861 1.655-.723 4.281.529 3.617 1.725 4.572 1.222 2.309-1.217-1.023-1.102-.917-1.23.582-.7 1.007.356 2.046.647 2.309.647.262 0 .199.45-.141 1-.34.55-.141 1 .441 1s1.059-.498 1.059-1.107.646-.859 1.435-.556c.79.303 1.624.013 1.854-.643.286-.816 1.099-.591 2.565.711 1.414 1.255 2.146 1.469 2.146.628 0-1.023.3-1.029 1.5-.033 1.37 1.137 1.927.706 1.618-1.25-.065-.413.332-.75.882-.75s1.007.563 1.015 1.25c.012.959.208.946.842-.053.454-.716 1.235-1.226 1.735-1.131 2.576.485 3.607-.197 3.118-2.066-.34-1.3-.03-2 .884-2 .773 0 1.413.563 1.421 1.25.011.833.339.75.985-.25.533-.825.884-5.55.779-10.5l-.19-9-.332 8.641c-.318 8.273-.436 8.66-2.794 9.111-1.355.259-2.463.083-2.463-.391 0-.473-.47-.861-1.044-.861-.574 0-.911.784-.75 1.742.24 1.422-.349 1.69-3.206 1.457-2.648-.216-3.135-.035-2 .742 1.29.885 1.255 1.031-.25 1.044-.963.008-1.75-.339-1.75-.772 0-1.29-4.372-1.221-5.245.083-1.204 1.799-.005-38.489 3.27-109.796.53-11.55.966-22.682.969-24.737l.006-3.737 7.75.534c4.262.293 9.656.764 11.985 1.046l4.234.512-.507 9.691c-.915 17.45-2.369 58.231-2.915 81.691-.294 12.65-.917 26.825-1.385 31.5-.66 6.595-.555 8.823.47 9.94.726.793 1.515 1.243 1.752 1 .238-.242 1.148-18.44 2.024-40.44 3.048-76.605 3.815-94.002 4.159-94.374.191-.205 1.095-.086 2.01.265 1.52.584 1.601 3.024.936 28.374-.401 15.254-.86 27.96-1.021 28.235-.161.275-.636 13.775-1.056 30-.419 16.225-.854 30.85-.966 32.5-.112 1.65-.263 6.514-.337 10.809-.084 4.92-.503 7.58-1.133 7.191-.55-.34-1 .153-1 1.096 0 1.597-.125 1.601-1.829.059-1.006-.91-2.543-1.655-3.416-1.655-.874 0-1.815-.563-2.093-1.25-.313-.775-.534-.613-.583.427-.043.922-.866 1.918-1.829 2.214-.963.295-.512.391 1 .212 1.813-.215 2.75.138 2.75 1.036 0 .748.45 1.361 1 1.361s1-.528 1-1.174c0-.646 1.161-.084 2.581 1.25 1.419 1.333 2.831 2.35 3.138 2.259 1.194-.352 2.127-2.812 1.268-3.343-.499-.308-.025-1.112 1.053-1.785 1.291-.806 1.96-.86 1.96-.156 0 .587.45.789 1 .449s1 .084 1 .941c0 1.656 5.429 2.292 6.383.748.571-.924 5.923-.736 7.543.265.591.365 1.081.075 1.089-.645.013-1.069.166-1.071.839-.012.66 1.042 1.066 1.005 2.057-.19.68-.819 1.99-1.247 2.912-.953 1.456.464 1.48.378.177-.654-1.31-1.038-1.294-1.123.128-.672.896.283 2.152-.008 2.792-.648.884-.884 1.408-.806 2.184.328 1.026 1.499.644-69.234-.731-135.538l-.623-30.029-2.625.029c-2.432.028-2.662-.347-3.125-5.092-.487-4.985-.567-5.096-3-4.171m26.711.865c-6.816.791-6.846.813-7.63 5.667-.478 2.955-1.107 3.832-2.936 4.093l-2.329.331.585 23.669c.521 21.089 2.046 134.332 1.883 139.852-.062 2.1.304 2.182 9.526 2.149 5.275-.019 10.626-.428 11.89-.909 1.426-.542 2.3-.504 2.3.101 0 .536 2.277.975 5.059.975 3.118 0 4.822-.384 4.441-1-.34-.55.271-1 1.358-1 1.086 0 2.204.563 2.483 1.25.372.917.727.948 1.333.113.7-.963 6.445-1.177 9.826-.366.55.132 1.225.158 1.5.058 1.948-.711 10.072-.361 10.364.445.199.55.68.706 1.068.347.389-.359.236-1.484-.339-2.5C300.336 325.009 267 159.839 267 157.424c0-.191 1.8-.832 4-1.424 5.416-1.458 5.046-2.981-.75-3.086a388.746 388.746 0 01-9.25-.3c-2.475-.117-7.105.089-10.289.458m92.289 1.9c-3.025 1.014-7.975 2.933-11 4.265-3.025 1.331-8.2 3.203-11.5 4.159-3.3.957-7.125 2.228-8.5 2.825-2.531 1.099-3.426 1.327-8.096 2.062-1.427.224-3.109.726-3.738 1.114-1.365.844-9.372 2.014-13.893 2.03-3.917.014-4.106-2.072 2.899 32.073C298.704 249.963 314 325.111 314 325.48c0 .205-.788.595-1.75.867-.962.271.581.295 3.429.053 2.848-.241 5.424-.042 5.724.444.301.485 11.944.919 25.875.963l25.328.081 5.209-38.694c2.865-21.282 6.323-47.244 7.685-57.694l4.037-31c2.124-16.312 2.175-16.5 4.482-16.5 2.69 0 2.631.855-2.623 38.25-.613 4.362-.497 4.75 1.418 4.75 1.831 0 2.13.703 2.447 5.75.227 3.622.431 1.956.55-4.5.18-9.777.289-10.25 2.348-10.25h2.159l-.657 23.25c-1.761 62.299-2.826 82.203-4.464 83.5-3.004 2.377-3.483 1.371-2.86-6 .337-3.988.825-17.825 1.084-30.75l.471-23.5-1.469 29c-1.634 32.261-1.525 31.5-4.502 31.5-2.344 0-2.323 1.786-.388-33 1.29-23.181 2.587-54.214 2.279-54.521-.191-.191-2.993 19.086-6.229 42.837-4.947 36.321-6.18 43.452-7.762 44.868-2.242 2.008-1.855 2.065 12.679 1.841 12.015-.184 12.5-.252 12.5-1.739 0-.707.113-1.309.25-1.337 5.272-1.071 8.668-.888 10.102.546 1.531 1.53 1.648-.128 1.648-23.262 0-13.7.297-35.782.66-49.071.581-21.269.477-24.162-.864-24.162-3.173 0-5.054-8.249-4.519-19.817.767-16.585 2.785-34.339 4.325-38.055 1.881-4.538 1.778-4.829-.852-2.391-1.238 1.147-3.6 2.238-5.25 2.424l-3 .339.243-7.831c.184-5.921-.06-7.706-1-7.319-8.354 3.441-11.747 3.969-17.167 2.668-3.029-.726-5.285-1.68-5.013-2.119 2.002-3.24-28.421-3.991-37.563-.927M124.901 189.25c-.055 3.988-.26 9.05-.455 11.25-.314 3.546-2.506 60.88-4.013 105-.572 16.745.096 20.54 3.708 21.056 1.362.195 1.554-.469 1.133-3.911-.466-3.808-.387-3.989.968-2.229 1.343 1.745 1.534 1.122 2.146-7 .848-11.264 2.581-50.833 2.599-59.333.007-3.529.285-6.144.618-5.811.333.333.049 17.538-.632 38.235-.713 21.708-.864 37.977-.355 38.451 1.274 1.188 11.26 2.048 11.893 1.025.293-.475 1.922-.38 3.618.212 2.426.845 3.293.779 4.055-.31.747-1.069 1.084-1.1 1.475-.135.76 1.872 4.134 1.506 4.608-.5.308-1.308.607-1.055 1.181 1 .443 1.583 1.466 2.744 2.41 2.735 1.426-.014 1.444-.143.142-.985-.825-.533-1.275-1.014-1-1.068.275-.054 1.58-.216 2.899-.359 3.066-.333 5.097-3.118 5.115-7.014.007-1.683.431-11.834.942-22.559.51-10.725 1.198-26.7 1.529-35.5.331-8.8.791-17.575 1.023-19.5.231-1.925.712-13.85 1.067-26.5.356-12.65.848-23.338 1.095-23.75.42-.704-1.026-.896-9.67-1.281-1.925-.086-8.985-.494-15.688-.907l-12.188-.75-.433 3.844c-.238 2.114-.317 1.02-.175-2.431.287-6.988-.683-8.225-6.45-8.225H125l-.099 7.25M.667 183.667c-1.321 1.32-.722 20.315.712 22.618.759 1.218 2.172 6.49 3.14 11.715s2.186 10.043 2.706 10.706c.521.664.657 1.676.302 2.25-.355.574-.242 1.044.25 1.044 1.136 0 4.664 15.239 3.961 17.107-.288.766-.856-.529-1.262-2.879-.743-4.299-2.476-6.833-2.476-3.62 0 .949-.277 1.448-.616 1.11-.338-.339-.137-1.989.448-3.667.642-1.841.688-3.051.116-3.051-.521 0-.955.787-.963 1.75-.013 1.496-.157 1.532-.985.25-.533-.825-.969-2.175-.969-3 0-1.333.107-1.333.969 0 1.552 2.401 1.24-.44-.933-8.5-1.421-5.271-1.933-6.259-2.075-4-.171 2.729-.303 2.594-1.458-1.5C.42 218.048.263 220.485.247 242c-.01 14.571.332 23.689.844 22.5.534-1.238.585-.477.135 2-.935 5.151-.899 17.593.071 24 1.699 11.23 1.858 11.867 2.651 10.584 1.223-1.978 3.063 4.389 2.982 10.315-.054 3.89-.286 4.626-.977 3.101-.646-1.426-.737-.923-.318 1.75.664 4.239.344 4.437-3.302 2.049l-2.596-1.701.516 15.951c.515 15.912.525 15.97 4.247 23.709 2.508 5.218 3.565 8.622 3.226 10.394-.277 1.45.121 4.132.885 5.96 1.787 4.277 1.903 8.302.189 6.588-3.226-3.226-3.839 1.752-1.05 8.536 1.568 3.813 4.291 6.42 2.888 2.764-.316-.825-.201-1.5.257-1.5.907 0 2.105 7.232 2.105 12.705 0 1.885.441 4.25.979 5.256.701 1.31.587 2.154-.403 2.976-1.14.946-1.593-.129-2.593-6.145-1.346-8.098-2.532-10.411-4.501-8.777-1.7 1.411-2.3-1.198-4.488-19.515l-1.792-15-.101 36.857c-.088 32.021.092 36.783 1.367 36.294 2.168-.832 2.791.947.97 2.768-.998.998-1.143 1.581-.394 1.581.799 0 .659.804-.429 2.465-1.81 2.762-2.078 8.278-.659 13.535.52 1.925 1.191 6.2 1.491 9.5.3 3.3.978 8.921 1.507 12.492.553 3.731.589 6.865.084 7.37-.929.929-1.686-2.981-2.99-15.438-.488-4.672-.827 8.207-.912 34.743-.106 32.863.14 42.295 1.114 42.75 1 .466 1 .7 0 1.166C.03 547.152-.562 551 .57 551c.313 0 2.519-1.341 4.901-2.98 3.63-2.498 4.427-2.727 4.93-1.418 1.091 2.845.643 3.247-4.901 4.398-4.492.933-5.5 1.515-5.5 3.178 0 1.358.478 1.853 1.435 1.485.79-.303 1.596-.069 1.792.519.411 1.233 9.636-3.919 26.273-14.67 4.4-2.844 9.69-6.186 11.756-7.427 2.066-1.24 3.472-2.715 3.125-3.277-.398-.645-.948-.521-1.491.335-.701 1.108-.868 1.081-.906-.143-.037-1.147-.393-1.043-1.516.441-1.331 1.76-1.457 1.245-1.35-5.5.093-5.857.297-6.802.956-4.441.784 2.809.805 2.777.319-.5-.976-6.585-1.32-27.67-.399-24.5l.871 3-.159-3.125c-.193-3.807 1.754-6.375 4.833-6.375 1.262 0 2.481-.561 2.71-1.247.263-.79.827-.479 1.537.847C51.061 491.983 58 518.789 58 521.332c0 1.748 1.147 2.188 2.409.925.409-.408 2.617-1.196 4.908-1.75 2.921-.706 4.276-1.604 4.536-3.007.203-1.1.926-2.321 1.605-2.714.891-.515 1.016-2.05.449-5.5-.433-2.632-.892-5.461-1.02-6.286-.128-.825-.527 1.425-.887 5-.59 5.861-.679 5.369-.898-5-.168-7.99-.525-10.889-1.169-9.5-.617 1.332-.678.498-.182-2.5.409-2.475.676-7.425.593-11-.083-3.575-.195-9.612-.248-13.417-.053-3.804-.355-6.658-.671-6.341-.316.316-.585 5.018-.598 10.448-.016 6.845-.473 10.631-1.488 12.342l-1.464 2.468.586-2.5c1.586-6.756 1.729-8.528.564-7-.887 1.164-1.005.492-.525-3 .48-3.492.362-4.164-.525-3-.894 1.173-.993.737-.453-2 1.701-8.63 1.702-8.774.013-5.5-1.642 3.186-1.64 2.776.02-4.5l.57-2.5-1.537 2.5c-1.145 1.86-1.431 4.419-1.119 10 .396 7.085.212 6.947-1.039-.778-.292-1.803-.958-3.014-1.481-2.691-.522.323-.949-.115-.949-.972S57.605 462 57.122 462s-1.211 8.869-1.617 19.709l-.739 19.71-2.223-8.856c-1.241-4.945-2.956-9.392-3.883-10.07-1.42-1.038-1.65-3.297-1.59-15.603.048-9.861.369-13.761 1.019-12.39.959 2.02.902 1.428-.784-8.25-.339-1.942-.149-3.25.471-3.25.57 0 .801-.9.514-2-.402-1.535-.031-2 1.593-2 1.165 0 2.117-.45 2.117-1s-.843-1-1.873-1c-1.529 0-1.889-.795-1.96-4.325-.076-3.783.178-4.316 2.022-4.25 1.16.041 2.323-.6 2.585-1.425.375-1.183.206-1.245-.802-.297-2.493 2.347-4.972-.294-4.972-5.297 0-2.515.411-4.27.924-3.953.509.314 1.118.003 1.355-.691.236-.694.24-.137.009 1.238-.412 2.45-.388 2.46 1.198.5 1.581-1.955 1.604-1.943 1 .5-.419 1.697-.318 2.069.314 1.158.646-.931 1.275.753 2.054 5.5 2.164 13.182 4.846 23.92 5.455 21.842.322-1.1.331-.001.018 2.442-.487 3.812-.37 4.237.825 3 1.747-1.808 1.345-27.367-.413-26.281-.713.441-.869-.938-.481-4.254.737-6.3-.154-11.823-1.432-8.879-.641 1.476-.716 1.257-.298-.874.307-1.565.168-3.365-.308-4-.476-.635-.922-2.221-.99-3.526-.068-1.304-1.033-4.304-2.143-6.667-1.111-2.362-1.97-5.57-1.909-7.128.061-1.558-.435-5.983-1.101-9.833-2.571-14.847-5.404-75.015-3.155-67 .463 1.65.894 5.25.958 8 .184 7.863 2.391 22.079 3.109 20.031.351-.999.292-4.34-.131-7.424-.422-3.084-1.073-10.557-1.445-16.607-.372-6.05-1.16-11.9-1.749-13-.59-1.1-1.37-4.025-1.735-6.5l-.662-4.5-.217 4.5-.218 4.5-1.269-5.922c-.882-4.113-.972-6.893-.296-9.097.736-2.398.333-6.942-1.649-18.578-1.442-8.472-2.621-19.099-2.62-23.617C40 236.389 38.02 218 36.952 218c-.421 0-1.541-2.465-2.489-5.479-.948-3.013-2.094-5.249-2.547-4.969-.452.28-3.382-2.892-6.51-7.048-8.576-11.394-8.556-8.842.028 3.449 1.739 2.49 2.53 4.476 1.943 4.874-.545.37-1.599 2.177-2.343 4.014-1.638 4.047-2.51 2.894-3.525-4.655-.393-2.923-.999-5.03-1.347-4.682-.347.348-1.186-1.536-1.863-4.186l-1.232-4.818.451 4.5c.248 2.475.678 6.3.956 8.5.286 2.259-.572.3-1.972-4.5-1.451-4.976-2.278-6.842-1.993-4.5.267 2.2.716 5.8.997 8 .793 6.197-.29 2.98-2.869-8.518-2.293-10.226-2.419-10.483-5.142-10.517-1.95-.024-3.039-.702-3.611-2.25-.824-2.228-1.981-2.784-3.217-1.548m207.266 5.583c-.038.688-.22 2.6-.406 4.25-.187 1.65-.623 13.8-.97 27s-1.042 35.025-1.545 48.5c-.808 21.681-1.428 53.065-1.122 56.872.087 1.09.411 1.123 1.572.159 1.395-1.158 7.73-.429 12.635 1.453 1.435.55 1.668-3.639 2.351-42.187.416-23.538.896-46.847 1.065-51.797.169-4.95.46-15.972.647-24.494l.34-15.493-4.166-.881c-2.765-.585-4.331-1.511-4.656-2.756-.559-2.135-5.634-2.688-5.745-.626m73.091 1.333c.014 1.054.499 3.942 1.077 6.417 3.892 16.638 25.798 127.354 25.344 128.089-.31.501-1.511.911-2.671.911-3.212 0-1.515.997 2.592 1.523 3.236.414 3.534.271 2.664-1.278-.539-.96-3.048-12.32-5.574-25.245-7.031-35.965-22.569-111.446-23.039-111.916-.229-.229-.406.445-.393 1.499M117.99 192.75c-.006 1.512-.448 12.65-.983 24.75-2.104 47.622-4.068 107.593-3.55 108.43.3.485 1.399.659 2.443.386 2.105-.551 2.476-5.955 3.624-52.816.296-12.1.731-24.925.966-28.5.235-3.575.686-13.925 1.004-23 .317-9.075.823-19.988 1.126-24.25l.549-7.75h-2.584c-2.151 0-2.587.462-2.595 2.75m-87.106 32.713c-.064 1.683-.32 2.257-.573 1.287-.559-2.138-2.311-2.327-2.311-.25 0 .825.45 1.5 1 1.5s1 2.25 1 5c0 3.114.436 5 1.155 5 .677 0 .446.784-.558 1.893-1.528 1.688-1.562 2.256-.313 5.25.77 1.846 1.992 5.824 2.714 8.839 1.036 4.328 1.476 5.065 2.087 3.5.719-1.84.779-1.816.845.327.038 1.27.485 2.053.992 1.739 1.442-.891 1.176-15.163-.467-25.067-.82-4.94-1.513-9.738-1.54-10.664-.096-3.255-3.903-1.701-4.031 1.646m214.366-2.726c-3.209.225-5.249.833-5.247 1.565.001.659 2.476 23.659 5.5 51.111 3.023 27.452 5.497 50.29 5.497 50.75 0 .46 1.35.837 3 .837 1.725 0 3.007-.531 3.015-1.25.011-.9.261-.862.893.135 1.101 1.738 6.092.68 6.092-1.292 0-.752-2.475-23.56-5.5-50.684-3.025-27.123-5.5-49.899-5.5-50.612 0-.713-.562-1.214-1.25-1.112-.687.102-3.613.35-6.5.552M22.515 246.5c.46 2.132.359 2.59-.348 1.581-1.093-1.561-1.62 1.073-3.084 15.419-.66 6.458-.868 7.132-1.084 3.5l-.266-4.5-.743 4.5c-.409 2.475-1.283 7.147-1.942 10.383-1.485 7.29.88 19.464 3.74 19.243 1.346-.104 1.678 1.117 1.895 6.962.144 3.899.696 8.174 1.226 9.5 1.121 2.804 1.159 2.345 1.429-17.374.12-8.707.517-12.005 1.519-12.625.794-.491 1.103-1.639.745-2.767-.336-1.06.051-2.803.862-3.874 1.438-1.902 1.473-1.895 1.504.302.018 1.238.482 2.25 1.032 2.25.559 0 1-2.722 1-6.167 0-7.71.954-7.219 1.134.584.089 3.839.587 5.922 1.499 6.273.752.288 1.367 1.151 1.367 1.917 0 1.729 1.962 1.863 2.101.143.314-3.866-.434-8.527-1.679-10.465-1.631-2.54-1.91-5.705-.422-4.785.55.34 1-.084 1-.941 0-1.773-1.646-2.122-2.198-.466-.465 1.397-1.954-1.689-5.351-11.093-2.955-8.179-6.118-12.986-4.936-7.5m-9.781 7.1c-.417.416-.545 2.364-.285 4.328.26 1.965.224 2.74-.08 1.723-.487-1.625-.721-1.526-1.933.81-1.181 2.276-1.162 3.622.129 9.349 2.342 10.39 2.56 10.359 4.495-.639 1.169-6.644 1.505-11.103.942-12.5-.568-1.41-.932-1.645-1.038-.671-.09.825-.458.452-.818-.829-.361-1.28-.996-1.988-1.412-1.571m21.915 36.635c-.578 2.209-.602 2.212-2.085.25-2.157-2.854-1.928-1.332 1.342 8.912 1.598 5.006 3.225 11.69 3.615 14.853.39 3.163 1.05 5.75 1.465 5.75.416 0 1.109 2.363 1.54 5.25l.783 5.25 1.246-7.5c.686-4.125 1.555-8.625 1.933-10 .53-1.934.443-2.16-.386-1-.894 1.251-1.074 1.138-1.087-.679-.008-1.198-.728-2.892-1.601-3.764-1.174-1.174-1.415-2.592-.929-5.468.361-2.136.236-4.143-.277-4.461-.514-.317-1.504-2.613-2.201-5.102-1.394-4.98-2.464-5.71-3.358-2.291m-8.939 5.501c-.273 1.426-.11 6.907.361 12.179.472 5.272.874 12.847.893 16.835.036 7.263 1.454 9.714 2.604 4.5.954-4.324 1.268-4.918 1.353-2.559.043 1.205.529 2.469 1.079 2.809 1.518.938 1.201-3.884-.466-7.098-1.008-1.941-1.131-3.033-.393-3.489.757-.468.747-.864-.034-1.347-.609-.376-1.091-1.895-1.071-3.375l.036-2.691 2.423 2.964c1.332 1.631 2.604 3.881 2.827 5 .318 1.594.435 1.473.542-.554.171-3.261-3.271-16.857-5.407-21.36-2.095-4.414-4.103-5.182-4.747-1.814m445.54 13.007l-7.25.345v4.456c0 2.451-.45 4.456-1 4.456s-1 1.71-1 3.8-.412 4.228-.915 4.75c-.865.899-3.093 69.31-3.087 94.832l.002 11.881 3.75-.465c2.063-.256 4.875-.173 6.25.186 1.375.358-6.263.984-16.973 1.39-10.71.406-19.582.848-19.715.981-.134.133-2.343 13.721-4.909 30.194-5.517 35.412-5.303 34.919-13.895 31.998-3.033-1.031-5.676-1.688-5.873-1.46-.198.227-2.172 11.438-4.388 24.913l-4.029 24.5-.189-10.5c-.105-5.775-.275-18.6-.38-28.5-.185-17.505-1.82-30.5-3.838-30.5-.511 0-.639-.469-.285-1.042.354-.574-.143-3.232-1.105-5.908-1.639-4.559-1.648-5.425-.144-13.708 1.765-9.716 1.788-10.224 2.187-48.342.153-14.575.381-26.5.506-26.5.758 0 .786-8.533.03-9-.565-.349-.565-1.515 0-3 .571-1.502.564-2.651-.018-3.011-.563-.348-.457-1.356.263-2.51.86-1.377.897-2.237.128-3.006-1.756-1.756-.355-5.81 2.977-8.614l3.113-2.62-2.981.577c-1.64.317-4.895.866-7.232 1.218l-4.25.642v-3.222c0-2.274.809-3.917 2.75-5.586 2.889-2.485 1.657-3.196-2.066-1.192-1.201.647-5.109 1.306-8.684 1.463-3.575.158-12.125.539-19 .846-27.326 1.22-37.521 1.297-38.75.292-.74-.605-1.25-.634-1.25-.071 0 .523-1.843.915-4.096.872-2.252-.043-4.278.217-4.501.578-.223.361-1.305.421-2.404.133-1.982-.518-1.999-.02-1.999 59.929 0 113.929 1.445 307.709 2.172 291.282.39-8.8 1.187-22.975 1.771-31.5.585-8.525 1.078-28.1 1.097-43.5.034-27.754.986-53.941 2.872-79 .921-12.238 1.672-31.576 4.122-106.147.563-17.131 1.273-34.177 1.578-37.88l.555-6.732-2.491.625c-1.37.344-3.118.866-3.886 1.161-1.068.41-1.303-.263-.999-2.864.32-2.737 1.172-3.836 4.369-5.633 2.184-1.227 4.07-2.074 4.19-1.881.264.424-.905 37.354-2.353 74.351-.582 14.85-1.29 34.65-1.573 44-.284 9.35-.924 28.25-1.423 42s-1.37 38.05-1.936 54c-.567 15.95-1.486 40.7-2.043 55-.556 14.3-1.466 42.425-2.021 62.5-.554 20.075-1.498 46.175-2.098 58-.599 11.825-.935 26.225-.746 32l.343 10.5 7.75.253 7.75.253.018-3.753c.063-12.772 1.293-66.035 2.534-109.687.797-28.014 1.448-51.946 1.448-53.181 0-1.534.713-2.383 2.25-2.679l2.25-.434-2.25-.136c-1.848-.112-2.247-.717-2.234-3.386.015-2.919 1.937-65.588 3.534-115.25.336-10.45.842-19.675 1.123-20.5.282-.825.447-6.296.367-12.158-.098-7.148.236-10.895 1.014-11.375.694-.429.778-.968.208-1.342-.931-.612-.702-6.769 1.719-46.253.56-9.146 1.06-20.621 1.109-25.5.077-7.594.233-8.376 1.079-5.426.544 1.895.841 8.738.66 15.206l-.329 11.762 4.5.293 4.5.293-.154 7.5c-.084 4.125-.654 21.675-1.265 39-.611 17.325-1.548 48.375-2.082 69-3.568 137.868-5.167 196.955-5.788 214-.972 26.659-.564 36.073 1.527 35.27 1.14-.437 1.358-.235.772.715-.545.881-.433 1.085.335.61.697-.43 1.155-.052 1.155.953 0 1.128.526 1.464 1.627 1.042.894-.344 2.225-.128 2.956.479.731.607 1.714.865 2.185.574 1.892-1.169 11.232 5.314 11.232 7.795 0 3.985-.944 5.39-3.221 4.794-1.424-.372-1.863-.178-1.376.61.393.637 1.416 1.158 2.273 1.158 1.146 0 1.381.594.89 2.25-.367 1.237-.89 4.275-1.162 6.75-.272 2.475-1.86 13.275-3.53 24-1.669 10.725-3.288 21.223-3.597 23.329-.315 2.146-.877 3.318-1.28 2.666-.504-.816-.9-.69-1.326.421-.335.871-.172 1.584.36 1.584.533 0 .969 1.575.969 3.5s-.45 3.5-1 3.5-1-.659-1-1.465c0-1.727-3.385-3.782-4.529-2.75-.435.393-.498.201-.138-.428.392-.686-.393-1.406-1.961-1.8-3.219-.808-4.593-2.145-6.388-6.218-1.246-2.826-1.527-2.985-2.657-1.5-1.17 1.538-1.266 1.531-1.295-.089-.018-.962-.509-1.75-1.091-1.75s-.784.444-.449.987c.336.543.028 1.611-.684 2.373-1.096 1.174-1.547 1.095-2.948-.521-.91-1.049-2.263-1.78-3.007-1.623-.852.179-1.272-.508-1.134-1.858.16-1.568-.642-2.498-3-3.476-4.51-1.871-5.498-1.9-6.158-.18-.318.828-1.212 1.262-1.987.965-.775-.297-1.657.106-1.96.896-.307.799-1.786 1.407-3.333 1.369-2.723-.066-2.734-.09-.531-1.152 2.788-1.345 2.961-2.779.25-2.07-1.581.414-2.003.028-2.015-1.843-.013-1.904-.208-2.074-1-.867-.823 1.253-1.086 1.133-1.596-.73-.513-1.871-1.156-2.16-4-1.795-1.864.238-3.389.035-3.389-.451 0-.503-1.398-.483-3.243.046-1.784.511-4.372.869-5.75.794-2.351-.128-2.367-.163-.257-.57 1.238-.238 2.25-.86 2.25-1.383 0-.522-1.238-.685-2.75-.362-2.487.531-2.585.452-1.021-.826 1.617-1.322 1.565-1.568-.803-3.793-2.263-2.126-2.362-2.504-.927-3.553 1.298-.949.606-1.145-3.608-1.025-3.205.091-5.366-.302-5.609-1.02-.247-.732.561-1.063 2.162-.888 1.406.155 2.556-.107 2.556-.582 0-.474.927-.862 2.059-.862 1.132 0 1.781.45 1.441 1-.34.55.196 1.006 1.191 1.014.995.007 2.791.277 3.991.599 1.84.493 2.096.252 1.628-1.535-.417-1.597-.872-1.856-1.843-1.051-.896.744-1.487.75-1.937.022-.356-.577-.059-1.095.661-1.151.72-.057-.252-.47-2.159-.919-1.947-.458-4.215-.416-5.17.095-1.153.617-1.835.51-2.118-.332-.33-.981-1.187-.966-4.085.074-2.017.724-4.562 1.032-5.657.685-1.526-.485-1.85-.267-1.389.934.462 1.203-.06 1.549-2.256 1.495-2.498-.062-2.606-.178-.857-.93 1.598-.687 1.665-.874.332-.93-.918-.038-2.268-.29-3-.559-2.212-.813-4.681 1.265-2.88 2.423.799.514 1.811.712 2.25.441.439-.271.798.239.798 1.133 0 1.131-.567 1.447-1.859 1.037-1.055-.335-2.384.042-3.073.873-1.705 2.055-3.971.929-3.3-1.639.376-1.439.181-1.865-.627-1.366-.645.399-.867 1.221-.493 1.826.46.745.062.846-1.234.313-1.053-.433-3.826-.847-6.163-.92-2.875-.089-4.25-.577-4.25-1.507-.001-.972.818-1.211 2.796-.816 2.689.538 5.467-.34 5.288-1.671-.273-2.042.097-2.646 1.665-2.717 1.045-.047 1.247-.282.5-.583-.687-.278-1.25-1.142-1.25-1.921 0-.779-.45-1.417-1-1.417s-1-.639-1-1.421c0-1.503 5.286-3.138 6.907-2.137a1.12 1.12 0 001.539-.354c.835-1.352-3.441-1.831-6.761-.757-1.548.5-4.36.659-6.25.352-1.889-.306-3.435-.136-3.435.38 0 .515.669.937 1.487.937.817 0 2.167 1.63 3 3.622 1.851 4.432 1.851 4.378.044 4.378-.872 0-1.242-.589-.911-1.451.442-1.154-.144-1.338-2.858-.898-2.381.387-3.899.069-5.017-1.048-.881-.882-2.062-1.603-2.624-1.603-.562 0-1.427-.724-1.922-1.609-.822-1.468-.958-1.462-1.543.063-.353.92-1.095 1.393-1.649 1.05-.554-.342-1.007-.145-1.007.437s-.675 1.059-1.5 1.059-1.5-.45-1.5-1-.45-1-1-1-.887.503-.75 1.117c.445 1.989-3.441 1.802-6.289-.304-1.524-1.127-3.264-1.744-3.866-1.372-.602.372-1.099.313-1.103-.132-.004-.445-2.367-.892-5.25-.994-6.505-.229-13.357-2.301-11.525-3.485.721-.466-.471-.566-2.717-.228-2.2.33-4.9.57-6 .533-1.1-.036-4.429-.068-7.398-.071-4.647-.003-5.227-.209-4.171-1.481 1.233-1.485 17.013-1.469 26.09.028 1.913.315 5.729.915 8.479 1.334 2.75.418 6.121 1.214 7.491 1.769 1.851.749 2.751.67 3.5-.309.782-1.021 8.327-1.445 33.509-1.884 36.302-.632 54.142-1.328 54.955-2.144.3-.301-5.385-.401-12.632-.222-7.248.178-13.494.007-13.882-.38-.387-.388-1.545-.255-2.572.295-1.638.877-1.869.618-1.869-2.094 0-1.702-.354-2.876-.786-2.608-.432.267-.785-.382-.785-1.441 0-1.06.578-1.927 1.285-1.927s1.286-.45 1.286-1-.675-1-1.5-1c-4.047 0-.552-5.411 3.63-5.622 4.543-.228 6.696 2.052 4.366 4.626-.954 1.054-2.018 1.881-2.365 1.838-1.844-.23-3.131.28-3.131 1.241 0 .716 2.973.989 8.78.805 4.829-.153 9.22-.006 9.758.326.537.333 2.774.92 4.97 1.307 2.195.386 4.55 1.406 5.232 2.267 2.154 2.721 2.117 1.048-.281-12.788l-2.34-13.5-.888-180.5-.889-180.5-2.222-6c-2.134-5.762-2.237-7.608-2.598-46.5l-.376-40.5-13.323-.145c-7.328-.08-17.598.274-22.823.786-5.225.512-20.3 1.181-33.5 1.487-13.2.306-24.189.741-24.42.968-.232.226.108 14.022.755 30.658 3.244 83.484 5.085 185.686 5.831 323.746.449 83.111.946 116.711 1.732 117.235.606.404 2.509.741 4.23.75 1.72.008 3.692.696 4.382 1.527.783.943 1.676 1.177 2.373.62 3.579-2.859 14.036.454 11.412 3.615-.763.919-.592 1.253.642 1.253.924 0 1.417-.426 1.095-.948-.322-.521.327-.772 1.441-.557 1.28.246 2.027-.142 2.027-1.052 0-.794-.562-1.45-1.25-1.458-.833-.011-.75-.339.25-.985 2.212-1.43 4-1.206 4 .5 0 .825.398 1.5.883 1.5.486 0 1.099 1.125 1.362 2.5l.478 2.5H222.92c-10.153 0-17.047-.397-17.422-1.003-.409-.662-1.306-.635-2.644.081-1.114.596-2.152.935-2.308.753-.155-.182-.569-40.831-.919-90.331-.351-49.5-.929-107.437-1.285-128.75l-.648-38.75h-4.328c-4.671 0-6.3-2.319-5.034-7.162.554-2.119.485-2.127-13.137-1.503-7.532.345-22.695.874-33.695 1.175-11 .302-24.115.798-29.143 1.104l-9.144.557.371 3.664c.204 2.016 1.06 10.19 1.901 18.165.842 7.975 2.652 25.975 4.022 40 1.37 14.025 3.836 38.55 5.48 54.5 2.915 28.273 3.443 35.269 2.601 34.417-.607-.614-4.22-30.883-7.034-58.917-1.352-13.475-3.345-29.9-4.428-36.5-1.084-6.6-2.913-19.65-4.064-29-1.152-9.35-2.838-22.4-3.747-29-.908-6.6-1.914-15.057-2.234-18.794l-.581-6.794-5.214 5.294-5.213 5.294L86.49 560c.78 7.425 3.028 30.6 4.996 51.5 1.969 20.9 4.927 51.725 6.574 68.5 1.647 16.775 3.718 38.825 4.601 49l1.606 18.5-3.181 11c-1.75 6.05-4.769 16.175-6.709 22.5-1.94 6.325-3.871 12.625-4.29 14-.731 2.396-.789 2.354-1.405-1-.958-5.218-9.274-81.14-15.855-144.75C71.56 637.013 70.155 627 69.703 627c-.451 0-.543.45-.203 1s-.051 1-.868 1-1.691-.788-1.943-1.75c-.362-1.386-.481-1.307-.573.383-.069 1.266.604 2.322 1.653 2.596 1.905.498 2.965 5.771 1.161 5.771-.577 0-.789-.419-.473-.931.317-.512.118-1.213-.441-1.559-.606-.374-1.044.708-1.085 2.681-.087 4.172-.697 8.908-1.213 9.425-.218.217-1.369-8.945-2.558-20.361C59.51 590.221 57.641 575 56.991 575c-.342 0-4.818 4.388-9.945 9.75-5.127 5.362-11.574 12.053-14.326 14.868-5.308 5.431-5.422 6.007-2.584 13.088.616 1.537 1.053 4.819.972 7.294-.081 2.475.304 5.175.857 6 .64.957 1.01 1.059 1.02.281.008-.67.644-.977 1.414-.681.769.295 1.696.056 2.059-.532.363-.587-.001-1.068-.809-1.068-1.034 0-.693-.884 1.153-2.988 3.335-3.8 3.948-3.092 4.713 5.445.342 3.826.777 7.206.965 7.511.189.305-.188 1.28-.838 2.168-1.196 1.636-7.061 2.35-6.065.739.298-.481-.191-.875-1.085-.875-1.083 0-1.451.585-1.1 1.75.289.962.769 6.855 1.066 13.094.297 6.239.721 11.639.942 12 .552.901 1.476 8.72 3.09 26.156.382 4.125 1.133 9.233 1.668 11.351.535 2.118.723 4.102.416 4.408-.306.306-.057 1.158.553 1.894.61.735.889 2.177.621 3.204-.269 1.027-.047 4.516.492 7.755.54 3.238.963 6.563.941 7.388-.023.825.63 5.7 1.45 10.833.82 5.134 1.396 10.309 1.281 11.5-.115 1.192.053 2.842.373 3.667.643 1.657 1.451 8.074 2.267 18 .294 3.575.749 7.516 1.012 8.758.698 3.295 5.424 38.797 6.024 45.242.281 3.025.955 8.65 1.498 12.5 3.604 25.555 5.876 47.335 5.897 56.534.02 8.761-1.141 13.3-21.395 83.679-7.474 25.967-13.651 47.567-13.729 48-.261 1.461-4.46-29.006-5.818-42.213-1.157-11.263-3.913-35.515-4.521-39.79-.394-2.766-2.56-22.385-4.054-36.71-.258-2.475-1.128-10.125-1.933-17-.806-6.875-2.169-18.8-3.029-26.5-1.781-15.93-2.074-18.303-3.454-28-.898-6.305-2.264-18.279-3.645-31.965-.276-2.731-.705-5.168-.953-5.417C.203 795.87 0 848.167 0 912.333V1029h32.962l.636-2.75c1.219-5.273 4.4-17.203 9.975-37.406a9971.604 9971.604 0 009.948-36.344c9.403-34.698 18.576-67.924 18.772-67.992 1.843-.638 11.743-10.117 11.841-11.335.183-2.295 1.598 6.457 2.801 17.327.548 4.95 1.406 10.651 1.907 12.67 1.098 4.421 1.532 1.795-6.986 42.232l-6.93 32.902 1.491 10.598c.82 5.829 1.715 13.1 1.989 16.159.274 3.058 1.029 9.695 1.677 14.75l1.179 9.189h55.521l.668-2.659c.367-1.463.877-8.101 1.135-14.75.257-6.65.882-15.916 1.388-20.591 1.922-17.733 2.269-26.732 1.165-30.124-.726-2.229-.81-5.584-.246-9.876.469-3.575.968-5.375 1.108-4 .14 1.375.375 3.4.522 4.5 2.307 17.198 2.465 20.253 1.563 30.249-.533 5.913-1.463 17.276-2.066 25.251-.604 7.975-1.31 16.188-1.571 18.25l-.473 3.75h61.813c62.209 0 67.178-.259 67.203-3.509.004-.556.866-1.546 1.914-2.2 1.048-.655 2.461-2.9 3.14-4.991.679-2.09 2.746-5.161 4.594-6.825 1.848-1.664 3.36-3.561 3.36-4.215 0-.654.846-1.642 1.88-2.196 1.034-.553 2.644-2.706 3.578-4.785 2.955-6.575 3.988-8.279 5.029-8.288.557-.005 1.987-1.243 3.178-2.75a173.897 173.897 0 014.25-5.144c1.147-1.322 2.085-3.168 2.085-4.104 0-1.806 4.296-6.993 5.792-6.993.488 0 1.349-1.013 1.913-2.25.564-1.237 4.235-5.783 8.158-10.1 3.922-4.318 6.898-8.227 6.613-8.688-.285-.461 1.246-2.637 3.401-4.836 2.155-2.199 3.664-4.252 3.354-4.562-.31-.31.411-.564 1.602-.564 1.319 0 2.167-.626 2.167-1.599 0-.879 1.415-2.92 3.143-4.535l3.144-2.936-.589 4.785c-.325 2.632-2.414 17.12-4.644 32.196-2.23 15.075-4.054 28.823-4.054 30.55 0 1.726-.42 3.567-.934 4.089-.782.795-6.958 16.795-8.765 22.705-.51 1.666 4.01 1.743 88.831 1.5l89.368-.255-.307-235.5c-.168-129.525-.281-263.513-.25-297.75L500 433l-9.25-.15c-6.797-.111-8.077-.309-4.828-.75 2.433-.33 4.626-1.217 4.874-1.972.372-1.13-1.867-1.3-12.672-.963l-13.124.409v-2.73c0-2.66 3.609-9.997 5.259-10.691.453-.191.305-.974-.331-1.739-.635-.766-1.554-1.145-2.041-.844-.488.301-.887.045-.887-.57s-.45-.84-1-.5c-.623.385-.994-1.569-.985-5.191.012-4.334.281-5.428 1.061-4.309.786 1.128.897.743.448-1.555-.564-2.885 2.305-8.282 3.675-6.913.273.273.536-.922.585-2.655.05-1.733.568-3.629 1.153-4.214.585-.585 1.063-1.9 1.063-2.922 0-1.022.45-1.581 1-1.241 1.295.8 1.295-3.08.001-5.499-.81-1.512-.584-1.998 1.187-2.561 1.831-.581 1.953-.876.749-1.817-.959-.749-1.469-3.236-1.534-7.47-.066-4.27-.556-6.637-1.5-7.234-1.083-.686-1.104-.892-.094-.904.72-.008 1.041-.449.714-.979-.328-.529.374-1.933 1.559-3.118 1.736-1.736 1.889-2.322.786-3.021-1.081-.685-1.094-.87-.059-.882.72-.008 1.031-.465.691-1.015-.34-.55-.115-1 .5-1s.84-.45.5-1c-.34-.55-.189-1 .335-1s.931-1.012.903-2.25c-.086-3.785 1.092-7.9 2.606-9.105 1.372-1.092-1.609-10.93-5.434-17.936-1.736-3.18-.003-3.709 12.149-3.709H500v-5l-10.75.199c-5.913.109-14.012.354-18 .544M40 339.057c0 8.945-2.082 19.12-3.647 17.821-1.008-.836-1.353-.821-1.353.059 0 .649-.443.907-.985.572-.611-.377-.769.645-.416 2.691.433 2.508.313 2.94-.499 1.8-.898-1.26-1.072-1.169-1.085.57-.008 1.138 1.317 3.562 2.945 5.385l2.96 3.315 1.177-2.885c.647-1.587 1.78-4.235 2.517-5.885l1.34-3 .023 4.25c.013 2.337.412 4.25.887 4.25 1.894 0 2.806-17.775 1.48-28.82-1.064-8.856-2.332-3.667-1.912 7.82.266 7.27.117 9.423-.485 7-.478-1.925-1-7.212-1.158-11.75-.312-8.895-1.789-11.532-1.789-3.193m456.107 17.869c-.255 19.835-.247 19.923 1.852 19.374 2.059-.538 2.107-1.013 1.998-19.926-.102-17.702-.262-19.374-1.853-19.374-1.587 0-1.763 1.755-1.997 19.926M9.75 355.689c-2.23.583-2.491-1.348 2.949 21.811 2.583 11 4.666 22.025 4.629 24.5-.043 2.797.195 3.771.627 2.573.644-1.786.745-1.798 1.37-.168.371.967.675 2.622.675 3.677 0 1.055.45 1.918 1 1.918s1-.395 1-.879c0-.483 1.35-1.438 3-2.121s3.05-1.751 3.112-2.371c.061-.621.29-2.701.507-4.623.344-3.029-.103-3.922-3.361-6.712-2.727-2.336-3.278-3.229-2.008-3.256.962-.021 1.75.412 1.75.962s.475 1 1.055 1c.634 0 .933-1.893.75-4.75-.249-3.879-.626-4.696-2.055-4.456-2.15.361-2.208-.193-.227-2.174 1.365-1.365 1.35-2.233-.137-8.322-.914-3.739-2.049-7.226-2.524-7.748-.474-.523-.862-1.67-.862-2.55 0-3.352-2.328-4.172-3.548-1.25l-1.149 2.75-.739-4.25c-.749-4.304-1.413-4.711-5.814-3.561M139 378.5V394h-2.481c-2.954 0-3.905 2.679-3.364 9.477.207 2.602-.068 4.53-.648 4.538-.554.009-.394.404.356.879 1.003.636 1.045.97.158 1.266-.663.221-1.276 1.625-1.363 3.12-.087 1.495-.544 2.719-1.015 2.719-.471.001-.589.699-.261 1.553.327.854.254 1.341-.164 1.083-.417-.258-.803 3.206-.858 7.698-.055 4.492-.303 12.555-.55 17.919-.295 6.375-.013 11.024.812 13.424.857 2.494.948 4.258.285 5.498-.67 1.251-.633 1.826.117 1.826.602 0 .772.522.377 1.16-.394.637-.647 2.921-.563 5.073.084 2.153-.341 4.839-.946 5.968-.81 1.514-.795 2.241.059 2.769 1.683 1.04 1.468 11.551-.375 18.329-1.809 6.654-2.002 8.908-.576 6.701 1.412-2.185 1.257.207-.422 6.5-.733 2.75-1.139 5.9-.902 7 .9 4.173.82 8.501-.159 8.532-.559.017-.193.656.815 1.42 1.288.976 1.779 2.527 1.653 5.218-.427 9.142-.043 11.502 1.958 12.025 1.147.3 2.111 1.594 2.351 3.157.223 1.456.536-1.402.695-6.352.158-4.95.625-16.2 1.037-25 .589-12.584.659-10.396.326 10.25-.418 25.876-.395 26.25 1.612 26.25 1.143 0 2.036.658 2.036 1.5 0 .825.4 1.5.889 1.5s.826-.787.75-1.75c-.09-1.13.697-1.867 2.222-2.084 1.503-.213 2.118.06 1.691.75-.401.648.181 1.084 1.448 1.084 1.165 0 1.84.45 1.5 1-.957 1.548.462 1.181 2.217-.574 1.278-1.278 1.732-1.325 2.413-.25.462.728.869 1.099.905.824.734-5.585 1.975-50.106 4.565-163.75l.667-29.25H139v15.5m-94.194 1.75l-.193 10.25-.557-10c-.549-9.88-.572-9.954-1.905-6.184-.743 2.099-1.122 4.686-.844 5.75.278 1.064.194 1.934-.188 1.934-1.159 0-1.113 4.267.092 8.5.627 2.2 1.03 4.608.897 5.35-.133.743.238 1.054.825.691.587-.362 1.067.043 1.067.9S44.45 399 45 399c.621 0 1-5.5 1-14.5 0-16.531-.901-19.739-1.194-4.25m-26.665 28.469c-.1 2.281-.54 3.065-1.512 2.692-.754-.289-2.072.175-2.929 1.031-.856.857-2.264 1.558-3.129 1.558-.904 0-1.571.848-1.571 2 0 2.083 3.264 6 5 6 2.192 0 .836 2.509-1.427 2.64-1.604.092-2.258-.297-1.931-1.149.748-1.951-1.464-2.812-3.077-1.198-1.494 1.493-1.534 18.249-.082 34.707.711 8.07 2.224 15.791 2.449 12.5.075-1.1 1.468 1.375 3.095 5.5 1.628 4.125 2.528 7.645 2.002 7.821-1.058.356.965 4.179 2.212 4.179 1.841 0-1.373-14.62-5.057-23-2.04-4.64-3.637-18.602-2.228-19.473.437-.27.794.591.794 1.913s.384 5.026.854 8.232l.854 5.828.556-7 .555-7 1.776 3.863c.977 2.124 2.028 6.174 2.335 9 .813 7.464 5.331 10.774 5.306 3.887-.02-5.685-.985-8.25-3.103-8.25-1.035 0-1.883-.48-1.883-1.067 0-.602.847-.799 1.944-.451 1.789.568 1.94.112 1.895-5.682-.028-3.579-.652-7.257-1.444-8.515-1.622-2.576-1.842-4.679-.395-3.785 1.556.962 1.188-1.197-1.037-6.081-2.722-5.976-3.323-12.067-1.267-12.856 1.176-.451 1.414-.092.997 1.501-.372 1.426-.145 1.94.714 1.61.757-.29 1.798.976 2.607 3.171 1.316 3.569 1.365 3.596 2.078 1.155.718-2.459.741-2.464 1.418-.319.457 1.451 1.211 1.98 2.253 1.58 1.17-.449 1.334-.242.651.819-.503.781-.918 4.196-.924 7.59-.005 3.393.326 5.643.735 5 .553-.869.748-.849.76.08.025 2.082 3.831 1.404 4.533-.808 1.257-3.959-.527-12.003-2.872-12.949-1.713-.691-1.793-.879-.396-.93 2.051-.074 2.109-1.414.417-9.557-1.443-6.941-3.015-7.832-7.302-4.142-3.544 3.051-2.672 4.452.982 1.577L27 409.855v2.072c0 1.176-.649 2.073-1.5 2.073-.825 0-1.5.402-1.5.893 0 1.114-3.078 2.362-3.871 1.569-.322-.322-.869-2.92-1.216-5.773-.424-3.485-.678-4.132-.772-1.97m19.109 23.849c-.687.741-1.25 2.942-1.25 4.89 0 2.359-.465 3.542-1.392 3.542-1.406 0-3.128 4.361-2.704 6.85.126.743-.22 1.073-.769.733-.549-.339-1.187.628-1.417 2.15L29.3 453.5l-.15-2.75c-.083-1.512-.497-2.75-.922-2.75-.424 0-.252 5.962.383 13.25s1.095 13.255 1.022 13.261c-.073.006-1.222.906-2.553 2-2.126 1.748-2.342 1.777-1.781.239.351-.962.246-1.75-.233-1.75-1.187 0-3.066 5.643-3.066 9.208 0 3.982.659 3.347 8.318-8.011 5.19-7.697 6.712-10.779 6.816-13.803.128-3.73.164-3.684.858 1.106.398 2.75.338 5.758-.134 6.684-.472.927-.858 2.689-.858 3.917 0 1.228-.304 1.928-.675 1.557-.692-.691-6.719 8.274-10.357 15.406-2.005 3.929-1.963 14.669.053 13.423.422-.261 1.028 3.01 1.346 7.269.317 4.259.797 9.769 1.066 12.244l.489 4.5-1.384-4c-.912-2.636-1.45-3.318-1.576-2-.264 2.749-1.798-3.997-3.689-16.214-.869-5.618-1.953-9.984-2.409-9.702-.456.282-2.524-.644-4.596-2.056-4.888-3.332-5.072-2.442-2.226 10.757 2.167 10.053 3.649 14.331 2.759 7.965-.25-1.788-.068-3.25.404-3.25 1.472 0 1.997 2.754.912 4.781-.583 1.09-.74 3.641-.358 5.828l.678 3.891.65-3.5c.646-3.478.651-3.472.855 1 .114 2.475.567 6.525 1.007 9 .767 4.312.812 4.186 1.076-3 .291-7.94.487-7.247 1.525 5.398.365 4.445.989 7.347 1.428 6.637.624-1.009.866-1.004 1.21.029.615 1.846 2.812.188 2.812-2.123 0-1.068.637-1.941 1.417-1.941.779 0 1.643-.562 1.921-1.25.301-.747.536-.545.583.5.043.962.529 1.75 1.079 1.75.618 0 1.085-6.398 1.223-16.75l.222-16.75.303 15.75c.274 14.26 1.025 18.39 2.597 14.292.308-.801.053-5.574-.567-10.606-.855-6.945-.843-9.602.048-11.029 1.312-2.101 1.576-13.838.428-19.032-.742-3.357-.75-3.348-1.412 1.625-.64 4.809-.657 4.761-.44-1.25.166-4.61-.119-6.25-1.088-6.25-.857 0-.618-.696.686-2 1.1-1.1 2.061-3.462 2.136-5.25.08-1.911.302-2.419.539-1.232.318 1.593 1.237 2.04 4.364 2.122l3.961.104v-17.75c0-14.557-.27-17.973-1.5-18.994-.825-.685-1.5-1.695-1.5-2.245 0-.578.606-.497 1.435.191 1.196.992 1.421.679 1.348-1.877-.051-1.804-.622-3.069-1.385-3.069-.714 0-1.694-.707-2.178-1.571-.567-1.014-.951 1.536-1.084 7.201-.276 11.835-1.132 12.049-1.151.287-.017-10.143-.662-12.583-2.735-10.349m196.778 9.182c.016 5.913.439 21.325.941 34.25s1.184 41.95 1.515 64.5c.332 22.55 1.095 50 1.695 61 .601 11 1.253 36.875 1.45 57.5.197 20.625.523 39.75.726 42.5.379 5.149 2.579 76.272 2.621 84.75.022 4.381.216 4.75 2.499 4.75 2.18 0 2.37-.278 1.588-2.333-.519-1.365-.515-2.922.01-3.75.691-1.093.9-.927.912.726.008 1.179.69 2.402 1.515 2.719 1.29.495 1.471-1.138 1.291-11.643l-.21-12.219-.327 9.75c-.568 16.96-2.253 11.022-2.269-8-.008-9.763-.241-25.85-.518-35.75-.277-9.9-.952-37.575-1.502-61.5-2.151-93.715-2.906-124.394-4.972-201.907-.504-18.924-.683-34.786-.396-35.25.287-.464-1.081-.843-3.038-.843H234l.028 10.75m42.478-9.76c-.337.545-.349 5.408-.028 10.807.321 5.399.772 14.741 1.002 20.76.23 6.019.662 15.668.958 21.443.729 14.169 1.404 45.631.859 40.02-.649-6.694-1.584-7.198-13.797-7.441l-4-.079.048 5c.026 2.75.592 18.95 1.258 36 1.986 50.885 4.121 114.375 4.724 140.5.311 13.475 1.024 32.15 1.584 41.5.56 9.35 1.196 26.83 1.415 38.845.473 26.058.433 25.866 5.306 25.46l3.665-.305.577-6.5.578-6.5.172 5.872c.15 5.097.371 5.708 1.673 4.628.825-.685 1.507-1.752 1.515-2.372.036-2.604 1.911-4.236 3.02-2.628.723 1.049.877-3.009.512-13.5-.287-8.25-.765-24.675-1.062-36.5-.533-21.166-1.052-36.71-3.979-119-.811-22.825-1.675-54.1-1.92-69.5-.416-26.236-.389-26.803.424-9 1.172 25.666 5.69 151.754 6.97 194.5.568 18.975 1.247 37.425 1.509 41 .262 3.575.484 8.848.493 11.719.015 4.309.289 5.114 1.575 4.621.857-.329 1.311-1.243 1.008-2.031-.627-1.635 3.438-1.502 4.624.151.694.967.62-3.068-1.188-64.96-.546-18.7-1.237-42.775-1.535-53.5-.299-10.725-.961-29.85-1.473-42.5-.511-12.65-1.613-45.725-2.449-73.5-.836-27.775-1.987-60.625-2.558-73-.571-12.375-1.272-29.25-1.559-37.5-.82-23.65-.785-23.5-5.429-23.5-2.134 0-4.155.446-4.492.99m-116 17.24c-2.148 2.471-2.107 2.15-2.813 21.77-.267 7.425-.605 13.95-.751 14.5-.423 1.593 2.212 10.5 3.105 10.5 1.713 0 3.903-3.217 4.555-6.693.841-4.48-.196-35.778-1.31-39.577l-.813-2.77-1.973 2.27M3.548 486.263c-.424 1.519-.489 4.219-.144 6 .344 1.78.833 5.937 1.085 9.237.817 10.679 1.727 13.03 4.949 12.795 1.543-.113 2.924-.338 3.068-.5.714-.801-4.874-24.433-5.986-25.32-.708-.564-1.492-1.914-1.743-3-.389-1.68-.572-1.563-1.229.788m38.15 24.635c-.472 3.988-.263 5.68.837 6.779.806.806 1.51 2.221 1.565 3.144.059 1.006.405.677.861-.821.478-1.57.275-3.294-.546-4.633-1.048-1.709-1.06-2.471-.061-3.836 2.36-3.229 3.797 2.318 2.079 8.027-1.435 4.765-1.937 11.442-.861 11.442 1.077 0 9.257-5.089 10.408-6.476 1.297-1.563-1.444-3.625-3.73-2.806-.769.276-1.256-.45-1.265-1.885-.013-1.873-.207-2.037-.985-.833-.73 1.13-.973.655-.985-1.922-.025-5.59-4.878-14.491-5.085-9.328-.061 1.509-.176 1.48-.836-.208-.564-1.441-.932-.555-1.396 3.356m291.51 152.852c-.161 7.146-.525 9.25-1.603 9.25-1.093 0-1.213.804-.554 3.725.587 2.604.48 3.958-.356 4.5-.862.559-.886.984-.087 1.525.63.426 1.197 4.31 1.314 9 .192 7.734.076 8.25-1.858 8.25-1.135 0-2.064.633-2.064 1.406 0 .914.7 1.224 2 .884 1.118-.293 2-.031 2 .593 0 .615-1.012 1.162-2.25 1.217-2.139.094-2.127.134.25.809 1.664.472 2.604.291 2.812-.541.172-.688 1.747-1.43 3.5-1.649l3.188-.399-3.239-.16c-4.672-.231-4.481-5.095.207-5.278l3.032-.119-3-.646c-3-.645-3-.646-2.886-7.631.2-12.304.512-14.356 2.253-14.819 1.442-.384 1.433-.449-.079-.551-1.46-.099-1.762-1.485-2.043-9.366l-.33-9.25-.207 9.25m-221.072 96.273c-3.074 13.055-4.704 21.692-5.658 29.977a4093.64 4093.64 0 00-1.02 9l-.618 5.5 2.058-2.5c2.582-3.137 2.804-1.137.596 5.367-1.405 4.138-1.394 7.673.048 15.133.461 2.39.346 2.695-.566 1.5-.91-1.193-1.034-.854-.604 1.658.298 1.737.072 4.662-.502 6.5-1.219 3.907-1.442 5.026-2.859 14.342-.585 3.85-1.952 10.748-3.038 15.329-1.085 4.581-1.96 10.656-1.945 13.5.028 5.015 3.982 39.988 6.125 54.171.582 3.85 1.123 8.913 1.203 11.25.079 2.337.369 4.251.644 4.251.275.001.543 1.688.595 3.75.157 6.236 1.183 12.276 2.316 13.642.59.71.787 1.576.438 1.924-.348.349-.02 3.457.728 6.908.748 3.451 1.247 6.66 1.107 7.13-.14.471.208 1.412.772 2.092.565.68.752 1.512.416 1.847-.335.336.078 1.299.92 2.141 1.574 1.574 1.23 5.565-.48 5.565-.525 0-.214.74.69 1.645 1.181 1.18 1.318 1.848.488 2.361-.797.492-.63.918.535 1.365 1.323.508 1.554 1.392 1.057 4.041-.423 2.26-.183 3.844.721 4.749.747.746 1.224 1.803 1.061 2.348-.163.545.368 1.871 1.18 2.946 1.858 2.461 4.034.666 4.794-3.955.271-1.65 1.243-7.5 2.16-13 2.17-13.02 2.118-18.761-.398-44-1.152-11.55-3.015-30.675-4.14-42.5-1.125-11.825-3.826-38.201-6.001-58.613l-3.957-37.113 4.013-17.843 4.013-17.842-1.458-13.905c-.801-7.648-1.614-14.061-1.805-14.252-.191-.191-1.824 5.925-3.629 13.591M.484 912.5c0 64.35.119 90.528.266 58.173.146-32.355.146-85.005 0-117C.603 821.678.484 848.15.484 912.5" fill="#d3d3d3" fill-rule="evenodd"/></svg>