<svg xmlns="http://www.w3.org/2000/svg" width="500" height="675"><path d="M341 61.131c-5.775 2.238-15.161 5.564-20.858 7.39l-10.358 3.32-4.727-3.395c-10.952-7.869-26.972-6.484-38.109 3.294l-3.46 3.039-9.494-.899c-15.034-1.424-56.119-4.815-71.994-5.942-7.975-.566-18.399-1.704-23.163-2.528-8.709-1.508-56.334-3.611-61.105-2.699-1.404.268-3.347.044-4.317-.499-2.308-1.291-10.205 1.551-10.965 3.947-.302.949-3.226 5.219-6.499 9.487-6.921 9.027-7.734 13.138-3.499 17.708 3.675 3.966 5.404 3.344 13.57-4.876l7.472-7.523 24.003.595c27.596.683 26.74.547 26.32 4.184l-.317 2.746-8-.332c-4.4-.182-12.5-.679-18-1.103-10.708-.826-14.243-.146-21.39 4.119-8.731 5.21-10.446 8.351-7.584 13.886 1.911 3.695 5.563 3.914 10.492.63 3.361-2.24 3.935-2.295 16.482-1.587 7.15.403 19.3.775 27 .826 24.012.159 30.747.96 30.091 3.576-.302 1.203-1.456 10.206-2.563 20.006-1.108 9.8-2.167 17.971-2.353 18.158-.187.186-4.575.64-9.751 1.007-8.58.609-9.664.92-12.267 3.523-1.746 1.746-2.622 3.46-2.256 4.415.33.858.599 2.187.599 2.955 0 3.87 3.756 4.43 19.51 2.911 8.245-.795 15.312-1.451 15.705-1.458 4.76-.081 12.423-14.951 17.786-34.512 1.206-4.4 2.501-8.329 2.876-8.73.686-.733 27.017 7.974 43.348 14.333l8.724 3.397.026 7.671.025 7.67-3.25.74-3.25.739 3.142.841c4.074 1.09 4.395 2.549 4.3 19.551-.042 7.583.16 14.463.449 15.288.9 2.57 1.52 33 .672 33-.775 0-28.892-25.502-32.18-29.187-.89-.997-1.847-1.813-2.127-1.813-.28 0-2.477-1.858-4.882-4.128-14.535-13.719-14.977-13.911-26.374-11.446-3.3.714-6.9 1.114-8 .891-7.524-1.531-12.185-1.489-13.797.123-1.341 1.341-3.452 1.655-10.442 1.554-4.819-.069-8.986-.091-9.261-.048-.275.043-7.475.335-16 .648-16.936.622-16.734.551-18.988 6.67l-1.561 4.236-12.976 2.183c-7.136 1.2-14.647 2.213-16.69 2.25-7.933.143-13.638 9.44-9.247 15.067.644.825 2.438 3.871 3.986 6.769l2.814 5.268-2.584 2.732c-1.421 1.502-4.795 6.331-7.497 10.731-2.703 4.4-6.366 10.34-8.14 13.199-5.519 8.895-5.334 11.142 1.33 16.173 3.922 2.961 5.496 4.776 5.155 5.945-.269.926-.988 6.183-1.598 11.683-.609 5.5-1.788 12.114-2.619 14.698-2.146 6.673.205 10.566 6.758 11.188 1.846.176 6.12.915 9.497 1.644l6.14 1.325.486 4.316c.278 2.459 1.573 5.74 3.011 7.626 3.39 4.444 5.469 11.357 3.891 12.935-1.973 1.973-1.314 2.835 2.082 2.728 5.058-.159 14.951 1.088 18.092 2.28 2.139.812 3.03.776 3.6-.146.932-1.508 19.417-7.053 23.591-7.077 1.669-.009 7.519-1.54 13-3.401 13.255-4.5 22.398-7.018 23.064-6.352 1.217 1.216 1.669 15.71.533 17.079-.888 1.07-.81 1.677.337 2.629 3.257 2.704.075 5.028-6.886 5.028-5.507 0-6.417.265-6.871 2-.53 2.029-2.71 2.834-2.71 1 0-1.306-9.849-1.279-19.423.053-5.165.718-8.124.728-9.322.03-1.618-.942-1.599-1.027.245-1.083 1.998-.061 1.998-.062.004-1.218-1.879-1.089-7.53-1.155-39.504-.465-9.003.194-27.567-.919-31.41-1.884-2.373-.595-3.775 1.446-5.198 7.567-1.184 5.092-2.145 42.786-1.301 51 .48 4.675.881 10.774.891 13.554.016 4.463.432 5.455 3.559 8.485 6.077 5.89 9.337 22.073 9.562 47.461.189 21.279-2.126 30.721-9.777 39.871-2.663 3.185-5.326 8.963-5.326 11.558 0 2.022 7.561 21.709 9.461 24.633.736 1.134 1.351 3.609 1.366 5.5.016 1.891.768 6.571 1.672 10.4 1.662 7.044 2.768 18.138 1.7 17.071-.718-.719-3.081 4.682-2.501 5.717.821 1.466 3.303.722 3.334-1 .03-1.645.113-1.642 1.394.046 3.029 3.994-1.661 8.254-6.333 5.754-2.415-1.292-2.509-1.057-.947 2.372.631 1.383 1.607 2.231 2.17 1.883.611-.378.779.006.416.951-.587 1.531 4.208 19.896 6.136 23.497 2.186 4.086 4.919 5.534 9.357 4.959 2.351-.305 11.544-1.487 20.429-2.627 16.905-2.171 19.008-2.645 21.162-4.773 1.286-1.271 8.178-1.426 8.182-.184.001.345-.697 1.208-1.552 1.917-1.36 1.128-1.159 1.456 1.603 2.618 3.313 1.393 4.951 1.056 4.951-1.018 0-.711 1.548-1.341 3.642-1.482 2.003-.134 4.538-.724 5.633-1.31 2.707-1.449 9.775-1.711 12.225-.454 1.1.564 2.371.919 2.824.789.454-.131.54.224.191.787-.348.564-.156 1.081.426 1.15l2.095.25c.571.069 1.425.753 1.9 1.521.475.768 1.581 1.119 2.463.781 2.053-.788 2.082-2.677.042-2.677-3.52 0-.209-1.681 3.605-1.831 2.273-.089 4.492-.383 4.93-.654.439-.271 1.315.131 1.947.893 1.352 1.628 5.048.995 6.779-1.161 1.563-1.948 4.298-.874 4.298 1.688 0 3.868 3.149 8.849 5.889 9.315 1.436.245 9.586.248 18.111.006 34.903-.988 40.83-.936 49.475.433 14.383 2.278 15.746 1.911 17.194-4.638.662-2.998 1.309-7.948 1.436-11 .127-3.053.653-6.798 1.168-8.322.637-1.883.574-3.208-.195-4.135-.622-.75-1.41-4.34-1.749-7.978-.852-9.122-4.437-14.105-10.837-15.065-6.731-1.009-13.234-9.313-19.89-25.394-2.619-6.328-5.851-11.499-18.006-28.813-8.736-12.442-8.598-10.562-4.925-67.012l.597-9.169 4.616-2.954c13.84-8.857 21.084-13.015 25.116-14.415 7.502-2.605 20.178-8.543 21.89-10.255 1.141-1.142 1.544-3.128 1.383-6.825-.525-12.036-.896-59.511-.493-62.964.391-3.341.746-3.75 3.253-3.75 3.868 0 9.479 7.624 21.711 29.5 3.075 5.5 6.586 11.125 7.801 12.5 1.216 1.375 2.79 3.621 3.497 4.991.708 1.37 3.392 5.42 5.966 9 2.574 3.58 5.533 8.084 6.575 10.009 7.09 13.096 23.473 19.011 37.044 13.375 10.097-4.194 20.373-22.9 20.373-37.085 0-2.36.341-4.29.758-4.29 2.133 0 18.615 6.312 24.624 9.429 10.707 5.555 20.568 4.375 24.804-2.969 2.412-4.183 4.869-16.502 4.757-23.86a576.143 576.143 0 01-.062-10.381c.019-2.666-.89-6.012-2.41-8.87-1.342-2.524-2.262-4.878-2.044-5.231.645-1.044-5.127-32.232-6.847-36.994-2.463-6.822-2.229-7.474 2.458-6.846 2.221.298 5.259 1.352 6.75 2.343 9.145 6.073 11.53 1.324 9.048-18.02-1.988-15.5-1.026-12.543-5.928-18.207-3.511-4.057-3.997-5.165-3.425-7.811 4.993-23.118 8.07-44.453 11.515-79.823 1.448-14.863.153-18.286-10.498-27.76-11.961-10.638-14.184-11.293-39.5-11.63-11.825-.157-22.861-.531-24.524-.831-1.663-.3-21.913-.756-45-1.014-46.713-.522-61.617-1.21-62.711-2.894-.404-.622-.741-4.647-.75-8.944l-.015-7.813 3.75 3.619c15.236 14.704 38.774 15.446 48.521 1.531 1.417-2.024 1.648-1.954 15.115 4.584l13.676 6.639 26.719.828c37.293 1.157 46.881 1.252 48.133.478 1.842-1.138 1.207-8.925-1.442-17.69-2.249-7.441-4.132-13.99-7.49-26.054-.861-3.096-2.515-4.727-10.254-10.116-15.605-10.865-43.587-23.969-50.527-23.662-.386.017-5.426 1.862-11.201 4.1m6.5 14.226c-3.85 1.82-9.128 4.117-11.73 5.104-4.209 1.598-5.591 3.539-2.519 3.539.623 0 4.102 1.764 7.732 3.921l6.6 3.92 19.233-1.278c10.578-.703 19.426-1.472 19.662-1.708.431-.43-13.535-8.981-22.96-14.058-6.432-3.464-7.592-3.424-16.018.56m-27.185 10.745c-3.006.87-3.153 1.132-2.609 4.66.317 2.056 1.125 4.863 1.795 6.238.67 1.375 1.528 3.791 1.907 5.368.379 1.577.946 2.612 1.259 2.298.313-.313 4.106 1.209 8.429 3.382 4.323 2.174 8.289 3.952 8.814 3.952 1.282 0 .708-4.782-.749-6.239-.639-.639-1.161-2.588-1.161-4.332 0-2.502-.737-3.673-3.493-5.55-1.921-1.308-3.496-2.743-3.5-3.188-.004-.445-.41-.56-.902-.256-.493.305-1.153-.119-1.469-.941-.315-.822-1.2-1.494-1.967-1.494-.893 0-1.295-.898-1.12-2.5.296-2.691-.255-2.839-5.234-1.398m75.185 18.663c-.55.404-1 3.996-1 7.983v7.247l5.734.003 5.734.002-1.409-3.25c-.774-1.787-1.95-5.388-2.613-8-1.202-4.733-3.496-6.152-6.446-3.985M103 108.928l-9.501.572-7.338 5.934c-6.799 5.499-7.293 6.155-6.734 8.95.332 1.659.967 3.264 1.411 3.566.444.303 1.098 1.337 1.454 2.3.925 2.508 3.281 2.169 8.045-1.157l4.163-2.907 23-.656c33.628-.96 41.425-1.866 44.304-5.144 2.594-2.954 2.703-8.185.196-9.428-5.528-2.742-32.027-3.653-59-2.03m36 22.122a48109.8 48109.8 0 01-34.5 1.892c-28.464 1.55-25.981.796-32.724 9.942-5.777 7.838-7.29 13.313-4.026 14.571.688.265 1.25 1.171 1.25 2.014 0 3.584 4.813 1.555 9.801-4.132l4.968-5.663 15.865-.781c8.726-.43 23.291-1.445 32.366-2.255 9.075-.811 19.195-1.538 22.489-1.617 7.974-.191 9.937-1.896 9.112-7.917-.332-2.421-1.108-5.01-1.725-5.753-1.207-1.455-1.915-1.464-22.876-.301m222 25.961c0 1.105.86 5.943 1.912 10.75 1.601 7.318 1.885 12.373 1.75 31.087l-.162 22.348 4.3 2.902c2.365 1.596 4.55 2.902 4.854 2.902 1.844 0-4.062-38.546-8.661-56.529-1.096-4.285-1.993-9.519-1.993-11.631s-.45-3.84-1-3.84-1 .905-1 2.011m18-1.798c0 .191 1.584 4.104 3.52 8.695 1.937 4.591 5.818 17.177 8.626 27.969 2.808 10.793 5.971 22.773 7.029 26.623 1.059 3.85 2.09 10.375 2.293 14.5.202 4.125.405 8.059.45 8.742.098 1.488 4.976 5.971 8.468 7.783 2.171 1.127 2.552 1.079 2.882-.364.286-1.244.865-.846 2.307 1.583 2.572 4.333 3.858 4.096 5.378-.994.698-2.338 2.059-5.825 3.023-7.75 1.755-3.503 2.444-8.088 3.606-24 .342-4.675.827-8.838 1.078-9.25.252-.412.126-1.288-.281-1.946-.406-.657-.696-4.545-.643-8.639.077-5.92-1.426-15.277-1.673-10.415-.113 2.239-1.817 1.316-2.308-1.25-.263-1.375-.064-2.5.443-2.5.506 0 .654-.43.329-.956s-1.257-.701-2.07-.389c-1.09.418-1.3.099-.798-1.208.447-1.164.302-1.541-.42-1.095-1.127.697-2.665-.979-2.713-2.955-.058-2.431-21.734-18.523-23.104-17.152-.247.246.667 3.409 2.029 7.029 3.24 8.609 6.833 22.981 9.929 39.726 1.373 7.425 3.193 16.425 4.044 20 1.969 8.275 1.988 11 .076 11-.825 0-1.5-.863-1.5-1.918s-.301-2.704-.67-3.664c-.457-1.191-.298-1.516.5-1.023.644.398 1.17.246 1.17-.336 0-.582-.675-1.059-1.5-1.059s-1.5-.873-1.5-1.941c0-2.481-1.974-3.782-2.076-1.368-.063 1.487-1.672-3.093-4.459-12.691-.24-.825-1.836-7.575-3.548-15-3.074-13.333-11.404-40.901-12.732-42.138-.815-.759-5.185-2.149-5.185-1.649M350.76 159c-.37 1.925-1.137 8.225-1.704 14-1.301 13.252-2.856 27.429-3.521 32.107-.488 3.431-.272 3.757 4.399 6.661 2.701 1.679 5.091 2.874 5.311 2.654 1.016-1.017-.44-36.677-1.774-43.422-.816-4.125-1.608-9.3-1.761-11.5l-.277-4-.673 3.5m21.24 5.489c0 .269.886 3.756 1.969 7.75 4.481 16.528 8.104 36.651 8.703 48.334l.619 12.073 4.104 2.644c2.532 1.63 4.252 2.215 4.488 1.526.64-1.861-1.841-14.718-4.884-25.316-1.58-5.5-4.064-14.898-5.52-20.885-3.088-12.698-9.479-30.311-9.479-26.126m-212.11 25.26c-29.313.325-26.032-.801-33.226 11.399l-4.51 7.648 2.173 1.978c3.269 2.975 16.554 12.226 17.557 12.226.916 0 20.933-21.922 22.383-24.513 1.243-2.22 5.476-1.872 6.233.513.349 1.1 1.407 2 2.352 2 1.947 0 4.187 3.549 6.109 9.676 1.654 5.271 1.139 6.538-4.164 10.257-4.846 3.397-14.594 12.801-18.28 17.634l-2.445 3.206 1.99 5.662c3.656 10.402 3.65 13.788-.028 16.883-3.838 3.229-6.767 3.369-12.227.584-7.051-3.598-12.077-5.084-12.867-3.805-.494.799-1.245.832-2.532.111-1.499-.838-2.258-.452-4.195 2.134-5.029 6.717-5.404 8.16-2.843 10.923 2.981 3.217 50.082 25.735 53.829 25.735.592 0 .763-1.906.427-4.75-.309-2.613-.838-9.207-1.177-14.654-.339-5.447-1.02-10.968-1.514-12.268-1.141-3 1.855-6.328 5.697-6.328 4.267 0 11.368 7.763 11.368 12.427 0 3.481 1.916 17.755 2.463 18.348.258.28 5.279-1.78 13.732-5.634 5.373-2.45 6.738-2.584 10.206-1.004C220.589 288.045 226.442 303 223 303c-.55 0-1 .599-1 1.331 0 1.748-3.147 3.205-10.5 4.861-4.374.986-5.904 1.752-5.645 2.83 1.587 6.603-1.454 10.442-7.602 9.599l-4.253-.583.009 6.731c.004 3.702.294 9.112.644 12.021l.635 5.291 30.771-.291c16.924-.159 31.092.03 31.484.422 1.364 1.36 1.291 11.311-.111 15.288-.776 2.2-1.922 8.05-2.546 13-1.632 12.939-2.294 13.777-27.453 34.782-8.496 7.094-13.813 12.5-17.503 17.798-.863 1.239-2.237 2.253-3.053 2.253-1.271 0-1.424 2.519-1.064 17.584.23 9.671.605 17.784.833 18.03.228.246 1.613-.751 3.077-2.215 2.359-2.36 2.678-3.491 2.805-9.947.131-6.699.559-8.086 5.33-17.245 6.042-11.599 7.954-13.879 14.387-17.153 2.61-1.329 4.635-2.972 4.5-3.651-.135-.68.542-1.173 1.505-1.097 2.003.159 2.379-1.262.5-1.89-.687-.229.454-1.225 2.536-2.214 2.082-.988 3.572-2.011 3.31-2.272-.812-.813 6.666-7.207 11.637-9.95 8.045-4.44 8.026-4.364 7.622-30.337-.195-12.527-.651-22.595-1.013-22.374-.361.221-1.711-.02-3-.537-2.077-.832-1.889-.954 1.658-1.081 2.2-.078 3.471-.358 2.825-.621-.875-.357-.814-1.342.241-3.868.815-1.95 1.026-3.629.497-3.956-.84-.519-2.088 1.953-2.677 5.303-.62 3.523-2.952 2.412-3.889-1.853-.407-1.854-1.291-2.995-2.326-3.004-1.149-.011-1.297-.254-.474-.777.79-.502.88-1.263.266-2.234-1.367-2.162-1.241-11.264.144-10.408.754.466.88-.033.393-1.566-.398-1.255-.265-2.527.301-2.877.559-.345 1.113-3.102 1.232-6.125.35-8.925.091-11.193-1.188-10.403-.682.422-.884.277-.493-.355.363-.588.256-1.22-.238-1.405-.832-.31-9.293-12.648-15.496-22.597-1.462-2.343-6.089-10.893-10.283-19-16.176-31.266-39.909-67.719-43.625-67.006-.665.128-12.735.361-26.82.517m-64.64 17.913c-2.141.864-1.436 3.227 4.694 15.722l5.944 12.116 7.306 2.713c9.372 3.481 15.649 5.061 17.411 4.385.767-.294 1.395-.099 1.395.433 0 .533.45.969 1 .969 1.469 0 1.217-4.679-.423-7.851-1.385-2.678-12.353-11.149-14.436-11.149-.573 0-1.401-.573-1.841-1.273-1.256-2-11.896-10.727-13.078-10.727-.585 0-1.36-1.35-1.722-3-.65-2.961-2.754-3.748-6.25-2.338m249.412 17.088c-1.567 2.578-1.746 16.113-.26 19.669.879 2.104 1.598 5.726 1.598 8.048 0 3.832 3.012 8.854 4.448 7.418.552-.551 3.555-24.742 3.544-28.548-.009-3.377-7.896-8.945-9.33-6.587m17.984 13.51c-.317 1.782-.883 9.336-1.256 16.787l-.68 13.547 4.895 3.637c2.823 2.098 5.272 3.267 5.787 2.762.49-.482 1.099-8.292 1.353-17.357l.462-16.48-3.853-2.398c-2.12-1.32-4.366-2.7-4.992-3.068-.719-.423-1.351.523-1.716 2.57m-278.377 3.582c-.328.912-1.654 4.091-2.947 7.064-2.218 5.102-2.254 5.511-.653 7.281 2.207 2.439 17.513 12.823 18.893 12.817 1.888-.007 7.529-8.916 7.854-12.403.046-.495.954-1.205 2.018-1.578 2.444-.857 1.719-1.251-7.224-3.925-5.606-1.676-7.494-2.715-8.171-4.495-1.262-3.319-8.941-7.061-9.77-4.761m298.137 6.543c-.32.832-.322 6.823-.005 13.314.317 6.49.556 14.538.531 17.882-.056 7.728.993 8.703 7.204 6.698 4.478-1.447 4.656-1.656 5.256-6.173.341-2.571.199-7.135-.314-10.141-.514-3.006-1.226-8.069-1.583-11.251-.677-6.046-.65-6.014-9.252-11.098-.739-.437-1.496-.12-1.837.769M308.041 266c-6.177 6.6-10.95 12-10.608 12 1.077 0 14.042-6.605 21.399-10.902 3.881-2.267 7.944-4.454 9.029-4.86 2.342-.877.785-3.356-4.076-6.488-3.936-2.537-3.529-2.802-15.744 10.25m29.459 6.418c-3.358 1.32-9.919 4.658-25.75 13.102-8.938 4.767-10.75 6.125-10.75 8.057 0 4.112 2.183 12.875 3.613 14.502.763.868 1.387 2.145 1.387 2.838 0 1.493 3.81.979 18-2.427 5.225-1.254 12.65-2.82 16.5-3.481 8.309-1.426 18.5-4.506 23.855-7.21l3.855-1.947-2.355-2.564c-3.732-4.064-24.1-22.301-24.759-22.169-.328.066-1.946.65-3.596 1.299M82.98 286.094c-1.533 7.226-1.682 7.06 8.493 9.451 3.865.908 9.346 2.484 12.181 3.503l5.153 1.852.668-7.2c.368-3.96.912-8.1 1.209-9.2.971-3.592-1.363-.237-2.783 4-1.12 3.343-1.4 3.62-1.699 1.686-.344-2.228-.451-2.253-2.85-.681-3.117 2.042-8.254 2.26-9.432.4-.489-.773-.906-.955-.927-.405-.056 1.499-3.945-3.779-3.971-5.39-.021-1.299-2.767-4.007-4.135-4.078-.338-.018-1.196 2.71-1.907 6.062M124 297.04c0 9.04-.36 11.745-1.986 14.932-2.657 5.209-2.586 5.189-11.084 3.07-8.261-2.059-8.383-2.045-7.454.883.556 1.752 1.474 2.075 5.891 2.075 2.878 0 5.673.44 6.211.978 1.81 1.81 47.271-13.026 48.169-15.719.16-.481-2.754-1.937-6.478-3.235-3.723-1.298-11.991-4.984-18.374-8.192-15.702-7.891-14.895-8.173-14.895 5.208m284-1.607c0 .788-.9 1.718-2 2.067-1.58.502-2 1.513-1.999 4.817.002 10.312 2.9 33.656 4.79 38.581.38.989.076 1.265-.958.868-3.289-1.262-4.1.629-2.851 6.649.648 3.121.888 7.394.533 9.495-.629 3.727-.547 3.86 3.377 5.43 2.213.885 5.955 2.48 8.315 3.543 7.146 3.217 9.616 3.27 10.181.219.772-4.165-.78-21.407-1.962-21.797-.733-.242-.847 1.319-.36 4.92.689 5.092-.567 10.514-2.316 9.997-.413-.122-1.65-.222-2.75-.222-1.223 0-2.016-.68-2.04-1.75-.028-1.224-.502-.897-1.578 1.089-1.292 2.383-1.967 2.731-4.208 2.168-3.736-.937-3.674-.771-3.674-9.838V343.5l2.77-.318c2.313-.266 2.996.221 4.147 2.96l1.379 3.278.71-6.628c.39-3.645.403-9.477.028-12.96-1.338-12.44-3.701-27.329-4.495-28.322-.445-.555-1.121-2.472-1.503-4.26-.682-3.19-3.536-4.657-3.536-1.817m-24.44 27.226c.727 11.178.898 14.98 1.281 28.43.14 4.917.46 5.727 2.659 6.729 2.956 1.347 2.928 1.451.908-3.383-2.468-5.909-1.16-14.435 2.215-14.435 3.497 0 5.42 5.002 4.957 12.894-.32 5.446-.155 6.106 1.531 6.106 1.039 0 1.889-.45 1.889-1s-.45-1-1-1c-1.25 0-1.354-15.701-.107-16.167.496-.185.283-3.226-.479-6.833-.755-3.575-1.382-8.176-1.393-10.224-.017-3.042-.526-3.986-2.773-5.148-1.514-.783-3.647-2.411-4.739-3.618-5.365-5.928-5.788-5.274-4.949 7.649m-25.731-3.154c-.278.277-4.966 2.194-10.417 4.26-5.452 2.065-12.038 5.227-14.636 7.025-2.598 1.799-7.661 4.588-11.25 6.198-3.758 1.686-6.526 3.553-6.526 4.402 0 .811-1.314 2.409-2.919 3.553l-2.92 2.078 2.313 7.24c3.863 12.093 7.436 20.101 10.053 22.527 1.368 1.268 3.589 4.482 4.937 7.141 1.354 2.673 4.37 6.306 6.743 8.124 2.361 1.809 6.093 4.941 8.293 6.96 4.374 4.013 12.539 8.987 14.754 8.987 2.537 0 5.681-4.492 9.839-14.059 5.286-12.163 5.957-20.001 2.948-34.441-1.146-5.5-2.752-14.5-3.569-20-2.417-16.281-4.89-22.749-7.643-19.995m-11.659 21.79c-.634.764-.857 1.685-.495 2.047.362.362-.076.658-.973.658-2.751 0-3.983 3.581-2.573 7.48.679 1.877 1.614 3.179 2.077 2.892.464-.286.763-.15.664.304-.356 1.638 3.23 8.425 4.763 9.013 2.493.957 3.405-1.722 2.788-8.189-.634-6.63-2.159-11.5-3.601-11.5-.516 0-.716-.359-.445-.798 1.026-1.661-.973-3.391-2.205-1.907M172 396.131c-2.979 2.46-14.891 12.922-16.423 14.425-.593.581-1.82 1.337-2.727 1.68-.908.344-3.091 3.469-4.851 6.944-1.76 3.476-3.571 6.775-4.024 7.331-1.471 1.807-.728 12.608.827 12.011.749-.287 1.662-.529 2.03-.537.367-.009.074-.392-.653-.853-.957-.607-.369-1.288 2.142-2.48 1.904-.903 3.732-2.348 4.063-3.211.331-.862.964-1.344 1.407-1.07.442.273 1.448.099 2.234-.386.937-.58 2.04-.331 3.202.721 1.133 1.025 1.773 1.176 1.773.418 0-.653-.648-1.435-1.44-1.739-1.486-.571-.278-5.043 1.755-6.497.471-.336.817-.899.77-1.25-.257-1.92.108-2.455 2.016-2.954 1.155-.302 1.823-.997 1.485-1.545-.338-.547.325-1.293 1.475-1.658 1.149-.365 1.838-.915 1.531-1.223-.308-.307.553-1.59 1.912-2.849 2.138-1.981 2.279-2.483 1.048-3.714-1.01-1.01-1.113-1.734-.354-2.493.588-.588 1.121-2.004 1.185-3.148.065-1.144.567-2.018 1.117-1.943 1.52.208 5 4.27 5 5.837 0 .762.527 1.561 1.171 1.776.765.255.971-.378.593-1.823-.377-1.441-.203-1.981.498-1.548 1.447.894 4.416-2.192 4.031-4.19-.169-.877-1.654-2.245-3.3-3.041-7.748-3.745-6.337-3.597-9.493-.991m-9.637 33.647c.264.428-.381 1.89-1.434 3.25-1.6 2.066-2.071 2.23-2.869.998-.64-.987-.56-1.724.243-2.234.844-.537.74-.766-.353-.777-2.073-.02-3.95 1.969-3.95 4.185 0 1.168-.745 1.8-2.122 1.8-1.702 0-1.893.276-.966 1.394.893 1.076.791 1.76-.449 3-.883.883-1.124 1.606-.534 1.606.589 0 1.071.505 1.071 1.122 0 .785-.377.81-1.25.086-.902-.747-2.003-.388-3.953 1.289-1.971 1.696-2.331 2.468-1.329 2.852.755.29 1.218 1.343 1.029 2.339-.189.997-.393 2.262-.452 2.812-.188 1.731-3.045-2.786-3.045-4.814 0-1.603-.255-1.719-1.5-.686-1.674 1.389-4.983-.409-3.92-2.13 1.078-1.744 1.449-5.87.528-5.87-2.322 0-6.112 6.275-6.237 10.327-.32 10.362-1.098 12.806-2.996 9.415-1.243-2.222-3.021-2.285-2.174-.078.43 1.119.256 1.427-.531.941-.702-.434-1.17-.1-1.17.836 0 .857-.787 1.573-1.75 1.591-1.589.029-1.573.166.177 1.489 1.836 1.389 1.777 1.488-1.25 2.094-4.468.893-4.029 1.614 3.019 4.951 3.407 1.614 8.822 4.622 12.033 6.684 3.211 2.063 6.206 3.75 6.655 3.75.449 0 2.68 1.35 4.957 3 4.287 3.106 5.235 3.528 5.051 2.25-.441-3.06 1.444-4.945 4.687-4.687 2.307.183 3.421-.16 3.421-1.052 0-2.291 4.205-9.322 9.701-16.218 4.902-6.151 5.299-7.049 5.299-11.971 0-6.456-.109-6.477-4.014-.801-1.711 2.486-3.5 4.279-3.976 3.985-.476-.294-1.154.371-1.505 1.479-.352 1.108-1.284 2.015-2.072 2.015s-1.433.527-1.433 1.171-.745 1.994-1.655 3C160.14 465.503 160.046 466 161 466c.918 0 .774.592-.481 1.979-1.764 1.949-1.82 1.919-3.759-2-1.083-2.188-2.403-3.979-2.933-3.979-.977 0 2.158-4.907 5.384-8.426.972-1.06 2.019-2.724 2.329-3.699.309-.975 1.439-2.051 2.511-2.391 1.072-.34 2.016-1.601 2.097-2.801.081-1.201.24-2.858.352-3.683l.352-2.597c.081-.603 1.048-2.135 2.148-3.403 2.124-2.449 2.47-3.633 1.25-4.28-.978-.519-5.397 1.8-4.72 2.477.285.285-.115 1.044-.889 1.686-1.096.909-1.534.837-1.981-.325-.315-.822-.142-1.76.384-2.085 1.296-.801 1.217-3.473-.103-3.473-.582 0-.843.35-.578.778m47.244 53.804c-.334.87-.607 4.049-.607 7.066 0 7.062-1.233 9.352-5.035 9.352-1.811 0-2.868-.477-2.715-1.226.432-2.117-4.009-2.108-4.681.009-.677 2.134 3.614 12.294 6.043 14.31 3.044 2.527 7.379 9.766 6.781 11.324-.358.933.046 1.814.998 2.179.878.338 1.306 1.086.949 1.663-.406.657-.16.748.66.241.815-.504 1.066-.416.666.232-.354.573.021 1.593.834 2.268.813.675 1.261 1.578.995 2.008-.559.905 6.116 6.47 7.843 6.537.639.025 1.038.621.887 1.325-.151.703.181.997.739.652.608-.376.78.094.43 1.176-.431 1.333-.334 1.455.373.468.93-1.299 1.916-.121 2.787 3.334.139.55.554 1.747.922 2.66.477 1.183.002 1.867-1.654 2.384-2.172.679-3.771 2.173-3.807 3.557-.008.33 1.56.108 3.485-.495 1.925-.602 3.5-1.47 3.5-1.927 0-.458 1.161.548 2.581 2.235 2.401 2.854 2.466 3.182.926 4.722-1.334 1.334-1.398 1.814-.331 2.477.743.462 1.47.398 1.657-.145.184-.532 1.984-.975 4-.983 5.151-.022 7.021-1.353 5.453-3.883-.952-1.536-.952-2.066 0-2.452 1.039-.421-1.991-.844-3.951-.551-.365.055-1.681-1.585-2.924-3.644-1.242-2.058-2.631-4.016-3.085-4.349-1.051-.771-3.049-3.954-4.304-6.856-.535-1.237-1.46-2.25-2.056-2.25-.596 0-.85-.378-.565-.84.286-.462-1.242-2.673-3.395-4.914-3.128-3.255-4.05-5.094-4.589-9.16-.371-2.797-.954-5.093-1.296-5.101-3.914-.097-7.546-14.354-6.684-26.235.586-8.079-.239-11.313-1.83-7.168m-93.323 22.549c-5.68 3.982-9.213 4.28-14.901 1.255-2.551-1.356-4.72-2.335-4.821-2.175-.101.159-.945 6.364-1.876 13.789-.931 7.425-1.953 14.453-2.271 15.618-.46 1.682-.061 2.217 1.939 2.599 2.208.422 2.624.038 3.368-3.111 1.725-7.295 9.278-4.791 9.278 3.076v4.843l5.362 2.372c8.424 3.725 9.93 7.225 5.315 12.353-2.51 2.788-4.815 2.861-7.198.226-2.166-2.392-3.439-1.149-3.464 3.381-.012 2.346.298 2.721 1.735 2.098 4.808-2.087 7.934-1.671 11.593 1.541l3.625 3.183 12.045-1.099c6.625-.605 12.894-1.629 13.931-2.277 1.555-.971 3.12-.609 8.928 2.069 3.874 1.785 7.962 3.219 9.086 3.187 1.123-.032 2.986-.084 4.139-.114 2.63-.069 11.461 5.906 19.057 12.893l5.803 5.337 5.271-1.803c3.296-1.127 7.801-1.752 12.021-1.667 5.831.118 6.95-.152 8.235-1.985 1.643-2.346 5.009-2.66 14.516-1.355l5.5.755-5.412-5.505c-2.976-3.028-7.701-7.026-10.5-8.884-19.933-13.237-25.132-16.978-30.217-21.744-4.346-4.074-4.567-4.537-4.033-8.436.549-4.005.344-4.373-7.01-12.588-4.167-4.655-8.247-9.476-9.067-10.713-.82-1.237-2.452-2.256-3.626-2.264-3.056-.019-6.682-1.101-6.216-1.855.381-.617-1.838-.768-14.927-1.018-3.305-.063-7.58-.581-9.5-1.152-1.921-.571-6.867-1.439-10.992-1.931-4.125-.491-8.175-1.109-9-1.374-.825-.265-3.397.849-5.716 2.475m8.883 22.535c-.531.948-.577 2.905-.107 4.544.454 1.583 1.137 7.114 1.517 12.29.49 6.68 1.266 10.357 2.673 12.671l1.983 3.26 2.44-2.837c2.633-3.061 2.652-5.379.164-20.09-1.634-9.663-5.997-14.614-8.67-9.838m28.083 10.996c-1.714.692-1.558 2.774.767 10.191 2.733 8.719 4.906 12.147 7.699 12.147 1.867 0 2.284-.543 2.284-2.977 0-3.626-4.452-15.76-6.689-18.231-1.692-1.87-2.008-1.958-4.061-1.13m19.171 2.795c-.428 1.709.287 4.072 2.346 7.75 1.63 2.911 3.807 7.707 4.837 10.658 1.963 5.621 5.521 9.408 7.96 8.472 2.525-.969 1.558-5.572-3.22-15.329-6.576-13.431-10.497-17.23-11.923-11.551m30.322 15.627c-2.262 1.317-1.405 2.992 6.478 12.666 5.883 7.22 7.056 7.994 9.636 6.36 1.855-1.176.869-3.775-3.813-10.051-2.911-3.901-9.744-10.435-10.488-10.029l-1.813 1.054m-67.85 20.636c-4.496.478-5.893 4.188-5.893 15.646 0 8.931-.867 8.561 13.5 5.754 11.07-2.163 14.149-5.252 12.988-13.029-1.435-9.611-2.992-10.244-20.595-8.371M116 580.5c-1.925.741-4.625 1.385-6 1.43-1.375.045-3.818.77-5.43 1.61-1.611.841-4.499 1.777-6.417 2.082-1.918.305-4.448.92-5.623 1.366-1.24.472-2.921.373-4.009-.236-2.507-1.403-6.906 3.66-5.486 6.313.498.932 1.446 4.962 2.106 8.957l1.199 7.264 11.08-.619c10.213-.57 11.252-.816 13.282-3.143 1.225-1.404 3.282-2.524 4.635-2.524 2.194 0 2.49-.515 3.015-5.25 1.275-11.496 1.863-18.746 1.514-18.674-.201.042-1.941.683-3.866 1.424m55.232 5.487c-1.247 2.184-2.437 5.733-2.645 7.888-.42 4.362 1.009 5.125 9.6 5.125h3.937l-.305-6.14c-.291-5.879-.464-6.242-4.042-8.5-4.586-2.896-3.859-3.077-6.545 1.627m60.802 11.763l.035 4.75 7.215 3.259c13.433 6.067 19.716 5.481 19.716-1.841 0-7.139-7.076-10.918-20.443-10.918H232l.034 4.75m-25.534-2.889c-6.771 1.442-7.008 2.027-3.931 9.732 3.476 8.706 4.313 9.336 10.82 8.157 6.372-1.155 6.216-.955 4.143-5.323-.951-2.004-2.025-5.733-2.388-8.286-.717-5.053-2.009-5.693-8.644-4.28" fill="#d3d3d3" fill-rule="evenodd"/></svg>