<svg xmlns="http://www.w3.org/2000/svg" width="500" height="462"><path d="M188.248 42.502c-1.238.888-2.678 1.35-3.2 1.028-.521-.322-1.438.331-2.038 1.451-.783 1.464-1.727 1.877-3.354 1.469-1.245-.313-4.715.336-7.71 1.442-2.995 1.106-7.774 2.266-10.619 2.578-2.845.312-6.768 1.234-8.718 2.049-4.542 1.898-4.421 1.924-4.793-1.05-.428-3.423-2.115-3.252-3.038.308-.755 2.914-5.392 5.223-10.49 5.223-2.445 0-7.654 2.531-9.305 4.521-.675.813-1.975 1.479-2.888 1.479-.912 0-3.988.604-6.835 1.342-2.846.739-5.538.98-5.982.536-.731-.731-11.663 4.118-13.573 6.02C94.59 72.009 96.092 119 97.243 119c.53 0 .648-1.683.274-3.897-.417-2.472-.249-4.151.46-4.589.716-.442.887-2.238.475-4.984-.791-5.277.849-6.741 2.539-2.267.673 1.78 2.292 5.308 3.598 7.839 1.306 2.531 2.101 4.874 1.768 5.208-.334.334-.751 2.763-.926 5.398l-.32 4.792 1.805-2.39 1.804-2.39 2.087 2.087c1.148 1.148 2.563 3.799 3.145 5.89.999 3.595 4.008 8.558 12.048 19.876 4.052 5.703 21.183 23.427 22.644 23.427 1.064 0 14.256 6.584 18.356 9.162 1.375.864 7.787 4.866 14.25 8.892 10.536 6.563 14.101 9.942 10.5 9.948-3.88.007-25.75 14.067-25.75 16.554 0 1.617-9.902 9.213-15.075 11.564-4.407 2.004-15.127 9.264-19.284 13.061-1.698 1.55-3.358 2.819-3.689 2.819-.332 0-3.024 2.985-5.984 6.632l-5.381 6.632.35 9.118c.193 5.015.398 10.318.457 11.785.164 4.122 1.606 4.63 1.606.565 0-1.981.538-4.869 1.195-6.417.658-1.548 1.229-3.265 1.27-3.815.075-1.023.846-1.5 2.424-1.5 3.309 0 1.128 17.048-2.943 23-2.33 3.408-5.093 11.454-6.008 17.5-1.677 11.075-4.918 17.739-9.17 18.85-2.805.734-1.654 3.087 1.702 3.48 3.269.384 6.119-.848 24.03-10.379 10.232-5.445 13.072-6.008 20.058-3.977l5.591 1.625-.698 6.701c-.384 3.685-1.093 7.458-1.575 8.384-.482.927-.876 3.199-.876 5.05s-.501 3.867-1.113 4.479c-4.127 4.127 6.181 4.431 10.983.324 1.853-1.585 4.007-2.638 4.787-2.338.78.299 2.188-.099 3.13-.885 5.965-4.975 21.448-10.441 23.29-8.221.642.774 1.836 1.407 2.652 1.407 2.571 0 9.539 6.132 8.336 7.335-1.172 1.172-1.458 6.939-.396 8.001 1.654 1.653 4.355-2.69 3.734-6.004-.491-2.613-.291-3.332.927-3.332 2.14 0 2.964 1.652 1.833 3.673-.653 1.168-.516 2.117.446 3.079 1.032 1.032 1.224 2.859.744 7.07l-.648 5.678 2.147-1.905L217 354.69l.009 4.905c.004 2.698.302 7.348.66 10.334l.652 5.429 1.347-4.429c.741-2.436 1.106-5.458.811-6.716-1.088-4.645 1.193-9.693 5.004-11.071 3.861-1.396 4.525-3.836 2.344-8.622-2.007-4.405.052-5.279 7.703-3.272 7.305 1.916 10.849 1.235 11.763-2.261.427-1.631 1.063-2.009 2.576-1.529 2.413.766 4.993-2.807 2.943-4.074-.657-.406-1.377-.19-1.6.481-.311.931-.737.944-1.809.054-1.995-1.655-1.736-2.919.597-2.919 1.1 0 2.029-.337 2.064-.75.926-10.884 3.391-13.822 9.328-11.117 2.029.924 2.794.824 4.163-.545 2.291-2.292 3.769-1.549 4.553 2.288.874 4.271 1.604 4.841 3.621 2.824 1.047-1.048 1.594-2.976 1.45-5.115-.127-1.889.23-3.72.795-4.069.564-.349 1.026.041 1.026.866 0 2.1 1.833 3.002 3.422 1.683 1.577-1.309 6.076.076 6.894 2.12.391.978.548.931.61-.185.046-.825 1.668-3.3 3.605-5.5 5.354-6.082 5.469-6.262 5.469-8.574 0-1.781.394-2.036 2.25-1.456 1.238.386 3.071.689 4.074.673 1.187-.02 2.49 1.435 3.728 4.164 1.232 2.713 1.923 3.487 1.958 2.193.029-1.1.714-2.874 1.522-3.941.807-1.068 1.468-3.007 1.468-4.309 0-1.349.437-2.098 1.016-1.74.559.346.789.996.511 1.446-.826 1.337 2.082 3.131 3.928 2.423 1.737-.667 1.719 2.124-.078 11.776-.272 1.46-.069 2.917.451 3.239 1.199.741 3.538-1.993 2.769-3.237-.795-1.286 2.777-2.087 4.645-1.041.84.469 3.897 1.039 6.794 1.265 6.08.475 7.873 2.328 6.075 6.275-1.647 3.615-1.428 18.528.307 20.901 2.007 2.745 2.557 1.673 3.164-6.165.294-3.79.989-8.709 1.547-10.931l1.013-4.039 5.954.216c5.482.198 6.087.002 7.627-2.462a244.315 244.315 0 011.909-3.027c.25-.372.671-.059 6.669 4.965 5.509 4.613 6.135 3.406 6.525-12.564.26-10.672.009-13.969-1.249-16.402-3.824-7.393-15.876-12.512-22.934-9.74-4.291 1.686-6.243.757-5.062-2.408.307-.825.828-2.85 1.158-4.5.978-4.906 5.261-6.892 5.261-2.441 0 2.416 1.171 2.498 2.616.185 4.226-6.768-4.888-27.241-17.787-39.952-10.326-10.175-16.844-13.424-27.481-13.7-7.831-.203-10.348-1.471-10.348-5.214 0-1.308-.398-2.378-.883-2.378-.486 0-1.155-.787-1.486-1.75-.332-.963-1.482-3.18-2.556-4.928-1.705-2.773-1.766-3.333-.482-4.4 1.606-1.332 16.359-7.922 17.736-7.922.943 0 4.585-4.092 4.638-5.21.018-.391 2.267-3.091 4.998-6 11.053-11.778 11.13-11.831 20.394-13.871 6.974-1.536 8.668-2.827 23.776-18.12 16.339-16.54 15.818-15.056 16.277-46.351.37-25.218.351-25.505-1.769-26.653-1.179-.638-3.331-1.075-4.783-.97-1.568.113-2.875-.422-3.219-1.317-.318-.83-1.267-1.508-2.11-1.508-.842 0-1.531-.45-1.531-1s-1.827-1-4.059-1c-2.451 0-3.814-.396-3.441-1 .34-.55 1.723-1 3.073-1 2.56 0 5.186-1.216 9.42-4.364l2.507-1.863-5.5.732c-3.025.403-7.075 1.344-9 2.091-7.012 2.72-15.058 4.332-17.296 3.466-1.212-.47-4.229-1.399-6.704-2.065-7.758-2.089-11.699-4.099-13.916-7.098-2.326-3.146-4.084-3.762-4.084-1.43 0 .894-.586 1.243-1.5.893-.825-.317-1.5-.126-1.5.424 0 1.874-3.276 2.274-5.101.623-2.337-2.115-.041-4.941 3.303-4.066 1.261.329 3.21-.212 4.775-1.327 1.455-1.036 3.968-2.205 5.584-2.599 4.52-1.1 6.977-2.996 4.912-3.789-.89-.342-2.456-.172-3.48.376s-2.649.996-3.612.996c-.962 0-3.579.853-5.815 1.896s-5.191 2.143-6.566 2.444c-1.375.301-5.425 1.288-9 2.194-4.343 1.099-7.994 1.413-11 .944-2.475-.386-5.588-.764-6.917-.84-1.329-.076-2.604-.7-2.833-1.388-.229-.687-1.922-1.25-3.762-1.25-3.499 0-6.488-2.118-6.488-4.597 0-1.248-.43-1.232-3.029.112-3.269 1.691-4.971 1.283-4.971-1.191 0-1.187-.654-1.406-2.75-.92-1.512.35-5 .835-7.75 1.078-2.75.242-6.572.908-8.493 1.479-4.342 1.291-5.29 1.306-4.525.068.33-.534-.656-1.246-2.191-1.582a78.61 78.61 0 01-5.569-1.487c-3.386-1.067-5.788-.295-5.052 1.623.299.779-.007 1.417-.68 1.417-.713 0-1.014-.799-.723-1.914.848-3.242-3.253-3.473-6.497-.365L213 51.374v-2.687c0-1.901-.516-2.687-1.764-2.687-.97 0-4.233-.964-7.25-2.142-7.455-2.91-12.914-3.38-15.738-1.356M308.007 317c-.134.825-.173 2.052-.087 2.726.086.674-.534 2.561-1.378 4.192-1.747 3.379-2.063 7.693-1.012 13.808.662 3.849.515 4.307-1.652 5.135-4.161 1.591-5.682 4.264-6.04 10.618-.288 5.088-.074 6.031 1.438 6.328 1.003.197 1.656-.174 1.5-.854-.657-2.862 2.108-1.717 3.638 1.508 3.061 6.45 5.586 4.221 5.586-4.932 0-4.44.286-5.284 1.75-5.168 1.968.156 1.981-4.464.025-9.27-.58-1.425-1.174-5.741-1.321-9.591-.268-7.054-1.995-17.285-2.447-14.5M44.504 345.007c.343.554 1.944 1.691 3.559 2.526 3.905 2.019 3.707 3.033-1.063 5.467-4.691 2.393-5.057 3.729-1.25 4.568 1.513.334 3.2.719 3.75.856.55.136 3.7-1.028 7-2.587 3.3-1.559 6.701-2.836 7.559-2.836.857-.001 2.376-.598 3.374-1.328 1.694-1.239 1.624-1.401-1.059-2.439-1.581-.612-4.893-1.422-7.361-1.801s-6.237-1.306-8.376-2.061c-4.597-1.622-6.998-1.765-6.133-.365m99.996 30.758c.55.404 1.492 1.635 2.093 2.735.6 1.1 2.994 2.915 5.318 4.033 4.003 1.925 4.13 2.117 2.408 3.619-1.001.873-2.381 1.383-3.068 1.134-1.42-.514-2.743 2.109-1.819 3.604.372.602 2.064.253 4.339-.895 2.051-1.035 5.874-2.785 8.495-3.889l4.766-2.008 4.879 2.451c2.684 1.348 5.392 2.451 6.019 2.451.627 0 2.211.702 3.52 1.559 1.309.858 5.23 1.771 8.715 2.029 4.561.339 6.779.997 7.922 2.351 1.062 1.258 2.052 1.593 2.992 1.012 2.097-1.296.462-2.371-9.079-5.971a4352.841 4352.841 0 01-13.84-5.246c-2.937-1.122-5.573-2.646-5.857-3.387-.284-.741-1.931-1.348-3.66-1.35-1.729-.001-7.338-1.126-12.465-2.5-9.316-2.495-13.578-3.127-11.678-1.732m62.887 20.669c-.373.972-.177 2.077.435 2.456.768.475.504 1.689-.855 3.923-1.082 1.779-1.966 3.337-1.964 3.461.002.124 7.44.288 16.53.365 17.681.148 19.114-.424 10.223-4.08a389.204 389.204 0 01-8.533-3.655c-2.352-1.047-6.199-1.904-8.55-1.904-2.35 0-4.798-.525-5.44-1.167-.89-.89-1.329-.747-1.846.601m51.376 23.632c-6.667 6.006-6.572 7.126.547 6.429 4.102-.402 18.481-1.041 32.651-1.453 3.89-.112-16.585-8.574-22.983-9.498-4.332-.625-4.665-.478-10.215 4.522" fill="#d3d3d3" fill-rule="evenodd"/></svg>