<svg xmlns="http://www.w3.org/2000/svg" width="500" height="423"><path d="M.008 178.813l.024 178.884 2.866.081c4.348.124 11.388 2.217 13.352 3.97 2.348 2.095 2.217 3.535-.25 2.752-1.426-.453-2-.18-2 .952 0 1.517-1.782 1.519-6.718.008-.67-.205-1.465.027-1.766.515-.302.487-1.666.684-3.032.436L0 365.961v17.446c0 15.775.168 17.49 1.75 17.904 1.667.435 1.667.463 0 .573-3.226.214-1.845 2.876 1.852 3.569 3.997.75 5.722.102 2.473-.929-2.526-.802-2.737-2.494-.325-2.603 1.045-.047 1.247-.282.5-.583-.688-.278-1.25-.972-1.25-1.544 0-.627.594-.546 1.5.206 1.129.937 1.5.95 1.5.055 0-.738.766-.947 2.016-.55 3.894 1.236 27.642 2.477 48.022 2.51 6.479.011 8.989.321 7.962.985-1.195.772-.991.987 1 1.055 2.268.078 2.314.16.5.881-1.1.438-2.15.406-2.333-.07-.184-.476-.998-.866-1.809-.866-.812 0-1.198.45-.858 1 .34.55-.069 1-.91 1-.947 0-1.308-.57-.952-1.5.473-1.233-.468-1.487-5.281-1.43-5.742.069-5.254 1.691.56 1.86 1.329.038 2.1.386 1.714.772-.386.386-2.373.628-4.416.538-3.003-.133-3.308.005-1.591.719 1.168.486 5.893.742 10.5.57 9.943-.373 9.729-.336 8.045-1.404-1.458-.923 4.298-2.287 11.331-2.684 2.2-.124 7.6-.458 12-.741 13.258-.855 20.761-.962 25.486-.361 3.201.407 4.06.28 3-.445-1.055-.721-.471-.797 2.014-.261 1.925.415 4.4.716 5.5.67 7.225-.305 21.489-.206 24 .166 10.091 1.497 11.5 1.568 11.5.581 0-.578.498-1.05 1.107-1.05s.862.638.563 1.417c-.299.78.103 1.666.893 1.969.79.303 1.437.112 1.437-.426 0-.545.883-.425 2 .272 1.599.999 2.401.999 4 0 1.602-1 2.003-.999 2.015.01.012.937.235.912.875-.099.6-.946 1.067-1.021 1.544-.25.376.609 2.007 1.107 3.625 1.107 1.618 0 2.941.45 2.941 1s.787.964 1.75.921c1.045-.047 1.247-.282.5-.583-1.741-.703-1.566-2.338.25-2.338.825 0 1.5.765 1.5 1.7 0 1.256.293 1.407 1.122.578 1.357-1.357 3.878-.563 3.878 1.222 0 .707-.712 1.559-1.582 1.893-2.438.936-5.418.719-5.418-.393 0-.55-.787-.993-1.75-.985-1.363.012-1.45.206-.393.875 2.177 1.38.126 1.9-7.357 1.867-4.774-.022-6.205-.274-4.5-.795l2.5-.763-2.75-.099c-1.911-.07-2.75.395-2.75 1.522 0 1.284-.295 1.378-1.411.452-1.029-.854-1.597-.869-2.1-.056-1.07 1.732.22 2.39 5.06 2.583 4.687.186 6.152 1.654 2.241 2.245-1.26.19-2.887.836-3.616 1.436-.973.799-1.541.743-2.129-.209-.442-.715-1.009-.911-1.26-.436-.251.475-.337.345-.19-.289.172-.743-.769-.988-2.655-.691-2.237.352-2.794.125-2.374-.969.535-1.395-2.322-3.266-3.376-2.212-.288.288-.012.524.612.524s.876.675.56 1.5c-.317.825-1.203 1.5-1.969 1.5s-1.393.727-1.393 1.617c0 1.124-.609 1.457-1.999 1.094-1.099-.288-2.251-.115-2.559.383-.633 1.023-4.442 1.252-4.442.266 0-.352.787-1.215 1.748-1.918 2.641-1.931.643-2.985-3.094-1.634-4.018 1.453-6.991 1.546-6.154.192.663-1.073.388-1.1-11-1.1-29.321 0-34.575.17-34 1.1.34.55-.084 1-.941 1s-1.559.34-1.559.755c0 .796-11.432.677-13.563-.141-.683-.262-1.534-.184-1.892.174-1.211 1.211-8.033.943-9.968-.392-1.74-1.2-1.764-1.387-.25-1.968.92-.353 2.276-.41 3.014-.128.737.283 1.962.131 2.722-.339 2.595-1.604-1.813-2.24-12.089-1.746-6.468.312-9.687.13-9.283-.523.349-.565.115-.69-.536-.287-.635.392-1.155.236-1.155-.346S50.45 412 51 412c3.086 0 .335-1.648-3.087-1.85-2.641-.156-3.859.129-3.441.804.355.575 1.423 1.046 2.373 1.046 1.06 0 1.726.772 1.726 2 0 2.359-1.383 2.655-2.219.474-.413-1.076-.946-1.226-1.811-.508-.674.559-1.521.721-1.883.359-.362-.362-.658-.081-.658.625 0 .791-.767 1.083-2 .76-1.1-.287-2-.115-2 .384 0 .498-.45.906-1 .906s-.887-.563-.75-1.25c.144-.722-.532-1.116-1.6-.933-1.111.19-1.587-.11-1.191-.75.363-.588-.067-1.067-.959-1.067-.89 0-1.341.449-1.002.997.408.659-.25.668-1.941.025-1.879-.715-2.561-.648-2.572.253-.011.868-.23.9-.75.11-.969-1.47-5.235-2.778-5.235-1.605 0 .503 1.012 1.403 2.25 2 1.708.823 1.843 1.101.559 1.152-.93.038-1.957-.362-2.282-.888-.325-.526-1.252-.703-2.059-.393-.857.328-1.468-.016-1.468-.827 0-1.66-3.674-1.682-6.51-.039-1.863 1.081-1.819 1.156.701 1.185 3.221.036 4.31 1.37 2.407 2.948-1.715 1.424-5.939 1.676-10.848.646-3.575-.75-3.75-.665-3.75 1.817v2.604l189.467.005c179.902.004 189.436-.084 188.831-1.743-.598-1.638-.511-1.636 1.399.037 1.744 1.528 3.66 1.743 13.376 1.5 11.141-.279 11.353-.328 12.034-2.784.587-2.116.727-2.193.912-.5.12 1.1.163 2.342.096 2.76-.067.418 21.142.643 47.132.5l47.253-.26.028-211c.015-116.05-.1-168.677-.255-116.949l-.283 94.051-3.366 1.217c-1.851.669-4.054.953-4.894.631-2.407-.924-2.852 1.015-1.161 5.06 2.131 5.1 1.349 6.49-3.649 6.49h-4.143l.701-3.75c.386-2.062 1.161-4.307 1.723-4.987.563-.681.738-1.98.39-2.886-.579-1.51-.8-1.498-2.612.142-1.088.985-1.979 2.31-1.979 2.945 0 .634-.635 2.023-1.412 3.085-1.333 1.823-1.505 1.698-3.078-2.232-.916-2.289-2.322-4.415-3.126-4.723-2.344-.899-2.781 2.199-.899 6.373 2.12 4.701 1.448 6.033-3.044 6.033-3.915 0-4.201-.937-1.941-6.346 3.214-7.693.263-9.462-3.357-2.012-2.108 4.34-2.343 4.517-3.601 2.722-.739-1.056-1.502-3.028-1.693-4.382-.206-1.45-1.128-2.61-2.244-2.823-1.968-.375-1.97 1.616-.008 10.091.623 2.695.543 2.75-3.98 2.75-5.167 0-5.207-.077-3.117-6 3.158-8.952-.077-10.623-3.605-1.863l-1.757 4.363-1.721-4.25c-1.152-2.846-2.331-4.25-3.569-4.25-2.318 0-2.385 2.493-.203 7.628 1.959 4.61 2.323 9.034.999 12.122-1.098 2.559 2.897 2.355-44.131 2.25l-26.988-.06-7.512-3.884-7.513-3.884.033-4.336c.018-2.385.384-7.486.814-11.336l.781-7-4.551-2.078c-3.646-1.665-6.338-2.048-13.541-1.926-7.146.121-8.774-.107-7.939-1.112.577-.696 1.691-1.019 2.476-.718.785.302 2.215.23 3.177-.159 1.534-.62 1.456-.821-.629-1.623-1.537-.591-2.83-.541-3.653.142-.913.759-1.42.692-1.792-.234-.329-.822-.547-.655-.597.458-.043.963-.545 1.75-1.114 1.75-.702 0-.691-.644.035-2 .633-1.183.681-2 .119-2-.524 0-1.215.563-1.536 1.25-.465.998-.701.997-1.168-.006-.322-.691-.997-1.002-1.5-.691-.503.311-.915.088-.915-.494s-.637-1.059-1.417-1.059c-.779 0-1.586-.51-1.794-1.133-.229-.686-1.247-.856-2.583-.432-2.447.776-3.039 5.14-1.171 8.631.636 1.187.664 1.934.074 1.934-.53 0-1.108.671-1.286 1.491-.241 1.111-4.003-.55-14.766-6.52-7.943-4.406-18.968-10.31-24.5-13.121-16.164-8.215-23.266-12.631-23.84-14.823-.292-1.116-.122-1.778.376-1.469.499.308.907.11.907-.44s-.45-1.278-1-1.618c-.55-.34-1-.194-1 .324 0 1.408-5.061 2.105-7.431 1.025-2.079-.948-3.247-5.849-1.394-5.849.53 0 .82-1.012.645-2.25-.248-1.745-.937-2.225-3.07-2.137-2.091.086-2.75-.351-2.75-1.822 0-1.393-.629-1.883-2.25-1.752-3.652.296-4.75.028-4.75-1.159 0-.752 1.993-.976 6.062-.682 5.242.379 6.203.175 7.103-1.507 1.477-2.759-.597-3.825-6.415-3.297-2.701.245-4.75.011-4.75-.541 0-.534-.403-.722-.895-.418-.493.305-1.165-.148-1.494-1.006-.435-1.134-.123-1.421 1.145-1.05 2.947.863 10.118 1.08 10.868.33.39-.39-.491-.709-1.957-.709-1.467 0-2.667-.45-2.667-1s1.35-1 3-1c3.173 0 3.429-.603 2.413-5.683-.576-2.883-.687-2.928-6.5-2.689-4.709.195-5.913-.062-5.913-1.263 0-1.205 1.223-1.457 6.11-1.257 4.761.194 6.31-.107 7.013-1.363 1.277-2.282-.621-3.154-6.219-2.857-2.585.137-4.998-.231-5.362-.819-.363-.588-.157-1.069.458-1.069s.859-.419.543-.931a1.086 1.086 0 01.336-1.494c.501-.31 1.126-.004 1.388.681.276.718 2.083 1.2 4.28 1.14 4.243-.116 4.838-1.464 3.812-8.646l-.535-3.75h-5.912c-8.259 0-7.418-1.764 1.035-2.168l6.946-.332 1.054 4.193c.579 2.306 1.053 5.295 1.053 6.643 0 2.026 1.601 3.664 3.582 3.664.853 0 .384-3.846-.508-4.167-.509-.183-1.221-1.683-1.581-3.333-.507-2.325-.407-2.663.448-1.5.82 1.116.949-.548.503-6.5-.397-5.306-.271-7.532.374-6.611.771 1.102 1.296.792 2.537-1.5l1.565-2.889.04 3.691c.04 3.721-1.358 5.892-2.296 3.565-.278-.691-.542.233-.585 2.053-.048 2.003.322 3.061.937 2.681.559-.346.758-1.047.441-1.559-.316-.512-.046-.931.601-.931.703 0 .97.903.664 2.25-1.702 7.5-1.873 9.227-.769 7.75.869-1.162.981-.687.499 2.11-.468 2.719-.247 3.755.897 4.194 1.328.509 1.474-1.391 1.161-15.111-.197-8.631-.392-15.838-.434-16.014-.35-1.482-3.092 3.311-3.146 5.5-.062 2.478-.175 2.578-.93.821-.473-1.1-.891-1.449-.93-.775-.051.891-.752.966-2.57.275-2.467-.938-2.5-.881-2.532 4.275-.026 4.286-.251 4.948-1.25 3.686-.929-1.174-2.166-1.365-5.218-.807-6.272 1.146-7.5.998-7.502-.904-.002-1.516.84-1.706 6.3-1.424l6.302.327.24-4.077c.133-2.242-.213-4.076-.768-4.076s-.75-.675-.434-1.5c.473-1.232-.513-1.5-5.531-1.5-4.852 0-6.107-.319-6.107-1.551 0-1.241 1.101-1.507 5.5-1.329 3.025.122 5.5.595 5.5 1.051 0 .456.45.829 1 .829s1-1.38 1-3.066v-3.066l-5.955.403c-4.191.284-6.1.029-6.441-.861-.267-.696-1.75-1.484-3.295-1.75s.004-.329 3.441-.139c5.63.31 6.25.153 6.25-1.588 0-1.491.702-1.933 3.07-1.933 2.611 0 3.021-.336 2.75-2.25-.256-1.798-.872-2.192-3.07-1.962-2.195.23-2.75-.124-2.75-1.75 0-1.671-.644-2.038-3.583-2.038-5.745 0-3.637-2.449 2.412-2.802 4.033-.236 5.171.023 5.171 1.176 0 .814-.787 1.685-1.75 1.937-1.126.294-.811.498.883.573 1.893.083 2.789-.477 3.185-1.991.823-3.148-1.01-7.225-2.919-6.492-3.968 1.522-8.972 1.582-10.826.13-2.511-1.968-1.582-2.761 3.387-2.891 2.538-.067 4.04-.577 4.04-1.373 0-.738 1.238-1.267 2.964-1.267 2.859 0 2.96-.159 2.873-4.5-.095-4.717-.39-5.081-2.837-3.5-1.248.806-1.164.984.5 1.055l2 .086-2 .859c-2.919 1.254-3.5 1.171-3.5-.5 0-1.048-1.056-1.5-3.5-1.5-2.525 0-3.5-.441-3.5-1.582 0-1.324 1.143-1.528 7.002-1.25 3.851.183 7.001.249 7 .147-.017-1.387-2.19-5.317-2.75-4.973-.414.255-3.177.77-6.142 1.146-4.756.602-5.315.488-4.756-.968.511-1.333.201-1.52-1.61-.973-1.75.529-1.988.408-1.081-.548.687-.724 2.837-1.066 5.25-.836 3.345.319 4.087.079 4.087-1.325 0-1.249.746-1.663 2.75-1.526 2.598.178 2.75-.047 2.75-4.061 0-2.835-.436-4.25-1.309-4.25-.72-.001-1 .499-.622 1.111.378.611.067 1.504-.691 1.984C236.738 10.452 236 10.171 236 8c0-1.619-.667-2-3.5-2-2.873 0-5.281-1.818-2.75-2.077.412-.042 1.432-.211 2.265-.377.834-.165 3.646.023 6.25.418 4.786.727 5.689.087 3.886-2.754-1.316-2.074-25.924-1.413-26.495.711-.348 1.296-.445 1.266-.54-.171-.131-1.97-3.107-2.445-3.131-.5-.011.847-.316.775-.946-.221-.512-.809-1.292-1.11-1.733-.668-.442.441-.016 1.378.946 2.081.961.703 1.741 1.904 1.733 2.668-.013 1.118-.221 1.097-1.066-.11-.797-1.139-.877-.899-.33 1 1.667 5.791 2.359 9.708 2.296 13-.053 2.758-.483 1.909-2.028-4a9593.511 9593.511 0 00-2.965-11.312c-.807-3.069-1.413-3.752-3.107-3.5-2.279.338-3.095 2.713-1.692 4.928.619.978.881.527.892-1.533.021-4.153.787-2.862 2.969 5.008 1.431 5.159 1.612 7.064.727 7.628-1.087.69-.227 1.183 1.569.899.412-.065.75.584.75 1.441 0 .926-.47 1.269-1.158.844-.811-.502-.965.003-.513 1.691.354 1.323.65 2.936.657 3.585.008.648.797 1.962 1.755 2.919 1.252 1.252 1.392 1.858.5 2.155-1.51.503-1.664 3.247-.182 3.247.585 0 .718.552.297 1.232-.419.678-.823 2.07-.898 3.092-.076 1.023-.772 2.311-1.548 2.862-1.117.795-1.047.886.34.44 2.462-.792 2.469 6.512.009 8.972-1.102 1.103-1.33 1.878-.62 2.115.732.244.992 2.708.75 7.08-.21 3.782-.01 6.141.458 5.41.658-1.03 1.108-.962 2.181.331 1.097 1.322 1.114 2.008.093 3.645-.693 1.108-.979 2.296-.636 2.639.343.343 1.042-.038 1.554-.847.78-1.234.933-1.189.946.279.008.963-.393 1.75-.891 1.75-.499 0-.719 1.013-.489 2.25.229 1.237.15 1.688-.177 1-.959-2.015-2.42-1.437-2.528 1-.061 1.354-.469.681-1.024-1.691-1.231-5.251-2.361-6.148-1.336-1.059.444 2.2.717 5.688.609 7.75-.215 4.094 1.432 5.058 2.715 1.59.725-1.961.862-1.996 1.485-.374.377.983.173 2.405-.454 3.161-.834 1.005-.839 1.373-.017 1.373.617 0 1.122.702 1.122 1.559 0 .922-.471 1.268-1.152.847-1.553-.96-.247 7.33 1.6 10.152.914 1.397 1.042 2.601.4 3.75-.599 1.07-.596 1.692.009 1.692.526 0 .713.93.415 2.066-.82 3.136-1.574 1.655-7.299-14.326-2.907-8.118-5.442-14.604-5.632-14.415-.19.19-.052 3.15.307 6.577.417 3.994.958 5.759 1.505 4.915.488-.753.585 1.252.227 4.683-.345 3.3-.538 7.125-.428 8.5.673 8.413.035 20.797-.952 18.5-.473-1.1-.891-1.452-.93-.781-.101 1.75-3.07.365-3.07-1.433 0-.922.578-1.278 1.5-.924 2.013.772 2.001-2.718-.017-4.736-1.309-1.31-1.508-7.143-1.449-42.572.038-22.58.3-41.054.583-41.054s1.385.466 2.449 1.035c1.333.714 1.934.714 1.934 0 0-.569-.45-1.035-1-1.035s-1-.62-1-1.378c0-.757-.688-1.948-1.529-2.646-1.218-1.011-1.495-3.429-1.361-11.873C198.34-.356 198.406 0 195.5 0c-2.341 0-2.504.334-2.563 5.25-.054 4.444-.213 4.876-1.038 2.811-.536-1.342-.697-3.705-.357-5.25L192.159 0h-13.021c-8.003 0-13.27.404-13.668 1.049-.443.717-1.038.725-1.882.024-.784-.65-11.966-1.002-30.661-.965-16.185.032-28.56.392-27.5.8 1.754.676 1.773.801.212 1.4-1.068.41-1.929.099-2.284-.825C103.042.667 101.683 0 100.334 0s-2.23.359-1.959.798c.271.439.08 1.451-.426 2.25-.721 1.14-.922.982-.934-.738L97 .119 70.612.033 44.225-.053l-.481 3.777c-.265 2.077-.559 10.508-.655 18.735-.096 8.228-.348 15.134-.561 15.347-.213.212-3.034-1.024-6.268-2.748l-5.882-3.135-5.123-15.712L20.132.5 10.058.215-.016-.07l.024 178.883M247.17 1.75c.081.962.039 2.875-.093 4.25-.238 2.485-.248 2.482-1.613-.5l-1.374-3-.045 2.75C244.02 6.763 244.45 8 245 8c.55 0 1 .675 1 1.5 0 1.801 1.973 2.04 2.063.25.035-.687.492-.18 1.015 1.127.523 1.308.869 4.008.768 6-.101 1.993.167 4.866.596 6.384.651 2.302.512 2.659-.831 2.143-1.192-.457-1.629-.005-1.681 1.739-.066 2.209-.124 2.232-.93.357-.735-1.71-.87-1.746-.93-.25-.038.962-.632 1.757-1.32 1.765-.862.011-.801.3.196.931.877.555 2.13.549 3.184-.016 2.37-1.268 2.654-1.195 3.181.82.566 2.167.64.913 1.008-17L252.602 0h-2.789c-2.046 0-2.75.467-2.643 1.75m52.278.812c.924 1.409 1.538 3.771 1.365 5.25-.298 2.557-.099 2.688 4.081 2.688 3.582 0 4.448.359 4.689 1.943.422 2.764-.527 3.849-2.172 2.483-1.014-.842-1.411-.855-1.411-.048 0 .745-3.11 1.14-9.25 1.177l-9.25.054-14.834 16.196c-8.158 8.907-15.275 16.996-15.816 17.974-.915 1.659-1.111 1.625-2.886-.5L252.06 47.5l.426 5.5c1.115 14.405.214 13.677 16.332 13.184 9.07-.277 10.166-.498 9.064-1.826-.905-1.091-.943-1.702-.137-2.2.613-.38 1.036-2.446.94-4.592-.107-2.363.315-4.066 1.069-4.317.817-.273 1.28.732 1.346 2.918.09 3.023.164 3.101.792.843.906-3.254 1.73-1.622 2 3.96.275 5.719 1.108 6.662 1.108 1.256 0-2.26.457-4.391 1.016-4.736.559-.346.71-1.124.336-1.729-.444-.719-.074-.868 1.066-.431.96.369 2.185.67 2.723.67.537 0 .694.457.349 1.016-.346.559-1.047.758-1.559.441-1.541-.952-1.047 3.202.537 4.516.807.671 1.37 1.738 1.25 2.373-.253 1.339 3.614.928 4.115-.438.543-1.478 2.167-1.035 2.167.592 0 1.831 9.94 2.16 11.713.387C310.965 62.635 312 65.188 312 73c0 8.221.462 9.169 4.75 9.759 2.541.35 2.947-.936.845-2.68-.773-.642-1.257-1.934-1.077-2.873.181-.938.363-2.044.405-2.456.043-.412.8-.75 1.684-.75 1.156 0 1.392-.491.839-1.75-.423-.963-.737-2.874-.698-4.247.039-1.373-.451-2.829-1.088-3.235-.688-.437-.201-.744 1.197-.753 1.695-.011 2.187-.436 1.75-1.515l-1.214-3c-.334-.825-.12-1.5.475-1.5.749 0 .782-.791.107-2.565-1.268-3.335-1.27-3.325.775-2.79 2.868.751 2.281-7.919-.754-11.15-2.217-2.359-2.237-2.495-.37-2.495 1.086 0 2.443.469 3.016 1.042.723.723 1.01-.489.939-3.956-.089-4.269-.606-5.516-3.539-8.542-3.835-3.957-3.736-4.15 1.086-2.135l3.372 1.409-.011-5.445-.011-5.445-8.649-7.964c-8.968-8.258-10.224-8.983-11.191-6.464-.748 1.949-3.638 1.949-3.638 0 0-.825-.727-1.5-1.615-1.5-1.47 0-1.464.23.063 2.562M.489 176.5c0 96.8.117 136.252.261 87.671.143-48.581.143-127.781 0-176C.606 39.952.489 79.7.489 176.5m255.56-148.542l.049 12.542 8.511-9c4.68-4.95 9.781-10.575 11.335-12.5l2.825-3.5-11.384-.042L256 15.417l.049 12.541m4.158 42.301c-5.157 1.652-3.884 4.252 2.057 4.199 35.397-.311 36.483-.381 37.009-2.393.302-1.154-.088-2.164-.965-2.5-2.576-.989-34.674-.404-38.101.694m-12.84 33.526c.355.574.232 1.195-.273 1.38-.506.184-1.055 4.026-1.221 8.537-.303 8.206.365 11.275 1.603 7.373 1.126-3.546 2.251-2.298 2.863 3.175.322 2.888.955 7.05 1.405 9.25 1.244 6.078 2.102 1.951 1.04-5-.505-3.3-1.07-8.925-1.257-12.5-.401-7.681-1.625-12.199-3.471-12.815-.743-.247-1.048.018-.689.6m9.995 1.715c.415 1.084-.11 1.5-1.893 1.5-2.214 0-2.469.414-2.469 4v4h12.84c7.062 0 20.337.296 29.5.657l16.66.657v-2.657c0-1.461-.436-2.657-.969-2.657-.532 0-.753-.562-.491-1.25.367-.961-2.897-1.28-14.126-1.381-11.421-.102-14.926-.453-16.082-1.608-1.304-1.305.195-1.492 12.737-1.596 7.819-.064 14.452-.352 14.74-.641.288-.288-11.074-.524-25.249-.524-22.499 0-25.701.191-25.198 1.5M322 130.73c-1.375.17-3.997.552-5.826.849l-3.325.54.43 7.462c.439 7.617 1.709 11.518 1.736 5.336.009-1.88.452-4.092.985-4.917 1.323-2.047 1.279-1.004-.5 12-1.953 14.275-1.924 16.228.235 15.813 1.089-.21 1.968-1.634 2.362-3.824.345-1.919 2.049-10.192 3.786-18.384 1.738-8.193 3.037-14.961 2.888-15.04-.149-.08-1.396-.005-2.771.165m22.718 51.564c-.536 1.395-2.665 1.69-13.875 1.927l-13.241.279 10.135 5.268c6.452 3.354 11.594 5.353 14.15 5.5 3.619.209 3.96.454 3.456 2.482-.328 1.317-.1 2.25.549 2.25 1.267 0 1.442-14.289.213-17.427-.666-1.7-.83-1.732-1.387-.279m101.391 61.787c-2.415.475-4.777.624-5.25.332-.472-.292-.859.036-.859.728 0 .979-.267.992-1.2.059-.66-.66-3.022-1.197-5.25-1.194l-4.05.006 3 1.574c23.729 12.446 28.5 14.514 28.5 12.355 0-.582-.394-.816-.875-.518-.481.297-1.424-1.589-2.096-4.191-2.843-11.025-2.748-10.952-11.92-9.151m18.696 1.448c-1.398 3.069 1.28 12.906 3.774 13.863 2.619 1.005 6.729-9.211 5.325-13.237-1.482-4.252-7.266-4.65-9.099-.626m18.23-.595c-1.441 2.693-1.21 5.86.785 10.771 1.975 4.861 2.986 4.62 6.062-1.448 1.989-3.923 2.041-4.506.686-7.75-1.697-4.06-5.749-4.906-7.533-1.573M350.5 291c-1.65.42-2.187.817-1.194.882 1.52.099 1.283.751-1.5 4.111-3.298 3.984-3.31 3.988-5.038 1.911-.953-1.145-2.287-1.898-2.964-1.672-.762.254-.146 1.336 1.616 2.839 5.23 4.464 5.695 5.085 4.701 6.285-.625.755-.297 1.947.966 3.505 1.303 1.608 1.913 1.886 1.913.872 0-1.841 2.939-4.527 3.125-2.855.285 2.561.404 2.984 1.001 3.582 1.314 1.314 1.474-2.127.277-5.96-.687-2.2-1.284-3.437-1.326-2.75-.042.688-.575 1.25-1.184 1.25s-.848-.675-.531-1.5c.35-.914.001-1.5-.893-1.5-.808 0-1.469-.675-1.469-1.5s.397-1.5.881-1.5c.485 0 2.083-1.575 3.551-3.5s2.309-3.447 1.869-3.382c-.441.065-2.151.462-3.801.882M98.836 338.878c.843.534-1.375 1.114-6 1.569-4.035.398-7.786 1.094-8.336 1.547-.55.453-4.6 1.115-9 1.471-4.4.356-10.275 1.085-13.056 1.622-2.781.536-6.381.894-8 .795-4.384-.268-14.111 2.901-14.111 4.597 0 .788.375 1.201.834.918.458-.283.833-.081.833.45s.893.732 1.985.447c1.092-.286 2.779-.181 3.75.232 2.585 1.101 5.265 1.262 5.265.317 0-.453.911-.044 2.023.909 1.113.953 1.563 1.886 1 2.074-1.918.639-1.03 1.989.966 1.467 1.094-.286 1.745-.914 1.448-1.395-.298-.481.27-.613 1.261-.293 1.249.403 1.035-.054-.698-1.49-1.375-1.139-1.937-2.131-1.25-2.204 1.829-.195 4.933-.163 7.5.078 2.19.205 2.183.232-.25 1.029-2.426.794-2.411.816.5.767 1.65-.029 3.9.288 5 .703 1.455.548 1.208.039-.906-1.867-1.598-1.442-2.498-2.657-2-2.702 4.35-.389 13.391-.046 14.346.544.681.421 1.795-.057 2.595-1.113.771-1.017 1.416-1.4 1.433-.85.018.55 1.719.963 3.782.917 2.062-.046 4.399.404 5.192 1 1.089.818 1.258.777.691-.167-.413-.687-.301-1.25.249-1.25 1.591 0 2.257 1.778.874 2.336-.786.316-.628.536.423.585.923.043 2.273-.5 3-1.207 1.616-1.574 5.548-1.931 7.827-.711 1.04.557 2.07.521 2.685-.094.549-.549 6.58-1.231 13.403-1.516 6.823-.286 15.556-.734 19.406-.997 4.965-.338 6.564-.179 5.5.548-1.244.85-1.257 1.028-.079 1.041.782.008 2.198-.687 3.146-1.546 2.085-1.886 16.684-2.46 17.773-.698.76 1.23 6.16 2.839 6.16 1.835 0-.352-1.012-1.083-2.25-1.623-1.667-.728-.629-.859 4-.506 3.438.263 6.25.141 6.25-.27 0-.412.787-.772 1.75-.801 3.764-.114 17.844-2.625 19.486-3.476.955-.495 3.13-.9 4.834-.9 1.925 0 2.949-.444 2.705-1.174-.264-.793-2.638-1.062-7.333-.829-7.717.382-18.229.381-44.942-.006-9.9-.143-21.6.085-26 .507-16.402 1.571-18.605 1.673-20.283.939-.944-.414-2.325-.651-3.067-.528-.743.124-1.054-.255-.691-.842.442-.717-1.577-1.062-6.15-1.052-4.11.01-6.279.351-5.473.863M205 360.71c-16.405 2.149-29.447 2.951-56.213 3.456-4.242.08-7.478.525-7.191.99.287.464.072.844-.478.844-.55 0-1.232-.376-1.517-.836-.543-.879-3.072-.826-5.601.118-2.722 1.016-10.975 1.486-10.423.593.817-1.321-2.002-1.05-3.377.325-.66.66-1.256.885-1.325.5a59.25 59.25 0 01-.295-1.95c-.094-.687-.825-1.074-1.625-.86-6.915 1.855-11.381 2.325-12.926 1.36-.944-.59-2.298-.702-3.028-.251-.726.449-1.877.602-2.559.34-.682-.261-1.537.005-1.9.593-.363.587-2.546 1.079-4.851 1.092-2.305.014-5.991.438-8.191.944-4.986 1.145-27.72 2.386-45.25 2.469-7.288.035-13.25.42-13.25.857 0 .436-.562.689-1.25.561-.687-.128-2.6.049-4.25.392s-5.137.906-7.75 1.25c-5.893.776-6.336 2.452-.5 1.89 2.338-.226 8.975-.631 14.75-.901s13.559-.862 17.298-1.315c3.739-.454 7.029-.452 7.311.005.282.456 1.355.378 2.386-.173 2.418-1.294 5.304-1.296 4.505-.003-.361.583.656 1 2.441 1 1.682 0 3.059-.361 3.059-.803 0-1.14 12.998-.686 16 .558 1.375.57 3.828 2.188 5.452 3.596 2.224 1.928 3.276 2.29 4.268 1.467.724-.601 2.283-1.143 3.465-1.205 1.182-.062 2.335-.671 2.563-1.354.297-.894-.519-1.08-2.918-.666-2.527.437-2.968.318-1.83-.493.825-.588 2.475-1.076 3.667-1.085 1.191-.008 2.346-.555 2.566-1.215.298-.893 7.457-1.213 27.979-1.25 24.285-.044 27.8-.249 29.433-1.717 1.735-1.559 7.659-2.136 6.746-.657-.23.372 1.276.454 3.346.182 2.07-.271 14.555-.576 27.746-.676l23.982-.182.674-4c.37-2.2.378-4.262.017-4.583-.361-.32-5.381.036-11.156.793" fill="#d3d3d3" fill-rule="evenodd"/></svg>