<svg xmlns="http://www.w3.org/2000/svg" width="500" height="683"><path d="M281.266 153.75c-.598 3.162-1.595 7.065-2.217 8.672l-1.13 2.923-4.71-4.521c-2.59-2.487-6.817-5.995-9.394-7.796-5.096-3.561-5.145-3.562-16.815-.513-3.575.935-7.4 1.861-8.5 2.058-3.229.579-15.761 4.993-19.145 6.743-4.332 2.241-7.799 6.651-12.648 16.092-4.608 8.971-5.236 16.238-2.655 30.704.626 3.513 1.375 8.976 1.664 12.138.519 5.687.495 5.75-2.128 5.75-9.958 0-14.278-6.33-17.88-26.2l-1.215-6.7-6.801 4.2-6.801 4.2.564 5.5c2.645 25.808 3.726 29.33 9.8 31.943 2.335 1.005 7.959 2.41 12.499 3.123l8.255 1.296-2.255 2.446c-2.351 2.553-16.867 14.18-28.177 22.571-7.551 5.602-7.542 5.567-5.065 19.728 1.634 9.341 7.006 28.382 14.147 50.143.354 1.08.051 1.777-.792 1.82-.815.042-.64.357.432.781 1.019.402 3.746 5.033 6.288 10.679 5.983 13.287 5.741 13.089 14.139 11.588 10.014-1.789 9.693-1.174 6.882-13.191-3.386-14.483-3.896-17.927-2.653-17.927.575 0 1.045-.477 1.045-1.059s-.419-.8-.931-.484c-.512.317-1.224.102-1.582-.478-1.093-1.769-3.466-17.927-4.108-27.979l-.606-9.5 5.466-5.106c7.572-7.073 14.095-10.299 16.495-8.156 7.776 6.944 30.865 18.441 46.072 22.941l11.225 3.321-.592 3c-1.477 7.497-9.996 22.683-17.191 30.647l-3.366 3.726-8.191-4.07c-4.505-2.239-8.342-4.463-8.526-4.943-.185-.48-.691-.653-1.124-.385-.434.268-3.596-.653-7.028-2.048-3.431-1.394-6.378-2.396-6.548-2.226-.17.17-.499 3.366-.731 7.103-.379 6.11-.211 6.903 1.672 7.882 1.152.599 5.81 3.546 10.351 6.549l8.257 5.459-2.914 3.653c-1.603 2.009-4.334 5.002-6.07 6.65-6.167 5.858-7.328 10.125-7.802 28.682l-.427 16.679 6.35 1.936c9.313 2.839 16.878 4.51 17.519 3.87.309-.309.059-2.002-.554-3.762-2.81-8.061-.954-20.584 4.363-29.427 5.37-8.933 8.521-12.27 8.521-9.025 0 .798.741 1.865 1.646 2.372 4.52 2.529 8.185 26.846 5.86 38.885-.717 3.715-.753 3.742-1.771 1.293-.911-2.19-1.095-2.267-1.486-.62-.245 1.034.109 2.223.788 2.643 1.645 1.016-.289 1.993-11.537 5.827-10.779 3.674-11.692 3.786-22.285 2.72-8.252-.831-8.301-.853-12.241-5.452-5.348-6.243-17.225-28.751-17.308-32.801-.036-1.751-.518-3.101-1.07-3-.552.1-1.683-1.722-2.513-4.05-1.454-4.077-1.768-4.307-8.546-6.275-3.87-1.123-9.263-2.693-11.983-3.488-2.72-.795-5.099-1.292-5.286-1.105-.553.553 5.385 23.366 8.569 32.921 1.616 4.852 2.698 9.802 2.403 11-.294 1.199-.177 1.85.262 1.447.438-.403 3.127 4.097 5.975 10 4.828 10.009 5.511 10.914 10.124 13.423 14.529 7.898 44.709 15.825 61.476 16.146 9.85.188 10.419-.116 23.542-12.58 6.046-5.742 8-8.511 12.96-18.37 8.505-16.904 8.554-19.948.574-35.886-3.304-6.6-7.81-14.228-10.014-16.952-2.204-2.724-3.784-5.314-3.511-5.756.274-.442-2.561-3.715-6.298-7.273l-6.795-6.469 4.482-4.604c2.466-2.531 8.235-7.137 12.821-10.234l8.337-5.631 1.663 2.123c.914 1.168 4.979 6.122 9.033 11.01 7.004 8.445 14.036 18.837 21.33 31.524 1.814 3.156 3.749 5.724 4.299 5.708 1.477-.046 8.5-9.487 8.5-11.427 0-2.643-11.146-24.886-19.052-38.019-14.062-23.359-17.114-28.945-16.013-29.312 4.873-1.624 14.579-19.052 17.162-30.817 1.433-6.523 1.728-25.739.533-34.621l-.774-5.75H306.75l.694 3.25c4.471 20.954 2.98 29.867-6.008 35.903-7.637 5.129-8.132 4.958-15.436-5.313-3.575-5.027-8.521-11.885-10.992-15.24-2.471-3.355-6.395-8.96-8.721-12.454l-4.229-6.355 2.61-3.423c1.436-1.882 4.287-6.608 6.336-10.502l3.726-7.08 1.113 3.194 1.114 3.195 7.771-.709c9.547-.871 9.254-.694 8.614-5.234-.9-6.379-4.208-23.72-4.839-25.364-.33-.86.5-4.486 1.844-8.058 3.109-8.259 6.952-23.517 6.221-24.699-.639-1.035-12.047-7.111-13.351-7.111-.475 0-1.353 2.588-1.951 5.75m-26.346-1.407c-1.331.677-3.466 1.302-4.745 1.388-1.279.086-5.104 1.035-8.5 2.11s-8.425 2.524-11.175 3.219c-2.75.696-6.194 2.092-7.654 3.102-1.46 1.011-3.342 1.838-4.183 1.838-1.425 0-2.927 2.706-2.579 4.646.353 1.968-.176 2.758-.988 1.476-1.194-1.886-3.114-.494-3.017 2.187.043 1.205.305 1.633.58.95.577-1.427 3.341.782 3.341 2.67 0 .589.477 1.071 1.059 1.071s.781.45.441 1 .011 1 .78 1c.77 0 1.905-1.111 2.524-2.47 1.179-2.588 12.741-8.695 18.935-10.001 1.781-.376 3.478-1.071 3.771-1.546.294-.474 2.042-.233 3.885.538 1.843.77 3.633 1.118 3.978.773.345-.345.627.037.627.848 0 .812 1.912 3.641 4.25 6.286 2.337 2.645 4.306 5.206 4.375 5.69.069.485.181 1.3.25 1.811.069.51.69 1.523 1.381 2.25 2.298 2.418 15.665 29.565 14.949 30.36-.388.43-.193.489.432.132.675-.385 1.081.048 1 1.066-.084 1.051.54 1.676 1.613 1.614.962-.056 2.843-.157 4.179-.226 1.335-.069 3.135-.832 4-1.696.864-.865 1.571-1.09 1.571-.5 0 .589.383 1.071.851 1.071.468 0 .465-2.363-.006-5.25-.471-2.887-.952-6.262-1.069-7.5-.117-1.238-.564-2.25-.994-2.25-.43 0-.782-1.575-.782-3.5s-.436-3.5-.969-3.5c-.532 0-.698-.705-.367-1.567.756-1.971-1.556-6.433-3.333-6.433-1.783 0-1.706-1.768.094-2.177 1.601-.363.458-3.486-3.412-9.323-1.094-1.65-2.332-3.715-2.751-4.588-1.28-2.669-5.507-7.202-10.762-11.543-7.039-5.814-8.655-6.515-11.58-5.026m-16.907 16.898c-4.728 1.023-13.961 6.845-15.979 10.077-1.744 2.792-1.883 8.891-.461 20.182 1.862 14.781 3.415 24.822 3.919 25.325.646.646 17.73-1.658 21.162-2.854 3.166-1.104 10.985-11.865 16.202-22.3l2.915-5.829-2.339-4.171c-1.287-2.294-4.948-7.996-8.136-12.671-6.429-9.429-7.449-9.887-17.283-7.759m-3.604 71.11l-6.091 1.149 2.391 7.358c3.024 9.307 5.119 12.11 13.791 18.453 6.757 4.942 23.357 14.165 24.121 13.401.649-.649-13.473-26.908-18.4-34.212-5.291-7.846-5.788-8.039-15.812-6.149m-9.876 5.596c-.358.579-.313 1.053.099 1.053.413 0-.079.607-1.094 1.348-1.014.742-1.523 1.867-1.132 2.5.392.634.214 1.152-.395 1.152-1.985 0-5.951 5.165-6.593 8.586-.345 1.839-1.255 3.864-2.023 4.501-.767.637-1.395 1.967-1.395 2.956 0 1.202-1.039 2.026-3.133 2.486-2.299.505-2.765.92-1.75 1.559 1.037.653.57 1.181-1.867 2.111-3.176 1.211-4.484 3.738-2 3.864.688.035.238.471-1 .968-1.238.498-2.25 1.757-2.25 2.798 0 2.35 3.853 1.889 6.747-.808 1.049-.977 2.885-2.087 4.08-2.466 1.195-.379 2.173-1.037 2.173-1.462 0-.425 1.152-1.297 2.559-1.938 2.224-1.013 3.005-.826 5.957 1.425 1.869 1.425 3.836 2.321 4.372 1.989.535-.331 1.275-.114 1.644.483.369.596 1.35.824 2.18.505 1.051-.403 1.334-.12.931.932-.319.831-.144 1.511.388 1.511.533 0 .969-.723.969-1.607 0-1.055.544-1.398 1.584-.999 1.014.389 1.418.158 1.125-.643-.253-.688-.965-1.139-1.584-1.001-.619.137-1.125-.452-1.125-1.309s.45-1.281 1-.941c.55.34 1-.11 1-1s.45-1.34 1-1c.55.34 1 .141 1-.441s-.45-1.059-1-1.059-1-1.083-1-2.406c0-1.968.41-2.321 2.25-1.938 2.133.445 2.12.39-.25-1.058-1.375-.84-1.945-1.543-1.268-1.563 1.495-.043-5.113-7.035-6.649-7.035-.595 0-1.083-.436-1.083-.969 0-.532.563-.831 1.25-.664.688.168.894.11.458-.128-.435-.238-.323-.998.249-1.688.729-.877.642-2.407-.289-5.096-1.373-3.966-3-5.346-4.135-3.508m11.846 26.327c.135 1.271.473 2.742.749 3.268.277.527.439 2.983.359 5.458-.129 4.032.197 4.734 3.132 6.75 1.801 1.238 3.749 2.25 4.328 2.25.579 0 1.053.419 1.053.931 0 1.066 13.569 8.069 15.634 8.069.751 0 1.366-.403 1.366-.896 0-1.164-10.443-11.222-13.3-12.81-1.21-.673-1.777-1.239-1.26-1.259 1.286-.048-4.512-5.529-6.699-6.333-.968-.355-1.702-.996-1.632-1.424.329-2.004-.203-3.338-1.109-2.778-.55.34-1-.057-1-.882s-.42-1.76-.934-2.077c-.513-.317-.823.463-.687 1.733m-44.624 38.164c-.948.693-1.431 1.553-1.073 1.911.358.358.216.651-.315.651-.532 0-1.507-.54-2.167-1.2-.933-.933-1.2-.841-1.2.417 0 .889.406 1.766.901 1.95.496.183.271.913-.5 1.622-1.152 1.061-1.401 1.022-1.401-.218 0-.943-.574-1.288-1.529-.921-1.322.507-1.288.77.25 1.936 1.167.886 1.329 1.361.47 1.382-.72.018-1.055.444-.744.947.311.503.225 1.104-.191 1.336-.416.232-.244.304.381.16.669-.154.969.633.729 1.914-.387 2.069-.361 2.077.543.175.588-1.237.977-1.458 1.021-.579.038.782.766 2.191 1.617 3.131 1.285 1.42 1.323 1.943.227 3.079-1.442 1.493-1.504 2.455-.331 5.119.424.962.512 2.425.195 3.25-.515 1.342.476 1.956 2.612 1.618.412-.065.786.67.829 1.632.047 1.045.282 1.247.583.5.278-.687.903-1.25 1.39-1.25.487 0 .626.675.31 1.5-.395 1.028.059 1.5 1.443 1.5 2.221 0 2.359 1.893.315 4.355-.711.857-1.053 1.945-.76 2.419.293.474-.271 1.441-1.255 2.15-1.84 1.326-1.785 6.076.071 6.076.518 0 .637-.493.265-1.095-.75-1.214 1.417-5.905 2.728-5.905.457 0 .831.691.831 1.535 0 1.23.401 1.321 2.019.455 1.837-.983 1.999-.805 1.788 1.964-.185 2.423-.598 2.93-2.02 2.478-.983-.312-1.787-.086-1.787.501s-.648 1.067-1.441 1.067-1.711.437-2.041.971c-.35.567.875.916 2.941.838 1.947-.073 3.541-.51 3.541-.971 0-.461.539-.726 1.198-.588 1.828.382 1.508-8.799-.383-10.968-.855-.98-1.35-2.344-1.101-3.032.249-.687-.09-1.25-.753-1.25-.895 0-.919-.346-.092-1.342.612-.738.78-1.71.372-2.16-.407-.45-.253-.541.342-.202.596.339 1.084-.02 1.084-.797s-.6-1.643-1.334-1.925c-.733-.281-1.333-1.002-1.333-1.602 0-.599.423-.829.939-.509.517.319.871-.329.788-1.441-.084-1.112-.619-2.029-1.19-2.037-.57-.009-.426-.402.32-.875.946-.6 1.021-1.067.25-1.544-.609-.376-1.11-.32-1.114.125-.003.445-.907-.541-2.007-2.191-1.392-2.088-1.814-3.874-1.386-5.875.386-1.807.242-2.645-.388-2.256-.551.341-1.26-.053-1.576-.875-.315-.822-.111-1.494.454-1.494.566 0 .707-.52.315-1.155-.443-.715-.275-.883.44-.44.685.422 1.155.078 1.155-.846 0-.857-.477-1.559-1.059-1.559s-.8-.419-.484-.931c.958-1.55-.864-1.976-2.702-.631m36 27.062c.263 1.375 1.101 2.5 1.862 2.5 1.249 0 1.533.585 1.309 2.7-.041.386.888 1.057 2.064 1.492 1.176.435 1.89 1.193 1.587 1.683-.303.491.905 1.469 2.686 2.174 1.78.704 3.985 1.915 4.899 2.691.915.776 2.49 1.549 3.5 1.718 1.011.169 1.706.868 1.545 1.553-.191.816.438 1.054 1.829.69 1.456-.381 1.969-.157 1.636.711-.267.697.71 1.974 2.171 2.839 4.268 2.526 7.157 5.365 7.157 7.033 0 .852.403 1.699.896 1.883 3.809 1.417 12.522 19.962 13.782 29.333.296 2.2.995 4.563 1.553 5.25.692.853.674 1.25-.057 1.25-1.736 0-.546 7.255 1.427 8.698 2.158 1.577 3.399 1.666 3.399.243 0-.582.52-.738 1.155-.346.776.48.887.254.339-.69-.448-.773-.46-1.085-.028-.695 1.282 1.156 5.589-1.643 12.941-8.411l6.907-6.359-3.507-7.47c-3.738-7.96-6.645-11.76-16.503-21.575-3.408-3.393-5.883-6.517-5.5-6.942.383-.426.122-.443-.579-.039-.767.442-1.165.249-1-.486.348-1.544-9.133-8.916-11.475-8.923-.962-.003-1.75-.383-1.75-.845 0-.462-1.8-1.434-4-2.16-2.2-.726-4-1.728-4-2.227 0-.499-.911-.619-2.025-.265-1.318.418-1.929.224-1.75-.558.151-.66-.287-1.406-.975-1.658-.687-.252-1.25.061-1.25.696 0 .793-.435.741-1.388-.167-3.52-3.349-5.346-4.336-8.388-4.533-1.802-.116-4.265-.904-5.473-1.75-3.44-2.409-5.562-2-4.996.962" fill="#d3d3d3" fill-rule="evenodd"/></svg>