<svg xmlns="http://www.w3.org/2000/svg" width="500" height="333"><path d="M.001 125.25V250.5l2.5.144c1.374.08 2.499-.205 2.499-.633 0-1.732 9.977-3.261 12.223-1.873.666.411 1.788.268 2.493-.318.857-.71 1.284-.722 1.284-.036 0 .566.9.793 2 .506 1.1-.288 2-.825 2-1.194 0-1.127 4.325-1.071 5.704.073.733.609 1.296.663 1.296.124 0-.523 2.588-.948 5.75-.944 11.511.013 16.356-.368 15.815-1.244-.305-.493.104-1.148.909-1.457.804-.308 1.678-.212 1.941.215.264.426 2.64.898 5.282 1.049 2.642.151 5.928.396 7.303.545 1.375.148 3.066-.177 3.758-.723.693-.546 2.893-.728 4.891-.404 1.998.325 4.491.13 5.541-.431 1.332-.714 3.01-.658 5.561.184 2.901.957 3.739.946 4.072-.052.332-.995.587-.986 1.222.042.649 1.05 1.094 1.056 2.331.03.84-.697 2.438-.979 3.551-.626 3.541 1.124 11.024 1.412 11.62.447.335-.542 1.279-.568 2.264-.064.929.476 2.814.739 4.189.584 2.52-.283 6.81-.441 10.5-.387 1.1.016 4.25-.117 7-.296s5.504.033 6.119.471c1.201.854 4.926.557 5.958-.476.346-.345 1.707-.218 3.026.283 1.478.562 3.38.538 4.962-.064 4.139-1.573 9.208-1.194 10.355.775.566.971 1.033 1.194 1.05.5.016-.687.705-1.25 1.53-1.25.825 0 1.507.563 1.515 1.25.011.833.339.75.985-.25.533-.825.976-1.035.985-.467.02 1.375 3.942 1.131 6.829-.425 1.795-.967 2.636-.979 3.75-.055 1.159.962 1.436.84 1.436-.631 0-1.346.293-1.529 1.122-.7.617.617 1.742.884 2.5.593 1.13-.434 1.378 1.994 1.378 13.511 0 13.161-.125 14.079-2 14.674-1.1.349-2 1.081-2 1.626 0 .546-.403.743-.895.439-.742-.459-2.123 1.413-2.534 3.435-.056.275-.488 1.11-.961 1.857-1.099 1.734 3.542 6.209 6.665 6.425 1.224.085 2.999 1.123 3.946 2.306 1.564 1.957 3.019 2.214 16 2.824 7.853.369 29.354 1.533 47.779 2.586 77.406 4.426 80.309 4.491 110 2.477 3.575-.242 13.7-.923 22.5-1.513 8.8-.59 18.25-1.291 21-1.558 8.817-.856 18.762-1.525 28-1.882 11.364-.439 23.257-1.439 26.5-2.227 4.377-1.064 5.39-1.197 10.798-1.422 2.914-.12 5.547-.623 5.853-1.117.305-.493 2.336-.596 4.514-.228 3.043.514 4.409.263 5.897-1.085 1.066-.964 1.938-1.334 1.938-.822 0 .513 1.729.767 3.842.565l3.842-.366.658-25.572c.362-14.065.658-77.924.658-141.91V0H0l.001 125.25m.484.75c0 69.025.119 97.262.265 62.75.146-34.513.146-90.988 0-125.5C.604 28.737.485 56.975.485 126m155.707-60.731c-1.661 2.001-1.123 6.714.776 6.801 1.078.05.939.34-.468.979-2.01.912 3.768.642 9.5-.444 6.72-1.274 11.128-1.026 9 .505-1.266.91-1.227.991.25.516.963-.31 1.75-.101 1.75.464 0 .566.457.745 1.016.4.559-.346.719-1.109.356-1.698-.451-.728.5-.851 2.983-.385 2.482.466 3.645.316 3.645-.47 0-.698.891-.93 2.258-.587 1.242.312 2.93.142 3.75-.376 1.087-.687 1.136-.948.183-.959-.72-.008-1.001-.513-.625-1.122.477-.771.883-.785 1.34-.045.731 1.182 5.094 1.157 5.094-.029 0-.416.563-.57 1.25-.343 3.841 1.268 8.75 1.225 8.75-.077 0-1.65 9.047-1.584 10.235.075.482.674.74.633.75-.12.009-.698 1.547-1.068 3.939-.945 2.158.11 6.095-.07 8.75-.4 2.654-.33-10.924-.935-30.174-1.346-19.25-.41-36.826-.99-39.057-1.289-2.846-.381-4.414-.114-5.251.895" fill="#d3d3d3" fill-rule="evenodd"/></svg>