<svg xmlns="http://www.w3.org/2000/svg" width="500" height="667"><path d="M33 2.29c0 1.259.635 4.747 1.411 7.75.777 3.003 1.726 7.71 2.11 10.46 1.676 12.008 5.498 35.744 7.114 44.185 1.452 7.585 2.115 9.286 3.811 9.766 1.992.564 1.998.625.183 2.014-1.452 1.112-1.696 2.06-1.087 4.234.431 1.541.691 3.364.577 4.051-.114.688.151 1.251.587 1.252.437.001.888 1.464 1.002 3.25.532 8.325 1.192 9.805 4.089 9.174 1.883-.409 2.29-.297 1.34.372-1.151.81-1.151 1.044 0 1.502.75.298.077.578-1.494.621-2.178.06-2.713.455-2.25 1.661.334.87.607 1.796.607 2.059 0 .262.563.159 1.25-.229 1-.564 1-.436 0 .641-.687.741-1.245 1.82-1.239 2.397.006.578 1.164-.413 2.573-2.2 1.846-2.343 3.378-3.25 5.488-3.25 1.611 0 2.928-.45 2.928-1s-.45-1-1-1-1-.45-1-1c0-1.405 2.749-1.252 3.227.18.256.768 1.07.889 2.333.345 1.814-.78 1.822-.863.135-1.264-.993-.236-1.612-.954-1.375-1.595.236-.641 1.008-1.03 1.713-.863.706.166 1.616-.235 2.022-.892.537-.868 1.586-.591 3.842 1.015 2.919 2.079 4.034 4.027 2.353 4.112-2.547.128-8.831 1.249-9.25 1.649-.275.264-.521 1.552-.546 2.864-.039 1.995.329 2.291 2.25 1.808 1.547-.388 2.301-.133 2.311.783.01.82.306.962.75.358 1.21-1.646 3.902-1.626 3.902.029 0 .847-.713 1.473-1.584 1.39-2.772-.262-4.083.055-4.083.987 0 .499 1.012.715 2.25.48 2.129-.404 2.143-.371.25.614-1.869.973-1.849 1.012.311.598 1.407-.269 2.525.114 2.857.98.357.931 2.063 1.422 4.939 1.422 2.568 0 4.393.464 4.393 1.117 0 .614-.871.889-1.935.61-1.065-.278-2.151.054-2.413.738-.793 2.066-10.3-1.45-11.609-4.294-1.126-2.446-3.448-2.499-3.678-.085-.074.778-.186 1.842-.25 2.364-.063.523-.655.41-1.315-.25-1.767-1.767-4.386-1.611-2.905.173.627.756.886 2.033.577 2.84-.31.807.132 2.044.982 2.749 1.261 1.046 1.546 1.041 1.546-.031 0-.835.482-.654 1.323.496 1.035 1.415 2.037 1.653 4.599 1.09 2.38-.523 2.975-1.02 2.177-1.818-.605-.605-1.084-1.572-1.066-2.149.019-.578.806-.128 1.75.999.944 1.126 2.617 2.397 3.717 2.823 1.917.742 1.889.871-.683 3.096-1.475 1.276-3.275 2.52-4 2.764-1.08.363-1.072.74.046 2.094 1.983 2.402 9.137 2.019 9.137-.49 0-2.089 1.541-2.463 2.417-.586.466 1 .7 1 1.166 0 .573-1.226 3.417-1.796 3.417-.684 0 1.973-2.423 4.368-4.992 4.932-3.824.84-3.827 2.021-.008 3.352 2.056.717 3 1.71 3 3.157 0 1.161-.376 1.879-.836 1.595-.459-.285-2.147-.125-3.75.355-1.603.479-2.153.91-1.223.957 2.84.144 3.069 2.01.397 3.228-1.389.633-2.288 1.535-1.998 2.004.291.47-.124.854-.92.854-.797 0-2.511.885-3.809 1.967l-2.361 1.966 2.5.051c2.438.048 2.42.101-.75 2.131-3.534 2.264-3.707 2.642-2.235 4.885.663 1.009 1.23 1.149 1.735.427.413-.59 1.538-1.363 2.5-1.719.963-.355 1.75-1.389 1.75-2.299 0-1.315.291-1.412 1.419-.476 1.105.917 1.603.862 2.25-.247.457-.784 2.787-2.416 5.178-3.626 5.818-2.944 4.813-3.499-1.792-.989-5.944 2.258-10.79 2.11-5.305-.163 1.787-.74 3.25-1.724 3.25-2.186 0-.462.52-.519 1.155-.127.634.393.897.298.583-.21-.314-.508 1.416-.973 3.845-1.032 2.429-.059 4.417.288 4.417.77 0 .482 1.827.877 4.059.877s3.81-.403 3.506-.895c-.305-.493.119-1.153.941-1.469.875-.336 1.494-.009 1.494.788 0 1.501 2.121 2.576 5.082 2.576 1.055 0 1.918.45 1.918 1s-.436 1-.969 1c-.532 0-.692.72-.354 1.601.338.88-.014 1.999-.781 2.485-1.083.685-1.102.887-.087.899.72.008 1.031.465.691 1.015-.34.55-.141 1 .441 1 2.649 0 .793 2.703-1.909 2.78-2.763.079-7.844 2.123-5.443 2.19 1.622.045 3.733 5.025 2.14 5.045-.804.01-.72.338.242.946.809.512 1.157 1.244.774 1.627s-1.383.128-2.221-.568c-1.599-1.327-2.027-.36-.739 1.667.764 1.201 2.283 1.123 9.965-.513 2.338-.498 4.257-.628 4.265-.29.009.339.459-.059 1-.884.618-.941 1.265-1.127 1.735-.5 1.64 2.187 4.956 3.394 6.122 2.228.837-.837 1.128-.675 1.128.631 0 .967-.45 1.481-1 1.141-.55-.34-1-.01-1 .733 0 .754-1.216 1.449-2.75 1.572-4.751.381-13.58.895-18 1.048-2.338.081-4.25.555-4.25 1.053 0 .499.9.671 2 .384 1.429-.374 2-.031 2 1.2 0 1.054-.536 1.518-1.378 1.195-.758-.291-1.864-.043-2.458.551-.772.772-1.51.722-2.594-.178-1.233-1.023-1.818-.953-3.148.377-1.348 1.348-1.906 1.409-3.191.35-1.241-1.025-1.642-1.031-1.979-.029-.233.691-.783 1.034-1.224.761-.441-.272-1.31.117-1.931.866-.901 1.086-.5 1.486 1.985 1.983 3.617.724 7.918-.136 7.918-1.583 0-.569 1.085-.727 2.521-.367 1.386.348 3.473.123 4.637-.5 1.942-1.04 2.075-.918 1.618 1.475-.274 1.435-.056 2.609.485 2.609 2.601 0-1.902 2.931-7.023 4.572-3.23 1.034-4.969 2-3.98 2.208.967.203 3.442-.207 5.5-.912 2.058-.706 4.867-1.337 6.242-1.403 1.375-.066 4.245-.484 6.378-.928 3.076-.641 3.785-.526 3.426.552-.441 1.321-3.744 2.361-10.693 3.365-1.863.27-3.626.728-3.916 1.018-.968.968 6.907.544 8.81-.475 1.252-.67 2.079-.67 2.493 0 .341.552-.108 1.003-.998 1.003s-1.34.45-1 1c.34.55 1.716 1 3.059 1 1.503 0 2.441.576 2.441 1.5 0 .825-.848 1.5-1.885 1.5s-3.4.641-5.25 1.425c-4.451 1.886-1.648 3.161 3.7 1.685 3.88-1.072 5.898-.668 4.882.975-.322.521-.956.718-1.41.438-.453-.28-2.784.19-5.181 1.045-2.817 1.004-5.844 1.336-8.568.937-2.333-.341-5.093-.145-6.186.441-1.086.581-3.895 1.298-6.243 1.593-4.525.568-6.174 1.444-4.109 2.181.688.246 1.286 1.422 1.329 2.613.043 1.192.306 1.605.583.917.278-.688 1.353-1.25 2.39-1.25 1.222 0 1.693-.502 1.338-1.427-.597-1.555 3.034-1.122 5.282.629.732.57 1.963.422 3.28-.395 1.774-1.099 2.26-1.069 3.063.193.593.932.96 1.042.97.289.009-.744 1.461-1.181 3.765-1.134 2.063.042 3.975-.01 4.25-.116.275-.105 1.175-.339 2-.519s2.361-.672 3.414-1.093c1.345-.539 1.699-.419 1.191.403-.434.702-.1 1.17.836 1.17.857 0 1.559-.399 1.559-.887 0-.487 1.238-1.098 2.75-1.358 1.513-.26 3.65-.837 4.75-1.283l2-.811-2 2.319-2 2.319 3-.697c1.65-.383 3.699-.903 4.552-1.154.854-.252 2.346.123 3.316.832 2.712 1.983-2.676 12.662-6.368 12.621-2.485-.028-2.487-.033-.25-.932 3.422-1.376 2.733-3.002-1-2.36-2.227.383-2.823.257-1.893-.4 1.894-1.339.146-2.043-2.857-1.151-1.406.418-1.781.786-.857.842 2.839.173 3.956 5.1 1.157 5.1-1.4 0-1.466.221-.375 1.25.966.911 1.44.94 1.748.106.233-.629 1.301-.914 2.375-.633 2.609.682 2.564 3.28-.048 2.777-1.462-.282-2 .153-2 1.616 0 1.101-.375 1.77-.833 1.487-.459-.283-.834.12-.834.897s.424 1.15.941.831c1.175-.727-.095 3.641-1.607 5.526-.599.746-1.593 2.321-2.21 3.5-.616 1.178-1.646 2.03-2.289 1.893-.642-.138-1.168.248-1.168.857s-.675.848-1.5.531c-.825-.316-1.5-.154-1.5.361s-2.231.839-4.958.719c-2.726-.12-4.938.182-4.914.67.023.489-.558 1.296-1.293 1.794-.848.575 1.215.849 5.665.75 3.85-.084 7.428-.104 7.95-.043 1.112.13-1.102 2.552-2.5 2.736-2.232.294-2.386.446-1.207 1.195 1.658 1.053-5.794 15.536-8.247 16.026-1.172.234-1.484-.056-.965-.897 1.191-1.927-8.635-.528-10.069 1.434-.638.872-1.389 1.357-1.668 1.077-.28-.279-1.078.178-1.774 1.016-.696.838-.872 1.577-.392 1.642 4.126.557 8.107.159 9.251-.925.758-.72 1.996-1.071 2.75-.782.754.289 1.371.09 1.371-.442 0-.533.436-.969.969-.969 1.232 0 .24 2.597-2.583 6.761-1.217 1.794-2.376 2.768-2.578 2.164-.257-.772-1.392-.802-3.837-.101l-3.471.996 3.75.09c4.434.106 4.524.487 1.25 5.305-1.375 2.023-2.5 4.126-2.5 4.673 0 .547-.498 1.302-1.107 1.678-.734.454-.894.013-.474-1.311.52-1.639.066-2.108-2.553-2.632-3.935-.787-3.87-.86-2.981 3.384.575 2.744 1.201 3.476 2.923 3.414 2.698-.098 2.701.055.083 3.732-1.16 1.629-1.858 3.213-1.551 3.52.631.631-6.553 15.249-9.745 19.827-1.15 1.65-2.767 4.214-3.593 5.698a2402.27 2402.27 0 01-6.16 10.909c-2.561 4.516-4.41 8.856-4.107 9.645.466 1.213 3.51 1.323 19.658.71 10.509-.398 19.557-.698 20.107-.665 10.489.622 56.52-.419 122.5-2.771a11419.72 11419.72 0 0145-1.516c9.625-.295 21.55-.759 26.5-1.032 4.95-.273 9.45-.154 10 .263 1.168.887 9.638 10.64 21.501 24.759 4.622 5.5 11.124 12.727 14.451 16.06 6.091 6.103 6.668 6.766 12.018 13.8l2.936 3.861-3.453 2.833c-1.899 1.559-7.86 6.122-13.246 10.14-10.482 7.819-16.8 12.727-39.663 30.808-7.999 6.326-15.734 12.401-17.19 13.5-1.455 1.099-10.862 8.973-20.906 17.498-17.565 14.91-24.949 21.056-33.038 27.5-2.071 1.65-7.007 5.7-10.968 9-3.962 3.3-8.812 7.247-10.778 8.77l-3.575 2.77-3.749-4.27c-2.063-2.348-6.133-7.362-9.045-11.142-2.912-3.779-6.892-8.729-8.843-11-1.951-2.27-4.316-5.353-5.255-6.85-.939-1.498-5.417-7.17-9.952-12.605-4.535-5.435-12.84-15.712-18.455-22.838-5.616-7.127-11.241-14.106-12.5-15.509-1.26-1.404-7.089-8.577-12.954-15.939-5.865-7.363-12.319-14.962-14.342-16.887l-3.679-3.5.652 18.5c.358 10.175 1.288 29.525 2.066 43 .779 13.475 1.67 29.225 1.981 35 .691 12.849 3.461 81.222 3.476 85.809.006 2.163.393 3.072 1.117 2.625.763-.472.871.054.349 1.691-.969 3.032-.957 20.906.023 36.375.418 6.6.889 14.603 1.047 17.784.287 5.791 1.62 8.716 3.974 8.716.69 0 1.811.67 2.491 1.489.68.819 1.747 1.197 2.372.84.625-.357.807-.285.405.16-.403.445 2.37 2.994 6.161 5.665l6.893 4.857 87.116-.255 87.116-.256-5.527-6.659c-3.04-3.662-5.527-7.112-5.527-7.666 0-.555-.346-1.158-.77-1.342-1.069-.463-11.9-13.989-17.482-21.833-2.545-3.575-6.004-7.99-7.687-9.812-1.684-1.821-3.061-3.661-3.061-4.089 0-.428-2.727-3.662-6.061-7.188s-6.509-7.216-7.056-8.2c-.547-.983-3.835-5.277-7.306-9.542-3.471-4.264-7.105-9.29-8.077-11.169-.972-1.879-3.901-5.46-6.51-7.958-4.352-4.168-6.747-8.225-6.147-10.415.131-.48-.417-.621-1.219-.313-1.761.676-2.339-.739-2.065-5.05.113-1.78-.191-2.991-.677-2.691-.485.3-.882-.157-.882-1.014s-.446-1.559-.99-1.559c-.545 0-.24-.877.678-1.949s2.038-1.72 2.49-1.441c.452.28.822.031.822-.551 0-1.583 2.205-.824 4.104 1.412 1.548 1.825 1.551 2.065.034 3.219-1.451 1.104-1.352 1.264.862 1.397 3.938.236 5.261-.137 8.397-2.37l2.933-2.088-.562 2.149c-.72 2.755 1.305 4.429 4.63 3.826 1.55-.281 2.602-.013 2.602.662 0 .832.309.825 1.158-.024.876-.876.848-1.53-.119-2.695-1.046-1.26-.977-1.993.384-4.07.913-1.394 1.39-2.971 1.06-3.505-.976-1.579 2.159-1.108 3.517.528.685.825 1.823 1.5 2.529 1.5.763 0 1.085.761.793 1.875-.427 1.635.066 1.858 3.844 1.74 5.979-.187 6.725-.922 6.681-6.579-.04-5.159.707-7.43 2.151-6.537.472.292 1.007-.489 1.188-1.734.326-2.242.356-2.236 3.053.611 1.498 1.582 2.48 3.269 2.183 3.75-.297.481.062.874.798.874s2 .97 2.809 2.156c.809 1.185 2.259 2.86 3.221 3.722.962.862 1.75 1.976 1.75 2.477 0 .501.809 1.638 1.797 2.528.988.889 5.778 6.567 10.644 12.617 4.867 6.05 9.605 11.675 10.53 12.5.925.825 4.573 5.069 8.105 9.431 3.533 4.362 7.911 9.537 9.728 11.5 7.319 7.908 23.047 28.86 24.987 33.287 2.435 5.555 5.306 9.417 18.659 25.098C383.966 666.491 384.568 667 388.259 667c4.498 0 4.679.506-3.702-10.333-3.331-4.307-7.407-9.746-9.057-12.086-1.65-2.34-3.675-4.987-4.5-5.883-2.716-2.949-4-4.606-4-5.162 0-.505-7.233-7.658-10.208-10.094-.711-.582-2.867-2.997-4.792-5.367-1.925-2.371-4.062-4.9-4.75-5.621-.688-.721-1.25-1.793-1.25-2.383 0-.589-.342-1.071-.76-1.071s-3.079-3.038-5.912-6.75c-2.833-3.712-6.091-7.831-7.24-9.153-1.148-1.322-2.088-2.69-2.088-3.042 0-.351-1.575-2.308-3.5-4.349-1.925-2.041-3.5-4.122-3.5-4.625 0-.503-.338-1.064-.75-1.248-.413-.183-4.785-5.733-9.716-12.333-4.931-6.6-9.218-12.225-9.526-12.5-1.691-1.51-7.008-8.936-7.008-9.787 0-.549-.739-1.283-1.643-1.63-.904-.346-1.362-.911-1.018-1.255.343-.344-.171-1.346-1.143-2.226-1.895-1.717-9.196-12.509-9.196-13.593 0-.358-.674-1.326-1.498-2.15-.825-.825-1.794-2.705-2.154-4.179-.361-1.474-1.093-2.966-1.627-3.316-.535-.351-1.15-2.253-1.367-4.227-.339-3.072-.14-3.508 1.375-3.019 1.489.48 1.532.399.271-.508-1.283-.924-1.231-1.082.361-1.095 1.584-.013 1.764-.536 1.205-3.515-.529-2.818-.344-3.5.948-3.5.882 0 1.307-.48.945-1.067-.396-.64.08-.94 1.191-.75 1.08.185 1.906-.307 1.985-1.183.074-.825.222-2.625.329-4 .106-1.375.412-1.963.68-1.306 1.086 2.671 3.358-.015 3.426-4.051.055-3.231.26-3.703.93-2.143.825 1.92.862 1.912.93-.215.038-1.218 1.012-2.719 2.164-3.335 1.282-.686 1.918-1.797 1.639-2.865-.251-.958.156-2.581.905-3.605s1.362-1.326 1.362-.671.502 1.191 1.117 1.191c.617 0 .887-.878.602-1.965-.35-1.339.092-2.157 1.384-2.568 1.207-.383 1.897-1.526 1.897-3.141 0-1.825.414-2.381 1.471-1.975.809.31 2.106-.07 2.881-.846.775-.775 1.688-1.206 2.029-.957.34.248.439.197.218-.115-.22-.312.905-1.903 2.5-3.535 1.596-1.632 2.901-3.675 2.901-4.539 0-.929.567-1.355 1.385-1.041 1.696.65 5.615-1.947 5.615-3.722 0-.71 1.012-1.779 2.25-2.376 1.238-.596 1.688-1.115 1-1.152-1.79-.097-1.551-2.068.25-2.068.825 0 1.5-.408 1.5-.906 0-.499.927-.664 2.059-.368 1.511.395 2.207-.026 2.614-1.583.305-1.166.953-1.874 1.441-1.573.487.302.886.093.886-.464s1.575-1.76 3.5-2.673 3.5-2.06 3.5-2.547c0-.487.675-.886 1.5-.886.868 0 1.53-.948 1.57-2.25.067-2.147.11-2.158.93-.25.762 1.772.867 1.687.93-.75.038-1.512.487-2.75.997-2.75.509 0 1.132-.787 1.384-1.75.435-1.665.463-1.665.573.002.112 1.691 7.116-4.553 7.116-6.344 0-.371.945-.922 2.101-1.224 1.352-.354 1.828-.99 1.336-1.787-.527-.851-.269-1.047.826-.626.875.335 2.129-.038 2.786-.83.658-.793.898-1.441.534-1.441s-.082-.628.628-1.395c.709-.767 1.578-1.22 1.932-1.007.354.214.925-.734 1.269-2.105.345-1.371 1.26-2.493 2.034-2.493.775 0 2.312-1.148 3.416-2.552 1.104-1.403 2.261-2.528 2.572-2.5.312.029.53-.228.485-.57-.045-.343 1.655-1.805 3.776-3.25 2.121-1.446 5.465-4.315 7.432-6.378 1.966-2.062 4.078-3.75 4.693-3.75.614 0 .864-.788.554-1.75-.446-1.388-.355-1.458.441-.338.799 1.124 1.08.92 1.378-1l.375-2.412 1.971 3c2.899 4.413 5.097 4.351 4.563-.129-.187-1.57 3.493-2.376 4.814-1.055.779.779 1.084.513 1.084-.943 0-1.703.501-1.953 3.142-1.565 2.373.348 2.949.148 2.351-.819-.585-.947-.138-1.154 1.721-.799 1.77.338 2.876-.105 3.749-1.502.935-1.498 1.431-1.669 2.029-.702.53.859 1.021.233 1.489-1.9.467-2.128 1.249-3.127 2.359-3.018 3.293.322 4.091-.086 3.547-1.818-.522-1.659-.476-1.659.88-.016.787.954 1.761 1.404 2.165 1 .404-.403 1.26-.736 1.901-.739.642-.002 1.213-.902 1.269-2 .216-4.221.438-4.983 1.163-3.995 1.677 2.283 4.127 1.633 3.655-.97-.448-2.467-.178-2.688 3.58-2.932.825-.054 1.644-1.11 1.82-2.348.175-1.238.815-2.25 1.421-2.25 1.975 0 4.637-3.147 4.097-4.844-.453-1.423-.375-1.445.552-.156 1.108 1.54 1.475.828 1.162-2.25-.098-.962.248-1.75.769-1.75 1.965 0 2.022-3.88.062-4.195-1.766-.283-1.723-.512.604-3.207 1.967-2.276 2.257-3.202 1.348-4.297-.845-1.018-1.352-1.083-1.872-.242-1.05 1.699-2.109-.483-1.32-2.719.358-1.012 1.781-3.064 3.162-4.56 3.165-3.427 2.991-3.487-12.305-4.238-19.029-.934-19.972-1.009-20.5-1.633-.846-.998-10.223-3.909-12.595-3.909-1.231 0-2.406-.504-2.612-1.121-.205-.616-2.088-1.224-4.183-1.352-2.095-.127-4.102-.635-4.46-1.129-.357-.494-1.775-.863-3.15-.819-2.553.08-7.899-2.278-9.25-4.079-.47-.627-1.108-.442-1.711.495-.828 1.29-1.15 1.235-2.348-.403-.764-1.045-1.905-1.578-2.539-1.186-.634.392-1.152.284-1.152-.239 0-.522-1.052-1.214-2.337-1.537-1.286-.323-2.77-1.555-3.298-2.739-.905-2.027-1.06-2.053-2.663-.45-1.603 1.603-1.711 1.479-1.852-2.12-.118-3.013-.238-3.239-.566-1.071-.229 1.512-.864 2.75-1.409 2.75-.546 0-.789-.338-.539-.75.25-.413-.174-1.33-.941-2.039-1.147-1.061-1.395-1.018-1.395.24 0 1.325-.26 1.307-1.949-.139-1.072-.918-1.72-2.038-1.441-2.49.28-.452.031-.822-.551-.822-.582 0-1.059-.707-1.059-1.571 0-1.402-2.225-4.429-3.255-4.429-.219 0-.313 1.238-.209 2.75.128 1.867.051 2.028-.24.5-.236-1.238-.82-2.25-1.298-2.25-.478 0-1.436-1.57-2.131-3.49-.694-1.919-1.526-3.061-1.85-2.537-1.077 1.742-5.015-.082-5.048-2.34-.043-2.859-4.929-6.666-5.045-3.93-.043 1.002-.672.249-1.424-1.703-.921-2.392-1.377-2.867-1.439-1.5-.068 1.488-.308 1.658-.937.666-.67-1.057-.983-.976-1.508.393-.365.95-.942 1.449-1.282 1.108-.34-.34.008-1.391.773-2.335.922-1.135.97-1.462.143-.965-.775.465-1.25.19-1.25-.725 0-.811-.563-1.702-1.25-1.98-1-.403-1-.52 0-.583.688-.043 1.25-.781 1.25-1.638 0-.857-.453-1.279-1.008-.936-1.102.681-3.992-1.756-3.992-3.366 0-.552-.9-1.29-2-1.639s-2-1.103-2-1.674c0-.572-.732-.759-1.627-.416-.894.344-2.244.112-3-.515-1.67-1.387-1.84-3.302-.203-2.29.798.493.957.168.5-1.023-.369-.96-.677-2.046-.685-2.414-.009-.367-.452.007-.985.832-.769 1.19-.976.983-1-1-.024-1.983-.231-2.19-1-1-.556.861-.976 1.002-.985.332-.008-.643-.316-1.954-.685-2.914-.457-1.191-.298-1.516.5-1.023.644.398 1.17.246 1.17-.336 0-.582-.498-1.059-1.107-1.059s-.865-.631-.569-1.401c.317-.826-.234-1.604-1.341-1.893-1.174-.307-2.071.124-2.394 1.151-.285.904-.371.405-.192-1.107.182-1.54-.163-2.757-.786-2.765-.618-.009-.5-.403.267-.889.758-.48 1.056-1.395.661-2.033-.535-.866-1.111-.833-2.272.131-1.345 1.116-1.463.998-.869-.871.522-1.647.199-2.316-1.356-2.81-1.123-.356-2.042-1.308-2.042-2.116 0-1.137-.432-1.236-1.92-.44-1.618.866-2.124.566-3.222-1.915-.912-2.062-1.563-2.583-2.174-1.742-.6.825-.716.702-.371-.391.896-2.838-.942-4.601-3.282-3.151-1.117.693-2.031.843-2.031.334 0-.509.563-1.152 1.25-1.43.688-.277-.423-.54-2.469-.583-3.041-.065-3.602-.382-3.08-1.743.429-1.118.255-1.427-.53-.942-.749.463-1.079.074-.92-1.086.137-.994-.201-1.948-.751-2.119-2.233-.693-5.313-4.506-5.864-7.259-.573-2.863-3.604-4.252-3.666-1.68-.017.694-.484.471-1.05-.5-.561-.963-1.672-1.75-2.47-1.75-1.91 0-1.871-2.624.05-3.362.825-.316 1.5-1.066 1.5-1.666 0-.599-.45-.812-1-.472-.583.36-1.048-.763-1.116-2.691-.064-1.82-.322-2.522-.573-1.561-.54 2.067-1.961.9-4.206-3.453-.767-1.487-2.117-2.843-3-3.013-1.28-.247-1.647-1.825-1.812-7.796-.114-4.117-.489-9.286-.833-11.486-.437-2.792-.325-3.571.371-2.581.747 1.064 1.146.315 1.598-3 .73-5.356.445-8.919-.713-8.919-.472 0-.159-.7.696-1.555.934-.934 1.43-2.83 1.242-4.75-.172-1.757.304-4.446 1.058-5.974.753-1.529 1.1-3.217.77-3.75-.33-.534-.011-.978.709-.986.889-.011.956-.251.21-.75-1.21-.809-1.494-4.235-.351-4.235 1.264 0 1.757-3.793.638-4.912-.774-.774-.631-1.436.503-2.334 1.162-.921 1.732-3.787 2.144-10.787.308-5.243.857-10.305 1.22-11.25.416-1.083.176-1.717-.648-1.717-.967 0-1.015-.292-.184-1.123 1.239-1.239-.294-5.877-1.943-5.877-.494 0-.639-.419-.322-.932.802-1.298-4.65-10.068-6.26-10.068-.724 0-1.062-.412-.751-.915.311-.503-1.012-2.982-2.941-5.509-1.928-2.526-3.506-5.039-3.506-5.585 0-.545-.665-.991-1.477-.991-1.838 0-4.925-4.54-4.05-5.956.574-.929-1.509-1.543-3.826-1.128-.469.084-1.647-.763-2.617-1.882-.971-1.119-2.274-2.034-2.897-2.034-.623 0-1.133-.697-1.133-1.55 0-2.492-6.486-8.585-8.369-7.862-1.179.453-1.631.061-1.631-1.414 0-1.241-.881-2.313-2.25-2.738-1.238-.384-3.467-2.048-4.955-3.697-2.469-2.736-10.812-4.938-10.788-2.847.004.334 11.254 11.858 25 25.608C245.752 86.25 256.999 97.799 257 98.164c0 1.267-13.593-4.413-31.539-13.179-9.015-4.404-10.998-5.903-19.429-14.695A11070.183 11070.183 0 00187.479 51c-5.04-5.225-11.568-12.2-14.507-15.5-2.939-3.3-11.643-12.637-19.341-20.75L139.634 0H33v2.29m21.752 81.004c-2.061 1.213-3.538 2.769-3.281 3.456.256.688.03 1.25-.502 1.25-1.422 0-1.181 1.645.483 3.31.799.798 1.174 1.73.834 2.071-.996.996 2.071.681 3.714-.381 1.219-.788 1.09-.972-.691-.985-1.205-.008-2.443-.422-2.75-.92-.621-1.005 6.944-.52 8.686.557.7.432.866.08.46-.978-.457-1.191.05-1.825 1.813-2.268l2.448-.614-3.203-3.396c-3.748-3.974-3.248-3.905-8.011-1.102m57.287 55.527c-.052 1.763-2.672 4.302-4.755 4.608-2.53.371-2.774 2.571-.284 2.571 1.281 0 1.997.508 1.753 1.241-.625 1.874 2.058 4.042 4.283 3.46 1.08-.283 1.964-.106 1.964.393 0 .498-1.013.909-2.25.913-2.084.006-2.028.153.75 1.993 2.641 1.749 2.293 2.635-.824 2.094-.454-.079-.492.394-.086 1.051.51.826.199.988-1.01.524-1.161-.445-1.609-.251-1.335.58.459 1.394 4.755 2.361 4.755 1.071 0-.451 1.334-.82 2.964-.82 3.3 0 6.955 2.814 5.125 3.945-.607.375-1.373-.022-1.703-.882-.33-.859-1.227-1.563-1.993-1.563-2.05 0-1.7 1.994.357 2.035 1.327.027 1.146.372-.75 1.428-2.633 1.466-2.694 1.392 2.449 2.986 1.017.315 1.259-.058.813-1.25-.549-1.467-.412-1.516 1.008-.362 1.614 1.312 6.837-.849 5.897-2.44-.184-.31-.071-.826.25-1.147.321-.321.583-.032.583.642s.52.905 1.155.513c.763-.473.88-.271.345.595s-.418 1.068.345.595c.635-.392 1.155-.274 1.155.263 0 .536-.54 1.155-1.201 1.376-.934.311-.934.564 0 1.142.661.408 1.201.239 1.201-.376s.43-.852.956-.527c.526.325.703 1.252.393 2.059-.343.895.032 1.468.962 1.468.839 0 2.179.251 2.978.557.807.31 1.725-.151 2.065-1.037.381-.994-.041-1.846-1.121-2.259-1.971-.755-5.144-4.262-5.212-5.761-.025-.55-1.615-2.017-3.533-3.259-1.919-1.243-3.488-2.782-3.488-3.421 0-1.722-10.868-11.688-11.356-10.412-.229.6-1.126-.483-1.992-2.408-.865-1.925-1.591-2.905-1.613-2.179m1.524 92.949c-.257.257-2.279.442-4.495.412-2.215-.031-4.288.366-4.607.881-.318.515-1.902.937-3.52.937s-2.941.436-2.941.969c0 .532.787.715 1.75.405 1.507-.484 1.541-.397.25.626-1.299 1.029-1.272 1.116.199.645 1.255-.401 1.557-.099 1.156 1.156-.47 1.468-.385 1.495.627.199.878-1.126 1.296-1.19 1.675-.258.367.903 1.028.962 2.424.215 1.055-.565 1.919-.646 1.919-.179 0 1.255 8.721 1.483 9.484.247.36-.582 1.144-.755 1.743-.385.71.439.892-.075.524-1.483-.31-1.185-.148-2.412.359-2.725 1.678-1.037-.096-2.299-3.112-2.213-1.633.047-3.178.295-3.435.551" fill="#d3d3d3" fill-rule="evenodd"/></svg>