<svg xmlns="http://www.w3.org/2000/svg" width="500" height="503"><path d="M0 251.502v251.502l250.25-.252 250.25-.252.252-251.25L501.004 0H0v251.502m.492.498c0 138.325.116 194.913.258 125.75.142-69.162.142-182.337 0-251.5C.608 57.088.492 113.675.492 252M248.369 87.753c-2.272 2.061-5.329 5.885-6.792 8.497-2.732 4.875-4.225 5.831-5.189 3.32-.685-1.785-6.388-3.948-6.388-2.422 0 .574.857 2.247 1.905 3.718 1.656 2.326 1.724 2.922.518 4.57-1.305 1.785-1.477 1.679-2.935-1.81-1.878-4.496-3.775-3.974-2.318.637 2.019 6.391 1.965 7.194-.663 9.987-1.423 1.513-3.046 2.75-3.606 2.75-.561 0-.76.419-.443.932.316.512-.355 1.583-1.493 2.38-1.138.797-4.416 3.689-7.285 6.428-2.869 2.738-6.221 5.297-7.448 5.686-1.228.39-2.234 1.016-2.237 1.391-.002.376-1.465 2.325-3.25 4.331-1.785 2.006-4.595 5.979-6.245 8.827-1.65 2.848-4.001 6.607-5.224 8.352-4.251 6.064-4.444 7.292-2.678 17.056.907 5.014 2.718 11.782 4.025 15.039 1.308 3.258 2.377 6.385 2.377 6.95 0 3.81-6.378-11.302-6.618-15.679-.246-4.5-3.481-12.151-4.464-10.56-.467.755-.412 1.773.124 2.309.527.527.922 2.781.879 5.008-.043 2.228-.306 3.488-.583 2.8-.708-1.753-2.338-1.561-2.338.275 0 .839 1.575 4.652 3.5 8.475 4.102 8.145 4.366 9.644.969 5.5-1.352-1.65-2.461-2.411-2.464-1.691-.003.72-.455 1.031-1.005.691-2.834-1.752 3.728 8.134 7.915 11.923 1.147 1.038 2.085 2.361 2.085 2.94 0 .579-2.016-.925-4.479-3.342-6.228-6.113-6.413-4.698-.258 1.979 2.788 3.025 5.249 4.963 5.468 4.306.219-.656 1.096-.926 1.949-.599 1.234.474 1.402.126.82-1.707-.591-1.864-.423-2.184.885-1.683 2.066.793 2.033.424-.385-4.317-1.1-2.156-1.979-4.501-1.953-5.21.025-.71 1.181.892 2.568 3.558 3.658 7.03 4.101 4.937.93-4.393-3.548-10.444-2.669-11.459 1.086-1.253 3.026 8.224 4.352 7.479 2.141-1.202-1.372-5.387-.918-15.341.479-10.5.397 1.375.762 4.075.812 6 .05 1.925.721 5.3 1.492 7.5 1.375 3.927 1.391 3.858.881-3.75-.343-5.122-.16-7.75.541-7.75.648 0 .802-1.031.396-2.649-.468-1.865-.325-2.44.481-1.941.793.49 1.149-.619 1.155-3.601.013-6.712 1.211-15.071 1.981-13.826.382.619.283 3.463-.221 6.321-1.305 7.41-1.258 28.014.069 30.3.94 1.618 1.114 1.309 1.189-2.104.049-2.2.461-5.8.916-8l.827-4 .215 3.5c.118 1.925.54 4.625.938 6l.724 2.5.776-2.351c.568-1.722 1.072-2.054 1.886-1.24.814.814 1.445.507 2.365-1.149 1.245-2.242 1.255-2.237 1.291.567l.035 2.826 2.7-3.326a461.99 461.99 0 003.082-3.825c.21-.275.957.288 1.66 1.25.703.961 1.99 1.748 2.859 1.748.87 0 1.859.45 2.199 1 .34.55 1.491 1 2.559 1 1.076 0 1.941.682 1.941 1.531 0 .843.641 1.778 1.424 2.078 1.013.389 1.264 1.538.87 3.969-.549 3.381-.031 3.927 3.342 3.523 2.22-.266 2.449 3.18.36 5.404-2.018 2.148-2.022 2.241-.196 4.496 1.843 2.276 1.883 6.459.073 7.578-.489.301-.206 1.231.629 2.065.834.835 1.219 1.998.856 2.586-1.493 2.416-1.389 8.77.144 8.77 2.225 0 1.813 1.761-.73 3.122-2.099 1.123-2.118 1.23-.335 1.856 1.92.674 3.148 4.022 1.475 4.022-2.421 0-.436 1.91 3.578 3.443 4.825 1.843 7.498 4.276 3.385 3.082-2.2-.639-2.154-.494.625 1.973 1.767 1.568 2.281 2.437 1.25 2.114-.963-.302-1.75-.083-1.75.487 0 .615-.914.751-2.25.335-2.23-.694-2.233-.681-.345 1.433 1.815 2.032 1.31 2.72-1.655 2.251-2.629-.415 2.344 7.234 6.173 9.496 1.693.999 3.077 2.395 3.077 3.102 0 1.672-.558 1.62-3.535-.331-4.24-2.778-2.627-.054 2.057 3.475 2.453 1.848 4.208 3.768 3.899 4.268-.309.499-2.411-.675-4.671-2.61-4.153-3.554-7.045-4.783-4.75-2.018 2.018 2.432-.289 1.714-3.217-1-3.14-2.912-3.783-3.072-3.783-.941 0 .885-.478 1.263-1.107.875-1.574-.973-.247 2.888 3.264 9.495 1.758 3.311 2.525 5.789 1.963 6.351-.562.562-1.203.004-1.642-1.429-1.145-3.735-7.821-15.323-8.19-14.216-.927 2.783 13.359 31.554 14.639 29.482.43-.694 3.927 2.391 9.075 8.004 6.144 6.7 7.726 8.931 5.937 8.373l-2.439-.76 2 2.244c1.668 1.87 2.054 1.975 2.323.632.468-2.331 2.177-1.979 2.177.449 0 1.132-.412 1.805-.915 1.494-.503-.311-1.093-.028-1.312.628-.263.788-1.09.502-2.432-.84-1.118-1.118-4.24-3.515-6.937-5.326-2.697-1.811-5.462-3.985-6.144-4.831-2.561-3.178-2.028-.457.802 4.089 3.215 5.166 2.924 5.961-.908 2.477-3.331-3.029-2.431-.513 2.442 6.829 4.098 6.173 4.045 6.155 9.63 3.306 2.281-1.164 5.975-2.106 8.21-2.095 3.333.017 3.662-.136 1.831-.847-1.451-.563-2.027-1.405-1.643-2.405.324-.846.092-1.538-.517-1.538s-1.107-.675-1.107-1.5c0-2.115.702-1.904 5 1.5 2.083 1.65 4.961 3 6.394 3 2.73 0 4.768 1.635 8.106 6.504 2.548 3.716 6.911 8.164 12 12.231 3.451 2.759 3.699 3.203 1.809 3.231-1.205.019-2.504.54-2.886 1.159-.483.781.41.997 2.912.704 3.355-.391 5.316.952 4.855 3.326-.33 1.705 2.915 1.533 4.142-.219 1.754-2.504 3.689-1.868 9.893 3.246l4.725 3.895 3.275-1.682c6.032-3.099 9.765-7.942 8.777-11.387-.74-2.582-.453-3.403 2.069-5.926 1.611-1.61 2.929-3.596 2.929-4.411 0-1.226.592-1.302 3.412-.437 4.356 1.337 6.934.431 6.115-2.148-.434-1.369-.035-2.107 1.38-2.557 1.76-.558 3.244-3.05 3.591-6.029.064-.55.483-1.804.93-2.787.546-1.198.25-2.412-.897-3.679-1.087-1.2-1.471-2.647-1.054-3.962.77-2.426 2.341-2.71 3.161-.572.939 2.445 2.124 1.707 1.607-1-.388-2.03-.08-2.5 1.638-2.5 2.474 0 2.778-2.53.92-7.667-1.065-2.945-.945-3.65 1.087-6.398 2.655-3.591 2.127-4.328-5.64-7.879-2.337-1.069-4.25-2.301-4.25-2.738 0-1.499 9.499-9.482 13.25-11.136 4.212-1.857 4.623-3.539 2.145-8.761-1.274-2.686-1.381-4.023-.517-6.5.757-2.171.772-3.707.049-5.057-.571-1.067-.74-2.878-.376-4.025.565-1.779.906-3.213 1.388-5.839.05-.275.437.043.858.707.422.663.749-2.262.726-6.5-.039-7.366-2.31-14.207-4.717-14.207-.42 0-.251-1.125.376-2.5.878-1.928.836-3.129-.187-5.25-.729-1.512-1.488-3.638-1.688-4.724-.2-1.085-1.328-4.621-2.508-7.858-1.702-4.667-1.907-6.266-.99-7.734.963-1.541.676-2.375-1.724-5.002-1.583-1.734-3.139-4.453-3.457-6.042-.402-2.011-1.176-2.89-2.544-2.89-1.081 0-2.244-.45-2.584-1-.34-.55-.115-1 .5-1s.828-.469.474-1.042c-.355-.574 1.419-3.458 3.941-6.41s4.585-6.104 4.585-7.004c0-2.822-10.163-22.645-11.96-23.329-1.107-.421-.023-4.984 1.481-6.232 1.937-1.608-3.083-8.983-6.115-8.983-1.232 0-2.389-.338-2.573-.75-.183-.412-1.683-1.491-3.333-2.397-1.65-.905-3.446-2.597-3.991-3.759-.545-1.162-1.827-2.378-2.849-2.702-1.021-.324-2.681-1.413-3.688-2.42-1.457-1.457-3.321-1.815-9.151-1.754-8.884.092-11.121-.542-12.767-3.617-.696-1.301-3.256-3.768-5.689-5.483-4.609-3.248-5.914-3.815-4.861-2.111.944 1.527-2.328 2.384-3.953 1.035-.973-.808-2-.872-3.248-.204-2.129 1.139-7.303.385-7.303-1.064 0-.547 1.584-.808 3.531-.581 2.707.316 3.408.089 3-.972-.292-.761-.531-1.573-.531-1.803 0-.23-.927-.418-2.059-.418-1.132 0-1.781-.45-1.441-1 .646-1.045-.52-1.339-4.172-1.049-1.78.141-2.068-.229-1.593-2.046.4-1.528.22-1.995-.577-1.502-.693.428-1.158.072-1.158-.886 0-2.838-3.575-5.787-6.059-4.998-1.908.605-2.155.406-1.69-1.371.476-1.82.12-2.063-2.854-1.952-3.478.131-4.661 2.105-1.897 3.166 2.533.972 1.662 2.628-1.25 2.376-1.512-.131-4.367-1.475-6.344-2.988-4.663-3.567-5.597-3.478-10.537 1.003M152.5 231.193c-3.3.421-7.575 1.408-9.5 2.192a300.407 300.407 0 01-6.717 2.628c-4.31 1.611-5.723 3.528-5.461 7.409.12 1.781-.466 4.875-1.302 6.876-.836 2.001-1.52 4.717-1.52 6.035 0 1.319-.931 3.58-2.068 5.027-3.473 4.415-4.036 8.084-1.896 12.368 1.036 2.075 1.939 3.322 2.005 2.772.067-.55.716.35 1.442 1.999.929 2.109 1.023 3.556.316 4.877-.682 1.274-.67 2.085.035 2.522 1.514.935 3.123 5.634 4.659 13.602 1.674 8.686 3.808 17.676 5.519 23.25 1.101 3.587 1.709 4.245 3.896 4.218 3.909-.048 6.731-2.494 5.118-4.437-1.048-1.263-.999-1.531.28-1.531 2.221 0 3.86 1.934 6.595 7.782 1.772 3.789 3.344 5.581 6 6.84 1.98.938 8.701 4.782 14.938 8.542 6.236 3.76 11.738 6.836 12.227 6.836.488 0 1.625 1.125 2.526 2.5.901 1.375 2.248 2.5 2.993 2.5 3.208 0 11.181 5.409 9.502 6.446-1.613.997-1.316 3.554.413 3.554.825 0 1.5-.727 1.5-1.617 0-1.14.607-1.457 2.061-1.077 1.262.33 2.273-.013 2.607-.884.848-2.21 2.547-1.674 1.832.578-.364 1.147-.18 2 .433 2 .587 0 1.067-.45 1.067-1 0-1.704 1.83-1.099 2.269.75.666 2.801 2.731-3.153 2.731-7.874 0-2.598.376-3.761 1.077-3.329.63.39.941 3.005.75 6.309l-.327 5.644 3.25-.01c1.952-.005 3.25.494 3.25 1.25 0 1.984 2.799 1.469 3.467-.637.71-2.234 4.273-1.8 6.322.77 1.056 1.323 1.442 1.372 2.125.265.643-1.04 1.01-1.071 1.589-.133.414.67.358 1.506-.125 1.857s-.878 1.275-.878 2.055c0 .779-.625 1.625-1.389 1.879-.764.255-1.13.043-.813-.47.318-.513-.916-.975-2.74-1.027-2.786-.079-3.238.21-2.821 1.803.273 1.044.894 1.898 1.38 1.898.485 0 .883.675.883 1.5s.413 1.5.918 1.5c.505 0 1.635.275 2.512.611 1.183.454 1.428.182.951-1.059-.708-1.846 4.057-7.552 6.306-7.552 1.584 0 1.632.535.278 3.066-.57 1.064-1.92 1.934-3 1.934-1.081 0-1.965.45-1.965 1s.637 1 1.417 1c.779 0 1.566.439 1.75.977.571 1.672 7.639 2.074 9.191.522 1.641-1.641 2.642-.963 2.642 1.79 0 1.649.242 1.755 1.542.676 1.07-.888 1.224-1.599.5-2.323-1.641-1.641-1.294-4.676.458-4.004 1.746.67 1.944-.94.458-3.716-.72-1.345-1.786-1.811-3.456-1.508-1.799.326-2.585-.101-3.085-1.675-.615-1.939-.772-1.974-1.904-.426-1.299 1.776-3.067 2.392-2.024.705.334-.54-1.215-1.772-3.441-2.736-2.226-.965-4.048-2.337-4.048-3.049 0-.713-.631-1.538-1.402-1.834-.771-.295-1.68-2.024-2.021-3.84-.341-1.816-1.51-4.329-2.598-5.583-1.089-1.255-1.972-3.001-1.964-3.879.014-1.396.137-1.408.985-.097.646 1 .974 1.083.985.25.03-2.504 1.874-1.168 2.534 1.837l.678 3.087 1.419-2.736c.781-1.504 1.213-2.943.959-3.196-.723-.723 3.198-10.014 5.914-14.01 1.352-1.99 2.275-3.801 2.052-4.025-.758-.757-7.322 1.869-9.591 3.837-2.704 2.345-3.82 2.457-4.586.462-.673-1.753-2.364-1.022-2.364 1.022 0 .886.65 1.204 1.75.857 1.24-.391 1.046.068-.664 1.575-1.41 1.242-2.67 1.714-3.028 1.133-.338-.546-1.276.447-2.086 2.207l-1.472 3.2-.339-2.982c-.186-1.64.231-4.79.926-7 1.509-4.794 1.327-6.674-1.185-12.213-2.469-5.445-2.403-8.391.252-11.24 1.95-2.093 1.998-2.401.5-3.239-2.029-1.135-2.157-3.419-.232-4.158.783-.3 1.256-1.361 1.052-2.357-.203-.996-.646-3.948-.983-6.561-.555-4.3-2.025-6.589-2.248-3.5-.049.688-.519 2.6-1.045 4.25-.927 2.911-.977 2.845-1.705-2.25-.842-5.887-1.94-6.936-2.095-2-.056 1.788-.206 5.05-.334 7.25-.128 2.2.081 5.462.465 7.25.761 3.545-.924 4.672-1.826 1.221-.292-1.115-1.121-1.903-1.843-1.75-.752.16-1.442-.788-1.616-2.221-.817-6.723-1.195-7.401-3.044-5.455-1.164 1.225-1.644 3.235-1.521 6.372.171 4.394.145 4.438-.619 1.083-.656-2.881-.825-3.058-.959-1-.143 2.208-.282 2.294-1.188.737-.96-1.648-1.274-8.042-.674-13.706.406-3.834-2.814-3.905-3.58-.078-1.188 5.944-2.896 3.416-2.163-3.203.64-5.787.576-6.102-.87-4.25-.86 1.1-1.577 2.761-1.594 3.691-.05 2.622-1.811 3.091-3.032.808-.83-1.55-.72-3.545.45-8.108 2.248-8.776 2.145-9.511-1.037-7.426-3.538 2.318-3.923 1.454-1.483-3.328 2.252-4.414 2.653-7.137 1.051-7.137-.604 0-.747-1.084-.35-2.664.567-2.262.402-2.563-1.093-1.989-1.311.503-1.605.29-1.149-.836l1.218-3.011c.979-2.42-1.738-1.749-4.802 1.187-3.675 3.521-3.536 1.852.266-3.173 3.262-4.312 2.583-5.644-1.51-2.962-3.133 2.053-3.45.184-.338-1.995 2.516-1.763.708-2.126-2.374-.476-1.111.595-2.249.853-2.528.574-.279-.279.997-1.288 2.836-2.242 2.318-1.203 2.883-1.885 1.843-2.224-.825-.269-1.79-.934-2.144-1.477-.355-.544-2.046-1.039-3.759-1.1-2.034-.073-2.95-.542-2.641-1.352.28-.732-.639-1.473-2.241-1.81-1.493-.314-3.615-1.072-4.715-1.684-3.281-1.826-8.63-2.387-15-1.573m-35.564 24.419c-4.71 8.232-7.243 19.716-5.35 24.249l1.431 3.425 2.019-2.327c1.11-1.28 2.27-3.482 2.576-4.893.307-1.411 1.195-4.263 1.973-6.336 1.694-4.513 1.803-8.137.329-10.891-.884-1.651-.687-2.402 1.053-4.023 1.177-1.097 1.976-2.488 1.774-3.092-.891-2.674-2.771-1.414-5.805 3.888M250.106 334c.062 4.675.708 9.85 1.435 11.5.728 1.65 2.314 6.277 3.526 10.281 2.551 8.428 3.63 8.895 1.96.848-.775-3.733-.836-6.662-.187-9.012.529-1.915.722-3.722.429-4.014-.292-.293-.48-2.813-.418-5.601.101-4.489-.285-5.495-3.372-8.786l-3.487-3.716.114 8.5m32.832 3.813c-.96 3.205-1.64 3.937-3.656 3.937-1.362 0-3.388.911-4.502 2.025l-2.025 2.025 2.873 3.633c2.585 3.269 3.227 3.574 6.417 3.046 1.95-.322 4.865-.083 6.479.53 2.051.78 3.041.796 3.289.053.194-.584.929-1.062 1.633-1.062.703 0 2.85-1.249 4.77-2.775 4.492-3.569 2.887-5.494-5.19-6.225l-5.526-.5v-3.976c0-5.682-2.936-6.139-4.562-.711M265.29 350c-.288 1.1-.976 2-1.529 2-.553 0-.417.709.302 1.576 1.054 1.27 1.061 1.729.037 2.362-.973.601-1.025 1.673-.225 4.572 1.115 4.037.43 12.49-1.011 12.49-.475 0-.85.788-.832 1.75.028 1.55.171 1.575 1.25.214 1.65-2.082 5.103-1.358 4.168.873-.383.915-.92 3.688-1.192 6.163-.272 2.475-.978 4.805-1.569 5.178-1.562.986.846 5.822 2.898 5.822 1.624 0 1.557-1.856-.237-6.532-.619-1.612-.498-1.611 1.995.023 1.711 1.121 2.655 1.322 2.655.565 0-.646.492-.87 1.094-.498.602.372.889 1.749.639 3.059-.516 2.7.074 2.884 3.804 1.184 2.465-1.123 2.584-1.485 1.893-5.75-.405-2.503-.783-5.451-.84-6.551-.145-2.809-1.423-4.501-2.955-3.913-.956.366-1.302-.76-1.302-4.238 0-2.606-.502-4.905-1.116-5.11-.76-.253-.821-1.149-.192-2.806.509-1.338.712-2.489.45-2.558-.261-.069-.993-.181-1.625-.25-.633-.069-1.29-1.04-1.461-2.159-.414-2.712-3.265-9.466-3.996-9.466-.319 0-.816.9-1.103 2m-79.606 10.382c-1.506 3.923-.552 6.41 4.566 11.905 6.302 6.766 12.183 13.478 14.206 16.213.814 1.1 1.495 1.438 1.512.75.051-2.009 2.17-1.437 2.739.739.286 1.094.919 1.742 1.407 1.441.487-.302.886.604.886 2.011s.408 2.559.906 2.559c.499 0 .685-.849.413-1.887-.271-1.038-.004-2.19.594-2.559.67-.414 1.087.269 1.087 1.78 0 1.349.675 2.711 1.5 3.028.942.361 1.5-.011 1.5-1 0-1.026.552-1.364 1.582-.969.87.334 1.995.607 2.5.607.505 0 .918.726.918 1.613 0 1.575 8.356 1.59 25.004.045 4.232-.392 8.274-2.4 7.465-3.708-1.193-1.931 1.469-.877 2.882 1.141 2.456 3.506 5.1 2.079 5.461-2.947.207-2.874-.046-4.117-.75-3.682-.584.361-1.062 2.204-1.062 4.097 0 4.475-1.591 4.437-2.434-.059-.644-3.433-2.029-4.611-2.778-2.364-.269.807-1.026.735-2.614-.25-1.49-.924-2.475-1.041-2.955-.353-1.183 1.701-4.902.525-14.417-4.558-4.923-2.629-5.314-2.502-2.869.931 1.408 1.977 2.672 2.748 3.955 2.413 1.038-.271 2.189-.004 2.558.594 1.642 2.657-5.386.993-8.358-1.979-1.686-1.686-3.524-2.783-4.084-2.436-.56.346-1.287-.072-1.616-.929-.329-.857-.97-1.328-1.424-1.047-.455.282-1.459-.39-2.231-1.492-.879-1.256-2.865-2.153-5.318-2.404-4.518-.461-10.059-2.459-7.106-2.563.995-.034 1.543-.493 1.218-1.019-.639-1.034-3.649-.251-4.63 1.204-1.269 1.881-17.826-11.534-19.154-15.52-.207-.62-.684-.325-1.059.654" fill="#d3d3d3" fill-rule="evenodd"/></svg>