<svg xmlns="http://www.w3.org/2000/svg" width="500" height="500"><path d="M231 50.11c1.278.919 1.249.998-.199.535-1.255-.401-1.557-.099-1.156 1.156.426 1.33.33 1.4-.439.321-.54-.758-1.483-1.069-2.094-.691-1.719 1.062-1.313 2.583.503 1.886 1.285-.493 1.476-.179.933 1.532-.423 1.332-.254 2.151.444 2.151.619 0 .852.443.517.985-.378.612.562.751 2.483.367 3.786-.758 11.663 2.393 10.041 4.015-1.192 1.192-1.405 2.981-.272 2.281 1.59-.983 9.538 7.129 8.82 9.001-.378.985-.371 1.474.015 1.089.385-.386 1.477.193 2.425 1.286 1.534 1.769 1.865 1.819 3 .451 1.232-1.485-.871-4.341-3.271-4.443-.412-.018-.75-.617-.75-1.331 0-.88 1.211-1.218 3.75-1.047 2.063.139 2.962.016 2-.274-2.338-.703-2.237-2.38.143-2.38 1.742 0 3.642 2.473 3.266 4.25-.088.412.543.75 1.4.75.857 0 1.28.451.939 1.003-.407.659-1.335.62-2.71-.117-1.791-.958-1.998-.875-1.44.579.358.934-.023 2.661-.848 3.839-.825 1.177-1.5 2.888-1.5 3.802 0 .913-1.012 1.932-2.25 2.264-3.518.943-3.894.767-2.785-1.304 1.446-2.702 1.436-2.711-2.431-2.26-2.289.267-4.011-.14-5.071-1.201-.883-.883-1.222-1.605-.754-1.605.469 0 1.377-1.389 2.017-3.086.995-2.634.946-3.002-.332-2.512-.906.348-1.238.154-.839-.49.433-.702-.402-.899-2.446-.577-2.869.453-3.057.307-2.495-1.934.489-1.946.291-2.302-1.003-1.805-.886.34-1.611.981-1.611 1.424 0 1.842-6.116-1.632-6.655-3.781-.477-1.899-.831-2.081-2.063-1.058-1.294 1.074-1.199 1.467.726 3.027 1.616 1.308 1.801 1.792.686 1.792-.84 0-1.731.563-1.98 1.25-.352.971-.898.988-2.446.077-1.558-.916-2.297-.883-3.381.151-1.027.98-2.036 1.06-3.887.309-1.398-.568-1.965-1.217-1.286-1.472 2.527-.952-.761-3.962-3.835-3.511-3.629.533-3.68 1.737-.129 3.034 1.512.552 2.075 1.04 1.25 1.084-.996.054-.516.927 1.429 2.6 3.406 2.928 2.428 5.542-1.322 3.535-1.159-.62-2.107-.737-2.107-.259s-.562.921-1.25.985c-.687.064-1.925.21-2.75.324-5.486.76-6.931-.006-5.852-3.102.873-2.504 1.438-2.896 3.448-2.392 2.75.691 3.069-.221.911-2.605-1.345-1.486-1.05-2.138 2.967-6.579 2.452-2.711 4.474-5.266 4.493-5.679.052-1.167-1.767-.882-2.561.401-.516.837-1.013.768-1.812-.25-1.357-1.727-3.594-2.268-3.594-.869 0 .568.901 1.366 2.003 1.773 1.86.688 1.891.901.443 2.968-.858 1.225-2.016 2.227-2.574 2.227-1.767 0-3.365 2.4-3.577 5.371-.224 3.143-2.827 6.629-4.95 6.629-1.66 0-1.68.491-.12 2.989 2.072 3.317-.207 4.402-5.118 2.437-5.425-2.171-6.426-1.167-1.451 1.458 2.114 1.115 3.303 2.047 2.641 2.072-1.716.063-6.297-2.136-6.297-3.023 0-.41-.9-.51-2-.223-1.458.381-2.021.017-2.079-1.343-.044-1.054-.299-1.322-.583-.617-.278.688-.944 1.25-1.48 1.25-.537 0-.655-.52-.263-1.155.473-.763.271-.88-.595-.345s-1.068.418-.595-.345c.473-.766-.212-1.155-2.032-1.155-4.171 0-7.413-3.549-6.664-7.295.52-2.6.356-2.944-1.132-2.373-.957.367-2.122.668-2.587.668-.466 0-1.464.617-2.217 1.37-.754.754-2.843 2.132-4.643 3.063-2.659 1.375-3.05 1.959-2.088 3.117 1.32 1.592-.846 3.041-3.259 2.182-1.321-.471-6.783 1.864-6.783 2.9 0 .319 1.344 2.277 2.987 4.352l2.987 3.771-3.043.609c-2.878.575-7.321-1.249-9.074-3.726-.353-.5-1.116-.022-1.696 1.061-.58 1.084-2.667 3.057-4.639 4.386-2.389 1.61-3.439 2.997-3.148 4.16.356 1.423-.027 1.629-2.068 1.117-2.927-.735-7.675 3.513-6.717 6.01.424 1.105.037 1.343-1.522.935-1.56-.408-3.294.66-6.829 4.204-2.606 2.612-6.2 5.869-7.988 7.238-2.64 2.021-3.25 3.188-3.25 6.215 0 2.528-.681 4.339-2.116 5.631-3.729 3.356-14.107 19.276-15.435 23.675-.37 1.226-1.968 4.528-3.552 7.336-3.804 6.747-9.541 22.727-10.39 28.94-.372 2.725-1.386 6.526-2.254 8.447-2.653 5.875-5.248 17.333-4.658 20.571.383 2.105.064 3.474-1.019 4.373-2.013 1.67-2 4.804.04 9.686 1.201 2.875 1.484 5.791 1.104 11.372-.56 8.216.357 17.741 3.781 39.283.33 2.078 1.022 3.517 1.538 3.198.516-.319.792.006.613.722-.178.716-.129.946.109.51.238-.435 1.086-.25 1.884.412 1.037.861 1.125 1.404.31 1.908-.794.49-.835 1.275-.136 2.588.552 1.036 1.759 4.03 2.682 6.652s3.288 7.108 5.254 9.967c1.967 2.86 5.099 8.974 6.96 13.588 3.496 8.672 6.876 14.169 8.723 14.188.584.007 1.94 1.845 3.014 4.085 3.614 7.542 7.835 8.843 10.226 3.154 1.384-3.293 1.667-3.506 2.328-1.75.414 1.1 2.382 3.775 4.373 5.945 1.992 2.17 3.621 4.297 3.621 4.726 0 .94-4.856-.809-6.88-2.479-1.159-.956-1.348-.894-.955.308.27.825 3.024 2.721 6.12 4.212 3.108 1.498 8.911 5.83 12.956 9.672 4.029 3.827 9.235 7.723 11.567 8.656 2.333.933 5.468 3.159 6.967 4.945 1.51 1.799 4.508 3.802 6.725 4.492 2.2.685 6.025 2.432 8.5 3.884l4.5 2.639-5.769.3c-5.578.291-5.857.44-8.388 4.5a953.395 953.395 0 01-6.824 10.7c-2.313 3.575-6.902 10.8-10.199 16.055l-5.995 9.555-.609 12.117c-.47 9.338-.31 12.365.695 13.199.923.766 34.459 1.008 114.697.828L361.5 452.5l.283-11.297.283-11.297-4.678-8.203c-2.573-4.512-6.016-10.656-7.651-13.655-1.635-2.998-5.071-8.848-7.637-13l-4.665-7.548-5.217-.302c-2.87-.167-5.218-.688-5.218-1.159C327 383.82 341.413 376 345.506 376c4.669 0 13.428-5.032 14.254-8.189.315-1.204 1.412-1.811 3.273-1.811 1.54 0 2.95-.345 3.134-.767.183-.422 2.696-2.485 5.583-4.585s5.25-4.191 5.25-4.647c0-.456 2.271-2.227 5.047-3.935 2.776-1.708 4.774-3.546 4.441-4.086-.333-.539.11-.98.984-.98.875 0 1.872-.734 2.216-1.63.717-1.867 8.639-9.809 13.023-13.056 1.623-1.203 4.367-5.061 6.096-8.573 1.729-3.513 4.103-7.254 5.275-8.314 1.172-1.06 2.997-3.624 4.055-5.697 1.058-2.074 3.629-6.022 5.712-8.774 3.825-5.054 5.43-9.486 9.037-24.956 3.576-15.341 4.414-22.897 3.598-32.468-.423-4.967-.899-11.174-1.056-13.791-.682-11.335-2.589-27.173-3.47-28.82-.527-.984-.954-2.832-.95-4.105.01-2.766-2.461-13.797-5.111-22.816-1.05-3.575-2.379-8.75-2.952-11.5-.574-2.75-1.402-6.644-1.842-8.653-1.009-4.614-5.588-12.501-8.009-13.797-1.014-.543-2.811-2.913-3.992-5.268-1.182-2.355-4.388-6.96-7.125-10.232-2.737-3.273-4.977-6.945-4.977-8.161 0-2.325-7.339-12.389-9.035-12.389-.543 0-3.62-1.797-6.837-3.993-3.218-2.196-7.433-4.654-9.368-5.463-1.934-.808-3.768-2.123-4.075-2.921-.306-.799-1.823-2.058-3.371-2.797-1.555-.743-2.952-2.31-3.123-3.503-.333-2.331-6.015-5.481-14.374-7.967-3.549-1.056-4.76-1.933-5-3.621-.225-1.58-2.061-3.116-6.317-5.284-3.3-1.682-7.8-4.106-10-5.387-4.877-2.841-18.571-3.889-20.496-1.569-.918 1.106-.262 1.494 3.476 2.054 6.058.909 5.339 2.864-1.194 3.249-4.842.286-5.102.169-6.119-2.75-.585-1.676-1.488-3.048-2.007-3.048-.519 0-1.253-1.233-1.631-2.74C296.452 53.97 292 52.15 292 56c0 1.344.667 2 2.031 2 1.118 0 2.33.788 2.694 1.75.365.962 1.251 2.345 1.969 3.071 2.882 2.917-.502 7.195-5.667 7.164-2.045-.013-2.241-.214-1.027-1.055 1.111-.769.282-.959-3.198-.731-4.91.321-6.983-1.618-4.445-4.156.835-.835.793-1.332-.163-1.923-1.022-.632-.969-1.062.259-2.081 1.048-.87 1.547-.922 1.547-.161 0 .617 1.125 1.122 2.5 1.122 1.482 0 2.5-.573 2.5-1.406 0-.948-.703-1.223-2.156-.843-1.535.401-1.939.212-1.402-.657.566-.916-.126-1.056-2.768-.561-3.213.603-3.663.389-5.124-2.436-.881-1.703-2.095-3.097-2.698-3.097-.706 0-.631.561.211 1.576 1.084 1.307 1.063 1.732-.127 2.485-1.169.739-1.1.911.373.924.995.008 1.531.465 1.191 1.015-.34.55-.029 1.014.691 1.03.855.02.735.366-.346.997-1.468.857-1.331 1.311 1.216 4.038 2.436 2.608 2.689 3.362 1.675 4.986-1.974 3.161-6.671 4.293-9.151 2.205-3.31-2.787-3.587-3.596-1.879-5.483 1.503-1.662 1.406-1.773-1.551-1.773-3.572 0-3.94-.684-1.405-2.608 1.586-1.204 1.482-1.331-1.108-1.36-2.555-.029-2.792.234-2.231 2.468.717 2.859.596 2.916-2.864 1.339-2.962-1.349-3.134-2.109-.967-4.276 2.809-2.809.975-3.774-2.101-1.106-3.399 2.947-9.556 5.111-11.94 4.196-.887-.34-2.383-2.025-3.326-3.745-2.982-5.443-5.065-7.57-6.013-6.139-.618.932-1.199.601-2.19-1.25-.784-1.465-2.218-2.513-3.429-2.504-1.75.013-1.842.187-.581 1.095m-66.352 24.982c-1.3 1.856-1.278 2.289.194 3.849 4.058 4.302 5.035 5.933 3.845 6.418-.653.266-.062.526 1.313.577 1.375.052 2.05.425 1.5.829-1.667 1.225-1.338 3.855.637 5.088 2.188 1.367 2.699-.617.68-2.636-.651-.651-.852-1.516-.446-1.921.406-.406 1.139-.089 1.629.704 1.04 1.682 1.217 1.54 3.369-2.693 1.096-2.156 1.278-3.407.559-3.851-.585-.362-.823-1.288-.528-2.057.336-.875-.128-1.399-1.237-1.399-.976 0-3.299-1.125-5.163-2.5-4.111-3.033-4.496-3.058-6.352-.408m55.85.91c-2.802 2.924-2.826 3.039-.937 4.468 1.067.806 2.306 1.481 2.754 1.498.448.018 1.95 1.382 3.338 3.032 3.252 3.865 6.566 3.905 9.267.112 1.771-2.486 1.856-3.053.612-4.086-.795-.659-1.901-.916-2.459-.571-.558.345-2.009-.516-3.224-1.914-1.215-1.398-2.804-2.541-3.529-2.541-.726 0-1.32-.675-1.32-1.5 0-2.262-1.317-1.822-4.502 1.502m-8.346 1.461c.45 2.494-7.851 4.618-9.274 2.373-.633-.999-.851-1.02-.863-.086-.008.688-.69 1.25-1.515 1.25s-1.5.438-1.5.974c0 1.32 5.191 3.862 6.75 3.305.688-.245 1.25.117 1.25.804 0 .688.262.988.583.667.321-.321 1.515.348 2.654 1.487l2.071 2.071 2.405-4.732 2.404-4.731-2.656-2.657c-2.264-2.263-2.605-2.371-2.309-.725m87.348.261c-3.277.805-4.598 2.39-3.89 4.667.631 2.029.581 2.043-1.306.359-2.579-2.301-3.447-2.178-5.615.801-3.095 4.251-1.433 6.793 4.04 6.176 2.485-.28 4.906-1.121 5.379-1.868.474-.747.868-1.04.877-.65.008.39 2.262-.42 5.008-1.799l4.993-2.508-1.993-2.14c-1.096-1.176-1.993-2.504-1.993-2.951 0-.861-2.207-.897-5.5-.087m-40.301 4.026a333.588 333.588 0 00-1.767 5.25c-.531 1.67 8.951 13.298 11.286 13.841.936.218 1.274 1.081.933 2.384-.504 1.929-.203 2.012 5.408 1.503 3.267-.296 5.941-.385 5.941-.198s-.433 1.478-.962 2.869c-.616 1.62-.616 2.744 0 3.125.529.327.962-.306.962-1.406 0-2.3 1.092-3.142 5.413-4.175l3.087-.738-2.857-.103c-2.174-.078-2.712-.48-2.25-1.684.334-.87.607-1.796.607-2.059 0-.262.45-.199 1 .141.567.351 1-.49 1-1.941V96l2 2c1.1 1.1 2 2.414 2 2.921 0 .506 1.462 1.279 3.25 1.719 4.621 1.135 5.029 1.067 5.316-.89.141-.963-.153-1.75-.654-1.75-.502 0-.912-.567-.912-1.259 0-1.227-2.052-2.86-6.864-5.462-2.981-1.613-3.136-1.602-3.136.221 0 .825-.45 1.5-1 1.5s-1-.648-1-1.441c0-2.082-1.673-2.805-3.825-1.653-3.345 1.791-7.414 2.158-6.822.617.29-.757-.195-1.972-1.078-2.7-.883-.728-3.12-3.685-4.971-6.573-4.371-6.819-8.085-7.371-10.105-1.5m-40.677 4.286c.352.57-.755 3.21-2.46 5.868-1.909 2.974-2.853 5.478-2.456 6.513.745 1.941 4.04 1.622 3.603-.349-.199-.898.276-1.083 1.5-.587 7.059 2.866 9.52 2.717 7.539-.455-.837-1.341-.86-1.989-.078-2.249.678-.226.446-1.018-.607-2.072-2.569-2.568.481-2.245 3.855.409 1.478 1.163 2.932 1.869 3.232 1.569.753-.753-11.53-9.683-13.319-9.683-.797 0-1.161.466-.809 1.036M174 109.059c0 .518-.702.941-1.559.941s-1.262.48-.9 1.067c1.708 2.763-2.716 3.638-8.194 1.62-5.099-1.878-8.49-1.654-5.318.352.996.63 1.068.935.221.946-2.419.029-1.218 1.886 1.423 2.199 1.47.174 2.867.908 3.105 1.631.327.995-.505 1.177-3.423.749-3.793-.557-3.81-.545-1.081.745 1.525.721 2.425 1.661 2 2.089-.426.428.576.626 2.226.44 2.131-.24 2.96-.845 2.861-2.088-.076-.963.486-1.75 1.25-1.75s1.389-.373 1.389-.828c0-.81 5.015-.743 10 .133 1.375.242 2.838.497 3.25.567.412.071.75.803.75 1.628 0 .825.45 1.5 1 1.5 1.439 0 1.234-2.739-.25-3.338-.687-.277-.346-.54.759-.583 2.2-.086 4.912-3.588 3.966-5.12-.326-.527-2.254-.962-4.284-.965-2.03-.004-4.929-.652-6.441-1.441-1.512-.789-2.75-1.011-2.75-.494m20.223 10.203c-1.222 1.302-2.223 2.9-2.223 3.552 0 .653-.944 1.186-2.099 1.186-2.675 0-7.991 5.51-6.629 6.872.635.635.612 2.021-.066 3.967-1.196 3.432-.776 4.161 2.402 4.161 1.251 0 2.552.45 2.892 1 .34.55.115 1-.5 1-2.034 0-.077 1.752 2.51 2.247 1.62.309 2.844-.056 3.377-1.009.606-1.084 1.036-1.172 1.561-.323.398.645.228 1.771-.379 2.502-1.069 1.287-.517 4.531.788 4.633.354.028 2.583.218 4.954.423 3.25.28 4.461-.018 4.919-1.211.498-1.298.751-1.194 1.406.578.709 1.915 1.549 2.16 7.415 2.16 7.55 0 8.863-2.274 1.621-2.807-2.294-.17-4.172-.654-4.172-1.077 0-.424 2.086-.652 4.637-.508 5.319.3 6.127-.297 9.704-7.174 1.411-2.714 2.565-4.259 2.564-3.434-.001.825-1.492 4.397-3.312 7.937l-3.31 6.437 5.985 2.83c4.5 2.129 6.315 2.557 7.315 1.727.731-.607 1.757-.839 2.279-.516 1.095.677.314 4.585-.916 4.585-1.158 0-.756 4.354.48 5.197.562.384 1.336.188 1.721-.435.511-.827 1.121-.784 2.257.159 1.558 1.293 4.923-.216 12.272-5.502 2.026-1.457 2.255-1.416 3.331.594 1.332 2.488 1.101 2.888-2.007 3.487-3.284.632-3.601 1.319-1.427 3.092 1.49 1.215 1.554 1.456.283 1.062-.948-.294-2.607.517-3.924 1.918-2.655 2.827-3.53 2.973-5.573.93-1.189-1.189-1.94-1.261-3.644-.349l-2.147 1.148 2.466 1.6c6.125 3.972 10.561 8.975 10.453 11.79-.059 1.545.138 3.259.437 3.809.3.55.552 1.407.561 1.905.015.903.934 1.156 7.515 2.065 2.563.354 3.099.214 2-.524-1.135-.762-.891-.867 1-.432 1.375.316 3.512.651 4.75.743 2.288.171 2.634.792 2.284 4.102-.108 1.023.243 1.588.78 1.256 1.38-.853 2.059 1.507 1.118 3.885-.671 1.695-.802 1.733-.862.25-.079-1.967-1.694-2.377-2.293-.582-.368 1.105-7.453 1.578-10.777.72-1.059-.274-1.426.293-1.25 1.928.137 1.274-.191 3.14-.731 4.148-1.447 2.705 3.432 5.86 6.296 4.071 1.686-1.053 1.885-.999 1.361.366-.353.921-.097 1.612.605 1.631.671.017.345.692-.722 1.5-1.368 1.035-1.516 1.459-.5 1.436 3.216-.071 5.044-2.566 3.963-5.41-1.313-3.454-1.3-3.558.447-3.558.894 0 1.243.586.893 1.5-.669 1.744.744 1.994 2.325.413.783-.783 1.275-.783 1.759 0 .37.598 2.025 1.087 3.679 1.087 1.653 0 3.915.486 5.026 1.081 2.718 1.454 3.845.121 1.406-1.663-1.066-.78-3.905-1.418-6.307-1.418-2.657 0-4.126-.392-3.75-1 .34-.55 1.477-1 2.528-1 1.286 0 1.721-.489 1.334-1.5-.91-2.37 2.553-1.817 4.694.75 1.444 1.731 1.885 1.885 1.911.667.021-1.02.832-1.518 2.283-1.401 2.707.218 4.041-1.46 2.57-3.232-.81-.977-.557-1.284 1.058-1.284 1.167 0 2.122-.45 2.122-1s-.627-1-1.393-1-1.652-.675-1.969-1.5c-.316-.825-1.071-1.5-1.678-1.5-1.237 0-4.096 2.592-3.912 3.548.303 1.578-1.078 1.538-1.687-.049-.45-1.173-.049-2.254 1.168-3.144 1.788-1.307 1.783-1.355-.138-1.355-1.611 0-2.391-1.382-4.093-7.25-5.574-19.218-6.297-25.454-2.793-24.11.87.334 1.344.844 1.054 1.135-.29.29.253 1.12 1.207 1.844 1.631 1.239 1.623 1.319-.133 1.349-1.443.025-1.729.543-1.263 2.282.331 1.238.609 2.636.616 3.108.008.473 1.171.568 2.586.213 1.747-.438 3.646.019 5.921 1.425 2.14 1.322 3.581 1.693 3.992 1.028 1.263-2.043-.688-5.084-4.308-6.713-3.176-1.43-3.38-1.708-1.5-2.043 4.606-.821 5.196-7.268.665-7.268-1.238 0-1.334.304-.439 1.383.889 1.071.785 1.523-.459 2-3.11 1.193-5.629.627-6.154-1.383-.288-1.1-.921-2-1.407-2h-1.633c-.413 0-.806.45-.875 1-.265 2.117-.416 2.211-1.764 1.092-.764-.634-1.886-3.126-2.493-5.539-.785-3.116-2.275-5.387-5.146-7.845-5.227-4.474-25.482-14.844-34.472-17.649-3.85-1.201-11.5-4.39-17-7.086-13.015-6.382-14.473-6.695-17.277-3.711m103.763 11.265c-1.281 2.393-3.986 4.129-3.986 2.558 0-.468-.9-1.087-2-1.375-2.296-.6-2.469.167-.839 3.743 1.226 2.692 2.319 3.198 3.339 1.547.34-.55 1.097-1 1.681-1 .708 0 .677.466-.091 1.392-.95 1.144-.393 1.472 3.127 1.845 4.823.509 7.783-.567 7.783-2.831 0-.897.475-1.231 1.155-.811.715.443.883.275.44-.44-.422-.685-.078-1.155.846-1.155 1.692 0 2.197-1.92.559-2.125-1.445-.181-2.154-.405-5.5-1.738-1.65-.658-3.506-1.372-4.124-1.587-.618-.215-1.694.675-2.39 1.977M162.955 132c-.699 3.227-.583 4 .602 4 .849 0 1.146.61.772 1.585-.443 1.154-1.455 1.44-3.719 1.053-1.71-.293-5.81-.811-9.11-1.152-5.881-.607-5.958-.583-3.883 1.198 2.487 2.133 3.664 6.018 2.027 6.689-.629.258-.394.505.523.548.916.043 1.826.557 2.021 1.142.36 1.082 13.041 1.532 14.677.52.482-.298.852-2.013.822-3.812-.03-1.799.417-4.171.994-5.271 1.328-2.534.642-4.561-1.294-3.818-.818.314-2.12-.272-2.903-1.307-.781-1.031-1.469-1.65-1.529-1.375m144.532 14.022c-.348.561-.39 3.261-.095 6 .296 2.738.178 4.978-.261 4.978s-.798.675-.798 1.5c0 1.811.852 1.915 2.467.3 1.41-1.41 1.58 1.368.287 4.678-.837 2.141-.179 5.477 2.466 12.522 1.093 2.912 1.753 7.94 1.87 14.25l.181 9.75-4.052.03c-3.558.027-3.808.172-2.052 1.186 4.032 2.328 5.209 4.37 2.25 3.902-.413-.065-.75.305-.75.822 0 .516-1.687 1.099-3.75 1.293l-3.75.355 3.837 1.756c2.841 1.3 4.182 1.47 5.161.657 3.49-2.896 2.192 4.531-1.485 8.499-1.019 1.1-2.627 3.949-3.574 6.331-.947 2.382-2.007 3.868-2.356 3.303-.404-.654-1.173-.689-2.109-.097-1.219.771-1.153.935.384.948 1.526.012 1.735.507 1.169 2.763-.379 1.511-.765 2.749-.858 2.75-.093.001-1.558.772-3.256 1.713-1.699.94-4.399 1.615-6 1.5-2.484-.18-2.959.186-3.224 2.487l-.312 2.699-3.338-1.875c-3.847-2.161-6.302-2.067-8.038.307-.672.919-1.734 1.671-2.361 1.671-.627 0-1.14.45-1.14 1 0 1.093.636 1.172 9.5 1.188 6.986.012 9.36.854 7.279 2.581-.814.675-6.597 1.199-14.593 1.321-12.403.19-13.394.064-15.579-1.989-1.283-1.206-2.732-2.118-3.22-2.028-3.494.646-4.662-.261-1.887-1.465 2.727-1.183 3.11-1.111 4.215.795.668 1.153 1.23 1.508 1.25.788.019-.72.447-1.055.95-.744.503.311 1.149 0 1.437-.691.382-.919.904-.786 1.945.494 1.852 2.277 6.703 2.357 6.703.11 0-.902.788-2.237 1.75-2.968 1.591-1.208 1.599-1.331.083-1.36-.916-.018-1.853.529-2.082 1.216-.229.686-.731-.724-1.117-3.134-.782-4.893-.351-5.954 1.72-4.235 1.068.886 2.089.882 4.274-.018l2.872-1.182-4.807-1.102c-3.946-.905-5.092-1.69-6.397-4.385-1.74-3.593-5.003-4.066-4.516-.654.154 1.079.551 3.65.882 5.712.397 2.479.218 3.75-.53 3.75-.623 0-1.132-.87-1.132-1.933 0-2.664-3.78-3.75-5.39-1.549-1.348 1.845-4.701 1.713-5.341-.211-.236-.708 1.083-1.47 3.247-1.876 4.434-.832 5.389-2.801 2.78-5.732-2.069-2.323-5.288-11.461-5.308-15.064-.038-6.991-3.979-18.207-7.471-21.266-3.31-2.899-8.303-4.878-11.256-4.461-.682.096-3.105-.327-5.384-.941-7.443-2.004-36.476-1.412-42.877.875-8.266 2.953-11.892 5.058-13.781 8-.938 1.462-5.534 7.332-10.213 13.045-4.678 5.713-10.529 14.038-13.001 18.5l-4.494 8.113.242 12.07c.199 9.88.697 13.37 2.745 19.231 1.376 3.939 2.502 8.033 2.502 9.098 0 4.59 3.644 7.065 5.67 3.851.518-.822.968-.222 1.314 1.75.562 3.206 4.023 4.488 6.963 2.579 1.199-.779 1.028-1.303-1-3.062l-2.447-2.123 2.312.64c2.189.606 2.295.409 2-3.697-.325-4.518-2.214-5.814-4.378-3.004-1.695 2.201-4.71.967-5.579-2.283-.985-3.684-.768-3.886 4.416-4.102 2.326-.098 4.535-.238 4.909-.312.374-.075.275-1.551-.221-3.28-.496-1.73-.658-4.682-.359-6.562.943-5.936-3.478-8.349-7.845-4.281-1.89 1.761-2.269 1.82-3.025.469-1.824-3.259-.445-4.987 3.783-4.742 3.749.217 3.838.16 1.487-.951-1.375-.65-2.666-1.297-2.869-1.438-1.35-.936 3.527-3.485 6.755-3.53 2.318-.032 3.833-.514 3.73-1.187-.352-2.313-1.797-3.634-3.975-3.634-1.233 0-2.729-.488-3.325-1.084-1.077-1.077-.662-4.846.551-4.993.348-.042 1.533-.308 2.633-.591s3.8-.586 6-.674c2.2-.087 4.113-.496 4.25-.908.632-1.897.023-2.55-3-3.218-1.896-.42-2.666-.944-1.849-1.259 1.025-.395.775-.876-.929-1.788l-2.331-1.248 3.082-1.594c2.823-1.46 3.134-1.459 3.697.008.338.882.133 2.183-.455 2.892-.802.965-.572 1.447.916 1.919 1.74.552 9.119-4.928 9.119-6.772 0-1.176-3.388-1.613-4.614-.595-.748.621-2.034.87-2.856.555-1.798-.69-.924-3.65 1.077-3.65.766 0 1.393-.575 1.393-1.278 0-1.306 2.432-3.745 5.379-5.395 2.385-1.334 8.601-.438 7.991 1.152-.801 2.086 6.207 2.931 8.865 1.069l2.21-1.548h-2.722c-2.086 0-2.723-.484-2.723-2.067 0-1.521-.467-1.92-1.764-1.508-1.126.358-2.234-.192-3.063-1.52-1.169-1.872-1.104-2.018.646-1.463 1.275.405 2.155.069 2.556-.976.336-.876 1.064-1.313 1.618-.97.554.342 1.007.229 1.007-.252 0-1.23 6.623-4.247 9.284-4.229 2.654.019 3.663.673 6.25 4.052 2.181 2.847 2.358 2.933 6.088 2.933 4.11 0 1.374 2.367-4.622 4-3.747 1.02-4.67 1.605-3.535 2.24.844.473 1.535 1.357 1.535 1.965 0 .608-.823.36-1.829-.55-2.017-1.826-3.641-2.224-2.671-.655.34.55-.323 1-1.472 1-2.63 0-3.754 2.703-1.897 4.56 1.207 1.206 2.14 1.17 6.608-.259 4.863-1.555 5.324-1.554 7.06.017 1.022.925 2.376 1.682 3.008 1.682 1.844 0-.829-4.987-2.718-5.07-1.176-.052-1.07-.294.411-.93 1.1-.473 1.452-.891.781-.93-.733-.042-.956-.754-.559-1.787.529-1.381.916-1.087 1.971 1.5 1.383 3.389 1.49 3.435 7.807 3.368 3.926-.041 3.942-.027.858.755-6.719 1.705-6.594 1.381-3.334 8.647 1.637 3.648 2.976 7.224 2.976 7.947 0 .813.856 1.161 2.25.913 1.238-.22.563.333-1.5 1.229-4.369 1.898-5.342 6.436-1.787 8.338 1.153.618 1.728 1.663 1.393 2.535-.368.957.039 1.485 1.144 1.485 1.165 0 1.516.516 1.096 1.611-.476 1.239-.212 1.441 1.143.874 8.563-3.588 15.618-5.528 16.584-4.562 1.727 1.727 2.865 1.245 2.177-.923-.721-2.273.982-2.734 2.2-.596.44.772 1.925 1.611 3.3 1.864 2.064.379 1.919.483-.829.596-3.201.131-3.306.262-2.702 3.386l.628 3.25-1.78-2.75c-2.125-3.282-3.18-3.359-10.317-.75-3.009 1.1-5.542 2-5.629 2-.086 0-.441.74-.788 1.645-.838 2.183 2.132 5.355 5.013 5.355 1.257 0 2.533.399 2.834.887 1.189 1.924 7.916 2.36 9.206.596 1.241-1.697 3.892-1.146 2.821.586-.316.512.127.931.984.931s1.559.462 1.559 1.026c0 .609 1.118.454 2.75-.38 6.336-3.238 10.983 3.778 5.314 8.022-1.972 1.476-1.706 1.716 5.361 4.841l5.824 2.576-.536-2.292c-.295-1.261-.775-3.305-1.067-4.543-.352-1.491-.072-2.25.83-2.25 2.303 0 4.747 1.244 3.711 1.889-1.641 1.022-1.867 5.588-.278 5.6.775.006 2.125 1.435 3 3.176 1.049 2.088 2.562 3.362 4.444 3.745 3.138.639 4.999-.032 4.104-1.479-.316-.512-.125-.931.425-.931s1.316.512 1.703 1.137c.435.704 1.188.038 1.978-1.75l1.275-2.887.081 2.75c.104 3.523 2.288 3.573 5.008.115 2.691-3.42 2.626-5.957-.199-7.808-2.853-1.869-6.798-1.03-6.077 1.292.473 1.525.409 1.526-.844.018-.746-.899-2.246-1.84-3.332-2.093-1.804-.419-1.759-.552.525-1.53 3.38-1.449 15.37-13.905 17.539-18.222 1.576-3.135 1.822-3.279 2.493-1.465 1.69 4.569 6.968 5.803 6.968 1.629 0-2.032-2.936-5.186-4.829-5.186-2.015 0-.219-5.627 3.136-9.822.582-.727 2.115-3.877 3.408-7 7.266-17.552 8.577-26.684 5.409-37.678-1.109-3.85-3.398-11.95-5.087-18-4.593-16.453-9.1-24.443-11.55-20.478m-135.671 14.031c-.4 1.199-6.883 2.888-11.222 2.923-1.598.013-4.38 1.149-6.183 2.524s-3.758 2.5-4.344 2.5c-.587 0-1.067.422-1.067.937 0 1.417 7.331.031 8.669-1.639 1.008-1.257 1.458-1.171 3.25.621 2.489 2.489 3.418 2.584 5.126.526 1.521-1.831 5.502-4.14 4.587-2.658-.335.542.285 1.22 1.379 1.506 2.235.584 2.757-1.061.6-1.889-.765-.293-1.192-1.292-.949-2.219.438-1.674 1.506-1.853 12.644-2.108 2.251-.051 3.555-.493 3.191-1.082-.831-1.344-15.232-1.291-15.681.058m-26.764 19.741c-.029.711-.614 1.175-1.302 1.031-.687-.145-2.533.592-4.101 1.637-2.42 1.613-3.317 1.724-5.934.737-1.696-.641-3.238-1.009-3.427-.82-.679.678 1.684 5.621 2.687 5.621.564 0 1.025.469 1.025 1.042 0 3.001 2.445 3.715 6.49 1.896 5.339-2.4 7.853-3.289 8.76-3.097.412.088.75-.291.75-.841s-.402-1-.893-1-1.593-1.687-2.449-3.75c-.855-2.062-1.578-3.168-1.606-2.456M108.2 206.607c-1.562 2.791 3.581 6.975 10.263 8.35 2.062.424 3.145 1.36 3.561 3.076l.599 2.467 1.188-2.183c1.034-1.9.907-2.272-.975-2.869-1.928-.612-1.98-.788-.482-1.626 1.215-.68 2.404-.371 4.298 1.119 1.44 1.132 3.345 2.047 4.233 2.032 1.058-.017.662-.617-1.15-1.74-1.52-.943-2.558-2.251-2.306-2.908.735-1.917-6.34-5.643-8.039-4.234-1.024.85-1.744.86-2.732.04-.738-.612-1.599-.857-1.913-.542-.314.314-1.698-.167-3.075-1.069-2.333-1.529-2.569-1.523-3.47.087m186.687 7.643c-.651 1.238-2.242 3.522-3.536 5.077-2.909 3.497-2.893 3.658.604 6.416 2.519 1.986 3.133 2.093 5.367.934 1.8-.934 2.273-1.714 1.651-2.72-.562-.91-.322-2.019.676-3.121.851-.941 1.251-2.188.89-2.773-.4-.647.367-1.063 1.961-1.063 3.184 0 2.532-1.339-1.674-3.437-4.084-2.037-4.533-1.985-5.939.687m-96.002 2.613c-3.609 2.818-11.213 6.571-12.715 6.275-.732-.145-2.42.451-3.75 1.323-2.993 1.961-3.27 4.574-.405 3.825 1.549-.405 1.871-.153 1.393 1.093-.379.988-.092 1.66.735 1.721.746.055.232.419-1.143.809-2.205.625-1.756.962 3.802 2.852 6.195 2.107 6.292 2.11 5.675.166-.345-1.088-.256-1.871.198-1.74 1.554.447 5.126-2.542 4.618-3.865-.279-.727-.009-1.322.6-1.322s1.107-.477 1.107-1.059-.449-.781-.998-.442c-.549.339-1.999-.084-3.223-.941-2.184-1.53-1.855-1.938 1.318-1.636.878.083 2.171-.54 2.872-1.385.702-.845 1.91-1.537 2.685-1.537 2.701 0 2.534 3.028-.487 8.833-2.877 5.527-6.22 16.786-7.629 25.688-.508 3.211.28 6.79 3.913 17.776 2.502 7.565 4.56 14.756 4.572 15.979.029 2.717 3.373 8.628 12.201 21.567 10.254 15.028 19.113 22.081 27.803 22.135 1.941.012 4.444.663 5.563 1.447 4.565 3.198 27.93 10.161 28.888 8.61.628-1.016-4.761-4.817-7.973-5.623-1.98-.497-2.338-.903-1.35-1.529.952-.603.989-.857.126-.868-.67-.008-.972-.657-.671-1.442.403-1.05-.016-1.28-1.588-.869-1.377.36-1.932 1.087-1.564 2.047.434 1.131.028 1.353-1.694.928-2.303-.57-10.119-2.632-12.664-3.341-1.058-.295-.833-.993.919-2.858 2-2.129 3.085-2.435 7.9-2.224 7.293.319 7.587-1.878.581-4.342-5.837-2.053-7.5-2.269-7.5-.971 0 .518-.944 2.543-2.098 4.498l-2.098 3.556-2.652-1.824c-1.459-1.003-4.08-2.393-5.825-3.088-5.181-2.064-12.9-10.845-11.108-12.637.221-.221 1.5.367 2.841 1.308 1.342.94 3.319 1.561 4.393 1.38 1.662-.281 1.761-.099.664 1.223-1.365 1.645-.623 4.072.948 3.101 1.49-.921 5.03-1.423 4.549-.645-.541.877 8.972.93 9.848.055.973-.971-5.95-2.002-8.078-1.203-1.71.642-1.748.54-.41-1.103 1.346-1.651 1.127-2.106-2.5-5.185-3.761-3.195-4.272-3.343-9.547-2.768l-5.573.607-5.26-6.693c-2.893-3.681-5.11-6.819-4.927-6.974.183-.155 2.225-1.46 4.537-2.9 4.069-2.534 4.168-2.719 3.098-5.788-.915-2.627-1.293-2.914-2.203-1.679-.605.821-1.661 1.302-2.348 1.071-.688-.232-1.523.291-1.857 1.162-1.06 2.761-2.865 1.717-4.151-2.401-1.632-5.231-1.568-6.355.321-5.63.86.33 3.316-.408 5.457-1.64 4.203-2.42 4.459-4.473 1.185-9.527-.812-1.255-1.202-2.557-.865-2.893.337-.337.896.127 1.242 1.031.347.904 1.681 1.643 2.965 1.643 1.284 0 2.612.45 2.952 1 2.177 3.523 3.357-1.616 1.495-6.513-.857-2.253-1.424-2.552-3.841-2.021-1.941.426-3.24.136-4.117-.922-1.725-2.078-3.366-1.943-5.537.456-2.341 2.586-3.5 2.535-3.5-.154 0-1.276 1.633-3.552 4.007-5.584 2.204-1.887 3.716-3.901 3.361-4.476-.367-.594-.046-.843.743-.578.764.257 1.924-.247 2.577-1.12 1.042-1.394 1.624-1.129 4.748 2.162 1.958 2.063 3.914 3.75 4.347 3.75.862 0 7.217 12.397 7.217 14.078 0 .572-.477.745-1.06.385-1.116-.69-6.936 1.328-6.946 2.408-.003.346 1.009 2.984 2.25 5.862 1.833 4.252 2.713 5.236 4.697 5.25 2.294.016 2.33.098.597 1.365-1.118.818-1.538 1.844-1.066 2.607.469.759 1.026.873 1.403.287.936-1.456 5.125-2.558 5.125-1.348 0 .565-.948 1.911-2.106 2.99-3.225 3.005-1.567 4.048 5.884 3.705 6.69-.308 6.745-.289 11.58 4.051 3.666 3.289 5.671 4.36 8.167 4.36 1.82 0 8.166 1.625 14.103 3.612 10.423 3.488 11.024 3.573 17.525 2.5 3.703-.612 8.221-1.122 10.04-1.135 11.398-.079 40.966-10.714 42.379-15.243.384-1.229 1.132-2.514 1.663-2.855 2.31-1.486 9.761-21.903 9.776-26.786.006-1.976.633-5.644 1.394-8.15 2.042-6.729 3.2-22.311 1.618-21.784-1.663.554-9.023 19.297-9.023 22.978 0 1.61-.672 4.536-1.493 6.501-.822 1.966-1.201 4.049-.843 4.628.449.726-2.065.845-8.094.381-6.827-.525-8.654-.395-8.331.59.693 2.114 7.876 4.031 10.546 2.815 5.999-2.733 7.649-.798 3.715 4.359-1.375 1.803-2.5 4.211-2.5 5.352 0 3.606-1.144 5.27-4.621 6.723-1.859.777-3.379 1.885-3.379 2.463 0 .578-1.18 1.051-2.622 1.051-2.218 0-2.431-.232-1.378-1.5.997-1.201.988-1.5-.044-1.5-.709 0-.992-.297-.629-.66.363-.363-.303-1.335-1.48-2.16-1.922-1.346-2.266-1.328-3.367.178-.721.986-1.896 1.42-2.853 1.052-1.701-.652-2.258-2.41-.764-2.41.474 0 .87-1.012.879-2.25.009-1.238.071-2.812.137-3.5.139-1.434 3.722-1.704 4.563-.344.308.498 1.47.668 2.582.377 1.904-.497 1.919-.604.262-1.816-1.592-1.164-1.428-1.379 1.727-2.249 2.863-.791 3.161-1.099 1.665-1.725-1.217-.509-2.782-.053-4.71 1.372-1.588 1.174-3.595 2.135-4.46 2.135-2.526 0-8.159 2.651-10.406 4.898-3.317 3.317 1.059 9.975 4.969 7.558.599-.37 1.766.294 2.594 1.476 1.017 1.452 2.126 1.952 3.42 1.541 2.677-.849 2.402.966-.335 2.218-6.653 3.042-14.067 4.404-25.75 4.729-6.875.192-13.85.7-15.5 1.13-2.741.714-2.879.635-1.602-.915 1.217-1.477 1.152-1.884-.5-3.134-1.044-.791-1.505-1.452-1.026-1.469.48-.018.313-.707-.372-1.532-.685-.825-.91-1.5-.5-1.5.41 0 .185-.675-.5-1.5s-2.592-1.5-4.239-1.5c-2.633 0-2.915.272-2.339 2.25 2.25 7.723 2.067 8.755-1.541 8.674-8.37-.188-16.148-5.848-15.339-11.162.333-2.188.227-2.654-.32-1.415-.666 1.506-1.013 1.599-1.881.5-1.665-2.106-2.353-6.213-1.315-7.855.519-.821.965-1.042.99-.492.026.55.708.126 1.516-.941.807-1.068 1.468-1.405 1.468-.75 0 2.394 2.896 1.105 4.431-1.971 1.812-3.633 1.3-4.776-1.388-3.097-1.501.937-1.982.861-2.463-.392-.338-.883-1.246-1.307-2.097-.981-.825.317-2.697.121-4.159-.435-1.462-.556-2.92-.623-3.241-.149-1.966 2.906-4.169 1.986-7.424-3.104-3.31-5.173-8.876-10.68-10.795-10.68-.54 0-.699-.459-.352-1.019.575-.931-6.008-10.981-7.193-10.981-.281 0-1.753.885-3.272 1.967-2.405 1.712-3.18 1.809-5.986.75-2.848-1.075-3.386-.993-4.631.71-1.984 2.713-2.551 1.594-1.365-2.699 1.331-4.821 3.379-6.725 7.256-6.743 4.44-.022 6.773-1.682 4.526-3.22-1.449-.992-1.479-1.397-.244-3.281 2.45-3.74-.409-10.028-4.472-9.837-1.717.081-2.872-.257-2.567-.75.305-.493.19-.931-.255-.974-.445-.042-1.694-.241-2.775-.443-1.081-.201-2.447.032-3.034.52-1.409 1.17-4.789.634-5.279-.837-.541-1.624-1.575-1.457-4.336.7m124.221 1.598c-1.317 1.971-2.115 3.863-1.774 4.205.342.341.905-.119 1.251-1.023.405-1.053 1.787-1.643 3.851-1.643 3.001 0 3.19.202 2.784 2.967-.261 1.777-1.194 3.208-2.327 3.567-4.041 1.283-1.269 4.062 5.062 5.074 3.174.508 4.16.384 3.641-.456-.392-.633-.227-1.152.367-1.152.604 0 .879-1.098.625-2.5-.25-1.375-.033-2.5.48-2.5 4.203 0-3.582-8.901-8.434-9.643-2.719-.416-3.448-.007-5.526 3.104M102 223.5c0 .825.477 1.5 1.059 1.5s.792.433.465.962c-.372.602-1.504.616-3.024.038-3.664-1.393-4.16.7-.842 3.553 1.563 1.344 3.517 2.41 4.342 2.367 1.025-.053 1.104-.238.25-.582-.687-.278-1.25-.917-1.25-1.421 0-1.615 2.631-.982 4.5 1.083.995 1.1 2.265 2 2.822 2 .556 0 .738-.273.405-.606-.334-.334.277-1.556 1.358-2.715 1.08-1.16 1.763-2.632 1.518-3.272-.246-.64.058-1.668.675-2.285.829-.829.694-1.122-.519-1.122-.903 0-1.933.472-2.289 1.049-.446.721-1.074.695-2.011-.083-.75-.622-2.285-.839-3.411-.481-1.191.378-2.048.203-2.048-.418 0-.587-.45-1.067-1-1.067s-1 .675-1 1.5m19.758 3.984c-.464 2.431-.25 2.634 2.618 2.48 5.215-.278 6.333-.066 4.789.913-.735.466-1.297 1.134-1.25 1.485.119.889-.051.893-3.272.084-1.982-.497-3.127-.292-3.735.669-1.334 2.107-1.078 3.885.561 3.885.935 0 1.245.581.854 1.601-.338.88.014 1.995.781 2.477 1.319.828 11.535.257 13.146-.734 1.122-.691.905-5.344-.25-5.344-.55 0-1-.505-1-1.122 0-.732.572-.648 1.644.242 1.456 1.208 1.567 1.12.97-.759-.482-1.519-.167-2.334 1.106-2.859 1.273-.526-.214-1.254-5.22-2.555-3.85-1.001-7.953-2.111-9.118-2.466-1.723-.525-2.212-.151-2.624 2.003m195.403 4.061c-.615 1.35-.715 2.455-.223 2.455s1.102-.562 1.354-1.25c.362-.988.731-.993 1.76-.023 1.051.99.577 1.53-2.458 2.798-3.111 1.3-3.552 1.821-2.554 3.023 1.343 1.618 5.527 1.961 6.414.526.338-.546 1.794-.576 3.546-.074 2.892.829 5.269-.323 2.756-1.336-.998-.402-.999-.522-.006-.585.688-.043 1.25-.754 1.25-1.579 0-.87.945-1.527 2.25-1.563 2.189-.062 2.183-.09-.236-1.055-1.367-.546-3.28-.784-4.251-.53-1.135.297-1.529.048-1.104-.695.364-.636.328-.858-.08-.492-.408.366-2.217.048-4.021-.705-3.12-1.304-3.332-1.252-4.397 1.085m-139.074 9.725c-1.386 3.647-.706 6.186 1.754 6.55 1.187.175 2.159.774 2.159 1.329 0 .602-1.212.744-3 .351-2.817-.619-3-.474-3 2.362 0 1.661.43 3.286.956 3.611.526.325.716 1.217.423 1.982-.601 1.566 2.767 3.759 4.799 3.125.727-.227 2.459-.659 3.849-.96 2.214-.479 2.521-1.053 2.473-4.637-.031-2.29-.645-4.455-1.397-4.92-1.064-.657-.955-1.057.527-1.928 2.208-1.297.142-3.369-2.39-2.397-1.88.722-3.358-1.694-2.593-4.238.331-1.1.249-1.666-.181-1.259-.43.408-1.378.247-2.107-.358-1.022-.848-1.542-.531-2.272 1.387m-47.415 1.391c-.214.214-2.087.453-4.162.531-3.446.13-3.612.261-1.907 1.507 1.793 1.311 1.778 1.388-.368 1.95-2.756.721-2.783 1.384-.192 4.679 4.196 5.334 7.556 6.981 10.416 5.107 1.389-.91 3.204-1.395 4.033-1.076.83.318 1.508.142 1.508-.39 0-.533-.675-.969-1.5-.969s-1.5-.675-1.5-1.5.563-1.387 1.25-1.25c.759.152 1.198-.732 1.119-2.25-.072-1.375-.185-3.451-.25-4.614-.1-1.776-.752-2.113-4.089-2.113-2.183 0-4.144.175-4.358.388m-15.349 3.589c-1.46 1.802-2.654 2.189-5.993 1.946-3.779-.275-4.12-.11-3.634 1.75.515 1.968 1.866 2.523 5.458 2.241 2.234-.175 3.344 2.955 1.428 4.027-2.89 1.618-.585 3.786 4.025 3.786 3.631 0 4.393-.326 4.393-1.878 0-2.173-2.475-4.564-3.847-3.717-1.036.641-4.371-3.854-3.503-4.721.3-.301 1.177-.304 1.948-.008.771.296 1.402.013 1.402-.628s.412-.912.915-.601c1.096.678 1.977-1.439 1.331-3.197-.676-1.838-1.871-1.533-3.923 1m189.551 5.997c-1.191 2.335-2.888 4.796-3.77 5.468-1.809 1.378-1.866 1.345 2.896 1.7 1.938.145 4.916-.523 6.673-1.498 2.92-1.618 3.224-1.628 3.804-.116.483 1.258.815 1.344 1.418.368.434-.701 1.197-1.198 1.697-1.103 4.684.882 4.708-3.496.03-5.451-1.858-.776-3.684-1.907-4.059-2.513-1.78-2.881-6.483-1.178-8.689 3.145M124.629 272.25c.347 3.402.205 4.784-.402 3.926-.581-.821-2.227-1.164-4.332-.902-3.062.381-3.173.498-1.124 1.196 2.485.847 1.381 3.53-1.452 3.53-.791 0-1.159.45-.819 1 .34.55-.007 1-.77 1-.989 0-1.422 1.475-1.506 5.122l-.116 5.121 5.138-.681c6.568-.872 6.754-1.012 6.754-5.121 0-2.45.449-3.441 1.559-3.441.857 0 1.29.435.962.966-.704 1.14 3.126 9.034 4.384 9.034.476 0 1.602-1.125 2.503-2.5s1.178-2.5.615-2.5-.97-.337-.905-.75c.435-2.753-.277-4.021-2.005-3.569-1.038.271-2.19.004-2.559-.594-.397-.641.172-1.121 1.387-1.17 6.674-.27 8.931-.18 10.494.42 2.451.94 3.929-.193 2.499-1.916-.744-.897-2.075-1.173-3.698-.765-1.643.412-2.307.269-1.889-.408 1.044-1.69-4.842-7.248-7.676-7.248-1.503 0-3.322-1.012-4.492-2.5-2.798-3.556-3.153-3.173-2.55 2.75m22.621 11.97c-2.185 1.054-2.73 3.086-2.289 8.53.135 1.668-.354 2.25-1.889 2.25-1.14 0-2.072.536-2.072 1.191s-.619.345-1.376-.69c-1.207-1.651-1.115-2.1.75-3.658 1.169-.977 1.571-1.791.892-1.81-.679-.018-2.704 1.304-4.5 2.938l-3.266 2.97 2.75.03c3.035.032 3.767 1.673 1 2.242-.963.198-2.237-.278-2.832-1.057-.897-1.174-1.63-.881-4.284 1.713-1.762 1.722-2.737 3.131-2.168 3.131.568 0 1.034 2.025 1.034 4.5 0 5.196.035 5.207 9.169 2.903 6.321-1.594 9.809-3.403 6.562-3.403-1.069 0-1.462-.536-1.095-1.494.316-.822.976-1.246 1.469-.941.492.304.902-.036.91-.756.01-.866.264-.946.75-.236.404.59 1.551 1.374 2.548 1.743.998.368 1.534 1.123 1.191 1.677-.366.592.638 1.007 2.437 1.007 1.682 0 3.059-.473 3.059-1.051s1.64-2.553 3.643-4.389c4.158-3.809 3.345-6.505-1.736-5.76-2.26.332-2.8-.01-3.074-1.949-.222-1.568-1.103-2.46-2.644-2.679-2.886-.409-3.563-2.059-2.255-5.5 1.104-2.902.736-3.101-2.684-1.452m158.25-.392c-3.644.751-6.142 2.988-4.178 3.742.916.352 1.443 1.002 1.169 1.444-1.025 1.658 8.242 5.199 10.477 4.003 1.14-.61 2.576-.799 3.191-.419 1.029.636.363-6.387-.709-7.475-.74-.752-8-1.697-9.95-1.295m56 6.172c-.782 2.465-2.049 2.555-3.508.25-.798-1.26-1.256-1.398-1.635-.494-.291.691-.874 1.043-1.297.781-.423-.261-1.747.566-2.943 1.838-2.878 3.064-1.924 5.831 1.737 5.037 1.716-.372 2.2-.257 1.375.329-1.52 1.08 2.372 7.559 4.826 8.031 2.514.484 5.758-2.529 3.979-3.696-.933-.611-1.886-.614-2.618-.006-.758.629-1.557.465-2.342-.48-.968-1.168-.76-1.518 1.118-1.877 1.64-.313 1.296-.488-1.192-.606l-3.5-.166 3.266-2.97c3.251-2.958 6.006-4.03 4.629-1.801-.493.798-.168.957 1.023.5.96-.369 1.934-.67 2.164-.67 1.138 0 .2-2.887-1.411-4.345-2.36-2.136-2.9-2.085-3.671.345m-169.762 8.692c-.969.253-1.505.875-1.191 1.384.541.875-.051 1.097-3.547 1.328-2.394.158-.342 6.685 2.891 9.194.778.604 1.123 1.57.768 2.146-1.511 2.443 2.582 2.039 5.2-.514 4.633-4.519 4.653-6.015.099-7.241-4.759-1.282-5.291-2.495-.708-1.615 1.956.375 2.719.281 1.916-.236-1.069-.689-1.009-.984.303-1.488.899-.345 2.737.094 4.083.976 2.81 1.841 3.405.219 1.056-2.876-1.376-1.813-6.203-2.521-5.108-.75.34.55.168 1-.382 1s-1.278-.45-1.618-1c-.645-1.043-.874-1.062-3.762-.308m152.762 1.376c-1.65 1.056-3.45 2.075-4 2.264-.628.215-.568.868.161 1.755.638.777 1.472 3.085 1.854 5.129.706 3.776 4.011 6.169 5.405 3.913.369-.597 2.079-.908 3.8-.69 2.067.262 3.314-.085 3.673-1.021.335-.872-.117-1.448-1.174-1.497-1.044-.048-1.228-.277-.469-.583.688-.278 1.25-.917 1.25-1.421s-.562-.804-1.25-.667c-.687.137-1.296-.65-1.352-1.75-.246-4.828-.356-5.114-1.359-3.529-.512.809-1.292 1.085-1.735.613-.442-.472-.267-1.05.39-1.286 1.458-.522.544-3.327-1.051-3.225-.629.04-2.493.938-4.143 1.995m-86.502 5.434c-3.856 3.978-3.697 4.276 3.895 7.334 4.399 1.772 5.677 1.941 6.937.918 1.295-1.052 1.442-.982.913.433-.709 1.892 11.001 6.509 13.793 5.438 2.311-.887 1.708-3.582-1.036-4.625-3.32-1.262-3.207-2.394.155-1.55 1.718.431 2.967.204 3.54-.642.559-.828.783.342.61 3.192l-.273 4.5 5.984.588c7.275.716 7.697.388 8.261-6.407.414-4.994.273-5.436-1.915-6.021-5.046-1.351-9.516-.751-10.479 1.407l-.922 2.067-2.384-2.067c-1.31-1.137-3.102-2.074-3.98-2.082-1.396-.014-1.408-.137-.097-.985 2.082-1.346-5.479-1.349-7.993-.004-1.487.796-2.462.395-4.857-2-3.884-3.884-6-3.778-10.152.506M330 304.264c-3.538 1.598-3.506 1.519-1.506 3.73 1.028 1.135 1.315 2.006.661 2.006-.635 0-1.155.45-1.155 1s1.111 1 2.469 1c1.912 0 2.321.383 1.816 1.699-.408 1.063-.802 1.251-1.052.5-.731-2.192-1.732-1.235-1.837 1.756-.153 4.328 4.868 6.099 7.2 2.539 1.429-2.181 1.431-2.618.022-4.629-1.435-2.049-1.403-2.327.415-3.601 1.084-.759 2.42-1.102 2.969-.763 1.986 1.228.942-2.205-1.316-4.327-2.541-2.387-4.874-2.631-8.686-.91m-11.472 1.986c-.226.688-.904 3.95-1.508 7.25s-1.334 7.091-1.622 8.425c-.449 2.078-.307 2.244.995 1.164.836-.694 1.989-.971 2.563-.616.574.355 1.044.168 1.044-.414s.689-1.059 1.531-1.059c.843 0 1.791-.675 2.107-1.5.317-.825 1.428-1.5 2.469-1.5 3.062 0 1.053-9.237-2.093-9.625-.558-.069-1.519-.181-2.136-.25-.786-.087-.749-.575.122-1.625 1.041-1.254.892-1.5-.909-1.5-1.185 0-2.338.563-2.563 1.25m-159.017 1.882c-3.768 1.216-6.117 1.55-6.334.9-.589-1.769-5.45-1.118-11.026 1.478-2.942 1.369-6.092 2.497-7 2.505-1.431.014-1.451.145-.151.985 1.157.748 1.19.973.143.985-.855.009-1.12.633-.716 1.685.352.919.096 2.007-.569 2.418-1.491.921-2.208 4.912-.883 4.912.529 0 .675.749.324 1.664-.352.915-.225 1.441.281 1.168 5.767-3.108 8.602-3.838 11.645-2.997l3.275.904-3 1.205c-1.65.662-4.545 1.404-6.434 1.648-3.942.508-5.413 1.408-2.304 1.408 1.152 0 2.718.623 3.48 1.385 1.166 1.166 1.997 1.175 5.256.055 2.128-.732 4.285-1.074 4.793-.76.518.32.646-.302.293-1.415-.876-2.761-3.546-15.495-3.567-17.015-.009-.708 1.175-1.237 2.733-1.22 2.351.026 2.496.179 1 1.05-1.041.606-1.75 2.215-1.75 3.97 0 2.598.351 2.95 2.943 2.95 1.618 0 4.529.936 6.467 2.079 3.795 2.239 5.59 1.9 5.59-1.055 0-1.021.563-2.064 1.25-2.316 1-.366 1-.723 0-1.783-2.324-2.463-1.605-5.186 1-3.791 1.238.662 2.4 1.09 2.583.952.184-.139.596.01.917.331.321.321-.116.583-.971.583-1.234 0-1.489.982-1.234 4.75.291 4.301.54 4.725 2.638 4.481 2.785-.324 4.817-2.792 4.817-5.854 0-2.348-4.619-6.377-7.311-6.377-1.009 0-1.33-.656-.979-2 .618-2.362.525-2.36-7.199.132m143.386 3.618c-.057.962-.241 3.365-.409 5.338-.409 4.788.676 6.24 4.577 6.129 4.02-.114 6.596-2.622 7.433-7.237l.638-3.519-4.643.156c-3.15.106-4.814-.29-5.175-1.23-.751-1.957-2.298-1.725-2.421.363m-188.199 3.087c.651 4.375 2.768 6.335 5.975 5.53 1.975-.495 2.24-.293 1.661 1.272-.378 1.023-1.171 2.192-1.761 2.596-.695.476-.584.74.317.75.764.008 2.023.803 2.797 1.765 1.261 1.568 1.342 1.412.781-1.5-.718-3.72 1.408-4.517 4.309-1.616 1.112 1.112 1.758 1.261 2.023.466.603-1.809-1.799-4.1-4.3-4.1-1.24 0-2.815-.675-3.5-1.5-1.004-1.209-.979-1.503.128-1.515 1.094-.013 1.074-.204-.099-.946-.809-.512-1.142-1.259-.74-1.662.403-.402 1.333.092 2.069 1.097.895 1.224 1.565 1.46 2.026.714 1.296-2.098-2.742-4.681-7.583-4.851l-4.647-.163.544 3.663m83.121-1.306c-5.626 2.93-6.304 3.841-4.328 5.817.83.83 1.509 1.977 1.509 2.55 0 1.153 3.988 9.102 4.567 9.102 1.2 0 7.433-3.51 7.433-4.185 0-.448 1.003-.815 2.228-.815 1.952 0 1.74.402-1.715 3.25-2.169 1.788-4.296 3.306-4.728 3.375-.432.069-1.29.181-1.907.25-1.566.174.954 3.125 2.668 3.125.715 0 2.732-1.204 4.481-2.676 2.721-2.29 3.465-2.498 5.155-1.442 1.682 1.05 2.32.888 4.297-1.088l2.322-2.322-1.97-2.433c-1.669-2.061-2.264-2.25-3.887-1.236-2.587 1.615-2.842 1.525-2.237-.792.286-1.094.919-1.742 1.407-1.441 1.287.796 1.095-.328-.707-4.125-1.378-2.904-7.149-7.537-9.214-7.398-.381.025-2.8 1.143-5.374 2.484M110.597 325.5c-1.032 1.375-2.473 2.5-3.202 2.5-2.245 0-3.381 3.298-1.855 5.385 1.477 2.02 6.46 1.586 6.46-.562 0-.627 1.013-.173 2.25 1.009 6.07 5.795 8.03 7.168 10.236 7.168 3.838 0 3.703-1.401-.563-5.84-2.198-2.288-3.531-4.16-2.96-4.16.57 0 1.037-.724 1.037-1.608 0-1.967-4.504-1.134-7.25 1.341-1.901 1.713-2.468.385-.623-1.46 1.165-1.165.426-6.273-.909-6.273-.409 0-1.588 1.125-2.621 2.5m51.762 3.423c-3.602 2.196-5.685 4.8-3.023 3.778.915-.351 1.664-.202 1.664.33a.972.972 0 01-.969.969c-.532 0-.709.675-.393 1.5.317.825 1.54 1.512 2.719 1.527 1.961.024 1.909.171-.607 1.731-2.977 1.846-3.771 3.848-1.123 2.832 2.287-.878 4.27 1.088 3.617 3.587-.512 1.954-.276 2.052 3.334 1.374 5.594-1.049 7.422-2.294 7.422-5.055 0-1.654.44-2.264 1.375-1.906 1.418.545 1.97 5.41.613 5.41-1.822 0-1.649 6.339.226 8.214 1.871 1.871 4.466 1.942 4.103.111-.239-1.206 6.993-1.252 7.802-.05.341.506 1.813-.362 3.272-1.928 2.576-2.766 2.668-2.786 3.215-.719.562 2.122 4.152 4.372 6.976 4.372 3.794 0-1.796-5.992-6.582-7.056-1.375-.305-2.395-1.069-2.268-1.697.401-1.97-6.304-8.245-8.85-8.282l-2.382-.036 2.5-1.429c1.375-.786 1.86-1.445 1.079-1.465-.782-.019-2.132-.624-3-1.343-1.657-1.372-8.833 1.221-7.385 2.668.351.352.114.64-.527.64-.642 0-1.167-.415-1.167-.922 0-.508-1.575-1.443-3.5-2.078-2.938-.97-3.5-1.624-3.5-4.078 0-3.439-.473-3.541-4.641-.999m59.236 2.232c.48.776.254.887-.69.339-.773-.448-1.117-.492-.764-.097s-.66 2.143-2.25 3.884c-1.59 1.74-2.891 3.687-2.891 4.325 0 .639-1.005 1.423-2.233 1.745-1.809.473-1.991.825-.958 1.858 1.032 1.032 1.446.997 2.179-.189.751-1.215 1.012-1.129 1.54.508 1.851 5.749 2.451 6.472 5.367 6.472 2.014 0 3.619-.865 5.103-2.75 1.228-1.56 1.927-1.993 1.615-1-.303.962-.114 1.75.418 1.75.533 0 .969.45.969 1s-.552.887-1.226.75c-.675-.137-1.381.762-1.57 2-.189 1.238.138 2.25.726 2.25.589 0 1.07-.477 1.07-1.059s.457-.776 1.016-.431c.559.346.79.994.514 1.442-.277.447 1.712 1.766 4.419 2.931 5.655 2.433 6.051 2.501 6.051 1.046 0-1.594-2.633-3.929-4.429-3.929-3.273 0-.895-3.447 2.858-4.142 3.672-.681 1.05-2.254-3.842-2.306-3-.032-5.077-.539-5.334-1.302-.495-1.474 3.105-1.58 9.747-.287 2.805.546 4.631.514 4.847-.085.543-1.502 3.153 1.125 3.153 3.173 0 1.997 2.528 4.949 4.238 4.949.602 0 .801-.294.442-.653-.823-.824 5.214-5.347 7.137-5.347 3.14 0-1.023-2.858-5.125-3.518-2.305-.371-5.092-1.236-6.192-1.924-3.181-1.987-13.359-5.558-15.841-5.558-1.278 0-3.747-1.527-5.659-3.5-3.25-3.353-5.899-4.764-4.405-2.345m57.405 5.23c0 3.445 2.8 6.475 4.826 5.223.431-.267 2.422-.116 4.425.336 3.947.89 7.749-.814 7.749-3.473 0-1.331-5.567-3.348-13.75-4.981-3.177-.634-3.25-.57-3.25 2.895m40-1.503c-3.482.615-3.501.646-3.616 6.118-.063 3.025.261 6.175.72 7 .72 1.293.839 1.275.866-.128.043-2.334 2.233-3.832 6.056-4.142 3.292-.267 5.599-2.73 2.557-2.73-.871 0-1.583-.675-1.583-1.5s.675-1.5 1.5-1.5c.833 0 1.5-.889 1.5-2 0-2.132-1.262-2.309-8-1.118m-16.787.664c.367.367.239 1.182-.284 1.811-4.021 4.835-5.351 7.35-5.073 9.593.475 3.832 1.365 4.273 9.078 4.5 6.626.194 7.051.079 6.472-1.746-.409-1.29-.244-1.722.487-1.27.699.432 1.107-.259 1.107-1.875 0-1.407-.562-2.566-1.25-2.574-.878-.011-.828-.283.169-.914 1.097-.694 1.203-1.657.468-4.235-.913-3.198-1.178-3.349-6.397-3.646-2.994-.171-5.144-.01-4.777.356m-163.755 1.521c-.364.589.292 1.316 1.462 1.622 1.569.411 1.85.883 1.08 1.811-.772.931-.467 1.406 1.179 1.837l2.222.581-2.201 1.908c-4.41 3.825-2.963 5.519 4.04 4.726 3.432-.388 6.763-1.14 7.403-1.671.772-.64 1.363-.53 1.76.327.46.995.729 1.011 1.17.072.385-.818 1.32-.354 2.837 1.41 1.244 1.447 2.757 2.325 3.361 1.951.716-.442.258-1.585-1.317-3.285-1.328-1.433-2.924-4.012-3.547-5.731-1.6-4.416-5.611-7.291-8.048-5.769-1.149.717-1.859.776-1.859.152 0-.554-.675-1.008-1.5-1.008s-1.5.54-1.5 1.2c0 .933-.267.933-1.2 0-1.488-1.488-4.459-1.561-5.342-.133m210.042 7.601c-6.575 1.431-8.615 5.181-5.915 10.87 1.968 4.148 2.791 4.229 8.804.868 6.658-3.721 7.249-5.395 3.267-9.254-1.788-1.734-3.455-3.1-3.704-3.036-.248.064-1.352.312-2.452.552m-88.26 7.532c-.957 1.21-2.978 3.415-4.49 4.901-5.333 5.239-2.838 8.85 6.495 9.403 5.634.333 6.062.227 4.309-1.071-1.511-1.118-1.679-1.708-.75-2.637.928-.928 1.196-.9 1.196.126 0 1.86 2.628-.391 3.255-2.788.372-1.425-.127-1.801-2.392-1.801-1.575 0-2.863.375-2.863.834 0 .458-.477.833-1.059.833s-.8-.419-.484-.931c.317-.512.146-1.196-.379-1.521-.525-.325-1.399.203-1.942 1.173-.542.969-1.266 1.482-1.609 1.14-.342-.343.187-1.439 1.175-2.436 1.673-1.687 1.676-1.767.048-1.15-.962.364-1.75.316-1.75-.106 0-1.876 2.734-3.169 6.7-3.169 4.999 0 5.724-1.465 1.175-2.375-4.502-.9-4.717-.849-6.635 1.575m-86.978-.068c-.698.701-3.168 1.143-5.669 1.014-3.741-.194-4.536.1-5.103 1.884-1.35 4.254.229 6.901 4.527 7.589 2.191.35 3.983 1.029 3.983 1.509 0 1.382 2.638 1.013 3.935-.55 1.718-2.069.089-13.215-1.673-11.446m101.103.688c-.645.427-.781 3.1-.365 7.18.371 3.644.26 6.768-.253 7.111-1.65 1.102 2.291 1.889 9.457 1.889 5.987 0 6.864-.214 5.856-1.428-1.503-1.811 7.181-1.606 10.624.25 2.966 1.599 4.316 1.48 4.316-.381 0-.857-.416-1.302-.925-.987-1.062.656-6.214-1.412-7.31-2.934-.404-.561-.741-2.482-.75-4.27-.021-4.425-2.813-4.309-5.759.24-2.014 3.109-2.511 3.364-4.834 2.48-1.425-.541-2.996-.733-3.493-.426-.497.307-1.894-.365-3.105-1.493-1.21-1.128-1.703-2.051-1.094-2.051.608 0 1.931-.309 2.938-.687 1.613-.605 1.668-.485.46 1-.894 1.099-.982 1.687-.25 1.687.617 0 1.122-.45 1.122-1s.723-1 1.607-1c1.055 0 1.398-.544 1-1.582-.334-.87-.607-1.77-.607-2 0-.23-.637-.418-1.417-.418-.779 0-1.643-.562-1.921-1.25-.394-.977-.521-.969-.583.035-.057.926-.584 1.015-1.883.32-.992-.531-2.266-.659-2.831-.285m45.389 6.811c-1.24.664-2.174 1.581-2.075 2.038.098.457-.415 1.506-1.139 2.331-2.425 2.759-.117 6.365 3.598 5.622 1.712-.342 3.561-.622 4.109-.622.549 0 .38-.759-.375-1.687-1.221-1.502-1.153-1.597.628-.867 5.285 2.169 9.353-.481 7.381-4.808-1.731-3.8-7.112-4.69-12.127-2.007m-121.499 5.619l-.16 5.75 3.702-.014c5.979-.022 8.469-.961 7.058-2.661-.653-.786-1.459-3.094-1.791-5.127-.58-3.551-.764-3.698-4.627-3.698h-4.023l-.159 5.75m15.495 13.316c-.412.422-.75 2.281-.75 4.132 0 3.82 1.244 4.618 7.375 4.729 3.717.068 4.057-.158 4.675-3.098.366-1.745.358-3.669-.018-4.277-.824-1.333-10.222-2.571-11.282-1.486" fill="#d3d3d3" fill-rule="evenodd"/></svg>