<svg xmlns="http://www.w3.org/2000/svg" width="500" height="400"><path d="M0 200.002v200.002l250.25-.252 250.25-.252.252-199.75L501.005 0H0v200.002m.49.498c0 110 .117 154.852.26 99.67.143-55.181.143-145.181 0-200C.607 45.352.49 90.5.49 200.5M249.5 52.713c-1.1.265-2.428.887-2.95 1.384-.522.497-2.098.91-3.5.918-1.402.009-3.225.452-4.05.985-1.293.835-1.266.971.191.985.93.008 1.943.422 2.25.92.318.514-1.17.673-3.449.367-2.436-.327-5.672.073-8.25 1.018-2.333.855-6.717 2.05-9.742 2.655-6.06 1.211-30.911 8.931-32.5 10.096-.55.403-6.4 2.322-13 4.264-44.749 13.166-57.382 17.124-60.25 18.874-3.19 1.947-4.157 4.143-2.324 5.275.569.352.569 1.821 0 3.803-1.781 6.209-.104 15.212 2.166 11.628.552-.871.883-.951.893-.214.008.643 1.365 1.467 3.015 1.829 1.685.37 3 1.308 3 2.138 0 .814.384 1.243.853.953.469-.29 1.706.119 2.75.909 2.518 1.907 6.36 1.864 10.326-.115 2.987-1.489 3.52-1.486 6.904.04 2.017.909 4.009 1.627 4.427 1.594.419-.033 2.129.648 3.8 1.512 1.672.865 3.915 1.294 4.984.955 1.48-.47 1.8-.244 1.343.949-.334.869-.082 1.565.565 1.565.641 0 .888-.45.548-1-.776-1.256.024-1.274 2.264-.053.955.521 6.461 3.268 12.236 6.105 5.775 2.837 11.175 5.726 12 6.419.825.693 2.749 1.557 4.275 1.92 1.527.363 3.664 1.548 4.75 2.634 1.086 1.086 1.975 1.672 1.975 1.301s1.046.308 2.324 1.509c1.278 1.201 2.618 1.89 2.976 1.532.358-.359 1.287-.125 2.063.519.776.644 3.374 2.196 5.774 3.448 5.989 3.125 11.602 6.408 16.358 9.567 2.203 1.463 5.281 3.306 6.841 4.095 1.56.788 3.945 2.462 5.301 3.719 1.357 1.257 2.852 2.285 3.325 2.285.472 0 3.634 1.312 7.026 2.917 6.605 3.124 8.071 3 16.012-1.349 1.375-.753 4.525-1.945 7-2.649 2.475-.704 4.725-1.372 5-1.484.275-.112 1.512-.533 2.75-.936S280 167.421 280 167c0-.704 10.235-5.291 11.444-5.129.289.038 3.496-1.479 7.127-3.372 3.631-1.892 8.122-3.726 9.98-4.074 5.43-1.019 6.505-3.314 1.52-3.245-2.239.03-4.071.439-4.071.906 0 .468-.586.626-1.303.351-1.654-.634-8.697 2.262-8.697 3.576 0 .543-.756.987-1.679.987-2.162 0-8.075 1.869-11.475 3.627-7.593 3.927-14.846-.74-14.846-9.55 0-4.531.232-5.077 2.153-5.077h2.153l-2.11-1.83c-1.757-1.523-2.082-2.844-1.943-7.874l.167-6.043 6.04-1.725c8.989-2.566 8.923-2.556 10.54-1.533 1.279.809 1.187 1.169-.628 2.448-2.827 1.992-3.771 6.557-1.356 6.557.957 0 2.324.705 3.039 1.566 3.108 3.746 7.02 4.723 16.608 4.151 7.415-.442 9.674-.953 11.425-2.584 1.2-1.119 3.471-2.317 5.047-2.663 1.576-.346 2.865-.963 2.865-1.372 0-.408 1.815-1.931 4.034-3.384 3.517-2.302 4.591-2.537 8.377-1.83 5.382 1.006 8.92.661 12.978-1.264 1.728-.82 4.484-2.057 6.126-2.748l2.985-1.258-2.665-.365c-3.497-.48-4.064-2.28-2.012-6.39 1.56-3.125 2.008-3.354 6.427-3.288 12.973.196 14.75.424 14.75 1.898 0 .935.581 1.245 1.601.854.88-.338 1.999.014 2.485.781.707 1.117.886 1.047.899-.354.008-.963.428-1.75.933-1.75.505 0 1.63-.273 2.5-.607 1.016-.39 1.582-.062 1.582.917 0 .838.563 1.733 1.25 1.99.787.294.509.735-.75 1.191-6.351 2.297-8.663 3.746-7.627 4.782.773.773 1.583.664 2.853-.385.976-.805 5.824-3.444 10.774-5.864 4.95-2.419 9.599-4.994 10.331-5.721.731-.727 1.802-1.03 2.379-.673.588.363.853.06.604-.688-1.059-3.176-8.108-5.844-15.064-5.701-6.818.14-8.571 1.15-4.569 2.63 2.065.764 2.015.865-.941 1.895-2.331.813-3.221.791-3.513-.084-.215-.646-1.029-1.219-1.809-1.275-.78-.057-2.611-.171-4.07-.255-2.006-.115-2.917-.911-3.738-3.265-.985-2.827-.91-3.068.816-2.617 1.266.332 2.06-.11 2.377-1.322.668-2.555-1.539-3.082-6.568-1.569-3.109.936-4.617.994-5.401.21-.599-.599-2.063-1.888-3.254-2.866-2.966-2.434-1.631-3.986 3.046-3.54 5.326.508 4.368-1.154-1.891-3.282-5.017-1.705-5.164-1.7-5.764.189-.338 1.067-1.102 1.638-1.698 1.27-.645-.399-.794-.202-.368.485.392.635.285 1.155-.239 1.155s-1.208-.667-1.521-1.483c-.578-1.507-2.061-1.334-6.395.743-3.149 1.509-2.852 3.737.5 3.755 2.22.013 2.461.221 1.25 1.081-1.174.834-.95.947 1.032.521 1.821-.393 2.873.001 3.747 1.4 1.077 1.725.902 2.014-1.532 2.537-1.511.325-4.322 1.204-6.247 1.954-1.925.75-5.133 1.859-7.129 2.465-1.996.606-4.471 2.04-5.5 3.187l-1.871 2.084 4.377-.731c3.108-.52 4.177-.41 3.691.378-.459.741.639 1.109 3.314 1.109 2.2 0 4.228.37 4.508.822.822 1.33-2.974 3.989-7.393 5.179-2.255.607-4.35 1.755-4.655 2.551-.306.797-1.333 1.448-2.282 1.448-.95 0-2.038.312-2.419.692-.381.381-1.668.842-2.86 1.024-1.192.182-3.5.995-5.128 1.807-4.603 2.297-6.814 1.965-6.091-.914.728-2.899-.349-3.667-5.427-3.869-3.376-.135-3.885-.465-3.885-2.523 0-1.688.308-2.059 1.075-1.292 2.687 2.687 11.113-.549 12.146-4.666.312-1.242 1.306-2.259 2.21-2.259 2.056 0 10.319-4.775 10.319-5.963 0-1.448-5.951-2.323-7.433-1.092-.744.617-2.775.871-4.515.564-2.028-.357-4.17.039-5.973 1.103-2.094 1.237-3.802 1.466-6.695.896-2.136-.42-3.319-.97-2.628-1.222 1.994-.725.373-2.286-2.374-2.286-1.412 0-2.231-.435-1.882-1 .34-.55 1.909-1 3.488-1 1.578 0 3.544-.675 4.369-1.5 1.91-1.91 3.121-1.888 6.17.11 1.515.992 3.132 1.317 4.215.846.967-.42 2.609-.655 3.648-.523 1.377.175 1.721-.201 1.267-1.384-.372-.97-.025-1.854.86-2.194 2.378-.912 1.711-2.355-1.088-2.355-2.591 0-6.094-2.485-4.687-3.324 1.095-.653 15.026.758 15.876 1.608.393.394-.248.716-1.426.716-1.359 0-2.698 1.077-3.666 2.95-2.048 3.961-1.945 4.363.974 3.805 1.386-.265 2.5-.009 2.5.575 0 .579.563.343 1.25-.524.688-.867 1.925-1.817 2.75-2.112 1.181-.422 1.128-.553-.25-.615-1.094-.049-1.75-.877-1.75-2.21 0-1.869.422-2.062 3.438-1.573 4.061.659 6.593-1.348 4.652-3.688-1.376-1.658-4.899-2.726-5.545-1.681-.251.407-1.822.539-3.491.294-1.668-.245-2.816-.797-2.55-1.228.267-.431-.187-1.041-1.008-1.356-2.515-.965-1.217-5.201 1.471-4.806 1.256.185 1.989-.093 1.658-.629-.814-1.317-4.625-2.23-4.625-1.108 0 .498-.723.906-1.607.906-.952 0-1.392-.56-1.08-1.374.596-1.553-7.606-4.626-12.347-4.626-2.75 0-9.143-2.772-9.799-4.25-.184-.412-1.871-.75-3.75-.75-3.088 0-5.141-1.938-2.167-2.045 2.173-.079-7.64-4.862-10.071-4.91-1.277-.025-2.95-.674-3.719-1.442-4.055-4.055-24.151-8.528-30.96-6.89m111.5 77.04c-8.071 3.177-16.32 6.834-21.295 9.439-2.088 1.093-4.45 1.736-5.25 1.429-.8-.307-1.455-.167-1.455.312s-1.391 1.751-3.09 2.827c-6.134 3.884-.199 3.353 7.857-.703 10.904-5.489 17.609-8.483 18.483-8.254.413.108.75-.223.75-.736s1.012-1.218 2.25-1.568c3.397-.961 8.75-3.852 8.75-4.726 0-.425-.113-.729-.25-.676-.137.053-3.175 1.248-6.75 2.656" fill="#d3d3d3" fill-rule="evenodd"/></svg>