<svg xmlns="http://www.w3.org/2000/svg" width="500" height="667"><path d="M112.885 73.333c-8.884 3.29-11.641 7.277-8.075 11.68 1.708 2.11 1.975 2.149 4.763.708 11.968-6.189 28.034-.164 34.074 12.779 5.952 12.755.022 37.132-13.79 56.68-3.942 5.579-15.888 31.686-18.45 40.32-2.16 7.28-2.733 11.484-2.997 22-.18 7.15-.345 13.386-.368 13.857-.023.471-.717.598-1.542.281-.825-.316-1.5-.139-1.5.393 0 1.51-5.156 1.138-6.969-.503-1.259-1.14-2.776-1.29-6.727-.665-4.37.691-5.29.543-6.423-1.028-1.851-2.568-2.83-2.284-2.295.665.505 2.789-3.041 3.645-5.386 1.3-1.735-1.735-1.478-3.276.3-1.8 2.115 1.755 1.862.318-.536-3.05-1.168-1.641-2.627-2.633-3.422-2.328-1.881.722-5.807-1.489-5.245-2.954.639-1.665-1.333-3.137-4.483-3.348-2.188-.146-2.799.337-3.297 2.603-.51 2.321-1.024 2.703-3.106 2.305-1.758-.336-2.408-.072-2.203.897.161.756-.464 1.381-1.387 1.388-2.442.018-3.378 1.336-1.47 2.068.901.346 1.371 1.06 1.045 1.587-.325.527.059 1.717.854 2.645 2.308 2.692 2.894 5.187 1.219 5.187-.808 0-1.469-.691-1.469-1.535 0-1.577-2.494-5.94-4.737-8.286-1.033-1.081-1.263-.876-1.263 1.127 0 3.494 2.5 8.948 4.87 10.626 2.468 1.747 1.853 3.068-1.429 3.068-1.343 0-2.441.45-2.441 1 0 2.24-1.779.786-2.753-2.25l-1.043-3.25-.102 3.112c-.068 2.062.911 4.388 2.898 6.888 3.422 4.307 4.358 9.039 1.227 6.206-1.109-1.004-2.282-1.29-3.132-.765-1.066.659-.946.972.56 1.45 1.927.611 3.04 4.609 1.283 4.609-.516 0-.938.661-.938 1.469 0 .894-.586 1.243-1.5.893-.825-.317-1.5-1.203-1.5-1.969S43.277 258 42.393 258c-1.055 0-1.398.544-1 1.582.334.87.614 2.107.622 2.75.01.749.324.682.875-.189.662-1.043 1.034-1.075 1.613-.138.414.67.198 1.562-.482 1.982-.878.543-.915.96-.128 1.447.609.376 1.557.406 2.107.066.55-.34 1-.141 1 .441S46.55 267 46 267s-1 .45-1 1 .675 1 1.5 1 1.5-.675 1.5-1.5.705-1.5 1.567-1.5c1.101 0 1.383-.583.947-1.956-.439-1.383.398-3.068 2.853-5.747 4.082-4.455 5.267-4.058 3.133 1.049-.902 2.159-1.109 3.654-.505 3.654.635 0 .568.727-.176 1.919-.936 1.498-.927 2.246.042 3.413 1.024 1.234.707 2.04-1.81 4.616-1.678 1.717-3.051 3.555-3.051 4.086 0 .532-.502.966-1.117.966-.624 0-.886-.882-.593-2 .447-1.711.03-2-2.884-2-1.977 0-3.47.524-3.558 1.25-.084.688-.202 1.783-.263 2.434-.061.652-1.117 2.343-2.348 3.758-3.328 3.828-3.086 6.344.392 4.065l2.63-1.723-.459 3.127c-.253 1.72.027 3.503.62 3.964 1.771 1.371 5.537 2.004 6.138 1.031.308-.498-.692-.906-2.221-.906h-2.781l2.279-2.25c2.242-2.212 2.305-2.217 3.723-.309.793 1.068 1.442 1.405 1.442.75S53.152 288 54.559 288c1.676 0 2.313-.397 1.847-1.152-.391-.633-.033-1.647.796-2.254 2.391-1.748 3.217-5.496 1.367-6.206-.863-.331-1.569-1.181-1.569-1.888 0-1.5 2.747-2.774 4.134-1.917.525.324 1.589.062 2.366-.583.777-.645 1.959-.835 2.626-.422.848.524 1.012.223.543-.998-.447-1.166-.254-1.602.58-1.31.688.241 1.119 1.178.957 2.084-.161.905.064 1.639.5 1.631 1.654-.032 3.388-1.721 3.097-3.017-.167-.742.407-1.507 1.276-1.699 2.397-.531 1.886 7.305-.595 9.119-1.725 1.262-1.745 1.494-.249 2.99 2.225 2.225 3.03 2.033 2.217-.529-.553-1.744-.361-2.028 1.014-1.5.934.358 1.886.651 2.116.651 2.973 0-4.545 7.236-8.409 8.093-2.43.539-2.491.659-.673 1.323 1.1.401 2.682 1.085 3.517 1.52.915.476 2.021.249 2.789-.573 1.538-1.647 4.194-1.799 4.194-.241 0 .816.36.824 1.318.029.973-.808 1.905-.683 3.562.478 1.235.864 3.17 1.33 4.301 1.034 1.232-.322 3.613.445 5.938 1.912 2.135 1.348 3.881 1.938 3.881 1.313 0-.743 1.093-.919 3.143-.509 1.807.361 3.72.149 4.5-.498.906-.751 1.357-.775 1.357-.072 0 1.148 3.843 1.024 5.801-.186.669-.414 2.145-.457 3.28-.097 1.258.399 2.724.056 3.759-.881.933-.845 2.589-1.37 3.679-1.167 1.089.203 2.246.403 2.571.445.324.043 1.17 1.99 1.879 4.327 2.322 7.652 4.363 12.938 5.457 14.131 3.44 3.756 5.721 7.91 4.692 8.546-.799.494-.721 1.234.271 2.59.764 1.045 1.151 2.518.861 3.275-.409 1.066-.701 1.097-1.294.137-.936-1.514-5.705-2.144-6.499-.859-.316.511-.141.93.39.93.569 0 .49 1.023-.191 2.492-1.473 3.176-4.627 3.348-4.735.258-.043-1.238-.306-1.687-.583-1-.579 1.434-6.338 1.726-6.338.321 0-1.297-2.91-4.071-4.271-4.071-.799 0-.778.351.071 1.2.66.66 1.2 1.762 1.2 2.448 0 1.682-5.944-.339-6.687-2.274-.706-1.841-2.313-1.753-2.313.126 0 .859-.901 1.5-2.107 1.5-1.269 0-1.921-.497-1.638-1.25.257-.687.112-2.15-.323-3.25-.675-1.706-.819-1.56-.977 1-.102 1.65-.246 3.675-.32 4.5-.08.89-1.05 1.451-2.385 1.38-1.237-.066-2.25.224-2.25.643 0 1.616-3.223 1.897-4.709.411-1.327-1.327-1.364-1.929-.247-4.017.723-1.35 1.587-2.015 1.92-1.476.332.539 1.196.032 1.919-1.126 1.165-1.865 1.118-2.029-.411-1.443-.949.364-2.312.176-3.029-.419-.98-.813-1.577-.571-2.403.972-.605 1.131-1.424 2.006-1.82 1.947-2.048-.309-3.22.283-3.22 1.628 0 .825-.649 1.5-1.443 1.5s-2.144 1-3 2.223L80 332.445v-2.782c0-1.529-.412-2.527-.915-2.216-.503.311-1.142 0-1.421-.691-.402-.998-.522-.999-.585-.006-.133 2.101-2.65 1.388-2.65-.75 0-2.238 1.109-2.662 1.962-.75.307.688.471.125.365-1.25-.107-1.375.168-3.082.611-3.794.455-.731.28-1.927-.403-2.75-.851-1.025-.877-1.456-.086-1.456.617 0 1.122-.675 1.122-1.5s-.45-1.5-1-1.5-1-.498-1-1.107.675-.848 1.5-.531c.825.316 1.5.139 1.5-.393 0-2.01-4.76-.997-5.316 1.132-.303 1.156-1.029 1.804-1.617 1.441-.587-.363-1.067-.183-1.067.399 0 .582.675 1.059 1.5 1.059s1.5.637 1.5 1.417c0 .779.538 1.596 1.196 1.815 1.461.487-2.473 7.277-4.716 8.137-1.921.737-1.883-.109.094-2.086 1.192-1.192 1.278-1.756.354-2.327-.671-.415-.943-1.475-.605-2.355.338-.881.178-1.601-.354-1.601-.533 0-.969.661-.969 1.469 0 .807-.58 1.246-1.289.974-1.796-.69-1.922-4.443-.149-4.443.791 0 1.438-.413 1.438-.918 0-.505.258-1.591.573-2.413 1.056-2.752-2.953-2.372-5.724.543-1.458 1.533-3.666 2.788-4.905 2.788-2.14 0-2.168.095-.559 1.873 1.604 1.772 1.58 1.903-.435 2.43-1.669.436-1.991 1.058-1.488 2.877.569 2.057.49 2.133-.694.675-1.175-1.447-1.571-1.472-3.301-.205-1.087.795-2.974 1.187-4.217.876-1.867-.468-2.25-.154-2.25 1.847 0 1.737-.698 2.585-2.5 3.038-1.614.405-2.5 1.329-2.5 2.608 0 1.09-.627 1.981-1.393 1.981-2.021 0-2.983-3.251-1.324-4.474.766-.564 1.216-1.548 1.001-2.187-.517-1.533 3.809-5.517 5.348-4.927 1.368.525 2.68-2.098 1.779-3.557-.352-.569-1.634-.283-3.129.696-2.059 1.349-2.687 1.412-3.353.333-1.437-2.325-2.214.416-3.392 11.968-.381 3.74-2.188 6.248-3.329 4.619-1.478-2.111-6.354-3.594-7.82-2.378-1.572 1.304-1.929 5.359-.388 4.407.55-.34 1 .253 1 1.319 0 2.133 2.301 4.547 3.342 3.506.362-.362.672-.021.688.758.02.927.421.744 1.16-.53.853-1.471.836-2.044-.072-2.347-1.719-.573.622-3.23 2.754-3.127 1.037.05 1.174.262.378.583-1.741.703-1.566 2.338.25 2.338.825 0 1.5-.373 1.5-.829 0-.457 1-.794 2.223-.75 1.684.06 2.382-.648 2.881-2.921.363-1.65.741-2.325.841-1.5.114.939.529.634 1.11-.814.51-1.273 1.382-2.034 1.937-1.691.554.343 1.008.161 1.008-.405 0-.565.671-.77 1.492-.455 1.88.722 3.278-2.541 1.547-3.611-.996-.616-.987-.938.045-1.576.783-.484 1.47-.285 1.732.5.239.716 1.341 2.209 2.449 3.317l2.015 2.015 1.362-2.39c1.359-2.384 1.361-2.383.942.61-.231 1.65-.457 3.386-.502 3.857-.045.471-.736.606-1.535.299-.989-.379-1.852.546-2.701 2.893-.686 1.898-1.607 3.507-2.047 3.576-3.862.604-5.507 1.998-5.519 4.676-.006 1.484-.267 4.187-.58 6.006-.435 2.531-.174 3.452 1.116 3.927.926.341 1.997 1.09 2.38 1.664 1.232 1.85 2.004-.156.872-2.27-.909-1.7-.733-2.237 1.05-3.191 2.057-1.101 2.116-.998 1.449 2.556-.475 2.531-.356 3.494.376 3.042.589-.364 1.34.039 1.669.896.329.857 1 1.309 1.493 1.004 2.099-1.297.565 1.33-2.637 4.517-3.913 3.894-4.615 6.547-1.468 5.548 1.147-.364 2-.18 2 .433 0 .587-.788 1.103-1.75 1.146-1.045.047-1.247.282-.5.583.688.278 1.25 1.367 1.25 2.421 0 1.054.45 1.917 1 1.917s1-.911 1-2.025c0-1.253.977-2.396 2.565-3 3.325-1.264 3.435-1.247 3.435.525 0 .825.708 1.5 1.573 1.5.965 0 1.439-.677 1.225-1.75-.191-.962.563-2.523 1.677-3.467 1.932-1.637 1.938-1.718.135-1.75-1.039-.018-2.465.754-3.168 1.715-.703.962-1.604 1.423-2.003 1.025-.398-.399-.171-1.391.505-2.205.675-.814.946-1.937.601-2.495s.118-2.455 1.028-4.215c1.423-2.75 1.788-2.964 2.595-1.521.517.923.696 2.074.397 2.558-.299.483.122 1.43.935 2.105.813.675 1.188 1.695.834 2.268-.373.604-.159.742.511.327.737-.454 1.155.067 1.155 1.44 0 1.307-.781 2.356-1.989 2.672-1.094.286-1.756.897-1.471 1.357.284.461-.396 2.54-1.512 4.622-1.834 3.422-2.813 2.954-2.12-1.014.079-.456-.623-.681-1.56-.5-2.376.457-3.587 5.446-1.765 7.268.779.78 1.427 2.012 1.439 2.739.014.79.717.46 1.75-.821 1.125-1.394 2.746-2.092 4.646-2 2.904.141 5.07 2.642 2.288 2.642-3.184 0-4.851 4.235-4.785 12.151.041 4.901-1.291 6.371-4.671 5.158-.962-.345-1.419-.263-1.016.183.404.446-.045 1.38-.998 2.077-.953.697-1.417 1.583-1.032 1.968.385.386 1.429-.027 2.32-.918 3.513-3.513 4.473-1.649 1.483 2.881-1.089 1.65-1.742 3.75-1.453 4.666.29.916.101 1.929-.419 2.251-1.115.689-.297 4.583.963 4.583 1.261 0 2.19-4.517 1.425-6.928-.549-1.729-.233-2.072 1.91-2.072 1.412 0 2.567-.45 2.567-1s-.45-1-1-1-1-.635-1-1.412c0-1.412 2.328-1.594 3.638-.284 1.219 1.22 2.209.755 2.877-1.353.431-1.356 1.352-1.948 2.725-1.75 1.141.165 2.287-.326 2.547-1.09.287-.845.03-1.116-.657-.691-.622.384-1.13.173-1.13-.468 0-.643.696-.899 1.552-.57.854.327 1.294.178.979-.332-.315-.51.045-1.292.801-1.739.756-.446 1.63-1.486 1.942-2.311.313-.825.604-.038.647 1.75.056 2.311-.372 3.25-1.48 3.25-.857 0-1.279.453-.937 1.007.343.554-.081 1.277-.941 1.607-.859.33-1.563 1.397-1.563 2.371 0 2.066-1.681 3.635-4.5 4.201-1.916.385-1.904.454.271 1.654 1.249.689 2.824.901 3.5.472 1.322-.84 1.876-.994 4.288-1.187.857-.069 1.3-.544.984-1.056-.317-.512-.118-1.213.441-1.559 2.036-1.259 1.001-2.723-1.484-2.099-1.442.361-2.5.196-2.5-.392 0-.56 1.35-1.019 3-1.019s3 .375 3 .833c0 1.973 4.514.417 4.82-1.661.175-1.195.963-2.172 1.75-2.172.786 0 1.43-.45 1.43-1s.838-1 1.861-1c1.447 0 1.755.558 1.384 2.5-.291 1.52-.017 2.5.697 2.5.647 0 .898.45.558 1-.34.55-.141 1 .441 1s1.059-.418 1.059-.929c0-3.41 5.517-5.168 6.5-2.071.92 2.9 3.82 2.658 3.002-.25-.443-1.576-.35-1.842.311-.887.798 1.151 1.032 1.151 1.503 0 .44-1.074.866-.983 2.01.426 1.367 1.685 1.552 1.69 3.154.088 1.436-1.436 1.843-1.481 2.611-.289.776 1.205 1.053 1.193 1.894-.088.717-1.092.989-1.144 1-.191.008.72.465 1.031 1.015.691.55-.34 1-.156 1 .41 0 .565.636.783 1.413.485.82-.315 1.642.222 1.961 1.282.301 1.002.314.104.028-1.998-.285-2.102-.766-4.464-1.068-5.25-.301-.786-.05-1.429.559-1.429.609 0 1.107.9 1.107 2 0 2.643 1.732 2.536 4.056-.25 1.113-1.333 1.891-1.712 1.911-.929.04 1.584 3.033 4.791 3.033 3.25 0-.589.45-1.071 1-1.071s1 .873 1 1.941c0 2.422 1.956 3.749 3.011 2.041.433-.7 1.478-1.008 2.323-.684.845.324 1.729.052 1.964-.604.236-.657.814-.832 1.286-.39.474.445.424 1.116-.113 1.5-1.243.891-1.681 7.196-.5 7.196.489 0 1.034-.977 1.209-2.172.176-1.194.84-2.342 1.475-2.551 1.499-.493 3.605 5.881 2.713 8.207-.476 1.24-.28 1.653.64 1.347.729-.243 3.105 1.2 5.279 3.208 2.175 2.008 6.62 4.958 9.878 6.556 5.353 2.625 5.877 3.158 5.43 5.532-.273 1.444.044 3.312.705 4.149 1.521 1.929 5.7 3.243 5.7 1.791 0-1.694 3.721-1.237 4.403.541.562 1.465.851 1.455 3.233-.105 1.439-.943 2.896-1.306 3.24-.806 1.613 2.345 8.468 4.569 10.388 3.37 1.677-1.047 1.834-.952 1.287.773-4.497 14.168-3.071 30.983 3.879 45.733 4.431 9.404 5.844 11.401 13.82 19.538 2.613 2.665 4.75 5.292 4.75 5.836 0 .545.591.764 1.312.487 1.641-.63 4.164 3.884 3.352 5.999-.331.862-.151 1.567.399 1.567s1.259-.675 1.575-1.5c.832-2.167 2.362-1.843 2.362.5 0 2.135 1.581 2.756 2.211.868.259-.778 1.403-.602 3.654.562 2.677 1.384 3.058 1.958 2.083 3.132-.775.935-.821 1.438-.129 1.438.584 0 1.355-.472 1.711-1.049.405-.654 1.084-.701 1.809-.123 4.124 3.287 24.399 6.671 39.661 6.62 42.5-.144 70.251-21.109 78.024-58.948 2.262-11.011 3.12-28.01 1.742-34.5-.409-1.925-1.022-5.75-1.363-8.5-.34-2.75-1.422-6.35-2.404-8-1.254-2.108-1.532-3.66-.936-5.218.936-2.446-.763-4.386-2.037-2.325-.412.668-1.037 1.175-1.388 1.128-2.939-.393-4.638.147-4.638 1.474 0 .857.419 1.3.931.984 1.802-1.114 1.945 1.119.168 2.64-1.668 1.428-1.89 1.278-3.07-2.072-4.871-13.827-12.859-27.076-24.055-39.897-3.98-4.557-7.064-8.45-6.855-8.652.21-.202 4.656-2.038 9.881-4.081l10.904-4.264c1.148-.449 1.301.58.842 5.649-.492 5.419-.281 6.541 1.671 8.916 1.229 1.495 3.684 4.855 5.457 7.468 1.772 2.612 3.585 4.75 4.029 4.75 1.878 0 4.3-16.056 3.606-23.902l-.688-7.769 7.839-2.178c22.895-6.358 24.751-6.628 45.34-6.599 22.228.031 33.527 2.032 42.25 7.483l4.75 2.969v6.322c0 27.101-10.543 51.769-31.432 73.541-16.089 16.768-23.199 21.703-46.762 32.458-7.726 3.526-8.243 4.821-4.803 12.023 6.465 13.531 14.133 16.797 28.497 12.136 12.154-3.944 34.022-16.518 38.394-22.076 1.042-1.324 2.336-2.408 2.877-2.408 1.433 0 2.856-2.095 3.635-5.35l.682-2.85-5.044.694c-4.274.588-5.044.446-5.044-.932 0-.893-.64-1.87-1.423-2.171-2.109-.809-2.705-3.213-1.339-5.4 1.014-1.625.845-2.265-1.07-4.049-2.823-2.63-2.958-2.317 4.573-10.588 3.432-3.77 6.807-7.53 7.5-8.356 2.105-2.51 13.759-19.871 13.759-20.497 0-.321.9-1.551 2-2.731 1.1-1.181 2-3.21 2-4.508 0-5.204 4.598-10.34 6.5-7.262.34.55.141 1-.441 1s-1.059.477-1.059 1.059c0 .585.552.718 1.232.297 1.899-1.173 5.129-1.217 6.542-.089 1.7 1.358 2.805.136 1.404-1.552-1.656-1.996-2.384-9.762-1.064-11.353 1.548-1.864 3.973-1.751 3.243.151-.32.832.032 2.255.781 3.162 1.064 1.289 1.089 1.742.112 2.071-2.372.798-1.242 2.254 1.75 2.254 3.14 0 4.078-1.649 1.5-2.638-1.89-.726-1.974-3.362-.107-3.362 2.906 0 4.164-7.313 2.494-14.5-3.29-14.167-21.202-37.755-35.517-46.772-17.655-11.121-54.017-10.041-92.595 2.751-9.62 3.19-10.231 3.273-12.415 1.688-1.263-.917-2.311-2.209-2.329-2.872-.017-.662-1.11-2.283-2.429-3.602-1.319-1.319-3.151-3.854-4.071-5.632-2.466-4.769-15.079-16.935-22.622-21.82-7.716-4.997-20.67-9.96-28.354-10.863l-5.43-.639.545-4.619c1.013-8.578-3.592-18.671-10.724-23.505-7.298-4.946-17.728-9.693-24.296-11.058-8.617-1.791-8.44-1.505-4.306-6.92 5.324-6.975 5.494-9.478 1.125-16.556-4.875-7.899-5.546-8.42-15.94-12.377-7.679-2.923-9.057-3.804-9.854-6.301-.959-3.004-6.54-10.857-11.118-15.644-10.869-11.366-34.748-7.661-51.685 8.02-5.91 5.472-15.872 19.175-15.872 21.833 0 .734-.869 3.259-1.932 5.611s-2.183 5.088-2.489 6.078c-.507 1.645-.787 1.587-3.221-.67-5.758-5.339-.652-28.048 12.011-53.42 3.489-6.991 6.156-13.243 5.926-13.893-.639-1.812 2.635-7.479 3.877-6.712.64.396.896.1.622-.717-.257-.764-1.291-1.391-2.298-1.393-1.008-.003-2.003-.517-2.212-1.144-.209-.627-1.302-.899-2.429-.604-1.813.474-1.923.289-.952-1.606 2.509-4.899 3.103-6.267 6.194-14.268 1.779-4.606 4.624-9.949 6.32-11.874 6.941-7.874 7.459-15.549 1.889-28-6.904-15.436-26.212-25.559-39.421-20.667m43.042 140.987c-4.935 2.61-9.954 11.792-8.402 15.372.736 1.697.81 1.7 1.203.058.447-1.868 1.807-2.312 2.692-.879 1.657 2.681 13.58 1.082 13.58-1.822 0-.508 1.471-.685 3.269-.393 3.429.557 21.677-7.806 22.463-10.294.475-1.503-15.16-4.367-23.825-4.364-4.966.001-7.675.575-10.98 2.322m48.562 9.87c-4.465 5.011-13.324 9.935-27.899 15.508-2.775 1.061-5.014 2.581-5.148 3.496-.131.89-.72 2.448-1.309 3.462-.944 1.624-1.076 1.503-1.103-1.017-.029-2.76-.163-2.837-3.78-2.167-2.062.381-5.1 1.293-6.75 2.026-1.65.732-5.41 1.534-8.357 1.78-6.331.53-7.107 1.458-7.128 8.514-.011 3.924.502 5.846 1.985 7.438 1.1 1.181 2 1.612 2 .959 0-.654 1.261-1.189 2.802-1.189 2.996 0 13.698-8.745 13.698-11.193 0-.704.9-1.428 2-1.61 3.272-.54 12.5-5.091 12.5-6.165 0-.547 1.125-1.276 2.5-1.621s2.5-1.158 2.5-1.805c0-1.785 3.903-2.054 15.638-1.078 8.068.672 8.183.648 13.5-2.777 6.426-4.14 11.223-8.798 10.144-9.85-.43-.42-4.03-1.852-8-3.183l-7.217-2.42-2.576 2.892M90.638 249.5c-.316.825-.113 1.5.452 1.5.566 0 .72.498.344 1.107-.477.771-.944.696-1.544-.25-.676-1.067-.863-.996-.875.334-.023 2.625-2.165 3.322-3.724 1.212-1.325-1.793-1.464-1.802-2.398-.153-.546.963-1.693 1.75-2.55 1.75-.942 0-1.339.567-1.006 1.435.303.79.046 1.604-.57 1.809-1.29.43-.15 2.756 1.351 2.756.55 0 .722-.45.382-1-.34-.55-.093-1 .548-1s.907.675.59 1.5c-.361.942.011 1.5 1 1.5.914 0 1.358.568 1.057 1.353-.286.744.341 2.09 1.393 2.99 1.777 1.522 1.913 1.515 1.927-.103.013-1.489.155-1.524.985-.24 1.102 1.706 1.486-.18 1.079-5.311-.239-3.009 1.564-6.028 3.051-5.109.496.307.622 1.012.28 1.566-.342.554-.76 2.435-.927 4.181-.555 5.792-.965 6.991-3.243 9.499-1.243 1.368-2.095 2.653-1.893 2.854.688.688 3.643-.887 3.153-1.68-.269-.435.169-1.043.974-1.352.804-.308 1.728-.13 2.053.396.325.526.114.956-.468.956-.582 0-1.058 1.012-1.057 2.25.003 3.409 7.734 3.242 11.571-.25 2.039-1.856 2.585-2.049 2.119-.75-.487 1.353-.089 1.75 1.756 1.75 1.312 0 2.614.563 2.893 1.25.385.95.749.901 1.517-.202.555-.799.788-1.811.517-2.25-.271-.439.659-.798 2.066-.798 1.762 0 2.566.545 2.581 1.75.018 1.418.393 1.276 1.978-.75 1.328-1.698 1.972-2.019 2.008-1 .044 1.243.217 1.218 1.012-.143.574-.983.625-3.436.126-6.107-.459-2.455-.624-7.003-.366-10.107.452-5.456-.242-6.781-2.413-4.61-1.147 1.147-4.367.28-4.367-1.175 0-.549-.715-.573-1.75-.058-.963.479-4 1.004-6.75 1.168-2.75.164-6.249.392-7.777.506-1.527.114-3.552-.381-4.5-1.101-1.157-.88-1.293-1.32-.414-1.341.72-.018 1.031-.482.691-1.032-.898-1.453-2.199-1.225-2.862.5M208 259.022c-2.475.348-9 2.914-14.5 5.703s-12.996 6.442-16.658 8.119c-7.384 3.381-10.6 6.844-13.612 14.656-2.252 5.839-4.767 19.822-3.836 21.328 2.14 3.463 28.606 3.451 28.606-.012 0-.514.417-.676.928-.361.51.316 2.197-.544 3.75-1.909 2.2-1.936 2.443-2.49 1.103-2.514-1.183-.022-1.52-.547-1.084-1.686.56-1.459.841-1.4 2.379.5 2.208 2.726 3.605 2.733 4.466.022.474-1.495.905-1.763 1.44-.897.588.952 1.261.97 2.929.077 1.232-.66 3.118-.837 4.377-.413 3.625 1.223 5.035.983 8.712-1.48 6.72-4.502 23.919-12.213 30.683-13.757 8.947-2.043 9.761-2.539 10.125-6.177 1.176-11.751-7.061-18.84-22.567-19.423-1.831-.069-2.807-.448-2.169-.842.637-.394-.69-.743-2.95-.774-2.261-.031-4.582-.348-5.16-.705-.577-.357-1.705-.105-2.506.559-.972.807-1.456.848-1.456.123 0-1.155-5.353-1.211-13-.137m53.5 46.943l-4 .638 4.5 1.247c7.562 2.094 14.358 5.113 17.288 7.678 2.971 2.601 8.028 13.518 9.132 19.71.426 2.393 1.46 4.156 2.873 4.9 1.214.639 2.432 1.432 2.707 1.763 1.546 1.862 6.282 3.315 9.238 2.835 3.984-.646 18.762-6.715 18.762-7.704 0-1.435-11.29-13.09-17.271-17.83-12.908-10.231-29.751-15.388-43.229-13.237m40 66.677c-20.529 8.907-37.568 18.107-50.416 27.219-7.168 5.085-25.84 22.716-24.974 23.583 1.562 1.561 24.104.672 25.979-1.025 1.114-1.007 1.911-1.247 1.911-.574 0 1.316 3.616 1.585 4.394.327.281-.456 2.821-.881 5.644-.946 3.956-.09 5.571-.622 7.047-2.324 1.053-1.215 1.915-1.914 1.915-1.555s.9-.247 2-1.347 2.45-2 3-2c.55 0 1-.675 1-1.5s.788-1.529 1.75-1.563c1.308-.048 1.166-.298-.564-.992-1.329-.533-2.021-1.403-1.625-2.044.471-.761-.012-.893-1.522-.414-1.985.631-2.098.493-1.11-1.355.606-1.132 1.678-1.836 2.383-1.566 1.458.56 1.693-3.258.331-5.383-1.471-2.296.105-2.435 2.335-.205 1.18 1.18 2.905 1.984 3.833 1.788.929-.197 2.26.563 2.958 1.688 1.16 1.869 1.232 1.765.838-1.204-.717-5.387 3.007-4.494 3.925.942.39 2.305 1.329 4.812 2.088 5.571.759.759 1.38 2.248 1.38 3.308 0 2.642 1.245 2.445 8.36-1.321 7.01-3.71 21.64-17.112 21.64-19.823 0-2.162-10.906-15.98-14.441-18.296-3.147-2.063-2.925-2.085-10.059 1.011M206 403.119c-9.114 2.309-36.192 2.547-38.4.338-.784-.783-1.809-.946-2.659-.421-1.781 1.101-1.755 1.121 6.867 5.442 5.514 2.763 29.699 11.522 31.815 11.522.26 0 9.411-13.823 11.75-17.75.945-1.585-.044-1.493-9.373.869m124 8.532c-17.976 18.52-54.609 30.295-96 30.857-7.425.1-13.931-.057-14.458-.35-3.816-2.123-5.428-1.023-6.571 4.483-2.956 14.238 4.243 34.815 16.109 46.042 5.804 5.492 9.482 8.317 10.828 8.317.6 0 1.092.444 1.092.987 0 1.16 6.386 3.985 9.614 4.252 1.233.102 2.054.489 1.825.859-.229.371.457.903 1.524 1.182 1.068.279 2.152-.007 2.41-.636s.505-.41.548.487c.052 1.071 1.607 2.016 4.522 2.75 6.083 1.532 7.546 1.411 7.62-.631.049-1.341.275-1.224.968.5 2.195 5.461 29.788 1.272 43.469-6.599 20.499-11.793 32.162-43.235 27.506-74.151-1.109-7.363-5.175-23.004-5.977-22.992-.291.004-2.554 2.093-5.029 4.643" fill="#d3d3d3" fill-rule="evenodd"/></svg>