<svg xmlns="http://www.w3.org/2000/svg" width="500" height="375"><path d="M0 146v146h2.559c1.407 0 2.307-.407 2-.905-.318-.514 1.167-.673 3.441-.368 2.727.366 4 .158 4-.654 0-.674.523-.868 1.205-.446.662.409 2.542.891 4.177 1.07 3.815.417 4.056.722 2.109 2.669-1.337 1.337-3.092 1.499-10.548.969L0 293.701v7.281l7.25-.481c17.885-1.186 32.049-1.313 56.25-.504 24.446.818 26.457.749 33.641-1.144 8.547-2.252 8.859-2.709 8.859-12.978 0-5.029.842-5.976 3-3.375 1.702 2.051 4.58 1.882 9.64-.568 2.349-1.137 6.792-2.327 9.873-2.645l5.602-.579-.227 5.595c-.208 5.139-.462 5.692-3.125 6.795-5.86 2.428.2 2.872 39.398 2.887l39.661.015 2.589-3.077c1.931-2.295 2.589-4.2 2.589-7.5 0-4.916-.269-4.787 9.439-4.517 6.166.172 5.679-.556 6.301 9.414l.527 8.439-8.618-.309c-4.74-.17-8.843.055-9.117.499-.614.993 4.362 2.051 9.643 2.051 2.158 0 5.342.733 7.075 1.629 2.592 1.341 5.195 1.529 14.7 1.066 16.378-.8 16.263-.745 16.015-7.584-.417-11.482-.048-15.111 1.535-15.111 1.815 0 1.997 1.656.25 2.28-2.197.785-.153 1.778 4.871 2.366 2.683.314 6.282 1.423 7.997 2.463 2.654 1.61 5.145 1.891 16.75 1.891H306v-10h18.211c18.127 0 18.195.008 14.708 1.786-1.927.983-5.606 3.12-8.177 4.75l-4.673 2.964.617 12.228.616 12.228-11.079-.499c-10.588-.476-16.016.705-9.514 2.07 1.535.322 4.591 1.046 6.791 1.608 2.2.563 4.894 1.007 5.987.988 1.625-.028 1.717.137.5.906-1.081.684-.446.945 2.329.956 2.098.008 4.585.427 5.526.931 5.516 2.951 32.523-.896 35.305-5.03.512-.762.799-4.851.637-9.086l-.294-7.7 7.505.471c10.808.678 60.537 2.429 68.983 2.429 6.702 0 7.116-.127 6.522-2-.587-1.849-.18-2 5.374-2 10.393 0 8.252-2.414-2.874-3.24-3.255-.242-3.521-.518-3.806-3.942-.292-3.509-.151-3.698 3-4.007 1.818-.178 4.881-.009 6.806.377 3.882.778 19.818 2.928 24.5 3.305 16.663 1.344 19.977 1.684 20.684 2.12.449.278.816-64.997.816-145.054V0H0v146m.487.5c0 80.3.118 113.298.263 73.328.145-39.969.145-105.669 0-146C.605 33.498.487 66.2.487 146.5m57.417 137.93c-.237.236-3.124.548-6.417.693-3.293.145-6.516.654-7.163 1.131-.647.477-1.95.728-2.896.557-.946-.171-1.881.144-2.078.7-.574 1.624 11.685 4.648 17.438 4.302L62 291.5v-3.75c0-3.444-2.194-5.222-4.096-3.32" fill="#d3d3d3" fill-rule="evenodd"/></svg>