<svg xmlns="http://www.w3.org/2000/svg" width="500" height="889"><path d="M0 444.502v444.502l250.25-.252 250.25-.252.251-444.032.251-444.032-2.583-.213c-1.691-.14-2.432.216-2.147 1.031.239.685 1.176 1.114 2.082.952C499.879 1.934 500 25.24 500 319.956c0 178.311-.38 318.044-.865 318.044-.476 0-2.105-.975-3.62-2.167l-2.755-2.167-1.671 2.216c-1.12 1.485-2.247 1.995-3.417 1.545-1.059-.406-2.519.029-3.709 1.107-1.126 1.018-1.963 1.283-1.963.621 0-.635-.723-1.155-1.607-1.155-1.067 0-1.399.542-.989 1.611.443 1.153.189 1.447-.893 1.032-.831-.319-1.511-.144-1.511.388 0 .867 4.471 1.469 7.75 1.044.688-.09 1.25.307 1.25.881 0 .574-1.35 1.044-3 1.044s-3 .429-3 .952c0 1.049-3.719.697-8.75-.827-2.14-.649-3.25-.648-3.25.004 0 .544-.45.711-1 .371-.55-.34-1-.086-1 .563 0 .887-.342.898-1.369.046-1.399-1.161-5.027-1.046-6.272.199-.381.38-1.48.692-2.442.692-.963 0-1.904.46-2.091 1.022-.45 1.35-5.543 2.245-6.251 1.1-.304-.492.455-1.226 1.686-1.631 2.011-.661 1.882-.805-1.261-1.42-4.104-.802-5.488-.364-4.106 1.302.619.745.643 1.745.064 2.661-.686 1.085-.931 1.126-.943.157-.008-.72-.434-1.05-.946-.734-.512.317-1.227.096-1.589-.489-.438-.71-1.057-.734-1.853-.074-.745.619-1.745.643-2.661.064-1.193-.755-1.103-.93.484-.943 1.477-.011 1.669-.296.792-1.173-.872-.872-1.498-.874-2.542-.008-.761.632-1.68.853-2.042.491-.362-.362-.658-.133-.658.508 0 .642.563 1.174 1.25 1.182.845.011.773.318-.224.948-.942.596-1.708.552-2.125-.123-.45-.728-.862-.712-1.335.053-.989 1.601-2.566 1.359-2.566-.393 0-.825-.723-1.5-1.607-1.5-.954 0-1.392-.56-1.078-1.378.392-1.021-.292-1.308-2.643-1.111-2.17.182-3.088.736-2.907 1.753.408 2.288-4.571 1.923-5.305-.389-.765-2.413-2.158-2.401-2.928.026-.332 1.045-1.713 2.178-3.068 2.519-1.355.34-2.464 1.186-2.464 1.881 0 .695-1.125 1.356-2.5 1.47-1.553.128-2.5-.313-2.5-1.166 0-1.363-2.9-2.565-6.25-2.591-.962-.008-1.75.436-1.75.986s.337.888.75.75c.413-.137.876.2 1.031.75.155.55-.83 1.14-2.188 1.31-1.358.171-2.67 1.071-2.915 2-.334 1.264-.475 1.151-.562-.447-.197-3.626-9.116-3.805-9.116-.182 0 .516.359.715.798.444.439-.271 1.451-.08 2.25.426 1.13.715.946.922-.829.934-1.255.008-2.513.619-2.796 1.356-.525 1.368-11.423 1.926-11.423.585 0-.357-1.192-.421-2.649-.142-1.828.349-2.429.151-1.941-.639.39-.63.269-1.145-.268-1.145-.536 0-1.164.337-1.395.75-.23.413-.282.188-.114-.5.167-.688-.132-1.25-.664-1.25-.533 0-.976.788-.984 1.75-.013 1.496-.157 1.532-.985.25-.761-1.178-.973-1.206-.985-.128-.011 1.048-.339 1.104-1.382.238-1.035-.859-1.649-.795-2.526.261-1.451 1.749.629 2.772 3.897 1.918 1.697-.444 2.118-.188 1.847 1.121-.193.933-.801 1.716-1.351 1.741-.55.026-1.751.448-2.669.94-.918.491-1.857.559-2.086.151-.23-.408-.28-.179-.112.508.235.965-.45.935-2.996-.128-2.916-1.219-3.43-1.189-4.41.249-1.022 1.5-1.114 1.498-1.168-.027-.05-1.396-.438-1.477-2.474-.516-1.328.626-2.201 1.484-1.941 1.906.261.421.03.766-.512.766s-1.191.787-1.443 1.75c-.265 1.017-.506.533-.573-1.155-.11-2.749-.214-2.816-1.945-1.25-1.006.91-2.607 1.655-3.559 1.655-.951 0-1.451.452-1.109 1.004.394.638-.68.798-2.941.439-3.446-.548-4.94.735-2.312 1.985.688.327.159.386-1.175.131-1.529-.292-2.873.15-3.639 1.197-1.091 1.493-1.487 1.336-3.914-1.547-3.349-3.981-5.919-4.384-4.522-.709 1.013 2.665.173 3.273-1.8 1.3-.66-.66-1.207-.772-1.215-.25-.009.523-.346.444-.75-.174-.513-.785-1.49-.826-3.235-.136-1.46.577-1.98 1.183-1.25 1.457 2.144.805 1.369 2.303-1.191 2.303-3.244 0-3.977-1.439-1.828-3.588 1.666-1.666 1.614-1.715-1.075-1.041-2.084.524-2.628.392-2.076-.501.512-.827.232-1.012-.884-.584-.898.345-1.874.235-2.17-.244-.296-.479.027-1.073.718-1.32.691-.246.921-.807.512-1.246-.409-.438-1.646.02-2.75 1.018-1.662 1.505-2.006 1.556-2.006.299 0-1.026-.811-1.429-2.5-1.244-2.052.226-2.5-.158-2.5-2.137 0-2.924-.465-2.989-3.193-.447-1.161 1.081-2.492 1.73-2.958 1.441-.467-.288-.849.665-.849 2.118 0 1.692-.45 2.478-1.25 2.184-.687-.252-1.12-1.017-.961-1.701.2-.858-.486-1.049-2.21-.616-1.904.478-2.766.129-3.619-1.466-.921-1.721-1.818-2.012-5.04-1.64-2.784.321-3.92.075-3.92-.849 0-.716-.9-1.587-2-1.936s-2-1.504-2-2.567c0-1.063-.477-1.933-1.059-1.933s-.781.45-.441 1 .029 1.014-.691 1.032c-.807.019-.565.594.632 1.5 1.863 1.409 1.834 1.468-.725 1.468-2.45 0-2.587-.209-1.69-2.568.875-2.303.77-2.502-1.025-1.932-1.148.364-2.001.18-2.001-.433 0-.587-.787-1.053-1.75-1.035-1.583.029-1.565.171.191 1.5 1.98 1.497.992 1.955-1.859.861-2.266-.87-1.955-3.393.418-3.393 1.1 0 2-.48 2-1.067 0-.591-.842-.8-1.887-.469-1.752.556-1.897-.075-2.028-8.786-.077-5.162-.799-13.776-1.605-19.142-1.113-7.415-1.238-11.95-.522-18.896.519-5.027 1.223-13.865 1.565-19.64.342-5.775 1.299-15.675 2.126-22 2.166-16.557 3.258-30.124 3.302-41 .021-5.225.474-14 1.008-19.5.533-5.5 1.451-15.4 2.038-22 1.089-12.219 3.06-24.013 5.516-33 .752-2.75 1.668-6.969 2.036-9.375.368-2.407 2.533-7.807 4.81-12l4.141-7.625V407c0-10.068-.46-13.243-3.697-25.5-2.033-7.7-4.665-18.48-5.849-23.956l-2.152-9.956 3.273-6.544c1.8-3.599 4.52-7.894 6.045-9.544 1.524-1.65 4.034-5.7 5.576-9l2.804-6 .369-32c.666-57.721.794-53.404-1.762-59.179-2.799-6.325-4.511-7.946-10.746-10.177-9.624-3.443-9.962-13.888-.786-24.278 1.946-2.202 3.484-5.255 3.905-7.75.383-2.264 1.253-4.116 1.933-4.116 1.318 0 3.141-1.666 7.117-6.5 4.231-5.144 2.502-16.161-2.924-18.634-1.374-.625-3.199-2.764-4.057-4.752-1.848-4.282-4.784-9.487-6.555-11.621-.698-.841-1.375-2.533-1.504-3.761-.129-1.228-.292-2.794-.362-3.482-.18-1.764-2.128-1.563-2.128.219 0 .903-.585 1.244-1.521.884-1.213-.465-.96-1.067 1.25-2.967 1.524-1.311 2.321-2.413 1.771-2.448-.55-.036.06-.489 1.355-1.008 1.354-.542 2.137-1.509 1.842-2.276-.365-.952.565-1.376 3.25-1.481 4.573-.179 10.776-2.608 9.179-3.595-.619-.383-1.485-.474-1.924-.203-.439.271-1.451.08-2.25-.426-1.134-.717-.959-.922.798-.934 1.494-.01 2.25-.62 2.25-1.815 0-.99.54-2.34 1.2-3 .933-.933.933-1.2 0-1.2-.66 0-1.2-.477-1.2-1.059s.403-.81.895-.506c.493.305 1.129-.055 1.414-.799.286-.743 1.915-1.631 3.622-1.972 2.075-.415 3.419-1.455 4.061-3.142.862-2.267 2.031-2.992 4.258-2.64.413.065.75-.332.75-.882s1.18-1 2.622-1c2.336 0 2.473-.184 1.25-1.687-1.21-1.488-1.152-1.605.489-.989 1.428.536 1.721.331 1.257-.878-.475-1.236-.148-1.431 1.514-.904 1.424.452 1.894.31 1.434-.435-.376-.609-.207-1.107.375-1.107S300 91.1 300 90c0-1.145.667-2 1.559-2 .857 0 1.281-.45.941-1-.34-.55-.152-1 .417-1s1.926-1.687 3.015-3.75c1.089-2.062 1.999-3.187 2.024-2.5.024.688.719 1.25 1.544 1.25 1.764 0 1.942 1.158.413 2.687-1.66 1.66.497 2.488 3.503 1.345 2.858-1.087 3.621-3.296.834-2.417-1.266.4-1.098-.023.611-1.531 1.298-1.146 3.624-2.084 5.168-2.084 3.901 0 5.971-.946 5.971-2.729 0-1.174.31-1.258 1.378-.372 1.635 1.356 2.912-1.811 1.592-3.948-.923-1.493-.174-3.951 1.204-3.951.529 0 .675.9.326 2-.364 1.147-.18 2 .433 2 .587 0 1.067-.417 1.067-.927 0-.509.788-1.132 1.75-1.384 1.667-.435 1.667-.463 0-.573-1.045-.069-1.75-.922-1.75-2.116 0-2.485 2.019-2.643 2.656-.208.362 1.384 1.236 1.702 3.836 1.399 2.513-.294 3.22-.778 2.786-1.909-.481-1.254-.223-1.323 1.505-.398 2.919 1.562 3.117 1.456 2.905-1.559-.169-2.402.16-2.682 3.235-2.75 2.859-.063 3.545-.528 4.162-2.82.407-1.51.329-2.999-.173-3.309-.501-.31-.948-1.775-.991-3.255-.043-1.48-.306-2.128-.583-1.441-.837 2.073-2.343 1.406-2.259-1 .043-1.237.314-1.664.601-.947.393.98.889.856 2.003-.5 1.425-1.736 1.459-1.736.906.01-.517 1.63-.273 1.598 2.418-.318 1.646-1.172 3.012-2.663 3.035-3.313.023-.65.864.361 1.869 2.248 1.788 3.357 1.851 3.384 2.993 1.25.963-1.8.899-2.18-.369-2.18-.844 0-1.535-.45-1.535-1s1.575-1 3.5-1 3.5.45 3.5 1 .702 1 1.559 1c.964 0 1.285-.477.84-1.25-.396-.687-.351-.916.099-.509.45.408 1.433.231 2.184-.392 1.644-1.364 2.371-.79 2.584 2.038.088 1.162.753 2.113 1.478 2.113 1.722 0 2.971-3.262 1.445-3.77-.822-.274-.723-.838.329-1.891.825-.825 2.058-1.274 2.741-.998.982.396.98.518-.009.58-.687.043-1.25.487-1.25.985 0 .499.97.653 2.156.343 1.186-.31 1.909-.156 1.605.343-.6.989 1.097 2.759 3.028 3.158 1.745.36 1.495-1.704-.289-2.388-1.82-.699-1.976-3.003-.25-3.7.974-.393.965-.522-.039-.583-1.038-.064-1.044-.342-.03-1.428.693-.742 2.017-1.15 2.943-.908 1.108.289 1.933-.36 2.414-1.902.403-1.287 1.233-2.672 1.847-3.076.734-.483.603-.745-.385-.765-1.333-.027-1.333-.138 0-1 2.239-1.447 4.294-1.208 3.666.427-.301.785.049 1.921.777 2.525 1.722 1.43 2.91-1.199 1.279-2.83-.829-.829-.809-1.122.078-1.122.66 0 1.214.563 1.232 1.25.02.776.526.599 1.335-.465.991-1.306 1.581-1.437 2.468-.55S405 30.994 405 29.7c0-.935-.45-1.7-1-1.7-1.578 0-1.165-1.723.572-2.389.865-.332 2.381-.171 3.369.357 2.228 1.193 3.427.181 1.928-1.626-.852-1.026-.743-1.342.459-1.342.865 0 2.016-.787 2.557-1.75.886-1.575 1.078-1.501 1.909.734.883 2.377.951 2.395 1.579.416.722-2.274 3.627-2.861 3.627-.733 0 .733.41 1.333.912 1.333s.787-1.14.634-2.533c-.289-2.632-1.546-4.725-1.546-2.575 0 .674-.445.951-.989.615-1.298-.802 1.886-5.709 3.378-5.206.611.206 1.659-.34 2.329-1.213.805-1.049 1.229-1.164 1.25-.338.018.688 1.044 1.214 2.282 1.171 1.238-.043 1.688-.306 1-.583-.687-.278-1.214-1.48-1.171-2.671.043-1.192.306-1.604.583-.917.278.688.903 1.25 1.39 1.25.487 0 .598-.749.247-1.664-.464-1.208-.276-1.44.686-.846.881.545 1.085.433.61-.335-.963-1.56 1.659-1.484 3.317.095 1.073 1.021 1.19.793.644-1.25l-.669-2.5 2.509 2.75C440.259 9.389 441 9.639 441 7.465c0-1.24.396-1.323 2.059-.433 1.751.937 2.013.829 1.75-.715-.17-.999-.759-2.148-1.309-2.552-.55-.404.012-.741 1.25-.75 1.238-.008 2.25.487 2.25 1.102 0 .614.823.901 1.829.638s2.634.11 3.617.829c1.965 1.437 7.109-.878 5.986-2.693-.302-.49.264-.923 1.259-.961 1.615-.063 1.594-.163-.191-.93C458.4.527 354.563.109 228.75.07L0 0v444.502m.496.498c0 244.475.114 344.488.254 222.25.14-122.237.14-322.262 0-444.5C.61 100.513.496 200.525.496 445M214 168.117c0 .641-.892.883-2.099.567-1.696-.443-2.002-.178-1.594 1.384.283 1.078-.005 1.948-.651 1.967-.636.02-.083.631 1.229 1.358 2.705 1.499 1.904 2.388-2.135 2.369-2.992-.013-3.409-.703-1.55-2.562.933-.933.687-1.2-1.108-1.2-1.963 0-2.215.374-1.681 2.5.361 1.442.196 2.5-.392 2.5-.56 0-1.019-.482-1.019-1.071 0-.59-.729-.343-1.619.547-.891.891-1.316 1.922-.946 2.293.371.37.992.158 1.381-.472.454-.734 1.129-.253 1.881 1.34 1.071 2.271.984 2.458-1.012 2.174-2.601-.37-5.711 1.958-5.02 3.758.94 2.45-6.7 12.431-9.516 12.431-.632 0-1.149.436-1.149.969 0 .532-.68.707-1.511.388-1.082-.415-1.336-.121-.893 1.032.34.886.12 1.611-.489 1.611s-1.107.45-1.107 1 .832 1 1.848 1c1.367 0 1.87.78 1.933 3 .066 2.328-.348 3-1.848 3-1.063 0-1.934.338-1.936.75-.001.412-1.35 1.65-2.997 2.75-3.079 2.057-4.18 4.89-1.5 3.862.832-.32 1.5-.029 1.5.653 0 .966.322.963 1.5-.015 1.998-1.659 1.927-.284-.091 1.734-1.351 1.351-1.725 1.378-2.484.178-.632-.997-.899-1.045-.91-.162-.008.688-.69 1.25-1.515 1.25s-1.5.45-1.5 1c0 .994 1.362 1.385 3.75 1.075.688-.09 1.25.334 1.25.94 0 .607-.445.828-.989.492-.566-.35-.734.051-.393.941.385 1.001.032 1.552-.992 1.552-.873 0-1.877 1.152-2.23 2.56-.408 1.623-1.146 2.366-2.019 2.031-.758-.291-1.377-.097-1.377.429 0 1.296-4.983.816-5.063-.488-.035-.568-.471-.02-.968 1.218-.498 1.238-1.594 2.25-2.437 2.25-.842 0-1.532.45-1.532 1s.563 1.007 1.25 1.015c.895.011.854.266-.143.898-.817.517-1.166 1.753-.844 2.985.302 1.156.115 2.102-.416 2.102s-.685.453-.342 1.008c.342.554-.081 1.711-.941 2.571-.86.86-1.564 1.082-1.564.492 0-.589-.675-1.071-1.5-1.071s-1.5.45-1.5 1 .477 1 1.059 1 .805.412.494.915c-.311.503 0 1.142.691 1.421.758.305.562.537-.494.585-.963.043-1.75-.371-1.75-.921 0-1.203-1.041-1.26-2.784-.155-.718.456-.997 1.562-.633 2.51.531 1.384.927 1.467 2.149.452 1.255-1.041 1.437-.923 1.12.725-.209 1.082-.936 2.024-1.616 2.093-2.537.257-2.701.428-1.276 1.329 1.245.788 1.171 1.251-.5 3.142-1.96 2.217-1.959 2.218.29 1.655 1.238-.31 2.25-.156 2.25.343 0 .498-.477.906-1.059.906s-.738.52-.345 1.156c.511.827-.185.976-2.441.525-2.399-.48-3.155-.278-3.155.844 0 .811.9 1.475 2 1.475s2 .45 2 1c0 1.065-1.169 1.327-4.679 1.048-2.845-.225-8.375 2.655-8.064 4.2.134.663-.769 1.359-2.007 1.548-2.416.368-3.019 1.781-1.042 2.44.77.257.225 1.462-1.5 3.323-2.81 3.03-3.519 5.441-1.6 5.441 2.877 0-2.116 8.661-5.261 9.125-.466.069-1.372.181-2.014.25-1.86.199-2.058 2.258-.378 3.938 1.707 1.706 2.089 3.141.591 2.215-3.137-1.938-5.546.567-5.736 5.965-.134 3.813.159 5.27 1 4.963 2.349-.859 3.814 1.047 2.785 3.622-.533 1.332-.997 1.833-1.032 1.113-.144-2.992-1.683-.007-1.901 3.69-.191 3.231.185 4.234 1.936 5.171 1.732.927 1.891 1.341.787 2.04-2.069 1.31-2.686 1.111-3.385-1.092-.448-1.413-1.513-2-3.626-2-1.754 0-2.734.417-2.37 1.007.343.554-.152 1.304-1.099 1.668-1.498.575-1.363.947 1.041 2.864 2.377 1.895 2.603 2.5 1.623 4.332-.921 1.721-.859 2.129.324 2.129 1.832 0 4.801 2.877 4.115 3.987-.28.454-1.41.59-2.509.302-1.39-.363-1.999-.03-1.999 1.094 0 .89-.375 1.617-.833 1.617-1.23 0-1.043 3.378.234 4.25.756.516.631 1.057-.401 1.735-1.252.822-1.169 1 .5 1.079 1.456.068 1.592.249.5.665-.825.314-1.77.983-2.1 1.487-.33.505-1.455 1.059-2.5 1.233-1.045.174-1.787.819-1.65 1.434.138.614-.2 1.117-.75 1.117s-1 .502-1 1.117c0 .651 1.041.917 2.5.638 2.665-.509 2.99-.077 1.596 2.123-.48.758-1.322 1.101-1.871.761-.548-.339-1.232.278-1.518 1.372-.286 1.094-.112 1.989.387 1.989.498 0 .906.45.906 1s-.542.888-1.205.75c-.662-.137-1.281.313-1.375 1-.093.688-.226 1.7-.295 2.25-.069.55-1.025 1-2.125 1-1.903 0-2.436.964-2.075 3.75.09.688-.307 1.25-.881 1.25-2.414 0-.796 2.896 1.956 3.5 4.633 1.018 2.884 3.772-2.5 3.938-1.176.037-2.005.754-2.013 1.741-.007.924-.344 2.012-.75 2.417-1.537 1.538-.641 2.619 1.787 2.155 1.388-.266 2.765-.093 3.059.383.294.476-.167.866-1.024.866s-1.559.83-1.559 1.845c0 1.015-.93 2.687-2.066 3.715-1.974 1.787-1.986 1.929-.265 3.187 1.706 1.248 1.688 1.347-.341 1.878-2.327.608-3.765 3.987-2.127 4.999.632.391.503.949-.344 1.486-.952.602-.993.864-.138.875.67.008.981.632.692 1.386-.647 1.687 2.661 3.13 3.62 1.579.46-.745.898-.576 1.313.504.717 1.869-1.516 3.078-3.955 2.142-1.17-.449-1.447-.191-1.012.945.345.898.18 1.303-.388.952-.544-.336-.989.106-.989.983 0 1.266-.398 1.381-1.934.559-2.903-1.554-4.066-1.261-4.066 1.024 0 1.317-.421 1.799-1.17 1.336-.762-.471-.968-.198-.591.786.33.859-.243 2.101-1.33 2.885-2.079 1.498-2.576 3.934-.802 3.934.609 0 .848.675.531 1.5-.316.825-.139 1.5.393 1.5.533 0 .969.675.969 1.5s-.45 1.5-1 1.5-1 .675-1 1.5-.373 1.5-.829 1.5c-.457 0-.794 1.012-.75 2.25.043 1.237-.441 2.152-1.076 2.032-.635-.12-1.409.442-1.719 1.25-.311.81-.001 1.468.693 1.468.69 0 1.327.946 1.414 2.102.119 1.583-.297 1.984-1.683 1.621-1.221-.319-2.268.315-3.106 1.881-.695 1.3-2.092 2.626-3.104 2.947-2.594.823-2.302 2.383.318 1.697 1.878-.491 2.074-.251 1.514 1.844-.355 1.324-.651 2.772-.658 3.217-.008.445-.529.491-1.159.101-.817-.504-.936.124-.415 2.191.402 1.595.709 4.153.683 5.685-.027 1.54.382 2.52.914 2.191.53-.327.963.08.963.905 0 2.115 2.059 3.14 3.059 1.523.497-.805.372-1.639-.31-2.06-.696-.43-.123-.964 1.459-1.361 2.333-.586 2.517-.956 1.768-3.569-.753-2.623-.604-2.915 1.487-2.915 1.278 0 2.582.675 2.899 1.5.316.825.109 1.5-.461 1.5-.601 0-.753.892-.361 2.125.454 1.43.312 1.902-.433 1.441-1.029-.636-1.608 1.902-1.182 5.184.09.688-.359 1.25-.996 1.25-.757 0-.603.848.445 2.448.887 1.353 1.309 3.214.945 4.164-.414 1.079-.267 1.474.397 1.063 1.12-.691 2.479 2.797 1.48 3.796-1.062 1.062-1.044 3.553.022 2.895.588-.364.84-.04.579.745-.255.764-1.266 1.545-2.248 1.735-1.097.213-1.525-.077-1.108-.75.415-.673-.215-1.102-1.632-1.111-1.858-.013-2.016-.205-.809-.985 1.213-.784 1.069-.972-.75-.985-1.84-.012-2.25-.573-2.25-3.074 0-1.864-.406-2.808-1.041-2.416-.572.354-.749 1.562-.393 2.684.432 1.361.279 1.813-.459 1.357-.731-.452-1.107.543-1.107 2.934 0 2.48.363 3.394 1.155 2.905.768-.475.88-.271.335.61-.593.96-.363 1.15.833.691 1.142-.438 2.079.183 3.038 2.014 1.366 2.607 1.398 2.614 2.081.464.381-1.201 1.07-2.184 1.532-2.184 1.283 0-.046 3.996-1.341 4.03-.623.017-.336.495.637 1.061.974.567 2.718.73 3.875.363 1.342-.426 1.873-.292 1.464.37-.353.571-.189 1.317.364 1.659.634.392.455 1.461-.488 2.899-.82 1.253-1.264 2.506-.985 2.785.279.279.695 3.299.925 6.712.389 5.769.282 6.163-1.514 5.593-1.555-.494-2.053-.014-2.547 2.457-.338 1.689-1.12 3.078-1.739 3.086-.66.009-.564.371.232.875.946.6 1.021 1.067.25 1.544-.609.376-1.107.282-1.107-.208 0-.491-.675-.893-1.5-.893s-1.5.563-1.5 1.25c0 .688-.499 1.417-1.11 1.62-.712.238-.571.816.394 1.618 1.206 1.001 1.773.987 2.86-.068.746-.724 2.53-1.404 3.966-1.512 2.291-.172 2.571.137 2.287 2.532-.503 4.25.485 6.227 3.111 6.227 2.337 0 3.752 1.288 4.126 3.755.105.69-.29.958-.876.595-.702-.434-.764-.179-.18.745 1.724 2.73 1.288 6.905-.721 6.905-1.021 0-1.857.675-1.857 1.5 0 .872.907 1.5 2.167 1.5 2.499 0 1.906 1.02-.825 1.42-2.686.392-3.028 3.58-.384 3.58 1.158 0 2.363.672 2.678 1.494.316.822 1.027 1.214 1.581.872.553-.342 1.399-.002 1.879.756.651 1.026.877 1.054.889.108.01-.827.943-1.101 2.678-.786 4.105.744 4.521 1.878 1.777 4.837-1.386 1.495-2.026 2.719-1.421 2.719.604 0 .827.441.494.979-.739 1.195 1.184 5.021 2.522 5.021.531 0 .979-.562.997-1.25.07-2.774 2.761-4.951 5.145-4.164l2.323.767-2.5.724c-2.381.689-2.392.728-.25.823 1.237.055 2.25.55 2.25 1.1 0 1.38-2.344 1.256-3.8-.2-.849-.849-1.2-.87-1.2-.071 0 .62.707 1.835 1.571 2.7 1.194 1.194 1.254 1.595.25 1.671-.726.055-.196.41 1.179.791 1.457.403 2.625 1.547 2.799 2.743.171 1.172 2.001 3.009 4.264 4.282 4.619 2.595 4.319 4.084-.822 4.084-2.832 0-3.374.267-2.441 1.2 1.54 1.54 1.562 3.142.03 2.195-.787-.486-.961-.178-.531.941.351.915.172 1.664-.398 1.664-.612 0-.753.919-.344 2.25.945 3.073 1.175 3.217 2.882 1.801 1.191-.989 2.122-.918 4.678.357 1.754.876 3.909 1.637 4.787 1.692 1.747.109-2.483 1.649-4.904 1.785-1.333.075-1.333-.023 0-.885 1.226-.792 1.111-.972-.633-.985-1.484-.01-2.278.741-2.609 2.468-.423 2.217-.209 2.417 1.991 1.865 1.581-.397 2.78-.122 3.343.767 1.285 2.029 1.113 2.685-.842 3.196-1.077.281-.692.502 1 .573 1.513.064 2.75-.334 2.75-.884s.862-1 1.917-1c1.054 0 2.066-.436 2.25-.968.205-.597.897-.617 1.804-.054 1.965 1.22.746 2.272-2.634 2.272h-2.746l2.226 1.803 2.226 1.802-2.272.397c-2.074.362-2.11.467-.42 1.218 1.19.528 2.126.376 2.623-.428.608-.984 1.25-.993 3.034-.038 1.757.94 1.959 1.398.906 2.049-1.943 1.201-.992 1.739 3.95 2.233 2.39.239 4.698 1.005 5.129 1.703.431.697 1.21 1.003 1.732.681 1.501-.928 5.26 2.206 4.626 3.857-.311.81-.067 1.473.542 1.473s1.107-.505 1.107-1.122c0-.732.572-.648 1.644.242 1.462 1.213 1.565 1.115.933-.878-.741-2.336 1.625-3.341 2.923-1.242.34.55.141 1-.441 1-1.508 0-1.319 2.993.191 3.032 2.465.063 5.372 2.966 3.888 3.882-.942.583-1.016 1.043-.245 1.52.609.376 1.51.435 2.002.131.493-.305 1.156.124 1.474.953.447 1.167.044 1.373-1.787.913-1.3-.326-2.664-.107-3.032.488-.396.64.167 1.081 1.38 1.081 2.417 0 6.207 2.969 5.418 4.245-.302.489.059.774.802.633 2.329-.441 7.85 1.23 7.85 2.376 0 .602 1.042.116 2.314-1.08 2.488-2.337 4.262-2.915 3.081-1.004-.486.787-.178.961.941.531.915-.351 1.664-.202 1.664.33 0 .533-.535.969-1.189.969-.653 0-.14.976 1.14 2.169 2.198 2.048 2.401 2.07 3.615.409 1.336-1.827 6.031-1.353 4.89.494-.316.51.015.973.735 1.027.72.055 2.55.21 4.067.346 1.539.138 2.703-.238 2.632-.849-.287-2.474.21-3.389 2.11-3.886 1.402-.366 2.005-.028 2.015 1.134.013 1.409.154 1.437.946.185.512-.809 1.279-1.122 1.706-.696.426.427.183 1.142-.541 1.589-.932.576-.493 1.02 1.504 1.521 1.731.435 2.958.293 3.178-.368.91-2.73 3.432-1.023 2.842 1.925-.338 1.692-.175 3 .375 3 1.096 0 1.357-10.285.288-11.354-.378-.378-.768-1.465-.866-2.416-.099-.952-.897-4.722-1.775-8.379-1.338-5.573-1.508-10.997-1.048-33.5.302-14.768.676-34.051.832-42.851.156-8.8.574-18.25.928-21 .354-2.75-.067-11.75-.936-20-.868-8.25-1.951-29.85-2.406-48-1.037-41.412-1.337-44.084-5.162-46.062-3.327-1.721-3.64-4.034-1.231-9.11 1.57-3.31 1.555-3.568-.324-5.447-1.963-1.964-1.973-1.937-2.171 5.704-.228 8.863-.443 9.415-3.662 9.415-2.552 0-5.138-2.941-9.828-11.178-3.188-5.598-3.507-11.927-.825-16.325 1.007-1.652 2.077-4.802 2.377-7 .3-2.198 2.132-6.697 4.071-9.997 2.514-4.28 4.152-9.011 5.713-16.5 1.373-6.589 4.036-14.712 7.149-21.807 3.568-8.134 5.192-13.327 5.785-18.5.453-3.956 1.505-9.443 2.337-12.193 3.23-10.669 4.754-20.368 4.742-30.174-.007-5.595.493-12.367 1.112-15.048 1.092-4.732 1.039-4.961-1.845-7.844-1.735-1.735-3.275-4.591-3.702-6.868-.697-3.718-.528-4.072 3.665-7.655 2.417-2.067 6.273-6.155 8.569-9.084 2.296-2.93 5.742-6.452 7.66-7.827 4.65-3.334 5.083-5.176 2.665-11.317-1.123-2.851-2.515-7.042-3.096-9.314-.775-3.036-1.782-4.438-3.798-5.285-6.777-2.849-7.743-4.381-7.743-12.278 0-5.106-.376-7.339-1.25-7.428-.687-.071-1.952-.184-2.809-.253-.857-.069-1.3-.544-.984-1.056.317-.512.096-1.227-.489-1.589-.741-.458-.708-1.088.106-2.069.926-1.116.832-1.411-.452-1.411-.892 0-1.622.502-1.622 1.117m44.609 103.613c-1.258 23.508-2.355 52.766-1.993 53.174.197.222 1.541-2.253 2.986-5.5 2.444-5.492 2.569-6.463 1.792-13.904-.46-4.4-.849-16.398-.865-26.662-.034-21.864-.949-25.251-1.92-7.108" fill="#d3d3d3" fill-rule="evenodd"/></svg>