<svg xmlns="http://www.w3.org/2000/svg" width="500" height="715"><path d="M0 214.502v214.502l250.25-.252 250.25-.252.252-214.25L501.005 0H0v214.502m.491.498c0 117.975.116 166.238.259 107.25.142-58.987.142-155.512 0-214.5C.607 48.763.491 97.025.491 215M199.894 42.75c-.058.413-.024 1.986.075 3.497.148 2.245-.153 2.64-1.644 2.156-1.512-.49-1.568-.41-.325.47 1.305.923 1.239 1.318-.5 3.031-3.199 3.151-7.114 3.685-8.468 1.156-.623-1.164-1.547-1.86-2.053-1.547-.506.313-1.207-.571-1.556-1.965-.35-1.394-1.011-2.303-1.468-2.02-.458.283-1.256-.243-1.773-1.168-1.43-2.554-2.49 23.768-1.281 31.796.055.361.886.504 1.849.318.963-.187 5.951-.89 11.086-1.564 12.273-1.61 12.166-1.473 12.153-15.731-.015-16.046-.606-19.179-3.62-19.179-1.303 0-2.417.337-2.475.75M47.5 75.104c-1.65.507-5.25 1.26-8 1.673-4.9.736-5 .82-5 4.237 0 3.897-.902 3.72 11.5 2.254l6.5-.768v-3.917c0-4.363-.652-4.816-5-3.479M23 76.752c-8.207.627-9.775 1.217-10.456 3.93-1.164 4.638 1.396 5.798 12.089 5.474 4.682-.142 5.178-.385 5.631-2.756 1.087-5.684-.528-7.162-7.264-6.648m170.5 6.765c-.55.211-3.475.521-6.5.69l-5.5.307v16.493c0 9.071.31 17.246.689 18.165.929 2.256 4.811 1.216 4.811-1.289 0-3.38 3.48-5.678 9.668-6.383 8.376-.954 9.656-1.405 8.369-2.955-.732-.882-2.82-1.139-6.642-.816-3.066.259-7.541.176-9.944-.184l-4.37-.655.014-8.868c.016-10.272.184-10.507 8.212-11.478 3.752-.454 5.669-1.116 5.417-1.873-.409-1.227-2.522-1.805-4.224-1.154m-40.072 6.912c-.704 2.808-.147 32.237.624 32.885.777.654 20.41-1.385 21.235-2.206 1.472-1.463.959-21.195-.591-22.745-.637-.637-.794.243-1.094 6.137-.078 1.523-.816 2.009-3.095 2.036-2.013.025-3.102.598-3.324 1.75-.339 1.761-1.691 2.296-2.436.964-.23-.412-.282-.187-.114.5.167.688-.343 1.25-1.133 1.25-.867 0-1.209-.595-.862-1.5.317-.825.078-1.5-.531-1.5s-1.107.45-1.107 1-.9 1-2 1c-1.667 0-2-.667-2-4 0-2.2-.348-4-.773-4-.425 0-.909-3.034-1.076-6.742-.34-7.577-.747-8.717-1.723-4.829m11.072 40.326c-1.65.15-4.463.512-6.25.804l-3.25.532v34.184l8.25-.679c4.537-.374 9.15-.851 10.25-1.061 1.1-.21 2.269-.416 2.597-.458 1.108-.142 1.034-25.876-.085-30.034-1.212-4.499-.488-4.293-11.512-3.288m-29.058 6.467c-.545.947-2.008 1.877-3.252 2.067-2.373.362-9.709 10.062-8.765 11.59.502.813-.8 5.558-2.673 9.74-2.48 5.535.446 7.145 11.893 6.544l6.418-.336-.122-13.914c-.068-7.652-.499-13.913-.958-13.913-.46 0-.997-.787-1.194-1.75-.337-1.65-.414-1.651-1.347-.028m21.808 34.543c-2.151.358-2.25.796-2.25 9.984 0 12.769 1.856 18.144 5.179 15.001.726-.687 3.065-1.338 5.197-1.444 7.07-.355 11.247-7.258 11.076-18.306l-.084-5.5-8.434-.055c-4.639-.03-9.446.114-10.684.32M126 174c-1.925.405-3.13.796-2.679.868 1.16.186-1.939 3.132-3.295 3.132-1.5 0-.534 14.068 1.034 15.037.826.511.842.905.057 1.391-1.956 1.209 4.635 7.82 8.14 8.165 7.603.749 9.743-3.236 9.743-18.14V173l-4.75.132c-2.613.072-6.325.463-8.25.868m156.655 282.829c-3.599 3.977-.828 10.171 4.551 10.171 3.204 0 4.899-1.995 5.01-5.896.162-5.706-5.838-8.389-9.561-4.275M415 623v6h12v-12h-12v6m37.5-4c-.995 1.1-2.753 2.052-3.905 2.116-1.689.094-1.756.205-.345.573 2.138.559 2.327 2.311.25 2.311-.825 0-1.5-.45-1.5-1s-.45-1-1-1-1 .9-1 2c0 2.214-1.546 2.709-2.341.75-.383-.944-.79-.883-1.661.25-.936 1.216-1.07.97-.705-1.301.428-2.672.305-2.771-2.672-2.133-3.635.778-4.632 1.525-2.871 2.154.688.246 1.25 1.534 1.25 2.863 0 1.33.45 2.417 1 2.417s1-.675 1-1.5.45-1.5 1-1.5 1 .661 1 1.469c0 .946.622 1.268 1.75.905 1.444-.464 1.493-.381.279.477-.809.572-1.122 1.389-.696 1.816.427.426 1.177.126 1.667-.667s1.253-1.056 1.696-.584c.442.472.242 1.059-.446 1.304-2.517.899-1.154 2.28 2.25 2.28 4.728 0 4.49 1.979-.25 2.079-2.062.043-3.187.306-2.5.583 1.431.578 1.72 4.338.333 4.338-.504 0-1.117-.562-1.363-1.25-.245-.687-.788-.932-1.207-.543-1.33 1.237.346 3.793 2.488 3.793 1.205 0 2.44-.936 2.968-2.25.497-1.237.933-1.687.968-1 .121 2.403 2.063 1.227 2.063-1.25 0-2.937 1.172-3.179 3.623-.75 1.681 1.667 1.733 1.665 1.086-.042-.597-1.578-.261-1.715 2.806-1.139 2.809.527 3.485.341 3.485-.958 0-.886-.45-1.611-1-1.611s-1-1.125-1-2.5-.45-2.5-1-2.5-1 1.125-1 2.5c0 2.865-1.467 3.331-2.447.776-.4-1.041-.046-2.173.893-2.86.855-.625 1.554-1.874 1.554-2.776 0-3.485 3.966-.031 4.063 3.539l.064 2.321 1.144-2.5c1.117-2.442 1.152-2.411 1.5 1.306.203 2.172.992 4.049 1.836 4.373 2.038.782 3.169-.581 1.393-1.679-.793-.49-1.097-1.236-.676-1.658.422-.421 1.541-.283 2.488.309 1.274.795 2.041.732 2.955-.246 2.01-2.152 1.487-3.62-1.009-2.828-1.919.609-2.062.494-.988-.8 1.018-1.226.969-1.749-.258-2.767-1.039-.862-1.512-.904-1.512-.132 0 .617-.45 1.122-1 1.122-1.587 0-1.16-3.725.5-4.362.914-.35 1.5-.001 1.5.893 0 .808.45 1.469 1 1.469 1.435 0 1.236-2.723-.25-3.417-1-.466-1-.7 0-1.166 1.487-.694 1.671-2.417.258-2.417-1.307 0-6.008 4.11-6.008 5.252 0 .49-.675 1.566-1.5 2.391-1.333 1.333-1.5 1.27-1.5-.572 0-1.139-.45-2.071-1-2.071s-1-1.125-1-2.5c0-3.17-3.818-3.464-6.5-.5m22.5 4v6h12v-12h-12v6m1.5 9c-.342.554.39 1 1.641 1 1.757 0 1.992.267 1.059 1.2-.933.933-1.467.933-2.4 0-1.451-1.451-5.8-1.601-5.8-.2 0 .55.45 1 1 1s1 .675 1 1.5c0 .862-.902 1.5-2.122 1.5-1.774 0-1.918-.247-.878-1.5 1.02-1.229.951-1.5-.378-1.5-.892 0-1.622.675-1.622 1.5 0 .833-.889 1.5-2 1.5-1.1 0-2 .45-2 1 0 1.353-2.741 1.278-3.196-.088-.2-.601-1.692-.888-3.333-.641-2.79.42-2.834.493-.721 1.205 1.238.416 2.25 1.155 2.25 1.641 0 .485.563.89 1.25.898 2.636.033 4.398 1.89 2.779 2.931-.809.52-1.122 1.294-.696 1.721.427.426 1.177.126 1.667-.667s1.24-1.093 1.667-.667c.426.427.178 1.145-.553 1.596-.929.575-.995 1.026-.221 1.505 1.379.852 1.47 5.566.107 5.566-.55 0-1 .675-1 1.5s.418 1.5.929 1.5c1.202 0 4.071-2.869 4.071-4.071 0-.511.9-.929 2-.929 1.333 0 2 .667 2 2 0 1.467-.667 2-2.5 2-1.639 0-2.5.559-2.5 1.622 0 1.329.271 1.398 1.5.378 1.253-1.04 1.5-.896 1.5.878 0 2.322 1.489 2.86 2.417.872.417-.895.738-.928 1.128-.115.406.846 1.167.846 2.992 0 2.998-1.39 3.393-4.065.463-3.135-1.419.45-2 .18-2-.933 0-.862.45-1.567 1-1.567s1-.955 1-2.122c0-1.774-.247-1.918-1.5-.878-1.229 1.02-1.5.951-1.5-.378 0-.892.675-1.622 1.5-1.622 1 0 1.5-1 1.5-3 0-2.486.404-3 2.361-3 1.942 0 2.282-.419 1.911-2.357-.321-1.681.292-2.942 2.139-4.394 2.729-2.147 3.491-5.249 1.289-5.249-.715 0-1.84.54-2.5 1.2-.933.933-1.2.933-1.2 0 0-1.447-4.626-1.615-5.5-.2M11 661.5V689h210v-55H11v27.5m10.557-16.277c-.856 1.222-1.557 2.797-1.557 3.5 0 .702-.45 1.277-1 1.277s-1 .9-1 2 .45 2 1 2c.556 0 1 2.667 1 6 0 5.733.111 6 2.5 6s2.5-.267 2.5-6c0-5.333.222-6 2-6 1.619 0 2 .667 2 3.5 0 3.055.314 3.5 2.469 3.5 1.723 0 2.303-.429 1.923-1.422-1.016-2.646 1.513-5.724 4.425-5.388 3.586.414 4.484 6.043 1.241 7.779-2.969 1.589-2.808 5.382.192 4.518 6.023-1.736 8.513-8.976 4.738-13.775-3.496-4.445-9.051-4.506-13.41-.147-1.437 1.437-1.578 1.393-1.578-.494 0-1.404-.644-2.071-2-2.071-1.1 0-2-.492-2-1.094 0-.601.9-1.329 2-1.616 1.107-.29 2-1.364 2-2.407 0-2.805-5.414-2.558-7.443.34M49 646.671c0 .919-.782 2.535-1.737 3.591-1.649 1.822-1.649 1.983 0 3.189 1.198.875 1.737 2.648 1.737 5.709 0 5.145 1.289 6.84 5.2 6.84 2.133 0 2.8-.476 2.8-2 0-1.1-.627-2-1.393-2-1.612 0-2.607-2.13-2.607-5.582 0-1.751.551-2.418 2-2.418 1.292 0 2-.667 2-1.883 0-1.043-.893-2.117-2-2.407-1.197-.313-2-1.364-2-2.616 0-1.427-.637-2.094-2-2.094-1.202 0-2 .667-2 1.671m14.357 3.321c-7.598 3.066-6.48 14.724 1.582 16.495 3.306.726 8.459-1.475 9.44-4.032 3.156-8.224-3.336-15.565-11.022-12.463M431 660c0 .55-.9 1-2 1s-2 .45-2 1 .45 1 1 1 1 .675 1 1.5.45 1.5 1 1.5 1-.675 1-1.5.45-1.5 1-1.5c1.252 0 1.328 5.679.085 6.447-.503.311-1.116 0-1.363-.691-.246-.691-.834-.894-1.306-.452-.472.443-.196 1.25.613 1.794 1.139.766.925.923-.951.695-2.692-.326-4.16-2.793-1.661-2.793.871 0 1.583-.45 1.583-1s-1.125-1-2.5-1-2.5.45-2.5 1-.9 1-2 1c-2.463 0-2.648 1.701-.25 2.293.98.242.782.337-.45.218-2.417-.236-3.558 1.453-2.329 3.443.627 1.013.898.995 1.332-.091.449-1.125.723-1.106 1.565.105.862 1.241 1.337 1.101 3.076-.903 1.131-1.304 2.056-1.852 2.056-1.218 0 .634.9 1.153 2 1.153s2 .45 2 1 .675 1 1.5 1 1.5.645 1.5 1.434c0 .819 1.175 1.569 2.743 1.75 1.833.211 3.179 1.232 4.06 3.077 1.146 2.404 1.504 2.575 2.757 1.322 1.944-1.944 1.825-2.368-.81-2.886l-2.25-.443 2.214-.734c2.049-.68 2.092-.857.581-2.368-1.196-1.196-1.745-1.301-2.048-.393-.491 1.472-5.247 1.69-5.247.241 0-.55.597-1 1.326-1 .729 0 2.319-1.057 3.533-2.35 1.957-2.083 2.034-2.494.674-3.622-1.109-.921-1.533-.95-1.533-.105 0 1.673-4.987 6.433-5.811 5.546-.379-.408-.108-.95.603-1.203.992-.354 1.022-.786.127-1.863-.902-1.088-.855-1.41.209-1.435.754-.017 2.265-.707 3.357-1.532 1.973-1.491 1.972-1.504-.093-2.044-1.168-.305-2.667-2.043-3.422-3.968-1.228-3.129-3.97-4.804-3.97-2.424m-403.306 6c-.623 1.65-1.484 3-1.913 3-1.14 0-.956 3.774.219 4.5.55.34 1 3.291 1 6.559 0 5.274.224 5.941 2 5.941 1.781 0 2-.667 2-6.094 0-5.252.276-6.165 2-6.616 2.314-.605 2.743-4.29.5-4.29-2.198 0-1.831-1.68.5-2.29 3.598-.941 2.414-3.71-1.587-3.71-3.067 0-3.751.435-4.719 3m414.035-1.396c-1.295 1.295-.774 3.396.842 3.396 3.135 0 4.762 2.775 2.468 4.208-2.591 1.618-2.608 2.792-.039 2.792 1.137 0 2 .667 2 1.545 0 1.225.727 1.409 3.5.889 2.7-.507 3.5-.323 3.5.802 0 1.496 3.234 5.764 4.367 5.764.348 0 .633-.955.633-2.122 0-1.862.204-1.954 1.657-.75 1.513 1.253 1.61.959 1.123-3.378-.408-3.626-.208-4.75.843-4.75.77 0 1.377 1.013 1.377 2.3 0 2.275 1.651 4.7 3.2 4.7.44 0 .8-.675.8-1.5s-.45-1.5-1-1.5-1-.9-1-2 .398-2 .883-2c1.415 0 2.067-4.002 1.076-6.607-.924-2.432-4.287-3.289-5.459-1.393-.34.55-.141 1 .441 1s1.059.45 1.059 1c0 1.449-4.726 1.231-5.417-.25-.466-1-.7-1-1.166 0-.879 1.884-3.242 1.502-4.649-.75-1.512-2.421-2.768-2.588-2.768-.367 0 2.239 3.821 5.373 5.68 4.66 1.303-.501 1.333-.287.209 1.513-1.151 1.843-1.023 2.343 1.054 4.145 2.344 2.033 2.346 2.049.21 2.049-1.247 0-2.153-.631-2.153-1.5 0-.825-.482-1.5-1.071-1.5-2.229 0-4.388-3.096-2.841-4.075 1.025-.649.64-.899-1.405-.91-2.36-.013-2.715-.34-2.183-2.015.518-1.634.18-2-1.849-2-1.367 0-2.644-.478-2.838-1.062-.195-.585-.683-.735-1.084-.334m-168.966 1.961c-5.737 3.113-7.35 10.778-3.479 16.537 4.325 6.435 14.101 6.418 18.448-.032 6.87-10.194-4.169-22.365-14.969-16.505m-36.108 1.264c-1.823 2.014-2.292 9.659-.655 10.671.601.371 1-.926 1-3.25 0-6.337 1.77-7.795 9.086-7.485 8.15.346 8.914 1.091 8.914 8.702 0 7.323-1.418 9.174-7.5 9.791-3.709.376-3.629.418 1.095.574 7.075.233 8.405-1.429 8.405-10.506 0-9.322-1.087-10.326-11.174-10.326-6.011 0-7.847.366-9.171 1.829m236.345.188c0 1.096.671 1.983 1.5 1.983.825 0 1.5.73 1.5 1.622 0 1.308-.283 1.388-1.456.414-1.675-1.39-3.544-.587-3.544 1.523 0 .793-.54 1.441-1.2 1.441-.933 0-.933.267 0 1.2.66.66 1.2 2.198 1.2 3.417 0 1.219.563 2.417 1.25 2.663.688.245.888.832.446 1.304-.443.472-1.174.261-1.625-.47-1.418-2.294-2.089.446-.793 3.238 1.5 3.23 2.719 3.408 2.73.398.011-3.095 4.601-5.355 5.316-2.617.683 2.611 4.676 2.498 4.676-.133 0-1.111-.667-2-1.5-2-1.805 0-2.041-3.934-.25-4.152.688-.084 1.7-.257 2.25-.385s1.563-.284 2.25-.348c1.511-.139 1.757-9.115.25-9.115-.55 0-1 .454-1 1.008 0 .6-.864.499-2.131-.25-1.635-.965-2.231-.98-2.565-.062-.31.853-1.42.643-3.869-.733-3.407-1.913-3.435-1.913-3.435.054M39.048 670.76c-6.047 4.897-2.393 15.44 5.351 15.44 4.748 0 7.566-2.333 5.632-4.662-.959-1.156-1.638-1.279-2.609-.474-1.651 1.371-5.63.846-6.177-.814-.296-.9 1.152-1.25 5.172-1.25 6.189 0 6.76-.823 4.12-5.928-2.297-4.443-7.552-5.5-11.489-2.312M52 669.833c0 1.653 6.739 16.289 7.5 16.289.761 0 7.5-14.636 7.5-16.289 0-2.48-4.194-.494-5.722 2.711l-1.69 3.543-1.818-3.543c-1.638-3.193-5.77-5.134-5.77-2.711m18.048.927c-5.985 4.847-2.302 15.64 5.337 15.64 4.596 0 7.562-2.554 5.646-4.862-.959-1.156-1.638-1.279-2.609-.474-1.651 1.371-5.63.846-6.177-.814-.296-.9 1.152-1.25 5.172-1.25 6.189 0 6.76-.823 4.12-5.928-2.297-4.443-7.552-5.5-11.489-2.312m170.152-.56c-1.557 1.557-1.557 11.043 0 12.6 2.074 2.074 11.554 1.529 12.765-.734 1.571-2.937 1.256-9.703-.536-11.495-1.886-1.885-10.455-2.145-12.229-.371M415 683v6h12v-12h-12v6" fill="#d3d3d3" fill-rule="evenodd"/></svg>