<svg xmlns="http://www.w3.org/2000/svg" width="500" height="333"><path d="M122.5 29.678c-20.489 3.137-32.68 16.445-29.441 32.14 1.599 7.747 4.133 12.374 8.804 16.073l3.938 3.119 1.099-3.154c.605-1.735 1.1-5 1.101-7.255.001-5.85 4.964-15.661 10.951-21.649 4.716-4.715 15.587-10.949 19.098-10.951.853-.001 1.978-.397 2.5-.88.522-.484 2.642-1.42 4.709-2.081 2.068-.661 3.541-1.554 3.275-1.986-1.083-1.751-20.337-4.249-26.034-3.376m72 2.235c-9.43.692-8.904 1.568 1.5 2.502 20.793 1.865 30.312 5.8 41.784 17.272 8.735 8.735 8.204 8.493 25.941 11.859 7.576 1.437 14.072 2.915 14.436 3.284.363.368.042 3.82-.714 7.67-2.027 10.328-2.215 9.86 3.652 9.081 8.019-1.063 20.31-5.316 22.586-7.815 17.941-19.692-21.04-40.461-81.185-43.254-7.15-.332-14.575-.734-16.5-.894-1.925-.16-7.1-.027-11.5.295m-38 4.584c-13.377 2.983-26.741 9.613-33.992 16.865-5.237 5.237-5.533 5.846-10.888 22.456C107.13 89.745 99.207 99.917 84.995 110c-13.788 9.783-14.792 15.932-3.666 22.453 9.948 5.83 18.945 7.707 36.419 7.597 19.406-.122 32.153-3.067 48.473-11.199 6.776-3.376 7.164-3.438 5.82-.927-.888 1.658-.581 2.067 2.214 2.954 6.007 1.907 19.206 4.974 24.245 5.635 9.435 1.236 9.256 1.589-2.816 5.551-21.981 7.215-31.894 13.098-34.758 20.63-.681 1.792-1.644 2.306-4.319 2.306-7.057 0-9.365 3.392-3.107 4.566 3.116.585 3.941 1.395 3.65 3.589-.048.361 1.454 1.831 3.337 3.267l3.424 2.612 1.203-2.248c.662-1.236 2.257-3.077 3.545-4.09 1.287-1.012 2.341-2.699 2.341-3.748 0-2.538 5.383-5.2 20.334-10.057 22.972-7.462 31.666-14.77 31.666-26.617 0-10.081-7.716-16.476-24-19.891-10.369-2.174-36.205-1.385-47.496 1.451-4.397 1.104-8.12 1.883-8.272 1.731-.153-.152 1.083-3.309 2.745-7.014 3.817-8.508 3.952-7.935-2.227-9.517-6.336-1.623-18.266-6.852-17.463-7.654.316-.317 3.049.35 6.073 1.482 13.17 4.927 34.008 7.727 45.69 6.139 12.005-1.631 16.131-3.678 18.886-9.368 2.165-4.473 2.183-4.76.589-9.559-2.441-7.347-8.751-16.592-17.366-25.443l-7.659-7.869 11.923.592c13.446.667 13.941.89 12.567 5.68-2.325 8.107-.434 19.222 4.783 28.112 7.846 13.369 9.658 16.025 12.837 18.817 1.905 1.672 5.783 4.216 8.617 5.652 2.834 1.436 6.449 3.907 8.033 5.491 3.092 3.092 27.547 11.519 46.74 16.105 5.226 1.248 10.4 3.115 11.5 4.15 3.875 3.642 10.556 7.157 9.087 4.781-.697-1.13 5.146-.613 8.728.77 3.477 1.344 3.97 1.357 3.185.088-.34-.55-.029-1.02.691-1.044.72-.025-.378-.935-2.441-2.024-4.196-2.215-4.914-3.387-1.5-2.448 2.193.604 2.201.58.296-.941-2.235-1.786-7.897-3.529-11.488-3.537-1.343-.003-5.843-2.235-10-4.959-9.435-6.183-14.783-8.562-28.058-12.483l-10.5-3.101-1.245-7.481c-.684-4.115-1.664-11.532-2.177-16.482-2.059-19.871-8.88-30.828-23.915-38.418-14.757-7.449-47.03-11.294-63.663-7.585m174.799 44.604c-.605.605-6.208 1.881-12.45 2.834L307.5 85.669l9.5.842 9.5.842-5.5 1.211c-3.997.881-4.68 1.239-2.5 1.313 4.634.156 10.521-1.033 9.921-2.005-.842-1.362.404-1.032 3.321.878 3.449 2.259 17.952 2.237 27.258-.043 7.701-1.886 9.492-1.068 19.844 9.062 8.27 8.091 9.718 14 5.652 23.061l-2.754 6.137-7.871-4.095c-4.329-2.252-7.871-4.641-7.871-5.309 0-1.925 4.114-5.284 9.262-7.561 4.712-2.084 6.113-4.537 3.226-5.645-3.915-1.502-22.099 8.246-23.144 12.407-.927 3.695.487 5.36 7.504 8.84 7.831 3.883 9.469 5.359 6.102 5.496l-2.45.099 2.5.865c1.791.62.939.749-3 .456-3.576-.267-4.45-.157-2.5.312 2.609.629 2.023.897-4.5 2.063-15.439 2.758-48.67 13.325-59.866 19.037-6.98 3.561-5.892 1.608 1.575-2.829 6.913-4.107 16.303-7.728 26.095-10.063 2.917-.696 5.102-1.468 4.855-1.715-1.106-1.105-52.07 7.796-64.806 11.319-14.842 4.105-16.661 13.38-4.136 21.087l4.931 3.034 1.161-4.34c.638-2.387.907-5.001.597-5.808-1.073-2.797 7.226-6.103 20.48-8.159l4.387-.68-3.217 4.003c-3.956 4.922-4.871 10.378-2.774 16.533l1.524 4.472-7.55 1.123c-8.579 1.276-12.092 2.713-13.664 5.591-.6 1.1-1.542 2.364-2.092 2.808-1.592 1.287 9.043-.334 18.155-2.767l8.345-2.228v3.311c0 2.562-.623 3.671-2.75 4.898-2.74 1.58-2.732 1.584 2.057 1.043 10.335-1.167 21.693-5.887 21.693-9.015 0-2.246-3.814-3.876-10.829-4.629-8.525-.915-9.663-2.246-5.171-6.047 1.925-1.629 6.425-4.591 10-6.582 3.575-1.991 6.725-3.922 7-4.29.275-.369 5.094-1.219 10.709-1.889 8.91-1.063 19.955-3.509 25.56-5.662 1.564-.601 1.648-.363.724 2.067-1.6 4.208 1.973 10.792 7.667 14.129l4.468 2.618-15.904 5.252c-14.977 4.946-23.253 8.353-20.508 8.443 2.531.083 24.037-3.165 29.784-4.499 18.585-4.314 33.225-13.082 37.024-22.173 1.841-4.407 1.141-5.835-4.391-8.947-2.548-1.434-6.714-3.973-9.257-5.643l-4.624-3.037 5.801-4.36c16.97-12.757 24.242-26.922 19.048-37.103-2.499-4.898-12.622-13.583-22.439-19.25L371.824 80h-19.712c-13.011 0-20.086.374-20.813 1.101m-72.822 6.149c-.253.688-1.084 3.275-1.848 5.75s-1.698 5.241-2.076 6.147c-.76 1.819 16.638 3.673 28.705 3.061 5.061-.257 6.304.083 10.271 2.812 9.602 6.606 33.558 15.293 35.851 13 1.443-1.443 2.899-1.269 1.929.23-.445.688-.844 2.6-.886 4.25-.042 1.65-.416 4.35-.831 6-.564 2.246-.486 2.623.312 1.5.9-1.267 1.07-1.189 1.096.5.024 1.548.23 1.684.914.605.709-1.12.975-1.021 1.345.5.371 1.523.704 1.258 1.699-1.355.681-1.787 1.659-3.25 2.175-3.25.539 0 .482.85-.133 2-2.022 3.778.5 1.984 2.75-1.956 2.858-5.005 2.83-7.166-.157-11.897-6.081-9.632-16.189-14.491-46.093-22.156-24.501-6.28-34.237-7.876-35.023-5.741M412 91.487c-3.575.714-8.032 1.925-9.904 2.69l-3.404 1.391 2.514 1.647c2.286 1.498 2.912 1.51 6.904.127 2.414-.836 7.54-1.757 11.39-2.047 9.999-.753 19.708 2.235 13.582 4.179-9.876 3.135-8.591 11.526 1.766 11.526 4.367 0 4.397.024 3.796 3.028-.601 3.005-.568 2.991 4.169-1.75 2.626-2.628 5.563-6.752 6.527-9.164 1.725-4.316 1.718-4.423-.421-6.7-5.893-6.273-20.457-8.217-36.919-4.927M72.246 97.094c-13.981 4.429-17.255 14.83-7.305 23.203 4.078 3.432 4.211 3.408 6.307-1.146 1.238-2.69 4.156-5.522 10-9.705C90.455 102.856 97 97.221 97 95.884c0-1.75-18.224-.859-24.754 1.21m291.641 42.268c-11.778 7.982-19.094 11.677-29.887 15.094-8.359 2.645-30.655 6.469-38.5 6.603-2.97.05-3.485.265-2 .833 2.927 1.12 21.526-.448 32.916-2.774 12.08-2.468 28.16-10.071 40.334-19.07 4.538-3.355 8.25-6.313 8.25-6.574 0-1.275-2.492.045-11.113 5.888M104.5 142.989c3.101 3.495 12.312 9.356 19.688 12.527 7.457 3.205 7.715 3.924 1.752 4.878-5.088.813-12.763 4.634-17.285 8.604-1.881 1.651-3.893 3.002-4.472 3.002-.579 0-2.32.484-3.868 1.075-2.715 1.036-2.746 1.125-.874 2.5 1.068.784 3.295 1.425 4.95 1.425 2.162 0 2.704.305 1.925 1.084-.597.597-.859 1.947-.584 3 1.155 4.417 9.941.006 10.45-5.246.284-2.922.749-3.37 4.318-4.162 8.478-1.88 31.913-8.798 36.521-10.781 8.79-3.781 7.574-7.097-4.798-13.087l-8.723-4.224-16-.138c-8.8-.076-17.125-.468-18.5-.871-1.375-.404-3.4-.983-4.5-1.287l-2-.554 2 2.255M206 168.751c-16.031 4.353-18.393 10.599-5.632 14.894 6.234 2.098 22.874 2.179 29.588.143 4.388-1.33 4.295-1.35-6-1.319-10.946.032-16.288-1.285-17.445-4.302-2.05-5.341 18.382-10.071 31.423-7.275 6.565 1.408 7.712.702 2.47-1.521-5.98-2.536-26.018-2.897-34.404-.62M122 179.5c0 .849-.896 1.5-2.066 1.5-3.823 0-5.933 1.874-5.949 5.285-.009 1.91-.33 2.72-.791 1.994-.427-.671-2.58-1.857-4.785-2.635-3.81-1.344-4.106-1.301-5.959.857-1.072 1.25-2.097 2.886-2.277 3.635-.179.75-1.675 3.563-3.324 6.25-1.885 3.073-2.8 5.673-2.465 7.008.293 1.167.214 2.569-.176 3.114-.987 1.382-10.42 4.492-13.624 4.492-3.931 0-9.262 2.529-10.6 5.029-1.088 2.033-1.738 2.165-8.619 1.743-4.093-.251-7.677-.077-7.963.386-.286.463 1.307.842 3.539.842 2.54 0 4.087.468 4.135 1.25.537 8.846-.413 15.302-2.776 18.873-2.646 3.999-2.738 10.439-.193 13.506.694.836.661 4.205-.102 10.55-.618 5.126-1.549 14.946-2.07 21.821-.845 11.147-2.824 29.868-4.572 43.25l-.621 4.75h7.916l1.219-12.75c.671-7.012 1.371-14.821 1.556-17.352.964-13.183 1.749-17.01 3.421-16.67 1.967.4 1.823 6.108-.371 14.698-.762 2.985-1.029 6.063-.594 6.84.435.778.155 4.861-.622 9.074-1.471 7.97-1.743 13.581-.737 15.209.324.523 4.623.951 9.554.951 8.831 0 8.983-.041 10.134-2.75l1.168-2.75.373 2.75.374 2.75h18.648l.514-3.25 1.628-10.25c.613-3.85 1.568-8.392 2.122-10.094 1.418-4.356 2.013-29.595.734-31.156-.72-.879-.655-1.25.219-1.25.683 0 3.231-1.238 5.661-2.75 5.07-3.156 5.015-2.348 1.342-19.642-2.028-9.551-2.04-10.058-.361-14.727 2.174-6.047 2.734-5.537 2.608 2.376-.093 5.828-.042 5.977.769 2.243.477-2.2.894-5.935.925-8.3l.058-4.3 5.75.3 5.75.3.309 5.447c.511 9.01-.065 10.05-5.578 10.068-2.602.009-5.406.452-6.231.985-1.056.683.367.974 4.81.985l6.31.015-.126 8.75c-.245 16.995.024 23.77.889 22.405 1.454-2.294 2.353 3.535 2.204 14.287-.342 24.621 2.389-1.227 3.428-32.442.512-15.372 2.086-35.551 3.043-39 .337-1.215-.952-1.555-6.777-1.789-8.553-.344-7.787.218-7.917-5.809-.058-2.696-.94-7.602-1.959-10.902-2.444-7.914-2.636-12.45-.658-15.5 1.618-2.493 2.203-5.485 1.909-9.75-.171-2.473-2.156-3.163-2.156-.75m-53.666 73.831c-2.43 2.795-3.774 10.829-2.093 12.51.855.855.86 1.159.02 1.159-.626 0-1.374 1.913-1.662 4.25-.288 2.337-.793 6.387-1.123 9-.534 4.239-.39 4.75 1.34 4.75 2.606 0 4.491-2.456 3.729-4.857-.341-1.074.106-7.887.992-15.14.886-7.253 1.431-13.368 1.211-13.588-.22-.22-1.306.642-2.414 1.916m237.704 23.411c.028 5.027 3.463 54.427 3.894 56.008.037.137 1.033.25 2.213.25 2.024 0 2.112-.35 1.578-6.25-.311-3.437-1.363-17.108-2.337-30.379-1.543-21.028-2.003-24.275-3.578-25.259-1.678-1.048-1.805-.643-1.77 5.63" fill="#d3d3d3" fill-rule="evenodd"/></svg>