<svg xmlns="http://www.w3.org/2000/svg" width="500" height="392"><path d="M45.337 15.742c-4.234.371-5.781 1.937-4.699 4.758.317.825.978 1.5 1.469 1.5 2.353 0 .415 3.862-3.857 7.686l-4.75 4.251-.318-3.029c-.232-2.209-.773-2.942-2-2.708-2.592.494-2.799 4.826-.261 5.49 2.527.66 2.538.819.293 4.156-3.835 5.699-4.521 8.308-5.844 22.216-.404 4.254-.169 5.86 1.003 6.832 2.27 1.885 5.437.444 5.915-2.692.228-1.494.479-.444.562 2.348.178 5.981-1.057 7.702-4.568 6.367-2.06-.783-2.55-.607-2.99 1.073-.289 1.106-.923 2.01-1.409 2.01-2.265 0 .831 10.984 3.11 11.032 3.378.071 8.257 7.511 8.257 12.591 0 1.261.884 3.094 1.965 4.072 1.886 1.707 2.021 1.703 3.343-.106.758-1.036 1.141-2.267.851-2.736-.29-.469.448-.853 1.639-.853 1.406 0 1.984-.473 1.649-1.348-.327-.85.743-1.844 2.893-2.687 1.875-.736 3.41-1.887 3.41-2.558 0-.72.805-1.009 1.965-.706 2.726.713 5.795 6.303 6.342 11.553.687 6.595 3.363 10.777 6.577 10.279.889-.137 1.947.249 2.351.859.404.609.741-.612.75-2.715l.015-3.822 2.75 2.171 2.75 2.171.311-4.752c.204-3.12-.139-5.039-1-5.588-.85-.543-.313-.761 1.531-.621 2.725.207 2.817.38 2.251 4.24-.546 3.723-.478 3.879.908 2.083 1.428-1.849 1.499-1.796 1.499 1.127 0 3.635 1.145 4.73 6.5 6.217 3.585.996 4.177.896 5.708-.955.939-1.136 2.627-2.135 3.75-2.22 1.123-.084 2.042-.421 2.042-.748s1.912-1.385 4.25-2.351c7.085-2.926 12.323-5.6 11-5.615-1.768-.02-1.55-1.63.504-3.725.965-.984 1.742-2.689 1.727-3.789-.033-2.301-1.614-2.261-8.277.212-3.007 1.117-4.613 1.279-5.349.543-.737-.737-.048-1.252 2.296-1.718 4.412-.876 9.605-3.497 12.458-6.287 1.265-1.238 2.661-2.25 3.101-2.25 1.366 0 1.529-10.734.175-11.571-.67-.414-4.486-.872-8.479-1.017-3.992-.145-8.136-.732-9.207-1.305-1.532-.82-2.323-.628-3.707.902-.968 1.069-2.077 1.748-2.465 1.508-.388-.24-.766 1.15-.839 3.09-.087 2.335-.902 4.169-2.41 5.427-2.919 2.434-4.597 2.529-2.433.137.91-1.006 1.655-2.382 1.655-3.059 0-.676.367-1.003.816-.726.449.278.922-1.536 1.051-4.031.153-2.966-.129-4.311-.816-3.886-.578.357-1.051-.053-1.051-.91s-.787-1.569-1.75-1.582c-.964-.012-2.462-1.471-3.335-3.25-2.039-4.15-4.925-4.549-8.554-1.184-5.661 5.249-6.363 5.165-6.346-.758.011-3.781.291-4.858.985-3.785.688 1.065.974 1.125.985.208.008-.71.818-2.153 1.799-3.207C77.78 55.859 78.63 50 76.944 50c-.598 0-.399-.688.442-1.529s1.275-2.191.965-3c-.673-1.753-1.965-1.904-2.93-.343-.478.773-.983.619-1.602-.487-1.882-3.363-4.341-3.707-7.873-1.101-3.589 2.648-4.697 2.904-6.796 1.574-1.119-.71-1.084-1.346.21-3.735 1.134-2.094 1.571-2.386 1.6-1.07.023 1.042.501 1.524 1.127 1.137.782-.483.779-.98-.009-1.768-.795-.795.3-2.51 3.985-6.242 4.929-4.991 7.519-10.755 6.282-13.98-.814-2.119-3.51-2.616-5.318-.98C66.1 19.314 64.871 20 64.294 20s-1.609.675-2.294 1.5c-1.694 2.041-2.743 1.884-3.508-.527-1.232-3.881-6.166-5.843-13.155-5.231M424 31.441c0 1.957-.45 3.559-1 3.559s-1 .9-1 2c0 2.285-.377 2.404-3.066.965-1.333-.714-1.934-.714-1.934 0 0 .569.48 1.035 1.066 1.035 2.606 0 .4 5.473-2.566 6.368-6.306 1.902-6.138 1.79-4 2.669 1.641.675 1.406.835-1.309.893-2.079.044-3.064.467-2.649 1.138.363.588 1.29.827 2.059.532 1.868-.717 1.793 1.828-.101 3.4-1.663 1.38-2.029 4-.559 4 .518 0 1.219-.45 1.559-1 .34-.55 1.293-1 2.118-1s1.225.445.889.989c-.365.591.114.723 1.191.33 1.672-.611 1.665-.502-.103 1.511-1.048 1.194-2.735 2.17-3.75 2.17-1.015 0-1.845.684-1.845 1.52 0 1.277.636 1.196 3.96-.5 4.218-2.151 7.562-2.673 6.54-1.02-.34.55.2 1 1.2 1 2.163 0 4.759 3.598 3.263 4.523-1.753 1.083.032 2.58 1.854 1.553 1.358-.765 1.926-.333 2.941 2.238 1.211 3.068 1.239 2.999.739-1.886-.633-6.193.109-7.131 3.316-4.187l2.461 2.259-.498-2.75c-.579-3.196-.408-3.237 5.224-1.25 5.715 2.017 6.005 1.904 2.5-.969-4.08-3.344-1.147-3.251 3.714.118 5.593 3.876 5.625 2.294.034-1.731-4.681-3.369-4.709-3.423-1.981-3.736 1.522-.175 2.508-.737 2.191-1.25-.317-.513.152-.932 1.042-.932s1.359.419 1.043.931c-.317.512-.068 1.245.552 1.628.621.383 1.515.077 1.986-.681.698-1.121 1.234-1.145 2.875-.128 1.109.688 2.733 1.25 3.609 1.25.876 0 3.438 1.809 5.693 4.02 2.673 2.62 4.442 3.68 5.079 3.043 1.148-1.148-.888-4.063-2.837-4.063-.69 0-1.873-.75-2.628-1.666-1.229-1.492-1.111-1.603 1.128-1.068 5.39 1.288 10.575 1.804 8.382.833-1.165-.515-4.202-1.249-6.75-1.631-2.548-.383-4.632-1.042-4.632-1.465 0-.423-.9-1.005-2-1.293-3.229-.844-2.292-2.391 1.25-2.063l3.25.301-3.5-1.177c-4.627-1.556-6.238-3.133-4.736-4.635.848-.848.705-1.136-.564-1.136-.935 0-1.7.675-1.7 1.5 0 2.004-.924 1.891-2.883-.351-1.375-1.575-5.095-3.202-10.979-4.802-1.017-.276-1.21-1.569-.762-5.109.442-3.491.348-4.146-.356-2.488-1.08 2.543-3.02 3.025-3.02.75 0-1.801-1.97-2.039-2.07-.25-.039.688-.457.35-.93-.75-.793-1.845-.871-1.806-1.009.5-.082 1.375-.382 1.919-.667 1.208-.387-.963-.86-1.008-1.862-.176-1.07.887-1.481.384-2.016-2.47-.906-4.829-2.446-5.535-2.446-1.121M302.36 30.5c-.998.55-2.342 1.663-2.986 2.473-.998 1.253-1.547 1.272-3.678.132-3.031-1.622-4.696-.79-4.696 2.347 0 2.366-2.373 4.053-4.153 2.953-.535-.33-1.732.05-2.66.845-3.697 3.169-3.987 2.928-3.63-3.006l.346-5.744-1.052 4.464c-1.655 7.017-3.591 7.703-8.105 2.875-3.31-3.541-3.724-3.741-3.5-1.698.301 2.746-3.734 3.596-5.141 1.082-.814-1.455-3.462-1.392-7.128.168-1.038.442-2.129-.378-3.43-2.581-1.049-1.776-2.062-2.764-2.252-2.196-.189.568-1.643.842-3.231.609-2.264-.333-3.252.135-4.585 2.169-2.098 3.201-1.28 7.865 1.304 7.44.945-.155 2.28.071 2.967.502.762.478 1.256.273 1.265-.525.011-.951.281-.899.985.191 1.795 2.777 1.19 8.828-1 10-2.101 1.124-2.705 4.446-1 5.5.55.34 1 1.616 1 2.837 0 2.633 3.216 5.663 6.011 5.663 1.334 0 1.989.671 1.989 2.035 0 2.497 2.911 7.138 4.04 6.44.452-.279 1.105-.049 1.452.511.423.685 1.244.691 2.503.017 2.613-1.399 3.005-1.277 3.005.938 0 1.068.45 2.219 1 2.559.574.355 1-.556 1-2.141 0-2.102.278-2.481 1.166-1.593.889.889.515 3.617-1.567 11.45-1.504 5.656-2.891 11.007-3.082 11.891-.373 1.727-3.796 13.851-5.757 20.393-.66 2.2-1.776 4.595-2.48 5.321-.704.727-1.289 2.752-1.301 4.5-.012 1.749-1.178 6.329-2.593 10.179-1.414 3.85-2.807 8.012-3.095 9.25-.749 3.215-1.579 2.805-3.555-1.757-2.136-4.929-2.136-5.086-.023-9.518 1.489-3.122 1.522-3.715.25-4.519-2.288-1.447-2.82-1.137-2.222 1.294 1.558 6.325-1.45-.483-3.327-7.532-3.492-13.111-5.379-20.033-5.971-21.898-.415-1.307.263-1.97 2.753-2.687l3.304-.953-3.5-.091c-3.399-.089-3.552-.267-5.278-6.141-1.875-6.381-1.669-7.898 1.087-8.027.982-.046 1.182-.285.477-.571-.952-.386-.952-.916 0-2.452 1.401-2.261-.514-4.227-3.438-3.53-3.335.795-7.603-19.976-5.392-26.243 1.325-3.757 1.333-4.632.065-7.084-2.276-4.403-5.409-5.153-8.521-2.041-3.049 3.049-2.596 7.641 1.095 11.089 4.01 3.746 4.799 6.259 15.348 48.911 7.556 30.547 7.579 33.375.344 41.595-4.564 5.184-7.461 14.405-4.528 14.405 1.551 0 4.013-3.751 3.261-4.968-.301-.487 1.483-2.947 3.966-5.465s4.514-5.476 4.514-6.573c0-1.097.45-1.994 1-1.994s1 .803 1 1.785c0 .981.918 4.396 2.04 7.587 2.511 7.147 1.998 9.016-2.802 10.213-3.992.994-4.283 1.818-2.846 8.07.614 2.671.295 3.554-2.073 5.75-2.251 2.087-2.453 2.595-1.036 2.595 1.631 0 1.645.18.19 2.4-.864 1.32-1.198 2.558-.741 2.75 1.352.569-.719 10.85-2.186 10.85-3.249 0-3.707-5.546-.616-7.457.588-.363 1.07-1.075 1.07-1.581 0-1.196-5.259 1.113-6.3 2.767-.44.699-1.158 1.271-1.597 1.271-1.638 0-5.104-3.803-5.118-5.617-.013-1.582-.171-1.643-.985-.383-.646 1-.974 1.083-.985.25-.008-.688-.406-1.138-.885-1-.478.137-3.74-1.8-7.25-4.305-3.509-2.505-7.826-5.404-9.593-6.444-2.061-1.211-3.46-2.985-3.9-4.945-.378-1.681-.882-2.493-1.12-1.806-.239.687-1.087 1.25-1.886 1.25-1.125 0-1.219-.435-.416-1.934 1.564-2.923 1.269-3.266-1.34-1.556-2.185 1.432-2.426 1.413-3.016-.227-.352-.981-1.287-2.895-2.077-4.254-1.091-1.876-1.149-2.648-.243-3.208.919-.568.908-1.024-.047-1.979-1.839-1.839-1.526-4.837.508-4.872 1.651-.029 1.65-.089-.026-1.064-6.407-3.73-10.84 3.739-4.779 8.055 2.834 2.018 4.158 5.039 2.208 5.039-1.811 0-16.443-13.412-21.108-19.348-4.708-5.991-16.633-16.397-17.639-15.391-.265.265 2.032 3.577 5.103 7.36 7.439 9.161 7.685 9.432 11.6 12.768C178.504 158.505 180.563 161 175.99 161c-1.105 0-2.793.943-3.75 2.095-.957 1.152-3.195 3.101-4.974 4.331-3.344 2.313-6.839 7.89-12.688 20.248-4.594 9.707-4.95 10.993-3.049 10.993.879 0 1.336-.575 1.05-1.32-.481-1.255 3.978-10.295 7.619-15.446 1.434-2.028 1.705-2.12 1.75-.592.028.995.502 1.531 1.052 1.191.55-.34 1 .098 1 .972 0 .875.6 1.821 1.333 2.102 1.696.651 1.751 3.426.068 3.426-1.193 0-5.401 5.042-5.401 6.472 0 .364.9.377 2 .028 1.419-.45 2-.18 2 .933 0 .862-.675 1.567-1.5 1.567-1.719 0-2.031 2.554-.433 3.542.588.363 1.314-.285 1.617-1.441.614-2.35 3.316-2.898 3.316-.674 0 .786 1.013 2.248 2.25 3.25 2.543 2.06 3.241 5.323 1.139 5.323-.764 0-1.389-.469-1.389-1.042 0-.573-.859-1.964-1.909-3.091l-1.909-2.049-2.091 2.091c-1.15 1.15-2.493 2.091-2.984 2.091-1.764 0-2.122 3.328-.607 5.641 1.43 2.181 1.409 2.359-.277 2.359-1.003 0-2.363-.54-3.023-1.2-.736-.736-1.2-.796-1.2-.155 0 .575.941 1.896 2.09 2.937 1.975 1.787 2.161 1.796 3.361.155 1.547-2.116 3.549-2.272 3.549-.276 0 .804.828 2.266 1.84 3.25 2.602 2.531 3.452 5.289 1.629 5.289-.808 0-1.469-.597-1.469-1.326 0-.729-1.142-2.399-2.539-3.71-2.473-2.324-2.552-2.333-3.065-.369-.29 1.109-1.903 2.535-3.584 3.17-2.025.764-2.869 1.643-2.501 2.603.364.948-.285 1.66-1.878 2.059-1.338.336-2.433 1.326-2.433 2.199 0 1.015-.542 1.369-1.5.981l-3-1.214c-.825-.334-1.5-.139-1.5.433 0 .571.888 1.321 1.974 1.666 1.824.579 4.113 3.706 5.584 7.628.628 1.675 6.057 2.335 16.942 2.06 5.286-.134 16.978 2.022 24.5 4.518 2.475.821 5.4 1.608 6.5 1.75 10.092 1.297 13.069 2.275 16.116 5.295 1.542 1.529 1.692 1.544 1.15.114-.536-1.417.022-1.577 4.056-1.161 7.64.789 10.267 5.379 6.105 10.669-2.706 3.441-4.019 3.346-3.303-.237.499-2.492.165-3.054-2.525-4.244-1.704-.755-3.135-2.05-3.178-2.878-.054-1.026-.24-1.108-.583-.256-.302.747-2.583 1.303-5.671 1.382-4.545.115-4.754.206-1.732.75 3.274.589 3.353.7 1.679 2.368-.966.962-1.322 1.75-.79 1.75 1.321 0 1.983 7.887.702 8.368-.564.212.208.714 1.717 1.115 1.509.402 2.521 1.09 2.249 1.53-.272.44.416.562 1.528.271 1.817-.475 1.922-.261 1.027 2.094-.691 1.816-.669 2.622.071 2.622.588 0 1.305-.9 1.592-2 .637-2.433 2.034-2.542 4.461-.345 1.704 1.542 1.963 1.534 3.792-.121 1.212-1.097 2.644-1.515 3.743-1.093 1.605.616 1.535.871-.713 2.585-3.289 2.509-15.401 7.007-15.823 5.877-.182-.487-1.017-.199-1.855.639-1.643 1.643-15.315 1.954-15.315.349 0-.456-.787-.53-1.75-.166-1.639.621-1.643.555-.071-1.031.923-.932 2.805-1.694 4.181-1.694 5.199 0 8.721-8.277 6.046-14.208-1.792-3.975-1.791-3.993.525-5.74l2.323-1.752-2.377-.65c-1.969-.538-2.119-.819-.877-1.635 1.109-.728.392-.988-2.75-1-2.338-.008-4.25.373-4.25.846 0 .474 1.238.697 2.75.496 1.512-.202 2.213-.11 1.556.203-.656.313-.954 1.193-.661 1.956.416 1.086-.301 1.271-3.307.853-3.023-.421-3.519-.291-2.338.614 1.219.933 1.065 1.025-.82.493-1.816-.513-2.439-.201-2.867 1.434-.74 2.832-2.157 2.631-3.338-.475-.648-1.704-.628-3.216.06-4.5.93-1.738.701-1.923-2.25-1.819-1.807.064-2.498.322-1.535.573 1.919.502 2.267 2.964.75 5.311-.838 1.297-.971 1.275-.985-.166-.008-.917-1.365-2.264-3.015-2.994-1.65-.731-3-1.668-3-2.084 0-1.316-8.032-.835-8.549.511-.273.713-2.292 1.315-4.609 1.376-2.68.07-4.441.677-5.032 1.733-.5.893-1.525 1.624-2.276 1.624-.752 0-1.574.563-1.826 1.25-.366 1-.723 1-1.783 0-2.279-2.15-3.231-1.366-1.517 1.25 1.561 2.383 1.543 2.5-.385 2.5-1.23 0-2.054-.686-2.102-1.75-.047-1.045-.282-1.247-.583-.5-.697 1.726-3.001 1.57-3.7-.25-.527-1.374-3.638-2.201-3.638-.968 0 1.941 3.461 8.166 5.687 10.229l2.669 2.473-3.928 2.378c-2.16 1.308-4.465 2.38-5.121 2.383-1.545.007-4.307-3.943-4.307-6.158 0-2.576-2.056-3.341-2.669-.994-.294 1.125-1.502 2.234-2.683 2.465-2.102.411-2.1.423.102.556 1.582.096 2.289.804 2.382 2.386.087 1.5.377 1.083.868-1.25.405-1.925.796-2.577.868-1.45.073 1.128.672 2.59 1.332 3.25.933.933.909 1.2-.108 1.2-.888 0-1.112.784-.697 2.439.337 1.341.161 2.718-.391 3.059-.552.341-1.004-.325-1.004-1.481 0-1.155-.9-3.067-2-4.247l-2-2.147v2.58c0 1.953-.64 2.741-2.632 3.241-2.55.64-2.611.829-1.983 6.176.619 5.269-1.114 11.093-3.635 12.213-.412.184-.75 1.157-.75 2.163 0 1.455.591 1.736 2.887 1.374 2.524-.397 3.039-.04 4.09 2.838 3.139 8.6 3.197 8.207-2.058 13.95-2.688 2.938-4.902 4.892-4.919 4.342-.017-.55-.467-.325-1 .5-1.274 1.971-1.274 6 0 6 .55 0 1-.477 1-1.059s.45-.781 1-.441c1.229.759 1.334 4.5.127 4.5-.48 0-.915 2.092-.967 4.65-.062 3.082-.739 5.358-2.008 6.75-1.053 1.155-2.115 3.563-2.36 5.35-.436 3.178-.361 3.25 3.381 3.25 2.539 0 3.827-.453 3.827-1.345 0-2.081 3.52-4.776 5.33-4.082.899.345 3.232-.375 5.246-1.62 3.996-2.469 4.927-1.98 6.053 3.183.652 2.987 3.573 4.611 7.621 4.238 1.752-.162 2.75.23 2.75 1.079 0 1.478 2.706 2.847 4.021 2.034.463-.286 1.128-.055 1.479.513.351.568 1.057.774 1.569.457.512-.316.931-.098.931.484 0 1.745 1.954 1.204 4.298-1.191 2.825-2.886 5.314-3.281 7.418-1.176 1.562 1.562 1.72 1.548 2.408-.201.404-1.03.767-1.284.806-.564.038.72.408 1.105.82.855 1.142-.691 3.25 1.877 3.25 3.958 0 .343.675.063 1.5-.622 1.205-1 1.5-.985 1.5.078 0 1.028.267 1.055 1.2.122 1.455-1.455 3.164-1.599 2.296-.193-.343.554.107 1.287.998 1.629.892.342 1.384 1.239 1.095 1.993-1.321 3.441 3.149 6.187 5.081 3.121.523-.83 1.007-.243 1.44 1.75.648 2.977.654 2.979.772.309.065-1.48.508-2.932.984-3.226.476-.294.649-1.671.383-3.059-.283-1.48-.02-2.524.634-2.524.615 0 1.127.563 1.139 1.25.012.688.987-.775 2.167-3.25 3.29-6.899 4.667-11 3.693-11-.485 0-.882-.45-.882-1s.744-1 1.653-1c1.442 0 1.41-.223-.25-1.75-1.047-.962-2.048-2.411-2.226-3.22-.797-3.623-1.792-4.117-3.157-1.568-.747 1.396-1.902 2.538-2.567 2.538-.665 0-1.844.957-2.62 2.126-1.179 1.775-1.972 2.002-4.816 1.378-3.076-.676-3.234-.872-1.641-2.037 1.658-1.212 1.639-1.327-.307-1.945-1.138-.361-2.069-.978-2.069-1.371s-1.238-.817-2.75-.941c-2.915-.241-6.191-3.595-6.228-6.378-.035-2.657-1.134-4.832-2.441-4.832-.663 0-2.208-1.356-3.433-3.014-1.852-2.505-2.555-2.838-4.168-1.975-1.767.945-1.886.768-1.335-1.987.615-3.074.127-3.474-3.775-3.097-1.102.107-1.775-.828-2.077-2.884-.246-1.674-.187-3.047.13-3.051.317-.004 1.114-1.166 1.771-2.581 1.393-3.001.315-6.81-2.199-7.775-2.358-.904-2.505-.826-1.819.963.538 1.4.347 1.432-1.531.259-2.581-1.612-2.843-3.046-.395-2.166 1.395.501 1.293.126-.5-1.846-2.773-3.05-2.787-3.38-.15-3.579 1.156-.087 3.068.765 4.25 1.892 4.161 3.968 6.661 5.23 7.901 3.99 1.616-1.616 2.749-1.428 2.749.458 0 1.018.55 1.396 1.5 1.031 1.915-.735 1.915.089 0 2.005-.825.825-1.5 2.157-1.5 2.96 0 1.755 3.229 3.209 3.738 1.683.197-.59 1.307-.826 2.466-.522 1.477.386 1.886.191 1.366-.65-.408-.661-.029-2.291.844-3.623 1.966-3 1.978-3.491.086-3.491-.825 0-1.561-.562-1.636-1.25-.758-6.953-.692-9.576.288-11.466 1.531-2.952-.028-4.777-4.344-5.088-4.746-.341-9.805-2.156-9.823-3.524-.01-.705-.379-.597-.929.271-.739 1.168-1.402 1.22-3.484.272-2.867-1.307-3.627-3.834-.83-2.761.957.368 3.995.904 6.75 1.192 9.285.969 18.971 3.4 25.278 6.342 3.449 1.609 6.439 2.833 6.645 2.719.206-.114 1.322.65 2.48 1.698 1.858 1.681 2.105 1.711 2.105.25 0-.91-.364-1.655-.809-1.655-.445 0-1.575-.562-2.511-1.25-1.422-1.045-.537-1.263 5.381-1.328 7.495-.083 7.475-.101 5.445 4.828-1.118 2.717 1.761 2.166 4.57-.874l2.424-2.624-2.25.691c-3.517 1.081-2.521-2.435 1.065-3.76 1.505-.556 1.709-.286 1.194 1.573-.563 2.033-.377 1.975 1.986-.621 1.434-1.576 2.863-2.61 3.175-2.298.313.312 1.222-.086 2.02-.885.799-.798 2.818-1.452 4.487-1.452 1.778 0 4.265-1.035 6.005-2.5 1.634-1.375 3.612-2.5 4.395-2.5.783 0 1.423-.5 1.423-1.111 0-.742 1.246-.879 3.75-.411 4.788.894 4.704.747 2.657 4.679-2.737 5.257-4.334 14.484-4.372 25.26-.019 5.454.176 9.706.433 9.448.258-.258.535-4.637.617-9.731.264-16.567 5.717-31.04 10.834-28.757 2.273 1.014 2.318 1.283 1.667 9.914-.369 4.879-1.172 9.675-1.786 10.657-.614.983-.784 2.634-.379 3.67 1.25 3.192 3.464-5.05 3.646-13.574.209-9.738.857-13.044 2.558-13.044.756 0 1.375.439 1.375.975 0 1.115 5.992.224 7.45-1.107.554-.507-.487-.874-2.5-.882-7.255-.028-8.111-.71-7.366-5.864 1.168-8.081 4.409-8.969 11.146-3.054 1.837 1.613 4.336 2.938 5.555 2.946 1.218.007 3.34.276 4.715.597 2.369.553 2.343.475-.5-1.5-1.722-1.196-3.781-1.836-4.835-1.503-1.138.36-2.741-.27-4.219-1.659-2.634-2.474-2.448-4.024.393-3.281 1.01.264 3.376-.384 5.257-1.441 3.227-1.812 24.904-4.274 24.904-2.829 0 .293-1.397 2.123-3.104 4.067S295.243 261 295.793 261c1.122 0 6.75-6.129 7.389-8.046.651-1.953 11.669 5.162 15.423 9.958 1.531 1.956 4.808.607 3.952-1.625-2.893-7.537-1.657-12.239 3.224-12.272 2.438-.016 2.635.316 3.852 6.485l.789 4 .539-5.494.539-5.494 6.5-2.623c3.575-1.442 6.837-2.431 7.25-2.197 1.405.798.755 5.563-1.186 8.705-2.18 3.527-7.101 19.687-6.994 22.965.076 2.32 3.413-6.791 4.385-11.975.329-1.752 1.688-4.792 3.021-6.756 1.682-2.48 2.514-5.263 2.723-9.112.443-8.155 2.224-6.744 2.801 2.219l.5 7.762.821-9.192c.709-7.949 1.047-9.119 2.5-8.655 1.384.442 1.425.356.232-.489-1.209-.857-1.046-1.35 1-3.008 1.346-1.091 2.6-1.833 2.786-1.648.186.185.49 5.406.675 11.603.21 7.026-.006 10.725-.573 9.828-1.392-2.2-1.116.495.337 3.297 1.061 2.043 1.494 2.233 2.54 1.114.693-.743.818-1.35.277-1.35-1.313 0-.926-28.577.405-29.879.55-.538 2.575-1.123 4.5-1.3 3.447-.316 3.849-.979 2.869-4.739-.203-.78.641-1.945 1.875-2.59 1.234-.644 2.008-1.407 1.719-1.695-.288-.289 2.145-2.996 5.408-6.017 4.749-4.397 6.601-5.49 9.281-5.48 7.199.028 8.848-.308 8.848-1.8 0-.825-.45-1.5-1-1.5s-.994-.787-.987-1.75c.009-1.138 3.866-4.154 11.037-8.63 6.063-3.783 10.81-7.093 10.549-7.354-.261-.261-5.526 2.609-11.701 6.379-6.694 4.088-11.382 6.388-11.614 5.697-.853-2.539-4.284-5.739-4.284-3.995 0 1.09-.839 1.653-2.465 1.653-3.048 0-4.943 3.212-4.171 7.071.517 2.584.063 3.133-5.28 6.378-3.215 1.953-6.349 3.551-6.965 3.551-1.941 0-1.254-5.884.905-7.75 1.114-.962 3.067-2.75 4.34-3.973 1.273-1.222 3.4-2.656 4.726-3.186 2.401-.96 2.401-.964.151-1.028-1.243-.034-3.658 1.273-5.367 2.907-1.709 1.633-3.885 3.216-4.835 3.518-1.108.351-2.161 2.429-2.931 5.78-1.021 4.443-1.707 5.469-4.552 6.805l-3.35 1.573-.617-6.573c-.339-3.615-.881-9.226-1.204-12.468l-.587-5.895 3.226.645c1.774.355 3.646.645 4.16.645.514 0 .676.418.36.928-.837 1.356 3.133 2.352 5.065 1.271 2.011-1.125-6.074-4.2-11.037-4.198l-3.072.002.343-5.502c.302-4.86.594-5.502 2.5-5.508 2.037-.006 2.012-.103-.455-1.75-1.969-1.315-2.433-2.234-1.888-3.743.398-1.1.521-2.54.273-3.201-.247-.661.738-2.758 2.189-4.66 1.477-1.937 2.211-3.723 1.668-4.059-.533-.329-1.906.591-3.05 2.045L354 168.27l-.015-5.885c-.012-4.304-.288-5.482-1.031-4.385-.76 1.124-.862.838-.403-1.141.372-1.609.134-2.936-.611-3.396-1.244-.769-1.079 2.672.637 13.287.572 3.544.415 4.25-.945 4.25-1.199 0-1.663-.996-1.748-3.75-.067-2.16-.324-2.902-.608-1.75-.27 1.1-.948 2.563-1.506 3.25-.676.832-.679 1.25-.009 1.25 1.491 0 2.144 4.834.803 5.947-.811.673-2.128-.524-4.4-3.993-3.663-5.595-7.507-6.568-12.077-3.054l-2.414 1.855 2.414 1.272c1.327.7 2.638 1.552 2.913 1.893.275.341 1.782 1.185 3.35 1.874 1.567.69 3.071 2.102 3.342 3.138.776 2.966 3.873 3.153 6.285.379 3.517-4.045 5.02-1.641 5.038 8.061.01 4.937.354 7.594.877 6.769.558-.881 1.063.882 1.433 5 1.896 21.081 1.9 21.105 3.819 21.607 1.021.267 1.856 1.163 1.856 1.991 0 1.266-.255 1.295-1.597.18-1.398-1.16-1.554-1.019-1.25 1.128.308 2.18.013 2.424-2.653 2.196-2.979-.255-2.984-.248-.661 1.083l2.338 1.339-4.977 4.168c-6.155 5.153-5.814 5.195-7.117-.882-1.588-7.405-1.42-8.951.976-8.951 1.199 0 1.785-.444 1.402-1.063-.747-1.21 2.409-5.135 3.558-4.425 1.106.683 1.758-3.835.878-6.081-.693-1.769-.762-1.742-.827.328-.038 1.242-1.282 3.618-2.763 5.281-3.1 3.479-3.604 3.056-5.87-4.928-.719-2.537-1.992-6.412-2.829-8.612-1.489-3.918-1.521-3.938-1.564-.973-.024 1.666.665 4.04 1.531 5.277.866 1.236 1.829 4.711 2.14 7.722.526 5.103.42 5.474-1.575 5.474-2.828 0-2.761 1.772.082 2.18 1.941.28 2.359 1.24 3.313 7.603.772 5.152.78 7.541.026 8.167-1.726 1.432-11.773 5.171-12.349 4.595-.29-.29-1.019-.132-1.62.351-.601.483-2.938 1.182-5.195 1.554-3.894.642-4.167.52-5.381-2.411-.703-1.697-1.939-3.456-2.746-3.908-1.127-.63-8.27-15.139-8.27-16.798 0-1.438 2.381.244 3.915 2.767 2.001 3.29 7.878 7.458 8.948 6.345.35-.365-.375-1.344-1.613-2.176-1.238-.832-2.25-2.081-2.25-2.774 0-.694 1.012-1.528 2.25-1.854l2.25-.592-2.5-1.717c-1.375-.944-2.725-1.967-3-2.274-.831-.928-4.451-.626-5.208.434-1.56 2.183-3.211-1.278-1.94-4.067 1.016-2.229 1.433-2.433 2.749-1.341 1.872 1.554 3.934-.734 2.366-2.624-.573-.69-.476-1.551.257-2.284.901-.901.88-1.176-.094-1.176-1.987 0-.878-4.432 1.209-4.83 1.012-.193 2.891.637 4.176 1.844 1.309 1.23 2.856 1.875 3.518 1.466.649-.402.795-1.012.324-1.356-1.92-1.402-4.098-6.923-3.256-8.253.477-.754.875-2.871.884-4.704.015-3.258 2.447-4.281 2.569-1.081.029.778.654 4.51 1.387 8.294 1.626 8.384 3.284 6.835 1.917-1.791-1.059-6.684-.743-7.284 4.142-7.858 3.419-.401 3.404-.415-.639-.571-3.889-.15-4.178-.369-4.789-3.631-.359-1.908-1.85-4.894-3.314-6.634-1.464-1.74-2.755-4.341-2.87-5.779-.114-1.439-.708-3.741-1.319-5.116-.932-2.094-1.022-1.648-.556 2.751.531 5.01-.58 9.249-2.423 9.249-.914 0-1.274-2.641-1.466-10.75-.068-2.888-.409-5.25-.757-5.25-1.33 0-1.545 3.868-.556 10.009.774 4.808.735 6.476-.16 6.774-.653.218-1.8 1.009-2.55 1.759-2.332 2.332-2.744.239-.436-2.218 1.201-1.278 1.641-2.324.978-2.324s-1.465.675-1.781 1.5c-.317.825-.938 1.5-1.381 1.5-1.138 0-.589-2.792.829-4.21.655-.655 1.19-1.875 1.19-2.713 0-.972-1.085-.335-3 1.762-1.65 1.806-3 3.707-3 4.223 0 1.852-1.88.892-2.566-1.312-1.159-3.72-8.498-12.75-10.363-12.75-1.708 0-1.291.925 2.315 5.137 1.862 2.176 4.449 6.024 5.75 8.553 2.24 4.356 6.258 9.31 7.549 9.31 1.562 0 3.25 3.906 3.241 7.5l-.01 4-1.863-3.5c-1.024-1.924-1.654-3.837-1.399-4.25.255-.412-.182-.75-.973-.75-.79 0-2.005-.686-2.701-1.524-2.356-2.839-2.087-.739.608 4.757 3.981 8.117 2.193 19.128-2.459 15.145-2.813-2.408-2.686-3.161.621-3.662 2.265-.343 2.104-.443-.916-.566-3.042-.124-4.232-.874-6.993-4.4-1.829-2.338-3.667-4.4-4.084-4.583-.416-.184-.757-.908-.757-1.61 0-.701-1.798-3.318-3.995-5.814-3.408-3.872-3.904-4.999-3.371-7.662.919-4.598 1.594-4.515 7.13.877 3.803 3.705 5.203 5.888 5.714 8.913.473 2.801 1.087 3.85 2.037 3.485 1.998-.767 1.305-6.827-1.093-9.555-1.112-1.265-3.165-4.101-4.562-6.301-6.032-9.5-5.769-8.513-4.679-17.585 1.189-9.895 1.189-9.895 3.761-6.807 2.491 2.992 2.861.483.438-2.975-1.297-1.852-1.395-2.805-.493-4.785 1.713-3.76 6.449-9.348 7.922-9.348.72 0 1.028-.454.685-1.009-.342-.555-.325-1.947.039-3.094.65-2.048.71-2.039 3.369.509 3.625 3.473 4.823 3.301 1.924-.276-1.279-1.579-2.662-2.678-3.073-2.443-.411.235-.298-.753.25-2.195.548-1.442.997-3.075.997-3.629 0-1.573-2.656 1.477-3.441 3.952-.388 1.222-2.585 5.109-4.882 8.636-7.033 10.801-6.828 10.602-6.227 6.049.29-2.2.533-5.328.539-6.95.009-2.294.278-2.683 1.211-1.75 3.125 3.125 5.098.291 2.102-3.019-.935-1.032-1.843-2.643-2.019-3.579-.79-4.196-.91-28.202-.141-28.202.472 0 .858-.477.858-1.059s-.45-.781-1-.441c-.575.355-1.008-.577-1.02-2.191-.01-1.545-.657-6.409-1.435-10.809-.843-4.76-1.038-8.135-.481-8.333.515-.184.936-1.42.936-2.748 0-2.51 6.483-12.419 8.125-12.419 1.758 0 2.149 3.141.872 7.008-1.285 3.896-.64 5.716 2.503 7.063.55.236.855 1.54.678 2.898-.177 1.358.251 6.308.952 11 .7 4.692 1.154 10.443 1.008 12.781-.146 2.338.103 4.25.554 4.25 2.489 0 3.462 6.019 1.788 11.06-.926 2.788-1.465 5.288-1.198 5.556.268.267.986-.945 1.595-2.693 1.194-3.424 1.267-3.409 6.549 1.327 1.073.963 2.342 1.75 2.819 1.75 1.598 0-2.545-5.816-4.91-6.893-2.631-1.199-3.162-4.852-.835-5.745.825-.317 1.5-1.373 1.5-2.347 0-.973.663-2.32 1.474-2.993.81-.673 1.76-2.753 2.111-4.622.351-1.87 1.07-3.4 1.598-3.4s.253-.707-.612-1.571c-.864-.865-1.627-1.99-1.696-2.5l-.293-2.179c-.092-.687.192-2.937.63-5 .439-2.062.394-5.55-.101-7.75-.684-3.048-.594-4 .379-4 .702 0 1.512-.9 1.8-2 .61-2.332 2.71-2.709 2.71-.486 0 .832.423 2.295.94 3.25.516.955 1.2 2.973 1.519 4.486.98 4.655 4.834 3.819 4.087-.886-.528-3.318-.431-3.515 1.104-2.25 1.52 1.253 1.617 1.128 1.012-1.303-.368-1.479-.237-2.955.291-3.282.528-.326.687-1.303.354-2.17-.545-1.423-.695-1.418-1.517.053-.502.896-1.335 1.369-1.851 1.05-.517-.319-.946.009-.954.729-.012 1.04-.193 1.029-.878-.052-.474-.748-.64-2.211-.368-3.25.35-1.338-.033-1.889-1.313-1.889-1.729 0-1.727-.059.031-1.345 1.76-1.287 1.746-1.369-.303-1.904-1.853-.485-2.092-1.146-1.773-4.906.203-2.39.171-3.332-.072-2.095-.243 1.237-.914 2.25-1.492 2.25s-.815-.9-.528-1.999c.288-1.099.115-2.251-.383-2.559-.498-.308-.906-1.685-.906-3.06 0-1.412.435-2.231 1-1.882.61.377 1-1.129 1-3.859 0-2.463.299-5.256.664-6.208.586-1.528.124-1.669-3.955-1.209l-4.619.52 1.955-3.832c2.975-5.832 2.636-7.577-1.458-7.487-1.877.041-4.229.525-5.227 1.075M129.958 41.078c-2.351 4.394 1.288 6.778 11.338 7.425 7.334.472 7.096-.582-1.274-5.642-7.333-4.434-8.531-4.647-10.064-1.783m37.224.422c-1.634 1.375-3.325 2.5-3.758 2.5-2.94 0-18.671 11.233-23.798 16.994C133.623 67.739 129.139 75 130.976 75c.563 0 1.024 1.35 1.024 3 0 2.941 1.817 5.424 5.549 7.584 1.847 1.07 6.451-2.027 6.451-4.339C144 78.228 154.623 67 157.477 67c.921 0-1.093 3.226-3.79 6.072-3.055 3.223-3.191 7.738-.312 10.304 1.461 1.301 1.734 2.034.875 2.342-.687.247-1.25.879-1.25 1.405s-1.555 3.264-3.455 6.086c-1.899 2.821-3.204 5.534-2.899 6.028 1.104 1.786 7.803.336 9.952-2.154l2.098-2.431.695 2.77c.399 1.591.231 3.329-.396 4.085-1.232 1.483-.72 1.923 3.376 2.904 3.96.949 6.379 3.364 4.203 4.199-.866.332-1.574 1.257-1.574 2.056 0 .799.419 1.193.931.877.512-.317 1.16-.205 1.439.247.28.452 2.058.642 3.951.421 2.906-.34 3.358-.723 2.902-2.464-.437-1.673-.164-1.965 1.448-1.543 2.355.616 5.813-1.612 4.87-3.137-.362-.587-.156-1.067.459-1.067s.869-.403.565-.895c-.498-.806 1.707-2.297 3.721-2.519.433-.047 1.108-.558 1.5-1.134 1.189-1.746 6.901-5.432 7.496-4.837 1.268 1.269 2.509-3.38 1.774-6.647l-.78-3.468-1.075 2.5c-.791 1.84-1.091 2.03-1.138.719-.034-.98-.71-2.03-1.5-2.333-.79-.303-1.185-1.209-.876-2.012.308-.803.801-1.22 1.095-.926.293.294 1.128.041 1.855-.562 1.757-1.458-.063-5.044-2.152-4.242-1.651.634-2.059-1.171-.485-2.144 2.084-1.288.87-2.21-2.431-1.846-4.862.536-5.151-.978-.809-4.252 7.695-5.802 10.977-9.745 11.692-14.052.914-5.496-.675-8.118-4.573-7.546-1.601.235-2.879-.04-2.879-.619 0-.573-.641-1.683-1.424-2.467-1.415-1.414-2.814-1.318-13.934.956l-2.858.585 1.779-2.715c3.182-4.856-3.191-6.411-8.381-2.044M358 57.662c-2.475 1.958-7.193 4.872-10.485 6.477-5.628 2.743-10.398 7.033-10.479 9.424-.02.585 1.528 1.677 3.44 2.427 2.41.946 3.186 1.713 2.53 2.503-1.408 1.696-3.025 18.478-2.169 22.507.548 2.578 1.29 3.528 2.818 3.607 1.14.059 2.584.423 3.209.809.662.409 1.136.052 1.136-.857 0-.857-.45-1.559-1-1.559s-1-.477-1-1.059.412-.805.915-.494c.503.311 1.142 0 1.421-.691.278-.691.579 1.669.669 5.244.177 7.088.655 14.71 1.41 22.5.266 2.75.538 7.025.605 9.5.072 2.71.391 3.818.801 2.785.375-.944.455-5.106.18-9.25-.276-4.145-.191-7.648.188-7.785.83-.302 1.616-4.864 1.729-10.035.071-3.284.314-3.661 1.832-2.85 1.609.861 9.25 1.362 9.25.606 0-1.555-3.844-3.471-6.964-3.471-5.71 0-5.916-5.832-.215-6.07 1.373-.058 1.315-.244-.321-1.021-1.864-.886-1.847-.921.249-.523 1.237.234 2.51.005 2.828-.511.318-.515 2.119-.647 4.001-.294 2.606.489 3.422.299 3.422-.795 0-1.411 3.996-5.786 5.284-5.786.361 0-.458 1.641-1.819 3.647-3.064 4.515-3.069 9.334-.009 8.848 3.728-.593 6.544-1.717 6.544-2.612 0-.485.637-.883 1.417-.883.779 0 1.566-.34 1.75-.757 1.925-4.369 18.736-14.76 17.136-10.591-.449 1.172-.27 1.446.595.911.681-.421.988-1.418.682-2.216-.313-.816-.121-1.182.439-.836.547.339 1.261-.076 1.585-.922.528-1.377.755-1.373 2.165.037 1.111 1.111 2.629 1.406 5.153 1.003 4.531-.725 8.078.179 8.078 2.059 0 1.224.25 1.205 1.571-.117.865-.864 1.877-1.571 2.25-1.572.374-.001.648-2.363.61-5.25-.038-2.887.409-5.568.992-5.957 1.588-1.061-.749-2.997-3.573-2.96-4.017.053-13.213 1.855-17.1 3.352-2.763 1.064-3.835 3.803-1.5 3.831.936.012.915.228-.084.861-1.057.67-.976.983.393 1.508.95.365 1.502.888 1.227 1.163-.951.951-3.786-.767-3.786-2.294 0-.843-.633-2.032-1.406-2.643-1.803-1.422-3.163-7.61-1.673-7.61.593 0 1.079.648 1.079 1.441 0 1.901 1.685 2.877 3.25 1.883 1.335-.847 1.887-1.003 4.263-1.199 1.352-.112 1.352-.513 0-3.747-.832-1.992-1.52-4.58-1.528-5.75-.013-1.74-.192-1.855-.985-.628-.533.825-.976.99-.985.367-.008-.624-.915-1.369-2.015-1.657-1.1-.287-2-1.057-2-1.71s.9-1.423 2-1.71c1.1-.288 2-.947 2-1.466 0-.518-.45-.664-1-.324s-1 .086-1-.563c0-.849-.45-.808-1.598.144-.878.729-2.373 1.444-3.32 1.589-.948.144-3.042.947-4.653 1.784-1.725.896-3.066 1.115-3.262.534-.584-1.73-7.376 6.104-6.893 7.95.247.946-.163 2.558-.912 3.582-1.822 2.492-1.717 4.5.315 5.986 1.462 1.069 1.51 1.627.379 4.36C376.818 86.854 375 88.124 375 86c0-1.493-3.583-1.207-4.91.392-1.473 1.775-5.09 2.752-5.09 1.375 0-.576.788-1.632 1.75-2.349 1.6-1.19 1.546-1.288-.63-1.137-1.554.107-2.696 1.041-3.291 2.692-1.815 5.029-11.13 9.01-12.534 5.357-.62-1.614-.794-1.535-1.475.67-.76 2.464-.501-.405.617-6.846.332-1.909.049-2.253-1.514-1.844-2.772.725-2.364-.975.717-2.994 3.829-2.509 15.352-1.73 13.71.926-.442.715-.07.864 1.068.428.96-.369 2.609-.67 3.664-.67 1.055 0 1.918-.493 1.918-1.096 0-.602.963-2.448 2.14-4.101 2.132-2.994 2.133-3.039.359-10.809-.98-4.291-1.536-8.745-1.234-9.898.989-3.785-6.749-2.796-12.265 1.566M428.29 77c.323 1.238.03 2-.769 2-1.357 0-5.131 4.989-3.794 5.015.425.009.098.452-.727.985-1.333.862-1.333.973 0 1 1.333.027 1.333.138 0 1-1.232.796-1.128.972.583.985 1.153.008 2.084.667 2.084 1.475 0 1.764-4.638 3.514-9.566 3.61-5.976.117-8.479 1.745-3.101 2.017 2.475.126 5.175.125 6 0 5.218-.794 7.221-1.499 7.684-2.706.289-.753.928-1.121 1.421-.816.492.304.895.139.895-.367 0-.507 1.125-.706 2.5-.443 1.782.341 2.5.04 2.5-1.045 0-1.059.686-1.372 2.25-1.03 1.28.281 1.819.133 1.25-.343-1.423-1.191-1.699-3.337-.429-3.337.59 0 .349-.723-.534-1.606-1.319-1.319-1.378-1.881-.329-3.144 1.101-1.328.969-1.441-.966-.827-1.417.45-2.242.297-2.242-.415 0-.619-.418-.868-.928-.552-.51.315-1.216-.333-1.567-1.441-.832-2.621-2.9-2.634-2.215-.015m-155.774 1.25c-.287 1.237-1.591 6.75-2.898 12.25-1.307 5.5-1.98 10.15-1.497 10.333 1.334.506 1.05 2.166-.371 2.172-.698.003-2.342 3.649-3.721 8.25-1.359 4.535-2.34 8.245-2.18 8.245.16 0-.174 1.224-.743 2.72-.845 2.224-.721 2.914.68 3.775 1.573.966 1.528 1.185-.536 2.651-1.238.879-2.257 2.556-2.265 3.726-.011 1.427-.276 1.719-.805.884-.956-1.504-5.601 12.081-5.348 15.64.093 1.318-.323 2.99-.924 3.715-.836 1.008.389 3.375 5.191 10.026 3.457 4.789 6.462 8.18 6.677 7.535.711-2.133 1.955-1.215 1.51 1.114-.312 1.631.708 3.566 3.557 6.75l3.994 4.464 1.018-2.5c.876-2.151 1.032-2.221 1.113-.5.099 2.075 2.693 6.177 3.432 5.427.232-.235.73-2.079 1.107-4.099.656-3.508.492-3.797-3.66-6.478-5.339-3.448-8.847-6.977-8.847-8.902 0-1.778 1.614-1.896 2.7-.198 1.621 2.533 7.127 5.756 7.646 4.475.273-.674.532-.261.575.918.104 2.82 3.079 4.07 3.079 1.294 0-1.1-.675-2.259-1.5-2.575-.825-.317-1.5-1.177-1.5-1.912 0-.735-.788-1.927-1.75-2.648C269.057 159.41 262.041 148 265.918 148c1.613 0 9.028 7.728 10.086 10.511.561 1.475 1.877 2.907 2.923 3.18 1.047.274 2.198 1.669 2.557 3.101 1.141 4.545 2.441.386 2.349-7.515-.051-4.389-.613-7.935-1.427-9.008-1.674-2.205-1.831-4.094-.206-2.469.66.66 1.596 1.2 2.079 1.2.939 0 .386-12.345-.796-17.75-.46-2.104-.328-3.25.374-3.25 1.216 0 .912-33.023-.379-41.23-1.07-6.801-9.705-11.937-10.962-6.52M60.057 79.439l-2.234 2.378 3.479 5.165c1.913 2.841 3.782 5.113 4.153 5.048.802-.14 5.545 6.664 5.545 7.955 0 .494.498 1.205 1.107 1.581.737.455.893.008.466-1.337-.353-1.111-.818-3.417-1.034-5.123-.216-1.707-1.101-3.811-1.966-4.676-1.373-1.373-1.835-2.509-1.801-4.43.005-.275.302-1.888.661-3.583.507-2.394.308-3.084-.89-3.084-.849 0-1.543.638-1.543 1.417s-.562 1.22-1.25.98c-.687-.241-1.126-1.144-.973-2.008.466-2.648-1.367-2.787-3.72-.283m396.466 2.489c-.362 1.139-1.415 2.075-2.34 2.079-.926.003-3.033.9-4.683 1.993s-4.005 1.99-5.234 1.993c-4.236.013-8.24 4.906-9.654 11.798-1.166 5.685-.48 9.635 1.002 5.772 1.482-3.863 1.886-.363 1.886 16.354 0 18.443-.316 20.311-3.052 18.04-1.018-.845-1.846-.965-2.274-.331-1.03 1.523-5.174 1.145-5.174-.473 0-1.827-4.338-5.64-4.809-4.227-.231.694-.801.631-1.661-.185-.719-.683-2.567-2.141-4.105-3.241a119.309 119.309 0 01-5.653-4.374c-2.735-2.274-4.272-2.222-4.272.144 0 .606-1.462 1.482-3.25 1.945-2.749.712-3.25 1.301-3.25 3.814 0 2.123.482 2.971 1.691 2.971 1.513 0 1.497.142-.151 1.347-1.296.948-1.496 1.562-.675 2.069.642.397.904 1.148.582 1.669a1.116 1.116 0 01-1.532.362c-.521-.322-.646-1.074-.277-1.671s.219-.806-.333-.465c-.552.342-1.597-.489-2.323-1.845-1.43-2.672-4.399-3.268-5.682-1.141-1.012 1.678-4.3 2.934-4.3 1.644 0-.533-.378-.969-.839-.969-.922 0-3.615 5.048-3.336 6.25.273 1.171-1.615.88-2.011-.309-.195-.583-1.327-.021-2.518 1.25l-2.164 2.309 2.438 5c1.582 3.245 2.24 5.932 1.875 7.655-.309 1.46-.086 2.949.496 3.309.583.36 1.059 1.347 1.059 2.194s1.913 3.418 4.25 5.712c5.843 5.736 7.342 7.849 6.958 9.813-.187.957.652 2.207 1.948 2.9 2.029 1.086 2.497.909 4.31-1.629C406.163 172.076 412 167.674 412 172c0 1.1-.434 2-.965 2-1.885 0-3.03 3.625-1.713 5.426 1.161 1.587 1.422 1.563 3.869-.362 1.444-1.135 3.303-2.064 4.133-2.064.83 0 1.698-.338 1.929-.75.23-.412.263-.137.072.611-.221.864.205 1.15 1.164.782.831-.319 1.511-.172 1.511.327s1.974 1.203 4.386 1.565c4.739.711 8.614-.648 8.614-3.02 0-.779.788-1.874 1.75-2.435.971-.566 1.194-1.033.5-1.05-.687-.016-1.155-.368-1.039-.78.116-.412-.114-2.296-.512-4.185l-.723-3.434-3.238 3.123c-3.03 2.923-8.526 5.791-9.408 4.909-.216-.215.768-1.152 2.187-2.082 3.304-2.165 6.493-7.391 5.728-9.385-.434-1.132-.146-1.372 1.081-.901 2.251.864 2.11-.747-.465-5.329-1.878-3.34-5.861-6.082-5.861-4.033 0 .906-4.559 3.067-6.47 3.067-.757 0-3.211 1.872-5.453 4.159-2.53 2.581-4.077 3.576-4.077 2.623 0-.846.675-2.097 1.5-2.782s1.5-1.813 1.5-2.507c0-.695 1.062-1.959 2.36-2.809 1.298-.85 3.087-2.274 3.976-3.163 1.291-1.291 2.044-1.388 3.735-.483 2.201 1.178 2.216.605.122-4.952-.591-1.568 1.025-.883 4.057 1.721 1.191 1.023 1.75 1.12 1.75.304 0-.659.563-1.126 1.25-1.036 2.727.354 3.627-.169 4.002-2.325.376-2.163.436-2.143 1.548.507.636 1.517 1.503 2.701 1.928 2.632 2.069-.337 3.192.284 3.763 2.082.581 1.832.861 1.746 3.994-1.236 2.457-2.337 3.09-3.542 2.339-4.447-.711-.856-.658-3.034.17-7.015.66-3.175 1.188-7.236 1.174-9.023-.047-5.978 1.594-3.335 2.012 3.241.428 6.709 2.131 9.404 5.989 9.477 2.124.041 4.081-8.179 2.769-11.631-.501-1.318-.508-2.337-.016-2.337.48 0 1.088-5.513 1.351-12.25.554-14.191.941-16.266 4.267-22.829 3.52-6.947 3.308-8.921-.958-8.921-1.88 0-4.09-.258-4.91-.572-.942-.362-1.734.191-2.149 1.5m-34.801 17.083c-2.295 2.681-2.195 2.978 1.028 3.052 2.574.06 2.611.12.578.939-1.195.482-3.67 2.898-5.5 5.37-2.991 4.038-3.671 4.452-6.717 4.089-3.233-.386-5.678-1.461-3.323-1.461.617 0 2.155-1.034 3.419-2.298 1.264-1.264 3.16-2.629 4.213-3.033 1.418-.544 1.623-1.026.79-1.859-.795-.795-1.504-.815-2.418-.068-.71.582-3.879 1.655-7.042 2.385-6.793 1.568-7.509 3.696-2.25 6.678 1.43.811 1.573 1.153.5 1.201-2.67.118-7.012 4.357-6.052 5.909.725 1.173 1.378 1.192 3.976.117 2.471-1.024 2.875-1.57 1.97-2.66-1.725-2.078-.099-1.641 2.336.628 2.328 2.169 4.324 2.705 3.18.854-1.224-1.981 4.637.036 9.352 3.218 5.026 3.392 5.238 3.448 5.238 1.369 0-.857.45-1.281 1-.941.55.34 1.003.254 1.006-.191.004-.445 1.285-1.536 2.848-2.425 5.16-2.935 4.658-13.934-.769-16.839-1.147-.613-2.085-1.775-2.085-2.58 0-.806-.477-1.465-1.059-1.465s-.781-.45-.441-1c1.154-1.868-2.046-1.011-3.778 1.011M82.374 123.985c-1.17.473-3.113 2.244-4.318 3.937-1.243 1.745-3.137 3.111-4.374 3.154-1.2.042-3.757.723-5.682 1.513-3.358 1.378-3.378 1.416-.5.937 1.65-.275 4.69-.908 6.755-1.409 2.216-.536 3.983-.541 4.311-.011 1.001 1.621-8.683 4.399-18.683 5.36-7.226.695-12.88 2.68-12.898 4.529-.013 1.249-.165 1.27-.893.12-.699-1.104-1.113-.945-2.04.788-1.707 3.189-.418 5.821 3.48 7.108 1.89.623 4.296 2.226 5.346 3.561 1.051 1.336 2.231 2.428 2.624 2.428.896 0 16.875-13.108 17.338-14.223.188-.45 1.684-1.514 3.327-2.363 2.831-1.464 3.014-1.437 3.526.521.914 3.494 9.588 2.938 13.384-.858 7.225-7.225-1.103-18.968-10.703-15.092m143.933 9.377c-1.156 1.33-2.413 3.396-2.792 4.591-.629 1.981-.51 2.061 1.352.898 1.123-.701 2.234-1.067 2.469-.813.96 1.039-.668 6.941-2.438 8.841-2.004 2.151-2.405 4.773-1.056 6.899.856 1.35 3.158-2.476 3.158-5.248 0-.757 1.233-2.842 2.741-4.634 3.639-4.325 5.543-9.78 3.94-11.287-2.165-2.034-5.222-1.722-7.374.753m-116.253 8.836c-2.982 4.509-5.608 7.64-5.835 6.958-.314-.941-.747-.963-1.8-.089-1.105.918-1.625.572-2.569-1.708-1.307-3.159-1.541-3.887-1.725-5.359-.069-.55-.6-1-1.18-1-.676 0-.946 2.8-.75 7.793.245 6.263-.059 8.349-1.55 10.626-1.397 2.132-1.555 3.019-.637 3.586.67.414.814.92.319 1.124-1.898.783-5.307 6.759-4.723 8.28.343.894.099 1.591-.556 1.591-.641 0-.905.422-.586.939.319.516-.003 1.303-.715 1.75-.712.446-2.082 2.049-3.044 3.561-.962 1.512-2.374 2.75-3.137 2.75-.763 0-2.328 1.942-3.477 4.316-2.966 6.127-2.698 7.989.828 5.757.798-.506 2.389-.527 3.647-.049 2.693 1.024 8.876-4.932 8.117-7.819-.413-1.569-.458-1.565-.565.045-.064.963-.562 1.75-1.108 1.75-.545 0-.8-1.463-.567-3.25.233-1.787.454-3.588.492-4 .137-1.525 3.067-.692 3.067.872 0 1.349.26 1.407 1.542.343 1.169-.97 1.824-.999 2.7-.123 1.55 1.55 3.085 1.481 2.067-.092-1.797-2.778-.935-11.611 1.191-12.198 1.577-.435 1.71-.739.628-1.436-.754-.487-1.204-1.372-1-1.968.988-2.88 2.979 1.195 3.545 7.255.347 3.717 1.216 7.344 1.932 8.059.715.715.997 1.602.628 1.972-.37.369.176.346 1.212-.051 1.315-.505 1.664-.368 1.156.454-.4.647.201 2.481 1.336 4.074 1.135 1.594 2.063 3.343 2.063 3.886 0 1.497 2.77 2.247 3.284.89.247-.653-.096-3.324-.763-5.937-1.031-4.043-.996-4.75.241-4.75 1.009 0 1.218-.534.683-1.75-.423-.963-.968-3.437-1.212-5.5-.244-2.062-.846-3.75-1.338-3.75-1.479 0-1.007-4.02.542-4.614.79-.303 1.22-1.117.954-1.809-.265-.691.213-1.834 1.063-2.539.851-.706 1.532-1.79 1.514-2.41-.017-.621-1.165.161-2.551 1.737-1.386 1.576-2.609 2.701-2.718 2.5-.11-.201-.761-1.371-1.449-2.601-.687-1.23-1.214-3.705-1.171-5.5.043-1.795.32-2.658.615-1.918 1.051 2.637 6.825-9.317 7.775-16.096.611-4.359-.62-3.314-6.415 5.448M249.298 158.5c.303 2.2 1.909 11.2 3.57 20 1.66 8.8 3.28 17.774 3.6 19.942.32 2.168.683 4.014.807 4.102.124.089 1.053.605 2.064 1.148 1.68.902 1.702 1.124.25 2.576-.874.874-1.575 2.184-1.557 2.911.021.868.504.698 1.409-.496 1.808-2.386 1.968-2.419 3.905-.811.921.764 1.654.914 1.654.339 0-1.113 2.496-1.049 3.638.093 1.545 1.546 3.161.642 2.611-1.46-.367-1.402-.185-1.923.519-1.488.671.416 1.688-1.411 2.676-4.811 2.833-9.745 2.895-10.928.683-12.93-1.991-1.802-2.046-1.785-2.707.846-.428 1.707-1.022 2.337-1.629 1.73-.607-.607-.512-1.665.261-2.903 1.331-2.13-1.354-7.837-3.161-6.72-.49.302-.891.087-.891-.48 0-.991-15.088-22.544-17.213-24.588-.716-.689-.868.246-.489 3M247 165.645c0 1.125-.896 2.856-1.991 3.847-1.877 1.698-1.891 1.875-.25 3.094 1.463 1.086 1.541 1.619.491 3.34-.687 1.126-1.25 2.525-1.25 3.108 0 .584-1.183 2.079-2.628 3.323-3.676 3.161-4.647 11.83-1.542 13.769 1.416.884 1.764 1.659 1.102 2.456-1.511 1.82 3.734 4.94 5.642 3.356 1.182-.98 1.632-.645 2.508 1.868.904 2.593 4.604 6.194 6.366 6.194.285 0-.374-1.589-1.465-3.53-2.415-4.301-2.499-5.143-.332-3.345 1.509 1.253 1.591.943.96-3.628-2.794-20.23-7.611-41.655-7.611-33.852m-50.163 10.045c-.638 1.545-1.076 3.181-.974 3.634.103.454-.275.54-.838.191-.564-.348-1.025-.156-1.025.426s.437 1.059.971 1.059c1.494 0 2.911 6.356 1.613 7.235-.724.49-.646.739.233.75.903.01 1.1.723.626 2.265-.38 1.238-.331 1.908.109 1.491 1.143-1.086 5.406 3.205 4.787 4.818-.401 1.045-.926 1.091-2.342.207-1.866-1.166-3.001-.454-9.109 5.71-1.949 1.967-1.96 1.966-2.539-.25-.32-1.224-1.253-2.226-2.073-2.226-.914 0-1.267-.58-.914-1.5.347-.905.005-1.5-.862-1.5-1.573 0-1.031 2.753.89 4.523.61.563 1.608 1.913 2.217 3s1.9 2.133 2.869 2.323c1.142.225 1.506-.066 1.036-.826-.728-1.179 2.585-5.02 4.33-5.02.508 0 1.161-.902 1.449-2.004.691-2.643 3.451-1.603 3.485 1.313.072 6.199 1.532 7.384 9.899 8.029 4.304.332 10.188.899 13.075 1.26 5.544.693 6.249.105 3.782-3.157-.808-1.067-1.535-3.066-1.616-4.441-.102-1.722-.29-1.956-.605-.75-.252.963-1.281 1.75-2.288 1.75-1.532 0-1.838-.84-1.871-5.144-.022-2.829-.515-5.619-1.096-6.2-.581-.581-1.056-1.994-1.056-3.141 0-1.491-2.637-3.955-9.25-8.644-12.334-8.744-11.57-8.438-12.913-5.181M48 179.017c0 .695.788 1.911 1.75 2.704 1.656 1.365 1.652 1.411-.082.861-1.007-.32-2.92-.582-4.25-.582-1.609 0-2.442-.585-2.488-1.75-.062-1.526-.168-1.502-.828.184-.52 1.329-.986 1.563-1.489.75-1.181-1.912-2.803-1.357-2.14.732.897 2.825-1.173 3.513-2.592.862-.67-1.253-1.105-2.428-.967-2.611.139-.184.031-.555-.239-.826-.78-.779-1.873 3.529-1.181 4.65.343.555 1.385 1.023 2.315 1.039 1.551.028 1.546.115-.059 1.05-2.683 1.563-2.09 8.92.72 8.92.731 0 1.209 1.15 1.143 2.75-.099 2.401.267 2.758 2.887 2.811 1.65.034 3.26-.317 3.577-.779.796-1.159 5.923 3.019 5.923 4.826 0 1.106.445 1.224 1.827.485 1.392-.745 2.232-.505 3.53 1.011 1.698 1.983 1.712 1.983 4.673-.125 3.234-2.303 3.527-3.022 1.895-4.654-.767-.767.232-1.271 3.484-1.759l4.559-.684-1.942-2.085c-1.441-1.546-1.695-2.547-.984-3.875 2.948-5.508-.298-9.043-8.616-9.385-2.67-.11-5.182-.807-5.814-1.615-2.133-2.727-4.612-4.288-4.612-2.905m228.679 20.585c-1.001 4.174-1.676 7.683-1.5 7.797 4.486 2.89 6.088 3.554 7.089 2.935.803-.496.372-.982-1.278-1.442l-2.49-.693 2.5-.135 2.5-.135-2.5-1.449c-2.342-1.357-2.154-1.41 2.957-.836l5.458.613-1.572-2.378c-1.13-1.712-2.802-2.525-5.957-2.898l-4.386-.519 3.764-.779 3.765-.779-2.633-3.452c-3.532-4.63-3.627-4.561-5.717 4.15M33.358 204.96c-.705 3.523-.923 3.532-13.379.597-8.074-1.903-8.979-1.913-8.979-.096 0 .883 1.684 1.892 4.25 2.548 15.685 4.007 16.27 4.301 16.011 8.037l-.238 3.454 1.609-3.122 1.61-3.123 7.129 1.867c3.921 1.027 12.529 3.201 19.129 4.831 23.508 5.806 25.265 6.46 29.394 10.932 5.387 5.835 7.851 5.627 3.169-.267-3.654-4.6-6.061-6.574-8.727-7.155-1.56-.339-5.986-1.767-9.836-3.171-3.85-1.405-14.176-4.448-22.946-6.762-15.007-3.961-18.543-5.683-15.514-7.555 1.009-.623.926-1.152-.387-2.465-1.561-1.561-1.712-1.466-2.295 1.45M483 207c0 .55-.75 1-1.667 1-.916 0-1.352.314-.968.698.384.384-.329 1.268-1.584 1.965-1.828 1.014-1.933 1.273-.531 1.302 1.038.021 1.75.805 1.75 1.928 0 1.041.785 2.194 1.743 2.562 2.483.953-2.207 4.492-5.993 4.523-2.565.021-3.483.955-2.199 2.239.795.796 9.491-2.666 10.403-4.142.423-.685 1.052-1.22 1.397-1.188 4.274.396 5-5.906 1.097-9.522-2.811-2.606-3.448-2.858-3.448-1.365m-293.75 3.36c-1.238.613-2.25 1.683-2.25 2.377 0 .695-.675 1.263-1.5 1.263s-1.5.408-1.5.906c0 1.421 3.687.098 5.59-2.006 2.206-2.437 3.41-2.415 3.41.065 0 1.08-1.012 2.496-2.25 3.146-1.238.649-2.61 1.79-3.05 2.535-1.069 1.811-2.7 1.723-2.7-.146 0-.825-.675-1.5-1.5-1.5-1.048 0-1.5-1.056-1.5-3.5 0-4.099-1.795-4.596-5.25-1.454a1507.35 1507.35 0 00-3.834 3.5c-1.943 1.784-2.914 1.852-2.924.204-.004-.687-1.129-1.77-2.5-2.406-1.395-.647-2.492-.743-2.492-.219 0 .516.658 1.19 1.462 1.499.804.308 1.769 1.53 2.145 2.715.376 1.184 1.388 2.668 2.249 3.298 2.746 2.007-2.248 6.203-6.779 5.696-3.859-.433-2.299 1.341 1.719 1.954 1.105.168 2.615.76 3.356 1.314 3.084 2.306 6.58 3.267 7.725 2.122 1.105-1.105 1.249-.958 1.498 1.527.072.718 1.827 1.368 4.125 1.527 2.2.152 4.9.671 6 1.154 5.917 2.594 21.691 5.378 22.573 3.985.738-1.165.899-1.122.912.244.016 1.737 12.845 4.681 14.89 3.417.525-.324 1.156-.024 1.403.667 2.071 5.8 3.019-17.873.99-24.738-1.952-6.607-2.218-6.941-3.845-4.816-.94 1.228-1.632 1.456-2.154.71-1.294-1.851-4.466-3.078-11.505-4.449-7.985-1.556-7.921-1.594-6.671 3.966 1.509 6.719.423 7.274-1.627.833-1.007-3.162-2.387-5.75-3.067-5.75-.679 0-1.947-.273-2.817-.607-1.134-.435-1.582-.01-1.582 1.5 0 1.159-.45 2.107-1 2.107s-1-.9-1-2c0-2.183-1.284-2.357-4.75-.64m51.321 3.211c-2.846 2.847-1.841 5.008 2.103 4.521.646-.08 1.464.767 1.818 1.882.353 1.114 1.064 2.026 1.578 2.026.515 0 1.705 1.776 2.646 3.946 1.31 3.024 2.01 3.696 2.997 2.878 1.478-1.228 1.775-4.244.33-3.35-.527.325-1.652-.751-2.5-2.392-1.935-3.741-1.935-3.746.363-4.347 1.399-.366 2.391.401 3.728 2.883 2.615 4.857 3.662 4.173 2.834-1.85-.861-6.26-5.468-11.017-5.468-5.646 0 1.774-.247 1.918-1.5.878-1.209-1.003-1.513-.979-1.568.128-.037.754-.556.36-1.152-.878-1.265-2.621-3.97-2.917-6.209-.679m-186.057 7.223c-1.092.244-2.741 1.315-3.666 2.381-1.593 1.837-1.706 1.844-2.185.131-.277-.993-.362-.006-.188 2.194.406 5.14 2.507 9.721 4.166 9.084 1.812-.695 2.696 4.978 1.561 10.02-.864 3.836-.721 4.301 2.187 7.107 4.171 4.025 9.763 6.962 8.084 4.245-1.861-3.011 7.328-10.196 10.099-7.896 2.234 1.854 1.673-.17-.767-2.768-2.08-2.213-2.131-2.653-.961-8.314 1.149-5.562 1.093-6.129-.793-8.154-1.116-1.197-2.299-3.03-2.63-4.073-.372-1.173-1.174-1.676-2.104-1.319-4.149 1.592-6.071 1.652-6.625.208-.777-2.026-3.74-3.391-6.178-2.846m180.519 5.623c-.018 2.154.231 3.653.553 3.331.974-.974 5.414 3.481 5.414 5.432 0 1.001-.46 1.82-1.021 1.82-.562 0-1.566 1.238-2.23 2.75-.665 1.512-1.613 3.037-2.107 3.388-1.162.826.093 2.862 1.764 2.862.708 0 3.027-1.687 5.153-3.75 2.126-2.062 4.557-3.751 5.403-3.751.846-.001 1.368-.451 1.161-1-.208-.55-.61-1.674-.895-2.499-.619-1.796-7.21-8-8.499-8-.5 0-1.753-1.012-2.785-2.25l-1.877-2.25-.034 3.917m230.849-2.667c-.066.412-.054 1.121.024 1.574.079.454-.318.54-.881.191-.564-.348-1.025-.156-1.025.426s-.873 1.059-1.941 1.059-2.219.45-2.559 1c-.34.55-1.379 1.015-2.309 1.033-.93.019-6.037 2.16-11.348 4.759-8.023 3.927-9.812 4.48-10.574 3.273-1.143-1.812-11.709 5.952-15.966 11.732-4.001 5.432-5.67 6.903-7.325 6.453-1.276-.347-1.273-.257.022.659 1.247.882 1.131 1.063-.691 1.076-2.6.018-3.956 1.768-2.5 3.224.569.569.808 1.624.532 2.345-.525 1.368 4.376 4.446 7.078 4.446.939 0 1.299.573.943 1.5-.317.825-1.128 1.5-1.802 1.5-1.238 0-1.807 6.041-.659 7 1.585 1.324 4.078 10.395 3.034 11.04-.733.453-.59.879.426 1.268.841.323 1.835 2.218 2.209 4.211.373 1.993 1.861 5.031 3.305 6.752 1.931 2.301 2.162 2.951.875 2.46-1.306-.499-1.75-.161-1.75 1.332 0 1.1-.578 2.221-1.284 2.492-.706.271-1.382 1.685-1.503 3.142-.121 1.456-1.128 4.188-2.238 6.07-3.459 5.863-.212 19.613 3.707 15.694.757-.757 1.925-1.208 2.597-1.002.672.206 2.429.638 3.904.96 1.476.322 2.954 1.438 3.285 2.481.724 2.279 4.194 1.743 4.872-.753.35-1.288.611-1.138 1.193.688.493 1.546.993 1.932 1.481 1.142.479-.775 1.505.159 2.929 2.665 4.591 8.079 11.077 9.196 12.579 2.168.389-1.821 1.781-5.884 3.093-9.03 2.621-6.287 2.887-7.78 1.385-7.78-.55 0-1 .675-1 1.5s-.455 1.5-1.012 1.5c-.62 0-.764-1.547-.372-4 .429-2.68.268-4-.488-4-.62 0-1.128-1.125-1.128-2.5s-.956-3.456-2.125-4.625-2.118-3.306-2.11-4.75c.019-3.461-1.445-5.125-4.512-5.125-2.24 0-2.441-.311-1.911-2.961.326-1.629.139-3.242-.415-3.584-.555-.343-.747-1.448-.427-2.455.929-2.928-1.159-3.249-3.314-.51-1.086 1.381-2.33 2.51-2.765 2.51-.436 0-1.837.982-3.114 2.181-2.282 2.144-2.347 2.148-3.782.25-.804-1.062-1.469-2.831-1.478-3.931-.014-1.655.151-1.741.953-.5.824 1.274.972 1.23.985-.294.008-.986 1.073-2.934 2.365-4.328 2.186-2.357 2.466-2.419 4.003-.882 1.286 1.286 1.746 1.359 2.074.328.232-.728.955-3.124 1.607-5.324.652-2.2 2.048-5.508 3.102-7.352 3.684-6.442.691-12.147-5.551-10.58-3.887.976-3.169-.913 2.04-5.365 4.579-3.914 4.644-3.934 6.567-2.011 2.591 2.591 5.168.722 4.32-3.136-.495-2.256.062-3.076 3.956-5.82 2.547-1.795 4.532-3.992 4.532-5.015 0-1.002.481-2.302 1.069-2.89.588-.588 1.195-1.916 1.348-2.95.153-1.035.91-1.898 1.681-1.918 3.335-.089 6.628-3.44 6.125-6.234-.703-3.904-3.91-7.212-4.341-4.479m-192.405 4.214c.328.529-.338 1.897-1.48 3.039-2.171 2.171-4.386 6.941-3.592 7.736.799.798 2.595-.793 2.595-2.298 0-1.868.32-1.826 4.226.555l3.274 1.997-4 .074c-3.282.06-3.641.243-2 1.017 1.729.816 1.634.894-.7.578-1.523-.206-2.906.172-3.173.868-.536 1.396 4.532 2.498 10.873 2.363l4-.085-5-1.349-5-1.349 6.064.522c8.317.715 9.872-1.025 5.226-5.85-5.051-5.245-13.205-10.88-11.313-7.818m-150.967 9.652c-1.041.761-2.727 1.384-3.747 1.384-2.936 0-6.763 4.501-6.763 7.955 0 1.675.45 3.045 1 3.045s1 1.24 1 2.757c0 3.041 5.571 5.691 9.696 4.612 4.153-1.086 3.853 7.604-.328 9.509-5.682 2.589-10.13-.099-11.912-7.198-.373-1.485-1.078-2.946-1.567-3.248-.489-.303-.889-1.648-.889-2.991 0-1.614-.566-2.441-1.671-2.441-.919 0-2.494-.745-3.5-1.655-1.456-1.318-1.834-1.369-1.856-.25-.015.773-1.318-.152-2.895-2.054-2.478-2.989-3.087-3.278-4.473-2.128-2.779 2.306-.853 10.01 2.858 11.434.845.325 1.537 1.267 1.537 2.095 0 2.13 4.253 10.9 5.75 11.858 1.806 1.155 1.537 3.052-.659 4.634-1.05.757-1.737 1.869-1.527 2.471.21.602-.797 1.954-2.239 3.003-2.546 1.854-2.659 1.855-3.973.059-1.207-1.651-1.352-1.668-1.352-.158 0 .93.563 1.721 1.25 1.759.688.037.237.556-1 1.152-4.404 2.124-1.115 4.951 3.378 2.904 2.288-1.043 2.474-.95 2.186 1.094-.209 1.488.269 2.349 1.436 2.581 1.249.248 1.75-.293 1.75-1.892 0-1.232.284-1.956.631-1.609.348.347 1.45.194 2.45-.341 1.514-.811 2.101-.375 3.518 2.61 2.046 4.312 5.559 6.835 8.302 5.964 2.514-.797 6.313-6.811 5.553-8.789-.313-.816.12-2.173.963-3.016 1.292-1.292 1.311-1.616.122-2.073-.775-.297-1.588-.007-1.805.644-.281.843-.827.753-1.895-.315-1.798-1.798-1.296-4.095.726-3.319 1.744.669 1.885-.813.235-2.463-.933-.933-.92-1.2.059-1.2.692 0 1.047-.342.789-.761-.259-.419.164-1.63.941-2.691.776-1.062 1.411-1.374 1.411-.694 0 .68 1.145.091 2.545-1.309 3.119-3.118 3.787-3.152 5.781-.295 1.14 1.635 1.583 1.826 1.622.7.028-.852-.471-2.073-1.111-2.713-1.099-1.099 2.353-3.237 5.228-3.237a.935.935 0 00.935-.928c0-.511-2.509-.803-5.574-.649-4.974.249-5.749.014-7.185-2.179-1.488-2.271-1.483-2.529.074-3.4.927-.519 1.685-1.656 1.685-2.526 0-.871.969-2.424 2.153-3.451 1.184-1.027 1.623-1.867.975-1.867s-1.568-1.012-2.045-2.25c-.478-1.238-2.176-3.885-3.774-5.884-2.622-3.278-3.091-3.499-4.799-2.25M160 244.75c0 .688-.477 1.25-1.059 1.25s-.805.412-.494.915c.311.503.127 1.065-.409 1.25-2.618.901 7.273 6.889 11.16 6.756 1.266-.043 1.763-.298 1.104-.566-.891-.362-.922-1.095-.122-2.85 1.616-3.548-2.128-7.974-6.76-7.992-2.076-.008-3.42.478-3.42 1.237m73.25 13.08c-2.338 2.048-4.25 4.39-4.25 5.203 0 1.701 7.305 4.387 7.84 2.882.321-.903 5.414-3.915 6.619-3.915.307 0 .014.871-.651 1.935-.664 1.065-1.517 1.745-1.895 1.511-.377-.233-1.199.194-1.825.948-2.47 2.976 2.026 2.546 6.921-.661 7.645-5.009 7.408-7.016-.509-4.305-1.754.6-1.723.478.25-.994 1.238-.923 2.25-2.298 2.25-3.056 0-.803 1.043-1.378 2.5-1.378 1.375 0 2.5-.45 2.5-1 0-1.487-9.731-1.252-10.341.25-.328.81-.798.898-1.333.25-1.638-1.982-3.901-1.33-8.076 2.33m144.5-1.762c-2.655 1.402-3.75 2.644-3.75 4.256 0 4.796 4.376 6.098 8.799 2.619l2.615-2.056.761 2.056c.418 1.131 1.338 2.05 2.043 2.042 4.311-.052 5.059-5.23.843-5.828-1.331-.189-3.272-1.426-4.313-2.75-2.25-2.861-2.224-2.859-6.998-.339M77.477 269.394c-3.173 4.843.872 10.347 6.667 9.074 3.51-.77 5.259-4.277 3.908-7.832-1.635-4.299-8.076-5.056-10.575-1.242M366.5 278c-.34.55.084 1 .941 1 2.411 0 1.841 3.114-.691 3.776-2.998.784-3.147.708-3.9-1.967-.635-2.253-.653-2.257-.75-.132-.055 1.197-.888 2.382-1.85 2.634-1.567.409-1.554.469.122.573 1.549.096 1.657.376.628 1.616-.685.825-1.626 1.5-2.091 1.5-.465 0-.587-.675-.271-1.5.317-.825.078-1.5-.531-1.5s-1.107.792-1.107 1.759c0 .968-.911 2.329-2.024 3.024-1.773 1.107-2.136.982-2.936-1.01-.502-1.25-1.001-1.823-1.108-1.273-.108.55-.527-.575-.932-2.5-.7-3.324-.743-3.248-.868 1.527-.135 5.126-2.215 9.473-4.534 9.473-2.094 0-4.998 3.681-3.409 4.32 1.036.417.997.75-.189 1.589-1.281.906-1.229 1.063.356 1.076 1.567.013 1.41.443-1.01 2.765-1.576 1.512-4.641 5.113-6.811 8-3.797 5.052-4.137 5.256-8.99 5.407l-5.045.157 5 .645c3.592.463 4.512.87 3.268 1.443-1.323.61-1.5 1.231-.75 2.632 1.904 3.557-.2 3.934-3.075.552-1.57-1.847-1.65-1.802-2.269 1.296-1.215 6.071-5.183 9.951-10.179 9.951-7.656 0-8.967.825-5.87 3.695 2.754 2.552 9.18 3.199 10.61 1.067.519-.775.739-.755.75.068.009.726 1.236 1.011 3.265.76l3.25-.402-3.25 1.671c-1.863.958-3.25 2.447-3.25 3.489 0 1.001-.562 1.706-1.25 1.569-.687-.138-1.114.384-.947 1.158.414 1.929-1.816 3.127-4.545 2.442-1.643-.412-2.258-.129-2.258 1.042 0 1.12.91 1.608 3 1.608 2 0 3 .5 3 1.5 0 .92-.935 1.5-2.418 1.5-3.475 0-5.582.997-5.582 2.642 0 1.102.442 1.192 1.934.393 2.513-1.345 3.122-1.306 2.816.182-.16.777 1.086 1.229 3.449 1.25 2.034.018 4.221.555 4.859 1.193.843.842 1.983.873 4.159.114 2.252-.784 3.19-.734 3.769.204.604.977.89.952 1.314-.115.393-.989.564-.907.621.299.048 1.002.773 1.549 1.829 1.378.962-.156 2.343.19 3.068.768.725.577 3.776.936 6.78.797 4.667-.216 5.744.086 7.399 2.071 1.657 1.988 1.941 2.068 1.97.549.056-2.995 13.033-5.663 13.033-2.68 0 1.385 4.609 5.955 6.006 5.955.603 0 1.748-1.561 2.546-3.469 1.382-3.309 1.652-3.453 5.845-3.123 2.418.191 4.884.647 5.479 1.015 1.245.77 5.124-1.047 5.124-2.399 0-.498-.45-1.184-1-1.524-1.762-1.089-1.069-2.331 1-1.79 1.118.293 2 .031 2-.593 0-.615 1.173-1.117 2.607-1.117 1.906 0 2.452-.403 2.031-1.5-.338-.881-.013-1.5.786-1.5.749 0 1.633-.707 1.965-1.572.337-.878 1.599-1.491 2.857-1.389 4.873.395 6.754-.066 6.754-1.656 0-1.185.667-1.489 2.5-1.138 2.069.395 2.5.089 2.5-1.777 0-2.412-1.699-3.468-5.582-3.468-1.33 0-2.418-.441-2.418-.981 0-1.586-4.349-2.217-7.37-1.069-2.74 1.042-2.779 1.006-2.125-1.973.495-2.254.323-2.963-.669-2.756-.933.195-1.248-.654-1.043-2.813.415-4.389-3.494-6.781-8.668-5.301-.756.216-1.57-.135-1.808-.78s.606-1.32 1.875-1.5c2.329-.33 2.776-1.901 2.79-9.798.006-3.676-2.345-5.628-5.189-4.309l-2.293 1.063 2.782 1.096c2.714 1.069 2.745 1.168 1.257 4.045-2.163 4.183-3.377 4.582-4.164 1.367-.375-1.535-1.176-3.113-1.779-3.505-.603-.393-1.147-1.968-1.209-3.5-.438-10.841-2.17-22.286-3.373-22.286-1.117 0 .036-4.32 1.39-5.208.754-.495.705-1.083-.162-1.95-.989-.989-1.245-.947-1.257.208-.013 1.233-.161 1.226-.985-.05-.533-.825-.976-2.738-.985-4.25-.015-2.806-3.119-4.009-4.515-1.75m11.861 9.724c.348 2.077 1.16 7.826 1.805 12.776s1.256 9.121 1.357 9.27c.1.148 3.069-.4 6.596-1.218s7.346-1.243 8.486-.945c2.874.752 11.395-5.071 11.395-7.786 0-3.652-4.334-11.849-5.99-11.33-.831.26-5.11-.438-9.51-1.552-4.4-1.113-9.523-2.242-11.385-2.508l-3.385-.484.631 3.777m-95.891 18.265c-6.033 5.995-10.973 11.639-10.977 12.542-.004.902-.814 2.23-1.8 2.951-4.051 2.963-3.007 24.524 1.187 24.514 1.571-.003 8.12-11.147 8.12-13.818 0-.683.813-1.565 1.806-1.96 3.744-1.488 12.645-13.227 16.767-22.114.867-1.867 2.217-4.037 3.001-4.821 2.455-2.455 1.788-5.283-1.245-5.283-1.469 0-3.395-.655-4.28-1.456-1.44-1.303-2.759-.312-12.579 9.445M39 302.95c0 .523.738 1.364 1.64 1.869.903.505 1.322 1.434.931 2.066-.39.631-1.198.846-1.795.477-.647-.4-.797-.206-.372.482.446.722.037 1.094-1.096.996-4.575-.397-6.308.196-6.308 2.16 0 1.1.45 2 1 2s1-.45 1-1c0-2.089 3.645-.857 7.245 2.449 3.289 3.021 3.724 5.886.6 3.956-.674-.417-.884-.277-.505.336.357.577-.016 1.305-.829 1.616-.836.321-1.222 1.232-.889 2.1.522 1.36.905 1.345 3.412-.136 3.506-2.071 4.459-5.184 2.168-7.077-1.59-1.315-1.584-1.37.1-.837.991.314 1.564.185 1.274-.285-.291-.47.324-1.627 1.367-2.571 1.767-1.599 1.784-1.847.254-3.633-.903-1.055-2.333-1.918-3.179-1.918-.845 0-2.099-.9-2.786-2-1.297-2.077-3.232-2.705-3.232-1.05m353.322 13.911c1.782 8.911 8.258 17.244 10.016 12.889.277-.687.54.134.583 1.826.074 2.894 1.343 4.56 6.392 8.396 1.667 1.266 1.758 1.16 1.138-1.31-.405-1.614-.185-3.278.55-4.163.995-1.199.876-1.608-.638-2.187-3.583-1.368-4.168-2.665-3.622-8.029.823-8.073-1.087-10.283-8.889-10.283h-6.102l.572 2.861" fill="#d3d3d3" fill-rule="evenodd"/></svg>