<svg xmlns="http://www.w3.org/2000/svg" width="500" height="630"><path d="M381 24.74c-4.417 1.712-12.148 11.822-11.38 14.882 1.365 5.44-8.867 8.51-14.965 4.489-2.016-1.329-2.482-2.1-1.598-2.646.93-.575.764-1.126-.656-2.175-1.791-1.324-1.8-1.463-.151-2.397.962-.546 1.75-1.848 1.75-2.893 0-1.045.788-2.345 1.75-2.888 3.362-1.897.088-3.166-4.263-1.653-2.442.849-4.355 1.028-4.937.463-1.558-1.512-3.283-1.052-3.825 1.021-.522 1.995 1.963 5.057 4.104 5.057.644 0 1.171.45 1.171 1s-.758 1-1.686 1c-.927 0-2.707.96-3.956 2.134-1.859 1.746-3.759 2.193-10.477 2.462-4.513.18-8.666.789-9.23 1.353-.698.698-1.567.532-2.735-.525-1.266-1.146-4.275-1.598-11.564-1.736L298.5 41.5l-.082-3c-.167-6.059-.439-7.5-1.418-7.5-.55 0-1 .714-1 1.586 0 2.22-8.01 1.569-9.777-.794-2.292-3.065-3.979-1.112-3.718 4.305.215 4.484-.024 5.119-2.383 6.328-3.436 1.761-7.86 1.7-8.558-.119-.386-1.005-1.24-1.217-2.809-.698-2.111.697-9.383 1.51-12.755 1.424-.825-.021-4.875-.507-9-1.08-8.253-1.147-12.329-1.62-25-2.902a2368.528 2368.528 0 01-15.113-1.581c-4.674-.509-6.826-.376-7.339.454-.454.734-1.161.833-1.887.263-2.149-1.685-6.652-2.32-6.776-.955-.064.698-.22 1.719-.348 2.269-.128.55-.315 1.45-.416 2-.102.55-.816.166-1.588-.852-1.302-1.72-1.567-1.737-3.691-.25-2.854 1.999-7.842 2.132-7.842.209 0-.766-.675-1.652-1.5-1.969-.825-.316-1.5-.139-1.5.393 0 .533-1.173.969-2.607.969-1.796 0-2.443-.426-2.082-1.369.537-1.399-16.001-3.33-19.36-2.26-.798.254-2.707.738-4.242 1.075-5.107 1.121-1.882 2.85 4.023 2.156 3.766-.443 7.22-.136 11.116.986 6.201 1.786 6.067 1.723 11.983 5.662 2.271 1.513 4.948 2.75 5.949 2.75 1.001 0 2.337.517 2.968 1.148.632.632 2.409 1.194 3.95 1.25 3.581.13 3.894 3.056.329 3.083-2.183.017-2.571.602-3.313 5.011-.463 2.745-1.488 5.705-2.278 6.578-.79.873-1.454 2.227-1.475 3.009-.047 1.701-8.227 7.921-10.419 7.921-.848 0-1.542.482-1.542 1.072 0 .589 1.013.94 2.25.78 2.473-.319 4.75.739 4.75 2.207 0 .518-.659.941-1.465.941-1.752 0-3.89 3.616-2.995 5.064.348.563.096 1.67-.56 2.46-1.016 1.224-1.455 1.111-2.974-.765-1.645-2.031-1.656-2.298-.144-3.449 1.758-1.338 1.596-1.448-2.612-1.771-1.512-.117-3.537-.559-4.5-.982-1.362-.6-1.75-.296-1.75 1.371 0 1.869-.269 1.998-2.107 1.015-1.445-.774-1.784-1.452-1.079-2.157 1.833-1.833.097-3.786-3.364-3.786-2.013 0-3.855-.694-4.643-1.75-3.039-4.069-25.885-8.434-36.297-6.934-12.412 1.788-26.83-.172-30.838-4.192-2.393-2.401-2.851-3.383-1.864-3.998.851-.531 1.075-1.743.642-3.471-.516-2.053-.3-2.655.95-2.655 1.354 0 1.419-.318.396-1.955-.671-1.075-.875-2.299-.454-2.721.422-.421 1.136-.169 1.587.562.528.854 1.847 1.121 3.696.749 1.581-.318 8.39-.822 15.13-1.119 11.317-.499 12.619-.764 17.014-3.469 2.618-1.611 7.003-3.472 9.745-4.136 13.377-3.238 17.92-6.153 9.031-5.793-3.102.125-5.871.6-6.152 1.055-.281.455-1.573.827-2.871.827-2.995 0-8.507 3.095-8.516 4.781-.003.705-.793 1.533-1.756 1.841-.963.308-2.792 1.06-4.065 1.672-1.83.88-2.508.809-3.235-.34-1.586-2.507-1.04-3.954 1.491-3.954 1.343 0 2.76-.516 3.149-1.146.497-.804-.081-.953-1.941-.5-1.457.355-3.709.904-5.005 1.218-1.497.364-2.966-.037-4.028-1.099-1.314-1.314-1.977-1.418-3.1-.486-.786.652-1.876.909-2.422.571-.547-.338-1.47.277-2.053 1.365-1.249 2.334-6.502 2.146-8.386-.3-1.079-1.4-8.029-.942-13.388.882-2.075.706-.207 3.495 2.34 3.495 1.506 0 2.393.581 2.393 1.567 0 1.511-1.028 1.461-5.649-.272-.632-.237-1.446.049-1.809.637-.381.617.158 1.068 1.277 1.068 2.133 0 4.547 2.301 3.506 3.342-.362.362-2.591.658-4.953.658-4.112 0-4.339-.16-5.333-3.75-1.423-5.139-2.413-6.427-4.364-5.679-1.308.502-1.536 1.446-1.062 4.408.747 4.676-1.03 6.133-2.464 2.02-1.315-3.774-2.256-3.753-4.149.095-.825 1.677-1.869 2.904-2.32 2.727-1.133-.443-2.926 2.972-2.188 4.166.827 1.337-1.269 5.013-2.858 5.013-.713 0-1.929-1.182-2.702-2.626-1.274-2.382-1.216-2.772.622-4.194 1.899-1.469 1.932-1.776.517-4.897-.898-1.981-2.027-3.117-2.79-2.806-4.721 1.927-4.834 1.903-2.646-.567 5.062-5.714 3.396-10.255-1.733-4.726a964.22 964.22 0 01-5.11 5.465c-1.119 1.182-1.734 2.635-1.367 3.229.367.595.153 2.042-.476 3.216-.988 1.848-.724 2.518 1.954 4.965 3.189 2.913 3.988 5.477 1.92 6.167-.762.254-.859.9-.275 1.833 1.228 1.962.59 5.12-1.318 6.515-1.629 1.191-2.14 2.743-2.648 8.042-.164 1.715-.529 3.515-.811 4-.282.486-.353 1.559-.159 2.384 1.62 6.893 1.62 7 .005 7C26.383 97 26 98 26 101.22c0 4.667 3.789 13.735 5.75 13.762.688.01 1.25.693 1.25 1.518 0 .825.421 1.5.936 1.5.515 0 .745 2.044.511 4.541-.356 3.792-.156 4.494 1.21 4.25.899-.16 1.833.273 2.074.962.283.811-.386 1.164-1.897 1-2.093-.227-2.304.107-2.048 3.234.187 2.28-.258 3.885-1.286 4.637-1.98 1.447-3.673 13.694-3.537 25.582.066 5.707-.42 9.951-1.409 12.319C25.694 178.976 26.47 190 28.642 190c1.572 0 1.546-.091 1.848 6.595.126 2.802.574 6.852.994 9 .421 2.148.878 5.591 1.016 7.652.137 2.061.77 4.373 1.406 5.14.743.896 1.11 5.446 1.027 12.753-.174 15.378.49 28.959 1.527 31.242.51 1.122.439 2.55-.175 3.533-1.865 2.987-2.534 8.08-1.262 9.613.678.817.926 2.54.57 3.959-.781 3.112.024 3.199 2.432.263 1.836-2.238 1.853-2.239 3.393-.25 2.245 2.901 1.528 4.867-2.17 5.957-3.374.994-3.876 2.299-3.415 8.879.109 1.559-.276 4.595-.855 6.746-1.449 5.381-.001 8.073 3.92 7.288 3.438-.687 5.217 1.342 2.755 3.142-4.876 3.565-7.047 8.751-6.904 16.488.133 7.105.866 17.5 1.234 17.5.094 0 .279 1.35.412 3 .626 7.797 1.957 15.133 2.978 16.413.851 1.066.805 1.521-.188 1.854-3.232 1.088-4.199 6.265-4.713 25.239-.42 15.521-.396 15.634 3.778 18.29 3.208 2.042 3.636 3.748.75 2.994-1.364-.357-2-.031-2 1.026 0 .852-.864 1.824-1.921 2.159-2.091.664-1.947-1.131-2.083 25.903-.056 11.084.219 13.422 1.97 16.781 2.427 4.656 2.531 6.184.534 7.841-2.035 1.689-1.895 6.906.25 9.277 1.413 1.562 1.778 3.985 1.896 12.579.08 5.854.447 12.219.816 14.144.369 1.925.634 4.85.588 6.5-1.078 39.245 11.106 66.524 31.69 70.957 3.182.685 3.23.642 2.632-2.347-.525-2.625-.233-3.216 2.119-4.288 3.662-1.668 5.735.907 4.908 6.098-.853 5.359 2.077 7.565 12.601 9.489 8.811 1.611 25 1.902 25 .449 0-2.338 7.513-5.555 10.832-4.639 1.842.509 4.017.669 4.832.357 2.253-.865 1.229 2.492-1.164 3.817-1.1.609-2.224 1.256-2.498 1.439-.275.182.275.897 1.22 1.588 1.26.922 3.374 1.031 7.925.408 7.877-1.077 8.188-1.457 1.904-2.321l-5.077-.698 2.42-1.905c1.332-1.047 2.887-1.904 3.457-1.904.57 0 1.749-1.013 2.62-2.25 1.263-1.792 1.76-1.97 2.445-.872.473.758 1.361 1.069 1.972.691 1.835-1.134 3.383.4 2.038 2.02-1.382 1.665-1.508 1.61 3.574 1.562 4.19-.039 8.133-.566 12.75-1.706 2.146-.529 2.75-.323 2.75.938 0 .89.45 1.617 1 1.617s1-.337 1-.75c0-1.018 14.179-.958 15.763.067 2.013 1.302 7.352 1.114 8.22-.289.627-1.015 1.803-1.044 5.654-.14 2.675.628 8.688.98 13.363.783 4.675-.197 9.008.031 9.629.507.643.494 5.262.358 10.737-.315 6.613-.812 10.313-.864 11.871-.164 1.675.752 3.102.618 5.491-.516 2.904-1.378 3.406-1.377 5 .012 2.323 2.025 28.38 1.982 29.056-.048.304-.911.74-.813 1.597.359.963 1.317 1.702 1.413 4.039.525 2.304-.876 3.203-.777 4.624.509 1.436 1.3 2.126 1.371 3.711.381 1.561-.975 2.539-.921 4.935.275 2.764 1.378 3.109 1.342 4.585-.477 2.036-2.509 6.425-1.62 7.705 1.561.491 1.221.922 1.599.957.839.046-1.015.995-1.229 3.585-.809 2.09.339 3.286.189 2.941-.369-.319-.518-.142-.941.395-.941.536 0 1.155.54 1.375 1.2.22.66 2.058 1.2 4.084 1.2 2.025 0 3.683.305 3.683.678 0 1.392-3.03 3.125-4.487 2.565-2.218-.851-1.845.668.528 2.15 1.122.701 2.53.972 3.13.602.599-.371 7.148-.624 14.554-.564 11.465.093 13.382-.11 12.902-1.361-.385-1.002.096-1.47 1.511-1.47 1.435 0 1.898.464 1.5 1.5-.433 1.129.171 1.5 2.443 1.5 1.66 0 4.354.691 5.987 1.535 2.668 1.38 3.027 1.38 3.557 0 .352-.918 1.852-1.548 3.732-1.567 2.878-.029 2.991-.147 1.333-1.404-.995-.755-1.411-1.618-.923-1.92 1.617-.999 5.04.512 5.547 2.448.487 1.864 3.686 2.763 3.686 1.037 0-.492 2.066-.485 4.75.017 3.207.6 5.644.518 7.501-.251 2.068-.856 3.097-.851 4.146.02.767.636 4.48 1.178 8.249 1.203 3.77.024 9.104.512 11.854 1.083s5.675 1.003 6.5.961c10.728-.556 16.663-2.899 14.024-5.538-2.02-2.02-.969-2.647 1.926-1.15 4.228 2.186 6.337 2.004 5.548-.479-.44-1.388-.095-2.212 1.123-2.68 1.014-.389 1.926-.175 2.152.505.647 1.94 2.065 1.337 2.407-1.023.257-1.769.996-2.211 3.76-2.25l3.439-.047.37-7.347c.38-7.566-1.144-10.838-4.499-9.656-.726.256-1.25-.385-1.25-1.528 0-1.083.527-1.969 1.171-1.969 1.84 0 4.745-3.055 4.216-4.434-.263-.685.217-1.823 1.067-2.528.851-.706 1.546-2.307 1.546-3.56 0-3.193-8.579-4.217-11.16-1.333-.913 1.02-1.975 1.855-2.359 1.855-1.099 0 .514-5.321 2.17-7.159 1.333-1.48 1.307-1.765-.238-2.63-1.591-.89-1.556-1.064.427-2.125 2.671-1.43 2.844-3.078.252-2.4-1.13.296-2.759-.353-4-1.594-1.15-1.15-2.542-2.092-3.092-2.092-.55 0-1-.42-1-.934 0-.513-1.235-1.076-2.745-1.25-2.135-.246-2.887-.983-3.382-3.316-.35-1.65-.69-2.212-.755-1.25-.213 3.153-3.746 2.04-4.76-1.5-.795-2.772-1.554-3.382-5.165-4.146-4.391-.93-6.707-.158-4.192 1.397 1.222.755 1.187.99-.231 1.534-2.01.771-3.77-.154-3.77-1.981 0-2.074-5.741-2.497-7.502-.552-2.016 2.228-1.886 4.927.505 10.505 1.102 2.571 1.759 5.07 1.459 5.554-.954 1.545 2.219 6.321 6.75 10.161 3.874 3.282 4.346 4.125 3.996 7.123-.37 3.172 6.285 15.317 9.038 16.495 2.372 1.015 4.748 8.756 2.413 7.86-2.339-.898-4.235.901-2.787 2.645.993 1.197.982 1.917-.055 3.577-1.511 2.419-5.074 2.912-4.179.578.745-1.94-1.028-1.94-2.638 0-.685.825-1.955 1.5-2.822 1.5-1.15 0-1.279-.299-.476-1.102 1.511-1.511-1.078-4.482-6.202-7.119-2.2-1.132-5.432-3.57-7.183-5.418-1.75-1.849-3.836-3.361-4.635-3.361-1.478 0-4.682-4.082-4.682-5.965 0-1.613 1.722-1.233 5.502 1.215 1.91 1.238 3.479 3.011 3.486 3.941.016 2.261 1.659 3.146 5.562 3 2.422-.091 3.362.366 3.742 1.819.657 2.512 5.343 4.755 6.828 3.27.755-.755.583-1.803-.588-3.59-1.157-1.766-1.459-3.562-1.006-5.977.585-3.117.396-3.516-1.939-4.102-1.694-.425-2.587-1.333-2.587-2.63 0-1.09-.661-1.981-1.469-1.981-.964 0-1.247.577-.824 1.679.557 1.452.285 1.418-2-.25-1.728-1.26-2.655-2.882-2.676-4.679-.034-3.046 1.562-3.747 2.28-1 .309 1.183.495.937.573-.758.064-1.379-.937-4.529-2.225-7-2.542-4.88-5.116-13.775-6.12-21.153-.349-2.564-1.244-4.895-1.987-5.181-.744-.285-1.665-2.37-2.048-4.632-1.812-10.73-13.559-32.168-18.864-34.43-1.727-.736-4.161-2.447-5.408-3.801-2.192-2.38-2.215-2.592-.666-6.298.924-2.211 1.34-4.929.982-6.416-.342-1.42-1.267-5.669-2.056-9.444-.789-3.775-1.837-7.375-2.328-8-.492-.625-1.123-2.937-1.403-5.137-.28-2.2-1.679-6.424-3.11-9.386-1.431-2.962-2.353-5.787-2.05-6.278.716-1.157-1.824-11.224-5.385-21.344-5.342-15.184-10.481-23.786-20.604-34.492-3.225-3.41-5.889-7.693-7.008-11.265-.304-.971-1.689-2.197-3.078-2.725-2.529-.962-3.333-2.55-1.608-3.177 1.662-.603-.028-5.406-2.246-6.379-1.539-.676-2.073-1.653-1.834-3.355.186-1.32-.125-3.345-.691-4.5-.567-1.154-1.465-4.124-1.995-6.599-2.005-9.348-8.264-21.261-15.802-30.079-.743-.868-1.35-2.996-1.35-4.73 0-3.85-2.586-10.651-5.587-14.691-4.052-5.454-4.708-10.488-3.975-30.5.416-11.357 1.262-20.624 2.191-24 .832-3.025 2.149-7.75 2.927-10.5 1.621-5.732 2.203-12.074 1.199-13.078-.376-.377-.312-1.413.144-2.303.456-.891 1.072-4.094 1.369-7.119.783-7.959 2.412-11 5.893-11 1.561 0 3.627.83 4.589 1.844.962 1.014 4.337 4.562 7.5 7.885 3.162 3.323 5.764 6.656 5.781 7.406.017.751 1.138 3.615 2.491 6.365 1.353 2.75 2.464 5.761 2.469 6.691.005.93.459 1.969 1.009 2.309.55.34.998 1.379.997 2.309-.007 2.958 11.076 24.193 13.432 25.736 3.264 2.139 4.44 5.441 3.838 10.776-.756 6.712 5.01 24.679 7.92 24.679.474 0 1.29 1.125 1.813 2.5.523 1.375 1.61 2.5 2.416 2.5 2.089 0 2.856-1.682 1.078-2.364-1.912-.734-1.955-3.636-.053-3.636.793 0 1.693.408 2.001.906.728 1.179 4.583.223 6.787-1.683 1.543-1.335 1.799-1.314 2.376.189.401 1.047-.064 2.244-1.23 3.163-1.82 1.436-1.816 1.471.125 1.202 1.59-.22 1.992.287 1.961 2.473-.022 1.512.315 2.75.75 2.75.434 0 .789.675.789 1.5 0 1.39-2.43 2.027-5.89 1.542-1.045-.146-1.234.589-.761 2.953.525 2.626.343 3.092-1.098 2.815-2.184-.421-2.906-3.834-1.11-5.244 3.891-3.053.535-5.763-3.614-2.919-1.17.803-1.432 1.353-.643 1.353.799 0 1.089.628.726 1.573-.331.865.324 3.902 1.457 6.75 2.06 5.179 2.852 6.823 7.792 16.177 2.334 4.419 2.608 5.954 2.359 13.205-.186 5.411.201 9.362 1.137 11.602.781 1.868 1.728 5.222 2.104 7.453 1.233 7.294 2.922 8.179 4.424 2.318.716-2.791 1.695-5.317 2.176-5.615.482-.297.621-1.811.311-3.364l-.565-2.824 5.347.47c2.942.258 5.798 1.027 6.348 1.708.55.682 2.8 1.824 5 2.538 5.271 1.712 13.216 5.712 17.183 8.651 1.751 1.297 3.664 2.358 4.25 2.358 1.992 0 1.078-2.763-1.465-4.429-3.322-2.176-2.318-3.583 2.05-2.874 2.992.485 3.482.286 3.482-1.411 0-1.924-2.842-5.286-4.468-5.286-.447 0-1.409-.788-2.14-1.75-.811-1.069-1.341-1.263-1.36-.5-.035 1.37-7.711 1.756-9.656.485-.619-.404-1.442-2.197-1.83-3.985-.91-4.196 2.9-4.838 4.454-.75 1.122 2.951 5.221 3.422 7.752.891 1.479-1.479 1.418-1.754-.76-3.397-1.303-.983-2.924-1.574-3.602-1.313-.679.26-2.061.03-3.073-.511-2.52-1.349-7.323-.35-6.657 1.385.284.742.208 1.85-.171 2.462-.844 1.366-4.489-1.636-4.489-3.697 0-.753-1.012-1.77-2.25-2.261-6.367-2.521-8.737-6.108-10.232-15.482-.782-4.908-1.18-9.315-.884-9.794.296-.479.075-1.429-.492-2.112-.566-.682-.983-2.8-.926-4.706.057-1.906-.427-6.39-1.075-9.965-.649-3.575-1.213-7.175-1.255-8-.131-2.579-3.115-10-4.022-10-.475 0-.864-.693-.864-1.54 0-1.55-2.825-6.059-6.377-10.178-2.147-2.491-5.069-10.631-6.104-17.004-.377-2.323-1.154-4.123-1.727-4-.573.122-1.272-.412-1.553-1.187-.365-1.004-.009-1.217 1.236-.739 1.32.507 1.598.281 1.136-.922-.336-.877-.611-3.097-.611-4.935 0-2.12-.929-4.446-2.543-6.363-2.196-2.61-2.37-3.299-1.277-5.049 1.113-1.782.882-2.424-1.907-5.305-2.184-2.256-3.388-4.681-3.861-7.778-.378-2.475-2.113-6.975-3.855-10-4.171-7.243-7.285-13.861-8.096-17.209-.362-1.49-1.288-3.233-2.059-3.872-.771-.64-1.402-1.589-1.402-2.109 0-.519-1.687-3.842-3.75-7.384-4.023-6.907-9.709-10.367-12.482-7.594-1.705 1.705-10.324 1.469-12.125-.332-.825-.825-2.144-1.5-2.932-1.5-.787 0-3.121-1.594-5.186-3.542-3.853-3.633-12.343-8.458-14.883-8.458-1.722 0-3.285 5.286-1.717 5.808 1.356.452 1.421 3.192.075 3.192-.55 0-1-.45-1-1s-.395-1-.877-1c-.483 0-.66 1.924-.395 4.275.432 3.841.21 4.42-2.187 5.703-1.793.959-2.514 2.018-2.198 3.225.478 1.829-1.006 2.361-2.876 1.032-1.552-1.104-1.179-7.177.504-8.217 1.441-.89.759-2.518-1.054-2.518-.505 0-.804-.369-.667-.82.443-1.454-3.098-2.756-5.712-2.1-1.598.401-2.538 1.337-2.538 2.528 0 1.041-.45 1.892-1 1.892s-1-.454-1-1.008c0-1.39-3.467.66-9.5 5.615-2.75 2.259-6.07 4.446-7.378 4.858l-2.378.751 1.878-2.576c1.033-1.418 2.249-2.591 2.702-2.609.454-.017 3.419-2.506 6.591-5.531 3.885-3.706 6.593-5.5 8.303-5.5 1.395 0 3.097-.675 3.782-1.5s1.827-1.5 2.539-1.5c.712 0 1.498-.562 1.747-1.25.345-.952.91-.982 2.374-.122 1.571.922 2.418.702 4.636-1.206l2.714-2.335-2.089-1.946c-1.149-1.07-3.993-2.425-6.321-3.012-3.042-.766-5.759-2.622-9.659-6.597-4.055-4.134-6.142-5.532-8.263-5.532-2.613 0-2.786-.23-2.197-2.913.515-2.344.255-3.036-1.328-3.538-2.642-.839-3.398-3.161-1.611-4.949 1.813-1.812 1.842-5.912.076-10.983l-1.351-3.882-1.766 4.624c-1.141 2.988-1.576 6.044-1.229 8.633.498 3.715.362 4.008-1.867 4.008-2.604 0-3.155-1.842-1.155-3.862 1.001-1.011.909-1.455-.464-2.23-1.341-.756-1.512-1.497-.788-3.402 1.391-3.659-.639-4.1-2.481-.539-.863 1.668-1.932 3.033-2.376 3.033-1.73 0-1.976-1.322-.629-3.378 2.79-4.258.624-14.622-3.057-14.622-2.076 0-3.529-5.984-2.67-11 1.048-6.122 3.854-6.369 3.403-.3-.333 4.48.528 6.746 4.662 12.278 1.43 1.913 2.687 4.073 2.794 4.8.607 4.139 2.62 4.195 4.633.127 1.122-2.268 1.625-4.39 1.125-4.752-2.25-1.629-5.652-7.655-5.652-10.013 0-1.431-.687-3.105-1.528-3.719-.85-.622-1.198-1.65-.786-2.318.543-.878 1.097-.906 2.064-.103.93.772 1.517.781 1.98.032 1.185-1.917 2.734.148 2.182 2.908-.353 1.765.148 3.711 1.45 5.629 6.152 9.062 7.318 12.578 7.353 22.181.039 10.235.472 11.009 3.085 5.504 1.971-4.153 2.464-11.41 1.237-18.21-1.04-5.766-8.086-17.609-11.574-19.454-2.341-1.239-2.473-1.53-.963-2.12 1.043-.408 1.759-1.752 1.772-3.327l.022-2.643 2.071 2.5c1.479 1.785 1.902 1.976 1.478.668-.326-1.007-.593-2.267-.593-2.798C263 67.557 249.579 54 248.28 54c-.569 0-1.595-.675-2.28-1.5-2.849-3.433-19.88-1.312-23.525 2.931-1.297 1.509-3.398 2.644-5.091 2.751-1.586.099-3.425.586-4.086 1.082-.661.496-2.011.648-3 .339-4.587-1.433-15.355 13.432-13.444 18.56.479 1.285.725 7.512.546 13.837-.353 12.461.003 15 2.1 15 .751 0 1.651.9 2 2s.983 2 1.408 2c.426 0 1.991 2.236 3.479 4.969 1.487 2.733 3.134 5.235 3.659 5.559 1.91 1.181.846-2.133-2.064-6.428-3.249-4.795-3.762-7.1-1.581-7.1 1.37 0 10.599 17.609 10.599 20.222 0 2.338 5.019 8.778 6.842 8.778.973 0 3.294 1.125 5.158 2.5 5.781 4.265 11.798 2.479 18.918-5.615 3.678-4.182 5.082-4.814 5.082-2.29 0 2.378-7.937 10.253-11.709 11.617-1.81.654-3.291 1.774-3.291 2.489 0 2.022-2.556 1.54-6.68-1.259-2.591-1.758-4.403-2.334-5.795-1.842-1.114.394-7.488.983-14.166 1.308-11.382.555-12.304.756-14.756 3.212-7.999 8.013-10.098 14.136-9.188 26.808.378 5.265.699 10.022.715 10.572.076 2.741-2.266 13.267-3.557 15.987-1.849 3.897-3.036 16.109-1.648 16.966.555.344.773 1.845.484 3.336-.3 1.549.536 5.938 1.951 10.241 2.679 8.146 3.156 24.268.847 28.584-.863 1.612-.687 2.712.835 5.215 2.004 3.295 3.511 4.013 4.184 1.994.215-.647.928-.846 1.583-.441 1.671 1.033 1.484 2.618-.309 2.618-.825 0-1.5.342-1.5.76 0 1.37 5.048 6.24 6.468 6.24.763 0 2.432 1.319 3.71 2.932 3.836 4.843 5.152 4.367 5.337-1.932.11-3.755-.343-6.102-1.427-7.396-1.194-1.426-1.278-2.005-.338-2.333 1.769-.619 1.555-4.217-.293-4.926-2.352-.902-2.823.187-2.665 6.165.079 3.019-.264 5.49-.763 5.49-1.629 0-2.297-8.962-1.115-14.968.873-4.437.873-6.991.002-10.452-.871-3.459-.871-5.701 0-9.159 1.099-4.365 1.033-4.673-1.402-6.588-5.052-3.975-8.394-17.028-5.065-19.79.853-.709 1.551-1.807 1.551-2.442 0-.634 2.035-5.175 4.522-10.09 4.683-9.254 5.645-12.826 5.854-21.752.195-8.3 2.086-6.762 2.42 1.969.315 8.235-2.769 19.586-6.907 25.418-3.69 5.201-5.233 14.164-3.179 18.463.984 2.061 2.352 3.929 3.039 4.152 1.283.416 1.646-.26 2.683-4.996.904-4.129 9.568-5.214 9.568-1.198 0 1.714-1.18 1.853-2.713.32-1.262-1.262-3.626-.244-2.744 1.182.316.512 1.448.931 2.516.931 2.521 0 2.489 1.636-.059 3-1.1.589-2 1.73-2 2.535 0 2.217 6.957 1.845 10-.535 1.375-1.076 3.241-1.966 4.146-1.978 1.897-.025 7.364-5.901 8.333-8.956 1.045-3.294 2.854-2.482 2.164.971-.7 3.499-6.122 10.663-8.687 11.477-.957.304-1.953 1.366-2.213 2.362-.421 1.609-1.372 1.757-8.608 1.338-8.016-.464-9.441.08-6.893 2.628.98.98.983 1.401.012 2.001-.863.533-.97 1.661-.359 3.792.533 1.856.485 3.722-.123 4.808-.658 1.175-.658 2.498 0 3.916 3.672 7.918 6.032 18.331 5.243 23.141-1.573 9.603-.253 12.341 7.946 16.481 6.701 3.382 17.027 11.843 17.069 13.985.056 2.91 7.682 10.687 9.103 9.284.697-.688 2.022-1.25 2.945-1.25.922 0 2.237-.675 2.922-1.5 3.064-3.692 12-.547 12 4.222 0 1.253.398 2.278.883 2.278 1.31 0 2.092-5.316.98-6.661-3.055-3.694 5.091-1.257 8.542 2.556 2.629 2.905-2.278 12.605-5.916 11.692-1.312-.33-4.342.066-6.736.879-6.471 2.196-14.092.769-17.954-3.362-1.622-1.736-2.75-3.706-2.506-4.38 1.444-3.998-15.085-21.724-20.258-21.724-.553 0-4.211-2.477-8.13-5.506-3.919-3.028-8.631-6.219-10.469-7.092-1.839-.872-3.87-2.22-4.512-2.994-.643-.774-1.676-1.408-2.296-1.408-.621 0-2.385-1.575-3.921-3.5s-3.336-3.504-4-3.508c-1.145-.007-1.826-1.081-5.546-8.742-.868-1.788-2.063-3.25-2.656-3.25s-2.758-2.25-4.811-4.999c-2.052-2.75-5.486-6.107-7.629-7.46-2.143-1.353-4.186-2.928-4.54-3.5-.354-.573-1.014-1.041-1.467-1.041-1.353 0-1.842 3.472-.657 4.657 3.62 3.616 4.595 5.343 3.018 5.343-1.387 0-1.394.168-.065 1.497.824.824 2.206 1.225 3.072.893 2.493-.957 1.908 2.356-.676 3.828-1.237.705-2.25 1.957-2.25 2.782 0 1.096-1.026 1.461-3.811 1.356-3.947-.149-6.123-1.296-3.939-2.076 1.527-.546 1.68-5.28.171-5.28-.68 0-.836-1.113-.421-3 .581-2.647.392-3-1.617-3-2.154 0-2.095-.186 1.119-3.502 3.718-3.836 3.197-6.889-.755-4.42-1.687 1.053-2.344.91-4.339-.949-2.939-2.738-5.316-2.371-5.707.881-.165 1.37-.573 3.165-.908 3.99-.335.825-.497 2.175-.361 3 .154.936-.842.466-2.647-1.25-3.858-3.665-4.687-3.496-7.342 1.5-3.004 5.651-3.852 18.624-1.666 25.473.839 2.627 1.815 6.169 2.169 7.871.885 4.251 1.041 34.409.191 37.024-.378 1.165-.217 3.357.359 4.872.779 2.049.722 3.145-.225 4.285-1.383 1.665-2.231 19.69-1.017 21.612 1.481 2.345.293 25.904-1.401 27.775-.902.997-1.316 2.493-.952 3.442.355.923.021 2.629-.74 3.791-.762 1.162-1.617 3.686-1.9 5.609-.854 5.799-3.627 14.837-6.259 20.4-1.365 2.886-2.776 6.788-3.136 8.672-.36 1.883-1.489 4.229-2.51 5.213-1.021.984-1.856 2.645-1.856 3.691 0 2.448-1.974 3.681-3.065 1.914-.614-.993-1.26-.361-2.388 2.34-1.921 4.597-1.927 5.126-.047 4.404.922-.354 1.5.002 1.5.925 0 3.093 3.124 2.722 6.821-.811 6.072-5.802 9.608-6.734 19.409-5.113 5.822.962 3.611 1.977-3.915 1.798-7.934-.189-11.097 1.099-14.882 6.062-1.469 1.926-3.15 3.501-3.737 3.501-.587 0-2.145 1.012-3.462 2.25-1.317 1.237-3.596 2.277-5.065 2.309-4.469.099-11.123 1.558-11.753 2.577-.362.586-1.168.485-2.062-.257-.943-.783-6.188-1.33-14.661-1.53-7.256-.171-16.264-.848-20.017-1.504-5.236-.916-7.578-.921-10.071-.019-4.486 1.622-5.363 1.494-6.686-.978-1.007-1.882-.928-2.065.635-1.466.982.377 2.094.188 2.47-.421.933-1.51 13.713-1.624 15.202-.135 1.671 1.671 4.453 1.452 5.167-.408 1.041-2.713.687-6.956-1.852-22.177-1.353-8.107-2.981-20.591-3.618-27.741-.676-7.58-1.909-14.876-2.958-17.5-2.186-5.468-3.271-9.52-3.614-13.5-.142-1.65-.347-3.675-.456-4.5-.108-.825.123-2.921.513-4.658.631-2.805.368-3.362-2.349-4.966-3.496-2.065-3.935-3.376-1.132-3.376 1.061 0 2.855-1.178 3.987-2.618 1.972-2.507 1.987-2.74.357-5.5-.936-1.585-2.055-2.882-2.487-2.882-1.537 0-.749-3.035 1.329-5.113 1.64-1.64 1.986-2.89 1.547-5.597-.34-2.095.053-5.033.987-7.365 1.47-3.674 1.434-4.127-.673-8.478-1.648-3.405-1.933-4.888-1.099-5.722 1.839-1.839 1.304-3.755-1.875-6.725-4.094-3.825-4.279-9.932-.378-12.488 2.394-1.569 2.567-2.121 1.993-6.365-.345-2.556-1.32-5.162-2.167-5.791-1.003-.745-1.33-1.979-.937-3.543.412-1.643-.099-3.291-1.621-5.225-1.829-2.326-2.014-3.16-1.045-4.712.92-1.472.87-2.621-.226-5.246-.863-2.066-1.066-3.893-.527-4.745 1.585-2.502 1.028-6.041-1.035-6.58-2.108-.552-3.58-5.081-2.627-8.085.319-1.004-.083-2.701-.894-3.772-1.939-2.565-1.903-5.018.124-8.45 1.657-2.805.505-8.998-1.674-8.998-2.671 0-1.4-5.925 1.826-8.512.758-.607 1.415-3.571 1.557-7.02.136-3.282.968-7.332 1.851-8.999 1.729-3.265.88-6.469-1.713-6.469-.766 0-2.073-.97-2.903-2.155-1.657-2.366-1.186-3.839 2.47-7.72 1.98-2.103 2.104-2.743 1.082-5.571-1.673-4.625-1.459-5.92 1.419-8.624 2.522-2.37 2.561-2.615 1.915-11.925-.837-12.059-1.987-16.54-4.741-18.468L38.555 127h2.283c2.231 0 2.267-.166 1.593-7.25-.38-3.988-1.066-7.978-1.525-8.869-.46-.89-.575-1.879-.257-2.197.607-.607 3.321-13.554 3.656-17.445.126-1.466.679-2.075 1.572-1.733 1.881.722 4.123-1.318 4.123-3.751 0-1.495.318-1.736 1.26-.955 2.445 2.03 8.202-.046 8.556-3.086.34-2.912 1.137-3.361 2.877-1.621.79.79 1.657.79 3.134 0 3.049-1.632 4.878-1.329 5.463.907.353 1.351 1.364 2 3.116 2 1.427 0 2.594.45 2.594 1s.689 1 1.531 1c.843 0 1.791.675 2.107 1.5.317.825 1.203 1.5 1.969 1.5S84 88.45 84 89s1.35 1 3 1c2.21 0 3 .469 3 1.781 0 .979 1.238 2.336 2.75 3.014 1.513.679 6.35 3.224 10.75 5.657 4.4 2.434 8.95 4.452 10.11 4.486 1.161.034 3.656 1.11 5.544 2.392 3.435 2.331 14.141 7.67 15.38 7.67.361 0 1.905.888 3.429 1.974 1.525 1.086 5.869 3.226 9.655 4.755 3.785 1.53 9.807 4.389 13.382 6.353 3.575 1.965 8.525 4.152 11 4.862 2.475.709 5.716 1.656 7.202 2.104 1.486.448 3.961.427 5.5-.046 8.682-2.67 22.668-4.128 25.112-2.617 2.222 1.373 1.228-2.253-1.314-4.794-1.375-1.375-2.5-3.414-2.5-4.531 0-2.851-5.28-11.106-10.475-16.375-2.715-2.755-4.806-6.016-5.493-8.567-1.662-6.17-2.803-17.142-1.845-17.734.774-.478 2.82-3.931 6.907-11.66 2.435-4.606 8.85-10.627 14.406-13.521 7.578-3.948 15.75-7.193 18.128-7.198 2.285-.005 4.78-2.264 3.697-3.347-.362-.362-.181-.658.401-.658.583 0 1.296.615 1.584 1.366.343.894 1.847 1.276 4.357 1.108 5.745-.386 12.847 3.36 21.333 11.255 4.125 3.838 8.513 7.299 9.75 7.692 1.238.392 2.25 1.31 2.25 2.039 0 .729.687 1.59 1.526 1.912.84.322 2.399 2.62 3.465 5.107 1.066 2.486 2.404 4.521 2.973 4.521.57 0 1.036.9 1.036 2 0 3.11 1.679 2.353 2.363-1.065 1.51-7.55 10.935-11.77 13.012-5.825 1.929 5.519-2.378 12.608-6.962 11.458-1.482-.372-2.413-.171-2.413.521 0 .696-.934.893-2.439.516-3.361-.844-3.88.54-2.569 6.855.84 4.05 1.494 5.291 2.568 4.879 1.758-.675 1.889.812.218 2.483-1.503 1.503-4.797 13.178-3.718 13.178.427 0 1.726 1.535 2.885 3.412 1.16 1.876 3.447 3.877 5.082 4.448 1.635.57 2.973 1.451 2.973 1.958 0 .507 2.037 1.492 4.526 2.189 2.489.697 4.765 1.656 5.059 2.13.293.475 2.369.863 4.614.863 2.49 0 4.513.591 5.191 1.515.616.841 4.667 2.196 9.11 3.046 4.4.843 8.781 1.961 9.736 2.486.955.524 2.437.953 3.292.953 3.859 0 11.383 4.652 14.126 8.735 1.565 2.33 3.746 4.515 4.846 4.856 1.1.341 4.25 2.719 7 5.286 5.078 4.739 10.304 8.123 12.544 8.123.68 0 1.833.787 2.564 1.75.811 1.069 1.341 1.263 1.36.5.018-.687.471-1.25 1.007-1.25.544 0 .717 1.29.392 2.917-.588 2.937 4.261 8.976 7.268 9.054.624.016 1.813 1.041 2.642 2.279 2.062 3.078 13.801 15.22 14.864 15.375l1.734.25c.481.069 1.146 1.48 1.477 3.136.352 1.761 1.546 3.457 2.875 4.084 1.25.591 3.623 2.774 5.273 4.851 3.089 3.89 7.6 7.054 10.058 7.054.768 0 2.13 1.121 3.028 2.491.898 1.371 1.952 2.295 2.342 2.054.39-.241 1.261 1.089 1.936 2.956.859 2.375 2.34 3.897 4.932 5.068 2.037.92 5.345 3.8 7.35 6.4 3.312 4.294 4.138 4.794 9 5.453 2.945.399 6.254.905 7.354 1.125 8.878 1.771 10.838 1.776 10.166.025-.366-.954-.666-2.096-.666-2.537 0-.441-.9-1.037-2-1.325-1.1-.287-2-1.001-2-1.585 0-.584.675-.803 1.5-.487.825.317 1.5.078 1.5-.531s-.44-1.107-.979-1.107c-.586 0-.504-1.04.203-2.593 1.037-2.275.906-2.8-1.066-4.288-2.402-1.812-1.98-3.119 1.009-3.119 2.187 0 2.699-8.734.633-10.8-.933-.933-.822-1.2.5-1.2.935 0 1.7-.45 1.7-1 0-.994-1.362-1.385-3.75-1.075-.687.09-1.25-.307-1.25-.881 0-.574.45-1.044 1-1.044 1.942 0 5-4.033 5-6.594 0-1.752-.649-2.763-2-3.116-1.276-.334-2-1.364-2-2.848 0-1.278-.39-2.565-.866-2.859-.476-.294-.64-1.719-.363-3.166.311-1.626-.026-2.959-.884-3.493-1.13-.703-1.155-1.237-.137-2.88 1.584-2.557 1.616-3.81.057-2.251-.924.924-1.713.704-3.5-.974-1.269-1.192-2.307-1.694-2.307-1.115 0 1.889-5.797 3.709-7.448 2.339-1.523-1.264-8.552-2.206-8.552-1.147 0 .339.5 2.189 1.11 4.111.611 1.921 1.236 6.248 1.39 9.616.153 3.368.876 7.776 1.606 9.795 1.711 4.73.478 6.788-4.706 7.862-2.145.443-5.556 1.299-7.58 1.9-3.435 1.021-3.856.901-6.308-1.793-5.086-5.587-5.8-8.618-3.544-15.036 1.828-5.202 1.857-5.758.359-6.854-1.771-1.295-.203-3.156 1.68-1.993 1.499.927 2.299-2.062 1.578-5.901-.676-3.605-3.332-5.169-5.265-3.1-1.305 1.396-.553 2.872 1.93 3.789 2.198.811 2.262 2.574.122 3.395-1.02.392-2.234-.172-3.25-1.509-1.109-1.46-2.296-1.956-3.755-1.57-1.173.31-3.648-.227-5.5-1.195-1.852-.968-4.866-1.665-6.699-1.549-2.089.131-3.092-.177-2.691-.827 1.099-1.777-.481-3.278-2.066-1.963-1.079.896-1.411.893-1.411-.011 0-.649-.5-.872-1.112-.494-.611.378-1.402.218-1.756-.356-.427-.69-1.301-.562-2.585.376-1.505 1.101-1.672 1.686-.743 2.615 1.637 1.637 1.501 2.796-.329 2.796-.838 0-1.952-1.125-2.475-2.5-.523-1.375-1.412-2.5-1.975-2.5-1.939 0-1.075-4.174.975-4.71 1.1-.288 2-.969 2-1.514 0-.544.645-.743 1.433-.44.982.377 1.643-.406 2.1-2.486.485-2.207 1.594-3.423 4.067-4.456 3.709-1.55 4.399-3.052 1.65-3.59-1.026-.2-3.238 1.218-5.345 3.427-3.552 3.723-6.203 4.715-7.405 2.769-.92-1.488-3.5-1.209-3.5.378 0 .757-.666 1.93-1.48 2.605-1.284 1.066-1.184 1.469.75 3.037 2.862 2.32 1.521 3.741-1.835 1.945-1.717-.918-2.406-1.97-2.088-3.186.261-.998-.16-2.449-.936-3.225-1.812-1.812-1.786-2.554.089-2.554.825 0 1.5-.661 1.5-1.469 0-.894-.586-1.243-1.5-.893-.825.317-1.5.078-1.5-.531s.405-1.107.901-1.107.858-1.51.806-3.357c-.052-1.846-.57-3.308-1.151-3.25-.581.059-1.2-.343-1.377-.893-.526-1.637-3.089-2.663-5.075-2.033-2.087.662-3.067-1.649-3.09-7.288-.012-2.713 5.861-16.747 11.053-26.415.513-.955.933-2.38.933-3.167 0-.787.522-1.604 1.159-1.817 2.007-.669-4.865-6.78-7.625-6.78-2.996 0-3.221-1.068-.705-3.345 2.277-2.061 5.531-2.131 7.171-.155 1.833 2.209 2.384 1.97 7.94-3.441l5.073-4.942-2.506-2.704c-1.379-1.488-2.519-3.202-2.534-3.809-.015-.607-1.603 1.446-3.529 4.563-3.069 4.965-3.995 5.75-7.468 6.337-2.181.369-4.224 1.089-4.541 1.601-.316.512-1.851.023-3.41-1.087-1.558-1.11-3.132-2.018-3.497-2.018-1.262 0 .767 4.506 2.615 5.807 3.721 2.618-.266 4.717-4.143 2.181-1.155-.755-2.535.127-6 3.836-8.754 9.369-21.385 16.702-26.44 15.351-3.607-.965-5.69-3.839-3.687-5.088.89-.556 1.227-2.101.959-4.398-.39-3.344-.059-3.81 5.95-8.365 3.499-2.653 8.799-6.736 11.776-9.074 2.978-2.337 5.84-4.25 6.36-4.25.521 0 1.242-.927 1.601-2.06.54-1.701 1.181-1.945 3.675-1.397 2.632.578 2.899.446 2.076-1.025-.72-1.287-.258-2.377 1.942-4.576 2.488-2.489 2.728-3.186 1.73-5.05-1.068-1.996-.965-2.115 1.336-1.537 1.661.417 2.93.1 3.801-.951.72-.867 3.259-2.493 5.643-3.613 3.648-1.715 4.227-2.375 3.656-4.164-.86-2.693-.744-14.228.181-17.947.695-2.797.671-2.814-3.058-2.114-5.998 1.125-3.909-1.525 3.339-4.235 7.01-2.622 10.41-4.556 14.41-8.2 3.144-2.864 3.531-4.352 1.022-3.925-.95.162-1.793-.268-1.875-.956-.081-.687-.203-1.651-.272-2.141-.069-.489-1.587-1.096-3.375-1.347-1.788-.252-3.925-.715-4.75-1.03-.825-.316-2.175-.312-3 .008m72 17.503c0 .519.858 1.169 1.908 1.443 1.049.274 2.14 1.391 2.425 2.481.285 1.09 1.436 2.221 2.558 2.515 4.756 1.243 1.409 12.48-3.44 11.553-2.531-.483-2.635-.349-1.992 2.581.432 1.966.13 4.289-.831 6.387-1.888 4.124-2.222 6.671-1.252 9.547 1.324 3.925 2.938 2.612 2.23-1.815-1.122-7.011 5.214-13.44 10.157-10.307 2.08 1.319 2.333 1.251 3.135-.847.48-1.254 1.824-3.138 2.987-4.186C473.368 59.359 473.6 58 471.5 58c-.859 0-1.5-.901-1.5-2.107 0-1.535-.442-1.938-1.627-1.483-1.98.76-4.373-1.051-4.373-3.31 0-.911-.9-2.426-2-3.368-1.1-.942-2-2.282-2-2.978 0-.695-1.575-1.758-3.5-2.36-2.089-.654-3.5-.715-3.5-.151m-93 8.198c0 .793.476 1.735 1.058 2.095 1.249.772-7.176 9.049-10.18 10.003-1.15.365-2.745.045-3.7-.742-4.59-3.783-6.955-4.247-14.477-2.841-3.961.74-8.551 1.416-10.201 1.501-1.65.085-4.35.704-6 1.376-1.65.671-4.35 1.755-6 2.409-14.588 5.777-15.555 14.365-1.596 14.162 6.29-.091 19.476-2.788 21.596-4.418.55-.422 4.6-1.548 9-2.502 4.4-.954 8.675-2.267 9.5-2.919 2.057-1.625 6.08-1.174 7.187.805.502.897 1.565 1.63 2.363 1.63.797 0 1.45.45 1.45 1 0 1.994 5.137.955 7.412-1.5 1.275-1.375 3.001-2.5 3.836-2.5 2.241 0 2.774-4.683.83-7.283-.912-1.219-2.187-3.442-2.834-4.939-.667-1.544-2.273-2.998-3.71-3.359-1.394-.35-2.534-1.262-2.534-2.027 0-.766-.675-1.392-1.5-1.392s-1.5.648-1.5 1.441M212.2 66.2c-.66.66-1.2 1.637-1.2 2.171 0 .534-.592 1.682-1.316 2.55-2.06 2.471-5.9 15.292-5.523 18.442l.339 2.84 2.322-3.159c1.277-1.737 2.558-4.82 2.846-6.851.595-4.205 2.751-9.463 5.473-13.347 1.022-1.46 1.859-2.923 1.859-3.25 0-1.074-3.572-.624-4.8.604m185.685 6.55c-.554 3.606 2.703 11.25 4.793 11.25.672 0 1.666.787 2.207 1.75.814 1.446 2.238 1.716 8.198 1.552 6.551-.181 12.369-2.1 7.367-2.431-5.491-.363-7.255-.733-10.668-2.235-2.045-.9-4.685-1.636-5.867-1.636-1.656 0-2.028-.458-1.625-1.999.64-2.45-1.33-6.983-3.04-6.993-.687-.004-1.302.33-1.365.742m-165.739 5.792c-1.17 1.487-2.305 4.951-2.706 8.26-.762 6.285-1.675 8.584-4.748 11.958-1.591 1.746-2.107 3.791-2.268 9-.116 3.707-.258 8.203-.317 9.99-.074 2.244-.594 3.25-1.68 3.25-2.716 0-1.111 3.301 2.073 4.262 5.105 1.541 10.806.919 12.745-1.391 2.166-2.582 1.454-3.895-2.054-3.792-1.48.043-2.128.306-1.441.583.688.278 1.25.917 1.25 1.421 0 1.091-4.017 1.199-5.637.152-1.42-.918-1.647-19.836-.27-22.41C228.258 97.649 233.12 95 235.95 95c2.788 0 2.613-2.781-.2-3.18-2.443-.347-3.865-7.679-1.966-10.144 1.543-2.003 2.171-4.586 1.252-5.154-.482-.297-1.782.611-2.89 2.02M457 84.486c0 1.028-1.371 3.026-3.047 4.441l-3.048 2.573 2.097 4.305c2.484 5.098 2.055 7.098-2.017 9.408-1.661.943-3.31 2.518-3.665 3.5-1.314 3.637-4.514 7.287-6.388 7.287-2.399 0-2.46-.875-.182-2.621 1.367-1.048 1.469-1.527.466-2.19-.706-.467-1.018-1.542-.692-2.39.352-.918-.08-1.798-1.07-2.178-.914-.351-1.424-1.257-1.133-2.015.29-.757-.152-2.347-.983-3.534-1.208-1.724-1.264-2.456-.282-3.639 1.856-2.237.788-2.541-5.045-1.435-8.032 1.523-9.375 3.408-6.902 9.687 1.06 2.692 1.15 2.725 2.068.753.567-1.217 2.621-2.505 5.013-3.143l4.053-1.082-.603 4.394c-.486 3.549-.306 4.393.938 4.393.847 0 1.262.45.922 1-.34.55-1.293 1-2.118 1s-1.211-.468-.857-1.04c.422-.684-.329-.802-2.191-.345-1.559.382-2.976 1.05-3.149 1.484-.173.434-.96.541-1.75.238-1.789-.687-1.919 2.008-.185 3.842.688.726 1.235 2.817 1.217 4.646-.018 1.829.245 3.497.586 3.708.341.21.698 2.458.794 4.995.096 2.537.781 5.819 1.523 7.292.742 1.474 1.634 3.868 1.981 5.319.426 1.781 1.53 2.874 3.39 3.358 2.628.684 2.658.757.627 1.535-2.903 1.112-3.686 7.251-1.196 9.383 1.03.882 2.005 1.108 2.352.546.885-1.432 2.285-1.161 2.653.513.719 3.276 3.128-.367 3.225-4.877.054-2.528.435-4.597.848-4.597s.75.354.75.787c0 .433 1.455.898 3.234 1.034 2.564.195 2.978-.009 2-.987-2.058-2.058-1.436-3.828 1.266-3.605 2.437.202 3.408 2.526 1.75 4.191-.413.414-.75 2.177-.75 3.917 0 2.706-.47 3.301-3.25 4.12-2.209.65-3.25 1.573-3.25 2.881 0 1.64-.516 1.84-3.5 1.356-3.555-.577-4.832.581-1.887 1.711 1.311.503 1.38.899.368 2.118-1.097 1.322-1.403 1.291-2.581-.262-1.157-1.525-1.341-1.547-1.368-.166-.018.877.857 2.399 1.943 3.382 1.913 1.732 2.006 1.704 3-.91.564-1.484 1.025-3.118 1.025-3.632 0-.514.92-.935 2.045-.935s3.171-1.125 4.546-2.5c1.375-1.375 2.914-2.5 3.419-2.5.506 0 1.453-1.012 2.105-2.25 1.814-3.445 4.885-5.037 4.885-2.532 0 .67-1.195 2.245-2.656 3.5-1.46 1.255-2.135 2.282-1.5 2.282.636 0 1.156.498 1.156 1.107s-.638.862-1.417.563c-.78-.299-1.672.12-1.983.931a1.588 1.588 0 00.917 2.044c.816.313 1.487 1.083 1.491 1.712.007 1 4.974 4.014 5.574 3.383.282-.297.674-5.877.509-7.24-.067-.55-.54-.338-1.052.471-.512.809-1.252 1.149-1.645.756s-.027-1.505.815-2.471c.842-.966 1.326-2.318 1.077-3.006-.249-.687.212-1.25 1.025-1.25.949 0 1.426-.897 1.333-2.51-.087-1.523-.623-2.327-1.362-2.044-1.99.762-2.476-1.238-.561-2.31 2.24-1.253 1.004-2.531-2.508-2.59-2.238-.038-2.771-.554-3.044-2.949-.434-3.804-2.293-5.76-3.871-4.071-.772.827-.816 1.556-.135 2.237.682.682.679 1.216-.007 1.64-1.346.833-2.583-1.244-2.771-4.653-.091-1.656.362-2.75 1.138-2.75 2.164 0 .424-4.07-2.16-5.052-2.619-.996-2.938-1.973-1.209-3.702 1.445-1.445 1.343-6.632-.204-10.368-2.062-4.976-.601-7.716 4.305-8.071 3.673-.266 4.234-.61 4.166-2.557-.062-1.739.473-2.25 2.357-2.25 1.81 0 2.28-.406 1.829-1.582-.334-.87-.607-1.77-.607-2 0-.23-.675-.418-1.5-.418s-1.5-.675-1.5-1.5.675-1.5 1.5-1.5 1.5-.605 1.5-1.345.889-2.15 1.976-3.134c2.499-2.261 1.672-3.722-1.636-2.891-2.112.53-2.476.32-2.171-1.247.229-1.177 1.223-1.893 2.652-1.909 1.256-.015 2.704-.69 3.216-1.5 1.682-2.659 1.009-3.234-1.704-1.457-2.548 1.67-2.726 1.666-4-.076-1.286-1.759-1.333-1.757-1.333.045m-56.118 16.705c-.066.72-.049 1.697.037 2.171.086.475-.55 1.379-1.412 2.01-.866.633-1.443 2.246-1.288 3.6.232 2.027-.241 2.549-2.719 3.001-3.199.583-3.345.959-2.067 5.35.527 1.814.418 3.226-.306 3.95-1.737 1.737-1.336 3.727.751 3.727 2.252 0 4.553-2.494 3.649-3.956-.362-.585.189-1.044 1.253-1.044 2.203 0 4.832 4.629 2.98 5.247-.781.26-.653 1.068.412 2.587 1.361 1.945 1.698 2.027 2.81.688.942-1.136.961-1.522.073-1.522-.735 0-.947-.765-.555-2 .38-1.198.18-2-.5-2-.684 0-.88-.804-.492-2.025.353-1.114.271-1.961-.183-1.882-3.863.672-4.32-1.399-1.075-4.873 2.044-2.188 2.076-2.377.354-2.064-1.043.189-2.114-.281-2.38-1.045-.295-.847-.042-1.117.646-.691.622.384 1.693.346 2.38-.085.688-.43 1.7-.82 2.25-.866 3.724-.311 6.46-4.469 2.941-4.469-.857 0-1.323-.382-1.034-.849.443-.717-.936-1.671-5.657-3.913-.413-.196-.803.233-.868.953M180.5 105.003c-1.1.478-5.258 1.834-9.241 3.013-3.982 1.18-7.496 2.559-7.809 3.064-.867 1.404-4.059 1.096-5.401-.521-.993-1.197-.588-1.555 2.389-2.113 1.971-.37 3.874-1.143 4.229-1.717.892-1.443-7.464-.234-10.977 1.588-3.01 1.562-2.785 1.885 3.542 5.089 3.005 1.521 3.626 2.313 3.186 4.066-.679 2.705 1.963 5.284 3.832 3.74.688-.568 3.05-1.367 5.25-1.775 3.791-.704 7.536-2.266 15.5-6.467 7.295-3.847 3.104-11.267-4.5-7.967m287.204 1.423c-.989.749-2.676 1.133-3.75.852-1.484-.388-1.954-.002-1.954 1.605 0 2.325-1.007 2.71-2.687 1.03-.783-.783-1.275-.783-1.759 0-.37.598-.227 1.087.316 1.087s1.687 2.404 2.541 5.342c.854 2.939 2.461 6.497 3.571 7.908 1.11 1.411 2.018 2.988 2.018 3.504 0 2.163 3.372 7.63 3.829 6.208.259-.804.887-1.734 1.395-2.067.508-.332.216-1.313-.65-2.178-1.952-1.952-2.043-5.35-.172-6.417 2.596-1.482 2.538-10.598-.061-9.601-1.451.557-1.579.051-1.019-4.031.352-2.567.536-4.654.409-4.636-.127.017-1.039.645-2.027 1.394m-60.107 11.183c-.332.864-.309 2.048.051 2.63.36.583.818 2.877 1.018 5.098.2 2.221 1.145 4.93 2.099 6.02 1.63 1.862 1.631 1.944.016 1.356-.946-.345-2.971.026-4.5.824-1.53.798-2.556 1.484-2.281 1.526.275.041 1.787.243 3.36.449 4.045.53 4.235 1.032 1.989 5.244-2.146 4.022-4.736 4.552-7.12 1.455-1.076-1.397-.947-1.771.842-2.433 1.163-.43 2.522-.529 3.021-.221.5.309.908.133.908-.39 0-1.173-4.734-2.449-6.055-1.633-.53.328-1.711-.707-2.625-2.299-1.609-2.804-1.718-2.837-3.49-1.065-1.007 1.007-2.73 1.83-3.83 1.83-2.252 0-2.565 1.035-.835 2.765.887.887 1.445.783 2.337-.437.92-1.258 1.786-1.399 4.023-.653 3.145 1.048 4.555 3.325 2.058 3.325-.871 0-1.583.394-1.583.875s-1.382 1.151-3.071 1.489c-2.52.504-2.956.976-2.431 2.63.454 1.43.111 2.188-1.179 2.608-3.282 1.067-8.319 3.838-8.319 4.576 0 .397.742 1.138 1.65 1.646 1.046.585 1.452 1.679 1.109 2.99-.421 1.609.1 2.29 2.35 3.074 2.321.809 2.891.722 2.891-.44 0-.796.45-1.448 1-1.448s1-.675 1-1.5.845-1.5 1.878-1.5c1.032 0 2.437-.675 3.122-1.5s2.54-1.5 4.122-1.5c1.769 0 2.782-.482 2.628-1.25-.159-.796.93-1.246 3-1.24 1.952.005 3.25-.494 3.25-1.25 0-.693-.955-1.26-2.122-1.26-1.774 0-1.918-.247-.878-1.5 1.782-2.147 3.935-1.851 4.868.671.532 1.438 1.047 1.776 1.526 1 .398-.644 1.892-1.171 3.32-1.171 2.452 0 2.504.102.941 1.829-2.337 2.582-2.075 4.37.585 3.991 3.286-.469 3.246-2.877-.178-10.679-1.684-3.837-3.062-8.154-3.062-9.594 0-1.439-.71-3.702-1.579-5.027-.868-1.325-1.493-3.447-1.389-4.715.318-3.872.042-4.695-1.932-5.752-1.457-.779-2.041-.65-2.503.556m20.579 38.615c-1.678 1.678-1.454 2.771.574 2.806 1.662.029 1.661.082-.008 1.055-.967.563-2.235.729-2.817.369-.583-.361-1.307.29-1.609 1.445-.303 1.161-1.361 2.101-2.363 2.101-1.12 0-1.936.861-2.133 2.25-.209 1.466-1.124 2.364-2.629 2.577-4.297.609-2.58 5.599 2.059 5.983 2.864.237 3.75-.058 3.75-1.25 0-.858.675-1.56 1.5-1.56 2.061 0 1.891-2.673-.25-3.92-.962-.561-1.219-1.033-.57-1.05.65-.016 1.325-1.042 1.5-2.28.371-2.607 5.002-3.674 7.38-1.7 1.153.956 1.44.871 1.44-.428 0-.892.675-1.622 1.5-1.622s1.5-.445 1.5-.988c0-.544-1.012-.881-2.25-.75-1.755.186-2.174-.202-1.905-1.762.19-1.1.006-1.666-.408-1.259-.414.408-1.278.306-1.919-.226-.764-.634-1.571-.562-2.342.209M299.279 192.25c-3.189 2.248-5.577 6.698-12.204 22.75-4.723 11.438-7.507 14-15.213 14C265.1 229 254 222.17 254 218.009c0-1.535-3.593-1.204-4.972.457-1.59 1.916-1.336 2.443 3.886 8.08l4.414 4.765 9.586.651c6.722.457 10.507.278 12.669-.599 3.366-1.365 10.417-8.586 10.417-10.669 0-.715 1.775-6.189 3.944-12.165 3.988-10.987 7.215-15.409 11.306-15.493.962-.02 1.75-.711 1.75-1.536 0-2.235-4.042-1.842-7.721.75m-22.98 17.18c-.44.787-1.7 1.35-2.8 1.25-1.157-.104-1.89.358-1.74 1.098.143.703-.42 1.538-1.25 1.857-4.135 1.587 1.109 11.365 6.096 11.365 5.167 0 6.156-6.847 1.395-9.659-3.472-2.051-3.858-3.341-1-3.341 1.333 0 2-.667 2-2 0-2.322-1.539-2.646-2.701-.57m-21.361 76.239c-5.085 2.469-9.608 3.851-14.299 4.368-7.307.805-11.046 2.956-8.889 5.113.887.887 1.531.862 2.695-.104.873-.725 2.581-1.005 3.981-.654 1.348.338 2.731.164 3.072-.388.341-.552 1.966-1.004 3.611-1.004 3.144 0 7.771-2.02 11.776-5.141 1.468-1.145 4.014-1.859 6.625-1.859 6.195 0 10.283-1.018 10.937-2.723.463-1.206.035-1.355-2.186-.763-3.52.94-4.246.958-7.341.181-1.815-.456-4.674.396-9.982 2.974m-7.344 14.227c-.877.969-1.594 2.384-1.594 3.145 0 .761-1.238 2.373-2.75 3.582-3.192 2.551-2.403 4.223 1.216 2.575 2.05-.935 2.648-.834 3.492.587.927 1.563 1.186 1.5 2.911-.703 1.674-2.138 2.597-2.393 7.941-2.201 5.55.201 6.32-.039 9.368-2.923 2.308-2.183 2.711-2.924 1.322-2.429-5.18 1.847-11.629 1.751-14.323-.212-4.166-3.038-5.837-3.351-7.583-1.421m-76.935.854c-.253.413-.783 3.45-1.179 6.75-.395 3.3-1.378 6.753-2.184 7.672-1.748 1.995-3.142 10.469-1.562 9.492.572-.353 1.336-2.222 1.698-4.153.782-4.167 1.818-4.451 3.42-.937 3.92 8.603 3.235 21.198-1.544 28.408-1.269 1.915-2.308 3.985-2.308 4.6 0 .615-1.266 2.873-2.813 5.018-1.547 2.145-4.132 6.257-5.745 9.137-1.614 2.881-3.386 5.19-3.938 5.132-2.483-.262-3.504.249-3.504 1.753 0 1.329.271 1.398 1.5.378 1.947-1.616 1.901-1.129-.589 6.263-5.225 15.512-7.136 25.107-7.491 37.62-.28 9.892-.692 12.76-2.046 14.256-.932 1.03-1.412 2.156-1.066 2.503 1.228 1.227 5.882-2.852 7.38-6.47.836-2.02 2.346-4.451 3.354-5.403 1.009-.952 4.836-6.038 8.506-11.301C168.907 399.479 186.529 383 190.991 383c1.563 0 2.992-.354 3.176-.787.183-.433 2.438-2.008 5.011-3.5 4.22-2.447 5.64-2.714 14.5-2.719 5.402-.003 11.526-.478 13.609-1.057 2.084-.578 8.159-1.363 13.5-1.744 7.659-.547 9.713-1.01 9.713-2.193 0-1.106-.986-1.442-3.75-1.28-3.951.232-4.719-.671-2.288-2.689 2.223-1.844 5.518-11.53 5.545-16.296.014-2.329.045-6.71.069-9.735.025-3.025.468-5.928.984-6.45 1.195-1.207 1.229-4.55.047-4.55-.491 0-1.152.675-1.469 1.5-.316.825-1.264 1.5-2.107 1.5-1.286 0-1.531 1.836-1.531 11.462 0 12.242-2.012 20.429-5.882 23.931-1.974 1.787-16.204 4-24.118 3.751-11.089-.35-14.382-1.231-17.748-4.749-1.786-1.867-3.699-3.395-4.25-3.395-.551 0-1.002-.619-1.002-1.375s-1.353-1.646-3.007-1.976c-2.113-.423-3.822-1.877-5.75-4.892-1.509-2.359-4.037-5.974-5.618-8.032-1.889-2.458-2.778-4.682-2.591-6.483 1.048-10.122.316-19.897-1.79-23.896-1.858-3.53-2.094-5.145-1.571-10.75.559-5.982-.338-8.584-2.014-5.846m89.091 32.33c-.962.561-1.75 2.177-1.75 3.592 0 2.174-.233 2.38-1.5 1.328-1.225-1.017-1.5-.957-1.5.328 0 .865-.582 1.932-1.294 2.372-1.405.869-.873 17.616.637 20.05 1.837 2.962 3.579 1.395 6.392-5.75.705-1.789 1.488-23.235.839-22.97-.041.017-.862.489-1.824 1.05m94.644 16.335c-.424 1.105-1.903 1.585-4.886 1.585-5.987 0-8.395 3.377-5.884 8.252 2.819 5.474 6.607 9.873 8.031 9.327.74-.284 1.345-.118 1.345.369s-.452 1.036-1.005 1.22c-.553.185 1.522 4.109 4.61 8.722 3.089 4.613 6.62 10.556 7.849 13.207 1.228 2.652 2.815 5.522 3.526 6.379 1.483 1.787 8.641 22.524 9.328 27.024.597 3.909 4.049 14.116 6.173 18.256.92 1.791 2.095 6.066 2.613 9.5 1.44 9.561 2.396 13.241 3.447 13.276.527.017 3.332 1.242 6.232 2.72 3.661 1.867 6.146 2.514 8.128 2.118 1.809-.362 4.589.196 7.586 1.521 2.602 1.151 5.072 1.882 5.489 1.624.418-.258 4.306.22 8.642 1.062 4.335.843 9.339 1.729 11.121 1.97 1.781.241 5.156.88 7.5 1.421 5.857 1.351 5.761 1.382 5.761-1.846 0-1.582.67-3.433 1.489-4.113.819-.68 1.255-1.615.968-2.079-.839-1.357-3.098-.013-4.259 2.535-.997 2.189-1.358 2.282-5.135 1.323-2.479-.629-4.063-1.614-4.063-2.526 0-1.003.659-1.323 2-.972 1.199.313 2 .03 2-.707 0-.716-2.571-1.708-6.152-2.374-3.383-.629-7.771-2.21-9.75-3.514-1.979-1.303-4.786-2.664-6.238-3.024-4.237-1.05-4.744-4.059-.551-3.273 3.796.712 5.189-.093 3.56-2.056-.897-1.081-.408-1.342 2.509-1.342 1.992 0 3.622.499 3.622 1.108 0 .675.952.87 2.432.498 1.941-.487 2.559-.156 3.063 1.642 1.472 5.254 2.544 6.4 5.576 5.955 3.411-.501 3.756-1.69.929-3.203-2.675-1.432-2.538-2.212 1.064-6.069 2.607-2.79 2.831-3.41 1.5-4.155-1.818-1.018-2.083-4.337-.427-5.361.636-.392 1.927.344 2.925 1.668l1.789 2.37 2.538-2.739c1.422-1.534 2.287-3.394 1.968-4.226-.314-.819-.046-1.488.595-1.488s.874-.472.518-1.049c-.441-.713-1.113-.662-2.101.158-1.101.914-1.735.925-2.611.049-.637-.637-.743-1.158-.235-1.158.507 0-.079-.701-1.302-1.558-1.224-.857-2.674-1.28-3.223-.941-.549.339-.998-.085-.998-.942 0-1.633.33-1.739 6-1.937 3.402-.119 3.491-.225 3.182-3.781-.354-4.079 2.064-7.841 5.04-7.841.978 0 1.778-.731 1.778-1.625 0-1.306-.637-1.491-3.25-.944-1.788.374-9.1.641-16.25.593-7.15-.048-16.664-.064-21.143-.034-7.858.051-8.232-.053-10.681-2.963-5.298-6.297-3.636-11.027 3.876-11.027 1.831 0 3.608-.45 3.948-1 .34-.55 1.702-1 3.028-1 1.653 0 2.241-.439 1.872-1.399-.295-.769.03-1.749.723-2.177.716-.442 1.428-.27 1.651.399.529 1.586 3.226 1.506 3.226-.096 0-.818 1.429-1.272 4-1.272 4.43 0 5.279 1.617 1.75 3.335-2.019.983-1.866 1.075 1.498.902 2.228-.114 3.749-.699 3.75-1.442.002-1.508.164-1.519 3.493-.253 1.968.748 3.373.607 5.637-.563 2.337-1.209 3.334-1.295 4.431-.385 2.198 1.824 4.441.359 4.441-2.901 0-3.225 3.315-4.961 5.698-2.984 1.011.839 1.302.518 1.302-1.435 0-1.383.675-2.774 1.5-3.091 2.012-.772 1.913-4.266-.143-5.055-.904-.346-1.365-.909-1.024-1.249.34-.34 1.279-.071 2.086.599 1.202.997 1.448.887 1.36-.607-.06-1.004.208-3.203.594-4.887 1.058-4.608-1.791-6.716-8.99-6.652-3.118.028-6.392-.324-7.276-.784-5.093-2.646-8.978-3.849-10.851-3.36-1.366.357-2.931-.194-4.379-1.543-1.24-1.155-3.182-2.11-4.316-2.122-1.133-.012-3.186-.902-4.561-1.978s-3.062-1.966-3.75-1.978c-.687-.012-1.25-.375-1.25-.806 0-.77-5.533-4.396-7.5-4.916-5.854-1.547-6.525-1.528-5.874.169.519 1.352.174 1.637-1.657 1.369-3.097-.453-3.821-2.838-.861-2.838 2.214 0 2.223-.039.333-1.468-2.57-1.944-6.441-1.963-6.441-.032 0 .825-.608 1.5-1.352 1.5-.974 0-1.528 2.285-1.982 8.18-.375 4.864-1.145 8.517-1.899 9.01-1.139.746-5.671.24-6.654-.744-.498-.498-3.061-9.758-4.089-14.776-1.191-5.812-1.693-5.975-11.869-3.86l-9.152 1.903-4-2.942c-3.377-2.484-4.095-2.695-4.609-1.356m-98.73 18.335c-1.363 2.251 1.491 12.844 3.973 14.75 4.671 3.586 13.332 12.963 13.391 14.5.032.825 1.135 3.3 2.451 5.5 7.051 11.787 7.617 13.5 4.462 13.5-1.172 0-1.782.448-1.416 1.041.354.572 1.441.787 2.416.478 1.202-.382 2.917.651 5.328 3.209 7.285 7.73 15.619 15.948 22.002 21.698 3.619 3.259 7.15 6.991 7.847 8.294.697 1.303 2.754 3.074 4.57 3.936 3.087 1.465 10.312 11.41 10.312 14.194 0 .599.922 2.731 2.049 4.737 1.127 2.007 1.804 3.894 1.504 4.194-.874.873-25.272.166-31.434-.911-7.99-1.397-17.332-1.758-19.291-.747-.919.475-4.516.928-7.993 1.007-6.896.155-10.835 1.968-10.835 4.985 0 2.764 3.587 5.885 6.765 5.885 1.52 0 4.444.9 6.496 2 4.519 2.422 6.863 2.504 10.958.387 2.654-1.373 5.594-1.524 19.7-1.015 9.12.33 20.421.578 25.114.552l8.533-.047 3.217 4.003c1.769 2.201 3.217 4.763 3.217 5.693 0 .93.851 3.094 1.892 4.809 1.041 1.715 2.216 4.693 2.611 6.618.396 1.925 1.267 4.175 1.936 5 .669.825 1.783 3.525 2.476 6 .693 2.475 2.346 6.469 3.672 8.876 1.327 2.407 2.413 5.389 2.413 6.628 0 1.238.631 2.775 1.402 3.415.771.639 1.679 2.27 2.019 3.622.354 1.409 1.356 2.471 2.348 2.486 1.61.025 9.231 6.285 9.231 7.582 0 .32 1.012 2.002 2.248 3.737 1.237 1.735 2.251 3.379 2.253 3.654.003.275 1.916 2.467 4.252 4.871 2.336 2.403 4.247 4.755 4.247 5.225 0 .47 1.994 1.762 4.43 2.872 2.67 1.217 4.71 2.915 5.132 4.275 1.171 3.765 7.539 12.757 9.035 12.757 1.745 0 1.898-5.105.203-6.8-.933-.933-.933-1.467 0-2.4 1.672-1.672 1.496-2.8-.435-2.8-2.646 0-6.457-4.785-5.823-7.311.349-1.393-.558-4.212-2.477-7.694-1.666-3.022-3.037-6.426-3.047-7.565-.01-1.138-1.143-3.048-2.518-4.243-1.375-1.196-2.51-2.964-2.521-3.93-.012-.967-1.777-2.999-3.923-4.516-2.418-1.71-4.142-3.857-4.535-5.646-.711-3.238-2.503-5.085-7.276-7.503-3.483-1.764-8.245-8.352-8.245-11.405 0-1.02-.337-2.191-.75-2.604-.413-.412-.776-1.05-.807-1.416-.032-.367-1.501-3.78-3.264-7.586-1.764-3.805-2.962-7.691-2.662-8.635.359-1.132-.573-2.656-2.736-4.475-3.887-3.269-7.781-9.753-7.781-12.956 0-1.47-.74-2.475-2.079-2.825-1.504-.394-1.982-1.187-1.728-2.867.212-1.401-1.145-4.81-3.421-8.591-2.074-3.447-3.772-6.64-3.772-7.096 0-1.741-3.283-7.307-4.61-7.817-.764-.293-1.39-1.134-1.39-1.869 0-.735-.857-1.937-1.905-2.671-1.048-.734-2.916-3.415-4.151-5.957-1.415-2.913-3.578-5.401-5.845-6.726-6.43-3.756-30.544-31.427-32.008-36.729-.554-2.007-1.87-4.598-2.923-5.758-1.054-1.16-3.137-4.359-4.629-7.109-3.286-6.057-10.507-13.726-12.282-13.045-1.201.461-6.176-1.893-10.73-5.076-2.179-1.524-4.166-1.781-4.863-.629m140.068 12.851c-.594.594-1.578.757-13.125 2.175-7.705.947-8.89 2.675-5.175 7.546 3.584 4.698 4.2 4.842 20.872 4.874 9.492.018 14.439.404 14.931 1.165.537.834.738.818.75-.06.022-1.763 24.991-.406 30.397 1.652 1.585.604 3.671.847 4.636.541 2.153-.683 6.982-7.469 6.982-9.811 0-.941.563-2.618 1.25-3.727 1.459-2.354-.742-4.622-2.816-2.901-.718.596-2.776.445-5.623-.411-3.512-1.057-4.847-1.09-6.129-.153-1.1.804-3.209.957-6.411.465-2.709-.417-5.561-.317-6.599.232-2.524 1.333-24.082.661-28.535-.891-4.19-1.46-4.59-1.511-5.405-.696m-201.861 11.666c-1.025.804-1.651 2.843-1.687 5.503-.077 5.579 1.578 6.392 13.719 6.736 5.278.15 19.144.814 30.812 1.476 20.914 1.187 21.257 1.174 24.162-.895 2.487-1.771 2.833-2.526 2.218-4.842-.675-2.541-1.208-2.791-7.162-3.359-3.538-.338-9.133-1.155-12.433-1.815-3.3-.66-11.625-1.414-18.5-1.674-6.875-.261-13.625-.834-15-1.273-4.186-1.336-14.356-1.246-16.129.143m-25.235 24.143c-4.583 6.009 1.328 11.155 12.364 10.765 3.614-.127 7.729.594 12 2.104 7.927 2.803 42.233 3.432 45.366.832 3.992-3.313.66-8.046-6.581-9.351-2.907-.523-6.41-1.153-7.785-1.399-1.375-.247-7.411-.885-13.413-1.418-6.002-.533-11.463-1.425-12.134-1.982-.672-.558-3.636-.983-6.587-.945-6.045.077-11.669-.407-16.938-1.459-3.279-.654-3.795-.42-6.292 2.853m87.05 5.641c-3.564 2.201-3.717 5.199-.415 8.17 3.278 2.949 9.088 5.293 10.68 4.309 1.189-.735 17.894 1.355 20.103 2.515 2.414 1.267 4.048-.39 4.626-4.692.675-5.035-.609-6.117-8.819-7.434-3.499-.561-7.106-1.425-8.017-1.919-2.762-1.5-16.134-2.199-18.158-.949m186.314.68c-5.682 1.043-7.836 7.02-3.544 9.832 2.799 1.834 4.544 1.211 4.544-1.622 0-1.068.45-1.941 1-1.941s1 .45 1 1 1.575 1 3.5 1c3.799 0 4.544-1.516 1.75-3.559-.962-.704-1.806-1.766-1.875-2.36-.069-.595-.181-1.531-.25-2.081-.127-1.019-1.668-1.087-6.125-.269m-19.91 3.66c-1.428 1.721-7.191 2.695-8.716 1.472-.684-.548-3.237-.356-6.5.489-2.956.765-7.743 1.441-10.64 1.502-7.824.164-11.623 2.437-10.829 6.478.828 4.216 2.604 5.357 9.608 6.169 3.232.376 10.739 1.57 16.682 2.655 5.943 1.085 12.186 2.208 13.874 2.496 3.036.519 12.431-4.501 12.431-6.641 0-.466.25-1.5.557-2.298.349-.91-.221-1.653-1.529-1.995-1.147-.3-1.96-.922-1.807-1.382.154-.46-.768-1.883-2.048-3.163-1.28-1.28-2.085-2.961-1.788-3.735 1.132-2.95-7.05-4.751-9.295-2.047m-318.879 3.214c-.71.767-2.57 1.395-4.135 1.395-3.093 0-6.076 3.39-6.076 6.906 0 2.679 1.509 3.418 3.914 1.916 1.097-.686 2.305-.937 2.683-.558 1.189 1.189-1.732 3.736-4.286 3.736-2.059 0-2.394.419-2.127 2.661.374 3.151 2.235 3.623 6.766 1.718 3.16-1.329 3.287-1.587 2.818-5.743-.366-3.245-.022-4.961 1.349-6.744 2.908-3.783 2.094-8.534-.906-5.287m58.067 4.645c-.532.688-1.248 2.038-1.591 3-.343.962-1.313 1.75-2.156 1.75-2.272 0-1.854 3.348.719 5.762 5.363 5.029 11.044 8.077 13.393 7.184 1.331-.507 2.52-.491 2.847.037.308.499 3.586.881 7.285.85 3.699-.032 8.525.423 10.725 1.009 4.954 1.322 13.261 1.711 16.212.76 1.27-.409 3.187-.172 4.5.557 2.824 1.568 3.426 1.622 23.907 2.162 9.14.24 18.14.921 20 1.511 1.86.591 5.181 1.026 7.381.967 3.861-.103 15.716 1.177 29.741 3.213 6.42.932 12.868-.253 15.984-2.938 1.213-1.045-5.75-8.074-7.998-8.074-3.029 0-7.401-1.828-9.843-4.115-2.209-2.069-6.735-1.653-14.699 1.35-2 .754-4.75.74-9.5-.048-9.474-1.573-22.215-3.347-25.352-3.531-1.466-.086-3.004-.493-3.416-.906-.413-.413-3.263-.753-6.334-.756-3.071-.004-6.912-.699-8.535-1.546-2.789-1.454-8.754-2.022-30.048-2.861-8.993-.355-14.5-1.38-14.5-2.7 0-.488-1.745-.887-3.878-.887-2.226 0-4.407-.639-5.122-1.5-1.513-1.823-8.369-1.999-9.722-.25M54 460.424c0 1.397-.569 1.61-2.923 1.093-2.675-.588-2.872-.446-2.326 1.671.535 2.076.423 2.17-1.102.919-2.702-2.216-2.953-.665-.693 4.296 2.278 5.001 3.633 6.08 2.633 2.097-.746-2.972-.641-2.984 9.399-1.07 4.118.786 7.702 1.214 7.964.951.684-.683-1.288-3.569-2.295-3.361-.464.096-2.039-.894-3.5-2.201-6.736-6.026-7.157-6.284-7.157-4.395m31.228 3.748c-1.625 1.625-1.551 4.041.232 7.497.804 1.557 1.697 4.01 1.987 5.45.459 2.287 1.162 2.704 5.54 3.285 3.028.402 5.824.232 7.057-.428 2.718-1.454 38.95-1.394 49.456.083 4.4.618 12.05 1.243 17 1.388 4.95.145 9.284.329 9.632.408 1.567.359-2.119 7.582-4.507 8.833-3.467 1.817-3.462 3.581.007 2.262 1.448-.551 3.384-.762 4.303-.471.918.292 2.546-.132 3.617-.943 1.925-1.455 1.925-1.474-.052-1.568-1.843-.087-1.823-.166.25-.999 2.688-1.08 2.974-4.448.5-5.889-1.612-.939-1.592-1.027.25-1.122 1.1-.056 3.8-.204 6-.328 2.263-.127 4.731.38 5.684 1.168 1.45 1.199 2.145 1.151 5-.345A358.608 358.608 0 01202 479.97c.825-.411 1.44-1.455 1.368-2.32-.081-.958 1.189-2.009 3.25-2.689 1.86-.614 3.382-1.756 3.382-2.539 0-1.852-1.429-1.815-3 .078-1.56 1.88-3.929 1.869-6.441-.032-1.452-1.098-4.915-1.468-13.75-1.468-6.495 0-11.809-.337-11.809-.75s-1.912-.864-4.25-1.002l-11.441-.684c-3.955-.237-8.088-.91-9.184-1.497-1.097-.587-3.358-1.067-5.025-1.067-1.668 0-4.615-.755-6.55-1.678-3.057-1.457-3.856-1.496-6.096-.298-2.039 1.092-2.98 1.129-4.502.178-2.571-1.605-3.948-1.515-6.061.396-1.449 1.312-2.365 1.401-5.104.497-5.159-1.703-30.051-2.431-31.559-.923m365.107 22.662c-.699 1.121-2.447 1.891-4.49 1.98-1.84.08-6.495.879-10.345 1.776-8.687 2.025-12.207 1.925-21.028-.598-12.026-3.439-14.282-1.763-9.376 6.965 1.923 3.422 2.467 3.735 6.611 3.797 2.484.038 5.006.559 5.604 1.157.599.599 1.765 1.089 2.591 1.089.827 0 2.887 1.341 4.578 2.98 3.985 3.863 9.52 5.181 9.52 2.267 0-2.124 2.274-4.639 3.283-3.631.33.33.09 1.415-.532 2.411-1.56 2.497.616 4.973 4.371 4.973 2.042 0 2.878-.494 2.878-1.7 0-2.5 1.764-.301 2.165 2.7.238 1.774 1.235 2.791 3.433 3.501 4.901 1.585 6.402 3.357 6.402 7.562 0 4.202 1.6 6.102 2.737 3.25.398-.997.688-4.4.646-7.563-.053-3.912.314-5.75 1.147-5.75.674 0 1.785-.675 2.47-1.5 1.053-1.268.84-1.5-1.378-1.5-2.843 0-3.308-.914-1.422-2.8.933-.933.933-1.2 0-1.2-1.588 0-1.547-2.693.05-3.338.688-.277.293-.54-.878-.583-1.17-.043-2.683.591-3.363 1.41-1.67 2.012-3.009.98-3.009-2.321 0-2.076.823-3.157 3.508-4.603 3.302-1.778 3.412-1.996 1.867-3.703-.903-.998-1.941-1.63-2.306-1.404-1.461.902-3.653-1.404-2.216-2.331 1.056-.681 1.103-1.341.215-3-1.395-2.607-2.245-2.674-3.733-.293M89.05 491.44c-.657.792-2.175 1.579-3.373 1.75-1.693.241-2.241 1.088-2.466 3.81-.158 1.925-.565 4.175-.903 5-.339.825-.525 2.248-.414 3.161.111.914-.27 1.953-.846 2.309-1.511.934-1.289 6.226.324 7.733.867.81 1.201 2.574.906 4.79-.257 1.929.053 5.982.688 9.007 1.391 6.626 3.201 17.554 3.478 21 1.168 14.511 3.039 18.375 6.985 14.429.949-.949 1.571-3.302 1.571-5.941 0-2.404.417-4.628.926-4.942.51-.315.695-2.929.412-5.81-.283-2.88.013-7.261.657-9.736 1.28-4.92 2.802-12.473 3.645-18.087.377-2.508-.072-4.726-1.493-7.377-1.637-3.056-1.924-4.946-1.479-9.751.881-9.512-4.385-16.445-8.618-11.345m95.45 2.191c-4.95.749-11.025 2.085-13.5 2.969-6.087 2.174-11.612 2.837-12.442 1.494-1.624-2.627-6.741-1.146-10.591 3.065l-3.801 4.159-12.098-1.311c-10.832-1.173-14.429-1.034-12.897.497.495.495 10.296 1.963 22.551 3.376 4.138.478 6.984 1.412 8.5 2.791 4.211 3.833 15.679 4.614 33.778 2.302 16.006-2.046 57.091-1.512 82 1.065 16.809 1.738 36.862 2.859 40.527 2.264 4.187-.68 6.903-4.742 5.883-8.803-.833-3.319-1.683-3.727-5.076-2.433-2.04.777-6.195.76-14.834-.059-18.801-1.785-20.714-2.041-25.5-3.414-2.475-.711-6.158-1.089-8.185-.84-4.011.491-13.461-2.19-14.06-3.988-.546-1.639-19.473-1.777-23.325-.17-2.327.972-4.504 1.034-9 .26-3.261-.562-7.473-1.011-9.358-.997-1.885.013-4.655-.849-6.154-1.917-1.5-1.067-2.882-1.88-3.072-1.806-.19.074-4.396.747-9.346 1.496m-10.48 27.893c2.133 2.57.455 2.891-16.315 3.121-8.913.122-16.205.301-16.205.398 0 .097-1.527.303-3.393.457-12.908 1.067-26.909 3.556-28.104 4.996-1.65 1.988 1.098 6.481 3.997 6.535l13.917.258 11.418.211.967 3c2.179 6.761 6.649 7.99 6.367 1.75l-.169-3.75h4.637c12.606 0 20.881 1.142 22.74 3.138 1.93 2.071 9.782 2.237 8.51.18-.328-.532.369-1.994 1.549-3.249 5.022-5.347 2.305-14.941-4.581-16.175-1.57-.281-3.005-.935-3.188-1.453-.184-.517-1.026-.941-1.873-.941-1.265 0-1.314.271-.274 1.524m111.178.737c-.596.718-1.987 3.413-3.091 5.989l-2.007 4.683 2.455 1.931c1.696 1.335 3.766 1.864 6.7 1.714 2.335-.12 6.089.371 8.344 1.09 2.254.72 5.854 1.274 8 1.232 12.148-.237 30.051.277 30.929.889 1.747 1.22 4.472 6.056 4.472 7.939 0 .989 1.012 2.242 2.25 2.785 1.397.613 2.371 2.037 2.568 3.758.191 1.659 1.495 3.64 3.25 4.938 3.59 2.654 3.722 4.474.432 5.973-1.375.626-2.5 1.442-2.5 1.812 0 1.65 1.515 1.898 3.529.579 2.069-1.356 2.551-1.063 8.85 5.376 6.28 6.419 11.152 9.077 13.724 7.488 1.22-.755 1.14-6.169-.103-6.937-.55-.34-1-1.436-1-2.437 0-1-.67-2.374-1.489-3.054-.819-.68-1.222-1.668-.895-2.196.326-.529-.326-1.94-1.45-3.137-1.124-1.197-2.481-4.122-3.015-6.5-.859-3.821-3.283-7.051-5.362-7.144-1.745-.078-4.789-4.668-4.789-7.221 0-1.688-.537-2.811-1.345-2.811-2.305 0-4.783-3.624-4.46-6.525.477-4.297-5.816-6.289-14.936-4.727-4.279.733-7.103.808-7.706.205-.524-.524-3.851-.953-7.393-.953-4.673 0-6.752-.427-7.577-1.556-.808-1.105-3.448-1.686-9.11-2.005-7.477-.421-10.715-.867-14.582-2.009-.885-.261-2.096.113-2.693.831M209 549.65c-2.475.824-8.775 1.687-14 1.919-14.414.639-27 4.847-27 9.027 0 2.214 1.849 2.608 11.817 2.516 13.717-.126 21.208 1.214 29.749 5.323 10.491 5.047 22.38 4.705 23.789-.685.508-1.944 5.645-2.517 5.645-.63 0 .757 2.028.97 6.25.658 3.95-.293 7.804.062 10.472.964 8.458 2.858 16.615-4.393 11.437-10.167-1.024-1.141-2.147-2.883-2.496-3.87-1.209-3.419-7.274-5.056-12.55-3.386-7.391 2.339-23.746 3.16-24.817 1.246-.475-.85-2.874-1.965-5.33-2.479-2.456-.515-5.366-1.16-6.466-1.434-1.1-.275-4.025.175-6.5.998m232-.006c-1.925.861-4.765 1.547-6.312 1.526-1.748-.025-2.653.408-2.392 1.145.231.652 1.158 1.123 2.062 1.046 1.793-.152 2.216 1.166.68 2.116-2.12 1.31.209 11.523 2.628 11.523.799 0 1.2-.407.893-.905-.656-1.061 3.431-9.095 4.627-9.095.447 0 .821 1.462.829 3.25.018 3.732.767 5.131 3.235 6.042.962.355 1.75 1.559 1.75 2.677 0 1.364.656 2.031 2 2.031 2.267 0 2.563-1.037.8-2.8-.933-.933-.822-1.2.5-1.2.935 0 1.7.61 1.7 1.356 0 .864 1.088 1.318 2.998 1.25 3.642-.129 4.182-3.112.752-4.157-3.815-1.162-5.777-3.493-5.125-6.089.438-1.747.174-2.36-1.017-2.36-.884 0-1.608-.45-1.608-1s.45-1 1-1 1-1.35 1-3-.499-3-1.108-3c-.696 0-.874 1.025-.478 2.75l.63 2.75-2.772-3.259c-3.181-3.74-2.712-3.637-7.272-1.597m-140 1.049c-.825.294-3.3 1.347-5.5 2.34-2.2.993-4.78 2.05-5.733 2.348-2.041.639-1.466 5.994.942 8.778 2.712 3.134 10.874 5.108 14.139 3.419 7.022-3.631 20.152 1.188 20.152 7.396 0 3.054 9.569 13.026 12.499 13.026.891 0 1.339.453.997 1.007-.343.554.193 1.262 1.191 1.573.997.311 2.528.942 3.402 1.401 2.564 1.347 4.851-.682 2.661-2.36-1.091-.837-1.75-2.69-1.75-4.922 0-1.97-.481-3.878-1.068-4.241-.588-.363-.804-1.349-.481-2.19.328-.855-.57-3.046-2.035-4.968-2.233-2.927-2.527-4.072-1.982-7.711.626-4.17.537-4.344-3.646-7.181-4.997-3.389-9.372-4.581-16.187-4.411-4.987.124-10.601-1.527-10.601-3.118 0-.944-4.536-1.065-7-.186" fill="#d3d3d3" fill-rule="evenodd"/></svg>