<svg xmlns="http://www.w3.org/2000/svg" width="500" height="413"><path d="M58.364 16.76l-45.136.26-.6 2.24c-1.003 3.74-.71 34.571.334 35.216.596.369.616 1.503.054 2.983-.514 1.351-.732 19.609-.502 42.084l.407 39.697 5.033 4.903c5.746 5.597 5.575 7.394-1.012 10.654-3.421 1.694-3.568 1.99-3.833 7.732-.152 3.284-.31 6.196-.351 6.471-.042.275.295 1.354.747 2.397.478 1.103.348 3.155-.311 4.899-1.279 3.389-.386 44.11 1.167 53.204.188 1.1-.268 2.935-1.012 4.078-.998 1.531-1.163 3.77-.63 8.5.399 3.532.645 7.322.547 8.422-1.431 16.107-1.464 20.761-.155 21.59.764.484.89.886.281.895-.682.009-1.143 2.413-1.197 6.238-.06 4.201.214 5.744.843 4.75.789-1.248.934-1.215.947.218.008.93-.369 1.928-.839 2.218-1.452.898-1.365 25.834.094 26.761 1 .634 1.002.803.01.815-1.516.018-1.718 9.743-.25 12.015.828 1.282.972 1.246.985-.25.008-.962.434-1.75.945-1.75.512 0 1.126-1.012 1.364-2.25.338-1.756.46-1.591.555.75.066 1.65-.316 3.675-.849 4.5-.533.825-.976 1.076-.985.559-.008-.518-.676-.068-1.483 1-1.221 1.614-1.474 7.539-1.5 35.191L12 397l214.25-.118c117.838-.065 215.6-.405 217.25-.755 2.503-.53 3.053-1.182 3.317-3.932.237-2.464.964-3.541 2.882-4.271 2.327-.884 2.426-1.135 1.063-2.699-.825-.949-1.374-2.175-1.219-2.725.155-.55.551-2.222.88-3.715.454-2.062 1.016-2.558 2.337-2.062 1.534.574 1.574.448.343-1.065-1.091-1.342-1.151-2.258-.271-4.188 1.498-3.289 2.557-3.122 6.465 1.021l3.293 3.491 1.251-4.741 2.217-8.394c.758-2.864 1.369-3.548 2.829-3.166 1.471.384 1.896-.109 2.022-2.347.305-5.435.185-6.658-.71-7.244-.495-.325-1.131-1.828-1.411-3.34-.551-2.967.866-3.645 3.133-1.5 1.091 1.032 1.205.16.651-5-.443-4.123-.314-6.25.378-6.25.578 0 1.05.525 1.05 1.167 0 .641.29.876.644.522 1.065-1.065-2.698-9.689-4.227-9.689-.779 0-1.417-.45-1.417-1 0-1.378 1.589-1.253 3.179.25.726.688 2.446 1.294 3.821 1.347 1.375.054 3.288.439 4.25.857 1.07.465 1.75.33 1.75-.347 0-.609-.562-1.113-1.25-1.12-1.571-.015-10.745-10.383-10.765-12.166-.013-1.061-.175-1.069-.828-.041-.628.99-1.415.805-3.475-.815-1.464-1.152-3.117-1.814-3.672-1.471-.556.343-1.01-.035-1.01-.841 0-.948.672-1.29 1.9-.969 1.694.443 1.855.028 1.481-3.812-.754-7.752-2.487-7.22-3.678 1.128l-.356 2.5-1.033-2.485c-1.183-2.849 1.023-10.935 3.363-12.326.751-.447 1.063-1.3.695-1.896-.45-.728.177-.872 1.907-.438 3.807.956 5.81-1.503 5.197-6.382-.411-3.265-.231-3.816 1.08-3.313 1.228.471 1.445 1.545.99 4.9-.53 3.91-.379 4.325 1.686 4.618 2.535.36 3.888 7.102 1.836 9.154-1.844 1.844-1.263 3.952.932 3.378 1.284-.335 2-.03 2 .852 0 .756-.57 1.157-1.266.89-.917-.353-1.311 1.063-1.43 5.149-.213 7.305 1.038 10.742 3.614 9.925 1.525-.484 1.813-.214 1.412 1.32-.277 1.061-.04 2.215.528 2.566.684.423.996-2.489.925-8.637-.08-6.908-.285-8.254-.803-5.275-.705 4.051-1.142 3.451-1.454-2-.094-1.65-.536-4.8-.981-7-.446-2.2-.472-3.684-.059-3.298.887.829 3.514-1.557 3.514-3.19 0-.621-.526-.805-1.17-.407-.798.493-.957.167-.499-1.025.369-.961.884-4.973 1.144-8.914l.473-7.166-1.393 5.371c-.767 2.954-1.231 6.216-1.032 7.25.199 1.033-.111 1.879-.69 1.879-.613 0-.881-1.459-.643-3.5.225-1.925.049-3.5-.391-3.5-.439 0-.813.563-.829 1.25-.053 2.17-1.696-1.497-2.353-5.25-.449-2.571-.366-2.969.315-1.5l.927 2 .084-2c.047-1.1.331-3.125.633-4.5l.549-2.5-1.353 2.26c-1.058 1.767-1.616 1.996-2.562 1.05-.947-.947-1.213-.894-1.225.24-.013 1.233-.161 1.226-.985-.05-.533-.825-.969-2.175-.969-3 0-1.042.228-1.142.746-.326.5.786 1.125.372 1.891-1.25.997-2.113.902-2.424-.743-2.424-1.177 0-2.122-.938-2.513-2.493-.344-1.371-.955-2.289-1.358-2.04-1.413.873-.994-6.981.65-12.198 1.45-4.599 3.296-7.04 3.296-4.357 0 .501.686.81 1.525.687 2.074-.304 5.424-6.811 6.136-11.918.321-2.3.978-5.223 1.461-6.496 1.703-4.489.908-7.069-.946-3.072-3.252 7.009-5.702 1.785-2.622-5.589.855-2.046 1.382-4.464 1.17-5.372-.393-1.69-.434-1.621-3.547 5.848-1.822 4.372-1.428-5.906.435-11.376 2.339-6.863.92-6.862-2.183.002-1.46 3.231-2.872 5.296-3.137 4.59-.264-.706-.07-1.831.432-2.5s.598-2.566.213-4.216c-.396-1.697-.752-2.18-.819-1.112-.113 1.811-7.953 12.467-9.244 12.565-.344.026.094-1.954.973-4.401 1.061-2.949 1.883-4.044 2.442-3.25.516.734.618.394.265-.876-.317-1.14.053-3.39.823-5 3.535-7.39 8.803-20.579 8.386-20.996-.255-.255-2.348 3.652-4.652 8.681-4.374 9.549-6.5 11.412-3.723 3.265 1.782-5.231 2.147-9.306.526-5.876-.786 1.665-.856 1.544-.417-.723.406-2.096.194-2.596-.921-2.168-.838.322-1.193 1.224-.843 2.138.402 1.046.211 1.337-.563.858-1.605-.992-1.468-3.829.298-6.164 1.123-1.484 1.479-1.588 1.516-.441.027.885.348 1.09.781.5 1.012-1.378 3.235-1.721 3.235-.5 0 2.891 2.03.313 3.544-4.5.951-3.025 2.118-5.5 2.593-5.5.475 0 .843-1.463.819-3.25l-.044-3.25-2.028 3.844c-1.116 2.115-2.276 3.598-2.578 3.296-.302-.303.743-2.674 2.323-5.271 5.556-9.135 6.37-10.861 6.303-13.353l-.067-2.516-1.085 2.25c-1.84 3.813-2.906 2.482-1.203-1.5a633.066 633.066 0 002.121-5c.875-2.12-1.364-1.38-3.024 1-1.214 1.74-1.581 1.881-1.622.622-.028-.895-.727-2.187-1.552-2.872-2.043-1.696-1.883-3.617.5-6 1.1-1.1 1.523-2 .941-2s-.759-.485-.393-1.078c.367-.593.884-3.181 1.15-5.75.678-6.553 2.635-7.456 2.635-1.216 0 1.626.379 2.722.842 2.436.463-.286 1.246.521 1.739 1.794.612 1.578.859-.945.778-7.936-.092-7.862-.433-10.25-1.465-10.25-.74 0-1.062-.457-.717-1.016.346-.559 1.02-.775 1.499-.479.478.296.804-.34.723-1.414-.081-1.074-.616-1.693-1.19-1.375-.573.318-.479-.029.208-.769 1.499-1.615 1.646-3.947.25-3.947-.55 0-1 .633-1 1.406 0 .933-.702 1.223-2.085.862-1.425-.373-1.701-.783-.871-1.295.667-.412.92-1.222.563-1.8-.357-.577-.03-1.415.726-1.862 2.354-1.388 3.73-4.848 2.441-6.137-1.763-1.763-1.921-9.181-.209-9.837.789-.303 1.435-1.204 1.435-2.003 0-.799-.45-1.174-1-.834-.55.34-1-.282-1-1.382 0-1.1.402-2.248.893-2.552.491-.303.87-2.805.842-5.559-.043-4.179-.356-5.007-1.893-5.007-1.013 0-1.842-.424-1.842-.943 0-.518.9-.769 2-.557 1.831.353 2-.153 2-5.974 0-4.152-.434-6.534-1.25-6.864-1-.403-1-.52 0-.583 1.736-.11 1.561-1.911-.373-3.844-1.329-1.33-1.373-1.723-.242-2.179 1.545-.623 2.42-6.349 1.257-8.23-.414-.671-.641-3.336-.504-5.922.137-2.585-.239-5.003-.836-5.372-.596-.368-.767-1.185-.378-1.813.863-1.396.505-7.94-.488-8.933-.396-.396-8.136-.974-17.202-1.285-9.066-.312-17.496-.786-18.734-1.053-1.403-.303-2.256-.008-2.265.783-.012.975-.212.959-.862-.066-.887-1.399-28.829-2.083-30.973-.758a1.196 1.196 0 01-1.64-.391c-.931-1.507-9.507-1.296-9.525.234-.012.916-.212.941-.751.094-.463-.728-5.927-1.408-14.735-1.836-7.7-.373-15.574-.876-17.499-1.118-10.764-1.351-190.657-2.304-307.636-1.63m-25.375 5.49c-2.334 3.828-2.611 7.75-.548 7.75.793 0 1.713-.441 2.046-.98.381-.616 1.351-.523 2.615.25 1.689 1.034 2.172.943 3.034-.575.819-1.442 1.316-1.564 2.469-.608 2.224 1.846 2.711.424.992-2.899-3.609-6.98-7.488-8.054-10.608-2.938m95.606 8.426c.369 1.553 1.511 4.712 2.538 7.019 1.027 2.307 1.867 4.471 1.867 4.809 0 .337 1.325 2.274 2.944 4.305 1.619 2.03 4.178 7.066 5.686 11.191 1.508 4.125 3.945 9.075 5.416 11 1.47 1.925 4.625 8.225 7.011 14s5.149 11.694 6.141 13.154c.991 1.46 1.802 3.052 1.802 3.538 0 .486 1.618 4.691 3.596 9.346 1.977 4.654 4.078 9.925 4.667 11.712.59 1.787 1.433 3.25 1.873 3.25.441 0 .54.681.221 1.513-.32.832-.084 2.111.522 2.842.607.731.77 1.697.362 2.147-.407.45-.184.498.498.106.807-.464 1.048-.217.692.711-.556 1.45 1.956 4.681 3.64 4.681 1.088 0 1.229-1.367.242-2.354-.378-.378-.789-1.465-.914-2.416-.907-6.899-3.164-15.444-3.627-13.73-.501 1.855-.548 1.839-.656-.213-.064-1.217-1.064-4.592-2.222-7.5-1.158-2.908-2.214-5.737-2.346-6.287-.132-.55-.76-2.267-1.394-3.815-.635-1.548-1.154-3.21-1.154-3.693 0-.483-.923-2.443-2.052-4.355-1.128-1.913-2.269-4.679-2.536-6.147-.266-1.469-1.194-3.754-2.063-5.08-.868-1.325-1.19-2.417-.714-2.425.476-.009.292-.379-.408-.824-.701-.444-1.474-1.849-1.719-3.121-.245-1.273-1.135-3.075-1.977-4.006-.842-.93-1.531-2.407-1.531-3.281 0-.875-1.642-3.42-3.65-5.656-3.664-4.081-5.381-6.642-7.293-10.876-.566-1.253-2.201-3.503-3.634-5-1.432-1.496-3.057-3.958-3.611-5.471-.554-1.513-1.44-2.75-1.969-2.75-.528 0-.681-.453-.338-1.008.342-.554-.162-1.791-1.12-2.75-1.651-1.651-1.651-1.76-.008-2.076 2.368-.456 1.481-2.59-1.243-2.99-1.958-.288-2.133-.004-1.539 2.5m215.834 39.343c-2.789.395-6.022 1.228-7.184 1.85-1.163.622-3.075 1.131-4.249 1.131-1.175 0-4.098 1.35-6.496 3-2.398 1.65-4.639 3-4.98 3-1.176 0-7.535 6.722-10.505 11.104-3.02 4.457-3.622 5.992-2.265 5.778 2.063-.326 3.25.265 3.25 1.618 0 2.104-3.77 1.881-4.236-.25-.474-2.17-2.766 10.154-2.758 14.832.023 14.333 13.541 34.547 27.366 40.921 7.214 3.326 22.685 5.107 26.523 3.053 3.376-1.806 5.163-8.385 8.065-29.676.515-3.784 2.08-12.955 3.477-20.38 4.401-23.392 4.123-24.621-6.768-29.972-3.207-1.576-6.582-3.516-7.5-4.312-2.338-2.027-5.84-2.534-11.74-1.697m31.074 15.731c-.396 2.063-1.078 9.15-1.516 15.75-.438 6.6-1.964 17.036-3.392 23.19-1.427 6.155-2.595 13.358-2.595 16.007 0 2.649-.446 6.37-.99 8.269-1.456 5.074-.116 5.796 6.745 3.635 9.072-2.859 18.245-8.825 18.245-11.869 0-.481.675-1.55 1.5-2.375 1.062-1.062 1.5-3.651 1.5-8.863 0-12.37-3.306-24.652-11.035-40.994-3.005-6.353-3.378-6.769-4.038-4.5-.693 2.381-.732 2.393-.827.25-.165-3.707-2.809-2.604-3.597 1.5m-113.962 31.216c-2.177.433-4.127 1.293-4.333 1.911-.206.617-.997 1.123-1.757 1.123-2.201 0-8.506 6.054-12.017 11.538-2.492 3.893-3.569 7.189-4.74 14.5-.833 5.204-1.609 9.912-1.723 10.462-.114.55-.12 1.225-.013 1.5.48 1.231 1.1 3.751 1.661 6.746l.607 3.247-4.863-.619c-2.675-.341-9.096-1.469-14.27-2.506-8.375-1.68-11.365-1.806-9.98-.421.246.245 6.733 1.637 14.417 3.092 7.683 1.455 14.514 2.808 15.179 3.006.665.199 2.41 2.745 3.878 5.658 5.445 10.811 17.782 20.258 26.173 20.041 1.793-.046 3.045.262 2.784.685-.963 1.558 4.931 3.57 10.371 3.54 8.239-.045 16.069-5.036 22.368-14.254 2.594-3.797 4.724-7.536 4.732-8.309.011-1.016.225-1.077.771-.219 1.036 1.63 16.214 2.988 16.214 1.451 0-.675-1.933-1.184-4.75-1.252-10.455-.251-12.32-.895-10.657-3.681 1.986-3.329 1.685-16.086-.556-23.617C307.23 137.796 298.548 123 294.848 123c-1.053 0-4.107-1.111-6.787-2.469-2.68-1.358-6.153-2.677-7.717-2.932-6.647-1.08-15.119-1.365-18.803-.633m188.127 53.005c-1.498 1.514-1.623 2.244-.687 3.993.63 1.178.961 2.905.734 3.838-.298 1.234-.825.774-1.926-1.678-1.717-3.828-1.579-3.949-6.429 5.626-3.096 6.111-3.017 6.696.851 6.309.941-.094 2.7.358 3.91 1.006 2.013 1.077 2.052 1.258.467 2.146-1.262.706-2.255.495-3.66-.776-2.767-2.504-2.631.402.186 3.983 1.163 1.478 1.875 2.927 1.582 3.219-.547.547 1.426 3.27 4.606 6.359 1.624 1.577 1.643 1.811.187 2.37-.889.341-1.359 1.035-1.045 1.543 1.101 1.782-1.367 6.334-3.078 5.678-1.224-.47-1.484-.146-1.09 1.361.395 1.511-1.581 3.946-8.379 10.326-6.636 6.227-8.88 8.968-8.829 10.787l.067 2.439 1.085-2.25c.597-1.238 1.467-2.25 1.933-2.25.466 0 .847-.431.847-.959 0-.527 4.731-5.696 10.514-11.485 5.783-5.79 10.502-10.871 10.487-11.292-.048-1.362 3.875-1.028 4.414.375.811 2.112 3.585 1.618 3.585-.639 0-1.1-.502-2-1.117-2-.71 0-.878-1.001-.461-2.75 1.767-7.418 1.393-11.25-1.098-11.25-.793 0-1.164-.45-.824-1 .34-.55.073-1-.594-1-.667 0-.243-.84.941-1.867 3.157-2.739 2.93-6.366-.347-5.544-1.891.475-2.5.236-2.5-.981 0-1.902 1.615-2.149 2.338-.358.277.688.54-.49.583-2.617.069-3.393-.166-3.802-1.925-3.342-2.53.661-3.768-3.302-2.144-6.865 1.368-3.003-.412-3.258-3.184-.455m-239.128 8.964c-.304.492-.062 1.058.537 1.257.599.2 1.185 2.219 1.302 4.487.259 5.037 2.229 7.891 4.276 6.192 1.18-.979 1.148-1.522-.212-3.599-.882-1.345-1.391-2.658-1.131-2.917.574-.574 16.843 12.976 21.634 18.018 1.896 1.995 4.133 3.627 4.971 3.627 2.005 0-9.353-11.573-18.867-19.223-6.646-5.345-7.538-5.79-8.27-4.134-.728 1.646-.777 1.619-.435-.236.404-2.192-2.793-5.109-3.805-3.472m-176.317 8.622c-3.607 2.526-2.953 6.949 1.72 11.621 2.169 2.169 4.529 5.266 5.244 6.883 1.231 2.78 1.874 3.273 3.516 2.689 2.18-.775-1.3-17.438-4.259-20.397-2.778-2.778-3.297-2.845-6.221-.796m137.356 4.693c-2.564 8.942-9.453 24.75-10.786 24.75-.501 0-.652.419-.336.931.317.512.111 1.218-.457 1.569-.568.351-.774 1.057-.457 1.569.316.512.135.931-.402.931-1.43 0-5.68 7.243-5.281 9 .377 1.662 2.027 2.961 3.791 2.985 1.243.016 5.623-6.71 5.66-8.691.012-.663.397-.974.856-.691.458.283.833-.637.833-2.044s.477-2.559 1.059-2.559.832-.367.555-.815c-.277-.449 1.067-4.386 2.987-8.75 1.92-4.364 3.561-8.835 3.647-9.935.086-1.1.508-2.247.939-2.55.431-.302 1.071-1.99 1.423-3.75.562-2.809.376-3.2-1.516-3.2-1.186 0-2.318.563-2.515 1.25M56 210.857c8.504 1.777 45.08 2.397 46.685.791.766-.766-.932-.903-14.185-1.148-5.5-.102-16.975-.463-25.5-.802l-15.5-.617 8.5 1.776M43.369 214c2.121 15.58 4.487 23.137 9.294 29.683 1.285 1.751 2.337 3.561 2.337 4.021C55 249.322 68.085 262 69.754 262c1.209 0 .634-1.023-2.026-3.607-2.043-1.984-3.465-4.009-3.162-4.5.304-.491.11-.893-.43-.893-1.541 0-6.935-5.786-7.704-8.264-.382-1.23-1.568-3.476-2.636-4.992-3.273-4.648-6.993-14.91-7.833-21.612-.439-3.502-1.34-6.877-2.002-7.5-.933-.877-1.067-.118-.592 3.368m225.127 31.614c5.17 11.966 9.865 28.548 11.042 38.998.873 7.748-1.064 20.003-3.379 21.371-2.893 1.71.597 2.898 6.673 2.271 5.124-.529 5.449-.437 4.723 1.339-1.3 3.181-1.952 25.043-.769 25.775 1.039.642 3.022-5.702 3.709-11.868.762-6.829 3.202-15.696 4.556-16.552.797-.505 4.219-.924 7.605-.933 5.864-.014 6.134.092 5.676 2.235-.463 2.168-.424 2.181 1.058.358.846-1.04 1.667-2.202 1.824-2.582.157-.38 4.111-1.66 8.786-2.846 4.675-1.185 9.553-2.448 10.84-2.807 2.105-.588 2.31-.362 2.037 2.237-.167 1.59.051 3.464.484 4.165.433.701.455 2.725.05 4.499-1.181 5.164-.523 17.907 1.049 20.305.891 1.36 1.06 2.501.459 3.102-.523.523-1.056 3.396-1.185 6.385l-.234 5.434 3.25.034c2.998.031 3.745-.621 3.328-2.907-.088-.48.534-.606 1.381-.281.848.325 1.541.118 1.541-.461 0-.578.563-.862 1.25-.631.688.232 1.75-.257 2.36-1.085.968-1.313 1.41-1.228 3.439.662 1.28 1.193 2.945 2.169 3.699 2.169.753 0 1.092.45.752 1-.34.55-.141 1 .441 1s1.059.948 1.059 2.107c0 1.462-.459 1.931-1.5 1.531-.825-.316-1.5-.139-1.5.393 0 .533.505.969 1.122.969.78 0 .745.455-.113 1.489-.68.819-1.584 1.274-2.009 1.011-.425-.263-1.329.192-2.009 1.011-.68.819-1.068 1.529-.863 1.579 2.481.599 7.872.449 7.872-.219 0-.479.671-.871 1.49-.871 1.5 0 1.136.652-2.99 5.366-3.876 4.427-3.903 4.634-.603 4.634 2.776 0 3.074-.267 2.565-2.294-.38-1.517.037-2.82 1.231-3.848 2.589-2.227 5.304-3.031 5.322-1.577.011.889.24.865.845-.089.539-.85 1.759-1.075 3.485-.642 1.738.437 2.655.263 2.655-.501 0-.642-.45-.889-1-.549-.55.34-1-.046-1-.858 0-.811.563-1.702 1.25-1.98.954-.385.937-.523-.071-.583-.727-.043-2.055-.812-2.951-1.708-1.505-1.505-1.272-1.585 3.077-1.053 4.606.564 4.693.524 4.089-1.884-.348-1.387-.079-3.108.617-3.947 1.043-1.257.789-1.492-1.639-1.519-2.474-.027-2.65-.201-1.267-1.254 1.159-.883 1.63-3.002 1.696-7.626.05-3.521.455-6.67.901-6.995.961-.703.936-7.789-.031-8.755-.962-.963-.83-2.554.161-1.942.458.283.841-2.053.85-5.191.009-3.138.252-8.517.539-11.955.288-3.437.151-6.25-.303-6.25-.455 0-.622-1.687-.373-3.75.35-2.888.203-3.405-.64-2.25-.926 1.27-1.007 1.232-.531-.25.312-.97.057-1.75-.572-1.75-1.157 0-.184-1.461 1.031-1.548 1.981-.141 7.204-4.311 6.187-4.94-.63-.389-2.018.081-3.083 1.045-1.881 1.702-1.937 1.652-1.937-1.742 0-3.229-.324-3.6-4.25-4.875-2.337-.759-4.845-1.956-5.571-2.66-.727-.704-2.077-1.287-3-1.296-1.013-.009-2.652-1.996-4.13-5.007-2.39-4.87-2.537-4.977-6-4.353-4.453.801-5.049 1.148-5.049 2.935 0 .793-.45 1.441-1 1.441s-1-.617-1-1.372c0-.951-1.226-1.339-4-1.267-2.2.058-4.007.563-4.015 1.122-.009.559-.479.342-1.045-.483-.816-1.189-.975-.982-.765 1 .145 1.375-.093 3.072-.528 3.772-1.097 1.761-1.574 15.728-.592 17.317.644 1.042 1.333 1.055 3.503.067 1.485-.677 2.967-.965 3.292-.639.78.78-1.909 2.448-3.978 2.468-2.556.024-3.944 2.45-4.167 7.282l-.205 4.454-7.303 1.82c-4.016 1.001-7.504 2.146-7.751 2.546-.246.399-1.384.481-2.528.181-2.381-.622-2.367-.698 2.076-11.268 1.734-4.125 4.244-11.55 5.577-16.5 2.811-10.437 2.655-9.5 1.577-9.5-.468 0-1.672 3.038-2.676 6.75-2.029 7.505-10.124 29.344-11.251 30.353-.396.356-4.209.893-8.471 1.195l-7.75.548v-2.923c0-1.608-.393-2.923-.874-2.923-1.633 0 2.365-6.935 4.017-6.967 1.834-.037 2.857-2.021 2.857-5.543 0-1.291.563-2.942 1.252-3.669 1.628-1.719 4.526-10.157 5.36-15.611l.656-4.289-2.882 1.289c-1.585.71-3.878 2.415-5.095 3.79-2.589 2.923-8.683 21.414-10.382 31.5-1.304 7.741-1.881 8.462-6.79 8.485-3.376.015-3.38.01-2.626-3.735 1.404-6.975 1.414-20.633.018-26.25-4.722-19.015-9.047-31.012-11.472-31.82-.994-.332-1.14.052-.543 1.434M455.5 255.783c-1.221 1.048-1.87 2.637-1.666 4.078.184 1.299-.079 2.106-.583 1.794-1.316-.813-1.169 2.698.15 3.58.746.498.677.739-.214.75-.722.008-1.233.803-1.135 1.765.413 4.052-.029 5.834-1.052 4.25-.784-1.213-.972-1.069-.985.75-.015 2.275 1.403 2.794 4.446 1.626 1.488-.571 1.482-.781-.073-2.5-2.051-2.266-.746-2.51 1.681-.313 1.588 1.437 1.731 1.377 1.776-.75.027-1.272.301-5.575.608-9.563.588-7.642.269-8.233-2.953-5.467m-384.874 8.685c.31.808.859 1.383 1.219 1.278.774-.225 5.859 3.017 8.535 5.442 1.034.936 4.263 2.95 7.175 4.475 2.912 1.525 5.077 3.124 4.811 3.555-.266.43-.12.786.325.79 1.26.012 3.309 5.085 3.309 8.191 0 1.541.45 2.801 1 2.801s1 1.012 1 2.25c0 2.028-.485 2.25-4.915 2.25-2.703 0-5.253-.337-5.667-.75-1.251-1.249-3.418-.841-3.418.643 0 1.535-2.103 2.607-5.114 2.607-1.088 0-2.35.995-2.855 2.25-.497 1.238-.933 1.688-.968 1-.13-2.577-1.762-1.132-1.841 1.63-.173 6.109 8.875 10.725 13.528 6.902.857-.704 1.25-.7 1.25.014 0 .572.273 1.752.607 2.622.431 1.124.016 1.582-1.433 1.582-1.121 0-2.294.803-2.605 1.784-.58 1.825-6.331 5.787-7.176 4.943-.257-.258.058-1.623.701-3.034 2.53-5.553.193-6.391-4.629-1.658-4.847 4.757-6.015 4.595-1.924-.266 2.616-3.109 2.645-4.998.043-2.839-.806.669-2.504 1.071-3.774.893-1.74-.243-2.387.217-2.622 1.866-.364 2.559-7.779 9.612-9.507 9.043-.65-.214-1.32-1.328-1.489-2.476-.338-2.285-2.777-3.736-3.719-2.212-1.16 1.876-2.57 1.005-1.526-.944 1.077-2.014-1.651-4.164-2.867-2.259-.682 1.068-8.154 5.159-9.422 5.159-.48 0-.613-.675-.296-1.5.316-.825.139-1.5-.393-1.5-.533 0-.969-.675-.969-1.5s-.477-1.5-1.059-1.5-.81-.403-.506-.895c.305-.493-.104-1.148-.909-1.457-.804-.308-1.704-.169-2 .31-.296.479-.006 1.049.645 1.266.651.217.852.93.447 1.585-.916 1.482-3.618 1.571-3.618.12 0-1.385-2.544-3.929-3.929-3.929-.589 0-1.071-.436-1.071-.969 0-.532-.688-.704-1.529-.381-1.323.507-1.291.761.239 1.88.972.711 2.078 1.101 2.457.867 1.015-.628 2.057 3.322 1.412 5.353-.427 1.347.018 1.75 1.933 1.75 1.397 0 2.488-.58 2.488-1.323 0-2.148 3.472-.848 3.798 1.421.473 3.293-2.285 4.972-4.044 2.461l-1.427-2.036-2.051 2.238c-1.753 1.913-2.144 4.06-2.68 14.739-.346 6.875-.891 14.148-1.211 16.162-.665 4.172 1.838 6.411 6.227 5.572 1.313-.251 2.388-.018 2.388.518 0 .589 1.783.708 4.5.3 2.973-.446 4.5-.308 4.5.406 0 .641 1.117.863 2.75.546 2.337-.455 2.45-.385.75.462-1.686.84-1.45.973 1.5.85 3.194-.134 9.97.465 20.5 1.813 2.2.281 4.989 1.15 6.198 1.93 1.208.78 2.896 1.15 3.75.823.853-.328 1.552-.098 1.552.511S76.55 370 76 370s-1 .372-1 .827c0 .455 1.396.622 3.101.371 2.126-.311 2.685-.712 1.778-1.273-1.469-.908-1.727-.785 6.121-2.905 2.475-.668 5.182-1.559 6.017-1.98.907-.458 2.053-.191 2.853.666.834.892 2.828 1.324 5.291 1.147 2.438-.177 4.261.212 4.757 1.014.632 1.023.932.965 1.407-.272.465-1.211 1.158-1.362 3.012-.657 1.629.619 2.788.537 3.578-.253.891-.891 1.392-.815 2.111.323 1.489 2.354 1.244-2.661-.259-5.324-.679-1.201-1.293-4.434-1.367-7.184-.073-2.75-.376-5.675-.674-6.5-.564-1.565-3.105-15.234-4.274-23-.373-2.475-1.13-5.06-1.683-5.745-.553-.684-.76-2.183-.46-3.33.3-1.147-.074-3.841-.83-5.986-.757-2.145-1.66-5.822-2.007-8.17-.347-2.348-1.329-5.748-2.182-7.555-.854-1.807-1.292-3.545-.974-3.863.317-.318-.122-2.326-.977-4.462-.855-2.137-1.326-4.481-1.047-5.209.28-.728-.347-1.858-1.392-2.51-1.045-.653-1.9-2.253-1.9-3.556 0-3.117-2.705-5.545-3.595-3.227-1.246 3.246-9.988.117-13.64-4.881-.454-.622-.74-.634-.75-.033-.008.534-.716-.028-1.572-1.25-1.761-2.516-5.731-3.137-4.817-.755M194.63 294.25c-.331 1.238-.609 3.712-.616 5.5-.008 1.788-.464 3.25-1.014 3.25s-1.007-1.462-1.015-3.25c-.009-1.788-.481-3.925-1.049-4.75-.76-1.103-.955-.176-.735 3.5.291 4.864.219 5.009-2.623 5.333-2.895.33-2.882.351 1.366 2.253l4.288 1.92-.401 9.997c-.221 5.498-.048 9.997.384 9.997.996 0 .848.998 1.475-10 .606-10.632.834-10.963 7.56-10.985 2.613-.008 4.75-.465 4.75-1.015 0-.55-1.294-1-2.875-1s-4.234-.272-5.896-.604l-3.02-.604.534-5.896c.541-5.967-.008-7.768-1.113-3.646m-63.906 20.048c-.948 1.447-1.724 3.019-1.724 3.493 0 1.173-3.906 4.504-7.226 6.161-2.702 1.348-3.709 6.028-1.306 6.063.568.009.404.413-.364.899-.775.491-1.119 1.604-.774 2.503.705 1.838 6.237 1.938 8.581.156 1.155-.878 1.316-.573.889 1.677-.395 2.079-.129 2.75 1.089 2.748 1.144-.001 1.688-1.079 1.877-3.716.147-2.043.724-4.172 1.282-4.73.686-.686.822.2.418 2.738-.445 2.803-.263 3.685.719 3.482.798-.165 1.354.738 1.413 2.296.055 1.412.646 3.437 1.316 4.5 1.036 1.646 1.13 1.339.632-2.068-.322-2.2-.868-6.827-1.213-10.282-.346-3.455-1.012-6.519-1.481-6.809-.468-.29-.897-1.963-.952-3.718-.055-1.755-.403-4.279-.775-5.608l-.676-2.417-1.725 2.632" fill="#d3d3d3" fill-rule="evenodd"/></svg>