<svg xmlns="http://www.w3.org/2000/svg" width="500" height="415"><path d="M386.8.533c-.202.202-19.252.592-42.334.866-23.081.273-47.366.73-53.966 1.015-6.6.284-12.675.46-13.5.391-6.045-.509-262-.453-262 .058 0 .358-1.912.528-4.25.377-7.18-.463-7.97.853-8.913 14.839-.828 12.279-.651 18.009.654 21.171.398.962.464 2.425.147 3.25-.316.825-.139 1.5.393 1.5 1.349 0 1.221 5.749-.137 6.202-1.392.464-1.345 10.482.066 14.193 1.558 4.098 1.39 15.14-.21 13.814-.992-.822-1.338 3.948-1.678 23.128-.523 29.562-.146 142.08.563 168.163.284 10.45.464 19.9.4 21-.065 1.1-.365 6.275-.666 11.5-.683 11.818.448 30.231 1.804 29.393.606-.375.762.675.407 2.751-1.796 10.502-2.739 29.886-1.692 34.768C2.499 371.765 3 382.6 3 392.99c0 10.391.347 19.106.771 19.368 3.953 2.444 124.348 3.078 130.123.686 1.905-.789 3.568-.98 3.948-.454.362.501 1.333 1.126 2.158 1.39 3.644 1.165 203.474.873 204.31-.299.641-.899.963-.882 1.349.069.74 1.822 78.964 1.822 79.633 0 .366-1 .723-1 1.783 0 2.125 2.005 64.925 1.793 64.925-.219 0-.847.592-1.241 1.399-.931 2.365.907 2.578-.75 2.648-20.597.066-18.653.531-22.06 1.948-14.264.375 2.069.67-11.989.655-31.239-.016-19.25.322-48.95.751-66 1.383-55.048 1.574-76.111.667-73.5-.751 2.161-.89 1.89-1.026-2-.087-2.475-.39-9.675-.674-16-.579-12.926.274-21.856 1.768-18.5.526 1.18.599-11.116.178-30-.392-17.6-.604-37.963-.471-45.25.133-7.287-.114-13.25-.55-13.25-1 0-.872-69.666.141-76.735l.75-5.236-56.508.068c-31.08.038-56.674.234-56.876.436m-76.835 9.069c-8.651.86-12.787 1.779-16.851 3.744-2.962 1.432-5.774 2.364-6.25 2.07-.475-.294-.864.018-.864.692 0 .674-.285.941-.633.593-.348-.348-1.458.416-2.466 1.698-1.008 1.281-3.156 2.878-4.772 3.548-3.164 1.31-4.094 3.413-4.115 9.303-.013 3.592 1.167 4.884 2.496 2.734.346-.559 1.117-.715 1.714-.346.693.429.793.198.276-.638-.534-.864-.418-1.068.341-.598.687.425 1.62-.319 2.315-1.846.641-1.406 1.995-2.556 3.009-2.556 1.616 0 7.004-2.301 13.335-5.694 4.021-2.155 17.139-5.588 23.217-6.075 6.833-.549 8.868 1.002 6.432 4.901-1.064 1.705-.822 1.868 2.777 1.868 6.301 0 8.414-1.321 11.023-6.891L343.342 11h5.714c6.404 0 9.436 2.504 7.869 6.5-1.176 2.998-1.069 4.044.275 2.7.66-.66 2.474-1.2 4.031-1.2 1.558 0 3.081-.649 3.385-1.443.408-1.061 1.166-1.21 2.866-.564 2.528.961 4.823-.292 5.823-3.181.78-2.253-2.75-2.793-7.055-1.079-2.603 1.036-3.256 1.042-3.281.03-.068-2.709-4.634-4.801-8.654-3.966-2.098.437-6.665.412-10.149-.055-3.84-.514-6.793-.477-7.5.095-.664.538-4.194.66-8.201.284-3.869-.362-12.194-.146-18.5.481M375 19.915c-3.924.353-5.998.91-5.234 1.404.697.451.965 1.308.596 1.905-.401.647-.206.797.483.371.697-.43 1.155-.052 1.155.953 0 1.07-.537 1.46-1.5 1.09-1.02-.391-1.5.054-1.5 1.393 0 2.334-1.865 2.539-4.559.501-1.067-.808-3.032-1.483-4.365-1.5L357.651 26 360 23.5c1.292-1.375 1.887-2.5 1.324-2.5-3.224 0-7.305 2.714-10.824 7.198-2.2 2.803-4.614 5.725-5.365 6.493-3.97 4.061 11.474 10.929 18.537 8.244 4.099-1.559 6.448.54 13.402 11.976 4.285 7.047 5.337 26.951 1.343 25.419-.873-.335-1.417.095-1.417 1.122 0 .916.45 1.388 1 1.048.604-.373 1 .99 1 3.441 0 4.406-.486 4.763-3.441 2.527-2.256-1.706-5.239-1.929-5.739-.428-.191.572-2.366 1.208-4.833 1.412-2.468.205-6.287 1.067-8.487 1.916s-4.788 1.564-5.75 1.588c-1.953.049-2.385 1.666-.604 2.259.67.224-.162 1.872-2 3.966-5.05 5.752-4.357 6.625 3.771 4.752 4.533-1.045 10.491-.403 9.603 1.035-.728 1.178 2.728 1.854 5.063.991 1.105-.409 3.232-2.592 4.727-4.851 2.525-3.816 2.58-4.108.763-4.108-1.075 0-2.227-.441-2.56-.979-.985-1.594 1.357-5.008 3.002-4.377.976.374 1.506-.067 1.546-1.287.034-1.021.859.618 1.833 3.643 1.287 3.993 1.912 4.952 2.282 3.5.775-3.043 2.965 2.652 3.588 9.331.39 4.179.955 5.54 2.617 6.298 2.519 1.15 6.622 7.11 6.613 9.607-.004 1.164-.538.745-1.569-1.234-4.625-8.87-6.961-8.495-7.782 1.248-.359 4.263-.899 9.775-1.2 12.25l-.546 4.5 1.596-2.774c.878-1.525 1.324-3.213.992-3.75-.332-.537-.126-.976.456-.976 1.472 0 1.322 3.434-.32 7.365-1.771 4.239-8.546 13.135-10.003 13.135-.615 0-1.99.787-3.057 1.75-1.066.962-2.724 1.75-3.684 1.75-.961 0-3.014.519-4.562 1.153-4.897 2.005-5.932 1.856-8.174-1.176-1.204-1.629-3.952-3.86-6.107-4.959-5.701-2.909-11.036-6.682-10.378-7.341.313-.313-.268-.586-1.293-.606-1.025-.021-3.408-.073-5.295-.116-1.888-.043-4.588-.877-6-1.852-1.413-.976-4.368-2.5-6.568-3.387-2.2-.887-3.351-1.636-2.559-1.664 1.046-.038.909-.455-.5-1.52-2.539-1.921-4.025-1.94-2.441-.032 2.191 2.639-.361 1.591-4.891-2.01-2.415-1.919-3.877-3.49-3.25-3.49.628 0 1.141-.502 1.141-1.117 0-.657-1.047-.916-2.544-.63-3.73.713-12.589-4.12-13.293-7.253-.186-.825-.473-4.875-.639-9-.166-4.125-.352-7.831-.413-8.236-.061-.405-1.964-1.962-4.229-3.461-2.264-1.498-3.612-2.893-2.993-3.099 1.295-.432.486-2.204-1.007-2.204-.55 0-.722.45-.382 1 1.07 1.73-.424 1.11-6.157-2.557-3.059-1.957-5.721-3.398-5.917-3.202-.196.195 1.9 3.609 4.657 7.585 4.124 5.949 8.917 14.956 8.917 16.757 0 .229-.873.417-1.941.417-2.211 0-3.65-1.636-1.941-2.206 1.517-.506-3.083-9.947-7.694-15.794a1999.914 1999.914 0 01-9.168-11.764c-4.03-5.209-5.87-6.907-6.504-6-.556.796-.65.339-.252-1.236.512-2.029.412-2.217-.529-1-.987 1.277-1.073 1.232-.577-.302.321-.991.239-1.589-.182-1.329s-1.52-.841-2.442-2.448c-.923-1.606-1.262-2.921-.755-2.921s.627-.787.266-1.75c-.561-1.497-.425-1.563.943-.451 2.143 1.741 3.003.105.946-1.799-.892-.825-1.744-1.388-1.895-1.25-.151.138-.613.231-1.025.209-.412-.023 1.246-1.035 3.685-2.25 5.393-2.686 6.985-4.896 5.135-7.125-2.983-3.594-11.07.095-11.07 5.051 0 .751-.342 1.365-.759 1.365-1.085 0-3.492-4.082-2.81-4.764.313-.313.587.068.608.847.022.779.711-.132 1.533-2.026 1.999-4.609 1.243-6.057-3.163-6.057-3.304 0-3.522.162-2.281 1.687 1.204 1.481 1.154 1.606-.408 1.02-1.317-.494-2.093.043-2.98 2.063-.66 1.501-1.641 3.04-2.18 3.419-.589.414-.235 1.512.885 2.75 1.026 1.134 1.378 2.061.783 2.061-.596 0-2.003-1.17-3.127-2.599-1.805-2.294-1.871-2.774-.567-4.078 3.589-3.589 3.742-5.323.47-5.323-1.798 0-3.304.618-3.64 1.494-.316.822-.919 1.281-1.34 1.021-.422-.261-1.21 1.767-1.752 4.505-.775 3.922-.708 4.98.314 4.98.801 0 1.446-1.628 1.682-4.25l.383-4.25.174 4.75c.162 4.384-.008 4.75-2.203 4.75-3.664 0-5.153-2.403-3.209-5.18 2.079-2.968 2.077-6.82-.003-6.82-2.474 0-5.349 4.156-4.843 7 .245 1.375.189 1.966-.123 1.313-.41-.856-1.109-.724-2.506.472-2.413 2.066-2.508 4.215-.188 4.216 1.324.002 1.816.959 2.019 3.928.148 2.16.983 5.871 1.856 8.249 1.676 4.563 4.296 16.27 4.771 21.322.156 1.65.657 3.861 1.113 4.914.591 1.36.492 1.705-.339 1.191-1.405-.868-1.556 17.67-.17 20.895l.859 2 .074-2c.088-2.367 3.648-8.5 4.934-8.5 1.317 0-1.163 6.565-3.423 9.062-1.069 1.182-1.782 2.333-1.583 2.56.378.431-.617 8.253-1.544 12.139-.417 1.747-.187 2.126 1.009 1.667 1.703-.653 6.854-14.796 6.103-16.754-.258-.672.171-3.349.953-5.949.809-2.687 1.034-4.968.521-5.285-.497-.307-.903-1.051-.903-1.654s.872-.307 1.937.657 2.415 1.457 3 1.096c.663-.41 1.063.506 1.063 2.434 0 4.304 2.653 10.36 4.137 9.443.814-.504 1.007-.076.625 1.386-.439 1.68 1.269 3.87 8.308 10.656 4.873 4.698 9.37 8.542 9.992 8.542.622 0 3.156 1.782 5.63 3.96 2.475 2.179 9.519 6.96 15.654 10.626 6.135 3.665 12.954 8.118 15.154 9.896 2.2 1.777 6.025 4.256 8.5 5.509 2.475 1.253 4.725 2.6 5 2.994.915 1.31 4.841 3.015 6.943 3.015 1.142 0 3.488 1.35 5.214 3 3.672 3.509 6.212 4.086 3.017.686-3.287-3.499-2.605-4.473.828-1.184 2.252 2.157 2.69 3.103 1.75 3.782-.899.649-.794.76.371.39.893-.282 4.268 1.086 7.5 3.042 3.232 1.955 8.802 5.095 12.377 6.977 3.62 1.906 5.282 3.166 3.75 2.845-1.578-.33-2.75-.142-2.75.443 0 .56.638 1.019 1.418 1.019.78 0 2.204.301 3.164.67 1.191.457 1.516.298 1.023-.5-1.004-1.624-.407-1.5 5.648 1.178 5.519 2.441 14.577 8.57 14.685 9.937.086 1.088-3.713-1.006-8.188-4.514l-3.75-2.939v3.084c0 1.696.45 3.084 1 3.084 2.07 0 .88 1.75-2.389 3.51-5.895 3.175-11.536-.344-12.578-7.847-.682-4.91-3.688-5.457-8.883-1.616-1.625 1.202-3.561 1.96-4.302 1.685-.953-.353-.762-.733.652-1.298 1.1-.439 3.252-1.713 4.783-2.829l2.784-2.03-4.27-2.179-4.269-2.178-1.264 3.006c-1.687 4.012-1.651 4.076 1.236 2.184 1.375-.901 2.5-1.396 2.5-1.1 0 1.135-5.789 6.262-6.72 5.952-.539-.18-1.604.425-2.366 1.344-1.952 2.352 1.568 4.558 7.658 4.8 3.81.152 4.938-.236 6.518-2.245 2.07-2.632 2.594-1.306.805 2.038-1.046 1.954-.912 2.029 2.5 1.389 2.372-.445 3.605-.299 3.605.428 0 .607-.45.826-1 .486-.55-.34-1-.141-1 .441s.675 1.059 1.5 1.059c1.731 0 1.952 2.286.486 5.026-.968 1.81-.599 1.874 8.25 1.442 5.095-.249 10.952-.456 13.014-.46 4.797-.01 4.772-1.446-.067-3.915-3.915-1.997-7.214-5.093-5.428-5.093.55 0 1.56.675 2.245 1.5s1.885 1.5 2.668 1.5c.783 0 2.577 1.154 3.988 2.565 1.41 1.41 3.19 2.324 3.954 2.031.765-.293 1.39-.158 1.39.301 0 .459 1.8.505 4 .103 3.137-.574 4-.424 4 .693 0 .784.418 1.167.928.851.891-.55 2.679 3.157 2.27 4.706-.109.412.665.75 1.72.75 2.961 0 5.082 1.075 5.082 2.576 0 .859-.614 1.126-1.664.723-1.195-.459-1.438-.273-.861.661.89 1.44 1.026 1.485-5.975-1.983-2.75-1.362-5.151-2.817-5.335-3.233-.185-.416-.817-.459-1.405-.096-.609.377-.779.192-.396-.429.935-1.513-4.263-1.884-13.334-.951-5.103.524-7.745 1.259-8.339 2.319-.782 1.397-.985 1.393-2.033-.04-2.218-3.033-8.085-3.028-17.442.013-10.607 3.448-10.252 3.178-7.302 5.569 1.54 1.249 2.65 1.577 3.063.908.357-.578 1.686 1.45 2.953 4.506 2.594 6.261 2.317 8.524-.333 2.717-1.074-2.352-3.02-4.415-5.198-5.51-5.178-2.603-5.592-2.211-3.136 2.96 2.407 5.067 5.067 8.29 6.844 8.29.609 0 .834.712.5 1.582-.334.87-.652 2.332-.707 3.25-.056.936-.402.572-.79-.832-.582-2.109-1.375-2.549-5.07-2.816-5.743-.414-9.04.476-9.04 2.442 0 1.001.555 1.375 1.5 1.012.825-.316 1.5-.172 1.5.321 0 .494 2.364 1.192 5.253 1.553l5.253.657-.003 6.915c-.002 3.94.427 6.919.997 6.923 1.428.012 3.364 4.596 2.518 5.964-.466.754-1.285.27-2.387-1.411-1.495-2.282-2.337-2.56-7.761-2.56-4.997 0-5.981.268-5.508 1.5.316.825.139 1.5-.393 1.5-.533 0-.969.9-.969 2 0 1.149.667 2 1.567 2 1.113 0 1.383-.581.933-2-.773-2.437-.298-2.475 3.8-.307 1.76.931 4.17 1.579 5.354 1.441 1.185-.139 2.45.224 2.81.807.395.64-.358 1.059-1.905 1.059-1.684 0-2.559.55-2.559 1.607 0 1.018.55 1.396 1.5 1.031 1.016-.389 1.5.051 1.5 1.365 0 1.345-.996 2.203-3.25 2.8l-3.25.86 4.285 2.207c4.314 2.221 4.815 4.13 1.085 4.13-1.789 0-1.846.167-.513 1.5 2.208 2.208 2.751 1.975 8.143-3.5 2.709-2.75 5.375-5 5.925-5 .55 0-1.216 2.25-3.925 5-3.007 3.053-4.323 5-3.379 5 .85 0 1.863-.317 2.25-.704.388-.388 1.924-.868 3.415-1.068 1.49-.2 3.088-1.038 3.55-1.864.462-.826 5.289-6.057 10.726-11.625 5.438-5.568 9.676-10.335 9.418-10.592-.257-.257-1.373.351-2.48 1.353-2.809 2.542-3.43 1.387-.72-1.338 3.622-3.64 19.081-12.512 18.198-10.444-.419.98-.973 3.02-1.233 4.532l-.472 2.75h6.493c6.483 0 6.499.007 10.18 4.5 2.029 2.475 3.231 4.5 2.672 4.5-.559 0-2.218-1.575-3.686-3.5-2.966-3.889-5.302-4.317-12.997-2.379l-4.45 1.12 3.451 3.82c6.336 7.013 6.08 14.207-1.03 29.033-4.501 9.384-5.428 10.559-16.835 21.342-6.639 6.276-13.37 12.426-14.957 13.667-3.303 2.582-8.623 10.532-8.595 12.843.01.855 1.413-.666 3.116-3.38 5.517-8.788 8.641-9.882 8.759-3.066.031 1.753-.135 1.693-1.341-.486l-1.376-2.485-1.838 3.385c-1.012 1.862-3.752 6.302-6.089 9.868-5.263 8.028-5.81 13.901-1.735 18.639l2.512 2.921-2.111 2.247c-1.677 1.786-1.965 2.932-1.399 5.579 1.285 6.011 1.551 6.191 10.354 7.034 1.072.103 1.268 1.73.9 7.465L353.3 408h3.35c3.9 0 3.987-.339 1.429-5.571-1.917-3.921-1.242-5.639 1.366-3.475 2.27 1.885 2.64-.399.785-4.847-1.28-3.069-2.487-4.348-4.641-4.918-1.656-.438-3.023-1.54-3.172-2.557-.193-1.314.18-1.608 1.41-1.113.92.371 2.123.756 2.673.856 2.233.405 3.662 1.99 5.151 5.71.861 2.153 2.192 3.915 2.958 3.915.765 0 1.391.873 1.391 1.941s.418 2.199.928 2.515c1.381.853 2.448-3.48 1.171-4.757-1.374-1.374-1.456-4.038-.099-3.199.55.34 1-.011 1-.78 0-.77-1.125-1.912-2.5-2.538-1.375-.627-2.5-1.856-2.5-2.732 0-1.451.141-1.452 1.578-.015 2.957 2.957 5.114 3.641 6.439 2.044 1.722-2.074 3.734-1.84 4.483.521.782 2.464 2.506 2.638 2.485.25-.024-2.751-1.49-4.377-3.315-3.677-1.94.745-2.212-.631-.47-2.373 2.124-2.124 3.561-1.289 4.268 2.481.511 2.723.926 3.309 1.596 2.25.498-.787.912-.986.921-.441.008.544 1.14-.224 2.515-1.707 3.292-3.549 3.199-3.783-1.5-3.783-5.258 0-5.133-1.633.194-2.533l4.194-.708-2.944-1.218c-2.391-.989-3.005-.966-3.267.121-.447 1.848-1.934 1.675-4.768-.555-1.782-1.402-2.05-2.031-1.03-2.422.757-.291 1.882-.024 2.499.593.829.829 1.435.809 2.322-.078.933-.933.93-1.2-.015-1.2-.668 0-2.065-1.399-3.105-3.109l-1.891-3.109-1.49 2.359c-.82 1.297-1.801 3.396-2.18 4.664-.893 2.988-3.119 2.245-2.692-.898.432-3.175 4.066-8.404 9.647-13.882 5.1-5.005 5.513-4.264 2.462 4.418l-2.065 5.873 2.065 2.064 2.064 2.064v-3.122c0-6.139 12.596-27.488 19.182-32.512 4.728-3.606 12.379-22.966 13.165-33.31.299-3.933.204-5.685-.216-4-1.092 4.377-3.292 9.672-3.806 9.159-.244-.244.281-2.937 1.167-5.984 1.591-5.474 1.58-5.599-.941-10.574-1.403-2.769-2.551-5.619-2.551-6.333 0-.713-.9-2.977-2-5.029-2.238-4.176-2.467-5.146-1-4.239.621.384 1-1.49 1-4.941 0-3.398-.43-5.559-1.107-5.559-.609 0-.843-.687-.521-1.527.322-.84-.052-3.427-.833-5.75-1.306-3.887-2.007-9.723-1.674-13.942.151-1.928 9.159-8.068 13.395-9.132 4.172-1.047 15.74 2.291 15.74 4.541 0 1.12 1.011 1.994 2.75 2.374 5.105 1.119 5.493 1.399 4.929 3.555-.736 2.815.989 7.204 2.472 6.288.847-.524 1.006.925.598 5.43-.307 3.379-.174 9.185.296 12.903.795 6.303-.294 14.26-1.953 14.26-.326 0-.637 2.362-.692 5.25-.055 2.887-.453 9.075-.884 13.75-.432 4.675-.408 8.147.052 7.715.46-.432.73-2.363.6-4.291-.275-4.086.488-5.759 2.151-4.717.65.407 1.631.796 2.181.864.55.069 1.536.193 2.191.277.872.111.808.886-.243 2.902-.879 1.686-1.2 4.008-.83 6 .756 4.064-.382 10.514-1.709 9.694-.545-.337-.754-1.362-.466-2.278.289-.916.139-3.016-.333-4.666l-.858-3-1.126 2.815c-2.912 7.281-.46 20.518 3.518 18.991 1.364-.523 1.418-.29.382 1.646-.664 1.24-1.59 4.964-2.058 8.275-.503 3.558-1.641 6.889-2.782 8.146-1.062 1.17-1.721 2.705-1.464 3.411.641 1.76-1.571 4.216-3.796 4.216-2.175 0-7.348 7.214-8.248 11.5-.346 1.65-.932 4.064-1.3 5.364-.599 2.11-.425 2.286 1.621 1.636 2.792-.886 6.926-5.402 6.969-7.612.018-.887 1.303-3.213 2.857-5.168 2.929-3.686 5.289-3.744 5.26-.13-.045 5.49-.746 6.997-4.335 9.319-2.307 1.493-3.75 3.208-3.75 4.459 0 1.58-.267 1.765-1.2.832-1.776-1.776-3.8-1.456-3.8.6 0 2.464-1.942 4.2-4.7 4.2-1.265 0-2.3.426-2.3.946 0 .547 2.423.718 5.75.405 8.132-.764 11.105-.514 14.816 1.247 5.223 2.479 9.653 1.541 11.391-2.41 1.157-2.631 1.878-3.186 3.5-2.698 1.124.338 3.843.882 6.043 1.208 2.2.327 4.9 1.242 6 2.033 1.815 1.305 1.583 1.373-2.5.726-2.475-.392-5.38-1.037-6.456-1.433-1.612-.594-2.561.266-5.386 4.878-6.689 10.921-6.58 10.497-2.897 11.333 4.361.989 7.736.117 7.754-2.004.009-.98.334-1.297.75-.731.404.55 3.098 1.098 5.985 1.218 4.937.205 5.25.075 5.25-2.185 0-3.546 1.602-7.155 5.118-11.53 2.405-2.993 2.978-4.486 2.48-6.468-.355-1.417-.206-3.399.333-4.406 1.299-2.428 2.747-41.336 2.069-55.629-.211-4.458-.319-4.675-1-2-.583 2.293-.791 2.489-.882.833-.065-1.191-.512-2.316-.994-2.5-1.24-.471-4.145-14.165-4.558-21.483-.19-3.383-.672-8.953-1.069-12.379-.52-4.479-.411-6.036.39-5.541 1.498.926 1.401-1.172-.302-6.502-1.885-5.9-2.72-12.129-1.526-11.391 1.26.778 1.234.628-.992-5.842-1.785-5.187-2.759-9.961-3.461-16.947-.433-4.319-1.606-4.5-1.606-.248 0 4.846-.641 4.27-1.475-1.326-.415-2.787-.217-4.84.556-5.771.81-.976.999-3.47.584-7.674-.503-5.084-.397-5.861.576-4.229.656 1.1 1.137 4.925 1.07 8.5l-.121 6.5 1.309-5c2.265-8.649 2.317-13.054.151-12.683-1.108.19-1.587-.11-1.193-.747 2.379-3.849-.76-17.474-5.587-24.253-1.638-2.3-1.835-3.371-1.027-5.582.807-2.209 1.026-2.351 1.137-.735.076 1.1 1.474 4.7 3.107 8 1.979 3.999 2.84 5.083 2.58 3.25-.665-4.696 1.039-3.048 4.408 4.263 3.411 7.4 5.311 8.908 2.559 2.031-1.613-4.033-5.728-21.516-5.529-23.497.058-.576.716.753 1.463 2.953l1.358 4-.438-6.5-.438-6.5 1.561 7c1.676 7.514 3.527 10.942 3.216 5.956-.101-1.626-.429-3.406-.728-3.956-.299-.55-.585-3.328-.635-6.172-.05-2.845-.663-5.863-1.363-6.707-.716-.862-.926-2.095-.48-2.817.558-.902.975-.543 1.403 1.206.474 1.934.776 1.27 1.356-2.977.602-4.41.444-5.688-.817-6.61-1.7-1.243-2.194-2.931-.563-1.923 1.417.876 1.239-1.992-.361-5.821-1.774-4.247-3.203-17.146-1.803-16.28 2.919 1.804 3.014-7.642.14-13.952-2.324-5.102-2.503-6.728-.44-4.001 2.783 3.681 4.055.48 2.603-6.552-1.499-7.256-.984-8.328 1.803-3.757l2.051 3.363-.037-4.5c-.035-4.333-.262-4.667-6.119-9-3.346-2.475-8.39-6.618-11.21-9.206-2.82-2.588-7.542-5.891-10.494-7.338C445.504 76.186 424.89 71 420.496 71c-2.215 0-1.814 1.528.754 2.872 2.045 1.07 1.943 1.129-1.125.653-1.856-.289-4.106-.532-5-.54-.935-.009-1.2-.328-.625-.75 1.332-.979 1.738-3.235.582-3.235-.505 0-1.743-.301-2.75-.67-1.731-.632-1.727-.549.073 1.5 1.831 2.085.205 3.446-1.764 1.478-.381-.381-1.684-.844-2.897-1.029-3.186-.486-14.663-7.602-13.997-8.678.309-.501.065-.603-.542-.228-.953.589-3.205-2.104-3.205-3.833 0-.325 3.262 1.195 7.25 3.379 8.381 4.591 12.482 5.699 26.25 7.097 20.563 2.087 29.15 5.738 44.103 18.75 7.981 6.945 8.377 7.16 8.953 4.869.364-1.453-.286-4.515-1.648-7.767-2.922-6.974-3.38-7.512-6.997-8.236-1.825-.365-2.776-1.041-2.376-1.688.367-.594 1.297-.839 2.066-.544 1.725.662 1.723-.187-.009-3.313-1.743-3.146-32.103-13.243-34.029-11.317-.31.31-.563.151-.563-.353s-2.55-.917-5.667-.917c-3.644 0-5.815-.446-6.083-1.25-.484-1.453-3.864-1.684-4.706-.322-.315.51.446 1.259 1.691 1.663 2.202.714 2.186.756-.57 1.508-3.511.958-5.408.287-6.194-2.191-.333-1.05-1.363-1.922-2.288-1.938-1.493-.027-1.477-.15.14-1.091 1.73-1.006 1.735-1.158.095-2.97-.95-1.05-2.333-1.909-3.073-1.909-.74 0-1.345-.525-1.345-1.167 0-.641-.296-.87-.658-.508-.362.362-1.262.156-2-.456-.738-.613-1.342-.818-1.342-.456 0 .361-.83.213-1.845-.33-1.015-.543-3.114-1.218-4.664-1.499-5.709-1.035-5.287-2.742.509-2.059 8.317.981 11.564 2.261 15.193 5.992 3.224 3.314 3.56 3.414 13.416 3.994 5.56.328 12.31 1.213 15 1.967 14.785 4.145 20.091 5.714 21.891 6.475 1.1.465 3.432 1.382 5.182 2.039 1.75.657 4.65 2.277 6.444 3.601 6.255 4.615 6.673 2.314.747-4.115-4.964-5.385-3.04-6.024 2.335-.775 6.617 6.461 4.086 1.596-3.361-6.463-6.489-7.021-14.065-13.225-16.164-13.236-1.164-.006 5.985 8.907 10.111 12.606 3.751 3.364 2.986 5.513-.926 2.6-1.303-.969-3.675-2.426-5.273-3.236-1.96-.994-2.4-1.573-1.354-1.777 1.229-.241.846-1.353-1.845-5.351-1.868-2.776-3.396-5.44-3.396-5.921 0-2.283-20.07-9.243-25.21-8.742-2.038.198-3.265-.132-3.274-.883-.035-2.634-7.37-5.357-26.016-9.656-14.093-3.249-15.681-3.433-23.5-2.729m-167.083 2.168c-.216 1.08-.861 4.992-1.83 11.101-1.569 9.895.977 21.496 4.428 20.172 2.201-.845 1.813-5.993-.707-9.402-2.176-2.943-2.179-3.018-.483-10.086 1.389-5.786 1.472-7.408.442-8.649-.697-.839-1.117-1.72-.934-1.956.184-.236.071-.692-.25-1.013-.321-.321-.62-.396-.666-.167m119.904 4.209l-4.68 1.017 4.106 4.869c3.01 3.569 4.342 4.529 4.99 3.596.547-.788.648-.07.265 1.881-.817 4.161.987 5.174 4.065 2.282 2-1.879 2.382-3.121 2.205-7.182-.188-4.328-1.772-8.236-1.772-4.373 0 .825-.498 1.808-1.107 2.184-.77.476-.898-.268-.42-2.441.776-3.536.496-3.603-7.652-1.833m47.223 2.194c-3.051 1.102-3.213 1.326-1.382 1.907 1.14.362 3.371.162 4.956-.445 3.63-1.389 13.014-.317 14.663 1.676 3.261 3.939 4.95 4.982 8.436 5.213 2.081.138 6.933.926 10.783 1.753 3.85.826 9.43 1.919 12.4 2.428 2.97.509 6.795 1.372 8.5 1.918 1.705.546 4.341 1.204 5.859 1.463 1.517.26 3.767.749 5 1.088 2.214.609 2.217.597.241-1.017-5.558-4.539-10.566-6.003-30.684-8.967-13.425-1.978-16.608-2.764-17.965-4.44-3.299-4.073-13.25-5.305-20.807-2.577M77 29.53c2.605 1.198 3.944 1.335 5.236.539 2.107-1.297 5.097-1.417 4.329-.174-.911 1.474 2.391 2.178 7.312 1.559 2.543-.32 7.773-.072 11.623.551 3.85.622 9.025 1.364 11.5 1.649 5.838.672 14.802 3.216 15.541 4.412.764 1.236-1.867 1.191-4.744-.083-3.766-1.667-20.73-4.03-29.064-4.048-4.271-.009-10.796-.459-14.5-.999-3.703-.541-7.52-1-8.483-1.022-.963-.021-1.75-.379-1.75-.794 0-.416-1.237-.83-2.75-.92-1.513-.09-5.321-.452-8.464-.803-3.143-.351-6.518-.288-7.5.14-.982.428-2.461.689-3.286.579-1.333-.177-1.333-.085 0 .827 2.402 1.643-1.357 1.352-5.638-.436-4.218-1.763-4.744-1.528-7.419 3.308-1.916 3.465-2.001 3.51-1.427.76.535-2.568.419-2.766-.953-1.627-.958.795-1.563.885-1.563.233 0-.584.45-1.341 1-1.681 1.999-1.235.928-2.5-2.117-2.5-2.744 0-3.044.269-2.513 2.25.331 1.237.609 3.064.616 4.059.008.995.464 1.531 1.014 1.191 1.47-.909 1.235-.013-.983 3.746-1.09 1.848-2.479 6.93-3.086 11.292-.606 4.362-1.296 8.244-1.533 8.627-.237.383-.006.959.514 1.28.519.321 1.229-.313 1.577-1.41.348-1.097 1.168-1.891 1.822-1.765.654.127 1.238-.895 1.297-2.27.262-6.035.406-6.582 1.312-5 .514.899.132 5.51-.954 11.5-2.493 13.75-2.608 14.936-1.466 15.022.55.042 2.034.429 3.298.86 1.483.505 2.88.31 3.937-.549 1.418-1.153 1.551-1.097.984.417-.361.963-.247 1.75.253 1.75 1.389 0 2.526-2.334 1.332-2.732-.578-.193 1.367-2.827 4.323-5.854C48.582 68.387 51 65.181 51 64.289c0-.892.288-1.334.64-.982.352.352 2.04-.087 3.75-.976a275.35 275.35 0 014.767-2.424c2.131-1.039 17.106-3.751 22.462-4.069 2.8-.166 4.663.301 5.821 1.459 2.125 2.125 2.503 2.121 4.247-.047 1.255-1.561 1.336-1.371.745 1.75-.365 1.925-1.083 4.022-1.596 4.661-.59.734-.533 1.408.156 1.834.617.381.792 1.61.404 2.831-.607 1.913-.497 2.003.96.794.904-.751 1.644-1.985 1.644-2.742 0-.758.702-1.378 1.559-1.378s1.293.43.968.956c-.325.526.099 2.606.941 4.622 1.785 4.271 1.998 10.683.451 13.573-.595 1.111-.885 2.216-.646 2.455.455.456 10.131-1.311 12.727-2.323.825-.322 2.104-.708 2.842-.859 2.49-.508 2.3-1.2-3.043-11.073-4.542-8.391-5.737-9.898-8.065-10.167-1.504-.174-2.734.163-2.734.75 0 .586-.691 1.066-1.535 1.066-1.216 0-1.317-.409-.485-1.963.578-1.079 1.606-1.828 2.285-1.664.679.165.895.11.479-.122-1.916-1.068.602-2.023 3.028-1.147 2.506.904 13.228 17.87 13.228 20.932 0 .53.9.964 2 .964 3.758 0 1.316-6.755-4.789-13.25-1.422-1.513-2.129-2.75-1.572-2.75 1.614 0 5.061 4.131 8.134 9.751l2.84 5.193 2.943-5.655c1.619-3.111 3.508-5.836 4.196-6.056.689-.221-.394 2.841-2.407 6.803-2.288 4.502-3.612 8.471-3.533 10.584.07 1.859-.273 3.38-.763 3.38s-1.185 1.345-1.546 2.989c-.769 3.5-2.503 5.009-2.503 2.177 0-4.125-8.091-3.256-12.781 1.372-1.254 1.238-3.954 2.564-6 2.947-4.792.897-9.122 5.761-9.178 10.309-.032 2.57-.425 3.229-1.791 3-2.442-.41-3.129-3.702-1.568-7.512 1.741-4.251 1.666-6.934-.214-7.656-1.734-.665-3.085 2.124-4.099 8.469-.371 2.321-1.388 4.38-2.442 4.944-2.461 1.317-3.179-.146-2.343-4.772.392-2.166.306-3.415-.201-2.938-.486.455-1.142 4.955-1.458 10l-.574 9.171-.176-10.25c-.162-9.473-1.076-12.557-2.568-8.668-1.121 2.92-.663 11.233.643 11.672.977.329.953.781-.11 2.069-.799.968-1.474 4.645-1.636 8.912-.151 3.996-.61 8.736-1.018 10.533-.631 2.775-.497 3.174.885 2.643 1.801-.691 2.187.631.638 2.18-1.171 1.171 1.63 5.75 3 4.904.479-.297 2.361.723 4.181 2.265 5.493 4.653 9.798 7.561 21.076 14.236 6.541 3.871 10.406 6.732 9.848 7.29-.558.558-2.358-.059-4.585-1.572-4.458-3.03-7.529-2.583-7.529 1.094 0 2.493.049 2.513 1.547.633 1.454-1.824 1.51-1.73.929 1.559l-.618 3.5 2.065-3c2.059-2.993 2.497-2.784 2.095 1-.193 1.813-.004 1.767 2.03-.5l2.242-2.5-.631 2.5c-.348 1.375-.645 2.95-.661 3.5-.016.55-.485.325-1.044-.5-.755-1.116-.875-.731-.469 1.5.389 2.139.304 2.447-.295 1.073-.781-1.791-.888-1.803-1.515-.168-1.009 2.629-.796 4.33.325 2.595.704-1.09.974-1.142.985-.191.008.733.523.995 1.17.596.682-.422.884-.277.493.355-.363.588-.095 1.297.596 1.576.691.278.019.542-1.494.585-1.568.045-2.757-.458-2.765-1.171-.011-.838-.345-.756-1.015.25-.703 1.057-.826.17-.416-3 .544-4.206.48-4.373-.986-2.559-.862 1.068-1.568 2.546-1.568 3.285 0 .74-.727 2.454-1.615 3.809-1.541 2.352-1.518 2.465.5 2.465 1.163 0 2.115-.45 2.115-1s.394-1 .875-1 .875 1.089.875 2.421c0 1.51-.465 2.242-1.236 1.946-.691-.265-1.957 1.047-2.875 2.981-1.951 4.111-2.053 5.838-.439 7.452.667.667.756 1.2.2 1.2-3.01 0-3.435-5.233-.914-11.261.566-1.354.364-1.619-.875-1.143-1.687.647-1.767.903-1.919 6.154-.052 1.788-.419 3.25-.815 3.25-.397 0-1.259 1.629-1.916 3.62-.658 1.99-1.48 3.228-1.828 2.75-.348-.479-1.758-.98-3.133-1.114-6.646-.649-7.011-.971-6.832-6.025.167-4.704.171-4.708.575-.744.464 4.555 1.463 5.476 5.962 5.498 3.448.016 3.294.353 4.671-10.19.403-3.09.144-3.813-1.565-4.355-2.566-.814-6.31 1.121-7.551 3.904l-.944 2.115-1.208-2.258c-1.024-1.913-.885-2.669.913-4.955 1.168-1.484 1.698-2.84 1.178-3.013-.519-.173-.71-2.389-.425-4.924.647-5.737-1.223-5.157-2.154.669-.354 2.212-1.088 4.022-1.632 4.022-.543 0-1.02 1.012-1.058 2.25-.039 1.238-.496 3.15-1.016 4.25-.71 1.502-.841.942-.525-2.25.231-2.338.056-4.025-.391-3.749-.446.276-.597-.511-.336-1.75.43-2.034.364-2.076-.677-.44-.634.996-.895 2.482-.58 3.302.319.832.14 1.224-.405.887-.554-.342-.719.068-.382.948.328.854.098 1.552-.511 1.552s-1.114-.787-1.122-1.75c-.013-1.496-.157-1.532-.985-.25-.72 1.113-.973.519-.985-2.309-.009-2.281-.416-3.561-1.015-3.191-1.266.782-1.306-3.947-.07-8.257.512-1.783.561-3.243.109-3.243-.452 0-1.105 1.125-1.45 2.5s-1.069 2.5-1.608 2.5c-.54 0-.981 1.35-.981 3s-.45 3-1 3c-1.288 0-1.261-2.519.078-7.344 1.43-5.148.345-5.914-1.641-1.159-1.079 2.581-1.485 6.009-1.263 10.667.26 5.472.05 6.757-1.035 6.338-1.009-.389-1.203.106-.749 1.914.396 1.581.046 3.005-.995 4.046-1.792 1.792-2.829 11.152-1.337 12.074.528.326.942-1.13.942-3.31 0-2.141.313-4.206.696-4.588.382-.383.79-1.245.906-1.917.381-2.206 3.319-8.251 3.359-6.912.065 2.172 2.03.241 2.155-2.118.083-1.559.243-1.71.557-.525.243.917-.664 4.967-2.016 9-3.938 11.751-3.466 22.607 1.546 35.581 1.906 4.934 7.493 11.253 9.95 11.253 1.4 0 8.306-6.059 8.482-7.443.074-.581.193-1.507.265-2.057.072-.55.592-.325 1.157.5.912 1.333.995 1.333.742 0-.156-.825.99-3.673 2.547-6.329 2.775-4.734 3.172-7.205.674-4.195-.696.838-1.744 1.524-2.33 1.524-.585 0 .23-1.351 1.812-3.002 1.624-1.695 3.148-2.564 3.499-1.996.342.554 1.882-2.258 3.421-6.248 2.721-7.052 5.611-11.92 4.083-6.879-.504 1.666-.378 2.164.424 1.669.628-.388 1.049-2.357.936-4.375-.114-2.018.374-5.469 1.085-7.669 1.559-4.827 3.627-7.354 2.66-3.25-.986 4.183.264 3.288 2.516-1.801 1.326-2.998 2.586-4.494 3.693-4.385 3.084.305 4.305-.054 3.671-1.08-.346-.559-1.047-.758-1.559-.441-.512.316-.924-.689-.916-2.234.011-2.016.265-2.415.899-1.413.683 1.077 1.249.689 2.485-1.701 2.045-3.954 2.075-6.17.049-3.636-1.502 1.879-1.531 1.867-.909-.382.446-1.614.08-2.782-1.198-3.825-1.736-1.415-1.7-1.47.622-.964 1.513.329 3.153-.088 4.25-1.081 1.436-1.299 1.79-1.341 1.802-.212.013 1.147.204 1.129 1.041-.095.775-1.134.954-.66.735 1.948-.26 3.077.122 3.683 3.534 5.614 2.598 1.471 3.366 2.342 2.393 2.716-.787.302-2.734-.309-4.325-1.358-3.787-2.496-4.847-2.413-6.166.48-1.492 3.275-.404 3.998 1.967 1.307l1.945-2.207-.54 2.557c-.517 2.447-.219 2.637 6.892 4.408 8.316 2.071 9.022 4.065 1.131 3.192l-5.122-.567 4 1.929c2.2 1.061 4.467 1.94 5.039 1.955.571.014 2.803.926 4.961 2.026 2.158 1.1 4.728 2 5.711 2 2.851 0 2.069 1.829-.961 2.247-2.721.376-2.709.398 1.108 2.125 4.468 2.021 4.197 2.15 4.993-2.372.778-4.42.474-4.825-7.116-9.469-3.446-2.109-6.085-4.015-5.864-4.235.429-.429 13.297 6.189 15.366 7.903 2.023 1.675 3.662.362 8.312-6.658 2.426-3.664 4.575-6.17 4.775-5.569.2.601-.372 2.215-1.272 3.588-.899 1.373-1.393 2.888-1.097 3.367.295.478-.811 2.313-2.459 4.077-3.739 4.003-3.731 4.565.097 6.544 1.701.88 2.845 1.847 2.543 2.15-.303.302-2.11-.37-4.017-1.495-2.733-1.613-3.575-1.76-3.983-.697-.664 1.732 1.677 3.695 3.55 2.976.792-.304 2.256.349 3.253 1.451 1.361 1.504 2.258 1.764 3.602 1.045 1.981-1.06 8.417 2.743 15.365 9.081 7.542 6.881 9.036 5.997 2.471-1.462-2.268-2.576-3.9-4.907-3.628-5.179.627-.627 9.047 8.699 12.869 14.253 1.591 2.312 2.471 4.465 1.956 4.783-.515.318-1.218.121-1.564-.438-1.149-1.858-3.285-1.05-3.921 1.484-.345 1.375-1.084 2.5-1.643 2.5-.682 0-.676-.637.019-1.934 2.554-4.773.284-7.458-3.287-3.887-1.47 1.47-1.44 1.789.36 3.865 2.434 2.806 2.588 4.809.212 2.748-2.085-1.808-8.25-3.15-8.25-1.796 0 .521 1.463 1.405 3.25 1.966 2.982.935 2.838.986-1.75.621-2.933-.233-6.394.185-8.372 1.01-1.855.774-4.63 1.407-6.167 1.407-3.491 0-11.009 3.172-15.329 6.467-4.077 3.11-18.373 9.786-19.88 9.284-.613-.205 1.332-1.364 4.321-2.578 2.989-1.213 6.783-3.352 8.431-4.753l2.996-2.547-5.233.596c-4.818.548-11.137 4.364-10.601 6.401.091.347-2.159.67-5 .718-2.841.049-4.379-.097-3.416-.323 1.824-.429 2.499-4.265.75-4.265-.55 0-1.979.979-3.175 2.175-2.105 2.105-2.113 2.198-.252 2.85 1.542.541 1.278.77-1.331 1.153-1.789.262-3.439.292-3.666.065-1.685-1.685 7.107-15.243 9.884-15.243 2.594 0 2.4-2.742-.289-4.076-3.271-1.624-14.204-2.105-15.921-.701-.865.707-1.25.676-1.25-.101 0-.617-.643-1.122-1.429-1.122-.785 0-2.135-.707-3-1.571-1.475-1.476-1.711-1.269-1.971 1.721-.055.633 1.014 1.321 2.376 1.529 1.362.207 3.34.951 4.394 1.651 2.327 1.545 3.116 6.337 1.044 6.337-.778 0-1.414-.825-1.414-1.834 0-1.008-.562-1.818-1.25-1.8-2.142.057-5.765 3.703-5.595 5.63.346 3.924-.366 5.956-1.023 2.919-.936-4.323-2.746-4.24-7.044.325-2.121 2.251-4.309 4.093-4.865 4.093-.555 0-1.306.775-1.67 1.722-.533 1.39-.823 1.459-1.506.355-.561-.909-1.846-1.167-3.829-.771-2.89.578-8.203-1.388-11.788-4.364-1.938-1.609-2.755-.665-2.649 3.062.047 1.668-.284 2.803-.737 2.523-1.015-.627-1.902-7.527-.968-7.527 1.957 0 1.864-6.503-.121-8.456l-2.077-2.044-1.818 2.211-1.818 2.212-1.747-4.576c-1.344-3.52-1.595-6.068-1.085-11.043.463-4.525.338-6.266-.418-5.799-.594.367-1.769.095-2.612-.605-1.248-1.036-1.693-1.012-2.399.13-.664 1.076-1.114.75-1.93-1.395-.585-1.539-1.611-2.615-2.281-2.392-.67.224-2.354-.184-3.744-.906-1.984-1.031-2.612-1.047-2.926-.075-.22.681-.82 1.513-1.334 1.849-.514.336.297 1.58 1.802 2.764 1.506 1.184 2.455 2.436 2.109 2.782-.346.345-1.277.09-2.069-.568-1.157-.959-1.521-.839-1.849.608-.33 1.458-.777 1.182-2.334-1.441-2.097-3.533-3.425-4.172-3.425-1.649 0 1.018-.55 1.396-1.5 1.031-.825-.316-1.5-.139-1.5.393 0 .533.337.969.75.969.413.001.83 5.513.929 12.25.123 8.475.65 13.329 1.71 15.75l1.533 3.5.096-4c.054-2.2.43-5.8.837-8 .868-4.696 1.541-3.075 2.697 6.5.394 3.261 1.708 7.123 3.227 9.487 2.87 4.464 3.875 3.541 2.312-2.121-.57-2.065-.86-3.93-.645-4.145.723-.724 2.923 4.252 2.989 6.761.04 1.53.734 2.612 1.811 2.822 1.241.242 1.572-.114 1.144-1.231-1.016-2.646.471-1.747 1.947 1.177.764 1.513 1.217 3.224 1.008 3.804-.484 1.339 11.086 12.51 19.903 19.217 6.012 4.575 11.244 7.007 15.752 7.323.825.058.424.407-.892.775-2.232.625-2.083.829 2.224 3.045 3.447 1.772 4.951 2.096 5.938 1.277.726-.603 5.125-1.23 9.775-1.394 4.65-.163 8.776-.747 9.169-1.297.392-.55 2.192-1.023 4-1.052 5.42-.086 14.368-1.499 32.081-5.066 9.237-1.86 18.462-3.33 20.5-3.266 4.072.128 3.17.432-4.137 1.395-5.551.733-5.55 1.497.004 1.983 11.52 1.008 11.588 2.506.115 2.506-5.65 0-13.53.818-19.277 2-5.346 1.1-10.81 2-12.141 2-4.148 0-4.01 4.653.285 9.666l3.856 4.5c1.1 1.284 4.148 5.709 6.773 9.834s8.25 11.485 12.5 16.354c4.25 4.87 8.087 9.483 8.527 10.25.44.768 1.245 1.396 1.79 1.396 1.667 0 8.881 8.429 7.983 9.327-.463.463-.627 1.664-.364 2.668.458 1.752.615 1.747 3.805-.136 1.83-1.08 3.868-2.615 4.529-3.411 1.337-1.611 2.957-1.923 2.957-.57 0 .482-3.713 3.424-8.25 6.537-9.615 6.595-16.427 12.242-15.675 12.993 1.503 1.503 12.046 1.817 13.211.393 1.854-2.265 11.026-7.238 10.514-5.7-.243.729-2.66 2.456-5.371 3.836l-4.929 2.51 3.5.645c1.925.354 2.713.704 1.75.776-2.174.164-2.245 1.476-.174 3.195 1.299 1.078 1.719 1.077 2.388-.005.447-.723 1.32-1 1.941-.617.62.384 2.328.915 3.795 1.181 1.466.266 3.371.941 4.233 1.5 1.26.816 1.126.922-.683.54-3.108-.656-2.817.687 1 4.621 1.787 1.843 3.7 4.106 4.25 5.03.687 1.153 1.72 1.484 3.298 1.054 2.221-.604 2.746-3.314.702-3.625-.55-.083-1.562-1.236-2.25-2.561-1.469-2.833-1.564-3.493-.396-2.771.469.29 1.374-.615 2.011-2.012 1.07-2.35.997-2.489-.979-1.862-3.101.984-1.516-1.075 2.288-2.973 1.723-.86 3.24-1.563 3.371-1.563.131 0-.915 2.162-2.324 4.805l-2.562 4.804 4.42 4.14c3.055 2.86 4.521 3.693 4.744 2.695.178-.794 1.078-1.45 2-1.456.922-.007 2.694-1.582 3.936-3.5 1.243-1.919 1.779-3.488 1.191-3.488-.587 0-.76-.498-.384-1.107.477-.771.944-.696 1.544.25.473.746.873.907.89.357.017-.55.428-.373.913.394.52.821.474 2.567-.113 4.25-1.009 2.894-2.775 3.896-2.83 1.606-.017-.687-.508-.43-1.09.572-.818 1.407-.641 2.285.78 3.855 1.012 1.118 1.797 2.323 1.745 2.678-.179 1.215 3.97 6.145 5.172 6.145.66 0 1.529-1.687 1.931-3.75.608-3.119.859-3.414 1.49-1.75.695 1.834.871 1.751 2.109-1 .743-1.65 1.943-3.371 2.666-3.824 1.427-.895.718-4.689-1.093-5.85-.705-.451-.599-1.219.32-2.326 1.434-1.728-.331-4.032-2.202-2.875-.439.271-.798-.235-.798-1.125s-.45-1.34-1-1c-1.566.968-1.185-.465 1.114-4.185 1.163-1.881 1.855-3.68 1.538-3.997-.318-.317-1.116.607-1.775 2.053-.659 1.446-1.602 2.629-2.097 2.629-.494 0-.567-.535-.163-1.19.405-.654.812-2.567.905-4.25.093-1.683.49-4.41.881-6.06l.711-3-1.522 2.5c-.836 1.375-1.537 1.952-1.557 1.281-.074-2.544-2.748-.035-3.743 3.512l-1.039 3.707-.127-4.128c-.1-3.293-3.126-8.901-3.126-5.794 0 .452-.54.282-1.2-.378-.933-.933-.933-1.467 0-2.4 2.272-2.272 1.472-3.881-1.3-2.618-1.375.626-2.5 1.543-2.5 2.038 0 .494-.474.605-1.054.246-.702-.433-.538-1.439.488-3.006 1.873-2.859 1.084-6.135-1.051-4.363-2.571 2.134-1.561-1.582 1.113-4.093 3.595-3.377 2.203-3.77-1.704-.481-2.759 2.324-3.345 2.504-3.618 1.112-.179-.913-.651-1.458-1.05-1.212-2.099 1.298-2.973-3.345-1.082-5.75 2.116-2.69 2.561-4.164.958-3.173-1.294.8-1.269-.129.069-2.63.794-1.483.732-2.405-.242-3.578-1.151-1.388-1.02-1.488 1.082-.821 1.993.633 2.284.476 1.742-.937-.358-.934-.651-1.886-.651-2.116 0-.23-.787-.432-1.75-.45-2.507-.045-6.338-2.968-3.891-2.968 3.283 0 7.637 2.968 7.741 5.276.094 2.106.142 2.092.9-.276 1.348-4.209 1.165-6.277-.5-5.638-2.839 1.089-4.907-.475-2.327-1.761 1.258-.627 2.75-2.068 3.315-3.201.565-1.134 1.587-1.875 2.27-1.647.737.245 1.242-.476 1.242-1.777 0-1.511.453-2.016 1.463-1.628.848.325 2.275-.471 3.394-1.894 1.062-1.349 2.141-2.454 2.398-2.454 1.048 0-.679 5.663-2.404 7.885-1.958 2.523-2.493 6.115-.91 6.115.518 0 1.224-.457 1.569-1.016.346-.559 1.011-.78 1.479-.491.468.289 1.83-.716 3.026-2.233l2.175-2.76-2.845-.588-2.845-.588 3-.8c4.143-1.105 5.264-2.171 6.052-5.759.374-1.704 1.528-4.008 2.564-5.12 2.405-2.581 2.67-5.542.321-3.593-1.37 1.138-1.479.964-.883-1.409 1.638-6.529 1.852-6.412-18.423-10.082l-7.631-1.382 6-.036c3.3-.02 9.6.56 14 1.291 4.4.73 8.076 1.268 8.169 1.195.093-.073.497-1.441.898-3.039l.729-2.907-6.827.638c-4.179.39-6.467.279-5.898-.287.511-.508 3.629-1.061 6.929-1.229l6-.305 1.249-5c1.04-4.166 4.251-22.284 4.251-23.989 0-1.26-2.898-.299-6 1.989-1.864 1.375-3.751 2.5-4.194 2.5-1.658 0-.706-1.563 2.093-3.438l2.893-1.938-2.471-1.943-2.47-1.943 2.825-1.938 2.824-1.938-4.374.678c-5.535.858-7.133-.96-3.416-3.884 4.081-3.21.917-4.63-10.651-4.781-8.003-.105-8.827-.252-5.059-.905 2.475-.429 7.038-.538 10.141-.244 5.257.5 5.758.358 7.354-2.077.941-1.438 3.19-3.527 4.997-4.644 2.24-1.384 3.425-2.984 3.725-5.03.437-2.978.409-2.998-3.888-2.675-3.073.231-4.329-.055-4.329-.987 0-.722-.675-1.313-1.5-1.313s-1.5-.437-1.5-.972c0-.534-1.8-.819-4-.633-2.2.187-4-.051-4-.528 0-.477.787-.899 1.75-.937 1.483-.06 1.445-.191-.25-.863-1.426-.566-2.199-.33-2.692.82-.573 1.336-.807 1.227-1.366-.637-.372-1.237-1.185-2.257-1.809-2.265-.623-.009-.458-.452.367-.985 1.09-.704 1.142-.974.191-.985-.72-.008-1.001-.513-.625-1.122.477-.772.949-.696 1.559.25.726 1.125 1.043 1.101 1.86-.143.875-1.333.987-1.333 1.007 0 .028 1.792 4.744 4.236 5.576 2.889.314-.507.996-.658 1.517-.336.521.322.718.957.437 1.411-.281.455.162 1.084.984 1.4 1.034.397 1.527-.109 1.6-1.645.097-2.015.207-1.966 1.193.531.598 1.512 1.45 2.75 1.894 2.75.444 0 .807.675.807 1.5s.67 1.5 1.488 1.5c2.039 0 1.503-4.134-.755-5.818-.971-.726-1.507-1.738-1.191-2.25.317-.513-.111-.932-.952-.932-1.014 0-1.313-.56-.889-1.664.43-1.119.256-1.427-.531-.941-.644.398-1.2 1.484-1.238 2.414-.051 1.284-.329 1.149-1.152-.559-.68-1.409-1.985-2.25-3.492-2.25-1.323 0-2.157-.403-1.853-.895.305-.493-.156-1.168-1.023-1.5-2.228-.855-2.412-.787-2.412.895 0 .825-.477 1.5-1.059 1.5s-.837-.359-.566-.798c1.58-2.556-1.248-3.009-4.377-.7-3.357 2.476-6.998 3.316-6.998 1.613 0-.487 1.125-1.622 2.5-2.523 3.012-1.974 3.076-2.597.542-5.316-1.951-2.095-1.948-2.113.984-5.439 3.486-3.954 3.574-4.445 1.04-5.802-2.893-1.548-3.066-1.378-3.066 3.024 0 2.653-.374 3.828-1.081 3.391-.615-.38-.884-2.37-.624-4.617.38-3.291.076-4.199-1.824-5.444-1.254-.822-2.553-2.58-2.886-3.906-.886-3.532-2.815-2.204-5.882 4.05-1.475 3.007-3.188 5.467-3.807 5.467-.702 0-.518-.928.489-2.465 1.896-2.893 2.132-4.452.415-2.735-.66.66-1.672 1.182-2.25 1.159-.578-.022.448-1.322 2.278-2.887 2.904-2.485 3.139-3.021 1.843-4.21-1.297-1.191-1.302-1.567-.034-2.988 1.269-1.425 1.258-1.7-.094-2.219-1.101-.422-1.552.044-1.575 1.626-.031 2.166-.066 2.173-1.5.278-.807-1.068-1.08-2.193-.607-2.5.473-.307 1.077-2.861 1.34-5.674l.479-5.115-4.278 3.115c-4.727 3.442-5.945 6.785-2.152 5.907l2.25-.52-2.315 1.716c-1.273.944-2.586 1.444-2.919 1.112-.332-.332-1.438.151-2.458 1.074-3.351 3.032-4.168.161-1.356-4.759 1.388-2.428 2.529-4.718 2.536-5.088.018-1.029-5.221 1.81-7.835 4.245-2.728 2.542-5.322 1.239-2.717-1.365.86-.86 1.564-2.441 1.564-3.513s.675-2.509 1.5-3.194 1.5-1.873 1.5-2.641c0-2.003-4.403-.821-10.399 2.792-3.202 1.929-5.238 2.612-5.879 1.971-1.031-1.031 5.561-5.595 14.584-10.096 2.643-1.319 5.032-2.764 5.309-3.212.743-1.202-.729-3.238-1.49-2.06-.774 1.197-6.622 4.246-8.145 4.246-1.426 0-9.716 5.605-12.94 8.748-2.103 2.051-2.616 2.185-3.539.923-.594-.812-2.187-1.684-3.54-1.938-1.782-.333-1.426-.498 1.289-.597 3.113-.113 3.75-.497 3.75-2.258 0-1.774-.247-1.918-1.5-.878-2.971 2.466-1.42-.498 2.203-4.208 2.037-2.086 3.131-3.792 2.433-3.792-.841 0-1.042-.72-.596-2.125.454-1.43.312-1.902-.433-1.441-.609.376-1.107.159-1.107-.483 0-.749-.905-.941-2.521-.535-1.386.348-3.366.18-4.4-.374-1.697-.908-1.92-.546-2.285 3.726-.222 2.603.007 5.013.508 5.357.52.357.437.919-.195 1.309-.609.376-1.107 1.632-1.107 2.792 0 1.159-.303 1.804-.674 1.433-.37-.37-.586-3.258-.478-6.416.108-3.159-.226-7.093-.74-8.743-.843-2.702-.946-2.453-1.036 2.5-.167 9.241-1.465 11.596-2.204 4-.4-4.104-.503-2.302-.28 4.887.416 13.409-.206 14.062-1.466 1.54-.974-9.673-.511-15.785 1.119-14.778.684.423.761-2.617.237-9.26-1.041-13.18-1.126-17.311-.428-20.889.337-1.727.897 2.304 1.32 9.5.837 14.245 1.402 18 2.709 18 .507 0 .914-3.937.906-8.75-.011-6.21-.308-8.315-1.024-7.25-.71 1.057-.835.025-.421-3.5.659-5.605 1.231-13.243 1.387-18.5.08-2.689.336-3.153 1.107-2 .873 1.306 1.137 1.271 2.046-.271.573-.974 1.423-1.536 1.887-1.249.802.495 1.197-1.714 2.589-14.48.329-3.025.131-6.722-.44-8.215-.572-1.493-.663-2.947-.203-3.231 1.744-1.078 3.341 8.403 2.765 16.405l-.575 7.984 4.199-1.63c5.224-2.028 6.698-3.143 6.698-5.066 0-1.179-.802-1.379-3.664-.914-2.166.351-3.29.228-2.75-.302.503-.494 2.637-1.04 4.744-1.214 3.476-.288 4.099-.806 6.75-5.617 1.606-2.915 2.92-5.979 2.92-6.809 0-.83.368-1.282.818-1.004.45.279 2.044-1.832 3.543-4.691 1.499-2.858 3.394-6.321 4.211-7.696.818-1.375 1.34-3.95 1.162-5.721-.2-1.973.177-3.414.97-3.719.713-.273 1.296-1.213 1.296-2.088 0-.874-.456-1.308-1.014-.963-.557.344-4.718.303-9.246-.092-5.591-.488-7.592-.97-6.236-1.502 1.666-.654 1.541-.759-.754-.631-1.512.084-2.75.427-2.75.764 0 .336-2.451.167-5.447-.376-5.295-.96-6.613-2.409-3.553-3.905.825-.404-1.2-.485-4.5-.181-4.634.426-5.659.291-4.5-.595 1.193-.913.886-1.021-1.5-.529-3.506.723-3.792.727-8.841.138-4.564-.533-6.116-1.6-2.326-1.6 1.467 0 2.667-.346 2.667-.769 0-.423-4.613-.828-10.25-.9-5.638-.072-19.475-.418-30.75-.77-19.344-.603-20.303-.548-17 .969m217.605 1.038c-7.914 2.901-8.558 5.528-2.539 10.365 2.237 1.797 3.835 3.499 3.552 3.783-.283.283-2.209-.882-4.279-2.588-2.167-1.787-4.137-2.73-4.644-2.223C284.318 42.282 293.376 51 298.222 51h3.152l-2.874-3c-3.693-3.855-2.279-3.891 2.091-.055 5.279 4.636 9.467 5.35 16.953 2.893 4.854-1.593 6.878-2.88 8.817-5.605l2.517-3.537-5.087-4.598c-8.456-7.644-9.449-8.092-17.791-8.021-4.125.035-9.253.706-11.395 1.491m10.912 6.355c-.377 1.716-.377 4.946 0 7.177.666 3.943.727 3.997 2.188 1.911.828-1.183 2.138-1.902 2.919-1.602.778.299 2.511-.409 3.849-1.573 2.275-1.977 2.339-2.298.987-4.912-1.864-3.605-2.988-4.247-5.286-3.017-1.263.676-2.208.659-2.92-.053-.736-.736-1.258-.114-1.737 2.069m-28.141-.303c-.708.292.455 3.53 3.151 8.768 3.555 6.911 4.388 9.635 4.953 16.209.786 9.154 1.296 11.403 2.587 11.403.513 0 .94-.787.948-1.75.012-1.322.22-1.428.85-.433.623.981 2.367 1.143 6.852.635 5.754-.651 6.063-.828 7.057-4.066 1.271-4.141.98-4.154-6.764-.312-3.408 1.69-6.478 2.791-6.824 2.445-.345-.345-.065-.976.623-1.401.958-.592.817-1.34-.601-3.195-1.405-1.84-1.796-3.868-1.622-8.423.192-5.022-.204-6.676-2.428-10.151-1.462-2.282-3.425-5.545-4.361-7.25-1.687-3.068-2.238-3.377-4.421-2.479M180.5 53.064c-1.1 2.077-3.084 5.8-4.409 8.273l-2.409 4.497 2.659 3.16c1.463 1.738 2.659 3.8 2.659 4.583 0 2.183-.618 1.735-2.867-2.077-2.701-4.577-3.085-4.471-6.899 1.906-4.057 6.783-4.052 6.848.708 8.948 4.442 1.96 17.005 13.445 17.158 15.686.055.803.436.335.847-1.04.598-2.003.88-1.307 1.418 3.5 1.226 10.967 2.931 19.435 3.805 18.895.474-.293.561-1.022.192-1.619-.421-.68-.201-.794.591-.305.927.573 1.083.219.59-1.336-.678-2.137 1.405-5.091 11.853-16.807 3.68-4.126 6.487-5.412 3.497-1.602-1.292 1.645-1.248 1.668.607.322 1.588-1.152 1.742-1.163.75-.05-2.801 3.141-1.002 3.154 2.235.017 1.917-1.858 3.77-3.093 4.119-2.744.349.348-.094 1.362-.985 2.253-3.013 3.012-1.626 4.664 1.808 2.153C220.358 98.265 219.9 88 217.906 88c-.498 0-.906-.9-.906-2s-.351-2-.781-2c-.429 0-1.26-1.269-1.845-2.821-.601-1.591-3.078-4.098-5.683-5.75-2.54-1.611-4.634-3.518-4.654-4.238-.021-.731-.547-.994-1.192-.596-.674.417-.884.277-.505-.336.357-.577-.024-1.307-.846-1.623-.822-.315-1.494-.987-1.494-1.492 0-1.051-8.789-10.373-14-14.849l-3.5-3.007-2 3.776M346 50.349c0 .344 1.913 1.833 4.25 3.308 2.337 1.475 6.837 5.149 10 8.164 6.592 6.286 6.641 6.247 3.153-2.47-1.428-3.57-2.334-6.753-2.014-7.073.566-.567 2.356 3.135 8.171 16.899 1.552 3.673 3.626 7.723 4.609 9l1.787 2.323.022-4.02c.046-8.3-5.419-23.633-8.925-25.041-2.178-.875-21.053-1.852-21.053-1.09m-14.901 4.208c-3.285 5.567-2.601 13.163.814 9.048 2.413-2.908 12.277-3.593 15.087-1.048.825.747 3.461 3.049 5.858 5.115 2.397 2.066 3.859 3.922 3.25 4.125-.609.203-1.108 2.267-1.108 4.586 0 2.319-.562 4.795-1.25 5.502-1.01 1.038-.777 1.22 1.216.95 1.456-.198 3.401-1.726 4.75-3.733 1.333-1.983 2.284-2.735 2.284-1.806 0 2.667-4.328 6.813-8.016 7.68-3.12.734-2.851.83 2.57.922 5.596.094 6.295-.147 9.25-3.196 4.306-4.442 4.092-5.685-2.363-13.776C354.967 58.305 344.705 51 338.26 51c-4.741 0-5.196.226-7.161 3.557M71.15 62.579c-3.736 1.571-4.275 2.528-5.249 9.313-.77 5.369-.787 5.299-.412-1.631l.393-7.238-3.547 1.482c-1.951.815-3.868 1.284-4.259 1.042-.391-.242-1.343.436-2.115 1.507-.771 1.07-1.94 1.946-2.597 1.946C52.1 69 44 77.72 44 79.082c0 1.431 2.147 2.171 3.212 1.106 1.272-1.272 7.099 1.156 10.843 4.518C60.614 87.004 64 87.795 64 86.094c0-.499.9-.671 2-.384 1.162.304 2 .031 2-.652 0-.647.45-.898 1-.558.55.34 1 .238 1-.225 0-.464-1.336-1.633-2.968-2.597C62.821 79.191 58 75 58 73.827c0-.547 1.76.399 3.912 2.103 2.151 1.704 4.103 2.755 4.336 2.334.233-.42.278-.178.1.538-.179.716.069 1.058.55.761.482-.298 1.453.155 2.159 1.006 1.906 2.297 7.504 4.359 10.037 3.696 1.446-.378 1.987-.205 1.552.498-1.124 1.819 14.562 2.133 16.104.322 1.519-1.783 1.655-11.46.2-14.179-1.156-2.16-3.409-1.546-2.55.695.297.772-.067 1.399-.809 1.399-.741 0-2.011.999-2.822 2.221-1.406 2.118-1.47 2.015-1.372-2.25.071-3.085-.285-4.393-1.147-4.221-.687.138-1.25-.373-1.25-1.135 0-1.792-4.73-4.9-6.135-4.032-.731.452-.641.961.278 1.579.857.576-.118.665-2.643.242C73.428 64.555 72.769 64 76.833 64c1.742 0 3.167-.399 3.167-.887 0-1.486-5.759-1.834-8.85-.534M134.629 65c-1.479 6.62-5.777 20.506-7.583 24.5-3.588 7.933-9.046 22.311-9.046 23.83 0 .854-.45 1.83-1 2.17-.55.34-1 1.469-1 2.509 0 1.041-.787 2.35-1.75 2.911-1.08.629-1.249 1.031-.441 1.05 1.502.034.591 2.03-.927 2.03-.55 0-.722-.45-.382-1 .715-1.157-.573-1.293-3.095-.325-1.634.627-1.622.733.168 1.497 1.352.577 1.023.665-1.102.295l-3.029-.529.67 8.623c.741 9.521 1.577 11.211 4.715 9.532 4.198-2.247 6.162-1.42 6.305 2.657l.131 3.75.627-3.5c.466-2.608 1.073-3.424 2.381-3.203.996.168 1.998-.481 2.315-1.5.308-.988.961-2.552 1.451-3.476.591-1.114.482-1.825-.323-2.113-.668-.239-.887-.785-.488-1.214.399-.428 1.412-.21 2.25.486.994.825 1.524.885 1.524.174 0-.599-1.237-1.761-2.75-2.582s-2.395-1.51-1.961-1.532c.435-.022.21-.668-.5-1.435-.709-.767-1.696-1.148-2.194-.846-.497.303-.583.03-.19-.604.392-.635.236-1.155-.346-1.155-2.009 0-1.052-4.658 1.437-6.996 1.373-1.29 2.286-2.555 2.03-2.812-.257-.256.361-1.642 1.372-3.079 1.011-1.437 4.17-6.763 7.019-11.836 3.4-6.053 6.709-10.476 9.631-12.87 4.354-3.568 5.823-5.87 3.072-4.815-.894.343-.365-1.602 1.5-5.517 1.584-3.326 2.844-7.516 2.801-9.311-.043-1.795-.341-2.589-.662-1.764s-1.128 1.95-1.793 2.5c-.666.55-1.698 2.472-2.293 4.27-1.522 4.595-11.404 21.989-15.199 26.753-1.743 2.187-3.833 5.256-4.645 6.82-3.43 6.605-1.802-1.18 2.058-9.843 6.052-13.58 11.035-29.684 10.405-33.622-.326-2.036-.493-1.875-1.163 1.122m205.407 2.983c-4.155.481-4.514.759-5.19 4.017-.4 1.925-.463 4.58-.141 5.899.429 1.753.252 2.192-.655 1.632-.853-.527-1.13-.182-.882 1.101.197 1.027 1.028 1.868 1.846 1.868.817 0 1.739.339 2.048.754.309.415 3.339.464 6.734.11 5.683-.594 6.333-.917 8.188-4.062 4.743-8.038-.161-12.684-11.948-11.319m54.534 2.094c1.033 1.142 6.294 4.855 11.69 8.25 14.241 8.96 17.134 10.542 18.145 9.921.497-.307.65-.146.339.356-.31.503 1.281 1.81 3.536 2.905 2.255 1.095 6.49 4.174 9.41 6.841 5.74 5.244 6.78 5.266 2.81.061-3.384-4.436-3.143-5.136.75-2.184 1.788 1.355 7.09 4.485 11.784 6.954 4.694 2.469 9.756 5.291 11.25 6.269 2.842 1.863 3.73.707 1.314-1.71-.772-.771-6.617-3.976-12.989-7.122-9.234-4.559-12.451-6.725-15.848-10.669-4.953-5.751-6.879-6.493-3.761-1.449 1.19 1.925 1.969 3.5 1.732 3.5-1.361 0-19.649-10.565-21.787-12.585-1.405-1.328-2.899-2.415-3.32-2.415-.42 0-2.646-1.276-4.945-2.836C400.681 71.451 394.249 68 393.191 68c-.275 0 .345.935 1.379 2.077m-101.215 3.615c-2.123.415-5.124 8.255-3.911 10.217.717 1.161 15.301 3.367 16.668 2.522.707-.437.965-.176.673.68-.307.896-1.684 1.297-3.88 1.131-15.098-1.145-15.475-.938-7.629 4.203 2.662 1.745 2.724 1.738 2.724-.28 0-1.136-.788-2.569-1.75-3.184-1.476-.943-1.358-1.016.75-.465 8.85 2.313 11.044 2.773 11.423 2.395.828-.829 1.066-5.414.291-5.625-2.631-.718-6.898-8.564-6.001-11.036.452-1.246-4.37-1.534-9.358-.558M167.147 86.888c-1.91 1.211.198 4.912 3.515 6.174 1.728.657 2.349 1.467 1.94 2.534-.331.862-.602 2.109-.602 2.772 0 .662-.9 1.203-2 1.203-1.507 0-2-.666-2-2.704 0-5.654-5.412-11.245-7.545-7.794-1.294 2.093 5.807 14.308 9.345 16.075 1.815.907 3.165 2.032 3 2.5-.165.469.712.996 1.95 1.172 1.513.214 2.25-.195 2.25-1.25 0-.864-.691-1.57-1.535-1.57-1.26 0-1.33-.385-.387-2.146 3.573-6.676-2.767-20.238-7.931-16.966m-19.4 4.772c-.692 1.064-2.787 22.203-2.661 26.84l.055 2 .943-2c.672-1.424.794-.55.424 3.037-.483 4.672-.358 5.049 1.723 5.205 1.812.137 1.958-.027.756-.852-1.182-.812-1.074-.906.53-.462 1.309.363 2.92-.278 4.589-1.825 1.414-1.312 3.939-3.092 5.612-3.957 3.029-1.567 5.145-4.646 3.192-4.646-.566 0-.75-.45-.41-1 .754-1.22-1.489-1.293-3.357-.11-.851.54-1.106 1.652-.683 2.985.409 1.287.241 2.125-.424 2.125-1.157 0-2.011-1.623-2.458-4.672-.431-2.936-2.11-1.107-1.764 1.922.173 1.513-.165 2.75-.75 2.75S152 117.875 152 116.5s-.45-2.5-1-2.5-1.049-2.588-1.109-5.75c-.169-9.002-1.315-17.866-2.144-16.59m33.263 10.84c-.04 1.65-.734 3.874-1.542 4.941-2.027 2.68-1.843 3.542.782 3.659l2.25.099-2.22.651c-2.318.679-1.955 2.403.72 3.421 1.021.389.8.596-.691.65-1.205.043-2.469-.371-2.809-.921-.34-.55-1.154-.988-1.809-.973-.655.015.384 1.353 2.309 2.973 2.142 1.803 2.918 2.969 2 3.005-1.181.046-1.107.357.35 1.46 1.018.771 1.594 1.816 1.281 2.323-.313.507.483 1.91 1.77 3.119l2.34 2.198 2.278-3.803c1.605-2.68 2.217-5.123 2.071-8.279-.224-4.886-2.12-7.173-3.301-3.982-.398 1.077-1.279 1.959-1.957 1.959-.958 0-.965-.267-.032-1.2 1.806-1.806 1.453-2.787-1.05-2.916-1.693-.087-1.817-.229-.5-.573 2.24-.586 2.161-2.907-.25-7.311l-1.916-3.5-.074 3M427 110.748c0 1.32 7.917 8.252 9.424 8.252 2.067 0 13.108 8.211 15.576 11.582 2.635 3.6 9 8.073 9 6.324 0-2.756-15.832-16.722-22.536-19.88-3.83-1.804-7.976-4.201-9.214-5.327-1.238-1.126-2.25-1.554-2.25-.951m-104 3.169c0 1.328 2.421 2.404 10.25 4.557 5.756 1.584 7.731 3.555 3.5 3.493-1.238-.018-4.725-.935-7.75-2.037-11.107-4.05-11-4.034-11-1.583 0 2.33 3.496 6.633 8.5 10.461 2.699 2.065 2.761 2.229.625 1.637-1.698-.471-2.166-.32-1.641.529.422.683 1.857.958 3.375.647 1.453-.298 2.076-.296 1.385.004-1.378.599-.724 2.375.874 2.375.55 0 .722-.45.382-1-1.014-1.64.384-1.151 4.285 1.5 3.772 2.563 7.215 3.279 7.215 1.5 0-.55.675-1 1.5-1 1.707 0 2.009 1.568.484 2.51-1.496.924-.17 2.49 2.107 2.49 1.124 0 2.346-.969 2.838-2.25.856-2.227.876-2.221 1.968.565.607 1.548 1.103 3.188 1.103 3.643 0 .455.712 1.101 1.582 1.435 2.241.86 2.422.781 1.818-.792-.295-.769-.055-1.696.534-2.06.591-.365 1.483.427 1.993 1.768 1.289 3.388 5.411 4.024 8.029 1.238 2.108-2.244 1.269-4.547-1.656-4.547-1.524 0-1.631-.928-.342-2.966.598-.945.516-1.963-.229-2.861-2.364-2.849-1.823-5.769 1.75-9.449 3.436-3.537 4.224-8.382.917-5.638-1.892 1.57-4.396.4-4.396-2.055 0-1.204-.658-2.031-1.617-2.031-1.083 0-1.456.613-1.13 1.858.604 2.31-.896 5.142-2.723 5.142-.754 0-1.673-1.375-2.042-3.056-.803-3.653-4.142-3.789-3.75-.153.199 1.839-.262 2.209-2.75 2.209-2.653 0-2.988-.336-2.988-3 0-2.795-.256-3.002-3.75-3.026-2.062-.015-7.238-.287-11.5-.604-5.418-.404-7.75-.239-7.75.547m99.011 8.492c-.062 5.089 26.074 27.676 29.366 25.379.227-.158 1.363.572 2.524 1.623 1.161 1.05 2.364 1.657 2.674 1.348.309-.309-.607-1.394-2.035-2.411-1.428-1.016-4.046-3.101-5.818-4.632-1.772-1.532-5.571-3.921-8.442-5.309-3.419-1.653-7.469-5.005-11.739-9.715-3.585-3.956-6.524-6.783-6.53-6.283m-243.518 4.602c-.336.544-.134.989.448.989.582 0 1.059.472 1.059 1.049 0 .576 1.817 3.784 4.038 7.128 4.31 6.489 4.523 8.987.386 4.525-2.819-3.041-4.424-3.456-4.424-1.143 0 .857.45 1.281 1 .941.55-.34 1-.164 1 .391s-.742 1.425-1.65 1.933c-1.01.565-1.45 1.686-1.134 2.893.326 1.249-.168 2.396-1.351 3.135-2.416 1.509-2.519 3.558-.115 2.309.963-.5 2.604-.6 3.648-.22 2.487.903 6.591-2.843 6.634-6.056.031-2.313.076-2.326 1.5-.444.807 1.068 1.068 2.193.579 2.5-.49.307-.264 1.139.5 1.848 2.794 2.594 1.463-3.321-2.587-11.5-3.808-7.688-8.203-12.427-9.531-10.278m188.681 40.82c1.279 1.558 5.25 5.068 8.825 7.8 4.597 3.515 6.684 5.832 7.131 7.919.349 1.622.687 2.163.752 1.2.065-.963.554-1.75 1.087-1.75.532 0 .709-.675.393-1.5-.393-1.023.055-1.5 1.409-1.5 1.091 0 2.544-.675 3.229-1.5 1.068-1.286.729-1.5-2.375-1.5-2.668 0-4.606-.866-7.372-3.296-5.309-4.662-9.253-7.029-9.253-5.553 0 .659-1.042.219-2.314-.977-3.304-3.103-4.26-2.688-1.512.657m-256.861 20.954c-1.697 1.079-5.489 10.313-4.884 11.89.28.729.072 1.325-.46 1.325-.533 0-.969-.9-.969-2s-.45-2-1-2-1 1.152-1 2.559c0 1.699.393 2.316 1.17 1.836.824-.509.939-.157.389 1.191-2.453 6.016-5.374 16.999-4.7 17.673.434.434 1.585-.092 2.559-1.168.973-1.076 2.348-1.734 3.056-1.463.707.272 2.305-.771 3.551-2.317 2.053-2.546 2.214-2.599 1.714-.561-.696 2.837 3.58 3.249 5.181.5.953-1.636 1.021-1.628 1.05.122.022 1.386.356 1.603 1.283.833 1.391-1.155 10.735.181 11.692 1.672.723 1.126 8.055 1.966 8.055.922 0-.439-.562-.836-1.25-.88-.687-.045.1-.706 1.75-1.468 2.9-1.341 2.925-1.409.75-2.036-3.067-.884-2.861-2.254.25-1.66 2.219.424 2.5.14 2.5-2.531 0-2.509-1.405-4.224-3.46-4.224-.508 0-2.426 5.372-2.857 8-.323 1.967-.44 1.783-.547-.864-.133-3.285 3.426-11.136 5.048-11.136.449 0 .816-.45.816-1 0-2.627-3.196-.55-4.617 3-1.193 2.982-2.145 3.98-3.742 3.921-1.177-.043-1.578-.306-.891-.583.688-.278 1.25-.959 1.25-1.514s.9-2.153 2-3.551c3.984-5.065 1.67-10.057-4.124-8.898-2.693.538-2.95.419-1.875-.876 1.024-1.234.937-1.499-.495-1.499-1.198 0-1.589.574-1.257 1.843.288 1.104-.257 2.306-1.36 2.994-1.419.886-1.704 1.898-1.241 4.407l.601 3.256-2.156-2.06c-1.998-1.908-2.054-2.304-.755-5.392.77-1.832 1.611-2.93 1.867-2.44.257.491.321.306.143-.41-.179-.716.026-1.085.456-.819.429.265.84-.3.912-1.256.16-2.124-3.07-4.308-5.176-3.5-1 .384-1.599 2.043-1.708 4.734l-.168 4.143-.392-3.75c-.414-3.95-1.101-4.521-3.072-2.55-.667.667-1.2.756-1.2.2 0-.55.54-1.54 1.2-2.2 1.391-1.391-1.813-1.733-3.887-.415m204.664 9.048c-.537.184-.977.876-.977 1.538 0 1.538 9.185 10.629 10.739 10.629 1.413 0 8.261-8.762 8.261-10.57 0-1.195-15.243-2.545-18.023-1.597M140.115 223.25c-1.145 1.787-2.089 2.688-2.098 2-.009-.687-.719-1.25-1.576-1.25-.857 0-1.289-.437-.959-.971.35-.567-.875-.916-2.941-.838-2.708.102-3.541.561-3.541 1.952 0 1.106-.98 2.065-2.5 2.446-1.529.384-2.5 1.34-2.5 2.46 0 1.008-.394 2.076-.875 2.374-.481.297-.875 1.708-.875 3.136 0 3.403 3.853 2.646 8.299-1.629 2.257-2.171 3.341-2.64 4.173-1.808 1.618 1.618 6.915-3.75 7.766-7.872.369-1.787.454-3.25.19-3.25-.265 0-1.418 1.463-2.563 3.25m330.868 2.783c-2.778 5.19-.15 27.308 3.68 30.967 1.419 1.356 1.498 1.116.82-2.5-.849-4.535-1.491-16.662-.781-14.75.256.688.877 1.25 1.381 1.25 1.124 0 1.09-9.736-.043-12.5-.87-2.122-1.617-1.019-3.387 5-.323 1.1-.41-.588-.193-3.75.429-6.233.19-6.833-1.477-3.717m-223.781 8.188c-5.487 2.421-5.638 2.821-9.199 24.279-1.643 9.9-3.254 19.16-3.579 20.578l-.591 2.577 9.833 1.179c5.409.648 10.509 1.076 11.334.952 1.379-.208 6.002.912 13.448 3.26 1.622.512 3.197.585 3.5.164.304-.421 1.677-1.285 3.052-1.92 1.643-.759 1.94-1.178.864-1.222-.899-.038-2.924-.74-4.5-1.562-1.575-.821-3.703-1.496-4.73-1.5-1.974-.006-16.057-8.916-15.296-9.677.245-.246 2.182.461 4.304 1.57 8.293 4.334 16.607 8.101 17.88 8.101.734 0 2.032.697 2.884 1.549 1.399 1.399 2.239 1.344 8.661-.569 3.911-1.165 8.083-2.166 9.272-2.226 5.191-.259 6.164-3.925 1.661-6.254-3.576-1.849-3.808-3.108-.75-4.081 2.178-.692 2.186-.74.25-1.497-3.21-1.254-3.5-1.083-3.5 2.078 0 4.527-1.518 3.601-1.639-1-.057-2.2.262-4 .71-4 .448 0 .638-.914.423-2.032-.227-1.177.113-1.969.807-1.882 2.35.296 3.699-.101 3.699-1.086 0-1.401-4.349-1.251-5.8.2-.864.864-1.2.881-1.2.059 0-.628.45-1.419 1-1.759 1.685-1.041 1.113-3.948-1.041-5.293-2.223-1.389-3.959-.85-3.959 1.23 0 .725-.675 1.878-1.5 2.563-1.963 1.629-1.898 1.095.563-4.646 1.299-3.031 1.669-4.943 1-5.166-.585-.195-1.063-.753-1.063-1.24s.675-.626 1.5-.31c.909.349 1.5.004 1.5-.876 0-1.687 3.118-4.762 4.829-4.762.644 0 .271.9-.829 2-2.525 2.525-2.678 5.176-.25 4.321 1.372-.483 1.498-.342.582.65-.907.982-.571 1.812 1.5 3.704l2.668 2.438-2.5-.659-2.5-.659 2.543 2.622c2.298 2.37 2.852 2.516 5.75 1.505 4.169-1.453 4.066-2.67-.293-3.488-3.871-.726-4.554-1.925-1.546-2.712 2.298-.601 5.346-6.993 3.638-7.629-1.419-.528-4.592-4.154-4.592-5.246 0-.466-.675-.847-1.5-.847s-1.5-.398-1.5-.883c0-1.719-3.986-1.964-4.916-.302-.643 1.148-2.486 1.679-6.248 1.799-2.935.094-7.586.675-10.336 1.293-2.75.617-6.125 1.345-7.5 1.618a229.63 229.63 0 00-4.75 1.004c-2.486.562-3.074-1.305-1.05-3.329.933-.933.829-1.2-.469-1.2-1.125 0-1.466-.526-1.048-1.615.5-1.304.18-1.476-1.657-.893-1.251.397-2.557.297-2.901-.222-.367-.555-2.402-.161-4.923.951m-49.051 28.097c-.623.751-.874 1.626-.557 1.943.869.868-2.651 7.741-3.958 7.727-.625-.006-3.611-.676-6.636-1.488-5.47-1.468-10.286-2.007-7-.784.825.308 3.832 1.418 6.682 2.468 5.113 1.883 5.168 1.948 4.147 4.878-.57 1.633-1.921 3.589-3.002 4.347-1.148.804-1.496 1.535-.835 1.755 2.959.986-1.064 6.278-13.872 18.253-3.062 2.862-3.894 4.986-2.332 5.952.433.268 1.371-.831 2.084-2.441 1.301-2.939 3.569-4.24 2.49-1.428-.74 1.926.359 1.922 2.29-.009.83-.83 1.992-1.211 2.583-.846.682.422.779.186.265-.645-.537-.869-.419-1.068.353-.591.639.395 1.946-.068 2.905-1.03 1.658-1.664 1.769-1.582 2.304 1.686l.562 3.435 1.214-4.5c2.601-9.643 6.356-18.14 7.775-17.595 1.583.607 1.903-.968.387-1.905-2.497-1.543.071-5.067 2.677-3.673 1.062.568 2.512.674 3.222.235.911-.563.547-.984-1.238-1.432-3.104-.779-3.73-4.214-1.92-10.545 1.367-4.781 1.19-5.912-.59-3.767M39.994 276.75c-.003.962.769 7.926 1.716 15.474l1.722 13.725-2.331 2.171c-2.058 1.918-2.142 2.278-.716 3.076.888.497 1.655 1.894 1.704 3.104.05 1.21.713-.05 1.475-2.8 2.239-8.084 1.995-20.85-.559-29.259-2.214-7.287-3-8.721-3.011-5.491m16.952 3.35c-1.491 2.787-3.282 28.495-2.623 37.65.481 6.668.368 7.25-1.4 7.25-1.058 0-1.923-.52-1.923-1.155 0-.655-.866-.371-2 .655-1.392 1.26-2 3.08-2 5.988 0 2.664-.453 4.187-1.25 4.201-2.336.042-8.533 4.373-9.042 6.32-.416 1.589.151 2.047 3.143 2.54 4.836.798 9.149 2.482 9.149 3.572 0 .484.702.879 1.559.879.868 0 1.261.482.887 1.087-.737 1.192 2.396 8.913 3.617 8.913.418 0 1.936-1.399 3.375-3.109l2.616-3.109-2.277-1.976a185.35 185.35 0 00-4.952-4.108c-1.472-1.172-2.428-2.532-2.125-3.022.303-.489-.406-.587-1.575-.216-3.396 1.078-2.528-.033 3.875-4.96 6.896-5.306 8.108-4.812 1.765.72-3.113 2.716-3.776 3.728-2.456 3.75.995.017 1.528.485 1.184 1.042-.348.562.745 1.286 2.462 1.629 1.697.339 3.329 1.009 3.625 1.488 1.064 1.722 3.997.79 8.311-2.639 4.628-3.679 5.123-3.946 5.085-2.74-.013.413-1.812 2.074-3.999 3.691-2.717 2.01-3.588 3.182-2.75 3.699.837.518.444 1.046-1.242 1.67-2.375.879-2.279 1.008 2.619 3.489 2.796 1.417 5.781 3.639 6.631 4.937 1.186 1.811 2.561 2.407 5.906 2.564 4.156.194 4.266.128 2.359-1.405-1.1-.885-3.463-2.241-5.25-3.015-2.648-1.146-4.52-3.38-2.833-3.38 1.296 0 9.469 4.006 10.032 4.917 1.205 1.951 6.921 1.134 9.801-1.401 2.231-1.963 2.774-3.326 2.876-7.218l.127-4.798 1.055 3.773c1.31 4.682 2.494 4.353 5.523-1.534l2.372-4.608-2.602-2.805c-1.43-1.543-2.601-3.303-2.601-3.911 0-.608-.9-1.92-2-2.915-1.968-1.781-2.002-1.744-2.125 2.345-.069 2.285-.237 4.605-.375 5.155-.138.55-.306 1.45-.375 2-.392 3.14-3.076.508-3.696-3.624-1.696-11.308 2.246-45.781 4.822-42.17.641.899.776.622.442-.908-.264-1.211.034-2.387.663-2.613 1.62-.582.264-1.763-2.243-1.951-2.813-.212-2.71-2.48.137-3.028 1.627-.314 1.35-.471-1-.57-1.787-.075-3.25.265-3.25.755 0 1.583-7.398 1.822-11 .355-1.925-.784-6.538-2.96-10.251-4.836-3.713-1.875-7.624-3.41-8.691-3.41-1.067 0-2.218-.45-2.558-1-.983-1.59-2.339-1.17-3.554 1.1M187 310.286c0 1.859-7.93 7.678-9.594 7.04-.773-.297-1.406-1.59-1.406-2.874s-.45-2.612-1-2.952c-1.614-.997-1.162 5.195.5 6.857.825.825 1.5 2.17 1.5 2.99 0 2.171 1.087 4.653 2.037 4.653.453 0 .451-1.299-.005-2.887-.847-2.955 1.356-5.591 6.167-7.38 4.815-1.789 2.455 7.075-2.548 9.569l-3.151 1.57 2.75.064c1.749.041 2.75.61 2.75 1.564 0 1.083 1.043 1.475 3.75 1.41l3.75-.09-3.25-.939c-1.798-.519-3.25-1.606-3.25-2.433 0-1.287.346-1.267 2.5.144 1.375.901 2.5 1.329 2.5.952 0-.378.707.02 1.571.885 1.956 1.955 5.208 2.215 3.609.287-.676-.813-.726-1.82-.138-2.75 2.102-3.323-.08-12.12-2.784-11.219-.831.277-.552 1.289.896 3.247 3.795 5.133.211 9.821-5.031 6.582-1.145-.708-.319-7.474 1.138-9.326.693-.88.545-1.25-.5-1.25-1.043 0-1.342-.742-1.006-2.5.279-1.459.013-2.5-.638-2.5-.615 0-1.117.579-1.117 1.286M33.48 348.332c-1.305 1.863-1.234 2.301.709 4.369 2.173 2.313 1.25 3.338-.989 1.099-.933-.933-1.2-.93-1.2.015 0 1.515 5.871 5.176 8.309 5.181.995.002 1.531.454 1.191 1.004-.36.583.763 1.048 2.691 1.116 1.82.064 2.521.322 1.559.573-.962.252-1.75.922-1.75 1.489 0 1.214-9.073.237-14.75-1.589-1.708-.549-2.25-.332-2.25.903 0 .894-.45 1.348-1 1.008-.55-.34-1-1.477-1-2.528 0-1.286-.489-1.721-1.5-1.334-.825.317-1.5 1.004-1.5 1.528s.45.674 1 .334c.57-.352 1 .511 1 2.004 0 1.932.46 2.551 1.75 2.354.962-.147 2.767.292 4.009.977 1.242.685 3.942 1.215 6 1.177 2.058-.037 8.114.086 13.458.273 10.996.386 12.269-1.43 2.003-2.858-5.52-.768-5.598-.82-2.22-1.48 1.925-.376 2.727-.743 1.781-.815-1.093-.084-1.509-.678-1.143-1.632.317-.825.19-1.5-.281-1.501-.471 0-.992-2.138-1.157-4.75-.371-5.884-1.343-6.863-7.985-8.047-4.795-.854-5.418-.75-6.735 1.13m27.531 6.647c-1.55 2.897-1.211 5.53.965 7.5 1.087.983 1.739 2.173 1.448 2.643-.29.47.283.593 1.274.272 1.48-.479 1.538-.396.322.463-1.208.853-.84 1.319 2 2.53 3.179 1.357 3.636 1.332 5.29-.289 2.795-2.739 1.347-7.098-2.359-7.098-1.558 0-3.122-.468-3.476-1.04-.42-.68.296-.804 2.072-.359 4.138 1.039 2.667-1.646-2.359-4.306-4.044-2.14-4.196-2.149-5.177-.316m175.309 11.775c.003 8.439-.214 9.345-4.145 17.256-4.649 9.356-4.863 11.034-.628 4.922 2.79-4.026 2.863-4.06 3.784-1.768.877 2.183 1.027 2.048 2.286-2.073 1.634-5.343 1.576-20.402-.093-24.371-1.068-2.54-1.207-1.842-1.204 6.034m175.369 21.567c-2.217.874-2.668 1.537-2.136 3.143.371 1.12.735 4.05.81 6.512.12 3.926.475 4.594 2.887 5.443 1.512.532 2.75 1.33 2.75 1.774 0 1.81 2.121.635 3.224-1.786 1.047-2.297.902-2.813-1.271-4.525l-2.453-1.933 3 .663c4.075.902 6.013 2.453 4.349 3.481-.864.534-.408 1.151 1.492 2.016 1.505.686 2.522 1.805 2.261 2.486-.563 1.467 2.475 2.89 3.318 1.555.319-.505 1.48-1.087 2.58-1.293 1.53-.287 2.141-1.43 2.6-4.866l.6-4.491.15 3.857c.116 2.983.49 3.727 1.65 3.281 2.125-.815 1.908 2.025-.25 3.282-1.536.894-1.453 1.023.679 1.05 5.913.074 8.832-2.048 11.001-7.998 2.581-7.077 2.587-6.972-.43-6.972-1.375 0-2.5.385-2.5.856 0 .472-1.238.84-2.75.82-1.512-.021-3.65.305-4.75.725-1.946.742-1.949.72-.108-.783 1.04-.85 2.39-1.725 3-1.945 3.026-1.09-1.011-1.921-4.633-.954-3.344.892-4.734.828-6.956-.321-2.428-1.256-3.233-1.245-6.412.083-1.999.835-3.727 1.519-3.84 1.519-.113 0-.006-1.35.236-3 .404-2.755.207-2.991-2.424-2.894-1.574.059-4.128.605-5.674 1.215m-72.597 4.429c-1.41 6.046-.865 16.492.891 17.078.765.255 1.009-.031.597-.698-1.183-1.915 3.193-1.286 4.613.663 1.373 1.882 5.807 2.757 5.807 1.145 0-.516-.675-.938-1.5-.938s-1.5-.623-1.5-1.383c0-.761-.898-1.618-1.995-1.905-2.105-.551-3.715-3.335-2.583-4.467.368-.368 1.542-.124 2.61.543 2.441 1.524 3.292 1.545 2.373.057-.473-.763-.271-.88.595-.345.926.572 1.07.422.49-.515-.594-.962-.362-1.15.846-.686 1.355.52 1.664-.006 1.664-2.83 0-3.016-.32-3.469-2.453-3.469-4.167 0-7.547-2.087-7.547-4.661 0-4.012-1.748-2.563-2.908 2.411" fill="#d3d3d3" fill-rule="evenodd"/></svg>