<svg xmlns="http://www.w3.org/2000/svg" width="500" height="678"><path d="M200.327 15.696c-6.325 1.232-9.15 9.109-7.796 21.746l.702 6.558h10.692l.287-9.25c.274-8.798.401-9.266 2.593-9.577 4.555-.646 5.195 1.121 5.195 14.342C212 52.721 211.885 53 206.418 53c-2.231 0-2.418.382-2.418 4.94v4.939l3.75.311 3.75.31.824 12.809c.884 13.761.424 15.691-3.746 15.691-3.847 0-4.578-1.868-4.578-11.7V71h-11v10.453c0 5.986.512 11.576 1.197 13.08 3.667 8.048 22.885 8.898 28.242 1.25 1.259-1.796 1.561-5.367 1.561-18.434C224 60.072 223.451 58 218.87 58c-1.094 0-1.71-.45-1.37-1 .34-.55 1.503-1 2.584-1 3.333 0 4.176-4.348 3.612-18.628-.61-15.461-1.679-18.348-7.678-20.748-3.78-1.513-10.616-1.917-15.691-.928M21.355 40.25a7761.64 7761.64 0 001.312 43l.645 18.75h10.882l-.532-31.75c-.293-17.463-.32-30.85-.059-29.75.26 1.1 3.09 15.275 6.288 31.5l5.815 29.5 2.996.302 2.996.302 1.581-10.302c.87-5.666 3.075-20.877 4.901-33.802l3.32-23.5.883 33.75.884 33.75H74V90.663c0-6.235-.298-25.585-.662-43L72.677 16H55.091l-.561 3.25C52.514 30.932 49 56.468 49 59.437c0 5.106-1.614 4.399-2.358-1.034-.347-2.528-2.289-13.103-4.317-23.5L38.639 16H20.686l.669 24.25m66.19-23.042c-.233.71-2.489 18.842-5.012 40.292-2.524 21.45-4.837 40.238-5.14 41.75l-.552 2.75H89.72l.579-5.605c.703-6.819.029-6.204 7.221-6.581l5.98-.314.912 5.75.912 5.75h12.353l-7.088-42.25L103.5 16.5l-7.765-.292c-5.671-.214-7.88.056-8.19 1m31.797 16.952c.362 9.988.658 29.113.658 42.5V101h11.595l-.277-6.25c-.693-15.64-.905-52.942-.285-50.25.38 1.65 3.565 15.032 7.079 29.737l6.388 26.737 5.898.013 5.898.013-.642-8.25c-.353-4.538-.645-23.662-.648-42.5L155 16h-11.229l.382 23.916c.211 13.153.037 23.702-.385 23.441-.422-.261-.768-1.225-.768-2.142 0-1.354-5.031-22.007-10.1-41.465l-.977-3.75h-13.239l.658 18.16M159 21.5V27h9.067c8.176 0 9.014.172 8.526 1.75-.298.962-1.201 4.9-2.008 8.75-2.53 12.077-13.627 60.447-14.227 62.009-.468 1.22.527 1.491 5.468 1.491 4.887 0 6.138-.334 6.558-1.75.286-.963 4.398-19.3 9.139-40.75s8.843-39.788 9.116-40.75c.457-1.615-.747-1.75-15.572-1.75H159v5.5M94.138 51.289c-.7 8.916-1.533 19.024-1.85 22.461L91.711 80h5.144c4.68 0 5.142-.203 5.107-2.25-.056-3.321-5.627-41.748-6.125-42.246-.234-.234-.999 6.869-1.699 15.785M288.065 48c-.201 2.475-.262 5.8-.133 7.39.128 1.589-.366 3.27-1.099 3.735-.751.475-.853.851-.235.86 1.285.018 1.662 5.736.429 6.499-.977.603-2.079-7.065-1.908-13.282.065-2.364-.16-4.577-.5-4.917-.341-.34-.619 3.311-.619 8.114 0 9.94-.968 12.601-4.583 12.601-1.864 0-2.851-.802-3.819-3.104-1.127-2.681-1.402-2.851-2.023-1.25-.693 1.789-.768 1.786-2.146-.087-1.71-2.323-1.836-1.026-.324 3.313 1.369 3.927 3.513 5.128 9.155 5.128 7.766 0 8.867-2.217 8.488-17.099-.173-6.82-.481-10.376-.683-7.901M411 48.893c0 5.151-1.314 6.649-4.75 5.416-.962-.345-1.434-.277-1.048.151.387.428.049 1.432-.75 2.23-.798.799-1.415 2.433-1.371 3.631.07 1.884.268 1.772 1.455-.821 1.299-2.837 1.376-2.552 1.419 5.25L406 73h6V58.5c0-7.975-.225-14.5-.5-14.5s-.5 2.202-.5 4.893m40.218-1.582c-1.423 1.573-1.447 1.947-.178 2.844 1.196.847 1.144.932-.29.471-1.67-.538-1.922-.231-2.15 2.624-.055.688-.522 1.554-1.039 1.926-1.46 1.051 1.204 10.945 3.647 13.545 2.401 2.556 4.769 3.161 2.723.696-.723-.871-1.385-2.536-1.47-3.7-.086-1.163-.675-2.288-1.309-2.5-.633-.211-1.116-1.134-1.073-2.05.05-1.05.267-1.202.585-.411.889 2.204 2.336.242 2.336-3.167 0-11.779 14.034-14.604 17.043-3.43.569 2.112 1.427 3.841 1.907 3.841.936 0 .801-1.466-.388-4.202-.406-.936-.469-2.139-.139-2.674 2.604-4.212-16.57-7.831-20.205-3.813M193.3 127.753c-8.512 24.366-12.506 37.748-13.207 44.247-.497 4.607-.918 5.51-2.593 5.559-1.1.033-3.267.595-4.815 1.25-1.548.655-3.454 1.191-4.235 1.191-2.073 0-18.098 4.741-20.661 6.113-1.203.644-4.686 3.132-7.738 5.528-3.053 2.397-6.001 4.368-6.551 4.381-.55.012-3.025 2.364-5.5 5.226a2370.259 2370.259 0 01-11.759 13.437c-7.608 8.629-9.241 11.525-9.241 16.392 0 1.621-1.588 6.247-3.528 10.281-1.941 4.033-3.554 8.64-3.584 10.238-.128 6.608 1.192 19.643 2.589 25.567 4.294 18.215-1.057 23.068-12.805 11.616-2.295-2.236-7.772-7.099-12.172-10.806-16.786-14.142-57.859-56.909-70.214-73.11-3.728-4.888-6.934-8.42-7.124-7.849-.533 1.598 12.441 18.144 24.687 31.486l11.015 12 .542 6c.298 3.3.821 12.525 1.163 20.5.594 13.873 7.985 53.369 11.457 61.226.553 1.251 3.242 13.468 5.976 27.15l4.971 24.877 4.632 5.422c2.548 2.982 4.857 5.196 5.132 4.921.276-.275-1.113-2.385-3.085-4.689-4.341-5.072-5.631-8.894-9.753-28.907-1.756-8.525-5.818-26.343-9.028-39.595-7.507-30.997-9.726-46.752-9.777-69.405l-.013-5.5 17.82 18c9.8 9.9 19.97 19.8 22.6 22 8.271 6.921 17.499 16.219 17.503 17.637.012 4.366 10.053 13.748 19.002 17.754 2.231.999 6.723 4.908 10.544 9.175 3.661 4.089 9.679 9.684 13.372 12.434 3.693 2.75 9.504 7.526 12.914 10.612 3.411 3.087 9.858 7.587 14.329 10 14.348 7.745 15.199 9.876 8.705 21.803-5.067 9.308-8.892 14.796-29.171 41.857l-15.941 21.271-2.795-1.771c-7.71-4.887-30.655-25.215-43.025-38.119C76.272 397.157 70 391.146 70 391.795c0 1.961 33.704 35.225 45.75 45.153 6.188 5.099 11.25 9.951 11.25 10.781 0 2.213-6.756 12.963-8.589 13.667-2.265.869-29.57-3.846-46.453-8.021-7.952-1.967-15.721-3.713-17.265-3.88-4.414-.478-33.905-7.974-46.033-11.702l-6.841-2.102.483-3.595c2.048-15.236 5.988-32.039 7.772-33.142.65-.402 1.319-2.243 1.487-4.092.427-4.698 6.839-23.891 10.437-31.239 1.649-3.368 3.864-10.173 4.922-15.123 1.057-4.95 2.214-9.742 2.569-10.649.901-2.295-1.179-3.31-2.314-1.129-.509.978-1.451 4.852-2.093 8.609-.643 3.757-2.467 10.507-4.054 15-10.25 29.018-14.7 40.87-16.582 44.169-.627 1.1-1.216 4.575-1.308 7.722-.091 3.148-.621 6.917-1.176 8.377-.555 1.46-1.288 5.959-1.63 9.998l-.62 7.343 2.894 1.132c6.135 2.401 31.833 9.555 44.894 12.498 3.3.744 14.775 3.588 25.5 6.32 10.725 2.733 23.775 5.708 29 6.611 15.192 2.625 16.177 3.274 13.933 9.175-5.304 13.95-17.933 58.599-17.933 63.4 0 .813 1.72.986 5.75.578 3.163-.32 12.109-.598 19.881-.618l14.132-.036 1.185-4.75c.652-2.612 3.613-12.625 6.58-22.25 13.708-44.466 14.014-44.891 26.472-36.736l6.5 4.255 2.266 8.49c1.246 4.67 2.763 9.841 3.369 11.491 4.563 12.405 7.065 19.837 8.416 25l2.548 9.75c.538 2.063 1.378 3.75 1.867 3.75 1.204 0-4.953-22.929-9.802-36.5-2.162-6.05-4.517-13.646-5.235-16.879-1.063-4.789-1.873-6.225-4.367-7.746-5.644-3.442-.373-1.921 9.097 2.625 5.157 2.475 9.93 4.479 10.608 4.453 2.096-.08-16.418-9.044-22.767-11.023-6.345-1.979-10.5-4.375-10.5-6.057 0-.557 1.38-3.018 3.066-5.469 3.025-4.397 3.127-4.449 7.75-3.931 28.407 3.178 55.86 6.838 56.58 7.543 1.143 1.118 1.182 7.564.132 21.734-.909 12.269-1.477 13.092-6.555 9.502-3.151-2.227-24.771-12.264-26.312-12.215-.639.02 5.388 3.283 13.393 7.25 8.004 3.967 15.843 8.421 17.418 9.897l2.865 2.684-.981 8.816c-.577 5.194-.625 10.665-.116 13.316.476 2.475.611 6.188.301 8.25-.56 3.717-.534 3.75 2.88 3.75 4.549 0 4.693-.63 4.306-18.851-.319-15.051-.311-15.117 1.726-13.749 2.246 1.508 2.2.555.984 20.432l-.754 12.331 2.893-.331 2.893-.332 1.647-17.5c.906-9.625 2.207-19.771 2.891-22.546.838-3.405.955-6.493.36-9.5-.485-2.45-.731-7.91-.548-12.134l.334-7.68 9.287.408c5.109.225 13.711 1.073 19.118 1.886 9.514 1.429 9.947 1.41 13.5-.587 3.028-1.702 4.055-1.857 5.871-.885l2.2 1.177-.438 29.665c-.518 35.123-.354 37.196 2.941 37.196 2.884 0 3.241-3.974.868-9.654-1.103-2.64-1.5-7.49-1.5-18.332v-14.742l4-2.636 8.018-5.285c6.336-4.176 3.79-3.982-3.716.284-3.741 2.126-7.027 3.978-7.302 4.116-1.056.53.336-55.99 1.6-64.978.669-4.753 2.4-5.691 2.4-1.301 0 1.34 2.693 5.916 6.25 10.619 3.438 4.546 7.81 10.322 9.717 12.837 7.335 9.671 15.033 21.52 15.033 23.136 0 1.078-1.844 2.483-5.097 3.882-5.969 2.568-5.901 4.071.076 1.679 5.833-2.334 8.996-2.027 14.398 1.399 6.386 4.05 18.715 10.218 19.285 9.647.251-.251-2.045-1.855-5.103-3.564l-10.954-6.125C346.611 473.188 341 467.457 341 465.15c0-.541-.396-1.133-.88-1.317-.484-.183-4.196-4.906-8.25-10.496a24559.951 24559.951 0 00-14.522-20c-6.405-8.81-7.224-10.463-7.846-15.837-.904-7.798-.787-21.276.213-24.651l.785-2.651 6 2.346c3.3 1.29 14.651 5.726 25.224 9.856 28.074 10.968 26.162 9.514 34.315 26.1 7.293 14.839 10.985 24.715 11.426 30.567.148 1.962.757 4.48 1.355 5.596.597 1.116 1.4 9.08 1.785 17.697l.699 15.669-4.704-2.629c-2.587-1.446-4.941-2.392-5.231-2.103-.595.596 7.756 5.703 9.325 5.703.56 0 1.303 3.037 1.651 6.75.348 3.712.894 8.597 1.213 10.855.318 2.257.886 7.171 1.261 10.919.443 4.429 1.165 6.974 2.064 7.273 1.115.369 1.239-.486.642-4.419-1.037-6.824-1.456-20.378-.63-20.378.377 0 1.273 5.025 1.99 11.167.718 6.142 1.492 11.654 1.72 12.25.276.725 4.897.982 13.978.778l13.565-.305-.478-3.195a1769.53 1769.53 0 00-1.584-10.195c-.608-3.85-1.277-11.05-1.486-16-.21-4.95-.72-12.038-1.135-15.75-.559-5.006-.444-6.75.447-6.75.829 0 .718-.69-.355-2.223-2.639-3.767-2.051-5.975 1.443-5.424 3.537.557 3.942-.593.75-2.133-1.238-.596-1.675-1.115-.971-1.152.703-.038 4.011 1.311 7.351 2.997s6.297 2.842 6.571 2.568-1.909-1.703-4.852-3.176c-6.003-3.005-9.849-6.166-9.849-8.096 0-.71-.836-1.738-1.859-2.285-2.173-1.164-3.917-7.117-4.57-15.605-.532-6.912-1.335-9.512-3.422-11.076-.834-.626-1.2-1.819-.843-2.75.347-.905.195-1.645-.337-1.645-.533 0-.969-.83-.969-1.845 0-3.895 68.747-5.68 83.196-2.16 4.565 1.112 4.706 1.26 5.075 5.324.363 3.999.387 3.958.554-.961.163-4.798-.008-5.198-2.575-5.999-1.512-.471-21.65-.857-44.75-.858-23.1-.001-42.539-.351-43.198-.778-4.555-2.954-28.238-55.035-27.066-59.519.277-1.058-.096-5.024-.83-8.814-.733-3.789-1.349-8.948-1.369-11.464-.02-2.515-.743-8.682-1.605-13.704-1.711-9.96-.954-13.63 3.676-17.82 5.891-5.331 27.298-1.03 43.516 8.743 11.681 7.04 33.57 27.394 49.186 45.739 5.329 6.261 10.936 12.786 12.458 14.5 1.522 1.714 4.346 5.459 6.274 8.322 4.708 6.99 5.458 7.263 5.458 1.984 0-5.533-1.919-8.059-26.357-34.69-23.304-25.395-43.536-44-47.849-44-.542 0-2.18-.808-3.64-1.797-1.46-.988-5.804-2.857-9.654-4.153-12.738-4.289-12.483-4.04-12.618-12.326-.133-8.121-1.549-5.189-1.764 3.651L398 304.25l-3.25-.652a221.935 221.935 0 00-7.026-1.256c-2.88-.462-3.654-.989-3.266-2.224 1.041-3.314 2.539-12.479 2.451-15.004-.05-1.438-.889.842-1.866 5.066-2.707 11.712-3.658 12.702-9.296 9.685-6.663-3.566-6.601-3.868 2.699-13.168 7.487-7.487 8.554-8.244 8.554-6.067 0 1.51.42 2.228 1.068 1.828.588-.363.81-1.332.495-2.154-.683-1.781 2.468-9.272 4.663-11.084 2.525-2.083 9.744-.509 9.89 2.158.086 1.578.23 1.692.559.445.343-1.296 1.285-1.579 4.134-1.242l3.691.436-3.25-1.511c-1.788-.832-3.257-2.073-3.265-2.759-.012-.955-.194-.966-.778-.047-.574.903-1.801.937-4.952.137l-4.189-1.064 1.637-3.136c.901-1.725 2.654-6.062 3.896-9.637 2.512-7.232 4.576-8.962 10.719-8.985l3.818-.015-2.068 2.904c-3.062 4.301-2.431 5.115.924 1.192l2.911-3.404 9.798.656c5.39.361 11.824.942 14.299 1.291 2.475.35 4.251.363 3.947.029-.304-.334-5.254-1.307-11-2.163-13.786-2.054-14.161-2.189-13.439-4.836.541-1.987.398-1.949-1.708.447-2.129 2.421-2.764 2.58-8.55 2.13l-6.25-.486v-7.056l8.18.63c4.499.347 8.437.977 8.75 1.399.314.422 3.106.879 6.204 1.016 3.099.137 10.011 1.149 15.361 2.25 5.349 1.1 10.688 1.963 11.865 1.917 2.508-.099-10.633-3.138-21.181-4.899-4.5-.751-7.531-1.77-7.866-2.645-.393-1.024-.901-1.129-1.811-.374-1.268 1.053-15.869-.871-18.377-2.421-2.031-1.255-1.293-5.551 1.125-6.546 3.512-1.445 19.591-3.961 38.75-6.063 14.391-1.579 15.635-1.827 7-1.394-8.86.444-27.562 2.562-44.673 5.06-8.111 1.183-7.926-6.042.855-33.448 2.332-7.277 2.77-7.551 15.664-9.819 10.588-1.862 35.002-7.736 44.993-10.824 10.915-3.374 21.326-5.543 26.608-5.543 2.504 0 4.553-.45 4.553-1 0-2.355-16.726.325-31.5 5.046-13.879 4.436-47.337 11.908-53.5 11.949-.275.002-.569-1.19-.654-2.649-.11-1.898.099-2.253.735-1.249.685 1.083.892.933.904-.656.029-3.943 2.274-5.367 11.015-6.989 4.675-.868 14.575-3.124 22-5.015 7.425-1.89 15.108-3.437 17.074-3.437 1.965 0 7.354-1.132 11.974-2.514 4.694-1.405 11.417-2.606 15.235-2.721 5.652-.17 6.546-.417 5.167-1.425-2.185-1.598-9.536-.786-20.45 2.257-4.675 1.304-11.522 2.791-15.216 3.306-3.693.515-7.096 1.172-7.562 1.46-3.273 2.023-37.222 8.182-37.222 6.753 0-.412 3.149-4.544 6.999-9.183 3.849-4.638 6.999-8.995 7-9.683 0-.687.478-1.25 1.06-1.25.582 0 .812-.399.511-.887-.301-.487.122-1.442.941-2.122.819-.68 1.489-1.802 1.489-2.495 0-.692 3.168-7.67 7.039-15.505 3.872-7.835 6.858-14.428 6.636-14.65-.623-.622-3.014 3.364-10.135 16.898l-6.546 12.439-6.747 3.026c-3.711 1.664-8.997 3.854-11.747 4.866-5.735 2.111-21.914 17.451-23.646 22.42-1.074 3.079-2.091 3.439-16.984 6.023-6.219 1.079-6.893 1.006-10.885-1.181-6.538-3.582-7.831-4.387-9.728-6.052-.966-.848-3.499-2.421-5.628-3.495l-3.871-1.953 4.371-3.526c2.404-1.94 5.623-4.326 7.152-5.302 1.53-.976 2.548-2.009 2.262-2.294-.285-.286-3.72 1.609-7.632 4.211l-7.114 4.73-5.148-1.246c-2.832-.685-6.832-1.151-8.89-1.036-2.058.116-4.61-.254-5.672-.822-1.856-.994-15.881-2.279-26.837-2.46-2.887-.048-5.25-.381-5.25-.74s4.285-4.586 9.523-9.394c5.237-4.807 9.294-8.969 9.015-9.248-.279-.279-2.652 1.48-5.273 3.909C292.918 150.629 286.054 155 280.885 155c-2.098 0-2.155-.272-1.552-7.406.344-4.073 1.769-10.908 3.166-15.189 1.398-4.281 2.388-8.244 2.2-8.807-.759-2.278-5.679 14.501-6.716 22.902-1.228 9.953-1.07 9.651-5.983 11.49-5.007 1.874-17.078 6.918-19.881 8.308-2.783 1.379-6.123 1.1-9.829-.823-1.456-.755-3.086-1.101-3.623-.769-.541.334-.658.089-.262-.551.45-.729-.041-1.155-1.332-1.155-1.269 0-3.024 1.48-4.626 3.901-2.138 3.231-3.248 3.965-6.453 4.271-7.634.728-7.643.226-.179-9.841 6.647-8.965 11.661-17.188 10.928-17.921-.275-.275-1.756 1.657-3.29 4.295-4.114 7.069-13.933 19.733-16.618 21.43-1.284.812-5.485 2.041-9.335 2.731-3.85.69-9.025 1.65-11.5 2.134-11.328 2.214-11.552 2.206-12.986-.475-1.103-2.06-1.114-3.502-.06-8.21 1.787-7.986 10.373-34.395 14.554-44.766 3.605-8.941 4.024-10.551 2.742-10.546-.412.002-3.54 7.99-6.95 17.75m183.859 49.197c-10.487 2.575-11.252 3.66-6.48 9.201 2.101 2.44 4.946 6.101 6.321 8.136 3.095 4.579 3.239 4.578 4.688-.037 1.055-3.358.958-3.985-.929-6-1.159-1.238-1.606-2.25-.992-2.25.613 0 1.393.45 1.733 1 1.181 1.91 2.041.971 3.894-4.25 1.025-2.887 2.079-5.812 2.342-6.5.631-1.649-1.619-1.5-10.577.7m-60.408 6.62c-.138.131-8.126.486-17.751.789-9.625.303-17.805.572-18.179.596-1.695.112-3.821 3.446-3.821 5.991 0 3.488 2.096 4.018 16.375 4.141 5.569.048 14.088.39 18.932.759l8.808.673 6.084-4.234c7.789-5.421 7.539-5.054 4.281-6.293-2.684-1.02-14.209-2.916-14.729-2.422m14.165 7.735c-8.597 5.992-14.993 11.942-16.363 15.223-.753 1.802-2.808 4.333-4.566 5.624-3.969 2.916-15.598 16.837-17.19 20.578-.648 1.524-1.971 3.676-2.94 4.784-3.544 4.051-4.941 8.922-3.25 11.335 1.938 2.766 4.109 2.711 10.629-.271 9.204-4.21 11.736-3.906 3.469.416-9.342 4.884-9.654 5.492-6.135 11.958 3.378 6.206 3.492 6.21 17.702.673 6.175-2.406 19.269-6.894 29.098-9.973 19.648-6.154 18.627-5.443 24.59-17.152 4.678-9.189 5.027-11.449 1.79-11.616-1.757-.091-1.858-.218-.458-.581 1.323-.344 1.614-1.032 1.112-2.634-2.399-7.653-11.535-21.174-15.776-23.346-1.72-.881-3.363-1.962-3.65-2.403-.655-1.004-11.124-5.916-12.478-5.855-.55.025-3.063 1.483-5.584 3.24m-51.55 5.4l-3.133.404-.718 11.488-.718 11.489 3.809 8.457c3.144 6.981 4.203 8.457 6.063 8.457 2.047 0 6.331-3.416 6.331-5.049 0-.37 2.664-3.941 5.921-7.936 3.256-3.996 5.728-7.771 5.493-8.39-.234-.619 1.611-2.41 4.101-3.98 2.49-1.571 5.022-3.821 5.626-5 .604-1.18 2.459-3.583 4.122-5.34l3.023-3.195-2.393-.493c-3.277-.674-33.648-1.413-37.527-.912m-6.837 1.545c-.225.688-.634 3.05-.909 5.25-.276 2.2-1.146 5.575-1.934 7.5-2.84 6.938-2.988 10.675-.494 12.422 3.073 2.152 4.147 1.981 3.483-.556-.307-1.173-.166-4.436.313-7.25 1.742-10.231 2.22-18.616 1.06-18.616-.611 0-1.294.563-1.519 1.25m-89.259 2.403l-6.23 1.476-2.117 6.686c-2.934 9.261-4.785 17.185-4.015 17.185.355 0 1.867-1.884 3.36-4.187 1.494-2.303 7.22-8.378 12.726-13.5l10.01-9.313-3.752.088c-2.064.049-6.555.753-9.982 1.565m46.73 3.998c-1.925.818-3.95 2.037-4.5 2.709-.55.671-3.7 2.726-7 4.566-3.3 1.839-7.398 4.521-9.107 5.959a494.203 494.203 0 01-5.25 4.355c-3.584 2.91-2.895 7.357 1.357 8.76 2.719.897 3.5 1.696 3.5 3.578 0 3.53 2.396 3.05 7.885-1.578 3.268-2.756 5.693-4 7.794-4 4.94 0 7.856-3.096 9.292-9.865.695-3.271.982-6.402.64-6.956-.343-.555-.208-1.159.299-1.344.508-.184 1.236-2.022 1.618-4.085.801-4.324-.391-4.708-6.528-2.099m-62.5 1.543c-4.915 2.587-15.956 13.591-20.27 20.201-6.437 9.863-10.599 26.759-6.937 28.164C146.397 256.901 161 239.51 161 229.898c0-2.549 2.399-7.692 8.815-18.898 4.521-7.897 4.326-8.302-2.315-4.806m280 17.226a928.07 928.07 0 01-11.277 2.44c-5.904 1.229-9.223 2.731-9.223 4.175 0 1.26.276 1.231 4.73-.501 13.619-5.297 25-6.602 35.562-4.079 3.739.894 8.455 1.183 13.302.816 10.578-.8 7.939-2.49-4.278-2.739-5.399-.11-12.741-.482-16.316-.827-4.08-.393-8.733-.127-12.5.715m-253.265 16.288c-1.245.239-2.052.78-1.791 1.201.26.421-1.308 2.505-3.485 4.631-4.807 4.694-4.941 5.595-.709 4.797 4.543-.858 8.391-3.253 9.643-6.002.686-1.505 1.92-2.335 3.471-2.335 1.324 0 3.696-.672 5.272-1.494 2.796-1.458 2.711-1.491-3.636-1.364-3.575.072-7.519.326-8.765.566m158.265 9.877c-2.2.791-10.975 3.731-19.5 6.535-8.525 2.803-16.066 5.406-16.759 5.783-.692.377 3.358 1.248 9 1.934 5.643.686 12.087 1.713 14.321 2.283 6.271 1.598 10.655.83 12.102-2.12 4.525-9.22 7.09-15.991 6.033-15.926-.658.04-2.997.72-5.197 1.511m-181.061 17.182c-2.949 5.521-3.018 5.936-1.88 11.233 2.179 10.143 2.138 10.119 11.941 7.165 5.888-1.774 5.996-1.872 5.809-5.236-.104-1.886-.269-5.004-.365-6.929-.325-6.517-2.439-9.635-7.376-10.879-2.45-.616-4.592-1.114-4.761-1.104-.169.009-1.685 2.596-3.368 5.75m135.642-1.137c-8.458 3.755-8.307 3.367-4.914 12.665 1.645 4.508 3.18 8.385 3.41 8.615.23.23 8.971-.18 19.425-.91l19.008-1.328 2.495-5.274c2.67-5.645 3.139-8.882 1.439-9.933-1.256-.776-8.544-1.998-23.118-3.877-5.871-.757-11.046-1.598-11.5-1.87-.454-.272-3.265.589-6.245 1.912m-14.689 18.792c-1.265 3.294 1.088 12.372 5.592 21.578 1.028 2.101 2.47 1.454 2.758-1.237.384-3.581-1.775-16.013-3.257-18.763-1.598-2.964-4.247-3.785-5.093-1.578m28.608 3.21c-14.509 1.625-16.674 2.927-15.49 9.32.361 1.951 1.022 3.682 1.467 3.846.446.164.581 1.176.3 2.25-.281 1.074-.12 1.948.356 1.942 1.903-.021 33.745-16.574 34.125-17.74.515-1.577-4.01-1.493-20.758.382m-137.17 25.542c7.925 7.558 11.17 8.684 11.17 3.878 0-1.76 1.009-4.037 2.5-5.647 3.029-3.267 3.243-4.873.451-3.379-1.408.754-3.05.788-5.25.11-1.761-.542-6.087-1.166-9.615-1.387l-6.414-.4 7.158 6.825m154.646 3.788c.906 1.465-6.815 5.009-9.578 4.396-1.962-.435-2.125-.322-.898.621 1.216.934 1.05 1.025-.875.479-1.603-.453-2.155-.316-1.698.423.435.704.032.888-1.125.513-1.539-.497-1.583-.411-.302.593 1.213.95.958 1.056-1.334.554-1.846-.405-2.609-.258-2.19.421.57.921-.411 1.472-6.448 3.621-1.296.462-1.296.641 0 1.501 1.059.703.63.824-1.528.431-2.493-.454-2.662-.375-1 .467 1.614.817 1.324.917-1.5.518-2.485-.351-2.92-.249-1.5.355 1.944.825 1.938.869-.241 1.562-1.233.391-2.765.389-3.405-.007-.69-.427-.895-.285-.502.35.363.588.174 1.231-.42 1.429-1.172.391 2.255 10.161 4.493 12.811 5.302 6.275 8.057 22.209 5.075 29.346-1.892 4.529-1.921 9.091-.068 10.943.788.788 5.85 3.278 11.25 5.533 23.856 9.965 41.746 17.083 42.085 16.744.202-.202-.737-2.549-2.087-5.217-6.337-12.521-18.844-53.008-18.58-60.142.059-1.585.654-.22 1.435 3.293 5.041 22.665 15.156 50.169 26.942 73.262 4.145 8.122 9.126 19.036 11.067 24.253 2.607 7.003 3.394 8.419 3.01 5.413-.676-5.288-5.222-16.231-11.982-28.847-14.385-26.845-22.374-50.358-30.097-88.581-1.834-9.075-3.355-15.15-3.38-13.5-.026 1.65.348 4.8.83 7 1.189 5.429 2.393 16.121 1.744 15.489-.289-.281-1.239-4.781-2.112-10-2.343-14.005-2.339-13.992-4.317-13.378-1.607.499-1.604.453.031-.597 1.762-1.131 1.519-3.014-.389-3.014-.55 0-.733.433-.406.962m11.115 22.538c1.317 12.362 9.223 39.548 16.654 57.27 4.703 11.213 4.487 7.715-.274-4.455-4.903-12.534-7.79-21.973-13.095-42.815-2.099-8.25-3.578-12.75-3.285-10m-54.989.335c-1.885 3.049 2.051 18.573 7.391 29.151 4.476 8.867 4.971 8.708 6.529-2.105.558-3.871.165-5.758-2.428-11.667-1.702-3.877-3.094-7.926-3.094-8.997 0-4.279-6.598-9.294-8.398-6.382M285.79 356.6c-3.484 8.786-3.411 9.26 3.536 23.073 3.549 7.055 8.227 15.841 10.396 19.525l3.944 6.699 1.232-12.199 1.232-12.198-3.896-7c-5.503-9.887-8.279-14.175-11.815-18.25l-3.082-3.55-1.547 3.9m-15.809 14.207c-7.226 3.83-7.504 4.114-8.165 8.329-1.867 11.903-5.468 42.731-7.344 62.864-.897 9.625-1.876 18.738-2.176 20.25l-.546 2.75 5.875-.008c3.231-.005 11.416.537 18.189 1.205 12.904 1.271 15.998.752 15.392-2.58-.161-.889.176-1.617.75-1.617.574 0 1.044.45 1.044 1s1.8 1 4 1h4l.009-11.25c.005-6.187.456-18.597 1.002-27.577l.993-16.327-7.344-12.173c-4.039-6.695-8.769-14.873-10.511-18.173-1.742-3.3-4.184-7.273-5.427-8.829l-2.26-2.829-7.481 3.965m-36.679 6.13c-5.079 1.945-13.862 11.285-17.659 18.78-3.119 6.157-3.201 6.802-.893 7.019.963.09 4.913.465 8.779.833 8.452.803 8.192 1.049 11.708-11.069 4.994-17.213 4.875-18.171-1.935-15.563m19.55 5.931c-2.869.685-10.659 9.371-11.328 12.632-1.305 6.363-2.999 27.88-2.609 33.153.094 1.268 10.275 8.347 12.004 8.347.67 0 1.081-2.63 1.081-6.921 0-5.978 3.093-37.297 4.476-45.329.261-1.512.148-2.697-.251-2.632-.399.065-1.917.403-3.373.75m-42.655 23.997c-1.03 2.954-.889 3.191 4.09 6.846 6.537 4.798 18.089 12.246 18.444 11.891.532-.532.448-17.757-.09-18.294-.714-.714-8.138-2.09-15.528-2.878-5.835-.623-5.852-.617-6.916 2.435m-5.145 8.037c-.56 1.047-3.289 3.57-6.066 5.608-2.776 2.038-8.114 7.819-11.863 12.848-3.749 5.028-8.691 11.391-10.983 14.14l-4.166 4.997 4.763 1.175c4.104 1.012 20.015 3.054 48.013 6.163l7.25.805v-7.665c0-4.216.246-11.672.547-16.569l.547-8.904-11.653-7.25c-12.275-7.637-14.734-8.439-16.389-5.348m32.596 23.348c-.347 2.887-.635 9.38-.639 14.428l-.009 9.178 5.546.693c3.05.381 5.724.515 5.942.297.784-.784 2.497-13.455 2.504-18.523l.008-5.176-5.372-3.074c-7.034-4.024-7.242-3.968-7.98 2.177M.02 493.965L-.036 539h3.351c1.844 0 3.671-.319 4.061-.709.39-.39 2.49-.581 4.667-.424 2.267.164 3.957-.16 3.957-.759 0-.575-.675-.786-1.5-.47-.825.317-1.5.14-1.5-.392 0-.533-1.048-.768-2.33-.523-2.807.536-4.353-1.596-7.482-10.326-2.466-6.877-2.782-10.39-.938-10.412.818-.01.887-.27.202-.75-1.935-1.357-1.705-7.237.282-7.22 1.349.012 1.451.215.432.861-1.074.681-1.025.964.25 1.453 1.103.424 1.584.031 1.584-1.293 0-1.046-.9-2.187-2-2.536-3.003-.953-2.418-2.643.649-1.873 1.713.43 2.424.3 2.012-.367-.358-.579.563-1.262 2.101-1.557 2.83-.544 4.704.226 2.482 1.019-2.056.734-.418 2.136 1.814 1.553 1.219-.319 1.841-1.095 1.53-1.906-.289-.753-.089-1.369.443-1.369.533 0 1.005-.788 1.048-1.75.048-1.056.28-1.252.585-.494.279.691.988.959 1.576.596.598-.37.78-.194.413.4-.408.661.073.871 1.276.556 2.937-.768 3.382-3.304.95-5.413-1.765-1.53-1.926-2.133-.902-3.367 1.517-1.829.656-4.528-1.446-4.528-.868 0-1.531-.872-1.531-2.014 0-2.124-1.621-5.456-3.808-7.826-.719-.78-1.083-2.002-.809-2.716.274-.714-.123-1.814-.883-2.444-.76-.63-1.135-1.788-.834-2.573.326-.849-.065-1.427-.965-1.427-1.057 0-1.344-.649-.952-2.15.364-1.392-.057-2.602-1.198-3.436-.968-.708-1.567-1.865-1.332-2.572.236-.707-.579-2.293-1.812-3.525-1.366-1.367-2.043-2.991-1.736-4.166.277-1.059.031-2.217-.545-2.573C.4 449.129.059 462.816.02 493.965m237.518-29.04c-.267.866-.385 9.107-.262 18.313l.224 16.738 2.899 1.012c4.207 1.468 4.179 1.49 5.41-4.238 2.232-10.391 2.529-29.141.49-30.929-2.633-2.309-8.151-2.873-8.761-.896M25 514.104c0 .374-1.238 1.005-2.75 1.402-1.978.52-2.329.902-1.25 1.359.825.349 1.5 1.29 1.5 2.09 0 .8 1.08 1.71 2.4 2.021l2.399.567-2.809 1.28c-2.292 1.044-2.961 1.04-3.634-.022-.634-.999-.829-1.011-.841-.051-.008.688-.465 1.25-1.015 1.25-.55 0-1-.73-1-1.622 0-1.319-.277-1.393-1.479-.395-1.049.87-1.205 1.74-.535 2.991.519.969.659 2.047.312 2.395-.347.347.906.645 2.785.663 3.055.028 3.232.172 1.667 1.36-2.036 1.545-2.305 4.212-.5 4.957.759.314.37.784-.989 1.197-4.962 1.51-.469 2.496 10.857 2.384 8.933-.088 11.727-.412 11.011-1.274-.527-.636-1.11-1.603-1.294-2.149-.184-.546-.943-.854-1.685-.683-.747.171-1.056-.168-.691-.757.362-.587.182-1.067-.4-1.067-.582 0-1.059.675-1.059 1.5 0 2.291-1.958 1.786-2.906-.75-.841-2.246.446-4.152 2.108-3.125.439.271.798.032.798-.531 0-.563-.9-1.505-2-2.094-1.294-.693-2-.716-2-.067 0 .553-.675.745-1.5.429-.825-.317-1.5-1.004-1.5-1.528s.516-.633 1.146-.244c.803.497.952-.065.496-1.88-.357-1.423-.207-2.861.334-3.195 1.499-.926-1.07-4.416-2.771-3.764-1.171.45-1.23.165-.319-1.537.967-1.807.847-2.07-.884-1.939-1.101.083-2.002.456-2.002.829m238.25 33.586l-3.25.437v8.936c0 7.47.259 8.937 1.577 8.937 1.213 0 1.501-.864 1.25-3.75-.316-3.621-.208-3.761 3.129-4.079 3.866-.367 6.044 1.621 6.044 5.52 0 1.368.601 2.309 1.475 2.309 1.535 0 1.157-5.321-.533-7.503-.427-.551-.139-1.875.641-2.941 3.969-5.428-.901-9.135-10.333-7.866M283 556.5v9.5h7c8.402 0 9.41-1.774 1.25-2.2-5.685-.297-5.754-.337-6.063-3.55l-.314-3.25h5.623c3.493 0 5.388-.379 5.004-1-.34-.55-2.871-1-5.625-1-4.873 0-4.999-.074-4.691-2.75.295-2.565.669-2.77 5.566-3.052 7.506-.432 6.502-2.198-1.25-2.198H283v9.5m16.57-7.296c-2.197 3.137-.169 5.778 5.943 7.741 5.396 1.733 6.352 3.047 3.96 5.439-2.373 2.373-6.04 1.982-8.294-.884-2.227-2.831-3.179-3.152-3.179-1.073 0 2.729 5.21 5.801 8.839 5.212 9.115-1.479 8.513-8.216-.98-10.965-3.23-.935-4.359-1.769-4.359-3.218 0-2.543 5.56-3.294 7.458-1.007 1.43 1.724 3.042 2.053 3.042.622 0-4.191-9.774-5.66-12.43-1.867m-100.935.869c-2.216 1.742-2.635 2.864-2.635 7.045 0 7.946 5.899 12.147 12.268 8.739 1.603-.858 2.232-.858 2.518 0 .955 2.867 2.214.675 2.214-3.857v-5h-4.5c-2.475 0-4.5.45-4.5 1s1.35 1 3 1c3.448 0 3.943 1.837 1.171 4.345-2.656 2.404-5.729 2.032-8.098-.98-4.152-5.278-1.348-12.365 4.892-12.365 1.941 0 3.334.69 4.035 2 1.219 2.277 3 2.666 3 .655 0-4.489-8.784-6.186-13.365-2.582m18.518 6.652c-3.502 9.79-3.601 10.275-2.101 10.275.579 0 1.523-1.35 2.098-3 1.448-4.154 8.251-4.521 9.261-.5.345 1.375 1.294 2.5 2.108 2.5 1.87 0 2.028.79-1.807-9.05-4.405-11.304-5.586-11.331-9.559-.225M245 557v9h7c4 0 7-.429 7-1 0-.556-2.667-1-6-1h-6v-3c0-2.933.111-3 5-3 2.75 0 5-.45 5-1s-2.25-1-5-1c-4.889 0-5-.067-5-3 0-2.97.056-3 5.5-3 3.025 0 5.5-.45 5.5-1 0-.564-2.833-1-6.5-1H245v9m135.242 29.981c-6.394 2.72-4.551 10.097 3.005 12.027 9.767 2.494 12.467 5.495 8.16 9.07-3.59 2.978-12.407.326-12.407-3.733 0-.74-.858-1.345-1.906-1.345-2.713 0-1.622 3.378 2.102 6.512 6.018 5.063 17.054 1.947 17.054-4.815 0-3.687-1.752-5.489-6.619-6.805-8.16-2.206-9.631-3.031-9.631-5.406 0-4.336 9.283-5.154 11.182-.986 1.215 2.667 3.818 3.425 3.818 1.111 0-4.678-8.962-8.097-14.758-5.63m60.072.91c-4.138 2.6-5.314 4.944-5.314 10.593 0 15.468 19.777 19.007 24.175 4.326 3.415-11.399-8.927-21.162-18.861-14.919m-161.778 9.144c-2.09 5.519-4.073 9.761-4.407 9.427-.334-.334-2.225-4.512-4.203-9.285-2.789-6.73-4.082-8.749-5.761-8.997-2.122-.313-2.165-.071-2.165 12.25 0 10.369.256 12.57 1.464 12.57 1.164 0 1.522-1.976 1.75-9.652l.286-9.652 3.621 8.902c4.566 11.223 5.872 11.606 9.232 2.705 5.307-14.055 5.113-13.947 5.433-3.053.228 7.762.585 9.75 1.75 9.75 1.207 0 1.464-2.193 1.464-12.5 0-12.426-.014-12.5-2.332-12.5-2.035 0-2.815 1.277-6.132 10.035M289 599.5V612h9.5c7.778 0 9.5-.272 9.5-1.5 0-1.2-1.5-1.5-7.5-1.5H293v-8h6.5c5.111 0 6.5-.321 6.5-1.5s-1.389-1.5-6.5-1.5H293v-8h7.5c6 0 7.5-.3 7.5-1.5 0-1.228-1.722-1.5-9.5-1.5H289v12.5m20-11c0 1.111 1.167 1.5 4.5 1.5h4.5v11c0 9.111.258 11 1.5 11s1.5-1.889 1.5-11v-11h4c2.889 0 4-.417 4-1.5 0-1.233-1.778-1.5-10-1.5s-10 .267-10 1.5m22 11c0 12.02.08 12.5 2.094 12.5 1.937 0 2.042-.373 1.406-5l-.688-5h5.394c5.839 0 7.794 1.158 7.794 4.618 0 3.471 1.057 5.382 2.978 5.382 1.556 0 1.662-.546.896-4.643-.477-2.554-1.363-5.242-1.97-5.973-.823-.991-.697-1.734.497-2.928.879-.879 1.599-3.116 1.599-4.971 0-5.018-2.765-6.485-12.223-6.485H331v12.5m27.133-.75c-4.672 13.263-4.67 13.25-2.673 13.25.837 0 1.971-1.707 2.658-4 1.187-3.963 1.245-4 6.121-4 4.814 0 4.956.088 6.493 4 1.01 2.572 2.204 4 3.344 4 1.551 0 1.27-1.282-2.246-10.25l-4.9-12.5c-2.088-5.336-4.481-2.752-8.797 9.5m54.086.418c.195 8.442.653 12.292 1.495 12.572.888.294 1.291-2.339 1.5-9.783l.286-10.186 6.926 10.114c8.78 12.824 11.194 13.618 10.226 3.365-.351-3.712-.641-9.337-.645-12.5-.005-4.378-.356-5.75-1.471-5.75-1.161 0-1.523 1.95-1.75 9.446l-.286 9.445-6.436-9.445c-9.122-13.386-10.21-13.085-9.845 2.722m46.948-11.333c.183.459 2.353 6.101 4.821 12.538 5.937 15.481 6.731 15.41 12.549-1.123 3.734-10.609 4.08-12.25 2.584-12.25-1.311 0-2.545 2.529-5.122 10.502-1.867 5.777-3.69 10.164-4.052 9.75-.362-.413-2.146-5.14-3.966-10.502-2.646-7.8-3.691-9.75-5.228-9.75-1.056 0-1.77.376-1.586.835m21.431 10.42a2734.5 2734.5 0 01-4.357 12.495c-.25.688.25 1.25 1.112 1.25.961 0 2.03-1.545 2.765-4l1.199-4h5.233c5.172 0 5.252.047 6.833 4 .881 2.2 2.279 4 3.109 4 2.086 0 2.078-.035-3.167-13.234-6.313-15.887-7.376-15.93-12.727-.511m-310.283-9.248c-2.342.944-4.315 3.882-4.315 6.427 0 2.78 3.686 5.359 9.334 6.531 6.595 1.37 8.424 3.077 6.893 6.436-2.152 4.723-10.774 4.084-13.076-.969-1.234-2.709-4.151-3.31-4.151-.855 0 .867 1.315 2.892 2.923 4.5 5.967 5.967 18.077 2.934 18.077-4.527 0-4.191-1.576-5.46-9.274-7.473-4.342-1.136-6.31-2.157-6.549-3.398-.947-4.914 7.184-6.579 10.644-2.179 2.219 2.82 4.179 3.268 4.179.955 0-4.847-8.422-7.971-14.685-5.448m21.435-.326l-3.75.44v12.439c0 11.773.107 12.44 2 12.44 1.758 0 2-.667 2-5.5V603h5.5c6.64 0 9.5-2.212 9.5-7.345 0-5.869-5.035-8.171-15.25-6.974m16.402 11.118C203.549 612.992 203.357 614 205.46 614c.837 0 1.971-1.707 2.658-4l1.199-4h5.262c5.059 0 5.288.118 5.936 3.068.651 2.963 2.413 4.491 4.356 3.776.515-.189-1.219-5.744-3.853-12.344-6.541-16.386-7.377-16.431-12.866-.701M227 600.5c0 10.444.247 12.5 1.5 12.5 1.132 0 1.5-1.217 1.5-4.955 0-4.92.026-4.959 3.692-5.647 5.433-1.019 8.676 1.118 9.308 6.135.39 3.097.969 4.034 2.641 4.272 2.047.292 2.097.097 1.138-4.5-.551-2.643-1.608-5.496-2.35-6.339-1.148-1.306-1.057-1.717.611-2.759 2.562-1.6 2.64-7.282.131-9.552-1.387-1.256-3.8-1.655-10-1.655H227v12.5m-103.686-9.609c-3.669 2.305-4.783 4.126-5.728 9.361-.838 4.641 2.117 11.984 5.566 13.829 3.502 1.874 10.466 1.575 12.814-.55 1.814-1.641 2.049-1.656 2.62-.167.345.9.974 1.636 1.397 1.636.888 0 1.974-10.881 1.272-12.75-.723-1.928-11.255-1.694-11.255.25 0 1.083 1.111 1.5 4 1.5 4.421 0 4.988 1.144 2.399 4.841-3.75 5.354-11.823 4.379-14.355-1.735-4.15-10.02 6.356-19.797 13.547-12.606 4.58 4.58 7.273 2.779 3.1-2.073-3.162-3.676-10.763-4.436-15.377-1.536m27.55.859c-1.327 3.36-7.864 22.495-7.864 23.02 0 1.941 3.591-1.067 4.501-3.77 1.15-3.42 1.301-3.5 6.551-3.5 5.204 0 5.402.102 6.305 3.25.703 2.45 1.496 3.25 3.224 3.25 2.239 0 2.174-.289-2.816-12.5-5.455-13.351-7.632-15.495-9.901-9.75m291.365-2.081c-1.933.778-4.229 5.852-4.229 9.347 0 12.098 15.96 14.12 18.449 2.338.81-3.836-1.443-9.746-4.299-11.274-2.06-1.102-7.629-1.333-9.921-.411M91.886 592.75C88.737 600.882 84 614.364 84 615.193c0 2.389 3.445-.058 4.496-3.193 1.109-3.31 1.444-3.516 6.169-3.796l4.995-.297 1.59 4.047c.923 2.351 2.251 4.046 3.17 4.046 2.345 0 2.02-1.552-3.003-14.336-4.934-12.556-7.274-14.744-9.531-8.914M334 594.5v4.5h5.429c5.715 0 8.571-1.623 8.571-4.871 0-3.008-2.227-4.129-8.2-4.129H334v4.5m-301.333-2.833c-.367.366-.667 6.216-.667 13V617l6.75-.015c8.121-.017 11.18-1.377 13.498-5.999 3.625-7.227 1.366-15.996-4.782-18.565-3.466-1.448-13.59-1.964-14.799-.754M56 604.073c0 11.915.155 13.043 1.75 12.732 1.225-.239 1.799-1.387 1.914-3.823.09-1.915.202-4.27.25-5.232.069-1.412 1.014-1.75 4.886-1.75 5.467 0 7.2 1.232 7.2 5.118 0 4.113.915 5.717 2.958 5.183 2.171-.568 1.763-7.666-.598-10.389-1.184-1.366-1.096-1.841.632-3.405 2.575-2.33 2.579-6.936.008-9.507-1.686-1.686-3.333-2-10.5-2H56v13.073m174-8.573v4.5h3.935c5.294 0 8.754-1.444 9.562-3.991 1.119-3.527-1.135-5.009-7.619-5.009H230v4.5m-213.379-2.695c-1.093 1.768-8.599 22.707-8.61 24.018-.022 2.686 3.35.563 4.485-2.823 1.118-3.335 1.417-3.514 6.367-3.803 5.107-.298 5.219-.244 6.679 3.25.995 2.38 2.141 3.553 3.471 3.553 2.481 0 2.793 1.386-2.825-12.557-3.804-9.442-5.25-12.007-6.905-12.25-1.152-.169-2.35.106-2.662.612m43.046 1.862c-.367.366-.667 2.391-.667 4.5V603h5.066c7.862 0 11.682-3.852 7.734-7.8-1.258-1.258-10.982-1.685-12.133-.533M36 604.627v9.627l5.186-.498c6.658-.64 8.814-3.053 8.814-9.867 0-6.651-2.266-8.889-9-8.889h-5v9.627m309.223 29.93c-2.593 1.815-2.907 5.616-.652 7.872 1.865 1.865 5.546 2.054 7.229.371.933-.933 1.2-.756 1.2.8 0 3.748-6.12 6.396-7.28 3.15-.245-.687-.797-.923-1.226-.524-1.226 1.142 1.52 3.774 3.937 3.774 4.247 0 6.069-2.405 6.069-8.008 0-7.46-4.31-10.914-9.277-7.435m-122.869.135c-6.028 1.179-7.96 10.67-3.034 14.907 7.393 6.359 16.723-1.826 12.542-11.002-.854-1.876-6.574-5.389-7.261-4.461-.056.075-1.067.325-2.247.556m23.313-.025c-.367.366-.671 3.404-.676 6.75l-.009 6.083-4.12-6.25c-5.655-8.577-6.862-8.269-6.862 1.75 0 9.422 1.77 10.828 2.202 1.75l.298-6.25 4.287 6.25c6.002 8.749 7.256 8.374 6.608-1.977-.541-8.644-.655-9.179-1.728-8.106m5.915 7.086c-2.857 8.581-2.979 9.247-1.69 9.247.49 0 1.174-1.125 1.519-2.5.52-2.072 1.227-2.5 4.133-2.5 2.819 0 3.692.49 4.456 2.5.523 1.375 1.46 2.5 2.082 2.5.657 0 .862-.735.488-1.75-3.848-10.454-6.096-15.25-7.146-15.25-.693 0-2.422 3.489-3.842 7.753m21.518-1.576c.055 3.478.46 7.448.9 8.823 1.017 3.175 1.263 1.991 1.143-5.5l-.096-6 1.943 4c1.069 2.2 2.397 5.271 2.951 6.825 1.346 3.774 2.317 2.919 5.164-4.544l2.395-6.281.298 6.25c.434 9.118 2.202 7.655 2.202-1.823 0-10.027-2.085-10.694-5.426-1.736-2.868 7.69-2.912 7.695-5.703.572-3.474-8.865-5.906-9.112-5.771-.586m-123.594-2.927c-.237.688-1.573 4.341-2.969 8.119-2.913 7.888-2.862 7.631-1.512 7.631.563 0 1.452-1.125 1.975-2.5.758-1.993 1.643-2.5 4.367-2.5 2.81 0 3.528.444 4.044 2.5.345 1.375 1.287 2.5 2.093 2.5 1.5 0 1.036-1.591-3.919-13.45-1.498-3.587-3.287-4.595-4.079-2.3M160 644.5c0 7.192.251 8.5 1.631 8.5 1.31 0 1.517-.699 1.054-3.555l-.577-3.555 4.196.305c3.929.286 4.216.512 4.509 3.555.192 1.984.864 3.25 1.725 3.25 1.567 0 1.003-5.453-.801-7.75-.652-.83-.628-1.25.073-1.25 1.659 0 2.413-3.715 1.21-5.962-.91-1.701-2.077-2.038-7.055-2.038H160v8.5m61.223-6.943c-4.432 3.103-2.051 12.443 3.171 12.443 4.903 0 7.939-5.604 5.523-10.191-2.188-4.154-4.956-4.871-8.694-2.252M130 645.5v8.5h2.875c8.649 0 13.422-3.805 9.797-7.81-1.208-1.335-1.349-2.113-.532-2.93.624-.624.83-2.244.468-3.687-.604-2.405-1.036-2.573-6.627-2.573H130v8.5m102 31.468c-18.425.315 34.412.676 117.417.802 83.004.127 150.729.065 150.5-.137-.76-.67-233.814-1.249-267.917-.665" fill="#d3d3d3" fill-rule="evenodd"/></svg>