<svg xmlns="http://www.w3.org/2000/svg" width="500" height="724"><path d="M206 8.188c-6.875.378-14.025.973-15.888 1.321-1.863.348-6.813.814-11 1.034-10.606.558-31.306 2.564-33.112 3.209-.825.294-4.65.639-8.5.766-3.85.127-7.113.343-7.25.481-.358.359-5.887.974-8.25.917-9.635-.231-12.251-.215-17.5.112-3.3.206-6.331.846-6.735 1.423-.467.667-.74.554-.75-.313-.012-1.115-2.242-1.231-12.265-.639-17.38 1.027-17.037.969-17.752 3.005-.598 1.707-.699 1.717-1.308.13-.564-1.468-.992-1.537-2.925-.472-1.246.686-3.056 1.127-4.023.979-1.061-.163-2.127.649-2.687 2.045-.785 1.957-.938 2.02-.992.409-.057-1.719-.233-1.759-1.813-.402-.962.827-2.538 1.782-3.5 2.124-.963.341-1.75 1.07-1.75 1.62s-.629.759-1.398.464C45.231 25.875 41 29.535 41 31.248c0 .478-.45.592-1 .252-.562-.347-1 .449-1 1.819 0 1.34-.662 2.985-1.471 3.657-.809.671-1.412 1.964-1.341 2.872.41 5.243-.247 8.343-1.654 7.803-1.154-.442-1.365.121-.99 2.643.261 1.763.208 2.641-.12 1.95-1.516-3.2-2.24.597-1.7 8.922.52 8.024.375 9.288-1.192 10.434-.996.729-1.526 1.973-1.201 2.82.32.834.206 1.748-.254 2.032-.459.284-.613 2.483-.342 4.886.276 2.45-.03 5.345-.696 6.59-.654 1.222-1.38 4.55-1.613 7.396-.233 2.847-.883 8.101-1.445 11.676-1.014 6.458-1.655 11.747-1.869 15.417-.062 1.054-.379 1.65-.704 1.324-.624-.623-1.063-9.568-1.928-39.241C19.518 51.471 15.567 33 9.463 33c-.794 0-1.166-.61-.859-1.41.551-1.435-2.914-3.21-5.354-2.742-.688.132-1.25-.23-1.25-.804C2 27.47 1.54 27 .978 27c-1.233 0-.87 233.131.369 237 1.587 4.953 1.795 14.803.667 31.5-.632 9.35-1.405 24.263-1.718 33.141l-.57 16.14 12.387.439c11.137.394 12.525.253 13.759-1.391.755-1.006 2.105-1.865 3-1.908.895-.043.391-.531-1.122-1.083-2.361-.863-2.75-1.559-2.75-4.921 0-2.815.422-3.917 1.5-3.917.825 0 1.5.42 1.5.933 0 .513.788 1.187 1.75 1.498 2.769.896 4.29 5.035 2.338 6.367-1.363.931-1.269 1.093.662 1.143 2.158.057 3.385 3.059 1.25 3.059-2.047 0-.91 1.806 1.522 2.416 1.974.496 2.339 1.008 1.677 2.359-.464.949-.73 6.139-.59 11.533.197 7.629-.056 9.926-1.138 10.341-1.302.5-19.917-.894-30.868-2.312l-4.898-.634.613 38.399c.701 43.929 1.387 50.839 6.123 61.669 4.483 10.252 5.329 13.738 6.487 26.742 1.389 15.59 2.81 24.933 5.016 32.987 1.055 3.85 2.788 13.75 3.852 22 2.529 19.615 1.445 30.443-4.755 47.5-2.299 6.325-4.554 12.625-5.012 14-.458 1.375-1.55 3.894-2.428 5.597-.877 1.703-2.014 5.303-2.526 8s-1.434 6.224-2.049 7.838c-1.958 5.143-2.364 18.146-1.089 34.847.92 12.038.952 16.963.123 19.108-.812 2.1-.825 5.024-.048 10.7 1.259 9.193 4.783 14.239 11.14 15.951 2.067.556 4.49 1.744 5.384 2.638 1.266 1.266 4.173 1.702 13.134 1.97 6.33.188 12.001.648 12.604 1.02.602.373 3.6.791 6.661.93 3.061.139 7.481.539 9.822.889 4.922.736 10.394-.849 14.584-4.224l2.841-2.288 3.159 2.663c6.738 5.682 7.762 5.841 39.159 6.099 15.95.13 30.8-.178 33-.685 2.2-.508 7.6-1.452 12-2.098 15.041-2.209 27.394-9.906 29.156-18.166.424-1.988 1.513-3.02 4.081-3.867 2.495-.824 3.117-1.394 2.162-1.985-1.375-.849-.537-2.437 1.287-2.437 1.966 0 13.426-22.247 15.159-29.431 2.056-8.517 2.103-27.242.128-50.569-1.648-19.474-3.727-25.769-9.095-27.54-3.053-1.008-14.378-12.683-14.378-14.823 0-.412 3.15-3.817 7-7.567 3.85-3.749 7-7.299 7-7.889 0-.589 1.101-2.221 2.446-3.626 2.411-2.519 6.523-7.975 14.592-19.364 3.363-4.745 4.376-5.592 5.539-4.627 1.862 1.546 2.055 22.904.223 24.736-.933.933-.916 1.2.079 1.2 1.408 0 .653 5.711-.984 7.45-.492.523-.895 1.999-.895 3.281 0 1.283-.675 2.591-1.5 2.907-2.007.77-1.915 4.266.132 5.051.898.345 2.517.074 3.598-.6 3.233-2.019 3.04-3.251 4.754 30.411.588 11.55 1.484 25.95 1.992 32 .507 6.05.945 17.862.973 26.25L241 677h-3.879c-4.986 0-6.897 3.541-5.203 9.642.589 2.122 1.073 5.744 1.076 8.049.003 2.305.456 4.469 1.006 4.809.55.34 1 4.431 1 9.091 0 5.137.571 9.839 1.449 11.941l1.449 3.468h22.06l6.946-5.069 6.947-5.068 3.075 3.217c1.691 1.769 3.074 3.611 3.074 4.093 0 3.279 23.691 2.759 28.295-.621 1.213-.89 3.725-2.722 5.583-4.072l3.377-2.453 4.623 3.84c7.174 5.961 8.715 6.553 12.45 4.787 1.745-.825 4.402-1.806 5.905-2.181 1.503-.375 4.021-1.998 5.594-3.607l2.86-2.925 8.406 3.082c9.513 3.488 11.723 3.932 14.031 2.822 1.07-.514 2.198-.147 3.305 1.077 3.229 3.568 23.648 3.858 27.121.385 1.267-1.267 1.45-1.188 1.45.622 0 2.908 19.546 3.026 27.821.168 4.18-1.444 7.202-1.731 14.088-1.338 12.966.739 16.791-2.505 17.271-14.65.161-4.076.655-6.109 1.485-6.109 2.393 0 3.709-17.896 1.837-24.992-.964-3.654-1.158-12.686-.787-36.678.413-26.691.212-33.848-1.244-44.33-2.706-19.487-2.957-30.094-.932-39.442 2.043-9.428 1.67-28.721-1.101-56.933l-1.65-16.806 3.106-6.739c1.708-3.707 3.106-7.533 3.106-8.503 0-.971.858-1.989 1.906-2.263 3.85-1.007 3.736-14.678-.177-21.17-2.504-4.155-1.878-7.477 4.749-25.192 4.133-11.05 6.147-19.102 3.302-13.202-2.186 4.531-2.588 2.071-.737-4.5 3.613-12.825 8.957-24.262 8.957-19.171 0 .705 1.13.821 3.25.334 1.788-.41 4.262-.676 5.5-.591 1.238.086 2.25-.281 2.25-.814 0-1.383-4.203-2.254-7.993-1.656-3.184.501-3.219.464-2.478-2.672.413-1.749.8-4.229.861-5.511.1-2.115.504-2.299 4.36-1.993 4.943.393 5.69-.638 1.125-1.551-5.081-1.016-14.072-.753-13.365.391.346.559 1.006.783 1.467.498.461-.285 1.892-.096 3.181.421 1.792.718.624.953-4.979 1.002-8.017.069-8.711.449-12.094 6.617l-2.164 3.946.388-5.206c.31-4.143.063-5.293-1.21-5.634-.879-.235 1.776-.48 5.901-.543l7.5-.116-.352-9.067c-.333-8.59-.238-9.098 1.804-9.632 1.632-.426 2.083-1.201 1.852-3.183-.274-2.363.087-2.675 3.696-3.189l4-.57-4-.43c-3.958-.425-3.998-.472-3.854-4.43.551-15.065 1.338-26.665 1.867-27.521.341-.553-.072-2.394-.92-4.092-1.373-2.753-1.378-3.403-.041-5.988.825-1.594 1.124-2.899.666-2.899-.897 0-.873-9.121.028-10.605 1.796-2.961-1.05-39.599-3.247-41.796-.549-.549-.999-1.857-.999-2.906 0-1.32-.482-1.722-1.565-1.306-1.188.455-1.419.137-.957-1.319.347-1.093.05-2.275-.69-2.744-.714-.453-1.859-2.431-2.543-4.395-1.517-4.35-1.558-5.24-.205-4.404.982.607.766-1.409-.74-6.9-.283-1.031.097-2.269.843-2.75.862-.556.992-1.149.357-1.625-1.1-.825-1.162-2.929-.157-5.25 1.169-2.696.144-15.081-1.322-15.987-1.127-.697-1.07-1.289.331-3.428 2.236-3.413 3.035-3.268 2.298.415-.33 1.65-.209 3 .268 3 1.061 0 2.082-2.492 2.082-5.082 0-1.055.686-1.918 1.525-1.918 3.195 0 4.812-10.645 1.975-13-1.267-1.052-1.5-.847-1.5 1.319 0 3.001-1.746 4.506-2.612 2.25-.329-.857-.998-1.31-1.486-1.008-.503.311-.816-4.704-.721-11.555.092-6.657.502-12.31.91-12.562.913-.564.5-6.679-.568-8.407a1.454 1.454 0 01.485-2.042c1.245-.77 2.228-23.993 1.016-23.996-.748-.002-.49-11.792.356-16.249.391-2.062 1.14-3.75 1.665-3.75 1.862 0 1.032-9.756-1.144-13.443-1.154-1.956-2.531-3.557-3.059-3.557s-.639-.52-.247-1.155c.393-.634.29-.892-.228-.572-.519.321-1.034-.622-1.145-2.095-.213-2.83-2.123-7.246-3.595-8.314-.483-.35-.877-1.813-.877-3.25 0-1.438-.42-2.614-.934-2.614s-.713.358-.442.796c.27.437-.716.775-2.191.75-2.33-.04-2.641-.408-2.361-2.796.22-1.884-.136-2.75-1.129-2.75-.798 0-2.01-1.35-2.693-3-.683-1.65-1.624-3-2.09-3-.466 0-.589-.672-.274-1.494.316-.822.949-1.263 1.407-.979.459.283 1.199-.135 1.646-.93.575-1.025 3.089-1.53 8.634-1.735 8.713-.324 8.837-.411 9.363-6.529.371-4.318-.052-5.28-4.125-9.381C467.62 29.997 458 29.016 458 30.773c0 .425-2.224.799-4.942.829-2.718.031-5.623.622-6.456 1.313-.833.692-1.984.967-2.558.612-.574-.355-1.044-.113-1.044.536 0 .906-.335.904-1.432-.007-1.48-1.228-7.552-2.106-15.818-2.286-2.613-.057-4.75-.464-4.75-.905s-.702-.533-1.56-.204c-1.033.397-1.742-.099-2.1-1.468-.455-1.739-.932-1.918-3.005-1.13-3.224 1.225-3.335 1.205-3.335-.607 0-.905-.709-1.422-1.714-1.25-2.724.467-2.819-3.067-.11-4.111 2.059-.793 2.123-.976.561-1.607-1.93-.779-4.737 1.009-4.737 3.018 0 .693-.9 1.496-2 1.784-1.1.287-2 .115-2-.384 0-.498-1.462-.909-3.25-.912-1.788-.004-4.54-.679-6.117-1.501-2.817-1.47-2.858-1.453-2.388 1.006.262 1.375.12 2.501-.317 2.501s-.938-1.203-1.112-2.673c-.317-2.678-1.107-3.057-7.566-3.628-1.238-.11-2.25-.586-2.25-1.058 0-.473-1.568-.677-3.484-.453-1.917.224-3.613.022-3.769-.448-.506-1.518-3.53.332-4.216 2.579-.412 1.349-.863 1.702-1.184.925-.285-.691-.929-1.002-1.432-.691-.503.311-.915.061-.915-.555 0-.762-1.445-.904-4.509-.444-3.124.468-4.997.271-6.096-.641-.873-.725-3.907-1.35-6.741-1.389-2.835-.039-5.716-.425-6.404-.857-.687-.432-1.25-.533-1.25-.226 0 .307-.863-.304-1.918-1.359-1.253-1.253-3.94-2.122-7.75-2.507-3.207-.324-7.724-1.028-10.037-1.566-2.312-.537-5.462-.752-7-.477-4.176.748-14.295 1.098-14.295.494 0-.691-1.343-.779-22.45-1.469-9.872-.323-23.372-.803-30-1.067-6.627-.264-15.2-.595-19.05-.735-3.85-.14-12.625.055-19.5.433M88.5 24c-.34.55-1.443 1-2.452 1s-2.093.675-2.41 1.5c-.316.825-.139 1.5.393 1.5.533 0 .969.436.969.969 0 .532-.675.709-1.5.393-.825-.317-1.5-.078-1.5.531S81.523 31 80.941 31s-.734-.526-.336-1.17c.482-.779.184-.963-.89-.551-1.189.457-1.47.173-1.07-1.08.373-1.165.265-1.314-.344-.474-.488.673-1.993 1.427-3.344 1.675-1.352.248-2.457.527-2.457.62 0 .092-1.499.238-3.331.324-1.946.091-3.894.926-4.683 2.006-.744 1.018-1.753 1.603-2.241 1.301-1.164-.719-4.476 3.166-3.729 4.375.906 1.466-1.52 5.186-3.01 4.615C54.459 42.239 53 43.84 53 45.39c0 .125 2.475.291 5.5.37 3.025.079 5.5-.196 5.5-.61 0-.976 13.185-3.288 19-3.332 2.475-.018 5.097-.519 5.826-1.112.973-.79 1.572-.695 2.25.358.583.905 1.201 1.066 1.674.436 1.079-1.439 3.112-1.854 8.5-1.738 2.848.062 4.75-.337 4.75-.996 0-.605.262-.838.582-.518.319.32 2.062-.037 3.873-.793 1.81-.757 3.573-1.094 3.918-.749.345.345.627.102.627-.539 0-.642.498-1.167 1.107-1.167s.848.675.531 1.5c-.642 1.675.891 2.072 1.872.484.346-.559.956-.814 1.357-.566.401.247 1.342.071 2.093-.393 2.878-1.779-1.249-3.518-8.96-3.775-4.125-.137-7.642-.677-7.817-1.2-.198-.596-1.267-.588-2.872.022-2.281.867-2.499.754-2.027-1.049.548-2.098-.73-3.728-1.697-2.164-1.278 2.067-5.223.86-6.482-1.984C90.789 22.902 89.57 22.268 88.5 24m145.984 7.027c-.349.564-1.163.961-1.809.881-4.118-.508-12.989.24-11.797.996.758.48 1.108 1.31.777 1.845-.33.534 1.175 1.772 3.345 2.751 2.17.979 3.731 2.126 3.47 2.549-.819 1.325.673 3.951 2.244 3.951.878 0 1.276.583.96 1.406-1.051 2.74 2.541 4.649 6.627 3.521 2.034-.561 3.699-1.45 3.699-1.974s-.405-.841-.9-.703c-.851.237-1.1-.224-1.1-2.037 0-.433.874-.853 1.943-.934 1.242-.093 1.759.335 1.432 1.186-.681 1.775.861 2.631 2.673 1.484 1.171-.741 1.187-.921.08-.934-1.116-.012-1.136-.3-.109-1.538 1.301-1.568 4.895-1.118 6.106.765.4.621.851.606 1.251-.041.344-.557 1.524-.778 2.621-.492 1.316.345 2.666-.283 3.966-1.843 1.084-1.301 1.985-1.815 2.004-1.141.024.901.712.967 2.598.25 3.574-1.359 4.089-1.262 6.372 1.188 1.966 2.11 2.108 2.121 5.815.449 2.424-1.093 5.24-1.54 7.774-1.234 2.186.264 5.013.512 6.283.551 1.272.039 2.031.52 1.691 1.071-.34.55-.141 1 .441 1s1.059-.397 1.059-.883 1.913-.214 4.25.604c2.337.818 5.262 1.497 6.5 1.508 1.238.012 2.25.34 2.25.729 0 .39 1.513.709 3.362.709 1.848 0 4.735.978 6.414 2.173 2.057 1.465 3.182 1.787 3.448.987.26-.778 1.064-.897 2.336-.343 1.067.464 2.24.882 2.607.93.366.047 1.004.423 1.416.836.413.413 1.692.75 2.843.75s2.62.844 3.264 1.875c.819 1.312 1.942 1.727 3.74 1.383 1.519-.29 2.57-.034 2.57.625 0 .615.587 1.117 1.304 1.117 1.825 0 11.577 4.899 15.29 7.681 1.702 1.276 3.615 2.319 4.25 2.319.636 0 1.156.401 1.156.892 0 .49 1.125 1.174 2.5 1.519s2.5 1.124 2.5 1.73c0 .742.492.696 1.5-.141.932-.774 1.5-.846 1.5-.19 0 .58.9 1.341 2 1.69s2 1.265 2 2.036c0 .79.611 1.167 1.399.864.769-.295 1.684-.075 2.032.488.348.564 1.294.771 2.101.461.915-.351 1.468.042 1.468 1.044 0 .884.45 1.607 1 1.607s1-.45 1-1 .498-1 1.107-1 .846.681.527 1.512c-.448 1.167-.052 1.38 1.736.931 1.754-.44 3.203.28 5.973 2.97 2.011 1.954 3.657 3.247 3.657 2.874 0-.373 1.523.985 3.385 3.018 1.862 2.032 3.873 3.695 4.469 3.695.597 0 2.688.9 4.646 2 1.958 1.1 4.237 2 5.064 2 2.149 0 6.757 5.014 8.814 9.59.966 2.151 2.23 4.88 2.808 6.065.577 1.185.821 2.535.542 3-.28.465-.163 3.089.259 5.832.81 5.26.4 7.87-1.092 6.948-.492-.304-.895.322-.895 1.392 0 1.069-.672 3.233-1.494 4.809-.821 1.575-1.496 2.275-1.5 1.555-.003-.72-.456-1.031-1.006-.691-.55.34-1 1.454-1 2.476 0 1.021-.51 2.027-1.133 2.235-1.33.443-1.372 2.605-.332 17.13.501 6.996 1.211 11.008 2 11.311.85.326 1.126 2.662.904 7.659-.175 3.954-.346 9.312-.379 11.908-.048 3.769-.362 4.602-1.56 4.143-1.785-.686-1.959 1.55-.513 6.593.661 2.303.652 3.65-.027 4.07-.612.378-.919 5.052-.773 11.786.158 7.283-.152 11.554-.891 12.293-.643.643-.896 2.585-.586 4.497.301 1.851.064 4.611-.525 6.132-2.897 7.485-3.733 34.675-1.116 36.331.787.498.927.912.31.921-.657.009-1.411 3.012-1.824 7.265-1.051 10.839-3.856 20.852-8.944 31.936-1.436 3.127-2.611 6.165-2.611 6.75s-.477 1.064-1.059 1.064-.776.457-.431 1.016c.346.559 1.009.781 1.474.494.465-.287 1.073.043 1.352.734.337.837.532.87.585.1.045-.655.949-.929 2.084-.632 1.103.288 2.678-.034 3.5-.716 1.227-1.019 1.495-.935 1.495.465 0 .938.562 1.506 1.25 1.262s1.147-1.38 1.022-2.525c-.192-1.75.486-2.189 4.25-2.754 2.463-.369 4.478-1.098 4.478-1.619 0-2.427 5.302-11.955 6.012-10.805 1.197 1.936 2.988.157 2.988-2.968 0-2.081.463-2.793 1.75-2.691 1.319.105 1.664-.477 1.402-2.361-.191-1.375-.019-2.178.382-1.785s1.57.265 2.597-.285c2.106-1.127 2.581-5.93.587-5.93-1.526 0-2.117-4.635-.703-5.509.549-.339.985.525.985 1.95 0 1.407.477 2.559 1.059 2.559s.831-.37.551-.822c-.279-.452.142-2.073.936-3.604.794-1.53 1.121-3.298.727-3.928-1.343-2.147-1.153-4.013.538-5.299.929-.706 1.239-1.305.689-1.331-.55-.025-.325-.483.5-1.016 1.09-.704 1.142-.974.191-.985-.72-.008-1.076-.392-.792-.852.285-.46-.251-1.923-1.191-3.25-1.25-1.766-1.748-4.692-1.859-10.913-.227-12.805-1.264-31.868-2.04-37.5-.784-5.694-.714-5.388-1.791-7.851-.494-1.129-.374-2.12.306-2.54 2.152-1.33-.175-6.576-3.07-6.919-3.316-.393-5.498-8.249-3.587-12.916.625-1.526 1.039-5.38.921-8.565-.223-5.969 1.363-12.709 2.99-12.709.507 0 .922-.675.922-1.5s.454-1.5 1.01-1.5c1.228 0 1.06-21.839-.175-22.602-1.639-1.013-.89-8.038 1.045-9.789 1.557-1.409 3.222-6.624 3.547-11.109.04-.55.341-1.225.669-1.5 1.265-1.061 1.937-6 .816-6-.619 0-.872-.661-.563-1.468.31-.807.133-1.734-.393-2.059-.526-.325-.956-2.31-.956-4.41s-.69-5.47-1.533-7.488c-.843-2.018-1.438-4.21-1.322-4.872.172-.977-2.595-7.806-3.92-9.674-.183-.259-.695.113-1.136.826-.579.938-2.357-.333-6.403-4.574-5.263-5.518-8.077-7.233-20.686-12.603-5.526-2.354-14.162-4.696-15.123-4.102-.483.298-.877.113-.877-.411s-1.012-.939-2.25-.922c-3.326.046-27.609-6.142-32.25-8.219-7.781-3.481-11.829-4.939-12.523-4.51-.444.274-.957.111-1.142-.361-.184-.473-3.935-2.515-8.335-4.537-4.4-2.023-8.69-4.056-9.533-4.52-.843-.463-3.093-1.177-5-1.586-1.907-.41-3.894-.999-4.417-1.31-.522-.311-1.872-.67-3-.798-1.127-.128-3.4-.52-5.05-.871-1.65-.35-3.788-.71-4.75-.798-.962-.089-1.75-.485-1.75-.88 0-.396-1.238-.757-2.75-.803-10.155-.309-13.904-.65-15.007-1.363-.786-.509-1.482-.227-1.857.75-.33.859-1.028 1.563-1.552 1.563s-.691-.423-.371-.939c.687-1.113-.947-1.231-10.809-.782-2.665.122-5.029-.076-5.254-.44-.33-.535-3.9-.385-3.9.164 0 .63-11.723.444-12.116-.191-.719-1.163-4.384-1.005-4.384.188 0 .55-.661 1-1.469 1-.894 0-1.243-.586-.893-1.5.651-1.696-.187-2.04-1.154-.473m95.87 4.438c-1.15.805-2.375 1.18-2.723.833-.347-.347-.631.37-.631 1.594 0 1.224.412 1.971.916 1.66.504-.312 2.171-.089 3.706.494 2.421.921 3.019.757 4.529-1.243 1.361-1.8 2.005-2.039 2.953-1.095.945.942.947 1.526.006 2.66-1.447 1.742 1.957 4.632 5.457 4.632 2.067 0 7.757 1.803 17.933 5.682 2.75 1.048 6.449 2.004 8.221 2.125 1.771.121 4.359.653 5.75 1.182 2.498.95 3.737-.335 1.279-1.327-5.926-2.391 20.602 2.397 30.25 5.46 14.755 4.684 26 11.664 26 16.138 0 .822.675 2.055 1.5 2.74s1.5 2.263 1.5 3.508c0 2.026 2.791 8.721 3.123 7.492.074-.275.288-1.625.475-3s.573-4.075.857-6c.283-1.925.812-8.999 1.175-15.72.362-6.721.996-12.011 1.409-11.756 1.111.687 1.899-2.007 1.008-3.448-.456-.738-3.919-1.443-8.536-1.739-4.272-.273-11.647-1.085-16.389-1.803-6.426-.973-8.877-1.017-9.622-.17-.55.625-2.238.994-3.75.82-1.512-.174-2.75.111-2.75.633s-.9 1.185-2 1.473c-1.1.287-2 .115-2-.384 0-.498.563-.92 1.25-.936 3.499-.086-2.544-1.812-8.503-2.43-6.444-.668-6.791-.594-7.608 1.614l-.856 2.313-.692-2.18c-.707-2.229-4.986-3.344-12.091-3.152-4.605.124-4.962.015-7.417-2.273-1.714-1.597-2.489-1.822-3.064-.893-.521.844-.981.902-1.426.181-.361-.584-1.323-.807-2.138-.494-.814.312-2.15.012-2.968-.667-1.033-.857-1.487-.891-1.487-.111 0 .617-.505 1.122-1.122 1.122-.732 0-.648-.572.242-1.644 1.213-1.462 1.115-1.565-.878-.933-1.538.488-2.262.298-2.305-.606-.035-.724-.516-.192-1.069 1.183-.957 2.379-1.072 2.41-2.37.65-.751-1.018-1.793-1.586-2.315-1.263-.689.426-7.344-1.051-10.71-2.376-.016-.006-.969.648-2.119 1.454M183.5 42c-.34.55-1.443 1-2.452 1-1.579 0-3.17 1.915-3.462 4.167-.268 2.075-1.541 1.556-2.721-1.11-1.795-4.054-3.263-3.896-2.585.279.77 4.745-.767 6.883-2.389 3.323-.88-1.929-1.711-2.533-2.819-2.046-.865.38-2.472.781-3.572.892-1.1.111-4.559 1.393-7.686 2.848-3.127 1.456-6.165 2.647-6.75 2.647S148 54.477 148 55.059s-.52.738-1.155.346c-.715-.443-.883-.275-.44.44.392.635.218 1.155-.386 1.155-.605 0-2.319.839-3.809 1.864-1.491 1.025-7.435 4.731-13.21 8.235-12.004 7.284-28.773 23.073-33.737 31.764-1.613 2.824-3.232 4.835-3.598 4.469-.366-.366-.665.005-.665.824 0 1.691-5.561 12.475-7.751 15.031-.795.928-1.168 2.134-.831 2.681.338.547.188 1.258-.334 1.58-.522.323-1.421 2.942-1.997 5.819-.576 2.878-1.376 6.808-1.779 8.733-.794 3.8-.767 32.554.033 35 .27.825.473 2.175.45 3-.023.825.77 7.125 1.761 14 .992 6.875 1.802 13.963 1.801 15.75-.002 1.788.354 3.25.791 3.25.436 0 .562.603.279 1.34-.283.737.181 1.917 1.031 2.622.851.706 1.546 2.101 1.546 3.101 0 1.001.526 2.144 1.17 2.542.782.483.962.182.544-.909-.345-.898-.196-1.898.33-2.223.526-.325.956.062.956.861 0 1.215 2.943 3.298 3.447 2.44.088-.151.71-1.399 1.383-2.774 1.169-2.392 1.203-2.4.774-.189-.283 1.456.109 2.525 1.057 2.889 1.098.421 1.184.778.316 1.314-.707.437-.802.976-.234 1.327.525.325 1.92-.519 3.1-1.875l2.144-2.466h-2.116c-1.695 0-1.886-.277-.96-1.392.763-.92 1.121-6.097 1.054-15.25-.056-7.622.36-17.008.924-20.858 1.71-11.675 2.167-15.676 2.682-23.5.693-10.51 2.252-18.741 4.549-24 3.094-7.087 11.247-20 12.628-20 .688 0 1.252-.643 1.252-1.429s1.575-3.099 3.5-5.14c1.925-2.041 3.5-4.089 3.5-4.552 0-.462 1.092-1.115 2.428-1.45 1.335-.335 2.671-1.244 2.968-2.019.298-.776 1.074-1.41 1.726-1.41.652 0 3.478-1.074 6.282-2.387 7.906-3.704 19.568-5.371 21.272-3.042.879 1.203 1.324 1.359 1.324.465 0-1.051.383-1.007 1.75.202 1.589 1.405 2.209 1.336 6.75-.752 8.16-3.752 19.585-5.231 26.588-3.442 2.426.621 6.919 1.705 9.983 2.411 3.064.706 6.466 1.762 7.559 2.347s3.737 1.206 5.875 1.381l3.887.317-.278-4.857c-.153-2.671-.926-6.693-1.717-8.936-.792-2.244-2.073-6.808-2.847-10.143-1.914-8.246-3.512-12.24-4.357-10.891-.486.775-1.079.69-1.982-.284-1.06-1.142-1.018-1.389.238-1.389 1.019 0 1.46-.834 1.322-2.5-.114-1.375-.559-2.5-.989-2.5-.43 0-.782-.605-.782-1.344 0-.74-1.179-2.652-2.621-4.25-1.557-1.726-2.381-2.196-2.031-1.156.324.962.153 1.75-.379 1.75-.533 0-.969-.406-.969-.902s-1.35-1.373-3-1.948c-1.821-.635-3-.674-3-.098 0 .521-1.35.948-3 .948s-2.947.337-2.882.75c.353 2.23-.331 2.311-2.118.25-1.1-1.268-2-1.987-2-1.596 0 .39-.952.043-2.115-.772-1.163-.815-2.738-1.242-3.5-.95-.762.293-1.385.034-1.385-.575 0-1.38-1.669-1.451-2.5-.107M94.725 52.608c-.334.335-2.547.763-4.917.952C83.38 54.072 81 55.017 81 57.058c0 2.535-2.071 3.566-3.181 1.582-1.273-2.274-3.088-2.064-2.347.272.481 1.514-.008 2.047-2.349 2.561-1.626.357-3.229 1.361-3.563 2.231-.828 2.158-.263 2.492 2.493 1.472 3.078-1.139 8.942.655 8.962 2.742.013 1.261.189 1.309.87.234C83.669 65.336 87 70.84 87 76.605c0 3.205.484 5.454 1.25 5.812.831.388.891.759.177 1.107-.59.289-.875 1.879-.632 3.534l.442 3.009 2.346-3.283c1.29-1.806 2.758-3.769 3.261-4.362.503-.594 2.077-2.844 3.498-5 3.615-5.489 5.241-7.422 6.243-7.422.475 0 2.226-1.51 3.89-3.356 1.664-1.846 4.073-3.906 5.354-4.578 3.927-2.059 6.022-4.29 5.444-5.797-.452-1.179-.703-1.197-1.397-.103-.541.854-.851.918-.861.178-.009-.678-.878-.931-2.1-.612-1.608.421-1.78.752-.75 1.448.877.593.22.747-1.91.45-1.785-.25-3.499-.044-3.809.458-.911 1.473-3.446 1.045-3.446-.582 0-.991-.757-1.37-2.25-1.125-1.237.202-2.812-.081-3.5-.629-1.439-1.147-1.719-3.16-.319-2.295.512.317 1.213.118 1.559-.441.668-1.081-3.716-1.456-4.765-.408m152.1 4.134c-.515 1.823-1.215 2.174-3.751 1.878-3.761-.438-5.186 1.503-4.04 5.5.44 1.533.581 4.046.314 5.584-.267 1.538-.502 3.809-.522 5.046-.021 1.237-.44 2.25-.932 2.25-.492 0-.894.927-.894 2.059 0 1.132.45 1.781 1 1.441.577-.357 1 .582 1 2.218 0 1.561.631 3.737 1.401 4.838.771 1.1 1.559 3.083 1.75 4.405.499 3.442 5.493 4.753 6.447 1.693.369-1.185 1.014-2.379 1.431-2.654.418-.275 1-2.928 1.292-5.896.293-2.967.954-5.667 1.471-6 .516-.332 1.253-1.729 1.638-3.104s1.533-4.3 2.551-6.5c2.199-4.754 4.163-10.689 3.693-11.159-.184-.185-1.649-.418-3.255-.52-1.605-.101-3.481-.607-4.169-1.125-.795-.599-1.25-.575-1.25.065 0 2.186-3.881 2.076-4.215-.119-.324-2.131-.329-2.131-.96.1m66.425.976c-.687.247-1.25.888-1.25 1.424 0 .537.508.662 1.13.278.689-.426.939-.157.642.691-.268.764-1.339 1.267-2.38 1.119-1.04-.149-4.367-.443-7.392-.654l-15-1.05-9.5-.665.094 3.262c.052 1.793-.521 5.306-1.273 7.805-1.879 6.245-3.413 14.919-3.329 18.822.039 1.787-.366 3.25-.899 3.25-.534 0-1.28 2.068-1.659 4.595-.828 5.516.665 7.435 7.559 9.713 4.489 1.484 4.495 1.483 8.127-1.661 1.998-1.731 3.872-3.934 4.163-4.897.291-.963 1.247-1.75 2.123-1.75.877 0 1.594-.665 1.594-1.477s1.188-2.256 2.641-3.207c1.452-.952 3.395-2.971 4.317-4.487 3.071-5.051 14.012-15.83 19.31-19.025a832.6 832.6 0 005.506-3.337c1.352-.895-1.328-3.084-3.312-2.705-1.537.294-2.641-.064-2.988-.969-.371-.967-1.552-1.288-3.621-.985-2.72.4-2.996.218-2.421-1.594.7-2.206-.181-3.214-2.182-2.496m137.916 10.605c-1.719 1.83-2.281 3.902-2.644 9.75-.254 4.085-.689 9.771-.967 12.636-.417 4.31-.25 5.111.97 4.643.811-.311 1.509-.855 1.552-1.209.372-3.135 1.044-4.758 2.367-5.726 1.972-1.441 1.997-3.31.056-4.055-.825-.317-1.5-1.026-1.5-1.576s.675-.741 1.5-.424c1.459.56 1.58.214 1.951-5.559.06-.933.381-1.968.712-2.3.332-.332.259-2.133-.163-4.003-.422-1.87-.519-3.647-.217-3.95.303-.302.104-.55-.442-.55s-1.975 1.045-3.175 2.323M332.5 69.656c-8.162 4.303-11.627 11.153-5.014 9.913 1.917-.36 4.285-.227 5.261.295 2.367 1.267 7.251.295 6.632-1.319-.409-1.066 3.484-4.545 5.086-4.545 1.098 0 .487 2.853-.715 3.338-.957.386-.942.523.066.583.723.043 2.169-.378 3.213-.936 2.153-1.153 1.602-3.985-.776-3.985-.843 0-2.084-.754-2.758-1.676-.674-.921-2.073-1.763-3.11-1.871-1.037-.107-2.56-.461-3.385-.787-.825-.325-2.85.12-4.5.99M80 73.078C80 74.616 76.629 78 75.097 78c-.484 0-1.189 1.229-1.566 2.731-.562 2.242-8.433 14.464-10.476 16.269C60.076 99.631 52 112.961 52 115.246c0 .749-1.057 3.587-2.348 6.308-5.362 11.295-5.775 13.141-7.257 32.446-.147 1.925-.509 4.925-.802 6.666-.294 1.742-.735 7.275-.979 12.296-.245 5.022-.878 9.672-1.407 10.334-2.002 2.505-3.085 20.092-1.845 29.954.328 2.613.222 4.75-.236 4.75-1.997 0 2.23 35.897 4.254 36.128 4.715.537 5.726.509 6.146-.169.262-.424 1.286-.56 2.275-.301 1.35.353 2.286-.607 3.749-3.844 1.073-2.373 2.933-4.746 4.135-5.273 3.709-1.628 4.208-4.318 3.176-17.139-.636-7.905-.609-15.428.08-22.402.57-5.775 1.506-16.8 2.079-24.5 1.161-15.594 2.252-23.641 4.611-34 .877-3.85 1.546-8.713 1.486-10.808-.282-9.982 7.831-41.042 12.656-48.454 1.706-2.621 1.288-12.577-.608-14.473-.887-.887-1.165-.812-1.165.313m289.497 16.927c-.816 1.32 6.235 11.966 10.023 15.134 5.355 4.476 12.48 11.676 12.481 12.611.003 1.635 4.959 6.393 5.993 5.753.799-.493.789-1.059-.037-2.055-1.163-1.401-1.811-5.66-2.35-15.448-.402-7.288-2.201-10.752-6.804-13.101C386.711 91.832 385 91.2 385 91.493c0 .294-1.661-.16-3.692-1.009-3.512-1.467-11.012-1.771-11.811-.479m-30.055 6.089c-.215.347-2.315 1.179-4.666 1.848-4.009 1.141-9.776 7.701-9.776 11.12 0 2.039-2.007.795-2.116-1.312-.105-2.036-.162-2.06-.603-.25-.268 1.1-1.186 2.787-2.039 3.75-1.403 1.582-1.071 2.197 1.008 1.868 1.456-.229.727 1.795-.992 2.757-.958.536-1.438 1.278-1.067 1.649.37.371-.254 2.454-1.388 4.63l-2.062 3.956 2.222 2.07c2.805 2.614 5.181 2.601 13.216-.073 5.914-1.968 6.622-2.517 8.663-6.72 1.611-3.314 2.655-4.41 3.789-3.975.913.35 2.838-.47 4.619-1.969 3.221-2.71 4.702-2.109 4.735 1.922.014 1.752.164 1.767 2.48.25 3.575-2.342 3.85-2.098 3.284 2.922l-.512 4.538 2.346-1.538c3.569-2.338 4.417-1.891 4.417 2.328 0 3.576-3.462 10.006-4.713 8.755-.745-.744-6.033 5.006-6.786 7.377-.366 1.154-.171 2.695.434 3.424 1.288 1.553.514 4.24-1.228 4.259-.664.008-4.132 1.373-7.707 3.033-3.575 1.661-7.175 3.24-8 3.509-.825.27 1.2 1.063 4.5 1.763 7.029 1.49 19.326 1.404 21.197-.149.991-.822 1.307-.633 1.318.792.012 1.407.226 1.541.861.538.681-1.074.964-1.025 1.453.25.776 2.022 2.671 2.064 2.671.059 0-.871 1.204-1.766 2.807-2.086 2.27-.454 3.029-1.359 3.964-4.725 1.459-5.249 2.22-17.664 1.083-17.664-.47 0-.854-1.356-.854-3.013 0-10.071-9.555-31.987-13.946-31.987-.995 0-2.323-.619-2.95-1.375-1.811-2.182-18.547-4.336-19.662-2.531M408 104.965c0 1.631.672 4.945 1.494 7.366.822 2.42 1.596 6.738 1.72 9.595.124 2.857.802 5.672 1.506 6.257.911.755 1.28.738 1.28-.061 0-.617.702-1.122 1.559-1.122.924 0 1.268-.47.846-1.155-.471-.761-.271-.88.585-.351.978.604 1.176.156.8-1.81-.275-1.441-.003-2.798.605-3.024.772-.287.729-.809-.145-1.735-.687-.729-1.25-3.02-1.25-5.091 0-2.953-.801-4.638-3.709-7.8-4.427-4.815-5.291-4.989-5.291-1.069m-24.61 12.29c2.071 6.598 3.736 18.591 3.273 23.58-.556 6.001.606 10.234 1.89 6.887.364-.947 1.272-1.722 2.019-1.722.747 0 1.839-.9 2.428-2s1.705-2 2.481-2c3.15 0-3.827-16.328-10.042-23.5-1.505-1.737-2.367-2.261-2.049-1.245m-215.714 4.875c-.349 1.334-1.094 1.924-1.994 1.578-.791-.303-1.943-.047-2.56.57s-1.129.695-1.137.172c-.009-.523-.452-.275-.985.55-.845 1.308-.971 1.294-.985-.113-.01-1.042-.813-1.568-2.265-1.483-1.464.085-2.158.688-1.987 1.727.323 1.966-4.069 1.41-5.855-.742-1.613-1.943-3.905-1.733-3.923.361-.013 1.496-.157 1.532-.985.25-.972-1.504-1.548-.269-1.09 2.336.081.46-.72 1.063-1.78 1.34-1.88.492-5.346 7.574-5.786 11.824-1.174 11.328-2.424 21.459-2.9 23.503-.934 4.012 1.074 7.997 4.031 7.997 1.389 0 2.532.563 2.54 1.25.011.878.234.919.75.135.862-1.308 4.883-2.75 7.735-2.775 1.1-.01 2.548-.713 3.218-1.564 1.034-1.312 1.238-1.093 1.35 1.454.127 2.898.155 2.915.821.5.504-1.825 1.49-2.591 3.651-2.838 1.628-.187 3.473-.763 4.101-1.282.627-.519 2.652-1.042 4.5-1.162 1.847-.12 3.631-.588 3.962-1.04.332-.452 1.907-1.015 3.5-1.25 4.434-.656 11.721-1.54 13.397-1.625.825-.041 2.063-.519 2.75-1.062.848-.669 1.25-.614 1.25.172 0 .851.534.872 2.021.076 1.111-.595 2.391-.853 2.844-.573.452.28 2.58-.008 4.729-.639 2.148-.631 4.244-1.233 4.656-1.337a17.633 17.633 0 001.5-.471c1.243-.466 11.529-1.568 17.833-1.91.596-.033 1.088-.621 1.094-1.309.005-.687.98-3.247 2.166-5.688 1.187-2.441 2.157-4.808 2.157-5.261 0-.452.961-2.867 2.136-5.366 2.696-5.737 1.593-9.488-2.558-8.695-1.911.366-2.578.075-2.578-1.123 0-.89.787-1.631 1.75-1.647 1.62-.029 1.615-.11-.077-1.093-1.336-.777-3.005-.675-6.203.377-3.039 1.001-4.694 1.122-5.419.397-.725-.725-1.493-.449-2.515.903-.81 1.07-1.487 1.553-1.504 1.074-.018-.48-.741-.284-1.608.435-1.307 1.084-1.732 1.063-2.485-.127-.727-1.15-.911-1.166-.924-.079-.008.751-.642 1.117-1.417.819-.771-.296-1.67-.271-1.996.056-2.379 2.378-13.123-.329-17.852-4.499-.963-.849-1.75-1.193-1.75-.766 0 .428-.675.218-1.5-.467s-1.507-.852-1.515-.372c-.009.479-.452.197-.985-.628-.579-.897-.976-1.022-.985-.312-.022 1.751-5.196 1.1-7.454-.938-2.585-2.334-4.208-2.207-4.885.38m-1.782 8.223c-2.417 1.845-6.286 4.319-8.599 5.498-2.313 1.179-5.463 3.752-7 5.717-1.537 1.966-3.554 4.478-4.483 5.584-1.845 2.198-1.411 4.848.795 4.848.766 0 1.393.408 1.393.906 0 .499 1.012.719 2.25.489 1.238-.229 1.688-.15 1 .177-.687.327-1.25.909-1.25 1.293 0 .802 9.061 3.698 10.366 3.313.477-.141 1.898.42 3.159 1.246 2.009 1.317 2.441 1.322 3.506.039.668-.805 1.834-1.463 2.591-1.463.758 0 1.378-.45 1.378-1 0-2.07 5.456-.938 8.213 1.704l2.823 2.705 2.165-2.166c1.597-1.597 2.279-3.738 2.599-8.154.416-5.752.3-6.112-2.933-9.096-1.852-1.709-4.605-3.362-6.117-3.675-1.876-.387-2.75-1.193-2.75-2.537 0-1.156-.863-2.194-2.093-2.516-1.65-.431-2.004-1.152-1.673-3.406.534-3.639.012-3.59-5.34.494m156.309 11.641c-1.097 1.928-2.504 2.996-3.953 3-1.306.003-2.25.62-2.25 1.471 0 .805 1.012 2.021 2.25 2.701 2.295 1.261 11.75 1.999 11.75.917 0-.328-.4-1.992-.89-3.698-.728-2.539-.546-3.35 1-4.465 2.896-2.086 2.28-2.92-2.157-2.92-3.448 0-4.298.443-5.75 2.994m-23.124 13.315c-.043.995-.447 1.581-.897 1.303s-1.405 1.115-2.121 3.096c-1.218 3.369-1.151 3.715 1.04 5.368 1.289.972 2.693 1.551 3.121 1.287.428-.265.781.108.785.828.008 1.63 6.557 6.197 7.791 5.434.499-.308 2.643.325 4.766 1.407 2.122 1.083 4.439 1.968 5.147 1.968 1.524 0 1.8-6.566.316-7.483-.536-.331-1.707-2.147-2.603-4.036-1.638-3.452-13.32-10.281-15.394-9-.472.292-1.087-.034-1.366-.725-.296-.736-.539-.507-.585.553m96.418 11.345c-1.588 2.115-3.365 4.145-3.951 4.511-.585.365-2.703 2.165-4.707 4-5.26 4.815-6.625 5.835-7.81 5.835-.581 0-1.838.434-2.793.965-7.436 4.132-14.731 6.099-17.118 4.614-.91-.567-1.688-.311-2.282.749-.571 1.022-2.108 1.563-4.211 1.484-3.955-.148-5.725.764-5.024 2.591.76 1.98-2.474 4.772-4.706 4.064-1.052-.334-1.895-.127-1.895.466 0 1.83-2.996 1.166-3.079-.683-.063-1.399-.196-1.449-.662-.25-.321.825-1.14 1.95-1.819 2.5-2.895 2.343-.188 4.389 4.06 3.068 12.669-3.939 15.486-3.746 20.306 1.389 2.416 2.573 2.414 3.039-.048 11.793-.825 2.936-1.738 4.25-2.953 4.25-.968 0-2.496 1.125-3.397 2.5-.901 1.375-2.213 2.5-2.916 2.5-.703 0-1.548.704-1.878 1.563-.33.86-.988 1.324-1.462 1.031-.474-.293-1.905.579-3.181 1.937S341.046 230 340.307 230c-.947 0-1.167.815-.743 2.75 1.118 5.102 1.4 5.493 3.549 4.931 1.497-.392 3.088.454 5.618 2.984 2.491 2.49 3.754 3.169 4.288 2.304.417-.674 1.254-.919 1.86-.544 1.454.899 6.049-2.49 6.09-4.489.031-1.559 7.05-5.936 9.519-5.936 1.568 0 2.909 2.796 2.58 5.383-.193 1.523.255 1.788 2.347 1.389 2.147-.411 2.585-.122 2.585 1.706 0 2.77-4.836 5.386-6.144 3.323-.605-.954-.829-.976-.841-.082-.008.674-.69.959-1.528.638-2.565-.985-4.153 1.345-4.004 5.873.078 2.349-.166 4.72-.541 5.27-.374.55-.974 2.626-1.331 4.613-.654 3.635-2.623 6.055-5.861 7.204-.962.341-1.75 1.139-1.75 1.774 0 .867.343.869 1.378.01 1.088-.903 1.523-.665 2.067 1.128.397 1.308.903 1.756 1.194 1.057.333-.803 1.072-.912 2.182-.323.924.49 2.432 1.121 3.351 1.403 1.167.357 1.497 1.183 1.092 2.731-.667 2.553-3.815 6.018-4.681 5.153-.32-.321-.583.215-.583 1.19 0 1.16-.515 1.576-1.488 1.203-1.409-.541-1.491.343-.579 6.298.037.243.702-.427 1.478-1.489.777-1.061 1.274-2.16 1.105-2.441-.879-1.466 2.344-2.834 3.936-1.67 1.722 1.26 1.504 2.327-4.472 21.905-1.273 4.172-2.227 20.483-1.233 21.097.48.298 2.647.138 4.813-.355 2.167-.492 6.527-1.173 9.69-1.513 4.027-.434 5.75-1.047 5.75-2.047 0-.785.45-1.428 1-1.428s1-.681 1-1.514c0-1.681 2.016-5.634 3.378-6.624.483-.351.588-1.108.234-1.681-.355-.574-.187-1.325.372-1.671.559-.345 1.016-1.726 1.016-3.069 0-1.503.576-2.441 1.5-2.441.825 0 1.5-.879 1.5-1.953s.537-3.132 1.194-4.574c.933-2.047.924-3.055-.042-4.601-1.048-1.678-.99-1.933.379-1.675 1.284.241 6.042-10.059 6.443-13.947.124-1.195-1.933.156-2.285 1.5-.251.962-.509.153-.573-1.8-.064-1.952.405-4.071 1.042-4.708.876-.876.865-1.51-.049-2.611-.806-.971-.863-1.665-.174-2.091.568-.351.893-2.079.721-3.839-.171-1.761.145-3.798.702-4.527.695-.91.66-1.545-.11-2.021-.884-.546-3.474-5.84-3.365-6.879.013-.124-.617-1.46-1.399-2.968-1.305-2.514-1.238-2.939.797-5.107 2.013-2.146 2.361-3.623 2.731-11.609.048-1.051-.384-2.202-.962-2.559-.703-.434-.594-1.272.328-2.533 1.135-1.552 1.147-2.116.07-3.193-.922-.922-1.054-2.191-.448-4.306.473-1.65.554-3.006.18-3.014-.374-.009-.174-.346.444-.75 1.962-1.282 2.836-7.349.955-6.627-1.857.713-2.163-1.169-.329-2.025.998-.465.997-.701-.006-1.168-.691-.322-.923-1.11-.516-1.75.408-.641.803-2.29.878-3.665.075-1.375.419-7.086.765-12.691.433-7.001.283-10.405-.478-10.875-.793-.49-.768-.893.09-1.424 1.376-.85 2.028-6.625 1.058-9.356-.567-1.594-1.052-1.319-3.544 2m-71.937-.398c2.298 7.466 6.088 13.155 9.319 13.993 5.093 1.319 5.221.771 1.631-6.96-2.758-5.938-3.848-7.32-6.179-7.833-1.557-.343-3.423-.808-4.146-1.033-.946-.295-1.122.22-.625 1.833m14.44 2.92c0 .804.692 3.793 1.539 6.642 1.387 4.673 1.819 5.182 4.393 5.182 1.622 0 3.104-.651 3.433-1.509.319-.83.929-1.427 1.357-1.326.796.188 5.98-2.067 7.778-3.383.55-.403 2.35-1.854 4-3.226l3-2.493-6.603-.031c-3.632-.018-9.37-.321-12.75-.674-5.018-.525-6.147-.374-6.147.818m-227.985 3.015c-.008 1.48-.492 2.986-1.076 3.347-.625.386-.99 3.803-.888 8.309.096 4.209-.14 8.848-.523 10.309-.46 1.752-.157 3.481.893 5.083 1.318 2.011 1.39 3.006.419 5.789-.895 2.57-.895 3.454.001 3.752.644.215.923.793.619 1.285-1.581 2.558 1.524 4.626 7.225 4.812 6.706.219 7.185.548 7.986 5.482.643 3.962-1.844 8.172-4.275 7.239-.677-.259-1.465.14-1.752.888-.495 1.29 4.017 2.645 9.856 2.96 1.1.06 3.012.674 4.25 1.366 1.238.692 2.25.985 2.25.652 0-.334.707.1 1.571.965.865.864 2.44 1.571 3.5 1.571 1.061 0 1.929.45 1.929 1s.914 1 2.031 1c1.118 0 2.265.607 2.549 1.349.369.961 1.867 1.218 5.22.896 3.863-.371 5.043-.076 6.606 1.652 2.319 2.562 4.155 2.679 5.526.353.9-1.526 1.16-1.558 2.034-.25 1.267 1.894 1.279 4.074.034 6-.788 1.219-.972 1.09-.985-.691-.019-2.716-1.594-3.848-2.407-1.729-.331.863.071 2.242.895 3.066.823.823 1.497 2.14 1.497 2.925 0 .786.398 1.429.883 1.429 1.708 0 1.9 4.869.219 5.517-1.433.552-1.417.721.148 1.6.963.54 2.437 2.31 3.276 3.933.839 1.622 1.964 2.95 2.5 2.95 1.456 0 1.176-1.941-.526-3.643-1.824-1.824-1.954-4.967-.25-6.057 1.067-.683 4.75-7.508 4.75-8.803 0-.239-.787-.161-1.75.173-1.458.507-1.401.24.343-1.596 1.152-1.213 2.952-2.328 4-2.479 1.049-.15 2.397-1.243 2.996-2.427.599-1.185 1.742-2.945 2.542-3.911.799-.966 2.294-4.345 3.323-7.507s2.248-5.75 2.708-5.75c.461 0 .838-.609.838-1.354 0-.745 1.125-2.568 2.5-4.051 1.375-1.484 2.5-2.964 2.5-3.288 0-.325 1.807-3.452 4.015-6.949 2.209-3.497 3.529-6.358 2.935-6.358-1.957 0-4.95 2.045-4.95 3.383 0 .744-1.19 1.35-2.75 1.399-1.512.047-4.325.391-6.25.765-1.925.374-4.062.704-4.75.733-.687.029-1.25.355-1.25.723s-1.825.741-4.056.828c-2.231.087-4.869.594-5.862 1.125-1.272.681-2.364.544-3.694-.463-2.2-1.665-3.779-1.935-2.888-.493.34.55.141 1-.441 1s-1.059-.691-1.059-1.535c0-1.211-.411-1.316-1.947-.494-1.529.819-2.165.666-2.969-.714-.563-.967-1.037-1.231-1.054-.588-.03 1.178-1.412.966-11.28-1.726-2.062-.563-3.75-1.65-3.75-2.416s-.888-1.674-1.974-2.019c-1.086-.344-2.85-1.74-3.92-3.101-1.724-2.191-1.999-2.27-2.41-.69-.384 1.477-.484 1.423-.58-.314-.064-1.153-1.008-3.178-2.097-4.5-6.369-7.723-10.752-14.377-10.302-15.639.242-.679-.72-1.764-2.138-2.41-2.807-1.279-3.288-2.421-1.329-3.157.731-.274.212-.882-1.25-1.465-1.645-.655-3.142-.659-4.377-.011-1.356.712-2.116.61-2.735-.368-.6-.948-.862-.547-.873 1.338m168.048 8.609c-.061 5.119 1.934 10.851 4.327 12.435.698.462.483.74-.581.75-2.058.018-3.179 1.607-2.225 3.151.467.756 1.271.381 2.404-1.12l1.701-2.255 2.156 3.487c1.185 1.919 2.155 3.907 2.155 4.419 0 .511 1.688 2.73 3.75 4.931 2.063 2.2 5.403 5.888 7.423 8.196 5.447 6.224 8.66 7.145 11.827 3.388 1.375-1.631 4.075-3.862 6-4.958 1.925-1.096 3.387-2.494 3.25-3.108-.138-.614.677-1.116 1.809-1.116 1.151 0 1.78-.452 1.426-1.025-.349-.563-.038-.901.691-.75 1.338.278 1.934-4.721 1.011-8.498-.414-1.698-.49-1.698-1.778 0-.74.975-1.36 1.253-1.377.617-.018-.66-.891-.932-2.032-.634-1.109.29-2 .031-2-.582 0-.608-1.012-1.033-2.25-.945-1.238.088-4.95-.67-8.25-1.684-3.3-1.015-6.557-1.749-7.239-1.631-1.83.317-5.46-1.774-7.957-4.583-1.208-1.358-2.598-2.221-3.09-1.917-1.127.696-9.063-6.852-10.222-9.724-.655-1.622-.881-.855-.929 3.156m-34.881-1.3c-.627 1.375-1.571 2.5-2.098 2.5-1.62 0-1.853 20.803-.265 23.641.9 1.608 4.062-3.959 6.19-10.9.634-2.068 1.519-3.533 1.967-3.256.448.277 1.087-.206 1.419-1.073.934-2.433.716-5.412-.395-5.412-.55 0-.902-.338-.782-.75.486-1.675-2.21-7.25-3.505-7.25-.766 0-1.905 1.125-2.531 2.5m-176.619 1.197c-.666 1.734-.833 3.742-2.066 24.803-.323 5.5-.775 11.35-1.007 13-.838 5.978.578 13.5 2.542 13.5.991 0 2.025.563 2.298 1.25.308.773 2.201-.603 4.966-3.612 4.251-4.625 4.402-4.99 3.093-7.5-.757-1.451-1.379-3.455-1.383-4.454-.003-.998-.503-2.743-1.11-3.878-1.008-1.885-2.174-7.731-3.351-16.806a159.84 159.84 0 00-1.099-7 150.662 150.662 0 01-1.08-6.951c-.528-4.189-.908-4.685-1.803-2.352M170 188.839c0 1.124-4.929 3.323-5.985 2.67-1.11-.686-4.015.47-4.015 1.598 0 .491.659.893 1.465.893.805 0 1.949.905 2.541 2.012.793 1.481 1.781 1.884 3.744 1.528 1.467-.266 2.916-.08 3.221.413.553.894 4.653.174 14.529-2.553 2.75-.759 6.125-1.497 7.5-1.64 3.003-.312 5.38-2.336 4.471-3.807-.439-.71-1.461-.535-3.083.528-2.268 1.487-2.474 1.464-3.157-.349-.693-1.84-.959-1.862-5.17-.434-4.057 1.375-4.545 1.361-5.661-.166-1.135-1.552-1.294-1.543-2.229.127-.955 1.707-1.105 1.711-2.918.07-1.986-1.797-5.253-2.351-5.253-.89m82 32.45c-3.029 1.527-3.923 8.12-3.347 24.7.41 11.82.866 14.011 2.914 14.011 1.587 0 1.704-.899 1.941-15 .088-5.225.484-12.988.879-17.25.395-4.262.582-7.743.415-7.735-.166.008-1.427.581-2.802 1.274m-18 5.603c0 .49-1.125 1.174-2.5 1.519s-2.5 1.32-2.5 2.167c0 .847-.419 1.281-.931.965-.512-.317-1.218-.111-1.569.457-.351.568-1.051.777-1.556.465-1.618-.999-5.251 3.254-4.671 5.469.311 1.19-.261 3.052-1.37 4.462-3.329 4.232-2.159 21.739 1.501 22.443 1.351.26 1.722-.068 1.305-1.155-.523-1.362 1.971-3.338 2.962-2.346 1.102 1.101-1.835 5.662-3.646 5.662-2.136 0-2.584 1.568-1.112 3.893.508.802 1.754 1.166 2.937.857 1.13-.296 2.209-.074 2.397.492.829 2.487 6.593-2.493 9.278-8.015.875-1.8 2.015-3.011 2.533-2.691 1.355.837 1.162-.916-.258-2.336-.834-.834-.859-1.2-.083-1.2.614 0 1.317.563 1.563 1.25 1.278 3.579 1.592-1.077.696-10.326-.555-5.733-1.221-12.82-1.479-15.747-.258-2.928-.727-5.741-1.042-6.25-.731-1.183-2.455-1.207-2.455-.035m-94.118 21.858a5.745 5.745 0 00-.01 1.47c.059.396-.787 1.2-1.882 1.785-1.094.586-1.99 1.575-1.99 2.197 0 .622.296.835.658.473.904-.904 3.453 1.337 2.772 2.438-.301.488-.071.887.511.887s1.059-1.323 1.059-2.941c0-1.618.45-3.219 1-3.559 1.229-.76 1.278-1.594-.492 8.46-.982 5.584-1.152 8.796-.498 9.45.544.544.99 1.638.99 2.43 0 2.465 3.147 4.156 4.751 2.552 2.214-2.215 4.72.937 8.308 10.45.99 2.627.998 3.504.038 4.098-.672.415-1.262 2.174-1.312 3.908-.049 1.733-.436 3.152-.861 3.152-.424 0-.097 1.35.726 3 1.945 3.899 8.729 4.374 11.769.824 1.828-2.135 1.82-2.212-.387-3.999-1.683-1.363-2.091-2.452-1.622-4.323.362-1.443.197-2.502-.391-2.502-.56 0-1.019.675-1.019 1.5s-.408 1.5-.906 1.5c-1.473 0 .037-4.275 2.604-7.374 2.174-2.624 2.252-3.059.891-5-.82-1.169-3.403-5.951-5.741-10.626-5.289-10.576-18.301-24.467-18.966-20.25m64.135 7.718c-.706 1.319-1.336 3.404-1.4 4.633-.065 1.228-.743 2.442-1.509 2.697-1.028.342-1.26-.224-.888-2.167.276-1.447.066-2.631-.468-2.631s-.787 1.575-.562 3.5c.282 2.414.005 3.5-.891 3.5-1.21 0-1.736 2.328-1.377 6.097.083.878-.54 2.171-1.385 2.872-4.287 3.558 2.558 2.439 9.278-1.517l3.316-1.952-.716-6.5c-.394-3.575-.677-7.279-.629-8.23.138-2.754-1.369-2.918-2.769-.302m-133.36 11.42c-6.033 3.977-10.275 10.428-9.842 14.967.217 2.28.798 4.145 1.29 4.145s.914.788.937 1.75c.057 2.397 3.535 8.755 4.182 7.646 1.033-1.773 6.898-27.522 6.59-28.936-.259-1.194-.811-1.119-3.157.428M348 273.787c0 .433-1.445.898-3.211 1.032-1.766.135-3.453.593-3.75 1.019-.296.426-2.339.906-4.539 1.067-2.2.16-4.804.36-5.788.443-.983.084-2.164.763-2.625 1.509-.583.945-1.044 1.021-1.521.25-.376-.609-1.134-1.107-1.684-1.107s-.675.526-.277 1.17c.486.787.178.961-.941.531-.915-.351-1.664-.202-1.664.33 0 .533-.788 1.005-1.75 1.048-1.045.047-1.247.282-.5.583.688.278 1.25 1.19 1.25 2.028 0 .884-.579 1.302-1.378.995-.758-.291-1.883-.024-2.5.593-.829.829-1.122.763-1.122-.252 0-.934-.745-.675-2.324.809-1.278 1.201-2.612 1.896-2.963 1.545s-1.155.657-1.787 2.241c-6.666 16.712-8.574 23.47-7.243 25.661.261.43 3.477-2.113 7.146-5.652 10.126-9.767 24.516-21.63 26.237-21.63.514 0 .934-.626.934-1.392 0-.765 1.012-1.655 2.25-1.977C342.854 283.434 352.497 273 349 273c-.55 0-1 .354-1 .787m108.573 4.367c-.923 1.851-1.573 5.718-1.573 9.363 0 8.28-1.608 16.415-3.851 19.483-1.988 2.719-3.225 6.8-3.484 11.491-.155 2.801.108 3.029 4.124 3.573 3.006.407 4.157.239 3.85-.563-.242-.63.39-1.663 1.404-2.296 1.668-1.042 1.792-2.218 1.31-12.428-.77-16.29-.671-18.02 1.088-19.004 2.143-1.199 2.263-12.773.132-12.773-.784 0-2.134 1.419-3 3.154m-359.575 7.351c-.549 1.444-.998 3.046-.998 3.56 0 .514-.45.935-1 .935s-1 .9-1 2-.405 2-.9 2-.886 1.688-.868 3.75c.017 2.063.225 3.216.462 2.563.314-.866.886-.796 2.118.258.929.795 2.017 1.329 2.419 1.187.402-.142 1.44.754 2.306 1.992.867 1.238 2.17 2.25 2.895 2.25 2.588 0 2.833-8.51.337-11.706-.517-.664-.688-1.616-.379-2.117.31-.5-.278-1.67-1.305-2.6-1.045-.945-1.657-2.498-1.389-3.521.775-2.966-1.596-3.45-2.698-.551m100.809 9.19c-4.133 1.649-5.432 3.847-3.586 6.071.69.832 1.115 2.574.945 3.873-.17 1.299.173 2.361.762 2.361.59 0 1.072-.477 1.072-1.059s.457-.776 1.016-.431c.559.346.758 1.047.441 1.559-.316.512.078.931.877.931 1.547 0 3.114-2.678 2.78-4.75-.111-.687.244-1.25.789-1.25 1.326 0 .965-7.837-.385-8.355-.582-.223-2.702.249-4.711 1.05m-148.2 7.555a286.147 286.147 0 01-1.152 5.75c-.782 3.643.51 14.811 1.881 16.259.647.683 1.623 2.544 2.17 4.137 2.326 6.776 7.74 5.065 9.482-2.996.953-4.409.026-11.691-1.488-11.692-1.154-.001-5.01-5.801-4.675-7.032.124-.454-.307-.496-.958-.094-.822.508-1.011.075-.618-1.426.31-1.186.208-2.156-.226-2.156s-1.025-.9-1.313-2c-.795-3.042-2.414-2.39-3.103 1.25m185.677-2.467c-1.219.191-3.339 1.682-4.712 3.314-1.373 1.632-2.669 2.84-2.881 2.685-.747-.548-3.661 2.457-3.164 3.262.278.45.048 1.1-.511 1.446-1.419.877-1.27 2.504.234 2.541.688.017 3.481 1.124 6.208 2.459 2.726 1.336 4.991 2.334 5.033 2.219.041-.115.595-1.334 1.23-2.709 1.032-2.234 4.279-13.075 4.279-14.287 0-.769-3.307-1.307-5.716-.93m116.196 5.505c-1.307 2.078-3.777 3.926-7 5.239-2.739 1.115-7.294 4.266-10.123 7.001-2.829 2.734-5.979 5.47-7 6.079s-1.994 1.959-2.161 3c-.187 1.167.005 1.462.5.769 2.039-2.852 15.304-3.843 15.304-1.143 0 1.851 2.464 2.443 3.461.831.913-1.478 4.539-.8 4.539.849 0 3.956 2.172-1.18 2.343-5.539.104-2.681.578-5.487 1.052-6.236.528-.835.41-1.641-.306-2.083-.887-.548-.879-1.421.033-3.638 1.168-2.839 2.297-8.456 1.684-8.378-.169.021-1.215 1.483-2.326 3.249m-78.98 1.239a184.182 184.182 0 00-6 5.332c-1.65 1.545-3.794 3.097-4.765 3.449-.971.352-2.197 1.777-2.725 3.166S257.363 321 256.525 321c-.839 0-1.525.484-1.525 1.075 0 .592 1.238.946 2.751.787 1.512-.158 3.363.09 4.111.553.852.526 1.688.325 2.234-.537.633-.998.878-1.033.889-.128.02 1.671 4.798 1.591 9.774-.165 2.206-.778 4.4-1.036 4.876-.572 1.01.984 7.365-1.474 7.365-2.85 0-.513-1.037-1.613-2.305-2.444-1.958-1.282-3.149-3.869-5.282-11.469-.565-2.016-3.684-1.441-6.913 1.277m-190.022 5.575c-.375 1.706-1.536 3.956-2.58 5-2.455 2.455-2.409 4.554.13 5.913 1.115.597 1.785 1.479 1.488 1.959-.795 1.287 2.545 1.765 5.933.849 2.012-.544 3.198-.404 3.735.44.554.872.79.721.801-.513.01-1.196.807-1.75 2.515-1.75 2.649 0 3.168-.932 1.467-2.633-1.836-1.836.034-4.584 2.669-3.922 1.3.326 2.37.247 2.378-.176.007-.423.285-1.781.616-3.019.55-2.053.26-2.25-3.313-2.25-2.155 0-4.476.559-5.159 1.242-.843.843-1.469.904-1.95.192-1.06-1.571-5.484-4.434-6.851-4.434-.659 0-1.505 1.396-1.879 3.102m24.186 18.791c-2.156 8.932-2.169 8.837 1.314 9.602 5.948 1.307 6.916.212 6.443-7.288-.416-6.579-1.828-9.207-4.948-9.207-.63 0-1.894 3.102-2.809 6.893M75 333.033c0 .597-.399.839-.886.537-.488-.301-1.157.46-1.487 1.691-.811 3.028-.773 3.948.139 3.384.421-.261 3.139.142 6.039.894 2.9.753 5.931 1.116 6.734.808.804-.309 1.461-.063 1.461.546 0 1.38 3.66 1.467 4.5.107.34-.55 1.491-1 2.559-1 1.359 0 1.941-.69 1.941-2.3 0-4.318-3.538-6.019-6.454-3.103-1.007 1.007-2.235 1.32-3.322.846-.948-.413-2.487-.657-3.42-.543-.933.114-3.07-.503-4.75-1.372-1.891-.978-3.054-1.166-3.054-.495m22.496 15.974c-.323.522.665 5.459 2.194 10.971L102.472 370l4.014.079c2.208.043 6.827.012 10.264-.069 3.771-.089 6.25.266 6.25.896 0 .714.83.729 2.624.047 2.05-.78 2.872-.657 3.763.561 1.176 1.609 27.429 2.415 35.681 1.096 5.393-.862 30.72-2.03 38.204-1.762 10.274.368 10.404-1.112.228-2.598-10.553-1.542-19.471-1.578-28.5-.115-8.459 1.371-16.544 1.765-17.981.876-.629-.388-2.594-4.897-4.367-10.021l-3.225-9.315-13.196.232c-7.258.128-13.609-.023-14.113-.334-1.677-1.037-24.014-1.55-24.622-.566m120.895 8.295c.36 3.865.907 8.038 1.217 9.273.414 1.65.077 2.343-1.272 2.615-1.709.344-1.716.416-.093 1.055.984.388 2.27.121 2.956-.613.801-.858 2.839-1.143 6.002-.839 2.997.288 5.352-.007 6.294-.789.828-.687 1.505-.837 1.505-.333 0 1.283 15.823 1.424 16.612.148.408-.661.942-.544 1.482.324.68 1.093 1.232 1.117 2.829.127 1.318-.816 2.197-.885 2.618-.204.366.593 4.698.995 10.296.954a1677.88 1677.88 0 0111.663-.058c21.886.14 28.451-.073 28.988-.942.403-.652-1.663-1.02-5.729-1.02-3.497 0-6.815-.456-7.373-1.014-.557-.557-3.359-1.066-6.226-1.131-4.836-.109-5.162-.27-4.526-2.236 2.547-7.87 3.155-10.632 2.436-11.076-.451-.278-8.188-.535-17.195-.57-9.006-.035-24.646-.206-34.756-.381l-18.381-.318.653 7.028m136.415-6.774c-.303.302-4.77.644-9.928.761l-9.378.211-1.801 6c-.991 3.3-2.468 7.298-3.281 8.885-.814 1.587-1.275 3.091-1.025 3.342 1.007 1.007 4.366-.894 4.241-2.4-.074-.886.5-1.834 1.275-2.106.953-.334 1.216.012.81 1.068-.757 1.973 48.144 2.4 56.411.492 4.496-1.038 5.158-.944 7.963 1.13 2.732 2.019 3.238 2.102 4.733.774 1.325-1.178 3.707-1.389 11.421-1.013 8.573.417 9.674.285 9.143-1.099-.473-1.231-2.183-1.573-7.868-1.573h-7.264l-.684-6.046c-.891-7.882-.199-7.688-27.987-7.817-12.603-.058-23.66-.343-24.573-.632-.912-.29-1.906-.28-2.208.023M94.5 442.064c-2.75.481-6.575.946-8.5 1.034-1.925.088-5.835.85-8.689 1.694-5.026 1.487-5.282 1.742-8.12 8.121-5.105 11.475-6.451 17.638-6.569 30.087-.145 15.193.532 19.674 3.904 25.87 4.434 8.147 17.182 18.844 14.754 12.38-.416-1.107.993-.407 3.831 1.903 5.454 4.438 11.949 7.368 12.905 5.821.447-.723 2.384-.393 5.953 1.014 5.932 2.338 7.766 1.857 4.016-1.053l-2.485-1.929 2.417.247c2.343.239 2.488-.153 4.72-12.753 1.267-7.15 2.317-15.989 2.333-19.643.047-10.433-2.739-34.06-4.519-38.319-1.794-4.295-1.302-9.587 1.075-11.56.811-.673 1.474-1.775 1.474-2.449 0-1.491-11.049-1.768-18.5-.465m30.633 2.594c3.183 3.642 4.147 6.853 4.44 14.784.294 7.978 1.406 12.621 6.206 25.911 2.682 7.427 2.997 14.227 1.227 26.463-.531 3.676-.975 10.869-.986 15.985l-.02 9.301 3.608 1.508c1.985.829 3.85 1.266 4.145.97.549-.549 16.434 7.619 23.53 12.099l3.937 2.485 2.854-2.735c1.57-1.504 2.619-3.116 2.331-3.582-.287-.466.109-.847.881-.847 1.875 0 4.916-3.444 3.966-4.491-.414-.457-.12-.463.653-.015.923.536 1.169.435.718-.295-.378-.611.199-2.143 1.281-3.405 32.518-37.925 46.439-74.042 33.779-87.639-5.589-6.003-12.181-6.796-64.672-7.785-28.587-.538-29.439-.498-27.878 1.288M491.66 465.75c-.359 8.663-.655 25.267-.657 36.899l-.003 21.15 4.5.358 4.5.357v-5.257c0-2.891-.42-5.257-.933-5.257-.513 0-.895-1.35-.848-3 .047-1.65.431-3 .853-3s.547-12.262.278-27.248c-.516-28.76-.862-30.752-5.348-30.752-1.486 0-1.767 1.893-2.342 15.75m-2.1 76.724c-.391 6.86-.425 12.935-.076 13.5 1.369 2.214 2.315.79 2.973-4.474.457-3.657 1.146-5.5 2.058-5.5.869 0 1.217.796.951 2.176-.23 1.197.125 2.831.79 3.633 1.582 1.906 2.807-2.222 1.63-5.492-.512-1.424-.368-2.324.414-2.588.897-.302.854-.823-.172-2.066-1.164-1.41-1.164-1.673 0-1.731.754-.037.36-.556-.878-1.152-2.788-1.345-2.961-2.779-.25-2.07 2.88.753 2.484-1.532-.5-2.892-1.375-.626-2.5-1.742-2.5-2.479 0-.736-.839-1.339-1.865-1.339-1.681 0-1.934 1.223-2.575 12.474M128.123 576.75c-.02 5.481 1.557 11.25 3.074 11.25 1.457 0 5.803-2.352 5.803-3.14 0-.451 1.769-1.722 3.932-2.825 5.911-3.016 5.749-3.667-1.868-7.503-10.037-5.054-10.916-4.876-10.941 2.218m226.61 2.068c-1.522.175-2.508.737-2.191 1.25.317.513.099.932-.483.932-1.61 0-1.264 1.707.481 2.377 1.069.41 1.452.063 1.25-1.135-.237-1.411.349-1.665 3.21-1.389 4.266.412 5.335 1.147 1.667 1.147-1.467 0-2.667.42-2.667.934 0 1.182 4.718 1.797 8 1.044 1.375-.316 7.177-.313 12.894.006 13.676.764 17.106.344 17.106-2.093 0-1.46-.741-1.899-3.25-1.924-3.433-.035-22.482-.838-29.25-1.233-2.2-.129-5.245-.091-6.767.084m-184.124 26.828c-3.791 3.522-7.109 6.188-7.374 5.923-.265-.266-1.889.573-3.608 1.862-5.314 3.985-34.319 16.569-38.19 16.569-2.339 0 .776-1.888 5.721-3.468 5.759-1.84 11.754-5.424 9.197-5.499-.629-.018-4.045.863-7.59 1.958-3.546 1.095-7.87 2.147-9.61 2.337-4.02.44-4.134.576-4.747 5.659-.281 2.332-1.119 5.202-1.861 6.377-1.424 2.251-2.213 5.466-3.011 12.253-.266 2.264-.892 5.189-1.39 6.5-.499 1.311-.941 2.726-.983 3.145-.041.419-.544 2.444-1.116 4.5-2.224 7.99 3.63 9.011 32.669 5.695 22.87-2.611 25.959-2.615 36.478-.052 5.664 1.381 5.713 1.374 9.626-1.504 2.163-1.591 5.823-5.395 8.132-8.454l4.199-5.562-.325-19.507-.326-19.507-5.5-4.912c-3.025-2.702-7.3-6.219-9.5-7.815l-4-2.904-6.891 6.406m204.859-5.781c-1.396 1.396-.098 2.311 2.532 1.785 1.818-.364 3-.184 3 .456 0 .721-7.842.953-24.75.732-27.511-.36-33.25-.049-33.25 1.798 0 .686.45 1.524 1 1.864 1.65 1.02 1.13 2.5-.878 2.5-1.033 0-2.587-1.013-3.453-2.25l-1.575-2.25.171 2.75c.202 3.242-1.885 3.064 38.735 3.306 14.025.084 31.057.509 37.85.946 10.123.65 12.509.541 13.235-.604.631-.998.889-1.04.9-.148.008.688.465 1.25 1.015 1.25.55 0 1-2.236 1-4.969 0-4.005-.291-4.857-1.5-4.393-.825.317-1.5.174-1.5-.317s-.788-.934-1.75-.985c-.962-.051-3.325-.411-5.25-.799-1.925-.388-3.035-.33-2.467.129 1.969 1.589 1.007 3.829-1.783 4.15-3.304.381-3.673-1.299-.5-2.274 2.15-.661 2.116-.734-.75-1.656-3.143-1.01-19.223-1.83-20.032-1.021M334.37 625.07c-1.028.374-2.258.453-2.732.177-.474-.277-1.254.117-1.734.875-.481.758-.88.913-.889.345-.016-1.117-3.526-1.143-6.116-.046-.88.373-2.154.544-2.83.379-.677-.165-1.887.657-2.69 1.828-1.454 2.118-1.413 2.13 8.83 2.678 5.66.303 16.244.591 23.52.639 7.276.049 14.292.493 15.589.986 1.298.493 6.258.753 11.021.577 5.446-.202 8.661.059 8.661.702 0 .615 1.098.751 2.75.342 3.188-.789 2.994-.782 14.65-.576 6.417.113 9.128-.211 9.718-1.16.456-.734.39-1.463-.15-1.649-.532-.184-.968-1.133-.968-2.11 0-2.243-32.32-4.575-54.25-3.914-7.562.228-13.75.108-13.75-.265 0-.854-6.129-.718-8.63.192m-275.807 6.075c-15.585 4.191-21.852 9.952-23.187 21.316-.731 6.216.242 7.872 4.116 7.007 7.366-1.645 23.235-2.348 30.066-1.332 4.136.615 7.73.91 7.985.654.467-.466 4.574-13.889 5.826-19.04.664-2.729.63-2.75-4.446-2.75-2.813 0-7.584.718-10.602 1.595-3.017.877-6.349 1.369-7.404 1.094-3.081-.806-9.108 1.456-13.34 5.007-3.554 2.982-6.546 3.873-3.807 1.134.797-.797.831-1.707.114-3.047-1.465-2.738.324-4.424 4.882-4.603 6.794-.266 14.675-2.16 17.444-4.192 1.49-1.093 3.56-1.988 4.6-1.988 2.769 0 8.19-2.05 8.19-3.098 0-1.729-9.576-.678-20.437 2.243m245.447 17.143c.281.311 2.306.761 4.5.999 2.195.238 5.115.881 6.49 1.428 1.375.547 7.9 1.31 14.5 1.696 22.782 1.331 26.047 1.631 38.5 3.541 32.221 4.942 44 4.919 44-.086 0-2.457-2.575-3.599-8.5-3.772-2.75-.08-7.7-.369-11-.642-21.26-1.761-50.786-2.298-56.271-1.025-2.029.471-2.344.373-1.229-.381 1.112-.753.206-1.021-3.5-1.035-2.75-.011-10.175-.306-16.5-.655-6.325-.349-11.27-.38-10.99-.068m-35.799 7.318c-.71.767-.935 1.401-.5 1.409.434.009.114.459-.711 1-1.333.876-1.333 1.094 0 1.97 1.003.658 1.086.989.25 1-3.018.037-1.282 4.758 2 5.44l3.25.675-2.359 1.294c-3.211 1.76 18.441 3.014 27.859 1.613 8.247-1.227 33.216-1.242 52-.032 7.975.514 23.103 1.418 33.619 2.009 10.515.591 20.753 1.283 22.75 1.539 3.736.478 4.97-.795 1.909-1.97-1.38-.529-1.453-.827-.367-1.498 1.681-1.039-2.394-1.928-8.911-1.944-9.855-.025-19.094-1.108-21.922-2.571-1.756-.908-5.563-1.541-9.278-1.541-3.465-.001-9.9-.618-14.3-1.37-4.4-.753-14.975-2.194-23.5-3.203s-15.737-2.169-16.027-2.578c-.289-.409-7.264-.974-15.5-1.256-8.235-.282-18.123-.708-21.973-.947-5.149-.318-7.341-.064-8.289.961M53 691.147c-5.072 2.069-15.303 3.761-17.06 2.821-1.209-.647-2.097-.484-2.948.541-1.622 1.955-.933 2.143 12.359 3.358 11.554 1.057 13.395.813 15.456-2.051.718-.999 2.026-1.816 2.905-1.816 1.394 0 1.366-.256-.212-2-1.975-2.182-6.368-2.539-10.5-.853m195.624 12.993c-.372 6.128-.482 11.335-.245 11.573.607.606 7.385-3.844 11.987-7.87l3.865-3.382-1.508-4.48c-1.145-3.4-2.077-4.56-3.866-4.81-2.323-.324-2.328-.305-.357 1.29l2 1.619-2-.304c-1.1-.167-2-.972-2-1.79 0-1.452-2.395-2.687-5.6-2.886-1.339-.084-1.71 1.716-2.276 11.04m98.746-6.89c.331 1.237.609 3.487.616 5 .013 2.567.296 2.75 4.264 2.744 2.337-.003 5.938-.474 8-1.047 3.525-.979 3.75-1.278 3.75-4.994V695h-8.617c-8.447 0-8.604.044-8.013 2.25m-52.37-.368c-2.634.465-3.579 1.175-3.82 2.868-.175 1.237-.722 2.25-1.214 2.25-1.506 0-3.114 3.957-2.454 6.038.515 1.623 1.535 1.962 5.905 1.962 6.813 0 14.125-4.659 13.018-8.295-1.607-5.277-3.75-6.181-11.435-4.823m110.438 4.868c-.034 2.612-.693 6.206-1.464 7.986-2.147 4.955.203 6.695 2.9 2.148 3.163-5.332 3.945-5.884 8.334-5.884 8.192 0 16.792-2.046 16.792-3.994 0-1.083-1.005-2.041-2.546-2.428-2.935-.737-4.792.066-3.814 1.649.45.728-.124.875-1.734.444-1.323-.354-2.995-.65-3.715-.657-.72-.008-1.045-.441-.722-.964.997-1.613-3.08-3.05-8.653-3.05H405.5l-.062 4.75" fill="#d3d3d3" fill-rule="evenodd"/></svg>