<svg xmlns="http://www.w3.org/2000/svg" width="500" height="333"><path d="M0 59.979V120l14.25.115c16.378.133 17.911.038 19.183-1.185 1.592-1.529-.108-2.165-6.64-2.486l-7.65-.377c-.828-.041-1.116-.695-.739-1.678.453-1.18.192-1.448-.974-1-.877.336-2.344.643-3.262.681-1.341.057-1.276.246.332.967 1.494.669.879.841-2.433.679-3.915-.191-4.519-.538-5.164-2.966-.688-2.59.496-4.052 1.308-1.616.248.743.941.571 2.012-.5.899-.899 2.143-1.634 2.765-1.634.621 0 .881-.403.576-.896-.304-.493.116-2.18.935-3.75.819-1.57 1.491-2.265 1.495-1.545.01 2.155 1.73.413 2.244-2.272.451-2.362-1.233-3.804-4.655-3.988-.504-.027-1.073-.518-1.264-1.091-.228-.685 4.543-1.106 13.917-1.229 9.45-.123 13.758.139 12.764.777-.825.53-1.05.977-.5.994.55.017.351.441-.442.943-.99.627-1.831.386-2.682-.765-1.121-1.519-1.327-1.441-2.176.822-1.393 3.716-.518 5.251 2.15 3.769 1.182-.657 2.487-1.098 2.9-.981.413.116.75-.238.75-.788s.788-1.007 1.75-1.015c1.485-.013 1.524-.158.258-.959-1.214-.767-1.252-1.182-.208-2.226s1.465-1.006 2.261.208c.843 1.287 1.178 1.229 2.437-.42 1.121-1.468 2.859-1.952 7.481-2.08L59 92.34l.015 4.08c.078 20.87 1.353 68.225 1.851 68.761.349.375 3.559.748 7.134.829 10.753.244 10.047.592 8.647-4.26-1.222-4.237-1.242-4.251-6.436-4.552-3.763-.219-5.215.059-5.226 1-.013 1.063-.166 1.065-.837.007-1.04-1.639-1.29-27.244-.451-46.205.548-12.393.811-14.087 1.81-11.659 1.087 2.644 1.283 2.726 2.823 1.186.91-.91 2.111-1.372 2.669-1.027.558.345 1.284-.074 1.613-.931.329-.857 1-1.309 1.493-1.004.492.304.895-.374.895-1.506 0-1.132-.562-2.123-1.25-2.201-.687-.078.55-.427 2.75-.775 2.267-.359 6.332-.053 9.384.708 3.812.95 5.695 1.03 6.45.275 1.468-1.468 4.663-1.343 4.681.184.01.774.295.869.75.25.971-1.322 21.235-1.763 21.235-.463 0 .55.905.427 2.061-.279 1.744-1.065 2.266-.981 3.399.545.982 1.323 1.454 1.456 1.772.5.575-1.725 81.622-1.572 108.018.204.962.064 1.75.791 1.75 1.614 0 .823.45 1.219 1 .879.55-.34 1-.181 1 .352 0 1.129 1.873.983 3.941-.307.931-.581 1.58-.483 1.833.278.641 1.923 2.226 1.338 2.226-.823 0-1.1.338-2.037.75-2.082.412-.045 2.044-.293 3.627-.551 2.111-.345 2.74-.115 2.365.862-.517 1.348 3.683 4.012 4.709 2.987.302-.302.549-1.584.549-2.847 0-2.336 2.28-4.104 5-3.879 3.018.25 4.775 1.654 4.308 3.442-.36 1.376.08 1.775 1.86 1.685 1.983-.099 2.422-.79 2.932-4.617.594-4.462.601-4.468.75-.75.174 4.355 1.819 5.028 2.442 1 .398-2.573.473-2.611 1.159-.592.856 2.515 3.884 3.607 5.506 1.985.835-.835 1.342-.777 1.96.222.522.846 1.626 1.097 2.958.675 1.188-.377 2.125-.239 2.125.313 0 .544 1.396 1.295 3.102 1.669 1.706.375 4.009 1.589 5.118 2.698 1.635 1.635 2.18 1.757 2.883.648.476-.752.873-.93.882-.395.008.534.677.027 1.486-1.128 1.611-2.3 6.519-3.767 6.544-1.956.009.611.452.436.985-.389.533-.825.983-1.05 1-.5.017.55.482.325 1.034-.5.878-1.311 1.173-1.28 2.345.25 1.823 2.379 2.9 2.206 2.094-.336-.591-1.862-.437-1.965 1.432-.965 1.152.617 2.095 1.642 2.095 2.277 0 .636.587.353 1.305-.629 1.376-1.882 4.691-2.311 8.445-1.093 1.426.462 2.25.32 2.25-.387 0-.615-.675-1.117-1.5-1.117-1.698 0-2.011-1.566-.5-2.5.55-.34 1-.141 1 .441 0 1.795 5.841 1.213 6.931-.691 2.622-4.58 2.738-4.636 5.092-2.444 1.305 1.216 1.987 2.725 1.641 3.628-.419 1.09.207 1.737 2.121 2.194 1.493.356 3.327 1.132 4.076 1.724 1.966 1.556 6.217 1.958 5.901.559-.144-.639.226-1.342.821-1.564 1.037-.385 1.226.146 1.655 4.653.185 1.939 1.762 2.918 1.762 1.094 0-1.668 4.89 1.379 5.465 3.406.546 1.924.621 1.93 1.969.171 1.094-1.427 1.826-1.602 3.329-.798 1.411.755 2.464.657 3.926-.368 2.374-1.663 6.311-.896 6.311 1.228 0 1.097.605 1.312 2.25.798 4.652-1.451 9.75-1.393 9.75.111 0 1.064.567.908 2.189-.603 2.578-2.402 4.811-2.652 4.811-.539 0 1.755 1.363 1.911 4.066.465 1.143-.612 1.934-.65 1.934-.094 0 .518.884.711 1.964.428 4.871-1.274 7.301 10.452 2.873 13.859l-2.337 1.798 2.25.022c1.362.013 2.25.638 2.25 1.581 0 .857.45 1.281 1 .941 1.366-.844 1.204.65-.282 2.594-.805 1.054-1.057 3.933-.743 8.5l.475 6.906.598-7c.33-3.85.671 6.05.76 22 .106 19.029-.172 28.484-.808 27.5-.814-1.26-.972-1.198-.985.386-.013 1.664-.555 1.812-4.598 1.258-6.074-.833-6.417-1.13-6.417-5.552v-3.79l-9.75-.646c-5.363-.355-14.162-.648-19.555-.651L363.89 175l.305-4.75.305-4.75 19.25.382c10.701.213 19.293-.01 19.346-.5.053-.485.264-8.194.469-17.132l.373-16.25H330l-.07 36.25c-.038 19.938-.01 42.887.064 51l.135 14.75h-11.533c-9.841 0-11.449-.22-10.958-1.5.317-.825.894-1.5 1.284-1.5.389 0 1.459-1.575 2.377-3.5.918-1.925 2.201-3.5 2.851-3.5.651 0 .918-.265.595-.589-.324-.323.47-3.4 1.763-6.836 11.839-31.453-3.402-67.972-33.484-80.234l-5.524-2.251-.65 2.205-.651 2.205-.099-2.25c-.055-1.238-.604-2.25-1.219-2.25-.795 0-.941 3.118-.504 10.75.436 7.604.322 10.059-.389 8.39-.553-1.298-1.061-6.375-1.129-11.283l-.124-8.922-3.617-.061c-1.99-.033-12.578-.265-23.53-.515-11.935-.272-20.147-.075-20.5.491-.323.519-.439 4.14-.256 8.047l.332 7.103H232v6.918c0 7.403-.665 10.407-2.105 9.517-.492-.304-.895.149-.895 1.006s.338 1.506.75 1.441c3.608-.57 4.25.203 4.25 5.118 0 2.75.45 5 1 5 .564 0 1-2.833 1-6.5 0-4.667-.353-6.429-1.25-6.25-.788.158-1.368-1.185-1.568-3.633-.268-3.267-.056-3.783 1.331-3.25.908.348 2.191.633 2.852.633 1.296 0 1.468 3.844.258 5.8-.407.66-.388 1.763.043 2.45.431.688.641 2.118.466 3.178-.586 3.553 1.127 13.463 1.789 10.35 1.098-5.164 2.923-1.415 3.645 7.487l.709 8.735h-2.637c-2.455 0-2.638.309-2.638 4.441 0 2.443-.45 4.719-1 5.059-.607.375-1.005-1.076-1.014-3.691-.007-2.37-.308-5.41-.668-6.755-.606-2.266-.71-2.303-1.416-.5-.51 1.303-.785.233-.832-3.234l-.07-5.181-3.25.176c-1.787.096-3.581.627-3.985 1.18-.404.553-.81-.795-.902-2.995-.245-5.84-.315-6.286-1.126-7.096-.405-.406-.737-2.946-.737-5.646 0-4.732-.099-4.902-2.75-4.727-6.143.405-5.987.614-6.751-9.049-.398-5.019-.317-9.564.181-10.25.493-.678.878-4.382.858-8.232l-.038-7-14.252-.5-14.252-.5.002 8.25c.002 8.165.028 8.25 2.539 8.25 2.42 0 2.512.207 1.997 4.5-.554 4.612-.074 5.132 4.216 4.575.688-.09 1.25.812 1.25 2.004 0 1.812-.245 1.962-1.5.921-1.229-1.02-1.5-.951-1.5.378 0 .892.675 1.622 1.5 1.622 2.038 0 1.894 1.674-.25 2.905-1.499.861-1.283 1.101 1.5 1.675 3.069.633 3.25.913 3.25 5.045 0 3.952.232 4.375 2.401 4.375 2.182 0 2.387-.388 2.25-4.25-.137-3.851.087-4.278 2.383-4.546 2.208-.257 2.565.119 2.779 2.923.135 1.771-.317 3.567-1.005 3.992-2.017 1.247-.643 1.744 5.973 2.162 3.425.216 6.499.666 6.832.999.333.332.171 4.793-.36 9.912-.763 7.353-.996 8.212-1.109 4.088l-.144-5.219-3.453.13c-3.418.128-3.457.182-3.815 5.219l-.362 5.09-.185-5.25c-.201-5.716-.53-5.931-7.06-4.625-2.836.567-3.125.973-3.125 4.389 0 3.509.236 3.808 3.5 4.42 3.052.573 3.5 1.031 3.5 3.58 0 2.188-.377 2.778-1.5 2.348-1.041-.4-1.5.069-1.5 1.531 0 1.206.641 2.107 1.5 2.107 1.138 0 1.5 1.236 1.5 5.122 0 4.172.249 4.916 1.342 4.009.738-.612 1.638-.818 2-.456.362.362.658.181.658-.401 0-.583-.605-1.292-1.345-1.576-.74-.284-1.386-1.926-1.435-3.648l-.089-3.132 7.685.291 7.684.291.305 4.75.305 4.75H234v4.5c0 2.475.45 4.5 1 4.5s1 2.051 1 4.557v4.558l4.25-.308 4.25-.307-.327-3.75c-.209-2.407.098-3.75.859-3.75.775 0 .96.894.536 2.584-.472 1.881-.319 2.38.562 1.836.871-.539.989-.213.421 1.166-.434 1.053-.811 2.446-.837 3.097-.033.816-1.481 1.013-4.664.637-3.514-.417-4.936-.162-5.956 1.066-1.482 1.787-4.094 2.178-4.094.614 0-.55-.45-1-1-1s-1 .638-1 1.417-.563 1.643-1.25 1.921c-.688.277 2.264.54 6.559.583 4.97.05 7.584-.285 7.191-.921-.34-.55.069-1 .91-1 .956 0 1.309.569.943 1.522-.484 1.263.2 1.444 4.032 1.069 2.538-.248 4.615-.076 4.615.383 0 .46 1.742.602 3.87.317 2.238-.301 4.15-.068 4.532.551.364.589 1.435.823 2.38.52 1.455-.466 1.488-.388.218.514-1.219.865-.895 1.186 1.734 1.716 1.778.358 3.009 1.014 2.735 1.458-.274.443.468 1.113 1.649 1.487 1.684.535 1.849.87.764 1.557-2.207 1.398-4.159 1.069-3.52-.594.695-1.813.213-1.876-2.305-.303-1.437.897-1.682 1.636-.977 2.952.976 1.825 8.006 2.152 10.683.497.781-.482 1.237-.189 1.237.795 0 .857.477 1.559 1.059 1.559s.781-.45.441-1c-.343-.555.409-1.007 1.691-1.015 1.858-.013 2.016-.205.809-.985-1.169-.755-.893-.973 1.25-.985 1.866-.01 2.75.502 2.75 1.592 0 1.018.55 1.396 1.5 1.031.825-.316 1.5-.113 1.5.452 0 .566.409.775.91.466 1.292-.799 4.189.474 3.525 1.549-.304.492-.076.895.506.895s1.059-.454 1.059-1.008c0-.603.796-.512 1.975.224 1.559.974 2.233.976 3.2.009.967-.967.873-1.225-.444-1.225-1.072 0-1.463-.536-1.093-1.5.616-1.604 3.362-2.099 3.362-.607 0 .491.698 1.161 1.552 1.489.89.341 1.291.173.941-.393-.358-.58.837-.989 2.889-.989 3.943 0 5.643 1.499 2.603 2.294-1.813.474-1.944 3.795-.14 3.556 2.024-.268 3.155.323 3.155 1.65 0 1.96.984 1.905 2.479-.14.947-1.295 1.601-1.406 3.11-.53 1.816 1.054 1.801 1.111-.308 1.14-1.555.021-2.046.479-1.643 1.53.317.825 1.004 1.5 1.528 1.5s.674-.45.334-1-.141-1 .441-1 1.06.337 1.061.75c.001.413 2.251.855 5 .983 3.129.146 4.998-.18 4.998-.874 0-.751 1.916-.92 5.952-.525 5.147.503 5.871.368 5.349-.993-.513-1.335-.274-1.397 1.575-.407 1.199.641 1.916 1.594 1.593 2.116-.527.853 3.958 1.468 7.355 1.008.728-.099 1.985.369 2.793 1.039 1.112.923 1.749.937 2.625.061.637-.637 3.431-1.105 6.208-1.04 4.389.103 4.657.219 2.05.882-2.515.64-2.626.783-.691.882 1.378.07 2.04.553 1.642 1.197-.419.677-2.394.842-5.309.441-3.855-.529-5.016-.288-6.85 1.421-2.659 2.479-2.905 2.509-3.696.448-.453-1.18-.192-1.448.976-1 1.004.385 1.444.158 1.187-.613-.761-2.283-6.393-2.684-8.192-.583-.895 1.045-1.331 2.38-.969 2.965.362.586.038 1.458-.72 1.938-1.982 1.256 2.251 1.186 5.614-.093 1.832-.697 2.424-.676 1.965.067-.362.585-.05.962.693.837.742-.125 2.7.363 4.35 1.085 4.166 1.824 6.5 2.177 6.5.983 0-.584 1.165-.759 2.75-.413 2.217.483 2.459.375 1.25-.559-1.221-.944-.988-1.078 1.25-.72 1.512.242 2.75.052 2.75-.422 0-.473-.623-.861-1.383-.861-.761 0-1.619-.9-1.907-2-.623-2.383.113-2.513 2.956-.521 1.917 1.342 2.158 1.304 2.607-.416.273-1.042.008-2.382-.589-2.979-.779-.779-.605-1.084.616-1.084 1.468 0 2.208 1.711 1.827 4.225-.061.398 3.149.682 7.131.63 4.816-.063 6.572-.37 5.242-.916-1.954-.804-1.95-.837.181-1.479 1.503-.453 1.989-1.17 1.563-2.309-.515-1.374-.362-1.443.911-.41.841.683 1.798.973 2.126.644.719-.718 9.032 2.309 13.219 4.813 3.091 1.849 8.043 2.49 7.07.916-.685-1.109 3.396-2.253 4.843-1.358.593.366-.039.966-1.423 1.352-2.645.736 3.141 1.36 9.407 1.015 1.594-.088 3.987.554 5.318 1.426 2.272 1.488 8.31 1.226 16.193-.704.932-.228 1.473.617 1.6 2.5.178 2.624-.028 2.801-2.657 2.275-3.255-.651-3.635.047-1.101 2.026 1.58 1.234 1.481 1.324-1.02.923-1.524-.244-2.542-.073-2.262.38.28.453-.459 1.077-1.644 1.387-1.732.453-1.922.841-.971 1.987.65.783.901 2.156.557 3.05-.64 1.669 2.784 2.265 9.84 1.714 2.768-.216 3.826 1.344 1.5 2.213-.782.292-.501.725.75 1.157 1.1.379 2.781 1.106 3.736 1.616.955.51 2.466.927 3.357.927.966 0 1.407.557 1.092 1.378-.291.758-.024 1.883.593 2.5.829.829.165 1.122-2.547 1.122-2.966 0-3.55-.309-3.048-1.615.5-1.304.18-1.476-1.657-.893-1.699.539-2.078.402-1.495-.542.586-.948.178-1.088-1.625-.557-1.323.389-2.955.822-3.627.962-.672.139-1.527.56-1.901.934-.374.374-1.273-.101-1.997-1.055-1.727-2.273-1.72-3.301.018-2.634.769.295 1.676.088 2.014-.46.756-1.223-2.867-2.46-6.869-2.346-2.182.062-2.579-.16-1.504-.84.803-.508 1.01-.937.46-.954-.55-.017-.325-.467.5-1 1.282-.828 1.246-.972-.25-.985-.962-.008-1.75.435-1.75.985s-.637 1-1.417 1c-.779 0-1.643.562-1.921 1.25-.403 1-.52 1-.583 0-.044-.699-1.376-1.25-3.02-1.25-1.618 0-3.23-.468-3.584-1.041-.354-.572-1.527-.76-2.607-.417-1.08.343-2.612.085-3.405-.573-2.13-1.767-8.463-.364-8.463 1.876 0 .965-.54 2.295-1.2 2.955-.933.933-.711 1.2 1 1.2 2.619 0 2.942 1.659.45 2.311-1.101.287-.752.5.941.573 2.957.127 4.551 1.651 2.565 2.452-.736.296-.507.539.553.585.995.043 1.548.502 1.228 1.018-.319.517.329.871 1.441.788 2.384-.18 2.668-1.542.496-2.375-1.176-.452-1.262-.902-.377-1.969.882-1.062.829-1.403-.225-1.469-.754-.047-.061-.478 1.542-.957 3.237-.968 4.586-.52 4.586 1.523 0 .748 1.463 1.717 3.25 2.152l3.25.791-4 .71-4 .711 4.166-.19c2.347-.108 3.916.213 3.594.735-.324.523.413.668 1.693.333 1.363-.356 4.317.337 7.407 1.738 7.497 3.397 8.653 3.669 9.23 2.167.644-1.68 10.026-1.59 12.91.124 1.899 1.128 1.87 1.19-.583 1.219-1.616.019-2.584.592-2.584 1.53 0 .86.902 1.5 2.111 1.5 2.398 0 5.392 2.993 4.792 4.792-.219.658.702 1.614 2.046 2.125 3.541 1.347 4.343 4.083 1.196 4.083h-2.46l3.139 3c1.727 1.65 3.798 3 4.602 3 .97 0 .668-.644-.898-1.914-3.235-2.622-2.305-3.051 4.139-1.911 3.025.535 6.065 1.015 6.756 1.066.69.051 1.199.58 1.131 1.176-.383 3.344.26 4.581 2.363 4.551 2.084-.029 2.121-.13.5-1.36-2.889-2.193-1.992-2.542 2.25-.876 4.372 1.717 5.096 2.951 2.026 3.448-1.443.234-1.732.708-1.073 1.762.636 1.016 2.916 1.459 7.724 1.5l6.823.058.031-50c.017-27.5-.111-45.43-.284-39.844l-.315 10.157-2.716-1.355c-1.494-.745-5.357-2.042-8.585-2.882-3.228-.841-6.555-2.098-7.394-2.794-1.311-1.089-1.426-.952-.814.976.434 1.367.295 2.242-.356 2.242-.587 0-1.067-.9-1.067-2 0-4.101-2.949-1.348-3.034 2.832-.019.917-.903 3.468-1.966 5.668s-1.947 4.544-1.966 5.209c-.054 1.935-8.313-2.001-8.622-4.11-.144-.98-.408-1.877-.587-1.993-5.253-3.411-5.425-3.456-6.678-1.759-2.201 2.983-.337-3.562 4.414-15.497 4.794-12.042 4.882-12.35 3.545-12.35-.491 0-2.103 3.037-3.582 6.75-5.869 14.733-9.413 21.242-9.255 17 .025-.687-.056-2.15-.182-3.25l-.228-2-.837 2c-.758 1.81-.951 1.691-2.028-1.25-1.352-3.693-1.58-3.806-3.6-1.787-1.516 1.517-6.394.278-6.394-1.624 0-1.675-2.002-.791-2.063.911-.049 1.341-.275 1.224-.968-.5-1.138-2.83-5.807-3.281-5.168-.5.397 1.73-.163 1.607-5.871-1.286-2.922-1.48-4.727-2.983-4.339-3.611.366-.592.045-1.46-.713-1.928-1.373-.849-2.041-23.095-.733-24.404.299-.298 2.488.144 4.866.983 2.377.839 5.147 1.263 6.156.943 1.067-.339 1.833-.091 1.833.593 0 .646.675.915 1.5.598.825-.316 1.5-.214 1.5.227s.675.802 1.5.802c1.604 0 1.947-.887.791-2.042-.389-.39-.727-2.565-.75-4.834-.024-2.378-.57-4.301-1.291-4.541-.719-.24-1.25.423-1.25 1.56 0 1.806-1.771 3.19-4.082 3.19-.505 0-.954-1.012-.997-2.25-.043-1.238-.312-1.669-.597-.958-.829 2.064-3.208-.52-2.604-2.829.282-1.08.109-1.963-.385-1.963-1.73 0-3.791-9.1-2.274-10.038.739-.456 1.702-.608 2.141-.337.439.271.798.016.798-.566s-.675-1.059-1.5-1.059-1.556-.675-1.625-1.5c-.294-3.532-1.834-7.5-2.911-7.5-.496 0-.674.592-.397 1.315.278.724.065 2.411-.474 3.75-1.268 3.154-1.287-12.95-.02-16.902.621-1.935.796-.818.641 4.089-.132 4.152.171 6.622.786 6.413.55-.187 1.01-1.392 1.022-2.677.012-1.285.588-2.525 1.281-2.756.693-.231 1.133.129.978.799-.154.671.282 1.425.969 1.677.829.304 1.25-.58 1.25-2.625 0-1.695.436-3.083.969-3.083.532 0 .709-.675.393-1.5-.317-.825-.078-1.5.531-1.5s1.107-.477 1.107-1.059-.45-.781-1-.441c-1.077.666-1.288-.314-1.077-5 .129-2.866.067-2.913-1.394-1.059-1.042 1.324-1.184 2.154-.445 2.611.709.438.569.867-.406 1.241-2.654 1.019-4.53-2.387-4.191-7.609.171-2.649.582-5.086.912-5.417.331-.33.54-2.663.465-5.184-.075-2.521-.331-3.571-.57-2.333-.933 4.847-2.088 1.878-1.945-5 .144-6.908.257-7.235 2.401-6.937 1.238.172 2.25-.166 2.25-.75 0-.585.45-1.063 1-1.063s1 .9 1 2c0 1.417.667 2 2.287 2 1.548 0 2.335.628 2.434 1.943.092 1.218-.339 1.757-1.153 1.445-.957-.367-1.21.502-.963 3.307.669 7.597.661 8.851-.074 11.555-.525 1.931-.376 2.75.5 2.75.687 0 1.829.787 2.538 1.75 1.107 1.502 1.281.97 1.222-3.75-.103-8.24.11-10 1.209-10 .55 0 1.046 1.688 1.102 3.75l.103 3.75.738-3.087c.998-4.174 1.864-5.401 3.866-5.476 1.225-.046 1.071-.313-.559-.968-1.238-.498-2.25-1.594-2.25-2.437 0-.842-.45-1.532-1-1.532s-1 .54-1 1.2c0 3.34-2.019-1.327-2.163-4.999-.156-3.974-1.82-6.175-1.852-2.451-.012 1.384-.198 1.462-.889.372-.48-.758-1.326-1.098-1.879-.756-.554.342-1.284-.099-1.622-.98-.448-1.168-1.562-1.492-4.105-1.195-3.324.388-3.487.263-3.42-2.642.039-1.677.495-3.949 1.014-5.049.805-1.707.888-1.593.564.774-.419 3.061.781 4.407 2.646 2.967.663-.512 3.343-1.509 5.956-2.216 2.613-.707 4.75-1.725 4.75-2.262 0-.537.647-.729 1.437-.426.79.304 4.903-.548 9.139-1.893 4.236-1.344 8.758-2.444 10.049-2.444 4.55 0 21.255-4.827 17.125-4.948-2.607-.077-2.141-3.031.5-3.17 3.431-.181 5.216.208 5.585 1.216.547 1.49 2.165-.06 2.165-2.074 0-1.021.562-2.084 1.25-2.362.688-.277-.003-.54-1.535-.583-2.319-.066-2.635-.372-1.885-1.829.495-.962.689-2.341.43-3.063-.258-.723.365-1.923 1.384-2.669 1.019-.745 1.596-1.611 1.283-1.924-.848-.849 1.416-11.239 2.55-11.698.537-.218 1.489 1.911 2.115 4.731 1.361 6.129 2.177 7.634 3.647 6.725.708-.438.873-.087.462.984-.351.915-.25 1.664.223 1.664.474 0 1.145-.736 1.49-1.636.581-1.515.762-1.515 2.436 0 .994.9 2.516 1.636 3.381 1.636 1.45 0 3.769 4.635 3.769 7.533 0 1.942-4.327 2.667-5.618.94-.992-1.326-1.261-1.324-2.373.016-.69.831-1.9 1.511-2.69 1.511-.791 0-1.143.476-.783 1.059.363.587 1.877.79 3.4.455 1.815-.399 3.163-.1 3.978.882.678.817 1.853 1.247 2.611.956 1.071-.411 1.458 1.002 1.731 6.309.194 3.762.44-20.04.548-52.893L501 .036l-77.75.001c-46.081.001-78.35.38-79.224.929-.968.61-1.739.518-2.25-.269-.579-.893-1.026-.816-1.761.303-.63.96-.99 1.06-1 .277C339.003.32 316.199.048 234.5.028L130 .002l-.035 2.249-.036 2.249-1.226-2.207-1.227-2.206L63.738.022 0-.042v60.021m.469.521c0 33 .127 46.355.281 29.678.154-16.677.153-43.677-.001-60S.469 27.5.469 60.5m9.837 63.382c-.649 1.038-.949 2.952-.668 4.253.473 2.189.403 2.234-.932.604-1.257-1.534-1.6-1.572-2.66-.294-1.723 2.075-.279 3.83 2.563 3.117 1.35-.339 2.391-.156 2.391.419 0 .56.886 1.019 1.969 1.019 1.346 0 1.785.478 1.388 1.513-.32.832-.075 2.122.543 2.867 1.2 1.445-1.285 4.569-2.593 3.26-.355-.354-1.469.101-2.476 1.013-1.192 1.079-1.831 1.234-1.831.443 0-.668-.45-.936-1-.596-1.83 1.131-1.179 4.495.75 3.874 1.477-.475 1.516-.394.25.516-1.973 1.419-.43 1.395 3.584-.057 2.701-.976 3.49-.902 4.85.458.893.893 2.282 1.371 3.087 1.063.823-.316 1.734.148 2.085 1.063.544 1.416.865 1.345 2.509-.549 1.037-1.196 1.914-1.768 1.948-1.271.035.497.471-.109.968-1.347.498-1.238 1.649-2.25 2.559-2.25 1.352 0 1.429.273.42 1.488-1.002 1.207-.923 1.608.421 2.124 2.194.842 2.659.236 2.882-3.756.205-3.679-1.835-4.632-4.031-1.882-1.075 1.347-1.222 1.32-1.25-.224-.018-.963-.509-1.75-1.091-1.75s-.8.419-.484.931c1.002 1.621-1.175 2.114-2.466.558-.934-1.125-.945-1.489-.046-1.489.759 0 .956-.815.543-2.25-1.653-5.75-1.66-5.668.46-5.26 1.617.311 2.052-.122 2.052-2.047 0-2.588-1.43-3.29-2.428-1.193-.327.688-.404.23-.172-1.018.519-2.786-1.756-5.232-4.864-5.232-2.572 0-3.809 2.065-2.845 4.75.816 2.275-.668.923-2.09-1.903-1.475-2.933-2.871-3.246-4.295-.965m72.675 11.346c-.61 2.349-1.518 5.822-2.018 7.716-1.126 4.266-1.429 4.032 5.422 4.19l5.717.131-.301 4.118c-.234 3.206-.688 4.086-2.051 3.978-.963-.076-1.75.261-1.75.75s1.8.889 4 .889h4v4.5c0 4.133.204 4.5 2.5 4.5 2.246 0 2.487-.382 2.368-3.75l-.131-3.75-.619 3.223c-.758 3.951-2.519 3.048-2.872-1.473-.224-2.869.04-3.25 2.25-3.25 2.301 0 2.504.365 2.504 4.5 0 4.214.175 4.507 2.75 4.616 1.513.064 2.037.307 1.167.541-1.144.307-1.584 1.662-1.584 4.884V176H114v-4.5c0-4.382-.085-4.504-3.25-4.636-2.35-.099-2.627-.256-1-.57 1.237-.238 2.25-.9 2.25-1.471 0-.57-.642-.791-1.427-.489-2.248.862-3.92-1.801-2.085-3.324 1.121-.931 1.512-.95 1.512-.073 0 .649.45.903 1 .563 1.718-1.062 1.095-2.5-1.083-2.5-1.146 0-1.922-.484-1.725-1.075.197-.591.684-1.041 1.083-1 .399.041 2.075.075 3.725.075 2.889 0 3 .167 3 4.5 0 3.969.266 4.513 2.25 4.606 1.237.059 3.15.173 4.25.254 3.31.245 5.805-1.288 4.553-2.796-.592-.714-.97-2.145-.839-3.181.23-1.829-.527-5.784-4.096-21.383l-1.716-7.5-18.156-.272-18.157-.273-1.108 4.273m60.098-.478c-2.074 7.793-2.418 12.243-.957 12.362.758.061 3.178.201 5.378.311l4 .2.305 4.689c.3 4.618.356 4.688 3.75 4.688 2.778 0 3.445.387 3.445 2 0 1.1.408 2 .906 2 .499 0 .653-.97.343-2.156-.387-1.478-.2-1.932.593-1.441.732.452 1.158 3.882 1.158 9.323 0 9.762-.504 10.523-1.289 1.946-.555-6.059-1.711-8.991-1.711-4.339 0 1.655-.547 2.667-1.441 2.667-1.802 0-2.131.583-2.981 5.291l-.684 3.792 8.303-.292c4.567-.16 8.152-.691 7.968-1.179-.185-.489.265-1.269 1-1.735 1.103-.699 1.097-.849-.037-.862-1.164-.013-1.164-.269 0-1.68 1.223-1.485 1.438-1.242 1.98 2.25l.608 3.915.142-4.75c.113-3.773-.192-4.75-1.48-4.75-1.265 0-1.371-.304-.479-1.378 1.334-1.607 8.131-33.259 7.317-34.073-.302-.302-8.332-.549-17.844-.549h-17.295l-.998 3.75m-14.088 26.562c-.004 2.303-.292 6.551-.639 9.438l-.631 5.25 7.89-.001 7.889-.001.283-4.397c.272-4.221.172-4.396-2.5-4.35-7.066.123-7.174.053-7.85-5.046-.497-3.742-1.053-4.826-2.535-4.938-1.583-.119-1.899.551-1.907 4.045M255 197c0 24.131.277 31.001 1.25 31.005 2.688.011 11.342-3.581 13-5.396 1.681-1.839 1.75-1.608 1.75 5.845 0 6.487-.246 7.666-1.5 7.184-.881-.338-1.5-.013-1.5.786 0 1.603 3.019 2.992 4.04 1.859.387-.431.99-3.483 1.339-6.783.434-4.111.322-5.528-.357-4.5-.74 1.119-.991.485-.991-2.5 0-2.947.255-3.605.969-2.5.805 1.245.977 1.16 1.012-.5.024-1.1 1.374-3.305 2.999-4.9 7.63-7.486 10.165-23.639 5.274-33.6-4.3-8.757-6.86-12.642-8.065-12.24-.671.224-1.22-.081-1.22-.677 0-.596-.337-.995-.75-.887-.413.108-3.294-.567-6.404-1.5s-6.822-1.696-8.25-1.696H255v31m-108.5-26.235c-.55.404-1.156 3.885-1.347 7.735-.191 3.85-.753 7.428-1.25 7.95-.497.522-.903 2.66-.903 4.75v3.8l5.25.115c2.887.063 5.992.043 6.9-.046 1.257-.122 1.815 1.04 2.344 4.885.557 4.054 1.068 5.046 2.6 5.046 1.592 0 1.906.741 1.906 4.5 0 3.973.264 4.511 2.25 4.592 8.845.361 8.202-.059 7.887 5.158-.276 4.545-.174 4.75 2.364 4.75 2.362 0 2.633-.356 2.474-3.25-.309-5.654-.233-5.75 4.58-5.75h4.555l-.305-4.75-.305-4.75-4.25-.307-4.25-.308v5.058c0 2.781-.408 5.057-.906 5.057-.499 0-.653-.97-.343-2.156.387-1.478.2-1.932-.593-1.441-.781.482-1.158-.283-1.158-2.347 0-2.84-.236-3.044-3.25-2.809l-3.25.253-.855-10.22-.854-10.22-5.646.139c-3.105.076-7.38.063-9.501-.03l-3.856-.169.364-8c.199-4.4.359-7.993.355-7.985-.004.009-.457.346-1.007.75m206.986 17.485c-.975 5.234-.111 36.727 1.014 37.004.635.156 1.099-7.141 1.271-20.004.169-12.678-.094-20.25-.705-20.25-.536 0-1.248 1.463-1.58 3.25M111 190.5c0 4.133.204 4.5 2.5 4.5 1.375 0 2.548-.562 2.606-1.25.059-.687.171-2.032.25-2.987.079-.956.594-1.737 1.144-1.737.55 0 1.065.781 1.144 1.737.079.955.191 2.3.25 2.987.223 2.63 4.859 1.376 5.545-1.5.361-1.512.89-3.537 1.176-4.5.463-1.558-.309-1.75-7.048-1.75H111v4.5m59-.136v4.364l4.598.63c8.065 1.106 10.348-.457 10.388-7.108.013-2.135-.371-2.25-7.486-2.25H170v4.364M59.315 229.378c.683 1.779-1.158 3.62-2.937 2.937-.818-.314-1.378.124-1.378 1.078 0 2.154-8.12 2.543-10.604.508-1.12-.916-38.087-1.056-41.527-.157C1.33 234.147 1 235.202 1 239.725c0 5.359.061 5.477 2.5 4.864 1.375-.345 2.5-.2 2.5.322 0 .523-1.012 1.094-2.25 1.269-2.221.316-2.254.541-2.523 17.47L.954 280.8l3.294-.743c1.813-.409 4.186-.396 5.274.03 1.769.691 1.787.78.169.843-.995.038-1.531.52-1.191 1.07.518.838-3.896 1.569-6.75 1.118-.413-.065-.75.609-.75 1.499 0 1.124.609 1.457 2 1.093 1.1-.287 2-.167 2 .267 0 .434-.881 1.02-1.958 1.302-1.791.468-1.959 1.429-1.959 11.222 0 10.51.041 10.7 2.179 10.141 2.549-.667 6.738.207 6.738 1.405 0 .457-2.025 1.134-4.5 1.505l-4.5.675v20.688l13.75-.208c7.563-.114 14.611-.621 15.664-1.127 1.384-.665 1.714-.596 1.191.25-.528.854 1.319 1.17 6.836 1.17 5.919 0 7.559-.313 7.559-1.443 0-.904.746-1.298 2-1.057 2.181.42 2.77-1.023.75-1.838-.731-.295-.507-.537.542-.583 2.322-.102 6.71-4.04 4.647-4.169-.792-.05.04-.517 1.847-1.038s3.018-1.381 2.691-1.91c-.327-.529-.006-.969.714-.977 1.043-.013 1.033-.191-.048-.875-2.13-1.35-.445-5.11 2.29-5.11 1.263 0 3.441-.9 4.84-2 3.36-2.643 4.727-2.524 4.727.412 0 2.052-.624 2.518-4.18 3.118-4.131.698-4.152.723-1.75 2.053 2.558 1.417 9.382 1.991 7.201.606-.926-.588-.802-1.163.5-2.329.951-.852 2.391-2.519 3.2-3.704.809-1.186 2.073-2.156 2.809-2.156.736 0 1.116-.359.845-.798-1.079-1.746 1.266-3.304 5.213-3.461 3.268-.13 4.162-.55 4.162-1.953 0-.984.45-1.788 1-1.788s1-.436 1-.969c0-.532-.671-.711-1.492-.396-.838.322-1.75-.103-2.082-.968-.325-.847-1.229-1.296-2.009-.997-.779.299-1.417.072-1.417-.504 0-1.174 1.816-2.506 3.834-2.812.734-.111 1.935-1.023 2.668-2.026.734-1.004 1.653-1.506 2.043-1.116.39.389 2.043.018 3.675-.826 1.631-.843 2.715-1.784 2.408-2.091-1.087-1.088-7.525-.989-7.326.112.109.601-.608 1.097-1.594 1.102-.985.005-2.124.546-2.53 1.203-.406.657-2.749 1.438-5.208 1.735-4.212.51-4.28.482-1.173-.494 1.813-.569 3.549-1.691 3.857-2.494.308-.802 1.213-1.459 2.012-1.459.799 0 1.174-.45.834-1-.671-1.085-10.347-1.38-12.918-.393-2.165.831-2.012 2.656.168 2.008 6.093-1.81 7.25-1.829 7.25-.116 0 1.159-.517 1.517-1.594 1.103-1.072-.411-3.202 1.029-6.495 4.393-2.696 2.753-5.552 5.005-6.347 5.005-.795 0-1.752.496-2.127 1.102-.375.606-2.314 1.814-4.309 2.683l-3.628 1.581 3 .699c2.826.658 2.851.705.441.817-2.603.12-7.493 3.028-5.191 3.086 2.726.07 1.055 1.532-1.75 1.532-1.65 0-3-.337-3-.75s.45-.75 1-.75 1-.422 1-.937c0-1.099-7.058-.207-8.45 1.067-1.559 1.428-2.89.984-1.624-.541.738-.889.808-1.635.191-2.017-.539-.333-1.573.197-2.299 1.179-2.905 3.931-6.264 5.14-12.934 4.654-3.511-.256-7.172-.48-8.134-.497-1.119-.021-1.756-.821-1.765-2.22-.013-1.76-.2-1.896-.959-.696-.751 1.188-1.196 1.238-2.184.25-1.357-1.357.156-3.742 2.375-3.742.614 0 1.328-.634 1.586-1.409.323-.969-.041-1.214-1.167-.782-.961.369-1.642.125-1.651-.59-.011-.827-.252-.874-.75-.146-1.299 1.897-3.989 2.327-5.885.941-1.298-.949-2.215-1.041-3.097-.309-.877.728-1.253.703-1.253-.083 0-.617.45-1.122 1-1.122s.887-.562.75-1.25c-.148-.741.542-1.112 1.696-.911 1.748.304 1.799.158.5-1.437-1.287-1.581-1.26-1.707.239-1.145.927.347 1.858.113 2.07-.521.24-.722 1.236-.357 2.674.983 2.231 2.079 4.142 2.077 6.833-.007.95-.735.981-1.316.128-2.345-.883-1.064-.762-1.367.547-1.367.924 0 1.403-.45 1.063-1-.782-1.265.649-1.274 3.935-.025 1.667.634 2.565.634 2.565 0 0-.536 1.575-.975 3.5-.975s3.5-.436 3.5-.969c0-.532-.675-.709-1.5-.393-.825.317-1.5.078-1.5-.531 0-1.12 1.332-1.509 3.914-1.144.777.11 2.352-.252 3.5-.804 1.147-.552 3.292-1.264 4.766-1.583 1.474-.318 3.3-1.198 4.057-1.956.757-.757 2.926-1.673 4.82-2.036 3.427-.656 3.432-.652.943.843-2.209 1.327-2.267 1.498-.5 1.467 3.25-.056 6.055-1.433 4.667-2.291-.66-.407-.941-1.16-.624-1.672.316-.512-.014-.947-.734-.966-.72-.02-.184-.675 1.191-1.457 1.375-.781 3.217-1.207 4.094-.946.876.26 4.646.552 8.377.648 3.731.096 6.164.425 5.406.732-2.173.88-2.086 3.058.123 3.058 2.813 0 6.136-3.464 4.7-4.9-.8-.8-.705-1.104.35-1.114.797-.007 2.533-.303 3.856-.657 1.688-.452 2.193-.298 1.691.513-.49.794.403 1.158 2.844 1.158 1.957 0 3.559-.363 3.559-.808 0-.444 1.912-1.595 4.25-2.559 2.338-.963 5.056-2.19 6.041-2.726.985-.536 2.222-.708 2.75-.382.527.326.959.116.959-.466 0-.582.477-1.059 1.059-1.059s.734.526.336 1.17c-.511.827-.162.936 1.191.371 3.738-1.559 6.75-1.894 5.99-.665-.494.8.176 1.098 2.13.95 1.568-.12 3.421.134 4.116.564.7.432 1.951.213 2.798-.49.943-.782 1.792-.901 2.206-.307.941 1.346 13.165-.44 13.207-1.93.053-1.893 7.218-4.868 8.158-3.388 1.262 1.986.952 2.703-1.691 3.907-3.536 1.611-3.1 2.486 1 2.008 1.925-.225 3.5-.81 3.5-1.299 0-.49.723-.891 1.607-.891 1.018 0 1.396.55 1.031 1.5-.724 1.887.173 1.88 5.847-.047 2.506-.85 5.005-1.268 5.555-.928.549.339 2.453.16 4.23-.399 1.776-.559 5.004-1.277 7.172-1.596 6.401-.942 6.14-3.565-.319-3.204-3.866.217-7.299-1.679-4.844-2.673.672-.273-.691-.531-3.029-.574-2.523-.047-4.25.377-4.25 1.043 0 .776-.464.738-1.5-.122s-1.5-.898-1.5-.122c0 1.901-10.939 1.445-11.68-.487-.49-1.276-1.57-1.495-5.219-1.058-2.53.304-6.401.18-8.601-.275l-4-.828 5-.231c2.75-.127 4.213-.437 3.25-.688-.963-.252-1.75-.889-1.75-1.416 0-1.398-6.856-.712-7.414.742-.26.678-1.847 1.193-3.526 1.146-2.335-.067-2.807-.383-2.008-1.346 1.374-1.656.144-2.309-3.552-1.885-4.641.531-7.382-.472-7.218-2.643.079-1.05.948-2.165 1.931-2.477.983-.312 1.787-.986 1.787-1.499 0-.513 1.5-.933 3.333-.933 2.228 0 3.334-.476 3.334-1.433 0-2.076-4.829-3.066-6.149-1.261-.673.921-3.786 1.685-8.539 2.095-4.113.355-8.942.91-10.729 1.233-3.92.71-4.053.078-.689-3.286 2.728-2.728 2.762-3.793.088-2.767-.901.346-1.382 1.043-1.069 1.549.313.506.198.855-.256.776-2.345-.407-4.296.236-4.074 1.344.375 1.874-4.715 2.099-6.228.276-1.66-2-1.163-2.458 3.042-2.799 2.455-.199 3.75-.964 4.654-2.751.689-1.362 1.259-1.916 1.267-1.231.018 1.539 6.163.759 10.419-1.324 3.574-1.749 4.67-1.792 4.346-.171-.14.702.952 1.388 2.494 1.566 2.147.247 2.613-.025 2.143-1.25-.331-.861-1.254-1.566-2.053-1.566-.799 0-1.174-.45-.834-1 .34-.55.115-1-.5-1s-.868-.404-.563-.898c.648-1.049-40.647-.711-44.437.363-1.927.546-2.156.463-1-.363 1.213-.866.974-1.074-1.25-1.087-2.23-.012-2.75-.468-2.75-2.408 0-1.316-.712-2.666-1.582-3-2.326-.893-2.69-.759-2.103.771m26.896 33.233c-.83.893-.898 1.389-.191 1.389.604 0 .82.45.48 1-.715 1.157-2.623 1.369-2.25.25.396-1.189-.998-1.388-4.769-.68-3.544.664-5.699 2.332-3.29 2.546 7.89.7 9.979.571 11.248-.697 1.629-1.63 2.979-1.904 2.061-.419-.34.55.26 1 1.334 1s2.211-.675 2.528-1.5c.316-.825 1.602-1.486 2.857-1.468 2.251.031 2.255.051.281 1.543-1.1.831-2 2.054-2 2.718 0 .664-1.019 1.654-2.264 2.2-1.245.546-2.052 1.544-1.793 2.218.258.674-.043 1.542-.67 1.929-.746.462-.472.944.793 1.396 1.064.38 2.194.289 2.511-.202.318-.492 2.96-2.125 5.872-3.629 2.911-1.505 5.126-3.047 4.922-3.427-.204-.381.529-1.372 1.629-2.203 1.178-.89 1.469-1.524.708-1.543-.71-.018-2.258.868-3.438 1.968-2.246 2.092-4.77 2.66-4.77 1.073 0-.509.755-1.072 1.679-1.25 1.553-.299 1.547-.454-.072-2.073-.962-.962-1.403-1.75-.978-1.75.424 0 .303-.468-.27-1.041-.707-.707-2.446-.725-5.425-.055-2.412.541-4.621.61-4.909.151-.289-.459-1.105-.208-1.814.556m159.854 19.539c-3.398 3.782-4.655 4.605-5.701 3.737-.738-.612-1.095-1.513-.794-2 .738-1.194-3.686-1.104-5.57.113-1.581 1.022-.4 1.484 2.75 1.075 1.888-.246 1.498 1.615-.5 2.385-1.667.642-1.667.721 0 1.657.963.54 1.75 1.655 1.75 2.478 0 1.155.763 1.352 3.346.868 2.268-.426 3.805-.169 4.771.797.784.783 2.161 1.317 3.06 1.185 2.269-.333 5.659-2.376 4.006-2.415-.859-.019-1.097-.726-.683-2.03.466-1.47.18-2-1.081-2-1.314 0-.999-.685 1.346-2.926 2.256-2.156 2.694-3.067 1.665-3.462a1.507 1.507 0 01-.857-1.943c1.436-3.741-3.332-2.166-7.508 2.481m84.422 7.064c-.377 1.493-1.548 2.988-2.601 3.322-1.053.334-1.614 1.095-1.246 1.691.399.645.202.794-.485.368-.635-.392-1.155-.236-1.155.346s-.009 1.395-.019 1.805c-.01.411 1.176.839 2.636.951 1.46.112 4.056.847 5.769 1.632 1.713.785 3.789 1.672 4.614 1.971.825.298.059.578-1.703.621-3.413.084-8.297 1.923-8.297 3.123 0 1.22 5.317.375 8.7-1.382 3.59-1.864 4.678-2.082 3.87-.775-.301.487.151 1.466 1.005 2.175.983.816 1.339 2.143.97 3.614-.362 1.444-.138 2.324.591 2.324.687 0 .423.83-.636 2-.995 1.1-1.403 2.007-.905 2.015.498.009.23.452-.595.985-.879.568-1.012.976-.321.985.648.008 1.911.748 2.807 1.644 1.506 1.505 1.454 1.72-.678 2.832-1.27.661-2.177 1.783-2.017 2.493.18.798-.298 1.066-1.25.7-.848-.325-1.541-.155-1.541.377 0 .533.563.976 1.25.984.836.011.753.342-.25 1-1.65 1.083.521 3.399 2.209 2.356.443-.274 2.168.473 3.834 1.66 2.919 2.078 3.179 2.097 7.116.522 3.732-1.493 4.033-1.496 3.47-.029-.538 1.402.304 1.562 6.627 1.258 6.187-.297 7.201-.599 6.95-2.065-.227-1.328.453-1.727 3-1.762l3.294-.045-3-1.279c-1.65-.703-2.887-1.583-2.75-1.955.137-.372.25-1.036.25-1.475 0-1.01-5.965-3.201-8.714-3.201-1.14 0-2.331-.675-2.648-1.5-.639-1.666.888-2.076 1.862-.5.34.55 1.491 1 2.559 1 3.034 0 2.275-1.986-.809-2.116-2.078-.088-2.262-.233-.75-.597 2.478-.596 4.422-2.287 2.629-2.287-.7 0-1.947-.675-2.772-1.5-.825-.825-2.48-1.507-3.678-1.515-2.326-.017-6.167-1.942-3.929-1.97 1.817-.022 1.534-3.692-.34-4.411-.875-.336-2-.357-2.5-.048-.501.309-.91.085-.91-.497s.477-1.059 1.059-1.059.828-.374.545-.832c-.283-.457-2.109-.778-4.059-.713-3.389.112-3.982-.413-3.62-3.205.09-.687-.682-1.25-1.714-1.25-1.033 0-2.192-.315-2.577-.699-.384-.385-2.709-.576-5.167-.425-4.987.307-5.458-.253-2.338-2.78 2.004-1.622 2.039-1.897.586-4.66l-1.543-2.936-.685 2.714m-86.121 12.627c-.82 2.172-.754 3.276.281 4.691 2.283 3.122 1.669 7.623-1.397 10.241-1.834 1.566-2.334 2.523-1.5 2.871.688.288 1.25 1.315 1.25 2.284 0 1.885 3.646 5.759 4.56 4.846.301-.302.537-1.386.525-2.411-.013-1.025-.059-7.151-.103-13.613-.082-12.154-1.279-15.101-3.616-8.909M397 311.838c0 .589 1.688 1.349 3.75 1.689 4.519.743 8.25 2.454 8.25 3.782 0 .534.788 1.568 1.75 2.299 1.667 1.265 1.667 1.33 0 1.36-.962.018-1.75.659-1.75 1.425 0 1.631 2.726 3.011 5.31 2.688.995-.125 2.42.28 3.167.9 1.297 1.077 4.086 1.639 9.523 1.92 1.95.101 2.176.334 1.029 1.06-.809.512-1.168 1.233-.798 1.604.371.37 1.383-.036 2.25-.903 1.51-1.51 5.003-1.254 4.045.297-.575.93 3.904 3.041 6.454 3.041 1.037 0 2.181-.933 2.543-2.073.604-1.901.802-1.943 2.396-.5 2.245 2.031 3.463 2.01 2.673-.048-.478-1.246-.156-1.498 1.393-1.093 1.108.29 2.015.127 2.015-.361s-1.125-1.169-2.5-1.514-2.5-1.27-2.5-2.055c0-.785-1.913-2.331-4.25-3.435-7.069-3.339-9.75-4.983-9.75-5.976 0-.52-.914-.945-2.031-.945-1.118 0-2.291-.675-2.607-1.5-.741-1.93-2.029-1.94-2.029-.014 0 .817.785 1.734 1.744 2.039.959.304 2.47 1.66 3.357 3.014 1.587 2.422 1.566 2.461-1.329 2.461-4.35 0-5.949-.882-5.4-2.979.695-2.659-3.083-4.351-8.381-3.754-3.803.429-4.311.267-3.839-1.22.432-1.36-.079-1.714-2.471-1.714-1.657 0-3.014.428-3.014.95 0 .912-1.917.679-6.75-.819-1.367-.424-2.25-.277-2.25.374m-95.498 4.089c-1.02 1.02-1.502 1.112-1.502.287 0-1.293-2.807-1.609-5.412-.609-.867.332-1.328 1.007-1.023 1.5.304.492-.049.895-.784.895-1.741 0-4.58 3.35-5.312 6.269-.666 2.651 2.935 7.792 3.867 5.522.349-.851.746-.589 1.163.767.748 2.428 8.489 3.548 8.516 1.233.012-1.005.206-.99.875.066.533.84 1.097.973 1.483.349.342-.554 2.086-.815 3.875-.581 8.528 1.118 27.172 1.271 28.422.234.972-.807 1.33-.802 1.33.019 0 .617 1.012 1.11 2.25 1.095 2.137-.025 2.111-.112-.521-1.744-1.787-1.108-2.675-2.431-2.5-3.724.202-1.497-.362-2.064-2.229-2.238-2.25-.209-2.3-.141-.5.68 1.1.502 1.438.944.75.983-.687.038-1.25.97-1.25 2.07 0 2.183-6.253 3.017-7.5 1-.34-.55-.236-1 .23-1 .466 0 .89-1.575.941-3.5.051-1.925-.259-3.5-.691-3.5-.431 0-1.72-1.462-2.865-3.25-1.145-1.788-2.089-2.635-2.098-1.883-.012.948-.856 1.206-2.756.842-3.465-.662-7.214 1.074-5.146 2.383 1.101.697 1.026.881-.365.893-.962.008-1.75-.63-1.75-1.418 0-.788-.9-1.718-2-2.067-1.1-.349-2-1.251-2-2.005 0-1.78-3.567-1.499-5.498.432m-40.115.256c-.289.467-.944.591-1.456.274-.512-.316-.931.352-.931 1.484 0 1.85 1.569 2.631 4.324 2.153.454-.079.497.387.096 1.036-.435.704-.3.914.335.521 1.509-.932 4.364.348 3.585 1.608-.392.634-.165.751.572.295.79-.488 1.11-.212.905.78-.381 1.844.279 2.023 4.239 1.154 2.379-.523 2.896-1.063 2.428-2.538-.327-1.031-.104-2.791.496-3.912 1.284-2.399-1.615-2.993-3.842-.788-1.011 1.001-1.465.891-2.281-.555-.805-1.427-1.316-1.559-2.438-.628-1.089.904-1.419.903-1.419-.004 0-.649-.52-.86-1.155-.468-.645.4-.885.279-.543-.274.335-.543-.065-.988-.89-.988s-1.736.383-2.025.85M439 318.887c0 .612.681 1.113 1.514 1.113 1.75 0 5.05 1.768 7.795 4.177 1.051.922 2.588 1.416 3.416 1.098 1.182-.453 1.349-.085.78 1.71-.647 2.037-.463 2.221 1.681 1.683 1.324-.332 3.736-.207 5.36.278 2.422.723 2.554.898.735.968-1.351.052-2.029.578-1.735 1.345.325.846 3.19 1.331 8.719 1.476l8.235.217-4.989-2.053c-2.743-1.129-5.218-2.422-5.5-2.873-.281-.451-2.419-1.646-4.752-2.655-2.471-1.069-4.14-2.425-4-3.249.133-.778-.321-1.611-1.009-1.852-.687-.24-1.25.106-1.25.769 0 .83-.39.895-1.25.209-.687-.548-2.712-1.278-4.5-1.622-1.788-.344-4.6-.902-6.25-1.239-1.905-.39-3-.207-3 .5" fill="#d3d3d3" fill-rule="evenodd"/></svg>