<svg xmlns="http://www.w3.org/2000/svg" width="500" height="661"><path d="M0 330.502v330.502l250.25-.252 250.25-.252.251-330.25L501.003 0H0v330.502m.494.498c0 181.775.115 256.138.256 165.25.141-90.887.141-239.612 0-330.5C.609 74.863.494 149.225.494 331M362.5 11.036c-31.35.372-122.7 1.023-203 1.446-80.3.422-146.225.974-146.5 1.226-1.679 1.537-1.901 343.43-.355 548.378l.653 86.585 113.101.664c62.205.365 169.077.664 237.492.665h124.391l-.64-257.75c-.353-141.763-.929-285.763-1.281-320l-.64-62.25-33.111.18c-18.21.099-58.76.484-90.11.856M194.614 116.067c-3.618 1.939-8.297 1.847-7.07-.139.319-.515-1.321-.928-3.685-.928-3.262 0-3.984.275-3.084 1.175.9.9.374 1.719-2.247 3.5-6.218 4.225-9.822 2.276-3.762-2.035 2.539-1.806 3.149-2.64 1.932-2.64-.979 0-3.081.962-4.671 2.138l-2.893 2.139-3.624-2.139c-3.462-2.042-4.838-2.138-30.653-2.138h-27.029l.618 19.408c.592 18.618.527 19.593-1.582 23.935l-2.199 4.527-3.882-1.98c-2.134-1.09-4.28-2.973-4.769-4.185-.488-1.213-.916-1.657-.951-.986-.034.67-.738.959-1.563.643-2.043-.785-1.886.277.649 4.379 1.791 2.899 2.298 3.211 3.046 1.875 1.125-2.009 10.805 2.417 10.805 4.94 0 1.252.247 1.293 1.389.233 1.007-.934 1.076-1.491.25-2.024-1.911-1.232.945-.912 3.909.439 2.105.959 2.311 1.319 1.014 1.774-1.137.399.115 1.44 4.155 3.453 3.181 1.585 5.906 2.972 6.057 3.082.735.539-1.104 3.401-1.879 2.922-.492-.304-.902.711-.91 2.256-.025 4.499-1.576 6.25-3.368 3.804-1.38-1.883-3.036-7.126-2.757-8.727.071-.403-.994-1.015-2.366-1.359-1.372-.344-2.494-1.065-2.494-1.601s-.492-.811-1.093-.61c-.714.238-1.147 5.459-1.25 15.082-.086 8.095-.495 14.719-.907 14.719-.412.001-.75-.729-.75-1.621 0-1.37-.248-1.417-1.589-.304-1.361 1.129-1.54 1.054-1.25-.524.186-1.013-.223-2.039-.911-2.28-.849-.296-1.25.714-1.25 3.147 0 1.97-.45 3.583-1 3.583s-1 2.025-1 4.5.413 4.5.918 4.5c1.968 0 4.043-1.255 3.507-2.121a1.086 1.086 0 00-1.494-.336c-.512.316-.87-.914-.795-2.734.097-2.348.262-2.655.57-1.059.238 1.238.82 2.25 1.294 2.25.473 0 .449-1.433-.053-3.184-1.166-4.067-.912-4.246 3.445-2.426 3.149 1.316 3.608 1.944 3.608 4.934 0 6.081-1.181 9.804-3.392 10.697-1.855.75-1.885.86-.251.916 1.272.043 1.666.562 1.25 1.645-.334.87-.607 1.932-.607 2.361 0 .429-1.173.555-2.606.281-1.6-.305-2.946.038-3.485.889-1.47 2.322-1.059 3.879.841 3.186 1.625-.593 1.634-.501.13 1.281-1.503 1.783-1.539 4.933-.045 4.031.366-.221 1.251.233 1.967 1.007 1.085 1.174.918 1.562-1 2.332-1.806.724-1.914.937-.502.987 1.349.047 1.576.463.906 1.66-.492.878-.682 3.803-.423 6.5.427 4.44.276 4.903-1.594 4.903-1.457 0-2.02-.596-1.912-2.025.097-1.296.658-1.83 1.558-1.485 1.046.402 1.251-.04.799-1.725-.334-1.246-.613-2.603-.62-3.015-.008-.412-1.166-.75-2.573-.75s-2.31.403-2.006.895c.305.493-.119 1.153-.941 1.469-.822.315-1.494.137-1.494-.395 0-1.32-2.721-1.23-3.554.118-.369.598-.152 1.607.483 2.242.872.872 1.384.79 2.097-.337.63-.996.948-1.076.959-.242.008.688.69 1.25 1.515 1.25.898 0 1.487.903 1.468 2.25-.031 2.194-.068 2.201-1.5.309-1.12-1.481-1.468-1.583-1.468-.43 0 .83-1.238 2.604-2.75 3.941l-2.75 2.43 2.412.341c1.854.262 2.085.548 1 1.234-1.193.756-1.18.894.088.894.825 0 2.175-.436 3-.969 1.255-.811 1.187-.972-.417-.985-3.707-.029-.42-1.464 3.474-1.516 3.699-.049 4.541.595 3.923 3.001-.141.55-.182 2.429-.092 4.175.091 1.746-.345 3.49-.969 3.875-.81.501-.748.938.219 1.536 1.704 1.052-1.824 3.972-3.857 3.192-.908-.349-1.17.215-.866 1.861.24 1.299.47 2.563.511 2.811.041.247.614-.09 1.274-.75 2.134-2.134 3.8-1.345 3.8 1.8 0 1.65-.505 3-1.122 3-.818 0-.825.359-.024 1.324.802.966.781 1.641-.078 2.5-.901.901-.77 1.176.565 1.176 1.355 0 1.726.828 1.676 3.75-.035 2.063.223 5.217.574 7.009.393 2.005.166 3.829-.589 4.739-1.427 1.719-3.383.937-2.621-1.048.557-1.451-2.73-2.97-4.311-1.993-.554.342-.87-1.296-.759-3.936.104-2.487-.036-4.536-.311-4.554-1.87-.124-4.917-4.019-4.334-5.54.599-1.56.757-1.516 1.47.413.874 2.361 1.619 2.601 3.8 1.221 1.19-.753 1.211-1.178.127-2.485-1.106-1.332-1.038-1.576.437-1.576 1.485 0 1.547-.238.42-1.597-1.213-1.461-1.374-1.459-1.895.027-.51 1.451-.779 1.465-2.547.128-1.95-1.473-1.947-1.495.213-1.526 2.152-.031 3.999-1.675 3.002-2.672-.729-.729-6.693 2.509-6.693 3.634 0 .519-.689.679-1.531.356-1.347-.517-1.519 2.005-1.43 21.031.067 14.4.452 21.619 1.153 21.619.714 0 .699.427-.046 1.324-.802.966-.781 1.641.078 2.5.894.894.895 1.176.006 1.176-1.158 0-1.517 5.72-.579 9.214.502 1.866 4.725 1.651 9.097-.463 2.612-1.263 4.028-.391 2.452 1.508-.597.72-.774 1.791-.393 2.38.969 1.499 8.193 2.739 8.193 1.406 0-.575-1.013-1.046-2.25-1.047-2.136-.002-2.263-.433-2.515-8.515-.309-9.923-1.819-12.403-7.393-12.141-2.949.139-3.379-.165-3.658-2.592-.226-1.964.131-2.75 1.25-2.75.861 0 1.566.705 1.566 1.566 0 1.119.786 1.476 2.75 1.25 2.371-.272 2.83-.868 3.331-4.316l.58-4 .797 4.25c.439 2.337 1.078 4.251 1.42 4.252.342.001.709 2.588.816 5.75.327 9.654 1.137 12.525 3.37 11.942 1.63-.427 1.936.022 1.936 2.841 0 1.841-.41 3.6-.911 3.91-.501.31-.784 1.349-.628 2.309.155.96-.089 2.216-.542 2.791-.453.575-.236 2.756.483 4.847l1.307 3.802 1.594-3.847c1.528-3.689 2.233-2.964 1.764 1.814-.089.914.309 1.953.885 2.309.576.357 1.048 1.127 1.048 1.711 0 .711-.459.683-1.383-.084-1.29-1.071-3.46 1.393-2.273 2.58.399.4 8.143-1.159 10.774-2.169 1.373-.527 6.544 7.78 6.065 9.742-.101.413.297.75.884.75.634 0 .793.864.393 2.125-.454 1.43-.312 1.902.433 1.441 1.805-1.116 1.259.986-.722 2.779-3.085 2.792-6.507 2.192-5.891-1.032.671-3.509-.192-6.058-1.404-4.147-.615.97-.85.753-.861-.794-.008-1.17-.69-2.687-1.515-3.372s-1.5-1.71-1.5-2.277c0-.568.927-.194 2.061.832 2.657 2.405 5.115-.156 3.138-3.267-.807-1.27-5.199-.649-5.199.735 0 .434-.801.58-1.78.324-.978-.256-3.003 0-4.5.569-2.536.965-2.72 1.434-2.72 6.937 0 8.235.697 8.642 14.829 8.668 7.479.014 11.647.408 11.886 1.123.502 1.508-3.071 2.327-10.215 2.34-3.3.006-10.823.514-16.717 1.13-5.895.616-11.97.769-13.5.34l-2.783-.778 3-.72c1.65-.396 5.7-.833 9-.971l6-.252-5-.779c-2.75-.428-7.779-.818-11.176-.866L87.148 376l-.103 19.012-.104 19.012 5.779-.587c3.179-.323 8.48-1.195 11.78-1.937 12.552-2.822 12.494-2.818 12.563-.829.052 1.497.228 1.42.968-.421.498-1.238 1.657-2.25 2.576-2.25 1.436 0 1.594.843 1.127 6-.3 3.3-.158 6 .313 6 .472 0 .992-2.764 1.155-6.143l.298-6.143 5-1.313c2.75-.722 5.083-1.333 5.184-1.357.101-.024.371 1.194.6 2.706l.416 2.75.15-2.775c.148-2.732.885-3.286 6.857-5.145 1.874-.584 2.352-.188 3.16 2.616l.953 3.304.09-3.25c.101-3.648 2.144-4.339 4.844-1.639 1.481 1.481 1.713 1.47 2.885-.132 1.168-1.597 1.647-1.387 5.747 2.52 2.459 2.345 7.684 6.679 11.609 9.632 7.392 5.561 7.392 5.564.345 5.631-1.468.014-2.305.777-2.612 2.379-.287 1.502.023 2.359.852 2.359 1.751 0 2.888-1.967 1.229-2.125-.72-.068 1.166-.488 4.191-.933 5.757-.847 5.57-.9 15.117 4.33 3.378 1.852 6.73 2.683 12.5 3.103 7.862.572 7.872.569 3.883-.929-2.2-.826-6.668-2.727-9.93-4.224l-5.93-2.722 3.43-.618c2.977-.537 2.734-.636-1.84-.75-3.754-.094-6.425-.861-9.286-2.667-2.209-1.395-4.728-2.408-5.598-2.25-1.292.233-2.532-1.019-4.004-4.04-.087-.179-.774-.415-1.526-.526-.752-.11-2.284-1.089-3.404-2.175-1.12-1.086-4.371-4.13-7.224-6.764-2.854-2.635-5.189-5.11-5.191-5.5-.001-.391-1.239-1.548-2.75-2.573-2.918-1.979-10.247-10.826-10.247-12.37 0-.505-1.125-1.975-2.5-3.267-2.846-2.674-3.178-4-1-4 .825 0 1.5.567 1.5 1.26 0 1.658 5.023 7.051 5.822 6.251.341-.341.15-.933-.424-1.315-1.255-.837-2.762-4.122-2.841-6.196-.031-.825-1.069-1.944-2.307-2.487-1.561-.685-2.25-1.843-2.25-3.782 0-1.561-.662-3.048-1.5-3.369-.825-.317-1.5-1.428-1.5-2.469s-.45-1.893-1-1.893-1-.689-1-1.531c0-.843-.675-1.791-1.5-2.107-.825-.317-1.5-1.653-1.5-2.969 0-1.316-.477-2.393-1.059-2.393s-.866-.337-.631-.75-.38-2.55-1.367-4.75-1.828-3.382-1.869-2.628c-.059 1.102-.368 1.129-1.563.137-.819-.68-1.213-1.683-.875-2.229.338-.546.13-2.633-.462-4.637-.591-2.003-1.321-4.839-1.62-6.3-.423-2.061-.994-2.541-2.54-2.136-1.559.407-1.873 1.097-1.436 3.157.524 2.474.466 2.522-.941.789-1.558-1.919-1.184-4.207 1.057-6.474 1.698-1.719 1.647-3.865-.275-11.444a1727.06 1727.06 0 01-2.317-9.235c-.612-2.489-.864-1.768-1.478 4.227-.67 6.535-2.517 11.043-2.697 6.582-.04-.995-.412-4.193-.827-7.107-.415-2.914-.382-5.528.073-5.809.455-.281.827.041.827.715 0 1.611 1.329.257 1.607-1.637.119-.809-.242-1.471-.802-1.471-.561 0-.787-.603-.505-1.341.804-2.094-1.065-4.524-2.166-2.817-.628.974-1.017.562-1.416-1.5-.355-1.83.009-3.465 1.021-4.592 1.431-1.595 1.424-1.75-.084-1.75-1.018 0-1.655-.814-1.655-2.115 0-2.004.126-2.033 2.407-.538 2.197 1.44 2.462 1.438 3.023-.026.849-2.21-2.047-6.321-4.453-6.321-1.442 0-1.977-.676-1.977-2.5 0-1.375.45-2.5 1-2.5 1.447 0 1.231-3.74-.25-4.338-1-.403-1-.52 0-.583.688-.043 1.25-.724 1.25-1.512s.9-1.718 2-2.067c1.1-.349 2-1.07 2-1.603 0-.576-.844-.516-2.086.149-1.147.614-2.381.821-2.742.46-1.066-1.066-.766-12.504.328-12.521.585-.009.547-.32-.093-.75-.771-.519-.653-1.765.401-4.235 2.014-4.72 2.446-8.989 1.076-10.639-.849-1.023-.821-1.361.11-1.361.732 0 1.033-.79.735-1.93-.278-1.061-.152-3.424.281-5.25l.785-3.32.205 3 .205 3 .82-3.489c.5-2.126.437-3.725-.16-4.095-1.802-1.113.185-5.908 2.493-6.016 1.929-.089 1.894-.175-.358-.859l-2.5-.76 2.815-1.141c1.548-.627 3.425-1.14 4.171-1.14 1.847 0 2.506-4.078 2.095-12.981-.19-4.115.023-8.39.473-9.5.953-2.349 1.044-2.189 1.404 2.481.369 4.794.426 5 1.384 5 .835 0 6.781-14.143 6.259-14.888-.149-.214.247-.709.881-1.101.717-.443-.008-1.193-1.915-1.983-1.687-.699-3.06-1.554-3.052-1.899.043-1.739 1.834-3.124 3.309-2.558.916.351 1.373 1.111 1.016 1.688-.361.583-.174.756.42.389.588-.363 1.28-.095 1.538.596.257.691 1.38-.727 2.495-3.151 1.596-3.47 1.786-4.795.892-6.225-.862-1.381-.832-2.121.123-3.076 1.01-1.01 1.372-.818 1.841.975.322 1.228.982 2.233 1.468 2.233 1.484 0 .982 5.044-.667 6.693-2.121 2.121-1.417 4.738 1.383 5.136 1.639.233 2.466-.257 2.838-1.681.347-1.325 1.059-1.805 2.092-1.409 1.009.388 1.316.198.865-.533-.386-.623.215-2.049 1.336-3.17 1.235-1.235 2.051-1.544 2.075-.786.022.688.688-.244 1.482-2.071.793-1.826 1.9-3.037 2.46-2.691 1.746 1.079 1.118 6.179-1.065 8.651-1.46 1.655-1.922 1.847-1.543.643.297-.945.109-1.984-.417-2.309-.526-.325-.956.28-.956 1.346 0 2.328-2.957 5.269-3.07 3.053-.039-.754-.438-.472-.887.628-1.047 2.565-1.327 2.342 10.707 8.514 5.637 2.891 10.25 5.604 10.25 6.028 0 1.695 4.239-.472 5.245-2.681 1.084-2.379 2.234-2.995 3.008-1.611.23.412.273.164.095-.552-.179-.716.12-1.027.663-.691.544.336 1.023.247 1.066-.198.042-.445.297-1.709.567-2.809.269-1.1.572-4.925.673-8.5.142-5.033.715-7.246 2.542-9.808 3.007-4.216 3.152-4.001 3.681 5.441.243 4.327.706 9.105 1.03 10.617.523 2.441.299 2.75-1.991 2.75-1.626 0-2.579.554-2.579 1.5 0 .825.338 1.447.75 1.382.412-.066 1.537-.066 2.5 0 2.558.173 2.141 2.923-.5 3.298-1.446.206-2.364 1.124-2.57 2.57-.216 1.527-1.02 2.267-2.5 2.302l-2.18.053 2.25 1.569c1.238.864 2.25 2.388 2.25 3.389 0 2.41 1.854 3.48 2.611 1.507.424-1.104 1.335-1.371 3.142-.917 1.429.358 2.3.242 1.987-.265-.308-.498-.697-3.151-.866-5.896l-.306-4.992 5.216-.012c2.869-.006 5.216.331 5.216.75s-1.313.762-2.918.762c-5.372 0-6.163 1.389-5.154 9.049.039.302 1.647.366 3.572.141 2.874-.336 3.513-.076 3.57 1.451.067 1.76.111 1.756.825-.068.685-1.748.816-1.769 1.41-.22.655 1.707 5.806 1.933 8.342.365.591-.365 1.399-.338 1.797.059.897.898 4.878 1.013 5.556.161.275-.345 2.188-.424 4.25-.174 2.987.362 3.75.878 3.75 2.537 0 2.045-.026 2.047-1.468.14-1.449-1.915-1.469-1.914-1.516.059-.026 1.144-.361 1.552-.781.952-1.325-1.889-7.033-1.671-7.544.288-.434 1.665-.465 1.666-.575.01-.136-2.054-4.658-2.468-5.457-.5-.381.941-.769.879-1.568-.25-.845-1.195-1.06-.891-1.06 1.5 0 1.838.304 2.521.785 1.763.568-.893 1.682-.981 4.004-.315 3.655 1.049 3.673 1.052 5.607 1.052.784 0 1.632.787 1.884 1.75.435 1.667.463 1.667.573 0 .179-2.703 1.653-2.068 1.892.816.182 2.193-.095 2.467-1.907 1.892-1.442-.457-1.897-.313-1.424.453.382.618.823 7.416.979 15.107.25 12.271.088 13.986-1.32 14.017-2.177.049 2.801 2.882 5.146 2.93 2.168.043 2.205-1.184.156-5.147l-1.594-3.082 2.594.651 2.594.651-.014-6.769c-.018-8.968-.69-11.064-4.113-12.835-3.423-1.77-3.788-4.125-.623-4.013 2.006.07 2.241-.382 2.163-4.178-.08-3.943.039-4.144 1.61-2.722 1.713 1.55 6.998.604 6.962-1.246-.045-2.255-1.983-3.778-2.931-2.303-.809 1.257-1.045 1.215-1.624-.293-.892-2.324-.534-2.534 3.32-1.947 2.802.427 3.25.893 3.25 3.381 0 2.969 2.284 4.063 3.417 1.637.466-1 .7-1 1.166 0 .321.688 1.221 1.25 2 1.25 1.462 0 1.761-.947 1.469-4.654-.094-1.185.383-2.497 1.059-2.915.864-.533 1.031-.243.563.977-.825 2.148 1.039 5.887 2.488 4.992.584-.361 1.454-.036 1.934.722.581.916.923-.13 1.02-3.122.144-4.394.162-4.417.766-1 .416 2.357 1.166 3.504 2.297 3.513.924.007 2.012.344 2.417.75 1.823 1.823 6.403.758 6.504-1.513.094-2.139.134-2.126.806.25l.707 2.5.783-2.5.782-2.5.811 2.5c.691 2.128.837 2.202.982.5l.17-2 .859 2c.815 1.896 1.088 1.797 1.375-.5.069-.55.575-.97 1.125-.934.55.036.868.711.706 1.5-.194.947.571 1.434 2.25 1.434 2.499 0 2.544.132 2.544 7.5 0 4.667-.405 7.5-1.071 7.5-.618 0-.494.578.295 1.366 2.264 2.265 2.316 15.352.063 15.937-1.18.307-.881.504.88.581 1.466.064 2.816.552 3 1.084.183.532.875.631 1.537.219 1.418-.881 1.946-6.727.897-9.937-.581-1.776-.353-2.253 1.082-2.265 1.38-.012 1.495-.219.48-.863-1.616-1.025-2.622-11.363-2.242-23.039.085-2.603 1.073-2.332 1.474.405.135.92.776 1.999 1.423 2.4 1.821 1.125 2.897 22.112 1.134 22.112-1.052 0-1.085.267-.152 1.2.887.887 1.493.907 2.322.078.617-.617 1.654-.917 2.305-.668.884.34 1.075-2.583.758-11.578-.367-10.417-.215-12.032 1.136-12.032 2.423 0 2.689 1.064 3.647 14.595.868 12.248 2.112 16.512 3.949 13.54.581-.941 1.04-1.014 1.517-.242.376.609 1.336 1.107 2.133 1.107 1.228 0 1.348-2.138.79-14-.652-13.864-.637-14 1.492-14 1.817 0 2.153.583 2.162 3.75.023 7.622 1.298 23.812 2.029 25.75 1.846 4.897 3.16-3.701 2.484-16.25-.471-8.721-.341-12.25.451-12.25.612 0 .98-.787.819-1.75-.213-1.269.487-1.839 2.547-2.075 2.548-.292 2.774-.085 2.188 2l-.654 2.325 1.851-2.295c1.018-1.262 2.149-1.996 2.515-1.631.365.365.102 1.225-.584 1.911-.923.923-1.067 3.687-.554 10.631 1.885 25.508 2.039 39.153.436 38.537-2.164-.83-1.914.698.467 2.853 3.607 3.263 1.403 2.66-9.038-2.474-5.654-2.78-10.479-4.854-10.724-4.61-.789.79.83 2.578 2.335 2.578.804 0 5.533 2.045 10.511 4.545 10.669 5.358 13.06 5.291 12.41-.351-1.009-8.762-1.423-27.265-.599-26.755.489.302 1.162-.16 1.494-1.027.829-2.159.76-2.626-.29-1.977-.493.305-1.168-.156-1.5-1.023-.923-2.405-.728-2.935.595-1.612.66.66 1.898 1.193 2.75 1.185 1.231-.012 1.275-.19.215-.862-1.022-.648-.869-.967.656-1.366 2.219-.58 2.078-7.534-.182-8.992-.678-.437-.252-.741 1.052-.75 1.205-.008 2.497.479 2.87 1.084.374.604 1.871 1.617 3.329 2.25 1.457.633 4.957 2.659 7.777 4.503 4.876 3.187 5.161 3.616 5.8 8.73.631 5.051.486 5.576-2.393 8.648-3.401 3.629-4.217 6.115-1.074 3.27 2.409-2.18 2.582-1.318.402 2.009-1.468 2.24-1.464 2.572.051 4.087 1.531 1.531 1.745 1.515 3.016-.222 2.346-3.209 2.724-.815.473 3-1.177 1.994-1.714 3.626-1.194 3.626.521 0 1.391-.996 1.934-2.214.824-1.847 1.099-1.153 1.658 4.188.732 7.011.14 8.062-4.259 7.558-3.107-.355-5.081 1.04-5.081 3.59 0 2.525 1.541 2.371 3.443-.345l1.557-2.222v2.222c0 3.309 6.657 3.284 7.294-.027l.434-2.25.136 2.25c.223 3.694 1.832 2.55 2.528-1.797.369-2.308 1.075-3.782 1.644-3.431.548.339.738 1.035.421 1.547-.316.512.127.931.984.931.996 0 1.559.902 1.559 2.5 0 1.375.337 2.519.75 2.542.413.023 3.788.232 7.5.466 4.458.28 6.75.054 6.75-.665 0-.726.487-.684 1.465.128 1.177.977 2.055.795 4.471-.926l3.007-2.141-.523-8.67c-.497-8.235-1.42-12.678-1.42-6.833 0 2.352-.314 2.647-2.25 2.114l-2.25-.621 2.361 2.053c1.813 1.577 1.987 2.053.75 2.053-.886 0-1.611.498-1.611 1.107s.717.832 1.594.495c1.338-.513 1.519.036 1.126 3.434-.547 4.736-.672 4.906-4.061 5.521l-2.586.469-.287-9.763-.286-9.763h-7.251c-5.134 0-7.25-.365-7.25-1.25.001-.749-1.501-1.314-3.749-1.41-3.692-.158-3.7-.166-.5-.563 3.219-.4 3.25-.456 3.25-5.84 0-2.991-.454-5.437-1.008-5.437-.678 0-.678-.655 0-2 .554-1.1 1.437-2.86 1.961-3.911.708-1.42.563-2.061-.563-2.493-.834-.32-1.237-1.035-.894-1.589.342-.554.239-1.007-.23-1.007s-1.283 1.433-1.809 3.184c-1.284 4.274-3.318 4.759-4.076.972-.899-4.498-6.037-8.568-21.631-17.136-2.062-1.133-3.75-2.449-3.75-2.924 0-1.301-3.906-2.057-4.624-.895-.39.631-.944.502-1.471-.344-.594-.955-.187-1.525 1.375-1.925 3.22-.824 5.464-.021 6.034 2.16.274 1.05 1.021 1.908 1.66 1.908.691 0 .913-.78.55-1.925-.467-1.472-.072-2.001 1.682-2.25 2.913-.413 3.691-4.449 1.208-6.265-1.001-.731-1.747-2.578-1.747-4.323 0-3.07-2.042-3.492-3.917-.81-.462.66-.978.242-1.343-1.087-.484-1.763-1.477-2.222-5.406-2.5-2.647-.187-4.657-.089-4.467.218.191.307-1.365.659-3.458.782-3.678.218-3.824.1-4.429-3.558-.953-5.767-.766-12.282.353-12.282.55 0 1.032-.787 1.07-1.75.06-1.496.195-1.46.93.25.82 1.908.863 1.897.93-.25.055-1.783-.478-2.25-2.57-2.25-3.579 0-5.786-2.949-3.505-4.685 1.515-1.153 1.507-1.264-.105-1.408-4.298-.385-7.283-2.235-6.265-3.882.569-.921.948-.943 1.478-.084.526.85 1.002.807 1.807-.164.84-1.012.414-1.709-1.838-3.001-1.739-.998-2.932-1.242-2.932-.599 0 .68-1.299.874-3.482.52-1.915-.311-3.746-.137-4.07.386-.328.532-1.721.061-3.153-1.065-1.41-1.11-3.296-2.018-4.189-2.018-.894 0-2.228-.966-2.966-2.147-1.063-1.702-1.516-1.863-2.187-.776-.517.835-.38 1.668.35 2.131.801.509.595.766-.62.777-2.055.017-1.448 3.912.817 5.241.681.4 1.789 2.057 2.462 3.683 1.305 3.149 4.164 3.29 3.347.164-.325-1.242.226-1.98 1.784-2.387 2.576-.674 3.907-.111 3.907 1.652 0 .671.9 1.869 2 2.662 2.854 2.057 2.496 2.667-1.568 2.667-2.58 0-4.252.738-6.04 2.666-2.94 3.17-3.984 3.334-4.665.732-.372-1.425-1.084-1.784-2.697-1.363-1.534.402-2.045 1.132-1.704 2.435.267 1.023.098 2.101-.376 2.394-.475.293-.609 1.194-.299 2.001.309.807.065 1.468-.544 1.468s-1.107-.675-1.107-1.5c0-2.092-2.753-1.884-3.311.25-.384 1.472-.475 1.492-.573.125-.068-.958-1.334-1.869-3.085-2.219-1.633-.326-3.85-1.395-4.928-2.375-4.167-3.788-4.686-4.016-7.725-3.406-.343.069-.063.8.622 1.625 1.035 1.248.911 1.5-.74 1.5-1.092 0-3.684 1.35-5.76 3-4.099 3.258-4.044 3.308 2.272 2.087 2.416-.467 4.509-.441 4.819.06.301.487.966.627 1.478.31.512-.316.931.378.931 1.543s-.45 1.84-1 1.5c-.55-.34-1 .309-1 1.441 0 1.796.62 2.059 4.86 2.059 8.221 0 14.14-1.128 14.14-2.695 0-.783.435-1.154.967-.825 1.297.801.962 11.35-.394 12.4-1.919 1.486-5.571 1.992-5.605.776-.017-.636-.747-.256-1.622.844-1.519 1.912-1.563 1.855-.983-1.3.429-2.334.274-3.093-.533-2.595-.7.433-.864.259-.425-.45.807-1.307-.268-1.534-5.694-1.205-2.084.126-4.392-.27-5.128-.881-1.031-.855-1.457-.657-1.855.862-.283 1.085-.01 2.142.608 2.348.812.27.829 1.035.062 2.755l-1.062 2.381-1.853-2.164c-2.352-2.747-2.73-5.219-.904-5.92.782-.3 1.421-.963 1.421-1.473 0-.551-.748-.528-1.838.055-1.011.542-2.811.73-4 .419s-2.162-.112-2.162.443c0 .554-1.151 1.297-2.557 1.65-2.045.513-2.423 1.061-1.892 2.737.659 2.076.643 2.078-1.911.216-2.808-2.046-3.48-6.073-1.39-8.325 1.022-1.102.921-1.231-.552-.712-1.071.378-1.554.235-1.191-.352.336-.544-.342-.989-1.507-.989-1.165 0-1.84-.45-1.5-1 .34-.55-.239-1-1.286-1-2.122 0-5.59-3.291-4.556-4.324.364-.364-.76-.946-2.498-1.294l-3.16-.632v-10.375c0-11.34.024-11.373 5.903-8.309 3.785 1.973 4.083 1.989 6.582.352 1.971-1.292 2.901-1.432 3.766-.567.632.632 1.734 1.149 2.449 1.149 2.962 0 .833-2.028-7.115-6.778-7.755-4.635-8.579-4.915-10.5-3.569-1.147.803-2.085 2.33-2.085 3.394 0 1.838-.099 1.849-2 .221-1.1-.942-2-2.497-2-3.455 0-2.106-5.693-8.813-7.481-8.813-1.588 0-3.887-2.65-2.811-3.239.436-.238.197-.284-.53-.101-2.09.526-5.697-1.721-4.224-2.631.79-.489-1.813-2.663-7.342-6.133l-8.565-5.376 3.227-2.765c1.774-1.52 4.126-3.05 5.226-3.399 1.1-.349 2.931-1.632 4.069-2.851 1.138-1.22 2.713-2.446 3.5-2.724.787-.279 1.179-.783.872-1.12-.308-.337-2.255.295-4.327 1.406m133.886.206c4.174 3.075 17.5 16.009 17.5 16.985 0 .442 1.594 2.203 3.543 3.914 3.061 2.688 12.862 16.456 12.674 17.803-.251 1.791-2.179.505-3.795-2.532-1.806-3.391-9.259-9.939-10.22-8.978-.241.241 1.639 2.871 4.18 5.845 5.011 5.865 5.395 6.69 3.118 6.69-.825 0-1.5.865-1.5 1.923 0 3.22-4.806 8.084-7.834 7.93-6.997-.356-12.166 1.76-12.166 4.979 0 .604-.914 1.587-2.032 2.185-1.117.598-1.905 1.805-1.75 2.681.155.877-.28 1.791-.968 2.032-.687.24-1.25-.276-1.25-1.147 0-.87-.675-1.583-1.5-1.583s-1.5-.45-1.5-1-1.687-.993-3.75-.985c-2.811.012-3.374.262-2.25.999 1.083.71.658.822-1.531.403-2.475-.473-3.057-.236-3.172 1.295-.09 1.188.562 1.927 1.781 2.019 1.057.08 1.922-.277 1.922-.793 0-1.437 2.412-.631 3.18 1.062.556 1.228.692 1.182.75-.25.038-.963.568-1.75 1.177-1.75.609 0 .848.675.531 1.5-.708 1.847 3.573 1.994 13.28.459 3.62-.573 8.044-1.268 9.832-1.545 3.094-.48 3.25-.715 3.25-4.872v-4.367l6.25-.895c6.959-.997 8.75-.313 8.75 3.342 0 1.308.506 2.266 1.125 2.128.619-.137 1.586 1.1 2.15 2.75.564 1.65 1.418 3.258 1.898 3.573.481.316 1.062 1.553 1.293 2.749.23 1.196 1.12 3.176 1.976 4.399.857 1.223 1.558 2.574 1.558 3.002 0 1.294-4.796.869-5.338-.473-.301-.747-.536-.545-.583.5-.043.963-.496 1.75-1.006 1.75-.509 0-1.132-.787-1.384-1.75-.435-1.667-.463-1.667-.573 0-.131 1.974-2.108 2.438-2.131.5-.011-.836-.342-.753-1 .25-.876 1.333-1.094 1.333-1.97 0-.541-.825-.991-1.012-1-.415-.008.601-1.686 1.042-3.765.989-2.062-.053-4.053.33-4.424.851-.41.576-1.229.485-2.092-.231-.78-.647-1.714-.881-2.076-.519-.362.362-.658-.392-.658-1.675 0-2.876-.503-2.397-1.399 1.331-.568 2.364-.387 2.774 1.098 2.488 1.824-.351 5.301 2.392 5.301 4.181 0 .55.9 1 2 1 1.333 0 2-.667 2-2 0-3.411 3.695-2.534 4.213 1 .242 1.65.042 3-.445 3s-.637.403-.333.895c.305.493-.147 1.164-1.004 1.493-.857.329-1.266 1.071-.908 1.649.863 1.396-1.348 3.967-3.395 3.948-1.295-.012-1.35-.192-.271-.875.961-.609 1.029-1.062.233-1.554-.617-.382-.859-1.12-.537-1.641a1.106 1.106 0 011.516-.372c.512.316.931.093.931-.496 0-.693-1.442-.84-4.087-.417-3.612.578-4.063.434-3.885-1.238.398-3.726-.043-7.392-.889-7.392-.474 0-.647 1.125-.384 2.5.321 1.676.028 2.505-.888 2.515-1.117.013-1.107.18.054.915 1.21.766 1.169 1.284-.273 3.485-1.815 2.77-3.244 3.297-3.867 1.427-.75-2.249-4.523-1.933-5.157.431-1.465 5.467-.794 7.727 2.294 7.727 1.605 0 3.63.273 4.5.607 3.431 1.317 1.251 2.075-5.418 1.885-3.85-.109-7 .185-7 .654 0 .756 6.395 1.364 9.75.929.688-.09 1.25.516 1.25 1.346 0 2.078 3.195 3.602 6.007 2.867 1.882-.492 2.208-.29 1.694 1.049-.905 2.357 4.052 5.666 5.369 3.584 1.355-2.141 1.301-2.212-4.071-5.229-5.906-3.317-6.241-4.016-1.499-3.126 3.307.62 3.5.506 3.5-2.077 0-2.042-.316-2.486-1.25-1.756-2.051 1.605-5.916 2.267-5.479.938.212-.644 1.363-1.315 2.557-1.491 1.195-.175 2.172-.764 2.172-1.307 0-2.264 8.419-.443 9.677 2.094 1.49 3.005.95 3.796-1.315 1.926-1.25-1.032-1.791-1.084-2.089-.199-.221.656-1.048.946-1.838.643-.789-.303-1.435-.053-1.435.556 0 .66 1.998 1.107 4.95 1.107 3.66 0 5.216.456 5.97 1.75.861 1.478 1.035 1.284 1.12-1.25.067-1.99.329-2.471.78-1.428.494 1.141 2.324 1.629 6.68 1.781 10.06.351 11.354.85 12.067 4.655.347 1.849.335 3.841-.027 4.427-.362.586-.245 1.065.26 1.065.799 0 3.342 14.008 2.686 14.797-.136.163-2.278-1.074-4.761-2.75-4.464-3.012-7.423-3.985-6.225-2.047.34.55.029 1-.691 1.001-.72 0 1.616 1.798 5.191 3.996 5.271 3.24 6.629 4.611 7.184 7.249.873 4.157.974 20.793.164 27.065-.6 4.644-.727 4.8-3.651 4.5-1.846-.19-3.2.202-3.468 1.004-.335 1.003.417 1.154 3.166.639 2.839-.533 3.605-.358 3.605.824 0 .825-.777 1.437-1.726 1.361-1.634-.132-1.848.254-2.149 3.861-.137 1.64-4.125 2.124-4.125.5 0-.55-.858-1-1.906-1-1.375 0-1.769.525-1.414 1.884.334 1.276 1.11 1.722 2.406 1.383 1.053-.275 1.914.002 1.914.616 0 .615 1.012 1.169 2.25 1.233 1.525.079 1.719.257.603.554-.906.24-1.87 1.289-2.143 2.33-.63 2.408-4.71 2.296-4.71-.129 0-.938.563-1.931 1.25-2.209.747-.301.545-.536-.5-.583-.962-.043-1.75-.529-1.75-1.079 0-.55-.513-1-1.14-1-.627 0-1.725-.788-2.442-1.75-1.198-1.611-1.29-1.571-1.147.5.095 1.379.805 2.25 1.835 2.25 1.632 0 2.925 1.956 2.864 4.332-.017.642-.489.381-1.049-.581-.934-1.602-1.224-1.527-3.47.896-2.352 2.538-2.451 2.558-2.451.499 0-1.241-.633-2.146-1.5-2.146-.825 0-1.5-.675-1.5-1.5s-.398-1.5-.883-1.5c-1.354 0-1.968 3.514-.937 5.358.583 1.041.553 1.642-.081 1.642-.55 0-1.359-.626-1.799-1.392-.581-1.011-1.886-1.213-4.765-.739-3.965.653-3.966.655-4 5.392-.022 2.938.404 4.738 1.121 4.738.658.001.935-.847.643-1.963-.637-2.436 2.19-5.446 4.339-4.622 1.112.427 1.455 1.501 1.147 3.598-.241 1.643-.067 2.988.388 2.988s.827.675.827 1.5c0 .933.944 1.5 2.5 1.5 2.86 0 3.276-1.712.847-3.488-1.644-1.202-1.137-3.512.771-3.512.55 0 .722.45.382 1-.34.55-.141 1 .441 1 1.77 0 1.181-2.821-.691-3.311-.962-.251.5-.457 3.25-.457s4.235.202 3.299.448c-1.358.357-1.514.939-.775 2.884.864 2.272.577 2.847-1.274 2.554-.413-.065-.75.557-.75 1.382 0 .825-.45 1.5-1 1.5s-1 .482-1 1.071c0 .59-.635 1.707-1.411 2.483-.805.805-1.167 2.344-.842 3.585.39 1.492.205 1.949-.589 1.458-.841-.519-1.158 1.495-1.158 7.344 0 4.432-.337 8.055-.75 8.051-1.665-.017-2.92-5.06-2.639-10.609.228-4.511.103-5.183-.538-2.883-.802 2.877-.846 2.897-1.073.5-.13-1.375-.176-3.011-.101-3.636.075-.625-.547-1.399-1.381-1.719-.933-.358-1.518-.016-1.518.886 0 2.07-2.758 1.835-3.311-.281-.339-1.299-.487-1.162-.573.531-.064 1.255.559 2.541 1.384 2.857 1.812.696 2.008 3.356.25 3.377-.905.011-.87.256.128.889.758.48 1.069 1.373.691 1.984-.378.612-.21 1.112.372 1.112s1.108-1.462 1.169-3.25c.097-2.903.202-2.774.984 1.215.55 2.807.509 4.832-.109 5.45-.647.647-.99.487-1-.465-.013-1.233-.161-1.226-.985.05-.533.825-.976 2.512-.985 3.75-.031 4.669-3.095 2.134-3.232-2.675-.049-1.732-.541-2.722-1.222-2.46-2.085.8-1.498 4.706 1.273 8.474 2.641 3.591 3.544 12.881 1.105 11.373-.468-.289-.634-1.093-.368-1.787.266-.693.067-3.041-.443-5.218-.666-2.843-.955-3.256-1.028-1.467l-.1 2.49-2.451-2.644c-1.856-2.001-2.31-3.335-1.87-5.49.32-1.565.543-3.732.497-4.815-.047-1.083.457-2.314 1.12-2.735.821-.522.648-.77-.546-.781-.962-.008-1.75-.465-1.75-1.015 0-.55.9-1 2-1s2 .45 2 1 .45 1 1 1c1.227 0 1.297-4.983.096-6.878-.48-.758-1.325-1.099-1.878-.757-.552.342-1.286-.501-1.63-1.872-.345-1.371-1.068-2.493-1.607-2.493-.54 0-.981-.9-.981-2s-.45-2-1-2-1 1.152-1 2.559c0 1.407-.357 2.339-.792 2.069-.436-.269-.858.379-.938 1.441-.08 1.062.366 1.931.992 1.931.816 0 .799.339-.062 1.2-1.759 1.759-1.471 4.8.455 4.8 1.517 0 1.512.158-.065 1.901-.999 1.103-1.313 2.152-.749 2.501 1.142.706.332 4.598-.958 4.598-.485 0-.883-1.125-.883-2.5 0-1.702-.558-2.51-1.75-2.532-1.667-.03-1.667-.095 0-1.36 1.223-.929 1.729-2.65 1.68-5.718-.041-2.554-.355-3.702-.75-2.744-.734 1.777-2.587.513-2.78-1.896-.227-2.841-.439-3.344-1.207-2.869-.445.274-.735 3.339-.647 6.809.225 8.812.224 8.81 2.454 8.81 2.132 0 2.739 2.425.893 3.566-.771.477-.696.944.25 1.544 1.073.679 1.009.863-.305.875-1.613.015-1.94 2.247-.534 3.653 1.215 1.214.763 5.375-.554 5.112-2.072-.414-1.021 3.753 2.245 8.903 1.675 2.641 2.787 5.473 2.472 6.294-.315.82-.276 1.195.087.833.362-.363 1.219-.137 1.902.502.991.925.984 1.421-.035 2.44-1.516 1.516-2.801 1.702-1.921.278.34-.55.115-1-.5-1s-.833-.461-.485-1.025c.349-.563.127-.901-.492-.75-.619.151-2.324-1.724-3.789-4.167-1.465-2.443-2.117-4.104-1.449-3.691.755.467 1.215.16 1.215-.808 0-.857-.45-1.559-1-1.559s-1.007.563-1.015 1.25c-.011.833-.339.75-.985-.25-1.382-2.139-1.224-3.023.427-2.39 1.042.4 1.28-.013.883-1.531-.579-2.216-2.31-2.882-2.31-.888 0 .655-.661.318-1.468-.75-3.526-4.661-1.348 1.896 3.019 9.09 2.503 4.123 4.296 7.908 3.985 8.411-.721 1.166-11.536 1.209-11.536.046 0-1.492 1.803-2.065 2.341-.744.345.848 1.159.453 2.507-1.216 2.48-3.072 1.778-4.403-1.931-3.661-1.561.312-3.111.128-3.443-.409-1.075-1.74.608-4.958 2.593-4.958 4.066 0-.342-4.959-4.539-5.106l-3.028-.107 2.659-1.055c3.128-1.24 3.928-5.139 2.7-13.151-.428-2.795-1.067-10.817-1.419-17.828-.358-7.125-1.038-12.502-1.541-12.191-.494.306-.899-.397-.899-1.562s.45-1.84 1-1.5c.55.34 1-.084 1-.941 0-1.867-2.715-2.106-3.177-.28-.195.771-1.842-.252-4.149-2.576-2.81-2.832-3.341-3.804-2-3.664 3.415.357 5.326-.037 5.326-1.098 0-.582-.403-.81-.895-.506-.493.305-1.14-.084-1.439-.863-.558-1.454-4.666-1.057-4.666.451 0 .434-.9.554-2 .267-1.334-.349-2-.031-2 .955 0 1.037-.745 1.335-2.5 1-2.978-.57-3.352-2.245-.5-2.245 2.419 0 2.51-.632.399-2.744-1.469-1.469-1.869-1.458-4.82.131-1.77.954-3.862 1.594-4.648 1.423-.787-.17-1.431.365-1.431 1.19 0 1.527-1.346 2.957-2.809 2.985-.445.008-.45-.547-.012-1.235 1.617-2.535 1.135-13.416-.594-13.421-.872-.002-2.133.71-2.803 1.584-.849 1.105-1.228 1.196-1.25.298-.021-.829-.822-.553-2.248.776-1.693 1.577-2.173 3.062-2.033 6.289l.184 4.224h-5.872c-3.23 0-5.662-.34-5.406-.755.257-.415-2.274-.501-5.624-.191-7.437.687-10.672-.08-8.972-2.127.641-.773 1.474-1.215 1.85-.982 1.827 1.129 2.985-1.598 3.273-7.708.281-5.984.537-6.718 2.316-6.653 1.135.042 1.441.298.708.592-.948.381-1.002.868-.201 1.832.755.91.768 1.513.042 1.962-.577.356-1.049 2.646-1.049 5.089 0 4.07.209 4.441 2.5 4.441 2.294 0 2.513-.392 2.657-4.75l.157-4.75.686 5c.672 4.901.688 4.862.773-2 .054-4.392-.21-6.255-.708-5l-.795 2-.422-2c-.231-1.1.271-2.599 1.116-3.332 1.367-1.185 1.351-1.274-.149-.806-1.397.436-1.8-.448-2.357-5.168-.369-3.132-1.733-8.372-3.03-11.646-1.297-3.273-2.198-6.111-2.002-6.307.665-.665 4.473 5.417 6.294 10.052 1.3 3.312 2.181 4.386 3.12 3.806 1.463-.904-.581-7.203-2.779-8.561-.628-.389-.876-1.545-.551-2.571.825-2.599-3.116-6.538-4.988-4.985-1.847 1.533-2.901-.337-2.065-3.665.508-2.025.327-2.448-.855-1.995-2.018.775-3.149-2.958-1.499-4.946.846-1.02.924-1.753.233-2.202-.569-.371-1.129-3.824-1.243-7.674-.277-9.338-1.762-10.478-1.988-1.526-.196 7.783-1.364 12.01-3.33 12.056-.742.018-.543.457.475 1.05 1.933 1.126 2.39 3.92.642 3.92-.683 0-.868.96-.481 2.5.345 1.375.225 2.5-.267 2.5s-1.178-1.42-1.525-3.155c-1.645-8.223-5.211-7.773-4.921.621.124 3.596-.233 6.747-.804 7.1-1.514.935-1.609.612-2.238-7.566-.318-4.125-.595-7.601-.617-7.724-.021-.124-1.453-.956-3.18-1.849l-3.142-1.625.499 12.099c.438 10.643.305 12.103-1.109 12.134-1.184.027-1.035.356.565 1.25 3.598 2.012.923 5.68-3.317 4.55-2.763-.736-3.192-1.324-3.527-4.836-.426-4.469-.312-4.626 1.815-2.499 2.654 2.654 2.862 1.722 2.553-11.399l-.304-12.903-3.002-1.244c-2.253-.933-3.286-.958-4.146-.098-.859.859-.856 1.144.01 1.144 1.084 0 .881 6.698-.236 7.816-.246.246-.01 1.264.524 2.262.725 1.355.558 2.047-.659 2.728-1.345.752-1.054 1.113 1.655 2.058 1.808.63 3.051 1.381 2.763 1.668-.288.288-1.784.045-3.325-.541-5.219-1.984-5.767 2.125-.702 5.265l2.726 1.691-2.75.026c-1.756.017-2.75.565-2.75 1.515 0 .947-.818 1.402-2.25 1.25-1.768-.187-2.316.333-2.558 2.425-.298 2.576-.175 2.644 3.807 2.11 3.643-.488 4.182-.296 4.697 1.672.432 1.651.793 1.883 1.401.898 1.757-2.843 3.034.701 2.256 6.261-.682 4.873-.821 5.105-1.436 2.396-.627-2.764-.692-2.804-.832-.5l-.152 2.5-2.05-2.464-2.051-2.465-1.894 2.465-1.894 2.464-.022-3.75c-.02-3.349-1.906-5.593-2.101-2.5-.043.688-.526-.1-1.073-1.75-.547-1.65-1.524-4.086-2.171-5.414-.918-1.882-.904-2.505.064-2.83 1.568-.526-.903-3.256-2.947-3.256-.742 0-2.237-.612-3.321-1.361-2.68-1.849-19.725-8.72-20.273-8.173-.241.241-1.052-.175-1.803-.926-.751-.751-5.085-2.596-9.631-4.101s-8.416-3.12-8.599-3.588c-.184-.468-1.196-.851-2.25-.851-1.055 0-1.864-.338-1.799-.75.3-1.894-.228-2.624-1.008-1.395-.707 1.117-1.321 1.053-3.484-.365L159 231.77v5.042c0 3.96-.375 5.139-1.75 5.499-1.148.3-.861.497.833.573 3.733.168 4.009.933 1.311 3.631-1.317 1.317-2.394 3.09-2.394 3.94 0 .85-.727 1.545-1.617 1.545-1.124 0-1.457-.609-1.093-2.001.333-1.274.132-1.76-.553-1.336-.677.418-.844.059-.451-.967.345-.898.174-1.911-.378-2.253-.654-.404-.595-1.115.166-2.032.945-1.139.762-1.411-.952-1.411-1.255 0-2.122-.637-2.122-1.559 0-3.042-2.001-.27-2.07 2.868-.044 1.972-.33 2.618-.75 1.691-1.048-2.313-3.944-2.32-4.676-.012-.356 1.123-1.096 1.764-1.644 1.425-.548-.338-.76-1.23-.472-1.982.289-.752.094-1.633-.432-1.958-.526-.325-.992-1.577-1.035-2.782-.043-1.205-.306-1.628-.583-.941-.535 1.326-3.421 1.774-3.22.5.306-1.936-.198-4.25-.926-4.25-1.996 0-4.985 9.527-5.118 16.309-.044 2.269-.478 3.559-1.074 3.191-.55-.34-1-.141-1 .441 0 1.935-.163 2.55-.944 3.559-1.19 1.537-.575 25.381.687 26.643.642.642.908 3.397.649 6.723-.336 4.297-.205 5.1.552 3.384 1.466-3.326 2.396-2.731 1.769 1.132-.31 1.909-.062 3.869.569 4.5.822.822.823 1.118.001 1.118-.614 0-1.383-.562-1.709-1.25-.327-.687-.357.303-.069 2.2.289 1.898.856 3.698 1.26 4 .404.303.758 1.675.787 3.05.088 4.205 1.569 10.957 2.535 11.554.502.31.913 1.641.913 2.958 0 3.077 8.202 24.382 8.752 22.732.228-.684.882-1.244 1.454-1.244.649 0 .592.538-.151 1.433-.929 1.12-.855 2.05.338 4.25.985 1.817 1.541 2.229 1.567 1.161.028-1.158.643-1.499 2.04-1.134 1.786.467 2.014.002 2.134-4.343l.133-4.867.74 5c.894 6.041.19 11.33-1.242 9.331-.712-.993-.811-.887-.391.419.31.962.141 1.75-.374 1.75s-.678.675-.362 1.5c.577 1.504 2.501 2.159 2.203.75-.799-3.774 7.173-6.261 8.552-2.668.916 2.386.801 2.505-1.784 1.856-3.167-.795-4.036.876-2.23 4.288 1.26 2.384 1.563 2.528 2.151 1.024.376-.962 1.337-1.75 2.136-1.75.911 0 1.161.465.671 1.25-1.496 2.396-1.145 3.751 1.001 3.866 1.691.091 1.781.216.412.573-2.017.527-2.453 5.253-.5 5.414.688.057 4.354.25 8.148.43 3.794.18 7.209.831 7.59 1.447.657 1.064 19.028 2.238 31.934 2.042 3.396-.051 5.726.396 6.235 1.198.644 1.015.816.996.828-.092.012-1.126.294-1.142 1.562-.089 1.845 1.531.321 2.921-3.232 2.946-1.202.008-3.388.472-4.859 1.032-3.352 1.274-1.698 3.992 2.416 3.968 2.123-.013 2.339-.217 1.128-1.065-1.543-1.079 1.302-.869 8.74.645 2.714.552 3.816.154 6.785-2.453L232.07 382l-4.785-.07c-6.026-.089-9.679-1.35-7.035-2.43.963-.393 2.467-.439 3.343-.103 1.062.408 1.767-.056 2.116-1.393.288-1.102 1.034-2.01 1.658-2.018.623-.007 2.145-.285 3.383-.616 1.664-.446 2.25-.176 2.25 1.038 0 2.425 3.788 3.416 9.97 2.609 3.008-.393 6.277-.504 7.265-.245 1.308.342 1.632.045 1.195-1.095-.33-.86-1.349-1.762-2.265-2.004-.916-.243 5.149-.493 13.478-.557 13.081-.1 15.227.104 15.762 1.498.517 1.347.082 1.514-2.643 1.01-1.794-.332-4.612-.196-6.262.3-1.696.511-2.213.941-1.191.99.995.047 1.561.488 1.257.979-.303.491 1.118 2.515 3.159 4.497l3.71 3.604 4.533-4.64c2.801-2.868 4.055-4.808 3.282-5.08-2.163-.762-1.521-5.97.811-6.58 1.232-.322 2.271.008 2.583.82.287.748 1.197 1.101 2.023.784 1.221-.469 1.252-.734.167-1.422-.944-.598-.604-.879 1.166-.96 1.375-.063 3.753-.226 5.285-.363 1.532-.136 3.021.133 3.309.6.799 1.292 2.439 1.009 2.156-.371-.161-.784.821-1.13 2.75-.971 7.835.645 15.5.615 15.5-.061 0-.413 1.988-.75 4.417-.75s4.567-.451 4.75-1.002c.209-.626 1.458-.685 3.334-.157 3.252.915 10.667.791 12.28-.206.55-.34 1.724.487 2.61 1.838 1.772 2.705 1.995 3.588.859 3.409-2.506-.396-8.982.296-10.245 1.094-1.283.811-1.212 1.159.5 2.453 1.097.829 1.602 1.522 1.123 1.539-1.091.04 1.314 3.032 2.437 3.032.451 0 .647-.9.435-2-.265-1.374.153-2 1.335-2 .946 0 2.491-.9 3.433-2 2.335-2.727 3.094-2.528 4.491 1.173.87 2.303.899 3.535.106 4.489-1.608 1.938-2.658.78-2.165-2.388.411-2.647.36-2.686-1.117-.856-1.243 1.539-1.306 2.215-.316 3.423 1.05 1.283.883 1.416-1.128.897-1.79-.462-2.482-.144-2.863 1.315-.277 1.059-.866 1.7-1.309 1.427-.443-.274-1.405.165-2.136.976-3.018 3.344-3.831 4.512-3.831 5.502 0 .573-.702 1.042-1.559 1.042s-1.281.45-.941 1c.92 1.489-.434 1.209-2.071-.429-2.049-2.048-1.905-8.571.188-8.571 1.092 0 1.456.612 1.122 1.889-1.033 3.952.886 4.17 4.241.483 2.994-3.29 3.168-3.79 1.694-4.868-.904-.661-1.425-1.495-1.158-1.853.266-.358.183-.425-.185-.149s-1.493-.243-2.5-1.155c-1.738-1.573-1.831-1.497-1.831 1.498 0 2.239-.469 3.155-1.617 3.155-1.185 0-1.489-.667-1.138-2.5.552-2.887-.402-3.224-2.373-.837-1.07 1.296-1.097 1.755-.122 2.083 2.4.808 1.269 2.476-1.25 1.843-1.825-.458-2.5-.227-2.5.857 0 .816-.831 1.929-1.848 2.472-1.016.544-3.378 3.021-5.25 5.505-2.186 2.902-4.185 4.526-5.593 4.546-2.64.037-4.199-1.935-1.618-2.048 1.049-.046 1.284-.291.559-.583-1.805-.729-1.537-6.364.405-8.509 1.556-1.72 1.523-1.829-.559-1.829-1.409 0-1.957.417-1.506 1.146.638 1.032-4.343.434-5.429-.652-.741-.74 1.023-4.44 2.013-4.224.579.127 1.233-.846 1.454-2.16.396-2.352.304-2.382-5.729-1.835-5.804.527-10.852 2.705-6.349 2.74 3.282.026 5.277 1.763 3.45 3.004-1.959 1.331 1.345 4.169 3.771 3.239 1.187-.456 1.41-.172.903 1.15-.371.966-.674 2.195-.674 2.733 0 .537-.421.717-.935.399-.515-.318-2.069.555-3.455 1.941-3.411 3.411-5.574 3.217-2.534-.228 1.333-1.51 2.779-2.904 3.214-3.096.434-.193-.387-1.527-1.825-2.964-2.405-2.405-2.468-2.672-.789-3.334 1.247-.491.6-.741-2.048-.789-3.105-.056-3.655.193-2.774 1.254.799.962.796 1.626-.01 2.432-1.104 1.104-1.327 12.653-.278 14.351.304.491-.573.893-1.948.893s-2.778-.45-3.118-1c-.34-.55-.235-1 .234-1 .468 0 .875-3.855.903-8.567l.052-8.567-2.094 2.184c-1.477 1.539-1.726 2.322-.845 2.65.688.257 1.25 1.093 1.25 1.859 0 1.059-.578 1.172-2.423.47-2.771-1.053-4.995.719-4.036 3.217.444 1.157-.009 1.387-1.983 1.01-1.407-.269-2.573-.999-2.591-1.623-.018-.623-2.043-3.152-4.5-5.62L266 380.527v3.036c0 1.671.54 3.577 1.2 4.237.933.933.933 1.2 0 1.2-.66 0-1.2.675-1.2 1.5 0 1.785-.479 1.849-3.143.423-1.142-.611-1.776-1.692-1.466-2.5.3-.783.11-1.423-.422-1.423-.533 0-.969.905-.969 2.012 0 1.793-.462 1.947-4.25 1.419-3.158-.44-3.864-.319-2.75.473 1.018.723 1.098 1.07.25 1.081-.687.008-1.25.69-1.25 1.515 0 .92-.935 1.5-2.417 1.5-1.329 0-2.566.415-2.75.923-.183.508-2.33 3.047-4.77 5.641-3.926 4.174-4.523 4.5-5.18 2.827-.408-1.04-.774-1.328-.813-.641-.038.688-1.011 1.25-2.16 1.25-1.875 0-2.055-.49-1.75-4.75.316-4.417.165-4.774-2.16-5.096-1.375-.19-3.027-.778-3.672-1.307-1.903-1.562-5.601 2.114-4.042 4.018 1.022 1.248.859 1.39-1.035.902-1.237-.318-2.52-.141-2.851.395-.331.536-1.187.75-1.903.475-1.236-.474-2.622 2.07-2.92 5.363-.256 2.817 3.384 4.279 10.54 4.234 3.786-.024 6.883.105 6.883.285 0 .181-4.459 1.109-9.908 2.063-8.027 1.405-9.798 2.022-9.326 3.25.431 1.123.127 1.341-1.174.842-.966-.371-2.731-.681-3.924-.689-1.766-.013-1.89-.195-.668-.985.825-.533 1.076-.976.559-.985-.518-.008-.068-.676 1-1.483 1.275-.965 1.475-1.479.584-1.5-.833-.02-1.118-.655-.739-1.643.453-1.18.192-1.448-.976-1-2.767 1.062-1.12-1.081 4.809-6.257l5.737-5.008-3.715-3.062c-2.043-1.684-4.287-3.062-4.987-3.062-.7 0-1.306-.562-1.348-1.25-.042-.687-.929 1.64-1.97 5.172-1.042 3.533-2.47 6.795-3.174 7.25-1.013.656-.968 1.033.22 1.813.825.541 1.194.991.82 1-.374.008-.266 1.459.24 3.225 1.052 3.667-.262 5.988-2.26 3.99-1.666-1.666-2.853-1.501-2.162.3.337.877.012 1.506-.781 1.515-1.105.013-1.095.182.052.908.775.49 2.125.637 3 .325s1.25-.191.833.267c-1.037 1.141 4.218 4.47 7.067 4.478 1.27.004 2.072.391 1.781.861-.29.469.568 1.352 1.906 1.962 1.528.696 2.654.751 3.027.146.327-.529.006-.982-.714-1.006-.72-.024.282-.613 2.226-1.308 2.382-.852 5.897-1.048 10.772-.601 6.694.613 11.026 1.913 6.61 1.983-1.716.028-1.743.133-.255 1.001 1.048.611 2.526.623 4 .033 1.635-.656 1.83-.956.647-1.001-.93-.034-1.965-.506-2.3-1.048-.372-.603.671-.802 2.691-.513 2.87.41 2.975.355.8-.416-2.266-.804-2.137-.896 1.372-.986 3.397-.088 3.714.091 2.581 1.457-1.13 1.361-.924 1.497 1.627 1.082 1.606-.261 3.509-.512 4.229-.557.72-.045 1.028-.537.685-1.092-.409-.661 1.865-.847 6.57-.538 9.254.609 10.227 1.548 1.603 1.548-7.097 0-8.787 1.384-3.417 2.799 4.871 1.283 9.32.631 11.66-1.709 2.648-2.648 2.623-3.015-.16-2.428-2.186.462-2.193.438-.25-.84 2.4-1.579 17.236-1.486 18.84.118.747.747.688 1.06-.199 1.06-.692 0-1.051.337-.796.75.705 1.142-11.738.895-12.58-.25-.453-.617-.74-.516-.75.265-.008.695-1.477 2.156-3.265 3.246-1.788 1.09-2.736 1.983-2.107 1.985.629.002 1.413.708 1.744 1.569.517 1.347-.465 1.534-7.05 1.342-9.344-.273-13.918-1.196-13.587-2.741.407-1.896-3.196-1.331-5.561.873-3.094 2.882-2.737 3.613 1.561 3.196 2.528-.245 3.312-.06 2.405.568-1.922 1.333 3.013 2.444 7.29 1.641 1.987-.372 3.597-.185 3.999.466.371.6 1.633 1.09 2.806 1.09 2.081 0 2.086.034.202 1.411-1.061.777-2.342 1.157-2.845.846-.504-.311-.581-.024-.171.639 1.047 1.694-8.252 1.145-9.986-.589-.719-.719-3.027-1.36-5.129-1.425-3.748-.116-3.764-.133-.821-.856 2.162-.531 1.185-.71-3.5-.643-3.575.052-8.975-.231-12-.628l-5.5-.722 4.5 1.444 4.5 1.445-6.185-.453c-3.401-.249-7.226-.035-8.5.476-1.767.709-.54.967 5.185 1.091 5.334.116 6.778.394 5 .96-1.775.566-.677.775 3.784.721 6.695-.082 9.914 1.537 8.287 4.168-.676 1.094-1.509 1.158-3.964.302-1.968-.686-3.107-.723-3.107-.1 0 .64-.634.644-1.816.011-2.989-1.599-38.388-2.083-40.184-.549-2.55 2.179-8.448 2.821-9.895 1.077-1.11-1.337-.802-1.451 2.469-.92 2.693.437 3.537.283 3.022-.55-.393-.636-2.375-1.201-4.405-1.256-2.03-.055-4.816-.479-6.191-.943-1.485-.501 4.402-.715 14.5-.528 9.35.174 16.1-.045 15-.486-1.448-.581-1.563-.822-.417-.873.871-.038 1.584-.632 1.584-1.32 0-1.432-5.201-1.479-30.167-.275-15.792.761-21.664 1.525-11.726 1.525 2.81 0 5.416.499 5.794 1.109.484.784-.599.915-3.691.447-9.452-1.432-9.487-1.449-10.663-5.349l-1.117-3.707.482 3.672c.265 2.02.071 3.926-.431 4.236-1.711 1.058-20.148.584-20.148-.518 0-.946 10.661-1.819 14.535-1.191 2.082.338 3.465.15 3.465-.472 0-1.335-9.948-2.139-12.288-.992-3.825 1.874-5.439.134-5.106-5.505l.31-5.23-1.066 4.75c-1.048 4.67-1.132 4.75-4.958 4.75-2.793 0-3.892-.424-3.892-1.5 0-.825.477-1.5 1.059-1.5s.781.45.441 1-.141 1 .441 1 1.059-.417 1.059-.927c0-.509.788-1.132 1.75-1.384.963-.251.287-.509-1.5-.573-3.038-.108-3.26-.361-3.41-3.866l-.16-3.75-.421 3.491c-.232 1.92-.948 3.826-1.59 4.235-.858.545-.827.747.116.759.945.011 1.02.51.285 1.884-.55 1.027-.74 2.128-.422 2.446.318.318-.361.507-1.509.421-1.148-.087-2.309-.738-2.582-1.447-.272-.709-1.147-1.289-1.945-1.289-1.18 0-1.267-.664-.468-3.56.541-1.957.765-4.095.498-4.75-.266-.654-.52-.402-.563.56-.043.962-.487 1.75-.985 1.75-.499 0-.689.833-.423 1.851.961 3.672-4.389 6.346-9.089 4.542-2.929-1.124-1.614-1.948 2.668-1.672 3.242.209 3.776.054 2.25-.653-2.555-1.185-8.788-1.344-8.085-.206.292.474-.469.831-1.691.794-1.223-.036-4.136.256-6.474.651l-4.25.717v5.904c0 3.789.448 6.086 1.25 6.41 1 .403 1 .52 0 .583-2.607.165-1.234 3.08 1.5 3.185l2.75.107-2.821 1.111-2.82 1.112.26 13.782c.143 7.58.539 13.782.88 13.782.341 0 1.101 2.813 1.688 6.25.957 5.605.874 6.463-.81 8.314-1.736 1.909-1.877 4.035-1.877 28.22v26.155l86.209.039c67.394.031 85.945-.224 85-1.169-1.491-1.491-1.582-3.809-.15-3.809.582 0 .847.342.589.761-.259.419.104 1.547.806 2.507 1.104 1.51 2.768 1.708 12.348 1.469 6.089-.152 11.399-.605 11.801-1.007 1.121-1.121 13.861-.866 15.027.3.683.683 1.848.704 3.45.064 2.378-.95 2.368-.969-.58-1.046-2.316-.061-2.658-.3-1.5-1.048 1.026-.663-1.56-.974-8.179-.985-7.254-.011-10.054-.391-11.178-1.515-.825-.825-2.152-1.5-2.949-1.5-2.018 0-3.244-1.972-3.417-5.5-.082-1.65.087-2.179.375-1.177.291 1.016 1.12 1.595 1.871 1.307.741-.285 1.568.02 1.836.676.349.853.792.766 1.55-.306 1.591-2.251 1.325-3.123-1.159-3.802-2.312-.631-1.532-.887 8.75-2.871 1.65-.318 3.561-1.026 4.247-1.573.686-.546 3.723-1.052 6.748-1.124 3.026-.071 5.502-.406 5.503-.744.001-.338 3.471-.694 7.711-.793 9.332-.216 9.12.99-.254 1.452-9.532.471-9.242 1.415.414 1.352 5.094-.034 7.923-.424 7.542-1.04-.39-.631 2.852-.871 8.99-.666 9.148.307 11.941-.313 7.608-1.688-1.095-.348-2.414-.371-2.931-.051-.517.319-1.222.123-1.568-.436-.345-.559-4.314-1.023-8.819-1.031-4.802-.009-7.644-.363-6.868-.854.869-.551-.314-1.063-3.443-1.492-4.856-.666-8.169.637-5.622 2.212.69.426-.909.799-3.599.84-2.662.04-5.87.4-7.128.799l-2.287.726 1.878-2.542c1.033-1.398 2.9-2.808 4.15-3.133 1.909-.496 2.103-.906 1.215-2.566-.798-1.49-.742-1.979.228-1.99.988-.012.97-.215-.078-.879-1.151-.729-1.151-.948 0-1.406.968-.385 1.001-.565.113-.621-2.32-.147-1.272-2.079 1.128-2.079 1.307 0 2.937-.675 3.622-1.5.785-.946.852-1.5.181-1.5-.584 0-1.341.45-1.681 1-1.386 2.242-3.5.957-3.5-2.127v-3.127l5.208.5c2.864.275 5.376 1.007 5.583 1.627.438 1.313 3.209 1.54 3.209.264 0-.726 2.048-.83 5.215-.265 1.713.306 3.006 4.373 1.655 5.208-.77.476 1.835.788 6.147.737 4.849-.058 6.603-.344 4.983-.813l-2.5-.723 2.75-1.116c3.238-1.313 8.7-.459 9.443 1.477.287.747.949 1.358 1.473 1.358.524 0 .674-.45.334-1-.63-1.019-.047-1.222 3.5-1.222 4.028 0 4.3.156 3 1.722-1.509 1.818.401 2.058 4.368.55 1.511-.574 2.624-.586 2.815-.029.175.507 1.286 1.068 2.469 1.247 1.184.179 2.869.92 3.745 1.646 1.042.866 2.542 1.063 4.347.571 5.08-1.382 24.5-.751 27.073.88.724.46 1.586.565 1.916.235.33-.33-.037-.632-.816-.67-2.139-.106 2.206-1.778 4.833-1.86 1.238-.038 2.25.38 2.25.93s-.927 1-2.059 1c-1.132 0-1.784.445-1.447.99.395.64-2.261.784-7.51.409-8.431-.603-13.463.018-12.519 1.545.301.487-.018 1.113-.709 1.392-.691.278 1.987.444 5.951.367 3.964-.076 6.664-.483 6-.905-1.498-.952-.914-1.003 10.543-.913 8.585.067 11.22-1.036 6.579-2.753-1.5-.555-1.796-1.035-.956-1.553.668-.413 1.922-.164 2.786.553 1.347 1.118 1.516 1.024 1.179-.664-.44-2.204-.827-2.235-13.838-1.122-6.165.528-8.088.432-7-.348 1.161-.834.596-1.046-2.5-.94-2.2.074-4.45.042-5-.072-.55-.114-2.125-.162-3.5-.106l-2.5.102 2.326-.987c2.141-.908 2.197-1.115.71-2.602-1.487-1.487-1.479-1.714.096-2.866 1.842-1.347 5.701-.875 4.798.587-.302.487.18.886 1.07.886.89 0 1.34-.45 1-1-.373-.604.99-1 3.441-1 2.232 0 4.059-.432 4.059-.96s-1.238-.891-2.75-.808c-1.512.083-5.675-.127-9.25-.467s-5.481-.394-4.235-.12c1.245.274 2.002.923 1.681 1.443-.321.519-1.056.653-1.633.296-1.676-1.036-7.813-2.237-7.811-1.529.001.355-2.812.537-6.25.405-4.981-.192-5.765-.035-3.857.771 3.017 1.275 2.28 2.023-2.932 2.976-3.637.665-4.217.504-4.976-1.377-.473-1.172-.889-1.607-.924-.967-.047.875-.8.885-3.035.042-4.042-1.526-1.972-2.661 4.972-2.725 5.127-.047 5.337-.141 3.098-1.382-1.321-.732-3.346-1.161-4.5-.954-1.154.208-1.535.111-.848-.216 1.789-.851 1.542-2.205-.5-2.739-1.111-.29-.777-.499.917-.573 1.466-.064 2.856-.679 3.087-1.366.302-.897.819-.955 1.833-.203.777.575 4.113.981 7.413.9 4.381-.107 5.325.079 3.5.686-1.681.56-.453.705 3.75.444 6.6-.409 9.5.843 3.992 1.725-5.08.813-6.625 1.247-7.463 2.096-.965.978 8.614-.34 10.84-1.491.89-.46 1.974-.515 2.41-.122.435.393.468.153.072-.535-.395-.687-.242-1.25.34-1.25.582 0 1.059.354 1.059.786 0 .84.16.86 9.887 1.235 4.087.158 5.845.549 4.883 1.088-2.335 1.307-1.089 6.127 1.382 5.343 3.252-1.032 9.873-1.221 10.444-.297 1.167 1.888 2.404-.483 2.404-4.607 0-3.178-.459-4.51-1.722-4.995-1.376-.528-1.45-.828-.372-1.495 1.583-.978.607-3.058-1.434-3.058-.842 0-1.178.604-.834 1.5.397 1.032-.062 1.5-1.472 1.5-1.126 0-2.356.498-2.731 1.106-.47.759-3.071.872-8.309.361-4.194-.41-9.201-.881-11.126-1.047-1.925-.166-3.795-.329-4.156-.361-1.028-.092.274-4.059 1.332-4.059.518 0 .664.45.324 1s.057 1 .882 1c1.87 0 3.221-1.97 1.427-2.081-2.071-.129 4.439-2.824 6.941-2.874 1.238-.025 2.25-.447 2.25-.938 0-1.626 2.941-2.058 7.752-1.138 4.229.809 4.924.681 6.361-1.174.889-1.149 2.126-1.765 2.757-1.375 1.385.856 2.766-2.214 1.513-3.365-.486-.446-3.081-1.043-5.768-1.326-2.991-.314-4.348-.174-3.5.363 1.036.657.827.881-.834.893-2.573.017-2.155-2.543.554-3.395 1.737-.546-3.801-.038-9.835.903-2.675.417-3.029.322-1.5-.404 1.715-.813 1.502-.975-1.5-1.135-1.925-.102-2.761-.382-1.857-.623.945-.251 1.47-1.157 1.237-2.134-.828-3.463.869-4.192 8.167-3.507 6.581.618 6.798.717 4.054 1.843l-2.898 1.189 3.621.679c1.992.374 4.07 1.449 4.618 2.389.851 1.459 1.002 1.336 1.028-.84.016-1.402.57-3.09 1.23-3.75.933-.933.656-1.197-1.25-1.185-1.949.012-2.143.214-.95.985 1.282.828 1.246.972-.25.985-.962.008-1.75-.66-1.75-1.485 0-1.079-1.191-1.533-4.25-1.618-2.337-.065-5.456-.403-6.931-.75-4.503-1.061-1.1-4.302 5.146-4.903 4.952-.475 6.193-1.395 3.844-2.847-.655-.405-1.368-.206-1.583.441-.216.647-1.691 1.177-3.278 1.177-2.154 0-2.739-.38-2.31-1.5.41-1.067 2.059-1.496 5.719-1.485 3.689.011 4.719.29 3.643.985-1.302.841-1.283.971.143.985.904.008 1.902.69 2.219 1.515.316.825 1.35 1.5 2.298 1.5 1.572 0 1.562-.117-.117-1.345-1.759-1.286-1.746-1.369.309-1.906 1.181-.309 2.148-1.129 2.148-1.822 0-.693-.296-.964-.658-.602-.362.362-1.291.132-2.064-.509-.774-.642-3.74-1.086-6.592-.987-5.031.175-5.126.128-3.186-1.574 1.1-.965 2.058-3.105 2.128-4.755.071-1.65.183-3.725.25-4.611.089-1.168 1.532-1.777 5.258-2.219 6.114-.724 6.286-.853 5.465-4.123-.63-2.513-3.112-3.514-3.775-1.524-.484 1.451-6.579.063-7.235-1.648-.406-1.056.068-1.248 1.926-.781 1.745.438 2.644.15 3.081-.988.339-.883 1.693-1.606 3.009-1.606 3.109 0 3.248-2.973.143-3.07-2.112-.066-2.128-.118-.269-.844 1.488-.582.744-.913-2.994-1.335-2.736-.308-5.738-.152-6.67.347-1.056.565-1.929.529-2.315-.095-.341-.552-1.606-1.017-2.811-1.033-1.958-.028-2.007-.138-.454-1.043 1.185-.69 2.376-.669 3.75.066 1.107.593 2.013.684 2.013.203 0-1.04-4.457-3.196-6.606-3.196-.888 0-1.218.476-.799 1.155.473.763.271.88-.595.345-.829-.512-1.067-.417-.648.26.363.588.095 1.297-.596 1.576-.758.305-.562.537.494.585.962.043 1.75.449 1.75.901 0 .453-3.819.872-8.487.933-4.668.061-8.877.352-9.353.646-.476.294-1.719-.111-2.763-.901-1.736-1.314-1.748-1.439-.147-1.468.962-.018 1.75-.434 1.75-.925 0-1.369-2.543-2.039-5.154-1.358-2.135.557-2.204.471-.772-.963.983-.985 2.57-1.386 4.231-1.068 4.082.78 7.994-.495 7.275-2.371-.436-1.136-.163-1.401.99-.958.877.336 3.383.611 5.571.611 2.187 0 3.735.391 3.439.87-.295.478.916.884 2.691.902 6.721.068 7.83.256 7.229 1.228-.34.55.139 1 1.063 1 1.319 0 1.434-.299.534-1.383-.889-1.071-.785-1.523.459-2 2.506-.962 4.131-.707 2.444.383-1.085.701-.185.974 3.25.985 5.852.019 6.755-2.441 1.038-2.826-5.177-.349-5.495-1.159-.455-1.159 4.507 0 6.303-2.905 1.917-3.1-2.146-.095-2.134-.134.25-.838 2.045-.604 1.318-.939-4-1.843l-6.5-1.105 6.25.328 6.25.329v-2.886c0-2.959-2.453-4.012-4.55-1.952-.556.547-2.402.589-4.45.103l-3.5-.831 3.5-.221 3.5-.221-3-.846c-2.246-.634-1.536-.746 2.824-.446l5.825.4-.243-12.186c-.146-7.351-.671-12.476-1.324-12.92-.722-.49-.647-.739.227-.75.72-.008 1.057-.422.75-.92-.308-.497-2.351-.664-4.541-.371-3.09.415-4.122.17-4.607-1.095-.872-2.273-2.411-2.037-2.411.371 0 1.111-.667 2-1.5 2-.825 0-1.5-.45-1.5-1 0-1.534-2.6-1.187-4.031.537-.701.845-1.994 1.468-2.872 1.385-4.25-.405-6.609.101-5.097 1.093 1.333.876 1.333 1.094 0 1.97-1.003.658-1.086.989-.25 1 .688.008 1.25.76 1.25 1.67 0 1.54.127 1.54 1.829 0 2.802-2.536 3.473-1.975 1.544 1.291-.957 1.62-2.102 2.721-2.545 2.448-.443-.274-.543.313-.223 1.304.403 1.252-.034 1.047-1.432-.668-1.285-1.576-2.133-4.334-2.343-7.621-.45-7.033-.044-8.406 2.493-8.424 1.694-.012 1.859-.217.741-.924-1.19-.753-1.211-1.178-.127-2.485 1.64-1.976 5.968-2.026 9.661-.11 2.008 1.042 3.024 1.145 3.511.357.378-.61 1.632-.862 2.789-.56 1.654.432 2.105.09 2.117-1.607.009-1.186.346-1.706.75-1.156s1.84 1.124 3.191 1.275c1.351.151 2.814.826 3.251 1.5.438.676.722-1.133.635-4.034-.091-2.998-.737-5.739-1.501-6.373-.738-.612-1.327-1.62-1.309-2.24.017-.621.692-.254 1.5.813 1.341 1.773 1.468 1.4 1.468-4.317 0-5.804-.145-6.213-2-5.624-1.147.364-2 .18-2-.433 0-.587-.445-1.067-.988-1.067-.544 0-.881.788-.75 1.75.131.963-.162 1.824-.65 1.915-.489.09-1.269.765-1.735 1.5-.526.83-.852.903-.862.192-.008-.629-.718-1.413-1.577-1.742-1.075-.413-1.506-.057-1.384 1.143.369 3.643-.105 5.242-1.554 5.242-.825 0-1.5-.675-1.5-1.5s-.562-1.507-1.25-1.515c-.935-.012-.913-.229.085-.862 1.928-1.222 1.904-2.13-.085-3.243-.962-.539-1.796-1.745-1.852-2.68-.057-.935-.472-.129-.923 1.79-.48 2.039-.428 3.964.123 4.628.644.776.269 1.314-1.178 1.693-1.166.305-1.854.988-1.526 1.517.327.529-.115 1.235-.982 1.567-2.363.907-2.408.858-2.459-2.645l-.046-3.25-2.491 4.786c-1.579 3.033-2.917 4.523-3.654 4.067-.865-.535-.842-.826.09-1.137.954-.318.909-.693-.187-1.567-2.062-1.645-2.723-9.85-.984-12.228 1.204-1.646 1.529-1.704 2.343-.416.838 1.325.949 1.325.976-.005.027-1.333.14-1.333 1.015 0 .876 1.333 1.094 1.333 1.97 0 1.588-2.42 1.223-2.858-2.735-3.272l-3.75-.392 4.25-.168c2.337-.092 4.25-.645 4.25-1.227 0-.582-.398-.813-.884-.513-1.337.826-3.393-4.981-2.623-7.407.562-1.771.929-1.916 2.192-.867 2.277 1.889 4.081 1.851 4.59-.099.261-.996-.343-2.241-1.41-2.907-1.15-.719-1.865-.779-1.865-.156 0 .554-.635 1.008-1.411 1.008-1.524 0 .505-11.494 2.356-13.345 1.357-1.357 2.307 5.007 1.086 7.286-.935 1.748-.81 2.059.827 2.059 2.251 0 3.142-1.85 3.142-6.523 0-1.847.399-3.606.887-3.907.487-.301 1.189-2.16 1.558-4.13.37-1.97.949-4.303 1.287-5.185.458-1.193.188-1.438-1.058-.96-1.257.482-1.67.09-1.659-1.576.012-1.758.209-1.914.946-.748 1.472 2.328 2.213.63 2.566-5.882.18-3.325.612-6.505.959-7.067.348-.562.155-1.022-.427-1.022s-1.059.45-1.059 1-1.19 1-2.645 1h-2.644l.637-6.75c.351-3.712.641-9.531.645-12.93.006-5.612.214-6.221 2.257-6.614 2.188-.422 2.191-.437.101-.57-1.813-.115-2.216-.88-2.574-4.886-.52-5.814-.448-5.919 2.657-3.885 3.078 2.017 3.566 2.035 3.566.135 0-1.885-3.541-5.5-5.386-5.5-1.367 0-1.683-1.352-3.231-13.826-.526-4.238-.377-5.286.728-5.131 3.447.482 4.279-.037 2.336-1.458-1.401-1.024-2.128-1.101-2.636-.279-.936 1.514-1.44.835-2.274-3.056-.675-3.153-.597-3.25 2.634-3.265 1.831-.009 2.848-.346 2.26-.75-.588-.404-1.125-2.085-1.194-3.735-.202-4.839-1.395-9.521-2.286-8.97-.454.281-1.255-1.411-1.781-3.76-.693-3.094-1.007-3.581-1.143-1.77-.141 1.876-.493 1.376-1.41-2-.835-3.076-.9-4.93-.207-5.858.73-.977.539-1.706-.681-2.598-1.55-1.134-2.437-3.638-2.67-7.544-.069-1.157-.275-1.208-.901-.222-1.074 1.692-3.348-3.12-2.508-5.307.373-.972.104-1.444-.718-1.262-.722.16-1.505-.609-1.738-1.709-.234-1.1-.936-2.331-1.56-2.735-.798-.517-.746-.739.175-.75.72-.008 1.026-.472.681-1.031-.346-.559-1.047-.758-1.559-.441-.512.316-.931-.352-.931-1.484 0-1.132-.477-2.059-1.059-2.059s-.789-.437-.459-.971c.872-1.411-1.71-5.877-6.377-11.029-2.242-2.475-4.083-4.822-4.091-5.217-.067-3.429-31.024-33.842-34.354-33.751-.638.017.19 1.026 1.84 2.241m17 .922c26.184 20.478 48.801 55.575 58.75 91.17 2.562 9.166 3.621 11.63 5 11.632 1.605.003 1.75-1.564 1.75-18.938 0-11.549-.39-19.182-1-19.559-.595-.368-1 .823-1 2.941 0 4.769-1.981 4.586-2.07-.191-.039-2.062-.491-4.65-1.006-5.75-.671-1.436-.841-.384-.6 3.725.321 5.469.232 5.716-1.994 5.532-2.195-.182-3.427-1.757-1.374-1.757.544 0 .778-2.475.544-5.75-.226-3.162-.431-6.762-.455-8-.025-1.238-.493-2.25-1.041-2.25-.573 0-.959 2.874-.909 6.75.121 9.28.111 9.301-2.117 4.391-2.347-5.172-2.343-5.141-.651-5.141.905 0 1.187-.953.886-3-.589-4.013-2.202-3.834-2.255.25l-.042 3.25-1.863-3.5c-1.024-1.925-1.497-3.726-1.049-4.002 1.009-.624.067-5.998-1.051-5.998-.448 0-.958.998-1.133 2.218-.305 2.115-.377 2.091-1.549-.5L388.043 162h10.278c6.768 0 10.697.418 11.502 1.223.964.964 1.151.035.886-4.385-.353-5.886-2.552-9.496-5.17-8.491-.775.297-1.578.035-1.784-.583-.237-.71-1.09-.822-2.315-.304-2.912 1.231-10.604 1.615-9.912.495.325-.525-.337-.955-1.469-.955-1.132 0-2.059.45-2.059 1s-1.687.974-3.75.942c-3.407-.052-4.205-.647-8.731-6.514-8.681-11.255-29.308-30.474-32.62-30.394-.77.018.401 1.441 2.601 3.161m-200.822 10.78c-.856 14.959-.147 16.682 4.488 10.91 3.087-3.844 3.474-4.94 3.134-8.885-.602-6.986-1.22-9-2.762-9-.784 0-2.056-.902-2.828-2.004-1.254-1.79-1.471-.83-2.032 8.979M176 152.845c0 16.835.542 19.651 2.818 14.655.627-1.375 1.824-2.5 2.661-2.5 1.268 0 1.519-1.788 1.507-10.75-.014-11.461-.579-15.25-2.274-15.25-.58 0-1.877-.745-2.883-1.655-1.765-1.597-1.829-1.056-1.829 15.5m-11.969-.885c-2.744 3.466-3.045 4.435-2.407 7.75.401 2.085.67 4.676.598 5.759-.072 1.083.345 2.264.927 2.623.706.436.734 1.278.087 2.531-.534 1.032-1.017 5.252-1.073 9.377-.097 7.222-.048 7.389 1.341 4.5.793-1.65 1.942-4.99 2.554-7.422.742-2.952 1.381-3.986 1.922-3.111.476.771.838-1.012.877-4.328.037-3.101-.257-5.639-.654-5.639s-.56-3.6-.363-8c.198-4.4.127-8-.156-8-.284 0-1.927 1.782-3.653 3.96m39.737 2.82c-.59 2.257-3.402 2.431-4.723.293-1.143-1.849-2.128.147-2.042 4.137.422 19.683 1.24 26.539 3.109 26.05 1.038-.271 1.888-.894 1.888-1.385 0-.49 2.007-.815 4.46-.722 2.453.092 4.226.546 3.941 1.008-.637 1.03 1.671 1.082 3.247.074 1.142-.732 1.673-3.651 1.463-8.044-.061-1.27-.538-2.045-1.06-1.722-1.15.71-1.975-3.743-2.305-12.445-.235-6.182-.359-6.475-2.746-6.454-1.375.013-2.993-.627-3.595-1.422-.917-1.21-1.182-1.108-1.637.632m80.482 31.963c-5.596.266-7.25.684-7.25 1.832 0 .818.788 1.79 1.75 2.16 1.529.588 1.469.742-.47 1.219-3.821.94-1.022 3.118 5.07 3.944 3.107.422 5.65.404 5.65-.04 0-.679 1.722-.666 8.25.059.413.046.75.731.75 1.524s.45 1.719 1 2.059c.631.39 1-1.99 1-6.441V186l-4.25.199c-2.337.109-7.512.354-11.5.544m-143.801 4.725c-.797 1.907-1.449 4.131-1.449 4.941 0 .81-.468 1.762-1.04 2.116-.599.37-.822 2.496-.525 5.015.282 2.406.075 4.645-.461 4.976-.535.331-1.01-.212-1.053-1.207-.059-1.361-.201-1.438-.573-.309-.272.825-.992 2.522-1.601 3.77-1.224 2.511-.729 3.221 3.503 5.019 1.664.707 2.75.782 2.75.19 0-.539.9-.079 2 1.021 1.1 1.1 2.787 1.984 3.75 1.965 1.537-.032 1.506-.184-.25-1.25-2.825-1.716-2.891-3.579-.151-4.266 2.075-.521 2.29-1.055 1.92-4.759-.481-4.815-1.269-6.277-1.269-2.357 0 2.178-.458 2.667-2.5 2.667-1.375 0-2.5-.4-2.5-.889s.777-.826 1.726-.75c1.304.105 1.732-.654 1.75-3.111.013-1.787-.299-3.25-.695-3.25-.395 0-.459-.675-.143-1.5.317-.825 1.428-1.5 2.469-1.5s1.893-.434 1.893-.965c0-1.15-3.517-3.185-4.245-2.457-.279.28-.774-.186-1.1-1.035-.326-.849-.184-1.543.314-1.543.499 0 .839-.9.756-2-.229-3.039-1.661-2.397-3.276 1.468m250.072-2.501c-.365.589.327 3.876 1.538 7.302 1.211 3.427 3.209 10.056 4.44 14.731 1.849 7.019 2.608 8.555 4.358 8.818 2.712.407 2.349-1.681-3.266-18.758-3.859-11.735-5.528-14.589-7.07-12.093m-178.521.77c-1.375.256-2.831.982-3.235 1.614-1.089 1.704-.919 6.626.235 6.799 2.852.428 3.33.156 3.673-2.089.518-3.398 1.327-3.912 1.327-.844 0 1.709.66 2.722 2 3.073 1.1.287 2 .193 2-.21 0-.404 1.4-.528 3.111-.277 1.978.29 3.429-.046 3.984-.923.633-.998.879-1.034.89-.13.008.688.465 1.25 1.015 1.25.55 0 1-.702 1-1.559s.45-1.281 1-.941c.55.34 1 .141 1-.441s-.927-1.059-2.059-1.059c-1.206 0-1.785-.443-1.399-1.068.363-.588 1.29-.827 2.059-.532.77.296 1.399.101 1.399-.431 0-.533-1.012-.976-2.25-.984-1.819-.013-1.963-.201-.75-.985 1.112-.719.506-.973-2.344-.985-3.01-.012-3.957.419-4.366 1.985-.288 1.1-.879 2-1.313 2-.434 0-.554-.9-.267-2 .549-2.098-.825-2.357-6.71-1.263m-56 6.763c0 .825-.597 1.5-1.327 1.5-.928 0-1.183.976-.85 3.247.429 2.925.313 3.111-1.173 1.877-.908-.753-1.643-.976-1.635-.496.023 1.299 1.597 3.543 2.485 3.543.427 0 1.157-.601 1.623-1.336.613-.967.851-.739.862.832.008 1.191.578 2.393 1.265 2.671.688.277.039.54-1.441.583-4.514.132-4.092 1.8 1.181 4.67 4.878 2.655 6.272 4.797 1.758 2.702-7.3-3.389-7.421-3.384-7.559.29-.07 1.868.196 3.33.592 3.248 1.316-.272 4.219 1.369 4.219 2.384 0 .569-1.08.731-2.5.374-2.256-.566-2.5-.33-2.5 2.411 0 2.664-.281 2.968-2.283 2.465-1.818-.456-2.316-.137-2.444 1.567-.113 1.489.277 1.971 1.283 1.585.794-.305 1.445-.231 1.445.164.002.915 7.598.948 8.511.038.376-.375 1.269-.457 1.985-.182.715.275 1.569.066 1.896-.464.328-.53-.073-1.22-.89-1.534-.865-.331-1.399-1.63-1.277-3.104.252-3.037 1.395-3.305 2.274-.535.349 1.1 1.49 2 2.535 2 1.046 0 2.572 1.238 3.393 2.75 1.032 1.902 1.504 2.222 1.532 1.036.037-1.585.388-1.566 4.623.25 2.521 1.08 4.658 1.965 4.75 1.966.092.001-.058-4.534-.333-10.078-.463-9.326.038-12.924 1.8-12.924.741 0 1.478 6.52 1.3 11.5-.039 1.1.193 4.137.515 6.75.514 4.162.357 4.753-1.264 4.772-1.018.012.174.987 2.649 2.167 6.49 3.095 11.258 4.77 12.098 4.25.402-.248.892.032 1.089.623.334 1 13.243 6.938 15.084 6.938.456 0 .609-1.912.341-4.25-.268-2.338-.516-8.401-.55-13.474l-.062-9.225-3.093-1.599c-1.701-.88-3.361-1.331-3.689-1.003-.328.328-.531 5.986-.45 12.574.136 11.033-.487 13.858-2.381 10.794-.402-.65-.843-6.593-.98-13.205-.184-8.87-.614-12.297-1.64-13.068-1.511-1.134-3.083-4.544-2.096-4.544.335 0 1.206.787 1.937 1.75 1.218 1.604 1.331 1.542 1.359-.75.027-2.235-.421-2.531-4.218-2.789-2.337-.158-4.399-.721-4.582-1.25-.504-1.453-2.167-1.151-2.167.394 0 .967-1.431 1.337-5 1.294-2.75-.033-5-.444-5-.914 0-.469-.412-.599-.915-.288-.503.311-1.142 0-1.421-.691-.392-.973-.524-.962-.585.053-.044.727-.592.992-1.234.596-.719-.445-.882-.275-.434.451.513.831-.602 1.115-3.888.991-4.9-.186-6.067-.988-5.1-3.508.425-1.106.963-1.268 1.839-.552 1.296 1.06 2.996-.195 3.488-2.576.304-1.47.094-1.482-3.298-.193-2.486.946-2.637.854-2.101-1.28.487-1.941-.039-2.564-3.394-4.018-4.87-2.109-5.957-2.15-5.957-.22m-65.665 13.94c-2.195.974-3.335 4.306-3.335 9.744 0 1.614.408 2.682.907 2.374.498-.309.712.452.474 1.691l-.433 2.251 1.179-2.25c.648-1.238 1.576-2.25 2.061-2.25.485 0 .417.87-.153 1.934-1.411 2.636-1.315 3.055.715 3.136 1.496.06 1.46.195-.25.93-1.1.473-1.55.898-1 .945.55.047.325.512-.5 1.034-1.083.685-1.688.472-2.179-.766-.568-1.43-.692-1.359-.751.43-.038 1.179.57 2.389 1.352 2.689.829.318 1.213 1.348.92 2.469-.406 1.55 2.403 4.251 3.092 2.973.081-.151 1.406-1.984 2.945-4.073 1.538-2.089 2.561-4.415 2.272-5.167-.288-.753.122-1.617.912-1.92 2.482-.952 1.622-2.882-1.057-2.37-1.456.278-2.985-.116-3.674-.947-.992-1.194-.728-1.309 1.643-.714 1.853.465 2.603.352 2.183-.328-.756-1.223 5.833-2.688 7.489-1.664.626.387.938.163.713-.511-.607-1.821-12.581-2.249-13.263-.473-.294.766-1.025 1.393-1.625 1.393-.599 0-.823-.432-.497-.959.326-.528.056-1.818-.599-2.868-1.783-2.855-.424-5.864 1.693-3.747.865.866 2.683 1.574 4.038 1.574 1.355 0 3.578.73 4.941 1.623 2.409 1.579 2.467 1.559 2.095-.75-.304-1.895-.912-2.315-3.012-2.085-1.826.2-2.631-.183-2.631-1.25 0-.849-.859-1.538-1.917-1.538-1.054 0-2.066-.342-2.25-.76-.183-.418-1.307-.328-2.498.2m192.853 45.81c-1.412 12.141-1.694 13.052-3.327 10.721-.733-1.048-.798-.465-.225 2.029.442 1.925.696 6.988.562 11.25-.148 4.768.152 7.75.78 7.75.936 0 1.504-6.285 1.061-11.75-.1-1.238.286-2.25.858-2.25.572 0 .781.675.465 1.5-.4 1.041.069 1.5 1.531 1.5 1.581 0 2.107-.624 2.107-2.5 0-3.824 4.741-3.595 5.184.25.188 1.637.923 2.75 1.816 2.75 2.413 0 2.158-16.372-.278-17.891-1.359-.847-1.982-.784-2.639.269-.999 1.602-3.083.655-3.083-1.402 0-.773-.87-1.871-1.934-2.441-2.465-1.319-2.702-1.301-2.878.215m22.352 17.464c.265 5.301.006 7.977-.827 8.554-.8.554-.535.732.779.524 1.306-.208 2.167-1.317 2.5-3.222.788-4.506 2.979-4.439 3.168.097.154 3.692.175 3.714.563.583.394-3.173.52-3.25 5.34-3.25 4.177 0 4.937-.291 4.937-1.893 0-1.041-.712-2.166-1.582-2.5-2.294-.88-2.418-.809-2.418 1.393 0 1.1-.45 2-1 2s-1-1.07-1-2.378c0-4.659-4.16-5.982-4.496-1.429-.089 1.206-.757 2.391-1.484 2.634-.938.312-1.152-.213-.737-1.8.757-2.895-.819-7.027-2.681-7.027-1.171 0-1.373 1.472-1.062 7.714m-187.546-.699c-.86 2.075-1.047 5.585-.6 11.25.357 4.529.668 9.014.691 9.965.023.952.471 1.996.995 2.319.524.324.694 1.008.377 1.52-.316.512-.207.931.243.931 1.407 0 3.296-3.846 2.679-5.455-.324-.843-.991-1.285-1.484-.98-.492.304-.895.114-.895-.423 0-.536.417-1.125.927-1.309 1.087-.391.154-20.833-.951-20.833-.403 0-1.295 1.357-1.982 3.015m210.18 11.052c-.649 2.813-.927 5.523-.618 6.023.309.501.055.91-.564.91-.672 0-.87.808-.492 2 .364 1.147.18 2-.433 2-2.009 0-1.173 4.739.933 5.29 1.225.32 2 .03 2-.748 0-.821 1.325-1.23 3.75-1.156 3.692.112 3.747.059 3.549-3.469-.142-2.541.217-3.584 1.235-3.584 1.084 0 1.3.878.881 3.584-.549 3.547 1.615 8.386 3.091 6.911 1.259-1.259 2.44-8.316 1.45-8.661-1.271-.443-1.233-3.167.044-3.167.55 0 1-.9 1-2s-.661-2-1.469-2c-.894 0-1.243.586-.893 1.5.317.825.078 1.5-.531 1.5s-1.107-.9-1.107-2c0-1.111.667-2 1.5-2 2.031 0 1.961-4.609-.082-5.393-2.244-.861-2.288-.826-1.711 1.381.337 1.288-.078 2.217-1.177 2.639-1.205.462-1.352.865-.507 1.387 1.265.782.451 4.986-.965 4.986-1.132 0-2.062-5.268-1.387-7.851.404-1.544.107-2.149-1.054-2.149-1.425 0-2.347 4.38-1.735 8.25.065.413-.332.75-.882.75-1.439 0-1.234 2.739.25 3.338.747.301.545.536-.5.583-.962.043-1.786.867-1.829 1.829-.051 1.137-.262 1.292-.602.443-.288-.719.029-4.24.706-7.823 1.527-8.097-.082-10.968-1.851-3.303m21.076 1.595c-.687.278-1.25 1.353-1.25 2.39 0 1.265-.494 1.696-1.5 1.31-.95-.365-1.5.013-1.5 1.031 0 .884.675 1.607 1.5 1.607s1.5.675 1.5 1.5-.675 1.5-1.5 1.5c-1.111 0-1.5 1.167-1.5 4.5s.389 4.5 1.5 4.5c1.096 0 1.504-1.146 1.515-4.25.012-3.112.275-3.849.985-2.75 1.384 2.142 1.226 6.748-.25 7.303-.729.273-.208.879 1.25 1.452 2.466.97 2.504.908 2.805-4.543.167-3.045-.157-5.811-.722-6.161-.564-.349-.805-1.853-.535-3.342.287-1.585.04-2.709-.596-2.709-.632 0-.821-.837-.452-2 .349-1.1.492-1.964.317-1.921-.174.043-.879.306-1.567.583M156 301.875c0 1.031-.252 3.394-.561 5.25l-.56 3.375 1.525-2.5c1.23-2.016 1.532-2.149 1.561-.691.042 2.154 2.035 1.246 2.035-.927 0-.891-.475-1.206-1.17-.777-.798.493-.957.168-.5-1.023.369-.96.67-2.046.671-2.414 0-.367 2.124-.668 4.719-.668 4.588 0 4.727.089 4.984 3.201.145 1.76-.179 3.475-.72 3.809-.541.334-.984.105-.984-.51s-.5-.809-1.112-.431c-.611.378-1.504.067-1.984-.691-.691-1.09-.877-1.012-.889.372-.008.962.525 1.75 1.185 1.75.933 0 .933.267 0 1.2-1.451 1.451-1.6 3.165-.2 2.3 1.353-.836 1.202.507-.377 3.355-1.821 3.284-.921 7.338 1.543 6.948 1.678-.266 2.842-1.938 1.196-1.718-1.003.135-2.288-2.396-1.7-3.347.291-.472 1.147-.043 1.902.952 1.298 1.712 1.374 1.693 1.404-.357.018-1.191-.521-2.351-1.197-2.576-.9-.3-.76-1.124.523-3.083.964-1.471 1.404-2.681.979-2.689-.425-.009-.323-.346.227-.75s1.857-2.272 2.905-4.151c1.643-2.948 1.682-3.331.282-2.794-.893.342-1.865.231-2.161-.248-.296-.479.027-1.099.718-1.378.691-.278-2.232-.542-6.494-.585-6.939-.071-7.75.117-7.75 1.796m136.363 3.903c.265.428-2.634.603-6.441.387l-6.922-.391v4.113c0 2.262.4 4.113.889 4.113s.868.563.842 1.25c-.126 3.393.368 4.649 1.638 4.162.823-.316 1.593.334 1.932 1.63.459 1.756.205 2.062-1.369 1.651-1.742-.456-1.931.05-1.918 5.151.017 7.273.817 10.139 2.853 10.226 1.263.055 1.18.265-.367.93-1.548.665-1.63.875-.367.93.93.04 1.845 1.172 2.123 2.628.346 1.813.113 2.414-.801 2.063-.709-.272-1.536.149-1.838.936-.399 1.039.536 1.604 3.417 2.064 3.537.566 6.155 3.751 2.716 3.304-2.786-.361-3.75.172-3.75 2.075 0 1.876-.728 2.011-11.75 2.183-6.462.1-12.893.112-14.289.025-1.874-.117-2.578.36-2.688 1.823-.13 1.719.431 1.959 4.248 1.814 2.419-.091 4.165-.544 3.88-1.006-.742-1.199.307-1.036 2.643.411 1.637 1.014 2.176.994 2.862-.107.561-.901 1.064-1 1.501-.293.361.584 1.323.807 2.138.494.814-.312 2.15-.012 2.968.667 1.177.976 1.487.977 1.487.002 0-.819 1.173-1.095 3.5-.823 2.496.291 3.5.015 3.5-.962 0-1.845 2.241-3.981 3.675-3.503.636.212 1.368-.427 1.625-1.42.43-1.659.477-1.663.584-.055.144 2.17 2.116 2.342 2.116.184 0-.861-.466-2.436-1.035-3.5-1.071-2-.911-2.093 3.785-2.194 2.851-.061 5.161 1.327 4.608 2.77-.369.961.1 1.183 1.648.778 2.708-.708 3.598-2.855 1.988-4.795-.677-.815-.998-2.368-.715-3.451.283-1.083-.114-2.49-.882-3.128-1.158-.96-1.397-.452-1.397 2.964 0 4.206-.722 5-2.727 2.995-.744-.744-.821-1.932-.225-3.5.644-1.694.552-2.382-.323-2.405-.715-.018-.492-.588.536-1.368 1.524-1.157 1.566-1.499.31-2.541-1.517-1.259-1.027-4.459.534-3.494.492.304.895.028.895-.613s.663-.912 1.474-.601c.812.312 1.92-.2 2.469-1.143.568-.973 1.009-1.171 1.027-.458.016.688.705 1.25 1.53 1.25.825 0 1.545.563 1.6 1.25.055.688.46.125.9-1.25.715-2.231.811-2.097.9 1.25.055 2.063.079 4.087.054 4.5-.025.413-1.127.608-2.449.435-2.246-.294-2.344-.112-1.507 2.807.492 1.718.618 3.846.279 4.729-.41 1.069-.225 1.365.553.884.644-.398 1.17-2.095 1.17-3.771 0-2.155.397-2.895 1.356-2.528 1.506.578 4.568-4.945 4.762-8.59.094-1.752.278-1.588.882.784.724 2.846.769 2.788.882-1.15.116-4.086.067-4.147-3.132-3.914-4.721.345-7.283-2.693-5.091-6.038 1.482-2.263 1.455-2.398-.485-2.398-1.131 0-2.341.462-2.69 1.027-.349.564-1.337.902-2.196.75-1.622-.288-2.219 1.353-2.512 6.914-.131 2.468-.715 3.328-2.58 3.796-1.919.482-2.316 1.107-1.942 3.059.307 1.61.011 2.454-.861 2.454-.752 0-1.088-.631-.773-1.452.306-.799.278-1.904-.063-2.456-.968-1.567-3.675-.049-3.349 1.877.161.948-.326 2.468-1.081 3.377-1.184 1.427-1.141 1.654.31 1.654.924 0 1.403.45 1.063 1-.34.55.153 1 1.096 1 1.546 0 1.565.171.189 1.75-.838.962-1.729 2.413-1.979 3.223-.283.917-.879.256-1.578-1.75-.74-2.121-.776-3.223-.105-3.223.561 0 .397-.623-.364-1.384-1.496-1.496-1.207-8.616.35-8.616.49 0 .891-.675.891-1.5 0-.933.944-1.5 2.5-1.5 1.375 0 2.5-.45 2.5-1s-1.536-1-3.413-1c-3.278 0-3.394-.128-2.952-3.25.777-5.491 1.179-6.149 2.889-4.73 1.169.97 1.241 1.559.324 2.663-.921 1.11-.807 1.786.524 3.117 1.492 1.492 1.818 1.516 2.664.2.801-1.247 1.068-1.12 1.581.75.854 3.118 2.218 2.837 1.612-.332-.368-1.928-.967-2.458-2.36-2.094-1.027.269-2.119.08-2.427-.418-.308-.498 1.154-.938 3.249-.976 2.952-.055 3.359-.252 1.809-.875-1.1-.443-2.337-.609-2.75-.371-.413.239-.75.006-.75-.517 0-.522 1.238-1.279 2.75-1.682 1.512-.402 2.188-.939 1.5-1.192-.687-.253-1.25-1.997-1.25-3.876 0-3.509.908-4.013 6.25-3.469.962.098 1.75-.346 1.75-.986 0-.765-1.54-1.041-4.5-.805-2.475.196-4.5.017-4.5-.4 0-.416-.927-.757-2.059-.757-1.132 0-1.843.35-1.578.778m115.774 9.116c-1.151.729-1.151.959 0 1.476.75.336.351.36-.887.053-2.389-.592-2.312-.79-2.668 6.818-.096 2.058-.884 4.308-1.751 5-1.339 1.07-4.34 7.911-3.586 8.171.14.048 1.155.538 2.255 1.088 1.1.55 3.688.86 5.75.69l3.75-.311V325.94c0-11.838-.227-12.716-2.863-11.046m-186.464 9.356c.095 1.787.208 4.488.25 6 .086 3.058 1.676 3.724 2.388 1 .344-1.317.486-1.193.573.5.071 1.385-.461 2.25-1.384 2.25-.884 0-1.506.923-1.515 2.25-.009 1.238-.426 2.899-.928 3.692-.625.987-.395 1.822.727 2.642 1.282.937 1.384 1.508.469 2.611-.969 1.168-.549 1.429 2.444 1.513 2.108.06 3.088-.223 2.352-.678-.768-.474-.998-1.614-.589-2.905.853-2.688 2.54-2.771 2.54-.125 0 1.1.563 1.887 1.25 1.75.688-.138 1.138.313 1 1-.143.716.753 1.25 2.101 1.25 1.293 0 3.855.525 5.695 1.166 2.314.807 3.452.839 3.697.106.483-1.449 4.257-.352 4.257 1.238 0 .702.675 1.535 1.5 1.852.825.316 1.5.139 1.5-.393 0-.533-.338-.968-.75-.967-.412.001-.525-6.3-.25-14.002l.5-14.004-8.687.002-8.686.002-.424 2.75c-.334 2.173-.39 2.069-.264-.5.153-3.114.004-3.25-3.57-3.25-3.073 0-3.806.396-4.163 2.25l-.434 2.25-.136-2.25c-.075-1.238-.474-2.25-.886-2.25-.412 0-.672 1.462-.577 3.25m-71.536 1.644c-.936.593-1.004.984-.219 1.245.856.286.86 1.2.016 3.621-1.286 3.688-1.17 3.646-5.588 2.048-4.216-1.524-4.552-1.092-2.893 3.73l1.364 3.962.441-3c.438-2.971.444-2.967.592.417.129 2.945 1.411 3.668 1.775 1 .309-2.265.624-2.245 1.291.083.395 1.375.397 3.962.006 5.75-.414 1.892-.313 3.25.242 3.25.525 0 .676.45.336 1s-.106 1 .52 1c.716 0 .924-1.022.561-2.75-.844-4.02.448-5.229 6.333-5.926 3.489-.413 5.468-1.163 5.869-2.224.333-.88 1.247-2.249 2.031-3.042 1.237-1.249 1.328-.85.688 3-.406 2.443-1.135 4.592-1.62 4.775-1.47.556-.987 2.167.649 2.167 2.015 0 3.119 2.981 1.479 3.994-.857.529-1.043 1.737-.564 3.647.688 2.741.774 2.778 2.135.917 1.235-1.688 1.419-1.72 1.419-.249 0 1.96 3.022 2.269 4.8.491.933-.933 1.2-.933 1.2 0 0 .66.664 1.2 1.475 1.2 1.116 0 1.324-.754.855-3.101-.759-3.792.811-5.025 5.456-4.286 5.036.8 9.214-.42 9.214-2.692 0-1.057.477-1.921 1.059-1.921s.783.446.446.992-.153 1.783.41 2.75c.566.971 1.038 1.198 1.055.508.016-.687.705-1.25 1.53-1.25 2.5 0 1.68-2.106-1.25-3.21-2.539-.957-2.724-1.397-2.416-5.722.239-3.365-.113-5.055-1.25-5.999-1.079-.894-1.624-.956-1.709-.191-.288 2.589-.41 2.991-1.125 3.705-.412.413-.764-.112-.782-1.166-.03-1.838-.088-1.842-1.404-.107-.867 1.144-1.613 1.42-2.027.75-.965-1.561-2.537-1.289-2.537.44 0 .825-.477 1.5-1.059 1.5s-.8-.419-.484-.931c.317-.512.068-1.245-.552-1.628-.621-.383-1.521-.077-2.001.681-.633.998-.878 1.033-.889.128-.011-.911-2.59-1.25-9.515-1.25-9.158 0-9.503.081-9.59 2.25-.069 1.719-.314 1.475-1.038-1.036-.581-2.015-1.378-3.019-2.062-2.597-.782.484-.948-.55-.557-3.464.571-4.262.25-4.758-2.116-3.259m-62.532 20.694c-.333.866-.605 5.831-.605 11.033v9.456l3.841 4.119c2.299 2.464 4.314 3.826 5.017 3.392 1.661-1.027.429-2.566-2.167-2.706-1.626-.088-1.417-.286.809-.768 2.759-.598 3-.991 3-4.883 0-2.329.323-4.233.719-4.232.395 0 .459-.674.143-1.499-.317-.825-1.258-1.5-2.091-1.5-1.298 0-1.318.243-.143 1.687 1.208 1.485 1.153 1.605-.46 1-1.007-.378-2.02-.687-2.25-.687-1.278 0-.142-3.165 1.332-3.708 3.128-1.154 4.696-7.28 2.25-8.792-.55-.34-1-.217-1 .274 0 .49-1.013.779-2.25.642a5088.09 5088.09 0 01-3-.333c-.412-.045-.75-.731-.75-1.524 0-2.116-1.693-2.802-2.395-.971m229.41 6.739c-.012 1.428-.724 1.787-3.265 1.648-1.788-.098-8.312-.132-14.5-.076-11.006.099-11.247.15-11.134 2.351.086 1.666.234 1.8.57.517.451-1.72 5.314-2.223 5.314-.549 0 1.771-4.181 4.782-6.64 4.782-2.855 0-5.442 2.623-4.642 4.708.745 1.942 5.058 1.588 5.593-.458.435-1.664.463-1.664.573.003.105 1.59 1.113 1.702 10.866 1.216 5.913-.295 11.517-.551 12.453-.569 1.901-.035 3.146-2.827 2.274-5.099-.312-.814.149-2.075 1.025-2.803 1.267-1.051 1.328-1.49.295-2.144-.91-.578-.651-.828.87-.839 1.191-.008 2.343.516 2.56 1.165.227.682 1.138.894 2.157.503 2.345-.9 1.64-4.183-.898-4.183-1.092 0-2.317-.45-2.721-1-.41-.559-.741-.194-.75.827m-143.265 3.42c-9.521.256-11.75.595-11.75 1.785 0 .807.761 1.468 1.691 1.468 1.472 0 1.439.184-.248 1.418-1.067.78-1.683 1.676-1.369 1.99.315.314 1.551-.342 2.749-1.458 1.197-1.115 2.177-1.56 2.177-.989 0 1.613 2.715 1.223 3.37-.484.517-1.346.986-1.355 4.049-.075 1.906.796 3.603 1.045 3.773.553.169-.492 2.912-.978 6.095-1.08 3.183-.102 6.053-.616 6.378-1.142.726-1.174-1.619-2.775-3.665-2.503-.825.11-6.787.343-13.25.517m151.196 17.307c-.795.504-2.657.922-4.137.931-1.48.008-2.969.465-3.309 1.015-.34.55.057 1 .882 1 1.967 0 2.779 1.416 1.991 3.472-.546 1.421-1.035 1.268-3.504-1.097-1.898-1.819-2.874-2.263-2.884-1.312-.013 1.211-.184 1.201-1.087-.063-.825-1.155-.906-.925-.354 1 .395 1.375 1.038 5.425 1.429 9 .392 3.575.783 5.967.87 5.317.086-.651 2.407-3.494 5.157-6.317 4.307-4.422 4.85-5.412 3.919-7.152-1.454-2.717-.12-3.844 1.663-1.405.78 1.066 1.418 1.435 1.418.82 0-.616.686-1.806 1.524-2.644 1.923-1.923-1.131-4.113-3.578-2.565m-134.194 9.196c-.532 1.35-1.896 1.76-5.971 1.794-6.936.058-15.281 2.279-15.281 4.067 0 .849.84 1.273 2.16 1.091 1.538-.212 3.256 1.013 5.962 4.25 4.498 5.382 4.408 5.36 6.581 1.542l1.704-2.994h-2.918c-1.862 0-3.293-.7-3.954-1.934-1.391-2.599-1.366-2.649 1.215-2.516 3.804.197 6.75 1.514 6.75 3.017 0 1.801.966 1.773 3.441-.099 1.693-1.28 1.725-1.468.25-1.468-.93 0-1.691-.439-1.691-.975 0-.625.958-.611 2.663.037 1.816.69 2.993.682 3.7-.025.57-.57.667-1.037.215-1.037-.453 0-.263-.675.422-1.5 1.051-1.267.848-1.5-1.304-1.5-1.627 0-2.677-.633-2.902-1.75-.336-1.667-.386-1.667-1.042 0m-57.577 28.918c-.333 5.076-1.116 5.934-4.791 5.244-2.279-.427-3.384-.253-3.384.536 0 .643.45.892 1 .552.55-.34 1-.141 1 .441s1.125 1.059 2.5 1.059c1.69 0 2.521.567 2.563 1.75.049 1.341.275 1.224.968-.5.948-2.358 6.969-3.379 6.969-1.183 0 .597.845.8 1.915.46 2.145-.681 7.266.333 6.717 1.33-.194.354.238 1.993.962 3.643l1.316 3 .045-2.75c.025-1.512.383-2.697.795-2.632 3.497.553 16.25-.325 16.25-1.118 0-.55-2.277-1-5.059-1-3.569 0-4.849-.34-4.346-1.155.426-.689.276-.884-.371-.483-.597.369-1.368.213-1.714-.346-.345-.559-1.078-1.016-1.628-1.016-.55 0-.736.427-.413.95.323.522-.298 1.423-1.38 2.003-1.306.698-2.176.715-2.587.05-.341-.552-.143-1.003.439-1.003s.272-.812-.691-1.805c-.963-.993-1.975-1.51-2.25-1.15-.275.36-3.511.745-7.19.855l-6.69.202-.385-4.301c-.212-2.366-.464-3.1-.56-1.633M298.5 429c-.34.55-1.547 1-2.681 1-1.721 0-1.857.249-.819 1.5.752.906.833 1.5.206 1.5-.572 0-1.216-.53-1.432-1.177-.246-.738-.914-.855-1.79-.313-.768.475-3.442.968-5.941 1.095-2.498.128-5.668.69-7.043 1.25l-2.5 1.018 3 .22c1.65.121 4.681.204 6.735.183 2.055-.02 3.505.336 3.222.793-.812 1.314 2.97 2.903 4.563 1.918a2.31 2.31 0 012.696.193c1.997 1.657 1.52 2.82-1.157 2.82-1.896 0-4.795 1.775-3.368 2.062 2.857.575 8.729.644 6.809.08-1.94-.569-2.143-.871-.909-1.346.875-.336 2.044-.315 2.598.047 1.585 1.033 1.148 4.141-.606 4.309-.871.084-2.033.257-2.583.385-.55.128-2.312.284-3.917.348-5.363.212-1.894 1.218 4.302 1.247 3.363.017 6.115.381 6.115.81 0 .429 1.173.556 2.606.282 1.6-.305 2.946.038 3.485.889.632.998.883 1.036.894.137.008-.687.492-1.25 1.074-1.25.582 0 .794.429.47.953-.353.571 2.321.93 6.691.897 4.004-.031 8.784.553 10.623 1.297 3.186 1.29 3.445 1.224 5.537-1.397 1.875-2.349 2.991-2.772 7.658-2.9 3.004-.082 4.224-.337 2.712-.566-1.512-.229-2.75-.741-2.75-1.138 0-1.221 3.917-1.09 4.688.158.464.751.977.277 1.42-1.314l.693-2.49.099 2.719c.075 2.049.49 2.569 1.684 2.11 1.279-.49 1.327-.776.25-1.484-.79-.518 1.318-.63 5.166-.273 3.575.331 8.415.161 10.756-.38 3.905-.901 6.928-.037 4 1.144-.691.278-.168.542 1.161.585 1.329.043 2.132-.205 1.785-.552-.347-.348-.182-1.473.368-2.5.903-1.686.581-1.876-3.285-1.939-5.431-.089-9.986-1.752-5.094-1.86 1.755-.038 3.457-.5 3.782-1.026.325-.526 1.174-.733 1.887-.46 2.236.859 7.337-1.531 5.606-2.626-1.134-.717-.911-.931.984-.943 1.856-.011 2.169-.296 1.292-1.173-.872-.872-1.498-.874-2.542-.008-.838.696-3.91 1.006-7.792.788-3.796-.214-5.593-.038-4.408.431 1.187.47-1.768.763-7.268.72-5.097-.039-9.559.221-9.916.578-.357.357.213.656 1.267.664 1.604.013 1.672.174.417.985-.825.533-2.625.945-4 .914-2.209-.048-2.272-.144-.543-.82 2.573-1.006-4.21-2.207-8.812-1.56-2.337.329-1.989.058 1.352-1.054 2.829-.941 4.622-1.122 4.834-.488.184.554.734 1.008 1.221 1.008 2.392 0-.639-2.938-3.387-3.283-3.012-.378-2.984-.405.585-.557 2.063-.088 3.75.23 3.75.706 0 .916 7.638-.171 8.706-1.239 1.221-1.22-.257-1.444-4.456-.674-2.337.428-4.25.412-4.25-.037 0-.448-3.142-.669-6.982-.49-4.613.215-6.766-.024-6.346-.705.367-.594.148-.728-.517-.316-.647.399-1.162.137-1.17-.596-.01-.845-.276-.937-.75-.259-.404.578-2.874 1.131-5.487 1.229-4.827.181-10.183 2.708-9.18 4.33.302.49-.152.891-1.009.891-1.961 0-1.959-.458.012-2.429 1.429-1.428 1.406-1.57-.25-1.557-3.369.025-6.304 1.205-5.646 2.27.413.667.011.809-1.093.386-.96-.369-2.635-.67-3.723-.67-1.087 0-1.699-.45-1.359-1 .34-.55.168-1-.382-1s-1.278.45-1.618 1c-.779 1.261-2.5 1.307-2.5.067 0-.513.9-1.218 2-1.567s2-1.054 2-1.567c0-1.24-1.721-1.194-2.5.067m83.328 16.128c-.73.463-.904.848-.387.857.518.008.234.578-.63 1.265-.864.688-1.859 2.488-2.21 4-.601 2.585-.436 2.75 2.755 2.75 5.317 0 9.644-1.13 9.644-2.518 0-.697.675-1.527 1.5-1.844.825-.316 1.5-1.65 1.5-2.964 0-2.224-.373-2.388-5.422-2.388-2.982 0-6.02.379-6.75.842m-102.227 5.076c-.979.547-2.775.805-3.993.572-3.712-.71-5.447 2.126-2.674 4.371l2.288 1.853-2.361.07c-1.299.039-3.261.487-4.361.997-1.824.845 2.479.536 8.75-.627.962-.179 1.75.154 1.75.74 0 .717.449.693 1.373-.075.756-.627 2.179-.83 3.164-.452 1.149.44 1.555.305 1.133-.378-.362-.586.078-1.348.979-1.694 2.85-1.093.945-1.504-2.927-.631-2.148.484-3.722.461-3.722-.055 0-.492-1.238-.934-2.75-.981l-2.75-.086 2.987-.891c6.753-2.014 14.63.729 10.691 3.724-1.434 1.09-.972 1.28 3.179 1.307 3.835.025 4.74-.272 4.302-1.415-.417-1.085.616-1.615 4.143-2.124 2.584-.373 5.373-1.058 6.198-1.523 1.744-.983 1.989-.935-7.5-1.461-6.701-.372-13.358-1.177-15.023-1.815-.604-.232-1.898.026-2.876.574M373 455.431c0 .794 2.146 1.088 6.75.925 6.53-.231 6.604-.207 2.25.723-2.475.529-6.975 1.176-10 1.437-5.479.474-5.489.47-2.5-1.065l3-1.542-3.992.522c-2.196.287-4.146.982-4.333 1.545-.188.563-1.204 1.024-2.258 1.024-1.138 0-1.917.691-1.917 1.7 0 1.322.267 1.433 1.2.5 1.452-1.452 7.437-1.596 8.3-.2.342.554-.412 1.014-1.691 1.032-2.246.031-2.256.072-.368 1.5 1.257.95 1.462 1.468.583 1.468-.746 0-1.057.301-.689.668.367.368 1.763.082 3.101-.634s3.363-1.058 4.5-.761c1.308.342 1.826.151 1.411-.521-.371-.6-.184-.77.429-.39.597.369 1.331.274 1.631-.212.3-.485 1.794-.733 3.319-.552 1.526.182 2.011.093 1.079-.197-2.4-.746-1.077-3.401 1.695-3.401 1.857 0 4.32-2.643 3.274-3.514-1.184-.985-14.774-1.035-14.774-.055m-56.269 1.382c-2.458.474-2.145 1.968.519 2.481 1.971.38 1.916.451-.441.57-1.48.075-2.969-.314-3.309-.864-.826-1.336-5.21-1.279-6.049.079-.429.695-2.453.833-5.687.389-3.577-.492-4.822-.371-4.333.421.378.611 2.085 1.111 3.795 1.111 1.709 0 2.883.224 2.608.499-1.082 1.082-9.759 2.164-11.007 1.373-.981-.622-.819-.845.623-.857 1.444-.011 1.658-.307.826-1.139-.782-.782-1.985-.826-3.95-.144-1.554.539-3.648.689-4.653.334-1.005-.356-3.41-.462-5.344-.236-3.096.362-3.461.698-3.056 2.815.379 1.983.132 2.301-1.41 1.812-2.043-.649-4.743 1.404-4.157 3.16.206.618-.854 1.118-2.42 1.142-1.532.024-4.024.365-5.536.759-2.161.562-2.75.369-2.75-.901 0-.89.788-1.624 1.75-1.632.962-.009 2.376-.412 3.141-.896.853-.54-1.276-.745-5.5-.529l-6.891.353 6-.999c3.3-.549 7.462-.783 9.25-.519 1.788.263 3.25.058 3.25-.458 0-.515.675-.937 1.5-.937s1.5-.639 1.5-1.42c0-1.492-11.509-3.332-14.175-2.267-.729.291.7.617 3.175.724 2.475.107 3.647.413 2.605.68-1.523.39-1.621.659-.5 1.369 1.995 1.263-1.169 1.22-4.54-.061-1.411-.537-2.565-.581-2.565-.098s-1.35 1.348-3 1.923-3 .789-3 .476c0-.314-.604-.07-1.342.543-.738.612-1.638.818-2 .456-.362-.362-.658-.133-.658.508 0 .725 1.988 1.214 5.25 1.292l5.25.125-5.47.792c-3.008.436-6.189.408-7.068-.063-.88-.47-2.468-.727-3.531-.571-1.062.157-2.479-.434-3.149-1.312-.801-1.048-1.229-1.167-1.25-.346-.018.688-.707 1.25-1.532 1.25-.825 0-1.5.675-1.5 1.5s.546 1.5 1.214 1.5c.828 0 .739.475-.279 1.494-1.131 1.13-2.259 1.274-4.646.589-2.292-.657-3.648-.528-4.97.475-1.741 1.319-1.733 1.383.181 1.489 1.1.061 1.438.338.75.615-3.221 1.3-.656 1.926 4.823 1.176 3.78-.516 6.776-.454 7.934.166 1.024.548 2.791.996 3.927.996 1.136 0 2.066.506 2.066 1.125 0 .738-1.119.898-3.25.467-1.787-.362-5.95-.873-9.25-1.134-5.363-.425-5.721-.342-3.372.783 1.445.693 2.648 1.608 2.675 2.034.129 2.111.982 2.742 4.197 3.106 5.438.615 5.631.703 3.5 1.619-1.529.657-.941.88 2.5.945 3.291.063 4.097.346 3 1.055-1.132.731-.641.989 2 1.048 2.847.064 3.121.232 1.469.902-1.116.453-3.141.707-4.5.566-1.358-.141-5.503-.576-9.212-.965-5.368-.564-7.049-.401-8.25.799-1.995 1.995-2 5.053-.007 4.288.825-.316 1.5-.139 1.5.393 0 .533-.546.969-1.214.969-.748 0-.543.672.536 1.75 1.245 1.244 1.957 1.416 2.466.593.393-.636 2.289-1.608 4.214-2.16l3.498-1.003-4-.153c-3.459-.133-3.694-.277-1.737-1.063 2.933-1.179 8.237-.109 8.237 1.661 0 .756.563 1.42 1.25 1.475.688.055.125.46-1.25.9l-2.5.801 2.5.144c2.464.143 2.456.165-.5 1.519l-3 1.374 4.715.081c2.593.044 6.765-.615 9.27-1.466 2.506-.85 4.955-1.299 5.443-.998.488.302 1.941.127 3.23-.39 2.172-.87 2.088-.955-1.158-1.165-2.677-.173-2.207-.364 2-.813 4.729-.505 5.545-.902 5.82-2.837.175-1.238.963-2.25 1.75-2.25.786 0 1.43-.45 1.43-1s-.562-1.007-1.25-1.015c-.833-.011-.75-.339.25-.985 1.333-.862 1.333-.973 0-1-.975-.02-1.115-.288-.399-.765.606-.404 1.336-2 1.623-3.547.471-2.535.264-2.792-2.101-2.607-1.443.114-3.462-.151-4.487-.588-1.722-.734-2.913-.901-9.508-1.336-1.917-.127-2.149-.427-1.209-1.56.894-1.077.865-1.529-.127-1.947-.711-.299.564-.294 2.832.011 2.75.37 4.383.137 4.899-.698.603-.976-.805-1.14-6.374-.742-3.932.282-7.149.221-7.149-.135 0-.355-2.05-.603-4.555-.551-4.882.103-6.749-.986-3.474-2.026 2.03-.644 20.294.156 25.22 1.106 2.866.552 6.789-1.026 8.109-3.261.514-.87 2.658-1.343 6-1.322l5.2.031-2.806 2.469c-1.543 1.357-2.382 2.468-1.864 2.468 1.642 0 6.347-2.767 5.491-3.229-.452-.244-.235-.297.481-.119.716.179 1.045-.09.732-.597-.314-.507.676-.787 2.198-.622 3.779.41 5.922-.403 4.102-1.557-.879-.557-.139-.861 2.166-.892 1.925-.026 4.31-.662 5.299-1.412 1.456-1.104 2.7-1.142 6.5-.2 2.586.641 6.726.924 9.201.628l4.5-.538-3.971-.818c-3.503-.721-3.745-.944-2.053-1.891 1.398-.782 2.022-.759 2.304.087.472 1.415 7.22 1.564 7.22.16 0-.55-.788-1.045-1.75-1.1-1.377-.078-1.301-.238.355-.75 1.951-.602 1.876-.761-1.019-2.16-1.718-.83-3.903-1.36-4.855-1.177M201 463.5c0 .884-.923 1.506-2.25 1.515-2.907.02-5.783 1.921-4 2.644.688.279 1.25 1.12 1.25 1.868s1 2.06 2.223 2.916c1.826 1.28 1.915 1.557.5 1.557-2.664 0-2.035 1.884.872 2.613 1.927.484 2.249.874 1.25 1.518-.838.539-.025.683 2.155.381 2.937-.407 3.098-.342 1 .402-1.58.56-1.886.923-.832.986.918.055 2.385.375 3.262.711 1.123.432 1.425.176 1.025-.868-.359-.934.173-1.674 1.44-2.005 1.105-.289 2.163-.064 2.351.501.551 1.651 4.49-.121 5.052-2.272.283-1.082 1.295-1.967 2.248-1.967 1.752 0 4.364-2.658 4.422-4.5.018-.55-1.318-1-2.968-1s-3 .314-3 .698c0 .384-1.393.212-3.096-.381-2.273-.793-2.738-1.307-1.75-1.933 1.423-.902-.658-1.325-4.513-.918-1.11.118-1.59-.239-1.191-.885.404-.654-.243-1.087-1.641-1.096-1.858-.013-2.016-.205-.809-.985 1.213-.784 1.069-.972-.75-.985-1.34-.009-2.25.592-2.25 1.485m121.527 4.456c-.325.526-1.165.736-1.867.467-.702-.27-2.293.391-3.534 1.468-2.026 1.757-2.583 1.82-5.442.614-2.85-1.202-3.573-1.124-6.901.742l-3.717 2.084.008 11.835c.008 10.464.206 11.842 1.717 11.904 1.44.06 1.405.19-.225.828-1.063.416-1.509 1.019-.991 1.339 1.435.887 10.265 1.256 11.059.462.385-.384 2.874-.699 5.533-.699 4.674 0 4.833-.096 4.833-2.921 0-2.433-.501-3.03-3.009-3.581-1.674-.368-2.729-1.113-2.378-1.68.401-.65-1.135-.936-4.242-.79-2.679.127-5.996.14-7.371.031-4.622-.369.904-1.911 7.125-1.989 10.277-.128 11.738-.744 10.872-4.583-.411-1.822-.524-6.278-.251-9.9.469-6.228.127-7.808-1.219-5.631m33.141 2.166c-1.007.588-2.694.843-3.75.567-1.055-.276-1.918-.094-1.918.405 0 .498-1.913.977-4.25 1.063l-4.25.157 5 .686c2.75.377 4.438.756 3.75.843-.687.086-1.25.832-1.25 1.657 0 .825-.562 1.507-1.25 1.515-.687.008-.14.576 1.216 1.262 2.157 1.092 2.43 1.821 2.184 5.835l-.283 4.586 6.817.772c12.391 1.403 12.779 1.354 13.125-1.643.245-2.119-.169-2.764-2-3.114l-2.309-.441 2.25-.136c1.238-.075 2.25-.763 2.25-1.529 0-.766.675-1.652 1.5-1.969 2.578-.989 1.64-2.638-1.5-2.638-1.65 0-3-.392-3-.872s-1.913-1.223-4.25-1.652c-2.337-.429-4.587-.881-5-1.003-.413-.123-1.2-.279-1.75-.348-.55-.069-1-.741-1-1.494 0-1.002 1.048-1.248 3.911-.917 2.151.249 4.905-.08 6.12-.731 1.734-.928 2.047-.918 1.45.047-.492.796-.27 1.065.63.762.764-.257 1.988.247 2.721 1.12 1.197 1.428 1.274 1.407.766-.2-.388-1.23.133-2.072 1.669-2.697 1.54-.627.371-.751-3.767-.4-8.666.733-8.853.735-10.5.056-.825-.339-2.324-.136-3.332.451m-75.482 10.987c-1.273.481-2.034 1.328-1.691 1.883.343.554.214 1.008-.286 1.008s-.991 2.7-1.09 6l-.18 6 7.281.106c6.363.093 6.93.245 4.501 1.204-1.618.638-2.571 1.638-2.281 2.393.273.713.323 1.297.11 1.297-.212 0-1.15.293-2.084.651-1.338.514-1.566.239-1.076-1.304.534-1.684.094-1.986-3.178-2.18-3.684-.217-3.807-.117-4.037 3.305-.206 3.063.063 3.535 2.044 3.58l2.281.053-2.25 1.569c-3.226 2.251-3.269 8.405-.054 7.564 2.031-.531 2.055-.624.317-1.234-2.833-.993-.571-1.755 4.391-1.478 3.396.19 4.679.761 5.607 2.495.782 1.461 1.45 1.852 1.906 1.114.385-.624.38-1.135-.013-1.135s.131-.934 1.164-2.075c1.86-2.055 1.853-2.069-.736-1.419-1.438.361-2.885.217-3.217-.32-.767-1.241 1.907-2.306 3.885-1.548 1.041.4 1.5-.069 1.5-1.531 0-1.159-.562-2.114-1.25-2.122-.774-.01-.869-.295-.25-.75 2.115-1.554 1.655-4.088-.633-3.49-1.497.391-1.956.207-1.464-.587.393-.637 1.476-1.165 2.406-1.173 1.336-.012 1.405-.197.328-.879-.808-.512-.94-1.015-.324-1.235.571-.204 1.356-1.647 1.743-3.206.593-2.391.409-2.803-1.176-2.635-5.246.558-14.807-.254-11.88-1.009 1.65-.425 3.788-1.102 4.75-1.504.981-.41 1.75-.295 1.75.26 0 .545 1.462.876 3.25.737 3.581-.28 5.067-3.034 2.057-3.814-1.659-.43-1.663-.478-.057-.584 1.118-.074 1.75-.935 1.75-2.382 0-2.078-.476-2.275-5.75-2.382-3.163-.064-6.791.276-8.064.757m60.131.275c.477 1.243-.006 1.617-2.098 1.62-3.18.004-10.015 3.862-8.564 4.833 1.385.927 2.471 4.163 1.397 4.163-.487 0-1.112-.562-1.39-1.25-.278-.69-.574-.354-.66.75a43.85 43.85 0 01-.51 3.889c-.611 3.245 1.546 4.446 5.259 2.931 3.14-1.281 4.785-3.123 1.749-1.958-.825.316-1.5.139-1.5-.393 0-.533 1.688-.976 3.75-.984 2.617-.011 3.32-.288 2.326-.917-1.072-.678-.701-1.009 1.5-1.335 2.891-.428 2.887-.435-.385-.583-1.921-.087-3.05-.569-2.691-1.15.34-.55.179-1-.358-1-.536 0-1.202.563-1.48 1.25-.312.774-.534.61-.583-.43-.043-.925-1.091-1.9-2.329-2.168-1.238-.268.45-.412 3.75-.32l6 .168.308-3.184c.237-2.447-.202-3.457-1.901-4.366-1.897-1.015-2.122-.953-1.59.434m-132.639 2.319c-1.762.456-1.762.516 0 1.852 1.728 1.31 1.73 1.383.041 1.413-.98.018-2.041.707-2.357 1.532-.678 1.765-3.935 2-4.95.357-.451-.729-1.214-.173-2.11 1.535-.866 1.654-2.539 2.905-4.373 3.272-4.125.825-5.078 2.732-1.071 2.144 1.728-.254 3.142-.118 3.142.302s-1.463.945-3.25 1.167c-2.097.26-1.121.502 2.75.681 4.691.218 5.346.421 3 .932-1.65.359-2.55.936-2 1.283 1.6 1.009 8.446.724 9.128-.38.411-.666.843-.649 1.275.05.359.58 3.747 1.373 7.529 1.76 5.09.522 6.691.405 6.163-.449-.392-.635-2.599-1.207-4.904-1.273l-4.191-.119 5-1.232c4.159-1.025 4.58-1.319 2.5-1.745-2.284-.468-2.236-.524.55-.649 5.345-.238 7.826-5.05 2.7-5.236l-2.75-.099L222 490c2.387-.765 2.356-.805-.691-.9-1.755-.055-3.469.35-3.809.9-.907 1.468-3.424 1.219-5.152-.509-.83-.83-1.923-1.254-2.429-.941-.505.312-.919.091-.919-.491 0-1.343 2.678-1.388 3.5-.059.34.55 1.604.955 2.809.9 2.04-.092 2.018-.155-.309-.9-2.217-.71-2.069-.812 1.309-.9 4.422-.116 4.13-2.1-.309-2.1-1.585 0-3.16-.45-3.5-1-.64-1.036-1.71-1.102-4.822-.297m185.06 34.892c-.327.327-7.558.665-16.069.75-8.511.085-15.271.486-15.022.89.249.404-.807.538-2.347.297-7.548-1.18-11.135-1.319-14.8-.575-2.891.588-3.283.845-1.417.928 1.421.063 2.868.399 3.216.747.348.348 3.803.607 7.678.577 3.875-.03 6.831.292 6.568.717-.262.425 1.645.773 4.239.774 9.343 0 17.338 1.448 16.118 2.918-.765.922-1.655 1.049-2.854.408-1.128-.604-2.122-.552-2.82.146-.645.645-3.569.899-7.271.631-5.402-.391-5.954-.274-4.332.912 1.634 1.195 1.098 1.337-4.399 1.172-3.442-.103-6.552.105-6.909.463-.358.357 2.012.666 5.266.685 28.871.173 36.42.533 36.891 1.758.374.976.991 1.029 2.511.215 1.312-.702 2.015-.726 2.015-.068 0 .581 1.231.764 2.901.43 1.595-.319 3.733-.097 4.75.494 1.722 1.001 1.695 1.086-.401 1.231-1.238.085-2.7.267-3.25.405a19.21 19.21 0 01-2.191.375c-.655.069-.318.786.75 1.593 2.249 1.701 1.511 1.894-5.92 1.544-2.537-.119-3.633.188-3.197.895.666 1.077 15.602 1.397 18.226.39 1.989-.763 1.648-4.292-.418-4.327-1.667-.029-1.667-.079 0-1.05.962-.561 1.75-2.084 1.75-3.384 0-2.193-.455-2.394-6.25-2.756-3.437-.215-7.038-.751-8-1.192-1.055-.484-1.75-.392-1.75.232 0 .568.788 1.227 1.75 1.464.962.236-1.05.431-4.472.432-3.422.001-5.983-.385-5.691-.857.292-.473 1.431-.859 2.531-.859 3.419 0 1.145-1.698-3.346-2.498l-4.272-.762 3.5-.81c1.925-.446 4.625-.576 6-.29 1.912.399 2.154.28 1.029-.505-.809-.564-1.2-1.297-.869-1.628.331-.331 1.218-.018 1.971.695 1.304 1.236 7.869 2.258 7.869 1.226 0-.271-1.012-.899-2.25-1.397-2.103-.845-2.055-.91.75-.999 2.857-.091 2.908-.165 1.059-1.564-1.921-1.453-7.672-2.022-8.821-.873M326 538.047c-1.925.301-8.521.523-14.659.493-6.137-.029-10.948.287-10.691.703.258.417-.009.757-.591.757a1.063 1.063 0 01-1.059-1.059c0-.582-.483-.761-1.073-.396-.591.365-4.753.674-9.25.688-6.472.019-7.447.195-4.677.844 5.192 1.217 42.114.916 41.339-.337-.416-.674.686-.742 3.266-.203 2.142.447 5.225.746 6.851.662 1.626-.083 3.306.401 3.735 1.075.543.855.783.696.794-.524.017-1.979 1.28-2.214 4.019-.748 1.538.823 1.846.66 1.728-.915-.131-1.734-.914-1.902-8.188-1.752-4.424.091-9.619.411-11.544.712m32.5-.047c-1.1.473-3.238.891-4.75.93-1.747.044-2.75.617-2.75 1.57 0 1.162 1.315 1.5 5.833 1.5 4.591 0 5.834.329 5.834 1.543 0 1.188-.678 1.394-2.952.894-2.234-.49-2.842-.318-2.501.708.602 1.808 2.909 1.877 18.718.564 10.629-.883 13.519-.856 13.847.129.299.895.776.946 1.697.182.903-.75 2.103-.751 4.069-.003 2.056.782 2.981.75 3.52-.122.485-.785 2.113-.962 4.833-.527 2.975.475 4.111.309 4.134-.606.02-.785.534-.6 1.36.488 1.723 2.269 2.608 2.219 2.608-.149 0-2.271-4.946-3.001-17.5-2.581-5.949.198-7.359.021-5.5-.691 4.677-1.793-.472-3.03-12.084-2.902-6.854.075-10.916-.261-10.916-.904 0-1.22-4.681-1.235-7.5-.023" fill="#d3d3d3" fill-rule="evenodd"/></svg>