<svg xmlns="http://www.w3.org/2000/svg" width="500" height="382"><path d="M4 10.044c0 2.344-.402 2.976-1.75 2.75C.779 12.547.452 13.418.2 18.25.027 21.572.317 24 .888 24c.543 0 1.017-.788 1.053-1.75.319-8.471 2.018-10.973 2.151-3.167.051 2.98.243 8.657.427 12.617.406 8.734-.551 12.916-2.861 12.506C.371 43.978 0 44.705 0 47.456 0 49.405.478 51 1.063 51c.584 0 .922-.971.75-2.157-.172-1.186.168-2.322.755-2.523.69-.236 1.044 1.944 1 6.157C3.524 56.663 3.091 59 2.357 59c-.629 0-1.424.731-1.766 1.624C-.401 63.21.043 92 1.075 92 1.584 92 2 90.623 2 88.941c0-1.785.417-2.802 1-2.441 1.221.755 1.343 6.5.138 6.5-.475 0-.651 1.237-.392 2.75.86 5.02 1.212 13.282.395 9.25l-.71-3.5-.642 3c-.392 1.83-.127 3.801.678 5.053.779 1.21 1.341 5.113 1.37 9.5.026 4.096.462 10.147.967 13.447.63 4.109 1.042-14.724 1.308-59.75C6.42 20.609 6.241 7 5.25 7 4.524 7 4 8.276 4 10.044m243.5 54.912c-1.65.349-7.725.558-13.5.464-6.858-.112-10.755.219-11.235.954-.505.774-.739.786-.75.04-.009-.653-2.505-1.124-6.265-1.182-4.15-.063-5.41.153-3.75.643 2.364.698 2.387.768.411 1.296-2.062.55-2.084.883-1.702 25.943.213 13.962.447 26.736.52 28.386.073 1.65-.169 12.184-.538 23.409-.475 14.424-.345 20.803.441 21.75.818.986.816 1.341-.01 1.341-1.315 0-1.431 7.454-.213 13.75.452 2.338.501 4.25.109 4.25-1.205 0-1.097 18.2.116 19.661.762.919.776 1.339.046 1.339-1.067 0-1.009.985.372 6.399.531 2.082.415 2.698-.414 2.186-.86-.531-1.112 4.408-.988 19.351.113 13.686.513 20.086 1.258 20.134.601.039.202.418-.886.843-1.908.746-1.896.816.328 2.007 3.004 1.607 12.407 4.039 13.355 3.453.405-.25 1.026.701 1.381 2.113.505 2.011.936 2.326 1.988 1.452 1.545-1.282 6.801-.394 9.973 1.685 1.423.932 4.895 1.304 11.015 1.181 5.13-.103 10.558.367 12.741 1.103 2.092.706 4.914 1.004 6.272.664 1.713-.43 2.648-.153 3.054.904.792 2.065 3.169 1.917 7.632-.475 2.053-1.1 4.339-2 5.08-2 .742 0 2.165-.902 3.163-2.004 1.556-1.72 7.802-4.265 10.996-4.481.55-.037 1.456-.354 2.014-.705 1.808-1.135 11.835-1.264 12.204-.156.193.58 1.417.852 2.719.603 1.526-.292 3.113.293 4.465 1.645 2.535 2.535 3.123 2.665 4.221.933.68-1.073.852-1.04.877.165.027 1.333.14 1.333 1.015 0 .68-1.035 1.217-1.159 1.735-.398.413.607 3 1.117 5.75 1.134 3.079.02 4.26-.241 3.073-.677-1.786-.658-1.799-.758-.168-1.384 2.53-.971 4.42-.85 2.798.179-1.898 1.203 1.03 3.393 3.976 2.973l2.289-.327-2.435-2.261-2.434-2.261 3.29-1.239c3.377-1.272 3.776-3.465 1.619-8.912-.931-2.349 1.953-1.783 4.423.869 1.866 2.003 4.381 11.99 3.414 13.556-.857 1.385 2.884 2.086 4.787.897 1.028-.641 1.868-.757 1.868-.257s1.525.767 3.388.594c1.863-.173 4.566.296 6.005 1.043 2.52 1.307 2.594 1.267 2.003-1.086-.442-1.761-.202-2.443.857-2.443.967 0 1.343.769 1.1 2.25-.477 2.899 1.284 4.94 5.595 6.488 2.53.908 3.634.939 4.143.115.451-.73 1.083-.396 1.804.951.731 1.366.768 2.286.108 2.694-.552.341-1.003 1.456-1.003 2.478 0 1.021-.562 2.084-1.25 2.362-.687.277-.26.54.95.583 1.21.043 2.659.867 3.22 1.829.561.962 1.04 1.3 1.065.75.077-1.689 1.983 1.885 2 3.75.017 1.952-2.596 2.416-3.212.57-.249-.748-1.103-.892-2.333-.393-1.905.774-1.904.802.06 1.573 1.787.702 1.82.859.311 1.476-1.969.806-7.387-1.507-6.974-2.976.395-1.406-4.178-2.371-5.072-1.07-.437.637-.741.338-.75-.739-.008-.995-.465-1.531-1.015-1.191-.55.34-1 .115-1-.5s-.526-.793-1.17-.395c-.787.486-.961.178-.531-.941.351-.915.24-1.664-.247-1.664s-1.112.563-1.39 1.25c-.298.74-.536.528-.583-.519-.062-1.378-.632-1.63-2.579-1.142-1.597.401-2.5.206-2.5-.54 0-.642-.408-.915-.907-.607-.498.309-.678-.312-.4-1.378.395-1.509.983-1.763 2.657-1.145 1.183.437 2.775.575 3.539.308.848-.297 1.117-.046.691.643-.384.622-.109 1.123.611 1.115 4.751-.056 4.743-5.896-.008-6.1-4.399-.189-6.639.253-7.433 1.468-.546.836-.987.78-1.623-.206-.67-1.039-1.352-1.097-2.934-.25-2.57 1.375-4.513 1.429-3.693.103.34-.55-.084-1-.941-1s-1.559-.45-1.559-1-1.125-1-2.5-1-2.5.42-2.5.934c0 .513-1.238 1.121-2.75 1.35-2.56.387-2.525.427.5.566 1.788.083 3.25-.3 3.25-.85s.45-1 1-1c1.519 0 .753 2.146-1.666 4.666-1.356 1.413-1.969 3.014-1.638 4.281.909 3.475-.455 5.765-2.097 3.52-1.281-1.752-1.381-1.729-2.082.478-.571 1.799-.932 2.009-1.611.937-.621-.981-.88-1.023-.891-.143-.008.681-1.027 1.228-2.265 1.214a79.077 79.077 0 00-4.75.132c-6.425.402-7 .108-7-3.585 0-1.925.168-3.5.374-3.5s2.219.651 4.474 1.446c2.313.817 4.343 1.054 4.658.544.307-.496 1.161-.671 1.898-.388.962.369 1.209-.175.874-1.926-.536-2.806-4.267-2.641-4.293.191-.013 1.395-.151 1.419-.946.162-.512-.809-1.248-1.154-1.636-.766-.388.388-1.2.046-1.804-.762-.605-.807-2.449-1.538-4.099-1.625-5.746-.303-9.614.13-9.068 1.015.303.489-.679 1.696-2.182 2.681-3.137 2.055-10.183 9.5-10.223 10.8-.015.48-.702.313-1.527-.372-1.186-.984-1.5-.986-1.5-.009 0 .818-.93 1.046-2.75.673-11.064-2.266-14.212-2.761-17.639-2.772-2.767-.01-4.416-.645-5.717-2.203-1.005-1.204-1.842-1.626-1.861-.939-.039 1.486-3.646 1.685-4.533.25-.34-.55-1.716-1-3.057-1-1.453 0-4.083-1.549-6.508-3.833-3.255-3.066-5.907-4.354-13.252-6.436-7.708-2.184-28.099-6.731-30.189-6.731-.622 0-.395 35.064.302 46.618l.368 6.117 35.661.015c19.614.009 36.677-.37 37.918-.842 1.371-.522 2.257-.482 2.257.102s8.232.946 21.027.924c15.242-.027 20.837-.344 20.336-1.155-.473-.765-.086-.871 1.223-.335 3.605 1.475 5.727 1.871 5.166.964-.33-.533 8.585-.911 21.593-.916 12.185-.004 23.055-.125 24.155-.267 1.1-.143 6.701-.255 12.446-.25 6.56.006 10.699-.401 11.129-1.096.494-.8.787-.792 1.061.029.427 1.28 2.548 1.394 15.438.827 9.408-.414 11.932-1.107 10.788-2.959-.429-.693-.198-.793.638-.276.921.569 1.069.421.5-.5-.58-.939-.412-1.079.595-.494.773.448 1.08.455.683.016-.397-.44.425-2.164 1.828-3.831l2.551-3.031-.678-115.58c-.372-63.569-.643-116.705-.602-118.08.215-7.187-3.389-10-12.813-10-4.306 0-4.925.243-4.451 1.75.455 1.448.269 1.404-1.079-.25-1.677-2.058-4.961-2.184-7.284-.28-.781.64-1.25.658-1.25.048 0-.537-2.25-.959-5-.936-3.442.028-5 .45-5 1.354 0 .846-.731.583-2.051-.737-1.297-1.297-2.75-1.83-3.951-1.448-3.212 1.019-13.371 1.267-15.748.384-1.292-.48-2.25-.45-2.25.07 0 .498-1.238.596-2.75.218s-24.35-.564-50.75-.413c-65.004.371-70.471.366-71.29-.066-.391-.205-2.06-.088-3.71.262M111 98c-1.375.44-1.937.845-1.25.9.688.055 1.214.887 1.171 1.85-.047 1.045-.282 1.247-.583.5-.7-1.734-2.004-1.562-2.742.361-.443 1.153-.189 1.447.893 1.032 1.919-.737 1.964.736.07 2.308-2.318 1.924-.744 4.058 2.794 3.789 2.915-.222 3.122-.03 2.813 2.604-.286 2.435-.051 2.754 1.632 2.22 1.298-.412 2.173-.082 2.577.97.336.876 1.095 1.294 1.686.928.591-.365.848-1.257.57-1.98-.277-.724.142-1.565.932-1.868.79-.303 1.49-.003 1.555.667.065.671.496-.131.956-1.781l.838-3-.283 3.25c-.155 1.787.089 3.25.544 3.25.455 0 .827-.675.827-1.5s.338-1.507.75-1.515c2.701-.055 3.671-1.959 1.745-3.427-1.722-1.312-1.79-1.657-.495-2.524 1.007-.673 1.089-1.008.25-1.019-2.503-.03-2.744.145-2.411 1.747.278 1.339.072 1.409-1.153.392-1.19-.987-1.596-.976-2.01.054-.396.989-.537.999-.597.042-.043-.687-.754-1.25-1.579-1.25-.94 0-1.5-.949-1.5-2.544 0-2.528-2.59-3.207-4.134-1.084-.349.479-1.212.679-1.917.444-.883-.294-.549-1.11 1.073-2.622 2.479-2.309 1.576-2.666-3.022-1.194m122.639 4.498c-.351.916-.639 3.114-.639 4.884 0 1.77-.496 3.714-1.102 4.32-.803.803-.494 1.925 1.138 4.133 2.388 3.23 4.181 2.749 5.24-1.406.467-1.832 1.208 2.691.807 4.926-.084.471.334 1.443.93 2.161.758.913.766 1.503.028 1.959-1.643 1.015 1.422 3.525 4.304 3.525 1.369 0 2.638-.43 2.822-.955.473-1.355 6.833 1.923 6.833 3.522 0 1.524 3.467 1.12 5.602-.652 1.849-1.534 1.787-3.915-.102-3.915-1.903 0-1.957-1.611-.078-2.332.783-.3 1.621-1.586 1.864-2.857.37-1.938.475-1.827.648.689.171 2.477.338 2.663.963 1.069 1.045-2.668.152-7.228-1.06-5.411-.605.909-.804.373-.616-1.658.192-2.065-.134-2.914-1.046-2.725-.855.177-1.219-.532-1.027-2 .164-1.251-.138-2.396-.671-2.544-.534-.148-1.061.917-1.172 2.366-.274 3.56-1.305 4.406-1.305 1.07 0-2.98-1.623-3.629-2.293-.917-.237.963-.331.737-.208-.5.457-4.599-2.376-2.25-3.016 2.5-.975 7.231-1.562 7.523-1.007.5.517-6.548.073-7.776-1.445-4-.693 1.724-.919 1.841-.968.5-.091-2.532-1.854-2.152-2.318.5-.372 2.13-.439 2.147-1.249.31-.564-1.278-.453-2.074.324-2.333.649-.217 1.18-.833 1.18-1.369 0-.537-.399-.73-.886-.428-.488.301-1.193-.46-1.568-1.691-.413-1.359-.883-1.748-1.197-.989-.626 1.518-3.349 1.673-3.349.191 0-.582-.5-.75-1.112-.372-.611.378-1.449.142-1.861-.525-.544-.88-.924-.756-1.388.454m39.291 10.085c-.058 2.388-.208 2.566-.828.983-.484-1.236-1.005-1.531-1.446-.819-.379.613-.3 1.355.174 1.648.475.294.887 2.012.915 3.819.041 2.621-.111 2.881-.752 1.286-.511-1.272-.698.001-.514 3.5.245 4.657.184 4.887-.393 1.5-.594-3.487-.754-3.679-1.247-1.5-.489 2.159-.597 2.022-.789-1l-.222-3.5-.909 3c-.5 1.65-.68 3.617-.399 4.371.363.975-.088 1.214-1.564.828-1.684-.441-2.016-.134-1.765 1.629.206 1.446 1.062 2.214 2.559 2.297 1.238.069 3.177.181 4.309.25 1.38.084 1.803.537 1.281 1.375-1.001 1.61-1.075 8.749-.09 8.749.413.001.75-2.114.75-4.699 0-3.656.267-4.433 1.2-3.5 1.962 1.962 2.6 1.399 2.6-2.297 0-1.924-.405-3.247-.9-2.941-.495.306-.9.117-.9-.42 0-.536.399-1.125.888-1.309 1.462-.549 2.268-8.855.831-8.573-.752.148-1.219-.972-1.219-2.926 0-4.022-1.476-5.667-1.57-1.751M117 132.972c0 2.623-.602 3.232-5.121 5.175-4.416 1.9-4.895 2.368-3.482 3.401.956.699 1.378 1.875 1.013 2.825-.356.929-.124 1.627.542 1.627.641 0 .888.45.548 1-.34.55-.184 1 .347 1 .531 0 .73.9.443 2-.288 1.1-1.036 2-1.662 2-.99 0-2.303 2.815-3.722 7.976-.258.937.444 1.606 1.92 1.83 1.719.261 2.151.79 1.655 2.024-.37.918-.93 2.304-1.245 3.078-.455 1.121.195 1.284 3.185.799 2.716-.441 3.619-.277 3.263.592-2.032 4.959-2.054 4.832.69 4.143 2.733-.686 3.232.052 1.687 2.494-.746 1.179-1.186 1.205-2.459.148-1.283-1.064-2.292-.939-5.827.722-2.351 1.105-5.294 2.308-6.54 2.673-1.245.366-1.976 1.131-1.624 1.7.415.671-.195.784-1.736.321-2.292-.69-2.313-.65-.589 1.143 1.429 1.486 1.951 1.59 2.612.522 1.191-1.927 2.387-1.627 3.294.825.513 1.387 1.234 1.862 2.05 1.353 2.652-1.654 7.831-1.077 9.313 1.039.795 1.134 1.445 1.481 1.445.769 0-.941.427-.866 1.569.276 1.08 1.079 2.094 1.288 3.25.67L124 185.93c.275-.148 1.513.274 2.75.936 1.985 1.063 2.25.969 2.25-.799 0-1.367.475-1.822 1.494-1.431.822.316 1.268.94.991 1.389-.623 1.008 4.28 4.975 6.15 4.975.751 0 1.365.653 1.365 1.45 0 .798.738 1.864 1.64 2.369 2.072 1.159.884 3.282-1.422 2.543-1.234-.396-1.358-.291-.44.37.96.691.648 1.209-1.25 2.073-1.53.697-2.528.766-2.528.174 0-.539.563-1.008 1.25-1.042 1.165-.059-2.846-2.152-4.5-2.348a.872.872 0 01-.75-.839v-1.372c0-.343.675-.063 1.5.622 1.851 1.536 1.911.125.095-2.267-1.643-2.166-4.595-1.283-4.595 1.374 0 2.128-1.565 2.558-2.338.643-.277-.687-.54-.275-.583.917-.043 1.191-.641 2.393-1.329 2.671-.775.312-.612.534.429.583.923.043 2.353-.596 3.178-1.421 1.866-1.866 2.643-1.902 2.643-.122 0 .758-1.012 2.084-2.25 2.948-2.19 1.527-2.129 1.57 2.287 1.622 5.453.063 7.201 3.464 1.88 3.658-1.604.059-2.917-.408-2.917-1.037s-1.352-1.247-3.005-1.373c-1.653-.126-2.95.116-2.882.538.43 2.663-.151 3.48-1.613 2.266-1.229-1.02-1.5-.951-1.5.378 0 2.135-1.251 2.049-4.132-.283-1.72-1.393-2.831-1.65-4.131-.954-.978.523-2.332.6-3.008.171-1.641-1.043-2.914-1.096-4.783-.198-.855.411-2.205.335-3-.168-.997-.631-1.058-.92-.196-.931.688-.008 1.25-.615 1.25-1.347 0-.792 1.913-1.705 4.716-2.25 4.25-.827 4.781-1.239 5.374-4.168.578-2.857.399-3.25-1.476-3.25-1.173 0-2.736-.966-3.474-2.147-.883-1.414-1.579-1.76-2.04-1.015-.385.623-2.14 1.42-3.9 1.772-3.045.609-3.2.491-3.2-2.433 0-4.027-8.827-13.061-10.236-10.477-.24.44-.299.238-.131-.45.167-.687-.132-1.25-.664-1.25-.533 0-.969.9-.969 2 0 2.739-1.445 2.514-2.788-.434-.995-2.184-.832-2.535 1.59-3.421 2.14-.783 2.285-1.002.698-1.06-1.1-.04-3.289.6-4.864 1.421-4.574 2.386-5.73 1.963-5.464-1.997.237-3.516-2.522-7.029-4.541-5.781-.49.303-.674-.075-.41-.839.264-.764-.346-2.454-1.357-3.757-1.01-1.302-1.573-2.794-1.25-3.317.323-.522-.358-1.197-1.513-1.499-1.156-.302-2.101-.973-2.101-1.492 0-.518-.45-.664-1-.324s-1 .127-1-.472c0-.6.686-1.354 1.526-1.676 1.176-.452 1.262-.902.377-1.969-.749-.902-.783-1.383-.099-1.383.577 0 1.255-.787 1.507-1.75.42-1.607.466-1.601.573.071.105 1.656.259 1.679 1.687.25.865-.864 2.495-1.571 3.623-1.571 1.717 0 1.847-.246.796-1.512-1.023-1.233-1.543-1.279-2.81-.25-1.306 1.06-1.454.995-.93-.407.364-.972-.184-2.602-1.312-3.903-2.127-2.452-2.487-3.386-.938-2.428.55.34 1 .115 1-.5s.45-.84 1-.5c.55.34 1 .147 1-.43 0-1.754-5.27-.754-5.753 1.092-.244.935-1.029 1.475-1.744 1.201-.716-.275-1.598-.019-1.961.569-.368.596.084 1.068 1.021 1.068 1.454 0 1.496.229.309 1.687-1.201 1.478-1.154 1.606.378 1.032 2.135-.801 2.24.251.282 2.84-1.668 2.205-2.259 25.009-.622 23.997 1.331-.823 4.234.511 3.82 1.755-.431 1.292 2.213 4.067 4.846 5.087 1.895.734 1.895.766-.017 2.173-1.616 1.189-1.669 1.429-.316 1.429 1.213 0 1.502.673 1.142 2.661-.284 1.566.049 2.989.808 3.458 1.983 1.226-.329 2.803-2.693 1.838-1.365-.557-1.524-.857-.5-.943.825-.07-.075-.691-2-1.38s-4.062-1.066-4.75-.837C59.772 187.29 59.545 192 61 192c.55 0 .947.338.882.75-.307 1.942.243 2.391 1.574 1.286 1.978-1.641 4.051-.352 2.479 1.542-.639.77-1.53 1.173-1.979.895-.45-.278-1.1-.048-1.446.511-.345.559-.151 1.016.431 1.016s1.059.675 1.059 1.5-.45 1.5-1 1.5-1-.477-1-1.059-.4-.812-.889-.51c-1.655 1.023-1.088 15.569.607 15.569.904 0 1.273.581.933 1.468-.31.807-.133 1.734.393 2.059.526.325.956.129.956-.437 0-.565.675-.768 1.5-.452.825.317 2.287.231 3.25-.192 4.176-1.832 9.46-.93 6.234 1.064-.559.346-.756 1.051-.437 1.567.756 1.222-1.521 3.462-4.469 4.398-1.597.507-2.114.392-1.644-.368.376-.609.207-1.107-.375-1.107S67 223.45 67 224s-.787.993-1.75.985c-1.34-.012-1.438-.214-.416-.861 1.606-1.018-.463-2.133-2.584-1.393-2.262.789-1.543 5.158.75 4.559 1.1-.288 2-.035 2 .562 0 .597-.675.826-1.5.51-.929-.357-1.5.004-1.5.949 0 .839-.273 2.237-.607 3.107-.435 1.134-.01 1.582 1.5 1.582 1.159 0 2.107.408 2.107.906 0 .499-.9.671-2 .384-1.896-.496-1.999-.034-1.985 8.843.009 5.152.346 9.85.75 10.44.954 1.393 4.235 2.604 4.235 1.562 0-1.978 3.008-.53 4.031 1.941 1.084 2.616 6.196 7.924 7.632 7.924.374 0 1.39.597 2.258 1.327.869.731 3.458 1.864 5.755 2.519 2.297.654 5.222 2.419 6.5 3.922 3.012 3.54 7.918 6.741 9.824 6.41 1.242-.217 1.262-.101.115.673-1.694 1.142 1.849 3.541 5.944 4.024.582.069.738.645.346 1.28-.473.763-.271.88.595.345.926-.572 1.07-.422.49.515-.594.962-.362 1.15.846.686 1.048-.402 1.664-.136 1.664.719 0 .786 1.579 1.632 3.75 2.009 2.063.359 4.988 1.139 6.501 1.733 1.967.773 3.121.774 4.05.004.714-.593 3.188-1.381 5.499-1.75l4.2-.672v-5.343c0-5.17.106-5.374 3.25-6.282 2.893-.836 2.975-.951.75-1.05-2.059-.091-3.093-1.321-5.858-6.966-4.224-8.624-7.971-11.094-16.142-10.643-3.318.184-5.791-.145-6.235-.828-.49-.756-.742-.634-.756.368-.012.825-.694.211-1.515-1.364-2.63-5.042-1.828-6.256 3.756-5.688.963.098 1.75-.301 1.75-.885 0-.585-1.35-1.063-3-1.063-1.915 0-3-.51-3-1.41 0-.776-1.81-3.701-4.023-6.5-4.346-5.498-3.964-6.164 1.813-3.162 3.601 1.872 9.955 8.807 9.457 10.322-.382 1.161 1.552.885 2.301-.328.405-.655 1.953.326 3.944 2.5 1.803 1.968 3.555 3.578 3.893 3.578 1.184 0 .601-3.575-.942-5.777-1.317-1.881-1.335-2.223-.116-2.223 3.248 0 2.462-3.883-1.685-8.322-5.083-5.44-9.642-8.125-9.642-5.678 0 .55.628 1 1.396 1 1.816 0 7.822 6.84 7.328 8.344-.843 2.562-4.693 1.872-5.722-1.025-1.648-4.643-2.513-5.711-6.598-8.149l-3.904-2.329 4 .551c2.75.379 3.531.252 2.5-.405-1.274-.812-1.232-.959.282-.972 4.918-.042 15.614 6.948 17.945 11.727 2.988 6.127 5.892.044 3.158-6.614-1.751-4.263-1.736-4.664.115-3.128 1.207 1.002 1.5.982 1.5-.1 0-.863.793-.551 2.218.874 2.19 2.189 2.195 2.258.376 5.336-1.527 2.585-1.607 3.268-.468 3.989.998.632 1.032.875.124.886-2.338.028-1.261 1.593 2.165 3.146l3.414 1.548-.285-2.59c-.157-1.424.14-2.861.659-3.194 1.288-.824-1.375-6.57-5.022-10.836-2.805-3.282-3.023-3.36-4.697-1.686-1.154 1.154-2.093 1.418-2.742.769-.542-.542-1.68-.719-2.528-.394-1.095.42-1.305.208-.724-.733.516-.834.43-1.084-.231-.675-.89.55-2.259-1.285-2.259-3.03 0-.508 2.823.035 6.657 1.28 1.53.497 1.588.415.343-.48-1.291-.929-1.249-1.082.3-1.095 4.596-.039 12.79 7.017 13.05 11.238.184 2.99 4.429 5.488 5.331 3.137 1.653-4.308-5.732-17.39-9.817-17.39-.54 0-.679-.49-.308-1.09.664-1.075 6.796-.449 8.936.912.555.353 2.244.709 3.755.792 4.027.222 7.737 3.058 8.412 6.431.325 1.625.985 2.955 1.466 2.955s.875.427.875.948c0 1.658 4.662 6.052 6.422 6.052.931 0 3.712-.508 6.18-1.13l4.487-1.13-.295-6.041-.294-6.041-11.5-8.913c-6.325-4.902-13.412-10.311-15.75-12.021-3.998-2.925-5.559-5.724-3.191-5.724.582 0 .802-.416.488-.924-.314-.509.222-1.131 1.191-1.384 1.316-.344 1.182-.489-.532-.576-1.598-.081-2.205-.647-2-1.866.216-1.287-.301-1.687-1.956-1.512-1.238.131-2.25-.233-2.25-.809 0-.576-.362-.823-.804-.55-.442.273-1.303-.825-1.913-2.441-1.222-3.237-1.052-3.42 1.783-1.903 1.549.829 1.934.707 1.934-.615 0-1.521.203-1.517 2.594.05 2.474 1.621 2.568 1.615 2.023-.135-.782-2.51.683-4.541 2.713-3.762 2.474.95 2.025 2.315-.58 1.765-2.045-.432-2.084-.37-.425.685 1.004.638 2.073.912 2.377.609 1.141-1.142 6.467 2.486 5.883 4.008-.392 1.02-.049 1.401 1.063 1.183 2.276-.448 2.905-7.127.863-9.169-.852-.852-1.112-1.783-.588-2.107.516-.319 1.222-.121 1.569.439 1.009 1.634 4.197-.611 4.912-3.46.386-1.536 1.313-2.495 2.365-2.447 1.111.051 1.268.265.439.597-.992.398-1.021.844-.127 1.921 1.283 1.546 3.377 1.953 2.467.48-.684-1.107 4.397-.847 6.288.321 2.071 1.281-4.523 4.875-8.006 4.364-1.556-.229-2.83-.096-2.83.295 0 .39-.9.945-2 1.233-1.1.287-2 1.057-2 1.71s.9 1.423 2 1.71c1.1.288 2 .858 2 1.268 0 1.298 5.14-.18 5.701-1.64.317-.826 1.28-1.161 2.355-.82 1 .317 2.635.133 3.631-.41.997-.543 3.116-1.264 4.708-1.603l2.895-.616-6.266-5.944c-3.447-3.27-6.815-5.945-7.485-5.945-2.288 0-3.706-4.802-1.754-5.94 1.611-.938 1.609-1.001-.035-1.03-.963-.016-1.75-.48-1.75-1.03 0-1.274-1.54-1.255-6.342.078-3.613 1.003-3.732 1.157-2 2.576 1.702 1.395 1.707 1.467.064.948-1.045-.329-2.42.19-3.339 1.263-2.016 2.355-6.383 1.683-6.383-.982 0-1.097.731-1.916 1.75-1.962 1.115-.05 1.281-.267.457-.598-1.757-.705-6.207.489-6.207 1.665 0 .522.675.69 1.5.374.825-.317 1.5-.051 1.5.59s-.461.881-1.025.533c-.563-.349-.901-.094-.75.566.151.659-.35 1.426-1.114 1.704-.939.341-1.129.083-.586-.795.577-.934.334-1.12-.861-.661-1.104.424-1.664.125-1.664-.889 0-.846-.486-1.228-1.087-.856-.783.484-.783.976 0 1.759 1.594 1.594 1.328 2.683-.663 2.719-1.653.03-1.651.107.029 1.382 1.538 1.166 1.572 1.429.25 1.936-1.951.749-1.949 3.079.007 6.064 1.251 1.911 1.288 2.44.197 2.858-.801.308-1.854-.648-2.619-2.377-1.075-2.429-1.707-2.798-3.947-2.31-5.294 1.155-5.822 1.555-3.323 2.518 1.29.496 2.578 1.796 2.864 2.888.286 1.093.918 1.74 1.406 1.439.487-.302.886-.12.886.404 0 2.452-3.056 1.88-4.685-.877-.96-1.626-2.243-2.957-2.85-2.957-.608 0-2.609-1.343-4.447-2.984-1.839-1.641-4.176-3.249-5.195-3.572-2.527-.802-1.359-2.355 1.431-1.904 1.235.199 3.146.497 4.246.661 1.1.165 2.606 1.112 3.347 2.106.841 1.129 2.327 1.692 3.96 1.5 2.441-.287 2.616-.653 2.653-5.556.03-3.996-.318-5.261-1.46-5.297-1.905-.061-12.928-5.843-11.261-5.907.682-.026 3.494.81 6.25 1.857s5.011 1.497 5.011 1c0-.497.45-.904 1-.904s1 .648 1 1.441c0 2.442 1.625 2.629 5.963.687 2.956-1.324 3.711-2.039 2.601-2.465-.86-.33-1.564-1.289-1.564-2.132 0-.842-.45-1.531-1-1.531s-1 .62-1 1.378c0 .757-.675 1.937-1.5 2.622-1.291 1.071-1.5.687-1.5-2.755 0-2.385-.623-4.517-1.542-5.28-.991-.823-1.198-1.625-.578-2.245 1.493-1.493-.8-5.602-3.032-5.434-1.102.083-1.69.682-1.404 1.429.271.707-.168 1.285-.975 1.285-.808 0-1.469.477-1.469 1.059s-.465.771-1.034.42c-.649-.401-.86.321-.566 1.941.366 2.022.062 2.58-1.407 2.58-1.031 0-2.158.457-2.503 1.016-.706 1.143-2.49.372-2.49-1.075 0-.518 1.237-.994 2.75-1.059l2.75-.119-3-.763c-1.65-.42-2.325-.824-1.5-.897 1.333-.119 1.333-.241 0-1.103s-1.333-.973 0-1c1.313-.027 1.316-.147.029-.961-1.868-1.181-1.046-2.002 2.598-2.593 5.575-.906 7.373-1.494 7.373-2.413 0-.556-1.105-.583-2.75-.067-6.852 2.149-9.007 2.053-10.663-.473-2.039-3.112-2.158-5.212-.204-3.59 1.077.894 1.544.755 2.108-.627.682-1.675.763-1.669 1.422.097.657 1.759.801 1.77 2.393.178.932-.932 1.694-1.212 1.694-.622 0 .589 1.012 1.064 2.25 1.056 1.849-.013 1.983-.199.75-1.045-1.247-.856-1.163-1.003.5-.87 3.798.304 3.989-.091 1-2.07-3.913-2.591-5.493-2.52-5.532.25-.031 2.237-.045 2.235-2.314-.341-2.369-2.687-5.874-2.515-7.959.391-.511.712-.649-.324-.341-2.55.286-2.062.099-3.75-.417-3.75-.515 0-.937 1.337-.937 2.972m-23 9.969c0 4.849-.114 5.06-2.75 5.074-4.648.026-5.811 1.51-2.317 2.957 3.519 1.458 4.041 3.961.993 4.758-1.671.436-1.947 1.051-1.419 3.154.843 3.359.521 3.223 4.813 2.038 2.039-.563 4.1-.781 4.58-.484.48.297 1.09-.29 1.355-1.304.669-2.56-.377-21.134-1.19-21.134-.365 0-.48 1.575-.255 3.5.25 2.142-.022 3.5-.701 3.5-.61 0-1.109-1.323-1.109-2.941 0-1.618-.45-3.219-1-3.559-.616-.381-1 1.323-1 4.441m241.8 1.259c2.059 2.059 1.313 2.92-1.138 1.314-2.244-1.47-2.412-1.393-4.194 1.916-1.021 1.896-2.289 3.181-2.817 2.854-.528-.326-.695-.165-.371.359.323.524.192 1.593-.292 2.377-.994 1.607-1.527.676-2.303-4.02-.244-1.479-.468-.74-.549 1.809-.097 3.06.203 4.1 1.034 3.586.787-.486.961-.178.531.941-.787 2.053.203 2.12 2.945.199 1.15-.805 2.375-1.18 2.723-.833.347.347.631.181.631-.369s.563-1.042 1.25-1.094c.688-.052 2.262-.404 3.5-.783 1.522-.466 2.25-.274 2.25.594 0 .706-.288.995-.64.643-.865-.865-6.158 2.339-6.852 4.147-.862 2.246.042 2.444 3.349.734 3.585-1.854 4.511-1.978 3.584-.479-.372.602.276 2.384 1.441 3.96 1.165 1.575 2.118 3.242 2.118 3.705 0 .462.524 1.364 1.165 2.005 1.588 1.588 3.761-1.317 3.803-5.082.027-2.413.337-2.721 2.157-2.143 1.43.454 1.902.312 1.441-.433-.376-.609-.24-1.107.302-1.107s1.191-.787 1.443-1.75c.422-1.617.466-1.613.573.059.064.995.549 1.541 1.079 1.214.551-.34.871.703.75 2.439-.24 3.422-1.146 3.871-2.596 1.288-.919-1.636-1.031-1.624-1.73.19-.464 1.205-.297 2.09.439 2.335.653.218.932.807.621 1.31-.311.503.185.915 1.101.915 1.203 0 1.46.487.924 1.75-1.123 2.647-.662 6.202 1.022 7.887.828.828 1.506 2.149 1.506 2.934 0 .786.388 1.429.862 1.429.475 0 .739 1.125.589 2.5-.223 2.03.163 2.5 2.055 2.5 3.196 0 5.597 1.025 4.929 2.105-.825 1.335 1.979 1.081 3.365-.305.933-.933 1.2-.92 1.2.059 0 .692.47.969 1.044.614.574-.355 1.699-.101 2.5.563.801.665 1.456.784 1.456.264 0-1.552-5.81-13.065-6.948-13.768-.579-.358-1.052-1.148-1.052-1.758 0-.609.285-.823.633-.475.348.348 1.473-.435 2.5-1.741 1.978-2.515 2.457-4.041.981-3.128-.488.301-1.148-.452-1.468-1.674-.787-3.011-2.506-1.179-2.825 3.01-.136 1.779-.553 3.234-.927 3.234-1.267 0-1.843-3.007-1.198-6.261.582-2.938.486-3.111-1.027-1.867-.918.755-1.669 1.993-1.669 2.75 0 .758-.675 1.378-1.5 1.378s-1.5.436-1.5.969c0 .532-.6.738-1.333.457-1.519-.583-1.832-3.426-.378-3.426.526 0 .396-.675-.289-1.5-1.678-2.022-.111-1.91 2.171.155 1.746 1.58 1.828 1.455 1.797-2.75-.028-3.877-.191-4.195-1.36-2.655-1.919 2.528-2.747 2.152-1.981-.899.463-1.846.322-2.437-.466-1.95-.788.486-.952-.197-.541-2.252.325-1.623.107-3.783-.484-4.8-.836-1.437-1.108-1.515-1.221-.349l-.28 2.914c-.193 2.019-2.635 2.584-2.635.61 0-.903-.45-1.364-1-1.024-.55.34-1 1.491-1 2.559s-.623 1.941-1.383 1.941c-1.811 0-2.703-3.514-1.26-4.957.835-.835.74-1.367-.365-2.058-1.043-.652-1.586-.505-1.805.486-.179.813-.962 1.169-1.833.834-1.144-.438-1.216-.772-.292-1.343 1.738-1.074.372-4.066-1.524-3.338-.963.369-1.538.029-1.538-.91 0-.825-.712-1.773-1.582-2.107-2.411-.925-2.942-.731-1.618.593M5.197 161c-.152.275-.528 48.762-.836 107.75L3.801 376l15.85.043c8.717.024 40.599.016 70.849-.018 148.732-.168 392.571.001 397 .274 2.75.169 5.699.636 6.553 1.036 1.298.608 1.472.107 1.063-3.054-.269-2.079-.665-2.988-.879-2.019-.37 1.678-12.017 1.749-243.229 1.5-133.563-.144-243.216-.637-243.675-1.095-.458-.458-1.064-48.383-1.346-106.5-.283-58.117-.638-105.442-.79-105.167m323.248 18.529c-1.345 3.04-2.445 5.965-2.445 6.5 0 .534-.45.971-1 .971s-1 .675-1 1.5-.45 1.5-1 1.5-1 .893-1 1.984c0 1.092-1.238 3.319-2.75 4.951-3.071 3.312-6.75 4.438-6.75 2.065 0-.864.73-1.378 1.722-1.213 2.216.37 3.501-4.211 1.767-6.3-.857-1.033-.891-1.487-.111-1.487.617 0 1.122-1.377 1.122-3.059 0-1.682-.412-2.805-.915-2.494-.503.311-1.087.048-1.297-.584-.588-1.764-4.507.676-5.35 3.331-.383 1.208-2.078 4.441-3.766 7.185-1.89 3.071-2.985 6.098-2.849 7.877.134 1.756-.181 2.641-.802 2.257-.635-.393-.964.808-.871 3.178.124 3.159.222 3.325.575.97.398-2.658.513-2.722 1.818-1 1.635 2.157 1.887 3.722.457 2.839-.55-.34-1 .11-1 1s.45 1.34 1 1c1.84-1.137 1.026 1.033-1.055 2.815-1.364 1.168-1.846 2.421-1.433 3.723.353 1.113.161 1.962-.445 1.962-.587 0-1.104-.787-1.148-1.75-.053-1.148-.523-.75-1.365 1.157-.876 1.986-1.459 2.461-1.839 1.5-.347-.875-.587-.579-.636.784-.043 1.205-.531 2.47-1.083 2.811-.552.341-.74 1.83-.419 3.309.452 2.08.343 2.349-.481 1.189-.86-1.211-1.068-.97-1.081 1.25-.008 1.512.435 2.75.985 2.75s1.007-.562 1.015-1.25c.011-.905.256-.87.889.128.48.758 1.307 1.109 1.839.781.531-.329 2.01.514 3.286 1.872l2.32 2.469-2.425.116c-1.506.072-1.802.281-.781.553 1.064.283 1.463 1.122 1.133 2.384-.291 1.114-.006 1.947.666 1.947.647 0 .898-.45.558-1-.34-.55.294-1 1.41-1 1.199 0 1.84-.51 1.569-1.25-.758-2.069 1.129-4 3.907-4 1.74 0 2.619-.543 2.629-1.625.014-1.414.141-1.431.985-.125.815 1.262.972 1.202.985-.372.012-1.551.273-1.659 1.515-.628 1.232 1.023 1.5.945 1.5-.437 0-.924.419-1.422.932-1.105.513.317 1.075-.669 1.25-2.191.212-1.847.817-2.656 1.818-2.434.825.184 1.209.043.854-.312-.666-.666 6.971-8.521 8.285-8.521 1.958 0 7.113-13.057 6.543-16.571-.52-3.204-.411-3.449 1.012-2.268 1.4 1.162 1.507 1.047.875-.944-.516-1.624-.344-2.189.606-1.992.761.158 1.147-.363.906-1.225-.231-.825-.642-3.3-.914-5.5l-.493-4-1.703 6.5c-1.293 4.939-1.873 6.02-2.415 4.5-.392-1.1-1.334-3.163-2.094-4.586-1.148-2.15-1.158-2.907-.059-4.5 1.736-2.515 3.167-11.885 1.674-10.962-.593.367-1.077-.034-1.077-.893 0-3.265-2.206-1.343-4.555 3.97m36.783 62.235c.443 1.692.061 1.983-2.451 1.87-4.366-.197-6.037 2.713-4.342 7.561 1.076 3.078 1.064 3.783-.072 4.219-.987.379-1.363-.418-1.363-2.886 0-4.754-1.721-5.34-2.298-.782-.958 7.564-.814 14.254.307 14.254.61 0 .831-.45.491-1-.719-1.163.416-1.352 6.25-1.044 2.337.123 4.25-.204 4.25-.727 0-.892 2.234-.782 7.895.387 1.798.371 2.109.78 1.25 1.639-.63.63-1.138 1.843-1.13 2.695.014 1.369.141 1.375 1.087.05.863-1.207.976-1.065.583.731-.407 1.863-.088 2.197 1.936 2.03 1.589-.132 2.244-.67 1.902-1.563-.288-.749-.555-1.887-.593-2.53-.039-.642-.481-.268-.983.832-.819 1.795-.886 1.744-.656-.5.141-1.375.808-2.387 1.483-2.25 1.672.341 1.552-2.234-.171-3.664-.768-.638-1.167-2.038-.886-3.111.319-1.222-.093-2.182-1.104-2.57-.887-.34-1.613-1.416-1.613-2.39 0-.973-.67-2.326-1.489-3.006-.819-.68-1.266-1.597-.993-2.038.681-1.102-1.416-6.406-2.216-5.606-.353.353-1.757-.089-3.12-.982-2.367-1.55-2.455-1.533-1.954.381m-99.557 7.898c-.364.364-2.239.603-4.167.531-3.493-.132-5.036 2.022-2.254 3.145.831.335.731.531-.299.583-1.174.06-1.45.932-1.138 3.604.512 4.382 3.43 6.37 5.378 3.663.72-1.001 2.097-2.113 3.059-2.472.962-.359 1.75-1.369 1.75-2.244 0-.874.45-1.312 1-.972.55.34 1-.084 1-.941s.402-1.559.893-1.559c.971 0 2.408-3.032 1.75-3.691-.223-.222-1.133.324-2.024 1.215-1.452 1.451-1.619 1.456-1.619.047 0-1.577-2.09-2.148-3.329-.909M276 254.107c0 1.462-.459 1.931-1.5 1.531-1.095-.42-1.5.124-1.5 2.016 0 2.19-.232 2.398-1.5 1.346-1.23-1.021-1.5-.948-1.5.409 0 .91.675 1.913 1.5 2.229.825.317 1.5.994 1.5 1.504 0 .511-.94.425-2.089-.19-1.794-.96-2.036-.859-1.714.715.221 1.08 1.079 1.712 2.089 1.539 1.963-.336 2.351 1.4.464 2.074-3.629 1.296.926 1.796 4.876.535 4.622-1.475 4.66-1.524 4.939-6.288.155-2.641-.123-5.865-.617-7.164-1.164-3.062-4.948-3.257-4.948-.256" fill="#d3d3d3" fill-rule="evenodd"/></svg>