<svg xmlns="http://www.w3.org/2000/svg" width="500" height="254"><path d="M217 38.063c-2.475.516-9.9 1.356-16.5 1.865-8.42.651-13.492 1.569-17 3.08-2.75 1.184-8.6 2.53-13 2.993-9.329.98-11.471 1.697-17.771 5.949-3.086 2.083-6.776 3.491-10.881 4.152-6.182.995-15.36 5.624-20.848 10.514-1.375 1.225-4.223 2.545-6.33 2.932-2.106.387-4.067 1.323-4.357 2.078-.29.756-1.154 1.374-1.92 1.374s-1.393.365-1.393.812c0 .447-3.825 3.681-8.5 7.188-4.675 3.507-8.5 6.671-8.5 7.032 0 2.915 35.555 37.059 40.082 38.492 1.33.421 6.018 3.848 10.418 7.616 8.999 7.707 9.146 7.74 19.53 4.536 4.141-1.277 8.094-2.135 8.783-1.905.69.23 1.802-.024 2.471-.564 2.778-2.245 23.716-3.717 23.716-1.668 0 .714 1.483 2.214 3.295 3.334 1.812 1.12 4.356 2.957 5.653 4.082 1.297 1.125 2.982 2.045 3.746 2.045 3.144 0 7.175 4.267 7.86 8.321.677 4.005.694 4.019 2.029 1.609 1.305-2.355 1.347-2.302 1.382 1.713.022 2.663-.467 4.336-1.371 4.682-1.892.727-2.91 5.846-2.107 10.598.624 3.694.856 3.9 4.834 4.287 2.894.281 5.178-.18 7.429-1.501 1.787-1.048 3.302-1.525 3.365-1.058.064.467.22 1.299.348 1.849.128.55.315 1.45.416 2 .102.55.828 1.85 1.615 2.89 1.355 1.79 1.566 1.801 4 .206 1.413-.926 2.29-2.136 1.949-2.688-.4-.648-1.146-.569-2.098.221-1.271 1.055-1.433.609-1.161-3.202.277-3.885.581-4.391 2.477-4.129 1.189.164 2.444-.159 2.789-.717.345-.559 1.903-.76 3.462-.449 3.514.703 6.088-2.432 6.088-7.414 0-4.352 1.566-3.332 2.343 1.527.614 3.837 7.756 11.25 10.847 11.259 2.295.006 7.788 3.888 13.447 9.502 3.019 2.995 6.698 6.023 8.176 6.729 1.478.706 2.822 2.224 2.987 3.373.382 2.662 8.339 2.286 14.966-.707 4.865-2.197 4.945-3.708.598-11.31-4.409-7.709-2.845-8.458 5.477-2.622 3.112 2.182 6.628 4.116 7.811 4.296 1.184.181 2.759.805 3.5 1.387 2.731 2.146 6.29 2.189 12.495.152 6.023-1.977 6.353-2.249 6.353-5.245 0-1.737-.533-3.691-1.183-4.342-.651-.651-.852-1.516-.446-1.921.406-.406 1.051-.279 1.433.282.856 1.254 8.053 3.422 11.362 3.422 1.339 0 2.959.525 3.601 1.167.889.889 2.067.79 4.95-.415 2.081-.871 4.625-1.853 5.655-2.183 2.191-.702 1.67-5.76-.884-8.582-1.667-1.842-1.971-3.987-.565-3.987.508 0 2.891 1.501 5.295 3.336 6.428 4.907 19.782 5.868 19.782 1.424 0-1.807-3.792-8.703-6.679-12.146-1.676-1.998-2.27-3.689-1.933-5.5.268-1.438.766-5.144 1.106-8.235.413-3.757 1.338-6.395 2.79-7.953l2.171-2.331.811 4.099c.675 3.41 1.14 4.013 2.772 3.586 1.084-.284 1.962-.014 1.962.603 0 .615.508 1.117 1.129 1.117.783 0 .916-1.606.432-5.249-.595-4.486-1.323-5.832-5.009-9.25-5.596-5.192-6.493-8.649-2.918-11.253 2.55-1.858 2.579-1.993.951-4.477-1.631-2.491-4.795-4.145-7.335-3.836-.687.084-1.25-.317-1.25-.891 0-.574-.596-1.044-1.324-1.044-1.954 0-11.176-6.801-11.176-8.242 0-.681 1.345-1.471 2.988-1.756 4.132-.716 4.423-3.48.574-5.47-1.684-.871-3.062-2.037-3.062-2.591 0-.555-1.575-1.938-3.5-3.074-1.925-1.135-3.516-2.583-3.536-3.216-.157-4.997-53.451-31.36-71.992-35.613-4.66-1.068-11.847-2.7-15.972-3.626-4.125-.925-13.35-2.049-20.5-2.497-7.15-.447-16.6-1.033-21-1.302-4.4-.269-10.025-.066-12.5.45m13.785 94.187c.369 3.942 1.227 6.093 3.442 8.636 2.113 2.424 2.605 3.6 1.734 4.138-.67.414-.903 1.26-.52 1.881.383.62 1.123.864 1.644.542a1.106 1.106 0 00.372-1.516c-.85-1.377.304-1.134 2.995.629 2.299 1.507 5.611.763 7.548-1.694.275-.349 1.4-.804 2.5-1.011 4.497-.845 1.468-7.855-3.394-7.855-.797 0-2.271-.745-3.277-1.655-1.747-1.581-1.829-1.448-1.829 2.941 0 2.528-.426 4.859-.946 5.181-.974.602-3.029-5.417-3.061-8.967-.014-1.597-5.545-6.5-7.332-6.5-.202 0-.146 2.363.124 5.25m-151.178 2.332c-.334.87-.607 2.445-.607 3.5 0 1.863-.057 1.861-2-.082-2.805-2.805-3.31-2.572-5.079 2.348l-1.564 4.348 2.822 1.065c2.755 1.04 6.437.409 11.057-1.895.955-.476 2.404-.866 3.219-.866 1.893 0 1.042-2.404-2.389-6.75-2.819-3.57-4.529-4.093-5.459-1.668m179.538 53.937c-1.295 1.364-2.727 2.481-3.183 2.481-2.844 0-1.5 7.919 1.879 11.067 3.873 3.608 12.171 2.886 12.151-1.058-.01-2.07-6.254-14.295-7.492-14.669-.55-.167-2.06.814-3.355 2.179" fill="#d3d3d3" fill-rule="evenodd"/></svg>