<svg xmlns="http://www.w3.org/2000/svg" width="500" height="502"><path d="M349.326.75c27.955.148 73.405.148 101 0C477.922.602 455.05.481 399.5.481s-78.128.121-50.174.269M154.5 19.05c-5.5.449-13.027 1.215-16.727 1.702-3.869.509-6.852.511-7.021.005-.4-1.2-12.543 4.353-16.252 7.433-1.65 1.37-5.7 4.186-9 6.258C98.495 38.845 94 42.84 94 44.668c0 1.358-1.572 1.846-9.033 2.806-2.492.321-5.867 1.464-7.5 2.54-4.425 2.919-5.72 3.664-8.467 4.872-1.375.605-3.175 1.501-4 1.991-.825.49-2.809 1.506-4.409 2.257-1.739.817-3.64 2.974-4.728 5.366-2.581 5.675-2.417 7.369.451 4.674 4.193-3.938 3.894-2.271-.641 3.576-5.291 6.823-6.523 9.917-3.949 9.917 2.01 0 3.587-1.372 4.575-3.98.378-.998 1.119-1.547 1.646-1.221.528.326 1.638-.658 2.467-2.186l1.508-2.78.04 2.75c.022 1.513-.327 2.75-.776 2.75s-1.827 1.8-3.064 4c-1.93 3.434-2.018 4-.625 4 .893 0 1.386-.384 1.095-.854-.29-.469.559-1.349 1.887-1.954 2.332-1.062 2.435-.94 3.021 3.604.333 2.587.774 5.522.978 6.522.453 2.211-1.392 7.904-2.89 8.917-.645.436-.68.747-.086.765.55.017.365.433-.412.924-1.147.726-5.017 10.804-5.073 13.209-.008.349.885.869 1.985 1.157 1.351.353 2 1.364 2 3.116 0 3.19-1.755 3.396-2.932.344-.771-1.999-.947-2.055-1.575-.5-.511 1.266-1.838 1.75-4.791 1.75-3.509 0-3.844.176-2.381 1.25.936.688 1.905 2.308 2.153 3.602.599 3.13 2.374 5.148 4.527 5.148 4.842 0 7.799 18.4 3.753 23.354-3.436 4.206-18.805 5.024-20.595 1.097-.614-1.348-1.602-2.451-2.197-2.451-.594 0-.802-.45-.462-1s.141-1-.441-1c-1.593 0-1.284 2.136.941 6.5 1.1 2.158 1.971 4.615 1.936 5.461-.035.847-.792.076-1.681-1.711-.89-1.787-2.211-3.25-2.936-3.25-1.766 0-1.695 4.642.081 5.323.771.296 1.706 2.343 2.079 4.55.372 2.206 1.288 4.519 2.035 5.139.747.619 1.653 2.47 2.013 4.112.633 2.88.74 2.931 3.012 1.442 3.367-2.206 3.952-.71 3.957 10.105l.004 9.171-3 .476c-4.692.746-5.984-1.285-6.107-9.605-.144-9.701-.987-12.394-4.124-13.182-1.407-.353-3.033-.167-3.614.414-.74.74-.697 1.055.145 1.055.684 0 1.207 1.397 1.215 3.25.012 2.466.249 2.888.985 1.75.862-1.333.969-1.333.969 0 0 4.38-4.592 5.156-5.689.962-.493-1.885-.695-1.92-2.87-.495-3.197 2.095-3.553 1.94-2.228-.967.626-1.375 1.545-2.5 2.041-2.5.497 0 .823-.788.725-1.75-.561-5.513.02-7.077 2.528-6.802 1.362.149 3.411 1.347 4.553 2.662l2.077 2.39-.666-2.5c-.93-3.495-1.872-4.265-5.378-4.391-3.312-.118-3.133.445-3.525-11.109-.174-5.134-4.725-19.579-6.037-19.161-.55.176-1.49 1.293-2.089 2.484-1.207 2.398-2.411 1.874-2.411-1.049 0-1.04-.457-1.609-1.016-1.264-.559.346-.792.992-.518 1.436.275.444-.221 3.225-1.102 6.181C9.503 154.375 8.738 167 10.222 167c.57 0 .718 1.102.346 2.584-.423 1.685-.284 2.359.399 1.936.576-.356 1.348.136 1.715 1.094.614 1.599.723 1.584 1.349-.187.516-1.459.789-1.015 1.125 1.823.348 2.954.103 3.75-1.156 3.75-1.238 0-1.506.789-1.19 3.5.225 1.925.81 3.5 1.299 3.5 2.69 0 .51 5.004-3.722 8.54-4.013 3.354-4.37 3.95-2.75 4.587 1.49.586 1.299.747-.953.803-3.741.093-6.684 1.757-6.684 3.779 0 1.367.384 1.279 2.307-.528 1.621-1.523 2.621-1.853 3.364-1.11.743.743 1.522.593 2.622-.507.86-.86 2.009-1.564 2.552-1.564.544 0 1.215-.563 1.493-1.25.314-.78.534-.623.583.417.043.916-.483 1.854-1.171 2.084-.837.279-1.182 2.278-1.045 6.052.113 3.099-.232 5.905-.766 6.235-.534.33-.7 1.039-.369 1.575.767 1.241-1.625 4.903-5.678 8.69-1.738 1.625-2.861 3.439-2.494 4.032 1.079 1.746 3.594.153 5.069-3.211.853-1.946 1.401-2.464 1.451-1.374.045.963.541 1.75 1.101 1.75.605 0 .751 1.117.359 2.75-.855 3.564-1.169 3.859-2.595 2.433-.651-.651-1.656-1.168-2.233-1.15-.578.019-.003.906 1.276 1.972C8.107 231.906 8.18 236 5.933 236c-.513 0-.933.914-.933 2.031 0 1.118-.592 2.259-1.315 2.537-.859.329-1.23 1.969-1.07 4.718.135 2.318.014 3.651-.268 2.964-.701-1.706-2.347-1.582-2.347.177 0 .784.788 1.632 1.75 1.884 1.617.422 1.613.466-.059.573-.995.064-1.526.573-1.181 1.132 1.35 2.185 1.515 5.984.26 5.999-.987.012-.976.202.051.853 2.148 1.362 2.809 13.953.773 14.734-1.9.73-2.058 10.321-.192 11.724.78.587.736.973-.152 1.333-2.02.82-1.503 5.042.688 5.615 2.189.572 2.104 5.251-.19 10.417-.94 2.115-1.321 17.339-1.543 61.63l-.295 58.82 2.637 2.075c2.089 1.643 2.544 2.713 2.187 5.142C4.291 433.379 5.775 436 7.929 436c1.638 0 1.274 1.708-.511 2.393-.87.334-2.888.607-4.486.607H.028l.003 30.5c.003 28.238.132 30.505 1.736 30.57 1.462.06 1.421.205-.267.93-1.225.526 4.709.887 15.309.93 9.824.04 17.072-.313 16.761-.816-.301-.488.347-1.121 1.441-1.407 1.256-.328 2.002-1.384 2.025-2.863.035-2.287.096-2.271 2.498.656l2.462 3-3.748.517c-3.207.442 46.565.185 65.715-.34 6.322-.173 6.482-.245 7.357-3.297.884-3.081.931-3.101 3.874-1.634 2.138 1.067 2.839 2.018 2.486 3.37-.545 2.083.857 2.619 1.658.634.403-1 .52-1 .583 0 .045.716 1.411 1.25 3.194 1.25 3.061 0 3.088-.042 1.538-2.407-1.985-3.03-.006-4.229 3.234-1.96 2.302 1.613 4.113 1.088 4.113-1.192 0-.929 1.048-1.441 2.949-1.441 2.178 0 3.626-.888 5.54-3.397 2.202-2.887 3.11-3.348 6.051-3.075 1.903.177 3.46-.095 3.46-.603 0-.509.338-.825.75-.703.412.123 2.002-.613 3.531-1.635 1.53-1.022 2.92-1.684 3.088-1.472 1.084 1.36 4.631 9.777 4.631 10.988 0 .949 1.154 1.549 3.25 1.689 2.442.164 2.877-.028 1.75-.772-.825-.544-1.162-1.053-.75-1.13a58.84 58.84 0 011.571-.265c1.316-.2 4.137-3.334 3.54-3.931-.3-.299-.067-1.365.517-2.369.947-1.629 1.064-1.547 1.092.758.038 3.29.968 4.213 2.753 2.732.774-.642 2.39-1.273 3.592-1.402a43.168 43.168 0 004.185-.694c1.1-.252 2.787-.052 3.75.446 1.123.581 1.75.534 1.75-.13 0-.569.927-1.035 2.059-1.035 1.132 0 1.781.45 1.441 1-1.932 3.126 12.513.319 15.5-3.011 1.699-1.895 6.358-4.886 6.996-4.492.418.259 1.029-.872 1.357-2.513.749-3.742 3.179-3.877 4.203-.234.424 1.512.698 3.088.608 3.5-.09.413.559.75 1.443.75 1.018 0 1.396-.55 1.031-1.5-.316-.825-.192-1.5.277-1.5.468 0 1.087.9 1.375 2 .287 1.1.155 2-.295 2-.904 0-.74 2.589.225 3.554.336.336 3.237.279 6.446-.128 3.209-.406 5.272-.93 4.584-1.165-1.77-.605-1.549-2.313.5-3.869 2.2-1.67 5.483-1.759 7.05-.192.933.933 1.2.624 1.2-1.393 0-2.51-2.968-4.982-3.032-2.526-.017.671-.692.345-1.5-.722-.807-1.068-1.475-1.518-1.483-1-.009.517-.409.319-.891-.441-.685-1.082-1.262-.791-2.66 1.343l-1.786 2.724-1.574-2.084c-.866-1.146-2.779-2.183-4.252-2.305-1.473-.121-2.459-.575-2.191-1.008.268-.433-.172-.788-.978-.788-.973 0-1.29-.672-.943-2 .288-1.1 1.172-2 1.966-2 .793 0 1.196-.399.894-.886-.943-1.527 3.294-1.982 4.534-.488 1.014 1.221 1.511 1.201 3.565-.145 1.313-.86 2.825-1.294 3.359-.964.535.331.972.177.972-.341 0-.519 1.125-1.158 2.5-1.421 2.494-.476 3.396.573 1.5 1.745-.55.34-1 1.041-1 1.559s.45.941 1 .941 1-.675 1-1.5.684-1.5 1.519-1.5c1.15 0 1.359.667.859 2.75-.887 3.699-1.087 3.823-3.145 1.961-1.217-1.102-2.245-1.315-3.256-.676-.812.514-1.084.941-.605.95.48.008.304.7-.391 1.538-1.095 1.319-.81 1.486 2.127 1.25 2.29-.184 3.311.133 3.142.977-.137.688.587 1.25 1.609 1.25 1.689 0 1.875 1.004 2.028 10.961l.168 10.96-8.777.334-8.778.334 9.646.205 9.647.206-.507-10.11c-.365-7.276-.138-10.797.807-12.565.977-1.824 1.019-2.638.164-3.166-.713-.441-.82-1.248-.28-2.121.721-1.167 1.142-1.184 2.447-.101 1.553 1.289 2.14.508 1.679-2.234-.074-.438 1.898-.692 4.381-.563 3.047.158 4.516.68 4.516 1.606 0 .755.45 1.094 1 .754.55-.34 1-1.846 1-3.346 0-2.012.526-2.768 2-2.879 1.449-.109 2 .466 2 2.087 0 2.739 1.761 4.638 4.301 4.638 1.687 0 1.831-.533 1.283-4.75-.97-7.467-.783-10.028 1.008-13.803 1.813-3.819 1.333-5.46-1.024-3.503-1.885 1.564-3.885.376-3.278-1.946.755-2.885-.647-4.017-6.03-4.868-6.034-.954-9.183.138-12.419 4.307l-2.281 2.937-.68-2.437c-1.014-3.631-1.01-16.467.006-19.122.488-1.273 2.452-3.97 4.366-5.994 1.914-2.023 3.762-4.414 4.107-5.313.354-.924 1.132-1.323 1.788-.917.723.446.892.281.448-.436-.392-.635-.321-1.155.157-1.155.479 0 1.847-.909 3.04-2.021 1.193-1.111 2.515-2.124 2.939-2.25.423-.126.645-.6.494-1.053-.151-.454.256-.497.905-.096.746.462.913.298.453-.446-.729-1.179 1.355-3.318 12.514-12.852 9.071-7.749 9.949-8.371 10.95-7.753.524.324.953.044.953-.623s.9-.174 2 1.094l2 2.306v-2.653c0-2.102.478-2.653 2.3-2.653 1.265 0 2.728-.412 3.25-.916.523-.503 3.213-1.152 5.98-1.441 2.766-.289 6.207-.973 7.647-1.52 1.439-.547 2.847-.766 3.127-.485.281.28 1.88-.199 3.553-1.064 3.464-1.791 6.817-2.052 7.311-.57.184.553 2.244 1.115 4.578 1.25s4.246.61 4.249 1.055c.003.445.455.531 1.005.191.55-.34 1-.192 1 .33 0 .521 1.594 1.246 3.542 1.612 1.948.365 4.761 1.932 6.25 3.482 2.145 2.233 3.359 2.721 5.84 2.351 1.722-.257 3.436.026 3.809.629 1.097 1.775 4.978 1.255 6.288-.842 1.091-1.747 1.486-1.804 3.991-.574 1.529.75 4.468 1.673 6.53 2.05 4.064.742 4.359.063 3.787-8.725-.096-1.478.305-3.584.891-4.679 3.027-5.655 2.879-16.339-.257-18.633-1.846-1.35-2.344-4.035-.541-2.921.712.44.897.185.5-.691a48.29 48.29 0 01-1.246-3.139c-.339-.962-1.036-1.75-1.549-1.75-1.232 0-5.763-5.186-5.803-6.643-.018-.629-.819-1.45-1.782-1.824-2.452-.955 1.577-4.222 6.296-5.108 2.741-.514 3.74-1.401 5.134-4.56.979-2.219 2.256-3.72 2.942-3.456 2.057.789 2.428-2.312.407-3.394-2.781-1.488-4.156-1.242-3.823.683.208 1.201-1.021 2.208-4.206 3.445-6.014 2.336-8.915 2.373-8.467.107.191-.962.607-2.988.926-4.5l.579-2.75h10.571c9.739 0 10.718-.177 12.447-2.25 1.033-1.238 1.892-2.812 1.911-3.5.018-.687.932-1.25 2.03-1.25 1.099 0 3.756-1.589 5.906-3.532 2.609-2.356 4.061-3.105 4.366-2.25.504 1.414 5.731-2.752 5.731-4.567 0-.55-1.123.056-2.496 1.345-1.373 1.29-2.74 2.101-3.038 1.803-1.434-1.433-.621-10.936 1.467-17.156 1.536-4.576 2.128-8.153 1.779-10.75-.297-2.218-.102-3.893.453-3.893 1.883 0 .309-4.511-1.915-5.487-2.334-1.024-3.04-2.513-1.191-2.513.582 0 .781-.45.441-1s-1.423-1-2.406-1c-.984 0-2.277-1.012-2.874-2.25-.596-1.238-1.115-1.687-1.152-1-.041.751-1.477 1.25-3.599 1.25-3.558 0-3.816-.274-4.888-5.184-.752-3.443-5.579-6.872-10.628-7.549-5.331-.715-4.975-1.822 1.05-3.268 5.587-1.34 8.397-3.729 3.152-2.68-3.616.723-3.739.502-1.569-2.81 2.011-3.069 1.34-4.113-3.186-4.962-2.385-.447-3.794-1.339-4.128-2.613-.278-1.064-1.015-1.998-1.639-2.076-.623-.078.667-.418 2.867-.756s4.297-.2 4.66.306c.364.506 2.086-.278 3.827-1.744 1.742-1.465 3.919-2.7 4.84-2.743 1.376-.065 1.406-.18.173-.65-.825-.314-1.831-1.066-2.235-1.671-.437-.654-.747-.289-.765.9-.025 1.658-.196 1.743-.997.5-.683-1.062-.503-1.846.616-2.683 1.624-1.216.983-3.807-.686-2.775-.511.315-1.862-.079-3.001-.877-1.51-1.057-1.714-1.595-.752-1.979 1.093-.437 1.092-.542-.001-.607-.958-.057-.847-.554.402-1.802 1.027-1.028 2.873-1.603 4.571-1.425 1.566.164 2.848-.185 2.848-.777 0-.591.9-1.075 2-1.075s2-.486 2-1.08c0-.737 2.138-.85 6.75-.356 12.508 1.34 12.151 1.381 15.292-1.76 1.632-1.632 3.026-4.156 3.111-5.631.083-1.47.196-3.893.25-5.384.111-3.091 2.863-6.789 5.052-6.789 3.277 0 8.297-5.862 8.993-10.501.548-3.655 1.128-4.605 3.113-5.104 1.341-.336 2.439-1.013 2.439-1.503 0-.491 1.238-.907 2.75-.926 1.512-.019 6.174-.847 10.36-1.839 9.118-2.163 11.297-1.326 11.087 4.261-.115 3.054-1.711 6.929-10.796 26.208-3.1 6.58-3.266 9.961-.401 8.172 1.1-.687 2-2.228 2-3.425 0-1.197.506-2.345 1.125-2.551.619-.207 1.125-1.602 1.125-3.102 0-1.5.394-2.97.875-3.267.481-.298.875-1.359.875-2.36 0-1 .686-2.387 1.524-3.083.838-.696 1.304-1.485 1.035-1.754-.269-.269-.006-1.391.584-2.493 1.829-3.418 2.956.086 2.256 7.017-.436 4.312-.286 6.25.485 6.25.614 0 1.116 1.098 1.116 2.441 0 3.12 1.42 3.997 3.348 2.068 1.931-1.931 3.03-1.935 2.29-.009-.316.825-.139 1.5.393 1.5.533 0 .969.45.969 1s-.927 1-2.059 1c-1.132 0-1.781-.45-1.441-1 .34-.55.141-1-.441-1s-1.059.9-1.059 2c0 1.284-.667 2-1.862 2-1.025 0-5.089 1.33-9.032 2.956-3.943 1.626-7.785 2.721-8.537 2.432-2.591-.994-2.501 1.322.098 2.506 2.314 1.054 2.424 1.322.987 2.396-3.008 2.251-.388 4.377 3.612 2.931 1.857-.672 4.132-1.221 5.055-1.221s1.679-.441 1.679-.98c0-.563-2.017-.792-4.75-.539l-4.75.439 3.25-1.463c1.788-.804 3.25-2.082 3.25-2.839 0-1.956 5.029-3.785 10.408-3.785 3.295 0 4.592-.4 4.592-1.416 0-1.914 1.639-1.801 2.393.165.936 2.438.719 5.418-.393 5.418-.55 0-1-.675-1-1.5 0-2.233-3.105-1.815-3.71.5-.345 1.318-1.364 2-2.99 2-1.524 0-2.308.476-2.051 1.246.228.685 1.239 1.247 2.247 1.25 3.345.008 2.766 2.351-.685 2.776l-3.311.408 3.214.16c3.14.156 3.211.264 3.121 4.734-.078 3.882-.459 4.713-2.523 5.498-3.101 1.179-2.078 2.928 1.713 2.928 3.684 0 9.975-2.955 9.975-4.685 0-2.277.145-2.785 1.134-3.976.628-.757.575-1.401-.151-1.849-.769-.476-.602-1.253.542-2.518.932-1.03 1.401-2.63 1.073-3.662-1.817-5.727-2.907-18.001-1.666-18.768 1.632-1.009 1.271-2.834-.432-2.18-.825.316-1.493.252-1.485-.143.025-1.17 1.848-3.715 2.699-3.768 2.354-.147 5.286-1.757 5.286-2.902 0-.724 1.801-2.944 4.003-4.933 3.658-3.305 5.138-4.067 7.247-3.734 1.609.254.641-2.933-1.25-4.114-2.53-1.58-2.53-2.465 0-3.268 2.01-.638 2.869-4.5 1-4.5-.55 0-1-.9-1-2s.45-2 1-2 1-.702 1-1.559-.45-1.281-1-.941c-1.38.853-1.265-2.835.133-4.233.669-.669.809-1.876.341-2.95-.435-.999-.707-2.193-.604-2.653.103-.459-1.288-.528-3.091-.152-3.118.649-3.181.606-1.279-.883 1.1-.861 2.714-1.58 3.586-1.597 1.254-.025 1.598-1.237 1.643-5.782.031-3.162.368-7.325.748-9.25.454-2.301.367-3.043-.254-2.165-.737 1.04-1.066.875-1.491-.75-.299-1.147-.137-2.085.362-2.085 2.447 0 .926-17.247-2.261-25.636-2.65-6.977-2.982-8.741-2.037-10.815.722-1.585.776-2.695.15-3.082-.538-.333-.72-1.024-.403-1.536.316-.512-.072-.931-.863-.931-1.441 0-2.27-1.631-5.081-10-.832-2.475-2.936-8.325-4.676-13-1.74-4.675-3.377-9.46-3.638-10.634-.377-1.698-1.465-2.265-5.338-2.779-2.676-.355-5.135-1.082-5.465-1.616-.33-.534-1.05-.971-1.6-.971s-.722.45-.382 1c.34.55-.11 1-1 1s-1.34-.45-1-1c.34-.55-.282-1-1.382-1-4.388 0-2.892 2.17 3.571 5.181 3.746 1.745 7.509 3.128 8.362 3.073 1.068-.069 2.119 1.826 3.372 6.073 1.001 3.395 2.604 7.748 3.563 9.673 1.57 3.152 2.814 7.912 3.528 13.503.28 2.191.783 3.984 5.43 19.341 1.722 5.69 2.874 11.153 2.561 12.14-.728 2.295-5.505 3.379-5.505 1.25 0-1.204-.816-1.345-4.25-.737-7.513 1.331-8.008 1.221-8.94-1.997-4.183-14.45-4.516-16.01-5.334-24.995-1.222-13.426-5.284-24.759-9.276-25.879-5.549-1.556-8.641-1.728-10.755-.597-1.936 1.036-2.587.971-3.953-.394-2.267-2.267-3.758-2.048-2.97.435.498 1.568.15 2.203-1.432 2.617-2.476.647-2.431.426-.742 3.684.742 1.429 1.642 2.306 2 1.947.359-.358.652-.343.652.033 0 1.643 4.189 20.386 5.062 22.649.531 1.375 1.169 4.3 1.418 6.5.249 2.2.732 4.962 1.073 6.137.342 1.176.132 2.44-.466 2.809-.598.37-1.087 1.122-1.087 1.672 0 .55.403.751.895.447.493-.305 1.183.195 1.534 1.111.351.915.123 1.983-.508 2.373-.704.435-.76.852-.147 1.08.551.204 1.258 2.242 1.571 4.528.314 2.286.864 5.329 1.224 6.763.371 1.476.156 3.206-.494 3.99-1.19 1.433-5.075 1.03-5.075-.527 0-.485-.849-.883-1.887-.883-1.331 0-2.016-.882-2.326-3-.444-3.023 1.499-4.356 2.551-1.75.335.831.531.73.583-.3.043-.852-.364-1.993-.906-2.535s-1.152-2.508-1.355-4.37c-.501-4.572-3.343-5.019-4.489-.706-.462 1.739-.577 3.386-.255 3.661.321.275.519 1.4.44 2.5-.079 1.1-.191 2.698-.25 3.551-.092 1.345-2.235 1.512-16.191 1.257-8.846-.162-16.496-.549-17-.86-.503-.311-.915-.089-.915.493S405.875 137 404.5 137c-1.798 0-2.5-.539-2.5-1.918 0-3.519-1.096-5.247-2.557-4.034-.728.604-1.095 1.695-.815 2.424.774 2.017-1.748 3.066-2.809 1.168-.528-.942-2.174-1.64-3.869-1.64-1.622 0-2.95-.45-2.95-1s.337-.947.75-.882c2.223.351 4.627-.231 3.649-.883-1.033-.689-1.75-2.903-3.073-9.485-.304-1.512-.952-2.75-1.439-2.75-.488 0-.887-.675-.887-1.5s-.675-1.5-1.5-1.5c-1.91 0-1.898-.745.045-2.688 1.394-1.394 1.173-1.905-2.25-5.207-2.311-2.23-4.082-3.259-4.53-2.633-.502.702-.739.7-.75-.008-.008-.569-.915-1.035-2.015-1.035s-2 .423-2 .94c0 .518-.9.126-2-.869-2-1.81-2.663-3.605-1.25-3.382 2.063.326 3.25-.265 3.25-1.618 0-.825.45-1.5 1-1.5s1-.607 1-1.348c0-1.24 2.541-1.792 8.575-1.862 1.372-.015 2.455-1.031 3.197-2.998.618-1.636 1.525-2.726 2.017-2.423.491.304 1.883-.787 3.093-2.424 1.802-2.437 1.938-3.077.748-3.533-2.191-.841-9.832.042-12.38 1.432-1.238.674-2.25.986-2.25.691 0-.294-.9.365-2 1.465-1.85 1.85-4.261 2.476-8 2.077-1.228-.131-1.253.006-.137.76 1.117.755 1.125 1 .04 1.362-1.05.35-1.104 1.395-.263 5.071 1.142 4.989-.326 7.066-3.267 4.625-1.076-.894-1.373-.756-1.373.638 0 1.694-.09 1.695-1.936.025-1.309-1.185-1.919-3.015-1.882-5.651.064-4.636-2.289-8.617-5.907-9.992-3.691-1.404-5.275-.469-5.275 3.113 0 2.012-.388 2.85-1.112 2.403-.611-.378-1.484-.085-1.939.651-.543.879-.798.308-.742-1.663.325-11.411-9.437-19.545-22.776-18.978l-7.651.325 2.379-2.38c2.091-2.091 2.799-2.259 5.845-1.385 3.062.878 25.438 1.369 33.496.735 1.755-.138 3.298-.962 3.718-1.986.395-.963 1.393-1.75 2.218-1.75.858 0 1.277-.585.977-1.366-.601-1.566 7.357-8.957 12.032-11.175 1.685-.8 4.994-1.53 7.353-1.622 2.359-.093 4.521-.544 4.804-1.003.284-.459 1.334-.834 2.335-.834 2.431 0 4.442-2.57 3.642-4.654-.491-1.281-.922-1.403-1.812-.513-1.383 1.383-4.14 1.58-3.31.236a1.106 1.106 0 00-.372-1.516c-.521-.322-1.229-.128-1.575.431-.758 1.226-4.51 1.366-4.51.168 0-1.183 6.93-3.907 10.25-4.029 1.904-.07 2.75.395 2.75 1.511 0 1.327.267 1.389 1.519.35 1.238-1.027 1.853-.957 3.328.378.996.901 2.788 1.638 3.982 1.638 1.194 0 2.171.408 2.171.906 0 .499.9.671 2 .384 1.7-.445 2-.031 2 2.76 0 1.806-.284 2.999-.631 2.652-.348-.347-1.473-.182-2.5.368-1.565.838-1.869.638-1.869-1.223v-2.224l-2.039 2.188c-2.185 2.346-3.961 2.852-3.961 1.13 0-.582-.45-.781-1-.441s-1 .053-1-.637c0-.691-1.575.271-3.5 2.137s-3.5 3.979-3.5 4.696c0 1.527 3.157 1.747 4.585.319 1.624-1.624 9.266-1.847 9.864-.287.389 1.013 1.01 1.097 2.444.329 1.777-.951 1.954-.592 2.326 4.707.221 3.155.038 6.164-.408 6.686-.469.549-.811.233-.811-.75 0-2.291-.675-2.151-4.285.887l-3.074 2.586 4.429-.216c2.437-.118 5.105.015 5.93.296.825.281 3.274.901 5.442 1.379 3.322.731 4.074 1.379 4.779 4.118.46 1.787 1.328 3.25 1.93 3.25.701 0 .624.566-.214 1.576-.803.967-.936 1.837-.344 2.25.531.371.89 1.799.799 3.174-.092 1.375.098 2.942.423 3.482.325.541.648 1.666.719 2.5.518 6.096 1.738 10.968 2.612 10.428.578-.358.894.173.732 1.231-.537 3.515 1.068 7.359 3.074 7.359 1.089 0 2.212.941 2.607 2.187.611 1.924.833 1.998 1.846.611 1.012-1.383 1.29-1.284 2.28.813.933 1.979.859 2.389-.432 2.389-1.205 0-1.074.421.576 1.852 1.174 1.018 1.843 2.143 1.486 2.5-.357.356.504.648 1.911.648 3.187 0 4.463-2.775 2.079-4.519-1.498-1.095-1.542-1.49-.332-2.949.82-.988 1.012-1.963.463-2.358-.515-.371-1.079-4.437-1.254-9.037-.379-9.986-1.381-13.137-4.176-13.137-1.681 0-1.933-.444-1.417-2.5.481-1.917.239-2.5-1.037-2.5-1.496 0-1.515-.215-.184-2.115 1.507-2.151 1.159-5.329-.473-4.32-.492.304-.895.076-.895-.506S435.45 76 436 76s1-.675 1-1.5.45-1.5 1-1.5 1-1.35 1-3-.45-3-1-3-1 .511-1 1.135-.9-.009-2-1.408c-1.1-1.398-2-3.709-2-5.135 0-1.425-.45-2.592-1-2.592s-1.007.563-1.015 1.25c-.011.845-.318.773-.948-.224-.518-.819-.546-1.711-.063-2.01 2.326-1.438 2.249-5.998-.117-6.945-2.007-.804-1.677-.954 2.226-1.008 2.521-.034 4.895.249 5.276.629.381.381 1.693.836 2.917 1.01 1.223.175 4.332 1.213 6.909 2.308 5.016 2.13 11.3 2.632 12.319.983.343-.554-.193-1.32-1.191-1.702-.997-.382-3.242-1.663-4.99-2.848-1.747-1.185-5.964-2.702-9.371-3.373C437.411 45.783 431 43.182 431 41.815c0-.448.45-.815 1-.815s1-1.125 1-2.5-.394-2.5-.875-2.5c-.76 0-1.269-1.491-2.677-7.842-.49-2.208-1.448-2.628-1.448-.634 0 1.773-.067 1.769-1.468-.083-1.123-1.484-1.479-1.588-1.516-.441-.039 1.242-.197 1.263-.92.122-.508-.803-1.401-1.052-2.139-.596-.82.507-1.017.38-.56-.36.457-.739.16-.933-.839-.55-1.016.39-1.833-.186-2.387-1.682-.463-1.252-1.095-1.862-1.406-1.355-.981 1.602-1.234 5.872-.425 7.171.428.688.397 1.25-.068 1.25-.466 0-.914.9-.997 2-.083 1.1.384 2.007 1.037 2.015.71.009.584.406-.312.985-.825.533-1.05.983-.5 1 .55.017.346.444-.452.949-1.993 1.261-3.048.393-3.048-2.508 0-1.343-.45-2.441-1-2.441s-1 1.125-1 2.5c0 3.009.358 2.989-8.17.449-4.471-1.331-6.643-2.443-6.194-3.17.449-.726.116-.898-.947-.49-.902.346-3.224-.033-5.161-.842-3.398-1.42-3.599-1.38-5.774 1.148-2.741 3.184-5.835 4.475-11.72 4.888-2.456.172-4.601.697-4.766 1.165-.8 2.27-2.15 3.543-3.12 2.944-.696-.43-.382-1.358.888-2.628C367.04 36.96 367.624 35 366.218 35c-.43 0-.88-1.186-1-2.635-.246-2.975-4.794-7.745-6.423-6.738-1.819 1.124-10.257 1.128-10.988.005-.406-.624-1.081-.044-1.632 1.402-.517 1.356-2.905 3.891-5.307 5.633-2.403 1.741-8.037 6.916-12.522 11.5-25.593 26.155-28.116 29.013-31.218 35.375-1.732 3.552-3.594 6.458-4.138 6.458-.545 0-.99.669-.99 1.487 0 .817-1.565 2.14-3.478 2.939-1.912.799-4.05 1.946-4.75 2.548-.699.602-2.074 1.646-3.054 2.32-1.529 1.052-1.62 1.687-.645 4.487 1.334 3.825-.24 6.67-3.253 5.882-2.235-.584-2.303.9-.222 4.837 1.918 3.626 6.402 15.795 6.402 17.371 0 2.014-1.75 1.193-2.351-1.104-.462-1.769-.839-1.977-1.816-1-1.879 1.879-4.944 1.478-7.571-.991-2.782-2.613-4.211-1.364-4.26 3.724-.045 4.6-1.057 7.416-2.471 6.873-2.209-.847-2.783 2.687-3.107 19.127-.547 27.752-1.324 33.5-4.531 33.5-1.041 0-1.893.408-1.893.906 0 .499.9.671 2 .384 1.391-.364 2-.031 2 1.093 0 1.006-.851 1.623-2.25 1.632-3.158.022-4.924 1.368-4.216 3.214.331.863.1 1.879-.514 2.259-.786.485-.805 1.066-.066 1.957 1.76 2.12 1.939 7.789.323 10.255-2.427 3.704-2.792 2.792-2.515-6.287.201-6.563-.035-8.487-1-8.159-.694.236-1.311 1.513-1.37 2.838-.06 1.324-.173 3.871-.25 5.658-.169 3.859-1.314 4.165-3.099.83-.713-1.331-1.868-2.201-2.568-1.932-1.406.539-2.908-1.319-2.949-3.648-.032-1.85-4.293-1.467-6.605.593-.868.774-2.106 1.407-2.75 1.407-.644 0-1.171.45-1.171 1s-.338.929-.75.841c-.412-.087-1.543.188-2.513.612-.995.435-2.342.29-3.092-.332-.731-.607-1.614-.818-1.963-.469s-.34-2.243.02-5.759c1.044-10.183.732-67.68-.409-75.531-1.26-8.676-1.646-9.362-5.263-9.362-3.218 0-8.03-4.84-8.03-8.077 0-1.058-.45-1.923-1-1.923-1.529 0-1.189-4.598.441-5.951 1.565-1.299 1.037-4.122-.704-3.767-.591.12-1.513-1.582-2.05-3.782-.536-2.2-1.248-4.225-1.581-4.5-1.067-.88-1.141-3-.106-3 .55 0 1.014-.787 1.032-1.75.017-.963.662-2.582 1.433-3.6 1.078-1.423 1.149-2.403.308-4.25-1.289-2.828-3.265-3.102-4.693-.65-.604 1.037-1.032 1.226-1.05.465-.023-.986-.508-1.029-2.083-.187-1.628.872-2.985.648-6.554-1.08-5.091-2.464-5.2-3.672-1.187-13.137 1.093-2.579 1.73-5.106 1.414-5.616-.315-.51.317-1.733 1.404-2.716 1.087-.984 1.976-2.334 1.976-2.999 0-1.898 4.052-6.566 5.124-5.903 1.411.872 3.582-1.271 4.338-4.282.529-2.106.104-3.078-2.152-4.923-3.295-2.697-5.31-3.002-5.31-.805 0 1.096-.583 1.383-1.939.952-1.342-.426-2.277.015-3.035 1.433-.669 1.249-2.155 2.079-3.811 2.127-1.493.043-2.152.306-1.465.583 2.12.856 1.391 3.348-1.75 5.991-1.65 1.389-3 2.954-3 3.478 0 1.896-5.151 7.127-7.333 7.447-3.474.51-5.667 1.667-5.667 2.989 0 2.083-4.904 1.054-7-1.468-1.265-1.523-5.919-3.23-9.285-3.405-2.038-.107-3.708-.47-3.711-.807-.005-.799-9.317-3.585-14.749-4.414-5.796-.884-6.022-1.923-.951-4.378 3.962-1.918 8.696-5.53 8.696-6.634 0-.254-1.377-.461-3.059-.461-1.785 0-2.802.417-2.441 1 .34.55-.108 1-.996 1-.887 0-4.264 1.8-7.504 4-3.24 2.2-6.365 4-6.945 4-.58 0-1.055.415-1.055.923s-1.35 2.273-3 3.923c-3.903 3.903-3.829 4.078 1.541 3.64 3.193-.26 5.5.195 7.766 1.533 1.774 1.046 6.143 2.641 9.709 3.543 19.021 4.812 26.769 10.215 21.616 15.072-3.024 2.851-5.635 3.608-7.399 2.144-.833-.691-2.83-1.323-4.438-1.403-1.608-.081-3.936-1.099-5.174-2.261-1.237-1.163-2.558-2.114-2.935-2.114-1.938 0 .142 2.142 8.255 8.5 9.368 7.342 10.811 9.883 6.533 11.51-1.389.528-2.797 1.668-3.129 2.532-.332.865-1.206 1.342-1.942 1.059-1.827-.701-2.826 1.184-1.484 2.801.824.993.461 1.945-1.482 3.889-1.967 1.966-2.487 3.356-2.207 5.891.317 2.864.487 3.045 1.239 1.318 1.202-2.759 4.531-6.995 4.531-5.765 0 .552.787 1.001 1.75.998 3.619-.014 4.057.289 3.499 2.423-.387 1.478-.2 1.932.593 1.441.637-.393 1.158-1.337 1.158-2.097s.498-1.69 1.106-2.065c.789-.488.946 1.565.546 7.175-.308 4.323-1.031 8.016-1.606 8.208-.575.192-1.046 1.843-1.046 3.671 0 3.209-.127 3.314-3.75 3.11-2.062-.117-4.703-.733-5.869-1.37-1.165-.637-2.402-.874-2.75-.527-.347.347-.631.146-.631-.447s-.787-.95-1.75-.794c-.963.157-2.875-.304-4.25-1.023-3.572-1.868-10.573-4.064-17.323-5.433-4.759-.965-5.711-1.485-5.21-2.843 4.913-13.317 4.515-12.767 11.778-16.28 8.149-3.943 9.397-5.215 9.94-10.132.365-3.314.16-3.75-1.769-3.75-2.242 0-3.375-2.257-3.402-6.774-.013-2.029-.443-2.245-4.001-2-2.193.151-4.204.837-4.469 1.524-.265.688-1.309 1.25-2.321 1.25-1.013 0-2.714.661-3.782 1.468-1.067.808-2.747 1.483-3.731 1.5-.985.018-3.235 1.043-5 2.279-1.766 1.235-3.331 2.294-3.48 2.353-.148.058-.46 2.022-.693 4.363-.673 6.765-1.527 5.978-1.418-1.306.059-3.949.53-6.657 1.157-6.657.582 0 .777-.281.434-.624-.344-.343.288-2.412 1.403-4.597 2.863-5.613 1.674-5.798-1.58-.246-2.604 4.444-4.859 5.814-2.59 1.573.952-1.778.588-2.553-2.627-5.585C92.263 66.584 90.191 65 89.712 65c-1.437 0 .404-6.421 2.151-7.5.891-.55 4.964-2.125 9.052-3.5 9.247-3.11 9.935-4.538 2.628-5.451-5.681-.71-7.091-1.923-3.543-3.049 1.1-.349 2-1.279 2-2.067 0-.788.45-1.433 1-1.433s1-.684 1-1.52c0-3.38 19.425-13.613 28.5-15.014 2.2-.339 5.125-1.034 6.5-1.543 4.52-1.674 22.401-3.478 26.521-2.675 2.189.426 7.129 1.202 10.979 1.723 3.85.521 8.35 1.322 10 1.778 4.45 1.232 15.5.365 15.5-1.216 0-.906-2.597-1.473-8.75-1.91-8.189-.581-20.547-1.974-26.25-2.957-1.375-.238-7-.065-12.5.384m118.132 7.124c-1.028.582-3.575.829-5.662.549-2.665-.358-4.718.054-6.906 1.384-1.828 1.112-4.96 1.893-7.588 1.893-3.9 0-4.476.274-4.476 2.13 0 1.929.42 2.083 4.443 1.629 4.772-.538 6.711 1.146 4.452 3.868-.627.755-.747 1.38-.267 1.388.479.009.422.346-.128.75-1.698 1.248-3.651 7.685-2.454 8.084.604.201.369.858-.547 1.528-1.076.787-1.362 1.818-.864 3.115.67 1.744.872 1.641 2.01-1.026.696-1.631 1.285-2.403 1.31-1.716.025.688.855 1.25 1.845 1.25s2.362.563 3.049 1.25c.724.725 5.533 1.548 11.45 1.959 5.611.389 11.663.943 13.451 1.23 2.933.471 3.25.28 3.25-1.959 0-2.767-1.461-3.328-2.386-.917-.33.86-.941 1.356-1.357 1.102-.886-.54-12.512-2.025-16.507-2.108-2.796-.058-3.545-1.756-1.911-4.331 1.359-2.142 19.069-2.145 22.093-.004 2.696 1.908 5.068.897 5.068-2.161 0-2.095-11.213-4.612-15.93-3.576-1.947.427-3.07.279-3.07-.406 0-.593.689-1.079 1.531-1.079.843 0 1.747-.562 2.011-1.25.893-2.329 13.51-1.404 15.57 1.14 1.027 1.268 2.003 1.733 2.375 1.131 1.021-1.653 2.513-1.171 2.513.812 0 2.459.738 3.048 3.058 2.442 2.073-.543 2.649-3.72.874-4.817-.588-.363-.827-1.29-.532-2.059.328-.855-.113-1.399-1.133-1.399C297.88 36 282 31.653 282 30.726c0-.548 1.18-.662 2.75-.266 1.512.381 6.537.996 11.165 1.366 8.34.668 8.424.702 9.5 3.852 1.458 4.272 1.999 4.64 3.785 2.578C311.468 35.637 308.002 28 304.545 28c-1.308 0-2.556-.534-2.774-1.187-.524-1.572-26.487-2.141-29.139-.639M43.9 63.982c-5.254 3.56-7.355 3.866-6.595.96.402-1.539.117-1.977-1.133-1.737-.92.178-1.707.766-1.75 1.309C33.916 70.951 29.53 77 25.368 77c-.554 0-1.938 1.071-3.076 2.38-1.138 1.308-2.66 2.576-3.381 2.816-1.033.345-.928 1.248.495 4.246 1.872 3.946 1.975 22.636.147 26.808-.62 1.415-.268 1.75 1.84 1.75 2.675 0 3.798 3.146 1.607 4.5-.55.34-.948 2.954-.884 5.809.064 2.855.31 4.466.546 3.58 1.319-4.931 8.692-4.105 9.836 1.103.865 3.938 2.502 3.869 2.502-.107v-3.115l2.602 1.705c2.526 1.655 2.682 1.627 5.378-.956 2.479-2.374 2.685-3.057 1.923-6.34-.471-2.023-.866-5.142-.879-6.929-.032-4.368-1.618-4.138-2.345.339-.32 1.974-1.087 4.198-1.704 4.941-1.713 2.064-3.748.735-3.207-2.095.509-2.666-1.55-2.595-4.791.166-1.667 1.421-3.303.771-4.199-1.668-.358-.977.706-2.82 2.823-4.891 1.87-1.828 3.399-3.935 3.399-4.682 0-.748.563-1.248 1.25-1.11.688.137 1.254-.556 1.259-1.542.005-.985.539-2.12 1.187-2.52 1.932-1.194 4.116-8.162 5.76-18.375.238-1.478.928-4.526 1.533-6.773.605-2.247.829-4.526.497-5.063-.332-.537-.17-.977.361-.977s1.655-2.025 2.498-4.5c1.81-5.31 1.372-5.459-4.445-1.518m36.115 6.268c-.008.963-.609 1.75-1.335 1.75-2.063 0-5.674 4.747-5.511 7.245.081 1.24-.362 4.03-.984 6.199-.622 2.169-1.03 4.018-.908 4.109 2.703 2.008 5.368 1.057 6.565-2.342 2.18-6.191 2.468-9.132 1.061-10.828-1.421-1.712.889-4.383 3.788-4.383.72 0 1.309-.477 1.309-1.059s-.5-.75-1.112-.372c-.611.378-1.504.067-1.984-.691-.691-1.09-.877-1.012-.889.372m237.64 9.579c-1.94 2.143-2.215 5.31-.405 4.657.688-.248 2.375.47 3.75 1.594 2.495 2.041 2.495 2.044.177 1.392-1.634-.459-2.738-.107-3.719 1.187-2.098 2.769-1.808 5.341.601 5.341 1.132 0 1.781-.45 1.441-1-.34-.55.11-1 1-1s1.34.45 1 1c-.34.55-.141 1 .441 1S323 93.1 323 92c0-1.111.667-2 1.5-2 .825 0 1.5.75 1.5 1.667 0 .916.271 1.395.603 1.064 1.209-1.21-.854-10.982-2.712-12.84-2.376-2.376-4.126-2.394-6.236-.062M77.128 93.344c-.755.911-1.993 1.656-2.75 1.656-.758 0-1.378.702-1.378 1.559 0 .951.464 1.272 1.191.823.655-.405.249.806-.903 2.691-3.613 5.914-4.497 10.779-2.217 12.203 1.264.79 1.967 2.415 2.039 4.715.106 3.423.13 3.401.978-.918.477-2.436 1.376-4.742 1.996-5.125 1.257-.777 2.365-11.022 1.172-10.832-2.271.362-2.369-.367-.34-2.527 1.246-1.326 2.112-3.196 1.925-4.156-.316-1.618-.441-1.624-1.713-.089m219.209 1.004c-6.832 1.891-8.484 4.052-7.696 10.068.366 2.796 1.227 5.984 1.914 7.084.687 1.1 1.566 3.517 1.953 5.371.43 2.061 1.427 3.561 2.565 3.858 1.986.52 3.447 3.62 2.46 5.218-.328.531.369 2.075 1.549 3.432l2.146 2.468 2.312-2.674c2.173-2.511 2.359-2.556 3.06-.749.411 1.058 1.586 2.762 2.61 3.786 1.025 1.025 1.616 2.263 1.314 2.752-.302.488-.016 2.059.636 3.49.907 1.991.91 2.878.013 3.775-1.841 1.841-1.377 9.191.947 14.986 1.166 2.908 2.516 6.412 2.999 7.787.613 1.741.726.759.373-3.236-.278-3.155-1.21-7.81-2.071-10.345-.861-2.535-1.327-4.847-1.036-5.137 1.504-1.504 3.482 1.209 5.015 6.876.943 3.488 1.983 7.017 2.311 7.842.328.825.507 2.4.398 3.5-.165 1.659-.023 1.744.831.5.566-.825 1.036-2.232 1.045-3.128.022-2.389 2.622-4.338 3.329-2.495.302.785.27 1.706-.07 2.046-.34.34-.722 1.396-.849 2.347-.127.952-.564 2.855-.971 4.23l-.74 2.5 2.7-2.656c2.805-2.759 2.889-6.336.228-9.786-.855-1.109-.814-1.263.178-.666 1.516.911.814-3.132-1.325-7.633-.753-1.584-.915-2.981-.384-3.309.505-.312.919-.091.919.491s.792 1.851 1.761 2.82c.969.969 2.354 3.556 3.078 5.75 1.213 3.671 1.61 3.993 4.989 4.041 2.193.031 4.152-.573 4.863-1.5 1.587-2.069 4.482-15.188 4.664-21.133.08-2.612.37-4.735.645-4.716 2.52.171 2.75-.398 1.319-3.265-1.765-3.538-.839-5.369 1.262-2.496 1.255 1.716 1.39.823 1.169-7.746-.138-5.327-.566-9.687-.953-9.69-.386-.004-.436-2.262-.109-5.02l.594-5.014-3.882 3.555c-4.878 4.469-6.038 4.741-18.437 4.318l-10.14-.345.635 3.97c.35 2.184 1.177 4.326 1.839 4.76 1.445.949 5.93.021 6.814-1.409.409-.662 1.636-.494 3.491.478l2.861 1.499-4.194 1.13c-2.307.621-5.336.842-6.732.492-2.92-.733-3.125.094-1.054 4.245.816 1.635 1.681 4.517 1.922 6.404 1.252 9.779 1.802 16.377 1.33 15.931-1.592-1.5-7.735-27.074-7.735-32.199 0-5.369-2.849-13.619-4.227-12.241-.279.279-1.903-1.083-3.609-3.026-3.314-3.775-4.338-3.981-10.827-2.186M365 112.025c0 .536.498.975 1.107.975s.848.675.531 1.5c-.316.825-.264 2.287.116 3.25.55 1.393.825 1.138 1.35-1.25l.659-3 .119 2.809c.067 1.595.55 2.542 1.118 2.191.55-.34 1-.172 1 .374 0 .994 3.843 2.696 5.25 2.324.413-.109.743.814.735 2.052-.009 1.269-.336 1.782-.75 1.177-1.383-2.019-4.374-2.443-6.539-.927-1.177.825-1.591 1.556-.919 1.625 2.043.209 5.086 1.272 8.971 3.134 1.237.592 2.485.841 2.774.552.853-.853-.649-3.85-1.627-3.246-.492.304-.888-.486-.88-1.756.013-1.858.205-2.016.985-.809.78 1.207.972 1.049.985-.809.008-1.288-.427-2.036-.985-1.691-.55.34-1-.009-1-.774 0-.766.675-1.393 1.5-1.393s1.5.825 1.5 1.834c0 1.008.45 1.833 1 1.833 2.404 0 .961-5.064-1.735-6.089a139.222 139.222 0 01-5.75-2.379c-4.157-1.845-9.515-2.694-9.515-1.507m-246 17.1c0 .481.563.882 1.25.89.833.011.75.339-.25.985-1.055.682-1.118.974-.215.985.993.012 1.031.49.169 2.101-.614 1.147-1.358 1.843-1.654 1.547-1.636-1.636-3.434 2.544-2.386 5.549.602 1.728.872 3.365.599 3.638-1.001 1.002 1.683 3.042 3.224 2.451.992-.381 1.34-.205.926.466-.429.694.087.88 1.449.523 1.903-.497 1.998-.335.951 1.622-.64 1.196-1.591 1.91-2.113 1.587-.542-.335-.95 1.203-.95 3.579 0 3.581.246 4.063 1.75 3.43.963-.405 2.65-.828 3.75-.94 1.1-.112 1.83-.616 1.623-1.121-.208-.504-.593-1.479-.857-2.167-.264-.687-1.133-1.25-1.932-1.25-.814 0-1.149-.49-.763-1.115.419-.677 2.408-.922 5.059-.623 3.283.37 4.37.15 4.37-.885 0-.757-.675-1.433-1.5-1.502a79.685 79.685 0 01-2.75-.283c-.687-.088-1.563.293-1.946.846-1.73 2.498-1.572-.469.211-3.968 1.092-2.141 1.957-4.81 1.924-5.931-.04-1.314-.931-.26-2.505 2.961-1.837 3.76-2.299 4.256-1.863 2 .319-1.65 1.936-5.848 3.593-9.328 1.657-3.481 2.812-6.529 2.567-6.774-.711-.711-2.28 1.755-4.105 6.452-.929 2.393-2.846 5.993-4.259 8l-2.569 3.65.672-3c.37-1.65.918-4.492 1.218-6.315.3-1.823 1.393-3.843 2.429-4.49 1.036-.647 1.883-1.769 1.883-2.495 0-.725-.45-1.04-1-.7-.55.34-1 .198-1-.316s-1.125-.934-2.5-.934-2.5.394-2.5.875m247.93 8.625c-.046 4.347-.349 6.038-.852 4.75-.766-1.958-.796-1.955-1.468.158-.377 1.186-1.344 2.41-2.148 2.718-2.75 1.055-1.614 4.324 2.116 6.094 4.201 1.994 4.884 1.593 10.433-6.135l3.344-4.656-3.029.606c-6.062 1.212-7.61.026-7.086-5.431.257-2.67.082-4.854-.387-4.854-.469 0-.885 3.037-.923 6.75m-323.489 2.718c-1.49 1.127-1.592 1.483-.441 1.531 1.184.049 1.13.278-.257 1.085-1.356.79-1.526 1.452-.747 2.909 1.06 1.981-.337 3.883-1.486 2.023-.345-.559-1.009-1.016-1.475-1.016-1.562 0 1.177 6.664 2.832 6.891 5.893.81 12.133-.207 12.133-1.977 0-.608-.877-.771-2.085-.387-2.001.635-2.02.563-.479-1.789 1.191-1.818 1.359-3.069.648-4.844-.747-1.869-.971-1.992-1.021-.561-.034 1.009-.625 1.643-1.313 1.411-.693-.235-1.185-1.831-1.104-3.584.165-3.571-1.853-4.227-5.205-1.692m375.158 2.507c1.154.467 4.233.817 6.842.777 2.892-.044 5.058.438 5.55 1.233.55.89 2.111 1.131 4.907.755 3.731-.5 4.257-.287 5.817 2.355 1.822 3.084 5.631 3.665 12.785 1.949l3-.72-2.913-.811c-1.602-.446-3.753-1.532-4.781-2.412-1.181-1.013-5.623-2.036-12.087-2.785-12.302-1.425-22.24-1.602-19.12-.341m-218.172 5.553c1.86 2.839 1.324 4.698-1.087 3.772-1-.383-2.244.247-3.331 1.688-2.058 2.729-4.009 1.924-4.009-1.654 0-1.854.409-2.391 1.5-1.972.914.35 1.5.001 1.5-.893 0-.966-1.028-1.469-3-1.469-2.859 0-3.001.199-3.022 4.25l-.022 4.25L187 154c-2.122-2.713-2.574-1.64-1.025 2.435.537 1.411 1.455 2.565 2.041 2.565.586 0 2.301.914 3.812 2.031 2.511 1.857 3.219 1.929 8.21.837 8.832-1.931 10.034-6.032 3.697-12.618-3.719-3.865-5.643-4.285-3.308-.722m-67.188 7.296c.292 2.44-.234 4.978-1.564 7.548l-2.004 3.871 2.209 1.667 2.21 1.666-3.045 4.203c-4.958 6.845-3.423 9.038 1.73 2.471 3.221-4.105 5.084-8.927 5.525-14.298.157-1.909.551-3.917.875-4.462.696-1.168-.762-5.456-1.893-5.567-.43-.042-1.615-.233-2.633-.426-1.589-.3-1.788.171-1.41 3.327m317.011-.609c-5.868.901-6.249 1.123-6.235 3.622.028 4.739 1.186 5.493 7.267 4.733 5.381-.672 5.527-.775 6.493-4.58.921-3.632.703-5.167-.692-4.863-.321.071-3.395.56-6.833 1.088m-174.574 8.915c-.333 1.276-1.105 1.919-1.924 1.605-1.038-.398-1.789 1.918-3.117 9.62-1.099 6.368-3.045 13.013-5.227 17.848-1.913 4.236-4.419 11.556-5.57 16.267-1.511 6.181-2.412 8.298-3.241 7.61-.632-.524-2.362-.82-3.845-.657-1.483.163-2.457-.091-2.165-.564.292-.472.054-.859-.528-.859-.588 0-1.059 1.999-1.059 4.5 0 4.272 1.102 5.762 2.54 3.435.431-.697 1.315-.471 2.559.655 1.878 1.699 2.73 5.04 1.015 3.981-1.138-.704-2.185 4.606-1.169 5.929.864 1.124-2.55 9.5-3.872 9.5-.468 0-1.183 1.688-1.59 3.75-.407 2.063-.927 3.239-1.156 2.614-.23-.624-2.732 1.262-5.561 4.193-2.828 2.93-5.578 5.059-6.109 4.731-.531-.328-.645-.077-.252.557.412.668.108 1.155-.721 1.155-.842 0-1.434-.978-1.434-2.368 0-1.568.549-2.328 1.625-2.25.894.065 1.513-.444 1.375-1.132-.137-.687.763-1.302 2-1.366 1.687-.087 1.813-.23.504-.573-1.388-.363-1.535-.852-.715-2.384.623-1.164.654-1.927.08-1.927-.524 0-1.181.563-1.46 1.25-.386.952-.747.905-1.512-.194-.734-1.055-.485-1.896.924-3.118 2.316-2.008 2.452-2.938.429-2.938-1.803 0-2.033-1.949-.25-2.118.688-.066 1.528-.085 1.868-.045.339.041.917-2.474 1.283-5.589.903-7.687 1.644-10.338 2.706-9.682.491.304.893.049.893-.566s.472-.827 1.048-.47c.576.356.974 1.395.885 2.309-.274 2.788.026 4.161.908 4.161.712 0 .85-9.508.16-11-.127-.275-.175-1.175-.106-2 .126-1.516-10.035-9.5-12.091-9.5-1.669 0-1.817 3.245-.209 4.579 1.903 1.579 1.766 2.593-.428 3.167-1.321.346-2.134-.321-2.915-2.39-.596-1.579-.671-2.615-.168-2.304.504.311.916.041.916-.6s-.692-.9-1.538-.576c-.875.336-1.783-.049-2.107-.893-1.274-3.32-4.473-.815-4.276 3.349.049 1.039.269 1.197.583.418.584-1.446 3.338-1.706 3.338-.315 0 2.776-2.141 6.13-3.743 5.861-1.884-.317-2.298 3.009-.803 6.454.545 1.256.306 1.75-.847 1.75-1.01 0-1.607-.854-1.607-2.3 0-2.668-1.726-4.742-3.408-4.097-.646.248-1.594-1.011-2.128-2.828-1.552-5.274-5.464-5.209-5.464.09 0 2.203.512 5.272 1.137 6.82 1.528 3.785 2.084 60.789.668 68.513-.938 5.113-1.761 6.447-8.027 13-19.036 19.909-19.902 21.008-18.112 22.985 2.769 3.061 9.3 1.778 8.014-1.574-.419-1.092.301-2.065 2.285-3.091 1.593-.824 5.247-3.752 8.122-6.508 7.273-6.974 7.697-6.672 5.603 3.99-.514 2.615-2.094 4.447-5.443 6.308l-3.252 1.808-1.171-2.808c-1.125-2.7-1.197-2.581-1.878 3.066-.834 6.918-2.926 13.756-4.005 13.09-1.205-.745-3.941.627-3.941 1.976 0 .675.655 1.227 1.456 1.227.801 0 1.294-.263 1.096-.584-.198-.321.722-.648 2.044-.727 1.322-.08 2.404.258 2.404.75s1.575.894 3.5.894c3.276 0 3.502-.208 3.53-3.25.05-5.294 1.815-.984 2.093 5.11.132 2.885.608 5.474 1.058 5.752.451.278.819.029.819-.553 0-.582.643-1.059 1.429-1.059.785 0 2.135-.707 3-1.571 1.428-1.429 1.571-1.389 1.571.441 0 1.106-.492 2.316-1.094 2.688-.602.372-.886 1.766-.631 3.099.409 2.141.159 2.371-2.156 1.98-3.969-.67-6.169-1.747-5.565-2.725.299-.483.246-2.461-.117-4.395-1.281-6.829-7.437-3.031-7.437 4.589 0 2.214.364 2.612 2 2.184 1.137-.298 2-.031 2 .618 0 .628-1.35 1.412-3 1.742-1.65.33-3 1.219-3 1.975s-.391 1.375-.869 1.375-1.124 1.569-1.435 3.488c-.312 1.918-1.72 4.557-3.131 5.864-1.411 1.308-2.565 2.888-2.565 3.513 0 .624-.562 1.16-1.25 1.19-1.449.064-5.463 4.886-6.323 7.594-.374 1.179.348.762 1.988-1.149 2.636-3.071 3.371-2.837 1.582.505-1.191 2.226.286 3.564 1.852 1.676.592-.713 1.656-3.031 2.364-5.151.762-2.283 2.001-3.956 3.037-4.104 2.396-.341 2.212.585-1.095 5.509-3.033 4.516-3.407 10.349-.51 7.945 1.997-1.658 2.715-.461 1.647 2.745-.538 1.614-1.924 3.035-3.355 3.441-11.253 3.191-13.674 4.937-7.995 5.768 2.251.33 2.245.356-.409 1.733-2.67 1.385-7.092 1.442-9.234.118-1.649-1.019-2.763 8.58-1.311 11.292 1.227 2.292 1.498 2.2 6.384-2.177 1.044-.935 3.3-2.373 5.013-3.195 1.713-.822 5.14-3.306 7.615-5.521 2.475-2.215 4.809-4.04 5.186-4.056.377-.015 1.698-1.828 2.934-4.028 1.548-2.754 2.97-4.039 4.564-4.125 3.469-.187 3.525-.207 7.611-2.62 2.088-1.232 4.355-3.571 5.038-5.195 1.106-2.631 7.601-7.899 15.911-12.907 2.818-1.698 3.521-3.562 1.756-4.653-1.431-.884-1.235-5.06.296-6.331 1.452-1.204 5.636-1.173 5.829.044.069.433.238 1.237.375 1.787.137.55.306 1.45.375 2 .187 1.495 1.652 1.233 6.886-1.231 2.606-1.227 5.458-2.11 6.336-1.963.878.147 2.171-.424 2.872-1.269.702-.845 2.052-1.537 3-1.537 5.014 0 13.031-7.833 13.031-12.732 0-1.169.659-2.784 1.465-3.59.939-.939 1.684-4.549 2.077-10.071.572-8.038.485-8.607-1.311-8.607-1.058 0-3.43-.751-5.271-1.67-2.392-1.193-3.458-1.336-3.737-.5-.562 1.687-2.223 1.441-2.223-.33 0-2.657-1.856-1.594-2.184 1.25-.273 2.378-.815 2.791-4.004 3.057-2.447.203-3.837.876-4.134 2-.263.997-.494.588-.562-.998-.064-1.48-.524-2.943-1.022-3.251-.498-.308-.653-1.53-.343-2.715.381-1.457.196-1.928-.573-1.453-.625.386-2.089.193-3.253-.43-1.763-.943-2.354-.792-3.543.905-.784 1.12-2.07 2.68-2.857 3.467-.786.786-1.151 1.708-.811 2.049.555.555-2.05 1.04-3.964.737-.412-.065-.75.381-.75.99 0 .703-.98.863-2.675.438-2.129-.535-2.458-.404-1.615.641 1.695 2.101-.261 6.09-2.619 5.342-1.058-.336-2.212-.142-2.566.43-1.728 2.796-2.673.686-2.137-4.768.398-4.048 2.094-9.037 5.592-16.453 2.761-5.854 5.02-11.127 5.02-11.719 0-1.477 5.746-12.748 6.717-13.175.431-.189 1.458-2.369 2.283-4.844 1.153-3.458 2.368-4.963 5.247-6.5 2.625-1.401 3.748-2.674 3.75-4.25.002-1.285.617-2.25 1.436-2.25.788 0 1.718-.9 2.067-2 1.186-3.735 5.582-1.546 7.029 3.5l.86 3 .307-3c.685-6.686 2.717-17.363 3.243-17.037 1.087.672.165-12.632-.97-14-.867-1.045-.858-2.316.037-5.174 2.67-8.527 4.23-10.898 5.291-8.039.8 2.153 2.719-4.197 2.593-8.579-.078-2.7.923-6.464 2.839-10.671 1.628-3.575 3.527-8.975 4.221-12 .693-3.025 1.924-7.054 2.736-8.954 1.347-3.152 1.323-3.566-.273-4.734-1.661-1.214-1.663-1.592-.035-7.449 1.195-4.297 1.398-6.487.669-7.216-.576-.576-1.047-2.307-1.047-3.847 0-3.334-2.495-3.837-3.324-.67m-83.816 8.12c-.283 4.554.346 10.276 1.23 11.2.567.592.91.451.91-.372 0-1.043.307-1.068 1.452-.118 2.085 1.731 5.534.333 5.62-2.277.04-1.201.153-3.866.25-5.923.197-4.13-.585-4.76-5.904-4.76-2.837 0-3.442.383-3.558 2.25M85.2 176.62c0 6.684-3.343 19.117-5.107 18.993-1.066-.076-1.479.549-1.248 1.887.447 2.593 2.14 4.628 3.268 3.93.488-.301.887.154.887 1.011 0 2.087-1.188 1.965-3.705-.381-2.108-1.963-3.295-1.769-3.295.539 0 .697.816 1.525 1.812 1.841 1.482.471 1.749 1.428 1.462 5.245-.194 2.569-.029 5.378.366 6.243 1.131 2.474 1.215 5.417.212 7.322-.716 1.358-.523 1.748.863 1.742.982-.004 2.348-1.219 3.035-2.699 1.503-3.237 1.629-5.645.25-4.793-.55.34-1-.132-1-1.048 0-1.03.543-1.457 1.422-1.12 1.026.393 1.609-.555 2.089-3.397.379-2.241 1.097-3.677 1.665-3.326.549.339.758 1.535.465 2.657-.294 1.122.149 3.36.983 4.973 1.139 2.203 1.401 5.087 1.055 11.597-.561 10.525.585 15.219 1.869 7.66 1.059-6.23.588-17.568-.801-19.276-.725-.891-.696-2.037.096-3.775 1.013-2.224.866-2.621-1.353-3.631-2.56-1.167-3.361-2.814-1.368-2.814.778 0 .741-.46-.118-1.495-.682-.822-1.012-2.368-.733-3.435.599-2.289-2.191-3.799-3.426-1.854-1.175 1.853-1.055-4.866.204-11.33 1.472-7.564 1.953-14.886.976-14.886-.454 0-.825 1.629-.825 3.62m36.25 24.194c-1.365 1.168-11.138 3.941-16.682 4.732-3.89.556-4.989 1.19-6.173 3.565-1.365 2.735-1.326 2.895.732 3.005 2.024.108 2.036.149.173.597-3.005.723-4.087 2.1-2.724 3.463.794.794.852 1.568.179 2.379-.666.802-.645 2.13.062 3.99l1.061 2.789 1.517-2.167c.835-1.192 2.393-2.167 3.462-2.167 1.069 0 1.89-.338 1.825-.75-.314-1.989.321-3.362 2.618-5.659 1.375-1.375 2.502-2.858 2.504-3.296.003-.437 1.625-.879 3.606-.981 3.324-.172 3.72.116 5.147 3.75 1.694 4.311 2.689 4.748 5.343 2.346 2.45-2.218 10.014-3.843 10.937-2.35.389.63 3.723 1.323 7.408 1.541 5.959.352 6.664.202 6.363-1.353-.248-1.282-1.399-1.788-4.323-1.898-2.192-.082-4.452-.195-5.022-.25-.571-.055-1.147-1.539-1.281-3.298-.307-4.021-1.089-4.875-1.838-2.008-.344 1.314-1.358 2.206-2.508 2.206-2.056 0-7.105-4.756-6.349-5.98.248-.4-.682-1.243-2.065-1.874-2.998-1.365-2.786-1.348-3.972-.332m377.509 4.269c-.023.23-.117 7.992-.208 17.249-.092 9.258-.492 16.008-.889 15-.567-1.441-.736-1.232-.792.977-.038 1.545.33 2.562.818 2.26.51-.315.793 8.832.663 21.483-.123 12.117.152 22.264.612 22.549.46.284.85-6.597.866-15.292.087-46.643-.05-63.663-.514-64.127-.283-.283-.534-.328-.556-.099m-9.402 18.124c-.375 1.811-1.065 6.218-1.533 9.793-1.284 9.806-1.943 11.61-5.633 15.409-1.865 1.92-3.395 3.852-3.401 4.291-.005.44-3.043 3.524-6.75 6.854-5.845 5.25-7.016 5.913-8.821 4.992-2.301-1.174-2.12-3.546.271-3.546.913 0 1.303-.575.973-1.435-.303-.79-.013-1.654.643-1.921.657-.268.406-.522-.556-.565-.962-.043-1.75-.556-1.75-1.138 0-.582.563-.735 1.25-.34.688.396.919.354.516-.092-.404-.446-.108-1.306.658-1.91 1.007-.795 1.138-1.754.474-3.463-.721-1.857-1.211-2.121-2.286-1.229-.99.822-2.143.842-4.165.073-1.537-.585-4.855-1.045-7.371-1.023-2.517.022-6.27-.234-8.34-.569-2.073-.336-4.319-.149-5 .416-1.947 1.615-7.736-1.218-7.736-3.787 0-1.144-.788-2.378-1.75-2.742-3.04-1.152-4.113-2.882-4.436-7.157-.347-4.591-2.146-6.052-2.607-2.118-.238 2.019-.085 2.212.791 1 .907-1.254 1.037-1.171.794.5-.161 1.1-.71 2.302-1.222 2.67-1.249.901-1.482 4.83-.286 4.83.522 0 .714.9.426 2-.287 1.1-.099 2 .419 2 .558 0 .591.712.079 1.75-.475.963-.979 3.714-1.12 6.114-.142 2.401-.827 6.001-1.523 8-.696 2-1.05 4.261-.786 5.025.264.764.085 1.145-.399.846-.484-.299-.921 1.363-.972 3.694-.063 2.924.324 4.238 1.25 4.238.738 0 1.343-.938 1.344-2.084.004-3.186 5.809-3.184 6.609.003.317 1.265.283 2.776-.076 3.357-.359.581-.176 1.057.406 1.057.582 0 1.059-.477 1.059-1.059s.437-.789.971-.459 1.257-.544 1.608-1.941c.351-1.398 1.313-2.541 2.138-2.541 1.055 0 1.333.667.937 2.25-.96 3.841-2.589 15.962-2.99 22.25-.279 4.382-.796 6.082-1.916 6.303-1.04.205-1.354 1.009-.976 2.5.759 2.99 5.557 9.211 6.023 7.811.207-.62.762-.888 1.234-.596.472.291.771-1.994.664-5.079-.156-4.537.189-5.928 1.807-7.274 1.186-.987 1.87-2.583 1.68-3.919-.39-2.749 1.87-3.825 4.773-2.271 3.234 1.731 12.259-4.283 11.423-7.613-.629-2.505 3.723-8.863 5.172-7.557.424.382.5-.062.168-.988-.401-1.122.376-2.455 2.332-4 1.614-1.274 2.938-2.879 2.943-3.567.005-.687.831-2.072 1.835-3.076 1.005-1.005 2.116-2.58 2.469-3.5.353-.921 1.669-1.667 2.924-1.659 1.547.011 1.871.276 1.008.824-.701.444-1.457 1.758-1.681 2.92-.223 1.161-.908 3.05-1.522 4.197-2.664 4.977.552 3.587 5.018-2.169 11.807-15.218 13.403-19.029 14.299-34.15.224-3.775.801-7.15 1.283-7.5 1.269-.923 1.623-3.408.376-2.637-.577.357-.926.109-.775-.551.151-.659-.234-1.387-.855-1.617-.626-.232-1.435 1.052-1.813 2.875m-341.807 9.904c-.963.544-1.75 1.817-1.75 2.83 0 1.165-.987 2.09-2.685 2.516l-2.685.674 2.435 1.202c1.339.661 2.858 2.158 3.375 3.326.518 1.168 2.581 2.848 4.586 3.733 4.537 2.001 4.974 2 4.974-.014 0-1.329.271-1.398 1.5-.378.825.685 1.5.91 1.5.5 0-.41.686-.176 1.524.52 2.64 2.191 2.646.406.015-4.542-2.663-5.009-3.269-8.478-1.48-8.478.582 0 .781-.45.441-1-.948-1.534-2.5-1.187-2.5.559 0 .857-.45 1.281-1 .941-1.314-.812-3.536.538-2.263 1.375.585.385.488 1.737-.251 3.516l-1.202 2.891-1.392-5.58c-1.212-4.857-1.619-5.452-3.142-4.591m18.75 6.892c-1.974.355-2.573.809-1.75 1.327.688.434 1.25 1.463 1.25 2.288 0 .825-.45 1.222-1 .882-.55-.34-1-.168-1 .382s.473 1.292 1.052 1.65c.578.358.916 2.072.75 3.809-.3 3.141.137 3.415 3.408 2.141 1.287-.5 1.628-.209 1.376 1.176-1.65 9.103-1.678 13.342-.087 13.342 1.484 0 1.474.17-.106 1.75-1.667 1.667-1.66 1.767.153 2.117 1.047.201 2.446 1.101 3.108 2 1.113 1.51 1.251 1.51 1.839-.006.706-1.82 4.497-1.396 4.522.506.009.623.452.458.985-.367 1.493-2.31 1.179-7.753-.652-11.293-.908-1.757-1.994-4.322-2.414-5.701-.49-1.611-.793-1.881-.848-.756-.091 1.855-2.086 2.504-2.086.679 0-.59-.675-1.747-1.5-2.572s-1.507-2.48-1.515-3.678c-.009-1.199-.571-3.987-1.25-6.198-1.148-3.734-1.448-3.98-4.235-3.478m-25.987 7.976c-1.785 2.887-5.047 22.582-3.857 23.287 1.455.861 5.344-1.129 5.344-2.734 0-.842.45-1.588 1-1.657.55-.069 1.45-.238 2-.375s1.403-.306 1.895-.375 1.131-1.812 1.419-3.875c.289-2.062.844-5.015 1.234-6.56.586-2.327.35-2.904-1.373-3.355-1.145-.299-2.788-1.622-3.651-2.939-1.666-2.543-3.02-3.021-4.011-1.417M325 285.418c0 1 1.404 3.044 3.12 4.542 2.675 2.336 2.96 3.021 2.003 4.81-.614 1.147-.862 2.747-.551 3.556.31.81.097 1.761-.475 2.114-.573.354-1.324-.498-1.676-1.899-.743-2.959-1.044-3.061-3.073-1.032-.83.83-1.959 1.232-2.508.892-.55-.34-2.399.814-4.11 2.564l-3.111 3.182-1.787-2.324-1.788-2.323-.044 4c-.026 2.304-.832 5.024-1.902 6.416l-1.858 2.417-.742-2.34c-1.314-4.14-2.729-4.922-4.681-2.587-.963 1.152-1.765 1.558-1.784.903-.018-.655.417-1.469.967-1.809 1.645-1.017 1.136-2.071-1-2.071-1.531 0-2 .666-2 2.844 0 1.642.423 2.584 1 2.227.55-.34 1 .015 1 .789 0 .865-1.111 1.438-2.888 1.489-2.48.07-2.813-.226-2.354-2.098.453-1.853.177-1.738-1.843.77-1.757 2.183-2.43 4.37-2.584 8.403-.114 2.999-.573 5.722-1.019 6.05-1.739 1.279-1.579 5.414.183 4.737.918-.352 2.66-.64 3.871-.64 2.603 0 5.553-4.475 5.033-7.635-.201-1.224.172-2.117.875-2.092 4.366.151 7.726-.422 7.726-1.318 0-.639-1.458-.832-3.75-.496l-3.75.55 3.5-1.428c4.702-1.919 5-1.894 5 .419 0 1.313.667 2 1.941 2 1.068 0 2.219.45 2.559 1 .99 1.603 2.225 1.16 2.79-1 .592-2.264 3.64-2.633 7.026-.85 3.084 1.623 3.675 2.891 2.342 5.033-1.103 1.773-1.183 1.758-1.681-.316-.56-2.335-3.474-4.704-4.51-3.667-.346.346-.12 1.58.502 2.743.921 1.72.763 2.582-.849 4.632-1.998 2.54-2.578 12.3-.834 14.044 1.158 1.158 3.62-2.751 4.326-6.869.743-4.331 2.884-4.95 4.542-1.311 1.488 3.266 3.354 1.431 4.313-4.242.389-2.303 1.194-4.488 1.79-4.856.699-.432.844-.048.41 1.084-.413 1.078.099 2.733 1.33 4.299L336 331.27l.136-4.885c.075-2.687.329-3.894.564-2.682.582 3.001 4.251 4.085 5.952 1.758.718-.981 1.101-2.724.852-3.873-.249-1.148-.689-5.328-.977-9.289-.52-7.134-2.068-12.299-3.688-12.299-.461 0-.726-.37-.589-.823.137-.452-1.07-3.602-2.684-7-2.492-5.248-3.327-6.177-5.55-6.177-1.439 0-3.156-.54-3.816-1.2-.933-.933-1.2-.796-1.2.618m-211.25 1.271c-.963.252-1.75 1.311-1.75 2.353 0 1.274-.492 1.707-1.5 1.32-.825-.317-1.5-1.293-1.5-2.169 0-1.186-.289-1.304-1.133-.46-.672.672-.809 1.872-.336 2.95.438.999.891 2.154 1.008 2.567.116.413.312.975.436 1.25.564 1.253.352 5.5-.275 5.5H107c-.55 0-1-1.575-1-3.5 0-2.49-.446-3.5-1.545-3.5-1.217 0-1.41.725-.905 3.413.744 3.968-.169 7.647-1.815 7.317-1.404-.282-1.673 2.512-.333 3.444.605.421.52 1.215-.227 2.115-.932 1.124-.905 2.003.124 3.986.731 1.409 1.121 4.256.873 6.379-.512 4.382-1.474 2.803-2.534-4.158-.334-2.198-1.27-7.049-2.078-10.781-1.443-6.661-1.26-9.715.582-9.715.538 0 .499-.803-.094-1.91-1.221-2.281-7.259-3.475-11.548-2.284-2.955.821-3.004.946-3.267 8.264-.39 10.821-.983 11.771-1.117 1.787-.092-6.881-.438-8.767-1.695-9.249-1.398-.537-5.814.059-7.557 1.019-.35.192-.034 3.507.701 7.366 1.552 8.144 1.862 15.027.906 20.083-.506 2.674-.255 3.998.995 5.247 1.016 1.017 1.428 2.436 1.051 3.624-1.421 4.477 7.421 13.822 22.081 23.336 9.253 6.004 13.996 6.771 18.491 2.988 1.696-1.426 3.494-3.673 3.995-4.993.502-1.319 1.303-2.157 1.78-1.862 1.066.659 4.386-2.833 3.518-3.701-1.52-1.52.678-5.831 2.654-5.203 2.043.648 3.547-.475 5.687-4.243 1.155-2.036.98-2.191-3.179-2.815-2.421-.363-4.977-.304-5.681.13-.703.435-2.376.908-3.718 1.051-1.342.143-2.914.734-3.493 1.313-1.296 1.296-4.99 1.407-4.198.126.315-.51-1.895-1.235-4.911-1.612-3.016-.377-5.954-1.253-6.53-1.947-1.156-1.393-.289-4.804 1.016-3.997.451.279 2.654.684 4.896.899l4.075.393.114-5.155c.063-2.835.258-6.505.434-8.155 2.232-20.966 2.576-25.491 2.003-26.417-.368-.596-.192-1.083.39-1.083.582 0 1.059-.45 1.059-1 0-1.04-.337-1.072-3.25-.311m385.22 3.394c-.017 2.429-.016 18.222.003 35.094.02 18.603-.37 31.738-.992 33.372-.66 1.736-.681 3.108-.059 3.857.53.639.799 2.047.598 3.128-.202 1.081-.401 2.273-.443 2.649-.043.375-.982.969-2.087 1.32-1.471.467-1.776 1.057-1.137 2.199.922 1.648-.682 7.298-2.072 7.298-.43 0-.781.873-.781 1.941s-.43 2.207-.956 2.532c-.526.325-.705 1.248-.397 2.051.657 1.711-1.926 2.967-4.26 2.071-1.299-.498-1.374-.905-.388-2.094.699-.842.954-2.553.594-3.988-.449-1.789-.227-2.513.771-2.513.772 0 1.638-.9 1.926-2 .577-2.207-1.77-2.876-2.628-.75-.338.839-.53.87-.583.094-.045-.652-.948-.93-2.068-.637-1.094.286-1.757.896-1.473 1.354.283.459-.438.651-1.603.426-1.582-.304-1.969-.017-1.527 1.135.326.848.592 1.716.592 1.928 0 .213.675.128 1.5-.188.963-.37 1.5.02 1.5 1.09 0 .916-.399 1.42-.886 1.118-.488-.301-1.121.347-1.406 1.44-.286 1.094-.112 2.24.386 2.548.498.308.906 1.433.906 2.501 0 2.173 1.199 2.44 4.066.906 2.016-1.079 2.482-.11 2.092 4.354-.087 1.001 1.191 3.782 2.842 6.18 1.65 2.399 3 4.869 3 5.49 0 .621.45.851 1 .511.55-.34 1.007-.029 1.015.691.012 1.005.223.982.908-.101 1.397-2.207 2.174 8.197 1.3 17.41-.521 5.495-1.145 7.922-1.991 7.75-.678-.137-1.232.411-1.232 1.219 0 .894.586 1.243 1.5.893 1.941-.745 1.959 1.649.032 4.197-.808 1.067-1.483 1.548-1.5 1.069-.018-.48-.723-.299-1.568.402-1.357 1.126-1.456.76-.848-3.128.378-2.421.967-4.627 1.307-4.902.341-.275.701-2.075.8-4 .185-3.592-.149-3.156-2.299 3-.845 2.418-.891 2.386-1.399-1-.427-2.845-.942-3.478-2.752-3.382-1.225.065-1.986-.273-1.691-.75.295-.477.099-.868-.435-.868s-1.275-1.8-1.647-4c-.584-3.458-2.5-5.781-2.5-3.031 0 .532-.686.705-1.526.383-1.099-.422-1.233-.937-.481-1.843.743-.896.463-2.612-.975-5.966-1.11-2.59-2.018-5.77-2.018-7.067 0-1.297-.492-2.662-1.094-3.034-.602-.372-.932-2.369-.735-4.437.28-2.941.047-3.642-1.07-3.213-.832.319-1.16.113-.786-.493.354-.572-.259-2.082-1.363-3.354-1.104-1.273-2.262-3.468-2.574-4.879-.312-1.411-1.199-4.366-1.971-6.566-2.523-7.191-3.43-20.316-1.83-26.468.783-3.007 1.423-8.713 1.423-12.678 0-5.222.433-7.645 1.571-8.783 1.429-1.428 1.429-1.571 0-1.571-.864 0-1.571.45-1.571 1s-.44 1-.979 1c-.604 0-.557-.923.122-2.415 1.413-3.101 4.94-4.113 6.597-1.892 1.622 2.174 2.455 1.21 2.861-3.313.369-4.114-.432-6.272-1.617-4.355-1.655 2.678-2.1-3.26-.623-8.316.837-2.865 1.778-6.431 2.091-7.924.393-1.879 1.027-2.539 2.058-2.143 1.15.442 1.49-.251 1.49-3.035 0-8.304-5.052-.22-8.234 13.175-.682 2.87-1.758 5.218-2.392 5.218-.633 0-1.131.563-1.105 1.25.142 3.844-.386 4.75-2.769 4.75-1.375 0-2.5.43-2.5.955 0 .525-1.125 2.079-2.5 3.454-3.068 3.068-3.193 5.177-.352 5.92 2.07.541 2.128.938 1.586 10.779-.452 8.202-.9 10.405-2.269 11.171-1.19.667-1.355 1.171-.546 1.671.859.531.875 1.461.062 3.599-.874 2.299-1.284 2.586-2.023 1.417-.742-1.173-.93-1.047-.943.631-.008 1.197.951 2.563 2.235 3.183 1.93.93 1.986 1.094.393 1.152-1.227.045-1.662.577-1.281 1.568.316.825.139 1.5-.393 1.5-.533 0-.969.675-.969 1.5s.372 1.5.827 1.5c.455 0 .639 1.277.41 2.839-.255 1.736.201 3.456 1.173 4.428.875.875 1.606 2.41 1.625 3.412.02 1.001.679 2.946 1.465 4.321l1.429 2.5.106-2.5c.097-2.299.175-2.339.965-.5 1.183 2.752 1.183 3.731 0 3-.55-.34-1-.164-1 .391s.625 1.369 1.389 1.809c.763.44 1.577 1.7 1.809 2.8.231 1.1.929 1.897 1.55 1.77 1.562-.317 2.716 3.514 3.124 10.372.083 1.394 1 2.36 2.628 2.769 1.726.433 2.504 1.318 2.514 2.858.02 3.38 1.114 6.77 2.006 6.218.437-.269.558.411.27 1.512-.288 1.1-.071 2.001.482 2.001.553 0 1.299 1.563 1.657 3.473.358 1.91 1.36 3.869 2.225 4.353 2.388 1.337.873 4.645-2.208 4.822-3.294.19-3.779.726-2.97 3.277.622 1.961 2.806 3.089 2.274 1.175-.138-.495.2-.959.75-1.031.55-.072 1.137.95 1.304 2.272.401 3.166-2.385 4.33-3.205 1.34-.502-1.827-.759-1.938-1.584-.681-.541.825-1.029 1.05-1.083.5-.446-4.522-.72-5.688-1.526-6.494-1.73-1.73-3.573.707-3.861 5.105-.396 6.05-.33 5.889-2.378 5.889-1.009 0-1.834.675-1.834 1.5s.375 1.5.834 1.5c.458 0 .833-.45.833-1s.9-1 2-1c1.785 0 2 .667 2 6.189v6.188l-2.039-2.188c-2.6-2.791-3.292-2.773-2.339.061.416 1.238.823 3.373.904 4.746.103 1.737.729 2.496 2.061 2.5 1.648.003 1.954.871 2.211 6.254.288 6.046 1.73 8.514 2.382 4.078.176-1.194.945-2.377 1.709-2.629.803-.265 1.111-.007.729.61-.363.587-.002 1.436.802 1.887 1.783.997 2.774 11.71 1.227 13.257-.729.729-.636 1.047.308 1.047 1.018 0 .934.466-.342 1.875-.933 1.031-1.624 2.269-1.536 2.75.568 3.106-.122 4.583-1.577 3.375-.825-.685-1.5-.91-1.5-.5 0 .41-.686.176-1.524-.52s-1.792-.997-2.119-.67c-1.062 1.062-3.652-2.395-3.851-5.139-.426-5.893-.504-6.109-2.006-5.533-.855.328-1.5 1.82-1.5 3.469 0 3.291-.497 3.539-2.69 1.345-1.855-1.854-2.041-1.722-2.702 1.926-.405 2.235-.093 2.944 1.48 3.355 1.097.287 1.828 1.027 1.625 1.644-.489 1.487-4.713 2.076-4.713.657 0-.794-.561-.804-2-.034-1.1.589-2 .774-2 .413 0-.362-.686-.089-1.524.607-2.324 1.929-3.093.233-1.262-2.784 1.971-3.248 3.786-4.04 3.786-1.653 0 4.471 1.279-.189 1.557-5.674.355-6.992 2.443-10.827 2.443-4.487 0 3.337.197 3.66 1.547 2.539 1.244-1.032 1.293-1.464.25-2.199-1.024-.722-1.034-1.021-.047-1.421 1.478-.6 1.705-6.341.25-6.341-.55 0-1-.675-1-1.5s-.509-1.5-1.131-1.5c-.761 0-.908-1.225-.448-3.75 1.067-5.862 1.145-6.15 1.883-6.888 1.177-1.176.773-2.362-.804-2.362-.833 0-1.5.889-1.5 2 0 1.1-.45 2-1 2s-1.005 1.238-1.011 2.75c-.006 1.512-.291 4.442-.632 6.51-.561 3.391-.753 3.587-1.958 2-.734-.968-1.385-3.335-1.446-5.26-.061-1.925-.337-2.942-.612-2.259-.597 1.478-2.528-.119-3.616-2.991-.364-.962-1.576-1.75-2.694-1.75-2.473 0-2.652-1.553-.328-2.854 1.444-.808 1.499-1.197.362-2.568-1.136-1.368-1.069-1.916.433-3.576 1.619-1.789 1.631-2.015.138-2.588-3.589-1.377-.148-9.029 3.535-7.86 1.771.562 1.872.394.88-1.459-.617-1.152-.718-2.095-.225-2.095 1.733 0-.047-4.825-1.965-5.326-1.5-.392-1.8-1.07-1.32-2.982.345-1.375.141-2.77-.46-3.142-.595-.367-1.081-2.351-1.081-4.409s-.418-4.168-.929-4.691c-.511-.522-1.298-3.613-1.75-6.867-.928-6.69-2.584-8.136-4.155-3.628-1.465 4.2-2.501 3.819-4.071-1.498-1.418-4.802-1.896-5.088-2.579-1.543-.25 1.301.168 2.411 1.032 2.743 1.632.626 1.966 3.907.49 4.819-.548.339-.621 1.547-.169 2.809.804 2.248.484 26.549-.398 30.215-.506 2.105-6.086 5.891-13.221 8.97-2.337 1.008-4.25 2.408-4.25 3.109 0 .702-1.125 2.161-2.5 3.242-2.727 2.145-3.4 6.179-1.031 6.179.907 0 1.244.585.881 1.53-.339.884.31 2.308 1.539 3.373l2.125 1.844-2.257 1.574-2.257 1.574 2.179.053c3.094.074 5.304 2.672 5.423 6.373l.103 3.179.781-3.301c1.004-4.238.918-4.188 4.903-2.843 2.845.96 3.429 1.675 3.638 4.449.341 4.525 1.329 5.165 2.091 1.355.762-3.811 1.041-3.863 3.561-.66 2.374 3.019 4.886 3.19 7.321.5 1.026-1.134 1.31-2 .655-2-2.242 0-1.233-3.85 1.095-4.181 1.425-.203 2.199-.962 2.111-2.069-.076-.963.486-1.75 1.25-1.75 1.52 0 1.912-2.559.523-3.417-.476-.294-.645-1.691-.375-3.103.464-2.429.562-2.467 1.805-.692 1.552 2.216.905 7.987-1.153 10.291-.776.868-1.411 2.276-1.411 3.128 0 .852-.714 3.258-1.587 5.348-.874 2.09-1.402 5.07-1.174 6.622.231 1.57-.063 2.873-.662 2.937-.592.062-2.652.203-4.577.312-1.925.109-4.767.733-6.315 1.386-5.481 2.313-9.553.281-9.801-4.891-.099-2.067-.189-2.129-.616-.421-.964 3.861-4.268 4.681-4.268 1.059 0-1.343-.45-2.719-1-3.059-.558-.345-1 .417-1 1.722 0 1.681-.844 2.658-3 3.472-2.961 1.118-4.177 3.918-1.75 4.031 19.288.9 91.75 1.173 91.75.345 0-.588-.643-1.07-1.429-1.07-.785 0-2.135-.707-3-1.571-.864-.865-1.571-1.09-1.571-.5 0 1.682-2.994 1.251-3.677-.53-.338-.88.014-1.999.781-2.485.856-.541.946-.889.234-.899-.706-.009-.989-1.094-.721-2.765.243-1.512.412-7.378.375-13.034-.052-7.985.277-10.628 1.471-11.822 1.383-1.383 1.543-1.354 1.593.285.031 1.001.62.246 1.309-1.679 1.299-3.631 1.133-5.424-.289-3.123-1.546 2.502-3.945.913-2.835-1.877.547-1.375.976-6.117.953-10.538-.039-7.797.033-8.045 2.383-8.239 2.644-.219 2.774.208 2.367 7.777a340.651 340.651 0 00-.343 10c-.056 3.025-.465 6.063-.91 6.75-.468.722-.362 1.25.25 1.25.613 0 1.053 2.212 1.044 5.25-.011 3.758-.291 4.824-.985 3.75-1.68-2.6-1.227 1.347.532 4.636 1.122 2.097 1.366 4.385.91 8.542-.369 3.368-.191 6.42.438 7.5 1.162 1.999 1.256-9.413 1.122-136.133-.043-40.675-.286-74.163-.54-74.417-.254-.254-.476 1.526-.492 3.955m-382.047 7.319c-.042 2.254-.251 4.998-.464 6.098-1.213 6.256-2.297 25.062-1.491 25.868.563.563 2.683.43 5.443-.343 2.486-.696 5.196-1.006 6.022-.689 2.304.884 3.112-1.464 1.029-2.988-1.015-.741-1.35-1.348-.747-1.348.625 0 .86-.91.545-2.114-.483-1.846-1.102-2.051-4.906-1.622-5.069.571-5.608-.643-1.36-3.061 3.53-2.008 3.741-2.835.951-3.72-3.154-1.002-1.879-2.544 3.879-4.692l5.238-1.954-2.439-1.919c-1.341-1.055-2.978-1.918-3.638-1.918-.659 0-.945-.661-.636-1.468.31-.807.097-1.756-.474-2.109-.57-.353-.758-1.755-.416-3.116.445-1.774.283-2.265-.573-1.736-.729.45-.933.313-.523-.35.432-.698-.409-1.057-2.345-1.002-2.839.08-3.023.328-3.095 4.183m34.549 6.643c-1.216 1.968.607 6.955 2.542 6.955 1.021 0 3.123.5 4.671 1.11 2.533.999 2.621 1.182.881 1.828-2.37.879-1.288 1.578 3.892 2.515 2.177.394 6.86 2.032 10.408 3.64 3.547 1.609 6.666 2.708 6.93 2.444.264-.264-2.761-2.005-6.723-3.869-3.963-1.864-7.175-3.677-7.139-4.028.036-.352-.272-.672-.684-.711-.412-.039-1.124-.739-1.581-1.555-.457-.817-2.016-1.936-3.466-2.487-2.122-.807-2.35-1.182-1.169-1.929 1.148-.726.965-.931-.843-.943-1.282-.008-2.034-.46-1.691-1.015.34-.55 2.241-1 4.226-1 5.286 0 3.673-.63-3.429-1.34-3.764-.376-6.448-.225-6.825.385m-115.693 6.131c.363 2.661.2 3.084-.816 2.121-1.375-1.304-5.441.12-4.534 1.588.266.431-1.521.746-3.972.7-2.618-.05-4.457-.555-4.457-1.224 0-.627-.891-2.202-1.98-3.5-1.689-2.015-2.127-2.141-2.984-.861-1.766 2.635-1.125 4.901 2.464 8.706 1.925 2.041 3.5 4.037 3.5 4.435 0 .398.877 1.003 1.949 1.343 1.286.408 1.739 1.167 1.33 2.231-.382.995-.214 1.363.438.96 1.401-.866 2.912 1.128 3.656 4.825.614 3.053-.462 12.747-1.373 12.369-.275-.114-1.476.315-2.669.954-1.678.898-2.284.88-2.674-.081-.389-.956-.725-.927-1.463.126-.781 1.116-1.348.978-3.076-.75-2.488-2.488-5.929-2.773-6.778-.561-.329.857-1.187 1.332-1.907 1.056-3.413-1.31-1.211 8.247 2.384 10.345.926.539 1.163.995.528 1.012-1.463.038-.773 6.942 1.267 12.678C15.849 372.124 28 385.375 28 383.247c0-.306.788.148 1.75 1.01s4.368 2.048 7.568 2.634c7.721 1.415 10.682-.25 10.682-6.006 0-3.989 1.45-5.035 3.767-2.718.89.89 1.329.747 1.846-.601.383-.997.154-2.092-.525-2.512-.782-.483-1.128-3.088-.987-7.44.13-4.026-.245-7.158-.942-7.855-.637-.637-1.159-2.001-1.159-3.03 0-2.06-2.232-4.729-3.954-4.729-.693 0-.52-1.116.469-3.029.862-1.667 1.295-3.47.962-4.007-.332-.538.112-1.253.987-1.589.876-.336 2.064-1.493 2.641-2.571.979-1.83.728-1.949-3.778-1.793-2.655.092-5.277.073-5.827-.041-.55-.114-1.45-.111-2 .006-4.149.885-4.5.811-4.5-.95 0-1.023-.536-2.038-1.192-2.257-1.723-.574 5.288-13.026 8.034-14.267 1.746-.789 2.085-1.559 1.619-3.68-.46-2.093-.106-2.942 1.61-3.86 1.21-.647 1.768-1.466 1.241-1.819-.527-.354-1.248-1.431-1.604-2.393-.355-.962-1.672-1.756-2.927-1.764-1.254-.007-3.22-.266-4.369-.574-1.868-.501-2.04-.211-1.633 2.764m389.744 9.946c.34 1.762-.32 1.834-11.985 1.31-8.204-.369-12.564-.199-13 .507-.386.625.293 1.095 1.653 1.144 1.27.046 3.434.309 4.809.583 1.375.275 6.299.609 10.942.743 5.381.154 8.584.668 8.833 1.417.666 1.998 3.875 1.301 7.122-1.549 4.943-4.337 4.191-5.937-2.815-5.982-5.247-.034-5.877.173-5.559 1.827m-360.055 2.913c-1.013 1.12-2.433 1.809-3.155 1.532-.722-.277-1.313-.106-1.313.381s.487 1.048 1.081 1.246c.717.239.503 1.805-.634 4.648-1.408 3.518-1.496 4.698-.489 6.579.997 1.864.911 3.414-.463 8.312-1.87 6.665-1.697 11.762.246 7.267.595-1.375 1.604-5.719 2.243-9.653.96-5.901 1.53-7.248 3.263-7.701 2.794-.731 4.037.162 3.434 2.467-.272 1.038-.138 1.887.296 1.887 1.327 0 1.725-3.32.813-6.784-.789-2.994-1.004-3.145-2.446-1.702-.87.87-1.808 1.356-2.083 1.08-.824-.824.631-5.344 2.238-6.95 1.424-1.424 1.111-4.644-.451-4.644-.406 0-1.567.916-2.58 2.035m236.857.1c.362 1.385.121 1.866-.765 1.526-1.827-.701-3.779 5.839-3.383 11.339.305 4.247.478 4.484 3.073 4.212 1.512-.158 2.75.104 2.75.583 0 .48.675.872 1.5.872s1.5-.375 1.5-.834c0-.458 1.623-.833 3.607-.833 2.878 0 3.484-.32 3-1.582-.334-.87-.636-2.107-.67-2.75-.035-.642-.471-.156-.968 1.082-.498 1.238-1.421 2.25-2.052 2.25-.738 0-.575-.873.458-2.45 1.507-2.3 1.481-2.537-.425-3.873-2.021-1.415-2.02-1.425.223-2.012 1.241-.324 2.531-.144 2.868.401.781 1.263 2.964-3.456 2.944-6.363-.013-1.789-.198-1.921-.985-.703-.862 1.333-.973 1.333-1 0-.027-1.333-.138-1.333-1 0-.791 1.224-.972 1.103-.985-.654-.013-1.917-.577-2.158-5.117-2.194-4.637-.035-5.054.145-4.573 1.983M436.429 338.5c.344 2.2.813 5.964 1.042 8.364.422 4.419 5.212 19.217 6.519 20.136.39.275.967 1.175 1.281 2 1.183 3.108.601-7.731-.698-13-1.868-7.572-2.55-9-4.302-9-1.155 0-1.251-.32-.402-1.342.612-.738.801-1.655.418-2.038-.383-.383-.855-1.916-1.048-3.408-.194-1.492-1.046-3.387-1.894-4.212-1.383-1.346-1.477-1.091-.916 2.5m-361.437 4.01c-1.591 1.916-4.801 7.642-10.531 18.78-2.487 4.835-4.926 8.541-5.419 8.236-1.056-.652-2.319 2.817-2.45 6.724-.085 2.533.574 3.219 2.732 2.844.454-.079.497.387.096 1.036-.457.739-.298.913.425.465.801-.494 1.155.532 1.155 3.346 0 2.363-.475 4.059-1.136 4.059-.773 0-.936 1.456-.511 4.557.459 3.351.073 6.064-1.46 10.25-2.537 6.932-4.044 19.362-2.475 20.428.734.498.68.739-.168.75-.687.008-1.25.642-1.25 1.408 0 .766-.738 1.676-1.639 2.022-1.421.545-1.556.027-1.019-3.893.371-2.71.227-4.522-.361-4.522-.54 0-.981 2.25-.981 5 0 4.394-.252 5-2.075 5-1.657 0-2.026.555-1.831 2.75.134 1.512-.461 4.382-1.322 6.376-1.046 2.421-1.607 7.026-1.691 13.862C42.946 463.061 41.949 466 38.326 466c-.371 0 .416 1.163 1.75 2.584 2.036 2.171 2.392 3.476 2.225 8.163-.223 6.245-2.554 10.183-3.766 6.365-.945-2.979-3.97-2.846-3.151.138.339 1.238.902 3.952 1.249 6.032.722 4.312 5.128 8.723 6.499 6.504.51-.825-.035-1.703-1.55-2.497-2.871-1.504-4.043-6.175-1.768-7.048.861-.33 1.749-.051 1.973.62.718 2.153 4.054-2.719 3.524-5.146-.393-1.796-.279-1.931.602-.715.966 1.333 1.196 1.333 2.072 0 .717-1.092.989-1.144 1-.191.008.72.465 1.031 1.015.691 1.946-1.202 1.019-6.786-1.722-10.38-2.622-3.437-2.714-3.974-2.503-14.594.237-11.888.729-15.785 2.434-19.242.79-1.603.79-2.58-.001-3.533-1.745-2.102.168-4.124 3.185-3.367 2.557.641 3.103 1.898 2.737 6.29-.124 1.475.55 2.408 2.094 2.898 2.146.683 2.165.763.33 1.408-1.849.65-1.836.713.25 1.258 1.208.316 2.196.181 2.196-.3s.639-.63 1.42-.33c.921.353 1.577-.274 1.864-1.782.399-2.092.457-2.115.58-.231.075 1.152 1.043 2.916 2.152 3.919 2.811 2.545 4.908-.274 4.952-6.656.028-4.125.315-4.712 2.573-5.279 1.397-.351 2.271-1.074 1.941-1.608-.33-.534.04-.971.822-.971.95 0 1.821-2.075 2.623-6.25 1.144-5.959 3.714-12.605 4.98-12.878.326-.07 1.596-.233 2.821-.362 2.481-.261 5.47-3.379 7.859-8.196 1.098-2.214 2.063-3.002 3.161-2.581.998.383 1.33.202.902-.491-.383-.619.24-1.39 1.427-1.766 1.456-.463 1.952-1.256 1.608-2.572-.274-1.047-.042-1.904.516-1.904.557 0 .754-.675.437-1.5-.317-.827-.028-1.503.643-1.506.671-.004 2.374-.609 3.786-1.346 1.411-.736 3.774-1.642 5.25-2.013 1.475-.37 2.683-1.34 2.683-2.154 0-.815.338-1.428.75-1.363 3.726.589 6.602-4.656 3.712-6.77-.911-.666-2.288-.968-3.059-.672-.772.296-1.403.04-1.403-.569s.563-1.114 1.25-1.122c.861-.011.909-.244.154-.75-.603-.404-1.37-1.86-1.704-3.235-.541-2.225-.283-2.512 2.346-2.606 1.931-.07 2.954.383 2.954 1.309 0 .778.45 1.137 1 .797.583-.361 1 .656 1 2.441 0 1.682.45 3.059 1 3.059s1-.653 1-1.45c0-.798.683-1.833 1.518-2.3 1.244-.696 1.318-1.422.412-4.02-.975-2.797-1.477-3.126-4.267-2.796-1.74.206-3.752-.109-4.472-.701-1.987-1.633-6.191-1.818-6.191-.272 0 1.509-2.722 2.829-4.09 1.983-.501-.309-.942.252-.98 1.247-.063 1.607-.161 1.586-.877-.191-.467-1.158-.37-2.545.23-3.294 1.061-1.326-4.458-7.076-6.878-7.165-.602-.023-1.947-.983-2.989-2.134-3.322-3.67-5.56-4.408-5.213-1.718.163 1.271-.041 2.424-.453 2.561-1.901.634-3.75.134-3.75-1.013C85 351.091 78.204 341 77.096 341c-.468 0-1.415.68-2.104 1.51m407.335 6.376c.529 2.644.325 3.114-1.352 3.114-2.354 0-2.537 1.295-.475 3.357 1.728 1.728 2.038 4.094.404 3.084-.684-.423-.952.025-.712 1.191.212 1.027 1.155 1.806 2.096 1.729 1.234-.1 1.692.598 1.642 2.5-.065 2.416-.151 2.47-1.021.639-.885-1.864-.921-1.847-.523.25.235 1.238.074 2.25-.357 2.25-.918 0-.613 5.246.399 6.884.5.809 1.252.822 2.697.049 1.594-.853 1.763-1.363.825-2.493-.947-1.142-.715-1.606 1.186-2.367 1.704-.682 1.881-.964.633-1.01-2.041-.074-3.739-5.24-1.921-5.846.641-.213.91-.799.599-1.302-.311-.503.084-.915.877-.915.794 0 1.678-.9 1.966-2 .381-1.456 1.364-2 3.616-2 3.516 0 4.155-1.489.993-2.316-1.156-.303-1.804-1.029-1.441-1.617.363-.587.296-1.06-.149-1.052-1.097.021-4.024 1.95-2.988 1.97.452.008.134.703-.707 1.544-.841.841-1.273 2.196-.96 3.011.376.981.098 1.302-.822.949-.971-.373-1.327-2.034-1.182-5.514.173-4.141-.142-5.168-1.869-6.092-1.94-1.039-2.036-.907-1.454 2.003M424.114 361.5c-.026 4.942.475 8.936 1.313 10.45.747 1.347 1.102 3.113.791 3.923-.393 1.026-.093 1.293.987.879.853-.328 2.056-.091 2.673.526.829.829 1.122-.052 1.122-3.378 0-2.475.54-5.04 1.2-5.7.933-.933.933-1.2 0-1.2-.66 0-1.2-.702-1.2-1.559s-.386-1.321-.858-1.029c-.758.469-4.134-5.322-5.488-9.412-.273-.825-.516 2.1-.54 6.5m24.887 41.25c.001.413.618 3.986 1.373 7.941.754 3.955 1.147 8.361.874 9.792-.499 2.61 1.356 3.268 2.948 1.045 1.285-1.794 2.139 2.705.893 4.702-.675 1.081-.998 2.194-.718 2.474.725.725-1.718 3.179-2.621 2.632-.413-.25-.75-.004-.75.546 0 1.903 1.881 2.153 2.932.389.814-1.365.943-.784.564 2.537-.312 2.727-.126 4.081.506 3.691.564-.349 1.057.604 1.134 2.192.356 7.331.874 10.698 1.729 11.229.514.319 1.142 1.705 1.398 3.08.344 1.852.5 1.528.601-1.25.075-2.062.473-3.75.886-3.75.413 0 .789-1.012.836-2.25.047-1.238.214-5.175.371-8.75.364-8.3-.631-12.516-2.572-10.904-1.146.951-1.397.31-1.455-3.724-.09-6.23-1.299-9.893-2.168-6.568-.316 1.208-1.031 2.196-1.588 2.196-1.373 0-.699-9.057.74-9.947.775-.479.496-1.428-.893-3.028-1.111-1.282-2.021-2.937-2.021-3.678 0-.741-.675-1.347-1.5-1.347s-1.499.337-1.499.75m-258.667 26.986l-3.025 3.236 2.31 1.514c1.271.833 3.235 1.514 4.365 1.514 1.617 0 1.963.506 1.624 2.375-.356 1.965-.012 2.375 1.993 2.375 2.731 0 3.291-1.415 3.662-9.25l.237-5h-4.07c-3.299 0-4.644.614-7.096 3.236m-61.962.543c-1.766 1.389-2.866 1.739-3.116.99-.446-1.338-2.982-.63-5.506 1.538-.963.827-1.75 1.031-1.75.455 0-.576-.693-1.314-1.54-1.639-1.956-.751-7.135 10.009-7.919 16.453-.4 3.289-.315 3.76.33 1.838 1.329-3.957 4.201-7.914 5.744-7.914.762 0 1.385-.378 1.385-.839 0-.462 1.125-1.353 2.5-1.979 2.821-1.286 2.853-1.242 1.564 2.149-.676 1.779-.54 2.977.489 4.316 1.319 1.714 1.411 1.618 1.231-1.297-.286-4.641 1.649-6.35 7.189-6.35 4.584 0 10.649-1.485 12.37-3.029 1.309-1.175-1.282-5.213-2.92-4.549-.783.318-2.15.871-3.038 1.229-1.252.505-1.477.215-1.001-1.287.876-2.759-2.551-2.807-6.012-.085M373 438.99c-7.065 2.869-8.446 3.339-9.278 3.159-.428-.092-1.053.549-1.389 1.426-.45 1.171-.81 1.271-1.363.377-1.055-1.707-7.97-.325-7.97 1.593 0 .8-.514 1.455-1.142 1.455-1.341 0-6.858 5.558-6.858 6.909 0 .51-.251 1.582-.558 2.382-.424 1.105.056 1.336 2 .965 2.292-.438 2.558-.172 2.558 2.562 0 3.638 2.036 9.228 2.705 7.426.256-.691.765-1.076 1.13-.855.366.221 1.245-.227 1.954-.994 1.302-1.409 1.223-1.544-1.039-1.77-2.044-.204-2.159-6.254-.134-7.031 1.993-.765 3.781 1.409 2.342 2.848-1.257 1.257-1.231 3.558.042 3.558.55 0 .947-.337.882-.75-.425-2.69.156-3.243 2.118-2.018 1.1.687 2 1.617 2 2.068 0 .45-.419.559-.931.243-.512-.317-1.213-.118-1.559.441-.984 1.592 2.46 1.189 4.133-.484.825-.825 2.295-1.5 3.268-1.5 2.219 0 9.63-7.875 8.456-8.986-.477-.451-1.683-.976-2.68-1.167-1.537-.294-1.123-1.26 2.723-6.347 6.25-8.266 6.168-8.588-1.41-5.51M137.294 452.5c-4.084 3.852-6.687 4.36-9.465 1.845-1.719-1.555-1.829-1.523-1.829.531 0 1.203-.787 2.474-1.75 2.826-2.229.814-5.617 4.153-7.125 7.023-1.04 1.98-.895 2.295 1.312 2.849 3.632.911 4.845 2.912 4.977 8.207.244 9.805 5.452 13.821 12.371 9.539 4.225-2.615 5.113-4.177 4.504-7.929-.392-2.411-.063-3.983 1.101-5.269.929-1.027 1.381-2.556 1.027-3.477-.688-1.794-2.417-2.255-2.417-.645 0 1.512-2.765 1.2-5.553-.626-4.457-2.921-.723-5.038 4.939-2.801 2.704 1.069 1.604-1.747-1.242-3.178-2.411-1.214-1.533-2.573 2.448-3.79 1.15-.352 3.175-1.793 4.5-3.203 2.36-2.512 2.369-2.592.467-3.983-2.879-2.105-4.173-1.779-8.265 2.081m149.578 8.187c-1.201 1.478-1.154 1.606.378 1.032 2.345-.879 2.217.548-.25 2.781-1.951 1.766-2 1.747-2-.775 0-2.951-2.951-3.926-6.742-2.229-1.921.86-2.223 1.721-2.108 6.004.128 4.765.162 4.825.742 1.277.639-3.91 2.432-4.057 3.376-.277.39 1.562.525 1.41.616-.691.143-3.325 2.11-4.819 2.131-1.618.019 2.822.97 4.225 3.099 4.572 1.225.199 1.498-.343 1.133-2.25-.303-1.585-.025-2.513.753-2.513.741 0 1.024.798.71 2-.677 2.59.379 2.545 2.655-.113 1.302-1.521 1.505-2.417.722-3.2-.598-.598-1.087-2.122-1.087-3.387 0-2.704-2.165-3.026-4.128-.613M21.25 472.36c-1.238.613-2.25 1.458-2.25 1.877 0 .42-1.71.763-3.8.763-4.738 0-6.209 1.418-6.168 5.95.046 5.115 2.135 7.504 5.667 6.48 1.541-.446 5.276-.888 8.301-.981 3.025-.093 5.485-.569 5.466-1.059-.114-3.026-1.792-9.474-2.594-9.969-.524-.324-.68-1.451-.345-2.505.683-2.154-.69-2.333-4.277-.556" fill="#d3d3d3" fill-rule="evenodd"/></svg>