<svg xmlns="http://www.w3.org/2000/svg" width="500" height="375"><path d="M358.004 34.722c-1.923.243-4.095.938-4.826 1.545-.985.817-1.54.765-2.137-.201-.647-1.047-.979-1.009-1.674.192-1.215 2.1-7.576 3.449-6.806 1.444.796-2.073-7.633-3.284-10.773-1.548-1.258.696-2.85 1.151-3.538 1.012-.687-.14-1.25.216-1.25.79 0 .574.788 1.076 1.75 1.114 1.481.06 1.443.19-.249.851-1.303.508-2.348.306-3-.581-1.459-1.984-11.501-.37-11.501 1.848 0 .525-.757.198-1.682-.727-1.577-1.577-1.765-1.571-2.984.097-1.226 1.677-1.412 1.682-3.178.084-1.774-1.607-1.962-1.575-3.489.58-1.457 2.058-1.737 2.122-2.899.667-1.381-1.731-5.768-.911-5.768 1.079 0 .567-.436 1.032-.969 1.032-.532 0-.717-.653-.411-1.452 1.058-2.758-.822-3.968-2.227-1.433-.857 1.546-1.335 1.84-1.358.835-.063-2.76-2.123-4.005-3.82-2.308-.832.832-2.391 1.284-3.463 1.003-1.538-.402-1.843-.101-1.445 1.423.323 1.233-.003 1.932-.901 1.932-.773 0-1.406-.675-1.406-1.5s-.675-1.5-1.5-1.5-1.5-.354-1.5-.788c0-.433-1.873-.862-4.162-.953-2.289-.091-4.428-.596-4.753-1.121-.763-1.235-7.601-2.538-12.085-2.303-3.503.184-4.757.192-12.813.078-2.419-.034-5.418.663-6.83 1.589-1.385.908-3.191 1.392-4.012 1.077-.822-.315-2.226.159-3.121 1.055-1.504 1.503-1.701 1.465-2.579-.503-1.18-2.646-2.812-2.709-5.084-.198-.962 1.062-2.304 1.719-2.983 1.459-.678-.261-2.354-.048-3.724.473-2.029.772-2.721.577-3.739-1.053-1.168-1.87-1.369-1.892-3.079-.345-1.431 1.296-1.943 1.37-2.353.344-.394-.983-.545-.998-.604-.061-.088 1.388-3.079 1.76-3.079.382 0-.988-6.605-.727-9.263.367-.969.398-2.391.203-3.16-.435-1.593-1.322-19.577-2.133-19.577-.882 0 1.11-4.148 1.01-5.974-.145-.972-.614-1.727-.524-2.219.266-.576.925-1.205.913-2.763-.053-3.293-2.041-5.278-1.605-4.549 1 .61 2.176.563 2.168-1.425-.25-1.744-2.121-2.206-2.272-3.047-1-.665 1.004-.997 1.087-1.008.25-.008-.687-.69-1.25-1.515-1.25s-1.5.416-1.5.924-1.988.846-4.418.752c-2.429-.094-4.342-.622-4.25-1.173.093-.552-.507-1.003-1.332-1.003-.825 0-1.506.756-1.513 1.679-.007.924-.344 2.012-.75 2.417-.405.406-.737-.16-.737-1.256 0-1.622-.53-1.916-2.844-1.576-2.409.353-2.797.824-2.536 3.077.17 1.462.065 1.866-.232.897-.296-.969-.955-1.505-1.464-1.191-.508.314-.924-.131-.924-.988 0-2.123-1.744-1.979-2.311.191-.435 1.667-.463 1.667-.573 0-.134-2.014-3.682-2.413-4.454-.5-.277.688-.547.35-.598-.75-.079-1.664-.257-1.748-1.064-.5-.646 1-.974 1.083-.985.25-.008-.687-.69-1.25-1.515-1.25s-1.5.858-1.5 1.906c0 1.674-.303 1.765-2.492.75-1.371-.636-2.496-1.493-2.5-1.906-.018-1.687-2.921-.599-3.531 1.323-.572 1.8-.876 1.893-2.318.708-.997-.821-3.768-1.311-6.946-1.229-2.909.075-5.523-.244-5.809-.708-.925-1.496-2.156-.901-2.737 1.32-.457 1.749-.841 1.937-1.999.976-.788-.655-2.723-1.15-4.3-1.101-1.578.048-5.568-.524-8.868-1.273-5.786-1.312-11.145-1.454-12.274-.326-.298.299-1.033.136-1.634-.36-3.678-3.041-9.77 2.851-7.443 7.199.637 1.19 1.102 3.658 1.034 5.484-.073 1.92.284 3.066.846 2.719.534-.33.971-.172.971.352s-.704 1.222-1.563 1.552c-.86.33-1.253 1.103-.872 1.719.38.615.071 1.511-.687 1.991-.998.633-1.033.878-.128.889.688.008 1.25.915 1.25 2.015s-.404 2-.899 2c-1.01 0-.756 20.646.284 23.041.368.848.493 3.647.279 6.221-.214 2.573-.153 4.915.136 5.205 1.012 1.011 1.174 6.533.192 6.533-1.438 0-1.22 3.727.258 4.417 1 .466 1 .7 0 1.166-1.468.686-1.673 4.038-.298 4.887.523.324.73 3.163.46 6.309A949.49 949.49 0 0047.81 129c-.061.825.232 2.743.651 4.261.612 2.219.47 2.65-.725 2.191-1.076-.413-1.486.136-1.486 1.989 0 1.639.554 2.559 1.542 2.559.848 0 1.257.284.91.631-.347.348-.151 1.53.436 2.628.773 1.444.752 2.191-.076 2.703-.841.52-.865 1.954-.09 5.413.718 3.203.73 5.313.039 6.605-.696 1.3-.685 2.103.035 2.548.721.446.683 1.094-.12 2.061-.9 1.085-.886 1.411.06 1.411.827 0 1.016.855.577 2.606-1.003 3.996-1.647 24.564-.751 24.01.991-.612.593 17.92-.421 19.561-.41.663-.215 1.382.432 1.597 1.341.447 1.613 5.838.335 6.628-1.382.854-.783 10.594.709 11.516 1.071.662 1.098 1.279.133 3.082-.967 1.807-.938 2.428.147 3.127.946.61 1.022 1.099.255 1.623-1.618 1.105-2.666 8.995-1.257 9.465.846.282.853.92.028 2.462-1.502 2.805-.947 23.097.714 26.151 1.056 1.941.99 2.911-.397 5.835-1.015 2.139-1.413 4.509-1.019 6.077.401 1.597.176 2.86-.595 3.336-.979.606-.987 1.988-.038 6.595.661 3.206 1.42 8.079 1.688 10.829.267 2.75.705 5.966.973 7.146.302 1.331-.08 2.363-1.006 2.718-1.919.737-1.933 5.026-.022 6.612.809.671 1.412 1.964 1.341 2.872-.485 6.205-.361 6.303 7.29 5.771 4.44-.308 7.749-1.079 8.828-2.056.95-.86 2.48-1.563 3.399-1.563S72 329.55 72 329s-.73-1-1.622-1c-1.299 0-1.385-.287-.427-1.441 1.497-1.803 3.85-1.003 3.678 1.251-.095 1.24.671 1.69 2.871 1.69 3.722 0 4.108-2.648.51-3.498-1.694-.4-2.091-.834-1.241-1.359 1.471-.909 5.231.092 5.231 1.393 0 .496.675.642 1.5.326.825-.317 1.5-.064 1.5.562 0 .627-.675 1.398-1.5 1.714-.825.317-1.5 1.203-1.5 1.969 0 1.607 3.571 1.897 4.516.367.349-.564 1.791-.902 3.204-.75 1.414.152 2.767-.286 3.008-.974.246-.699-.369-1.264-1.395-1.282-1.74-.03-1.736-.105.085-1.483 1.713-1.296 2.065-1.24 3.307.532 1.626 2.323 3.275 2.596 3.275.542 0-2.431 1.963-2.817 3.778-.745 1.924 2.198 7.818 3.649 8.742 2.153 1.121-1.813 2.48-.973 2.48 1.533 0 1.556.567 2.5 1.5 2.5.864 0 1.5-.903 1.5-2.131 0-1.883.413-2.064 3.558-1.553 4.812.781 6.635-.043 5.944-2.684-.544-2.082-.519-2.079 1.092.118 1.878 2.561 5.693 3.162 4.768.75-.365-.95.013-1.5 1.031-1.5.884 0 1.614.563 1.622 1.25.01.808.276.883.75.213.969-1.368 6.998-1.1 8.475.377.88.88.87 1.16-.04 1.16-.66 0-1.2.45-1.2 1s1.035 1 2.3 1 2.767.467 3.337 1.037c.716.716 1.887.714 3.784-.007 1.511-.574 3.159-.79 3.663-.478.504.311.916.089.916-.493s1.26-1.059 2.8-1.059c1.54 0 3.289-.489 3.887-1.087.783-.783 1.275-.783 1.759 0 1 1.617 5.529 1.315 6.192-.413.639-1.663 4.903-2.052 5.842-.532.329.533 2.189.908 4.133.835 2.905-.109 3.449-.459 3.054-1.968-.675-2.58.612-2.283 3.763.868 3.169 3.168 6.226 2.215 5.847-1.823-.199-2.112-.063-2.043 1.204.62.786 1.65 1.449 3.563 1.474 4.25.055 1.525 2.487 1.619 5.139.2 1.566-.838 2.588-.561 5.055 1.369 2.522 1.975 3.668 2.27 6.221 1.607 13.054-3.391 15.553-3.893 16.874-3.386.821.315 3.19-.38 5.264-1.544 2.658-1.493 4.083-1.805 4.831-1.057 1.505 1.505 2.661 1.314 2.661-.439 0-1.818 1.607-1.984 2.417-.25.443.951.718.964 1.148.056.741-1.567 3.496-.55 5.663 2.089 1.514 1.845 1.73 1.888 1.75.355.012-.962.697-1.75 1.522-1.75.825 0 1.5-.675 1.5-1.5s.45-1.5 1-1.5.951.337.892.75c-.253 1.755 1.42 5.156 2.797 5.684 2.041.784 3.311-.172 3.311-2.493 0-2.38 1.297-2.496 3.128-.278 1.07 1.296 1.097 1.755.122 2.083-1.749.589-1.564 2.254.25 2.254.825 0 1.5-.398 1.5-.883 0-1.807 7.079-3.293 8.174-1.716.423.609 1.194.538 2.074-.192 1.57-1.303 3.752.145 3.752 2.491 0 .715.675 1.3 1.5 1.3 1.808 0 1.933-1.167.3-2.8-.933-.933-.533-1.2 1.8-1.2 1.65 0 3.446.446 3.99.99.614.614 2.148.659 4.034.118 1.78-.511 3.72-.495 4.672.038 2.051 1.147 6.918-.002 6.417-1.515-.35-1.06-3.294-2.839-6.713-4.055-1.833-.652-4.989-2.646-21.678-13.693C264.64 304.15 258 298.143 258 295.309c0-.551-.626-2.308-1.391-3.905s-1.7-7.398-2.078-12.891c-.799-11.625-2.288-20.494-3.735-22.25-.561-.681-.784-1.852-.496-2.602.717-1.868-3.85-15.535-6.305-18.871-1.097-1.49-1.995-3.014-1.995-3.387 0-.372-2.005-3.721-4.456-7.44-4.705-7.142-9.02-10.963-12.381-10.963-1.15 0-2.303-.866-2.663-2.001-.35-1.101-1.617-2.516-2.818-3.146-1.2-.63-2.558-1.783-3.017-2.563-.46-.78-1.81-1.81-3-2.29l-2.165-.873 2.285-.064c1.257-.034 3.375.651 4.706 1.523 5.306 3.477 5.506-1.303.316-7.573-1.599-1.932-4.334-6.613-6.078-10.401l-3.171-6.889 2.387-1.611c1.313-.887 4.627-3.75 7.365-6.364l4.979-4.751-.619-6.631c-1.409-15.08-10.524-23.631-26.67-25.019-8.825-.758-9.326-1.022-13-6.844C172.828 109.796 164.323 104 149.513 104c-9.38 0-24.058 7.522-31.601 16.195-4.315 4.961-6.9 6.826-14.544 10.496C93.689 135.338 88 140.335 88 144.19c0 1.167 2.052 5.125 4.56 8.796 5.157 7.546 5.761 11.356 3.063 19.303-2.239 6.596-.451 11.753 5.969 17.211 10.087 8.575 12.876 12.012 16.266 20.044 5.69 13.477 14.007 23.67 23.42 28.7 3.973 2.123 5.702 2.286 29.304 2.756l25.081.5 8.419 4.195c15.658 7.804 33.877 21.571 33.905 25.622.02 2.834-2.977 1.332-9.436-4.727-3.141-2.947-7.793-6.423-10.338-7.724-2.544-1.301-5.632-3.294-6.862-4.428-6.706-6.181-21.164-10.69-33.232-10.364-21.519.583-25.719.224-35.499-3.034-12.053-4.016-17.113-9.425-27.305-29.188-2.547-4.939-6.007-10.189-7.69-11.666-6.442-5.655-11.619-11.271-13.29-14.416-2.067-3.892-2.261-13.171-.351-16.741 2.309-4.314 1.444-7.807-3.388-13.676-10.009-12.158-6.946-19.462 12.307-29.352 7.681-3.945 10.977-6.315 14.47-10.404 11.192-13.101 32.615-18.514 47.936-12.113 5.358 2.239 14.925 12.358 19.245 20.356 4.171 7.723 4.044 7.644 13.803 8.618C214.845 134.104 227 146.787 227 162.347c0 5.123.149 5.4 5.299 9.847 8.374 7.229 18.599 11.603 36.095 15.441l7.894 1.732 2.356-2.739c2.24-2.605 2.98-6.988 2.41-14.266-.201-2.559 2.819-12.165 4.066-12.936.484-.299.88-1.17.88-1.935 0-1.82 5.175-9.436 8.159-12.009 13.174-11.357 27.419-13.446 41.841-6.137 9.185 4.655 11.457 6.724 19.931 18.155 10.845 14.629 13.625 31.66 7.545 46.213-2.001 4.787-1.896 5.672 1.242 10.557 1.495 2.326 3.467 6.93 4.382 10.23.915 3.3 2.402 8.7 3.305 12 1.103 4.031 1.593 9.445 1.492 16.5-.186 13.105-2.888 19.738-13.57 33.313-5.217 6.63-18.634 13.669-26.077 13.681-3.958.007-4.3-1.731-.5-2.544 14.191-3.037 27.436-14.052 33.907-28.2 3.3-7.215 4.397-25.259 1.99-32.75-5.282-16.44-7.984-22.5-10.033-22.5-.724 0-4.145 2.588-7.602 5.75-9.714 8.885-19.163 12.904-26.456 11.253-17.545-3.973-31.691-14.751-38.068-29.003-4.783-10.693-8.838-13.118-10.868-6.5-.506 1.65-1.683 4.8-2.616 7-1.96 4.619-4.333 18.158-3.438 19.607.333.539.114 1.573-.487 2.298-1.229 1.481.063 17.249 2.082 25.392 6.062 24.458 28.063 45.042 48.514 45.39 6.794.116 8.623 1.048 5.419 2.763-4.109 2.199-18.136-.38-27.189-4.998-5.311-2.71-23.905-21.965-23.905-24.756 0-.566-.337-1.179-.75-1.363-2.223-.988-8.265-23.937-8.554-32.49-.137-4.051-.707-6.732-1.54-7.247-1.079-.666-1.059-.919.109-1.367 1.181-.453 2.996-7.74 4.292-17.229.075-.55.416-1.675.758-2.5 4.374-10.552 4.288-14-.349-14-1.704 0-4.025-.496-5.159-1.103-1.534-.821-2.249-.8-2.795.084-.537.869-.884.796-1.293-.271-.307-.801-4.083-2.919-8.389-4.705-10.96-4.547-16.217-7.314-20.718-10.904-5.23-4.172-7.372-3.94-12.579 1.366l-4.384 4.466 1.903 3.534c1.047 1.943 2.16 3.533 2.475 3.533.314 0 1.153 1.608 1.863 3.573 1.248 3.451 1.358 3.513 3.225 1.823 1.481-1.341 2.207-1.474 3.109-.572.901.901.896 1.176-.024 1.176-2.586 0-1.249 5.065 1.794 6.797 3.653 2.078 3.831 3.203.506 3.203-4.559 0-3.191 3.97 3.098 8.989 6.5 5.186 17.712 22.896 19.91 31.447 2.295 8.928 5.353 24.867 6.056 31.564.375 3.575 2.016 10.003 3.645 14.285 3.051 8.016 4.126 9.201 17.512 19.315 5.249 3.966 19.781 12.666 22.279 13.338 1.375.37 2.944 1.661 3.487 2.868.543 1.206 1.725 2.194 2.628 2.194.902 0 2.2.675 2.885 1.5.685.825 2.855 1.5 4.822 1.5 2.783 0 3.311.267 2.378 1.2-.66.66-1.2 1.56-1.2 2 0 1.393 2.232.865 3.464-.82.799-1.092 3.255-1.774 7.532-2.09 3.491-.259 7.283-.826 8.426-1.26 3.164-1.203 4.108-1.047 3.764.623-.228 1.107.226 1.351 1.666.894 1.089-.346 2.283-.138 2.653.461.48.777 1.074.757 2.071-.071.769-.638 2.501-.883 3.85-.545 1.348.338 2.731.164 3.072-.388.805-1.304 4.502-1.307 4.502-.004 0 1.396 5.346 1.254 6.78-.18.886-.886 1.745-.899 3.45-.051 1.248.62 3.17 1.324 4.27 1.563 1.785.389 1.758.448-.25.552-1.238.064-2.25.596-2.25 1.182 0 .587 1.238.924 2.75.75 2.121-.244 2.732-.83 2.671-2.566-.08-2.243.649-2.847 1.911-1.585.366.366 1.895.796 3.398.957 1.503.16 3.241.986 3.862 1.834.621.849 2.062 1.544 3.203 1.544s3.342.49 4.89 1.088c3.458 1.336 18.409 1.378 19.228.053.994-1.608 11.172-3.374 18.587-3.223 8.594.173 12.86-1.968 13.858-6.958.357-1.785.218-3.766-.309-4.401-.527-.635-1.147-3.897-1.378-7.249-.231-3.353-.758-6.642-1.171-7.31-.534-.865-.162-1.028 1.292-.566 1.737.551 1.958.306 1.481-1.643-.826-3.367-2.202-4.746-4.096-4.102-1.017.345-.595-.481 1.073-2.1 2.977-2.891 3.945-9.94 1.5-10.927-1-.403-1-.52 0-.583 1.586-.1 1.643-2.781.07-3.306-.767-.255-.889-1.072-.349-2.333 1.419-3.314 1.404-4.44-.059-4.44-.777 0-1.412-.45-1.412-1s.358-1 .796-1c.986 0 .955-4.089-.041-5.636-.444-.689.117-1.359 1.421-1.7 1.803-.471 1.947-.811.886-2.09-1.325-1.596-1.943-13.027-.768-14.202.373-.372.991-2.971 1.375-5.774.584-4.272.813-4.693 1.414-2.598.666 2.321.725 2.268.817-.75.055-1.787-.298-3.25-.783-3.25-1.548 0-1.991-5.111-.493-5.686.757-.29 1.376-1.631 1.376-2.98s-.399-2.206-.886-1.904c-.765.472-2.059-2.411-2.1-4.68-.033-1.8 1.888-.536 2.28 1.5.239 1.238.495-1.639.57-6.393.11-7.014-.16-8.756-1.433-9.245-1.673-.642-1.103-4.507.849-5.761.557-.357.697-1.469.312-2.472-.577-1.502-.854-1.573-1.577-.403-1.216 1.968-2.424-3.023-1.762-7.28.273-1.758.163-4.096-.244-5.196-.407-1.1-.383-2.955.053-4.123.471-1.264.353-2.562-.293-3.208-.779-.779-.767-1.467.045-2.445.85-1.025.77-1.874-.328-3.441-1.29-1.842-1.274-2.15.141-2.693 1.089-.418 1.297-1.008.652-1.852-1.218-1.592-1.077-6.088.211-6.738.545-.275 1.288.85 1.652 2.5.364 1.65.612-1.503.551-7.007-.061-5.504.191-10.496.56-11.094.37-.598.174-2.844-.435-4.993l-1.108-3.906-1.274 3c-1.473 3.469-3.098 1.35-2.11-2.752.297-1.237.181-4.16-.258-6.498-.506-2.692-.434-4.25.197-4.25.581 0 .76-1.461.429-3.5-.313-1.925-.234-3.5.174-3.5 1.005 0 .836-7.174-.207-8.794-.489-.759-.317-1.915.415-2.797 1-1.206 1.411-1.247 2.07-.206.477.751.767-1.23.689-4.703-.074-3.3-.322-4.763-.551-3.25-.408 2.694-1.295 3.405-2.609 2.092-.362-.362-.099-1.346.584-2.187 1.045-1.288.955-1.422-.569-.851-1.643.617-1.745.245-1.105-4.025.388-2.588.738-6.639.777-9.003.08-4.824 1.783-5.251 2.77-.694.799 3.69 1.086 1.99 1.411-8.332.143-4.538-.146-8.25-.642-8.25-.495 0-.901.477-.901 1.059s-.45.781-1 .441c-1.589-.982-1.233-4.803.39-4.181 1.714.658 2.627-3.321 2.568-11.194l-.043-5.625-6.707-3.295c-3.69-1.813-7.479-3.275-8.421-3.25-.942.025-3.95-.837-6.683-1.914-2.734-1.078-7.928-2.474-11.542-3.104-3.615-.629-6.826-1.555-7.136-2.057-.31-.502-.935-.683-1.389-.403-.453.28-2.444-.167-4.423-.994s-5.514-1.447-7.856-1.379c-2.342.069-9.883-.089-16.758-.349-6.875-.261-14.073-.276-15.996-.033M308 106.943c-4.675.991-10.164 2.502-12.197 3.357-5.854 2.46-20.803 13.24-20.803 15 0 .312-1.386 2.797-3.08 5.522-1.85 2.976-4.189 9.295-5.854 15.817-4.453 17.438-7.769 23.345-15.722 28.006-2.389 1.4-4.344 2.929-4.344 3.398 0 1.712 6.598-1.401 10.166-4.797 3.578-3.405 10.834-16.322 10.834-19.287 0-.818.928-3.956 2.062-6.973a327.46 327.46 0 003.71-10.486c2.691-8.167 16.008-19.988 25.977-23.059 9.498-2.925 18.95-4.389 28.251-4.375 11.227.016 38.972 2.401 51 4.384 8.563 1.412 15.965 2.466 21.5 3.061 1.65.178 5.475.843 8.5 1.478 3.025.635 7.975 1.009 11 .831l5.5-.325-4-1.269c-3.712-1.178-20.609-4.333-41.935-7.829-24.771-4.062-57.599-5.203-70.565-2.454m-159.516 9.247c-11.011 8.658-17.764 22.745-12.484 26.042 2.728 1.704 2.514 2.496-.874 3.24-3.923.862-9.358 7.362-12.556 15.015-7.278 17.417 10.469 37.213 37.99 42.376 12.394 2.325 14.568 1.003 16.546-10.067 1.193-6.677 1.125-7.352-1.572-15.634-3.504-10.759-9.671-17.309-22.514-23.912-4.546-2.338-7.931-4.25-7.521-4.25.41 0 .186-.675-.499-1.5s-1.077-1.502-.872-1.505c.204-.002 6.447-.945 13.872-2.094 19.42-3.007 17.557-3.343 17.17 3.099-.393 6.537-1.395 7.965-4.313 6.143-2.827-1.766-4.239-.133-2.291 2.648 3.452 4.928 8.004 2.289 9.397-5.448.48-2.664 1.177-5.817 1.549-7.008.51-1.63.08-2.556-1.74-3.749-2.621-1.717-3.315-1.646-23.772 2.441-9.749 1.947-14 2.169-14 .729 0-.45.787-1.078 1.75-1.395 12.082-3.979 16.187-8.92 16.228-19.529.038-9.881-2.32-11.283-9.494-5.642m-.381 5.205l-4.313 4.395 2.855 1.368c3.613 1.732 3.85 4.452.355 4.066-5.156-.568-6.546-.258-8.25 1.841-.963 1.186-1.75 3.232-1.75 4.546 0 2.951 2 3.065 7.5.427 8.257-3.96 11.5-8.833 11.5-17.281 0-5.16-2.396-4.967-7.897.638m43.72 19.36c-4.596 2.065-6.723 8.009-6.993 19.541-.214 9.134 1.101 11.211 7.767 12.264 7.778 1.228 13.618-7.02 13.278-18.753l-.125-4.307-.742 5.06c-1.554 10.583-9.646 17.873-15.546 14.007-2.606-1.708-2.727-2.194-2.489-10.067.4-13.215 6.534-20.51 13.922-16.556 1.158.619 2.105.733 2.105.252 0-.991-4.469-3.223-6.297-3.145-.662.029-2.858.795-4.88 1.704m120.615-.817c-8.589 2.055-20.921 12.307-22.931 19.062-.409 1.375-1.321 3.175-2.026 4-1.259 1.473-3.464 8.294-3.475 10.75-.008 1.799 2.503 1.541 6.916-.71 3.486-1.779 16.14-3.91 18.578-3.129.55.176 3.641.878 6.869 1.56l5.869 1.239 2.027-3.435c3.306-5.603 9.724-6.851 16.761-3.262 5.777 2.947 8.395 8.567 7.662 16.443-.553 5.944-.483 6.16 4.232 13.044 7.99 11.667 10.576 9.668 10.43-8.064-.227-27.441-27.684-53.058-50.912-47.498m-179.96 9.68c-6.928 7.476-10.292 17.343-8.261 24.23 1.426 4.832 2.931 5.428 3.964 1.569 1.067-3.991 2.646-5.268 7.388-5.98 6.226-.933 8.943.038 11.449 4.092 4.236 6.854.308 11.095-9.436 10.189-3.214-.298-5.38-1.089-6.254-2.284-1.033-1.413-1.605-1.557-2.527-.635-2.114 2.114 7.694 10.468 15.793 13.45 16.262 5.988 25.284 7.731 27.669 5.345 3.189-3.189 2.956-18.579-.375-24.804-5.49-10.257-12.339-16.163-26.905-23.199-11.22-5.419-9.554-5.157-12.505-1.973M329 168.294c-3.987 2.017-3.128 4.667 2.5 7.712 2.75 1.488 6.767 3.906 8.926 5.374 4.561 3.101 5.955 2.963 6.383-.631 1.057-8.876-9.832-16.491-17.809-12.455m-195.466 5.014c-2.469 1.092-2.674 1.424-1.225 1.98 1.274.489 1.574 1.332 1.118 3.147-.524 2.086-.197 2.585 2.066 3.153 4.411 1.107 10.507-1.217 10.507-4.006 0-4.452-6.798-6.782-12.466-4.274m158.757 2.506c-7.33 1.99-9.957 3.938-6.524 4.835 2.798.732 2.83 1.82.108 3.726-2.556 1.79-1.997 5.437 1.551 10.125 1.249 1.65 3.818 5.809 5.708 9.242 6.429 11.675 16.709 19.788 29.366 23.176 8.929 2.39 17.176-.701 29.25-10.965 8.227-6.993 8.233-7.009 4.5-11.489-1.512-1.814-4.325-5.459-6.25-8.099-5.665-7.769-6.355-8.261-10.753-7.671-6.238.836-12.905-3.444-15.364-9.864-1.342-3.503-2.092-3.721-14.675-4.251-8.063-.339-12.242-.034-16.917 1.235m24.511 83.376c-5.693 1.515-8.802 4.942-8.802 9.703 0 2.194.521 4.311 1.158 4.704.803.497.973.01.553-1.594-2.895-11.071 22.602-16.129 28.236-5.601 3.078 5.75-3.426 15.598-10.301 15.598-3.938 0-7.646-2.453-7.646-5.057 0-1.069-.45-1.943-1-1.943-1.118 0-1.249 1.471-.408 4.602.647 2.411 6.234 5.398 10.098 5.398 4.229 0 8.841-4.27 10.679-9.889 2.202-6.733 2.106-7.5-1.451-11.552-4.544-5.174-12.162-6.751-21.116-4.369" fill="#d3d3d3" fill-rule="evenodd"/></svg>