<svg xmlns="http://www.w3.org/2000/svg" width="500" height="655"><path d="M470.5 23.608c-2.75.786-6.285 1.197-7.855.914-2.246-.404-2.733-.194-2.282.982.71 1.851.55 1.851-2.999.009-1.575-.818-3.708-1.22-4.739-.893-1.225.388-1.638.21-1.191-.513.376-.609.213-1.107-.364-1.107-1.581 0-5.04 3.24-4.46 4.178.28.452-.194.822-1.051.822S444 27.611 444 27.137c0-1.613-4.471-.648-4.795 1.034-.269 1.398.342 1.594 3.737 1.204 2.453-.281 4.058-.052 4.058.58 0 1.035-1.334 1.433-3.75 1.12-.687-.09-1.25.355-1.25.988s-.698.883-1.552.555c-1.004-.385-1.303-.192-.845.548.419.678.265.87-.379.472-.597-.369-1.368-.213-1.714.346-.345.559-1.501 1.016-2.569 1.016S433 35.45 433 36s-.337.91-.75.8c-.413-.11-3.029.98-5.815 2.423l-5.064 2.623.186 6.05c.149 4.828-.141 6.144-1.435 6.515-3.737 1.071-124.212 2.833-154.122 2.254-21.033-.407-49.082-.103-79.5.863-25.85.821-67.7 1.826-93 2.232l-46 .74.224 78.5c.123 43.175.464 80.834.757 83.687.314 3.051.112 5.446-.49 5.819a1.217 1.217 0 00-.379 1.675c.354.573.594 3.272.533 5.996-.062 2.725.362 11.337.942 19.139.58 7.801 1.236 17.109 1.457 20.684l.808 13c.222 3.575.424 24.05.449 45.5.069 61.09.363 105.678.722 109.5 1.194 12.724 3.143 86.664 3.399 128.968.103 16.948.547 27.704 1.161 28.083.547.338 4.914.507 9.706.376 4.791-.131 14.165-.281 20.832-.333L99.742 601l.654-8.25c1.494-18.84 1.466-18.732 4.969-18.9 3.023-.144 3.037-.165.385-.566-3.295-.499-3.585-3.402-1.348-13.472.772-3.472 1.692-7.999 2.046-10.062.63-3.678.733-3.753 5.347-3.925l4.705-.174-4.25-.383c-4.627-.417-4.597-.342-3.17-7.768.529-2.75 1.166-6.224 1.417-7.719 2.759-16.439 18.28-48.027 33.636-68.458 37.051-49.294 113.627-90.665 188.367-101.765 22.475-3.338 105.931-6.481 107.751-4.058.685.912 0 123.338-.755 135-.178 2.75-.362 9.581-.41 15.18-.082 9.731-.185 10.2-2.336 10.614l-2.25.434 2.25.136c1.927.116 2.25.698 2.25 4.053 0 2.197-.549 4.138-1.25 4.421-1 .403-1 .52 0 .583 1.245.079 1.951 18.079.709 18.079-1.401 0-14.019-4.388-14.459-5.028-.782-1.137-8.364-2.083-9.692-1.209-.77.506.029 1.166 2.25 1.861 2.49.78 3.446.773 3.457-.023.009-.632.373-.537.854.221.461.727 1.916 1.459 3.234 1.626 4.32.547 7.897 1.752 7.897 2.66 0 .491 1.53.892 3.4.892h3.401l.139 26.995c.13 25.373.031 26.986-1.651 26.842-.984-.085-4.77-.083-8.414.005-6.299.15-6.625.277-6.625 2.58 0 1.332-.301 4.832-.669 7.778l-.669 5.356 5.294 1.669c9.752 3.074 25.084 4.732 26.254 2.839 1.486-2.403 15.54.403 15.54 3.104 0 .522.424.688.942.368.518-.32.753-2.934.523-5.809-.836-10.418-.158-44.797.918-46.538.346-.56.064-1.247-.627-1.527-.813-.33-.903-.801-.256-1.336.55-.454 1-3.188 1-6.075s.225-5.249.5-5.25c.577-.001.254-35.784-.482-53.501-1.846-44.372-.004-155.523 2.509-151.456.98 1.585 2.004-.197 1.835-3.194-.073-1.292.176-21.7.552-45.35.377-23.65.644-90.025.594-147.5-.051-57.475-.055-110.912-.009-118.75.046-7.838-.047-14.21-.207-14.161-.161.05-2.542.733-5.292 1.519m-243.829 2.218c-.932.179-1.391.818-1.019 1.42.433.701.078.864-.988.455-.915-.351-1.664-.227-1.664.275 0 .504 5.126.86 11.451.794 7.321-.075 11.23-.477 10.836-1.114-.362-.586.057-.738 1.017-.37.898.345 1.898.196 2.223-.33.325-.526 1.577-.924 2.782-.886 2.032.065 2.051.125.264.825-1.724.676-1.75.823-.25 1.399.922.354 1.677.319 1.677-.078s2.25-.621 5-.499c2.75.123 5-.213 5-.747 0-1.017 2.14-.913 3 .145 1.311 1.613 4.892 1.85 6.323.419 1.975-1.975 3.31-2.002 1.677-.034-1.371 1.652-.558 1.814 2.5.5 1.347-.579 1.51-.887.5-.945-1.333-.076-1.333-.193 0-1.055.996-.644-5.15-.975-18.309-.985-12.955-.01-19.595.331-19.191.985.34.55.141 1-.441 1S238 26.663 238 26.25c0-.745-8.083-1.048-11.329-.424M142 27.02c-10.175.302-16.7.716-14.5.92 2.2.204 5.081.273 6.403.154 1.321-.12 2.784.373 3.25 1.094.579.897 1.084.974 1.597.243.867-1.235 8.25-1.627 8.25-.438 0 .437 1.85.379 4.112-.129 4.697-1.056 16.323-.903 19.571.256 1.377.492 2.323.362 2.56-.35.251-.753 5.463-1.244 15.641-1.474 10.238-.23 15.055-.006 14.631.68-.348.563-.156 1.024.426 1.024S205 28.55 205 28s1.575-1 3.5-1 3.5.398 3.5.883c0 .486 1.125 1.099 2.5 1.362 1.375.263 2.5.042 2.5-.491 0-.532.708-.696 1.574-.364.866.332 2.253-.074 3.083-.904 1.6-1.6-34.309-1.81-79.657-.466M31.408 166.917c.376 39.371 1.093 83.058 1.595 97.083.959 26.815 1.607 67.848 2.571 163 .32 31.625.724 59.075.897 61 .174 1.925.401 16.87.505 33.21.105 16.341.431 30.629.724 31.75.984 3.762 1.799 2.089 1.921-3.943.067-3.29.694-7.362 1.392-9.049 1.047-2.528 1.026-3.529-.121-5.682-1.091-2.048-1.122-2.704-.142-3.033.688-.231 1.243-1.395 1.235-2.586-.013-1.766-.195-1.889-.985-.667-.78 1.207-.972 1.049-.985-.809-.008-1.288.427-2.036.985-1.691.569.352 1-.509 1-2s-.431-2.352-1-2c-.55.34-1 .179-1-.358 0-.536.437-1.125.971-1.309.839-.287 2.34-25.3 2.071-34.493-.093-3.192.556-6.347 3.357-16.314 1.391-4.952 1.388-5.702-.035-7.873-1.225-1.87-1.333-2.925-.49-4.777.875-1.918.798-2.376-.395-2.376-1.809 0-1.81.189.021-5 .825-2.338 1.5-5.523 1.5-7.076 0-1.556.723-3.229 1.609-3.725 1.458-.816 1.461-.958.032-1.507-1.567-.601-2.201-12.676-.796-15.165 1.24-2.197.738-11.527-.62-11.527-1.287 0-1.072-5.821.298-8.038.943-1.525 1.213-6.962.346-6.962-.478 0-.869-1.125-.869-2.5s-.39-2.5-.866-2.5c-.477 0-.853-2.138-.836-4.75.017-2.613-.242-7.45-.576-10.75-.334-3.3-.833-8.637-1.109-11.861-.275-3.223-.722-6.082-.993-6.352-.271-.271-.082-1.571.419-2.89.501-1.318.585-2.397.186-2.397-.399 0-.656-5.962-.572-13.25.085-7.287-.177-13.7-.582-14.25-.404-.55-.657-2.93-.561-5.289.095-2.359-.213-4.527-.685-4.819-.472-.292-.67-.837-.44-1.211 1.425-2.325 2.652-19.184 1.396-19.182-.395 0-.46-.671-.145-1.493.316-.822 1.042-1.205 1.614-.852.693.429.78-.325.261-2.255-1.025-3.81-1.194-12.998-.32-17.399.382-1.925.911-6.875 1.175-11s.809-10.607 1.211-14.404c.43-4.061.359-6.674-.173-6.346-1.164.72-1.386-3.157-1.67-29.25-.137-12.547-.64-21.791-1.21-22.199-.536-.384-1.043-2.634-1.127-5-.083-2.365-.462-5.426-.843-6.801-.586-2.118-.519-2.229.439-.729 1.859 2.913 3.008.962 2.992-5.08-.011-4.043-.296-5.257-.985-4.191-.784 1.213-.972 1.069-.985-.75-.008-1.238-.423-2.25-.921-2.25-.499 0-.662-.936-.363-2.081.371-1.417 1.127-1.928 2.372-1.602 1.525.399 1.807-.092 1.699-2.962-.071-1.891-.506-3.672-.966-3.956-.46-.284-.836-1.615-.836-2.958 0-1.343-.45-2.441-1-2.441-1.177 0-1.358-3.661-.216-4.366 1.246-.771.148-8.634-1.206-8.634-.85 0-1.04-1.269-.634-4.25.51-3.749.297-6.687-1.309-18-.215-1.513.005-2.75.487-2.75.483 0 .878-2.502.878-5.559 0-3.057-.382-5.323-.849-5.035-.466.289-1.717-.285-2.779-1.274-1.062-.989-2.767-1.799-3.789-1.799-1.8 0-1.837 2.24-1.175 71.584" fill="#d3d3d3" fill-rule="evenodd"/></svg>