<svg xmlns="http://www.w3.org/2000/svg" width="500" height="499"><path d="M415.65 3c.41 2.051.205 3-.647 3-.971 0-.958.349.06 1.576.881 1.062.966 1.796.259 2.25-.585.376-.731 1.558-.33 2.674.396 1.1.289 3.241-.237 4.758-.809 2.333-.594 3.06 1.394 4.717 1.293 1.077 2.033 1.973 1.645 1.992-.388.018-.05 1.89.75 4.159 1.696 4.807 1.871 7.248.456 6.374-.566-.35-1 .479-1 1.91 0 1.946-.382 2.38-1.664 1.889-1.119-.43-1.427-.256-.941.531.427.692.086 1.221-.836 1.295-.857.069-2.009.237-2.559.375-.55.138-1.295.306-1.655.375-.36.069.127.989 1.082 2.044.956 1.056 1.633 2.969 1.506 4.25-.127 1.282.037 3.006.364 3.831 1.934 4.883 2.84 10.908 3.309 22 .291 6.875 1.172 16.325 1.958 21 1.632 9.705 1.847 16.628.54 17.436-.522.322-.479 2.121.102 4.309.549 2.065.992 4.88.984 6.255-.007 1.375.358 2.95.812 3.5.464.562.055 1.95-.935 3.17l-1.759 2.171-1.845-2.155c-2.446-2.857-5.561-17.662-5.3-25.186.261-7.493-1.907-22.923-3.832-27.275-.797-1.801-1.351-4.051-1.233-5 .119-.949-.368-3.901-1.081-6.56-1.743-6.496-4.689-7.97-9.865-4.933-2.009 1.178-5.542 3.109-7.853 4.292-2.31 1.183-5.803 4.105-7.76 6.494-3.497 4.267-3.573 4.554-4.299 16.163-.819 13.079-2.566 15.864-3.041 4.847-.169-3.915-.812-7.289-1.466-7.693-1.503-.929-3.733.921-3.733 3.096 0 3.591-2.307 5.283-5.53 4.056-1.633-.621-6.345-1.297-10.47-1.5-4.125-.203-8.512-.674-9.75-1.045-1.238-.371-2.282-.285-2.321.191-.287 3.491-.993 9.337-1.413 11.712-.397 2.242-.081 2.956 1.49 3.367 1.097.287 1.994.919 1.994 1.405 0 .485.705.883 1.567.883 1.176 0 1.385.562.836 2.25-.402 1.237-.681 11.25-.618 22.25.118 20.861-.428 25.326-3.918 32.045-1.861 3.583-2.515 4.048-5.734 4.078-24.161.225-38.988 5.767-38.344 14.332.147 1.96-.028 2.2-.762 1.045-.525-.825-1.758-1.522-2.741-1.549-2.771-.076-6.286-1.485-6.286-2.518 0-.513-1.067-.933-2.371-.933-2.074 0-2.45.596-3.002 4.75-.679 5.119-5.733 16.785-7.532 17.385-.742.247-.811 1.367-.214 3.45.519 1.808.511 3.75-.018 4.696-.496.886-.964 10.073-1.038 20.415-.121 16.738-.275 18.365-1.404 14.804-.697-2.2-1.302-4.787-1.344-5.75-.042-.963-.465-1.75-.938-1.75-.474 0-.286 3.595.417 7.989.704 4.394 1.064 11.482.802 15.75-.541 8.776.222 14.639 1.779 13.676.619-.382.956.311.839 1.723-.392 4.701-.115 5.14 2.879 4.541 1.759-.352 3.678.006 5 .932 1.225.858 2.145 1.049 2.145.446 0-.581.675-1.057 1.5-1.057s1.56-.562 1.633-1.25c.497-4.677.967-10.328 1.433-17.25.641-9.507 1.153-11.572 2.378-9.59 1.109 1.794 3.773-2.171 4.679-6.962.755-3.993 2.994-6.944 5.282-6.958.877-.006 2.482-1.047 3.566-2.313l1.972-2.302 2.314 2.497c1.273 1.374 2.102 3.052 1.842 3.73-.26.678.211 1.495 1.046 1.815 2.2.844 2.279.784 1.855-1.417-.42-2.181 1.023-2.77 1.838-.75.35.869.551.793.66-.25.846-8.17 3.02-8.26 3.588-.148.447 6.382.702 7.495 1.914 8.367.646.465.52 1.494-.355 2.905-2.129 3.434-2.129 6.647.001 7.204 1.061.277 1.854 1.381 1.854 2.578 0 1.152.436 2.094.969 2.094.532 0 .673-.787.312-1.75-.574-1.532-.446-1.579 1.032-.378.928.755 1.687 1.924 1.687 2.597 0 1.88 3.239 5.13 5.75 5.77 2.364.603 2.692-.15 2.262-5.193-.169-1.984.056-2.235 1.173-1.308 1.705 1.415 2.197 6.681.857 9.183-.777 1.452-.611 1.959.761 2.317 2.722.712 4.597-2.089 4.338-6.482-.138-2.325.162-3.687.733-3.334 1.353.836 4.35-2.396 3.727-4.019-.282-.736-.076-1.609.459-1.94.535-.331.676-1.081.314-1.667-1.264-2.045-1.108-11.796.189-11.796 1.218 0 2.907-2.796 2.586-4.28-.093-.429.538-2.149 1.403-3.821 1.68-3.248 2.01-3.181 6.655 1.351 2.021 1.972 2.339 7.794.779 14.25-.532 2.2-1.233 7.6-1.558 12-.325 4.4-1.025 11.6-1.556 16-.531 4.4-1.329 17.55-1.773 29.222-.445 11.673-1.262 21.798-1.816 22.5-.554.703-1.303 2.516-1.664 4.028-.747 3.127-3.253 3.632-5.151 1.038-1.75-2.394-4.122-.287-5.519 4.9-1.308 4.858-11.479 16.48-12.376 14.142-.845-2.201-.697-3.525.322-2.895.493.305 1.153-.119 1.469-.941.315-.822.111-1.494-.454-1.494-.566 0-.75-.45-.41-1s-.309-1-1.441-1c-1.132 0-2.059-.115-2.059-.257 0-.141.397-1.641.882-3.333.84-2.928.744-3.077-2-3.077-1.585 0-2.882.375-2.882.834 0 .458-.498.833-1.107.833s-.853-.661-.544-1.468c.31-.807.133-1.734-.393-2.059-.526-.325-.963-.002-.971.718-.012.992-.235.962-.921-.122-.91-1.438-.941-1.327-2.588 9.315-.389 2.52-.113 3.541 1.082 4 2.106.808 1.806.902 4.467-1.405 1.756-1.524 2.52-1.715 3.1-.777.423.685.317 1.525-.236 1.866-.553.342-.706 1.811-.341 3.268.491 1.956.234 2.81-.987 3.279-1.462.561-1.417.798.394 2.066 1.125.788 2.081 2.194 2.124 3.126.049 1.051.271 1.217.585.437 1.383-3.43 2.092.764 1.609 9.524-.582 10.563-.275 11.36 4.85 12.581 2.25.536 3.027.042 5.467-3.478 2.788-4.024 2.871-4.063 4.249-1.987.773 1.164 2 2.116 2.726 2.116 2.648 0 4.435 4.306 4.435 10.688 0 3.434.634 11.096 1.409 17.028.774 5.931 1.919 17.534 2.544 25.784s1.649 17.475 2.277 20.5c.648 3.121 1.038 12.29.901 21.196-.224 14.674-.106 15.829 1.815 17.75 4.568 4.568 8.257 2.261 9.508-5.946 1.205-7.907 2.524-11 4.689-11 4.785 0 7.857-4.473 7.857-11.439 0-2.76.329-3.135 2.72-3.1 1.991.028 3.074-.69 4.04-2.68 1.225-2.525 1.726-2.706 7.03-2.536 5.176.165 5.818-.048 6.862-2.281 1.726-3.693-2.237-28.409-5.125-31.964-.784-.964-1.077-3.822-.822-8 .218-3.575.414-6.95.437-7.5.099-2.451-3.46-13.376-5.613-17.226-2.616-4.682-1.777-10.53 1.438-10.018 1.255.2 1.574-1.208 1.757-7.756.124-4.4.526-13.333.894-19.852.46-8.145.329-12.062-.419-12.525-1.737-1.074-1.155-19.413.678-21.358.381-.404 2.696-.392 5.145.026 4.202.717 4.497.983 5.251 4.734 1.093 5.438 1.545 7.839 1.644 8.725.152 1.369 2.343.776 3.691-1 1.246-1.641 1.331-1.625 1.376.25.089 3.809 1.576 5.022 4.514 3.683 2.607-1.188 6.876-.15 4.761 1.157-1.32.816.117 8.657 1.775 9.681 2.19 1.354.282 4.214-2.271 3.404-1.998-.634-2.096-.531-.883.931.751.904.916 1.644.367 1.644-.548 0-.997 1.125-.997 2.5 0 1.542.568 2.5 1.482 2.5.906 0 1.258-.583.906-1.5-.341-.888-.01-1.5.81-1.5.762 0 1.618-.562 1.901-1.25.313-.757.786-.363 1.2 1 .376 1.237 1.356 2.25 2.176 2.25 1.081 0 1.324.67.882 2.431-.757 3.017.908 7.673 2.621 7.326.956-.193 1.424 3.099 1.883 13.243.763 16.853 2.403 30.525 4.54 37.856 1.475 5.062 1.518 7.663.414 25.228-.865 13.762-.924 20.748-.198 23.5.568 2.154 1.562 7.966 2.209 12.916s1.31 9.675 1.474 10.5c.163.825.331 2.404.373 3.509.118 3.075 3.093 4.402 7.9 3.523 2.297-.42 4.177-.374 4.177.102s.9.866 2 .866c2.175 0 2.452-.737 1.087-2.893-.517-.816-1.753-1.166-2.984-.844-1.155.302-2.321.193-2.591-.243-.269-.436.518-1.069 1.749-1.406 1.518-.416 1.853-.864 1.042-1.39-.79-.512-.88-1.279-.266-2.25.783-1.238.935-1.194.948.276.008.962.465 1.75 1.015 1.75.55 0 1-.505 1-1.122 0-.768.482-.723 1.524.142 2.124 1.763 2.93.577.952-1.401-.89-.89-1.249-1.653-.797-1.696.451-.042 1.609-.227 2.571-.411.962-.184 1.75.075 1.75.576 0 .502-.45.912-1 .912s-1 .402-1 .894 1.119.83 2.487.75c1.863-.108 2.351-.574 1.945-1.856-.299-.942-.067-2.602.515-3.69.702-1.311.721-2.185.056-2.596-.552-.341-1.003-.143-1.003.439s-.788 1.052-1.75 1.044c-1.287-.012-1.41-.231-.466-.83 1.579-1.003.524-4.155-1.391-4.155-.766 0-1.393-.675-1.393-1.5s-.4-1.5-.889-1.5-.826-.788-.75-1.75c.076-.962-.311-1.681-.861-1.596-.55.085-1.58-.477-2.289-1.25-.776-.844-.876-1.454-.25-1.529 5.215-.627 7.713-3.875 2.98-3.875-1.068 0-1.997-.45-2.066-1-.069-.55-.181-1.413-.25-1.917s-.459-1.25-.866-1.658c-.408-.407-.212-1.379.435-2.159.852-1.026.871-1.608.071-2.102-.609-.376-1.411-1.899-1.784-3.383-.372-1.484-1.303-3.218-2.068-3.853-.765-.635-1.164-1.523-.886-1.972.278-.45.065-1.09-.472-1.422-.623-.385-.638-1.5-.042-3.069.68-1.788.601-2.469-.288-2.48-.868-.011-.83-.266.132-.875.953-.604 1.025-1.065.242-1.549-.778-.481-.66-1.143.391-2.194 1.134-1.134 1.249-1.987.465-3.451-.808-1.51-.69-2.08.527-2.548 1.212-.465 1.308-.916.421-1.985-.868-1.046-.857-1.383.046-1.383.794 0 .697-.497-.291-1.485-1.136-1.135-1.631-5.015-.641-5.015.093 0 .319-1.575.502-3.5.182-1.925.588-5.187.9-7.25.34-2.239.161-3.75-.444-3.75-.581 0-.746-1.066-.386-2.5.401-1.597.206-2.5-.54-2.5-.642 0-.889-.45-.549-1 .34-.55.204-1-.302-1-.507 0-.705-1.128-.442-2.506.264-1.378-.079-3.178-.761-4-.736-.887-.822-1.494-.211-1.494.566 0 .793-.9.506-2-.288-1.1-.983-2-1.546-2-.639 0-.801-1.867-.434-4.972.327-2.757.166-5.234-.36-5.559-.523-.323-.95-1.037-.95-1.587s.5-.691 1.112-.313c1.263.781 2.85-1.264 2.873-3.702.008-.899-.784-1.843-1.761-2.098-1.168-.306-1.86-1.58-2.024-3.728-.137-1.795-.664-4.039-1.171-4.987-.903-1.688-.474-11.524.577-13.225.293-.474.951-.603 1.463-.286.512.316.931.015.931-.67 0-.684 1.012-2.341 2.25-3.683l2.25-2.438-2.336.718c-2.135.658-2.238.537-1.2-1.403.625-1.168 1.564-1.859 2.086-1.536.523.323.986-.227 1.029-1.222.049-1.119.277-1.316.597-.517.375.934.875.996 1.806.223.983-.816 1.452-.414 1.982 1.698.382 1.522 1.19 3.073 1.795 3.447 1.022.632 1.706 2.575 1.966 5.59.06.688.483 1.25.942 1.25.458 0 .862 1.012.896 2.25.062 2.195.088 2.189 1.052-.226.807-2.022 1.159-2.205 1.921-1 .513.812.94 1.153.949.758.029-1.365 4.515.952 4.515 2.333 0 .768 1.226 1.526 2.75 1.701 2.461.284 2.75 0 2.75-2.691 0-3.388 1.283-4.722 2.755-2.864.851 1.074 1.746 5.356 3.808 18.215.263 1.637 1.331 4.787 2.374 7 1.106 2.347 2.605 9.651 3.596 17.524 1.999 15.88 4.878 29.304 6.392 29.808.591.197 1.075.996 1.075 1.775 0 .78.374 1.417.831 1.417.457 0 1.404 1.071 2.104 2.379 1.771 3.309 4.855 2.342 5.551-1.739.294-1.727.418-50.952.275-109.39-.144-58.437.106-106.372.555-106.522.448-.149.493-13.616.099-29.926-.707-29.25-.745-29.654-2.816-29.606-2.991.071-11.438 2.772-15.892 5.083-4.817 2.499-4.777 2.556-5.875-8.385-.507-5.056-1.326-9.948-1.82-10.871-.493-.922-1.206-4.005-1.583-6.85-.743-5.594-2.254-6.529-5.988-3.705-2.708 2.049-4.336 1.883-6.388-.651l-1.767-2.183-1.643 2.683c-.904 1.476-2.328 3.808-3.166 5.183-.838 1.375-2.411 2.5-3.497 2.5-3.812 0-9.831 6.75-11.833 13.271l-1.854 6.04-.515-27.766c-.284-15.271-.923-28.053-1.42-28.405-1.913-1.354-4.31-6.102-3.779-7.486.307-.799.096-1.737-.467-2.085-.95-.587-.822-1.686.648-5.569a94.58 94.58 0 00.737-2c1.144-3.36 2.62-5.889 3.688-6.316.982-.393.999-.546.065-.605-.687-.043-1.25-.619-1.25-1.279 0-.896.288-.912 1.136-.064.847.847 1.531.74 2.694-.423 1.411-1.411 1.612-1.404 2.131.077.501 1.428.805 1.364 2.407-.507 1.887-2.204.997-3.83-2.118-3.868-1.499-.018-1.663-3.202-.238-4.627.682-.682.668-3.108-.043-7.45-1.535-9.366-.624-16.18 2.676-20.019.748-.87 1.114-1.827.814-2.127-.3-.3.149-.811.998-1.137.869-.334 1.546-.06 1.549.626.004.671.705 2.56 1.56 4.199.854 1.638 2.061 5.238 2.68 8 1.317 5.865 1.236 6.227 2.816-12.525 1.131-13.406 1.087-14.839-.557-18.303-.981-2.067-1.833-4.594-1.894-5.616C450.322 1.197 446.259 0 430.117 0H415.05l.6 3M28.614 25.815C27.449 27.7 29.876 31 32.428 31c2.158 0 2.345.392 2.215 4.643-.184 5.975-2.534 7.814-13.773 10.776-5.918 1.56-8.462 2.7-8.692 3.893-.197 1.027.314 1.688 1.308 1.688.897 0 1.354-.45 1.014-1-.934-1.511 3.09-1.2 4.365.338.821.989.709 2.877-.43 7.25-.847 3.251-1.629 8.723-1.738 12.159-.108 3.436-.438 6.248-.733 6.25-.294.002-.545.79-.556 1.753-.012.963-.35 3.019-.751 4.569-.654 2.526-.494 2.786 1.533 2.5 2.011-.283 2.343.229 2.976 4.584.392 2.697 1.205 5.208 1.807 5.58.61.377.781 1.493.387 2.521-.555 1.445-.346 1.705.966 1.201 1.37-.526 1.674-.002 1.674 2.885 0 2.098.406 3.277 1 2.91.568-.351 1.051.596 1.118 2.191.416 9.955.282 16.657-.353 17.655-.884 1.389-.949.743-.915-9.117.036-10.205-1.463-8.155-2.091 2.861-.352 6.179-.965 9.426-1.89 10.012-1.692 1.072-3.144 1.157-2.533.148.25-.412-.179-1.335-.953-2.051-1.161-1.073-1.511-1.029-2.002.25-.327.853-1.334 1.544-2.238 1.536-.942-.009-1.217-.329-.643-.75.55-.404 1.114-1.86 1.253-3.235.196-1.934.034-2.16-.716-1-1.028 1.59-1.245-.884-1.431-16.25-.051-4.263-.391-7.75-.756-7.75-.658 0-2.399-9.361-2.185-11.75.062-.688-.175-1.251-.526-1.251-.351-.001-.682-2.328-.735-5.172-.092-4.914-3.402-9.8-6.654-9.822-.413-.003-.734 16.532-.715 36.745.029 29.271.283 36.343 1.25 34.75C2.465 141.558 7 140.503 7 142.171c0 .456.787.836 1.75.844 1.496.013 1.532.157.25.985-1.333.862-1.333.973 0 1 .988.02 1.119.282.385.765-1.546 1.019-2.814 5.239-2.474 8.235.373 3.292.707 3.525 2.494 1.738.825-.825 1.221-1.778.881-2.119-.341-.34.028-.619.82-.619 1.744 0 3.812 7.985 2.76 10.658-.399 1.013-.757 3.425-.796 5.36-.081 4.05-4.064 10.528-7.058 11.478-1.15.365-2.012 1.513-2.012 2.678 0 1.403-.469 1.86-1.5 1.464-1.296-.497-1.482 1.491-1.364 14.643.075 8.371.325 14.094.556 12.719 1.35-8.046 4.974-12.107 7.28-8.157.896 1.536.969 1.534.998-.026.016-.925 1.022-1.997 2.233-2.382 1.212-.384 2.819-1.314 3.572-2.067 1.929-1.929 3.225-1.699 3.225.573 0 1.068.45 2.219 1 2.559.55.34 1 1.941 1 3.559S21.45 209 22 209s1 .51 1 1.133c0 1.532 3.397 4.375 7.025 5.877 1.807.749 2.975 1.97 2.975 3.111 0 1.034.54 1.879 1.2 1.879.933 0 .933.267 0 1.2-1.574 1.574-1.54 3.144.055 2.532.691-.265 1.833.137 2.54.893.706.756.846 1.375.312 1.375-.535 0-1.288 1.012-1.674 2.25-.387 1.237-1.104 2.509-1.594 2.825-.491.317.249 1.807 1.643 3.311 1.61 1.737 2.387 3.552 2.13 4.972-.389 2.143 1.693 12.208 2.499 12.081 1.083-.171 10.482-5.979 11.073-6.843.376-.55.994-3.254 1.373-6.008.379-2.755 1.044-5.701 1.479-6.548.719-1.4 2.964-21.775 2.964-26.902 0-1.176-.46-2.138-1.021-2.138-1.126 0-2.12 2.21-4.049 9-1.504 5.297-2.93 7.341-2.93 4.2 0-1.21-.439-2.2-.975-2.2-1.012 0-.293-5.703.945-7.5.379-.55.588-2.671.464-4.714-.294-4.851 1.371-6.168 6.797-5.378 2.348.342 5.394.78 6.769.973 1.375.193 3.073-.102 3.774-.657.701-.555 1.597-.686 1.992-.291.394.394-.073 1.159-1.038 1.699-1.568.878-1.594 1.145-.242 2.497 1.814 1.814 2.08 8.49.323 8.121-.654-.137-1.367.65-1.584 1.75-.217 1.1-1.117 2.563-2 3.25-.945.734-1.116 1.25-.416 1.25.655 0 1.191.525 1.191 1.167 0 .641-.279.888-.619.547-.879-.878-2.915 1.385-3.597 3.999-.636 2.436 1.558 5.16 2.686 3.336 1.148-1.859 5.349-1.196 6.03.951.852 2.685 3.273 2.518 7.768-.536 2.613-1.776 3.732-3.275 3.732-5 0-2.848 2.962-3.419 5-.964 2.252 2.714 4.075 1.579 6.588-4.104 3.371-7.622 4.205-13.878 1.964-14.738-.923-.354-1.399-1.097-1.056-1.651.342-.554.241-1.007-.224-1.007-.466 0-.953-1.4-1.084-3.111-.13-1.711-.692-3.961-1.248-5-.688-1.287-.68-1.889.025-1.889.569 0 1.035-1.575 1.035-3.5V181l2.214 2.214 2.213 2.213.687-2.463c.378-1.355.731-2.057.786-1.559.055.498.97.118 2.033-.844 1.062-.962 1.678-2.412 1.367-3.222-.541-1.411.196-3.496 3.406-9.635 1.155-2.211 1.207-3.103.248-4.26-1.422-1.712-.656-9.71.981-10.256.586-.195 1.065-2.342 1.065-4.771 0-2.573.464-4.417 1.111-4.417.735 0 .883-1.221.437-3.598-.507-2.701-.372-3.411.543-2.846.777.481.96.335.504-.401-.392-.635-.236-1.155.346-1.155s1.059.9 1.059 2 .563 2.007 1.25 2.015c.84.011.898.256.177.75-1.6 1.096-2.235 3.497-1.483 5.608 1.282 3.594 4.056-.814 4.056-6.444 0-2.711.45-4.929 1-4.929s1.057.338 1.128.75l.469 2.75c.188 1.1.627 3.206.976 4.681.462 1.955.064 3.292-1.47 4.938-2.196 2.358-2.525 4.523-1.478 9.756 1.578 7.889 3.878-.333 4.862-17.375.558-9.677.461-10.786-.808-9.221-1.287 1.588-1.508 1.608-2.054.187-.336-.876-1.013-1.344-1.504-1.041-.492.304-1.139-.388-1.44-1.537-.301-1.149-.98-1.822-1.509-1.494-.529.327-1.235-.115-1.567-.982-.902-2.349-.756-2.684.895-2.05.825.316 1.5.153 1.5-.362s.563-.724 1.25-.463c1.577.599 2.305-9.076.755-10.034-.636-.393-.155-1.392 1.224-2.542 1.249-1.042 1.709-1.909 1.021-1.928-2.112-.056-1.382-2.033.75-2.033 1.1 0 2-.649 2-1.443 0-.91-.747-1.298-2.027-1.052-1.289.249-1.779-.01-1.345-.712.382-.618.227-.822-.352-.464-.583.361-1.281-.604-1.603-2.215-.372-1.857-1.375-3.074-2.872-3.484-1.322-.362-1.876-.949-1.301-1.38.55-.412.994-1.875.987-3.25-.019-3.85 1.377-5 6.07-5 2.372 0 5.58-.492 7.128-1.094 1.548-.602 3.715-1.216 4.815-1.364 1.1-.148 3.977-.815 6.393-1.483 3.195-.882 4.581-.911 5.079-.105.446.722 1.504.805 3.033.24 2.106-.779 2.364-1.533 2.5-7.281.083-3.527.632-8.103 1.219-10.168.617-2.171.69-3.989.172-4.309-.493-.305-.903.035-.911.755-.011.951-.281.899-.985-.191-.694-1.073-.974.003-.985 3.782-.025 8.681-1.881 11.754-8.173 13.532C129.651 82.628 124 83.352 124 82.088c0-.598-.675-1.088-1.5-1.088s-1.5-.477-1.5-1.059-.338-.879-.75-.659c-1.038.554-4.237-2.962-3.43-3.769.861-.861.873-7.513.013-7.513-.366 0-.82.46-1.007 1.021-.789 2.369-9.45 1.214-11.454-1.527-.743-1.016-1.649-1.55-2.013-1.187-.364.364-1.254-.119-1.978-1.073-1.217-1.602-1.32-1.568-1.349.457-.039 2.676-1.608 3.856-2.396 1.803-.337-.879-1.844-1.494-3.664-1.494-1.805 0-2.833-.416-2.472-1 .34-.55-.11-1-1-1-.968 0-1.332.464-.905 1.155.443.715.275.883-.44.44-.685-.422-1.155-.078-1.155.846 0 2.057-1.617 2-2.417-.084-.346-.904-.898-1.375-1.226-1.048-.327.328-1.309-.118-2.181-.991-1.058-1.057-1.714-1.205-1.967-.446-.209.627-.861.843-1.449.48-.588-.364-.794-.216-.458.327.335.543.067.992-.596.997-.663.005-2.191.327-3.395.715-1.634.526-2.467.186-3.285-1.343-1.485-2.774-3.146-2.576-6.339.757-2.972 3.102-3.399 4.985-1.312 5.785 1.33.511 2.013 5.426.75 5.395-1.401-.035-3.346-1.819-2.858-2.623.288-.474-.072-1.411-.798-2.083-1.041-.961-1.427-.961-1.816 0-.273.672-.531.005-.574-1.482-.099-3.399 1.838-7.813 4.345-9.898 1.059-.88 1.996-2.455 2.084-3.5.087-1.044.488-2.912.892-4.149.789-2.417-1.078-3.172-3.025-1.225-.564.564-2.409 1.201-4.1 1.415-2.6.329-3.146.016-3.536-2.026-.378-1.975-.051-2.414 1.793-2.414 1.24 0 2.513-.675 2.83-1.5.664-1.732 4.638-2.056 4.638-.378 0 .811.39.799 1.403-.041 1.041-.865 1.5-.871 1.782-.026.282.845 1.534.825 4.847-.078 4.003-1.091 4.234-1.306 2.218-2.065-1.237-.466-2.25-1.216-2.25-1.665 0-.45-1.013-.925-2.25-1.056-5.345-.564-9.661-.865-15.75-1.096-6.435-.245-6.466-.259-3.085-1.482 1.878-.679 7.485-1.342 12.459-1.474 8.608-.229 12.26-1.303 11.056-3.252-.301-.488-1.984-.948-3.739-1.023-2.352-.101-2.6-.25-.941-.57 1.237-.238 2.25-1.077 2.25-1.864 0-.807.959-1.43 2.2-1.43 1.712 0 1.934-.266.999-1.201-.934-.934-1.937-.934-4.521 0-1.826.661-5.763 1.273-8.749 1.361-3.576.105-4.32.298-2.179.563 1.788.222 3.25.811 3.25 1.309 0 .498.675.646 1.5.33.921-.354 1.5.001 1.5.92 0 .931-1.416 1.773-3.75 2.231-9.285 1.822-13.069 1.137-14.476-2.621-.464-1.239-1.767-1.547-5.688-1.344-2.797.146-5.086-.143-5.086-.642 0-.498-.472-.906-1.048-.906-.576 0-2.079-1.199-3.34-2.664-1.522-1.77-2.528-2.28-2.998-1.521m48.438 2.132c-1.135.718-.865 1.062 1.25 1.593 1.484.372 2.698 1.105 2.698 1.627 0 .523.45.673 1 .333s1 .276 1 1.368-.632 2.131-1.405 2.309c-1.173.27-1.132.889.25 3.75 1.899 3.933 3.346 4.714 5.289 2.855 2.582-2.472 7.289-5.103 9.576-5.354 2.248-.247 2.576.252 2.552 3.881-.007 1.105.511 1.608 1.331 1.294.739-.284 1.609-.085 1.934.441.325.526-.128.956-1.007.956-1.325 0-1.378.252-.309 1.469 1.112 1.268 1.687 1.037 4.192-1.687 2.745-2.984 3.309-3.159 10.354-3.219C124.3 39.491 126 41.049 126 48.95c0 5.29 1.631 5.182 3.021-.2 1.901-7.356 2.072-7.729 4.026-8.775 1.052-.563 3.154-.712 4.673-.331 2.427.61 2.58.518 1.27-.761-.819-.801-2.538-1.526-3.82-1.613-3.025-.205-4.973-1.873-5.36-4.593-.276-1.94-.909-2.173-5.81-2.141-3.676.024-5.869-.447-6.612-1.421-1.532-2.008-4.382-2.264-6.099-.547-1.765 1.765-3.284 1.849-3.304.182-.012-.963-.205-.952-.839.047-.669 1.055-1.034 1.043-1.953-.065-1.766-2.128-10.101-1.144-12.359 1.459-1.253 1.446-1.845 1.671-1.869.712-.02-.772-.723-.278-1.563 1.097-1.552 2.541-1.547.709.009-3.034.493-1.186.008-1.488-2.137-1.331-1.526.111-2.774.273-2.774.358 0 .086-1.013.344-2.25.575-1.237.231-2.25-.028-2.25-.574 0-1.23-1.051-1.247-2.948-.047m100.823 51.178c-1.906 1.906-2.054 2.81-1.434 8.75 1.396 13.386.603 41.997-1.57 56.625-2.623 17.661-2.638 17.851-1.4 18.735.632.451.48.74-.395.75-.991.01-.71.776.924 2.515 1.296 1.379 1.796 2.5 1.115 2.5-.678 0-.974.419-.658.931.317.512.118 1.213-.441 1.559-.562.348-1.016-.291-1.016-1.431 0-1.132-.45-2.059-1-2.059s-1 1.104-1 2.453c0 1.349-.478 3.502-1.062 4.785-.721 1.582-.763 4.73-.129 9.797.887 7.094.939 7.207 1.062 2.274.139-5.59 1.171-7.168 3.138-4.798.68.819 2.522 1.489 4.094 1.489 2.304 0 2.978.534 3.471 2.75 1.222 5.491 1.585 6.25 2.993 6.25 1.645 0 1.581-.366 2.016 11.5.755 20.586-.048 29.5-2.657 29.5-.65 0-.639.668.034 1.925.566 1.059.988 2.971.936 4.25-.268 6.618 1.338 14.394 3.361 16.279 1.787 1.665 2.018 1.706 1.464.262-.423-1.104-.172-1.716.703-1.716 1.763 0 2.576-2.218 2.576-7.023 0-2.122.45-4.137 1-4.477 1.586-.98 1.162-4.224-.643-4.917-.904-.346-1.352-.921-.997-1.277.356-.355-.04-1.695-.88-2.976-.839-1.282-1.15-2.33-.691-2.33.46 0 .836-2.89.836-6.422 0-3.532.491-7.019 1.092-7.75.6-.73 1.247-2.453 1.437-3.828.196-1.415 1.323-2.929 2.596-3.487 2.787-1.223 2.98-2.937.25-2.223-1.1.287-2 .129-2-.352s-.578-.653-1.285-.382c-.764.293-1.348-.329-1.438-1.531-.084-1.114.258-2.025.76-2.025.526 0 .483-1.132-.101-2.667-.729-1.918-.686-2.87.153-3.388.642-.397.861-1.217.487-1.822-.384-.621-.113-.959.622-.775.716.178.965.136.553-.095-1.063-.595.331-8.604 1.651-9.488.774-.518.749-.739-.085-.75-.65-.008-1.479-.949-1.841-2.09-.362-1.142-.896-1.838-1.186-1.548-.709.709-3.29-1.94-3.29-3.377 0-.629.675-1.818 1.5-2.643 1.154-1.154 1.501-1.195 1.506-.178.004.726.687.017 1.518-1.578 1.834-3.517 1.172-4.541-1.419-2.196-1.112 1.007-2.157 1.319-2.509.75-.82-1.326.399-4.276 1.488-3.603.481.297 1.784.054 2.895-.541 1.538-.823 2.038-.774 2.091.204.039.707.411.416.827-.646.994-2.539.191-6.554-1.257-6.282-.627.117-.971-.462-.764-1.287.207-.825.502-2.487.656-3.693.154-1.206.573-2.668.933-3.25.359-.581.319-1.597-.088-2.257-1.615-2.612-1.022-9.317.728-8.235.81.5 1.484-5.634.886-8.065-.135-.55-.166-3.137-.069-5.75.097-2.612-.253-4.75-.779-4.75s-.743-.813-.483-1.807c.797-3.048-2.871-6.686-5.384-5.341-1.847.989-2.212.771-3.131-1.866-.633-1.816-.67-2.986-.093-2.986.521 0 .948-.955.948-2.122 0-1.774-.247-1.918-1.5-.878-1.24 1.029-1.521.921-1.618-.628-.172-2.707-.185-2.539.538-6.605.663-3.728.66-3.733-2.378-3.125-3.005.601-3.546.028-3.135-3.314.08-.644-.622-1.319-1.56-1.5-1.596-.307-1.593-.439.038-2.07.958-.959 1.481-2.165 1.162-2.681-.319-.516-.122-1.221.437-1.567.559-.345 1.016-1.753 1.016-3.128 0-1.412-.435-2.231-1-1.882-1.3.803-1.281-1.106.035-3.566 1.464-2.735-1.364-2.605-4.16.191M65.837 82.412c3.457 7.092 9.769 9.786 13.918 5.94 2.066-1.915 5.02-2.383 8.745-1.383 2.209.592 5.581-.028 5.027-.925-.325-.526-1.192-.726-1.926-.444-.734.281-2.746-.898-4.469-2.622-2.659-2.659-3.231-2.882-3.773-1.472-.496 1.293-.816 1.373-1.441.362-.577-.934-1.094-.535-1.836 1.416-.568 1.494-1.381 2.753-1.807 2.798-.426.045-2.012.286-3.525.534-1.519.25-2.75-.011-2.75-.582 0-.569-.675-1.034-1.5-1.034s-1.405-.338-1.288-.75c.35-1.238-2.604-5.25-3.866-5.25-.801 0-.645 1.081.491 3.412M145 154.557c0 .316.472 1.456 1.048 2.532.795 1.487.675 2.331-.5 3.506-.851.851-1.548 2.641-1.548 3.976 0 1.492-.578 2.429-1.5 2.429-2.345 0-1.905 4.661.5 5.29 1.1.287 2 1.031 2 1.652 0 .818-.549.835-2 .058-1.837-.983-3.058.241-1.25 1.253.412.23.188.282-.5.114-.687-.167-1.25.132-1.25.664 0 .533.723.969 1.607.969.968 0 1.393.558 1.069 1.403-.296.771.091 2.234.861 3.25 1.515 2 1.923 4.42.713 4.229-2.063-.326-3.25.265-3.25 1.618 0 .825.459 1.5 1.019 1.5.591 0 .767 1.157.419 2.75-.462 2.118-.355 2.405.466 1.25.824-1.16 1.069-.556 1.081 2.667.008 2.384.55 4.382 1.265 4.671 1 .403 1 .52 0 .583-.687.043-1.25.556-1.25 1.138 0 .582.45.781 1 .441s1-.141 1 .441-.604 1.059-1.341 1.059c-.92 0-1.397 1.573-1.519 5-.1 2.843.263 5 .842 5 .56 0 1.054-1.687 1.097-3.75.043-2.062.307-3.185.585-2.494.279.691.918 1.002 1.421.691.503-.311.915-.126.915.411 0 .536-.562 1.204-1.25 1.483-.81.328-.898.798-.25 1.333 1.63 1.346 1.636 3.968.013 5.315-1.257 1.044-1.53.939-1.615-.617-.057-1.029-.472-.302-.923 1.617-.56 2.383-.448 3.725.352 4.235.761.483.792.751.089.761-.696.01-1.164 3.81-1.306 10.608-.178 8.51.036 10.431 1.084 9.766.719-.456 1.542-.835 1.83-.844 1.363-.039 5.933-4.424 5.129-4.92-1.231-.761-2.085-5.519-1.1-6.128.432-.267.771-1.944.753-3.726-.088-8.726.899-10.438 1.783-3.095.656 5.439 1.366 7.354 2.728 7.354 1.213 0 1.248-3.013.225-19.237-.602-9.551.782-14.914 1.823-7.066.726 5.471 2.92 8.61 4.017 5.749.718-1.871-.289-6.682-1.576-7.53-.487-.321-1.055-3.696-1.263-7.5-.38-6.976-2.34-14.617-2.48-9.666-.073 2.592-1.562 2.997-2.456.668-.983-2.561-.709-4.173.998-5.881 1.683-1.683.567-7.274-4.108-20.577-1.296-3.688-5.497-8.581-5.497-6.403m231.719 47.057c-.395.396-.719 2.021-.719 3.612 0 1.935-.383 2.655-1.157 2.177-.848-.524-.982.569-.5 4.08.361 2.638.73 5.521.82 6.407.09.885.503-.865.919-3.89.45-3.275.609 1.671.392 12.225-.215 10.474.023 17.964.581 18.309.52.321.975 2.02 1.012 3.775.063 3.017.143 2.946 1.47-1.309 1.658-5.319 2.737-26.713 1.389-27.546-.509-.314-.945-2.233-.968-4.263-.057-4.93-2.335-14.48-3.239-13.577M288.25 223.25c.137.688-.486 1.13-1.386.982-1.721-.281-3.268 2.305-2.308 3.858.309.501-.027.924-.747.942-.819.02-.596.571.594 1.472 1.672 1.266 1.71 1.515.31 2.053-1.298.498-1.389 1.059-.493 3.027 1.082 2.375 2.309 2.851 6.28 2.438 4.902-.51 7.752-7.62 3.5-8.732-1.1-.288-2-.947-2-1.466 0-.518-.45-.664-1-.324-.583.361-1-.656-1-2.441 0-1.682-.45-3.059-1-3.059s-.887.563-.75 1.25m-78.5 8.83c-2.011 1.171-2.361 3.042-.5 2.67 1.911-.382 2.209 5.136.317 5.863-1.706.654-2.179 10.643-.934 19.724.864 6.307 2.345 4.919 1.707-1.601-.384-3.931-.106-5.734 1.118-7.236 1.533-1.88 1.596-1.58 1.057 5-.316 3.85-.19 8.35.281 10l.855 3 .704-2.792c.644-2.554.84-2.656 2.297-1.199 1.456 1.456 1.432 1.713-.28 3.01-1.03.779-1.352 1.432-.716 1.449.636.018.938.87.67 1.894-.34 1.299.167 2.034 1.672 2.427 1.595.417 2.017.192 1.612-.862-.301-.785-.188-1.427.25-1.427 1.166 0 .471-33.011-.763-36.25-1.152-3.023-1.746-3.214-5.532-1.775-1.667.634-2.565.634-2.565 0 0-.536.702-.975 1.559-.975s1.281-.45.941-1c-.765-1.238-1.514-1.222-3.75.08m-21.086 31.967c-4.039 2.463-6.106 6.759-4.602 9.568 1.107 2.069.942 6.527-.467 12.635-.735 3.189-.037 3.445 2.723 1 2.199-1.949 2.191-3.006.089 11.25-.703 4.764-.651 4.929 1.094 3.5 1.719-1.409 1.785-1.318 1.086 1.49-.41 1.644-1.233 3.291-1.829 3.66-.596.368-1.649 1.948-2.34 3.51-1.446 3.272-1.543 2.972-1.689-5.243-.077-4.295-.494-6.084-1.419-6.084-.72 0-1.31.6-1.31 1.334 0 1.35-1.719 1.793-5.675 1.462-1.196-.099-2.46.281-2.809.845-.349.564-1.507 1.026-2.575 1.026-2.024 0-2.682-2.789-1.073-4.55.477-.522 1.141-2.412 1.475-4.2.51-2.729.306-3.25-1.273-3.25-1.612 0-1.819.605-1.452 4.25.583 5.784-1.103 1.895-1.95-4.5-.629-4.743.613-6.592 1.837-2.735.844 2.66 2.495 1.547 2.495-1.682 0-2.22-.323-2.469-2.5-1.922-1.69.424-2.5.213-2.5-.651 0-.704-.9-1.841-2-2.528s-2-2.01-2-2.94c0-1.211-.307-1.385-1.079-.613-.682.682-.819 2.821-.372 5.801.459 3.062.996 4.257 1.525 3.4 1.413-2.285 2.19-.166 2.435 6.636.183 5.078.665 6.902 2.114 7.999 1.729 1.309 1.562 1.436-2.123 1.606-5.418.249-5.814.315-7.25 1.214-.706.442-1.25.322-1.25-.276 0-.582-1.238-1.03-2.75-.996-2.527.059-2.578.133-.628.921 3.928 1.586 6.027 14.989 3.084 19.697-.406.649-.281 1.463.278 1.809 1.648 1.019 1.163 2.51-.817 2.51-1.009 0-1.834-.576-1.834-1.281 0-1.632-3.305-6.719-4.365-6.719-1.859 0-.799-9.169 1.303-11.271 1.367-1.367 1.688-2.243.917-2.5-.654-.218-1.188-1.51-1.188-2.871 0-1.436-.43-2.21-1.025-1.843-.563.349-.942.263-.841-.191.101-.453-.164-1.619-.589-2.591-.424-.971-.562-2.861-.307-4.2.292-1.524-.065-2.636-.955-2.978-.857-.329-1.188-1.279-.834-2.393.322-1.017-.079-3.382-.892-5.255-1.41-3.25-1.477-2.852-1.448 8.593.018 6.6.371 11.132.787 10.072 1.032-2.636 3.353 8.648 2.761 13.428-.238 1.925-.484 4.073-.545 4.773-.083.947-.753.853-2.612-.365-1.375-.901-2.5-1.275-2.5-.832 0 .443-.607-.023-1.348-1.038-.773-1.057-1.859-1.528-2.544-1.105-.658.407-1.811.229-2.563-.395-.94-.78-1.57-.807-2.015-.087-.356.577-1.541 1.049-2.633 1.049s-1.882.563-1.756 1.25c.502 2.743-1.401 11.751-2.485 11.765-.761.01-.712.298.146.841 1.471.934 4.518 12.818 3.647 14.227-.312.504-.187.917.278.917.464 0 .895.788.956 1.75.121 1.901 1.022 9.385 1.896 15.75.542 3.943 4.113 12.434 5.718 13.596.453.328.85 2.466.881 4.75.032 2.285.455 4.154.94 4.154.485 0 .885.788.888 1.75.008 2.745 2.076 9.501 2.713 8.865.315-.315.491-3.507.393-7.094-.099-3.587.239-6.521.751-6.521.511 0 .959 2.428.995 5.395.046 3.865.803 6.719 2.672 10.065 1.434 2.569 2.645 5.992 2.691 7.606.046 1.614.412 2.934.815 2.934.402 0 .973.788 1.269 1.75 1.561 5.078 5.058 13.878 5.862 14.75.507.55 2.325 1.477 4.041 2.06 4.085 1.389 4.299 3.762.693 7.71-1.766 1.933-2.685 3.809-2.312 4.719 1.655 4.037 2.114 6.87 1.318 8.127-.482.761-.883 2.598-.892 4.082-.008 1.485-1.14 3.913-2.515 5.397-3.052 3.292-3.127 5.228-.385 9.875 1.688 2.862 2.394 3.353 3.5 2.435 1.625-1.349 1.865-6.578.325-7.092-.684-.228-.509-1.41.494-3.333.854-1.639 1.556-3.768 1.56-4.73.003-.962.443-1.75.977-1.75s1.943-3.262 3.13-7.25c1.187-3.988 2.55-7.677 3.029-8.2.804-.878 1.4 3.917 1.112 8.95-.062 1.1-.287 5.15-.498 9-.336 6.115-.629 7-2.314 7-3.189 0-4.064 1.194-3.626 4.949.524 4.488 2.196 5.714 2.196 1.61 0-3.172 1.946-4.402 2.07-1.309.061 1.504.197 1.469.973-.25.72-1.595.857-1.292.68 1.5-.139 2.18-.695 3.406-1.473 3.25-1.49-.298-1.675 1.369-.25 2.25.55.34 1 1.491 1 2.559s-.45 1.941-1 1.941-1 .525-1 1.167c0 .641.293.873.651.515.358-.358 1.244.13 1.968 1.084 1.249 1.644 1.319 1.643 1.349-.016.039-2.143.718-2.207 2.673-.252 1.77 1.77 5.359.385 5.359-2.068 0-1.173.422-1.275 1.934-.465 2.615 1.399 3.107 1.305 2.428-.465-.359-.935.007-1.5.972-1.5 2 0 2.835-1.397 2.052-3.435-.469-1.225-.944-1.347-1.959-.504-1.838 1.525-3.642.191-2.9-2.145.366-1.155.135-1.916-.582-1.916-.895 0-.882-.371.055-1.5.685-.825.942-1.5.573-1.5-.37 0-.247-.76.273-1.688.708-1.267.4-2.117-1.23-3.4-2.296-1.805-3.365-7.331-1.627-8.405 1.433-.886 1.256-2.556-.239-2.257-.687.137-1.126-.346-.975-1.074.151-.729-.198-1.033-.775-.676-.577.357-.965.278-.861-.176.104-.453-.148-2.02-.56-3.481-1.546-5.483 5.73-10.538 8.91-6.189 1.266 1.731 1.39 1.676 2.038-.905.526-2.095 1.293-2.749 3.226-2.749 2.53 0 2.535-.019 1.95-7-.396-4.725-.234-7 .498-7 .756 0 .845-2.501.293-8.25-.677-7.064-.788-12.527-.54-26.75.024-1.375.06-14.875.08-30 .02-15.125.386-30.016.812-33.09.815-5.874-.185-9.91-2.456-9.91-1.039 0-1.198-3.243-.781-15.988.288-8.794.169-16.556-.265-17.25-1.242-1.989-1.32-4.086-.201-5.434.566-.682.696-1.78.289-2.439-.469-.758-.317-.936.413-.484.685.422 1.155.078 1.155-.846 0-.857-.47-1.559-1.044-1.559-1.186 0-.891-3.181.381-4.113.461-.337.686-1.503.5-2.591-.325-1.908-.437-1.917-3.173-.249M322 271.113c0 .509-1.125.643-2.5.298-2.188-.55-2.5-.302-2.5 1.981 0 1.434.436 2.608.969 2.608.532 0 .709-.675.393-1.5-.365-.95.013-1.5 1.031-1.5 1.709 0 1.874.915 1.798 10-.058 6.921-.019 6.789-1.476 5-.672-.825-1.679-1.578-2.237-1.673-.559-.095-2.244-.481-3.747-.858-2.184-.549-2.731-.34-2.731 1.039 0 1.233.571 1.576 2 1.202 1.122-.293 2.051-.015 2.115.634.064.636.22 1.606.348 2.156.128.55.301 2.012.385 3.25.085 1.266.808 2.25 1.652 2.25 1.675 0 2.019 1.561.544 2.473-.526.325-.673 1.331-.325 2.236.556 1.449.721 1.415 1.386-.282.66-1.685.763-1.708.825-.177.038.962.715 1.75 1.503 1.75.788 0 1.718.9 2.067 2 .349 1.1 1.054 2 1.567 2 1.408 0 1.12 5.758-.317 6.338-1 .403-1 .52 0 .583.747.047 1.25 1.488 1.25 3.579 0 1.925.4 3.5.889 3.5s.826-.739.75-1.642c-.076-.904.487-1.862 1.253-2.131 1.012-.355 1.264.176.926 1.945-.267 1.396.164 3.021 1.009 3.812 1.281 1.196 1.408 1.024.963-1.303-.282-1.475-.205-2.681.171-2.681.375 0 .792-5.265.925-11.7.134-6.435.466-12.06.738-12.5.272-.44-.013-.8-.632-.8-.671 0-.87-.808-.494-1.994.497-1.567.278-1.857-1.024-1.358-1.581.607-1.751 4.628-.393 9.293.23.792-.272 1.594-1.115 1.781-1.582.352-1.748-12.063-.211-15.722 1.283-3.052.733-4.537-2.224-6.009-1.667-.831-3.031-2.084-3.031-2.787 0-.702-.664-1.687-1.476-2.189-1.202-.743-1.03-1.077.926-1.801 2.386-.883 2.388-.892.226-1.458-1.197-.313-2.176-.152-2.176.357m-110 7.453c0 .861.498 2.495 1.106 3.632.608 1.136 1.475 7.294 1.927 13.684.451 6.39 1.077 12.743 1.39 14.118.313 1.375.864 4.057 1.224 5.959.637 3.369.678 3.395 1.564 1 .5-1.352.844-2.634.764-2.847-.08-.214.455-.769 1.19-1.235 1.103-.699 1.097-.849-.037-.862-1.107-.012-1.132-.306-.128-1.515.951-1.146.97-1.831.081-2.903-.853-1.027-.863-1.503-.039-1.778.618-.206 1.217-2.163 1.329-4.349.112-2.186.529-4.499.926-5.141.397-.642.155-1.767-.538-2.498-.692-.732-1.259-2.231-1.259-3.331 0-1.271-.767-2.109-2.105-2.301-1.558-.222-2.585-1.715-3.957-5.75-1.787-5.259-3.438-7.123-3.438-3.883m70.865 6.213c-1.376.272-2.793 3.56-3.329 7.721-.071.55-.617 1.9-1.214 3-1.264 2.33-2.409 7.278-2.867 12.394-.596 6.66-1.168 9.055-2.565 10.74-1.86 2.243-1.509 14.656.554 19.584.856 2.045 1.628 6.32 1.716 9.5.098 3.543.296 4.426.51 2.282 1.106-11.067 2.421-12.409 6.429-6.56 2.582 3.767 3.777 3.188 4.002-1.94.092-2.11.274-2.406.612-1 .265 1.1.887 2.427 1.384 2.95.497.522.917 1.872.933 3 .073 4.876 1.744-1.39 2.522-9.45 1.331-13.815 1.264-21.38-.2-22.5-.904-.692-1.392-4.393-1.58-12-.253-10.248-.423-11.066-2.475-11.967-1.281-.562-2.327-2.035-2.5-3.522-.203-1.747-.814-2.453-1.932-2.232m79.693 1.996c-.936.937-.621 12.517.441 16.221.549 1.915 1.448 7.063 1.996 11.44 1.495 11.916 3.005 11.898 3.005-.036 0-5.5.402-10.428.894-10.95.529-.562.264-3.195-.65-6.45-.849-3.025-1.589-6.489-1.644-7.699-.094-2.062-2.809-3.759-4.042-2.526M251 296.981c0 .993-.612 2.04-1.361 2.327-1.234.474-1.361 2.003-.722 8.692.111 1.157.392 1.072 1.23-.37.826-1.421 1.277-1.563 1.877-.591 1.078 1.744.096 3.961-1.753 3.961-1.192 0-1.265.302-.345 1.411.706.851.794 1.644.222 1.998-1.291.798-.669 6.407 1.208 10.901 1.329 3.18 1.341 3.69.093 3.69-.797 0-1.449.436-1.449.969 0 .532.629.727 1.399.431 1.636-.628 3.01 1.129 2.071 2.649-.44.712-1.116.659-2.109-.165-1.274-1.057-1.389.446-.894 11.702.674 15.319-.107 24.414-2.096 24.414-2.049 0-1.928 11.849.129 12.638.825.317 1.5 1.713 1.5 3.102 0 3.285 4.141 7.207 5.006 4.742.696-1.983 1.978-2.114 3.117-.317.612.965.851.728.862-.856.008-1.205.472-2.474 1.031-2.819.559-.346.789-.996.511-1.446-.278-.449.105-1.324.851-1.943 2.018-1.675 3.616.792 3.109 4.8-.254 2.01.132 3.861.983 4.712 1.758 1.758 2.389.747 1.943-3.113-.19-1.65-.569-6.15-.841-10-1.04-14.729-2.411-27.43-3.077-28.508-.381-.616-.71-3.792-.73-7.057-.02-3.264-.398-5.935-.839-5.935-1.677 0-.42-3.899 1.412-4.378 1.427-.373 1.717-.969 1.125-2.312-.438-.996-.74-3.041-.671-4.546.069-1.505-.194-2.689-.583-2.632-2.144.317-3.361-.368-4.231-2.382-.535-1.238-1.396-2.925-1.913-3.75-.517-.825-1.305-5.96-1.752-11.412-.682-8.31-1.096-9.951-2.563-10.161-1.112-.159-1.75.407-1.75 1.554m171.677 18.817c-1.141.236-1.609.936-1.25 1.871.315.822.573 2.133.573 2.913 0 .78.788 1.425 1.75 1.433 1.107.01 1.335.286.62.75-.65.422-1.111 3.378-1.084 6.946.046 6.128.071 6.183 1.88 4.097 1.009-1.163 1.834-1.558 1.834-.878s.542 1.056 1.204.835c.662-.22 1.224-1.72 1.25-3.333.025-1.613.496-3.263 1.046-3.667.61-.448.489-.74-.311-.75-.975-.011-1.148-1.105-.674-4.267.6-3.997.468-4.314-2.189-5.29-1.554-.571-3.647-.868-4.649-.66m-105.591 4.447c-.07 1.423-.73 1.642-3.586 1.188-3.155-.501-3.5-.327-3.5 1.765 0 1.304-.958 2.919-2.188 3.687-2.119 1.324-2.129 1.41-.309 2.741 1.663 1.216 1.685 1.374.188 1.374-.93 0-1.691-.45-1.691-1s-.788-.993-1.75-.985c-1 .009-1.316.331-.738.75 1.43 1.038 1.54 6.581.148 7.467-.842.535-.805.742.132.753.71.008 2.258.916 3.44 2.016 2.794 2.604 3.55 1.302 3.244-5.581-.132-2.981-.036-5.42.213-5.42.912 0 3.311 2.889 3.311 3.988 0 .621.45.852 1 .512.55-.34 1-.141 1 .441s.9 1.059 2 1.059c2.167 0 2.676-1.464.892-2.567-.669-.413-.877-2.128-.525-4.329.321-2.004.183-4.985-.306-6.624-.489-1.639-.928-2.195-.975-1.235m-164.635 43.834c-.414.67-.019 1.583.909 2.102.902.505 1.64 1.823 1.64 2.928s.45 1.731 1 1.391c.55-.34 1 .139 1 1.063 0 1.294-.31 1.425-1.342.568-1.604-1.331-2.735-.495-1.982 1.467.299.778-.066 1.403-.819 1.403-.792.001-.298.938 1.185 2.25 1.42 1.256 2.673 3.573 2.839 5.249.465 4.699.907 8 1.071 8 .083 0 .339 2.925.568 6.5.229 3.575.737 8.3 1.129 10.5.392 2.2.788 4.45.88 5 .091.55.235 2.477.319 4.281.098 2.116.774 3.511 1.902 3.927.963.356 2.11 1.129 2.55 1.719.44.59.665-1.29.5-4.178-.165-2.887.089-5.25.564-5.25.474.001.584-1.912.244-4.249a232.452 232.452 0 01-1.086-9.04c-.256-2.635-1.111-6.235-1.898-8-.787-1.766-1.46-4.882-1.496-6.925-.168-9.671-7.199-24.715-9.677-20.706m-30.599 44.588A74.703 74.703 0 01121.5 412a300.43 300.43 0 00-.352 2.684c-.081.651-1.385 1.326-2.898 1.5-2.388.274-2.791.81-3.06 4.066-.193 2.322-.823 3.75-1.657 3.75-1.369 0-1.357.203.472 8.5.485 2.2 1.13 5.193 1.433 6.65.375 1.807 1.516 2.987 3.587 3.709 1.922.67 3.522 2.213 4.359 4.202l1.321 3.143.637-3.852c1.552-9.398 0-38.418-2.092-39.107-.687-.226-1.317.413-1.398 1.422m19.492 31.952c1.143 10.629.991 25.556-.267 26.334-2.333 1.441-1.851 8.606.658 9.79 2.425 1.144 2.232 1.47 3.847-6.493.696-3.432 2.086-2.701 3.806 2l1.555 4.25-.601-4.859c-.572-4.617-.496-4.825 1.528-4.182 3.613 1.146 2.273-4.074-1.404-5.472-1.887-.717-2.458-2.071-3.445-8.173-2.019-12.484-3.522-18.148-4.943-18.621-1.097-.366-1.242.701-.734 5.426m9.942 42.054c-2.425.858-5.674 1.116-9.036.718-4.833-.572-5.25-.458-5.25 1.435 0 1.131.492 2.36 1.094 2.732.602.372.901 1.688.665 2.924-.401 2.098 1.324 5.734 2.65 5.585 2.016-.228 2.464.101 1.953 1.433-.899 2.341 11.644 2.121 14.271-.25 5.236-4.727 7.5-10.25 4.201-10.25-.524 0-.646.495-.272 1.1.47.76.015.744-1.473-.052-1.184-.634-2.085-1.691-2.002-2.35.589-4.694-.596-5.221-6.801-3.025" fill="#d3d3d3" fill-rule="evenodd"/></svg>