<svg xmlns="http://www.w3.org/2000/svg" width="500" height="664"><path d="M0 332.002v332.002l250.25-.252 250.25-.252.251-331.75L501.003 0H0v332.002m.494.498c0 182.6.115 257.151.256 165.669.141-91.482.141-240.882 0-332S.494 149.9.494 332.5M39.765 17.767l-24.736.268-.671 2.674c-.369 1.47-.38 35.55-.023 75.732.356 40.183.651 181.172.656 313.311L15 650.004l232.722-.252 232.723-.252.832-4.5c.457-2.475 1.047-5.85 1.31-7.5 1.067-6.691 1.411-609.883.349-610.54-.585-.361-1.28-2.187-1.547-4.058-.266-1.871-.679-3.98-.918-4.686-.394-1.165-342.192-1.514-440.706-.449m250.943 129.827c-1.536.833-3.673 1.234-4.75.893-1.376-.437-1.958-.155-1.958.946 0 .99-.889 1.567-2.417 1.567-1.329 0-2.606.563-2.837 1.25-.328.975-.787.948-2.083-.122-1.081-.893-1.663-.98-1.663-.25 0 .617-.707 1.122-1.571 1.122-.865 0-2.247.675-3.072 1.5-1.619 1.619-7.357 2.082-7.357.594 0-.499.921-.666 2.046-.372 1.206.316 2.539-.104 3.25-1.023.662-.856 2.324-1.702 3.694-1.878 1.436-.185 2.634-1.081 2.832-2.116.402-2.109-7.138-2.234-8.87-.147-.712.858-2.167.887-5.561.11-3.876-.887-4.735-.805-5.477.522-.559.997-2.32 1.594-4.809 1.628-2.16.03-4.84.624-5.955 1.32-1.538.961-2.584.995-4.338.143-1.272-.617-4.337-1.377-6.812-1.688-2.475-.311-5.583-.868-6.906-1.237-1.694-.472-2.195-.328-1.691.486 1.205 1.95-4.883 1.355-7.543-.737-2.515-1.978-5.9-2.016-12.688-.142-1.916.529-3.906.701-4.421.383-.516-.319-2.695-.555-4.844-.525-2.149.029-3.907-.368-3.907-.884 0-1.116-3.344-1.258-4.422-.187-1.11 1.101-6.957.914-7.813-.25-.422-.575-.741-.308-.75.628-.02 2.172 1.995 3.724 5.83 4.491 3.241.648 3.573 1.127 2.579 3.718-.479 1.249-1.171 1.096-4.139-.919-1.96-1.33-3.951-2.418-4.425-2.418-.473 0-.86-.955-.86-2.122 0-1.774-.247-1.918-1.5-.878-1.219 1.012-1.5.966-1.5-.248 0-1.87-6.807-2.768-13.401-1.767-2.568.39-4.906.328-5.194-.138-1.056-1.71-2.35-.757-3.942 2.903-.897 2.063-2.043 4.531-2.547 5.486-1.42 2.692-1.124 4.781.584 4.126 1.977-.759 1.906.532-.155 2.809-1.552 1.715-1.528 1.829.393 1.829 1.126 0 2.294-.64 2.594-1.422.334-.871 1.345-1.214 2.607-.884 2.409.63 2.713 2.165.561 2.837-5.121 1.6-5.021 1.528-3.472 2.507.996.63 1.068.936.222.947-1.568.019-1.53 2.485.109 7.07 1.561 4.364 1.149 5.891-1.407 5.222-1.342-.351-1.952-.005-1.952 1.106 0 .89.6 1.617 1.333 1.617 1.609 0 1.81 3.202.266 4.235-.721.482-.604.74.342.75 1.033.011.892.43-.5 1.483-1.756 1.329-1.774 1.471-.191 1.5 1.09.02 1.75.809 1.75 2.091 0 1.132-.45 1.781-1 1.441-.55-.34-1 .259-1 1.33 0 1.241.635 1.897 1.75 1.809 1.21-.096 1.848.71 2.066 2.611.174 1.512-.121 2.75-.656 2.75s-.737-.9-.45-2c.364-1.391.031-2-1.093-2-1.784 0-2.249 3.491-.601 4.51.559.346.777 1.016.484 1.49-.293.474-.075 1.144.484 1.49.559.345 1.023-.186 1.031-1.181.013-1.53.162-1.578.968-.309.608.957.6 1.621-.021 1.835-.536.185-.72.747-.409 1.25s.088.915-.494.915-1.059 1.613-1.059 3.583c0 4.322 2.077 4.219 3.342-.165 1.741-6.033 6.302-13.802 10.421-17.752 2.345-2.248 5.215-6.054 6.378-8.458 1.164-2.403 2.733-4.606 3.487-4.896.755-.289 1.388-1.04 1.408-1.669.06-1.862 6.986-6.573 11.384-7.743 5.422-1.443 8.525-4.042 5.918-4.957-1.618-.567-1.568-.749.501-1.857 1.262-.675 3.948-3.058 5.97-5.296 2.022-2.238 5.479-4.836 7.683-5.773 4.771-2.028 16.508-3.451 16.508-2.002 0 .542.621.985 1.381.985s5.093 2.813 9.629 6.25c4.536 3.438 8.959 6.7 9.829 7.25.869.55 2.403 1.992 3.408 3.204 1.145 1.382 2.437 1.971 3.463 1.577 1.23-.472 1.477-.212.995 1.047-.745 1.939 3.111 8.117 7.026 11.26 1.873 1.504 2.254 2.303 1.361 2.855-1.228.759-5.127-2.068-7.904-5.733-2.981-3.932-5.922-6.643-6.538-6.027-.357.358-.65-.236-.65-1.319 0-3.09-10.35-12.127-15.292-13.354-2.315-.574-5.558-1.474-7.208-2.001l-3-.957 3.25.301c4.137.383 4.191-.829.101-2.255-9.441-3.291-21.517 1.738-23.541 9.805-.874 3.481-2.202 4.649-9.269 8.156-4.601 2.282-6.058 3.526-6.111 5.219-.067 2.116-.108 2.127-.856.222-.741-1.883-.964-1.811-3.826 1.245-3.665 3.911-7.222 10.49-7.318 13.536-.056 1.75-.214 1.872-.75.576-.579-1.397-1.068-1.216-3.283 1.216l-2.604 2.858 2.604.956c2.509.921 2.474.958-.973 1.034-4.537.1-7.609 3.24-10.087 10.313-1.016 2.896-2.419 5.716-3.12 6.266-.701.55-1.357 2.8-1.46 5-.158 3.406-.062 3.616.648 1.415 3.437-10.658 11.093-19.006 19.074-20.799 4.575-1.028 7.738-3.116 4.721-3.116-.935 0-1.7-.472-1.7-1.05 0-.699.574-.728 1.719-.087 1.763.986 7.281-1.062 7.281-2.703 0-1.313 6.873-4.164 11.322-4.697 4.379-.524 12.678-7.72 12.678-10.992 0-.809.675-1.471 1.5-1.471s1.5-.392 1.5-.87c0-.911 6.707-2.923 11-3.301 5.56-.489 25.149 7.564 32.25 13.258 5.4 4.331 4.624 5.529-1 1.543-8.858-6.277-25.101-12.613-32.365-12.624-3.768-.006-9.368 3.403-8.336 5.074.313.506.102.92-.469.92-.572 0-3.411 2.375-6.309 5.279-2.899 2.903-5.721 5.274-6.271 5.268-4.518-.048-17.154 5.335-12.872 5.483 1.906.066-11.275 6.946-13.331 6.957-2.687.016-7.297 2.021-7.297 3.174 0 .461-.562.842-1.25.846-2.897.016-10.314 14.642-9.202 18.145.447 1.408.302 1.873-.441 1.414-.741-.458-1.107.678-1.107 3.434 0 2.858-.353 3.9-1.155 3.405-.763-.473-.88-.271-.345.595s.418 1.068-.345.595c-.691-.427-1.155-.063-1.155.905 0 .89.45 1.34 1 1 .55-.34 1-.141 1 .441s-.498 1.059-1.107 1.059-.859.646-.556 1.435c.303.79.013 1.654-.643 1.921-.887.361-.873.506.056.565.688.043 1.25.556 1.25 1.138 0 .582-.467.771-1.037.418-.657-.406-.948.672-.795 2.941.242 3.605 1.221 4.649 2.185 2.332.286-.687.436-.125.334 1.25-.103 1.375-.503 2.739-.89 3.03-1.016.766-1.216 10.042-.278 12.876.543 1.64.452 2.194-.285 1.739-.731-.452-1.187 1.926-1.407 7.346-.194 4.752.08 8.151.673 8.349.62.208.547.884-.193 1.781-1.24 1.503-2.106 10.413-1.109 11.41.313.313.219 2.122-.209 4.019-.438 1.942-.387 3.45.116 3.45.492 0 .895.702.895 1.559s.468 1.27 1.041.916c1.834-1.134 6.052-8.515 5.436-9.512-.327-.53.032-.963.797-.963.766 0 1.393-.589 1.393-1.31 0-.72 1.211-3.786 2.692-6.813 4.891-9.997 5.651-19.884 2.163-28.138-.567-1.341-.371-1.618.818-1.162 6.526 2.504 1.837 29.701-7.391 42.875-4.441 6.339-4.684 7.209-2.199 7.859.968.253.391.509-1.293.573-2.977.114-3.038.218-2.836 4.866.113 2.613.301 4.863.417 5 .117.137.268.806.337 1.486.071.704 2.452 1.571 5.53 2.014 5.678.817 6.543 1.252 22.675 11.406 5.761 3.626 11.206 6.344 12.708 6.344 6.192 0 13.372-11.041 12.527-19.264-.186-1.811.197-3.239.935-3.485 1.75-.585 1.633 6.411-.192 11.586-4.367 12.376-14.575 17.12-22.015 10.231-4.291-3.974-19.108-12.241-24.417-13.623-8.644-2.252-8.383-2.446-7.793 5.805.317 4.439.187 6.474-.337 5.25-.828-1.936-.858-1.931-.926.167-.038 1.191.493 2.393 1.18 2.671 1 .403 1 .52 0 .583-.687.043-1.25.556-1.25 1.138 0 .582.52.738 1.155.346.758-.469.881-.272.356.576-1.354 2.192-1.128 5.459.467 6.75 1.351 1.093 1.354 1.354.022 2.326-1.169.854-1.215 1.21-.208 1.616 1.011.408 1.031.836.092 1.967-.908 1.094-.918 1.726-.042 2.602 1.419 1.419 1.537 3.11.158 2.258-.55-.34-1 .057-1 .882 0 1.979 1.691 2.974 2.336 1.374.318-.791.535-.639.585.411.043.916-.436 1.838-1.064 2.047-.85.284-.837.955.05 2.612.658 1.229 1.689 1.924 2.298 1.547.607-.375.826-.233.487.316-.36.583.511.929 2.096.831 1.491-.092 3.05.316 3.462.906.512.733 1.029.642 1.629-.289.742-1.151.964-1.151 1.424 0 .46 1.151.693 1.151 1.5 0 .806-1.151 1.039-1.151 1.497 0 .378.95.566.833.621-.387.094-2.08 2.079-2.39 2.079-.325 0 1.06 1.091 1.345 4.25 1.111 2.338-.172 4.669-.062 5.182.246.512.309 4.112.47 8 .36 8.484-.24 6.94-.255 18.568.178 5.225.195 11.863.053 14.75-.315 2.887-.369 5.25-.343 5.25.057s1.688.297 3.75-.229c2.063-.526 4.2-.903 4.75-.838 4.904.576 34.5.494 34.5-.096 0-.422 1.125-.563 2.5-.313 1.375.249 2.5-.006 2.5-.566 0-.561.477-1.02 1.059-1.02s.81.403.506.895c-.305.493.156 1.168 1.023 1.5 2.203.846 2.412.782 2.412-.741 0-1.395 4.309-1.678 5.619-.369 1.359 1.36 2.381.706 2.381-1.525 0-2.178.071-2.163 2.587.55 1.876 2.024 2.928 2.507 3.828 1.761.808-.671 2.365-.708 4.465-.105 2.513.72 3.347.605 3.779-.521.305-.795.983-1.445 1.507-1.445.524 0 .7.408.391.907-.308.499 2.028 1.068 5.191 1.265 3.164.196 5.886.061 6.05-.301.164-.362 1.247-.411 2.406-.107 1.424.372 1.879.18 1.403-.591-.498-.806.192-.963 2.343-.533 2.519.504 3.062.284 3.12-1.265.067-1.772.113-1.767.836.081.759 1.941.773 1.941 1.899 0 1.08-1.863 1.136-1.867 1.165-.084.023 1.44.336 1.619 1.354.774.966-.802 1.641-.781 2.5.078.9.9 1.176.901 1.176.001 0-.841.712-.905 2.5-.225 1.375.523 2.5.682 2.5.353 0-.329.748.02 1.663.775 1.236 1.02 1.765 1.066 2.064.178.221-.656 1.1-.926 1.954-.598 1.263.484 1.36.236.52-1.332-1.15-2.149.264-5.825 1.86-4.838.517.319.939.103.939-.479s-.436-1.059-.969-1.059c-.532 0-.725-.634-.427-1.41.329-.859-.309-1.679-1.635-2.1-1.196-.38-3.767-1.77-5.712-3.09-3.933-2.669-6.325-2.974-9.573-1.22-3.911 2.113-16.023 1.219-23.472-1.732-11.295-4.476-19.475-9.518-17.937-11.056.346-.347 1.255-.005 2.019.759.763.764 4.497 2.885 8.297 4.713 3.8 1.828 8.444 4.067 10.321 4.975 4.176 2.02 14.849 1.904 22.071-.241l4.975-1.478 5.712 3.44c5.868 3.534 8.33 4.238 8.33 2.381 0-.582-.384-.822-.853-.532-.469.29-1.706-.164-2.75-1.009-1.797-1.455-1.752-1.505.853-.949 2.188.467 2.747.226 2.735-1.182-.013-1.522-.162-1.559-1.066-.269-.851 1.215-.945 1.121-.497-.5.304-1.1-.09-3.238-.876-4.75-1.254-2.416-1.244-2.75.081-2.75 1.051 0 1.316-.604.875-1.994-.514-1.619-.292-1.864 1.183-1.306 1.718.651 1.723.595.093-1.05-1.56-1.573-2.127-14.666-.83-19.15 1.055-3.65.014-5.529-2.688-4.85-2.559.642-2.63.577-1.072-.981.918-.918 2.039-1.669 2.491-1.668.944.001.901-8.755-.049-9.704-.346-.347-.63.795-.63 2.536 0 4.752-1.577 3.814-1.821-1.083-.163-3.271.037-3.904.87-2.75.868 1.204.962 1.073.476-.666-.334-1.191-.138-2.455.434-2.809 1.657-1.023 1.26-3.823-.449-3.167-2.088.801-2.917-3.225-1.627-7.898.573-2.075.836-4.105.585-4.511-.251-.407.291-1.026 1.205-1.377 1.266-.486 1.384-.915.494-1.805-.642-.642-1.167-3.579-1.167-6.526 0-3.546-.361-5.136-1.068-4.699-.588.363-.82 1.308-.516 2.099.303.791.132 2.208-.381 3.149-.513.94-1.197 3.772-1.52 6.293-.765 5.968-2.667 9.239-10.331 17.77-3.474 3.866-6.174 7.196-6 7.399.174.204-1.354 1.837-3.396 3.629-5.919 5.197-6.612 7.494-6.911 22.908-.147 7.573.072 14.319.487 14.991.91 1.473-.354 1.555-3.799.245-1.411-.537-2.565-1.492-2.565-2.123 0-.851.349-.857 1.353-.024 1.333 1.106 2.708-7.973 2.617-17.279-.04-4.071-1.687-1.473-2.952 4.657-.81 3.926-.864 3.739-.721-2.486.102-4.407.595-6.898 1.429-7.218.701-.269 1.274-1.315 1.274-2.325 0-2.83 4.892-9.69 15.421-21.626 5.288-5.995 9.385-11.128 9.105-11.408-.28-.28-.089-1.014.423-1.632.513-.618 1.153-2.339 1.423-3.826.269-1.486.765-3.148 1.101-3.692.337-.545.775-3.364.975-6.267.199-2.902.66-6.016 1.024-6.921 1.082-2.691.184-9.386-1.222-9.105-.687.137-1.25-.2-1.25-.75s.477-1 1.06-1c1.199 0 .722-3.801-1.108-8.846-.923-2.544-1.446-3.024-2.178-2-.722 1.009-.818.899-.386-.439.405-1.255-1.166-3.633-5.283-8-12.193-12.935-12.999-13.898-20.28-24.215-8.238-11.674-12.404-15.117-23.007-19.011-3.973-1.459-9.507-.62-9.068 1.374.138.626-.433 1.137-1.267 1.137-.834 0-3.495 1.912-5.912 4.25-2.418 2.338-5.336 5.037-6.484 6-1.24 1.04-2.087 2.935-2.087 4.669 0 2.846 2.846 9.062 4.155 9.075.361.003 2.48 1.469 4.71 3.256 7.145 5.727 13.018 9.75 14.233 9.75.65 0 1.73.75 2.4 1.667.671.917 2.279 1.829 3.574 2.026 2.648.404 6.928 4.024 6.928 5.859 0 .662-.675 1.763-1.5 2.448-1.483 1.231-2.074.34-1.576-2.378.089-.483-.758-.637-1.881-.343-1.342.35-2.043.051-2.043-.873 0-2.723-8.519-.9-14.382 3.078-1.99 1.351-3.618 2.098-3.618 1.66 0-1.449 4.47-5.025 8.264-6.61 2.055-.858 3.718-1.892 3.697-2.297-.039-.744-4.865-4.497-14.944-11.624-6.242-4.414-7.538-5.811-9.564-10.315-2.089-4.645-.766-7.12 9.137-17.089 4.72-4.752 9.175-9.78 9.901-11.174 3.165-6.082 11.138-10.057 16.454-8.204 1.587.553 3.081.81 3.321.57.24-.24 3.315.297 6.835 1.194 12.574 3.202 20.255 11.736 20.022 22.246-.065 2.938-.373 5.754-.685 6.259-.802 1.298.529 5.039 1.565 4.398 1.472-.91 2.331 1.674.875 2.633-1.138.749-1.076 1.139.356 2.237.954.731 1.404 1.689 1 2.129-.403.439.278.549 1.516.244 1.838-.452 2.25-.136 2.25 1.73 0 2.408 2.224 4.972 3.342 3.854.362-.362.658-.081.658.625 0 .791.767 1.083 2 .76 1.1-.287 2-.143 2 .32 0 .464-1.445.984-3.211 1.157-2.441.238-3.376.912-3.9 2.813-.623 2.26-.699 2.292-.789.333-.055-1.191-.662-2.393-1.35-2.671-.879-.354-.818-.528.203-.583.933-.051.178-1.421-2.111-3.829-1.961-2.062-4.585-5.618-5.831-7.9-2.277-4.169-2.285-4.437-.363-13.587.317-1.506.227-3.981-.199-5.5l-.773-2.763-.72 3c-.688 2.87-.725 2.826-.853-1-.114-3.418-2.017-8.848-2.102-6-.017.55-.598-.121-1.291-1.491s-2.138-2.66-3.21-2.867c-1.073-.206-2.482-1.103-3.133-1.992-.841-1.152-2.792-1.622-6.773-1.634-3.075-.009-5.592-.354-5.593-.766-.002-1.275-4.804-.825-5.339.5-.403 1-.52 1-.583 0-.243-3.846-11.875 1.948-12.047 6-.083 1.945 3.866.555 4.262-1.5.372-1.929.453-1.858.57.5.075 1.512.705 2.75 1.401 2.75.695 0 2.994.927 5.107 2.059 2.113 1.133 4.066 1.836 4.34 1.563.788-.789 10.496 9.582 14.748 15.756 2.13 3.092 4.28 5.622 4.778 5.622 1.108 0 3.383 2.191 3.464 3.336.29 4.104 14.557 19.091 15.633 16.421.279-.691.543-.245.586.993.043 1.238.457 2.25.919 2.25s1.439 1.815 2.171 4.033c.944 2.86 1.591 3.659 2.225 2.75.572-.82.652-.426.222 1.092-.504 1.781-.353 2.178.605 1.586.919-.568 1.09-.301.608.954-.851 2.218.256 6.776 1.541 6.348 1.1-.367 1.524-13.36.47-14.414-1.236-1.236-.71-2.574.786-2 .807.31 1.705.18 1.994-.288.29-.468-.116-1.098-.902-1.4-.957-.367-1.295-1.605-1.024-3.747.223-1.76.094-3.698-.286-4.307-.381-.609-.831-1.997-1-3.086-.169-1.088-.744-2.415-1.279-2.95-1.572-1.572-1.119-2.485 1.029-2.071 2.875.554 2.621-3.118-.65-9.424-2.773-5.344-2.447-8.182.492-4.285 1.347 1.785 1.964 2.003 2.932 1.035 1.65-1.65 1.546-2.826-.249-2.826-1.171 0-1.274-.53-.5-2.565 1.253-3.298 1.227-3.709-.18-2.84-.655.405-.885.278-.532-.293.343-.554-.011-1.861-.786-2.905-.814-1.095-1.16-2.918-.819-4.311.476-1.945.273-2.293-1.043-1.788-1.603.615-7.377-1.828-8.975-3.798-.446-.55-.51.575-.141 2.5s.674 3.725.679 4c.099 5.596-.442 10-1.228 10-.588 0-1-3.5-1-8.5s-.412-8.5-1-8.5c-.55 0-1-1.125-1-2.5s.408-2.5.906-2.5c.499 0 .653.97.343 2.156-.353 1.35-.176 1.917.472 1.516.57-.352 2.328-.009 3.908.763 5.843 2.855 7.873 2.484 7.853-1.435-.011-1.925.439-3.829 1-4.231.661-.474.425-1.782-.673-3.728-.93-1.648-1.314-3.229-.854-3.513.459-.284 1.118.22 1.464 1.121.345.9.879 1.386 1.186 1.08.306-.307.055-1.496-.559-2.643-1.357-2.536-.309-2.747 1.668-.336 1.313 1.602 1.378 1.538.774-.75-.363-1.375-.652-3.262-.641-4.193.013-1.073-.512-1.489-1.431-1.136-.798.306-1.331 1.246-1.184 2.089.466 2.668-1.645 2.23-4.079-.845-2.929-3.701-2.244-7.479.733-4.046 3.331 3.841 6.141 2.403 5.617-2.875-.136-1.372-.305-4.005-.375-5.851-.097-2.545-.491-3.218-1.628-2.781-.825.316-1.556.139-1.625-.393-.069-.533-.181-1.382-.25-1.886-.283-2.077-1.366-1.935-2.584.34-1.558 2.912-3.935 1.476-3.275-1.98.445-2.329-3.323-4.272-4.051-2.089-.209.628-1.727 1.18-3.374 1.228-1.647.047-3.528.416-4.18.819-.653.403-2.418.124-3.924-.62-1.939-.958-3.513-1.076-5.397-.405-2.074.738-3.039.568-4.379-.772-1.022-1.022-2.376-1.444-3.34-1.04-3.917 1.639-11.111 1.672-13.57.062-2.986-1.957-3.29-1.958-6.843-.032m-40.882 61.72c5.568 5.928-2.528 18.738-13.993 22.143-8 2.376-25.158 1.768-32.833-1.162-2.824-1.078-5.5-1.022-7.201.151-1.781 1.229-1.082 1.39 20.147 4.656 18.287 2.812 32.798-4.339 37.496-18.48 1.877-5.648.374-9.622-3.639-9.622h-2.152l2.175 2.314m-21.868 32.531c-3.665 2.287-6.958 5.371-6.958 6.516 0 .557 1.238-.159 2.75-1.591 7.224-6.842 27.377-2.081 33.564 7.928 1.989 3.22 4.668 21.723 4.676 32.302l.008 11.5-6.176-.032c-3.491-.019-6.333-.5-6.535-1.108-.866-2.598-3.222-4.929-3.255-3.221-.018.902.809 2.678 1.837 3.947 1.774 2.192 2.561 2.316 15.532 2.464 7.515.085 13.86-.163 14.101-.553.434-.703-1.135-.912-9.252-1.232l-4.25-.168v-10.78c0-19.582-3.119-34.057-8.274-38.394-7.103-5.977-23.265-10.387-27.768-7.578m55.271 13.993c-5.002 3.282-5.186 3.552-3.607 5.297.916 1.012 3.155 2.378 4.976 3.037 1.987.718 3.475 2.023 3.72 3.262.376 1.897.421 1.88.546-.209.089-1.497 1.076-2.627 2.886-3.306 1.512-.567 3.803-2.155 5.089-3.528l2.34-2.496-2.59-2.4c-1.424-1.32-2.589-2.227-2.589-2.017 0 .21-1.238.049-2.75-.358-2.199-.593-3.806-.048-8.021 2.718m-98.672 10.385c-3.037 4.335-1.674 8.397 5.256 15.667 3.039 3.189 4.066 5.97 4.578 12.4.634 7.956.979 8.71 3.994 8.71 2.494 0 4.798 2.264 8.995 8.842 1.523 2.388 3.005 4.106 3.292 3.819.707-.706-2.575-6.525-5.582-9.899-2.258-2.532-2.334-2.945-1.017-5.5.783-1.519 1.875-3.093 2.425-3.497.629-.461.553-.74-.203-.75-.662-.008-1.508-1.702-1.88-3.765-.819-4.543-2.084-6.314-3.988-5.584-1.874.719-1.836 2.334.054 2.334 1.334 0 2.019 1.53 2.687 6 .361 2.417-1.116 5.766-2.833 6.425-3.056 1.173-4.335-1.348-4.335-8.547 0-5.149-.44-7.363-1.75-8.808-.963-1.062-2.875-3.366-4.25-5.122-1.375-1.755-2.975-3.699-3.556-4.32-2.129-2.274-2.238-4.438-.377-7.497 2.157-3.547.877-4.317-1.51-.908m126.559 7.497c-.634 1.531-1.783 7.733-2.553 13.782-2.773 21.78-20.289 52.525-33.998 59.675-3.287 1.714-5.65 2.034-14.346 1.942-11.649-.124-15.487-1.334-23.344-7.365-2.543-1.952-5.569-4.055-6.724-4.673-1.155-.619-5.781-5.621-10.278-11.117-7.908-9.662-12.544-13.479-5.782-4.76 12.492 16.107 24.012 25.792 33.73 28.358 9.622 2.54 24.394 2.044 28.826-.968 5.752-3.909 11.83-10.099 15.825-16.118 7.315-11.02 18.528-36.519 18.528-42.133 0-1.416.593-2.343 1.5-2.343.825 0 1.5-.45 1.5-1s-.402-1-.893-1c-1.748 0-2.161-3.424-1.055-8.752 1.258-6.057.81-7.744-.936-3.528" fill="#d3d3d3" fill-rule="evenodd"/></svg>