<svg xmlns="http://www.w3.org/2000/svg" width="500" height="714"><path d="M9 325v306h483.089l-.52-121.75c-.286-66.962-.591-126.7-.677-132.75-.086-6.05.054-88.962.311-184.25L491.67 19H9v306m60.376-198.462c.325.846-.01 1.768-.743 2.049-1.677.644-1.58 6.597.117 7.163.76.253 1.256-.499 1.265-1.917.013-1.882.206-2.043 1-.833.817 1.244 1.134 1.268 1.86.143.65-1.008 1.062-1.054 1.601-.182.4.647 1.356.934 2.125.639 1.98-.76 1.695 1.456-.566 4.4-1.89 2.46-1.966 2.472-4.882.75-3.189-1.885-7.666-2.389-6.653-.75.34.55.029 1.016-.691 1.035-.72.02-.184.679 1.191 1.465s1.905 1.445 1.179 1.465c-.727.019-1.918.631-2.646 1.359-2.15 2.15 3.959 5.443 7.467 4.025 3.36-1.358 6.554-.854 8.604 1.358 2.63 2.837 4.396 2.941 4.396.258 0-1.702.316-1.866 1.934-1 2.395 1.282 8.066 1.364 8.066.117 0-3.106-1.328-4.111-4.616-3.494-3.69.692-4.811-1-1.384-2.088 1.1-.349 2-1.052 2-1.561 0-1.035 2.243-.75 6 .761 3.888 1.565 9.901 2.268 10.541 1.234.317-.514-.231-.934-1.218-.934-1.305 0-.916-.614 1.424-2.25 1.77-1.238 3.226-2.773 3.236-3.412.023-1.575-2.924-1.042-4.048.732-.782 1.237-.906 1.235-.92-.011-.011-1.057-.376-.947-1.37.412-.945 1.292-1.93 1.623-3.25 1.091-1.78-.716-1.758-.815.355-1.63 2.821-1.088 2.889-1.932.156-1.932-1.252 0-2.303.803-2.616 2-.288 1.1-1.201 2-2.029 2-1.146 0-1.24-.32-.392-1.342 1.599-1.927.236-2.79-2.25-1.424-2.841 1.561-6.663 1.01-9.183-1.323C83.3 133.86 81.388 133 80.186 133c-2.555 0-2.96-1.703-.518-2.177 1.407-.272 1.253-.792-.982-3.323-2.225-2.519-2.808-2.759-3.637-1.5-.814 1.236-1.343 1.28-3.005.25-2.669-1.654-3.383-1.577-2.668.288m-1.27 23.619c-2.05.758-3.013 3.843-1.2 3.843.499 0 .685.847.414 1.883-.317 1.213.329 2.458 1.816 3.5 2.401 1.681 2.328 1.786-1.386 1.992-3.266.181-2.849 3.056.5 3.441 1.513.174 2.75-.159 2.75-.74s.9-.286 2 .656 2 2.115 2 2.607-.9.659-2 .371c-1.453-.38-2-.03-2 1.277 0 3.257 6.368 4.129 10.48 1.434 2.676-1.754 7.311-1.591 9.339.327.894.845 1.888.944 3.081.306 1.193-.639 2.621-.496 4.43.442 1.67.866 2.67.989 2.67.328 0-.595 1.118-.843 2.556-.568 1.488.284 3.16-.115 4-.955 1.65-1.65 1.896-3.301.492-3.301-.524 0 .106-1.142 1.399-2.537 1.681-1.814 2.309-3.597 2.202-6.25l-.149-3.713-5-.31c-2.75-.17-5.428-.733-5.95-1.25-.523-.517-1.787-.94-2.809-.94-1.142 0-1.586-.442-1.151-1.145.503-.814-.129-.942-2.191-.44-1.595.388-4.417.832-6.272.988-1.854.156-3.766.987-4.247 1.847-1.071 1.913-4.837 1.17-6.605-1.302-1.424-1.993-6.136-2.913-9.169-1.791M84.5 174c-.34.55-1.863 1-3.385 1-2.813 0-7.729 4.053-6.457 5.324.371.372-.274.676-1.434.676-1.542 0-2.01-.517-1.739-1.921.509-2.644-2.215-3.504-3.025-.955-.396 1.249-.071 2.473.848 3.199 1.905 1.505 3.198 5.677 1.759 5.677-.587 0-1.081-.562-1.099-1.25-.019-.746-.583-.523-1.399.553-.752.992-1.564 1.442-1.804 1-.241-.442-.3-.24-.132.447.167.688-.244 1.264-.914 1.282-.707.018-.484.589.531 1.36 2.143 1.627 2.299 3.033.25 2.246-.825-.316-1.5-.162-1.5.344 0 1.385 3.06 2.815 4.962 2.318.923-.242 2.264.267 2.98 1.13.717.864 1.923 1.57 2.68 1.57.758 0 1.378.695 1.378 1.545 0 2.799 4.777 6.66 7.267 5.874 4.069-1.285 5.879-4.226 3.971-6.454-1.208-1.411-1.953-1.616-2.929-.806-.72.597-1.316.693-1.324.213-.009-.479-.452-.197-.985.628-.818 1.265-.972 1.274-.985.059-.011-1.033-.43-.892-1.483.5-1.261 1.667-1.473 1.706-1.5.28-.033-1.697 7.192-5.839 10.184-5.839 1.144 0 1.526-.843 1.375-3.034-.155-2.235.157-2.893 1.183-2.499.834.32 1.209.032.935-.716-.253-.688-.965-1.138-1.584-1.001-.619.138-1.125-.2-1.125-.75s.436-1 .969-1c.532 0 .679-.753.326-1.674-.487-1.268-.237-1.518 1.031-1.031 1.06.407 1.674.143 1.674-.719 0-.749-.675-1.621-1.5-1.938-.825-.316-1.5-1.039-1.5-1.607 0-.567.675-1.031 1.5-1.031s1.5-.45 1.5-1-1.152-1-2.559-1c-1.451 0-2.292-.433-1.941-1 .349-.565-.47-1-1.882-1-1.375 0-2.778.45-3.118 1m-32.898 29.596c-.335.871-.355 1.994-.046 2.494.832 1.347-1.961 1.105-3.356-.29-1.692-1.692-1.643 7.581.05 9.402 1.515 1.63 2.17 4.176.868 3.371-.522-.323-.698.413-.4 1.676.567 2.397 5.976 8.036 8.72 9.089 1.315.504 1.43 1.04.57 2.647-.917 1.713-.773 2.015.957 2.015 1.119 0 2.035.436 2.035.969 0 .532-.675.709-1.5.393-1.919-.737-1.898.533.073 4.484 1.791 3.59 3.427 4.126 3.427 1.123 0-1.118.675-2.291 1.5-2.607 1.691-.649 2.027-3.918.5-4.862-.552-.341-1 .379-1 1.608 0 3.038-.941 1.882-1.22-1.501-.125-1.503-.801-3.21-1.503-3.792-1.821-1.511-1.578-2.696.473-2.303.962.184 2.313.369 3 .411.688.043 1.25.766 1.25 1.608 0 .843.683 1.794 1.518 2.114.834.32 1.456 1.094 1.381 1.719-.569 4.748.156 6.494 2.588 6.234 3.203-.341 6.799-3.53 5.64-5-.476-.604-1.175-2.809-1.552-4.901-.467-2.591-1.384-4.084-2.88-4.686-2.119-.854-1.896-1.089 1.305-1.376.825-.074 2.538 1.553 3.807 3.615 1.268 2.063 2.731 3.75 3.25 3.75 1.388 0 1.148-1.764-.307-2.254-.975-.328-.948-.787.122-2.083.95-1.151 1.013-1.663.205-1.663-.803 0-.953-1.144-.481-3.661.589-3.138.452-3.571-.954-3.032-1.053.404-1.642.115-1.642-.807 0-.867-.595-1.209-1.5-.862-.825.317-1.5.078-1.5-.531S75.675 215 76.5 215s1.506-.787 1.514-1.75c.007-.963.266-2.875.574-4.25.522-2.329.46-2.377-.913-.697-1.107 1.356-1.603 1.48-1.995.5-.428-1.068-.536-1.068-.601.004-.061 1.008-.587.951-2.302-.25-2.998-2.101-3.578-1.965-3.065.719.705 3.686-3.756 3.454-5.916-.308-1.446-2.521-2.312-2.968-5.749-2.968-2.857 0-4.047-.424-4.047-1.441 0-2.12-1.693-2.8-2.398-.963M30 213.031c0 .568.675 1.291 1.5 1.607.825.317 1.448 1.54 1.384 2.719-.084 1.558-.236 1.688-.557.478-.483-1.823-3.327-3.365-3.327-1.804 0 .533-.337.883-.75.779-1.976-.502-7.25 1.513-7.25 2.769 0 1.732 2.162 1.859 3.796.225.929-.929 1.526-.761 2.668.75 1.894 2.503 1.903 3.446.036 3.446-.825 0-1.5-.48-1.5-1.067 0-1.102-4.06-.27-5 1.025-1.175 1.617-4.099 1.948-4.645.525-1.027-2.676-3.119-1.553-3.792 2.034-.741 3.949-.007 5.867 1.955 5.114a1.412 1.412 0 011.819.804c.308.803 2.336 1.345 5.253 1.403 4.279.086 6.349 1.191 6.395 3.412.027 1.317-2.695.804-3.985-.75-1.396-1.682-7.546-2.044-8.5-.5-.34.55-.122 1 .485 1 .606 0 .97.735.809 1.632-.187 1.039.524 1.764 1.956 1.994 1.49.239 2.25-.143 2.25-1.132 0-.822.484-1.494 1.077-1.494.606 0 .953 1.426.795 3.264-.155 1.796.062 3.821.482 4.5.482.779.188 1.236-.795 1.236-.857 0-1.559.45-1.559 1 0 1.612 1.89 1.152 3.634-.885 1.577-1.842 1.671-1.836 4.069.25 1.467 1.276 3.988 2.198 6.269 2.292 2.099.087 4.932.889 6.297 1.783 2.369 1.553 2.506 1.527 3.058-.581.317-1.213.355-2.565.083-3.004-.969-1.568-9.873-4.965-10.228-3.902-.53 1.592-2.182 1.25-2.182-.453 0-.825.675-1.5 1.5-1.5s1.5-.45 1.5-1 .73-1 1.622-1c1.368 0 1.416-.249.307-1.585-.823-.992-2.365-1.431-4.122-1.173-2.686.394-3.767-.53-1.941-1.659 1.455-.9.016-5.552-2.197-7.103-2.933-2.054-.778-4.358 2.561-2.738 3.233 1.57 7.77 2.44 7.77 1.491 0-.442.9-.804 2-.804s2 .321 2 .714c0 .393.707 1.421 1.571 2.286.865.864 1.09 1.571.5 1.571-1.625 0-1.28 2.706.429 3.362.825.316 1.5 1.463 1.5 2.548 0 2.222 1.446 3.394 4.75 3.849 1.49.205 2.25-.209 2.25-1.225 0-.844.563-1.421 1.25-1.284.688.138 1.25-.425 1.25-1.25s-.876-1.5-1.946-1.5c-2.418 0-6.74-3.704-5.627-4.823 1.161-1.167-1.252-8.71-3.254-10.174-.92-.673-1.673-1.765-1.673-2.426 0-.662-.788-1.123-1.75-1.025-4.837.492-6.484-.049-5.983-1.966.353-1.349-.129-2.082-1.633-2.486-3.185-.855-4.634-.72-4.634.431M254.916 224.5c-.08.55-.209 1.45-.286 2-.077.55-.731 2.041-1.453 3.313-1.185 2.085-.988 2.743 2.004 6.689 4.865 6.415 7.196 7.431 10.319 4.498 2.891-2.716 2.638-3.68-.522-1.988-2.553 1.366-5.574-.408-3.196-1.877.956-.591.761-1.239-.796-2.648-1.538-1.391-1.905-2.58-1.444-4.676.413-1.882.214-2.811-.602-2.811-.671 0-1.817-.787-2.548-1.75-.731-.963-1.395-1.3-1.476-.75m-158.358 1.276c-.307.306-.558 1.327-.558 2.268 0 .941-.675 2.271-1.5 2.956s-1.514 2.202-1.53 3.372c-.028 1.926-.128 1.962-1.05.378-1.337-2.295-2.636-2.219-3.404.199-.746 2.352 2.57 6.051 5.425 6.051 1.068 0 2.237.479 2.599 1.065.434.702 1.272.51 2.46-.565s2.026-1.267 2.46-.565c.362.586 1.789 1.065 3.17 1.065 2.219 0 2.34-.173 1.033-1.48-.814-.814-1.794-3.402-2.177-5.75-.66-4.053-5.538-10.385-6.928-8.994m6.569 2.878c.755.909 1.225 2.526 1.044 3.592-.267 1.581.072 1.812 1.84 1.251 1.966-.625 2.136-.378 1.828 2.657-.186 1.84-.001 3.459.411 3.596 1.372.457 4.438 3.74 4.1 4.391-.183.352.793 1.378 2.169 2.279 2.66 1.743 6.333.797 6.621-1.705.794-6.896.514-8.715-1.343-8.715-1.053 0-1.651-.427-1.328-.95.323-.522-.296-1.422-1.375-2-2.628-1.406-3.094-1.329-3.094.509 0 .857-.481 1.262-1.068.899-.588-.363-.832-1.275-.544-2.027.289-.752.094-1.633-.432-1.958-.526-.325-.956.111-.956.968s-.675 1.559-1.5 1.559c-.915 0-1.5-.933-1.5-2.393 0-2.347-1.643-3.607-4.704-3.607-1.32 0-1.344.237-.169 1.654m30.29 4.027c-.376 1.337-1.156 1.973-2.016 1.643-1.003-.385-1.401.286-1.401 2.363 0 4.173 6.697 10.329 12.013 11.042 4.903.657 4.918.392.237-4.449-2.062-2.134-3.829-4.307-3.926-4.829-.097-.523-.51-1.851-.919-2.951-.734-1.973-.715-1.974 1.425-.095 1.194 1.048 2.17 1.44 2.17.872 0-1.528-2.761-3.543-3.895-2.842-.54.334-1.453-.19-2.028-1.164-.965-1.636-1.092-1.605-1.66.41m-98.422 21.034c-.013 4.847 3.378 11.285 5.953 11.3 1.941.012 2.204.236 1.1.934-.799.506-1.87.661-2.38.346-.51-.315-.72.05-.466.812.254.761 1.192 1.386 2.083 1.389 1.77.004 4.632 3.237 4.683 5.289.023.934-.465 1.019-1.787.312-2.527-1.353-8.181.036-8.181 2.01 0 1.196 3.352 1.141 4.567-.074 1.109-1.109 5.433-.246 5.433 1.084 0 1.359 2.778 1.046 3.254-.367.232-.687-.135-1.7-.815-2.25-1.985-1.604-2.883-5.608-1.106-4.926 2.838 1.089 2.617-1.389-.331-3.717C44.156 263.609 42.81 259 45 259c.55 0 1 .477 1 1.059s.45.781 1 .441c1.579-.976 1.165-4.223-.627-4.91-.894-.344-2.232-.122-2.972.492-1.013.841-1.742.72-2.951-.489-3.042-3.042-5.449-3.871-5.455-1.878m206.027 57.141c-.035 2.169 5.906 9.056 9.336 10.822 1.728.89 3.981 2.564 5.005 3.72 4.076 4.598 6.637 8.363 6.637 9.758 0 .807.9 2.433 2 3.614 1.1 1.18 2.037 2.953 2.081 3.938.055 1.213.525.823 1.455-1.208.756-1.65 1.394-2.49 1.419-1.867.049 1.239 4.045 2.65 4.045 1.428 0-.964-3.405-4.061-4.464-4.061-1.539 0-5.536-5.114-5.536-7.083 0-1.089-.675-2.239-1.5-2.555-.825-.317-1.5-1.128-1.5-1.804 0-1.931-6.126-6.973-6.917-5.692-.678 1.097-8.058-3.138-8.105-4.652-.044-1.409-3.934-5.695-3.956-4.358" fill="#d3d3d3" fill-rule="evenodd"/></svg>