<svg xmlns="http://www.w3.org/2000/svg" width="500" height="772"><path d="M47.5 99c.34.55-.046 1-.858 1-.811 0-1.629.461-1.817 1.024-.187.563-2.137 1.275-4.333 1.582-2.99.419-3.615.292-2.492-.508 1.306-.93 1.285-1.069-.168-1.083-.918-.008-2.454-.316-3.414-.685-1.191-.457-1.516-.298-1.023.5.398.644.295 1.17-.229 1.17s-1.211-.675-1.528-1.5c-.342-.892-1.846-1.5-3.714-1.5-2.329 0-2.995.373-2.582 1.449.654 1.704-2.495 2.985-6.64 2.703-2.778-.19-3.612 2.323-1.324 3.986.483.351.556 1.16.162 1.798-.809 1.308-4.686 1.056-5.714-.372-.395-.548-1.379-.35-2.376.478-.937.777-3.334 1.51-5.326 1.629-3.025.18-3.358.017-2.013-.986 1.737-1.296.903-5.685-1.079-5.685C.325 104 0 209.049 0 438.002v334.002l250.25-.252 250.25-.252.187-334.5c.107-190.551-.187-333.572-.683-332.344-1.011 2.506-4.984 3.619-11.489 3.219-2.546-.156-5.036.246-5.714.924-.66.66-2.124 1.233-3.251 1.271-2.032.07-2.033.079-.05 1.008 1.627.763 1.395.875-1.25.603-2.471-.254-3.25.055-3.25 1.291 0 1.277.805 1.548 3.75 1.263 2.835-.275 3.384-.108 2.25.685-1.264.885-1.186 1.058.5 1.105 1.67.046 1.535.307-.817 1.582-2.106 1.142-3.157 1.245-4.164.409-1.03-.855-1.83-.599-3.404 1.091-1.859 1.996-2.12 2.043-2.715.493-.362-.943-1.261-1.484-1.997-1.201-2.555.98-2.448-1.311.124-2.659 2.486-1.303 2.39-1.355-2.47-1.355-4.68 0-5.057.18-5.057 2.414 0 1.718-.426 2.252-1.475 1.849-1.911-.733-8.783 2.125-8.032 3.341.331.536-.963.731-3.06.463-2.998-.384-3.98-.027-5.607 2.042-1.402 1.783-2.603 2.349-4.154 1.96-2.092-.525-5.945 1.28-16.168 7.574-2.198 1.353-4.527 2.338-5.176 2.189-1.684-.386-8.328 6.734-8.328 8.926 0 3.49-9.599 8.592-17.5 9.301-3.85.346-7.9.803-9 1.016-1.1.213-2.562.421-3.25.463-1.902.117-1.492 2.871.5 3.358.962.234-.275.441-2.75.459-6.456.047-10.362-2.16-9.55-5.396.406-1.62.261-2.283-.41-1.869-.572.354-1.04.166-1.04-.416s-.675-1.059-1.5-1.059c-2.374 0-1.79-3.957.721-4.886l2.22-.821-2.22-1.387c-4.597-2.871-.213-3.748 4.779-.956 1.405.786 4.58 1.289 7.247 1.15 4.002-.209 4.65.004 4.132 1.356-.408 1.063-1.28 1.393-2.584.979-3.54-1.124-8.795.436-8.795 2.61 0 1.839.767 1.955 12.941 1.955 13.724 0 16.669-.895 9.776-2.972a3662.52 3662.52 0 00-5.217-1.57c-.55-.165.182-.336 1.628-.379 1.445-.043 3.143-.7 3.773-1.459.63-.759 3.821-1.974 7.092-2.7 3.27-.725 6.19-1.954 6.488-2.731.365-.95.048-1.222-.97-.832-3.128 1.201-1.364-1.52 1.859-2.867 4.261-1.78 8.421-9.422 5.91-10.856-2.836-1.619-11.415-.106-13.259 2.339-1.012 1.341-2.456 2.081-3.605 1.846-1.054-.216-2.442.3-3.085 1.145-1.388 1.825-17.815 1.727-20.831-.125-2.001-1.228-18.36-.365-17.093.901.317.317.137 1.105-.4 1.752-1.431 1.724.926 6.07 3.962 7.307 2.182.89 1.936.975-1.79.617-2.377-.229-4.996-1.091-5.822-1.916-.825-.825-2.113-1.5-2.862-1.5-.749 0-1.505-1.221-1.679-2.714-.282-2.418-.752-2.73-4.316-2.857-4.983-.177-10.159 2.398-9.691 4.821.364 1.887.558 1.941 6.941 1.929 2.338-.004 4.25.341 4.25.767 0 2.374 7.089 8.062 10.183 8.17 1.983.069 2.513.294 1.317.559-4.528 1.002-5.094 1.489-2.767 2.387 1.532.59 2.035 1.38 1.6 2.512-.53 1.383-.153 1.545 2.327 1.001 1.629-.358 4.051-.247 5.384.246l2.423.896-2.248.713c-1.39.442-1.967 1.164-1.512 1.892 1.587 2.542 1.285 4.867-.699 5.386-2.947.771-2.447 2.254.992 2.942 3.098.62 4.18 2.35 1.469 2.35-2.09 0-3.089 2.994-1.365 4.086 1.117.707 1.047.886-.354.899-.962.008-1.75-.618-1.75-1.391 0-1.709-3.989-.925-5.5 1.081-.682.905-5.484 1.627-15.1 2.27-18.069 1.207-19.23 1.495-18.631 4.625.391 2.045.071 2.43-2.018 2.43-1.365 0-3.554.837-4.866 1.86-1.312 1.023-3.3 1.715-4.419 1.539-1.196-.188-2.539.488-3.258 1.64-1.005 1.609-.965 1.961.225 1.961.797 0 1.731-.456 2.075-1.012.852-1.379 3.776.342 4.078 2.4.131.886-.243 1.612-.83 1.612s.24 1.124 1.838 2.499c1.599 1.374 2.344 2.499 1.656 2.5-.687 0-1.25.471-1.25 1.045s.562.953 1.25.842c.688-.111 1.925.059 2.75.377s2.175.776 3 1.017c.825.241-.525 1.031-3 1.754-2.475.724-5.043 1.726-5.706 2.227-.664.501-1.645.64-2.181.309a1.148 1.148 0 00-1.576.37c-.331.535-1.215.737-1.965.449-2.381-.913-4.548 3.38-3.388 6.71.557 1.596 1.418 2.901 1.914 2.901s.902.844.902 1.875c0 1.343.723 1.875 2.548 1.875 1.402 0 3.134.8 3.849 1.778.715.978 1.818 1.457 2.451 1.066.685-.423 1.152-.067 1.152.879 0 1.847 4.192 3.758 5.105 2.327.677-1.062 7.895 1.594 7.895 2.905 0 .444-1.419 1.435-3.153 2.202-2.821 1.249-2.976 1.526-1.471 2.626 1.537 1.124 1.542 1.284.063 1.852-.891.342-1.977.4-2.415.13-1.877-1.16-1.726 4.783.17 6.679 1.078 1.078 1.732 2.557 1.452 3.286-.817 2.128.537 2.646 1.973.754 1.995-2.626 1.646-4.129-1.119-4.823-1.375-.345-2.5-1.077-2.5-1.626 0-.55.663-.745 1.474-.434.815.313 1.898-.193 2.425-1.134.523-.935 1.309-1.342 1.747-.904.438.438.134 1.214-.675 1.726-1.275.807-1.265.932.079.946.853.008 2.039-.474 2.637-1.072.783-.783 1.308-.73 1.877.191.472.764.256 1.456-.538 1.721-.877.292-.512.882 1.073 1.733l2.401 1.291-2.731 1.044c-1.85.707-2.541 1.537-2.143 2.575.407 1.061-.026 1.532-1.411 1.532-1.245 0-2.213.858-2.57 2.277-1.421 5.663-7.717 10.117-15.387 10.887-.417.041-1.846.489-3.175.995-1.641.624-2.644.552-3.123-.223-.527-.853-1.262-.845-2.904.034-1.612.863-3.018.89-5.276.103-4.326-1.508-6.833-1.376-6.18.326.707 1.845-1.466 3.135-2.887 1.714-1.672-1.672-3.146-1.339-1.713.387.86 1.036.898 1.5.122 1.5-.617 0-1.122-.486-1.122-1.079 0-1.221-5.891-.284-7.45 1.184-.522.492-1.937.895-3.143.895-4.036 0-4.026 3.926.01 4.079 1.145.043 1.521.306.833.583-1.978.799-1.458 2.933 1 4.103 2.178 1.036 2.146 1.093-1 1.777-3.11.678-4.606 3.343-2 3.564.688.059 2.111.171 3.163.25 3.008.226 2.447 9.644-.574 9.644-1.538 0-.864 3.776.788 4.41 2.212.849 4.373-1.143 4.373-4.032 0-1.308.285-2.378.633-2.378 1.117 0 4.367 4.257 4.367 5.72 0 .888.652 1.212 1.75.87 4.035-1.255 4.27 1.097.289 2.892-3.043 1.373-3.777 2.129-2.988 3.08 1.52 1.831-.166 2.546-6.118 2.592-2.79.021-4.779.333-4.42.693.36.359 1.124.653 1.698.653.575 0 1.775 1.103 2.667 2.45 1.554 2.348 1.538 2.417-.378 1.639-3.509-1.423-4.854-1.147-6.078 1.25-.831 1.627-1.359 1.932-1.73 1-.389-.974-.556-.999-.613-.089-.043.688-.487 1.25-.985 1.25-.499 0-.653-.97-.343-2.156.387-1.478.2-1.932-.593-1.441-.637.393-1.158 1.744-1.158 3.001 0 2.354-2.779 5.596-4.797 5.596-.627 0-.934.563-.682 1.25.598 1.631-.331 2.864-4.175 5.548-3.611 2.52-4.449 2.715-4.096.952.14-.698-.522-1.12-1.5-.956-.962.161-1.75-.176-1.75-.75 0-.574.675-1.1 1.5-1.169.825-.069 1.95-.238 2.5-.375s1.733-.306 2.628-.375c1.328-.102 1.51-.86.988-4.125-.352-2.2-.232-4 .265-4 1.755 0 1.999-2.933.495-5.949-.883-1.769-2.307-3.051-3.39-3.051-2.288 0-3.193-1.296-2.382-3.41.818-2.132 3.21-2.036 3.035.122-.077.941.648 1.874 1.611 2.073.962.199 1.75-.121 1.75-.712a1.07 1.07 0 00-1.059-1.073c-.582 0-.812-.399-.511-.887.703-1.137-1.134-2.575-4.93-3.86l-3-1.015 2.82-1.121c2.569-1.021 2.679-1.261 1.24-2.699-.868-.869-1.321-1.996-1.005-2.506.315-.51 1.251-.249 2.08.58 1.795 1.795 3.365 1.959 3.365.353 0-.68.771-.457 1.876.543 2.609 2.361 8.186 3 10.474 1.2 2.051-1.613 1.281-4.044-1.004-3.167-.798.306-2.489-.124-3.757-.955-1.269-.831-3.005-1.244-3.858-.916-2.073.795-3.189-2.825-1.719-5.573 1.292-2.413 2.878-2.204 4.417.583 1.421 2.574 2.799 3.519 4.319 2.962.686-.252 1.955.622 2.82 1.941 1.464 2.234 1.7 2.288 3.45.789 2.144-1.835 1.721-3.252-.97-3.252-1.868 0-3.526-2.491-3.162-4.75.111-.687-.507-1.25-1.374-1.25-.866 0-1.834-.675-2.15-1.5-.356-.926-1.875-1.5-3.969-1.5-3.723 0-4.556-1.496-1.393-2.5 1.1-.349 2-1.07 2-1.603 0-.57-.874-.5-2.127.171-1.617.865-2.307.848-2.875-.072-.777-1.257-6.538-.55-7.443.914-.953 1.543-6.164-.103-7.104-2.244-.61-1.39-1.846-2.166-3.451-2.166-1.375 0-3.512-1.012-4.75-2.25-1.237-1.238-3.405-2.25-4.816-2.25-3.75 0-7.114-1.956-5.319-3.092 1.091-.691 1.001-.881-.424-.893-.995-.008-1.531-.465-1.191-1.015.34-.55-.189-1-1.175-1-4.43 0-17.596-8.062-15.913-9.745.383-.383 1.01-.225 1.392.352.878 1.325 7.06 4.393 8.85 4.393 2.585 0 1.319-1.854-2.02-2.956-1.851-.611-4.968-2.896-6.927-5.077-1.958-2.182-4.317-3.967-5.241-3.967-1.082 0-1.475-.533-1.104-1.5.317-.827.029-1.501-.643-1.501-2.032-.002-6.718-4.606-6.734-6.615-.013-1.583-.171-1.644-.985-.384-.797 1.233-.972 1.13-.985-.577-.017-2.299 5.006-2.329 7.922-.047 1.17.915 1.306.774.733-.753-.468-1.246-.11-2.328 1.063-3.218 1.361-1.033 1.434-1.349.317-1.373-1.128-.025-1.183-.299-.25-1.232 1.781-1.781 1.455-4.624-.682-5.959-1.487-.928-1.775-1.981-1.369-5.008.283-2.108.091-3.833-.426-3.833s-1.814-.647-2.882-1.438c-1.918-1.421-1.917-1.456.059-2.968 1.1-.842 2.787-1.545 3.75-1.562 1.96-.036 2.336-1.552.643-2.598-.793-.49-.766-.895.095-1.426.91-.563.814-1.489-.394-3.826-2.001-3.869-1.99-4.164.156-4.261 1.045-.047 1.247-.282.5-.583-.687-.278-1.257-1.255-1.265-2.171-.013-1.408-.159-1.44-.939-.207-.799 1.264-1.171 1.237-2.758-.199-1.26-1.141-2.296-1.368-3.311-.726-.812.514-3.727.901-6.477.859-4.909-.073-4.939-.092-1.64-1.041 4.825-1.389 3.356-1.996-4.763-1.971-3.904.013-7.097-.149-7.097-.36 0-.21 2.019-1.39 4.487-2.622 2.468-1.233 4.748-3.065 5.067-4.071.319-1.006 1-1.829 1.513-1.829.513 0 .933-.62.933-1.378 0-2.099 2.671-4.038 3.327-2.414.42 1.043.702 1.034 1.461-.048.658-.937.23-2.051-1.423-3.704-2.486-2.486-2.678-3.118-2.412-7.956.315-5.746.994-6.761 4.109-6.138 1.573.315 3.12.152 3.438-.362.318-.514 1.845-.681 3.395-.371 2.032.406 2.989.115 3.434-1.045.504-1.314.136-1.488-2.005-.951-1.842.463-2.412.318-1.914-.487.389-.63 1.356-1.146 2.149-1.146 1.75 0 1.887-2.154.241-3.8-1.784-1.784-4.038-1.464-7.113 1.01-2.007 1.616-3.815 2.133-6.717 1.924-3.946-.285-5.565 1.302-2.22 2.177 1.317.344 1.193.486-.5.573-1.939.1-2.25.669-2.25 4.116 0 3.55-.269 4-2.389 4-1.605 0-2.343.539-2.25 1.642.077.904-.423 1.841-1.111 2.084-.687.242-1.25-.3-1.25-1.206 0-1.116-.695-1.545-2.157-1.333-1.186.172-2.349-.249-2.583-.937-.244-.713.396-1.25 1.49-1.25 1.054 0 2.218-.301 2.586-.67.851-.851-10.46-6.371-11.605-5.664-1.225.757-13.859-1.821-16.231-3.311-1.1-.692-2.338-1.279-2.75-1.306-1.885-.123-.997-1.585 1.147-1.888 3.576-.505 11.103 1.873 11.103 3.508 0 1.034.333 1.123 1.25.336.688-.59 2.106-1.665 3.153-2.387 2.429-1.678 1.274-3.599-2.212-3.681-2.624-.062-2.634-.087-.421-.976 1.394-.56 2.503-2.078 2.875-3.936.601-3.003 1.598-3.524 6.03-3.154 1.196.099 2.491-.331 2.878-.957.873-1.413-1.309-2.878-4.317-2.899-1.245-.008-3.157-.573-4.25-1.256-1.581-.987-2.391-.987-3.972 0-2.505 1.565-3.143 1.563-2.939-.009.632-4.873-3.175-6.511-9.821-4.227-3.719 1.279-14.119 1.012-15.53-.399-.458-.458 1.329-1.419 3.971-2.134 6.175-1.671 7.398-2.681 7.072-5.841-.192-1.855.265-2.686 1.629-2.965 1.387-.283 1.734.035 1.294 1.183-.332.863-.172 1.835.354 2.16.526.325.956.224.956-.224s1.38-1.426 3.067-2.172l3.067-1.358-2.245-2.136c-1.234-1.176-3.586-2.812-5.226-3.637-2.451-1.233-3.946-2.869-5.307-5.81-.079-.171-2.477-.504-5.33-.741-5.945-.494-8.355 1.06-8.366 5.396-.013 4.73-4.387 7.213-13.122 7.451-6.757.183-7.548.411-7.653 2.204-.099 1.685-.189 1.724-.574.25-.556-2.125-1.694-2.225-3.604-.314-1.021 1.021-1.745 1.126-2.507.364-.763-.763-2.516-.6-6.074.564-2.751.9-5.903 1.636-7.005 1.636-1.102 0-2.282.451-2.622 1.002-.352.569-2.271.738-4.44.391-3.532-.564-3.891-.397-4.763 2.22-2.364 7.091 9.341 16.798 20.458 16.966 3.942.06 5.831.622 7.564 2.25 1.271 1.194 2.772 2.171 3.336 2.171 1.271 0 3.346-4.4 3.346-7.095 0-2.212 4.517-6.905 6.646-6.905.919 0 1.354 1.321 1.354 4.117 0 3.624.239 4.054 2 3.593 1.857-.485 2.579.743 2.105 3.581-.436 2.614 2.188 4.709 5.899 4.709 3.1 0 3.81.321 3.353 1.512-.474 1.236.079 1.408 3.031.939 3.625-.576 5.182 1.009 2.138 2.178-1.174.45-1.225.844-.25 1.933.673.753 1.783 2.036 2.466 2.853.684.816 4.846 2.258 9.25 3.205 8.566 1.84 8.673 1.918 6.553 4.717-1.702 2.245-15.336 1.836-20.154-.604-1.59-.806-5.231-2.015-8.091-2.687-2.861-.672-5.728-1.857-6.373-2.634-1.34-1.614-4.927-1.914-4.927-.412 0 .55-.675 1-1.5 1s-1.507.563-1.515 1.25c-.012.92-.243.892-.875-.107-.506-.798-1.107-.956-1.461-.384-.681 1.101-5.649.425-5.649-.769 0-.427.787-1.114 1.75-1.527 1.381-.592.906-1.02-2.25-2.03l-4-1.279 4.628-.077c3.691-.061 4.92.363 6.069 2.094.892 1.343 1.917 1.877 2.687 1.4.954-.589.843-1.215-.474-2.67-.946-1.046-1.393-1.901-.994-1.901.4 0 .063-.664-.749-1.476-2.254-2.254-11.412-2.88-16.396-1.12-3.871 1.366-4.321 1.349-5.308-.206-.744-1.17-1.237-1.325-1.588-.498-.347.819-1.241.921-2.815.323-1.496-.569-2.702-.481-3.433.25-.836.836-1.128.753-1.131-.323-.004-1.494-7.166-4.95-10.257-4.95-.956 0-1.739-.42-1.739-.933 0-.513-.9-1.218-2-1.567s-2-1.279-2-2.067c0-.788-.469-1.433-1.042-1.433-1.617 0-5.238-3.737-4.608-4.757.309-.5 1.932-.708 3.606-.463 3.806.559 3.92-.831.247-3.001-1.539-.909-3.415-2.806-4.169-4.216-.755-1.41-1.971-2.563-2.703-2.563-2.076 0-1.563-1.792.722-2.517 1.639-.52 1.816-.936.877-2.067-.924-1.113-.857-1.416.31-1.416.996 0 1.393-.835 1.207-2.534-.233-2.118.435-2.87 4.063-4.576 4.144-1.948 4.267-2.128 2.694-3.965-.907-1.059-2.223-1.925-2.926-1.925-.703 0-1.278-.45-1.278-1s-.702-1-1.559-1-1.279-.453-.936-1.008c.342-.554-.049-1.679-.87-2.5-1.667-1.667-4.097-2.049-3.135-.492M.494 438c0 183.975.115 259.237.256 167.25.141-91.988.141-242.513 0-334.5C.609 178.762.494 254.025.494 438M54 146.3c-4.564 2.126-5.243 3.418-2.22 4.222 1.496.399 2.155.933 1.464 1.187-2.031.747-.351 2.291 2.492 2.291 2.176 0 14.735 5.287 21.555 9.073.985.547 2.299.681 2.92.297.726-.449.915-.139.528.867-.773 2.016 2.77 3.06 4.266 1.257.776-.935.76-1.406-.055-1.677-.624-.208-1.205-1.602-1.292-3.097-.112-1.934-.699-2.719-2.03-2.719-1.499-.001-1.639-.283-.702-1.412 1.492-1.798-.154-2.969-2.935-2.086-1.095.347-1.991.214-1.991-.297s-1.125-.714-2.5-.451c-1.991.381-2.5.072-2.5-1.516 0-2.526-1.406-3.575-6.89-5.146-3.605-1.032-4.542-1.019-5.235.075-.646 1.019-.848.92-.86-.418-.017-2.005-.548-2.065-4.015-.45m138.25 13.406c-2.759.531-2.865 2.939-.278 6.294 1.838 2.383 1.991 2.414 3.277.664 2.169-2.951 7.166-1.903 7.567 1.586.41 3.561 1.27 3.464 3.464-.39l1.781-3.128-3.211-2.866c-3.182-2.84-6.296-3.374-12.6-2.16" fill="#d3d3d3" fill-rule="evenodd"/></svg>