<svg xmlns="http://www.w3.org/2000/svg" width="500" height="342"><path d="M54 2.629c0 .346 1.462 2.292 3.25 4.325l8.551 9.724c2.916 3.315 6.291 7.391 7.5 9.058 1.209 1.666 4.449 5.693 7.199 8.949 2.75 3.255 6.575 7.895 8.5 10.31 1.925 2.416 5.975 7.342 9 10.948a3789.89 3789.89 0 017.159 8.557c.912 1.1 3.946 4.7 6.741 8 3.408 4.023 5.085 6.906 5.091 8.75.01 3.195 1.584 3.666 2.509.75.907-2.858 2.5-2.471 2.5.607 0 1.966.389 2.458 1.582 2 .87-.334 2.025-.607 2.568-.607 1.327 0-2.409-5.139-6.633-9.122-1.881-1.775-3.144-3.71-2.808-4.302.336-.592.255-.754-.181-.36-.886.799-5.185-4.195-4.753-5.521.151-.464-.187-.559-.75-.21-.937.579-1.473-.767-1.119-2.809.079-.454-.387-.497-1.036-.096-.789.488-.911.296-.37-.58.505-.817.416-1.066-.236-.663-.575.355-1.722-.363-2.55-1.596-.828-1.232-2.352-3.141-3.386-4.241-1.035-1.1-6.338-7.625-11.784-14.5-5.445-6.875-10.271-12.65-10.723-12.833-.451-.184-.826-.859-.832-1.5-.006-.642-1.982-3.304-4.391-5.917-2.41-2.613-4.19-4.75-3.956-4.75.233 0-1.158-1.582-3.092-3.517-1.934-1.934-3.504-3.75-3.488-4.035C64.173 5.402 59.83 2 57.106 2 55.398 2 54 2.283 54 2.629m137 1.042c0 .919.745 2.494 1.655 3.5.91 1.006 1.185 1.829.612 1.829-.673 0-.506 2.133.468 6 .831 3.3 1.936 6 2.455 6 .52 0 .652.922.295 2.048-.358 1.126-.108 2.701.555 3.5.663.799.87 1.452.46 1.452s-.244.604.369 1.342c.612.738.872 1.584.577 1.879-.295.295.383 4.051 1.508 8.346 1.126 4.295 2.131 11.437 2.235 15.871.162 6.901.241 7.234.55 2.312.393-6.267 1.619-7.747 1.998-2.412.13 1.834.921 5.276 1.759 7.649.837 2.374 1.804 6.835 2.149 9.914.345 3.08.951 6.049 1.347 6.599.396.55 1.717 5.388 2.936 10.75 1.219 5.362 2.634 9.75 3.144 9.75 1.318 0 1.138-3.061-.352-6-.697-1.375-1.206-3.513-1.13-4.75.075-1.237-.21-2.25-.633-2.25-.423 0-.534-.9-.247-2 .314-1.202.031-2-.71-2-.776 0-1.056-.926-.755-2.5.263-1.375.053-2.5-.467-2.5s-.755-.563-.523-1.25c.233-.687-.205-2.759-.973-4.604-.834-2.005-1.129-4.568-.732-6.375.441-2.004.31-2.802-.388-2.371-1.069.66-3.9-10.451-3.415-13.4.136-.825-.03-3.075-.369-5-.54-3.062-.73-3.249-1.518-1.5-.768 1.704-.826 1.63-.394-.5.764-3.765-1.579-14.93-2.611-12.445-.517 1.245-.632.505-.321-2.055.385-3.161.273-3.581-.534-2-.799 1.564-.902 1.127-.474-2 .413-3.011.283-3.629-.526-2.5-.809 1.129-.939.511-.526-2.5.418-3.053.314-3.527-.44-2-.763 1.546-.876 1.092-.5-2 .385-3.161.273-3.581-.534-2-.807 1.58-.905 1.213-.465-1.75.305-2.062.163-3.75-.316-3.75-.48 0-.737-1.462-.57-3.25.275-2.962.224-3.028-.574-.75-.845 2.413-.879 2.422-.975.25-.115-2.589-3.1-3.147-3.1-.579m158.181 4.755c-3.008 5.818-3.219 6.776-2.255 10.246.584 2.105 1.065 5.489 1.068 7.519.003 2.03.456 3.969 1.006 4.309 1.146.708 1.221.13 1.009-7.809-.086-3.196.366-6.438 1.004-7.207.638-.768.925-1.775.639-2.238-.286-.463-.107-1.495.399-2.294.634-1.002.923.02.934 3.298.009 2.797.47 4.75 1.122 4.75.609 0 .834-.712.5-1.582-.334-.87-.607-4.695-.607-8.5 0-3.805-.337-6.916-.75-6.914-.413.002-2.243 2.892-4.069 6.422m16.853 3.345c-3.006 5.351-6.847 11.09-8.535 12.753-3.99 3.93-11.817 18.206-11.061 20.174.408 1.065.129 1.35-.927.945-.831-.319-1.511-.144-1.511.388 0 .533.477.969 1.059.969s.751.498.375 1.107c-.486.787-.905.749-1.45-.132-.538-.872-.965-.61-1.439.884-.371 1.168-.425 2.526-.121 3.019.305.492-.116 1.451-.935 2.131-.819.68-1.489 2.081-1.489 3.113 0 1.033-.45 1.878-1 1.878s-1 .638-1 1.417-.343 1.566-.761 1.75c-1.114.487-7.239 8.155-7.239 9.061 0 .425.948.772 2.107.772 1.442 0 1.929-.464 1.544-1.468-.31-.807-.129-1.736.401-2.064.531-.328 1.383.445 1.893 1.718.838 2.089.934 2.119.992.306.034-1.104 3.925-8.529 8.646-16.5 4.72-7.971 10.138-17.192 12.04-20.492 1.902-3.3 4.002-6.889 4.668-7.976 5.878-9.603 7.535-12.422 8.828-15.024.821-1.65 2.306-4.237 3.301-5.75 1.8-2.735 1.797-2.75-.555-2.729-1.943.017-3.341 1.759-7.831 9.75m29.259-7.862c-1.215 1.014-1.89 2.196-1.5 2.627.389.432.075.418-.698-.03-.944-.548-1.17-.437-.69.339.392.635.236 1.155-.346 1.155s-.949.337-.815.75c.37 1.14-4.27 8.25-5.385 8.25-.537 0-.699.45-.359 1 .34.55.141 1-.441 1S384 19.649 384 20.443s-.897 2.072-1.994 2.84c-1.096.768-1.696 1.694-1.333 2.057s.231.66-.294.66-2.902 3.038-5.283 6.75c-2.38 3.712-5.168 7.96-6.196 9.438-1.027 1.478-4.361 6.428-7.409 11-3.047 4.572-5.889 8.762-6.316 9.312-4.637 5.979-12.803 19.612-12.032 20.088.545.337 1.107.455 1.25.262.143-.192 1.801-2.6 3.684-5.35 1.882-2.75 3.986-5.36 4.673-5.8.688-.44 1.25-1.252 1.25-1.805 0-1.236 8.045-13.266 9.181-13.728.45-.184.819-.741.819-1.239 0-.498 2.806-4.848 6.235-9.667 6.156-8.652 6.242-8.724 6.881-5.761.576 2.67.66 2.523.766-1.336.099-3.644 1.258-5.997 7.254-14.725 3.925-5.714 7.525-10.149 8-9.855.475.294.864-.325.864-1.375s1.353-3.776 3.006-6.059c3.12-4.306 2.201-5.508-1.713-2.241M496 4.311c0 1.271.882 8.649 1.959 16.396 1.561 11.223 1.958 19.717 1.955 41.81-.003 15.249.276 28.007.62 28.35.763.763.021-70.559-.763-73.367-.308-1.1-.884-5.037-1.282-8.75C497.813 2.433 496-.8 496 4.311M386.496 33.69c-3.848 5.233-7.671 10.569-8.496 11.858-.825 1.289-4.425 6.206-8 10.927-14.978 19.78-18 23.963-18 24.919 0 1.216.248.96 6.888-7.1C361.7 70.88 364 67.821 364 67.496c0-.693 12.292-17.085 22.493-29.996 8.572-10.849 8.549-10.814 7.687-12.209-.404-.653-3.587 2.828-7.684 8.399M1.212 60.764c.158 18.739.606 34.389.995 34.777.389.389 1.514.352 2.5-.081 4.118-1.808 9.984-2.769 11.433-1.874 2.106 1.302 7.052 1.5 8.451.338 2.355-1.954 12.363 3.724 10.857 6.16-.264.428-.023 1.06.536 1.406.559.345 1.016 1.726 1.016 3.069 0 2.071-.493 2.453-3.25 2.52-1.788.043-2.687.306-2 .583 2.096.846 1.395 3.085-1.167 3.728-1.33.334-3.467.186-4.75-.328l-2.333-.935 2.5-.079c1.375-.043 3.175-.515 4-1.048 2.36-1.525-1.189-1.268-13.581.985-6.005 1.091-12.156 1.991-13.669 2C.061 112 0 112.132 0 117.927c0 4.803.332 6.013 1.75 6.384 1.609.42 1.612.466.039.573-1.568.106-1.715 2.327-1.754 26.468l-.042 26.352 15.754 3.228c8.664 1.775 17.185 3.597 18.936 4.049 3.512.906 4.317.527 4.317-2.033 0-.945.695-3.233 1.545-5.083 1.506-3.278 1.534-3.139 1.111 5.385-.425 8.558-.385 8.75 1.836 8.75 2.159 0 2.303-.478 2.945-9.75.372-5.363 1.1-13.338 1.619-17.724.519-4.385.944-10.798.944-14.25 0-6.734.186-6.956 4-4.776 2.956 1.69 6.533 2.137 4 .5-1.092-.706-1.144-.974-.19-.985 2.115-.024 1.114-7.418-1.06-7.83-1.402-.266-1.75.379-1.75 3.242 0 4.293.671 4.25-7.385.48l-6.609-3.093.649-4.157c.357-2.286.997-4.388 1.422-4.67 1.239-.822 1.453-5.017.602-11.803-.663-5.277-.473-7.005 1.152-10.5 1.122-2.414 2.47-8.837 3.187-15.184 1.217-10.77 1.325-11.086 5.175-15.102l3.933-4.102-17.313-14.44C22.196 43.996 6.486 31.043 2.712 28.09 1 26.752.936 28.158 1.212 60.764M352.3 46.435c-5.61 9.386-10.496 17.854-10.858 18.817-.968 2.579.316 6.607 2.026 6.356 2.299-.338 2.923-1.432 1.674-2.937-.89-1.072-.597-1.967 1.321-4.037 1.45-1.564 2.218-3.303 1.865-4.222-.379-.987-.09-1.491.786-1.369 3.204.448 4.179-.432 9.198-8.293 5.266-8.246 5.268-8.253 4.728-14.815l-.54-6.565-10.2 17.065m97.287-13.875c-1.05.768-7.134 6.469-13.52 12.668-6.386 6.2-17.885 17.122-25.553 24.272-25.501 23.778-28.693 26.94-27.572 27.314.612.204 3.262-1.808 5.89-4.472 2.627-2.663 9.221-8.892 14.654-13.842 13.314-12.131 22.346-20.503 31.969-29.634 4.425-4.198 9.518-8.859 11.318-10.357 4.815-4.009 7.277-9.212 2.814-5.949M265.69 41.841c-2.164 1.278-2.726 2.259-2.443 4.272.383 2.732-2.033 4.953-8.735 8.03-1.643.755-3.138 2.152-3.321 3.105-.259 1.343 1.298.792 6.907-2.442 7.822-4.509 15.444-6.442 16.327-4.141.282.734 1.726 1.335 3.21 1.335s2.422.276 2.085.613c-.337.337 1.489 1.677 4.057 2.977 4.902 2.482 8.667 1.712 4.973-1.018-.962-.711-1.75-1.805-1.75-2.432s-.436-1.14-.969-1.14c-.532 0-.719-.65-.414-1.446.394-1.025-1.786-2.622-7.509-5.5-9.056-4.553-8.593-4.47-12.418-2.213m7.925 28.909c.214 9.763.602 22.025.862 27.25.259 5.225.483 10.513.497 11.75.022 1.889.574 2.25 3.443 2.25 1.879 0 3.586-.51 3.794-1.134.248-.744.936-.576 2.003.491 1.207 1.206 1.755 1.305 2.127.384.396-.982.518-.98.58.009.045.705 1.388 1.25 3.079 1.25 3.386 0 4.147-1.488.887-1.734-2.192-.165-3.527-.963-2.804-1.678 1.219-1.204 5.836.828 6.111 2.69.168 1.136.981 2.269 1.806 2.519 1.211.366 1.259.197.25-.872-.687-.729-1.243-1.797-1.235-2.375.009-.577.452-.375.985.45.78 1.207.972 1.049.985-.809.008-1.288-.427-2.036-.985-1.691-.596.369-1-.843-1-3 0-1.99.408-3.366.906-3.058 1.079.667.844-9.419-.261-11.208-.42-.679-.339-1.234.179-1.234 2.011 0 .65-6.454-1.598-7.575-2.347-1.17-2.018-2.666.384-1.744 1.692.649 1.746-8.343.056-9.387-.592-.366-.754.034-.394.973.475 1.238.121 1.481-1.58 1.084-1.205-.281-2.754-.55-3.442-.598-.687-.047-1.25-.461-1.25-.92 0-.458-.337-.762-.75-.674-1.253.265-4.25-1.316-4.25-2.241 0-.478 1.125-.441 2.5.082 1.951.742 2.5.634 2.5-.493 0-.936.585-1.22 1.664-.806 1.119.43 1.427.256.941-.531-.491-.795.177-1.133 2.086-1.054 1.714.071 2.122.295 1.047.576-2.003.522-1.368 2.308.821 2.308.965 0 1.441-1.096 1.441-3.321 0-3.235-.282-3.458-10.75-8.506-5.913-2.852-11.037-5.182-11.387-5.179-.351.003-.462 7.993-.248 17.756m179.294 7.86c-.735.885-7.427 5.943-14.872 11.239-7.446 5.296-13.987 9.99-14.537 10.429C418.392 104.36 390.952 123 390.051 123c-.643 0-.872.481-.509 1.068 1.014 1.641 1.734 1.196 28.694-17.727a131969.64 131969.64 0 0131.466-22.08c4.14-2.903 6.016-4.833 5.643-5.805-.699-1.821-.803-1.814-2.436.154m-382.3 7.967c-1.795 4.678-.639 11.341 2.352 13.552 2.968 2.195 3.176 3.871.48 3.871A1.445 1.445 0 0172 102.559c0-.793-.526-1.766-1.17-2.164-.794-.491-.958-.171-.511.993.362.944.274 1.479-.195 1.189-.885-.547-1.127 1.635-3.604 32.423a5195.696 5195.696 0 01-2.999 35.5c-1.977 22.248-1.959 24.239.229 24.811 1.317.344 1.193.486-.5.573-1.572.081-2.25.74-2.25 2.188 0 1.14-.701 10.124-1.557 19.963l-1.558 17.891 3.308 3.129c2.364 2.237 2.737 2.94 1.307 2.467-1.1-.364-3.35-.86-5-1.102l-3-.44 3 1.167c1.65.642 5.217 3.099 7.927 5.461 3.497 3.048 5.361 4.05 6.424 3.455 2.475-1.384 2.215-4.008-.463-4.68-2.201-.553-2.368-.962-1.736-4.247.386-2 .65-4.415.588-5.366-.062-.952.309-1.991.824-2.309.515-.319.936.345.936 1.474 0 2.082 2.071 2.399 4.75.727 1.544-.963 1.544-.824 0 3.962-2.249 6.975-1.286 11.591 2.227 10.672 1.591-.416 1.778-.885.964-2.406-.636-1.188-.652-1.89-.044-1.89.533 0 1.25.888 1.595 1.974.474 1.495 1.339 1.89 3.567 1.631 1.618-.189 2.941-.01 2.941.397 0 .407-2.362 1.048-5.25 1.425s-6.258.932-7.489 1.235l-2.24.549 2.029 2.58c1.439 1.829 1.985 3.905 1.88 7.144-.081 2.511.17 5.69.559 7.065.599 2.116.387 2-1.376-.75-1.146-1.788-2.765-3.25-3.598-3.25-.833 0-1.522-.562-1.53-1.25-.012-.93-.207-.95-.76-.079-.41.644-1.984 1.481-3.498 1.861-5.756 1.445-17.471 19.603-22.238 34.468-2.097 6.541-5.225 13-6.296 13-.422 0-2.91 2.025-5.53 4.5-2.621 2.475-5.277 4.5-5.903 4.5-.627 0 .296-1.403 2.05-3.119 1.755-1.715 3.19-3.515 3.19-4 0-.484.675-.881 1.5-.881s1.5-.634 1.5-1.409c0-1.128-.789-1.028-3.952.5-2.173 1.05-4.45 1.909-5.059 1.909s-.827.453-.485 1.007c.343.554-.193 1.27-1.191 1.591a55.48 55.48 0 00-3.813 1.43c-1.1.465-3.125 1.159-4.5 1.54-1.375.382-3.651 1.504-5.058 2.494-1.406.99-4.444 2.555-6.75 3.478-2.305.922-4.192 2.303-4.192 3.069 0 1.833-.74 2.023 12.138-3.12 11.328-4.525 17.303-5.81 8.211-1.767A9841.488 9841.488 0 017.5 331.418l-8 3.54 38.178.021 38.179.021 6.321-3.719c3.477-2.046 6.547-3.959 6.822-4.252.275-.293 1.85-1.149 3.5-1.902 20.302-9.273 25.219-16.058 11.679-16.113-1.827-.008-4.046-.738-4.931-1.623-1.77-1.771-10.204-1.348-16.433.823-2.407.839-3.301.827-3.593-.048-.214-.641-.828-1.166-1.364-1.166-.537 0-.702.444-.366.987.336.543-.373 2.005-1.574 3.25l-2.184 2.263.578-3.097c.317-1.704.89-6.554 1.273-10.778.383-4.224.982-7.858 1.332-8.074.35-.216 5.216 1.093 10.813 2.909 5.596 1.815 10.446 3.031 10.777 2.7.331-.331.915-.151 1.297.399.729 1.049 16.702 6.452 19.053 6.445.826-.002 1.119-.623.75-1.586-.334-.87-.607-1.759-.607-1.975 0-.216-1.343-.124-2.985.204-2.175.435-3.147.174-3.583-.964-.388-1.01-2.485-1.796-5.949-2.228-3.422-.428-5.564-1.223-5.941-2.205-.699-1.824-.914-1.637 3.458-3.008 2.806-.881 1.27-.988-7.75-.541-8.022.398-11.25.234-11.25-.571 0-.652-1.694-1.13-4-1.13-3.502 0-3.991-.28-3.93-2.25.051-1.631.258-1.835.75-.743.374.829 2.255 1.662 4.18 1.85 1.925.189 3.725.681 4 1.092.275.412 4.482.534 9.348.27 5.496-.298 8.337-.807 7.5-1.342-.804-.515 2.888-.869 9.152-.879 5.775-.008 11.175-.047 12-.087.825-.039 2.4.175 3.5.476 1.1.302 3.905 1.066 6.233 1.698 5.646 1.533 14.516.403 16.821-2.144 1.11-1.228 3.078-1.947 5.351-1.956 2.576-.011 3.183-.276 2.143-.934-.799-.506-1.811-.697-2.25-.426-1.244.769-.937-1.086.402-2.425.66-.66 2.393-1.2 3.851-1.2 3.224 0 8.949-1.902 8.949-2.973 0-.427-1.36-1.049-3.021-1.381-2.593-.519-2.865-.856-1.916-2.375.885-1.417 2.487-1.771 8.021-1.771 6.505 0 6.916.134 6.916 2.25 0 1.583.593 2.25 2 2.25 1.473 0 2-.667 2-2.531 0-1.393.647-2.78 1.437-3.083.79-.303 1.193-1.187.895-1.963-.298-.776-.944-1.163-1.437-.858-.492.304-.895-.118-.895-.939 0-1.822 3.067-2.921 5.523-1.979 1.242.477 1.58.328 1.082-.477-.763-1.235.541-1.492 8.144-1.606 4.911-.074 5.363.608 1.553 2.344-2.132.972-2.397 1.415-1.265 2.115.967.597 2.108.25 3.512-1.069 1.144-1.075 2.64-1.954 3.324-1.954.685 0 .981-.427.658-.949-.323-.523 1.113-1.233 3.191-1.578 6.192-1.03 6.989-1.412 5.25-2.511-1.149-.727-.947-.935.918-.947 1.314-.008 2.953.756 3.642 1.697.955 1.307 1.573 1.446 2.61.585.747-.62 1.808-1.13 2.358-1.135.55-.004 1.45-.819 2-1.812 1.513-2.729 3.752-4.283 6.225-4.318 1.979-.028 2.117.253 1.25 2.533-.536 1.411-.975 2.698-.975 2.859 0 .609 32.734-.142 33.758-.775.589-.364 1.299-.096 1.578.595.294.729.539.488.585-.573.067-1.542.59-1.713 3.329-1.089 1.788.408 4.825.663 6.75.567 2.615-.13 3.121.076 2 .816-1.044.688.581.891 5.346.666 3.765-.178 7.166-.842 7.558-1.475.951-1.54 9.742-2.537 10.569-1.2.352.57.826 1.999 1.052 3.176.526 2.728 1.475 3.716 1.475 1.535 0-.917.675-1.667 1.5-1.667s1.507.788 1.515 1.75c.013 1.496.157 1.532.985.25.721-1.116.973-.539.985 2.25.013 3.293-.277 3.75-2.378 3.75-1.316 0-2.641.645-2.943 1.434-.363.945-1.595 1.303-3.607 1.048-2.099-.266-3.057.039-3.057.972 0 1.556 7.989 4.546 12.148 4.546 1.535 0 4.394.9 6.352 2 4.527 2.543 8.692 2.55 10.983.019 1.515-1.674 1.586-2.231.459-3.589-1.122-1.352-1.105-1.575.112-1.4.795.114 3.021.138 4.946.053l3.5-.154-2.5-1.415c-1.375-.779-4.413-1.714-6.75-2.078-3.628-.566-4.25-1.013-4.25-3.05 0-1.312.116-2.386.258-2.386.75 0 30.143 10.422 42.238 14.977 23.421 8.82 50.268 17.593 51.147 16.713.25-.25.172-1.58-.174-2.956-.734-2.925-3.624-4.331-17.969-8.742-5.5-1.691-14.725-4.599-20.5-6.462a3685.661 3685.661 0 00-44.25-13.976c-10.701-3.299-11.75-3.836-11.75-6.007 0-1.311-.25-3.036-.557-3.834-.349-.911.224-1.654 1.542-1.999 1.701-.445 2.209.004 2.682 2.369.32 1.604 1.21 2.917 1.977 2.917.988 0 1.211-.729.767-2.5-.548-2.183-.301-2.5 1.956-2.5 2.262 0 2.479-.28 1.741-2.25-1.631-4.352-2.174-13.965-.878-15.527.699-.842 1.326-4.981 1.455-9.602.125-4.466.284-10.037.354-12.379.07-2.341.473-4.044.894-3.783.422.26.552-1.874.288-4.743-.263-2.869-.166-4.924.216-4.567 1.022.955 3.474 15.92 2.868 17.5-.286.743-.071 1.351.476 1.351 1.206 0 .975-12.967-.266-14.976-.474-.767-.947-4.573-1.05-8.459-.104-3.886-.516-7.831-.915-8.767-.4-.936-.361-2.286.086-3 .549-.876 1.047-.159 1.533 2.202.395 1.925 1.425 5.75 2.288 8.5l1.568 5-.619-6.5c-.602-6.328-.777-9.149-1.211-19.5l-.209-5-6.743-.259c-7.251-.279-58.266-4.311-85.243-6.737-9.075-.817-22.8-1.921-30.5-2.455-14.628-1.015-39.595-2.912-74.813-5.685-12.097-.952-21.172-1.267-21.672-.751-1.666 1.719-2.364 34.416-.968 45.367 1.391 10.92 2.21 11.022 3.475.432.388-3.252 1.257-8.387 1.931-11.412l1.225-5.5.712 5c1.363 9.58 1.835 11.479 2.72 10.932.489-.302.922-3.561.96-7.241.079-7.518 1.661-13.326 1.959-7.191.161 3.299.221 3.356 1.046 1 1.234-3.522.323 25.714-.919 29.5l-.984 3-.227-3c-.312-4.129-1.718 6.292-1.846 13.688-.088 5.065-.321 5.671-2.124 5.535-1.245-.094-1.827-.667-1.511-1.49.314-.819.07-1.063-.63-.63-.704.435-.869.263-.429-.448.769-1.245-.127-1.454-5.093-1.185l-3.187.172.373-14.821.373-14.821-.937 14.5c-1.096 16.955-1.108 17-4.403 17-1.392 0-2.531.45-2.531 1s-1.998 1-4.441 1c-2.443 0-4.693.407-5 .905-.318.515 1.182.671 3.48.363 5.171-.694 6.798 1.259 6.373 7.649-.26 3.893-.201 4.069.391 1.17.609-2.983.861-3.213 2.004-1.828 1.628 1.972-.132 5.331-3.214 6.137-2.627.687-2.986.206-1.674-2.245.595-1.111 1.081-2.923 1.081-4.026 0-2.244-2.174-4.104-2.756-2.358-.205.616-1.057.858-1.892.538-1.233-.473-1.268-.743-.186-1.429 1.022-.647.924-.849-.416-.861-1.909-.016-2.094 1.016-1.084 6.063.535 2.679.795 2.958 1.332 1.429.62-1.768.706-1.747 1.243.305.502 1.921.211 2.178-2.255 1.99-2.951-.225-4.502-3.349-2.927-5.897.416-.673.52-1.838.232-2.59-.729-1.898-3.291.287-3.291 2.807 0 1.033-.502 1.878-1.117 1.878-.651 0-.917-1.041-.638-2.5.263-1.375.09-2.5-.384-2.5-1.689 0-.828-2.001.889-2.063 1.324-.048 1.195-.287-.532-.98-2.211-.888-2.276-1.281-2.072-12.494.127-6.97.548-10.974 1.059-10.062.466.834 1.508 1.263 2.314.953 1.547-.593 1.115-4.697-.743-7.06-1.449-1.844-.116-3.082 2.734-2.537l2.557.489-.471 11.627c-.408 10.091-.363 10.57.343 3.627 1.372-13.507 1.48-16.013.741-17.209-.392-.634-.255-1.435.304-1.781.559-.345 1.016-1.413 1.016-2.372 0-.959 1.287-3.52 2.86-5.691 2.397-3.307 2.958-5.268 3.461-12.092l.6-8.145-3.069-1.271-3.068-1.271.666-10.584c1.664-26.412 2.366-31.154 5.153-34.808 1.445-1.895 2.238-3.783 1.762-4.196-.476-.413-7.165-6.082-14.865-12.597a7124.338 7124.338 0 01-19.641-16.67c-4.52-3.864-5.762-4.507-6.25-3.236M446 108.962c-6.109 10.29-11.102 17.655-11.939 17.612-1.844-.095-10.055 14.185-9.381 16.316.445 1.41.361 1.424-.68.11-1.017-1.284-1.105-1.24-.606.302.391 1.207.201 1.566-.575 1.086-.781-.483-.944-.157-.5 1 .387 1.008.255 1.467-.319 1.112-.574-.355-.706.104-.319 1.112.483 1.256.304 1.497-.666.898-.937-.58-1.087-.436-.515.49.535.866.418 1.068-.345.595-.635-.392-1.155-.236-1.155.346s.45 1.059 1 1.059 1 .705 1 1.567c0 1.085-.585 1.382-1.9.965-2.791-.886-34.75 12.525-32.649 13.7 1.095.613 5.414-.666 14.099-4.174 13.5-5.454 14.959-5.827 14.108-3.609-.34.887.229 1.698 1.468 2.091 2.749.873 3.413-.062 2.096-2.952-1.231-2.701.812-4.52 2.56-2.279.725.931 3.218 7.266 3.218 8.178 0 .104-1.687.252-3.748.33-2.191.082-4.248.825-4.952 1.787-.662.906-1.888 1.384-2.725 1.063-.901-.346-2.124.279-3.003 1.534-1.239 1.769-1.738 1.906-3.028.836-1.291-1.072-1.544-.998-1.544.449 0 1.325-.56 1.59-2.386 1.132-1.519-.381-2.841-.049-3.641.914-.69.832-2.028 1.268-2.973.968-3.455-1.096-4.101 1.589-2.917 12.119 1.43 12.715 1.763 14.381 2.869 14.381 1.019 0 1.693-1.83 2.565-6.97.636-3.748 1.153-4.693 2.067-3.78.678.679 2.951 17.559 3.967 29.468.642 7.515.856 8.134 2.51 7.25 3.172-1.698 4.204-1.175 3.517 1.782-.474 2.04-.377 2.363.376 1.25.771-1.139 1.019-.565 1.031 2.384.008 2.136.536 5.622 1.172 7.747.992 3.31.911 4.136-.565 5.767-1.012 1.119-1.318 2.153-.743 2.509.539.333 1.208.04 1.487-.651.33-.82.534-.701.585.342.061 1.233 1.97 1.857 8.329 2.724 13.581 1.853 26.75 2.576 26.75 1.471 0-.643 1.216-.614 3.442.083 2.182.683 3.006 1.355 2.25 1.835-.747.475-.359.764 1.039.774 2.042.014 2.186-.344 1.702-4.235-.291-2.338-2.041-17.473-3.888-33.634-2.12-18.537-3.805-29.659-4.566-30.129-.923-.57-.903-.846.085-1.175.714-.238.96-.964.551-1.626-1.341-2.17-1.359-15.265-.018-13.351 1.022 1.46 5.852 35.868 6.76 48.165.869 11.764 3.001 27.624 3.859 28.706.526.664.663 1.68.306 2.259-.358.579-.367 1.949-.019 3.044.556 1.752 1.521 1.991 8.053 1.991h7.42l-.416-9.25c-.228-5.088-.904-12.271-1.501-15.963-.597-3.693-2.881-20.982-5.076-38.421-2.194-17.438-4.122-31.838-4.284-32-.161-.161-5.672 1.477-12.246 3.641-15.197 5.002-16.053 5.054-13.878.847 1.147-2.218 1.859-2.77 2.414-1.872.433.701 1.295.96 1.916.577.62-.383.899-1.067.619-1.519-.279-.453.419-2.918 1.552-5.478 1.132-2.561 1.883-5.186 1.667-5.832-.215-.647-1.607 1.478-3.092 4.722-2.069 4.518-2.976 5.623-3.876 4.723-.9-.9-.894-1.456.025-2.375 1.473-1.473 1.573-4.509.165-4.978-2.407-.803 2.101-4.067 11.364-8.23 5.406-2.429 10.086-4.674 10.4-4.988.574-.574-1.951-24.499-4.086-38.716l-1.143-7.612-10.5 17.686m-304.624-4.222c-.618.418-1.395 3.991-1.727 7.941l-.604 7.181 5.228.544c2.875.299 7.668.793 10.651 1.096 3.82.389 5.664.174 6.235-.725.622-.981.817-.929.841.223.027 1.333.138 1.333 1 0 .533-.825.976-4.476.985-8.112l.015-6.613-8.75-.696c-4.812-.383-9.65-.899-10.75-1.147-1.1-.249-2.506-.11-3.124.308m25.224 4.84c.294 1.62.083 2.342-.566 1.941-.665-.411-1.034 1.346-1.034 4.92 0 4.275.347 5.559 1.5 5.559.825 0 1.514-.562 1.53-1.25.017-.694.484-.471 1.05.5 1.507 2.587 2.904 2.127 3.038-1l.119-2.75.847 3c.59 2.093.723.807.439-4.252-.484-8.629-.786-9.248-4.516-9.248-2.544 0-2.821.296-2.407 2.58m9.018 5.615c-.734 7.906.245 10.266 2.766 6.667l1.616-2.307v2.263c0 1.957.507 2.256 3.75 2.213 2.063-.028 5.724.183 8.137.468 6.083.72 7.113-.456 7.113-8.121 0-6.829-.778-7.917-2.7-3.777-.896 1.932-.915 3.042-.075 4.388.868 1.389.799 2.114-.299 3.157-2.521 2.395-4.919 1.911-4.996-1.007-.063-2.373-.157-2.437-.93-.639-.772 1.797-.867 1.732-.93-.643-.064-2.411 2.071-4.462 4.18-4.016.412.088.75-.343.75-.958 0-.624-.882-.886-2-.593-1.483.388-2 .03-2-1.384 0-1.048-.45-1.906-1-1.906s-1.007.563-1.015 1.25c-.011.833-.339.75-.985-.25-.709-1.097-.973-.342-.985 2.809-.009 2.708-.399 4.072-1.048 3.67-.569-.351-.906-2.289-.75-4.307.281-3.643.254-3.67-3.825-3.902l-4.108-.233-.666 7.158m25.327-3.445c-.962 11.082-.526 13.741 2.305 14.066 2.607.3 2.757.092 2.886-4 .075-2.374.331-3.303.57-2.066.827 4.297 2.294 2.219 2.294-3.25 0-5.444-.03-5.5-3-5.5-1.696 0-3.031.543-3.07 1.25-.039.688-.457.35-.93-.75-.824-1.918-.867-1.908-1.055.25m9.055 4.145c0 2.588.54 5.245 1.2 5.905.933.933.933 1.2 0 1.2-.66 0-1.2.9-1.2 2s.45 2 1 2 1.007-.562 1.015-1.25c.011-.833.339-.75.985.25 1.272 1.969 1.287-.114.025-3.435-.718-1.887-.652-2.569.25-2.58.784-.01.685-.365-.275-.985-1.282-.828-1.246-.972.25-.985 1.108-.009 1.75.744 1.75 2.056 0 3.062 3.969 6.691 4.022 3.679.012-.687.902-2.375 1.978-3.75s1.966-3.504 1.978-4.731c.023-2.367-.909-2.753-8.728-3.612l-4.25-.467v4.705m45.48 3.013c.579 2.638.349 2.971-2.479 3.592-2.876.631-3.091.963-2.768 4.269.321 3.297.627 3.605 3.808 3.835 1.902.137 5.154.514 7.226.837 3.707.579 3.763.538 3.531-2.508-.134-1.762-1.004-3.508-2.017-4.05-.98-.524-1.781-1.414-1.781-1.977 0-.563.412-.77.915-.459.503.311 1.104 0 1.337-.691.573-1.703-.286-4.756-1.337-4.756-.469 0-.593.675-.277 1.5.317.825.078 1.5-.531 1.5s-1.107-.702-1.107-1.559-.45-1.281-1-.941c-.55.34-1 .141-1-.441s-.711-1.059-1.579-1.059c-1.224 0-1.436.655-.941 2.908m-208.228.754C44.282 120.86 50.311 132 53.928 132c4.071 0 6.55-7.709 3.547-11.027-1.712-1.892-7.078-2.581-10.223-1.311m73.748.511c0 .378 1.013.883 2.25 1.121l2.25.434-2.25.136c-2.504.151-2.855 1.131-1.05 2.936.933.933.796 1.2-.617 1.2-1.396 0-1.677.521-1.213 2.25.331 1.238.685 6.75.786 12.25l.182 10 .581-8c.723-9.957 1.268-10.885 5.957-10.137 1.993.318 7.224.836 11.624 1.152 6.907.495 22.256 1.682 52.5 4.061 4.125.324 9.3.745 11.5.933 2.2.189 7.375.594 11.5.9 19.119 1.419 23.532 1.801 23.999 2.081.275.165 6.126.593 13.001.95 6.875.358 17.9 1.28 24.5 2.05 6.6.769 15.6 1.628 20 1.908s9.35.739 11 1.021c1.65.282 5.25.735 8 1.007 7.004.692 14.264 1.654 19.25 2.551 4.191.754 4.25.725 4.25-2.106 0-1.579-.224-2.871-.498-2.871s-19.062-1.788-41.75-3.973c-22.689-2.185-46.202-4.431-52.252-4.992l-54.375-5.037c-23.857-2.21-45.457-4.222-48-4.472-2.544-.25-7.667-.732-11.384-1.071-3.797-.346-6.506-1.026-6.181-1.552.318-.515 1.074-.629 1.679-.255.708.438.873.087.462-.984-.409-1.067-.133-1.664.771-1.664 3.671 0 1.984-1.842-1.975-2.157-2.473-.196-4.497-.048-4.497.33m161.146 2.972c.254 3.515-.039 4.271-1.923 4.968-2.971 1.099-2.831 2.887.227 2.887 1.348 0 2.81.607 3.25 1.349.44.742 2.875 1.625 5.412 1.962l4.611.613.606-5.795c.333-3.187.911-6.59 1.284-7.563.516-1.343.244-1.684-1.128-1.417-1.097.213-2.29 1.92-3.041 4.351-1.087 3.523-1.247 3.672-1.339 1.25-.058-1.513-.477-2.75-.932-2.75-.455 0-.628 1.356-.384 3.013.36 2.457.144 2.899-1.174 2.393-1.796-.69-2.247-5.897-.599-6.916 1.643-1.016.073-2.49-2.651-2.49-2.334 0-2.496.303-2.219 4.145m91.373 10.824c-.455.736-19.545 14.899-25.85 19.178-.546.371-.039 1.928 1.189 3.654 1.178 1.654 2.191 4.513 2.252 6.353.101 3.106.171 3.029.978-1.081 1.108-5.652 3.307-7.326 3.671-2.796.143 1.773.695 6.708 1.228 10.966 1.04 8.319.184 12.757-2.462 12.757-1.155 0-1.521 1.154-1.51 4.75.025 8.231 2.849 42.449 3.558 43.114.372.35.41-1.839.084-4.864-.327-3.025-.891-11.012-1.254-17.75l-.66-12.25h2.566c2.365 0 2.522.268 2.006 3.445-.825 5.087.511 12.555 2.246 12.555.792 0 1.446.563 1.454 1.25.012.915.247.885.879-.113.475-.75 1.07-.975 1.321-.5.251.475.32.301.152-.387-.175-.72.651-1.25 1.95-1.25 1.588 0 2.254.591 2.254 2 0 1.341-.671 2.005-2.035 2.014-3.273.022-6.536 1.137-6.536 2.233 0 .601 1.427.783 3.5.447 1.925-.313 3.5-.147 3.5.369 0 .515-.675.993-1.5 1.062-.825.069-1.95.238-2.5.375s-1.45.306-2 .375-1 .827-1 1.684.45 1.281 1 .941c.55-.34 1-.141 1 .441s-.45 1.059-1 1.059c-1.703 0-1.232 10.974.5 11.638.825.317 1.5 1.004 1.5 1.528s-.45.674-1 .334-1-.178-1 .359c0 2.251 7.078 5.394 10.971 4.872 3.47-.466 3.882-.278 4.31 1.961.473 2.471.462 2.475-5.654 1.82-3.37-.361-6.952-.891-7.961-1.178-1.51-.43-1.775-.035-1.5 2.235.184 1.516-.164 2.924-.773 3.129-1.17.395-2.369-6.905-2.384-14.521-.008-3.586-.307-4.262-1.759-3.962-.962.199-1.694 1.093-1.625 1.987.068.895.451 5.554.851 10.355.712 8.541.682 8.718-1.374 8.18-1.156-.302-2.102-.142-2.102.357 0 .498.9.906 2 .906 1.587 0 2.003.671 2.014 3.25.021 5.038 1.055 7.75 2.956 7.75 1.481 0 1.666-.735 1.256-5-.421-4.378-.247-5.009 1.397-5.07 1.759-.066 1.751-.13-.123-1.017-2.288-1.082 1.279-.709 13.425 1.404 8.509 1.48 8.758 1.759 9.585 10.72.555 6.008.799 6.552 3.026 6.737 2.47.204 2.703-2.501.961-11.156-.342-1.701.1-1.826 4.582-1.295l4.96.587-.582-8.205c-.918-12.947-.805-12.705-5.909-12.705-4.256 0-6.027-1.506-5.464-4.646.344-1.919-.146-3.354-1.143-3.354-.582 0-.781.45-.441 1s.172 1-.374 1c-1.395 0-1.92-2.294-2.71-11.838-.379-4.587-1.243-8.856-1.92-9.488-.971-.907-.953-1.361.085-2.161 1.084-.836 1.066-3.633-.103-16.013-.78-8.25-1.431-15.338-1.448-15.75-.045-1.123-1.703-.913-5.58.707-1.918.801-3.816 1.514-4.218 1.585-.403.07-1.294.595-1.982 1.165-.687.571-1.25.703-1.25.293s-.675-.185-1.5.5c-1.265 1.05-1.5.854-1.5-1.255 0-3.182.996-3.961 9.317-7.287 4.32-1.726 6.468-3.073 5.864-3.677-.604-.604-3.627.17-8.253 2.114-7.99 3.357-9.406 3.308-6.099-.213 1.194-1.271 2.171-3.033 2.171-3.915 0-2.479 1.119-4.812 2.036-4.245 1.667 1.03 2.041-1.588.454-3.175-1.324-1.323-1.384-1.799-.314-2.477 1.048-.664 1.056-.843.039-.855-.975-.011-1.027-.498-.215-2.015.854-1.596.76-2-.465-2-2.673 0-1.656-1.554 1.171-1.788 1.488-.123 3.153-.671 3.7-1.218 1.615-1.615 2.592-1.147 2.624 1.256.025 1.841.198 1.965.947.684 1.072-1.832.104-19.934-1.066-19.934-.436 0-1.062.436-1.392.969M0 187.374v5.234l7.194 5.446c3.957 2.995 10.145 7.856 13.75 10.801l6.556 5.354 1.608-5.307c2.537-8.372 4.196-7.65 3.759 1.635-.597 12.664 1.649 10.629 3.033-2.748.643-6.209 1.41-12.933 1.706-14.943l.537-3.653-6.821-1.548c-3.752-.852-8.734-1.853-11.072-2.224-2.337-.372-4.25-.991-4.25-1.376 0-.384-1.35-.5-3-.258s-3.004.051-3.008-.424c-.004-.474-2.254-.944-5-1.043L0 182.139v5.235M202.12 200.5c.153 3.796.634 5.5 1.551 5.5.731 0 1.329.45 1.329 1s-.562.887-1.25.75c-.748-.15-1.376 1.054-1.563 3-.246 2.544.08 3.284 1.5 3.407 7.008.604 7.313.547 7.313-1.389 0-2.103 2.101-1.966 2.817.184.243.729-.019 1.041-.582.693-.564-.348-1.275.016-1.579.81-.345.899.269 1.704 1.629 2.135 4.069 1.292-2.003 2.632-7.048 1.556l-4.374-.933.397 5.835c.391 5.736 2.105 9.462 3.856 8.38.505-.312.44-1.389-.148-2.489-.818-1.527-.712-1.939.497-1.939.844 0 1.553.563 1.575 1.25.022.688.735-.032 1.584-1.599l1.543-2.848 1.917 2.056c1.054 1.132 1.916 2.976 1.916 4.099 0 1.589.61 2.016 2.75 1.926 1.692-.071 2.077-.292 1-.573-1.045-.273-1.75-1.411-1.75-2.825 0-2.681 1.509-4.09 2.559-2.391.383.621.129 1.48-.566 1.909-2.481 1.534 2.252 2.81 5.007 1.35 1.508-.799 1.905-1.358 1-1.41-1.01-.057-.847-.365.5-.944 1.71-.735 1.746-.87.25-.93-1.006-.04-1.716-.814-1.671-1.82.05-1.113.268-1.28.597-.458.395.984.849 1.018 1.905.141 1.104-.917 1.595-.601 2.414 1.554l1.029 2.705 1.917-2.346c1.499-1.834 2.184-2.083 3.141-1.143.857.843 1.784.904 3.092.204 1.027-.55 2.277-.746 2.778-.437.5.309 1.195.102 1.543-.461.398-.645 1.211-.446 2.193.536 1.415 1.415 1.362 1.773-.564 3.822-2.663 2.836-2.707 4.019-.124 3.343 2.109-.551 2.749.709.931 1.833-.588.363-2.899.837-5.135 1.052-4.298.414-6.711 2.52-6.764 5.905-.03 1.941.592 1.997 20.988 1.898 11.56-.057 21.26-.345 21.556-.641.296-.296.103-2.05-.429-3.897-.966-3.357-.967-3.357-1.057-.488-.076 2.437-.318 2.684-1.59 1.628-.825-.685-1.5-1.815-1.5-2.511 0-.697-.77-1.204-1.712-1.128-.99.08-1.863-.704-2.07-1.861-.198-1.1-1.547-2.993-3-4.206-1.452-1.213-2.331-2.515-1.953-2.892.378-.378 1.301-.177 2.053.447 1.585 1.315 2.77.543 2.049-1.336-.58-1.51 5.984-2.437 9.761-1.377 2.354.659 2.355.665.122.764-1.238.055-2.25.55-2.25 1.1s-1.125 1-2.5 1-2.5.477-2.5 1.059.453.779 1.007.437c.554-.343 1.276.078 1.605.935.329.857.953 1.338 1.388 1.069.435-.269 1.065.227 1.401 1.102.472 1.229 1.741 1.512 5.594 1.244 3.338-.232 5.143.067 5.463.904.345.899-.949 1.25-4.606 1.25-4.786 0-5.05.133-4.482 2.25.331 1.238.609 2.845.616 3.572.015 1.375 14.671.765 16.204-.674.692-.649-.853-28.487-1.717-30.961-.252-.723-.919-1.029-1.482-.681-.563.348-.717 1.128-.343 1.733.432.7.097.877-.919.487-.88-.337-1.798-.076-2.039.58-.335.909-.736.916-1.68.029-.969-.911-.54-1.526 1.968-2.824 1.764-.912 2.985-1.882 2.712-2.154-.564-.564-7.176 2.702-10.19 5.033-1.112.86-1.445 1.561-.75 1.578.688.018 1.25.486 1.25 1.04 0 .598-.814.5-2-.24-2.805-1.752-2.837-1.713 6-7.268 4.375-2.75 7.964-5.338 7.977-5.75.013-.412-2.614-.75-5.837-.75-3.224 0-8.061-.262-10.75-.582-3.251-.388-4.435-.262-3.531.376.747.527 1.536 3.152 1.753 5.832.217 2.681.131 4.312-.192 3.624-.956-2.038-2.157-1.435-2.88 1.448-.508 2.021-.892 2.35-1.534 1.312-.963-1.558-3.131-1.871-17.832-2.573-6.462-.308-10.105-.134-9.734.466.326.527.135 1.241-.424 1.587-.56.347-1.016-.281-1.016-1.4 0-1.387-.472-1.846-1.493-1.454-1.028.394-1.314 1.396-.919 3.218.445 2.053.335 2.31-.492 1.146-.586-.825-1.072-2.287-1.081-3.25-.008-.963-.353-1.751-.765-1.752-.412-.001-.844-1.351-.96-3-.262-3.749 2.383-4.148 3.299-.498.518 2.062 1.232 2.5 4.078 2.5 1.898 0 3.199-.408 2.891-.906-.308-.498-1.46-.671-2.559-.383-1.66.434-1.994.036-1.967-2.344.027-2.459.205-2.641 1.25-1.278.67.874 2.456 1.824 3.968 2.112 2.371.45 2.75.196 2.75-1.84 0-2.095.478-2.372 4.25-2.461 8.121-.19 9.858-1.681 2.25-1.93-3.85-.127-11.444-.378-16.875-.559-5.431-.18-10.119-.571-10.417-.869-.298-.298-4.066-.542-8.375-.542H211l.1 3.25c.091 2.988.155 3.049.792.76.792-2.843 2.56-1.172 2.635 2.49.074 3.66 1.793 5.328 2.566 2.49.66-2.422.699-2.401 1.422.78.408 1.798 2.035 4.356 3.614 5.685 1.579 1.329 2.871 2.857 2.871 3.397 0 .54.511 1.152 1.136 1.36.815.272.76.982-.194 2.51l-1.331 2.131-1.117-2.177c-.624-1.215-.728-2.442-.235-2.779 1.004-.686-4.344-6.397-5.991-6.397-.593 0-2.358-1.141-3.923-2.535-1.565-1.394-3.278-2.639-3.806-2.765-.529-.127-.836-1.963-.683-4.081.324-4.5-3.348-6.935-4.164-2.761-.409 2.089-.423 2.086-.556-.108-.307-5.068-2.228-1.972-2.016 3.25M0 199.427c0 2.422.513 3.56 1.75 3.884 1.606.419 1.6.467-.073.573-2.689.171-1.665 3.397 1.328 4.185 2.134.561 2.242.763.751 1.398-.96.408-1.499 1.14-1.198 1.626.3.486-.077.645-.839.353-.836-.321-1.386.123-1.386 1.117 0 1.4.952 1.588 6.305 1.247 9.492-.604 9.949 4.043.487 4.952-2.799.269-5.568 1.067-6.154 1.773C-.715 222.567.159 235.432 2 235.686c11.03 1.517 16.065 2.656 14.907 3.372-1.615.997-1.693.921 4.593 4.481 2.75 1.558 6.884 4.101 9.188 5.652 4.679 3.15 5.13 2.914 6.836-3.593.797-3.037 1.576-3.985 3.5-4.261 1.362-.195 3.739-.866 5.282-1.49l2.806-1.136-3.168-3.269c-1.743-1.798-2.923-3.667-2.622-4.153.832-1.347-.479-2.834-4.165-4.723-3.622-1.857-5.135-1.623-2.681.414 2.929 2.431 1.901 4.266-1.426 2.546-1.623-.839-3.627-1.526-4.453-1.526-3.676 0-6.73-2.333-6.139-4.688.441-1.758.156-2.318-1.189-2.338-.973-.015-.08-.802 1.984-1.75l3.753-1.724-8.919-7.399C11.031 202.587 2.112 196.1.75 196.035c-.413-.019-.75 1.507-.75 3.392m75.823 3.616c-1.993.469-2.263 1.066-1.979 4.363.22 2.56-.029 3.598-.758 3.147-.668-.413-1.056.218-1.007 1.638.043 1.27.291 1.792.549 1.16.34-.829 1.292-.739 3.422.324 3.051 1.522 3.68 2.756 1.95 3.825-.55.34-1 1.322-1 2.181 0 1.315.253 1.354 1.587.247 1.042-.865 1.455-2.445 1.202-4.607-.211-1.809.088-3.486.664-3.726.576-.241.286-.473-.644-.516-2.431-.114-2.972-1.521-1.785-4.643.991-2.605 1.103-2.644 2.419-.845.759 1.038 1.168 2.229.909 2.648-.258.419.457.761 1.589.761 1.348 0 2.059-.649 2.059-1.878 0-1.033 1.013-2.584 2.25-3.447 2.149-1.499 1.996-1.56-3.434-1.372-3.127.108-6.724.442-7.993.74m227.185 8.931c-1.129.714-1.463 2.797-1.371 8.564.131 8.193 1.233 10.645 3.821 8.497.848-.704 1.542-.855 1.542-.336 0 .519 2.29 1.048 5.089 1.176l5.089.232-2.133-2.289c-1.173-1.259-1.66-2.446-1.082-2.639.577-.192.807-.742.511-1.221-.296-.479-1.311-.581-2.256-.227-1.497.561-1.543.428-.355-1.033.75-.922 1.834-1.386 2.408-1.031.65.402.842-.127.509-1.4-1.215-4.645.961-3.718 4.227 1.802 1.921 3.246 4.082 5.908 4.802 5.916.72.008 1.031.465.691 1.015-.34.55-.168 1 .382 1 1.799 0 2.457-2.278.981-3.402-.793-.604-2.999-4.225-4.903-8.046-3.317-6.661-5.96-9.412-5.96-6.203 0 2.646-4.215 3.212-5.828.784-1.51-2.275-3.737-2.694-6.164-1.159m-42.01 1.276c-.001.688-1.413 1.349-3.137 1.471-4.217.296-4.286.486-1.65 4.568 2.472 3.828 6.971 6.666 7.596 4.791.198-.594 1.897-1.08 3.776-1.08 5.378 0 4.069-5.224-1.833-7.317-.962-.341-1.757-1.197-1.765-1.902-.011-.91-.328-.847-1.095.219-.91 1.266-.991 1.227-.516-.25.31-.963.127-1.75-.405-1.75-.533 0-.97.563-.971 1.25m-125.962 19.707c-3.74 2.365-1.122 8.941 3.586 9.011 1.669.025 2.253.834 2.734 3.782.456 2.789 1.308 4.07 3.328 5 3.16 1.455 9.652 1.749 7.42.336-.919-.583-1.122-1.516-.595-2.735.765-1.768.82-1.77 1.23-.043.284 1.192 1.169 1.704 2.596 1.5 2.482-.353 2.522-4.138.072-6.887-.774-.868-1.407-2.036-1.407-2.595 0-2.002-3.939-4.526-7.427-4.76-1.953-.13-4.379-.986-5.391-1.901-2.059-1.864-3.971-2.084-6.146-.708M483.5 248c.34.55 2.054 1.007 3.809 1.015 1.755.009 3.804.404 4.553.879 1.714 1.085 3.28 9.223 2.059 10.698-.497.601-.746 1.276-.553 1.5.193.224.632 1.582.975 3.016.563 2.355.382 2.562-1.86 2.134-1.365-.262-2.483-.8-2.483-1.198 0-.398-1.125-1.236-2.5-1.862-1.375-.627-2.5-1.883-2.5-2.791 0-1.335-.683-1.542-3.552-1.076-2.576.418-3.705.179-4.107-.869-.386-1.005-2.142-1.446-5.757-1.446-3.026 0-6.014-.614-7.143-1.468-2.871-2.172-3.448-1.878-3.371 1.718.061 2.789.202 2.966.997 1.25.663-1.432.765-.823.359 2.147-.697 5.097-.626 5.141 8.86 5.534 8.487.352 10.676 1.819 2.714 1.819-5.75 0-6.676 1.595-1.491 2.568 1.929.362 4.517 1.427 5.75 2.367 1.235.942 6.056 2.279 10.737 2.977 4.673.697 8.873 1.789 9.333 2.427.47.652.585-.592.261-2.839-.316-2.2-1.333-9.738-2.259-16.75L494.647 247h-5.883c-3.667 0-5.649.377-5.264 1m-64.362 44.61c.172 1.039-.016 2.412-.417 3.05-.485.773 1.692 2.065 6.525 3.87 3.99 1.491 12.11 5.131 18.045 8.09 5.935 2.959 11.545 5.38 12.467 5.38.921 0 10.958 3.6 22.303 8s20.922 8 21.283 8c.361 0 .656-1.575.656-3.5 0-2.833-.381-3.5-2-3.5-1.1 0-2-.483-2-1.073 0-.591-.788-.92-1.75-.732-.962.188-2.553-.342-3.535-1.177-.982-.835-3.232-1.583-5-1.663-3.939-.177-6.433-.74-7.353-1.659-.382-.383-1.52-.696-2.529-.696-1.008 0-1.833-.675-1.833-1.5s-.45-1.556-1-1.625c-.55-.069-1.45-.238-2-.375s-1.645-.306-2.433-.375c-.788-.069-1.737-1.084-2.109-2.257-.532-1.675-.864-1.836-1.552-.75-.694 1.096-.879 1.02-.891-.368-.008-.962-.635-1.75-1.393-1.75-.757 0-1.954-.695-2.66-1.546-.705-.85-1.829-1.335-2.497-1.079-.668.256-3.566-.623-6.439-1.954-5.611-2.6-7.51-3.013-6.526-1.421.34.55-.069 1-.91 1-1.014 0-1.313-.56-.889-1.664.411-1.071.246-1.422-.462-.984-.605.374-1.413.175-1.795-.442-.5-.81-.91-.774-1.467.128-.594.961-1.551.792-4.125-.727-1.844-1.088-4.081-1.806-4.973-1.596-.989.233-1.829-.416-2.156-1.667-.361-1.378-1.357-2.048-3.048-2.048-1.381 0-3.262-.288-4.18-.64-1.243-.477-1.589-.159-1.357 1.25" fill="#d3d3d3" fill-rule="evenodd"/></svg>