<svg xmlns="http://www.w3.org/2000/svg" width="500" height="500"><path d="M222.75 28.08c-2.227 1.297-2.26 2.92-.059 2.92 1.478 0 1.447.191-.25 1.515-1.844 1.44-1.803 1.484.809.892 1.721-.39 2.75-.209 2.75.485 0 .609.873 1.108 1.941 1.108s2.222.455 2.566 1.011c.619 1.003-8.332.784-10.152-.248-1.355-.767-8.355.361-8.355 1.346 0 .49-.505.891-1.122.891-.776 0-.738-.464.122-1.5 1.084-1.306.445-1.5-4.937-1.5-3.866 0-5.95-.375-5.563-1 1.037-1.678-1.082-1.116-3.773 1-1.398 1.1-3.398 2-4.444 2-3.163 0-5.324 2.231-4.64 4.791.724 2.713 3.005 2.357 2.528-.395-.304-1.758-.206-1.777 1.349-.262.922.899 1.745 2.811 1.829 4.25.15 2.602 1.059 3.383 2.056 1.769 1.342-2.171 12.241 1.157 13.148 4.015.809 2.548.173 3.119-3.261 2.923a145.43 145.43 0 00-4.522-.189c-2.666-.045-3.193-1.886-.579-2.02 1.866-.096 1.733-.243-.691-.765-8.485-1.829-12.831 1.924-6 5.182 2.174 1.036 3.5 1.255 3.5.578 0-.607.739-.808 1.664-.453.915.352 3.052.821 4.75 1.043 1.697.222 5.336.74 8.086 1.151l5 .747-3.5.686c-3.099.607-2.864.701 2.05.817 3.053.073 6.002-.32 6.554-.872.673-.673 2.143.566 4.45 3.75 4.044 5.581 5.292 8.254 3.855 8.254-.565 0-.761.43-.436.956s1.304.683 2.175.349c1.346-.517 1.409-.281.421 1.567-1.275 2.382-2.015 1.987-5.384-2.872l-1.734-2.5-.589 2.239c-.324 1.231-.988 1.992-1.476 1.691-.487-.302-.886-.098-.886.452s.45 1.278 1 1.618c.55.34 1 .086 1-.563 0-.875.348-.893 1.342-.068.738.612 1.638.818 2 .456.362-.362.644.654.626 2.258-.03 2.785-.098 2.829-1.504.971-1.139-1.507-1.741-1.677-2.664-.754s-.753 1.525.754 2.664c1.759 1.331 1.777 1.475.196 1.504-1.073.02-1.75.806-1.75 2.032 0 1.321-.667 2-1.965 2-2.009 0-4.473 3.229-3.333 4.369 1.41 1.41 3.3.491 3.328-1.619.029-2.085.11-2.115 1.104-.404.769 1.324.761 2.159-.03 2.95-1.76 1.76-1.463 6.247.315 4.771 1.12-.93 1.628-.806 2.407.586.727 1.299.572 2.067-.59 2.917-1.334.975-1.088 1.225 1.593 1.618 1.921.282 3.171.032 3.171-.634 0-.605 1.575-3.491 3.5-6.414 1.925-2.923 3.5-5.684 3.5-6.136 0-.451 1.956-2.833 4.348-5.294 2.391-2.46 4.606-5.149 4.923-5.974.317-.826 2.298-1.957 4.403-2.515l3.826-1.014-4.281-.104c-4.347-.105-4.546-.293-5.651-5.339-.582-2.657-.52-2.702 2.167-1.557 1.521.648 3.483 2.046 4.361 3.107 1.409 1.703 1.669 1.741 2.212.325.388-1.011 1.236-1.368 2.291-.963 1.161.446 1.532.211 1.21-.767-.255-.775-1.693-1.554-3.195-1.731-1.503-.177-2.978-.962-3.278-1.744-.3-.783-.897-1.205-1.327-.94-.43.266-1.025-.447-1.322-1.584-.395-1.508-.154-1.92.886-1.52.785.301 1.427.111 1.427-.421 0-.533.675-.969 1.5-.969s1.5.477 1.5 1.059-.412.805-.915.494c-.503-.311-1.1-.008-1.327.674-.65 1.949 4.404 4.235 5.405 2.445.484-.863 1.76-1.218 3.312-.922 2.682.513 3.743-2.072 1.275-3.109-.895-.376-.753-.839.5-1.633.962-.609 1.757-1.873 1.765-2.808.013-1.421.166-1.462.934-.248.506.799.624 1.924.263 2.5-1.457 2.328-.823 3.356 2.812 4.556 2.758.91 3.649 1.681 3.224 2.789-.432 1.125-.211 1.3.832.662 3.502-2.144 3.706-2.945 1.049-4.127-2.59-1.152-2.57-1.173 1.371-1.43 5.883-.384 10.81.111 12.146 1.219.771.64 1.399.615 1.824-.072.933-1.511 4.606-1.29 6.46.388.873.79 2.895 1.673 4.492 1.963 1.598.29 3.371.993 3.941 1.563.571.571 1.848 1.037 2.84 1.037.991 0 3.428 1.8 5.416 4 1.988 2.2 4.236 4 4.997 4 .761 0 1.384.627 1.384 1.393 0 1.758 2.718 2.872 3.585 1.47.38-.616 2.462.729 5.032 3.252 4.763 4.674 6.113 7.81 1.633 3.793-8.189-7.343-9.926-7.3-3.75.092 1.925 2.304 3.5 3.592 3.5 2.862 0-.729 1.165.388 2.589 2.484 1.424 2.095 2.372 4.026 2.107 4.291-.526.526-9.444-8.288-14.132-13.968-1.615-1.956-3.307-3.328-3.76-3.048-.9.556-10.097-3.656-10.637-4.871-.184-.412-.998-.75-1.809-.75-.812 0-1.198.45-.858 1 1.535 2.484-6.441-1.32-9.355-4.461-1.295-1.396-2.983-2.539-3.75-2.539-.767 0-1.395-.45-1.395-1s-1.827-1-4.059-1c-2.565 0-3.822.384-3.414 1.044.355.574.073 1.733-.627 2.576-1.03 1.241-1.026 1.684.021 2.331 2.318 1.433-.517 2.028-3.785.794-2.778-1.048-3.697-.897-7.647 1.261-2.469 1.349-4.489 2.819-4.489 3.267 0 .448-.562.742-1.25.652-3.499-.454-4.074.06-2.282 2.04 1.72 1.9 1.691 2.005-.845 3.161-1.447.659-2.623 2.02-2.623 3.035 0 1.079-.723 1.845-1.75 1.854-1.459.013-1.507.169-.29.939 1.27.803 1.254 1.16-.123 2.735-.871.996-2.145 3.611-2.831 5.811-1.355 4.344-3.407 7.321-2.84 4.118.24-1.353-.363-1.994-2.145-2.279-1.959-.313-2.221-.139-1.25.832 1.528 1.528 1.594 6.279.126 9.022-.816 1.525-.801 2.248.058 2.779.696.43.901 1.752.513 3.301-.908 3.615.171 6.298 2.531 6.298 2.382 0 2.681-1.287.406-1.748-1.382-.28-1.322-.671.447-2.914 1.358-1.722 1.839-3.373 1.435-4.919-.477-1.825-.274-2.199.942-1.732 1.133.434 1.737-.261 2.243-2.582l.693-3.176 1.15 2.5c2.088 4.542 3.501 5.344 3.968 2.255l.417-2.755.15 2.882c.083 1.585-.787 4.398-1.932 6.25-2.517 4.073-1.716 4.383 1.598.618 1.939-2.203 2.427-2.402 2.452-1 .018.963.471 1.75 1.007 1.75.634 0 .634-.898 0-2.565-1.414-3.721-1.139-5.236.546-3.008.802 1.06 1.615 1.735 1.807 1.5 2.852-3.497 6.428-9.856 5.883-10.46-.391-.433-.079-.421.694.027.891.518 1.167.432.755-.235-.702-1.137 1.76-2.505 2.742-1.523.942.941.697 4.443-.268 3.847-.477-.295-1.621.298-2.544 1.317-1.565 1.73-1.565 1.896-.006 2.494.918.352 2.287.128 3.043-.499 1.034-.858 1.373-.845 1.373.054 0 .657.762 1.949 1.694 2.872 1.587 1.573 1.651 1.565 1.012-.123-.387-1.019-.28-1.553.244-1.229.51.315 1.292-.039 1.739-.787.446-.747 1.711-1.902 2.811-2.564 1.769-1.066 1.639-1.136-1.123-.61-4.314.822-4.862-1.336-1.193-4.697 1.612-1.477 3.13-2.714 3.373-2.748.244-.035.78-.07 1.193-.078.413-.009.075-.452-.75-.985-1.333-.862-1.333-.982 0-1.084 1.756-.135-2.682-1.67-5.25-1.816-.962-.055-1.655.237-1.538.65.271.957-2.476 5.25-3.359 5.25-.366 0-.412-.97-.102-2.157.516-1.97.282-2.1-2.715-1.5-2.838.567-3.112.454-2.035-.844 1.012-1.22.962-1.499-.272-1.499-1.718 0-3.055-2.663-2.107-4.197.391-.632-.144-.772-1.413-.369-2.158.684-3.751-.749-2.707-2.437.409-.662 1.305-.635 2.642.08 1.596.854 2.442.703 4.014-.72 1.954-1.768 1.979-1.746 1.336 1.17-.497 2.256-.399 2.611.41 1.473.883-1.244 1.068-1.115 1.081.75.021 3.071 1.528 2.86 1.786-.25.113-1.375-.238-2.5-.782-2.5s-.877-.562-.739-1.25c.176-.881-1.004-1.156-4-.933-3.327.249-4.25-.022-4.25-1.25 0-.971.879-1.567 2.312-1.567 2.953 0 10.332-3.542 11.417-5.48.456-.815 2.391-1.72 4.3-2.01 3.385-.516 3.407-.498.882.73-1.425.693-2.435 1.716-2.246 2.272.189.557-1.459 1.793-3.661 2.747-4.917 2.13-5.093 2.792-.548 2.054 1.901-.308 4.264-.211 5.25.217.987.428 2.582.68 3.544.561 4.17-.516 1.26 1.875-3.607 2.964-4.466 1-5.34 1.55-5.25 3.306.125 2.456 7.491 4.35 8.857 2.277.481-.73.971-.332 1.367 1.112.679 2.478 1.938 2.941 2.721 1 .301-.747.536-.545.583.5.043.963.689 1.75 1.435 1.75 1.734 0 10.967 7.01 10.219 7.759-.31.309-1.388-.185-2.398-1.098-4.081-3.694-9.185-1.293-19.324 9.089-1.746 1.787-3.89 3.286-4.764 3.329-1.357.067-1.37.164-.089.662.825.321 2.048 1.298 2.718 2.171.67.874 1.267 1.138 1.327.588.519-4.794 2.955-8.794 2.955-4.854 0 3.421-3.212 9.1-3.953 6.989-.977-2.786-5.047 5.327-5.047 10.06 0 2.158-.653 4.796-1.451 5.864-1.423 1.905-1.48 1.899-3.068-.326-.89-1.246-2.059-1.994-2.598-1.661-.617.382-.547 1.128.191 2.017.644.776.75 1.411.237 1.411-.514 0-1.958-1.384-3.209-3.077-2.074-2.804-2.13-3.182-.637-4.274 1.268-.927 1.422-1.756.684-3.673l-.953-2.476-1.093 2.5c-.967 2.212-1.079 1.923-.969-2.5.163-6.576.036-7.5-1.03-7.5-.492 0-.77 3.487-.615 7.75.253 7.009.159 7.468-.987 4.799-1.203-2.803-1.267-2.64-1.267 3.259 0 3.415-.557 7.556-1.239 9.201-1.446 3.492-4.285 4.114-3.809.834.172-1.186-.219-2.339-.869-2.561-.669-.228-1.374.817-1.625 2.407-.243 1.546-.282.561-.085-2.189.231-3.244.957-5.439 2.065-6.25.94-.687 1.392-1.25 1.005-1.25-.388 0-.024-1.63.809-3.622 1.669-3.995 2.097-10.381.592-8.828-.507.522-1.874 3.8-3.039 7.283-1.165 3.484-3 7.281-4.079 8.439-1.078 1.158-1.964 3.033-1.967 4.167-.009 3.299-2 9.561-3.041 9.561-.524 0-.953-1.125-.953-2.5s.45-2.5 1-2.5c1.257 0 1.321-6.269.078-7.55-.565-.581-.456-2.308.279-4.45 1.285-3.742 1.085-7-.43-7-.51 0-.927.9-.927 2s-.502 1.887-1.116 1.75c-.613-.138-1.826 1.648-2.695 3.968-.868 2.32-2.196 4.454-2.949 4.744-1.871.717-.798-2.662 2.687-8.462 3.294-5.483 4.287-8 3.158-8-.468 0-1.099.947-1.402 2.105-.868 3.318-3.233 1.713-2.858-1.939.19-1.844-.137-3.166-.781-3.166-1.706 0-2.229 2.382-1.149 5.225 1.19 3.128.479 4.045-2.075 2.679-1.322-.708-1.721-1.642-1.285-3.013.346-1.093.088-2.64-.575-3.439-.969-1.168-.887-1.452.418-1.452 1.81 0 2.017-.828.718-2.878-.48-.758-1.373-1.069-1.984-.691-.612.378-1.112.21-1.112-.372s.626-1.059 1.391-1.059c.845 0 1.551-1.377 1.8-3.513.56-4.797-.469-6.014-2.055-2.431-.72 1.625-1.72 2.701-2.222 2.391-.503-.311-.921.924-.929 2.744-.011 2.236-.294 2.869-.875 1.952-.561-.885-1.645-1.108-3.117-.641-1.624.516-1.898.938-.979 1.506 1.54.953.547 4.118-1.177 3.751-.67-.142-1.35.641-1.51 1.741-.16 1.1-.037 1.438.273.752.359-.793 1.501-1.014 3.127-.606 2.355.591 2.51.434 1.914-1.94-.357-1.421-.194-2.865.362-3.208 1.205-.744 1.638.436 2.487 6.771.351 2.623 1.018 4.535 1.481 4.249.463-.286.607.38.319 1.481-.304 1.163-.031 2.001.652 2.001.647 0 .898-.45.558-1-.373-.603.893-.975 3.191-.937 3.116.052 3.425.219 1.698.917-1.161.469-2.384 1.565-2.719 2.436-.334.871-1.098 1.584-1.698 1.584-.599 0-.812-.45-.472-1 .34-.55.046-1-.653-1-.7 0-2.324-1.237-3.609-2.75-2.145-2.524-2.286-2.565-1.72-.5.619 2.259-.844 3.15-2.028 1.234-1.552-2.511-2.359.429-.829 3.019 1.403 2.375 1.47 3.134.393 4.431-.714.861-.884 1.566-.377 1.566 1.042 0 3.227 5.312 4.936 12 .907 3.55 1.174 3.919 1.268 1.75.083-1.914.651-2.745 1.869-2.735 1.252.011 1.394.242.497.811-.898.57-1.099 2.761-.708 7.735.385 4.909.245 6.5-.482 5.439-.864-1.263-1.045-1.183-1.144.5-.148 2.51-1.79-3.563-2.434-9-.54-4.563-3.545-13.697-4.806-14.612-.464-.336-.826-.892-.805-1.234.112-1.788-2.19-6.564-3.385-7.022-.758-.291-1.881-2.398-2.496-4.681-1.43-5.308-2.357-4.554-1.128.917.744 3.31.651 4.132-.465 4.132-.882 0-1.394-1.102-1.394-3 0-1.65-.338-3-.75-2.999-.412 0-.783 2.261-.824 5.023-.042 2.911.267 4.488.735 3.75.445-.701.822-.824.839-.274.017.55.467.325 1-.5.844-1.306.971-1.289.985.125.031 3.345-1.26 7.823-2.105 7.301-.482-.298-.765.496-.629 1.766.186 1.724-.257 2.308-1.751 2.308-1.388 0-2.091-.766-2.297-2.5-.514-4.337-2.409-8.285-3.291-6.857-.618.999-1.201.905-2.68-.433-1.039-.94-2.203-1.71-2.586-1.71-1.228 0 2.221 5.735 3.817 6.347 2.596.997 1.707 2.805-1.213 2.469-1.876-.215-2.843-.966-3.043-2.362-.161-1.125-1.37-3.3-2.687-4.832-1.317-1.533-2.16-3.397-1.873-4.144.286-.746.083-2.138-.451-3.092-1.104-1.973-4.196-2.782-4.196-1.098 0 .767-.373.739-1.2-.088-.66-.66-2.085-1.2-3.167-1.2-1.081 0-1.673-.293-1.315-.651.358-.358-.13-1.244-1.084-1.968-1.614-1.226-1.592-1.32.316-1.349 1.128-.018 2.59.508 3.25 1.168 1.211 1.211 1.749-.929 1.37-5.45-.203-2.426.697-2.189 3.05.803 1.104 1.404 2.246 2.315 2.537 2.024.29-.291-.07-1.249-.8-2.129-1.11-1.337-1.092-1.75.107-2.509 1.192-.754 1.15-.911-.247-.924-.925-.008-1.964-.902-2.308-1.987-.525-1.654-.93-1.782-2.512-.794-1.52.949-2.25.847-3.77-.528-2.327-2.107-4.227-2.199-4.227-.206 0 .825-.562 1.541-1.25 1.59-.687.05.229.517 2.036 1.038 3.423.987 3.525 2.872.155 2.872-1.068 0-1.941.675-1.941 1.5s-.675 1.5-1.5 1.5c-2.241 0-1.846 1.022 1.75 4.52 1.787 1.739 4.061 4.362 5.052 5.828 1.435 2.123 2.172 2.468 3.619 1.694 2.138-1.144 3.169-.441 2.378 1.622-.329.857.821 2.896 2.765 4.902 3.344 3.45 3.397 4.222.172 2.514-.955-.506-5.786-2.822-10.736-5.147-4.95-2.325-9.36-4.836-9.8-5.58-1.116-1.889-4.07-1.759-3.338.147.698 1.819-.502 1.96-2.204.258-.988-.988-1.43-.938-2.168.25-.578.932-.56 1.618.048 1.827.536.185.698.783.36 1.33-.338.547.341 1.665 1.51 2.483 1.169.819 1.864 1.912 1.544 2.429-.319.517.461 1.358 1.734 1.868 2.325.933 2.295.954-2.055 1.455-1.806.208-7.39-4.986-9.223-8.58-2.46-4.823-2.408-5.576.225-3.225 2.122 1.896 2.129 1.893 1.448-.595-.658-2.401-.623-2.423.867-.559.854 1.068 1.552 1.405 1.552.75v-1.941c0-.412-.562-.755-1.25-.761-.729-.006-1.115-.969-.927-2.31.178-1.264-.272-3.02-1-3.901-1.042-1.262-1.057-1.693-.073-2.024.688-.231 1.264-1.171 1.282-2.087.029-1.536.133-1.533 1.329.04 1.213 1.596 1.405 1.598 2.971.032 1.183-1.183 3.281-1.651 7.145-1.595 6.013.086 6.269-.887.832-3.159-4.528-1.892-5.888-1.887-4.309.015 1.053 1.268.84 1.5-1.378 1.5-1.442 0-2.622-.45-2.622-1s.477-1 1.059-1 .793-.43.468-.956-1.206-.721-1.958-.432c-.752.288-1.644.075-1.983-.473-.34-.549.984-1.577 2.942-2.285 3.823-1.383 4.7-5.571 1.472-7.034-.877-.397.022-.709 2.167-.75 2.016-.038 3.931.492 4.254 1.18.324.688.424.013.222-1.5-.476-3.582.377-3.424 2.911.539 1.13 1.766 2.817 3.149 3.75 3.072 2.22-.182 2.184 1.237-.054 2.099-1.501.579-1.537.791-.25 1.491 1.744.949 8.196.176 7.53-.902-.734-1.188 6.706-1.098 8.146.097.728.605 1.331 2.056 1.339 3.226.012 1.591.235 1.782.883.758.701-1.106 1.078-1.01 1.955.5.597 1.029 1.1 1.454 1.117.946.016-.509 1.097.078 2.402 1.304 2.015 1.892 2.462 1.994 2.969.674.328-.855.256-1.554-.16-1.554-.415 0-.827-.948-.914-2.106-.152-2.024-.083-2.037 1.787-.345 1.07.969 1.939 1.354 1.931.856-.026-1.525-1.388-3.015-3.457-3.782-1.653-.612-1.734-.881-.5-1.661 1.827-1.156 1.818-1.158-5.714-1.401-9.226-.298-13.485-2.649-18.365-10.14-2.737-4.2-4.582-6.115-5.538-5.748-1.001.384-1.247.064-.815-1.062.34-.886 1.046-1.611 1.57-1.611s.705-.399.404-.887c-.301-.487.082-1.409.852-2.048 1.51-1.254 3.169.169 2.14 1.835-.306.495 1.017.9 2.941.9 1.923 0 3.497-.387 3.497-.861 0-1.025-4.057-4.939-5.119-4.939-.408 0-.919-1.013-1.136-2.25-.414-2.37-.473-2.295-2.373 3-.486 1.356-.83 1.019-1.528-1.5-.858-3.095-3.827-4.634-3.859-2-.012.915-.247.885-.879-.113-.475-.75-1.031-.932-1.235-.405-.204.527-1.565 1.251-3.024 1.608-2.492.61-2.587.507-1.555-1.679.604-1.28 1.686-2.403 2.403-2.494.718-.092 1.98-.242 2.805-.334.825-.091 1.5-.713 1.5-1.382 0-1.308-4.206-.171-8.75 2.364-2.597 1.449-3.066 3.435-.586 2.484 1.119-.43 1.427-.256.941.531-.398.644-1.383 1.17-2.189 1.17-.831 0-1.728 1.308-2.07 3.018-.365 1.828-2.061 4.172-4.302 5.947-6.084 4.819-9.576 10.572-8.222 13.545.93 2.041.749 3.116-1.048 6.228-2.71 4.692-6.538 8.471-7.044 6.953-.602-1.808-6.102 3.122-7.404 6.639-.646 1.743-1.208 4.358-1.25 5.811-.042 1.452-.945 4.582-2.008 6.956-1.062 2.373-1.668 4.741-1.345 5.263.322.522.114.657-.464.3-.577-.357-1.337.1-1.688 1.016-.351.915-.228 1.925.273 2.244.504.32.139 2.015-.814 3.782-1.351 2.505-1.993 2.94-2.949 2-.96-.944-1.083-.635-.571 1.439.399 1.617.191 2.926-.536 3.375-.851.526-.985.096-.474-1.516.459-1.447.347-2.023-.316-1.614-.567.35-1.339 2.044-1.717 3.763-.377 1.719-1.757 5.426-3.067 8.238-1.309 2.812-2.351 5.788-2.316 6.613.035.825.818-.161 1.74-2.192 1.506-3.316 1.86-3.554 3.486-2.346 1 .744 1.378 1.613.844 1.943-.532.328-.744 1.446-.473 2.483.271 1.038.004 2.189-.594 2.558-1.292.799-1.476 6.554-.209 6.554.482 0 1.437-.675 2.122-1.5 2.534-3.053 2.615-1.284.334 7.25-1.287 4.813-2.627 10.1-2.977 11.75-.351 1.65-1.109 3.597-1.683 4.326-.75.952-.654 1.568.34 2.183 2.058 1.272 1.68 6.983-.814 12.289-1.21 2.574-2.2 5.102-2.2 5.619 0 .516-1.054 1.767-2.342 2.78-3.571 2.809-7.847 10.133-7.166 12.277.324 1.022.121 2.147-.451 2.501-.573.354-1.041 1.516-1.041 2.584S96.387 239 95.639 239c-.895 0-1.206-.816-.906-2.383.775-4.054-1.59-3.999-3.434.08-.946 2.092-2.354 4.573-3.129 5.514-.839 1.019-1.22 2.993-.943 4.883.357 2.43.055 3.281-1.288 3.632-5.023 1.314-11.317 24.371-9.059 33.184 1.223 4.772 1.149 5.243-1.802 11.427-1.693 3.547-3.078 7.06-3.079 7.806 0 .746-1.35 4.21-3 7.697-1.649 3.487-2.999 7.846-2.999 9.688 0 1.841-.708 6.401-1.573 10.132-1.446 6.235-1.437 7.595.117 16.812.93 5.515 1.766 13.628 1.857 18.028.091 4.4.734 9.022 1.429 10.271 1.582 2.845.997 3.801-3.171 5.177C57.883 383.184 52.735 396 58.613 396c1.601 0 1.033 6.54-.734 8.45-2.633 2.846 2.598 9.55 7.451 9.55 2.692 0 2.705.032 1.196 2.95-2.342 4.528-1.911 5.777 3.281 9.507 2.644 1.899 5.418 4.594 6.164 5.988 2.349 4.39 8.47 6.553 18.595 6.57 6.137.011 8.464.319 7.434.985-1.232.796-1.128.972.583.985 3.153.023 3.749 1.267 1.249 2.605-1.912 1.023-.809 1.297 7.719 1.918 13.633.993 13.881 1.023 15.195 1.835 1.52.939 32.652 5.623 37.504 5.642 2.063.008 3.75.465 3.75 1.015 0 .55 1.872 1 4.16 1 2.288 0 10.95.717 19.25 1.594 8.387.886 17.826 1.322 21.25.981 3.927-.39 6.287-.234 6.509.432.496 1.487 46.379 1.655 61.331.226 19.545-1.869 47.062-1.72 51.844.281 5.694 2.383 40.02-3.498 38.143-6.535-.344-.556-1.044-.753-1.556-.436-.512.316-.931.181-.931-.301s2.475-1.657 5.5-2.61c4.095-1.291 5.5-2.213 5.5-3.61 0-1.031.788-2.081 1.75-2.333 1.667-.435 1.667-.463 0-.573-3.253-.216-1.777-1.856 2.25-2.5 3.856-.617 4-.777 4-4.454 0-2.815.679-4.448 2.595-6.238 3.949-3.689 5.21-6.863 6.356-16.003.577-4.603 1.049-8.718 1.049-9.145 0-.427 10.913-.805 24.25-.839 16.166-.043 23.469-.377 21.908-1.002-1.289-.517-2.751-.686-3.25-.378-.5.309-.908-.11-.908-.93 0-1.035-.841-1.395-2.75-1.179-1.512.171-3.2.041-3.75-.289-1.794-1.078-4.5-1.17-4.5-.153 0 .547.337 1.027.75 1.068 6.692.663 7.664 1.926 1.482 1.926-6.657 0-10.232-1.389-10.232-3.975 0-1.114-.45-2.025-1-2.025s-1 .9-1 2c0 2.39-.015 2.392-3.59.538-3.233-1.678-4.269-1.278-2.43.938.895 1.078.929 1.524.118 1.524-.631 0-1.599-1.187-2.151-2.639-.552-1.451-1.271-2.37-1.599-2.043-.327.328-.285 1.403.093 2.389 1.003 2.613.636 2.793-5.691 2.793-5.618 0-6.577-.648-4.893-3.304.806-1.27-.039-9.046-1.341-12.343-.655-1.658 4.373-7.853 6.374-7.853.526 0 2.341-1.165 4.033-2.589 2.492-2.096 3.077-2.273 3.077-.93 0 2.048 4.114 1.714 4.808-.39.304-.921-.047-1.213-1.012-.843-2.343.899-4.092-.739-3.336-3.123.371-1.169 1.207-2.11 1.857-2.092 1.652.047 5.683 3.548 5.683 4.936 0 .632.481.852 1.068.489.588-.363.816-1.319.506-2.125-.418-1.09-.053-1.302 1.432-.831 2.323.737 2.395.473.815-2.995-.951-2.087-1.772-2.531-4.25-2.297-2.881.272-3.109.042-3.679-3.71l-.608-4-.142 4.917c-.189 6.54-1.552 4.936-1.839-2.165-.172-4.243-.964-6.795-3.248-10.47-3.846-6.187-6.522-16.041-5.085-18.726 1.578-2.948 1.316-6.38-.435-5.708-2.788 1.07-4.749-12.026-2.634-17.588.496-1.304.561-4.235.144-6.514-.594-3.248-.435-4.266.734-4.715 1.826-.7 1.016-15.863-1.316-24.623-.792-2.974-1.451-7.208-1.466-9.408-.025-3.703-2.249-15.031-3.634-18.5-.329-.825-.756-3.525-.948-6-.193-2.475-.612-7.803-.933-11.84-.397-5.006-.248-7.133.468-6.691.578.357 1.05-.067 1.05-.942s.972-1.951 2.16-2.391c2.005-.741 2.028-.85.319-1.506-1.325-.508-2.449.053-3.999 1.998-2.471 3.098-2.762 2.809-4.465-4.449-.687-2.927-2.303-6.376-3.591-7.664-1.289-1.289-2.609-3.619-2.935-5.179l-.593-2.836 1.584 2.75c.871 1.512 1.83 2.75 2.131 2.75 1.546 0-5.972-24.566-8.633-28.21-1.088-1.49-1.992-3.74-2.009-5-.017-1.259-1.138-4.54-2.491-7.29-1.353-2.75-2.464-5.81-2.469-6.8-.005-.989-.726-3.187-1.603-4.882-1.121-2.167-1.266-3.287-.489-3.767 2.045-1.263-.214-12.427-3.243-16.027-1.478-1.756-2.462-3.558-2.186-4.004.275-.446-.172-1.068-.994-1.384-.822-.315-1.494-1.23-1.494-2.034 0-.803-1.956-2.78-4.346-4.393-4.148-2.8-4.398-2.848-5.516-1.059-.643 1.031-.93 3.106-.638 4.612.293 1.506-1.28-.862-3.495-5.262-2.216-4.4-5.621-9.913-7.567-12.25-4.506-5.413-3.464-5.435 2.45-.053 5.543 5.044 7.213 7.675 6.461 10.178-.363 1.208-.173 1.634.532 1.198.71-.438.876-.041.473 1.125-.533 1.541-.391 1.512.98-.198 1.734-2.165 2.288-10.5.697-10.5-.532 0-.715-.787-.405-1.75.437-1.359.342-1.441-.422-.368-.791 1.11-1.12.96-1.667-.764-.374-1.181-1.019-1.938-1.433-1.682-.413.255-1.341-1.876-2.062-4.736-1.933-7.673-4.072-11.303-12.048-20.45C324.181 68.436 320 65.869 320 69.5c0 2.169-2.306 1.842-3.792-.539-.7-1.121-1.643-1.81-2.095-1.531-.452.28-1.9-.663-3.218-2.094l-2.395-2.602 3.75.678c2.101.38 3.75.275 3.75-.239 0-.505-1.883-1.219-4.185-1.587-2.442-.39-4.756-1.484-5.557-2.627-.754-1.078-2.23-1.959-3.28-1.959-1.049 0-2.389-.9-2.978-2-.589-1.1-1.56-2-2.158-2-.713 0-.658.516.158 1.5.785.946.852 1.5.181 1.5-.584 0-1.346-.457-1.691-1.016-.346-.559-1.047-.758-1.559-.441-1.885 1.165-2.946-.671-1.324-2.292 1.495-1.496 1.465-1.68-.39-2.367-2.511-.928-3.575-2.545-2.226-3.379.564-.348 1.728.071 2.588.931.86.86 1.982 1.564 2.492 1.564.511 0 .929.675.929 1.5s.45 1.5 1 1.5 1-.702 1-1.559c0-.868.482-1.261 1.087-.887.598.369.865 1.521.594 2.559-.272 1.038-.086 1.887.413 1.887.498 0 .906-.482.906-1.071 0-1.481 2.622-3.973 3.381-3.215.628.628.99-1.182.694-3.464-.09-.687.307-1.25.881-1.25.574 0 1.044-.483 1.044-1.073 0-.591-.788-.917-1.75-.726-1.113.222-1.646 1.098-1.465 2.407.421 3.048-2.594 2.877-9.785-.556-.825-.393-1.944-1.691-2.487-2.884-1.011-2.221-3.513-3.011-3.513-1.109 0 .582.45.781 1 .441 1.964-1.214.951.702-1.854 3.508-2.536 2.536-3.022 2.688-4.353 1.356-2.712-2.712-9.064-4.397-10.793-2.864-1.978 1.755-9 3.069-9 1.685 0-.571.788-1.28 1.75-1.576.962-.295.513-.391-.999-.212-3.862.457-6.989-1.957-4.48-3.459.974-.584 1.54-1.435 1.257-1.893-1.03-1.667 4.837-2.266 6.043-.617 1.514 2.07 5.584 2.139 4.794.08-.332-.865.129-1.76 1.098-2.132 1.996-.766 4.287 1.042 2.624 2.07-1.851 1.145-1.207 2.558 1.663 3.649 1.512.575 2.925.976 3.138.89.214-.086.769.445 1.235 1.18.672 1.059.85 1.068.862.041.008-.711.66-1.161 1.449-1 .789.162 1.352-.156 1.25-.706-.101-.55-.978-.964-1.948-.919-1.266.058-1.6-.434-1.184-1.744.432-1.361.181-1.672-.987-1.224-.861.331-1.565.103-1.565-.506S279.298 36 278.441 36c-.87 0-1.262-.481-.885-1.09.769-1.245 7.217-.332 9.194 1.302.688.568 1.25.683 1.25.255 0-.427.788-.096 1.75.736 2.605 2.253 7.48 3.615 9.75 2.723 1.894-.744 1.881-.789-.25-.856-1.238-.038-2.25-.511-2.25-1.051 0-.539-1.238-1.277-2.75-1.638s-3.312-1.1-4-1.641c-.687-.542-1.25-.674-1.25-.294 0 .379-1.386-.296-3.079-1.502-2.575-1.834-3.483-2.009-5.547-1.068-3.596 1.638-6.437 1.452-5.736-.376.692-1.802-5.095-2.188-6.192-.413-.369.598-1.522.865-2.56.593-1.039-.271-1.637-.085-1.328.413.308.499-.367.907-1.499.907-1.132 0-2.059.45-2.059 1s-.45 1-1 1c-1.845 0-1.023-2.181 1.023-2.716 1.915-.501 1.929-.602.25-1.875-2.345-1.78-3.273-1.741-3.273.135 0 .849-1.125 2.757-2.5 4.239-1.909 2.059-2.5 2.305-2.5 1.04 0-.911.563-1.883 1.25-2.161.688-.277.35-.55-.75-.605-1.1-.056-3.125-1.033-4.5-2.172-2.043-1.693-2.135-1.947-.5-1.392 3.576 1.214 5.5 1.409 5.5.557 0-2.404-6.653-2.674-9.195-.374-2.728 2.469-12.066 2.063-14.772-.643-2.223-2.223-4.575-2.53-7.283-.953m-26.083 11.587c-2.851 2.851 1.578 6.636 6.324 5.404 3.04-.788 7.228-.234 6.547.867-1.076 1.741 2.936 3.92 5.962 3.238 3.531-.796 5.257-7.176 1.942-7.176-1.386 0-1.465.268-.442 1.5.964 1.162.971 1.5.029 1.5-.669 0-1.452-.9-1.739-2-.568-2.171-.753-2.237-7.032-2.504-3.447-.147-4.032.071-3.127 1.162 1.84 2.217-1.878 1.656-4.361-.658-2.298-2.141-3.051-2.385-4.103-1.333m54.306 1.833c-.102.55-.103 2.237-.004 3.75.193 2.924-1.367 3.761-2.331 1.25-.316-.825-1.291-1.5-2.166-1.5-.947 0-1.302.467-.877 1.155.443.715.275.883-.44.44-1.791-1.106-1.363.197.762 2.322 1.054 1.054 2.179 1.654 2.5 1.333.321-.321.583-.032.583.642s.45.948 1 .608c.55-.34 1-.141 1 .441S251.675 53 252.5 53s1.5.45 1.5 1c0 1.42-1.211 1.241-3.777-.557-2.012-1.409-2.223-1.409-2.223 0 0 .856.45 1.557 1 1.557s1 .465 1 1.034-1.238.851-2.75.628c-1.545-.229-2.623-.955-2.459-1.657.177-.76-.313-1.019-1.25-.659-.866.332-1.548.057-1.556-.627-.011-.829-.298-.773-.899.177-.501.79-1.601 1.121-2.537.761-.97-.372-1.4-.225-1.042.354.935 1.513-.463 1.176-2.16-.521-.83-.83-2.723-1.417-4.207-1.304-3.181.243-5.14-.772-5.14-2.662 0-3.356-6.756-2.346-7.631 1.141-.837 3.336.017 3.869 5.808 3.62 4.139-.178 4.812.023 3.875 1.153-.625.752-.779 1.563-.344 1.801.436.238.274.313-.359.166-.634-.146-1.006.49-.827 1.414.179.925.359 1.929.401 2.233.16 1.149 9.333 10.025 9.839 9.519.292-.291-1.335-2.554-3.616-5.028-4.809-5.218-5.088-6.293-1.63-6.293 1.57 0 3.469 1.131 5.047 3.007 2.165 2.573 2.848 2.854 4.734 1.943 1.955-.945 1.99-1.072.313-1.132-1.699-.061-4.497-2.616-4.578-4.18-.018-.336 2.887-.911 6.455-1.276 3.569-.366 7.169-.926 8-1.246 1.061-.407 1.513.061 1.513 1.566 0 2.253.162 2.19 4.535-1.753 2.157-1.946 1.905-6.179-.368-6.179-2.745 0-3.353-1.137-1.401-2.619.953-.725 1.22-1.332.592-1.349-.627-.018-1.428-1.175-1.779-2.573-.351-1.397-1.036-2.295-1.523-1.994-.487.301-1.113-.018-1.392-.709-.278-.691-.589-.806-.691-.256m-81.224 8.899c-.891 1.87-1.925 5.02-2.296 7-.372 1.981-1.076 3.601-1.564 3.601-.489 0-.925.788-.968 1.75-.05 1.113-.268 1.28-.597.458-.821-2.047-3.324.581-3.324 3.491v2.453l2.947-2.326c1.62-1.279 2.768-2.865 2.551-3.525-.476-1.442 3.008-2.725 4.648-1.711.724.447.894.283.449-.435-.392-.635-.184-1.155.463-1.155.699 0 .991.966.719 2.384-.38 1.988-.066 2.362 1.883 2.25 1.286-.074 2.339-.504 2.339-.955.002-1.463 2.808-3.679 4.68-3.694 1.403-.012 1.51-.213.464-.875-.946-.6-1.021-1.067-.25-1.544.609-.376 1.107-1.809 1.107-3.184 0-1.375-.419-2.241-.932-1.924-.512.316-1.6-.379-2.416-1.545l-1.486-2.121-.333 2.354c-.183 1.295-.683 2.231-1.111 2.08-.427-.15-1.876.975-3.218 2.5-1.96 2.228-2.447 2.427-2.472 1.014-.018-.968.868-2.53 1.968-3.472 2.014-1.725 2.862-4.919 1-3.768-.55.34-1-.084-1-.941 0-2.617-1.541-1.745-3.251 1.84m25.743 14.621c.413 1.914 1.147 3.63 1.63 3.813.483.184.878.746.878 1.25 0 1.615-2.631.982-4.5-1.083-.995-1.1-2.896-2-4.222-2-2.003 0-2.298-.36-1.74-2.118.902-2.842-1.559-2.059-2.63.837-.599 1.619-.093 2.837 2.155 5.189 3.041 3.182 4.309 7.476 1.526 5.166-1.013-.84-1.602-.861-2.089-.074-.485.785-1.086.758-2.113-.094-1.86-1.544-3.03-.386-1.488 1.473.906 1.09.908 1.519.009 1.818-.853.285-.796.792.208 1.848 2.129 2.238 2.54 5.744.473 4.029-1.341-1.113-1.589-1.066-1.589.304 0 .955.822 1.622 2 1.622 1.1 0 2 .413 2 .918 0 .505.272 1.628.605 2.496.499 1.3.059 1.469-2.5.957-3.81-.762-3.912.177-.418 3.824 2.579 2.692 5.098 3.884 3.813 1.805-.865-1.4.849-1.251 2.3.2.933.933 1.2.926 1.2-.035 0-.942.495-.971 2.086-.119 2.505 1.341 2.94 1.001 3.454-2.702.397-2.858-.434-3.768-9.04-9.894l-2-1.424 2 .266c1.1.146 2.624.655 3.387 1.131 1.617 1.008 4.395-2.016 6.775-7.374 1.31-2.949 1.672-3.204 2.485-1.75.524.935 1.407 1.701 1.962 1.701.555 0 .731-.45.391-1-.783-1.267.119-1.274 2.461-.021 1.333.714 2.167.571 3.077-.525 1.108-1.335 1.435-1.336 2.899-.011 1.137 1.029 2.511 1.264 4.414.755l2.762-.738-3.105-2.296c-1.708-1.263-3.983-2.362-5.057-2.443-1.073-.08-1.951-.51-1.951-.953 0-.872-4.279-.331-6.052.764-.596.369-.843 1.3-.548 2.069.296.77.101 1.399-.431 1.399-.533 0-.977-1.687-.986-3.75-.013-2.729-.729-4.425-2.63-6.23l-2.613-2.48.752 3.48m138.263 11.062c9.416 12.258 8.736 11.113 10.937 18.418 1.443 4.79 1.871 5.455 2.12 3.299.171-1.485-.166-3.593-.75-4.684-.584-1.091-1.062-3.736-1.062-5.878 0-4.933-4.781-12.431-9.292-14.571-1.781-.845-4.322-2.691-5.647-4.101-5.472-5.825-3.548-1.909 3.694 7.517M308.66 92.413c.895 1.878 2.166 3.207 2.824 2.955 1.987-.763 4.217 2.58 2.452 3.675-1.193.74-1.059 1.269.786 3.119 1.222 1.225 2.559 1.89 2.971 1.478.412-.412.261-1.062-.335-1.444-.61-.391-.775-1.563-.378-2.674.629-1.761.998-1.541 3.354 2 1.456 2.188 3.664 5.279 4.907 6.868 1.594 2.04 1.891 3.021 1.009 3.333-1.953.693-1.472 2.252 1 3.246l2.25.904-2.179.064c-1.198.034-2.773-.506-3.5-1.201-.726-.695-2.896-1.411-4.821-1.592-1.925-.181-3.65-.737-3.833-1.236-.461-1.256-3.167-1.147-3.167.127 0 .714-.601.714-1.934 0-1.064-.569-3.427-1.042-5.25-1.05-1.824-.009-3.991-.452-4.816-.985-1.282-.828-1.246-.972.25-.985.962-.008 1.75-.524 1.75-1.147 0-.743-1.374-.947-4-.595-4.609.618-4.736.463-1.917-2.356 1.146-1.146 1.784-2.383 1.419-2.749-.366-.366-1.355.234-2.199 1.334-1.058 1.38-1.677 1.611-2.001.748-.711-1.896-5.263-1.518-6.027.5-.365.963-1.251 2.345-1.969 3.071-2.096 2.121-1.503 3.667.657 1.713 1.079-.977 2.654-1.511 3.5-1.187 1.637.629 2.136 2.653.654 2.653-1.492 0-1.988 3.862-.641 4.98.699.58 2.115.737 3.147.35 1.612-.605 1.695-.481.592.877-1.06 1.306-.999 1.866.35 3.215 1.238 1.238 1.361 1.962.509 2.989-.856 1.031-.76 1.496.4 1.941.84.322 1.526 1.076 1.526 1.676 0 .599-.422.829-.939.51-.516-.319-1.408.217-1.981 1.191-.909 1.542-1.173 1.577-2.046.271-.819-1.224-1.006-1.086-1.019.75-.008 1.238.424 2.25.96 2.25 1.158 0 .2 5.92-1.258 7.774-.551.701-.727 1.549-.391 1.886.336.336 1.413-.886 2.393-2.716 1.548-2.891 4.683-6.716 11.531-14.066 1.806-1.938 4.75-2.555 4.75-.995 0 1.335 3.692 2.025 4.816.901 1.284-1.284 7.94.987 10.84 3.7 4.009 3.749 5.745 5.012 8.549 6.218 1.796.772 2.795 1.955 2.795 3.309 0 1.16.453 1.827 1.007 1.485.554-.343 1.276.078 1.605.935.329.857 1 1.309 1.493 1.004.492-.304.895.347.895 1.447 0 2.181 1.621 3.756 2.17 2.109.752-2.258 4.878 2.315 5.958 6.604 1.695 6.732 2.297 4.45.805-3.055-1.08-5.431-1.597-6.464-3.013-6.015-3.017.958-8.92-8.097-8.92-13.681 0-2.878 3.258-1.942 4.045 1.161.347 1.372 1.189 2.371 1.869 2.22.782-.174 1.023.397.657 1.552-.319 1.006.076 2.704.879 3.775 1.34 1.789 1.409 1.629.848-1.957-.441-2.823-.289-3.708.546-3.191 1.696 1.048 1.411-.948-.344-2.404-.825-.685-1.5-1.752-1.501-2.372-.001-2.173-5.738-13.146-7.858-15.033-1.178-1.048-2.141-2.51-2.141-3.25 0-.74-.575-1.345-1.277-1.345-1.879 0-7.723-5.633-7.723-7.444 0-.918-.868-1.556-2.116-1.556-1.164 0-4.979-2.25-8.479-5-7.547-5.931-7.858-6.017-5.745-1.587m-24.885 28.603c-1.816 2.627-3.234 3.745-4.25 3.355-.839-.322-1.525-.06-1.525.581s.45.888 1 .548c.55-.34 1-.168 1 .382s-.45 1.278-1 1.618c-.55.34-1.007.029-1.015-.691-.026-2.179-1.95 1.405-1.982 3.691-.016 1.1-1.373 4.651-3.016 7.891-3.342 6.591-3.566 7.609-1.671 7.609.724 0 2.348-1.836 3.609-4.08 1.261-2.244 4.494-5.661 7.184-7.594 3.526-2.533 4.891-4.185 4.891-5.92 0-1.45.584-2.406 1.47-2.406 1.76 0 1.868-7.065.125-8.235-1.675-1.123-1.899-.972-4.82 3.251M134 134c0 .615-.45.84-1 .5-.55-.34-1-.141-1 .441s.675 1.059 1.5 1.059 1.5.38 1.5.845c0 1.229-3.448 4.155-4.896 4.155-.806 0-1.017.787-.606 2.25.519 1.846.425 1.981-.527.75-.987-1.277-1.073-1.232-.577.302.387 1.196.198 1.564-.56 1.095-.704-.435-.869-.263-.429.448.392.635.206 1.155-.413 1.155-1.036 0-.838 1.52.752 5.75.497 1.321-2.279 1.784-2.997.5-.23-.412-.273-.164-.095.552.179.716-.073 1.056-.559.756-1.354-.837-2.167 2.038-3.66 12.942-1.648 12.032-1.721 13.502-.579 11.703.647-1.021 1.124-.928 2.234.437 1.25 1.536 1.212 1.659-.338 1.079-1.893-.71-2.203.019-.89 2.089.557.877 1.758 1.075 3.649.6 2.405-.603 2.722-.453 2.155 1.024-.365.952-.664 2.2-.664 2.772 0 .63-.592.55-1.5-.204-1.978-1.641-1.897-1.054.57 4.141l2.07 4.359-.511-3.772c-.281-2.075-.14-3.544.312-3.264.453.279 1.261-1.217 1.796-3.325.781-3.078.677-4.019-.528-4.779-1.175-.741-1.262-1.392-.402-2.999.837-1.564.761-2.533-.319-4.075-.78-1.113-1.133-2.307-.786-2.655.347-.347.106-.631-.535-.631-.642 0-1.167-.675-1.167-1.5s.257-1.5.571-1.5c1.229 0 3.068 2.584 2.676 3.759-.261.783.579 1.241 2.277 1.241 1.91 0 2.532-.411 2.146-1.417a1.534 1.534 0 01.893-1.969c.79-.303 1.437-1.492 1.437-2.642 0-1.161-.452-1.811-1.016-1.462-.559.346-.758 1.047-.441 1.559.316.512.098.931-.484.931s-1.066-.787-1.074-1.75c-.013-1.468-.166-1.513-.946-.279-.512.809-1.279 1.122-1.706.696-.426-.427-.178-1.145.553-1.596.944-.584 1.003-1.021.204-1.515-.617-.382-.864-1.113-.547-1.625.316-.512.073-.931-.541-.931-1.139 0 1.804-6.191 3.248-6.833.412-.184.698-1.309.634-2.5-.091-1.691-.216-1.783-.573-.417-.639 2.444-2.311 2.191-2.311-.349 0-2.81 2.982-8.957 4.658-9.6 1.556-.597 1.822-5.886.342-6.801-.55-.34-1-.115-1 .5m91.651 33.755c-.372.603.067 3.268.976 5.921.909 2.653 1.703 7.409 1.763 10.569.061 3.159.433 5.747.829 5.75.395.003.477.633.183 1.4-.765 1.994 1.504 9.781 2.645 9.076.524-.324.953-.112.953.47 0 2.019-2.669 1.047-4.011-1.461-.951-1.778-1.661-2.208-2.41-1.459-.75.75-.623 1.34.429 2.005 1.263.798 1.22.946-.277.959-1.421.012-1.639.555-1.109 2.765.884 3.686 1.375 4.097 1.393 1.167.013-1.981.207-2.147 1.076-.917.87 1.23 1.159 1.255 1.606.137.406-1.015.733-1.06 1.279-.176.542.877 1.144.776 2.307-.387.866-.866 2.076-1.574 2.689-1.574.614 0 .983-.787.822-1.75-.203-1.21.263-1.655 1.51-1.444 2.59.44 5.603 3.272 5.041 4.737-.264.687.511 1.943 1.721 2.791 1.495 1.047 2.027 2.201 1.661 3.603-.297 1.135-.132 2.063.367 2.063.888 0 1.367-2.78 1.076-6.25-.097-1.157.564-1.75 1.949-1.75 1.451 0 1.918-.461 1.519-1.5-.316-.825-.139-1.5.393-1.5.533 0 .976.563.984 1.25.011.849.359.768 1.085-.25.806-1.131.92-.648.465 1.969-.375 2.162-.25 3.104.333 2.5.947-.982 1.436-3.03 1.22-5.112-.18-1.74-3.197-2.536-4.745-1.252-1.093.907-1.373.695-1.373-1.042 0-1.199.45-1.903 1-1.563.55.34 1 .093 1-.549 0-.746.903-.941 2.5-.54 1.876.47 2.5.233 2.5-.951 0-.868.445-1.303.989-.967.579.358.747-.134.405-1.191-.439-1.357-.344-1.467.387-.445.677.948 1.175 1.024 1.653.25.376-.609.207-1.107-.375-1.107s-.946-.503-.809-1.117c.138-.615-.538-1.25-1.5-1.412-1.211-.203-1.76.372-1.782 1.867-.029 1.999-.131 2.032-1.347.429-1.214-1.598-1.408-1.531-2.506.88-1.826 4.008-2.349 2.185-1.229-4.293 1.766-10.224.602-18.677-1.392-10.104-.518 2.229-.895 2.698-1.2 1.492-.244-.967.085-3.36.731-5.317.646-1.957.921-3.812.612-4.121-.638-.638-2.224 2.904-3.057 6.827-.329 1.551-1.425 2.857-2.67 3.182-1.164.305-1.815 1.031-1.452 1.62.403.652-.353 1.067-1.944 1.067-2.464 0-2.579.225-2.129 4.141.321 2.793.01 4.607-.955 5.571-1.24 1.241-1.43 1.178-1.43-.472 0-1.046-1.073-2.476-2.384-3.178-1.964-1.051-2.683-2.776-4.074-9.78-2.035-10.248-2.97-13.017-3.891-11.527M213.962 197c-.151.825-.363 2.746-.47 4.268-.193 2.744-1.492 5.206-1.492 2.827 0-.867-.449-.789-1.5.262-2.069 2.069-1.877 2.975.499 2.354 2.867-.75 3.171.483.951 3.851-1.396 2.118-1.939 2.45-1.943 1.188-.004-.963-.425-1.75-.936-1.75-1.706 0-4.071 3.117-4.038 5.321.034 2.179.034 2.179 2-.182 1.082-1.298 1.967-1.806 1.967-1.127 0 .963.333.956 1.524-.032 1.998-1.658 2.451-1.03 1.353 1.875-.598 1.582-1.407 2.156-2.467 1.749-1.009-.387-1.412-.154-1.119.645.253.688 1.078 1.083 1.834.877 6.222-1.69 7.85-.999 5.369 2.28-1.398 1.847-1.47 1.833-2.319-.463l-.877-2.369-1.226 2.291c-.674 1.26-.986 2.917-.693 3.681.294.765.126 1.642-.373 1.95-1.249.772-3.292-3.308-2.582-5.158.359-.936.104-1.338-.673-1.064-.688.243-1.17 1.292-1.071 2.333.1 1.04-.436 2.236-1.189 2.658-.754.422-1.198 1.66-.988 2.751.532 2.762-1.253 2.504-1.842-.266-.321-1.511-.426-1.265-.32.75.088 1.65-.516 3.596-1.341 4.324-1.294 1.143-1.192 1.259.75.844 1.475-.315 2.25-.007 2.25.894 0 .872-.609 1.141-1.664.737-1.119-.43-1.427-.256-.941.531.398.644.295 1.17-.229 1.17s-1.24-.75-1.592-1.667c-.869-2.266-2.34-.571-2.747 3.167-.209 1.921-.825 2.894-1.711 2.705-1.043-.222-1.231.468-.765 2.8.364 1.821.234 2.857-.316 2.517-1.272-.786-2.835 2.374-3.628 7.335-.361 2.258-1.003 3.892-1.427 3.631-.424-.262-1.028.196-1.344 1.018-.315.822-1.231 1.494-2.035 1.494-1.173 0-1.278.641-.531 3.243 1.204 4.2 1.18 6.029-.07 5.257-.906-.56-1.438.774-1.109 2.778.07.428-.487 1.013-1.238 1.302-.888.34-1.238 1.686-1 3.842.232 2.111-.183 3.773-1.144 4.57-.83.689-1.517 2.435-1.528 3.88-.01 1.446-1.585 5.72-3.5 9.498-1.914 3.779-3.513 8.054-3.551 9.5-.064 2.368-.156 2.431-.93.63-.784-1.826-.866-1.839-.93-.158-.038 1.014.818 2.972 1.904 4.352 1.085 1.38 2.248 4.151 2.584 6.157 1.153 6.889 5.578 19.56 9.483 27.149 2.567 4.991 11.676 13.545 16.959 15.927 5.434 2.45 7.349 2.562 9.038.527.705-.85 1.82-1.339 2.477-1.087 1.179.453 6.485-3.775 6.485-5.167 0-1.104-4.112-3.421-4.818-2.715-.343.343.038 1.042.847 1.554 1.063.673 1.112.935.177.946-.711.008-1.161.756-1 1.661.162.906-.209 1.823-.823 2.039-.678.239-1.004-.628-.831-2.209.171-1.557-.294-2.823-1.159-3.155-1.109-.426-1.178-.876-.296-1.938.778-.938.803-1.383.075-1.383-.59 0-1.468.707-1.952 1.571-.791 1.414-1.294 1.391-5.049-.236-5.313-2.301-5.288-3.331.079-3.349 9.801-.031 11.967-3.222 2.436-3.589-4.412-.169-5.898.154-6.629 1.442-.856 1.511-1.079 1.481-2.467-.339-2.023-2.651-1.972-3.56.16-2.874 1.477.475 1.516.394.25-.516-1.128-.812.3-1.083 5.75-1.095 3.988-.008 7.25-.437 7.25-.953s-.787-.919-1.75-.897c-5.418.125-14.881-1.67-15.87-3.011-1.773-2.404.442-4.112 3.811-2.938 1.495.522 3.526.738 4.514.482 1.442-.374 1.364-.489-.396-.582-1.205-.064-2.469-.566-2.809-1.116-.34-.55-1.63-1-2.868-1-1.237 0-3.055-.589-4.038-1.308-1.623-1.186-1.409-1.433 2.309-2.66 2.285-.754 4.097-1.992 4.097-2.799 0-.799-.6-1.217-1.341-.933-1.874.72-4.066-.833-3.186-2.256.401-.649 1.359-.939 2.128-.644 1.598.613 1.775-.257.472-2.316-.634-1.001-.003-2.308 2.154-4.465 3.836-3.836 9.872-7.205 8.273-4.619-.34.55.084 1 .941 1s1.559-.405 1.559-.9c0-3.44 21.97-3.688 23.964-.271.536.919.996 1.221 1.021.671.025-.55.528-.325 1.117.5.868 1.216.982 1.09.601-.664-1.047-4.814 15.351-2.682 20.728 2.695.533.533 1.767.969 2.743.969s2.494 1.391 3.373 3.091c1.518 2.935 1.674 2.998 3.073 1.25 1.35-1.685 1.419-1.545.818 1.659-.362 1.925-.72 3.936-.798 4.468-.077.532 1.34 1.207 3.149 1.5 3.559.576 3.661.697 2.693 3.219-.397 1.033-1.26 1.452-2.229 1.08-.975-.374-1.329-.199-.923.458.571.924-1.401 2.426-3.53 2.689-.385.047-1.271.657-1.969 1.355-1.025 1.025-.603 1.135 2.196.576 1.905-.381 4.065-1.294 4.799-2.028.734-.735 1.733-1.09 2.218-.79.486.3 1.799-.37 2.92-1.491 1.12-1.12 1.586-2.036 1.036-2.036s-1-.702-1-1.559-.45-1.281-1-.941c-.55.34-1 .168-1-.382 0-1.82 1.815-2.16 3.348-.627.83.83 1.991 1.509 2.581 1.509.589 0 .958.338.821.75-.138.413.197.871.743 1.02.546.148 1.075-1.202 1.175-3 .1-1.799-.045-2.712-.323-2.029-.859 2.11-3.304-1.183-2.672-3.599.305-1.166.863-1.929 1.241-1.695.377.233 1.23-.447 1.894-1.512.73-1.168.809-1.935.2-1.935-.554 0-1.008-.337-1.008-.75s1.082-.75 2.405-.75c1.322 0 2.159.396 1.86.88-.299.484.064.677.807.429.768-.256 1.405-2.015 1.477-4.081.069-1.997.645-4.257 1.28-5.022.634-.764.859-1.684.499-2.044-.359-.36-.618-3.128-.575-6.151.087-5.971-1.321-8.291-2.307-3.802-.759 3.455-.937 3.85-3.963 8.791-1.849 3.019-2.454 3.497-2.467 1.95-.009-1.127.524-2.59 1.184-3.25.66-.66.815-1.2.345-1.2s-.148-.788.716-1.75c.863-.962 2.283-4.515 3.155-7.894 1.985-7.7 1.999-9.488.052-6.915-1.305 1.725-1.468 1.749-1.468.219 0-.948.675-1.982 1.5-2.298.825-.317 1.493-1.54 1.485-2.719-.013-1.792-.191-1.897-1.087-.643-.851 1.191-.963 1.01-.545-.877.289-1.308-.159-3.423-.996-4.701-.881-1.344-1.249-3.188-.873-4.373.358-1.127.213-2.049-.323-2.049s-.752-.849-.48-1.887c.271-1.038.004-2.19-.594-2.559-.598-.37-1.087-1.38-1.087-2.246 0-.865-.922-2.373-2.05-3.351-1.267-1.099-1.649-2.025-1-2.426 1.992-1.231 1.118-2.638-.95-1.531-2.194 1.174-2.69.09-.817-1.783.651-.651.872-1.496.49-1.877-.382-.382-1.35.173-2.152 1.233-1.038 1.372-1.467 1.517-1.489.503-.022-.997-.783-.719-2.532.924-1.375 1.292-2.5 1.928-2.5 1.414s1.125-2.148 2.5-3.631c1.375-1.482 2.5-2.94 2.5-3.239 0-1.314-2.347-.355-4.173 1.706-1.807 2.038-1.928 2.062-1.287.25 1.059-2.994 1.281-7.745.466-9.984-.684-1.877-.763-1.857-1.474.383-.518 1.633-.988 1.982-1.516 1.126-.545-.881-.964-.919-1.45-.132-.376.609-.185 1.107.426 1.107.61 0-.132 1.688-1.651 3.75a796.812 796.812 0 00-3.061 4.177c-.165.235-.899-.391-1.63-1.391-1.701-2.326.079-7.005 2.045-5.375.669.556 1.721.7 2.336.32 1.388-.858-3.392-3.481-6.345-3.481-1.623 0-1.819-.267-.886-1.2.66-.66 1.164-2.122 1.121-3.25-.065-1.683-.256-1.566-1.068.654-.544 1.488-1.859 2.98-2.921 3.318-1.063.337-1.932 1.032-1.932 1.545 0 .513-.466.933-1.035.933-.701 0-.713-.603-.035-1.869.55-1.027.678-2.224.285-2.66-.393-.435-.094-.432.665.008.894.518 1.237.372.975-.415-.697-2.089-2.34-1.667-2.675.686-.175 1.238-.893 2.25-1.595 2.25-1.981 0-4.701 3.535-4.041 5.254.326.849.112 1.841-.476 2.204-.587.363-1.068 1.672-1.068 2.91 0 1.237-.661 3.123-1.468 4.191-2.304 3.046-1.785 3.685 1.218 1.501 2.274-1.654 4.02-1.936 7.039-1.137.159.043-.629 1.062-1.75 2.266-1.121 1.203-2.039 2.67-2.039 3.26 0 .589-1.168 2.331-2.596 3.871-2.443 2.635-2.673 2.694-3.911 1.001-1.553-2.124-1.031-3.465 1.039-2.67.807.309 1.468.113 1.468-.437 0-1.399-2.809-2.331-3.527-1.17-1.05 1.699-2.301 1.014-1.781-.975.278-1.062 1.023-1.81 1.657-1.664.633.147.791.071.351-.169-.439-.24-.068-1.552.826-2.917 1.832-2.795 1.332-5.319-1.054-5.319-.874 0-1.331-.419-1.015-.931.317-.512.118-1.213-.441-1.559-1.437-.888-1.264-2.56.234-2.26.772.154 1.13-.611.937-2-.182-1.308.237-2.303 1-2.378.722-.07 2.375-.236 3.673-.368 2.349-.24 4.559-2.467 3.449-3.475-.321-.291-.784.034-1.029.721-.962 2.692-3.521 1.356-2.873-1.5.584-2.575.53-2.63-.851-.864-1.413 1.806-1.528 1.764-2.718-1-1.713-3.978-1.593-3.918-3.832-1.892-2.123 1.922-2.852.752-.806-1.294.933-.933.322-1.182-2.75-1.121-2.173.043-3.413.297-2.756.565.656.267.946 1.131.643 1.921-.303.789-.053 1.435.556 1.435 1.892 0 1.214 1.739-.893 2.29-1.1.287-2 .088-2-.443s-.399-.718-.887-.417c-.487.301-1.483-.171-2.212-1.049-1.123-1.353-1.03-1.814.612-3.014 1.634-1.195 1.744-1.726.704-3.392-.737-1.179-.827-1.975-.225-1.975.554 0 1.008-.527 1.008-1.171s.611-1.882 1.358-2.75c1.583-1.839 3.866-8.189 3.188-8.866-.254-.254-1.205 1.394-2.113 3.662-.907 2.269-2.287 4.125-3.065 4.125-1.211 0-1.207-.323.027-2.25 2.631-4.106 2.459-7.25-.395-7.25-3.255 0-5.923 6.526-3.14 7.68 1.283.531 1.15.695-.61.75-1.238.038-2.25.52-2.25 1.07s-.45 1-1 1-1-1.35-1-3 .477-3 1.059-3 .738-.52.346-1.155c-.443-.715-.275-.883.44-.44 1.456.899 1.364-1.345-.322-7.905-.707-2.75-1.409-4.325-1.561-3.5m21.328 8c.287 1.1.115 2-.384 2-.498 0-.906-.45-.906-1s-.45-1-1-1-1 .675-1 1.5.702 1.5 1.559 1.5 1.279.453.936 1.008c-.72 1.165 1.958 4.206 2.886 3.278.34-.341.619.157.619 1.106 0 .949-.419 1.467-.931 1.151-.512-.317-1.213-.118-1.559.441-.549.889.656 1.424 2.633 1.17 1.217-.156 1.667 3.845.513 4.567-2.294 1.434-3.501 1.034-4.102-1.363-.541-2.155-2.554-2.511-2.554-.452 0 1.868 3.849 5.089 5.38 4.502.892-.343 1.62-.125 1.62.485 0 .609-.45 1.107-1 1.107s-1 .745-1 1.655c0 1.54.127 1.54 1.829 0 1.006-.91 2.264-1.655 2.796-1.655 1.11 0 1.214-3.954.148-5.607-.393-.609-.528-2.579-.3-4.378.44-3.479-1.205-6.015-3.902-6.015-.864 0-1.571-.477-1.571-1.059s.45-.781 1-.441c1.128.697 1.298-.561.393-2.918-.884-2.305-2.72-1.94-2.103.418m185.592 6.715a5.974 5.974 0 000 1.535c.065.412-1.349.75-3.141.75-3.77 0-7.053 3.559-4.269 4.628 1.139.437 1.371 1.504.927 4.275-.803 5.026 1.008 6.412 7.569 5.797 2.779-.261 5.3-.076 5.602.413 1.039 1.682 3.39.958 2.804-.863-.475-1.477-.394-1.516.516-.25.594.825 1.087 1.05 1.097.5.009-.55 1.591-1.112 3.515-1.249 1.924-.138 3.498.2 3.498.75 0 .549.436.999.969.999 2.215 0-.33-2.822-3.033-3.363-1.765-.353-2.936-1.219-2.936-2.171 0-.871-.47-1.294-1.044-.939-.574.355-1.718.086-2.542-.599-1.135-.942-1.78-.962-2.656-.086-1.419 1.419-5.758 1.538-5.758.158 0-.55-.702-1-1.559-1s-1.295-.427-.972-.95c.722-1.168-2.5-2.948-4.22-2.331-.813.291-1.03-.126-.621-1.193.347-.902 1.234-1.409 1.972-1.126.739.283 3.033-.07 5.099-.785 3.643-1.262 3.689-1.337 1.529-2.493-1.226-.656-2.281-.839-2.346-.407m-94.864 26.274c-1.398.864-.468 7.011 1.061 7.011.507 0 .921-.477.921-1.059s.468-.77 1.041-.416c1.115.69.271 4.6-1.199 5.548-1.001.646-1.849 4.07-2.027 8.177-.066 1.512-.501 2.75-.967 2.75-.466 0-.848.466-.848 1.035 0 .712.608.71 1.945-.006 1.425-.762 2.027-2.311 2.25-5.785l.305-4.744 3.102 3c1.706 1.65 2.951 3.45 2.766 4-.589 1.756 1.373 3.813 3.031 3.177 2.141-.822 2.042-2.657-.149-2.756-1.045-.047-1.247-.282-.5-.583.688-.278 1.25-1.19 1.25-2.027 0-1.806-4.53-7.447-5.335-6.643-.573.573-.659-.26-.743-7.168-.05-4.113-2.537-5.592-5.904-3.511m-155.47 23.876c.627 2.249.459 2.346-3.444 1.974-2.713-.259-4.104.009-4.104.791 0 .721-.879.971-2.25.64-1.844-.444-2.025-.301-1 .794 1.922 2.054 1.694 6.55-.25 4.936-1.243-1.031-1.498-.924-1.486.628.038 5.211 2.813 8.143 6.404 6.765 1.278-.49.947-6.393-.358-6.393-.393 0-.514-1.361-.27-3.025.661-4.502 2.776-2.097 3.776 4.292l.818 5.233.651-5c.358-2.75.721-4.607.808-4.128.086.48.843.304 1.681-.392 2.409-1.999 2.789-.544 1.609 6.153-.604 3.43-.893 6.44-.643 6.69.723.724 2.585-4.892 1.958-5.907-.311-.504.06-.916.826-.916 1.4 0 1.698-3.361.413-4.646-.378-.378-.687-1.712-.687-2.965s-1.15-3.54-2.556-5.083c-2.459-2.699-2.531-2.716-1.896-.441m-47.199 3.551c.097 3.16-.296 5.066-1.099 5.334-.687.229-1.25 1.054-1.25 1.833 0 .78-.643 1.417-1.428 1.417-2.32 0-4.185 10.105-2.58 13.98 1.129 2.727 1.068 3.255-.507 4.407-.985.72-1.475 1.82-1.089 2.444 1.142 1.848-.457 8.169-2.066 8.169-.797 0-1.189.419-.873.931.317.512.118 1.213-.441 1.559-.559.345-1.016 1.45-1.016 2.455 0 1.004-.672 3.115-1.494 4.691-1.719 3.295-1.963 6.364-.506 6.364.55 0 1-.889 1-1.975 0-1.694.356-1.84 2.5-1.025 2.912 1.107 3.248.336.75-1.721-1.667-1.374-1.667-1.416 0-.892 1.37.431 1.753-.039 1.765-2.168.012-2.123.228-2.39.985-1.219.533.825 1.026 6 1.094 11.5.11 8.827.232 9.472 1.036 5.5.501-2.475.713-5.308.472-6.295-.64-2.622 1.253-14.825 2.541-16.377.606-.73.81-1.328.454-1.328-.357 0 .073-1.395.955-3.1 2.269-4.388 2.924-13.02.929-12.254-.814.312-1.481.07-1.481-.539s.348-1.107.773-1.107c.425 0 .882-3.038 1.016-6.75s.483-8.337.777-10.277c.294-1.94.106-4.64-.417-6-.79-2.055-.926-1.641-.8 2.443M334 297.259c0 1.243.9 2.822 2 3.509 1.1.687 2 2.006 2 2.932 0 1.459-.195 1.425-1.468-.259-.808-1.067-1.483-1.453-1.5-.858-.018.596.305 1.421.718 1.834.413.412.75 2.883.75 5.489 0 3.458.72 5.827 2.66 8.759 1.463 2.211 2.901 5.103 3.196 6.427.296 1.324.337-.137.093-3.247l-.444-5.655 2.412 1.139c1.327.626 2.195 1.49 1.929 1.921-.267.43-.933.505-1.481.166-.616-.38-.877.858-.681 3.234.226 2.749.745 3.783 1.816 3.617 1.148-.178 1.547.972 1.699 4.899.109 2.822.672 5.605 1.25 6.183.578.578 1.051 1.732 1.051 2.565 0 2.521-3.298-1.378-3.479-4.113-.086-1.3-1.105-2.731-2.341-3.29-1.203-.544-2.022-1.444-1.819-2 .493-1.352-1.185-4.511-2.396-4.511-.531 0-.965.981-.965 2.18 0 3.201 4.141 11.82 5.678 11.82.752 0 1.322 1.104 1.322 2.559 0 1.451-.433 2.292-1 1.941-.55-.34-1 .084-1 .941s.648 1.559 1.441 1.559c1.823 0 2.887 1.66 1.992 3.108-.437.707-1.543.108-3.059-1.656-1.425-1.658-2.386-2.201-2.404-1.358-.022.995-.329.895-1.05-.344-1.746-2.998-2.848-1.914-1.27 1.25.823 1.65 1.914 3 2.423 3 .51 0 .927.606.927 1.347 0 1.383 3.792 6.3 4.29 5.563 1.299-1.92 2.606-8.025 2.041-9.531-.638-1.699-.534-1.739 1.09-.417 1.597 1.301 1.948 1.254 3.177-.427 1.586-2.168.959-3.492-.815-1.718-3.048 3.048-3.698.543-.696-2.68 1.229-1.32 1.832-2.906 1.466-3.859-.341-.89-.043-1.992.663-2.448 1.033-.668 1.014-1.004-.094-1.718-.758-.489-1.152-1.276-.875-1.75.276-.474.141-1.762-.302-2.862-.763-1.898-.808-1.885-.875.25-.161 5.174-1.739 1.739-1.837-4-.097-5.693-1.812-17.035-2.108-13.941-.206 2.152-2.124.254-2.14-2.118-.013-1.817-.195-1.935-1.066-.691-.822 1.174-.913 1.011-.417-.75.928-3.3-.266-6.278-2.217-5.529-1.074.412-1.372.228-.89-.551.398-.644.214-1.17-.407-1.17-2.217 0-4.134-2.73-2.388-3.4 1.378-.529 1.383-.76.046-2.097-2.26-2.26-4.646-1.871-4.646.756m-49.597 24.491c-1.047.962-2.049 2.425-2.228 3.25-.179.825-.741 1.65-1.25 1.833-.509.184-.925.957-.925 1.719 0 .825-.611 1.151-1.511.805-1.136-.435-1.342-.116-.831 1.282.652 1.78.594 1.785-1.317.111-2.265-1.983-3.814-2.324-2.751-.604.499.806-.076.949-1.941.481-2.395-.601-2.72-.368-2.628 1.893.05 1.239-2.62 3.187-3.766 2.748-.69-.265-1.255-.01-1.255.566 0 1.986 1.95 2.245 4.472.593 1.993-1.307 2.528-1.368 2.526-.292-.001.751-2.016 2.715-4.478 4.365-2.462 1.65-4.486 3.364-4.498 3.809-.012.445-.504.511-1.092.147-1.583-.977-14.967-1.205-15.549-.264-.274.445.315.815 1.31.823 1.301.011 1.452.242.54.821-.922.585-.581 1.174 1.25 2.154 1.385.741 2.519 1.716 2.519 2.166 0 1.242-9.852.392-11.211-.967-2.386-2.386-4.879-1.48-3.607 1.311.626 1.375 1.657 2.5 2.29 2.5s2.127.909 3.32 2.021c1.193 1.111 2.403 2.011 2.689 2 1.742-.07 1.878.099.686.855-3.224 2.043 12.358 4.015 17.196 2.176 4.269-1.623 11.966-9.687 11.381-11.924-.334-1.276.323-2.695 1.871-4.041 1.312-1.14 2.385-2.596 2.385-3.235 0-.666-.853-.39-2 .648-1.134 1.026-2 1.31-2 .655 0-.635-.702-1.155-1.559-1.155s-1.31.403-1.006.895c.305.493-.152 1.166-1.013 1.497-1.11.425-1.47.091-1.234-1.146.183-.96 1.34-1.89 2.572-2.066 1.232-.175 2.24-.738 2.24-1.25 0-.511.627-.93 1.393-.93s1.663-.704 1.993-1.563c.33-.86 1.061-1.279 1.626-.93.564.349 1.581-.635 2.26-2.186.679-1.552 2.117-4.126 3.195-5.721 1.078-1.595 2.059-3.575 2.18-4.4.121-.825.812-1.875 1.537-2.335 1.022-.648.959-.838-.281-.85-.878-.008-2.453.773-3.5 1.735m-179.616 4.071c-1.29.511-1.457 1.05-.674 2.179.786 1.134 1.164 1.193 1.549.244 1.008-2.488 2.335-.039 2.202 4.065-.075 2.305-.331 3.179-.57 1.941-.959-4.979-3.052-1.984-2.795 4 .109 2.534-.27 3.75-1.169 3.75-.76 0-1.33 1.096-1.33 2.559 0 1.647.403 2.31 1.13 1.861.692-.428.934-.16.625.691-.278.764-1.011 1.276-1.63 1.139-.701-.156-1.125 1.414-1.125 4.168 0 2.43-.301 5.204-.67 6.164-.457 1.191-.298 1.516.5 1.023 1.654-1.022 1.459.91-.233 2.314-1.077.894-1.523.865-1.921-.127-.285-.711-.554-.132-.597 1.285-.071 2.332.22 2.533 3.063 2.115 2.177-.319 2.927-.112 2.441.674-.386.624-.486 1.134-.224 1.134.263 0 1.115.245 1.895.544 1.188.456 1.252-.264.396-4.444-.562-2.743-1.346-4.788-1.741-4.544-1.051.65.127-7.554 1.588-11.056 3.65-8.749 4.637-14.432 3.328-19.173-.957-3.465-1.217-3.626-4.038-2.506m11.289 6.679c-.152 1.1-.44 4.025-.641 6.5-.497 6.154-3.883 16.556-5.288 16.25-1.748-.381-1.368 1.728.437 2.421 1.272.488 1.321.769.25 1.432-.869.537-1.582.227-2.048-.89-.393-.942-.618.537-.5 3.287.201 4.693.367 4.983 2.714 4.721l3.75-.417c.688-.075 1.25-.737 1.25-1.471 0-.733.675-1.333 1.5-1.333 2.113 0 1.878-3.704-.42-6.626-1.706-2.168-1.972-2.242-2.384-.657-.255.98-.516.321-.58-1.467-.064-1.788.258-3.25.716-3.25 1.633 0 2.659-6.613 2.095-13.5-.316-3.85-.698-6.1-.851-5m10.674 1.21c-.963 1.071-1.75 2.475-1.75 3.119 0 .644-.45 1.171-1 1.171s-1 .705-1 1.566c0 2.751-2.111 5.873-2.999 4.436-.515-.833-1.032-.107-1.508 2.115-.398 1.861-1.177 3.946-1.731 4.633-1.272 1.58 1.496 1.718 4.304.215 1.694-.907 1.94-.689 1.979 1.75l.045 2.785 1.462-3 1.462-3-.555 4.5c-.305 2.475-.787 5.625-1.07 7-.466 2.261-.402 2.32.674.613 2.079-3.298 2.551-14.786.576-14.028-2.013.773-2.382-5.442-.439-7.385 1.343-1.343 2.863-1.598 2.682-.45-.066.413-.028.975.083 1.25.384.952.892 4.523 1.401 9.855.643 6.733 1.606 7.885 1.722 2.062.049-2.429.163-6.774.253-9.655.102-3.242-.285-5.41-1.016-5.691-.649-.249-1.326-1.658-1.503-3.13-.316-2.629-.354-2.642-2.072-.731m81.149 60.392c-.056 1.319-.022 3.86.076 5.648.114 2.076-.301 3.292-1.148 3.365-.73.064-1.904.176-2.61.25-.706.074-1.667.752-2.135 1.507-1.666 2.686-3.544.641-3.243-3.53.214-2.965-.087-4.009-1.157-4.009-1.1 0-1.339.98-.997 4.084.402 3.656.3 3.9-.978 2.333-1.692-2.075-2.855-2.299-2.13-.41.283.737-.129 1.873-.915 2.525-1.124.934-1.553.861-2.014-.339-.322-.84-.149-1.526.383-1.526.533 0 .969-1.377.969-3.059 0-1.785-.417-2.802-1-2.441-.55.34-1 1.443-1 2.452s-.675 2.093-1.5 2.41c-1.814.696-1.999 4.303-.25 4.892.971.327.939.798-.143 2.108-.765.927-1.133 1.946-.816 2.262 1.01 1.01 2.709-.673 2.709-2.683 0-1.068.45-1.941 1-1.941s1 .702 1 1.559.418 1.301.928.985c.841-.519 2.415 2.47 2.609 4.956.043.55 1.027 3.025 2.186 5.5 1.882 4.017 2.118 4.211 2.193 1.809.046-1.48-.414-2.999-1.024-3.376-1.856-1.147-.074-8.522 2.745-11.359 4.129-4.156 8.305-5.187 11.612-2.867 2.53 1.774 6.93 1.763 6.572-.018-.076-.379.193-1.441.597-2.361.405-.919.218-2.64-.415-3.823-1.045-1.953-1.351-2.018-3.327-.713-1.197.79-2.318 2.388-2.493 3.55-.254 1.701-.575 1.873-1.643.885-.76-.702-1.01-1.868-.584-2.727.457-.924-.16-2.804-1.607-4.898-2.228-3.223-2.354-3.274-2.45-1m-1.82 12.163c-1.332.679-2.607 1.798-2.833 2.485-.492 1.491 3.347 1.717 4.254.25 1.246-2.016 2.564-.988 1.435 1.121-.895 1.673-.867 1.955.135 1.336.912-.564 1.081-.293.6.961-.369.96-.699 2.721-.733 3.914-.062 2.112-.088 2.108-1.002-.174-.517-1.289-.716-2.704-.443-3.146.273-.441-.205-1.072-1.063-1.401-1.13-.433-1.426-.118-1.074 1.145.268.959.758 2.696 1.091 3.86.516 1.808.254 2.049-1.804 1.656-1.324-.253-2.754.1-3.178.786-.984 1.593 2.2 4.008 4.25 3.222 1.27-.488 1.33-.231.367 1.568-.761 1.422-.8 2.194-.116 2.277 2.422.293 3.64.156 5.368-.6 1.313-.575 2.448-.156 4 1.475 1.614 1.697 1.746 2.133.518 1.709-2.254-.777-3.125 5.819-1.001 7.581.801.666 1.613 1.097 1.804.96.19-.137 1.133-.211 2.096-.164.963.047.411.486-1.226.974-1.84.549-3.348.516-3.95-.086-1.291-1.291-3.867-1.257-3.065.04 1.026 1.661 8.491 5.131 8.491 3.947 0-.593.403-.83.895-.526.493.305 1.182-.194 1.533-1.108.498-1.299.901-1.398 1.846-.453.932.932.936 1.378.02 1.944-.759.469-.865 1.258-.295 2.18.776 1.256.955 1.253 1.365-.026.977-3.05 1.415-9.991.66-10.457-.959-.593 2.119-7.437 3.366-7.482 1.002-.037 3.53-3.103 3.578-4.342.018-.445-.489-.487-1.126-.094-.792.49-.98.038-.594-1.436.496-1.899.25-2.079-2.093-1.538-2.428.562-2.5.495-.851-.781 1.216-.94 1.569-2.009 1.082-3.279-.682-1.776-.769-1.76-1.522.277-.44 1.188-1.189 2.16-1.665 2.16-1.393 0-.692-4.075.871-5.065 1.17-.74 1.112-.907-.32-.92-.963-.008-1.75-.676-1.75-1.484 0-.894.586-1.243 1.5-.893.825.317 1.5.87 1.5 1.228 0 .359.9 1.215 2 1.902 2.467 1.541 2.594.178.25-2.681-1.096-1.338-3.244-2.289-5.75-2.545-2.2-.225-3.442-.178-2.759.104.942.391.882.874-.25 2.006-2.821 2.82-.747 9.112 3.509 10.649 1.083.391.955.563-.462.62-1.08.043-3.015-1.159-4.3-2.671-1.946-2.29-2.244-2.405-1.78-.688.727 2.691-5.857 6.655-8.958 5.393-1.7-.692-1.738-.825-.25-.885.963-.038 1.75-.52 1.75-1.07s.597-1 1.326-1c1.404 0 5.674-4.08 5.674-5.421 0-.436-.675-.534-1.5-.217-1.084.415-1.5-.11-1.5-1.893 0-2.309-3.075-6.487-4.75-6.454-.412.008-1.839.57-3.171 1.25m46.494 10.662c-1.615.606-1.675.82-.37 1.321 1.241.476 1.404 1.433.804 4.714-.789 4.313-2.007 6.562-2.007 3.705 0-2.025-3.71-5.945-4.467-4.72-1.196 1.935-1.427 10-.306 10.693.635.393 1.332.182 1.549-.469.217-.651.806-.929 1.309-.618.503.311.915-.122.915-.963 0-.927.573-1.307 1.457-.968 1.036.397 1.427 2.05 1.353 5.719-.057 2.837.258 6.284.7 7.659.803 2.496.801 2.497-1.365.584-1.342-1.185-2.069-2.861-1.907-4.395.151-1.427-.336-2.688-1.147-2.971-.973-.339-1.215.016-.782 1.146.346.9.221 1.636-.277 1.636s-.774 2.813-.613 6.25c.16 3.438-.151 6.537-.692 6.888-1.719 1.116.285 2.862 3.285 2.862 3.506 0 8.127-1.965 7.398-3.146-.544-.879 2.558-1.198 8.452-.869l3.363.188-3.016-2.837c-3.042-2.86-5.157-8.336-3.22-8.336.687 0 .702-.581.045-1.75-3.963-7.053-5.492-14.137-3.238-15.002 1.117-.429 1.129-.676.064-1.334-.76-.471-1.625-.308-2.068.389-.491.771-.767.465-.777-.862-.023-3.153-2.193-5.358-4.442-4.514m66.801 8.604c.344.898.626 1.847.626 2.11 0 .262.366.251.813-.025.447-.276 2.753 1.272 5.126 3.441 4.917 4.494 5.501 4.732 4.772 1.944-.288-1.099-.163-2.222.278-2.494 1.055-.652 2.197 2.383 1.389 3.69-.394.639.163.766 1.497.343 1.632-.518 2.129-.253 2.14 1.143.012 1.377.22 1.494.861.483.681-1.074.964-1.025 1.453.25.335.871 1.382 1.584 2.327 1.584 1.368 0 1.132-.612-1.156-3-1.581-1.65-2.366-3-1.744-3 .622 0 1.831 1 2.687 2.223 2.269 3.239 1.908.4-.439-3.449-1.324-2.171-1.998-2.685-2-1.524-.006 2.72-1.511 2.085-4.575-1.932-1.544-2.025-2.979-3.167-3.189-2.539-.356 1.07-2.359.983-9.116-.396-1.885-.384-2.247-.147-1.75 1.148M188 427c0 .55.45 1 1 1s1 .477 1 1.059-.419.8-.931.484c-1.391-.86-2.46 1.466-1.236 2.69.582.582.811 2.296.509 3.809-.707 3.532 6.566 11.439 9.628 10.468 1.276-.405 2.015-.026 2.333 1.198.353 1.362.493 1.236.581-.524.064-1.273.582-3.186 1.151-4.25.815-1.522.708-1.934-.5-1.934-.902 0-1.568-.928-1.614-2.25-.043-1.238-.306-1.687-.583-1-.684 1.695-2.338 1.587-2.338-.153 0-.772-1.687-2.834-3.75-4.583-2.062-1.749-2.963-2.932-2-2.628 2.113.666 2.293-.986.321-2.957-1.652-1.653-3.571-1.883-3.571-.429" fill="#d3d3d3" fill-rule="evenodd"/></svg>