<svg xmlns="http://www.w3.org/2000/svg" width="500" height="375"><path d="M33.987 65.73c-.008 11.973-.301 75.432-.651 141.02L32.698 326H462l.211-54.25c.636-163.769.425-196.261-1.263-195.218-.442.274-1.078-.367-1.414-1.423-.602-1.899-2.007-2.195-4.124-.871-.599.375-2.759-.213-4.799-1.307-2.04-1.093-4.138-1.724-4.66-1.4-.523.323-.951.035-.951-.639s-.296-.929-.658-.567c-.362.362-1.149.254-1.75-.238-.601-.493-2.892-1.175-5.092-1.515-5.599-.866-7.5-1.55-7.5-2.698 0-.546-.432-.725-.959-.399-.528.326-1.765.18-2.75-.324-5.142-2.63-10.238-2.93-12.544-.738-4.277 4.067-4.951 5.338-3.886 7.327 1.327 2.479-.35 5.554-1.8 3.3-.81-1.261-1.198-1.226-2.829.25-1.039.94-2.672 1.71-3.628 1.71-1.302 0-1.574.519-1.084 2.064.45 1.416.236 2.007-.682 1.881-3.058-.417-4.977.133-4.556 1.305.722 2.014-1.188 4.75-3.317 4.75-1.081 0-1.972.563-1.98 1.25-.011.833-.339.75-.985-.25-.533-.825-1.001-1.275-1.039-1-.714 5.104-.376 9.228.811 9.892 1.142.639.966 1.296-.932 3.481-2.349 2.703-7.84 4.557-7.84 2.647 0-.561-.675-1.02-1.5-1.02s-1.5-.45-1.5-1c0-1.574-5.994-1.178-6.614.437-.303.79-1.211 1.184-2.017.874-2.023-.776-4.012 2.272-3.77 5.777.143 2.063-.255 2.912-1.365 2.912-.862 0-1.296.271-.965.603.332.331.182 1.712-.334 3.068-.848 2.23-.733 2.4 1.215 1.781 1.745-.553 2.029-.361 1.501 1.014-.358.934-.651 2.1-.651 2.591 0 .52-1.003.512-2.397-.018-1.319-.501-2.74-.603-3.16-.225-.419.377-.479-.101-.134-1.064.412-1.146.132-1.75-.809-1.75-.821 0-1.207.6-.9 1.399.295.769.034 1.709-.58 2.089-.82.507-.816 1.053.018 2.057.624.752.844 1.837.489 2.411-.355.574-.243 1.044.247 1.044.491 0 .968 1.35 1.059 3 .286 5.15.475 6 1.334 6 .458 0 .833.9.833 2 0 1.111-.667 2-1.5 2-.825 0-1.5.62-1.5 1.378 0 .757-.675 1.937-1.5 2.622-1.036.86-1.5.898-1.5.122 0-.617-.712-1.122-1.583-1.122s-1.422.484-1.225 1.075c.197.591.746 1.003 1.221.915.475-.089 1.233.438 1.686 1.17.647 1.047 1.163.906 2.427-.665 1.569-1.95 1.596-1.937 1.216.558-.214 1.404.206 3.109.934 3.789 1.063.993 1.324.913 1.324-.41 0-1.178.498-1.439 1.75-.92.962.399 2.313.748 3 .774 2.528.096 1.286 3.668-1.5 4.313-1.512.35-4.13 2.094-5.817 3.874-1.686 1.781-3.659 3.436-4.384 3.677-1.074.358-1.061.708.067 1.895 1.468 1.544 1.643 4.359.444 7.144-1.254 2.913 1.678 7.171 6.601 9.588 3.677 1.805 4.531 2.685 4.122 4.25-.284 1.085-.914 1.973-1.4 1.973-1.481 0-.983 3.025.599 3.631 1.133.435 1.238 1.025.444 2.507-.57 1.066-.757 2.821-.414 3.9.526 1.658.148 1.962-2.445 1.962-1.955 0-3.067.505-3.067 1.393 0 .766-.679 1.654-1.509 1.972-.83.319-1.416.929-1.302 1.357.114.428-.144 1.812-.573 3.076-.459 1.35-.34 2.83.289 3.588.809.974.402 1.629-1.667 2.681-1.506.765-3.903 2.638-5.327 4.162S344.83 218 344.228 218c-1.664 0-2.546 3.912-1.238 5.489.636.765 1.798 1.146 2.583.845.871-.335 1.427.078 1.427 1.059 0 .884.477 1.607 1.059 1.607s.776.457.431 1.016c-.346.559-1.047.758-1.559.441-.512-.316-.931-.087-.931.509s1.125 1.511 2.5 2.034c2.698 1.026 3.403 3 1.071 3-.785 0-2.135.707-3 1.571-1.428 1.429-1.571 1.424-1.571-.059 0-.896-.45-1.352-1-1.012-.55.34-1 1.191-1 1.892 0 1.564 3.222 1.721 4.235.207.45-.673.74-.409.75.683.02 2.336-4.266 4.059-5.024 2.019-.297-.797-.747-1.508-1-1.579-.974-.276-4.833 3.677-4.351 4.456.28.452.031.822-.551.822-.582 0-1.059-.625-1.059-1.389 0-1.564-3.061-1.643-4.326-.111-.535.648-1.005.56-1.333-.25-.707-1.741-2.341-1.566-2.341.25 0 2.077-1.752 1.888-2.311-.25-.362-1.386-.481-1.307-.573.383-.067 1.233-.962 2.355-2.12 2.658-1.337.349-1.801 1.054-1.393 2.116.336.876.185 1.593-.335 1.593-.521 0-1.508 1.232-2.195 2.738l-1.247 2.739-1.341-2.489c-1.132-2.101-1.441-2.23-1.986-.825-.47 1.21-1.793 1.635-4.863 1.561-2.32-.055-4.699.197-5.287.561-1.131.698-2.349-.054-2.349-1.452 0-.458.702-.833 1.559-.833s1.281-.45.941-1c-.34-.55-1.341-1-2.226-1-.884 0-1.335.273-1.001.606.333.333-.444 1.656-1.727 2.939-2.101 2.101-2.694 2.222-5.962 1.219-2.96-.908-4.262-.811-7.068.527-3.55 1.693-4.976 1.072-3.912-1.701.503-1.311-.194-1.59-3.966-1.59-3.9 0-4.494-.258-4.025-1.75.524-1.667.482-1.667-.892 0-.793.963-2.179 1.75-3.081 1.75-.902 0-1.64.675-1.64 1.5s-.675 1.5-1.5 1.5-1.5.6-1.5 1.333c0 .734-.675 1.334-1.5 1.334s-1.5-.532-1.5-1.181c0-1.892-5.736-1.599-6.527.333-.613 1.498-.777 1.463-1.51-.319-.782-1.901-.826-1.889-.893.25-.062 1.998-2.07 3.419-2.07 1.466 0-.431-2.7-.822-6-.868-3.3-.046-6 .307-6 .784 0 1.424-1.489.993-3.705-1.072-1.145-1.067-2.355-1.667-2.689-1.333-.333.333-.606.081-.606-.56 0-.666-1.395-1.133-3.25-1.088-1.787.043-2.685.307-1.994.585.691.279.989.94.661 1.47-.768 1.243-3.417-.893-3.417-2.756 0-.758-.45-1.378-1-1.378s-1 .829-1 1.841c0 1.554-.781 1.829-5 1.761-2.75-.044-5-.396-5-.781 0-.807-3.784-.487-6 .507-2.459 1.102-8 1.477-8 .541 0-1.204-3.376-1.093-4.621.152-.694.694-1.957.214-3.95-1.5-1.611-1.386-4.392-2.796-6.179-3.132-1.945-.366-3.25-1.212-3.25-2.107 0-.904.581-1.273 1.468-.933 1.688.648 3.055-.908 1.592-1.812-.535-.331-.784-1.149-.554-1.819 1.356-3.944-7.893-9.413-12.506-7.395-2.119.927-4.463-.767-3.406-2.461.467-.749.95-2.029 1.073-2.844s.651-1.624 1.172-1.798c.522-.174.719-1.194.438-2.268-.344-1.318-.005-1.952 1.044-1.952 2.166 0 1.706-3.915-.605-5.152-2.179-1.166-.389-4.32 1.944-3.425.737.283 1.34-.114 1.34-.882 0-.979.927-1.278 3.106-1.002 1.862.235 3.692-.194 4.571-1.073 1.288-1.288 1.275-1.466-.106-1.466-.864 0-1.571-.45-1.571-1s-.661-1-1.469-1c-.894 0-1.243-.586-.893-1.5.317-.825.146-1.5-.379-1.5s-.994-1.396-1.043-3.103c-.112-3.935-1.114-5.003-1.894-2.019-.443 1.691-.814 1.944-1.418.966-.488-.789-.187-2.29.744-3.71 1.171-1.787 1.264-2.57.374-3.121-.847-.523-.709-.919.476-1.374 2.641-1.013 3.502-.761 3.502 1.028 0 2.977 1.359.399 1.635-3.102.16-2.028-.314-3.883-1.173-4.596-.792-.658-1.164-1.643-.826-2.189.374-.605.973-.463 1.532.363.623.92.824.231.625-2.14-.24-2.863.049-3.498 1.593-3.5 1.308-.002 1.975-.827 2.175-2.693.227-2.108-.054-2.558-1.3-2.08-1.117.429-1.354.229-.797-.672.464-.75.243-1.621-.532-2.1-1.02-.63-.761-1.289 1.121-2.855 1.346-1.12 1.899-2.051 1.228-2.07-.67-.018-.959-.708-.643-1.533.401-1.045-.072-1.5-1.562-1.5-1.177 0-2.403-.688-2.726-1.53-.358-.934-1.287-1.307-2.384-.959-.989.314-2.087.102-2.441-.47-.636-1.03 2.002-1.546 5.971-1.168 1.896.181 1.909.104.257-1.548-1.358-1.359-2.003-1.475-2.946-.532-1.797 1.797-2.807 1.467-2.807-.915 0-1.694-.28-1.891-1.383-.975-1.288 1.069-2.062-1.308-2.815-8.644-.043-.417.772-1.209 1.81-1.759 2.911-1.542 3.077-8.5.203-8.5-2.062 0-2.071-.06-.315-2 2.281-2.521 3.131-2.52 3.791.004.349 1.337 1.054 1.801 2.116 1.393 1.147-.44 1.593-.02 1.593 1.496 0 1.232.641 2.107 1.542 2.107.848 0 2.447.844 3.554 1.875 1.862 1.735 1.89 1.996.377 3.509-.899.899-2.124 1.331-2.724.961-.705-.436-.853-.058-.419 1.073.369.96.67 1.934.67 2.164 0 .23.787.425 1.75.433 1.384.012 1.462.198.372.889-1.635 1.035-.64 3.096 1.496 3.096.825 0 1.235-.429.91-.954-.757-1.225.435-6.046 1.495-6.046.443 0 .773 2.137.733 4.75-.073 4.781.16 5.014 3.658 3.654 1.339-.52 1.697-.393 1.191.426-.398.644-.216 1.17.403 1.17.651 0 .873.801.525 1.895-.443 1.396-.137 1.856 1.164 1.75 1.17-.096 1.81.608 1.897 2.087.072 1.228.582 2.803 1.133 3.5.551.697.827 2.472.613 3.944-.214 1.472.072 2.961.636 3.309.585.361 1.031-.358 1.039-1.676.011-1.647.258-1.926.862-.974.647 1.022.968.866 1.369-.666.287-1.1.031-2.492-.569-3.092-.788-.788-.64-1.542.534-2.717 1.672-1.672.632-6.36-1.411-6.36-.483 0-.299-.63.411-1.4 1.621-1.76 3.768-.236 3.126 2.22-.355 1.359.247 1.799 2.72 1.987 2.501.191 3.045-.081 2.559-1.282-.339-.839-.866-2.141-1.173-2.894-.396-.975.158-1.29 1.93-1.095 1.465.16 2.718-.33 3.05-1.195.309-.807 1.074-1.152 1.698-.766.782.483.629.986-.493 1.613-2.042 1.143-2.118 2.812-.128 2.812.825 0 1.5-.702 1.5-1.559s.457-1.276 1.016-.931c.559.346.78 1.011.491 1.478-.289.468.182 1.559 1.048 2.424 1.959 1.959.925 4.232-1.144 2.514-1.014-.842-1.411-.855-1.411-.048 0 .617.505 1.122 1.122 1.122.826 0 .828.355.009 1.342-.612.738-.818 1.638-.456 2 .362.362-.204.665-1.258.673-1.248.01-1.503.279-.73.771 2.28 1.449 3.484 6.198 1.532 6.038-3.343-.274-5.33.188-4.762 1.107.317.512.118 1.213-.441 1.559-.559.345-1.002 1.164-.984 1.819.017.655.649.377 1.404-.619.812-1.071 1.627-1.398 1.996-.8.343.555-.289 1.498-1.404 2.095-2.937 1.572-2.52 3.177.621 2.388 1.554-.39 2.411-.279 2.072.269-.317.513.697 1.497 2.253 2.186 1.611.713 3.1 2.33 3.457 3.754.553 2.201.805 2.325 2.099 1.031.808-.808 1.47-2.402 1.47-3.542 0-1.139.45-2.071 1-2.071s1-1.017 1-2.259c0-3.186 3.556-5.331 4.929-2.974.794 1.362 1.01 1.412 1.009.233-.001-.825-.648-2.354-1.438-3.397-.79-1.044-1.168-2.332-.84-2.862.328-.531.124-1.256-.453-1.613-.576-.356-1.375-1.951-1.775-3.543-.656-2.613-.517-2.841 1.421-2.334 2.438.638 2.559.387 1.112-2.317-.866-1.618-.702-1.934 1-1.934 3.104 0 1.741-3.642-1.465-3.915-.55-.047-1-.571-1-1.166 0-.594-.788-1.656-1.75-2.36-.963-.704-1.75-1.755-1.75-2.336s-.436-1.206-.968-1.39c-.595-.205-.617-.898-.057-1.799.727-1.172 1.119-.918 1.948 1.262.57 1.501 2.188 3.253 3.596 3.894 1.463.667 2.341 1.732 2.051 2.488-.279.727-.104 1.322.388 1.322s1.094-.787 1.338-1.75c.304-1.204.674-.756 1.186 1.438.66 2.831.957 3.055 2.648 2 1.562-.975 1.657-1.368.532-2.192-1.817-1.33-3.128-5.496-1.729-5.496 1.894 0 1.132-2.17-.954-2.716-1.579-.413-1.773-.827-.887-1.894.866-1.044.776-1.503-.381-1.947-1.864-.716-1.551-3.939.384-3.954 1.027-.008 1.314-1.085 1.067-4-.274-3.238-.095-3.754.95-2.739.709.688 1.648 1.25 2.088 1.25 1.599 0 .739-1.976-1.95-4.481l-2.75-2.562 2.25-.595c2.174-.575 3.19-2.362 1.344-2.362-.499 0-.657-1.013-.353-2.25.305-1.237.215-1.94-.2-1.56-1.094 1-4.88-2.833-4.078-4.13.371-.601 1.094-.834 1.606-.517.512.316.931-.352.931-1.484 0-1.263-.676-2.09-1.75-2.14-.98-.045-.027-.883 2.165-1.905 2.154-1.003 4.525-1.591 5.27-1.305.991.381.891-.286-.375-2.491-1.452-2.53-1.515-3.266-.396-4.614 1.442-1.738 3.598-2.241 2.586-.604-.895 1.449 1.071 1.231 2.254-.25.549-.687.682-2.12.295-3.184-.482-1.324-.934-1.561-1.436-.75-1.136 1.839-2.613 1.396-2.613-.785 0-1.339.48-1.784 1.5-1.393 1.004.386 1.495-.038 1.485-1.281-.012-1.449-.208-1.554-.891-.475-.688 1.086-1.02.925-1.552-.75-.372-1.173-1.096-2.132-1.609-2.132-1.788 0-.915-1.672 1.567-3 2.849-1.525 3.344-4 .8-4-1.354 0-1.447-.253-.458-1.242.988-.988 1.408-.971 2.061.085.611.989.963.777 1.385-.837.418-1.599.193-2.021-.861-1.616-1.067.409-1.427-.328-1.427-2.921 0-3.766 1.446-4.694 2.29-1.469.763 2.919 2.837 2.483 2.299-.484-.248-1.365-.733-2.94-1.079-3.5-.345-.559.132-1.016 1.061-1.016 1.405 0 1.606-.741 1.192-4.407-.653-5.795.426-7.637 3.071-5.243 1.882 1.703 2.051 1.674 4.505-.78 3.029-3.029 5.295-2.511 6.156 1.405.466 2.122 1.073 2.689 2.483 2.321 1.523-.399 2.034.31 2.778 3.858.973 4.635.549 6.936-.866 4.703-.473-.746-.901-1.132-.951-.857a53.728 53.728 0 01-.463 2c-1.705 6.893-1.697 6.924 1.517 6.002 2.13-.611 3.011-.518 3.021.318.007.649.238 2.08.513 3.18 1.015 4.066-.841 4.833-5.92 2.445-4.616-2.17-7.75-2.162-3.693.009 1.147.614 2.086 1.577 2.086 2.14 0 .563-.357.804-.793.534-.435-.269-.893.829-1.015 2.441-.134 1.751.264 2.931.988 2.931.666 0-.556 1.618-2.714 3.595-3.806 3.486-3.865 3.64-1.946 5.046 1.772 1.298 2.151 1.24 3.606-.553.894-1.101 1.846-1.782 2.116-1.513.27.27.485-.762.479-2.292-.018-4.272 1.24-6.283 3.93-6.283 1.714 0 2.35-.488 2.143-1.646-.162-.906.331-1.864 1.095-2.13.929-.323 1.126-.058.596.801-.498.805-.395 1.038.275.623.588-.363 1.297-.095 1.576.596.278.691.542-.18.585-1.935.043-1.755-.351-3.457-.877-3.782-2.402-1.484.31-3.53 4.471-3.372 3.921.148 4.351.424 4.895 3.147.329 1.641.107 3.575-.492 4.297-1.088 1.311-.49 3.401.972 3.401.425 0 1.383-1.141 2.129-2.535.817-1.527 1.922-2.318 2.78-1.989.875.336 1.236.058.938-.72-.543-1.414 1.707-3.979 2.656-3.029.334.333.607.081.607-.56 0-.642-.402-1.167-.893-1.167-1.765 0-2.135-3.259-.506-4.45 1.42-1.038 1.455-1.493.268-3.429-1.207-1.968-1.152-2.355.465-3.273 1.273-.723 1.659-1.74 1.262-3.322-.486-1.936-.084-2.389 2.666-2.997 1.992-.44 2.661-.917 1.738-1.238-1.803-.626-4-3.248-4-4.773 0-.684 2.028-1.033 5.376-.923 4.89.16 5.33-.002 4.864-1.786-.282-1.08-1.541-2.353-2.797-2.831-1.614-.613-2.135-1.439-1.777-2.81.28-1.068.019-2.245-.579-2.614-.598-.37-1.087-.185-1.087.41 0 .667-.863.526-2.25-.368-2.789-1.797-71.146-2.382-72.237-.618-.432.7-1.242.702-2.54.008-1.189-.637-13.856-.993-33.689-.947-17.481.04-33.584-.019-35.784-.131-15.905-.813-34.632-.308-35.414.955-.712 1.151-.915 1.151-1.298 0-.371-1.114-7.777-1.412-40.621-1.633L34 43.959l-.013 21.771" fill="#d3d3d3" fill-rule="evenodd"/></svg>