<svg xmlns="http://www.w3.org/2000/svg" width="500" height="333"><path d="M275.439 57.333c-11.082 3.933-17.476 7.935-24.657 15.434C245.059 78.742 237.001 85 235.028 85c-.631 0-.892-.411-.582-.912.753-1.22-3.412-.712-6.14.748-1.196.64-3.102 1.164-4.236 1.164s-4.816.953-8.182 2.118c-5.777 1.999-6.715 2.048-16.754.867-15.291-1.798-26.045 1.639-34.537 11.04-1.979 2.189-3.597 3.699-3.597 3.355 0-.343-.562-.18-1.25.363-1.625 1.285-29.207 12.257-30.811 12.257-.675 0-6.449 1.759-12.833 3.909-6.383 2.15-14.178 4.634-17.322 5.518-3.144.885-8.994 3.114-13 4.954-4.006 1.84-9.084 3.92-11.284 4.624-2.2.703-6.07 2.098-8.601 3.1-2.53 1.002-6.58 1.802-9 1.777-16.184-.167-23.978 1.528-28.149 6.121-2.612 2.877-2.75 3.526-2.75 12.963 0 7.249-.363 10.151-1.343 10.734-3.595 2.142-4.489 5.662-4.524 17.8-.041 14.683.034 14.949 5.162 18.186 3.828 2.417 5.517 2.702 22.67 3.836 10.194.674 19.802 1.732 21.35 2.351 1.548.62 5.598 1.135 9 1.146 6.781.02 12.16 1.332 49.028 11.952 13.663 3.936 28.963 7.821 34 8.634 5.036.812 12.082 2.407 15.657 3.543 7.482 2.379 23.552 6.819 26.5 7.322 1.1.188 5.492 1.491 9.76 2.897 4.268 1.406 11.243 3.264 15.5 4.128 4.257.865 9.178 2.034 10.935 2.598 1.757.564 6.257 1.259 10 1.544 9.117.694 8.556.704 10.719-.188 1.266-.522 1.691-.428 1.256.276-.857 1.387 1.574 2.279 6.162 2.26 2.736-.012 3.287-.262 2.168-.985-1.282-.828-1.246-.972.25-.985.962-.008 1.75.419 1.75.95 0 1.262 10.399.257 14.101-1.364.88-.385 2.005-.582 2.5-.438.494.144 1.879-.282 3.077-.947 2.018-1.121 5.148-.732 6.322.784.461.596 22.587 6.154 26 6.531 13.138 1.451 24.656 4.856 23.809 7.038-.17.437 3.211 1.39 7.513 2.116 4.302.727 8.728 1.806 9.835 2.399 2.956 1.582 3.021.903.504-5.29-2.42-5.953-5.852-11.059-11.329-16.853-1.85-1.957-4.745-6.232-6.431-9.5-1.687-3.267-3.977-6.92-5.089-8.117-1.119-1.205-1.696-2.703-1.292-3.357.542-.877.911-.887 1.435-.04.969 1.567 4.287.146 3.634-1.556-.289-.754-.072-1.371.484-1.371 1.875 0 4.679 3.471 6.866 8.5 3.897 8.959 6.317 13.422 8.206 15.131 1.02.924 1.855 2.52 1.855 3.549 0 1.063 1.055 2.271 2.448 2.8 1.346.512 3.205 2.087 4.131 3.501 1.227 1.872 2.226 2.398 3.678 1.937 1.254-.398 1.755-.247 1.352.406-.353.571-.136 1.35.481 1.732 1.809 1.118-1.217 2.519-4.126 1.91-2.056-.431-2.535-.147-2.535 1.502 0 1.117.353 2.032.785 2.032.432 0 .786-.45.786-1s.422-1 .938-1c1.466 0 .807 3.884-.761 4.486-1.124.431-1.157.833-.167 2.026 1.728 2.082 3.242 1.857 2.533-.377-.975-3.073 6.879-3.655 11.423-.847 3.599 2.224 7.938 3.053 8.159 1.558.159-1.075.267-1.488 1.683-6.411.643-2.236 2.187-4.986 3.431-6.112 2.861-2.59 12.685-7.033 17.548-7.936 2.042-.379 5.625-1.505 7.963-2.502 2.337-.998 4.25-1.429 4.25-.959 0 .47 1.575 1.039 3.5 1.264 1.925.225 3.5.14 3.5-.187 0-.721 12.874-3.003 16.939-3.003 3.434 0 10.665-6.573 11.68-10.617 1.519-6.054-2.919-14.708-8.947-17.445-10.036-4.556-21.241-1.784-32.707 8.092-8.444 7.273-10.213 7.927-14.893 5.507-3.708-1.917-4.157-3.368-3.085-9.96 1.448-8.895-1.276-15.332-9.86-23.301-3.095-2.873-6.194-5.022-6.888-4.777-.693.246-3.319-1.526-5.835-3.937-2.517-2.411-4.874-4.516-5.24-4.678-.365-.161-1.242-1.407-1.948-2.768-.706-1.362-2.177-3.101-3.268-3.865-1.092-.765-3.161-3.721-4.598-6.571-3.313-6.57-6.182-8.748-6.492-4.93-.164 2.021-1.935-11.247-1.902-14.25.074-6.706-.237-8.286-2.187-11.133-1.632-2.381-3.128-3.286-6.087-3.683-2.158-.289-4.432-1.05-5.053-1.691-.851-.879-.514-1.09 1.371-.86 1.375.168 2.95.044 3.5-.276.55-.319 2.256-.881 3.791-1.248 1.535-.367 2.525-1.098 2.2-1.623-.324-.525.895-1.859 2.71-2.963 1.814-1.104 3.449-1.561 3.632-1.015.184.546 1.251.992 2.373.992 1.713 0 1.837.243.774 1.524-2.152 2.593-.186 2.884 2.435.361 1.363-1.312 2.953-2.441 3.532-2.51l2.089-.25c3.92-.473 6.249-16.017 3.214-21.448-12.143-21.726-28.561-29.491-50.011-23.653-9.448 2.571-9.96 2.522-10.739-1.024-.37-1.685-1.308-3-2.138-3-.814 0-1.195-.461-.847-1.025.349-.563.263-.96-.191-.881-2.688.467-3.133-.562-3.472-8.026-.783-17.237-12.189-22.267-33.413-14.735m19.099 62.729c.22.355-.712 1.152-2.069 1.77-3.327 1.516-3.361 8.093-.081 15.948 1.314 3.146 2.706 8.083 3.094 10.97.388 2.887 1.047 5.25 1.464 5.25.917 0 10.047 11.482 10.071 12.666.01.458 1.207 1.959 2.661 3.334s3.537 4.514 4.629 6.975c1.093 2.462 3.945 6.435 6.34 8.829 2.407 2.408 4.367 5.324 4.383 6.525.028 1.955.132 1.997 1.05.421 1.588-2.727 3.33-2.114 7.813 2.75 2.282 2.475 4.724 4.5 5.428 4.5 1.763 0 3.679 2.075 3.679 3.986 0 .872.788 1.622 1.75 1.667.962.046 7.794.439 15.181.874l13.432.791-2.352-3.409C365.916 196.526 358.484 187 357.818 187c-.386 0-1.909-2.147-3.384-4.77-1.923-3.421-3.778-5.239-6.554-6.424-3.988-1.704-5.88-4.73-5.88-9.406 0-2.844-2.56-7.235-5.462-9.368-4.615-3.391-13.127-11.631-14.257-13.8-1.286-2.471-2.546-4.202-9.829-13.51-2.486-3.177-5.031-6.899-5.656-8.269-1.039-2.282-1.622-2.473-6.896-2.265-3.169.125-5.581.518-5.362.874m-157.989 21.065c-2.173.509-6.898 1.088-10.5 1.286-13.924.768-33.462 4.827-47.049 9.773-3.025 1.102-8.27 2.673-11.655 3.492-6.246 1.512-7.292 2.592-7.331 7.572-.018 2.208 2.971 2.278 9.577.223 2.7-.84 10.013-1.963 16.25-2.497 8.761-.749 11.998-1.437 14.227-3.025 1.588-1.13 6.091-3.144 10.007-4.477 3.917-1.332 9.517-3.555 12.445-4.94 2.928-1.385 7.722-3.146 10.652-3.914 7.761-2.032 13.145-4.463 9.828-4.438-1.375.01-4.278.435-6.451.945M226 156c-1.375.44-4.308.845-6.518.9-2.4.06-5.42 1.036-7.5 2.424-2.268 1.513-4.776 2.27-7.194 2.171-2.88-.118-4.82.687-8.66 3.593-8.091 6.124-7.88 6.054-22.387 7.431-3.718.353-6.504 1.056-6.191 1.562.312.505-.246.926-1.241.934-.995.009-2.399.39-3.12.847-.771.489 1.906.894 6.5.984 4.296.083 12.311.622 17.811 1.197 5.5.575 15.353 1.461 21.896 1.968 11.539.895 21.156 2.002 34.604 3.985 3.575.527 10.325 1.481 15 2.121 4.675.64 12.037 2.216 16.36 3.503 4.323 1.287 10.102 2.638 12.843 3.001 3.176.422 6.688 1.834 9.685 3.896 2.586 1.779 6.257 3.568 8.157 3.975l3.455.741-2.421-2.612c-1.331-1.437-2.178-2.855-1.883-3.151.296-.295 1.942 1.062 3.658 3.016 3.269 3.724 7.567 5.95 9.818 5.086.883-.338 1.328.318 1.328 1.959 0 2.756 1.566 3.113 4.363.994 1.786-1.352 1.747-1.518-.922-3.992-1.532-1.42-3.833-2.844-5.113-3.166-1.28-.321-2.328-1.336-2.328-2.255 0-.919-.974-2.332-2.165-3.141-4.397-2.987-5.697-4.784-5.103-7.053.402-1.539.224-2.009-.574-1.515-.757.467-1.158-.134-1.158-1.737 0-2.557-1.626-3.666-5.379-3.666-1.249 0-3.84-1.664-5.938-3.813-3.576-3.662-4.05-5.649-1.074-4.507.964.37 1.224.049.819-1.008-.327-.852-1.87-1.83-3.428-2.172-3.656-.803-4.48-3.068-2.063-5.663 1.944-2.086 1.761-4.237-.56-6.587-1.726-1.748-2.149-1.631-6.245 1.733-7.405 6.081-7.267 5.896-6.069 8.135 1.005 1.878.891 2.006-1.227 1.376-1.285-.383-2.83-1.319-3.435-2.079-.604-.761-1.329-1.153-1.611-.872-.282.282-2.721-1.473-5.42-3.9l-4.908-4.413-5.751.902c-4.285.672-7.42.515-12.294-.615-7.023-1.629-12.415-1.799-16.417-.517M64.049 183.135c-5.524.705-8.049 2.554-8.049 5.896 0 2.778 3.811 3.995 31 9.901 4.675 1.015 11.2 2.532 14.5 3.371 3.3.838 12.075 2.708 19.5 4.155 7.425 1.446 16.65 3.254 20.5 4.017 3.85.762 11.725 1.669 17.5 2.014 5.775.345 14.325 1.457 19 2.47 4.675 1.014 11.65 2.118 15.5 2.455 3.85.337 11.95 1.346 18 2.242 10.589 1.569 26.5 1.263 26.5-.509 0-3.293-34.505-14.085-59.5-18.611-4.95-.896-13.725-2.918-19.5-4.493-5.775-1.576-13.875-3.139-18-3.474-4.125-.336-9.648-1.258-12.274-2.049-10.524-3.171-48.879-8.88-55.983-8.332-1.783.138-5.696.564-8.694.947m157.451 2.741c.55.54 2.575 1.126 4.5 1.303 1.925.176 3.408.822 3.296 1.434-.212 1.153 8.501 4.387 11.819 4.387 2.368 0 2.441-1.577.135-2.92-1.446-.842-1.48-1.024-.195-1.05.855-.016 3.274 1.545 5.375 3.47 4.372 4.005 5.57 4.327 5.57 1.5 0-2.03 1.557-2.786 2.167-1.053.183.521 4.833 1.17 10.333 1.441 9.111.45 9.733.37 7-.902-1.65-.768-4.71-1.416-6.8-1.441-2.089-.025-5.127-.732-6.75-1.571-1.622-.839-2.95-1.075-2.95-.524 0 .667-.875.668-2.624.003-2.088-.794-2.873-.656-3.847.676-.861 1.177-1.435 1.332-1.935.522-.397-.641-.133-1.165.597-1.183 3.379-.082-2.95-2.906-7.553-3.37-14.718-1.483-19.092-1.657-18.138-.722" fill="#d3d3d3" fill-rule="evenodd"/></svg>