<svg xmlns="http://www.w3.org/2000/svg" width="500" height="500"><path d="M0 250.002v250.002l250.25-.252 250.25-.252.252-249.75L501.004 0H0v250.002m.492.498c0 137.5.116 193.601.258 124.67.142-68.932.142-181.432 0-250C.608 56.601.492 113 .492 250.5M216.153 49.885c-.741.469-1.445 2.76-1.564 5.09-.141 2.767-.802 4.565-1.903 5.181-.927.519-1.686 1.596-1.686 2.394 0 2.398-1.994 1.631-2.079-.8-.043-1.237-.307-1.685-.585-.994-.279.691-.916 1.003-1.417.694-.501-.31-1.406.7-2.012 2.244a170.279 170.279 0 01-2.435 5.806c-.734 1.65-1.631 4.045-1.994 5.322-.419 1.477-1.172 2.114-2.068 1.75l-3.074-1.242c-1.141-.459-1.432-.295-.926.525.406.657.287 1.071-.265.92-.552-.151-1.683.625-2.513 1.725l-1.508 2-1.508-2c-1.462-1.94-1.641-1.851-6.017 3-2.48 2.75-4.53 5.322-4.554 5.715C177.976 88.318 164.299 97 162.63 97c-.812 0-2.934-1.458-4.715-3.239l-3.24-3.239.524 2.739c.288 1.506.136 2.739-.338 2.739-.473 0-.861-.648-.861-1.441s-.338-1.649-.75-1.904c-.412-.255-.782 2.353-.821 5.796-.063 5.55-.517 6.935-4 12.205-2.161 3.269-5.054 8.277-6.429 11.128-1.375 2.852-3.062 5.192-3.75 5.2-.687.009-1.25.643-1.25 1.409s-.722 1.67-1.604 2.008c-1.415.543-1.519 2.296-.888 14.921l.715 14.305-5.861 1.281c-8.096 1.769-21.436 6.892-23.926 9.189-2.502 2.306-3.278 2.356-5.49.354-2.554-2.311-6.606-.844-11.682 4.232-2.966 2.966-6.533 5.188-11.07 6.896-3.682 1.385-7.707 3.182-8.944 3.993-2.887 1.891-3.074 4.824-.25 3.928 2.29-.727 2.769.991.517 1.855-.816.313-1.235 1.217-.931 2.01.344.894-.578 2.108-2.431 3.203-4.885 2.885-6.515 9.231-4.129 16.076 1.025 2.94 8.029 8.356 10.806 8.356 5.128 0 11.935 7.674 13.664 15.404l1.139 5.096 6.394 1.026c5.539.888 6.485 1.356 7.082 3.5 1.16 4.163 1.002 4.532-2.497 5.797C92.782 253.57 85 260.689 85 263.362c0 1.206-.622 3.081-1.381 4.165-2.579 3.682-2.175 30.553.434 28.94 1.609-.994 1.905 1.386.507 4.079-1.571 3.029-3.292 4.415-5.51 4.439-1.128.012-1.183-.252-.25-1.185 2.143-2.143 1.267-2.943-1.201-1.097-2.067 1.547-2.171 1.885-.75 2.432 1.236.476.897.811-1.349 1.334-1.65.384-3.562.871-4.25 1.083-.75.231-1.25 2.13-1.25 4.748 0 4.355.008 4.365 4.75 5.666 2.612.717 7.307 1.371 10.433 1.453 3.43.091 6.404.754 7.5 1.672.999.837 3.008 2.028 4.463 2.647l2.647 1.125-.228 11.818-.227 11.819-5.715.301c-6.854.362-8.618 2.485-11.089 13.351-.842 3.7-2.478 8.334-3.636 10.296-2.992 5.071-2.119 6.426 3.777 5.862 3.581-.343 4.438-.188 3.325.599-.825.583-2.513 1.067-3.75 1.076-1.237.008-2.25.507-2.25 1.109 0 1.713 9.339.106 19-3.269 9.068-3.168 9.308-3.224 12.731-2.983 1.477.105 2.443 1.003 2.858 2.658.72 2.866 1.639 3.135 3.411 1 1.438-1.733 4.739-1.93 8.483-.506 3.507 1.333 5.856 7.039 4.996 12.133-.386 2.283-.257 3.873.314 3.873 1.582 0 7.207 6.244 7.207 7.999 0 .89-.661 2.492-1.468 3.56-.808 1.067-1.467 2.391-1.464 2.941.008 2.034 4.793 6.771 7.074 7.004 1.297.132 2.647.298 3 .368 1.719.342 3.348 15.128 1.666 15.128-.444 0-.808.45-.808 1 0 1.753 7.378 1.067 10.771-1.002 2.157-1.315 6.582-2.359 13-3.065 13.192-1.453 15.737-3.004 33.595-20.478 4.268-4.176 8.295-6.179 12.634-6.281 2.445-.058 2.423.01-1 3.099-1.925 1.737-3.372 3.558-3.215 4.048.157.489-.245 1.528-.892 2.308-2.385 2.874.24 2.638 3.372-.303 4.503-4.227 6.367-4.69 8.223-2.039 1.186 1.692 1.25 2.291.278 2.585-.696.21-2.315 1.338-3.597 2.505-1.281 1.168-2.519 2.01-2.75 1.873-1.233-.735-1.695-.077-.483.689 1.151.728 1.191 1.204.201 2.396-2.313 2.787.882 3.021 3.749.274 1.498-1.435 3.213-2.609 3.812-2.609.598 0 1.355-.696 1.682-1.547.326-.851 1.162-1.445 1.857-1.32 1.766.318 9.634-2.186 13.45-4.279a341.969 341.969 0 017.369-3.883c3.084-1.573 3.888-2.427 3.063-3.252-1.711-1.711-1.359-2.44 1.439-2.975 1.883-.36 2.419-.127 2.031.884-.691 1.803.445 1.737 3.188-.185 3.132-2.193 2.762-3.254-1.027-2.948-1.787.145-3.596-.245-4.018-.866-.521-.765-1.143-.484-1.929.871-1.787 3.079-6.835 7.5-8.564 7.5-1.34 0-1.318-.256.167-1.896 1.327-1.466 1.419-2.006.405-2.377-.732-.268-.096-.804 1.439-1.212 1.512-.403 2.75-1.081 2.75-1.507 0-1.237-3.736-1.872-4.794-.814-.529.529-2.255.815-3.834.634-2.579-.294-1.991-.821 5.75-5.156 7.727-4.327 8.885-5.364 11.163-9.994 1.83-3.719 2.216-5.378 1.379-5.922-.763-.496-.389-.969 1.086-1.373 1.238-.339 2.257-1.351 2.265-2.25.01-1.034.285-1.228.75-.528.404.609 2.895 1.343 5.534 1.633 5.812.639 5.337.181 7.023 6.768l1.382 5.398 1.117-4.952c.615-2.724 1.413-7.123 1.773-9.777.468-3.442.964-4.517 1.731-3.75 1.747 1.747 3.675 1.231 3.675-.984 0-1.132-.448-1.782-.996-1.444-.547.339-1.513-.52-2.146-1.909s-1.542-2.283-2.021-1.988c-.478.296-.611.957-.294 1.469.803 1.3.351 1.192-4.111-.978-2.865-1.394-4.132-1.596-4.686-.75-.521.794-1.382.371-2.731-1.341-3.585-4.548-1.945-8.414 2.971-7.004 1.532.439 5.874.659 9.649.488 9.807-.445 10.263-.509 10.904-1.548 1.086-1.756 2.461-.941 2.461 1.457 0 2.312 2.334 4.137 3.985 3.116.443-.274 1.081.222 1.419 1.1.375.979 1.24 1.358 2.231.977.963-.369 2.142.095 2.91 1.145.71.971 1.617 1.44 2.016 1.042.398-.399.258-1.298-.311-1.999-1.291-1.59-4.905-14.677-5.802-21.012-.734-5.182 1.053-7.251 4.089-4.731 2.124 1.762 2.853.589 1.282-2.064-.987-1.667-1.023-2.336-.142-2.657 1.375-.5-.259-6.31-1.775-6.31-.496 0-.902-.482-.902-1.071 0-1.196-2.904-4.36-4.179-4.554a50.709 50.709 0 00-2.071-.25c-1.648-.165-1.486-15.934.206-20.019 1.566-3.781-.032-7.106-3.414-7.106-2.392 0-9.153-5.723-8.056-6.819.316-.317 1.912.213 3.545 1.178s2.969 1.309 2.969.765c0-.544.851-1.259 1.892-1.59 1.041-.33 2.135-1.528 2.431-2.662.448-1.712 1.05-1.949 3.549-1.4 3.55.78 6.739-.672 7.628-3.471.398-1.257 1.513-2.001 2.994-2.001 1.645 0 3.519-1.496 6.183-4.935 4.834-6.239 11.943-9.643 22.221-10.637 8.534-.826 8.945.349 1.106 3.168-2.752.989-5.004 2.325-5.004 2.969 0 .643-1.8 2.36-4 3.816s-4 3.316-4 4.133c0 .817-.527 1.486-1.171 1.486s-1.965.718-2.935 1.596c-.97.878-3.59 1.665-5.822 1.75-2.233.085-3.903.604-3.712 1.154.191.55 1.976.95 3.967.888 1.991-.061 3.38.276 3.088.75-.293.474-1.181.862-1.974.862-1.769 0-1.908 1.665-.191 2.283.688.247 2.643.237 4.345-.023 1.786-.272 4.426.216 6.24 1.155 1.729.894 3.374 1.616 3.655 1.605 2.228-.088 2.751.072 2.16.663-1.041 1.041 4.942 3.276 13.941 5.208l8.091 1.737 3.371-2.814c3.754-3.134 5.173-3.566 4.309-1.314-.736 1.917.948 1.908 4.688-.026 3.506-1.813 3.838-3.468.7-3.489-1.856-.013-1.987-.199-.75-1.059 1.465-1.02-2.738-.73-10.25.707-1.512.289-2.75.348-2.75.13 0-.218-.457-3.066-1.016-6.329-.559-3.264-1.265-7.452-1.569-9.307-.53-3.243-.692-3.352-4.233-2.848-2.025.288-4.466.84-5.424 1.226-1.168.471-1.955.146-2.39-.988-.824-2.148 3.529-6.667 6.781-7.039 1.293-.149 4.001-.585 6.017-.97l3.666-.699.75 5.845c.742 5.786.759 5.811 1.661 2.411.601-2.27 1.175-3.007 1.69-2.173.608.984 1.695 1.016 4.924.147 3.588-.967 4.143-1.486 4.143-3.878 0-4.494-1.706-5.351-6.146-3.087-3.719 1.898-3.854 1.902-3.854.107 0-1.023 1.125-2.373 2.5-2.999 2.819-1.284 3.451-3.616.75-2.766-4.168 1.313-14.813 2.316-15.7 1.48-.523-.493-1.899-.896-3.059-.896-1.16 0-2.982-.661-4.05-1.468-1.067-.808-3.367-1.483-5.109-1.5-4.613-.047-6.182-.891-5.623-3.027.289-1.105 1.064-1.646 1.9-1.325.776.298 2.982-.656 4.901-2.12 1.92-1.464 3.49-2.126 3.49-1.472 0 1.609 10.137.419 11.5-1.35.55-.714 3.025-1.381 5.5-1.484 4.446-.184 16.861-3.058 22.31-5.164 3.53-1.364 2.532-3.536-1.169-2.545-3.803 1.018-11.695.558-14.894-.869-3.985-1.776-13.249-7.733-13.236-8.512.006-.365 1.94-2.756 4.298-5.313 5.473-5.933 9.451-6.471 36.649-4.956 10.67.594 19.62.86 19.888.592.268-.268-.195-.487-1.029-.487-.834 0-3.304-1.295-5.489-2.877-6.147-4.453-14.43-6.49-22.828-5.615-3.85.402-8.125.843-9.5.982s-3.034.31-3.687.381c-.653.071-4.14 2.151-7.75 4.622-7.266 4.975-8.234 4.274-3.581-2.593 4.088-6.033 3.939-6.256-3.732-5.589-3.712.322-6.075.349-5.25.058.825-.29 2.175-.788 3-1.106.825-.318 2.175-.489 3-.379 1.333.177 1.333.073 0-.937-1.271-.962-1.225-1.047.302-.553.991.321 1.593.246 1.338-.167-.255-.413 4.334-2.32 10.198-4.239 9.105-2.979 13.921-5.562 12.681-6.803-.175-.175-3.176 1.016-6.669 2.647-8.504 3.97-13.54 5.221-21.821 5.424-8.301.203-8.422.116-6.682-4.85.753-2.148 1.697-6.12 2.097-8.825.45-3.035 1.031-4.431 1.517-3.644.626 1.013 1.273.963 3.163-.245 3.8-2.429 18.643-7.311 27.876-9.169 4.675-.941 8.895-2.086 9.377-2.544.482-.458 2.007-.403 3.389.122 3.429 1.304 3.716.692 2.205-4.704-1.272-4.544-2.729-4.622-4.194-.227-.577 1.731-18.1 5.955-22.741 5.482-7.331-.747-23.322 5.927-28.264 11.796-1.716 2.038-1.728 2.033-1.75-.698-.014-1.731.509-2.75 1.411-2.75.788 0 4.501-2.47 8.25-5.49 8.893-7.162 14.077-9.522 22.454-10.225 3.775-.316 6.863-.912 6.863-1.323 0-1.681-3.6-1.933-8.402-.588-2.804.785-7.348 1.729-10.098 2.099-5.819.782-13.964 4.254-19.013 8.104-1.948 1.486-3.673 2.527-3.833 2.312-.16-.214-1.61-2.526-3.223-5.137-1.612-2.612-3.268-4.749-3.681-4.75-.413-.001-.75-.677-.75-1.502s.681-1.5 1.514-1.5c.832 0 2.295-.411 3.25-.914 7.337-3.864 15.387-6.659 25.135-8.728 11.723-2.488 23.101-7.906 23.101-11 0-.747.466-1.358 1.036-1.358 1.107 0 4.964-8.221 4.964-10.583 0-2.497-1.498-1.536-5.225 3.351-3.368 4.416-12.667 10.895-23.736 16.536-4.92 2.507-13.962 4.61-24.331 5.659-5.737.58-9.994 1.598-12.25 2.929-4.384 2.587-4.477 1.421-.161-2.023 5.538-4.418 9.44-13.114 11.201-24.963 1.872-12.596 2.873-15.862 5.956-19.45 1.302-1.516 2.135-3.364 1.85-4.106-.285-.743-.039-1.35.547-1.35 1.317 0 6.619-8.863 5.795-9.688-.329-.328-1.329.01-2.223.752-2.911 2.416-4.483 2.042-3.791-.903.847-3.598 1.384-4.054 5.108-4.338 3.287-.251 5.228-2.606 3.187-3.868-1.737-1.074-.131-6.649 2.515-8.731 3.094-2.433 4.199-6.041 2.097-6.847-1.044-.401-1.386-1.283-.986-2.543.395-1.244-.305-3.131-1.971-5.315-1.42-1.862-2.597-3.978-2.615-4.702C345.859 48.548 337 64.39 337 68.852c0 1.912-.775 3.438-2.25 4.427C329.491 76.806 316 93.626 316 96.656c0 1.332-6.111 12.498-9.312 17.014-1.882 2.656-3.234 5.351-3.003 5.988.231.637-.053 1.452-.632 1.809-.661.409-1.053-.661-1.053-2.873 0-1.938-.726-5.663-1.614-8.277-1.554-4.579-1.488-8.76.265-16.716.451-2.046.302-2.69-.506-2.191-.63.39-1.145.258-1.145-.292s.457-1.283 1.016-1.628c.559-.346.777-1.016.484-1.49-.293-.474-.027-1.174.59-1.556.772-.477.794-.897.072-1.344-.705-.435-.244-3.909 1.393-10.52C303.9 69.151 305 64.1 305 63.355c0-2.711-1.738-1.255-3.455 2.895a689.34 689.34 0 01-3.735 8.813c-1.087 2.51-1.977 6.668-1.977 9.24v4.677l-15.967 15.26c-8.782 8.393-16.586 16.385-17.342 17.76l-1.374 2.5-.825-2.19c-.454-1.205-1.275-2.236-1.825-2.291-.55-.056-.967-.96-.926-2.01.041-1.05-.327-1.662-.817-1.359-.49.303-.79-.057-.666-.8.123-.742-.022-2.025-.323-2.85-.301-.825-1.311-6-2.243-11.5-2.173-12.815-4.511-22.373-5.643-23.073-.489-.302-.66-1.759-.38-3.238.281-1.479.244-2.124-.081-1.433-1.005 2.134-2.181.44-1.644-2.367l.508-2.66 1.322 2.386 1.322 2.385.036-2.292c.065-4.206-2.247-5.427-3.991-2.109-1.452 2.761-1.636 2.826-3.767 1.334-1.232-.864-1.938-2.059-1.569-2.656s.246-.823-.274-.502c-.52.321-1.737-1.646-2.705-4.372l-1.76-4.956-2.769 2.777c-3.765 3.776-5.101 8.161-4.438 14.577.467 4.529.276 5.497-1.195 6.062-1.846.708-4.812-1.045-3.997-2.363.263-.425-.343-.987-1.346-1.249-1.313-.344-2.191-2.211-3.139-6.679-.918-4.325-1.596-5.805-2.241-4.887-.598.849-.76-.41-.459-3.559.257-2.68.892-5.155 1.412-5.5.769-.509 3.273-6.458 3.273-7.775 0-.666-2.503-.318-3.847.534M330 86c0 .55.788 1.007 1.75 1.015 1.376.012 1.457.201.38.883-1.124.712-1.07 1.036.296 1.8 2.812 1.575.344 5.564-6.596 10.661-3.482 2.556-6.819 5.045-7.416 5.531-.597.485-1.134 3.809-1.194 7.386-.205 12.382-2.274 16.106-14.849 26.724-6.557 5.537-11.436 15.606-8.455 17.448.504.312 4.585-.617 9.069-2.063 8.797-2.838 15.147-7.051 12.835-8.517-.966-.613-.783-.846.68-.868 1.659-.025 1.744-.196.5-1-1.282-.828-1.246-.972.25-.985 2.044-.018 2.057-.078.759-3.492-.83-2.182-.725-2.559.646-2.315.901.161 1.834-.271 2.075-.959.279-.797-.137-1.03-1.146-.643-.871.335-1.584.382-1.584.106 0-2.805 5.321-16.23 9.776-24.666C334.29 99.714 338.679 87 336.423 87c-.783 0-1.423-.45-1.423-1s-1.125-1-2.5-1-2.5.45-2.5 1m-16.642 67.77c.378.611-.152 1.925-1.176 2.92-2.311 2.247-3.385 5.067-2.206 5.795.488.302.246 1.779-.538 3.282-1.779 3.41-1.881 6.59-.188 5.862.688-.295 3.054-1.072 5.259-1.726 3.501-1.038 4.312-1.873 6.387-6.576 1.308-2.963 2.091-5.673 1.741-6.024-.35-.35-.637-.036-.637.697s-.279 1.055-.619.714c-.341-.34-1.273.035-2.071.834-2.049 2.048-3.214 1.802-2.6-.548.288-1.1.846-2 1.24-2s.717-.675.717-1.5-.564-1.5-1.252-1.5c-.688 0-2.037-.301-2.997-.67-1.147-.44-1.511-.289-1.06.44m-11.203 13.33c-1.839 1.673-3.902 2.827-4.582 2.566-.875-.336-1.582 2.062-2.412 8.18-.645 4.76-1.433 9.779-1.75 11.154-.385 1.668.491.835 2.63-2.5 1.764-2.75 4.655-6.8 6.425-9 1.77-2.2 3.535-5.35 3.923-7 .388-1.65.94-3.787 1.226-4.75.798-2.687-1.699-2.069-5.46 1.35m-24.477 22.969c-.823 6.949.12 10.882 2.914 12.155 4.224 1.924 6.098 12.773 2.658 15.384-1.32 1.002-1.4 1.336-.329 1.36.782.018 2.233.766 3.225 1.664 1.533 1.388 2.293 1.448 5.078.401 7.658-2.876 14.447-6.727 17.015-9.652 1.513-1.724 4.076-3.683 5.695-4.354 2.537-1.051 2.821-1.54 2.059-3.545-.641-1.685-.473-2.669.607-3.565.82-.68 1.279-1.789 1.021-2.462-.58-1.512 2.208-5.679 3.334-4.983.45.278 1.052-.389 1.338-1.483.306-1.173.025-1.989-.686-1.989-1.506 0-13.174 13.905-12.924 15.402.334 2.001-5.749 6.11-6.719 4.54-.704-1.139-1.448-1.082-4.437.344-3.93 1.874-3.912 1.889-4.989-4.286-1.676-9.597-1.594-9.495-7.219-9.048-2.475.196-3.746-1.738-4.733-7.202-.946-5.24-2.198-4.672-2.908 1.319m-51.61 33.981c-.038.853.472 2.09 1.132 2.75 1.852 1.852-.301 1.419-2.402-.483-1.73-1.566-1.976-1.568-3.514-.03-2 2.001-.299 6.214 2.84 7.035 2.61.683 2.341 2.145-.644 3.505-2.149.979-4.48 4.621-4.48 6.998 0 .383 1.143 1.928 2.54 3.435 1.766 1.904 2.096 2.74 1.084 2.74-.802 0-2.303-1.161-3.336-2.58-1.485-2.038-2.918-2.662-6.834-2.973-2.725-.217-6.373-.584-8.108-.814-2.577-.344-3.25-.029-3.68 1.723-.29 1.179-.958 3.818-1.484 5.864-.714 2.772-.631 3.992.324 4.785 1.495 1.24 4.494-1.186 4.494-3.635 0-.819.411-1.234.912-.924 1.704 1.052-.431 6.037-2.729 6.374-2.657.389-2.653.216-.118 5.08 1.136 2.179 2.104 5.343 2.152 7.031.098 3.45.464 3.625 3.224 1.537 5.1-3.857 19.929 1.701 27.751 10.401 3.98 4.427 9.309 7.369 7.218 3.985-.499-.806.076-.949 1.941-.481 2.245.564 2.649.34 2.649-1.467 0-2.2 2.745-2.367 7.25-.44 1.251.535 1.75.29 1.75-.859 0-.884.436-1.607.969-1.607.532 0 .709.675.393 1.5-.402 1.047.074 1.5 1.576 1.5 5.387 0 8.883 7.956 5.573 12.682-1.302 1.857-1.31 2.635-.068 6.156 1.798 5.097.666 6.265-6.726 6.935-4.684.424-8.717 2.378-8.717 4.222 0 .377 2.137.68 4.75.673 2.613-.007 5.957.291 7.432.662 2.185.549 2.808.276 3.364-1.474.374-1.181 2.418-4.031 4.54-6.334l3.859-4.186-2.972-2.198c-3.892-2.877-4.098-7.733-.473-11.138 3.223-3.028 3.15-3.454-.639-3.721-1.725-.121-3.36-.444-3.634-.718-.932-.932 2.593-5.227 4.437-5.406 2.741-.267 7.586-.23 9.728.076 1.041.148 2.091-.293 2.334-.981.279-.791-.507-1.25-2.143-1.25-1.486 0-2.583-.566-2.583-1.333 0-2.076 1.184-2.76 2.658-1.536.898.746 1.342.766 1.342.063 0-1.462-2.877-4.194-4.416-4.194-1.83 0-4.901-3.678-4.123-4.937.398-.643-.339-1.063-1.867-1.063-3.286 0-4.592 2.59-4.08 8.088.377 4.05.291 4.253-1.052 2.471-1.925-2.556-1.866-8.012.108-9.986 2.115-2.115 6.715-3.219 7.211-1.731.712 2.136 2.219 1.185 2.219-1.401 0-1.699.393-2.316 1.17-1.836.784.485.961.18.537-.926-.402-1.049.048-2.013 1.24-2.651 1.226-.656 1.692-1.694 1.349-3.005-.378-1.445.113-2.239 1.761-2.848 1.5-.555 1.883-1.094 1.114-1.569-1.652-1.021-1.457-6.123.288-7.572 1.851-1.536 7.541-.394 7.541 1.514 0 1.551 2.662.891 4.758-1.178 1.711-1.69-.276-2.899-4.103-2.498-1.869.196-3.504-.406-4.758-1.752-1.894-2.033-4.897-1.918-4.897.187 0 .766-.34.753-1.136-.043-.847-.847-.697-1.574.594-2.865 3.448-3.447 17.327 1.521 20.003 7.161 1.597 3.364 1.828 3.492 3.869 2.146 1.193-.788 2.322-2.732 2.508-4.319.187-1.588.804-3.449 1.373-4.137.744-.9.632-1.25-.4-1.25-.789 0-2.419-.918-3.622-2.039-1.681-1.565-2.189-1.695-2.189-.559 0 1.828-.59 2.186-5 3.041-2.327.451-3.038.36-2.122-.271.758-.521 1.069-1.449.691-2.06-.938-1.518-5.569-1.413-5.569.126 0 .681-1.184-.425-2.63-2.458l-2.63-3.697-3.12 1.598c-3.667 1.878-4.633 3.123-3.901 5.029.4 1.043-.076 1.238-1.904.78-2.954-.742-6.055 4.107-3.616 5.654.971.616.857.829-.449.841-1.805.015-2.471 2.589-.824 3.182.509.183 1.209 1.474 1.555 2.868.547 2.207.09 2.823-3.525 4.752l-4.152 2.217-3.152-3.344c-1.734-1.839-4.111-4.518-5.283-5.953-1.172-1.435-3.422-2.883-5-3.218-6.062-1.285-7.188-4.296-4.986-13.327.767-3.143.695-3.274-1.218-2.25-2.546 1.362-4.481 1.409-3.665.088.34-.55-.293-1-1.406-1-2.405 0-4.191 2.899-3.619 5.873.48 2.49-.71 2.749-2.84.619-.934-.934-1.744-1.124-2.13-.5-1.193 1.93-2.612 1.076-1.54-.926 1.36-2.542 1.306-3.066-.312-3.066-.741 0-1.836-1.012-2.433-2.25-.716-1.485-1.108-1.723-1.152-.7m76.973 60.994c-1.902 1.061-3.922 2.083-4.488 2.272-.674.224-.593 1.3.233 3.113 1.048 2.301 1.004 3.286-.262 5.824-.838 1.68-1.524 3.63-1.524 4.333 0 1.526 3.526 2.825 5.072 1.869 1.443-.891 6.605 4.123 7.366 7.155.506 2.017 1.218 2.39 4.561 2.39 3.657 0 4.124.325 6.097 4.25 4.985 9.914 8.018 11.08 17.096 6.573 7.654-3.801 8.138-4.933 3.428-8.021-3.2-2.097-3.408-2.592-3.896-9.259-.613-8.392-.888-7.928 3.59-6.056 1.992.832 4.739 1.513 6.105 1.513 1.366 0 5.651 1.655 9.522 3.677 6.797 3.55 10.448 3.962 6.486.731-1.658-1.352-1.683-1.495-.177-1.021.962.303 1.75.214 1.75-.196 0-1.165-3.761-4.097-4.415-3.442-.322.321-.585.063-.585-.575 0-.705-1.511-1.1-3.855-1.009-4.168.164-9.314-2.472-6.965-3.567.726-.339-.975-.416-3.779-.172-5.044.439-5.095.415-4.745-2.241.194-1.477.082-2.104-.249-1.393-.477 1.025-.907 1.038-2.08.064-1.182-.981-1.662-.939-2.388.208-.5.79-.915.96-.924.377-.014-1.014-13.046-5.434-16.061-5.448-.8-.003-2.804-.9-4.454-1.993-3.699-2.45-6.005-2.44-10.459.044M306 365.276c0 1.421-1.111 1.627-7.75 1.441-6.167-.173-7.69.067-7.454 1.171.226 1.062-.545 1.252-3.272.81-2.121-.345-3.333-.198-2.987.361.319.518 1.381.941 2.359.941 1.383 0 7.287 3.637 13.939 8.588.274.203-1.87 5.415-3.562 8.662-.215.413.337.75 1.227.75.89 0 1.347-.439 1.015-.975-.331-.536 1.159-2.899 3.311-5.25s4.25-5.359 4.662-6.684l.748-2.41 1.614 2.66c1.745 2.875 4.15 3.566 4.15 1.19 0-.891.587-1.243 1.494-.895 2.333.895 3.571-3.608 1.754-6.381-1.7-2.594-3.774-2.933-4.61-.755-.695 1.811-3.625 2.011-3.67.25-.053-2.103-2.968-5.514-2.968-3.474m-39.348 38.188c-.359.935-.652 3.183-.652 4.995 0 3.173-2.025 6.183-3.301 4.906-.34-.339-2.835.542-5.546 1.96-2.71 1.417-6.076 2.73-7.48 2.918-1.404.188-4.942 1.894-7.863 3.791-2.92 1.897-6.923 4.251-8.893 5.23-3.509 1.743-4.915 4.736-2.225 4.736.747 0 3.709-.863 6.583-1.917 27.801-10.201 30.359-11.846 32.004-20.583.684-3.626-1.567-8.797-2.627-6.036" fill="#d3d3d3" fill-rule="evenodd"/></svg>