<svg xmlns="http://www.w3.org/2000/svg" width="500" height="881"><path d="M300.92 115.793c-.869 2.625-1.458 6.783-1.308 9.24.15 2.457.297 46.359.327 97.559.053 89.801.121 93.153 1.935 94.794 1.666 1.508 30.341 3.12 47.876 2.691 1.238-.03 2.25.299 2.25.731 0 .433 4.275.754 9.5.715 5.225-.039 9.5.203 9.5.537 0 .869 7.305.811 8.5-.068.55-.404 1.9-.554 3-.333 1.781.358 22.474 1.524 25 1.408.55-.025 2.48-.204 4.289-.398 1.809-.194 3.545.063 3.859.57.314.508 1.619.66 2.9.338 1.281-.321 2.597-.152 2.923.377.677 1.094 6.524.93 6.527-.184.001-.401 2.139-.47 4.752-.152 2.613.317 5.762.696 7 .842 1.238.146 2.25-.036 2.25-.403 0-.368 1.012-.692 2.25-.721 6.286-.147 7.75-.436 7.75-1.531 0-.658 1.109-2.354 2.465-3.769l2.466-2.573 1.007-37.482c.554-20.614 1.24-45.806 1.524-55.981.284-10.175.749-28.4 1.034-40.5.285-12.1.797-31.05 1.139-42.112.445-14.448.302-20.309-.508-20.809-.62-.383-1.127-2.245-1.127-4.138V111l-78.75.01-78.75.01-1.58 4.773m-241.17-3.065c-3.286.344-3.758.726-3.816 3.082-.212 8.588.144 41.539.564 52.19.27 6.875.737 22.4 1.036 34.5.3 12.1 1.195 41.35 1.99 65 .794 23.65 1.452 44.144 1.46 45.543.03 4.844 3.073 5.059 80.031 5.632 68.995.514 70.568.483 72.941-1.438l2.424-1.963.271-27.387c.149-15.063.504-59.029.79-97.702l.519-70.315-2.48-2.481c-1.364-1.364-2.48-3.134-2.48-3.934 0-1.262-9.933-1.433-74.75-1.287-41.112.093-76.437.345-78.5.56m260.619 2.046l-16.131.274-.606 53.726c-.334 29.549-.855 74.051-1.159 98.892-.375 30.583-.22 45.373.48 45.805.568.351 34.518.318 75.444-.074l74.411-.712.621-14.092c2.1-47.682 4.342-182.157 3.059-183.437-.642-.639-103.918-.929-136.119-.382m-260.764.937c-2.201.571-2.112 8.345 1.439 126.789 1.072 35.75 1.951 66.462 1.952 68.25L63 314h150.278l-.653-81.25c-.632-78.72-1.369-115.715-2.328-116.75-.603-.651-148.205-.934-150.692-.289m84.526 30.146c-.092 1.658-.576 2.186-1.631 1.781-.905-.347-1.5-.005-1.5.862s.595 1.209 1.5.862c1.183-.454 1.5.291 1.5 3.531 0 2.259-.45 4.107-1 4.107s-.986 1.012-.968 2.25c.031 2.194.068 2.201 1.5.309 1.255-1.66 1.468-1.701 1.468-.281 0 .914.9 3.264 2 5.222 2.792 4.971 2.57 5.74-1.5 5.191-1.925-.259-3.5-.166-3.5.206 0 .373-1.007.753-2.237.846-1.529.115-1.819-.09-.917-.648 1.057-.653 1.01-.936-.236-1.414-.908-.349-1.972.114-2.553 1.111-.824 1.413-1.007 1.189-1.058-1.292-.076-3.654-2.999-8.331-2.999-4.798 0 1.146-.712 2.357-1.582 2.691-2.059.79-2.452.766-2.259-.143.155-.732-.361-2.352-2.253-7.075-.512-1.279-.674-2.741-.36-3.25.315-.509.127-.925-.417-.925-.545 0-1.185-1.012-1.423-2.25-.372-1.929-.453-1.858-.57.5-.103 2.081-.645 2.75-2.23 2.75-1.252 0-2.303.803-2.616 2-.288 1.1-1.146 2-1.907 2-.76 0-1.383.477-1.383 1.059s-.435.79-.967.461-.687-2-.344-3.714c.445-2.225.292-2.912-.533-2.402-1.258.777-1.586-.875-1.223-6.154.123-1.795-.259-3.25-.855-3.25-.593 0-1.078 1.69-1.078 3.757 0 2.066-.419 5.216-.93 7-.574 2-.574 3.243 0 3.243.511 0 .93-.675.93-1.5s.502-1.5 1.117-1.5.887.877.606 1.952c-.281 1.074.004 2.163.633 2.421s-.093.505-1.606.548c-1.513.043-2.75-.357-2.75-.89 0-.532-.648-.72-1.439-.416-.811.311-1.994-.335-2.709-1.48-.945-1.513-1.6-1.759-2.561-.962-1.873 1.555-1.605 2.363 1.209 3.645 1.978.901 2.5 1.875 2.5 4.661 0 3.661-1.514 4.821-2.311 1.771-.353-1.351-.483-1.251-.573.441-.162 3.068-1.16 3.323-4.616 1.18l-3-1.86 2.5-.105 2.5-.105-2.487-.693c-1.368-.38-3.753-.506-5.3-.279-3.504.514-3.314 3.321.282 4.17 1.751.413 2.104.822 1.196 1.383-.986.609-1.016 1.124-.127 2.195.981 1.182 1.608 1.081 4.048-.657 1.589-1.131 2.921-1.913 2.962-1.738 1.004 4.298.834 4.818-1.58 4.818-1.372 0-2.494.466-2.494 1.035 0 .698-.659.682-2.024-.048-1.549-.829-2.365-.741-3.482.376-.802.802-1.997 1.638-2.656 1.858-2.145.715-.133 3.669 2.101 3.085 1.173-.307 2.061-.058 2.061.577 0 .615.9 1.117 2 1.117 1.111 0 2 .667 2 1.5 0 .825.689 1.5 1.531 1.5.843 0 1.791-.675 2.107-1.5.317-.825 1.54-1.486 2.719-1.468 2.03.03 2.047.104.333 1.404-2.127 1.613-1.195 2.428 2.31 2.021a102.83 102.83 0 013.75-.374c.688-.046 1.25-1.01 1.25-2.142s-.45-1.781-1-1.441c-.55.34-1 .141-1-.441s.9-1.059 2-1.059c1.227 0 2.012.677 2.03 1.75.029 1.667.079 1.667 1.05 0 .561-.963 1.672-1.75 2.47-1.75 2.59 0 1.533 2.061-1.8 3.509-3.09 1.343-3.127 1.42-.75 1.57 1.375.087 3.063.085 3.75-.004.688-.09 1.25.587 1.25 1.504 0 1.308.298 1.418 1.388.514 1.554-1.289 9.612-.415 9.612 1.043 0 .485.867.34 1.926-.322 1.725-1.077 1.761-1.322.347-2.356-.868-.635-1.277-1.642-.909-2.237.368-.596.254-1.339-.254-1.653-1.639-1.013-.069-4.485 1.739-3.845 1.296.458 1.222.149-.349-1.443-1.952-1.979-5.237-1.282-3.93.833.301.488.057.887-.542.887-.6 0-1.345-.663-1.657-1.474-.672-1.753 2.176-4.924 3.621-4.031.555.343 1.008.199 1.008-.319 0-.519-.9-1.178-2-1.466-1.1-.287-2.007-1.352-2.015-2.366-.013-1.557-.167-1.61-.985-.344-.803 1.243-.972 1.157-.983-.5-.011-1.618.737-2.051 3.914-2.269 4.353-.298 6.077 1.084 3.34 2.677-1.973 1.149-.835 1.39 7.187 1.525 2.965.05 4.222.589 5.008 2.148.577 1.144 1.605 1.895 2.284 1.669.897-.299.954-.935.207-2.331-.565-1.055-.674-1.97-.242-2.033 5.671-.824 6.398-.714 6.084.919-.18.932-.883 1.695-1.563 1.695-2.11 0-.856 1.997 1.289 2.052 1.114.029 2.576.393 3.25.809 1.796 1.11 1.495 2.68-.376 1.962-.88-.338-2.005.014-2.5.781-.761 1.182-1.05 1.166-1.884-.104-.851-1.297-.986-1.273-1 .179-.016 1.841 2.075 4.264 5.063 5.863 3.063 1.639 2.245 2.718-2.107 2.778-4.436.061-15.099-2.432-15.939-3.728-.293-.45-1.432-.469-2.532-.04-1.751.682-1.603.865 1.186 1.475 1.752.384 3.44 1.358 3.749 2.165.406 1.058 1.395 1.285 3.547.812 2.468-.542 3.414-.167 5.469 2.17 2.452 2.787 2.486 2.794 2.517.517.019-1.35.467-2.04 1.08-1.661.576.356.914 1.578.75 2.716-.164 1.137.312 2.276 1.057 2.529.981.334 1.169-.123.683-1.657-.399-1.254-.238-2.118.395-2.118.587 0 1.067.675 1.067 1.5s.787 1.518 1.75 1.541c1.305.03.883.782-1.663 2.958-1.876 1.605-3.788 2.686-4.248 2.402-.459-.284-1.836.184-3.06 1.041-1.789 1.253-1.893 1.558-.533 1.558 1.121 0 1.49.526 1.093 1.56-.4 1.041.108 1.744 1.531 2.116 2.159.565 3.079 4.324 1.059 4.324-1.759 0-3.929-2.712-3.929-4.909 0-1.871-.42-1.997-4.75-1.417-2.613.349-4.9 1.015-5.083 1.48-.527 1.336-5.15.984-5.319-.404-.084-.687-.257-1.7-.385-2.25s-.291-1.675-.363-2.5c-.105-1.202-.298-1.237-.972-.173-.462.73-1.468 1.183-2.234 1.007-.767-.176-1.407.127-1.424.673-.016.546.547.861 1.25.699.704-.161 1.28.176 1.28.75 0 .574-1.013 1.096-2.25 1.16-1.693.087-1.817.229-.5.573 2.036.532 2.095.798.735 3.34-.595 1.111-1.635 1.659-2.512 1.322-.993-.381-1.317-.108-.963.815.399 1.04-.412 1.369-3.239 1.312-3.7-.075-8.271-2.163-8.271-3.778 0-.45-.45-.54-1-.2s-1-.139-1-1.063c0-1.382.268-1.46 1.5-.437 1.036.86 1.5.898 1.5.122 0-.627 1.631-1.122 3.7-1.122 2.878 0 3.433-.267 2.5-1.2-1.663-1.663-1.501-2.575.55-3.111.963-.251.036-.509-2.059-.573-2.143-.065-3.551-.534-3.218-1.072.325-.526 1.194-.725 1.93-.443.736.283 1.585-.127 1.886-.911.441-1.149-.341-1.326-4.021-.911-3.284.37-4.369.193-3.859-.632.638-1.033.221-1.246-2.159-1.102-.412.025-.599.985-.415 2.133.284 1.765-.067 2.011-2.273 1.589-1.436-.274-2.814-.168-3.063.235-.943 1.525-11.499.925-11.499-.654 0-.97-.782-1.376-2.25-1.168-2.283.325-2.809 4.86-.655 5.653.498.184.941 1.084.984 2 .045.95.511.483 1.083-1.083 1.026-2.808 2.826-3.755 2.853-1.5.012.952.197.965.775.055.418-.657 1.648-1.029 2.735-.826 1.086.202 2.313.402 2.725.444 1.714.175.578 1.971-1.5 2.371-1.627.314-1.35.471 1 .57 1.787.075 3.25.508 3.25.963 0 .455 1.414.619 3.142.365 4.733-.694 2.655 1.498-2.196 2.317-3.438.581-4.337.346-5.995-1.566-1.435-1.655-1.951-1.845-1.951-.721 0 .84-.281 2.934-.625 4.653-.436 2.182-.243 3.125.64 3.125.695 0 1.862.787 2.593 1.75 1.23 1.621 1.331 1.585 1.36-.494.031-2.141 2.842-2.779 4.582-1.04.33.331 2.019.194 3.752-.303 1.734-.497 3.912-.662 4.841-.368.929.295 1.942.127 2.251-.374.596-.964 8.183.073 9.394 1.284.39.39.035 1.234-.79 1.877-.867.676-1.645 3.273-1.847 6.168-.436 6.236-.346 6.16-5.433 4.616-7.786-2.364-15.46-1.811-10.989.792 1.642.956 1.625 1.034-.229 1.068-1.617.029-1.441.328.922 1.56 2.341 1.221 3.087 1.27 3.75.244.59-.911 1.044-.961 1.578-.172.879 1.3 4.048.994 5.581-.539 3.036-3.036 5.769.912 3.299 4.768-.499.78-.428 1.765.17 2.363 1.205 1.205 3.502.098 2.652-1.278-.808-1.307.458-4.922 1.724-4.922.627 0 .776 1.055.374 2.655-.431 1.721-.206 2.961.642 3.524.998.663.657 1.404-1.442 3.132-3.17 2.61-3.66 4.246-.816 2.724 2.746-1.469 3.066-1.329 3.066 1.343 0 2.889-2.161 4.881-4.373 4.032-.941-.361-1.627-.122-1.627.566 0 .655-.558 1.005-1.241.777-.683-.228-1.808.153-2.5.845-1.811 1.811-1.55 2.628.491 1.537 2.833-1.514 14.25-1.02 14.25.616 0 .852-.856 1.256-2.25 1.062-1.898-.264-2.3.21-2.57 3.032-.297 3.097-.424 3.208-1.719 1.5-1.296-1.711-1.4-1.718-1.429-.095a1.884 1.884 0 01-1.782 1.82c-1.491.06-1.457.185.234.845 2.67 1.043 5.312.244 5.846-1.768.384-1.443.452-1.43.554.103.064.962.891 1.75 1.839 1.75 1.415 0 1.325.278-.502 1.558-1.224.857-2.633 1.305-3.133.997-1.418-.877-4.088.501-4.088 2.111 0 .913-.464 1.161-1.25.668-.687-.431-2.037-.655-3-.496-.963.158-1.75-.191-1.75-.775 0-.585-.477-1.063-1.059-1.063s-.734.526-.336 1.17c.483.782.182.962-.909.544-.898-.345-1.898-.196-2.223.33-.81 1.311-5.473 1.213-5.473-.115 0-.59-.707-.365-1.571.5-1.767 1.766-5.982 2.104-6.939.555-.922-1.492-2.499-.171-1.842 1.542.309.805.917 1.243 1.352.974.435-.269 1.067.233 1.405 1.114.564 1.469.819 1.469 3.053.005 2.412-1.58 4.333-.708 3.042 1.381-.34.55-.141 1 .441 1s1.059-.9 1.059-2c0-2.743 4.616-2.785 5.484-.051.349 1.1 1.205 1.724 1.966 1.432.741-.285 1.634-.053 1.985.514.406.657 1.89.327 4.101-.915l3.464-1.946v2.413c0 2.206.258 2.339 3 1.553 1.8-.516 3-.488 3 .07 0 .511.702.93 1.559.93s1.302-.416.988-.924c-.314-.509.222-1.131 1.191-1.384 1.665-.435 1.665-.466.012-.576-2.174-.144-2.246-1.46-.174-3.179.932-.774 1.852-.926 2.25-.373.371.515 1.799.94 3.174.945 1.825.006 2.586.614 2.82 2.25.175 1.232-.162 2.241-.75 2.241-.589 0-1.07.45-1.07 1s.675 1 1.5 1c1.033 0 1.5-1.037 1.5-3.333 0-2.282.469-3.334 1.486-3.334 1.767 0 2.813 2.724 1.93 5.026-.394 1.027-.122 1.635.727 1.626 2.199-.025 3.662-1.343 4.793-4.316 1.118-2.941 3.372-2.837 2.426.113-.322 1.003-.199 1.302.294.718.464-.55 2.194-1.136 3.844-1.302 1.65-.166 3.563-1.04 4.25-1.941.688-.902 1.257-1.216 1.265-.698.009.517.433.281.943-.525.588-.93.538-1.937-.138-2.75-1.432-1.727-3.752-1.625-4.45.195-.336.875-1.446 1.313-2.719 1.074-1.183-.222-2.713-.438-3.401-.479-2.942-.175-1.133-3.079 2-3.21 2.078-.087 2.492-.286 1.148-.55-2.863-.564-2.117-5.314.835-5.314 1.509 0 1.872.492 1.476 2.004-.649 2.481 3.295 3.788 6.605 2.188 1.776-.858 1.858-1.069.436-1.124-1.263-.049-1.75-.903-1.75-3.068 0-3.056 1.292-3.954 2.613-1.816.961 1.553 2.253-1.981 1.616-4.418-.638-2.436-1.879-2.212-2.58.467-1.032 3.949-2.437.61-2.972-7.067-.578-8.28-1.677-10.869-1.677-3.949 0 3.709-.37 4.646-2 5.073-1.1.287-2 1.063-2 1.723 0 .67.68.94 1.538.611 1.919-.737 3.154 2.084 1.595 3.643-.844.844-1.133.796-1.133-.189 0-1.011-.325-1.053-1.378-.179-2.5 2.074-6.622-.338-6.622-3.874 0-1.664-.502-3.025-1.117-3.025-.624 0-.886.882-.594 1.999.288 1.099.115 2.251-.383 2.559-.498.308-.906-.142-.906-.999 0-2.159-2.983-1.974-3.07.191-.062 1.531-.165 1.508-.825-.177-.676-1.724-.823-1.75-1.399-.25-.799 2.083-2.706 2.207-2.706.177 0-.825.787-1.514 1.75-1.53 1.654-.029 1.653-.088-.021-1.062-2.132-1.241-1.338-3.079.951-2.201 1.308.503 1.517.104 1.097-2.092-.765-4.001 2.072-7.121 5.657-6.221 2.518.632 2.714 1.002 2.145 4.036-.56 2.986-.353 3.41 1.943 3.986 1.414.355 2.912.434 3.33.175 1.068-.66.136-7.591-1.02-7.591-.523 0-.642-.498-.266-1.107.486-.787.905-.749 1.45.132.546.884.945.672 1.393-.737 1.196-3.769 9.574-1.649 8.832 2.234-.276 1.441-.007 2.478.642 2.478.615 0 1.117-.642 1.117-1.427 0-.784.787-1.632 1.75-1.884 1.598-.417 1.59-.467-.083-.573-3.52-.223-.976-2.621 3.411-3.216l4.422-.6-4.75-.15c-2.612-.082-4.697-.488-4.632-.9.339-2.142-.329-3.142-2.29-3.43-2.922-.43-3.558-2.816-.933-3.503 1.158-.303 2.105-1.199 2.105-1.993 0-.793.45-1.164 1-.824.55.34 1-.084 1-.941s.338-1.552.75-1.544c1.332.027 3.425 1.682 3.284 2.597-.258 1.677.779 4.388 1.68 4.388.495 0 .807-1.35.693-3-.114-1.65.149-3 .586-3 1.088 0 2.142 2.972 1.451 4.09-.309.501.258.91 1.26.91s2.266 1.01 2.809 2.244c.543 1.234 1.887 2.4 2.987 2.59l2 .346-2-1.59c-1.891-1.504-1.905-1.664-.25-2.95 3.146-2.445.481-6.89-3.5-5.838-.412.109-.75-.529-.75-1.419 0-1.114.61-1.457 1.963-1.103 2.524.66 3.757-.955 3.838-5.03.064-3.166-2.022-4.162-7.051-3.368-1.27.2-.84-.792 1.25-2.882 1.1-1.1 2.45-2 3-2 .55 0 1.007-.562 1.015-1.25.011-.833.339-.75.985.25.661 1.022.963-1.686.949-8.5l-.021-10-2.252 2.75c-2.472 3.019-4.235 3.65-3.286 1.176.332-.866-.069-2.248-.893-3.072-2.128-2.128-1.855-3.352.753-3.369 1.238-.009 2.925-.452 3.75-.985 1.282-.828 1.246-.972-.25-.985-2.227-.019-2.228-.945-.002-2.573 2.834-2.072.461-2.997-2.779-1.083-2.843 1.68-2.973 1.678-3.071-.052-.057-.994-.48-.232-.941 1.693-.461 1.925-.596 4.494-.299 5.708.505 2.075.336 2.151-2.803 1.25-4.121-1.182-4.111-1.182-3.355.042.987 1.597-.665 1.157-2.817-.75-1.448-1.283-2.092-1.416-2.412-.5-.241.688-1.327 1.25-2.413 1.25-1.087 0-1.739.384-1.449.853.956 1.546-1.862 4.294-3.685 3.594-2.597-.996-2.347-7.577.352-9.262 1.668-1.042 1.84-1.581.878-2.741-1.801-2.169.598-1.825 2.757.396 2.152 2.213 5.289 3.476 5.289 2.129 0-.533.675-.969 1.5-.969s1.5-.408 1.5-.906c0-.499-.895-.673-1.988-.387-1.357.355-2.17-.071-2.564-1.344-.316-1.024-1.279-3.3-2.139-5.057-.86-1.757-1.339-4.37-1.064-5.808.386-2.017.161-2.484-.984-2.045-1.048.402-1.304.102-.872-1.023.336-.877.611-2.007.611-2.512 0-.505.675-.918 1.5-.918s1.5-.45 1.5-1-.9-1-2-1c-1.5 0-2 .667-2 2.667 0 5.622-1.62 1.515-2.63-6.667-.305-2.475-.975-5.175-1.487-6-.61-.982-.716.117-.305 3.179.345 2.573.3 5.209-.1 5.857-1.219 1.971-2.428-1.026-2.637-6.536l-.19-5-.383 4.25c-.211 2.338-.777 4.25-1.258 4.25-1.561 0-2.214 4.049-.907 5.624 1.033 1.245 1.002 1.697-.167 2.437-1.326.839-3.836 1.27-4.011.689-.042-.137-.658-4.075-1.369-8.75s-1.352-7.439-1.425-6.143m5.744 76.035c1.913 1.658 2.033 2.217.975 4.538-.677 1.485-1.773 2.43-2.496 2.152-.71-.272-1.586-.016-1.947.568-.438.709-.974.612-1.608-.293-.765-1.091-1.053-1.104-1.472-.065-.42 1.041-.816 1.047-2.04.032-1.28-1.063-1.451-.953-1.093.708.234 1.082.961 1.855 1.615 1.718.655-.138 1.191.148 1.191.633 0 1.602 4.09 2.047 4.68.51.343-.896 1.278-1.224 2.438-.855 1.435.455 1.882.098 1.882-1.506 0-1.694.341-1.92 1.753-1.164 1.231.659 2.796.395 5.25-.886 3.152-1.644 3.3-1.898 1.497-2.58-1.1-.416-2.338-1.239-2.75-1.829-.505-.722-1.072-.582-1.735.427-.728 1.11-.988 1.156-1 .179-.023-2.041-2.631-4.179-5.097-4.179h-2.224l2.181 1.892M98.5 543.015c-46.468.509-46.247.516 19.5.614 36.575.055 84.5-.21 106.5-.587 39.203-.673 38.814-.686-19.5-.615-32.725.04-80.65.305-106.5.588m302.583-.638c1.144 1.035 98.917 1.747 98.917.72 0-.781-14.283-1.097-49.667-1.097-27.316 0-49.479.17-49.25.377M480 561c1.622 1.048.906 1.299-3.012 1.056-1.949-.122-2.77.527-3.663 2.894-1.129 2.992-1.091 3.052 2.012 3.15 4.923.155 8.174 1.392 8.05 3.064-.169 2.276 3.485 4.333 4.233 2.384.506-1.319.749-1.321 2.049-.022 1.647 1.647 3.331 1.942 3.331.582 0-.49 1.125-1.174 2.5-1.519 1.452-.364 2.506-1.353 2.515-2.358.013-1.458.163-1.499.948-.257.597.944.551 1.709-.129 2.129-.692.427-.586.844.303 1.2 1.118.447 1.093.736-.137 1.606-1.017.719-1.097 1.065-.25 1.076 1.309.016 1.793 6.139.581 7.351-.368.367-1.38.056-2.25-.692-.869-.749-3.088-1.867-4.929-2.485-3.004-1.008-3.402-.919-3.867.859-.613 2.346-2.113 2.593-2.923.482-.612-1.594-3.362-2.103-3.362-.622 0 1.404 2.608 3.176 3.479 2.363.437-.407.593-.094.345.697-.726 2.322-2.911 2.447-3.498.199-.416-1.59-1.197-1.997-3.354-1.745-2.125.247-2.939-.159-3.332-1.662-.354-1.353-1.046-1.788-2.162-1.36-.903.347-2.505.63-3.56.63-1.154 0-1.924.697-1.933 1.75-.012 1.363-.206 1.45-.875.393-.561-.885-1.645-1.108-3.117-.641-2.717.863-.908 2.458 2.816 2.483 1.27.008 2.043.445 1.718.972-.344.556.677.796 2.441.572 2.062-.261 3.032.047 3.032.96 0 .739 1.351 1.941 3.002 2.672 1.651.731 2.849 1.781 2.662 2.334-.187.553.375 1.598 1.248 2.322 1.352 1.121.955 1.247-2.662.845-3.678-.408-4.25-.215-4.25 1.433 0 1.238.7 1.905 2 1.905 3.362 0 2.221 1.491-1.25 1.632-5.511.224-7.222.798-7.992 2.682-.407.998-1.195 1.534-1.75 1.191-.554-.343-1.008-.177-1.008.369 0 .545.825 1.253 1.833 1.573 3.115.989 2.295 3.74-.904 3.037-1.517-.333-3.031-.129-3.393.457-.382.619.232 1.059 1.476 1.059 2.264 0 4.988 2.146 4.988 3.929 0 .589.675 1.071 1.5 1.071s1.5.423 1.5.941c0 1.862-1.996 2.113-4.892.615-2.259-1.168-3.058-1.236-3.405-.291-.358.977-.73.973-1.778-.015-1.089-1.027-.994-1.25.53-1.25 1.792 0 1.793-.068.045-2-.995-1.1-2.753-2.007-3.905-2.015-1.62-.012-1.775-.218-.683-.91 1.181-.747 1.111-1.195-.431-2.734-1.79-1.788-1.826-1.776-1.255.409.403 1.545.146 2.25-.82 2.25-.773 0-1.406-.436-1.406-.969 0-.532-.755-.679-1.677-.325-1.504.577-1.478.73.25 1.483 1.526.664 1.354.761-.823.464-1.837-.251-2.75.076-2.75.986 0 2.054-1.696 1.632-2.27-.564-.377-1.439-.09-1.794 1.133-1.406 1.286.408 1.344.311.274-.454-1.109-.791-1.118-1.055-.051-1.41.943-.315.834-.622-.387-1.09-1.123-.431-1.699-.155-1.699.816 0 .808-.502 1.469-1.117 1.469-.624 0-.886-.882-.593-2 .347-1.328.03-2-.943-2-.806 0-1.243-.359-.972-.798.271-.439.08-1.451-.426-2.25-.668-1.055-.923-1.1-.934-.163-.01.844-.743.611-2.121-.673-1.159-1.08-1.807-2.447-1.441-3.039.366-.593.204-1.077-.359-1.077s-1.492.876-2.065 1.946c-1.142 2.133-5.725 1.324-9.134-1.612-.883-.76-2.346-1.098-3.25-.751-.916.351-1.645.14-1.645-.476 0-.609-.648-1.107-1.441-1.107s-1.766-.526-2.164-1.17c-.483-.782-.182-.962.909-.544.898.345 1.898.196 2.223-.33.325-.526-.111-.956-.968-.956s-1.559-.45-1.559-1-.765-1-1.7-1c-1.269 0-1.412.288-.564 1.136.847.847.761 1.51-.34 2.611-1.3 1.3-1.263 1.63.313 2.782 1.013.741 1.404 1.668.903 2.139-.487.458-1.087.27-1.332-.418-.246-.687-.863-1.25-1.372-1.25-.509 0-.359.91.334 2.022.956 1.537 1.978 1.9 4.258 1.512 1.65-.281 2.435-.252 1.744.063-.691.316-.972 1.034-.625 1.596.387.626-.108.787-1.281.414-1.396-.443-1.951-.101-2.053 1.265-.148 1.953 3.452 4.191 6.512 4.049 1.042-.048 1.218-.275.453-.583-.687-.278-1.25-1.169-1.25-1.98 0-.812.45-1.198 1-.858.55.34 1 .141 1-.441s.675-1.059 1.5-1.059c2.077 0 1.888 1.752-.25 2.311-.962.251-.175.554 1.75.673 3.318.204 3.37.261 1 1.1-1.879.665-1.382.76 2 .386 2.475-.274 4.012-.154 3.415.266-.597.42-1.596 1.664-2.22 2.764-.624 1.1-1.148 1.5-1.165.889-.016-.615-1.053-.916-2.32-.674-4.52.864-5.797 9.488-1.602 10.819 2.305.732 2.447 2.039.31 2.859-2.282.876-3.622.746-2.983-.288.305-.493-.169-1.173-1.052-1.512-1.084-.415-1.438-.179-1.09.729.36.937-.369 1.345-2.406 1.345-1.682 0-3.572.813-4.452 1.916-1.427 1.789-1.484 1.684-.852-1.563.6-3.087.499-3.333-.894-2.177-.863.717-1.324 1.945-1.023 2.73.371.965-.153 1.427-1.618 1.427-1.191 0-1.888-.45-1.548-1 .34-.55.029-.993-.691-.985-1.962.023-4.139 1.642-3.531 2.626.294.476-1.561.943-4.122 1.039-4.146.155-4.412.043-2.428-1.026l2.228-1.201-2.057-1.284c-1.809-1.13-2.122-1.03-2.609.83-.325 1.242-1.107 1.902-1.895 1.599-.738-.283-1.747.209-2.242 1.093-.576 1.029-1.666 1.408-3.027 1.052-1.169-.306-2.126-.148-2.126.351 0 .498 1.575.906 3.5.906s3.5.439 3.5.975c0 .863-2.176.746-8.25-.445-1.893-.371-2.386.959-.734 1.98.559.346.737 1.081.395 1.634-.365.59-1.431.138-2.576-1.091-1.075-1.153-2.339-1.86-2.809-1.569-.47.291-1.036-.015-1.258-.679-.312-.937-.567-.939-1.144-.006-.408.661-.265 1.201.317 1.201.582 0 1.052.788 1.044 1.75-.013 1.502-.158 1.537-1.022.25-.768-1.145-.903-.874-.569 1.147.414 2.513.249 2.629-3.269 2.29-3.11-.3-3.729-.039-3.855 1.625-.082 1.089.243 1.739.722 1.443.479-.296 1.577.469 2.44 1.701 1.275 1.821 1.568 1.919 1.568.526 0-1.617.112-1.617 2 0 2.002 1.714 2.66 3.372 1.25 3.15-2.456-.388-4.287.249-3.655 1.273.448.723.274.882-.465.425-.649-.401-1.056-.358-.905.096.151.453-.175.824-.725.824s-.833-.45-.628-1c1.568-4.217 1.521-5.032-.191-3.321-.925.923-1.681 2.146-1.681 2.718 0 .572-.675.781-1.5.465-.825-.317-1.5-.071-1.5.547 0 .617-1.238 1.033-2.75.924-1.512-.109-3.674.302-4.804.914-1.287.698-2.594.772-3.5.199-.946-.599-1.025-.921-.227-.931.727-.009.959-.69.575-1.692-.576-1.5-.723-1.474-1.399.25-.725 1.852-.757 1.854-.825.044-.038-1.035.902-2.726 2.09-3.756 2.398-2.08 1.786-3.891-.636-1.881-1.24 1.029-1.521 1.009-1.509-.108.026-2.274 1.347-3.645 3.985-4.135 2.117-.393 2.002-.486-.75-.601L352 638v-6.155c0-6.092.021-6.136 2-4.345 1.624 1.47 2 1.531 2 .324 0-.817-1.11-2.08-2.466-2.806-2.568-1.374-2.57-3.353-.002-2.367.915.351 1.468-.042 1.468-1.044 0-.991.863-1.619 2.25-1.637 2.156-.03 2.169-.078.303-1.16-1.459-.847-2.044-.838-2.335.036-.214.642-.87.869-1.458.506-.632-.391-.777-.189-.355.493.392.635.206 1.155-.413 1.155-.676 0-.87-.81-.484-2.025.426-1.343.225-1.933-.598-1.75-.683.151-1.542-1.075-1.908-2.725-.367-1.65-1.451-4.504-2.408-6.343-.958-1.839-1.49-3.594-1.183-3.901.307-.307-.123-1.056-.955-1.665-.832-.608-1.613-2.453-1.735-4.098-.121-1.646-.498-3.218-.837-3.493-.338-.275-1.608-2.457-2.821-4.85-6.968-13.743-19.358-19.952-47.081-23.595-10.584-1.391-72.006-1.508-81.056-.155-1.415.212-21.44.689-44.5 1.06-23.059.371-63.526 1.316-89.926 2.102-26.4.785-54.637 1.43-62.75 1.433L0 571v310.004l250.25-.252 250.25-.252.296-152c.281-143.898.061-165.147-1.698-164.06-.408.252-1.834-.098-3.17-.776-2.821-1.433-7.154-1.054-4.823.422 1.037.657.791.887-.962.899-1.593.01-2.186-.431-1.829-1.361.634-1.651-3.266-3.63-7.111-3.609-2.113.012-2.375.227-1.203.985M.488 726c0 85.525.118 120.513.262 77.75.144-42.763.144-112.737 0-155.5C.606 605.487.488 640.475.488 726" fill="#d3d3d3" fill-rule="evenodd"/></svg>