<svg xmlns="http://www.w3.org/2000/svg" width="500" height="708"><path d="M201 35l-160.5.5-5 2.297c-9.89 4.542-18.668 15.685-19.878 25.234C13.903 76.583 13.351 645.09 15.049 653c3.66 17.053 13.9 26.286 32.009 28.864 6.935.987 232.877 2.637 360.942 2.635 48.49 0 48.501-.001 54.282-2.334 11.279-4.551 19.24-13.011 22.153-23.541 1.396-5.046 1.966-111.806 2.725-510.624l.161-84.5-2.315-6c-3.713-9.623-6.251-12.899-14.006-18.076-7.798-5.205-11.549-5.518-62.5-5.209-25.85.157-119.225.51-207.5.785m45.347 91.435c-3.753 3.634-5.412 5.953-5.01 7 .343.894.076 1.565-.622 1.565-.672 0-2.389 1.238-3.816 2.75C233.91 140.919 216 167.813 216 169.133c0 .484-1.131 1.863-2.512 3.065-1.382 1.201-3.95 4.686-5.706 7.743a690.57 690.57 0 01-4.991 8.559c-3.699 6.172-8.516 16.954-7.606 17.024.173.014-.7 1.315-1.94 2.892-1.729 2.197-1.992 3.184-1.128 4.225.887 1.069.695 1.359-.901 1.359-1.576 0-2.7 1.619-5.034 7.25-3.718 8.973-4.204 11.389-2.182 10.851 6.842-1.822 8.408-.687 7.27 5.265-.418 2.186-.99 2.546-3.88 2.437-1.864-.07-3.39-.504-3.39-.965 0-1.185-3.754-1.045-4.504.168-.342.553-.646 2.803-.677 5-.03 2.197-.452 3.994-.937 3.994-.485 0-.882.9-.882 2 0 1.293.667 2 1.885 2 2.097 0 5.611 4.575 4.189 5.454-.497.307-1.131-.007-1.41-.698-.278-.691-.549-.356-.6.744-.059 1.238-.375 1.566-.829.861-.536-.831-1.071-.777-1.975.197-.781.841-.873 1.563-.25 1.948 1.538.95 1.165 2.499-.452 1.878-.792-.304-1.601-1.528-1.797-2.719-.216-1.312-.894.199-1.721 3.835-1.871 8.221-2.652 9.497-5.825 9.515-2.788.016-8.612 1.798-11.135 3.407-1.041.664-1.269.513-.855-.566.311-.81 1.327-5.271 2.258-9.914 2.059-10.268 3.399-12.527 8.299-13.995 2.3-.689 3.834-1.786 3.904-2.791.062-.911.351-3.119.641-4.906.344-2.121.118-3.255-.65-3.265-.75-.01-.674-.334.208-.893 1.106-.7.953-1.108-.759-2.025-2.859-1.53-2.252-3.812 4.578-17.217 5.248-10.298 5.39-10.788 4.296-14.851-1.01-3.748-.395-7.372.72-4.249.246.688 1.197 1.243 2.113 1.235 1.442-.014 1.464-.147.167-.985-.825-.533-1.174-.976-.775-.985.399-.008.319-1.085-.179-2.394-.644-1.693-.476-2.989.582-4.5.817-1.166 1.149-2.121.738-2.121-.412 0 .12-.635 1.182-1.411 1.061-.777 2.272-1.2 2.691-.941.419.258.761-.258.761-1.148 0-.89.403-1.369.895-1.065.493.305 1.162-.14 1.487-.988.325-.847 1.16-1.466 1.855-1.375 2.769.362 3.688-.215 5.81-3.648 2.983-4.827 1.437-8.268-3.651-8.124-3.154.09-3.703.659-8.352 8.648-6.802 11.691-12.191 18.546-14.584 18.549-1.48.002-1.88.575-1.633 2.339.18 1.284-.452 3.197-1.405 4.25-.952 1.053-1.325 1.921-.827 1.929.498.009.23.452-.595.985-1 .646-1.083.974-.25.985.688.008 1.25.915 1.25 2.015 0 1.367-.667 2-2.107 2-1.416 0-1.927.469-1.558 1.43.391 1.019-.138 1.379-1.839 1.25-1.313-.099-2.412.158-2.442.57-.589 8.142.004 10.75 2.446 10.75 2.525 0 3.342 1.361 1.5 2.5-.55.34-1.036 1.604-1.079 2.809-.043 1.205-.306 1.629-.583.941-.907-2.246-2.217-1.312-1.752 1.25.489 2.697-.467 3.219-2.386 1.3-1.125-1.125-1.513-.136-1.115 2.838.047.351-.459.975-1.125 1.386-1.354.838-2.202 4.609-2.298 10.226-.036 2.063-.451 3.75-.922 3.75-.472 0-.564.476-.204 1.059.384.621 1.905.783 3.684.393 2.098-.461 2.82-.325 2.346.441-.376.609-1.359 1.107-2.184 1.107-.825 0-1.241.419-.925.931.317.512.111 1.218-.457 1.569-.568.351-.774 1.057-.457 1.569.316.512-.127.931-.984.931s-1.559-.454-1.559-1.008c0-.61-.763-.532-1.931.197-2.179 1.361-4.069 7.719-4.069 13.689 0 2.195-.439 5.146-.975 6.557-.61 1.604-.619 2.565-.025 2.565.6 0 .601.92.001 2.498-.523 1.374-.93 4.861-.905 7.75.024 2.889-.017 11.754-.092 19.7l-.136 14.448-3.814 8.052c-2.097 4.429-4.147 9.139-4.554 10.469-.732 2.387-.757 2.377-2.12-.865-2.16-5.137-1.587-11.052 1.071-11.052 1.762 0 6.629-15.158 5.363-16.706-1.198-1.465-.229-3.294 1.745-3.294 2.611 0 1.5-1.86-1.304-2.184-2.004-.231-2.882-.991-3.25-2.816-.301-1.492-1.311-2.635-2.505-2.834-2.634-.439-4.413-2.264-2.789-2.861.785-.289.998-1.563.606-3.625-.796-4.19-1.06-4.383-2.872-2.107-1.419 1.782-1.495 1.551-1.012-3.073 1.716-16.407 1.779-16.672 4.8-20.112 1.636-1.864 2.687-3.388 2.336-3.388s.951-1.395 2.893-3.101c1.942-1.705 3.311-3.458 3.04-3.895-.27-.437.182-1.052 1.004-1.368 1.307-.502 2.236-4.636 1.041-4.636-1.715 0-5.368 2.48-4.861 3.301.351.569.125.7-.52.302-.717-.444-.94-.177-.597.716.552 1.44-2.347 3.237-3.447 2.136-.326-.325.658-4.12 2.185-8.432 1.687-4.761 2.54-8.783 2.174-10.243-.48-1.913-.081-2.641 1.958-3.57 1.519-.692 2.561-1.99 2.561-3.189 0-1.111.405-2.021.899-2.021 1.201 0 1.916-6.23 2.982-26 .978-18.129 2.175-22.998 10.011-40.732 5.765-13.048 6.477-19.534 1.948-17.745-1.722.68-11.143 13.835-14.975 20.91-3.714 6.856-8.442 20.735-9.256 27.165-1.299 10.273-1.684 29.606-.615 30.895.998 1.202-6.699 7.507-9.165 7.507-.456 0-.829.978-.829 2.174v2.175L120.5 244c-1.375-1.292-2.5-3.17-2.5-4.174 0-1.004-.506-1.714-1.125-1.576-.619.137-1.331-.312-1.583-1-.252-.687.201-1.25 1.008-1.25 1.748 0 3.031-4.069 1.702-5.398-.577-.577-.431-1.346.382-2.017 1.625-1.341 7.645-24.818 8.346-32.543 1.181-13.029-6.462-16.502-12.042-5.471-4.711 9.31-8.956 41.409-5.74 43.397.977.603.964 1.199-.058 2.836-1.059 1.697-1.058 2.513.007 4.503 1.816 3.395 1.059 5.947-2.232 7.525-1.814.869-2.61 1.87-2.244 2.823.413 1.077.066 1.317-1.286.888-2.68-.851-5.135.375-5.135 2.564 0 1.041-.464 1.893-1.031 1.893-2 0-2.204-3.152-.455-7.031 1.416-3.139 1.524-4.219.541-5.402-1.442-1.738-.438-3.928 1.466-3.197 3.712 1.424 4.678-26.289 1.01-28.971-4.058-2.968-6.69 3.139-8.077 18.744-.325 3.654-2.117 11.079-3.983 16.5-1.866 5.421-2.96 10.007-2.432 10.19 1.927.669 1.023 3.322-.921 2.705-2.159-.686-3.538 1.642-1.927 3.253 1.304 1.304.191 3.209-1.875 3.209-1.207 0-1.428.688-.966 3 .49 2.449.268 3-1.21 3-2.719 0-10.958 9.849-9.477 11.33.369.368.033.684-.746.702-1.715.039-9.917 12.558-9.917 15.136 0 1.007-.367 1.832-.815 1.832-1.88 0-9.372 18.256-12.756 31.084-3.319 12.586-2.95 23.594 1.48 44.127 3.777 17.508 8.643 31.669 17.605 51.234 2.17 4.738 2.494 6.312 1.596 7.75-.927 1.485-.813 1.805.644 1.805 1.573 0 5.532 3.997 5.358 5.41-.036.3 1.048 1.659 2.411 3.022 1.362 1.362 2.477 3.124 2.477 3.916 0 .791.675 1.697 1.5 2.014.825.316 1.5 1.002 1.5 1.524s2.7 3.76 6 7.196 6 6.566 6 6.955c0 1.123 29.894 29.32 32.611 30.76 1.347.714 2.177 1.738 1.844 2.275-.332.538-.233.913.221.834 2.275-.395 3.209.231 2.623 1.758-.41 1.067-.246 1.421.456.987.602-.372 2.366-.116 3.92.57 4.496 1.983 19.325 11.814 19.325 12.811 0 .498.629.664 1.397.369.981-.376 1.916 1.048 3.138 4.781 4.156 12.694 12.45 24.406 23.092 32.61 12.912 9.954 31.909 14.45 46.929 11.107l5.944-1.322-10-.678c-19.421-1.317-30.507-5.997-42.39-17.895C172.116 539 169.508 536 170.545 536c.343 0-.703-1.687-2.324-3.75-2.916-3.711-6.655-10.25-5.861-10.25 1.774 0 5.572 2.881 4.461 3.384-.727.329-.277.336.999.017 1.783-.446 2.447-.097 2.867 1.509.3 1.15.922 2.09 1.382 2.09.459 0 2.254 2.062 3.988 4.583C187.675 550.469 208.706 562 227.886 562c2.331 0 4.642.671 5.595 1.624 1.198 1.198 2.796 1.492 6.087 1.121 5.527-.623 6.429.605 3.041 4.141-3.117 3.254-3.162 3.884-.704 9.929 3.2 7.874 3.352 8.526 3.141 13.532l-.205 4.847 3.021-.664c1.661-.365 3.894-.196 4.962.376 1.805.966 2.02.511 3.059-6.475 1.074-7.224 1.374-15.807.425-12.169-.253.969-.945 1.462-1.538 1.096-.642-.397-.79-.199-.365.487.431.698.048 1.155-.968 1.155-1.205 0-1.402-.355-.696-1.25 1.402-1.777 1.166-4.75-.376-4.75-.747 0-1.057-.64-.727-1.5.325-.845.025-1.5-.686-1.5-.916 0-.844-.48.263-1.75.838-.962 1.319-2.317 1.068-3.009-.356-.983 2.147-1.164 11.381-.824 7.611.28 10.051.161 6.836-.334-2.787-.428-3.829-.838-2.355-.926 3.867-.23 15.66-4.025 20.855-6.712 6.404-3.312 20.5-17.343 20.5-20.405 0-1.6 5.205-5.668 6.103-4.77.966.966-3.145 7.27-4.536 6.955-.669-.151-.956.145-.639.658.696 1.126-5.891 9.646-10.375 13.419-5.187 4.365-11.9 7.933-18.451 9.809-3.772 1.079-5.112 1.774-3.509 1.818 12.191.335 32.778-13.769 42.957-29.429 6.555-10.084 6.862-10.4 11.222-11.548 2.325-.612 5.716-1.977 7.535-3.033 1.819-1.055 3.809-1.919 4.421-1.919.613 0 1.825-.622 2.693-1.382.869-.76 5.13-3.248 9.47-5.529 4.34-2.282 9.212-5.26 10.826-6.618 1.615-1.359 3.352-2.471 3.86-2.471s1.717-.787 2.687-1.75c1.532-1.52 12.643-10.661 19.419-15.976 5.009-3.929 19.562-19.269 23.317-24.576 2.2-3.11 4.45-5.67 5-5.688.55-.018 1.898-1.906 2.996-4.196 1.097-2.289 2.473-4.646 3.058-5.238 6.318-6.396 24.605-48.878 26.736-62.111.262-1.631 1.029-4.99 1.704-7.465 1.416-5.192 1.633-6.5 2.977-18 2.058-17.606-.286-34.872-4.761-35.079-1.043-.048-1.222-.276-.46-.583 1.767-.713 1.61-1.547-1.613-8.585-7.061-15.42-11.012-22.801-14.182-26.497-.851-.991-2.965-3.816-4.699-6.279-1.734-2.462-5.42-6.952-8.191-9.977-5.281-5.765-7.47-10.823-10.525-24.319-1.994-8.81-3.054-10.681-6.05-10.681-3.004 0-5.49 4.309-5.49 9.518 0 3.162.252 3.537 2 2.982 1.419-.45 2-.18 2 .933 0 .862-.637 1.567-1.417 1.567-.779 0-1.643.562-1.921 1.25-.403 1-.52 1-.583 0-.116-1.838-2.76-1.523-3.505.417-.474 1.235-.931 1.376-1.764.543-.834-.834-.765-1.559.263-2.798 1.265-1.525 1.09-1.607-1.993-.93-3.031.666-3.304.551-2.645-1.12.404-1.024.991-3.437 1.305-5.362.313-1.925.974-3.766 1.468-4.092 1.377-.907 3.718-11.8 3.742-17.408.03-7.198-1.98-14.675-9.356-34.811-9.027-24.646-15.189-34.226-21.539-33.487-3.437.401-2.94 2.712 1.989 9.239 3.726 4.936 11.609 21.964 15.534 33.559 2.566 7.579 2.683 34.548.174 40.25-1.4 3.182-1.431 3.75-.201 3.75.797 0 1.449.45 1.449 1s-2.025 1-4.5 1c-3.333 0-4.5.389-4.5 1.5 0 .825-.679 1.5-1.51 1.5-1.142 0-1.403-.855-1.073-3.513.292-2.353.078-3.293-.645-2.846-.644.398-.792.201-.367-.486.392-.635.236-1.155-.346-1.155s-1.059.9-1.059 2c0 2.557-1.621 2.577-2.98.037-.634-1.185-1.656-1.73-2.578-1.376-.841.322-1.287.828-.991 1.123.295.295-.361 1.165-1.457 1.933-2.569 1.799-2.566 3.245.006 2.573 1.997-.522 3.039 2.149 1.122 2.877-.491.186-.448 1.437.097 2.833l.977 2.5.87-2.25c.478-1.238 1.548-2.25 2.377-2.25 1.942 0 1.018 5.933-1.201 7.709-1.497 1.197-1.364 4.654.435 11.291.662 2.442.591 2.425-3.035-.75-2.041-1.788-4.136-3.25-4.654-3.25-3.534 0-6.027-10.769-4.562-19.709.417-2.547.221-3.093-.95-2.643-.924.354-1.476-.035-1.476-1.041 0-.884.675-1.607 1.5-1.607s1.5.45 1.5 1 .398 1 .883 1c1.426 0 1.988-3.728.751-4.983-.847-.86-.729-1.451.466-2.335.884-.654 1.446-2.189 1.256-3.432-.228-1.493.166-2.25 1.169-2.25 1.115 0 1.348.659.886 2.5-.487 1.939-.243 2.5 1.088 2.5 1.173 0 1.518-.514 1.091-1.627-.715-1.863 1.172-4.638 2.567-3.776 3.814 2.357 9.109-10.524 9.068-22.064-.048-13.851-7.769-33.033-13.295-33.033-2.32 0-2.418.258-2.173 5.729.142 3.151.947 8.326 1.789 11.5 2.541 9.569 2.996 21.141 1.057 26.852-2.291 6.746-4.982 9.878-7.319 8.518-.981-.571-1.258-1.052-.615-1.069.759-.019 1.18-2.188 1.199-6.179.022-4.629-.255-5.864-1.119-5-1.643 1.643-5.708 1.419-6.387-.351-.798-2.08-2.538-1.887-2.262.25.235 1.816-.468 6.316-2.274 14.557-.918 4.192-.827 4.972.712 6.097 1.157.846 1.389 1.523.675 1.964-.6.371-1.579-.123-2.177-1.097-.881-1.437-1.036-1.035-.823 2.132.249 3.69.06 3.974-3.453 5.191-2.242.776-3.947.913-4.297.346-.32-.517-.078-.94.537-.94s.84-.45.5-1c-.34-.55-.029-1.032.691-1.07.72-.039.409-.456-.691-.928-2.299-.985-8.704-.168-9.611 1.226-.336.517-.884.227-1.218-.644-.335-.871-.142-1.584.428-1.584.618 0 .749-.904.324-2.242-.632-1.993-.529-2.091.933-.878 1.402 1.164 1.644 1.142 1.644-.151 0-2.215 2.7-2.886 4.474-1.112 1.376 1.376 1.595 1.367 2.152-.086.342-.889.344-1.894.006-2.232-.338-.338-.105-1.229.517-1.979 2.095-2.524 2.296-19.376.328-27.474-3.339-13.734-15.294-41.074-17.749-40.589-.683.135-1.149-.639-1.049-1.746.245-2.731-5.722-13.802-11.19-20.761-4.734-6.025-6.489-7.054-6.489-3.807 0 1.069-1.012 2.657-2.25 3.53-2.128 1.5-2.269 1.465-2.598-.661-.192-1.236-1.204-2.99-2.25-3.897-1.046-.907-1.902-2.104-1.902-2.66 0-.555-.675-1.57-1.5-2.255-1.258-1.044-1.5-.882-1.5 1.001 0 4.069 14.155 22.175 15.56 19.901 1.164-1.883 2.44-.786 2.44 2.098 0 1.911.51 3 1.406 3 .846 0 1.226.698.952 1.75-.249.963.228 2.65 1.062 3.75.836 1.102 1.531 1.439 1.548.75.018-.687.456-1.25.975-1.25.979 0 .666 3.205-.497 5.088-.423.684.183.958 1.652.746 1.47-.212 2.573-1.25 3.011-2.834.381-1.375.736-1.875.791-1.11.055.764.871 1.953 1.812 2.642 1.403 1.025 1.485 1.526.452 2.771-.809.975-.901 1.741-.256 2.14 1.42.878.183 3.557-1.643 3.557-2.548 0 .394 12.762 2.985 12.947.413.029 1.2.053 1.75.053 1.385 0 1.262 2.746-.143 3.214-.852.284-.843.943.035 2.584 1.504 2.81 3.465 2.901 2.582.12-.551-1.737-.289-2.027 1.588-1.75 1.432.211 2.371 1.149 2.587 2.582.301 1.999-.524 2.743-2.219 2-.314-.137-.972.467-1.463 1.344-.982 1.756-.148 8.906 1.04 8.906.41 0 .819 4.05.909 9 .314 17.216-4.356 9.864-11.434-18-1.857-7.311-4.482-13.993-8.642-22-7.548-14.527-8.413-15.486-8.34-9.242.03 2.608-.546 6.321-1.279 8.25-1.273 3.347-1.156 3.831 2.532 10.5 5.467 9.885 6.581 11.734 7.997 13.275.688.748 1.25 2.475 1.25 3.838s.675 3.784 1.501 5.38c1.875 3.627 9.962 27.365 10.816 31.749.58 2.978.421 3.25-1.901 3.25-1.661 0-2.288.398-1.821 1.155.428.692.276.883-.379.478-.601-.371-1.458-.057-1.905.699-1.377 2.334-3.687 2.47-6.653.392-1.903-1.333-2.454-2.232-1.668-2.718 1.458-.901-.694-8.997-2.398-9.021-.712-.01-.681-.277.089-.767.874-.556.528-2.766-1.329-8.494-1.381-4.259-2.925-7.488-3.432-7.175-1.788 1.106-2.912-.588-1.69-2.546.994-1.592.827-2.219-1.02-3.821-2.218-1.924-3.082-3.839-1.21-2.682 1.684 1.041 1.1-1.83-1.016-5-1.102-1.65-2.49-4.8-3.084-7-1.185-4.385-16.692-37.071-17.274-36.41-.198.225-.682 2.183-1.074 4.35-.635 3.506-.541 3.796.855 2.637 1.294-1.074 1.656-1.063 2.064.06 1.285 3.536-1.297 10.571-2.917 7.95-1.017-1.644-3.554-1.301-3.554.48 0 1.169.57 1.387 2.242.856 1.993-.632 2.091-.529.878.933-.751.904-1.985 1.644-2.742 1.644-3.618 0 2.446 12.222 6.905 13.917 2.863 1.089 5.088 3.674 4.282 4.978-.334.54.064 1.357.884 1.816.831.466 1.738 2.901 2.051 5.507.309 2.571 1.703 7.285 3.098 10.478a804.774 804.774 0 014.617 10.804 683.76 683.76 0 003.933 9.239c1.019 2.332 1.852 4.721 1.852 5.309 0 .589.408.818.906.51.498-.308.659-1.505.357-2.66-.435-1.662-.155-2.019 1.344-1.713 1.184.242 1.774 1.067 1.576 2.202-.189 1.084.112 1.549.75 1.154 1.587-.98 1.292.173-.611 2.396-.923 1.078-2.119 1.688-2.658 1.355-.602-.372-.711.321-.282 1.802a97.014 97.014 0 011.076 4.031c.209.894.863 3.369 1.455 5.5 1.501 5.408 1.432 6.906-.255 5.506-.738-.612-1.634-.821-1.991-.464-.895.894 1.268 3.333 2.955 3.333.758 0 1.378.45 1.378 1s-.863 1-1.918 1-2.654.282-3.553.627c-1.39.534-1.603-.101-1.426-4.25.114-2.682.557-5.576.983-6.431 1.452-2.913-.494-4.348-4.162-3.069-3.199 1.115-4.857.397-4.909-2.127-.028-1.404-2.015-.757-2.015.656 0 .931-.701 1.223-2.074.864-2.385-.623-1.976-4.432.807-7.52 1.44-1.598 1.395-2.335-.519-8.5-4.805-15.479-6.443-19.25-8.357-19.25-1.021 0-1.857.477-1.857 1.059s-.489.757-1.087.387c-.731-.452-.757-1.002-.078-1.681.555-.555.771-1.629.48-2.387-.291-.758-.031-1.378.578-1.378s1.107-.702 1.107-1.559-.403-1.31-.895-1.006c-1.175.726-2.404-1.978-3.605-7.935-1.684-8.356-6.277-12.59-10.161-9.366-2.507 2.08-1.166 8.301 5.669 26.307 5.458 14.38 6.524 16.461 8.334 16.274 1.322-.137 2.215.456 2.459 1.632.31 1.495-.031 1.715-1.795 1.155-2.017-.64-2.086-.519-.934 1.633 2.246 4.196 3.679 5.123 4.84 3.129.93-1.596 1.03-1.557 1.058.415.016 1.198-.645 2.853-1.47 3.678-1.675 1.676-2.002 5.215-.563 6.104 1.484.917.981 8.478-.675 10.134-.825.825-1.23 1.771-.899 2.101.979.98-3.623 4.418-5.136 3.837-.765-.293-1.733-.533-2.152-.533-.419 0-1.305-5.062-1.969-11.25-1.972-18.364-2.173-19.797-3.136-22.328-.506-1.332-1.303-2.422-1.771-2.422-1.9 0-5.367 5.002-5.645 8.144-.163 1.846-.892 4.627-1.619 6.18-.977 2.084-1.038 3.281-.236 4.565.598.958.748 2.387.334 3.176-.414.789-.2 5.935.477 11.435.676 5.5 1.149 10.102 1.05 10.227-.902 1.136-4.62-3.561-5.15-6.506-1.326-7.36-5.215-8.484-8.317-2.404-2.066 4.051-4.767 6.842-5.709 5.9-.313-.312 1.527-6.745 4.088-14.294 3.53-10.405 4.354-13.913 3.406-14.498-1.495-.925.521-3.925 2.637-3.925 1.742 0 2.683-2.823 1.591-4.774-.651-1.165-.282-2.087 1.352-3.372C256.602 226.381 259.653 211 257 211c-.55 0-1 .675-1 1.5s-.627 1.5-1.393 1.5c-1.992 0-2.877-2.959-1.09-3.645.816-.313 1.483-1.266 1.483-2.117 0-1.31-.307-1.27-2 .262-1.947 1.762-2 1.747-1.985-.595.012-1.764.249-2.037.891-1.023.688 1.087 1.02.928 1.549-.741.739-2.328.023-4.141-1.636-4.141-.711 0-.683.459.084 1.383 1.455 1.753-1.091 3.029-2.744 1.376-1.063-1.063-3.159 2.622-3.159 5.555 0 .965-3.731 13.445-8.935 29.888-.563 1.779-.482 2.826.238 3.066.762.254.696 1.321-.221 3.535-.723 1.744-1.67 2.952-2.105 2.683-.435-.269-.598.524-.363 1.763.398 2.097.362 2.114-.523.251-.89-1.873-.962-1.841-1.136.5-.102 1.375-.105 3.287-.007 4.25.098.962-.301 1.75-.885 1.75-.585 0-.992.337-.904.75.087.413-.102 1.425-.421 2.25s-.753 2.14-.966 2.922c-.275 1.013-1.554.366-4.45-2.25-2.236-2.02-4.797-3.672-5.693-3.672-1.035 0-1.629-.842-1.629-2.31 0-4.051 7.987-26.833 13.08-37.309 2.706-5.566 4.92-10.853 4.92-11.75 0-.897.4-1.631.889-1.631 1.098 0 .921-3.273-.223-4.111-.458-.336-.121-.884.75-1.218 1.019-.392 1.584-.064 1.584.919 0 2.707 1.914.48 9.384-10.918 8.735-13.329 9.333-14.424 11.169-20.476 1.863-6.137 1.823-11.214-.11-13.973-1.761-2.514-4.707-3.074-3.805-.723.365.95-.013 1.5-1.031 1.5-.884 0-1.607-.687-1.607-1.526 0-1.362-.32-1.36-2.995.023-4.04 2.09-11.005 11.065-11.005 14.183 0 1.374-.863 3.247-1.917 4.16-3.415 2.956-9.691 25.16-7.112 25.16.631 0 .826.52.434 1.155-.443.715-.275.883.44.44.635-.392 1.155-.263 1.155.287s-.457 1.283-1.016 1.628c-.559.346-.758 1.047-.441 1.559.316.512.084.931-.516.931s-1.459-.992-1.907-2.205c-.693-1.873-1.281-1.006-3.896 5.75-3.202 8.27-7.663 18.691-9.285 21.691-.517.955-.939 2.418-.939 3.25 0 .833-.427 1.514-.949 1.514s-.323 1.498.442 3.328c1.276 3.055 1.224 3.47-.63 5.057-1.111.951-2.547 1.551-3.191 1.334-1.361-.46-5.595 5.949-5.641 8.539-.027 1.51-.315 1.582-2.041.504-1.105-.691-1.603-1.391-1.106-1.557 1.431-.477.168-3.73-2.053-5.287a2543.01 2543.01 0 01-3.539-2.486c-1.762-1.242.156-7.234 8.046-25.139 2.891-6.561 4.292-10.992 3.922-12.406-.396-1.513-.214-1.976.582-1.484.7.432 1.158.056 1.158-.951 0-.982-.55-1.455-1.341-1.151-1.976.758-1.99-5.827-.016-7.801 1.438-1.439 1.699-1.42 2.936.211 1.244 1.64 1.36 1.647 1.389.089.018-.935-.755-2.173-1.718-2.75-1.648-.987-1.636-1.136.191-2.549 1.357-1.05 2.147-1.168 2.625-.394.5.809.868.809 1.368 0 .376-.609.436-1.509.132-2-.304-.492.512-1.161 1.814-1.487 2.25-.565 14.046-20.085 16.158-26.738.407-1.283 4.615-6.771 9.351-12.197 10.078-11.545 12.273-15.132 11.618-18.985-.288-1.691-.087-2.558.508-2.191.542.335.985 1.482.985 2.55 0 2.548 1.641 2.48 3.036-.126 1.407-2.629-1.126-6.933-4.08-6.933-1.099 0-4.523 2.446-7.609 5.435m-31.259-.301c-1.336 3.046-1.456 3.103-2.212 1.06-.53-1.433-1.334-1.955-2.387-1.552-2.103.807-1.402 3.941.797 3.564.993-.17 1.714.343 1.714 1.219 0 .981-.567 1.295-1.615.892-1.285-.493-1.476-.179-.933 1.532.472 1.488.26 2.151-.689 2.151-.942 0-1.373 1.31-1.378 4.187-.004 2.341-.532 4.362-1.197 4.584-.732.244-.956-.213-.582-1.187.752-1.959-.49-1.986-3.027-.067-1.33 1.006-1.979 2.843-2.109 5.968-.192 4.62.881 6.104 1.82 2.515.53-2.029 2.71-2.834 2.71-1 0 .55-.45 1-1 1s-.947.338-.882.75c.473 2.995-.266 6.277-1.273 5.655-.715-.443-.883-.275-.44.44.392.635.349 1.156-.096 1.158-.445.002-.861 2.941-.925 6.532-.14 7.877.262 7.461 6.924-7.162 5.481-12.028 8.923-24.533 8.498-30.876l-.306-4.583-1.412 3.22m-22.381 2.88c-.321 1.225.116 2.363 1.136 2.958 1.402.819 1.292.972-.715.998-1.883.024-2.14.31-1.247 1.386.963 1.161-1.199 5.838-4.354 9.418-.793.9-3.517-1.28-3.295-2.638.148-.9-.294-1.523-.982-1.386-.687.138-1.25-.425-1.25-1.25 0-3.983-3.187.104-6.978 8.95l-2.019 4.708 2.749-.599c5.483-1.196 9.248-1.394 9.248-.486 0 .51-.45.927-1 .927s-1 1.2-1 2.667c0 1.466-.297 2.369-.66 2.006-.363-.363-1.323.286-2.133 1.442-1.205 1.72-1.233 2.251-.154 2.918.943.583 1.02 1.192.271 2.141-.577.729-1.354 2.604-1.728 4.167-.42 1.756-1.176 2.651-1.979 2.342-.714-.274-1.933-.096-2.708.394-1.069.677-.867.896.841.908 2.415.016 3.056 1.523 1 2.353-.949.382-.956.523-.031.583.67.043.981.697.691 1.453-.731 1.906-9.41 2.075-9.41.183 0-.866-.718-1.182-1.953-.859-1.364.357-2.616 2.518-4.147 7.156-1.206 3.655-2.379 7.153-2.606 7.773-.227.619 1.751.064 4.396-1.235 2.646-1.298 5.926-2.523 7.29-2.723 2.872-.419 8.853-10.026 17.539-28.169 6.762-14.125 8.958-21.144 8.08-25.823-.794-4.232-2.154-5.485-2.892-2.663m144.052 26.177c-.32 2.181.006 3.648.969 4.352 1.263.924 1.251 1.23-.093 2.345-1.026.851-1.265 1.842-.711 2.947.459.916 1.621 4.14 2.583 7.165 2.708 8.517 3.938 10 8.294 10 2.064 0 4.783.721 6.041 1.602 3.451 2.417 3.762.973 1.156-5.364-4.672-11.362-6.795-14.932-7.611-12.804-.726 1.891-.747 1.891-1.425-.007-.384-1.074-.196-2.252.424-2.662.782-.515.741-.739-.136-.75-.687-.008-1.25-.893-1.25-1.965 0-1.073-.562-2.31-1.25-2.75-.687-.44-1.748-1.7-2.357-2.8-1.852-3.346-4.091-3.012-4.634.691M325 249.872c0 1.414-.989 2.03-4.038 2.518-5.077.812-5.564 2.119-3.96 10.621l1.288 6.825 4.398 1.107c2.419.609 4.157 1.499 3.861 1.978-.296.478.135 1.127.957 1.443.924.354 1.494-.01 1.494-.954 0-.912.472-1.237 1.17-.805.806.498.953.159.475-1.088-.383-.997-.982-5.233-1.332-9.415-.746-8.899-4.313-19.015-4.313-12.23m12.64 1.02c.334 1.434 1.426 5.106 2.427 8.159 1.001 3.053 1.926 7.778 2.056 10.5.13 2.722.877 6.509 1.661 8.417 1.349 3.284 1.498 3.366 2.82 1.558 2.663-3.641 1.266-22.115-1.744-23.07-2.251-.715-2.355-1.818-.36-3.813 2.069-2.069 1.877-2.975-.5-2.353-1.1.287-2 .167-2-.267 0-.434-1.118-1.003-2.483-1.265-2.239-.428-2.424-.217-1.877 2.134M111 262.393c0 .766-.675 1.652-1.5 1.969-1.989.763-1.924 2.638.092 2.638 2.118 0 1.623 9.874-.592 11.813-1.14.997-1.2 1.438-.25 1.833 1.817.757 1.572 3.415-.25 2.716-.95-.365-1.5.013-1.5 1.031 0 .884.502 1.607 1.115 1.607.768 0 .909 1.79.451 5.75l-.665 5.75 2.692-4.5c1.48-2.475 3.64-5.625 4.799-7 4.115-4.88 4.707-6.886 4.417-14.944-.28-7.738-.317-7.838-3.367-8.941-4.081-1.476-5.442-1.406-5.442.278m273.607 1.189c-.334.87-.607 2.445-.607 3.5 0 1.055-.675 1.918-1.5 1.918s-1.5.45-1.5 1 .627 1 1.394 1c.782 0 1.391.989 1.386 2.25-.016 4.576 1.899 12.354 3.516 14.272a77.767 77.767 0 013.033 3.881c.864 1.202 1.847 1.606 2.671 1.097 1.046-.646 1.006-1.023-.201-1.905-1.698-1.241-.99-11.212.882-12.432 2.174-1.418.511-8.584-2.429-10.463-.689-.44-1.252-1.29-1.252-1.889 0-1.077-2.895-3.717-4.143-3.779-.354-.018-.916.68-1.25 1.55m-22.059 4.34c-.592.958.042 11.058 1.01 16.078.159.825.323 2.48.365 3.679.043 1.198.752 2.853 1.577 3.678.825.825 1.5 1.805 1.5 2.179 0 .373-.675.419-1.5.102-.825-.316-1.5-.139-1.5.393 0 .533.9.969 2 .969s2 .408 2 .906c0 .499-.849.685-1.887.413-1.038-.271-2.19-.004-2.559.594-.409.661.233 1.096 1.637 1.109l2.309.022-2.14 1.728c-2.389 1.93-2.577 6.415-.283 6.797.783.131 2.263.574 3.289.986 1.653.663 1.735.502.715-1.403-.996-1.862-.887-2.152.804-2.152 2.931 0 4.619-13.014 2.726-21-.196-.825-.695-2.962-1.109-4.75-.413-1.788-1.232-3.25-1.818-3.25-.587 0-.314-.562.606-1.25 1.193-.892 1.396-1.68.707-2.75-.644-.999-.971-1.083-.982-.25-.008.688-.492 1.25-1.074 1.25-.582 0-.781-.45-.441-1 .865-1.4-.849-1.251-2.3.2-.66.66-1.2.822-1.2.36 0-.462.788-1.488 1.75-2.281 1.646-1.357 1.636-1.406-.17-.827-1.056.339-2.237.102-2.625-.525-.525-.85-.884-.851-1.407-.005m-269.733 5.113c-2.027 1.07-3.94 2.358-4.251 2.862-.311.503-1.489.674-2.617.379-1.789-.468-1.966-.201-1.39 2.094.508 2.023.289 2.63-.949 2.63-.884 0-1.608.675-1.608 1.5s.436 1.5.969 1.5c.532 0 .709.675.393 1.5-.317.825-1.203 1.5-1.969 1.5-1.728 0-1.869 2.988-.143 3.03.694.017.471.484-.5 1.05-2.033 1.184-2.312 3.543-.5 4.222.868.325.65.929-.712 1.975-1.709 1.312-1.782 1.724-.565 3.191.82.988 1.012 1.963.463 2.358-.515.371-1.004 5.174-1.088 10.674-.1 6.579.145 9.23.718 7.75.478-1.238 1.387-2.25 2.018-2.25.656 0 .925-.857.627-1.995-.504-1.928 2.044-10.094 3.651-11.701.434-.433 1.216-.022 1.739.913.582 1.04 1.588 1.456 2.589 1.072 1.096-.421 1.399-.242.915.541-.398.644-1.345 1.17-2.105 1.17-2.315 0-2.795 2.017-.962 4.042 1.578 1.743 1.588 1.972.116 2.537-1.119.43-1.363 1.129-.791 2.271.455.907.622 3.582.372 5.944-.389 3.686-.753 4.253-2.57 4-1.368-.19-2.239.324-2.464 1.456-.241 1.216.285 1.75 1.726 1.75 1.14 0 2.073.45 2.073 1s-.364 1-.808 1c-.444 0-.614 4.05-.378 9 .303 6.324.056 9.452-.83 10.519-1.031 1.243-.934 1.878.533 3.5 1.618 1.788 1.632 1.981.138 1.981-.988 0-1.655.806-1.655 2 0 1.111.667 2 1.5 2 .825 0 1.5.702 1.5 1.559s-.399 1.312-.887 1.011c-1.237-.764-3.151 1.766-2.306 3.049.381.579 1.593 1.562 2.693 2.186 1.931 1.095 1.921 1.135-.32 1.165-1.826.024-2.251.508-2 2.28.229 1.609.9 2.171 2.355 1.974 2.805-.381 3.07 3.384.29 4.111-1.12.293-1.848 1.097-1.618 1.786.751 2.253 2.775 2.097 3.731-.287.64-1.596.955-1.807.999-.666.034.918.336 2.38.67 3.25.387 1.009.064 1.582-.893 1.582-.825 0-1.766.692-2.09 1.538-.728 1.896 2.264 3.261 3.338 1.523.529-.855.927-.595 1.305.853.3 1.146.137 2.336-.361 2.644-1.64 1.014-.946 3.198 1.195 3.758 1.155.302 1.825.995 1.488 1.54-.337.545.247 2.488 1.297 4.317 2.961 5.161 3.534 7.827 1.681 7.827-.862 0-1.567.724-1.567 1.608 0 1.217.609 1.456 2.5.981 1.547-.388 2.5-.202 2.5.488 0 .613.914 2.398 2.032 3.968 1.431 2.01 1.835 3.637 1.367 5.503-.561 2.234-.37 2.589 1.218 2.262 2.037-.42 12.383 13.581 12.383 16.758 0 .89.913 1.858 2.028 2.15 1.444.377 1.857 1.07 1.433 2.405-.436 1.374.072 2.129 1.9 2.824 1.694.644 2.599 1.85 2.818 3.751.182 1.586.863 2.694 1.571 2.552.688-.138 1.25.2 1.25.75s.675 1 1.5 1 1.5.653 1.5 1.45c0 .798.639 1.81 1.419 2.25.781.44 1.568 1.464 1.75 2.276.585 2.611 5.503 5.804 11.596 7.527 1.245.353 2.006 1.059 1.691 1.569-.316.51-.097.928.485.928s1.059.477 1.059 1.059-.45.781-1 .441-1 .309-1 1.441c0 1.164.652 2.059 1.5 2.059.825 0 1.5-.717 1.5-1.594 0-.876.873-1.822 1.941-2.101 1.807-.472 2.395-7.179 1.035-11.805-.161-.55.084-1.873.545-2.94.547-1.266.429-2.077-.341-2.333-.649-.217-1.18-.982-1.18-1.702 0-1.855-4.874-2.875-6.659-1.393-1.242 1.031-1.369.829-.829-1.325.474-1.889.012-3.218-1.802-5.174-2.542-2.744-4.71-3.439-4.71-1.511 0 .735-.564.655-1.633-.232-1.479-1.228-1.417-1.406.662-1.897l2.294-.541-2.643-2.852c-1.453-1.568-2.368-3.295-2.033-3.838 1.276-2.064-2.053-2.588-4.452-.701-1.337 1.052-2.847 1.654-3.356 1.339-1.645-1.016-4.007 1.693-2.772 3.18.693.835.757 1.911.177 2.948-.716 1.281-1.832-.271-5.17-7.198-2.342-4.856-4.67-9.618-5.174-10.58-.504-.962-.526-1.75-.047-1.75 1.692 0-.08-4.826-1.952-5.316-2.25-.588-2.563-2.684-.401-2.684 1.706 0 2.036-2.551.456-3.527-.574-.355-1.645-.146-2.379.463-1.043.866-1.441.557-1.818-1.414-.28-1.468-.017-2.528.63-2.537.678-.01.611-.333-.173-.83-.731-.464-.998-1.56-.62-2.545.475-1.238.059-1.887-1.466-2.286-1.172-.307-2.13-1.138-2.13-1.847 0-.797.763-1.09 2-.767 1.368.358 2 .031 2-1.034 0-2.477-1.998-3.045-3.612-1.026-1.346 1.684-1.422 1.469-.846-2.4.477-3.197.302-4.251-.704-4.252-1.398-.002-3.473-7.882-6.42-24.371-2.308-12.921-2.448-16.884-.641-18.206 1.716-1.255.87-3.421-1.336-3.421-1.784 0-2.011-7.03-.283-8.758.876-.876.845-1.534-.131-2.709-.995-1.2-1.13-4.973-.595-16.622.792-17.235.935-17.889 3.766-17.149 1.476.386 1.936.139 1.603-.86-1.034-3.106-4.535-1.739-5.864 2.29-1.373 4.159-2.937 5.952-2.937 3.367 0-.857-.787-1.588-1.75-1.622-1.341-.049-1.224-.275.5-.968 2.53-1.017 2.807-2.012 1.05-3.769-.933-.933-.933-1.2 0-1.2.66 0 1.2-.751 1.2-1.669s1.328-4.022 2.951-6.898c2.057-3.646 3.097-7.074 3.434-11.33.539-6.805.566-6.781-4.57-4.068m316.768-.285c-.412.413-1.05.787-1.416.832-4.517.552-8.479 3.418-4.726 3.418 2.329 0 2.906 2.026.979 3.435-1.678 1.227-1.651 1.371.464 2.503 1.767.946 2 1.497 1.094 2.588-1.315 1.585-.37 3.834 1.203 2.862.573-.354 1.435-.024 1.915.734 1.281 2.022 1.093 2.888-.495 2.278-1.696-.65-3.067 1.194-1.574 2.117.584.36 1.686.136 2.45-.498 1.104-.916 1.717-.574 2.986 1.664 1.532 2.701 1.572 2.479.963-5.433-.441-5.735-.298-8.25.47-8.25.607 0 1.104-.675 1.104-1.5s-.675-1.5-1.5-1.5c-1 0-1.5-1-1.5-3 0-2.925-.902-3.765-2.417-2.25m-110.99 1.805c-.95.695-1.593 2.628-1.593 4.788 0 3.347.384 3.818 5.037 6.176 6.332 3.209 6.748 2.909 6.591-4.753l-.128-6.266-4.157-.555c-2.464-.329-4.805-.08-5.75.61m-103.676-.159c-.229.217-1.992.64-3.917.94-6.193.964-8.01 1.854-8.603 4.218-.345 1.373-1.763 2.727-3.489 3.328-3.293 1.148-4.219 5.177-1.158 5.039 1.056-.048 1.252-.28.494-.585-1.55-.625-.632-2.336 1.252-2.336 1.017 0 1.229.918.81 3.5-.312 1.925-.273 3.5.088 3.5.522 0 14.724-6.864 15.243-7.367.075-.073.455-2.496.844-5.383.616-4.578.037-6.375-1.564-4.854m122.925 7.354c-.086 2.063-.136 4.313-.111 5 .026.688-.291 1.25-.703 1.25-.413 0-.53 1.152-.261 2.56.421 2.204 9.09 9.44 11.309 9.44.901 0 3.223-16.779 2.56-18.506-.315-.822-1.064-1.494-1.664-1.494-.599 0-.812.45-.472 1 .905 1.465-.111 1.239-4.5-1-5.365-2.737-5.976-2.563-6.158 1.75m-154.092 5.945c-2.062 1.417-3.75 2.965-3.75 3.44 0 .476-.675.865-1.5.865s-1.5.637-1.5 1.417c0 .779-.467 1.572-1.037 1.762-1.116.372-1.522 5.101-1.178 13.713l.215 5.393 7.325-7.18c4.798-4.702 7.3-7.921 7.25-9.33-.051-1.471.715-2.375 2.425-2.863 1.375-.392 2.05-.764 1.5-.828-.565-.065-.499-.435.15-.849 1.3-.831 1.687-2.593 1.369-6.235l-.218-2.5-.692 2.5c-1.001 3.62-5.109 4.078-5.109.57 0-3.146-.504-3.134-5.25.125m180.776-.737c-.296.479.027 1.122.718 1.427.691.306.383.457-.685.336-1.521-.173-2.119.643-2.767 3.779-.455 2.2-1.349 6.25-1.987 9-1.603 6.911-1.225 9.453 1.894 12.708 3.408 3.557 3.73 3.113 5.286-7.288 1.168-7.805 1.126-8.82-.465-11.25-1.575-2.402-1.588-2.67-.135-2.67.888 0 1.615-.675 1.615-1.5 0-1.901-.47-1.887-2.429.071-1.321 1.322-1.571 1.341-1.571.117 0-.8.9-1.69 2-1.978 1.1-.287 2-.967 2-1.509 0-1.333-2.8-2.334-3.474-1.243m62.457 12.792c-.01 2.063-.937 7.125-2.061 11.25-2.474 9.076-2.471 9.016-.887 16.5 1.464 6.917 1.468 6.925 2.947 6.011.78-.482.802-1.067.07-1.948-.756-.912-.512-1.742.884-3.005 1.061-.96 1.702-2.338 1.424-3.062-.277-.723.203-2.684 1.068-4.356 1.941-3.753 1.968-12.284.057-17.64-.907-2.541-1.058-4.127-.415-4.347.648-.222.593-.854-.151-1.75-1.954-2.355-2.918-1.585-2.936 2.347m17.663 3.035c-.339 3.693-.909 9.112-1.266 12.042-.413 3.39-.176 6.76.651 9.268 1.183 3.582 1.127 4.075-.615 5.407-1.867 1.428-1.859 1.481.309 2.092 1.558.438 2.452 1.718 2.98 4.266.89 4.294.892 29.879.003 35.64-.34 2.2-.853 5.939-1.14 8.308-1.156 9.545-12.385 43.066-14.747 44.025-.452.184-.821.971-.821 1.75 0 .78-.945 2.362-2.1 3.517-1.367 1.367-1.759 2.441-1.123 3.077 1.77 1.77 6.439-7.02 12.709-23.924 3.184-8.582 5.467-11.696 8.601-11.729 2.01-.021 2.455-.787 3.5-6.024 2.553-12.8 3.695-18.057 4.237-19.5.735-1.957.995-6.685 1.235-22.5.226-14.884-1.645-27.403-5.967-39.932-1.531-4.437-2.6-8.6-2.377-9.25.224-.651-.461-1.647-1.522-2.215-1.794-.96-1.973-.56-2.547 5.682m-41.015 9.032c-1.502 5.353-1.504 6.248-.028 11.219 1.484 4.997 1.709 5.258 3.001 3.491.768-1.05 1.396-1.373 1.396-.718s.788 1.177 1.75 1.159c1.63-.029 1.625-.126-.079-1.418-1.511-1.145-1.628-1.761-.675-3.542 1.021-1.908-1.968-16.008-3.393-16.008-.187 0-1.074 2.618-1.972 5.817m-268.471-3.008c-.088.72-.579 1.05-1.091.734-.512-.317-1.213-.118-1.559.441-.345.559-.181 1.016.365 1.016 1.187 0 .435 4.921-1.02 6.675-.565.681-.762 1.666-.438 2.191.76 1.23-.498 4.571-1.306 3.468-1.105-1.508-5.174-3.413-6.087-2.849-.491.304.179 1.71 1.49 3.124 1.311 1.415 2.857 2.28 3.435 1.923 1.2-.742 1.285.421.412 5.698-.339 2.052-.918 3.544-1.286 3.316-.369-.228-1.324.015-2.123.539-1.236.812-1.181 1.16.374 2.35 1.616 1.236 1.745 2.33 1.119 9.503-.389 4.458-1.093 8.345-1.565 8.636-.472.292-.172 1.577.667 2.857 1.385 2.114 1.369 2.387-.169 2.977-1.501.576-1.423.901.683 2.863 2.063 1.922 2.149 2.257.657 2.545-2.128.41-2.291 3.184-.187 3.184 2.361 0 3.058 3.096 1.031 4.578-1.963 1.436-1.144 3.859 1.024 3.027.761-.292 1.84.323 2.399 1.366 1.379 2.577 1.279 3.068-.485 2.391-.935-.359-1.5.007-1.5.972 0 2.303 1.914 3.055 2.682 1.052.614-1.599.722-1.584 1.343.186.433 1.234.101 2.352-.925 3.11-1.355 1.002-1.389 1.385-.225 2.501 1.126 1.079 1.461 1.081 1.851.014.357-.978.789-.875 1.73.412.751 1.027 1.915 1.462 2.899 1.085 2.228-.855 2.079-2.768-.263-3.38-2.02-.529-3.056-3.062-3.078-7.533-.01-2.008.378-2.568 1.486-2.143.942.362 1.5-.01 1.5-1 0-.939-.565-1.358-1.399-1.038-2.3.882-2.605-.754-3.258-17.49-.551-14.11-.421-16.342 1.082-18.637 1.233-1.88 1.414-2.962.651-3.882-.582-.701-.861-1.472-.62-1.713.241-.241.711-2 1.044-3.908.333-1.909 1.032-3.62 1.553-3.803 1.538-.542 1.08-3.167-.553-3.167-1 0-1.5-1-1.5-3s.5-3 1.5-3c.825 0 1.5-.675 1.5-1.5s-.646-1.5-1.437-1.5c-.871 0-1.595-1.279-1.84-3.25-.221-1.788-.475-2.661-.563-1.941M378 326.476c0 .903-.45 1.364-1 1.024-.55-.34-1-.093-1 .548s-.661.912-1.468.603c-1.78-.683-3.016.932-1.453 1.898.698.431.115 1.339-1.567 2.443-1.472.966-2.527 2.15-2.345 2.632.183.482-.747 1.029-2.067 1.215-1.319.187-3.676 1.537-5.237 3-2.658 2.491-2.766 2.897-1.699 6.359.885 2.872 1.72 3.766 3.738 4 2.133.248 2.538.749 2.265 2.802-.183 1.375-.471 7.225-.639 13-.456 15.63 1.573 17 2.962 2 .72-7.778 1.192-9.912 2.556-11.555 1.106-1.333 1.088-1.748-.11-2.506-1.179-.746-1.123-.911.314-.924 1.119-.009 1.78-.827 1.833-2.265.128-3.451.586-6.076 1.395-8 .444-1.056.297-1.75-.371-1.75-1.913 0-1.203-3.459.99-4.829 1.154-.72 2.327-1.08 2.607-.8 1.168 1.168 3.094-1.872 2.019-3.187-.851-1.04-.486-1.249 1.745-1 1.75.196 3.008-.217 3.311-1.086.35-1.005-.099-1.247-1.59-.858-1.557.407-2.155.026-2.384-1.52-.368-2.489-2.805-3.57-2.805-1.244m35 5.941c0 .779.53 1.593 1.177 1.809.654.218.839.939.416 1.624-.422.682-1.616.96-2.677.623-1.332-.422-1.916-.13-1.916.96 0 .862.477 1.567 1.059 1.567s.781.45.441 1-1.54 1-2.666 1c-1.356 0-1.864.479-1.504 1.417.299.78-.122 1.673-.936 1.985-1.174.451-1.249 1-.362 2.658 1.628 3.042.267 10.731-1.477 8.346-.927-1.267-1.444-1.394-2.002-.491-.841 1.359.004 2.585 1.78 2.585.642 0 1.311 1.01 1.486 2.245.232 1.634-.081 2.092-1.149 1.682-.807-.31-1.767-.079-2.132.512-.366.591.039 1.345.899 1.675 2.109.809 1.986 4.008-.187 4.85-1.667.647-1.667.74 0 1.968 2.397 1.765 2.244 4.568-.25 4.568-2.303 0-2.632 1.767-.631 3.39 1.066.864 1.14 1.885.334 4.61-.699 2.366-1.167 2.933-1.442 1.75-.224-.962-.825-1.75-1.334-1.75-1.424 0-1.1 2.146.511 3.39 1.223.944 1.24 1.673.114 4.871-.728 2.069-.963 3.985-.521 4.258 1.389.858 5.969-15.714 5.969-21.597 0-6.797 2.277-15.922 3.973-15.922.895 0 2.148-.521 2.785-1.158.872-.872 1.498-.874 2.543-.007 1.096.91 1.618.637 2.504-1.307.616-1.351.774-2.67.351-2.932-1.04-.643-.168-7.596.953-7.596.49 0 .891-.675.891-1.5s-.613-1.5-1.362-1.5c-.945 0-1.343-1.301-1.302-4.25.04-2.8-.348-4.165-1.138-4-.659.137-1.198-.425-1.198-1.25s-.45-1.5-1-1.5-1 .637-1 1.417M65.467 351c.35 6.875 1.33 16.325 2.18 21l1.997 11c.983 5.418 4.646 16.658 6.355 19.5 1.72 2.862 3.23 5.618 12.216 22.313 2.166 4.022 7.728 13.88 12.361 21.906 4.633 8.026 8.424 14.814 8.424 15.084 0 1.006 7.659 9.947 14.958 17.462 5.825 5.998 7.471 8.317 7.229 10.187-.196 1.515.552 3.275 2 4.703 1.272 1.255 3.551 3.82 5.063 5.701 1.512 1.88 2.75 3.087 2.75 2.682 0-.406 1.532.77 3.404 2.612 8.114 7.986 8.288 7.968 7.746-.766-.34-5.476-.537-5.819-6.706-11.662-5.211-4.935-6.183-6.341-5.397-7.81 1.29-2.409-.588-3.513-2.584-1.518-1.72 1.72-4.463 1.105-4.463-1.001 0-.766-.472-1.393-1.048-1.393-.576 0-2.114-1.238-3.418-2.75-2.321-2.693-2.329-2.766-.368-3.499 2.078-.777 2.09-2.832.02-3.522-.654-.218-1.545.567-1.98 1.744l-.792 2.141-1.862-2.057c-1.657-1.831-1.68-2.057-.207-2.057 1.826 0 2.261-2.508.611-3.527-.574-.355-1.628-.16-2.342.432-1.653 1.372-2.933.185-1.571-1.457 1.18-1.421-1.573-4.857-3.124-3.898-.505.312-.919.091-.919-.491s.563-1.093 1.25-1.135c.688-.042-.325-.655-2.25-1.363-2.184-.804-3.448-1.903-3.361-2.924.076-.901-.251-1.637-.727-1.637-1.953 0-4.341-5.116-2.833-6.07 1.043-.66.689-.903-1.329-.915-2.252-.012-2.75-.461-2.75-2.48 0-1.441-.83-2.909-2-3.535-1.29-.69-2-2.094-2-3.952 0-1.585-.545-3.063-1.211-3.285-.667-.222-1.229-1.722-1.25-3.333-.029-2.172-.472-2.858-1.713-2.654-1.013.168-1.953-.623-2.379-2-.388-1.252-2.838-7.023-5.445-12.825C81.545 399.58 81.387 399 83.933 399c2.045 0 2.682-1.051 1.409-2.325-.362-.362-1.296-.128-2.076.519-1.104.916-1.62.859-2.327-.258-1.311-2.073-1.147-2.936.561-2.936.825 0 1.5-.727 1.5-1.617 0-1.106-.611-1.456-1.935-1.11-2.263.591-3.636-1.84-1.502-2.659 2.318-.889 1.802-3.943-.562-3.325-2.543.665-3.817-1.253-1.641-2.47 2.542-1.423 2.002-3.819-.86-3.819-1.556 0-2.5-.567-2.5-1.5 0-.851.897-1.5 2.073-1.5 1.398 0 1.968-.543 1.75-1.667-.496-2.562-2.73-2.759-3.632-.322-.895 2.422-5.2-13.678-7.284-27.246-1.686-10.971-2.144-9.624-1.44 4.235m77.124-4.25c-1.012 2.613-2.526 6.55-3.365 8.75-1.882 4.94-2.429 15.5-.802 15.5 1.138 0 6.181-17.964 5.958-21.227-.065-.95.273-1.486.75-1.191.477.295.868-1.066.868-3.023 0-4.885-1.22-4.459-3.409 1.191m31.122 6.963c-1.993 3.079 4.505 33.291 7.158 33.286 1.066-.002.585-11.171-.754-17.499-1.578-7.46-3.291-12.5-4.248-12.5-.402 0-.874-1.012-1.051-2.25-.215-1.508-.579-1.85-1.105-1.037m217.07 2.97c-1.753.46-2.243 2.313-3.176 12.015-.49 5.088 1.231 6.772 2.784 2.725.301-.783 1.235-1.423 2.078-1.423.842 0 1.531-.848 1.531-1.883 0-1.043.893-2.117 2-2.407 1.1-.287 2-1.067 2-1.733 0-.718-.814-.998-2-.687-1.57.41-2 .03-2-1.767 0-1.485.738-2.483 2.101-2.839 1.156-.303 1.804-1.029 1.441-1.617-.661-1.068-3.533-1.231-6.759-.384m-264.321 30.199c.503 1.582.249 2.118-1.003 2.118-1.302 0-1.531.575-1.028 2.58.574 2.288.406 2.503-1.484 1.903-1.717-.545-2.053-.317-1.73 1.17.221 1.016.938 1.734 1.592 1.597 1.226-.257 1.534 1.244 1.225 5.969-.115 1.758.966 4.143 3.061 6.75 3.781 4.705 5.417 5.18 4.415 1.281-2.92-11.369-3.288-14.745-1.742-15.972 1.373-1.092 1.355-1.294-.176-1.881-1.21-.464-1.623-1.553-1.404-3.694.195-1.891-.199-3.205-1.043-3.487-.98-.327-1.169.134-.683 1.666m36.976 9.728c.396 1.578 1.145 3.133 1.665 3.453.519.321 1.116 1.451 1.327 2.51.506 2.547 6.544 12.469 10.18 16.731 1.589 1.863 3.474 4.244 4.188 5.292 1.256 1.842 1.276 1.839.615-.096-.376-1.1-.622-3.088-.546-4.418.076-1.33-.608-3.243-1.519-4.25-.912-1.008-1.345-1.832-.964-1.832.714 0-.616-1.799-3.547-4.798-.915-.936-3.424-4.601-5.576-8.144-4.35-7.161-7.015-9.197-5.823-4.448m111.821 18.64c-2.455 1.72-3.791 3.959-5.667 9.5-1.35 3.988-2.243 7.25-1.983 7.25 3.622 0 8.472-4.51 9.948-9.251 1.947-6.255 2.517-9.749 1.591-9.749-.372 0-2.122 1.012-3.889 2.25m100.416 4.771c-2.585 2.738-5.482 4.981-6.437 4.983-2.641.006-8.961 8.371-8.84 11.701.095 2.6.363 2.775 3.852 2.502 2.84-.222 3.75.081 3.75 1.25 0 .849.675 1.543 1.5 1.543 1.977 0 1.919-1.666-.097-2.794-1.323-.741-.993-1.25 1.922-2.97 3.877-2.288 6.686-6.225 4.46-6.251-.993-.012-1.007-.192-.063-.792.673-.427 1.496-2.558 1.83-4.735.334-2.177 1.282-5.01 2.107-6.295 2.635-4.102.86-3.275-3.984 1.858M223 423.788c0 6.782 3.212 11.622 8.737 13.162 4.302 1.2 4.587.342 1.848-5.569-6.579-14.2-10.585-17.074-10.585-7.593m126.423-1.268c-1.608 2.189-3.711 4.88-4.674 5.98-3.627 4.143-14.507 20.021-14.048 20.5.263.275 1.467-.738 2.676-2.25s2.77-2.75 3.47-2.75c.699 0 1.023-.402.719-.893-.304-.492.54-1.168 1.874-1.503 1.335-.335 2.712-1.508 3.061-2.606.348-1.099 1.27-1.998 2.047-1.998.778 0 1.679-1.238 2.002-2.75.699-3.269 1.774-5.624 4.557-9.99 3.112-4.881 1.697-6.343-1.684-1.74m-153.71 16.238c-1.528 3.371-1.509 3.72.335 6.309 1.074 1.508 1.952 3.154 1.952 3.657 0 1.49 5.245 6.634 8.75 8.583 4.014 2.231 4.099 1.335.613-6.432-1.58-3.522-3.282-5.907-4.25-5.954-1.057-.052-1.177-.254-.349-.588.943-.38.713-1.492-.908-4.375-2.915-5.187-4.22-5.442-6.143-1.2m187.593-.043c-.656.228-.946 1.06-.643 1.85.33.86-.06 1.435-.974 1.435-.839 0-2.499 1.575-3.689 3.5-2.253 3.646-3.664 4.672-2.596 1.889.512-1.332.14-1.489-2.143-.906-5.499 1.404-6.261 1.399-6.261-.04 0-.794-.675-1.443-1.5-1.443s-1.5.675-1.5 1.5-.831 1.5-1.847 1.5c-2.815 0-6.074 3.353-6.803 7-.512 2.559-.349 3.157.748 2.759.771-.28 1.31-.955 1.197-1.499-.22-1.063 7.325-.973 8.398.1.352.352-.055.64-.904.64-2.159 0-4.231 2.609-2.783 3.503.606.375 2.105-.485 3.33-1.911 2.112-2.458 4.665-3.467 4.663-1.842-.002 1.211-4.651 6.265-5.23 5.686-.291-.291-.81.504-1.154 1.767-.344 1.264-2.664 3.58-5.155 5.148-3.439 2.164-4.389 3.296-3.945 4.697.715 2.253-6.929 10.709-8.046 8.901-.514-.83-.989-.829-1.824.006-.838.838-.774 1.347.248 1.979 1.096.677.954 1.078-.692 1.959-2.321 1.241-5.301 1.517-3.701.342.55-.404 1.083-1.635 1.185-2.735.102-1.1.327-2.852.5-3.892.173-1.041-.247-2.091-.935-2.334-.687-.242-1.25.2-1.25.982 0 .783-1.051 1.902-2.336 2.487-2.085.95-2.334 1.728-2.313 7.222.024 6.042.071 6.146 2.492 5.538 1.357-.34 4.691-2.564 7.409-4.942 3.375-2.953 5.624-4.196 7.095-3.922 2.06.385 2.067.361.153-.548-1.1-.523-1.663-1.038-1.25-1.146.885-.23 4.089-.644 6.357-.82.98-.076 1.387-.698 1.044-1.593-.31-.807-.133-1.734.393-2.059.526-.325.956-.049.956.614s1.104.014 2.452-1.441c1.349-1.455 3.149-2.646 4-2.646.866 0 1.548-.856 1.548-1.941 0-2.263 1.573-3.558 2.5-2.059.714 1.155 2.5.398 2.5-1.059 0-.518-.469-.941-1.042-.941-.573 0-1.635-.554-2.36-1.231-1.497-1.398 1.693-6.769 4.021-6.769.683 0 1.386-1.012 1.561-2.25.22-1.543.893-2.152 2.143-1.939 1.396.238 1.748-.231 1.5-2-.245-1.751.162-2.312 1.677-2.317 1.464-.005 2-.675 2-2.5 0-1.808.505-2.452 1.834-2.341 1.475.123 1.712-.334 1.21-2.333-.49-1.955-.188-2.6 1.416-3.02 1.369-.358 2.04-1.358 2.04-3.039 0-2.168-.213-2.329-1.576-1.198-1.048.869-1.803.961-2.25.273-.371-.57-1.211-.85-1.868-.621M159.672 444c-1.098 3.267-.064 5.141 6.852 12.426 3.955 4.166 6.58 7.574 5.834 7.574-.747 0-1.358.675-1.358 1.5 0 1.809 3.624 2.018 4.338.25.301-.747.536-.545.583.5.098 2.163 4.079 2.407 4.079.25 0-.825-.787-1.508-1.75-1.517-1.073-.011-3.189-2.431-5.466-6.25-4.987-8.364-12.439-16.736-13.112-14.733m5.03 31.967c.283 1.082 1.094 2.449 1.803 3.037.709.588 1.058 1.953.775 3.033-.351 1.341-.011 1.963 1.072 1.963 2.351 0 .858 2.97-2.049 4.075-2.427.923-2.34 2.925.128 2.925.757 0 1.64 1.799 2.085 4.25.429 2.365.962 3.474 1.201 2.5.236-.962 1.12-1.75 1.963-1.75.996 0 1.318.562.92 1.601-.366.953.3 2.567 1.643 3.983 2.613 2.757 4.757 3.122 4.757.809 0-1.041-.546-1.397-1.552-1.011-1.004.385-1.303.192-.845-.548.435-.704.263-.869-.448-.429-.635.392-1.155.236-1.155-.346s.478-1.059 1.063-1.059c.584 0 .933-.788.775-1.75-.159-.962.067-2.316.501-3.008.454-.724.177-1.869-.655-2.701-.794-.793-1.743-3.04-2.109-4.992-.4-2.134-1.246-3.549-2.12-3.549-.8 0-1.455-.477-1.455-1.059s.45-.781 1-.441c2.453 1.516.663-1.589-2.535-4.396-4.081-3.584-5.491-3.92-4.763-1.137m198.739 15.501c-1.067.808-2.714 1.483-3.66 1.5-1.111.021-1.515.562-1.143 1.532.591 1.539-.343 1.867-4.388 1.539-1.237-.1-2.957.525-3.821 1.389-.865.865-1.165 1.572-.667 1.572s.905.655.905 1.456c0 .801-.445 1.181-.988.846-.543-.336-.675-.105-.293.513.412.667-1.765 3.035-5.349 5.818-3.324 2.581-5.873 4.864-5.664 5.073.587.588 7.627-2.975 7.627-3.86 0-.432 2.587-2.433 5.75-4.448 3.163-2.015 6.081-4.167 6.485-4.781.426-.649.77-.698.82-.117.047.55.472.1.945-1 .761-1.77.868-1.683.93.758.064 2.515.25 2.648 2.104 1.5 1.315-.813 1.933-2.111 1.75-3.671-.156-1.327.279-2.602.966-2.833.688-.231 1.25.292 1.25 1.163s.436 1.583.969 1.583c1.168 0 .112-3.202-1.396-4.235-.721-.494-.663-.739.177-.75.688-.008 1.25-.465 1.25-1.015 0-1.46-2.325-1.222-4.559.468m-156.089 6.348c-1.613 1.048-2.305 8.886-1.024 11.599 1.247 2.644 10.137 5.26 11.327 3.335.736-1.191-1.695-2.843-2.999-2.038-.562.348-.738-1.502-.439-4.614l.499-5.194-2.958.649c-2.634.579-2.887.429-2.317-1.368.698-2.197-.414-3.458-2.089-2.369m-31.857 21.193c-.491.794.07 1.909 1.505 2.991 1.258.949 2.012 2.171 1.676 2.715-.337.545.034 1.844.824 2.888.79 1.043 1.451 2.645 1.468 3.56.059 3.085 15.507 17.835 18.697 17.852 2.198.012 2.498.233 1.335.985-.825.533-1.275.981-1 .996.275.014 2.637.674 5.25 1.467 5.512 1.672 6.412.315 1.5-2.26-6.329-3.317-20.323-19.017-22.146-24.845-.369-1.179-2.016-2.7-3.661-3.382-1.645-.681-3.367-1.912-3.828-2.736-.654-1.168-1.01-1.219-1.62-.231" fill="#d3d3d3" fill-rule="evenodd"/></svg>