<svg xmlns="http://www.w3.org/2000/svg" width="500" height="668"><path d="M176 1.044c15.675.393 46.275.996 68 1.341 21.725.344 50.982.902 65.015 1.241l25.515.615-.383 4.011-.382 4.012-13.883-.657c-9.238-.437-13.882-.314-13.882.368 0 1.175-3.647 1.406-4.345.275-.255-.412-5.794-.718-12.309-.679-6.516.039-12.071-.228-12.346-.593-.843-1.119-7.167-2.057-6.491-.963.335.542-.066.985-.891.985s-1.737-.384-2.028-.854c-.29-.47-5.492-.687-11.559-.483-10.003.337-11.037.207-11.094-1.395-.052-1.435-.226-1.365-.928.373-.724 1.795-2.007 2.256-7.937 2.852-3.889.39-7.072 1.036-7.072 1.435s1.463.567 3.25.372c2.557-.278 2.077.094-2.25 1.744-3.025 1.153-6.4 2.481-7.5 2.951-4.349 1.858-14.264 3.196-14.989 2.022-.553-.894-7.194-.366-13.381 1.063-2.404.555-9.154 1.654-15 2.441-5.847.788-15.13 2.381-20.63 3.54-5.5 1.159-14.725 2.31-20.5 2.557-13.529.579-13 .495-13 2.049 0 1.685-1.682 1.747-2.292.083-.355-.97-.742-.983-1.727-.056-2.644 2.487 1.603 9.527 8.699 14.422 4.903 3.382 7.155 3.588 10.498.959 1.579-1.242 2.937-1.622 3.828-1.071.946.585 1.713.203 2.437-1.213.582-1.137 1.282-1.9 1.557-1.697.275.203 1.613-.41 2.973-1.362 4.654-3.26 8.652-2.308 14.117 3.362 2.701 2.801 4.91 5.52 4.91 6.04 0 1.472 4.25 6.862 5.438 6.898 1.041.031 6.562 4.475 6.562 5.283 0 1.04-5.55-.347-6.481-1.619-.576-.789-2.616-1.744-4.533-2.122l-3.486-.689 2.5 2.035c2.983 2.429 2.045 2.672-2.079.539-1.639-.847-3.366-1.302-3.837-1.011-.472.292-1.413-.14-2.093-.959-1.025-1.235-.892-1.489.78-1.489 1.108 0 2.288-.712 2.622-1.582.84-2.189.762-2.632-.343-1.949-.522.323-1.438-.326-2.035-1.441-1.041-1.945-3.99-2.72-5.313-1.397-.347.348-.156 1.521.426 2.608.75 1.401.739 2.294-.035 3.068-.601.601-1.129 2.015-1.174 3.143-.06 1.527-.508 1.137-1.757-1.531-1.784-3.809-3.105-3.976-6.287-.794-2.464 2.464-6.529 2.402-8.107-.125-1.54-2.465-3.342-2.561-4.688-.25-.561.962-1.033 1.395-1.05.961-.016-.435-.637-.223-1.379.47s-1.151 2.015-.91 2.937c.525 2.009-1.5 6.149-2.658 5.434-.448-.278-1.611.374-2.583 1.448-.972 1.074-2.157 1.712-2.634 1.417-.476-.294-.866.197-.866 1.091 0 1.204-.553 1.451-2.125.952-1.306-.414-1.889-.291-1.511.319.337.547-.26 1.222-1.327 1.501-1.068.279-2.101.028-2.296-.557-.195-.586-1.342-1.138-2.548-1.227-1.995-.147-2.652.648-2.302 2.782.07.428-.552 1.038-1.382 1.357-.83.318-1.509 1.206-1.509 1.972S108.648 80 108.218 80c-1.376 0-1.24-4.819.303-10.742.957-3.673 1.133-5.873.489-6.088-.556-.185-1.01-.776-1.01-1.312 0-.537.45-.698 1-.358.55.34 1 .168 1-.382s-.458-1.283-1.018-1.629c-.628-.388-.303-1.537.852-3.005 2.724-3.462 1.575-10.093-1.686-9.735-1.245.136-2.007-.168-1.693-.676.314-.508.068-2.025-.545-3.372-.816-1.791-.819-3.002-.01-4.515 1.002-1.871.846-2.047-1.647-1.859-2.117.16-2.82.782-3.045 2.691C100.797 42.516 98.892 46 97.39 46c-2.157 0-2.581-1.889-.948-4.221.857-1.223 1.558-2.659 1.558-3.19 0-1.653-4.395 3.596-6.578 7.855-1.427 2.784-2.895 4.213-4.682 4.556-3.677.706-9.806 5.89-10.994 9.299l-1.003 2.878-1.742-3.838c-.958-2.112-1.382-4.234-.943-4.717.439-.483.405-1.608-.075-2.5-.481-.892-1.151-3.347-1.489-5.456-.447-2.782-1.01-3.682-2.055-3.281-1.015.389-1.439-.183-1.439-1.941 0-1.755-.758-2.782-2.56-3.467-1.495-.568-2.274-1.437-1.872-2.087.379-.612.127-1.46-.558-1.884-.931-.575-.714-1.302.855-2.871l2.101-2.101-2.895-2.767c-5.599-5.353-7.47-6.471-6.471-3.868.899 2.345-1.421 2.804-2.642.522-.902-1.685-1.754-2.012-4.05-1.553-1.797.36-2.908.163-2.908-.515 0-.745-.402-.776-1.25-.099-.687.55-2.76.9-4.606.777-4.187-.277-10.104 1.694-11.72 3.904-.787 1.076-1.359 1.26-1.607.516-.246-.738-2.21-.078-5.449 1.832-2.785 1.642-6.055 3.3-7.267 3.685-1.212.384-3.546 2.012-5.187 3.616C7.274 36.688 5.32 38 4.573 38c-1.536 0-2.871-2.708-2.017-4.09.309-.501.059-.91-.556-.91s-.896-.359-.625-.798c.271-.439.08-1.451-.426-2.25-.564-.891-.924 23.156-.934 62.275L0 155.954l2.415 1.582c1.328.87 3.509 1.699 4.847 1.842 3.82.407 7.207 3.988 5.283 5.584-1.568 1.302 1.122 3.982 7.205 7.177 1.238.65 2.25 1.821 2.25 2.601 0 1.037.761 1.252 2.823.799 4.738-1.041 12.383 2.792 11.621 5.827-.333 1.329-.12 2.716.475 3.084 1.693 1.046 1.274 2.354-.985 3.071-1.136.361-4.246 2.528-6.911 4.817-2.665 2.289-6.42 5.287-8.345 6.662-1.925 1.375-3.428 2.95-3.339 3.5.089.55-.514 1.021-1.339 1.046-2.997.093-6.207 2.698-7.853 6.374-2.005 4.479-4.421 7.08-6.576 7.08-2.099 0-2.415 44.493-.321 45.338 1 .403 1 .52 0 .583-1.58.1-1.83 49.099-.259 50.67.655.655.587 2.917-.2 6.667-1.323 6.309-1.137 6.907 1.901 6.112 1.768-.462 2.081-1.252 1.956-4.95-.131-3.909.686-5.42 2.934-5.42.23 0 .418 1.602.418 3.559 0 2.118.405 3.309 1 2.941.55-.34 1-2.421 1-4.625 0-4.734 1.619-8.235 3.478-7.522 1.144.439 2.393-1.593 2.887-4.698.202-1.268 5.912-5.602 6.722-5.101.881.544 2.094-2.452 1.429-3.528-.792-1.281 5.434-3.476 6.588-2.322 1.088 1.088-.785 6.296-2.265 6.296-.461 0-.839 1.147-.839 2.55 0 3.378-2.366 7.806-5.48 10.256-1.386 1.09-2.52 2.443-2.52 3.006 0 2.311-5.16 11.081-6.767 11.502-1.62.424-1.621.462-.017.57 2.296.155-.534 5.113-5.679 9.952-1.952 1.836-3.313 3.717-3.026 4.181.287.465.064 1.127-.495 1.473-.559.345-1.03.039-1.048-.681-.019-.807-.594-.565-1.5.632-1.881 2.488-2.078 13.929-.228 13.312.768-.256 1.119-1.807.923-4.083-.333-3.86 1.062-4.876 2.694-1.962.695 1.242.504 2.052-.701 2.968-.959.73-1.155 1.274-.465 1.292.655.018 1.432-.358 1.726-.834.294-.476 1.559-.675 2.809-.441 1.251.233 3.174-.299 4.274-1.182 1.916-1.538 1.863-1.579-1.267-.975l-3.267.63.315-4.827c.233-3.573.822-5.09 2.267-5.837 1.073-.556 4.03-3.033 6.571-5.506 9.169-8.925 13.907-12.113 15.554-10.466 1.862 1.863 5.327 1.914 5.327.078 0-.765-1.125-1.674-2.5-2.019-2.73-.685-3.404-2.514-1-2.714 3.718-.31 6.338-1.789 7.029-3.967.573-1.806 3.446-2.758 3.493-1.158.012.413.878 1.863 1.924 3.224 1.869 2.433 1.935 2.443 3.977.595 1.732-1.567 2.077-1.622 2.077-.331 0 2 2.486 2.929 5.687 2.126 1.642-.412 2.84-.15 3.42.751.707 1.097 1.063 1.123 1.709.123.904-1.397 7.184-.622 7.184.887 0 .481.498.875 1.107.875s.848-.675.531-1.5c-1.07-2.789.428-4.7 3.149-4.017 1.933.485 3.162-.02 5.304-2.176 4.8-4.832 6.34-6.032 8.659-6.748 1.318-.406 2.25-1.495 2.25-2.626 0-1.063.498-1.933 1.107-1.933s.861-.642.559-1.427c-.632-1.647 1.852-4.036 4.22-4.058.887-.008 1.62-.771 1.627-1.694.007-.924.344-2.012.75-2.417.405-.406.737-.212.737.429 0 1.909 3.726 1.324 4.246-.666.264-1.009 1.216-1.834 2.117-1.834 1.956 0 2.009.593.259 2.897-.851 1.121-1.096 3.059-.695 5.5l.619 3.77 9.477-.221c5.212-.121 10.377-.346 11.477-.5 3.122-.436 2.382 2.173-1.445 5.093-1.894 1.445-3.105 2.066-2.691 1.378 1.021-1.693.056-1.571-2.899.365-2.719 1.782-3.662-.018-1.265-2.415.933-.933.735-1.2-.893-1.2-2.213 0-4.032 2.934-2.432 3.923.525.324.136 1.58-.876 2.83-2.27 2.803-3.433 2.926-1.979.209.6-1.121.807-2.932.46-4.024-.596-1.88-.841-1.82-4.534 1.104-2.146 1.701-5.149 4.412-6.671 6.025-1.523 1.613-3.67 2.949-4.772 2.968-1.102.02-3.128.662-4.503 1.428-2.196 1.223-2.287 1.475-.75 2.072 2.2.854 2.301 3.465.133 3.465-1.137 0-1.457.608-1.081 2.048.369 1.411-.429 3.036-2.563 5.219-3.47 3.549-4.354 12.07-1.473 14.194.775.571 1.2 1.661.944 2.421-.348 1.036.307 1.269 2.617.93 2.503-.367 3.137-.076 3.377 1.551.318 2.148 3.477 3.432 10.303 4.188 3.744.414 4.095.23 5.336-2.804.731-1.786 2.303-5.244 3.493-7.685s2.046-4.969 1.901-5.617c-.145-.648.418-1.743 1.25-2.434 2.827-2.346 1.876-5.011-1.787-5.011-1.815 0-3.728.403-4.25.896-.53.499-1.91.526-3.122.06-3.756-1.443-1.237-5.728 8.294-14.108 1.033-.908 3.719-3.608 5.97-6 2.25-2.391 6.187-5.392 8.75-6.668 4.21-2.097 6.785-5.21 3.158-3.818-.825.316-1.5.139-1.5-.393 0-1.06.461-1.156 6.785-1.417 3.196-.132 4.156.16 3.777 1.148-.373.97.153 1.159 1.965.704 1.58-.397 2.473-.196 2.473.555 0 .737.779.929 2.086.514 1.889-.6 1.974-.454.906 1.541-1.568 2.931-4.981 15.331-4.383 15.928.259.259.73-.522 1.047-1.736.611-2.333 2.767-2.948 3.902-1.112.709 1.147 6.629.804 9.762-.566 1.683-.736 1.797-.238 1.5 6.576-.298 6.871-.503 7.46-3.002 8.656-1.475.706-3.598 2.766-4.718 4.578-3.114 5.038-5.901 7.261-7.324 5.838-.647-.647-2.038-1.176-3.093-1.176-1.941 0-1.963-.928-.127-5.414.617-1.505.481-1.722-.636-1.015-1.393.881-1.908 1.052-3.92 1.304-.55.069-1 1.497-1 3.175 0 3.335-2.499 8.95-3.984 8.95-.512 0-2.17 2.137-3.684 4.75-1.514 2.613-3.946 6.419-5.404 8.459-1.458 2.04-3.251 5.19-3.983 7-.732 1.81-1.602 3.516-1.933 3.791-.331.275-1.579 2.188-2.773 4.25-2.144 3.703-2.146 3.75-.162 3.75 1.106 0 3.224-1.125 4.706-2.5 3.16-2.929 5.61-3.312 4.797-.75-.594 1.871 4.606 2.603 7.08.997.638-.415 1.875-.479 2.75-.143.874.335 1.59.112 1.59-.497s1.152-1.107 2.559-1.107c1.523 0 2.298-.423 1.914-1.044-.355-.574-.141-1.652.476-2.395.617-.743.993-1.96.836-2.706-.19-.903.549-1.271 2.215-1.102 1.95.197 2.17.036 1-.735-1.279-.842-1.238-.99.281-1.003.98-.008 2.041.66 2.357 1.485.79 2.057 2.359 1.892 2.373-.25.007-.962 2.257-3.701 5-6.085 3.357-2.917 4.989-5.11 4.989-6.701 0-1.3.787-2.823 1.75-3.384.971-.566 1.194-1.033.5-1.05-.687-.016-1.25-.705-1.25-1.53 0-.825-.498-1.5-1.107-1.5s-.848.675-.531 1.5c.33.86.02 1.5-.727 1.5-2.377 0-2.489-1.133-.453-4.584 2.134-3.617 3.289-4.209 4.223-2.166.314.688.325-.17.025-1.905-.654-3.772.48-4.71 4.052-3.352 3.743 1.423 6.398-.168 5.77-3.458-.285-1.489-.025-2.535.631-2.535.615 0 1.117.788 1.117 1.751 0 4.541-6.359 45.293-9.015 57.776-1.642 7.716-2.985 16.316-2.985 19.113 0 5.569-1.868 13.735-8.581 37.514-2.43 8.609-4.419 16.147-4.419 16.75 0 .775 10.931 1.096 37.349 1.096 20.542 0 40.792.291 45 .647 7.432.628 7.651.722 7.651 3.277 0 1.447.787 3.734 1.75 5.083.962 1.349 2.276 3.586 2.919 4.972.783 1.69 1.195 1.977 1.25.872.069-1.409 1.871-1.726 12.331-2.17 19.253-.817 21.622-.661 22.299 1.474 1.383 4.356-.303 5.845-6.616 5.845H269v36h-4.5c-2.475 0-4.531-.337-4.569-.75-.038-.413-.187-6.375-.331-13.25-.144-6.875-.337-14.637-.431-17.25L259 492h-5.433c-6.197 0-8.277 2.453-5.078 5.988 1.927 2.129 2.809 17.776 1.028 18.244-.559.148-19.936.043-43.058-.232-59.54-.708-71.554-.354-72.203 2.129-.41 1.57-1.277 1.892-4.563 1.698-2.486-.147-4.213.232-4.461.978-.592 1.776-3.514 3.111-9.153 4.18-6.499 1.233-12.973 5.992-20.944 15.4l-6.366 7.512-14.634-7.415c-15.907-8.06-24.352-12.63-25.135-13.603-.275-.342-3.417-2.088-6.982-3.882-5.549-2.791-6.887-3.107-9.295-2.198-2.547.961-2.755.879-2.201-.869.365-1.15.144-1.93-.548-1.93-.639 0-1.397.9-1.684 2-.656 2.507.052 2.598-11.79-1.512-9.223-3.201-14.74-4.394-13.202-2.857.347.348.182 1.473-.368 2.5-.687 1.284-.64 2.541.148 4.016.946 1.766.843 2.318-.584 3.116-1.414.792-1.481 1.131-.364 1.839 1.077.682.996.871-.38.883C.101 527.999 0 531.934 0 596.5V665h7.378c5.337 0 7.721-.415 8.622-1.5 1.386-1.67 6.549-2.038 7.48-.533.603.977 3.462.711 11.321-1.055C39.26 660.91 53 663.958 53 665.949c0 .475.902.628 2.005.339 1.103-.288 2.678.034 3.5.716.971.806 1.933.91 2.745.295 1.619-1.224 5.964-1.454 5.237-.277-.33.533 88.005.922 216.478.954 213.413.052 217.035.021 217.035-1.868 0-1.428-.513-1.787-2-1.398-1.202.314-2 .031-2-.71 0-.776.926-1.056 2.5-.755l2.5.478-.239-68.612c-.173-49.687-.314-56.82-.511-25.861-.149 23.513-.604 42.75-1.011 42.75-.406 0-.739-10.462-.739-23.25V565.5l-4.716-.303c-2.594-.167-5.519.114-6.5.624-1.97 1.025-6.333-.054-4.586-1.134.649-.402-.254-2.057-2.317-4.244-1.859-1.972-3.381-4.003-3.381-4.514 0-.511-.402-.929-.893-.929-1.495 0-2.161 3.031-1.101 5.012 1.159 2.166-.288 3.592-1.752 1.727-1.865-2.376-2.339-7.769-.737-8.384 1.514-.581 2.121-4.355.7-4.355-.43 0-.87-2.025-.978-4.5-.13-2.991.216-4.505 1.033-4.515.783-.01.858-.282.208-.75-1.272-.916-3.48-5.841-3.48-7.763 0-1.437 1.64-1.441 8.25-.023 1.512.325 2.746.244 2.742-.179-.009-.931-4.847-3.27-6.763-3.27-1.446 0-4.965-2.989-3.55-3.015.451-.009.146-.459-.679-1-1.258-.826-1.278-1.128-.122-1.873.758-.489 1.083-1.367.722-1.951-.362-.584-.716-2.637-.789-4.561-.145-3.875-2.229-3.696-5.125.438-1.381 1.971-1.399 3.305-.186 13.273.341 2.809.077 6.215-.635 8.184-.977 2.704-.961 3.684.08 4.939.874 1.053.932 1.566.177 1.566-.617 0-1.163.788-1.212 1.75-.05.962-.484.4-.965-1.25-.682-2.339-1.488-3.035-3.657-3.16-3.014-.172-4.924 1.649-2.985 2.847.658.407 1.253 1.206 1.322 1.777.069.57.181 1.463.25 1.984.069.522 1.243 2.21 2.609 3.75 4.229 4.768 4.618 5.302 3.864 5.302-.402 0 .094.603 1.101 1.339 1.593 1.165 1.629 1.417.274 1.937-.865.332-1.791-.011-2.083-.772-.289-.753-1.978-1.512-3.754-1.686-3.4-.335-5.82-3.375-7.247-9.101-.382-1.531-1.581-3.544-2.666-4.472-1.085-.929-1.973-2.238-1.973-2.908 0-1.379-1.865-2.805-2.646-2.024-.283.282.153 1.565.968 2.85.815 1.285 1.807 3.912 2.205 5.837.399 1.925 1.191 3.797 1.761 4.159.57.363 1.076 2.726 1.125 5.25.059 3.115.516 4.591 1.42 4.591.734 0 1.148.562.921 1.25-.26.787-2.793 1.352-6.833 1.524-8.306.354-9.536.78-7.911 2.738 1.068 1.287.484 1.488-4.329 1.488-3.059 0-5.841-.45-6.181-1-.34-.55.196-1.004 1.191-1.009.995-.005 4.017-1.079 6.716-2.385 3.885-1.882 5.549-2.192 7.993-1.491 3.937 1.129 4.6 1.112 4.6-.115 0-1.307-3.707-5-5.019-5-.575 0-.758-1.041-.419-2.391.33-1.315.114-2.691-.481-3.059-.595-.367-1.081-1.118-1.081-1.668 0-.55.45-.722 1-.382.55.34 1 .141 1-.441 0-1.349-1.607-1.241-6 .404-3.107 1.163-3.275 1.399-1.5 2.101 1.931.763 3.453 2.303 3.485 3.525.008.325-1.199 1.143-2.683 1.819-2.116.964-2.392 1.419-1.279 2.106.781.483 1.207 1.074.948 1.315-1.025.952-6.971 1.776-6.971.966 0-.475-1.35-1.661-3-2.636-1.65-.975-3-1.452-3-1.061 0 .392-.9-.103-2-1.098-2.274-2.058-2.59-4.095-.75-4.838.835-.337.738-.53-.291-.583-.848-.043-2.799-2.562-4.335-5.597-1.672-3.303-3.917-6.099-5.59-6.965-2.667-1.379-6.384-5.281-8.534-8.96-1.128-1.93-3.299-2.21-18.75-2.415L372 528v-21.383c0-20.956.042-21.395 2.123-21.939 1.991-.521 2.081-.979 1.439-7.367-1.07-10.65-.496-10.052-10.352-10.794-15.588-1.175-32.388-3.42-33.692-4.502-.875-.727-2.108-.741-3.936-.046-2.763 1.05-29.582.251-29.582-.881 0-.331-2.071-.438-4.602-.236-4.097.325-4.542.162-4.059-1.493 2.202-7.547 1.854-13.234-1.312-21.446-2.152-5.579-3.239-10.226-3.355-14.334l-.172-6.079 6.5.182c7.211.201 28.894 1.58 60 3.816 28.612 2.056 25.45 2.587 27.908-4.692 2.51-7.433 2.588-8.806.5-8.806-.876 0-2.789-.963-4.25-2.139l-2.658-2.139 3 .717c1.65.394 3.698 1.346 4.552 2.115 1.377 1.24 1.866.414 4.342-7.328 1.535-4.799 3.154-9.626 3.599-10.726.445-1.1 2.013-5.802 3.485-10.449 1.472-4.648 3.385-9.818 4.25-11.491.865-1.673 1.756-5.971 1.98-9.551.224-3.58 1.056-7.506 1.849-8.724.794-1.218 1.443-2.797 1.443-3.509 0-.712.887-1.849 1.97-2.525 1.084-.677 2.862-3.187 3.951-5.578 1.089-2.39 2.677-4.925 3.529-5.632.853-.707 1.55-1.894 1.55-2.638 0-.743 1.35-2.05 3-2.903 2.678-1.385 3-1.388 3-.026 0 .839-.48 1.526-1.067 1.526-1.337 0-.19 3.886 1.705 5.781 2.707 2.707 3.673 5.409 2.249 6.289-.733.453-1.88.351-2.578-.229-.901-.747-2.537-.425-5.756 1.133-2.474 1.198-4.929 1.911-5.457 1.586-1.397-.864-2.565 1.531-2.243 4.6.153 1.464-.66 4.501-1.807 6.751-1.148 2.249-1.648 4.089-1.112 4.089 1.93 0 2.367 7.006.701 11.247-1.833 4.666-1.627 5.355 1.154 3.866 1.216-.651 1.961-2.091 1.961-3.79 0-1.507.506-2.908 1.125-3.115.619-.206 1.125-1.237 1.125-2.291 0-1.054.337-1.864.75-1.799 2.184.345 3.25-.314 3.25-2.01 0-2.015 3.733-3.531 6.284-2.553 1.054.405 1.613-.51 2.074-3.391.66-4.132 3.218-6.325 3.915-3.359.219.932.702-.105 1.072-2.305.37-2.2 1.312-6.645 2.094-9.877l1.42-5.878-4.165-8.397-4.164-8.398 2.969-2.368c2.563-2.043 3.227-2.187 4.85-1.05 1.034.724 2.493 1.082 3.242.795.813-.312 2.164.825 3.354 2.825 1.097 1.841 3.319 4.226 4.939 5.299 3.713 2.459 4.647 6.629 2.498 11.157-2.02 4.256-.175 7.839 4.573 8.882 3.82.839 4.85 2.448 2.613 4.084-2.397 1.753-3.232 8.619-1.285 10.566 1.702 1.702.82 4.029-2.716 7.174l-2.067 1.838 2.25-.482c1.238-.266 2.236-.187 2.218.174-.06 1.253-9.478 6.523-11.218 6.277-2.341-.33-2.217 1.101.25 2.879 2.047 1.475 2.774 5 1.031 5-.532 0-.709.675-.393 1.5.365.95-.013 1.5-1.031 1.5-.884 0-1.607.446-1.607.992 0 1.31 5.761.647 7.241-.833.638-.638 1.644-1.159 2.237-1.159 1.752 0 12.833-5.991 15.272-8.258 1.238-1.15 2.25-2.912 2.25-3.916 0-1.005.717-1.826 1.596-1.826 1.281 0 4.454-1.43 8.321-3.75 1.614-.969-1.211-1.044-3.908-.103-2.854.994-3.495.908-4.612-.619-.883-1.207-2.753-1.815-5.852-1.901-3.385-.094-4.7-.577-5.118-1.877-.309-.963-.981-1.75-1.494-1.75s-.933-.611-.933-1.359c0-1.013 1.25-1.26 4.923-.97 2.735.215 5.205-.07 5.559-.642.35-.566-.178-1.061-1.173-1.099-1.733-.068-1.733-.101.015-.789 1.003-.396 1.791-1.039 1.75-1.43-.213-2.044.094-2.522 1.926-3.001 1.451-.379 2-1.364 2-3.585 0-2.141.401-2.908 1.333-2.551.734.282 1.392-.07 1.464-.781.071-.711.429-3.43.796-6.043.705-5.019.372-5.357-4.843-4.92-2.702.226-2.086-1.337 1.652-4.188 2.853-2.175 3.498-2.345 3.995-1.049.7 1.823 4.432 1.054 6.286-1.294.651-.825 1.664-1.203 2.25-.84.587.362 1.067.232 1.067-.289s.787-.885 1.75-.809c1.097.087 1.606-.42 1.363-1.361a25.154 25.154 0 01-.547-3.018c-.089-.834-.41-1.959-.715-2.5-.305-.54-.484-3.345-.398-6.232.086-2.887-.205-5.25-.648-5.25-.443 0-.805-.66-.805-1.466 0-1.495-5.337.958-9 4.137l-4.961 4.304c-3.806 3.303-6.546 2.668-4.264-.986.674-1.079 1.225-2.548 1.225-3.264 0-.716.974-3.085 2.164-5.264 2.558-4.684 3.614-21.826 1.475-23.964-2.113-2.113-4.193 1.099-2.618 4.043 1.33 2.485.642 15.19-.906 16.743-1.254 1.257-3.986-.282-4.658-2.625-1.445-5.041-4.575-10.651-6.524-11.694-1.962-1.05-1.985-1.205-.363-2.391 1.932-1.413 1.408-8.69-.819-11.373-.639-.77-1.062-2.704-.94-4.3.245-3.223-2.244-4.165-3.039-1.15-.818 3.099-12.386 5.319-15.494 2.974-.795-.6-1.756-.389-2.75.605-1.985 1.985-1.93 2.333.472 2.961 1.1.287 2 1.24 2 2.116 0 .877.395 1.594.877 1.594.483 0 2.152 2.433 3.709 5.408 2.955 5.643 7.113 9.029 9.815 7.991 1.011-.387 1.803.063 2.194 1.247.336 1.02 1.217 3.203 1.956 4.851 1.224 2.728 1.169 3.062-.603 3.718-2.715 1.004-2.437 2.785.435 2.785 1.543 0 2.568-.706 2.907-2 .705-2.695 3.4-2.539 4.305.25 1.505 4.642 1.382 9.976-.2 8.663-2.309-1.916-2.377-.725-.226 3.966 1.85 4.037 1.88 4.5.382 5.998-1.815 1.814-3.505.348-3.536-3.068-.008-.93-.465-1.969-1.015-2.309-.55-.34-1-.178-1 .359 0 .538-.301 1.763-.67 2.723-.473 1.234-.307 1.522.567.982.775-.479 1.133-.261.96.586-.152.742.284 2.362.968 3.6 1.05 1.897 1.004 2.25-.29 2.25-.844 0-1.535-.45-1.535-1s-.671-1-1.49-1c-.82 0-3.726-.976-6.458-2.169-5.664-2.473-7.673-6.639-4.656-9.656 1.472-1.471 1.604-1.38 1.604 1.111 0 2.981 1.118 3.482 2.921 1.31.692-.835.885-2.521.474-4.158-.626-2.493-.81-2.591-1.947-1.036-.799 1.093-1.494 1.332-1.911.658-.36-.583-2.177-1.06-4.037-1.06-5.388 0-6.005-5.097-.854-7.055 1.361-.518 2.213-1.364 1.893-1.882-.32-.517.216-1.404 1.19-1.971 1.614-.94 1.621-1.034.078-1.062-.932-.016-2.394.97-3.25 2.193L432 296.445v-2.139c0-1.389-.872-2.432-2.488-2.973-2.358-.79-2.413-.976-1.059-3.583.93-1.791 1.046-2.75.333-2.75-.631 0-.449-.742.429-1.75.838-.963 1.32-2.312 1.071-3-.249-.687.26-1.25 1.131-1.25 1.705 0 2.145-1.535.696-2.43-.487-.301-1.442.122-2.122.941-1.339 1.613-3.477 2.084-2.534.558.317-.512.124-1.21-.428-1.551-1.124-.695-4.651 7.207-4.181 9.366.738 3.391-.787 5.783-3.688 5.783-2.425 0-2.802-.333-2.361-2.084.289-1.145.878-2.32 1.31-2.609.916-.614 1.026-5.857.314-14.974-.28-3.575-.453-7.175-.385-8 .067-.825.125-3.297.127-5.494.003-2.196.529-4.342 1.17-4.768.835-.555.701-1.049-.473-1.744-.901-.532-1.91-2.047-2.241-3.366-.598-2.385-.696-2.401-17.361-2.915-9.218-.284-18.447-.509-20.51-.5-11.593.049-14.943-.406-16.821-2.284-2.634-2.634-7.943-2.59-8.639.071-.483 1.845-1.364 2-11.407 2-10.667 0-12.179-.5-9.621-3.179.694-.726 1.84-2.627 2.548-4.223 1.901-4.291.138-5.347-4.325-2.589-2.429 1.502-3.258 2.514-2.46 3.006.906.56.866.877-.162 1.288-1.132.452-1.137.703-.029 1.482 2.21 1.552-1.377 2.343-4.053.893-6.256-3.388-6.571-3.812-6.024-8.095.287-2.246 1.359-5.753 2.382-7.793 1.209-2.41 1.861-5.859 1.861-9.842 0-4.675.489-6.754 2.057-8.747 1.207-1.535 1.845-3.458 1.544-4.658-.5-1.993-.155-2.039 14.193-1.883 25.867.283 34.919.687 43.914 1.962 4.836.685 12.949 1.276 18.029 1.312l9.237.066-.568-7.75c-.414-5.629-.278-7.34.497-6.25.586.825 1.073 2.32 1.082 3.321.039 4.65 5.314 6.041 8.459 2.231 1.54-1.864 2.418-2.175 4.215-1.492 2.975 1.131 3.578-.048 1.79-3.496-1.894-3.651-1.84-8.038.137-11.055 1.77-2.701 1.033-4.961-1.322-4.057-1.27.488-1.44-.1-.994-3.432.589-4.387-.544-6.098-2.178-3.291-.979 1.681-1.033 1.679-1.062-.052-.019-1.192-.636-1.706-1.78-1.484-2.104.407-7.25-4.243-7.25-6.551 0-1.3 1.024-1.642 4.918-1.642 5.323 0 8.082-.711 8.082-2.082 0-.478-1.154-.43-2.565.107-1.411.536-4.285.975-6.387.975-4.053 0-5.088-1.893-4.236-7.75.516-3.546 2.036-2.625 2.378 1.439.29 3.451.418 3.581 1.98 2.009 1.229-1.237 1.802-1.353 2.171-.439.381.944.52.927.58-.068.043-.72.529-1.031 1.079-.691.55.34 1 .179 1-.358 0-.536-.563-1.202-1.25-1.48-.825-.333-.719-.531.312-.583.859-.043 2.549 1.256 3.755 2.888 1.514 2.047 2.734 2.776 3.938 2.352 1.424-.501 1.515-.366.495.734-1.354 1.459-1.676 7.78-.485 9.52 1.319 1.925 4.235 2.502 4.235.837 0-.841-.45-1.25-1-.91-.586.362-1-.692-1-2.548 0-2.287.385-3.018 1.386-2.634 1.246.478 5.947-5.394 9.46-11.818 1.765-3.228 1.314-.423-.847 5.261-1.099 2.893-1.973 5.818-1.941 6.5.094 2.039 4.941-9.339 4.957-11.639.012-1.555.243-1.763.867-.779.468.739.634 3.273.368 5.631s.006 5.128.603 6.156c.846 1.456 1.093.031 1.117-6.439.021-5.785.364-8.102 1.131-7.629.632.391.851 1.927.515 3.609-.322 1.611-.255 2.737.149 2.504.404-.234 1.635-.063 2.735.38 1.698.683 1.736.815.25.875-.962.038-1.787.857-1.833 1.82a76.89 76.89 0 01-.331 3.965c-.136 1.219.12 2.794.568 3.5.504.794.821-.172.831-2.524.01-2.442.398-3.572 1.082-3.149.588.363 1.314-.285 1.617-1.441.546-2.09 3.316-3.009 3.316-1.101 0 .55.686 1 1.525 1 .838 0 2.03 1.238 2.649 2.75l1.124 2.75 1.044-2.75c.574-1.512 1.632-2.75 2.351-2.75.719 0 1.307-.576 1.307-1.279 0-.704.9-1.928 2-2.721 1.1-.793 2-2.236 2-3.206 0-2.069 7.198-7.009 8.117-5.571.374.584 1.836.336 3.701-.629 4.007-2.072 4.182-2.037 4.182.843 0 2.244-.288 2.391-3.634 1.848-2.845-.462-3.534-.285-3.173.812.254.772 1.672 1.546 3.151 1.721 1.479.175 2.426.745 2.104 1.266-.322.522-1 .693-1.506.38-.505-.312-.65.134-.321.992.701 1.827-1.067 4.754-6.09 10.08l-3.623 3.842-1.939-3.189c-1.067-1.754-2.7-3.189-3.629-3.189-1.403 0-1.286.429.693 2.535l2.382 2.535-4.115 3.875c-3.886 3.661-4.145 3.757-4.674 1.733-.419-1.602-.848-1.856-1.699-1.005-1.409 1.409-1.372 25.742.043 28.167.631 1.08.98 1.203 1 .351.016-.72.487-1.026 1.046-.681.559.346.777 1.016.484 1.49-1.253 2.027 1.635 1.874 4.099-.218 6.629-5.629 10.972-12.491 10.075-15.92-.496-1.897 1.826-3.878 4.51-3.847.984.012.947.249-.148.942-1.214.767-.898 1.631 1.837 5.035 1.816 2.26 3.069 4.717 2.784 5.461-.771 2.007.253 2.532 2.946 1.508 1.687-.641 2.397-.563 2.397.264 0 .894.284.891 1.186-.011.915-.915 1.607-.807 3.024.476 3.423 3.097 4.251.351 4.672-15.486.683-25.669 1.223-146.642.653-146.072-.302.301-.565 21.576-.586 47.276-.038 47.567-.419 52.089-3.579 42.522-.927-2.806-1.22-3.062-1.634-1.425-.327 1.294-.545.819-.62-1.351-.067-1.939.753-4.566 1.952-6.25 2.422-3.401 2.371-3.415-4.353-1.216-2.972.972-6.175 2.894-7.554 4.532-2.245 2.669-2.477 2.735-3.745 1.062-2.211-2.914-1.623-5.821 1.743-8.609l3.16-2.617-3.761-6.094c-3.581-5.8-3.672-6.158-1.912-7.445 1.782-1.303 1.77-1.422-.34-3.252-2.324-2.015-2.851-8.925-.806-10.569.571-.458.186-.673-.896-.5-1.299.208-2.329 1.787-3.266 5.005-1.5 5.146-3.081 6.814-4.434 4.677-1.539-2.428-1.022-4.878 1.029-4.878 2.844 0 3.802-3.979 1.429-5.938-1.04-.859-1.885-2.269-1.877-3.133.015-1.608-3.434-5.738-3.548-4.25-.035.451-.494-.254-1.019-1.567-.925-2.311-1.019-2.33-2.937-.595-1.788 1.618-1.981 1.632-1.981.138 0-.91-.726-1.655-1.613-1.655-1.726 0-1.679-.778.621-10.25 1.282-5.279 1.237-5.239 3.981-3.525 1.514.946 2.232.954 3.149.037 1.796-1.796 4.068 3.065 2.886 6.174-.884 2.326-.487 3.564 1.143 3.564.458 0 .833-.675.833-1.5s.42-1.5.933-1.5c.513 0 1.229-.934 1.591-2.075.362-1.142.915-1.819 1.229-1.505 1.067 1.067 1.11 13.046.049 13.702-1.365.844.328 6.088 2.162 6.699 1.011.337 1.186-.322.713-2.687-.382-1.909-.219-3.134.415-3.134.607 0 .762-.885.37-2.119-.814-2.567 1.301-6.881 3.374-6.881.823 0 1.16-.337.747-.75-.412-.412-1.275-.75-1.916-.75-.642 0-1.842-2.025-2.667-4.5-2.025-6.074-3.098-7.487-5.75-7.571l-7.75-.25c-3.092-.101-5.5-.643-5.5-1.238 0-.582.45-.781 1-.441s1-.132 1-1.048c0-.98-.551-1.455-1.338-1.153-1.045.402-1.324-1.087-1.273-6.812.035-4.029.416-7.108.846-6.842 2.402 1.485 4.765-.905 4.765-4.819 0-3.18-.319-3.917-1.5-3.464-.825.316-1.5.074-1.5-.539s-1.125.099-2.5 1.582c-1.375 1.484-2.556 2.45-2.625 2.147a20.911 20.911 0 01-.25-1.533c-.348-2.727-4.39-3.842-12.973-3.578-7.031.216-8.652.002-8.235-1.086.937-2.442-3.293-1.475-5.009 1.145-1.674 2.555-4.259 3.235-5.958 1.567-.588-.577-4.044-.534-9.064.112-7.602.979-8.439.896-13.25-1.311-5.008-2.297-5.136-2.463-5.136-6.612V5h32v2.32c0 1.275-1.143 3.314-2.541 4.529-2.716 2.361-2.518 4.467.323 3.447.945-.339 2.523-1.444 3.507-2.456s2.472-1.84 3.307-1.84c1.345 0 1.341-.253-.039-2.223C432.701 7.555 432 6.225 432 5.821c0-.404 15.3-.457 34-.117l34 .616V0L323.75.165C222.443.26 159.618.633 176 1.044m163 6.818c0 5.358.879 5.753 17.153 7.706 7.341.881 14.359 2.249 15.597 3.04 1.238.791 2.25 1.022 2.25.513 0-.508 2.813-1.244 6.25-1.633 9.815-1.113 12.75-2.682 12.75-6.815 0-5.709-.537-5.829-28.475-6.378L339 3.794v4.068M.471 92.5c0 35.2.126 49.455.279 31.678.153-17.778.153-46.578-.001-64C.596 42.755.471 57.3.471 92.5M189.5 30.634c-10.804 1.203-19.585 2.694-20.02 3.398-.911 1.474 3.615 2.19 9.886 1.564 3.374-.337 13.314-1.074 22.088-1.637 8.775-.563 17.1-1.319 18.5-1.679l2.546-.656-2.5-.712c-2.491-.71-24.798-.913-30.5-.278M45 40.127c0 .598-.642.841-1.427.539-.785-.301-1.982.122-2.66.939-.678.817-1.803 1.267-2.5 1-.697-.267-1.805.162-2.462.954-.658.793-1.747 1.441-2.42 1.441-.674 0-2.263.9-3.531 2-1.268 1.1-2.624 2-3.013 2C25.552 49 19 55.918 19 57.433c0 .862-.383 1.567-.851 1.567-.86 0 .24 9.203 1.307 10.928.317.514.139 1.204-.396 1.535-.535.331-.719 1.262-.409 2.069.309.807.222 2.255-.194 3.218-2.676 6.184-.243 6.99 4.952 1.641 3.29-3.388 3.739-3.554 7.298-2.699 3.06.734 4.422.543 7.043-.99 3.369-1.969 4.739-.591 2.067 2.081-1.6 1.6-.567 2.41 3.669 2.877 4.393.484 7.514-1.079 7.514-3.763 0-1.565.452-1.888 1.967-1.408 1.525.485 2.11.051 2.608-1.932.353-1.406 1.043-2.557 1.533-2.557.491 0 .892-1.173.892-2.606 0-1.433 1.35-4.311 3-6.394 3.595-4.539 3.629-4.812.75-5.969-1.724-.693-1.841-.919-.5-.968 2.339-.084 2.214-1.624-.272-3.366-1.271-.89-1.789-2.026-1.393-3.057.346-.902.181-1.64-.367-1.64s-.933-.768-.857-1.707c.079-.97-1.095-2.312-2.717-3.106C51.945 39.377 45 38.685 45 40.127M96.638 55.5c-.316.825-1.377 1.514-2.357 1.532-2.221.039-4.699 1.918-5.562 4.218-.683 1.821-2.719 2.44-2.719.827 0-.508-1.35-.25-3 .573-3.032 1.512-4.379 5.093-1.5 3.988 1.983-.76 1.915 1.246-.119 3.493-1.086 1.2-1.402 2.647-.963 4.4.872 3.474 3.002 2.622 3.395-1.358.22-2.226.832-3.173 2.05-3.173.956 0 2.239-.502 2.853-1.116.614-.614 2.166-1.639 3.45-2.279 1.284-.64 2.334-1.73 2.334-2.421 0-.691.592-1.623 1.316-2.071 1.135-.701 1.806-2.41 2.107-5.363.161-1.578 1.816-.663 1.81 1-.021 5.362.571 6.424 1.254 2.25.486-2.966.358-4.75-.375-5.235-1.778-1.174-3.353-.883-3.974.735m102.112 85.261c-1.512.205-2.756.904-2.764 1.555-.007.651-.299 2.309-.647 3.684-.349 1.375-.272 2.166.171 1.759 1.208-1.111 3.479 1.189 3.569 3.613.043 1.171.306 1.566.583.878.278-.687 1.255-1.286 2.171-1.329 1.027-.049 1.19-.272.425-.581-1.588-.641.21-4.34 2.11-4.34 1.708 0 1.396 3.627-.503 5.845-.825.963-1.323 2.405-1.106 3.203.317 1.17.211 1.193-.544.118-.826-1.176-2.215.289-2.215 2.336 0 .384 5.561 1.687 6.733 1.578 1.234-.115 1.748-7.192 1.113-15.33-.269-3.453-1.842-3.97-9.096-2.989m-61.3 9.128c-.522.49-3.65 1.54-6.95 2.334-5.374 1.293-6.1 1.774-6.957 4.61-1.089 3.606-2.485 4.107-3.253 1.167-.601-2.296-1.39-2.5-3.09-.8-.933.933-1.2.914-1.2-.089 0-.77-1.238-.247-3.077 1.3-4.26 3.585-6.923 3.445-6.923-.363 0-2.937-.015-2.945-3.217-1.599-3.125 1.314-5.454 4.129-2.468 2.984.816-.313 1.748-.141 2.071.383.324.524-1.43 1.461-3.898 2.083C94.571 162.885 92.192 165 95 165c.55 0 1 .858 1 1.906 0 1.414.517 1.772 2 1.384 1.103-.289 2-.031 2 .574 0 .604-1.146 1.386-2.547 1.737-1.4.352-2.322.864-2.047 1.138.274.274-1.351 2.044-3.611 3.932-3.94 3.292-4.015 3.459-1.805 4.037 2.17.567 2.2.68.504 1.92-1.604 1.173-1.626 1.384-.202 1.931.961.368 3.024-.519 5.169-2.223 2.798-2.223 3.199-2.914 1.86-3.197-1.409-.297-1.285-.588.698-1.649 2.055-1.1 2.592-1.047 3.663.361 1.211 1.592 1.658-.149 1.628-6.351-.002-.592 3.608-1 8.843-1 4.866 0 8.847.228 8.847.506s1.395 1.123 3.101 1.878c2.323 1.029 2.762 1.592 1.75 2.245-1.117.72-1.091 1.042.149 1.856 1.003.658 1.086.989.25 1-.713.008-1.25 1.278-1.25 2.956 0 1.618-.45 3.219-1 3.559-3.582 2.214 8.114 2.494 12.333.296 1.332-.694 2.339-.498 3.68.716 1.757 1.59 1.862 1.512 2.167-1.594.359-3.658 2.683-5.157 3.45-2.224.515 1.969 4.182 4.827 5.063 3.946.275-.274-.179-2.81-1.007-5.635-1.288-4.395-1.302-5.215-.096-5.678.776-.298 1.41-1.393 1.41-2.434 0-1.226.704-1.893 2-1.893 2.306 0 2.317-.036 1.038-3.401-.732-1.923-.588-2.906.597-4.091 1.779-1.779 1.15-4.508-1.039-4.508-.807 0-2.021-1.534-2.699-3.409-.924-2.554-1.974-3.556-4.19-4-4.265-.853-8.162-.727-9.257.298m37.227 10.915c-.925 1.022-1.402 2.138-1.06 2.48.342.341-.088 1.33-.955 2.197-.868.867-1.323 2.239-1.013 3.048.311.809.121 1.471-.421 1.471-1.614 0-3.868 6.287-2.426 6.767 2.108.703 1.31 2.262-3.552 6.942-2.613 2.515-4.619 5.014-4.459 5.554.16.54-.403.716-1.25.391-1.36-.522-1.98.409-1.682 2.528.053.375-.569 2.273-1.382 4.218-1.816 4.348-1.821 4.6-.084 4.6.766 0 1.669-.719 2.007-1.599.714-1.862 5.551 1.977 5.583 4.432.032 2.455 2.511.538 3.017-2.333.508-2.882 3-4.795 3-2.304 0 .749.89 2.004 1.978 2.788 1.295.933 1.596 1.661.872 2.109-1.236.764-.292 2.907 1.281 2.907 1.221 0 .836-4.966-.529-6.826-1.971-2.685 3.473-4.242 5.998-1.716.802.801 2.142 1.195 2.978.874 1.755-.674 1.4-3.957-.387-3.582-.655.137-1.191-.125-1.191-.583 0-1.631 1.29-2.082 3.131-1.097 1.149.615 1.869.634 1.869.049 0-.524-.562-1.179-1.25-1.457-.747-.301-.545-.536.5-.583.963-.043 1.75.371 1.75.921 0 1.445 3.73 1.232 4.391-.25.307-.687.518-.35.468.75-.049 1.1-.003 2.225.102 2.5 1.045 2.725.71 4.03-.902 3.519-.989-.314-2.345.121-3.059.981-.745.897-2.062 1.298-3.141.955-1.403-.445-1.859-.082-1.859 1.478 0 2.277 1.499 2.784 2.417.817.466-1 .7-1 1.166 0 .321.688 1.221 1.25 2 1.25 1.928 0 1.8 2.639-.165 3.393-2.209.848-2.631.761-1.918-.393.34-.55-.057-1-.882-1-2.024 0-2.684 1.283-1.567 3.048.795 1.257.922 1.251.949-.048.025-1.207.196-1.239.878-.163 1.592 2.511 5.656.998 5.349-1.991-.15-1.46.73-4.354 1.956-6.432 1.503-2.547 1.848-3.904 1.059-4.167-.885-.295-.874-.867.044-2.349.987-1.592.933-2.138-.286-2.913-1.482-.943-.325-1.51 2.25-1.103.412.065.75-.415.75-1.068 0-.652.881-2.123 1.957-3.269 1.767-1.88 1.817-2.325.516-4.564-.792-1.365-1.726-3.268-2.074-4.231-.58-1.604-1.697-2.177-3.649-1.868-.412.065-.75-.755-.75-1.823s-.45-2.219-1-2.559c-.55-.34-1-1.477-1-2.528 0-1.366-.498-1.749-1.75-1.346-1.333.429-1.427.332-.393-.407 1.846-1.319-.22-2.556-2.866-1.716-1.487.472-1.995.172-2.006-1.186-.013-1.455-.194-1.536-.909-.405-.714 1.127-1.48.769-3.806-1.777-2.815-3.082-2.968-3.127-4.593-1.331m12.773 52.093c-.522.494-5.614 1.624-11.315 2.512-12.372 1.927-12.876 2.173-10.237 4.983 1.127 1.199 2.187 3.064 2.355 4.144.167 1.08.618 2.466 1.002 3.079 1.357 2.172-4.996 10.014-9.511 11.741-2.334.892-9.628 5.903-16.208 11.133-6.581 5.231-12.359 9.511-12.841 9.511-.483 0-2.717 1.575-4.966 3.5s-4.617 3.5-5.263 3.5c-.646 0-2.465 1.196-4.043 2.659-3.228 2.992-2.235 4.048 4.077 4.338 2.893.133 2.92.177.75 1.223-1.237.597-2.25 1.879-2.25 2.849 0 .971-.511 1.935-1.136 2.143-1.996.665 1.389 4.786 4.636 5.643l3 .792-3.766 1.798c-4.219 2.014-4.205 1.999-5.115 5.805-.547 2.288-.328 2.75 1.303 2.75 1.078 0 2.219-.419 2.535-.93.316-.512 3.042-1.238 6.059-1.615 3.016-.377 5.484-.971 5.485-1.32 0-.879 7.715-.752 8.608.141 1.4 1.4 2.459.719 1.594-1.026-1.571-3.169-1.331-9.647.5-13.472 1.768-3.694 1.891-3.755 7.547-3.767 4.45-.008 5.75.328 5.75 1.489 0 .825.45 1.556 1 1.625.55.069 1.338.231 1.75.36.412.13 2.213.58 4 1 1.787.421 3.25 1.159 3.25 1.64 0 1.056 7.05 1.146 8.596.11 2.11-1.415 2.573-6.044.655-6.546-2.098-.548 24.921-1.149 36.249-.807 7.412.225 8.202.051 10.75-2.36 1.512-1.432 2.75-3.066 2.75-3.632 0-.566 1.35-2.992 3-5.39 1.65-2.398 3-4.641 3-4.983 0-1.593 9.247-14.547 12.093-16.942 2.167-1.824 3.431-3.974 3.926-6.678l.729-3.989-29.878.617c-34.125.705-32.262 1.231-28.823-8.141 3.343-9.112 3.498-10.384 1.27-10.384-1.055 0-2.345.404-2.867.897m-66.497 13.439c-3.37 1.68-3.92 4.896-.792 4.637 5.526-.459 6.565-.026 4.089 1.701-2.643 1.844-2.839 3.175-.696 4.742.887.649 1.288 1.832.933 2.757-.764 1.991-4.987 2.927-6.477 1.437-.791-.791-1.324-.72-1.927.255-.623 1.009-1.017 1.05-1.564.166-.518-.838-1.292-.579-2.663.894-1.064 1.141-2.51 2.075-3.215 2.075-.704 0-2.302 1.175-3.55 2.611-1.664 1.913-2.566 2.314-3.38 1.5-1.466-1.466-5.005-1.417-6.511.089-.933.933-1.2.933-1.2 0 0-.66-1.013-1.17-2.25-1.132-2.168.065-2.177.103-.25 1.043 3.704 1.806 5.331 9.639 2.381 11.463-.485.299-.881.958-.881 1.464 0 1.279 4.986-.966 8-3.602 3.195-2.794 4.975-3.343 7.647-2.357 1.389.513 2.8.298 4-.611 1.019-.773 1.5-1.419 1.068-1.436-.432-.018-.302-.936.29-2.041.794-1.484 1.703-1.851 3.476-1.406 1.662.417 3.094-.043 4.649-1.491 1.236-1.152 2.768-2.094 3.404-2.094.636 0 1.971-.9 2.966-2 .995-1.1 1.431-2 .968-2-.463 0 .451-1.35 2.032-3s3.465-3 4.187-3c.722 0 1.313-.45 1.313-1 0-1.95.182-2.514 1.207-3.75.809-.975-.256-1.268-4.835-1.331-5.423-.075-5.666-.173-3.176-1.278 3.467-1.539 2.23-3.941-1.811-3.517-1.587.166-3.361.009-3.941-.35-.581-.359-2.152-.106-3.491.562m155.622 4.723c-1.059 1.068-2.569 1.941-3.357 1.941-.862 0-1.203.597-.856 1.5.675 1.76-.2 4.5-1.438 4.5-.473 0-.566-.787-.205-1.75.569-1.52.438-1.573-1-.404-.91.74-1.557 1.805-1.437 2.367.12.562-.628 1.162-1.663 1.335-5.697.95-4.169 4.3 2.361 5.176 5.075.681 8.81-2.848 4.27-4.035-1.48-.387-1.442-.478.25-.595 3.866-.267 9.61-7.094 5.969-7.094-1.687 0-1.835-.873-.505-2.976.773-1.223 1.071-1.104 1.737.695l.803 2.172 1.154-2.446c1.073-2.274.968-2.441-1.502-2.386-1.461.033-3.522.933-4.581 2m-17.503 16.806c-1.017 1.901-.882 2.135 1.226 2.135 3.226 0 3.76.778 2.475 3.6-1.14 2.5-2.368 3.096-2.94 1.426-.183-.536-1.34-.71-2.572-.387-1.231.324-1.949 1.057-1.595 1.629.371.601.16.742-.5.335-.758-.469-.947-.101-.56 1.095.431 1.333.334 1.455-.373.468-.781-1.091-1.06-1.059-1.534.177-1.518 3.955 7.411 3.557 13.274-.593 1.359-.962 3.303-1.75 4.319-1.75 1.351 0 1.755-.605 1.504-2.25-.189-1.238-.895-2.137-1.57-2-.674.138-1.226-.474-1.226-1.358 0-1.237-.607-1.457-2.626-.95-2.175.546-2.517.373-1.989-1.003.483-1.258.229-1.505-1.044-1.016-.924.354-2.006.119-2.404-.524-.489-.792-1.09-.481-1.865.966M7.233 268.998c-.686 1.099-1.317 3.78-1.402 5.959-.086 2.178-.533 3.727-.993 3.443-.461-.285-.838-.041-.838.541 0 .582.623 1.059 1.383 1.059.761 0 1.687 1.012 2.059 2.25.613 2.044.741 2.083 1.405.426.402-1.003 1.164-1.903 1.692-2 .529-.097.848-.513.711-.926-.138-.413.2-.75.75-.75s1.046.563 1.102 1.25c.169 2.058 2.03-5.559 1.968-8.055-.031-1.282.384-2.032.937-1.691.546.338.993-.073.993-.914 0-.898-.577-1.306-1.399-.99-.769.295-1.709.034-2.089-.58-.504-.816-1.07-.802-2.101.054-1.014.842-1.411.855-1.411.048 0-1.759-1.397-1.317-2.767.876m86.426 14.494c-2.351.673-4.477 2.148-5.481 3.804-.903 1.487-1.875 2.711-2.16 2.719-2.467.073-2.982 1.827-1.545 5.266.835 1.999 1.449 4.441 1.364 5.427-.284 3.299.154 5.292 1.163 5.292.55 0 1-1.168 1-2.596 0-2.225.966-4.707 3.892-10.004.334-.606 1.872-3.001 3.417-5.324 3.482-5.234 3.215-5.975-1.65-4.584M468.297 481.25c-1.88 2.062-1.963 2.767-.992 8.453 1.1 6.435-.708 12.683-4.055 14.014-1.694.674-1.587 2.283.152 2.283.771 0 1.881 1.374 2.467 3.053 1.157 3.32 3.896 2.95 6.03-.815.92-1.622 1.087-1.605 2.511.262 1.742 2.283 2.169.45.585-2.509-1.628-3.041-2.332-12.165-1.003-12.986 2.051-1.267 2.447-8.686.614-11.484-2.04-3.113-3.655-3.182-6.309-.271m-176.141 5.5c-.597 1.512-3.768 10.625-7.046 20.25-3.277 9.625-6.266 18.288-6.642 19.25-.594 1.524-.038 1.75 4.306 1.75h4.989l1.143-4.542 1.144-4.541 7.645.291 7.644.292 1.414 4.25c1.379 4.145 1.523 4.25 5.83 4.25 2.617 0 4.417-.461 4.417-1.13 0-1.741-13.204-40.204-14.288-41.62-.526-.687-2.872-1.25-5.213-1.25-3.713 0-4.395.351-5.343 2.75m28.345-1.614c-.299.78-.422 10.631-.272 21.891l.271 20.473 4.75.305 4.75.305V513l4.25-.024c14.323-.08 21.587-8.259 17.302-19.479-2.628-6.88-6.336-8.632-19.597-9.261-8.84-.419-11.013-.248-11.454.9m34.857 3.614c.341 2.063.625 11.738.631 21.5L356 528h9v-43h-10.262l.62 3.75M329 498.5v6.5h5.5c6.244 0 9.5-2.228 9.5-6.5s-3.256-6.5-9.5-6.5H329v6.5m53 16.5v6h15.041l-2.137-4.25c-3.255-6.474-4.747-7.75-9.059-7.75H382v6M.473 596.5c0 37.95.125 53.33.277 34.177.152-19.153.152-50.203-.001-69C.597 542.88.473 558.55.473 596.5m216.976-2.553l-.051 10.946 7.807-.052c4.294-.028 8.027-.407 8.296-.843.27-.436.195-3.61-.165-7.054-.768-7.351-3.125-10.662-6.359-8.932-1.768.946-1.977.737-1.977-1.977 0-2.841-.24-3.035-3.75-3.034l-3.75.001-.051 10.945m-154.875-8.28c-.352.917-.175 2.132.393 2.7 1.17 1.17 1.33 4.899.408 9.508-1.002 5.009-2.375 3.609-2.375-2.421v-5.546l-4.309.223c-2.37.123-4.792-.076-5.383-.44-1.826-1.129-6.044 3.065-6.576 6.54-.276 1.798.082 4.692.795 6.431l1.297 3.162 11.975.104c13.895.122 12.84 1.158 12.392-12.178l-.328-9.75h-3.825c-2.647 0-4.021.513-4.464 1.667m173.107 2.177c-.933 4.666.385 14.522 2.128 15.906.865.688 2.837 1.25 4.382 1.25 2.454 0 2.809-.379 2.809-3 0-1.65-.45-3-1-3-1.635 0-1.134-4.734.57-5.389 1.657-.635 1.638-4.775-.02-4.576-.523.062-1.296-.82-1.718-1.961-1.262-3.411-6.426-2.855-7.151.77m-47.422.886c-3.131.568-5.259 4.028-5.259 8.552 0 2.303-.4 3.589-1 3.218-.55-.34-1-3.043-1-6.007v-5.389l-5.82.028c-7.353.035-8.142.562-9.738 6.505l-1.307 4.863-.068-3.816c-.037-2.098-.533-4.686-1.102-5.75-1.091-2.038-5.399-2.658-6.467-.931-.37.598-1.3.658-2.309.147-.929-.47-4.472-.914-7.873-.987l-6.184-.132.106 6.234c.058 3.429-.084 7.135-.316 8.235-.364 1.727.178 2.043 3.965 2.314l4.388.314-.504-4.471c-.278-2.459-.121-5.075.347-5.814.532-.839.857.628.867 3.907L149 605h3.427c2.422 0 3.56-.513 3.884-1.75.435-1.667.463-1.667.573 0 .09 1.356 1.017 1.75 4.116 1.75 3.682 0 4.005-.219 4.063-2.75.06-2.586.116-2.619.944-.565 1.048 2.602 4.565 4.697 6.194 3.691.638-.394 3.329-.618 5.979-.497 4.34.198 4.82.005 4.82-1.94v-2.161l1.82 2.248c3.438 4.246 14.18 2.116 14.18-2.811 0-1.157-.971-1.366-4.5-.968-2.475.279-4.5.113-4.5-.37 0-.482 2.25-.877 5-.877 3.667 0 5 .381 5 1.429 0 .785.707 2.135 1.571 3 1.429 1.428 1.423 1.571-.069 1.571-2.815 0-1.372 4.221 1.802 5.273 3.672 1.217 9.435.091 10.57-2.066.494-.939 1.062-5.472 1.262-10.073l.364-8.366-6.195-.052c-6.423-.054-9.301 1.231-9.31 4.156-.004 1.204-.59.938-2.25-1.017-2.326-2.741-5.621-3.826-9.486-3.125m-110.902 1.262c-5.216 2.105-6.866 8.82-3.284 13.373 2.644 3.362 8.869 3.693 11.927.635l2-2v2.052c0 3.251 10.353 2.483 10.82-.802.175-1.237-.162-2.25-.75-2.25-.589 0-1.018-1.462-.954-3.25.064-1.788.322-2.462.573-1.5.731 2.794 6.311 2.396 6.311-.45 0-1.629.292-1.908 1.124-1.076.833.833.833 1.962 0 4.349-2.08 5.967-1.627 6.927 3.267 6.927h4.391l-.141-7.999-.141-7.998-4.25-.002c-2.356 0-4.25.476-4.25 1.07 0 .59-.742.33-1.649-.577-.989-.989-2.49-1.424-3.75-1.085-1.156.31-3.821.57-5.923.577l-3.822.014.672 5.379c.44 3.523.293 5.614-.428 6.059-.605.374-1.1.235-1.1-.309 0-.545-1.013-1.185-2.25-1.423l-2.25-.434 2.25-.136c1.759-.106 2.247-.736 2.235-2.886-.032-5.627-4.977-8.539-10.628-6.258m38.588 1.805c-2.515 3.197-2.584 9.564-.129 12.019 1.351 1.351 3.559 1.864 8.631 2.004l6.816.187-.621-3.753c-.341-2.065-.625-5.844-.631-8.399L130 589.21l-6.055.057c-5.213.049-6.325.4-8 2.53m-87.444.505c-2.369 3.382-1.96 10.263.722 12.141L31.445 606h-2.222c-4.98 0-1.579 4.093 3.915 4.712 6.683.753 8.843-1.495 9.839-10.246.437-3.831.958-7.641 1.158-8.466.661-2.717-13.714-2.439-15.634.302" fill="#d3d3d3" fill-rule="evenodd"/></svg>