<svg xmlns="http://www.w3.org/2000/svg" width="500" height="400"><path d="M88.581 2.25c-.252 1.238-.722 26.325-1.044 55.75-.593 54.148-.986 63-2.799 63-1.062 0-21.129-12.563-23.09-14.455-.632-.609-2.887-2.121-5.013-3.36-3.557-2.073-3.962-2.121-5.079-.592-1.028 1.405-1.575 1.467-3.565.402-2.146-1.148-2.204-1.366-.671-2.487 2.387-1.745 2.343-1.805-4.57-6.234-9.629-6.169-10.68-6.621-11.348-4.88-.697 1.817-2.288 1.287-9.152-3.051-2.888-1.825-5.25-2.87-5.25-2.322 0 .588-.792.501-1.935-.213-1.065-.664-1.745-1.517-1.511-1.895.233-.378-.358-.625-1.315-.55-.962.076-1.616-.455-1.464-1.187.17-.822-.209-1.046-1-.59-.701.404-.935.36-.519-.098.695-.766-6.793-6.474-8.506-6.484-.413-.002-.75 2.641-.75 5.874 0 4.94.359 6.141 2.25 7.528l2.25 1.649-2.215-.583C.236 86.931.077 87.218.16 91.318c.081 4.059.393 4.582 3.714 6.237 1.994.994 5.201 1.838 7.126 1.876l3.5.069-.385 88c-.74 168.863-1.323 202.555-3.477 200.979-1.626-1.19-1.955-3.43-2.594-17.671L7.312 354.5l-.156 18.241L7 390.982l-3.488 2.259c-4.478 2.901-4.611 4.602-.144 1.841 3.966-2.451 5.37-2.676 3.632-.582-.785.946-.852 1.5-.181 1.5.584 0 1.356-.474 1.714-1.053.357-.579 1.172-.86 1.809-.625.637.236 2.569-.421 4.294-1.458 1.725-1.037 4.2-1.715 5.5-1.506 1.3.21 4.051-.284 6.112-1.096 2.061-.813 4.423-1.219 5.248-.902 1.456.559 7.655-2.49 10.325-5.079.727-.705 1.852-1.263 2.5-1.242 1.685.056-9.966 10.506-15.321 13.742l-4.5 2.719 17.968.274 17.967.274 4.533-4.477c5.735-5.666 9.7-9.209 18.81-16.812l7.278-6.074 15.71-.387 15.71-.387 5.322-5.407c2.927-2.974 6.195-5.684 7.262-6.023 1.067-.339 1.94-1.035 1.94-1.548 0-1.259 9.719-1.196 10.5.067.34.55 2.14 1 4 1 1.86 0 3.66-.45 4-1 .94-1.52 13.496-1.288 13.515.25.012.955.212.941.845-.058.531-.837 2.958-1.307 6.735-1.306 67.092.025 205.571-1.06 207.515-1.626 2.11-.615 2.459-1.143 1.82-2.76-.669-1.695-.8-1.733-.86-.25-.082 2.039-1.172 2.248-2.87.55-.66-.66-1.2-.773-1.2-.25 0 .522-2.009.993-4.463 1.045-2.455.052-4.275-.21-4.044-.583.609-.986-3.843-1.308-8.993-.651-1.1.14-2.562-.164-3.25-.675-.802-.597-1.788-.484-2.75.314-.825.685-1.5.801-1.5.257 0-.572-1.997-.805-4.75-.554-6.449.589-13.136.691-23.25.355-4.675-.155-22.69-.208-40.033-.118-17.342.09-32.305-.132-33.25-.495-.944-.362-1.717-.273-1.717.198 0 .471-17.212.792-38.25.712-21.037-.08-37.125.213-35.75.65 2.213.704 2.063.807-1.309.895-2.306.061-3.565-.295-3.191-.9.402-.651-4.962-1-15.358-1-11.845 0-16.106.323-16.48 1.25-.403 1-.52 1-.583 0-.058-.911-2.788-1.25-10.079-1.25-6 0-10-.4-10-1 0-.55.563-1.007 1.25-1.015.862-.011.801-.3-.196-.931-.89-.562-2.166-.529-3.318.087-2.948 1.578-13.736.703-13.736-1.114 0-.417 25.988-.754 57.75-.749 128.432.021 218.829-.568 220.5-1.438 1.302-.677 1.75-.518 1.75.625 0 2.329 1.5 1.838 3.011-.985.968-1.808 1.651-2.213 2.419-1.431.764.779.242 1.807-1.828 3.6l-2.898 2.51 2.58 2.58c2.443 2.442 8.716 3.848 8.716 1.952 0-.445.436-.54.969-.21.533.329 4.102.718 7.931.863l6.962.265-3.949-2.904c-2.172-1.598-4.603-2.654-5.402-2.347-1.433.549-3.993-1.304-4.69-3.395-.196-.589-1.249-1.213-2.339-1.385-1.109-.175-1.922-1.027-1.845-1.935.075-.892-.332-1.332-.904-.978-.573.354-.753.177-.4-.395.353-.571-1.591-2.553-4.32-4.404l-4.961-3.366-.037-48.5c-.02-26.675-.326-60.087-.681-74.25-.355-14.162-.326-25.75.063-25.75s1.178 1.35 1.753 3 1.452 3 1.948 3c1.338 0 1.091-.988-1.62-6.5-1.433-2.913-2.464-6.774-2.469-9.25L384 173l6.75-.015c3.712-.009 7.425-.457 8.25-.997 1.033-.675-.992-.904-6.5-.735l-8 .247-.625-18c-.344-9.9-.682-29.196-.75-42.879L383 85.741l17.75-18.404c9.762-10.123 22.664-23.677 28.669-30.121a3097.2 3097.2 0 0121-22.274C465.357-.703 464.819 0 461.858 0c-1.933 0-7.958 5.986-28.405 28.221C380.907 85.358 383 83.184 383 80.621c0-1.304-.275-3.746-.611-5.426l-.611-3.056-114.985.181c-63.241.099-115.488-.132-116.105-.513-.616-.381-1.62-.278-2.231.228-.61.507-10.033 1.044-20.939 1.193-16.819.231-19.862.502-20.051 1.789-.122.834-.784 51.909-1.472 113.5-.688 61.59-1.476 112.208-1.753 112.483-.276.275-.263-49.788.029-111.252.313-65.869.161-111.981-.37-112.309-.496-.306-.901.171-.901 1.061 0 .89-.45 1.34-1 1-.55-.34-1 .309-1 1.441 0 1.53-.643 2.059-2.5 2.059-2.395 0-2.427.077-.75 1.841.963 1.013 2.088 1.662 2.5 1.441.412-.22.75.077.75.659 0 .582-.502 1.059-1.115 1.059-.685 0-.492.951.5 2.465 2.151 3.283 2.036 5.239-.385 6.535-1.667.892-2 2.094-2 7.226 0 5.552-.139 5.966-1.415 4.221-.778-1.064-1.115-2.162-.75-2.441 1.006-.766.951-5.006-.065-5.006-.488 0-.642-.398-.341-.885.814-1.316-1.444-7.113-2.777-7.13-.668-.009-.549-.397.284-.924 1.19-.753 1.211-1.178.127-2.485-.875-1.055-.937-1.576-.185-1.576 1.608 0 1.358-5.742-.479-11-1.704-4.875-1.146-42.912.646-44.025.464-.288.702-1.413.528-2.5-.174-1.086.103-2.504.616-3.151.513-.647.852-1.772.753-2.5-.463-3.421.18-5.824 1.558-5.824.896 0 1.5-.921 1.5-2.287 0-1.526.629-2.335 1.889-2.43 1.718-.129 1.869.554 1.669 7.538-.121 4.223-.525 8.804-.899 10.179-.63 2.321.641 6.034 1.702 4.971.259-.259.621-8.684.805-18.722L103.5-.002l-2.309.001C99.906 0 99.156.444 99.5 1c.34.55-.084 1-.941 1S97 1.55 97 1s-1.791-1-3.981-1c-3.326 0-4.056.37-4.438 2.25M278 16.971c0 .98 44.23 1.889 59.885 1.232 4.863-.204 6.83.134 8.25 1.419 1.026.929 1.865 1.205 1.865.615 0-.59.262-1.755.581-2.588.512-1.334-3.658-1.526-35-1.61-23.782-.065-35.581.244-35.581.932M0 22.166c0 4.762.296 5.395 4 8.566l4 3.424.215 18.172L8.43 70.5 8.965 53 9.5 35.5l2.5.015c1.798.012 2.587.626 2.811 2.188.192 1.334 4.144 5.305 10.25 10.298 9.175 7.502 9.949 8.41 10.071 11.813.128 3.595.147 3.612.75.686.734-3.563 5.118-4.912 5.118-1.574 0 1.154 3.143 4.523 8 8.574 4.4 3.67 8 7.1 8 7.621 0 .559.824.508 2-.121 1.661-.889 2-.76 2 .759 0 1.021 2.209 3.515 4.995 5.639 2.747 2.095 6.009 4.88 7.25 6.188 1.24 1.309 2.593 2.387 3.005 2.397.413.009 1.703.97 2.868 2.135 1.692 1.692 2.286 1.846 2.955.764.529-.856.302-1.652-.618-2.167-.8-.448-1.455-1.297-1.455-1.887 0-.713.477-.677 1.423.108 1.153.957 1.489.743 1.774-1.128.193-1.269.902-2.196 1.577-2.058.674.137 1.226-.459 1.226-1.327 0-1.171-.84-1.504-3.264-1.295-3.593.31-6.09-.747-5.193-2.197.316-.512.098-.931-.484-.931S76 79.314 76 78.475c0-.838-1.012-1.912-2.25-2.385-2.107-.806-17.64-13.849-41.563-34.903-6.984-6.145-10.858-8.902-12-8.537-1.206.385-1.326.278-.422-.374C21.628 30.932 6.543 17.58 2.802 17.262.065 17.03 0 17.144 0 22.166m482 44.709c-13.884 10.184-17.631 12.505-18.135 11.231-.497-1.256-.78-1.062-1.297.894-.945 3.575-11.23 10.72-11.887 8.258-.422-1.581-.539-1.556-1.161.242-.74 2.136-4.383 5.246-22.462 19.181-6.293 4.85-13.325 10.778-15.627 13.173-2.596 2.701-4.444 3.935-4.867 3.25-1.071-1.734-2.72-1.29-2.402.646.159.963-.001 2.209-.353 2.769-.394.625.933 1.061 3.429 1.126 3.071.081 3.651-.127 2.365-.847-1.398-.783.328-2.252 9.596-8.173 15.175-9.694 17.525-11.133 22.957-14.057 2.562-1.379 4.843-3.065 5.07-3.747.227-.681 1.507-1.307 2.844-1.391 4.593-.287 9.953-1.658 10.605-2.713.407-.659.026-.816-1.011-.418-3.23 1.239-1.496-.838 3.379-4.049 2.715-1.787 6.039-3.25 7.387-3.25 2.593 0 4.356-1.571 2.469-2.2-.613-.205 5.234-4.582 12.993-9.729L500 67.714v-6.857c0-3.771-.113-6.848-.25-6.838-.137.011-8.125 5.796-17.75 12.856M19.642 125.296c-.594 10.263-1.158 88.434-.822 113.837.168 12.714.315 13.669 2.18 14.157 1.1.287 2 .115 2-.384 0-.498.915-.906 2.034-.906 1.8 0 1.995.528 1.69 4.574-.323 4.285-2.109 6.924-3.926 5.801-.439-.271-.798-.016-.798.566S21.325 264 20.5 264c-2.066 0-1.878 1.232.5 3.268 1.839 1.574 2.426 1.431 2.118-.518-.065-.413.584-.75 1.441-.75.889 0 1.264.478.872 1.112-.378.611-.067 1.504.691 1.984 1.085.687.999.877-.403.889-.98.008-2.04.687-2.355 1.509-.316.822-1.046 1.203-1.623.846-.616-.381-.753-.168-.332.513.402.65.029 1.425-.846 1.761-.992.381-1.563 1.838-1.563 3.993 0 3.748.024 3.76 5 2.484a261.854 261.854 0 016.25-1.513l2.75-.616.207-14.231.207-14.231.543 13.919c.638 16.356 3.629 20.727 4.161 6.081l.145-4L39 270c.405 1.925.796 2.938.868 2.25.073-.687.807-1.25 1.632-1.25 2.281 0 1.855 4.094-.489 4.707-1.094.286-1.731.938-1.416 1.447.316.51 1.435.654 2.489.319 1.614-.512 1.916-.106 1.916 2.576 0 2.814.262 3.114 2.25 2.581 1.237-.331 2.64-.609 3.116-.616.477-.008.751-11.826.611-26.264-.141-14.437-.193-28.414-.117-31.059.172-5.905 2.076-5.39 2.287.618.585 16.674 1.617-14.065 1.521-45.309-.109-35.474-.144-36.149-.642-12.5-.737 35.019-1.992 25.619-2.186-16.375-.088-19.044-.34-33.187-.559-31.429-.285 2.281-.812 3.038-1.84 2.643-1.095-.42-1.458.374-1.511 3.304-.041 2.213-.36 3.218-.75 2.357-.374-.825-1.894-1.626-3.377-1.779-2.584-.268-2.712-.06-3.065 5l-.368 5.279-.185-6.191c-.174-5.825-1.051-7.682-3.685-7.802-.55-.025-4.21-1.703-8.134-3.73l-7.133-3.685-.591 10.204m37.019 22.836C55.464 191.95 55.799 229 57.392 229c2.741 0 3.751-103.787 1.019-104.697-.754-.251-1.293 7.088-1.75 23.829M78 128.469c0 3.417-.329 4.342-1.399 3.931-.769-.295-1.779.057-2.243.782-.58.904-1.004.244-1.352-2.103-.507-3.427-3.006-5.64-3.006-2.662 0 1.925-.75 1.941-4 .083-3.116-1.781-3.616-1.814-3.87-.25-.112.688-.463 23.684-.78 51.104l-.576 49.854 3.363-.755c1.85-.415 7.261-.762 12.026-.771l8.662-.015.456-4.584c.917-9.219.756-89.942-.18-90.521-.517-.319-1.692.172-2.611 1.091-2.368 2.368-3.7.088-3.156-5.403.231-2.338.026-4.25-.457-4.25-.482 0-.877 2.011-.877 4.469m351.458 90.982c-2.354 2.354-2.964 7.376-1.121 9.22 1.164 1.163.729 1.811-2.087 3.102-4.451 2.041-6.396 5.656-6.746 12.535-.173 3.406-.548 7.317-.832 8.692-.285 1.375-.992 5.167-1.571 8.426-.579 3.26-1.514 6.387-2.077 6.95-1.858 1.858-1.217 5.624.957 5.624 1.894 0 2.312-.828 3.284-6.5.273-1.595.772-1.177 2.466 2.067 1.167 2.237 2.831 4.654 3.696 5.372 1.126.935 1.573 3.095 1.573 7.599 0 6.218-.051 6.334-4.25 9.609-2.337 1.823-4.81 4.07-5.494 4.995-.685.924-3.911 3.685-7.171 6.135l-5.925 4.454 3.466 4.884c1.906 2.687 3.898 5.036 4.426 5.22.528.185.706.747.395 1.25-.311.503.587.915 1.994.915 2.967 0 3.196-1.099.944-4.535-1.484-2.265-1.485-2.664-.008-4.917 2.888-4.408 15.565-15.518 17.734-15.541 1.338-.015 2.718 15.025 1.834 19.993-.444 2.495-.43 2.5 7.555 2.5 6.412 0 8-.295 8-1.486 0-.818-.9-1.654-2-1.858-3.292-.611-4.174-1.899-5.417-7.917-1.21-5.853-1.342-7.93-1.066-16.739.086-2.75-.493-6.575-1.288-8.5-.794-1.925-1.511-6.618-1.592-10.429l-.147-6.929 2.505 2.353c1.378 1.295 2.505 2.88 2.505 3.524 0 1.901 3.796 4.773 5.463 4.134 2.292-.88 1.902-2.124-1.95-6.208-5.407-5.733-8.674-13.396-7.483-17.55 1.15-4.01-1.103-14.197-3.812-17.235-1.647-1.847-1.626-1.897.531-1.226 2.55.794 4.16-1.968 3.752-6.434-.125-1.375.256-3.111.848-3.858 3.211-4.055-7.941-5.64-11.891-1.691M77 235.458c0 1.127-1.761 1.524-7.75 1.75l-7.75.292-.137 15c-.093 10.242.224 15.233 1 15.735.81.523.769.739-.14.75-1.494.018-1.737 56.802-.272 63.3.482 2.136.459 3.962-.055 4.279-1.086.672-1.214 17.436-.133 17.436 1.996 0 11.399-7.282 10.289-7.968-.867-.536-1.003-2.759-.487-7.992.486-4.94.361-7.467-.393-7.934-1.614-.997-1.997-7.671-.422-7.356.941.188 1.293-2.906 1.425-12.5l.176-12.75.699 14.5c.876 18.175.764 17.233 1.95 16.5.637-.394 1 2.509 1 8 0 5.853.342 8.406 1.067 7.958.588-.363 1.314.285 1.617 1.441.398 1.522 1.344 2.101 3.433 2.101H85V235.773l-3 .44c-2.047.301-3 .019-3-.886 0-.73-.45-1.327-1-1.327s-1 .656-1 1.458m-21.393 4.124c-1.107 2.884-.643 74.084.47 72.173 1.603-2.751 1.82-6.233 2.553-41.005.616-29.238.524-32.75-.863-32.75-.854 0-1.826.712-2.16 1.582M34.75 292.299c-1.584.627-2.75 1.853-2.75 2.894 0 2.078-.417 2.19-3.005.804-1.187-.635-2.091-.651-2.466-.043-.326.527-1.242.71-2.035.405-2.042-.783-4.274 1.799-4.055 4.693.101 1.346-.038 2.876-.311 3.4-.857 1.646-.025 21.002.946 21.998.509.523 1.017 9.748 1.128 20.5l.203 19.55.638-21c.352-11.55.901-21.9 1.221-23 .321-1.1.624-2.45.675-3 .05-.55.528-.325 1.061.5.533.825 1.061 8.925 1.172 18l.204 16.5.667-18c.368-9.9 1.039-19.122 1.493-20.493l.824-2.492.702 2.625c.386 1.444.778 7.726.871 13.96.092 6.234.37 11.537.618 11.784.247.247.449-5.101.449-11.884 0-12.077.487-14.815 1.414-7.942.459 3.411 1.736 15.31 2.568 23.942.083.859.585.432 1.175-1 .566-1.375 1.279-14.087 1.584-28.25.602-28.011.857-26.761-4.991-24.451M0 326.173V338h6v-22.773l-3-.44-3-.441v11.827" fill="#d3d3d3" fill-rule="evenodd"/></svg>