<svg xmlns="http://www.w3.org/2000/svg" width="500" height="646"><path d="M133.521 90.931c-4.915 3.261-9.363 5.667-9.883 5.345-.521-.322-.626-.065-.233.569.392.635.263 1.155-.287 1.155-3.71 0-1.134-3.483 4.803-6.494 2.832-1.436 3.145-1.89 1.815-2.634-1.137-.636-2.704-.155-5.361 1.649-2.065 1.401-4.368 2.312-5.117 2.025-.84-.323-1.091-.085-.655.62.464.752.258.866-.603.334-.921-.569-1.069-.421-.5.5s.421 1.069-.5.5-1.069-.421-.5.5.421 1.069-.5.5c-.813-.503-1.066-.416-.668.228.352.57-.316 2.253-1.485 3.739-1.498 1.905-2.347 2.342-2.878 1.482-.535-.864-1.087-.598-1.897.916-.683 1.277-.75 2.135-.165 2.135.537 0-.095 1.887-1.405 4.193-1.31 2.306-2.157 4.556-1.883 5 .275.444.06.807-.477.807-.536 0-1.234-.562-1.549-1.25-.316-.687-.324-.125-.018 1.25.448 2.017.337 2.21-.575 1-.909-1.205-.999-1.033-.458.875.425 1.501.299 2.145-.342 1.749-.61-.377-.843.27-.586 1.625.403 2.122.369 2.137-.591.251-.824-1.618-.923-1.332-.523 1.5.359 2.539.256 2.951-.376 1.5-.747-1.718-1.035-1.397-2.042 2.273-.644 2.35-.9 4.713-.568 5.25.332.537.136.977-.436.977-.572 0-1.321 1.238-1.664 2.75-.343 1.512-1.522 5.675-2.62 9.25-3.126 10.183-3.432 33.979-.563 43.85 1.902 6.545 2.286 7.164 3.454 5.566 1.524-2.085 1.802-.195.366 2.488-.521.975-.691 2.756-.377 3.958.538 2.055.651 2.079 1.917.411.74-.975 1.36-1.237 1.377-.582.018.655-.454 1.492-1.049 1.859-.595.368-.811 1.744-.481 3.059.862 3.433-.19 2.946-1.854-.859-2.531-5.788-1.665-.796 1.055 6.079 9.794 24.759 29.074 46.604 50.111 56.781 9.024 4.366 11.315 6.39 7.232 6.39-2.302 0-13.833 3.017-21.982 5.752-5.511 1.849-17.827 9.457-25.697 15.874-3.873 3.157-10.781 13.443-16.369 24.374-2.025 3.961-2.353 6.322-2.738 19.703-.574 19.993-.769 19.42 7.525 22.12 9.077 2.955 19.125 4.998 28.529 5.802 8.711.745 9.241 1.29 4.25 4.375-1.925 1.19-3.501 2.464-3.502 2.832-.001.367-1.949 1.993-4.328 3.613-5.661 3.854-12.568 13.04-20.201 26.87-5.582 10.111-6.428 11.167-8.822 10.997-3.179-.226-3.645 2.237-.605 3.201 1.581.502 1.874 1.137 1.298 2.818-.409 1.193-.658 3.744-.554 5.669.104 1.925-.445 6.188-1.219 9.474-.775 3.285-1.241 6.245-1.036 6.576.204.331.621 8.152.926 17.38.305 9.228.778 17.142 1.052 17.585.275.444 1.178 4.384 2.007 8.755 1.666 8.781 5.697 19.684 6.851 18.529.406-.406.447.148.092 1.231-.545 1.658-.459 1.732.541.47 1.012-1.277 1.099-1.225.587.352-1.063 3.269 18.909 31.689 20.968 29.837.421-.379.399-.057-.049.716-.585 1.007-.445 1.175.494.595.921-.569 1.069-.421.5.5-.535.866-.418 1.068.345.595.678-.418 1.155-.091 1.155.793 0 1.257 2.357 1.557 14.25 1.809 7.838.167 14.366.066 14.509-.223.142-.289 3.742-.211 8 .175 7.833.709 251.225 1.2 251.918.508.206-.206-.821-4.082-2.283-8.612-1.925-5.968-2.922-7.867-3.62-6.891-.715.999-.81.874-.368-.486.327-1.007.61-2.357.629-3 .02-.642.721-.043 1.557 1.332l1.522 2.5-.583-3c-.984-5.066-8.344-19.12-13.827-26.403-8.359-11.103-26.776-31.17-27.945-30.448-.676.418-.771.179-.259-.649.569-.921.421-1.069-.5-.5s-1.069.421-.5-.5.421-1.069-.5-.5-1.069.421-.5-.5.421-1.069-.5-.5-1.069.421-.5-.5c.504-.815.416-1.066-.232-.666-.573.354-1.597-.026-2.277-.845-.985-1.187-.976-1.489.042-1.489.898 0 .787-.542-.378-1.829-.91-1.006-1.655-2.089-1.655-2.408 0-1.11 12.557-7.432 20.441-10.291 10.752-3.899 18.024-8.988 27.056-18.937l7.593-8.363-.614-62.836-.614-62.836-5.137-7.872c-11.448-17.542-20.511-24.58-40.725-31.624-7.072-2.464-12.394-4.943-11.828-5.509.197-.197 6.426-1.33 13.843-2.517 16.465-2.636 23.865-4.246 35.235-7.663l8.75-2.63v-14.41c0-13.62-.102-14.377-1.87-13.816-1.461.463-1.975-.014-2.353-2.183-.555-3.187-.026-23.176.661-24.972.252-.658-.594-6.958-1.879-14-1.286-7.042-2.795-15.504-3.354-18.804-1.492-8.806-4.528-16.088-11.646-27.94-3.488-5.808-5.996-10.56-5.573-10.56.424 0 4.762 3.801 9.642 8.447l11.622 11.063c3.695 3.515 3.462 2.27-.768-4.103C403.069 115.252 382.199 98 377.748 98c-.741 0-1.776-.395-2.298-.877-1.525-1.408-15.378-6.252-22.45-7.85-7.84-1.773-24.44-1.144-33.5 1.268-11.37 3.026-20.351 8.239-28.732 16.675-4.253 4.281-8.116 7.784-8.585 7.784-1.631 0-23.827-23.52-25.245-26.75L255.512 85H142.458l-8.937 5.931m103.669 10.235c-1.218 4.034-3.765 12.959-5.661 19.834-3.871 14.036-6.686 21.37-13.124 34.189-4.966 9.889-4.865 10.407.983 5.031 2.262-2.079 10.075-7.341 17.362-11.692 7.287-4.352 13.239-8.388 13.226-8.97-.013-.582-.463-2.858-1.001-5.058-2.549-10.437-5.822-26.559-6.424-31.638-1.154-9.748-2.775-10.261-5.361-1.696m-50.69 98.491c-1.65 1.362-6.307 4.74-10.348 7.507-8.68 5.941-8.729 3.273.496 26.836l6.852 17.5.55-19.5c.505-17.921.768-20.101 3.247-26.919 1.484-4.08 2.587-7.527 2.451-7.66-.136-.133-1.598.873-3.248 2.236m90.614 21.093c-2.382 4.813-6.757 12.477-9.721 17.032-4.647 7.14-5.149 8.365-3.641 8.883.961.33 4.448 1.686 7.748 3.013 7.849 3.157 12.469 3.697 12.589 1.472.089-1.648-.243-9.206-.633-14.4-.845-11.278-.693-10.756-1.534-5.25-.466 3.054-.576.233-.283-7.25.265-6.738.33-12.25.144-12.25-.185 0-2.287 3.938-4.669 8.75M111 230.738c0 2.418 15.95 18.553 25.251 25.544 9.395 7.062 27.132 14.883 33.181 14.632 1.773-.074 1.711-.195-.432-.849-1.375-.42-4.3-1.669-6.5-2.775-2.2-1.107-4.556-1.815-5.235-1.573-1.499.533-7.485-3.552-6.808-4.647.264-.427-1.492-2.193-3.902-3.923-4.477-3.215-6.156-3.928-5.055-2.147.34.55.168 1-.382 1-1.517 0-2.43-1.996-.927-2.027 1.543-.032-5.659-6.973-7.235-6.973-.591 0-.815.419-.499.931.317.512.074 1.241-.538 1.619-.647.4-5.264-3.603-11.017-9.552-5.446-5.632-9.902-9.799-9.902-9.26m137.489 32.47C233.969 280.529 212.328 302 209.388 302c-.429 0 .746-1.575 2.612-3.5s2.935-3.5 2.376-3.5c-1.489 0-9.376 6.963-9.376 8.278 0 .786.359.763 1.2-.078 1.952-1.952 3.261-1.367 1.441.644-1.577 1.742-1.435 2.113 2.581 6.75 2.338 2.698 4.632 5.181 5.099 5.518.468.336.707.786.533 1-.477.583 2.754 4.946 3.276 4.425.248-.248.511.346.584 1.32.181 2.394 4.235 9.143 5.493 9.143.573 0 .743 1.063.392 2.461-.396 1.579.069 3.589 1.297 5.609 1.595 2.622 1.98 2.837 2.303 1.289.346-1.655.533-1.596 1.711.543 1.166 2.117 1.131 2.328-.294 1.781-.889-.341-1.616-.391-1.616-.112 0 1.343 4.055 8.229 5.592 9.496 1.537 1.267 5.969 7.457 10.408 14.537 2.213 3.53 2.834 2.929 1.913-1.854-1.253-6.509-2.295-27.474-2.249-45.25.048-18.712 1.474-32.594 4.965-48.345 1.383-6.24 2.313-11.546 2.067-11.792-.246-.246-1.689 1.034-3.207 2.845m-58.24 14.943c-.632.632-2.702 2.095-4.599 3.25-1.897 1.154-6.055 3.899-9.241 6.099s-12.638 8.5-21.005 14c-24.563 16.148-34.399 22.838-34.066 23.171.513.513 17.557-6.447 26.162-10.683 4.4-2.166 12.95-5.722 19-7.9 6.05-2.179 14.825-5.557 19.5-7.507 4.675-1.949 9.261-3.553 10.191-3.563 2.214-.024 3.414-2.026 1.809-3.018-.691-.427-.991-1.206-.666-1.731.487-.789-4.851-13.269-5.676-13.269-.142 0-.776.518-1.409 1.151M286.2 325c-.049 7.793-3.251 36.476-5.39 48.287-1.096 6.055-1.042 7.079.509 9.5 9.732 15.198 16.882 39.818 18.502 63.713l.746 11 5.324-10.446c6.244-12.252 8.059-17.868 9.504-29.425.266-2.13 1.468-4.919 2.671-6.199 1.203-1.281 1.944-2.961 1.648-3.733-.297-.773.546-3.316 1.872-5.651l2.411-4.245-5.748-8.101c-7.788-10.973-14.396-22.134-13.322-22.501.484-.166-.928-4.773-3.137-10.239-2.246-5.556-4.455-9.667-5.011-9.324-.618.383-.724-.234-.279-1.636.487-1.533.361-2.032-.393-1.566-.609.376-1.184.095-1.278-.625-.195-1.495-.474-4.393-.703-7.309-.132-1.683-.318-1.762-1.172-.5-.756 1.117-.878.734-.478-1.5.295-1.65.234-2.328-.135-1.507-.417.931-1.692-1.708-3.382-7l-2.712-8.493-.047 7.5m-40.254 137.62c-10.356 10.517-24.385 19.822-35.125 23.298-3.407 1.102-3.615 1.39-2.808 3.886.479 1.483 3.615 11.314 6.968 21.848 8.591 26.985 9.962 29.482 11.442 20.848.914-5.331 3.412-15.932 5.065-21.5 4.42-14.885 8.017-25.544 8.718-25.835.443-.185.588-.689.321-1.121-.267-.432.386-1.79 1.45-3.018 1.065-1.227 2.468-3.873 3.118-5.879.65-2.006 2.948-7.181 5.107-11.5 2.158-4.32 3.759-8.019 3.557-8.221-.202-.202-3.718 3.035-7.813 7.194" fill="#d3d3d3" fill-rule="evenodd"/></svg>