<svg xmlns="http://www.w3.org/2000/svg" width="500" height="490"><path d="M56.218 34.824c-2.315 1.104-3.093 2.023-2.639 3.12.354.856.706 2.231.782 3.056.217 2.346 1.999 3.874 3.531 3.029.766-.422 2.129-.575 3.03-.339 3.976 1.04 7.084-1.426 6.824-5.414-.352-5.398-4.708-6.702-11.528-3.452m.632 12.269c-.718.443-.622.869.287 1.277.75.336.388.372-.803.08-2.479-.608-4.243 1.37-2.295 2.574.875.541 1.235 2.857 1.109 7.138-.258 8.771-1.211 14.917-2.216 14.296-.465-.287-.563-1.256-.218-2.154.418-1.091.238-1.392-.544-.909-.644.398-1.17 1.795-1.17 3.105s-.45 2.66-1 3c-.604.373-1-.99-1-3.441 0-2.232-.257-4.059-.571-4.059-1.277 0-3.268 2.824-3.588 5.088-.188 1.326-.791 2.451-1.341 2.498-3.381.292-4 1.558-4 8.176 0 8.548-.754 12.738-2.291 12.738-.665 0-1.238.329-1.274.732-.035.402-.523 2.202-1.083 4-.568 1.819-1.199 18.043-1.426 36.597-.223 18.332-.662 33.744-.975 34.25-.313.507-.152.921.359.921.51 0 .769 1.688.576 3.75-.666 7.086-1.485 35.797-1.949 68.25-.449 31.504-.922 64.903-1.887 133.5-.525 37.299-1.311 60.88-2.249 67.5-.974 6.872-1.127 8.28-1.218 11.179-.046 1.473-.758 3.353-1.583 4.178-3.004 3.004-1.319 3.207 7.75.935 5.087-1.274 13.3-2.537 18.25-2.804 12.58-.681 18.5-1.528 18.5-2.648 0-.527-.461-.673-1.025-.325-1.828 1.13-.539-1.846 1.759-4.061 1.228-1.184 2.001-2.385 1.718-2.669-.284-.284-.691-3.839-.904-7.901-.213-4.061-.424-7.901-.468-8.533-.047-.673-2.938-1.435-6.984-1.841l-6.903-.694-.315-9.658c-1.208-37.11.544-150.131 2.345-151.278.535-.34 11.617-.69 24.625-.777 13.009-.087 57.627-.633 99.152-1.213 41.525-.58 109.925-1.245 152-1.477 42.075-.232 83.178-.532 91.341-.667l14.84-.246-.05-77.333c-.048-72.928-.474-97.817-1.789-104.564-.311-1.593-.678-9.243-.815-17l-.249-14.103-81.639-.256c-64.977-.203-81.642.001-81.654 1-.012.969-.192.979-.785.046-.57-.897-7.743-1.215-27.734-1.228-33.271-.023-33.604-.029-34.63-.663-.46-.285-.836-.106-.836.397 0 .519-4.713.745-10.926.524-10.725-.382-10.934-.347-11.364 1.895l-.438 2.285-.136-2.25c-.16-2.639-1.373-2.87-3.565-.679-.864.865-1.571 1.09-1.571.5 0-.589-.675-1.071-1.5-1.071s-1.507.563-1.515 1.25c-.01.774-.295.869-.75.25-.47-.639-19.863-1.094-53.73-1.26-29.147-.143-53.747-.499-54.666-.791-.92-.292-2.128-1.84-2.686-3.44-.913-2.619-1.423-2.892-5.121-2.745-2.258.09-4.591.463-5.182.829M316.479 382.33c-.217.644-.603 6.12-.855 12.17-.253 6.05-1.011 18.774-1.684 28.275-.673 9.501-.898 17.601-.5 18 1.073 1.073 28.292 1.773 80.31 2.064l46.25.259-.03-6.799c-.016-3.739.194-16.699.466-28.799l.497-22-5.717.091c-3.144.05-9.766-.263-14.716-.696-4.95-.432-18.9-1.087-31-1.453-12.1-.367-23.8-.822-26-1.01-12.931-1.108-46.655-1.18-47.021-.102" fill="#d3d3d3" fill-rule="evenodd"/></svg>