<svg xmlns="http://www.w3.org/2000/svg" width="500" height="440"><path d="M130.556 7.777c-.397.398-7.547.805-15.889.905-8.342.1-19.217.378-24.167.617-4.95.24-13.612.158-19.25-.182C65.612 8.778 61 8.773 61 9.107c0 .335-2.694.89-5.987 1.234-6.569.686-10.312 2.437-9.536 4.459.275.717.116 1.067-.353.777-.469-.29-.821.924-.781 2.698.055 2.503-.326 3.191-1.705 3.075-1.079-.092-1.58.358-1.278 1.147.302.785-.46 1.48-1.931 1.761-1.336.256-2.429.077-2.429-.397 0-.473-.477-.861-1.059-.861s-.738.52-.346 1.155c.44.711.275.883-.429.448-.699-.432-.945-.19-.633.624.387 1.006-.467 1.237-3.511.946C28.81 25.963 27 25.317 27 24.74c0-.577-.9-.235-2 .76s-2 1.32-2 .721c0-.615-1.087-.892-2.5-.635-1.43.259-2.5-.019-2.5-.65 0-.606-.562-.901-1.25-.654-.687.246-2.026.049-2.975-.439-1.363-.7-1.857-.365-2.349 1.595-.342 1.365-.669 62.013-.725 134.772-.096 122.619.021 132.509 1.592 135.29.939 1.663 1.735 2.332 1.784 1.5.289-4.838.8-6.437 2.444-7.639 1.008-.737 2.078-1.096 2.377-.796.299.299-.118.962-.927 1.474s-1.118.937-.686.946c.432.008.304.915-.285 2.015-.78 1.458-.76 2 .073 2 .741 0 .907.943.473 2.675-.558 2.222-.434 2.477.733 1.508 1.399-1.161 2.721-.655 2.721 1.043 0 .49-.403.643-.895.339-.906-.56-2.118 1.623-2.09 3.767.009.67.429.529.985-.332.828-1.282.972-1.246.985.25.008.962-.66 1.75-1.485 1.75-.825 0-1.5.502-1.5 1.117 0 .651 1.041.917 2.5.638 2.851-.545 3.076-.188 1.119 1.769-.759.759-1.696 1.065-2.082.68-.385-.385-1.341.175-2.124 1.246-1.374 1.879-1.424 1.862-1.445-.502-.047-5.262-.506-7.948-1.357-7.948-.489 0-.613 2.363-.276 5.25.338 2.887.251 4.671-.192 3.964-.859-1.371-3.056 7.238-3.008 11.786.014 1.375-.018 14.875-.072 30-.053 15.125.101 28.4.344 29.5.242 1.1.534 2.9.648 4 .115 1.1.491.425.836-1.5.484-2.699 1.08-3.459 2.604-3.322 1.087.098 2.313-.352 2.725-1 .542-.852.754-.8.765.189.009.872.739 1.177 2.015.843 1.1-.287 2-.099 2 .419 0 .559.78.524 1.919-.086 1.171-.626 2.049-.659 2.25-.084.182.519 2.356 1.078 4.831 1.242 2.475.165 4.824.749 5.219 1.299.467.648 1.463.54 2.829-.307 1.326-.822 2.544-.966 3.28-.388 1.834 1.438 6.953 2.459 6.197 1.235-1.092-1.766.839-1.157 4.743 1.496 2.053 1.395 3.732 2.022 3.732 1.393 0-.629.675-.884 1.5-.567.825.316 1.5.177 1.5-.31s-.562-1.112-1.25-1.39c-.747-.301-.545-.536.5-.583 1.008-.046 1.777.663 1.813 1.671.049 1.341.275 1.224.968-.5.498-1.238 1.327-2.25 1.843-2.25s.747 1.012.512 2.25c-.301 1.587-.2 1.777.343.643.424-.884 1.538-1.489 2.476-1.345.937.144 3.412-.126 5.5-.599 2.342-.531 3.923-.492 4.13.102.185.529.747.707 1.25.396.503-.311.915-.12.915.424 0 .545.993 1.134 2.206 1.309 1.35.196 2.963 1.761 4.156 4.032 1.073 2.042 2.218 3.552 2.544 3.355.327-.196 1.143.238 1.815.964.961 1.041.961 1.413 0 1.751-.672.236-.096.446 1.279.468 3.724.059 5.337.584 7 2.278 1.517 1.546 18.256 2.049 19.712.593 1.092-1.092 3.097-.669 4.772 1.006 1.156 1.155 3.611 1.662 8.476 1.75 3.767.068 6.338.439 5.713.825-.997.616 9.195.378 11.827-.276.55-.137 2.337.3 3.97.972 1.634.671 3.755 1.015 4.714.764.958-.25 2.264.173 2.902.941.637.768 1.805 1.397 2.595 1.397.791 0 1.159.45.819 1-.34.55-.115 1 .5 1s.84.45.5 1c-.34.55.11 1 1 1 .968 0 1.332.464.905 1.155-.475.768-.271.88.61.335.962-.594 1.15-.362.686.846-.351.916-.155 1.664.437 1.664s.817.675.5 1.5c-.316.825-.153 1.5.362 1.5s.65.787.299 1.75c-.594 1.628-.505 1.637 1.281.119 1.3-1.104 2.565-1.369 3.92-.82 1.1.446 1.452.842.781.881-2.748.158.067 2.926 2.895 2.846 1.658-.047 3.309.354 3.669.892.36.538 1.542 1.307 2.627 1.709 1.543.572 1.677.913.616 1.569-2.535 1.567 15.946 1.9 84.255 1.521 47.597-.264 68.24-.706 69.175-1.482.734-.609 1.93-1.026 2.658-.927 2.706.366 3.824-.099 3.824-1.593 0-1.189.421-1.31 1.869-.535 1.791.958 3.131.539 3.131-.98 0-1.277-3.862-1.77-7.476-.955-3.056.689-3.524.547-3.524-1.069 0-1.322-.508-1.7-1.75-1.3-1.477.475-1.516.394-.25-.516 1.272-.916 1.196-1.093-.5-1.171-1.367-.062-.892-.518 1.5-1.439 1.925-.741 2.825-1.389 2-1.439-1.333-.081-1.333-.199 0-1.061 2.033-1.314-3.423-1.379-5.869-.07-1.298.695-2.046.436-2.957-1.023-1.317-2.109.594-3.786 2.778-2.437.576.357 1.048.113 1.048-.542 0-.792-1.124-1.007-3.363-.644-2.969.482-3.349.293-3.25-1.614.062-1.187-.449-2.218-1.137-2.29a106.36 106.36 0 01-2.219-.255c-.532-.069-.71-.797-.395-1.619.316-.822 1.027-1.214 1.581-.872 1.214.75 2.775-1.491 2.158-3.098-.242-.631-1.743-1.056-3.336-.946-2.255.157-2.764-.144-2.298-1.359.354-.922.182-1.301-.422-.928-.561.347-2.505-.465-4.319-1.803-1.814-1.338-3.643-2.221-4.064-1.961-.421.261-.942-.056-1.157-.702-.216-.647-2.166-1.156-4.335-1.133-2.169.023-3.157-.159-2.194-.404 2.661-.679 2.19-3.198-.5-2.675-1.428.277-.971-.213 1.25-1.342 1.925-.979 3.831-2.23 4.235-2.781.443-.604.74-.456.75.373.011 1.027.837 1.198 3.265.674 1.788-.385 3.7-.791 4.25-.903.55-.111 1.563-.554 2.25-.983.695-.434 1.25-.326 1.25.243 0 1.76 4.061 3.433 5.307 2.187 1.587-1.587 3.001-1.339 2.331.407-.316.825-.139 1.5.393 1.5a.975.975 0 00.969-.975c0-.628.934-.62 2.623.022 1.443.548 4.208.7 6.145.337 2.512-.471 3.319-.335 2.818.478-.387.626-.227 1.138.355 1.138s1.059-.443 1.059-.985c0-.585 3.242-.88 8-.728 4.5.145 8-.154 8-.682 0-.516.271-.667.603-.336.331.332 1.681.193 3-.308 1.514-.576 2.397-.552 2.397.064 0 .536.477.975 1.059.975s.781-.45.441-1c-.915-1.481 1.246-1.213 3.82.474 1.717 1.125 3.469 1.281 7.411.658 2.839-.449 5.696-.486 6.35-.082 1.77 1.094 9.18.141 10.094-1.299.616-.97.798-.944.81.116.01.884.827 1.211 2.318.926 1.267-.242 2.82.113 3.451.789.809.866 2.265.978 4.922.378 2.075-.468 4.01-.5 4.299-.072.289.428 2.172.698 4.184.6 2.214-.108 3.563.254 3.414.917-.135.602-.056.757.174.345.632-1.13 3.253-.9 3.253.285 0 .667.792.611 2.227-.156 1.224-.656 5.309-1.306 9.077-1.446 3.767-.139 7.112-.515 7.431-.835.32-.319 1.078-.168 1.686.337.719.596 1.847.084 3.227-1.464 1.376-1.545 1.723-2.559.986-2.886-.624-.278.793-.364 3.148-.192s4.517-.067 4.804-.532c.795-1.286 11.678-.334 14.261 1.247 2.01 1.23 2.431 1.182 3.613-.411 1-1.347 1.47-1.474 1.86-.5.395.985.541.998.601.053.043-.687.515-1.25 1.048-1.25.532 0 .734.612.447 1.359-.385 1.004.343 1.295 2.781 1.113 4.899-.365 4.972-.39 4.31-1.461-.365-.591.114-.723 1.191-.33 1.721.628 1.723.568.05-1.343-.964-1.1-1.451-2.301-1.084-2.669.368-.368.144-.669-.497-.669-.642 0-1.167-.45-1.167-1s1.089-1 2.421-1c1.836 0 2.556-.663 2.985-2.75.782-3.801.42-13.25-.507-13.25-.418 0-.349-1.43.152-3.178 1.06-3.694 1.019-304.618-.042-315.322-.382-3.85-.794-6.325-.915-5.5-.146.993-.524.746-1.119-.733-.582-1.447-1.44-2.026-2.437-1.643-.87.334-1.538.056-1.538-.639 0-.947-.325-.96-1.416-.055-1.13.938-1.546.766-2.058-.849-.549-1.729-.928-1.847-2.591-.808-1.708 1.067-2.379.732-5.442-2.71-1.921-2.159-3.493-3.405-3.493-2.768 0 .723-1.503 1.074-3.995.932-2.197-.125-3.997-.737-4-1.36-.007-1.555-3.796-2.43-4.378-1.011-.323.788-.494.755-.548-.106-.045-.705-1.388-1.25-3.079-1.25-2 0-3-.5-3-1.5 0-.825-.477-1.5-1.059-1.5s-.781.45-.441 1 .141 1-.441 1-1.059-.436-1.059-.969c0-.532-.68-.707-1.511-.388-1.124.431-1.337.124-.83-1.196.49-1.278.326-1.556-.586-.992-2.122 1.311-8.073 1.354-8.073.058 0-.649-.682-1.18-1.514-1.18-1.05 0-1.341.64-.949 2.084.536 1.972.489 1.987-.888.275-1.4-1.74-1.505-1.736-2.802.091-.741 1.044-2.359 1.821-3.597 1.725-1.339-.103-2.25.39-2.25 1.218 0 .766-.399 1.145-.887.844-.487-.301-1.435.113-2.105.92-.937 1.129-1.684 1.218-3.24.386-1.497-.801-2.217-.768-2.77.128-.457.739-.983.829-1.352.232-.333-.538-1.964-.82-3.625-.627-1.662.194-3.021-.089-3.021-.629 0-.539.477-.98 1.059-.98s.776-.457.431-1.016c-.346-.559-1.047-.758-1.559-.441-.512.316-.938-.464-.946-1.734-.013-1.858-.205-2.016-.985-.809-.533.825-.976 1.036-.985.468-.013-.913-2.3-1.475-7.003-1.723-.819-.043-2.069-.659-2.779-1.369s-1.985-1.025-2.834-.699c-.849.326-2.914-.421-4.59-1.66-2.468-1.825-3.21-1.993-3.912-.884-.847 1.336-1.402.008-1.007-2.408.07-.426-1.565-.791-3.632-.812-2.067-.02-10.283-.204-18.258-.408-27.138-.694-93.086-.752-93.757-.082-.367.368-.189 1.435.396 2.372.601.963.724 2.575.283 3.705-.43 1.1-.813 1.602-.852 1.115-.038-.487-1.021.325-2.184 1.803-1.163 1.478-1.813 2.988-1.446 3.356.368.367 1.087.006 1.599-.803.787-1.245.933-1.211.946.22.008.93-.436 1.97-.988 2.311-.67.414-.67 1.241 0 2.493 1.253 2.341 1.281 3.295.075 2.549-.51-.315-1.215.332-1.567 1.439-.351 1.107-1.691 2.277-2.977 2.599-1.287.323-2.564 1.449-2.84 2.503-.275 1.053-.979 1.915-1.563 1.915s-.803-.675-.487-1.5c.863-2.249-.966-1.806-2.467.597-.72 1.154-1.563 1.845-1.872 1.536-.309-.31-1.37-.13-2.358.399-1.377.737-1.902.554-2.252-.786-.383-1.463-.476-1.484-.573-.127-.146 2.039-6.829 2.061-7.613.025-.328-.852-1.369-1.143-2.8-.784-1.254.314-4.359-.054-6.9-.819-2.541-.765-4.857-1.154-5.146-.865-.288.289-1.54-.421-2.781-1.577-1.389-1.294-2.502-1.704-2.896-1.067-.661 1.07-3.98.289-3.98-.936 0-.379-2.091-.749-4.648-.823-2.556-.073-4.958-.636-5.338-1.25-.478-.774-1.089-.637-1.985.442-.929 1.12-1.65 1.264-2.556.512-.695-.576-1.647-.936-2.118-.8-.47.137-1.808-.282-2.974-.929-1.165-.648-2.402-.893-2.75-.546-.347.347-.631.181-.631-.369s-.675-1-1.5-1-1.5.454-1.5 1.008-1.012.065-2.25-1.088c-1.896-1.766-2.911-1.973-6.448-1.318-3.131.58-4.328.44-4.707-.549-.422-1.1-1.05-1.098-3.685.01-4.369 1.837-9.892.249-9.139-2.627.284-1.086-.088-2.347-.825-2.803-.98-.605-.642-1.004 1.255-1.48 2.977-.747 3.103-3.06.279-5.124-1.024-.749-1.496-1.362-1.049-1.362.448 0 .289-.632-.352-1.405-.752-.906-3.366-1.439-7.372-1.503-8.242-.132-17.588-.9-18.608-1.531-.451-.278-1.145-.181-1.543.216" fill="#d3d3d3" fill-rule="evenodd"/></svg>