<svg xmlns="http://www.w3.org/2000/svg" width="500" height="500"><path d="M.023 82l.04 82h3.746c2.939 0 4.333-.669 6.472-3.107 2.943-3.353 6.928-3.468 9.38-.269 1.007 1.314 1.247 1.24 1.817-.555.831-2.617 3.522-2.715 3.522-.128 0 1.068.45 2.219 1 2.559.55.34 1-.114 1-1.008 0-1.172.56-1.449 2-.992 1.147.364 2 .18 2-.433 0-.587.45-1.067 1-1.067s1 1.134 1 2.519c0 2.236.309 2.447 2.75 1.88 1.513-.351 3.25-1.26 3.86-2.019.611-.759 1.65-1.38 2.309-1.38.66 0 .919-.453.577-1.007-.343-.554.092-1.281.966-1.617 1.122-.43 1.291-.968.576-1.83-.731-.881-.32-1.592 1.473-2.552 2.888-1.546 4.211-.859 2.206 1.146-.758.758-1.171 1.999-.918 2.758.279.836.015 1.105-.669.682-.622-.384-1.13-.221-1.13.361S45.661 159 46.469 159c.894 0 1.243.586.893 1.5-.317.825-.051 1.5.59 1.5s.888-.45.548-1c-.34-.55.084-1 .941-1s1.559.45 1.559 1-.45 1-1 1-.993.787-.985 1.75c.013 1.401.192 1.471.899.354.486-.767 1.592-1.124 2.456-.792.865.332 2.259-.084 3.098-.923 2.356-2.356 5.693-.88 4.926 2.179-.338 1.344-.17 2.432.375 2.432 1.566 0 2.862-2.302 2.676-4.75-.118-1.536.38-2.25 1.567-2.25 1.13 0 1.745.787 1.758 2.25.027 3.061.541 4.951 1.725 6.336 1.319 1.544 3.527.634 2.835-1.169-.304-.791.056-1.424.813-1.432 1.048-.012 1.017-.231-.138-.961-1.283-.811-1.213-1.165.5-2.5 1.906-1.485 1.861-1.526-1.005-.91-2.327.5-2.745.372-1.865-.57 1.419-1.518 5.953-.929 5.615.73-.3 1.471 1.376 1.639 2.25.226.968-1.566 2.927-1.183 5.311 1.039L85 165.078l.032-2.289c.03-2.192.092-2.21 1.452-.414 1.993 2.632 5.026 1.446 3.516-1.375-1.236-2.31.718-3.706 3.627-2.59.894.344 2.197.151 2.894-.428.698-.579 1.822-.924 2.499-.767.676.157 1.46-.349 1.741-1.124.355-.977.01-1.217-1.125-.782-.985.378-1.636.123-1.636-.64 0-1.748 2.081-3.672 3.95-3.654 1.029.01 1.167.262.411.75-.826.533-.757 1.09.25 2.024 1.153 1.071 1.389.942 1.389-.758 0-1.828.24-1.913 2.23-.789 1.227.692 2.729 1.884 3.339 2.648.933 1.17 1.209 1.13 1.739-.25.678-1.767 3.692-2.29 3.692-.64 0 .55-.562 1.007-1.25 1.015-.839.011-.757.346.25 1.019 1.307.875 1.267 1.182-.31 2.389-1.23.941-1.449 1.608-.683 2.081.619.383 1.389.433 1.711.112.321-.322 1.177.196 1.901 1.15 1.24 1.632 1.319 1.633 1.349.015.022-1.183.547-1.52 1.686-1.084 1.464.562 1.412.831-.457 2.345-1.162.94-1.861 1.961-1.554 2.267.306.307.214 1.114-.206 1.793-.42.679-.944 3.494-1.166 6.255-.403 5.028-1.947 9.3-2.987 8.261-.304-.305-2.106 2.019-4.003 5.164-2.94 4.873-3.594 7.122-4.424 15.218-2.234 21.812-2.162 21.472-4.607 21.82-1.446.205-2.25 1.009-2.25 2.25 0 1.447-.7 1.93-2.8 1.93-5.689 0-7.565 6.322-2.224 7.495 1.636.359 3.436.368 4 .02 1.013-.626 1.326 1.342 1.347 8.485.018 5.902-2.384 36.004-3.238 40.574-.484 2.592-.418 4.693.166 5.277.627.627-.709 2.58-3.779 5.521-2.612 2.503-5.26 5.576-5.886 6.83-.625 1.254-2.025 2.443-3.111 2.642-2.724.5-5.475 3.115-5.475 5.204 0 1.836-1.912 2.952-5.056 2.952-1.983 0-4.972 4.658-4.26 6.64.225.626-1.08 2.06-2.901 3.185-4.537 2.804-8.048 7.043-7.347 8.869.32.833 1.187 1.281 1.929.996.827-.317 1.975.801 2.975 2.897 2.072 4.345 4.069 4.553 3.141.326-.532-2.423-.257-3.382 1.283-4.46 1.078-.755 2.503-2.683 3.166-4.283 1.771-4.276 8.07-6.906 8.07-3.37 0 2.685 2.014 4.2 5.583 4.2 3.624 0 4.381-1.543 4.403-8.973.014-4.334.062-4.403 1.571-2.25 3.368 4.81 5.959 1.521 5.532-7.024-.206-4.127-.012-4.661 1.482-4.088 2.297.882 4.429-2.147 4.429-6.291 0-4.055 1.696-8.68 2.908-7.931 2.366 1.462 3.906-.508 2.547-3.258-1.665-3.37-1.942-19.085-.514-29.155.583-4.109 1.134-9.439 1.225-11.845.094-2.481.716-4.586 1.437-4.863.699-.268 1.046-1.072.772-1.787-.569-1.484 3.985-6.842 4.975-5.852 1.217 1.217.655 3.256-.749 2.717-.769-.295-1.696-.056-2.059.532-.363.587-.157 1.068.458 1.068s.89.37.61.822c-.279.452.436 1.629 1.59 2.617 2.075 1.777 2.09 1.763 1.473-1.322-.63-3.151.096-3.948 1.927-2.117.667.667 1-.168 1-2.504 0-2.878-.312-3.405-1.745-2.95-2.009.638-3.542-4.805-2.383-8.459.673-2.119 2.528-2.917 2.528-1.087 0 .55.9 1 2 1 1.333 0 2-.667 2-2 0-1.1.429-2 .952-2 .524 0 .789-1.296.589-2.88-.287-2.264.15-3.114 2.047-3.978 2.83-1.29 2.807-1.082.912-8.142-.812-3.025-1.482-7.469-1.488-9.875L124 191.75l3.25.677c8.539 1.778 27.421 3.78 38 4.028 11.042.259 11.75.16 11.75-1.657 0-1.478-.471-1.783-2-1.298-1.147.364-2 .18-2-.433 0-.587.54-1.067 1.2-1.067.836 0 .882-.318.153-1.047-1.605-1.605 1.464-9.933 4.044-10.976 1.81-.732 1.849-.859.28-.914-2.48-.086-1.768-3.425.834-3.913 1.094-.205 2.349-.998 2.789-1.761.44-.764 1.565-1.353 2.5-1.31 1.042.048 1.216.274.45.583-2.065.833-1.42 2.074 1.5 2.885 4.759 1.322 6.389 1.487 5.834.59-.578-.937 3.128-4.759 3.882-4.004.962.962-.773 4.867-2.162 4.867-1.125 0-1.304.75-.774 3.25.379 1.787.752 3.689.83 4.226.522 3.634 4.015 3.819 6.65.353.281-.369 1.751-.982 3.268-1.363 2.692-.675 2.732-.623 1.651 2.171-.608 1.575-1.278 3.711-1.486 4.748-.537 2.665-.704 2.711-3.887 1.059-1.57-.814-3.111-1.222-3.426-.908-.771.772 1.963 2.43 4.039 2.449 1.445.013 1.531.521.643 3.765-.564 2.063-1.309 4.2-1.654 4.75-.345.55-.671 1.675-.724 2.5-.227 3.516-1.792 7.121-3.483 8.026-3.123 1.672-3.937 1.155-3.289-2.086.892-4.46-1.153-7.738-4.498-7.207-1.527.243-2.208.07-1.594-.405.624-.483.77-1.869.349-3.328-.46-1.6-.756-1.87-.819-.75-.06 1.05-.9 1.75-2.1 1.75-1.1 0-2 .36-2 .8 0 1.552 2.428 3.2 4.714 3.2 2.075 0 2.249.337 1.68 3.25-1.142 5.854-.975 9.27.438 8.975.724-.151 1.032.187.683.75-.971 1.572 1.15 1.217 2.842-.475.825-.825 1.757-1.5 2.072-1.5.314 0 .571.675.571 1.5s-.466 1.5-1.035 1.5c-.688 0-.711.605-.07 1.804 1.066 1.992-.116 4.795-1.628 3.861-.559-.345-.918 1.245-.862 3.821.118 5.483-1.151 6.802-6.87 7.139-4.139.243-4.478.087-4.166-1.93.236-1.528 1.041-2.195 2.647-2.195 3.092 0 3.862-2.465.817-2.616-1.694-.084-1.854-.241-.583-.573 1.935-.506 2.295-1.856.75-2.811-.55-.34-1-.19-1 .334 0 1.364-2.823 2.261-3.528 1.12-.326-.527.622-1.419 2.107-1.984 3.067-1.166 2.621-2.172-1.139-2.573-1.501-.16-3.367.53-4.502 1.665-2.714 2.714-3.444 2.453-4.714-1.683-.854-2.783-.816-4.114.163-5.75 1.064-1.779.99-2.669-.448-5.415l-1.721-3.286-1.109 6.368c-1.373 7.885-1.418 11.25-.109 8.204.726-1.69.87-1.509.93 1.167.038 1.741-.449 3.339-1.084 3.551-1.996.665-2.782 10.711-.923 11.799 1.39.813 1.37.926-.173.953-1.634.028-2.288 3.52-2.019 10.78.026.688-.691 1.282-1.592 1.32-1.275.055-1.195.262.361.93 1.1.473 1.685.891 1.301.93-.384.038-.042 1.643.761 3.565.804 1.923 1.456 3.723 1.449 4-.006.278.023.618.066.755.796 2.603 1.162 4.755 1.185 6.969.016 1.496.366 2.511.778 2.256 1.314-.812 2.041 2.722.855 4.152-.906 1.091-.704 1.373.983 1.373 2.303 0 2.83 1.444.951 2.606-.769.475-.386 1.014 1.114 1.569 2.902 1.073.898 4.227-2.084 3.28-1.244-.395-1.859-.097-1.859.9 0 .819 1.568 2.007 3.484 2.64 1.917.632 4.391 2.302 5.499 3.71l2.014 2.561.631-3.154c1.019-5.096 2.269-4.576 2.145.892-.064 2.78.372 5.541.969 6.138 1.241 1.241 3.585.196 2.715-1.211-.316-.512-.171-.931.323-.931.495 0 1.395 1.09 2.002 2.421.803 1.763 1.66 2.276 3.149 1.887 1.126-.295 1.8-.934 1.499-1.422-.302-.487-.071-.886.511-.886s1.059.468 1.059 1.039c0 .6.59.494 1.395-.25 1.743-1.61 1.103-2.789-1.513-2.789-1.1 0-1.722-.45-1.382-1 .34-.55-.084-1-.941-1s-1.559-.408-1.559-.906c0-1.494 4.36.087 6.406 2.323 1.681 1.838 1.827 1.864 1.239.222-.512-1.426-.295-1.719.925-1.25.877.336 1.894.618 2.262.626.367.009-.007.459-.832 1-2.762 1.813.931 3.072 4.141 1.412 1.518-.785 3.443-1.427 4.278-1.427.939 0 1.299-.573.943-1.5-.817-2.127.499-5.343 1.514-3.701.581.94 1.312.772 2.996-.688 1.363-1.182 1.82-2.183 1.178-2.58-1.649-1.019-1.234-2.25.95-2.821 1.1-.287 2-.115 2 .384 0 .498.505.906 1.122.906.776 0 .738-.464-.122-1.5-.889-1.072-.917-1.5-.098-1.5.631 0 1.593-1.171 2.137-2.602.648-1.704 1.501-2.405 2.475-2.031.899.345 1.486-.01 1.486-.898 0-1.757 2.138-1.931 3.764-.305.885.885 1.037.226.634-2.75-.457-3.383-.362-3.649.701-1.958 1.221 1.941 1.236 1.941 1.931 0 .385-1.076.316-2.985-.153-4.242-.628-1.68-.46-2.437.634-2.857 2.634-1.01 1.59-2.009-2.019-1.932-2.372.051-3.353.48-3.031 1.325.726 1.905-.515 1.494-2.541-.842-.997-1.15-2.288-1.799-2.867-1.441-1.501.928-1.245-.629.479-2.908 1.453-1.922 1.468-1.922 1.47 0 .001 1.328.553.836 1.75-1.559 1.837-3.678 4.281-4.588 5.428-2.021.564 1.262.691 1.223.75-.229.045-1.134.872-1.75 2.349-1.75 1.254 0 2.921-.89 3.705-1.978 1.06-1.47 1.64-1.663 2.262-.75.565.829.743.612.546-.668-.207-1.341.586-2.194 2.708-2.912 2.733-.926 5.815-3.711 5.004-4.521-.183-.183-1.244.155-2.358.751-2.556 1.368-3.899-.379-1.417-1.845 1.639-.967 1.61-1.091-.387-1.653-2.113-.597-2.119-.647-.272-2.494 1.036-1.036 2.57-1.622 3.407-1.3 1.827.701 1.989 2.048.314 2.606-.666.222.234 1.257 2 2.299 1.765 1.043 3.209 2.249 3.209 2.681 0 .431.9.784 2 .784s2.007-.562 2.015-1.25c.01-.83.334-.746.964.25.521.825 1.414 1.556 1.985 1.625l2.08.25c.574.069.911.912.75 1.875-.195 1.159.353 1.751 1.623 1.754 3.109.007 2.644 4.228-1.432 12.996-7.44 16.004-7.323 15.671-5.841 16.61 1.046.663.943.863-.453.875-.995.008-1.562.414-1.261.902.301.487-.159 1.473-1.022 2.189-.864.717-3.699 5.606-6.3 10.864-5.59 11.299-9.84 18.953-11.738 21.139-.753.868-1.372 1.993-1.375 2.5-.008 1.648-6.97 8.554-7.989 7.925-.545-.337-1.781-.152-2.748.411-1.516.883-1.388 1.028.925 1.055 3.147.035 4.498 2.889 2.837 5.992-.993 1.855-2.227 2.479-4.27 2.156-.412-.065-.764 1.12-.782 2.632-.017 1.513-.582 3.472-1.254 4.354-1.606 2.109-5.714 3.437-5.714 1.847 0-.692-.832-.967-2-.661-1.1.287-2 .146-2-.315 0-.987-4.384-.68-4.75.333-.686 1.898-.022 2.692 2.25 2.692 2.671 0 3.011.644 1.556 2.944-.625.987-.146 2.753 1.515 5.587 1.336 2.28 2.429 4.512 2.429 4.962 0 1.559-3.51-2.387-5.498-6.18-1.098-2.097-2.56-4.407-3.248-5.133-.688-.726-1.525-2.41-1.859-3.743-.335-1.333-1.03-2.163-1.546-1.844-.515.319-2.05-.15-3.411-1.042-2.206-1.445-2.538-1.454-3.063-.086-.796 2.073-2.056 1.931-4.107-.465-2.287-2.671-3.268-2.521-3.268.5 0 1.598-.563 2.5-1.559 2.5-.857 0-1.281-.45-.941-1 .34-.55.24-1-.222-1-1.855 0-3.172 5.866-1.421 6.331 1.341.357 1.299.458-.229.553-1.549.096-1.657.376-.628 1.616.978 1.178.981 1.5.015 1.5-.676 0-.987.631-.691 1.403.296.771-.001 2.14-.66 3.041-1.095 1.499-1.385 1.465-3.389-.403-1.205-1.122-2.66-2.041-3.233-2.041s-1.042-.45-1.042-1 .45-1 1-1c2.591 0 .568-2.956-3-4.383-2.2-.881-4.002-1.942-4.004-2.359-.007-1.412-4.1-7.488-4.664-6.923-.308.308.443 2.182 1.668 4.165 1.225 1.983 1.967 3.866 1.648 4.185-.319.319.574 1.488 1.984 2.598 2.126 1.672 2.716 1.778 3.451.617.719-1.136.889-1.084.902.28.012 1.376-.891 1.648-4.977 1.5-2.746-.099-4.996-.652-5-1.23-.017-2.192-2.221-3.319-4.671-2.388-1.854.705-2.547.554-3.012-.657-.486-1.268-.767-1.314-1.449-.239-.678 1.071-.851 1.038-.876-.166-.026-1.276-.165-1.288-.93-.079-.495.782-2.498 1.457-4.45 1.5-3.049.068-3.525.397-3.367 2.329.101 1.238.535 2.25.965 2.25.43 0 .782.45.782 1s-.927 1-2.059 1c-1.132 0-1.797.424-1.477.942.32.518-.949 1.669-2.82 2.557-2.921 1.386-3.367 2.06-3.155 4.764.136 1.732.757 3.319 1.379 3.526 1.658.553 1.382 2.211-.368 2.211-.825 0-1.5-.45-1.5-1s-1.35-1-3-1c-3.021 0-4.07-1.401-1.75-2.338.688-.277.012-.54-1.5-.583-1.568-.045-2.757.458-2.765 1.171-.01.774-.295.869-.75.25-.404-.55-2.223-1.096-4.041-1.214-2.875-.186-3.224.043-2.681 1.755.8 2.52-1.913 3.702-4.179 1.821-.903-.749-1.91-1.274-2.238-1.166-.328.107-.511-.905-.408-2.25.119-1.548-.339-2.446-1.25-2.446-1.648 0-1.925-1.581-.438-2.5.55-.34 1-.141 1 .441s.45 1.059 1 1.059c1.929 0 .975-2.054-1.47-3.168-1.852-.844-2.825-.832-3.884.047-1.101.913-1.536.85-1.973-.289-.308-.803-.023-1.72.633-2.036.657-.317.138-.377-1.152-.133-3.515.663-5.479-.324-4.057-2.038 1.431-1.724-.22-1.833-2.022-.133-1.06 1-1.417 1-1.783 0-.685-1.866-2.179-1.508-2.088.5.043.962-.097 2.391-.313 3.174-.27.984.923 1.698 3.859 2.309 2.338.487 4.25 1.26 4.25 1.719 0 1.492-2.956 2.015-5.632.998-2.104-.8-2.877-.648-3.954.778-1.169 1.547-1.285 1.202-.92-2.716.384-4.122.116-4.772-3.288-7.97-2.038-1.916-4.156-4.36-4.706-5.433-1.391-2.714-3.956-3.462-3.303-.963.275 1.052-.182 2.551-1.016 3.33-1.329 1.241-1.449 1.156-.965-.693.395-1.511.016-2.251-1.332-2.603-2.562-.67-2.374-2.548.366-3.649 1.724-.693 1.841-.919.5-.968-.963-.034-1.75-.471-1.75-.969 0-.499-.9-.671-2-.384-2.223.582-2.691 2.845-.75 3.628.688.277.211.54-1.059.583-1.27.043-2.06-.324-1.756-.816.305-.493-.148-1.165-1.006-1.494-1.217-.467-1.412-.133-.887 1.521.429 1.352.297 1.887-.366 1.477A1.22 1.22 0 0069.5 344c-.351.568-1.057.774-1.569.457-.512-.316-.931-.098-.931.484S66.33 346 65.511 346c-1.588 0-1.816 4.994-.278 6.075.45.316.149 2.116-.668 4-.818 1.884-1.504 2.836-1.526 2.116-.021-.72-.472-1.042-1.001-.715-.597.37-.616 1.503-.05 2.993.635 1.67.548 2.546-.288 2.885-.689.28-.49.522.467.567.916.043 1.846-.461 2.066-1.12.25-.751.644-.563 1.052.5.431 1.123.155 1.699-.816 1.699-.808 0-1.469.675-1.469 1.5s-.788 1.545-1.75 1.601c-.962.055-3.888.285-6.5.511-4.618.4-6.944-1.56-3.5-2.95.789-.318.645-.533-.393-.583-.904-.043-1.914-.785-2.245-1.648-.401-1.044-1.274-1.356-2.612-.931-1.359.431-2.213.108-2.638-.998-.86-2.243 1.07-3.961 3.321-2.955 3.338 1.491 5.317 1.259 5.317-.625 0-2.321-1.369-3.159-7.5-4.586-5.155-1.201-7.049-.912-4.471.682 1.273.787 1.241 1.14-.236 2.617-1.609 1.61-1.609 1.782 0 3.004 1.154.878 1.283 1.308.398 1.329-.72.018-1.043.462-.718.988.325.526 1.325.675 2.223.33 1.091-.418 1.392-.238.909.544-.398.644-2.061 1.17-3.695 1.17-1.635 0-3.213.625-3.506 1.389-.326.849-1.348 1.177-2.625.843-1.366-.357-1.856-.166-1.414.55.412.666-.089 1.039-1.274.95-1.074-.081-1.732-.504-1.463-.94.27-.435-.849-.792-2.486-.792-1.636 0-3.151.527-3.366 1.171-.228.686-2.137 1.104-4.601 1.007-4.062-.159-4.187-.074-3.557 2.436.607 2.417.499 2.519-1.511 1.443-1.189-.636-1.899-1.585-1.576-2.107.323-.523-.594-.95-2.038-.95-1.443 0-3.495-.466-4.559-1.035-1.364-.73-1.934-.713-1.934.059 0 .602-.419.835-.931.519-.512-.317-1.213-.118-1.559.441-.345.559.084 1.016.954 1.016 1.421 0 1.428.235.077 2.298-1.625 2.48-1.974 19.088-.381 18.103.462-.286.84-.069.84.481s-.45 1.278-1 1.618c-.646.4-1 19.51-1 54.059V500h76.941c50.215 0 77.156-.347 77.559-1 .34-.55.194-1-.324-1-1.469 0-2.245-4.339-.922-5.157 1.69-1.044 3.971 1.189 3.409 3.337-.293 1.123.063 1.82.931 1.82.773 0 1.406.45 1.406 1 0 .661 34.197.973 100.75.921 55.413-.043 100.188-.306 99.5-.583-1.687-.681-1.596-3.338.115-3.338.751 0 2.565-.944 4.031-2.097 2.091-1.645 2.97-1.844 4.076-.927 1.971 1.636.432 5.31-2.579 6.158-1.316.371 28.657.605 66.607.52l69-.154-.377-147c-.207-80.85-.297-149.997-.2-153.66.11-4.144-.26-6.93-.98-7.375-.845-.523-.791-.941.2-1.553 1.123-.694 1.417-17.137 1.705-95.376L501.196 0l-94.157.01-94.158.011.634 4.74c.896 6.696 1.277 7.533 3.105 6.831 1.179-.452 1.438-.186.98 1.008-.447 1.165-.196 1.459.889 1.043 1.894-.727 1.961 1.27.129 3.884-.759 1.085-1.503 2.423-1.653 2.973-.149.55-1.103.859-2.118.687-2.923-.495-2.147 1.513 1.01 2.613 1.571.548 3.104 1.942 3.406 3.098.634 2.425-.752 2.877-1.649.539-.33-.86-1.053-1.284-1.607-.941-.554.342-1.007.145-1.007-.437S314.55 25 314 25s-1 .702-1 1.559.419 1.3.931.984c.512-.317 1.213-.118 1.559.441.345.559.151 1.016-.431 1.016S314 29.955 314 31.122c0 1.774.247 1.918 1.5.878 1.778-1.476 2.035.065.3 1.8-.933.933-.767 1.203.75 1.215 1.625.013 1.7.177.45.985-1.272.822-1.225.972.309.985 1.111.009 1.534.461 1.096 1.17-.413.666-.278.884.319.516.589-.365 1.299.695 1.654 2.47.973 4.865.735 7.856-.628 7.894-.687.02-.125.679 1.25 1.465l2.5 1.429-2.75.036c-1.765.022-2.75-.49-2.75-1.43 0-2.365-3.758-3.752-8.156-3.009-4.935.834-11.204 5.988-10.51 8.642.263 1.007.071 1.832-.428 1.832-2.069 0-.699 1.835 1.844 2.469 2.589.645 3.997 1.206 12.81 5.107 1.959.866 3.807 2.216 4.107 3 .301.783 1.126 1.424 1.833 1.424 1.979 0 2.666 2.977 1.057 4.585-1.701 1.701-11.754 1.323-12.35-.464-.537-1.611-4.09-1.381-5.85.379-1.333 1.333-1.332 1.5.013 1.5 2.123 0 3.157 2.056 1.537 3.057-2.218 1.371-.665 1.782 3.593.953 3.404-.664 3.565-.797 1.083-.895-5.415-.214-1.772-1.311 4.482-1.35 4.732-.03 6.419.349 7.118 1.598.504.9 1.591 1.637 2.415 1.637.824 0 2.042 1.293 2.707 2.873 1.327 3.156 3.566 2.19 2.878-1.241-.237-1.179.035-1.615.737-1.181.612.378.811 1.176.442 1.773-.373.604-.211.801.366.444 1.842-1.138 6.783 3.48 5.086 4.753-.791.594-1.736 1.873-2.1 2.844-.365.971-1.833 2.21-3.264 2.754-1.43.544-3.274 1.662-4.097 2.485-1.97 1.97-6.494 2.028-5.744.073.372-.969-.036-1.312-1.282-1.076-1.005.19-2.502.387-3.327.438-1.333.081-1.333.199 0 1.061 1.282.828 1.246.972-.25.985-.962.008-1.75.465-1.75 1.015 0 .55.45 1 1 1s1 .45 1 1-.886 1-1.969 1c-1.221 0-1.776.502-1.461 1.322.513 1.338-3.378 3.678-6.117 3.678-.799 0-1.453.413-1.453.919 0 .505-2.25 1.935-5 3.178-2.75 1.243-5 2.557-5 2.921 0 .639-4.775 3.265-6.2 3.411-.385.039-1.263.634-1.95 1.321-2.158 2.158-3.083 1.375-2.66-2.25.325-2.782.061-3.5-1.284-3.5-.931 0-1.93-.619-2.22-1.376-.342-.89-1.472-1.196-3.199-.866-1.662.317-2.224.787-1.487 1.242.741.458.214.917-1.408 1.227-3.239.619-3.256-.145-.087-3.821 1.378-1.599 2.314-3.413 2.079-4.032-.234-.619.214-2.358.995-3.864.782-1.506 1.421-3.328 1.421-4.048 0-.72 1.125-2.646 2.5-4.28 1.375-1.634 2.5-3.468 2.5-4.076 0-.608.45-1.106 1-1.106 2.393 0 .729-2.011-1.75-2.116-1.692-.071-2.077-.292-1-.573.963-.252 1.75-.861 1.75-1.353s-.562-.684-1.25-.426c-.687.258-1.77-.656-2.406-2.032-.636-1.375-.801-2.5-.367-2.5.435 0 1.025-.9 1.313-2 .402-1.538.025-2.007-1.634-2.032-2.143-.031-2.143-.042-.156-1.615 1.374-1.087 1.612-1.728.759-2.048-.937-.352-.876-.831.25-1.957.82-.82 1.491-2.719 1.491-4.22 0-4.502 2.189-8.111 4.925-8.12 2.389-.008 2.396-.036.5-1.882-1.175-1.143-2.351-1.537-3.017-1.009-.601.476-1.388.57-1.75.208-.362-.362-.658-.078-.658.631 0 1.032-.299 1.041-1.5.044-.825-.685-1.514-.852-1.53-.372-.017.479-.489.084-1.05-.878-1.388-2.382-4.239-2.329-3.479.065.425 1.338-.279 2.24-2.682 3.436-2.651 1.318-2.865 1.633-1.148 1.685 1.703.052 2.019.548 1.634 2.564-.263 1.375-.902 2.5-1.421 2.5-.518 0-.664-.45-.324-1s-.072-1-.916-1c-1.176 0-1.407.759-.989 3.25l.545 3.25-2.529-2.965c-2.147-2.517-3.14-2.921-6.57-2.674-2.399.173-4.041-.145-4.041-.785 0-.592-.675-1.076-1.5-1.076-1.96 0-1.909-2.446.115-5.535 1.027-1.568 2.556-2.465 4.2-2.465 2.011 0 2.318-.267 1.385-1.2-.66-.66-1.2-2.026-1.2-3.035 0-1.525-.338-1.655-2-.765-1.118.598-2 .663-2 .146 0-.508-1.588-1.221-3.528-1.585-1.94-.364-3.281-1.062-2.979-1.55.302-.488-.248-1.334-1.222-1.879-.974-.545-1.662-1.356-1.53-1.801.133-.446-.542-.815-1.5-.82-2.077-.013-1.842-3.053.411-5.306 2.002-2.002-.225-3.488-2.809-1.875-1.673 1.045-1.687 1.198-.162 1.733 1.532.538 1.524.644-.097 1.266-1.265.486-1.918.108-2.293-1.325-.561-2.146-2.46-2.847-2.041-.754.309 1.545-12.48 1.993-16.229.568-1.702-.647-2.596-.593-2.851.173-.222.666-.891.405-1.663-.65-1.088-1.489-1.541-1.558-2.886-.441-.878.728-2.276 1.063-3.108.743-.838-.321-1.52-.036-1.528.638-.011.828-.299.771-.9-.178-.629-.994-1.983-1.219-4.689-.78-2.774.45-4.291.177-5.6-1.008-1.56-1.411-1.796-1.425-1.796-.106 0 1.624-7.084 4.791-10.716 4.791-1.237 0-2.406-.811-2.756-1.911-.333-1.05-1.78-2.679-3.215-3.62-2.543-1.666-2.595-1.656-2.055.41.305 1.165.096 2.402-.464 2.748-1.58.977-2.714-1.708-1.77-4.191.467-1.227.611-2.468.321-2.758-1.496-1.495.906-4.531 3.45-4.36 2.11.142 2.773-.312 3.024-2.068.199-1.403-.2-2.25-1.062-2.25-.761 0-2.626-1.297-4.145-2.883-3.841-4.009-10.569-4.345-9.833-.492.361 1.889-.012 2.623-1.535 3.021-1.386.363-1.858 1.116-1.516 2.422.354 1.354-.224 2.17-2.019 2.852-2.474.941-4.036 2.612-4.28 4.58-.069.55-.193 2.264-.277 3.809-.086 1.589-.586 2.541-1.152 2.191-.55-.34-1 .132-1 1.049 0 1.267.584 1.521 2.432 1.057 1.798-.451 2.559-.153 2.921 1.142.268.964.779 2.764 1.135 4.002.574 1.997.289 2.25-2.528 2.25-3.303 0-3.26.177-1.19-4.924.386-.952.096-1.238-.879-.864-1.773.68-6.086-2.616-5.778-4.416.338-1.977-1.251-9.141-2.329-10.502-.526-.664-.666-1.676-.311-2.25.355-.574.228-1.044-.283-1.044-.51 0-.77-1.35-.578-3 .259-2.231-.062-3-1.254-3-1.246 0-1.349-.306-.463-1.373.867-1.045 1.005-10.883.187-13.377C145.037.112 112.371 0 72.491 0H-.017l.04 82m.444-25.5c0 30.8.127 43.544.282 28.321.155-15.223.156-40.423 0-56C.594 13.244.467 25.7.467 56.5m404.966-38.392c-.419.679-2.144.874-4.454.505-2.837-.454-3.912-.23-4.347.904-.462 1.203-.028 1.374 2.145.846 2.693-.655 2.702-.639.879 1.42-1.746 1.971-4.656 2.04-4.656.11 0-.491-.702-.893-1.559-.893s-1.281.45-.941 1c.565.914-5.466 1.645-8 .971-1.01-.269-4.888-.318-7.317-.093-.849.079-1.092.834-.683 2.122.495 1.56.18 2-1.433 2-1.137 0-2.067.482-2.067 1.071 0 .59-.729.343-1.619-.547-2.031-2.031-2.338-1.721-1.682 1.694.287 1.494 1.372 2.987 2.411 3.317 1.04.33 1.89 1.244 1.89 2.032 0 1.878 2.419 1.837 4-.067 2.179-2.626 5.806-1.934 5.245 1-.344 1.797-.042 2.5 1.072 2.5.935 0 1.676-1.061 1.867-2.673.174-1.47.843-2.846 1.487-3.057.737-.241.977.359.649 1.616-.425 1.622-.08 1.952 1.828 1.749 1.294-.138 2.352-.461 2.352-.718 0-.974 3.031-3.688 3.681-3.296.374.227.963-.046 1.309-.605 1.492-2.413 3.675-1.044 3.028 1.9-.873 3.977 1.227 7.482 3.263 5.446.786-.786 2.244-1.171 3.24-.855 2.141.679 3.791-1.387 1.994-2.498-.966-.597-.939-.887.122-1.309.968-.385 1.001-.565.113-.621-.687-.043-1.214-.867-1.171-1.829.048-1.076.276-1.261.59-.481.364.904 1.197.617 2.903-1 2.328-2.207 3.432-5.508 1.428-4.269-.858.53-1.234-.775-.91-3.16.049-.363-.607-1.05-1.459-1.527-.851-.476-1.293-1.529-.982-2.339.676-1.764-3.146-2.096-4.216-.366m-84.004 11.88c0 1.107.342 2.012.76 2.012.419 0 .489 1.362.156 3.027-.422 2.107-.091 3.597 1.089 4.9 2.135 2.359 2.827 14.669.932 16.564-.998.998-.355 2.208 3.206 6.032 4.862 5.221 6.273 5.338 4.544.379-1.475-4.229-1.409-5.466.383-7.258 1.333-1.333 1.222-1.719-1-3.466-3.139-2.469-3.139-3.003 0-2.822 1.375.079 2.5.481 2.5.894.002 1.644 1.801.621 2.307-1.311.655-2.507-1.693-3.693-3.819-1.928-1.18.979-1.487.978-1.487-.005 0-.783-.921-1.063-2.5-.761-2.941.562-3.167-.006-.75-1.885 1.655-1.286 1.641-1.445-.25-2.918-1.874-1.459-1.89-1.62-.25-2.549 2.208-1.252 2.248-2.649.089-3.07-.914-.178-2.183-1.871-2.819-3.763-1.313-3.9-3.091-5.092-3.091-2.072m65.898 7.732c.585.947-.796 1.815-6.577 4.134-3.003 1.205-3.364 2.704-1.589 6.599 1.214 2.666 2.318 3.199 3.308 1.596.324-.522 2.15-.75 4.059-.506 3.156.404 4.953-.883 2.415-1.729-1.201-.4-.187-3.814 1.133-3.814.473 0 .609.657.301 1.46-.405 1.056.018 1.349 1.531 1.058 1.379-.266 2.092.113 2.092 1.111 0 1.328.193 1.32 1.571-.058.865-.864 2.215-1.571 3-1.571 2.332 0 1.627-1.974-1.071-3-1.375-.523-2.5-1.368-2.5-1.877 0-.51-1.462-1.505-3.25-2.21-1.788-.706-3.65-1.483-4.139-1.728-.489-.244-.617-.004-.284.535M197.638 47.5c-.316.825-1.602 1.514-2.857 1.532-2.221.031-2.23.07-.34 1.5 1.068.807 1.518 1.482 1 1.498-.517.017-.151.491.816 1.054 1.354.789 1.526 1.453.75 2.904-1.411 2.636-1.288 2.898 1.074 2.281 1.46-.382 1.931-1.117 1.578-2.464-.314-1.2-.063-1.757.67-1.487.644.238 1.058.938.921 1.557-.251 1.13 1.114 1.427 5.75 1.252 2.284-.086 2.327-.016.5.819-1.918.876-1.907.916.25.984 1.238.038 2.25-.38 2.25-.93s.927-1 2.059-1c1.132 0 1.781.45 1.441 1-.34.55.084 1 .941 1s1.559-.398 1.559-.883c0-.486.9-1.119 2-1.407 1.1-.287 2-.973 2-1.523 0-.55-.797-.791-1.771-.537-.978.256-3.586-.851-5.819-2.468-3.55-2.572-7.493-4.479-9.577-4.633-.366-.027-1.004-.386-1.416-.799-1.235-1.234-3.164-.851-3.779.75m139.773 3c-.345 1.375-1.029 2.5-1.519 2.5-.491 0-.892.675-.892 1.5s-.45 1.5-1 1.5-1 .436-1 .969c0 .532.616.732 1.369.443.826-.317 1.595.341 1.94 1.661.384 1.471 1.082 1.991 2.131 1.588 1.733-.665 2.222 1.812.56 2.839-.55.34-1 .141-1-.441 0-1.903-1.475-1.098-2.656 1.449-.636 1.371-.79 2.492-.344 2.492.447 0 .577.902.288 2.005-.827 3.164 1.124 4.604 5.654 4.172 4.368-.417 5.984-3.86 2.268-4.832-1.861-.487-2.462-5.617-.939-8.01.408-.64.221-1.338-.415-1.55-.636-.212-1.235-1.825-1.331-3.585-.343-6.271-.537-7.2-1.506-7.2-.539 0-1.263 1.125-1.608 2.5M219.55 59.731c-.366.952-.236 1.874.287 2.048 1.43.477.078 4.539-2.007 6.028-2.456 1.753-2.323 4.193.229 4.193 1.317 0 1.799.421 1.336 1.17-.5.808-.156.952 1.111.466 1.089-.418 2.202-.182 2.74.58.722 1.023 1.01 1.028 1.416.028.28-.691.9-1.015 1.377-.72.478.296 2.036.244 3.461-.113 2.433-.611 2.492-.763.952-2.464-.965-1.066-2.321-1.557-3.296-1.192-1.441.539-1.477.4-.284-1.068.755-.928 2.416-1.687 3.691-1.687 1.276 0 2.62-.486 2.987-1.081.368-.595 1.744-.811 3.059-.481 1.315.33 2.391.168 2.391-.36 0-1.657-1.489-1.983-5.221-1.141-3.082.695-3.683.54-4.101-1.061-.27-1.032-1.009-1.876-1.643-1.876-.634 0-.875.45-.535 1 .369.597-.715.953-2.691.884-1.82-.064-2.522-.322-1.559-.573.963-.252 1.75-1.148 1.75-1.991 0-.953-.568-1.316-1.5-.958-.825.316-1.5.139-1.5-.393 0-1.623-1.743-1.081-2.45.762m250.7 1.519c.158.79-.629 1.126-2.138.914-1.313-.185-2.7.17-3.083.789-.506.818-1.467.831-3.529.047-2.169-.825-3.026-.775-3.652.211-1.097 1.729-1.07 4.044.038 3.359.488-.301 1.163.46 1.5 1.691.471 1.718.818 1.923 1.489.882 1.817-2.818 2.177.794.799 8.012-.588 3.079.821 3.751 6.464 3.083 3.062-.362 3.617-.797 3.5-2.738-.076-1.27-.428-2.129-.783-1.91-.355.219-.903-.274-1.219-1.096-.315-.822-1.487-1.494-2.605-1.494-1.117 0-2.031-.45-2.031-1 0-1.072 1.174-1.329 4.75-1.039 1.668.135 2.25-.354 2.25-1.889 0-1.14.563-2.086 1.25-2.104.744-.019.517-.588-.56-1.404-1.785-1.353-.693-3.302 1.196-2.134.488.301 1.121-.347 1.407-1.441.568-2.174-.77-2.752-1.71-.739-.466 1-.7 1-1.166 0-.321-.687-.996-1.25-1.5-1.25s-.804.563-.667 1.25m-60.654 2.487c-.405.406-1.44.743-2.299.75-3.24.027-3.486 4.364-.34 5.991 2.224 1.15 3.005 1.209 3.402.257.361-.865.984-.653 2.078.706.86 1.068 1.563 1.405 1.563.75s.4-1.191.889-1.191.826.739.75 1.642c-.231 2.735 1.972 2.6 3.829-.234 2.31-3.525 3.071-8.367 1.342-8.536-.72-.07-2.435-.245-3.81-.39-1.375-.144-3.062.193-3.75.75-.859.696-1.25.662-1.25-.11 0-1.275-1.304-1.484-2.404-.385M436 68.094c0 1.252.803 2.303 2 2.616 2.529.662 2.616 2.29.122 2.29-1.032 0-2.454.695-3.16 1.546-.705.85-1.891 1.312-2.635 1.026-.981-.376-1.194.108-.779 1.763.315 1.256.703 2.931.861 3.724.669 3.34 1.932 4.941 3.898 4.941 1.628 0 1.826-.267.893-1.2-.66-.66-1.2-1.635-1.2-2.167 0-.531.301-.665.669-.297.368.367 1.54-.12 2.605-1.084 1.065-.964 2.114-1.64 2.331-1.502.217.138.732.218 1.145.18.413-.039-.15-.457-1.25-.93-1.676-.72-1.474-.871 1.25-.93 2.14-.046 3.25-.565 3.25-1.52 0-.798.788-1.909 1.75-2.47.971-.566 1.194-1.033.5-1.05-.687-.016-1.25-.791-1.25-1.721 0-1.525-.131-1.512-1.329.126-1.102 1.507-1.701 1.619-3.5.656-2.723-1.457-2.828-2.434-.171-1.591 2.499.793 2.587-.659.171-2.845-2.666-2.413-6.171-2.164-6.171.439m-274.49 4.922c1.505 2.435 1.51 5.984.01 5.984-.836 0-1.52.45-1.52 1s.9 1 2 1 2 .459 2 1.019c0 .589-1.06.753-2.511.389-2.033-.51-2.394-.323-1.893.981.725 1.891-.676 2.131-2.396.411-.933-.933-1.2-.746-1.2.845 0 2.723 3.051 5.355 6.206 5.355 3.159 0 4.34-1.426 5.219-6.303.377-2.091 1.325-4.048 2.107-4.348 1.01-.387.242-1.531-2.65-3.947-3.919-3.275-6.679-4.5-5.372-2.386m56.772 6.528c-.639.683-.889 1.516-.555 1.849.333.334.081.607-.56.607-.642 0-1.167-.375-1.167-.833 0-.999-3.04-.878-4.768.189-.677.419-1.732.453-2.344.075-1.825-1.128-2.714 1.57-1.541 4.676 1.112 2.947 3.745 4.481 6.903 4.022.963-.14 1.75.272 1.75.915 0 .647-.694.904-1.552.574-.854-.327-1.301-.189-.994.308.307.497-.007 1.11-.698 1.364-.982.36-.993.739-.048 1.743.946 1.005 1.521 1.021 2.661.076.909-.755 1.679-.84 2.058-.227.333.539.126 1.276-.459 1.638-.736.455-.691 1.109.148 2.12.993 1.197.806 1.568-1.036 2.049-1.688.442-1.916.799-.915 1.434 2.016 1.278 2.64 1.068 3.335-1.123.741-2.335 2.5-2.687 2.5-.5 0 .825.45 1.5 1 1.5s1-.423 1-.941-.45-1.219-1-1.559c-.55-.34-1-1.052-1-1.582s1.083-.254 2.407.613c1.467.961 2.645 1.194 3.015.595.334-.54-.405-1.303-1.641-1.696l-2.248-.713 2.483-1.046 2.484-1.047-2.75-.378c-2.205-.304-2.75-.899-2.75-3.004 0-2.472-.08-2.515-1.375-.744-1.298 1.776-1.375 1.738-1.375-.677 0-1.742.518-2.519 1.625-2.439 1.264.092 1.551-.638 1.29-3.288-.417-4.246-2.208-6.344-3.883-4.55m159.706.479c-.562 1.05-.358 2.637.568 4.422 1.846 3.558 1.831 5.469-.05 6.191-.822.316-1.202 1.047-.844 1.626.408.661-.113.853-1.4.517-3.193-.835-4.899 3.602-1.936 5.034l2.174 1.052-2.167.067c-1.191.038-2.393.631-2.671 1.318-.277.688-.547.35-.598-.75-.077-1.633-.266-1.73-1.027-.526-.61.965-.532 1.72.226 2.189.819.506.6 1.331-.747 2.819-1.878 2.076-1.875 2.111.29 2.678 2.476.647 2.544.812 1.301 3.156-.602 1.133-.434 2.11.511 2.985 1.439 1.33 1.543 1.206 2.924-3.493.388-1.319 4.342-1.413 6.046-.143.598.445 1.145 2.344 1.215 4.22.071 1.875.197 3.793.281 4.262.649 3.622-1.375 5.511-3.209 2.996-.344-.471-.952-.328-1.351.318-.444.718.086 1.386 1.364 1.72 1.149.301 1.843.945 1.542 1.433-.497.804.912 1.306 2.82 1.004 1.088-.171.923 1.654-.185 2.049-.514.183.611 2.014 2.5 4.068 1.889 2.055 3.449 3.18 3.467 2.5.017-.685.678-.381 1.483.683 1.297 1.714 1.239 2.066-.548 3.318-1.81 1.268-1.868 1.654-.61 4.082.764 1.475 2.143 4.431 3.065 6.568l1.676 3.886 1.99-2.136c2.067-2.218 4.912-2.877 4.912-1.136 0 .55-.62 1-1.378 1-4.029 0-4.458 6.448-.646 9.712 1.057.904 1.725 1.963 1.484 2.353-.563.91 5.165 13.585 6.517 14.421.562.347 1.023 1.646 1.023 2.884 0 1.239.822 3.135 1.826 4.213 1.005 1.078 1.649 2.492 1.432 3.142-.216.65.749 2.863 2.146 4.918 1.649 2.428 2.343 4.518 1.98 5.965-.402 1.601.031 2.544 1.541 3.352 1.679.898 1.897 1.505 1.085 3.021-1.407 2.629.702 3.792 2.482 1.369 1.277-1.738 1.53-1.751 4.184-.215 2.057 1.19 3.486 1.384 5.259.714 1.339-.507 3.012-.7 3.718-.429 1.623.623 2.009-.034 2.743-4.67.373-2.359.198-3.75-.473-3.75-1.988 0-4.07-2.961-3.452-4.909.482-1.52-.007-2.05-2.375-2.57-2.197-.482-2.821-1.075-2.369-2.252.389-1.014.211-1.349-.488-.917-.605.374-1.354.27-1.664-.231-.641-1.038 1.661-2.121 4.507-2.121 1.251 0 1.918-.695 1.918-2 0-1.1-.337-1.947-.75-1.882-2.095.331-3.25-.277-3.25-1.71 0-.876-.906-2.745-2.014-4.153-1.108-1.408-1.758-2.816-1.446-3.129.313-.312.987.094 1.499.903.735 1.162.934.998.946-.779.016-2.415 1.523-3.056 2.353-1 .277.688.54-.018.583-1.567.064-2.293-.262-2.709-1.754-2.236-1.273.404-1.834.077-1.834-1.07 0-.908.825-1.867 1.834-2.131 1.008-.264 1.833-.877 1.833-1.363 0-.485.788-.876 1.75-.868 1.401.013 1.471.192.354.899-.919.583-1.122 1.516-.595 2.735.744 1.719.83 1.726 1.219.101.23-.962.862-1.75 1.404-1.75.542 0 .708.45.368 1-.34.55.084 1 .941 1 1.532 0 1.953-1.029 1.636-4-.143-1.333-.034-1.333.976 0 .969 1.28 1.053 1.244.573-.25-.44-1.366.033-1.765 2.155-1.82 2.419-.063 2.498-.165.719-.93l-2-.859 2-.073c2.193-.08 3.258-6.068 1.079-6.068-.624 0-1.962-.966-2.973-2.147-1.8-2.103-1.795-2.136.277-1.594 1.163.304 2.367.145 2.675-.353.308-.498-.367-.906-1.499-.906-1.132 0-2.066-.562-2.074-1.25-.011-.847-.316-.775-.946.221-.512.809-1.225 1.177-1.585.817-1.036-1.037.491-2.788 2.432-2.788 1.389 0 1.675-.633 1.334-2.954-.372-2.538-.051-3.05 2.281-3.635 1.823-.458 2.99-.235 3.555.68.645 1.043 1.04.823 1.692-.939.468-1.265 1.279-2.267 1.802-2.226a.869.869 0 00.95-.876c0-.522.563-1.513 1.25-2.2 1-1 1.25-.92 1.25.398 0 1.776 5.326.652 6.588-1.39.932-1.508-2.322-5.67-4.813-6.158-2.249-.441-2.251-.454-.165-1.153 1.369-.459 2.05-1.468 1.942-2.877-.093-1.193.305-2.797.882-3.564.841-1.116.636-1.263-1.027-.735-1.769.561-2.281.026-3.45-3.606-.755-2.346-1.842-4.629-2.415-5.074-.573-.445.871-.658 3.208-.474 2.337.185 4.25-.062 4.25-.548 0-.485.661-.629 1.468-.32.807.31 1.734.133 2.059-.393.325-.526.028-.956-.659-.956-.688 0-.382-.635.68-1.411 1.061-.777 2.221-1.232 2.578-1.011.356.22 1.203-.27 1.883-1.089 1.04-1.254.826-1.489-1.355-1.489-1.569 0-2.471-.493-2.287-1.25.168-.687.116-.912-.114-.5-.757 1.353-2.01.786-2.513-1.135-.368-1.409-1.138-1.762-3.05-1.396-2.241.428-2.502.198-2.112-1.865.244-1.295.177-1.791-.15-1.104-.327.688-1.543 1.25-2.702 1.25-2.069 0-2.072.028-.167 1.468 1.067.808 1.468 1.483.891 1.5-.578.018-1.571-.489-2.208-1.126-.876-.876-1.571-.816-2.862.25-1.237 1.022-1.814 1.086-2.101.233-.294-.875-1.241-.821-3.71.211-1.823.761-3.566 1.134-3.873.827-.854-.855.371-3.359 1.661-3.395 2.577-.072 5.232-2.985 3.638-3.992-1.274-.806-1.281-.948-.045-.961 1.068-.011 1.156-.309.333-1.132-.822-.822-1.695-.577-3.309.927-1.239 1.154-2.874 1.782-3.757 1.443-1.154-.443-1.396-.161-.922 1.073.353.921.206 1.674-.326 1.674-.533 0-.969.675-.969 1.5 0 .933-.944 1.5-2.5 1.5s-2.5.567-2.5 1.5c0 .825-.439 1.5-.975 1.5-.632 0-.63.91.007 2.584 1.156 3.041.475 4.578-1.857 4.193-1.173-.194-1.573.306-1.336 1.669.29 1.669.114 1.76-1.239.637-.868-.72-1.365-1.654-1.105-2.075.26-.42-.953-1.05-2.696-1.398-1.742-.349-3.964-1.354-4.937-2.234-.972-.881-3.027-1.722-4.565-1.869-1.538-.148-3.472-.509-4.297-.804-.825-.295-2.756-.812-4.291-1.149-1.535-.337-2.521-1.049-2.191-1.583.33-.534.075-.971-.566-.971-.641 0-.918.646-.615 1.435.303.79.1 1.586-.45 1.769-1.333.445 0 3.796 1.509 3.796.651 0 1.165 1.237 1.143 2.75-.03 2.105.488 2.825 2.211 3.07 1.238.175 2.25-.162 2.25-.75 0-.589.45-1.07 1-1.07s1 .675 1 1.5.563 1.514 1.25 1.532c.776.02.599.526-.465 1.335-1.049.796-1.357 1.661-.792 2.226.508.508.589 1.466.18 2.128-1.014 1.64-5.439.416-4.773-1.32.744-1.939-.967-2.627-2.36-.949-1.382 1.666-4.04.969-4.04-1.059 0-.766-.45-1.393-1-1.393-1.366 0-1.262 2.338.167 3.767.89.89.765 1.322-.525 1.817-1.156.444-1.386 1.02-.725 1.816 1.967 2.37-3.035 5.638-6.917 4.519-1.375-.396-1.937-.764-1.25-.819.688-.055 1.25-.913 1.25-1.906 0-.993 1.136-3.346 2.525-5.228 2.227-3.018 2.328-3.491.857-4.007-1.371-.481-.982-1.251 2.189-4.331 3.136-3.046 3.583-3.919 2.393-4.671-1.149-.727-1.173-.93-.109-.942 1.652-.018-2.791-4.972-4.483-4.998-2.025-.031-3.372-2.647-3.537-6.871-.09-2.28-.464-4.146-.832-4.146-1.475 0-1.829 1.326-.964 3.603 1.869 4.917-2.215 1.144-4.301-3.972-.643-1.578-.383-1.796 1.674-1.403 1.732.331 2.567-.04 2.893-1.286.647-2.473-6.036-3.312-7.317-.919M342.5 99.178c-2.818 1.574-2.714 1.406-3.138 5.032-.267 2.275.14 3.676 1.317 4.54 1.187.871 1.295 1.25.357 1.25-.978 0-.855.542.447 1.981 1.499 1.656 1.578 2.24.485 3.557-1.17 1.41-1.553 1.31-3.646-.947-1.499-1.616-2.933-2.294-3.994-1.886-1.112.426-1.418.25-.933-.535.398-.644 1.446-1.17 2.331-1.17.884 0 1.311-.296.949-.658-.362-.362-.192-1.219.377-1.904.569-.686.743-2.406.388-3.822-.553-2.201-.934-2.422-2.619-1.52-3.254 1.741-5.852 4.726-4.508 5.179.894.301.869.785-.101 1.961-1.037 1.257-1.845 1.352-4.136.487-2.54-.959-3.399-.679-7.964 2.601-2.814 2.022-5.419 3.676-5.789 3.676-.765 0-15.108 6.675-23.254 10.822-2.987 1.521-5.633 3.371-5.88 4.111-.247.74.009 1.063.568.717 1.263-.781 3.631 1.914 2.826 3.216-.989 1.6.482 4.046 2.067 3.438 2.589-.993 6.556 1.837 6.079 4.336-.323 1.686.15 2.364 1.964 2.819 1.314.33 2.119 1.036 1.789 1.57-.766 1.239 2.997 1.266 5.282.037 2.782-1.496 10.749-3.066 15.557-3.066 3.972 0 4.565.309 5.662 2.958 1.628 3.931 1.448 12.686-.374 18.141-1.424 4.264-8.718 33.812-10.096 40.901-3.683 18.936-7.822 30.796-13.368 38.304-4.621 6.255-4.935 7.081-2.381 6.271 2.155-.684 4.321 2.384 3.608 5.11-.369 1.413-1.392 1.915-3.903 1.915-1.871 0-3.691.289-4.045.643-1.063 1.063 1.94 6.738 3.894 7.358 1.76.558 1.76.622.001 1.927-1.537 1.141-1.625 1.668-.569 3.398.688 1.126 1.25 2.728 1.25 3.56 0 .869.959 1.563 2.25 1.63 1.693.087 1.817.229.5.573-.962.252-1.75 1.126-1.75 1.943 0 .817.45 1.208 1 .868.943-.583 1.614 4.065 1.083 7.5-.232 1.499-.241 3.054-.052 8.275.216 5.929-8.972 14.649-10.697 10.153-.505-1.316-.846-1.322-2.787-.051-1.218.798-2.773 1.101-3.463.675-.907-.561-.733-.911.63-1.267 2.56-.67 2.579-6.351.02-6.146-.954.076-1.734-.409-1.734-1.08 0-.67-.882-1.182-1.959-1.138-1.078.043-1.957-.371-1.955-.921.003-.55.997-.874 2.209-.719 2.069.263 2.095.193.418-1.138-1.703-1.351-1.705-1.591-.06-5.041 2.178-4.568.414-7.57-2.231-3.795-.857 1.225-2.039 1.93-2.626 1.567-.656-.405-.147-1.369 1.318-2.495 2.226-1.711 2.252-1.837.386-1.872-1.66-.031-1.745-.203-.5-1.007 1.178-.761 1.206-.973.128-.985-1.107-.012-1.132-.306-.128-1.515.993-1.197.993-1.803 0-3-1.023-1.232-.945-1.5.437-1.5 1.016 0 1.399-.457.968-1.155-.48-.776-.254-.887.69-.339.773.448 1.087.462.698.03-.39-.431.245-1.556 1.409-2.498 2.327-1.885 1.729-4.038-1.122-4.038-2.577 0-1.517-4.667 1.509-6.65 2.79-1.828 3.975-4.965 2.533-6.703-.768-.925.14-2.695 3.438-6.702 10.012-12.167 15.279-23.702 18.922-41.445 4.443-21.637 7.386-34.747 8.981-40.005 2.084-6.869 1.972-7.495-1.337-7.495-4.334 0-17.126 4.711-17.126 6.307 0 .45-.788.689-1.75.531-.962-.159-2.312.065-3 .496-.707.443-1.25.324-1.25-.275 0-.582-.48-1.059-1.067-1.059-.597 0-.8.845-.459 1.917.5 1.578.227 1.817-1.546 1.354-1.88-.492-2.022-.315-1.111 1.387.647 1.208.696 2.5.129 3.396-2.254 3.561-.728 4.127 2.554.946 2.216-2.148 3.5-2.852 3.5-1.918 0 1.642-2.563 4.119-5.544 5.36-1.723.716-1.574.919 1.245 1.702 3.71 1.029 4.921 2.403 2.825 3.208-.804.308-1.728.13-2.053-.396-.325-.526-1.07-.956-1.654-.956-.694 0-.651.497.123 1.43 1.251 1.508-2.361 4.484-3.753 3.092-.352-.351-1.15.85-1.774 2.669-.832 2.428-1.637 3.216-3.024 2.959-2.049-.379-3.532-2.113-2.809-3.283.248-.401.04-.982-.461-1.292-1.64-1.014-2.075 2.328-.507 3.896 1.366 1.366 1.366 1.529.007 1.529-.837 0-1.98-.787-2.541-1.75-.935-1.605-1.022-1.61-1.05-.059-.016.93.42 1.969.97 2.309.55.34 1 .993 1 1.452 0 1.213-3.237 2.265-3.92 1.274-1.305-1.894-5.678-4.226-7.925-4.226-3.582 0-1.011 2.617 3.381 3.441 2.294.43 3.464 1.208 3.464 2.304 0 1.287-.267 1.388-1.2.455-1.389-1.389-3.181-1.626-2.37-.313.301.487-.122 1.442-.941 2.122-1.114.925-1.489.939-1.489.054 0-.649-.43-.915-.956-.59-.526.325-.703 1.252-.393 2.059.626 1.633-1.182 2.036-2.145.478-.631-1.021-1.809-.292-5.567 3.443-1.652 1.641-1.734 2.082-.513 2.766.799.447 1.279 1.719 1.065 2.827-.318 1.651.08 1.963 2.206 1.734 1.441-.156 2.794.295 3.046 1.014.318.909-.245 1.129-1.895.74-3.188-.752-5.794.92-4.09 2.624.683.683 1.242 2.181 1.242 3.329 0 1.404.688 2.139 2.1 2.246 1.155.087 2.702.97 3.439 1.962 1.134 1.528 1.655 1.612 3.4.547 1.727-1.055 2.061-1.014 2.061.25 0 2.157 1.741 1.861 3.011-.513 1.291-2.411.502-4.113-1.543-3.328-.886.34-1.468-.028-1.468-.927 0-.82.973-1.745 2.162-2.056 2.273-.595 6.196.935 5.469 2.132-.234.385 1.322 1.799 3.458 3.142 6.993 4.398 6.89 9.982-.455 24.604-5.682 11.312-9.597 21.794-8.593 23.004.708.853.483 1.346-.77 1.685-.974.264-3.121 3.344-4.771 6.846-1.65 3.501-6.979 14.253-11.843 23.892-13.169 26.102-14.492 31.104-7.758 29.343 2.131-.557 2.199-.446.958 1.542-.736 1.178-2.13 2.142-3.098 2.142-.967 0-1.759.502-1.759 1.117 0 .624.882.886 2 .593 2.108-.551 2.852.839.813 1.519-.696.232.169 1.692 2.092 3.53 1.804 1.723 2.986 3.608 2.628 4.187-.937 1.516 1.078 1.3 2.663-.285.737-.737 2.007-1.601 2.822-1.921 1.168-.459 1.111-.599-.268-.661-.963-.043-1.75-.556-1.75-1.138 0-.582.403-.81.895-.506.493.305 1.157-.129 1.478-.963.719-1.874 4.627.14 4.627 2.385 0 .833.691 1.181 1.75.882.962-.273 2.425-.663 3.25-.867.825-.205 1.998-1.22 2.607-2.257.689-1.172 1.357-1.482 1.767-.819.362.586.201 1.348-.358 1.694-2.226 1.376-.832 3.483 2.984 4.51 4.07 1.096 5.643 4 2.167 4-2.675 0-3.279 1.031-1.592 2.718 1.132 1.132 1.806 1.21 2.864.333.902-.749 1.599-.799 2.004-.143.342.552 1.282.751 2.089.441.807-.309 1.468-.065 1.468.544s.337 1.054.75.989c2.26-.357 4.288.248 3.75 1.118-.34.55-.111 1 .508 1 .671 0 .87-.808.494-1.994-.481-1.517-.266-1.853.901-1.405.844.324 1.435 1.109 1.315 1.744-.151.8 2.395 1.155 8.282 1.155 4.675 0 9.022.339 9.66.753 1.964 1.276 4.595-.241 3.243-1.87-.631-.761-1.72-1.383-2.418-1.383-1.078 0-3.065-3.014-2.259-3.426.151-.077 1.033-.719 1.96-1.426 2.122-1.619 6.264.236 5.423 2.429-.362.943.139 1.423 1.488 1.423 1.119 0 2.905.466 3.969 1.035 2.148 1.15 2.597.028.734-1.835-.933-.933-.835-1.2.441-1.2.903 0 1.932.471 2.287 1.046.792 1.281 5 .772 8.794-1.066 2.352-1.139 2.959-1.144 3.648-.028.638 1.032.938.905 1.313-.557.424-1.658.949 1.868.632 4.243-.047.351.452.971 1.108 1.377.657.405 1.429 2.818 1.716 5.361.729 6.47 2.793 5.978 2.639-.629-.067-2.886-.238-5.472-.38-5.747-.142-.275-.326-1.643-.41-3.039-.083-1.397-1.15-3.941-2.37-5.655-2.708-3.803-2.714-3.943-.218-4.596 2.64-.69 2.536-2.146-.25-3.49-1.5-.723-1.73-1.107-.691-1.152.857-.038 2.432.593 3.5 1.4 1.067.808 1.491 1.49.941 1.516-.55.025-.325.49.5 1.031 1.333.876 1.333 1.094 0 1.97-1.248.819-1.164.99.5 1.015 1.688.026 1.766.196.5 1.094-1.172.83-.9.967 1.25.623 1.512-.242 2.75-.052 2.75.422 0 .473-.788.868-1.75.876-1.298.011-1.104.356.75 1.339 2.651 1.404 5.161.996 2.857-.464-.999-.632-1.027-.863-.107-.875.689-.008 1.257-1.248 1.265-2.765.012-2.138.23-2.416.98-1.25.633.986.961-6.855.954-22.861-.006-15.97.362-24.809 1.069-25.661.745-.897.756-1.5.036-1.945-1.52-.939-.812-7.83.946-9.212 1.321-1.038 1.302-1.255-.163-1.823-1.501-.582-1.656-3.517-1.588-30.113.042-16.207.433-29.688.87-29.958.436-.27.572-1.069.301-1.775-.369-.962.695-1.194 4.252-.927 5.534.417 5.491.394 4.315 2.296-.72 1.164-1.157 1.209-2.145.221-.683-.683-1.939-1.228-2.792-1.21-1.229.025-1.147.337.396 1.504 1.435 1.085 1.653 1.765.828 2.59-.615.615-.865 1.776-.557 2.58.386 1.004.779 1.11 1.255.339.471-.761 1.481-.823 3.139-.193 2.069.787 2.618.562 3.572-1.461.651-1.378.745-2.626.223-2.949-1.665-1.029-.931-2.332 1.094-1.942 2.254.434 2.944-3.016.75-3.754-.975-.328-.948-.787.122-2.083.893-1.081.98-1.663.25-1.663-1.789 0-1.307-1.815 1.128-4.25 1.237-1.237 2.138-2.587 2-3-.137-.412.875-.75 2.25-.75 3.292 0 3.197 1.785-.163 3.062-3.634 1.382-1.739 2.792 2.949 2.194 3.292-.42 3.566-.644 2.098-1.717-1.185-.866-1.344-1.446-.535-1.945.642-.397 1.164-.133 1.181.597.019.808.421.639 1.05-.441 1.358-2.331 3.6-2.217 4.92.25.589 1.1 2.067 2.052 3.285 2.116 2.008.105 2.028.157.215.552-3.371.734-6.462 2.585-5.882 3.523.304.491-.719.611-2.284.268-1.964-.43-2.413-.325-1.464.343 1.119.788 1.027 1.163-.5 2.051-1.799 1.045-1.794 1.092.13 1.235 1.1.082 2.529.084 3.175.004.646-.08 1.46.317 1.809.881.833 1.35 2.516 1.32 2.516-.044 0-1.164 2.461-3.929 3.496-3.929.351 0 .353.9.004 2-.364 1.147-.18 2 .433 2 .587 0 1.06 1.012 1.052 2.25-.011 1.527-.275 1.842-.822.979-.444-.699-1.775-1.123-2.959-.942-3.214.49-3.647 1.439-1.029 2.256 1.279.4 2.622 1.189 2.984 1.753 1.284 2.001 5.914-4.548 5.371-7.596-.275-1.54-.095-2.549.4-2.243.494.305 1.127-.01 1.406-.701.305-.758.537-.562.585.494.119 2.636 1.433 2.106 2.879-1.16 1.316-2.973 3.662-4.541 5.29-3.534 1.675 1.035.934 3.382-1.59 5.036-1.375.901-2.5 2.288-2.5 3.082s-.45 1.166-1 .826c-.55-.34-1 .084-1 .941s-.45 1.559-1 1.559-1 .408-1 .906c0 .499.946.659 2.102.357 1.174-.307 2.45.012 2.889.722.486.787 1.304.948 2.147.421 2.195-1.369 3.695-1.312 4.941.189 1.55 1.868 4.018 1.82 3.295-.063-.31-.808-.859-1.43-1.219-1.382-1.829.242-2.506-.275-1.332-1.019 1.764-1.119.548-8.21-1.287-7.506-.819.314-1.217-.33-1.123-1.819.086-1.364-.684-2.802-1.884-3.521-1.764-1.056-1.8-1.219-.279-1.25 2.531-.051 2.148-2.96-.712-5.419-1.899-1.632-2.616-3.488-3.136-8.116-.37-3.3-1.512-7.772-2.538-9.938-1.025-2.166-1.878-4.641-1.896-5.5-.017-.859-.68-2.419-1.472-3.465-1.365-1.804-1.477-1.81-2.126-.118-.377.982-.179 2.597.44 3.589.945 1.512.814 1.779-.808 1.657-1.495-.112-1.804-.666-1.36-2.435.366-1.458.127-2.29-.656-2.29-.968 0-.965-.32.014-1.5 1.051-1.266.849-1.5-1.296-1.5-1.397 0-3.228-.264-4.068-.586-1.313-.504-1.364-.154-.362 2.5.7 1.857 1.874 3.086 2.945 3.086.98 0 1.781.45 1.781 1s-.633 1-1.406 1c-.914 0-1.224.7-.884 2 .293 1.118.031 2-.593 2-.615 0-1.117-1.141-1.117-2.535 0-2.225-.244-2.405-2-1.465-2.264 1.212-2.468.744-.931-2.13.724-1.353.743-2.392.058-3.217-1.354-1.632.055-3.716 2.644-3.911 1.15-.086 1.83-.579 1.511-1.095-.331-.536.554-.72 2.069-.431 1.86.356 2.649.083 2.649-.914 0-.781-.45-1.142-1-.802-.55.34-1-.309-1-1.441 0-1.66-.635-2.059-3.277-2.059-1.803 0-4.278-.701-5.5-1.557-2.012-1.409-2.434-1.409-4.446 0-2.811 1.97-4.509 1.968-6.484-.007-2.312-2.312-.17-3.875 5.191-3.79 2.453.039 4.22-.315 3.929-.787-.292-.473.036-.859.728-.859.979 0 .992-.267.059-1.2-.66-.66-1.2-2.036-1.2-3.057 0-1.676-.201-1.716-2.065-.41-2.291 1.604-5.525 1.177-6.297-.833-.276-.721.363-1.528 1.431-1.808 1.062-.278 1.931-.007 1.931.602 0 .756.379.727 1.2-.094.66-.66 1.996-1.2 2.969-1.2 1.158 0 1.57-.516 1.195-1.494-.316-.822-.988-1.239-1.494-.926-.506.313-.796-.027-.645-.756.167-.804-.608-1.293-1.975-1.245-1.238.044-2.25-.279-2.25-.718 0-.439-.642-.552-1.427-.251-1.918.736-.838-3.6 1.351-5.423 1.122-.935 1.232-1.457.382-1.814-.656-.276-.939-1.165-.629-1.975.311-.81-.165-2.28-1.058-3.266-.893-.987-1.387-2.031-1.097-2.321 1.306-1.306-2.443-2.923-4.377-1.888-2.467 1.32-3.31-.379-1.828-3.683 1.611-3.594-2.413-7.24-7.991-7.24-4.113 0-4.326-.144-4.326-2.917 0-1.604-.562-3.143-1.25-3.421-1-.403-1-.52 0-.583 1.739-.11 1.578-3.079-.167-3.079-.779 0-1.643-.562-1.921-1.25-.337-.837-.53-.742-.583.287-.101 1.96-4.079 2.351-4.079.401 0-.791.9-1.438 2-1.438 2.118 0 2.689-1.456.984-2.51-.559-.346-.758-1.047-.441-1.559.765-1.239-.578-1.13-3.043.247m-103.685 6.876c-.193.58-1.018 1.186-1.833 1.347-3.863.761-6.909 2.625-6.411 3.924.416 1.082-.687 1.389-4.99 1.389-3.037 0-5.284-.385-4.993-.857.292-.471-.622-.857-2.029-.857-2.242 0-4.024 2.97-1.809 3.015 2.733.056 3.401 1.792 1.848 4.796-1.835 3.547-1.315 4.136 3.062 3.47 2.006-.306 3.34-1.175 3.656-2.381.331-1.264 1.384-1.9 3.149-1.9 1.514 0 2.388-.429 2.035-1-.34-.55.196-1.067 1.191-1.148.995-.081 2.484-.24 3.309-.352a193.41 193.41 0 012.75-.352c1.952-.231 1.467-1.944-.75-2.648-2.653-.842-2.572-3.5.107-3.5 1.462 0 1.931.459 1.531 1.5-.316.825-.189 1.5.284 1.5s1.043-1.575 1.268-3.5c.377-3.227-.559-4.892-1.375-2.446m-80.56 45.196c.531 1.574-5.172 6.713-7.474 6.734-1.189.011-1.522.528-1.08 1.68.411 1.071.246 1.422-.462.984-.605-.374-1.415-.173-1.798.447-.383.621-.077 1.521.681 2.001 1.029.652.823.877-.813.889-1.205.008-2.469.465-2.809 1.015-.34.55-.115 1 .5 1s.826.472.47 1.049c-.445.719-1.082.688-2.031-.1-1.174-.974-1.16-1.37.089-2.62 1.801-1.801 1.871-2.976.222-3.746-.982-.458-.969-.712.061-1.187 1.621-.746-1.306-4.396-3.525-4.396-.772 0-1.126-.45-.786-1 .34-.55.19-1-.334-1-.83 0-2.166 2.25-2.166 3.649 0 .267 1.012.207 2.25-.133 2.074-.571 2.113-.509.5.792-.963.777-1.75 1.925-1.75 2.552s-.188 1.14-.418 1.14c-.23 0-1.243.262-2.25.582-1.775.563-1.775.535.001-.921 1.763-1.445 1.75-1.546-.332-2.661-2.195-1.174-5.542 1.316-4.353 3.239.258.419-.125.761-.852.761-1.417 0-3.767 7.651-4.538 14.774-.452 4.175-.397 4.269 2.389 4.078 1.569-.107 3.812.121 4.985.507 1.405.462 2.31.234 2.657-.67.708-1.845-.378-3.379-2.706-3.823-3.555-.678-2.882-2.677.866-2.57 2.279.064 3.551.588 3.551 1.461 0 .749.419 1.102.931.786 2.021-1.249 1.966 1.415-.058 2.833-2.159 1.513-2.158 1.514.733 2.147 1.592.348 3.794 1.051 4.894 1.563 1.1.511 7.999 1.039 15.33 1.172 15.07.274 15.282.178 16.698-7.529.812-4.422 1.085-5.563 1.429-5.979 1.183-1.427.865-5.75-.423-5.75-.844 0-1.534.675-1.534 1.5s-.45 1.5-1 1.5c-1.131 0-1.272-1.128-.417-3.355.32-.835 1.193-1.284 1.939-.998.746.286 2.171.004 3.167-.626 1.526-.967 1.35-1.049-1.114-.521-2.664.57-2.799.475-1.515-1.073 4.197-5.056-1.501-10.111-8.428-7.477-1.774.674-2.64.602-2.986-.25-.269-.66-.524-.386-.567.609-.043.995-.529 1.531-1.079 1.191-.55-.34-1 .084-1 .941s.45 1.559 1 1.559 1 .635 1 1.412c0 .805-.752 1.267-1.75 1.076-.963-.184-2.875-.405-4.25-.49-1.375-.086-1.935-.384-1.244-.662.691-.279.972-.967.625-1.529-.392-.633.125-.781 1.36-.389 1.7.539 1.92.261 1.507-1.899-.266-1.392.075-3.203.757-4.025 1.036-1.249.878-1.494-.966-1.494-1.323 0-2.037.5-1.784 1.25M354.5 177c-.34.55-.115 1 .5 1s.81.498.434 1.107c-.477.771-.944.696-1.544-.25-.669-1.057-.863-.97-.875.393-.008.963-.474 1.75-1.035 1.75-1.022 0-.766 2.973.538 6.25.383.963.294 1.75-.197 1.75s-.892.9-.892 2 .578 2 1.285 2c1.204 0 1.736 1.859 1.361 4.75-.09.688.532 1.25 1.381 1.25 1.343 0 2.049-1.805 1.662-4.25-.065-.412.782-.75 1.882-.75 1.1 0 2-.45 2-1s.45-1 1-1 1 .792 1 1.759c0 .968.917 2.333 2.039 3.033 1.121.7 1.786 1.681 1.478 2.18-.308.499.237.874 1.211.834.975-.04 2.514.243 3.42.628 1.075.458 2.379-.083 3.75-1.555 1.749-1.877 2.102-1.972 2.102-.568 0 .929.6 1.689 1.333 1.689 4.033 0 2.485-4.301-2.154-5.986-2.023-.735-3.116-1.526-2.429-1.758.688-.233 1.264-1.173 1.282-2.089.027-1.417.261-1.366 1.558.333 1.407 1.844 1.601 1.868 2.49.299 1.255-2.213 3.58-4.519 5.052-5.01.642-.214.987-.932.766-1.596-.26-.78-1.36-.32-3.107 1.3-3.69 3.421-9.505 3.277-6.648-.165 1.244-1.499-1.487-1.492-3.893.01-.687.429-1.25.336-1.25-.206s-.788-1.191-1.75-1.443c-1.667-.435-1.667-.463 0-.573 2.016-.134 2.35-1.734.5-2.398-2.222-.796-4.75 1.277-4.75 3.897 0 2.346-.252 2.49-3.25 1.848-4.234-.908-4.091-.623-2.967-5.892.876-4.111.791-4.571-.845-4.571-1.001 0-2.098.45-2.438 1m-139.469 11.25c-.497 1.238-.933 1.688-.968 1-.103-2.031-3.063-1.425-3.063.628 0 1.033-1.012 2.559-2.25 3.391-1.238.832-1.888 1.886-1.446 2.343.443.456 1.223.168 1.735-.641.814-1.288.937-1.284.986.029.031.838.705.302 1.528-1.214.994-1.831 1.992-2.514 3.069-2.101 1.459.56 1.458.691-.013 1.514-.885.495-1.609 1.36-1.609 1.922 0 2.042-3.065 4.015-5.75 3.701-1.921-.225-2.75.13-2.75 1.178 0 .825-.354 1.761-.786 2.081-.432.32-1.018 1.863-1.302 3.43-.284 1.567-.744 3.218-1.023 3.669-.279.451.532.872 1.802.936 1.552.078 1.763.261.644.557-1.743.462-3.397 3.327-1.92 3.327.468 0 1.067 1.125 1.33 2.5.661 3.459-1.784 3.264-3.135-.25l-1.058-2.75.198 3.098c.113 1.784-.509 3.804-1.467 4.762-.915.915-1.943 3.796-2.284 6.402-.341 2.606-1.04 5.766-1.553 7.022-.697 1.703-.57 2.423.497 2.832.828.318 1.185 1.252.847 2.217-.476 1.357-.334 1.435.763.417.741-.687 2.185-1.25 3.21-1.25 1.175 0 1.797-.646 1.685-1.75-.098-.963-.07-2.088.062-2.5.132-.412.296-1.306.365-1.986.069-.68.911-1.388 1.871-1.573 1.182-.228 1.568.13 1.193 1.107-.317.826.196 1.732 1.197 2.116 1.482.568 1.259.971-1.442 2.614-3.932 2.391-4.264 4.457-.568 3.53 2.096-.526 2.509-.351 2.042.865-.334.87.148 1.951 1.124 2.52.939.548 1.198 1.01.575 1.027-.624.016-1.345 1.135-1.603 2.485-.573 2.999 2.003 3.924 4.236 1.52.825-.887 2.316-1.917 3.313-2.287 1.05-.39 1.512-1.163 1.096-1.835-.446-.723-.281-.892.436-.448.635.392 1.155.269 1.155-.273s-.787-1.191-1.75-1.443c-1.118-.292-.793-.499.9-.573 2.303-.101 2.623-.51 2.443-3.116-.114-1.65.211-3 .722-3 .512 0 .37-.675-.315-1.5s-.965-1.556-.622-1.625A47.166 47.166 0 00219 232.5c.55-.137 1.787-.313 2.75-.39 1.295-.104 1.418-.352.472-.952-.922-.585-.538-1.149 1.379-2.022 1.462-.666 2.896-.972 3.189-.68.85.851 3.702-3.798 3.406-5.553-.148-.878.375-2.132 1.164-2.787.788-.654 1.201-2.08.916-3.168-.412-1.577-.138-1.854 1.353-1.369 1.546.504 1.61.422.371-.469-1.222-.879-1.01-1.082 1.142-1.095 1.944-.011 2.799-.646 3.241-2.404.36-1.436 1.587-2.638 3.073-3.011 1.66-.416 2.285-1.11 1.902-2.11-.315-.82-.047-1.49.594-1.49s.888-.45.548-1c-.34-.55.357-1 1.548-1 1.678 0 1.999-.394 1.425-1.75-.407-.963-.714-2.451-.683-3.307.031-.857-.809-2.098-1.867-2.759-1.165-.728-1.923-.804-1.923-.192 0 .554-.477 1.008-1.059 1.008s-.781-.45-.441-1-.103-1-.985-1c-.881 0-1.474-.562-1.316-1.25.307-1.336-.324-1.75-2.668-1.75-1.611 0-.988 2.945.896 4.235.742.508.717.739-.083.75-.662.008-.933.87-.634 2.015.541 2.067 2.29 2.8 2.29.961 0-.6.59-.494 1.395.25 1.823 1.684 1.123 2.737-1.384 2.082-1.253-.328-2.213.069-2.599 1.075-.492 1.283-1.019 1.377-2.692.482-2.017-1.079-2.023-1.155-.209-2.482 1.82-1.33 1.818-1.369-.07-1.4-1.921-.031-1.921-.046 0-1.5 1.895-1.433 1.889-1.468-.269-1.468-1.802 0-2.129-.454-1.766-2.456.38-2.096-2.557-4.677-4.176-3.67-.641.399-2.977-2.445-2.566-3.124.25-.412-.032-.75-.626-.75-.595 0-1.593 1.125-2.22 2.5-.626 1.375-1.768 2.5-2.538 2.5-.769 0-1.145-.409-.836-.91.733-1.185-.392-4.09-1.583-4.09-.509 0-1.332 1.012-1.83 2.25m7.224 11.75c-.561 1.375-.821 2.838-.579 3.25.243.412-.47.75-1.586.75-1.48 0-1.855.449-1.389 1.664.408 1.062.245 1.421-.45.991-.6-.37-1.728-.035-2.508.745-.818.817-1.959 1.084-2.694.63-1.018-.629-1-.897.088-1.33.905-.36.735-.569-.504-.621-1.465-.062-1.763.459-1.387 2.427.597 3.126-2.632 7.538-3.624 4.951-.334-.871-1.061-1.304-1.615-.961-1.54.952-1.198 2.504.552 2.504.857 0 1.27.468.916 1.04-.412.668.234.82 1.805.426 1.981-.497 2.564-.171 3.058 1.71.336 1.278.154 2.48-.405 2.671-.648.222-.587.864.168 1.774 1.668 2.01.464 2.801-1.411.927-2.068-2.068-3.295-1.951-4.997.479-1.551 2.216-5.942 1.456-7.009-1.212-.289-.723-.562-.084-.605 1.421-.07 2.42.429 2.863 4.329 3.845 3.014.759 4.575 1.745 4.933 3.115.292 1.115 1.006 1.708 1.608 1.336.596-.369.923-.977.726-1.351-.542-1.031 3.049-4.112 3.901-3.348.408.367.46-.12.115-1.083-.346-.963-.169-1.75.392-1.75.562 0 1.492 1.35 2.067 3 1.472 4.223 2.472 3.728 2.021-1-.209-2.2-.784-4-1.276-4-1.717 0-.881-3.001.855-3.07 1.496-.06 1.46-.195-.25-.93-1.1-.473-1.542-.891-.982-.93.56-.038 1.793-1.308 2.739-2.82 1.69-2.703 1.73-2.712 2.336-.547.612 2.191.628 2.188 2.874-.5 2.79-3.337 3.958-6.823 2.574-7.678-.573-.354-1.041-.166-1.041.416s-.787 1.073-1.75 1.091c-1.653.03-1.651.107.029 1.382 1.599 1.212 1.616 1.412.169 1.968-2.767 1.061-5.255.786-3.448-.382 1.178-.761 1.206-.973.128-.985-1.107-.012-1.132-.306-.128-1.515.86-1.036.898-1.5.122-1.5-.617 0-1.122-.477-1.122-1.059s.45-.781 1-.441 1 .051 1-.641c0-.979.267-.992 1.2-.059 1.537 1.537 3.143 1.564 2.199.037-.395-.639-1.034-2.552-1.421-4.25l-.702-3.087-1.021 2.5m24.084 21.772c-3.932 1.881-5.485 6.732-1.864 5.824 1.226-.308 2.557-.23 2.96.172 1.293 1.293 3.036.85 4.136-1.052.956-1.651 1.21-1.684 2.35-.312 1.05 1.265.991 1.827-.328 3.146-2.794 2.794-4.116 5.865-2.209 5.133.889-.341 1.616-.136 1.616.455 0 .592.595.848 1.322.569 1.516-.582 4.044 2.892 3.153 4.334-.326.527.109.959.966.959s1.559.525 1.559 1.167c0 .641.212.955.471.696s.079-2.922-.4-5.917c-.504-3.157-.496-5.905.021-6.538.49-.601.595-1.388.233-1.75-.362-.362.349-.658 1.58-.658 3.065 0 1.204-1.705-5.747-5.264-5.988-3.067-5.52-3.021-9.819-.964m-73.813 68.186c-.296.479.008 1.053.675 1.276.822.274.55 1.117-.843 2.612-1.385 1.487-2.649 1.98-3.871 1.511-1.281-.492-1.594-.34-1.065.517.413.667.149 1.953-.586 2.857-1.157 1.423-1.102 1.556.414.988 2.442-.915 4.75.167 4.75 2.227 0 1.695 4.742 4.645 5.787 3.6.291-.291 1.144-.018 1.895.605 1.907 1.583 2.984.145 1.577-2.108-.925-1.481-.869-1.979.271-2.416 1.112-.427.593-1.791-2.297-6.039-3.789-5.569-5.735-7.203-6.707-5.63m-75.141 25.786c-1.442.977-2.787 5.256-1.652 5.256.477 0 1.399-.533 2.05-1.183 2.383-2.383 2.445.265.113 4.792-2.598 5.043-4.551 5.559-4.136 1.092.219-2.346.037-2.59-1.124-1.505-.762.711-1.178 1.835-.924 2.497.254.662-.477 2.212-1.625 3.444-1.741 1.869-2.087 1.96-2.087.552 0-.929-.67-1.689-1.489-1.689-.998 0-1.433.907-1.321 2.75.241 3.966.797 4.571 2.659 2.893 2.193-1.976 6.774-3.062 7.558-1.793a1.196 1.196 0 01-.391 1.64c-1.622 1.003-1.174 2.784.536 2.128 1.004-.385 1.303-.192.845.548-.388.629-.278.878.246.554.524-.323 1.546-.221 2.271.227.755.467 2.442.228 3.952-.56 1.449-.756 3.309-1.413 4.134-1.46 1.036-.059 1.111-.242.244-.591-.691-.279-1.002-.918-.691-1.421.311-.503-.227-.915-1.194-.915-1.357 0-1.488-.271-.573-1.186.915-.915.811-1.601-.455-3-1.528-1.689-1.515-1.814.181-1.814 1.002 0 1.528-.293 1.17-.651-.358-.358.13-1.244 1.084-1.968 1.584-1.204 1.59-1.32.067-1.349-.916-.018-1.816.407-2 .942-.4 1.171-4.833.171-4.833-1.091 0-.485.9-.883 2-.883s2-.45 2-1-.373-1-.829-1c-.457 0-.794-1.012-.75-2.25.082-2.345-2.826-3.503-5.036-2.006M111 337.03c0 1.16.452 1.809 1.016 1.46.559-.346.758-1.047.441-1.559-.77-1.247.682-1.155 2.543.16 1.129.799 1.191 1.187.25 1.568-.687.279-1.25.975-1.25 1.547 0 .627.594.546 1.5-.206.989-.821 1.5-.874 1.5-.154 0 .6.68.83 1.511.511 1.063-.408 1.335-.12.918.969-.327.851-1.232 1.303-2.012 1.004-.779-.299-1.417-.019-1.417.622s.403.917.895.613c.493-.305 1.143.091 1.445.88.376.977-.306 1.566-2.145 1.853-2.608.406-2.623.444-.456 1.175 1.231.415 2 1.14 1.709 1.611-1.093 1.769 7.564 2.362 8.714.597.365-.558 2.502-.944 4.75-.856 3.03.119 4.088-.226 4.088-1.332 0-.821-.45-1.493-1-1.493s-1-.624-1-1.386c0-.762-1.531-2.112-3.401-3-4.263-2.023-4.59-2.013-4.639.136-.027 1.193-.551.805-1.646-1.217-2.347-4.338-3.357-5.003-8.064-5.312-3.732-.245-4.25-.025-4.25 1.809M.408 446.5l.073 54 .269-49.447c.207-38.023.556-49.629 1.51-50.235.915-.581.928-.791.05-.803-.654-.008-1.366-1.702-1.582-3.765-.215-2.062-.359 20.55-.32 50.25" fill="#d3d3d3" fill-rule="evenodd"/></svg>