<svg xmlns="http://www.w3.org/2000/svg" width="500" height="667"><path d="M324.521 52.967c-.299.483-3.287.704-6.639.491-4.524-.288-6.487.004-7.617 1.134-.838.838-2.252 1.239-3.144.891-1.917-.747-1.976-.754-4.871-.601-1.238.065-2.25.701-2.25 1.413 0 1.23-16.986 7.282-19.75 7.038-.687-.061-1.25.259-1.25.711 0 .452-.907 1.109-2.015 1.461-1.108.351-1.773 1.029-1.479 1.505.295.477-1.611.674-4.235.438-3.539-.317-4.384-.155-3.271.628 1.186.834 1.042.927-.689.441-1.589-.445-2.494-.044-3.3 1.463-1.141 2.131-8.514 5.689-10.774 5.2-.695-.151-1.531.422-1.857 1.273-.327.851-1.248 1.547-2.047 1.547-.798 0-3.338 1.555-5.643 3.457-2.304 1.901-6.862 4.846-10.127 6.544-3.265 1.699-7.8 4.756-10.078 6.794-2.278 2.038-5.335 4.549-6.794 5.581-1.459 1.032-2.367 2.339-2.018 2.904.366.593.146.726-.518.315-.685-.422-1.155-.078-1.155.846 0 .857-.675 1.559-1.5 1.559s-1.5.565-1.5 1.256c0 .691-1.321 1.84-2.935 2.555-2.89 1.279-5.596 3.787-12.61 11.689-1.953 2.2-5.442 6.104-7.753 8.676s-4.652 5.356-5.202 6.186c-.55.831-3.715 5.026-7.033 9.324-3.318 4.298-7.129 9.614-8.468 11.814-1.34 2.2-3.125 4.757-3.967 5.683-.843.925-2.426 3.4-3.518 5.5-1.093 2.099-3.905 6.604-6.25 10.01-2.345 3.406-4.264 6.496-4.264 6.867 0 .372-2.378 3.885-5.285 7.808-2.906 3.922-7.039 9.832-9.185 13.132-2.145 3.3-5.562 8.475-7.593 11.5-4.386 6.534-21.901 36.05-25.016 42.156-1.202 2.355-2.967 5.421-3.923 6.813-6.868 10.003-25.874 44.313-31.609 57.061-.611 1.359-4.267 8.77-8.125 16.47-3.857 7.7-8.466 17.15-10.241 21-1.775 3.85-4.482 9.7-6.016 13-1.533 3.3-4.722 10.5-7.087 16-2.365 5.5-5.114 11.194-6.11 12.654-.995 1.46-1.81 3.973-1.81 5.584 0 1.611-.25 3.179-.557 3.485-.782.783-1.392 12.126-1.424 26.473-.064 28.504 11.73 66.033 29.776 94.754C56.474 537.712 78.951 563 80.061 563c.371 0 3.209 2.475 6.307 5.5 3.098 3.025 5.92 5.5 6.271 5.5s3.613 2.403 7.25 5.34c8.588 6.937 17.387 12.66 19.465 12.66.905 0 1.646.401 1.646.892 0 .49 1.127 1.174 2.505 1.52 1.378.346 6.666 2.572 11.75 4.947 14.935 6.975 27.859 9.991 58.728 13.705 11.413 1.373 51.349 1.763 62.517.611 33.411-3.448 52.849-8.818 74.4-20.555 5.17-2.816 9.801-5.12 10.292-5.12.49 0 1.885-.935 3.1-2.078 3.254-3.064 17.907-9.922 21.198-9.922 1.564 0 2.565-.279 2.224-.619-.69-.691 1.676-3.381 2.974-3.381.457 0 1.421-.944 2.141-2.098.851-1.363 1.988-1.922 3.241-1.594 1.061.278 1.93.049 1.93-.509 0-.557.675-.754 1.5-.437.825.316 1.5.091 1.5-.5 0-.592.668-.82 1.485-.506 2.009.771 3.408-2.135 3.072-6.383-.221-2.79.533-4.49 3.834-8.643 2.26-2.843 5.234-6.612 6.609-8.375 6.682-8.567 26.794-46.55 32.277-60.955 17.271-45.374 16.87-44.689 25.406-43.435 4.664.686 4.764.648 3.152-1.178-.915-1.038-2.112-3.462-2.66-5.387l-.995-3.5-.16 3c-.14 2.607-.273 2.738-1.02 1-.596-1.388-.9-1.541-.993-.5-.076.855-.553.451-1.108-.939-1.386-3.47 1.029-13.904 3.925-16.956.875-.923.971-1.614.284-2.038-.691-.428-.548-1.592.426-3.469.806-1.555 1.466-3.723 1.466-4.818 0-1.095.718-4.756 1.596-8.136.878-3.379 1.953-8.169 2.39-10.644.437-2.475 1.714-8.1 2.838-12.5 1.125-4.4 2.328-10.25 2.674-13 1.697-13.487 2.014-18.5 1.168-18.5-.501 0-.407-.607.209-1.35.617-.742.942-2.88.724-4.75-.219-1.87.068-3.689.637-4.043.711-.441.702-1.595-.027-3.687-.584-1.675-.9-5.886-.703-9.358.831-14.62 1.67-33.038 1.972-43.312.179-6.05.826-12.286 1.44-13.858.613-1.572 1.064-4.497 1.002-6.5-.062-2.003.104-4.972.369-6.597.265-1.626.045-3.912-.488-5.082-.692-1.52-.517-3.207.615-5.917 1.872-4.48 1.923-4.874.52-4.007-1.085.671-.653-3.503 1.061-10.237.447-1.759.428-3.334-.044-3.5-.471-.166-1.089-7.952-1.374-17.302-.836-27.447-1.666-40.795-2.654-42.64-.509-.951-.925-2.828-.925-4.172 0-1.344-.675-4.059-1.5-6.034-.825-1.974-1.5-4.928-1.5-6.563 0-1.635-.45-3.251-1-3.591-.55-.34-1-1.661-1-2.937 0-1.275-.675-2.878-1.5-3.563s-1.5-2.315-1.5-3.622c0-1.308-.399-2.378-.886-2.378s-1.677-1.687-2.644-3.75c-.967-2.062-2.368-4.11-3.114-4.55-.746-.44-1.356-1.436-1.356-2.215 0-.778-.9-1.896-2-2.485s-2-1.62-2-2.293c0-.672-2.363-4.005-5.25-7.407a2827.328 2827.328 0 01-9.07-10.743c-2.101-2.506-4.356-4.557-5.011-4.557-.655 0-2.986-1.566-5.18-3.481-2.194-1.914-4.526-3.489-5.183-3.5-2.924-.047-24.305-11.405-23.08-12.261.828-.578.501-.672-.934-.269-1.233.346-3.44-.049-5-.895-1.631-.884-2.168-1.563-1.292-1.633.825-.065-.697-1.171-3.383-2.458-2.685-1.286-5.572-2.074-6.414-1.751-1.051.404-1.288.194-.755-.668.552-.894.094-1.181-1.586-.994-3.673.408-14.165-2.281-12.65-3.242.897-.569.629-.822-.879-.833-1.191-.008-2.323.454-2.513 1.026-.366 1.096-26.456-1.546-30.32-3.071-4.155-1.639-5.452-1.857-5.979-1.003m-19.398 53.968c-2.528 5.876-2.592 7.468-.608 15.124.834 3.217 1.422 6.207 1.306 6.645-.409 1.554 1.398 14.821 2.232 16.388.467.875 1.137 3.8 1.491 6.5.938 7.154 1.501 7.191 9.755.631 8.845-7.028 17.588-12.223 20.573-12.223 1.17 0 2.128-.441 2.128-.981 0-1.515-6.492-11.278-8.99-13.519-1.226-1.1-4.539-4.925-7.362-8.5-6.811-8.625-7.5-9.333-12.038-12.385-5.3-3.564-6.043-3.361-8.487 2.32m-33.672 33.405c-2.189 8.719 3.773 36.346 11.362 52.66.896 1.925 1.494 4.175 1.329 5-.165.825-.679 3.75-1.142 6.5-3.274 19.434-6.228 23.961-17 26.052-1.925.373-3.95 1.029-4.5 1.456-.55.427-3.7 1.034-7 1.348-13.796 1.312-21.763 4.332-36.632 13.884-12.791 8.217-22.723 16.199-23.964 19.26-.669 1.65-2.264 5.361-3.545 8.246-1.28 2.885-2.834 7.385-3.453 10-3.675 15.526-7.464 21.574-23.029 36.754-19.131 18.658-26.118 27.218-28.339 34.715-1.024 3.457-2.802 7.649-3.95 9.316C127.49 371.478 114.833 387 114.08 387c-1.377 0-11.681 10.403-14.415 14.553-2.574 3.907-3.383 7.575-5.281 23.947-1.023 8.827 1.954 14.477 14.389 27.302 15.381 15.865 17.717 16.614 46.227 14.83l12.5-.782 7 3.605c3.85 1.982 7.9 4.159 9 4.837 1.1.678 4.25 2.545 7 4.149 2.75 1.603 6.528 4.4 8.395 6.216 1.868 1.815 4.169 3.546 5.113 3.845 2.884.916 7.994 12.382 9.162 20.559 1.407 9.844 1.55 9.954 13.735 10.449 13.539.55 39.095 7.488 39.095 10.613 0 1.272-1.71 1.078-4.862-.552-5.096-2.635-21.411-7.586-27.053-8.209-7.011-.775-5.996.257 4.415 4.487 4.4 1.787 12.05 5.194 17 7.57 26.296 12.624 27.431 12.844 28.791 5.581.258-1.375.323-.401.146 2.165-.24 3.471.067 4.815 1.202 5.25 2.53.971 2.973.747 7.246-3.655 4.276-4.405 5.187-6.76 2.615-6.76-1.669 0-2.021-1.56-.556-2.465 1.017-.629.337-8.61-1.047-12.285-.939-2.494-9.088-3.367-10.475-1.123-1.462 2.365-32.083-1.529-44.528-5.662-7.162-2.379-11.147-10.386-11.307-22.715-.048-3.712-.473-6.75-.944-6.75s-.542-.788-.158-1.75c1.158-2.897.553-16.316-1.048-23.25a1748.25 1748.25 0 01-2.331-10.232c-.457-2.052-1.283-4.302-1.836-5-.553-.697-1.798-3.743-2.766-6.768-.969-3.025-2.378-6.21-3.132-7.079-.755-.868-1.372-2.05-1.372-2.627s-.675-1.609-1.5-2.294c-4.646-3.856-.298-12.365 9.797-19.171 7.247-4.886 17.897-15.369 20.264-19.948.909-1.756 2.559-4.135 3.668-5.287 1.109-1.152 3.505-4.385 5.323-7.186 1.819-2.8 7.839-9.838 13.377-15.639 5.539-5.801 10.071-11.048 10.071-11.658 0-1.472 2.293-1.418 3.8.089.933.933 1.2.809 1.2-.559 0-.967-.394-1.515-.876-1.218-.482.298-.316-1.087.368-3.077.684-1.99 1.866-3.966 2.626-4.391 1.144-.64 1.4 1.578 1.488 12.886.059 7.512.625 17.259 1.26 21.659 2.006 13.925.363 20.842-5.878 24.739-1.303.814-1.988 2.331-1.988 4.402 0 3.043.146 3.154 3.994 3.009 3.653-.137 3.995-.385 4-2.9.004-1.869.526-2.75 1.631-2.75 1.256 0 1.495.652 1.05 2.873-.443 2.216-.014 3.4 1.875 5.174l2.45 2.301 1.75-4.207c1.243-2.989 2.23-4.087 3.409-3.792 3.421.858 3.769-40.805.443-53.096-1.459-5.394-.585-7.958 1.43-4.193.841 1.571 1.739 1.963 3.489 1.524 1.296-.325 2.608-.184 2.916.314.308.498 2.923 2.495 5.811 4.439 2.889 1.944 7.359 5.476 9.934 7.849 2.574 2.373 6.446 5.746 8.602 7.497 4.401 3.572 4.233 2.881 6.63 27.317 1.34 13.657.958 21.805-1.383 29.544-.673 2.224-1.068 5.114-.878 6.422.387 2.653 2.847 4.081 2.847 1.653 0-1.265 2.756-3.619 4.236-3.619.202 0 .411 1.545.465 3.432.156 5.523 3.816 8.13 5.009 3.568.702-2.685 1.732-2.519 3.108.5.627 1.375 1.537 2.5 2.024 2.5 1.812 0 6.368-12.41 7.639-20.81.723-4.779 1.595-10.265 1.937-12.19.635-3.573.392-4.203-4.479-11.607-1.409-2.141-3.189-5.468-3.956-7.393-.767-1.925-3.468-6.425-6.003-10s-6.085-9.2-7.89-12.5c-1.804-3.3-3.64-6.45-4.079-7-.438-.55-3.383-5.5-6.542-11-3.16-5.5-6.583-11.073-7.607-12.385-2.003-2.565-2.493-4.623-.862-3.615 1.521.94 1.194-.875-.552-3.059-1.493-1.867-1.528-1.846-.937.559l.614 2.5-2.04-2.5c-2.387-2.924-2.752-4.799-.585-3 .837.694 1.5.803 1.5.245 0-1.783-2.744-3.513-3.235-2.039-.278.833-.855.495-1.633-.959-.835-1.561-.868-2.247-.108-2.247.602 0 .786-.498.41-1.107-.494-.799-.883-.785-1.4.053-.467.754-1.662-.081-3.426-2.394-1.523-1.996-2.173-3.552-1.485-3.552.747 0 .456-.879-.744-2.25-1.084-1.238-2.625-3.557-3.425-5.155-1.097-2.193-1.536-2.488-1.787-1.202-.182.937.219 2.367.893 3.179 1.803 2.173.543 2.751-1.376.632-1.692-1.87-.722-13.896 1.225-15.181.435-.288 1.319-1.524 1.963-2.748 1.048-1.991.899-2.294-1.41-2.874-1.635-.41-2.388-1.15-2.055-2.019.298-.777-.759-2.322-2.44-3.565C295.08 278.683 293.985 276 296 276c.55 0 1 .436 1 .969 0 .532.675.709 1.5.393.919-.353 1.5 0 1.5.91 0 1.521 5.618 4.443 6.62 3.442.305-.306.96-2.279 1.454-4.385.892-3.798.847-3.878-5.587-9.952-3.568-3.368-6.487-6.483-6.487-6.922 0-.438-.764-1.642-1.698-2.674-.935-1.032-1.804-2.418-1.932-3.079-.128-.661-1.202-3.677-2.386-6.702a830.931 830.931 0 01-3.833-10c-2.638-7.064-2.822-7.221-6.323-5.411-2.198 1.137-3.363 1.276-4.143.496-.749-.749-.757-1.085-.025-1.085.584 0 2.663-1.087 4.621-2.416 4.101-2.783 5.971-1.769 7.225 3.916 1.169 5.301 6.741 18.877 9.427 22.972C299.376 260.196 310.441 270 312.2 270c1.717 0 .681-2.579-1.411-3.513-3.59-1.602-5.947-6.781-6.004-13.192-.072-7.921-.859-10.112-7.321-20.352-4.771-7.562-6.054-8.948-8.303-8.975-2.311-.027-2.449-.193-1.053-1.257 1.406-1.07 1.447-1.772.328-5.561-1.527-5.174-1.016-10.209 1.589-15.65 3.118-6.512 6.975-15.505 6.981-16.28.004-.396.629-1.914 1.391-3.373.761-1.46 1.937-4.385 2.612-6.5 1.376-4.309 6.088-12.342 7.241-12.345 1.168-.003.822-3.325-.532-5.101-.67-.88-1.668-1.58-2.218-1.557-.55.023-2.267-1.845-3.816-4.151S298.292 148 297.589 148c-.704 0-2.094-.9-3.089-2-.995-1.1-2.267-2-2.827-2-.559 0-3.849-1.133-7.311-2.518-10.047-4.02-12.142-4.205-12.911-1.142M338 143.331c-10.234 4.785-27.574 20.591-31.634 28.836-4.083 8.291-8.113 17.364-9.921 22.333-1 2.75-2.552 5.968-3.449 7.152-.972 1.284-1.69 4.309-1.778 7.5-.161 5.789.076 5.541 3.496-3.652 3.377-9.079 4.73-11.137 11.353-17.269 3.813-3.53 6.933-7.041 6.933-7.802 0-.76 1.186-2.16 2.636-3.11 1.45-.95 3.283-3.323 4.073-5.273.79-1.95 1.951-4.755 2.58-6.234 1.2-2.82 7.122-6.754 12.211-8.113 3.194-.852 10.384-2.503 14.477-3.324 3.585-.719 3.587-.821.104-6.248-4.078-6.355-5.982-7.18-11.081-4.796m4.5 16.203c-4.4.631-9.181 1.715-10.625 2.41-3.509 1.689-9.875 9.422-9.875 11.996 0 1.133-.422 2.06-.937 2.06-.516 0-3.486 3.004-6.601 6.675-3.114 3.671-7.705 8.314-10.201 10.317-3.911 3.137-4.981 4.868-7.734 12.507-3.595 9.979-3.849 8.894 3.973 16.949 5.341 5.499 6.6 8.543 5.837 14.109l-.623 4.549 7.742 7.447c8.583 8.255 9.18 8.535 10.544 4.947 1.356-3.568 2.286-3.091 1.463.75-.383 1.788-.348 2.916.078 2.509.426-.408 1.266-.341 1.867.15 1.088.888 4.652-.411 15.092-5.502 2.75-1.341 5.563-2.431 6.25-2.423.688.009 1.25-.714 1.25-1.606 0-1.276.298-1.375 1.398-.463 1.549 1.286 9.504-2.743 19.368-9.81 8.851-6.341 9.979-7.627 10.743-12.258.394-2.391 1.152-4.886 1.684-5.546.532-.659 1.514-5.512 2.182-10.783l1.216-9.584-2.755-3.217c-1.515-1.769-2.773-3.794-2.795-4.498-.023-.705-.699-1.534-1.503-1.843-.804-.308-1.75-1.532-2.101-2.718-.352-1.187-1.944-3.819-3.538-5.849-1.595-2.031-2.899-4.476-2.899-5.435 0-3.484-4.205-10.301-8.551-13.862-2.447-2.005-4.449-3.199-4.449-2.652 0 .883-4.879.794-6.773-.122-.4-.194-4.327.164-8.727.796m.844 14.236c-3.589 1.717-5.308 4.385-5.625 8.73-.143 1.954.217 2.913 1.031 2.75.688-.138 1.295.312 1.35 1 .055.688.423.125.817-1.25l.719-2.5 1.69 3.216c1.21 2.302 2.16 3.035 3.346 2.58 1.112-.427 1.419-.251.933.534-.398.644-1.371 1.17-2.164 1.17-.793 0-1.441.675-1.441 1.5 0 .833-.889 1.5-2 1.5-2.462 0-2.654 1.711-.25 2.236.983.215 3.853-1.346 6.55-3.562 4.357-3.58 4.739-4.231 4.141-7.059-.862-4.076-4.512-12.651-5.314-12.485-.345.071-2.047.81-3.783 1.64m-27.169 32.455c-.659.659-.653 1.975.02 3.906.707 2.026.685 3.308-.07 4.218-3.184 3.836-.843 13.566 3.28 13.636.498.008.198-.772-.665-1.735-2.047-2.281-3.277-8.8-1.83-9.694.6-.371 1.09-.022 1.09.774 0 .797.858 2.509 1.908 3.804l1.907 2.356 3.185-3.332 3.184-3.333-2.215-2.358c-1.218-1.297-3.397-2.495-4.842-2.662-1.827-.212-2.723-.976-2.941-2.509-.295-2.075-.001-2.181 5-1.816 8.175.597 9.1 1.181 8.335 5.258-.773 4.124.793 3.668 2.306-.67.909-2.609.739-3.122-1.526-4.606-2.901-1.901-14.567-2.796-16.126-1.237m-9.452 42.386c-1.562 1.561-.601 7.921 1.819 12.051 2.885 4.922 6.765 5.866 9.895 2.408 1.683-1.86 1.616-2.016-1.833-4.25-1.968-1.276-3.585-2.652-3.592-3.059-.006-.406-.678-1.531-1.493-2.5a71.087 71.087 0 01-2.777-3.567c-.714-.993-1.622-1.481-2.019-1.083M199.38 331.925c-5.975.979-15.17 7.914-15.347 11.575-.027.55-1.816 2.009-3.977 3.243-6.655 3.8-15.538 16.582-19.129 27.527l-2.222 6.77 4.019 3.73c2.21 2.052 4.289 4.525 4.621 5.496.569 1.662.823 1.648 4.365-.25 2.068-1.109 5.022-2.016 6.565-2.016 12.641 0 41.465-28.829 43.282-43.288.277-2.2.753-4.405 1.059-4.9.907-1.467-1.623-3.743-3.439-3.093-.922.33-1.348.237-.947-.206 1.023-1.13-8.863-5.54-12.079-5.388-1.458.069-4.505.429-6.771.8m133.735 65.532c-.628 2.494-1.638 4.424-2.245 4.289-1.299-.289-1.556.781-3.121 13.004-.729 5.702-1.631 9.25-2.35 9.25-1.385 0-2.547 13.023-1.287 14.421.484.537 1.708-.194 2.93-1.747 1.706-2.169 2.457-2.477 4.008-1.647 1.744.933 1.856.738 1.286-2.253-.343-1.801-.749-3.427-.903-3.614-.154-.188.364-2.169 1.153-4.403 2.009-5.695 2.477-9.792 2.419-21.196-.058-11.479-.322-12.331-1.89-6.104m-213.131 38.405c-5.163 2.761-6.153 6.499-2.593 9.799 2.637 2.446 3.023 2.522 6.665 1.321 3.549-1.172 3.921-1.646 4.543-5.792 1.024-6.828-2.143-8.787-8.615-5.328" fill="#d3d3d3" fill-rule="evenodd"/></svg>