<svg xmlns="http://www.w3.org/2000/svg" width="500" height="668"><path d="M.608 1.58C.273 2.451 0 152.752 0 335.582V668h499l.239-63.25.238-63.25.524 63c.288 34.65.518-87.075.511-270.5L500.5.5 250.858.248C23.861.019 1.16.14.608 1.58M.494 335c0 183.425.115 258.462.256 166.75.141-91.713.141-241.788 0-333.5C.609 76.537.494 151.575.494 335m314.084 57.334c-.632 1.352-1.058 1.507-1.626.588-.554-.896-1.487-.43-3.329 1.666l-2.56 2.912-.065 33.5c-.035 18.425-.259 37.775-.498 43-.238 5.225-.688 31.55-.999 58.5-.311 26.95-.834 50.688-1.161 52.75-.478 3.01-.282 3.75.994 3.75 2.08 0 3.805-6.425 3.71-13.823-.04-3.122.372-11.977.915-19.677 1.193-16.923 3.103-64.26 3.59-89 .195-9.9.876-29.025 1.513-42.5 1.208-25.564 1.064-34.984-.484-31.666m-10.081 209.671c-.328.531-.517 5.248-.42 10.481l.177 9.514 3.123-.011c5.612-.02 10.892-1.203 9.45-2.117-.884-.56-.289-.846 1.781-.857 2.995-.014 3.104-.166 3-4.181-.108-4.151-.127-4.172-5.37-5.632-3.586-.998-6.198-2.531-8.202-4.814-1.618-1.843-3.21-2.915-3.539-2.383" fill="#d3d3d3" fill-rule="evenodd"/></svg>