<svg xmlns="http://www.w3.org/2000/svg" width="500" height="673"><path d="M360.7 162.324c.336.543.101.671-.525.284-.623-.385-2.043-.214-3.154.381-1.507.806-2.021.776-2.021-.12 0-.662-.337-.865-.75-.452-.413.412-.75 1.237-.75 1.833 0 .596-.577 1.276-1.281 1.51-.705.235-1.155-.121-1-.791.154-.671-.344-1.446-1.108-1.724-.781-.283-1.112-.056-.757.519.37.599-.506 1.05-2.111 1.088-6.681.157-6.803.184-5.245 1.147.973.601-.044.771-2.998.501-3.25-.297-4.065-.131-2.986.611 1.119.768.869.864-1.014.389s-2.133-.379-1.014.389c1.086.746.353.917-2.734.634-2.32-.212-4.473.026-4.785.53-.311.504-1.556.925-2.767.936-5.469.05-9.695.762-11.014 1.856-.788.654-2.277.914-3.309.578-1.525-.497-1.598-.415-.391.437 1.101.778.328.943-2.986.64-3.094-.283-4.014-.114-2.986.548 1.138.733.9.899-1.014.705-1.656-.168-2.405.201-2.219 1.091.155.739-.295 1.133-1 .875-.704-.258-1.154-1.017-1-1.688.155-.67-.216-1.053-.825-.85-.608.203-1.14.808-1.182 1.344-.041.536-.795 1.55-1.675 2.252-1.337 1.068-1.353 1.233-.099 1.007.825-.148 3.525.317 6 1.034 2.475.717 6.975 1.983 10 2.812 3.025.83 7.004 1.972 8.843 2.538 1.838.566 4.313 1.155 5.5 1.31 1.186.154 3.348.756 4.804 1.338 1.456.581 2.815.889 3.019.684.374-.373 10.409-1.199 25.334-2.086 6.932-.411 11.009-.794 13.697-1.286.756-.139-.067-22.314-.859-23.117-.963-.976-10.248-.675-9.638.313m-179.106 11.381c-1.453.761-3.068 1.12-3.589.798-.522-.322-2.023.118-3.336.978-1.313.86-3.238 1.287-4.278.947-1.604-.523-1.663-.436-.391.572 1.291 1.023 1.257 1.11-.25.626-.963-.31-1.75-.2-1.75.245 0 .444-1.331.728-2.958.631-1.737-.103-2.705.234-2.346.816.337.545.109.679-.507.299-.616-.381-2.951.241-5.189 1.383s-4.573 1.764-5.189 1.383c-.729-.45-.837-.235-.311.617.528.854.418 1.067-.316.614-.619-.383-2.502.016-4.184.886-1.682.87-3.565 1.269-4.184.886-.721-.445-.845-.242-.345.567.58.939.172 1.089-1.596.589-1.931-.547-2.095-.456-.875.487 1.265.978 1.207 1.064-.377.548-1.032-.336-2.475-.115-3.206.492-.731.607-1.814.804-2.406.438-.592-.366-2.702.293-4.688 1.465-1.987 1.172-4.245 1.888-5.019 1.591-.775-.297-1.178-.169-.898.285.281.454-.933.725-2.698.603-4.518-.313-12.074 4.027-15.416 8.853-2.608 3.767-2.791 4.695-2.775 14.114.015 9.163 1.181 39.491 1.944 50.582.171 2.475.362 6.098.425 8.051.102 3.179.587 3.78 4.641 5.75 2.489 1.209 4.997 2.199 5.571 2.199.575 0 1.735.69 2.579 1.534.88.88 2.341 1.278 3.428.933 1.69-.537 1.895-.053 1.895 4.466V294l7.75.012c4.262.007 29.8.12 56.75.25l49 .238-.156 5c-.174 5.587-1.065 16-1.369 16-.109 0-.375 4.275-.591 9.5-.51 12.307-.671 14-1.334 14-.302-.001-.513 2.27-.468 5.044.045 2.775-.185 5.211-.512 5.413-.327.202-.561 2.631-.521 5.398.041 2.766-.178 4.877-.487 4.689-.309-.188-.657 2.875-.774 6.807-.426 14.398-1.721 31.821-2.475 33.288-.385.748-.361 2.228.062 3.836.069.262 1.273.039 2.676-.495 2.854-1.084 8.041-2.215 10.699-2.332.963-.042 1.75-.334 1.75-.648 0-.573 2.407-.96 6.903-1.112 1.618-.054 1.984-.34 1.118-.875-.927-.573-.646-.997 1.01-1.523 2.03-.644 2.1-.837.611-1.671-2.294-1.283-.994-3.046 1.692-2.294 1.772.496 1.893.4.666-.525-1.203-.907-1.004-1.006 1-.5 1.925.486 2.155.389 1-.419-1.333-.934-1.333-1.069 0-1.214.825-.09 2.175-.255 3-.367a193.41 193.41 0 012.75-.352c.688-.081 1.25-.823 1.25-1.648s-.562-1.507-1.25-1.515c-.833-.011-.75-.339.25-.985 1.333-.862 1.333-.973 0-1-1.333-.027-1.333-.138 0-1s1.333-.973 0-1c-1.229-.025-1.254-.187-.137-.894 1.151-.729 1.151-.959 0-1.476-.75-.336-.238-.361 1.137-.055 1.943.432 2.166.322 1-.494-1.333-.934-1.333-1.054 0-1.081 1.333-.027 1.333-.138 0-1-1.265-.818-1.274-.972-.059-.985 1.027-.011.884-.425-.5-1.444-1.861-1.369-1.866-1.457-.107-2.139 1.458-.565 1.56-.9.5-1.637-.897-.623-.515-.719 1.166-.295s2.063.328 1.166-.295c-1.069-.743-.991-1.058.393-1.589.95-.365 1.436-.954 1.081-1.31-.356-.355-.049-1.582.682-2.726.73-1.144 1.252-3.318 1.158-4.83-.094-1.512.195-2.75.643-2.75s.563-.653.257-1.452c-.306-.799-.193-2.036.252-2.75s.86-2.206.922-3.315c.062-1.109.461-3.359.887-5 .427-1.641.936-4.522 1.132-6.402.196-1.881.935-3.786 1.642-4.235.994-.63.945-.822-.215-.846-.883-.018-1.089-.333-.5-.765.55-.404 1.117-1.86 1.261-3.235.482-4.623 1.048-10.489 1.144-11.867.065-.935.806-1.159 2.345-.71 3.122.911 7.453 1.628 12.75 2.112 8.642.79 10.515 1.128 12.678 2.289 1.197.643 2.997.903 4 .578 1.547-.502 1.596-.416.322.569-1.26.974-1.179 1.076.5.638 1.1-.287 3.125.118 4.5.899 1.534.872 1.921 1.449 1 1.492-.931.044-.581.58.923 1.413l2.423 1.342-2.305.732c-1.79.568-1.996.927-.923 1.607 1.147.726 1.127.881-.118.906-1.333.027-1.333.147 0 1.081 1.155.808.925.905-1 .419-1.925-.486-2.155-.389-1 .419 1.333.934 1.333 1.056 0 1.101-.908.031-.513.615 1 1.48 1.375.786 2.05 1.459 1.5 1.496-.55.037-.183.687.817 1.445 2.456 1.862 2.322 2.498-.984 4.678-1.652 1.089-2.208 1.877-1.333 1.89 1.333.019 1.333.129 0 .991s-1.333.973 0 1c1.333.027 1.333.138 0 1s-1.333.973 0 1c1.333.027 1.333.138 0 1s-1.333.973 0 1c1.333.027 1.333.138 0 1s-1.333.973 0 1c1.333.027 1.333.147 0 1.081-1.155.808-.925.905 1 .419 1.681-.424 2.063-.328 1.166.295-1.537 1.068 1.28 2.666 2.916 1.654.496-.306 1.693-.097 2.66.466 1.381.805 1.437 1.034.258 1.07-1.333.041-1.333.153 0 1.015 1.333.862 1.333.973 0 1-1.333.027-1.333.138 0 1s1.333.973 0 1c-1.245.025-1.265.18-.118.906 1.076.681.881 1.035-.882 1.594-1.763.559-1.958.913-.882 1.594 1.147.726 1.127.881-.118.906-1.333.027-1.333.138 0 1s1.333.973 0 1c-1.333.027-1.333.138 0 1s1.333.975 0 1.02c-.908.031-.513.615 1 1.48s1.908 1.449 1 1.48c-1.333.045-1.333.158 0 1.02s1.333.973 0 1c-1.333.027-1.333.138 0 1s1.333.973 0 1c-1.333.027-1.333.147 0 1.081 1.217.852 1.122.948-.5.507-1.1-.298-2.675-.11-3.5.42-1.333.855-1.333.965 0 .992 1.333.027 1.333.138 0 1s-1.333.973 0 1c1.333.027 1.333.138 0 1s-1.333.973 0 1c1.333.027 1.333.138 0 1s-1.333.973 0 1c1.333.027 1.333.138 0 1s-1.333.973 0 1c1.333.027 1.333.138 0 1s-1.333.973 0 1c1.333.027 1.333.138 0 1s-1.333.973 0 1c1.333.027 1.333.147 0 1.081-1.155.808-.925.905 1 .419 1.925-.486 2.155-.389 1 .419-1.333.934-1.333 1.054 0 1.081 1.333.027 1.333.138 0 1s-1.333.973 0 1c1.333.027 1.333.138 0 1s-1.333.973 0 1c1.333.027 1.333.138 0 1s-1.333.973 0 1c1.333.027 1.333.138 0 1-.825.533-1.076.976-.559.985.518.008.068.658-1 1.444-1.861 1.369-1.866 1.457-.107 2.139 1.458.565 1.56.9.5 1.637-.897.623-.515.719 1.166.295 1.723-.435 2.076-.337 1.137.313-1.151.798-1.151 1.029 0 1.487 1.073.427 1.044.566-.137.656-.953.073-.589.636 1 1.544 1.513.865 1.908 1.449 1 1.48-1.333.045-1.333.157 0 1.012.825.53 2.4.718 3.5.42 1.665-.452 1.748-.353.5.588-1.25.943-1.167 1.044.5.609 1.1-.287 3.09.079 4.423.813l2.423 1.333-2.305.732c-1.826.579-2.018.931-.923 1.688.967.669.631.767-1.118.325-1.723-.435-2.076-.337-1.137.313.75.52.975 1.151.5 1.402-.475.251-.202.282.607.068.808-.214 1.152-.072.765.315-.879.879 2.241 3.333 4.265 3.355 1.333.015 1.333-.091 0-.953-.901-.582-1.025-.975-.309-.985.655-.008 1.469.435 1.809.985.34.55 1.068 1 1.618 1s.722-.45.382-1c-.34-.55-.168-1 .382-1s1.289.468 1.643 1.041c.354.572 1.517.763 2.584.424 2.046-.649 2.311 1.285.391 2.851-.55.448.125.531 1.5.184 2.004-.506 2.203-.407 1 .5-1.203.907-1.004 1.006 1 .5 1.614-.407 2.043-.313 1.211.268-.884.616-.322.899 1.789.899 2.152 0 2.691-.279 1.789-.928-.928-.668-.8-.77.461-.365 2.176.7 4.93-.273 4.185-1.479-.304-.492.036-.902.756-.91.979-.012.943-.247-.141-.933-.988-.625-.196-.818 2.483-.606 4.71.374 7.27-.332 5.398-1.489-1.275-.788-.925-.835 8.363-1.131 2.637-.084 4.312-.451 3.722-.816-1.557-.963 3.619-3.087 5.636-2.313 1.227.471 1.454.284.848-.697-.61-.987-.377-1.167.888-.681 1.019.391 1.468.257 1.105-.33-.336-.544-.161-.989.389-.989s1.278.45 1.618 1c.34.55 1.068 1 1.618 1s.763-.384.472-.854c-.756-1.224 4.054-3.199 6.148-2.525 1.508.486 1.546.4.262-.592-1.217-.941-1.029-1.041 1-.529 2.029.512 2.217.412 1-.529-1.276-.987-1.23-1.072.308-.575.994.322 3.556-.306 5.692-1.396 2.136-1.09 4.698-1.718 5.692-1.396 1.409.455 1.498.364.405-.413-1.083-.771-.798-1.02 1.25-1.095l5.306-.192c1.91-.07 2.264-.337 1.265-.955-.86-.531.233-.71 2.865-.469 2.445.224 4.012-.003 3.684-.534-.317-.513.192-.63 1.145-.265 1.157.444 1.483.281 1-.5-.482-.78-.156-.943 1-.5 1.163.447 1.483.282.994-.51-.484-.782.04-1.086 1.586-.92 1.516.164 2.208-.222 2.017-1.124-.185-.873.269-1.157 1.25-.781 2.342.899 5.086-.362 3.375-1.551-.897-.623-.515-.719 1.166-.295 1.749.442 2.085.344 1.118-.325-1.097-.759-.915-1.105.882-1.675 1.808-.574 1.986-.917.882-1.704-1.113-.793-1.073-.887.207-.483 4.06 1.28 7.193-9.258 5.555-18.688-.37-2.131-.896-6.406-1.169-9.5-.478-5.414-1.284-11.421-2.098-15.625-.213-1.1-.59-4.025-.839-6.5-1.021-10.177-1.797-16.612-2.229-18.5-.252-1.1-.689-4.473-.972-7.496-.283-3.023-.976-5.781-1.539-6.129-.634-.392-.505-.817.339-1.115.76-.269-.848-1.475-3.637-2.727-11.501-5.165-13.074-5.849-14.6-6.34-1.078-.347-1.802-2.221-2.219-5.74-.34-2.873-.886-5.491-1.213-5.818-.326-.327-26.612-.554-58.413-.506l-57.82.089.429-6.109c.236-3.36.615-8.584.842-11.609.228-3.025.633-9.55.902-14.5.772-14.212 1.619-25.7 2.176-29.5.282-1.925.741-8.225 1.02-14 .523-10.832.87-15.435 1.715-22.75.461-3.993-.083-5.152-1.673-3.563-.378.378-1.465.761-2.416.852-4.738.45-15.871 3.843-16.905 5.152-.647.818-1.008 2.359-.803 3.425.235 1.22-.035 1.685-.729 1.256-.638-.394-.82-.225-.433.401.838 1.357-2.811 2.639-7.101 2.496-3.454-.115-5.352 1.374-2.933 2.303 1.447.555 1.181 4.428-.304 4.428-.41 0-.53 1.125-.267 2.5.291 1.52.017 2.5-.697 2.5-.647 0-.915.422-.596.939.319.516-.217 1.402-1.191 1.969-.974.567-1.283 1.045-.688 1.062.596.016 1.084.724 1.084 1.573 0 .904-.574 1.323-1.386 1.011-.762-.292-1.11-.086-.774.457.336.544.192.989-.32.989-.776 0-1.226 1.633-2.208 8-.042.275-.511 2.3-1.041 4.5-.53 2.2-1.393 6.025-1.919 8.5a2089.65 2089.65 0 01-1.497 7 277.108 277.108 0 00-1.028 5c-.267 1.375-.765 3.85-1.107 5.5a73.09 73.09 0 00-1.288 9.557c-.108 1.706-4.344 1.856-7.711.274-1.038-.488-3.317-.859-5.064-.824-1.747.034-3.017-.194-2.823-.508.194-.314-.402-.612-1.324-.664-.923-.051-3.477-.413-5.677-.805-2.2-.391-4.894-.69-5.987-.665-1.601.037-1.701-.131-.515-.864.973-.601-.044-.771-2.998-.501-3.314.303-4.087.138-2.986-.64 1.238-.873 1.193-.955-.264-.486-2.523.812-5.358-.373-3.584-1.498 1.071-.678 1.038-.851-.166-.876-1.333-.027-1.333-.138 0-1 1.265-.818 1.274-.972.059-.985-1.033-.011-.892-.43.5-1.483 1.067-.808 1.405-1.483.75-1.5-.655-.018-1.469.418-1.809.968-.933 1.509-2.167 1.2-2.167-.543 0-.904.574-1.323 1.386-1.011.762.292 1.113.091.781-.446-.355-.574.104-.706 1.112-.319 1.157.444 1.483.281 1-.5-.48-.776-.121-.966 1.086-.575 1.364.441 1.471.346.439-.391-.75-.535-.975-1.179-.5-1.43.475-.251.301-.32-.387-.152-2.325.566-4.596-.787-3.084-1.838.897-.623.515-.719-1.166-.295-2.004.506-2.203.407-1-.5 1.203-.907 1.004-1.006-1-.5-1.925.486-2.155.389-1-.419 1.333-.934 1.333-1.054 0-1.081-1.229-.025-1.254-.187-.137-.894 1.151-.729 1.151-.959 0-1.476-.75-.336-.238-.361 1.137-.055 1.399.311 2.012.197 1.392-.259-.61-.449-.987-1.603-.839-2.566.149-.963-.253-1.757-.891-1.765-.657-.009-.51-.437.338-.985 1.333-.862 1.333-.973 0-1-1.333-.027-1.333-.138 0-1 1.09-.704 1.142-.974.191-.985-.72-.008-1.031-.465-.691-1.015.34-.55.029-1.007-.691-1.015-.951-.011-.899-.281.191-.985 1.333-.862 1.333-.973 0-1-1.333-.027-1.333-.147 0-1.081 1.155-.808.925-.905-1-.419-1.925.486-2.155.389-1-.419 1.333-.934 1.333-1.054 0-1.081-1.333-.027-1.333-.138 0-1s1.333-.973 0-1c-1.333-.027-1.333-.138 0-1 1.265-.818 1.274-.972.059-.985-1.033-.011-.892-.43.5-1.483 1.484-1.123 1.588-1.479.441-1.516-1.333-.041-1.333-.154 0-1.016s1.333-.973 0-1c-1.333-.027-1.333-.147 0-1.081 1.157-.81.956-.896-.875-.377-1.603.453-2.155.316-1.698-.423.436-.706.035-.884-1.125-.502-.991.327-.512-.307 1.064-1.407 2.848-1.989 2.851-2.006.618-2.715-1.752-.556-1.943-.907-.866-1.589 1.082-.685 1.098-.879.073-.891-.72-.008-1.029-.468-.687-1.022.343-.554-.112-1.289-1.011-1.634-1.346-.516-1.137-.955 1.187-2.486 1.649-1.088 2.197-1.869 1.32-1.882-1.282-.018-1.292-.153-.07-.926 1.591-1.007 2.374-4.065 1.041-4.065-.469 0-1.131.45-1.471 1-.34.55-1.154.986-1.809.968-.655-.017-.372-.652.628-1.411 1.733-1.313 1.715-1.412-.382-2.077-1.753-.556-1.92-.894-.819-1.655.967-.669.631-.767-1.118-.325-1.925.486-2.155.389-1-.419 1.333-.934 1.333-1.053 0-1.072-.872-.013-.308-.808 1.348-1.9 1.566-1.032 2.466-2.081 2-2.329-.467-.249-.262-.306.454-.128.716.179 1.03-.115.698-.652-.35-.566.153-.732 1.198-.394 1.507.487 1.556.406.302-.496-1.333-.959-1.333-1.083 0-1.11 1.229-.025 1.254-.187.137-.894-.75-.475-.975-1.07-.5-1.321.475-.251.413-.383-.137-.293-1.55.254-4.194-2.97-3.927-4.788.132-.898-.675-1.919-1.799-2.276-1.646-.522-1.772-.836-.656-1.632 1.073-.764.991-.859-.368-.422-.963.31-1.75.141-1.75-.374s-.749-.65-1.664-.299c-1.111.427-1.426.254-.948-.52.48-.776.121-.966-1.086-.575-1.534.496-1.579.41-.302-.577 1.214-.939 1.023-1.032-1-.491-2.431.65-2.445.626-.5-.903 1.1-.864 1.464-1.586.809-1.603-.655-.018-1.469.418-1.809.968-.34.55-1.154.986-1.809.968-.655-.017-.291-.753.809-1.634 1.71-1.371 1.739-1.513.198-.98-1.068.369-1.553.22-1.191-.365.336-.544.161-.989-.389-.989s-1.278.45-1.618 1c-.34.55-1.154.993-1.809.985-.772-.01-.701-.326.204-.899 2.359-1.494-8.392-.905-11.301.619M203 404.73c0 .786-3.903 1.146-16.75 1.545-3.987.124-7.25.589-7.25 1.034 0 .445-.532.48-1.182.078-1.684-1.04-6.837-1.226-6.217-.224.709 1.148-.336 1.049-2.787-.263-1.571-.841-1.88-.815-1.309.107.517.838.172 1.029-1.13.623-3.457-1.077-3.895.599-4.093 15.674-.181 13.721-.067 14.762 1.564 14.245.967-.307 2.635.104 3.706.915 1.072.81 2.398 1.472 2.948 1.472.55 0 .126-.66-.941-1.468-1.068-.807-1.518-1.517-1-1.578 5.038-.587 7.554-.516 8.013.226.3.486 1.082.87 1.737.852.655-.017.291-.739-.809-1.603-1.945-1.529-1.931-1.553.5-.903 1.871.501 2.126.412 1.014-.351-1.079-.742-.264-.908 2.986-.611 2.949.27 3.97.1 3-.5-.979-.605-.047-.779 2.783-.52 2.445.224 4.012-.003 3.684-.534-.314-.508.24-.661 1.231-.34 1.333.431 1.455.334.468-.373-1.913-1.37.313-2.075 5.301-1.679 2.894.229 3.55.042 2.483-.708-1.121-.788-.94-.908.801-.526 1.239.271 2.029.133 1.757-.307s.515-.841 1.749-.891c4.932-.2 6.571-.591 6.044-1.443-.306-.496.506-.594 1.824-.221 1.633.463 1.949.378 1.012-.271-.904-.627.73-.858 4.863-.687 3.71.153 5.675-.086 4.863-.591-.809-.504.468-.648 3.137-.355 2.957.324 4.019.175 3.097-.434-1.052-.695-.739-.952 1.25-1.024l5.306-.192c2.025-.074 2.321-.326 1.25-1.066-.997-.689-.716-.774.972-.296 1.603.453 2.155.316 1.698-.423-.435-.704-.032-.888 1.125-.513 1.542.499 1.586.411.302-.606-1.538-1.219-.63-1.071 3.333.543.76.31 1.334-.102 1.334-.957 0-1.639-2.324-2.916-3.728-2.048-.484.299-2.356-.221-4.16-1.155-1.803-.934-4.523-1.845-6.044-2.023-1.521-.179-4.122-1.026-5.78-1.883-1.657-.857-3.52-1.246-4.139-.863-.734.453-.844.24-.316-.614.506-.819.416-1.066-.239-.661-.577.356-2.691-.039-4.699-.877-2.007-.839-4.15-1.217-4.761-.839-.719.444-.825.225-.301-.623.526-.852.418-1.067-.311-.617-.616.381-2.936-.234-5.155-1.366-2.219-1.131-4.034-1.711-4.034-1.287" fill="#d3d3d3" fill-rule="evenodd"/></svg>