<svg xmlns="http://www.w3.org/2000/svg" width="500" height="393"><path d="M261.735 90.588c-.421.426-7.396.687-15.5.58-15.967-.212-27.402 1.142-29.786 3.525-1.171 1.172-1.819 1.245-2.923.328-1.121-.93-3.396-.332-10.842 2.849-5.183 2.215-10.634 4.33-12.115 4.702-4.496 1.128-23.797 11.398-28.237 15.024-2.293 1.872-4.607 3.404-5.143 3.404-.536 0-1.248.712-1.582 1.582-.843 2.197-.782 2.418.671 2.418 1.19 0 4.722 3.391 4.722 4.533 0 .281-2.757 2.292-6.126 4.47s-6.632 4.571-7.25 5.318c-.618.747-3.253 2.14-5.856 3.095-5.201 1.908-12.647 9.375-12.939 12.975a67.098 67.098 0 01-.394 3.609c-.122.825-.27 4.789-.329 8.809-.067 4.593-.478 7.079-1.106 6.691-.55-.34-1-2.616-1-5.059 0-5.362-2.349-6.16-3.509-1.191-.893 3.826-.892 3.393-.021 7.5.791 3.731-.628 4.362-2.25 1-1.032-2.141-1.088-2.099-1.152.878-.038 1.72.643 3.717 1.512 4.439.911.756 1.396 2.276 1.146 3.587-.24 1.252.03 2.431.599 2.621.569.19.732 1.134.362 2.098-.37.965-1.126 1.474-1.68 1.131-.554-.342-1.007.031-1.007.83 0 .799.646 1.7 1.434 2.002 1.674.642.864 3.785-3.195 12.404-1.927 4.093-2.355 6.283-1.956 10.001.529 4.915 3.465 12.259 4.902 12.259.448 0 .815 1.186.815 2.635 0 1.449.481 5.611 1.068 9.25 3.155 19.529 3.761 20.842 9.842 21.305 4.005.305 4.862 1.983 2.7 5.283-2.241 3.419-2.089 4.105 2.004 9.101 3.834 4.679 8.046 6.486 14.274 6.123 3.011-.175 3.514.172 4.53 3.129 3.191 9.285 14.487 17.407 22.819 16.407 2.555-.307 5.015.218 7.781 1.659 2.224 1.159 5.777 2.108 7.897 2.108 2.888 0 5.447 1.078 10.219 4.305 6.796 4.596 9.917 4.932 15.866 1.712 3.447-1.866 12-8.311 12-9.042 0-.329.918-1.583 2.039-2.786 2.764-2.967 8.213-2.937 11.211.061 1.238 1.238 3.361 2.25 4.718 2.25 1.74 0 3.068 1.001 4.5 3.392 5.8 9.682 10.034 11.072 20.128 6.608 3.109-1.375 7.059-2.52 8.778-2.544 3.621-.051 11.438-2.043 13.632-3.474 1.943-1.267 6.994-8.038 6.994-9.376 0-1.744 4.262-5.106 6.473-5.106 2.177 0 5.527 4.487 5.527 7.404 0 1.777 1.543 2.144 2.5.596.34-.55 4.612-1 9.493-1 8.873 0 8.874 0 9.191 2.673.472 3.989 2.091 3.85 7.263-.627 2.571-2.226 4.985-4.049 5.364-4.052.379-.004 1.484-1.403 2.455-3.109 1.422-2.499 2.041-2.875 3.178-1.931 1.713 1.421 7.556-1.178 7.556-3.362 0-.746 2.033-3.546 4.518-6.224 3.287-3.542 4.379-5.45 4.01-7.004-.554-2.325 1.852-5.177 2.915-3.456.342.552 1.282.751 2.089.441 1.752-.672 1.976-3.349.281-3.349-.653 0-.044-1.237 1.353-2.75 5.453-5.904 8.776-11.794 7.227-12.808-1.215-.795-.875-2.658 2.183-11.942 7.845-23.82 5.029-57.53-6.016-72.01-1.268-1.662-4.412-7.065-6.986-12.006-2.575-4.941-5.864-11.009-7.309-13.484-3.237-5.543-24.911-27-27.274-27-.945 0-2.792-1.046-4.105-2.325-6.681-6.51-18.02-12.172-32.386-16.174-2.75-.766-8.304-2.542-12.342-3.946-4.038-1.404-9.438-2.82-12-3.147-9.454-1.208-17.679-1.574-18.423-.82" fill="#d3d3d3" fill-rule="evenodd"/></svg>