<svg xmlns="http://www.w3.org/2000/svg" width="500" height="623"><path d="M0 311.502v311.502l250.25-.252 250.25-.252.252-311.25L501.003 0H0v311.502m.494.498c0 171.325.115 241.413.256 155.75.141-85.662.141-225.837 0-311.5C.609 70.588.494 140.675.494 312M254 161.035c0 .57.699 2.103 1.554 3.408 1.864 2.844.639 3.961-2.877 2.624-2.203-.837-2.578-.636-3.252 1.743-1.16 4.094-1.166 4.121-1.3 5.19-.069.55-.561 1-1.094 1-.532 0-.681-.749-.33-1.664.43-1.119.256-1.427-.531-.941-2.493 1.541-.805 6.04 2.285 6.09.525.008 1.2.966 1.5 2.127.425 1.648.985 1.939 2.545 1.321 1.695-.672 1.733-.803.25-.863-.963-.038-1.75-.692-1.75-1.453 0-1.174.598-1.177 3.964-.017 2.18.751 4.767 1.058 5.75.683 2.658-1.015 5.746-4.156 4.909-4.993-.403-.403-1.099-.138-1.547.587-.632 1.023-1.294.805-2.946-.967-2.585-2.776-2.74-4.076-.38-3.191 1.494.559 1.561.423.458-.935-.96-1.182-.99-1.69-.117-1.981 1.877-.626.137-4.378-2.61-5.63-1.365-.621-2.481-1.59-2.481-2.152 0-.561-.45-1.021-1-1.021s-1 .466-1 1.035m34.446 12.052c-.369.598-1.521.865-2.559.594-1.038-.272-1.887-.059-1.887.472 0 .531-.45.687-1 .347-.552-.341-1 .375-1 1.596 0 2.169-.042 2.176-2.05.359-1.765-1.598-2.488-1.69-5.198-.667-1.878.708-3.38.814-3.722.26-.316-.51-1.579.539-2.807 2.331-2.031 2.964-2.329 5.151-3.302 24.19-.588 11.512-2.004 32.406-3.147 46.431-2.388 29.306-2.279 27.911-3.67 46.941-.581 7.942-.916 14.581-.744 14.752.171.172 5.673-1.41 12.226-3.515 6.553-2.105 15.289-4.838 19.414-6.073 4.125-1.234 8.805-2.663 10.399-3.175 5.11-1.639 5.976-1.222 3.635 1.754-1.521 1.934-1.939 3.472-1.494 5.5.341 1.549.23 2.816-.245 2.816s-1.661 1.35-2.636 3c-.975 1.65-1.359 3-.855 3 .505 0 .792 1.576.64 3.502-.245 3.078.044 3.572 2.389 4.083 4.7 1.026 5.167 1.317 5.167 3.231 0 2.025-5.41 2.948-6.542 1.117-.317-.513-1.256-.933-2.087-.933-2.774 0-16.382-6.174-15.774-7.157.329-.533-.052-1.728-.847-2.656-.795-.928-1.809-2.587-2.253-3.687-.795-1.972-.813-1.972-1.266-.038-.253 1.079.082 2.142.744 2.363 2.666.889-3.535 2.802-6.468 1.997-1.647-.452-3.763-.822-4.703-.822-2.619 0 2.388 5.031 5.36 5.385 4.569.544 9.836 3.558 9.836 5.628 0 1.371.672 1.987 2.167 1.987 1.191 0 1.882.284 1.535.631-1.414 1.414 1.403 4.389 3.752 3.963 1.86-.337 2.503.1 2.988 2.029.339 1.352 1.022 2.208 1.518 1.902.496-.307 1.214-.052 1.596.565.493.798.975.731 1.663-.233.739-1.034.836-.94.407.393-.407 1.265-.017 1.75 1.405 1.75 1.352 0 1.994-.705 2.048-2.25.043-1.238.305-1.692.58-1.009.37.916.94.803 2.171-.429 1.56-1.559 1.692-1.555 2.004.065.184.953.859 1.557 1.5 1.341.641-.217 1.714.321 2.384 1.194 1.099 1.432 1.222 1.416 1.25-.162.036-1.969 2.014-2.448 2.063-.5.052 2.06 4.969 5.264 4.969 3.238 0-.883.45-1.328 1-.988.55.34 1 .055 1-.632 0-.688.661-.377 1.468.691 1.716 2.268 2.187.002.532-2.559-.533-.825-.976-1.163-.985-.75-.008.413-.915-.15-2.015-1.25s-2.788-2.007-3.75-2.015c-1.513-.014-1.547-.162-.25-1.095 1.297-.933 1.28-1.009-.126-.563-1.032.327-2-.308-2.653-1.741-1.311-2.878 2.177-5.814 7.906-6.653 4.452-.652 4.977.138 1.373 2.067-1.375.736-2.5 2.162-2.5 3.169 0 1.718.123 1.708 2-.169 1.1-1.1 2.413-2 2.918-2 2.32 0 4.082 1.388 4.082 3.215 0 1.692.426 1.89 2.75 1.28 5.352-1.403 8.707-1.078 9.084.881.495 2.57-.57 3.341-6.824 4.942-4.814 1.232-5.174 1.49-2.991 2.145 2.659.797 11.781 4.505 18.758 7.625 5.378 2.404 6.514 2.404 5.75-.004-.335-1.054-.178-2.182.349-2.507 1.633-1.01-1.92-8.577-4.028-8.577-1.016 0-1.848-.381-1.848-.847 0-1.433 7.01-8.153 8.506-8.153.775 0 2.665-1.575 4.201-3.5 1.536-1.925 3.396-3.5 4.133-3.5.737 0 2.184-1.012 3.216-2.25 1.605-1.924 1.882-1.996 1.911-.5.018.962.469 1.75 1.002 1.75.532 0 .689.729.347 1.62-.526 1.37-.021 1.54 3.281 1.106 5.744-.756 12.797-2.898 13.634-4.141.815-1.209-2.061-3.808-3.339-3.019-.447.277-3.643-.931-7.102-2.684-9.483-4.804-16.114-6.968-17.015-5.552-1.372 2.157-.807 6.552.975 7.59 1.122.653 1.272 1.03.417 1.05-.734.016-1.144.593-.913 1.28.232.688-.293 1.798-1.166 2.468-2.075 1.592-6.461 1.694-5.493.127.417-.674.277-.884-.336-.505-.577.357-1.307-.024-1.623-.846-.315-.822-1.6-1.501-2.855-1.509-1.688-.012-1.923-.243-.903-.889 1.768-1.119.569-3.096-1.878-3.096-1.035 0-2.16-.45-2.5-1-.34-.55-.115-1 .5-1s.84-.45.5-1c-.34-.55-1.379-.993-2.309-.985-1.457.014-1.484.15-.191.985 1.705 1.102.051 1.341-2.502.361-1.3-.499-1.379-.817-.361-1.446.718-.443.956-1.155.53-1.582-.427-.426-1.145-.177-1.597.553-.531.86-1.616 1.075-3.077.612-1.603-.509-1.891-.943-.995-1.497 1.447-.894-1.357-5.416-3.998-6.447-2.737-1.069-6.516-3.524-5.5-3.573.55-.026.01-.874-1.201-1.885l-2.2-1.837 3.7-1.531c2.036-.843 8.538-3.033 14.451-4.868 11.202-3.475 12.152-4.297 8.619-7.455-1.172-1.048-6.429-7.022-11.681-13.276-5.253-6.254-10.946-12.851-12.652-14.659-4.042-4.286-5.966-7.966-4.99-9.545.552-.892.296-1.078-.867-.632-1.063.408-2.022-.065-2.699-1.33-.827-1.546-.731-1.963.453-1.963.924 0 1.283-.577.931-1.494-.316-.822-.929-1.275-1.364-1.006-1.141.705-2.05-2.207-1.299-4.164.476-1.24.277-1.454-.781-.84-.781.454-1.082.452-.668-.005.414-.456.007-1.653-.905-2.66-.911-1.007-1.346-1.831-.967-1.831.38 0 .225-.869-.343-1.931-.773-1.445-.657-2.307.465-3.428.824-.824 1.498-2.588 1.498-3.92 0-1.333.506-3.875 1.125-5.65.831-2.382.832-3.87.006-5.683-.867-1.903-.828-2.567.175-2.952 1.303-.5 1.94-10.436.668-10.436-.344 0-1.646 1.087-2.895 2.415-1.248 1.329-3.261 2.665-4.474 2.969-2.729.685-5.567 6.365-4.906 9.821.556 2.91-1.307 7.155-2.749 6.264-.523-.323-.95.066-.95.865 0 3.299-2.938 2.362-6.651-2.12-2.117-2.556-5.536-6.349-7.599-8.43-3.813-3.847-4.451-5.233-2.863-6.214.751-.464 2.204-5.66 2.536-9.07.053-.55 2.356-3.25 5.117-6 4.803-4.784 4.943-5.076 3.24-6.75-2.018-1.984-4.339-2.272-5.334-.663m122.328 152.917c1.801 1.098 3.641 1.996 4.09 1.996.701 0 3.136 4.287 3.136 5.522 0 .932-6.69-.87-9.807-2.642-3.985-2.265-5.089-2.297-7.693-.223-1.984 1.58-1.983 1.589.139 1.091 1.177-.277 2.752-.115 3.5.359.973.616 1.009.867.128.878-.678.008-2.478 1.108-4 2.444A982.402 982.402 0 01394 340.87c-3.065 2.637-3.349 3.258-2.286 4.999.952 1.559.952 2.105 0 2.531-.77.344-.666.509.286.452 3.678-.219 4.194.097 2.66 1.63-1.724 1.725-1.067 5.518.957 5.518 1.282 0 1.94 2.142 1.384 4.5-.13.55-.304 1.675-.387 2.5-.257 2.539-2.66 6.09-3.691 5.453-.537-.332-.852-1.311-.7-2.175.153-.864-.246-1.754-.886-1.979-1.62-.568-4.445 9.673-3.816 13.834.279 1.852.757 5.61 1.061 8.351.626 5.65.585 5.57 3.076 5.937 1.337.197 1.851 1.142 1.876 3.449.023 2.185-.368 3.024-1.25 2.685-.706-.271-1.284-.153-1.284.261 0 1.135-6.222 4.661-8.481 4.806-1.09.07-2.454-.518-3.03-1.306-.824-1.127-1.649-1.206-3.853-.368-1.542.587-3.216.812-3.72.5-.504-.311-.916-.089-.916.493s-.623 1.059-1.383 1.059c-1.559 0-2.76 3.463-1.942 5.596.297.772 1.241 1.404 2.099 1.404 2.131 0 1.278.586-1.997 1.372-2.272.544-2.617.375-2.08-1.024.43-1.122.26-1.439-.516-.96-.756.468-.952.178-.563-.836.328-.854.146-1.552-.404-1.552s-1.273.712-1.607 1.582c-.829 2.161-.763 2.633.279 1.988.926-.572 2.077 2.598 2.1 5.787.01 1.263-.478 1.668-1.524 1.267-.914-.351-1.796.082-2.175 1.07-.564 1.471-.718 1.441-1.352-.267-.645-1.739-.821-1.658-1.8.823-.597 1.512-1.768 2.75-2.602 2.75-.834 0-2.078.9-2.765 2-.687 1.1-1.986 2-2.886 2-.9 0-2.193.67-2.873 1.489-.68.819-1.706 1.199-2.28.844-.654-.405-.839.139-.495 1.455.441 1.684-.008 2.223-2.259 2.717-1.544.34-3.056 1.265-3.36 2.056-.304.791-1.22 1.439-2.037 1.439-2.305 0-5.297 6.932-3.486 8.078.774.49.914.898.311.907-.604.008-1.586 1.027-2.183 2.265-.901 1.87-1.096 1.944-1.152.441-.038-.995-.523-1.528-1.079-1.184-.639.395-.456 1.416.5 2.781 1.896 2.707 1.925 5.155.081 6.999-1.784 1.785-.122 5.478 4.729 10.507 2.647 2.743 2.929 3.45 1.689 4.234-1.086.687-1.134.946-.179.957.72.008 1.031.465.691 1.015-.34.55.196 1.029 1.191 1.063 1.457.051 1.371.24-.441.968-1.238.498-2.25 1.396-2.25 1.996 0 .6-.419.832-.931.516-.512-.317-1.205-.131-1.541.411-.558.903.907 1.476 5.772 2.257 2.085.335 7.384 13.569 7.623 19.039.14 3.181 11.238.534 13.568-3.236.345-.558 1.482-1.014 2.528-1.014 1.045 0 3.718-1.782 5.941-3.96 2.222-2.179 4.04-3.736 4.04-3.461 0 .598 2.497-1.397 4.793-3.829.908-.962 2.425-1.75 3.37-1.75 3.229 0 4.725-4.78 2.112-6.75-.911-.687-1.231-1.25-.71-1.25 1.406 0 1.075-9.287-.348-9.761-.781-.26-.899-.985-.339-2.07.474-.918.738-2.437.587-3.375-.151-.939.357-2.231 1.13-2.873.859-.713 1.378-2.963 1.335-5.793-.041-2.71-.352-3.918-.751-2.915-.444 1.121-1.142 1.428-2.015.889-1.636-1.012-1.499-2.074.562-4.352 1.456-1.608 1.429-1.756-.321-1.829-1.056-.044-1.348-.304-.655-.583.688-.278 1.25-1.129 1.25-1.893 0-.763 1.462-1.765 3.25-2.226 3.022-.78 3.286-1.191 3.762-5.862.429-4.213 3.988-10.841 3.988-7.428 0 .589.603 1.071 1.341 1.071 1.792 0 3.61 8.809 3.478 16.853-.073 4.418.319 6.631 1.288 7.268 1.144.752 1.058 1.112-.477 2.014-1.51.887-1.607 1.266-.5 1.967 1.582 1.003 10.909.075 12.32-1.226.522-.482 1.647-.907 2.5-.944 2.376-.105 11.335-11.082 11.785-14.44.216-1.618.853-3.496 1.415-4.173s.751-1.67.42-2.206c-.332-.536.53-2.197 1.914-3.69 1.384-1.493 2.517-2.312 2.518-1.819 0 .493.788-.679 1.75-2.604 1.7-3.404 3.591-4.028 9.419-3.106.368.058.943 1.344 1.276 2.856.58 2.635 6.553 7.324 6.553 5.144 0-.556.412-.758.915-.447.503.311 1.142 0 1.421-.691.305-.758.537-.562.585.494.043.962.517 1.75 1.053 1.75 1.256 0 4.145 5.548 3.319 6.373-.344.345-.053.627.649.627.857 0 1.071.811.654 2.473-.46 1.834-.271 2.339.734 1.954.977-.375 1.304.329 1.173 2.527-.117 1.969.292 3.046 1.158 3.046.736 0 1.339.45 1.339 1s.419 1 .931 1c.549 0 .707-4.005.384-9.75-.3-5.363-.484-10.312-.407-11 .606-5.422-.168-14.25-1.248-14.25-.498 0-.345-.675.34-1.5s.831-1.5.326-1.5c-.506 0-.977-1.992-1.046-4.426-.308-10.708-4.2-32.127-7.01-38.574-.839-1.925-1.672-4.602-1.851-5.948-.179-1.347-1.26-3.597-2.403-5-1.143-1.404-2.977-3.961-4.075-5.682-1.099-1.722-4.572-4.897-7.719-7.057a2578.913 2578.913 0 01-13.524-9.37c-10.32-7.199-14.877-9.907-16.698-9.923-.825-.007-.027.886 1.774 1.984m-170.673 19.257c-4.619 8.932-8.894 16.86-9.5 17.619-1.308 1.641-6.325 10.351-10.579 18.37-1.678 3.163-3.494 5.75-4.036 5.75-.542 0-.986.869-.986 1.93 0 1.633.426 1.808 2.766 1.137 1.989-.57 3.165-.366 4.186.727 1.244 1.331 6.097 1.44 38.984.871 20.66-.357 43.512-.653 50.783-.657 11.046-.007 13.128-.243 12.67-1.437-.43-1.121-2.313-1.352-8.719-1.068-4.493.199-14.02-.264-21.17-1.028-7.15-.764-19.3-1.451-27-1.525-7.7-.075-15.638-.548-17.641-1.052-2.56-.644-5.771-.468-10.815.593-8.115 1.707-11.885 1.921-8.272.47 1.25-.502 2.557-1.711 2.905-2.687.349-.976 1.1-2.374 1.67-3.107.57-.734 1.158-2.084 1.306-3 .48-2.965 4.507-18.577 5.588-21.667 11.093-31.698 10.479-34.636-2.14-10.239" fill="#d3d3d3" fill-rule="evenodd"/></svg>