<svg xmlns="http://www.w3.org/2000/svg" width="500" height="497"><path d="M88 1c0 .55-1.741 1-3.87 1h-3.87l-.539 4.75c-.296 2.613-.093 5.29.451 5.95.976 1.183.684 8.259-.724 17.55-.694 4.583-.838 4.75-4.084 4.75H72v20.05l-2.75.975c-1.513.537-3.531 1.426-4.486 1.975-.955.55-2.553 1-3.55 1-.998 0-2.245.431-2.772.958-1.547 1.547-4.074-.491-2.685-2.165.724-.872.796-1.886.201-2.827-.51-.806-.934-5.763-.943-11.016C55 34.566 54.22 32 51.384 32c-.669 0-1.814 1.35-2.544 3-1.704 3.849-2.03 3.787-4.661-.895-1.204-2.142-2.962-4.191-3.906-4.554-1.471-.564-1.507-.792-.245-1.589 1.23-.778 1.179-.934-.309-.947-.98-.008-2.03.632-2.333 1.422-.308.802-1.287 1.202-2.219.906-1.43-.456-1.453-.378-.167.547 1.02.734 1.1 1.084.25 1.095-2.318.028-1.272 1.792 1.5 2.53 1.512.402 2.235.923 1.605 1.157-.832.308-.858 1.184-.097 3.2 1.443 3.825.238 8.128-2.277 8.128-1.09 0-1.995.563-2.013 1.25-.017.688-.697 2.13-1.51 3.205-1.809 2.392-4.053.708-4.821-3.617-.568-3.2-2.601-7.208-3.3-6.508-.68.679-.492 26.318.303 41.42.354 6.737.329 12.25-.055 12.25-.892 0-9.634-4.839-11.481-6.355-.767-.63-2.534-1.615-3.925-2.189-1.497-.617-3.04-2.454-3.778-4.5L4.152 77.5l-.182 5c-.1 2.75-.098 6.26.005 7.8.102 1.541-.338 3.432-.978 4.204-1.817 2.189.408 26.93 2.349 26.112 5.154-2.172 8.809-2.861 9.819-1.851 1.9 1.9.104 4.079-4.362 5.293-2.367.644-4.866 1.33-5.553 1.525-.713.202-1.257 1.978-1.265 4.136-.012 2.809-.265 3.396-.985 2.281-.665-1.029-.974 1.379-.985 7.667-.008 5.041.39 9.316.886 9.5.495.183 1.072 6.166 1.282 13.296l.382 12.963 3.188 1.862c1.972 1.151 6.097 2.082 10.811 2.438l7.623.577-.659-39.157c-.711-42.264-.473-45.972 2.529-39.267 1.838 4.104 1.868 4.121 7.337 4.121h5.491l.308 4.098.307 4.098 4-3.175c2.2-1.746 5.35-5.277 7-7.848 2.249-3.503 3.532-4.597 5.126-4.37 1.17.167 5.107-1.306 8.75-3.273C70.963 93.054 73 92.38 73 93.338c0 .927.909 1.271 2.75 1.042 2.744-.342 2.745-.341.25.539-2.417.852-2.14 1.265 1 1.496.937.068 1.388.916 1.202 2.259-.324 2.341 1.276 3.98 2.288 2.342.719-1.164 6.527-1.402 6.477-.266-.017.412-1.663 1.515-3.657 2.451-4.317 2.026-7.407.957-7.044-2.436.15-1.396-.397-2.314-1.516-2.547-1.575-.328-1.75.641-1.75 9.672v10.038l9.562.286 9.563.286-.091 28.235-.091 28.235 4.778-.55c8.903-1.023 9.05-1.103 9.764-5.333.365-2.156.344-6.047-.046-8.646-.844-5.629.771-5.429 2.608.323 3.142 9.839 8.466 16.236 13.51 16.236 1.045 0 1.449.541 1.094 1.467-.873 2.275 2.121 11.109 4.874 14.38 1.361 1.618 2.475 3.615 2.475 4.439 0 1.274 3.413 2.968 6.366 3.158.967.063.965-36.899-.004-51.12-.581-8.527-.753-9.097-2.432-8.048-2.309 1.442-6.239 9.268-9.153 18.224l-2.277 7-.32-15c-.175-8.25-.013-22.799.361-32.331.671-17.076.712-17.322 2.828-16.791 2.653.666 4.061-.265 4.358-2.878.343-3.023-1.697-6.276-4.355-6.943-1.467-.368-2.372-1.329-2.372-2.517 0-3.433-1.763-3.118-2.429.434-.739 3.939-2.081 5.178-3.939 3.636-.864-.718-1.608-.734-2.293-.049-1.586 1.586-6.451-.605-5.699-2.566.332-.863-.221-2.479-1.227-3.591-2.684-2.965-.81-5.094 5.934-6.74 5.523-1.348 5.704-1.325 7.622.978l1.964 2.358.034-2.75c.041-3.444 2.108-3.582 8.94-.599l4.925 2.151.334 5.35c.289 4.634.09 5.351-1.489 5.349-1.216-.001-1.696.582-1.441 1.749.211.963.919 1.638 1.573 1.5.885-.186 1.191 4.221 1.191 17.156 0 16.817.067 17.389 1.967 16.892 1.082-.282 2.242-1.478 2.579-2.656 1.477-5.161 3.749-8.707 7.465-11.651 3.018-2.39 3.989-3.869 3.989-6.075 0-1.604.45-2.916 1-2.916.6 0 1-3.978 1-9.935 0-5.464.484-11.202 1.076-12.75.592-1.548 1.335-6.773 1.651-11.611.51-7.803.854-9.016 3.042-10.737 1.356-1.067 2.831-1.714 3.277-1.439.445.276 1.105-.429 1.466-1.566.489-1.54.981-1.797 1.932-1.008 1.68 1.394.81 6.081-.999 5.386-1.873-.718-3.632.551-2.742 1.979.404.65.608 2.17.452 3.378-.238 1.841.166 2.165 2.494 2 3.568-.253 3.517-1.067 2.539 40.303-.575 24.358-1.018 31.623-1.766 29-.846-2.969-1.978-3.983-7.46-6.684-8.185-4.032-7.962-4.05-7.962.639 0 5.293 9.019 14.041 14.482 14.047 1.182.001-.467 1.305-3.982 3.146-3.3 1.729-6.15 3.528-6.333 3.998-.184.47-1.196.854-2.25.854-1.816 0-1.917.92-1.917 17.5 0 9.625.225 17.5.499 17.5.275 0 2.638-1.174 5.25-2.609 4.015-2.204 5.177-2.44 7.501-1.524l2.75 1.083v17.458c0 19.805.024 19.753-8.052 17.578-5.374-1.447-5.463-1.216-1.281 3.347 1.928 2.105 3.73 3.603 4.003 3.33.273-.273 1.359.366 2.413 1.42 1.801 1.801 1.917 3.671 1.917 30.952 0 32.75.425 31.422-7.452 23.312-1.93-1.988-4.644-4.203-6.029-4.922L152 280.119v31.853l3.943 2.609c2.169 1.435 4.081 3.574 4.25 4.754.173 1.212 1.177 2.303 2.307 2.508 3.206.583 5.5 3.24 5.5 6.371 0 3.723-.505 3.364-9.181-6.519-6.713-7.647-10.819-10.935-10.819-8.663 0 .533.45.968 1 .968s1 .675 1 1.5.389 1.5.865 1.5c.475 0 .769 3.712.652 8.25-.117 4.538-.282 13.547-.365 20.021L151 357.042l-7.985-.271c-5.249-.178-8.152-.699-8.469-1.521-.274-.709-2.203-1.25-4.458-1.25-2.956 0-4.368-.561-5.508-2.19-.844-1.204-1.712-1.991-1.93-1.75-.542.602-1.466 37.165-.974 38.545.217.607 1.503.892 2.859.633 1.639-.313 2.476-.013 2.497.895.017.752.655 2.189 1.417 3.194 1.309 1.728 1.526 1.736 3.96.14l2.576-1.687-.398 7.86c-.218 4.323-.44 13.148-.492 19.61-.081 10.045-.326 11.75-1.689 11.75-.876 0-1.827-.895-2.113-1.989-.286-1.094-.976-1.707-1.534-1.362-.646.399-.782 4.291-.375 10.739.351 5.561.885 15.207 1.186 21.434.571 11.805 2.175 19.488 2.438 11.678.412-12.242 1.233-16.922 3.64-20.734 2.702-4.281 2.417-5.912-.693-3.97-1.77 1.106-1.955.948-1.955-1.663 0-6.531 1.071-9.165 3.253-7.998 1.107.593 3.866.822 6.13.508l4.117-.57-3.238 1.64c-3.285 1.662-4.919 4.415-3.747 6.312.388.628 2.018-.163 4.1-1.991 6.206-5.449 6.385-5.062 6.385 13.779v16.812l6 3.375c3.3 1.856 6 3.635 6 3.954 0 .872-10.613 7.043-12.156 7.068-3.907.064-9.844 3.942-9.844 6.429V497h12.5c11.226 0 12.503-.178 12.532-1.75.03-1.667.095-1.667 1.36 0 1.047 1.379 2.841 1.75 8.468 1.75 6.739 0 7.14-.126 7.136-2.25-.004-2.693-7.123-6.082-10.746-5.117-1.726.461-2.273.166-2.35-1.266-.076-1.429-.306-1.281-.982.633-.601 1.701-.72.422-.373-4 .28-3.575.787-10.236 1.126-14.802.529-7.11.848-8.203 2.223-7.615 9.505 4.063 12.103 3.998 12.111-.302l.005-2.781 7.995-.208c7.601-.197 7.995-.1 7.995 1.963 0 1.203 1.874 4.079 4.208 6.457 2.315 2.358 3.691 4.288 3.059 4.288-.632 0-1.427-.45-1.767-1-.34-.55-1.779-1-3.198-1-2.505 0-2.563.145-1.995 4.946.322 2.721 1.299 6.325 2.17 8.009 1.491 2.883 1.464 3.192-.447 5.243-1.193 1.28-2.03 3.545-2.03 5.491V497h18v-26.223l-3.5.657c-3.67.688-4.299-.188-2.848-3.97.565-1.472.821-1.384 1.924.669 1.111 2.068 1.213 1.546.804-4.133-1.006-13.985-1.272-15-3.941-15-1.342 0-2.476-.562-2.522-1.25-.046-.687-.196-2.262-.333-3.5-.137-1.237.013-2.251.333-2.252.321-.001.679-1.372.796-3.045.248-3.538-1.944-4.914-4.894-3.072-1.774 1.108-1.917.881-1.935-3.093-.033-7.056-.537-26.176-.733-27.788-.114-.942-.455-1.11-.916-.451-.404.576-2.598 1.592-4.875 2.257-2.386.696-4.831 2.264-5.773 3.701-.898 1.371-2.523 2.493-3.61 2.493-1.64 0-1.977.682-1.977 4 0 4.482.366 4.662 4.883 2.408 2.575-1.284 3.482-1.35 4.696-.342 1.171.971 1.773.982 2.705.05.773-.773.845-1.451.204-1.908-2.235-1.591-1.654-5.811.964-7.004l2.548-1.161v33.544l-4.142 1.105c-3.556.949-4.582.838-7.25-.789-4.18-2.549-4.595-2.43-4.687 1.347-.043 1.788-.306 2.688-.583 2-.278-.688-1.592-1.25-2.921-1.25-1.482 0-2.417-.58-2.417-1.5 0-.825-.6-1.5-1.333-1.5-2.284 0-2.712 1.244-.901 2.619 1.533 1.165 1.3 1.321-2.016 1.349L169 446v-5.393c0-4.071.401-5.547 1.636-6.021 1.509-.579 1.506-.772-.038-2.478-1.544-1.706-1.626-7.092-1.055-69.227.341-37.057.801-67.558 1.023-67.78.222-.222 1.597.789 3.055 2.247 1.954 1.954 3.669 2.652 6.515 2.652H184v5.417c0 3.355.476 5.638 1.25 6 1 .466 1 .7 0 1.166-1.752.818-1.76 28.627-.009 31.431.987 1.581.987 2.391 0 3.972-1.358 2.174-1.721 11.014-.453 11.014 1.977 0 10.211-9.716 10.198-12.034-.024-4.473-1.148-6.966-3.14-6.966-1.642 0-1.3-.905 2.36-6.25 4.048-5.91 4.315-6.74 4.903-15.25.515-7.461.355-9.214-.935-10.25-1.384-1.112-1.354-1.25.271-1.25 1.598 0 1.747-.581 1.191-4.64-.35-2.551-.636-7.168-.636-10.259 0-6.597-1.075-7.644-8.913-8.684l-5.087-.675-.168 6.379c-.11 4.176-.304 5.084-.56 2.629l-.393-3.75h-14.077l.72-72.25c.439-43.964 1.1-72.724 1.69-73.461.633-.791.551-2.477-.235-4.857-.793-2.405-1.002-6.929-.612-13.289.324-5.304.6-11.45.612-13.658.022-3.909.155-4.063 5.023-5.791 4.724-1.678 6.307-3.768 3.954-5.222-1.348-.833-.728-6.376.82-7.332.829-.513.268-1.847-1.867-4.437-3.654-4.433-3.962-4.48-6.149-.953-1.643 2.651-1.706 2.06-1.731-16.387L172 51.227l3.25-.514c1.914-.302 4.161.062 5.465.887 4.36 2.756 4.333 1.303-.091-4.85-3.376-4.695-5.008-6.172-6.559-5.937-1.747.265-2.065-.217-2.065-3.128 0-1.932-.701-4.022-1.599-4.767-.879-.73-3.535-4.272-5.902-7.872-2.367-3.6-5.248-7.54-6.401-8.754-1.154-1.215-2.144-3.24-2.2-4.5-.077-1.718-.35-1.415-1.092 1.208-1.772 6.263-2.773 8.138-3.956 7.407-.795-.491-.949.062-.507 1.823.836 3.33-1.534 10.995-4.903 15.856-2.088 3.014-2.965 5.98-3.89 13.153-.656 5.093-1.723 10.244-2.371 11.445-.649 1.202-1.179 4.464-1.179 7.25 0 2.786-.366 5.066-.813 5.066-1.05 0-6.187-5.35-6.187-6.444 0-.46-.734-1.372-1.63-2.027-.897-.656-1.911-2.919-2.254-5.029-1.223-7.524-3.116-5.299-3.12 3.667l-.003 8.333-1.835-3c-3.184-5.208-8.93-7.492-12.283-4.882-2.808 2.186-3.875 2.492-3.875 1.11 0-.765 1.125-1.992 2.5-2.728 1.375-.736 2.5-1.689 2.5-2.117 0-.429-1.125-1.994-2.5-3.478-4.541-4.899-3.585-9.29 3.614-16.601 7.586-7.705 10.49-9.427 11.215-6.653.453 1.733 1.289 1.908 7.828 1.644l7.32-.295-.299-13.75c-.312-14.36-.15-14.876 3.981-12.665 3.081 1.649 6.841.327 6.841-2.404C149 4.768 150.775 3 153.7 3c1.378 0 2.3-.601 2.3-1.5 0-1.222-1.667-1.5-9-1.5s-9 .278-9 1.5c0 .825-.436 1.5-.969 1.5-.532 0-.709-.675-.393-1.5.479-1.247-.625-1.5-6.531-1.5H123l-.004 8.75-.005 8.75-6.694 3.5c-7.031 3.676-8.29 5.288-4.547 5.82 3.047.432 2.831 2.019-.89 6.534-3.179 3.857-5.553 3.521-4.27-.604 1.034-3.323-1.567-1.74-3.077 1.872-1.905 4.561-1.908 5.744-.013 5.016.89-.341 1.5-.01 1.5.816 0 .765-1.596 1.918-3.547 2.561-3.041 1.004-4.062 2.228-7.162 8.582-1.989 4.076-3.73 7.297-3.869 7.157-.445-.448-2.555-49.954-2.146-50.364 1.103-1.102 10.446 2.918 13.371 5.753L105 17.392v-4.696C105 8.51 105.241 8 107.223 8h2.222l-2.227-1.56c-1.664-1.165-2.072-2.175-1.614-4l.613-2.44h-9.109C91.703 0 88 .407 88 1m116 15.555V33.11l5.576 2.466c5.769 2.551 6.48 4.163 2.609 5.911-1.202.543-2.185 1.696-2.185 2.562 0 .866-1.35 2.573-3 3.793-6.756 4.995-2.352 11.658 7.706 11.658h5.293v-4.193c.001-3.055.542-4.573 1.995-5.59 1.096-.768 1.696-1.694 1.333-2.057-1.464-1.463 4.034-.532 7.909 1.34 4.872 2.354 4.836 2.347 4.514.787-.234-1.136-3.97-2.924-9.75-4.666-1.765-.532-2.597-1.583-2.83-3.575-.236-2.019.049-2.68 1-2.323 2.776 1.04 10.273-10.028 10.933-16.141l.603-5.582.147 5.661c.146 5.637.165 5.669 4.463 7.75 2.373 1.149 4.833 2.089 5.465 2.089.632 0 2.687 1.35 4.566 3s3.711 3 4.07 3c.358 0 .524-8.779.368-19.51L254.5-.019 241.688.07c-10.088.07-12.927.39-13.357 1.509-.3.782-1.172 1.421-1.938 1.421S225 3.477 225 4.059s-.52.738-1.155.346c-.715-.443-.883-.275-.44.44.392.635.236 1.155-.346 1.155-1.621 0-1.259-2.986.441-3.638 3.891-1.493.581-2.362-9-2.362H204v16.555M271.19 3.75c.238 2.885.78 3.817 2.349 4.042 2.334.334 3.437 8.181 1.158 8.238-.658.017-.409.489.553 1.05 2.908 1.694 2.342 6.92-.75 6.92-2.456 0-2.5.139-2.5 7.911 0 7.606.119 8.011 3.077 10.5 2.98 2.508 5.923 3.406 5.923 1.807 0-.43 1.1-.873 2.444-.984l2.444-.202-1.922 4.234c-1.057 2.329-1.932 5.525-1.944 7.102-.014 1.761-1.223 4.236-3.134 6.412-4.035 4.596-3.675 9.763 1.174 16.811 1.836 2.667 3.253 5.874 3.149 7.125-.261 3.154 2.33 12.698 4.396 16.196 1.452 2.457 1.524 3.358.472 5.898-.683 1.649-1.164 4.953-1.068 7.344.39 9.714-.056 16.846-1.053 16.846-1.092 0-2.786 1.245-5.929 4.356-1.032 1.021-2.272 1.612-2.756 1.313-.484-.299-.923.955-.975 2.787-.092 3.277-.026 3.329 4.054 3.188 2.281-.079 4.373-.412 4.648-.74.275-.328 1.625-.87 3-1.205 2.165-.528 3.002.11 6.25 4.76 4.552 6.518 4.826 8.624.665 5.123-3.886-3.27-4.423-2.9-4.69 3.233l-.216 4.97 4.083-1.036c3.31-.84 4.751-.717 7.619.65 1.945.928 3.692 1.532 3.881 1.342.19-.189.061-7.251-.285-15.692-.61-14.847-.719-15.449-3.344-18.448-1.493-1.706-4.756-6.559-7.252-10.786l-4.537-7.686.297-22.314c.372-28.025.486-30.185 1.422-26.823C293.377 63.324 311 69.299 311 64.47c0-.717.563-1.493 1.25-1.724.971-.327.94-.797-.141-2.106-1.266-1.533-1.604-1.546-3.75-.139L306 62.046v-9.333c0-9.101-.078-9.413-3.119-12.523-3.3-3.376-2.825-4.24.896-1.633L306 40.113V28.557c0-10.748.135-11.557 1.929-11.557 2.127 0 5.053 2.478 5.103 4.321.018.68.554.493 1.266-.443 1.436-1.886 8.579-6.878 9.842-6.878.473 0 .86 4.739.86 10.532 0 7.122.488 11.7 1.507 14.139.997 2.385 1.178 4.004.535 4.778-.632.762-.585 2.43.137 4.782 1.234 4.02 2.747 4.734 10.071 4.755L342 53l.009 30.75c.004 16.912.288 33.082.631 35.931l.622 5.181 6.74-2.431c8.244-2.974 10.998-3.112 10.998-.551 0 1.514-1.701 2.345-8.74 4.27-6.615 1.81-8.828 2.845-9.1 4.256-.304 1.581.075 1.765 2.491 1.208 1.567-.362 5.887-1.177 9.599-1.813 3.712-.636 6.75-1.461 6.75-1.832 0-.372 2.51-.696 5.578-.721l5.578-.043-2.328 2.497c-1.28 1.373-4.091 3.9-6.246 5.615l-3.919 3.118.644-3.218c.762-3.81 1.1-3.727-4.704-1.159-3.558 1.574-5.704 1.899-9.127 1.386-4.372-.656-4.476-.608-4.476 2.059 0 2.488.244 2.666 2.75 2.001 1.512-.401 5.563-.941 9-1.202l6.25-.473v5.086c0 6.185.767 6.304 7 1.085 5.282-4.422 6.662-4.851 7.246-2.25.216.963.741-1.476 1.167-5.418.95-8.803.285-11.332-2.98-11.332-1.338 0-2.433-.45-2.433-1s1.35-1 3-1h3v-13c0-11.715-.2-13.2-2.023-15.023-2.495-2.495-3.585-.707-2.043 3.351 1.405 3.693-1.329 3.69-3.129-.004-1.677-3.439-3.785-4.116-4.485-1.441-.301 1.152-.946 1.848-1.434 1.547-.487-.302-.886.139-.886.98 0 .947.57 1.308 1.5.952.933-.358 1.5.006 1.5.964 0 .846-.933 1.835-2.072 2.197-1.219.387-1.855 1.225-1.544 2.035.291.758.141 1.618-.334 1.911-.474.293-.636 1.398-.359 2.456.599 2.292-3.163 4.558-9.226 5.557-2.181.359-5.268.898-6.86 1.197l-2.895.544.729-55.862c.401-30.723.417-57.099.036-58.611L342.783 0h-16.959c-16.022 0-16.926.102-16.374 1.843.344 1.082-.248 2.902-1.432 4.408-1.11 1.41-2.018 3.258-2.018 4.106 0 .848-1.687 2.799-3.75 4.336-2.062 1.538-3.975 3.073-4.25 3.412-.275.339-1.962 1.365-3.75 2.281L291 22.051v9.368c0 7.821-.275 9.473-1.667 10.007-1.926.739-2.836-.024-3.788-3.176-.503-1.665-.273-2.25.888-2.25 1.727 0 1.829-.575 1.765-10-.034-5.083.306-6.626 1.559-7.076 1.176-.423.449-1.22-2.737-3-5.046-2.82-7.009-5.335-5.41-6.934.718-.718 1.897-.748 3.624-.091 1.812.689 3.053.611 4.252-.265 1.545-1.13 1.406-1.563-1.58-4.936C284.729.11 284.428 0 277.756 0h-6.877l.311 3.75M378 1.5c0 .825.648 1.5 1.441 1.5s1.766.526 2.164 1.17c.479.774.188.965-.858.563-2.581-.99-2.747.995-2.747 32.83v30.399l4.5-.617c4.421-.606 4.502-.566 4.599 2.269.054 1.587.191 4.798.304 7.136.113 2.337-.091 4.25-.453 4.25-.765 0-.304 10.874.678 16 1.174 6.128 1.218 10.941.098 10.715-2.164-.438-3.133 7.327-1.3 10.428 1.659 2.81 1.645 2.88-.812 3.814-2.308.877-2.487 1.401-2.308 6.747.107 3.188.423 6.021.703 6.296.281.275 1.749 2.412 3.265 4.75 4.998 7.711 5.592 6.467 5.778-12.101.199-19.767-.629-18.213 9.497-17.826 7.048.27 8.451.071 8.451-1.201 0-1.294-1.287-1.434-8.5-.925l-8.5.6v-7.111c0-4.808-.663-8.794-2.047-12.305-2.212-5.613-1.984-8.982.47-6.945 2.184 1.812 2.286.919 2.575-22.436.149-12.1.364-25.258.477-29.24.168-5.93-.128-7.541-1.635-8.905-1.012-.916-1.843-2.158-1.846-2.76-.004-.602-.629-2.289-1.391-3.748-1.447-2.774-2.999-7.429-4.032-12.097-.54-2.438-1.061-2.75-4.59-2.75C379.109 0 378 .418 378 1.5M16.5 3.844c-9.782 6.575-14.506 10.464-14.576 12-.572 12.489.785 18.587 3.984 17.9.876-.188 4.729 1.142 8.564 2.957C18.306 38.515 22.019 40 22.722 40c1.743 0 1.607-1.482-.28-3.048-2.094-1.738-6.328-9.067-7.403-12.816-1.044-3.64.697-5.611 4.341-4.914C22.035 19.729 23 16.166 23 5.86c0-5.662-.736-5.89-6.5-2.016m414.232-.308C427.673 5.615 427 6.675 427 9.414c0 1.837-.675 3.901-1.5 4.586-.825.685-1.5 2.329-1.5 3.654 0 1.325.675 2.668 1.5 2.984.855.328 1.5 1.82 1.5 3.469 0 3.538 1.781 3.74 5.677.643 9.62-7.648 13.106-6.49 12.796 4.25-.149 5.188.188 6.861 1.67 8.289 1.107 1.066 1.857 1.307 1.857.595 0-.761.658-.599 1.814.447 1.399 1.266 2.085 1.37 3 .455s1.186-.833 1.186.359c0 .85.891 2.351 1.979 3.336 2.34 2.118 3.656.305 2.71-3.733-.29-1.237-.165-4.048.277-6.248.442-2.2.856-3.186.919-2.191.063.995.565 1.531 1.115 1.191.55-.34 1 .32 1 1.466 0 1.298.935 2.439 2.481 3.027 2.629.999 2.581 2.299-.25 6.725-.781 1.22-1.248 2.732-1.038 3.361.715 2.146 5.726-6.565 6.948-12.079.671-3.025 2.087-6.763 3.148-8.307 1.475-2.147 1.905-4.407 1.826-9.6-.093-6.102.124-6.903 2.141-7.88 1.755-.851.827-.96-4.256-.498-3.575.325-6.656.989-6.846 1.475-.19.486-1.427 2.17-2.75 3.741-1.684 2.003-2.404 4.087-2.404 6.963 0 4.643-1.662 5.529-2.542 1.356-1.61-7.631-6.058-13.193-11.404-14.26-1.405-.28-2.61-1.068-2.679-1.75-.069-.682-.181-1.915-.25-2.74-.223-2.681-9.953-1.981-14.393 1.036m-205.453 9.3l-4.22 2.664-.141 7c-.078 3.85-.315 8.517-.527 10.37-.313 2.728-.131 3.159.953 2.259.737-.611 1.575-.877 1.863-.589.736.736 3.098-3.312 4.691-8.04.741-2.2 2.001-4.748 2.8-5.661 1.065-1.22 1.268-2.881.763-6.25-.794-5.294-.64-5.25-6.182-1.753m-170.966-.749c-.612.612-2.845 1.086-4.963 1.052-7.713-.122-9.35.656-9.35 4.44 0 3.843 1.242 4.156 9.873 2.489 3.761-.726 4.437-.597 4.834.92.254.97 1.549 2.346 2.877 3.057 3.136 1.678 3.093 2.807-.084 2.2-1.812-.347-2.5-.044-2.5 1.1 0 1.731 9.066 4.951 11.41 4.051 1.546-.593 2.765 3.1 2.123 6.432-.804 4.178 1.24 2.13 2.376-2.379 1.246-4.951.726-6.907-1.6-6.014-1.394.535-7.323-2.228-7.297-3.401.007-.294 1.108-2.451 2.448-4.794l2.435-4.259-5.197-2.735a986.93 986.93 0 00-5.736-3.003c-.295-.147-1.038.233-1.649.844m97.176 29.163c-1.992 4.898-2.001 4.956-3.619 22.372-1.096 11.79-1.05 13.478.45 16.641 2.818 5.937 5.721 5.271 5.502-1.263-.027-.825.294-10.612.715-21.75.805-21.309.265-24.146-3.048-16m294.451 7.5c-.056 2.533-.332 8.023-1.35 26.75-.391 7.212-.765 7.676-4.84 6.004-1.35-.554-1.75-.221-1.75 1.455 0 1.195-.391 2.93-.868 3.857-.478.926-1.156 3.484-1.506 5.684l-.637 4 2.131-4c2.705-5.077 2.364-4.799 4.898-3.994 2.19.695 2.321 2.435.83 10.994-.429 2.463.553 2.393 9.39-.667 6.699-2.32 6.737-2.354 6.75-6.083.012-3.849 1.493-4.869 3.768-2.594.875.875 2.113.291 5.089-2.397l3.933-3.553-3.014-.603c-1.658-.332-4.308-.603-5.889-.603H460l-.118-7.25c-.066-3.987-.046-7.812.043-8.5.09-.687-.313-1.25-.894-1.25-.826 0-6.026-9.683-6.444-12-.301-1.67-4.695-8-5.553-8-.569 0-1.061 1.237-1.094 2.75m42.086 10.226c-2.359 1.784-2.394 1.96-.75 3.776 2.195 2.426 2.358 6.705.224 5.886-.825-.316-1.5-.139-1.5.393 0 .533.45.969 1 .969 1.991 0 .92 2.633-3 7.377-2.2 2.663-3.998 4.904-3.996 4.982.002.077 1.127 2.355 2.5 5.06 1.373 2.706 2.496 5.744 2.496 6.75 0 1.007.45 1.831 1 1.831s1 .373 1 .829c0 1.216-4.332.86-5.5-.451-2.075-2.329-5.494-2.35-5.576-.034-.042 1.186-.28 7.604-.528 14.262l-.451 12.106 5.88 2.144c6.964 2.539 7.175 2.56 7.175.717 0-.786 1.104-2.296 2.452-3.357l2.453-1.929-2.453-1.312c-2.251-1.205-2.451-1.893-2.437-8.394.02-9.314.431-9.856 6.828-9.007l5.157.684V63.23l-2.5-1.615c-7.52-4.858-6.803-4.658-9.474-2.639M60.742 62.113c-.967.548-2.153.751-2.637.452-.82-.507-3.903 2.33-3.355 3.089.413.572-.154.512-2.058-.219-2.81-1.078-12.106 1.762-12.503 3.821-.273 1.418.393 1.744 3.571 1.744 4.957 0 5.5.596 3.707 4.063-.799 1.546-1.191 3.493-.871 4.327.32.835-.133 2.538-1.007 3.786-2.303 3.289-2.132 3.524 3.815 5.253 7.469 2.171 10.204 1.983 15.508-1.068C71.37 83.647 73 82.031 73 79.345c0-3.052-1.329-2.959-5.735.402-2.449 1.868-3.733 2.348-4.016 1.5C62.756 79.767 60 79.558 60 81c0 .55.702 1 1.559 1 2.34 0 .849 1.662-2.557 2.85L56 85.896v-3.929c0-3.461.327-4.007 2.75-4.582 3.239-.77 6.25-3.167 6.25-4.977 0-.705 1.652-2.841 3.671-4.745 3.431-3.238 3.562-3.573 1.999-5.136-1.502-1.502-1.973-1.522-4.618-.203-2.413 1.204-3 1.228-3.249.132-.221-.976-.779-1.068-2.061-.343M185 66.208c0 .665 3.469 4.471 7.709 8.458 7.466 7.019 9.935 11.401 3.146 5.582-7.441-6.377-11.693-8.682-9.925-5.379.55 1.027.726 2.142.392 2.476-.335.334.131.892 1.035 1.238 2.007.771 2.155 3.007.247 3.739-.793.304-1.698 2.727-2.094 5.608-.384 2.789-1.106 4.82-1.604 4.512-.498-.308-.906-.083-.906.499S183.45 94 184 94c.57 0 1 2.969 1 6.906 0 6.277.172 6.862 1.887 6.413 2.903-.759 3.366 1.245.582 2.513-2.287 1.042-2.469 1.647-2.469 8.206 0 5.151.319 6.883 1.17 6.357.846-.523.915-.193.25 1.191-.506 1.053-1.044 16.861-1.196 35.129l-.276 33.215 5.189 2.963 5.188 2.963 2.07-2.631c1.771-2.252 2.102-4.227 2.291-13.678.121-6.076.452-12.397.736-14.047.283-1.65.803-21.919 1.156-45.043l.64-42.043-3.109-4.903c-1.71-2.696-3.109-5.903-3.109-7.125 0-4.534-.966-5.386-6.107-5.386-3.158 0-4.893.428-4.893 1.208M90.885 92.191c-.063 4.02-.025 8.159.086 9.198.155 1.453-.276 1.765-1.865 1.349-3.058-.8-2.481 4.169.621 5.348 1.673.636 2.273 1.664 2.273 3.889 0 2.913.165 3.025 4.441 3.025 2.443 0 4.719.45 5.059 1 .34.55 1.491 1 2.559 1 1.776 0 1.941-.757 1.941-8.906 0-8.325-.127-8.874-1.942-8.399-1.534.401-2.881-.958-6.426-6.489-6.168-9.623-6.61-9.69-6.747-1.015M272 96.417c0 7.397.362 10.563 1.25 10.921.82.331.856.531.104.583-.791.055-1.192 4.145-1.296 13.208l-.149 13.128 2.296-.615c1.262-.338 2.632-.621 3.045-.628 1.176-.022.878-4.837-.429-6.929-.956-1.532-.631-3.558 1.722-10.736 4.1-12.506 3.941-19.62-.565-25.227-5.232-6.51-5.978-5.725-5.978 6.295m-21.381 31.041c-.885 1.352-1.5 3.389-1.365 4.527.198 1.663-.931 2.566-5.754 4.601-3.3 1.393-6.562 2.779-7.25 3.08-.798.35-1.261-.305-1.28-1.809-.028-2.127-.133-2.181-1.079-.555-.689 1.184-.712 2.214-.068 3 1.582 1.933.933 12.837-.823 13.811-.825.458-4.762 1.763-8.75 2.902-6.604 1.885-7.25 2.301-7.25 4.663 0 2.491.175 2.57 4.409 1.99 2.425-.333 6.088-1.744 8.14-3.136 5.17-3.509 5.451-3.326 5.451 3.534 0 3.336.466 6.936 1.035 8 .714 1.333.714 1.934 0 1.934-.621 0-1.035 2.997-1.035 7.5v7.5h-4.607c-3.582 0-4.485.318-4.059 1.429.302.786.83 3.148 1.174 5.25 1.67 10.212 2.782 13.143 5.159 13.598 2.229.426 2.333.185 2.333-5.416 0-6.999.586-7.163 5.631-1.577 2.128 2.356 6.232 5.727 9.119 7.491l5.25 3.207v-5.432c0-6.222.469-6.708 6.56-6.8 2.451-.037 4.247-.276 3.991-.532-.511-.511 3.287-8.416 4.429-9.218.392-.275 1.022-1.765 1.4-3.31l.688-2.811 3.216 1.871c4.842 2.818 7.534 1.946 7.909-2.562.248-2.981.75-3.751 2.618-4.016 2.69-.381 2.854-.774 3.539-8.472l.516-5.8-8.517.188c-6.81.15-8.636.511-9.108 1.8-.325.887-1.219 1.99-1.989 2.453-1.192.716-1.183 1.085.057 2.5 2.083 2.376 2.799 5.42 1.683 7.159-.95 1.482-1.518.331-1.11-2.25.065-.412-2.919-.757-6.632-.765-3.712-.009-7.4-.427-8.195-.93-1.754-1.109-1.523-11.136.282-12.285.858-.545.835-.743-.087-.755-.956-.011-1.25-4.49-1.25-19.015 0-20.095-.591-22.326-4.381-16.542m-179.244 9.347c-1.304 3.47-5.375 6.287-5.375 3.721 0-1.202-.996-1.487-4.495-1.285l-4.495.259-.12 7c-.135 7.845-.029 10.061.623 13.102.405 1.89-.377 2.297-7.781 4.049-6.829 1.616-8.232 2.281-8.232 3.899 0 1.794.661 1.932 8.25 1.729l8.25-.221v7.626c0 7.325.072 7.561 1.829 5.971 2.407-2.178 3.665-2.089 7.179.509 2.69 1.989 2.788 2.269 1.209 3.468-1.574 1.196-1.529 1.307.533 1.336L71 188l.015 18.75c.01 11.957.353 18.217.946 17.279 1.952-3.087 2.214.465 1.505 20.403-.832 23.411-2.466 27.686-2.466 6.451v-14.116l-2.25.63c-1.237.347-4.162.91-6.5 1.252l-4.25.623-.142-8.386c-.103-6.095-.308-7.298-.75-4.403-.536 3.511-.95 4.008-3.491 4.2-6.94.524-15.57 15.596-9.445 16.497 1.194.176 2.378.946 2.63 1.712.339 1.027-.229 1.26-2.171.888L42 249.277v8.687c0 7.974.205 8.88 2.5 11.036 2.668 2.506 3.166 2.113 1.431-1.13-.729-1.36-.745-2.389-.051-3.225.727-.876.46-1.576-.931-2.445-2.415-1.508-2.686-4.697-.322-3.79.894.344 2.132.219 2.75-.277.618-.496 2.698-1.204 4.623-1.572l3.5-.671-3.259 2.805c-4.024 3.463-4.202 4.853-.368 2.871 1.58-.818 3.18-1.18 3.555-.805.374.375 1.103.019 1.62-.79.59-.926.746 9.33.42 27.662-.441 24.794-.304 29.216.924 29.687 1.516.582 2.608-1.227 2.608-4.318 0-1.01.563-2.064 1.25-2.343.991-.401.984-.695-.034-1.413-.706-.498-.995-1.657-.643-2.576.696-1.813 2.427-2.291 2.427-.67 0 1.751 2.89 1.074 3.961-.928 1.096-2.047.379-5.4-.976-4.563-1.27.785-4.04-.612-3.368-1.699.333-.539.799-4.429 1.036-8.645.385-6.872.57-9.295 1.173-15.436.096-.975 1.299-2.284 2.674-2.911 1.375-.626 2.5-1.779 2.5-2.562 0-.782.563-1.233 1.25-1.002.825.278 1.143 2.005.936 5.083-.207 3.075.085 4.663.857 4.663.66 0 .904-.695.561-1.59-1.005-2.62.346-3.489 2.862-1.84 3.269 2.141 3.58.772 3.364-14.805-.127-9.101.187-13.08 1.119-14.204.713-.859 1.03-1.561.705-1.561-.326 0 1.373-3.788 3.775-8.418 4.799-9.25 6.074-14.383 4.998-20.118l-.708-3.775-1.319 2.518c-1.378 2.629-5.138 3.76-12.575 3.782l-3.674.011.575-14.966c.443-11.541.276-15.327-.733-16.543-.991-1.193-1.027-1.857-.151-2.733.692-.692 1.158-4.512 1.158-9.49 0-7.632-.182-8.4-2.166-9.134l-2.167-.801 2.167-2.167c2.493-2.493 2.751-3.328.797-2.578-2.006.77-2.986-3.799-1.115-5.198 1.839-1.376 1.95-2.783.165-2.098-.793.304-1.754-.648-2.411-2.389-1.152-3.052-.418-4.281 2.004-3.351 1.862.714 2.778-3.619 1.88-8.894l-.654-3.843-1.125 2.99m384.319 8.551c-.305.793-2.938 2.725-5.852 4.293-2.915 1.568-5.794 3.85-6.398 5.071-.604 1.222-2.414 3.211-4.021 4.421-1.608 1.211-3.327 2.551-3.822 2.979-.513.444-.165 1.896.813 3.389 2.104 3.211 6.881 3.205 7.423-.009.186-1.1 2.264-3.575 4.618-5.5 2.354-1.925 5.086-4.963 6.07-6.75.985-1.787 2.107-3.25 2.495-3.25.74 0 .467-4.847-.318-5.631-.25-.251-.704.194-1.008.987m-73.944 6.728c-5.305 2.658-5.75 3.144-5.75 6.276v3.394l4.44-.5c6.985-.787 9.56.227 9.56 3.765 0 1.64.45 2.981 1 2.981.583 0 1-3.333 1-8s-.417-8-1-8c-.55 0-1-.675-1-1.5 0-2.065-1.569-1.764-8.25 1.584m76.308 11.317c.14 13.969.824 16.349 4.315 15.009 1.655-.635 2.088-2.152 1.749-6.133-.145-1.701.69-2.589 3.558-3.788 6.464-2.701 7.32-4.033 7.318-11.394l-.001-6.595-8.537-.307-8.537-.307.135 13.515m-298.905 7.171l3.086 4.572-2.619 4.814c-3.417 6.278-3.549 6.042 3.38 6.042h6v-20h-12.932l3.085 4.572M486 174.97c0 3.896.065 3.967 3.504 3.837 1.928-.072 3.803.167 4.167.531.364.364-.763.662-2.504.662-1.742 0-3.167.45-3.167 1 0 .553 2.615 1 5.846 1h5.845l.177-5.4.176-5.399-3.42.771c-1.882.424-4.029.386-4.772-.085-3.558-2.255-5.852-1.046-5.852 3.083m-84.5 6.59c-6.644 7.038-8.395 8.38-10.33 7.918-1.986-.474-2.234-.256-1.682 1.483.614 1.937.243 2.039-7.421 2.039-7.426 0-8.067.16-8.067 2.019 0 1.624.463 1.903 2.368 1.425 1.974-.496 13.365.955 14.221 1.811.144.145.454 2.175.688 4.51.405 4.052 2.942 8.235 4.994 8.235.528 0 3.261 2.363 6.072 5.25l5.112 5.25.674-5.5c.37-3.025.718-11.886.772-19.691.054-7.805.515-14.448 1.024-14.763.509-.314 3.743 2.575 7.186 6.422 6.837 7.635 7.172 7.744 7.35 2.38.091-2.725-.331-3.763-1.67-4.113-1.676-.438-2.672-4.374-1.041-4.117 2.65.419 3.25-.434 3.25-4.618V173l-7.75.043-7.75.042-8 8.475m79.166 2.262c-2.109 1.442-3.346 2.785-2.75 2.983.596.199 1.084 2.199 1.084 4.445 0 4.508.663 4.752 1.239.456.551-4.115 2.216-3.749 2.573.565.171 2.074.734 3.51 1.25 3.191.539-.334.938 1.68.938 4.738 0 4.271.402 5.57 2.041 6.593 2.47 1.543 3.959.803 3.959-1.969 0-1.585.473-1.934 2.059-1.519 1.664.435 2 .125 1.75-1.618-.221-1.545-1.017-2.16-2.809-2.172-1.892-.011-2.585-.615-2.848-2.482-.191-1.357-1.173-3.516-2.182-4.798-1.348-1.714-1.723-3.511-1.416-6.783.479-5.109.29-5.172-4.888-1.63M206.308 195.25c-4.788 9.636-5.957 18.194-3.768 27.58 1.22 5.229 1.176 5.827-.568 7.691-2.064 2.207-3.373 9.51-2.416 13.479.332 1.375 2.612 4.075 5.066 6 2.454 1.925 5.298 4.243 6.321 5.151 2.873 2.552 6.057 3.296 6.057 1.416 0-1.053.903-1.554 2.75-1.527l2.75.04-2.78 1.508c-3.725 2.02-2.417 3.769 2.343 3.13 4.03-.54 4.922.29 4.952 4.614.009 1.192.458 2.843.999 3.668.662 1.01.781-1.197.364-6.75-.57-7.61-.473-8.251 1.252-8.265 4.322-.036 4.963-1.585 2.483-5.998-1.371-2.438-2.129-5.121-1.855-6.557.332-1.738.006-2.457-1.147-2.524-.886-.051-3.722-.175-6.303-.275-2.58-.1-4.927-.417-5.215-.705-.288-.288-.676-10.261-.861-22.163-.326-20.911-.417-21.742-2.684-24.701-1.291-1.684-2.638-3.062-2.994-3.062-.356 0-2.492 3.713-4.746 8.25m147.969-6.083c-2.172 2.173-6.433 2.799-9.538 1.403-3.502-1.576-1.25 3.272 2.817 6.063 2.169 1.488 5.469 3.755 7.334 5.037 4.348 2.989 5.11 2.932 5.11-.382 0-1.761-.965-3.483-2.75-4.908-2.573-2.054-2.671-2.406-1.517-5.472 1.532-4.072 1.233-4.43-1.456-1.741m127.108 24.272c-.335.872-.17 2.143.365 2.824 1.73 2.197 2.342 6.533.998 7.075-.686.277-.348.54.752.583 1.956.077 1.994.68 1.734 27.207-.276 28.226-.209 28.745 4.028 31.012 1.683.901 1.842.762 1.253-1.093-.592-1.866-.373-2.049 1.796-1.505 1.408.353 2.769.138 3.164-.502.381-.617 1.555-.848 2.609-.513 1.859.59 1.916-.281 1.916-29.027 0-29.411-.015-29.63-2.048-28.985-1.126.358-2.624.172-3.328-.412-.704-.585-3.045-1.431-5.202-1.882-3.259-.68-3.925-1.231-3.941-3.26-.023-2.826-3.149-3.989-4.096-1.522m-370.837.484c-.332.537.229 1.422 1.247 1.967 1.82.974 7.205 8.029 7.205 9.439 0 2.23-9.609-4.957-11.805-8.829-1.06-1.869-1.136-1.822-1.165.715-.019 1.741.711 3.111 2.036 3.82 1.136.608 2.92 3.099 3.964 5.535 1.266 2.952 2.514 4.43 3.743 4.43 1.015 0 2.718.661 3.786 1.468 3.283 2.484 3.52 1.855 3.226-8.571l-.285-10.103-5.674-.424c-3.121-.233-5.946.016-6.278.553m330.375 10.327c-.042.137-.232 1.075-.423 2.084-.191 1.009-1.126 2.403-2.077 3.098-1.129.826-1.434 1.741-.88 2.638.467.755.754 2.736.637 4.401-.116 1.666-.366 5.529-.556 8.584-.384 6.196-1.952 9.945-4.159 9.945-1.981 0-1.866 2.632.148 3.405 1.007.386 1.423 1.349 1.107 2.559-.279 1.067-.087 2.08.427 2.252.515.171.209 1.768-.679 3.548-1.349 2.704-2.056 3.158-4.292 2.758l-2.676-.478 2.712 1.158c3.402 1.452 4.319 3.696 2.325 5.69-.896.895-1.537 1.067-1.537.411 0-1.902-3.316-.762-5.195 1.786-2.381 3.228-1.415 6.911 1.812 6.911 1.31 0 2.383-.45 2.383-1s.428-1 .95-1c1.13 0 .376 12.872-.846 14.438-.455.584-1.124 2.298-1.484 3.809-.587 2.454-.869 2.614-2.648 1.503-1.096-.684-1.563-1.386-1.038-1.561 1.045-.349.233-3.337-1.162-4.279-.48-.325-3.199.012-6.041.75-2.842.737-6.419 1.34-7.949 1.34-2.576 0-2.782.294-2.782 3.977 0 3.639.334 4.138 3.932 5.876 2.162 1.045 5.537 2.892 7.5 4.105 3.34 2.064 3.578 2.088 3.72.374.084-1.008.257-2.282.385-2.832.128-.55.336-2.575.464-4.5.143-2.175.402-2.743.683-1.5 1.601 7.085 4.041 9.5 9.598 9.5 2.277 0 2.82.298 2.012 1.106-1.178 1.178 4.218 9.719 6.206 9.822.55.029 3.407-1.068 6.349-2.438 2.942-1.369 5.98-2.49 6.75-2.49 1.043 0 1.401-1.511 1.401-5.919v-5.92l-3.592.992c-3.873 1.069-11.408.25-11.408-1.241 0-1.312 6.749-1.127 7.574.208 1.086 1.757 7.602-5.916 7.206-8.485-.313-2.033-.471-1.99-3.305.897-2.783 2.836-3.25 2.972-7.225 2.108l-4.25-.924v-17.827c0-15.435.201-17.749 1.5-17.251 1.971.757 1.98-1.994.012-3.628-1.257-1.043-1.405-4.164-.952-20.122.295-10.389.29-18.888-.012-18.888-.301 0-.582.113-.625.25M409.2 228.2c-.809.809-1.2 5.387-1.2 14.041v12.842l7.5-.288 7.5-.288V240h4.5c2.475 0 4.495-.338 4.49-.75-.018-1.283-7.852-4.163-8.232-3.025-.189.568-3.117-1.275-6.507-4.096-6.948-5.782-6.444-5.536-8.051-3.929m-124.412 4.748c-3.284 3.491-4.318 3.98-8.985 4.248l-5.274.304 2.43 2.256c1.568 1.455 3.159 2.057 4.486 1.698 1.854-.503 1.893-.426.403.783-2.766 2.244-1.12 6.37 4.507 11.292 2.811 2.459 5.456 4.471 5.878 4.471.422 0 .767-6.525.767-14.5s-.113-14.499-.25-14.498c-.137.001-1.92 1.776-3.962 3.946m53.706-1.939c-.343.556-1.182 4.043-1.863 7.75-1.099 5.973-1.519 6.78-3.686 7.087-3.203.453-5.168 2.131-4.508 3.851.822 2.14-2.037 9.334-4.354 10.957-1.95 1.366-2.083 2.397-2.083 16.153l-.001 14.693h-3.749c-3.397 0-5.193.905-5.235 2.636-.008.351 1.982.936 4.424 1.303 3.872.58 4.48 1.009 4.764 3.363.28 2.32.581 1.961 2.143-2.556 1.002-2.896 3.575-7.139 5.736-9.455 4.718-5.06 4.827-6.009.867-7.504l-3.051-1.152 2.561-4.817c1.409-2.65 4.355-7.293 6.546-10.318 3.873-5.347 3.981-5.716 3.858-13.25-.119-7.261-.521-8.278-3.113-7.868-1.063.167-.985-.168 1.25-5.382 1.1-2.566 2-5.079 2-5.583 0-1.232-1.727-1.168-2.506.092m20.381 9.491c-.069 4.675-.238 9.4-.375 10.5a98.907 98.907 0 00-.375 3.58c-.106 1.338-1.094 1.475-6.458.901-4.972-.533-6.344-.388-6.381.67-.026.742-.394 2.188-.818 3.214-.645 1.562-.43 1.758 1.32 1.202 1.502-.476 2.389-.105 3.151 1.319 1.272 2.376 1.407 5.446.206 4.704-.469-.291-2.269.736-4 2.28-2.963 2.646-3.145 3.215-3.145 9.854 0 6.198.271 7.226 2.25 8.54 6.767 4.492 12.75 11.478 12.715 14.845-.038 3.636-2.863 9.983-2.93 6.582-.022-1.122-.479-1.534-1.205-1.086-.746.461-.973.209-.625-.696.299-.781-.024-1.95-.718-2.599-.994-.928-1.388-.554-1.85 1.755-.341 1.707-1.225 2.935-2.112 2.935-.839 0-1.525.45-1.525 1 0 1.49 9.741 1.254 10.287-.25.25-.687.879.325 1.398 2.25.875 3.244 1.195 3.475 4.38 3.151 5.288-.537 5.434-1.041 3.371-11.651-.85-4.373 4.44-13.944 5.9-10.674.624 1.4 1.867 2.174 3.488 2.174 1.385 0 3.234.648 4.109 1.44.875.791 3.723 1.728 6.329 2.082l4.738.642v-7.475c0-7.049-1.29-10.065-3.402-7.953-1.089 1.088-.621 2.264.902 2.264 2.097 0 1.872 1.731-.382 2.937-2.922 1.564-3.584 4.256-.953 3.875 1.182-.172 2.341.251 2.575.938.591 1.732-6.638 1.679-7.303-.053-.275-.716.189-2.952 1.032-4.968 1.879-4.497 1.879-4.381-.034-5.116-1.224-.469-1.419-.137-.893 1.519.452 1.424.31 1.894-.435 1.434-.609-.376-1.107-1.271-1.107-1.988 0-1.792-4.69-1.168-7.013.933-1.198 1.085-2.599 1.43-4.001.985-2.149-.683-2.15-.693-.191-2.841 1.735-1.901 2.038-4.156 2.575-19.155.334-9.35.871-18.659 1.192-20.687.54-3.406.331-3.816-2.739-5.398-1.828-.941-4.715-2.77-6.417-4.063-4.366-3.318-4.392-3.283-4.531 6.148M255 242.393v4.703l-4.438-3.053c-4.37-3.007-7.155-2.667-4.486.548 1 1.206 1.411 1.247 2.07.206 2.099-3.307.638 2.717-1.581 6.525-1.908 3.274-2.281 4.919-1.724 7.603.919 4.431 2.793 5.017 3.645 1.139.787-3.585 2.103-4.65 3.9-3.159.714.593 1.594.782 1.956.42.362-.362.658.734.658 2.435 0 1.912-.563 3.217-1.474 3.417-1.061.232-1.201.743-.5 1.823.789 1.216 1.135 1.25 1.825.183.967-1.499 2.305 1.322 4.183 8.817.62 2.475 2.015 6.029 3.1 7.897 2.619 4.511-.112 6.86-5.384 4.63-1.188-.503-1.75-.289-1.75.665 0 1.006-1.067 1.33-3.75 1.138l-3.75-.268 3.5 1.139c1.925.626 3.647 1.247 3.828 1.38.543.4.211 35.954-.471 50.563-.607 12.967-.522 13.884 1.714 18.5 3.728 7.693 4.341 26.302 1.341 40.63-.32 1.526-1.69 4.092-3.046 5.702-2.144 2.549-2.425 3.747-2.165 9.227l.299 6.297 7.752.5 7.752.5.014-3.5c.008-1.925.234-8.9.503-15.5.27-6.6.225-11.437-.099-10.75-1.467 3.114-2.412.653-2.306-6 .064-3.988.332-6.35.597-5.25 1.13 4.699 2.287 3.597 2.287-2.178 0-4.296.459-6.458 1.566-7.377 1.838-1.525 4.783-6.929 4.132-7.581-.248-.247-1.518 1.257-2.824 3.343L269.5 371.5l-.311-5.496c-.282-4.997-.056-5.702 2.5-7.776 1.546-1.254 3.599-2.085 4.561-1.847.975.24 1.75-.131 1.75-.839 0-.698 1.819-2.531 4.043-4.072s4.46-3.515 4.97-4.386c.719-1.229.933-.922.957 1.374l.03 2.958 4.404-4.322 4.404-4.322 1.281 2.364c.705 1.3 1.596 3.939 1.981 5.864.501 2.507.747.947.865-5.5.091-4.95.306-12.375.477-16.5.591-14.197-.663-26.542-2.662-26.206-.962.161-1.75-.176-1.75-.75 0-1.627-6.702-1.264-7.339.398-.305.794-.611 7.656-.681 15.25-.145 15.86-.853 23.504-2.106 22.73-.481-.297-.881-4.901-.889-10.231-.009-5.33-.393-10.287-.855-11.015-.473-.746-.631 1.922-.362 6.115.457 7.113-.803 10.888-2.641 7.915-.357-.578-3.676-1.161-7.376-1.295-7.201-.261-9.976 1.071-11.367 5.454-.665 2.097-.669 2.097-1.493-.131-.455-1.229-1.46-2.234-2.234-2.234-2.799 0-2.986-8.323-.23-10.25.739-.517.674-1.008-.211-1.58-1.357-.877-.575-4.51.79-3.667.437.271 1.336-1.762 1.997-4.517.877-3.652 2.128-5.772 4.618-7.825l3.416-2.816.731-12.422c.727-12.334.75-12.424 3.232-12.574 1.375-.084 3.063-.196 3.75-.25.688-.055 1.25-1.042 1.25-2.194 0-2.051.092-2.041 4.428.5 2.436 1.427 4.686 2.595 5 2.595 1.016 0 .606-14.861-.428-15.5-.55-.34-1.037.196-1.081 1.191-.06 1.342-.383 1.132-1.25-.814-2.218-4.978-12.766-13.887-15.631-13.202-1.396.333-2.709.751-2.918.929-.209.177-2.155-2.322-4.326-5.555-2.17-3.232-4.812-6.66-5.87-7.618-1.873-1.695-1.924-1.616-1.924 2.962M478.5 240c-.34.55-1.461 1-2.492 1-1.03 0-2.172.942-2.538 2.094-.365 1.151-1.913 3.964-3.44 6.25s-4.452 7.756-6.5 12.156c-2.049 4.4-4.356 9.194-5.127 10.654-2.429 4.595-1.864 5.389 4.595 6.457 3.829.634 6.346.645 6.958.033.612-.612 1.493-.516 2.436.267 1.292 1.072 1.517-.992 1.793-16.417l.315-17.642 3.5-2.899c1.925-1.595 2.964-2.911 2.309-2.926-.655-.015-1.469.423-1.809.973M123 253.586c0 6.016-.29 5.814 9.75 6.803l5.25.517v-4.415c0-4.808.095-4.748-11.75-7.52l-3.25-.76v5.375M9.25 259.441c-8.369 9.782-8.234 12.668.421 9.052 3.576-1.494 6.329-.765 6.329 1.677 0 2.137-5.284 5.797-7.549 5.228-1.712-.429-2.609.014-3.571 1.764-2.287 4.164-1.922 4.545 4.978 5.196 11.491 1.086 13.936.866 14.628-1.314.415-1.307 1.514-1.952 3.317-1.945 8.321.031 13.954-1.313 13.457-3.213-.431-1.647-1.493-1.886-8.377-1.886H25v-15.661l-4.413-3.169c-2.428-1.744-4.565-3.14-4.75-3.102-.186.037-3.149 3.355-6.587 7.373m398.75 9c0 4.093.43 7.707.956 8.032.526.325.697 1.268.379 2.096-.318.828.222 2.389 1.199 3.468 1.723 1.905 1.695 1.963-.942 1.963-2.465 0-2.689.304-2.405 3.25.25 2.599.713 3.192 2.313 2.961 2.932-.424 14.023-4.552 12.931-4.813-.512-.123-2.281-.539-3.931-.925-2.692-.63-2.795-.786-1-1.517 1.701-.693 1.738-.826.25-.886-2.074-.083-2.13-.756-.334-3.999 2.864-5.169.173-12.681-5.614-15.673-3.871-2.002-3.802-2.111-3.802 6.043m-172.067-5.675c-.037.404-.089 6.722-.115 14.04-.043 11.846.157 13.461 1.817 14.718 2.552 1.933 4.344 1.823 4.471-.274.33-5.433.451-5.74 2.144-5.456 1.964.33 2.293-.851.686-2.458-.753-.753-.587-1.542.563-2.693.896-.895 1.297-2.164.892-2.819-.51-.825-.969-.597-1.493.742-.664 1.695-.767 1.625-.839-.566-.044-1.375-.371-4.257-.726-6.405-.506-3.062-.364-3.732.655-3.103 1.864 1.152 7.012 1.622 7.012.64 0-.455-1.912-1.617-4.25-2.581a869.12 869.12 0 01-7.5-3.136c-1.787-.76-3.28-1.052-3.317-.649M73.639 282.694c-.351.352-.639 4.663-.639 9.582 0 9.858-.282 9.278 8.876 18.265 2.407 2.362 5.15 5.475 6.097 6.917 1.704 2.598 1.726 2.53 2.368-7.168 1.24-18.717 1.505-17.648-5.091-20.522-3.162-1.378-6.537-2.775-7.5-3.105-.963-.33-1.75-1.263-1.75-2.073 0-1.696-1.42-2.837-2.361-1.896m49.352 6.056c-.004 3.163-.291 8.104-.637 10.982l-.628 5.232 4.387-.477c2.413-.262 5.512-.591 6.887-.732 1.983-.202 2.643-.979 3.192-3.755 1.273-6.435.952-7.644-2.685-10.121-1.921-1.308-3.496-2.953-3.5-3.654-.006-1.172-3.871-3.225-6.072-3.225-.514 0-.939 2.587-.944 5.75m-21.703.995c-3.106 5.676-3.149 5.914-1.309 7.24 1.046.754 1.858 1.628 1.803 1.943-.239 1.372 1.509 4.01 2.323 3.507.492-.304.895 1.049.895 3.006 0 3.469.098 3.559 3.893 3.559 4.932 0 5.404-1.17 4.528-11.213l-.679-7.787h-3.808c-3.513 0-3.832-.237-4.121-3.062-.304-2.975-.404-2.896-3.525 2.807m383.7-2.985c-.012 2.55-5.076 7.24-7.819 7.24-.472 0-1.623.844-2.556 1.876-1.121 1.238-3.767 2.109-7.783 2.564l-6.084.688.627 4.576c.345 2.516.627 5.412.627 6.436 0 1.051.707 1.86 1.627 1.86 1.346 0 1.546-.848 1.156-4.912l-.472-4.911 4.594-.393c2.527-.217 4.82-.144 5.095.161.275.305 2.916.686 5.869.846l5.369.292-.76-2.792c-.418-1.535-.702-3.798-.631-5.029.136-2.359 3.575-6.507 4.57-5.512.321.321.583-.067.583-.861 0-.795-.9-2.215-2-3.157-1.93-1.652-2-1.616-2.012 1.028M333.5 300.306c-10.585 5.862-11.5 6.691-11.5 10.43v3.538l4.957-4.637c7.387-6.91 8.052-5.602 1.119 2.199-5.085 5.721-6.076 7.434-6.076 10.5 0 2.015.423 3.664.94 3.664.516 0 1.079 1.688 1.25 3.75.383 4.632 3.167 5.417 8.353 2.357 1.904-1.123 4.136-1.784 4.959-1.468.948.364 1.498-.016 1.498-1.032 0-2.084-.712-2.032-7.431.539-6.335 2.425-7.441 2.115-5.117-1.433 1.381-2.107 2.218-2.402 5.83-2.057 6.383.609 7.887-1.085 7.518-8.472l-.3-6.023-5.838 4.42c-5.743 4.347-7.662 5.243-7.662 3.575C326 318.95 337.813 307 339.005 307c.547 0 .995-2.025.995-4.5 0-5.185-.684-5.416-6.5-2.194m-105.873 1.444c-.293 1.512-.52 7.925-.504 14.25.03 11.777-1.723 19.688-5.709 25.772-1.106 1.687-1.501 4.465-1.36 9.553.11 3.946.181 11.225.159 16.175-.023 4.95-.044 11.7-.047 15-.004 3.3-.012 6.9-.019 8-.006 1.1-.328 5.262-.714 9.25l-.702 7.25H229v-54c0-29.7-.189-54-.421-54-.231 0-.66 1.238-.952 2.75m-200.923.948c-1.522.395-1.75 1.389-1.5 6.538l.296 6.071 6.5.391c3.575.215 7.063.581 7.75.815.92.312 1.25-1.385 1.25-6.419v-6.844l-3.125-.625c-3.429-.686-8.371-.654-11.171.073m361.89 5.552c-.449 2.063-.531 5.273-.182 7.134.475 2.529.25 3.532-.888 3.969-1.712.656-2.11 4.647-.464 4.647.614 0 .93 1.579.75 3.75-.205 2.478-.805 3.75-1.769 3.75-.843 0-1.74 1.372-2.124 3.25-.627 3.067-.503 3.25 2.209 3.25 2.74 0 2.874-.211 2.874-4.5V329h18v-3.019c0-2.721-.247-2.957-2.5-2.392-1.597.401-2.5.206-2.5-.54 0-.642-.45-.889-1-.549-.55.34-1-.098-1-.972 0-.875.675-1.85 1.5-2.166 1.969-.756 1.929-2.362-.059-2.362-.857 0-1.278.454-.936 1.009.343.555-1.768-.037-4.691-1.315-5.224-2.283-5.323-2.406-5.859-7.258l-.544-4.936-.817 3.75M342 319.941c0 3.28.498 6.249 1.112 6.628.611.378 2.185 3.115 3.498 6.084 1.313 2.968 4.475 7.485 7.028 10.038l4.642 4.642-.594 25.423c-.554 23.711-.479 25.37 1.11 24.642.937-.429 3.372-.706 5.411-.615 2.039.091 3.983-.281 4.319-.825.337-.545.964-.773 1.395-.507 1.212.749 2.231-22.571 1.47-33.63-.641-9.306-.808-9.88-2.787-9.609-1.698.232-2.722-.965-5.311-6.212-1.765-3.575-3.677-7.044-4.25-7.708-3.322-3.848 3.779-15.337 10.255-16.593 1.211-.234-.836-.488-4.548-.563-6.129-.123-6.75.048-6.75 1.864 0 2.898-.757 2.582-8.383-3.506-3.786-3.022-7.048-5.494-7.25-5.494-.202 0-.367 2.673-.367 5.941m143.31 1.867c-.654.405-1.329 3.201-1.5 6.214l-.31 5.478h-9l-.285 9.682-.286 9.682 4.786 1.346c4.661 1.312 4.793 1.455 5.092 5.568.409 5.605 2.972 5.647 7.041.114 3.28-4.46 3.097-7.096-.791-11.392-2.284-2.523-3.347-14.233-1.847-20.326 1.136-4.612-.375-7.927-2.9-6.366M25 329.384v7.383l6.75.458c9.371.635 9.25.737 9.25-7.832V322H25v7.384m32 2.495c0 5.524.246 6.134 4.076 10.08 2.242 2.31 3.849 4.793 3.571 5.518-.31.809.432 1.496 1.924 1.781l2.429.465v-9.207c0-9.948-.407-10.81-6.297-13.323C57.561 325 57 325.461 57 331.879m365.62-3.035c-.251.911-.427 5.571-.392 10.356.062 8.55.094 8.66 1.856 6.421.985-1.253 2.123-3.593 2.528-5.2l.736-2.921 1.417 3.5c1.946 4.807 5.75 9.64 8.063 10.245 2.236.584 3.148-4.318 3.163-16.993l.009-7.247-8.462.091c-6.977.076-8.543.383-8.918 1.748m-326.409 7.737c-.71.781-2.21 1.419-3.334 1.419-1.199 0-1.865.517-1.611 1.25.257.742 1.712 1.122 3.583.936 3.131-.312 3.151-.284 3.151 4.367 0 4.187-.211 4.625-1.999 4.158-1.099-.288-2.256-.108-2.569.399a1.087 1.087 0 01-1.494.351c-.509-.314-.83.579-.713 1.984.116 1.405.688 2.555 1.271 2.555 1.296 0 5.061 4.2 4.728 5.274-.132.426.664 2.545 1.768 4.71 1.995 3.911 2.78 12.016 1.163 12.016-1.368 0-4.304-3.687-4.103-5.152.394-2.872-.126-3.719-2.056-3.347-3.439.662-3.998 1.491-3.917 5.808.043 2.305.306 3.629.583 2.941.968-2.398 2.563-1.282 1.906 1.334-.356 1.421-.271 2.351.19 2.066 1.023-.633 2.133.124 4.742 3.233l2 2.383-2.25-.7c-1.674-.522-2.25-.3-2.25.867 0 1.817-2.643 2.137-3.226.39-.215-.647-.908-.858-1.539-.468-.631.39-.894 1.37-.584 2.177.745 1.941 6.73 1.918 8.349-.032.685-.825 1.688-1.5 2.229-1.5.542 0 .726.675.409 1.5-.354.924.003 1.5.932 1.5 1.185 0 1.475-1.227 1.356-5.75-.083-3.163-.061-5.975.049-6.25.109-.275.361-6.514.559-13.863.198-7.35.608-13.613.913-13.917.304-.304.553.398.553 1.561 0 1.928.273 2.02 3.08 1.041 1.693-.59 3.301-1.804 3.573-2.698.271-.893.927-2.433 1.458-3.421.821-1.529.22-2.124-4.038-4-4.946-2.179-7.384-4.703-4.542-4.703.808 0 1.466-.337 1.462-.75-.013-1.417-8.453-1.131-9.782.331M390 352.996c0 2.394.589 3.279 2.75 4.132 4.85 1.914 5.524 2.412 9.044 6.675l3.458 4.189-7.863-.246-7.862-.246.306 6.5c.169 3.575-.113 7.623-.626 8.995-.513 1.372-.569 3.622-.125 5 .877 2.72 1.82 9.14 1.88 12.795l.038 2.291 2.682-2.487c2.731-2.533 3.862-6.513 1.901-6.694-.596-.055.042-.407 1.417-.782 1.375-.376 2.944-1.681 3.487-2.901.599-1.345 1.877-2.217 3.25-2.217 2.256 0 2.263.047 2.263 16 0 8.8.337 16.045.75 16.1.413.056 3.636.279 7.164.497 3.527.219 6.569.553 6.759.743.19.19.359 17.291.377 38.003l.031 37.657h15.077l-.375-7.25c-.206-3.988-.768-8.111-1.249-9.164-.626-1.372-.542-1.709.296-1.191.794.491 1.17-.241 1.17-2.277 0-1.65.39-3.241.866-3.535 1.113-.688.219-5.476-1.524-8.163-.742-1.144-1.058-2.371-.702-2.726.355-.356-.066-.92-.937-1.254-4.369-1.677-4.849-4.96-1.622-11.094 2.757-5.241 2.889-5.895 1.407-6.979-1.907-1.394-1.756-2.632 2.054-16.867 1.473-5.5 2.912-11.045 3.198-12.323.287-1.278 1.302-2.811 2.256-3.407.962-.601 1.532-1.858 1.28-2.824-.537-2.051.448-4.03 6.749-13.565 4.521-6.842 4.644-7.218 3.161-9.664-1.182-1.947-2.522-2.623-5.711-2.881l-4.167-.336-1.216 7.5c-.668 4.125-1.615 9.287-2.104 11.472-.635 2.84-.546 4.194.312 4.75.793.514.854 1.032.18 1.528-.562.413-1.557 1.971-2.212 3.463-1.149 2.615-1.448 2.706-8.23 2.501l-7.038-.213v-11.25c0-9.163.269-11.251 1.45-11.251.798 0 1.895.788 2.437 1.75.92 1.631 1.297 1.582 5.55-.729 4.968-2.699 5.844-4.502 2.313-4.76-1.238-.091-4.387-1.163-7-2.384l-4.75-2.219-.006-9.579-.007-9.579-2.993-1.703c-1.647-.937-2.994-2.361-2.994-3.164 0-.803-1.913-2.871-4.25-4.596l-4.25-3.136-.264 2.8c-.145 1.539-.502 4.257-.793 6.039l-.53 3.24-3.49-3.49c-1.919-1.92-4.15-3.49-4.956-3.49-.807 0-1.467-.438-1.467-.974s-1.35-1.673-3-2.526l-3-1.551v3.047m-71-.405c-1.531 2.133-8.893 7.168-11.181 7.645-.696.145-1.741 1.164-2.322 2.264-1.456 2.756-3.763 2.507-4.616-.5-.39-1.375-.693 3.497-.672 10.826l.038 13.326 3.873-5.826c2.131-3.204 3.875-6.538 3.877-7.409.002-.871.34-1.921.753-2.334.413-.412.75-1.102.75-1.532 0-.43 1.35-2.102 3-3.716 1.65-1.615 3.736-3.871 4.636-5.014.901-1.143 2.174-2.258 2.83-2.476.711-.237 1.06-1.804.864-3.872-.32-3.37-.374-3.411-1.83-1.382m110.593 1.149c-.365.365-2.223.559-4.128.431-3.343-.225-3.465-.109-3.465 3.298 0 4.043 1.671 4.531 7.366 2.151 2.766-1.155 3.816-1.163 6.468-.048 2.84 1.194 3.166 1.155 3.166-.38 0-.941.9-2.273 2-2.96 1.1-.687 2-1.656 2-2.154 0-1.034-12.397-1.347-13.407-.338m-405.749 7.307c-.085 3.549-.059 7.525.059 8.835.184 2.048-.109 2.287-2.094 1.707-5.082-1.486-13.914-2.388-16.533-1.688l-2.776.741-.274 17.223c-.173 10.88-.633 17.001-1.25 16.62-.538-.332-.976.546-.976 1.956C0 407.848.45 409 1 409s1-.828 1-1.841c0-2.702 9.136-7.329 15.909-8.058l5.591-.601.767-5c.421-2.75.908-5.9 1.082-7 .174-1.1 1.083-3.8 2.02-6a993.49 993.49 0 002.592-6.132c.58-1.392 2.042-2.293 4.214-2.597 1.829-.257 4.113-.808 5.075-1.226 1.451-.629 1.75-.236 1.75 2.304v3.062l4.126-1.455c2.269-.801 5.644-1.456 7.5-1.456 3.082 0 3.374-.259 3.374-3 0-3.848-.271-4.59-1.5-4.108-3.931 1.539-11.612.996-13.568-.96-1.148-1.148-2.744-1.834-3.547-1.526-.804.308-1.727-.132-2.052-.98-.343-.894-1.239-1.292-2.134-.949-.967.371-2.972-.803-5.371-3.145L24 354.594l-.156 6.453m163.824-1.123c-4.631 4.95-4.668 5.046-4.668 11.939v6.949l5.05.695c3.24.446 6.107.257 8-.528 2.927-1.212 2.95-1.286 2.95-9.404 0-7.96-.091-8.27-3.332-11.412l-3.332-3.23-4.668 4.991m305.224 5.418c-1.427 1.187-3.535 2.801-4.684 3.586-1.149.785-2.038 1.685-1.974 2 .063.315-.468 1.771-1.181 3.237-1.225 2.517-1.596 2.634-6.675 2.11L473 375.72v5.042c0 4.591.288 5.224 3.224 7.083 1.773 1.122 3.373 1.891 3.556 1.708.319-.319 1.007-4.683 1.151-7.303.038-.687.498-1.25 1.023-1.25.881 0 .687 19.09-.349 34.293-.527 7.721.082 9.707 2.976 9.707 1.325 0 2.815.872 3.419 2 .589 1.1 1.528 2 2.088 2s2.674 1.125 4.697 2.5c2.024 1.375 4.025 2.5 4.447 2.5.422 0 .768-6.509.768-14.465 0-13.643-.119-14.528-2.087-15.582-2.886-1.544-7.848-7.146-7.884-8.899-.03-1.478 3.579-7.277 7.735-12.431 2.448-3.035 2.472-7.563.082-15.359-1.307-4.263-1.874-4.483-4.954-1.922m-361.872 2.126c-2.061 3.334-2.079 3.605-.468 7 1.688 3.557 4.448 4.818 4.448 2.032 0-1.208 1.556-1.5 8-1.5 7.867 0 8-.042 8-2.5s-.133-2.5-8-2.5h-8v-3c0-3.952-1.347-3.793-3.98.468m324.847 8.483c-.584 1.677-1.745 3.049-2.58 3.049-1.336 0-1.327.29.075 2.429 2.43 3.709 2.516 54.973.099 59.646-.934 1.806-1.252 3.458-.732 3.808.504.339 1.222 1.442 1.594 2.45 1.069 2.892 3.052 1.419 4.582-3.405.773-2.435 1.834-4.709 2.357-5.053.524-.344.649-1.581.278-2.75-.4-1.261-.241-2.125.393-2.125.587 0 1.067-1.575 1.067-3.5 0-4.288.794-4.369 4.536-.462 3.684 3.844 3.976 3.141 4.292-10.33.26-11.053.406-11.589 2.647-9.729 1.33 1.104 1.44.837.866-2.107-.362-1.855-1.037-3.522-1.5-3.705-.462-.184-.841-2.805-.841-5.826v-5.492l-4.701.289c-4.64.285-4.738.228-7.448-4.384-1.51-2.57-3.039-6.238-3.397-8.15-.704-3.749-.294-3.974 8.827-4.84 5.318-.505 3.213-2.264-3.066-2.563-6.208-.295-6.298-.261-7.348 2.75M301.559 393.57c-1.068.786-3.404 1.43-5.191 1.43-1.788 0-3.528.45-3.868 1-.34.55-1.443 1-2.452 1-2.108 0-3.048 1.894-3.048 6.143v2.98l4.75-.73c2.613-.401 5.65-.811 6.75-.911 1.707-.154 1.954-.788 1.683-4.331-.19-2.474.113-4.151.75-4.151.587 0 1.096.563 1.13 1.25.035.688.498.164 1.029-1.164 1.325-3.315.776-4.217-1.533-2.516m-230.937 2.571c-.342 1.71-.622 6.203-.622 9.984 0 6.692-.068 6.875-2.534 6.875-2.491 0-2.521.091-1.75 5.25.914 6.123.904 52.463-.013 53.38-.341.341-2.448-.111-4.682-1.005-5.866-2.347-5.905-2.312-6.227 5.545-.305 7.445-1.653 9.568-3.561 5.608-.909-1.887-1.109-1.029-1.165 5.004L50 494.065l-5.341-4.033C39.191 485.904 38 485.34 38 486.878c0 .483 2.475 2.378 5.5 4.211 3.025 1.834 5.5 3.719 5.5 4.19 0 .471.862.582 1.916.248 1.054-.335 2.205-.14 2.559.432.363.588 4.315 1.041 9.084 1.041H71l-.1-2.75-.099-2.75-.763 2.5c-.686 2.248-.842 2.313-1.546.649-.511-1.206-.3-2.15.604-2.708.978-.605 1.074-1.171.327-1.918-.989-.989-.159-13.621.969-14.748.239-.239 1.554.298 2.921 1.195 1.887 1.236 2.588 1.326 2.906.374.304-.912 1.446-.649 4.176.962 2.067 1.219 4.174 1.96 4.682 1.647 1.342-.83 1.132-7.844-.277-9.253-1.633-1.633-2.8-1.508-2.8.3 0 2.129-1.283 1.882-6.496-1.25-4.398-2.642-6.84-6.691-4.889-8.107 1.021-.741 1.512-9.142.535-9.145-.357-.001-.711-5.823-.785-12.938l-.134-12.936 4.134 2.688A1423.43 1423.43 0 0082 433.735c6.175 3.946 6.277 4.121 5.558 9.538-.863 6.505 1.683 9.832 6.739 8.804 3.672-.746 4.395-2.911 2.846-8.522-1.13-4.093-.651-4.381 2.448-1.469l2.22 2.085.662-2.085c.432-1.362 1.507-2.086 3.094-2.086 1.766 0 2.433-.548 2.433-2 0-1.467-.667-2-2.5-2-2.088 0-2.5-.475-2.5-2.879 0-2.28-.649-3.147-3.118-4.17-4.49-1.86-6.31-.356-6.692 5.531l-.31 4.777-2.865-2.744c-1.575-1.51-2.647-3.311-2.381-4.002.265-.692-1.666-3.094-4.29-5.338-5.327-4.553-5.273-5.107.573-5.891C87.6 420.79 88 420.46 88 417.916v-2.82l-4.75 1.463c-7.89 2.43-9.251 2.695-9.235 1.799.04-2.217 1.968-3.173 7.735-3.836 4.353-.5 6.25-1.144 6.25-2.12 0-.771-.52-1.402-1.155-1.402-.744 0-.624-.622.339-1.75.822-.962 3.133-4.733 5.136-8.379l3.642-6.629-3.106-.621c-5.787-1.157-8.022-.634-12.057 2.819-4.25 3.638-7.799 3.356-7.799-.622 0-3.084-1.744-2.847-2.378.323m76.528 8.698c-1.818 5.686-3.075 10.569-2.794 10.85.928.929 2.644-.775 2.644-2.626 0-1 .698-2.397 1.551-3.105 1.389-1.153 1.541.064 1.448 11.627-.136 16.939-.172 16.415 1.138 16.415.625 0 4.38 2.903 8.344 6.45l7.207 6.451.656-18.111c.361-9.961.656-20.873.656-24.25v-6.14l-6.25-1.372c-3.437-.755-6.588-1.463-7-1.575-.412-.112-1.394-.259-2.18-.328-.787-.069-1.585-1.137-1.773-2.375-.212-1.395-1.597 1.677-3.647 8.089M367 403.5c-1.375.786-4.187 1.445-6.25 1.465L357 405v26h-2.5c-2.902 0-3.115 1.325-.887 5.5.881 1.65 1.615 4.699 1.631 6.775.016 2.077.417 4.016.892 4.309.475.294.864-2.391.864-5.966 0-5.84 1.688-10.055 2.75-6.868.224.673 1.715.887 3.809.547 4.449-.722 4.567 1.206.441 7.203-1.963 2.853-3 5.598-3 7.941 0 1.969-.857 5.488-1.905 7.82-1.058 2.356-2.17 7.768-2.503 12.182-.7 9.281-1.071 9.662-9.092 9.316-6.65-.287-8.802 1.446-2.783 2.241l3.783.5-4.25 1.41-4.25 1.41V497h16v-6.878c0-4.893.433-7.236 1.5-8.122 1.28-1.062 1.5-.776 1.5 1.957 0 3.062.142 3.177 3.25 2.635l3.25-.566-3.25 1.49c-2.876 1.318-3.25 1.95-3.25 5.487 0 3.642.232 3.997 2.611 3.997 2.414 0 2.565-.25 1.991-3.309-.58-3.091-.347-3.456 3.53-5.525 4.762-2.542 5.678-2.196 4.297 1.622-2.078 5.746-.085 7.212 9.808 7.212H390v-30h-18l-.003-16.75c-.004-20.549-1.098-48.263-1.904-48.215-.326.02-1.718.679-3.093 1.465m-148.992 27.119c.008 22.705.025 22.889 2.25 23.988 1.233.609 4.314 2.298 6.847 3.754l4.605 2.648.683-14.255c.376-7.839.779-19.542.895-26.005l.212-11.75-4-.011c-2.2-.005-5.687-.289-7.75-.63l-3.75-.62.008 22.881m103.857-15.956c-.641.772-1.377 3.613-1.637 6.314l-.472 4.911 4.232-.387c5.307-.486 5.376-.565 5.451-6.217.058-4.478-.073-4.7-3.174-5.349-2.238-.468-3.594-.244-4.4.728m83.271 6.42c-.137 1.592-3.136 2.309-3.136.75 0-.458-1.125-.833-2.5-.833s-2.5.429-2.5.954c0 .525-1.608.749-3.574.497-3-.384-3.519-.176-3.232 1.296.206 1.052 1.335 1.814 2.824 1.904 5.817.355 5.622.289 3.982 1.349-.825.533-2.738.976-4.25.985-2.519.014-2.75.337-2.75 3.848 0 5.272.113 5.297 8.673 1.974 8.075-3.136 10.471-2.812 8.361 1.129-1.188 2.22-2.198 20.086-1.133 20.036.573-.027 9.404-22.218 10.569-26.555.65-2.421-2.715-4.417-7.448-4.417-2.195 0-2.986-.537-3.316-2.25-.239-1.238-.495-1.538-.57-.667m-94.584 11.492c-.348 1.854-1.246 3.72-1.996 4.148-.75.427-1.532 1.902-1.738 3.277-.373 2.486-.385 2.483-2.097-.7-.946-1.761-1.767-4.236-1.823-5.5-.073-1.643-.347-1.3-.957 1.2-1.212 4.963-1.722 18.378-.983 25.819.346 3.475.224 6.569-.271 6.875-.495.306-.29.943.456 1.416 2.468 1.563 4.884.925 6.031-1.593.756-1.659 2.244-2.692 4.479-3.112 2.519-.472 3.367-1.157 3.426-2.766.043-1.177.306-1.576.583-.889.844 2.091 2.087 1.409 3.188-1.75.575-1.65 1.519-3 2.098-3 1.961 0 1.065-2.763-1.078-3.324-1.651-.432-1.935-.963-1.263-2.366 1.949-4.071 1.016-12.629-1.827-16.747-3.489-5.053-5.408-5.358-6.228-.988M44 436.783c0 .156 1.125 2.504 2.5 5.217 2.052 4.05 2.5 6.378 2.5 13.002C49 463.324 50.66 468 53.615 468c1.459 0 1.567-1.312 1.78-21.5l.105-10h-5.75c-3.162 0-5.75.127-5.75.283m425.994-.283c-.098.55-.249 2.303-.336 3.896-.123 2.255-.982 3.325-3.876 4.832-2.045 1.064-5.151 3.586-6.904 5.603-1.752 2.018-4.129 4.216-5.282 4.884-1.153.668-1.533 1.23-.846 1.25.841.023 1.25 1.799 1.25 5.428 0 5.13 1.941 8.118 3.893 5.994.334-.364.045-.862-.643-1.107-1.989-.711-1.449-2.995.851-3.596 1.155-.302 1.822-1 1.481-1.552-.341-.551.976-2.219 2.926-3.706 1.951-1.488 3.308-2.943 3.017-3.234-.657-.658 2.453-4.192 3.689-4.192.497 0 .626.45.286 1s-.196 1 .321 1c1.218 0 2.083-11.75 1.104-15-.414-1.375-.833-2.05-.931-1.5m-349.243 10.746c-.589 8.633-.276 22.562.524 23.362.5.5 5.542-.917 7.457-2.096.128-.079-.591-3.039-1.598-6.578-1.007-3.538-2.401-9.477-3.098-13.196-1.645-8.777-2.753-9.281-3.285-1.492M23 445.898v3.681l8.052-.938c7.882-.918 8.046-.992 7.75-3.539-.295-2.539-.491-2.605-8.052-2.743l-7.75-.142v3.681m173.048-.949c-.799.506-1.811.697-2.25.426-.439-.271-.798.171-.798.983 0 .811.563 1.676 1.25 1.922 2.409.86-.411 2.171-5.058 2.351-2.581.1-5.03.224-5.442.275-.412.052-.75 1.496-.75 3.211 0 2.783.24 3.038 2.25 2.379 1.238-.405 3.375-.866 4.75-1.023 6.639-.761 9-2.647 9-7.192 0-4.406-.451-4.914-2.952-3.332M15.289 460.001C12.422 462.75 9.61 465 9.039 465 8.467 465 8 466.151 8 467.557c0 2.442-.099 2.487-2.223 1C2.199 466.05 2 466.5 2 477.091c0 10.087.001 10.093 3.5 14.18 1.925 2.249 3.5 4.458 3.5 4.909 0 .451 2.925.82 6.5.82H22v-13.904l-4.553-3.132c-3.694-2.542-4.331-3.399-3.377-4.548.646-.779 1.682-1.431 2.302-1.449 3.609-.107 5.409-3.617 5.787-11.288.452-9.166.055-9.321-6.87-2.678m87.747 10.432c-1.94 3.625-.912 4.847 6.099 7.243 11.432 3.908 10.865 3.905 10.865.055 0-3.297-.182-3.454-5.845-5.028-3.215-.894-6.42-2.318-7.123-3.164-1.747-2.106-2.478-1.942-3.996.894m146.571 9.149c-.334.87-.607 5.145-.607 9.5V497h2.867c2.645 0 3.06-.542 5.358-6.988l2.49-6.989-4.285-2.511c-5.058-2.964-5.043-2.962-5.823-.93m17.6 6.446c.336 9.525 1.162 10.401 5.856 6.207 3.955-3.534 3.392-6.212-2.356-11.216l-3.792-3.301.292 8.31M120 489.552v7.553l5.25-.303 5.25-.302.302-6.409c.346-7.359-.216-8.053-6.552-8.076L120 482v7.552m165 .478V497h7.5c5.001 0 7.5-.385 7.5-1.154 0-1.242-6.068-6.724-11.595-10.475L285 483.06v6.97" fill="#d3d3d3" fill-rule="evenodd"/></svg>