<svg xmlns="http://www.w3.org/2000/svg" width="500" height="538"><path d="M116.649 43.612c.159 2.018-.128 3.21-.688 2.864-.529-.327-.961-.091-.961.524s-.45.84-1 .5c-1.611-.996-1.147 1.133.555 2.545 2.042 1.695 5.572-1.608 5.793-5.42.105-1.808.714-2.624 1.961-2.624 1.127-.001 1.536.44 1.086 1.169-.486.787-.178.961.941.531 1.087-.417 1.664-.129 1.664.83 0 .808-.338 1.416-.75 1.351-2.808-.444-4.673.198-3.25 1.118 1.333.862 1.333.973 0 1-1.019.021-1.131.266-.35.765 2.641 1.687 2.025 8.235-.775 8.235-1.86 0-2.045.402-1.481 3.219.874 4.37 2.004 5.24 4.092 3.152 1.648-1.648 1.835-1.652 2.996-.064.7.956 2.579 1.693 4.319 1.693 1.695 0 3.359.45 3.699 1 .34.55-.357 1-1.548 1-1.514 0-1.993.451-1.59 1.5.316.825.187 1.5-.286 1.5-1.544 0-2.044 2.955-.973 5.759.958 2.509 1.154 2.594 2.321 1.007 1.437-1.956 2.576-1.337 2.576 1.401 0 1.008.48 1.833 1.067 1.833.633 0 .794.864.395 2.119-.37 1.166-.107 3.175.584 4.466.961 1.796.981 2.677.087 3.754-1.426 1.719-.458 4.661 1.533 4.661.799 0 1.174.45.834 1-.34.55-.081 1 .576 1 .657 0 2.261 1.15 3.564 2.556 1.303 1.406 2.817 2.28 3.364 1.941.548-.338.996-.127.996.469s-1.321 1.348-2.936 1.671c-2.916.583-4.587 2.707-3.507 4.456.334.54 1.334.501 2.45-.097 1.432-.766 2.101-.626 2.775.579.805 1.438 1.237 1.444 4.548.06 3.651-1.525 3.66-1.523 4.248 1.168.324 1.484.762 3.26.974 3.947.365 1.185-1.216 1.693-4.552 1.464-1.188-.082-1.428.925-1.153 4.841.357 5.103.749 5.448 5.653 4.988 2.68-.252 4.653-2.984 3.891-5.387-.52-1.637-.254-1.853 1.657-1.354 2.887.755 5.952-.849 5.952-3.115 0-3.13-2.78-6.057-5.161-5.435-1.762.461-2.049.237-1.508-1.173.368-.958.669-2.204.669-2.768 0-.564.675-.766 1.5-.449.908.348 1.5.003 1.5-.874 0-.798-1.158-1.741-2.573-2.096-1.767-.443-2.25-.969-1.543-1.676.708-.708 1.515-.63 2.574.249 1.184.983 1.869 1.008 2.953.109 1.069-.887 1.585-.89 2.128-.011.395.638.172 1.498-.495 1.91-.88.544-.756.924.454 1.388 2.513.964 4.699.767 4.002-.361-.34-.55-.265-1.562.166-2.25 1.527-2.436 1.411-6.007-.254-7.847-1.993-2.203-.804-4.262 3.593-6.224 2.439-1.089 2.542-1.371 1.333-3.679-.967-1.848-1.312-2.044-1.323-.75-.02 2.356-1.695 2.217-3.015-.25-.883-1.651-.759-2.006.715-2.032 2.213-.039 5.88-2.707 4.971-3.616-.89-.889 1.305-3.476 2.384-2.809.463.287.589 1.182.279 1.989-.373.972.077 1.468 1.331 1.468 1.091 0 1.951-.746 2.027-1.759.073-.968.281-2.43.463-3.25.248-1.12-.478-1.428-2.92-1.237-3.369.263-4.429-1.088-1.681-2.142 1.081-.415 1.358-1.265.893-2.732-.455-1.434-.315-1.907.431-1.446.658.407 1.107-.073 1.107-1.184 0-2.432 2.921-6.526 2.968-4.161.036 1.802 5.38 1.963 7.128.215 1.955-1.955 1.868-6.965-.159-9.141-2.556-2.744-2.449-4.073.313-3.887 3.522.238 4.92 2.146 3.776 5.154-.97 2.554.27 3.739 1.381 1.32.316-.687.305-.181-.023 1.125-.376 1.492-.218 2.141.423 1.744.562-.347 1.184-.145 1.382.448.198.594 1.771-.268 3.496-1.916s3.401-2.732 3.725-2.407c.325.324.59-.165.59-1.087 0-2.1 6.868-1.558 8.498.671 1.246 1.704 6.108 1.604 5.752-.119-.137-.665.659-1.209 1.769-1.209 1.654 0 1.906.452 1.392 2.5-.387 1.54-.202 2.5.481 2.5.609 0 1.108.45 1.108 1s-.9 1-2 1-2-.436-2-.969c0-.532-.629-.727-1.399-.431-.769.295-1.7.048-2.069-.548-.907-1.467-2.532-.336-2.532 1.763 0 2.337 4.963 4.342 8.831 3.569 3.271-.654 4.065.32 1.969 2.416-.933.933-.798 1.2.607 1.2 1.215 0 1.614.504 1.217 1.538-.744 1.937 3.304 3.693 5.126 2.224.892-.719 1.25-.577 1.25.494 0 .825-1.012 2.187-2.25 3.026l-2.25 1.526 2.953 1.149 2.954 1.148-6.841 6.513c-6.279 5.977-7.249 6.541-11.784 6.85-15.558 1.058-40.697 22.353-44.896 38.032-5.741 21.436-7.021 27.772-8.38 41.5-.845 8.525-1.765 17.525-2.046 20-1.186 10.45-2.547 21.989-3.421 29-1.558 12.499-2.22 24.955-2.566 48.267-.405 27.225.205 37.245 2.166 35.618 1.014-.842 1.361-.836 1.361.024 0 .635-.705 1.424-1.566 1.755-1.218.467-1.419 1.463-.907 4.495.362 2.141.741 4.444.843 5.117.103.673.538 1.787.967 2.474.43.688.485 1.729.123 2.315-.362.586-.368 2.614-.012 4.507.547 2.917.982 3.364 2.849 2.925 3.071-.721 5.612.994 3.945 2.661-1.431 1.431-1.685 8.45-.336 9.284.498.308.671 1.46.383 2.559-.312 1.193-.03 1.999.699 1.999.823 0 1.097 1.308.841 4-.265 2.777.009 4 .895 4 1.472 0 1.663 1.174.414 2.55-1.42 1.565-3.079 9.732-2.271 11.177.591 1.057 1.537.809 4.442-1.162 3.937-2.672 4.343-2.337 2.573 2.12-1.262 3.177-1.864 11.497-2.046 28.315-.089 8.214-.542 12.138-1.583 13.731-.919 1.407-1.526 5.189-1.641 10.235-.195 8.558-.596 9.419-4.862 10.424-2.628.619-2.75.48-2.756-3.121-.003-2.073-.409-5.344-.903-7.269-1.443-5.626-2.246-21-1.097-21 .553 0 1.006.852 1.006 1.893s.675 2.152 1.5 2.469c3.365 1.291.801-11.931-3.324-17.14-1.747-2.205-3.176-5.183-3.176-6.616 0-1.433-.378-2.606-.839-2.606-1.331 0-7.161 6.799-7.161 8.351 0 .772-.648 1.942-1.441 2.6-.792.657-1.194 1.837-.893 2.622.306.798-.051 1.443-.809 1.462-.796.021-.517.538.677 1.25 2.15 1.285 2.44 2.42 1.142 4.465-.437.687-.412 1.25.054 1.25 1.186 0 .989 5.339-.23 6.235-.603.443-.458.74.367.75.872.009 1.177.739.843 2.015-.381 1.457-.03 2 1.29 2 2.632 0 1.365 3.911-1.637 5.052-3.112 1.183-3.033 2.309.12 1.706 2.191-.418 2.414-.196 1.892 1.884-.461 1.838-.182 2.365 1.267 2.388 1.804.03 1.804.062-.012 1.117-1.513.879-1.608 1.255-.5 1.97 1.144.737 1.123 1.045-.13 1.868-.825.541-.99.991-.367 1 2.876.039 2.394 6.985-.49 7.055-1.043.025-.609.6 1.186 1.573 1.744.946 2.619 2.08 2.281 2.96-.323.843.063 1.427.945 1.427 1.108 0 1.394.888 1.112 3.448-.257 2.33.08 3.625 1.04 3.993.781.3 1.138 1.001.793 1.559-.345.558.103 1.294.994 1.636.904.347 1.375 1.263 1.064 2.072-.45 1.173.065 1.302 2.693.675 1.787-.426 4.599-.8 6.248-.829 3.475-.063 3.283-2.745 2.091 29.196-.465 12.463-.349 18.25.365 18.25.575 0 1.045 1.364 1.045 3.031 0 3.475.331 3.639 8.648 4.284l6.147.477.6-10.646c.329-5.855.849-17.396 1.153-25.646.305-8.25.799-17.925 1.098-21.5.298-3.575.646-8.777.772-11.56.126-2.782.56-5.595.964-6.25.405-.654.308-1.19-.216-1.19s-1.23-.725-1.57-1.611c-.441-1.149-.188-1.447.881-1.036 1.116.428 1.394.009 1.086-1.639-.228-1.218-.496-2.214-.595-2.214-.1 0-.248-2.137-.329-4.75-.081-2.613.244-4.75.723-4.75s.576-1.238.214-2.75c-1.082-4.534-.364-12.116 1.249-13.177.894-.587.858-2.453-.142-7.376-.395-1.944-.118-2.976.903-3.369.912-.349 1.247-1.279.879-2.437-.327-1.03-.288-2.368.085-2.972 1.214-1.964 1.076-10.15-.192-11.418-.978-.978-.943-1.649.169-3.236.771-1.101 1.157-2.248.857-2.548-.3-.3-.044-1.484.57-2.631.833-1.556.822-2.086-.041-2.086-.776 0-.838-.413-.191-1.25 2.576-3.329 2.319-4.786-.75-4.245-1.635.288-2.972.104-2.972-.409 0-2.095 1.302-4.096 2.666-4.096.799 0 1.159-.474.801-1.053s.332-1.905 1.533-2.947c1.201-1.042 1.891-2.368 1.533-2.947-.358-.579-.148-1.053.467-1.053s.839-.451.499-1.002c-.74-1.197 5.349-6.998 7.346-6.998 1.078 0 1.136-.318.252-1.383-.893-1.077-.754-1.558.627-2.172 2.414-1.072 6.276-1.22 6.276-.241 0 2.154 3.352.054 12.301-7.705 6.283-5.448 10.641-8.499 12.14-8.499 9.611 0 33.911 7.208 55.895 16.578 14.962 6.378 15.133 6.423 25.114 6.582 5.528.088 8.55.344 6.717.57l-3.334.409.502 6.345c.277 3.49.206 6.642-.156 7.004-.363.362-1.381 2.962-2.262 5.778-1.468 4.685-1.468 5.367-.01 8.05 1.222 2.249 1.302 3.039.343 3.391-.687.253-1.25 1.253-1.25 2.223 0 2.029-2.898 8.272-4.265 9.187-.507.339-.985 3.376-1.062 6.75-.085 3.679-.578 6.133-1.233 6.133-1.739 0-5.717 4.742-4.98 5.936.947 1.531-5.379 6.58-7.882 6.29-2.165-.25-6.616 5.04-8.012 9.524-.385 1.237-1.293 2.25-2.017 2.25-1.552 0-2.938 4.349-1.538 4.828 1.176.403-1.663 6.172-3.037 6.172-1.656 0-1.145 7.805.575 8.767 1.285.72 1.115 1.065-1 2.029-1.402.638-2.549.817-2.549.397 0-.421-.9-.764-2-.764-2.642 0-2.56 1.191.131 1.895 1.807.473 1.921.763.75 1.914-1.475 1.449-5.881 1.859-5.881.548 0-.432-.675-.786-1.5-.786-.833 0-1.5.889-1.5 2 0 1.828 1.083 2.495 3.373 2.078.48-.088.577.61.216 1.551-.37.965-.097 2.066.627 2.526 1.922 1.219 2.784 1.016 2.784-.655 0-1.724 1.571-2.003 2.532-.449.357.578-.54 2.153-1.993 3.5S277.37 453 277.948 453c.579 0 1.052.675 1.052 1.5s-.627 1.5-1.393 1.5c-2.631 0-2.689 2.941-.072 3.598 3.152.791 3.106 1.903-.226 5.433-2.92 3.093-4.951 3.036-3.277-.092.818-1.527.712-1.939-.497-1.939-.868 0-1.535-.869-1.535-2 0-1.111-.667-2-1.5-2-.825 0-1.426.337-1.336.75.09.412-.172 2.1-.583 3.75-1.442 5.784-1.441 5.783-3.15 4.074-2.16-2.16-3.348-1.974-2.721.426.339 1.294 1.364 2 2.907 2 3.251 0 2.929 1.098-1.067 3.643-2.35 1.496-3.682 1.825-4.415 1.092-.734-.734-1.521-.66-2.611.245-.858.712-2.564 1.345-3.792 1.407-1.997.101-2.232.64-2.232 5.113 0 4.15.298 4.976 1.751 4.861.964-.077 15.139-.659 31.5-1.293 16.362-.635 41.224-1.806 55.249-2.602 14.025-.796 38.654-1.509 54.731-1.583 16.377-.076 28.993-.52 28.691-1.009-.297-.481-1.788-.874-3.314-.874s-3.112-.337-3.525-.75c-.413-.413-2.175-.79-3.917-.838-4.974-.139-8.843-1.507-8.296-2.934.269-.701-.829-2.752-2.44-4.557-1.612-1.805-2.988-3.763-3.059-4.351-.712-5.908.071-9.091 1.619-6.586.936 1.514 4.089 1.228 5.526-.503 1.83-2.205-1.56-5.801-4.872-5.168-3.686.704-9.054-2.85-8.457-5.601.844-3.891 2.605-6.71 4.232-6.775.982-.04.704-.416-.733-.992-1.273-.51-2.048-1.359-1.722-1.886.783-1.267-2.672-3.059-5.898-3.059-1.485 0-2.566-.568-2.566-1.347 0-.741-.936-2.427-2.081-3.746-1.581-1.823-1.998-3.441-1.737-6.731l.345-4.331-3.014.667c-4.917 1.088-5.775 1.051-6.24-.265-.286-.812.38-1.164 1.893-1 1.89.205 2.334-.222 2.334-2.247 0-1.767-.513-2.459-1.75-2.361-.962.076-1.75-.261-1.75-.75s.675-.889 1.5-.889c.933 0 1.5-.944 1.5-2.5 0-3.303-3.199-3.366-4.948-.096-.776 1.449-2.432 2.572-4.169 2.827-2.583.379-2.883.136-2.883-2.339 0-5.451-1.642-7.892-5.309-7.892-4.415 0-4.833-.59-2.857-4.033 1.919-3.344 1.194-4.417-3.584-5.31-2.554-.477-3.25-.268-3.25.976 0 1.732-5.181 1.104-5.833-.707-.184-.509-.881-.926-1.549-.926-1.222 0-1.488-2.293-1.703-14.682-.093-5.311-.34-6.093-1.761-5.556-2.594.982-4.319 3.018-3.162 3.733.555.343 1.022.259 1.038-.186.017-.445.385-.134.818.691 1.305 2.489.821 10.497-.634 10.499-.708 0-1.702.672-2.209 1.493-1.316 2.129-3.287-.083-3.281-3.683.01-6.232.757-12.309 1.513-12.309.44 0 .493-1.229.115-2.732-.377-1.503-.638-3.19-.58-3.75.057-.56.16-4.766.228-9.347.141-9.517.562-11.165 2.857-11.186 1.309-.013 1.366-.191.28-.879-1.151-.729-1.151-.948 0-1.406.932-.371.796-.567-.431-.621-1.582-.07-1.766-.968-1.555-7.579.247-7.759.665-8.541 3.206-6 1.714 1.714 3.643 1.979 3.643.5 0-.55-.505-1-1.122-1-.776 0-.738-.464.122-1.5 1.052-1.268.844-1.5-1.339-1.5-1.421 0-3.401-.878-4.401-1.952-1.595-1.711-2.842-1.898-10.138-1.517-4.575.238-10.412-.046-12.971-.632-2.558-.585-5.955-1.239-7.549-1.453-1.593-.214-4.397-.883-6.23-1.488-1.833-.605-3.688-.881-4.123-.612-.773.478-34.617-5.837-36.059-6.729-.403-.249-2.748-.749-5.211-1.112-6.023-.888-15.316-2.811-27.979-5.792-5.775-1.359-13.763-3.016-17.75-3.683-7.061-1.179-7.25-1.286-7.25-4.12 0-2.398.419-2.91 2.379-2.91 1.7 0 2.733-.856 3.621-3 .683-1.65 1.638-3 2.121-3 .484 0 .879-.608.879-1.352 0-4.646 9.671-9.577 12.749-6.499.865.865 1.77.741 3.664-.5 2.59-1.697 8.218-2.184 10.215-.884 1.187.773 3.595 16.065 2.747 17.438-.271.438-.016.797.566.797s1.059 1.125 1.059 2.5c0 1.857.529 2.5 2.059 2.5 1.132 0 1.787-.44 1.454-.979-.332-.538.303-2.225 1.412-3.75 1.109-1.524 2.227-4.346 2.485-6.271.638-4.757 3.624-13 4.709-13 .484 0 .881.389.881.865 0 .92 8.465.583 10.057-.4.519-.321.943-.054.943.593 0 .751.812.933 2.25.504 2.028-.605 5.582-1.184 11.25-1.833 1.509-.173 2.078.446 2.316 2.521.358 3.104 2.565 3.642 4.104 1 .965-1.658 1.021-1.656 1.05.035.037 2.178 2.857 6.743 5.266 8.524 1.43 1.057 1.557 1.709.661 3.383-1.3 2.429-.369 9.898 1.366 10.971.67.414 1.045 2.457.877 4.78-.252 3.485-.012 4.057 1.702 4.057 1.097 0 2.706.273 3.576.607 1.203.462 1.582-.043 1.582-2.108 0-2.366.309-2.638 2.396-2.115 2.657.667 3.614-.724 3.589-5.216-.021-3.559-1.298-5.384-3.597-5.139-3.586.382-4.237-.042-5.382-3.509-1.2-3.639-.742-5.52 1.347-5.52 1.117 0 3.175-7.425 3.879-14 .25-2.331.686-2.52 6.441-2.796 3.807-.182 7.519.267 9.687 1.173 1.933.808 4.443 1.226 5.577.929 1.63-.426 2.063-.07 2.063 1.7 0 1.78.28 2.006 1.367 1.104 1.037-.86 1.654-.79 2.549.289.767.924.829 1.641.176 2.044-.552.342-.737 1.319-.409 2.173.431 1.123.799 1.223 1.331.361.562-.91.92-.894 1.514.068.463.749.109 1.747-.875 2.467-2.065 1.51-2.115 2.488-.128 2.488.838 0 1.952-1.125 2.475-2.5.523-1.375 1.749-2.507 2.725-2.515 1.379-.012 1.472-.208.417-.876-1.035-.656-1.186-2.259-.636-6.735 1.574-12.793 3.464-28.953 3.553-30.374.358-5.753 2.201-23.736 3.041-29.678l1.015-7.179-3.407-4.821c-1.873-2.652-6.183-8.647-9.577-13.322C321.648 177.316 314 166.18 314 165.514c0-.304-1.221-2.457-2.712-4.784-3.199-4.989-5.771-9.428-7.124-12.296-6.283-13.317-24.564-32.561-46.424-48.869-7.861-5.864-7.963-5.995-5.236-6.725 1.756-.469 3.743-.246 5.389.605 4.826 2.496 15.589 10.894 14.449 11.274-1.319.44-.563 4.281.842 4.281.53 0 .636-.992.239-2.242-.661-2.082-.576-2.135 1.176-.75 2.387 1.887 5.901 6.194 5.901 7.234 0 1.078 5.675 4.743 7.357 4.751.766.004 1.118-.615.809-1.42-.301-.785.054-1.926.789-2.536.735-.609 1.628-2.667 1.986-4.573.478-2.549 1.166-3.464 2.604-3.464 1.075 0 1.955-.45 1.955-1s.337-.934.75-.853c2.076.407 9.252-1.549 9.265-2.525.009-.648.381-.545.881.244.62.979 1.363 1.088 2.62.385 2.223-1.244 8.484.539 8.484 2.417 0 .733.45 1.332 1 1.332s1-.45 1-1 .45-1 1-1 1 .675 1 1.5.45 1.5 1 1.5 1 .675 1 1.5.705 1.5 1.567 1.5c1.113 0 1.383.581.933 2-.503 1.583-.18 2 1.549 2 1.692 0 2.066.451 1.661 2-.287 1.1-.152 2 .302 2 .978 0 5.081 6.425 5.372 8.414.112.761.811 2.116 1.552 3.009.742.894 1.078 1.897.746 2.228-.331.331.066 1.896.884 3.476.817 1.58 1.194 2.873.837 2.873-.356 0-.198.563.351 1.25.55.688.9 2.753.778 4.591-.128 1.927.306 3.543 1.025 3.819 1.898.728 2.414 4.119.827 5.436-1.042.865-1.123 1.514-.31 2.493.604.728.833 1.752.509 2.277-1.218 1.97.518 4.295 2.178 2.917 1.314-1.09 1.428-.954.816.975-.434 1.367-.295 2.242.356 2.242 1.154 0 1.311-1.471 1.082-10.161-.132-4.991.107-5.743 2.011-6.347 1.869-.593 2.112-1.29 1.804-5.167-.352-4.421-.32-4.473 2.407-3.928 3.265.653 3.225 1.002 1.275-11.022-3.449-21.268-19.969-56.669-32.097-68.784-2.703-2.7-4.142-4.632-3.197-4.294.945.339 1.958.228 2.251-.247.293-.474 1.365-.645 2.383-.378 1.017.266 2.519-.186 3.337-1.004.817-.817 2.572-1.707 3.899-1.977 1.326-.269-2.614-.459-8.757-.422-8.935.054-11.691-.275-13.778-1.643-5.013-3.284-17.05-4.201-25.27-1.925-4.134 1.145-7.352 1.591-7.534 1.045-.177-.531-7.848-1.159-17.284-1.415-9.331-.254-20.79-.837-25.465-1.296-12.494-1.228-26.499-1.875-65-3.003-18.975-.556-38.353-1.206-43.062-1.444l-8.562-.434.273 3.458m189.054 21.583c-1.798 3.133-4.812 2.937-3.976-.26.618-2.362-1.272-2.57-2.554-.281-.581 1.039-1.561 1.411-2.633 1-1.128-.433-1.559-.231-1.27.595.241.688 1.171 1.12 2.068.961 1.053-.188 1.438.209 1.089 1.121-.298.776.151 1.677.999 2.002 2.297.882.753 3.667-2.033 3.667-1.501 0-2.393.581-2.393 1.559 0 .857.397 1.314.882 1.014.486-.3 2.081.396 3.545 1.548 2.435 1.916 2.517 2.199.966 3.334-2.071 1.514-.577 2.667 2.433 1.88 1.34-.35 2.174-1.355 2.174-2.618 0-3.358 1.209-1.297 1.925 3.283.153.978 11.509.885 12.7-.104.876-.727 1.594-.227 2.584 1.799.845 1.729 2.027 2.692 3.081 2.511.94-.161 1.71.203 1.71.809 0 .607.399.857.886.555.488-.301 1.121.347 1.407 1.441.286 1.094.978 1.989 1.539 1.989 3.151 0-6.856-18.48-13.892-25.653-5.905-6.02-8.709-6.557-11.237-2.152m-68.135 69.917c-1.613.979-3.303 1.552-3.757 1.271-.454-.28-1.078.149-1.387.955-.309.806-1.544 1.734-2.743 2.063-1.827.502-1.938.759-.681 1.584 1.227.805 1.091 1.01-.75 1.125-1.238.077-2.7.253-3.25.39-.55.137-2.152.306-3.559.375-1.66.081-2.308.53-1.846 1.28.444.717.275.882-.448.436-.655-.405-1.432-.012-1.783.903-.342.892-1.239 1.384-1.993 1.095-.754-.289-1.371-.09-1.371.442 0 .533-1.125.969-2.5.969s-2.5.477-2.5 1.059-.461.774-1.023.427c-1.061-.656-6.977 1.547-6.977 2.597 0 .328-1.391.513-3.091.412-1.804-.108-3.305.373-3.605 1.155-.282.736-.88 1.112-1.328.835-.448-.277-1.418.099-2.154.836-.737.737-1.812 1.182-2.389.99-.576-.192-2.008.672-3.18 1.92-2.059 2.192-2.253 2.602-2.253 4.769 0 .55-.565 1-1.256 1-.691 0-1.858 1.36-2.594 3.022-.735 1.662-2.043 3.728-2.906 4.591-1.335 1.335-1.358 1.704-.156 2.478 1.195.769 1.2 1.045.034 1.797-.758.489-1.069 1.389-.691 2 .427.691-.187 1.124-1.622 1.142-2.014.027-2.091.158-.601 1.027 2.148 1.252 1.337 3.567-1.51 4.312-1.715.448-1.908.821-.931 1.798 1.477 1.477 1.649 3.208.233 2.333-.851-.526-1.51 2.273-1.118 4.75.065.412-.557.75-1.382.75-1.755 0-1.911 1.363-.465 4.066.733 1.368.713 1.934-.067 1.934-.649 0-.841.826-.466 2.005.416 1.311.115 2.205-.87 2.583-.828.317-1.261 1.215-.962 1.995.299.779.046 1.417-.563 1.417s-1.107.9-1.107 2 .499 2 1.108 2c.666 0 .872.943.517 2.36-.412 1.64.029 2.922 1.448 4.206 1.393 1.261 1.858 2.574 1.465 4.14-.319 1.268-.12 2.294.443 2.294 1.395 0 1.28 1.581-.231 3.179-2.813 2.974-4.104 6.69-2.848 8.202 1.509 1.819 2.333 9.521 2.245 20.98-.074 9.541.563 11.026 5.232 12.198 1.442.362 2.621 1.045 2.621 1.518 0 .473.597.631 1.328.351.73-.28 2.531-.052 4.004.508 5.447 2.071 7.164.05 11.702-13.777 2.267-6.908 5.887-16.161 8.044-20.562 4.503-9.187 4.59-9.597 2.02-9.597-1.235 0-2.288-1.105-3-3.149-1.374-3.941-1.502-3.313 1.279-6.312l2.376-2.565 1.647 2.513c2.4 3.663 3.981 3.136 8.208-2.737 9.814-13.635 25.702-27.173 36.173-30.823 1.725-.602 3.411-1.957 3.746-3.011.76-2.397-.354-6.141-1.599-5.372-.51.316-.928-.142-.928-1.016 0-.875-.673-1.849-1.495-2.164-1.299-.499-1.266-.983.25-3.701 3.562-6.384 4.902-6.945 6.39-2.677.909 2.607 1.298 2.847 3.075 1.896 1.29-.69 2.262-.734 2.657-.12.343.533 1.635 1.284 2.873 1.671 1.496.467 2.25 1.489 2.25 3.053 0 4.807.835 5.497 5.845 4.828 6.208-.829 7.588-3.707 3.314-6.912-.805-.604-1.173-1.57-.818-2.146.356-.575-.025-1.304-.847-1.62-.822-.315-1.494-1.289-1.494-2.164 0-.874-.399-1.344-.886-1.042-.488.301-1.121-.349-1.408-1.445-.347-1.328-1.053-1.789-2.113-1.382-1.031.395-1.593.069-1.593-.925 0-2.303-2.828-4.678-5.571-4.678-2.73 0-3.063-1.578-.929-4.397.79-1.044 1.198-2.283.907-2.753-.852-1.38-4.422 1.06-5.43 3.711-1.056 2.778-2.206 3.073-3.921 1.006-.944-1.137-.783-1.84.778-3.401 2.554-2.554 3.816-6.32 1.991-5.941-.729.151-1.663.725-2.075 1.275-.432.576-1.011.047-1.367-1.25-.339-1.238-1.126-2.264-1.75-2.28-.623-.017-.346-.489.617-1.05 2.759-1.607 2.091-2.565-2.732-3.915-2.465-.69-4.27-1.597-4.011-2.016 1.017-1.646-3.17-1.56-5.939.123m-78.219 9.66c-2.881 2.314-3.946 7.487-1.893 9.191.849.705 1.544 1.708 1.544 2.229 0 1.628-21.938 23.12-34.5 33.8-6.6 5.611-15.1 12.97-18.889 16.355C96.223 214.732 95 215.555 95 213.489c0-1.187-.557-1.447-2.072-.966-1.317.418-2.763.031-3.97-1.061-1.838-1.663-1.884-1.6-1.427 1.97.32 2.502.122 3.472-.617 3.015-.598-.37-.866-1.523-.594-2.561.271-1.039.136-1.668-.3-1.398-1.042.644-2.897-1.642-3.299-4.066-.653-3.939-2.761-6.544-4.776-5.905-1.507.479-1.792.248-1.294-1.051.56-1.457.381-1.503-1.441-.365-1.144.715-1.877 1.628-1.629 2.03.248.402.014 1.001-.521 1.332-1.514.935-.058 3.537 1.98 3.537 1.004 0 2.104-.877 2.444-1.949.392-1.237 1.178-1.734 2.151-1.361.969.372 1.142.83.47 1.245-.584.361-.88 2.092-.658 3.848.524 4.135-.801 4.863-3.655 2.009-1.255-1.255-2.846-2.151-3.536-1.993-.691.159-1.312-.406-1.381-1.255-.348-4.293-2.137-6.738-5.176-7.072-3.518-.386-4.716-1.264-4.059-2.976.633-1.651-1.697-7.496-2.988-7.496-.473 0-.589 3.488-.257 7.75.331 4.262.846 16.206 1.143 26.542.515 17.883.442 18.919-1.514 21.404-1.968 2.503-1.98 2.694-.289 4.548 1.329 1.458 2.025 4.939 2.817 14.096 1.035 11.953 1.074 12.088 2.284 7.927.678-2.329 2.155-4.727 3.284-5.331 1.128-.604 1.851-1.299 1.605-1.544-.245-.245.711-1.708 2.125-3.251 2.326-2.538 2.804-2.683 5.038-1.524 2.996 1.554 4.308.915 3.91-1.908-.243-1.724.434-2.288 3.676-3.063 2.185-.523 4.58-1.557 5.321-2.298 1.643-1.644 3.655-1.713 6.442-.221 1.689.904 2.34.805 3.294-.5.654-.895 1.643-1.627 2.198-1.627.593 0 .811-1.709.529-4.148-.361-3.128-.083-4.371 1.132-5.05.885-.496 1.624-1.667 1.642-2.602.041-2.177 2.961-6.231 2.983-4.141.012 1.128.193 1.162.831.156 1.099-1.732 7.704-2.752 8.586-1.325 1.791 2.898 6.797-.349 10.387-6.737 1.169-2.08 1.025-2.79-1.263-6.248l-2.582-3.902 13.419-13.251c17.342-17.126 17.913-17.573 20.092-15.765 1.903 1.58 2.441-2.066 5.169-34.987.341-4.125 1.025-8.287 1.519-9.25 1.136-2.215-.05-2.206-2.824.022m273.686 37.162c-1.393 2.604-1.303 4.105.359 5.987 1.352 1.53.302 12.63-1.331 14.079-1.624 1.441-2.883 5.05-2.488 7.135.246 1.301.188 1.828-.129 1.171-.749-1.555-3.446-.513-3.446 1.332 0 .784-.675 1.684-1.5 2-.825.317-1.507 1.315-1.515 2.219-.01.993-.306 1.225-.75.588-.482-.692-1.315-.456-2.422.687-1.586 1.638-1.515 1.979 1.193 5.717 1.584 2.187 4.681 7.716 6.882 12.288 2.274 4.723 4.208 7.675 4.479 6.837 2.107-6.521 4.618-61.974 2.806-61.974-.607 0-1.568.87-2.138 1.934m-101.997 4.02c4.114 5.084 8.962 11.912 8.962 12.623 0 .279.887 1.459 1.971 2.622 2.26 2.426 2.267 2.415 3.936-6.616 1.89-10.232 1.898-10.214-4.657-10.978-3.163-.369-7.533-.954-9.712-1.3l-3.962-.628 3.462 4.277m24.531 3.796c-.324 1.512-1.003 5.9-1.509 9.75-.506 3.85-1.231 9.09-1.611 11.643-.621 4.169-.365 5.119 2.5 9.283 3.053 4.437 3.351 4.609 6.871 3.973 4.277-.772 5.033-1.242 3.548-2.203-.69-.447-.233-1.582 1.279-3.175 1.303-1.373 2.353-1.904 2.353-1.191 0 .708.403 1.039.895.735.493-.305 1.132.062 1.42.814.289.753 2.149 1.673 4.133 2.045 1.984.372 3.344 1.104 3.021 1.627-.323.522.715.949 2.305.949 1.591 0 3.197.304 3.568.676.915.914-3.329 5.324-5.123 5.324-.788 0-1.21.581-.937 1.292.865 2.255-5.158 7.521-7.175 6.274-.447-.276-1.58.059-2.518.745-1.562 1.143-1.406 1.641 1.852 5.908 1.958 2.564 3.559 4.924 3.559 5.245 0 .321 1.575 2.874 3.5 5.672 1.925 2.799 3.5 5.491 3.5 5.984 0 .492 3.375 6.288 7.5 12.88 4.125 6.592 7.5 12.232 7.5 12.534 0 .301 2.101 3.844 4.669 7.872l4.67 7.323 4.925-5.614c2.709-3.088 6.099-7.64 7.534-10.115 1.434-2.475 3.385-5.201 4.336-6.057 5.445-4.908 7.851-25.384 4.289-36.515-4.258-13.305-13.387-25.107-25.648-33.154-4.001-2.626-7.425-5.112-7.608-5.524-.184-.412-.719-.75-1.191-.75-.471 0-5.592-2.25-11.379-5s-11.418-5-12.512-5c-2.932 0-7.085-2.125-7.085-3.625 0-1.124-2.905-3.375-4.355-3.375-.267 0-.751 1.238-1.076 2.75m56.769 3.1c-1.126.907-2.337 2.472-2.691 3.477-.489 1.388-1.542 1.775-4.395 1.613-4.371-.248-9.653 1.602-8.749 3.065 2.347 3.797 10.481 4.347 10.505.71.008-1.329 4.468-3.715 6.945-3.715 1.384 0 7.047-5.071 7.047-6.31 0-1.23-6.831-.315-8.662 1.16m-149.915 21.564c-.758 1.081-1.679 1.663-2.048 1.294-1.034-1.034-4.377 3.334-4.36 5.695.013 1.72.19 1.828.985.597.79-1.222.972-1.099.985.667.008 1.191-.492 2.335-1.111 2.542-.62.206-1.255 2.754-1.411 5.661-.157 2.907-.556 5.556-.886 5.886-.33.331-.32 2.096.022 3.922.36 1.917.211 3.322-.351 3.322-2.482 0-6.168 5.155-5.011 7.008.873 1.398.839 2.196-.146 3.383-3.252 3.917-6.002-6.077-3.595-13.059.908-2.631 1.277-6.505 1.002-10.5-.24-3.483-.45-6.657-.467-7.054-.053-1.242-9.502 4.244-10.07 5.848-.297.837-.747 1.417-1 1.289-.74-.375-8.384 7.358-8.577 8.677-.097.661-1.14 2.164-2.317 3.341-1.177 1.177-1.901 2.526-1.609 2.999.292.472-.12 1.108-.916 1.413-.821.316-1.276 1.442-1.052 2.605.232 1.202-.133 2.05-.881 2.05-.759 0-1.276 1.251-1.276 3.088 0 1.698-.624 3.474-1.387 3.946-.764.471-1.079 1.166-.702 1.543s.236 1.527-.314 2.554c-.801 1.496-.649 1.869.757 1.869 1.459 0 1.37.272-.523 1.597-2.099 1.471-2.146 1.696-.587 2.836.932.681 2.708 1.044 3.948.807 1.24-.237 4.386.512 6.992 1.664 7.574 3.351 12.483 2.465 12.483-2.25 0-1.071 2.01-4.095 4.467-6.722l4.466-4.775-.091 3.172c-.05 1.744.691 5.088 1.647 7.432 1.667 4.089 1.884 4.242 5.374 3.781 14.2-1.873 23.56-2.435 24.706-1.485 1.901 1.578 2.646-.408 2.569-6.854-.047-3.923.534-6.677 1.897-8.987 2.112-3.58 2.557-6.844 1.005-7.383-1.199-.416-1.969-9.759-.861-10.444.959-.593-1.838-6.389-3.083-6.389-.47 0-1.413-1.35-2.096-3s-1.358-3-1.499-3c-.141 0-1.863.671-3.825 1.491-2.43 1.015-3.778 1.153-4.224.432-.36-.583-1.239-.835-1.955-.56-.717.275-1.526-.365-1.803-1.426-.409-1.563-1.086-1.809-3.599-1.306-2.428.486-3.095.274-3.095-.98 0-1.873 5.607-5.097 6.461-3.715.713 1.154 6.539 1.075 6.539-.088 0-1.581 1.851-.859 2.311.902.251.963.509-.383.573-2.989l.116-4.74-5.6.214c-4.276.163-5.926.678-6.977 2.179m-109.834.957c.488 1.271-1.278 2.558-4.389 3.199-1.899.391-4.251 2.538-3.721 3.396.827 1.339-2.355 4.663-3.22 3.363-1.389-2.087-5.881-2.576-8.973-.977-3.059 1.582-6.076 8.561-4.678 10.823.415.671.256.859-.389.46-1.495-.924.047 4.315 2.268 7.704 1.838 2.806 9.154 3.773 8.117 1.073-.266-.694.686-3.658 2.116-6.587 3.729-7.641 3.988-7.887 7.087-6.708 1.836.698 2.761.679 3.008-.061.196-.588.837-.771 1.425-.408.677.419.772.181.26-.648-.535-.866-.418-1.068.345-.595.793.489 1.173-.482 1.212-3.096.032-2.095.256-5.721.498-8.059.247-2.373.014-4.25-.526-4.25-.531 0-.729.617-.44 1.371m142.878 6.734c-.388 1.221-1.332 3.72-2.098 5.553-.765 1.833-1.425 3.672-1.465 4.087-.041.415-.548 1.326-1.127 2.024-.755.909-.626 1.759.454 3 2.271 2.607 2.759 7.32 1.155 11.158-.787 1.885-1.083 3.685-.657 4 .983.728 2.791 4.541 4.361 9.2 1.293 3.834 5.722 7.266 8.166 6.328.791-.303 2.744-.652 4.341-.774 2.675-.205 2.91-.543 2.995-4.291.05-2.238.489-4.703.975-5.479.486-.776.751-2.214.589-3.195-.373-2.27 3.643-5.581 6.017-4.961.992.26 1.582.833 1.31 1.273-.273.441.07 1.003.761 1.249.897.32.664 1.132-.812 2.836-1.138 1.313-2.186 4.092-2.33 6.176-.256 3.698-.194 3.772 2.568 3.082 1.557-.389 4.01-1.968 5.452-3.508 2.411-2.575 2.512-3.015 1.25-5.446-.754-1.455-1.372-3.221-1.372-3.924 0-1.427-2.174-2.493-5.082-2.493-1.055 0-1.918-.675-1.918-1.5s-.45-1.5-1-1.5-1-.87-1-1.933c0-1.063-.9-2.218-2-2.567-1.1-.349-2-1.081-2-1.626 0-.546.45-.714 1-.374 1.6.989 1.163-4.322-.574-6.972-.865-1.321-2.894-2.691-4.508-3.046-1.615-.355-2.68-1.058-2.368-1.563.313-.506-.109-.919-.936-.919-.828 0-2.095-1.238-2.817-2.75-1.742-3.651-6.309-4.364-7.33-1.145m55.229-1.406c-.268.441-1.024 5.976-1.682 12.301-.658 6.325-1.828 13.075-2.6 15-.771 1.925-1.422 4.4-1.447 5.5-.024 1.1-.239 9.313-.477 18.25-.329 12.359-.14 16.254.789 16.265.834.011.779.296-.175.899-.924.586-1.122 1.51-.586 2.735.445 1.018.848 2.188.896 2.601.047.413.413.771.812.797.399.025 1.964.689 3.478 1.474 2.557 1.327 2.84 1.27 3.989-.796.68-1.224 1.252-1.636 1.272-.916.019.72.449 1.053.954.741.506-.313 1.435.994 2.065 2.903 1.051 3.183 1.4 3.42 4.202 2.86l3.056-.611-1.658 2.53c-1.648 2.514-1.637 2.533 1.629 3.033 1.808.276 3.93.154 4.717-.272.847-.458 3.036.064 5.375 1.283 4.117 2.146 7.174 1.557 7.214-1.39.011-.764.69-2.346 1.51-3.517 1.475-2.105 1.532-2.081 5.327 2.282l3.837 4.41-4.647 4.79c-6.257 6.45-11.779 8.343-32.482 11.134-5.042.679-6.878.558-8.473-.559-3.649-2.556-4.591-1.802-4.591 3.672v5.097l5.75-.347 5.75-.348.304 5.303.304 5.303 4.196-.533c12.787-1.625 21.696-1.719 21.696-.229 0 .819.563 1.679 1.25 1.91.971.327.939.798-.143 2.108-1.578 1.912-.665 3.596 1.031 1.9.805-.805 1.75-.407 3.493 1.474 1.314 1.418 2.667 2.299 3.007 1.96.88-.881 4.616 6.409 4.512 8.804-.091 2.12 5.296 5.96 6.939 4.945.501-.31.911.112.911.937 0 .825-.45 1.778-1 2.118-2.079 1.285-.916 2.517 1.75 1.853 2.401-.598 2.588-.488 1.474.864-1.048 1.274-1.004 1.654.25 2.135.84.322 1.526 1.74 1.526 3.152 0 2.227.255 2.43 1.934 1.531 2.655-1.421 2.769-1.371 3.311 1.465.263 1.375.072 2.5-.423 2.5-.496 0-.321.63.389 1.4.791.859 1.711 1.055 2.381.508 1.401-1.143 2.43-.13 1.728 1.701-.391 1.019-.048 1.224 1.233.732 1.165-.447 1.541-.302 1.094.421-.374.605.237 1.744 1.359 2.529 1.286.902 1.806 2.035 1.408 3.072-.48 1.25.127 1.795 2.533 2.276 2.113.423 2.989 1.086 2.639 1.997-.288.75.062 1.364.776 1.364.715 0 1.908 1.135 2.65 2.523 2.368 4.424 3.357 2.141 3.775-8.715.361-9.374-.428-18.133-2.325-25.808-.446-1.804 1.839.083 8.21 6.779 9.403 9.882 11.237 10.727 17.844 8.215 2.887-1.098 2.937-3.163.088-3.582-.983-.144-1.91-.408-2.061-.587-.467-.555-5.938-8.89-8.043-12.254-1.1-1.758-3.719-5.418-5.821-8.134-9.372-12.11-20.653-27.796-20.268-28.181.232-.233-.25-1.173-1.072-2.089-3.866-4.312-10.288-13.837-10.312-15.295-.015-.895-.716-2.199-1.558-2.898-1.496-1.241-12.469-18.409-12.469-19.507 0-.306-3.732-6.273-8.294-13.261-4.562-6.988-9.725-14.956-11.474-17.706-21.94-34.495-24.032-37.633-24.536-36.801M149.411 267.5c-.345 1.375-1.142 2.507-1.769 2.515-.693.01-.607.354.217.877 1.13.716 1.141 1.466.065 4.442-1.229 3.399-1.365 3.482-2.666 1.624-2.138-3.053-7.612-2.627-10.175.792-1.133 1.512-2.547 3.326-3.14 4.03-.593.704-.927 2.054-.742 3 .464 2.372 9.309 1.751 12.666-.89 3.371-2.652 5.573-2.573 3.891.141-.843 1.36-.919 2.267-.229 2.75 1.167.815 1.142 3.597-.069 7.83-1.335 4.664-1.293 6.698.167 8.159 2.006 2.006 1.677 4.23-.627 4.23-1.111 0-2 .667-2 1.5 0 1.816 1.635 1.991 2.338.25.386-.957.523-.942.583.066.043.723-.387 2.186-.956 3.25-.714 1.333-.714 1.934 0 1.934.569 0 1.035.477 1.035 1.059s-.403.81-.895.506c-1.648-1.019-1.972 2.179-.443 4.363 1.09 1.555 1.215 2.516.448 3.439-.584.705-.861 2.331-.614 3.614.317 1.644-.34 3.011-2.221 4.628-2.655 2.281-2.66 2.309-.737 4.433 2.049 2.264 2.923 7.958 1.223 7.958-.599 0-.535.568.158 1.403.89 1.072.877 1.498-.054 1.809-.795.265-.907.908-.321 1.847 1.045 1.677 1.436 7.941.496 7.941-.351 0-.455 1.575-.23 3.5.25 2.142-.022 3.5-.701 3.5-1.967 0-1.178 1.85.931 2.18 1.121.176 2.011.668 1.977 1.093-.128 1.585 5.122 5.887 6.527 5.348 1.704-.653 1.791-3.554.488-16.121-1.672-16.108-2.532-38.481-2.511-65.25.02-24.263-.503-30.153-2.11-23.75m-32.911 9.72c-3.448 1.269-5.215 3.224-6.127 6.78-.353 1.375-1.318 3.279-2.145 4.231-1.952 2.247.125 5.126 3.264 4.526 1.163-.222 2.697.22 3.411.984 1.104 1.182 1.551 1.158 3.012-.164.944-.854 3.262-1.857 5.151-2.228 3.516-.691 7.955-4.509 5.999-5.161-.586-.195-1.075-1.33-1.087-2.521-.054-5.27-5.842-8.521-11.478-6.447m53.702 4.898c-.661 2.118-1.202 4.533-1.202 5.366 0 .834-.648 1.516-1.441 1.516-1.554 0-3.086 1.806-2.246 2.647.592.591 17.906 4.468 18.281 4.093.483-.483 3.406-13.888 3.406-15.619 0-1.518-1.05-1.761-7.798-1.804l-7.798-.05-1.202 3.851m258.496 1.305c-2.032 4.581-6.876 10.858-14.352 18.6l-5.333 5.522 3.617 5.478c5.044 7.639 9.253 10.696 7.886 5.727-.531-1.929-.434-2.035.682-.742.716.829 2.314 1.36 3.552 1.18 1.639-.238 2.25.174 2.25 1.52 0 1.016.925 2.639 2.055 3.607 1.364 1.168 1.846 2.421 1.433 3.723-.353 1.113-.161 1.962.445 1.962 1.189 0 1.316-32.778.169-44l-.664-6.5-1.74 3.923M94.607 388.083c-.252.779-.733 3.484-1.07 6.009-.337 2.526-.883 5.901-1.214 7.5-.331 1.6-.65 4.146-.71 5.658-.067 1.698-.683 2.776-1.611 2.818-1.038.046-.884.368.498 1.041 1.874.912 1.994 1.915 1.906 15.943-.051 8.233-.385 15.26-.741 15.616-.356.357-.148 1.249.462 1.985.61.735.873 2.239.585 3.342-.289 1.103-.087 2.005.449 2.005s.713.821.395 1.824c-.318 1.002.126 3.236.987 4.963 1.104 2.212 1.28 3.675.597 4.952-.545 1.017-.603 2.47-.132 3.311.461.823.838 5.087.837 9.474-.002 20.724.643 27.946 2.527 28.309 1.671.322 1.749-.432 1.133-10.994-.364-6.236-.86-12.057-1.102-12.934-.242-.877-.46-6.952-.485-13.5-.025-6.548-.499-16.855-1.053-22.905-1.795-19.581-1.979-46.242-.324-46.877.936-.36 1.304-1.623 1.066-3.664-.427-3.662-2.29-6.071-3-3.876" fill="#d3d3d3" fill-rule="evenodd"/></svg>