<svg xmlns="http://www.w3.org/2000/svg" width="500" height="732"><path d="M0 365.981v366.023l250.25-.252 250.25-.252.251-365.754.252-365.753-130.168.253C267.8.447 240.58.76 240.25 1.749c-.229.688.409 1.563 1.417 1.945 2.577.976 4.367 2.924 3.535 3.847-.386.429-.074.415.694-.03 1.1-.638 1.258-.261.746 1.779-.37 1.474-.188 2.873.424 3.251.591.365 1.464 1.63 1.941 2.811.725 1.798.877 1.853.93.339.034-.995.514-1.53 1.066-1.189.67.414.67 1.241 0 2.493-1.276 2.384-1.277 3.292-.003 2.505.55-.34 1 .11 1 1s.461 1.333 1.025.985c.563-.349.96-.263.881.191-.413 2.38.224 5.324 1.153 5.324.582 0 .837-.359.566-.798-.271-.439-.053-1.451.486-2.25.755-1.12.943-.881.823 1.048-.241 3.871.016 4.628 1.027 3.029 1.184-1.873 1.786-1.247 2.391 2.489.266 1.64.527 3.207.581 3.482.054.275.516-.162 1.028-.971.512-.809 1.244-1.157 1.627-.774s.161 1.342-.494 2.132c-.731.88-.819 1.665-.228 2.03.53.328 1.191.03 1.47-.661.278-.691.542-.243.585.994.043 1.237.642 2.257 1.329 2.265.833.011.75.339-.25.985-.825.533-1.073.976-.55.985.522.008.41.555-.25 1.215-3.194 3.194-1.393 3.623 15.55 3.704 75.157.355 120.747 1.553 118.235 3.105-.717.443-1.912.572-2.656.287-.916-.352-1.153 0-.733 1.093.34.886 1.075 1.611 1.633 1.611.593 0 .505.616-.21 1.478-1.062 1.279-11.44 1.481-77.3 1.51-41.84.017-76.219.179-76.399.359-.179.179 45.41.638 101.311 1.019 55.9.381 104.268.968 107.484 1.304 5.768.603 5.856.66 6.522 4.209.76 4.049-.295 154.898-1.296 185.318-.625 18.992-.58 19.685 1.255 19.393 1.047-.167 1.318-.105.601.137-1.835.62.456 3.273 2.825 3.273 1.365 0 1.778-.813 1.778-3.5 0-2.982-.339-3.5-2.293-3.5-2.536 0-3.507-1.684-3.507-6.082 0-2.013.498-2.918 1.607-2.918.884 0 1.399.562 1.144 1.25-.254.688.373 2.116 1.393 3.175 1.822 1.89 1.856 1.868 1.856-1.25 0-1.746-.45-3.175-1-3.175s-1-.62-1-1.378c0-.757-.686-1.947-1.525-2.643-1.366-1.134-1.364-1.444.024-2.978.852-.941 1.302-2.355 1-3.142-.354-.924.109-1.43 1.308-1.43 2.316 0 2.444 6.168.158 7.614-1.225.774-1.178.929.285.942 1.573.013 1.738 1.202 1.634 11.765-.064 6.462-.322 10.962-.573 10-.631-2.413-3.311-2.211-3.311.25 0 1.1-.649 2-1.443 2-.827 0-1.307-.746-1.126-1.75.174-.962-.051-2.65-.5-3.75-.475-1.166-.831 4.255-.852 13-.02 8.25-.207 16.575-.416 18.5-.209 1.925.062 4.063.601 4.75.659.84.613 1.25-.142 1.25-.728 0-1.122 2.597-1.122 7.406 0 6.914.133 7.372 2 6.884 2.18-.57 2.521.369.985 2.71-.876 1.333-1.094 1.333-1.97 0-.666-1.015-1.014 4.48-1.077 17-.05 10.175-.23 25.813-.4 34.75-.253 13.327-.059 16.25 1.077 16.25.762 0 1.385.9 1.385 2s-.623 2-1.384 2c-1.156 0-1.408 7.452-1.531 45.25-.081 24.888-.337 53.8-.57 64.25-.233 10.45-.754 49.6-1.156 87-.403 37.4-.761 68.45-.796 69-.041.651-19.393 1.09-55.376 1.258-51.452.241-55.197.374-53.659 1.913.917.917 1.947 1.244 2.313.735.598-.834 3.111-.983 8.659-.514 1.845.156 1.864.248.25 1.188-2.144 1.249-2.287 2.92-.25 2.92.825 0 1.5-.477 1.5-1.059s.457-.776 1.016-.431c3.789 2.341-3.952 2.583-65.864 2.054-36.108-.309-96.252-.789-133.652-1.069C72.454 667.86 31 666.98 31 665.809c0-.497 1.125-1.947 2.5-3.221 1.375-1.275 2.507-3.391 2.515-4.703.012-1.861.22-2.062.946-.914.512.809 1.225 1.177 1.585.817.36-.36.285-1.247-.167-1.971-1.252-2.008-1.519-5.021-.382-4.319 1.358.839 1.273-5.577-.099-7.498-.861-1.205-.975-1.058-.578.75.271 1.237.037 2.25-.521 2.25-.557 0-.754.675-.437 1.5.356.93-.005 1.5-.952 1.5-.956 0-1.247-.468-.777-1.25.599-.997.441-.999-.783-.009-1.482 1.199-2.85.779-2.85-.876 0-.441.675-.543 1.5-.227.825.317 1.5.064 1.5-.562 0-.627-.675-1.398-1.5-1.714-3.373-1.295-1.292-4.992 3.342-5.938 2.233-.456 2.62-1.423.575-1.439-1.173-.01-1.481-.301-.793-.75.761-.498.825-1.535.199-3.211-1.004-2.686-2.776-1.318-2.808 2.167-.008.93-.447 1.958-.975 2.284-1.17.724-1.82-50.432-.844-66.475.218-3.575.098-6.95-.266-7.5-.365-.55-.948-59.725-1.297-131.5-.348-71.775-.931-188.213-1.294-258.75L27.678 46l18.411-.136c10.126-.075 17.423-.328 16.216-.562-1.413-.275-1.998-.939-1.643-1.864.311-.81-.041-1.452-.805-1.47-1.068-.025-1.038-.291.143-1.25.825-.67 1.586-2.75 1.691-4.622.104-1.873.725-3.735 1.378-4.138.653-.404.924-1.161.602-1.682-.322-.521-.194-2.259.286-3.862.479-1.603.91-2.414.957-1.803.108 1.394 5.083.535 6.791-1.173.986-.986.95-1.48-.177-2.415-.837-.695-1.353-2.76-1.261-5.055.085-2.134.356-3.679.602-3.433s1.062-.063 1.814-.687c1.146-.951 1.095-1.436-.313-2.991-1.755-1.94-.753-2.49 3.48-1.909.774.107 1.051-.298.65-.948-.442-.716-.035-1.017 1.107-.817 1.335.234 1.867-.39 2.037-2.39l.23-2.707L39.937.023 0-.041v366.022m.495.519c0 201.3.115 283.501.255 182.669.14-100.833.14-265.533 0-366C.61 82.701.495 165.2.495 366.5M119.5 132.948l-11 .552-.736 37.5c-.409 20.812-.347 39.677.139 42.392.482 2.691.538 6.071.125 7.511-.971 3.383-1.44 51.606-1.214 124.609.195 63.007-1.168 135.607-2.92 155.488-1.727 19.603-1.69 30.667.106 31.666 1.89 1.051 27.864.846 56.5-.446 12.1-.545 26.275-.908 31.5-.805 33.715.664 101.062 2.785 114.52 3.607 18.158 1.109 51.285 1.279 65.521.336l9.541-.632-.387-12.113c-.373-11.676.653-36.113 2.879-68.613.585-8.525.922-31.925.751-52-.418-48.877-.254-68.271.857-101.5.579-17.301.581-28.478.005-29.25-.605-.811-.538-1.25.191-1.25.656 0 1.122-1.792 1.122-4.316 0-2.374.453-6.769 1.007-9.766.554-2.998 1.182-20.743 1.395-39.434.213-18.691.726-39.091 1.139-45.333.678-10.231.027-19.677-2.155-31.289l-.496-2.638-11.695-.138c-6.432-.076-13.045-.358-14.695-.626-11.978-1.946-111.292-3.266-191-2.54-10.45.095-21.7-.295-25-.868-3.3-.572-8.025-.954-10.5-.849-2.475.106-9.45.441-15.5.745m5.619 6.851c-5.124.244-6.743.736-8.217 2.502-2.21 2.648-2.421 4.699-.484 4.699.78 0 2.135.275 3.012.611 1.121.431 1.425.175 1.027-.863-.423-1.102.495-1.645 3.628-2.146 5.511-.881 11.599 1.219 19.915 6.87 5.801 3.942 6.534 4.208 6.82 2.473.208-1.266 1.08-1.917 2.5-1.866 1.199.043 1.618.306.93.583-.687.278-1.25 1.105-1.25 1.838 0 .733-.562 1.596-1.25 1.917-.951.443-.964.718-.056 1.148.656.31.969 1.15.694 1.867-.591 1.54 5.134 7.568 7.189 7.568.783 0 1.423-.415 1.423-.923s1.181-2.327 2.624-4.043c2.588-3.075 2.666-5.35.111-3.229-1.962 1.628-5.944-.736-6.829-4.055-.564-2.116-.382-2.75.787-2.75.941 0 1.301-.572.945-1.5-.316-.825-.252-1.502.143-1.503.396-.002 4.544-1.998 9.219-4.435l8.5-4.432-10.5-.134c-5.775-.074-15.9-.216-22.5-.317-6.6-.1-14.871-.046-18.381.12m116.91 2.572c-.642.642-.601 1.439.117 2.305.89 1.073-.006 1.324-4.724 1.324-4.539 0-5.557.265-4.618 1.204.662.662 2.777 1.098 4.7.969 1.923-.13 3.496.228 3.496.796 0 .567-.468 1.031-1.039 1.031-.6 0-.494.59.25 1.395 1.745 1.888 2.617 1.157 2.065-1.73-.494-2.586 2.111-4.465 3.369-2.43.39.631.179 1.324-.468 1.539-1.741.581-1.429 4.915.405 5.619 2.44.936 2.576.771 1.31-1.595-.847-1.582-.868-2.306-.074-2.571.675-.225.863-1.571.484-3.465-.551-2.758-.41-3.012 1.289-2.317 2.987 1.222 9.566 1.549 13.409.666l3.5-.804-4.5-.59c-16.432-2.155-18.048-2.269-18.971-1.346M114.867 157.75c-.202.963-.142 4.822.133 8.576l.5 6.826 4.225-4.576c2.324-2.517 5.024-4.596 6-4.62.976-.024 4.025-.652 6.775-1.394l5-1.35-3-1.217c-9.324-3.782-19.078-4.898-19.633-2.245m52.599 13.288c-3.51 3.879 3.494 8.312 15.281 9.673 5.857.676 10.973-2.344 8.862-5.231-1.285-1.757-1.8-1.809-6.359-.641-6.146 1.576-9.547.785-12.688-2.948-2.898-3.444-2.771-3.423-5.096-.853m3.189 27.712c1.288 4.813 2.381 10.1 2.43 11.75.254 8.549 1.082 12.422 2.398 11.207.719-.664 1.064-1.607.767-2.095-.303-.5 1.025-.595 3.038-.218 2.78.522 3.785.299 4.512-1.002.515-.92 1.453-1.354 2.085-.963.631.39.889 1.128.572 1.64-.316.512.153.931 1.043.931.89 0 1.343.445 1.007.989-.347.561.043.737.903.407 1.683-.646 3.133-4.186 2.127-5.192-.355-.356-.976-.112-1.379.54-.519.84-1.57.465-3.607-1.284-3.431-2.949-3.184-3.404 1.449-2.664 3.311.528 3.365.597 1 1.281-2.357.682-2.32.729.662.823 2.972.094 3.202-.156 3.823-4.15.364-2.338.904-5.103 1.202-6.146.437-1.535.137-1.791-1.572-1.344-1.162.304-2.365.144-2.673-.354-.308-.498.197-.906 1.121-.906 1.447 0 1.491-.229.317-1.644-1.213-1.462-1.115-1.565.878-.933 1.797.571 2.242.327 2.242-1.231 0-1.068.281-3.349.625-5.068l.626-3.127-3.376 1.402c-6.472 2.688-15.186 2.981-19.968.67-2.356-1.138-4.353-2.069-4.438-2.069-.086 0 .898 3.938 2.186 8.75m-14.405-.53c-2.067.997-2.25 1.765-2.25 9.433 0 8.265.473 9.474 2.8 7.147.933-.933 1.2-.846 1.2.393 0 .876-.672 1.851-1.494 2.166-1.22.468-1.282 1.038-.339 3.107 1.452 3.189 3.961 3.395 3.452.284-.202-1.238.06-2.788.583-3.445.607-.762.507-4.023-.276-9-.675-4.293-1.187-8.592-1.139-9.555.049-.963.004-1.72-.099-1.682-.103.037-1.2.556-2.438 1.152M122 203.654c0 .828 1.25 1.391 3.25 1.462 2.155.077 2.576.284 1.25.616-3.84.959-3.813 2.223.247 11.518.901 2.063 2.034 3.75 2.519 3.75.484 0 .71.787.501 1.75-.21.963 1.445 4.45 3.676 7.75l4.057 6 .302-5.834c.167-3.209-.181-6.418-.772-7.13-.679-.818-.825-3.426-.397-7.071.545-4.634.419-5.615-.633-4.965-1.02.631-1.172.109-.681-2.345.512-2.558.305-3.161-1.094-3.188-.949-.018-4.088-.848-6.975-1.846-4.169-1.44-5.25-1.536-5.25-.467m22.75.035c-.963.252-1.75.833-1.75 1.291 0 .458-.969.579-2.153.27-2.029-.531-2.115-.31-1.502 3.843.357 2.424.945 10.372 1.307 17.663.494 9.965 1.03 13.564 2.159 14.5 1.306 1.081 1.414.771.827-2.368-.907-4.842.923-6.362 6.617-5.498l4.245.644-3.659-3.267c-2.833-2.53-3.665-4.034-3.687-6.669-.016-1.872-.545-3.721-1.175-4.111-.785-.485-.627-.908.501-1.341.906-.347 1.372-1.076 1.037-1.618-.335-.543-.142-1.86.429-2.927 1.039-1.941.338-11.206-.832-10.985-.338.064-1.401.322-2.364.573m267.956 96.506c-5.988 4.362-1.813 12.997 4.822 9.974 4.454-2.029 4.555-7.574.19-10.434-2.1-1.376-2.547-1.335-5.012.46" fill="#d3d3d3" fill-rule="evenodd"/></svg>