<svg xmlns="http://www.w3.org/2000/svg" width="500" height="785"><path d="M0 20.01c0 14.923.309 19.948 1.25 20.328 1 .403 1 .52 0 .583-.687.043-1.25.806-1.25 1.696 0 1.185.667 1.489 2.5 1.138 1.375-.263 2.5-.064 2.5.443 0 .506.451.641 1.003.3.67-.414.67-1.241 0-2.493C4.491 39.18 4.785 38 7 38c1.1 0 2 .45 2 1s-.45 1-1 1c-1.753 0-1.075 1.89 1.095 3.051 1.869 1 2.023.897 1.432-.965C10 40.424 10.292 40 11.964 40c2.495 0 3.714-2.479 2.147-4.366-2.059-2.481-.987-6.651 1.589-6.183 1.247.226 2.526-.008 2.843-.52.316-.512-.202-.931-1.151-.931-.949 0-1.44-.286-1.09-.635.981-.981 4.944-1.069 7.529-.167 2.18.761 2.288.619 1.67-2.192-.415-1.893-.26-3.006.42-3.006.593 0 1.079.354 1.079.787 0 .433.91.856 2.022.94 1.112.083 1.76-.271 1.441-.788-.32-.516.59-.939 2.022-.939 1.73 0 2.504.481 2.309 1.434-.162.789.043 1.464.456 1.5 2.254.198 2.75-.083 2.75-1.556 0-1.324.274-1.395 1.489-.387.819.68 1.202 1.7.851 2.267-.403.653.345.844 2.035.521 1.47-.281 2.914-.121 3.208.355.854 1.382 4.428 1.001 5.018-.536.295-.771 1.969-1.676 3.718-2.011 2.16-.414 3.906-1.73 5.44-4.099 1.243-1.918 2.818-3.503 3.5-3.521C65.021 15.919 69 12.421 69 10.918c0-.693-.745-2.083-1.655-3.089-1.54-1.702-1.54-1.829 0-1.829.91 0 1.655-.355 1.655-.789 0-.435-1.237-.772-2.75-.75-1.889.027-3.049-.643-3.707-2.141C61.59.148 61.483.141 30.793.164L0 .187V20.01M232.667.667C231.629 1.704 231.883 5 233 5c1.435 0 1.236 2.723-.25 3.417-1 .466-1 .7 0 1.166 1.861.869 1.62 4.773-.25 4.055-2.247-.862-1.896 4.299.5 7.362 2.424 3.098 2.46 3.733.25 4.311-1.317.344-1.193.486.5.573 1.238.064 2.301.453 2.364.866.651 4.279.631 6.21-.059 5.784-.456-.282-1.384.158-2.064.977-.68.819-1.825 1.489-2.546 1.489-.721 0-1.587.871-1.925 1.936-.338 1.064-1.38 2.137-2.317 2.384-1.012.266-.607.495.997.564 1.485.064 3.06.679 3.5 1.368.44.688 2.096 1.92 3.68 2.738 3.699 1.91 5.389 5.379 3.645 7.48-1.266 1.526-1.108 1.663 2.225 1.93 1.749.14 3.445 1.895 4.03 4.171.405 1.579.339-14.745-.219-53.321L245 0h-5.833c-3.209 0-6.134.3-6.5.667M20.393 38.471c.119.809.529 1.784.911 2.167 1.069 1.068.825 2.56-.304 1.862-1.241-.767-1.251-.29-.057 2.851.61 1.604.551 4.849-.167 9.182-.738 4.452-.779 7.25-.123 8.334.542.898.663 2.758.266 4.133-.988 3.43-1.089 10-.154 10 1.148 0 1.525 12.203.398 12.899-.536.332-1.246 4.813-1.576 9.959-.671 10.444-1.1 11.791-3.2 10.048-.79-.655-1.721-.906-2.069-.557-1.205 1.205-3.318-1.604-3.318-4.412 0-3.935 1.7-4.578 2.498-.946.364 1.655 1.111 3.009 1.661 3.009 1.09 0 .097-6.148-1.131-7-.396-.275-1.033-1.778-1.416-3.341-.474-1.934-1.161-2.662-2.154-2.281-.802.307-1.458.123-1.458-.409 0-.533.675-.969 1.5-.969s1.5-.45 1.5-1-.675-1-1.5-1-1.5.45-1.5 1-.675 1-1.5 1S6 92.55 6 92s.45-1 1-1 1-.627 1-1.393c0-1.34 2.697-3.095 4.25-2.766 2.057.436.377-1.753-2.149-2.799-3.265-1.352-4.586-5.293-2.756-8.222.859-1.376.833-2.305-.104-3.806-1.789-2.864-1.559-3.311 1.329-2.586 2.146.539 2.424.383 1.681-.944-1.053-1.881-.392-7.689.792-6.957.45.278 1.101.048 1.447-.511.345-.559 1.839-1.048 3.319-1.086 2.366-.062 2.449-.167.691-.869-1.1-.439-2.989-.697-4.198-.573-3.017.31-3.843-2.42-1.277-4.218 1.636-1.146 1.825-1.746.9-2.86-.643-.776-.89-1.41-.547-1.41.342 0-.165-.814-1.128-1.808-1.349-1.394-1.928-1.516-2.53-.536-.567.927-1.473 1.008-3.333.301-1.405-.534-2.955-.724-3.443-.422C.45 47.84.062 65.407.071 87.074c.008 21.445.398 38.754.867 38.464.469-.289 1.13.196 1.469 1.079.44 1.147.184 1.44-.896 1.026C.165 127.126 0 162.932 0 456.068v329.005l56.75-.366c54.792-.353 62.89-.771 69.75-3.602 3.301-1.362 12.526-3.944 20.5-5.737 18.58-4.179 26.34-6.366 28.033-7.898 1.197-1.083 2.579-1.411 4.021-.953 1.475.468 1.974.338 1.52-.397-1.169-1.892 3.294-5.907 4.565-4.107.875 1.239.956 1.195.487-.263-.788-2.45.43-2.181 3.653.808 2.419 2.243 3.156 2.435 5.99 1.558 13.455-4.165 16.978-5.082 17.732-4.616.473.293 1.124.106 1.446-.415.322-.521.128-1.229-.431-1.575-.559-.345-1.016-1.107-1.016-1.691 0-.682.527-.627 1.466.153 2.468 2.048 19.804-.411 42.534-6.035 4.125-1.02 11.55-2.536 16.5-3.367 9.665-1.624 41.186-9.556 43.25-10.884.688-.442 1.25-2.352 1.25-4.245 0-1.893.477-3.441 1.059-3.441s.806-.409.497-.91c-.998-1.614.523-3.893 3.016-4.519 1.336-.335 2.428-1.276 2.428-2.09 0-1.658 2.549-2.021 3.491-.496.334.541 1.598.966 2.809.943 4.812-.092 11.913 2.715 13.504 5.337 1.737 2.863 4.523 3.945 8.274 3.215a560.18 560.18 0 015.922-1.107c1.925-.348 4.058-1.077 4.741-1.618.682-.542 2.595-.786 4.25-.543 1.655.243 3.009.017 3.009-.502s1.233-.708 2.739-.419c1.507.288 3.523.104 4.479-.408.957-.512 4.562-1.119 8.011-1.349 3.449-.23 7.846-1.065 9.771-1.855 1.925-.791 6.2-1.762 9.5-2.159 3.3-.397 6.9-1.205 8-1.794 1.1-.59 4.475-1.636 7.5-2.326 4.884-1.113 14.435-3.559 25.094-6.426l3.593-.967 1.24-8.253c1.143-7.604 1.308-13.718.616-22.754-.34-4.434.341-6.259 2.086-5.589 1.821.699 1.747-.892-.129-2.768-1.783-1.784-1.96-3.643-.347-3.643.866 0 .973-14.088.43-56.537l-.723-56.536 2.57.645c1.962.492 2.57.264 2.57-.964 0-.884.48-1.608 1.067-1.608.597 0 .8-.845.46-1.916-.789-2.486.876-3.474 3.303-1.958 1.568.979 2.43.831 4.791-.823 1.583-1.11 3.442-1.819 4.129-1.577.687.242 1.25-.046 1.25-.64 0-2.647 6.166-3.722 14.446-2.518 4.43.644 8.504 1.009 9.054.812 3.487-1.251 3.487-1.28 3.75 122.177.142 66.518.263-27.332.269-208.557.006-181.225-.114-315.927-.268-299.338l-.28 30.161-11.486 3.746c-6.317 2.06-11.485 4.074-11.485 4.475 0 .401-2.925 1.281-6.5 1.956s-6.5 1.626-6.5 2.113c0 .488-.873.887-1.941.887s-2.2.42-2.517.933c-.317.513-1.809.897-3.314.854-1.506-.042-3.703.229-4.884.604-2.723.864-2.844-.631-2.844-35.213v-25.472l8.654.206c5.238.126 8.913-.211 9.309-.852.436-.706-1.869-1.11-6.904-1.21-4.157-.083-8.121-.195-8.809-.25-1.757-.141-2.598-2.422-2.68-7.267-.04-2.365-.61-4.365-1.32-4.625-1-.366-1-.723 0-1.783.802-.85 1.25-4.435 1.25-10.008 0-7.843-.194-8.734-2-9.207-1.1-.287-2-1.001-2-1.585 0-.584.675-.803 1.5-.487 1.734.666 1.88.038.56-2.402-.516-.955-1.263-3.086-1.66-4.736-.574-2.393-.801-2.595-1.119-1-.92 4.618-1.209 4.875-3.325 2.96-1.536-1.39-1.706-2.005-.73-2.636 1.011-.654.978-1.015-.162-1.748-1.171-.753-1.201-1.206-.164-2.456 1.553-1.87.471-3.976-1.628-3.171-.839.322-2.126.087-2.86-.522-.978-.812-2.275-.797-4.854.054-1.935.639-3.945.898-4.466.576-.906-.56-2.704 3.126-2.29 4.693.109.412-.477.75-1.302.75-.825 0-1.5-.498-1.5-1.107 0-.61-.728-.828-1.621-.485-1.412.542-1.565-.155-1.186-5.393.253-3.509.031-6.015-.533-6.015-.615 0-.728 8.304-.312 22.75.361 12.513 1.094 47.275 1.629 77.25.536 29.975 1.222 60.463 1.524 67.75.302 7.288.319 13.25.038 13.25-.282 0-1.214-1.687-2.071-3.75-.857-2.062-2.958-5.498-4.669-7.635-2.592-3.237-2.918-4.195-1.955-5.737.636-1.018 1.156-4.704 1.156-8.19 0-5.56.323-6.637 2.625-8.764l2.626-2.424-.602-15c-.622-15.513-3.06-37.908-4.658-42.787-.502-1.533-.562-3.783-.133-5 .429-1.217.404-8.513-.056-16.213-.553-9.252-.47-16.184.243-20.441 2.051-12.233 1.497-19.21-1.732-21.825-1.547-1.252-3.938-2.558-5.313-2.901-1.375-.344-3.694-1.459-5.154-2.479s-3.62-1.854-4.8-1.854c-1.18 0-3.379-.638-4.887-1.418-1.508-.78-6.323-1.915-10.7-2.524-4.378-.608-14.484-2.423-22.459-4.033-7.975-1.609-17.65-3.213-21.5-3.563-3.85-.351-8.769-1.087-10.93-1.637-3.476-.883-4.113-.757-5.509 1.094-1.403 1.86-2.798 2.129-12.511 2.417-9.399.278-11.081.583-11.991 2.179-.583 1.021-2.071 2.837-3.309 4.035-1.952 1.891-2.25 3.205-2.25 9.922 0 6.15-.282 7.634-1.372 7.215-.755-.289-3.385-.828-5.845-1.197-4.326-.649-4.575-.541-7.628 3.314-1.735 2.191-3.155 4.482-3.155 5.09 0 .608-1.548 1.106-3.441 1.106-1.893 0-3.755.508-4.138 1.128-2.17 3.511-2.662-3.325-2.124-29.532l.203-9.905-3-1.253c-2.999-1.253-7.28-1.901-19.5-2.951-23.481-2.017-30.04-2.716-34.313-3.657-4.417-.973-5.014-.871-7.25 1.229-1.34 1.259-2.437 2.886-2.437 3.615 0 .729-.45 1.326-1 1.326-1.318 0-1.293 6.307.03 7.63.649.649.703 1.919.145 3.426-.845 2.283-1.338 2.404-10.501 2.558-10.242.173-11.714-.417-12.184-4.882a108.573 108.573 0 00-.362-3.096c-.178-1.203-7.783.067-17.107 2.858-6.367 1.905-16.504 3.256-19.021 2.533-.275-.079-4.963-.23-10.417-.335-6.188-.12-10.055-.607-10.285-1.297-.202-.607-1.484-.891-2.847-.63-2.087.399-2.369.178-1.778-1.396.619-1.649.503-1.707-.986-.497-1.803 1.467-1.756 1.632-2.011-7.119-.092-3.134-.323-3.24-11.022-5.073-6.53-1.118-7.932-1.12-8.357-.012-.736 1.919-2.291 1.639-2.329-.418-.029-1.623-.123-1.629-1.299-.083-.698.917-2.938 1.981-4.98 2.363-2.041.383-3.909 1.017-4.151 1.409-.405.656-1.331 10.096-2.064 21.061a575.03 575.03 0 01-.387 5.5c-.049.573-2.223.852-5.086.653-4.63-.32-6.546.774-4.052 2.315.522.323.782 1.905.578 3.515-.203 1.611.293 5.761 1.104 9.223.811 3.462 1.563 9.669 1.672 13.794.132 5.048.655 7.859 1.598 8.597 1.021.799 1.088 1.292.248 1.811-.799.494-.85 1.281-.168 2.557.543 1.015.937 4.06.876 6.768-.061 2.709.395 5.869 1.013 7.023.617 1.155.869 2.761.558 3.57-.31.81-.084 1.769.504 2.132 1.703 1.052 1.303 7.238-.514 7.935-2.831 1.086-7.991.641-9.977-.861-2.933-2.218-3.45-1.875-3.341 2.218.092 3.48 1.577 9.919 1.8 7.809.167-1.571 3.034 2.813 3.068 4.691.018.963.759 1.75 1.649 1.75 1.124 0 1.457.609 1.094 1.999-.288 1.099-.108 2.256.399 2.569.508.314.673.974.368 1.467-.703 1.139-.673 39.335.042 52.114.396 7.081.199 10.018-.74 11.038-3.824 4.153-3.996 5.819-.743 7.187l3.099 1.302-4.568 1.745c-2.512.959-4.568 2.157-4.568 2.662 0 .504-.439.917-.975.917-.545 0-.717-1.292-.389-2.928 1.335-6.676.934-14.517-.76-14.85-.893-.176-1.896.388-2.228 1.253-1.014 2.641 1.356 39.723 2.846 44.546.768 2.487 1.705 9.912 2.081 16.5.455 7.963 1.152 12.518 2.08 13.586 1.2 1.381 1.175 1.789-.177 2.911-1.063.883-1.218 1.525-.477 1.982 1.203.744 3.968 10.223 3.987 13.669.013 2.368 3.057 8.315 4.262 8.325.412.003.75 1.104.75 2.447s.477 2.736 1.06 3.096c.67.414.394 1.16-.75 2.027-2.329 1.766.092 1.994 4.276.403 2.212-.841 3.105-.683 4.815.851 1.154 1.036 2.829 2.14 3.722 2.453 2.445.857 2.112 12.056-.373 12.537-1.085.21-1.75-.276-1.75-1.279 0-2.456-3.311-1.421-4.705 1.471-1.083 2.247-1.209 2.291-1.25.441-.025-1.132-.68-2.927-1.455-3.987-1.318-1.802-1.454-1.667-2.082 2.059-1.38 8.189-2.495 9.143-1.88 1.607.432-5.302.287-7.186-.513-6.691-1.364.843-1.482-.662-.157-1.987 1.25-1.25-.384-3.915-1.846-3.011-.612.378-1.112 1.384-1.112 2.235 0 .965-.565 1.331-1.5.972-1.02-.391-1.5.054-1.5 1.393 0 2.814-1.845 2.435-2.589-.531-.696-2.772-4.411-3.565-4.411-.941 0 .857.45 1.281 1 .941.55-.34 1 .132 1 1.048 0 1.07-.537 1.46-1.5 1.09-1.095-.42-1.527.159-1.601 2.143-.055 1.496-.287 4.888-.516 7.538-.229 2.651-.033 4.583.434 4.294 1.345-.831 1.145 2.13-.903 13.387-2.496 13.715-2.481 16.618.086 17.29 1.456.381 2 1.364 2 3.616 0 1.702.385 3.094.855 3.094.471 0 1.325 1.462 1.898 3.25l1.043 3.25.102-4.219c.165-6.839 2.742-4.464 3.573 3.293.381 3.561 1.107 6.187 1.621 5.869.512-.316-.039 1.817-1.224 4.741-2.753 6.791-3.587 12.155-2.769 17.816.358 2.475.218 5.043-.31 5.706-.529.664-.659 1.696-.289 2.294.37.598.183 1.677-.414 2.396-1.251 1.508-.312 13.604 1.056 13.604.472 0 .874-.788.893-1.75.059-2.869 2.718-7.041 3.347-5.25C66.006 482.625 67 493.012 67 505.35c0 7.691.311 13.673.69 13.293.38-.38.584-5.806.454-12.059-.262-12.596.346-16.717 2.353-15.947 1.159.445 2.372 6.063 2.561 11.863.866 26.615.193 62.5-1.172 62.5-.487 0-.886-.727-.886-1.617 0-1.786.02-1.79-9.935 1.798-5.489 1.978-6.553 2.76-7.241 5.319-1.729 6.436 1.241 17.5 4.699 17.5.812 0 1.477.845 1.477 1.878 0 1.032.721 2.476 1.603 3.207 1.453 1.206 1.403 1.492-.535 3.061-1.584 1.283-1.973 2.382-1.504 4.251 1.099 4.381 3.103 5.226 6.478 2.73 1.627-1.203 2.958-1.708 2.958-1.122 0 .743.585.752 1.934.03 4.939-2.643 3.382.109-1.975 3.491-2.13 1.344-4.517 2.197-5.305 1.895-1.62-.622-2.475 3.5-3.086 14.883-.317 5.91-.148 6.756 1.284 6.44.906-.199 1.536-.899 1.398-1.553-.398-1.898 2.144-1.379 4.028.82 2.359 2.756 2.269 2.852-2.278 2.414-4.171-.402-4.705.436-4.189 6.575.296 3.517-.708 4.298-3.321 2.585-1.37-.897-2.49-1.43-2.49-1.185 0 .245-1.35-.904-3-2.554s-3-3.415-3-3.923-.665-.923-1.479-.923c-1.209 0-1.273-.45-.353-2.47.871-1.911.824-2.835-.207-4.077-1.112-1.34-1.106-1.746.04-2.454 1.984-1.226-3.862-6.454-7.435-6.649-4.155-.226-6.181 5.055-4.193 10.932 1.366 4.037.954 6.78-1.219 8.123-.459.283-1.141-27.254-1.517-61.195-.609-55.106-1.402-112.597-3.129-226.71-1.122-74.113-2.519-148.169-3.472-184-.54-20.35-1.476-56.35-2.079-80-.603-23.65-1.276-43.562-1.496-44.25-.559-1.755-2.33-1.566-2.068.221m286.052 59.59c-5.373 2.071-5.739 3.782-5.093 23.844.33 10.227.906 19.678 1.281 21.001.443 1.562.316 2.181-.359 1.763-1.157-.715-3.252 3.717-3.229 6.831.008 1.1-.274 3.457-.627 5.237-.862 4.35.282 8.963 1.837 7.408.63-.63 1.959-1.145 2.955-1.145 1.702 0 1.794 1.385 1.55 23.25l-.26 23.25 3.323 6.864c2.454 5.07 4.057 7.142 6.131 7.925 2.962 1.118 3.014 1.29 4.91 16.211l.636 5 9.443.129c11.216.154 13.057 1.443 13.057 9.148 0 2.506-.262 4.295-.582 3.975-.319-.32-2.01.015-3.756.745-1.746.729-5.647 1.254-8.668 1.165l-5.494-.161-.706 5.499c-3.48 27.127-3.414 34.998.29 34.719 2.148-.162 2.294-.572.958-2.685-.595-.941-.523-1.955.201-2.827.751-.905.789-1.585.112-2.033-1.389-.921-1.038-9.446.409-9.929.742-.247 1.121.814 1.047 2.934-.064 1.826-.048 5.882.036 9.012l.153 5.691 11.25-.436c6.188-.239 15.011-.423 19.608-.408 4.866.017 8.936-.452 9.742-1.121 2.893-2.401 15.663.536 22.4 5.151 1.375.942 2.768 1.874 3.096 2.072.328.198 1.297-.221 2.153-.932 1.076-.893 1.67-.951 1.925-.187.256.769 1.153.805 2.96.118 2.345-.892 2.659-1.66 3.29-8.06.383-3.891.449-7.475.147-7.964-.302-.488.121-1.444.94-2.124 1.58-1.311 1.827-.426 1.766 6.318-.018 1.989.379 2.653 1.361 2.276 1.054-.404 1.24.122.776 2.192l-.611 2.723 2.523-3c2.659-3.163 2.679-3.366 3.092-31.587.099-6.741-3.585-12.937-9.478-15.944-2.061-1.051-3.954-2.89-4.298-4.174-1.072-4.001-.702-15.335.541-16.578.651-.651.923-1.444.604-1.763-.318-.319-2.891 1.474-5.716 3.983-5.679 5.044-8.38 6.042-5.114 1.89 1.626-2.066 1.812-2.856.823-3.484-.894-.567-.651-.817.803-.828 1.146-.008 2.421-.353 2.834-.765.412-.412 1.275-.75 1.916-.75.642 0 1.206-.45 1.253-1 .048-.55.364-1.675.703-2.5 1.057-2.574 1.103-4.3.295-11-.716-5.925-5.147-18-6.606-18-.333 0-.424 2.588-.202 5.75l.403 5.75-5.574 5.87c-3.066 3.228-5.33 6.266-5.031 6.75.299.484.067.88-.515.88-.582 0-1.059-.44-1.059-.979 0-.595-.979-.532-2.5.161-1.596.727-2.5 1.958-2.5 3.405 0 1.537-1.597 3.498-4.958 6.09-2.838 2.189-5.419 5.16-6.037 6.952-1.049 3.039-5.005 7.6-5.005 5.77 0-.89-11.726-.316-21 1.03-3.655.53-5.237.222-8.422-1.638-5.211-3.043-5.432-4.355-1.157-6.877 2.525-1.49 3.579-2.818 3.579-4.513 0-2.808.739-2.972 3.785-.839 2.031 1.423 2.286 1.417 2.855-.067.344-.896.116-2.139-.507-2.762-2.384-2.384-.885-2.884 6.867-2.294l8 .608-.003-11.773c-.002-10.528-1.589-29.144-2.572-30.167-.207-.215-1.045.162-1.861.84-1.712 1.421-15.208 5.076-15.961 4.323-.538-.538-11.267 3.525-13.353 5.057-3.484 2.558-6.332-9.354-2.915-12.19.735-.61 1.919-2.876 2.632-5.036 1.086-3.291 1.842-4.03 4.664-4.56 3.978-.746 4.515-3.395 1.333-6.577-2.231-2.231-3.964-1.834-3.964.907 0 .964-.987 3.75-2.193 6.191l-2.192 4.438-.614-3.5c-.338-1.925-1.425-4.733-2.416-6.24-1.532-2.329-1.748-4.438-1.441-14.084.354-11.175.405-11.384 3.358-13.929 2.777-2.393 3.513-2.543 9.998-2.038 13.172 1.025 16.996 6.065 14.527 19.148-1.657 8.78-1.342 9.589 2.723 7.009 3.79-2.405 4.01-4.432 2.066-19.033-1.496-11.235-.645-12.621 5.934-9.666 4.5 2.021 4.792 2.796 3.367 8.925-.717 3.084-.431 4.186 2.024 7.786 1.572 2.306 2.859 5.152 2.859 6.324 0 1.172.298 1.833.662 1.469.364-.364.613-2.352.552-4.417l-.11-3.754 1.611 3c.886 1.65 2.113 5.25 2.726 8 .877 3.932 1.537 5 3.087 5 1.085 0 2.538.366 3.229.813.786.509 1.482.227 1.857-.75.33-.859 1.677-1.563 2.993-1.563 2.382 0 3.161 3.116 2.563 10.25-.08.963.298 1.75.842 1.75.92 0 1.451-4.212 1.04-8.25-.203-1.997 1.551-2.39 2.231-.5.247.688.291 2.825.097 4.75-.288 2.87-.211 3.05.43 1 1.157-3.699 2.025-.735 2.714 9.277.995 14.443 1.516 17.403 2.693 15.3 1.59-2.841.969-14.516-1.208-22.701-2.406-9.047-2.484-12.221-.38-15.432 1.132-1.728 1.463-3.725 1.084-6.548-.621-4.63-1.462-5.92-2.628-4.033-.636 1.028-.935.969-1.414-.279-1.02-2.658-5.003-2.044-4.323.666.687 2.738-4.019 3.34-6.066.776-1.713-2.146-1.597-2.589 1.146-4.387 2.234-1.464 2.894-1.446 8.25.222 6.723 2.094 12.317 8.675 12.328 14.502.008 4.495 1.97 11.001 3.601 11.937.766.44 1.357 1.565 1.314 2.5-.048 1.042-.274 1.216-.583.45-1.36-3.37-1.834-.4-1.198 7.5.419 5.206 1.546 10.707 2.782 13.583 1.143 2.658 2.092 5.583 2.11 6.5.017.917.745 2.567 1.618 3.667 1.463 1.845 1.539 1.059.982-10.148-.332-6.682-1.154-13.432-1.825-15-1.195-2.792-1.233-2.736-1.8 2.648l-.58 5.5-.815-4.67c-.448-2.568-.495-6.561-.105-8.873.407-2.408.304-4.472-.241-4.831-1.285-.845-2.448-7.126-1.32-7.126.492 0 1.19 1.345 1.551 2.989 1.049 4.774 2.252 4.411 3.419-1.031 1.458-6.8 1.462-6.781-1.604-7.142-2.531-.298-2.767-.782-4.057-8.316-.753-4.4-1.107-10.025-.787-12.5 1.564-12.069 1.735-22 .381-22.152-2.617-.296-3.403-.571-9.128-3.197-3.178-1.458-6.344-2.651-7.035-2.651-.692 0-6.416-1.467-12.722-3.26-10.32-2.935-12.094-3.17-17.773-2.352-5.617.808-6.804.66-10.819-1.345-5.578-2.786-10.612-3.492-16.034-2.249-3.056.7-4.517.624-5.5-.287-1.924-1.784-9.108-3.326-11.393-2.446M98 100.755c0 2.527-6.372 4.444-8.314 2.503-1.217-1.217-1.496-1.195-2.018.164-.333.868-.169 1.578.363 1.578.533 0 .969.45.969 1s-1.047 1-2.326 1c-5.225 0-6.787 3.649-8.274 19.334-.754 7.953-1.828 15.661-2.386 17.128-1.294 3.405-1.307 7.047-.014 4.038.656-1.527.878-.936.936 2.5.043 2.475.928 10.35 1.968 17.5s2.188 16.375 2.551 20.5 1.1 9.182 1.638 11.237c.537 2.055 1.074 11.167 1.192 20.249.118 9.082.456 16.513.751 16.513.294.001.55.788.568 1.751.018.963.37 5.867.782 10.899.726 8.882-.256 12.797-2.359 9.395-1.538-2.489-1.737 2.626-.247 6.361 1.045 2.619 1.744 3.365 2.306 2.457.443-.717 1.058-1.051 1.367-.743.854.855-.581 6.92-1.503 6.35-1.06-.655-1.701 1.724-2.43 9.031-.329 3.3-1.129 7.767-1.778 9.927-.894 2.978-.898 4.021-.017 4.315.64.213.897 1.079.573 1.924-.418 1.089-.067 1.435 1.207 1.185 2.002-.391 2.037-.558 2.887-13.729.332-5.158 1.1-11.032 1.706-13.054.802-2.678.801-8.144-.003-20.123-.608-9.045-1.317-22.52-1.577-29.945-.435-12.45-.771-18.128-2.044-34.5-.307-3.946-.164-5.315.415-4 .818 1.855.934 1.801 1.605-.75.397-1.512 1.103-2.75 1.567-2.75.464 0 .273-1.912-.424-4.25-2.202-7.382 1.012-45.734 3.3-39.379.535 1.484.921 1.048 1.868-2.116 1.503-5.015 1.536-9.255.073-9.255-.776 0-.738-.464.122-1.5 1.039-1.252.9-1.5-.843-1.5-1.752 0-2.195.809-2.756 5.033-.367 2.769-.906 4.796-1.197 4.505-.745-.745-.325-9.534.522-10.903.385-.624.566-2.484.403-4.134-.324-3.266 1.404-2.497 2.024.9.208 1.14 1.349 2.043 2.847 2.253 1.723.242 2.076.077 1.137-.53-1.151-.745-1.151-.953 0-1.341.75-.253 2.488.35 3.863 1.339s3.625 1.973 5 2.185c1.375.212 3.32.74 4.323 1.174 2.254.975 13.537-.12 15.167-1.472 1.435-1.192 2.565-.315 1.883 1.461-.347.905.281 1.128 2.161.768 1.747-.334 2.228-.767 1.412-1.271-1.411-.873-.568-3.967 1.082-3.967.599 0 .844.398.544.884-.795 1.285 5.194 3.511 8.822 3.279 17.889-1.146 23.749-1.204 23.146-.228-.364.59-1.76.797-3.101.46-1.402-.351-2.439-.174-2.439.417 0 .566 1.319 1.319 2.931 1.673 1.612.354 3.467 1.29 4.122 2.079.656.79 1.812 1.436 2.569 1.436 2.507 0 1.297-2.796-2.122-4.904l-2-1.234 2 .456c1.1.25 2.9.797 4 1.216 1.619.615 1.768.51.785-.552-.961-1.038-.878-1.559.398-2.492 1.331-.974.635-1.281-3.986-1.757-7.728-.798-10.83-2.633-4.697-2.779l4.5-.108-4-1.22c-3.231-.985-4.062-.97-4.323.077-.414 1.661-2.187 1.699-2.145.047.11-4.34 2.611-5.213 14.986-5.232 7.788-.012 12.106-.403 12.383-1.123.298-.776 1.864-.826 5.262-.17 5.875 1.135 15.422 1.962 13.337 1.156-.825-.319-2.439-1.688-3.586-3.041-1.848-2.181-2.96-2.482-9.782-2.65-5.566-.137-7.93.186-8.54 1.167-.909 1.464-5.059.704-6.245-1.144-.674-1.049-13.765-1.191-16.94-.184-1.187.377-2.176-.163-2.951-1.61-1.055-1.973-1.732-2.126-7.201-1.631-3.319.301-6.369 1.087-6.776 1.746-.452.731-2.341 1.046-4.84.808-2.423-.231-4.272.062-4.523.717-.485 1.262-15.036 3.551-17.498 2.752-4.509-1.463-8.303-3.634-9.388-5.372-1.519-2.433-4.73-2.558-4.73-.184m-82.677 12.004c-1.198.199-2.716 1.009-3.373 1.801-1.406 1.695-.587 1.851 2.116.405 1.67-.894 1.934-.697 1.934 1.441 0 1.362-.408 2.728-.906 3.036-.498.308-.684 1.409-.413 2.446.271 1.038.004 2.189-.594 2.558-.598.37-1.087 1.122-1.087 1.672 0 .55.45.722 1 .382.55-.34 1-.141 1 .441S14.063 128 12.917 128c-1.233 0-1.905.51-1.647 1.25.241.688 1.211 1.11 2.157.939 1.287-.232 1.638.271 1.396 2-.241 1.722.218 2.388 1.8 2.614 2.301.328 3.947-2.287 2.631-4.18-.693-.997-.707-3.285-.084-13.906.195-3.32-.901-4.447-3.847-3.958m263.177.438c-2.615 1.407-6.5 4.944-6.5 5.917 0 .421 1.688.905 3.75 1.076 3.659.302 3.865.54 8.505 9.81 2.615 5.225 5.708 12.803 6.874 16.84 2.942 10.185 5.02 8.359 5.071-4.458.043-10.454-2.577-18.855-7.571-24.282-2.01-2.185-2.503-3.179-1.379-2.782 1.153.408 1.75.118 1.75-.849 0-1.731-2.659-1.992-3.218-.316-.268.806-1.123.673-2.833-.44-1.873-1.218-2.919-1.34-4.449-.516m-97.75 6.431c-2.469.732-2.191 1.67 1.25 4.214 2.162 1.598 3 3.047 3 5.188 0 1.633.45 2.97 1 2.97s1-1.35 1-3c0-3.745 1.473-3.853 3.428-.25.821 1.512 1.51 2.24 1.532 1.617.052-1.467 3.856-2.473 4.628-1.225.359.582 1.137.501 1.988-.205 2.081-1.727 4.424-.355 4.424 2.591 0 1.424.39 2.349.866 2.055.476-.294.668-1.572.426-2.838-.404-2.109-.059-2.32 4.089-2.501 2.492-.108 4.802.243 5.134.78.331.537 1.485.976 2.563.976 1.617 0 1.855.481 1.36 2.75-.41 1.88-.3 2.325.348 1.407.614-.871.799 1.843.526 7.712-.26 5.569.007 9.859.693 11.14.65 1.215 1.121 7.377 1.129 14.774.007 6.979.4 13.155.873 13.725.473.57 1.371 5.785 1.996 11.589 1.251 11.622 1.489 10.395-6.044 31.206-4.05 11.19-4.811 10.619-1.507-1.131 2.814-10.011 2.982-11.172 1.609-11.172-.516 0-1.243 2.031-1.615 4.512-.997 6.649-2.82 6.98-2.013.366.607-4.966.538-5.229-.888-3.437-1.774 2.229-2.348 27.173-.601 26.093.52-.321 3.87-.655 7.446-.743 3.575-.087 6.267-.537 5.981-1-.286-.462-.149-.776.305-.697 2.112.367 2.904-.269 2.921-2.344.071-8.636.494-11.812 1.489-11.197.723.447.984-.519.78-2.887-.169-1.957.018-3.883.414-4.279.396-.396.72.281.72 1.505 0 1.229.448 1.949 1 1.608 2.217-1.37-.14 5.025-2.466 6.693-.531.381.201 1.136 1.627 1.678 4.551 1.73 5.445 8.697 1.453 11.325-.581.382-.775.976-.432 1.319.929.929 4.818-1.785 4.818-3.363 0-.839.615-1.13 1.593-.755.876.336 2.646.876 3.933 1.199 3.154.791 2.086 3.333-1.25 2.977-2.266-.241-5.431.787-10.243 3.329-1.93 1.019-9.033-.81-9.033-2.326 0-.864-1.805-.979-6.75-.429-3.713.413-7.298.773-7.969.802-.67.028-.959.726-.643 1.551.4 1.041-.069 1.5-1.531 1.5-2.101 0-2.929 2.374-1.201 3.442.498.308.67 1.462.382 2.564-.827 3.162 1.173 4.576 6.41 4.533 4.423-.036 4.808-.236 4.881-2.539.043-1.375.156-3.008.25-3.629.258-1.703 5.561-3.572 9.332-3.288 4.343.327 11.318-.931 14.599-2.634 2.846-1.476 4.24-1.111 4.24 1.11 0 .793.675 1.441 1.5 1.441 1.783 0 1.743-.535.464 6.114-2.073 10.778-2.136 13.498-.352 14.979 1.502 1.247 1.603 1.159.966-.847-.391-1.231-.174-3.927.482-5.992 2.946-9.271 4.169-12.254 5.023-12.254.504 0 .917-1.35.917-3 0-2.213-.468-3-1.786-3-.982 0-1.847-.787-1.922-1.75-.075-.963-.33-2.875-.565-4.25-.236-1.375-1.007-5.875-1.712-10-1.061-6.202-1.434-7.091-2.159-5.136-.676 1.825-1.18 2.112-2.208 1.259-.733-.608-1.684-.772-2.114-.364-.43.407-.496-.194-.145-1.337.573-1.869-2.284-18.423-3.901-22.605-.358-.926-.727-6.326-.819-12-.152-9.279-.354-10.318-2.005-10.324-2.3-.009-4.664-3.144-4.664-6.184 0-1.328-.603-2.309-1.421-2.309-2.036 0-2.73-4.4-2.633-16.705.047-5.937-.034-12.595-.18-14.795-.258-3.872-.162-4.005 2.984-4.163 1.787-.09 3.25.189 3.25.62s2.047 1.014 4.549 1.296c5.506.62 5.433.554 5.962 5.373.235 2.131.182 3.087-.116 2.124-1.012-3.27-3.013-1.767-4.292 3.225-1.115 4.351-.833 22.322.456 29.025.158.825.336 3.525.395 6 .142 5.979 1.575 3.415 2.514-4.5.684-5.761 4.074-13.284 5.396-11.976.35.346 1.173 4.532 1.828 9.302 1.627 11.834 2.38 15.174 3.421 15.174.488 0 .95 1.012 1.026 2.25.077 1.238.705-5.175 1.395-14.25.691-9.075 1.415-17.148 1.611-17.941.468-1.9-2.709-2.545-4.464-.906-.758.708-1.169 2.089-.913 3.067.298 1.14-.091 1.78-1.082 1.78-.851 0-1.691-1.012-1.866-2.25-.201-1.414-1.123-2.364-2.483-2.558-1.972-.281-2.164-.901-2.162-7 .002-4.538.273-6.048.844-4.692.652 1.552.856 1.091.911-2.059.038-2.232.747-4.932 1.574-6 1.464-1.889 1.573-1.86 4.04 1.059l2.536 3-.553-5.123c-.537-4.971-.463-5.161 2.492-6.385 1.675-.694 2.775-1.532 2.444-1.862-1.036-1.036-6.463-.946-6.463.107 0 1.333-9.907.351-17-1.684-5.746-1.649-11.19-.733-10.714 1.804.415 2.213-12.003-.116-15.286-2.867-3.585-3.004-22.268-6.337-27.25-4.862m94.25 7.46c0 .719-1.384.854-4.078.399l-4.078-.689 1.578 3.051c.868 1.679 1.578 4.451 1.578 6.16 0 1.818.415 2.852 1 2.491.55-.34 1 .116 1 1.012 0 .897.675 2.306 1.5 3.131 1.2 1.2 1.936 6.071 1.716 11.357-.011.275-.271 4.55-.576 9.5-.481 7.782-.419 8.323.457 4 1.411-6.964 3.236-8.65 5.276-4.874 3.094 5.723 3.206 5.795 5.484 3.517 4.734-4.734 3.541-19.066-2.259-27.14-3.829-5.33-4.543-7.032-2.098-5.003 1.875 1.556 2.045-.109.337-3.316-2.017-3.785-6.837-6.321-6.837-3.596M.385 456l.112 329.5.253-326.442c.201-259.63.509-326.604 1.502-327.235.901-.572.919-.797.068-.808-.65-.008-1.376-1.027-1.614-2.265C.467 127.513.323 274.775.385 456m168.212-327.391c-.332.864-.288 2.082.098 2.706.385.624.724 2.068.753 3.209.077 3.078 5.227 8.815 7.225 8.048 1.082-.415 2.513.399 4.231 2.407 1.9 2.221 2.983 2.783 4.039 2.099 1.395-.904-4.744-8.989-8.639-11.378-.717-.44-1.304-1.452-1.304-2.25 0-.797-.45-1.45-1-1.45s-1-.659-1-1.465c0-2.279-3.655-3.878-4.403-1.926m107.005 13.641c.832 2.338 1.508 7.321 1.503 11.075l-.01 6.824 2.066-2.627c4.516-5.741 5.656-17.454 1.63-16.759-.838.145-2.089-.418-2.78-1.25-2.717-3.274-4.022-1.792-2.409 2.737M155 150.566c0 .311.488 1.477 1.084 2.591.843 1.575.633 3.073-.943 6.736-1.736 4.037-2.053 7.125-2.215 21.602-.136 12.085-.6 17.873-1.632 20.343-1.492 3.571-.759 5.107 2.456 5.147.711.008 1.25 1.273 1.25 2.932 0 1.604.441 3.066.98 3.25.559.19.714 1.965.36 4.136-.43 2.645-1.033 3.645-1.98 3.282-.748-.287-1.36-.401-1.36-.253 0 .148.89 4.297 1.978 9.219s1.988 10.187 2 11.699c.012 1.513.584 2.757 1.272 2.765.833.011.75.339-.25.985-1.03.666-1.102.974-.231.985.853.01 1.063.835.642 2.515-.387 1.54-.202 2.5.481 2.5.609 0 1.108.955 1.108 2.122 0 1.728.266 1.902 1.43.936.787-.653 1.247-2.137 1.024-3.298-.224-1.162.116-2.742.755-3.512.892-1.074.856-1.59-.151-2.212-.794-.491-.99-1.337-.495-2.137.802-1.298 1.748-6.926 1.663-9.899-.152-5.392-2.367-33.124-3.275-41-1.342-11.658-1.795-17.728-2.24-30.05-.19-5.253-.68-10.09-1.087-10.75-.753-1.218-2.624-1.67-2.624-.634M354.64 160c.93 4.793.368 26.849-.759 29.813-1.056 2.777-.029 15.187 1.257 15.187.474 0 .862-.45.862-1s.625-1 1.389-1c1.403 0 2 2.213 3.105 11.5.326 2.75.83 6.519 1.119 8.374l.524 3.375 1.6-2.284 1.601-2.285.799 2.16c1.078 2.916 3.278 2.837 2.493-.09-.331-1.238-.609-2.861-.616-3.607-.008-.793-.637-1.118-1.514-.781-1.924.738-1.914-.247.026-2.39 1.643-1.817 1.073-12.972-.664-12.972-.474 0-.862-.675-.862-1.5s.363-1.5.807-1.5c1.325 0 .485-6.199-.967-7.135-1.052-.679-1.074-1.038-.099-1.668.973-.63 1-2.63.128-9.25-1.326-10.068-2.112-12.618-2.602-8.447-1.074 9.138-4.228 2.276-4.252-9.25-.009-4.157-.442-7.25-1.015-7.25-.55 0-1.032.563-1.07 1.25-.039.688-.498.35-1.019-.75-.695-1.465-.768-1.063-.271 1.5m-176.266 9.122c.517 2.583.386 2.924-.758 1.974-1.121-.93-1.51-.476-2.048 2.395-.366 1.949-.39 3.989-.053 4.533.336.545-.064 1.25-.891 1.567-1.191.457-1.51 2.599-1.537 10.343-.04 11.248-.449 12.834-3.422 13.258-1.397.199-2.283 1.145-2.499 2.669-.204 1.439.07 2.111.701 1.721.975-.602 2.537 3.563 3.533 9.418.233 1.375.351-.538.262-4.252-.089-3.714.187-6.751.613-6.75 1.564.004 2.861 5.638 2.419 10.502-.81 8.909-2.08 11.574-3.163 6.641-.363-1.652-1.39-3.596-2.283-4.322-1.406-1.143-1.53-1.073-.931.524 1.57 4.184 1.864 6.657.791 6.657-.743 0-1.108 3.6-1.108 10.941v10.94l2.75-1.428c2.819-1.464 4.845-.057 2.237 1.555-1.29.797-1.025 16.287.301 17.613.34.341 1.805.322 3.254-.042 2.13-.535 2.41-.932 1.463-2.072-1.466-1.768-2.049-6.507-.8-6.507.511 0 .624-1.012.25-2.25-.555-1.836-.438-2.02.633-1 2.454 2.337 3.789 1.362 4.105-3 .231-3.195.679-4.153 1.807-3.859.825.215 5.159.606 9.63.869l8.131.478.055-3.968c.051-3.711-.108-3.937-2.464-3.486-1.385.264-4.282-.101-6.436-.812-2.992-.987-4.507-1.024-6.417-.154-2.796 1.275-3.693-1.224-1.299-3.618.933-.933.489-1.2-2-1.2-1.76 0-3.2-.459-3.2-1.019 0-.603 1.082-.748 2.649-.354 1.865.468 2.44.325 1.941-.481-.389-.63-1.412-1.146-2.271-1.146-1.277 0-1.335-.275-.319-1.5 2.19-2.638-1.788-1.803-4.545.955L175 233.909v-4.996c0-3.376.567-5.606 1.75-6.875 2.111-2.266 2.441-19.08.446-22.722-1.471-2.687-1.561-16.46-.141-21.575.92-3.313 1.275-3.635 2.994-2.715 2.452 1.312 2.58-.275.438-5.404-1.859-4.448-2.954-4.707-2.113-.5m102.631 2.628c.003.963.842 3.1 1.863 4.75 1.677 2.708 1.716 3.281.401 5.882-.928 1.836-1.235 4.196-.846 6.5.336 1.99.883 6.206 1.214 9.368 1.048 9.989 2.128 6.28 2.887-9.919.679-14.487.597-15.769-1.086-17-2.522-1.844-4.439-1.663-4.433.419m-175.624 3.75c1.349 5.706 1.764 10.708.842 10.138-1.781-1.101-2.889 1.701-4.155 10.504-.684 4.753-1.879 9.866-2.655 11.364-.777 1.497-1.36 5.034-1.295 7.858.106 4.592.208 4.818.966 2.136.791-2.798.821-2.749.448.732-.22 2.052-.003 3.977.484 4.278 1.413.873 2.984-3.031 2.984-7.416 0-7.564 7.31-20.448 8.664-15.27.31 1.185.962 1.907 1.45 1.606 1.466-.906.962-5.665-1.074-10.152-1.418-3.123-1.696-4.992-1.067-7.185.739-2.577.399-3.462-2.607-6.779-2.446-2.698-3.319-3.229-2.985-1.814m182.118 58.507c-.393 5.496-1.116 9.993-1.607 9.993a.902.902 0 00-.892.906c0 .499.97.653 2.156.343 1.449-.379 1.928-.194 1.459.564-.426.691.289 1.334 1.844 1.658 1.398.291 3.729.778 5.181 1.083 2.564.538 2.621.446 2.011-3.25-.346-2.092-.634-5.09-.64-6.661-.008-2.126-.395-2.71-1.511-2.281-1.175.45-1.5-.267-1.5-3.31 0-2.137.531-4.062 1.18-4.279 1.642-.547.233-3.773-1.649-3.773-1.233 0-1.534 1.413-1.546 7.25-.016 7.641-1.273 11.769-2.561 8.412-.376-.98-.46-4.915-.186-8.745.274-3.829.156-7.174-.263-7.432-.418-.259-1.082 4.026-1.476 9.522M188.5 228c.34.55-.084 1-.941 1s-1.559.45-1.559 1 .727 1 1.617 1c1.11 0 1.457.61 1.106 1.951-.439 1.681.273 2.106 5.133 3.069 8.958 1.773 8.644 1.843 8.644-1.934 0-3.195-.32-3.526-5-5.172-5.642-1.985-9.931-2.42-9-.914m195.222 13.097c-.922 1.872-1.687 3.033-1.699 2.582-.026-.918-3.023 1.834-3.023 2.774 0 .328 1.152 1.035 2.56 1.57 1.408.535 2.268 1.446 1.911 2.024-.443.717-1.104.673-2.084-.141-.79-.655-1.761-.865-2.16-.467-.398.399.143 1.358 1.202 2.132 1.059.775 1.613 1.72 1.231 2.102-.381.382-1.226.161-1.877-.49-1.422-1.422-2.783-1.539-2.783-.24 0 .519 1.252 1.683 2.781 2.587 1.53.904 3.559 2.997 4.509 4.652.95 1.655 2.623 3.244 3.718 3.53 1.096.287 1.992.919 1.992 1.405 0 1.388 4.986 1.031 5.118-.367.212-2.229-.285-4.222-1.385-5.559-.592-.72-1.2-2.474-1.352-3.898-.152-1.423-.75-3.062-1.329-3.641-.578-.578-1.052-1.862-1.052-2.852 0-.99-.337-1.81-.75-1.822-.413-.012-1.853-.87-3.201-1.906-2.068-1.589-2.248-2.127-1.155-3.444.712-.858 1.117-2.095.9-2.747-.218-.653-1.15.344-2.072 2.216M289 255.563c0 1.648.566 2.442 1.75 2.452 1.231.011 1.384.248.515.8-1.683 1.069-2.866 7.185-1.39 7.185.619 0 1.125.927 1.125 2.059 0 1.132-.45 1.781-1 1.441-.598-.369-1.014.914-1.035 3.191-.019 2.095-.64 6.63-1.38 10.077-1.26 5.874-1.219 6.427.649 8.803 1.097 1.394 1.681 2.847 1.298 3.23-.382.383-1.221.022-1.864-.803-.642-.824-2.889-1.581-4.993-1.682-5.802-.279-8.675-2.61-8.675-7.039 0-2.307-.351-3.323-.942-2.727-1.638 1.651.003 9.653 2.091 10.199 2.045.535 2.461 1.881.758 2.449-1.628.542-2.55 15.108-1.539 24.302l.496 4.5c.092.825.51 2.04.93 2.701.818 1.286 20.266 6.572 21.103 5.735.561-.561-1.684-9.587-2.59-10.408-.319-.291-.782.035-1.027.722-.246.688-.879 1.25-1.407 1.25s-.842-.562-.698-1.25c.145-.687-.623-2.58-1.706-4.206-2.737-4.108-2.892-19.736-.219-22.026 1.628-1.394 1.745-1.203 1.68 2.742-.055 3.273-.265 3.784-.923 2.24-.608-1.425-.837-.463-.797 3.344.035 3.348.374 4.842.907 4 .574-.904.857-.3.868 1.847.008 1.755.526 3.507 1.15 3.892.817.506.961-.666.512-4.191-.454-3.564-.363-4.28.334-2.639.526 1.239 1.043 3.939 1.149 6 .106 2.061 1.085 5.772 2.175 8.247 3.207 7.277 4.553 14.789 4.021 22.426-.381 5.454-.02 8.525 1.576 13.41 1.138 3.485 2.364 10.522 2.724 15.638.626 8.908.563 9.331-1.486 9.982-1.177.373-2.165 1.211-2.197 1.861-.065 1.364-10.331 9.14-16.354 12.388-4.285 2.31-9.908 2.779-17.089 1.426-7.668-1.446-8.5-.318-8.5 11.53 0 6.226-.398 10.339-1 10.339-.599 0-1-3.959-1-9.878 0-11.921-1.45-14.433-5.566-9.644-2.614 3.042-2.982 2.203-1.525-3.478 1.954-7.622 2.116-9 1.058-9-.589 0-1.542 1.35-2.117 3s-1.44 3-1.923 3c-.483 0-.439-1.154.098-2.565 1.197-3.148 1.219-3.704.121-3.025-.469.29-.807-3.284-.75-7.942.078-6.315-.225-8.469-1.19-8.468-.711 0-1.221.563-1.131 1.25.32 2.464-.094 3.75-1.206 3.75-.733 0-.932-1.226-.566-3.482.682-4.2-.818-5.691-1.632-1.622-.315 1.574-1.183 3.48-1.928 4.233-.745.754-1.691 2.258-2.103 3.343-1.267 3.343-2.589-.207-2.782-7.472l-.173-6.5-.592 6.669c-.636 7.154-1.586 9.151-3.234 6.802-1.278-1.82-.691.888 1.219 5.632 1.78 4.419.696 6.85-2.305 5.17-1.25-.7-2.395-1.32-2.544-1.378-.15-.057.159-1.182.686-2.5.527-1.317.987-1.832 1.022-1.145.034.688.486 1.25 1.002 1.25 1.475 0-1.994-9.086-5.116-13.4-1.553-2.145-2.823-4.883-2.823-6.083 0-1.274-.625-2.184-1.5-2.184-1.015 0-1.5 1.016-1.5 3.143 0 1.728-.661 4.015-1.468 5.083-1.362 1.801-1.472 1.616-1.516-2.559-.034-3.282-.309-4.094-1.016-3-.828 1.282-.972 1.246-.985-.25-.008-.962.435-1.75.985-1.75s1-.635 1-1.412c0-.781-.781-1.289-1.75-1.138-.963.151-2.719-.087-3.904-.527-4.117-1.53-5.684 7.023-1.679 9.166 1.283.687 2.333 1.848 2.333 2.58 0 .85 1.243 1.331 3.441 1.331 1.893 0 3.716.445 4.052.989.717 1.159-2.329 8.011-3.562 8.011-.462 0-1.145 1.688-1.517 3.75-.373 2.063-1.051 4.475-1.507 5.362-.456.886-.998 3.14-1.204 5.008-.473 4.298-1.743 6.63-5.617 10.317-3.459 3.292-4.157 2.194-1.086-1.71 3.211-4.082 2.507-6.003-1-2.727-2.63 2.457-4.565 9.085-2.232 7.643.423-.261.604 1.249.403 3.357-.201 2.107.115 4.657.702 5.666.985 1.694 1.069 1.7 1.097.084.054-3.143 1.923-1.838 2.61 1.822.48 2.561 1.382 3.843 3.184 4.528 2.856 1.086 4.157.421 2.472-1.264-.841-.841-.504-1.624 1.317-3.056 2.876-2.263 3.145-3.749.697-3.859-1.045-.047-1.247-.282-.5-.583 1.652-.667 1.589-2.857-.132-4.577-1.175-1.175-1.083-1.969.619-5.321 1.966-3.873 4.004-10.633 5.838-19.364.511-2.433 1.658-5.229 2.549-6.213 1.032-1.14 1.344-2.436.86-3.576-.666-1.566-.854-1.478-1.522.713-.716 2.348-.769 2.303-.862-.75-.081-2.617.29-3.25 1.9-3.25 1.111 0 2 .667 2 1.5 0 .825.477 1.5 1.059 1.5s.781-.45.441-1-.126-1 .475-1c1.157 0 .984 3.688-.267 5.681-.407.649-.344 1.426.142 1.726 1.043.645.299 5.383-.969 6.167-1.357.838-1.043 4.535.369 4.351 8.011-1.04 13.087 2.575 8.595 6.122-1.219.963-2.032 2.94-2.152 5.234-.106 2.028-.785 3.916-1.508 4.197-.928.359-1.129-.078-.683-1.484 1.065-3.356-.346-2.221-2.509 2.019-2.03 3.98-2.031 4.03-.097 6.106 1.073 1.152 2.435 1.794 3.027 1.428.593-.366 1.077-.219 1.077.327 0 .545 1.004 1.31 2.231 1.699 1.227.39 3.444 1.606 4.927 2.702 3.755 2.776 5.427 1.719 7.455-4.717.964-3.057 2.181-5.558 2.706-5.558 1.196 0 .043 9.038-1.329 10.41-1.637 1.637-1.152 2.383 2.26 3.476 2.55.817 17.358 4.109 18.5 4.113.137.001.286-1.686.329-3.749.043-2.062.336-3.075.65-2.25.946 2.484 2.451 2.927 9.769 2.875 3.851-.027 8.014.189 9.252.48 1.238.292 2.295.219 2.349-.162.055-.381.262-2.718.459-5.193.828-10.373 1.649-15 2.662-15 .732 0 .885 2.719.479 8.472-.669 9.477-.061 10.595 4.089 7.526 2.34-1.73 3.309-1.911 5.582-1.047 2.866 1.089 2.753 3.027-.179 3.079-1.509.028-1.495.145.131 1.091 5.193 3.019 10.868-1.951 13.113-11.482 1.472-6.252 2.137-7.566 4.076-8.052 2.123-.533 2.222-.834 1.184-3.584-.623-1.652-1.71-3.003-2.414-3.003-1.703 0-1.635-1.697.108-2.7.763-.44 1.557-1.7 1.763-2.8.207-1.1.819-1.861 1.362-1.691 1.09.341 1.123 1.634.121 4.774-.837 2.626 3.428 4.989 6.264 3.471 3.003-1.607 10.731-2.25 14.508-1.207 2.011.555 3.814.605 4.117.114.297-.481 1.266-.595 2.153-.255.952.366 2.135-.096 2.89-1.128 1.003-1.372 2.419-1.673 6.605-1.403 5.131.332 5.334.455 5.486 3.335.087 1.644.2 3.505.25 4.134.051.63 1.104 1.181 2.342 1.227 4.708.171 10.75 1.371 10.75 2.134 0 1.585 10.693 3.378 19 3.186 4.675-.107 8.96.143 9.523.557 1.714 1.26 4.477 6.082 4.477 7.812 0 .897.841 2.826 1.869 4.286 1.028 1.46 2.17 3.626 2.539 4.815.368 1.188 1.76 2.874 3.092 3.747 4.156 2.723 4.952 8.354 2.443 17.294-1.256 4.478-1.925 9.024-1.611 10.957.295 1.817.116 3.564-.398 3.882-.514.317-.934 1.811-.934 3.319 0 1.509-1.116 6.545-2.479 11.191-2.113 7.2-2.514 10.814-2.718 24.449l-.24 16-.31-13.25c-.453-19.304-2.209-16.805-2.46 3.5l-.207 16.75-.543-13.907-.543-13.906-5.75 8.646c-6.204 9.33-6.879 11.16-3.75 10.167 2-.635 2.612 1.222 2.188 6.649-.094 1.209.438 1.5 1.998 1.092 1.378-.36 1.891-.175 1.458.527-.782 1.264 1.263 6.232 2.565 6.232.488 0 1.523-1.462 2.3-3.25l1.413-3.25.157 3 .158 3 .763-3c.697-2.74.774-2.608.882 1.513.095 3.654.545 4.701 2.362 5.5 3.275 1.44 3.202 3.553-.253 7.336-2.831 3.099-3.046 3.851-2.888 10.113.127 5.023-.306 7.573-1.682 9.902-2.693 4.559-3.451 3.843-1.707-1.614 1.276-3.988 2.546-18.25 1.626-18.25-.159 0-.994 1.365-1.857 3.033-.91 1.76-2.035 2.744-2.68 2.345-.721-.445-.827-.226-.303.622.535.866.418 1.068-.345.595-.635-.392-1.155-2.513-1.155-4.713 0-2.412-.397-3.755-1-3.382-1.578.976-1.165 6.192.633 7.99 1.326 1.326 1.419 2.099.5 4.118-2.016 4.425-.24 5.038 1.859.642l1.313-2.75.69 2.5c.38 1.375.22 3.4-.356 4.5s-1.293 4.008-1.593 6.462c-.507 4.14-.796 4.512-4.019 5.169-1.91.389-3.635 1.194-3.833 1.788-.199.595-.92 1.081-1.604 1.081s-4.922 1.983-9.418 4.407c-4.497 2.425-10.63 5.18-13.63 6.124-3 .943-6.219 2.56-7.154 3.592-2.016 2.228-.589 2.497 2.171.409 3.613-2.733 3.557-1.552-.135 2.865-2.021 2.418-4.769 4.895-6.106 5.504-1.373.625-2.134 1.587-1.749 2.21.425.689.915.738 1.306.13 1.392-2.166 14.125-7.438 14.125-5.848 0 .866-12.715 9.475-18.528 12.545-3.285 1.735-7.417 4.763-9.183 6.73-3.541 3.943-5.73 3.931-7.239-.037-.507-1.332-1.479-2.607-2.161-2.835-.682-.227-1.34-2.187-1.463-4.354-.237-4.182-.981-6.992-2.501-9.442-2.136-3.445-3.716-7.427-4.147-10.453-.153-1.074-.953-2.659-1.778-3.522-.825-.862-2.181-2.609-3.012-3.882l-1.513-2.313-2.737 2.537c-1.933 1.792-2.738 3.521-2.738 5.885 0 3.168-1.436 5.748-3.2 5.748-.44 0-.8-.62-.8-1.378 0-.757-.732-1.984-1.626-2.727-1.475-1.224-1.558-.944-.891 3.004.522 3.093.414 4.156-.374 3.669-.61-.378-1.109-1.484-1.109-2.46s-.241-2.016-.536-2.311c-.808-.808-7.839 1.829-8.262 3.098-.203.608-1.152 1.105-2.109 1.105-2.305 0-18.113 6.819-20.343 8.775-1.16 1.017-1.75 1.134-1.75.345 0-.886-.519-.913-2.028-.105-2.341 1.253-1.718 3.208.724 2.271 1.091-.418 1.392-.238.909.544-.398.644-2.271 1.17-4.164 1.17-2.991 0-3.441.323-3.441 2.465 0 3.178-3.19 5.039-6.03 3.519-1.116-.598-4.379-.951-7.25-.785l-5.22.301-.274 7.5c-.441 12.096-.915 13.251-1.076 2.622l-.15-9.878-4.155.665c-4.909.785-5.845 1.268-5.845 3.015 0 .939-1.319 1.207-4.699.954-2.585-.193-4.988.115-5.34.685-.353.571-1.601 1.11-2.775 1.198-1.174.088-2.354.733-2.622 1.433-.269.7-1.096 1.039-1.838.754-.776-.297-1.947.597-2.753 2.102-1.933 3.613-6.619 5.989-8.587 4.355-1.143-.949-1.738-.953-2.67-.021-.932.932-.898 1.386.156 2.037 1.138.703 1.136.91-.009 1.295-1.942.653-4.944-.276-4.293-1.33.517-.836-3.65-1.324-8.07-.945-1.1.094-5.825 2.018-10.5 4.276-4.675 2.257-11.65 5.115-15.5 6.35l-7 2.246.195 6.344.194 6.343-1.194-6c-1.352-6.789-3.219-7.882-8.752-5.121-1.675.835-3.697 1.269-4.494.963-.873-.335-1.449.048-1.449.963 0 .993-1.385 1.753-4 2.195-3.572.603-4 .981-4 3.523 0 3.464-1.616 7.977-2.857 7.977-.499 0-.344-1.638.344-3.641 1.71-4.972.949-7.373-2.252-7.108-1.519.126-2.738.957-3.028 2.064-.352 1.347-.696 1.511-1.259.601-1.41-2.281-8.386 1.127-8.756 4.278-.259 2.211.172 2.727 2.749 3.293 5.775 1.268 7.75 7.428 4.139 12.906-1.049 1.591-1.704 3.423-1.455 4.072.619 1.612-3.924 3.531-8.422 3.556-2.037.011-6.403.644-9.703 1.405-22.479 5.188-24.83 5.539-36.067 5.384-6.281-.086-11.727.151-12.102.526-.376.375-1.623-.201-2.772-1.281-1.15-1.08-2.533-1.646-3.074-1.259-1.751 1.252-3.572 5.255-2.891 6.356.759 1.229-1.32 2.81-3.723 2.833-.895.008-2.188-1.335-2.871-2.985-1.394-3.365-3.392-3.873-4.92-1.25-.856 1.47-1.024 1.27-1.05-1.257-.016-1.653-.474-4.554-1.016-6.446-.784-2.731-.644-3.962.678-5.981 1.055-1.609 1.582-4.195 1.439-7.053-.148-2.95.63-6.592 2.245-10.513 1.521-3.692 2.116-6.365 1.548-6.95-.508-.523-.924-2.379-.924-4.125s-.272-4.534-.604-6.196l-.604-3.021-4.396 2.967L33 642.142v28.429c0 26.411.124 28.429 1.75 28.422.962-.004 8.05-1.122 15.75-2.484 13.28-2.35 23.77-3.38 15.5-1.522-1.925.433-5.22 1.089-7.322 1.459-3.574.628-3.802.878-3.532 3.863.158 1.755-.325 7.083-1.075 11.84-1.864 11.827-2.018 11.624 8.072 10.643 12.192-1.185 22.6-2.779 28.857-4.419 4.844-1.27 9.33-1.798 23-2.709 3.32-.221 8.893-2.569 6.25-2.634-.687-.016-1.25-.94-1.25-2.051 0-2.12-4.377-9.631-6.797-11.666-.777-.652-1.245-1.687-1.041-2.3.204-.612 3.012 1.385 6.24 4.437 3.228 3.053 6.25 5.55 6.715 5.55.465 0 1.13 1.136 1.478 2.524.704 2.802-.161 2.804 15.405-.037 11.623-2.121 22.323-3.831 24.25-3.875 2.38-.055 2.342-.232-2.585-11.871-2.384-5.633-4.64-11.08-5.012-12.105-.83-2.284-2.208-2.147-35.653 3.522-12.925 2.191-25.3 4.169-27.5 4.395l-4 .411 4-1.019c3.292-.84 32.595-6.242 54-9.956l34.14-5.928c33.57-5.83 30.445-5.447 29.755-3.647-.472 1.228 2.143 8.133 7.301 19.278 1.313 2.837 1.753 3.088 3.956 2.25 1.363-.518 4.829-.942 7.703-.942 2.874 0 7.682-.64 10.685-1.422 4.414-1.15 24.887-4.578 27.338-4.578 1.651 0 .301-2.076-2.378-3.659-2.328-1.375-2.982-2.452-2.921-4.807l.079-3.034.943 2.565c.559 1.523 2.864 3.603 5.671 5.118l4.728 2.553 14.351-2.843c7.893-1.563 16.877-3.032 19.965-3.264 3.088-.232 5.78-.916 5.981-1.52.201-.604-3.608-5.366-8.466-10.582-7.742-8.316-9.262-9.501-12.331-9.616-4.559-.17-3.57-.366 35-6.96a48288.71 48288.71 0 0050-8.575c11.275-1.942 27.25-4.509 35.5-5.704l15-2.172-.279-14.5c-.343-17.762-4.94-157.879-5.725-174.5-1.022-21.61-3.439-104.587-3.591-123.266-.082-10.047-.497-18.482-.922-18.745-1.428-.882-2.282 2.952-2.474 11.099-.105 4.449-.514 8.611-.909 9.25-.395.639-.459 1.581-.143 2.093.317.512.074 1.241-.539 1.62-.614.379-1.728 2.098-2.478 3.819-.808 1.858-1.378 2.419-1.401 1.38-.055-2.478-1.534-2.169-3.424.715-.948 1.447-1.68 4.852-1.772 8.25l-.157 5.785-.593-4.775c-.613-4.936-1.982-6.227-3.234-3.049-.54 1.371-.736 1.442-.789.287-.133-2.918-4.06-2.118-4.17.849l-.099 2.688-.696-2.5c-.438-1.577-1.417-2.5-2.65-2.5-1.681 0-2.026.887-2.458 6.316-.276 3.474-.141 6.962.3 7.75 1.725 3.082-4.875-1.026-8.863-5.517-1.946-2.192-2.336-2.29-3.695-.931s-1.063 1.829 2.812 4.451c3.801 2.573 7.201 7.012 6.164 8.05-.199.198-1.65-.985-3.225-2.629-1.575-1.645-3.321-2.99-3.88-2.99-.559 0 .734 1.792 2.872 3.982 7.057 7.226 3.177 5-4.982-2.859-12.529-12.069-17.314-18.14-12.989-16.48 1.108.425 1.336.123.855-1.133-.369-.961-.103-2.054.606-2.493.955-.59.746-1.299-.854-2.899-3.002-3.002-2.944-3.153-3.035 8.048-.092 11.443-1.043 14.939-1.156 4.251-.096-9.057-1.286-17.176-2.73-18.62-.635-.635-3.752-1.262-6.926-1.392-3.174-.131-6.896-.493-8.271-.806-4.388-.997-9.347.687-10.113 3.434l-.688 2.467-.099-2.333c-.06-1.401-.6-2.162-1.35-1.905-1.359.466-1.517 4.487-.364 9.238l.728 3-1.522-2.5-1.521-2.5-.099 4c-.084 3.401-.233 3.665-.997 1.767-.916-2.278-3.904-2.211-4.045.09-.039.629-.487.243-.995-.857-.608-1.315-.723.569-.335 5.5.324 4.125.747 9.842.94 12.705l.351 5.206-2.989-.206c-2.563-.176-2.908-.526-2.426-2.455.378-1.513.113-2.25-.81-2.25-1.044 0-1.258 1.195-.892 4.995.305 3.183.026 5.541-.77 6.5-1.025 1.235-.958 1.505.374 1.505.892 0 1.622.45 1.622 1s-.675 1-1.5 1c-1.133 0-1.5 1.222-1.5 5 0 5.507.145 5.712 2.429 3.429.928-.929 1.571-1.104 1.571-.429 0 1.534-2.603 4.064-3.381 3.286-.648-.648-.857 2.153-.727 9.714.066 3.852-.065 4.161-.913 2.148-.545-1.294-1.163-10.969-1.375-21.5-.441-21.942-1.46-34.648-2.781-34.648-.503 0-.618-1.574-.257-3.5.361-1.925.247-3.5-.255-3.5-2.443 0-3.319 2.909-3.446 11.45l-.134 9.05-.909-8.859c-.96-9.356.203-13.641 3.701-13.641 2.335 0 1.741-1.652-1.773-4.936-3.697-3.455-3.838-5.331-2.492-33.064.499-10.285.391-12.905-.456-11l-1.111 2.5-.661-3c-.636-2.894-.688-2.841-1.444 1.5-.432 2.475-1.638 6.465-2.68 8.866-1.439 3.313-1.944 7.109-2.094 15.75-.109 6.261-.606 11.384-1.103 11.384-.515 0-.731-5.716-.502-13.25.384-12.599.634-13.942 5.098-27.331 2.582-7.745 4.695-14.832 4.695-15.75 0-1.793-3.595-2.378-4.167-.678-.213.635-1.951.675-4.833.11-4.081-.8-4.192-.892-1.191-.991 4.662-.155 3.073-1.862-1.795-1.929-3.603-.05-4.014.194-4.014 2.382m-215.736 1.804c-1.746 1.852-3.308 3.987-3.47 4.746-.162.759-.969 1.967-1.794 2.685-1.29 1.123-1.202 1.224.632.724 3.788-1.034 3.527 2.037-.392 4.61-4.789 3.144-5.258 4.868-1.323 4.868 3.945 0 3.981 1.982.077 4.203-3.761 2.141-4.437 8.607-.994 9.507 1.281.335 2 1.364 2 2.861v2.338l2.5-2.5c1.375-1.375 2.5-3.019 2.5-3.654 0-.866.286-.869 1.142-.013.855.855.73 2.008-.5 4.601-1.776 3.741-2.078 5.659-.892 5.653 1.096-.005 4.324-8.29 4.113-10.558-.36-3.882.173-5.439 1.887-5.508 1.526-.062 1.502-.168-.184-.828-1.063-.416-1.488-1.032-.944-1.369.637-.393.685-3.577.135-8.922-.471-4.571-.617-10.224-.325-12.561.64-5.131-.028-5.272-4.168-.883m154.308 16.956c-1.557 1.139-1.627 1.617-.501 3.419 1.815 2.907-.144 5.086-5.315 5.913-3.237.518-3.661.818-2.262 1.602 1.17.654 2.492.553 4.113-.315 2.78-1.487 3.306-1.154 3.971 2.515.31 1.711.11 2.468-.544 2.064-1.794-1.109-1.122.756 1.14 3.165l2.175 2.314h-2.097c-1.497 0-2.417-.971-3.217-3.395-1.208-3.659-3.2-4.646-9.035-4.475-1.963.057-2.668.315-1.605.587 1.547.396 1.639.666.5 1.465-.985.692-.561.797 1.44.358 5.24-1.148 6.665.033 6.665 5.527 0 2.713.45 4.933 1 4.933s1.007-1.012 1.015-2.25c.013-1.819.201-1.963.985-.75.613.949.975 1.052.985.281.008-.676.69-.959 1.533-.636.834.32 1.397 1.272 1.25 2.115-.148.843.236 1.71.851 1.926.71.249.941-.536.633-2.146-.267-1.397-.025-2.54.538-2.54.562 0 .775-.946.473-2.102-.302-1.157-.025-2.427.617-2.824 2.167-1.339 2.213-5.074.063-5.074-2.541 0-2.502-1.688.057-2.5 1.1-.349 2-1.054 2-1.567 0-.513 1.238-.94 2.75-.948 4.876-.027 6.236-1.758 2.5-3.184-1.787-.682-3.25-1.591-3.25-2.02 0-.43-1.125-.781-2.5-.781s-2.5-.45-2.5-1c0-1.409-2.287-1.242-4.428.323m6.001 28.247c-.864.863-1.858 2.776-2.209 4.25-.352 1.474-.956 3.13-1.342 3.68-.386.55-.833 5.95-.994 12-.16 6.05-.311 11.675-.335 12.5-.024.825.296 2.962.711 4.75.823 3.543-1.802 4.993-2.715 1.5-.423-1.62-.466-1.622-.573-.031-.074 1.096-.659 1.51-1.616 1.143-.825-.317-2.287-.241-3.25.169-2.145.912 1.313 2.207 6.331 2.369 4.136.134 5.267 2.637 5.867 12.983.545 9.409 1.5 12.029 1.652 4.534.083-4.127.241-4.515.982-2.417.635 1.802.742 1.07.382-2.623-.614-6.299.164-8.931 2.153-7.28.845.701 1.387 3.142 1.394 6.275.015 6.892 1.031 12.628 2.236 12.628.555 0 .692-.983.314-2.25-1.397-4.672-1.912-15.085-.71-14.342.632.39 1.181 1.921 1.219 3.401.06 2.305.18 2.41.836.735.759-1.941.773-1.941 1.899 0 1.005 1.734 1.138 1.757 1.165.206.035-2.027.116-2.048 3.298-.838 1.32.502 2.924.588 3.565.191 1.599-.988 1.738-7.842.251-12.349-1.309-3.967-.851-5.754 1.475-5.754 1.636 0 2.051-5.967.526-7.55-.504-.522-1.077-2.075-1.274-3.45-.197-1.375-.91-2.387-1.585-2.25-.674.137-1.234-.538-1.243-1.5-.011-1.172-.736-.626-2.197 1.657-1.452 2.268-2.335 2.937-2.64 2-.253-.774-1.289-2.135-2.303-3.024-2.416-2.12-2.345-3.883.157-3.883 1.171 0 2-.667 2-1.608 0-1.853 4.857-1.129 6.294.937.454.652.677-.935.503-3.579-.272-4.155-.066-4.75 1.646-4.75 4.168 0-.268-2.131-4.817-2.313-3.412-.137-4.793-.645-5.196-1.911-1.488-4.678-8.793-7.27-11.857-4.206m-18.019 14.193c-.373 4.255-1.166 10.662-1.763 14.237-1.856 11.109-1.79 11.458 2.209 11.792l3.5.292.121-7.292c.067-4.011-.08-5.942-.327-4.292-.246 1.65-.863 3.428-1.371 3.95-1.147 1.18-1.155-5.303-.014-11.2.667-3.448.545-4.25-.65-4.25-.866 0-1.247-.589-.925-1.429 1.283-3.343 1.775-8.386.872-8.944-.58-.358-1.248 2.528-1.652 7.136m157.162 13.259c.733 2.801 9.115 10.951 12.942 12.582 1.737.74 3.389 1.92 3.671 2.621.282.701.549-1.302.592-4.452.068-4.907-.248-5.941-2.202-7.222-1.766-1.156-13.843-5.551-15.256-5.551-.152 0-.038.91.253 2.022m-96.267 1.478c.413 2.023.308 2.543-.321 1.599-.601-.903-.807 1.675-.577 7.25.208 5.066-.04 8.651-.598 8.651-.524 0-.953.849-.953 1.886 0 2.767-2.975 8.287-3.026 5.614-.034-1.831-.145-1.859-1.312-.324-1.18 1.552-1.362 1.534-2.476-.25-1.734-2.776-6.674-2.705-5.186.074.589 1.1 1.681 2 2.428 2 1.589 0 2.54 2.092 2.651 5.832l.079 2.668 1.042-2.863c.782-2.148 1.258-2.523 1.906-1.5.673 1.062.867.972.879-.412.008-.976 1.113-2.192 2.455-2.702 1.99-.757 2.66-2.044 3.63-6.976.655-3.326 1.611-6.047 2.125-6.047s1.982-1.238 3.262-2.75 4.397-3.65 6.926-4.75c5.693-2.476 5.754-3.132.38-4.04-5.703-.964-11.985-3.245-13.053-4.739-.528-.74-.631-.038-.261 1.779m14.898 9.677c-3.097 1.499-4.26 9.415-1.671 11.377 1.078.817 1.313 1.395.574 1.414-1.793.046-1.572 5.694.25 6.394 1.67.64 2.075 3.638.492 3.638-.65 0-.677.624-.076 1.75.513.962 1.475 3.887 2.138 6.5.663 2.613 1.405 4.75 1.647 4.75 1.451 0 3.347-3.274 2.833-4.892-.346-1.09.05-2.549.932-3.431 1.916-1.916 1.98-3.062.133-2.353-1.942.745-2.513-1.894-3.264-15.074-.353-6.187-.91-11.22-1.238-11.182-.328.037-1.566.536-2.75 1.109M156 348.394c0 .749.956 1.997 2.124 2.772 2.923 1.941 1.844 9.154-1.718 11.488-2.925 1.916-3.763 12.081-.906 10.984 1.852-.71 1.851-.649-.025 3.111-.838 1.681-2.188 3.311-3 3.622-1.08.415-1.475 2.222-1.475 6.753 0 6.184.001 6.185 2.062 4.32 1.133-1.026 1.876-2.571 1.651-3.434-.226-.863.196-2.136.938-2.829.742-.693 1.349-2.35 1.349-3.681 0-1.332.985-3.34 2.189-4.461 1.203-1.121 1.649-2.039.991-2.039-.83 0-.91-.537-.261-1.75 2.501-4.674 3.952-12.097 3.404-17.41-.53-5.137-.851-5.721-3.95-7.199-2.725-1.3-3.373-1.347-3.373-.247m-11.473 13.562c-.325.526-1.206.721-1.958.432-2.775-1.065-2.399 1.446 1.037 6.94 3.228 5.159 3.821 8.672 1.19 7.046-.732-.453-.854.872-.39 4.234.481 3.475.379 4.458-.349 3.392-.565-.825-1.033-3-1.042-4.833-.02-4.382-2.296-3.719-3.133.912l-.619 3.421-.131-3.563c-.12-3.225-5.263-10.252-6.488-8.864-.53.6-2.644 15.465-2.644 18.59 0 2.085.266 2.361 1.383 1.434 1.067-.885 1.517-.799 1.969.377.802 2.091 4.396 1.929 4.959-.224.364-1.395.481-1.32.573.369.09 1.641.963 2.259 3.866 2.739 7.773 1.285 7.252 2.301 7.236-14.108-.007-8.113-.285-15.762-.616-17-.609-2.273-3.724-3.105-4.843-1.294m200.176 4.819c-1.545 1.708-1.546 2.004-.016 4.189 1.006 1.435 1.606 4.148 1.542 6.966-.112 4.914-2.155 11.41-2.932 9.32-.572-1.541-3.014-1.593-7.148-.152-3.573 1.246-4.138 3.453-1.127 4.409 2.185.693 10.978-2.224 10.978-3.643 0-.475.49-.864 1.09-.864 4.096 0 6.013-8.247 3.555-15.304-1.983-5.697-3.844-7.238-5.942-4.921M159.391 409.5c.429 1.921.344 2.512-.236 1.643-1.032-1.547-2.682.195-1.696 1.791.601.972-1.489 7.232-4.264 12.777-2.265 4.524-.878 5.131 1.805.789 3.429-5.548 3.505-3.404.093 2.642-1.663 2.947-3.902 7.221-4.976 9.498-3.394 7.2-4.594 6.799-4.161-1.39.143-2.705-.201-4.25-.945-4.25-.712 0-1.004 1.076-.745 2.75.233 1.512.236 2.188.006 1.502-.481-1.438-3.272.818-3.272 2.645 0 .572-.675.781-1.5.465-1.032-.397-1.5.062-1.5 1.472 0 1.126-.391 2.29-.869 2.585-.477.295-1.171 2.431-1.541 4.746-.37 2.314-1.396 5.73-2.278 7.591-.883 1.86-1.614 5.826-1.624 8.813-.012 3.6-.431 5.431-1.24 5.431-.671 0-1.419 1.35-1.661 3s-.013 3 .509 3 .422.635-.222 1.411c-.801.965-.839 1.616-.123 2.059.577.356 1.087.059 1.134-.661.115-1.791 7.915-8.399 7.915-6.706 0 .734 2.7-1.337 6-4.603s6-6.701 6-7.635c0-.934.345-1.848.767-2.032.422-.183 2.485-2.696 4.585-5.583 3.727-5.124 5.648-6.494 5.648-4.028 0 .673.973.25 2.164-.942 3.204-3.203 1.462-34.435-2.173-38.956l-2.269-2.824.669 3m304.924-1.493c-4.31 1.737-5.178 7.741-1.786 12.368 2.026 2.763 3.831 1.468 5.227-3.751.68-2.543 1.626-4.624 2.101-4.624.476 0 .651-1.125.388-2.5-.502-2.625-2.114-3.03-5.93-1.493m-366.1 3.516c.393.407.28 1.552-.251 2.545-1.428 2.668-4.823 30.812-4.061 33.662.643 2.404.694 2.415 2.819.609 2.484-2.11 4.37-13.651 4.628-28.322.137-7.753-.022-8.516-1.85-8.859-1.1-.206-1.678-.042-1.285.365m38.129.697c-5.801 1.867-9.428 15.831-7.876 30.323.709 6.623.753 6.707 2.056 3.863.732-1.598 2.488-5.421 3.9-8.495 1.413-3.074 2.784-7.71 3.046-10.303.555-5.483 1.092-6.608 3.156-6.608 1.044 0 1.317-.605.886-1.962-.343-1.079-.101-2.937.536-4.127.911-1.703.87-2.348-.195-3.023-1.559-.988-1.372-.999-5.509.332M70.233 416c-1.725 3.71-2.104 4.066-2.162 2.027-.07-2.443-.088-2.448-1.516-.409-1.405 2.006-2.499 18.771-1.303 19.967.946.946 7.724-8.208 8.277-11.181.297-1.597.148-5.604-.332-8.904l-.872-6-2.092 4.5m95.22 9.75c.398 7.012.92 12.949 1.16 13.191.24.243 2.856-1.948 5.814-4.869 3.733-3.686 5.79-5.054 6.725-4.47 2.349 1.464 4.935 1.454 6.415-.027 2.27-2.269 1.749-4.171-.567-2.075-2.278 2.062-2.423 1.742-.956-2.115 1.209-3.181-2.508-7.385-6.53-7.385-1.196 0-4.389-1.123-7.095-2.496-2.705-1.373-5.092-2.498-5.304-2.5-.212-.002-.06 5.734.338 12.746m-50.39-10.844c-.034.773-1.276 2.996-2.759 4.94-2.929 3.84-3.607 11.266-1.955 21.404.892 5.476 3.651 6.799 3.651 1.75 0-2-.5-3-1.5-3-1.662 0-1.758-.434-.848-3.835.39-1.454.892-1.902 1.333-1.19.389.63.747-.262.796-1.981.101-3.542 1.165-9.008 2.039-10.476.927-1.556.976-4.84.106-7.018-.445-1.113-.827-1.376-.863-.594M77.88 435.754C71.105 444.18 67.379 452 70.14 452c2.107 0 3.796 3.466 3.898 8 .191 8.409 1.311 9.206 4.394 3.128 3.285-6.476 5.034-5.733 5.133 2.181.035 2.855.204 8.566.375 12.691.302 7.301.333 7.381 1.149 3 .461-2.475 1.138-6.75 1.503-9.5.894-6.72 4.844-11.321 7.588-8.837 1.82 1.647 2.542.492 1.898-3.036-.088-.48.534-.606 1.381-.281 1.066.409 1.541-.015 1.541-1.377 0-2.286-.567-2.359-6.589-.842-7.617 1.918-9.705-2.086-9.843-18.878l-.068-8.246c0 .002-2.079 2.59-4.62 5.751m108.758-3.254c-.316.825-.114 1.5.45 1.5 1.648 0-2.348 6.125-5.146 7.888-4.505 2.839-12.855 9.585-12.899 10.421-.024.445.407.531.957.191 2.056-1.271.894 1.014-2.073 4.075-2.431 2.508-3.004 3.876-2.743 6.548l.33 3.377 2.081-3.249c1.145-1.787 3.73-5.03 5.744-7.207 2.013-2.176 3.661-4.325 3.661-4.775 0-.451 3.375-4.172 7.5-8.269 8.029-7.975 9.742-12 5.107-12-1.316 0-2.652.675-2.969 1.5m23.044 3.152c-1.053 1.052-.806 2.543.307 1.855 1.806-1.116-.209 2.929-2.632 5.283-2.301 2.236-3.24 6.21-1.468 6.21.488 0 1.184 1.575 1.545 3.5s1.086 3.5 1.611 3.5c1.273 0 1.225-2.715-.061-3.51-.559-.346-.727-1.097-.372-1.671.354-.573.115-1.37-.531-1.769-.843-.521-.685-1.125.559-2.138 1.547-1.259 1.659-1.21 1.036.449-.527 1.403-.326 1.719.813 1.282 1.352-.519 1.967.466 1.629 2.607-.291 1.845 1.875.448 4.364-2.816 3.557-4.663 4.385-3.698 1.285 1.5-1.335 2.24-2.707 3.792-3.049 3.451-1.003-1.003-.057 8.717 1.325 13.615.698 2.475 1.17 5.904 1.048 7.62-.216 3.034 1.483 17.601 2.581 22.13.705 2.911 1.67 2.836 6.444-.5 3.593-2.511 3.883-3.046 3.335-6.156-.33-1.874-1.2-9.299-1.933-16.5-.733-7.202-1.654-14.113-2.046-15.359-.563-1.79-.389-2.141.83-1.673 2.711 1.041 4.698 7.982 4.698 16.409 0 4.362.493 10.229 1.095 13.038 1.061 4.945 1.165 5.062 3.25 3.653 2.965-2.002 2.506-13.543-1.074-27.031-2.186-8.236-2.431-10.37-1.477-12.896 1.382-3.663.313-6.084-1.173-2.656-.969 2.237-1.076 2.091-1.397-1.912-.326-4.071-.623-4.456-4.901-6.348-2.505-1.108-6.64-2.083-9.189-2.167-2.549-.084-4.89-.496-5.202-.917-.313-.421-.875-.458-1.25-.083m27.647 13.598c.345 4.538 1.613 14.415 2.819 21.949l2.193 13.699 3.579-2.737c5.306-4.057 10.992-7.583 17.648-10.943l5.932-2.995.264-8.685c.257-8.479.21-8.68-2-8.501-4.531.369-5.325-.073-2.764-1.537 2.33-1.332 1.972-1.432-5.281-1.465-8.618-.039-8.31-.28-9.727 7.615l-.87 4.85.189-5.2c.16-4.407-.116-5.299-1.811-5.856-1.787-.586-1.814-.706-.25-1.123 2.366-.632 2.226-2.321-.193-2.321-1.558 0-2.018.84-2.325 4.25l-.383 4.25-.206-4.5c-.219-4.779-2.304-8.636-4.076-7.541-.587.362-1.067.182-1.067-.4 0-.582-.517-1.059-1.148-1.059-.822 0-.971 2.343-.523 8.25m117.197-6c-.227.688-.918 5.525-1.536 10.75s-1.344 10.273-1.614 11.217c-.357 1.252.27 1.878 2.317 2.314 1.544.329 5.262 1.451 8.263 2.494 3.001 1.043 5.596 1.756 5.767 1.585.171-.171-.222-2.621-.874-5.444-1.546-6.696-.061-10.885 3.232-9.122 2.97 1.589 3.235.787 1.321-3.997-1.655-4.136-4.964-6.525-7.643-5.517-.693.26-2.026-.878-2.962-2.528-1.749-3.081-5.49-4.126-6.271-1.752m-72.276 5.97c-1.238.597-2.25 1.522-2.25 2.055 0 .534-.686.401-1.524-.295-2.092-1.736-2.197-1.466-2.648 6.802-.335 6.144-.157 7.234 1.138 6.978.845-.167 1.583-1.417 1.642-2.782.344-7.858.496-8.563 1.392-6.478.473 1.1.891 3.238.93 4.75.08 3.132.987 3.362 5.027 1.272 2.599-1.344 2.81-1.843 2.319-5.5-.355-2.644-.152-4.022.592-4.022.623 0 1.132-.9 1.132-2 0-2.28-3.838-2.666-7.75-.78m44.873 4.715c-2.553 5.934-2.559 6.082-.465 10.474 1.49 3.125 1.972 3.418 4.75 2.894 1.701-.322 3.655-1.026 4.342-1.566 1.545-1.213 1.676-4.118.143-3.171-.754.466-.88-.033-.393-1.566.519-1.635.382-2.045-.5-1.5-.872.539-1.024.151-.54-1.375.515-1.622.245-2.144-1.143-2.206-1.26-.057-.92-.477 1.108-1.372l2.924-1.29-2.424-1.341c-1.334-.737-2.796-1.234-3.249-1.104-.454.131-.54-.224-.191-.787.348-.564-.013-1.025-.803-1.025s-2.391 2.221-3.559 4.935m-206.978 1.135c-1.573.63-2.154 1.465-1.75 2.518.333.867.669 5.251.747 9.744.12 6.899.263 7.547.923 4.168.477-2.448.59-.026.29 6.241-.269 5.632-.909 11.704-1.422 13.493-1.348 4.699-1.215 11.058.213 10.176.806-.499.949.076.481 1.941-.678 2.7.635 3.652 1.998 1.447.408-.661.663-5.343.566-10.405-.125-6.505.555-12.73 2.316-21.235 2.967-14.317 3.239-19.022.993-17.158-.825.685-1.5 1.838-1.5 2.563 0 .726-.52 1.64-1.156 2.033-.831.514-.989-.312-.563-2.941.326-2.01.509-3.626.406-3.592-.103.035-1.247.488-2.542 1.007m-5.616 5.18c-.309 1.788-.731 7.665-.939 13.06-.473 12.324-1.113 13.083-2.085 2.475-.562-6.142-.956-7.638-1.523-5.785l-3.123 10.212c-2.555 8.354-5.321 11.309-8.284 8.85-1.742-1.446-6.548-.663-11.075 1.803-1.65.899-3.125 1.685-3.279 1.747-.153.061-.685 2.086-1.182 4.5l-.905 4.388.115-5.735c.148-7.425-.515-7.888-3.814-2.661-2.99 4.735-2.691.52-3.797 53.572l-.379 18.176 2.509-.954c1.381-.525 3.832-2.067 5.448-3.426 1.616-1.36 4.028-2.472 5.361-2.472 2.136 0 2.423-.447 2.423-3.777 0-7.081 4.077-10.146 8.118-6.105 2.782 2.782 3.447 1.604 4.21-7.454.797-9.473 3.234-17.274 4.285-13.718.672 2.273.777 2.308 1.485.5.419-1.07.793-3.036.832-4.367.038-1.332.682-3.132 1.43-4 .748-.869 2.502-4.729 3.897-8.579 2.424-6.689 2.542-8.034 2.664-30.25.081-14.594-.236-23.25-.851-23.25-.539 0-1.232 1.462-1.541 3.25m93.439.334c-.532 1.4-.896 4.204-.808 6.231l.16 3.685.404-3.258c.595-4.795 3.014-1.908 2.744 3.274-.29 5.562.635 12.484 1.668 12.484.475 0 .932-.788 1.014-1.75.083-.962.435.275.783 2.75.348 2.475.28 4.928-.15 5.45-1.221 1.481-.927 4.961.759 8.997 1.575 3.768 4.051 4.381 3.843.952-.306-5.07-2.801-19.958-3.418-20.399-.385-.275-.654-1.4-.597-2.5.057-1.1-.511-5.461-1.261-9.692-1.465-8.256-3.453-10.663-5.141-6.224m-26.797 1.734c-2.701 2.875-2.75 4.363-.171 5.182 1.1.349 1.993.942 1.984 1.317-.038 1.616-5.998 7.292-7.004 6.671-.608-.376-1.978.105-3.043 1.069-3.445 3.117-2.051-.054 1.563-3.557 5.162-5.003 4.261-5.956-1.025-1.084-6.295 5.803-9.307 4.05-3.41-1.983 3.622-3.705 3.264-4.829-.728-2.286-4.069 2.592-3.908 1.831-4.151 19.581-.123 8.95-.485 18.581-.805 21.404-.414 3.654-.153 5.813.908 7.5 1.336 2.123 1.307 2.782-.272 6.368l-1.761 4-.744-4.768-.745-4.768-1.883 3.514c-2.294 4.28-2.297 4.334-.203 4.161 1.401-.116 1.669.806 1.607 5.545-.102 7.75 1.36 8.093 9.828 2.307 7.075-4.834 10.904-8.435 7.691-7.231-1.963.734-1.912-6.846.088-13.22.717-2.284.749-3.796.095-4.45-1.5-1.5-1.185-2.879.51-2.228.825.316 1.5.114 1.5-.451 0-2.402-2.405-10.464-3.297-11.054-1.915-1.264.346-5.656 4.783-9.292 4.317-3.537 5.791-5.849 3.389-5.315-.619.137-1.336-.327-1.594-1.031-.258-.705-.089-1.219.375-1.142 4.267.705 6.173-2.099 6.646-9.774.142-2.308.582-4.521.978-4.917 2.948-2.947-1.249-3.07-4.423-.13-2.733 2.534-6.855 2.651-4.768.136 2.037-2.454.378-2.518-1.918-.074M152 470.104c-5.602 5.358-8.988 9.286-8.251 9.574.961.375.903.981-.25 2.627-.825 1.177-1.499 3.251-1.499 4.609 0 2.376.053 2.396 1.418.529.78-1.067 1.753-1.606 2.161-1.198.408.409-.041 1.608-.997 2.665-.957 1.057-1.876 2.972-2.043 4.256-.167 1.284-.648 3.234-1.069 4.334-.693 1.812-.558 1.787 1.442-.272 1.214-1.25 2.657-1.994 3.207-1.654.585.361.248 1.189-.809 1.99-1.187.9-1.356 1.383-.493 1.404.859.021 1.097.729.683 2.032-.495 1.56-.18 2 1.433 2 1.137 0 2.067.436 2.067.969 0 .532.694.702 1.542.377 1.21-.465 1.439-.027 1.066 2.031-.262 1.443-.055 2.623.458 2.623.514 0 .934-.45.934-1s.505-1 1.122-1c.768 0 .723.482-.142 1.524-2.366 2.851.028 2.843 3.006-.01l2.964-2.841-.465 3.634c-.37 2.893-.06 3.85 1.525 4.698 1.763.944 1.993.748 2.019-1.72.016-1.532.299-13.698.627-27.035.498-20.217.369-24.248-.779-24.241-.757.005-5.652 4.098-10.877 9.095m162-4.8c0 .188 1.336 3.099 2.969 6.47 1.633 3.371 3.249 7.246 3.591 8.611.435 1.729 1.098 2.3 2.19 1.881 1.302-.5 1.455-.039.901 2.729-.484 2.422-.21 3.835 1.006 5.178 1.572 1.738 1.528 2.011-.743 4.584-1.327 1.505-2.751 2.888-3.164 3.073-1.838.825-.562 3.17 1.724 3.17 1.715 0 2.932-.884 3.963-2.879.819-1.583 2.244-3.168 3.167-3.523 3.123-1.198 1.344-16.004-2.397-19.961-1.632-1.725-3.494-4.162-4.137-5.415-.644-1.253-1.559-2.038-2.035-1.744-.475.294-1.015.151-1.2-.317-.32-.813-5.835-2.568-5.835-1.857M191.662 479.7c-.421 1.21-2.992 4.064-5.714 6.343-4.989 4.178-6.659 6.943-3.014 4.992 2.583-1.382 2.868-1.318 2.705.607-.076.904.486 1.862 1.25 2.13.848.297 1.117.047.691-.642-.384-.622-.221-1.13.361-1.13s1.059.873 1.059 1.941c0 2.615 1.493 3.375 3.018 1.537 1.098-1.323 1.403-1.292 2.579.261 1.14 1.506 1.28.677.966-5.739-.469-9.589-.404-9.216-1.492-8.544-.51.315-1.089-.446-1.286-1.691l-.359-2.265-.764 2.2m94.929 4.383c-.26.779-.673 2.317-.916 3.417-.324 1.463-.474 1.261-.559-.75-.064-1.512-.557-2.75-1.097-2.75-.539 0-1.246 1.238-1.569 2.75-.324 1.512-1.007 3.784-1.519 5.047-1.305 3.22-1.251 7.246.069 5.203.848-1.312.971-1.3.985.095.014 1.517-2.936 4.905-4.272 4.905-.346 0-.76-3.381-.921-7.513l-.292-7.513-7.285 3.763c-4.007 2.07-9.808 5.788-12.891 8.263l-5.605 4.5 3.535.304c1.943.167 4.326 1.18 5.295 2.25 1.701 1.88 1.674 1.946-.811 1.946-1.414 0-2.721-.406-2.905-.903-.183-.497-2.078-1.059-4.211-1.25-5.061-.453-6.766 1.759-4.28 5.552 1.858 2.836 4.658 3.498 4.658 1.101 0-2.284 1.762-1.793 3.592 1 2.115 3.228 3.212 3.16 4.027-.25.361-1.512 1.102-3.315 1.647-4.007.568-.721.708-3.383.328-6.25-.365-2.746-.267-4.993.217-4.993 1.4 0 4.189 3.504 4.189 5.262 0 .999 1.02 1.725 2.697 1.922 3.898.457 7.216 7.394 7.998 16.718.335 3.992 1.17 7.82 1.855 8.505.686.686 1.567 4.667 1.959 8.846.523 5.576 1.055 7.468 1.998 7.106 1.822-.699 2.431-4.999 1.293-9.122-1.083-3.92.517-6.049 2.997-3.99 1.127.935 1.248.509.694-2.443-.414-2.208-.254-3.833.419-4.248.6-.371 1.09-1.547 1.09-2.615 0-1.068.47-1.941 1.045-1.941.65 0 .801 1.301.401 3.435-.816 4.351.136 6.154 2.306 4.364 1.251-1.033 1.66-1.042 1.996-.043.552 1.641 6.252-1.578 6.252-3.531 0-.738.45-1.065 1-.725.55.34 1 .179 1-.358 0-.536-.337-1.125-.75-1.309-.413-.183-1.549-1.908-2.526-3.833-1.579-3.114-1.715-3.197-1.23-.75.299 1.513.121 2.75-.395 2.75-.517 0-1.245-1.462-1.618-3.25-.372-1.788-1.5-5.05-2.506-7.25-1.007-2.2-2.597-9.175-3.535-15.5-1.654-11.151-2.858-14.879-3.849-11.917m62.924.893c-.36.582-.51 2.287-.334 3.791.253 2.167-.095 2.738-1.681 2.757-1.335.016-1.902.598-1.706 1.75.173 1.016-.341 1.726-1.25 1.726-.985 0-1.544.916-1.544 2.531 0 2.382 1.059 3.353 4.172 3.824.73.111 1.778.467 2.328.792.55.325 2.719.901 4.821 1.28 2.102.38 4.464.937 5.25 1.239 1.081.414 1.429-.358 1.429-3.166 0-2.89-.333-3.586-1.5-3.138-.825.316-1.5.091-1.5-.5 0-.592-.571-.857-1.269-.589s-3.061.143-5.25-.278l-3.981-.765 4.816-.115c2.648-.063 5.573-.512 6.5-.997 1.002-.525 2.696-.478 4.184.114 1.462.583 1.981 1.191 1.25 1.465-.687.258-1.25 2.042-1.25 3.963 0 3.354.134 3.482 3.352 3.204 1.982-.17 4.479.45 6.11 1.519 1.518.994 3.817 1.606 5.111 1.358 1.584-.302 3.075.32 4.565 1.906l2.214 2.356 3.433-6.092c2.456-4.358 3.126-6.4 2.355-7.171-.772-.772-1.354-.39-2.046 1.34-.845 2.114-.977 2.167-1.046.42-.058-1.487-.296-1.658-.925-.665-.636 1.003-1.034.755-1.607-1-.706-2.169-.814-2.086-1.507 1.165-.672 3.155-.759 3.229-.877.75-.136-2.834-1.578-3.71-2.47-1.5-.403 1-.52 1-.583 0-.191-3.023-2.093-.882-2.221 2.5l-.142 3.75-.716-4c-.655-3.657-.737-3.743-.958-1-.235 2.927-.258 2.939-.936.505-1.006-3.617-3.857-3.822-4.384-.314-.232 1.545-.49.316-.572-2.731l-.15-5.54-7.25-3.089c-9.643-4.109-11.461-4.608-12.235-3.355m-84.237 24.725c-3.957 5.743-4.633 8.821-2.624 11.957 2.592 4.047 4.449 5.808 6.146 5.826 2.069.022 4.06 3.342 2.576 4.294-.619.397-1.434 2.149-1.812 3.893-.379 1.744-1.813 4.384-3.187 5.867-3.778 4.077-6.449 11.8-6.245 18.056.097 2.973.479 5.406.848 5.406 1.617 0 5.02-4.854 5.02-7.161 0-1.392 1.846-6.309 4.102-10.926 4.937-10.102 5.429-12.673 4.02-20.997-2.993-17.692-5.129-21.608-8.844-16.215m-32.077 5.843c-9.38 6.28-8.96 5.231-5.704 14.258 3.182 8.822 3.376 21.61.313 20.638-1.182-.375-1.81-.069-1.81.884 0 .803 1.125 1.742 2.5 2.087 1.375.345 2.5 1.069 2.5 1.608 0 .54.9.981 2 .981s2 .45 2 1-.459 1-1.019 1c-1.03 0-.54 3.193 1.223 7.966.697 1.888 1.11 2.144 1.761 1.091.467-.757.618-1.979.335-2.716-.282-.738.042-1.341.722-1.341.91 0 1.055 1.364.548 5.181l-.687 5.182 4.809-4.374c7.441-6.768 8.871-10.519 9.664-25.344.445-8.338.33-12.645-.34-12.645-1.607 0-1.181-4.723.484-5.362 2.23-.855 1.829-2.603-1.25-5.458l-2.75-2.549-.55 2.935c-.507 2.707-.648 2.535-1.829-2.233-2.214-8.934-3.369-9.183-12.92-2.789m-12.349 8.506c-.081.797-.24 2.125-.352 2.95-.112.825-.301 2.625-.42 4l-.215 2.5-1.129-2.5c-.621-1.375-1.232-2.654-1.357-2.841-.554-.829-4.347 1.084-3.824 1.929.321.52 1.039.663 1.595.319.564-.348.926.199.816 1.234-.448 4.237.125 6.149 1.986 6.636 1.074.281 2.142-.004 2.374-.633.509-1.378 4.659 2.648 4.706 4.564.02.826.52.648 1.386-.494 1.505-1.984 1.005-5.266-1.94-12.714-2.063-5.219-3.411-7.059-3.626-4.95m86.128 17.474c-1.534 1.848-.432 3.328 1.237 1.659 1.835-1.835 3.783-1.398 3.783.851 0 1.289-1.369 2.841-3.737 4.238-3.913 2.309-2.42 3.953 1.624 1.789 2.732-1.463 2.886-.921 2.915 10.24.021 7.872-.227 9.591-1.259 8.734-.853-.707-2.086-.746-3.664-.114-1.737.695-1.906.969-.629 1.016.962.034 1.75.438 1.75.896 0 .459 1.41.834 3.134.834h3.133l-.52-10.985c-.287-6.041-.124-12.368.361-14.06 1.057-3.683.182-7.689-1.202-5.504-.632.998-.88 1.034-.891.132-.021-1.762-4.514-1.558-6.035.274m-123.818 8.226c-1.011.962-2.671 2.232-3.69 2.821-1.019.59-1.992 1.49-2.162 2-.384 1.152 8.986 1.469 9.726.33.294-.454 1.541-.563 2.771-.241 1.766.462 1.995.873 1.092 1.962-.885 1.066-.805 1.378.356 1.378.825 0 2.06-.675 2.745-1.5.853-1.027.893-1.5.129-1.5-.695 0-.947-1.323-.669-3.5l.448-3.5h-4.454c-2.875 0-5.105.62-6.292 1.75m-27.751 63.348c-2.025 2.237-2.696 6.902-.993 6.902.556 0 .292.719-.587 1.598-1.306 1.306-2.004 1.38-3.828.403-2-1.07-2.686-.747-6.617 3.111-2.412 2.367-4.386 4.669-4.386 5.115 0 1.439 5.413-.459 8.408-2.948 1.896-1.575 3.66-2.228 5.066-1.875 4.451 1.117 6.718-1.957 6.052-8.206-.719-6.749-.718-6.748-3.115-4.1m-56.715 13.349c-.854.854-2.207 1.553-3.007 1.553-1.026 0-1.47 1.206-1.51 4.1-.053 3.857.048 4.005 1.711 2.5.972-.88 2.569-1.6 3.55-1.6 1.522 0 1.438.301-.579 2.064-1.62 1.417-1.969 2.227-1.111 2.584 1.747.725 1.574 2.69-.177 2.018-1.868-.716-3.085.885-4.63 6.09-1.691 5.698-1.007 6 5.352 2.361l5.414-3.098.272-6.259c.601-13.87.676-13.238-1.606-13.563-1.169-.167-2.825.396-3.679 1.25M411 636.584c-4.125.771-10.2 1.834-13.5 2.362-3.3.528-13.875 2.357-23.5 4.064-9.625 1.708-18.962 3.363-20.75 3.678-4.131.729-4.085 1.887.27 6.823 4.091 4.636 6.867 9.858 6.22 11.701-.249.708-.079 2.301.379 3.538.457 1.237.453 2.25-.009 2.25-1.41 0 .581 8.301 2.291 9.551 1.759 1.286 2.187 6.967.599 7.949-1.511.934-1.198 2.5.5 2.5 1.136 0 1.5 1.229 1.5 5.059 0 2.782.407 4.808.904 4.501.955-.591.88-12.451-.089-14.095-.766-1.299.528-16.141 1.491-17.105.865-.864 13.16-3.442 25.444-5.334 9.203-1.417 9.247-1.468 5.75-6.621-3.942-5.81-2.697-7.79 1.661-2.641 4.479 5.292 8.614 7.563 11.636 6.391 2.605-1.01 7.495-2.002 28.453-5.769 5.363-.964 9.75-2.067 9.75-2.451 0-.778-6.51-5.935-7.492-5.935-.344 0-2.511-1.44-4.817-3.201-2.305-1.76-5.852-4.46-7.882-6-4.229-3.207-7.155-3.396-18.809-1.215" fill="#d3d3d3" fill-rule="evenodd"/></svg>