<svg xmlns="http://www.w3.org/2000/svg" width="500" height="340"><path d="M233 6.032c0 3.396 2.691 8.719 5.258 10.401 1.334.874 4.134 4.071 6.223 7.104l3.798 5.514-.553 8.225c-.412 6.14-1.482 10.631-4.222 17.724-2.019 5.225-4.315 11.525-5.102 14-.787 2.475-2.406 5.829-3.597 7.453-1.534 2.093-2.334 5.022-2.746 10.061-.32 3.909-1.292 8.206-2.161 9.547-1.973 3.047-5.768 15.589-5.731 18.939.03 2.598-3.149 15.637-8.401 34.459-1.682 6.028-3.018 12.328-2.967 14 .05 1.673-.551 4.025-1.336 5.227-6.125 9.392-8.437 16.256-8.452 25.099-.007 4.068-.577 7.149-1.615 8.733-1.298 1.981-1.393 3.051-.5 5.614 1.438 4.126 1.393 4.868-.298 4.868-2.638 0-5.053 11.269-6.107 28.5-.31 5.07-1.503 11.336-4.14 21.753-.801 3.164-1.718 10.364-2.038 16-.586 10.327-2.411 16.422-4.526 15.116-.729-.451-.91-.132-.513.902.337.88.157 1.752-.402 1.938-.559.187-.051 1.566 1.129 3.065l2.144 2.726-2.822-.02c-1.553-.011-8.898-.677-16.323-1.48-7.425-.803-14.4-1.505-15.5-1.559-1.452-.072-1.589-.253-.5-.663 3.656-1.373 6.792-4.356 6.338-6.029-.529-1.954-6.979-5.589-8.379-4.723-.495.305-2.206-.12-3.803-.945-1.596-.826-3.148-1.256-3.448-.955-.964.963-3.003-3.942-2.916-7.015.046-1.635-.428-3.904-1.054-5.042-.627-1.138-1.218-2.969-1.314-4.069-.096-1.1-.903-3.35-1.793-5-.89-1.65-1.621-3.675-1.624-4.5-.005-1.833-3.696-18.27-5.102-22.728-1.609-5.101-2.69-13.272-1.756-13.272 1.454 0 .947-1.887-1.584-5.898-2.871-4.547-7.398-20.681-7.605-27.102-.276-8.544.063-9.647 6.12-19.89 3.344-5.656 5.868-10.496 5.609-10.755-.26-.259.994-3.482 2.785-7.163 1.791-3.681 4.315-9.167 5.61-12.192 3.737-8.733 10.766-20.958 14.907-25.929C155.879 111.404 167 90.254 167 87.526c0-.829 1.534-2.513 3.41-3.743 3.289-2.156 6.491-8.064 8.154-15.042.362-1.518 1.058-3.007 1.547-3.309.489-.303.889-2.279.889-4.392 0-3.347-.461-4.115-3.577-5.953-3.794-2.238-5.721-2.027-4.744.519.577 1.503-.525 6.081-3.274 13.603-1.209 3.308-6.305 11.635-18.905 30.896-2.2 3.363-4.439 6.853-4.976 7.755-5.028 8.453-9.404 15.065-11.344 17.14-1.285 1.375-4.181 5.2-6.436 8.5-7.864 11.511-10.738 14.934-10.827 12.894-.242-5.558-.759-25.571-.772-29.885-.017-5.796.556-6.665 13.219-20.009 4.697-4.95 8.112-9.15 7.588-9.333-1.397-.489-1.16-2.749.426-4.066 1.089-.903 1.512-.667 2.016 1.128.596 2.119.729 2.154 1.983.521.739-.962 1.805-1.75 2.368-1.75 1.42 0 3.711-3.737 5.213-8.5.693-2.2 2.561-5.661 4.151-7.691 3.655-4.667 3.764-7.552.317-8.417-4.275-1.073-7.41.985-6.956 4.567.211 1.673-.018 3.041-.51 3.041-.491 0-2.371 3.002-4.177 6.672-2.95 5.995-3.901 7.01-9.375 10.003-6.695 3.661-22.275 18.073-24.688 22.838-.839 1.657-2.051 5.932-2.693 9.5-.642 3.568-1.783 9.187-2.537 12.487-.753 3.3-1.911 10.725-2.572 16.5-.662 5.775-2.054 12.975-3.094 16-1.728 5.025-1.791 6.502-.73 17.108.867 8.676.876 13.244.033 18.085-.697 4.004-.808 8.191-.29 10.965.473 2.532.449 5.539-.054 6.9-.491 1.328-.667 3.277-.391 4.333.278 1.064-.39 3.078-1.497 4.515-1.1 1.427-3.439 4.468-5.198 6.759-1.758 2.29-5.897 7.405-9.197 11.366-8.597 10.319-8.614 10.348-10.055 17.22-.939 4.483-1.116 10.174-.626 20.124l.684 13.873-6.814-.571c-6.59-.552-6.804-.499-6.502 1.626.432 3.032-1.84 2.7 76.313 11.145 37.95 4.1 89.925 9.727 115.5 12.504 25.575 2.776 70.125 7.509 99 10.518 28.875 3.008 54.975 5.736 58 6.062 5.393.581 5.575.515 9.341-3.355 2.31-2.374 3.416-4.209 2.776-4.605-.585-.361-1.829.236-2.763 1.328-1.16 1.354-2.201 1.722-3.277 1.157-.867-.456-5.402-1.173-10.077-1.594-6.08-.548-7.772-.968-5.942-1.477 5.505-1.529 6.942-2.898 6.942-6.615v-3.559l-4.97.684c-4.125.567-5.463.332-7.876-1.386-4.49-3.197-5.495-8.704-8.147-44.61-1.066-14.438-3.022-26.213-6.229-37.5-2.618-9.217-2.873-23.848-.557-32 2.471-8.697 3.139-25.219 1.203-29.767-3.282-7.71-6.508-19.878-10.535-39.733-2.87-14.151-2.924-14.772-1.488-17 2.037-3.158 2.509-7.56 1.436-13.393-.628-3.417-.641-5.616-.037-6 .788-.501 2.3-6.503 2.673-10.607.05-.55-.425-4.375-1.054-8.5-1.063-6.96-1.008-7.596.754-8.832 1.33-.933 1.86-2.429 1.77-5-.071-2.017.335-7.041.901-11.163 1.282-9.323.127-12.62-4.305-12.294-1.58.116-3.235.791-3.677 1.5-1.694 2.717-2.105 10.022-.788 14.013 1.179 3.572 1.088 5.011-.804 12.653-1.174 4.743-2.866 12.898-3.761 18.123-.895 5.225-2.044 11.105-2.554 13.067-2.596 10.002-3.243 28.911-1.438 42.054 2.653 19.32 1.17 28.874-3.927 25.304-8.411-5.891-20.124 8.223-22.468 27.075-1.105 8.887-1.67 11.815-2.993 15.5-2.125 5.922-3.282 10.914-3.933 16.972l-.696 6.472-8.5 1.174c-4.675.646-11.548 2.346-15.273 3.778-6.817 2.621-13.068 3.307-15.588 1.711-4.724-2.993-7.911 3.474-5.544 11.25 4.288 14.087 7.046 17.821 14.223 19.257 3.73.746 5.329-1.623 2.971-4.401-2.18-2.569-6-12.221-5.428-13.713.789-2.055 9.008-3.262 23.504-3.452 8.231-.108 14.122-.631 15.334-1.362 2.047-1.234 5.801-7.645 5.801-9.908 0-.715 2.02-5.955 4.49-11.644 2.469-5.688 4.935-11.997 5.479-14.019.545-2.022 1.683-4.563 2.531-5.646 1.409-1.801 1.52-.996 1.295 9.432-.2 9.316-.582 11.83-2.089 13.745-1.144 1.455-1.602 3.107-1.206 4.354.425 1.338.113 2.211-.931 2.612-.863.331-1.569 1.134-1.569 1.784 0 .649-.852 2.853-1.894 4.896-2.196 4.307-5.035 23.791-8.19 56.208-1.178 12.1-2.242 22.114-2.365 22.253-.247.28-38.149-3.5-43.238-4.312-2.568-.409-3.247-1.036-3.5-3.224-.262-2.279-1.489-3.289-7.599-6.264-4.007-1.951-6.932-3.936-6.5-4.411.432-.474.255-.558-.395-.186-1.369.784-2.385-.547-2.798-3.663-.16-1.206-.773-4.218-1.364-6.693-.59-2.475-1.554-8.325-2.143-13-1.959-15.574-2.763-19.47-4.849-23.5-1.138-2.2-2.593-6.25-3.232-9-2.049-8.809-5.114-17.845-8.016-23.63-1.553-3.096-2.59-5.864-2.303-6.15.286-.287-.579-2.703-1.922-5.371-8.551-16.976-6.112-30.323 8.299-45.422 5.959-6.242 7.755-9.542 6.696-12.301-.291-.758 1.235-4.247 3.391-7.752 2.157-3.506 3.921-6.996 3.921-7.756.001-.761 2.251-5.582 5.002-10.715 2.75-5.133 5.96-11.936 7.132-15.118 2.547-6.91 7.927-16.283 9.351-16.289 1.292-.005 8.247-4.381 23.043-14.496 6.436-4.4 12.812-8.736 14.168-9.635 1.356-.899 4.184-1.91 6.284-2.246 2.858-.457 4.345-1.429 5.913-3.865 1.153-1.79 3.655-5.177 5.561-7.528 5.023-6.196 5.834-12.718 2.199-17.688-2.015-2.755-3.837-.981-6.234 6.073-2.721 8.008-9.123 13.532-24.58 21.207-28.993 14.397-37.78 19.642-37.871 22.606-.044 1.42-3.539 5.576-4.689 5.576-1.216 0-4.586 4.752-6.205 8.75-.723 1.787-1.711 3.25-2.194 3.25-.484 0-.879.482-.879 1.072 0 .589-1.236 3.177-2.746 5.75-1.511 2.573-2.805 5.016-2.875 5.428-.071.412-.185 1.095-.254 1.516-.069.422-2.32 3.167-5.004 6.101l-4.879 5.335-.412-3.53c-.226-1.942.422-7.95 1.442-13.351 1.019-5.402 2.024-14.719 2.232-20.705.344-9.875.605-11.127 2.815-13.5 5.353-5.747 7.852-15.714 8.399-33.495.267-8.662.816-13.298 1.677-14.159 1.017-1.017 1.041-2.473.118-7.095-1.093-5.476-1.357-5.855-4.528-6.504-1.892-.387-4.925-2.269-6.926-4.299C240.897 9.343 234.506 4 233.618 4c-.34 0-.618.914-.618 2.032M208.121 225.25c-.457 1.238-1.593 5.625-2.524 9.75-.932 4.125-2.096 9.075-2.587 11-.492 1.925-1.416 7.1-2.055 11.5-.638 4.4-1.993 11.15-3.01 15-1.887 7.146-2.374 15.305-1.551 26l.462 6 11.822 1.241c6.502.682 19.604 2.062 29.114 3.066l17.293 1.826-.619-7.066c-.341-3.887-1.98-12.692-3.643-19.567-1.663-6.875-3.388-15.044-3.834-18.153-.445-3.109-1.754-7.789-2.909-10.399l-2.099-4.746-2.741 3.711c-6.562 8.885-6.815 9.087-11.403 9.087-6.233 0-13.315-4.627-15.882-10.377-2.981-6.676-2.582-9.36 2.045-13.745 4.439-4.206 4.835-6.251 2.391-12.358-1.934-4.835-6.759-5.867-8.27-1.77m-108.795 4.741c-1.195.489-4.01 3.278-6.255 6.199-2.245 2.92-6.53 8.098-9.522 11.507-9.934 11.315-13.014 32.696-5.482 38.046.997.708 1.544 2.028 1.272 3.069-.846 3.235 1.692 3.803 29.984 6.71 31.379 3.225 30.674 3.338 27.657-4.403-3.446-8.843-8.98-26.689-9.038-29.146-.086-3.599-9.262-29.18-10.442-29.108-1.085.066-2.501 7.888-1.778 9.822.244.653.979.981 1.634.73 1.528-.587 3.829 4.959 4.131 9.957.184 3.041-.384 4.578-2.637 7.144-5.554 6.326-12.136 5.576-13.336-1.518-.047-.275-.569-1.4-1.161-2.5-2.196-4.081-2.45-7.68-.838-11.9.972-2.545 1.482-6.342 1.294-9.64-.329-5.796-1.301-6.677-5.483-4.969m247.329 15.838c-.91 1.006-1.655 2.294-1.655 2.862 0 .569-1.271 4.133-2.824 7.921-3.653 8.908-4.862 15.494-6.264 34.134-1.242 16.508-.709 19.232 4.061 20.746 1.564.496 2.027 1.504 2.027 4.419v3.775l17.178 1.774c16.377 1.692 17.237 1.692 18.461.019.784-1.072.961-2.382.453-3.367-.456-.887-1.115-5.437-1.464-10.112-.348-4.675-1.098-11.2-1.667-14.5-.568-3.3-1.208-8.787-1.423-12.194-.566-8.977-8.67-37.306-10.672-37.306-.476 0-.866.421-.866.935s-.511 2.202-1.136 3.75c-.625 1.548-1.042 4.494-.925 6.545.593 10.48-3.342 20.211-8.839 21.858-8.446 2.531-14.5-8.722-8.226-15.29 3.285-3.438 4.626-5.284 4.641-6.384.009-.62.867-2.708 1.907-4.64 2.843-5.279.815-8.903-2.767-4.945" fill="#d3d3d3" fill-rule="evenodd"/></svg>