<svg xmlns="http://www.w3.org/2000/svg" width="500" height="501"><path d="M.189 250.502L.5 501.003l249.792-.251 249.791-.252.519-250.25L501.12 0H-.121l.31 250.502M.485 128c0 70.125.119 98.813.265 63.75.146-35.062.146-92.437 0-127.5C.604 29.188.485 57.875.485 128M380 91.025c-24.314.482-29.164.843-18.451 1.373 2.642.131 4.815.966 6.25 2.401 2.616 2.616 3.771 2.765 4.603.595.44-1.145 1.334-1.426 3.116-.979 1.481.372 3.738-.013 5.541-.945 3.758-1.944 6.936-1.099 6.956 1.847.012 1.668.226 1.851.908.774.49-.775.66-2.013.377-2.75-.33-.862.245-1.341 1.608-1.341 2.782 0 6.499 5.805 4.928 7.697-.785.947-.755 1.303.113 1.303 1.637 0 4.08 2.583 6.221 6.579 1.64 3.059 1.654 3.42.171 4.25-2.01 1.125-.902 3.171 1.718 3.171 1.068 0 1.941.45 1.941 1 0 2.703 2.016.562 2.118-2.25l.119-3.25.763 3c.566 2.225.792 1.063.873-4.5.143-9.779-.853-17.81-2.256-18.194-.614-.168-13.042-.07-27.617.219m-255.145 1.738l-34.645.263-.543 2.237c-.299 1.23-.113 30.137.413 64.237.525 34.1.937 63.41.914 65.134-.049 3.77 1.374 4.464 5.948 2.902 2.646-.903 3.05-1.325 1.75-1.824-1.823-.699-2.312-3.333-.721-3.879.534-.183 1.141-1.453 1.348-2.822.51-3.366 8-4.937 10.924-2.291 1.529 1.384 2.378 1.484 4.807.567 2.213-.835 2.967-.823 3.018.05.037.64.564.132 1.171-1.129.902-1.872 1.63-2.176 3.973-1.661 1.681.369 3.469.132 4.316-.57.796-.661 2.123-.941 2.949-.624.851.326 2.525-.446 3.858-1.779 2.312-2.312 7.665-2.631 7.665-.457 0 1.632 5.672.902 7.882-1.014 1.378-1.196 2.997-1.686 4.377-1.325 1.204.315 1.639.756.965.981-.673.224-1.224 1.27-1.224 2.324 0 1.054-.45 1.917-1 1.917-1.562 0-1.184 1.426 1 3.77 1.1 1.18 2 2.615 2 3.188s.675 1.042 1.5 1.042 1.5-.482 1.5-1.072c0-.589 1.012-.972 2.25-.851 3.307.324 5.75-1.029 5.75-3.184 0-1.041.45-1.893 1-1.893s1 .34 1 .756 1.432 1.389 3.181 2.164c2.81 1.243 3.522 1.213 6.084-.257 1.597-.917 2.738-1.328 2.537-.915l-1.822 3.752c-.801 1.65-2.136 3.548-2.968 4.218-.924.745-1.058 1.231-.344 1.25 2.257.062 4.314-1.189 3.67-2.23-.412-.667.133-.848 1.487-.494 2.697.705 9.816-5.473 9.388-8.146-.158-.985.416-2.375 1.274-3.087 1.875-1.556 3.384-.482 1.696 1.206-.65.651-1.183 1.799-1.183 2.553 0 .753-1.957 4.601-4.348 8.55-2.392 3.949-4.902 8.868-5.578 10.93-.676 2.063-1.616 3.75-2.089 3.75-.472 0-.593 1.642-.267 3.65.45 2.772.18 3.951-1.123 4.904-1.091.798-1.329 1.492-.655 1.909 1.46.902 1.337 2.593-.166 2.287-.675-.138-1.381.762-1.57 2-.408 2.675 2.784 3.174 4.796.75.685-.825 2.09-1.5 3.122-1.5 1.033 0 1.878-.444 1.878-.987 0-1.023 7.006-4.34 7.701-3.645.217.217-.334 1.122-1.225 2.013-.89.89-1.123 1.619-.516 1.619 2.012 0 .759 6.915-1.666 9.193-3.724 3.499-1.802 6.093 2.531 3.415.778-.481 3.186 1.75 4.201 3.892.261.55 1.84 1 3.51 1 1.669 0 4.144.714 5.5 1.586 3.384 2.177 7.136 3.017 8.483 1.898 1.488-1.235 12.481-2.276 12.481-1.183 0 .469 1.297.662 2.882.43 1.584-.233 3.186.07 3.559.673.666 1.077-1.111 1.512-4.691 1.148-.963-.098-1.75.363-1.75 1.025 0 .661.787 1.8 1.75 2.531 1.582 1.2 1.591 1.331.094 1.36-1.156.022-1.5.633-1.137 2.021.286 1.094.919 1.742 1.407 1.441.487-.302.886-.057.886.542 0 .6-.787 1.392-1.75 1.761-2.103.805-5.17 4.303-5.217 5.95-.018.65-.933 1.468-2.033 1.817-2.134.677-2.663 3.437-.981 5.119.693.693.545 2.366-.461 5.218-1.562 4.427-1.202 7.163.942 7.163 1.574 0 2.5-2.227 2.5-6.014 0-2.007.614-3.046 2.075-3.51 1.142-.362 1.833-.902 1.536-1.199-1.468-1.467 1.861-4.191 6.474-5.298 3.31-.794 4.67-1.513 3.836-2.028-1.904-1.177.67-3.951 3.666-3.951 1.291 0 2.806-.867 3.375-1.93.836-1.561 1.975-1.886 5.962-1.703 4.465.205 4.838.057 3.967-1.57-1.068-1.996-2.45-2.32-3.391-.797-.821 1.328-5.238 1.286-5.685-.054-.193-.58-1.085-1.163-1.982-1.294-2.251-.331-4.833-2.614-4.833-4.274 0-.758-.675-1.378-1.5-1.378s-1.5-.47-1.5-1.044c0-.574.563-.952 1.25-.84 1.461.238 14.75-12.488 14.75-14.125 0-.61.39-.868.866-.574 1.101.68 4.368-2.85 3.47-3.748-.368-.368-.032-.683.747-.701 1.8-.04 7.352-4.866 6.537-5.682-.337-.336-1.76-.088-3.163.552-3.085 1.405-4.529 1.501-2.457.162 1.135-.734.695-.973-1.809-.985-1.82-.008-3.055-.427-2.744-.93.311-.503 0-1.105-.691-1.338-.691-.234.221-1.191 2.027-2.128 1.805-.937 3.041-2.095 2.745-2.573-.295-.478 1.566-2.719 4.136-4.981 2.805-2.469 4.777-5.102 4.936-6.589.274-2.571-1.055-3.412-1.938-1.226-.301.747-.536.545-.583-.5-.078-1.719-2.079-2.574-2.079-.889 0 1.268-5.086.078-5.621-1.314-.736-1.919-6.379-.64-6.379 1.445 0 1.641-.237 1.657-3.392.227-3.12-1.415-3.315-1.76-2.43-4.298.529-1.519 1.605-3.008 2.392-3.309.786-.302 1.43-1.223 1.43-2.045 0-.823.9-1.978 2-2.567 1.1-.589 2-1.955 2-3.035 0-1.081.563-2.013 1.25-2.071.688-.059 2.13-.171 3.206-.25 1.076-.079 2.651-1.478 3.5-3.11 1.98-3.803 5.881-7.006 8.688-7.134 1.209-.055 3.011-.912 4.004-1.905.993-.993 4.271-2.896 7.284-4.229 3.014-1.332 6.675-3.274 8.137-4.315 1.461-1.04 2.98-1.568 3.376-1.173.395.395 1.244.002 1.887-.873.642-.876 2.836-1.905 4.875-2.286 3.776-.706 9.253-6.066 8.102-7.928-.308-.498-.961-.294-1.453.452-.718 1.09-1.179.963-2.341-.643-2.273-3.142-3.075-3.837-7.481-6.483-2.275-1.366-3.648-2.646-3.051-2.845.596-.198 1.744.187 2.551.856.982.815 1.466.857 1.466.126 0-.6.72-.815 1.599-.478 1.4.538 1.432.347.259-1.531-1.682-2.694-5.347-2.764-7.59-.145-.942 1.1-2.218 2-2.837 2-2.041 0-7.568-3.192-8.149-4.707-.461-1.202-1.647-1.342-6.176-.732-3.083.415-9.881.661-15.106.546-8.728-.192-26.635 2.41-47 6.829-7.432 1.613-9.955 1.34-10.959-1.186-.764-1.922-.174-2.943 4.047-7 2.718-2.613 4.373-4.764 3.677-4.782-.75-.019-.501-.61.61-1.452 1.056-.799 1.622-2.08 1.296-2.931-.564-1.469 3.515-5.585 5.535-5.585.515 0 1.651-.714 2.523-1.586.905-.905 2.594-1.394 3.929-1.139 1.288.246 2.342.121 2.342-.278s2.023-1.498 4.496-2.442c2.472-.944 4.835-2.277 5.25-2.961.415-.685 1.641-1.573 2.726-1.973 1.215-.449 1.559-.996.895-1.425-1.335-.864-1.571-6.952-.3-7.738.513-.317.933-1.59.933-2.83s1.35-3.547 3-5.128c3.07-2.941 3.639-4.943 2.096-7.378-.549-.868-1.377-1.064-2.234-.529-2.015 1.256-4.862 1.53-4.862.468 0-1.327-11.673-.114-14.85 1.544-3.754 1.959-6.811 1.896-5.15-.105.685-.825 2.004-1.5 2.931-1.5.928 0 2.56-.661 3.628-1.468 1.844-1.395 1.789-1.47-1.109-1.5-3.305-.035-5.548-1.603-4.868-3.404.235-.62-.813-2.517-2.328-4.216-2.48-2.78-4.233-3.74-10.726-5.872-1.65-.542-1.731-.8-.5-1.578.81-.512 1.022-1.004.472-1.092-1.934-.31-43.375-.367-77.645-.107m103.691 2.474c3.845 4.57 14.884 5.099 22.79 1.093 4.452-2.256 6.862-2.672 19.129-3.302 12.214-.626 10.229-.74-15.304-.874L225.822 92l2.724 3.237m56.204 31.452c-.962.252-1.75.95-1.75 1.551s-.269.824-.597.496c-.329-.329-2.741.721-5.361 2.333-2.62 1.612-5.207 2.931-5.749 2.931-.542 0-2.694 1.659-4.782 3.687-3.155 3.064-3.511 3.787-2.107 4.279 3.409 1.196-2.353 4.729-6.373 3.906-3.621-.74-8.313 1.069-14.531 5.605-1.65 1.203-4.912 2.732-7.25 3.396-2.338.664-4.25 1.589-4.25 2.056 0 .467-.649.786-1.441.71-.793-.076-1.43.261-1.415.749.015.489-.574 1.283-1.309 1.764-1.435.942 4.2.381 12.618-1.255 2.724-.53 9.229-.974 14.456-.989 6.632-.018 11.207-.6 15.142-1.925 3.102-1.045 7.171-2.16 9.044-2.477 5.133-.871 6.905-1.54 6.905-2.609 0-1.16 8.853-5.106 9.943-4.432.419.259 1.616-.175 2.66-.965 2.207-1.671 3.79-1.944 2.897-.5-.34.55.11 1 1 1s1.364-.412 1.053-.915c-.311-.503-.09-1.073.491-1.266.581-.194 1.263-1.695 1.515-3.336.488-3.174-4.059-7.483-7.896-7.483-.945 0-2.178-1.223-2.75-2.73-1.553-4.084-4.399-5.087-10.163-3.581m-161.833 1.7c-2.307 3.081 4.085 9.38 8.194 8.076 3.168-1.006 5.889.428 5.889 3.102 0 1.338-.394 2.433-.875 2.433-1.884 0-2.193 6.228-.378 7.606 1.668 1.266 1.668 1.332.003 1.362-3.608.066-.912 6.032 2.726 6.032 3.433 0 3.91-1.517 1.064-3.382-2.917-1.911-1.918-6.81 1.795-8.797 4.542-2.431 4.766-3.452 1.178-5.384-3.006-1.619-3.193-1.951-1.707-3.037 2.656-1.942-.948-5.099-7.168-6.279-6.121-1.162-10.606-1.886-10.721-1.732m56.956 4.008c-.871 1.157-1.904 3.115-2.296 4.353-.475 1.501-1.502 2.25-3.085 2.25-3.019 0-4.198 1.751-1.467 2.179 1.13.176 1.998.721 1.929 1.209-.069.489.421 1.226 1.089 1.638.667.413.899 1.258.516 1.879-.383.62-1.116.869-1.628.552-.512-.316-.931.378-.931 1.543s.45 1.84 1 1.5c1.699-1.05 1.101 2.706-.632 3.973-1.385 1.012-1.119 1.198 1.75 1.224 1.86.017 3.945-.413 4.632-.956.917-.723 1.25-.421 1.25 1.137 0 1.455.628 2.122 2 2.122 1.1 0 2-.614 2-1.365 0-2.487 4.073-6.635 6.514-6.635 1.302 0 2.657-.468 3.011-1.04.417-.675-.266-.812-1.941-.392-2.266.569-2.584.339-2.584-1.866 0-2.022-.392-2.412-2-1.992-1.162.304-2 .031-2-.652 0-.647.453-.896 1.007-.554.554.343 1.258-.03 1.564-.828.306-.799 1.889-1.718 3.517-2.044 3.784-.756 4.598-2.936 2.368-6.34-1.731-2.641-1.779-2.652-2.554-.557-.923 2.495-4.754 4.828-5.925 3.608-.444-.464-.958-1.968-1.142-3.343-.426-3.182-3.766-3.52-5.962-.603m225.191 30.026c-.68.819-.972 1.916-.65 2.438.35.565-.931.745-3.169.445-3.642-.488-8.662 2.611-6.969 4.303.328.328.171 1.716-.35 3.085-.793 2.087-.622 2.573 1.064 3.014 1.106.289 2.079 1.035 2.162 1.659.084.623.257 1.583.385 2.133s.284 1.745.348 2.656c.082 1.182.727 1.497 2.25 1.099 1.816-.475 1.984-.291 1.13 1.235-1.036 1.852-.582 5.51.685 5.51.394 0 .727.563.739 1.25.045 2.512 3.529 9.268 3.996 7.75.254-.825.892-2.4 1.419-3.5.526-1.1.831-9.163.676-17.918-.28-15.915-.92-18.528-3.716-15.159M402 227.965c0 .569-.606 1.035-1.347 1.035s-2.365.883-3.609 1.962c-2.022 1.753-2.424 1.801-3.779.446-1.354-1.355-1.719-1.297-3.429.538-2.329 2.499-5.334 2.794-4.428.433.495-1.289.158-1.496-1.643-1.013-1.246.334-2.813.613-3.484.62-.67.008-.981.633-.69 1.391.335.874-.41 1.612-2.043 2.022-1.415.355-3.773 1.993-5.242 3.641-1.743 1.957-3.009 2.657-3.649 2.017-.64-.64-2.151.047-4.353 1.981-1.856 1.629-3.808 2.962-4.339 2.962-.531 0-.965.59-.965 1.31 0 1.911-5.951 7.69-7.919 7.69-.924 0-2.221.54-2.881 1.2-.66.66-1.2.869-1.2.466 0-.404-1.35.646-3 2.334-1.65 1.688-3 3.503-3 4.034 0 .532-.477.966-1.059.966s-.836-.362-.562-.804c.273-.442-1.051-.847-2.941-.901-1.891-.053-3.438.073-3.438.28 0 1.268 3.792 6.3 4.337 5.755.365-.365.663-.193.663.381 0 .574-.675 1.604-1.5 2.289-1.271 1.055-1.521.807-1.636-1.628-.116-2.447-.202-2.531-.577-.564-.371 1.942-.683 2.108-1.965 1.044-1.922-1.594-4.551-2.031-3.672-.61.389.63.186.775-.495.353-.682-.421-1.155-.083-1.155.823 0 1.834-4.5 5.009-5.885 4.153-1.149-.71-10.115 1.532-10.115 2.529 0 .377.785.987 1.743 1.355 1.553.596 1.474.873-.722 2.529-1.356 1.023-2.885 1.6-3.398 1.283-.512-.317-.625-.079-.25.528.693 1.122-4.091 2.422-9.606 2.61-1.519.052-2.763.397-2.765.766-.001.368-1.464.987-3.252 1.375-1.788.388-3.536 1.155-3.886 1.705-.35.549-1.756.999-3.124.999-5.255 0-1.829 3.887 6.26 7.103.891.355.485.562-1 .511-4.268-.146-5 .089-5 1.601 0 1.426 2.75 3.49 4.247 3.186 1.406-.285 6.758 5.522 7.383 8.01.343 1.368.159 3.507-.41 4.755-.568 1.247-.698 2.81-.289 3.473.41.662.609 3.771.443 6.908l-.338 6.376c-.02.371-1.235 2.098-2.7 3.84-1.882 2.236-2.315 3.382-1.477 3.9 1.499.926 2.359 5.087 1.052 5.087-.535 0-1.257-.788-1.602-1.75-.596-1.658-3.763-5.25-4.629-5.25-.221 0-.238 1.238-.037 2.75.202 1.512.11 2.212-.204 1.555-.422-.886-1.452-.757-3.98.5-3.9 1.939-4.473 3.908-1.272 4.375 2.102.308 2.117.389.395 2.104-1.815 1.806-5.39 1.523-6.711-.532-.372-.579-.805-.451-1.059.312-.611 1.833-2.812.196-2.812-2.092 0-2.122-2.356-1.716-4.952.853-1.264 1.25-1.575 1.16-2.403-.694-.523-1.172-1.332-2.131-1.798-2.131-.466 0-.847-.675-.847-1.5s-.727-1.5-1.617-1.5c-1.199 0-1.451-.58-.976-2.25 2.08-7.302 2.017-7.675-1.532-9.161-1.856-.777-3.75-1.79-4.208-2.251-.459-.461-1.134-.876-1.5-.922-.367-.046-1.934-.608-3.482-1.25-1.548-.641-3.198-1.166-3.667-1.166-.468 0-1.001-.444-1.185-.986-.183-.543-2.583-1.278-5.333-1.635s-5.771-1.317-6.713-2.135c-.942-.818-2.362-1.237-3.156-.933-1.657.636-4.079-1.776-5.08-5.061-.705-2.314-2.551-3.13-2.551-1.128 0 .809-.364.821-1.302.042-2.653-2.201-5.438-.31-5.028 3.414.207 1.882-.031 3.422-.53 3.422s-1.125.833-1.391 1.851c-.337 1.291-1.81 2.063-4.866 2.55-2.919.465-5.515 1.768-7.772 3.899-3.106 2.933-3.342 3.009-2.833.909.473-1.948.25-2.194-1.486-1.643-1.182.375-1.797.25-1.459-.296 1.224-1.98-2.376-5.27-5.767-5.27-3.184 0-6.213 2.02-4.939 3.293.335.335-.658.928-2.206 1.316-1.865.468-2.952.297-3.22-.507-.769-2.307-4.641-5.298-5.044-3.896-.204.712-2.488 3.319-5.075 5.794-2.586 2.475-4.765 4.95-4.841 5.5-.225 1.624-5.78 2.31-7.647.945-1.298-.949-1.391-1.376-.397-1.804.717-.309-.047-.318-1.697-.02-2.037.367-2.571.238-1.665-.402.735-.518 1.263-1.237 1.175-1.597-.386-1.568 1.468-7.596 4.12-13.397 1.579-3.451 2.877-6.826 2.885-7.5.01-.783.365-.684.985.275.844 1.306.971 1.289.985-.125.016-1.686-3.729-2.875-9.051-2.875-1.549 0-3.094-.45-3.434-1-.891-1.442-2.122-1.236-4.036.679-1.409 1.409-2.173 1.492-4.755.517-3.56-1.344-4.529-.889-2.729 1.28 1.04 1.253.991 1.524-.276 1.524-2.495 0-4.736-1.139-4.139-2.105.304-.492-.299-.895-1.339-.895-1.041 0-1.893.694-1.893 1.543 0 .935.57 1.324 1.445.989 1.061-.408 1.251-.087.715 1.207-.401.968-.873 2.882-1.049 4.252-.177 1.37-1.259 3.251-2.406 4.179-1.147.929-2.021 2.058-1.943 2.509 1.064 6.154-2.094 12.263-6.688 12.938-2.964.435-4.407 1.324-4.407 2.718 0 1.974-11.853 6.212-13.307 4.758-.601-.601-1.903-1.093-2.893-1.093-.99 0-1.807-.562-1.815-1.25-.012-.915-.247-.885-.879.113-.689 1.087-.951 1.102-1.294.073-.635-1.905-2.812-.153-2.812 2.263 0 1.144.762 2.638 1.693 3.319 1.592 1.163 1.592 1.34 0 2.931-1.842 1.843-2.429 30.786-1.047 51.656l.637 9.604 11.608.735c10.365.655 115.087 1.944 164.609 2.025 18.455.03 18.99-.026 18.66-1.969-.187-1.1-1.047-2.79-1.911-3.756-3.265-3.651-.043-2.943 3.448.758l3.656 3.876 15.073.46c8.291.253 16.424.446 18.074.428 1.65-.017 20.663-.075 42.25-.128l39.25-.096.11-32.271c.06-17.749.282-51.396.493-74.771.364-40.28-.594-68.391-2.391-70.188-.803-.803-11.166 3.754-12.292 5.405-.319.468-1.251.593-2.071.279-.869-.334-3.57 1.082-6.475 3.395-3.24 2.58-5.441 3.685-6.292 3.16-1.068-.66-1.058-.909.055-1.354 1.147-.458 1.148-.696.006-1.496-1.575-1.104.197-2.727 1.857-1.701.55.34 1-.11 1-1s.356-1.398.79-1.129c.435.268 2.123-.14 3.75-.907 3.512-1.655 7.332-3.201 13.459-5.446 4.968-1.821 6.231-4.29 3.061-5.986-1.376-.737-2.06-.759-2.06-.067M370 244c0 .55.563 1.01 1.25 1.023.688.012-.161.719-1.887 1.57-1.725.851-4.087 2.433-5.25 3.516-1.162 1.083-2.113 1.731-2.113 1.439 0-.803-9.614 5.282-11.018 6.973-1.91 2.302 3.156 1.922 8.823-.662a521.534 521.534 0 018.758-3.884c2.234-.959 4.709-2.387 5.5-3.174.79-.787 2.337-1.95 3.437-2.585l2-1.155-2-.046c-1.531-.035-1.677-.25-.622-.919 2.335-1.478.349-3.243-2.055-1.826-1.655.977-2.178.973-2.537-.02-.539-1.488-2.286-1.679-2.286-.25m-105.878 14.904c-.758.48-1.143 1.26-.855 1.734.288.474-.074 1.413-.803 2.087-1.059.978-1.391.894-1.645-.417-.498-2.564-4.673-2.249-7.998.603-4.063 3.485-9.821 11.026-9.821 12.861 0 2.322 7.65.683 12.984-2.782 4.109-2.669 4.672-2.79 6.715-1.451 1.227.803 2.452 1.461 2.722 1.461.569 0-.241-8.899-.907-9.977-.245-.396.457-1.688 1.56-2.872 2.044-2.194.8-2.99-1.952-1.247m-157.063 2.27c-1.308.484-2.868 1.49-3.468 2.236-.6.745-3.1 1.604-5.556 1.907-2.456.302-5.003 1.286-5.66 2.184-1.356 1.855-.713 59.431.704 62.999.672 1.693.804 1.731.858.25.034-.962.513-1.75 1.063-1.75.55 0 1-1.125 1-2.5 0-2.061.483-2.5 2.75-2.499 2.534 0 2.74-.295 2.625-3.75-.153-4.557.955-6.904 3.665-7.764 1.187-.376 2.277-1.824 2.604-3.457.309-1.546 1.891-4.264 3.514-6.042 1.716-1.879 2.843-4.124 2.689-5.36-.145-1.171.482-3.253 1.394-4.628.911-1.375 2.355-4.173 3.208-6.219.997-2.39 2.04-3.531 2.92-3.193.823.316 1.593-.334 1.932-1.632.312-1.194 1.041-1.863 1.632-1.498 1.383.855 1.385-.74.003-2.122-1.522-1.522 1.557-4.336 4.742-4.336 1.843 0 2.379-.41 1.96-1.5-.341-.889-.01-1.5.813-1.5 1.167 0 1.152-.597-.097-3.75-2.021-5.107-4.254-8.007-5.143-6.684-.391.581-1.611 1.148-2.711 1.259-1.1.111-4.292.46-7.093.774-3.708.417-5.483.182-6.531-.866-1.023-1.023-2.126-1.185-3.817-.559m194.441.146c-2.75.492-5.675 1.139-6.5 1.438-2.502.907-4.298 1.257-9 1.753-2.475.261-5.738.738-7.25 1.061-1.664.355-2.75.161-2.75-.493 0-.593-.927-1.079-2.059-1.079-1.238 0-1.789.437-1.382 1.096.419.677-.02.962-1.147.745-1.003-.193-2.094-1.474-2.425-2.846l-.6-2.495-.68 2.5c-.374 1.375-.686 4.349-.693 6.61-.011 3.207-.563 4.522-2.514 5.987-3.315 2.49-3.152 3.718.684 5.166 3.888 1.468 4.487 1.004 2.978-2.306-.639-1.403-1.162-3.07-1.162-3.704 0-2.189 1.704.701 3.589 6.084 2.107 6.019 2.979 6.695 9.657 7.49 3.541.422 6.041.027 9.845-1.553l5.098-2.119-2.595-1.36c-3.346-1.753-3.298-2.01 1.318-6.979 2.137-2.302 3.594-4.511 3.237-4.911-.357-.399-.017-.359.756.089.944.548 1.17.437.69-.339-.392-.635-.21-1.155.405-1.155s.87-.401.567-.891c-.303-.49 1.286-2.55 3.53-4.578 4.822-4.356 4.821-4.359-1.597-3.211M196.717 375.038c-1.435 3.655-1.427 3.964.113 3.992 1.372.025 1.313.23-.33 1.148-1.1.614-2.209 1.297-2.463 1.516-.255.22-.544 3.866-.641 8.103-.151 6.542.133 8.042 1.887 9.953l2.066 2.25h-2.058c-1.132 0-2.336.788-2.675 1.75-.34.962-.86 2.255-1.158 2.873-.297.617.457 1.383 1.676 1.702 2.713.709 5.035-1.95 4.213-4.825-.465-1.626-.326-1.766.741-.75 3.054 2.91 9.255-1.37 8.402-5.8-.413-2.144 1.043-2.695 1.848-.7.312.773.534.609.583-.432.043-.925 1.458-2.663 3.143-3.863 1.834-1.306 2.844-2.753 2.516-3.606-.307-.802.211-1.711 1.187-2.081 3.59-1.359 4.883-3.461 2.875-4.674-.996-.601-2.742-1.882-3.88-2.844-1.137-.962-2.587-1.75-3.221-1.75-.634 0-2.657-1.11-4.496-2.467-1.839-1.357-3.717-2.236-4.174-1.954-.456.283-1.677.06-2.714-.495-1.622-.868-2.099-.459-3.44 2.954" fill="#d3d3d3" fill-rule="evenodd"/></svg>