<svg xmlns="http://www.w3.org/2000/svg" width="500" height="500"><path d="M26.545 5.25c-.403 2.888-.58 10.2-.394 16.25.417 13.489.246 40.461-.62 98-.364 24.2-.823 65.15-1.019 91-.196 25.85-.633 52.85-.97 60-.925 19.619-1.459 59.256-1.422 105.5.037 46.393.242 51.987 1.937 53.035.832.514.628 1.044-.687 1.783-1.756.988-1.722 1.107.551 1.952 1.601.596 2.019 1.149 1.234 1.634-.653.404-.899 1.201-.546 1.772.422.683.902.615 1.407-.201.543-.879 1.266-.475 2.49 1.393.948 1.448 2.347 2.632 3.109 2.632s1.385.45 1.385 1c0 .92-1.417 1.408-3.25 1.118-.413-.065-.75.332-.75.882s.477 1 1.059 1 .781.45.441 1c-1.063 1.721.89 1.099 4.715-1.5 4.264-2.898 4.937-3.06 4.147-1-.317.825-.078 1.5.531 1.5s1.107.45 1.107 1-.9 1-2 1c-1.111 0-2 .667-2 1.5 0 .825-.477 1.5-1.059 1.5s-.8-.419-.484-.931c.317-.512.118-1.213-.441-1.559-.559-.345-1.016.129-1.016 1.053 0 1.382-.268 1.46-1.5.437-.906-.752-1.5-.833-1.5-.206 0 .572.563 1.266 1.25 1.544.987.398.983.521-.019.583-.83.052-1.062.906-.669 2.47.33 1.315.114 2.691-.481 3.059-.595.367-1.074 1.429-1.066 2.359.013 1.448.151 1.476.959.199.751-1.188 1.196-1.238 2.184-.25.989.989.845 1.249-.708 1.275-1.791.031-1.755.196.442 2.025 1.315 1.096 2.113 2.27 1.774 2.61-.34.339-1.298.053-2.129-.637-.831-.69-2.185-.996-3.009-.68-.888.34-1.925-.225-2.548-1.388-.746-1.395-.734-1.963.044-1.963.602 0 .84-.412.529-.915-.311-.503 0-1.18.691-1.506.691-.325.019-.355-1.494-.066-1.544.295-2.75.078-2.75-.494 0-.56-.505-1.019-1.122-1.019-.811 0-.799.39.041 1.403.817.983.84 1.511.079 1.764-.637.213-.267 1.241.898 2.491 1.091 1.171 1.686 2.426 1.323 2.79-.364.363-.198.974.368 1.356 1.388.939 4.413 5.422 4.413 6.541 0 .495-.709.311-1.576-.408-1.306-1.084-1.748-1.062-2.576.127-.688.988-1.148 1.079-1.472.292-.26-.629-1.406-.899-2.547-.601-2.025.529-2.018.575.298 1.858 1.855 1.029 1.991 1.324.623 1.352-2.029.041-2.251 1.134-.572 2.813.904.904.708 1.59-.843 2.95-1.999 1.753-2.779 5.272-1.168 5.272.458 0 .833-.675.833-1.5s.48-1.5 1.067-1.5c.634 0 .793.864.393 2.125-.454 1.43-.312 1.902.433 1.441.609-.376 1.107-.207 1.107.375S24.45 487 25 487s1-.675 1-1.5c0-.833.889-1.5 2-1.5 1.1 0 2 .436 2 .969 0 .532-.601.738-1.336.456-1.441-.553-1.635 2.195-.308 4.343.419.677.398 1.239-.047 1.247-1.339.026 2.086 1.953 3.5 1.97.72.008 1.05-.404.734-.916-1.164-1.883 1.019-1.752 2.957.178 2 1.991 1.999 1.991-.25 1.305-1.668-.509-2.25-.282-2.25.881 0 .862.689 1.567 1.531 1.567.843 0 1.772.625 2.065 1.389.57 1.487 4.404 1.026 4.404-.529 0-.498 1.113-.177 2.474.715 3.138 2.056 8.564 2.491 9.236.739.277-.723.961-1.314 1.519-1.314.612 0 .547.565-.161 1.419-1.012 1.219 2.974 1.435 28.323 1.536 28.711.114 29.529.062 30.59-1.919 1.229-2.297 3.253-2.809 2.409-.609-.404 1.052.016 1.28 1.597.866 1.519-.397 1.834-.872 1.079-1.627-1.618-1.618-1.308-3.973.434-3.304 2.07.794 1.889-1.346-.25-2.97-1.653-1.255-1.646-1.33.122-1.36 1.551-.027 1.659-.29.628-1.532-.781-.941-.85-1.5-.185-1.5.584 0 .993-.9.91-2-.083-1.1-.505-2-.938-2-.433 0-.794-.788-.802-1.75-.014-1.513-.162-1.547-1.095-.25-.91 1.266-.991 1.227-.516-.25.31-.963.127-1.75-.405-1.75-.533 0-.969-.702-.969-1.559s-.45-1.281-1-.941c-.55.34-1 .179-1-.358 0-.536.562-1.202 1.25-1.48.784-.316.632-.534-.406-.583-1.581-.075-1.558-4.078.023-4.08.348 0 .753-2.138.901-4.75.193-3.438-.01-4.335-.735-3.249-.822 1.23-1.005 1.106-1.018-.691-.008-1.205-.465-2.469-1.015-2.809-1.701-1.051-1.101-2.475.75-1.779.962.363.023-.98-2.089-2.983-2.111-2.003-3.547-4.113-3.191-4.69.357-.576.222-1.048-.3-1.048-.521 0-1.242-1.57-1.602-3.489-.838-4.468 1.202-11.506 3.34-11.526 1.393-.014 1.405-.137.092-.985-1.157-.748-1.19-.973-.143-.985.75-.008 1.117-.642.819-1.416-.326-.851.273-1.614 1.524-1.941 1.902-.497 1.936-.665.439-2.162-1.819-1.819-4.066-1.052-3.239 1.105.31.807-.084 1.399-.931 1.399-2.049 0-1.831-1.638.531-4l2-2h-2.412c-1.977 0-2.363-.449-2.139-2.49.151-1.37-.347-3.687-1.105-5.149-.759-1.462-1.163-2.876-.897-3.141.265-.266.057-1.279-.464-2.252-.705-1.317-.525-1.93.703-2.401 1.189-.456 1.345-.936.559-1.722-1.368-1.368-.491-3.845 1.362-3.845.766 0 1.393-.45 1.393-1s.675-1 1.5-1c1.938 0 1.967-3.884.034-4.625-1.063-.408-1.426-2.044-1.323-5.969.145-5.497 1.296-7.242 2.083-3.156.308 1.596.473 1.289.57-1.059.075-1.82.495-3.087.934-2.816.439.271 1.438.097 2.222-.387 1.188-.735 1.139-.99-.298-1.541-1.978-.759-2.344-3.439-.472-3.462.774-.01.869-.295.25-.75-1.235-.908-1.893-4.317-.797-4.132 2.56.431 4.714-.186 3.449-.988-1.599-1.013-1.055-4.724.64-4.371.645.134 1.455-.878 1.799-2.25.344-1.372 1.027-2.494 1.517-2.494.491 0 .892-.848.892-1.883 0-1.073.969-2.195 2.25-2.606 1.906-.612 1.982-.795.5-1.19-3.017-.806-2.052-3.094 1.148-2.721 2.54.296 2.838.063 2.413-1.881-.39-1.788-.277-1.928.587-.719.925 1.296 1.073 1.262 1.087-.25.008-.962.465-1.806 1.015-1.875.55-.069 1.563-.193 2.25-.276.688-.082 1.798.536 2.468 1.375.9 1.127 1.227 1.183 1.25.217.018-.72.446-1.053.951-.741.506.313 1.595-.107 2.42-.932.927-.927 1.636-1.093 1.856-.434.213.64 1.444.794 3.073.385 1.495-.375 2.503-1.03 2.241-1.454-.262-.425 2.216-1.37 5.507-2.1 6.189-1.373 7.242-2.213 4.234-3.379-2.492-.966 1.057-3.536 4.882-3.536 1.513 0 3.028-.45 3.368-1 1.089-1.762 3.577-1.077 6.423 1.77 3.91 3.909 7.299 5.216 16.518 6.369 12.345 1.544 18.737 1.183 20.719-1.169 2.171-2.576 2.727-2.513 9.183 1.03 3.007 1.65 5.935 3 6.507 3 1.247 0-3.27-10.563-5.448-12.741-1.082-1.082-1.219-1.842-.466-2.595 1.382-1.382 1.38-2.977-.003-2.123-1.363.843-3.86-2.415-3.901-5.091-.018-1.128-.497-2.515-1.065-3.083-1.303-1.303-.194-4.367 1.581-4.367 1.922 0 2.867 1.985 1.565 3.287-.612.612-1.106 1.81-1.098 2.663.014 1.366.131 1.372.985.05.804-1.244.975-1.159 1 .5.025 1.659.196 1.744 1 .5.736-1.138.973-.716.985 1.75.018 3.97 1.687 4.222 3.313.5.841-1.923 1.82-2.662 3.258-2.456 1.141.163 3.278-.838 4.802-2.25 2.157-1.999 3.859-2.569 7.944-2.66 2.859-.064 4.298-.335 3.198-.603-4.198-1.023-7.588-6.281-4.05-6.281.798 0 1.81-.573 2.25-1.274.44-.701 2.045-2.066 3.567-3.034 2.466-1.569 2.748-2.301 2.592-6.726-.097-2.731-.497-4.966-.888-4.966-.392 0-1.021-2.724-1.397-6.053-.437-3.855-1.21-6.254-2.13-6.607-1.012-.388-1.444-2.168-1.444-5.947 0-4.784-.233-5.393-2.067-5.393-3.645 0-8.72-4.663-8.176-7.511.376-1.966.065-2.489-1.481-2.489-3.544 0-4.865-8.9-3.31-22.286.738-6.344 1.233-20.117 1.141-31.714-.089-11.275-.262-42.775-.384-70l-.223-49.5 4.5.272c2.475.149 18.765.374 36.2.5 22.711.163 32.034.562 32.877 1.405.9.9.907 4.194.03 14-2.122 23.695-3.049 40.714-3.164 58.083-.081 12.09-.879 23.174-2.667 37-2.967 22.946-3.418 47.062-1.108 59.24.96 5.063 1.147 8.962.577 12-1.896 10.095-1.367 24.08 1.171 31 2.605 7.103 5.812 12.7 8.603 15.015 1.752 1.453 4.481 6.905 4.481 8.953 0 1.684-3.78 1.175-5.711-.769-1.675-1.686-7.179-5.51-8.289-5.759-.275-.062-1.175-.396-2-.741-2.864-1.201-14.327-1.507-16.657-.446-1.288.587-3.365 3.218-4.614 5.847-2.561 5.388-7.751 9.47-12.927 10.168-6.691.902-8.195 2.949-9.346 12.732a649.92 649.92 0 01-1.16 9c-.412 3.025-.803 6.85-.871 8.5-.245 5.99-.395 6.449-1.925 5.862-.825-.317-1.5-.115-1.5.448 0 .563.519 1.196 1.153 1.408.78.26.541 1.34-.737 3.333-2.529 3.946-4.166 5.589-4.672 4.69-.229-.408-.27-.155-.092.561.179.716-.081 1.051-.578.744-.497-.307-1.076-.041-1.286.591-.287.861-.936.854-2.586-.029-1.854-.992-2.202-.919-2.202.464 0 .938-.558 1.428-1.302 1.142-.717-.275-2.854.203-4.75 1.062-1.897.859-4.708 1.707-6.249 1.885-1.54.178-3.619.761-4.618 1.296-1 .535-2.14.651-2.533.258-.826-.826-6.548-.981-6.548-.177 0 .295-1.869.612-4.153.703-5.129.204-5.811.858-6.069 5.818-.292 5.598 1.236 36.255 2.015 40.441.358 1.925.661 17.577.673 34.783l.023 31.284 52.255-.109c39.268-.082 52.26-.401 52.271-1.284.011-.83.25-.805.815.086 1.208 1.902 95.791 1.322 95.395-.584-.151-.729.187-1.04.75-.691.573.354 1.025-.275 1.025-1.426 0-1.43.646-2.059 2.117-2.059 1.71 0 2.026-.473 1.645-2.465-.259-1.356.026-2.67.633-2.921.644-.266.532-.489-.267-.535-1.052-.061-1.106-.401-.229-1.457.78-.94.842-2.173.196-3.873-.602-1.582-.598-2.846.011-3.455 1.291-1.291.122-4.075-1.941-4.621-1.487-.394-1.479-.453.078-.557 2.31-.154 2.182-8.031-.161-9.834-1.427-1.099-1.413-1.222.143-1.25 1.441-.027 1.563-.459.74-2.623-.835-2.197-.684-2.67.989-3.107 1.647-.431 1.753-.738.638-1.853-.814-.814-1.202-2.92-.992-5.393.19-2.245-.099-4.056-.648-4.056-.545 0-.787-1.125-.538-2.5.25-1.375.033-2.5-.48-2.5-.514 0-.934-1.173-.934-2.607 0-1.906.403-2.452 1.5-2.031 1.602.614 1.872-.228.893-2.78-.334-.87-1.179-1.582-1.877-1.582-.914 0-1.128-1.262-.763-4.5.351-3.118.138-4.5-.694-4.5-.776 0-.641-.561.379-1.581.869-.869 1.266-2.089.881-2.712-.385-.622-.599-2.614-.477-4.426.122-1.811-.338-4.303-1.023-5.537-.684-1.234-1.145-2.593-1.023-3.019.121-.426.367-2.71.545-5.075.178-2.364.632-4.797 1.008-5.405.376-.609.265-1.366-.247-1.682-.512-.317-1.149-.01-1.416.681-.267.691-.341-2.227-.164-6.484.176-4.256-.095-7.996-.603-8.31-.554-.342-.505-1.355.121-2.526.814-1.519.698-2.087-.522-2.556-1.016-.389-1.248-1.001-.658-1.735.501-.623.947-3.287.99-5.921.043-2.633.322-5.182.62-5.664.299-.483-.023-1.141-.714-1.463-.959-.447-.972-.719-.056-1.152.803-.379.919-1.306.35-2.802-.468-1.229-.85-3.928-.85-5.998 0-3.716.025-3.74 2.05-1.947 2.023 1.791 2.04 1.775 1.327-1.186l-.723-3 2.267 2.417c1.708 1.819 2.373 2.067 2.694 1 .234-.779 1.281-2.101 2.325-2.936 1.837-1.47 1.779-1.693-1.78-6.777l-3.68-5.257 2.087-1.944c1.147-1.07 3.298-3.533 4.779-5.474 2.422-3.176 3.172-3.529 7.501-3.529 5.787 0 7.953-1.79 7.953-6.571 0-2.855.377-3.448 2.25-3.545 1.693-.087 1.817-.229.5-.573-2.303-.602-2.303-4.29 0-4.379 1.393-.054 1.291-.289-.5-1.152-2.977-1.436-2.839-2.119.696-3.453 1.771-.669 2.963-1.853 2.988-2.97.023-1.021.315-3.485.648-5.475.396-2.362.071-4.652-.934-6.597-.848-1.638-1.35-3.835-1.117-4.882.233-1.047-.445-3.478-1.508-5.403-1.062-1.925-2.859-5.466-3.992-7.868-1.134-2.402-4.699-8.312-7.923-13.132-3.225-4.821-6.031-9.161-6.235-9.646-.205-.486-3.284-3.054-6.842-5.708-3.558-2.655-7.071-5.686-7.807-6.736-.735-1.051-2.013-1.91-2.84-1.91-.826 0-1.247-.413-.934-.919.522-.845-4.977-2.709-6.7-2.271-.413.104-.75-1.412-.75-3.369 0-2.118-.405-3.309-1-2.941-.55.34-1 .297-1-.095 0-1.056 8.29-7.946 9.21-7.655.435.137.79-.151.79-.642 0-.49-1.165-1.184-2.588-1.541-1.984-.498-2.336-.953-1.509-1.95.594-.716.759-1.622.367-2.013-.392-.392-.05-1.131.759-1.643s.97-.937.358-.946c-1.297-.018-1.291-7.814.007-9.872.721-1.142.992-1.142 1.716 0 .628.991.864.75.875-.893.009-1.34-.592-2.25-1.485-2.25-.893 0-1.494-.91-1.485-2.25.013-1.868.198-1.995 1.087-.75.861 1.205.974 1.057.578-.751-.271-1.239-.085-2 .413-1.691.86.531 1.374-3.847.934-7.959-.256-2.391 1.989-6.707 3.124-6.006.467.289.849-.301.849-1.311 0-1.011.701-2.837 1.557-4.059.891-1.273 1.099-2.223.488-2.223-.693 0-.835-1.459-.405-4.153.46-2.872.33-3.947-.419-3.484-.595.368-1.409.141-1.808-.504-.502-.813-.062-1 1.431-.61 2.5.654 2.796-.467.682-2.58-1.299-1.3-1.289-1.546.09-2.075.86-.33 1.974-.347 2.474-.038.501.309.966-.365 1.035-1.497a73.37 73.37 0 01.274-3.309c.082-.687-.424-1.844-1.123-2.569-.921-.956-.987-1.852-.239-3.25.568-1.062.68-1.938.248-1.946-.432-.009-.136-.427.658-.929 1.162-.735 1.218-1.407.288-3.449-.722-1.584-.795-2.759-.193-3.13 1.565-.968 1.099-2.472-.788-2.54-1.349-.049-1.239-.269.483-.962 1.44-.579 2.025-1.442 1.647-2.428-.344-.894.079-1.786 1.016-2.146.882-.338 1.604-1.212 1.604-1.941 0-.729.825-1.587 1.833-1.907 1.009-.32 1.834-1.27 1.834-2.111 0-.862-.581-1.305-1.334-1.016-.733.281-1.333.075-1.333-.457 0-.894 1.435-1.374 3.25-1.087 1.058.167.936-1.649-.156-2.324-1.668-1.031.116-4.573 2.621-5.201 1.816-.456 2.119-.841 1.138-1.448-1.064-.658-1.083-1.079-.095-2.067.989-.989 1.242-.889 1.242.493 0 1.503.301 1.568 2.25.486 1.238-.688 2.587-1.322 3-1.411a54.093 54.093 0 001.5-.348c.413-.103 6.825-.205 14.25-.225 8.978-.025 14.589-.489 16.75-1.386 3.928-1.63 4.118-.573 1.624 9.049-2.836 10.939-2.902 11.855-.75 10.445 1.032-.676 3.676-3.383 5.876-6.015 2.2-2.632 4.299-4.818 4.664-4.858.365-.04 2.334-1.693 4.374-3.675 3.573-3.47 3.739-3.94 4.505-12.75 1.122-12.916 2.829-17.279 4.365-11.158 1.545 6.156.33 69.824-1.46 76.511-.515 1.925-.939 4.907-.942 6.628-.003 1.72-.624 3.64-1.379 4.266-1.121.931-1.163 2.19-.232 6.873 1.336 6.716.891 62.198-.628 78.233-.182 1.925-.037 5.501.322 7.946.371 2.521.091 7.134-.646 10.656-.842 4.023-1.059 8.795-.616 13.554.375 4.039.348 10.044-.061 13.344-1.435 11.568-2.464 43.66-1.511 47.133.322 1.173.2 3.873-.271 6-.47 2.127-1.086 9.287-1.367 15.912-.281 6.625-1.056 13.375-1.722 15-.714 1.742-1.317 9.114-1.469 17.955-.141 8.25-.494 17.944-.783 21.543-.289 3.599-.132 8.291.35 10.427.616 2.73.492 4.647-.416 6.456-1.634 3.257-2.769 9.074-1.77 9.074 1.07 0 1.362 5.069.369 6.396-2.233 2.984-3.154 9.439-2.101 14.719 2.006 10.06 2.03 10.782.446 13.844-.87 1.684-1.635 4.744-1.699 6.801-.064 2.057-.489 4.752-.945 5.99-.819 2.226-.734 2.25 8.023 2.25 8.812 0 8.85-.011 8.85-2.542 0-3.691.987-4.221 8.167-4.381 1.879-.043 3.132-.361 2.785-.708-.347-.348.028-1.573.833-2.723 1.56-2.226 2.043-7.121.616-6.239-.467.289-1.817-.588-3-1.949-2.537-2.917-2.695-3.604-.651-2.82 2.325.893 1.991-5.884-.396-8.044-1.402-1.269-2.006-1.388-2.317-.456-.284.854-.63.713-1.072-.439-.359-.934-.216-1.699.316-1.699.533 0 .969-.675.969-1.5s-.45-1.5-1-1.5-1-.702-1-1.559.403-1.31.895-1.006c.493.305 1.153-.119 1.469-.941.315-.822 1.153-1.494 1.861-1.494 1.678 0 3.994-5.265 3.212-7.303-.469-1.222-1.158-1.374-3.022-.665-1.589.604-2.415.565-2.415-.116 0-.569-.45-.756-1-.416s-1-.271-1-1.358c0-1.086.489-2.138 1.086-2.337.598-.2 1.112-2.15 1.143-4.334.076-5.387-.482-8.433-1.437-7.843-.435.27-.778-.099-.76-.819.046-1.91 4.056-6.123 7.14-7.501 2.857-1.277 3.111-3.309.763-6.102-1.568-1.864-1.415-7.206.207-7.206.555 0 .933-1.913.841-4.25-.254-6.416-.149-6.75 2.124-6.75 1.481 0 1.932-.455 1.52-1.53-.857-2.232 3.777-4.21 5.843-2.495 2.298 1.908 1.482 37.652-2.096 91.775l-.612 9.25h2.502c1.708 0 2.74-.715 3.248-2.25.41-1.238.865-34.65 1.012-74.25.182-49.416-.021-68.236-.647-60-1.127 14.831-1.082 14.703-5.12 14.314-3.06-.295-3.263-.556-3.361-4.314-.058-2.2.21-4.9.595-6 .385-1.1.309-3.456-.17-5.236l-.871-3.235-2.899 2.583c-1.766 1.574-2.755 3.326-2.532 4.485.243 1.262-.204 1.908-1.326 1.918-1.331.012-1.403.199-.336.875 1.006.638 1.053 1.047.183 1.585-2.942 1.819-5.307-8.063-3.329-13.91.732-2.164 1.162-6.079.955-8.699-.266-3.374.022-4.916.988-5.287.751-.288 1.272-.873 1.159-1.301-.465-1.766 1.399-12.291 2.273-12.831.521-.322.707-.973.414-1.447-.293-.474-.075-1.144.484-1.49 1.859-1.149 1.052-2.367-2.395-3.614-2.903-1.05-3.462-1.771-3.755-4.842-.605-6.342.434-9.587 2.98-9.311 2.725.296 4.472-3.477 5.117-11.052.038-.445.489-.549 1.003-.232 1.554.96.922-5.83-.717-7.709-.84-.963-1.177-1.75-.75-1.75.428 0 .236-.653-.427-1.452-1.306-1.573-.527-5.548 1.086-5.548.546 0 .668-.562.273-1.25-.396-.687-.375-.94.047-.56 1.22 1.098 4.341-2.448 4.568-5.19.419-5.048-.045-8.001-1.264-8.055-2.479-.11-5.944-5.714-4.826-7.804 1.146-2.141 1.223-4.342.523-14.961-.319-4.827-.136-7.106.535-6.691.56.346 1.034 1.39 1.053 2.32.026 1.224.416 1.004 1.413-.796 1.68-3.036 1.036-4.339-1.868-3.784-3.115.596-5.165-1.787-3.215-3.737 1.122-1.121 1.597-1.177 1.987-.233.34.824 1.374.299 3.077-1.562l2.566-2.802 1.149 2.521c1.687 3.704 2.624 2.327 2.482-3.648-.082-3.405-.568-5.312-1.376-5.393-2.259-.226-2.27-.355-.206-2.419 2.265-2.265 2.101-10.63-.236-12.074-1.511-.934-2.22-5.882-.842-5.882.569 0 1.034.477 1.034 1.059s.481.762 1.068.399c.588-.363.805-1.347.483-2.186-.322-.839-.176-2.031.325-2.649 2.597-3.203 4.301-86.979 1.81-88.954-2.372-1.881-2.759-7.669-.513-7.669 1.73 0 1.824-1.601 1.768-30.25-.046-23.815-.312-29.847-1.25-28.356-3.647 5.799-11.952 11.464-14.142 9.647-.723-.601-1.018-6.868-.88-18.722.114-9.8-.052-20.631-.369-24.069L482.724 0H27.279l-.734 5.25m445.857 38.259c-2.514 3.837-4.307 9.559-4.384 13.991-.038 2.2-.946 7.825-2.018 12.5-2.648 11.549-2.53 12.14 1.521 7.642 2.18-2.42 4.034-3.643 4.977-3.281 1.058.406 1.503-.08 1.504-1.642.001-1.221.114-8.857.25-16.969.136-8.113.146-14.751.021-14.75-.125 0-.967 1.129-1.871 2.509M39.434 56.5c.465 2.478.293 3.5-.589 3.5-.889 0-.937.308-.168 1.077.718.718.779 2.398.184 5.046-.49 2.183-.794 6.311-.675 9.173S38.094 85.9 37.718 92.5c-.377 6.6-.973 19.2-1.324 28-.352 8.8-.834 18.925-1.071 22.5-.453 6.823-.691 55.509-.353 72.297.108 5.389-.251 10.339-.797 11-1.024 1.239-1.148 2.938-1.256 17.203a634.94 634.94 0 01-.098 7.75c-.031 1.238-.003 13.95.063 28.25s.106 26.675.089 27.5c-.104 5.133-.17 66.395-.076 70.444.063 2.719.613 5.252 1.223 5.629.61.377.72.891.245 1.142-.475.251-.338.334.304.184.642-.15 1.416.374 1.719 1.164.695 1.813 2.614 1.884 2.614.098 0-2.198 4.98-4.051 5.079-1.89.048 1.044.279 1.234.583.479.844-2.091 2.087-1.409 3.188 1.75.575 1.65 1.529 3 2.119 3 2.079 0 2.931-4.667 3.991-21.854C55 350.285 55.913 342.978 59.976 319c5.001-29.515 6.211-42.788 6.245-68.5.018-14.059.612-30.033 1.357-36.5 2.161-18.764 1.525-59.565-1.118-71.719-.265-1.22-2.888-4.595-5.828-7.5-9.423-9.308-9.059-7.983-9.678-35.235C50.378 74.156 48.626 63 45.214 63c-1.121 0-1.196-.317-.323-1.369C47.297 58.732 44.18 53 40.198 53c-1.082 0-1.264.835-.764 3.5m132.501 33.206c-2.036.48-1.66 6.258.635 9.761.913 1.393 1.328 2.533.923 2.533-.406 0-.182.67.498 1.489.68.819 1.711 1.195 2.292.836.659-.407.816-.026.418 1.011-.762 1.987.165 4.865 1.335 4.142 1.187-.734 2.086 1.099 2.181 4.447.055 1.933.512 2.733 1.372 2.403.709-.273 1.875.442 2.591 1.588.716 1.146 2.318 2.084 3.561 2.084 1.348 0 2.259.609 2.259 1.51 0 .83.877 2.26 1.949 3.178 1.072.918 1.743 2.002 1.491 2.409-.252.407.923 1.044 2.611 1.414 1.957.43 3.401 1.547 3.984 3.082.504 1.324 1.169 2.407 1.478 2.407.942 0 .057-5.449-1.013-6.235-.611-.448-.49-.74.309-.75.783-.009 1.002-.511.545-1.251-.42-.68-.876-2.592-1.013-4.25-.519-6.274-2.261-9.299-4.543-7.889-.439.271-.798.031-.798-.535 0-.565-.675-.768-1.5-.452-.984.378-1.5-.031-1.5-1.186 0-1.639-.152-1.629-2.17.143-1.862 1.635-2.082 1.666-1.555.218.412-1.132-.682-3.022-3.331-5.751-2.169-2.235-3.944-4.308-3.944-4.605 0-1.282-3.934-4.616-4.809-4.075-.529.327-1.173-.509-1.431-1.859-.258-1.349-.069-2.587.42-2.75 1.526-.508-1.593-3.456-3.245-3.067M126.25 94.22c-1.237.597-2.296 2.029-2.352 3.183-.056 1.153-.283 4.426-.503 7.272-.294 3.787.021 5.598 1.173 6.75.866.866 1.093 1.575.503 1.575-.589 0-1.071.477-1.071 1.059s.413.804.919.491c.505-.312 1.204.899 1.553 2.691.564 2.893 1.98 6.972 4.602 13.259.458 1.1 1.371 3.898 2.028 6.217.657 2.32 1.546 4.001 1.974 3.736.429-.265 1.078.458 1.443 1.608.365 1.149.903 1.85 1.196 1.557.461-.461 5.285 5.801 5.285 6.86 0 1.395 11.22 11.393 14.5 12.921 2.2 1.025 5.823 3.336 8.05 5.136 5.749 4.644 10.923 4.99 9.789.654-.548-2.095-8.797-7.764-12.738-8.753-1.478-.371-2.528-1.155-2.332-1.743.196-.587-.347-1.813-1.206-2.724-7.455-7.899-17.056-20.796-17.08-22.942-.016-1.444-.929-5.097-5.797-23.197-2.23-8.29-5.793-16.871-6.961-16.762-.399.037-1.738.556-2.975 1.152m331.478 55.521c-2.855 1.171-3.635 1.977-3.209 3.319.309.974.074 2.073-.522 2.442-1.633 1.009-3.997-1.431-3.997-4.124 0-1.87-.534-2.378-2.5-2.378-2.368 0-2.5.295-2.5 5.571 0 5.572-.637 6.837-4.542 9.027-2.285 1.28-4.019 5.964-5.432 14.676C433.707 186.401 433.689 203 435 203c.55 0 1-.45 1-1 0-1.564 4.308-1.173 6.873.623 2.064 1.446 2.241 2.129 1.619 6.25-1.163 7.702-3.303 79.559-2.399 80.544 1.681 1.832 1.641 2.327 3.864-47.917 1.923-43.451 2.127-45.066 6.165-48.829l2.176-2.026 2.223 2.585c3.739 4.346 3.83 7.069 1.98 59.27-1.145 32.29-1.845 42.049-3.163 44.084-1.049 1.619-1.103 2.791-.243 5.259.797 2.285.824 7.871.098 19.916-.555 9.208-1.07 18.766-1.144 21.241-.272 9.113-1.646 13.179-5.072 15.012-2.951 1.58-2.635 8.01.673 13.653l2.649 4.521-.61 17.881c-.45 13.172-1.016 18.664-2.15 20.857-1.737 3.359-2.055 9.639-.535 10.578.552.341.777 1.605.5 2.809-.801 3.488-1.141 37.881-.407 41.189.586 2.637 1.532-9.894.974-12.893-.092-.492.356-2.292.995-4 .696-1.861 1.289-11.204 1.477-23.288.466-29.909.668-33.525 2.066-36.898.701-1.694 1.1-5.226.887-7.85-.214-2.623-.018-5.512.435-6.42C458.639 372.724 459.854 365 458 365c-.55 0-1-.9-1-2s-.508-2-1.128-2c-1.37 0-.339-7.733 1.294-9.7.721-.869.749-1.715.085-2.55-.547-.687-.807-2.15-.578-3.25.229-1.1.382-5.15.34-9-.042-3.85.293-9.025.744-11.5.45-2.475.577-8.245.281-12.823-.296-4.577-.247-8.852.11-9.5.356-.647.925-7.477 1.264-15.177.339-7.7.894-18.725 1.234-24.5.992-16.84 1.131-19.686 2.811-57.514.27-6.058 1.228-14.586 2.131-18.952 1.172-5.664 1.344-8.413.603-9.6-.639-1.023-.731-3.16-.238-5.549 1-4.847.81-20.452-.27-22.135-1.019-1.59-3.209-1.455-7.955.491m-254.039 10.373c-.996.579-2.458.805-3.25.501-.817-.314-1.439.035-1.439.808 0 .748-1.042 1.622-2.316 1.941-4.444 1.116-9.277 8.636-5.55 8.636.746 0 .788.411.129 1.25-1.661 2.115-2.315 7.556-.974 8.101.666.27.307.527-.798.57-2.107.083-4.928 3.563-4.046 4.99.282.457 1.985.845 3.784.862 1.799.018 3.568.076 3.931.129.363.054-.513 1.435-1.947 3.068-1.433 1.634-2.825 2.751-3.093 2.483-.268-.267.046-1.019.697-1.67 1.627-1.627 1.482-2.783-.348-2.783-.843 0-1.791.675-2.107 1.5-.317.825-1.004 1.5-1.528 1.5s-.674-.45-.334-1 .141-1-.441-1-1.059.927-1.059 2.059c0 1.132.45 1.781 1 1.441 1.288-.796 1.261-.167-.124 2.874-.665 1.459-1.687 2.252-2.5 1.94-1.841-.706-1.756 1.126.124 2.686 2.038 1.691 1.894 3.061-.25 2.387-1.659-.522-1.659-.476-.016.88.954.787 1.404 1.796 1 2.242-.403.446-.177.491.505.099.813-.468 1.047-.214.681.739-.306.798-.093 1.737.474 2.088 1.049.648-.165 4.568-2.296 7.416-1.657 2.216-1.622 4.372.061 3.726.827-.317 1.679-.577 1.891-.577.213 0 .1-.749-.251-1.664-.431-1.124-.257-1.428.538-.937.662.41 1.429.072 1.753-.772.316-.826 1.156-1.278 1.865-1.006 1.588.61 2.835-4.824 1.322-5.759-.581-.359-.092-.944 1.105-1.325 1.181-.374 1.884-1.106 1.563-1.625-.321-.52-1.115-.612-1.764-.206-1.794 1.121-3.681 1.227-3.681.206 0-.502.45-.912 1-.912s1-.482 1-1.071c0-.59.674-1.746 1.498-2.57 1.098-1.098 1.231-1.996.5-3.363-1.244-2.324-1.276-3.286-.083-2.549.503.311 1.142 0 1.421-.691.305-.758.537-.562.585.494.043.963.824 1.75 1.734 1.75 1.518 0 1.513-.156-.061-1.896-1.334-1.474-1.424-2.014-.405-2.424 1.036-.417.997-.75-.189-1.589-1.242-.878-1.113-1.063.75-1.076 1.238-.008 2.25-.465 2.25-1.015 0-.55 1.152-1 2.559-1 1.451 0 2.292-.433 1.941-1-.34-.55-.115-1 .5-1s.797-.52.405-1.155c-.473-.763-.271-.88.595-.345s1.068.418.595-.345c-.392-.635-.21-1.155.405-1.155s.874-.395.575-.878c-.298-.483.913-1.2 2.691-1.594 1.779-.393 2.672-.935 1.984-1.205-.687-.269-1.25-.929-1.25-1.465 0-.537.419-.717.931-.401.512.317 1.213.118 1.559-.441.345-.559.039-1.048-.681-1.086-.822-.044-.705-.324.312-.75 1.435-.602 1.475-1.251.35-5.647-.7-2.732-1.744-5.124-2.321-5.316-.678-.226-.736-1.177-.164-2.681 1.3-3.418.025-4.354-3.297-2.422M164 343.795c-1.375.218-3.043.842-3.706 1.387-.664.545-1.658.711-2.21.37-.551-.341-1.884-.069-2.962.604-1.561.975-2.281.957-3.541-.089-1.142-.948-1.581-.984-1.581-.13 0 .649-.45.903-1 .563-.55-.34-1-.141-1 .441s.374 1.059.831 1.059c.457 0 1.433 1.125 2.169 2.5s1.726 2.5 2.2 2.5c.474 0 2.266 1.53 3.981 3.399 2.491 2.714 3.411 3.168 4.565 2.25 4.321-3.437 6.254-5.768 6.254-7.545 0-1.092.45-2.264 1-2.604 1.534-.948 1.187-2.5-.559-2.5-.857 0-1.3-.419-.984-.931.79-1.278-.481-1.747-3.457-1.274M46.02 437.476c-.696.838-1.917 1.524-2.714 1.524-1.239 0-1.231.218.059 1.507 1.056 1.057 1.329 2.602.913 5.168-.522 3.216-.378 3.577 1.184 2.978 1.194-.458 2.425.061 3.748 1.582 1.706 1.962 1.757 2.308.38 2.588-.875.178-1.59.816-1.59 1.417 0 .601.259.834.575.518.317-.316 1.892-.198 3.5.264 2.769.794 2.925.679 2.925-2.158 0-3.999-1.658-6.933-3.515-6.22-1.79.687-2.02-1.26-.235-1.985.967-.392.938-.725-.128-1.471-.758-.53-1.069-1.465-.691-2.076.682-1.104-.605-1.539-3.377-1.142-1.219.175-1.236-.046-.108-1.405.737-.887 1.114-1.838.839-2.113-.275-.275-1.069.186-1.765 1.024" fill="#d3d3d3" fill-rule="evenodd"/></svg>