<svg xmlns="http://www.w3.org/2000/svg" width="500" height="664"><path d="M237.668 1.133c-1.007.581-2.694.832-3.75.556-1.055-.276-1.918-.099-1.918.393s-.787.828-1.75.748c-5.484-.46-8.178.195-7.549 1.834.407 1.059.244 1.42-.446.994-.596-.369-1.265-.128-1.486.535-.254.761-.643.579-1.054-.494-.359-.934-.216-1.699.316-1.699 2.59 0 .546-1.526-2.283-1.706-2.681-.169-2.986.005-1.748 1 1.408 1.132 1.589 2.599 1.071 8.706-.178 2.107-.325 2.213-.93.676-.396-1.003-1.101-1.752-1.568-1.665-1.041.196-2.537-2.039-2.558-3.82-.008-.72.435-1.031.985-.691 1.461.903 1.225-3.081-.25-4.221-1.609-1.243-14.484-.945-15.795.366-.549.549-1.191 5.466-1.427 10.926-.236 5.461-.08 9.062.347 8.002 1.455-3.614 2.299 1.205 2.351 13.427.041 9.471.182 10.53.8 6l.749-5.5-.137 6.157c-.078 3.455.259 5.911.767 5.596.497-.309.602-.074.233.523s-.213 1.368.346 1.714c.559.345 1.016.151 1.016-.431S202.45 48 203 48s1 1.099 1 2.443c0 1.392.957 3.114 2.223 4 1.222.856 1.784 1.558 1.25 1.558-.535.001-1.05 1.914-1.145 4.25-.139 3.447-.017 3.777.65 1.749.777-2.362.828-2.317.922.809.06 1.972-.304 3.059-.9 2.691-.55-.34-1-.141-1 .441s.403 1.059.895 1.059 1.067 1.8 1.276 4c.21 2.2.074 4-.301 4-.376 0-.682 2.363-.679 5.25.002 2.888-.256 6.392-.575 7.789-.465 2.042-.185 2.568 1.437 2.69 1.771.133 1.937-.264 1.37-3.289-.421-2.243-.259-3.44.466-3.44.611 0 1.125-1.463 1.141-3.25.025-2.576.231-2.906.998-1.593.63 1.079 1.72 1.46 3.126 1.092 1.479-.386 1.934-.2 1.443.593-.393.637-.238 1.158.344 1.158s1.123-.787 1.201-1.75c.078-.963.422.05.764 2.25.373 2.401 1.116 3.9 1.858 3.75 1.548-.313 1.703 8.01.201 10.816-.724 1.352-.713 1.934.035 1.934.722 0 .756.588.105 1.804-.59 1.102-.61 2.366-.051 3.25.504.795.922 2.485.931 3.755.008 1.282.46 2.034 1.015 1.691 1.24-.766 1.329 4.494.13 7.685-.552 1.468-.388 4.144.448 7.315.725 2.75 1.097 5.752.828 6.67-.27.919-.736 2.719-1.037 4l-1.077 4.594c-.418 1.784-.187 2.133 1.089 1.643 1.758-.674 2.261 1.078.603 2.103-1.495.924-.169 2.498 1.548 1.839.807-.309 1.468-.102 1.468.461 0 .563-.446 1.173-.991 1.357-.546.183-1.094 1.571-1.218 3.083-.239 2.888-1.274 3.618-2.129 1.5-.277-.687-.54.625-.583 2.917-.047 2.463.432 4.373 1.171 4.671 1 .403 1 .52 0 .583-1.574.099-1.7 7.683-.143 8.645.774.478.892-.294.393-2.566s-.381-3.044.393-2.566c1.427.882 1.449 6.566.025 6.566-.594 0-.129 1.541 1.035 3.424 1.296 2.097 2.234 5.521 2.42 8.835.168 2.976.629 5.935 1.025 6.576.396.641.341 1.165-.122 1.165-1.286 0-.769 5.336.559 5.778.641.214 1.158 1.139 1.15 2.055-.012 1.317-.196 1.382-.875.31-.609-.961-.86-.608-.86 1.209 0 1.41.506 2.471 1.125 2.356 1.263-.234 1.523 1.447 1.935 12.542.158 4.263-.098 7.75-.57 7.75s-.58.45-.24 1c.34.55.141 1-.441 1s-1.059.862-1.059 1.917c0 1.054-.523 2.091-1.163 2.304-1.466.489-1.624 1.464-2.792 17.279-2.063 27.946-2.124 30.918-.737 35.527.743 2.471 1.161 5.066.927 5.767-.233.7.07 1.868.673 2.595.695.837.886 3.848.521 8.216-.317 3.792-.593 14.657-.614 24.145-.022 9.849-.435 17.25-.962 17.25-.526 0-.478.833.112 1.934 1.306 2.441 1.319 3.359.035 2.566-.567-.351-1 .49-1 1.941 0 1.407.403 2.559.896 2.559.894 0 .733 4.826-.351 10.5-.453 2.373-.375 2.582.371 1 .797-1.69.952-1.458.998 1.5.041 2.612-.19 3.12-.914 2-.928-1.436-1.584 2.445-1.183 7 .072.825.218 3.206.323 5.291.131 2.592.479 3.383 1.1 2.5.573-.813.677.113.281 2.503-.345 2.086-.3 4.786.102 6 .725 2.19.735 2.188 1.454-.294.61-2.109.742-1.874.839 1.5.086 2.998.361 3.624 1.099 2.5.876-1.333 1.094-1.333 1.97 0 .793 1.208.987 1.041 1-.857.01-1.564-.436-2.184-1.326-1.842-.948.363-1.38-.487-1.47-2.893-.127-3.38 1.097-4.56 2.239-2.158.327.688.414.267.194-.935-.226-1.233.191-2.413.956-2.707 1.879-.721 2.995 1.415 1.3 2.488-.998.633-1.033.878-.128.889.688.008 1.25.492 1.25 1.074 0 .582-.447.783-.993.445-.556-.343-.952.401-.9 1.691.11 2.715.079 38.938-.037 43.305-.226 8.489-.052 15.476.49 19.663.353 2.726.14 5.53-.513 6.75-.778 1.454-.793 2.087-.047 2.087.728 0 .757.586.09 1.831-1.14 2.132-1.301 29.746-.189 32.6 1.02 2.619.147 7.251-1.02 5.411-.641-1.011-.893-.849-1.022.658a245.25 245.25 0 01-.444 4.5c-.15 1.375-.52 6.159-.823 10.63-.303 4.472-1.01 9.338-1.571 10.815-.562 1.477-1.028 4.343-1.036 6.37-.012 2.747-.262 3.303-.985 2.185-.862-1.333-.978-1.333-1.048 0-.043.825-.525.382-1.07-.983-.655-1.643-.653-3.223.004-4.666.769-1.689.645-2.317-.549-2.775-.85-.326-1.308-1.209-1.019-1.963.289-.753.021-1.874-.596-2.491-.829-.829-.815-1.122.053-1.122.785 0 .966-1.047.544-3.155-.451-2.256-.302-2.952.525-2.441.636.393 1.156.275 1.156-.262 0-.536-.464-1.13-1.032-1.319-1.21-.404-1.541-8.443-.484-11.772.5-1.575.381-2.085-.377-1.617-.625.386-1.107.019-1.107-.844 0-.997.607-1.336 1.75-.977 1.534.482 1.565.386.25-.781-1.023-.908-1.527-3.4-1.585-7.832-.081-6.205-1.79-8.921-2.03-3.227-.241 5.699-.693 6.59-1.385 2.727l-.716-4-.142 4.143c-.097 2.822.327 4.323 1.328 4.707 2.258.867 1.33 9.85-1.289 12.469-1.382 1.382-2.215 1.667-2.54.869-.266-.654-.519.105-.562 1.684-.067 2.444.145 2.687 1.421 1.628 1.229-1.02 1.5-.951 1.5.378 0 .892.505 1.622 1.122 1.622.78 0 .746.454-.111 1.487-.726.875-.917 2.214-.464 3.25.424.97.633 2.213.465 2.763-.168.55-.46 5.5-.648 11-.658 19.157-2.259 30.792-4.542 33l-2.067 2 .556-3.732c.307-2.054.107-4.01-.445-4.351-.551-.341-.788-1.177-.527-1.859 1.147-2.987-1.089-3.691-3.2-1.007-1.538 1.954-2.139 2.259-2.139 1.084 0-.899-.439-1.635-.975-1.635-.55 0-.713 1.308-.375 3 .488 2.44.266 3-1.192 3-.985 0-1.538.253-1.229.562.309.309-.03 3.11-.754 6.224-.724 3.114-1.108 5.998-.854 6.41.254.411-.249 1.833-1.118 3.159-.869 1.327-1.51 2.802-1.423 3.279.086.476.044 1.991-.093 3.366-.212 2.115-.364 1.96-.987-1-.495-2.351-.816.602-.979 9-.286 14.74-.143 17.115 1.125 18.661.603.737.596 1.381-.022 1.762-.535.331-1.179-.192-1.432-1.161-.253-.969-.512-.337-.576 1.405-.064 1.741.393 3.336 1.014 3.543.622.207 1.237 2.259 1.366 4.56.152 2.682-.135 3.953-.8 3.542-.667-.412-.763.041-.269 1.274.421 1.053.913 2.589 1.093 3.414.18.825.396 1.5.48 1.5.334 0 .998 4.182 1.158 7.292.093 1.811.525 3.512.959 3.781.435.268 1.096 3.184 1.468 6.48.373 3.295 1.069 6.233 1.547 6.528.477.296.868 2.22.868 4.278 0 4.917 1.371 6.092 7.45 6.382 2.778.133-32.075.474-77.45.759-52.251.328-.095.606 142.25.759L500 664V-.032L381.75.32C316.712.514 260.125.723 256 .786s-9.525-.071-12-.298c-2.475-.228-5.324.063-6.332.645M204.616 193c-.352 2.2-.972 4-1.378 4-.406 0-.787 1.463-.847 3.25-.568 16.939-1.233 21.206-2.729 17.5-.353-.876-.564-.802-.703.25-.11.825-.986-2.325-1.946-7l-1.747-8.5.001 8.5c.002 17.521-.256 21.565-1.274 20-.65-.999-.826 2.836-.528 11.489.288 8.334.111 12.455-.493 11.5-.698-1.104-.945-1.148-.957-.168-.008.727.66 1.997 1.485 2.822 1.333 1.333 1.516 1.075 1.644-2.322.526-13.969.946-16.564 2.44-15.07.321.321.835 2.456 1.142 4.745.352 2.622.851 3.688 1.35 2.881.436-.705.57-1.64.299-2.079-.271-.439-.129-.797.316-.796.445.002.721-3.486.614-7.75-.134-5.308.071-6.964.65-5.252.815 2.41.849 2.385.945-.685.055-1.752.499-4.234.986-5.516.911-2.397 2.6-35.799 1.81-35.799-.242 0-.728 1.8-1.08 4m160.307 133.75c-.042 3.163-.257 6.65-.478 7.75-.221 1.1-.483 6.275-.583 11.5-.099 5.225-.366 8.712-.594 7.75-.228-.962-1.169-1.743-2.091-1.735-1.448.014-1.472.148-.177.985.825.533 1.011.976.414.985-.657.009-1.109 2.481-1.145 6.265-.032 3.438.151 5.231.408 3.985.256-1.245.823-2.044 1.26-1.774 1.09.674.069 5.539-1.161 5.539-.636 0-.738 3.542-.285 9.88.501 7 .375 10.085-.432 10.583-.777.481-.921 2.633-.453 6.77.473 4.178.356 5.862-.375 5.41-.583-.36-1.288-.09-1.567.601-.278.691-.549-.994-.6-3.744-.063-3.345-.39-4.534-.987-3.591-.49.775-.66 2.013-.377 2.75.282.738.016 1.341-.593 1.341-.639 0-1.152-2.008-1.213-4.75-.059-2.613-.207-5.425-.329-6.25-.123-.825-.3-2.587-.394-3.917-.431-6.096-1.428-.232-1.213 7.142.133 4.551.253 12.1.268 16.775.015 4.675.476 9.063 1.023 9.75.676.849.636 1.25-.127 1.25-.617 0-1.122.9-1.122 2s.45 2 1 2 1 .675 1 1.5-.48 1.5-1.067 1.5c-.611 0-.797.852-.436 1.991.776 2.446-.382 4.814-1.483 3.032-.53-.858-.906-.748-1.343.393-.423 1.102-.031 1.584 1.287 1.584 1.042 0 2.101.788 2.353 1.75.251.962.578-.05.725-2.25.219-3.257.393-2.793.936 2.5.366 3.575.331 7.455-.08 8.623-.436 1.241-.278 2.591.381 3.25.674.674.723 1.127.122 1.127-.552 0-.937 2.009-.854 4.464.083 2.455-.23 4.228-.695 3.941-.465-.288-.846.816-.846 2.453 0 1.636.462 3.129 1.026 3.317.564.188 1.426 3.938 1.915 8.334l.889 7.991-.165-6.752c-.091-3.714.142-6.864.518-7 .77-.28 1.594-6.783 1.803-14.248.117-4.155.298-4.608 1.071-2.68.512 1.276.873 4.812.803 7.858-.071 3.046.315 5.827.856 6.18.541.353 1.241 1.317 1.555 2.142.314.825.562-.525.55-3-.017-3.797-.155-4.109-.881-2-.534 1.554-.701-1.852-.438-9 .231-6.325.488-14.65.569-18.5.148-6.985.15-6.99 1.065-2.5.504 2.475 1.076 7.875 1.272 12 .195 4.125.429 7.5.519 7.5.346 0 1.384 15.13 1.2 17.5-.536 6.9-.13 18.843.73 21.5.919 2.839.982 2.731 1.175-2 .113-2.75.169-5.285.126-5.632-.762-6.08.191-12.841 1.967-13.966 1.085-.688 1.006-.875-.375-.887-2.008-.017-2.489-4.44-.609-5.602.813-.503 1.002-5.609.656-17.809-.266-9.407-.164-15.529.228-13.604 1.411 6.935 1.511-41.756.107-52.155-.397-2.94-.416-6.829-.043-8.643.373-1.814.656-11.939.628-22.5-.027-10.561-.221-16.389-.431-12.952-.356 5.826-1.452 7.921-2.618 5-.275-.687-.343.663-.151 3 .191 2.337-.072 4.25-.585 4.25-.832 0-1.436-12.07-.963-19.25.1-1.512-.302-2.75-.894-2.75-.633 0-1.106 2.362-1.152 5.75M188.754 574.579c-.376.376-.234 1.525.316 2.552.678 1.266.666 1.869-.035 1.869-.569 0-1.091-.562-1.16-1.25-.229-2.288-1.726 7.683-1.801 12-.041 2.337.301 4.25.759 4.25.918 0 .91 2.969-.013 4.518-1.66 2.787-1.838 7.222-.34 8.466 1.243 1.031 1.457 2.639 1.031 7.727-.354 4.215-.19 6.209.475 5.798.558-.345 1.014-2.599 1.014-5.009s.45-4.66 1-5c.583-.361 1-6.01 1-13.559 0-7.961-.385-12.941-1-12.941-.55 0-.993-.788-.985-1.75.013-1.496.157-1.532.985-.25.74 1.146.956.791.914-1.5-.067-3.661-1.23-6.85-2.16-5.921" fill="#d3d3d3" fill-rule="evenodd"/></svg>