<svg xmlns="http://www.w3.org/2000/svg" width="500" height="715"><path d="M33.497 38.25c.354 14.988.81 31.75 1.013 37.25.203 5.5.397 12.222.43 14.939l.06 4.938 2-2.147c2.413-2.59 2.496-3.23.42-3.23-1.856 0-1.731-11.065.131-11.684.651-.217.895.99.641 3.167-.256 2.187.016 3.517.718 3.517.709 0 .906-1.02.528-2.75-.419-1.921-.309-2.337.365-1.378.531.754 1.552 1.176 2.269.937.936-.312.687-1.05-.884-2.621-2.156-2.156-2.85-5.193-1.496-6.547.381-.381.84-1.693 1.019-2.917.18-1.223 1.105-2.814 2.058-3.536 1.63-1.235 1.618-1.396-.21-2.75-1.068-.791-2.418-1.445-3-1.453-.583-.009-.45-.402.294-.873C41.35 60.163 39.812 56 37.965 56c-1.762 0-.998-3.912.969-4.965 2.598-1.39 3.066-1.31 3.066.524 0 .857.375 1.327.833 1.044.459-.283.632-1.891.385-3.572-.355-2.416-.133-2.936 1.056-2.479.971.372 1.311 1.353.958 2.763-.526 2.107-.475 2.123 1.442.433 2.513-2.215 3.509-1.256 2.783 2.68-.311 1.69.051 4.872.806 7.072.829 2.417 1.297 7.44 1.182 12.692-.143 6.519.148 8.821 1.162 9.211 1.427.547 1.561 8.582.143 8.592-.413.003-.679.343-.591.755.087.413-.189 1.545-.614 2.517-.424.971-.491 2.996-.148 4.5 1.261 5.522 1.462 6.866 2.034 13.563.321 3.756 1.031 7.664 1.577 8.684.545 1.02 1.037 3.572 1.092 5.67.084 3.24.205 3.438.796 1.316 1.413-5.073 2.175 1.128 2.265 18.426.177 33.929.79 68.157 1.29 72.074.444 3.483 2.267 63.333 2.847 93.487.242 12.564.794 13.099 13.782 13.356 4.355.086 7.919.521 7.919.966.001.445.527.484 1.171.086.779-.482.963-.184.551.89-.4 1.041.022 1.816 1.19 2.187 1.883.597 3.089 7.353 3.089 17.297 0 3.709.238 4.278 1.391 3.321 1.096-.909 1.998-.551 4.25 1.686 1.572 1.562 3.647 3.137 4.609 3.501.963.363 1.75 1.287 1.75 2.053 0 .946.801 1.239 2.5.915 1.862-.356 2.5-.051 2.5 1.197 0 .922-.45 1.398-1 1.058-.55-.34-1 .139-1 1.063 0 1.279.316 1.419 1.318.588.972-.807 1.891-.693 3.5.434 1.2.841 2.182 1.301 2.182 1.024 0-.278 1.35-.034 3 .541 2.211.77 3 1.678 3 3.448 0 1.321.408 2.402.906 2.402.499 0 .653-.97.343-2.156-.387-1.478-.2-1.932.593-1.441.637.393 1.158 1.336 1.158 2.094 0 .762.894 1.311 2 1.228 1.1-.083 2-.591 2-1.13 0-1.688-8.046-8.569-10.837-9.267-3.783-.947-9.167-4.319-6.903-4.324 1.677-.004 1.962-5.184.424-7.721-.261-.431.124-1.335.854-2.01 1.071-.989 1.412-.795 1.759 1 .308 1.593.469 1.307.567-1.004.108-2.558.657-3.362 2.638-3.859 2.362-.593 9.613-8.393 7.832-8.425-.459-.009-.174-.433.632-.943.934-.59 1.942-.533 2.775.158 1.514 1.257 2.776.446 1.79-1.15a1.288 1.288 0 00-1.77-.402c-.719.444-.868.074-.431-1.066.369-.96.69-2.721.715-3.914.043-2.04.117-2.019 1.25.355 3.925 8.22 10.966 14.534 13.01 11.666.649-.91.966-.896 1.354.061.785 1.933 2.351 1.476 1.715-.5-.475-1.477-.394-1.516.516-.25.939 1.304 1.081 1.279 1.095-.191.02-2.251 1.789-3.241 3.401-1.904.714.593 1.557.819 1.873.503.825-.826-3.163-4.586-4.191-3.95-.472.292-1.127-.17-1.456-1.027-.334-.871-1.11-1.241-1.759-.84-.772.477-.89.278-.353-.591.464-.751.414-1.065-.118-.736-.52.321-.921-1.552-.915-4.275l.012-4.848 5.511-.587c3.03-.323 16.085-1.268 29.01-2.101 12.925-.832 28.225-1.95 34-2.483 16.304-1.504 21.006-1.328 20.83.78-.299 3.564.187 5.357 1.271 4.688.632-.391.851-1.927.515-3.609-.361-1.805-.208-2.695.399-2.32.542.335.985 1.797.985 3.25 0 3.136 1.457 1.951 2.369-1.926.402-1.707.178-2.849-.621-3.171-1.333-.538 1.989-.828 14.752-1.284 4.4-.158 9.658-.586 11.685-.953 2.027-.366 4.952-.248 6.5.263 3.958 1.305 8.709.221 9.154-2.09.326-1.692-.085-1.818-3.988-1.228-3.045.461-3.901.359-2.851-.34.955-.637 1.058-1.005.281-1.015-.67-.008-.959-.69-.643-1.515.317-.825.153-1.5-.364-1.5-1.715 0-2.272 1.297-1.143 2.658.856 1.031.73 1.342-.54 1.342-.91 0-1.91-.668-2.224-1.486-.461-1.2-.927-1.057-2.435.75l-1.865 2.236-.034-2.25c-.019-1.319-.654-2.25-1.533-2.25-2.08 0-1.876-.875.686-2.95 2.407-1.949 3.092-1.847-8.058-1.19-1.991.117-2.173.381-1.128 1.64 1.96 2.362-.616 1.828-2.874-.595-1.398-1.501-2.579-1.896-4.164-1.393-1.565.497-2 .359-1.488-.47.398-.644 2.104-1.03 3.791-.857 1.952.201 3.235-.19 3.531-1.074.255-.764.023-1.117-.516-.784-1.606.993-3.367-3.551-2.535-6.542.584-2.101 1.094-2.5 2.255-1.765.88.557 1.011.956.318.965-1.505.019-1.017 5.282.538 5.8.629.21 1.144-.556 1.144-1.702 0-2.811 3.948-2.792 6.365.03 1.328 1.552 2.105 1.817 2.922 1 1.554-1.554 2.756-1.389 2.112.288-.295.771-1.499 1.653-2.675 1.961-2.663.696-1.913 1.562 1.607 1.853 1.468.122 2.669.6 2.669 1.062 0 .463.516.522 1.146.133.81-.501.945.092.46 2.025-.449 1.789-.327 2.511.354 2.09 2.098-1.297 1.2-6.355-1.21-6.819-1.814-.35-1.669-.472.75-.633 2.827-.188 2.871-.252.75-1.104-2.298-.924-3.079-4.339-1.25-5.469.55-.34 1 .293 1 1.406 0 3.658 5.177 5.218 8.559 2.579 1.852-1.446 1.819-1.488-.7-.919-2.94.664-4.959-1.268-2.751-2.633 1.084-.67 1.132-1.458.233-3.84-.846-2.241-.842-3.1.014-3.408.63-.226.783-.797.341-1.269-.443-.472-1.254-.196-1.804.613-.803 1.181-.928 1.077-.636-.529.199-1.1.899-1.888 1.553-1.75.655.137 1.191-.131 1.191-.597 0-.466.842-1.818 1.871-3.005l1.872-2.158.628 3.926c.345 2.159.36 4.748.034 5.755-.458 1.41-.366 1.51.399.434.816-1.146 1.056-1.073 1.345.406.335 1.721.418 1.718 1.851-.047 1.333-1.643 1.333-1.753 0-.996-.825.469-1.196.514-.825.101.371-.413.091-2.69-.622-5.059s-.958-4.855-.544-5.525c.988-1.599-1.482-6.29-3.466-6.582-.854-.125-1.299.183-.989.685.31.502.135.912-.389.912s-.889-1.125-.809-2.499c.092-1.593.74-2.5 1.787-2.5 2.341-.001 2.579-1.634 1.314-9.001-.706-4.108-1.322-5.764-1.676-4.5-.308 1.1-.414-1.375-.237-5.5.241-5.591.128-6.482-.445-3.5-.575 2.989-.77 1.473-.773-6-.003-6.47.281-9.117.803-7.5.552 1.707.668.913.368-2.5-.301-3.418-.137-4.525.516-3.5.933 1.463 1.361-.539 1.336-6.25-.004-.963.396-1.75.889-1.75s.611-.9.262-2c-.364-1.147-.18-2 .433-2 1.91 0 1.124-2.043-1.104-2.868-1.438-.532-1.776-1.047-1-1.526 1.462-.904 1.51-4.104.101-6.736-.807-1.508-1.392-1.732-2.383-.909-.983.815-1.472.678-1.942-.547-.452-1.179-.205-1.474.884-1.057.916.352 1.511.014 1.511-.857 0-.93.588-1.212 1.664-.799 1.119.43 1.427.256.941-.531-.398-.644-1.371-1.17-2.164-1.17-1.981 0-1.81-1.999.309-3.608 1.069-.811 1.263-1.341.5-1.36-.687-.018-1.25-.42-1.25-.893 0-.474 1.029-.665 2.286-.425 1.787.342 2.285-.016 2.285-1.638 0-1.142-.304-2.076-.677-2.076-.372 0-.959-1.122-1.303-2.494s-1.154-2.384-1.799-2.25c-.645.134-1.354-.587-1.575-1.603-.321-1.478.016-1.714 1.691-1.182 2.518.799 2.515 1.098.09-9.471-2.085-9.085-2.214-33.095-.182-33.772.534-.178.744-1.193.466-2.256-.277-1.063.416-3.699 1.542-5.86l2.048-3.927-2.436-.612c-1.34-.336-2.436-1.24-2.436-2.009 0-.768-.562-1.624-1.25-1.902-.77-.31-.6-.534.441-.583.93-.043 1.974.378 2.319.937.968 1.566 2.494.123 2.458-2.325-.044-3.051-2.539-6.07-4.42-5.348-.964.37-1.548.04-1.548-.874 0-.808.505-1.469 1.122-1.469.77 0 .726-.478-.138-1.519-1.032-1.244-.929-1.885.572-3.543 1.784-1.971 1.775-2.039-.362-2.598-1.207-.315-2.194-1.001-2.194-1.524 0-.523.836-.685 1.859-.361 2.937.932 4.431-1.794 3.801-6.936-.314-2.566-.144-4.519.393-4.519.521 0 .94-.787.932-1.75-.013-1.448-.174-1.5-.932-.302-2.003 3.166-4.186-11.682-3.499-23.793.468-8.251.34-10.317-.569-9.155-.998 1.276-1.085 1.226-.579-.332.327-1.007.626-3.257.664-5 .061-2.737.197-2.896.997-1.168.657 1.418.756.764.342-2.25-.35-2.542-.185-4.25.409-4.25.547 0 .773-1.013.502-2.25-.411-1.875-.297-2 .688-.75 1.015 1.29 1.102 1.255.618-.25-.31-.963-.127-1.75.405-1.75 1.765 0 1.004-2.998-.781-3.079-1.045-.047-1.247-.282-.5-.583.688-.278 1.25-.937 1.25-1.465s-.562-.888-1.25-.798c-3.014.391-4.155-.24-2-1.106 1.238-.498 2.25-1.369 2.25-1.937 0-1.397-13.556-1.34-16.186.068-1.131.605-1.807.698-1.504.207.303-.49-.317-.957-1.379-1.037-1.062-.08-1.931.276-1.931.792s-.477.938-1.059.938-.801-.417-.486-.927c.341-.552-3.941-.855-10.581-.75-9.525.151-11.316.439-12.264 1.969-.894 1.443-.697 2.124 1.013 3.5 3.98 3.202.675 12.365-3.524 9.769-2.036-1.258-4.098.698-3.999 3.796.081 2.554.221 2.744.75 1.012.63-2.065.793-2.084 5.287-.64 3.585 1.152 4.645 1.976 4.67 3.631.052 3.405 1.397 8.079 2.54 8.821.608.395-.015 1.166-1.482 1.835-2.662 1.212-3.78 6.984-1.353 6.984.648 0 1.983.889 2.967 1.976.983 1.087 2.178 1.736 2.655 1.441.476-.294.866.167.866 1.024 0 .916-.928 1.607-2.25 1.675-1.712.088-1.829.226-.488.576.969.253 1.458.951 1.087 1.553-1.624 2.628-1.028 13.735.827 15.414 2.214 2.004 2.347 3.926.324 4.703-3.493 1.34-7.5-3.434-7.5-8.935 0-2.202-.251-2.464-1.429-1.486-2.155 1.788-2.005 12.163.164 11.33.954-.366 1.339-.199.959.415-.397.642.344.838 1.985.525 2.038-.39 2.439-.192 1.809.894-.445.767-.464 1.085-.042.705 1.088-.979 3.4 1.427 2.822 2.935-.265.69-1.221 1.287-2.125 1.325-1.264.054-1.182.253.357.862 1.1.435 2.563.58 3.25.323.935-.351 1.25 1.563 1.25 7.607 0 6.767-.243 7.982-1.5 7.5-1.162-.446-1.5.236-1.5 3.031 0 1.984.468 3.607 1.039 3.607.6 0 .494.59-.25 1.395-.709.767-1.595 1.21-1.97.984-.374-.227-.966.05-1.314.613-.348.564.408 1.443 1.681 1.953l2.314.928-2.25.064c-1.238.034-2.25-.462-2.25-1.104 0-.641-.299-.867-.665-.502-.365.366-1.423-.571-2.349-2.083-1.594-2.599-1.584-2.878.179-5.151 1.024-1.321 1.666-2.6 1.424-2.841-.821-.822-4.62.884-4.045 1.816.316.51-.097.928-.918.928-.82 0-1.768.871-2.106 1.936-.338 1.064-1.38 2.119-2.317 2.342-1.307.313-1.064.67 1.047 1.54 2.613 1.076 3.813 3.182 1.813 3.182-.515 0-1.077 1.457-1.25 3.239-.28 2.898-.712 3.302-4.114 3.85-2.09.337-4.243 1.055-4.783 1.595-1.215 1.215-.136 4.316 1.502 4.316 2.068 0 5.852 4.13 4.773 5.209-.537.537-.74 2.734-.452 4.883.356 2.649.141 3.908-.666 3.908-.655 0-.913.45-.573 1 .34.55.141 1-.441 1s-1.059-.605-1.059-1.345c0-1.88-3.289-4.655-5.517-4.655-1.787 0-1.783.077.078 1.952 4.345 4.374 4.668 5.07 3.651 7.859-.539 1.479-1.563 4.714-2.276 7.189-.713 2.475-1.778 5.136-2.366 5.913-.777 1.026-.732 1.526.165 1.828 1.638.551-.879 5.546-3.839 7.619-1.163.815-1.902 2.08-1.641 2.811.881 2.468-1.216 4.829-4.29 4.829-1.631 0-2.965-.477-2.965-1.059s-.45-.781-1-.441-1 .141-1-.441-.9-1.059-2-1.059c-2.94 0-2.437-1.318 1.101-2.884 1.706-.755 2.718-1.653 2.25-1.995-1.732-1.264-5.351-7.091-5.351-8.614 0-.866 1.555-2.492 3.456-3.613 1.9-1.122 3.735-2.922 4.078-4 .342-1.079 1.559-2.834 2.703-3.9l2.08-1.938-2.908.09c-1.6.05-3.9-.235-5.112-.632-1.948-.639-2.179-.393-2 2.132.182 2.556-.147 2.887-3.151 3.175l-3.353.321.715-5.321c.877-6.517 1.33-7.106 7.193-9.345l4.674-1.784-3.827-3.213-3.826-3.212.164-7.884c.091-4.336.668-9.435 1.282-11.331.731-2.256.891-7.445.462-15-1.227-21.589-1.786-23.962-6.968-29.552-2.251-2.428-3.563-5.633-4.135-10.096-.538-4.207-2.05-7.078-4.384-8.327-1.411-.756-1.86-2.361-2.035-7.273-.373-10.488-5.712-16.221-11.88-12.758-2.989 1.677-4.403 5.852-6.252 18.454-.645 4.4-1.575 8.491-2.066 9.092-.491.601-.597 1.388-.235 1.75.362.362-.092.658-1.008.658-1.445 0-1.4.267.333 2 2.528 2.528 3 2.51 3-.118 0-1.165 1.385-3.695 3.077-5.622 2.878-3.278 3.029-3.837 2.337-8.632-.948-6.566-.77-8.839 1.024-13.135 2.288-5.474 7.362-4.708 8.845 1.336.428 1.745.213 2.192-.856 1.781-1.739-.667-1.79-.163-.233 2.329 1.553 2.487-.27 6.784-3.362 7.927l-2.185.809 2.177.569c1.561.408 2.176 1.336 2.176 3.285 0 2.03.315 2.468 1.25 1.733 2.431-1.912 7.534 1.299 8.692 5.47 1.475 5.311 1.395 6.793-.291 5.393-.742-.616-4.282-1.337-7.867-1.603l-6.518-.483 3.617 3.911c2.788 3.015 4.19 3.811 6.117 3.472 4.737-.832 6.45 1.795 6.845 10.495.205 4.521-.111 8.712-.747 9.901-.754 1.407-.775 2.263-.069 2.7 1.157.715.942 17.482-.224 17.482-.393 0-.973-1.688-1.289-3.75-.317-2.062-1.012-5.132-1.546-6.821-1.308-4.139-1.229-4.742.53-4.067.825.316 1.5.139 1.5-.393 0-.533-.97-.969-2.155-.969-2.107 0-2.114-.045-.305-2.045 1.935-2.138 3.007-5.955 1.673-5.955-.426 0-1.301 1.395-1.945 3.1-.661 1.753-1.723 2.915-2.443 2.675-1.523-.508-3.029-6.931-1.897-8.087.917-.936-1.482-8.611-3.243-10.375-.652-.653-2.505-1.328-4.118-1.5-3.537-.377-5.013 3.132-3.022 7.187.675 1.375 1.762 5.096 2.416 8.268l1.188 5.769 1.855-2.269c2.865-3.505 4.373-1.095 4.44 7.098.041 5.075.384 6.753 1.306 6.399.688-.263 1.25.046 1.25.687s-.45.888-1 .548c-.592-.366-1 .77-1 2.782 0 1.87-.676 5.609-1.501 8.309-2.031 6.639-1.063 12.945 2.639 17.194 1.574 1.806 2.898 4.281 2.941 5.5.043 1.218.306 1.653.583.965 1.151-2.852 2.338-.917 2.338 3.809 0 3.091.386 4.821.992 4.446.546-.337 1.783-.153 2.75.41 1.571.915 1.516 1.027-.517 1.055-1.506.02-2.604.897-3.25 2.595-1.648 4.336-1.121 6.318 2.847 10.707 5.554 6.143 6.546 9.35 5.932 19.187-.417 6.681-.95 8.835-2.638 10.647-1.164 1.249-2.116 2.836-2.116 3.526 0 1.943-3.883 4.201-6.315 3.671-1.298-.283-1.739-.137-1.086.36 2.355 1.794 1.209 9.337-1.418 9.337-.98 0-2.321.54-2.981 1.2-.933.933-1.2.711-1.2-1 0-1.21-.971-3.171-2.158-4.358l-2.158-2.158.644 2.408c.355 1.324.651 2.772.658 3.217.008.445.436.548.951.23 1.204-.744.404 4.216-1.18 7.312-1.005 1.963-.925 2.553.484 3.583 1.255.918 1.541 2.134 1.116 4.752-.433 2.671-.184 3.666 1.036 4.135.884.339 1.607.18 1.607-.352 0-.533 1.125-.969 2.5-.969 2.801 0 3.486-1.933.75-2.118-.963-.066-2.088-.066-2.5 0-.412.065-.75-.332-.75-.882s.787-1.015 1.75-1.033c1.461-.028 1.355-.363-.642-2.025-2.749-2.29-2.246-3.466 1.095-2.559 3.208.87 9.352 6.656 7.973 7.508-.72.445-.275 1.695 1.296 3.643 3.071 3.809 5.642 1.995 4.797-3.385-.37-2.358-.78-2.951-1.382-2-.658 1.039-.86.933-.872-.458-.008-.995-.399-1.572-.869-1.281-.469.29-1.344-.548-1.943-1.863-.797-1.751-1.645-2.244-3.17-1.845-2.051.536-2.055.499-.307-2.562 1.86-3.256 3.976-3.663 5.941-1.143.815 1.045.854 1.876.128 2.75-.77.928-.554 1.257.833 1.268 1.543.013 1.614.179.401.946-.809.512-1.219 1.183-.91 1.491.922.922 5.119-3.258 4.415-4.397-.357-.578.029-2.021.86-3.207l1.509-2.155 1.096 2.404c.603 1.321 2.199 2.923 3.548 3.559 2.807 1.323 3.081.685.988-2.302-.805-1.15-1.143-2.448-.75-2.883.393-.435.083-.425-.69.023-.944.548-1.17.437-.69-.339.392-.635.236-1.155-.346-1.155s-1.066.563-1.074 1.25c-.011.905-.256.87-.889-.128-.48-.758-1.373-1.069-1.984-.691-2.276 1.406-1.012-2.239 1.795-5.176 2.103-2.201 3.209-2.739 4-1.948 1.391 1.391 1.383.552-.028-2.992-.616-1.548-1.306-4.319-1.534-6.157l-.412-3.343 3.528 3.843c1.941 2.113 3.569 4.067 3.618 4.342.048.275.307 1.625.574 3 .268 1.375.717 4.75.998 7.5.448 4.387.991 5.361 4.43 7.942 4.096 3.075 4.945 5.227 2.438 6.189-1.575.604-1.726 5.369-.17 5.369.502 0 .648 1.631.325 3.624-.324 1.993-.324 3.359 0 3.035 1.576-1.576 8.326 6.37 8.326 9.801 0 1.413-2.418.279-4.179-1.96-1.081-1.375-2.833-2.5-3.894-2.5-1.06 0-1.927-.675-1.927-1.5 0-1.816-1.635-1.991-2.338-.25-.38.942-.524.951-.583.035-.043-.668-1.047-1.733-2.231-2.366-1.858-.995-2.062-.92-1.499.548.429 1.118.224 1.556-.598 1.279-.688-.232-1.264-1.391-1.279-2.576-.016-1.184-.353-2.157-.75-2.162-.397-.004-1.172-.008-1.722-.008s-1 1.125-1 2.5.388 2.5.862 2.5c.475 0 .737 1.143.584 2.54-.22 2.004.535 3.054 3.576 4.974 3.206 2.024 3.907 3.067 4.166 6.209.299 3.615.455 3.766 3.649 3.511 3.009-.239 3.185-.113 1.793 1.279-.85.85-1.302 2.319-1.006 3.266.435 1.387.225 1.334-1.082-.274-1.391-1.712-1.753-1.783-2.549-.5-.581.936-.564 1.621.045 1.83.536.185.721.746.411 1.247-.834 1.351-6.603-1.883-9.271-5.197-1.278-1.587-2.783-2.885-3.346-2.885-.563 0-2.298-.908-3.856-2.017l-2.832-2.017-.322 2.257c-.327 2.29-3.42 3.663-4.777 2.121-.408-.464-.42-4.444-.026-8.844.68-7.61-.439-12.747-2.359-10.827-.923.923-.827 4.327.122 4.327.43 0 .871 1.077.98 2.393.154 1.866-.293 2.394-2.032 2.398-1.227.003-3.805.411-5.73.908-5.023 1.295-6.994.581-7.666-2.78-.737-3.683-2.103-3.775-2.518-.169-.361 3.141 1.193 9.953 3.564 15.622 2.068 4.943 2.098 4.817-1.072 4.444-2.025-.238-2.893-1.06-3.502-3.316-1.359-5.037-4.172-7.961-6.41-6.662-1.686.979-1.705 1.105-.172 1.132 1.93.034 4.166 3.817 5.262 8.901.447 2.076 1.454 3.562 2.62 3.867 2.346.613 2.372 1.158.144 2.944-1.536 1.231-1.017 1.342 4.25.905 3.3-.274 12.3-.696 20-.936 7.7-.241 21.762-.773 31.25-1.183 12.669-.547 17.25-.443 17.25.393 0 .627-.787 1.146-1.75 1.154-1.388.012-1.464.197-.368.891 1.941 1.229-1.225 2.145-6.675 1.931-2.317-.091-4.511.134-4.876.499-.366.365.536.664 2.002.664 2.557 0 2.595.076.917 1.839-1.197 1.259-2.145 1.536-3 .878-.829-.638-1.25-.584-1.25.161 0 .617.411 1.122.913 1.122 1.326 0-1.085 5.852-2.66 6.456-.731.281-1.585-.157-1.898-.973-.313-.816-1.196-1.483-1.962-1.483s-1.393-.45-1.393-1-.637-1-1.417-1c-.779 0-1.643-.563-1.921-1.25-.301-.747-.536-.545-.583.5-.043.962.596 1.75 1.421 1.75.825 0 1.5.756 1.5 1.679s1.632 3.173 3.626 5l3.625 3.321-4.875.116c-2.682.064-4.089.322-3.126.573.963.252 1.75.875 1.75 1.384 0 .51.477.927 1.059.927s.781-.45.441-1-.168-1 .382-1 1.278.45 1.618 1c.34.55.029 1.007-.691 1.015-.995.012-.967.232.116.918.889.562-1.751.759-7 .522-5.524-.249-7.392-.097-5.425.44 2.441.668 1.949.8-2.643.713-4.804-.092-5.593-.368-5.307-1.858.194-1.013-.272-1.75-1.107-1.75-.794 0-1.443.675-1.443 1.5s-.408 1.5-.906 1.5c-.499 0-.685-1.012-.414-2.25.409-1.865.295-1.994-.669-.75-.702.905-1.338 1.085-1.603.453-.242-.577-2.082-.856-4.093-.621-2.696.314-3.995-.041-4.956-1.356-1.243-1.7-1.337-1.695-2.026.121-1.205 3.18-3.041 4.606-3.704 2.877-.312-.811-.13-1.474.402-1.474.533 0 .969-.45.969-1s-1.366-1-3.035-1c-2.691 0-2.918.219-2 1.934 1.689 3.156 1.139 3.754-.98 1.066-1.67-2.118-2.122-2.271-2.962-1-.882 1.333-.997 1.333-1.038 0-.036-1.183-.261-1.13-1.065.25-.694 1.191-2.362 1.787-5.22 1.865l-4.2.115 3.981.765c2.189.421 4.552.546 5.25.278.698-.268 1.269.011 1.269.62s.536.995 1.191.857c.654-.137 1.322.65 1.482 1.75.16 1.1.055 1.49-.235.866-.358-.77-1.716-.87-4.233-.313-5.977 1.324-12.705-1.122-12.705-4.619 0-.037-2.925.232-6.5.597l-6.5.664 5.25.153c2.932.085 5.25.62 5.25 1.211 0 .582.563.735 1.25.34.688-.396.898-.333.469.139-.43.472.245 1.425 1.5 2.117 2.169 1.197-2.532 1.168-12.562-.078-1.014-.125-4.727.313-8.25.975-3.524.663-6.407.809-6.407.326 0-.483.62-.878 1.378-.878.757 0 1.912-.644 2.565-1.431s2.515-1.394 4.136-1.348c1.622.046 3.243-.21 3.602-.568.359-.359-2.01-.685-5.264-.723-3.832-.046-5.228-.34-3.961-.836 1.941-.759 1.941-.773 0-1.899-1.713-.993-1.459-1.157 2.044-1.322 3.976-.186 3.97-.191-1-.873-2.75-.377-3.961-.756-2.691-.843 1.27-.086 2.095-.503 1.834-.925-.261-.423 1.235-.606 3.324-.407 2.089.2 4.103-.129 4.475-.731.372-.602 2.899-1.094 5.617-1.094s4.942-.337 4.943-.75c.002-.413-3.598-.603-8-.424-4.401.18-8.002.742-8.002 1.25s-.477.924-1.059.924-.781-.45-.441-1-.084-1-.941-1-1.559-.477-1.559-1.059-.487-.758-1.083-.39c-.595.368-.379-.69.479-2.351.859-1.66 2.134-3.249 2.833-3.531.699-.281-.304-.515-2.229-.52-2.729-.007-3.059.166-1.5.781 1.428.564.604.82-2.883.896-4.909.107-7.253 1.044-4.797 1.918.939.334.703.902-.815 1.965-1.174.822-2.43 1.2-2.791.839-.361-.361-.007-1.058.786-1.548s1.128-1.205.745-1.588c-.383-.383-1.342-.161-2.132.494-.978.812-1.641.857-2.083.143-.934-1.512-2.838-1.294-2.243.256.346.902-.526 1.334-2.825 1.399-5.127.145-5.24-2.392-.162-3.632 4.033-.985 3.961-1.007-1.8-.568l-6 .458 3.365-1.481c1.85-.815 5.225-1.542 7.5-1.617 2.774-.092 3.316-.289 1.645-.601-5.431-1.014-21.178.83-19.93 2.334 1.279 1.541-.106 1.956-1.63.488-.522-.504-2.075-1.117-3.45-1.364-2.449-.44-2.444-.451.25-.585L97 289l-.175-11.75c-.096-6.462-.347-9.838-.557-7.5-.371 4.118-.492 4.25-3.885 4.25-1.925 0-3.26-.39-2.966-.866.294-.476 1.559-.763 2.809-.638 1.251.126 1.48.033.509-.205-.97-.239-1.475-.902-1.122-1.474.978-1.583-1.764-2.806-3.822-1.705-1.417.758-1.594 1.388-.804 2.864.557 1.041.984 2.71.95 3.708-.052 1.47-.236 1.388-.968-.434-.498-1.237-1.355-2.25-1.905-2.25-.551 0-.76-.629-.464-1.399.75-1.956-1.389-3.021-3.144-1.565-1.025.851-1.456.877-1.456.086 0-.617-.338-1.069-.75-1.004-2.295.363-5.25-.248-5.25-1.084 0-.585 2.767-.737 7.013-.385 6.073.503 6.933.373 6.417-.971-.328-.853-1.233-1.307-2.013-1.008-.779.299-1.417-.007-1.417-.68 0-.713-.799-1.014-1.914-.723-2.333.61-3.053-1.543-3.072-9.184-.008-2.979-.323-5.108-.7-4.73-.377.377-.579 2.742-.449 5.257.142 2.739-.15 4.332-.729 3.974-.531-.328-1.193-.031-1.472.66-.282.7-.575.371-.662-.744a41.256 41.256 0 00-.489-3.746c-.184-.96-.019-1.941.367-2.18 1.127-.696.482-30.804-.725-33.815-.604-1.508-.838-3.421-.52-4.25.322-.839.035-1.509-.645-1.509-.731 0-1.013-.805-.7-2 .287-1.1.067-2-.491-2-.557 0-.754-.675-.437-1.5.316-.825.179-1.5-.305-1.5s-.753-.787-.599-1.75c.182-1.133 1.039-1.665 2.429-1.509 2.002.225 2.048.089.686-2-1.638-2.51-1.854-9.033-.267-8.052.564.349.694.12.297-.523-.466-.753-.146-.928.937-.512 1.335.512 1.519 1.47.975 5.095-.462 3.084-.336 4.259.408 3.799.592-.366 1.077-2.875 1.077-5.576 0-3.795.317-4.787 1.399-4.372.769.295 1.696.056 2.059-.532.363-.587.223-1.068-.31-1.068-1.063 0-.954-2.527.156-3.638 1.151-1.151.79-3.125-.875-4.791-.905-.904-1.093-1.571-.444-1.571.709 0 .55-.826-.428-2.223-1.147-1.636-1.607-5.129-1.746-13.25-.104-6.065-.35-8.487-.547-5.384-.338 5.341-.511 5.666-3.217 6.063-3.078.452-3.052.577-1.4-6.706.374-1.65.801-4.35.949-6 1.367-15.265 1.37-19.852.019-28.968-.817-5.518-1.766-12.282-2.108-15.032-.341-2.75-.815-5.675-1.052-6.5-.301-1.047.32-1.5 2.057-1.5 2.394 0 2.496.266 2.7 7 .116 3.85.273 8.8.349 11 .075 2.2.205 10.889.288 19.309.083 8.42.488 15.101.901 14.846.412-.254.623-12.431.468-27.059L75.936 99l-2.718-.116c-1.715-.073-2.068-.286-.956-.576.969-.253 1.509-.87 1.198-1.372-.31-.502.204-.618 1.142-.258 1.5.575 1.626.149 1.041-3.512-.52-3.249-.353-4.166.757-4.166.925 0 1.328-.875 1.149-2.5-.15-1.375.088-2.5.531-2.5.705 0 .445-3.914-.299-4.488-.154-.119-1.181-.72-2.281-1.334-1.956-1.093-1.952-1.118.188-1.148 1.572-.021 2.145-.6 2.035-2.055-.09-1.202-.674-1.824-1.438-1.531-1.106.425-2.013-5.835-1.403-9.694.065-.413-.491-.75-1.235-.75-1.021 0-1.236 1.227-.873 5 .452 4.705.343 5-1.847 5-1.757 0-2.045-.282-1.174-1.153.82-.82.853-1.715.115-3.093C68.196 65.629 69.62 62 72.519 62H75V50c0-7.333-.389-12-1-12-.609 0-1 4.5-1 11.5 0 10.736-.13 11.5-1.95 11.5-1.073 0-2.443.787-3.044 1.75-1.354 2.168-.839-1.021 2.139-13.25.536-2.2 1.237-6.7 1.558-10 .423-4.35.8-5.45 1.37-4 .625 1.59.801 1.295.857-1.441.067-3.286-.001-3.354-1.512-1.5-1.447 1.776-1.532 1.785-1 .109.32-1.007.618-2.582.661-3.5.049-1.039.269-1.197.583-.418 1.012 2.507 1.926 1.16 1.528-2.25-.225-1.925-.81-3.5-1.299-3.5-.49 0-.827-1.913-.749-4.25l.142-4.25.716 4 .716 4 .142-4.75C73.936 15.137 73.55 13 73 13s-1.007.563-1.015 1.25c-.011.847-.315.776-.946-.22-.898-1.421-14.756-2.681-32.363-2.943L32.853 11l.644 27.25m42.639-21c.075 2.337.331 3.238.57 2 .781-4.057 2.296-2.355 2.224 2.5-.053 3.574-.283 4.255-.93 2.75-.585-1.362-.882.418-.93 5.583-.038 4.171.243 7.897.626 8.279 1.3 1.3 1.433 4.128 2.527 53.481.887 40.057.85 49.494-.194 50.139-.964.596-1.105 2.488-.561 7.56.494 4.617 1.013 6.32 1.633 5.362.576-.89.834 1.706.704 7.096-.391 16.271.381 41 1.28 41 .516 0 .722-5.695.48-13.25-.234-7.288-.755-35.975-1.158-63.75-.402-27.775-.785-52.975-.851-56-.065-3.025-.217-17.087-.337-31.25L81 13h-2.5c-2.296 0-2.489.347-2.364 4.25M82 14.953c0 .541.629.743 1.399.447.769-.295 1.696-.056 2.059.532.386.625-.193 1.068-1.399 1.068-1.736 0-2.059.628-2.059 4s.323 4 2.059 4c1.132 0 1.793.43 1.468.956-.325.526-1.252.703-2.059.393-.892-.342-1.468.031-1.468.95 0 1.021.651 1.344 2 .991 1.118-.293 2-.031 2 .593 0 .615-1.013 1.146-2.25 1.18l-2.25.064 2.25.904c2.785 1.12 2.993 2.34.25 1.469-1.419-.45-2-.18-2 .933 0 1.014.902 1.567 2.559 1.567 1.56 0 2.301.417 1.899 1.068-.363.588-1.275.832-2.027.544-.752-.289-1.633-.094-1.958.432-.325.526.084.956.909.956.825 0 1.825.526 2.223 1.17.483.782.182.962-.909.544-.898-.345-1.938-.131-2.313.475-.452.731.171.938 1.856.616 1.911-.365 2.481-.092 2.309 1.105-.126.875-1.228 1.737-2.448 1.917-1.633.241-2.137.901-1.909 2.5.412 2.898 5.809 3.384 5.809.524 0-1.018-.562-1.858-1.25-1.866-.993-.012-.994-.178-.009-.804 1.587-1.008 1.511-14.106-.094-16.123-.884-1.112-.861-1.27.103-.691.782.47 1.25.179 1.25-.776 0-.84-1.237-2.198-2.75-3.019-2.506-1.36-2.558-1.495-.583-1.532 1.191-.022 2.393.523 2.671 1.21.277.688.54-1.017.583-3.787.077-4.9-.003-5.044-2.921-5.266-1.65-.126-3 .214-3 .756m13.505 27.774c.563 28.328 1.827 107.687 3.148 197.583l.674 45.811 3.586-.52c1.973-.285 9.123-.814 15.89-1.174 6.767-.36 12.156-.802 11.975-.982-.18-.18-2.566-.628-5.303-.995-2.736-.367-5.758-1.081-6.715-1.588-2.143-1.135-4.94-6.329-3.97-7.372.39-.42.035-.538-.79-.262-4.71 1.576-7.044-5.34-2.5-7.41 1.375-.626 2.5-1.48 2.5-1.897 0-.416.29-1.514.645-2.438.573-1.494.399-1.531-1.565-.332-3.019 1.843-6.336-1.96-5.92-6.787.196-2.272-.394-3.984-1.939-5.629-1.222-1.3-2.221-2.897-2.221-3.549 0-.653-.346-1.186-.768-1.186-.422 0-.743-2.812-.714-6.25.03-3.437-.271-6.712-.67-7.278-.591-.838-.518-5.42.205-12.972.053-.55-.18-2.283-.517-3.852-.339-1.579-.111-3.456.512-4.206.648-.781.77-1.902.288-2.648-1.716-2.656-1.227-16.126.683-18.814 1.506-2.121 1.583-2.804.484-4.307-.77-1.053-1.209-3.921-1.07-6.98.131-2.856-.191-5.753-.716-6.438-.524-.684-.698-2.219-.386-3.411.311-1.192.13-2.984-.404-3.981-1.23-2.298 2.367-3.462 6.196-2.007 4.143 1.576 5.816-.227 2.996-3.229-1.281-1.364-2.03-2.962-1.665-3.553.365-.591.202-1.074-.364-1.074-.565 0-.768-.675-.452-1.5.951-2.477-.498-5.294-1.786-3.472-.859 1.215-.943 1.167-.478-.278.31-.963.141-1.75-.374-1.75s-.678-.675-.362-1.5c.317-.825 1.6-1.5 2.852-1.5 1.435 0 2.47-.739 2.799-1.999.55-2.103-.842-3.841-1.499-1.871-.821 2.464-4.537-1.493-5.67-6.038-.63-2.526-1.339-5.379-1.575-6.342-.237-.962-.106-1.75.291-1.75.396 0 .622-1.763.502-3.918-.165-2.945.375-4.559 2.174-6.5 2.366-2.554 4.183-3.515 2.988-1.582-.34.55.11 1 1 1s1.34-.45 1-1c-.34-.55-.169-1 .379-1s1.014-.787 1.036-1.75c.022-.962.237-2.875.479-4.25s.477-2.795.523-3.156c.125-.984 4.083.25 4.083 1.273 0 .485.95.883 2.111.883h2.111l-2.199-1.78-2.199-1.781 1.996-2.465 1.996-2.465.844 3.258c.79 3.049.922 3.132 2.069 1.295 1.04-1.665.851-2.408-1.252-4.907-1.362-1.619-2.477-3.702-2.477-4.628 0-.926-1.8-3.52-4-5.765-2.2-2.244-3.986-4.571-3.968-5.171.017-.6.637-.293 1.377.682 1.671 2.202 2.555-.209 2.577-7.023.01-2.863.448-4.25 1.344-4.25 1.706 0 1.592-7.193-.122-7.764-.746-.249-1.208-2.476-1.208-5.819 0-3.146-.444-5.417-1.059-5.417-.582 0-.785-.443-.45-.985.377-.611-.55-.753-2.441-.375-3.123.625-4.215-.795-1.8-2.34 3.653-2.337 4.448-10.585 1.247-12.926-2.743-2.006-1.406-3.562 1.683-1.957 2.302 1.196 2.757 1.19 3.228-.037.301-.785 1.57-1.839 2.82-2.341 1.765-.709 1.876-.926.496-.976-1.653-.059-1.668-.271-.211-3.087.86-1.664 1.434-3.801 1.275-4.75-.363-2.173 6.816-2.699 7.637-.56.282.734 1.495 1.334 2.697 1.334h2.184L129 20c-1.268-1.1-2.939-2-3.712-2-.773 0-1.104-.489-.734-1.087.434-.703-.339-1.004-2.191-.851-1.575.13-3.988-.028-5.363-.35-1.375-.323-6.902-.85-12.283-1.172l-9.783-.585.571 28.772M452.697 14.7c-1.622.42-1.547.723.75 3.02 1.404 1.404 2.553 2.962 2.553 3.463 0 1.071-4.922-2.33-4.969-3.433-.017-.413-.733-.75-1.59-.75-.857 0-1.264-.477-.903-1.061.444-.719-.879-.881-4.107-.501-5.027.591-7.263 1.562-3.598 1.562 1.192 0 2.167.592 2.167 1.315 0 1.236 6.32 5.063 8.5 5.147 1.724.066 2.145 1.426 1.872 6.053-.146 2.478.18 4.485.729 4.485 1.41 0-2.35 4.931-3.789 4.969-3.142.083-11.358 10.459-11.233 14.185.043 1.29.307 1.781.585 1.09.279-.691.882-1.025 1.341-.741.459.283 1.323-.966 1.92-2.777 1.011-3.063 4.137-6.683 5.836-6.759 3.246-.146 7.492-6.877 6.748-10.696-.428-2.199-.356-2.358.349-.771.603 1.358.935-1.155 1.035-7.821.108-7.291-.157-9.634-1.028-9.095-.734.453-.907.293-.46-.429.736-1.192.369-1.253-2.708-.455m-18.51 23.05c.153 17.686.337 20.255.987 13.75.44-4.4.659-8.44.487-8.978-.934-2.919 1.929-3.081 3.025-.171 1.152 3.06 1.205 3.083 1.888.814.528-1.75.915-2 1.549-1 .608.958.851.7.862-.915.009-1.327.631-2.25 1.515-2.25.825 0 1.5-.675 1.5-1.5s-.562-1.507-1.25-1.515c-.858-.011-.794-.304.202-.934.799-.506 1.789-.711 2.2-.457 1.106.683 2.412-2.663 2.378-6.094-.024-2.441-.422-2.961-2.131-2.788-1.33.134-2.57-.664-3.377-2.17-.701-1.31-1.86-2.158-2.575-1.883-.92.353-1.131-.152-.719-1.726.514-1.965.271-2.166-2.073-1.718-1.822.348-2.655.08-2.655-.854 0-.748-.45-1.361-1-1.361-.642 0-.933 7.792-.813 21.75M419 18.055c-2.536.911-67.24 14.11-81 16.523-9.396 1.649-12 1.717-12 .314 0-.662.94-.873 2.333-.523 1.702.427 2.334.161 2.334-.983 0-1.205-.687-1.432-2.959-.978-1.627.326-4.082.592-5.455.592-2.107 0-2.303.235-1.253 1.5.685.825 2.202 1.507 3.372 1.515 1.316.01 1.682.3.958.76-1.235.786-1.872 34.84-1.511 80.857l.181 23.132 4 .055 4 .056v-28.379c0-18.716-.357-28.599-1.049-29.026-.711-.44-.722-1.041-.034-1.87.558-.672 1.142-6.342 1.298-12.599l.285-11.377 3.196-.827c2.961-.765 3.218-1.172 3.5-5.543l.304-4.718 5.604-1.238c19.588-4.329 65.432-12.048 66.009-11.115.425.688.956.556 1.52-.377.477-.789 3.117-1.855 5.867-2.37l5-.936.296-6.75c.316-7.209.108-7.455-4.796-5.695M208.09 20.09c-1.829 1.51-2.13 2.27-1.25 3.15 1.378 1.378 1.551 4.76.243 4.76-.504 0-1.066-.418-1.25-.928-.184-.513-1.431-.337-2.79.396l-2.457 1.324 3.957 1.098c5.399 1.499 9.511 1.435 8.943-.14-.748-2.074 3.1-6.091 6.902-7.204 5.067-1.484 3.343-3.208-3.888-3.885-5.04-.472-6.386-.243-8.41 1.429m83.181.002c.974.567 1.51 1.453 1.191 1.969-.319.517-.103.939.479.939s1.059.675 1.059 1.5.498 1.5 1.107 1.5.873.611.586 1.357c-.613 1.599 2.647 6.97 3.632 5.984.371-.371.675.102.675 1.051s-.41 1.472-.912 1.162c-.944-.583-.849.837.23 3.446.872 2.107 1.333 23.908.495 23.387-.73-.454-.06 4.404.798 5.793.279.451.03.82-.552.82-.582 0-1.059.675-1.059 1.5s.478 1.5 1.061 1.5c.687 0 .83 1.546.404 4.382-.419 2.796-.257 4.628.447 5.064 1.2.741 4.088-1.643 4.088-3.375 0-.589.613-1.071 1.361-1.071.911 0 1.204.823.886 2.488-.262 1.369-.874 2.242-1.361 1.941-.487-.301-.886-.07-.886.512 0 .582-1.125 1.059-2.5 1.059s-2.5.42-2.5.933c0 .513 1.238.911 2.75.884 1.512-.027 3.425.116 4.25.317 1.163.284 1.568-.815 1.802-4.884.243-4.208-.005-5.25-1.25-5.25-.853 0-1.552-.633-1.552-1.406 0-.912.7-1.224 1.989-.887 1.094.286 1.742.919 1.441 1.407-.302.487-.071.886.511.886.988 0 1.554-3.283 1.24-7.19-.075-.929.754-1.972 1.841-2.317 2.323-.737 2.93-8.942.728-9.831-1-.403-1-.52 0-.583.87-.055 1.22-1.981 1.15-6.329-.074-4.645-.305-5.608-.9-3.75-.874 2.731-1.309 1.915-1.066-2 .124-1.999-.051-2.199-.874-1-1.701 2.478-1.328 9 .513 9 .971 0 1.434.67 1.209 1.75-.415 1.994-3.516 1.976-7.674-.044-2.349-1.141-2.575-1.735-2.275-5.986.309-4.389-.973-6.438-2.171-3.47-.392.972-.522.963-.583-.042-.115-1.878 5.428-8.14 7.196-8.129 1.439.009 6.724-3.502 6.84-4.545.064-.569.176-1.67.25-2.448.074-.778.698-1.603 1.386-1.833.794-.267 1.029.158.643 1.163-.399 1.04-.056 1.584.999 1.584 1.494 0 1.959-.944 1.357-2.75a.792.792 0 00-1-.5c-.413.137-.75-.65-.75-1.75 0-2.817 1.263-2.488 3.842 1 1.22 1.65 2.897 3 3.727 3 1.104 0 1.226-.336.455-1.25-3.867-4.582-6.034-6.746-6.726-6.717-1.339.056-5.457 3.844-5.656 5.203-.23 1.562-3.642 6.56-3.642 5.333 0-.481-.788.029-1.75 1.135-.962 1.105-2.685 2.305-3.829 2.666-1.87.59-2.03.329-1.6-2.605.385-2.624.611-2.884 1.156-1.329.464 1.321.909 1.557 1.41.748.402-.651.485-1.583.183-2.07-.301-.488.365-1.125 1.481-1.417 1.643-.43 1.911-1.069 1.408-3.364-.433-1.975-.327-2.416.348-1.455 1.243 1.767 3.193.583 3.193-1.937 0-1.808-.77-1.939-11.25-1.911-8.216.023-10.772.309-9.479 1.062M245.82 92.55c-.099 39.023-.468 67.575-.82 63.45-.352-4.125-.668 13.875-.702 40-.036 27.481.28 45.457.751 42.652 1.135-6.766 2.138-7.189 1.426-.601-.906 8.381-1.068 29.949-.225 29.949.412 0 .75 1.125.75 2.5s.45 2.5 1 2.5c.564 0 1-2.833 1-6.5s.436-6.5 1-6.5c.55 0 1-.702 1-1.559s.45-1.281 1-.941c.55.34 1-.139 1-1.063 0-1.382.268-1.46 1.5-.437 1.307 1.085 1.515.361 1.618-5.628.091-5.274.296-6.174.882-3.872 1.153 4.531 1.285 3.456 1.973-16l.637-18 .195 15.75c.177 14.333.934 18.477 2.588 14.168.334-.87.607-6.693.607-12.941 0-6.969.412-11.614 1.067-12.018.587-.363.983-.052.881.691-.394 2.875.085 7.15.73 6.505 1.297-1.296 1.316-28.04.021-28.847-.755-.471-1.44.073-1.849 1.472-.531 1.812-.692 1.576-.878-1.28-.379-5.835-.657-7.681-1.318-8.751-.348-.562-.007-1.541.757-2.175.839-.696 1.28-2.621 1.115-4.863-.15-2.041-.075-2.696.167-1.456.383 1.957.63 2.065 1.874.821 1.642-1.643 1.92-4.576.433-4.576-.55 0-.993-.787-.985-1.75.012-1.34.214-1.438.861-.416.689 1.087.951 1.059 1.416-.152.786-2.049-.217-2.792-2.28-1.689-1.542.826-1.743.243-1.902-5.535-.154-5.602.059-6.456 1.606-6.443 1.003.009 1.346.337.784.75-1.622 1.192-1.622 3.235 0 3.235 1.405 0 2.161-3.717 1.628-8-.102-.825-.229-2.561-.282-3.857-.062-1.525-.366-1.919-.862-1.118-.538.872-.965.61-1.439-.884-.371-1.168-.393-2.577-.051-3.132.343-.555.281-1.564-.138-2.241-1.103-1.786-1.174-4.768-.112-4.768.5 0 .783-1.469.628-3.264-.155-1.796.062-3.821.482-4.5.441-.714.267-1.236-.412-1.236-.683 0-.956-.838-.652-2 .287-1.1.135-2-.338-2-.473 0-.994 3.038-1.156 6.75-.163 3.713-.412-15.384-.555-42.436-.143-27.232-.672-50.219-1.186-51.5-.621-1.549-.949 4.106-.992 17.103-.034 10.679-.245 19.229-.467 19-.222-.23-.708-9.417-1.081-20.417C257.47 23.605 256 28.261 256 62.467c0 16.426-.233 29.633-.519 29.348-.285-.286-.521-9.248-.523-19.917-.005-18.843-.069-19.45-2.232-21.211l-2.226-1.812 2.328.655c2.013.566 2.284.336 2-1.688-.18-1.288-1.003-2.648-1.828-3.022-1.228-.556-1.182-.692.25-.75 1.904-.076 2.39-2.556.706-3.597-.574-.355-1.645-.146-2.379.463-1.048.87-1.45.512-1.868-1.664-.637-3.316-.349-3.732 1.97-2.842 1.514.581 1.556.82.293 1.678-1.188.806-1.086.938.528.682 3.448-.547 2.576-4.29-1-4.29-2.932 0-3.007-.124-3.307-5.5-.169-3.025-.732-5.927-1.25-6.45-.591-.595-1.01 25.568-1.123 70M399 26.012c-8.156 1.529-25.138 5.011-32.842 6.733-1.642.367-1.961.759-1.069 1.31.811.501-.153 1.025-2.658 1.444-6.192 1.035-7.327 1.884-3.047 2.279 2.136.197 8.211-.439 13.5-1.415 5.289-.975 9.991-1.668 10.45-1.54.459.128 3.384-.421 6.5-1.22 3.116-.799 9.166-2.218 13.444-3.152 6.654-1.453 7.696-1.957 7.209-3.493-.38-1.197.027-1.951 1.221-2.261 4.629-1.202-4.109-.298-12.708 1.315m56.238 16.365c-.796 1.748-.773 2.705.089 3.613.92.968.687 1.088-1.077.555-2.122-.641-2.799.161-2.344 2.779.079.454-.318.54-.881.191-.564-.348-1.025.117-1.025 1.033 0 1.002-.548 1.456-1.374 1.139-1.963-.753-4.018 3.613-3.213 6.824.497 1.979.989 2.4 1.912 1.634 1.684-1.397 4.124.243 3.352 2.254-.338.881-.13 1.601.461 1.601.592 0 .803.713.468 1.584-.387 1.008-.153 1.426.643 1.151.699-.242 1.769.934 2.425 2.666 1.27 3.353 1.217 3.548 1.713-6.278.235-4.66.096-5.136-1.047-3.573-.726.992-1.497 1.612-1.713 1.377-.631-.684 1.224-4.927 2.153-4.927.465 0 .921-3.6 1.015-8 .185-8.714.059-9.17-1.557-5.623M225 46.8c0 1.54-.467 3.267-1.037 3.837-.692.692-.714 1.889-.064 3.597.535 1.408.697 2.836.36 3.174-.337.337.21 1.215 1.217 1.951 2.048 1.497 1.304 3.624-1.285 3.673-1.496.028-1.473.197.206 1.468 2.157 1.632 3.603 1.138 3.603-1.23 0-.887.691-2.376 1.535-3.309 1.175-1.298 1.339-2.605.699-5.578-.978-4.547-.564-7.367 1.089-7.422 1.006-.034-4.865-2.961-5.938-2.961-.212 0-.385 1.26-.385 2.8m182.734 4.633c-10.702 2.483-12.889 3.525-7.651 3.646 1.879.043 2.852.307 2.161.585-.691.279-.99.938-.664 1.465.326.527.048 1.614-.616 2.415-.851 1.025-.877 1.456-.086 1.456.617 0 1.175.788 1.24 1.75.065.962.462.4.882-1.25.746-2.932.768-2.91.985 1l.222 4 1.043-3.951c.723-2.736.724-4.058.003-4.298-1.48-.493-.296-4.251 1.339-4.251.971 0 1.19.842.767 2.955-.403 2.017-.078 3.469 1.025 4.572 1.488 1.488 1.616 1.26 1.616-2.872 0-2.677-.504-4.675-1.25-4.951-.687-.255 1.563-.801 5-1.213 4.263-.511 6.25-1.185 6.25-2.12 0-1.723-.412-1.688-12.266 1.062M420 54.559c0 .857-.45 1.281-1 .941-.643-.397-1 3.156-1 9.941V76h-2.883c-3.234 0-5.432 3.936-2.273 4.07 1.309.056 1.237.251-.344.93-1.469.631-.606.878 3.25.93L421 82v-9c0-5.333-.407-9-1-9-.55 0-.947-1.687-.882-3.75.118-3.732.122-3.736.882-.75.681 2.678.776 2.49.882-1.75.065-2.612-.107-4.75-.382-4.75s-.5.702-.5 1.559M206.805 70.528c-.836 1.835-1.375 2.178-1.963 1.25-.5-.788-.791.064-.759 2.222.049 3.244.132 3.335 1.137 1.25 1.351-2.801 3.78-2.945 3.78-.225 0 1.277-1.016 2.429-2.75 3.119l-2.75 1.094 3 1.031c1.65.567 3.331 1.526 3.735 2.131.404.605.741.682.75.172.008-.511 1.327.831 2.931 2.982 1.603 2.151 2.702 4.256 2.441 4.678-.261.422.215.768 1.059.768 1.234 0 1.343.502.559 2.565-1.409 3.706-1.282 3.986 1.915 4.23 3.606.275 5.455-4.338 2.582-6.439-.92-.673-1.376-1.702-1.014-2.288.402-.65-.186-.968-1.508-.817-2.258.259-3.033-.706-4.65-5.791-.628-1.971-.623-3.587.013-4.595.54-.856.655-2.856.256-4.446-.628-2.503-.856-2.658-1.697-1.155-1.245 2.225-3.468 2.231-4.319.012-.415-1.08-.01-2.2 1.084-3C212.246 68.1 212.209 68 210.17 68c-1.397 0-2.638.933-3.365 2.528M384.5 92.523c-2.75.707-4.386 1.328-3.635 1.381 1.089.077 1.033.602-.273 2.596-1.434 2.189-1.448 2.5-.115 2.5.838 0 1.523.765 1.523 1.7 0 1.322-.267 1.433-1.2.5-.66-.66-2.204-1.2-3.43-1.2-1.518 0-2.369-.719-2.664-2.25-.239-1.237-.501 0-.583 2.75-.083 2.75-.403 6.125-.711 7.5-.541 2.413-.506 2.432 1.014.559.866-1.068 1.574-2.98 1.574-4.25 0-1.399.599-2.309 1.519-2.309 1.121 0 1.355.655.892 2.5-.37 1.474-.198 2.5.418 2.5 1.272 0 1.182 4.017-.128 5.75-.627.828-.547 1.25.236 1.25.649 0 .903.45.563 1-1.052 1.702 1.046 1.108 4.602-1.304 2.128-1.443 3.329-3.031 3.214-4.25-.66-6.956-1.555-11.446-2.283-11.446-.465 0-.325-1.121.311-2.492s1.944-2.496 2.906-2.5c.962-.004 1.75-.458 1.75-1.008s-.113-.947-.25-.881c-.137.065-2.5.697-5.25 1.404M303.438 154.3c-.563 1.467 3.885 13.896 6.109 17.071.799 1.141 1.453 3.287 1.453 4.77 0 4.133 1.052 6.343 2.233 4.693.699-.976.793-.835.352.523-.867 2.666 1.17 9.398 3.57 11.798l2.049 2.049-.6-2.852c-.861-4.088.284-5.173 5.915-5.608 4.086-.314 3.678-.416-2.269-.564-7.1-.176-9.508-1.667-6.099-3.774.818-.505.694-1.046-.427-1.866-1.433-1.047-7.732-18.073-9.172-24.79-.62-2.89-2.267-3.656-3.114-1.45m-157.462 8.45c-1.769 4.99-2.573 5.766-5.589 5.396-2.859-.351-2.868-.335-1.013 1.714 3.008 3.325 2.197 12.17-2 21.791-1.81 4.152-1.744 5.201.626 9.85l2.001 3.923-2.751 2.199c-3.892 3.11-2.471 3.675 2.714 1.078 5.16-2.584 9.104-6.2 8.044-7.374-.411-.455-.996-2.469-1.299-4.477-.587-3.892 2.389-8.107 5.041-7.139.688.25 1.25-.074 1.25-.721 0-.648-.922-1.418-2.048-1.713-2.37-.619-2.236-3.069.253-4.636 2.455-1.546 6.762 2.692 6.895 6.783.193 5.955 1.132 7.633 3.356 5.995 1.929-1.421 1.925-1.464-.25-2.987-2.517-1.764-2.943-4.432-.706-4.432.825 0 1.5-.477 1.5-1.059s-.373-.828-.83-.546c-.456.282-2.116-1.522-3.687-4.009-1.918-3.033-3.398-4.38-4.5-4.092-.902.236-2.479-.183-3.503-.932-1.024-.749-1.368-1.362-.765-1.362 1.252 0-.495-7.053-2.009-8.111-.48-.336-.161-.884.71-1.218.871-.335 1.584-1.099 1.584-1.699 0-.599-.468-.801-1.04-.447-.675.417-.812-.266-.392-1.941.864-3.443-.358-3.315-1.592.166m276.607 18.775c-.66 2.63-2.66 5.015-6.406 7.638l-2.201 1.542 2.627 4.7c1.444 2.584 2.383 4.943 2.085 5.24-.298.298-1.92-1.863-3.605-4.802-1.893-3.301-3.068-4.598-3.074-3.393-.011 2.331-1.588.992-2.296-1.95-.333-1.384-.512-1.076-.582 1-.14 4.178 1.299 6.341 2.633 3.957.944-1.687 1.029-1.68 1.58.13 1.765 5.796 2.374 11.508 1.729 16.211-.4 2.914-.424 5.485-.053 5.714.37.229.717 1.67.771 3.202.053 1.532 1.411 8.595 3.017 15.695 3.742 16.549 4.307 31.258 1.134 29.56-1.099-.588-1.765-1.446-1.481-1.906.284-.46-.101-1.349-.855-1.975-2.687-2.23-2.779 1.918-.112 5.087 2.869 3.41 3.16 4.825.99 4.825-.834 0-2.267-1.575-3.185-3.5-.918-1.925-2.036-3.5-2.484-3.5-1.146 0-1.016 1.758.185 2.5 1.936 1.197 1.109 4.5-1.126 4.5-2.072 0-2.111-.267-1.508-10.396.527-8.843.388-10.484-.929-10.99-1.55-.595-4.437 4.467-4.437 7.781 0 .802-.788 1.664-1.75 1.916-1.122.293-.801.499.893.573 3.516.154 4.175 2.336 2.698 8.935l-1.226 5.479-16.058-.622c-18.283-.708-47.222-3.333-48.921-4.437-.625-.407 3.364-.989 8.864-1.295l10-.557-10.098-.193-10.098-.194-.152-8c-.084-4.4.256-8 .754-8 .499 0 .671-.9.384-2-.476-1.82.005-2.014 5.343-2.16 5.963-.163 4.972-.331-8.355-1.417-3.973-.324-7.164-.889-7.092-1.256.072-.367-.149-1.342-.493-2.167-.343-.825-1.733-4.425-3.089-8l-2.465-6.5-.069 8.809c-.05 6.223.256 8.607 1.042 8.122 1.882-1.164 2.644 1.473 2.793 9.666.172 9.463-.545 12.978-2.497 12.229-1.069-.41-1.408.443-1.408 3.548 0 4.896-.335 4.782 16.288 5.528 7.457.334 11.568.174 11.191-.437-.329-.531-2.569-.965-4.979-.965s-4.703-.52-5.096-1.156c-.519-.839.357-.974 3.191-.494 2.148.364 13.528 1.143 25.29 1.733 22.885 1.146 40.045 2.558 33.806 2.781-2.357.084-3.564.533-3.166 1.177.354.572 1.618.768 2.809.434 1.775-.497 1.895-.401.666.53-1.195.905-.83 1.054 1.794.733 1.812-.223 3.526-.03 3.809.429.283.458 3.434.833 7.003.833h6.487l-.485-26.75c-.515-28.333-.727-32.25-1.747-32.25-.351 0-.94-1.607-1.308-3.571-.369-1.964-.904-4.181-1.19-4.926-.348-.906.416-1.462 2.308-1.679l2.829-.324.144-16.75c.079-9.213.015-16.75-.142-16.75-.157 0-.57 1.136-.919 2.525m-27.388 6.612c-3.897 2.76-4.276 3.395-4 6.706l.305 3.657 4.5-.214c3.162-.15 4.054.068 3 .735-.825.522-1.05 1.009-.5 1.082 2.098.28-5.202 1.666-9.372 1.779-3.375.091-4.137.403-3.339 1.368.569.688 1.186 2.6 1.373 4.25.472 4.186 7.838 5.289 7.838 1.174 0-2.133.577-2.533 4.5-3.122 4.52-.678 5.287-1.342 3.577-3.102-1.499-1.544-4.22-13.423-3.555-15.519.771-2.428.83-2.445-4.327 1.206M82.883 206c-.34 1.375-.34 13.021 0 25.879.481 18.241.342 23.484-.633 23.857-.706.27-1.216 2.063-1.171 4.121.043 2.004.306 3.081.583 2.393.278-.687.944-1.25 1.48-1.25.537 0 .727.403.423.895-.305.493.082 1.139.858 1.437.776.298 1.649-.077 1.939-.832.29-.756-.01-1.563-.667-1.794-.657-.23-.457-.314.444-.185.902.129 2.252-.154 3-.628.955-.605.54-.867-1.389-.878-2.593-.014-2.757-.286-2.881-4.765-.072-2.613-.41-15.1-.75-27.75-.341-12.65-.897-21.875-1.236-20.5m242.133 1.5c-.039 1.66-.211 1.745-1.016.5-.808-1.25-.99-1.167-1.095.5-.252 3.986.279 6.216 4.516 19l4.309 13 7.798.295c5.556.21 8.039-.077 8.635-1 .68-1.052 1.001-1.04 1.712.062.65 1.008 1.062 1.054 1.601.182.4-.647 1.284-.961 1.966-.7.682.262 1.874.074 2.649-.416 1.255-.795-1.332-1.452-4.236-1.077-.354.046-.826-1.475-1.049-3.381-.222-1.906-.093-3.465.288-3.465s.972-.729 1.314-1.621c.478-1.246.156-1.498-1.393-1.093-1.108.29-2.015.119-2.015-.38 0-.498.788-.942 1.75-.985 1.113-.05 1.28-.268.458-.597-.901-.362-.983-.89-.271-1.748.699-.842.643-2.229-.178-4.403-1.658-4.393-2.269-3.975-2.303 1.577-.08 12.791-.692 16.249-2.877 16.261-1.144.006-3.836.301-5.984.656-3.042.502-3.73.361-3.111-.641.529-.856.333-1.132-.586-.825-1.965.655-3.823-1.546-4.552-5.393-.345-1.819-1.005-4.049-1.467-4.955-.651-1.278-.228-1.809 1.891-2.373 1.502-.4 2.168-.934 1.48-1.187-2.347-.863-1.151-7.293 1.357-7.293 1.6 0 1.967 6.015.46 7.55-1.399 1.425 1.334 4.617 3.306 3.86 1.222-.468 1.627-1.954 1.627-5.962v-5.338l4.75-.375c2.613-.206.167-.456-5.435-.555-11.223-.198-15.602-1.267-14.711-3.591.312-.811 1.226-1.613 2.031-1.782 1.275-.267 1.268-.567-.053-2.307l-1.518-2-.048 2m33.532 28.902c.539 2.875.363 3.598-.878 3.598-.853 0-1.836.46-2.183 1.021-.376.608.511.993 2.191.951 1.552-.039 7.659.241 13.572.622 7.804.503 10.75.38 10.75-.45 0-.629.477-1.144 1.059-1.144s.781.45.441 1c-.37.598.879 1 3.108 1 2.049 0 3.432-.293 3.074-.651-.358-.358.13-1.244 1.084-1.968 1.644-1.249 1.643-1.319-.016-1.349-.962-.018-1.782.531-1.82 1.218-.039.688-.457.35-.93-.75-.735-1.71-.87-1.746-.93-.25-.12 2.997-2.965 1.917-3.951-1.5-.594-2.058-.972-2.517-1.029-1.25-.094 2.086-5.074 3.062-5.105 1-.009-.55-.459-.325-1 .5-.876 1.333-1.094 1.333-1.97 0-.658-1.003-.989-1.086-1-.25-.016 1.361-4.722 1.659-9.89.625-2.123-.425-3.125-1.207-3.125-2.441 0-.999-.479-2.112-1.064-2.473-.72-.446-.846.503-.388 2.941M147 273.845c0 3.497-.123 3.554-4.806 2.211-2.935-.842-3.231-.749-2.721.858.662 2.085-1.151 3.866-5.159 5.069-1.915.575 1.098.873 9.436.931 6.738.047 12.249-.251 12.248-.664-.001-.413 2.741-.595 6.094-.406l6.095.343-2.14-2.343c-6.118-6.7-5.776-6.152-3.381-5.422 1.191.362 2.455.191 2.809-.381.392-.635-.552-1.041-2.416-1.041-2.485 0-3.072.422-3.129 2.25-.067 2.147-.11 2.158-.93.25-.473-1.1-.891-1.382-.93-.628-.058 1.136-.342 1.147-1.646.065-1.307-1.084-1.732-1.063-2.485.127-.739 1.169-.911 1.1-.924-.373-.008-1.021-.478-1.523-1.078-1.152-.585.361-1.935-.132-3-1.096-1.877-1.699-1.937-1.655-1.937 1.402m217.465 11.169c-2.918 1.093-5.237 3.986-3.194 3.986 1.55 0 2.729 2.005 2.729 4.641 0 .812-.454 1.197-1.008.854-.555-.343-1.427.418-1.937 1.691-.837 2.087-.934 1.966-.992-1.236-.061-3.461-1.492-5.95-3.418-5.95-.525 0-.21.823.7 1.829 1.757 1.942 2.292 4.683.724 3.714-.512-.317-1.214-.117-1.561.444s-1.689.755-2.983.43c-1.62-.407-3.001.059-4.438 1.496L347 299l3.75.015c2.491.01 3.293.305 2.389.878-.945.599-.258.991 2.25 1.284 1.986.232 3.611.076 3.611-.346 0-.423.765-.475 1.699-.116 1.017.39 1.23.809.53 1.042-.765.255-.488 1.122.801 2.505 3.684 3.955 2.16 7.67-3.042 7.411-3.168-.157-3.519.098-3.824 2.78-.185 1.624-1.085 3.522-2 4.218-1.797 1.366-1.792 1.372 1.654 1.75 1.971.217 2.23-.094 1.731-2.083-.751-2.989 1.227-3.089 4.844-.244 2.31 1.818 2.576 2.578 2.006 5.75-.986 5.496-1.507 6.074-4.399 4.882-2.108-.869-2.217-1.098-.697-1.462 3.456-.826-.212-3.276-4.675-3.122l-4.128.142 4 .62 4 .62-3.25 1.186c-4.075 1.487-4.212 3.29-.25 3.29 2 0 3 .5 3 1.5 0 .848-.895 1.5-2.059 1.5-1.132 0-1.805.412-1.494.915.311.503 0 1.109-.691 1.348-1.754.606-5.816-1.357-5.124-2.476.313-.506-.264-.778-1.282-.604-1.496.256-1.911-.427-2.169-3.573-.401-4.9-2.708-7.677-3.722-4.481-.413 1.303-.944 1.705-1.36 1.032-.398-.645-1.149.133-1.804 1.867-.617 1.635-.743 2.972-.281 2.972.461 0 1.045-.788 1.297-1.75.278-1.064.502-.659.573 1.032.064 1.53-.559 4.398-1.384 6.372-1.723 4.125-1.863 5.346-.611 5.346.488 0 1.186-1.588 1.55-3.528.364-1.94 1.089-3.264 1.612-2.941 1.34.829 1.184 6.224-.194 6.683-.85.284-.837.955.05 2.612.658 1.229 1.689 1.924 2.298 1.547.666-.411.821-.224.39.472-.451.73.044 1.155 1.346 1.155 1.392 0 2.059-.648 2.059-2 0-1.1.478-2 1.063-2 .584 0 .922.971.75 2.157-.172 1.186.313 2.37 1.078 2.63 1.353.461 1.269-.907-.416-6.787-.706-2.464 1.284-4.875 2.483-3.008.749 1.165 1.223 1.227 2.166.284.942-.942 1.444-.897 2.291.204.597.776 2.383 1.724 3.969 2.107 2.775.671 2.867.578 2.424-2.445-.32-2.176-.054-3.142.865-3.142.861 0 1.327-1.287 1.327-3.667 0-2.016.279-3.388.619-3.047 1.655 1.655 3.015-2.422 3.099-9.286.054-4.452.739-9.011 1.686-11.218 1.808-4.212 2.172-7.205.581-4.782-.876 1.333-1.094 1.333-1.97 0-1.329-2.026-1.281-3.666.069-2.316 3.072 3.072 9.212-5.395 6.962-9.599-.537-1.002-.654-2.178-.261-2.614.393-.435.083-.425-.69.023-1.007.585-1.175.445-.595-.494.569-.921.421-1.069-.5-.5-.809.5-1.066.416-.673-.22.374-.605-.434-1.03-1.959-1.03-1.427 0-2.882-.45-3.232-.999-.358-.563-1.524-.666-2.671-.237m-25.261 21.236c-1.506 2.94-2.2 3.634-2.254 2.25-.066-1.713-.223-1.641-1.095.5-.561 1.375-.776 4.341-.478 6.591.298 2.25.146 4.5-.338 5-.507.525-.313 2.176.46 3.909l1.339 3 .081-3.691c.093-4.216 1.716-5.969 2.383-2.574l.444 2.265.741-2.239c.407-1.231 1.139-1.992 1.627-1.691.487.302.886-.099.886-.89 0-1.288 1.837-2.316 7.25-4.055 3.309-1.063 2.031-3.625-1.809-3.625-2.118 0-3.309-.405-2.941-1 .34-.55.141-1-.441-1s-1.059.675-1.059 1.5-.43 1.5-.955 1.5c-.525 0-1.249 1.571-1.609 3.491-.674 3.589-2.436 3.915-2.436.45 0-1.068-.388-1.941-.861-1.941-.474 0-.693 1.238-.486 2.75.321 2.356.24 2.464-.569.75-1.246-2.641-1.401-7.55-.178-5.618.692 1.092 1.012.95 1.528-.674.359-1.131 1.745-3.666 3.079-5.632 1.567-2.309 1.973-3.576 1.147-3.576-.705 0-2.26 1.913-3.456 4.25m-221.075 14.932c.544 2.886-1.282 7.936-2.502 6.923-.745-.618-1.745-.642-2.661-.063-.996.63-1.065.932-.216.943.688.008 1.25.901 1.25 1.984 0 1.339-.48 1.784-1.5 1.393-1.068-.41-1.509.103-1.532 1.781-.031 2.327-.052 2.332-1.625.357-1.584-1.989-1.59-1.988-1.101.098.27 1.154-.108 3.179-.84 4.5-2.274 4.104-1.542 4.306 1.919.528 1.827-1.994 3.977-3.626 4.779-3.626s2.09-.876 2.861-1.946c.772-1.071 1.771-1.719 2.221-1.441.45.278.818-.34.818-1.374 0-1.033 1.153-2.881 2.563-4.107 3.655-3.177 2.992-6.531-1.372-6.95-2.32-.223-3.236.076-3.062 1m160.478 11.4c-.848 2.209-.761 2.631.393 1.918.55-.34 1-.141 1 .441s-.645 1.059-1.433 1.059-1.737.959-2.109 2.132c-.476 1.499-.904 1.765-1.442.893-.579-.937-.943-.952-1.492-.064-.441.714.07 1.381 1.306 1.705 1.327.347 1.854 1.104 1.519 2.183-.389 1.254-.103 1.171 1.194-.349 1.692-1.982 1.702-1.98 1.176.25-.293 1.238-.176 2.25.258 2.25s1.075 1.012 1.424 2.25l.634 2.25 1.982-2.361c1.091-1.298 1.983-3.012 1.983-3.809 0-.796.45-1.17 1-.83 1.585.98 1.161-2.482-.509-4.152-.83-.83-1.254-1.923-.941-2.429.312-.505-.021-.926-.741-.934-1.043-.013-1.033-.19.048-.875.834-.529.971-1.098.355-1.479-.552-.341-1.271.081-1.6.938-.329.857-1.078 1.261-1.665.898-.68-.42-.41-1.157.743-2.031 1.714-1.3 1.697-1.374-.333-1.404-1.179-.018-2.416.68-2.75 1.55M125 334c-1.333.862-1.333.973 0 1 1.241.025 1.262.181.122.904-.786.497-1.048 1.406-.611 2.114.494.799.289 1.082-.574.794-1.648-.549-4.937 2.127-4.937 4.017 0 .819-.612 1.15-1.498.81-.91-.349-2.113.364-3.064 1.816-1.448 2.209-1.406 2.719.553 6.718l2.12 4.327-.519-3.914c-.374-2.821-.216-3.61.569-2.825.599.599 1.089 2.212 1.089 3.585 0 1.848.422 2.362 1.625 1.98 1.42-.45 1.436-.365.125.674-1.276 1.011-1.222 1.098.361.583 1.336-.435 1.708-.206 1.319.808-.787 2.053.393 2.789 2.165 1.35 1.286-1.043 1.423-.956.859.547-.436 1.162-.122 1.998.897 2.389 1.237.475 1.292.771.262 1.408-.718.443-1.011 1.101-.651 1.461 1.168 1.167 2.788-.602 2.788-3.046 0-1.31.457-2.665 1.016-3.01.559-.346.715-1.117.346-1.714-.401-.647-.206-.797.483-.371.698.43 1.155.049 1.155-.963 0-1.183-.588-1.522-1.999-1.153-1.099.288-2.251.115-2.559-.383-.308-.498.37-.906 1.506-.906 1.852 0 2.037-.52 1.779-5-.286-4.951.02-5.402 3.434-5.067 2.056.201 3.404-1.768 2.101-3.071-.53-.53-1.931-1.037-3.113-1.126-1.883-.142-2.386-.964-2.064-3.374.241-1.799-3.047-2.679-5.085-1.362m215.5 32.879c-3.3 1.583-7.575 4.539-9.5 6.569l-3.5 3.69.159 13.181c.094 7.863-.18 12.374-.68 11.181-.501-1.194-.867 4.747-.909 14.75-.06 14.253.154 16.75 1.43 16.75 1.216 0 1.5-1.611 1.5-8.5 0-7.404.226-8.508 1.75-8.563 1.384-.051 1.297-.247-.419-.938-2.111-.851-2.156-1.242-1.707-14.687.8-23.89 2.093-27.027 13.31-32.281 2.786-1.305 5.066-2.746 5.066-3.202 0-1.114.283-1.203-6.5 2.05M143 365.377c0 .415.466 1.625 1.035 2.689.815 1.522.708 1.934-.5 1.934-.844 0-1.535.45-1.535 1s-.675 1-1.5 1c-2.053 0-1.881 1.214.539 3.811 1.121 1.204 1.571 2.189 1 2.189s-1.032.788-1.024 1.75c.013 1.496.157 1.532.985.25.862-1.333.974-1.333 1.015 0 .036 1.183.261 1.13 1.065-.25.561-.962 1.502-1.75 2.092-1.75.687 0 .625.539-.172 1.5-.685.825-.933 1.5-.551 1.5.939 0 2.931-2.067 4.335-4.5 1.035-1.792 1.157-1.637 1.17 1.5.01 2.334-.271 3.048-.844 2.143-.724-1.142-.994-1.142-1.706 0-1.389 2.227-1.555 5.068-.249 4.262.778-.481.993-.08.654 1.218-.678 2.59 2.013 5.268 3.281 3.265.707-1.116.882-1.056.895.303.026 2.946-2.123 3.156-4.461.436-1.241-1.445-2.767-2.627-3.39-2.627-.624 0-1.134-.394-1.134-.875s-1.341-1.143-2.98-1.471c-2.25-.45-2.824-1-2.346-2.247.542-1.411.321-1.383-1.52.193-1.389 1.189-2.119 2.92-2.054 4.872.097 2.959.118 2.971.9.528.44-1.375.845-1.992.9-1.371.111 1.251 5.863 3.941 6.68 3.124.284-.284 1.591.441 2.905 1.611 1.793 1.598 2.063 2.309 1.085 2.857-1.482.829-.903 5.87.803 6.976 1.43.929 2.72-1.253 2.037-3.447-.3-.962-.064-1.75.523-1.75s1.067.466 1.067 1.035c0 .702.644.691 2-.035 2.554-1.367 2.772-5.18.25-4.387-1.564.492-1.584.409-.188-.781.859-.733 1.857-2.12 2.219-3.082.361-.962 1.12-1.75 1.688-1.75.567 0 1.031-.45 1.031-1 0-1.552-2.136-1.182-4.328.75-1.917 1.689-1.966 1.672-1.423-.5.31-1.238.156-2.25-.343-2.25-.498 0-.906-.375-.906-.833 0-.999 3.04-.878 4.768.189.775.479 1.232.184 1.232-.797 0-.857-.436-1.559-.969-1.559-.532 0-.681-.749-.33-1.664.386-1.006.236-1.415-.38-1.034-.561.346-1.636-.592-2.39-2.086-.753-1.494-2.24-3.586-3.305-4.649-1.912-1.91-1.927-1.901-1.24.834.411 1.639.313 2.531-.241 2.189-.515-.318-1.204.122-1.533.979-.329.857-1.013 1.301-1.52.988-.506-.313-1.151-.004-1.432.687-.28.691-.42-.311-.311-2.227.148-2.588.835-3.804 2.675-4.735 1.362-.689 1.931-1.259 1.265-1.267-.666-.008-2.129-1-3.25-2.204-1.121-1.203-2.039-1.849-2.039-1.434m243.168 5.46c-.902 1.584-1.119 3.886-.671 7.141.634 4.608.546 4.845-2.168 5.833l-2.829 1.031 2.809.079c4.01.113 2.299 2.079-1.809 2.079-1.86 0-3.66.45-4 1-.34.55-1.293 1-2.118 1s-1.222-.45-.882-1c.362-.586-.695-1-2.558-1-2.848 0-3.126.258-2.697 2.5.263 1.375.141 2.5-.27 2.5-.411 0-.982 1.238-1.269 2.75-2.239 11.828-6.126 19.296-10.816 20.785-.971.308-1.693 1.434-1.612 2.512.187 2.473.566 2.448 3.408-.221l2.314-2.175v2.479c0 2.668-5.346 11.87-6.896 11.87-.517 0-1.652.273-2.522.607-1.359.521-1.582-.489-1.582-7.167 0-9.531-.964-9.146-1.846.74l-.654 7.32-4.322.311c-3.63.261-4.13.541-3.127 1.75.764.921.814 1.439.139 1.439-1.602 0-2.513-3.78-2.713-11.25-.14-5.228.138-6.75 1.23-6.75.776 0 1.158-.41.848-.911-.31-.501-1.276-.806-2.147-.678-2.172.318-2.84 15.299-.774 17.366 1.894 1.894 1.708 4.914-.384 6.198-1.332.818-.636.925 2.911.45 4.065-.545 4.805-.357 5.785 1.475.619 1.155 1.781 2.1 2.583 2.1 1.369 0 7.471 7.402 7.471 9.062 0 .419-1.238.616-2.75.437-3.587-.423-12.25 1.404-12.25 2.584 0 .504 1.012.986 2.25 1.069 1.238.084 2.7.257 3.25.385.55.128 1.563.284 2.25.348.688.063 1.25.979 1.25 2.036 0 1.744-4.776 3.898-7.25 3.269-.413-.104-.75.154-.75.575 0 1.784-20.312.249-23.779-1.797-3.675-2.168-7.904-1.654-13.221 1.608l-2.5 1.534 2.685-.404c3.548-.534 5.844.833 2.946 1.752-2.863.909-4.714 4.363-3.161 5.899.867.859 1.4.708 2.142-.607.543-.962 1.478-1.75 2.078-1.75 2.038 0 9.81 4.349 9.81 5.489 0 .623.9 2.1 2 3.281 2.867 3.078 2.521 4.566-2.126 9.121-3.227 3.163-4.505 3.842-5.863 3.115-4.772-2.554-13.15-15.337-10.742-16.391.83-.363.498-1.079-1.019-2.199-1.238-.913-2.286-2.393-2.329-3.288-.05-1.036-.262-1.174-.583-.378-.738 1.829-2.697 1.527-4.272-.659-.757-1.05-1.982-1.677-2.721-1.393-1.669.64-1.773-1.87-.145-3.498.933-.933.933-1.2 0-1.2-2.381 0-1.128-2.067 2.223-3.665 3.003-1.432 3.244-1.811 1.96-3.094-1.283-1.284-1.243-1.629.328-2.82 1.243-.943 1.375-1.367.431-1.389-.959-.023-1.168-.793-.71-2.617.617-2.46.547-2.514-1.456-1.111-1.158.811-2.914 1.263-3.903 1.005-1.779-.465-3.776 3.237-2.099 3.893.419.164 1.094 1.367 1.501 2.673.483 1.551.379 2.153-.299 1.734-.571-.353-1.301-.215-1.623.306-.322.521-.128 1.229.431 1.575 1.647 1.018 1.164 2.51-.813 2.51-1.254 0-1.805-.708-1.75-2.25.098-2.786-5.04-3.907-6.034-1.317-.33.862-.989 1.567-1.463 1.567-.473 0-.602-.675-.286-1.5.356-.926-.003-1.5-.937-1.5-1.021 0-1.344-.651-.991-2 .339-1.294 1.364-2 2.907-2 1.31 0 2.383-.436 2.383-.969 0-.532-.675-.709-1.5-.393-.825.317-1.5.078-1.5-.531 0-1.326 2.218-1.464 3.55-.221.522.488 1.85.52 2.95.071 1.76-.718 1.673-.825-.719-.887-3.002-.077-2.962-2.598.054-3.397.916-.243.401-.493-1.144-.557-1.545-.064-2.577.259-2.294.717.546.883-1.007 1.226-5.897 1.301-1.65.025-2.437.268-1.75.539 2.557 1.01 1.179 3.117-2.305 3.523-3.307.386-3.536.237-3.287-2.141.31-2.954-.872-5.35-2.227-4.512-.512.316-.945 1.561-.961 2.766-.028 1.969-.134 2.014-1.05.441-1.087-1.866-6.92-2.499-6.92-.75 0 .55-1.095 1-2.433 1-2.089 0-2.42.452-2.342 3.197.05 1.759-.43 3.371-1.067 3.584-1.554.518-1.482 2.227.092 2.187 2.556-.065 5.228-2.89 3.946-4.172-1.647-1.647-1.503-3.128.239-2.459.79.303 1.695.013 2.011-.643.317-.657.352-.069.079 1.306-.274 1.375-.504 3.252-.511 4.171-.009 1.03-1.141 1.918-2.957 2.316-1.922.423-2.762 1.118-2.421 2.007.376.979-.084 1.202-1.642.794-1.403-.367-1.753-.819-.995-1.288.825-.509.703-.901-.415-1.329-2.208-.848-1.98-4.407.376-5.878 3.584-2.238.163-4.353-6.388-3.95-5.217.32-7.073 2.117-2.263 2.19l2.191.034-2.361 1.966c-2.605 2.171-5.139 2.587-5.139.845 0-.81-.392-.798-1.404.043-.773.641-2.499.89-3.837.555-2.242-.563-2.397-.37-1.982 2.457.288 1.965.02 3.067-.747 3.067-.658 0-1.011-.558-.783-1.241.472-1.417-1.545-3.759-3.238-3.759-.624 0-1.055-.788-.957-1.75.413-4.057-.132-6.25-1.552-6.25-.923 0-1.5.938-1.5 2.439 0 2.14-.581 2.528-4.75 3.168l-4.75.73 3.5.945c3.276.885 3.356 1 1.25 1.8-1.603.608-2.241 1.654-2.22 3.636.026 2.373.181 2.525 1.05 1.032.597-1.025 2.138-1.717 3.72-1.671 1.485.043 2.138.306 1.45.583-.687.278-1.25.944-1.25 1.48 0 .537.419.717.931.401.512-.317 1.182-.169 1.489.327.306.496-.383 1.148-1.532 1.449-1.149.301-1.805 1.007-1.457 1.57.348.563 1.294.77 2.101.46.807-.309 1.468-.023 1.468.638 0 .66-.9 1.436-2 1.723-1.1.288-2 1.258-2.001 2.157 0 1.339.899 1.571 4.995 1.287 3.87-.268 5.133.013 5.607 1.25.337.878 1.638 1.596 2.892 1.596 1.253 0 3.456.611 4.895 1.357 2.526 1.311 2.404 1.38-3.533 2-3.381.354-7.714.643-9.627.643-3.31 0-3.45.141-2.894 2.921.634 3.168-5.666 11.135-8.15 10.307-.651-.217-1.184.344-1.184 1.248 0 .903-.412 1.388-.915 1.077-.503-.311-1.142 0-1.421.691-.405 1.006-.522 1.006-.585-.003-.058-.931-1.489-1.093-5.493-.622-6.868.807-12.586-.203-12.586-2.223 0-.89-.476-1.22-1.155-.801-.715.443-.883.275-.44-.44.392-.635.263-1.155-.287-1.155s-1.316.511-1.701 1.135c-.452.731-1.156.288-1.977-1.247-.892-1.668-.963-2.758-.235-3.635.722-.87.715-1.253-.024-1.253-.584 0-1.341.45-1.681 1-1.29 2.088-2.431.948-1.5-1.5.523-1.375.651-2.5.284-2.5-.366 0 .138-.588 1.12-1.306 1.457-1.066 1.685-2.25 1.237-6.411-.434-4.022-.226-5.228.986-5.693 2.205-.847 2.376-.76 1.744.884-.311.811.073 2.113.853 2.893 2.227 2.227 4.12-3.431 2.108-6.303-1.643-2.347-1.458-2.443 2.103-1.089 1.667.634 2.565.634 2.565 0 0-.536.477-.975 1.059-.975s.781.45.441 1 .309 1 1.441 1c1.392 0 2.059-.648 2.059-2 0-1.1.45-2 1-2s1-.45 1-1-2.137-1.01-4.75-1.022c-3.113-.015-5.606-.68-7.235-1.932-3.029-2.327-2.282-3.275 2.701-3.429 3.206-.099 3.833.227 4.104 2.133.193 1.362 1.015 2.25 2.083 2.25 2.625 0 3.281-1.145 1.43-2.498-1.115-.816-1.281-1.416-.521-1.886.613-.379 2.058.254 3.21 1.406 1.876 1.876 2.471 1.97 5.711.901 3.282-1.083 3.453-1.314 1.85-2.486-2.832-2.071-9.675-2.9-10.691-1.296-.618.975-.866.667-.877-1.091-.012-1.906-.282-2.183-1.215-1.25-2.993 2.993-4.895 1.436-4.335-3.55.293-2.613.99-9.7 1.549-15.75.559-6.05 1.287-12.012 1.618-13.25.485-1.814.191-2.25-1.515-2.25-1.803 0-2.117.593-2.117 4v4h-4.055c-2.308 0-7.154-1.329-11.25-3.084-6.036-2.588-8-2.987-12.195-2.478-2.75.334-5.562.672-6.25.751-.687.08-1.25.546-1.25 1.037 0 .49-.419.633-.931.317-.512-.317-1.213-.118-1.559.441-1.157 1.873-2.51 1.041-2.51-1.543 0-1.451.433-2.292 1-1.941.567.351 1-.49 1-1.941 0-1.407-.45-2.559-1-2.559s-1 .927-1 2.059c0 1.132-.45 1.781-1 1.441-.55-.34-1 .061-1 .891 0 .83-.607 1.869-1.349 2.309-.742.44-1.983 2.15-2.758 3.8-1.193 2.543-2.055 3.047-5.65 3.307l-4.243.308v-7.418c0-11.294-.961-16.974-2.637-15.583-1.026.851-1.775.792-3.029-.242-1.511-1.244-1.592-1.093-.871 1.628.828 3.127 1.283 10.602 2.207 36.306.582 16.17 1.667 19.908 2.307 7.944.214-3.996.27-4.071.942-1.25.393 1.65.419 7.95.057 14-.616 10.312-.667 10.515-.816 3.25-.088-4.262-.545-7.75-1.015-7.75-1.132 0-1.325 26.384-.231 31.5.755 3.529.871 3.057.986-4 .072-4.4.477-7.455.9-6.789 1.225 1.927 1.44 21.289.237 21.289-.57 0-1.11-1.238-1.199-2.75-.255-4.337-1.563 11.364-1.707 20.5-.072 4.538-.543 8.25-1.046 8.25-.834 0-2.375-11.66-2.406-18.206-.007-1.488-.347-2.499-.755-2.247-1.049.648-3.924-.578-3.924-1.673 0-.502 1.125-.63 2.5-.285 2.389.6 2.5.429 2.5-3.874 0-3.159-.466-4.68-1.563-5.101-.86-.33-1.284-1.053-.941-1.607.342-.554.033-1.014-.687-1.022-.964-.012-.914-.3.191-1.095 1.266-.91 1.227-.991-.25-.516-2.125.684-2.365-1.201-.256-2.01.822-.316 1.246-.976.941-1.469-.304-.492-.05-.895.565-.895s.835-.457.49-1.016c-.346-.559-1.047-.758-1.559-.441-.512.316-.931-.127-.931-.984s.338-1.506.75-1.441c2.211.35 3.25-.328 3.25-2.118 0-1.467-.667-2-2.5-2-2.794 0-3.499-1.955-.75-2.079.963-.043 1.235-.29.606-.548-.629-.258-.904-1.385-.611-2.505.396-1.514.74-1.702 1.339-.731.444.718 1.129.983 1.522.59s-.065-1.577-1.018-2.63c-1.642-1.814-1.643-1.967-.007-2.883 2.936-1.642.881-3.784-4.979-5.19-3.446-.826-5.602-1.874-5.602-2.723 0-1.13-.253-1.146-1.395-.09-1.813 1.675-1.078 2.789 1.84 2.789 1.973 0 2.424.648 2.958 4.25.885 5.977.446 83.986-.45 79.916-.404-1.833-.579-5.621-.389-8.418.19-2.796.063-5.542-.282-6.101-.345-.559-.539-6.791-.43-13.85.128-8.248-.219-13.614-.97-15.018-.872-1.63-.879-2.28-.025-2.565 2.245-.748 1.32-5.205-1.107-5.33-1.712-.088-1.829-.226-.488-.576.969-.253 1.505-.875 1.191-1.384-.314-.508-.106-.924.463-.924.696 0 .717-.836.062-2.557-.643-1.691-.634-2.349.025-1.941.548.339.997.139.997-.443 0-.582-.429-1.059-.954-1.059-.525 0-.753-1.575-.506-3.5.285-2.229.031-3.5-.701-3.5-.669 0-.437-.787.555-1.882 1.754-1.939 1.44-6.21-.654-8.868-.654-.83-.635-1.25.054-1.25.572 0 1.274.562 1.562 1.25.287.688.452-.239.366-2.06-.117-2.483-.539-3.186-1.689-2.815-6.429 2.074-6.033 2.291-6.033-3.317 0-3.196-.383-4.94-1-4.558-.55.34-1 .168-1-.382s.43-1.266.956-1.591c.526-.325.75-1.139.498-1.809-.252-.67-.605-11.537-.785-24.149-.314-22.04-.409-22.984-2.439-24.332-1.958-1.301-2.089-1.233-1.803.93.17 1.283.576 3.008.903 3.833.863 2.179 1.482 17.032 1.516 36.403.023 12.831.346 17.103 1.342 17.735.867.549.917.837.149.847-.685.009-1.017 1.144-.809 2.765.195 1.512.543 19.625.774 40.25.254 22.693.096 34.341-.4 29.5-.45-4.4-.899-14.907-.997-23.35l-.178-15.349-2.864-.998c-1.574-.549-2.863-1.405-2.863-1.901 0-1.132.28-1.126 3.435.073 2.916 1.109 2.923 1.097 1.558-2.494-.554-1.457-.707-3.135-.339-3.73.583-.943.52-7.199-.174-17.251-.348-5.042-.454-5.504-1.23-5.382-1.943.307-3.313-.208-2.793-1.049.317-.512.171-1.181-.324-1.487-.496-.306-.954-5.625-1.02-11.819-.066-6.195-.403-20.159-.748-31.032-.572-18.024-.484-19.714 1.004-19.143.897.344 1.631.163 1.631-.403 0-3.801-19.982-4.908-26.5-1.47-10.989 5.798-12.786 10.225-12.906 31.785l-.094 17-2.5.185c-1.375.101-1.734-.04-.798-.314 1.557-.457 1.65-2.24 1.093-20.905-.76-25.523.33-31.008 7.677-38.631 6.87-7.127 9.706-6.305 10.233 2.969.218 3.843.644 5.075 1.627 4.702.732-.278 1.419-.506 1.526-.506.107 0 .022-1.81-.189-4.022-.744-7.805.419-10.685 4.606-11.406 2.049-.352 4.962-.886 6.475-1.186 1.638-.325 2.75-.109 2.75.535 0 .593-.73 1.079-1.622 1.079-1.315 0-1.391.279-.402 1.472.672.809 1.558 2.947 1.969 4.75.41 1.803 1.089 4.347 1.508 5.653.525 1.638.417 2.163-.346 1.691-.609-.376-1.107-.207-1.107.375S92.675 392 93.5 392c1.172 0 1.503-1.368 1.515-6.25.022-8.719.687-9.512 6.642-7.919 5.889 1.575 7.343 2.733 7.343 5.85 0 1.341.408 2.185.907 1.877.498-.309.684.452.413 1.691-.396 1.808-.283 1.956.578.751.788-1.104 1.075-1.154 1.087-.191.008.72.465 1.031 1.015.691.55-.34 1 .084 1 .941s-.436 1.559-.969 1.559c-.532 0-.681.749-.33 1.664.467 1.216.278 1.441-.701.836-.992-.613-1.166-.374-.67.918.369.96.67 2.137.67 2.616 0 .479 1.125-.172 2.5-1.446 2.545-2.359 3.309-5.97 1.5-7.088-.55-.34-1-1.097-1-1.681 0-.671.554-.604 1.5.181.903.749 1.5.832 1.5.207 0-1.796-9.002-9.048-12.067-9.722-1.613-.354-2.933-1.096-2.933-1.648 0-.552-.562-.806-1.25-.564-.687.242-2.216.083-3.396-.352-3.135-1.157-18.279-1.28-22.354-.182-8.361 2.254-16.279 9.217-20.197 17.761-2.566 5.595-2.82 15.73-1.291 51.5 1.123 26.293 1.237 44.801.283 46.227-.5.748-.774-1.721-.663-5.984.104-3.991-.109-7.553-.472-7.916-.363-.363-.696-6.998-.739-14.744-.043-7.745-.336-13.408-.65-12.583-.314.825-1.066 1.831-1.671 2.235-.761.508-.715.739.15.75.765.009 1.205 1.277 1.134 3.265-.064 1.788-.323 2.457-.576 1.488-.253-.969-.883-1.501-1.4-1.181-.517.32-.651 1.05-.296 1.624.354.573.024 1.451-.734 1.95-1.137.748-1.072 1.142.372 2.248 2.488 1.907 2.171 2.556-1 2.049l-2.75-.44 2.145 1.831c2.068 1.765 2.078 1.873.279 2.996-1.537.96-2.222.782-3.894-1.014L42 464.623l.073 36.938c.04 20.317.409 39.301.821 42.189.411 2.888.486 5.25.165 5.25-.817 0-.566 12.37.279 13.738.382.618.331 1.348-.113 1.623-.444.274-.91 2.029-1.036 3.898-.251 3.731-.387 3.702 9.782 2.111 3.007-.471 3.225-.681 1.63-1.574-1.498-.838-1.585-1.201-.471-1.95.881-.592.027-.688-2.392-.27-3.148.545-3.665.397-3.166-.904.329-.855 1.347-1.75 2.263-1.988.916-.237.238-.298-1.507-.134-2.041.193-3.367-.209-3.719-1.126-.368-.959.179-1.447 1.672-1.494 2.052-.065 2.074-.127.285-.828-1.214-.475-1.524-1.01-.834-1.437 1.643-1.015 6.268 1.059 6.268 2.81 0 .884.886 1.525 2.107 1.525 1.445 0 1.929-.463 1.542-1.474-.312-.812.2-1.92 1.143-2.469 1.351-.788.911-1.003-2.108-1.027-2.098-.016-4.788-.551-5.977-1.187-2.113-1.131-2.118-1.175-.185-1.93 1.937-.756 1.935-.774-.072-.843-2.053-.07-4.45-1.807-4.45-3.225 0-.872 6.823-2.38 8.9-1.967 2.337.465 4.31 2.869 2.841 3.463-.683.275.166.537 1.887.58 4.615.117 6.252 2.569 2.664 3.991-2.665 1.056-2.618 1.085 1.025.649 8.525-1.021 11.548 3.946 3.678 6.044-5.85 1.56-2.662 1.745 3.912.227 6.015-1.388 11.227.097 9.144 2.606-1.853 2.234-10.546 3.029-13.152 1.204-2.26-1.583-7.456-1.269-9.399.568-.632.598.337.7 2.635.278 2.249-.413 3.893-.252 4.309.422.371.6 2.11 1.097 3.865 1.105 2.17.011 2.757.291 1.834.875-.961.609-1.029 1.062-.233 1.554.617.382.864 1.113.547 1.625-.316.512.596.931 2.028.931 1.502 0 2.534-.529 2.44-1.25-.341-2.632.128-3.75 1.575-3.75.825 0 1.5.405 1.5.9 0 .496 1.298.811 2.885.701 1.761-.122 3.283.439 3.908 1.439.885 1.417.027 1.873-6.385 3.384-7.191 1.695-10.69 3.506-4.158 2.152 5.722-1.186 22.534-1.667 19.936-.57-1.273.537-2.042 1.418-1.709 1.956.932 1.509-4.529 2.486-6.614 1.184-1.01-.63-3.304-1.116-5.099-1.079-3.151.064-3.108.116 1.236 1.485 2.475.78 5.625 1.438 7 1.463 2.231.041 2.306.159.695 1.096-1.416.824-1.554 1.353-.642 2.453 1.114 1.342-2.024 3.436-5.148 3.436-.531 0-3.638 1.125-6.905 2.5-3.267 1.375-7.682 2.5-9.811 2.5-2.129 0-6.08.67-8.78 1.489-6.113 1.855-5.918 1.859-7.967-.19-1.602-1.602-1.504-1.774 1.678-2.948l3.38-1.246-4.392.197c-2.416.109-4.563-.279-4.77-.862-.571-1.603 15.492-7.456 20.662-7.529 2.475-.035 6.075-.71 8-1.5l3.5-1.437-3.5.578c-1.925.317-5.071.849-6.991 1.183-3.26.565-3.381.494-1.825-1.062.917-.917 2.376-1.395 3.242-1.063.912.35 1.574.081 1.574-.639 0-.898-1.25-1.072-4.5-.626-4.446.609-6.424-.801-2.75-1.96 4.716-1.488 5.57-2.317 1.76-1.709-2.194.35-5.794 1.456-8 2.458-2.205 1.002-5.923 1.832-8.26 1.844L43 580v6.417c0 4.197.432 6.591 1.25 6.921 1 .403 1 .52 0 .583-.822.052-1.25 1.781-1.25 5.048 0 3.516.365 4.854 1.25 4.578.688-.215 7.89-.663 16.006-.996 8.115-.333 15.765-.987 17-1.454 1.234-.467 5.018-1.17 8.408-1.561 8.3-.959 14.6-3.061 11.15-3.721-1.331-.254-2.976.133-3.656.861-.68.728-2.682 1.329-4.447 1.335-1.766.006-4.968.301-7.116.656-2.645.437-3.694.302-3.249-.417.361-.584 1.668-.84 2.905-.569 1.605.351 1.867.221.915-.455-1.684-1.197-.366-1.774 6.353-2.781 5.528-.829 11.484-3.428 7.88-3.439-1.155-.003-3.405.43-5 .964-1.594.533-4.024 1.14-5.399 1.348-1.375.209-3.608.83-4.963 1.381-1.354.552-3.333.775-4.398.496-4.081-1.067 1.655-3.676 7.111-3.234 1.237.1 2.25-.21 2.25-.689 0-.478 1.657-1.469 3.682-2.202 3.514-1.271 3.594-1.398 1.75-2.815-1.146-.881-1.481-1.656-.824-1.906.61-.232 1.96-1.066 3-1.853 1.797-1.361 1.801-1.434.071-1.464-2.399-.042.313-3.032 2.75-3.032 1.872 0 2.095 1.622.321 2.338-.687.277.183.54 1.935.583 1.752.043 4.39.537 5.864 1.098 2.259.858 2.586.774 2.082-.538-.344-.896.033-1.798.886-2.126 3.352-1.286 1.257-2.446-3.267-1.808-4.542.639-4.662.595-2.75-1.013 1.981-1.667 1.979-1.678-.25-1.202-3.931.84-2.424-.994 2.299-2.797 6.004-2.293 11.731-.607 8.829 2.6-1.621 1.791-1.533 1.86 2.217 1.749 2.148-.064 3.052-.334 2.01-.601-1.454-.373-1.585-.677-.564-1.308 1.097-.678 1.101-1.099.022-2.399-1.127-1.358-.979-1.587 1.065-1.655 1.304-.043 1.81-.306 1.122-.583-.687-.278-1.25-.972-1.25-1.544 0-.64.56-.574 1.459.172 2.69 2.233 7.541.328 7.541-2.962 0-1.561-.562-3.032-1.25-3.27-2.001-.691-10.84.292-15.978 1.778-2.852.825-4.959.994-5.309.428-.32-.517-2.692-.947-5.272-.955-3.063-.01-4.213-.319-3.313-.889.758-.48 1.083-1.35.722-1.934-.397-.642.835-1.33 3.122-1.743 2.078-.375 4.678-1.166 5.778-1.758 1.1-.591 4.475-1.383 7.5-1.76 3.025-.376 7.187-1.017 9.25-1.423 3.103-.612 3.75-.458 3.75.891 0 .897.372 1.631.827 1.631.455 0 .698-1.462.541-3.25-.156-1.788-.046-2.462.247-1.5.292.962.98 1.75 1.528 1.75.622 0 .912 4.826.771 12.843-.124 7.064.14 13.435.586 14.158.606.98.264 1.171-1.344.75-1.436-.375-2.156-.105-2.156.811 0 .756.618 1.138 1.372.849 1.676-.644 2.869 4.369 1.568 6.589-.619 1.056-.922.317-1.026-2.5-.08-2.2-.358-3.179-.617-2.177-.292 1.126-1.043 1.605-1.966 1.25-.822-.315-2.02-.58-2.663-.588-.69-.009-.554-.453.332-1.085 1.14-.812.708-.932-1.8-.499-2.046.353-3.068.195-2.691-.416.335-.542-.318-.985-1.45-.985s-2.059.375-2.059.833c0 .459-.675.834-1.5.834s-1.5-.375-1.5-.834c0-.458-.48-.833-1.067-.833-.596 0-.8.844-.461 1.912.489 1.541-.031 2.053-2.683 2.641-2.818.626-3.002.834-1.289 1.452 1.1.397 2.276.294 2.613-.228.893-1.387 8.091-1.917 7.236-.533-.416.673-.112.879.786.534.805-.309 3.917.538 6.914 1.881 5.25 2.353 5.312 2.425 1.679 1.951-2.244-.292-3.535-.107-3.187.456.322.522-.118 1.218-.978 1.548-2.919 1.12-1.579 2.385 2.687 2.536 2.984.105 3.431.274 1.5.566-2.928.444-3.847 2.284-1.141 2.284 19.443 0 65.567-2.907 64.838-4.086-.312-.504 1.367-.861 3.744-.796 4.018.111 4.107.17 1.309.882-2.204.561-.943.795 4.75.882 7.632.116 7.75.08 7.75-2.382 0-2.858.522-2.988 4-1 1.375.786 3.625 1.413 5 1.394 2.031-.029 1.655-.411-2-2.039-2.475-1.102-4.95-2.083-5.5-2.18-2.448-.429-3.649-11.661-1.25-11.69.893-.011.852-.268-.146-.899-4.555-2.885 6.072-6.509 12.388-4.225 4.544 1.643 6.624 1.328 2.643-.4-1.85-.804-5.618-1.461-8.372-1.461-4.206 0-4.82-.227-3.833-1.416.939-1.131.762-1.547-.877-2.067-2.694-.855-3.1-9.517-.446-9.517 1.018 0 1.396.55 1.031 1.5-.445 1.162.235 1.5 3.016 1.5 3.079 0 3.413.214 2.346 1.5-1.488 1.793-.147 1.933 2.087.218 2.818-2.162 2.014-4.899-1.229-4.187-3.772.829-5.509-.32-3.168-2.095 1.641-1.244 1.652-1.375.119-1.404-.93-.018-1.969.418-2.309.968-.34.55-1.317 1-2.17 1-1.838 0-.982-6.964 1.012-8.232.85-.541.826-.741-.092-.753-.716-.008-1.25-1.285-1.25-2.99 0-2.71.245-2.927 2.75-2.432 1.513.299 3.875.091 5.25-.462 1.375-.552 1.825-1.04 1-1.083-1.333-.07-1.333-.186 0-1.048 1.333-.862 1.333-.984 0-1.103-.825-.073-.15-.477 1.5-.897l3-.763-3.179-.119c-1.748-.065-3.773.47-4.5 1.188-2.477 2.448-4.821 2.801-4.821.726 0-1.4.862-2.012 3.25-2.309l3.25-.403-3.25-.16c-7.411-.365-.63-5.301 9.25-6.734 6.251-.906 16.796-.565 17.495.566.289.467 1.871 1.164 3.515 1.547 2.868.67 2.909.634.99-.888-1.706-1.354-1.755-1.592-.333-1.619.916-.018 1.855.305 2.086.718.23.413.268.151.083-.582-.344-1.365 6.325-1.004 10.401.562 1.501.577 1.391.78-.737 1.365-1.482.408.28.642 4.327.576 3.755-.061 7.048-.469 7.319-.907.271-.438.918-.533 1.439-.211.521.322.689 1.004.372 1.516-.316.512.325.931 1.425.931 2.824 0 3.743 2.024 1.219 2.684-2.784.728-2.688 3.064.149 3.61l2.25.434-2.25.136c-1.273.077-2.25.787-2.25 1.636 0 .825-.477 1.5-1.059 1.5s-.781-.45-.441-1-.035-1-.834-1c-.799 0-1.725.712-2.059 1.582-1.281 3.337-.675 3.977 3.393 3.589 4.435-.423 5.505 1.288 1.75 2.798-1.238.497-1.597.933-.8.968 1.2.052 1.222.278.125 1.313-1.06 1-1.417 1-1.783 0-.543-1.479-5.292-1.703-5.292-.25 0 .55 1.012 1.014 2.25 1.03 2.102.029 2.127.102.38 1.117-1.513.879-1.609 1.256-.5 1.973.965.624.631.811-1.13.633-1.375-.139-2.831-.703-3.235-1.253-1.092-1.487-.918-3.713.235-3 .55.34 1 .19 1-.334s-.651-1.202-1.448-1.508c-.796-.305-1.968-2.491-2.604-4.857-2.332-8.666-6.568-12.84-8.341-8.219-.922 2.401-.773 2.605 1.393 1.918 1.172-.372 2-.18 2 .464 0 1.753-3.116 2.466-4.071.932-.637-1.023-1.042-.54-1.514 1.803-.354 1.759-1.38 3.394-2.28 3.634-1.417.377-1.402.45.115.551.963.064 1.819.679 1.902 1.366.084.688.208 1.7.277 2.25.068.55.362 1.45.654 2 .291.55.651 2.462.799 4.25.264 3.187.185 3.253-4.057 3.4l-4.325.15 4.5.6c3.275.437 4.5 1.05 4.5 2.252 0 1.844-8.848 9.234-18.885 15.773-3.651 2.379-6.308 4.763-5.951 5.341.413.667.139.738-.759.197-1.197-.721-1.201-.596-.033.845.895 1.103.982 1.692.25 1.692-.617 0-1.122-.45-1.122-1s-.45-1-1-1-1 .686-1 1.525c0 1.727 3.868 3.475 7.688 3.475 2.159 0 2.363.233 1.312 1.5-1.084 1.306-.451 1.5 4.878 1.5 3.415 0 6.122-.442 6.122-1 0-.576 3.078-.996 7.25-.991 8.595.01 17.852 1.013 17.325 1.877-.206.338 5.768.754 13.275.924 15.914.362 29.148-.565 27.048-1.894-1.031-.653-.741-.893 1.102-.916 1.857-.023 2.138-.26 1.091-.923-.775-.49-1.967-.678-2.649-.416-.682.261-1.555-.035-1.94-.658-.73-1.181 13.06-.775 14.254.42.593.592-1.282.94-3.506.652-.687-.09-1.25.334-1.25.94 0 .607.461.818 1.025.47.563-.349.901-.094.75.566-.189.824 2.116 1.331 7.381 1.622l7.656.423 2.271-4.548c1.249-2.501 2.651-4.548 3.115-4.548.463 0-.098 1.844-1.247 4.097-2.095 4.107-1.952 6.304.266 4.086 1.44-1.44 6.428-1.566 7.283-.183.951 1.539 4.5 1.184 4.5-.45 0-1.055-1.501-1.532-5.513-1.75l-5.513-.3 2.013-3.746c1.107-2.061 2.013-4.386 2.013-5.168s1.149-3.709 2.553-6.504c2.201-4.382 2.958-5.082 5.5-5.082 1.953 0 2.947.506 2.947 1.5 0 .973.965 1.495 2.75 1.485 2.143-.012 2.419-.23 1.25-.985-1.151-.744-.802-.969 1.5-.969s2.651.225 1.5.969c-1.213.784-1.069.972.75.985 3.331.022 2.964 3.588-.5 4.853-1.604.585-2.048 1.037-1.065 1.083 2.88.135 6.815-1.8 6.815-3.351 0-1.124 1.617-1.562 6.75-1.828l6.75-.35-7.75-.196c-6.135-.155-7.75-.509-7.75-1.696 0-1.133-1.222-1.5-5-1.5-4.333 0-5-.267-5-2 0-1.111-.667-2-1.5-2-.825 0-1.5.675-1.5 1.5 0 .827-.886 1.5-1.975 1.5-1.708 0-1.843-.348-.999-2.567 1.738-4.574 3.175-6.725 3.831-5.74 1.358 2.036 7.345 4.269 9.03 3.368.918-.492 3.751-.894 6.293-.894 3.866 0 12.673-3.005 9.164-3.127-.652-.023-.933-.897-.643-2.003.282-1.08-.435-3.922-1.594-6.316-2.248-4.643-2.472-6.776-1.478-14.029.602-4.393.781-4.603 4.25-4.971 3.615-.384 3.614-.385-.562-.553-4.189-.168-6.427-2.563-4.823-5.159.343-.555.121-1.009-.494-1.009s-.84-.45-.5-1c.782-1.266-.542-1.266-2.5 0-1 .646-1.083.974-.25.985.688.008 1.25.69 1.25 1.515 0 2.368-4.553 1.795-7.694-.968-2.122-1.867-2.399-2.477-1.139-2.5.916-.018 1.867.531 2.113 1.218.259.727.817.879 1.333.363s.361-1.074-.369-1.335c-.691-.247-.962-.926-.601-1.509.434-.702-.24-.836-1.994-.396-1.457.366-2.642.319-2.634-.104.033-1.63 1.761-3.412 3.091-3.188 1.837.309 4.894-1.058 4.894-2.188 0-.491-.706-.893-1.57-.893-1.055 0-1.464-.737-1.25-2.25.264-1.854 1.024-2.293 4.32-2.495l4-.246-3 1.415c-2.621 1.235-2.723 1.424-.809 1.495 2.917.108 4.056 2.081 1.201 2.081-1.224 0-1.888.337-1.476.75.412.413 5.325.791 10.917.841 5.845.053 9.104-.224 7.667-.65-1.375-.408-4.863-.786-7.75-.841-2.887-.055-5.25-.55-5.25-1.1s-.75-1-1.667-1c-3.018 0-.776-.967 5.746-2.48l6.421-1.489-5.222.434c-2.872.239-5.486.007-5.809-.515-.323-.523-2.023-1.011-3.778-1.086-2.352-.101-2.6-.25-.941-.57 1.238-.238 2.25-.852 2.25-1.364 0-.511-1.012-.983-2.25-1.047-1.238-.064.078-.506 2.923-.981 4.891-.816 11.352.739 9.745 2.346-.303.304 2.256.552 5.687.552 4.013 0 6.737-.499 7.638-1.4.862-.862 3.389-1.373 6.578-1.33 3.71.051 4.612.304 3.179.893-2.052.844-1.84 1.04 2.5 2.321.825.244-2.1.753-6.5 1.132-11.284.972-12.773 1.292-6.736 1.448 4.659.12 8.742 1.417 10.236 3.25.275.337 1.4.279 2.5-.13 1.72-.639 1.51-.875-1.5-1.686l-3.5-.943 5.455-.655c3.063-.367 5.707-.247 6.03.275.315.511 2.136 1.134 4.044 1.385 1.909.251 6.034 1.004 9.166 1.675 4.947 1.059 5.902 1.01 7.283-.37 1.119-1.12 3.277-1.55 7.305-1.457 3.144.073 4.929.314 3.967.536-2.617.602-2.11 2.256.691 2.256 1.343 0 2.719.45 3.059 1 .355.575-.576 1.006-2.191 1.014-1.545.007-3.891.303-5.214.657-2.212.592-2.05.788 2 2.43 3.121 1.267 3.749 1.804 2.155 1.843-1.238.031-2.25.473-2.25.983 0 .509-.788 1.132-1.75 1.384-.962.251-.288.509 1.5.573 1.788.064 3.25-.285 3.25-.776 0-.49 1.238-1.219 2.75-1.62 2.728-.723 2.719-.738-1.25-1.924l-4-1.194 7.27-.748c7.813-.803 8.703-1.971 2.286-2.997-3.986-.637-5.082-3.928-1.183-3.552.895.087 2.578.105 3.74.042l2.113-.115-.217-47.601c-.226-49.271-.431-51.62-4.171-47.88-1.546 1.546-1.831 4.904-.338 3.981 1.132-.699 1.23 12.464.123 16.426-1.037 3.709-2.936 3.646-3.433-.114-.241-1.822-.334.012-.206 4.075.198 6.276.051 7.047-.977 5.127l-1.209-2.26-.755 2.373c-.624 1.963-.836 2.07-1.222.623-.67-2.509-2.315-2.16-2.356.5l-.036 2.25-1.214-2.103c-.668-1.157-1.89-1.91-2.715-1.674-1.333.382-1.333.311 0-.632.902-.638 1.03-1.066.321-1.076-.76-.01-1.178-1.972-1.178-5.53 0-3.139.4-5.268.928-4.941.511.316.929-.353.929-1.485 0-1.132-.337-2.059-.75-2.059-.897.001-.489-32.85.562-45.25.408-4.812.444-8.75.081-8.75s-.907-.945-1.209-2.101c-1.469-5.617-2.25.6-2.045 16.282.124 9.526.287 17.319.362 17.319.075 0 .3 1.238.5 2.75.199 1.512-.015 2.75-.476 2.75-1.033 0-1.936 13.429-2.301 34.226-.188 10.741-.664 16.114-1.5 16.95-.965.965-1.239-.35-1.294-6.226-.048-5.091-.343-6.817-.93-5.45-.77 1.792-.867 1.722-.93-.667-.043-1.652-1.042-3.374-2.626-4.528-1.406-1.024-2.683-2.725-2.837-3.779-.155-1.055-.805-2.092-1.444-2.305-.781-.26-1.163-3.681-1.163-10.401v-10.013l5.001.346c2.75.191 5 .01 5-.403-.001-.413-2.251-.75-5.001-.75h-5v-3.667c0-8.544-1.273-1.492-1.512 8.376-.43 17.776-.441 17.913-1.386 16.421-.708-1.117-1.047-1.05-1.838.362-.748 1.338-1.687 1.574-4.125 1.039-1.736-.382-2.901-1.107-2.589-1.612.313-.506-.246-.955-1.241-.998-1.049-.046-1.284-.291-.559-.583.688-.278 1.25-.944 1.25-1.48 0-.537-.52-.655-1.155-.263-.715.443-.883.275-.44-.44.392-.635.263-1.155-.286-1.155-.55 0-.879-1.238-.732-2.75.147-1.512-.39-3.527-1.193-4.476-1.109-1.31-1.473-4.808-1.511-14.5-.031-8.26-.177-9.948-.412-4.777-.481 10.574-2.213 12.307-2.451 2.453-.133-5.5-.279-6.207-.555-2.7-.206 2.613-.826 4.75-1.379 4.75-.552 0-.683-.52-.291-1.155.406-.655.278-.885-.295-.53-1.242.767-4.491-2.677-6.764-7.173-1.995-3.943-1.307-9.917.808-7.024.945 1.292 1.417 1.363 2.359.355 1.399-1.498.662-2.473-1.87-2.473-1.008 0-1.847-.562-1.865-1.25-.018-.733-.61-.486-1.429.595-1.295 1.709-1.423 1.598-1.738-1.5-.241-2.373-.86-.44-2.131 6.655-2.44 13.626-2.836 15.22-3.4 13.68-.344-.938-.924-.692-2.005.852-1.178 1.682-1.706 1.873-2.342.844-.609-.985-1.062-.689-1.756 1.148-.515 1.362-.557 2.95-.093 3.529.911 1.137-1.87 6.406-5.429 10.284-2.485 2.708-7.84 5.163-11.261 5.163-2.326 0-2.303-.089 1.179-4.651 1.953-2.558 4.413-6.342 5.467-8.409 1.055-2.067 3.696-5.812 5.869-8.323 4.255-4.916 6.008-11.97 4.703-18.926-.754-4.021-.017-4.984 2.7-3.529 1.558.833 2.299.766 3.139-.285 2.262-2.833 5.552-4.081 5.629-2.135.065 1.625.125 1.62.789-.066.396-1.003 1.039-1.791 1.43-1.75 2.995.312 9.746-.304 7.046-.643-5.098-.639-5.006-3.06.146-3.832 2.407-.361 4.859-.359 5.448.005.589.364 1.071.235 1.071-.288 0-1.186-6.94-2.074-7.62-.974-.82 1.328-2.047.912-2.047-.694 0-.825.857-1.5 1.905-1.5s2.58-.675 3.405-1.5c1.333-1.333 1.27-1.5-.572-1.5-1.139 0-2.071.45-2.071 1s-1.238.955-2.75.9l-2.75-.099L390 378l2.5-.801-2.5-.115c-1.995-.091-2.197-.31-1-1.084.894-.578 1.02-.976.313-.985-.652-.008-1.327-1.477-1.5-3.265-.312-3.238-.318-3.242-1.645-.913M79.501 395.998c-.959 1.553.691 63.001 1.676 62.392.48-.296.772-.168.65.286-.631 2.333 1.47 5.324 3.74 5.324 1.338 0 2.433-.481 2.433-1.07 0-.588 1.013-.925 2.25-.75 3.285.467 4.053 10.82.802 10.82-1.157 0-2.052.654-2.052 1.5 0 .825.477 1.5 1.059 1.5s.781-.45.441-1 .047-1 .859-1c1.13 0 1.555 1.643 1.809 7.001l.332 7-3.5-.502-3.5-.502 3 1.138c1.65.627 3.225 1.338 3.5 1.582.275.244.745 8.395 1.045 18.113l.546 17.67.204-22.5c.303-33.229-1.649-99.908-3.029-103.5-.634-1.65-1.628-3.331-2.209-3.735-1.577-1.096-9.345-.916-10.056.233m220.664 6.252c-.129 5.271-.603 7.188-2.165 8.75-1.1 1.1-1.993 2.563-1.985 3.25.012.936.228.915.861-.084.681-1.074.964-1.025 1.453.25.454 1.182-.019 1.584-1.86 1.584-1.358 0-2.469.45-2.469 1s-.569 1-1.264 1c-.695 0-2.044 1.8-2.997 4-.953 2.2-2.361 4-3.129 4-1.448 0-2.61 2.072-2.61 4.653 0 1.384-.512 2.153-3.702 5.562-2.129 2.276-3.726 3.329-7.22 4.765-1.882.773-2.892 1.582-2.243 1.798.649.217 3.089-.491 5.422-1.572 6.62-3.066 7.643-3.314 17.652-4.278 9.418-.907 15.753-3.283 13.111-4.916-.684-.422-1.301-2.166-1.371-3.875-.069-1.708-.663-3.312-1.32-3.564-.743-.285-1.023-1.824-.743-4.086.248-1.995.067-3.391-.401-3.101-1.04.642-1.06.524-2.054-11.886-.749-9.35-.812-9.561-.966-3.25m-229.162-2.753c-.983 1.184-1.008 6.763-.117 26.75.619 13.889 1.13 27.503 1.135 30.253.007 3.476.293 4.551.941 3.528 1.067-1.689 1.604-.764 2.44 4.206.253 1.503.773 3.241 1.157 3.861.383.621.077 1.521-.681 2.001-.758.481-.92.88-.36.889.603.009 1.105 3.94 1.232 9.664.119 5.308.505 9.92.859 10.25.355.331.35-15.374-.01-34.899-.998-54.157-1.928-62.128-6.596-56.503m-7.654 9.181c-1.361 3.233-1.504 6.326-.932 20.072.54 12.987.415 16.253-.621 16.265-.98.012-.952.233.113.908.775.49 2.125.672 3 .403 1.315-.404 1.29-.241-.143.941-.954.787-1.527 1.639-1.273 1.893s.597 1.347.762 2.428c.165 1.082 1.293 2.96 2.507 4.174l2.208 2.208.576-2.296c.317-1.262.101-11.043-.479-21.735-.58-10.691-1.064-21.014-1.076-22.939-.017-2.734-.252-3.172-1.072-2-.831 1.187-.924 1.048-.444-.666 1.092-3.899-1.458-3.619-3.126.344m51.579 2.078c-1.397.286-1.427 1.018-.271 6.533.761 3.633 1.31 13.12 1.322 22.854.021 16.419.285 17.829 3.353 17.859.664.006-1.172-43.935-1.903-45.535-.511-1.119-1.637-1.889-2.501-1.711m50.822 19.96c-2.685.407-2.75.574-2.741 7.1.017 13.123.923 17.166 3.88 17.32 2.355.123 2.391.179.361.57-2.226.428-3.351 4.294-1.25 4.294.55 0 1.007-.562 1.015-1.25.011-.847.316-.775.946.221 1.639 2.592 1.994.689 2.659-14.288.542-12.2.418-14.658-.734-14.533-.762.082-2.624.337-4.136.566m-9.75 1.171c-3.482.621-3.499.65-3.318 5.619.34 9.32 2.464 16.492 5.079 17.149 1.282.322 2.54.377 2.794.124 1.729-1.73 1.35-24.001-.403-23.647-.359.072-2.227.412-4.152.755m16.625 2.238c-.792 3.961-.785 11.276.017 16.125.571 3.453.882 3.75 3.93 3.75 1.82 0 3.605-.478 3.966-1.062.361-.584 1.674-1.448 2.918-1.921 2.609-.992 3.544-4.428 3.544-13.017 0-6.389-.873-7-10-7-3.4 0-3.808.292-4.375 3.125m-24.743-.458c-.066.458-.07 1.158-.009 1.556.06.398-1.124.486-2.632.195-3.805-.734-10.653 1.831-11.108 4.16-.683 3.492 2.092 15.422 3.586 15.422.77 0 1.121.45.781 1-.34.55.084 1 .941 1s1.559.841 1.559 1.869 1.057 5.11 2.348 9.071c1.291 3.961 2.199 8.407 2.018 9.881-.324 2.642-.318 2.645.44.21.766-2.459.775-2.456 2.159.883 2.322 5.607 9.108 13.564 10.194 11.955.695-1.03.852-.873.633.631-.347 2.375 4.23 2.934 5.004.611.301-.903.03-1.122-.773-.625-.895.553-1.055.189-.578-1.312.362-1.141.153-3.955-.466-6.252-.801-2.973-.816-4.485-.052-5.249 1.78-1.78 1.31-5.47-.677-5.312-.963.077-2.081.589-2.485 1.139-.448.611-.74.49-.75-.309-.008-.72-.465-1.031-1.015-.691-.564.349-1-.463-1-1.862 0-1.942.65-2.622 3-3.138 3.341-.734 4.132-3.5 1-3.5-1.1 0-2-.408-2-.906 0-.499.9-.671 2-.384 1.118.293 2 .031 2-.593 0-.615-.338-1.064-.75-.999-2.606.412-3.67-.226-2-1.198.963-.561 1.75-1.502 1.75-2.092 0-.751-.398-.743-1.324.026-.966.802-1.641.781-2.5-.078-1.479-1.479-1.517-.281-.076 2.41.857 1.603.823 1.884-.158 1.278-.909-.561-1.103-.19-.703 1.343.337 1.286-.068 2.625-1.029 3.406-1.355 1.101-1.487 1.026-.909-.515.372-.991.344-1.597-.062-1.346-.407.251-.805-.645-.886-1.991-.081-1.346-1.093-3.268-2.25-4.272-2.483-2.153-2.665-3.089-.603-3.089 1.676 0 1.765-.422 1.589-7.5-.197-7.91-1.479-14.797-2.839-15.25-.688-.229-1.303-.042-1.368.417M406 445c4.277.665 4.166.707-2.25.85-7.223.161-8.793 1.542-3.751 3.299 1.649.575 2.774 1.41 2.498 1.855-.275.445.513.57 1.752.278 2.221-.525 2.224-.51.251 1.061-1.518 1.209-1.638 1.605-.5 1.641 1.333.041 1.333.166 0 1.118-1.176.84-.96.948 1 .498 1.375-.315 2.95-.61 3.5-.657.55-.046.1-.474-1-.95-1.42-.616-.695-.774 2.5-.546 3.609.258 3.906.173 1.5-.431l-3-.753 3.5-.163c1.925-.09 4.393-.839 5.485-1.664 1.957-1.479 1.952-1.509-.334-2.107-1.788-.467-2.014-.824-.986-1.554.953-.677.691-.807-.916-.455-1.239.271-2.031.137-1.762-.3.685-1.108-3.233-2.018-7.987-1.856l-4 .136 4.5.7m-148.53 19.093c-.382 1.204-1.524 1.907-3.096 1.907-1.513 0-2.233.42-1.832 1.068.363.588 1.177.875 1.809.639.632-.237 2.049-.108 3.149.285 1.349.483-.22.954-4.824 1.449-5.651.608-7.139.45-8.652-.92-2.497-2.259-9.645-1.757-9.248.651.152.919-.523 1.914-1.5 2.21-.977.296 2.049.372 6.724.168l8.5-.37-7 1.376-7 1.375 7-.458c3.85-.253 8.511-.462 10.357-.466 2.572-.005 3.222-.358 2.781-1.507-.46-1.198.273-1.474 3.643-1.368l4.219.131-3.5.737c-3.486.734-3.482.737 1 .813 5.626.095 24.594-2.519 20.5-2.825l-3-.225 3-.676 3-.676-3.82-.654c-2.101-.36-4.943-.227-6.315.294-1.373.522-3.928 1.002-5.68 1.067l-3.185.119 3 .763 3 .763-3.198.119c-2.142.079-4.09-.708-5.897-2.382l-2.697-2.5h3.846c4.483 0 3.623-1.579-1.266-2.324-2.537-.387-3.34-.089-3.818 1.417m24.238 8.591c-.449.715-2.225 1.005-4.476.732-2.997-.364-3.338-.253-1.732.563 1.596.811 1.294.903-1.5.458-2.61-.416-3.118-.292-2 .487 1.292.901 1.258 1.047-.25 1.061-.962.008-1.75-.458-1.75-1.035 0-.634-1.982-.932-5-.75-2.75.165-5.003.525-5.007.8-.004.275-1.916.61-4.25.744s-5.143.437-6.243.673c-1.1.237-2.364.464-2.809.506-.445.043-.531.527-.191 1.077.361.584-.661 1-2.456 1-3.339 0-8.126 5.713-5.926 7.073 2.109 1.303 18.881-2.959 18.883-4.798 0-.426 1.125-.84 2.5-.919 1.539-.089 2.499.391 2.499 1.25 0 .767.563 1.282 1.25 1.144.688-.137 1.125.351.971 1.086-.2.959.504 1.179 2.5.781 1.529-.305 4.804-.808 7.279-1.117 7.337-.917 10-1.604 10-2.579 0-.507.627-.921 1.393-.921 2.606 0 2.702-3 .134-4.17-1.339-.61-2.578-1.833-2.754-2.719-.225-1.133-.541-1.26-1.065-.427m111.792 7.833c-7.15 1.282-15.7 2.791-19 3.354-19.996 3.414-30.5 5.64-30.5 6.466 0 .518-.788 1.54-1.75 2.271-1.522 1.156-1.542 1.333-.153 1.36.878.018 2.635-.868 3.903-1.968 2.596-2.251 3.67-2.491 4.189-.933.612 1.836 36.807-5.025 36.826-6.98.013-1.271.187-1.317.875-.231.918 1.449 25.934-2.326 27.19-4.103.319-.452 1.331-.532 2.25-.18.94.361 1.67.157 1.67-.466 0-1.775-11.18-1.156-25.5 1.41m32.107 9.065c-.334.87-.614 5.257-.622 9.75-.009 4.492-.366 7.617-.794 6.942-1.002-1.577-6.688-1.686-21.164-.404-1.049.093-.849.567.697 1.649 1.503 1.053 5.102 1.589 11.722 1.746 5.255.125 9.554.593 9.554 1.04 0 .447-.453.533-1.008.19-.554-.342-1.662.032-2.462.832-1.272 1.272-1.146 1.513 1.008 1.925 1.681.321 2.462.02 2.462-.95 0-.781.343-1.208.761-.95.419.259.901-4.889 1.072-11.441.3-11.532.048-13.65-1.226-10.329m-192.294 9.248c-1.779 1.778-.855 2.865 1.074 1.264.855-.71 1.67-.81 2.018-.247.638 1.031-1.584 2.153-4.265 2.153-.932 0-2.519.961-3.525 2.136-1.988 2.323-3.569 1.245-3.6-2.453-.011-1.36-.518-1.658-2.015-1.183-1.225.389-2 .18-2-.54 0-.646-.661-.92-1.468-.611-.807.31-1.697.194-1.976-.259-.28-.452-1.681-.598-3.114-.324-3.133.599-5.409 4.667-3.615 6.461.897.897 1.173.648 1.173-1.062 0-1.925.277-2.087 2-1.165 1.388.743 2.591.754 3.934.035 2.655-1.421 5.326-1.301 4.796.215-.241.688-1.291 1.1-2.334.916-2.416-.425-.788 1.102 2.604 2.442 3.682 1.454 14 .063 14-1.888 0-.579.296-.757.658-.395.97.97 3.344-1.312 3.327-3.197-.013-1.392-.15-1.415-.946-.157-.512.809-1.292 1.11-1.733.668-.442-.441.07-1.441 1.137-2.221 1.066-.78 1.741-1.455 1.498-1.499-3.283-.605-6.496-.221-7.628.911M292 500.034c-14.571 2.503-31.823 6.574-33.398 7.882-.741.614-2.69.816-4.459.463-2.108-.422-3.143-.239-3.143.555 0 .651-.354.965-.788.697-1.213-.749-16.433 2.815-15.595 3.652.405.406-.686.453-2.425.105-2.44-.488-3.31-.243-3.816 1.074-.42 1.095-.897 1.313-1.332.61-.465-.754-1.592-.795-3.61-.133-1.614.53-4.846 1.453-7.184 2.051-4.229 1.082-6.385 5.01-2.75 5.01.825 0 1.507-.788 1.515-1.75.011-1.234.247-1.385.801-.513.589.927 1.652.98 4.235.212 3.068-.912 8.342-2.092 15.949-3.567 1.375-.267 5.2-1.183 8.5-2.035 3.3-.853 7.125-1.736 8.5-1.962 2.593-.427 9.122-1.767 17.153-3.522 3.384-.739 4.845-1.609 5.356-3.19.605-1.869.768-1.928 1.17-.423.565 2.115.004 2.132 9.821-.303 4.4-1.091 9.35-2.193 11-2.448 9.549-1.477 13.959-2.786 12-3.564-2.825-1.122-5.571-.949-17.5 1.099m12.5 12.948c-2.75.386-6.125 1.174-7.5 1.752l-2.5 1.051 3 .845c4.618 1.302 17.628.978 22.271-.555 5.059-1.669 4.677-3.079-.642-2.366-2.312.311-4.147.071-4.558-.595-.742-1.199-2.308-1.22-10.071-.132m-38 8.074c-6.631 1.088-12.546 3.06-11.971 3.991.255.412 3.631 1.067 7.502 1.456 6.233.626 6.892.887 5.754 2.275-1.11 1.355-.987 1.492.9 1.006 1.292-.333 2.383-.049 2.668.694.701 1.826 5.045 2.392 6.489.846 1.237-1.324.305-1.737-3.592-1.593-2.264.084-1.301-1.728 1-1.881 1.238-.083.225-.465-2.25-.85l-4.5-.7 5.128-.15c3.182-.093 5.599-.719 6.372-1.65.685-.825 2.202-1.514 3.372-1.53 1.955-.028 1.983-.115.34-1.071-.984-.573-3.078-.758-4.655-.412-1.632.359-3.148.174-3.521-.428-.731-1.184-1.842-1.184-9.036-.003M498.639 578c-.473 31.075-1.151 73.15-1.507 93.5-.7 40.096-.59 43.5 1.409 43.5 1.918 0 2.026-7.848 1.459-106.5l-.5-87-.861 56.5M295 525.053l-6.5 1.811 5 .242 5 .243-4.5.389c-2.475.213-4.928.81-5.45 1.325-.522.515-1.76.937-2.75.937-2.173 0-2.27.673-.371 2.571 1.599 1.6 11.101 1.998 12.024.505.314-.509.003-1.118-.691-1.355-.694-.236-.212-.252 1.072-.035 1.439.243 2.087-.004 1.691-.646-.38-.614.381-1.04 1.857-1.04 1.375 0 2.749.402 3.053.894.695 1.125 8.565 1.935 8.565.882 0-.427.825-.776 1.833-.776 3.573 0 3.293-1.516-.493-2.673l-3.84-1.173 3.833-.077c3.686-.074 4.951-2.125 1.613-2.614-8.368-1.225-15.115-1.035-20.946.59M202.181 539.5c-.099.55-1.964.934-4.144.853-2.334-.086-4.44.428-5.123 1.25-.92 1.109-.783 1.397.664 1.397 2.587 0 .51 1.752-2.568 2.165-2.757.371-4.188 3.835-1.583 3.835.865 0 1.573.477 1.573 1.059s-.437.789-.971.459c-.868-.536-1.276.564-2.496 6.732-.328 1.662 2.173 2.514 4.967 1.693.55-.162 2.985-.328 5.411-.369 4.034-.068 4.444-.31 4.785-2.825.205-1.514-.089-3.615-.654-4.67-.709-1.325-.7-2.026.03-2.27.625-.208.899-2.386.672-5.33-.211-2.739-.464-4.529-.563-3.979M173 542.191c-1.925.542-4.625.986-6 .986-4.811 0-6.862 4.689-3.25 7.431 1.667 1.265 1.667 1.33 0 1.36-1.211.022-1.75.835-1.75 2.64 0 2.361.261 2.538 2.75 1.858 1.512-.414 5.9-1.25 9.75-1.859 6.872-1.087 7-1.162 6.979-4.107-.012-1.737.619-3.286 1.5-3.68 1.255-.561 1.211-.692-.249-.75-1.33-.053-1.657-.69-1.316-2.57.513-2.827-1.767-3.182-8.414-1.309m-72.471 3.867c-1.633.488-4.783.973-7 1.078-2.216.104-5.244.792-6.729 1.527-1.486.735-3.523 1.337-4.528 1.337-1.005 0-2.55.844-3.433 1.875-1.531 1.788-1.383 1.9 3.222 2.446 2.655.314 6.312.146 8.126-.375 1.815-.52 4.884-.946 6.821-.946 1.937 0 5.201-.9 7.253-2 2.053-1.1 4.633-2 5.735-2 3.072 0 2.384-1.461-1.317-2.799-3.759-1.359-4.055-1.364-8.15-.143m40.74 7.882c-4.479.73-6.602 2.036-4.519 2.78 2.175.777 1.351 2.28-1.25 2.28-2.1 0-2.5.471-2.5 2.94 0 2.66.356 2.977 3.75 3.332l3.75.392-3.75.168L133 566v5c0 4.089.319 5.003 1.75 5.015 1.362.012 1.449.206.395.874-1.623 1.028-2.866 13.547-1.434 14.432.53.328 1.963-.104 3.184-.96 2.113-1.48 2.133-1.62.415-2.877-.994-.726-1.461-1.666-1.039-2.088 1.249-1.249 6.241 1.05 6.106 2.812-.073.95.847 1.793 2.25 2.061 2.293.438 2.373.243 2.373-5.814 0-5.972-.106-6.246-2.25-5.799-2.127.444-2.113.387.25-1.026 2.43-1.453 2.332-1.505-3.5-1.873l-6-.379 5.75-.189L147 575v-5.43c0-4.837-.246-5.478-2.25-5.864l-2.25-.434 2.25-.136c2.015-.122 2.25-.658 2.25-5.136 0-2.75-.338-4.944-.75-4.875-.412.069-2.654.436-4.981.815m261.975 3.588c-.822 1.47-15.066 5.472-19.474 5.472-1.157 0-1.773.331-1.369.735 1.118 1.117 16.841 5.234 17.778 4.654.452-.279.821-.03.821.552 0 .582.363 1.059.806 1.059.443 0 .78-1.237.75-2.75-.037-1.836.404-2.652 1.328-2.455 1.044.222 1.231-.469.763-2.811-.511-2.556-.314-3.074 1.116-2.93 4.062.412 8.313-.123 7.784-.978-.314-.509.222-1.17 1.191-1.469.969-.299.187-.372-1.738-.161s-4.361.724-5.414 1.139c-1.342.529-1.698.405-1.191-.415.43-.696.111-1.17-.786-1.17-.83 0-1.894.687-2.365 1.528M173.5 565.06c-1.65.471-5.137 1.127-7.75 1.459-4.546.578-4.75.741-4.756 3.792-.003 1.754-.265 7.014-.582 11.689-.414 6.121-.279 8.08.484 7 .582-.825.819-2.271.525-3.213-.46-1.48.157-1.685 4.523-1.5 2.78.117 5.055.577 5.056 1.022 0 .445.47.519 1.044.164.574-.355 1.586-.232 2.25.273.727.554 2.918.56 5.514.016 4.08-.855 4.292-1.071 4-4.071-.269-2.764-.754-3.24-3.808-3.735-1.925-.312-4.4-1.132-5.5-1.822-1.804-1.133-1.706-1.195 1-.64 6.977 1.433 7.01 1.415 6.887-3.666-.195-8.026-1.361-8.915-8.887-6.768m14.139-.365c-.352.351-.639 3.263-.639 6.472 0 5.646.085 5.833 2.655 5.833 2.525 0 2.572.091.972 1.86-1.587 1.753-1.553 1.949.595 3.447 2.197 1.531 2.205 1.59.228 1.641-1.128.028-2.59-.488-3.25-1.148-.933-.933-1.2-.933-1.2 0 0 .66.563 1.207 1.25 1.215.833.011.75.339-.25.985-1.127.728-.63.976 2 .996 6.178.046 11 1.201 11 2.635 0 .753.45 1.369 1 1.369.577 0 1-3.156 1-7.469 0-6.696-.181-7.4-1.75-6.812-1.474.552-1.552.412-.497-.888 1.068-1.315.403-2.121-4.484-5.437-8.108-5.503-7.926-5.404-8.63-4.699M416 569c0 2.034-1.327 2.415-7.119 2.044-1.571-.1-2.86.458-3.219 1.394-.33.859-1.851 1.614-3.381 1.678-1.529.064-2.04.313-1.134.554.906.24 1.869 1.283 2.139 2.317.318 1.214 1.772 2.121 4.103 2.558 4.403.826 4.648 1.998.587 2.81-1.663.332-3.317 1.401-3.677 2.375-.359.973-1.136 2.101-1.726 2.505-.61.417-.132.741 1.106.75 2.995.021 5.965 2.991 4.145 4.145-.798.506 1.117.845 4.819.855 4.574.011 6.293.405 6.729 1.541.399 1.042 1.781 1.471 4.356 1.355 2.075-.094 8.147.185 13.494.62 7.311.594 10.098.478 11.237-.467.834-.692 2.196-.997 3.028-.677 1.017.39 1.513-.03 1.513-1.281 0-2.883-2.546-3.2-7.745-.965-6.649 2.857-24.917 1.404-26.076-2.075-.311-.932.082-1.15 1.259-.698.989.379 2.363.003 3.258-.892 1.397-1.397 1.055-1.482-3.519-.875-6.909.916-12.177-.146-12.177-2.456 0-1.788 3.735-4.115 6.606-4.115 2.485 0 .601-1.796-2.628-2.505-3.062-.672-5.978-2.9-5.978-4.566 0-.511 2.475-.929 5.5-.929 4.222 0 5.5-.348 5.5-1.5 0-.942 1.024-1.543 2.75-1.616 1.692-.071 2.077-.292 1-.573-.962-.252-1.75-1.1-1.75-1.884 0-.785-.675-1.427-1.5-1.427-.833 0-1.5.889-1.5 2" fill="#d3d3d3" fill-rule="evenodd"/></svg>