<svg xmlns="http://www.w3.org/2000/svg" width="500" height="500"><path d="M0 73.881v73.882l4.388 1.105c3.406.857 4.53 1.667 5.019 3.618.682 2.718 2.593 3.465 2.593 1.014 0-.828.886-1.5 1.977-1.5 1.087 0 2.733-1.153 3.656-2.563 1.329-2.027 2.368-2.504 4.97-2.28 4.196.362 5.223-.645 2.27-2.225l-2.299-1.23 2.213-.819c1.488-.55 2.213-1.65 2.213-3.357 0-2.398 3.459-6.509 5.388-6.404.489.027 1.221-.489 1.627-1.146.406-.656 2.348-2.157 4.316-3.335 25.241-15.105 24.839-14.9 26.312-13.426.828.827 1.146 2.172.755 3.191-.534 1.392-.854 1.481-1.522.428-.901-1.422-1.269.495-.926 4.829.112 1.421-.562 2.397-1.962 2.841-1.446.459-1.933 1.198-1.511 2.296.869 2.266-3.466 10.418-5.188 9.757-.746-.286-3.209.821-5.473 2.461S43.894 144 42.909 144c-2.077 0-3.151 1.415-3.302 4.348-.059 1.152-1.22 2.621-2.607 3.301l-7.732 3.788c-2.877 1.41-5.802 2.573-6.5 2.585-.697.012-2.393.954-3.768 2.093-1.443 1.196-1.801 1.85-.848 1.547 2.206-.7 3.096.334 1.717 1.996-1.541 1.857-4.234 1.736-3.507-.158.316-.825.125-1.5-.425-1.5-1.066 0-1.923 1.696-2.359 4.672-.192 1.309-1.179 1.856-3.473 1.928-4.302.134-5.952 1.815-4.33 4.411C7.421 175.647 7.333 176 5.031 176c-1.305 0-1.781-.487-1.414-1.444.383-.997-.089-1.396-1.524-1.288l-2.078.156.018 102.254.019 102.253 2.691-1.023c1.48-.563 3.263-1.498 3.961-2.078.699-.579 2.444-.759 3.879-.399 1.491.375 3.21.156 4.013-.51.89-.739 1.404-.786 1.404-.127 0 .572-.563 1.266-1.25 1.544-.967.39-.956.522.05.583.714.043 2.631-.61 4.259-1.451 2.752-1.424 3.11-1.39 5.115.477 1.365 1.272 2.947 1.81 4.315 1.466 2.446-.613 6.036 2.567 3.761 3.333-1.902.64-1.512 3.439 1.35 9.692 3.464 7.566 4.588 18.244 1.804 17.138-1.047-.416-4.604-1.355-7.904-2.087-3.3-.731-5.405-1.366-4.679-1.41 1.367-.082-.893-3.079-2.321-3.079-.796 0-3.5-2.649-3.5-3.429 0-.314 1.012-.601 2.25-.638 3.126-.093-5.588-2.755-11.25-3.437-2.475-.298-5.288-.787-6.25-1.086C.098 390.896 0 393.923 0 445.435v54.569l250.25-.252 250.25-.252.204-249.75L500.907 0h-51.869l-.463 2.25c-.255 1.237-.886 4.5-1.401 7.25-.734 3.913-.98 4.348-1.134 2-.165-2.521-.556-1.964-2.45 3.491-2.468 7.106-5.018 8.751-13.84 8.932-3.634.075-3.75-.032-3.75-3.423 0-1.925.45-3.5 1-3.5s1-.675 1-1.5.9-2.4 2-3.5 2-3.077 2-4.393c0-2.382 2.572-4.392 3.201-2.503.182.546 1.867-.379 3.745-2.056L442.36 0h-92.68c-50.974 0-92.69.337-92.702.75-.012.413-.954 1.875-2.093 3.25-1.965 2.372-2.026 1.82-.278-2.5.458-1.131-.117-1.5-2.336-1.5-3.278 0-7.655 6.955-8.811 14-.531 3.231-.372 3.096 2.063-1.759 1.451-2.893 3.074-4.99 3.606-4.661.593.366.612 1.048.05 1.759-.505.639-1.462 2.848-2.126 4.911-.665 2.062-1.548 3.75-1.964 3.75-.772 0-1.119 1.774-1.118 5.713 0 1.547-.447 2.042-1.485 1.643-3.131-1.201-1.3 1.38 2.489 3.51 3.079 1.73 4.806 2.078 7.66 1.543 2.85-.535 3.963-.312 4.909.982 1.099 1.503 1.287 1.419 1.852-.832 1.394-5.555 7.604.874 7.604 7.871 0 2.549.496 3.466 2.101 3.886 2.834.741 1.812 2.035-3.632 4.593-2.505 1.178-4.281 2.586-3.946 3.128.582.941-8.515 5.543-17 8.601-3.953 1.425-3.996 1.413-7.04-1.852C233.408 52.414 228.602 46 229.402 46c.351 0-.337-1.912-1.53-4.25-1.192-2.337-2.069-4.378-1.948-4.535.384-.496-4.242-9.561-5.867-11.499-.856-1.022-3.085-3.446-4.953-5.387-2.697-2.804-3.109-3.713-2-4.414 1.127-.714 1.07-.887-.299-.9-1.108-.01-2.982-2.617-5.402-7.515L203.696 0H0v73.881m.475.619c0 40.7.124 57.204.275 36.676.151-20.528.151-53.828 0-74C.598 17.004.475 33.8.475 74.5M329.5 42c.34.55.141 1-.443 1-1.152 0 .076 2.472 6.841 13.769 3.571 5.964 4.606 7.057 5.769 6.092.941-.781 1.083-1.511.422-2.172-.614-.614-.649-1.643-.09-2.687.498-.931 1.131-2.935 1.407-4.454.468-2.586.308-2.733-2.527-2.317-2.58.379-3.386-.083-5.453-3.125-1.334-1.964-2.426-4.167-2.426-4.897 0-.73-.45-1.049-1-.709-.55.34-1 .141-1-.441S330.523 41 329.941 41s-.781.45-.441 1m82.618.886c-1.105.716-.99 1.02.573 1.516 2.42.768 2.458 5.671.065 8.315-1.998 2.208-1.003 4.373 4.15 9.032 3.863 3.492 4.635 3.803 5.594 2.251.34-.55-.196-1.002-1.191-1.004-1.181-.003-.365-.963 2.35-2.764 3.794-2.517 4.037-2.927 2.767-4.664-1.751-2.395-.23-4.568 3.196-4.568 1.687 0 2.378.564 2.378 1.941 0 1.068.45 2.219 1 2.559 1.13.699 1.265-.909.359-4.291-.427-1.594-1.238-2.203-2.663-2-1.566.222-2.246-.46-2.885-2.895-.459-1.753-1.617-3.375-2.573-3.604-3.403-.818-11.761-.706-13.12.176M126.322 61.638c-2.097.856-9.918 9.181-11.137 11.856-1.43 3.138-1.485 3.809-.247 3.044.516-.319 3.043 2.675 5.617 6.652 2.689 4.158 4.203 7.391 3.561 7.605-1.511.503-1.418 3.898.134 4.871.688.431 2.878.896 4.867 1.034l3.617.25-2.467-6.725c-1.357-3.699-2.61-8.075-2.786-9.725-.175-1.65-.918-5.212-1.65-7.916-1.058-3.907-1.074-5.002-.081-5.333.688-.23 1.25-1.19 1.25-2.134 0-.945.54-2.257 1.2-2.917 1.202-1.202.331-1.463-1.878-.562m53.86 8.52c-3.657 2.341-8.545 11.539-9.747 18.342l-.707 4 2.636-2.802c1.45-1.54 2.636-3.212 2.636-3.715 0-1.573 6.155-8.005 7.101-7.421.494.306.957-.033 1.028-.753.322-3.268.678-9.807.532-9.792-.088.009-1.654.973-3.479 2.141M363 90.265c-1.375.568-3.085 1.154-3.799 1.302-1.768.368-8.168 5.13-13.928 10.364-2.23 2.026-2.164 4.741.154 6.283.59.392 1.129 1.179 1.198 1.75.283 2.345.448 2.47 1.375 1.036.84-1.3.971-1.28.985.152.015 1.694 5.843 4.399 6.927 3.216.323-.353-.002-.852-.723-1.109-1.015-.361-.928-.889.384-2.339.932-1.03 2.154-1.589 2.715-1.242.628.388.71.127.212-.678-.572-.926-.422-1.07.515-.49.987.609 1.145.35.621-1.016-.417-1.086-.194-2.149.545-2.606.686-.424 1.314-1.81 1.394-3.08.333-5.241 1.752-9.892 3.281-10.747 2.441-1.367 1.012-1.98-1.856-.796m131 39.457c-8.08 2.162-12.59 6.165-12.099 10.739.03.271-1.061 1.608-2.424 2.971-1.362 1.362-2.477 2.948-2.477 3.523 0 .575-.466 1.045-1.035 1.045-.714 0-.714-.601 0-1.934 1.306-2.44 1.334-4.075.035-2.066-.646 1-.974 1.083-.985.25-.008-.687-.803-1.214-1.765-1.171-1.112.05-1.279.268-.459.597.925.371.67 1.057-.903 2.421L469.694 148h2.153c1.184 0 2.153.488 2.153 1.083 0 .596.555.899 1.233.673.678-.226 1.758.601 2.4 1.838.99 1.907.345 4.658-4.233 18.061-5.698 16.685-6.16 18.872-4.15 19.683.789.318.645.533-.393.583-1.683.081-2.857 2.046-2.857 4.783 0 1.256.277 1.311 1.5.296 2.049-1.701 1.898-.098-.21 2.232-1.476 1.631-1.51 2.017-.25 2.814 1.206.763 1.146.926-.349.939-.995.008-1.562.414-1.261.902.301.487-.118 1.439-.931 2.114-.985.817-1.264 2.11-.835 3.863.822 3.364 2.008 4.12 6.336 4.042 1.925-.035 2.905-.302 2.179-.592-.727-.291 1.695-1.582 5.381-2.871 3.687-1.288 7.805-3.377 9.152-4.642 2.346-2.204 2.506-2.224 3.787-.472 1.048 1.434 1.756 1.605 3.278.79 1.842-.986 1.951-2.458 2.144-29.044l.203-28.006-2.562-.643c-2.673-.671-2.942-1.404-1.917-5.233.387-1.445 1.143-2.105 2.024-1.766 1.84.706 2.53-1.274 2.144-6.152-.232-2.937-.699-3.851-1.813-3.553M314.227 148.75c.246 3.628.837 5.75 1.603 5.75 1.718 0 6.395 10.542 5.878 13.248-.616 3.224.936 2.79 1.785-.498 1.257-4.875 1.59-10.918.509-9.25-.719 1.11-1.008.396-1.112-2.75-.077-2.338-.253-4.7-.39-5.25a20.114 20.114 0 01-.375-2.059c-.069-.582-.582-.776-1.141-.431-.56.346-2.164.836-3.565 1.091-2.348.425-2.511.223-2.071-2.57.263-1.667.03-3.031-.516-3.031-.588 0-.835 2.347-.605 5.75m-185.921 4.894c-.656.267-.922 1.244-.59 2.171.331.927.252 1.369-.176.983-.428-.387-1.446-.035-2.261.781-2.023 2.023.001 12.738 3.899 20.642 1.552 3.147 2.806 6.297 2.786 7-.054 1.877-6.925 6.779-9.503 6.779-1.219 0-2.772.67-3.452 1.489-.68.819-1.747 1.197-2.372.84-.625-.357-.827-.305-.447.117.379.422-.15 1.668-1.177 2.77-1.026 1.102-1.626 2.629-1.333 3.394.315.819-.104 1.39-1.021 1.39-1.903 0-.36 5.731 2.069 7.683.81.651 1.186 1.647.836 2.214s.167 1.863 1.15 2.881c.982 1.018 2.644 3.51 3.693 5.537 1.851 3.576 4.416 5.272 3.206 2.12-.471-1.228-.138-1.419 1.545-.885 1.704.541 2.017.349 1.525-.935-.341-.888-.184-1.615.348-1.615.533 0 .877-.338.764-.75-.295-1.08 7.103-12.25 8.114-12.25.466 0 1.355-3.409 1.975-7.575 1.436-9.659 2.387-11.425 6.151-11.425 1.631 0 2.965.408 2.965.906 0 .499.875.678 1.944.398 1.799-.47 1.61-1.152-2.52-9.113-2.456-4.733-5.356-9.554-6.444-10.713-1.089-1.159-1.98-2.578-1.98-3.153 0-1.272-7.209-12.357-7.964-12.246-.295.043-1.073.297-1.73.565M.476 259.5c0 43.45.123 61.079.274 39.176.15-21.904.15-57.454 0-79C.599 198.129.476 216.05.476 259.5m423.878-54.774c-.375 1.494-1.118 2.195-1.977 1.865-.758-.291-1.377-.092-1.377.44 0 .533-1.602.969-3.559.969s-3.317.392-3.021.871c.296.479-1.287 1.116-3.518 1.415-4.69.629-8.724 3.575-6.676 4.875.977.62.924.819-.226.855-1.23.039-1.192.282.216 1.351 1.845 1.402.578 6.161-4.128 15.508-1.004 1.994-2.142 5.798-2.53 8.454-.488 3.35-1.101 4.677-1.998 4.332-.813-.312-1.756.903-2.536 3.267-1.168 3.539-1.084 3.921 1.412 6.417 1.46 1.46 3.309 2.655 4.109 2.655.8 0 1.343.506 1.205 1.125-.258 1.16 1.615 1.961 9.084 3.882 3.106.799 4.177 1.522 3.781 2.554-.685 1.784-.508 1.784 2.949-.01 1.536-.797 3.162-1.22 3.614-.941.452.28.822.043.822-.525 0-.569 1.356-1.735 3.012-2.591 2.242-1.159 3.317-2.697 4.203-6.008.719-2.689 1.484-3.973 1.933-3.246 1.713 2.771 2.065-.759.915-9.173-.674-4.937-.934-9.897-.577-11.022.357-1.125.264-2.045-.207-2.045s-.883-4.387-.917-9.75c-.111-17.465-.158-17.917-1.847-17.917-.858 0-1.831 1.077-2.161 2.393m-90.08 4.397c-1.775.995-6.05 2.537-9.5 3.425-15.764 4.058-34.028 10.706-34.513 12.564-.29 1.108-.95 1.566-1.625 1.127-.625-.407-2.716-.758-4.647-.782-1.93-.024-4.144-.435-4.919-.914-1.067-.659-1.25-.454-.751.845.391 1.019.257 1.468-.33 1.105-1.59-.982-1.142.746 1.168 4.507 1.225 1.994 2.336 2.959 2.582 2.244.237-.691.818-1.018 1.29-.726.471.291 2.923.685 5.449.874 6.347.475 6.377.935.284 4.373-5.491 3.099-8.954 6.235-6.884 6.235 1.397 0 1.507 7.644.122 8.5-.55.34-1 1.491-1 2.559s.45 1.941 1 1.941 1.007.563 1.015 1.25c.035 2.798 1.735 4.202 3.409 2.813.867-.719 1.576-.858 1.576-.308s-.632 1.525-1.405 2.166c-.773.642-1.257 1.934-1.077 2.873.181.938.37 2.831.421 4.206.065 1.768.34 2.109.938 1.165 1.221-1.927 1.419-1.899 4.085.585 1.328 1.238 2.728 2.25 3.11 2.25.382 0 .93.9 1.218 2 .346 1.326 1.364 2 3.018 2 1.791 0 3.077.987 4.559 3.5 1.959 3.319 2.365 3.508 7.849 3.658 3.181.086 6.459.093 7.284.014 4.74-.454 7.732-.398 9.536.178 1.585.505 2.035.206 2.035-1.351 0-1.328-.666-1.999-1.985-1.999-1.545 0-1.719-.267-.786-1.2.66-.66 1.193-3.697 1.185-6.75-.01-3.552-.33-5.054-.889-4.172-.48.758-1.342 1.088-1.915.734-.574-.355-1.355-.139-1.737.478-.494.799-.932.739-1.516-.207-.487-.788-.334-1.641.375-2.091.846-.539.747-.766-.339-.777-2.597-.026-1.771-3.852 1.088-5.037 1.443-.597 3.484-2.781 4.536-4.852 1.052-2.07 2.362-3.785 2.912-3.809.55-.024 1.444-1.005 1.987-2.18 1.332-2.883 2.1-2.69 2.052.515-.021 1.459.553 2.856 1.276 3.105.998.344 1.157-.388.66-3.037-.4-2.133-.231-3.753.435-4.164 1.732-1.071 1.263-2.56-.584-1.851-1.341.515-1.516.26-.88-1.281.435-1.058.814-2.467.84-3.13.026-.663.422-.974.881-.691.458.283.84-.524.848-1.794.012-1.713.242-1.951.893-.924.855 1.351 3.092-1.238 3.092-3.579 0-1.811-4.212-3.578-5.119-2.148-.655 1.034-.854.941-.866-.408-.008-.963.487-1.75 1.102-1.75.669 0 .913-1.065.608-2.661-.565-2.954.967-8.339 2.373-8.339.496 0 .849-.338.784-.75-.402-2.543.167-3.601 1.318-2.45 1.633 1.633 2.8 1.508 2.8-.3 0-.825-.477-1.5-1.059-1.5s-.81-.403-.506-.895c.305-.493-.119-1.153-.941-1.469-.822-.315-1.494-1.154-1.494-1.864 0-2.739-3.329-3.556-6.726-1.649m-71.024 26.539c-.687.278-1.25 1.142-1.25 1.921 0 .78-.337 1.429-.75 1.444-.413.015-1.853 1.815-3.201 4-2.536 4.11-3.513 4.598-6.026 3.008-1.018-.643-2.061-.406-3.355.766-1.033.934-2.136 1.474-2.451 1.199-.634-.553-2.132 3.936-2.779 8.329-.522 3.538-1.208 4.671-2.829 4.671-.699 0-1.738 1.913-2.307 4.25-.57 2.337-1.36 5.15-1.757 6.25-.544 1.509-.072 1.296 1.923-.871 1.506-1.635 2.523-3.786 2.364-5-.153-1.171.147-2.129.668-2.129s.815 1.125.653 2.5l-.293 2.5 1.676-2.32c1.766-2.445 8.172-2.402 11.238.076 1.549 1.251 1.573 1.226 3.818-3.756.991-2.2 2.012-4.45 2.268-5 .256-.55-.283-.382-1.197.372-1.458 1.204-1.663 1.115-1.663-.724 0-1.307 1.103-2.667 2.929-3.611 1.611-.833 3.216-2.42 3.568-3.526.351-1.106 1.04-2.011 1.532-2.011s1.399-1.876 2.016-4.168c1.704-6.327-.415-9.937-4.795-8.17m-65.85 13.116c-1.545 1.014-3.651 5.222-2.614 5.222.471 0 .894 2.363.941 5.25l.084 5.25-.72-4.231c-.887-5.208-1.611-6.034-3.006-3.427-1.196 2.234-.42 5.483 1.087 4.552.529-.327.878.013.776.756-.685 4.99.109 8.068 1.956 7.585 1.595-.417 2.011.212 2.559 3.864.627 4.187 1.957 5.181 3.881 2.901.488-.578.599-.24.262.802-.321.991-.178 1.552.317 1.246.495-.306 1.204 1.243 1.575 3.443.789 4.67 2.296 6.011 4.053 3.609.955-1.307 1.385-1.401 1.839-.403.325.717.306.182-.043-1.189-.567-2.224-.459-2.346 1.009-1.128 1.516 1.259 2.096.857 1.738-1.204-.079-.454.318-.54.881-.191.564.348 1.025.207 1.025-.315 0-.521 1.688-1.28 3.75-1.687 2.063-.407 3.213-.936 2.556-1.176-.656-.24-.944-1.088-.638-1.884.306-.797.059-2.047-.547-2.778-.607-.731-.808-1.625-.446-1.987.362-.362.194-.658-.372-.658-.567 0-1.805-2.026-2.75-4.502-.946-2.476-2.579-5.103-3.63-5.839-1.051-.736-1.576-1.708-1.167-2.159.409-.451.177-.494-.515-.096-1.628.938-5.446-.263-4.697-1.476.316-.51-.128-.928-.985-.928-.932 0-1.559-.871-1.559-2.167 0-1.191-.296-1.87-.658-1.508-.362.362-1.262.156-2-.456-1.074-.892-1.373-.441-1.499 2.259-.129 2.774-.262 2.535-.75-1.35-.391-3.11-.969-4.476-1.693-4m176.899 15.182c-5.143 3.135-9.658 13.824-6.974 16.508 1.9 1.9 9.675 3.234 9.675 1.66 0-.62-.9-1.128-2-1.128-1.955 0-2.742-1.419-1.25-2.253.413-.23.188-.282-.5-.114-2.633.641-1.066-3.468 3.25-8.524 6.503-7.619 5.376-10.769-2.201-6.149M110 279.096c-9.228 2.415-10.591 2.991-11.842 5.008-1.123 1.81-1.123 2.306 0 3.03 1.044.674 1.069 1.043.114 1.661-.905.587-.708 1.17.75 2.221 2.4 1.73 2.469 3.112.361 7.284-2.398 4.746-5.365 7.629-7.239 7.033-1.417-.449-1.437-.373-.144.557 1.252.901 1.138 1.082-.691 1.095-2.984.021-3.822 1.717-1.251 2.533 1.247.396 1.871 1.225 1.55 2.06-.595 1.552 3.713 6.768 4.742 5.739.357-.358.65-.03.65.729 0 .758 1.332-.18 2.959-2.084 2.403-2.811 2.967-3.102 3-1.545.023 1.054.334 1.623.692 1.265.358-.358 1.186.08 1.839.974 1.087 1.486 1.241 1.488 1.804.021.394-1.028-.315-2.335-1.974-3.64-3.083-2.425-1.324-2.741 2.243-.404 2.306 1.511 2.382 1.802 1.021 3.879-1.344 2.052-1.277 2.428.787 4.367 1.242 1.166 2.791 2.121 3.443 2.121.653 0 1.186.422 1.186.938 0 1.432 5.542 7.186 6.245 6.484.34-.34.375-1.249.079-2.02-.352-.918.161-1.402 1.487-1.402 5.352 0 6.754-2.405 2.439-4.182-1.904-.784-2.27-1.249-1.19-1.512 2.159-.525 13.364 2.488 13.773 3.703.184.545.773.991 1.309.991.537 0 .698-.45.358-1-.34-.55.421-1.036 1.691-1.079 1.27-.043 1.747-.306 1.059-.583-.687-.278-1.25-1.78-1.25-3.338s.563-3.06 1.25-3.338c.895-.361.912-.527.063-.583-.802-.053-.995-1.265-.594-3.734.392-2.418.24-3.437-.451-3.011-.64.396-1.307-1.187-1.724-4.094-1.407-9.812-3.75-14.893-4.837-10.49-.237.962-.331.738-.208-.5.133-1.341-.326-2.25-1.138-2.25-.748 0-1.361-.659-1.361-1.465 0-1.97-3.462-3.823-9.419-5.041-2.705-.553-5.126-1.629-5.379-2.389-.28-.838-.016-1.108.668-.685.622.384 1.13.221 1.13-.361s1.013-1.062 2.25-1.065c2.061-.006 2.01-.132-.614-1.5-3.197-1.668-4.567-1.724-9.636-.398m101.75 7.476c-2.869 1.556-3.453 2.875-1.742 3.933.624.385.43 1.2-.51 2.139-.834.835-1.261 1.931-.948 2.437.514.831-.866 1.343-2.8 1.037-.412-.065-.75.551-.75 1.369 0 .817-1.495 2.111-3.323 2.874-1.827.764-4.992 2.855-7.033 4.647-3.985 3.499-5.876 3.692-2.693.275 1.916-2.056 1.912-2.076-.51-2.539-1.343-.257-2.441-.141-2.441.256s-1.125.508-2.5.245c-1.862-.356-2.5-.051-2.5 1.197 0 .922.45 1.398 1 1.058.97-.599 1.404.703 1.078 3.234-.097.76.481.989 1.506.595 1.545-.592 1.548-.46.037 1.846-.895 1.367-1.326 2.786-.958 3.155.369.368-.08.67-.996.67-1 0-1.667.8-1.667 2 0 1.1.408 2 .906 2 .499 0 .691.826.426 1.837-.315 1.206.403 2.414 2.094 3.523 2.73 1.788 3.406 3.645 1.324 3.633-.687-.004-2.327-1.589-3.644-3.522-1.317-1.934-2.603-3.307-2.858-3.053-.255.255-1.647-.635-3.095-1.977-4.726-4.382-5.774-2.644-1.403 2.326 1.512 1.72 3.93 4.629 5.372 6.466 2.089 2.661 7.833 5.122 6.349 2.719-.211-.34.272-.619 1.073-.619.801 0 1.456.406 1.456.901s.956.597 2.125.226c1.43-.454 1.902-.312 1.441.433-.376.609-.245 1.107.292 1.107.536 0 1.125-.419 1.309-.932.197-.551 1.762-.593 3.833-.102 1.925.456 2.938.932 2.25 1.057-.687.125-1.7.34-2.25.477-.55.137-2.665.306-4.7.375-2.227.075-3.322.482-2.75 1.022.534.504 3.799.564 7.45.137 3.575-.418 5.911-.822 5.191-.897-.72-.075-1.053-.551-.74-1.058.479-.775 11.018-.781 12.549-.006.275.139-1.975.556-5 .927l-5.5.674 5.527.163c7.232.213 11.022-2.02 8.381-4.938-1.165-1.288-1.312-1.899-.456-1.899.694 0 1.016-.642.714-1.427-.683-1.781 1.856-4.156 2.804-2.622.356.577.059 1.056-.661 1.064-.951.011-.899.281.191.985.825.533 1.05.983.5 1-.55.017-.325.457.5.979 2.569 1.624 3.15-2.184.642-4.207-1.725-1.391-1.825-1.732-.514-1.75.895-.012 2.196.663 2.891 1.501.698.841 2.057 1.27 3.038.959.976-.31 2.064-.095 2.418.477.354.573.097 1.041-.571 1.041-.736 0-.464.84.691 2.133 1.888 2.114 1.885 2.127-.345 1.433-1.931-.601-2.25-.337-2.25 1.867 0 1.412-.395 2.567-.878 2.567-2.456 0-8.363 3.233-7.21 3.946.941.581.831.939-.441 1.427-1.283.492-1.428.974-.592 1.981 1.083 1.305.569 2.646-1.014 2.646-.441 0-.543-.675-.227-1.5.669-1.742-.743-1.995-2.322-.416-1.424 1.424-.477 4.916 1.332 4.916.778 0 1.673-.672 1.988-1.494.316-.822.934-1.272 1.375-.999 1.083.669-.035 4.655-1.803 6.425-1.24 1.242-1.216 1.589.181 2.611.886.647 1.611 1.642 1.611 2.21 0 2.742 5.842 2.404 8.981-.52 1.277-1.19 2.665-1.952 3.085-1.692.675.417 1.455-5.61 2.333-18.041.155-2.2-.335-5.482-1.09-7.294-.755-1.812-1.131-3.686-.835-4.165.296-.478-.027-1.129-.718-1.446-.691-.317-.131-.326 1.244-.02 1.958.435 2.175.325 1-.509-1.333-.948-1.333-1.175 0-2.051.825-.541 1.05-.998.5-1.015-.55-.017-.463-.372.194-.79 1.857-1.18 3.506-9.501 1.75-8.827-1.05.403-1.236-.172-.786-2.425.325-1.624.15-3.517-.388-4.206-1.998-2.554-3.139-7.483-1.996-8.626.601-.601.761-1.425.355-1.83-.406-.406-1.139-.089-1.629.704-1.288 2.085-1.979.899-2.16-3.707l-.158-4.039-5.565 1.294c-3.06.711-5.863 1.109-6.227.884-.365-.226-1.219.26-1.899 1.079-.68.819-2.418 1.475-3.863 1.459-2.268-.027-2.388-.171-.878-1.05 1.715-.999 2.478-3.959 1-3.88-.412.022-1.988.711-3.5 1.532m79.698 6.312c-8.909 4.047-12.593 7.027-12.259 9.917.256 2.221.753 2.65 2.811 2.42 1.375-.154 2.651-.719 2.835-1.257.185-.537.773-.706 1.307-.376 2.463 1.522 5.858-.607 5.858-3.673 0-3.622 1.714-7.21 3.05-6.384.523.323.95-.115.95-.972 0-1.885.373-1.912-4.552.325M474 314.202c-2.475.543-5.21 1.62-6.079 2.393-.868.773-2.069 1.405-2.668 1.405-.6 0-2.085 1.61-3.301 3.578-2.011 3.254-2.55 3.539-5.938 3.148-2.05-.237-4.167-.702-4.705-1.035-1.834-1.134-9.519 7.796-9.148 10.63.52 3.964-6.202 12.147-11.704 14.248-2.429.928-4.174 2.08-3.878 2.559.297.48-.275.887-1.27.906-.995.019-3.609.903-5.809 1.966-5.911 2.855-10.121 2.647-10.921-.541-.36-1.433-1.099-2.256-1.695-1.887-1.132.699-8.884-2.412-8.884-3.565 0-.38-2.066-.721-4.591-.76l-4.59-.069 2.265 2.411c1.271 1.354 1.724 2.411 1.031 2.411-.678 0-.936.481-.573 1.068.363.588 1.275.832 2.027.544.752-.289 1.633-.094 1.958.432.325.526.084.956-.536.956s-.166 1.35 1.009 3c1.175 1.65 1.67 3 1.099 3-.57 0-.777.675-.461 1.5.317.825.964 1.5 1.438 1.5.473 0 .574-.749.223-1.664-.446-1.161-.265-1.433.599-.899.681.421.988 1.418.682 2.216-.352.917-.137 1.191.586.744.752-.464.866-.258.334.603-.498.806-.416 1.066.215.676.563-.348 2.558.859 4.435 2.681 4.682 4.548 13.85 3.899 13.85-.979 0-.758.563-1.447 1.25-1.53.688-.084 1.7-.224 2.25-.311.55-.088 3.594-.502 6.764-.922 3.169-.419 5.505-1.179 5.19-1.689-.314-.509-.122-.926.428-.926s1.292.472 1.648 1.049c.409.661 1.077.703 1.809.113.639-.515 3.186-1.265 5.661-1.667a415.08 415.08 0 006.227-1.051c2.395-.444 9.029-6.744 15.027-14.272 3.852-4.835 6.347-6.905 10.568-8.772 6.166-2.727 14.268-8.909 13.91-10.614-.127-.61.893-1.441 2.268-1.848 1.837-.543 2.003-.765.628-.838-1.508-.081-1.642-.379-.686-1.53 1.54-1.856-1.089-3.354-7.402-4.22-3.931-.538-4.54-.939-4.54-2.986 0-1.3-.337-2.316-.75-2.257-.413.059-2.775.552-5.25 1.095m-196.347 9.629c-.912 1.007-1.356 2.132-.989 2.5.368.368-.294.669-1.472.669-1.367 0-2.701 1.084-3.692 3-1.087 2.103-2.289 3-4.017 3-1.383 0-3.015.878-3.715 2-.687 1.1-2.055 2-3.039 2-1.536 0-1.765.831-1.614 5.86.097 3.223-.141 6.373-.529 7-.387.627-.227 1.14.355 1.14s1.059-.761 1.059-1.691c0-1.475.18-1.445 1.411.239.777 1.061 1.2 2.272.941 2.691-.258.419.055.761.696.761.641 0 .907-.675.59-1.5-.316-.825-.139-1.5.393-1.5.533 0 .969.406.969.901 0 1.104 9.017 10.099 10.124 10.099.437 0 1.89 1.181 3.229 2.625 2.721 2.934 5.38 2.521 3.469-.539-.626-1.002-.811-2.668-.412-3.704.653-1.696.992-1.555 3.428 1.425 2.886 3.53 5.578 3.607 6.663.191.317-1 1.318-2.421 2.225-3.158 1.451-1.18 1.557-1.101.887.66-1.294 3.399-1.179 3.908.887 3.941 1.51.024 1.964-.577 1.855-2.454-.304-5.199-.384-8.707-.352-15.487.019-3.85-.446-9.312-1.032-12.138-1.098-5.292-4.175-9.458-5.456-7.386-.376.608-1.602.814-2.724.458-1.123-.357-1.791-.243-1.485.251.305.495-.734.998-2.309 1.118-3.748.286-4.606-1.263-1.791-3.235l2.239-1.568h-2.568c-1.412 0-3.313.824-4.224 1.831m-120.565 36.962c-1.906.307-2.116.593-1 1.363 1.027.709.797.802-.844.34-2.183-.614-16.726 7.416-24.572 13.568-3.138 2.46-5.071 6.481-3.972 8.26.445.72.963.217 1.374-1.334.637-2.406.716-2.36 2.351 1.367 1.592 3.63 1.59 3.969-.022 5.75-1.628 1.8-1.61 1.893.365 1.893 1.143 0 3.463 1.385 5.155 3.077 1.699 1.699 3.077 2.479 3.077 1.74 0-.735.9-1.898 2-2.585s2-1.87 2-2.629c0-.76.773-1.318 1.718-1.242 1.074.087 5.011-3.98 10.5-10.845 8.888-11.117 9.992-12.917 7.282-11.878-1.741.668-1.888-.045-.532-2.578 1.266-2.365-1.528-4.808-4.88-4.267m-38.957 4.172c-1.409.953-.679 6.433 1.096 8.236.95.964 1.492 2.367 1.205 3.116-.871 2.269 2.149 4.113 4.119 2.516 4.999-4.052 8.449-7.701 8.445-8.934-.006-2.49-12.398-6.603-14.865-4.934m-58.456.693c-.362.362-.159 1.259.451 1.994.61.735.894 2.464.63 3.842-.349 1.828-.043 2.515 1.133 2.539 1.265.026 1.127.437-.639 1.911-1.237 1.032-2.25 2.592-2.25 3.466 0 .921-.838 1.59-1.99 1.59-1.869 0-1.89.117-.342 1.926 1.608 1.877 1.767 1.826 6.305-2 2.561-2.159 5.077-3.936 5.591-3.948.515-.012 2.022-.857 3.349-1.878l2.414-1.855-2.249-1.203c-1.237-.662-2.466-.988-2.73-.723-.265.265-2.011-1.049-3.881-2.919-3.414-3.414-4.572-3.962-5.792-2.742M107 380c-.825.533-2.947.976-4.717.985-2.382.011-4.53 1.182-8.283 4.515-2.787 2.475-5.614 4.482-6.283 4.459-.67-.022.358-1.425 2.283-3.117l3.5-3.077-2.99.697c-1.644.383-3.219.998-3.5 1.367-.691.908-4.031 2.968-6.679 4.118-1.193.518-2.543 1.53-3 2.248-.457.718-1.281 1.339-1.831 1.38-2.158.161-7.5 2.67-7.5 3.523v1.652c0 .413.563.75 1.25.75.688 0 1.867 1.799 2.621 3.998.755 2.199 2.465 5.011 3.802 6.25 2.548 2.361 3.876 2.95 2.827 1.252-.868-1.404.668-1.246 4.846.5 1.974.825 4.842 1.559 6.372 1.632 2.543.12 2.482.195-.718.879-2.074.442 1.797.67 9.5.557 7.15-.104 15.802.328 19.227.96 7.176 1.325 10.179.35 14.082-4.573l2.308-2.913-3.983-.637c-3.06-.489-3.844-.997-3.385-2.194.442-1.151.157-1.389-1.088-.911-1.385.531-1.575.206-1.065-1.827.395-1.573.196-2.473-.547-2.473-.642 0-.892-.445-.556-.989.336-.543.025-.842-.691-.663-.716.178-1.03.157-.697-.047.332-.204.435-1.593.228-3.086-.354-2.559-.319-2.586.613-.465 1.09 2.478 2.615 3.154 1.692.75-.316-.825-.139-1.5.393-1.5a.972.972 0 00.969-.969c0-.532-.786-.667-1.747-.298-1.638.629-1.646.515-.113-1.823 1.693-2.584.306-7.715-2.172-8.035A21.102 21.102 0 01120 382.5a37.4 37.4 0 00-1.75-.39c-.412-.077-.088-.559.721-1.071.809-.512 1.246-1.155.971-1.43-1.5-1.501-3.392 1.411-2.184 3.36 1.416 2.284.02 2.814-2.758 1.046-1.24-.789-1.282-1.306-.242-2.984 1.181-1.905 1.026-2.03-2.5-2.016-2.067.009-4.433.452-5.258.985M.467 445.5c0 30.25.127 42.769.282 27.821.156-14.949.156-39.699 0-55C.594 403.019.467 415.25.467 445.5m469.105-26.616c-.398.643-1.251 1.104-1.897 1.024-3.289-.406-3.391.239-1.235 7.842 2.714 9.571 4.268 12.576 6.137 11.859.783-.3 1.423-.148 1.423.339s-.55 1.069-1.222 1.293c-.774.258-.195 1.432 1.579 3.207l2.801 2.801 1.479-2.85c.813-1.567 1.282-3.602 1.042-4.52-.263-1.003.446-2.143 1.775-2.855 2.797-1.496 2.877-4.019.129-4.039-1.535-.012-1.729-.24-.739-.868 2.098-1.329-1.29-7.028-4.932-8.297-1.627-.568-3.557-2.174-4.288-3.569-.878-1.675-1.575-2.139-2.052-1.367m-426.146 4.589c-.958 1.461-2.984 2.729-4.954 3.098-4.071.764-4.983 2.657-2.405 4.99 2.176 1.969 2.583 6.01.683 6.777-.854.344-.775.528.25.579 2.551.128 7.825-3.676 10.219-7.371 1.254-1.937 2.844-3.527 3.531-3.534 1.651-.016 1.579-1.194-.218-3.571-1.136-1.501-1.49-1.601-1.564-.441-.056.886-.465.579-.999-.75-1.171-2.914-2.532-2.847-4.543.223m99.621 38.69l-2.421 1.96 2.218 10.189c1.22 5.603 2.707 12.663 3.304 15.688 1.65 8.361 2.582 9.006 12.481 8.646 4.6-.168 8.619-.56 8.931-.873.312-.312-.42-4.17-1.627-8.574-1.8-6.568-2.972-8.818-6.526-12.527-3.434-3.584-4.256-5.111-3.97-7.374.467-3.692-1.002-5.544-5.953-7.504-3.801-1.505-4.147-1.485-6.437.369m164.804 24.22c-1.104 1.49-1.356 2.75-.762 3.812.717 1.282.198 1.716-2.703 2.26-4.395.825-4.913.441-2.356-1.749 1.083-.927 1.97-1.241 1.97-.696 0 .544.408.99.906.99.499 0 .68-.869.402-1.931-.31-1.183-1.067-1.715-1.955-1.374-.797.306-2.136-.288-2.975-1.32-1.465-1.799-1.507-1.784-1.046.375.292 1.366.002 2.25-.739 2.25-.67 0-2.512 1.35-4.093 3s-2.313 3-1.628 3c.685 0 .968.45.628 1-.392.635 2.295 1 7.358 1 5.445 0 8.135-.397 8.48-1.25.388-.961.522-.948.583.059.043.72.577 1.001 1.186.625.771-.477.696-.944-.25-1.544-1.057-.669-.97-.863.393-.875a1.8 1.8 0 011.82 1.735c.06 1.486.192 1.448.875-.25.443-1.1.609-2.337.371-2.75-.239-.413.043-.75.625-.75s1.059-1.789 1.059-3.975c0-3.771-.122-3.929-2.373-3.073-1.305.496-2.768.52-3.25.054-.488-.473-1.608.138-2.526 1.377" fill="#d3d3d3" fill-rule="evenodd"/></svg>