<svg xmlns="http://www.w3.org/2000/svg" width="500" height="333"><path d="M0 88.071c0 98.857-.566 91.818 7.258 90.222 2.333-.476 6.267-.573 8.742-.217 2.475.357 4.765.239 5.088-.261.622-.962 12.084-1.854 25.412-1.979 4.849-.045 7.015-.348 5.5-.769-2.873-.799 10-2.187 21.5-2.319 3.85-.044 7.312-.553 7.694-1.132.382-.579 3.307-1.007 6.5-.951 3.193.056 6.317-.307 6.941-.808 1.393-1.118 2.194 1.749 3.338 11.955 1.077 9.598 5.42 18.208 13.69 27.141l6.274 6.777-8.718.683c-28.316 2.218-50.404 5.62-56.422 8.69-5.453 2.782-6.475 5.534-4.908 13.207 1.287 6.3 3.077 9.789 3.15 6.14.026-1.309.53-.819 1.533 1.493.822 1.894 1.288 3.98 1.036 4.635-.251.656.131 2.032.849 3.057.718 1.026 1.253 2.315 1.188 2.865-.236 2.007 11.665 5.673 21.676 6.676 11.993 1.201 71.889-1.213 152.679-6.154 164.235-10.045 209.989-13.736 224.064-18.078 4.285-1.322 11.951-2.339 22.936-3.044 9.075-.582 17.962-1.268 19.75-1.525l3.25-.466V196l-3.25.009c-1.788.005-11.125.889-20.75 1.964-9.625 1.076-29.213 2.492-43.529 3.148l-26.03 1.193-6.47-2.573c-3.559-1.414-8.721-2.869-11.471-3.231-7.881-1.039-7.761-.749-3.609-8.712 2.092-4.014 3.65-7.748 3.46-8.298-.19-.552 1.445-1.022 3.653-1.049 2.198-.027 3.996.27 3.996.66s1.913.716 4.25.724c2.338.009 5.15.222 6.25.473 5.475 1.249 11.624 2.016 17.5 2.182 11.715.332 11.987.381 11.346 2.05-.47 1.226.112 1.492 2.859 1.307 1.898-.128 4.765.281 6.373.909 2.888 1.128 22.388 3.351 33.823 3.855 3.246.143 6.213.764 6.593 1.38.463.748 2.454.886 6 .415 3.89-.516 5.118-.397 4.598.445-.391.632-.233 1.149.349 1.149s1.059-.418 1.059-.929c0-.51.788-1.715 1.75-2.678 1.637-1.637 1.77-7.818 2.064-96.071L501.128 0H0v88.071M.479 89c0 48.675.122 68.588.271 44.25.149-24.337.149-64.162 0-88.5C.601 20.413.479 40.325.479 89m188.754 41.571c-3.907 2.857 13.985 7.343 20.956 5.254 2.096-.628 3.811-1.503 3.811-1.945 0-2.35-22.049-5.296-24.767-3.309m38.809 32.929c-.065 16.145-3.14 28.363-9.538 37.91-1.86 2.775-3.259 5.168-3.109 5.318.279.279 43.873-3.22 53.332-4.28l5.228-.586-5.008-7.131c-5.443-7.751-7.428-13.425-8.476-24.231-.692-7.13-1.891-9.226-4.187-7.32-.796.66-1.759.717-2.534.149-.687-.504-6.425-.891-12.75-.86-6.686.033-11.803-.368-12.223-.956-.397-.557-.728.337-.735 1.987" fill="#d3d3d3" fill-rule="evenodd"/></svg>