<svg xmlns="http://www.w3.org/2000/svg" width="500" height="670"><path d="M.096 335.002l-.253 335.002 250.329-.252L500.5 669.5l.077-334.75L500.654 0H.349L.096 335.002m206.145-308.66c-4.543 4.568-7.955 8.61-7.583 8.982.371.372-.075.676-.991.676-2.227 0-2.104 1.295.333 3.5 1.349 1.221 2 1.393 2 .53 0-.881.91-1.098 2.918-.696 2.3.46 3.831-.117 7.224-2.722l4.305-3.305 8.527 7.538C235.538 51.954 276.903 89.944 280.85 94c3.967 4.077 4.858 6.026 14.621 31.99 4.034 10.731 9.897 26.26 13.028 34.51 3.131 8.25 8.758 23.55 12.506 34 3.747 10.45 7.818 21.475 9.046 24.5 3.395 8.364 3.71 9.194 5.113 13.5 1.228 3.767 1.323 3.84 1.636 1.25.306-2.53 2.2-4.037 2.2-1.75 0 .55.828 1 1.839 1 1.012 0 2.353 1.125 2.979 2.5.627 1.375.786 2.5.354 2.5-.432 0-1.245 1.238-1.806 2.75l-1.02 2.75-1.823-4c-1.409-3.09-1.926-3.572-2.272-2.12-.246 1.034-.033 2.159.474 2.5.506.341 1.215 1.417 1.574 2.39.36.974 2.014 2.043 3.677 2.375 1.663.333 3.024 1.015 3.024 1.515 0 .501.904.426 2.009-.165 1.73-.926 2.158-.686 3.071 1.715.873 2.295 1.217 2.511 1.941 1.217.959-1.713-.47-6.855-6.51-23.427-2.004-5.5-6.698-18.564-10.43-29.032-3.732-10.467-8.595-23.292-10.807-28.5-2.213-5.207-4.34-10.593-4.728-11.968-.388-1.375-1.296-3.85-2.018-5.5-1.308-2.988-7.457-19.728-17.53-47.719-5.092-14.153-5.493-14.883-10.397-18.958-2.806-2.331-10.276-8.999-16.601-14.818-20.853-19.183-57.661-51.027-58.935-50.988-.311.01-4.282 3.756-8.824 8.325m-53.943 44.525l.576 4.867-13.154 12.383a12710.526 12710.526 0 00-33.159 31.383 18622.329 18622.329 0 01-30.533 28.94 5622.346 5622.346 0 00-22.087 21c-6.357 6.083-13.67 12.977-16.25 15.319-5.663 5.143-5.65 4.94-.782 12.04 2.15 3.135 6.426 9.526 9.502 14.201 6.066 9.218 15.029 21.99 22.108 31.5 2.456 3.3 8.667 12.075 13.802 19.5a6536.787 6536.787 0 0016.508 23.75 5541.245 5541.245 0 0114.26 20.5c9.991 14.446 8.75 13.862 14.746 6.94 3.532-4.077 6.731-6.617 10.226-8.121 4.217-1.814 4.881-2.434 3.89-3.628-.744-.896-.803-1.441-.157-1.441.572 0 1.198.476 1.392 1.057.477 1.433 3.814.06 3.814-1.57 0-.714 1.992-1.978 4.427-2.808 5.129-1.747 11.353-5.732 11.187-7.162-.063-.541 1.467-1.24 3.4-1.554 3.702-.602 9.986-3.854 9.986-5.167 0-.426 1.012-.768 2.25-.761 1.238.008 3.375-.185 4.75-.427 1.375-.243 3.063-.479 3.75-.525.688-.045 1.25-.686 1.25-1.422 0-1.547 4.702-3.963 6.068-3.119.905.559 8.371-2.807 18.741-8.45l5.308-2.889-3.162-3.601c-1.739-1.981-3.974-3.602-4.966-3.602s-11.183 4.548-22.647 10.107c-11.463 5.559-23.092 10.995-25.842 12.081-2.75 1.085-10.449 4.862-17.108 8.393-14.002 7.423-14.332 7.485-16.877 3.169-3.4-5.764-8.676-12.204-11.464-13.992-2.593-1.663-2.805-1.66-4.634.08-1.873 1.78-2.114 1.532-10.439-10.758-4.687-6.919-13.271-19.33-19.076-27.58-18.775-26.685-20.284-28.865-26.591-38.411l-6.217-9.412 2.203-2.613c2.152-2.554 32.253-32.092 38.203-37.49 23.13-20.983 56.774-54.321 56.032-55.522-.357-.578-.194-1.052.364-1.052.557 0 2.116-1.012 3.463-2.25 4.639-4.26 5.151-4.5 8.263-3.875.343.069.179.688-.363 1.375-1.666 2.111-1.09 4.75 1.035 4.75 2.294 0 1.827-6.046-.887-11.486-.841-1.686-1.073-3.125-.534-3.305.602-.201.611-1.503.024-3.514-.651-2.233-.558-3.903.309-5.546 1.066-2.021.972-2.546-.674-3.75-3.753-2.743-4.862-1.835-4.234 3.468M.493 371c0 164.725.116 232.113.257 149.75.141-82.362.141-217.137 0-299.5C.609 138.888.493 206.275.493 371M212 101.064c0 1.234 4.669 6.096 9.672 10.073 3.481 2.766 7.946 2.915 6.916.232-.289-.753-.142-1.369.327-1.369 1.539 0 1.909-3.901.482-5.086-1.098-.911-1.397-.812-1.397.464 0 2.212-2.607 2.038-6.038-.405-4.15-2.955-9.962-5.236-9.962-3.909m31 120.713c0 1.528.698 3.775 1.552 4.994.853 1.218 2.221 4.581 3.039 7.472 4.503 15.922 6.766 21.834 8.152 21.302.781-.3 1.984-.545 2.672-.545 1.977 0 9.585-7.503 9.585-9.453 0-1.098.527-1.559 1.399-1.224 1.001.384 1.525-.508 1.845-3.143.417-3.442-.712-5.627-2.377-4.598-.401.248-.999.013-1.33-.522-.331-.535-1.374-.701-2.319-.369-1.401.492-1.487.355-.468-.744.688-.741 1.214-2.269 1.171-3.397-.043-1.127-.295-1.52-.559-.873-.352.862-1.271.902-3.434.148-1.624-.566-3.639-.766-4.478-.444-2.242.86-2.878-1.932-1.039-4.557 1.98-2.828 2.287-6.094.339-3.616-1.618 2.058-5.398 3.171-6.225 1.833-.354-.573-1.464-1.041-2.467-1.041-1.004 0-2.06-.9-2.348-2-.777-2.974-2.71-2.419-2.71.777m-26.843 57.473c-6.844 7.231-8.084 9.316-9.751 16.395-2.297 9.76-1.44 32.754 1.635 43.853 2.107 7.604 2.173 8.959 1.338 27.5-.865 19.185-.839 19.62 1.563 26.752 2.552 7.574 4.009 9.163 4.128 4.5.121-4.716 1.776-7.445 1.86-3.065.117 6.161 1.604 8.815 4.937 8.815 2.497 0 3.16-.61 4.616-4.25.936-2.337 1.65-4.367 1.589-4.51-.062-.144.58-1.599 1.425-3.235.846-1.636 1.703-4.385 1.903-6.108.201-1.724.891-3.459 1.533-3.855 1.245-.77 1.41-2.453.79-8.042-.241-2.18.311-4.75 1.464-6.815 2.371-4.245 1.516-5.543-3.232-4.906l-3.786.508.331-5.644c.283-4.817.014-5.896-1.834-7.371l-2.166-1.728 2.25-.022c1.238-.012 2.25-.458 2.25-.991 0-.532.601-.738 1.336-.456.912.351 1.256-.215 1.083-1.781-.139-1.262-.29-2.658-.336-3.103-.046-.445-.609-.484-1.253-.086-.787.486-.961.178-.531-.941.417-1.087.129-1.664-.83-1.664-.808 0-1.469-.477-1.469-1.059s.45-.781 1-.441 1-.323 1-1.472c0-2.568-2.502-3.686-4.513-2.017-1.28 1.062-1.487.589-1.487-3.389 0-3.232-.409-4.622-1.361-4.622-1.101 0-1.163-.867-.326-4.527.57-2.489 1.345-4.026 1.722-3.416.791 1.279 1.965-1.144 1.965-4.055 0-1.01.409-1.985.908-2.169 1.529-.561 1.751-4.366.237-4.048-1.868.393-4.342-1.829-3.751-3.369.283-.739-.765-1.698-2.53-2.313-1.658-.578-2.729-1.513-2.38-2.077.349-.564.189-1.026-.355-1.026-.625 0-.671-1.111-.124-3.018.476-1.661.888-3.24.914-3.511.027-.271.783-1.613 1.681-2.983s1.394-3.403 1.103-4.516c-.331-1.266.359-3.081 1.841-4.841 1.794-2.133 2.089-3.098 1.213-3.974-1.937-1.937-3.404-1.34-7.6 3.093m-8.46 132c-3.533 7.308-4.66 12.326-4.239 18.875.386 6.017 2.857 12.04 4.835 11.79 2.859-.361 4.707.174 4.707 1.363 0 1.932 3.933 4.898 5.829 4.396 1.494-.395 1.486-.454-.079-.558-2.02-.134-2.247-1.219-.601-2.865.865-.865.754-1.75-.448-3.585-.878-1.34-1.288-2.745-.911-3.122.377-.378.741-2.117.81-3.865.206-5.262.357-5.823 1.4-5.179 1.421.878 1.239-.992-.5-5.154-.825-1.975-1.5-5.055-1.5-6.846 0-1.79-.648-3.793-1.441-4.451-.792-.657-1.194-1.837-.893-2.622.302-.785.023-1.427-.618-1.427s-.888-.45-.548-1c.34-.55-.256-1-1.324-1-1.353 0-2.71 1.591-4.479 5.25m23.553 7.817c-1.238.478-2.25 1.558-2.25 2.401 0 .842-.338 1.536-.75 1.54-.886.009-3.25 4.841-3.25 6.644 0 2.513 2.291 6.191 4.162 6.68 1.421.372 1.779 1.106 1.38 2.835-.968 4.194 6.963 11.04 10.336 8.922 1.744-1.095.635-2.943-2.475-4.126-1.632-.62-2.403-1.697-2.403-3.355 0-1.343-.531-2.618-1.18-2.835-.75-.25-.891-1.1-.389-2.333.435-1.067.792-4.073.792-6.68 0-2.607.377-4.508.836-4.223 1.292.798.145-3.77-1.289-5.132-.838-.796-2.036-.911-3.52-.338m-46.542 19.023c-2.086 1.1-4.311 3.218-4.945 4.706-.634 1.487-2.311 3.829-3.726 5.204-3.591 3.489-7.037 8.529-7.037 10.289 0 .815-1.116 2.212-2.479 3.105-3.693 2.42-6.084 7.472-4.355 9.201 2.17 2.17 5.191.571 7.248-3.837 1.783-3.819 1.972-3.948 2.739-1.874.453 1.225.925 3.552 1.048 5.172.123 1.619.579 2.944 1.012 2.944.433 0 .787.62.787 1.378 0 .757.675 1.937 1.5 2.622 1.266 1.051 1.5.849 1.5-1.296 0-3.384.999-5.823 2.105-5.139.492.304.909-.036.927-.756.019-.803.643-.535 1.612.691 1.494 1.892 1.548 1.783 1-2-.318-2.2-.331-3.437-.028-2.75.303.688 1.151 1.25 1.884 1.25.733 0 1.502.506 1.708 1.125.614 1.841 6.957-.038 7.53-2.231.272-1.042 1.005-1.901 1.629-1.909.623-.009.479-.429-.319-.934-.799-.506-1.811-.697-2.25-.426-.439.271-.798-.209-.798-1.066 0-.996.902-1.559 2.5-1.559 3.111 0 3.259-1.759.25-2.969-2.163-.869-2.143-.907.5-.968 1.75-.04 2.75-.609 2.75-1.563 0-.825.563-1.514 1.25-1.53.694-.017.471-.484-.5-1.05-.963-.561-1.75-1.672-1.75-2.47 0-1.731-.493-1.792-3.125-.383-1.536.822-1.932.764-1.724-.25.148-.724-.311-2.366-1.02-3.649-1.288-2.329.458-5.04 3.308-5.136.516-.018-.028-.932-1.209-2.032-2.665-2.483-4.682-2.464-9.522.09m248.331 24.553c-.021 1.179-.814 2.44-1.761 2.804-1.475.566-1.511.794-.25 1.591 2.032 1.285-.36 1.301-4.785.032-1.783-.512-3.243-.792-3.243-.623 0 .168 2.033 6.242 4.518 13.496 2.485 7.255 4.328 13.498 4.096 13.874-.603.974-12.821.575-23.769-.777-16.364-2.021-30.241-4.09-33.68-5.022-1.834-.497-5.531-.644-8.216-.326-2.956.351-6.073.085-7.903-.673-3.326-1.378-14.046-2.166-14.046-1.032 0 .392-3.262.508-7.25.259-6.375-.399-7.548-.193-9.716 1.704-1.543 1.351-3.252 1.961-4.569 1.631-4.062-1.02-16.034-1.64-13.965-.724 1.1.488 4.925 1.159 8.5 1.492 7.38.688 15.677 1.906 28 4.111 4.675.837 14.125 2.426 21 3.532 6.875 1.106 13.85 2.439 15.5 2.961 1.65.523 13.125 2.313 25.5 3.979s26.325 3.712 31 4.547c4.675.835 9.738 1.519 11.25 1.52 2.666.001 3.671-1.312 1.86-2.431-.489-.302-1.123-2.016-1.41-3.809-.781-4.886-1.243-6.635-1.935-7.328-.345-.345-.357-1.331-.026-2.193.369-.962.19-1.312-.464-.908-.944.583-1.669-.268-2.185-2.564-.294-1.307-5.89-14.178-7.507-17.266-.864-1.65-1.573-3.961-1.577-5.135-.009-3.033-2.914-9.615-2.967-6.722M205.922 487.7c-3.426.531-5.023 10.379-4.67 28.8.219 11.479 0 13.526-1.872 17.5-4.693 9.962-8.503 21.51-9.058 27.459-.713 7.63.338 15.869 1.9 14.904.716-.443.899.067.529 1.481-.677 2.589.753 2.862 2.132.406 1.176-2.095 1.256-1.917 3.69 8.25.921 3.85 1.944 7.45 2.273 8 .329.55.693 1.63.809 2.4.117.77.629 1.67 1.139 2 1.935 1.252 4.479 7.679 4.479 11.314 0 3.453.239 3.786 2.717 3.786 6.839 0 9.283-6.887 5.502-15.5-2.787-6.348-1.965-9.573 3.045-11.95 1.905-.904 3.533-2.41 3.619-3.347.086-.937.291-2.828.456-4.203.164-1.375.356-8.684.425-16.243l.126-13.742 3.169-.828c2.95-.771 3.17-1.133 3.195-5.258.014-2.436.353-4.951.753-5.589.813-1.298-.074-4.34-1.266-4.34-1.663 0-3.748-6.591-4.576-14.465-.328-3.121-1.249-5.642-2.48-6.789-2.409-2.244-2.443-3.118-.208-5.354 1.574-1.575 2.099-3.838 2.284-9.84.086-2.774-3.474-7.085-5.674-6.872-1.022.1-2.219-.463-2.659-1.25-.771-1.378-4.032-1.622-9.779-.73" fill="#d3d3d3" fill-rule="evenodd"/></svg>