<svg xmlns="http://www.w3.org/2000/svg" width="500" height="659"><path d="M344 60.694c-.825.295-6.9 2.675-13.5 5.288-6.6 2.613-15.075 5.761-18.834 6.994l-6.833 2.243-4.167-2.968c-11.171-7.956-25.383-6.734-36.461 3.137l-3.705 3.301-8-.846c-7.693-.814-43.308-3.732-71.5-5.859-7.425-.56-15.975-1.447-19-1.972-18.906-3.279-70.13-4.467-74.317-1.724C86.207 69.255 85 70.51 85 71.076c0 .567-2.475 4.377-5.5 8.468-6.178 8.353-6.982 12.302-3.427 16.821 3.203 4.072 5.457 3.31 13.281-4.489l7.146-7.123 17 .62c9.35.342 20.262.622 24.25.624L145 86v3c0 2.987-.024 3-5.75 2.984-3.162-.009-10.912-.443-17.22-.965-13.039-1.079-17.098-.241-25.139 5.188-6.608 4.461-7.403 6.086-5.191 10.61 2.25 4.603 5.191 5.17 10.13 1.951 3.64-2.373 3.803-2.386 20.17-1.576 9.075.448 24.53 1.089 34.345 1.423l17.846.608-.572 2.638c-.315 1.452-1.078 8.714-1.696 16.139-.618 7.425-1.427 15.3-1.798 17.5l-.675 4-9.455.666c-10.963.773-14.09 2.824-13.231 8.677.51 3.475 3.266 6.533 3.979 4.415.318-.944.919-.974 2.505-.125 4.163 2.228 28.474-.666 31.94-3.803 2.423-2.193 7.263-14.25 11.155-27.791 1.823-6.342 3.516-11.732 3.763-11.978.246-.246 8.761 2.479 18.921 6.057 10.16 3.577 21.297 7.489 24.748 8.693l6.276 2.189-.133 8.5c-.074 4.675.133 9.625.459 11 .325 1.375.822 7.675 1.102 14 .896 20.17 1.716 28.48 2.884 29.235.807.521.762.739-.155.75-1.013.012-1.16 2.323-.682 10.696l.609 10.682-6.471-5.682c-3.559-3.124-6.913-5.681-7.453-5.681-.539 0-1.728-1.139-2.64-2.532-.92-1.404-2.154-2.226-2.769-1.845-.72.444-.826.225-.302-.623.503-.813.416-1.066-.228-.668-.57.352-2.173-.253-3.562-1.346-1.389-1.092-3.017-1.986-3.618-1.986-.6 0-1.092-.45-1.092-1s-.338-.902-.75-.782c-2.305.668-7.846-2.846-13.993-8.875-7.767-7.619-10.325-11.343-7.792-11.343 1.84 0 1.979-1.156.335-2.8-1.634-1.634-5.704-1.499-9.164.306-3.617 1.887-9.39 1.913-13.817.063-3.993-1.668-12.451-1.037-10.918.814.678.818-5.548 1.085-23.238.998-13.29-.065-25.099.232-26.243.661-1.208.453-2.806 2.681-3.813 5.317-1.648 4.315-1.963 4.568-6.42 5.16-2.578.342-8.625 1.266-13.437 2.052-4.813.786-10.053 1.429-11.645 1.429-3.9 0-9.105 4.883-9.105 8.541 0 1.506 2.039 6.13 4.53 10.276l4.53 7.537-3.396 3.573c-4.327 4.553-17.286 26.074-18.196 30.221-.483 2.199-.281 3.379.67 3.918 7.537 4.263 10.015 7.072 9.481 10.746-.295 2.029-.817 7.063-1.16 11.188-.344 4.125-1.262 9.719-2.042 12.432-.779 2.712-1.417 5.051-1.417 5.198 0 1.374 5.24 5.37 7.042 5.37 1.273 0 5.608.767 9.636 1.704 7.271 1.691 7.322 1.726 7.322 5 0 1.813.45 3.296 1 3.296s1 .459 1 1.02c0 .561 1.125 2.802 2.5 4.98 1.375 2.178 2.5 4.644 2.5 5.48 0 .836.675 1.52 1.5 1.52 2.1 0 1.867 1.289-.5 2.768-2.36 1.474-2.663 4.232-.465 4.232.845 0 2.645-.727 4-1.615 1.356-.888 2.465-1.151 2.465-.583 0 .567-.562 1.258-1.25 1.536-.687.277.55.59 2.75.695 7.804.371 9.026.514 11.322 1.326 1.578.558 2.859.362 4-.612 1.874-1.601 19.471-6.747 23.069-6.747 1.271 0 8.453-2.006 15.96-4.458 19.179-6.264 17.555-6.512 18.149 2.761.278 4.336.078 8.224-.45 8.75-1.297 1.293.093 2.422 4.95 4.026 2.893.954 3.446 1.414 2 1.659-6.818 1.158-6.5.755-6.5 8.222 0 7.875-.491 8.558-4.572 6.363-1.61-.866-4.953-1.721-7.428-1.901-9.209-.666-16-1.692-16-2.417 0-.411-2.747-1.057-6.105-1.437-8.009-.906-6.867-1.818 2.107-1.681 4.156.063 6.874-.278 6.539-.821-.316-.512-4.584-.913-9.484-.893-4.899.02-9.448-.297-10.108-.704-.66-.408-2.983-.742-5.163-.742-2.179 0-3.441-.322-2.804-.716 2.528-1.562-9.508-1.831-18.723-.418-6.242.957-11.381 1.214-14.259.712-2.475-.431-8.55-.839-13.5-.906-4.95-.067-10.163-.447-11.584-.845-2.238-.627-2.795-.288-4.156 2.523-.865 1.786-1.372 3.771-1.126 4.412.246.642-.071 2.481-.705 4.089-1.249 3.165-1.401 28.977-.296 50.186l.639 12.264 3.957 4.495c6.172 7.012 10.213 26.255 10.808 51.477.239 10.114.176 10.644-1.458 12.278-.781.782-1.953 3.399-2.604 5.816-1.477 5.486-4.137 10.757-7.362 14.589-6.016 7.15-6.234 9.955-1.669 21.482 2.251 5.684 4.7 11.46 5.443 12.835 2.222 4.111 4.988 13.323 4.804 16-.113 1.643.111 2.058.652 1.211.57-.893 1.308-.053 2.404 2.735 1.624 4.136 1.652 5.161.229 8.481-.815 1.902-.835 1.902-1.581 0-.641-1.636-.765-1.526-.825.729-.057 2.173.292 2.562 1.918 2.137 1.24-.325 2.212.065 2.585 1.036.45 1.174 1.167 1.34 2.913.676 2.416-.918 6.669 2.174 5.12 3.722-.393.393-1.062.153-1.487-.534-.918-1.487-3.623 3.426-3.197 5.807.691 3.866 5.052 1.907 5.157-2.317.043-1.751.306-2.62.583-1.933.599 1.484 3.338 1.689 3.338.25 0-.55.916-1 2.035-1 1.12 0 3.223-.778 4.674-1.729 1.938-1.27 2.747-1.402 3.048-.5.493 1.479 6.429 1.643 7.854.218.861-.861 14.105-4.989 16.006-4.989.617 0-.049 9.904-1.262 18.75-.473 3.452-.973 4.25-2.664 4.25-1.145 0-3.306 1.173-4.803 2.607-2.259 2.164-4.152 2.764-11.151 3.533-11.11 1.221-13.709.306-13.814-4.865-.042-2.076-.61-5.542-1.262-7.703l-1.184-3.927-2.674 3.177c-3.3 3.922-3.48 3.924-4.332.044-1.235-5.619-4.129-11.201-4.843-9.34-.349.91-.366 2.089-.037 2.621.715 1.157-.447 6.331-1.242 5.535-.305-.305-1.576-.166-2.825.309-1.458.554-2.673.46-3.397-.264-.836-.836-1.127-.826-1.127.038 0 2.032 3.761 3.433 6 2.235 1.596-.854 2-.76 2 .465 0 .844-.702 1.535-1.559 1.535s-1.262.481-.899 1.068c.363.588 1.307.82 2.097.517.79-.303 1.695.122 2.011.945.635 1.654-1.424 4.728-2.657 3.966-.429-.265-1.085.735-1.458 2.222-.803 3.197 2.099 6.317 3.75 4.032.62-.858.721-.685.321.552-.321.991-.175 1.55.324 1.241.499-.308 1.205.793 1.568 2.448.531 2.418 1.186 3.015 3.331 3.039 2.297.027 2.426.173.921 1.05-.963.561-1.75 1.758-1.75 2.661 0 1.422-.18 1.395-1.347-.201-.978-1.337-1.552-1.512-2.092-.638-1.192 1.928 3.391 5.262 6.384 4.644 1.405-.29 7.055-1.221 12.555-2.069 13.578-2.092 28.375-4.413 31.927-5.008 1.61-.269 2.615-.178 2.233.204-.381.381.743 1.298 2.499 2.036 2.339.983 3.379 1.039 3.891.21.509-.823.887-.83 1.384-.026.376.609.32 1.114-.125 1.122-.445.009-.172.419.608.912 1.628 1.031 5.479-.18 7.73-2.431 1.328-1.328 1.235-1.5-.826-1.535-1.978-.033-1.823-.255 1.044-1.5 3.917-1.701 15.238-1.958 16.815-.381.773.773 4.568.487 13.36-1.006 13.71-2.329 12.919-2.444 13.617 1.988.282 1.787 1.149 3.887 1.928 4.665.778.779 1.415 1.727 1.415 2.107 0 .605 15.692.824 17 .237 2.387-1.071 8.413-1.347 34.852-1.593 17.497-.163 30.756-.686 31.306-1.236.524-.524 1.214-5.181 1.533-10.348.319-5.167.952-10.119 1.406-11.006.516-1.008.29-2.319-.604-3.5-.786-1.038-1.454-3.463-1.485-5.388-.159-9.966-4.208-16.297-11.132-17.404-2.815-.45-4.863-1.651-7.035-4.124-1.685-1.92-4.051-3.738-5.258-4.04-1.206-.303-3.914-2.324-6.018-4.491-3.789-3.905-5.565-4.85-5.565-2.962 0 .589-1.014.516-2.553-.185-2.096-.955-3.091-.845-5.569.619-3.63 2.144-4.281 1.698-3.397-2.325.369-1.68.524-3.39.345-3.799-.507-1.158-2.826-1.235-2.826-.094 0 .561-.62.781-1.378.49-.758-.291-1.902-.005-2.542.635-.884.884-1.371.827-2.03-.239-1.164-1.884.799-4.864 3.88-5.891l2.454-.818-4.101-4.436c-2.255-2.44-6.919-6.686-10.363-9.436-3.445-2.75-7.774-6.484-9.621-8.298-3.336-3.278-3.682-5.67-.651-4.507 1.33.511 1.405.273.468-1.478-1.603-2.995-1.378-4.248.634-3.525 1.351.485 1.213.038-.606-1.96-1.322-1.451-2.99-2.345-3.798-2.034-1.631.625-4.266-2.346-4.314-4.865-.018-.916.483-1.838 1.111-2.047.858-.286.858-.915 0-2.518-2.525-4.72 1.101-9.167 4.769-5.848 4.325 3.914 7.088.459 7.088-8.863 0-3.157.531-5.753 1.309-6.398 1.063-.883 1.297.745 1.25 8.692-.049 8.028.254 10.092 1.691 11.535.963.966 1.75 2.161 1.75 2.654 0 .493.647.649 1.437.346a1.534 1.534 0 00.893-1.969c-.335-.873.095-1.417 1.122-1.417.916 0 1.407.419 1.091.931-.317.512-.088 1.232.509 1.601.596.369.848 1.285.56 2.037-.289.752-.094 1.633.432 1.958.577.357.96-2.507.965-7.218.02-17.684 2.785-54.554 4.034-53.783.433.268 2.063-.557 3.622-1.834 1.559-1.278 4.635-3.378 6.835-4.669 2.2-1.291 4.9-3.132 6-4.091 1.1-.959 4.25-2.424 7-3.254 2.75-.83 7.82-2.897 11.266-4.593 3.446-1.697 6.648-3.085 7.115-3.085.467 0 2.098-.982 3.624-2.183l2.776-2.183-.715-10.567c-.393-5.812-.683-18.442-.643-28.067.039-9.625.072-20.312.074-23.75.003-5.861.147-6.25 2.312-6.25 1.27 0 3.026.563 3.902 1.25 2.204 1.73 11.615 15.927 17.91 27.018 2.881 5.078 6.214 10.357 7.405 11.732 3.047 3.517 12.401 17.076 15.974 23.155 6.713 11.421 24.218 16.679 35.274 10.595 9.852-5.421 18.158-21.383 18.211-35 .008-2.062.352-3.744.765-3.737 2.288.039 16.794 5.323 23.25 8.469 8.304 4.047 15.488 4.394 20.671.998 7.586-4.97 10.897-35.101 4.992-45.423-1.399-2.444-2.339-4.773-2.089-5.176.566-.916-4.969-28.645-7.051-35.317-2.192-7.029 1.336-8.155 10.581-3.377 6.713 3.47 7.2 2.482 6.702-13.591-.469-15.168-1.11-17.479-6-21.646-3.72-3.171-3.722-3.892-.04-21.95 3.303-16.2 5.7-35.697 7.292-59.307 1.027-15.243.99-15.956-1.059-20-2.672-5.275-12.79-14.173-19.999-17.588l-5.5-2.605-73.404-.237c-40.372-.13-73.672-.505-74-.833-.328-.327-.75-4.496-.938-9.263l-.341-8.667 3.841 3.648c8.08 7.673 22.665 12.69 31.27 10.757 6.093-1.369 9.195-3.192 13.451-7.903l3.729-4.128 10.196 4.931c17.015 8.229 13.396 7.695 52.196 7.695h35l.277-5c.152-2.75-.375-7.25-1.171-10-3.167-10.937-6.901-23.213-8.253-27.128-1.227-3.554-2.778-5.04-11.139-10.674-10.686-7.2-34.523-19.033-40.535-20.123-2.102-.381-4.352-.855-5-1.054-.648-.2-1.854-.121-2.679.173m-2.025 16.964c-9.061 4.214-22.156 9.646-27.111 11.247-4.09 1.322-4.127 2.601-.362 12.462 1.65 4.32 2.329 4.917 9.388 8.266 16.867 7.999 18.371 8.56 19.251 7.173.614-.968.832-.834.844.515.014 1.661.155 1.682 1.595.242.87-.87 1.355-2.139 1.079-2.822-.396-.982-.518-.98-.58.009-.127 2.016-1.64 1.433-1.8-.693-.08-1.069.386-1.818 1.037-1.664.651.154.889.105.529-.108-.36-.214-.449-1.692-.197-3.286l.456-2.899-3.158 2.95c-1.736 1.623-4.01 2.95-5.052 2.95-2.254 0-2.526-1.82-.394-2.638.825-.317 1.5-1.134 1.5-1.816 0-.682 1.012-1.729 2.25-2.326 1.648-.794 1.808-1.103.599-1.152-1.221-.05-1.626-.962-1.554-3.506.054-1.89.459-3.214.901-2.941 1.2.742.971-1.054-.295-2.32-.799-.799 1.591-1.279 8.75-1.756 11.315-.754 28.603-2.466 29.009-2.872.271-.271-20.28-12.027-26.185-14.979-2.88-1.44-3.38-1.347-10.5 1.964m45.773 28.058c-2.447.371-2.672.715-2.024 3.101.4 1.475.706 4.821.679 7.433l-.049 4.75h10.63l-1.441-3.75c-.793-2.062-1.931-5.662-2.531-8-.599-2.338-1.409-4.183-1.801-4.1-.391.082-1.95.337-3.463.566m-279.08 6.214c-9.73.432-13.115.934-14 2.074-.643.827-3.562 3.483-6.488 5.902-5.737 4.742-6.063 6.291-2.475 11.766 1.905 2.908 4.752 2.581 9.682-1.11 3.01-2.254 3.807-2.336 24.113-2.5 31.839-.256 41.741-1.488 44.735-5.562 1.194-1.626.868-7.174-.485-8.244-3.492-2.762-24.922-3.667-55.082-2.326m39.832 21.721c-3.3.15-16.125.766-28.5 1.368-12.375.602-25.791 1.248-29.814 1.435-4.023.188-7.463.5-7.644.694C79.352 140.563 71 152.786 71 154.04c0 .929.9 2.834 2 4.233 1.1 1.398 2 3.034 2 3.635 0 2.109 2.859 1.06 5.665-2.078 8.364-9.353 7.383-8.83 16.558-8.83 4.608 0 14.205-.462 21.327-1.026 7.123-.564 19.794-1.393 28.159-1.843 17.24-.926 18.306-1.365 18.259-7.503-.044-5.717-1.773-7.672-6.578-7.439-2.14.104-6.59.312-9.89.462m205.268 20.914c-.467.467.019 3.303 3.332 19.435.668 3.255.88 9.12.517 14.37-.337 4.878-.321 13.975.036 20.216l.648 11.347 3.828 2.534c2.105 1.393 4.116 2.533 4.467 2.533 1.859 0-3.361-33.975-8.171-53.181-1.334-5.325-2.425-11.261-2.425-13.191 0-3.284-1.067-5.227-2.232-4.063m17.232.975c0 .297.866 2.237 1.924 4.311 5.293 10.375 8.789 27.944 5.108 25.669-.442-.274-1.039.397-1.325 1.491-.578 2.21-2.577 2.684-3.117.739-2.755-9.916-8.427-25.246-9.095-24.578-.213.213.688 4.649 2.002 9.858 6.08 24.096 7.708 32.876 8.242 44.438.586 12.668.794 13.205 6.193 15.997 3.824 1.977 5.487.766 4.068-2.965-.453-1.191-1.093-3.863-1.423-5.938-.33-2.074-2.394-9.715-4.588-16.979-4.864-16.106-4.936-17.037-1.245-16.111 3.498.878 5.414 2.463 4.59 3.796-.39.632-.153.738.603.271 1.471-.909 1.159 6.528-.319 7.602-.485.352.303 1.416 1.75 2.365 2.976 1.95 3.422 3.494 1.01 3.494-1.233 0-1.359.318-.524 1.324.8.964.791 1.631-.034 2.456-.844.844-.346 1.585 1.95 2.903 2.406 1.381 3.071 2.433 3.025 4.793-.063 3.258-1.516 5.815-2.839 4.997-.45-.278-1.1-.048-1.446.511-.345.559-.151 1.016.431 1.016s1.059 1.605 1.059 3.566c0 4.37 1.525 7.434 3.702 7.434.897 0 1.353.279 1.012.619-.645.645 1.638 3.381 2.821 3.381.372 0 2.317 1.251 4.321 2.781 5.241 3.998 9.025 5.748 10.057 4.649 2.037-2.171 6.205-14.494 7.249-21.43.621-4.125 1.176-15.695 1.233-25.711l.105-18.211-5.5-5.621C406.956 173.302 395.676 164 394.469 164c-.28 0-2.3-1.131-4.489-2.513-4.777-3.015-4.948-2.299-1.585 6.644 2.904 7.72 7.842 29.269 7.386 32.233-.181 1.175-.88 2.023-1.555 1.886-.674-.138-1.226.65-1.226 1.75s-.45 2-1 2-.997-.787-.993-1.75c.022-5.781-13.188-46.066-15.74-48-1.671-1.267-4.267-1.699-4.267-.71m-26.373 2.255c-.282.455-.978 5.975-1.547 12.266-.57 6.292-1.707 17.289-2.528 24.439l-1.492 13 2.22 1.696c1.221.932 4.133 2.651 6.47 3.82 2.337 1.168 4.25 2.543 4.25 3.054 0 .512.484.93 1.075.93 1.592 0 .191-36.689-1.749-45.813-.98-4.609-2.202-7.717-3.306-8.406-.969-.606-1.549-1.866-1.298-2.825.477-1.825-1.221-3.576-2.095-2.161m-32.9 7.838c-.34.55-.547 3.959-.46 7.575.087 3.616-.326 7.186-.918 7.934-1.155 1.457-1.324 2.668-1.429 10.234-.037 2.682.416 5.36 1.006 5.95.594.594 1.081.65 1.089.124.009-.522.44-.279.959.542.713 1.127 1.224 1.21 2.097.337s.639-1.597-.958-2.964c-2.645-2.265-2.758-3.781-.179-2.4 3.994 2.137 4.397 1.447 3.633-6.215-.398-3.988-.681-8.488-.629-10 .051-1.512-.363-2.75-.922-2.75s-1.048-1.238-1.086-2.75c-.091-3.55-1.407-6.905-2.203-5.617m-161.464 25.355l-13.237.512-4.484 7.21c-6.965 11.2-7.067 10.719 3.879 18.431l9.426 6.641 4.827-4.963c2.654-2.73 5.278-5.493 5.831-6.141 11.216-13.146 12.807-14.664 14.18-13.524 1.183.981.895 1.509-1.73 3.172l-3.15 1.994 2.847 1.22c2.311.99 3.055.963 3.947-.144.604-.751 1.464-1.034 1.91-.63.446.403.507.203.135-.447-.372-.649-.285-1.423.194-1.719 1.47-.908 4.937 3.64 6.665 8.743 1.883 5.564 1.269 6.797-5.437 10.907-1.961 1.202-4.39 3.217-5.396 4.477-1.007 1.261-2.314 1.993-2.905 1.628-.682-.422-.779-.186-.265.645.569.921.421 1.069-.5.5s-1.069-.421-.5.5.421 1.069-.5.5-1.069-.421-.5.5c.535.866.418 1.068-.345.595-.691-.427-1.155-.063-1.155.905 0 .89-.418 1.36-.928 1.044-.51-.315-1.239.446-1.618 1.691-.38 1.246-1.372 3.042-2.206 3.991-1.361 1.551-1.297 2.233.634 6.721 3.168 7.363 3.817 13.624 1.659 16.007-3.34 3.692-6.745 4.08-12.076 1.378-5.819-2.95-14.965-5.461-17.02-4.672-1.274.488-8.445 11.497-8.445 12.963 0 .47 21.347 10.887 36.744 17.931 4.308 1.971 5.924 3.178 5.209 3.893-.715.715-1.296.616-1.874-.319-.703-1.138-.91-1.136-1.295.009-.385 1.146-1.052 1.15-4.196.021-2.056-.738-3.983-1.097-4.282-.797-.299.299-1.202-.114-2.006-.918-.804-.804-1.944-1.163-2.535-.798-.637.394-.783.194-.36-.49.396-.642.132-1.188-.596-1.229-3.101-.176-5.803-1.016-10.891-3.384-8.069-3.756-7.916-3.895-7.933 7.208-.027 17.384-2.343 20.888-12.304 18.613-7.599-1.736-7.84-1.687-7.025 1.431.506 1.934 1.249 2.206 6.02 2.206 3.373 0 5.207.38 4.824 1-.81 1.31-.371 1.269 4.715-.441 2.357-.793 8.1-2.425 12.762-3.626 4.662-1.201 9.423-2.804 10.58-3.562 1.156-.758 2.404-1.076 2.773-.708.368.369.67.175.67-.429 0-.605 1.257-1.065 2.792-1.021 1.536.044 3.899-.532 5.25-1.279 1.352-.747 2.796-1.263 3.208-1.146.412.116.75-.238.75-.788s.459-1 1.02-1c.561 0 2.802-1.125 4.98-2.5 2.178-1.375 5.082-2.5 6.453-2.5h2.493l-.57-9.75c-.614-10.499-1.699-18.774-2.802-21.371-1.967-4.63 6.434-6.426 11.22-2.399 3.748 3.154 4.75 5.91 6.185 17.007.64 4.944 1.314 9.139 1.498 9.324.185.185 3.866-1.307 8.18-3.315 12.172-5.666 16.538-4.789 19.894 3.997 2.036 5.334 1.595 8.723-1.301 9.994-1.238.543-2.25 1.582-2.25 2.309 0 .727-.378 1.089-.839.803-.462-.285-3.153.222-5.982 1.127-5.122 1.637-5.141 1.659-4.571 5.223.797 4.983-2.025 7.56-7.347 6.709l-3.791-.606.361 11.224c.387 12.018.693 12.934 4.319 12.904 5.808-.049 29.214-1.211 29.467-1.464.155-.154 2.667-.041 5.582.252 2.916.293 7.699.113 10.63-.399 4.088-.715 5.515-.631 6.129.363.647 1.047.907 1.034 1.358-.069.429-1.048.934-.901 2.185.637 2.084 2.562 1.466 9.388-3.123 34.5-.282 1.543-4.344 6.136-10.615 12-5.587 5.225-15.242 14.563-21.455 20.75-6.213 6.188-11.799 11.25-12.414 11.25-.737 0-.891 1.203-.453 3.535.364 1.944.88 9.459 1.144 16.7.265 7.241.636 13.319.824 13.507.188.189 1.523-1.061 2.967-2.776 2.26-2.687 2.624-4.048 2.624-9.808 0-5.316.521-7.61 2.537-11.173 1.395-2.467 3.597-6.735 4.892-9.485 2.847-6.045 6.049-9.167 12.896-12.578 4.148-2.065 5.113-3.008 4.862-4.75-.172-1.194.166-2.172.75-2.172.585 0 1.077.563 1.093 1.25.017.694.484.471 1.05-.5.561-.962 2.01-1.802 3.22-1.866 1.657-.087 1.774-.228.472-.569-2.67-.7.105-4.238 7.264-9.259 8.595-6.029 8.4-5.317 8.583-31.312.089-12.516.428-24.216.754-26 .327-1.784.177-3.904-.332-4.71-.587-.929-.536-1.938.139-2.75.764-.922.732-1.284-.117-1.284-.649 0-.912-.435-.584-.966.328-.531-.32-2.763-1.441-4.96S261 310.738 261 309.099c0-1.64-.45-3.259-1-3.599-.55-.34-1-1.068-1-1.618s.436-.731.969-.401c.595.367.805-1.251.544-4.191-.234-2.635-.715-10.948-1.068-18.475-.548-11.672-.922-13.937-2.544-15.405-2.362-2.137-2.525-.771-.716 5.991.984 3.682.919 5.106-.387 8.431-1.012 2.576-1.394 5.721-1.075 8.834l.497 4.834-4.566-6.5c-5.999-8.54-14.002-21.991-20.832-35.014-7.11-13.557-27.005-45.979-32.256-52.566-2.236-2.805-4.516-5.798-5.066-6.649-1.18-1.828-20.249-2.632-42.237-1.783m-48.952 16.71c-3.035.59-3.298 3.174-.744 7.302 4.323 6.986 9.871 17.519 9.639 18.298-.597 2.002 28.089 11.718 29.163 9.877 1.683-2.888-1.002-7.653-7.189-12.756-3.613-2.981-6.957-5.419-7.432-5.419-.475 0-4.071-2.7-7.991-6-3.921-3.3-7.451-6-7.845-6-.394 0-1.187-1.35-1.762-3-1.031-2.957-1.506-3.144-5.839-2.302m237.255 16.094c-1.316 4.147-.85 15.869.821 20.662.95 2.724 1.475 5.96 1.166 7.19-.398 1.587.079 2.685 1.643 3.781 2.761 1.934 3.726.711 3.888-4.925.123-4.258 1.587-10.019 1.907-7.5.105.825.333 4.2.508 7.5.507 9.592.55 9.853 1.467 8.899 1.578-1.642 1.705-21.138.148-22.599-1.16-1.088-1.302-.95-.873.839.283 1.177.126 2.752-.348 3.5-.527.831-.868-1.642-.878-6.353l-.015-7.714-3.732-2.536c-4.44-3.017-4.959-3.085-5.702-.744m17.064 13.892c-.353 2.576-.924 9.664-1.268 15.75l-.625 11.066 4.545 3.25c2.5 1.788 4.975 3.25 5.501 3.25 1.495 0 2.194-6.405 2.206-20.208l.011-12.708-4.338-2.542c-5.545-3.25-5.28-3.344-6.032 2.142m-266.972 8.091c-1.462 3.726-2.658 7.276-2.658 7.889 0 .613 4.536 4.164 10.081 7.89l10.081 6.776 2.361-2.915c1.299-1.603 3.359-4.828 4.577-7.165 1.218-2.338 2.909-4.25 3.757-4.25 3.078 0-.441-1.838-7.499-3.917-5.141-1.514-7.606-2.813-8.802-4.638-.913-1.394-2.789-2.963-4.168-3.488-1.38-.524-2.23-1.404-1.889-1.955.34-.551-.236-1.002-1.282-1.002-1.419 0-2.574 1.716-4.559 6.775m286.683 10.975c.277 7.012.515 15.343.528 18.511.029 6.643 1.09 7.568 6.597 5.75 4.1-1.353 5.534-3.499 5.534-8.282 0-4.255-2.692-22.422-3.521-23.764-.612-.989-7.835-4.965-9.021-4.965-.341 0-.394 5.738-.117 12.75m-64.03-1.607c-2.646 2.279-5.036 4.679-5.311 5.333-.275.654-2.41 3.402-4.744 6.106-3.615 4.19-4.244 4.585-4.25 2.668-.003-1.238-.456-2.25-1.006-2.25s-1 .398-1 .883c0 .486-.9 1.119-2 1.407-2.37.619-2.461 1.516-.427 4.207 1.485 1.966 1.624 1.935 8.718-1.923 20.657-11.233 23.768-13.28 22.183-14.596-.837-.695-1.283-1.503-.99-1.795.536-.537-4.392-4.164-5.673-4.176-.379-.004-2.854 1.858-5.5 4.136M333 268.242c-1.375.609-9.726 5.072-18.557 9.917-14.139 7.758-16.22 9.225-17.419 12.28-.749 1.909-1.736 3.239-2.193 2.957-.971-.601-1.053 1.173-.201 4.354.355 1.323 1.379 2.25 2.487 2.25 1.035 0 1.883.605 1.883 1.345 0 2.242 3.473 4.655 6.701 4.655 1.673 0 7.488-1.132 12.921-2.515 5.433-1.383 14.245-3.394 19.582-4.469 9.789-1.971 22.796-7.043 22.796-8.889 0-.549-3.467-4.065-7.705-7.813-4.237-3.748-9.401-8.438-11.475-10.422s-4.007-3.372-4.295-3.083c-.289.288-.525-.001-.525-.642 0-1.398-.702-1.385-4 .075M90.083 283.049c-.596 2.777-1.083 5.64-1.083 6.363 0 .842 4.216 2.375 11.75 4.272 6.463 1.627 12.482 3.291 13.377 3.697 1.407.639 1.724-.428 2.345-7.892.84-10.076.246-11.639-1.841-4.845-.821 2.671-1.523 3.9-1.561 2.731l-.07-2.124-3.954 1.956c-4.353 2.154-11.666.851-10.614-1.891.267-.695-.284-1.711-1.224-2.259-.939-.548-1.301-1.01-.803-1.027 1.39-.046-2.541-4.03-3.977-4.03-.707 0-1.739 2.223-2.345 5.049m308.167 7.592c-1.499 1.619-2.247 3.669-2.241 6.144.014 5.51 2.815 28.182 3.98 32.208.556 1.922 1.011 3.609 1.011 3.75 0 .142-1.174.257-2.608.257-2.387 0-2.536.234-1.753 2.75.471 1.512.857 5.767.859 9.454l.002 6.704 8 3.464c11.331 4.906 13.142 5.192 13.893 2.197.334-1.328.164-6.612-.376-11.742-.54-5.13-.99-9.664-1-10.077-.009-.413-.407-.75-.883-.75-.477 0-.649 3.051-.382 6.779.365 5.099.133 7.071-.935 7.958-1.642 1.362-5.81.573-5.832-1.104-.008-.623-.607-.008-1.331 1.367-.725 1.375-1.956 2.33-2.736 2.123-.78-.208-1.98-.395-2.668-.417-.687-.022-1.319-.752-1.402-1.623-.304-3.153-.413-3.603-1.175-4.819-1.789-2.858.807-11.188 3.506-11.249 1.287-.029 3.821 3.133 3.851 4.806.026 1.394.226 1.339 1.178-.321.631-1.1 1.854-2.548 2.719-3.218 1.395-1.081 1.399-1.222.037-1.25-1.743-.036-2.657-12.032-.917-12.032.524 0 .953-.661.953-1.469 0-.894-.586-1.243-1.5-.893-1.135.436-1.5-.18-1.5-2.531 0-1.709.502-3.107 1.117-3.107.687 0 .862-.864.453-2.25-.365-1.238-1.338-4.5-2.163-7.25-.825-2.75-1.554-5.67-1.62-6.488-.066-.819-.742-2.11-1.503-2.871-.76-.76-1.641-2.678-1.958-4.262-.689-3.443-2.049-3.507-5.076-.238M376.431 312.9c.379 4.345.934 12.782 1.233 18.75.299 5.967.609 11.899.69 13.181.124 1.974 3.421 5.727 4.279 4.87.153-.154-.37-2.161-1.162-4.461-2.221-6.445-.987-13.443 2.299-13.043 1.9.232 2.891 1.346 4.212 4.739l1.728 4.437.562-5.437c.325-3.138-.11-9.324-1.027-14.636-1.454-8.412-1.823-9.297-4.319-10.33-1.5-.622-3.751-2.22-5.002-3.55-3.689-3.928-4.239-3.066-3.493 5.48m-31.875 3.19c-4.919 2.15-9.672 3.91-10.563 3.91-.89 0-2.884 1.32-4.43 2.934-1.546 1.614-6.108 4.418-10.137 6.231-5.361 2.412-7.48 3.914-7.903 5.6-.318 1.267-1.648 2.791-2.956 3.387l-2.378 1.083 1.926 5.6c4.291 12.473 8.318 21.416 10.134 22.509 1.057.636 3.001 3.266 4.322 5.844 1.32 2.579 4.511 6.404 7.091 8.5a467.2 467.2 0 018.764 7.329c9.621 8.308 15.473 9.457 18.443 3.623 8.476-16.651 10.052-28.083 6.087-44.14-1.086-4.4-2.622-12.05-3.412-17-1.472-9.217-4.377-19.571-5.446-19.41-.329.049-4.623 1.849-9.542 4M183.362 382.5c-.317.825-3.348 2.823-6.737 4.44-5.313 2.536-11.063 7.84-11.111 10.25-.008.38-1.948 2.345-4.311 4.368-2.62 2.243-5.66 6.385-7.79 10.615-1.922 3.816-6.176 11.119-9.453 16.23-3.278 5.111-5.96 10.378-5.96 11.704 0 1.344-.903 2.976-2.039 3.685-1.121.7-1.799 1.662-1.506 2.136.294.474-.139 1.12-.961 1.436-.822.315-1.494 1.698-1.494 3.073 0 1.812-.413 2.342-1.5 1.925-.882-.339-1.5-.013-1.5.79 0 .752-.985 1.982-2.188 2.733-2.666 1.665-1.405 2.902 6.424 6.296 2.673 1.159 4.458 2.506 4.096 3.091-.398.644-.145.731.668.228.906-.56 1.069-.42.529.453-.58.938-.203 1.078 1.471.547 1.732-.55 2.07-.402 1.465.643-.432.746-.426 1.032.013.635.775-.7 12.416 5.182 15.601 7.883 2.039 1.73 2.999 1.706 2.322-.057-.295-.771.49-2.115 1.754-3 2.806-1.965 4.966-2.083 4.256-.233-.289.754.175 1.64 1.032 1.969.856.328 1.557.135 1.557-.43 0-.566.481-.731 1.068-.368.588.363.835 1.268.55 2.011-.308.804.675 1.946 2.432 2.822 2.678 1.336 2.949 1.317 2.944-.202-.011-3.472-2.137-9.155-3.783-10.115-1.067-.622-1.221-1.009-.41-1.028.716-.016 1.918-1.492 2.672-3.28.754-1.788 2.2-4.15 3.214-5.25 1.014-1.1 3.556-4.111 5.65-6.691 2.55-3.142 4.317-4.495 5.35-4.099 1.203.462 1.394.12.863-1.552-.558-1.759-.354-2.039 1.135-1.557 1.396.452 1.495.359.427-.401-1.145-.816-1.015-1.388.75-3.283 1.176-1.262 2.138-2.836 2.138-3.499 0-1.672 3.112-2.706 4.367-1.451 2.051 2.051 2.413.951 1.11-3.376-.729-2.424-1.071-4.664-.759-4.975.312-.312-.011-1.264-.718-2.116-.707-.852-1.017-1.816-.69-2.143.327-.327-.059-1.249-.858-2.047-.798-.799-1.452-2.789-1.452-4.422 0-1.634-.956-5.93-2.125-9.548-1.529-4.732-1.964-7.94-1.55-11.432.522-4.416.308-5.121-2.375-7.804-2.828-2.828-3.949-4.84-2.04-3.66 1.324.819 4.181-.487 3.495-1.597-.342-.554-1.243-.408-2.181.354-1.368 1.112-1.504 1.046-.943-.451.443-1.18.168-1.75-.844-1.75-.825 0-1.759.675-2.075 1.5m-3.804 34.75c-1.07 3.521-1.286 5.75-.558 5.75.447 0 .577.9.29 2-.288 1.1-.947 2-1.466 2-.518 0-.664.45-.324 1s.115 1-.5 1-.84.45-.5 1c.34.55.141 1-.441 1-2.243 0-1.028 4.507 1.536 5.697 2.516 1.168 2.647 1.045 5.366-5 3.973-8.834 4.232-10.054 2.606-12.249-1.428-1.928-1.459-1.927-2.973.052-1.198 1.565-1.537 1.663-1.562.45-.018-.853.508-2.09 1.168-2.75.933-.933.815-1.2-.531-1.2-.953 0-1.903.563-2.111 1.25m-55.957 77.779c-4.769 3.634-10.272 3.956-15.233.889-1.852-1.144-3.368-1.905-3.368-1.689 0 1.957-4.088 29.104-4.477 29.735-.282.454.198 1.099 1.065 1.431 3.066 1.177 4.412.62 4.412-1.824 0-2.277 2.275-5.571 3.849-5.571 2.849 0 5.151 3.398 5.151 7.603 0 4.406.091 4.531 4.959 6.787 8.686 4.024 10.058 6.776 5.968 11.975-2.492 3.168-4.964 3.356-7.486.57-1.767-1.953-1.908-1.966-2.585-.25-1.941 4.925-1.156 6.05 3.894 5.577 3.955-.371 5.413.007 8.71 2.259 3.697 2.524 4.294 2.634 9 1.656 2.772-.575 8.073-1.336 11.779-1.69 3.707-.354 6.996-1.059 7.309-1.565.947-1.531 3.288-1.066 10.439 2.072 4.997 2.194 7.661 2.826 9.96 2.367 3.628-.726 13.438 5.38 20.96 13.045l4.205 4.284 7.172-2.349c5.416-1.774 8.34-2.194 11.944-1.716 3.086.409 4.772.259 4.772-.425 0-3.337 3.241-4.387 11.411-3.694l8.089.686-5.5-5.666c-3.025-3.116-9.153-7.997-13.617-10.846-25.619-16.351-31.433-21.981-28.45-27.554.747-1.396-.573-3.424-6.624-10.185-4.157-4.642-8.228-9.453-9.048-10.691-.82-1.238-2.339-2.25-3.376-2.25s-1.885-.45-1.885-1-.702-1-1.559-1-1.284-.445-.948-.989c.351-.568-.054-.733-.952-.388-1.136.435-1.394.158-.945-1.012.35-.914.113-1.611-.548-1.611-.641 0-.888.45-.548 1 .802 1.298-.13 1.268-2.659-.085s-8.011-.27-5.789 1.144c1.111.706.865.938-1.052.992-1.375.04-4.3.135-6.5.211-3.476.122-18.022-1.456-25.5-2.766-1.704-.298-3.742.508-6.399 2.533m9.615 21.661c-1.618 3.188 1.431 24.957 3.832 27.358 1.114 1.114 1.757 2.459 1.429 2.988-.327.53-.13.964.438.964 3.132 0 4.376-6.241 3.182-15.96-1.65-13.434-6.02-20.987-8.881-15.35m26.33 11.465c-1.035 2.494 3.091 15.155 5.755 17.658 3.434 3.226 4.699 2.756 4.699-1.747 0-5.73-4.799-16.352-7.115-15.746-.984.257-1.983-.047-2.221-.676-.262-.697-.7-.497-1.118.511m18.944.876c-.413 1.301.269 3.588 1.897 6.367 1.398 2.385 3.458 6.786 4.578 9.779 2.676 7.153 4.128 8.998 7.358 9.353 2.26.248 2.677-.091 2.677-2.178 0-2.442-6.011-15.806-9.942-22.102-2.301-3.687-5.591-4.298-6.568-1.219m29.177 14.636c-1.423 1.422-.458 3.337 5.339 10.599 5.874 7.359 9.099 9.918 9.81 7.785.195-.585.766-.809 1.269-.498 3.594 2.221-5.313-11.884-9.988-15.818-3.234-2.721-5.159-3.34-6.43-2.068m-57.453 21.36c-13.502 1.435-13.178 1.062-13.2 15.223-.016 9.892-.581 9.439 8.986 7.197 13.023-3.051 13.429-3.231 15.365-6.827 1.695-3.146 1.735-3.961.484-9.764-1.54-7.143-1.145-6.945-11.635-5.829m29.027 4.226c-2.21 2.759-5.241 9.818-5.241 12.207 0 2.478.171 2.54 7 2.54h7v-5.816c0-5.714-.068-5.854-3.88-7.997-3.031-1.703-4.099-1.907-4.879-.934m57.346 9.381c-1.781 4.642.351 7.925 7.243 11.151 6.878 3.22 14.794 4.862 16.828 3.491.637-.429 1.474-2.465 1.861-4.524.62-3.309.36-4.063-2.247-6.498-5.167-4.826-22.222-7.433-23.685-3.62m-25.43 1.361c-5.398 1.276-5.681 2.144-3.09 9.482 2.872 8.135 3.505 8.68 9.172 7.904 6.792-.931 7.119-1.371 4.812-6.458-1.104-2.433-2.017-5.399-2.029-6.591-.054-5.305-1.59-6.057-8.865-4.337" fill="#d3d3d3" fill-rule="evenodd"/></svg>