<svg xmlns="http://www.w3.org/2000/svg" width="500" height="684"><path d="M.031 142.695c.059 99.324.409 143.13 1.15 144.023.758.913.741 1.282-.059 1.282-2.064 0-1.152 1.855 1.128 2.294l2.25.434-2.25.136c-2.341.142-3.224 3.416-1.25 4.636.55.34 1 .089 1-.558 0-.683.838-.956 2-.652 1.1.287 2 .115 2-.384 0-.498-.562-.913-1.25-.921-.774-.01-.869-.295-.25-.75 1.849-1.359 1.177-6.665-.895-7.068-1.516-.296-1.616-.547-.5-1.253.998-.632 1.039-.888.145-.899-.687-.008-1.25-.492-1.25-1.074 0-.582.45-.781 1-.441s1.053.029 1.118-.691c.166-1.825.125-2.065-.714-4.223-.52-1.339-.393-1.697.426-1.191.644.398 1.17.246 1.17-.336 0-.582-.354-1.059-.787-1.059-.433 0-.853-.874-.934-1.943-.105-1.4.303-1.771 1.461-1.327 1.231.473 1.446.196.916-1.183-.875-2.281 1.111-4.756 3.267-4.071 2.402.762 2.535-4.068.181-6.594-2.086-2.24-1.707-6.327.509-5.477.917.352 1.276-.192 1.118-1.694-.127-1.217.282-2.115.912-1.997 1.893.355 2.351-3.618.535-4.634-1.489-.834-1.464-1.106.28-3.033 1.054-1.165 2.547-1.875 3.318-1.58 1.128.433 1.336-.634 1.063-5.466-.35-6.199-.085-6.847 1.961-4.801.933.933 1.2.822 1.2-.5 0-.935-.477-1.7-1.059-1.7s-.738-.52-.346-1.155c.443-.715.275-.883-.44-.44-.635.392-1.155.263-1.155-.287s.457-1.283 1.016-1.628c.559-.346.758-1.047.441-1.559-.316-.512.217-.931 1.184-.931 1.264 0 1.454-.305.675-1.084-1.185-1.185-.601-4.916.769-4.916.469 0 .593.675.277 1.5-.434 1.129.17 1.5 2.443 1.5 2.627 0 2.983-.325 2.744-2.5-.15-1.375.114-2.5.589-2.5.474 0 .862-.9.862-2s.408-2 .906-2c.499 0 .653.97.343 2.156-.42 1.607-.229 1.95.748 1.346.929-.574 1.073-.425.493.513-.602.975-.356 1.148.928.655.96-.369 1.934-.67 2.164-.67.23 0 .418-.436.418-.969 0-.532-.675-.709-1.5-.393-1.049.403-1.5-.076-1.5-1.59 0-1.191.419-1.907.931-1.591.512.317 1.232.088 1.601-.508.375-.607-.249-1.324-1.42-1.63-1.149-.301-1.843-.945-1.542-1.433.302-.487-.154-.886-1.011-.886-2.104 0-1.963-1.21.376-3.212 1.846-1.581 1.969-1.511 2.669 1.528.727 3.149.743 3.157 1.466.684.402-1.375.775-1.952.83-1.281.056.682.789.954 1.667.617 1.111-.426 1.257-.912.5-1.669-.587-.587-1.031-1.989-.988-3.117.043-1.127.306-1.487.583-.8 1.244 3.082 3.112 1.156 2.726-2.811-.219-2.252.005-3.814.503-3.506.495.306 1.157-.117 1.473-.939.315-.822 1.201-1.494 1.969-1.494 1.058 0 1.352 1.449 1.218 6-.098 3.3.131 6 .509 6 .377 0 .684 1.462.682 3.25-.061 48.945.376 121.965.727 121.614.259-.258.513-23.031.565-50.605.072-37.633.391-50.256 1.281-50.618.87-.355.853-.504-.065-.562-1.819-.115-1.715-11.686.111-12.387 1.587-.609 2.901-4.692 1.51-4.692-.573 0-.589-.685-.041-1.75.495-.962.701-2.425.459-3.25-.392-1.333-.323-1.333.62 0 .638.902 1.066 1.03 1.076.321.008-.648.763-1.926 1.677-2.84 1.405-1.405 1.444-1.801.25-2.556-1.083-.686-1.107-.898-.103-.91.72-.008 1.05-.434.734-.946-.317-.512-.07-1.243.547-1.625.796-.492.728-.945-.233-1.554-1.022-.647-.862-.867.643-.89 1.693-.026 1.77-.196.5-1.11-1.266-.91-1.227-.991.25-.516.962.31 1.75.127 1.75-.405 0-.533.9-.069 2 1.031 2.355 2.355 4.179 2.629 3.364.506-.316-.822-.976-1.246-1.469-.941-.492.304-.895-.149-.895-1.006 0-.892-.855-1.559-2-1.559-1.111 0-2-.667-2-1.5 0-.825.477-1.5 1.059-1.5s.781.45.441 1 .11 1 1 1 1.343-.445 1.007-.989c-.359-.581.076-.725 1.056-.348 1.365.523 1.547.204 1.001-1.762-.616-2.216-.557-2.264.766-.622 1.365 1.695 1.466 1.696 2.109.019.371-.968.197-1.919-.388-2.114-1.419-.473-.296-2.184 1.435-2.184.752 0 1.573.788 1.825 1.75.426 1.633 1.139-1.898.807-4-.065-.412.332-.75.882-.75s1 .505 1 1.122c0 .776.464.738 1.5-.122.825-.685 1.448-2.202 1.384-3.372-.103-1.893-.17-1.919-.601-.233-.397 1.55-.666 1.641-1.479.5-.818-1.149-.908-1.125-.512.141.316 1.008-.167 1.535-1.406 1.535-2.623 0-2.362-.843 1.039-3.358 2.074-1.533 3.07-1.806 3.421-.938.369.912.516.89.575-.084.048-.791.574-1 1.329-.528 1.806 1.128 3.75 1.295 3.75.322 0-.461-.787-1.044-1.75-1.296-1.617-.422-1.613-.466.059-.573.995-.064 1.526-.573 1.181-1.132-.346-.559-1.095-.728-1.666-.375-.67.414-.8-.201-.366-1.734.503-1.773.417-2.002-.338-.904-.556.809-1.263 1.219-1.572.911-.308-.309.342-1.378 1.446-2.376 1.946-1.761 2.006-1.755 2.006.222 0 2.616 3.015 3.411 5.146 1.358 1.412-1.36 1.445-1.771.237-2.888-1.174-1.084-1.546-.931-2.231.921-.543 1.467-1.069 1.825-1.546 1.052-.398-.644-.407-1.171-.019-1.171.388 0-.405-1.029-1.762-2.287-2.262-2.096-2.862-5.472-.74-4.16.503.311.915.013.915-.661s.296-.929.658-.567c.362.362 1.262.156 2-.456 1.011-.839 1.35-.776 1.374.259.022.964.438.836 1.399-.431 1.023-1.349 1.498-1.475 1.889-.5.306.765.567.477.631-.697.101-1.847.188-1.866 1.133-.243.804 1.38 1.44 1.533 2.969.714 1.664-.89 1.949-.709 1.962 1.244.009 1.257.408 2.905.889 3.663 1.021 1.614 3.096.651 3.096-1.437 0-.793.436-1.441.969-1.441.532 0 .727.629.431 1.399-.295.769-.056 1.696.532 2.059.587.363 1.102.296 1.145-.149.042-.445.227-1.599.412-2.564.2-1.045-.096-1.488-.731-1.095-.63.389-.775.186-.353-.495.392-.635.188-1.155-.453-1.155s-.907-.675-.59-1.5c.373-.972-.029-1.505-1.143-1.515-1.102-.01-1.31-.279-.58-.75.833-.537.785-1.064-.176-1.956-1.036-.961-1.421-.961-1.81 0-.273.672-.531.209-.574-1.029-.043-1.238-.529-2.25-1.079-2.25-.55 0-1-.465-1-1.034 0-2.267 5.494-.328 6 2.117.275 1.329 1.28 2.548 2.234 2.707 1.261.211 1.581-.198 1.175-1.5-.528-1.688-.496-1.691.565-.04 1.493 2.322 4.147 2.322 3.4 0-.4-1.243-.297-1.381.355-.476 1.014 1.406 3.406-.692 4.588-4.024.341-.962 1.422-1.743 2.402-1.735 1.487.013 1.538.169.31.946-.809.512-1.2 1.201-.869 1.532.331.331 1.33-.126 2.221-1.017 1.485-1.485 1.619-1.486 1.619-.008 0 1.331.248 1.387 1.425.321 1.215-1.1 1.092-1.436-.84-2.289-2.878-1.271-2.27-3.354.809-2.765 1.504.287 2.538-.116 2.933-1.145.336-.875.212-1.59-.275-1.59s-1.092.562-1.344 1.25c-.366 1-.723 1-1.783 0-1.097-1.035-1.075-1.254.125-1.272.917-.014.533-.727-1.041-1.937-2.29-1.759-2.635-1.784-4.257-.317-.97.878-2.086 1.275-2.479.882-.393-.393-.128-1.078.59-1.521 1.015-.628.93-.95-.383-1.454-.95-.365-1.446-1.277-1.135-2.089.387-1.006.042-1.277-1.146-.897-1.011.324-1.281.202-.666-.301.569-.464 1.075-1.631 1.125-2.594.262-5.002.351-5.284 1.232-3.894.612.966 2.096 1.184 5.144.757 5.111-.714 5.826-1.205 3.041-2.089-1.141-.362-2.075-1.046-2.075-1.52s-.756-1.617-1.681-2.542c-1.574-1.574-1.57-1.742.056-2.652 1.341-.75 1.476-1.284.594-2.347-.627-.756-.804-1.922-.391-2.589.495-.802.256-1.024-.706-.655-2.661 1.021-7.145-4.314-4.828-5.746.526-.325.963-.002.971.718.012 1.033.198 1.02.883-.061.701-1.106 1.078-1.01 1.955.5 1.015 1.747 1.088 1.722 1.117-.38.032-2.372 1.583-3.091 2.264-1.049.31.931.567.93 1.146-.007.428-.693.132-1.444-.694-1.761-1.504-.577-.111-5.408 1.564-5.425 1.288-.014.818-1.67-.5-1.761-.687-.048-2.263-.322-3.5-.609-1.65-.384-2.254-.072-2.265 1.169-.009.964-.332 1.262-.75.693-.752-1.024-2.385-1.56-5.45-1.791-.953-.072-1.955-.711-2.228-1.42-.457-1.191.701-1.753 2.816-1.367.48.088.597-.557.261-1.433-.419-1.091-.221-1.359.627-.849.701.421.588-.074-.261-1.14-1.333-1.675-1.333-1.789 0-1.032.825.469 1.162.48.748.023-.414-.456-.007-1.653.905-2.66 1.097-1.212 1.242-1.831.431-1.831-.823 0-.709-.518.345-1.571.864-.865 1.571-2.695 1.571-4.068 0-2.041.365-2.38 2-1.861 1.306.415 2.005.178 2.015-.683.012-.983.252-.944.946.154.512.809 1.201 1.2 1.532.869.331-.331-.126-1.33-1.017-2.221-1.451-1.452-1.456-1.619-.047-1.619.864 0 1.578.563 1.586 1.25.011.833.339.75.985-.25.828-1.282.972-1.246.985.25.018 2.142 1.349 2.258 3.006.261.68-.819 1.635-1.242 2.122-.941.488.301.887.128.887-.386s1.106-.934 2.458-.934 2.365.281 2.25.625c-.114.344.242.625.792.625s.869-.393.709-.873c-.16-.48.426-.597 1.302-.261.876.336 1.335.193 1.019-.317-.315-.51.224-.945 1.198-.966 1.774-.038 6.332-.739 7.272-1.118.275-.111.838-.149 1.25-.083.412.065.75-.22.75-.632 0-.413-8.052-.727-17.893-.698-15.769.046-17.823-.132-17.306-1.5.518-1.368.397-1.364-1.018.037-2.053 2.034-6.039 1.773-6.36-.416-.289-1.969.03-2.036 2.75-.58 1.522.814 2.332.777 3.184-.147.867-.94.841-1.069-.107-.534-1.474.833-1.715-1.007-.25-1.912.55-.34 1-.237 1 .228 0 .466 1.012.915 2.25.999l2.25.152-2.25-1.85c-2.925-2.405-2.842-3.802.311-5.239 2.052-.935 2.44-1.651 1.949-3.605-.465-1.853-.269-2.306.817-1.89 1.478.567 3.673-.997 3.673-2.617 0-.508-.675-.363-1.5.322-1.21 1.004-1.497.979-1.485-.128.028-2.453 1.186-3.43 4.735-3.99 2.194-.347 4.296.235 3.793 1.049-.317.512-.118 1.213.441 1.559.559.345 1.016-.021 1.016-.814 0-1.471 2.331-2.545 7.25-3.342 1.776-.287 2.75-.001 2.75.81 0 2.049 2.317-.753 2.701-3.265.276-1.81.091-1.951-1.177-.899-1.236 1.026-1.639.916-2.264-.616-.418-1.025-1.356-1.988-2.084-2.139-.729-.151-1.04.187-.691.75.951 1.539-.42 1.233-2.128-.475-1.388-1.389-1.051-1.944.968-1.593.454.079.536-.768.183-1.882-.421-1.328-.189-2.037.675-2.06.724-.02.192-.679-1.183-1.465l-2.5-1.429 2.691-.036c3.34-.044 4.441-1.581 2.08-2.906-1.678-.942-1.679-1.03-.027-1.667.96-.369 1.496-1.074 1.191-1.567-.78-1.263.944-1.116 2.252.192.783.783 1.275.783 1.759 0 .385-.623-.1-1.121-1.137-1.166-1.414-.062-1.481-.206-.309-.662.825-.321 2.054-1.298 2.731-2.171 1.087-1.403 1.348-1.413 2.235-.088.818 1.223 1.006 1.081 1.019-.769.013-1.977-.339-2.181-2.735-1.584-2.479.617-2.615.521-1.378-.981.967-1.174 1.024-1.666.191-1.666-.649 0-.873-.498-.497-1.107.478-.774.976-.698 1.653.25.739 1.034.836.94.407-.393-.363-1.128-.041-1.75.905-1.75.808 0 1.483.563 1.499 1.25.017.688.55.35 1.186-.75 1.524-2.64 2.992-4.069 4.799-4.672 1.113-.371.892-.808-.895-1.764-1.947-1.042-2.529-1.027-3.232.083-.587.926-.862.973-.873.151C142.004.374 125.57.08 70.973.025L-.054-.045l.085 142.74M221 184.489c0 .334 1.575 3.069 3.5 6.078 4.081 6.379 4.374 8.388 1.25 8.549-1.693.087-1.817.229-.5.573 1.157.303 1.801 1.533 1.9 3.634.142 3.024.17 3.045.566.427.229-1.512.848-2.75 1.375-2.75 1.203 0 3.206 4.838 3.105 7.5-.07 1.865.056 1.841 1.864-.361 1.14-1.387 1.937-1.8 1.932-1-.03 5.491-2.227 18.578-3.931 23.429-2.383 6.779-2.319 6.432-1.186 6.432 1.791 0 5.097-13.638 5.538-22.844.334-6.981.884-9.826 2.172-11.25.949-1.048 1.26-1.906.692-1.906-.567 0-1.584.666-2.26 1.479-2.205 2.657-5.284.048-4.484-3.799.631-3.031.588-3.086-.904-1.18-1.009 1.289-1.577 1.52-1.597.651-.059-2.476-9.032-16.049-9.032-13.662m-3.877 4.011c-.019 1.1.559 3.664 1.285 5.697l1.32 3.697-3.114.393-3.114.393 3.237.16c2.731.135 3.482.745 4.813 3.91 4.746 11.283 6.716 20.25 4.45 20.25-.55 0-1 .477-1 1.059s.364.834.81.559c.445-.275.669 2.285.497 5.691-.237 4.711-.067 5.713.711 4.191.915-1.789.97-1.736.516.5-.279 1.375-.513 3.063-.52 3.75-.022 2.01-5.788 1.554-6.325-.5-.435-1.667-.463-1.667-.573 0-.134 2.014-3.682 2.413-4.454.5-.301-.747-.536-.545-.583.5-.06 1.319-1.002 1.779-3.829 1.868-2.062.065-5.1.486-6.75.935-1.936.527-.638.624 3.659.275l6.659-.541.726 6.776c.455 4.253.337 7.398-.318 8.446-.573.918-.697 2.23-.274 2.914 1.426 2.307 2.992-7.089 2.179-13.072l-.769-5.648 5.319-.064c3.195-.038 5.319.37 5.319 1.021 0 .694.558.622 1.547-.199 1.13-.938 1.231-1.48.372-2.011-.646-.399-.863-1.231-.482-1.848.382-.618.871-5.73 1.088-11.362.217-5.632.614-12.49.882-15.24.269-2.75.254-4.213-.033-3.25-.812 2.728-1.654 2.145-5.049-3.493-2.224-3.693-2.812-5.462-1.991-5.985.775-.493.607-.747-.501-.757-1.124-.01-2.318-1.885-3.671-5.765-1.102-3.162-2.02-4.85-2.039-3.75M253 195.809c0 .445-1.645 3.482-3.656 6.75-2.012 3.267-4.231 7.966-4.933 10.441-.939 3.312-1.312 3.84-1.414 2-.076-1.375-.522-3.4-.992-4.5-.581-1.361-.758-.322-.553 3.25.166 2.887-.123 5.25-.642 5.25-.859 0-.181 3.823.883 4.985 1.013 1.106 4.397-4.951 6.417-11.485 1.19-3.85 3.227-9.123 4.527-11.717 2.659-5.308 2.771-5.783 1.363-5.783-.55 0-1 .364-1 .809m-44.178 3.346c-.279 1.46-.208 3.26.158 4 .367.74.479 3.7.248 6.579-.527 6.589-3.077 5.942-5.806-1.473-2.018-5.481-3.444-7.382-4.132-5.505-.254.691-.872 1.002-1.375.691-1.243-.768-1.163.905.104 2.172 1.514 1.514 1.594 14.041.133 20.694-1.524 6.94-.995 9.853.761 4.187.681-2.2 1.497-4.675 1.812-5.5.315-.825.465-4.537.334-8.25-.265-7.501.162-8.157 2.441-3.75.853 1.65 1.297 3 .986 3-.311 0 .015.628.725 1.396 1.098 1.189 1.397 1.152 2.015-.25.4-.905.472-.01.161 1.989-.312 2-.124 3.91.417 4.244.541.334.986-.402.989-1.636.012-4.879 1.861-12.235 3.015-11.993.809.17 1.192-1.518 1.192-5.25 0-4.078-.366-5.5-1.417-5.5-.779 0-1.604-.562-1.834-1.25-.23-.687-.647-.055-.927 1.405m23.113 42.945l2.435.972-3.168 2.214c-1.742 1.218-3.175 2.934-3.185 3.815-.031 2.902 2.112 7.777 3.557 8.091 1.044.226.436 1.831-2.293 6.058l-3.713 5.75h-10.725c-5.899 0-10.934.337-11.189.75-.255.413 5.649.75 13.119.75s12.827-.145 11.905-.323c-2.53-.488-2.12-1.317 3.277-6.633 2.725-2.684 4.724-5.255 4.441-5.712-.283-.458-.037-.832.545-.832.582 0 1.059-.47 1.059-1.045 0-.646-1.29-.804-3.372-.413-3.253.61-3.397.502-4.064-3.055-1.152-6.14.982-7.54 10.83-7.102 7.715.343 7.913.3 4.106-.896-2.2-.691-5.164-1.042-6.586-.78-1.576.29-3.209-.147-4.179-1.117-.876-.875-2.412-1.563-3.414-1.529-1.388.049-1.242.295.614 1.037M269 302c1.297.838 1.275.971-.167.985-2.231.02-2.829 2.162-1.089 3.901 1.156 1.157 1.17 1.553.08 2.244-1.006.638-.904.843.426.855 1.971.017 2.334 1.536.622 2.594-.772.477-.614.986.5 1.609 1.16.649 1.651 2.406 1.707 6.112.075 4.927.136 5.044 1.158 2.226.988-2.724 1.152-2.808 1.94-1 .625 1.432.723 1.069.357-1.326-.755-4.945 1.097-2.92 2.563 2.802 1.126 4.393 2.903 6.828 2.903 3.978 0-1.97-4.702-12.532-7.764-17.44-3.652-5.851-3.209-7.846.874-3.935 3.495 3.348 3.792 1.992.406-1.855-1.331-1.512-3.229-2.743-4.218-2.735-1.527.013-1.572.162-.298.985m-10.75.662c-.687.278-1.25 1.619-1.25 2.98 0 1.617-.401 2.228-1.155 1.763-.763-.473-.88-.271-.345.595.526.851.418 1.067-.309.618-1.016-.628-2.543.593-5.881 4.704-.654.806-.975 1.68-.712 1.942.613.613-1.702 5.736-2.592 5.736-.37 0-.673-.675-.673-1.5s.402-1.5.893-1.5c.49 0 .614-.45.274-1-.34-.55-.029-1.007.691-1.015 1.035-.012 1.023-.197-.058-.882-1.107-.701-.93-1.458.929-3.972 1.263-1.709 2.027-3.375 1.698-3.704-.329-.329-1.1.34-1.714 1.487-.837 1.565-2.045 2.068-4.831 2.016-2.972-.057-3.315-.24-1.715-.919 1.561-.662 1.185-.831-1.71-.769-3.514.075-4.501 1.758-1.031 1.758 1.215 0 1.349.292.516 1.125-1.373 1.373-10.275.253-10.275-1.292 0-.575-1.129-1.933-2.51-3.019-1.38-1.086-2.253-2.388-1.941-2.894 1.249-2.02-1.527-.763-3.304 1.496-1.307 1.661-2.336 2.146-3.295 1.553-1.153-.713-1.11-.97.251-1.493 2.578-.989 3.085-3.476.709-3.476-1.13 0-1.748.454-1.395 1.025.349.563.232.901-.259.75-1.808-.557-12.301 12.175-12.234 14.843.012.485.924-.243 2.026-1.618l2.003-2.5-.679 3c-.813 3.588-2.646 5.07-3.447 2.786-.724-2.064-1.945.547-1.892 4.046.033 2.161.04 2.16 2-.193 2.614-3.138 2.516-.763-.147 3.546-1.163 1.881-1.886 3.648-1.608 3.926.905.905 7.539-11 8.702-15.617.623-2.472 1.991-5.619 3.04-6.994l1.908-2.5-.561 4c-.308 2.2-1.268 5.951-2.132 8.337-.951 2.622-1.199 4.598-.626 5 .52.364 1.466 1.788 2.101 3.163 1.284 2.781 1.598.649.368-2.5-.614-1.572-.165-2.375 2.095-3.75 3.67-2.234 3.494-2.336 3.017 1.75-.225 1.925-.836 3.5-1.358 3.5-.523 0-.66.47-.305 1.044.355.574.044 1.772-.691 2.662-1.049 1.272-1.068 1.71-.086 2.04.688.231 1.25.819 1.25 1.306 0 .487-.675.626-1.5.31-1.126-.432-1.482.137-1.43 2.281.063 2.554.171 2.645 1.016.857.782-1.655.853-1.526.41.751-1.53 7.874-1.724 11.749-.588 11.749.649 0 1.08-.562.959-1.25-.424-2.396 2.406-16.699 3.206-16.205.443.274.824-.299.846-1.273.081-3.59 2.486-14.272 3.212-14.272 1.27 0 1.959 1.826.929 2.463-.535.331-.72 1.259-.412 2.063.309.805.964 1.214 1.457.909.492-.304.834.936.759 2.756-.097 2.348-.262 2.655-.57 1.059-.639-3.319-2.294-2.735-2.294.809 0 1.682.385 2.821.856 2.53.47-.291.643.583.383 1.941-.26 1.359-.817 2.47-1.239 2.47-.422 0-1.023.788-1.336 1.75-.313.962-1.447 4.189-2.52 7.169-2.061 5.725-1.908 8.311.439 7.411 2.365-.908 1.593 1.128-1.583 4.17-2.882 2.761-4.401 8.484-1.83 6.895.787-.486.961-.178.531.941-.351.915-.246 1.664.233 1.664.478 0 1.341-1.35 1.916-3 1.43-4.101 2.149-3.772 1.431.655-.444 2.736-.285 3.466.63 2.9.75-.463 1.151-.234 1.037.595-.446 3.253.117 5.928 1.119 5.308.587-.362 1.286.174 1.553 1.191.784 2.992 9.354 3.02 9.45.031.068-2.106.1-2.112.93-.18 1.262 2.936 1.171 3.5-.559 3.5-.857 0-1.293.43-.968.956.325.526 1.318.678 2.207.337 1.351-.519 1.494-.144.872 2.293-1.512 5.929-1.687 12.191-.46 16.492.694 2.432 1.225 4.647 1.18 4.922-.044.275.557 1.085 1.336 1.801 1.171 1.075 1.524 1.018 2.043-.334.485-1.263.808-1.343 1.422-.349 1.072 1.734.222 2.882-2.132 2.882-1.068 0-1.941.45-1.941 1s-1.238 1.052-2.75 1.116c-1.848.078-2.148.271-.914.59 2.042.527 1.672 4.017-.799 7.545-1.206 1.722-1.439 1.279-2.32-4.419l-.979-6.332.01 7c.006 3.85-.12 7.45-.28 8-.16.55.171 2.125.735 3.5.565 1.375.9 3.625.745 5a3552.92 3552.92 0 00-.365 3.25c-.204 1.837-2.083.52-2.083-1.46 0-1.216-1.238-5.708-2.75-9.982-2.106-5.95-2.499-8.186-1.68-9.54.592-.979.748-2.884.349-4.268-1.426-4.951-1.081-7.994.831-7.327 1.631.57 1.638.492.096-1.149-1.809-1.926-3.846-1.313-3.846 1.157 0 1.277-.275 1.335-1.5.319-.989-.821-1.5-.874-1.5-.154 0 .6-.727.812-1.616.471-1.377-.528-1.446-.301-.465 1.531.633 1.184 1.586 2.152 2.116 2.152.531 0 .965.665.965 1.479 0 1.214-.447 1.274-2.5.339-1.375-.626-2.5-1.517-2.5-1.979 0-.461-.702-.839-1.559-.839s-1.281.45-.941 1c.34.55-.084 1-.941 1s-1.559-.388-1.559-.861c0-.474-1.125-.647-2.5-.384-3.221.616-3.157-.244.25-3.391 1.882-1.738 2.181-2.358.948-1.963-1.055.337-1.549.166-1.191-.412.997-1.613-.824-1.088-3.507 1.011-1.375 1.076-2.838 1.966-3.25 1.978-1.366.04-.778-3.29.911-5.155.913-1.01 1.408-2.087 1.1-2.395-.308-.308-1.462.408-2.563 1.59-1.915 2.056-2.052 2.07-3.09.316-.937-1.581-1.063-1.421-.914 1.166.094 1.65-.363 3.987-1.016 5.193-1.431 2.643-1.732 9.353-.844 18.807.938 9.982-1.017 3.413-2.261-7.597-.845-7.475-.89-6.913-.409 5.097.298 7.425.893 13.725 1.323 14 .43.275.984 1.4 1.23 2.5.274 1.22.758.116 1.241-2.83.436-2.656 1.299-5.023 1.917-5.261.619-.237 1.266-2.765 1.437-5.617.373-6.188.901-7.275 2.777-5.718 1.079.896 1.411.893 1.411-.011 0-.649.5-.872 1.112-.494a1.303 1.303 0 001.791-.413c.393-.635 1.167.191 1.834 1.959.97 2.57.924 2.969-.291 2.503-.795-.306-1.446-.17-1.446.3 0 1.52 5.979 1.785 8.02.355 1.089-.762 2.017-1.248 2.063-1.08 1.042 3.834.468 4.967-2.243 4.425-1.821-.364-2.84-.15-2.84.598 0 .642-.606.337-1.347-.676-.741-1.014-1.6-1.435-1.908-.936-.308.498.329 2.005 1.417 3.348 1.499 1.85 2.172 2.126 2.782 1.138.658-1.063.966-1.054 1.674.053 1.424 2.225 1.164 5.987-.373 5.397-.829-.318-1.077-.077-.642.626.435.704.263.869-.448.429-1.58-.976-1.448.767.392 5.171 1.091 2.612 1.785 3.314 2.359 2.387.564-.913 1.335-.008 2.523 2.962 1.27 3.174 1.936 3.912 2.584 2.864.673-1.089 1.113-.777 1.93 1.37 1.366 3.593 1.411 13.988.057 13.151-.55-.34-1-1.716-1-3.059 0-1.343-.428-2.441-.951-2.441-.537 0-.774 2.436-.544 5.59.334 4.589.146 5.49-1.049 5.031-.801-.307-1.456-.122-1.456.41 0 .533.408.969.906.969 2.468 0-.32 3.606-2.942 3.806-2.239.171-2.778-.128-2.331-1.292.32-.833 1.058-1.514 1.641-1.514.582 0 .758-.302.389-.67-.368-.369-.067-1.606.669-2.75 2.675-4.155 3.948-11.728 2.255-13.421-1.362-1.362-1.511-1.032-1.427 3.154.051 2.572-.41 5.283-1.025 6.024-.615.741-.863 1.602-.551 1.914.312.311-.336.853-1.439 1.203-1.174.373-2.281 1.89-2.67 3.659-.365 1.662-1.409 3.26-2.319 3.551-.911.29-2.331.74-3.156.999-2.217.697.681 2.145 5.316 2.655 2.002.221 4.213.873 4.913 1.449.896.739 2.155.657 4.271-.278 1.928-.852 2.374-1.356 1.25-1.408-2.385-.11-2.198-2.223.449-5.064 1.592-1.709 2.315-3.97 2.621-8.204.384-5.312 2.18-9.49 2.18-5.072 0 1.022.483 2.342 1.074 2.933 1.236 1.236-.401 12.053-2.078 13.73-1.351 1.351-1.261 3.596.144 3.596.627 0 1.737-.788 2.468-1.75 1.265-1.667 1.33-1.667 1.36 0 .018.962.53 1.75 1.139 1.75.61 0 .828-.728.485-1.621-.472-1.231-.157-1.498 1.315-1.114 1.658.434 2.017-.159 2.499-4.129.913-7.539 1.042-14.021.293-14.77-.384-.385-.706 1.063-.714 3.217-.012 2.897-.268 3.527-.985 2.417-.758-1.173-.973-.914-.985 1.191-.008 1.48-.465 2.969-1.015 3.309-.55.34-1-.323-1-1.473 0-1.15-.688-3.739-1.53-5.753-1.373-3.286-1.373-3.749 0-4.517 1.03-.577 1.581-2.555 1.687-6.057l.157-5.2.593 5c.59 4.975 2.093 4.317 2.093-.915 0-1.238-.338-2.59-.75-3.004-.412-.414-.75-2.289-.75-4.166 0-1.878.338-3.415.75-3.415s.823-1.012.912-2.25c.089-1.238.434 1.933.766 7.046.425 6.545 1.035 9.563 2.059 10.196 1.939 1.198 1.909 1.442.779-6.262-1.12-7.644.171-12.73 3.233-12.73.967 0 2.506-1.012 3.421-2.25l1.664-2.25-.408 2.774c-.224 1.525.001 3.026.5 3.335.499.308.805 2.539.68 4.957-.262 5.053.603 6.725 1.543 2.981.351-1.401 1.332-2.547 2.179-2.547.847 0 1.277-.425.956-.945-.321-.52.106-2.433.949-4.25 1.514-3.265 1.527-3.219 1.064 3.695-.268 3.998-.112 6.357.364 5.5 1.134-2.042 2.015-14.502 1.126-15.94-.431-.698-1.655.822-3.08 3.824-1.301 2.74-2.725 4.76-3.164 4.488-.439-.271-.326-1.375.251-2.453.576-1.078.789-2.38.472-2.894-1.613-2.61.707-6.025 4.092-6.025 1.866 0 3.392-.381 3.392-.847 0-.466 1.012-1.336 2.25-1.933 1.867-.9 1.942-1.096.443-1.152-1.666-.063-1.686-.241-.25-2.291 2.514-3.588 2.004-7.214-1.193-8.478-2.726-1.077-2.716-1.087 1.108-1.193 3.605-.099 3.819.054 3.25 2.322-.391 1.554-.044 2.993.963 4 1.897 1.897 2.571 1.99 2.354.322-.307-2.368.077-3.75 1.044-3.75.532 0 .681.749.33 1.664-.43 1.119-.256 1.427.531.941 1.586-.98 1.471-2.447-.333-4.251-1.337-1.337-1.584-1.301-2.238.322-.517 1.282-.914.339-1.337-3.176-.331-2.75-.207-5.156.275-5.346 1.793-.706 6.795-5.36 6.445-5.995-.2-.363.184-1.959.854-3.548l1.218-2.888.648 2.582c.488 1.947.032 3.246-1.857 5.284-1.378 1.487-2.489 3.2-2.469 3.807.02.607 1.145-.246 2.5-1.896l2.464-3-.363 4.5c-.492 6.092-3.94 21-4.858 21-2.433 0-9.961 21.908-9.671 28.145.112 2.395-.259 6.222-.824 8.505-1.072 4.334-.023 8.439 1.286 5.029.372-.971.405-2.038.072-2.371-.333-.333.316-1.404 1.442-2.381 1.126-.976 2.018-2.035 1.982-2.351-.204-1.785.108-1.882 1.019-.318.563.967.745 2.208.405 2.759-.808 1.306.37 4.983 1.596 4.983.524 0 .67-1.125.325-2.5-.401-1.597-.206-2.5.54-2.5.642 0 .846.52.454 1.155-.443.715-.275.883.44.44.635-.392 1.155-.21 1.155.405s.43.852.956.527c.526-.325.733-1.174.46-1.887-.274-.712-.069-2.423.455-3.801.541-1.423.582-3.106.095-3.894-.686-1.11-1.009-.992-1.606.583-1.683 4.437-3.093 4.545-3.773.29-.359-2.247-.413-4.325-.12-4.618.293-.293.533-.008.533.633 0 .642.477 1.167 1.059 1.167s.835-.362.561-.805c-.273-.443-.1-2.565.385-4.716.511-2.267.509-4.359-.004-4.978-.971-1.17.203-3.768 1.586-3.511.475.088 1.024-.324 1.221-.915.197-.591-.098-1.075-.655-1.075-.558 0-1.209-1.012-1.447-2.25-.38-1.971-.451-1.916-.57.441-.075 1.48-.662 3.016-1.306 3.414-.782.483-.962.182-.544-.909.345-.898.236-1.873-.241-2.168-.477-.295-.36-1.883.261-3.527l1.129-2.991 1.345 2.245 1.345 2.245-.46-2.216c-.465-2.241 1.14-2.731 2.57-.784.415.565.741.238.75-.75.008-.962-.435-1.75-.985-1.75s-1-.436-1-.969c0-.532.713-.695 1.585-.36 1.202.461 1.433 1.42.955 3.969-.389 2.072-.23 3.36.415 3.36.575 0 1.101-1.125 1.17-2.5.069-1.375.21-3.062.313-3.75.104-.687-.472-2.038-1.28-3-1.303-1.554-1.255-1.985.428-3.845l1.897-2.096.615 2.346c.588 2.244.645 2.216 1.319-.655.387-1.65 1.105-3.747 1.596-4.661.622-1.158.452-1.83-.56-2.219-.83-.318-1.453.023-1.453.796 0 .745-1.137 2.099-2.527 3.01-2.517 1.649-2.525 1.644-1.951-1.135.317-1.535.844-5.402 1.171-8.593.465-4.545.912-5.68 2.062-5.239.986.379 1.286.089.913-.882-1.769-4.611-2.718-17.842-1.48-20.639 1.315-2.971 2.812-3.914 2.812-1.771 0 .641.247.919.549.618.301-.302.231-1.814-.157-3.359l-.705-2.811-.996 2.443c-.878 2.154-1.048 2.221-1.442.562-.245-1.034.021-2.169.592-2.522 1.366-.844 1.18-7.395-.236-8.317-.795-.518-.754-1.287.145-2.737 1.745-2.815 1.572-4.948-.197-2.423-.833 1.189-1.403 4.148-1.343 6.972.069 3.228-.633 6.347-2.053 9.117-1.186 2.316-2.157 4.93-2.157 5.809 0 .88-.45 1.321-1 .981-.572-.354-1.075.691-1.175 2.441-.426 7.449-.568 8.686-1.244 10.809-.453 1.425-.303 2.25.411 2.25.619 0 .873.41.563.911-.31.501-1.339.797-2.288.658-.949-.14-2.364.385-3.145 1.166-.781.781-2.278 1.196-3.326.922-1.352-.354-2.173.205-2.826 1.922-.506 1.332-1.633 2.421-2.504 2.421s-1.306-.45-.966-1c.34-.55.156-1-.41-1-.565 0-.74-.749-.389-1.664.407-1.059.244-1.42-.446-.994-.596.369-1.265.128-1.486-.535-.254-.761-.643-.579-1.054.494-.359.934-.23 1.699.285 1.699s.659.724.32 1.609c-1.321 3.443-2.529-1.445-1.288-5.207.642-1.945.897-3.806.568-4.136-.33-.329-.607.038-.615.817-.013 1.171-.198 1.157-1.066-.083-.816-1.166-.926-.943-.494 1 .306 1.375.297 1.935-.02 1.244-.63-1.375-2.405-.73-2.405.874 0 .55.521.678 1.158.285.811-.502.965.003.513 1.691-.354 1.323-.65 2.77-.657 3.215-.008.445-.482.52-1.055.166-.572-.354-.774-1.618-.448-2.809.579-2.115.556-2.12-.959-.225-.854 1.068-1.552 2.343-1.552 2.833 0 1.66-2.303.138-3.116-2.059-.68-1.837-.08-2.737 3.798-5.698 4.769-3.642 7.307-4.426 7.333-2.267.011.833.339.75.985-.25 1.436-2.223 1.207-3.017-.664-2.299-1.119.43-1.427.256-.941-.531.398-.644.246-1.17-.336-1.17-.582 0-.159-.9.941-2 2.384-2.384 2.806-4.913.5-3-2.091 1.735-1.882-.206.276-2.561 1.283-1.4 1.594-2.773 1.119-4.939l-.658-3-.134 3c-.094 2.1-.393 2.591-.997 1.637-.729-1.151-.948-1.151-1.406 0-.409 1.028-.562 1.047-.621.078-.043-.707.681-2.446 1.61-3.864 1.045-1.594 1.661-4.453 1.615-7.495-.067-4.486.103-4.862 1.936-4.28 1.426.453 1.792.285 1.261-.575-.413-.667-.712-3.149-.664-5.515.064-3.188-.357-4.473-1.625-4.965-1.573-.61-1.554-.78.229-2.092 1.689-1.243 1.722-1.429.25-1.429-.93 0-1.698-.562-1.706-1.25-.011-.864-.243-.91-.75-.151-.956 1.429-4.235 1.396-4.235-.043 0-3.246 5.228-7.192 6.167-4.655.183.496.903.282 1.601-.476 1.044-1.136.825-1.489-1.25-2.01-2.419-.607-3.463-2.89-1.64-3.582.483-.183 1.207-1.852 1.607-3.708.511-2.367.398-3.171-.378-2.691-1.343.83-1.377-3.035-.053-5.934.776-1.699.878-1.561.68.913-.131 1.625.319 3.098 1.016 3.333.688.231 1.282-.404 1.32-1.413.067-1.752.103-1.751.804.032.554 1.41 1.131.436 2.361-3.985 1.717-6.168 1.562-8.608-.244-3.856-.705 1.853-1.401 2.466-2.057 1.81-.657-.657-.477-1.982.531-3.913.837-1.607 1.557-2.246 1.599-1.421.051 1.004.361.839.936-.5 1.285-2.99 1.167-3.501-.65-2.804-1.365.524-1.534.174-.981-2.032.368-1.465.548-2.628.4-2.585-.148.043-.831.306-1.519.583m26.291 22.838c-.393 2.2-1.541 7.038-2.551 10.75-1.12 4.117-1.434 6.75-.805 6.75.61 0 .767 1.056.383 2.584-.409 1.633-.276 2.354.363 1.959.556-.344 1.275.631 1.597 2.166.323 1.535.95 4.591 1.392 6.791.443 2.2.525 7.264.182 11.253-.384 4.48-.255 7.131.339 6.933.528-.176.843-2.54.699-5.253-.143-2.713.225-6.058.819-7.433.93-2.15 1.025-1.833.682 2.266-.219 2.621.004 5.015.496 5.319.493.304.637.972.32 1.484-.316.512-.146.931.379.931 1.096 0 2.076 7.937 1.057 8.566-.37.229-.984-1.236-1.363-3.256-.509-2.717-.924-3.3-1.594-2.241-1.289 2.036-1.154 4.184.21 3.341.81-.501.945.092.46 2.025-.386 1.535-.295 2.491.208 2.18 1.068-.66 3.186 3.654 3.186 6.491 0 1.282-.425 1.75-1.17 1.289-.798-.493-.957-.168-.5 1.023.369.96.67 2.474.67 3.364 0 2.621 1.794.063 2.302-3.282.25-1.65.425.99.389 5.866-.044 5.906-.505 9.305-1.379 10.179-.721.722-1.312 3.174-1.312 5.449 0 2.276-.55 5.12-1.223 6.322-1.177 2.102-1.25 2.052-1.947-1.316-.622-3.008-.678-2.835-.402 1.232.177 2.602-.038 4.509-.477 4.238-1.24-.766-1.689 2.748-.706 5.514.916 2.574-.728 10.579-2.382 11.601-.475.293-.863 1.38-.863 2.415 0 1.035-.461 2.167-1.024 2.515-.674.417-.793-.808-.347-3.595.482-3.013.353-4.027-.447-3.532-.673.415-1.32-.226-1.614-1.597-.269-1.26-.68-3.191-.913-4.291-.233-1.1-.475-.349-.539 1.668-.064 2.018-.417 4.454-.786 5.414-.48 1.25-.311 1.524.594.965 1.735-1.073 1.069 8.432-.723 10.324-.715.753-1.552 2.636-1.862 4.184-.615 3.077-4.373 6.877-9.343 9.447-1.75.905-2.959 1.869-2.686 2.141.273.273 2.322-.435 4.553-1.573 4.523-2.307 5.548-2.544 4.637-1.07-.88 1.424.679 1.18 2.819-.442 1.2-.91 2.73-1.122 4.5-.622 3.194.901 5.454.315 4.533-1.176-.419-.677-.181-.772.648-.26.866.535 1.068.418.595-.345-.425-.69-.067-1.155.89-1.155.972 0 1.487-.689 1.309-1.75-.23-1.371.464-1.777 3.206-1.875 1.925-.069 4.837-.658 6.47-1.309 1.634-.651 3.794-.969 4.799-.706 1.348.353 1.751-.009 1.53-1.374-.333-2.061 5.638-7.986 8.048-7.986.817 0 1.193-.293.835-.651-.358-.358.13-1.295 1.084-2.082 1.643-1.356 1.643-1.402-.016-.88-.962.303-1.75.059-1.75-.541 0-.723-.502-.674-1.489.145-.819.68-1.242 1.635-.941 2.122.301.488-.154.887-1.011.887-.946 0-1.565-.885-1.574-2.25-.013-1.827-.201-1.968-1-.75-.876 1.333-1.094 1.333-1.97 0-.857-1.306-.986-1.29-1 .128-.008.895-.69 2.187-1.515 2.872-2.122 1.761-2.03-1.821.165-6.423 1.887-3.957 3.6-3.815 2.833.234-.443 2.341-.308 2.254 1.043-.667 2.103-4.551 3.09-9.652 1.701-8.793-.589.364-1.261.096-1.494-.595-.625-1.857.341-4.819 1.366-4.186.487.302.886-.209.886-1.133 0-1.331-.293-1.439-1.405-.516-1.173.974-1.472.21-1.811-4.627-.411-5.876.63-9.228 1.774-5.711.343 1.054 1.069 2.855 1.613 4.002 1.076 2.266 1.467 5.702 1.687 14.832.199 8.269 1.318 6.288 1.318-2.334 0-3.891.411-7.328.912-7.638.502-.309.926.476.942 1.746.026 1.931.186 2.044.978.689.621-1.064.48-3.418-.411-6.852-.746-2.877-1.147-6.198-.89-7.379.389-1.794.274-1.901-.695-.649-.918 1.186-1.046.662-.61-2.5.391-2.843.289-3.422-.355-2-.812 1.792-.914 1.714-.977-.75-.038-1.512-.52-2.75-1.07-2.75s-1-.47-1-1.044c0-.574.788-.911 1.75-.75 1.188.2 1.857-.464 2.084-2.067.22-1.552-.051-2.123-.79-1.666-.785.485-.919-.159-.443-2.139.941-3.919 1.068-3.91 1.824.119.366 1.951 1.17 3.547 1.787 3.547s.825.296.463.658c-.362.362-.156 1.262.456 2 .819.987.817 1.342-.009 1.342-.617 0-1.122-.54-1.122-1.2 0-.844-.314-.886-1.058-.142-.745.745-.448 2.871 1 7.169 2.379 7.062 2.9 20.726.817 21.42-.911.304-.812.842.372 2.027 1.034 1.034 1.427 2.589 1.093 4.333-.438 2.293-.24 2.613 1.257 2.039 1.533-.589 1.692-.262 1.163 2.386-.381 1.904-.24 2.837.371 2.459.542-.335.985-1.955.985-3.6s.735-4.412 1.634-6.15c1.896-3.666 2.591-12.158 1.241-15.168-.768-1.716-.851-1.557-.479.927.247 1.65-.175 4.125-.938 5.5l-1.387 2.5-.036-2.8c-.019-1.539-.669-4.025-1.443-5.522-.774-1.498-1.327-4.437-1.229-6.533.099-2.095-.168-4.024-.592-4.286-.424-.263-.742-1.463-.708-2.668l.064-2.191.904 2.25c1.255 3.122 2.125 2.819 1.436-.5l-.571-2.75 1.717 3c.945 1.65 1.901 2.451 2.126 1.779.656-1.96-5.038-11.384-6.028-9.976-.498.708-.581.27-.203-1.072.455-1.615-.103-3.149-1.935-5.326-2.487-2.956-2.574-2.981-2.588-.732-.013 1.861-.207 2.026-.97.827-.744-1.168-1.111-.726-1.662 2l-.706 3.5-.784-2.926c-1.036-3.866-.173-18.764 1.134-19.572.602-.372-.01-1.605-1.486-2.992-1.381-1.297-2.511-2.955-2.511-3.684 0-.774-1.124-1.326-2.7-1.326-2.1 0-2.433.267-1.5 1.2.66.66 1.157 3.022 1.104 5.25l-.096 4.05-1.285-5c-1.147-4.463-1.298-4.651-1.404-1.75-.066 1.788-.519 3.25-1.008 3.25s-.868.563-.842 1.25c.177 4.785-.352 7.17-1.277 5.75-.55-.845-.72-4.448-.388-8.25.391-4.477.23-6.75-.476-6.75-.586 0-.778-.749-.427-1.664.454-1.183.27-1.436-.638-.875-.916.566-1.12.26-.721-1.086 3.164-10.661 6.083-27.813 3.723-21.875l-.795 2-.526-2c-.289-1.1-.3.053-.024 2.563.38 3.468-.064 5.748-1.85 9.5-3.294 6.92-3.251 6.791-2 6.017 1.625-1.004 1.396 1.686-.338 3.979-1.37 1.811-1.471 1.82-1.5.132-.018-.995-.437-1.558-.933-1.252-2.605 1.61-4.275-17.905-2.339-27.331.722-3.515 1.129-6.89.904-7.5-.224-.609-.73.692-1.123 2.892m-76.962 10.79c-.957 5.615-2.625 12.177-3.705 14.581-1.081 2.404-1.771 4.565-1.534 4.803.868.867 4.66-5.009 4.66-7.22 0-1.598.522-2.202 1.75-2.025 1.339.192 1.782 1.286 1.885 4.661.074 2.426-.068 3.172-.316 1.66-.249-1.512-.872-2.75-1.385-2.75-.514 0-.938 1.238-.944 2.75-.01 2.996-3.76 11.554-6.462 14.75l-1.691 2 .651-2c1.965-6.029 1.366-7.338-.915-2-2.889 6.762-3.117 7.801-1.137 5.19.925-1.22 1.597-1.445 2.063-.691.749 1.211-4.179 9.001-5.694 9.001-.508 0-.667.414-.355.919.313.506-.125 1.613-.971 2.46-2.034 2.033-5.432 9.595-5.447 12.121-.007 1.131 1.007-.173 2.333-3 1.29-2.75 4.895-8.796 8.012-13.435 3.116-4.64 5.496-8.915 5.287-9.5-.208-.586.474-2.283 1.516-3.772 1.042-1.489 2.521-4.414 3.287-6.5.766-2.086 1.424-3.005 1.463-2.043.038.962.506 1.75 1.039 1.75 1.425 0-.05 3.293-2.153 4.807-.999.718-1.816 1.689-1.816 2.156 0 1.283 3.99-.023 4.063-1.33.035-.623.533-.008 1.105 1.367.988 2.37 1.081 2.396 1.801.5.417-1.1.337-2.272-.178-2.604-.515-.332-.674-2.357-.353-4.5.458-3.055.361-3.464-.446-1.896-.814 1.583-.923 1.165-.521-2 .279-2.2.519-5.35.533-7 .021-2.363.245-2.681 1.053-1.5.845 1.236.975 1.147.735-.5-.161-1.1-.854-2.595-1.542-3.321-.687-.727-1.25-1.965-1.25-2.75 0-.786-.512-1.429-1.138-1.429-.789 0-.942-1.666-.498-5.44 1.134-9.65-.988-6.807-2.785 3.73m-16.323-3.164c-.67 2.82-.932 5.589-.583 6.155.396.639.135.718-.688.209-.975-.602-1.148-.356-.655.928.369.96.67 2.02.67 2.355 0 .335.706-.264 1.568-1.332 1.465-1.813 1.528-1.644.955 2.559-.49 3.59-1.559 5.461-5.281 9.25-4.924 5.012-4.899 6.704.03 2l2.881-2.75-.711 3c-.391 1.65-1.397 3.79-2.237 4.756-1.836 2.113-1.304 3.046.807 1.412 1.5-1.162 2.895-5.174 5.446-15.668.735-3.025 1.415-4.6 1.51-3.5.119 1.373.812.589 2.211-2.5 1.65-3.645 2.168-4.15 2.726-2.655.612 1.641.821 1.552 1.891-.797 1.449-3.18 1.507-3.853.267-3.087-.532.329-.734-.545-.466-2.021.296-1.634.087-2.363-.563-1.961-.569.351-1.034.147-1.034-.455 0-.784-.566-.791-2-.024-1.1.589-2 .744-2 .344 0-.399-.708.147-1.574 1.215-1.535 1.892-1.562 1.885-1.094-.309.997-4.669-.912-2.024-2.076 2.876m-32.349 17.125c-.292 4.131-.057 5.751.834 5.75.89-.001 1.2 2.119 1.098 7.499-.137 7.163-.248 7.5-2.491 7.5-1.42 0-2.348.593-2.348 1.5 0 .825-.734 1.5-1.63 1.5-1.34 0-1.54.8-1.123 4.5.279 2.475.113 4.5-.37 4.5-.482 0-.87.788-.862 1.75.013 1.507.16 1.542 1.054.25.854-1.233.974-1.144.675.5-.199 1.1-.899 1.887-1.553 1.75-.664-.139-1.191.83-1.191 2.191 0 1.343-.45 2.719-1 3.059-.556.343-1.004-.408-1.01-1.691-.007-1.602-.781-.652-2.528 3.101-1.385 2.976-3.166 5.901-3.958 6.5-3.014 2.283-4.739 8.97-5.052 19.59-.17 5.775-.097 9.15.163 7.5.259-1.65.75-3.675 1.092-4.5.897-2.168 1.027-2.747 1.183-5.25.115-1.834.32-1.972 1.11-.75 1.426 2.207 1.211 5.27-.629 8.958-1.244 2.494-1.342 3.442-.414 4.015.667.413 1.175 1.038 1.128 1.389-.472 3.527.081 6.653 1.07 6.043.67-.415.884-.277.511.327-.354.573.026 1.597.845 2.277.819.68 1.489.93 1.489.557 0-.374 1 .021 2.223.877 2.977 2.086 6.091 2.109 3.336.025-1.068-.807-1.518-1.464-1-1.46.517.004 4.695 3.606 9.282 8.003 4.588 4.397 8.754 7.739 9.258 7.428.504-.312.257-1.226-.549-2.032s-1.211-2.127-.901-2.936c.311-.809.163-1.471-.329-1.471s-.963-.91-1.047-2.022c-.093-1.233.274-1.758.942-1.345.711.439.812.184.289-.728-.442-.773.844.152 2.859 2.054 3.552 3.353 4.206 5.409 1.804 5.666-2.475.265-2.62.436-1.167 1.375 1.22.789 1.238.972.095.985-1.08.011-.991.472.384 1.991.983 1.087 2.189 1.729 2.679 1.426.491-.303.827-.18.748.274-.473 2.723.482 3.514 5.844 4.838 2.637.652 1.094-1.135-2-2.315-2.455-.937-2.909-1.455-1.855-2.118 1.118-.704 1.019-.966-.5-1.32-1.523-.354-1.334-.597.962-1.236 2.829-.788 5.188.784 4.018 2.677-.676 1.093.378 1 2.691-.237 2.075-1.111 2.619-.05.872 1.697-.75.751-.155 1.245 2.023 1.68 1.697.34 3.38 1.414 3.74 2.388.918 2.487 4.518 4.658 4.181 2.52-.327-2.065.303-3.174 2.133-3.755 1.108-.351 1.713-1.126 1.345-1.722-.399-.645-.202-.794.485-.368.789.487 1.155-.396 1.155-2.787 0-1.925.45-3.778 1-4.118.55-.34.955-1.829.9-3.309l-.099-2.691-.748 2.5-.748 2.5-1.356-2.845c-1.108-2.324-1.465-2.533-1.952-1.145-.485 1.381-1.051 1.036-3.025-1.846-1.335-1.949-2.663-3.162-2.95-2.695-.287.467-.484-3.723-.438-9.31.065-7.824-.002-8.37-.291-2.375-.223 4.623-.764 7.543-1.334 7.191-.527-.326-.994.671-1.036 2.216-.069 2.538-.204 2.423-1.395-1.191-.725-2.2-1.365-3.186-1.423-2.191-.058.995-.562 1.526-1.121 1.181-.559-.346-.758-1.047-.441-1.559.316-.512.072-.931-.543-.931s-.859-.419-.543-.931c.317-.512.133-1.204-.408-1.539-.541-.334-.703-2.01-.36-3.724.445-2.225.292-2.912-.533-2.402-.736.454-1.156-.056-1.156-1.404 0-1.165.416-1.861.924-1.547.552.341.697-2.419.362-6.86-.309-4.087-.204-8.254.234-9.262.437-1.007.706-2.506.596-3.331-.16-1.201-.019-1.234.703-.166.725 1.071 1.028 1.006 1.542-.332.849-2.213.806-2.723-.18-2.114-.451.279-.739-2.057-.641-5.191.257-8.162.197-7.981 3.21-9.723 2.364-1.366 2.435-1.524.505-1.126-1.974.406-2.179.141-1.698-2.193l.547-2.655-1.528 2.644c-2.111 3.651-4.576 18.568-4.576 27.687 0 5.459-.304 7.265-1.089 6.48-1.364-1.364-2.1-8.576-.948-9.288.47-.29.587-1.877.261-3.526l-.593-2.997-.738 2.5c-.421 1.426-.708-2.011-.668-8 .038-5.775-.276-13.911-.698-18.079-.591-5.833-.395-8.864.852-13.154 2.25-7.739 2.02-8.942-.815-4.267-2.511 4.139-2.727 4.039-4.029-1.868-.348-1.577-.851-2.65-1.118-2.383-.267.267-.004 2.63.583 5.252.856 3.819.789 5.087-.335 6.383-.772.889-1.652 2.291-1.956 3.116-.425 1.158-.569 1.088-.63-.309-.043-.995-.529-1.531-1.079-1.191-.55.34-1 .141-1-.441s-.675-1.059-1.5-1.059c-1.168 0-1.484-1.274-1.43-5.75.051-4.137.312-5.189.93-3.75.771 1.794.867 1.813.93.184.038-.998-.461-2.798-1.11-4-.649-1.201-1.704-4.659-2.343-7.684l-1.163-5.5-.407 5.751m7.122 69.424c-1.383 10.987-1.945 13.079-3.04 11.308-.438-.71-.913.044-1.182 1.877-.288 1.963.025 3.245.872 3.57.726.279 1.321 1.141 1.321 1.916 0 .775.74 2.023 1.644 2.774 1.462 1.213 1.565 1.115.933-.878-.786-2.475.288-2.924 2.37-.992 1.103 1.024 1.228.913.689-.611-.502-1.418-.283-1.718.918-1.257 1.214.466 1.431.147.944-1.388-.362-1.142-.177-1.994.435-1.994.587 0 1.031-1.238.988-2.75-.043-1.512-.304-2.075-.579-1.25-1.499 4.494-1.534 4.521-2.556 2-.749-1.847-1.154-2.108-1.549-1-.722 2.024-4.238 6.497-4.233 5.385.003-.487 1.118-4.035 2.479-7.885 2.451-6.933 3.358-16.862 1.638-17.925-.483-.299-1.424 3.796-2.092 9.1M46.801 480.25c-.228.688-.36 9.688-.294 20 .071 11.065-.263 18.75-.816 18.75-.564 0-.552.496.032 1.25 1.41 1.822.943 20.028-.527 20.518-.839.28-.755.815.289 1.86 2.167 2.167 1.39 12.231-1.103 14.306-2.126 1.769-2.561 6.554-.596 6.561 3.108.012 4.175 5.065 1.265 5.989-1.187.377-1.73 1.189-1.389 2.079.411 1.068.085 1.277-1.215.778-1.297-.498-1.559-.331-.972.619.54.873.347 1.148-.586.837-.764-.255-1.545-1.266-1.735-2.248-.199-1.027.089-1.517.678-1.153.563.348 1.33-.33 1.703-1.506.406-1.281.192-2.441-.535-2.89-.768-.475-.945-1.623-.483-3.125.402-1.306.375-2.037-.062-1.623-.993.942-4.455-2.093-4.455-3.907 0-.74-.477-1.345-1.059-1.345s-.734-.526-.336-1.17c.482-.779.184-.963-.89-.551-1.187.456-1.45.193-.994-.994.412-1.074.228-1.372-.551-.89-.709.438-1.17.086-1.17-.895 0-.89-.472-1.326-1.049-.97-.716.443-.678 1.094.123 2.059.923 1.112.841 1.411-.384 1.411-1.6 0-2.937-2.845-3.136-6.673-.062-1.195.238-1.956.666-1.691.429.265.78-.234.78-1.108 0-.875-.675-1.85-1.5-2.166-.898-.345-1.494-1.837-1.485-3.719.011-2.143.289-2.711.875-1.786.604.952 1.065 1.025 1.548.243.835-1.351-1.855-2.538-3.938-1.738-.825.316-1.5.139-1.5-.393 0-.533-.675-.969-1.5-.969s-1.5-.45-1.5-1 .399-1 .887-1c1.449 0 1.82-5.55.456-6.824-1.436-1.342-2.398-1.526-2.225-.426.066.413.051 1.65-.031 2.75-.149 1.974-.17 1.975-1.619.059-1.152-1.524-1.199-2.112-.218-2.735.983-.624.97-.797-.059-.809-.72-.008-1.007-.503-.638-1.1 1.178-1.907-2.633-7.707-4.708-7.164-1.015.265-1.845-.006-1.845-.603s.693-.819 1.541-.494c1.942.745 1.556-1.661-.541-3.369-.825-.672-1.107-1.236-.628-1.253.48-.018.276-.751-.453-1.63-.729-.878-1.453-2.566-1.609-3.75-.262-1.984-.18-2.017 1.052-.418 1.689 2.193 2.49 1.443 1.878-1.758C9.98 501.114 9.144 500 8.383 500c-.76 0-1.383-.477-1.383-1.059s.52-.738 1.155-.346c.674.417.884.277.505-.336-.357-.577.024-1.307.846-1.623.822-.315 1.494-1.289 1.494-2.164 0-.959-.464-1.303-1.17-.867-.787.486-.961.178-.531-.941.351-.915.202-1.664-.33-1.664-.533 0-.969.525-.969 1.167 0 .641-.289.877-.643.524-.353-.354-.082-1.317.602-2.142 1.036-1.247.808-1.698-1.357-2.685-1.431-.652-2.616-1.675-2.634-2.275-.017-.599-.692-.215-1.5.852-.807 1.068-1.461 2.418-1.453 3 .009.583.472.384 1.031-.441.753-1.113.85-.79.376 1.25-.37 1.595-.218 2.75.363 2.75.55 0 1.279.725 1.619 1.611.443 1.153.189 1.447-.893 1.032-1.614-.62-2.118.864-.61 1.796.495.306.807 1.899.694 3.54-.114 1.641.268 3.182.849 3.423.581.242.086.476-1.1.519-1.65.06-2.034.549-1.634 2.079.291 1.111.031 2-.585 2-1.096 0-1.041 4.682.077 6.545.861 1.435.665 6.455-.252 6.455-.44 0-.848 36.451-.908 81.002l-.107 81.002 250.282-.252L500.5 683.5l.256-73.221c.234-66.589.113-73.166-1.333-72.611-1.062.408-1.22.839-.475 1.3.614.379-.966.572-3.51.428-5.039-.284-7.438.287-7.438 1.77 0 .524.52.631 1.155.239.742-.46.881-.273.389.523-.476.771.451.609 2.461-.431 2.165-1.119 3.556-1.336 4.232-.66.554.554 1.652.759 2.441.456 1.635-.627 1.777 12.222.183 16.517-1.124 3.03-3.212 1.723-2.402-1.503.469-1.867.304-2.277-.669-1.669-1.869 1.167-3.894 1.339-3.236.274.31-.502.087-.912-.495-.912s-1.059.493-1.059 1.096c0 .602-.972 2.46-2.16 4.129-1.815 2.548-1.962 3.349-.924 5.013 1.004 1.606.987 1.896-.09 1.538-.729-.242-1.61-1.754-1.958-3.358-.561-2.591-.645-2.647-.75-.501-.136 2.774-.988 2.356-1.592-.782-.277-1.438.094-2.135 1.138-2.135.967 0 1.333-.564.974-1.5-.316-.825-.172-1.5.32-1.5s1.089.563 1.325 1.25c.237.688.312.462.167-.501-.154-1.024.177-1.479.798-1.096.624.386.767.181.347-.498-.392-.635-.236-1.155.346-1.155s1.059-.466 1.059-1.035c0-.681-.727-.646-2.127.103-1.626.87-2.308.847-2.893-.1-.546-.884-1.113-.589-1.98 1.032-.964 1.801-1.396 1.984-2.092.885-.602-.95-.882-1.002-.893-.166-.008.699-.69.959-1.599.61-1.076-.413-1.221-.831-.453-1.306.795-.491.671-1.082-.416-1.984-.851-.706-1.577-1.116-1.614-.911a213.4 213.4 0 00-.512 3.8c-.243 1.885-.656 3.64-.916 3.901-.261.26.307 1.066 1.261 1.79 1.644 1.249 1.643 1.319-.016 1.349-.962.018-1.75.509-1.75 1.091s-.52.738-1.155.346c-.783-.485-.882-.263-.308.69.721 1.197.596 1.201-.845.033-.957-.776-1.692-.921-1.692-.334 0 .572.563 1.266 1.25 1.544.747.301.545.536-.5.583-.962.043-1.75.556-1.75 1.138 0 .582-.45.781-1 .441s-1.007-.029-1.015.691c-.011.951-.281.899-.985-.191-.828-1.282-.972-1.246-.985.25-.008.962-.492 1.75-1.074 1.75-.582 0-.774.462-.425 1.027.349.564 1.372.902 2.273.75.985-.167 1.774.521 1.979 1.723.253 1.49.103 1.654-.589.643-1.397-2.041-5.494-.455-4.881 1.889.267 1.021-.137 2.076-.909 2.372-.764.293-1.389.071-1.389-.494 0-.566-.402-.78-.893-.476-1.029.636-2.443-4.082-1.621-5.411.301-.487.089-1.167-.47-1.513-.559-.345-1.016.1-1.016.99s-.462 1.333-1.027.984c-.564-.349-.961-1.163-.881-1.809.336-2.722-.206-3.675-2.092-3.675-1.1 0-2 .477-2 1.059s.375.827.833.544c.459-.283.834.14.834.941 0 .801-.263 1.456-.584 1.456-.321.001-.669 1.576-.775 3.5-.105 1.925.157 3.5.584 3.5.426 0 .775.655.775 1.456 0 .801-.445 1.181-.988.846-.543-.336-.723-.183-.399.341.323.524.175 1.606-.331 2.405-.576.911-.924-5.903-.934-18.298-.008-10.862-.356-19.75-.772-19.75-.417 0-.628 1.913-.469 4.25.159 2.337-.13 4.878-.642 5.646-1.46 2.19-4.13.507-4.147-2.615-.009-1.529-.346-2.286-.75-1.681-1.246 1.865-3.679 2.152-4.844.571-.609-.828-2.184-1.656-3.5-1.841-1.864-.262-2.06-.118-.891.652.825.543.986.994.357 1.003-.629.008-1.4.685-1.714 1.503-.314.818-.25 1.381.143 1.25s.827.099.964.512c.138.413-.087.788-.5.835-.413.047-1.255.505-1.873 1.017-.618.513-1.968.615-3 .228-1.657-.622-1.716-.506-.505.983 1.04 1.278 1.071 1.687.128 1.687-.993 0-.993.303 0 1.5 1.053 1.268.84 1.5-1.378 1.5-1.442 0-2.622.477-2.622 1.059s-.445.784-.989.448c-.579-.358-.747.134-.405 1.191.487 1.507.406 1.556-.496.302-.911-1.266-1.082-1.184-1.095.528-.008 1.115.915 2.824 2.052 3.798 1.137.973 1.914 2.232 1.725 2.797-.551 1.653-2.27 1.017-2.281-.845-.009-1.371-1.135-1.764-5.761-2.01-5.559-.296-5.75-.223-5.75 2.213 0 2.085.474 2.516 2.75 2.504 1.888-.011 2.332-.281 1.415-.862-1.038-.658-.927-.951.5-1.322 2.495-.647 4.494.133 3.687 1.439-.366.592-.195.781.385.422.666-.411 1.015.792.959 3.306-.068 3.132-.358 3.728-1.391 2.87-1.229-1.02-1.744-.447-1.383 1.535.088.48-.646.539-1.631.131-.985-.408-2.38-.764-3.099-.79-.72-.026-1.569-1.35-1.888-2.943-.409-2.044-.891-2.583-1.642-1.833-1.345 1.345-2.984 1.393-2.162.062.34-.55.114-1-.503-1-.72 0-.922 1.251-.564 3.5.519 3.269-.765 5.003-1.678 2.264-.261-.782-1.389-.183-3.065 1.626-1.459 1.574-2.409 3.255-2.112 3.736 1.021 1.652-.661 3.05-2.167 1.8-1.082-.898-1.761-.881-2.911.074-1.229 1.02-1.5.951-1.5-.378 0-.892.436-1.622.969-1.622.532 0 .709-.675.393-1.5-.317-.825-1.203-1.5-1.969-1.5-1.732 0-1.833 1.656-.143 2.338.688.277.238.54-1 .583-1.237.043-2.197.416-2.132.829.462 2.925-.311 3.938-2.868 3.757-4.442-.314-4.71-.447-3.45-1.707 1.456-1.456 1.58-3.8.2-3.8-.55 0-.947.337-.882.75.348 2.203-.324 3.25-2.087 3.25-1.385 0-1.788.469-1.36 1.584.347.906.871 1.156 1.225.584.389-.629 1.539-.452 3.111.479 2.361 1.4 2.373 1.453.242 1.009-1.239-.258-2.029-.109-1.756.332.272.442-.214 1.075-1.081 1.407-2.203.846-2.625.759-1.912-.395.34-.55.115-1-.5-1s-.84-.45-.5-1c.34-.55.141-1-.441-1s-1.059.948-1.059 2.107c0 1.51-.448 1.935-1.582 1.5-.87-.334-1.882-.614-2.25-.622-.367-.009.007-.459.832-1 1.333-.876 1.333-1.093 0-1.953-.881-.569-1.63-.592-1.815-.056-.173.501-.987.653-1.809.338-.966-.371-1.692.177-2.049 1.545-.682 2.606-2.298 1.822-2.406-1.168-.043-1.205-.312-1.61-.597-.899-.396.986-.847 1.018-1.909.138-.798-.662-2.14-.826-3.152-.383-.97.424-2.101.699-2.513.612-.413-.088-.697.178-.632.591.32 2.025-.276 2.234-1.859.652-1.259-1.259-1.396-1.856-.494-2.157.686-.229.986-.839.667-1.355-.319-.517-.044-.816.611-.665 1.42.328 2.177-2.971.868-3.78-.501-.31-.911.124-.911.965 0 .993-.563 1.311-1.609.91-1.48-.568-1.48-.691 0-1.519.885-.495 1.609-1.355 1.609-1.91 0-.555-.422-.748-.939-.429-.516.319-1.402-.217-1.969-1.191-1.181-2.028-1.449-.828-1.239 5.538.093 2.815-.335 3.463-2.87 4.347-1.64.571-2.73 1.445-2.423 1.941.307.497.081.903-.501.903s-1.006.337-.941.75c.296 1.87-.227 2.228-1.513 1.039-.767-.709-1.148-1.696-.846-2.194.303-.497.03-.583-.604-.19-.737.455-1.155-.07-1.155-1.453 0-1.48-.459-1.99-1.449-1.61-.863.331-1.687-.195-2.038-1.301-.324-1.021-1.276-2.12-2.114-2.442-.839-.321-1.246-1.038-.903-1.592.342-.554.145-1.007-.437-1.007s-1.059.45-1.059 1-.45 1-1 1-.947-.337-.882-.75c.296-1.873-.185-3.516-.838-2.863-.396.396-.63 2.384-.519 4.417.16 2.928.012 3.28-.71 1.696-.805-1.769-.919-1.794-.981-.211-.058 1.474-.313 1.563-1.444.506-1.157-1.081-1.062-1.502.602-2.667 1.549-1.085 1.689-1.561.647-2.205-.814-.503-2.02-.197-3.108.788-.979.886-2.077 1.313-2.44.95-.363-.364-.023-.668.756-.676 1.167-.013 1.152-.187-.083-.985-1.276-.825-1.235-.972.281-.985.98-.008 2.022-.64 2.315-1.404.333-.869 1.353-1.179 2.719-.827 1.942.5 2.032.377.813-1.111-.977-1.191-1.03-1.673-.183-1.673.735 0 .947-.765.555-2-.412-1.298-.172-2.022.683-2.063.724-.035.192-.555-1.183-1.156-1.375-.6-3.175-1.009-4-.909-1.078.131-.954-.247.441-1.345 1.901-1.495 1.896-1.527-.25-1.527-1.205 0-2.138.337-2.073.75.066.413.034 1.65-.07 2.75-.187 1.988-.193 1.988-.963.016-1.066-2.729-.2-5.497 1.514-4.84 2.059.79 1.709-1.441-.403-2.571-1.039-.556-2.396-.599-3.202-.101-1.884 1.164-2.981.334-3.057-2.313-.063-2.174-.071-2.174-.992.123-.51 1.273-1.382 2.034-1.937 1.691-.554-.343-1.008-.136-1.008.459 0 .619-1.106.357-2.583-.61-2.473-1.62-2.568-1.611-2.25.227.183 1.055.657 2.162 1.053 2.459.395.297.322 1.872-.164 3.5s-.979 2.623-1.095 2.21c-.577-2.052-.721-2.941-.836-5.177-.072-1.398-.867-2.62-1.875-2.884-1.667-.435-1.667-.463 0-.573 2.487-.165 2.28-4.165-.25-4.826-1.1-.288-2-.969-2-1.514 0-.544.581-.767 1.292-.494.71.272 2.106-.1 3.102-.828 1.636-1.196 1.666-1.53.313-3.462-.933-1.332-1.749-1.734-2.162-1.065-.364.59-.074 1.08.646 1.088 1.038.012 1.027.194-.054.879-1.151.729-1.151.957 0 1.46.75.327.013.494-1.637.371-2.684-.201-2.988.065-2.887 2.525.09 2.191-.317 2.734-2 2.671-1.162-.043-1.589-.293-.949-.555.81-.331.895-1.415.281-3.557-1.223-4.266-2.367-5.017-1.614-1.059.408 2.14.227 3.25-.53 3.25-.632 0-.111 1.105 1.157 2.456 1.269 1.35 2.754 2.363 3.3 2.25.545-.113 1.198.357 1.45 1.044.252.688-.254 1.25-1.125 1.25s-1.583.477-1.583 1.059.445.784.989.448c.566-.35.734.051.393.941-.328.854-.984 1.552-1.458 1.552-.473 0-.602.675-.286 1.5.317.825.078 1.5-.531 1.5s-1.163-.45-1.232-1c-.069-.55-.238-1.45-.375-2a22.188 22.188 0 01-.375-1.906c-.069-.499-1.096-.653-2.283-.342-1.823.476-2.07.227-1.59-1.607.735-2.812-2.348-4.699-5.191-3.177-1.151.616-2.17.665-2.507.12-.311-.504-.001-1.145.69-1.424.8-.322.66-.535-.387-.585-.904-.043-1.915.629-2.247 1.495-.538 1.401-.77 1.409-2.107.072-2.342-2.342-1.951-4.923.622-4.106 1.33.422 1.891.295 1.499-.34-.378-.61.169-.805 1.375-.49 1.1.288 2.008 1.258 2.016 2.157.014 1.42.142 1.437.985.133 1.35-2.089 1.241-6-.167-6-.641 0-.87-.296-.508-.658.362-.362.283-1.149-.175-1.75-.458-.601-.499-2.217-.091-3.592l.742-2.5.17 2.5c.156 2.297.237 2.338.997.5.578-1.397.349-2.377-.761-3.25-.874-.687-1.166-1.257-.648-1.265.517-.009.33-.402-.416-.875-.946-.6-1.021-1.067-.25-1.544.609-.376 1.107-.156 1.107.49 0 .785.804.647 2.425-.415 1.82-1.192 2.549-1.283 2.921-.365.391.965.513.964.575-.001.057-.886.761-.966 2.544-.288 2.785 1.058 4.727-.618 2.413-2.083-.758-.481-.928-.887-.378-.904.55-.017.34-.448-.466-.958-.93-.588-1.937-.538-2.75.138-.916.759-1.284.743-1.284-.058 0-.662-1.831-1.122-4.469-1.122-3.454 0-4.344.323-3.922 1.423.313.815-.342 1.899-1.531 2.535-1.602.858-2.082.818-2.093-.173-.017-1.406-1.941 1.045-1.97 2.509-.019.999 3.274.493 4.096-.629.336-.459.857.104 1.157 1.25.299 1.147.126 2.085-.385 2.085-.512 0-.766 2.471-.564 5.492.277 4.149.077 5.252-.818 4.509-.652-.541-1.481-.688-1.843-.326-.362.362-.658-.107-.658-1.043 0-1.757-3.161-1.921-5.75-.298-.716.449-1.25.316-1.25-.31 0-.784-.566-.791-2-.024-1.611.862-2 .76-2-.524 0-.877.359-1.372.798-1.101.439.271 1.451.08 2.25-.426 1.151-.728 1.171-.922.095-.934-.793-.009-1.118-.638-.781-1.515.316-.825.139-1.5-.393-1.5-.533 0-.969.45-.969 1s-.477 1-1.059 1-.827-.375-.544-.833c.283-.459-.028-.867-.691-.907-7.635-.465-9.662-1.509-9.842-5.069-.121-2.379-.187-2.428-.572-.426-.239 1.245-.853 2.006-1.363 1.691-1.345-.831-1.141.932.271 2.344.933.933.854 1.2-.355 1.2-.855 0-2.73-1.419-4.167-3.153l-2.611-3.152-1.067 2.804c-1.35 3.553-.591 5.864.823 2.501l1.05-2.5.134 2.5c.12 2.243.213 2.298.904.528.692-1.77.824-1.694 1.291.75.286 1.497.133 2.722-.341 2.722-.473 0-.876.788-.894 1.75-.028 1.465-.356 1.363-2.012-.625-1.088-1.306-3.071-2.375-4.407-2.375-1.337 0-2.667-.619-2.958-1.375-.29-.756-1.018-1.375-1.618-1.375-.599 0-.815.445-.479.989.359.581-.076.725-1.057.348-1.434-.55-1.507-.337-.517 1.511.732 1.369.781 2.152.135 2.152-.559 0-1.326-1.234-1.704-2.742l-.688-2.743-.917 2.749c-.528 1.586-1.375 2.465-2 2.078-.686-.424-.855-.07-.459.962.345.898.235 1.874-.244 2.17-.479.296-1.099-.027-1.378-.718-.402-.998-.522-.999-.585-.006-.043.688-.556 1.25-1.138 1.25-.582 0-.781-.45-.441-1 .543-.878-.687-1.411-2.655-1.15-.36.048-.928-.624-1.261-1.493-.462-1.203-.186-1.407 1.155-.855 3.643 1.499 5.261 1.698 5.261.646 0-.597-.787-.832-1.75-.522-1.309.421-1.414.322-.416-.393 1.625-1.164-1.315-2.672-3.082-1.58-.685.424-.865-.112-.503-1.497.423-1.618.115-2.156-1.236-2.156-2.328 0-3.472-2.887-1.451-3.662 1.275-.489 1.189-.824-.519-2.02-1.125-.789-2.496-1.156-3.045-.817-.549.339-1.03-.197-1.068-1.192-.063-1.615-.163-1.594-.93.191-.735 1.71-.87 1.746-.93.25-.079-1.976-2.033-2.433-2.138-.5-.037.688-.519.35-1.071-.75-1.403-2.796-7.999-5.863-9.088-4.225-.595.895-1.345.592-2.787-1.128l-1.974-2.354-.859 2.322c-.592 1.6-.435 2.746.503 3.684 1.455 1.454.845 3.629-.741 2.648-.521-.322-.72-.953-.443-1.402.278-.45-.435-1.063-1.584-1.364-1.328-.347-1.814-.991-1.334-1.768.492-.796.338-.965-.44-.484-.868.537-1.009.002-.517-1.958.674-2.689.669-2.692-1.876-1.024-2.52 1.652-4.37 4.553-2.902 4.553.415 0 .831 1.007.924 2.237.093 1.231-.149 1.793-.537 1.25-1.069-1.495-3.204-1.653-3.221-.237-.011.833-.339.75-.985-.25-.646-1-.974-1.083-.985-.25-.008.688-.492 1.25-1.074 1.25-.582 0-.837-.359-.566-.798.271-.439.08-1.451-.426-2.25-.755-1.194-.921-1.131-.934.357-.01 1.197-.438 1.544-1.265 1.025-.687-.431-2.15-.647-3.25-.479-1.94.296-1.943.263-.12-1.106 1.034-.777 3.171-1.335 4.75-1.241 3.089.184 3.548-.43 1.703-2.275-.89-.89-.772-1.319.494-1.805.914-.351 1.383-1.088 1.042-1.64-.381-.616-.95-.479-1.479.355-.663 1.047-.863.944-.875-.452-.008-.995-.418-1.56-.911-1.255-.493.304-2.177-.111-3.743-.924-2.587-1.342-2.91-1.318-3.534.256-1.073 2.707-.946 3.232.784 3.232 1.239 0 1.065.477-.75 2.064-1.62 1.417-1.969 2.227-1.111 2.584.687.285 1.25 1.183 1.25 1.994 0 .861-.481 1.179-1.155.763-.715-.443-.883-.275-.44.44.392.635.236 1.155-.346 1.155a1.063 1.063 0 01-1.059-1.059c0-.582-.45-.781-1-.441s-1 .058-1-.627c0-.684-.975-2.282-2.167-3.55l-2.166-2.306 3.166-.634c1.742-.348 3.167-1.252 3.167-2.008 0-1.718-1.643-1.804-2.389-.125-.305.688-.467-.429-.36-2.481.208-3.977-.28-4.435-3.022-2.837-1.08.629-1.238 1.019-.42 1.038.72.016 1 .53.622 1.142-.378.611-.096 1.477.627 1.924 1.077.665 1.08 1.093.017 2.373-1.165 1.404-1.555 1.359-3.85-.447l-2.554-2.009-1.618 2.467c-1.184 1.804-2.013 2.217-3.086 1.539-1.281-.811-1.277-.932.033-.959 1.235-.025 1.258-.184.13-.898-1.119-.709-1.055-1.045.347-1.829 1.566-.877 1.498-1.197-.783-3.658-1.739-1.877-2.657-2.305-3.018-1.406-.419 1.043-.533 1.04-.597-.018-.043-.72-.524-1.034-1.068-.698-.555.343-.74-.035-.422-.864.384-1.001-.003-1.391-1.207-1.215-.976.144-1.947.78-2.158 1.415-.281.842-.928.864-2.387.084-1.933-1.035-1.939-1.124-.17-2.574 1.541-1.263 1.567-1.42.166-.984-1.973.614-3.385-2.203-1.866-3.722 1.286-1.286 1.337-2.633.1-2.633-.513 0-1.22.907-1.572 2.015-.381 1.2-1.115 1.728-1.817 1.308-.748-.449-.704-.122.121.896.873 1.078.955 1.815.25 2.251-.991.612-1.433-.039-1.167-1.72.065-.413-.332-.75-.882-.75s-1-.477-1-1.059.375-.827.833-.544c.459.283.834-.14.834-.941 0-1.621-.052-1.646-3.917-1.881-2.885-.176-3.391.384-1.792 1.983.603.603.609 1.512.016 2.45-.73 1.155-.947 1.185-.959.135-.009-.793-.638-1.118-1.515-.781-.825.316-1.5.107-1.5-.465 0-.572-.677-1.717-1.504-2.544-1.339-1.339-1.586-1.304-2.25.321-.41 1.004-1.646 1.959-2.746 2.122-1.1.163-3.237.492-4.75.731-1.515.239-2.75-.033-2.75-.606 0-.571-.52-.718-1.155-.326-.763.473-.88.271-.345-.595s.418-1.068-.345-.595c-.691.427-1.155.063-1.155-.905 0-.89.426-1.354.948-1.032.521.322.774-.317.561-1.42-.212-1.103.044-2.272.569-2.596.525-.325.666-1.057.313-1.628-.425-.687-.893-.629-1.389.172-.811 1.313-4.135.013-6.812-2.663-.743-.743-1.834-1.053-2.425-.688-.682.422-.779.186-.265-.645.512-.829.417-1.067-.26-.648-.588.363-1.297.095-1.576-.596-.297-.738-.539-.514-.585.546-.05 1.149 1.034 2.19 2.992 2.873l3.071 1.07-2.321 1.189c-1.277.654-2.546.936-2.821.628-1.604-1.802-2.928-.783-2.604 2.004.274 2.349.019 2.924-1.102 2.493-.802-.307-1.672-.559-1.935-.559-.262 0-.168-.5.21-1.112.378-.611.067-1.504-.691-1.984-1.107-.702-1.052-.876.278-.889 1.162-.01 1.5-.613 1.134-2.015-.538-2.057-2.489-2.893-2.04-.875.137.619-.375 1.352-1.139 1.63-.933.339-1.128.082-.595-.781.615-.995.023-1.138-2.611-.631-2.397.46-2.961.363-1.905-.329 1.322-.867 1.316-.985-.05-.999-.852-.008-2.033.468-2.623 1.058-.765.765-1.259.333-1.719-1.5-.355-1.415-1.114-2.573-1.686-2.573-.572 0-.719-.52-.327-1.155.44-.711.275-.883-.429-.448-.758.469-.947.101-.56-1.095.441-1.364.346-1.471-.391-.439-.821 1.151-1.06 1.151-1.534 0-.308-.75-.475.212-.371 2.137.105 1.925.865 4.055 1.69 4.734 1.297 1.066 1.192 1.32-.771 1.872-1.855.521-2.05.905-1.064 2.092.721.869.83 1.726.271 2.128-.515.371-.875 1.349-.801 2.174l.25 2.785c.09 1.004.586 1.033 2.267.134 1.832-.981 2.059-.912 1.531.465-.44 1.145-.056 1.616 1.317 1.616 1.326 0 1.752.482 1.352 1.526-.418 1.088-.941 1.23-1.827.494-.885-.733-1.964-.462-3.75.942-2.374 1.868-3.775 1.798-3.775-.188 0-.49.45-.614 1-.274.55.34 1 .194 1-.324 0-2.662-6.643-1.877-7.52.888-.338 1.065-1.05 1.936-1.583 1.936-.612 0-.6-.686.033-1.869.55-1.027.715-2.152.368-2.5-.347-.347.434-.631 1.735-.631 1.841 0 2.1-.267 1.167-1.2-.933-.933-1.467-.933-2.4 0-.66.66-1.897 1.184-2.75 1.165-1.06-.025-.848-.426.67-1.27 2.209-1.227 2.205-1.24-.876-2.604-2.72-1.204-2.884-1.489-1.35-2.347 1.364-.764 1.46-1.154.44-1.785-1.07-.661-1.063-1.098.038-2.425 1.017-1.226 1.062-1.9.186-2.776-.877-.877-1.158-.857-1.158.084 0 2.911-2.29 3.898-5.201 2.243-1.532-.872-2.789-1.922-2.793-2.335-.013-1.588-3.586-.652-4.774 1.25-.687 1.1-.817 2-.29 2 .527 0 1.397-.784 1.933-1.742s1.333-1.383 1.771-.945c.438.438.187 1.172-.557 1.632-1.061.656-.947.965.529 1.435 1.18.375 1.942 1.626 2.042 3.356l.159 2.759-1.824-2.253c-1.004-1.239-2.014-1.913-2.246-1.498-.232.416-.284.194-.116-.494.167-.687-.328-1.25-1.101-1.25-.831 0-1.58 1.328-1.834 3.25-.235 1.788-.376-4.063-.313-13.001.103-14.57-.34-18.762-1.584-14.999M93 524.5c.685.825.91 1.5.5 1.5-.41 0-.221.631.419 1.403.894 1.077.865 1.523-.127 1.921-.989.396-.999.537-.042.597 1.473.093 1.716 3.079.25 3.079-.55 0-1.014-.788-1.032-1.75-.029-1.585-.147-1.599-1.25-.151-.67.88-1.668 1.78-2.218 2-.55.221-.888.738-.75 1.151.138.413-.227.75-.809.75-.582 0-.738.52-.346 1.155.422.682.277.884-.355.493-.588-.363-1.298-.095-1.578.596-.401.987-.71.971-1.447-.078-1.2-1.709-2.462 1.026-1.559 3.379.494 1.29.839 1.193 2.084-.584 1.106-1.579 1.783-1.838 2.617-1.004.835.835.74 1.37-.365 2.069-1.3.822-1.289.945.091.959 2.258.022 3.071-1.095 1.86-2.554-.704-.848-.71-1.457-.021-1.883 1.219-.753 2.537 3.814 1.717 5.95-1.149 2.996.521 4.997 1.978 2.369.721-1.302 1.328-1.804 1.348-1.117.019.688.471 1.25 1.004 1.25.532 0 .681-.749.33-1.664-.444-1.156-.263-1.432.59-.905.676.418 1.153 1.73 1.059 2.915-.292 3.709.186 8.214.728 6.862.692-1.724 3.318.371 3.339 2.664.013 1.342.173 1.38.908.219.49-.775.637-2.125.325-3s-.199-1.257.251-.85c.449.408 1.461.207 2.248-.446 1.132-.94 1.388-.886 1.223.259-.506 3.534.092 7.026 1.097 6.404.598-.369 1.332.352 1.668 1.638.566 2.164.645 2.184 1.363.35.69-1.764.768-1.777.832-.137.038.995.5 1.543 1.026 1.218.526-.325.703-1.252.393-2.059-.351-.915.042-1.468 1.044-1.468.884 0 1.607.661 1.607 1.469 0 .929.582 1.245 1.584.86.871-.334 1.163-.882.65-1.218-1.383-.904-3.68-5.505-2.334-4.673 1.571.971 1.36-.321-.329-2.009-1.76-1.761-3.216-1.826-3.999-.179-.327.688-.406.238-.177-.999.229-1.237.009-2.501-.489-2.809-.498-.308-.938.029-.976.749-.039.72-.457.409-.93-.691-.473-1.1-.891-1.437-.93-.75-.038.688-.61 1.25-1.27 1.25-.906 0-.918-.282-.047-1.153.775-.775.84-1.739.197-2.94-1.235-2.307.35-3.352 2.964-1.953 2.609 1.396 2.586 1.409 2.586-1.454 0-1.375-.338-2.5-.75-2.5s-.75.679-.75 1.508c0 1.232-.349 1.291-1.9.322-1.045-.652-1.67-1.786-1.389-2.52.358-.933-.02-1.129-1.264-.651-1.145.439-1.539.299-1.11-.396.395-.638-.047-.969-1.086-.813-.963.145-1.188.07-.501-.167.688-.236 1.25-.873 1.25-1.415s-.52-.665-1.155-.273c-.756.468-.881.272-.36-.57.529-.856.33-1.13-.596-.821-.764.254-1.389 1.063-1.389 1.796 0 1.762-2.123 2.42-3.036.941-.396-.641-.1-1.557.658-2.037.998-.633 1.033-.878.128-.889-.687-.008-1.25-.451-1.25-.984 0-.532.787-.715 1.75-.405 1.355.436 1.439.341.372-.42-.758-.54-1.069-1.483-.691-2.094.403-.652-.027-1.112-1.039-1.112-.949 0-1.462-.263-1.141-.585.704-.703-2.319-4.415-3.596-4.415-.495 0-.34.675.345 1.5M.475 611c0 40.425.123 56.962.275 36.75.151-20.212.151-53.288 0-73.5C.598 554.038.475 570.575.475 611M337 602.881c0 .581-.788.803-1.75.493-1.477-.475-1.516-.394-.25.516.825.594 1.012 1.086.417 1.095-.596.008-1.084.728-1.084 1.6 0 1.132.684 1.454 2.392 1.127 1.786-.341 2.25-.09 1.834.995-.697 1.815.398 6.438 1.381 5.83.4-.247.528-1.931.286-3.743-.422-3.154-.374-3.209 1.135-1.294 1.548 1.965 1.576 1.957 1.639-.5.06-2.356.144-2.394 1.461-.656 1.351 1.783 1.456 1.776 3.147-.199 1.793-2.094 4.218-1.914 2.596.194-1.822 2.368-2.169 4.661-.704 4.661.821 0 1.207-.6.9-1.399-.295-.769-.056-1.696.532-2.059.587-.363 1.068-.183 1.068.399 0 .582.477 1.059 1.059 1.059s.738-.52.346-1.155c-.473-.763-.271-.88.595-.345.926.572 1.07.422.49-.515-.604-.979-.354-1.147.957-.644 1.307.502 1.626.292 1.208-.798-.312-.813-.187-1.714.279-2.002.466-.288 1.141 1.048 1.502 2.968.416 2.218 1.224 3.491 2.216 3.491 1.013 0 1.349-.556.955-1.581-.668-1.741 1.178-4.776 3.143-5.169.688-.138 1.25.2 1.25.75 0 1.556 3.719 1.176 4.34-.443.354-.922 1.467-1.278 3.081-.986 1.842.334 2.386.089 2.004-.905-.288-.751-1.946-1.405-3.685-1.454-2.299-.066-2.763.162-1.7.834 1.217.77 1.169.926-.29.939-.962.008-1.75-.337-1.75-.767s-1.125-.875-2.5-.989c-1.426-.118-2.507.325-2.515 1.032-.01.814-.268.879-.75.19-.962-1.372-7.402-1.53-6.556-.161.401.649.12.702-.774.147-2.146-1.331-17.905-1.821-17.905-.556m42.057.175c1.191.754 1.137.916-.307.929-1.856.016-2.191.873-.985 2.515 1.056 1.437 5.235 1.693 5.235.322 0-.636.289-.866.643-.513.353.354.106 1.288-.549 2.078-.812.978-.857 1.641-.143 2.083.577.356 1.049-.08 1.049-.97s.45-1.34 1-1c.55.34 1 .141 1-.441s.45-1.059 1-1.059c1.742 0 1.078 2.838-.75 3.206-1.622.327-1.615.406.093 1.078 1.355.533 1.98.197 2.363-1.269.287-1.096.99-1.703 1.562-1.349.604.373.742.159.327-.511-.392-.635-.174-1.155.486-1.155.659 0 1.847-.788 2.64-1.75 1.374-1.667 1.416-1.667.892 0-.303.962-.114 1.75.418 1.75.533 0 .969-.477.969-1.059s.45-.781 1-.441 1-.309 1-1.441c0-2.477-3.743-2.892-4.655-.516-.522 1.361-.784 1.369-2.219.072-1.047-.949-3.74-1.472-7.569-1.472-3.973 0-5.465.303-4.5.913" fill="#d3d3d3" fill-rule="evenodd"/></svg>