<svg xmlns="http://www.w3.org/2000/svg" width="500" height="333"><path d="M0 85.443c0 84.346.026 85.487 2.05 88.918 2.319 3.93 5.931 6.639 8.852 6.639 4.028 0 12.156-10.09 20.013-24.843 1.366-2.565 7.078-10.396 10.786-14.787l1.799-2.13 15.5 1.801c8.525.99 21.941 2.975 29.813 4.409 7.872 1.435 18.672 3.025 24 3.534 5.328.508 13.512 1.852 18.187 2.985 4.675 1.134 15.185 3.171 23.355 4.528 13.638 2.265 15.236 2.756 19.5 5.993 2.555 1.94 6.09 4.196 7.855 5.015 1.766.819 5.311 2.82 7.877 4.448l4.667 2.96-5.877 2.551c-10.047 4.36-10.386 4.624-5.127 3.988 3.303-.4 4.75-.216 4.75.603 0 .676.832.961 1.952.668 1.074-.281 2.115-.023 2.313.572.199.596 1.87 1.11 3.715 1.144 2.92.053 5.959 2.561 3.103 2.561-.595 0-1.083.675-1.083 1.5 0 2.003-.389 2.07 15-2.575 16.54-4.993 20.208-4.832 26.722 1.173 2.328 2.146 4.918 3.902 5.756 3.902.837 0 1.522.436 1.522.969 0 .532.629.727 1.399.431.769-.295 1.696-.056 2.059.532 1.445 2.339 7.169 1.103 11.878-2.566 2.565-1.998 4.664-4.023 4.664-4.5 0-.476 2.448-.866 5.441-.866s5.719-.45 6.059-1c.34-.55 1.443-1 2.451-1 1.024 0 3.51-2.198 5.63-4.978 4.454-5.84 5.908-5.87 2.051-.042-3.116 4.709-2.201 5.267 1.797 1.094 2.397-2.502 3.139-2.773 5.123-1.868 5.078 2.313 6.978-3.393 3.385-10.168-.449-.846-1.077-2.776-1.396-4.288-.318-1.512-1.246-2.75-2.06-2.75-.815 0-1.481-.45-1.481-1s-.45-1-1-1-1 .723-1 1.607c0 1.084-.538 1.4-1.653.973-.909-.349-3.188-.128-5.065.492-3.208 1.059-3.315 1.234-1.782 2.928 1.075 1.188 1.267 2.026.565 2.46-.586.362-1.065 1.707-1.065 2.988 0 5.471-6.873 9.322-8.858 4.964l-1.193-2.617-2.047 2.602c-2.802 3.562-7.15 3.549-8.779-.026-.659-1.446-.964-2.863-.679-3.149.684-.684-4.522-10.222-5.58-10.222-.45 0-1.555 1.125-2.456 2.5s-2.527 2.5-3.613 2.5c-1.086 0-2.758.968-3.716 2.151-2.128 2.627-5.474 2.066-9.407-1.579-6.883-6.379.068-12.395 8.871-7.677 3.199 1.714 4.031 1.77 8.746.582 2.866-.722 7.686-1.606 10.711-1.964 3.025-.358 6.872-1.075 8.549-1.593 1.676-.518 4.826-1.107 7-1.308 5.688-.526 11.791-1.755 12.951-2.609.55-.405 4.708-1.956 9.24-3.448 9.167-3.018 11.246-4.584 5.535-4.172-3.894.281-8.275-1.066-8.275-2.544 0-.461-.927-.839-2.059-.839-1.132 0-1.811-.402-1.507-.893.304-.492-.457-1.15-1.691-1.464-2.951-.749-9.556-7.14-12.472-12.067-1.226-2.072-1.229-2.072-1.877.214-.606 2.141-.766 2.184-2.458.652-.996-.901-2.288-1.342-2.873-.981-.585.361-1.063.255-1.063-.235 0-.491-.675-.893-1.5-.893s-1.507.488-1.515 1.084c-.009.596-.442.408-.964-.417-.521-.825-1.302-1.539-1.735-1.586-1.119-.123-4.491-1.403-6.478-2.459-1.288-.685-1.85-.398-2.359 1.205-.526 1.656-.854 1.81-1.543.722-.481-.76-.882-1.012-.891-.561-.008.452-.674.227-1.48-.5-3.196-2.882-4.275-3.604-6.388-4.274-1.21-.384-2.897-1.762-3.749-3.062-.891-1.361-2.154-2.132-2.973-1.818-.784.301-1.425.022-1.425-.619s-.52-.845-1.155-.453c-.695.43-.883.276-.473-.388.434-.702-.056-.961-1.345-.712-1.116.215-2.034-.146-2.042-.802-.01-.767-.334-.69-.908.216-.49.775-.637 2.125-.324 3 .381 1.069-.27.829-1.987-.734-2.683-2.442-4.42-1.781-2.427.923.638.867 2.174 1.5 3.411 1.406 1.238-.093 2.25.367 2.25 1.024 0 .656 1.125 2.851 2.5 4.877 3.038 4.476 3.126 5.595.441 5.595-1.132 0-1.807-.408-1.499-.906.308-.498-1.727-2.548-4.523-4.556-3.508-2.521-5.738-5.105-7.2-8.345-1.494-3.309-2.233-4.154-2.507-2.864-.538 2.527 5.483 14.004 10.123 19.296 2.109 2.406 3.304 4.375 2.654 4.375-1.576 0-6.989-3.234-6.989-4.176 0-.409-2.138-2.925-4.75-5.59-2.613-2.664-5.425-6.17-6.25-7.789-2.001-3.929-5.244-7.484-4.967-5.445.504 3.705.035 4.372-1.864 2.653-1.007-.912-2.204-1.319-2.659-.905-.456.414-.508-.134-.116-1.218.391-1.083.403-1.661.026-1.283-.834.833-4.414-3.529-4.435-5.405-.012-1.017-.25-.979-.985.158-.533.825-.976.999-.985.387-.008-.612-1.027-1.12-2.265-1.129-4.127-.03-4.873-.251-4.25-1.258.34-.55.19-1-.334-1-1.444 0-2.28-2.974-1.319-4.692.592-1.056.091-2.279-1.644-4.014-2.018-2.018-2.228-2.665-1.099-3.379.768-.487.946-.905.396-.93-.55-.025-.188-.518.805-1.096 1.409-.819 1.552-1.357.651-2.442-.945-1.139-.41-1.511 2.945-2.047 2.489-.398 4.099-1.195 4.099-2.028 0-1.7-.828-1.692-9.247.092-3.71.787-9.914 1.523-13.785 1.636-8.089.236-10.903 2.497-6.994 5.618.839.67 1.076 1.29.526 1.378-3.613.576-5.383.524-4.969-.146.579-.937-2.187-.628-3.169.354-1.459 1.46-3.349.597-3.951-1.804-.616-2.452-2.411-3.525-2.411-1.441 0 .582-.489.757-1.087.387-.598-.369-.864-1.527-.59-2.572.315-1.206-.201-2.274-1.413-2.922-1.369-.733-1.91-.694-1.91.135 0 .838-.414.814-1.5-.087-1.209-1.004-1.503-.979-1.515.128-.013 1.154-.153 1.156-.878.011-.474-.748-.757-2.098-.628-3 .129-.901.039-1.071-.198-.377-.238.694-.829 1.018-1.313.718-.484-.299-.645-1.159-.356-1.91.392-1.022-1.322-1.657-6.794-2.518-4.025-.634-8.33-1.57-9.568-2.081-1.237-.51-2.25-.55-2.25-.088 0 .462-1.125.625-2.5.362-1.459-.279-2.5-.013-2.5.638 0 .615-.702 1.117-1.559 1.117s-1.31-.403-1.006-.895c.885-1.432-2.549-2.256-4.086-.98-2.066 1.715-2.863.246-.92-1.696 2.194-2.195 2.885-1.91-11.911-4.906-7.129-1.444-13.2-2.969-13.49-3.391-1.366-1.983-12.036-9.209-16.288-11.03-2.618-1.122-9.626-4.987-15.573-8.59-5.948-3.603-14.381-7.921-18.74-9.595-10.711-4.114-23.836-11.367-25.69-14.195-1.363-2.081-1.328-3.049.358-9.766C14.734-.56 15.02 0 7 0H0v85.443m324.282 61.743l-5.217 2.057 6.113 6.879c5.188 5.837 6.605 6.878 9.361 6.878 4.957 0 4.894-2.271-.184-6.636-6.236-5.36-6.88-6.797-4.176-9.316 2.82-2.628 1.012-2.585-5.897.138M224.5 165.695c-2.2.808-5.8 1.607-8 1.776-4.521.348-17.649 5.479-16.943 6.622.254.41-1.118 1.267-3.048 1.904-4.675 1.543-4.901 4.494-.259 3.386 1.787-.427 4.642-.693 6.343-.592 1.702.101 5.977-.986 9.5-2.415 3.524-1.428 8.882-3.126 11.907-3.772 4.962-1.06 5.532-1.452 5.828-4.011.458-3.959-.708-4.593-5.328-2.898M173.643 184.5c-.825.825-2.095 1.507-2.822 1.515-1.052.013-1.041.193.058.889.977.619.54.891-1.5.936-5.455.12-9.437 1.4-10.492 3.372-.684 1.276-1.736 1.799-2.973 1.476-1.053-.275-1.914-.093-1.914.406 0 .498-.873.906-1.941.906s-2.181.388-2.474.863c-.294.474-2.57 1.433-5.059 2.13-2.489.697-4.526 1.565-4.526 1.93 0 .364-2.137 1.257-4.75 1.984-2.613.726-4.194 1.53-3.514 1.786.68.255 3.83-.507 7-1.695 3.17-1.188 7.239-2.529 9.042-2.98 1.803-.451 3.87-1.311 4.592-1.91.723-.6 1.552-.853 1.843-.562.67.67 5.787-1.62 5.787-2.59 0-.397 3.384-1.519 7.519-2.493 8.704-2.05 10.865-3.299 9.928-5.739-.812-2.119-1.848-2.18-3.804-.224M0 242.929c0 20.933-.117 20.566 6.477 20.353 2.202-.07 4.57.342 5.263.917.693.575 1.26.76 1.26.41 0-.35 1.575.022 3.5.827 1.925.804 3.507 1.147 3.515.763.009-.384.366-.148.794.526.428.673 1.751 1.373 2.94 1.554 1.189.182 3.085 1.166 4.213 2.186 1.127 1.021 2.308 1.598 2.623 1.283.485-.484 5.571.839 11.415 2.97 1.796.654 3.441.932 12.156 2.049 9.687 1.241 21.298.499 35.681-2.282 6.965-1.347 13.972-2.669 15.573-2.939 1.6-.27 5.177-1.244 7.947-2.165 2.771-.92 5.737-1.753 6.591-1.852 5.187-.596 11.701-5.217 15.949-11.314 2.618-3.757 2.251-5.915-1.086-6.387-1.271-.181-2.755-1.34-3.298-2.578-1.003-2.286-2.513-3.052-2.513-1.275 0 .612-1.024.579-2.75-.089-2.856-1.105-4.058-1.437-10.75-2.968-9.568-2.19-18.254-3.99-21.5-4.456-1.925-.276-5.525-.795-8-1.153-2.475-.358-4.746-.605-5.046-.548-.3.057-3.675-.286-7.5-.761-3.825-.475-10.779-1.129-15.454-1.453-15.339-1.064-26.031-2.641-33.421-4.93-2.706-.838-5.224-1.337-5.594-1.108-.371.23-2.882-.406-5.58-1.411s-6.817-2.119-9.155-2.475L0 223.976v18.953m497 65.029a335.23 335.23 0 01-7 2.098c-2.475.715-5.85 1.98-7.5 2.811-3.685 1.856-15.5 6.087-15.5 5.55 0-.903-14.672 7.173-16.522 9.094-1.112 1.155-2.8 2.398-3.75 2.763-5.616 2.155-.219 2.726 25.772 2.726H500v-13c0-7.15-.113-12.964-.25-12.921l-2.75.879" fill="#d3d3d3" fill-rule="evenodd"/></svg>