<svg xmlns="http://www.w3.org/2000/svg" width="500" height="303"><path d="M0 130.995v130.994l89.25.256 89.25.255.271 20.25.27 20.25h2.769c2.291 0 6.187-3.536 22.565-20.484l19.796-20.484 27.165-.266 27.164-.266.5-60.528.5-60.527 3.75-6.294c2.063-3.462 3.75-6.509 3.75-6.771 0-.262 1.467-2.817 3.259-5.678 1.793-2.861 3.922-6.552 4.732-8.202.809-1.65 2.505-4.616 3.769-6.592 3.532-5.524 4.091-13.037 1.173-15.756-1.271-1.184-3.601-2.152-5.178-2.152-2.764 0-2.812.081-1.312 2.223 2.258 3.223 1.93 9.724-.75 14.858-3.087 5.911-7.6 13.844-9.627 16.919-.906 1.375-2.937 4.975-4.514 8-1.577 3.025-3.696 6.694-4.71 8.154-1.013 1.46-1.842 2.932-1.842 3.27 0 .339-1.049 2.294-2.331 4.346-1.282 2.051-3.997 6.781-6.034 10.511-2.037 3.729-4.662 8.454-5.833 10.5-1.171 2.045-2.758 4.945-3.526 6.444-2.771 5.403-5.761 6.778-14.661 6.743-8.415-.033-11.615-1.225-11.615-4.328 0-.902.45-1.64 1-1.64s1-.9 1-2 .344-2 .764-2c.42 0 1.505-1.688 2.41-3.75.905-2.062 2.586-4.744 3.736-5.958 1.149-1.215 2.09-3.127 2.09-4.25 0-1.123.45-2.042 1-2.042s1-.9 1-2 .45-2 1-2 1-.878 1-1.95c0-1.073.563-2.31 1.252-2.75.688-.44 1.873-2.15 2.633-3.8l2.418-5.25c.569-1.238 1.409-2.25 1.866-2.25.457 0 .831-.914.831-2.031 0-1.118.675-2.291 1.5-2.607.825-.317 1.5-1.428 1.5-2.469s.34-1.893.756-1.893 1.316-1.35 2-3l2.488-6c.684-1.65 1.584-3 2-3 1.236 0 .859-2.816-.494-3.691-.687-.445-7.55-1.034-15.25-1.309l-14-.5-.285-9.624c-.349-11.799-2.594-10.844 25.535-10.862L279 88V45.582c0-23.33-.273-43.13-.607-44C277.844.15 264.623 0 138.893 0H0v130.995M369.378 42.75a59.12 59.12 0 01-1.386 3.75c-2.499 6.045-6.096 17.73-5.607 18.218.939.939 3.377-1.634 4.036-4.259.339-1.352 1.319-2.459 2.178-2.459 1.21 0 1.413-.667.906-2.978-.799-3.638.156-7.022 1.983-7.022 1.91 0 3.108 6.013 1.408 7.064-1.01.625-.712 1.378 1.276 3.219 1.427 1.323 2.902 3.375 3.278 4.561.377 1.186 1.104 2.156 1.617 2.156 1.9 0 .951-3.983-4.707-19.75-1.57-4.375-3.994-5.591-4.982-2.5m23.054-.264c-5.661 2.53-8.141 8.417-6.231 14.792 1.517 5.061 5.614 7.713 11.927 7.718 5.703.005 7.092-1.486 6.683-7.172-.294-4.092-.489-4.341-3.629-4.642l-3.319-.319 2.069 2.069c5.884 5.884-.766 10.72-7.588 5.517-7.303-5.57-1.526-18.525 7.656-17.17.825.121 1.725-.229 2-.779.772-1.544-6.122-1.554-9.568-.014m20.28-.864c-.392.391-.712 5.811-.712 12.045V65h6.583c7.521 0 8.813-2.275 1.594-2.807-6.867-.507-7.532-8.193-.708-8.193 4.378 0 4.685-1.758.382-2.187-6.388-.635-6.355-6.809.042-7.813 1.752-.275 3.28-.95 3.396-1.5.242-1.147-9.5-1.956-10.577-.878m19.927.072C431.558 42.775 431.902 65 433 65c.558 0 1.044-2.983 1.1-6.75.055-3.712.444-7.875.864-9.25.737-2.408.798-2.425 1.651-.449.487 1.128 2.908 5.302 5.381 9.276 6.357 10.215 7.431 9.569 7.788-4.684.222-8.873.005-11.24-1-10.908-.847.281-1.384 2.864-1.578 7.595-.31 7.564-1.77 9.343-4.039 4.92-4.906-9.563-8.975-14.609-10.528-13.056m29.861 1.121c-4.88 3.027-5.929 4.956-5.929 10.91 0 7.503 3.849 11.275 11.504 11.275 3.107 0 4.806-.384 4.425-1-.34-.55-1.695-1-3.012-1-9.879 0-13.785-11.621-5.922-17.618 2.044-1.559 4.296-2.412 5.835-2.21 1.379.18 2.64-.122 2.803-.672.546-1.845-6.595-1.612-9.704.315m18.586-.419c-.758.914-1.059 4.974-.872 11.75L480.5 64.5l6.35.3c7.54.357 8.431-1.968 1.072-2.8-4.292-.485-4.422-.603-4.422-4 0-3.406.115-3.508 4.273-3.809 4.987-.36 4.726-2.191-.313-2.191-6.843 0-5.647-7.604 1.289-8.194 1.978-.168 3.781-.868 4.007-1.556.601-1.83-10.141-1.696-11.67.146M106.693 87.7c-3.372.874-3.693 5.032-3.693 47.794 0 37.179.192 42.555 1.571 43.935 2.839 2.838 51.943 2.281 59.888-.679 11.597-4.322 17.563-13.177 17.526-26.014-.022-7.496-3.716-16.697-7.642-19.036-1.984-1.181-1.64-3.797 1.016-7.718 1.297-1.915 2.661-4.442 3.03-5.614.435-1.382 2.819-3.064 6.769-4.777 10.463-4.538 9.842-6.518 9.842 31.369 0 29.011.184 32.897 1.582 33.433.87.334 6.254.607 11.965.607 9.242 0 10.496-.213 11.418-1.934.667-1.247 1.035-17.091 1.035-44.566s-.368-43.319-1.035-44.566c-1.688-3.154-16.768-2.768-25.704.658-7.67 2.94-9.611 3.697-13.558 5.283-4.186 1.683-7.174 1.368-9.298-.981-3.392-3.751-9.323-6.008-18.256-6.948-8.769-.923-43.141-1.105-46.456-.246m238.219 2.58c-6.059 4.084-7.673 11.134-3.934 17.185 2.203 3.564 8.36 6.197 11.879 5.08 3.375-1.071 2.519-2.231-2.105-2.851-8.432-1.131-11.563-9.473-5.851-15.588 2.189-2.343 3.771-3.106 6.441-3.106 3.82 0 5.631-1.413 3.07-2.395-2.994-1.149-6.129-.597-9.5 1.675m23.864.226c-11 7.475-2.125 26.684 9.73 21.058 8.409-3.99 8.739-17.8.527-22.047-4.057-2.098-5.987-1.912-10.257.989m57.539-1.499c-5.781 2.329-5.168 8.388 1.241 12.259 7.267 4.39 5.091 10.189-3.056 8.145-3.176-.797-3.252.849-.116 2.527 1.936 1.036 3.056 1.032 5.968-.021 6.837-2.472 6.525-9.409-.587-13.037-6.148-3.137-5.969-7.88.298-7.88 3.227 0 4.694-1.496 2.349-2.395-2.024-.777-3.395-.687-6.097.402m-31.648.66c-1.324 1.324-.765 21.532.583 21.087.791-.262 1.358-2.861 1.546-7.084.368-8.318 1.878-8.676 5.985-1.42 4.076 7.202 6.668 10.209 8.057 9.35 1.392-.86 1.65-22.6.269-22.6-1.505 0-2.104 2.847-2.175 10.332-.055 5.899-.259 6.77-1.152 4.918-.597-1.237-1.467-2.25-1.933-2.25-.466 0-.847-.457-.847-1.015 0-.559-1.639-3.484-3.642-6.5-3.424-5.158-5.126-6.384-6.691-4.818m50.963 1.583c-.787 2.939-.805 17.131-.023 19.168 1.411 3.678 3.167 1.552 3.031-3.668l-.138-5.25 4.273-.309c4.987-.36 4.726-2.191-.313-2.191-2.815 0-3.533-.443-4.049-2.498-.991-3.95.137-5.502 3.999-5.502 1.909 0 3.75-.45 4.09-1 .383-.62-1.451-1-4.824-1-4.799 0-5.514.266-6.046 2.25m-76.178 2.396c-2.85 3.075-3.23 7.948-.963 12.333 3.043 5.884 10.635 4.678 12.638-2.008 2.863-9.556-5.518-16.968-11.675-10.325m-249.033 13.703c-.284.742-.383 4.455-.218 8.25l.299 6.901 15.886.276c19.686.342 20.614-.037 20.614-8.439 0-4.176-.449-5.957-1.75-6.945-2.546-1.933-34.09-1.971-34.831-.043m223.011 29.972c-1.249 3.255.061 21.154 1.57 21.443 1.255.24 1.5-1.394 1.5-9.989V138.5l3.131-.304c10.715-1.042 12.357 16.402 1.732 18.396-4.472.839-4.297 2.408.269 2.408 10.585 0 14.306-17.518 4.656-21.915-3.42-1.558-12.231-1.396-12.858.236m50.225.508c-3.374 3.728.099 11.171 5.214 11.171 1.983 0 3.296 3.822 2.089 6.078-.891 1.665-1.888 2.013-5.006 1.75-2.141-.18-3.914.122-3.94.672-.082 1.726 7.949 1.756 10.57.038 3.964-2.597 2.258-10.538-2.265-10.538-.564 0-2.227-1.114-3.695-2.475-3.499-3.242-1.93-6.525 3.119-6.525 1.792 0 3.259-.45 3.259-1 0-1.802-7.572-1.13-9.345.829m31.975.421c-.787 2.939-.805 17.131-.023 19.168 1.105 2.879 2.393 1.643 2.393-2.296 0-4.424 1.322-5.908 5.247-5.887 3.95.022 5.753-1.922 5.753-6.202 0-4.979-2.399-7.033-8.212-7.033-3.878 0-4.644.334-5.158 2.25m23.037-1.583c-.993.992-.808 22.333.194 22.333.898 0 2.058-7.618 2.209-14.5.048-2.2.308-3.325.577-2.5.44 1.351 2.242 6.081 4.382 11.5.434 1.1 1.038 2.78 1.342 3.733.823 2.58 3.626 1.032 4.308-2.38.319-1.592.971-3.137 1.45-3.433.479-.296.871-1.621.871-2.944 0-1.364.847-2.859 1.956-3.452 1.847-.989 1.972-.644 2.25 6.214.164 4.042.737 7.23 1.294 7.191 1.55-.11 1.771-2.988 1.009-13.156-.662-8.83-.831-9.368-2.836-9.08-1.366.197-2.463 1.386-3.052 3.307-.505 1.65-1.527 4.418-2.27 6.151-.743 1.733-1.351 3.598-1.351 4.143 0 .546-.633 1.235-1.407 1.532-.994.381-1.887-.981-3.044-4.643-3.289-10.416-5.136-12.762-7.882-10.016m31.763.654c-.279.727-.377 5.789-.218 11.25l.288 9.929 6.25.298c3.879.185 6.25-.1 6.25-.75 0-.577-1.71-1.048-3.8-1.048-5.749 0-7.863-3.364-4.998-7.952.953-1.525.911-2.469-.204-4.551-2.008-3.752-.339-5.92 4.854-6.304 6.387-.474 4.911-2.193-1.883-2.193-4.076 0-6.196.428-6.539 1.321m-359.976 4.939c-.294.765-.403 5.631-.244 10.815l.29 9.425 17 .28c17.871.294 21.5-.375 21.5-3.963 0-1.014.537-2.705 1.194-3.756.926-1.483.926-2.502 0-4.534-.657-1.442-1.194-3.307-1.194-4.145 0-4.219-2.582-4.868-20.683-5.197-14.084-.255-17.43-.054-17.863 1.075m-86.931 67.305C25.664 213.663 28.164 224 37.014 224c8.338 0 11.233-10.752 3.914-14.537-3.503-1.812-3.742-1.809-7.405.102M137 208.992c-.825.53-2.273.722-3.217.428-2.163-.673-3.025 2.363-2.595 9.146.466 7.374 3.143 6.831 3.821-.775.638-7.166 1.944-8.707 5.44-6.417 2.169 1.422 2.551 2.417 2.551 6.649 0 3.757.368 4.977 1.5 4.977 1.128 0 1.5-1.207 1.5-4.865 0-7.519-4.462-12.052-9-9.143m43.066-.054c-1.05.665-.514.995 2 1.235 4.721.45 5.772 4.827 1.159 4.827-3.089 0-6.225 2.623-6.225 5.206 0 2.629 2.451 3.77 7.835 3.649l5.165-.116v-5.797c0-7.665-4.954-12.155-9.934-9.004m40.184 1.051c-2.867 1.748-3.25 2.496-3.25 6.341 0 5.478 2.188 7.67 7.654 7.67 8.024 0 11.3-8.337 5.269-13.411-3.69-3.106-5.391-3.211-9.673-.6M111 214.845c0 7.657 1.748 9.432 8.623 8.755 2.682-.264 5.215-.507 5.627-.54.412-.033.743-2.648.735-5.81-.028-10.305-3.612-11.377-4.178-1.25-.277 4.97-.543 5.533-2.751 5.845-3.362.474-5.056-2.218-5.056-8.036 0-3.608-.375-4.809-1.5-4.809-1.162 0-1.5 1.316-1.5 5.845" fill="#d3d3d3" fill-rule="evenodd"/></svg>