<svg xmlns="http://www.w3.org/2000/svg" width="500" height="375"><path d="M433.833 5.483c-.183.175-20.937.546-46.121.826-28.117.312-46.255.893-47 1.504-1.946 1.598-17.826 3.196-20.031 2.016-1.04-.556-3.464-.717-5.387-.356-2.632.494-3.991.208-5.504-1.159-1.861-1.679-3.954-1.782-28.15-1.382-36.814.608-61.907.535-109.941-.323-46.965-.838-47.036-.831-65.86 6.281C77.429 23.624 59.777 30.99 39 40.78l-3.5 1.649 6.5.632c16.154 1.572 75.082 1.073 79.658-.675 4.15-1.584 4.478-1.582 5.668.046 1.186 1.621 6.16 1.687 80.719 1.079 43.7-.356 82.38-.856 85.955-1.112 3.575-.255 9.353-.625 12.841-.822 3.487-.197 6.839-.857 7.45-1.468 1.458-1.458 5.002-1.416 6.494.076.657.657 4.533 1.283 8.7 1.403 7.329.213 7.515.159 7.515-2.185 0-3.401 3.874-3.187 7.316.404l2.689 2.808 25.748-.206c42.944-.344 39.247-.107 39.247-2.52 0-1.887.387-2.039 3.644-1.428 2.004.376 4.203 1.243 4.886 1.926.857.857 2.987 1.051 6.857.625 3.087-.339 5.613-.332 5.613.018 0 .349 4.275.717 9.5.818 5.355.103 9.5-.225 9.5-.752 0-.568 1.274-.59 3.25-.055 1.788.484 7.525.669 12.75.411 5.225-.258 9.95-.437 10.5-.397.55.04 4.6.189 9 .332 4.4.143 9.012.595 10.25 1.004 2.177.72 2.25.536 2.25-5.685v-6.428l-5.589-2.139c-6.376-2.44-9.025-2.682-9.749-.889-.382.949-.523.956-.583.031-.043-.67-.754-.959-1.579-.643-.878.337-1.503.013-1.507-.781-.003-.746-.844-.086-1.869 1.468l-1.862 2.825-.458-2.394c-.251-1.316-.145-3.263.237-4.325 1.776-4.944-21.531-16.65-35.21-17.684-4.215-.319-7.814-.438-7.998-.264m-11.832 9.35c-1.863.621-1.015 1.933 2.249 3.475 4.5 2.127 6.293 2.409 6 .942-.307-1.536.552-1.564 4.613-.148 1.739.606 3.944.753 4.9.326.955-.426 3.65-.657 5.987-.512 4.823.3 5.602-1.137 1.5-2.765-2.541-1.009-22.977-2.075-25.249-1.318M83.5 32.016c-5.784.716-14.571 3.787-11.5 4.019 3.311.251 6.403 1.054 7.474 1.943.621.516 2.122.679 3.333.362 1.212-.317 2.816-.068 3.565.554.905.751 2.665.85 5.245.297 3.331-.715 3.846-1.179 3.621-3.262-.582-5.395-.36-5.321-11.738-3.913m23.438 122.161C87.125 173.748 57 205.238 57 206.378c0 .342-1.687 2.34-3.75 4.44-8.157 8.305-30.339 32.171-37.812 40.682-4.346 4.95-9.592 10.8-11.659 13-3.332 3.547-3.759 4.582-3.768 9.139-.011 5.033.057 5.151 3.315 5.762 4.042.759 40.853 3.388 64.174 4.584 9.35.48 21.275 1.137 26.5 1.46l25.5 1.579c8.8.545 20.95 1.447 27 2.005 6.05.557 17.525 1.46 25.5 2.006 7.975.547 16.75 1.218 19.5 1.491 2.75.273 10.175.927 16.5 1.452 18.813 1.561 55.05 4.856 77.5 7.046a8286.325 8286.325 0 0031.5 3.018c5.775.533 16.8 1.676 24.5 2.54 44.842 5.033 43.709 5.16 40.922-4.582-2.9-10.135-6.219-27.395-6.924-36-.237-2.904-3.254-19.702-7.004-39-1.443-7.425-2.837-15.075-3.097-17-.539-3.978-4.594-27.274-6.963-40-.87-4.675-2.208-11.875-2.973-16-.765-4.125-1.407-8.689-1.426-10.143-.057-4.339 9.149-3.952-127.035-5.346-44.539-.456-79.394-1.588-94.5-3.069l-6-.588-19.562 19.323m390.094 75.073c-.033 2.827-1.365 3.638-2.626 1.599-.493-.798-1.125-.586-2.059.691-.741 1.013-1.347 1.306-1.347.651s-.788-1.155-1.75-1.112c-.984.044-1.219.294-.536.571 2.088.847-.884 4.348-3.705 4.365-2.046.013-2.232.211-1.009 1.076 1.135.803 1.194 1.185.244 1.571-.691.28-.962.986-.601 1.569.429.695-.204.845-1.836.435-1.977-.496-2.765-.113-3.818 1.855-1.427 2.666-2.489 3.098-3.519 1.43-.447-.723-1.062-.704-1.985.061-.735.611-1.933 1.029-2.661.93-4.101-.555-5.189-.004-3.572 1.808 1.912 2.143.31 4.111-2.943 3.615-1.182-.18-2.361.329-2.679 1.156-.336.877-1.864 1.479-3.752 1.479h-3.184l2.153 1.867c2.133 1.851 3.076 4.822 1.153 3.633-.55-.34-1-.141-1 .441 0 1.643-2.714 1.247-3.382-.493-.341-.89-.173-1.291.393-.941.544.336.989.175.989-.358 0-.532-2.025-.938-4.5-.9-2.959.044-4.5.507-4.5 1.35 0 1.556 1.47 2.598 2.381 1.687 1.116-1.116 4.619-1.017 4.612.131-.004.596-1.579 2.154-3.5 3.462-1.921 1.308-3.493 2.771-3.493 3.25 0 .479-.9.871-2 .871-1.232 0-2.006.672-2.015 1.75-.012 1.388-.197 1.464-.891.368-.688-1.086-1.02-.925-1.552.75-.372 1.173-1.096 2.132-1.609 2.132-.513 0-.933 1.778-.933 3.95 0 2.681-.547 4.257-1.703 4.904-1.436.803-1.495 1.203-.377 2.549.729.878.932 1.604.452 1.612-.479.009-.197.452.628.985 1.276.825 1.234.972-.282.985-.98.008-2.189 1.027-2.687 2.265-.693 1.724-.919 1.841-.968.5-.036-1.008-.805-1.717-1.813-1.671-1.045.047-1.247.282-.5.583.688.278 1.214 1.255 1.171 2.171-.049 1.04-.269 1.197-.583.417-.278-.687-.903-1.25-1.39-1.25-.487 0-.626.675-.31 1.5.317.825.046 1.5-.602 1.5-1.562 0-4.109 2.593-3.322 3.381.341.34.142.619-.442.619-.711 0-.781 1.238-.211 3.75.52 2.292.479 3.88-.105 4.083-.526.184-.956.998-.956 1.809 0 .812-.45 1.198-1 .858-.585-.362-1 .676-1 2.5 0 2.126.372 2.888 1.17 2.395.798-.493.957-.168.5 1.023-.369.96-.67 2.384-.67 3.164 0 .78-.886 1.418-1.969 1.418-1.291 0-1.78.489-1.423 1.422.3.782.046 2.357-.566 3.5-.858 1.602-.818 2.082.173 2.093.846.01.922.266.222.75-.585.404-1.017 2.197-.96 3.985.057 1.788-.253 3.25-.687 3.25-2.341 0-4.521 3.937-4.133 7.461.338 3.07.061 3.8-1.613 4.238-1.112.29-1.775.927-1.474 1.415.302.487.045.886-.57.886s-.84.45-.5 1c.34.55 1.464 1 2.497 1 1.191 0 1.901.732 1.941 2 .034 1.1.085 2.972.112 4.16.058 2.501-1.548 3.784-3.95 3.156-.923-.242-2.434.396-3.358 1.417-1.583 1.748-1.537 2.008.789 4.517 2.89 3.117 3.105 3.931.805 3.049-1.119-.43-1.427-.256-.941.531.398.644.314 1.17-.187 1.17-.5 0-.864 1.238-.809 2.75l.101 2.75 47.75.26 47.75.259v-72.318c0-62.039-.209-72.595-1.468-74.26-1.406-1.859-1.47-1.825-1.5.809" fill="#d3d3d3" fill-rule="evenodd"/></svg>