<svg xmlns="http://www.w3.org/2000/svg" width="500" height="421"><path d="M0 12.371c0 10.113.278 12.522 1.5 12.991.825.316 1.5 1.025 1.5 1.575s-.675.741-1.5.425C.219 26.87 0 28.493 0 38.452c0 7.112.371 11.437.95 11.079.522-.323 1.438.326 2.035 1.441 1.207 2.255 2.998 2.712 3.047.778.077-3.033 2.684-4.945 4.876-3.575 1.151.718 2.092 1.818 2.092 2.443 0 2.44 2.844 3.681 4.544 1.981C18.423 51.72 19.812 51 20.63 51c.819 0 1.21-.45.87-1-.34-.55-.141-1 .441-1S23 49.45 23 50c0 2.076 2.729.891 3.908-1.698.79-1.733 1.486-2.283 1.946-1.537.894 1.445 5.146.441 5.146-1.215 0-.669.563-1.238 1.25-1.264.688-.026 2.038-.375 3-.774 1.242-.515 1.75-.259 1.75.881 0 1.883.456 1.968 3.066.572 1.574-.843 1.94-.703 1.966.75.029 1.624.17 1.605 1.57-.215.847-1.1 1.957-1.887 2.469-1.75.511.138.943-.762.961-2 .03-2.12.111-2.146 1.404-.44 1.03 1.358 1.564 1.5 2.141.566.555-.898.96-.706 1.459.69.387 1.082.201 2.252-.422 2.655-.77.499-.392 2.09 1.223 5.153 1.905 3.612 2.128 4.823 1.204 6.549-.623 1.165-.884 2.522-.579 3.016.306.494-.874 1.212-2.621 1.596-2.634.579-2.891.858-1.501 1.635.922.516 2.193.619 2.824.229.822-.509.959.236.482 2.623-.838 4.189-.473 3.913-6.434 4.855-4.803.76-5.063.684-5.499-1.596-.251-1.317.16-3.011.915-3.766.755-.755 1.365-2.642 1.357-4.194-.011-1.996-.271-2.418-.889-1.443-.48.758-1.373 1.069-1.984.691-.695-.429-1.112.19-1.112 1.649 0 1.286-.701 3.337-1.557 4.559C39.118 68.67 39.102 69 40.336 69c1.553 0 2.919 2.411 1.928 3.402-.328.329-1.468.598-2.531.598-2.005 0-2.076-2.691-.308-11.5.472-2.35.398-2.567-.341-1-.519 1.1-.975 1.513-1.014.917-.038-.596-.673-1.084-1.409-1.084-1.025 0-1.252 1.614-.968 6.878.353 6.532.22 7.029-2.623 9.873-2.678 2.678-3.293 4.332-4.428 11.916-.141.947-1.108 1.4-2.621 1.228-1.319-.149-2.092.035-1.718.408C25.558 91.891 22.783 94 19.878 94 17.986 94 17 94.514 17 95.5c0 .825.45 1.5 1 1.5s1 1.111 1 2.469c0 1.779-.417 2.308-1.494 1.895-.822-.316-1.301-.886-1.065-1.269.236-.382-.451-1.245-1.528-1.917-1.617-1.01-2.064-.948-2.565.357-.333.869-1.186 1.357-1.894 1.086-.709-.272-1.548.18-1.864 1.006-.317.825-1.032 1.218-1.59.873s-1.316.189-1.684 1.187c-.369.997-1.058 2.075-1.532 2.396-1.419.96 1.062 6.19 2.647 5.582.772-.296 1.656.119 1.964.923.592 1.542 5.773.945 6.438-.743.184-.465.998-.845 1.809-.845.93 0 1.188.462.696 1.25-1.485 2.38-1.358 5.015.301 6.228 1.908 1.395 1.058 3.495-1.448 3.577-1.853.061-7.032 5.945-5.232 5.945.789 0 .811.561.076 1.934-1.358 2.538-1.309 3.354.147 2.453 1.224-.756 5.583-1.45 9.658-1.537 1.797-.039 2.225-.492 1.844-1.95-.298-1.141.018-1.9.793-1.9 1.603 0 2.56-3.323 1.466-5.092-1.211-1.96-.176-2.908 3.175-2.908 1.654 0 2.735.429 2.409.956-.325.526-1.252.703-2.059.393-2.217-.85-1.76 1.424.532 2.651 1.1.589 2 1.955 2 3.035 0 2.201 1.041 2.524 2.722.843.828-.828 1.771.151 3.611 3.75 6.003 11.747 14.855 18.085 26.638 19.073 14.108 1.183 24.159-5.982 30.728-21.901 3.628-8.793 5.282-42.304 2.339-47.396-1.255-2.173-1.508-3.6-.846-4.783 1.562-2.791-.104-12.79-2.063-12.383-.896.186-1.566 1.109-1.49 2.05.076.942-.269 1.712-.766 1.712-.498 0-1.663 1.589-2.589 3.53-.939 1.97-2.227 3.322-2.913 3.059-.676-.259-2.791-.765-4.701-1.123-5.6-1.051-5.521-4.513.217-9.491 4.456-3.867 4.511-3.981 1.613-3.355-1.65.357-3.675 1.204-4.5 1.884-.825.679-2.035 1.04-2.689.803-.654-.238-2.356.331-3.781 1.265-3.158 2.07-3.139 2.09-3.789-3.957-.289-2.687-.184-4.331.234-3.655.507.819.978.363 1.412-1.365.358-1.427 1.078-2.595 1.601-2.595.522 0 .662-.749.311-1.664-.407-1.059-.244-1.42.446-.994.596.369 1.312.105 1.591-.586.326-.808.534-.677.585.369.052 1.078.985 1.625 2.768 1.625 2.586 0 2.615-.058.75-1.5-1.88-1.454-1.871-1.484.31-.969 1.237.292 2.501.123 2.809-.375.308-.498.944-.906 1.413-.906.946 0 .839 1.915-.2 3.575-.45.718 1.102 1.067 4.67 1.05 3.964-.02 5.214-.362 4.844-1.326-.275-.714-.001-1.299.608-1.299S94 48.675 94 49.5s.787 1.517 1.75 1.538c.963.02 3.55 1.589 5.75 3.485l4 3.447-3.5.079c-3.355.075-3.397.119-1 1.079 1.375.551 3.513.81 4.75.575 2.024-.383 2.262-.012 2.368 3.686.107 3.697.182 3.814.75 1.168.348-1.619 1.082-2.855 1.632-2.747.976.192 1.358 8.889 1.455 33.107.025 6.279.295 11.166.601 10.86.306-.305.535-10.064.51-21.686l-.045-21.132 3.239 1.66c1.782.913 3.547 2.137 3.923 2.721.967 1.502-.032 21.118-1.399 27.497-1.234 5.751-.188 15.271 2.874 26.163 1.005 3.576 1.65 10.9 1.844 20.94.263 13.65.511 15.597 2.143 16.79 1.461 1.068 1.569 1.52.516 2.17-1.064.658-1.013.943.255 1.429.871.335 1.577 1.635 1.569 2.89-.013 1.839-.203 1.991-.985.781-.817-1.264-.972-1.208-.985.357-.01 1.243.481 1.667 1.485 1.281.914-.35 1.5-.001 1.5.893 0 .808-.466 1.469-1.035 1.469-.687 0-.658.704.084 2.092 5.822 10.878 9.671 37.589 5.769 40.031-.846.529-1.434.297-1.641-.649-.536-2.444-2.177-1.656-2.177 1.045 0 2.113-.363 2.428-2.25 1.955-2.051-.513-6.93 1.824-5.748 2.755 2.803 2.207 18.043 7.895 21.778 8.128 2.596.162 11.02 2.009 18.72 4.105 7.7 2.096 16.7 4.367 20 5.048 3.3.681 7.237 1.569 8.75 1.973 1.788.477 2.75.346 2.75-.375 0-1.604 2.891-1.36 4.643.392 3.509 3.509 3.596 1.495.195-4.5a25.868 25.868 0 01-1.417-3c-.312-.825-1.013-2.327-1.558-3.339-1.137-2.11-1.266-23.209-.153-24.983.407-.648.889-2.266 1.071-3.596.183-1.33 1.01-4.03 1.838-6l1.506-3.582 3.445 3.743c1.894 2.059 3.779 3.685 4.187 3.612.409-.072 1.233.829 1.832 2.001.599 1.173 1.322 1.9 1.606 1.615.285-.284 3.52.831 7.189 2.477 8.148 3.656 21.66 7.881 23.366 7.306 2.372-.799-.487 13.852-4.732 24.246-1.378 3.377-2.827 7.871-3.42 10.608-.513 2.366-.325 2.562 2.025 2.113 3.318-.634 4.86 1.588 2.732 3.939-1.532 1.693-4.853 1.455-3.786-.272.307-.496-.184-1.187-1.091-1.535-1.284-.493-1.504-1.399-.996-4.109l.652-3.476-4.061 4.366c-2.234 2.401-4.29 5.062-4.57 5.913-.4 1.216-1.953 1.512-7.256 1.383l-6.747-.163 7.5 2.372c4.125 1.306 8.625 2.554 10 2.775 1.375.222 4.975.922 8 1.558 8.064 1.693 10.688 2.03 19.054 2.446 4.901.244 10.168 1.325 15 3.078 4.095 1.485 10.371 3.31 13.946 4.055 10.694 2.228 16.966 4.753 18.296 7.368 2.716 5.339 10.12 7.989 26.812 9.594 21.001 2.021 24.33 1.915 31.392-.994 3.3-1.359 7.575-2.488 9.5-2.507 1.925-.02 5.975-.7 9-1.512 3.025-.812 7.3-1.488 9.5-1.503 2.954-.021 3.608-.281 2.5-.997-.825-.533-2.445-.976-3.6-.985-3.075-.022-10.4-5.657-10.4-8.001 0-2.207 5.27-5.314 11-6.485 1.925-.394 5.803-1.784 8.619-3.09 7.003-3.247 12.038-3.878 19.953-2.5 10.599 1.846 16.068 5.275 13.663 8.567-1.078 1.475-7.965 6.493-8.918 6.498-.449.002-2.392.987-4.317 2.189-1.925 1.202-4.071 2.287-4.77 2.411-.698.124-2.723 1.178-4.5 2.343l-3.23 2.118 4.48-.615c6.207-.852 11.886-3.297 10.151-4.369-.833-.515 1.239-1.102 5.496-1.558 3.758-.402 7.729-1.36 8.825-2.127 1.096-.768 2.905-1.403 4.021-1.411 1.223-.01 1.58-.307.899-.75-.62-.404-1.455-2.695-1.855-5.091-1.062-6.352-2.823-7.572-13.076-9.058-4.918-.713-12.478-1.924-16.801-2.691-4.324-.767-9.966-1.395-12.538-1.395-4.261 0-5.096-.426-9.39-4.784-2.591-2.632-4.712-5.522-4.712-6.423 0-.982-1.388-2.096-3.467-2.782-1.907-.63-4.672-2.576-6.143-4.325-1.956-2.324-4.746-3.853-10.367-5.683-6.878-2.238-8.231-3.119-12.79-8.332l-5.099-5.829 3.498-4.671c5.816-7.765 6.256-8.171 8.858-8.171 2.999 0 3.327-1.606.51-2.5-1.1-.349-2-1.06-2-1.581 0-.52 1.575-.265 3.5.568l7.04 3.043c1.947.842 3.252 1.997 2.9 2.567-.352.57-.033.953.71.851 3.125-.429 4.871.364 14.304 6.497 5.453 3.545 10.285 6.216 10.738 5.936.453-.28 5.161 2.782 10.46 6.805 5.3 4.023 13.696 10.333 18.658 14.023 4.961 3.689 9.286 7.138 9.611 7.663.689 1.115 15.978.718 27.571-.717 7.676-.949 10.367-.353 8.926 1.978-.248.401.01 1.013.573 1.361.563.348 1.293-.071 1.623-.931.971-2.53 4.136-1.795 6.023 1.399 1.335 2.26 2.059 2.705 3.056 1.878.988-.82 1.307-.674 1.307.597 0 .924.403 1.432.895 1.128.993-.614 2.287 1.92 1.421 2.785-.3.3-1.577-.13-2.838-.956-2.732-1.79-3.474-.907-3.293 3.919.119 3.156.356 3.468 1.975 2.601 2.102-1.125 1.995-1.218 2.406 2.086.445 3.574-.406 5.876-1.511 4.089-.598-.967-1.035-.456-1.528 1.787-.379 1.728-1.072 2.905-1.539 2.616-.468-.288-1.132-.067-1.478.492-.345.559-.151 1.016.431 1.016s1.059.675 1.059 1.5.675 1.5 1.5 1.5 1.5.675 1.5 1.5-.45 1.5-1 1.5-1-.477-1-1.059-.457-.776-1.016-.431c-.559.346-.727 1.097-.372 1.671.354.573.024 1.435-.734 1.915-.998.633-1.033.878-.128.889 2.101.025 1.394 1.628-1.25 2.833-1.375.627-2.5 1.776-2.5 2.554 0 .778-.729 1.694-1.621 2.036-1.246.478-1.498.156-1.093-1.393.344-1.315.038-2.015-.88-2.015-.773 0-1.475.563-1.558 1.25-.272 2.232-.528 3.22-1.283 4.952-.408.936-.451 2.174-.095 2.75.357.576-.054 1.048-.911 1.048s-1.559.436-1.559.969c0 .532.693.702 1.541.377.847-.325 1.469-.199 1.381.281-.416 2.28.21 3.536 1.512 3.037.953-.366 1.386.078 1.292 1.324-.078 1.03-.567 1.61-1.088 1.288-.521-.322-.626-.065-.233.569.443.718-.004 1.155-1.179 1.155-1.455 0-1.893.726-1.893 3.142 0 1.766-.723 3.67-1.651 4.348-.908.664-1.358 1.501-1 1.859.358.358.126.651-.515.651-.642 0-1.167.675-1.167 1.5 0 .833-.889 1.5-2 1.5-1.1 0-1.947.337-1.882.75.409 2.587-.16 3.732-1.118 2.25-.858-1.328-.971-1.325-.985.023-.008.837-1.59 2.37-3.515 3.407-2.052 1.105-3.5 2.647-3.5 3.727 0 1.014-.337 1.754-.75 1.645-1.645-.435-5.861 1.611-7.75 3.76-1.1 1.251-2.9 2.424-4 2.607-3.175.526-4.597 2.189-2.646 3.095 1.045.485.575.614-1.285.354-2.956-.413-7.538 3.237-11.54 9.193-1.614 2.403-4.523 2.903-5.457.939-.327-.687-.432-.337-.234.78.389 2.196-1.44 4.47-3.596 4.47-.738 0-1.831.489-2.429 1.087-.705.705-1.303.738-1.701.095-.658-1.065-5.59.728-5.604 2.037-.004.395-.739.438-1.632.095-.978-.375-1.993.037-2.553 1.038-.712 1.272-1.372 1.425-2.816.652-1.273-.681-2.09-.678-2.515.01-.347.56-1.049.76-1.561.443-.512-.316-.931-.029-.931.639 0 .74-.848.47-2.17-.691-1.805-1.585-2.069-1.629-1.57-.258.429 1.181-.08 1.777-1.801 2.106-1.319.252-2.218.167-1.998-.19.22-.356-.468-.713-1.53-.793-1.062-.08-1.931.303-1.931.851s-.45.719-1 .379c-.552-.341-1 .379-1 1.608 0 1.224-.296 1.929-.658 1.567-.362-.362-1.262-.156-2 .456-.738.613-1.349.721-1.357.241-.009-.479-.459-.197-1 .628-.876 1.333-1.094 1.333-1.97 0-.885-1.349-1.446-.731-1.133 1.25.065.413-.531.75-1.325.75-.794 0-2.072.897-2.84 1.994-.768 1.096-1.683 1.707-2.033 1.357-.35-.351-.91.074-1.243.943-.334.869-1.199 1.352-1.923 1.075-.723-.278-1.575-.085-1.893.429-.713 1.153-5.875.288-6.803-1.14-.466-.717-1.48-.679-3.237.121-1.439.656-4.366.913-6.69.588-2.532-.354-5.062-.08-6.534.707-1.845.988-2.675 1.012-3.581.106-.907-.907-.772-1.18.579-1.18.967 0 1.476-.457 1.131-1.016-.346-.559-1.095-.728-1.666-.375-.672.415-.786-.153-.324-1.609s.348-2.024-.324-1.609A1.22 1.22 0 01325.5 367c-.351-.568-1.057-.774-1.569-.457-.512.316-.931.159-.931-.349 0-.509-2.065-.753-4.588-.542-4.192.349-4.451.245-3-1.207 1.548-1.548 2.119-4.581 1.061-5.639-.29-.29-2.428-.176-4.75.253-2.457.454-4.363.393-4.558-.145-.185-.51-.798-.641-1.362-.292-.565.349-1.419.014-1.899-.744-.646-1.019-.877-1.048-.889-.114-.01.887-.984 1.077-3.265.637-1.788-.345-3.925-.613-4.75-.596-.825.017-2.85-.494-4.5-1.137-2.958-1.152-2.923-1.176 2.5-1.737 3.025-.314 6.942-.253 8.705.134 1.833.403 3.343.292 3.526-.259.177-.53 1.885-1.128 3.795-1.33 1.911-.202 6.371-.689 9.912-1.083l6.438-.717-6.938-3.317c-3.816-1.825-9.301-3.848-12.188-4.497-2.887-.649-5.25-1.587-5.25-2.084 0-.497-.788-.784-1.75-.638-5.831.885-8.891-2.484-4.337-4.774 4.668-2.348 4.36-3.101-1.588-3.871-10.551-1.366-18.657-1.863-31.463-1.929-11.98-.063-12.735.053-14.5 2.212-1.84 2.251-1.913 2.258-6.196.565-3.687-1.457-5.006-1.533-8.821-.513-2.468.66-4.823.992-5.234.738-1.388-.857-3.229 6.284-2.552 9.897.58 3.091 2.441 5.095 2.441 2.629 0-.499.97-.653 2.156-.343 1.369.358 1.919.179 1.506-.489-.358-.579.059-1.325.926-1.657 2.105-.808 2.079-.82 2.079.895 0 .825-.402 1.5-.893 1.5-.49 0-.607.462-.258 1.027.349.564 1.342.902 2.206.75 2.61-.46 2.495 1.769-.165 3.192-1.819.974-2.843 1.038-3.806.239-.84-.697-1.85-.757-2.785-.166-1.212.767-1.148.93.367.943 1.032.008 1.64.561 1.391 1.265-.243.688-1.631 1.165-3.083 1.062-3.074-.219-3.578 1.63-.652 2.395 1.094.286 1.742.919 1.441 1.407-.302.487.633.886 2.077.886 3.333 0 6.493 1.669 6.493 3.429 0 .748 1.35 2.805 3 4.571 1.65 1.766 3 3.614 3 4.106s.9.894 2 .894 2.007.563 2.015 1.25c.011.849.359.769 1.087-.25.861-1.205.975-1.058.579.749-.271 1.237-.128 2.475.319 2.751.447.276.542 1.514.213 2.751-.598 2.243-.602 2.242-1.307-.251-.449-1.588-.743-1.861-.806-.75-.055.962-.775 1.75-1.6 1.75-.825 0-1.5.505-1.5 1.122 0 .791-.431.765-1.456-.086-.823-.683-2.019-.858-2.75-.403-.712.443-2.249.682-3.416.531-1.225-.158-2.384.41-2.743 1.345-.341.89-1.074 1.338-1.628.995-.554-.342-1.007.095-1.007.972 0 1.29-.386 1.388-2.021.513-1.111-.595-2.461-.809-3-.476-.538.333-.979.128-.979-.454 0-1.607-2.583-1.266-4.08.538-1.204 1.45-1.393 1.427-2.053-.25-.66-1.677-.733-1.686-.797-.097-.046 1.165-.879 1.75-2.488 1.75-3.144 0-5.7-1.001-5.087-1.991.266-.431-.149-1.307-.922-1.948-1.111-.923-1.531-.77-2.007.731-.626 1.973-3.893 2.38-6.428.8-.856-.533-1.691-.337-2.25.53-1.084 1.683-2.848-.452-2.873-3.479-.01-1.237-.516-1.665-1.515-1.281-.825.316-1.5.153-1.5-.362 0-1.862-2.665.139-3.714 2.788-.952 2.406-1.085 2.469-1.18.56-.149-3.015-5.631-4.988-7.058-2.54-.913 1.565-.989 1.558-1.018-.093-.024-1.424-.404-1.585-1.877-.797-1.27.68-2.206.629-3-.165-.634-.634-1.153-.783-1.153-.331 0 .453-.675.263-1.5-.422-1.036-.86-1.5-.898-1.5-.122 0 .617-.9.222-2-.878-2.283-2.283-4.071-2.529-5.8-.8-.834.834-1.2.859-1.2.083 0-.614.562-1.304 1.25-1.534.688-.23.013-.655-1.5-.945-1.957-.375-2.75-.117-2.75.894 0 .781-.457 1.137-1.016.792-.559-.346-.778-1.015-.486-1.487.292-.472-.263-1.118-1.233-1.434-.971-.317-4.182-2.881-7.136-5.699-3.87-3.691-8.623-6.66-17-10.621-13.2-6.241-19.936-7.412-30.157-5.243-5.696 1.209-8.973 2.994-5.496 2.994 2.489 0 6.481 3.017 8.078 6.104 1.029 1.991 2.496 3.002 5.047 3.481 2.303.432 3.144.955 2.339 1.452-.692.428-1.974.552-2.849.277-5.516-1.738-7.091-2.723-7.091-4.435 0-1.194-.708-1.879-1.943-1.879-1.069 0-2.553-.87-3.297-1.932-.744-1.063-1.97-2.075-2.723-2.25-2.069-.48-4.786-3.197-4.224-4.223.273-.497-.024-.583-.658-.19-.635.392-1.155.276-1.155-.259 0-.534-2.587-3.68-5.75-6.99-7.966-8.338-8.499-9.064-7.869-10.707.306-.797.12-1.449-.412-1.449-.533 0-.969-.975-.969-2.167 0-1.191-.294-1.872-.654-1.512-.719.718-6.489-6.653-6.255-7.99.398-2.271-.203-4.38-1.091-3.831-.936.578-1.455-.84-1.066-2.908.095-.5-.415-1.271-1.131-1.714-.717-.443-1.322-1.159-1.345-1.592-.023-.432-.737-2.136-1.586-3.786-.85-1.65-2.363-5.7-3.362-9-1-3.3-2.311-6.331-2.914-6.735-.709-.475-.566-.745.404-.765.935-.019 1.102-.308.443-.765-2.253-1.567-5.9-17.158-6.345-27.123-.184-4.123-.759-5.179-2.463-4.525-1.746.67-.878-5.487 1.044-7.409.765-.764 1.119-2.241.788-3.283-.337-1.062-.127-1.895.479-1.895.696 0 .544-1.284-.425-3.604-1.331-3.186-1.333-3.538-.013-3.031 2.024.777 1.884-.334-.258-2.032-1.64-1.301-1.625-1.37.25-1.11 1.234.171 2-.297 2-1.223 0-.874-.731-1.377-1.75-1.206-.962.161-1.75-.176-1.75-.75 0-.574.498-1.044 1.107-1.044s.841-.692.517-1.538c-.336-.875.049-1.783.893-2.107.816-.313 1.483-1.222 1.483-2.021 0-.799.45-1.174 1-.834.55.34 1 .168 1-.382s-.45-1.278-1-1.618c-.55-.34-1-.156-1 .41 0 .565-.713.754-1.584.419-1.099-.421-1.231-.825-.432-1.319.714-.441-.013-1.194-1.917-1.982-4.342-1.799-3.478-3.944 1.257-3.122.454.079.494-.43.09-1.131-.404-.701-.369-.944.079-.538.447.405 1.824-.633 3.058-2.306 1.503-2.037 2.418-2.611 2.768-1.737.353.882.549.764.602-.361.043-.916-.482-1.853-1.167-2.082-.685-.228-1.247-1.277-1.25-2.33-.003-1.568-.685-1.894-3.754-1.793-6.28.205-6.706.324-6.166 1.729.524 1.368-2.395 2.896-7.763 4.063-2.528.55-2.669.386-2.5-2.914.098-1.923.549-3.499 1.002-3.502.453-.002.678-.703.5-1.557-.178-.854-.701-1.499-1.164-1.433-.463.065-1.506-.698-2.318-1.697-1.37-1.685-1.435-1.618-.89.933.338 1.585.155 2.75-.432 2.75-.56 0-1.019.675-1.019 1.5s-.382 1.5-.848 1.5c-.466 0-.887 1.395-.936 3.101-.048 1.705-.792 3.878-1.652 4.828-.86.951-1.564 2.706-1.564 3.9 0 2.35-1.519 2.949-2.338.921-.365-.905-.526-.862-.583.155-.061 1.09-.523 1.003-2.058-.386-1.78-1.611-2.041-1.63-2.594-.188-.339.882-.43 2.159-.204 2.838.226.679-.263 2.022-1.087 2.985-.824.963-1.639 2.784-1.811 4.048-.756 5.557-1.334 6.732-2.999 6.093-1.11-.426-1.416-.25-.931.535.434.702.1 1.17-.836 1.17-.857 0-1.559-.45-1.559-1s-.405-1-.9-1c-.496 0-.752 1.601-.57 3.558.213 2.297-.143 3.74-1.004 4.07-1.107.425-1.101.963.04 3.163 1.18 2.273 1.165 2.971-.107 4.912C.177 250.659 0 261.499.149 328.733c.095 42.772.362 81.029.594 85.017l.421 7.25h498.678l.427-7.75c.617-11.215.736-167.515.129-169.838-.417-1.594-1.21-1.887-4.306-1.592l-3.795.362-.617-4.502c-1.449-10.569-10.519-27.377-20.388-37.781l-5.313-5.601 6.543-9.718 6.543-9.717-3.033-2.833c-1.667-1.558-3.032-3.627-3.032-4.599 0-.971-2.871 2.528-6.38 7.776-8.435 12.615-29.232 41.633-32.104 44.793-3.599 3.961-4.699 6.837-4.83 12.636-.15 6.595.39 6.752-13.369-3.882-5.949-4.598-12.249-9.358-14-10.577-1.751-1.22-3.326-3.186-3.5-4.369-.174-1.183-.942-2.357-1.706-2.609-.843-.278-1.115-.014-.691.671 1.072 1.735-1.992 1.35-3.475-.436-1.719-2.071-6.526-4.52-7.318-3.727-.345.344-.627.101-.627-.54 0-.642-.337-1.061-.75-.932-.412.129-3.225-1.166-6.25-2.877-3.025-1.711-9.437-4.576-14.25-6.367-9.542-3.551-9.718-3.718-6.678-6.321 1.617-1.384 2.013-2.744 1.801-6.19-.149-2.428.006-4.693.346-5.032 2.669-2.669-6.497-12.117-15.91-16.401-2.645-1.204-5.484-2.54-6.309-2.969-.859-.447-1.611-2.446-1.76-4.679-.143-2.145-.757-5.787-1.365-8.095-.982-3.729-.87-4.495 1.007-6.881 2.54-3.229 3.747-7.592 4.682-16.923.9-8.995 1.434-10.299 6.049-14.781 3.471-3.371 6.296-4.999 4.98-2.869-.289.467 1.734.633 4.497.367 4.584-.44 5.282-.216 8.006 2.57 2.765 2.828 2.842 3.098 1.052 3.666-1.063.337-2.164 1.498-2.446 2.58-.283 1.082-1.24 1.967-2.127 1.967-1.221 0-1.461-.607-.986-2.5.65-2.59-.11-3.09-2.448-1.608-1.564.991-.661 9.108 1.013 9.108.539 0 .836 1.237.662 2.75-.178 1.547-.863 2.641-1.566 2.5-.687-.137-1.25.2-1.25.75s1.238 1.029 2.75 1.063l2.75.064-2.5 1.005c-2.315.932-2.371 1.101-.75 2.297.962.71 1.75 1.804 1.75 2.431 0 1.369-.24 1.356 3.757.21 3.516-1.009 4.151-.121 1.68 2.35-1.416 1.416-1.997 1.331-6.225-.92-4.377-2.33-4.644-2.705-4.351-6.104.214-2.491-.04-3.403-.815-2.924-.62.383-.854 1.558-.519 2.612.34 1.071.137 1.916-.46 1.916-.587 0-1.067-.645-1.067-1.433s-.905-1.719-2.011-2.07c-2.259-.718-4.396-4.361-5.464-9.319-.393-1.826-.962-3.074-1.264-2.772-.485.484.246 6.392 3.597 29.094l.885 6 .129-8.921.128-8.922 3.093 4.67c3.441 5.195 4.907 6.5 4.907 4.368 0-1.096 1.072-.88 4.669.941 4.837 2.449 9.331 3.106 9.331 1.364 0-.55.766-1 1.702-1 .937 0 3.148-1.401 4.914-3.112 3.477-3.37 5.384-3.153 5.384.612 0 1.31.45 2.66 1 3 1.626 1.005 1.206-.836-2.903-12.716-5.481-15.848-6.849-18.821-10.438-22.684-2.377-2.559-2.664-3.208-1.159-2.622 1.1.429 2.987.994 4.194 1.256 1.468.32 2.295 1.349 2.5 3.113.189 1.63 1.019 2.771 2.174 2.991 1.16.22 1.612-.062 1.191-.742-1.645-2.662.799-3.06 3.964-.646 3.929 2.996 3.894 2.99 5.852 1.032 1.357-1.357 1.86-1.31 4.751.448 1.778 1.082 3.602 1.738 4.053 1.459.452-.279.821-.03.821.552 0 .582.675 1.059 1.5 1.059 1.984 0 1.896-.956-.25-2.708-1.593-1.3-1.503-1.375 1-.841 3.158.674 3.519-.104 1-2.156-1.599-1.303-1.512-1.389 1-.999 3.408.529 3.657-1.03.298-1.873l-2.452-.616 2.596-4.153c1.428-2.285 4.106-5.843 5.952-7.907S411 91.309 411 90.472c0-.837 1.154-1.96 2.565-2.497C416.968 86.681 417 86.691 417 89c0 1.1.372 2 .827 2 .455 0 .612-1.461.35-3.247-.447-3.046-.363-3.154 1.361-1.75 1.659 1.352 1.774 1.331 1.193-.221-.354-.945-.176-2.007.396-2.36.767-.474.708-9.977-.074-12.064-.029-.077-1.138-.414-2.465-.746-2.533-.636-2.635-.969-4.171-13.588-.61-5.013-.527-5.36.982-4.108.907.753 1.938 1.08 2.292.727.353-.354.017-.643-.747-.643-.829 0-.492-.628.833-1.557 2.722-1.906 2.752-2.498.268-5.165-1.615-1.733-1.702-2.196-.5-2.657.8-.307 1.484-.01 1.518.66.035.671.508.105 1.052-1.257.807-2.022 1.159-2.205 1.921-1 1.372 2.169 1.172 2.976-.736 2.976-1.322 0-1.433.267-.5 1.2.933.933 1.467.933 2.4 0 1.668-1.668 2.8-1.498 2.8.422 0 1.329.271 1.398 1.5.378 1.224-1.016 1.5-.958 1.5.315 0 .944.79 1.501 2 1.41 1.1-.083 2-.79 2-1.571 0-2.024 3.919-5.154 6.453-5.154 1.181 0 2.657-.51 3.28-1.133 1.346-1.346 4.675-.335 3.761 1.142-.348.563-1.051.765-1.563.448-.512-.316-.931-.098-.931.484 0 1.047 1.326 1.448 3.75 1.134.687-.09 1.25.516 1.25 1.346 0 .83.9 1.99 2 2.579 1.183.633 2 .681 2 .119 0-.524-.563-1.159-1.25-1.411-1-.366-1-.723 0-1.783 1.03-1.091 1.25-1.093 1.25-.008 0 .824.748 1.121 2 .793 1.448-.378 2-.03 2 1.261 0 .982.727 3.526 1.617 5.654 1.866 4.467 1.418 12.05-1.156 19.562-1.605 4.682-4.773 7.82-16.468 16.304-2.268 1.644-5.242 4.457-6.61 6.251-3.418 4.481-8.009 6.813-10.062 5.11-1.552-1.288-1.474-8.171.137-12.029.536-1.284.271-1.565-1.129-1.199-1.594.416-1.812 1.5-1.693 8.453l.137 7.975-4.2 3.442c-3.573 2.927-4.731 3.355-7.759 2.863-2.327-.377-3.828-.143-4.336.679-.586.948-.067 1.09 2.123.579 2.193-.511 2.534-.417 1.399.385-1.192.843-.987.982 1 .676 1.375-.211 1.962-.197 1.305.032-.657.23-.985.962-.729 1.629.255.666-.215 3.45-1.045 6.187-2.573 8.483-2.086 14.138 1.373 15.926l2.904 1.502-.531-7.745c-.622-9.078 2.386-18.557 5.567-17.545 1.188.378 1.3.27.395-.383-1.647-1.189 1.585-4.223 7.761-7.283 2.475-1.227 6.3-4.243 8.5-6.703 3.852-4.307 4.278-4.504 11.5-5.3 7.098-.784 13.015-.253 17.5 1.569 1.731.703 1.828.6.718-.766-.705-.868-3.387-1.894-5.96-2.28-6.231-.934-3.85-2.261 5.642-3.143 6.953-.646 8.507-1.399 3.882-1.88-3.787-.394-3.923-.456-3.282-1.493.34-.55.127-1-.472-1-.6 0-1.35.675-1.666 1.5-.371.965-1.916 1.5-4.334 1.5-2.244 0-4.783.806-6.301 2-2.447 1.925-7.787 2.795-7.67 1.25.031-.412 2.619-2.832 5.75-5.377 3.705-3.011 6.566-6.411 8.193-9.735 1.375-2.809 3.063-5.114 3.75-5.122.688-.009 1.25-.358 1.25-.775 0-.418.941-1.348 2.092-2.066 1.797-1.123 2.285-1.051 3.468.509.757.999 1.425 1.591 1.485 1.316.67-3.093.64-4-.133-4-2.78 0-.54-3.017 2.338-3.15l3.25-.15-2.997-.44c-1.648-.242-3.276-.893-3.617-1.445-.342-.553-.907.133-1.256 1.524-.349 1.39-1.984 3.489-3.632 4.663L462 67.136v-2.127c0-1.17.45-1.849 1-1.509.55.34 1 .179 1-.358 0-.536-.518-1.148-1.15-1.359-1.402-.467 1.08-6.091 2.65-6.007.55.03 1.492-.354 2.093-.853.716-.594 1.472-.075 2.192 1.505.696 1.527 1.762 2.286 2.907 2.069.994-.189 2.145-.378 2.558-.42.413-.043.75-.513.75-1.046 0-.532-.562-.831-1.25-.664-.687.168-.976.138-.641-.067.335-.205.28-2.175-.123-4.377-.512-2.801-.395-3.888.391-3.615.618.215 1.023 1.921.902 3.791-.122 1.871-.001 2.926.269 2.345.269-.581 1.831-.963 3.471-.85 2.335.162 2.981-.205 2.981-1.694 0-1.045.498-1.9 1.107-1.9s.837.704.506 1.565c-.471 1.228-.138 1.419 1.545.885 1.659-.527 2.013-.337 1.562.837-.96 2.501.305 2.688 2.608.385 1.188-1.188 2.219-3.314 2.29-4.724.116-2.319-.194-2.538-3.245-2.298-2.41.19-3.373-.151-3.373-1.192 0-.802.675-1.458 1.5-1.458 1.064 0 1.504-1.09 1.515-3.75.012-2.789.264-3.366.985-2.25.793 1.227.972 1.113.985-.628.024-3.357-2.928-5.305-3.681-2.428-.564 2.157-.661 2.111-1.93-.906-.735-1.749-1.795-2.896-2.355-2.55-.561.347-1.019.153-1.019-.429s.375-1.059.833-1.059c.459 0 .834-.682.834-1.514 0-.976-.611-1.321-1.715-.971-1.006.32-1.956-.083-2.298-.974-.454-1.182-1.145-1.305-3.118-.555-1.395.531-2.57.863-2.613.739-.042-.124-.232-1.048-.422-2.053-.661-3.485-1.492-4.795-2.606-4.107-.615.38-1.468.126-1.895-.565-1.06-1.715-2.646-.546-3.415 2.516-.977 3.893-4.275 6.766-6.367 5.546-.973-.567-1.176-1.014-.468-1.032.688-.016 1.25-.466 1.25-.999 0-.532-.601-.737-1.336-.455-1.303.499-1.405.012-2.007-9.576-.116-1.852-.964-2.761-3.269-3.506-2.598-.84-2.985-1.351-2.342-3.089.424-1.146.369-2.718-.122-3.494-.681-1.075-.897-.883-.909.808-.01 1.526-.469 2.044-1.468 1.661-2.57-.987.463-4.579 3.277-3.881 1.979.491 2.277.236 2-1.711-.375-2.649-5.909-3.792-8.389-1.734-.789.655-1.435.774-1.435.264s-1.8-1.033-4-1.163c-3.94-.232-5.43 1.082-2.5 2.207.825.316 1.5.178 1.5-.307 0-.484 1.278-.399 2.841.191C443.584 3.281 446.982 9 444.854 9c-.535 0-.694.45-.354 1 .363.588-.714 1-2.615 1h-3.234L441 8.5c1.292-1.375 2.045-2.556 1.674-2.625-2.543-.472-3.249-.175-3.824 1.61-.602 1.863-.658 1.841-.75-.294-.055-1.27-.535-2.04-1.067-1.711-.532.329-.73 2.043-.44 3.809l.528 3.211-1.525-2.5c-.879-1.442-1.54-1.886-1.561-1.05-.022.917-.385 1.1-.986.499-.571-.571-.612-2.451-.104-4.705C433.994.095 434.298.25 423.837.086c-7.993-.126-8.625.008-8.176 1.727.51 1.949-1.89 2.4-4.429.831-.677-.419-1.232-.36-1.232.13 0 .491-.675.893-1.5.893s-1.5-.375-1.5-.834c0-.458.477-.833 1.059-.833s.781-.45.441-1-1.48-1-2.534-1c-1.607 0-1.828.524-1.369 3.25.468 2.784.357 3.026-.775 1.684C402.477 3.341 393.456 0 390.499 0c-1.111 0-1.526.711-1.312 2.25.193 1.389-.165 2.154-.937 2-.687-.137-1.25.2-1.25.75s-.45 1-1 1-1-1.377-1-3.059c0-1.682-.39-2.818-.866-2.524-.476.294-.656 1.63-.401 2.969.432 2.257.205 2.409-3.122 2.1-1.973-.183-3.844.082-4.158.59-.603.976 1.188 1.261 5.91.943 1.772-.12 2.617.204 2.218.85-.355.574-1.384.76-2.287.414-1.265-.486-1.484-.22-.955 1.159.585 1.524.241 1.723-2.326 1.347-2.614-.384-3.013-.135-3.013 1.884 0 1.28-.54 2.327-1.2 2.327-.933 0-.933.267 0 1.2 2.415 2.415 1.415 4.795-2.05 4.879-1.788.043-2.687.306-2 .583.687.278 1.25.965 1.25 1.528 0 .563-.661.77-1.468.461-.807-.31-1.734-.133-2.059.393-.325.526-.157.956.374.956s.747.838.479 1.862c-.347 1.326.185 2.042 1.843 2.487 3.322.889 5.037.794 4.396-.244-.305-.493.082-1.139.858-1.437 1.293-.496 2.577 1.194 2.577 3.395 0 .494-2.025.621-4.5.282-4.403-.604-5.246-.067-3.704 2.359.914 1.438 5.391 1.329 6.454-.156.493-.689 1.082-.534 1.718.452.635.985.614 1.622-.061 1.854-.581.199-.264 1.199.726 2.293 1.679 1.855 1.674 1.908-.103 1.226-1.335-.512-1.643-.365-1.093.525.421.681 1.412.99 2.202.687 1.864-.715 2.918 2.039 1.454 3.803-1.243 1.497-6.093 1.885-6.093.487 0-.481.45-.875 1-.875s1-.436 1-.969c0-.532-.614-.733-1.365-.445-1.781.684-3.832 5.061-4.316 9.216-.212 1.816-1.271 7.603-2.352 12.86C368.885 69.919 368 77.771 368 82.11c0 8.691-.221 9.023-3.586 5.391-6.752-7.284-8.532-11.206-8.753-19.274-.117-4.25-.586-8.514-1.043-9.477-.611-1.286-.406-1.75.775-1.75 2.005 0 2.066-2.011.139-4.559-2.499-3.303-1.954-4.427 1.511-3.119 1.674.632 2.574 1.306 2 1.497-.574.191-1.043.776-1.043 1.3 0 .544.907.466 2.121-.184 1.49-.797 1.918-.808 1.441-.035-.436.705.38 1.1 2.272 1.1 2.752 0 5.194-2.479 3.139-3.185-.79-.272-1.65-3.107-1.899-6.256-.041-.518-.777-.068-1.637 1-1.014 1.259-1.42 1.414-1.156.441.223-.825-.492-2.288-1.591-3.25-1.399-1.226-1.576-1.755-.593-1.765 1.139-.013 1.121-.198-.097-.985-2.166-1.4-3.021-1.219-2.362.5 1.068 2.782-1.573 1.527-3.133-1.49-.85-1.644-1.547-3.217-1.549-3.495-.025-3.28-1.879-7.349-4.714-10.343-1.913-2.02-3.581-4.122-3.709-4.672-.127-.55-.564-1.766-.971-2.702-.406-.936-.462-2.151-.123-2.7.894-1.446-2.549-2.884-5.246-2.191l-2.308.593 2.097 2.25c2.092 2.246 2.092 2.25.057 2.25-1.825 0-2.508-1.03-2.157-3.25.065-.413-.755-.75-1.823-.75-2.495 0-3.725-1.965-1.937-3.093.908-.573 1.804-.299 2.628.803.687.92 1.25 1.222 1.25.672 0-.55.712-1.873 1.582-2.941 1.48-1.817 1.543-1.822.988-.08-.42 1.321-.189 1.707.797 1.328.764-.293 1.894-.028 2.511.589.829.829 1.122.791 1.122-.145 0-.858.724-1.038 2.242-.556 1.839.584 2.036.461 1.095-.683-.631-.767-1.302-2.294-1.492-3.394-.728-4.22-7.006-7.13-8.271-3.833-.47 1.225-.935 1.372-1.753.554-.628-.628-2.422-.851-4.122-.511-2.138.428-2.803.267-2.295-.554 2.093-3.387-8.934.037-12.654 3.929-2.413 2.525-2.194 3.034.815 1.89 7.394-2.811 9.096-.485 4.893 6.687-1.398 2.386-2.105 4.338-1.572 4.338 1.402 0 3.88-2.687 4.616-5.005.528-1.664.971-1.812 2.686-.894 1.493.799 1.868.798 1.374-.001-.374-.605-.23-1.1.32-1.1 1.86 0 2.118 1.786.362 2.509-1.357.559-.856 1.003 2.256 2 2.2.705 3.5 1.328 2.889 1.386-.63.06-.937 1.297-.709 2.855l.402 2.75-1.323-2.897c-1.25-2.738-1.417-2.803-3.041-1.178-2.179 2.179-2.171 3.511.032 5.183 1.66 1.26 1.657 1.33-.059 1.36-.995.018-1.524.494-1.175 1.059.349.564 1.163.961 1.809.881 3.097-.382 5.153.137 3.84.969-.735.466-1.297 1.134-1.25 1.485.336 2.513.043 2.996-1.115 1.838-1.626-1.626-2.467-1.509-2.467.343 0 .856.58 1.321 1.302 1.044.715-.275 1.538-.116 1.827.352.29.468-.221 1.138-1.135 1.489-1.266.486-1.384.915-.494 1.805 1.731 1.731 1.42 2.662-.833 2.492-1.1-.083-2.007-.617-2.015-1.188-.009-.57-.501-.362-1.095.463-.925 1.286-1.003 1.263-.547-.167.296-.932-.104-1.911-.906-2.219-2.125-.815-1.756 1.166 1.136 6.101 1.415 2.414 3.698 4.818 5.073 5.34 3.696 1.406 2.554 4.009-2.569 5.853-2.978 1.072-5.051 2.653-6.348 4.841-2.269 3.829-3.408 3.477-4.311-1.333-.663-3.536-2.709-6.416-4.558-6.416-.548 0 .024 1.433 1.271 3.184 3.684 5.174 2.871 13.535-2.381 24.481l-4.183 8.718-1.033-4.139C305.756 75.128 297.33 69 289.322 69c-1.507 0-2.322-.589-2.322-1.679 0-.923-.549-3.198-1.221-5.055-.854-2.364-.901-3.584-.154-4.071.587-.382 1.39-2.011 1.784-3.62.608-2.479.497-2.741-.729-1.724-1.201.997-1.528.646-1.935-2.076-.278-1.855-.003-3.593.632-4.01.715-.467.511-.74-.56-.75-.925-.008-1.986-.971-2.357-2.14-.632-1.993.028-2.927 3.04-4.298.55-.25-1.137-2.468-3.75-4.928-2.612-2.461-4.75-5.215-4.75-6.12 0-1.073-.436-1.371-1.25-.855-1.778 1.125-6.75 1.217-6.75.124 0-.504-.52-.595-1.155-.203-.715.443-.883.275-.44-.44.427-.691.063-1.155-.905-1.155s-1.332.464-.905 1.155c.473.763.271.88-.595.345-.902-.558-1.069-.42-.536.442.537.869.203 1.123-1.096.832-1.626-.363-7.571 3.515-12.182 7.948-1.572 1.512-.687 3.408 1.245 2.666 1.644-.631 3.031 1.209 1.585 2.102-1.312.811-1.326 4.51-.016 4.51.55 0 1 1.336 1 2.969 0 2.228-.374 2.825-1.5 2.393-.882-.339-1.5-.013-1.5.79 0 .752-.95 1.96-2.111 2.685l-2.111 1.319 2.069 1.449c5.817 4.075-1.913 5.354-10.548 1.747-3.54-1.479-9.011-1.055-12.799.992-1.1.595-2.371.974-2.824.844-.454-.131-.497.293-.096.942.436.706.3.914-.34.518-.588-.363-1.24-.148-1.449.478-.533 1.601-4.791.095-4.791-1.693 0-1.706-5.148-1.96-8.066-.398-2.35 1.258-2.532 5.224-.324 7.056 1.363 1.131 2.193 1.017 5.408-.743 4.409-2.416 6-1.891 5.304 1.747-.452 2.365-.929 2.595-5.462 2.641-3.098.031-5.635.655-6.742 1.657-.977.884-2.303 1.607-2.947 1.607-.644 0-1.09.337-.991.75.1.412-.643 2.12-1.649 3.793-1.968 3.272-1.124 3.084-16.531 3.686-15.13.591-25.38 11.781-22.477 24.538 1.742 7.659 7.057 12.233 14.211 12.233 3.861 0 4.179-.454 3.238-4.623-.595-2.637-.483-3.403.442-3.048.682.261 1.906-.941 2.727-2.677 6.954-14.711 9.196-17.107 16.009-17.107 7.067 0 10.039 7.122 4.779 11.455-1.616 1.331-1.658 1.719-.375 3.441 1.412 1.896 1.446 1.89 1.446-.25 0-3.031 1.516-2.767 1.771.309.113 1.375-.227 2.5-.757 2.5-.606 0-.587.993.052 2.672 1.345 3.539.471 6.019-1.534 4.355-2.01-1.668-3.81-.259-3.271 2.56.248 1.294.161 2.174-.193 1.955-.354-.219-.735.807-.846 2.28-.143 1.896.058 2.27.687 1.282.512-.804 1.603-1.121 2.573-.749 2.875 1.103 1.057 3.13-3.086 3.442-3.345.251-4.172.786-5.41 3.5-1.36 2.98-1.485 3.042-1.801.895-.279-1.899-.598-2.094-1.798-1.098-1.179.978-1.982.738-4.173-1.248-1.493-1.353-4.445-3.727-6.56-5.277l-3.845-2.817-2.655 2.144c-1.46 1.179-4.807 3.533-7.438 5.231-6.458 4.166-8.8 8.977-9.392 19.291-.255 4.445-2.092 14.985-4.08 23.421-3.443 14.603-3.564 15.708-2.514 22.993 1.178 8.177 1.031 8.584-3.527 9.797-3.118.83-3.214.654-4.82-8.816-1.826-10.768-4.862-20.838-8.389-27.824-3.587-7.107-4.994-14.791-4.994-27.279 0-9.393.133-10.027 2.5-11.889 3.245-2.552 3.253-4.36.01-2.236-2.893 1.896-2.325 2.93-6.009-10.933-1.735-6.528-2.388-10.891-1.937-12.943 1.153-5.248.752-39.908-.551-47.63-1.43-8.477-.571-11.191 4.161-13.151 1.599-.663 4.762-2.548 7.028-4.19 2.267-1.641 7.246-4.273 11.064-5.848 3.819-1.574 9.483-4.331 12.588-6.126 3.105-1.795 6.546-3.282 7.646-3.305 1.1-.023 5.313-.634 9.362-1.359 5.426-.972 7.991-1.032 9.75-.231 1.314.599 2.388.685 2.388.193 0-.492-.563-1.122-1.25-1.4-.961-.388-.948-.522.059-.583.72-.043 1.055-.49.744-.993-.31-.502-2.474-.715-4.809-.472-3.077.319-3.832.162-2.744-.571.825-.557 1.275-1.053 1-1.102-.275-.049-1.512-.278-2.75-.509-1.516-.283-2.25.068-2.25 1.074 0 .927-.949 1.494-2.5 1.494-1.375 0-2.5.45-2.5 1 0 2.151-1.576.857-1.767-1.45-.234-2.832 1.432-4.285 3.054-2.663 1.591 1.591 2.75 1.374 2.075-.387-.519-1.351 1.158-2.049 3.888-1.618 1.407.222.753-1.059-1.5-2.938-2.38-1.986-2.407-1.97 3.75-2.337 1.752-.105 2.896-.684 2.75-1.393-.138-.668.452-1.214 1.309-1.214s1.281.45.941 1c-.34.55.11 1 1 1s1.34-.45 1-1c-.34-.55.309-1 1.441-1 1.164 0 2.059.652 2.059 1.5 0 .825-.562 1.507-1.25 1.515-.858.011-.794.304.202.934 1.826 1.155 3.126.418 2.436-1.38-.288-.752-.044-1.664.544-2.027.673-.416 1.081.564 1.103 2.649.035 3.271.051 3.282 1.348.942 1.087-1.961 1.419-2.093 1.927-.767.395 1.029 1.23 1.364 2.337.939 1.521-.583 1.463-.777-.49-1.648-2.594-1.157-2.293-3.312.393-2.818 1.578.29 1.653.111.524-1.25-1.11-1.337-1.071-1.589.245-1.589.859 0 1.848-.461 2.197-1.025.428-.693-8.673-.981-28.036-.888l-28.67.137.456 2.388c.251 1.313.1 2.388-.335 2.388-.436 0-.936-.97-1.111-2.155-.199-1.341-1.172-2.284-2.575-2.495-2.009-.302-2.122-.126-1.034 1.616.881 1.41 1.434 1.617 1.989.744.497-.781.775-.445.785.946.017 2.473-3.427 2.239-4.401-.298-.393-1.025-1.067-1.181-2.319-.536-2.572 1.323-4.68.384-3.184-1.419.738-.89.784-1.403.125-1.403-.572 0-1.266.563-1.544 1.25-.35.869-.528.893-.583.077C131.019.444 114.824.13 65.5.055L0-.044v12.415M134.821 5.25c-.726.688-1.996 1.25-2.821 1.25-.825 0-1.944 1.012-2.487 2.25-1.223 2.788-2.513 2.967-1.803.25.417-1.595.045-1.986-1.843-1.93-2.215.066-2.239.126-.367.93 1.875.806 1.852.864-.357.93-1.591.047-2.183.524-1.821 1.467.338.88-.269 1.542-1.643 1.789-3.309.594-5.679-.164-5.679-1.818 0-.817-.45-1.208-1-.868-.55.34-1 .217-1-.273 0-.489-2.052-1.359-4.559-1.933-3.667-.839-4.46-.787-4.056.267.682 1.777-1.568 2.399-3.108.858-.683-.682-2.229-.983-3.435-.667C96.577 8.344 89.453 15 91.083 15c.505 0 .924.787.932 1.75.013 1.468.166 1.513.946.279.512-.809 1.233-1.168 1.604-.798.923.924-2.133 3.848-3.105 2.971-.428-.386-.502.071-.163 1.016.339.945.185 1.984-.341 2.309-.526.325-.988-.448-1.026-1.718-.066-2.164-.121-2.183-.865-.309-.625 1.572-.901 1.679-1.287.5-.317-.97-.398-.881-.228.251.154 1.024-.177 1.479-.798 1.096-.624-.386-.767-.181-.347.498.448.726-.03 1.155-1.287 1.155-1.1 0-2.283.457-2.628 1.016-.346.559-1.006.783-1.469.497-.462-.286-1.619-.221-2.571.145-1.62.621-1.614.749.101 2.003 2.299 1.681 5.637 1.721 7.396.089 1.1-1.02 1.234-.929.732.5-.593 1.684-.287 1.884 3.321 2.176.898.073 1.383.915 1.208 2.098-.247 1.672-.117 1.745.845.476.969-1.28 1.053-1.244.573.25-.401 1.245.005 1.786 1.405 1.875 1.083.069 2.532.181 3.219.25 1.415.142 2.374 5.625.983 5.625-.495 0-.9.675-.9 1.5s.333 1.5.74 1.5.521.835.255 1.855C97.582 48.706 116.016 63 120.437 63c.426 0 .449-4.118.051-9.151l-.724-9.151 3.826-3.212c3.543-2.975 3.705-3.334 2.19-4.849-2.201-2.201-2.223-2.196-9.786 2.297-6.78 4.028-13.586 6.493-11.365 4.116.622-.665.937-2.861.702-4.879-.409-3.504-.369-3.561.87-1.25.715 1.332 1.924 2.627 2.688 2.88.926.305 1.124.03.596-.826-.521-.842-.396-1.038.36-.57.76.469 1.202-.249 1.291-2.096.119-2.445.194-2.51.577-.501.548 2.867 2.503 2.362 3.41-.882.49-1.755.705-1.917.777-.585.076 1.399 1.513.483 5.991-3.818 6.646-6.384 12.503-9.915 15.253-9.196 2.112.553 2.348-.539.759-3.508-.866-1.619-.813-1.957.25-1.606.741.244 1.505 1.533 1.698 2.865.193 1.332.868 2.753 1.5 3.157.836.534.808.739-.101.75-1.447.017-1.768 7.577-.359 8.448 1.179.729 9.546-2.991 14.789-6.575 2.299-1.572 4.662-2.858 5.25-2.858.589 0 1.07-.408 1.07-.906 0-.499-1.012-.685-2.25-.414-1.633.358-1.878.23-.893-.468 1.748-1.239-.064-2.454-2.351-1.576-1.334.512-1.403.814-.34 1.488 1.11.703 1.108.848-.008.861-1.679.019-5.573-3.119-5.908-4.759-.138-.674.2-1.226.75-1.226s1 .477 1 1.059.457.776 1.016.431c1.572-.972.207-2.365-3.315-3.384-2.498-.722-2.707-.945-.951-1.016 1.238-.049 2.25-.567 2.25-1.149 0-.582-.419-.8-.931-.484-.512.317-1.261.041-1.665-.612-.494-.799-.995-.479-1.536.982l-.802 2.169-2.347-2.248c-1.292-1.237-2.161-2.616-1.933-3.065.228-.45-.53-1.065-1.685-1.367-1.156-.302-2.101-.947-2.101-1.433 0-1.275-1.644-1.085-3.179.367M65.343 17.912c-.9 1.052-2.179 1.704-2.842 1.45-.663-.254-1.957.685-2.876 2.088-.919 1.402-1.241 2.55-.715 2.55.525 0 1.243.907 1.595 2.015.351 1.108 1.016 1.781 1.477 1.496 1.407-.869 3.793.519 4.313 2.51.271 1.036-.022 2.094-.651 2.352s.431.498 2.356.533c2.275.041 3.033-.233 2.165-.783-1.001-.635-.773-.992.915-1.434 1.842-.481 2.029-.852 1.036-2.049-.824-.993-.877-1.67-.165-2.11 1.706-1.054 1.199-2.53-.869-2.53C68.469 24 66 22.976 66 21.893c0-.491.787-.9 1.75-.908 1.437-.013 1.493-.178.314-.924-1.19-.753-1.211-1.178-.127-2.485.888-1.07.944-1.576.176-1.576-.623 0-1.869.86-2.77 1.912M262.5 40.017c-1.1.403-2.277.575-2.615.382-1.119-.637-1.998 10.888-.914 11.972.705.705 1.029.617 1.029-.279 0-.9.789-1.111 2.522-.676 1.765.443 2.697.177 3.105-.886.32-.835.934-1.301 1.363-1.036 1.253.774 1.824-4.28.62-5.484-.791-.791-.742-1.31.177-1.878 1.882-1.163-2.786-3.03-5.287-2.115m138.65 9.233c-.083 1.513-.627 2.75-1.209 2.75-.582 0-.781.45-.441 1s.115 1-.5 1-.797.52-.405 1.155c.422.682.277.884-.355.493-.588-.363-1.297-.095-1.576.596-.402.998-.522.999-.585.006-.099-1.563-3.519-1.62-6.347-.107-1.603.858-2.232.858-2.518 0-.209-.628-1.045-1.143-1.856-1.143-.898 0-1.194.49-.757 1.25.396.688.376.941-.043.564-.42-.378-1.842-.276-3.161.225-2.376.904-3.445-.274-1.397-1.539 1.468-.908 1.218-2.5-.393-2.5-1.716 0-3.023-2.988-1.326-3.03.671-.017.398-.508-.606-1.092-2.434-1.416-2.13-2.846-4.067 19.122-.946 10.725-1.928 20.513-2.183 21.75-.319 1.549.01 2.25 1.056 2.25.835 0 1.519.814 1.519 1.809 0 4.711 2.261 5.623 7.598 3.063 8.076-3.873 22.525-14.065 23.473-16.558 1.102-2.899 2.303-3.068 1.391-.196-.485 1.528-.294 1.998.683 1.685.745-.239 1.78-1.849 2.3-3.578.603-2.005 1.962-3.565 3.75-4.306 2.679-1.109 4.151-3.366 1.555-2.383-.839.318-1.332-.762-1.5-3.281-.496-7.449-.984-9.666-2.219-10.078-1.003-.334-1.005-.575-.009-1.191.792-.489 1.006-1.739.584-3.42-.366-1.456-1.113-2.371-1.66-2.033-.548.339-.872.245-.721-.209.151-.453-.175-.936-.725-1.074s-1 .163-1 .667-.337 1.254-.75 1.666c-.413.413-.75.195-.75-.484 0-.764-.735-1-1.929-.621-1.541.488-2.014.049-2.35-2.183L401.3 46.5l-.15 2.75M58.987 55a41.75 41.75 0 01-.475 3.25c-.184.962.102 1.75.636 1.75.533 0 .692.45.352 1-.34.55-.029 1.007.691 1.015.799.01.92.302.309.75-.55.404-1.813 2.198-2.807 3.985L55.887 70h4.441c5.303 0 8.335-3.305 7.212-7.86-.358-1.452-.633-3.63-.611-4.84.045-2.455-1.449-3.885-2.419-2.316-.345.559-.125 1.016.49 1.016s.81.498.434 1.107c-.477.771-.944.696-1.544-.25-.632-.999-.863-1.027-.875-.107-.025 2.073-2.017 1.406-2.984-1-.558-1.39-.958-1.676-1.044-.75m272.997 8.849c-1.981 1.052-4.515 3.692-5.875 6.12l-2.391 4.271 2.236 4.63c1.23 2.546 4.295 8.101 6.81 12.344l4.574 7.713 3.885-3.509c4.356-3.936 6.556-5.01 12.111-5.915 2.885-.47 3.689-1.001 3.25-2.146-.321-.836-.6-2.496-.619-3.689-.035-2.125-.062-2.121-1.352.205-1.204 2.172-1.357 2.213-1.809.484-.272-1.039-.146-2.782.281-3.873 1.692-4.334.942-7.387-2.835-11.532-6.51-7.145-11.691-8.592-18.266-5.103m-81.728 1.232c-4.796 1.817-10.457 15.826-8.133 20.126.681 1.261 1.373 3.643 1.537 5.293.283 2.839.219 2.896-1.181 1.059-1.231-1.616-1.479-1.67-1.479-.322 0 .891.654 2.274 1.452 3.073.799.798 1.185 1.72.857 2.047-.327.328.142.879 1.042 1.224.901.346 1.418.984 1.149 1.419-.612.991 2.365 2.201 3.575 1.454 1.114-.689.799-5.454-.36-5.454-.468 0-.578-.857-.245-1.904.458-1.445-.068-2.15-2.183-2.921l-2.787-1.017 2.75-.079c1.512-.043 2.75.426 2.75 1.043 0 .78.455.745 1.489-.113.819-.68 1.242-1.635.941-2.122-.301-.488.716-.851 2.261-.808 1.545.043 2.247.306 1.559.583-1.984.801-1.451 2.338.81 2.338 1.705 0 1.982-.493 1.609-2.862-.592-3.754-2.876-8.018-3.42-6.385-.229.686-.855 1.247-1.391 1.247-.537 0-.698-.45-.358-1 .34-.55.055-1-.632-1-.717 0-.477-.566.563-1.326 1.965-1.437 3.087-8.236 1.519-9.205-.523-.323-.95-1.037-.95-1.587s.45-.722 1-.382c1.448.895 1.231-1.069-.25-2.262-.751-.606-2.145-.668-3.494-.157m86.994 1.529c3.834 1.176 1.83 2.819-2.968 2.433-1.22-.098-3.02.289-4 .859-1.677.976-1.679 1.039-.032 1.068.962.016 1.75.48 1.75 1.03s-.675 1-1.5 1-1.5-.477-1.5-1.059-.45-.781-1-.441c-2.181 1.348-.97 3.5 1.969 3.5 2.16 0 2.819.388 2.421 1.427-.4 1.042.013 1.28 1.531.883a2.86 2.86 0 002.158-2.677c.043-1.173.314-1.547.601-.83.391.975.866.849 1.889-.5 1.266-1.669 1.37-1.605 1.399.868.026 2.176-.534 2.794-3.028 3.342-1.997.439-3.392 1.546-4.017 3.188-.791 2.083-1.212 2.304-2.44 1.285-2.428-2.015-1.69.429 1.432 4.738 5.32 7.344 11.375 6.145 15.682-3.106 4.781-10.267 2.133-16.517-7.285-17.197-2.646-.191-4.024-.106-3.062.189m-20.646 10.098c-.365 3.113-1.156 6.252-1.757 6.976-.6.724-.699 1.323-.219 1.331.479.009.266.4-.476.87-.741.469-1.416 2.037-1.5 3.484-.083 1.446-.689 2.63-1.345 2.63-.659.001-1.018.907-.802 2.028.249 1.289-.01 1.779-.712 1.345-.664-.41-.818-.222-.388.473.392.635.28 1.155-.248 1.155-.529 0-1.539 1.463-2.244 3.25-.706 1.787-1.484 3.655-1.731 4.149-.257.517 1.417.597 3.935.189 2.411-.391 7.287-.924 10.835-1.185 7.461-.549 7.662-.646 5.596-2.713-.852-.851-1.562-2.142-1.58-2.869-.02-.829-.579-.598-1.5.62-.807 1.068-1.499 1.743-1.537 1.5-.667-4.272-.629-5.941.137-5.941.513 0 .932-.477.932-1.059s-.463-.773-1.03-.423c-.657.407-.929-.837-.75-3.439.154-2.242.73-4.084 1.28-4.093.55-.009.365-.418-.41-.909-.829-.525-1.602-3.203-1.875-6.503-.619-7.462-1.79-7.85-2.611-.866m169.281 4.143c-1.312 1.018-2.962 1.65-3.667 1.406-.705-.245-2.377.272-3.715 1.149s-3.461 1.639-4.718 1.694c-2.111.092-2.133.149-.285.75 1.656.538 2.033 1.628 2.19 6.344.11 3.273.882 6.749 1.816 8.174 1.454 2.22 1.468 2.781.138 5.354-3.819 7.384-5.593 14.835-4.432 18.616 1.585 5.166 2.542 4.561 3.3-2.088.672-5.899 3.159-13.928 4.586-14.81 1.283-.794 2.207 6.265 1.489 11.372-2.006 14.258-1.876 18.466.808 26.112 1.433 4.084 2.612 8.809 2.62 10.5.009 1.692.452 3.751.985 4.576 1.77 2.739 1.131-3.576-1.532-15.139-2.257-9.799-2.41-11.666-1.407-17.177.619-3.401 1.04-9.109.935-12.684-.605-20.57.378-27.757 3.87-28.295 2.311-.356 2.235-.424-.616-.555-3.976-.183-4.148-1.84-.5-4.826 3.289-2.693 1.56-3.132-1.865-.473M.869 84.191C-.177 86.655.389 97 1.57 97 2.356 97 3 96.127 3 95.059s.45-2.219 1-2.559c.55-.34 1 .027 1 .816 0 1.72 6.309 3.257 6.839 1.666.244-.732.792-.704 1.746.089 1.085.9 1.535.78 2.042-.542.358-.933 1.601-2.118 2.762-2.634 1.866-.829 1.791-.893-.639-.555-2.886.402-3.447-.243-1.717-1.973 1.132-1.132.288-4.367-1.14-4.367-.491 0-.907.563-.923 1.25-.019.768-.391.634-.964-.347C11.832 83.896 6 83.567 6 85.508c0 .756.396 1.619.879 1.917C8.838 88.636 8.858 92 6.906 92 5.858 92 5 91.325 5 90.5S4.55 89 4 89s-1-.873-1-1.941c0-1.612-1.696-3.894-2.131-2.868m216.041 3.977c-1.944 3.633-1.495 14.931.656 16.504.999.73 1.45 1.328 1.003 1.328-.448 0-.249.681.442 1.513.691.832 1.983 1.395 2.872 1.25 1.121-.182 1.515.35 1.283 1.737-.269 1.612-.084 1.758.95.75 2.16-2.103 3.786-1.407 4.669 1.998.535 2.069 1.545 3.355 2.778 3.54 1.875.283 1.878.245.087-1.181-1.018-.811-1.539-1.978-1.158-2.594.38-.615-.291-1.971-1.492-3.013-1.22-1.058-1.867-2.406-1.467-3.054.526-.85.95-.798 1.591.197.546.848.651.198.282-1.733-.566-2.955-.462-3.072 2.358-2.658 2.064.303 3.135-.046 3.562-1.159.358-.933.094-1.593-.638-1.593-.687 0-1.759-1.35-2.382-3-.623-1.65-1.858-3-2.744-3-.991 0-1.843 1.156-2.212 3-.33 1.65-1.02 3-1.534 3s-.656-.45-.316-1-.031-1-.824-1c-1.636 0-2.828-3.441-1.968-5.68.467-1.219.74-1.247 1.507-.154.737 1.049 1.046 1.065 1.447.078.28-.691.92-1.002 1.423-.691.503.311.915.088.915-.494s.338-1.006.75-.941c2.052.324 3.297-.232 2.696-1.205-.369-.598-1.529-.863-2.576-.589-1.048.274-2.54-.137-3.316-.913-2.226-2.226-7.285-1.783-8.644.757m92.105 19.496c-2.116 1.821-2.483 2.935-2.314 7.018.215 5.207 2.182 10.992 3.774 11.101.536.037 1.157.613 1.38 1.281.232.697-.077.917-.725.516-1.588-.981-1.406.07.524 3.015 1.249 1.905 1.858 2.203 2.485 1.215.592-.934.835-.698.846.818.012 1.663.943 2.364 4.259 3.206 4.581 1.163 5.153.914 6.253-2.718.686-2.264.616-2.309-1.406-.892-1.233.863-3.268 1.274-4.832.975-2.432-.465-2.505-.594-.731-1.288 1.867-.729 1.855-.774-.219-.841-1.205-.038-2.5-.57-2.878-1.182-.846-1.369 1.398-2.891 3.228-2.188 2.498.958 1.347-1.19-1.507-2.813-2.608-1.483-2.93-1.483-4.014 0-.985 1.349-1.073 1.204-.534-.887.799-3.101 1.534-3.882 2.116-2.25.246.688 1.543 1.25 2.882 1.25 2.148 0 2.359-.326 1.789-2.75-.356-1.513-.643-2.975-.638-3.25.089-4.546.355-4.904 4.219-5.691 3.839-.782 3.93-.893 2.718-3.309-1.758-3.503-12.736-3.724-16.675-.336m-61.862 6.983c-2.02 2.02-3.134 3.96-2.789 4.858.315.822.137 1.495-.395 1.495-.533 0-.969.949-.969 2.108 0 1.776-.414 2.005-2.621 1.451-1.988-.499-2.968-.163-4.057 1.392-.789 1.127-2.647 2.101-4.129 2.165-1.824.079-2.105.268-.87.587 1.126.292 1.605 1.043 1.25 1.966-.315.822-.573 1.914-.573 2.427 0 .961-5.866 4.894-7.309 4.9-.445.002-.531-.446-.191-.996.94-1.521-.163-1.194-1.929.571-2.916 2.917-1.675-.688 1.998-5.8 4.739-6.597 3.841-6.985-1.918-.829-5.204 5.564-6.372 4.602-1.536-1.266 1.714-2.078 2.853-4.042 2.531-4.363-1.03-1.031-5.553 2.606-7.199 5.789-.877 1.696-1.842 2.836-2.145 2.534-.302-.303.406-2.171 1.574-4.15 2.988-5.064 2.589-6.561-.765-2.877-2.365 2.598-7.111 14.692-7.111 18.122 0 .506 1.125 1.977 2.5 3.269 3.151 2.96 3.132 3.289-.477 8.337-3.813 5.331-6.679 13.733-7.44 21.804-.585 6.212-.528 6.414 2.477 8.741 2.29 1.774 3.365 2.093 4.208 1.25 1.563-1.563 3.225-1.431 1.912.152-.676.813-.726 1.82-.138 2.75.51.806.934 2.565.943 3.907.013 2.141.169 2.245 1.265.84 1.131-1.45 1.906-1.335 8.154 1.207 4.524 1.841 8.804 2.832 12.419 2.875 3.046.036 5.837.587 6.234 1.229.396.641 1.181.879 1.746.53.564-.349 1.261-.069 1.549.622.368.885.973.666 2.051-.744.841-1.1 1.967-2.515 2.503-3.143.535-.629.701-1.417.367-1.75-.333-.334.256-.614 1.31-.622 1.604-.013 1.672-.174.417-.985-.825-.533-1.073-.976-.55-.985.522-.008.41-.555-.25-1.215-1.863-1.863-1.414-2.985.734-1.835 2.46 1.316 6.246 1.435 4.188.131-.758-.48-1.046-1.41-.64-2.067.49-.793 1.419-.074 2.76 2.138 1.751 2.887 3.32 4.547 8.258 8.739.55.467 1.783 1.804 2.74 2.971 2.641 3.221 4.473 2.716 4.088-1.127l-.325-3.25 1.073 2.724c1.057 2.681 1.115 2.697 3.749 1.023 1.471-.935 3.006-2.161 3.41-2.724.404-.563.741.059.75 1.382.014 2.246.133 2.298 1.802.788 1.034-.936 2.671-1.386 3.887-1.068 1.164.304 2.447-.011 2.877-.708.552-.893.28-1.066-.939-.598-1.146.439-1.481.278-1.009-.485.435-.704.263-.869-.448-.429-2.579 1.593-.934-1.049 1.788-2.873 3.615-2.422 4.323-4.796 2.481-8.326-.984-1.886-1.414-2.176-1.418-.956-.003.963-.343 1.753-.756 1.756-.413.004-1.55 1.412-2.528 3.13-1.615 2.838-1.935 2.986-3.5 1.624-.947-.824-2.397-1.27-3.222-.991-.825.28.783-1.703 3.574-4.405 5.057-4.897 8.198-10.769 6.366-11.901-1.505-.93-2.737.336-3.44 3.537-.36 1.637-1.139 3.277-1.733 3.644-.742.459-.851-.396-.347-2.739 1.916-8.908 1.906-9.125-.352-7.715-1.137.71-2.068 1.876-2.068 2.591 0 .773-1.081.297-2.668-1.174-4.443-4.12-6.519-4.053-13.26.424-3.34 2.219-6.072 4.694-6.072 5.501 0 .964-1.029 1.468-3 1.468-2.41 0-3.023.442-3.116 2.25-.078 1.517-.258 1.715-.553.607-.425-1.599-4.122-1.497-5.331.148-.275.374-5.675 1.449-12 2.388-6.325.94-12.738 1.9-14.25 2.133-1.512.233-2.75-.015-2.75-.551s1.012-.971 2.25-.967c2.457.01 13.337-2.413 21.25-4.731 8.409-2.464 18.804-7.789 22.7-11.63 2.036-2.006 4.248-3.647 4.917-3.647.669 0 .953-.263.631-.585-.934-.934 1.347-6.475 2.398-5.825.575.356.488 1.146-.22 1.999-.801.965-.827 1.411-.084 1.411.598 0 1.564-.891 2.147-1.979 1.249-2.334.273-7.301-1.25-6.36-.586.363-.753.171-.379-.434 1.026-1.66-2.44-2.336-12.072-2.354-9.315-.017-12.288-.47-12.288-1.869 0-.474 4.051-1.006 9.002-1.183 4.952-.177 9.002.017 9 .429-.001.412.475.75 1.057.75s.751-.498.375-1.107c-.444-.718-.026-.911 1.191-.548 6.683 1.995 7.317 1.939 8.335-.74.545-1.433 1.564-2.634 2.265-2.668.701-.035.263-.471-.975-.968-2.676-1.076-3.236-5.969-.683-5.969 1.161 0 1.391-.585.888-2.25-.511-1.69-.39-1.976.484-1.149.64.606 2.3.885 3.688.619 3.009-.575 2.687-3.524-.917-8.398-2.199-2.974-2.202-2.975-2.77-.65-.313 1.28-.228 2.47.189 2.643.995.412-.081 3.185-1.236 3.185-.491 0-.893-1.035-.893-2.3s-.479-2.779-1.064-3.364c-1.374-1.374 1.734-4.677 3.693-3.925 1.688.648 1.7.912-.229-4.751-2.11-6.192-3.442-6.74-17.2-7.084l-11.684-.292-3.363 3.363M420 119.99c0 5.754-.465 8.79-1.615 10.545-.888 1.356-1.226 2.472-.75 2.48.476.009.208.431-.595.939-1.256.794-1.211 1.199.315 2.885 3.725 4.117 6.813 3.326 8.173-2.095.379-1.509 1.315-2.744 2.08-2.744.766 0 1.444-.562 1.507-1.25.064-.687.176-1.918.25-2.734.238-2.613 3.633-2.464 3.65.161.013 1.867.206 2.028.985.823.784-1.213.972-1.069.985.75.01 1.476-.587 2.255-1.735 2.265-1.496.013-1.532.157-.25.985.825.533 1.05.976.5.985-.915.014-1.017 1.903-.608 11.265l.142 3.25 2.08-3.249c2.165-3.38 4.68-3.603 2.889-.256-1.629 3.044-1.085 3.684 1.002 1.179 2.12-2.543 4.293-2.138 3.264.608-.549 1.467-.41 1.528.955.419.988-.802 1.829-.924 2.203-.319.333.539.148 1.262-.411 1.608-.559.345-1.002 1.164-.984 1.819.017.655.662.358 1.433-.659 1.577-2.082 3.535-1.421 3.535 1.193 0 1.131 1.55 2.3 4.5 3.393l4.5 1.668v-2.364c0-11.787-6.187-26.826-13.883-33.745-5.046-4.536-6.934-5.213-20.367-7.302l-3.75-.584v8.081m-159.721-4.463c-.961 1.044-.961 1.431 0 1.82.695.282.467.529-.529.574-.962.043-1.75.529-1.75 1.079 0 .55-1.436 1-3.191 1-3.061 0-3.112.064-1.25 1.582 1.608 1.31 1.646 1.489.223 1.043-.945-.296-1.984-.107-2.309.419-.325.526-1.464.956-2.532.956s-1.941.417-1.941.927c0 .509-.696 1.072-1.548 1.25-1.09.227-.055 1.79 3.5 5.285 5.043 4.958 5.048 4.96 5.048 2.128 0-2.355.244-2.632 1.441-1.639.792.657 1.194 1.837.893 2.622-.722 1.882 1.085 1.832 2.666-.073 1.004-1.209.979-1.503-.128-1.515-.913-.011-1.006-.261-.276-.75.879-.59 2.205-3.97 2.838-7.235.053-.275.374-.95.714-1.5 2.701-4.377 1.102-11.201-1.869-7.973m44.758 32.876c-.503 1.321-1.391 2.698-1.975 3.059-.584.361-1.062 1.106-1.062 1.656 0 .55.45.722 1 .382.55-.34 1 .084 1 .941 0 1.862-1.633 2.08-2.315.309-.265-.687-.496-.35-.514.75l-.113 7c-.143 8.921.994 11.658 6.335 15.25 5.565 3.742 8.548 4.078 11.107 1.25.995-1.1 2.363-2 3.04-2 1.708 0 4.147-4.131 3.691-6.25-.208-.963-1.028-1.75-1.823-1.75-.99 0-1.279.71-.917 2.25.739 3.145-.619 4.791-3.361 4.074-1.77-.463-1.992-.818-.965-1.542.893-.63.01-.795-2.665-.5-2.2.243-4.9.085-6-.35-2.05-.811-1.877-.887 3.265-1.424 4.223-.441 6.45-4.311 5.684-9.88l-.677-4.922 4.075.547c5.701.764 7.759-1.608 3.86-4.448-1.495-1.089-2.42-2.46-2.058-3.047.418-.675.179-.77-.649-.258-.843.521-1.067.417-.629-.291.418-.677-.773-1.504-3.095-2.149-5.109-1.419-10-1.331-10.614.19-.403 1-.52 1-.583 0-.134-2.119-2.078-1.382-3.042 1.153M116.54 170c1.52 6.733 1.604 9.854.327 12.106-1.447 2.552-1.564 3.006-1.767 6.894-.104 1.997-.326 2.198-1.1 1-1.03-1.594-1.516.21-1.16 4.308.086.995-.241 1.562-.728 1.261-.873-.54-2.152 2.257-2.607 5.703-.129.974-1.04 2.661-2.024 3.75-1.388 1.532-1.475 1.994-.386 2.048.848.043.612.447-.595 1.021-1.994.947-1.994.949.01.586 2.762-.501 8.316 4.959 5.732 5.635-1.062.278-.669.501 1.008.572 2.941.124 3.731-1.294 1.25-2.246-1.92-.736-1.923-4.063-.007-6.988 4.89-7.462 6.899-27.241 3.469-34.15-1.22-2.456-1.769-3.035-1.422-1.5m187.335 20.433c-.069.862-.238 2.017-.375 2.567-.137.55-.313 1.787-.39 2.75-.121 1.51-.282 1.544-1.17.25-.856-1.247-1.003-1.163-.87.5.301 3.763-.072 4.5-2.32 4.579-1.238.043-1.669.312-.958.597.992.398 1.021.844.127 1.921-.906 1.092-.848 1.403.262 1.403 1.572 0 8.786-6.982 7.265-7.03-.52-.017-.2-.466.711-.998 1.104-.644 1.463-1.719 1.077-3.22-.517-2.006-.398-2.102 1.093-.88 2.054 1.685 2.095 2.563.21 4.449-.805.804-1.279 2.424-1.053 3.598.226 1.174.06 1.917-.37 1.652-.429-.266-.823.06-.875.723-.052.663-.423 2.289-.824 3.612-.58 1.913-.441 2.233.677 1.558 1.137-.685 1.178-.563.21.634-1.016 1.256-.607 1.505 2.698 1.637 3.244.129 3.804-.128 3.353-1.54-.466-1.459-.383-1.486.594-.195 1.01 1.333 1.108 1.333.885 0-.138-.825.234-2.4.827-3.5s1.381-4.782 1.751-8.182l.674-6.183-4.792-.651c-2.636-.359-5.58-.87-6.542-1.135-1.102-.305-1.796.097-1.875 1.084m19.125.299c-3.925.722-5 2.187-5 6.813 0 4.043.213 4.37 3.567 5.477 1.962.648 3.838.906 4.17.574.332-.332 1.652.084 2.933.924 2.716 1.779 3.05.933.669-1.697-.913-1.01-1.427-2.068-1.143-2.353 1.024-1.023 3.892.819 5.294 3.399 1.334 2.455 1.433 2.486 1.47.458.022-1.196-1.125-3.558-2.549-5.25-1.424-1.692-2.185-3.077-1.691-3.077 1.341 0 3.887 2.236 5.125 4.5 1.056 1.931 1.095 1.92 1.125-.295.016-1.263-1.045-3.371-2.36-4.686-2.857-2.857-1.892-3.511 5.222-3.534 3.382-.011 4.255-.283 3.168-.985-1.49-.963-15.218-1.147-20-.268m-194.465 53.211c-.359.581-1.864 1.067-3.344 1.079-4.084.033-10.45 3.308-13.517 6.954-2.355 2.798-3.199 3.176-5.959 2.668l-3.215-.592 3.462 2.974c1.904 1.636 4.042 2.974 4.75 2.974.709 0 1.288.623 1.288 1.383 0 .761.933 1.628 2.074 1.926 1.586.415 1.997 1.198 1.75 3.331-.402 3.462-3.56 4.454-16.147 5.072-5.839.287-9.39.934-10.5 1.913-2.351 2.073-10.662 7.667-17.177 11.561-4.298 2.568-5.063 3.371-3.505 3.671 1.097.211 3.963 1.792 6.368 3.514 8.678 6.209 10.696 7.336 14.352 8.016 4.434.824 4.612 1.059 4.934 6.509l.251 4.252 3.55-.637c3.801-.682 6.05-2.792 6.05-5.677 0-1.451.563-1.671 3.018-1.18 2.508.501 2.912.328 2.393-1.025-.768-2.002 2.756-2.282 4.768-.379 1.956 1.851 9.457 1.389 11.794-.726 2.765-2.501 1.79-3.343-3.461-2.989-2.481.167-4.512-.11-4.512-.615 0-.506-.627-.92-1.393-.92-1.563 0-2.914-2.694-2.051-4.09.309-.501-.309-.91-1.375-.91-5.115 0-3.91-7.989 1.524-10.103 4.591-1.785 15.104-.544 21.081 2.49 6.501 3.3 13.488 9.456 12.792 11.271-.303.789.193 1.375 1.203 1.421 1.044.048 1.228.277.469.583-.687.278-1.25.944-1.25 1.48 0 .537.45.698 1 .358.55-.34 1-.164 1 .39 0 1.46-5.825 5.68-11.02 7.983-4.383 1.943-4.413 1.987-1.385 2.056 13.456.308 60.758-5.175 64.476-7.473 2.079-1.285.625-2.256-5.047-3.371-8.695-1.711-8.764-2.592-1.114-14.188 6.381-9.673 8.448-11.231 6.149-4.636-.617 1.77-.723 3.351-.236 3.513.488.163.674 1.404.415 2.759-.723 3.782 2.201 7.467 5.925 7.467 6.434 0 8.187-8.224 2.587-12.132-1.787-1.247-3.615-2.862-4.061-3.589-.447-.727-1.183-1.092-1.637-.811-1.389.859-1.931-3.324-.576-4.448.699-.58 2.076-.745 3.061-.367 1.094.419 1.549.296 1.171-.317-.342-.552-.891-2.541-1.22-4.42-.538-3.068-2.488-6.569-2.488-4.468 0 .467-1.354-.568-3.009-2.3-3.633-3.802-4.374-3.93-3.746-.649.262 1.374-.098 3.285-.801 4.247-.897 1.227-.968 2.122-.239 3.001.761.916.604 1.253-.583 1.253-.892 0-1.622.394-1.622.874 0 1.754-12.412 14.126-14.172 14.126-.996 0-2.373-.9-3.06-2-.733-1.173-2.332-2-3.869-2-7.978 0-11.809-1.245-14.095-4.581-3.858-5.63-13.694-6.939-18.584-2.473l-2.942 2.687-2.639-2.104c-1.65-1.316-2.639-3.09-2.639-4.736 0-1.447-.625-3.905-1.389-5.462-2.743-5.591-3.59-9.502-2.498-11.543.573-1.069.801-2.57.508-3.334-.294-.765-.103-1.656.423-1.981.526-.325.956.111.956.968s.705 1.559 1.566 1.559c1.119 0 1.476-.786 1.25-2.75-.333-2.896-4.884-4.568-6.281-2.307m203.909 2.404c-1.069.718-3.956 1.408-6.414 1.533-5.051.256-6.128.824-4.027 2.122 1.708 1.055-1.43 4.976-6.503 8.127-4.376 2.718.135 2.607 5.239-.129 4.483-2.403 7.649-2.761 4.702-.532-1.067.808-1.405 1.483-.75 1.5.655.018 1.474-.425 1.819-.984.346-.559 1.047-.758 1.559-.441.512.316.931.072.931-.543s.357-.897.794-.627c1.008.623 8.732-2.797 9.642-4.269.375-.607.205-1.104-.377-1.104s-1.059-.605-1.059-1.345c0-2.72-3.411-4.75-5.556-3.308M.476 328c0 43.175.123 60.838.274 39.25.15-21.587.15-56.912 0-78.5C.599 267.163.476 284.825.476 328" fill="#d3d3d3" fill-rule="evenodd"/></svg>