<svg xmlns="http://www.w3.org/2000/svg" width="500" height="667"><path d="M211.75 290.754L78 291.007v3.857c0 8.657 1.143 13.129 3.386 13.252 1.689.093 1.762.208.364.573-.962.252-1.75.927-1.75 1.501 0 .582.971.789 2.198.468 1.209-.316 2.759-.109 3.444.46.903.75 1.603.463 2.543-1.042.713-1.142 1.949-2.076 2.747-2.076 1.044 0 .907.411-.491 1.468-1.067.808-1.491 1.517-.941 1.577 4.377.476 8.16.506 8.982.07 2.197-1.163 4.6-.771 4.051.66-.388 1.011-.075 1.263 1.037.836.877-.336 1.768-.611 1.98-.611.213 0 .113-.716-.223-1.59-.486-1.268-.023-1.521 2.281-1.25 3.022.355 5.392 1.985 5.392 3.706 0 .555 1.852.983 4.116.952 2.718-.038 3.652-.351 2.75-.922-.962-.609-.549-.87 1.392-.881 2.468-.013 2.633.187 1.565 1.897-1.255 2.009-7.823 3.426-7.823 1.687 0-.554-.535-.464-1.2.201-.66.66-2.235 1.2-3.5 1.2-1.265 0-2.3.43-2.3.955 0 .526 2.7.863 6 .75 3.3-.113 6-.557 6-.986 0-.43 1.575-.676 3.5-.546s3.5.537 3.5.906c0 .916 13.648.608 14.584-.329.412-.413-.451-.75-1.917-.75-1.704 0-2.667-.542-2.667-1.5 0-.825.477-1.5 1.059-1.5s.739-.518.347-1.151c-.495-.801-1.112-.604-2.027.647-.723.989-1.078 2.182-.788 2.651.29.469-.4.853-1.532.853-1.132 0-2.059-.54-2.059-1.2 0-.933-.267-.933-1.2 0-1.703 1.703-2.847 1.486-2.123-.401.338-.88-.014-1.999-.781-2.485-1.069-.676-.907-.887.687-.899 1.146-.008 2.407-.339 2.803-.734.396-.396 1.933-.81 3.417-.92 1.483-.111 4.528-.393 6.767-.628 3.631-.381 4.245-.12 5.703 2.42.899 1.566 2.33 2.847 3.18 2.847.851 0 1.547.45 1.547 1s-.927 1-2.059 1c-1.132 0-1.827.376-1.542.836 1.217 1.97 5.106.513 4.77-1.787-.217-1.482.058-2.027.793-1.572.619.382 1.724.199 2.455-.408 1.415-1.174 4.583-.457 4.583 1.038 0 .491-.9.893-2 .893s-2 .388-2 .861c0 .474 1.125.647 2.5.384s2.5-.823 2.5-1.245c0-1.069 4.938-1.909 5.536-.942.269.435-.305.997-1.274 1.25-.969.253-.273.512 1.547.576 1.82.064 3.062-.283 2.761-.771-.301-.487.112-1.434.919-2.104 1.672-1.388 9.241-.09 8.687 1.489-.178.508.497 1.247 1.5 1.643 2.56 1.009 28.095 1.038 28.716.033.281-.454-2.392-.788-5.941-.741-3.548.046-6.451-.195-6.451-.536s-1.125-.405-2.5-.142c-1.585.303-2.5.022-2.5-.768 0-.886 1.299-1.101 4.482-.742 2.465.278 4.238.111 3.941-.37-.759-1.227.242-1.089 2.721.375 1.694 1 2.208 1 2.57 0 .516-1.425 7.286-1.734 7.286-.333 0 .504-.53 1.093-1.177 1.309-.647.215-.845.929-.439 1.586.505.817 1.301.892 2.523.238 1.166-.624 2.147-.596 2.824.081.571.571 2.103.848 3.404.614 2.213-.396 2.152-.506-.936-1.7-1.816-.702-3.101-1.476-2.857-1.72.953-.953 6.636-1.17 7.19-.274.322.522 1.261.949 2.086.949s1.222-.45.882-1c-.697-1.128.561-1.298 2.918-.393.87.334 1.582 1.286 1.582 2.117 0 1.017.652 1.339 1.999.987 1.099-.288 2.251-.115 2.559.383.836 1.352 2.48 1.094 2.192-.344-.138-.687.313-1.138 1-1 .688.137 1.25-.373 1.25-1.133 0-1.728 4.19-2.928 5.097-1.461 1.176 1.904 23.633 1.392 26.844-.611.931-.581 1.58-.483 1.833.278.216.647 1.297 1.177 2.403 1.177 1.174 0 2.229.838 2.537 2.014.52 1.99.549 1.988 2.398-.144 1.996-2.301 8.344-3.22 10.638-1.54.797.583 1.25.517 1.25-.183 0-.765.777-.802 2.565-.122 3.551 1.35 6.484 1.219 6.185-.275-.137-.687.421-1.101 1.241-.92.82.182 2.282.39 3.25.463.967.073 1.759.487 1.759.92 0 .433 2.011.787 4.469.787 3.403 0 4.341-.331 3.935-1.389-.314-.82-1.43-1.204-2.719-.938-1.996.413-1.969.32.315-1.075 2.425-1.481 2.434-1.528.309-1.563-2.385-.038-3.768-1.483-2.846-2.975.349-.565 1.868-.43 3.809.339 1.775.703 4.917 1.172 6.982 1.042 2.065-.13 4.004.168 4.309.662.305.493-1.073.897-3.063.897-1.99 0-3.364.412-3.053.915.311.503.012 1.099-.665 1.324-.677.226-.23.672.994.992 1.223.32 2.224.147 2.224-.384s.419-.706.931-.39c.512.317 1.227.096 1.589-.489.463-.749 1.05-.74 1.98.032.967.803 1.521.775 2.064-.103.421-.682.005-1.739-.964-2.448-2.336-1.708-.45-2.303 5.9-1.863 4.061.281 4.436.187 2-.502l-3-.847 3.25-.119c1.788-.065 3.25.332 3.25.882s1.35 1 3 1 3-.45 3-1 .477-1 1.059-1 .781.45.441 1 .357 1 1.548 1c1.514 0 1.993-.451 1.59-1.5-.347-.905-.005-1.5.862-1.5.826 0 1.207.6.896 1.41-.743 1.938 3.567 3.267 4.694 1.447.935-1.512 37.886-2.064 41.099-.614.929.419 1.916.396 2.193-.052.276-.447 1.878-.718 3.558-.602 2.053.142 2.844-.166 2.411-.939-.465-.83-.291-.824.624.022 1.494 1.38 4.31.598 3.363-.934-.431-.697.163-.801 1.756-.309 1.323.409 3.218.731 4.21.715.992-.015 2.021.541 2.288 1.235.303.79 1.647 1.093 3.588.808 1.88-.276 2.865-.069 2.498.525-.802 1.298-6.56 1.422-8.859.191-2.283-1.222-2.436.337-.248 2.526 1.813 1.812 3.051 1.992 3.929.571.34-.55 1.699-1 3.02-1s3.248-.907 4.281-2.017c2.091-2.244 6.07-2.286 7.796-.082.765.978 1.305 1.067 1.782.294.377-.609 1.346-.854 2.153-.544.807.309 1.468.117 1.468-.427 0-1.344 3.476-2.166 5.049-1.194 2.882 1.782 3.951-.149 3.951-7.137V292l-4.25-.006c-12.385-.017-97.472-1.139-98.75-1.303-.825-.105-61.687-.077-135.25.063m60.051 35.874c-1.266 1.266-2.259 1.416-4.465.676-1.56-.524-10.036-.791-18.836-.594-8.8.197-22.975.455-31.5.574-8.525.119-16.067.583-16.759 1.031-.692.448-2.219.509-3.392.137-2.81-.892-17.82-1.214-17.299-.372.496.803-7.513 1.963-12.44 1.802-3.587-.118-3.591-.123-.61-.772 2.4-.522 2.7-.848 1.5-1.631-1.653-1.079-76.851-1.049-85.789.034l-5.289.641.159 9.4c.095 5.613.614 9.757 1.289 10.287.621.487 6.755 1.174 13.63 1.527 7.167.368 12.648 1.084 12.847 1.678.212.634.796.686 1.5.135.634-.496 11.053-1.47 23.153-2.165 12.1-.695 23.35-1.372 25-1.506 1.65-.134 5.212-.303 7.917-.377 8.199-.222 4.252-1.399-5.642-1.682-10.345-.296-12.323-.599-13.845-2.121-.732-.732-.126-1.016 2.008-.939 1.682.06 3.058.374 3.06.697.004 1.094 7.407.875 8.095-.239.393-.636 1.244-.759 2.003-.29 2.338 1.446 6.116 1.372 7.636-.148 1.076-1.076 1.832-1.187 2.77-.409 1.503 1.247 6.927 1.39 21.498.566 5.775-.326 12.075-.582 14-.568 2.658.019 3.139-.215 2-.972-1.3-.865-1.278-.999.167-1.013.916-.008 1.873.548 2.125 1.235.366 1 .723 1 1.783 0 1.804-1.702 3.915-1.569 6.071.382 1.62 1.466 2.037 1.478 4.109.121 3.553-2.329 10.418-2.111 11.062.351.41 1.567 1.103 1.861 3.35 1.421 2.303-.452 2.459-.379.833.389-1.746.826-1.606.954 1.11 1.016 1.711.038 5.269.366 7.907.727 3.6.494 4.611.359 4.055-.54-.407-.659-1.565-.937-2.572-.617-2.084.661-3.218-.529-2.15-2.258.967-1.564 23.173-2.824 24.074-1.365.591.957 19.62 1.301 47.576.86 4.4-.07 16.1-.034 26 .079 22.316.255 29.153-.834 16.823-2.68-4.498-.673-10.409-.928-13.136-.566-2.98.395-5.702.225-6.823-.426-1.704-.99-1.714-1.086-.114-1.114.962-.016 1.75-.399 1.75-.849 0-.839 2.783-.795 18.5.293 12.195.845 16.054 1.557 14.349 2.651-.825.529 1.368.834 5.651.787 3.85-.042 8.125.207 9.5.554 3.069.774 31.2 1.678 28.738.923-.969-.297-1.465-1.022-1.101-1.611.441-.714-.221-.848-1.991-.404-3.09.776-21.646-.357-21.646-1.321 0-.906 15.453-3.053 21.969-3.053 6.961 0 6.155-.769-1.232-1.174-3.155-.173-5.737-.623-5.737-1.001 0-.378-8.887-.685-19.75-.683-10.863.003-22.225-.192-25.25-.432-3.025-.24-6.062.007-6.75.549-.858.677-1.25.597-1.25-.253 0-.838-.889-1.035-2.75-.607-3.853.886-38.096.814-39.548-.083-.656-.406-4.486-.639-8.511-.519-4.48.134-7.088-.155-6.725-.743.941-1.522-7.33-3.431-14.716-3.397-3.712.017-6.75-.349-6.75-.813 0-1.337-1.429-.987-3.199.784m77.699-.34c-4.4.492-10.925.778-14.5.633-9.14-.369-13.954-.357-18 .045-1.925.191-7.775.076-13-.257-5.225-.332-8.6-.376-7.5-.098 1.1.278 2.675.797 3.5 1.153.825.355 9.6.696 19.5.758 9.9.061 19.575.446 21.5.855 2.714.577 3.163.489 2-.391-1.158-.877-.589-.973 2.5-.42 2.2.393 5.901.843 8.225 1 2.324.157 4.687.57 5.25.919.564.348 1.025.228 1.025-.267 0-.496 5.962-.892 13.25-.881 21.351.031 41.748-.773 41.749-1.646.001-.445.459-.526 1.019-.18 1.259.778 30.778 1.504 32.607.803 1.042-.4 1.063-.754.099-1.661-1.336-1.259-54.623-1.451-56.64-.205-.596.369-1.087.306-1.091-.139-.011-1.109-31.633-1.126-41.493-.021m79.55 9.454c-2.886.255-3.979.684-3.109 1.221.761.471-1.64.683-5.55.491-3.79-.186-5.799-.098-4.464.196 1.334.295 3.359 1.111 4.5 1.815 3.176 1.96 31.073 1.511 31.073-.5 0-1.019-1.978-1.813-6.5-2.607-6.789-1.193-8.612-1.263-15.95-.616M144.8 356.534c-.332.331-4.022.616-8.2.632-4.252.017-7.352.427-7.039.932.306.496 1.711.902 3.12.902 2.243 0 2.397.201 1.228 1.61-.843 1.015-1.473 1.197-1.708.493-.204-.613-.896-.776-1.536-.362-.641.414-4.159.791-7.818.838-6.317.08-9.838 1.545-9.851 4.1-.003.451-1.578.902-3.5 1-2.704.138-3.478-.201-3.417-1.5.054-1.152.245-1.263.608-.356.403 1.009 1.037.854 2.671-.65 1.178-1.085 3.042-2.197 4.142-2.47 1.1-.273-.25-.365-3-.204-2.75.16-6.125.733-7.5 1.272-3.7 1.451-13.36 2.621-12.69 1.537.311-.503-1.044-.961-3.01-1.017-1.967-.055-4.624-.661-5.904-1.347-2.764-1.479-5.413.069-4.878 2.85.181.938.363 2.237.405 2.886.043.65 1.09 1.357 2.327 1.572 2.165.376 2.146.435-.5 1.545-2.363.991-2.75 1.729-2.75 5.237 0 2.468.396 3.839 1 3.466.55-.34 1-.179 1 .358 0 .536-.562 1.207-1.25 1.491-.84.346-.353 1.337 1.484 3.021 2.596 2.38 2.633 2.537.735 3.14-1.099.349-1.74 1.052-1.425 1.562.316.51.067.928-.552.928-.655 0-.872.802-.519 1.916.335 1.054.218 2.157-.259 2.452-.477.295-.969 3.047-1.094 6.116l-.225 5.581 2.802-.651c2.705-.629 2.733-.596.803.935-1.1.873-1.607 1.602-1.128 1.619.48.018.284.741-.435 1.608-1.084 1.307-1.063 1.732.127 2.485.79.5.933.915.319.924-1.798.024-3.125 9.272-3.21 22.357-.043 6.687-.33 17.333-.638 23.658-.307 6.325-.799 17.35-1.093 24.5-.293 7.15-.699 15.025-.901 17.5-.203 2.475-.663 11.614-1.023 20.308-.36 8.694-.797 16.569-.971 17.5-.174.931-.643 9.862-1.043 19.847-.881 22.006-2.047 20.529 15.656 19.837 6.787-.266 36.19-.702 65.34-.971 53.786-.496 95.24-1.185 121.5-2.02 7.975-.253 39.7-.913 70.5-1.466 30.8-.553 62.75-1.221 71-1.484 8.25-.264 22.097-.496 30.771-.515 15.605-.036 15.783-.061 16.851-2.405.787-1.726.655-8.989-.482-26.75-.859-13.41-1.829-30.456-2.156-37.881-.326-7.425-.773-16.875-.994-21-.221-4.125-.654-17.85-.964-30.5-.891-36.394-1.212-39.208-5.03-44.209-1.775-2.325-3.513-3.941-3.862-3.592-.349.349-.634.061-.634-.639 0-.722.651-1.024 1.5-.698.825.316 1.5.202 1.5-.255 0-.456 1.17-.606 2.601-.332l2.601.497-.727-8.886c-.4-4.887-1.121-9.036-1.601-9.219-.481-.184-.874-.773-.874-1.309 0-.537.45-.698 1-.358.616.381 1-1.323 1-4.441 0-2.782-.375-5.059-.833-5.059-.968 0-.891-3.02.119-4.654.741-1.198-.662-2.634-3.599-3.684-.998-.356-1.534-1.101-1.191-1.655.342-.554-.08-1.007-.937-1.007-.857 0-1.559.516-1.559 1.146 0 .63-1.056.007-2.347-1.386-2.496-2.694-10.653-4.874-10.653-2.848 0 .598-1.238 1.102-2.75 1.12-2.522.029-2.603.143-.971 1.382 1.599 1.212 1.616 1.412.169 1.968-2.941 1.128-4.952.642-6.305-1.524-1.225-1.962-1.161-2.096.76-1.594 2.416.632 2.746-.758.671-2.833-1.873-1.872-4.574-.77-4.574 1.867 0 2.001-.054 2.01-1.358.228-1.319-1.805-1.388-1.804-2.469.058-1.073 1.848-1.246 1.669-1.538-1.584-.187-2.079-8.666-1.452-10.385.768-.873 1.128-1.25 1.22-1.25.306 0-.815-.753-1.11-2-.784-1.1.287-2 .092-2-.434 0-.564-1.744-.68-4.25-.284-7.555 1.195-28.216.494-30.7-1.041-.453-.28-1.389.172-2.08 1.005-1.07 1.29-1.495 1.311-2.863.142-1.003-.857-3.298-1.246-6.107-1.036-2.475.184-5.175.368-6 .409-4.375.213-9 1.228-9 1.974 0 .467 1.645.582 3.655.256 2.629-.426 3.455-.268 2.941.563-.76 1.231 1.584 1.643 2.745.482.958-.958 5.659-1.049 5.659-.109 0 .431-.477.783-1.059.783s-.803.414-.49.92c.325.527-1.453.784-4.157.602-2.6-.175-4.883-.789-5.075-1.364-.396-1.189-3.359-.345-4.427 1.261-.489.733-1.095.678-1.95-.177-.794-.794-.851-1.242-.159-1.242.596 0 1.319-.9 1.607-2 .516-1.974-1.107-2.613-5.184-2.042-.766.108-1.749-.381-2.184-1.085-.642-1.039-1.254-1.033-3.238.028-1.345.72-3.361 1.019-4.481.664-1.119-.356-2.328-.172-2.686.407-.409.663-1.248.718-2.264.15-1.079-.604-2.076-.442-3.005.487-1.818 1.818-3.248 1.77-3.248-.109 0-.825-.45-1.5-1-1.5s-.888.51-.75 1.134c.14.635-1.177 1.217-3 1.324-1.788.104-3.25-.293-3.25-.884 0-.697-2.371-.941-6.75-.696-3.712.208-17.55.577-30.75.82-48.55.894-74.132 1.293-79.404 1.241-2.972-.03-6.726.494-8.342 1.163-2.409.998-3.116.963-3.922-.192-.756-1.082-1.102-1.119-1.491-.16-.279.688-1.483 1.243-2.674 1.235-1.806-.013-1.917-.193-.667-1.08 1.126-.799.462-.946-2.658-.592-2.286.259-4.61.019-5.162-.533-.553-.553-1.562-.662-2.242-.242-1.863 1.152-13.259 1.297-14.688.187-.834-.647-1.25-.596-1.25.153 0 .617-1.463 1.09-3.25 1.052-2.724-.059-2.926-.21-1.25-.93 1.1-.473 1.55-.964 1-1.093-.55-.128 1.475-.497 4.5-.82 3.025-.323 5.411-1.037 5.303-1.587-.232-1.175-2.633-1.837-3.503-.966m219.876 37.716c.78 1.229.95 1.761 1.199 3.75.207 1.659 1.946 1.124 2.436-.75.435-1.667.463-1.667.573 0 .064.962.566 1.75 1.116 1.75 1.953 0 .96 2.862-1.652 4.765-2.898 2.111-2.427 4.712.674 3.728 1.019-.323 2.762-.021 3.872.673 1.933 1.207 1.885 1.305-1.112 2.297-1.723.571-3.29 1.522-3.483 2.115-.417 1.28 4.443 3.699 5.776 2.876.509-.315.925-.027.925.64s.857.224 1.905-.984c1.4-1.615 2.562-2.031 4.39-1.572 2.279.572 2.465.366 2.241-2.478-.134-1.705-.535-3.392-.89-3.747-1.046-1.046-.74-4.819.49-6.049 1.395-1.395-1.085-4.264-3.687-4.264-1.392 0-1.472.267-.449 1.5 1.073 1.293.666 1.5-2.94 1.5-3.388 0-4.152-.334-4.008-1.75.385-3.785.001-4.209-3.302-3.641-2.475.426-2.892.305-1.75-.509 1.24-.884 1.1-1.072-.809-1.085-1.606-.01-2.067.366-1.515 1.235m-137.94.348c-1.355 1.354.674 3.402 3.371 3.402 1.973 0 2.893.504 2.893 1.583 0 .871-.562 1.385-1.25 1.143-2.464-.869-6.957 3.314-6.313 5.878.496 1.975.039 2.588-2.821 3.783-1.876.784-3.848 2.206-4.382 3.16-.534.953-1.48 1.419-2.102 1.034-1.665-1.028-1.379-4.581.368-4.581.855 0 1.5-.899 1.5-2.09 0-1.149 1.012-2.934 2.25-3.966 1.334-1.113 1.712-1.891.928-1.911-.75-.019-1.242-1.006-1.139-2.283.287-3.546.003-4.365-.978-2.814-.79 1.247-1.14 1.247-2.672 0-1.577-1.284-1.692-1.245-1.088.366.406 1.082.281 1.558-.312 1.191-.544-.336-.989-.172-.989.365 0 .536.563 1.212 1.25 1.501.868.364.656.897-.695 1.742-1.07.669-2.966 2.318-4.214 3.665-2.088 2.253-2.398 2.32-3.883.835-2.711-2.712-5.293-3.68-7.999-3.001-2.064.518-2.689.236-3.119-1.407-.326-1.246-1.089-1.843-1.939-1.517-2.279.875-1.602 3.09 1.233 4.035 2.482.828 2.536.977.929 2.584-.938.938-2.622 1.705-3.741 1.705-1.553 0-1.861.415-1.3 1.75.405.962.819 2.528.92 3.48.335 3.153 1.51 3.114 2.859-.095.733-1.743 1.64-2.861 2.016-2.485.376.376.697.046.715-.733.057-2.567 2.454-4.856 4.026-3.845 1.249.804 1.241 1.06-.058 1.913-1.003.658-1.086.989-.25 1 .688.008 1.25.652 1.25 1.432 0 .779.563 1.643 1.25 1.921.747.301.545.536-.5.583-.963.043-1.75.499-1.75 1.012 0 1.664 4.056 2.283 13.873 2.12 5.295-.089 12.386-.11 15.758-.048 5.475.1 6.35-.165 8.171-2.48 1.188-1.511 2.305-2.161 2.677-1.559 1.165 1.884 2.343 1.071 1.763-1.216-1.023-4.034-3.213-6.57-5.22-6.045-1.49.389-1.776.071-1.362-1.514.289-1.103 1.351-2.222 2.36-2.486 1.143-.299 1.703-1.184 1.485-2.343-.194-1.024-.386-2.199-.428-2.612-.043-.413-.801-.75-1.685-.75-1.23 0-1.456.608-.961 2.581.532 2.118.327 2.52-1.142 2.24-.984-.188-1.919-1.237-2.078-2.331-.369-2.541-5.931-5.437-7.475-3.892m109.182 1.249c1.161 2.169-.329 4.153-3.118 4.153-2.578 0-2.373 4.037.24 4.721 1.913.5 1.937.647.379 2.369-.914 1.009-1.396 2.527-1.072 3.373.325.845.154 1.537-.378 1.537-1.65 0-2.48-.468-2.219-1.25.137-.413-.762-.786-2-.829-1.238-.043-1.685-.307-.994-.585.691-.279 1.028-.876.749-1.328-.657-1.063-4.505-.066-4.505 1.168 0 .518.399.696.886.394.488-.301 1.121.347 1.407 1.441.286 1.094.112 1.989-.387 1.989-1.413 0-.58 2.421 1.094 3.18 2.918 1.322 8.259.848 9.495-.842.858-1.173 1.774-1.415 3.11-.821 2.736 1.215 5.395 1.357 5.395.287 0-.507.457-.639 1.016-.294.559.346.755 1.052.434 1.57-.34.551 1.317.834 3.983.681 2.511-.143 4.566-.539 4.566-.88.001-.34 1.331-.464 2.957-.274 1.626.189 3.257-.143 3.625-.738.464-.751.903-.704 1.432.152.42.68 1.246.937 1.836.572 1.709-1.056-1.762-4.429-3.965-3.852-1.458.381-1.884-.049-1.884-1.905 0-2.582-4.81-5.23-7.573-4.17-.785.302-1.427-.005-1.427-.681 0-.895-.354-.936-1.298-.152-.967.802-2.028.45-4.156-1.378-1.571-1.35-3.161-2.455-3.532-2.455s-.622-1.575-.558-3.5c.101-3.028-.197-3.5-2.205-3.5-1.947 0-2.162.298-1.333 1.847m51.253.182c-2.981 1.429-3.159 1.736-1.704 2.944.893.741 1.393 1.95 1.11 2.687-.283.737-.191 1.34.204 1.34.654 0 1.027 2.226 1.24 7.41.044 1.051-.502 2.269-1.213 2.708-.849.525-.952 1.126-.3 1.754 1.784 1.72 5.924 1.551 9.492-.387 1.925-1.046 3.725-1.981 4-2.078.275-.097 1.492-.5 2.704-.896 2.125-.694 2.144-.813.522-3.289-1.243-1.897-1.362-2.677-.455-2.979 1.691-.564 1.555-3.243-.164-3.243-.766 0-1.663-.704-1.993-1.563-.991-2.584-2.676-.534-1.952 2.374.596 2.393.491 2.542-.952 1.353-.892-.735-2.06-1.066-2.594-.736-1.21.748-2.496-3.004-1.552-4.531.381-.616.072-1.513-.686-1.993-1.879-1.191 2.609-1.198 6.745-.012 1.71.49 3.667.547 4.35.125 4.072-2.517-11.679-3.443-16.802-.988m-90.117-.084c-1.109.702-.519 1.285 2.541 2.509 4.242 1.698 7.149 6.402 5.174 8.377-.547.547-.676 1.511-.286 2.142.492.795 1.134.592 2.094-.663 1.207-1.577 1.514-1.617 2.389-.31.673 1.007 1.008 1.089 1.019.25.008-.687.775-1.25 1.704-1.25 1.432 0 1.362.304-.459 2-1.18 1.1-2.615 2-3.188 2-1.639 0-1.218 2.532.708 4.26 3.538 3.176 9.015 3.286 11.839.238 2.692-2.905 2.609-5.895-.135-4.842-1.3.499-1.357.79-.288 1.468 1.022.647.924.849-.416.861-1.067.009-1.75-.738-1.75-1.914 0-1.06-.762-2.69-1.693-3.621-1.591-1.591-1.546-1.803.75-3.501 6.949-5.141 6.608-4.699 3.632-4.699-1.479 0-2.689.345-2.689.767 0 .933-5.026 2.291-5.76 1.556-.289-.289.044-1.211.74-2.049 1.063-1.281.939-1.524-.774-1.524-1.122 0-2.189.433-2.373.961-.513 1.48-8.833-.953-8.833-2.583 0-1.575-1.824-1.775-3.946-.433m-179.512 2.784c-2.116.538-6.784 3.362-6.322 3.824.156.156 2.724-.35 5.709-1.124 5.134-1.332 7.739-1.154 5.49.375-1 .68-4.419 7.366-4.419 8.641 0 .353.563.57 1.25.48 2.929-.38 5.75.147 5.75 1.075 0 .55-.675 1-1.5 1-.833 0-1.5.889-1.5 2 0 1.1.645 2 1.433 2s1.718-.9 2.067-2c.349-1.1 1.449-2 2.445-2 2.034 0 4.391 2.331 3.38 3.342-.362.362.092.658 1.008.658.917 0 1.667-.499 1.667-1.109 0-1.114 3.905-.854 9 .598 6.313 1.8 8.342 1.846 7.7.173-.531-1.386.044-1.536 4.091-1.067 4.385.508 4.576.438 2.782-1.015-3-2.428-1.082-3.016 2.119-.649 3.99 2.95 11.97 2.378 11.495-.824-.223-1.502.43-2.391 2.269-3.09 2.286-.869 2.438-1.213 1.327-2.992-.793-1.27-1.904-1.804-3.019-1.45-.97.308-1.764.079-1.764-.508s.477-1.067 1.059-1.067.781-.45.441-1c-.975-1.578-3.509-1.188-2.883.444.585 1.524-3.135 1.889-5.117.503-.55-.385-1.9-.337-3 .106-1.1.444-1.385.838-.633.877.827.042 1.175.803.88 1.928-.267 1.022-.089 2.567.396 3.433.538.962.485 1.821-.138 2.206-.56.346-1.302-.107-1.648-1.008-.415-1.083-1.351-1.456-2.765-1.101-1.661.416-2.431-.126-3.451-2.432-1.261-2.848-3.608-3.335-2.529-.525.649 1.692-1.222 3.01-2.147 1.512-.428-.692-1.218-.312-2.166 1.04-1.645 2.349-5.799 2.439-5.799.126 0-1.158 1.012-2.04 4.351-3.793 1.194-.627-2.643-2.922-4.203-2.514-1.172.307-2.537-.283-3.53-1.526-.89-1.114-2.934-2.335-4.543-2.714-2.564-.603-2.766-.497-1.636.864.708.854 1.579 1.372 1.935 1.152.357-.221 1.458.191 2.447.915 1.193.872 1.427 1.545.695 1.997-.607.375-1.723.168-2.479-.459-1.061-.881-1.591-.757-2.316.539-.812 1.451-1.029 1.33-1.583-.878-.354-1.407-1.542-2.844-2.64-3.193-1.099-.348-1.998-1.053-1.998-1.566 0-.965-4.028-1.075-7.458-.204m131.229 2.796c-1.47 2.954-1.507 3.475-.25 3.475.814 0 1.479.675 1.479 1.5s.563 1.387 1.25 1.25c.688-.137 1.205.313 1.15 1-.055.688-.167 2.202-.25 3.367-.119 1.681-.654 2.02-2.6 1.648-1.548-.296-2.652.059-3 .965-.982 2.559-1.809 2.379 10.45 2.275 4.387-.037 10-1.827 10-3.19 0-.566-.675-.77-1.5-.453-1.02.391-1.5-.054-1.5-1.393 0-1.083.45-1.969 1-1.969s1-.661 1-1.469c0-.894.586-1.243 1.5-.893.825.317 1.5 1.653 1.5 2.969 0 2.696 1.473 3.208 2.386.83.867-2.259 2.614-.762 2.614 2.239 0 2.065.385 2.457 1.999 2.035 1.099-.288 2.256-.108 2.569.399.314.508 1.009.652 1.545.32.536-.331 1.517-.22 2.181.247.663.466 2.106.797 3.206.734 1.1-.063 3.264-.182 4.809-.263 1.59-.084 2.541-.582 2.191-1.148-.34-.55.309-1 1.441-1 1.132 0 2.059-.45 2.059-1s.73-1 1.622-1c1.313 0 1.39-.28.406-1.466-.669-.807-1.001-2.044-.737-2.75.296-.79.847-.351 1.43 1.137.63 1.607 1.196 2.022 1.683 1.234.404-.653 1.183-.91 1.731-.571.615.379.876-.831.681-3.155-.256-3.057-.929-4.113-3.554-5.573-3.196-1.778-6.262-1.598-6.262.368 0 .555-.9.774-2 .486-1.1-.287-2-.088-2 .443s-.45.687-1 .347c-.55-.34-1 .095-1 .966 0 2.513-4.899 3.929-8.798 2.542-2.267-.806-3.685-.852-4.534-.147-1.52 1.261-3.473.145-5.008-2.864-.638-1.25-1.502-2.201-1.92-2.115-.419.087-1.994-.471-3.5-1.241-1.803-.922-3.509-1.11-4.99-.553-1.696.639-2.25.486-2.25-.62 0-3.18-5.386-1.647-7.229 2.057M425 401c0 .55.675 1 1.5 1 1.779 0 1.985 1.582.338 2.6-.66.408-1.973-.283-3.04-1.601-2.68-3.31-4.796-1.171-2.424 2.45 1.455 2.22 1.474 2.551.149 2.551-2.223 0-1.874 1.135 1.148 3.731 1.469 1.263 3.381 2.091 4.25 1.841 2.961-.852 7.575-.936 9.851-.179 3.484 1.159 8.228-.219 8.228-2.389 0-1.011.436-1.987.968-2.171.593-.204.617-.899.061-1.793-.782-1.259-1.167-1.225-2.793.246-2.295 2.077-5.772 2.379-9.6.833-2.446-.987-2.779-.934-2.282.362.321.836.147 1.519-.385 1.519-.533 0-.969-1.125-.969-2.5s.45-2.5 1-2.5 1-.675 1-1.5c0-1.374-1.221-1.959-3.324-1.594-.454.079-.54-.318-.191-.881.354-.573-.275-1.025-1.426-1.025-1.132 0-2.059.45-2.059 1m-320.68 1.072c-.649.653-2.899 1.378-5 1.609-2.101.231-4.212.812-4.692 1.292-.479.479-1.492.633-2.25.342-.784-.301-1.378.102-1.378.933 0 .805-1.427 1.872-3.172 2.372-3.942 1.131-4.415 2.397-1.956 5.232 2.349 2.709 9.128 3.928 9.128 1.642 0-.842-.899-1.494-2.059-1.494-1.132 0-1.813-.399-1.511-.886.301-.488-.46-1.22-1.691-1.627l-2.239-.741 2.444-.468c1.575-.301 2.891.144 3.702 1.252.755 1.033 1.917 1.468 2.907 1.088 1.012-.388 2.552.236 3.984 1.614 3.651 3.514 13.108 3.355 14.973-.251.756-1.462.992-3.169.54-3.901-.443-.716-.63-2.264-.417-3.441.225-1.239-.249-.771-1.125 1.111-2.048 4.398-5.35 4.53-4.712.188.361-2.461.044-3.167-1.62-3.602-1.138-.298-2.205-1.196-2.372-1.997-.235-1.124-.573-1.185-1.484-.267" fill="#d3d3d3" fill-rule="evenodd"/></svg>