<svg xmlns="http://www.w3.org/2000/svg" width="500" height="667"><path d="M64.264 90.66c.724 34.692 1.712 111.23 1.789 138.575.063 22.266.284 25.854 1.638 26.612 1.079.604 1.215 1.093.437 1.574-.62.383-1.128 1.795-1.128 3.138 0 2.025.492 2.441 2.893 2.441 1.591 0 3.135.631 3.431 1.402.739 1.927-.163 2.598-3.491 2.598-1.852 0-2.833.52-2.833 1.5 0 .825.506 1.388 1.125 1.25.619-.137 1.331.313 1.584 1.001.293.801-.111 1.032-1.125.643-1.136-.436-1.584-.012-1.584 1.499 0 2.624.472 2.635 3.036.071 1.939-1.939 4.633-1.856 3.421.105-.316.512.127.931.984.931s1.559.477 1.559 1.059-.403.81-.895.506c-.493-.305-1.151.112-1.463.925-.339.884.281 1.934 1.542 2.608 1.857.994 2.047.892 1.589-.858-.417-1.594-.1-1.909 1.604-1.593 2.049.38 2.053.361.123-.556-1.907-.906-1.893-.954.309-1.021 1.27-.038 2.047-.493 1.728-1.01-.32-.518.376-1.833 1.547-2.924 1.171-1.09 1.829-2.467 1.463-3.059-.984-1.593 1.016-1.308 2.384.339.934 1.126.805 1.5-.628 1.821-.992.222.758.428 3.888.458 3.946.038 5.853-.367 6.219-1.32.77-2.007 2.277-1.68 2.88.625.57 2.181 2.705 2.77 2.718.75.009-1.449 4.859-3.95 6.132-3.163.473.292.86-.139.86-.958 0-1.185.624-1.31 3.052-.614 2.176.624 3.188.522 3.524-.354.26-.676 1.653-1.327 3.097-1.446s3.227-.717 3.963-1.328c.736-.611 2.019-.85 2.851-.53.832.319 1.513.158 1.513-.357s.629-.696 1.399-.4c.769.295 1.696.056 2.059-.532.363-.587 1.533-1.068 2.601-1.068s1.941-.378 1.941-.839c0-1.429 5.343-3.488 8.5-3.276 2.422.163 2.711-.015 1.5-.923-1.19-.892-.932-1 1.25-.524 1.67.365 2.75.177 2.75-.478 0-.593.45-.8 1-.46s1 .124 1-.479 1.012-1.01 2.25-.903c5.018.431 9.844-.156 9.246-1.125-.906-1.466 2.434-2.463 3.771-1.126 1.778 1.778 3.683 1.335 4.804-1.117 1.127-2.469 6.835-3.433 8.148-1.377.526.823 1.279.78 2.791-.157 1.139-.706 2.483-1.029 2.987-.718.503.311 2.565-.124 4.581-.966 2.016-.843 4.736-1.532 6.044-1.532 1.487 0 2.378-.584 2.378-1.559 0-.857.458-1.276 1.018-.93s2.526-.302 4.368-1.441c1.843-1.138 4.084-2.07 4.982-2.07.898 0 1.632-.45 1.632-1s.9-1 2-1 2 .44 2 .979c0 .587 1.028.51 2.574-.195 1.953-.89 3.021-.893 4.429-.014 1.02.637 1.999.748 2.176.247.176-.501 1.858-1.18 3.737-1.508 1.879-.328 3.753-.805 4.166-1.06.413-.255 1.976.003 3.474.572 2.13.81 3.095.699 4.428-.506.962-.872 4.063-1.685 7.128-1.87 2.984-.18 6.36-.827 7.502-1.438 3.03-1.622 7.275-2.459 12.386-2.441 2.475.008 3.935-.199 3.244-.461-2.537-.961-.177-2.038 2.989-1.365 3.104.66 4.009.457 8.808-1.974 1.122-.569 2.384-.822 2.804-.562 1.313.812 9.354-1.399 14.516-3.992 2.836-1.424 6.054-2.312 7.543-2.081 2.867.445 10.742-1.444 17.411-4.177 1.548-.635 3.659-1.154 4.691-1.154s2.173-.481 2.536-1.068c.363-.588 1.196-.863 1.851-.611.655.251 2.045-.168 3.09-.932s2.713-1.389 3.708-1.389c.995 0 1.809-.498 1.809-1.107 0-.611.728-.828 1.627-.483.894.344 2.313.054 3.153-.643.84-.697 2.47-1.357 3.623-1.468 2.104-.201 5.367-.793 9.097-1.651 6.199-1.426 8.264-2.061 10.719-3.298 1.495-.753 3.97-1.506 5.5-1.673 1.53-.167 3.906-.801 5.281-1.409 3.651-1.614 6.247-2.52 8.422-2.938 1.056-.203 2.553-.894 3.326-1.536 1.075-.892 1.585-.874 2.173.078.883 1.428 5.424.62 8.552-1.521 1.084-.743 2.942-1.351 4.127-1.351 1.185 0 2.711-.67 3.391-1.489.68-.819 1.608-1.259 2.063-.978.455.281 1.726-.454 2.826-1.634 1.453-1.561 2.681-1.975 4.498-1.519 1.375.345 2.786.164 3.136-.403.35-.566 1.165-.946 1.811-.843.646.103 2.409-.323 3.916-.946 2.886-1.192 5.759-.672 5.759 1.041 0 .617.551.559 1.403-.148 1.077-.894 1.523-.865 1.921.127.285.711.554-23.286.597-53.326L437 75.264l-105.25.118c-70.017.079-113.954-.292-131.25-1.108-24.469-1.153-35.121-1.474-92-2.773-12.65-.289-27.876-.785-33.835-1.103l-10.836-.578.435 20.84m5.754 225.176c-3.165.951-4.032 6.164-1.025 6.164 1.03 0 2.155.892 2.501 1.982.506 1.595.891 1.741 1.967.75.872-.803 1.008-1.636.39-2.393-1.408-1.724.506-2.491 4.343-1.74 1.818.355 4.084.732 5.036.837 3.559.391 2.955 1.565-.813 1.579-2.687.011-3.474.296-2.508.908.775.49 2.125.639 3 .33.889-.314.31.815-1.312 2.557-1.597 1.715-3.352 2.841-3.902 2.502-.578-.358-.222-1.184.845-1.965 2.128-1.556 1.413-1.637-3.79-.428-2.653.616-3.759.536-3.78-.274-.017-.63-.479-.376-1.027.563-.548.94-1.626 1.467-2.396 1.171-1.016-.389-1.25.04-.852 1.563.433 1.654.842 1.857 1.927.957.958-.795 1.378-.812 1.378-.057 0 .598-.845 1.54-1.878 2.093-1.813.97-1.886 4.077-2.105 89.785-.125 48.829-.517 102.055-.872 118.28-.355 16.225-.512 31.075-.35 33l.295 3.5 50.205-.275c56.528-.309 94.96-.37 95.705-.15 1.523.45 115.098 1.161 117.074.734.784-.17 1.798-.759 2.252-1.309.533-.645 1.011-.542 1.347.292.401.992.847 1.021 1.924.127 1.088-.902 1.406-.856 1.418.209.012 1.078.224 1.05.985-.128.533-.825.976-1.05.985-.5.009.55 1.591 1.086 3.515 1.192 2.583.141 3.5-.216 3.5-1.365 0-1.408.229-1.407 2.385.006 2.633 1.725 3.615 1.302 3.615-1.559 0-1.108.451-1.614 1.087-1.22.598.369.865 1.52.594 2.558-.554 2.117.745 3.361 2.426 2.322.774-.479.708-.93-.221-1.505-.731-.451-1.034-1.115-.674-1.475 1.072-1.072 2.968.634 2.388 2.147-.301.784.072 1.399.848 1.399.762 0 1.612-.562 1.89-1.25.403-1 .52-1 .583 0 .059.926 3.129 1.246 11.829 1.235 6.946-.009 11.195-.367 10.393-.875-.952-.604-1.025-1.065-.243-1.548.613-.379 1.359-.05 1.659.73.446 1.164 4.802 1.445 24.242 1.567 13.035.081 26.725.292 30.424.469 8.957.427 9.12.273 8.408-7.957-1.014-11.734-2.412-58.136-3.22-106.871-.329-19.8-.727-40.05-.885-45-.158-4.95-.415-21.15-.571-36-.245-23.367-1.307-49.535-1.795-44.25-.089.962-.639 1.75-1.221 1.75-.582 0-.781-.45-.441-1 .601-.972-.707-1.405-3.25-1.075-.687.09-1.25-.334-1.25-.94 0-.607-.518-.783-1.151-.391-.798.493-.586 1.125.691 2.059 1.648 1.205 1.664 1.347.151 1.347-.93 0-1.698-.562-1.706-1.25-.011-.905-.256-.87-.889.128-.48.758-1.326 1.098-1.879.756-.554-.342-1.276.078-1.605.935-.329.857-1.051 1.278-1.605.935-.554-.342-1.554-.284-2.223.13-2.408 1.488-11.778.987-11.863-.634-.054-1.026-.238-1.105-.583-.25-.278.688-.944 1.25-1.48 1.25-.537 0-.744-.376-.46-.836.752-1.216-9.668-1.169-11.148.051-.921.759-1.254.537-1.265-.843-.011-1.277-.263-1.483-.794-.647-.428.673-1.658 1.361-2.734 1.529-1.077.167-2.519.655-3.207 1.084-.76.474-1.256.266-1.265-.529-.011-.951-.281-.899-.985.191-.849 1.314-.971 1.304-.985-.083-.008-.871-.69-1.584-1.515-1.584s-1.5.336-1.5.745c0 .41-.779.631-1.731.491-.952-.14-3.09.049-4.75.419-1.661.37-4.257.338-5.769-.071-2.191-.593-2.756-.406-2.78.919-.028 1.498-.133 1.489-1.05-.086-.561-.962-1.699-1.75-2.529-1.75-.83 0-1.231.45-.891 1 .34.55.141 1-.441 1s-1.059-.41-1.059-.912c0-1.376-3.031-.647-4.08.982-.743 1.155-1.081 1.18-1.76.13-.882-1.366-2.842-1.585-7.41-.83-1.512.249-2.75.156-2.75-.208 0-1.538-7.038-.619-7.547.985-.337 1.062-1.221 1.465-2.488 1.134-1.509-.395-1.965-.009-1.965 1.661 0 1.253-.442 1.903-1.041 1.533C330.945 347.23 334.312 341 337 341c.675 0 .5-.643-.429-1.571-.864-.865-1.571-2.016-1.571-2.559 0-.544-.357-.768-.792-.498-.436.269-.861-.413-.944-1.517-.124-1.64.112-1.788 1.292-.808 1.536 1.274 1.919.249.652-1.744-.502-.79-1.263-.88-2.234-.266-1.975 1.25-9.697 1.22-10.476-.04-.412-.667-1.269-.655-2.559.035-1.577.844-1.954.705-2.018-.747-.046-1.048-.287-1.269-.583-.535-.278.688-1.169 1.25-1.98 1.25-.861 0-1.179-.481-.763-1.155.473-.763.271-.88-.595-.345-.825.51-1.067.417-.653-.252.412-.667-.18-.903-1.596-.634-2.117.402-2.132.367-.251-.577l2-1.004-2 .188c-1.1.104-3.012-.369-4.25-1.051-1.997-1.101-2.25-1.015-2.25.763 0 1.322.484 1.818 1.423 1.458.945-.362 1.335.05 1.163 1.227-.354 2.41-2.566 3.004-2.665.715-.045-1.051-.294-1.3-.583-.583-.278.688-1.48 1.302-2.671 1.366-1.558.083-1.699.24-.502.557 2.259.598 3.15 3.269 1.324 3.97-.813.311-1.285.878-1.049 1.26.235.381.015 1.346-.491 2.145-.713 1.127-.922.936-.934-.857-.008-1.27-.418-2.06-.91-1.756-.493.305-1.173-.17-1.512-1.053-.504-1.314-.893-1.378-2.13-.351-1.351 1.121-1.35 1.437.012 2.941 1.937 2.141 1.95 3.128.031 2.392-.822-.316-1.319-.864-1.104-1.219.215-.355-2.045-.682-5.022-.726-4.028-.061-5.756-.551-6.752-1.913-1.526-2.087-4.628-1.442-4.628.963 0 2.125-1.693 1.912-3.732-.469-.942-1.1-2.078-2-2.525-2-.448 0-.332.9.257 2 .75 1.402.754 2 .01 2-1.368 0-3.223-4.847-2.378-6.214.366-.592.044-.846-.743-.586-.764.252-1.614 1.903-1.889 3.669-.513 3.295-1.212 3.623-4.25 1.997-1.143-.611-1.75-.577-1.75.099 0 .569.563 1.042 1.25 1.05.963.012.952.205-.047.839-1.037.657-.986 1.081.25 2.107 2.217 1.84 1.913 3.285-.388 1.847-1.065-.664-1.713-1.568-1.441-2.008.272-.44.017-.856-.565-.925a97.397 97.397 0 01-2.309-.311c-.687-.103-1.793.217-2.456.711-.664.493-1.676.607-2.25.252-.577-.356-1.051.164-1.059 1.164-.013 1.488-.179 1.551-.934.357-.506-.799-.697-1.811-.426-2.25.271-.439-.434-.798-1.566-.798-1.132 0-2.059.422-2.059.938 0 2.268-4.313.463-5.239-2.193-.819-2.351-1.223-2.606-2.478-1.565-1.227 1.018-1.767.888-2.97-.718-1.417-1.891-1.459-1.872-1.142.538.273 2.075.819 2.463 3.213 2.283 1.586-.119 2.602.064 2.258.408-.343.344-.161 1.184.406 1.867.788.95.198 1.242-2.506 1.242-2.022 0-3.281-.414-2.939-.967.329-.532-.01-.866-.753-.742-.742.123-2.217-.15-3.277-.608-1.843-.797-1.847-.861-.089-1.477 2.021-.709 3.067-4.548 1.502-5.515-.542-.335-.986.291-.986 1.391 0 2.299-1.561 3.637-2.49 2.134-.345-.559-.039-1.023.681-1.031.951-.011.899-.281-.191-.985-.825-.533-2.625-.924-4-.869-2.069.084-2.155.187-.5.601 2.072.517 3.469 2.035 3.469 3.768 0 .55-.436.325-.969-.5-.533-.825-.976-1.002-.985-.394-.008.609-1.364 1.059-3.013 1-3.277-.116-3.965-1.299-1.342-2.306 1.387-.532 1.263-.8-.75-1.624-3.989-1.633-9.84.267-9.989 3.243-.043.87-.537.325-1.097-1.211-.815-2.234-1.296-2.561-2.41-1.636-.766.635-1.145 1.554-.844 2.041.301.488.071.887-.511.887s-1.059-.675-1.059-1.5c0-1.646-3.626-2.023-5.857-.61-.946.6-1.021 1.067-.25 1.544.609.376 1.553.408 2.099.071.546-.337 1.783-.153 2.75.41 1.4.816.893 1.03-2.492 1.055-3.387.024-4.253-.325-4.265-1.72-.013-1.496-.157-1.532-.985-.25-.533.825-.976 1.147-.985.715-.008-.432-.915-.304-2.015.285-1.604.859-2 .76-2-.496 0-.862.713-1.84 1.584-2.175 1.193-.457 1.277-.797.341-1.376-1.764-1.09-4.14.044-3.514 1.676.353.919-.206 1.345-1.692 1.292-1.221-.043-1.656-.306-.969-.583.688-.278 1.25-1.128 1.25-1.89 0-.818-.612-1.15-1.494-.812-.822.316-1.203 1.046-.846 1.623.357.578.181.761-.392.407-.572-.354-1.287.299-1.588 1.451-.591 2.257-3.18 2.117-3.18-.173 0-1.787-4.701-1.842-5.294-.061-.316.948.16 1.136 1.669.657 1.674-.532 1.983-.334 1.49.952-.343.893-1.212 1.397-1.931 1.121-.72-.276-1.51.26-1.755 1.192-.258.977-.496.53-.563-1.055-.064-1.512-.593-2.75-1.175-2.75-.582 0-.738.52-.346 1.155.426.688.276.884-.369.485-.625-.386-1.267.289-1.518 1.595-.369 1.92-.456 1.837-.572-.544-.086-1.776-.543-2.557-1.243-2.125-.752.465-.881-.028-.401-1.539.61-1.923.421-2.134-1.393-1.558-2.977.945-2.601-.137.651-1.872l2.75-1.467-3.654.185c-2.01.102-3.403.592-3.096 1.09.307.497.02.571-.639.163-.659-.407-1.903-.156-2.763.558-1.311 1.088-1.803.981-3.036-.664-1.459-1.945-1.471-1.944-1.277.038.335 3.43.031 3.64-2.225 1.538-1.32-1.23-2.44-1.637-2.818-1.025-.74 1.198-6.992-1.614-6.992-3.145 0-.542-.52-.665-1.155-.273-.681.422-.884.277-.495-.353.386-.624-.068-.968-1.095-.828-.965.131-2.199 1.217-2.742 2.412-.543 1.196-1.893 2.167-3 2.159-1.666-.013-1.754-.183-.513-.985 1.242-.803 1.154-.972-.509-.985-1.106-.008-2.605-.968-3.333-2.133-.974-1.561-1.616-1.824-2.44-1-.615.615-2.04 1.082-3.168 1.039-1.127-.043-1.487-.306-.8-.583.688-.278 1.25-1.007 1.25-1.621 0-.776-.366-.751-1.2.083-1.704 1.704-4.135 1.515-3.451-.268.31-.807.133-1.734-.393-2.059-.526-.325-.956.048-.956.829 0 .954-.776 1.272-2.36.97-1.799-.344-2.498.075-2.94 1.768-.386 1.476-1.093 2.023-2.108 1.634-.841-.323-1.794-.156-2.119.37-.325.526.111.956.968.956 1.844 0 2.128 1.946.309 2.118-2.319.22-4.246-.312-4.891-1.351-.413-.665-1.471-.452-2.973.6-2.06 1.443-1.921 2.112.364 1.751 1.228-.193.852 1.552-.592 2.751-1.631 1.353-2.658.492-2.658-2.227 0-1.995-.022-1.996-1.468-.083-1.265 1.673-1.473 1.711-1.5.274-.018-.933 1.178-2.092 2.718-2.633 2.427-.853 2.532-1.057.899-1.729-1.146-.472-2.146-.285-2.625.49-.994 1.609-1.806.184-1.553-2.726.312-3.582-2.236-5.019-3.062-1.728-.37 1.476-.951 2.258-1.291 1.738-.34-.52-1.293-1.202-2.118-1.516-1.139-.434-1.049-.59.372-.65 1.562-.066 1.663-.332.61-1.601-1.116-1.344-1.426-1.288-2.666.481-1.153 1.646-1.734 1.797-3.26.844-2.242-1.4-1.579-3.803 1.051-3.803 1.041 0 1.893-.477 1.893-1.059s-.403-.81-.895-.506c-.493.305-1.178-.183-1.524-1.084-.973-2.536.085-2.764 2.07-.446 2.277 2.66 4.353 2.711 3.849.095-.435-2.256.984-2.691 2.2-.675 1.143 1.895 4.098 2.779 4.573 1.369.31-.92.739-.916 1.874.02 1.005.829 2.406.936 4.413.336 1.617-.483 2.547-.917 2.068-.964-.48-.047-.313-.761.372-1.586 1.079-1.3.53-1.51-4.128-1.577-2.954-.042-6.162-.227-7.127-.412-1.118-.214-1.502.086-1.058.827.441.734.118.693-.877-.113-.866-.701-2.865-1.2-4.442-1.108-1.578.092-6.468-.101-10.868-.43-4.4-.328-9.117-.261-10.482.149" fill="#d3d3d3" fill-rule="evenodd"/></svg>