<svg xmlns="http://www.w3.org/2000/svg" width="500" height="651"><path d="M.142 6.25C.273 12.016.339 12.19 1 8.5c.394-2.2.78-3.186.858-2.191.078.995.604 1.523 1.169 1.174.69-.426.875 2.926.563 10.191-.35 8.129-.256 9.456.373 5.326.462-3.025.89-7.975.953-11 .106-5.122.201-5.328 1.383-3 1.262 2.484 6.612 3.622 9.201 1.957 1.088-.7 3.451-.646 23 .53 7.15.43 12.728.487 12.396.126-.333-.36-3.483-.732-7-.826-3.518-.094-5.383-.341-4.146-.549 1.237-.207 2.25-.845 2.25-1.416 0-.611 1.038-.778 2.522-.406 1.807.454 2.697.177 3.139-.975.494-1.288.781-1.343 1.442-.275.539.873.233 1.552-.89 1.967-.942.348 1.819.799 6.136 1 4.316.202 8.055.029 8.309-.383.253-.413-2.342-.75-5.766-.75-7.178 0-7.603-.768-.624-1.129 6.179-.32 8.513-1.782 3.232-2.024-3.389-.155-3.083-.293 2-.904 5.362-.643 5.044-.7-3-.532-4.95.103-11.475-.348-14.5-1.002L38.5 2.22l8.717.37c8.724.37 15.4-.679 11.209-1.762C53.739-.384 6-.083 6 1.158c0 .966-.267.975-1.2.042C1.607-1.993-.006-.245.142 6.25m66.305 2.665c.311.503 0 1.183-.691 1.511-.691.328-.243.408.994.179 2.053-.381 2.666.256 2 2.08-.138.376-1.15.741-2.25.81-1.1.07-3.125.466-4.5.881-1.888.57-2.133.498-1-.295 1.537-1.076-5.292-1.695-11-.997-1.375.169-5.875.25-10 .181-17.371-.289-29.282-.307-29.408-.045-.074.154.144 2.305.486 4.78.556 4.023.638 4.137.772 1.076l.15-3.425 2.447 2.299 2.447 2.299 104.803-.689c57.642-.379 105.565-.69 106.496-.691 1.059-.001 1.487-.539 1.143-1.435-.646-1.685-1.953-1.864-2.862-.392-.986 1.595-9.663.894-9.04-.731.277-.721-.045-1.337-.715-1.368-.671-.032-4.144-.225-7.719-.43-4.561-.262-5.605-.131-3.5.439 1.65.446 4.688.865 6.75.93 2.063.065 3.75.529 3.75 1.032s-1.912.663-4.25.356c-4.309-.567-5.008-.559-16.985.187-5.311.33-6.916.096-7.59-1.108-.762-1.362-1.026-1.355-2.443.062-1.767 1.767-3.192 2.143-2.232.589.34-.55-.196-1.053-1.191-1.118-.995-.065-.459-.462 1.191-.882l3-.763-3-.048c-1.65-.027-3.9.338-5 .811-1.857.798-1.827.864.417.93 2.933.085 2.373.886-.977 1.397-1.342.205-2.901-.26-3.466-1.032-1.058-1.447-4.474-.827-4.474.812 0 .491-.477.893-1.059.893s-.781-.45-.441-1c.385-.623-1.569-.994-5.191-.985-3.195.009-5.278.353-4.629.766.649.413-4.653.691-11.783.618-7.13-.073-13.249-.418-13.597-.766-.348-.348.004-.665.783-.703.814-.041.565-.413-.583-.875-2.298-.925-4.312-.175-2.515.936.761.47.244.923-1.418 1.241-2.2.42-2.522.203-2.024-1.366.501-1.579.081-1.848-2.726-1.748l-3.317.119 3 .659c4.682 1.028.905 1.937-6.551 1.576-10.702-.518-11.206-.502-12.348.401-1.135.897-4.343.719-5.359-.298-.317-.316.737-.624 2.341-.685 2.275-.085 1.938-.301-1.535-.982-3.245-.636-4.664-.538-5.235.36-.556.876-.787.896-.798.069-.009-.737-1.151-.984-3.121-.673-1.912.301-2.871.108-2.494-.502.391-.632-2.113-.888-6.893-.703-4.186.161-7.507-.124-7.507-.644 0-.513-.45-.655-1-.315s-1.453.338-2.008-.005c-1.588-.982 1.821-3.777 3.933-3.225 1.02.267 2.466.097 3.214-.377.84-.533-1.244-.868-5.448-.878-3.865-.008-6.565.38-6.244.9M480 19c-1.282.828-1.246.972.25.985 1.818.016 2.511 2.92.75 3.14l-2 .25c-.55.069-1 .462-1 .875v1.857c0 .609.638.862 1.417.563.78-.299 1.667.107 1.972.902.305.795.564 107.079.575 236.187.025 289.761.312 370.239 1.32 370.24.431.001.691-138.599.576-307.999-.148-219.076-.518-307.996-1.284-307.985-.592.009-1.751.452-2.576.985M1.225 56c-1.048 36.946-1.018 59.91.08 60.356.842.343.857.509.049.565-.858.059-1.18 67.201-1.282 267.112l-.135 267.032 21.459-.14c17.885-.117 21.37-.372 20.924-1.533-.294-.765-.009-1.392.632-1.392s.888.45.548 1c-.368.596.719.96 2.691.9 3.144-.094 3.184-.142.809-.948-2.164-.735-1.962-.843 1.5-.804 6.669.076 7.311-.404 1.5-1.12-6.773-.835-8.297-1.252-9.235-2.528-.455-.619-.74-.524-.75.25-.008.688-.803 1.243-1.765 1.235-1.11-.01-1.335-.284-.617-.75.693-.449-.536-1.552-3.161-2.837-2.363-1.156-4.105-1.606-3.872-1 .263.685-.912 1.064-3.106 1.001-3.977-.113-6.155-1.391-2.411-1.414 1.863-.012 2.083-.227.961-.936-.916-.58 2.051-.732 8-.411 6.572.355 9.008.2 7.989-.507-.807-.56-4.407-.993-8-.963-3.593.029-9.008-.255-12.033-.632-4.711-.587-5.807-.396-7.644 1.329-1.179 1.108-2.384 1.774-2.678 1.48-.294-.295-1.58 1.077-2.856 3.048-1.277 1.97-2.884 3.588-3.572 3.595-.687.006-1.25.489-1.25 1.071s-.45.781-1 .441-.993-1.829-.985-3.309c.012-2.105.227-2.364.985-1.191.792 1.225.972 1.107.985-.643.019-2.654 2.715-3.908 3.336-1.552.246.932.499.022.563-2.024.089-2.868.459-3.587 1.616-3.143 1.246.478 1.512-.67 1.57-6.781.048-5.039.341-6.727.93-5.357.82 1.908.863 1.897.93-.25.038-1.237-.38-2.25-.93-2.25s-1-.702-1-1.559.466-1.271 1.036-.919c.701.433.818-1.572.363-6.191-.7-7.107-1.399-9.604-1.399-4.998 0 1.879-.517 2.662-1.75 2.652-1.032-.009-1.32-.317-.702-.75.576-.404 1.152-2.28 1.28-4.169.127-1.888.583-3.913 1.013-4.5.43-.586.754-2.528.72-4.316-.033-1.788.262-3.25.658-3.25.395 0 .435-.738.089-1.64-.576-1.5-.738-1.492-1.9.097-.699.956-1 2.442-.669 3.304.402 1.049.206 1.323-.593.829-.657-.406-.996-1.942-.753-3.414.244-1.472.48-3.062.525-3.533.045-.471.757-.598 1.582-.281 1.009.387 1.5-.047 1.5-1.326 0-1.046.9-2.187 2-2.536 2.265-.719 2.929-6.489.75-6.515-.833-.011-.75-.339.25-.985 1-.646 1.083-.974.25-.985-.687-.008-1.243-.803-1.235-1.765.013-1.496.157-1.532.985-.25.835 1.293.971 1.266.985-.191.008-.93-.442-1.974-1.001-2.319-.559-.346-.743-1.072-.408-1.614.735-1.188 1.137-27.877.421-27.876-.277 0-.566-2.021-.642-4.492-.076-2.47.179-4.296.567-4.056.388.24.653-46.452.59-103.758-.064-57.307.266-104.991.732-105.965.467-.974.564-2.231.216-2.794-.348-.563-.817-26.991-1.043-58.729-.226-31.738-.423-58.156-.437-58.706-.014-.55.193-7.172.459-14.715.297-8.406.106-13.948-.493-14.319-.538-.332-.7-1.055-.36-1.605.341-.551.539-5.358.441-10.681-.098-5.324-.256-16.992-.352-25.929-.096-8.937-.513-16.25-.925-16.25-.412-.001-.743-.788-.735-1.751.013-1.496.157-1.532.985-.25.78 1.207.972 1.049.985-.809.008-1.288-.427-2.036-.985-1.691-1.093.675-1.389-.778-.366-1.8.966-.967 1.086-31.755.125-32.349-.462-.286-.545-1.45-.184-2.588.361-1.137.574-3.912.474-6.165-.101-2.254-.181-4.885-.178-5.848.006-2.142-.565-2.199-2.514-.25-.825.825-1.018 1.5-.428 1.5 1.492 0 1.346 2.722-.179 3.338-.687.277-.8.539-.25.582.618.048.923 4.568.798 11.829-.111 6.463.179 13.441.646 15.506.517 2.291.473 3.987-.113 4.349-.529.327-.884 1.787-.79 3.245.47 7.29-.141 27.151-.835 27.151-.437 0-.627-9.225-.421-20.5.207-11.391-.017-20.5-.505-20.5-.483 0-.695 1.575-.47 3.5.254 2.174-.019 3.5-.72 3.5-.69 0-.895-.928-.528-2.391.33-1.315.181-2.65-.332-2.967-.53-.328-1.01 2-1.112 5.391-.098 3.282.232 5.967.735 5.967s1.129 1.125 1.392 2.5c.548 2.867.19 3.078-1.816 1.071-1.056-1.055-1.425-4.121-1.414-11.75.01-6.758.337-9.813.946-8.85.512.809 1.258 1.143 1.66.742.851-.852.812-22.614-.043-23.469C7.26 66.927 7 69.693 7 73.392c0 4.68-.338 6.517-1.112 6.039-1.589-.982-2.82 1.436-3.091 6.069C2.668 87.7 2.309 80.275 2 69c-.309-11.275-.658-17.125-.775-13m132.862 74.762l-25.412.273.613 197.099c.337 108.405.839 197.327 1.116 197.604.554.553 186.58.925 244.346.488l36.25-.275V131.057l-30.25-.302c-37.157-.371-191.897-.366-226.663.007" fill="#d3d3d3" fill-rule="evenodd"/></svg>