<svg xmlns="http://www.w3.org/2000/svg" width="500" height="738"><path d="M285.282 156.75c-9.643 10.41-19.473 28.8-33.812 63.25-3.738 8.982-10.324 20.298-20.259 34.809-4.635 6.77-8.211 12.524-7.948 12.787.795.796 17.125-21.526 22.113-30.227 2.564-4.472 6.413-12.347 8.554-17.5 14.584-35.104 26.792-57.504 34.576-63.441 3.538-2.699 4.45-4.428 2.335-4.428-.638 0-3.139 2.137-5.559 4.75m51.968-4.032c-.687.247-1.243 1.199-1.235 2.115.012 1.243.223 1.34.829.385.619-.975 2.595-.299 8.235 2.814 4.082 2.254 11.133 5.89 15.671 8.081s8.25 4.342 8.25 4.78c0 1.182-3.039 3.632-6.994 5.638-5.511 2.796-14.006 9.565-14.006 11.161 0 .798.662 2.113 1.47 2.921 1.294 1.294 1.544 1.136 2.084-1.321 1.084-4.938 1.316-5.255 5.877-8.045 2.47-1.511 6.308-3.85 8.53-5.198 2.221-1.348 4.039-3.036 4.039-3.75 0-2.41 2.071-1.323 7.146 3.752 2.778 2.777 5.55 4.884 6.16 4.68.61-.203-1.684-2.992-5.098-6.198-6.901-6.479-7.318-7.92-4.596-15.909.887-2.603 1.381-4.964 1.098-5.247-.599-.6-4.71 10.002-4.71 12.148 0 1.022-1.568.447-5.313-1.949-2.922-1.869-7.31-3.915-9.75-4.546-2.44-.632-6.912-2.313-9.937-3.737a714.303 714.303 0 00-6-2.806c-.275-.12-1.062-.015-1.75.231m-21.54 38.963c-.408.649-.278 1.468.29 1.819 1.587.981.15 2.495-1.696 1.786-1.091-.418-1.392-.238-.909.544.398.644.319 1.17-.175 1.17s-.784 1.8-.644 4c.201 3.162-.094 4.003-1.411 4.015-1.41.013-1.44.158-.201.942.806.509 1.518 1.965 1.584 3.235.199 3.858 1.507 6.808 3.019 6.808.788 0 1.433.358 1.433.796 0 1.613 6.747 1.306 7.377-.336.335-.873 1.062-1.307 1.616-.964.554.342 1.007.255 1.007-.193s1.32-1.399 2.932-2.113c2.578-1.141 3.844-3.432 4.527-8.19.039-.275.429-1.062.865-1.75.478-.752.306-1.25-.432-1.25-.674 0-.933-.293-.575-.65 1.177-1.177-4.071-5.081-7.759-5.773-2.3-.432-3.362-1.085-2.922-1.797.445-.721.122-.901-.907-.506-.88.337-1.818.076-2.085-.58-.361-.887-.506-.873-.565.056-.121 1.909-2.885 1.488-3.279-.5-.238-1.201-.58-1.38-1.09-.569m-165.19 6.1c2.2 14.5-.139 28.85-5.493 33.694-1.125 1.018-4.077 5.88-6.56 10.803-2.483 4.923-5.154 9.865-5.936 10.982-1.703 2.431-.933 7.674 1.388 9.45.869.666 4.506 2.622 8.081 4.348 3.575 1.725 8.525 5.022 11 7.327 2.475 2.304 6.075 4.77 8 5.48 1.925.711 6.669 2.617 10.542 4.237 4.822 2.017 9.235 3.066 14 3.327 4.556.249 6.095.094 4.458-.449-1.375-.456-5.035-1.898-8.134-3.205l-5.633-2.374 1.783-2.451c1.06-1.456 1.961-4.884 2.221-8.45.383-5.25 2.265-12.002 3.763-13.5.275-.275 1.588-2.662 2.918-5.305 1.33-2.642 3.242-5.246 4.25-5.785 1.102-.59 1.832-2.089 1.832-3.762 0-3.077 4.51-12.506 8.457-17.681 1.399-1.834 2.543-3.725 2.543-4.204 0-.947-9.344-6.263-11.01-6.263-1.226 0-9.466 16.518-11.449 22.95-.771 2.503-1.433 3.887-1.471 3.077-.166-3.504-6.07 9.422-6.07 13.29 0 .962-1.125 3.97-2.5 6.683-1.375 2.713-2.532 6.186-2.57 7.717-.054 2.133-.235 2.366-.775.999-.553-1.4-1.301-.568-3.478 3.869-1.524 3.109-3.005 5.42-3.29 5.135-.285-.285.862-3.25 2.548-6.59s3.097-7.323 3.135-8.851c.056-2.212.219-2.403.797-.934.649 1.649.853 1.565 1.929-.797.662-1.453 1.208-3.858 1.213-5.345.004-1.487 2.17-6.978 4.813-12.203 2.642-5.225 5.394-11.629 6.116-14.232.721-2.602 1.7-4.491 2.175-4.198.475.294.616-.112.314-.901-.303-.788.116-3.987.931-7.107l1.481-5.673-2.669-.965c-5.065-1.831-7.487-3.43-7.966-5.259-.306-1.167-.733-1.427-1.173-.716-.38.615-1.44.831-2.355.48-.916-.351-1.441-1.001-1.167-1.444 1.748-2.828-2.731-4.525-4.607-1.745-.329.488-2.354-.073-4.5-1.247a2942.762 2942.762 0 01-8.25-4.531l-4.348-2.4.716 4.719m217.93 41.091c-1.612 1.481-12.239 2.278-13.043.978-.516-.835-1.014-.76-1.81.274-.603.785-2.222 1.436-3.597 1.447-1.375.01-4.232.365-6.348.788-2.577.514-3.638.427-3.21-.266 2.799-4.527-22.17-1.072-43.127 5.969-6.447 2.166-11.813 3.938-11.925 3.938-.111 0 .019-.847.289-1.881.314-1.199-1.395-.11-4.707 3-5.006 4.7-5.418 4.881-11.086 4.881-3.257 0-5.886.447-5.886 1 0 .55 1.688 1.014 3.75 1.03 3.061.025 3.425.22 1.979 1.062-.974.567-1.513 1.448-1.198 1.958.315.51-.238.665-1.229.344-1.534-.496-1.579-.41-.302.577 1.217.941 1.029 1.041-1 .529-2.029-.512-2.217-.412-1 .529 1.28.989 1.238 1.075-.284.584-1.063-.343-5.354 1.25-10.606 3.938-4.851 2.484-11.66 5.095-15.13 5.803-3.95.805-6.396 1.821-6.54 2.716-.126.787-.39 2.105-.585 2.93-.247 1.043.585 1.592 2.73 1.801 2.607.254 3.072-.033 3-1.858-.07-1.766 1.187-2.664 6.915-4.943 25.375-10.093 30.417-12.557 37-18.077 1.1-.922 3.8-2.243 6-2.935 2.2-.692 5.789-2.159 7.975-3.259 3.498-1.759 22.677-7.729 24.832-7.729 2.254 0-.81 1.889-4.62 2.849-3.954.995-13.398 8.151-10.758 8.151.589 0 1.071.505 1.071 1.122 0 .819-.359.825-1.325.023-1.295-1.074-5.375 4.991-4.83 7.179.112.454-.144.61-.57.348-.426-.263-.876.907-.998 2.599-.123 1.692-.747 3.56-1.386 4.152-.868.804-1.019.48-.594-1.274 1.463-6.046-3.179-9.318-9.181-6.472-3.665 1.737-3.823 2.006-3.335 5.687.486 3.662.405 3.806-1.568 2.75-1.145-.613-4.061-1.114-6.481-1.114-2.419 0-4.712-.313-5.094-.696-1.677-1.676-3.677-.839-6.555 2.742-1.699 2.115-4.343 4.585-5.875 5.49-2.35 1.389-2.723 2.176-2.388 5.047.33 2.832.002 3.559-1.962 4.346-1.763.706-1.912.96-.59 1.008 2.259.081 2.332 10.063.073 10.063-.737 0-1.348.563-1.356 1.25-.011.836-.342.753-1-.25-.825-1.257-1.082-1.146-1.584.681-.359 1.309-1.144 1.971-1.964 1.656-3.904-1.498-10.977 7.889-9.327 12.378.471 1.282.409 2.464-.148 2.809-.529.327-.962-.052-.962-.843 0-.79-.652-1.977-1.449-2.639-.797-.661-1.956-2.853-2.576-4.872-.62-2.018-1.389-4.345-1.71-5.17-.32-.825-.536-1.763-.479-2.085.057-.322-.954-3.921-2.247-7.999-2.21-6.971-1.974-9.921.663-8.291.439.271.798-.032.798-.674 0-.738-.897-.943-2.439-.556-3.651.917-4.064-1.084-.594-2.878 1.668-.863 3.033-1.98 3.033-2.484 0-1.862-1.725-1.878-4.738-.046-2.499 1.52-3.199 1.619-3.624.513-.289-.754.012-1.589.668-1.856.843-.343.806-.509-.127-.565-1.856-.111-3.966 2.224-4.718 5.222-.568 2.261-.36 2.512 1.877 2.266 4.395-.482 5.356 1.219 1.093 1.936-6.088 1.024-6.479 1.562-.772 1.064l5.159-.451-.067 4.399c-.037 2.42.377 4.982.919 5.692 1.351 1.773 4.468 10.361 4.146 11.427-.143.476.552 2.081 1.545 3.567 3.436 5.142 1.769 6.501-8.641 7.042-7.484.389-10.727 1.106-17.22 3.809-5.45 2.269-9.673 3.349-13.249 3.389-2.887.033-5.249.344-5.25.692-.001.349-1.126.849-2.501 1.112-1.449.277-2.506.011-2.515-.634-.011-.747-.264-.72-.773.081-.417.655-3.536 1.639-6.93 2.185-3.395.547-7.098 1.489-8.228 2.094-1.129.605-2.054.89-2.054.635 0-.256-3.036.403-6.747 1.465-3.711 1.061-7.9 1.929-9.309 1.929-1.409 0-3.435.706-4.503 1.569-2.62 2.116 7.091 1.222 16.559-1.526 3.575-1.037 9.2-2.402 12.5-3.033 3.3-.631 6.756-1.362 7.679-1.624 1.228-.348 1.793.275 2.1 2.319.356 2.364.444 2.231.571-.861.128-3.112.443-3.58 2.116-3.143 2.389.625 15.321-2.085 23.534-4.932 5.221-1.81 14.105-2.61 20.5-1.847.825.098 2.4.043 3.5-.122 1.39-.208 1.958.234 1.861 1.45-.198 2.501 1.297 2.166 1.979-.443.569-2.176.593-2.172 3.099.532 1.389 1.499 2.999 3.611 3.578 4.693.579 1.082 1.713 1.968 2.518 1.968 1.966 0 1.854-.537-.729-3.508-1.206-1.387-2.301-3.258-2.433-4.157-.132-.899-.832-2.026-1.557-2.505-1.022-.676-.788-1.313 1.045-2.85 2.585-2.168 4.68-2.532 5.639-.98.34.55 1.266 1 2.059 1 .793 0 1.441-.45 1.441-1s-.723-1-1.606-1c-1.129 0-.685-.86 1.5-2.901 2.424-2.265 3.106-3.738 3.106-6.714 0-3.279.193-3.608 1.375-2.349 1.869 1.991 2.879 8.942 1.312 9.032-.653.037-.066.599 1.305 1.25 2.812 1.334 6.008 4.264 6.008 5.508 0 .454 1.109 1.867 2.464 3.14 2.643 2.483 1.739 2.528 14.036-.706 1.938-.509 1.944-.463.196 1.495-2.01 2.252-2.266 4.205-1.182 8.995.597 2.635.429 3.25-.889 3.25-.894 0-1.625.436-1.625.969 0 .532.675.709 1.5.393.922-.354 1.5.002 1.5.924 0 .825.712 1.773 1.582 2.107 2.405.923 2.575.768 1.453-1.327-2.869-5.361 1.564-15.189 9.583-21.242 2.96-2.236 5.389-4.798 5.397-5.694.012-1.276.199-1.34.862-.295.466.735 1.145 1.243 1.509 1.13.364-.113 2.114.087 3.888.445 2.482.5 2.886.862 1.75 1.569-1.2.747-1.013 1.095 1 1.865 2.652 1.014 4.633.028 3.53-1.757-.37-.598-1.433-1.132-2.363-1.187-1.004-.059-.675-.393.809-.821 1.855-.535 3.328-.099 5.71 1.688l3.211 2.41-.461-10.264c-.349-7.777-.119-10.785.951-12.418 1.828-2.789 1.904-16.051.109-18.915-2.058-3.285-2.829-11.112-1.331-13.512 1.772-2.837 6.33-2.736 8.228.182 1.703 2.618.405 11.451-1.958 13.322-1.036.82-1.288 3.981-1.074 13.5.217 9.602-.043 12.809-1.141 14.104-.781.922-1.67 4.428-1.975 7.792-.537 5.928-.458 6.195 2.605 8.732 7.55 6.255 10.804 18.573 7.128 26.981-1.76 4.024-8.797 10.319-11.535 10.319-.679 0-1.449 1.125-1.712 2.5-.577 3.021-.831 3.006 5.56.322 9.585-4.025 13.034-8.03 15.128-17.564.822-3.742-2.112-11.401-6.944-18.127-3.836-5.339-3.795-5.519 1.501-6.63 10.256-2.153 19.296-8.824 28.458-21.001 6.545-8.699 7.691-10.874 6.944-13.178-.395-1.218-.296-1.415.299-.594 2.141 2.954 1.405-11.599-.806-15.952-4.694-9.239-10.932-17.776-12.989-17.776-1.113 0-1.765-.419-1.449-.931.317-.512.068-1.245-.552-1.628-.621-.383-1.436-.199-1.813.41-.453.733-1.254.441-2.373-.866-1.652-1.929-1.575-1.968 3.546-1.779 2.879.106 8.864-.162 13.3-.594l8.066-.787 1.404 4.337c.772 2.386 1.489 5.688 1.593 7.338.283 4.488 1.386 8.963 2.289 9.286 3.571 1.278 6.393 7.286 4.091 8.709-1.523.941-1.259 1.705 1.842 5.335 3.964 4.637 9.714 22.772 7.921 24.98-1.064 1.31-1.012 1.468.318.97 1.935-.723 3.769 6.399 7.813 30.348 2.867 16.98 2.768 17.872-1.989 17.872-3.036 0-15.36 6.888-20.113 11.241-1.646 1.508-9.474 5.875-17.396 9.704-7.922 3.83-14.404 7.408-14.404 7.95 0 1.941 1.804 2.047 4.132.245 1.303-1.008 7.543-4.432 13.868-7.61s14.2-7.913 17.5-10.522c6.663-5.267 14.097-9.375 15.45-8.539.485.3 2.108.079 3.606-.49 2.173-.826 3.1-.695 4.584.648 2.252 2.038 2.502.287.416-2.912-.795-1.218-2.166-6.94-3.047-12.715-2.148-14.081-6.434-36.499-7.982-41.75-1.042-3.534-1.023-4.25.11-4.25 2.091 0 1.618-1.7-.637-2.29-1.212-.317-2-1.364-2-2.656 0-1.174-.854-3.807-1.897-5.851-1.043-2.045-2.038-5.065-2.21-6.711-.173-1.645-.815-3.667-1.426-4.492-1.788-2.414-11.808-28.332-11.695-30.25.111-1.878-3.571-2.485-5.322-.878m-248.758 25.434c.619 5.998-.212 11.109-1.661 10.213-.5-.309-.918.235-.927 1.209-.049 4.899-2.164 17.665-4.105 24.772-4.203 15.388-4.22 15.528-2.493 20.807 1.454 4.446 3.534 8.156 8.049 14.358 1.745 2.397.558 2.804-15.362 5.267-7.456 1.153-14.717 4.989-11.603 6.129 1.162.426 2.582.111 3.626-.805.944-.828 3.869-1.688 6.5-1.911 2.631-.223 5.909-.514 7.284-.647s2.95.05 3.5.407c.55.356 1.9.285 3-.158 1.715-.692 1.573-.833-1-.995l-3-.189 3-.763c6.093-1.55 6.831-1.203 11.195 5.274 2.308 3.424 4.742 7.464 5.411 8.976 1.32 2.988 3.232 3.858 2.198 1-.349-.962-2.79-5.125-5.426-9.25l-4.792-7.5 7.707-.767c8.898-.886 10.207-1.247 10.207-2.813 0-.765-1.16-.925-3.507-.485-1.928.362-6.316.841-9.75 1.064l-6.243.405-3.706-5.702c-6.985-10.747-8.092-17.705-2.942-18.496l2.648-.406-2.75-.15c-3.311-.181-3.404-1.215-.798-8.896 1.074-3.165 2.41-9.994 2.969-15.176.559-5.181 1.411-9.681 1.894-10 .482-.318 1.18-1.816 1.55-3.328.37-1.512 1.06-2.75 1.532-2.75.887 0-1.125-12.561-2.181-13.618-.326-.326-.337 1.89-.024 4.924m75.246 82.978c-.859.669-1.896 2.103-2.304 3.188-.622 1.654-.892 1.734-1.672.5-.512-.81-.938-1.079-.947-.6-.008.48-.65.346-1.426-.298-.965-.801-1.616-.839-2.059-.123-.356.577-.341 1.049.033 1.049.375 0 .105.695-.601 1.546-.705.85-1.837 1.332-2.516 1.072-.678-.261-2.19.545-3.36 1.79l-2.126 2.263 3.978 1.192c2.836.85 3.816 1.615 3.413 2.665-.358.933.045 1.472 1.101 1.472.916 0 1.419-.399 1.118-.887-.301-.487.078-1.406.844-2.041 1.063-.883 1.493-.852 1.821.133.303.908 1.493.477 4.03-1.458 4.309-3.287 4.707-3.357 4.015-.711-.477 1.825-.185 1.976 2.803 1.449 1.834-.323 3.916-1.069 4.626-1.659.988-.819 1.291-.558 1.291 1.111 0 1.223.447 1.905 1.016 1.553.559-.346.758-1.047.441-1.559-.316-.512.014-.945.734-.963.821-.02.601-.568-.588-1.468-1.044-.79-2.338-1.164-2.876-.831-.595.368-.812-.818-.553-3.033.443-3.792-.716-4.909-1.956-1.886-1.186 2.891-3.113 2.436-3.988-.941-.936-3.614-2.051-4.27-4.292-2.525M262 363.078c0 .593 2.475 5.997 5.5 12.01 6.245 12.413 6.086 11.907 3.75 11.927-1.498.013-1.534.157-.25 1 1.333.876 1.333 1.106 0 2.072-1.204.872-1.04.985.829.573 1.73-.382 2.188-.147 1.781.913-.302.788.039 1.427.761 1.427.719 0 1.795 1.07 2.391 2.377.596 1.307 2.508 4 4.249 5.983 1.742 1.984 2.975 4.177 2.741 4.873-.239.711 1.663 2.463 4.336 3.994l4.761 2.727 4.603-2.036c2.531-1.119 5.454-1.765 6.494-1.435 1.333.423 2.08.011 2.525-1.39.371-1.171 1.206-1.771 2.027-1.455 1.156.443 1.19.091.199-2.046-1.087-2.345-1.311-2.427-2.447-.896-.737.995-1.25 1.183-1.25.46 0-.955-.489-.965-2.207-.045-1.213.649-4.823 1.227-8.021 1.285-5.769.103-5.85.064-10.222-4.896-2.748-3.117-7.53-11.308-12.7-21.75-7.485-15.116-9.85-18.879-9.85-15.672m-44.666 7.638c-2.085 1.91-4.649 3.284-6.126 3.284-1.398 0-2.248.294-1.889.653.359.358 2.009.614 3.667.566 3.263-.092 4.106 1.337 1.264 2.142-13.02 3.692-15.553 3.152-16.937-3.611-.31-1.512-.987-2.75-1.505-2.75-1.055 0-.266 3.102 1.844 7.25 1.361 2.675 1.324 2.75-1.376 2.761-1.527.006-4.463.29-6.526.631-3.558.588-3.75.482-3.75-2.07 0-1.875-.379-2.469-1.25-1.959-.687.402-.523-.134.366-1.191 2.746-3.267 3.28-7.338.879-6.711-1.144.3-1.995.029-1.995-.634 0-.831-.352-.854-1.25-.082-.687.59-2.15 1.719-3.25 2.507-1.929 1.384-1.903 1.436.75 1.466 3.321.039 3.613 1.767.5 2.957-2.201.841-2.189.875.583 1.596 2.09.544 2.708 1.214 2.357 2.556-.294 1.125.15 1.984 1.167 2.254.904.241-.157.514-2.357.608-14.401.614-18.322.988-20.889 1.99-1.588.62-3.144.872-3.456.559-.312-.312.37-.813 1.517-1.112 2.839-.743 4.76-4.995 3.077-6.81-1.046-1.128-1.701-1.114-4.028.084-1.529.788-3.217 1.162-3.75.832-1.586-.98-1.103 1.164.576 2.557 1.236 1.026 1.287 1.45.25 2.107-1.88 1.193-3.028 1.037-2.202-.301.443-.715.275-.883-.44-.44-.635.392-1.155.21-1.155-.405s-.437-.848-.971-.518c-.534.33-1.968-.547-3.186-1.948-1.635-1.88-2.425-2.219-3.014-1.291-.635 1-.802 1.001-.814.007-.008-.687-.492-1.25-1.074-1.25-.582 0-.738.52-.346 1.155.473.763.271.88-.595.345-.921-.569-1.069-.421-.5.5.507.82.416 1.066-.241.66-.979-.605-2.259 1.334-2.259 3.422 0 1.345 5.397 1.121 6.8-.282.933-.933 1.2-.533 1.2 1.8 0 1.65.54 3.54 1.2 4.2.933.933.822 1.2-.5 1.2-.935 0-1.7.168-1.7.374 0 .436 2.743 8.42 3.65 10.626.34.825.78 3.075.978 5l.361 3.5-1.459-2.5c-.803-1.375-1.475-3.512-1.495-4.75-.019-1.238-.56-2.25-1.202-2.25-.641 0-.886-.281-.543-.624.986-.985-3.084-8.196-5.293-9.378-1.098-.587-2.068-2.065-2.154-3.283-.087-1.218-.492.035-.902 2.785-.704 4.726-.737 4.617-.593-2l.152-7-3.5-.038c-4.41-.047-6 1.1-6 4.327 0 1.399-.312 2.233-.692 1.852-.381-.381-1.763 2.132-3.071 5.583C117.984 408.723 117.23 415 121.5 415c1.375 0 2.5.446 2.5.991 0 1.024 7.433.477 9.314-.685.663-.41.738.043.214 1.28-2.055 4.842-2.202 11.249-.294 12.882 1.023.876 2.288 1.327 2.813 1.003.524-.324.953-.112.953.47s1.012 1.091 2.25 1.129c2.147.067 2.158.11.25.93-1.965.844-1.963.861.089.93 1.3.043 2.52-.875 3.229-2.43 1.052-2.309.945-2.5-1.398-2.5-1.396 0-2.274-.426-1.952-.948.326-.528-.389-.76-1.617-.523-2.503.482-4.851-1.076-4.851-3.219 0-.99.63-1.245 2-.81 2.26.717 2.451.211.965-2.566-.714-1.333-.714-1.934 0-1.934.569 0 1.035.482 1.035 1.071 0 .59.706.366 1.568-.497 1.021-1.021 1.331-2.354.888-3.821-.451-1.492-.346-1.915.311-1.253.545.55 1.531 2.688 2.19 4.75.659 2.063 1.599 3.75 2.089 3.75s.666.586.391 1.303c-.275.716.185 2.941 1.022 4.944 1.894 4.533 1.174 7.162-1.559 5.7-1.547-.829-1.9-.675-1.9.827 0 2.123-2.918 6.467-2.968 4.417-.018-.72-.489-1.026-1.048-.681-.559.346-.758 1.047-.441 1.559.316.512.098.931-.484.931s-1.059-.661-1.059-1.469c0-.975-.588-1.254-1.75-.83-1.625.592-1.62.49.065-1.432 1.182-1.348 1.444-2.3.75-2.729-1.395-.862-3.27.32-2.495 1.573.331.536.001 1.703-.734 2.593-1.001 1.214-1.037 1.72-.142 2.021.656.221.951 1.161.655 2.088-.464 1.454-.381 1.48.61.185.971-1.268 1.098-1.191.82.5-.244 1.484-.955 1.91-2.757 1.653-1.935-.277-2.204-.074-1.325 1 .815.996.756 1.666-.229 2.572-1.064.98-1.422.88-1.783-.5-.265-1.009-.501-.559-.569 1.084-.076 1.85-.51 2.565-1.271 2.096-.763-.473-.88-.271-.345.595s.418 1.068-.345.595c-1.407-.869-1.433-.458-.18 2.84 1.246 3.277 3.025 3.315 3.025.065 0-1.556.567-2.5 1.5-2.5.825 0 1.5.477 1.5 1.059s-.45.781-1 .441-1 .309-1 1.441c0 1.132.36 2.059.8 2.059 1.799 0 3.2-2.609 3.2-5.959 0-2.477.609-3.94 2-4.809 1.778-1.11 2.002-.998 2.015 1.01.012 1.719.23 1.92.911.843.493-.778.745-2.195.562-3.148-.184-.953.756-2.757 2.089-4.009 2.398-2.253 3.536-1.441 1.223.872-.66.66-.772 1.252-.25 1.315.522.064 1.4.22 1.95.348.55.128 1.757.301 2.683.385.925.083 1.995 1.136 2.376 2.339.589 1.855.865 1.963 1.818.714 1.151-1.511 4.623-1.435 4.623.101 0 1.72-3.208 3.998-5.63 3.998-1.626 0-2.241.4-1.775 1.155.393.634.307.917-.19.627-.498-.289-1.805.385-2.905 1.499-1.775 1.798-1.798 1.954-.198 1.384.991-.353 1.585-.291 1.319.139-.265.429.377.846 1.427.925 1.05.079 1.866-.165 1.812-.543-.257-1.82.238-3.186 1.156-3.186 2.361 0 .31 9.686-5.128 24.218-3.292 8.798-3.806 12.789-1.388 10.782.825-.685 1.5-1.827 1.5-2.54 0-1.739 3.094-8.449 7.821-16.96 3.395-6.111 4.224-6.974 6.534-6.797 1.893.145 2.655-.281 2.68-1.5.027-1.253.414-1.042 1.465.797.865 1.513 1.449 1.908 1.48 1 .045-1.333.158-1.333 1.02 0s.973 1.333 1 0c.026-1.255.175-1.272.914-.105.729 1.151.945 1.108 1.235-.243.311-1.454.69-1.406 3.351.425l3 2.065-3.25-.651c-2.276-.455-3.25-.276-3.25.596 0 .686.279.968.619.627.694-.694 2.324.874 3.994 3.841.872 1.55.774 2.294-.452 3.439-1.395 1.303-1.1 1.554 2.717 2.309 3.311.654 4.547 1.469 5.452 3.593 1.575 3.697 8.67 9.956 8.67 7.649 0-.915.472-1.371 1.049-1.015.723.447.702 1.065-.067 1.992-1.284 1.547 2.361 6.002 4.054 4.955.53-.327.964-.086.964.535 0 .651.671.46 1.581-.45.869-.869 1.994-1.325 2.5-1.012.505.312.919.065.919-.55s.45-.84 1-.5c.55.34 1 .173 1-.371 0-.545-.994-1.134-2.209-1.309-1.356-.197-2.476-1.285-2.9-2.82-.381-1.375-.736-1.937-.791-1.25-.055.688-.625 1.25-1.267 1.25-.641 0-.893-.273-.559-.607.334-.335-.492-1.794-1.836-3.243-1.344-1.449-2.294-3.088-2.112-3.642.815-2.483 9.674-1.557 9.674 1.011 0 .815.477 1.481 1.059 1.481s.781.45.441 1 .035 1 .834 1c1.573 0 3.115 2.692 2.763 4.824-.12.728.314 1.966.965 2.75.904 1.09.907 1.758.012 2.837-.761.917-.82 1.628-.166 2.032.552.342.751 1.282.441 2.089-.309.807-.017 1.468.651 1.468s.955.674.638 1.5c-.316.825-.176 1.5.312 1.5.487 0 1.537.25 2.332.555 1.059.406 1.617-.52 2.088-3.467.451-2.823 1.048-3.865 2.005-3.498.805.309 1.582-.319 1.9-1.533.313-1.197.054-2.063-.619-2.072-.646-.009-.495-.443.344-.985 1.055-.682 1.118-.974.215-.985-.937-.011-1.019-.513-.302-1.853 1.148-2.144.346-6.162-1.23-6.162-.713 0-.673-.41.117-1.2.66-.66 1.2-2.017 1.2-3.016 0-2.192 7.008-19.061 17.775-42.784 6.996-15.415 12.975-32.615 17.251-49.627 1.208-4.805 1.145-5.361-1.013-8.852-1.898-3.071-2.057-3.879-.907-4.607 1.115-.707 1.044-.886-.356-.899-.963-.008-1.75-.727-1.75-1.598 0-2.371-2.345-1.126-3.123 1.657-.474 1.699-.708 1.884-.777.617-.055-.995-.55-1.531-1.1-1.191-.55.34-1 .141-1-.441 0-.588-1.999-1.059-4.5-1.059-2.627 0-4.5.461-4.5 1.108 0 .683.96.868 2.5.481 1.375-.345 2.5-.259 2.5.191 0 1.281-6.202 3.117-9.25 2.738-1.512-.188-2.75.068-2.75.57 0 1.172-3.708 1.194-4.43.026-.623-1.009 2.633-2.235 6.625-2.495 3.831-.25 4.752-1.619 1.088-1.619-2.181 0-3.195-.555-3.559-1.946-.747-2.858-4.203-2.173-8.39 1.662m-99.584 13.072c-2.026.415-2.095.699-.771 3.173 1.24 2.318-.195 3.547-5.192 4.447C105.371 392.564 89 400.793 89 402.863c0 .461 3.319 1.62 7.375 2.575 6.725 1.584 7.375 1.956 7.375 4.224 0 1.369.544 3.017 1.209 3.663.934.908 1.132.745.875-.721-.184-1.043.291-2.114 1.055-2.38.929-.323 1.126-.058.596.801-.554.896-.398 1.039.515.475.866-.535 1.068-.418.595.345-.461.747.103 1.15 1.596 1.14 1.858-.013 2.016-.205.809-.985-.949-.613-1.052-.975-.281-.985.674-.008.959-.69.638-1.526-.415-1.082-.121-1.336 1.032-.893.886.34 1.618 1.357 1.626 2.261.013 1.338.18 1.384.899.248.756-1.194.95-1.194 1.341 0 .252.767.336.594.187-.384-.148-.979.595-4.241 1.652-7.249s2.085-6.707 2.283-8.221c.198-1.513.692-3.539 1.099-4.501.406-.962.479-2.425.162-3.25-.316-.825-.139-1.5.393-1.5.533 0 .969-.647.969-1.438 0-1.369-1.363-1.57-5.25-.774m192.323 3.739c.04 1.085.412 4.357.827 7.27.591 4.152.442 5.472-.687 6.104-1.166.652-1.213 1.231-.246 3.038.657 1.228 1.493 1.934 1.858 1.569s1.223 1.284 1.907 3.664l1.243 4.328-.453-4.64c-.422-4.321-.28-4.673 2.07-5.122 2.018-.386 2.398-.158 1.896 1.14-.345.892-.885 2.972-1.199 4.622-.314 1.65-.912 3.45-1.33 4-.418.55-1.09 4.578-1.495 8.95-.584 6.304-1.174 8.316-2.85 9.717-1.163.971-1.642 1.781-1.064 1.8.577.018 1.59-.507 2.25-1.167.66-.66 1.199-.997 1.198-.75-.019 4.355-3.295 29.637-4.015 30.981-.625 1.169-.637 2.065-.032 2.439.585.361.731 7.271.376 17.81-.391 11.603-.251 16.894.431 16.22.556-.55 1.245-8.147 1.53-16.881.286-8.735.94-16.16 1.453-16.5 1.303-.863 2.271-5.119 1.165-5.119-1.545 0-.316-18.427 1.801-27l.617-2.5.802 3c.685 2.564.749 2.39.44-1.196-.292-3.387.053-4.501 1.786-5.778l2.148-1.581-2.196.578c-2.144.564-2.185.403-1.721-6.723 1.03-15.846 1.286-17.192 3.598-18.936 3.84-2.897.963-5.024-4.328-3.201-4.936 1.7-4.96 1.682-5.034-3.808-.033-2.395-.68-5.243-1.439-6.328-1.374-1.963-1.38-1.963-1.307 0m-57.571 3.463c-2.019 9.194-11.864 36.934-17.215 48.51-3.305 7.15-7.661 17.275-9.678 22.5a2200.25 2200.25 0 01-5.581 14.318c-2.016 5.078-1.792 7.682.662 7.682.812 0 1.291.558 1.063 1.241-.228.683.144 1.799.825 2.48.985.985.954 2.185-.152 5.858-1.429 4.749-.792 7.799 1.81 8.666.787.263.416.871-.989 1.623-2.397 1.283-3.08 4.122-.997 4.147.933.012.91.231-.089.864-1.858 1.178 3.803 4.498 10.531 6.175 2.856.712 5.106 1.722 5 2.245-.106.523.433 1.178 1.197 1.456.851.309 1.119.067.691-.625-1.339-2.168 2.334-1.125 4.829 1.37 2.869 2.868 3.591 3.082 3.591 1.061 0-1.239.628-1.226 4.5.094 2.588.881 4.5 2.156 4.5 2.998 0 .806.401 1.217.89.915.49-.303 2.981.619 5.537 2.047l4.647 2.597-3.224 3.297c-3.263 3.337-6.257 4.285-19.35 6.123-2.75.386-4.213.885-3.25 1.108.963.224 1.75.856 1.75 1.405s.756.241 1.681-.683c1.242-1.242 2.806-1.555 5.982-1.197 2.365.267 4.087.14 3.827-.281-.418-.677 6.55-2.069 7.308-1.461.163.131-.358.894-1.16 1.696-.95.95-1.146 1.948-.563 2.869.686 1.083.898 1.107.91.103.008-.733.523-.995 1.17-.596.641.397.885.279.549-.265-.853-1.379 7.785-5.441 8.996-4.23.603.603 1.883.089 3.487-1.398 1.975-1.83 3.048-2.159 4.859-1.489 3.232 1.195 4.954.284 4.954-2.623 0-3.692 1.368-3.859 4.534-.554 1.562 1.63 3.297 2.964 3.856 2.964.559 0-.65-1.706-2.687-3.792S288 525.846 288 525.149c0-.697-.429-1.002-.953-.678-.84.519-2.502-4.03-3.641-9.967-.212-1.102-1.254-6.504-2.317-12.004-3.212-16.628-3.471-23.831-1.028-28.619 1.143-2.241 1.855-4.299 1.581-4.572-.274-.274-1.389 1.232-2.48 3.347l-1.982 3.844-.626-3c-.344-1.65-1.306-5.072-2.138-7.605-.832-2.533-1.378-5.011-1.214-5.507.32-.969-2.981-12.54-6.816-23.888-1.301-3.85-2.619-8.575-2.928-10.5-.309-1.925-1.254-5.894-2.101-8.82-1.398-4.831-1.393-5.482.052-7.079.875-.967 1.591-2.372 1.591-3.121 0-.887-.512-.685-1.468.579-1.416 1.872-1.47 1.852-1.5-.586-.018-1.391-.658-3.422-1.423-4.514-.765-1.093-2.283-4.891-3.373-8.441l-1.981-6.454-.753 3.426M372.5 407.716c-9.713 2.92-11.995 3.877-11.5 4.826.275.527.95.779 1.5.56.55-.219 3.087-.334 5.638-.255 2.551.079 6.496-.512 8.767-1.314 4.27-1.506 8.562-1.078 5.929.591-.808.512 1.031.825 4.666.793 5.137-.045 5.64-.203 3.5-1.102-1.375-.578-4.075-1.846-6-2.818-5.398-2.726-7.11-2.902-12.5-1.281m-211.412 5.666c-1.125 1.365-1.601 1.449-2.344.415-.71-.987-.817-.927-.446.253.267.853-.124 2.653-.871 4-1.085 1.96-1.363 2.088-1.392.641-.019-.995-.485-1.531-1.035-1.191-.55.34-1 .066-1-.608 0-.674-.266-.959-.591-.634-.925.925.623 4.84 1.66 4.199.528-.326.497.554-.072 2.051-1.453 3.822-1.185 14.224.515 19.992l1.474 5-.438-6c-.241-3.3-.683-7.123-.983-8.495-.759-3.479.317-6.758 1.605-4.887.643.934.746.337.316-1.846-.82-4.165.172-7.341 2.065-6.614 1.728.663 1.94 4.012.289 4.562-.868.289-.876.876-.03 2.333.838 1.445 1.155 1.56 1.23.447.07-1.044.386-.892 1.041.5.691 1.47.795.94.393-2-.302-2.2-.194-3.505.239-2.899.433.606 2.063 1.338 3.622 1.627 2.4.446 2.759.24 2.343-1.351-.27-1.032-.131-1.877.309-1.877.439 0 1.076-.721 1.413-1.601.519-1.352-.088-1.546-3.893-1.243-2.479.197-4.507.018-4.507-.399 0-.416 1.012-.809 2.25-.873 1.594-.082 1.758-.246.561-.561-.928-.245-1.828-1.393-2-2.549-.289-1.959-.409-1.986-1.723-.392m-44.206 30.168c-.066 1.073-.066 2.287 0 2.7.065.413-.332.75-.882.75s-1-.477-1-1.059-.495-.753-1.101-.379c-.621.384-.853 1.919-.532 3.521.312 1.561.174 3.082-.306 3.379-1.381.854.044 4.831 2.592 7.231 2.16 2.036 2.366 6.055.242 4.742-.492-.304-.895-.076-.895.506s.42 1.059.934 1.059c1.345 0 .252 4.957-1.474 6.683-.803.803-1.446 2.89-1.43 4.638.026 2.668.197 2.894 1.062 1.408.567-.974 1.476-1.496 2.02-1.16.55.34-.108 1.571-1.481 2.771-2.109 1.844-2.262 2.349-1.051 3.449.916.832 1.42.9 1.42.191 0-.604.457-.815 1.016-.47.559.346.787 1 .506 1.454-.281.455.134 1.074.922 1.376 2.311.887 1.173 8.328-1.631 10.665-2.24 1.867-2.248 1.93-.254 1.962 3.4.055 5.783 2.381 4.992 4.874-.812 2.557-2.295 1.962-3.588-1.438-.502-1.322-1.615-2.403-2.473-2.403-1.162 0-1.331.447-.66 1.75 1.305 2.538.422 4.56-1.299 2.971-.726-.672-1.117-1.558-.867-1.971.538-.889-1.065-1.015-1.928-.152-.99.99.391 3.442 1.539 2.732.668-.413.827-.038.426 1.006-.417 1.087-.129 1.664.83 1.664.808 0 1.469-.505 1.469-1.122 0-.761.499-.709 1.547.161 1.039.862 1.191 1.505.462 1.956-.769.475-.781 1.475-.041 3.422.576 1.513.784 3.176.463 3.695-1.065 1.722-1.352 6.888-.383 6.888.523 0 .952.633.952 1.406 0 .914.7 1.224 2 .884 1.1-.288 2-.055 2 .518 0 .586-1.532.899-3.5.716-1.925-.179-3.5.053-3.5.515s1.653.98 3.673 1.151c2.02.17 3.878.935 4.129 1.699.263.797.005 1.11-.603.734-1.9-1.174-1.931.83-.04 2.627 1.713 1.628 1.841 1.632 1.841.05 0-1.28.284-1.416 1.149-.551.865.865.741 1.77-.5 3.664-.907 1.384-1.656 3.545-1.664 4.802-.016 2.395-1.941 6.34-1.97 4.035-.008-.687-.481-1.25-1.05-1.25-.695 0-.712.604-.052 1.838.542 1.011.778 2.924.525 4.25-.386 2.027-.226 1.933 1.006-.588 1.454-2.976 1.467-2.98 1.633-.5.092 1.375.548-.107 1.014-3.294 1.004-6.857 3.591-11.706 6.247-11.706 1.582 0 1.695-.256.662-1.5-.785-.946-.852-1.5-.181-1.5.584 0 1.346.457 1.691 1.016.346.559 1.16.679 1.809.266.65-.413 1.519-.815 1.931-.892.412-.077.993-.196 1.289-.265.296-.069-.344-1.073-1.423-2.231-1.08-1.159-2.434-1.815-3.01-1.459-.59.364-1.347-.549-1.735-2.091-.423-1.686-.263-2.88.415-3.106.606-.202.854-1.013.551-1.803-.303-.789-.026-1.435.615-1.435s.888.45.548 1c-.34.55-.141 1 .441 1s1.059.73 1.059 1.622c0 1.316.279 1.391 1.472.401 1.177-.977 1.793-.901 3.072.378.879.879 2.354 1.606 3.277 1.614 1.265.012 1.359.219.382.839-1.041.659-1 1.07.206 2.07.827.687 1.926.987 2.442.668.517-.319 1.209.123 1.539.983.372.967 1.289 1.344 2.408.989.994-.315 2.683.089 3.754.9 1.072.81 3.073 1.518 4.448 1.574 4.009.164-.543 1.788-5.5 1.962-3.182.112-3.591.316-2 1 1.181.508 1.42.888.583.93-2.04.101-.74 1.089 2.044 1.554 6.258 1.044 24.817 1.415 25.378.507.337-.545-.34-.991-1.505-.991-1.165 0-1.84-.45-1.5-1 .34-.55-.11-1-1-1s-1.34.45-1 1c.723 1.17-2.62 1.27-11.466.346-5.838-.61-6.101-.743-3.897-1.965 2.728-1.512 5.103-1.829 2.863-.381-1.207.78-1.049.972.809.985 1.27.008 2.063-.384 1.761-.871-.718-1.163 2.863-2.082 4.404-1.13.797.492.417 1.002-1.139 1.529-2.149.727-2.065.824 1.06 1.213 3.399.423 5.592-1.13 4.375-3.098-.345-.558.107-.697 1.066-.329 1.989.763 2.137-.269.383-2.669-.732-1.001-2.676-1.791-4.536-1.844-1.79-.051-3.464-.431-3.72-.845-.256-.414-1.365-.518-2.464-.23-1.457.38-2.02.016-2.078-1.344-.044-1.054-.299-1.322-.583-.617-.747 1.85-3.764 1.521-7.781-.849-3.611-2.13-4.792-3.589-2.057-2.539.825.316 1.5.139 1.5-.393a.97.97 0 00-.968-.969c-.589 0-.635-.88-.116-2.25.517-1.366 1.526-2.126 2.568-1.933 1.139.21 1.463-.094.962-.905-.483-.78-.338-.964.399-.507 1.806 1.116 3.312-.302 2.28-2.147-1.035-1.848-4.293-2.604-5.163-1.196-.323.522-2.472-.663-4.775-2.634-4.62-3.955-5.198-3.599-2.183 1.346 3.78 6.2 2.125 9.015-3.844 6.535-2.764-1.149-3.13-1.64-2.127-2.848.746-.9.813-1.461.173-1.461-.572 0-1.304.563-1.627 1.25-.324.688-.424.013-.222-1.5.267-2.009-.068-2.754-1.246-2.765-1.265-.012-1.325-.197-.276-.862.735-.466 1.3-1.246 1.255-1.735-.178-1.968 2.136-7.388 3.154-7.388.599 0 .807-.282.463-.627-.345-.345.03-1.897.833-3.45 2.406-4.653 1.579-5.657-1.598-1.94-1.637 1.916-2.769 4.025-2.515 4.686.254.662-.414 2.316-1.483 3.675-1.069 1.359-1.944 3.174-1.944 4.032 0 2.222-2.757.927-3.66-1.718-.405-1.187-.623-2.567-.485-3.066.138-.5-.232-1.207-.822-1.571-2.914-1.802-7.116-24.403-4.718-25.38.865-.353.872-.504.029-.562-1.367-.093-.65-3.675 1.311-6.552 1.32-1.935 1.345-1.932 1.345.191 0 1.19-.45 2.442-1 2.782-.55.34-1 1.111-1 1.714s.835.34 1.857-.584c2.028-1.836 1.811-6.63-.3-6.63-.787 0-1.05-1.094-.752-3.127.516-3.513-2.018-3.79-2.652-.29-.191 1.054-.81 2.367-1.375 2.917-.694.675-.872.513-.547-.5.265-.825.114-2.497-.336-3.715-.476-1.286-.416-2.463.143-2.809 1.822-1.126 1.141-6.328-.788-6.016-1.884.305-4.25-1.143-4.25-2.601 0-.494 1.147-.609 2.549-.257 2.387.599 2.506.456 1.871-2.231-.878-3.715-2.383-5.387-2.538-2.821m59.809 5.2c.78 2.171 3.869 5.25 5.267 5.25.573 0 1.042.337 1.043.75 0 .413 1.125.815 2.5.894 1.374.08 2.499-.258 2.499-.75s.505-.894 1.122-.894c.807 0 .794.397-.048 1.411-.801.965-.839 1.616-.123 2.059.577.356 1.049.234 1.049-.272 0-1.281 4.706-.257 6.003 1.306.851 1.025 2.061.802 6.031-1.113 5.16-2.489 6.212-4.557 3.216-6.323-1.525-.899-1.557-1.158-.25-2.021 1.029-.679-1.899-.93-9.327-.799-5.954.105-11.045.545-11.313.979-.268.434-1.166.11-1.995-.719-2.206-2.206-6.487-2.024-5.674.242m50.708 35.651c-.343.896-.391 2.522-.106 3.613.286 1.091.111 2.236-.387 2.544-.498.308-.906 1.208-.906 2.001 0 1.816 3.813 1.887 5.921.11.869-.731 3.716-2.119 6.329-3.082 7.011-2.586 6.743-5.582-.5-5.601-2.887-.007-6.257-.283-7.488-.613-1.539-.413-2.433-.092-2.863 1.028m-65.8.439c-.427.69-1.618.971-2.683.633-1.352-.429-1.916-.129-1.916 1.019 0 1.018-.468 1.357-1.25.907-.687-.396-.934-.369-.548.06.825.915-1.546 3.541-3.198 3.541-1.317 0-.307 4.132 1.256 5.136.544.35.99 1.813.99 3.25 0 1.551.559 2.614 1.375 2.614.756 0 1.375.765 1.375 1.7 0 1.256.293 1.407 1.122.578 1.188-1.188 4.19-.592 3.406.676-.253.41.666 1.347 2.041 2.083 1.376.736 2.28 1.915 2.01 2.619-.271.704-.108 1.517.36 1.806.468.29 1.148-.246 1.51-1.19.564-1.471.792-1.506 1.589-.244.512.81.945 1.022.962.472.017-.55.467-.325 1 .5.646 1 .974 1.083.985.25.008-.687.52-1.25 1.137-1.25.758 0 .703.506-.169 1.556-1.068 1.287-1.046 1.504.128 1.25.984-.212 1.329.46 1.124 2.194-.233 1.976-.079 2.186.734 1 .565-.825.759-2.968.431-4.762-.475-2.593-.299-3.148.856-2.705.8.307 2.027-.133 2.727-.976.701-.844 1.673-1.288 2.16-.987.488.301.887.071.887-.511s-.675-1.059-1.5-1.059-1.5-.45-1.5-1 1.125-1 2.5-1c2.975 0 3.346-1.966.511-2.707-1.094-.286-1.742-.918-1.442-1.405.701-1.134-2.031-5.093-2.909-4.215-.363.363-.66.109-.66-.565 0-.674-.45-.948-1-.608-.55.34-1.014-.196-1.032-1.191-.029-1.688-.13-1.679-1.5.132-1.401 1.852-1.473 1.806-1.584-1-.067-1.687-.311-2.195-.573-1.191-.559 2.138-2.311 2.327-2.311.25 0-.825-.477-1.5-1.059-1.5s-.781-.45-.441-1-.084-1-.941-1-1.559-.477-1.559-1.059-.412-.805-.915-.494c-.503.311-1.095.022-1.317-.642-.309-.929-.578-.921-1.169.035m149.036 17.942c-1.011 1.635-.311 27.315.792 29.1.234.378.741 3.484 1.128 6.903.387 3.418 1.053 6.215 1.481 6.215.427 0 .533 1.013.234 2.25-.437 1.815-.29 2.015.761 1.033 1.044-.975 1.069-2.263.126-6.5-1.508-6.771-3.224-29.294-2.554-33.519.542-3.424-.847-7.295-1.968-5.482M204 503.476c0 .262 1.688 1.367 3.75 2.456 2.063 1.089 3.188 1.999 2.5 2.024-.687.024-1.197.381-1.132.794.295 1.867-.218 2.412-1.371 1.455-2.335-1.938-5.305 1.275-3.942 4.266 1.595 3.502.709 5.024-4 6.874-4.029 1.582-6.382 1.397-5.262-.414.316-.512.098-.931-.484-.931a1.063 1.063 0 01-1.059-1.059c0-.582.45-.781 1-.441s1 .179 1-.358c0-.536-.529-1.152-1.176-1.367-.647-.216-1.737-2.166-2.421-4.334l-1.245-3.941.361 5c.198 2.75.439 5 .535 5 .096 0 .318 1.207.495 2.682.375 3.132-2.19 6.017-3.486 3.92-.599-.969-.933-.883-1.412.366-.527 1.372-1.633 1.533-6.877.996-3.437-.352-6.561-.832-6.942-1.068-.382-.236-.976.029-1.322.588-.345.559.088 1.016.962 1.016.875 0 1.856.691 2.18 1.535.858 2.238 8.842 7.465 11.401 7.465 1.835 0 1.989-.244.947-1.5-1.004-1.209-.979-1.503.128-1.515 1.078-.012 1.05-.224-.128-.985-1.333-.862-1.333-.968 0-.953.825.009 2.391.69 3.481 1.514 1.218.921 3.009 1.271 4.654.909 1.477-.324 2.972-.106 3.339.488.365.591 1.102.804 1.637.474 1.073-.664 15.092 3.327 15.889 4.523.77 1.155 11.286 2.317 10.576 1.168-.329-.533-2.056-1.281-3.837-1.662-1.782-.38-3.701-1.062-4.266-1.514-.565-.452-4.39-1.573-8.5-2.491-4.11-.919-7.865-2.037-8.345-2.485-.479-.448-1.492-.577-2.25-.286s-1.378.093-1.378-.439c0-.533-1.061-.766-2.359-.518-1.54.295-2.57-.101-2.968-1.138-.379-.989-.055-1.637.858-1.715 2.32-.197 2.781-.359 6.092-2.127 1.718-.918 3.405-1.461 3.75-1.208.345.253.409.167.143-.191-.267-.358.261-1.197 1.173-1.863 1.326-.97 2.717-.84 6.959.651 2.916 1.024 6.438 1.863 7.827 1.863 1.389 0 2.525.45 2.525 1s.9 1 2 1 2-.441 2-.981c0-.992-1.308-1.386-8.449-2.544-6.175-1.001-8.075-2.691-5.573-4.955 1.088-.985 2.964-1.843 4.168-1.906 2.173-.113 4.019-2.614 1.929-2.614-.74 0-.692-.64.147-1.984 1.68-2.69-.404-4.697-7.38-7.106-5.656-1.953-6.842-2.202-6.842-1.434m-62.921 45.774c-.069 1.533-1.841 2.282-4.383 1.851-.442-.075-1.427.487-2.19 1.25-.763.763-2.539 1.261-3.946 1.106-1.408-.154-2.56.129-2.56.631s.9.912 2 .912 2 .498 2 1.107-.646.859-1.435.556c-.79-.303-1.638-.013-1.886.643-.297.79-.944.551-1.912-.707-1.011-1.315-1.681-1.547-2.173-.75-.392.633-.284 1.151.24 1.151s1.23.725 1.57 1.611c.436 1.135.187 1.446-.842 1.051s-1.277-.084-.841 1.053c.365.952.207 1.359-.385.992-.553-.341-1.079-2.514-1.17-4.83-.231-5.904-1.166-6.228-1.166-.404 0 3.399.512 5.2 1.75 6.15 1.625 1.248 1.575 1.393-.696 2.029-2.269.634-2.305.739-.5 1.446 1.799.704 1.776.767-.304.832-1.237.038-2.25.478-2.25.976 0 .499 1.013.653 2.25.343 2.231-.558 2.234-.544.345 1.594-1.783 2.019-1.791 2.157-.128 2.157 1.467 0 1.56.262.533 1.5-1.02 1.229-.951 1.5.378 1.5 1.011 0 1.628.847 1.637 2.25.013 1.803.203 1.953.961.755.811-1.283 1.159-1.212 2.453.5.829 1.097 1.522 2.28 1.539 2.628.042.826 4.134 2.137 5.926 1.899.766-.102 1.766.411 2.221 1.141.639 1.023 1.198.803 2.442-.963 1.032-1.466 2.243-2.091 3.362-1.736 1.345.427 1.703.033 1.548-1.709-.111-1.246.527-3.129 1.416-4.185 1.493-1.772 1.49-1.873-.04-1.317-2.323.845-4.867-5.005-2.753-6.333.776-.486 2.31-.61 3.41-.274l2 .61-2-2.279c-1.433-1.633-1.644-2.404-.744-2.719.691-.241.995-.862.676-1.378-.319-.517-.21-.875.244-.796 3.056.531 3.378-.315.97-2.546-3.026-2.805-3.266-3.548-1.146-3.548.825 0 1.5-.45 1.5-1 0-1.214-2.187-.884-3.316.5-.448.55-.496-.121-.105-1.492.617-2.169.509-2.326-.838-1.208-1.316 1.092-1.699.867-2.565-1.508-.632-1.734-1.048-2.129-1.097-1.042m174.104 2.967c-.65.65-1.233.755-1.295.233-.061-.522-.856 2.2-1.767 6.05-1.446 6.11-1.972 7.051-4.139 7.403-2.383.386-2.396.426-.318 1l2.165.597-2.4 7.5c-1.321 4.125-2.257 7.95-2.081 8.5.411 1.284 5.338-13.485 7.614-22.822l1.749-7.178 1.677 3.794c.921 2.087 1.434 4.186 1.138 4.665-.296.478.027 1.105.718 1.393.896.372.699.971-.685 2.085-1.905 1.534-1.9 1.563.227 1.563 1.293 0 2.842 1.11 3.839 2.75 7.367 12.12 18.27 25.037 19.481 23.078.527-.853.199-1.541-.936-1.961-4.607-1.704-16.584-19.751-20.393-30.728-3.506-10.104-3.105-9.411-4.594-7.922" fill="#d3d3d3" fill-rule="evenodd"/></svg>