<svg xmlns="http://www.w3.org/2000/svg" width="500" height="375"><path d="M248.749 44.114c-14.483 1.397-32.416 6.677-42.251 12.44C187.223 67.85 179.147 94.861 185.137 128c2.422 13.403 4.733 32.149 4.152 33.679-.247.648-3.45 1.458-7.119 1.798-15.758 1.463-32.754 3.794-33.784 4.634-4.989 4.067-4.401 42.489 1.216 79.389 2.076 13.64 1.889 13.238 6.518 14.02l4.036.682-2.328 1.613c-1.28.887-3.148 2.642-4.151 3.899-1.002 1.257-2.513 2.286-3.357 2.286-.953 0-1.316.568-.958 1.5.316.825.027 1.552-.643 1.615-.671.064-1.736.176-2.369.25-.632.074-2.337 1.414-3.788 2.977-1.647 1.775-3.229 2.616-4.211 2.239-1.086-.416-1.404-.161-1.025.825.637 1.661-1.63 2.798-3.867 1.94-.847-.325-1.469-.199-1.381.281.378 2.074-.14 5.363-.828 5.255-1.993-.315-3.306.219-2.75 1.118.34.55.115 1-.5 1s-.793.526-.395 1.17c.48.777.186.964-.874.557-1.769-.679-2.543 1.86-2.629 8.624-.038 3.029.377 3.961 1.946 4.372 1.566.409 1.748.817.851 1.899-.862 1.038-.853 1.378.038 1.378.649 0 .873.499.495 1.109-.792 1.282 4.395 6.116 5.698 5.31.479-.295.87.165.87 1.022s.702 1.559 1.559 1.559 1.286.441.953.981c-.339.548 1.212 1.271 3.522 1.64 2.312.37 3.615.978 2.963 1.381-1.09.674 2.355 2.38 4.253 2.106.412-.059.75.369.75.951s.45.781 1 .441 1.009-.254 1.021.191c.011.445 2.477 1.934 5.479 3.309 3.002 1.375 5.468 2.837 5.479 3.25.012.413.705.75 1.541.75s3.242 1.087 5.347 2.416c3.744 2.364 18.94 8.033 26.052 9.72 3.441.816 98.282-.724 102.732-1.668 1.997-.424 2.202-1.28 2.87-11.962.677-10.833 1.066-12.045 3.729-11.624.413.065.75-.302.75-.815 0-.513.923-1.225 2.051-1.583 2.613-.829 8.025-6.074 7.161-6.939-.36-.36.008-1.072.817-1.584.918-.58 1.019-.936.269-.946-.661-.008-.201-1.096 1.024-2.417 2.089-2.255 3.636-8.308 1.838-7.197-.455.281-.844-.032-.866-.695-.134-4.086-3.178-7.214-8.951-9.199-6.449-2.217-3.383-3.006 12.879-3.316 8.927-.171 16.401-.48 16.609-.688 1.628-1.629 10.208-39.185 9.249-40.491-.61-.831-1.587-2.723-2.172-4.203-.588-1.489-1.987-2.828-3.133-3-1.139-.17-2.567-1.199-3.173-2.286-.606-1.087-1.627-2.437-2.268-3-.641-.563-1.319-1.923-1.508-3.023-.245-1.433-1.261-2.089-3.584-2.313-1.783-.173-3.242-.783-3.242-1.357s-.729-.764-1.621-.422c-1.234.473-1.498.157-1.11-1.329.531-2.031-.853-3.064-5.059-3.772-1.259-.212-3.171-1.268-4.25-2.347-2.053-2.053-3.96-2.575-3.96-1.085 0 .481-1.219.875-2.708.875-1.49 0-2.878.509-3.086 1.131-.207.622-.757.896-1.222.609-.465-.287-1.128-.065-1.474.494-.345.559-.103 1.016.538 1.016s.907.675.59 1.5c-.316.825-.113 1.5.452 1.5.566 0 .732.479.37 1.065-.442.715-1.201.588-2.309-.385-.908-.798-2.887-1.308-4.398-1.134-1.511.174-3.391-.327-4.179-1.115-1.639-1.639-2.995-1.921-2.074-.431.821 1.329.393 1.271-3.918-.53-2.015-.842-3.393-1.967-3.063-2.5.329-.534-.072-.97-.893-.97-.82 0-1.774-.891-2.12-1.98-.345-1.089-1.163-1.876-1.817-1.75-.654.127-1.189-.445-1.189-1.27s-.804-2.099-1.786-2.832c-1.272-.948-1.719-2.459-1.554-5.25.231-3.925 1.154-5.01 2.268-2.668.327.688.382.145.123-1.205-.259-1.351.032-9.833.648-18.849 1.578-23.126-1.896-52.865-7.851-67.196-.8-1.925-1.591-6.583-1.757-10.352-.199-4.496-.782-7.155-1.697-7.735-1.166-.738-1.148-.887.106-.913 1.035-.021 1.139-.26.335-.772-1.146-.729-1.384-9.211-.258-9.222.317-.003.448-1.469.291-3.256-.156-1.787-.05-2.487.236-1.555.798 2.593 3.41.966 3.296-2.052l-.099-2.643L270 76l-.801 2.5-.099-2.643c-.099-2.61 2.61-4.813 3.82-3.107.319.449 1.105.802 1.747.783 1.459-.041 3.047-1.533 1.631-1.533-.569 0-1.275-1.792-1.569-3.983-.962-7.176-12.283-25.171-15.653-24.882-.867.074-5.514.515-10.327.979m76.439 215.846c.175 1.94-.41 2.951-1.938 3.351-1.617.422-1.613.466.059.573.995.064 1.531.566 1.191 1.116-.34.55-.141 1 .441 1 2.139 0 .976 2.131-1.799 3.298-3.565 1.499-3.74 2.833-.589 4.484 1.346.705 2.447 1.766 2.447 2.357 0 .591.675.816 1.5.499.825-.316 1.5-.202 1.5.255 0 .456 1.238.593 2.75.303s2.178-.718 1.48-.952c-.842-.281-.466-1.057 1.116-2.301 1.602-1.261 2.295-2.709 2.108-4.41-.153-1.393.132-2.533.634-2.533s.876-.788.833-1.75c-.047-1.045-.282-1.247-.583-.5-.808 2.003-2.338 1.442-2.338-.857 0-1.462-.459-1.931-1.5-1.531-.888.341-1.5.01-1.5-.81 0-.762.563-1.602 1.25-1.867.688-.265-.631-.433-2.93-.374-2.299.06-4.158.352-4.132.649m-95.747 32.508c-1.067.808-2.953 1.483-4.191 1.5-2.556.036-6.686 3.644-5.214 4.555.53.327.957 1.131.949 1.786-.01.736-.428.618-1.095-.309-.915-1.273-.995-1.24-.527.221.304.947-.165 2.438-1.041 3.314-1.189 1.189-1.305 1.882-.458 2.729.848.848 1.136.832 1.136-.064 0-.66.45-1.2 1-1.2s1 .675 1 1.5c0 1.972-4.966 1.993-7.559.032-1.835-1.388-1.053-2.102 1.809-1.65.412.065.75-.383.75-.995 0-.668-1.197-.938-2.988-.675-2.199.322-3.132-.015-3.533-1.279-.861-2.712-6.479-3.356-6.479-.743 0 .563.713.751 1.584.416 1.006-.386 1.429-.151 1.162.643-.236.701-2.178 1.289-4.414 1.337-2.195.047-4.471.382-5.057.744-.586.362-1.354-.094-1.707-1.013-.58-1.511-.791-1.522-2.193-.121-1.616 1.616-1.074 12.804.621 12.804.42 0 .671 1.913.557 4.25-.295 6.026.742 9.231 3.024 9.352 4.713.25 4.764.282 3.295 2.059-1.232 1.492-1.09 1.608 1.402 1.134 1.525-.29 3.019-.13 3.319.355.3.486.964.624 1.476.307 1.643-1.015 3.148.576 1.931 2.043-.759.914-.774 1.522-.049 1.97 1.915 1.184 1.105 2.682-1.076 1.99-1.564-.496-1.919-.341-1.345.588 1.082 1.752 68.41.668 69.514-1.119.403-.652 1.236-.874 1.851-.494.616.381 1.42-.091 1.787-1.049.546-1.423.772-1.475 1.243-.282.414 1.049 1.414 1.272 3.575.795 2.239-.495 2.445-.692.809-.781-3.153-.17-3.951-2.118-.868-2.118 1.407 0 2.559-.459 2.559-1.019 0-.586 1.168-.772 2.75-.437 2.292.485 2.459.397 1-.531-.962-.612-1.75-1.71-1.75-2.44 0-1.906-2.686-4.015-3.189-2.505-.243.729-.92.493-1.848-.646-1.313-1.613-1.284-1.729.287-1.141.994.373 1.75.188 1.75-.429 0-.618-1.076-.88-2.5-.607-2.726.521-3.169-.176-1.3-2.045.933-.933.829-1.2-.469-1.2-1.072 0-1.463-.536-1.093-1.5.365-.95-.013-1.5-1.031-1.5-.884 0-1.607-.45-1.607-1s.477-1 1.059-1 .751-.498.375-1.107c-.491-.794-.892-.77-1.42.085-.496.801-.911.525-1.269-.846-.293-1.12-.243-2.209.111-2.42.354-.211.135-.268-.486-.126-.661.152-1.08-.955-1.011-2.663.066-1.608.673-2.923 1.349-2.923.682 0 .973.668.654 1.5-.374.974.025 1.5 1.138 1.5 1.096 0 1.511.529 1.151 1.468-.31.807-.133 1.734.393 2.059 1.035.64 1.063.555 1.426-4.277.213-2.837-.062-3.25-2.172-3.25-1.329 0-2.167-.403-1.863-.895.305-.493-.123-1.155-.949-1.472-.827-.317-2.022-1.714-2.655-3.105-.754-1.655-1.96-2.528-3.492-2.528-1.412 0-2.339-.594-2.339-1.5 0-.825-.45-1.5-1-1.5s-1 .9-1 2c0 2.309-.032 2.319-3.435 1.025-1.411-.537-2.565-.585-2.565-.109 0 .477 1.214 1.172 2.698 1.544 2.115.531 2.385.875 1.25 1.593-1.161.735-1.178.919-.083.932 1.082.012 1.025.534-.273 2.515-1.204 1.837-1.3 2.504-.365 2.515.999.012.99.195-.041.849-2.101 1.332-7.718-1.787-8.911-4.947-.779-2.062-.757-2.935.08-3.245.63-.234-.205-.743-1.855-1.132-5.035-1.186-5.523-1.436-6.185-3.162-.397-1.033.065-2.183 1.214-3.023 1.761-1.288 1.742-1.355-.397-1.355-1.517 0-2.016.407-1.531 1.25.396.688.363.928-.072.535-1.168-1.054-4.529 1.04-4.529 2.822 0 1.37-.169 1.367-1.564-.028-.86-.86-1.312-1.97-1.006-2.467 1.382-2.235-5.185-2.764-7.989-.644" fill="#d3d3d3" fill-rule="evenodd"/></svg>