<svg xmlns="http://www.w3.org/2000/svg" width="500" height="499"><path d="M0 249.5V499h99.5c97.825 0 99.5-.033 99.5-1.941 0-1.068.43-2.207.956-2.532.526-.325.736-1.165.467-1.867-.27-.702.379-2.279 1.441-3.503 1.062-1.224 1.721-3.028 1.464-4.009-.784-3.001 11.471-6.087 21.326-5.369 5.663.412 6.259.259 7.463-1.916.719-1.3 1.242-2.611 1.162-2.914-.081-.303 1.849-1.141 4.287-1.861 4.611-1.361 6.365-3.789 1.934-2.677-1.513.379-2.5.2-2.5-.455 0-.595-.787-.984-1.75-.865s-2.537-.126-3.5-.544c-.962-.419-2.425-.502-3.25-.185-.825.316-1.5.159-1.5-.351 0-.509-2.137-.852-4.75-.762-5.009.172-20.265-1.162-21.441-1.875-.38-.23-3.98-.675-8-.987-4.02-.313-10.088-1.141-13.484-1.84-3.396-.699-8.233-1.185-10.75-1.081-2.516.105-4.575-.182-4.575-.637 0-.456-.58-.829-1.289-.829-.708 0-3.053-.9-5.211-2-2.158-1.1-4.562-2-5.344-2s-2.149-.811-3.039-1.801c-2.739-3.052-8.722-7.199-10.384-7.199-.903 0-2.051-1.433-2.684-3.352-.609-1.844-2.444-4.85-4.078-6.68-1.634-1.831-2.971-4.121-2.971-5.089 0-.969-.481-2.058-1.068-2.421-.588-.363-.838-1.261-.556-1.995.281-.733.042-1.49-.533-1.682-1.956-.652-.988-20.697 1.123-23.24.706-.851 1.284-2.706 1.284-4.123 0-1.417.616-2.813 1.369-3.102.753-.289 1.121-.928.816-1.421-.304-.492-.014-.895.646-.895 2.091 0 5.698-5.726 6.6-10.479.207-1.088.769-2.371 1.249-2.851.48-.48.536-2.064.125-3.521-.411-1.457-.554-3.211-.318-3.899.236-.687-.037-1.25-.607-1.25-1.538 0-.864-5.292.87-6.832 1.315-1.167 1.284-1.263-.25-.781-.962.303-1.75.063-1.75-.532 0-.633 1.244-.899 3-.642 2.047.301 3 .019 3-.886 0-.73-.675-1.327-1.5-1.327s-1.5-.423-1.5-.941c0-1.389 1.773-2.24 2.172-1.042.5 1.5 6.828.007 6.828-1.611 0-.862.626-1.109 1.75-.687 1.489.558 1.559.42.467-.924-1.823-2.244-5.558-3.126-4.793-1.132.32.835.342 1.907.047 2.384-.78 1.262-3.471-.02-3.471-1.654 0-.766-.562-1.438-1.25-1.493-.687-.055-.251-.392.97-.75 1.689-.495 1.988-1.008 1.25-2.15-.661-1.022-1.209-1.153-1.72-.412-1.74 2.523-5.415 2.332-7.78-.404l-2.321-2.684-2.914 3.25c-1.602 1.787-3.462 3.25-4.133 3.25-.671 0-.942.45-.602 1 .34.55.31 1.498-.066 2.107-.477.771-.944.696-1.544-.25-.628-.991-.864-.75-.875.893-.008 1.238-.454 2.25-.99 2.25-1.071 0-4.076 6.237-6.022 12.5-.684 2.2-1.89 5.532-2.681 7.405-1.176 2.786-1.2 3.556-.13 4.235.918.582.637.834-.942.845-2.547.017-3.017 1.507-.75 2.377.825.316 1.5 1.264 1.5 2.107 0 2.237-1.757 1.871-2.517-.524-.858-2.703-2.691-2-3.595 1.38-.579 2.168-.297 2.917 1.446 3.834 2.764 1.455 3.632 2.784 3.651 5.591.018 2.637.605 2.803 2.658.75 2.307-2.307 3.142-1.806 2.917 1.75-.144 2.26-.641 3.137-1.633 2.878-.785-.204-2.327-.62-3.427-.923-1.736-.479-1.826-.339-.682 1.056 1.47 1.794 1.239 7.911-.318 8.397-2.434.758-17.602-34.992-26.798-63.158C75.537 321.425 68.631 281 73 281c1.041 0 1.355 1.271 1.052 4.25-.12 1.187.525 1.75 2.008 1.75 1.716 0 1.945-.289 1.07-1.343-1.94-2.338-3.066-13.744-1.419-14.376.772-.297 1.151-1.198.842-2.003-.309-.805-.063-4.46.547-8.121.61-3.661 1.229-7.557 1.377-8.657.147-1.1.337-2 .422-2 .084 0 .261-4.5.393-10 .212-8.859.58-10.669 3.224-15.865 4.791-9.415 4.922-9.635 5.721-9.635.42 0 .763-.8.763-1.778 0-2.854 3.635-5.222 8.015-5.222 2.196 0 5.671-.9 7.724-2 2.052-1.1 4.503-2 5.447-2 5.679 0 11.84-2.254 12.414-4.542.759-3.024 2.37-4.345 6.006-4.925 5.697-.907 8.916-1.819 10.304-2.917.775-.614 2.35-1.152 3.5-1.195 1.149-.043 4.543-.156 7.54-.25 4.239-.133 5.183-.438 4.25-1.371-1.852-1.852-1.434-2.8 1.234-2.8 1.897 0 2.515.606 2.807 2.75l.373 2.75 1.168-2.75c1.761-4.145 4.565-3.291 5.777 1.76.394 1.645 1.096 3.475 1.558 4.068.935 1.196-.344 6.606-2.039 8.625-6.248 7.447-11.173 15.031-15.452 23.797-6.948 14.232-5.894 12.84-26.365 34.806-3.431 3.682-6.243 7.053-6.25 7.491-.006.439-1.929 2.743-4.272 5.12-4.735 4.802-6.947 8.391-7.122 11.554-.065 1.157-.61 2.425-1.212 2.817-2.551 1.659-3.347 13.456-1.087 16.101 4.503 5.27 7.682 13.562 7.682 20.039 0 6.095.3 6.995 4.127 12.389 3.86 5.441 4.363 5.801 7.778 5.554 2.008-.145 4.154.047 4.768.427.615.38 1.375.018 1.691-.804.624-1.626 3.665-2.004 5.186-.644 1.91 1.707 9.526 4.122 16.154 5.121 3.738.563 8.259 1.271 10.046 1.572 2.354.397 3.25.169 3.25-.824 0-.943-.9-1.241-2.873-.951-2.063.303-3.467-.217-4.983-1.844-2.005-2.152-2.205-2.179-4.008-.547-2.686 2.431-4.669.205-5.518-6.195-1.149-8.662 1.738-12.917 5.923-8.732l2.558 2.558 1.413-3.383c1.891-4.526 4.024-5.18 7.044-2.16l2.444 2.444 2.417-2.417c2.156-2.156 2.994-2.35 7.75-1.791 2.939.346 5.829 1.3 6.438 2.126 1.111 1.505 4.395 1.03 4.395-.635 0-.922-4.369-3.192-6.143-3.192-.576 0-2.388-.954-4.026-2.12-2.396-1.706-3.969-2.025-8.054-1.633-4.202.404-5.987.01-10.353-2.287-2.902-1.526-5.056-2.995-4.787-3.263.268-.269-2.126-.444-5.32-.389-6.675.114-6.928-.261-5.874-8.7.624-4.992.779-5.197 5.849-7.686a722.24 722.24 0 0011.701-5.928c3.572-1.853 8.747-3.94 11.5-4.637 8.721-2.206 18.868-5.941 19.25-7.085.202-.606-.67-1.417-1.938-1.802-3.224-.979-6.805-4.471-6.805-6.637 0-6.831-4.901-11.366-11.003-10.181-4.435.862-7.396-1.105-10.227-6.794-3.855-7.746-3.758-18.893.185-21.33.593-.366.817-1.088.498-1.604-.319-.516.126-1.209.988-1.54.863-.331 2.293-2.128 3.178-3.993.885-1.865 2.132-3.391 2.772-3.391 1.558 0 6.134-5.305 7.776-9.015.727-1.642 1.625-2.985 1.997-2.985.371 0 1.442-2.363 2.379-5.25s2.585-6.713 3.662-8.5c1.077-1.788 1.677-3.25 1.334-3.25-.68 0 4.035-8.579 6.046-11 2.238-2.694 2.792-8.588.952-10.128-4.714-3.945-9.537-9.189-9.537-10.369 0-2.611-1.185-4.369-2.583-3.833-.86.33-1.417-.087-1.417-1.063 0-.884-.689-1.607-1.531-1.607-.843 0-1.772-.625-2.065-1.389-.302-.787-1.35-1.176-2.417-.897-1.558.407-1.837 0-1.616-2.361.147-1.569-.552-4.047-1.552-5.507-1.001-1.46-1.829-3.035-1.841-3.5-.012-.465-.902-1.971-1.978-3.346s-1.966-3.287-1.978-4.25c-.021-1.669-.404-1.921-3.272-2.15-.687-.055-2.078-.928-3.09-1.94-1.649-1.649-2.947-1.771-12.5-1.171-15.981 1.004-24.233 2.666-27.76 5.594-2.096 1.74-2.798-3.091-.96-6.615.851-1.632 1.55-3.545 1.554-4.249.003-.705.681-1.541 1.506-1.857.825-.317 1.5-1.6 1.5-2.852 0-1.437.739-2.47 2.004-2.801 1.187-.31 1.789-1.086 1.476-1.902-.771-2.008 3.451-6.276 4.837-4.89 1.829 1.829 2.931 1.206 2.301-1.303-.688-2.741 1.512-5.162 3.869-4.257.913.35 1.513.017 1.513-.839 0-.78.787-1.883 1.75-2.45 1.526-.9 1.558-1.16.25-2.034-1.282-.857-1.241-1.006.281-1.019.98-.008 2.071-.802 2.425-1.765.354-.963 1.249-2.115 1.99-2.561.74-.447 1.085-1.234.766-1.75-.319-.517.17-.939 1.086-.939 1.018 0 1.457-.545 1.128-1.401-.32-.834.245-1.607 1.393-1.907 1.062-.278 1.931-1.222 1.931-2.098 0-.877.675-1.594 1.5-1.594s1.5-.364 1.5-.808c0-.445 1.789-2.132 3.976-3.75 2.187-1.618 3.987-3.462 4-4.098.014-.644.873-.935 1.938-.656 1.26.329 2.298-.215 3.036-1.594.616-1.152 1.757-2.094 2.535-2.094.779 0 1.779-.648 2.222-1.441 1.191-2.128 14.63-7.559 18.704-7.559 1.937 0 4.999-.633 6.805-1.407 10.374-4.446 43.702-12.111 56.784-13.06 3.025-.22 9.313-.88 13.974-1.466 15.729-1.98 38.905-.661 43.741 2.49 1.218.794 3.042 1.443 4.053 1.443 6.305 0 17.341 8.909 29.232 23.598 3.025 3.737 6.466 7.805 7.646 9.04 2.016 2.109 13.58 20.263 18.267 28.677 1.169 2.097 1.884 4.204 1.59 4.68-.295.477-.091 1.142.454 1.478.544.336 1.482 2.442 2.084 4.68.603 2.238 2.19 5.084 3.527 6.323 1.338 1.239 2.432 2.963 2.432 3.83s.452 1.855 1.004 2.196c.552.341.728 1.718.391 3.059-.347 1.385-.173 2.439.403 2.439.558 0 .785.879.504 1.953-.683 2.612 1.805 8.043 3.692 8.062 1.338.014 1.338.136.006 1.095-1.266.91-1.227.991.25.516.962-.31 1.75-.127 1.75.405 0 .533-.359.969-.797.969-.438 0-.724 2.306-.634 5.125.089 2.819-.255 6.98-.764 9.248-1.089 4.846.66 12.627 2.838 12.627 1.154 0 1.133.601-.13 3.622-2.034 4.869-1.97 8.378.154 8.378.916 0 1.382.284 1.035.631-.347.348.028 1.573.833 2.723 1.917 2.736 1.898 5.026-.035 4.284-.914-.35-1.5-.001-1.5.893 0 .808.337 1.416.75 1.351 3.012-.476 3.935.347 4.058 3.618.127 3.388-1.179 4.796-2.088 2.25-.76-2.128-1.675-.295-1.049 2.1.378 1.445 1.113 2.063 2.035 1.709 3.841-1.474 6.501 7.238 3.16 10.351-2.338 2.179-1.674 5.005.711 3.026 1.756-1.457 3.187 1.411 1.661 3.327-.542.68-1.296 3.379-1.674 5.996-.631 4.354-.492 4.838 1.623 5.687 2.08.834 2.111.934.313.991-1.903.06-1.997.732-1.945 13.813.064 15.888-1.169 36.733-2.559 43.25-.528 2.475-1.237 7.875-1.575 12-.956 11.655-1.085 12.676-3.351 26.5-2.54 15.504-3.539 20.468-6.204 30.843-2.295 8.934-1.908 11.309.609 3.734 2.009-6.051 2.715-6.629 5.003-4.101 1.664 1.839 1.642 2.269-.476 9.226-5.456 17.922-7.001 26.095-8.942 47.298-3.041 33.234-2.281 47.442 2.828 52.881 2.673 2.845 5.057 8.571 7.127 17.119 1.66 6.854 1.72 6.94 2.87 4.106 1.771-4.363 3.38-17.546 2.729-22.356-.317-2.337-.176-4.25.312-4.25.487 0 .665-.849.393-1.887-.271-1.038-.106-2.126.367-2.419.762-.471 9.299 3.257 13.314 5.814.825.525 2.693 1.021 4.15 1.102 1.458.08 3.708.945 5 1.921 2.511 1.897 7.85 9.551 7.85 11.254 0 .564 1.913 2.164 4.25 3.555 2.337 1.392 5.468 3.685 6.956 5.095 1.489 1.411 3.825 2.565 5.191 2.565 1.367 0 2.763.45 3.103 1 .368.595 6.718 1 15.681 1 13.224 0 14.913-.182 13.829-1.488-1.011-1.218-.896-1.595.627-2.073 1.025-.322 3.438-1.325 5.363-2.23 4.258-2.002 7.812-1.709 10.574.871 2.359 2.204 3.426 1.65 3.426-1.779 0-1.538.787-2.659 2.25-3.205 2.111-.788 2.286-.524 2.837 4.282.323 2.817.66-107.04.75-244.128L501 0H0v249.5m.492.5c0 137.225.116 193.363.258 124.75.142-68.612.142-180.887 0-249.5C.608 56.638.492 112.775.492 250M387.59 98.627c-.344.894-.229 2.132.255 2.75.484.618 1.175 2.36 1.536 3.873.361 1.513 1.099 2.75 1.638 2.75.54 0 .981.59.981 1.312 0 .722.887 3.149 1.972 5.394 1.084 2.244 2.449 6.211 3.033 8.814.583 2.604 1.542 5.634 2.131 6.734.788 1.472.751 2.198-.14 2.748-.693.429-.809.995-.271 1.328.516.319.833 2.288.704 4.375s.411 7.206 1.2 11.375c.788 4.169 1.538 12.044 1.666 17.5.127 5.456.566 10.444.975 11.085.408.64.225 1.337-.407 1.547-.816.272-.854.951-.131 2.336 1.242 2.379 2.225 13.452 1.194 13.452-.961 0 .05 4.102 1.449 5.88.611.777 1.018 4.914.931 9.458-.085 4.442.292 8.912.839 9.932 1.373 2.566 1.343 17.067-.037 17.527-.687.229-.514.939.466 1.92.903.903 1.443 2.868 1.286 4.684-.148 1.72.071 3.678.486 4.351.416.672.516 3.816.222 6.985-.294 3.17-.78 10.381-1.08 16.024-.301 5.644-.986 11.42-1.524 12.834-.538 1.415-.789 2.88-.557 3.255.232.375-.035 2.925-.595 5.666-.559 2.741-1.133 5.659-1.275 6.484a21.883 21.883 0 01-.796 3c-3.824 10.696-4.853 14.029-5.247 17-.727 5.474-1.11 7.024-4.918 19.88-4.164 14.058-4.167 14.087-1.661 13.432 2.415-.632 14.63 4.733 13.029 5.723-.672.415-.875 1.607-.484 2.84.384 1.207.239 2.125-.333 2.125-.574 0-.391 1.184.426 2.75 1.7 3.258 2.068 6.758.447 4.25-.74-1.146-.973-.764-.985 1.615-.014 2.853 3.171 8.385 4.827 8.385 1.098 0 .475-10.083-.696-11.254-.704-.704-.727-1.661-.069-2.89.701-1.31.536-2.703-.572-4.847-1.483-2.867-1.461-3.009.469-3.009 1.54 0 2.029.66 2.04 2.75.019 3.885 1.045 7.25 2.211 7.25.578 0 .712-1.147.321-2.75a3928.84 3928.84 0 01-1.217-5c-.404-1.667-.104-2.25 1.158-2.25 3.369 0 7.66-3.587 11.687-9.768 4.486-6.884 4.728-6.976 5.492-2.076.829 5.311 1.597 4.843 1.078-.656-.704-7.464 3.981-21.273 9.839-29 6.264-8.262 8.167-12.233 9.413-19.637.589-3.5 1.448-8.285 1.907-10.635.918-4.69-.234-6.525-2.313-3.682-.702.96-2.095 4.606-3.094 8.1-.999 3.495-2.14 6.354-2.535 6.354-1.371 0-2.687-5.535-2.84-11.951-.175-7.329-.867-8.133-5.973-6.941-3.094.723-3.914.535-5.398-1.239-1.127-1.346-1.755-1.606-1.765-.73-.013 1.143-.155 1.141-.882-.007-.567-.895-.242-1.993.94-3.175 1.645-1.645 1.684-2.215.433-6.372-.756-2.511-1.607-6.544-1.892-8.963-.284-2.419-1.16-6.266-1.947-8.549-.786-2.282-1.199-5.033-.917-6.112.282-1.078.123-1.961-.353-1.962-1.457-.002-1.142-10.871.331-11.436 1.666-.64 1.713-2.6.052-2.196-.687.168-.93.122-.539-.101.391-.224.503-1.725.25-3.336a4833.36 4833.36 0 00-.946-5.98c-.295-1.858-.1-2.812.5-2.441.542.335.992 1.595 1 2.8.009 1.205.495 2.866 1.081 3.691 1.151 1.621.547-5.16-.764-8.577-.489-1.275-.319-1.533.628-.948.878.543 1.136.353.795-.586-.278-.764-.983-1.286-1.567-1.16-.667.144-1.063-2.244-1.063-6.402 0-4.104-.46-6.916-1.208-7.378-.665-.411-.943-1.438-.619-2.283.324-.845.277-1.678-.104-1.851-.851-.386-4.297-12.588-4.296-15.213 0-1.044-.685-3.222-1.521-4.841-.837-1.618-1.285-3.558-.996-4.312.29-.754-.062-3.638-.781-6.41-.719-2.771-.923-5.039-.454-5.039.47 0 .886.787.924 1.75.06 1.496.195 1.46.93-.25.473-1.1.891-1.758.93-1.462.038.297.954 2.997 2.034 6 1.685 4.686 1.969 5.029 2 2.412.02-1.678.503-3.517 1.073-4.087.716-.716.716-1.881 0-3.765-1.806-4.75-1.187-6.385 1.078-2.848 2.51 3.92 3.325 4.141 2.453.666-.42-1.675-.283-2.358.392-1.941 1.657 1.024 1.2-1.7-.848-5.058-1.034-1.696-2.209-4.621-2.611-6.5-.403-1.879-1.084-3.867-1.513-4.417-.43-.55-1.362-3.025-2.072-5.5-.709-2.475-2.781-6.189-4.603-8.253-1.822-2.064-3.313-4.426-3.313-5.25 0-1.798-1.985-2.039-2.035-.247-.046 1.597-2.882-3.307-2.93-5.065-.019-.723-1.286-2.366-2.814-3.653-1.529-1.286-3.378-3.457-4.11-4.825-.732-1.368-2.457-3.089-3.833-3.826-1.376-.736-2.89-2.361-3.365-3.61-1.013-2.663-2.442-2.94-3.323-.644M123 149.738c-5.702.382-9.797 3.632-17.677 14.03-3.165 4.176-6.441 14.384-5.126 15.97.577.694.655 1.269.175 1.277-.479.008.253.613 1.628 1.345 2.761 1.469 5.558.221 3.02-1.348-1.24-.766-1.192-1.009.315-1.587.979-.376 1.543-1.3 1.254-2.054-.605-1.576.981-1.876 1.916-.363.955 1.545 3.592-1.592 2.885-3.434-.723-1.885.691-2.067 2.526-.324 1.078 1.024 1.236.662.874-2-.523-3.835-.178-3.963 2.896-1.076 1.444 1.358 2.314 1.687 2.314.878 0-1.039.298-1.05 1.5-.052 1.908 1.584 1.889.098-.032-2.441-1.676-2.217-1.958-5.559-.468-5.559.55 0 1 .353 1 .784 0 .77 5.235 4.216 6.404 4.216.328 0 .596-.955.596-2.122 0-1.774.247-1.918 1.5-.878.825.685 1.514.852 1.53.372.017-.479.489-.085 1.05.878 1.933 3.318 2.828 1.74 1.365-2.406-1.982-5.617-.976-6.2 1.238-.719l1.768 4.375.656-3c.361-1.65.71-2.264.775-1.365.065.899 1.243 2.372 2.618 3.273 2.411 1.58 2.504 1.557 2.616-.635.086-1.694.233-1.827.573-.523.252.963.852 1.75 1.335 1.75.482 0 1.335-.787 1.896-1.75.806-1.384 1.026-1.435 1.05-.243.029 1.452 6.153 3.993 9.623 3.993 1.272 0 1.474-.596.934-2.748-.379-1.511-.765-2.768-.858-2.792-1.542-.398-9.058-6.083-11.848-8.961-2.818-2.906-4.807-3.98-8.5-4.587-4.916-.808-5.709-.817-15.321-.174M300.929 163.5c-1.516 2.991-5.473 3.856-6.921 1.513-1.117-1.807-5.113.081-4.469 2.111.995 3.133-.567 2.094-1.689-1.124-.575-1.65-1.452-3-1.948-3-1.216 0-1.148 1.73.098 2.5.55.34 1 1.491 1 2.559s-.45 1.941-1 1.941-1-.45-1-1-.45-1-1-1-1 .765-1 1.7c0 1.269-.288 1.412-1.136.564-.847-.847-1.502-.769-2.58.309-.795.795-1.859 1.19-2.365.877-.505-.312-.919-.112-.919.446 0 1.514-4.89 6.112-7.594 7.14-1.567.595-2.167 1.422-1.776 2.443.42 1.093.143 1.371-.946.953-1.188-.456-1.406-.083-.956 1.637.535 2.045.685 2.087 1.831.519 2.027-2.771 2.661-.05.946 4.055-1.398 3.346-1.402 3.889-.032 5.258 1.026 1.026 1.527 1.129 1.527.313 0-.668.727-1.214 1.615-1.214 1.482 0 1.481.205-.017 2.49-1.594 2.433-1.574 2.486.885 2.282 1.385-.114 2.517-.785 2.517-1.49s.675-1.282 1.5-1.282 1.507.563 1.515 1.25c.011.893.268.852.899-.146.488-.771 1.605-1.119 2.494-.778.885.34 2.843.11 4.351-.511 2.433-1.003 2.516-1.178.741-1.562-1.1-.238-2.829-1.405-3.843-2.593-1.425-1.669-1.716-1.762-1.281-.41.359 1.12.04 1.75-.888 1.75-.798 0-1.719-1.073-2.049-2.386-.429-1.71-1.122-2.248-2.449-1.901-1.086.284-1.629 1.064-1.314 1.886.59 1.536-1.216 1.955-2.12.491-.93-1.504.328-3.519 2.962-4.746 2.029-.945 2.482-.893 2.482.285 0 1.184.401 1.227 2.247.239 1.396-.747 1.773-1.361.994-1.621-1.392-.464-.696-2.247.877-2.247.55 0 .722.45.382 1-.76 1.229.746 1.324 2.05.129.522-.479 2.223-1.171 3.78-1.539 2.401-.567 2.75-.397 2.307 1.121-.288.984-.654 3.526-.814 5.649l-.292 3.859 6.485.394c3.566.217 7.946.638 9.734.936 3.459.577 4.869-1.991 1.75-3.187-2.111-.811-1.863-2.112.548-2.877 2.572-.817 4.648.855 5.419 4.364.508 2.315 1.377 2.893 5.956 3.957 2.949.686 8.101 2.36 11.449 3.72 7.187 2.921 7.128 2.913 7.128.915 0-.857-.45-1.281-1-.941-.55.34-1-.309-1-1.441 0-1.164-.652-2.059-1.5-2.059-.825 0-1.5-.45-1.5-1s-.579-1-1.286-1c-.707 0-1.285-.9-1.285-2 0-2.752.472-2.575 5.328 2 6 5.651 7.644 4.991 1.955-.784-2.591-2.632-4.712-5.332-4.712-6 0-.669-.562-1.229-1.25-1.245-1.99-.047-7.906-5.909-7.168-7.103.447-.725-.075-.846-1.582-.368-1.541.489-2.033.363-1.561-.401.784-1.269-1.852-4.353-2.86-3.345-.362.362-.91-.303-1.217-1.478-.343-1.311-1.101-1.93-1.961-1.6-.801.308-1.401-.078-1.401-.901 0-.922-1.708-1.77-4.75-2.357-4.432-.857-4.785-1.152-5.276-4.418l-.525-3.5-1.52 3M198.5 258.935c-5.868 1.429-11.631 5.267-10.142 6.756.307.307 3.389.645 6.85.752 5.885.181 13.278 1.67 25.38 5.111 8.236 2.341 9.785 2.069 7.989-1.406-4.647-8.986-18.306-14.079-30.077-11.213m70.117 33.591c3.659 10.082 6.194 14.504 11.756 20.51 16.182 17.474 19.611 22.076 19.62 26.336.009 3.689 2.553 1.971 3.506-2.365.57-2.598-1.11-10.797-2.46-12.007-.307-.275-1.816-2.441-3.354-4.813s-5.359-6.974-8.491-10.228c-8.188-8.506-10.89-11.565-12.835-14.534-2.282-3.483-8.093-9.425-9.217-9.425-.492 0 .172 2.937 1.475 6.526m-29.653 40.936c1.978 2.105 2.925 2.378 6.537 1.883 3.941-.54 4.268-.401 4.89 2.078.613 2.442.96 2.602 4.298 1.976 4.11-.771 6.488 1.207 5.589 4.647-.916 3.502 6.668.894 11.698-4.022l3.048-2.98-2.762-.578a312.368 312.368 0 01-6.762-1.536c-8.639-2.067-20.214-3.93-24.424-3.93h-4.425l2.313 2.462m242.544 77.525c-.336.543-2.275.758-4.309.478-6.992-.965-13.134.427-13.812 3.129-.715 2.851-1.14 2.939-3.564.745-1.01-.913-2.097-1.399-2.416-1.079-.856.856-2.595 15.913-2.07 17.922.248.947-.06 1.892-.684 2.1-.732.244-.519.995.598 2.112.954.953 2.164 1.467 2.69 1.142.527-.325 4.242-.756 8.258-.957 8.441-.423 24.196-3.219 27.703-4.916 1.32-.64 3.233-1.022 4.25-.85 1.38.233 1.848-.308 1.848-2.139 0-1.709-.523-2.41-1.726-2.313-.949.077-1.769-.311-1.821-.861-.125-1.308-2.736-6.857-3.529-7.5-.339-.275-.923-1.753-1.298-3.285-.919-3.753-8.399-6.509-10.118-3.728" fill="#d3d3d3" fill-rule="evenodd"/></svg>