<svg xmlns="http://www.w3.org/2000/svg" width="500" height="667"><path d="M245 96.711l-3.5.375.255 8.707c.229 7.831.118 8.456-1.109 6.207-1.921-3.52-2.943-9.302-1.485-8.401.954.59.439-4.332-.558-5.329-.129-.129-8.979 3.054-19.668 7.072l-19.435 7.307-.296 6.676c-.35 7.916-1.359 8.497-3.082 1.775-2.269-8.853-1.8-8.786-17.622-2.493-7.7 3.063-14.194 5.761-14.431 5.996-1.231 1.217-1.669 12.356-.995 25.315 1.753 33.707 1.879 42.081.632 42.097-3.81.049-3.917 1.524-.872 12.093 2.987 10.373 2.997 10.501 5.627 69.392 1.448 32.45 3.037 66.65 3.53 76 .493 9.35 1.399 28.25 2.013 42 1.466 32.811.967 30.422 7.066 33.847 6.702 3.763 5.897 4.092-4.145 1.694-4.99-1.192-8.733-1.633-9.272-1.094-.54.54-.19 12.338.865 29.229.974 15.578 1.818 29.647 1.876 31.264.102 2.817-.23 3.048-7.894 5.501-4.4 1.409-8.179 2.785-8.397 3.06-1.383 1.74 3.282 6.934 21.676 24.129a7561.393 7561.393 0 0140.417 38.116c17.875 17.011 19.917 18.661 22.079 17.84 2.787-1.06 63.434-27.557 96.407-42.121 76.453-33.77 70.889-30.155 57.068-37.07-4.538-2.27-8.33-4.193-8.428-4.272-.097-.08.45-18.59 1.217-41.134 1.847-54.269 2.001-48.489-1.289-48.486-2.239.002-15.769 3.221-23.47 5.585-1.481.454-1.758 2.207-2 12.65l-.28 12.122-25.5 7.819c-14.025 4.3-25.95 7.819-26.5 7.82-.655.001-.924-15.101-.779-43.749.296-58.762.304-130.282.014-132.75-.218-1.857.584-2.058 11.238-2.806 6.31-.443 11.71-1.042 12-1.331.29-.288.668-8.553.839-18.366l.313-17.842-2.313-.441c-1.271-.243.687-.503 4.353-.578l6.664-.136.557-7.25c.306-3.988.83-28.001 1.165-53.362.539-40.758.432-46.18-.914-46.697-.839-.322-8.17.966-16.293 2.862-8.122 1.896-14.839 3.447-14.925 3.447-.086 0-.368-4.749-.626-10.553-.351-7.877-.876-10.958-2.072-12.155-1.087-1.087-9.589-2.987-26.412-5.902-24.375-4.223-26.272-4.433-33.309-3.679m-55 175.611c-.765.77.398 29.415 1.228 30.242.4.399 2.925.936 5.611 1.195l4.882.469.634 8.136c.348 4.475.639 10.161.646 12.636l.013 4.5 4.704.218c2.812.13 5.03-.272 5.515-1 .446-.67.513-11.615.148-24.321-.485-16.871-.356-23.294.477-23.809.628-.389 1.142-1.987 1.142-3.553 0-2.65-.329-2.887-4.75-3.416-9.415-1.127-19.76-1.79-20.25-1.297" fill="#d3d3d3" fill-rule="evenodd"/></svg>