<svg xmlns="http://www.w3.org/2000/svg" width="500" height="667"><path d="M223.507 61.011c.319.517 2.698.662 5.287.323l4.706-.616-2.478 2.698c-1.612 1.755-3.151 2.522-4.403 2.195-1.059-.277-3.154.131-4.655.908-1.501.776-3.627 1.238-4.723 1.027-1.343-.258-2.341.378-3.057 1.948-.584 1.283-2.102 2.661-3.373 3.063-1.271.401-2.899 1.565-3.618 2.586-1.869 2.656-2.563 2.402-7.718-2.828-6.829-6.926-10.981-7.107-16.997-.738-2.435 2.578-4.694 5.528-5.02 6.555-.605 1.906-3.297 2.413-10.256 1.93-7.832-.544-13.959 10.057-15.741 27.238-.852 8.216-.853 8.218-13.696 14.741-5.646 2.867-13.19 7.29-16.765 9.827-3.575 2.538-6.837 4.506-7.25 4.373-.412-.133-.75.145-.75.616C113 137.771 98.32 153 97.439 153c-1.295 0-4.538 3.918-4.93 5.955-.239 1.24-1.701 4.344-3.249 6.899a728.365 728.365 0 00-4.571 7.646c-2.364 4.04-10.373 20.502-11.189 23-.612 1.872-.816 1.808-3.175-1l-2.522-3L68.4 221c.608 29.042 2.199 64.341 3.421 75.929.875 8.29.608 8.21 28.217 8.413l21.537.158-.365 5c-.397 5.427-.397 5.423.1 13.5.244 3.959-.173 6.421-1.489 8.787-1.401 2.519-1.931 6.143-2.268 15.5-.242 6.717-1.045 14.688-1.784 17.713-.901 3.682-1.282 10.953-1.153 21.994.106 9.072-.193 17.215-.665 18.097-.521.975-.426 2.034.245 2.705 1.617 1.617 1.015 17.064-.764 19.605-.788 1.124-1.432 2.979-1.432 4.122 0 1.142-.563 2.639-1.25 3.327-.703.703-1.378 4.403-1.541 8.45-.16 3.96-.434 11.025-.609 15.7-.312 8.339-.957 12.512-2.549 16.5-3.537 8.861-4.947 29.708-2.482 36.696.938 2.658 1.226 5.367.772 7.27-.397 1.669-.634 3.379-.526 3.8.107.421-.689 3.39-1.769 6.599-1.389 4.123-1.872 7.815-1.645 12.597.405 8.57-2.184 15.617-8.462 23.038-1.779 2.102-4.524 9.379-4.102 10.875.135.481-.432 1.625-1.261 2.54-1.342 1.484-1.342 2.208-.002 6.625.828 2.728 1.774 8.387 2.103 12.575l.599 7.614 23.112.619c12.712.341 39.987.739 60.612.886l37.5.266.545-4.745c.3-2.61 1.088-5.288 1.75-5.95.663-.663 1.205-1.945 1.205-2.85s.848-2.413 1.885-3.351c1.037-.938 2.149-3.024 2.471-4.634.322-1.61 1.949-4.353 3.615-6.097 1.666-1.743 3.029-3.636 3.029-4.207 0-.57.959-2.058 2.131-3.305l2.131-2.269-3.881-1.796c-6.792-3.143-8.817-6.289-7.348-11.411.532-1.854.691-4.838.355-6.632-.402-2.142-.01-4.53 1.143-6.96 1.552-3.27 1.612-4.42.519-9.916-.691-3.481-.89-7.243-.451-8.547.431-1.282.665-3.144.52-4.14-.146-.995.235-2.412.846-3.148 1.71-2.06 2.188-5.124 2.659-17.042.24-6.05 1.073-12.637 1.852-14.637.78-2 1.209-3.845.953-4.1-.255-.255-.026-3.554.509-7.331.64-4.519.631-8.395-.028-11.333-.664-2.962-.666-5.33-.008-7.032 1.505-3.89 2.302-21.213 2.594-56.397.166-19.958.646-32.212 1.286-32.852.561-.561.721-2.212.355-3.669-1.37-5.456-.013-52.355 1.573-54.36.561-.709 1.314-5.676 1.675-11.039l.655-9.75h-2.776c-1.528 0-4.162.397-5.855.883-1.813.52-3.746.508-4.706-.029-1.063-.595-2.829-.41-5.084.532-1.901.794-3.718 1.182-4.037.862-.32-.32-.582-.099-.582.49 0 .678-1.511.869-4.112.52l-4.111-.551.683 3.11c1.703 7.755.2 19.091-3.074 23.183-2.249 2.811-4.113 11.304-4.501 20.5-.249 5.909-2.242 12.723-5.05 17.267-1.621 2.622-1.824 3.827-1.029 6.106.544 1.562.624 3.432.176 4.156-.448.724-1.131 4.501-1.518 8.394-.387 3.892-1.168 7.371-1.735 7.729-.978.619-1.271 9.66-.866 26.722.112 4.725-.281 7.926-1.094 8.909-.708.855-1.36 4.669-1.476 8.625-.56 19.252-1.272 27.356-2.685 30.592l-1.53 3.5-.085-3.5c-.047-1.925-.209-7.55-.36-12.5-.18-5.915.196-10.144 1.097-12.337 1.048-2.554 1.097-3.667.207-4.739-1.386-1.67-.385-8.424 1.248-8.424 1.399 0 .409-10.58-1.168-12.48-.613-.738-.741-1.572-.285-1.854.455-.282.918-3.551 1.028-7.265.11-3.714.901-9.164 1.758-12.111.857-2.947 1.277-5.813.934-6.368-.343-.555-.146-1.586.438-2.29 1.006-1.212 1.253-3.565 1.222-11.632-.008-1.925-.013-5.27-.012-7.434.002-2.164.839-6.439 1.86-9.5 1.022-3.061 2.39-9.166 3.04-13.566.651-4.4 2.013-9.8 3.027-12 2.709-5.875 3.306-7.794 3.054-9.81-.125-.995.212-2.345.749-3 1.756-2.142 1.623-6.135-.303-9.041-1.479-2.232-1.678-3.426-.918-5.5 1.925-5.253.938-6.171-6.342-5.897-3.932.148-6.731-.176-6.944-.803-.223-.656 1.008-.892 3.27-.628l3.628.424-.604-4.873c-.333-2.679-.834-6.222-1.114-7.872-.28-1.65-.727-6.6-.992-11-.763-12.655-1.555-16.769-5.154-26.77-.746-2.074-1.356-4.774-1.355-6 .003-3.203-7.622-20.83-10.276-23.757-2.28-2.515-5.192-8.159-4.568-8.857.895-1.003 8.567-.621 10.8.537 2.573 1.335 5.858 11.01 5.988 17.635.08 4.096 6.788 20.81 9.516 23.712 2.743 2.917 4.383 11.807 5.06 27.43.356 8.195.747 10.148 2.205 10.994 2.242 1.302 14.273 5.434 14.273 4.902 0-.218.9.085 2 .674 1.856.993 1.999.761 1.992-3.215-.004-2.357-.445-6.985-.981-10.285s-1.439-10.5-2.008-16-1.296-12.475-1.616-15.5c-.32-3.025-.864-5.95-1.209-6.5-.345-.55-.777-2.09-.96-3.423-.183-1.333-.806-3.307-1.385-4.388-.975-1.823-1.597-4.882-2.121-10.439-.117-1.238-.498-2.25-.849-2.25-.35 0-.867-1.238-1.148-2.75a89.366 89.366 0 00-1.172-5.25c-.363-1.375-.759-2.95-.88-3.5-.12-.55-.521-1.482-.889-2.07-.368-.589-.878-2.164-1.133-3.5-.696-3.655-1.75-5.93-2.748-5.93-.491 0-.893-.477-.893-1.059s.431-.793.958-.467c.527.325.337-.604-.421-2.066-.758-1.461-1.147-3.388-.864-4.282.45-1.42.366-1.436-.665-.126-.98 1.244-1.094 1.103-.668-.829.382-1.73.147-2.188-.913-1.781-.785.301-1.427.111-1.427-.421 0-.533.675-.969 1.5-.969s1.5-.477 1.5-1.059-.526-.734-1.17-.336c-.787.486-.961.178-.531-.941.364-.95.151-1.664-.497-1.664-.624 0-.847-.288-.495-.64.352-.352.012-1.815-.755-3.25-.767-1.436-1.661-3.448-1.985-4.473-.459-1.446-.896-1.609-1.957-.729-1.067.886-1.481.692-1.894-.887-.305-1.164-.038-2.027.628-2.036.646-.009.495-.443-.344-.985-.825-.533-1.14-.976-.701-.985.983-.019-6.044-12.778-8.512-15.454-.983-1.066-1.787-2.731-1.787-3.7 0-.969-.572-2.121-1.271-2.561-.699-.44-1.813-2.035-2.476-3.545l-1.205-2.745-5.272 2.078c-5.089 2.006-6.768 2.997-9.594 5.662-.728.688-1.855 1.254-2.503 1.26-.649.005-3.155 1.58-5.57 3.5-2.415 1.919-5.115 3.497-6 3.505-.885.008-2.734.632-4.109 1.387-5.53 3.037-16.927 8.6-17.688 8.635-.447.02-2.085 2.045-3.64 4.5-1.556 2.454-3.468 4.463-4.25 4.463s-1.748.034-2.147.075c-2.557.265-.522-3.011 5.495-8.842 3.821-3.703 7.231-7.917 7.578-9.364.405-1.693 1.87-3.219 4.105-4.28 1.912-.907 4.156-2.62 4.987-3.807.831-1.187 2.085-2.256 2.786-2.377 9.611-1.652 15.247-3.968 19.15-7.872 2.173-2.173 3.046-2.389 7.518-1.859 5.155.61 14.106-1.169 14.106-2.804 0-.478.718-.87 1.596-.87.877 0 2.792-.788 4.254-1.75 4.618-3.039 6.606-4.243 8.15-4.933.825-.369 1.821-1.154 2.213-1.744.393-.59 4.218-1.14 8.5-1.222 4.283-.082 9.359-.644 11.28-1.25 1.922-.606 5.383-1.101 7.691-1.101 2.309 0 4.496-.482 4.86-1.071.395-.64 2.133-.821 4.324-.451 2.156.364 6.126-.032 9.648-.963 3.291-.869 8.684-1.762 11.984-1.983l6-.401 3.227-17.316c3.616-19.409 3.745-23.576.777-25.214-1.097-.605-3.235-1.919-4.75-2.919-1.515-1-2.754-1.507-2.754-1.128 0 .38-.635.164-1.411-.48-.967-.803-1.615-.841-2.061-.12-.409.662-1.274.718-2.339.151-2.29-1.22-25.433-1.308-24.682-.094m48.235 50.51c-2.068.759-9.266 1.671-15.997 2.026-6.731.356-12.914.994-13.741 1.418-.827.424-5.473 1.082-10.325 1.461-5.99.469-9.841 1.312-12 2.628-1.748 1.066-4.417 1.94-5.929 1.942-3.74.005-3.514 2.184.548 5.282 4.96 3.784 28.156 14.686 29.462 13.848.144-.091 1.494.458 3 1.221 1.507.764 6.34 2.15 10.74 3.082 4.4.931 9.689 2.337 11.753 3.125 2.064.788 4.089 1.455 4.5 1.483 2.307.156 6.041 1.385 8.078 2.658 1.282.801 3.026 1.19 3.877.864.85-.327 2.158-.085 2.907.536 2.343 1.945 2.692-1.406 1.444-13.87-1.518-15.17-1.586-15.603-3.599-22.975l-1.706-6.25-4.627.07c-2.545.039-6.318.692-8.385 1.451m19.61 55.005c-1.22 3.179.775 12.914 4.578 22.343 2.137 5.297 4.489 11.389 5.227 13.538.739 2.148 2.59 5.244 4.114 6.878 2.44 2.617 2.745 3.657 2.545 8.706-.159 4.026.282 6.509 1.479 8.336.938 1.432 1.705 3.758 1.705 5.17 0 3.185 2.562 9.503 3.854 9.503 1.683 0 6.45 9.096 5.345 10.201-1.05 1.05-.049 6.033 1.637 8.146.505.634 1.126 3.765 1.378 6.958.532 6.726-.712 7.734-11.214 9.084-6.344.816-16 3.644-16 4.685 0 1.162-5.213 2.298-9.5 2.07-2.634-.14-5.646.636-8.819 2.271-3.843 1.98-5.338 2.286-7.382 1.509-1.41-.536-3.516-.654-4.681-.263-1.165.392-4.709.6-7.875.463-4.457-.192-5.893.104-6.357 1.314-.658 1.713-3.386 2.166-3.386.562 0-.55-1.526-1-3.392-1-3.648 0-4.293 1.116-5.199 9-.221 1.925-.966 6.65-1.655 10.5-.867 4.836-1.19 16.892-1.048 39 .234 36.24.325 47.724.492 62 .27 23.049.197 27.265-.562 32.5-.439 3.025-.991 9.775-1.228 15-.236 5.225-.865 10.85-1.397 12.5-.532 1.65-.947 9.525-.922 17.5.025 7.975-.407 17.65-.96 21.5-.553 3.85-1.282 12.77-1.62 19.823-.337 7.052-.999 13.837-1.471 15.076-.471 1.24-.549 3.757-.173 5.595.376 1.838.267 5.856-.241 8.93s-.616 7.642-.24 10.152c.672 4.481.775 4.587 5.648 5.836 2.73.699 5.2 1.654 5.488 2.121.289.467 2.577 1.874 5.084 3.126 2.507 1.252 4.978 3.06 5.49 4.017 1.057 1.974 12.026 8.346 16.093 9.347 2.503.617 2.761.366 3.784-3.681.603-2.388 1.605-5.467 2.226-6.842s2.089-5.2 3.263-8.5c1.205-3.387 2.767-6.059 3.587-6.135l2.689-.25c.68-.063 5.141-8.102 9.913-17.865 4.773-9.763 10.669-20.863 13.103-24.668 4.68-7.317 9.726-17.647 10.889-22.295.384-1.533 1.52-4.137 2.524-5.787 1.005-1.65 1.829-3.786 1.831-4.747.002-.961 1.579-3.491 3.504-5.621 2.623-2.904 3.5-4.769 3.5-7.444 0-1.964.457-3.852 1.015-4.197 1.498-.926 3.903-6.914 6.537-16.27 1.282-4.554 3.482-10.713 4.889-13.688 1.408-2.975 2.559-5.887 2.559-6.471 0-.584.45-1.062 1-1.062s1-.62 1-1.378c0-.757.675-1.937 1.5-2.622 1.22-1.012 1.5-.965 1.5.255 0 2.567 2.54 4.004 3.99 2.257 1.733-2.088 3.01-1.892 3.01.462 0 2.027 5.316 5.567 6.894 4.591 2.671-1.65 3.702-25.543 1.417-32.851-1.12-3.583-1.212-5.128-.369-6.144 2.198-2.649 2.466-11.325.526-17.033-1.778-5.229-1.774-5.563.146-13.415 1.525-6.231 1.816-9.698 1.291-15.337-.374-4.007-.276-8.051.217-8.986.493-.936.931-9.036.972-18 .046-9.759.618-18.707 1.425-22.299 3.806-16.929 5.053-33.306 2.481-32.573-5.532 1.577-10 1.24-10-.753 0-1.197 1.127-2.616 2.75-3.464a510.9 510.9 0 005.75-3.067c6.297-3.422 6.601-2.932 5.961 9.607-.316 6.188-.991 13.05-1.501 15.25-1.534 6.626-2.801 14.948-2.38 15.629.217.352 2.415.943 4.884 1.313 2.469.371 4.73 1.063 5.025 1.539.294.477 2.116.719 4.049.54 1.978-.184 4.085.245 4.821.981.719.719 2.395 1.285 3.724 1.257 1.329-.027 4.442.265 6.917.649 2.475.384 10.267.868 17.315 1.077 7.903.233 13.366.835 14.25 1.569.789.655 1.435.856 1.435.446s.622-.229 1.382.402c1.17.971 1.474-5.696 1.989-43.628.335-24.626.82-53.003 1.078-63.061l.47-18.286-14.209.021c-7.816.011-16.235-.108-18.71-.265-4.693-.297-7.769 1.127-5.639 2.61.662.462.092.671-1.361.5-1.67-.196-2.454-.874-2.361-2.043.076-.963-.261-1.75-.75-1.75s-.896.563-.904 1.25c-.012.936-.228.915-.861-.084-.681-1.074-.964-1.025-1.453.25-.903 2.353-2.925 1.96-2.169-.421.564-1.778.232-1.976-2.942-1.75-2.01.143-3.401.717-3.175 1.31.472 1.238-5.02 1.67-11.131.875-3.444-.447-4.362-1.012-4.859-2.991-.425-1.693-1.267-2.404-2.753-2.323-1.691.092-1.773.212-.392.573 1.836.48 2.477 3.311.75 3.311-.55 0-1-.436-1-.969 0-.532-.629-.727-1.399-.431-.769.295-1.67.098-2.001-.438-.331-.536-1.516-.735-2.634-.443-1.168.306-2.838-.198-3.927-1.184-1.199-1.085-2.653-1.475-3.956-1.061-1.133.359-5.459-.279-9.614-1.419-4.154-1.139-8.772-1.84-10.261-1.558-1.489.283-2.143.249-1.452-.076 1.373-.647.732-2.421-.874-2.421-.55 0-.722.45-.382 1 .345.558-.403.993-1.691.985-1.814-.012-1.994-.215-.838-.946 1.926-1.218 2.044-1.148-8.971-5.337-5.225-1.987-10.85-4.152-12.5-4.811-1.65-.659-3.586-1.318-4.302-1.464-.716-.146-2.412-.992-3.768-1.881-2.254-1.477-2.519-1.478-3.078-.02m-10.781 124.048c-.454 1.808-.148 3.236.953 4.452 1.326 1.466 1.432 2.472.586 5.539-.569 2.061-.818 4.098-.553 4.527.264.428-.059 4.07-.719 8.093-.661 4.023-1.147 8.44-1.081 9.815.066 1.375-.796 7-1.915 12.5-2.64 12.969-3.223 28.262-1.158 30.327 1.028 1.028 1.286 2.518.845 4.871-.853 4.547.168 7.799 1.977 6.297 2.739-2.273 5.487.936 5.56 6.496l.066 5.009 3.4-9.214c3.149-8.536 3.34-9.709 2.588-15.951-.446-3.706-.612-8.46-.369-10.565.303-2.622-.129-4.683-1.373-6.548-1.428-2.143-1.869-5.063-2.068-13.722-.27-11.707-.984-20.163-1.817-21.511-.279-.452-.003-3.173.613-6.047 1.868-8.712-3.474-22.58-5.535-14.368M178.751 461c-1.126 2.805-1.857 8.48-2.317 18-.253 5.225-1.129 11.197-1.947 13.27-1.654 4.193-1.999 7.685-.61 6.18.482-.522 1.865-3.645 3.074-6.938 1.21-3.293 2.692-6.582 3.296-7.309.603-.727 1.077-3.657 1.054-6.512-.058-7.081-1.809-18.539-2.55-16.691m-8.379 40.555c-.943 1.44-2.088 4.717-2.544 7.281-2.066 11.633-2.429 15.189-1.672 16.383.447.704.82 3.284.829 5.731.022 6.346 2.172 3.783 2.627-3.131.193-2.925.579-6.669.859-8.319.279-1.65.137-4.35-.317-6-.453-1.65-.501-3.675-.106-4.5.395-.825 1.312-2.85 2.038-4.5.726-1.65 1.461-3.306 1.633-3.681.965-2.095-1.905-1.465-3.347.736M102.826 666.75c25.479.148 66.879.148 92 0 25.121-.149 4.274-.271-46.326-.271s-71.153.122-45.674.271" fill="#d3d3d3" fill-rule="evenodd"/></svg>