<svg xmlns="http://www.w3.org/2000/svg" width="500" height="368"><path d="M238 79c0 .515-.573.717-1.274.448-.701-.268-3.452.167-6.115.969-3.131.942-7.54 1.311-12.476 1.043-10.303-.557-13.941.174-14.329 2.881-.515 3.595-3.582 3.25-4.67-.526-.92-3.19-.959-3.212-1.046-.577-.079 2.4-.585 2.817-4.09 3.378-2.2.352-4 1.059-4 1.571s-.434.663-.964.336c-.529-.328-1.958.399-3.175 1.616-2.14 2.14-2.236 2.149-2.966.286-.66-1.685-.763-1.707-.825-.175-.038.963-.52 1.75-1.07 1.75s-1 1.125-1 2.5-.505 2.5-1.122 2.5c-.776 0-.738.464.122 1.5.821.989.874 1.5.154 1.5-.607 0-.808.739-.453 1.664.411 1.071.246 1.422-.462.984-.605-.374-1.383-.223-1.729.336-.345.559.186 1.048 1.181 1.086 1.602.063 1.58.159-.191.845-1.424.552-2.173 2.044-2.6 5.18l-.6 4.405-.15-5.309c-.098-3.48-.518-5.082-1.218-4.649-.588.363-.827 1.29-.532 2.059.296.77.127 1.399-.374 1.399s-.743.871-.538 1.936c.205 1.064-.276 2.473-1.069 3.131-1.247 1.035-1.221 1.357.189 2.388 1.408 1.03 1.444 1.488.27 3.368-1.969 3.154-2.974 2.676-2.707-1.288.128-1.905-.083-3.78-.469-4.166-.386-.386-.718 4.66-.737 11.214-.152 51.787.372 69.108 2.01 66.457.376-.608 1.263.822 1.971 3.177.709 2.356 1.911 6.276 2.671 8.711.761 2.436 1.383 5.698 1.383 7.25 0 1.563.558 2.845 1.25 2.874 2.249.092 7.744 7.991 7.866 11.306.064 1.728.322 2.355.573 1.392.252-.963.668-1.75.926-1.75 2.341 0 7.485 8.093 8.098 12.74.601 4.555 1.287 5.582 1.287 1.927 0-1.704.542-2.667 1.5-2.667.825 0 1.5.45 1.5 1s-.44 1-.979 1c-.594 0-.531.982.163 2.505.955 2.095 1.727 2.457 4.729 2.212 3.451-.281 6.087 1.069 6.087 3.118 0 .538.9.742 2 .455 1.391-.364 2-.031 2 1.093 0 .89.787 1.631 1.75 1.649 1.667.03 1.667.095 0 1.36-2.132 1.618-2.38 4.787-.313 3.994.79-.303 1.314-1.077 1.164-1.719-.15-.642-.093-.855.128-.473.487.843 3.339-.156 4.932-1.728 1.325-1.307 7.339-.728 7.339.707 0 .52.427.681.949.358.523-.323 1.228 1.113 1.567 3.191 1.036 6.344 1.247 6.903 1.368 3.622.098-2.656.438-3.073 2.144-2.626 1.444.377 1.857 1.07 1.433 2.406-.738 2.326 2.101 2.522 4.98.344 2.551-1.929 3.559-1.854 3.559.266 0 1.037.733.368 1.823-1.665 2.838-5.291 10.129-4.967 11.309.502.43 1.996.669 2.271.75.865.075-1.308 1.528-2.818 3.965-4.118l3.847-2.054 1.153 3.189c.634 1.754 1.194 4.507 1.243 6.118.089 2.891.103 2.883 1.043-.571.524-1.925 1.226-4.175 1.559-5 .333-.825.514-2.455.402-3.622-.112-1.167.496-2.39 1.351-2.719 1.082-.415 1.555-1.94 1.555-5.013 0-5.203 2.867-7.979 6.755-6.541 1.235.457 2.245.565 2.245.24 0-.324.675-.03 1.5.655 1.248 1.036 1.5.91 1.5-.753 0-1.46.668-1.997 2.482-1.997 1.365 0 2.22.424 1.899.942-.32.518.026.858.769.756 2.918-.4 3.731.158 4.083 2.802.301 2.264.503 1.954 1.143-1.752.679-3.935 1.268-4.742 4.671-6.397 3.014-1.466 4.211-1.631 5.296-.732 1.14.947 1.523.555 2.059-2.103.516-2.563.863-2.943 1.613-1.766.679 1.068.959 1.127.97.205.027-2.334 5.103-6.681 6.036-5.17.556.898 1.047.119 1.522-2.414.488-2.599 1.123-3.58 2.08-3.212.94.361 1.377-.255 1.377-1.94 0-1.358.43-2.469.955-2.469.525 0 1.247-1.56 1.605-3.466.391-2.089 1.375-3.696 2.475-4.045 1.055-.335 2.087-1.933 2.443-3.784 1.745-9.062 2.819-12.705 3.744-12.705.598 0 .506-.623-.222-1.5-.752-.906-.833-1.5-.206-1.5.572 0 1.237.563 1.478 1.25.241.688.782-7.884 1.201-19.049.419-11.164.485-20.577.145-20.917-.34-.339-.618.556-.618 1.99 0 1.435-.468 2.897-1.04 3.251-.677.418-.823-.348-.419-2.191.461-2.104.356-2.455-.406-1.363-.564.809-1.375 1.122-1.802.696-.426-.427-.175-1.147.559-1.6.787-.486.911-.977.304-1.196-.566-.204-1.216-3.946-1.444-8.315-.227-4.369-.892-8.103-1.477-8.298-.584-.194-.815-1.303-.511-2.462.352-1.349.166-1.871-.518-1.448-1.297.801-2.58-5.823-2.449-12.64l.092-4.792-1.911 2.292-1.911 2.292-.034-2.75c-.018-1.513.005-3.037.052-3.388s-.515-1.01-1.25-1.464c-.734-.454-1.335-1.391-1.335-2.082 0-.691-1.125-1.826-2.5-2.522-1.375-.695-1.937-1.271-1.25-1.279.688-.008 1.25-.451 1.25-.984 0-.532-.675-.709-1.5-.393-.991.381-1.524-.054-1.57-1.281-.065-1.705-.136-1.693-.876.143-.751 1.866-.83 1.835-1.179-.459-.389-2.55-6.192-4.689-10.039-3.701-1.064.273-1.875-.342-2.25-1.706-.402-1.465-.83-1.757-1.365-.932-.597.92-1.36.865-3.25-.234-1.359-.79-3.259-1.721-4.221-2.069-.962-.348-1.75-1.303-1.75-2.123 0-.936-.577-1.268-1.552-.894-.954.366-1.297.183-.891-.475.394-.637-.091-.971-1.198-.825-1.022.134-3.434-.054-5.359-.419-8.152-1.543-9.814-1.775-16-2.227-3.575-.262-7.504-.698-8.732-.97-1.228-.272-4.828-.745-8-1.052-3.172-.306-6.33-.735-7.018-.954-.687-.218-1.25.025-1.25.54" fill="#d3d3d3" fill-rule="evenodd"/></svg>