<svg xmlns="http://www.w3.org/2000/svg" width="500" height="657"><path d="M204.282 67.273c.238.675 1.172 1.165 2.076 1.088.903-.076 1.642.461 1.642 1.193 0 1.901-3.996 4.446-6.981 4.446-3.117 0-16.731 4.769-23.574 8.259-2.781 1.417-6.831 2.903-9 3.3-4.104.752-21.374 7.531-32.195 12.637-4.968 2.344-6.25 3.415-6.25 5.221 0 2.56-2.35 4.995-5.853 6.065-1.294.395-3.945 1.798-5.89 3.118-1.945 1.32-3.845 2.4-4.223 2.4-.668 0-9.034 18.892-9.034 20.402 0 1.448-5.269 14.108-6.493 15.598C97.02 152.813 94 161.641 94 164.178c0 1.277.748 1.822 2.5 1.822 2.77 0 3.563 3.537 1.3 5.8-3.307 3.307-8.378-.044-5.949-3.932.641-1.028.797-1.868.347-1.868-1.887 0-3.354-10.036-2.681-18.341.464-5.729.33-8.635-.418-9.098-1.109-.685-2.238 129.197-1.316 151.439.08 1.925-.034 51.875-.253 111-.218 59.125-.151 108.732.151 110.238.779 3.893 2.319 2.381 2.319-2.276 0-3.818.065-3.89 2.5-2.78 2.336 1.064 2.5 1.62 2.5 8.479V522l2.161-2.161 2.16-2.16 1.84 2.271c1.011 1.249 1.846 3.459 1.854 4.911.024 4.011 1.489 5.847 2.801 3.509.983-1.751 1.092-1.759 1.724-.12.371.962 1.5 1.75 2.509 1.75 1.825 0 9.565 8.191 12.894 13.645 1.506 2.468 1.557 3.142.373 4.97-1.236 1.909-1.073 2.433 1.657 5.356 1.665 1.782 3.027 3.698 3.027 4.257 0 .597.606.514 1.469-.202 1.184-.983 1.988-.812 4.135.877 1.466 1.153 4.041 2.097 5.722 2.097 2.902 0 2.958-.074 1.115-1.468-1.88-1.422-1.882-1.469-.051-1.5 1.039-.018 2.432.709 3.094 1.615 1.908 2.61 26.063 3.355 27.886.861 1.119-1.53 3.207-1.787 15.71-1.934 14.497-.171 17.945-.901 20.481-4.339.583-.791 3.283-1.675 6-1.964 2.716-.289 5.698-1.187 6.626-1.996.928-.809 2.145-1.188 2.704-.842 2.47 1.526 6.076-.655 7.085-4.287 1.666-5.997 1.219-7.959-3.046-13.354-2.848-3.603-3.903-5.771-3.514-7.22.306-1.14.563-2.845.57-3.791.009-1.114.541-1.516 1.514-1.143.825.317 1.5.086 1.5-.512s-1.125-1.37-2.5-1.715c-5.251-1.318-2.125-1.888 7.249-1.323 10.756.65 10.748.651 9.906-1.545-.451-1.175-2.165-1.543-7.183-1.543-3.624 0-6.358-.375-6.075-.833.283-.459 1.953-.622 3.711-.364 2.865.42 3.138.247 2.638-1.667-.456-1.744-.117-2.136 1.848-2.136 2.524 0 3.3-1.483 1.156-2.21-.687-.234-4.963-.386-9.5-.338-8.202.086-8.249.072-8.134-2.433.078-1.688.267-1.943.573-.773.365 1.398.847 1.538 2.412.7 1.075-.575 1.644-1.55 1.263-2.166-.458-.74-.101-.893 1.054-.45.96.369 1.96.67 2.223.67.262 0 .208.436-.122.969-.355.575 1.145.908 3.691.82 2.36-.081 5.695.181 7.413.583 2.375.556 3.266.359 3.719-.82.384-1.002.031-1.552-.996-1.552-1.296 0-1.362-.276-.354-1.49 1.022-1.231.84-1.637-1.049-2.335-1.536-.568-1.893-1.088-1.091-1.584.657-.406 2.482-.168 4.056.529 2.745 1.215 2.879 1.595 3.301 9.323.527 9.657 1.948 12.701 9.618 20.592 4.566 4.698 6.161 7.264 8.173 13.151 2.267 6.631 2.827 7.424 6 8.494 1.925.65 7.358 2.535 12.074 4.19 9.466 3.322 9.078 3.356 23.355-2.044 3.887-1.47 5.096-1.596 5.718-.595.434.698.348 1.421-.191 1.606-.538.186-1.462 1.241-2.053 2.345-1.456 2.721.219 2.145 16.597-5.701 7.15-3.426 18.089-7.923 24.308-9.994l11.309-3.765 1.498 2.139c2.836 4.048 9.952 1.704 14.827-4.885 2.681-3.624 4.738-5.119 4.44-3.226-.066.413-.066 2.282 0 4.155.116 3.34.156 3.37 2.118 1.595 1.366-1.236 2.01-3.109 2.032-5.905.038-4.941 3.184-9.014 7.218-9.346 2.623-.216 2.75-.02 2.75 4.231 0 3.551.305 4.34 1.5 3.882.825-.317 1.5-1.47 1.5-2.563 0-1.145.847-2.208 2-2.509 1.1-.288 2-.921 2-1.407 0-.485.93-.883 2.066-.883 4.543 0 5.419-1.411 5.718-9.205.384-10.013 2.201-16.073 2.037-6.795-.213 12.085.165 18.415 1.042 17.45 1.773-1.952 5.051-231.38 3.442-240.95-.814-4.845-.953-5.009-4.467-5.304-5.817-.488-7.515-3.134-5.461-8.512.912-2.39 2.439-5.223 3.391-6.295 3.973-4.471 7.321-13.798 4.278-11.917-.525.324-2.067.31-3.428-.032-5.585-1.401-3.738-8.046 1.979-7.118l3.403.552.021-9.687c.034-15.854-2.126-102.415-2.644-105.965-.263-1.803-.905-3.014-1.428-2.691-.556.344-.949-1.773-.949-5.122 0-5.401-4.093-16.409-6.101-16.409-.375 0-.964-1.124-1.309-2.498-1.579-6.291-24.853-14.582-42.59-15.171-5.775-.192-12.525-1.007-15-1.812-18.59-6.044-33.551-8.214-62.642-9.084-9.428-.282-18.65-.945-20.494-1.474-1.843-.528-8.097-.961-13.897-.961-6.258 0-12.945-.625-16.443-1.536-3.242-.844-6.487-1.308-7.21-1.031-.723.277-1.314.141-1.314-.304 0-.444-4.759-.87-10.576-.945-7.967-.103-10.468.165-10.142 1.089M196 92.69c-1.375.23-5.2 1.263-8.5 2.294-3.3 1.032-7.463 2.168-9.25 2.526-3.795.758-4.049 1.51-1.129 3.334 6.316 3.944 18.214 1.277 21.349-4.785 1.714-3.315 1.874-4.121.78-3.923-.412.075-1.875.324-3.25.554m47 71.601c-11.65 13.513-12.544 14.745-11.287 15.568.539.352 1.308 1.991 1.711 3.641.775 3.177 3.248 6.5 4.838 6.5.524 0 .674-.725.334-1.611-.446-1.161-.19-1.447.915-1.023 1.788.686 9.787-6.075 8.895-7.519-.318-.514-.085-1.529.518-2.256.604-.727 1.334-3.519 1.624-6.206.289-2.687.924-7.808 1.409-11.382.486-3.573.807-6.549.713-6.614-.093-.064-4.445 4.841-9.67 10.902m-31.527-8.973c-1.085.725-4.11 2.112-6.723 3.082-2.613.971-4.75 2.178-4.75 2.683 0 1.355 2.767 1.115 3.233-.281.667-2.003 9.852 4.338 9.358 6.461-.242 1.041.411 2.203 1.593 2.836 1.99 1.064 1.988 1.089-.176 3.392-1.805 1.922-1.985 2.683-1.047 4.436 1.116 2.086 1.168 2.073 3.69-.924 2.003-2.38 2.398-3.63 1.825-5.771-.402-1.503-.812-5.447-.91-8.765-.252-8.457-1.661-10.111-6.093-7.149m-24.374 14.458c-3.077 2.569-3.293 3.116-2.674 6.78.944 5.589 1.563 6.258 6.511 7.05l4.375.699-.59-3.634c-.327-2.019-.145-3.909.41-4.252.614-.379.405-1.275-.542-2.321-.848-.936-1.706-2.78-1.907-4.098-.515-3.378-1.745-3.428-5.583-.224m150.328 2.99c-.59.404-1.171 2.834-1.292 5.401-.195 4.165-.011 4.613 1.706 4.164 1.262-.33 2.482.293 3.542 1.805 2.227 3.179 2.035 4.352-.93 5.703-3.256 1.484-3.453 1.465-3.453-.339 0-.825-.337-1.5-.75-1.5-.793 0-.888.824-1.242 10.75-.123 3.438-.62 6.25-1.106 6.25-.485 0-.133.875.782 1.944 1.619 1.891 1.735 1.894 4.24.114 1.417-1.006 4.209-2.51 6.204-3.342 4.059-1.692 5.883-3.716 3.348-3.716-.904 0-1.446-.562-1.206-1.25.241-.687 1.12-1.131 1.953-.986 1.884.328 3.181-7.89 2.238-14.177-.573-3.821-1.171-4.55-6.282-7.655-7.01-4.259-6.474-4.04-7.752-3.166m-116.479 18.873c-2.972 3.564-6.948 10.328-6.948 11.821 0 1.394 1.559 2.062 6.441 2.762 2.615.375 4.08-5.586 2.913-11.854-.803-4.317-.946-4.479-2.406-2.729m-16.509 64.218c-3.77 3.61-6.439 7.176-6.439 8.601 0 .793-.657 1.81-1.46 2.259-.802.45-3.058 3.06-5.013 5.8-3.383 4.745-3.451 4.999-1.425 5.318 1.171.184 2.601-.138 3.179-.716.733-.733 1.386-.589 2.166.477.934 1.278 1.5.825 3.477-2.785 1.299-2.371 4.034-6.571 6.079-9.333 2.976-4.02 3.623-5.666 3.244-8.25-.547-3.723-1.133-3.934-3.808-1.371M255 260.014c0 1.107.402 2.795.894 3.75.492.955 1.918 6.011 3.168 11.236 3.059 12.779 3.67 14 7 14 1.999 0 3.305-.88 4.823-3.25 1.572-2.454 2.085-2.787 2.098-1.36.016 1.763 2.572 4.506 4.267 4.578 3.238.137-1.625-8.504-10.881-19.337-3.228-3.778-6.456-7.941-7.174-9.25-1.59-2.903-4.195-3.131-4.195-.367m-17.532 3.274c-4.87 5.721-5.755 8.737-5.006 17.051.404 4.489.872 11.257 1.04 15.042.172 3.901.816 7.197 1.486 7.612.651.402 1.144 1.018 1.097 1.369-.395 2.954.104 3.75 2.165 3.458 2.587-.368 2.752-2.274 1.283-14.82-.483-4.125-.81-12.788-.727-19.25.083-6.462.048-11.733-.078-11.712-.125.021-.692.583-1.26 1.25m-64.135 6.518c-5.219 2.122-6.168 3.055-4.304 4.233 1.003.634-.451.935-4.568.946-5.784.014-11.106 1.815-15.059 5.096-2.34 1.942-1.207 15.849 1.469 18.015 2.307 1.869 2.765 3.663 1.613 6.328-.474 1.097-.322 4.893.353 8.829.651 3.797.927 7.319.614 7.826-.313.506-.123.921.423.921.545 0 1.246.804 1.558 1.786.312.983 2.791 3.446 5.508 5.475 5.16 3.852 5.57 3.774 6.56-1.261.171-.869 1.512-5.317 3.242-10.75 1.315-4.129 2.108-5.235 3.715-5.18 2.023.07 2.024.078.043.876-1.856.747-1.82.832.5 1.179 2.258.339 2.467.762 2.159 4.375-.187 2.2-.964 5.35-1.725 7-.761 1.65-2.085 5.012-2.943 7.472l-1.559 4.471 3.784 3.201c4.335 3.666 4.156 3.752 8.181-3.927 2.556-4.878 2.857-6.163 1.92-8.218-.61-1.34-1.494-2.199-1.963-1.909-.47.291-.905-.286-.968-1.281-.323-5.132-.894-7.696-1.843-8.283-.701-.432-.76-2.219-.177-5.338.482-2.578.552-4.688.157-4.688-1.368 0-.891-5.837.521-6.379.774-.296 1.904-2.514 2.511-4.927.608-2.413 2.232-5.602 3.609-7.088 2.404-2.592 2.438-2.802.84-5.241l-1.665-2.541-6.379 6.834c-6.114 6.55-6.44 6.752-7.829 4.852-1.451-1.984-.843-4.643 1.374-6.013.547-.338.995-1.108.995-1.711 0-.632-.74-.452-1.75.426-2.106 1.832-4.981 1.931-5.648.194-.265-.693 2.636-4.555 6.448-8.583 8.934-9.439 8.979-10.553.283-7.017m78.004 59.542c-2.289.634-4.989 1.882-6 2.774-1.01.891-2.844 2.142-4.075 2.778-2.768 1.432-4.116 5.945-2.147 7.192.997.632 1.035.882.135.893-.687.008-1.25.389-1.25.845 0 1.295 5.315.725 20.782-2.229 18.059-3.449 21.623-4.653 22.038-7.446.291-1.965-.127-2.155-4.75-2.155-4.32 0-5.07.282-5.07 1.906 0 2.652-3.871 1.564-4.999-1.405-.692-1.819-8.17-5.049-10.194-4.403-.169.054-2.18.617-4.47 1.25m-58.699 14.513c-3.101 3.133-5.638 5.951-5.638 6.261 0 .311 2.287 2.493 5.082 4.85 7.063 5.956 14.382 6.791 15.281 1.744 2.069-11.615 1.992-12.716-.888-12.716-1.853 0-2.527-.422-2.169-1.356.32-.832-.745-1.96-2.755-2.918l-3.276-1.562-5.637 5.697m102 20.639c-.316.825-.139 1.5.393 1.5 1.584 0 1.1 3.013-.588 3.66-.857.329-1.327 1.201-1.044 1.937.282.736.083 1.605-.443 1.93-1.036.641-1.322 5.773-.375 6.721.32.32 2.183-.505 4.14-1.833 1.957-1.328 4.036-2.415 4.62-2.415 1.967 0 11.659-6.41 11.659-7.711 0-1.205-2.342-1.771-6.126-1.481-.894.068-2.426-.76-3.405-1.842-2.148-2.374-7.98-2.681-8.831-.466m-153.93 2.25c-.226.413 1.734 2.55 4.354 4.75 2.621 2.2 5.015 4.563 5.32 5.25.948 2.135-1.363 1.374-3.794-1.25-2.643-2.851-4.841-3.324-3.887-.836.411 1.071.246 1.422-.462.984-.605-.374-1.383-.223-1.729.336-.345.559.104 1.016.998 1.016 1.194 0 1.471.598 1.039 2.25-.506 1.94-.422 2.024.607.613 1.241-1.703 6.846-.734 6.846 1.183 0 .7 5.646-.645 6.856-1.634.196-.16-.817-1.464-2.25-2.897-1.433-1.433-2.606-2.987-2.606-3.452 0-.465-1.143-1.133-2.541-1.484-1.397-.351-2.301-1.026-2.007-1.502.294-.475-.588-1.145-1.959-1.489-1.371-.345-2.493-1.068-2.493-1.607 0-1.15-1.696-1.321-2.292-.231m-50.464 34.5c-2.28 31.765-1.331 77.69 1.682 81.411 4.001 4.94 7.11 1.133 9.064-11.101 1.207-7.553-.088-19.358-4.409-40.196-2.838-13.687-3.226-16.483-2.477-17.864.697-1.288-2.038-13.5-3.024-13.5-.411 0-.787.563-.836 1.25m154.195 4.453c-.827.828-2.375 3.212-3.439 5.297-1.064 2.085-2.529 4.401-3.256 5.146-.727.745-2.358 3.379-3.624 5.854s-3.601 5.703-5.189 7.174c-1.826 1.69-2.436 2.832-1.659 3.105.788.276.332 1.193-1.272 2.556-2.019 1.716-2.232 2.301-1.105 3.043 1.128.743 1.032 1.012-.5 1.405-1.606.411-1.552.503.355.601 1.238.064 2.25-.306 2.25-.822s.787-.96 1.75-.987c.963-.028 12.626-.34 25.918-.694 21.639-.576 24.115-.813 23.656-2.262-.444-1.402-.368-1.418.566-.119.875 1.216 1.082.979 1.095-1.25.011-2.088-.466-2.75-1.985-2.75-1.111 0-2-.667-2-1.5 0-.825-.45-1.5-1-1.5s-1-.445-1-.989c0-2.142-12.099-15.011-17.826-18.962-4.689-3.234-9.821-4.26-11.735-2.346m18.133 2.767c.912 1.392 2.235 2.53 2.939 2.53 1.699 0 6.272 5.402 9.989 11.798 1.65 2.839 3.359 5.171 3.798 5.182 1.193.03 5.634 5.332 5.67 6.77.018.688.482 1.25 1.032 1.25.835 0 1.541-4.576 1.118-7.25-.065-.413.318-.75.851-.75.532 0 .694-.715.359-1.588-.335-.873-.677-2.561-.759-3.75-.083-1.189-.694-2.049-1.36-1.912-.665.137-1.209-.613-1.209-1.668s-.291-2.743-.647-3.75c-.446-1.261-.32-1.52.403-.832.577.55 1.266 1.9 1.531 3 .265 1.1.533-.389.597-3.309.074-3.368-.256-5.079-.9-4.681-.559.346-.758 1.047-.441 1.559.316.512.098.931-.484.931s-1.059-.502-1.059-1.117c0-.617-.878-.887-1.963-.603-1.08.283-2.517-.154-3.195-.97-.818-.986-2.422-1.336-4.786-1.044-1.956.242-4.456.122-5.556-.267-1.1-.388-3.257-1.01-4.793-1.382-2.787-.675-2.789-.672-1.135 1.853m117.996 3.42c-.273.441-.129 3.122.319 5.956.503 3.185.448 5.154-.143 5.154-.528 0-.625.786-.217 1.75.407.962.867 4.295 1.021 7.406.155 3.111.769 6.569 1.366 7.683 1.094 2.045 1.004 9.061-.47 36.3l-.737 13.64 2.646-.506 2.647-.506.024-13.134c.013-7.223.416-14.823.896-16.888.535-2.305.503-3.984-.084-4.346-1.105-.683-.712-13.394.414-13.397.413-.001.75.673.75 1.498s.498 1.5 1.107 1.5.859-.647.555-1.437c-.32-.835.159-1.625 1.143-1.884.977-.258.53-.496-1.055-.563-1.512-.064-2.806-.566-2.875-1.116-.445-3.559-.264-7.26.375-7.655.413-.254.75.014.75.596s.45 1.059 1 1.059 1-.9 1-2-.446-2-.992-2c-.612 0-.826-3.255-.559-8.5.337-6.606.138-8.5-.891-8.5-.729 0-1.572.945-1.874 2.101-.574 2.196-2.684 1.761-2.684-.553 0-1.545-2.697-2.848-3.432-1.658M362 413.685c-4.48.74-5.594 1.33-4.172 2.208.789.488 1.423 3.735 1.67 8.562.22 4.277.647 8.024.951 8.327.303.303.544 1.264.536 2.135-.014 1.387-.136 1.397-.985.083-.828-1.282-.972-1.246-.985.25-.008.962.435 1.75.985 1.75 1.79 0 1.052 1.999-.75 2.032-1.58.029-1.595.15-.159 1.25.875.67 2.319 2.568 3.21 4.218 1.612 2.988 2.112 2.303 1.723-2.362-.132-1.594.188-2.125.985-1.632.672.415 1.013 2.177.791 4.083-.327 2.801 1.523 5.662 2.705 4.185.798-.997 1.169-11.857.421-12.32-.509-.314-.926-1.022-.926-1.572s.45-.722 1-.382c.55.34 1 .141 1-.441s-.562-1.066-1.25-1.074c-.833-.011-.75-.339.25-.985.845-.546.994-.976.34-.985-.715-.009-1.133-1.738-1.091-4.515.068-4.537 1.024-5.838 2.144-2.918.334.87.607 2.74.607 4.155 0 2.51.049 2.528 2 .763 1.1-.995 2-2.415 2-3.155 0-3.226 2.015-.975 2.152 2.405.084 2.063.257 4.2.385 4.75.128.55.316 1.9.418 3l.186 2 .804-2c.443-1.1.592-2.367.331-2.815-.261-.448-.484-3.598-.495-7-.012-3.402-.434-6.973-.937-7.935-.605-1.158-.544-1.75.18-1.75.602 0 .816-.45.476-1-.34-.55-1.293-1-2.118-1s-1.228.439-.896.977c1.253 2.027 1.404 7.153.199 6.758-.652-.214-1.361-1.929-1.577-3.812-.371-3.241-.432-3.29-1.15-.923-.725 2.389-.763 2.4-.858.25-.055-1.238-.55-2.25-1.1-2.25s-.947.337-.882.75c.368 2.331-.256 4.283-1.186 3.708-.588-.363-.832-1.277-.543-2.03.517-1.348-1.884-4.558-3.21-4.292-.374.075-1.804.322-3.179.549m-254.496 7.456c-.831 7.788-.816 11.913.087 22.859.745 9.039 2.22 8.552 1.796-.593-.176-3.787.096-5.159.957-4.829.92.354 1.021-2.17.43-10.757-.9-13.082-2.285-15.91-3.27-6.68M352.023 427c-.511 1.451-1.063 4.82-1.187 7.25-.178 3.489-2.56 3.606-3.859.19-.535-1.408-1.424-2.282-1.975-1.941-1.357.838-1.278 4.501.097 4.501.701 0 .939 1.611.657 4.443-.244 2.444-.071 5.032.385 5.75.505.798.834-.556.844-3.474.011-3.377.468-4.956 1.558-5.374 2.258-.866 2.742.051 3.249 6.156.25 3.025.881 5.499 1.4 5.499.543 0 .703-2.169.375-5.107-.459-4.128-.299-5.004.835-4.569 1.915.735 2.81-.364 1.541-1.893-.721-.868-.717-1.452.011-1.903.73-.451.715-1.278-.051-2.709-.8-1.494-.8-1.874-.003-1.381.605.374 1.1.203 1.1-.379 0-.963-.573-1.171-2.75-1-.413.032-1.043-.98-1.4-2.25-.358-1.27-.73-2.084-.827-1.809m-230.083 9.75c-.033 1.512-.008 7.363.055 13 .113 9.97-.35 11.495-2.758 9.087-.884-.884-1.411-.509-2.198 1.56-1.403 3.691-3.039 2.368-3.039-2.456 0-2.168-.387-3.941-.861-3.941-1.231 0-2.042 8.504-1.455 15.25.278 3.193.092 5.75-.418 5.75-1.732 0-.01 6.499 2.863 10.8 3.874 5.802 3.334 11.081-1.547 15.132-1.376 1.142-1.227 1.749 1.34 5.427 4.188 6.002 14.02 22.249 17.334 28.641 3.904 7.533 3.955 7.561 9.271 4.987 4.061-1.966 5.647-2.181 12.074-1.638 4.07.344 7.399.262 7.399-.182 0-.85-5.762-7.819-10-12.095-2.188-2.208-2.282-2.566-.754-2.87 1.422-.283 1.546-.721.669-2.36-2.355-4.4.541-2.974 3.993 1.967l2.312 3.308 3.453-7.808c4.76-10.763 5.019-11.285 7.859-15.809 5.72-9.112 5.968-9.989 3.716-13.151-2.124-2.983-2.248-3.316-2.248-6.016 0-.916-.297-1.369-.66-1.006-1.131 1.13-3.786-3.648-3.903-7.024-.179-5.152 2.08-4.652 7.868 1.744 2.962 3.274 6.179 5.953 7.148 5.953 1.139 0 1.562.519 1.196 1.471-.563 1.468 2.14 5.074 3.09 4.123 1.213-1.213-.845-7.491-2.276-6.942-1.766.678-1.925-.79-.266-2.449.658-.658 1.221-3.678 1.25-6.71.038-3.983.4-5.38 1.303-5.034.688.263 1.25.095 1.25-.374 0-.468-.974-1.106-2.164-1.418-1.777-.464-1.946-.829-.943-2.038.82-.988.914-2.074.287-3.301-1.9-3.718-3.237-9.232-2.809-11.592.292-1.61-.202-2.893-1.465-3.804-1.048-.755-1.906-2.399-1.906-3.653 0-2.69-1.774-3.034-2.733-.529-.984 2.572-4.471 5.096-6.5 4.705-1.795-.345-1.895-.122-2.193 4.861-.183 3.052-1.9 4.652-4.458 4.152-.889-.173-1.911-.349-2.272-.391-.361-.043-.421-.977-.134-2.077.533-2.036-.406-2.56-2.21-1.235-1.659 1.219-1.607 3.235.083 3.235 2.977 0 .765 2.499-2.662 3.009-3.824.568-7.901-.853-7.913-2.759-.004-.687-.683-1.25-1.508-1.25s-1.517-.337-1.538-.75c-.105-2.086-1.214-8.796-1.505-9.105-.184-.195-.646 2.402-1.027 5.772-.381 3.37-1.084 6.369-1.562 6.664-.477.296-.868 1.635-.868 2.978 0 1.343-.573 2.441-1.273 2.441-.903 0-1.305-2.105-1.383-7.25-.196-12.901-.373-14.51-1.344-12.25-.473 1.1-.891 4.587-.93 7.75-.038 3.163-.52 5.75-1.07 5.75-1.104 0-1.256-1.231-1.015-8.253.12-3.486-.251-4.912-1.392-5.35-1.219-.468-1.326-1.028-.492-2.586.898-1.678.778-1.934-.768-1.632-1.383.27-1.748 1.078-1.485 3.294.316 2.66.19 2.803-1.347 1.527-1.217-1.009-1.545-2.34-1.162-4.704.295-1.813.114-3.296-.402-3.296-.515 0-.964 1.238-.997 2.75m139.875 2.21c-.447 1.202-10.815 2.026-10.815.859 0-.525-.787-.708-1.75-.408s-5.8.767-10.75 1.039c-13.828.759-16.5 1.368-16.5 3.76 0 1.542.311 1.777 1.282.971 2.033-1.687 16.497-3.119 25.008-2.475 12.888.974 8.187 3.925-7.79 4.889-7.987.482-16.834 1.073-19.309 1.29-.72.063-1.011.597-.647 1.186.445.721 3.493.834 9.309.346 14.854-1.247 14.606-1.277 14.963 1.827.242 2.103-.036 2.609-1.189 2.166-.828-.317-2.32-.09-3.316.505-1.322.79 2.447.907 13.939.433 11.588-.479 15.75-.346 15.75.501 0 .633 1.098 1.151 2.441 1.151 2.553 0 4.22 1.473 2.718 2.402-.481.297-2.282.136-4.003-.357-1.915-.55-3.355-.532-3.712.045a1.113 1.113 0 01-1.529.357 1.106 1.106 0 01-.372-1.516c.832-1.347-.756-1.085-2.793.461-2.362 1.793-2.208 2.483.81 3.631 3.395 1.291 2.167 3.072-1.599 2.319-2.574-.515-2.961-.3-2.961 1.64 0 1.624-.431 2.067-1.582 1.625-.87-.334-2.471-.607-3.559-.607-1.087 0-1.699-.45-1.359-1 .34-.55.141-1-.441-1s-1.059.466-1.059 1.035c0 .713-.604.712-1.939-.003-1.193-.638-2.164-.675-2.521-.096-.587.948-3.698.702-5.544-.438-.558-.345-.961.399-.917 1.693.043 1.27.307 1.744.585 1.053.279-.691 1.018-.94 1.644-.554.625.386 2.949.573 5.164.416 2.215-.158 3.674.07 3.24.507-.433.438-1.783.846-3 .907-1.216.061-3.75.194-5.629.295-3.613.196-3.523 1.342.149 1.903 1.2.183 2.531.884 2.959 1.557.537.844.783.663.794-.585.012-1.458.614-1.716 3.093-1.325 2.16.34 2.939.121 2.61-.735-.258-.673.38-1.285 1.422-1.363 1.039-.079 1.89.453 1.89 1.182 0 .803 1.772 1.59 4.5 1.999 2.475.371 4.5 1.101 4.5 1.622 0 2.599 10.564-6.195 11.388-9.481.347-1.381 3.452-4.139 8.031-7.136 6.571-4.298 7.444-5.223 7.274-7.71-.137-2.005-.844-2.99-2.436-3.391-1.234-.311-1.952-1.037-1.596-1.613.391-.632.163-.748-.574-.293-.773.478-1.417.009-1.753-1.276-.818-3.13-3.334-3.611-3.334-.639 0 1.358.563 2.476 1.25 2.484.847.011.767.357-.25 1.076-1.129.799-1.191 1.187-.25 1.568 3.391 1.376.797 2.549-4.75 2.147-3.3-.238-6-.067-6 .38 0 .448.45.814 1 .814s1 .45 1 1c0 .623-5.184.962-13.75.9-8.44-.061-12.785-.409-11.25-.9 1.375-.44 1.825-.852 1-.916-1.293-.099-1.301-.241-.058-1.027.982-.621 1.812-.408 2.599.668.692.947 1.667 1.265 2.431.792.702-.434 4.483-.845 8.402-.914 6.06-.106 7.084-.375 6.848-1.795-.241-1.447.459-1.593 5.25-1.099 3.805.393 5.528.215 5.528-.569 0-.627-.562-1.177-1.25-1.222-2.62-.173-7.232-1.067-7.649-1.483-.239-.239 1.666-.435 4.232-.435 4 0 4.667-.286 4.667-2 0-1.394-.682-2.014-2.25-2.045-3.665-.073-13.155-1.026-14.435-1.45-.652-.216-1.327-.011-1.5.455m37.369 14.092c-1.201.973-2.184 2.454-2.184 3.291 0 .837-.866 1.797-1.924 2.133-1.059.336-3.6 1.748-5.648 3.137-2.928 1.988-3.902 2.245-4.56 1.207-.655-1.032-.841-.976-.853.256-.008.866-1.126 2.619-2.484 3.895-1.358 1.276-2.264 2.651-2.014 3.057.251.405-.461 1.902-1.581 3.326-2.129 2.707-1.651 5.074 1.702 8.426.726.727 2.998 4.337 5.047 8.021 2.049 3.684 5.156 8.724 6.906 11.199 1.749 2.475 4.801 7.74 6.782 11.7l3.602 7.2 4.941-2.054c3.071-1.276 4.757-2.535 4.454-3.325-.571-1.488 10.154-6.185 28.724-12.578 16.694-5.748 19.288-8.374 14.021-14.193-1.976-2.183-2.154-2.75-.865-2.75 1.737 0 1.483-5.524-.424-9.25-.664-1.296-.498-1.75.638-1.75 1.387 0 1.644-7.594.624-18.441-.048-.518-.749-.068-1.556 1-1.103 1.457-1.48 5.056-1.516 14.441-.05 13.485-.695 16.178-3.257 13.616-.921-.921-5.036-1.967-10.322-2.624-10.387-1.291-10.624-1.4-9.832-4.553.373-1.487.179-2.439-.497-2.439-.626 0-1.108-1.739-1.108-4 0-2.965-.405-4-1.567-4-1.09 0-1.382.584-.959 1.917.49 1.545.219 1.815-1.397 1.393-1.103-.289-1.949-.814-1.88-1.167.267-1.366-2.2-6.143-3.172-6.143-.564 0-1.025-1.125-1.025-2.5 0-3.482-2.533-3.177-4.16.5-1.87 4.223-2.84 3.731-2.84-1.441 0-5.344-1.178-6.358-3.94-3.393-1.133 1.216-2.093 2.014-2.134 1.773l-.503-2.939c-.283-1.652-.136-2.048.435-1.166.705 1.088.968 1.061 1.434-.152.863-2.249-2.584-2.674-5.108-.63m-65.943 28.055c-1.16.429-4.276.843-6.925.92-5.221.153-15.602.627-18.816.859-1.525.11-1.676.35-.639 1.007.965.611.382 1.017-2 1.395-15.585 2.47-3.804 3.033 26.008 1.243 2.953-.178 6.666.049 8.25.503 2.465.707 2.881.548 2.881-1.104 0-1.061.477-1.93 1.059-1.93s.794.429.469.954c-.79 1.278.456 6.046 1.58 6.046.491 0 .892-.839.892-1.865s.989-3.122 2.197-4.658l2.196-2.793-2.851.716c-1.849.464-3.115.291-3.599-.492-.876-1.417-7.663-1.926-10.702-.801m21.602 3.568c-3.359 1.401-3.689 1.905-4.042 6.175-.447 5.397.513 6.743 5.468 7.673 6.739 1.264 8.904-.822 10.264-9.893.659-4.394.574-4.631-1.669-4.644-1.3-.007-3.264-.199-4.364-.426-1.1-.226-3.646.275-5.657 1.115m24.384 20.604c-1.73 7.444-1.548 8.771 1.743 12.721 2.854 3.425 2.949 3.457 4.44 1.5 1.884-2.474 1.229-6.959-2.084-14.25-1.311-2.887-2.494-5.25-2.628-5.25-.134 0-.796 2.376-1.471 5.279M182 502.167c0 .641-.282.885-.626.54-.344-.344-2.153 2.562-4.021 6.458-4.659 9.723-2.744 11.045 11.897 8.209 5.091-.986 2.804-1.953-3.25-1.374-4.522.432-6 .257-6-.713 0-.708.623-1.287 1.383-1.287.761 0 1.619-.9 1.907-2 .34-1.3.03-2-.884-2-.773 0-1.406-.45-1.406-1s.948-1 2.107-1c1.51 0 1.935-.448 1.5-1.582-.334-.87-.607-2.445-.607-3.5 0-1.055-.45-1.918-1-1.918s-1 .525-1 1.167m169 11.195c-5.775 2.351-15.45 6.667-21.5 9.591l-15.497 7.49c-4.488 2.168-6.653 5.557-3.551 5.557.879 0 4.174-.927 7.323-2.059 13.172-4.737 32.596-10.926 45.225-14.409 7.425-2.047 16.2-4.532 19.5-5.522l6-1.799-5.583-.105c-3.071-.059-5.856.166-6.188.499-1.247 1.247-18.874 1.33-18.46.087.218-.652 2.051-1.454 4.074-1.783 4.635-.753 5.936-1.923 2.074-1.865-1.604.024-7.642 1.968-13.417 4.318m-179.39 8.715c-1.178 2.802-1.21 3.945-.177 6.416.691 1.654 1.317 3.457 1.391 4.007.293 2.178 6.883 1.729 7.468-.509.304-1.163 1.15-1.977 1.88-1.809.731.167 1.461-.046 1.623-.474.364-.961-3.282-5.708-4.384-5.708-.441 0-2.054-1.2-3.585-2.666l-2.783-2.667-1.433 3.41m19.405-.372c-.008.662-1.59 1.5-3.515 1.861-7.439 1.396-2.573 5.027 6.137 4.579 4.129-.212 6.363.056 6.363.764 0 .6.9 1.091 2 1.091s1.986-.562 1.968-1.25c-.039-1.546-2.4-4.75-3.5-4.75-.446 0-1.625-.737-2.621-1.638-1.517-1.373-2.067-1.424-3.404-.314-1.331 1.104-1.746 1.085-2.504-.112-.585-.925-.914-1.007-.924-.231" fill="#d3d3d3" fill-rule="evenodd"/></svg>