<svg xmlns="http://www.w3.org/2000/svg" width="500" height="681"><path d="M0 160.464v160.465l4.583-1.965c2.521-1.08 5.57-1.964 6.777-1.964 1.207 0 3.127-.653 4.266-1.451 1.14-.798 5.177-2.21 8.973-3.138 3.796-.927 7.329-2.074 7.851-2.549 1.434-1.301 2.55-1.037 2.55.603 0 .805.87 1.93 1.934 2.5 3.146 1.683 3.565 1.195 1.165-1.36-3.022-3.216-2.04-3.58 10.052-3.722 5.692-.068 13.068-.164 16.39-.213 4.719-.071 6.882.428 9.879 2.281 2.111 1.304 4.817 2.424 6.013 2.488 1.196.064 2.884.778 3.751 1.588 1.421 1.327 1.317 1.586-1.055 2.641l-2.629 1.17 2.75.081c1.513.044 2.75-.369 2.75-.919s.886-1 1.969-1c1.346 0 1.785-.478 1.388-1.513-.753-1.962 1.366-4.487 3.765-4.487 1.033 0 1.878-.406 1.878-.902s1.35-1.373 3-1.948c3.678-1.282 4.12.862 1 4.85-1.076 1.375-1.966 3.047-1.978 3.715-.012.668-1.034 1.737-2.272 2.375-1.237.638-3.174 1.999-4.302 3.024-2.111 1.916-5.455 2.013-13.698.398-2.556-.501-3.75-.374-3.75.396 0 .661-1.04.943-2.5.678-1.375-.25-2.5-.033-2.5.48 0 3.433-14.763-2.386-17.091-6.736-.686-1.282-1.872-2.33-2.637-2.33-.765 0-1.109.454-.766 1.009 1.115 1.805-.516 5.227-1.932 4.052-2.221-1.843-2.58.122-.544 2.98 1.083 1.522 1.97 3.206 1.97 3.741 0 1.344 2.909 3.642 3.66 2.892.336-.337-.161-1.79-1.104-3.23-2.5-3.814-1.556-3.788 3.347.091 2.386 1.889 4.734 3.19 5.216 2.891.483-.298.766.496.63 1.766-.258 2.392 3.247 3.04 15.128 2.797 2.873-.058 3.301.223 2.866 1.885-.538 2.059 2.724 3.797 3.815 2.032.866-1.402 2.442-1.07 2.442.515 0 .781-1.35 1.717-3 2.079-3.234.71-4.119 2.49-1.25 2.515 1.384.012 1.462.198.372.889-2.14 1.355-.394 3.312 1.873 2.099 2.982-1.596 5.021-1.248 4.379.747-.475 1.477-.394 1.516.516.25.734-1.02 1.084-1.1 1.095-.25.008.688.69 1.25 1.515 1.25s1.5-.675 1.5-1.5-.45-1.5-1-1.5-1-.45-1-1c0-2.034 4.569-1.067 4.725 1 .083 1.1-.298 2-.846 2s-.719.45-.379 1c1.635 2.645 7.788.701 12.899-4.076 3.142-2.936 2.525-5.84-1.271-5.987-.979-.039-.632-.45.872-1.032 1.375-.532 3.703-2.414 5.173-4.18 2.67-3.209 5.191-3.153 3.197.07-1.324 2.142-.676 4.205 1.32 4.205.863 0 1.301.581 1.01 1.341-.283.737-.113 1.975.377 2.75.725 1.145.919 1.082 1.033-.341.299-3.739.428-4.096 1.614-4.491 1.423-.475-.256 5.334-1.822 6.302-1.224.756-1.147 3.439.098 3.439.55 0 1-.675 1-1.5s.45-1.5 1-1.5 1 .723 1 1.607c0 .94.562 1.391 1.353 1.088 1.555-.597 4.647 2.608 4.647 4.816 0 1.336 1.177 1.926 3.223 1.616 1.236-.187-.395 6.29-1.981 7.873-1.338 1.334-1.442 1.241-.941-.846.613-2.56-.048-5.154-1.314-5.154-.44 0-.593.789-.341 1.754.252.965.051 4.354-.447 7.532-1.004 6.403-.096 8.295 1.793 3.734 2.663-6.43 5.528-6.402 5.271.051-.088 2.191.201 3.76.642 3.488 1.619-1.001 4.235-11.578 4.263-17.235.016-3.203.869-8.367 1.895-11.476 1.174-3.555 1.942-9.063 2.069-14.846.14-6.35.596-9.344 1.472-9.68.699-.268 1.021-1.137.716-1.93-.452-1.179-.834-1.21-2.085-.172-1.36 1.128-1.47.377-.988-6.725.299-4.397.644-8.445.767-8.995.122-.55.17-2.703.104-4.785-.108-3.463-.289-3.694-2.118-2.715-1.189.636-2 2.094-2 3.594 0 1.428.434 2.256 1 1.906.55-.34 1 .357 1 1.548 0 1.48-.459 1.99-1.449 1.61-1.851-.71-2.571 1.656-2.156 7.092.178 2.338-.062 4.25-.535 4.25-.473 0-.789.337-.701.75.087.413-.117 1.425-.455 2.25-1.234 3.022-2.62 13.055-2.019 14.622.516 1.344.838 1.218 1.932-.755 1.205-2.174 1.32-2.204 1.411-.367.091 1.844.169 1.824 1.003-.25.838-2.085 3.02-3.202 2.929-1.5-.022.413-1.067 5.467-2.321 11.233-2.114 9.715-2.357 10.264-3.323 7.494-.573-1.643-.824-4.466-.559-6.272.585-3.986-1.843-4.154-2.971-.205-.392 1.375-.498-.483-.234-4.128.496-6.865-.109-10.264-1.657-9.307-.492.304-.895.076-.895-.506s.402-1.059.893-1.059c1.575 0 2.491-3.128 5.106-17.422 1.144-6.257.506-10.9-.973-7.078-.426 1.1-1.1 4.813-1.498 8.25-.667 5.752-2.528 8.882-2.528 4.25 0-1.1-.45-2-1-2s-.947-.337-.882-.75c.334-2.115-.285-3.25-1.773-3.25-1.471 0-1.447-.23.214-2.065 1.767-1.953 1.908-1.966 2.585-.25.575 1.458.754 1.275.911-.935.107-1.512.307-3.2.445-3.75.138-.55.306-1.477.375-2.059.069-.582.545-.799 1.059-.482.964.596 8.066-9.315 8.066-11.256 0-1.095 3.82-4.203 5.165-4.203.396 0 .537.951.313 2.113-.265 1.377.625 3.144 2.558 5.077 2.842 2.841 3.843 6.149 2.174 7.18-.746.461.342 19.516 1.162 20.335.53.53 4.142.695 10.445.478 4.663-.16 5.246-.409 4.736-2.017-.321-1.009.119-5.397.976-9.75.858-4.354 1.765-9.904 2.016-12.334.524-5.059.496-5.012 3.241-5.541 1.251-.241 2.301.243 2.682 1.237.463 1.207 1.431.21 3.711-3.823 3.845-6.802 3.743-6.698 4.845-4.926.704 1.131 1.064.736 1.556-1.705.419-2.076 1.101-3 1.969-2.667.969.372 1.305-.525 1.245-3.324-.157-7.248.208-10.45 1.125-9.883.888.549 2.727-3.829 3.341-7.95.164-1.1.73-2.675 1.259-3.5.528-.825 1.132-5.775 1.341-11 .724-18.08.515-19.965-3.171-28.552-1.9-4.429-3.741-10.504-4.091-13.5-.618-5.298-.566-5.452 1.883-5.592 2.217-.127 3.057.652 2.269 2.105-.137.254 1.775 1.934 4.25 3.734 2.475 1.801 4.635 3.573 4.8 3.939.165.367 2.164.487 4.442.267 2.278-.219 4.43.068 4.783.639.438.709 1.485.716 3.312.022 1.886-.717 3.426-.672 5.239.154 2.022.922 2.738.894 3.371-.13.565-.914 1.006-.971 1.487-.193.376.609.095 1.114-.625 1.122-.978.012-.942.248.143.934.799.506 1.789.711 2.2.457.411-.254 1.236.451 1.833 1.566s1.745 2.028 2.55 2.028c.806 0 1.465.45 1.465 1 0 1.786 1.848 1.056 2.495-.986.858-2.7-16.615-19.962-20.245-20.001-.687-.007-1.25-.463-1.25-1.013 0-.55-.675-1-1.5-1s-1.5-.45-1.5-1-.675-1-1.5-1c-.876 0-1.5-.91-1.5-2.186 0-2.71-3.739-6.851-5.558-6.154-.739.284-2.941-.702-4.893-2.19-1.952-1.489-3.549-2.392-3.549-2.007 0 .385-1.712-1.024-3.805-3.131-2.093-2.108-4.964-4.642-6.38-5.632-1.744-1.219-2.782-3.094-3.217-5.811-.547-3.422-.931-3.918-2.62-3.382-1.677.532-1.978.162-1.978-2.44 0-1.92-.467-2.974-1.25-2.817-.729.146-1.2-.687-1.13-2 .128-2.402-1.157-3.079-1.9-1-.805 2.255-1.841.041-1.898-4.056-.053-3.852 2.483-12.327 4.473-14.944.624-.822.566-1.25-.173-1.25-1.636 0-1.372-2.607.449-4.429 1.18-1.179 1.242-1.575.25-1.586-1.064-.013-1.055-.184.042-.879 1.065-.675 1.086-.956.097-1.286-1.378-.459-2.079-7.741-.765-7.945.443-.069 1.33-.181 1.972-.25.642-.069 1.259-1.025 1.371-2.125.112-1.1.537-2.793.944-3.761.57-1.355.369-1.619-.871-1.143-2.661 1.021-1.887-2.011 1.389-5.439 1.65-1.726 3-2.863 3-2.525 0 .337.563.193 1.25-.321 2.653-1.982 4.219-.928 3.994 2.689-.794 12.807 1.504 22.636 4.534 19.392.672-.719 1.222-1.777 1.222-2.35 0-.573.42-1.042.933-1.042.513 0 1.22-.907 1.572-2.015.351-1.108 1.007-1.787 1.456-1.509.449.277 2.021-1.075 3.493-3.004 1.472-1.93 3.037-3.287 3.478-3.014 1.232.761 4.312-3.127 5.719-7.218.814-2.37.911-3.893.272-4.288-1.36-.84-.034-3.952 1.684-3.952.766 0 1.393-.498 1.393-1.107s.675-.848 1.5-.531c.825.316 1.505.252 1.511-.143.013-.796 6.088-3.712 9.989-4.795 1.375-.381 2.821-1.195 3.212-1.809.392-.613 1.517-1.178 2.5-1.256.984-.077 2.575-.463 3.538-.857 1.044-.427 1.75-.269 1.75.391 0 .609-.562 1.178-1.25 1.264-.687.087 1 .424 3.75.75 3.937.467 5.332.235 6.559-1.09.858-.926 2.775-1.988 4.26-2.361 1.485-.373 2.939-1.065 3.232-1.538.729-1.181 7.952-4.274 13.68-5.858 2.602-.72 5.245-1.928 5.872-2.685 1.508-1.816 3.897-1.759 3.897.094 0 .816.595 1.24 1.34.954 1.936-.743 3.673 1.812 2.994 4.407-.425 1.626-1.087 2.066-2.458 1.631-1.422-.452-1.876-.095-1.876 1.472 0 1.137.337 2.068.75 2.068.413.001.758 2.866.767 6.367.01 3.501.54 6.996 1.18 7.766 4.882 5.883-.061 21.849-5.688 18.372-1.552-.96-1.195-3.506.491-3.506.825 0 1.5-.675 1.5-1.5s.45-1.5 1-1.5 1-1.575 1-3.5-.451-3.388-1.002-3.25c-.551.137-1.57-.861-2.264-2.22-2.236-4.374-6.103-5.834-9.746-3.682-2.366 1.398-3.402 1.553-4.465.671-1.086-.901-1.632-.684-2.538 1.01-1.747 3.263-.429 6.837 2.78 7.539 1.504.33 3.212.74 3.796.911.583.172 1.624 2.196 2.314 4.498 2.445 8.161 8.787 12.601 13.545 9.483 3.536-2.316 3.789-3.476 4.464-20.46.51-12.837.874-15.5 2.116-15.5 1.09 0 1.414.888 1.186 3.25-.267 2.769.009 3.25 1.867 3.25 1.8 0 2.059.392 1.486 2.25-.97 3.144-1.187 9.75-.32 9.75.395 0 .459.675.143 1.5-.317.825-.078 1.5.531 1.5s1.144.787 1.188 1.75c.053 1.136.538.715 1.382-1.199.992-2.251 2.086-3.04 4.615-3.328 1.824-.209 3.805-1.048 4.403-1.866.901-1.233 1.636-.723 4.303 2.992 1.769 2.463 3.216 4.859 3.216 5.324 0 .465.9 1.408 2 2.095 1.342.838 2 .891 2 .161 0-.598 1.817.748 4.039 2.992 2.221 2.243 4.548 4.079 5.171 4.079.623 0 1.946.736 2.939 1.635.994.899 2.872 1.752 4.174 1.895 2.817.309 6.637 2.542 6.776 3.961.055.555.205 2.142.333 3.526.129 1.384.546 3.758.926 5.274.649 2.583.562 2.677-1.363 1.483-2.108-1.306-4.578.474-3.37 2.428.271.439.016.854-.566.923-.582.069-1.615.181-2.295.25-1.784.18-2.144 3.388-.559 4.973 1.076 1.076 1.589 1.098 2.513.108.639-.683.889-1.516.555-1.849-.333-.334-.134-.607.444-.607.577 0 1.285.9 1.573 2 .287 1.1.141 2-.326 2-.467 0-.659.988-.426 2.195.62 3.22-2.204 13.087-4.153 14.513-1.985 1.451-3.747.679-2.985-1.309.296-.77.139-1.399-.348-1.399s-1.112.563-1.39 1.25c-.403 1-.52 1-.583 0-.132-2.094-2.079-1.392-2.079.75 0 1.1-.388 2-.861 2-.474 0-.663 1.04-.42 2.311.323 1.688-.187 2.614-1.889 3.433-1.281.616-1.741 1.151-1.021 1.188.72.038 1.031.518.691 1.068-.34.55-.141 1 .441 1s1.059.436 1.059.969c0 .532-.753.679-1.674.326-1.268-.487-1.518-.237-1.031 1.031.353.921.319 1.674-.076 1.675-.396 0-.786 1.154-.867 2.565-.177 3.054-.439 3.373-3.215 3.908-2.716.523-7.118 3.526-5.168 3.526.978 0 .816.452-.528 1.468-2.686 2.032-3.441 1.887-3.441-.659 0-2.141-.033-2.147-1.468-.25-.808 1.067-1.483 2.62-1.5 3.45-.018.831-1.009 2.12-2.204 2.866l-2.172 1.357 2.271 1.713c2.082 1.57 2.138 1.847.672 3.313-.879.879-1.614 2.194-1.632 2.921-.052 2.05-3.597 5.821-5.473 5.821-2.396 0-7.583 3.244-7.15 4.471.2.566 1.07.905 1.934.752.864-.152 1.857.186 2.206.75.349.565-.068 1.027-.925 1.027s-1.559.436-1.559.969c0 .532.675.709 1.5.393.825-.317 1.5-.122 1.5.433 0 1.722-5.516 3.058-9.116 2.209-3.243-.766-3.37-1.051-.634-1.424.688-.094 1.138-.713 1-1.375-.137-.663.102-1.205.532-1.205.43 0 .877-1.15.993-2.555.124-1.492-.204-2.298-.789-1.937-.55.341-1.269-.082-1.598-.939-.938-2.444-2.032-1-1.799 2.373.117 1.682-.193 3.058-.689 3.058-.495 0-.9.477-.9 1.059s.562.773 1.25.424c.688-.35.238.259-1 1.351-1.237 1.093-2.25 2.729-2.25 3.635 0 .907-.421 1.389-.935 1.071-.514-.317-2.142 1.006-3.619 2.941-1.476 1.936-3.36 3.519-4.187 3.519-1.052 0-1.213.376-.538 1.25.532.688.881 2.488.777 4-.121 1.76.306 2.75 1.188 2.75 2.187 0 2.628 2.663.987 5.953-.878 1.76-1.119 3.271-.576 3.607a1.1 1.1 0 01.36 1.509c-.316.512-.098.931.484.931 1.345 0 1.398 6.673.059 7.5-.55.34-1 2.815-1 5.5s-.417 5.14-.926 5.454c-.509.315-.733 2.929-.497 5.809.236 2.88.625 8.562.865 12.626s.849 7.802 1.353 8.306c.504.504.599 2.653.21 4.776-.438 2.398-.209 5.304.606 7.674 1.351 3.93.895 8.324-.991 9.554-2.066 1.346 3.697 2.517 7.825 1.59 2.22-.499 5.836-.777 8.036-.618 3.138.226 4.071-.084 4.333-1.441.183-.952.975-1.73 1.759-1.73 2.098 0 1.724-1.187-1.26-4-4.219-3.977-9.313-15.974-9.313-21.934 0-4.938 1.344-6.826 2.36-3.316.279.962.426-.044.328-2.237-.22-4.915 2.108-5.859 5.093-2.065 1.104 1.404 2.408 2.552 2.898 2.552.49 0 2.441 1.913 4.336 4.25 6.011 7.416 11.765 12.916 12.413 11.866.345-.557.107-3.079-.529-5.603-.636-2.524-.855-4.89-.488-5.258.368-.367.928.325 1.245 1.539.656 2.507 2.344 2.993 2.344.675 0-.843.647-1.78 1.437-2.083.79-.303 1.219-1.118.954-1.81-.935-2.436 6.895-15.764 10.332-17.587 1.773-.94 2.898-2.069 2.5-2.509-.397-.441-.13-.458.594-.04.833.481 1.249.264 1.131-.59-.361-2.629.068-3.85 1.352-3.85 2.883 0 3.645-2.223 1.389-4.053-1.204-.976-1.862-2.103-1.463-2.503.399-.401 1.368-.196 2.153.455 1.107.92 1.542.896 1.945-.107.375-.936.54-.956.597-.073.043.67.664.994 1.379.719.858-.329 1.3.372 1.3 2.063 0 1.768-.65 2.725-2.101 3.089-1.349.338-2.636 2.027-3.596 4.718-.838 2.351-2.057 4.071-2.774 3.917-.81-.174-1.077.377-.727 1.5.696 2.235-.654 4.476-2.455 4.078-.888-.196-1.4.666-1.455 2.447-.047 1.512.299 2.75.768 2.75.796 0-2.034 5.895-3.36 7-.33.275-.857 1.175-1.171 2-.389 1.021-.596.8-.65-.691-.119-3.288-1.949-3.782-3.071-.83-.544 1.43-2.23 3.693-3.748 5.029-1.518 1.336-2.278 2.443-1.689 2.46.596.018 1.159 2.363 1.269 5.282.109 2.887.442 6.6.74 8.25.411 2.275.289 2.638-.504 1.5-.575-.825-1.052-2.261-1.061-3.191-.008-.93-.402-1.93-.876-2.223-1.793-1.108-.318 9.372 1.676 11.906 1.103 1.402 2.197 2.202 2.431 1.778.234-.423.251-.109.037.7-.214.808-.077 1.157.305.775.382-.381 1.973.758 3.537 2.531 2.157 2.446 2.847 2.802 2.859 1.474.022-2.353 3.117-2.249 8.056.27 3.897 1.988 5.627 4.542 2.21 3.261-1.55-.58-1.588-.457-.338 1.079.857 1.053 1.659 1.334 2.041.716.347-.561 1.135.318 1.752 1.952 1.471 3.898.675 3.749-3.913-.731-3.004-2.933-3.792-3.321-3.792-1.865 0 1.527-.35 1.393-2.073-.797-1.139-1.449-2.489-2.635-3-2.635-1.605 0-1.008 2.617 1.016 4.449 1.069.967 2.23 3.062 2.58 4.655.35 1.593 1.094 2.896 1.654 2.896.56 0 3.595 2.7 6.745 6s6.201 6 6.78 6c.579 0 1.622.686 2.318 1.524s1.485 1.304 1.754 1.035c.269-.269 1.391-.006 2.493.584 1.582.846 1.718 1.248.646 1.911-1.087.672-1.012.971.378 1.504 2.262.868 4.754-1.238 4.001-3.381-1.036-2.947-4.485-6.086-7.939-7.226-3.108-1.025-4.644-2.951-2.353-2.951.55 0 1-.675 1-1.5s.337-1.497.75-1.493c1.672.016 15.936 15.574 15.477 16.882-.286.816-.041 1.114.593.722.594-.367 1.552.216 2.13 1.295 1.658 3.098 1.251 3.397-1.585 1.167-1.449-1.14-3.036-2.073-3.526-2.073-1.103 0 1.529 5.225 3.753 7.449 1.666 1.666 2.215 3.474 4.933 16.241.842 3.954 2.17 8.422 2.952 9.928.781 1.506 1.192 3.108.913 3.56-.28.452-.084.822.434.822.519 0 1.169.787 1.446 1.75a43.79 43.79 0 001.29 3.674c.644 1.574.463 1.799-.998 1.238-1.421-.545-1.635-.326-1.052 1.077.403.968 1.536 3.89 2.518 6.493.983 2.602 2.675 6.202 3.761 8 1.087 1.797 2.281 5.405 2.654 8.018.61 4.264 2.557 6.822 2.557 3.358 0-.765 1.065-1.658 2.367-1.985 2.699-.678 3.604-4.183 3.622-14.04.013-7.027 1.223-6.599 2.058.728.65 5.699 1.418 4.845 2.53-2.811l.726-5 .882 3.989c.581 2.625.529 4.106-.151 4.333-1.547.516-1.253 2.769.803 6.15 2.359 3.88 3.098 3.076 2.067-2.249-1.155-5.971-1.11-6.212.846-4.508.962.838 2.313 1.32 3 1.071.741-.268 1.25.383 1.25 1.599 0 1.42-.465 1.874-1.511 1.472-1.082-.415-1.336-.121-.893 1.032.34.886 1.006 1.611 1.48 1.611.473 0 .624.617.335 1.371s.187 1.644 1.058 1.979c1.503.576 3.216-2.063 4.92-7.583.641-2.077 3.315-1.345 3.902 1.068.317 1.305.64 1.124 1.493-.835.599-1.375 1.118-1.911 1.153-1.191.034.72.513 1.031 1.063.691 1.534-.948 1.194-6.488-.437-7.114-.79-.303-1.193-1.187-.895-1.963.298-.776.893-1.194 1.323-.929.43.266 1.007-.299 1.282-1.255.275-.957.826-2.532 1.225-3.5.555-1.349.349-1.618-.878-1.147-.975.375-1.844-.013-2.219-.988-.338-.882-1.467-1.604-2.508-1.604-1.728 0-2.817-5.734-1.971-10.373.088-.48-.534-.606-1.381-.281-.966.371-1.541.031-1.541-.911 0-.826-1.125-3.722-2.5-6.435-2.305-4.549-3.54-9.105-1.735-6.399.404.606 1.951 1.327 3.438 1.602 2.33.432 2.79.107 3.331-2.359.346-1.574.995-2.635 1.443-2.358 1.28.791 2.021-2.197 1.424-5.747-.492-2.926-.406-3.07.887-1.489 1.899 2.32 2.712 2.208 2.712-.372 0-1.774.247-1.918 1.5-.878 1.095.909 1.5.93 1.5.081 0-1.849-3.737-5.362-4.923-4.628-.593.366-1.077.188-1.077-.394 0-.582-.337-1.01-.75-.951-1.545.223-5.25-1.376-5.25-2.265 0-.968-3.542-6.26-5.841-8.728-1.056-1.134-1.506-1.172-2.119-.179-.877 1.419-5.04-2.332-5.04-4.541 0-.676-.391-1.378-.868-1.562-.477-.183-1.2-1.402-1.607-2.708-.508-1.632-.393-2.161.368-1.691 1.66 1.026 1.333-1.001-.393-2.434-.825-.685-1.5-.852-1.5-.372 0 .479-1.125.872-2.5.872s-2.5-.337-2.5-.75.45-.75 1-.75 1-1.174 1-2.608c0-2.306-.3-2.534-2.584-1.96-1.865.468-2.378.316-1.845-.546.497-.805.311-.931-.571-.386-.815.504-1.066.416-.666-.232.354-.572-.139-1.324-1.095-1.67-3.301-1.196-5.739-3.103-5.878-4.598-.076-.825-.49-2.361-.92-3.414-.515-1.263-.419-1.69.284-1.256 2.08 1.286 2.094-2.147.019-4.375-1.983-2.128-2.149-2.152-2.759-.413-.584 1.665-.709 1.62-1.249-.442-1.129-4.32.23-5.407 3.129-2.503 2.199 2.202 2.69 2.363 2.968.973.182-.916-.163-2.262-.768-2.991-.605-.729-.856-1.961-.557-2.738.352-.919-.14-1.412-1.41-1.412-1.073 0-1.733.353-1.466.785.268.432-.033.786-.667.786s-1.379-.869-1.657-1.931c-.3-1.148-1.073-1.713-1.907-1.393-.993.381-1.401-.266-1.401-2.224 0-2.699.046-2.72 2-.952 1.262 1.142 2 1.358 2 .584 0-1.704 2.6-4.141 3.505-3.286.409.386.432-.31.052-1.548-.418-1.36-.27-2.25.376-2.25.587 0 .954-.506.817-1.125-.138-.619.239-1.307.837-1.529 1.398-.52 1.802 8.296.419 9.15-.553.342-1.006 1.072-1.006 1.622s.45.722 1 .382c.55-.34 1-.115 1 .5 0 2.403 2.006-.278 2.102-2.809.091-2.392.194-2.304.92.784.45 1.912.631 3.777.404 4.146-.228.368.312.948 1.2 1.289 1.231.472 1.493.152 1.101-1.347-.283-1.082-.111-2.102.382-2.266.856-.285 2.061-14.797 1.228-14.797-.221 0-.808 1.012-1.306 2.25-.891 2.217-.905 2.218-.968.115-.035-1.199.988-2.823 2.333-3.705 1.318-.864 2.372-2.153 2.343-2.865-.241-5.793 1.116-6.253 12.929-4.383 3.394.538 4.415.316 5.5-1.191 1.353-1.88 19.48-11.394 23.911-12.549 1.331-.348 3.408-2.17 4.613-4.05 1.387-2.162 4.88-4.903 9.5-7.457 4.02-2.221 8.208-4.871 9.308-5.889 1.1-1.017 3.876-3.183 6.169-4.813 8.273-5.879 24.85-19.733 25.683-21.464.468-.974 1.912-2.337 3.207-3.031 1.296-.693 4.279-4.007 6.629-7.364 2.351-3.357 5.407-7.16 6.793-8.451l2.519-2.346.511 65.346c.288 36.845.517-4.657.524-95.153.008-88.275-.12-152.561-.283-142.857-.295 17.516-.313 17.642-2.525 17.558-1.225-.046-3.793.286-5.707.738-3.148.742-3.351.665-2.128-.809 1.015-1.223 1.046-1.63.123-1.63-.682 0-.973-.668-.653-1.5.316-.825.139-1.5-.393-1.5-.533 0-.969.337-.969.75-.001.413-2.588.737-5.75.721-7.645-.039-8.464.26-7.197 2.629.695 1.298.689 1.9-.018 1.9-.569 0-1.035.48-1.035 1.067s.787.829 1.75.536c.962-.292 3.307-.795 5.209-1.118 1.903-.323 4.063-1.088 4.801-1.701 1.033-.857 1.458-.666 1.851.836.517 1.979 2.414 2.177 9.639 1.003l2.75-.447v55.682l-7.75-3.991c-4.262-2.195-10.849-4.851-14.636-5.903-3.787-1.051-7.847-2.542-9.022-3.311-1.174-.77-4.151-1.724-6.614-2.119-2.463-.396-7.326-2.264-10.806-4.151-5.501-2.982-6.939-3.352-11-2.826-4.417.572-4.992.356-10.542-3.976-4.58-3.574-6.691-4.581-9.601-4.581-4.682 0-9.909-1.718-12.593-4.139-2.489-2.243-4.406-2.351-6.995-.393-4.269 3.229-20.324.458-25.941-4.477-4.153-3.649-7.959-4.841-14.55-4.559-3.547.152-7.638-.134-9.09-.637l-2.639-.914 2.889-7.504c1.59-4.127 2.89-8.376 2.89-9.441 0-1.065.45-1.936 1-1.936s1-.851 1-1.891 1.8-4.069 4-6.732c5.526-6.687 5.338-10.802-.5-10.956-1.65-.043-5.733-.335-9.073-.648-5.165-.484-6.243-.297-7.207 1.247-1.464 2.343-7.491 1.064-12.22-2.594-.825-.638-2.175-1.179-3-1.202-.825-.024-4.092-.557-7.26-1.186-6.181-1.227-7.986-.843-7.085 1.505.379.988.097 1.299-.85.936-.78-.3-2.721.575-4.313 1.943-1.93 1.659-3.275 2.173-4.036 1.542-.627-.521-1.436-.651-1.798-.289-.362.362-.658.101-.658-.58 0-.681.675-1.913 1.5-2.738 2.059-2.059 1.88-4.024-.421-4.626-1.057-.277-22.715-.576-48.13-.665-46.158-.162-46.207-.16-45.67 1.892.295 1.13-.065 4.334-.8 7.12l-1.336 5.066 5.991 9.917c7.32 12.117 7.933 16.329 2.983 20.494-1.714 1.442-3.117 3.258-3.117 4.034 0 .776-.917 1.411-2.038 1.411-1.623 0-1.979-.556-1.75-2.729.171-1.616-.221-2.788-.962-2.875-2.595-.304-2.705-.494-1.024-1.77 1.511-1.148 1.55-1.547.311-3.218-1.387-1.872-1.442-1.87-2.943.092-1.493 1.951-1.531 1.935-1.562-.643-.038-3.112 2.002-4.175 5.477-2.854 3.008 1.144 3.093.652.515-2.969-1.102-1.548-3.315-3.042-5.007-3.381-1.668-.333-2.938-.954-2.823-1.38.116-.425-.86-2.798-2.168-5.273-1.939-3.669-2.392-6.07-2.452-13-.041-4.675-.524-8.831-1.074-9.235-.55-.404-44.762-.741-98.25-.75L0 0v160.464m.488.536c0 88.275.118 124.388.262 80.25.144-44.137.144-116.362 0-160.5C.606 36.613.488 72.725.488 161M187.13 5.411c-6.271 4.703-8.262 8.254-5.691 10.153 1.64 1.212 2.047 3.209 2.644 12.954.388 6.337 1.225 12.149 1.861 12.915.637.767 1.388 2.666 1.67 4.222.282 1.555 1.16 3.543 1.951 4.417.792.875 1.138 1.891.771 2.259-.368.368 0 .669.817.669.818 0 3.03 1.392 4.917 3.093 1.886 1.701 4.323 3.73 5.415 4.509 1.667 1.189 1.791 1.727.771 3.36-.701 1.122-.826 2.185-.297 2.513.505.312.746 1.462.535 2.555-.212 1.101.666 3.207 1.967 4.72 2.209 2.568 2.46 2.632 4.194 1.074 1.131-1.015 2.834-1.465 4.398-1.161 2.033.394 2.798-.04 3.75-2.131 2.526-5.544 1.644-7.803-6.094-15.603-2.993-3.017-6.412-7.386-7.596-9.708C201.928 43.9 200.564 42 200.08 42c-2.39 0-6.412-16.588-6.85-28.25-.242-6.463-.731-11.72-1.085-11.683-.355.037-2.612 1.542-5.015 3.344M446.875 9.64c-.069.198-.188.698-.265 1.11-.308 1.645-1.795 3.254-2.566 2.777-.449-.278-1.335.119-1.967.881-.633.762-1.953 1.176-2.934.919-.98-.256-2.397.275-3.149 1.18-1.932 2.328.386 3.708 5.256 3.129 2.063-.245 3.75-.151 3.75.209 0 .962 6.396.822 7.103-.155.332-.459 2.478-.984 4.77-1.168 7.349-.591 14.127-3.575 14.127-6.22 0-3.112-1.816-2.915-3.05.33-.937 2.463-1.117 2.527-2.804 1-.992-.898-3.193-1.632-4.891-1.632-1.699 0-3.238-.447-3.422-.993-.305-.909-9.671-2.195-9.958-1.367m-184.15 6.727c-1.647 1.29-1.575 1.429 1 1.927 1.526.295 4.893.361 7.482.147 2.588-.215 4.979.052 5.313.592.873 1.411-.907 1.78-11.02 2.283-11.887.59-18.589 3.757-19.667 9.293-.225 1.153-1.222 1.903-2.555 1.921-4.689.064-10.155 7.993-7.405 10.743.62.62 1.127 1.889 1.127 2.82 0 .931.675 1.952 1.5 2.269.825.316 1.5 1.511 1.5 2.654 0 1.905 4.354 6.984 5.987 6.984.383 0 .654-1.462.604-3.25l-.091-3.25 10.5-.044c13.704-.058 14.333-.147 13.651-1.924-.31-.807-.166-1.714.321-2.014.486-.301 1.156.311 1.489 1.36.6 1.889 4.539 3.708 4.539 2.096 0-.736 3.306-2.288 5.167-2.425.366-.027 1.004-.386 1.416-.799.413-.412 2.012-.75 3.554-.75 1.951 0 3.473-.906 5.006-2.979 1.681-2.275 2.513-2.721 3.518-1.888.994.825 1.485.637 2.008-.77.69-1.857 3.726-4.986 5.395-5.56.483-.167 1.037-1.353 1.231-2.635.375-2.475 2.538-4.389 3.964-3.508 1.118.691 5.102 1.352 10.971 1.82 2.602.208 5.138.63 5.637.938 1.322.817 3.437-2.117 2.555-3.544-.524-.848-.224-1.012.996-.544.96.369 1.892.67 2.07.67.179 0 .121.788-.129 1.75-.701 2.705 9.755 2.522 12.361-.216 1.913-2.01 1.992-7.534.107-7.534-.52 0-.667.45-.327 1s-.084 1-.941 1c-1.371 0-1.971-1.094-1.717-3.131.179-1.434-3.652-3.986-4.332-2.886-.501.812-1.071.796-2.099-.057-1.086-.901-1.411-.884-1.411.074 0 .993-.303.993-1.5 0-1.37-1.137-1.927-.706-1.618 1.25.111.705-1.795 1.124-4.632 1.019-.687-.026-1.25.53-1.25 1.235 0 .705-.704 1.552-1.563 1.882-.86.33-1.284 1.053-.941 1.607.342.554.145 1.007-.437 1.007S319 26.387 319 25.638c0-1.728-5.011-1.304-6.466.548-1.217 1.547-6.534 2.132-6.534.719 0-1.909-6.546-7.455-9-7.625-5.559-.384-9.038-1.409-8.383-2.469.464-.752-.453-.877-2.972-.404-2.293.43-3.645.298-3.645-.355 0-.85-2.804-.855-5-.008-.275.106-.95.087-1.5-.043-4.38-1.034-11.237-.838-12.775.366M175.5 19.94c-4.703 1.316-5.955 2.794-5.955 7.027 0 2.274.537 4.465 1.192 4.87.743.46 1.299 4.162 1.477 9.849.157 5.012.548 8.953.869 8.758.321-.196 2.22 3.112 4.22 7.35 3.814 8.08 7.01 12.345 10.155 13.552 1.43.548 1.599.997.709 1.887-2.966 2.966-.692 8.833 4.991 12.88 3.021 2.151 3.167 2.163 4.482.364.748-1.023 1.378-1.436 1.4-.918.022.517.94-.859 2.04-3.059 2.338-4.672 1.842-8.5-1.099-8.5-1.09 0-1.981-.504-1.981-1.12 0-1.81-5.395-9.804-6.643-9.843-1.387-.045-2.357-2.356-2.357-5.619 0-1.432-.584-2.418-1.433-2.418-.788 0-1.725-1.013-2.082-2.25-.358-1.238-1.719-5.85-3.024-10.25-1.306-4.4-2.956-11.402-3.667-15.56-1.165-6.804-1.494-7.503-3.294-7m-9.506 27.81c-.004.962-.679 3.039-1.5 4.614-1.958 3.754-1.897 9.054.149 12.982a363.628 363.628 0 012.516 4.916c.48.969.592 2.882.249 4.25-.376 1.497-.196 2.488.452 2.488.593 0 .818.675.502 1.5-.317.826-.03 1.5.638 1.5s.955.674.638 1.5c-.79 2.06 1.843 1.925 4.351-.222 1.295-1.109 2.011-2.953 2.011-5.18 0-4.339-3.829-16.208-5.732-17.766-1.09-.893-1.172-1.644-.347-3.184 1.35-2.523 1.505-6.37.172-4.265-.644 1.018-1.058.555-1.564-1.75-.732-3.335-2.525-4.313-2.535-1.383m64.257 3.398c-.531 2.031-.633 2.05-1.875.351-2.25-3.076-3.94-.374-3.781 6.044.157 6.325 1.217 7.588 5.905 7.035 1.65-.195 3.563-.405 4.25-.466C235.438 64.05 236 63.1 236 62c0-1.333.667-2 2-2 1.1 0 2 .45 2 1 0 1.211 2.673 1.337 3.401.161.285-.462-1.083-2.374-3.04-4.25a606.638 606.638 0 01-5.824-5.661c-2.821-2.801-3.576-2.819-4.286-.102M323 68.917c0 .504.563 1.143 1.25 1.421 1 .403 1 .52 0 .583-.761.048-1.256 1.547-1.265 3.829-.011 2.733-.271 3.347-.956 2.263-.739-1.169-.904-1.009-.772.75.093 1.23.523 2.237.956 2.237.433 0 .787.675.787 1.5 0 1.937-.903 1.897-3.153-.138-1.555-1.408-2.044-1.443-3.482-.25-.92.763-1.716 1.209-1.769.991-.053-.218-1.159-.059-2.457.353-2.137.678-2.3 1.145-1.713 4.897.667 4.255 7.156 11.847 8.466 9.903.334-.496 1.427-1.204 2.427-1.574 1.197-.442 1.622-1.291 1.244-2.482-.341-1.077.239-2.684 1.431-3.964 1.103-1.184 2.006-3.071 2.006-4.194 0-3.413 2.313-2.284 6 2.927 1.925 2.721 4.288 5.222 5.25 5.557.962.335 1.75 1.478 1.75 2.541s.4 1.933.888 1.933c1.203 0 .615 8.192-.774 10.787-1.715 3.205-1.418 6.418.558 6.036 1.038-.2 1.777-1.462 1.947-3.323.336-3.662.956-7.785 1.917-12.75.511-2.639.373-3.75-.464-3.75-.655 0-.912.45-.572 1 .34.55-.139 1-1.063 1-1.205 0-1.402-.355-.696-1.25.542-.687.895-2.3.784-3.582-.128-1.473.632-2.88 2.061-3.816 1.909-1.251 2.117-1.904 1.324-4.168C343.11 79.045 332.299 70 327.956 70c-1.076 0-1.956-.45-1.956-1s-.675-1-1.5-1-1.5.412-1.5.917m-79.032 10.922c-.807.267-2.016 1.2-2.686 2.073-1.05 1.368-1.233 1.381-1.327.088-.06-.825-1.424 1.2-3.032 4.5-3.074 6.308-2.546 8.53 2.018 8.485 3.336-.033 4.734-1.889 2.632-3.494-2.731-2.084-1.141-3.093 1.818-1.154 2.328 1.525 2.572 1.482 4.781-.848 1.28-1.35 2.891-2.462 3.578-2.472 1.559-.021 2.036-5.515.606-6.983-.63-.645-6.602-.784-8.388-.195m-14.468 29.47c-1.1.655-2.299 1.605-2.665 2.112-.383.531-1.653.296-3-.556-3.291-2.081-9.197-.85-12.888 2.685-3.303 3.166-2.907 3.752 3.289 4.864 2.174.391 4.605.206 5.814-.441 1.548-.828 2.444-.808 3.514.08.985.818 1.436.847 1.436.094 0-.793.763-.789 2.75.016 1.512.612 3.781 1.054 5.042.983 1.622-.093 2.207.353 2 1.525-.204 1.157 1.588 2.589 5.944 4.75 3.429 1.701 6.975 4.149 7.878 5.438.936 1.336 1.912 1.907 2.27 1.328.707-1.144 2.688.115 5.116 3.25 1.356 1.751 1.339 1.877-.177 1.31-2.259-.846-3.657 1.131-3.261 4.612.395 3.473 3.383 7.096 4.736 5.743.52-.52 1.566-.708 2.324-.417.758.291 1.378-.001 1.378-.649 0-.735.595-.584 1.581.402 2.483 2.484 3.534.839 3.046-4.771a682.886 682.886 0 01-.538-6.442c-.049-.701-1.241-1.713-2.649-2.248-1.408-.535-2.28-1.427-1.937-1.982.343-.555-.08-1.279-.94-1.609-.859-.33-1.563-.979-1.563-1.443 0-1.371-6.258-10.331-8.206-11.75-.986-.718-1.794-1.956-1.794-2.75 0-1.53-.837-1.765-5.25-1.474-1.819.12-2.75-.309-2.75-1.269 0-2.448-7.138-3.394-10.5-1.391m-91.77 51.728c-.876 1.355-2.184 4.375-2.905 6.713-.722 2.338-1.679 4.25-2.127 4.25-.449 0-.594.36-.322.8.272.44-.327 1.313-1.332 1.94-1.627 1.017-1.811.805-1.685-1.943.172-3.763-2.01-4.842-3.297-1.631-.514 1.284-.964 2.017-.999 1.629-.12-1.338-4.91 4.148-5.608 6.423-.385 1.255-1.15 2.845-1.7 3.532-.702.878-.592 1.255.373 1.265.826.01.974.308.372.75-2.322 1.706-3.742 5.468-2.381 6.309.986.609.642 1.418-1.408 3.318-1.491 1.382-2.711 3.069-2.711 3.75s1.463-.258 3.25-2.087c1.787-1.828 3.25-3.695 3.25-4.149 0-.894 2.001-3.916 4.691-7.084 2.752-3.242 5.189-2.072 3.286 1.577-.832 1.594-1.287 3.125-1.01 3.401.276.276-.158.997-.964 1.601-1.035.776-1.177 1.54-.484 2.599.823 1.258 1.124 1.278 1.869.122.489-.758 1.389-1.069 2-.691.707.437 1.154-.335 1.227-2.122.174-4.22.249-4.502 2.324-8.7 1.057-2.14 2.741-4.105 3.742-4.367 1.981-.518 2.379-1.778.857-2.718-.616-.381-.616-1.505 0-3.125.529-1.391.962-3.68.962-5.087 0-2.021.28-2.324 1.337-1.447 1.797 1.491 6.002-2.818 5.084-5.21-.837-2.18-2.402-2.121-2.491.095-.061 1.506-.178 1.476-.838-.213-.731-1.87-.842-1.847-2.362.5m28.102 6.465c-.276.276-.379 4.812-.229 10.08.293 10.279-.147 12.807-2.1 12.058-.87-.334-1.214.765-1.156 3.692.045 2.292-.269 5.178-.698 6.412-.65 1.87-.49 2.132.959 1.576 1.336-.513 1.59-.28 1.097 1.006-.353.921-.259 1.674.21 1.674.468 0 1.087-.9 1.375-2 .74-2.832 2.728-2.49 2.487.428-.111 1.335-.481 2.255-.822 2.044-.342-.211-.622.271-.622 1.072s.488 1.463 1.084 1.471c.595.009.408.452-.417.985-1.293.835-1.266.971.191.985.93.008 1.986-.462 2.346-1.045.821-1.328 1.177-25.941.375-25.94-.323 0-.648-1.597-.721-3.549-.074-1.952-.369-3.93-.657-4.395-.287-.466.15-1.104.972-1.42.822-.315 1.494-1.092 1.494-1.727 0-.869-.342-.87-1.383-.006-1.502 1.246-3.177-1.188-2.061-2.993.585-.947-.847-1.286-1.724-.408m157.551 42.248c-.339 1.238-1.151 2.25-1.803 2.25-.653 0-2.738 1.627-4.634 3.615-2.946 3.091-3.121 3.516-1.202 2.935 1.773-.538 2.117-.353 1.643.885-.708 1.844-1.985 2.025-2.975.422-.45-.727-1.227-.15-2.138 1.589-1.818 3.471-1.025 4.276 2.16 2.189 3.209-2.102 4.55-2.069 4.629.115.051 1.388.244 1.303.936-.412 1.013-2.514 4.912-4.101 5.949-2.421.473.764 1.312.453 2.591-.96 1.717-1.898 2-1.94 3.08-.464.984 1.346 1.162.923 1.035-2.453-.115-3.056-.53-3.996-1.654-3.75-.825.181-1.387.865-1.25 1.519.137.655-.538 1.198-1.5 1.206-1.363.012-1.45.206-.393.875 1.702 1.079.171 2.11-2.414 1.626-1.069-.199-2.505-.397-3.193-.439-3.682-.226.341-6.577 4.167-6.577 1.054 0 2.128-.634 2.386-1.409.337-1.011-.041-1.213-1.337-.716-1.066.409-2.146.166-2.636-.591-.605-.935-.997-.673-1.447.966m173.311 125.836c-3.499 3.01-4.641 3.057-4.038.164l.469-2.25-1.312 2.184c-.722 1.202-1.763 2.327-2.313 2.5-.55.174-.896 1.086-.769 2.027.142 1.051-.272 1.519-1.071 1.212-.733-.281-1.811.612-2.46 2.038-1.262 2.769-5.2 3.555-5.2 1.039 0-.825-.337-1.499-.75-1.497-.988.004-4.48 5.244-4.255 6.385.18.909-1.896 2.569-3.245 2.597-.413.008-.75-1.179-.75-2.638 0-2.635-.025-2.626-3.524 1.25-5.532 6.126-6.235 7.068-6.945 9.304-.366 1.155-1.037 2.099-1.491 2.099-.893 0-2.458-3.026-2.199-4.25.088-.413-.691-.75-1.73-.75-1.039 0-1.868.563-1.842 1.25.207 5.581-2.362 8.183-3.753 3.801-.842-2.655-2.981-1.621-3.164 1.529-.105 1.808.258 2.4 1.242 2.022 1.374-.527 5.406 2.947 5.406 4.658 0 .486-.675 1.558-1.5 2.383-2.043 2.042-1.885 4.1.368 4.815 6.296 1.998 7.406 10.881 2.88 23.042-1.637 4.4-3.811 10.25-4.83 13-3.102 8.372-2.032 16.566 6.628 50.735 2.98 11.756 1.528 31.925-2.916 40.515-.925 1.788-1.29 3.25-.811 3.25 1.56 0 3.796-3.406 5.239-7.981l1.414-4.48.828 3.98c1.736 8.35 3.058 37.601 1.851 40.939-2.694 7.452-.427 12.542 5.588 12.542 3.005 0 9.04 4.06 10.492 7.058 1.987 4.102-.732 7.815-4.318 5.896-1.487-.796-2.41-.786-3.401.036-1.517 1.259-8.512.354-8.512-1.101 0-.489-.675-.889-1.5-.889s-1.5-.381-1.5-.847c0-.746-1.161-2.342-5.021-6.903-2.462-2.909-4.203-1.308-1.818 1.672 1.286 1.607 3.345 4.194 4.576 5.75 1.23 1.555 2.242 3.616 2.25 4.578.007.962.402 1.75.876 1.75 1.207 0 6.211 11.391 7.908 18 3.122 12.164 5.077 32.539 3.742 39-.284 1.375-.891 4.614-1.348 7.197-.906 5.119-1.867 6.676-7.087 11.498l-3.46 3.196 2.637 2.636c2.564 2.564 9.745 16.083 9.745 18.346 0 .62.45 1.127 1 1.127a1 1 0 011 .993c0 .546.781 2.796 1.736 5 1.646 3.8 1.962 4.007 6.107 4.007 3.781 0 4.27-.236 3.624-1.75-.411-.962-1.471-3.775-2.357-6.25-.885-2.475-1.947-4.65-2.36-4.833-.413-.184-.76-1.309-.772-2.5-.012-1.192-.902-3.292-1.978-4.667l-1.956-2.5-.022 2.691c-.012 1.48-.452 2.957-.978 3.282-1.598.988-4.203-4.112-3.863-7.563.588-5.958 6.531-4.052 8.643 2.771 1.713 5.535 4.858 9.281 6.146 7.319.541-.825.739-2.288.44-3.25-.359-1.154-.011-1.75 1.023-1.75.862 0 1.567.45 1.567 1s.884 1 1.965 1 3.556 1.397 5.5 3.104c3.173 2.785 3.535 3.622 3.535 8.166 0 2.785.122 4.876.27 4.647.149-.229.036-78.341-.25-173.581l-.52-173.164-2.806 2.414M27.579 345.5c.664 4.114 1.218 5.157 6.373 12 1.658 2.2 3.576 5.125 4.264 6.5.688 1.375 2.676 4.525 4.419 7 1.742 2.475 5.287 8.55 7.877 13.5 4.59 8.774 7.4 12.921 8.208 12.113.219-.219-.528-2.128-1.661-4.241-1.132-2.113-2.059-4.324-2.059-4.913 0-.589-1.156-2.62-2.569-4.515-1.414-1.894-3.235-5.013-4.048-6.93-.813-1.918-2.298-4.393-3.299-5.5-1.002-1.108-2.127-3.305-2.501-4.882-.374-1.577-.944-2.604-1.266-2.282-.322.322-2.067-1.873-3.876-4.878-1.81-3.006-3.999-6.173-4.866-7.04-.866-.866-1.585-2.33-1.597-3.253-.012-.924-.927-2.804-2.033-4.179l-2.011-2.5.645 4M108 349c0 .55-1.064 1-2.365 1-1.301 0-3.459.86-4.795 1.911-1.337 1.052-4.885 2.386-7.885 2.965-8.561 1.653-9.187 1.83-13.955 3.967-3.858 1.728-4.144 2.043-2 2.205 1.375.104 2.812.144 3.192.09 1.198-.172 4.808 5.047 4.808 6.95 0 1 .524 2.969 1.165 4.376 1.126 2.47 1.225 2.495 2.878.72.942-1.011 2.024-2.821 2.406-4.022.381-1.201 2.453-3.191 4.605-4.423 2.224-1.273 4.329-3.426 4.877-4.989 1.036-2.953 3.738-3.629 5.994-1.5 1.06 1 1.417 1 1.783 0 .252-.687 1.228-1.25 2.169-1.25 1.166 0 2.07-1.348 2.842-4.241 1.201-4.499.766-6.377-.82-3.542-.525.937-1.611 1.447-2.42 1.137-.807-.31-1.219-.966-.914-1.459.304-.492.076-.895-.506-.895s-1.059.45-1.059 1m294.542 71.853c-.571 3.304-.309 5.353 1.085 8.5 1.938 4.375 4.373 7.558 4.373 5.718 0-2.259 1.867-.938 2.371 1.679.292 1.512 1.034 5.337 1.651 8.5 1.151 5.91 2.576 7.476 3.182 3.5.189-1.238.895-2.137 1.57-2 1.907.389 1.443-2.533-.751-4.727-1.171-1.171-1.744-2.701-1.406-3.75.406-1.26.305-1.403-.35-.493-.634.88-1.237-.461-1.932-4.295-.824-4.547-.764-5.48.327-5.061 1.812.695 1.683-1.425-.331-5.463-1.489-2.984-1.752-3.136-2.43-1.404-.631 1.611-.772 1.455-.831-.915-.061-2.513-.363-2.785-2.487-2.252-1.507.378-2.581.137-2.853-.642-.239-.686-.773.711-1.188 3.105M67 425.951c0 1.837 1.712 8.817 3.814 15.549 1.867 5.98 6.452 14.5 7.803 14.5 1.34 0 1.793 1.165 1.458 3.75-.09.688.197 1.25.637 1.25s1.401 1.358 2.135 3.017l1.336 3.017 4.908-4.935c2.7-2.714 4.909-5.454 4.909-6.088 0-1.71-2.334-3.733-3.759-3.258-.709.236-1.241-.434-1.241-1.563 0-2.055-2.069-3.447-5.5-3.7-1.1-.082-2.918-.225-4.041-.319-2.237-.187-5.526-6.081-9.444-16.921-2.381-6.589-3.015-7.492-3.015-4.299m55 65.549c-1.04 1.253-.896 1.5.878 1.5 1.167 0 2.122.401 2.122.892 0 1.09 4.762 2.501 7.5 2.222 1.658-.169 1.744-.028.5.826-1.29.885-1.255 1.032.25 1.045.963.008 1.75-.435 1.75-.985 0-2.382 2.902-.724 3.5 2 .362 1.65 1.298 3 2.079 3 .782 0 1.428.337 1.436.75.056 2.711 1.809 3.411 4.359 1.74 1.726-1.13 2.626-1.313 2.626-.534 0 2.164 2.522 3.891 4.26 2.918 1.115-.624 1.875-.463 2.431.513.445.781 1.899 1.576 3.231 1.767 1.332.19 2.611.92 2.842 1.623.313.951-.558 1.126-3.422.685a151.269 151.269 0 00-7.842-.947c-2.2-.197-6.925-.786-10.5-1.31s-7.106-.63-7.846-.235c-.74.394-2.831-.041-4.647-.966-1.815-.926-8.184-2.212-14.154-2.857-5.969-.646-14.228-1.669-18.353-2.274-12.684-1.858-22.327-2.086-24.394-.574-2.802 2.048-.211 5.574 4.672 6.359 3.688.592 3.742.662 2.262 2.922-1.599 2.439-1.134 5.42.844 5.42.644 0 2.429 1.435 3.968 3.188 2.26 2.576 2.972 2.912 3.707 1.75.652-1.029.915-1.077.926-.167.008.7 1.252 1.811 2.765 2.471 1.513.659 3.681 2.16 4.819 3.335 1.138 1.175 2.597 2.313 3.242 2.529.644.217 1.274 1.631 1.398 3.144.125 1.513.579 2.75 1.009 2.75.43 0 .794.563.809 1.25.04 1.848 5.7 8.356 6.539 7.518.395-.396.155-1.4-.535-2.231-.69-.831-.992-2.196-.671-3.033.321-.837.075-2.755-.548-4.263l-1.131-2.741-.707 3c-.396 1.679-.691-2.393-.671-9.25.019-6.737.314-12.25.653-12.25 1.013 0 .995-3.912-.02-4.539-1.78-1.1-1.061-3.725.814-2.971 2.193.881 4.25 1.335 6.5 1.433.963.043 1.75.752 1.75 1.577s.606 1.5 1.346 1.5c2.108 0 8.217 3.312 6.911 3.748-.642.214-2.778-.376-4.748-1.311-3.271-1.552-6.275-1.275-3.978.367.535.383 1.61 1.933 2.39 3.446.779 1.513 2.042 2.75 2.807 2.75.765 0 1.11.453.768 1.007-.945 1.528 3.437 7.081 5.339 6.767 2.289-.377 3.23-1.918 2.535-4.149-.356-1.142-.185-1.628.437-1.244.562.347 1.25.066 1.529-.625.316-.784.536-.624.585.427.144 3.061 6.287 3.35 8.314.39.494-.721.739-.663.75.177.008.688.69 1.25 1.515 1.25s1.5.42 1.5.933c0 2.193 4.143 2.208 6.039.022 1.464-1.688 2.05-1.887 2.454-.836.944 2.456 5.349 1.831 8.62-1.224 2.531-2.365 3.982-2.895 7.921-2.895 3.26 0 5.391-.567 6.574-1.75 2.319-2.316 10.606-2.271 13.196.073 1.019.922 2.626 1.677 3.57 1.677s2.807 1.09 4.139 2.422c1.333 1.333 3.241 2.682 4.24 3 1 .317 3.822 2.337 6.271 4.489 2.45 2.151 4.745 3.732 5.101 3.511.357-.22 1.204.27 1.884 1.089.68.819 2.306 1.489 3.613 1.489 1.711 0 2.378.561 2.378 2 0 1.1-.45 2-1 2-1.831 0-1.031 4.059 1.25 6.349 1.238 1.242 2.407 3.567 2.599 5.167.193 1.6 1.053 3.423 1.913 4.052.865.633 1.294 1.843.961 2.712-.354.922.342 2.526 1.692 3.894 2.787 2.826 5.981 9.376 5.193 10.651-.314.509.509.925 1.829.925 2.967 0 2.788-1.411-1.227-9.64-2.193-4.496-3.21-5.71-4.067-4.853-.857.857-1.148.405-1.164-1.807-.012-1.623-1.136-6.1-2.499-9.95-2.169-6.13-2.291-7.138-.979-8.11.825-.611 1.499-1.366 1.499-1.679 0-1.641-32.976-21.503-37-22.286-1.522-.297-4.938-2.161-9.43-5.147-6.34-4.215-24.246-13.278-26.232-13.278-.815 0-3.495-1.18-5.955-2.621-2.46-1.442-4.737-2.358-5.06-2.036-.322.323-1.527-.073-2.677-.878-2.845-1.993-12.983-1.968-14.646.035m141.75 35.056c-1.672 1.732-.513 2.445 4 2.459 6.981.023 8.221 1.239 8.35 8.184.041 2.171 7.227 3.395 11.15 1.899 3.488-1.33 3.449-1.659-.35-2.983-2.612-.911-3.011-.847-2.532.402.672 1.751.535 1.777-2.784.515-3.632-1.381-2.384-3.81 1.71-3.327 1.763.207 4.299.509 5.635.67 1.336.162 2.766 1.156 3.179 2.209.414 1.054.783 1.338.822.631.053-.974.555-1.026 2.07-.215 1.498.802 2 .76 2-.165 0-.961.267-.968 1.2-.035 1.431 1.431 11.665 1.58 13.8.2 1.091-.705.274-.974-3-.985-6.068-.02-17.569-2.503-20.503-4.425-5.635-3.692-22.693-7.162-24.747-5.034m69.75 7.366c-2.382.502-2.639.775-1.25 1.324.962.38 2.497.404 3.411.054 1.317-.506 1.543-.189 1.093 1.531-.383 1.466-.111 2.169.84 2.169.773 0 1.293-.337 1.156-.75s.179-.75.704-.75c1.175 0 1.536 3.451.379 3.625a81.71 81.71 0 01-2.083.272c-.687.082-1.097 1.014-.911 2.072.285 1.617.097 1.723-1.18.663-1.262-1.047-1.715-.896-2.67.889-1.664 3.109-.743 3.39 4.934 1.504 4.704-1.562 7.564-3.525 5.136-3.525-1.471 0-1.335-3.741.153-4.237 2.676-.892 5.893.405 4.668 1.882-1.512 1.821-.839 2.419 1.914 1.699 1.245-.326 2.206-1.362 2.206-2.379 0-4.044-10.979-7.631-18.5-6.043m-55.75 12.649c-3.038 3.089 2.884 4.065 11.518 1.898 1.745-.438 2.732-.286 2.732.423 0 .632 1.775 1.108 4.132 1.108 4.134 0 9.137 2.328 13.618 6.336 2.586 2.313 2.977 1.147.704-2.098-3.673-5.245-10.187-7.697-21.454-8.076-5.775-.195-10.837-.011-11.25.409m28.083 31.891c-3.116 1.863-7.581 3.766-9.922 4.229-5.032.995-5.936 2.521-2.437 4.115 1.389.633 2.526 1.884 2.526 2.78 0 1.074.538 1.421 1.582 1.021.87-.334 1.756-.607 1.968-.607.213 0 .161-.591-.116-1.312-.278-.725.632-1.921 2.031-2.669 1.394-.746 2.535-1.907 2.535-2.58 0-.672 1.163-1.514 2.585-1.871 2.139-.537 7.415-4.958 7.415-6.214 0-1.086-3.167.12-8.167 3.108m-149.991 4.315c-3.384 6.848-7.003 11.24-7.654 9.288-1.189-3.568-6.409 5.501-8.745 15.194l-.664 2.759 6.36-.59c6.826-.633 8.861-2.058 8.861-6.203 0-1.419 1.423-3.773 3.5-5.791 3.363-3.265 4.594-6.434 2.5-6.434-1.688 0-1.111-2.889 1-5 1.997-1.997 2.464-5.165 1.18-8-1.388-3.062-3.103-1.77-6.338 4.777m313.963-.905c-.458 3.122-.384 3.196 2.612 2.61 1.696-.332 2.631-.239 2.079.207-2.6 2.101-.847 13.311 2.082 13.311.782 0 1.422.752 1.422 1.671s.746 2.496 1.659 3.504c1.361 1.505 1.451 2.289.5 4.376-1.595 3.5-1.506 3.972 1.329 7.03 2.021 2.181 2.761 2.457 3.948 1.472 1.991-1.652 3.845-7.592 3.102-9.934-.86-2.71-7.194-9.206-8.665-8.886-2.027.44-3.463-4.817-1.848-6.764 1.271-1.53 1.461-1.525 2.624.066.854 1.168 1.829 1.465 3.053.932.989-.432 2.135-.713 2.548-.626.413.088.75-1.338.75-3.167 0-3.595-4.194-8.787-5.454-6.749-.911 1.474-4.248 1.356-4.963-.175-.466-1-.7-1-1.166 0-.811 1.738-2.47 1.56-3.918-.421-1.07-1.463-1.281-1.271-1.694 1.543m5.946 37.526c-.814 1.706-1.543 5.935-1.621 9.397-.102 4.53-.846 7.684-2.653 11.25-2.739 5.405-2.673 5.517 2.202 3.754 2.086-.754 3.321-1.87 3.321-3 0-.989.337-1.813.75-1.831 2.487-.105 4.255-3.241 5.215-9.249l1.059-6.628-3.397-3.398-3.398-3.397-1.478 3.102M1.015 663.75L1 681l9.75-.116c5.363-.064 8.957-.323 7.988-.576-.969-.253-1.562-.784-1.316-1.181.245-.398.033-1.376-.473-2.175-.717-1.134-.922-.959-.934.798-.023 3.484-3.347 2.859-4.764-.897-.653-1.73-.919-3.58-.591-4.111.328-.531.005-1.331-.718-1.778-1.047-.647-1.063-1.114-.079-2.299.894-1.077.926-1.677.117-2.177-.614-.38-.9-1.254-.636-1.942.264-.689-.268-1.961-1.182-2.829-2.971-2.818-3.675-4.178-3.346-6.467.178-1.237-.158-2.25-.746-2.25-.589 0-1.077-.788-1.085-1.75-.009-.962-.452-2.425-.985-3.25-.647-1.001-.974 4.243-.985 15.75m428.721-4.784c-.96 1.372-2.158 1.825-3.959 1.499-1.797-.326-5.876 1.211-13.429 5.059-5.966 3.041-11.748 5.427-12.848 5.303-1.1-.124-3.125.403-4.5 1.172-1.375.768-5.2 2.382-8.5 3.585-3.3 1.204-7.8 2.896-10 3.759l-4 1.569 9.25.044c7.503.036 9.587-.286 11.034-1.706 1.787-1.754 6.752-4.003 10.966-4.968 1.795-.411 2.25-.081 2.25 1.633 0 1.181.713 2.421 1.584 2.756 1.275.489 1.324.772.25 1.453-.887.562-.244.851 1.916.861 1.787.008 3.15-.322 3.028-.735-.505-1.703 3.515-6.069 7.225-7.846 2.186-1.047 3.979-2.371 3.986-2.941.006-.571.962-1.109 2.124-1.197 2.695-.203 2.947-.489 3.188-3.623.109-1.424.649-2.489 1.199-2.366.55.123.937.789.86 1.481-.201 1.803 4.101 2.625 7.513 1.436 1.829-.638 3.259-.662 3.854-.067 1.433 1.433 5.91-.633 6.533-3.014.635-2.427-1.389-4.373-4.513-4.337-3.158.035-7.747 1.966-7.747 3.258 0 .596-.408.832-.906.524-.498-.308-.671-1.46-.383-2.559.717-2.743-4.058-2.769-5.975-.033" fill="#d3d3d3" fill-rule="evenodd"/></svg>