<svg xmlns="http://www.w3.org/2000/svg" width="500" height="492"><path d="M25.819 250.728c-1.749.408-2.336 6.241-.735 7.293 1.936 1.272 1.84 6.186-.131 6.702-1.519.397-1.953 1.383-1.953 4.437 0 3.186-.331 3.872-1.75 3.634-1.152-.194-1.855.446-2.058 1.871-.288 2.016-3.052 4.151-3.306 2.554-.748-4.716-.676-7.172.28-9.544 1.009-2.502.847-3.116-1.411-5.375l-2.551-2.55-1.152 2.153c-.634 1.184-1.58 1.889-2.102 1.566-.523-.323-.95.141-.95 1.031 0 .89-.443 1.344-.985 1.009-.607-.375-.76.515-.399 2.32.347 1.735.117 3.218-.564 3.639-.863.533-.858 1.061.022 2.121.842 1.014.855 1.411.048 1.411-.617 0-1.122.703-1.122 1.563 0 1.047-.743 1.459-2.25 1.25L.5 277.5.245 384.752l-.254 107.252 250.254-.252L500.5 491.5l.255-107.25.254-107.25-2.754-.148a2369.01 2369.01 0 00-4.755-.25c-1.285-.066-1.901-.701-1.723-1.777.152-.921-.144-1.934-.657-2.251-.513-.317-.677-1.551-.365-2.744.449-1.719.223-2.036-1.094-1.53-1.101.422-1.661.122-1.661-.89 0-.974-.453-1.244-1.25-.744-1.838 1.152-6.616 1.623-4.893.483.91-.604 1.005-1.116.286-1.56-.588-.364-1.986.254-3.107 1.375-1.12 1.12-2.586 2.036-3.259 2.036-.672 0-.193.721 1.065 1.602 1.516 1.062 2.23 2.495 2.117 4.25-.293 4.546-.023 5.386 1.541 4.786.825-.316 1.5-.139 1.5.393 0 .533-.562.976-1.25.984-.902.011-.866.259.132.891 1.085.687.92 1.022-.764 1.557-1.194.378-1.85 1.162-1.478 1.764.399.645.202.794-.485.368-.635-.392-1.155-.273-1.155.264 0 .538-.273 1.689-.607 2.559-.404 1.053-.049 1.582 1.059 1.582.916 0 1.407.42 1.09.933-.317.513-1.826.897-3.352.853-1.526-.043-3.739.437-4.917 1.068-1.178.63-3.484 1.146-5.124 1.146-1.64 0-3.209.563-3.487 1.25-.277.688-.539.8-.581.25-.046-.599-2.902-.866-7.125-.666-4.069.193-7.597-.121-8.344-.741-.713-.592-1.614-.758-2.002-.37-.388.388-2.371.749-4.408.801-4.926.128-6.567.678-7.382 2.476-.55 1.215-.693 1.161-.75-.285-.059-1.502-.404-1.606-2.177-.658-1.524.816-2.41.826-3.2.036-1.815-1.815-14.361-1.402-15.089.497-.336.875-.326 2.05.021 2.612.347.562.023 1.398-.72 1.857-.813.502-1.656.358-2.113-.362-.479-.753-.767-.362-.777 1.053-.016 2.348-2.372 3.1-3.581 1.143-.477-.771-.944-.696-1.544.25-.721 1.138-.862 1.136-.875-.015-.012-1.107-.306-1.132-1.515-.128-1.462 1.213-2.153-.292-1.566-3.408.26-1.378-1.941-2.415-4.523-2.132-1.269.14-2.541-.357-2.828-1.103-.286-.746-1.365-1.357-2.397-1.357-1.032 0-2.691-.9-3.686-2-1.011-1.117-3.08-2-4.687-2-1.583 0-4.526-.689-6.542-1.531-2.016-.843-4.364-1.225-5.218-.849-2.578 1.132-4.419 1.574-7.22 1.731-1.466.082-2.97.453-3.341.824-.371.371-2.771.041-5.333-.733-6.206-1.875-10.5-.209-12.431 4.824-.407 1.06-2.094 1.72-4.919 1.924-3.872.279-4.363.608-4.936 3.31-.512 2.415-.659 2.55-.755.691-.065-1.27-.54-2.048-1.057-1.729-.516.319-1.402-.217-1.969-1.191-.761-1.307-1.039-1.392-1.062-.321-.023 1.128-.297 1.183-1.23.25-1.692-1.692-7.312-1.493-8.81.312-.868 1.046-1.628 1.203-2.465.509-.665-.552-1.53-.683-1.921-.291-.392.392-1.125.05-1.628-.759-.742-1.192-1.286-1.241-2.874-.257-1.536.952-2.066.952-2.452 0-.277-.683-.527-.448-.571.536-.043.962-.732 1.75-1.529 1.75-.798 0-1.874.756-2.391 1.681-.865 1.544-1.071 1.55-2.55.071-.885-.885-1.609-2.118-1.609-2.74 0-.621-.47-.84-1.044-.485-.574.355-1.699.101-2.5-.563-1.104-.917-1.456-.924-1.456-.027 0 .649-.5.872-1.112.494-.611-.378-1.511-.067-2 .691-.69 1.071-1.026.876-1.505-.872-.339-1.238-1.066-2.25-1.616-2.25s-.765.9-.477 2c.701 2.683-.094 2.519-2.476-.51-1.086-1.38-2.32-2.295-2.743-2.034-.422.261-1.696-.389-2.83-1.446-1.707-1.591-2.157-1.671-2.62-.465-.307.8-1.585 1.448-2.84 1.44-1.429-.01-1.834-.3-1.084-.777.841-.534.892-1.2.174-2.234-.735-1.059-1.161-1.138-1.512-.28-.268.656-1.076.968-1.795.692-.718-.275-2.041.234-2.939 1.132-1.511 1.511-1.696 1.463-2.475-.642l-.842-2.276-1.743 2.661c-2.053 3.132-5.118 4.355-7 2.793-.737-.612-3.888-1.179-7.003-1.261-3.115-.082-5.893-.519-6.172-.971-1.011-1.636-4.58-.812-5.1 1.178-.534 2.043-2.29 2.809-2.29 1 0-1.676-3.019-1.114-3.712.692-.502 1.308-.931.911-1.892-1.75-.961-2.658-1.261-2.937-1.32-1.223-.053 1.546-.531 2.044-1.576 1.643-.825-.317-1.5-.078-1.5.531s-.48 1.107-1.067 1.107c-.637 0-.793-.866-.387-2.146.58-1.826.363-2.063-1.45-1.589-1.225.32-2.763-.075-3.616-.928-1.579-1.579-1.815-1.314-2.805 3.163-.406 1.835-.453 1.819-.559-.191-.193-3.643-2.115-3.749-2.131-.118-.012 2.515-.25 2.949-.994 1.809-.669-1.026-.777.013-.342 3.293l.635 4.793-2.557-1.165c-1.407-.641-2.794-2.069-3.083-3.175-.397-1.518-1.078-1.866-2.783-1.42-1.241.325-2.795.144-3.453-.402-.82-.681-1.701-.488-2.802.613-1.006 1.006-1.606 1.162-1.606.418 0-.662-.816-.975-1.843-.706-1.883.492-4.157-2.008-4.157-4.569 0-1.75-2.961-1.763-3.125-.013-.069.733-.238 1.783-.375 2.333-.137.55-.358 2.462-.49 4.25l-.24 3.25-.752-3.9c-.414-2.146-.533-4.74-.265-5.765.372-1.421.089-1.712-1.19-1.221-1.051.404-1.443 1.25-1.049 2.265.346.892.831 3.175 1.077 5.074.247 1.9 1.002 3.846 1.679 4.326.942.669.951.987.036 1.362-.656.268-.963 1.089-.682 1.822.282.734.032 1.632-.556 1.995-.587.363-1.068.183-1.068-.399 0-.582-.45-1.059-1-1.059s-1 .9-1 2-.502 2-1.117 2c-.67 0-.875-.9-.513-2.25.331-1.238.609-2.573.616-2.969.008-.395.801-.438 1.764-.096 1.495.531 1.458.326-.25-1.404-1.1-1.114-2.338-1.831-2.75-1.594-.412.237-.75-.078-.75-.699 0-1.499-2.381.902-3.299 3.325-1.099 2.9-2.701.918-2.701-3.341 0-3.147-.307-3.791-1.575-3.305-1.142.438-1.486.086-1.25-1.281.247-1.432-.277-1.886-2.175-1.886-1.375 0-2.831-.45-3.235-1-.465-.634-.74-.574-.75.162-.008.658-1.153 1.037-2.639.874-3.441-.378-6.678 2.9-6.817 6.902-.132 3.779-5.098 10.676-7.127 9.898-.781-.3-1.156-.974-.832-1.498.886-1.434-.515-6.009-1.629-5.32-.534.33-.971-.102-.971-.959s-.408-1.559-.906-1.559c-.499 0-.671.9-.384 2 .349 1.332.031 2-.951 2-.924 0-1.818-1.587-2.395-4.25-.737-3.408-1.3-4.183-2.838-3.911-1.602.283-1.713.092-.674-1.161.931-1.121.954-1.68.09-2.214-.836-.516-.849-.903-.049-1.398.783-.484.699-1.241-.285-2.587-1.588-2.172-4.537-.667-4.689 2.393-.047.933-.668.347-1.455-1.372-.756-1.65-1.401-2.55-1.434-2-.04.667-.306.667-.795 0-1.341-1.826-5.072-3.489-5.428-2.42-.185.554-1.399.017-2.699-1.194-2.614-2.436-8.146-3.338-9.434-1.54-.597.834-.989.74-1.413-.335-.382-.968-1.046-.095-1.901 2.5-.895 2.718-1.206 3.113-.976 1.239.224-1.819-.122-2.75-1.023-2.75-.748 0-1.361.502-1.361 1.115 0 .707-.839.566-2.293-.388-2.747-1.799-6.39.051-5.364 2.725.327.851.158 1.548-.374 1.548-.533 0-.969-.449-.969-.997 0-1.677-6.317-3.869-7.794-2.705-1.375 1.084-7.084-4.532-7.165-7.048-.023-.688-.379-1.197-.791-1.132-2.259.357-3.012-.313-2.51-2.231.504-1.926.351-2.006-1.722-.896-1.999 1.069-2.547.901-4.513-1.387-1.231-1.432-2.5-2.604-2.82-2.604-.32 0-1.832-1.158-3.359-2.574-1.798-1.666-2.92-2.145-3.182-1.359-.697 2.092-3.463 4.854-4.326 4.32-.454-.28-.533-1.674-.176-3.097.456-1.815.307-2.377-.496-1.88-.63.389-1.146 1.581-1.146 2.649 0 2.106-2.902 2.742-3.152.691-1.098-9.01-3.348-10.843-8.551-6.969-1.762 1.312-4.325 2.508-5.696 2.659-2.289.251-2.444.019-1.889-2.833.333-1.709.926-3.238 1.319-3.398 1.079-.44-.101-9.552-1.398-10.791-.623-.595-1.89-.906-2.814-.69M.482 385c0 59.125.121 83.313.268 53.75.147-29.562.147-77.937 0-107.5C.603 301.688.482 325.875.482 385" fill="#d3d3d3" fill-rule="evenodd"/></svg>