<svg xmlns="http://www.w3.org/2000/svg" width="500" height="354"><path d="M87.25 37.75c20.763.151 54.738.151 75.5 0 20.763-.151 3.775-.275-37.75-.275s-58.512.124-37.75.275M22.48 134c0 51.975.121 73.237.27 47.25.148-25.988.148-68.513 0-94.5-.149-25.988-.27-4.725-.27 47.25M399 76.531c0 .808-.901 1.469-2.003 1.469-1.647 0-1.315.621 1.871 3.5 2.131 1.925 4.431 3.5 5.11 3.5.68 0 .999.619.708 1.375-.295.769 1.199 3.059 3.393 5.203 2.157 2.105 3.921 3.26 3.921 2.566s.498-.954 1.107-.578c.791.489.76.898-.107 1.434-.787.486-.855.972-.192 1.381.562.347 1.189.129 1.393-.484.235-.704.865-.522 1.708.493.955 1.151.999 1.61.154 1.61-.649 0-.903.45-.563 1 .34.55 1.344 1 2.23 1 .887 0 2.438.747 3.447 1.661 4.515 4.085 2.467-.113-2.573-5.275-3.082-3.157-5.604-6.41-5.604-7.229 0-.82-.296-1.194-.658-.832-1.011 1.011-3.407-1.4-2.671-2.688.357-.625.296-.818-.137-.427-.433.39-1.787-.735-3.009-2.5-1.222-1.766-2.74-3.098-3.373-2.96-.634.138-1.099-.088-1.034-.5.299-1.888-.236-3.081-1.618-3.612-.914-.35-1.5-.001-1.5.893m-64 .547c0 .906 2.251 2.731 3.5 2.837 1.432.122 1.237 2.339-.25 2.835-.687.229-1.25-.328-1.25-1.238 0-1.503-.16-1.495-1.75.095-.962.963-1.762 2.007-1.776 2.322-.014.314-.54 1.462-1.168 2.55-1.086 1.882-1.236 1.894-3.053.25-1.051-.951-2.21-1.729-2.575-1.729-.848 0-.251 8.264.709 9.817.397.642 1.173 3.968 1.724 7.391 1.328 8.245 2.696 9.901 4.723 5.716 1.418-2.928 1.62-3.024 2.846-1.347.726.993 1.32 1.311 1.32.708 0-1.523 3.921-.364 6.084 1.799 1.142 1.142 2.569 1.558 4.034 1.175 2.051-.536 1.869-.785-1.926-2.623l-4.192-2.03V76.4h-3.5c-1.925 0-3.5.305-3.5.678M202 189.5c0 61.508.221 111.612.492 111.342.659-.66.684-221.999.025-222.658-.284-.285-.517 49.808-.517 111.316M33.02 89.026c-1.914 2.094-3.827 3.594-4.25 3.332-.424-.262-.77-.026-.77.524 0 1.252 2.025 2.578 4 2.618 2.845.058 4.219 1.531 2.906 3.113-.655.79-.906 1.721-.557 2.069.348.349.179 1.182-.376 1.851-.75.903-.341 1.217 1.583 1.217 4 0 4.968 1.723 4.717 8.397-.148 3.913.321 7.101 1.331 9.054.936 1.811 1.304 4.031.919 5.562-.406 1.618-.162 2.85.669 3.377.999.633 1.013.833.058.845-.687.008-1.25.492-1.25 1.074 0 .582.412.805.915.494.503-.311 1.142 0 1.421.691.402.998.522.999.585.006.043-.687.724-1.25 1.512-1.25.941 0 1.404-1.018 1.349-2.966-.046-1.631-.466-2.729-.933-2.441-1.01.624-1.146-.962-.167-1.941.375-.375.58-2.588.456-4.917-.123-2.329-.215-6.26-.203-8.735.014-2.935-.28-4.019-.847-3.118-1.038 1.651-1.575.159-2.566-7.139-.517-3.8-.332-4.879.916-5.357.859-.33 1.526-1.339 1.483-2.243-.05-1.038-.265-1.182-.583-.393-.78 1.933-2.543 1.476-1.928-.5.299-.963.112-2.425-.418-3.25-.808-1.26-.964-1.201-.977.372-.012 1.551-.273 1.659-1.515.628-.825-.685-1.5-2.09-1.5-3.122 0-2.841-2.115-2.081-5.98 2.148m80.739-3.452c-.315.315-.635 12.11-.71 26.21-.075 14.1-.307 25.808-.517 26.017-1.505 1.505-6.064-2.662-6.353-5.808-.177-1.921-.74-3.92-1.25-4.443-.511-.522-.936-2.547-.944-4.5-.011-2.581-.27-3.148-.946-2.079-.512.809-1.233 1.168-1.604.798-.8-.8-3.435 1.624-3.435 3.16 0 1.29-2.956 1.385-4.895.157-.977-.619-1.198-1.87-.738-4.173.647-3.233.626-3.256-1.21-1.351-1.028 1.066-1.678 2.455-1.445 3.086.763 2.067-8.547 9.184-10.049 7.681-.325-.325-3.115.434-6.199 1.686-5.186 2.104-5.559 2.471-4.957 4.87.747 2.976 1.891 3.93 5.713 4.761 1.497.326 2.96 1.344 3.251 2.264 1.204 3.793.379 36.573-.954 37.906-.344.345-1.01.004-1.481-.757-.644-1.043-.966-.79-1.309 1.029-.317 1.681-.526 1.2-.69-1.588-.21-3.55-.326-3.719-1.037-1.5-.746 2.328-.816 2.259-1.018-1-.379-6.116-.061-13.339.822-18.616 1.009-6.037.231-6.836-8.762-8.987-8.305-1.987-8.15-2.067-6.505 3.353 1.86 6.13 1.831 6.517-.406 5.32-1.027-.55-2.152-.715-2.5-.368-.347.347-.638-.006-.646-.785-.013-1.167-.187-1.152-.985.083-.761 1.178-.973 1.206-.985.128-.012-1.107-.306-1.132-1.515-.128-1.287 1.068-1.5.722-1.5-2.437 0-2.353.385-3.443 1.067-3.022.589.365.928.056.757-.691-.171-.742.024-1.463.433-1.6 1.778-.598 2.546-.111 3.087 1.956.807 3.089 1.593 1.886.951-1.456-.29-1.512-1.12-2.75-1.844-2.75s-1.587-.854-1.918-1.897c-.411-1.292-1.229-1.734-2.568-1.384-1.087.285-1.965.015-1.965-.602 0-.615.675-1.117 1.5-1.117.986 0 1.477-.942 1.432-2.75-.066-2.701-.087-2.71-1.152-.5-.597 1.238-1.467 2.25-1.933 2.25-.466 0-.847.702-.847 1.559s-.419 1.3-.932.983c-.512-.316-1.614.399-2.448 1.59-.834 1.192-3.228 2.533-5.319 2.981-3.753.805-3.745.81.699.415 2.475-.22 5.513-.707 6.75-1.081 2.146-.649 2.256-.409 2.378 5.186.071 3.227.206 7.217.3 8.867.095 1.65.356 11.55.58 22 .268 12.507.521 15.772.74 9.554.183-5.195.724-9.92 1.203-10.5.478-.58.722-4.717.542-9.193-.325-8.063-.305-8.138 2.089-8 1.329.076 2.417.381 2.417.676.001.296 1.013.657 2.251.803 1.237.146 3.15.409 4.25.585s2.788.377 3.75.447c1.087.08 1.777.981 1.82 2.378.067 2.14.111 2.153.899.25.62-1.499.824-.942.812 2.222-.014 3.823-.194 4.127-1.899 3.215-1.279-.685-1.882-.676-1.882.028 0 .569.645 1.035 1.433 1.035s1.675.787 1.971 1.75c.803 2.606.299 10.25-.676 10.25-.465 0-.587.419-.271.931a1.086 1.086 0 01-.336 1.494c-1.08.667-2.278-1.934-1.329-2.884.867-.866.969-10.541.111-10.541-.366 0-.985 3.825-1.374 8.5-.39 4.675-1.145 8.5-1.678 8.5-.533 0-.624.558-.203 1.24.812 1.314.598 16.035-.276 19.025-.284.97-.934 1.506-1.444 1.191-.51-.316-.928-.097-.928.485S59.45 219 60 219s1 1.04 1 2.311c0 1.272.787 3.202 1.75 4.289 3.309 3.74 2.599 4.172-6.385 3.884-6.142-.197-8.249.032-7.472.809.596.596 3.114 1.109 5.595 1.14 3.031.038 4.512.488 4.512 1.371 0 .723.437 1.044.971.714.534-.33 1.268.586 1.632 2.036.364 1.45.939 2.256 1.279 1.791.813-1.112 3.122-1.554 3.103-.595-.039 1.893-1.785 3.122-4.994 3.516-1.92.235 6.735.473 19.233.528 15.456.068 22.94-.25 23.399-.993.449-.727-.128-.896-1.724-.506-3.037.744-5.244-.914-6.656-5-1.058-3.061-.895-4.926 2.116-24.313.13-.834.578-2.072.997-2.75.419-.677.547-1.581.283-2.007-.263-.426-.16-2.33.228-4.231.59-2.883 1.177-3.493 3.536-3.675 1.555-.119 2.989-.377 3.185-.573.462-.463.468-12.557.015-30.746-.262-10.515-.016-14.993.894-16.295 1.079-1.544 1.336-1.581 1.841-.267.338.881 1.238 1.278 2.124.938 2.209-.847 2.019 3.236-.212 4.574-1.667.999-1.667 1.113 0 2.41.962.748 1.75 2.098 1.75 3 0 1.474 2.561 1.651 25.25 1.752 13.887.062 31.457.275 39.043.474 8.859.232 13.576.011 13.186-.62-.334-.54.097-1.685.957-2.545 2.383-2.383 2.366-72.899-.018-73.814-2.011-.772-75.888-.804-76.659-.033m238.322 21.829c-.894 1.077-.865 1.523.127 1.921.799.32.602.548-.517.597-2.54.111-1.246 1.722 3 3.737 2.99 1.418 3.293 1.821 1.774 2.354-1.286.452-1.475.864-.632 1.385.66.407.975 1.105.7 1.55-.276.445.951 1.1 2.725 1.455 1.892.378 3.367.222 3.568-.379.187-.562 1.258-1.023 2.38-1.023 1.561 0 1.786-.305.958-1.302-.594-.716-.803-2.362-.465-3.656.424-1.62.261-2.135-.521-1.652-1.473.91-5.143-1.076-7.482-4.049-2.097-2.666-3.927-2.972-5.615-.938m69.423 48.604c.342.554-.38 2.414-1.605 4.135-1.982 2.783-2.36 2.948-3.424 1.493-2.092-2.861-5.067-1.893-4.629 1.508.045.353-.801.874-1.882 1.156-1.366.357-1.967.01-1.973-1.143-.011-2.208-12.617 11.324-14.566 15.638-.818 1.811-2.261 3.537-3.207 3.836-5.571 1.76-9.067 4.091-10.254 6.838-.72 1.668-1.53 3.482-1.799 4.032-.27.55.269.373 1.197-.393.927-.765 1.975-1.103 2.329-.75.891.892-.345 1.952-2.459 2.107-3.229.238-4.333 1.479-3.2 3.597.818 1.527.712 1.939-.497 1.939-.844 0-1.535-.423-1.535-.941 0-.517-1.205-.315-2.678.449-1.473.764-3.118 1.118-3.655.786-.537-.332-.713-.177-.391.344.322.521-.322 1.015-1.431 1.099-1.379.104-1.841-.305-1.462-1.293.855-2.228-1.812-1.74-6.735 1.234-3.676 2.22-4.208 2.905-3.113 4 1.899 1.899 3.23 1.648 6.01-1.133 1.383-1.383 2.455-1.895 2.455-1.174 0 2.929-4.871 6.063-7.765 4.995-1.504-.556-2.623-1.54-2.485-2.188.55-2.591-1.626-.974-2.652 1.971-1.451 4.162-1.343 4.759.434 2.41 1.175-1.554 1.468-1.628 1.468-.373 0 1.845-2.391 4.09-3.342 3.139-.362-.362-.658.494-.658 1.901 0 2.555-2.305 4.321-4.151 3.181-1.157-.715-6.849 1.485-6.849 2.647 0 .446-.849 1.081-1.886 1.41-3.31 1.05-4.354 7.988-1.862 12.372 2.463 4.333 5.571 7.111 7.99 7.142.957.012 2.303.922 2.99 2.022 1.5 2.403 6.768 2.801 6.768.511 0-2.174 3.162-5.511 5.222-5.511.978 0 1.778-.45 1.778-1s-.45-1-1-1c-1.582 0-1.165-3.813.742-6.785 2.761-4.302 3.575-4.945 5.599-4.416 1.7.445 1.82 1.085 1.144 6.099-1.46 10.835-1.393 25.934.122 27.191 1.132.939 1.428.617 1.578-1.717.101-1.579.282-3.772.401-4.872.119-1.1.293-2.9.386-4l.169-2 .842 2c.546 1.297.793-.638.701-5.5-.079-4.125.25-10.762.73-14.75.48-3.988.639-7.25.352-7.25-.287 0-2.2.701-4.252 1.559-2.052.857-3.977 1.311-4.28 1.009-.683-.683 5.984-7.16 7.016-6.817.413.137.75-.689.75-1.834 0-1.231.512-1.907 1.25-1.651.755.261 1.12 1.724.921 3.693-.248 2.463.437 4.214 2.797 7.151 2.8 3.484 3.063 5.521.365 2.823-.757-.757-1.239-.62-1.657.468-.324.844-.158 1.801.368 2.126 1.226.758 1.252 4.473.031 4.473-1.43 0 2.49 10.177 4.312 11.197.887.496 1.613 1.42 1.613 2.053 0 .839-.324.826-1.2-.05-2.154-2.154-2.308-1.329-1.684 9.05.669 11.122 1.565 15.75 3.052 15.75.997 0 .584-4.079-.758-7.5-.707-1.803-.612-1.86.962-.578 2.699 2.197 6.964 2.384 6.13.269-.367-.93-.895-3.716-1.173-6.191-.296-2.628-1.311-5.253-2.44-6.31-2.216-2.074-1.657-3.922.89-2.944 1.594.611 1.602.484.12-1.794-1.913-2.938-3.881-15.978-3.19-21.131.638-4.758-1.335-10.811-3.537-10.851-1.561-.029-1.561-.096.003-1.008 2.346-1.369 4.385-7.802 2.933-9.254-.811-.811-1.108-.259-1.108 2.057 0 3.434-2.649 5.691-5.428 4.624-4.043-1.551 1.471-8.589 6.731-8.589 2.235 0 4.21-.71 5.287-1.9.946-1.045 2.325-1.9 3.065-1.9.74 0 1.345-.675 1.345-1.5 0-1.901-.744-1.899-2.652.009-.83.83-1.903 1.266-2.385.968-1.626-1.005.27-3.574 3.049-4.129 1.518-.304 3.329-1.616 4.024-2.916.696-1.3 1.606-2.153 2.023-1.896.416.258 2.67-1.54 5.009-3.994 2.339-2.454 4.569-4.266 4.955-4.028.777.481 5.268-4.236 8.81-9.253 1.258-1.781 4.285-5.579 6.727-8.44 4.211-4.933 5.701-8.821 3.381-8.821-.582 0-.779.453-.437 1.007M191.51 163.75l-.743 2.25-40.634.177c-26.958.118-36.426.398-28.133.833 19.221 1.007 68.335 1.096 69.837.127.759-.49 1.139-1.897.877-3.25l-.46-2.387-.744 2.25m178.525.892c-.019.627-1.16 1.424-2.535 1.769-1.375.345-2.5 1.069-2.5 1.608 0 .54-.927.981-2.059.981-1.132 0-1.803.414-1.491.919.313.506-.111 1.599-.941 2.429-1.705 1.705-2.026 6.215-.509 7.152.888.549 1.405-1.591 1.269-5.25-.081-2.182 8.88-1.854 12.401.454 2.808 1.839 2.069 3.763-.777 2.026-1.697-1.036-2.237-.931-3.423.669-1.368 1.845-1.461 1.833-3.283-.416l-1.875-2.315-1.656 3.319c-2.043 4.097-2.096 5.396-.188 4.664 2.299-.882 2.913 1.27.975 3.412-.964 1.065-1.258 1.937-.653 1.937s1.238 2.137 1.405 4.75c.168 2.613.705 4.599 1.193 4.415.489-.185 1.252.252 1.696.971.444.718 1.156.957 1.583.531.426-.427.168-1.151-.574-1.61-1.905-1.177-.486-2.973 1.863-2.358 1.517.396 2.094-.127 2.581-2.344a80.506 80.506 0 011.534-5.72c.498-1.576.676-3.235.396-3.688-.28-.453.121-1.189.89-1.636 2.189-1.269 3.199-7.311 1.222-7.311-1.864 0-2.038-1.141-.421-2.758 1.366-1.366-.722-4.567-2.558-3.922-.605.213-1.647-.56-2.315-1.717-.668-1.156-1.23-1.589-1.25-.961m54.824 10.739c-1.758 1.888-1.75 2.059.244 5.285 1.874 3.033 1.797 3.792-.353 3.452-.981-.155-.95.227.289 3.484.693 1.823.704 2.939.034 3.353-.642.397-.476 1.642.461 3.447 1.855 3.576 1.848 4.598-.034 4.598-.825 0-1.558.787-1.629 1.75-.071.963-.223 3.1-.337 4.75-.115 1.65.157 4.012.604 5.25.677 1.875.464 2.25-1.278 2.25-1.987 0-2.011.121-.489 2.444 1.593 2.431 1.58 2.448-2.635 3.385-3.921.87-.035.829 20.014-.212 1.238-.064 2.25-.712 2.25-1.439 0-.757.96-1.243 2.25-1.139 4.129.335 4.303-.315.25-.931l-4-.608-.053-5.753c-.029-3.164-.591-6.291-1.25-6.95-.658-.658-1.197-2.177-1.197-3.375 0-1.197-.675-2.737-1.5-3.422-1.662-1.38-2.082-3.478-.5-2.5.55.34 1 .168 1-.382s-.489-1.302-1.087-1.672c-.598-.369-.865-1.52-.594-2.558.271-1.037.064-2.152-.461-2.476-.585-.361-.515-1.121.18-1.957 1.149-1.386.549-3.455-1.003-3.455-.466 0-.62.87-.342 1.932.41 1.571.104 1.828-1.634 1.373-1.176-.307-1.899-.798-1.607-1.09.292-.292.001-1.169-.646-1.949-1.442-1.737.706-3.529 3.444-2.873 1.979.475 2.428-1.02.5-1.665-.687-.23-.125-.333 1.25-.228 1.375.105 1.932.001 1.238-.231-.694-.231-1.045-.773-.779-1.203 1.132-1.832-8.818-.597-10.6 1.315m-259.397 49.136c-.254.816-.758 2.27-1.121 3.233-.362.963-.563 2.159-.447 2.658.116.5-.328 1.242-.987 1.649-.753.466-.897 1.429-.389 2.592 1.176 2.689 1.179 3.758.015 4.586-.568.404.513.741 2.403.75 2.125.009 4.31.837 5.729 2.17l2.293 2.154-2.59 2.401c-3.547 3.287-2.649 3.614 2.085.757 3.156-1.905 3.603-2.508 2.244-3.03-2.326-.892-2.144-1.801 1.053-5.249 5.054-5.449 5.638-6.499 5.54-9.957-.125-4.383-1.3-5.518-4.803-4.638-2.632.66-2.69.785-.954 2.055 1.017.744 1.307 1.352.645 1.352-1.213 0-5.248-2.007-6.178-3.073-1.342-1.538-4.109-1.788-4.538-.41M116.018 228c-.14.825-.202 1.838-.136 2.25.065.412-1.276.75-2.981.75-3.438 0-9.179 5.112-8.303 7.394.272.711.601 2.944.73 4.963s.621 3.626 1.092 3.572c.471-.055 1.228.501 1.682 1.236.454.734 1.179 1.385 1.612 1.445 5.085.714 7.295 1.84 7.383 3.765.072 1.562.505 1.132 1.636-1.625.846-2.062 2.079-3.75 2.741-3.75.737 0 1.269-1.785 1.376-4.616.096-2.538.415-5.004.709-5.479.884-1.43-1.522-4.94-4.043-5.899-1.3-.494-2.561-1.935-2.803-3.202s-.555-1.629-.695-.804m-75.133 1.75c-.063.412-.035 1.537.063 2.5.098.963-.301 1.75-.885 1.75-.585 0-1.063.531-1.063 1.179s-1.604 2.648-3.565 4.444c-4.214 3.86-3.583 7.844 1.156 7.31.325-.036 1.193.751 1.929 1.75 1.271 1.727 1.371 1.73 2.022.049.377-.972 1.197-1.688 1.822-1.592 2.385.368 4.898-1.351 3.47-2.373-1.06-.76-1.026-.86.166-.491 1.584.49 5.206-8.444 4.07-10.042-2.293-3.228-8.884-6.446-9.185-4.484M178.5 253.732c-2.673.667-3.528 2.232-2.878 5.26.375 1.74.251 2.099-.402 1.173-.965-1.366-2.195 1.347-2.191 4.835.001 1.333.12 1.333 1.071 0 1.156-1.623.709 2.772-.637 6.25-.378.977-.219 1.75.36 1.75.571 0 1.237-.788 1.48-1.75.244-.962.281.05.084 2.25l-.359 4 1.736-3.12c1.371-2.465 2.156-2.966 3.736-2.386 2.783 1.02 3.467-.486 3.485-7.679.015-6.185-1.251-11.417-2.71-11.199-.426.064-1.675.341-2.775.616m-19.618 1.185c-.066.321-.038 1.004.061 1.519.358 1.857-1.097 5.935-1.762 4.939-1.636-2.452-4.181-2.357-4.181.156 0 1.358-.45 2.469-1 2.469s-.947.337-.882.75c.356 2.249-.246 4.289-1.107 3.757-.579-.358-.747.134-.405 1.191.431 1.333.334 1.455-.373.468-.776-1.084-1.068-1.038-1.562.25-.335.871-.146 1.584.419 1.584.566 0 .75.45.41 1s.309 1 1.441 1c1.268 0 2.086.673 2.129 1.75.06 1.496.195 1.46.93-.25.735-1.71.87-1.746.93-.25.082 2.056 1.215 2.143 7.88.604 4.922-1.136 4.967-1.182 5.467-5.623.278-2.463.987-4.776 1.577-5.14 1.564-.967.182-5.319-1.485-4.679-.964.37-1.369-.329-1.369-2.36 0-1.587.563-3.073 1.25-3.302.688-.229-.887-.417-3.5-.417s-4.803.263-4.868.584M112.496 260l.467 3.5-1.87-2.223-1.869-2.222-1.112 4.415c-.612 2.429-1.112 5.54-1.112 6.914 0 2.708-1.477 4.27-2.49 2.632-.942-1.525-2.51-1.223-2.51.484 0 .825-.45 1.5-1 1.5s-1 .675-1 1.5c0 1.038-1.043 1.5-3.383 1.5-2.364 0-3.535.527-3.887 1.75-.277.962-.863 2.65-1.304 3.75-.712 1.78-.614 1.849.887.628.928-.755 1.687-2.023 1.687-2.818 0-.99.63-1.245 2-.81 2.464.782 6.238-.306 5.456-1.572-.316-.51-.097-.928.485-.928s1.059.394 1.059.875c0 1.404 5.984 2.204 8.082 1.081 2.17-1.161 2.548-.001.964 2.958-1.122 2.097.038 7.281 1.759 7.854.755.252 1.195-.737 1.195-2.685 0-1.696.505-3.083 1.122-3.083.776 0 .738-.464-.122-1.5-.752-.906-.833-1.5-.206-1.5.572 0 1.266.563 1.544 1.25.386.957.523.942.583-.066.131-2.185-1.949-5.285-3.078-4.587-.683.422-.823-.085-.396-1.431 1.092-3.439 1.601-12.514.736-13.11-.443-.306-1.334-2.131-1.98-4.056l-1.173-3.5.466 3.5m-83.313 18.65c.229 1.336-.204 1.76-1.558 1.527-1.644-.282-1.801.148-1.273 3.5.398 2.537.313 3.15-.254 1.823-.611-1.427-.782-.712-.597 2.5.382 6.672 1.746 6.336 3.027-.745 1.44-7.966 2.772-9.415 2.055-2.237-.414 4.151-.312 4.875.421 2.982.84-2.17.912-2.005.545 1.25-.425 3.761.713 5.115 1.837 2.187.33-.86 1.048-1.287 1.595-.948.548.338.85.029.671-.687-.178-.716-.122-.924.125-.462s1.766-1.465 3.375-4.283c2.816-4.929 3.077-8.322.475-6.162-1.186.984-7.151.135-9.576-1.363-.779-.482-1.076-.1-.868 1.118m359.887 13.498c1.886 1.732 2.642 2.871 1.68 2.532-.962-.34-1.75-.181-1.75.351 0 .533.45.969 1 .969s1 .849 1 1.886c0 3.483 2.661 7.542 3.712 5.663.773-1.38 1.107-1.206 2.221 1.163a180.287 180.287 0 002.747 5.54c.789 1.514 1.158 3.201.819 3.75-.339.549.085.998.942.998 1.118 0 1.559 1 1.559 3.535 0 1.944 1.199 7.162 2.664 11.595 2.481 7.506 2.748 7.902 3.892 5.765 1.264-2.361.873-5.278-.586-4.376-1.291.797-3.97-9.767-3.974-15.673-.002-3.624-.664-6.429-2.054-8.709-1.127-1.849-1.82-3.592-1.539-3.873.879-.879-4.605-7.327-9.247-10.871-5.592-4.27-7.649-4.433-3.086-.245m-264.237 9.801c-41.617.303-75.959.843-76.315 1.2-.999.999 151.853-.269 152.932-1.269.6-.556.6-.807 0-.681-.522.109-35 .447-76.617.75" fill="#d3d3d3" fill-rule="evenodd"/></svg>