<svg xmlns="http://www.w3.org/2000/svg" width="500" height="353"><path d="M247.698 82.636c-.266.265-3.589.597-7.386.738-3.797.141-7.446.591-8.108 1-.662.409-1.204.291-1.204-.263 0-1.038-4.323.007-8.667 2.096-1.192.573-4.567 1.591-7.5 2.263-4.046.926-5.262 1.62-5.039 2.875.217 1.222-.504 1.688-2.75 1.78-1.674.069-3.382.242-3.794.385-.412.142-1.762.588-3 .991S198 95.528 198 95.889s-1.522 1.476-3.382 2.478c-1.861 1.002-3.876 2.904-4.479 4.227-.603 1.323-1.706 2.406-2.451 2.406-.745 0-2.538 2.362-3.984 5.25-1.446 2.888-2.646 4.672-2.667 3.966-.149-5.136-8.83 10.718-9.116 16.649-.05 1.037-.263 1.178-.583.385-.779-1.93-2.338-1.478-2.338.679 0 1.06-.59 2.523-1.311 3.25-1.98 1.996-4.896 19.012-5.239 30.573-.249 8.368.142 11.92 2.123 19.322 1.335 4.989 2.427 9.938 2.427 10.998 0 1.06.382 1.928.848 1.928.467 0 1.684 1.912 2.705 4.25 1.865 4.269 3.194 6.321 8.226 12.699 4.389 5.563 12.782 12.683 17.721 15.033 1.65.785 3.99 2.292 5.199 3.349 1.275 1.114 2.889 1.657 3.84 1.292.903-.346 2.163-.297 2.801.108 1.143.728 1.686.897 3.66 1.144.55.069 1 1.775 1 3.792 0 2.016.27 3.396.6 3.066.33-.33.6-2.147.6-4.039 0-3.851 1.922-4.443 4.929-1.518 1.013.985 2.577 1.452 3.797 1.133 1.929-.504 2.074-.122 2.074 5.468v6.01l3.991-.896c5.67-1.274 6.435-.886 7.109 3.609l.6 4 .15-4.149.15-4.15 4.574-.363c5.43-.432 5.91-.187 6.805 3.468.669 2.732.813 2.786 5.404 2.033 2.594-.426 5.955-.741 7.467-.7 1.685.045 2.75-.451 2.75-1.283 0-.831 1.128-1.356 2.917-1.356 1.604 0 3.066-.446 3.25-.991.366-1.09 3.331-1.323 9.083-.713 2.063.219 3.75-.01 3.75-.508s.45-.628 1-.288c.595.368 1-.823 1-2.941 0-3.433.133-3.562 3.75-3.632 4.767-.093 9.127-2.635 12.013-7.002 1.245-1.884 3.162-4.393 4.26-5.576 1.098-1.183 2.705-3.848 3.572-5.921 1.062-2.543 1.829-3.36 2.354-2.511.874 1.415 2.284-.671 8.925-13.207 2.269-4.285 4.126-8.474 4.126-9.309 0-.836.45-1.241 1-.901.61.377 1.03-1.256 1.077-4.191.042-2.645.205-5.484.364-6.309 2.213-11.544 1.837-50.009-.497-50.833-.519-.184-.944-1.003-.944-1.822 0-2.554-2.757-4.713-3.311-2.593-.33 1.261-.489 1.094-.573-.598-.189-3.816-3.179-13.154-4.212-13.154-.524 0-1.381-1.125-1.904-2.5-.523-1.375-1.381-2.5-1.908-2.5-.526 0-1.243-.9-1.592-2s-1.167-2.003-1.817-2.007c-1.719-.01-5.683-6.227-5.683-8.912 0-1.629-.435-2.128-1.5-1.719-.982.377-1.5-.031-1.5-1.181 0-1.034-.815-1.817-1.984-1.905-1.091-.082-3.453-1.232-5.25-2.556-5.039-3.713-16.644-6.76-31.266-8.211-11.612-1.151-14.362-1.313-14.802-.873" fill="#d3d3d3" fill-rule="evenodd"/></svg>