<svg xmlns="http://www.w3.org/2000/svg" width="500" height="750"><path d="M51.543 162.331C52.721 334.108 53.151 362 54.62 362c1.1 0 1.38-2.539 1.38-12.5 0-10.444.247-12.5 1.5-12.5 1.079 0 1.507 1.123 1.526 4 .014 2.2.025 11.65.025 21 0 52.026.031 51-1.551 51-1.216 0-1.5-1.611-1.5-8.5 0-6.812-.292-8.5-1.47-8.5-1.286 0-1.472 16.598-1.486 132.5-.01 86.416.327 132.5.97 132.5.584 0 .986-4.212.986-10.341C55 633.629 56.253 610 57.156 610c.464 0 .844 11.73.844 26.066v26.067l2.75-.317 2.75-.316.267-25.75c.228-21.972.484-25.75 1.75-25.75C66.79 610 67 613.687 67 636c0 26.425.158 27.535 3.599 25.235.719-.481 1.32-9.319 1.741-25.566.353-13.657.902-25.252 1.22-25.767 2.025-3.276 2.536 2.34 2.359 25.941-.139 18.653.118 25.63.945 25.557 4.297-.378 4.089.859 4.369-26.067.202-19.452.57-25.768 1.517-26.083.979-.326 1.25 5.345 1.25 26.167C84 658.38 84.204 662 85.5 662c1.019 0 1.51-1.042 1.532-3.25.017-1.788.692-4.124 1.5-5.191 1.184-1.566 1.468-6.062 1.468-23.25 0-18.275.214-21.309 1.5-21.309 1.296 0 1.5 3.611 1.5 26.5 0 14.575.395 26.5.878 26.5 2.56 0 3.02-3.481 2.976-22.542-.026-10.977.049-20.408.165-20.958.116-.55.316-1.45.444-2s.301-2.462.385-4.25c.103-2.195.652-3.25 1.693-3.25 1.354 0 1.525 3.208 1.4 26.25l-.142 26.25 2.289-.272c1.259-.149 2.427-.409 2.596-.578.169-.169.422-11.71.561-25.646.193-19.198.558-25.439 1.505-25.755.979-.325 1.25 5.246 1.25 25.668 0 22.518.205 26.083 1.5 26.083 1.268 0 1.505-2.432 1.535-15.75.022-9.829.573-18.194 1.465-22.25.786-3.575 1.446-8.187 1.465-10.25.025-2.651.475-3.75 1.535-3.75 1.287 0 1.517 3.303 1.618 23.25.156 30.686 1.293 34.617 2.247 7.769.42-11.814 1.151-21.72 1.625-22.013.473-.292 1.007-2.291 1.186-4.442.616-7.428 2.824-5.397 2.829 2.603.007 10.886 1.076 35.247 1.568 35.739.235.235.511-1.56.614-3.989.102-2.43.254-5.767.337-7.417.083-1.65.224-5.362.314-8.25.121-3.928.54-5.25 1.662-5.25 1.223 0 1.5-1.676 1.5-9.083 0-6.822.311-8.98 1.25-8.667.947.315 1.315 6.631 1.517 26.083.166 15.97.638 25.667 1.25 25.667 1.081 0 1.139-1.083 1.343-24.916.102-11.965.472-16.527 1.366-16.825.674-.225 1.519-2.626 1.878-5.334 1.33-10.021 2.396-4.424 2.396 12.575 0 9.625.391 17.5.869 17.5 1.3 0 2.108-6.38 2.12-16.75.009-7.551.287-9.25 1.511-9.25 1.111 0 1.5-1.167 1.5-4.5 0-3.524.36-4.5 1.658-4.5 1.52 0 1.602 2.176.975 26l-.684 26h5.769l.197-8.157c.14-5.808-.179-8.388-1.109-8.963-1.915-1.182-1.854-23.612.067-24.801.755-.467 1.536-2.769 1.735-5.115.357-4.215.947-5.743 1.862-4.827.259.258.529 12.033.6 26.167.108 21.297.369 25.696 1.53 25.696 1.404 0 1.801-7.146 1.528-27.5-.062-4.626.191-6.322.746-5 .57 1.356 1.08-1.477 1.583-8.8.51-7.425 1.102-10.681 1.893-10.418.788.262 1.236 5.47 1.425 16.55.164 9.65.668 16.168 1.25 16.168.577 0 .975-4.706.975-11.531 0-9.328.287-11.642 1.5-12.107 1.018-.391 1.5-1.987 1.5-4.969 0-3.238.394-4.393 1.5-4.393 1.295 0 1.5 3.556 1.5 26 0 22.182.215 26 1.467 26 1.242 0 1.466-3.235 1.466-21.192 0-18.002.231-21.32 1.534-22.049.974-.545 1.533-2.299 1.533-4.809 0-2.172.45-3.95 1-3.95.616 0 1.002 5.086 1.004 13.25.005 16.009 1.104 38.975 1.831 38.249.288-.289.699-9.632.912-20.762.307-16.042.684-20.467 1.82-21.347.834-.647 1.433-2.84 1.433-5.25 0-3.013.408-4.14 1.5-4.14 1.223 0 1.5 1.676 1.5 9.083 0 6.822.311 8.98 1.25 8.668.687-.229 1.534-1.729 1.882-3.333.347-1.605.764-2.243.926-1.418.162.825.553-1.615.869-5.422.91-10.994 2.75-9.418 3.643 3.122.737 10.343 2.079 11.523 2.33 2.05.07-2.622.551-3.75 1.6-3.75 1.111 0 1.5-1.167 1.5-4.5 0-4.486.692-5.408 2.613-3.487.684.684 2.065.647 4.251-.115 1.781-.621 3.432-.935 3.669-.698.237.237.471 12.016.52 26.175.066 19.014.392 25.643 1.246 25.359.813-.271 1.25-6.599 1.47-21.293.255-17.049.582-21.058 1.772-21.724.895-.501 1.459-2.345 1.459-4.767 0-2.172.45-3.95 1-3.95.619 0 1 5.281 1 13.843 0 18.523 1.108 38.157 2.154 38.157.465 0 .846-3.825.846-8.5 0-6.889.284-8.5 1.5-8.5 1.111 0 1.5-1.167 1.5-4.5s-.389-4.5-1.5-4.5c-1.216 0-1.5-1.611-1.5-8.5s.284-8.5 1.5-8.5c1.115 0 1.5-1.176 1.5-4.583 0-3.222.371-4.46 1.25-4.167.947.315 1.315 6.647 1.517 26.161.206 19.866.549 25.651 1.5 25.334.911-.303 1.304-5.7 1.504-20.67.218-16.282.561-20.55 1.75-21.739.86-.86 1.479-3.332 1.479-5.907 0-2.436.45-4.429 1-4.429.63 0 1.002 6.754 1.006 18.25.007 20.611.878 34.75 2.142 34.75.469 0 .852-7.875.852-17.5 0-15.356.196-17.5 1.596-17.5 2.207 0 1.781-105.531-.431-106.899-.735-.453-1.217-1.224-1.072-1.713.146-.488-.521-1.039-1.482-1.224-1.557-.3-1.722.51-1.519 7.446.132 4.527-.193 7.924-.777 8.118-1.154.385-2.305-18.531-2.311-37.978-.003-10.884-.232-12.75-1.564-12.75-1.192 0-1.487-.886-1.25-3.75.269-3.256.672-3.792 3.06-4.066 2.645-.305 2.75-.142 2.75 4.25 0 6.213 2.746 6.485 3.193.316.273-3.785.581-4.25 2.807-4.25 2.129 0 2.548.519 2.821 3.5.486 5.289 2.179 6.176 2.179 1.141 0-2.342.403-4.01.895-3.706.493.305 1.153-.119 1.469-.941 1.373-3.578 3.636-1.536 3.636 3.282v4.777l3.994-.381c3.429-.327 4.113-.057 4.843 1.916.849 2.297.85 2.296 1.525-.396.767-3.056 1.35-3.225 4.058-1.175 2.74 2.073 3.877 33.483 1.212 33.483-1.237 0-1.632-.967-1.632-4v-4h-14v8.5c0 6.889-.284 8.5-1.5 8.5s-1.5 1.611-1.5 8.5.284 8.5 1.5 8.5c1.313 0 1.501 6.252 1.505 50.25.005 50.722.591 69.75 2.146 69.75.467 0 .849-9.675.849-21.5 0-18.444.213-21.5 1.5-21.5 1.222 0 1.5-1.667 1.5-9s-.278-9-1.5-9c-1.006 0-1.5-1.007-1.5-3.059 0-1.682.399-2.813.886-2.511 1.078.666 2.082-2.768 2.1-7.18.01-2.228-.458-3.25-1.486-3.25-2.658 0-2.011-7.633.706-8.344 1.214-.317 2.327-.457 2.473-.31.349.349 1.192 37.282 1.374 60.154.152 19.255 1.506 32.477 1.945 19 .125-3.85.327-13.5.449-21.445.152-9.94.584-14.565 1.387-14.833.805-.268 1.166-4.25 1.166-12.864 0-8.063-.354-12.257-1-11.858-.64.395-.994-2.736-.985-8.691.011-6.38.321-8.837.985-7.809.828 1.282.972 1.246.985-.25.011-1.274.83-1.75 3.015-1.75 2.889 0 3-.167 3-4.5 0-4.133.204-4.5 2.5-4.5h2.5l.099 22.25c.054 12.237.196 23.15.315 24.25.119 1.1.3 12.462.401 25.25.117 14.71.552 23.25 1.185 23.25.636 0 1-7.833 1-21.5 0-18.444.213-21.5 1.5-21.5 1.216 0 1.5-1.611 1.5-8.5 0-6.812.292-8.5 1.47-8.5 1.027 0 1.418.979 1.298 3.25-.608 11.492.375 56.75 1.232 56.75.636 0 1-7.833 1-21.5 0-17.626.249-21.5 1.382-21.5 1.009 0 1.597-2.358 2.181-8.75.761-8.325.836-8.531 1.544-4.25.41 2.475.778 6.413.819 8.75.054 3.078.488 4.25 1.574 4.25 1.111 0 1.5 1.167 1.5 4.5 0 3.365-.384 4.5-1.524 4.5-2.097 0-1.767 33.072.336 33.772 1.024.34 1.285-1.513 1.184-8.418-.214-14.74-.035-18.496.852-17.948.914.565 2.152-18.171 2.152-32.563 0-7.194.28-8.843 1.5-8.843.825 0 1.5.54 1.5 1.2 0 .933.267.933 1.2 0 2.373-2.373 3.8-1.322 3.8 2.8 0 3.956-1.525 5.401-2.638 2.5-.317-.825-1.004-1.5-1.528-1.5s-.693.419-.377.931a1.088 1.088 0 01-.341 1.497c-.504.312-.809 2.255-.679 4.319.131 2.064.311 15.566.401 30.003.105 16.999.52 26.25 1.178 26.25.612 0 1.004-3.473.985-8.75-.07-20.385.538-33.35 1.598-34.037.604-.392 1.404-4.078 1.778-8.191.374-4.113 1.117-7.916 1.651-8.45.629-.629.972 9.679.972 29.228 0 26.178.2 30.2 1.5 30.2 1.286 0 1.5-3 1.5-21 0-13.333.365-21 1-21 .579 0 1.036-3.473 1.084-8.25.047-4.538.4-10.769.786-13.847 1.009-8.049-.741-21.636-2.857-22.189-2.046-.535-1.538-7.575.605-8.398 1.073-.411 1.382-3.301 1.382-12.923 0-10.349.247-12.393 1.5-12.393 1.272 0 1.504 2.541 1.529 16.75.059 34.25 1.058 102.671 1.507 103.119 1.25 1.25 1.525-2.172 1.748-21.768.166-14.601.597-21.41 1.386-21.897.744-.46 1.23-5.263 1.386-13.706.344-18.633.202-20.498-1.556-20.498-.969 0-1.501-.974-1.503-2.75-.002-1.513-.071-10.85-.153-20.75-.232-27.925-.271-27.5 2.555-27.5 3.097 0 3.879 6.905 3.21 28.347l-.463 14.848 2.177-.584c1.197-.321 2.514-.59 2.927-.597 1.483-.027.774-6.791-.774-7.385-1.298-.498-1.484-3.081-1.25-17.357l.274-16.772 2.75-.316c2.645-.305 2.75-.142 2.75 4.25 0 3.392-.386 4.566-1.5 4.566-1.083 0-1.5 1.111-1.5 4 0 2.889.417 4 1.5 4 1.216 0 1.5 1.611 1.5 8.5 0 8.292.058 8.5 2.386 8.5 2.062 0 2.479.612 3.062 4.5.44 2.935 1.175 4.5 2.113 4.5 1.23 0 1.439 6.258 1.439 43 0 36.701.21 43 1.436 43 1.19 0 1.435-2.844 1.432-16.633-.002-10.459.393-17.028 1.065-17.7 1.494-1.494 1.382-9.667-.133-9.667-.933 0-.933-.267 0-1.2.698-.698 1.2-4.044 1.2-8 0-5.289.324-6.8 1.457-6.8 1.237 0 1.502 4.452 1.75 29.418.161 16.18.63 29.755 1.043 30.167 1.793 1.789 2.213-1.646 1.924-15.733-.249-12.129-.016-15.444 1.215-17.323 1.19-1.816 1.457-4.806 1.22-13.677-.386-14.439.238-20.852 2.03-20.852 1.121 0 1.361 5.991 1.361 34 0 29.556.196 34 1.5 34 1.222 0 1.5-1.667 1.5-9 0-5.333.407-9 1-9 .636 0 1-7.833 1-21.5 0-18.444.213-21.5 1.5-21.5 1.286 0 1.52 3.312 1.64 23.25.077 12.788.231 24.6.341 26.25.111 1.65.273 4.913.36 7.25.088 2.337.609 4.25 1.159 4.25.629 0 1-6.5 1-17.5 0-9.625.381-17.5.846-17.5.465 0 1.134-5.694 1.487-12.654.352-6.959.872-12.884 1.154-13.166 1.624-1.624 2.048 3.904 2.371 30.903.296 24.721.6 29.917 1.75 29.917 1.092 0 1.392-2.05 1.392-9.5 0-5.667.404-9.5 1-9.5.635 0 1-7.667 1-21 0-18 .214-21 1.5-21 1.287 0 1.524 3.437 1.671 24.25.094 13.337.271 24.925.394 25.75.122.825.27 3.638.329 6.25.058 2.612.526 4.75 1.04 4.75.526 0 .961-5.548.997-12.709.051-10.22.358-12.873 1.566-13.549 1.245-.697 1.503-3.75 1.503-17.792 0-15.355.692-19.8 2.393-15.368.334.87.607 14.595.607 30.5V661h6.217l-.43-8.691c-.269-5.437-.871-8.837-1.609-9.083-.648-.216-1.146-1.368-1.108-2.559.068-2.098.098-2.104.93-.167.583 1.357.882-.491.93-5.75.041-4.547-.343-7.75-.93-7.75-1.623 0-1.164-7.979.558-9.701 1.197-1.197 1.486-3.297 1.25-9.075-.219-5.347.053-7.645.942-7.955.953-.332 1.255 2.372 1.269 11.398.011 6.508.123 20.27.25 30.581l.231 18.748 2.75.002c2.593.002 2.75-.255 2.75-4.498 0-3.333-.389-4.5-1.5-4.5-1.286 0-1.5-3-1.5-21s.214-21 1.5-21c1.137 0 1.5-1.231 1.5-5.083 0-3.624.359-4.963 1.25-4.664 1.503.504 1.498.397 1.638 33.997.097 23.062.319 26.75 1.612 26.75 1.011 0 1.523-1.059 1.57-3.25.059-2.724.21-2.926.93-1.25.53 1.232.886-4.204.93-14.167.044-10.199-.308-16.292-.954-16.508-1.906-.635-2.464-7.825-.607-7.825 1.38 0 1.631-1.308 1.631-8.5 0-6.889.284-8.5 1.5-8.5s1.5 1.611 1.5 8.5c0 6.667.306 8.5 1.417 8.5.779 0 1.617.563 1.863 1.25 1.175 3.29 2.055-1.17 1.846-9.346-.212-8.27-.074-9.041 1.571-8.725 1.534.294 1.836 1.531 2.024 8.278.165 5.907.612 8.15 1.75 8.787 2.138 1.196 2.166 8.937.029 8.118-1.298-.499-1.5 1.791-1.5 17.031 0 15.061.219 17.607 1.515 17.607 1.303 0 1.478-2.329 1.25-16.665-.201-12.635.037-16.767.985-17.084 1.497-.5 1.733-9.251.25-9.251-1.304 0-1.304-7.694 0-8.5.55-.34 1-2.391 1-4.559 0-2.836.42-3.941 1.5-3.941 1.228 0 1.5-1.722 1.5-9.5 0-7.778-.272-9.5-1.5-9.5-1.048 0-1.5-1.056-1.5-3.5 0-2.596.429-3.5 1.662-3.5 1.529 0 1.609-2.651 1-33.163-.364-18.24-.662-54.433-.662-80.429 0-40.68-.209-47.474-1.5-48.765-1.086-1.086-1.5-3.73-1.5-9.572 0-6.508.291-8.071 1.5-8.071 1.083 0 1.5-1.111 1.5-4 0-2.889-.417-4-1.5-4-1.088 0-1.5 1.12-1.5 4.083 0 5.66-2.408 4.644-2.795-1.179l-.296-4.439-5.021.167c-2.761.092-5.239.386-5.506.652-.266.267-.479 29.368-.474 64.67.009 49.761-.261 64.095-1.199 63.783-.907-.302-1.275-8.87-1.473-34.288-.223-28.753-.488-34.011-1.75-34.717-1.617-.905-2.341-108.1-.736-109.065.412-.248 3.45-.612 6.75-.809l6-.358.309 4.853c.237 3.716.002 4.712-1 4.251a43.87 43.87 0 00-3.059-1.22c-1.13-.399-1.75-1.659-1.75-3.56 0-1.707-.42-2.683-1-2.324-.613.379-1 8.428-1 20.812v20.194l5.25-.164c2.887-.091 6.712-.205 8.5-.254L446 378v-12.5c0-10.444-.247-12.5-1.5-12.5-1.106 0-1.5-1.155-1.5-4.393 0-2.982.482-4.578 1.5-4.969 2.259-.866 2.259-51.638 0-51.638-1.652 0-2.069-4.567-1.635-17.908.132-4.075-.168-7.675-.668-8-1.805-1.176-2.439-8.092-.742-8.092 2.156 0 2.197-8.536.045-9.362-2.304-.884-2.039-7.638.301-7.638 1.69 0 1.775-1.296 1.382-21.25-.328-16.701-.714-21.421-1.8-22.05-1.064-.615-1.383-3.771-1.383-13.691 0-7.515-.417-13.149-1-13.509-.651-.402-1.031 5.594-1.088 17.191-.097 19.751-.956 29.36-2.281 25.521-.746-2.161-1.566-12.465-1.611-20.249-.016-2.818-.428-3.568-2.029-3.689-1.913-.144-2.005.42-1.92 11.753.094 12.511-.197 13.973-2.785 13.973-1.451 0-1.527-4.496-.829-49.25.423-27.088.928-52.175 1.123-55.75.196-3.575.37-8.638.388-11.25.021-3.116.462-4.75 1.282-4.751.969-.001 1.186 4.663.963 20.75-.157 11.413.135 22.551.65 24.751.924 3.95.937 3.96 1.037.75.064-2.083.606-3.25 1.51-3.25 1.681 0 2.436-8.545 2.83-32l.26-15.5-7.25-.294c-7.177-.291-7.25-.268-7.25 2.25 0 2.16-.453 2.544-3 2.544-2.533 0-3-.389-3-2.5 0-2.408-.237-2.5-6.441-2.5-3.543 0-6.731.469-7.085 1.043-.355.573-.886 7.886-1.181 16.25-.68 19.285-1.978 27.374-2.28 14.207-.114-4.95-.129-10.687-.033-12.75.13-2.821-.218-3.75-1.404-3.75-1.351 0-1.576 1.786-1.576 12.5 0 10.444-.247 12.5-1.5 12.5-1.283 0-1.5-2.889-1.5-20V89h-2.938c-2.417 0-2.917.4-2.817 2.25.239 4.434-.255 12.074-.749 11.579-.277-.277-.995-3.164-1.596-6.416-.601-3.252-1.612-6.244-2.247-6.648-2.291-1.459-3.653-.722-3.668 1.985-.009 1.513-.653 4.775-1.433 7.25l-1.418 4.5-.067-7.25c-.064-6.96-.163-7.25-2.458-7.25-3.371 0-3.361-.181-3.521 62.253-.096 37.638-.488 55.611-1.254 57.5l-1.115 2.747-.76-2.5c-.418-1.375-.804-4.375-.859-6.667-.055-2.291-.602-4.334-1.215-4.538-1.484-.495-1.439-23.835.048-24.754 2-1.236 2.627-16.148.724-17.213-2.271-1.271-2.396-14.946-.157-17.185 1.248-1.248 1.5-5.445 1.5-25.004 0-22.91-.052-23.521-2.075-24.163-1.142-.362-2.227-.505-2.412-.317-.387.393-1.416 118.777-1.474 169.591-.034 29.46-.245 34.25-1.51 34.25-1.207 0-1.521-2.382-1.75-13.25-.219-10.381-.567-13.19-1.607-12.974-.812.169-1.178-.415-.941-1.5.213-.977.924-1.664 1.578-1.526 1.397.293 1.607-1.375.276-2.197-.503-.311-1.142 0-1.421.691-.278.691-.542.244-.585-.994-.048-1.368.509-2.25 1.421-2.25 1.303 0 1.498-4.243 1.485-32.25-.01-21.191-.348-31.736-.985-30.75-.655 1.014-.974-2.471-.985-10.75-.009-7.51.372-12.25.985-12.25 1.507 0 1.303-16.732-.211-17.237-1.82-.607-1.107-17 .787-18.063 1.17-.657 1.424-5.066 1.424-24.75V89h-2.441c-1.343 0-2.679.385-2.969.855-.291.47-.594 46.37-.675 102-.116 79.759-.409 101.145-1.387 101.145-1.523 0-2.83-12.257-1.917-17.972.724-4.527-.214-9.392-1.64-8.51-.565.349-.971-1.052-.971-3.352 0-2.456.527-4.154 1.393-4.487 1.153-.442 1.401-6.617 1.438-35.857.047-36.639-.468-48.934-1.898-45.322-.701 1.768-.801 1.694-.863-.643-.039-1.479.591-2.897 1.43-3.219 1.171-.449 1.5-2.446 1.5-9.107 0-6.916-.284-8.531-1.5-8.531s-1.5-1.611-1.5-8.5c0-6.875.286-8.5 1.494-8.5 1.286 0 1.491-3.418 1.468-24.5l-.027-24.5H345v15.5c0 13.111-.231 15.5-1.5 15.5-1.233 0-1.5-1.77-1.5-9.929 0-7.492-.368-10.296-1.5-11.428-.825-.825-1.5-2.207-1.5-3.072 0-.864.675-1.571 1.5-1.571.989 0 1.5-.989 1.5-2.905 0-2.8-.154-2.894-4.25-2.593-2.338.171-5.488.353-7 .405-2.729.092-2.75.146-2.75 7.093 0 6.93-.344 7.573-3.418 6.393-1.214-.466-1.582-2.093-1.582-7 0-5.726-.209-6.393-2-6.393-1.979 0-2 .667-2 63 0 36.301-.378 63-.893 63-1.424 0-2.107-2.759-2.107-8.51 0-3.42-.541-5.888-1.5-6.847-1.1-1.1-1.5-3.786-1.5-10.072 0-5.047-.411-8.571-1-8.571-.615 0-1 5-1 13 0 10.889-.244 13-1.5 13-1.08 0-1.5-1.106-1.5-3.95 0-2.518-.559-4.263-1.54-4.812-1.331-.746-1.602-5.989-1.998-38.715-.253-20.819-.685-38.079-.96-38.355-.276-.276-.504 14.986-.506 33.915-.005 42.642-.769 59.917-2.65 59.917-1.093 0-1.346-4.8-1.346-25.5 0-16.333-.359-25.5-1-25.5-.55 0-1-2.025-1-4.5s.45-4.5 1-4.5c.589 0 1-3.52 1-8.559 0-4.982-.386-8.32-.924-7.988-.521.322-1.231-3.355-1.629-8.441C294.91 111.362 294 124 294 165c0 37.556-.19 43-1.5 43-1.086 0-1.546-1.241-1.667-4.5a815.427 815.427 0 00-.25-6.25c-.045-.963-.482-2.04-.97-2.393-1.509-1.096-1.866-10.081-.63-15.857 2.266-10.587 2.384-13.215.636-14.193-2.292-1.283-2.401-16.807-.119-16.807 1.256 0 1.5-2.111 1.5-13s-.244-13-1.5-13c-1.271 0-1.5-2.444-1.5-16 0-9.914-.377-16-.992-16-.642 0-1.083 20.739-1.25 58.75-.226 51.441-.445 58.75-1.758 58.75-1.287 0-1.54-3.621-1.784-25.45-.156-13.998-.381-25.543-.5-25.655-.119-.113-1.116-.36-2.216-.55-1.905-.329-2.013.281-2.279 12.905-.153 7.287-.657 13.25-1.119 13.25-1.081 0-1.761-5.021-1.625-12 .059-3.025.201-11.238.315-18.25.126-7.695.604-12.75 1.208-12.75.55 0 1 1.998 1 4.441 0 5.025.553 5.682 3.765 4.468 2.236-.845 2.264-1.076 2.184-17.87-.07-14.386-.325-17.15-1.657-17.895-1.193-.668-1.379-1.58-.769-3.763.443-1.584.731-3.219.641-3.631-.09-.412.286-.75.836-.75 1.662 0 1.201-7.709-.5-8.362-.825-.316-1.5-1.714-1.5-3.107 0-1.392-.45-2.531-1-2.531s-1.008 1.912-1.018 4.25c-.02 5.026-1.105 18.098-1.543 18.6-1.563 1.791-2.439-2.49-2.439-11.909V90h-5v11.5c0 9.556-.254 11.5-1.5 11.5-.825 0-1.567-.562-1.648-1.25a193.41 193.41 0 00-.352-2.75 75.528 75.528 0 01-.352-3.309c-.081-.995-.598-1.531-1.148-1.191-.633.391-1-2.156-1-6.941 0-6.052-.299-7.559-1.5-7.559-.933 0-1.5.944-1.5 2.5 0 1.375-.45 2.5-1 2.5s-1-1.125-1-2.5V90h-31v19.878c0 16.449-.259 20.092-1.5 21.122-1.325 1.1-1.5-1.215-1.5-19.878V90h-6.065l.282 19.725c.26 18.117.14 19.753-1.467 20.073-1.615.322-1.75-1.046-1.75-17.725 0-11.382-.37-18.073-1-18.073-.55 0-1-.9-1-2 0-1.73-.667-2-4.941-2-2.873 0-5.265.523-5.716 1.25-.426.688-.681 7.518-.565 15.178.159 10.586-.119 14.306-1.158 15.5-.752.865-1.669 3.26-2.039 5.322-.728 4.067-2.087 4.883-3.054 1.835-.674-2.122.332-7.287 1.58-8.115 1.635-1.084 1.535-28.952-.107-29.991-3.895-2.463-4-1.846-4 23.521V139h-2.893c-1.816 0-3.159-.651-3.607-1.75-1.544-3.781-2.424 2.382-2.392 16.75.018 7.975 0 15.738-.038 17.25L184 174h-16v13.117c0 13.114 0 13.116-2.25 12.513-1.238-.331-2.7-.616-3.25-.632-.55-.016-.325-.465.5-.998 1-.646 1.083-.974.25-.985-.759-.009-1.25-1.39-1.25-3.515 0-1.925.45-3.5 1-3.5.583 0 1-3.333 1-8 0-7.867-.042-8-2.5-8H159v13c0 13.054-.48 14.663-3.479 11.664-1.839-1.839-2.319-7.553-.717-8.543.913-.564 1.203-2.965.993-8.209-.272-6.788-.484-7.439-2.517-7.728-2.181-.31-2.224-.096-2.5 12.5l-.28 12.816-2.438-.272c-1.341-.149-2.613-.445-2.825-.658-.213-.213-.471-13.555-.573-29.649-.145-22.712-.472-29.357-1.463-29.687-1.025-.342-1.256 9.686-1.175 50.92C142.152 253.85 142.2 251 141 251c-.588 0-1-3.494-1-8.481 0-8.145-.096-8.505-2.427-9.09-2.37-.595-2.423-.832-2.25-9.924.097-5.123-.154-8.795-.558-8.16-.404.635-.741-.275-.75-2.024-.008-1.748-.69-3.853-1.515-4.678-1.621-1.621-1.995-7.313-.624-9.477 1.172-1.849 2.124.801 2.124 5.916 0 2.155.45 3.918 1 3.918s1-2.202 1-4.893c0-3.462.446-5.064 1.525-5.478 1.602-.615 1.17-4.893-.741-7.325-.542-.69-.669-5.138-.3-10.5.765-11.126.769-9.872-.063-17.417-.39-3.542-.257-6.857.317-7.883.596-1.065.66-3.214.162-5.388-.456-1.989-.875-12.831-.932-24.094-.07-14.155-.467-20.921-1.285-21.913-.916-1.11-.901-1.529.067-1.855 1.57-.528 1.625-3.479.092-5.012-.798-.798-.84-1.558-.136-2.45.562-.71 1.008-2.079.991-3.042-.027-1.581-1.367-1.75-13.864-1.75-13.628 0-13.833.033-13.833 2.223v2.222l-1.557-2.222c-1.354-1.934-2.458-2.223-8.5-2.223-6.739 0-6.943.073-6.943 2.5 0 1.63-.56 2.5-1.607 2.5-1.073 0-1.4-.54-.983-1.627.858-2.235-1.067-4.275-3.447-3.653-1.258.329-1.963 1.369-1.963 2.897C83 94.069 82.414 95 81.5 95c-.924 0-1.5-.938-1.5-2.441 0-2.939-.939-3.649-3.826-2.894-1.465.383-2.174 1.346-2.174 2.952C74 94.069 73.414 95 72.5 95c-1.007 0-1.5-1.007-1.5-3.066 0-2.756-.279-3.035-2.75-2.75-2.18.25-2.701.782-2.512 2.566.152 1.432-.303 2.25-1.25 2.25-.912 0-1.488-.947-1.488-2.448 0-2.327-.294-2.446-5.979-2.419l-5.98.029.502 73.169m387.332-57.581a8502.31 8502.31 0 01-.41 37c-.166 12.314.097 21.25.625 21.25.5 0 .916-.113.924-.25.008-.137.284-7.675.614-16.75.451-12.405.948-16.779 2.004-17.624 1.075-.859 1.555-5.621 2.045-20.25L445.316 89H439l-.125 15.75M311 101c0 9.111.258 11 1.5 11 .884 0 1.506.923 1.515 2.25.013 1.819.201 1.963.985.75 1.3-2.011 1.3-20 0-20-.55 0-1-1.125-1-2.5 0-1.556-.567-2.5-1.5-2.5-1.242 0-1.5 1.889-1.5 11m-104 11.893c0 14.094-.249 16.988-1.5 17.469-.996.382-1.5 1.953-1.5 4.673 0 3.88.146 4.081 2.75 3.781l2.75-.316.212-21.25c.179-18.07-.008-21.25-1.25-21.25-1.225 0-1.462 2.741-1.462 16.893M325 130c0 13.867-.287 17.943-1.25 17.75-.833-.167-1.25 1.083-1.25 3.75s.417 3.917 1.25 3.75c1.913-.383 1.672 8.374-.25 9.112-1.267.486-1.5 3.823-1.5 21.5s.233 21.013 1.5 21.5c.99.38 1.5 1.946 1.5 4.607 0 6.529 1.656 4.611 2.348-2.719.351-3.713.641-27.113.645-52 .006-39.559-.182-45.25-1.493-45.25-1.278 0-1.5 2.667-1.5 18m-94.021-13.435c-.682 2.066-.896 5.323-.509 7.75.368 2.302.896 10.373 1.175 17.935.405 10.994.792 13.75 1.931 13.75 1.188 0 1.424-3.563 1.424-21.5 0-17.923-.237-21.5-1.422-21.5-.783 0-1.952 1.604-2.599 3.565m187.709 3.081c-.379.378-.688 2.322-.688 4.321 0 1.998-.467 4.1-1.038 4.671-1.725 1.725-1.995 12.744-.388 15.841 1.126 2.171 1.443 8.458 1.505 29.885.043 14.925.336 26.461.65 25.636.314-.825.892-1.725 1.283-2 .392-.275.887-18.011 1.1-39.414.373-37.393.118-41.483-2.424-38.94m-43.086 9.571c-.377 4.519-1.075 8.457-1.551 8.752-1.26.778-1.806 61.065-.551 60.768.55-.13 1.225 1.753 1.5 4.185.275 2.433 1.005 4.588 1.622 4.791.797.262 1.335-7.161 1.858-25.672.405-14.323 1.139-26.041 1.631-26.041 1.042 0 .889 36.509-.166 39.5-.703 1.993 1.238 4.984 2.448 3.773.661-.66.73 1.42.826 25.035.044 10.597-.311 16.184-1.077 16.95-1.405 1.405-1.524 8.742-.142 8.742.55 0 1 2.025 1 4.5s-.45 4.5-1 4.5c-1.535 0-1.186 4.957.466 6.608 1.204 1.205 1.355 3.776.845 14.429-.557 11.644-.452 12.963 1.035 12.963 1.771 0 1.849-.664 2.123-18 .114-7.223.298-123.224.211-132.75-.02-2.159-.517-3.25-1.48-3.25-1.082 0-1.296.771-.842 3.038.45 2.25.194 3.197-.987 3.65-.876.336-2.201 2.006-2.943 3.712-1.209 2.776-1.354 1.455-1.389-12.65-.031-12.572-.313-15.75-1.395-15.75-.976 0-1.549 2.304-2.042 8.217m-134.96-1.07c-.353 3.38-.642 8.957-.642 12.393 0 4.629-.388 6.395-1.5 6.822-.99.38-1.5 1.946-1.5 4.607 0 3.94.079 4.031 3.5 4.031h3.5v-17c0-13.652-.267-17-1.358-17-.926 0-1.561 1.952-2 6.147m100.108 1.542c-1.99.52-2.718 17.311-.75 17.311.615 0 1 5 1 13s-.385 13-1 13c-.55 0-1 2.025-1 4.5s.45 4.5 1 4.5c.615 0 1.029 5.299 1.074 13.75.079 14.563.978 23.496 2.177 21.616 1.429-2.24 1.948-88.378.532-88.25-.706.064-2.071.322-3.033.573m-279.25.889c-.583.245-.909 4.069-.781 9.171.121 4.813.233 10.439.25 12.501.023 2.776.451 3.75 1.649 3.75 1.418 0 1.532 1.038.92 8.391-.634 7.603.15 11.254 2.015 9.39.381-.381 1.139-12.67 1.359-22.031.048-2.062.538-3.75 1.088-3.75.613 0 1 4.798 1 12.393C69 174.557 68.626 174 78.125 174h5.961l-.293-8.75-.293-8.75-5.634-.296c-5.406-.285-5.66-.422-6.25-3.375-.877-4.382-.834-4.539 1.384-5.119 2.99-.782 2.887-17.71-.107-17.71-.491 0-.893 1.973-.893 4.383 0 3.543-.384 4.484-2 4.907-1.531.4-2.029 1.424-2.125 4.366l-.125 3.844-.801-4.5c-.44-2.475-.834-6.412-.875-8.75-.073-4.206-1.183-5.097-4.574-3.672m24.5 3.953c0 3.306-.39 4.469-1.5 4.469-1.083 0-1.5-1.111-1.5-4 0-3.012-.398-4-1.611-4-1.295 0-1.485.676-.965 3.446.531 2.831.283 3.64-1.389 4.535-1.35.723-2.035 2.096-2.035 4.079 0 3.619 2.954 5.105 8.076 4.061l3.424-.697.29-7.59c.233-6.095-.013-7.706-1.25-8.18-1.245-.478-1.54.265-1.54 3.877m162.726 2.219c-.877 10.803.311 28.25 1.924 28.25 1.082 0 1.35-3.474 1.35-17.5 0-14.108-.264-17.5-1.363-17.5-.962 0-1.524 1.986-1.911 6.75m82.156-6c-.6 3.819-.189 7.25.868 7.25.969 0 1.25 5.967 1.25 26.5 0 22.889-.204 26.5-1.5 26.5-1.09 0-1.5 1.123-1.5 4.107 0 3.24.317 3.985 1.5 3.531 1.272-.488 1.5.952 1.5 9.477 0 7.597.305 9.95 1.25 9.635.969-.323 1.309-10.226 1.511-44.083l.26-43.667h-2.51c-1.381 0-2.564.338-2.629.75m-244.956 27.5c-.04 1.238-.043 8.75-.006 16.695.049 10.49-.273 14.661-1.176 15.234-.939.597-.949.794-.038.806.842.01 1.201 2.44 1.189 8.036-.011 4.738-.402 7.784-.956 7.441-.517-.319-.946-4.041-.954-8.271-.011-5.393-.309-7.243-.999-6.191-.54.825-.735 2.683-.431 4.128.46 2.197.131 2.734-2.002 3.269-2.191.55-2.553 1.194-2.553 4.537v3.895l6.554.336c7.59.388 8.446-.168 8.446-5.487 0-3.168.258-3.709 1.342-2.809.738.612 1.638.818 2 .456.362-.362.658 1.217.658 3.508 0 3.599.293 4.167 2.154 4.167 2.122 0 2.144-.175 1.5-12.157-.36-6.686-.654-16.361-.654-21.5 0-7.638-.274-9.343-1.5-9.343-1.106 0-1.5 1.155-1.5 4.393 0 2.982-.482 4.578-1.5 4.969-1.205.462-1.526 2.893-1.634 12.357-.172 15.24-1.646 7.443-1.778-9.41-.05-6.282-.527-11.462-1.088-11.809-.55-.34-1-1.905-1-3.477 0-5.511-3.899-9.121-4.074-3.773m307.741 6.417c-.367.366-.667 2.136-.667 3.932 0 2.388-.538 3.437-2 3.901-2.313.734-2.406 1.878-2.029 24.75.016.963.704 1.75 1.529 1.75 1.286 0 1.5 3 1.5 21 0 20.689-.031 21-2.107 21-1.51 0-1.935.448-1.5 1.582.334.87.607 2.895.607 4.5 0 2.02.497 2.918 1.616 2.918 1.431 0 1.586 1.806 1.355 15.75-.402 24.23-.228 27.25 1.572 27.25 1.317 0 1.532-1.94 1.465-13.25-.044-7.288-.067-36.166-.052-64.175.014-28.009-.12-51.072-.298-51.25-.179-.179-.625-.025-.991.342M215 199.57v34.569l-2.25-.319c-1.88-.267-2.301-1.035-2.562-4.67-.282-3.928-.525-4.294-2.5-3.764-1.204.323-3.875.593-5.938.6-3.689.014-3.75.078-3.75 3.907 0 2.538-.522 4.093-1.5 4.469-2.092.802-1.94 7.567.239 10.665 1.457 2.073 1.821 5.617 2.25 21.892.375 14.274.842 19.529 1.761 19.833.975.323 1.25-4.448 1.25-21.669 0-12.145.257-22.083.571-22.083 3.075 0 3.599 3.223 4.107 25.25.339 14.687.661 17.75 1.866 17.75 1.23 0 1.456-3.342 1.456-21.5 0-18.444.213-21.5 1.5-21.5 1.076 0 1.5 1.098 1.5 3.883 0 3.146.413 3.992 2.174 4.452 3.182.832 3.696.114 3.099-4.335-.436-3.252-.231-4 1.095-4 1.237 0 1.632.968 1.632 4 0 3.787.161 4 3.033 4h3.033l-.402-33.536c-.221-18.444-.713-33.846-1.092-34.225-.379-.379-2.125-.701-3.881-.714l-3.191-.025-.289-8.75c-.227-6.876-.602-8.75-1.75-8.75-1.253 0-1.461 4.917-1.461 34.57m-8 .13c0 13.55.275 17.425 1.174 16.526.699-.699 1.357-5.741 1.626-12.45.325-8.13.835-11.499 1.826-12.076 2.142-1.246 1.742-7.433-.56-8.665-3.937-2.107-4.066-1.578-4.066 16.665m-143.65-2.625c.781 7.468 2.574 11.352 2.62 5.675.028-3.493.235-3.75 3.03-3.75 2.889 0 3 .167 3 4.5 0 3.333.389 4.5 1.5 4.5 1.216 0 1.5-1.611 1.5-8.5V191H62.715l.635 6.075m135.355.175c-.67 7.32.207 18.75 1.44 18.75.47 0 .855-1.8.855-4 0-2.889.417-4 1.5-4 1.915 0 2.179-13.921.3-15.8-2.47-2.47-3.525-1.167-4.095 5.05M218 213v22h2.433c3.44 0 3.596-1.099 3.363-23.793L223.589 191H218v22m11.193-17.75c.198 2.745.75 4.161 1.557 4 .967-.193 1.25 4.295 1.25 19.809 0 13.118-.346 19.845-1 19.441-1.132-.7-1.121-.75-1.373 5.899-.189 4.988 1.167 7.601 3.944 7.601 1.207 0 1.429-4.733 1.429-30.5V191h-3.057c-2.979 0-3.05.11-2.75 4.25m12.518-3.25c-.588 1.394-1.455 10.557-1.655 17.5-.067 2.317-.307 2.659-1.056 1.5-1.356-2.098-1.368 2.443-.013 4.975 1.632 3.049 1.752 17.948.153 18.938-2.381 1.473.263 16.587 2.901 16.587 1.226 0 1.503-3.512 1.734-22 .268-21.404-.785-40.53-2.064-37.5m32.564 1c.083 1.1.43 2 .771 2s.621.675.621 1.5-.315 1.5-.699 1.5c-.385 0-.4 1.688-.033 3.75.611 3.442.653 5.726.221 12.031-.086 1.255-.944 2.572-1.906 2.927-.962.356-2.063 1.116-2.446 1.69-1.342 2.014-1.812-.152-2.057-9.484-.307-11.686-2.055-12.116-2.747-.675-.492 8.127-.544 8.266-3.25 8.577l-2.75.317v-8.567c0-4.711-.402-8.566-.893-8.566-1.509 0-2.107 2.863-2.107 10.082 0 6.713-.074 6.918-2.5 6.918-2.461 0-2.501-.129-2.545-8.25-.027-4.994-.609-9.434-1.474-11.25-1.375-2.888-1.425-2.907-1.344-.5.411 12.159-.231 20-1.637 20-2.059 0-2.098 7.557-.042 8.345 1.194.459 1.384 2.656 1.053 12.164-.431 12.34-.12 14.491 2.096 14.491 1.122 0 1.393-2.627 1.393-13.5V225h4.942l.279 13.25c.353 16.741 2.174 17.46 2.542 1.004.145-6.465.465-12.308.712-12.986.669-1.838 4.791.002 5.188 2.316.49 2.852-.581 6.585-1.692 5.898-.565-.349-.971 1.052-.971 3.352 0 2.54.521 4.152 1.458 4.511.802.308 1.413 1.594 1.359 2.857-.631 14.573.323 31.798 1.759 31.798 1.186 0 1.534-.929 1.404-3.75-.723-15.631.144-48.376 1.27-48.001.835.278 1.317 3.035 1.451 8.317.113 4.445.66 8.054 1.25 8.251.678.226 1.049 6.501 1.049 17.766 0 14.815.224 17.417 1.5 17.417 1.31 0 1.5-5.444 1.5-43 0-36.73-.21-43-1.438-43-.821 0-1.373.857-1.287 2M398 202.5c0 3.333.389 4.5 1.5 4.5 1.085 0 1.5 1.115 1.5 4.031 0 2.661-.51 4.227-1.5 4.607-.981.377-1.5 1.935-1.5 4.5 0 2.566.519 4.124 1.5 4.5.881.338 1.5 1.838 1.5 3.636 0 1.682.322 2.738.715 2.344 1.892-1.892 2.887-10.326 2.478-21.012L403.748 198h-2.874c-2.74 0-2.874.21-2.874 4.5m-31.346 25.657c-.36 6.686-.654 17.036-.654 23 0 6.562-.395 10.843-1 10.843-1.45 0-1.23 3.756.25 4.256.913.309 1.25 3.892 1.25 13.312 0 11.204.217 12.931 1.658 13.216 1.521.3 1.654-2.847 1.617-38.228-.032-29.531-.325-38.556-1.255-38.556-.848 0-1.409 3.654-1.866 12.157m8.4-8.407c.124 2.063.163 11.738.086 21.5-.128 16.172-.296 17.753-1.89 17.78-1.633.029-1.629.101.055 1.081 1.427.83 1.558 1.349.628 2.47-.844 1.016-.859 1.419-.055 1.419.617 0 1.069.337 1.004.75-.066.413-.066 6.938 0 14.5.098 11.396.37 13.75 1.592 13.75 1.274 0 1.479-5.253 1.501-38.5.024-34.502-.138-38.5-1.56-38.5-1.207 0-1.533.897-1.361 3.75m35.084-2.835c-.717.443-1.198 2.106-1.07 3.695.76 9.411-.115 20.39-1.625 20.39-1.214 0-1.49.938-1.25 4.25.198 2.745.75 4.161 1.557 4 .867-.173 1.25 1.283 1.25 4.75 0 2.75-.398 5-.883 5-1.729 0-2.063 5.446-.413 6.714 1.261.969 1.466 2.475 1.014 7.46-.816 9.001.236 19.826 1.927 19.826 1.404 0 1.934-23.375 1.384-61-.252-17.265-.116-16.182-1.891-15.085m-245.949 4.257c.293 4.073.488 4.328 3.311 4.328h3v11.917c0 8.644.343 12.031 1.25 12.333.742.247 1.25 2.168 1.25 4.726 0 2.859.492 4.499 1.462 4.871 1.2.461 1.513-.993 1.75-8.143.27-8.163.428-8.724 2.538-9.024 1.834-.26 2.25-.953 2.25-3.75 0-4.366-1.973-4.537-2.079-.18l-.079 3.25-1.043-2.866c-.806-2.215-.731-3.066.329-3.75 1.089-.701 1.111-1.053.11-1.7-.797-.516-1.349-3.647-1.5-8.5L176.5 217h-3.25c-2.583 0-3.25.41-3.25 2 0 1.1-.47 2-1.044 2-.574 0-.911-.787-.75-1.75.198-1.18-.459-1.857-2.017-2.078-2.148-.304-2.29-.021-2 4m14.811-.13c0 2.406.536 3.95 1.5 4.32 1.171.449 1.5 2.446 1.5 9.107 0 6.916-.284 8.531-1.5 8.531-1.814 0-1.999 1.667-.25 2.25.929.309 1.341 5.597 1.604 20.583.292 16.572.607 20.167 1.772 20.167 1.201 0 1.376-5.23 1.146-34.25l-.272-34.25-2.75-.101c-2.528-.093-2.75.201-2.75 3.643m154.719.573c-.396.395-.719 3.132-.719 6.083 0 3.846-.425 5.528-1.5 5.94-1.625.624-2.13 6.855-.631 7.781 1.186.733 2.463 16.242 1.467 17.817-1.129 1.785-1.275 6.684-.22 7.336.486.3.884 4.569.884 9.487 0 7.281.279 8.941 1.5 8.941 1.302 0 1.491-3.997 1.43-30.25-.066-28.461-.493-34.854-2.211-33.135m7.92 2.079c-.351.352-.639 2.552-.639 4.889 0 2.338-.429 4.4-.953 4.584-1.902.665-2.49 8.833-.636 8.833 1.451 0 1.629 1.134 1.378 8.75-.187 5.673-.675 8.68-1.388 8.55-1.731-.314-1.162 7.095.599 7.804 1.219.49 1.5 2.905 1.5 12.907 0 8.95.341 12.42 1.25 12.73.984.335 1.25-6.919 1.25-34.099 0-31.318-.379-36.93-2.361-34.948M299 227.929c0 2.16-.562 4.523-1.25 5.25-1.576 1.666-1.487 9.418.104 9.071.833-.182 1.146 5.615 1.146 21.25 0 17.331.26 21.5 1.343 21.5 1.859 0 3.175-59.05 1.342-60.216-2.186-1.39-2.685-.806-2.685 3.145m26.686-3.179c-.237.412-.741 2.887-1.12 5.5-.379 2.613-1.111 4.75-1.627 4.75-.517 0-.939 1.575-.939 3.5s.482 3.5 1.071 3.5c.717 0 .995 4.087.84 12.337-.127 6.785.096 12.866.496 13.513.401.648.415 4.771.031 9.164-.61 6.998-.495 7.986.933 7.986 1.47 0 1.629-2.981 1.629-30.5 0-28.338-.152-31.769-1.314-29.75M418 232.5c0 6.889-.284 8.5-1.5 8.5-1.076 0-1.5 1.099-1.5 3.893 0 2.538.522 4.093 1.5 4.469 2.214.849 2.02 8.243-.25 9.533-1.558.885-1.594 1.247-.323 3.3 1.024 1.654 1.485 6.2 1.635 16.106.196 13.025.602 15.869 2.057 14.413 1.409-1.409 1.15-68.714-.265-68.714-1.033 0-1.354 2.017-1.354 8.5m8.139-.259c.271 7.158.086 8.285-1.413 8.573-2.273.438-2.464 7.689-.226 8.548 1.975.757 2.074 8.48.119 9.231-1.084.416-1.17 1.322-.398 4.218 1.574 5.903 2.076 11.292 1.139 12.229-1.38 1.38.772 17.96 2.332 17.96 1.195 0 2.192-30.427 1.606-49-.078-2.475-.154-7.988-.168-12.25-.022-6.503-.29-7.75-1.665-7.75-1.41 0-1.595 1.145-1.326 8.241m8.39.259c.659 7.911.577 8.5-1.178 8.5-2.75 0-2.952 7.609-.221 8.324 2.342.612 2.606 6.82.37 8.676-1.929 1.601-1.898 3.894.104 7.909 1.018 2.039 1.383 4.382 1 6.403-1.5 7.906-.225 22.722 1.775 20.621.762-.799.97-51.412.219-53.092-.408-.913-.262-3.388.324-5.5 1.801-6.486 1.424-10.341-1.012-10.341-2.011 0-2.063.319-1.381 8.5m-153.279-6.838c-1.43.577-1.725 7.998-.338 8.505.502.183 1.103 9.447 1.336 20.586.234 11.139.723 20.551 1.088 20.917 1.726 1.725 2.155-2.518 2.512-24.854.416-25.953.207-27.093-4.598-25.154m9.417.005c-.367.366-.667 2.14-.667 3.941 0 1.801-.45 3.552-1 3.892-1.54.952-1.184 7.459.5 9.143 1.235 1.235 1.5 5.103 1.5 21.928 0 17.165.231 20.429 1.448 20.429 1.212 0 1.497-3.699 1.75-22.75.463-34.852-.041-40.073-3.531-36.583m14.536 7.746c-.177 5.091.12 8.668.752 9.059.588.364 1.047 4.224 1.049 8.837.008 16.33 1.267 33.691 2.443 33.691.821 0 1.212-8.384 1.399-30l.26-30h-5.609l-.294 8.413M316 228.874c0 2.131-.677 5.795-1.505 8.141-1.193 3.379-1.252 4.573-.286 5.737.778.937 1.267 5.499 1.352 12.609.351 29.422.365 29.639 1.939 29.639 1.3 0 1.5-4 1.5-30s-.2-30-1.5-30c-1.075 0-1.5 1.097-1.5 3.874m-125.765 26.793c.194 21.746.581 29.772 1.448 30.061.882.294 1.264-5.534 1.5-22.917.409-30.094.084-36.811-1.783-36.811-1.213 0-1.39 4.489-1.165 29.667m210.83-22.707c-.818.505-1.141 1.863-.83 3.49.314 1.64-.076 3.248-1.014 4.186-2.307 2.307-2.19 8.561.171 9.177 1.81.473 1.862 1.421 1.183 21.841-.632 19.015-.538 21.346.858 21.346 1.343 0 1.578-1.965 1.641-13.75.041-7.562.278-21.028.528-29.924.447-15.917.122-18.01-2.537-16.366m-248.462 4.659c.061 2.177.78 4.188 1.75 4.897 1.007.737 1.647 2.619 1.647 4.844 0 2.431.459 3.64 1.383 3.64.991 0 1.581-2.122 2.085-7.5.386-4.125 1.052-7.5 1.479-7.5.426 0 .578 1.035.336 2.299-.242 1.265.496 5.076 1.639 8.469s2.078 7.758 2.078 9.7c0 2.473.45 3.532 1.5 3.532 1.463 0 1.77-3.566 1.89-22l.023-3.5-7.956-.287-7.957-.287.103 3.693M90 332.39c0 2.222-.622 4.366-1.451 5-1.018.779-1.487 3.348-1.573 8.61-.236 14.486-.086 16 1.583 16 .857 0 1.279-.453.937-1.007-.343-.554.081-1.277.941-1.607.859-.33 1.563-1.253 1.563-2.052 0-.799-.45-1.174-1-.834-.55.34-1 .141-1-.441S90.675 355 91.5 355c1.222 0 1.5-1.667 1.5-9 0-7.084.301-9 1.412-9 .868 0 1.673 1.541 2.088 4 .513 3.036 1.136 4 2.588 4 1.733 0 1.912-.797 1.912-8.488v-8.488l-5.5.238-5.499.238-.001 3.89m33 1.645c0 4.668-.141 4.96-1.934 4-1.064-.569-3.539-1.035-5.5-1.035H112v7.893c0 6.094.342 8.024 1.5 8.469 1.028.394 1.5 2.001 1.5 5.107 0 3.309.394 4.531 1.462 4.531 1.158 0 1.523-1.931 1.75-9.25.159-5.087.57-8.575.914-7.75 2.199 5.272 3.301 18.044 3.603 41.75.284 22.261.558 26.25 1.803 26.25 1.512 0 1.94-11.372 1.516-40.25-.134-9.125.077-10.75 1.397-10.75 1.283 0 1.555 1.47 1.555 8.417 0 5.844.382 8.544 1.25 8.833.932.311 1.253 4.597 1.262 16.833.01 13.864.243 16.417 1.5 16.417 1.247 0 1.532-2.709 1.762-16.75.164-10.036.666-16.75 1.25-16.75.537 0 .976 1.8.976 4 0 3.296.342 4 1.945 4 1.602 0 2.012.84 2.32 4.75.206 2.613.456-3.012.555-12.5L142 363h-8v-4.5c0-3.067-.398-4.42-1.25-4.25-.827.165-1.353-1.35-1.554-4.479-.269-4.194-.552-4.702-2.5-4.5-2.082.217-2.211-.199-2.486-8.021-.227-6.432-.612-8.25-1.75-8.25-1.087 0-1.46 1.288-1.46 5.035m87.75 2.743l-13.75.278v3.856c0 3.303.353 3.922 2.465 4.326 1.356.259 2.603.059 2.771-.446.179-.538 1.432-.489 3.035.121 2.688 1.022 2.731 1.176 2.847 10.312.174 13.588.444 18.019 1.246 20.441.405 1.222.264 2.446-.323 2.809-1.653 1.021-1.281 8.219.459 8.887 1.254.481 1.5 3.436 1.5 18.023 0 12.663.328 17.558 1.198 17.848.928.309.925 1.058-.014 3.333-.954 2.313-.943 3.85.053 7.258 2.549 8.728 3.259 4.54 3.53-20.823.228-21.308.486-25.001 1.75-25.001 2.053 0 2.048-7.584-.006-8.734-1.546-.865-2.529-32.581-1.056-34.055.353-.353 2.87-.545 5.594-.426L227 345v-3.893c0-4.806.517-4.668-16.25-4.329m-129.062.868c-.379.378-.688 2.412-.688 4.521 0 2.108-.45 3.833-1 3.833s-1 1.773-1 3.941.45 4.219 1 4.559c.58.358 1 5.844 1 13.059 0 7.627-.387 12.441-1 12.441-1.291 0-1.347 23.667-.058 24.464.518.321 1.247 2.617 1.62 5.103 1.313 8.757 2.925 4.361 3.217-8.775.264-11.895.174-12.571-1.757-13.076-2.697-.705-2.492-7.355.249-8.075 1.633-.429 1.749-2.072 1.5-21.22-.256-19.568-.777-23.082-3.083-20.775m250.062 7.05c-2.227.574-2.571 8.304-.369 8.304 1.436 0 2.987 13.739 2.61 23.12-.397 9.865.068 18.88.974 18.88 1.334 0 .872-50.263-.465-50.545-.55-.116-1.788-.008-2.75.241M73.233 378.912c.171 16.095.625 25 1.267 24.839 1.601-.402 1.339-48.972-.267-49.507-1.006-.335-1.212 4.764-1 24.668m243.233 2.338c.457 31.076.489 31.75 1.515 31.75.617 0 .982-9.487.982-25.5 0-21.102-.24-25.5-1.39-25.5-1.148 0-1.341 3.347-1.107 19.25m-7.784-12.196c-.36 1.345-.661 13.561-.668 27.146-.012 21.954-.198 24.804-1.672 25.628-1.515.848-1.605 4.109-1.04 37.787.403 24.103.977 36.978 1.658 37.205.572.191 1.04 2.334 1.04 4.763 0 3.25.394 4.417 1.493 4.417 1.309 0 1.484-8.313 1.426-67.75-.062-63.083-.473-75.792-2.237-69.196M107 383.878c0 2.226-.639 4.407-1.5 5.122-1.663 1.38-2.228 16-.618 16 .485 0 1.2 3.825 1.589 8.5l.709 8.5H118v-8.427c0-7.106-.264-8.477-1.685-8.751-1.351-.26-1.719-1.611-1.858-6.823-.28-10.495-.159-10.112-2.957-9.41-2.396.602-2.5.436-2.5-3.981 0-2.534-.45-4.608-1-4.608s-1 1.745-1 3.878m125.764 7.322c-.414 2.865-.386 9.679.115 27.633.083 2.984.51 4.204 1.371 3.918 1.274-.424 2.044-9.678 2.183-26.234.056-6.615-.212-8.037-1.562-8.3-1.173-.228-1.763.608-2.107 2.983m-141.912-.45c-.081.962-.24 2.425-.352 3.25-.112.825-.332 3.075-.488 5-.208 2.562-.401 2.893-.72 1.235-.239-1.245-.853-2.006-1.363-1.691-1.471.909-1.079 6.272.522 7.169 1.02.571 1.541 3.038 1.75 8.3.174 4.346.718 7.383 1.299 7.239 1.381-.342 1.9-32.252.525-32.252-.564 0-1.092.788-1.173 1.75M272 404.071c0 5.842-.414 8.486-1.5 9.572-1.922 1.922-1.934 6.31-.022 7.747 1.135.852 1.524 3.837 1.677 12.86.11 6.462.57 11.75 1.022 11.75.453 0 .823-9.176.823-20.392v-20.391l2.5-.628c2.143-.537 2.5-1.196 2.5-4.608 0-3.883-.086-3.981-3.5-3.981H272v8.071m-30.65 30.679c.643 34.485.415 30.25 1.623 30.25.606 0 .951-9.453.914-25.081-.032-13.794.205-25.344.527-25.666 1.294-1.295 2.046 1.204 2.423 8.051.26 4.731.869 7.47 1.779 7.996.761.44 1.429 2.465 1.484 4.5.089 3.32.182 3.443.9 1.2 1.503-4.693 1.17-14-.5-14-1.076 0-1.5-1.099-1.5-3.893 0-2.538-.522-4.093-1.5-4.469-.99-.38-1.5-1.946-1.5-4.607 0-3.675-.23-4.031-2.602-4.031h-2.603l.555 29.75M384 441.5c0 19.333.211 22.5 1.5 22.5s1.5-3.167 1.5-22.5-.211-22.5-1.5-22.5-1.5 3.167-1.5 22.5m-83.281-20.885c-.396.395-.719 6.445-.719 13.445 0 10.389-.275 12.832-1.5 13.302-1.217.467-1.5 2.823-1.5 12.5s.283 12.033 1.5 12.5c.99.38 1.5 1.946 1.5 4.607 0 2.896.418 4.031 1.483 4.031 1.279 0 1.472-3.965 1.398-28.75-.082-27.225-.497-33.3-2.162-31.635m91.963 6.037c-.375.375-.682 8.706-.682 18.515 0 15.185.223 17.833 1.5 17.833 1.276 0 1.498-2.577 1.485-17.25-.015-16.004-.594-20.808-2.303-19.098M401 461.878c0 15.442.222 18.122 1.5 18.122 1.274 0 1.5-2.542 1.5-16.878 0-13.782-.275-17.105-1.5-18.122-1.324-1.099-1.5.882-1.5 16.878m-168.216 36.265c-.293 46.703-.381 44.962 2.171 43.385.754-.466 1.044-11.005.946-34.31-.102-24.063.177-33.744.978-34.011 1.337-.446 1.528-8.207.203-8.207-.505 0-1.63-.273-2.5-.607-1.421-.545-1.604 2.887-1.798 33.75M80.75 473.689c-1.24.324-1.75 1.463-1.75 3.909 0 3.036.362 3.524 3 4.052 2.525.505 3.021 1.095 3.132 3.725l.131 3.125L86 485c.405-1.925.796-2.911.868-2.191.073.72.532 1.062 1.02.76.488-.302 1.083.78 1.321 2.403.273 1.859-.056 3.139-.888 3.458-2.042.784-1.871 17.57.179 17.57.966 0 1.505-.979 1.515-2.75.036-6.334 2.94-6.877 3.518-.657.71 7.642 1.705 11.561 3.067 12.084 1.046.401 1.4 2.658 1.4 8.93 0 7.897.126 8.393 2.13 8.393 2.129 0 2.13-.015 1.681-25.109-.396-22.191-.644-25.218-2.13-26.05-1.068-.597-1.681-2.198-1.681-4.391 0-6.615-2.728-3.107-3.149 4.05-.098 1.65-.441.529-.764-2.491-.443-4.149-1.015-5.573-2.337-5.824-1.309-.248-1.75.334-1.75 2.313 0 2.376-1.948 5.502-3.429 5.502-.314 0-.571-1.26-.571-2.8 0-2.568-1.623-5.364-2.95-5.084-.302.064-1.337.322-2.3.573m42.411 16.387c.259 13.162.042 17.356-.911 17.674-.945.315-1.25 5.341-1.25 20.593 0 19.405.08 20.226 2.097 21.486 1.154.72 2.272 1.135 2.485.922.213-.213.507-17.672.653-38.799.253-36.61.179-38.428-1.574-38.772-1.739-.341-1.821.581-1.5 16.896M140 477.559c0 2.785-.389 4.319-1 3.941-1.048-.648-1.279 6.258-1.003 29.987.083 7.142.553 13.235 1.043 13.538.491.303 1.02 5.898 1.176 12.432.201 8.406.65 12.001 1.534 12.295.986.327 1.25-7.747 1.25-38.169 0-33.629-.193-38.583-1.5-38.583-1.114 0-1.5 1.173-1.5 4.559m-57.766 12.166l-3.267.404.165 20.29c.091 11.16-.153 20.806-.542 21.436-1.486 2.403-2.59.973-2.59-3.355 0-3.504-.363-4.5-1.64-4.5-1.46 0-1.571 1.236-1.015 11.25.344 6.188.632 12.038.64 13 .008.962.465 1.75 1.015 1.75.55 0 1-2.25 1-5s.338-4.986.75-4.968c2.274.096 4.25 3.011 4.25 6.269 0 3.691 1.482 5.617 3.086 4.013.724-.724 2.329-61.747 1.609-61.154-.107.088-1.665.342-3.461.565m33.208 26.565c-.272.71-.371 8.472-.218 17.25.232 13.397.517 15.96 1.776 15.96 1.61 0 2.776-24.257 1.502-31.25-.602-3.303-2.161-4.302-3.06-1.96m109.114 6.46c-.374 4.263-1.306 9.124-2.071 10.802-.974 2.137-1.42 7.537-1.486 18-.147 23.445-.147 23.448 1.384 23.448 2.033 0 2.588 3.253 2.603 15.25.02 15.797 1.852 13.312 2.211-3 .384-17.408.075-21.25-1.707-21.25-1.114 0-1.36-2.322-1.247-11.75.078-6.462.31-10.279.514-8.481.205 1.798.793 3.009 1.308 2.691 1.19-.736 1.241-33.46.052-33.46-.485 0-1.188 3.487-1.561 7.75m28.325 35.5c-.185 67.451.212 101.165 1.206 102.2.558.581.943-.391.991-2.5.255-11.252.616-14.348 1.715-14.714 1.355-.452 1.686-7.236.354-7.236-1.034 0-2.357-14.29-1.524-16.46.325-.847 1.218-1.54 1.984-1.54 1.08 0 1.393-1.884 1.393-8.383 0-7.543-.201-8.436-2-8.907-1.961-.512-2-1.364-2-43.116 0-27.729-.349-42.594-1-42.594-.649 0-1.042 15.163-1.119 43.25m-61.214-33.583c-1.458 1.458-.735 33.861.801 35.892 1.432 1.892 1.469 1.885 1.5-.309.019-1.319.653-2.25 1.532-2.25 1.253 0 1.5 2.056 1.5 12.5 0 7.667.387 12.5 1 12.5.593 0 1 3.667 1 9 0 7.026.306 9 1.393 9 2.164 0 2.222-.727 2.473-31.25.234-28.401.212-28.75-1.814-28.75-3.083 0-3.032-7.931.055-8.738 1.786-.467 2.021-1.083 1.543-4.031-.728-4.487-.967-4.665-4.577-3.406-1.865.65-3.252.694-3.61.115-.68-1.1-1.854-1.215-2.796-.273m22 8c-.367.366-.667 10.314-.667 22.107 0 18.3.212 21.359 1.447 20.885 1.112-.427 1.518.517 1.75 4.064.455 6.935 2.803 6.844 2.803-.108 0-4.525-.278-5.446-1.5-4.977-1.261.484-1.5-.779-1.5-7.924 0-6.633.329-8.626 1.5-9.076 1.161-.445 1.5-2.39 1.5-8.607 0-6.472-.291-8.031-1.5-8.031-1.111 0-1.5-1.167-1.5-4.5 0-4.199-.744-5.422-2.333-3.833m50 0c-1.784 1.783-.259 8.333 1.94 8.333 1.997 0 1.9 7.592-.107 8.362-.99.38-1.5 1.946-1.5 4.607 0 3.788.176 4.031 2.922 4.031h2.922l-.351-11.75c-.193-6.462-.383-12.312-.422-13-.074-1.3-4.238-1.75-5.404-.583m52.063.026c-1.633.426-1.749 2.066-1.5 21.134.208 15.892.559 20.615 1.52 20.423.688-.138 1.25.2 1.25.75s.675 1 1.5 1c1.111 0 1.5-1.167 1.5-4.5s-.389-4.5-1.5-4.5c-1.256 0-1.5-2.111-1.5-13 0-8 .385-13 1-13 .55 0 1-2.025 1-4.5s-.337-4.448-.75-4.384c-.413.064-1.547.324-2.52.577M205 566.5c0 22 .206 25.5 1.5 25.5 1.111 0 1.5 1.167 1.5 4.5 0 2.475.45 4.5 1 4.5.559 0 1.003-2.755 1.007-6.25.004-3.437.288-9.22.631-12.849.581-6.154.479-6.637-1.507-7.157-1.99-.52-2.126-1.174-2.052-9.9.043-5.139.306-8.781.583-8.094 1.371 3.398 2.338.399 2.338-7.25 0-8.4-.029-8.5-2.5-8.5H205v25.5m191-13.969c0 4.096.16 4.174 9.75 4.759l7.25.443V549h-17v3.531M382 570.5c0 2.475.403 4.5.896 4.5s1.215 3.6 1.604 8c.91 10.278 2.5 10.352 2.5.117 0-7.043.213-7.94 2-8.407 1.518-.397 2-1.364 2-4.009 0-3.785-1.185-4.701-6.082-4.701-2.792 0-2.918.195-2.918 4.5m19.852-3.708c-.273 1.305-.555 3.689-.704 5.958-.111 1.694-.766 2.25-2.648 2.25-2.25 0-2.5-.4-2.5-4 0-2.941-.409-4-1.546-4-1.286 0-1.496 1.298-1.25 7.75l.296 7.75 5.19.3 5.19.3.31-4.3c.28-3.88.584-4.331 3.116-4.622 2.575-.295 2.781-.625 2.5-4-.29-3.486-.502-3.689-4.056-3.886-2.062-.114-3.817.111-3.898.5M230 578.95c0 2.416.565 4.267 1.454 4.764 1.039.582 1.538 3.092 1.75 8.8.394 10.622 2.214 9.913 2.585-1.008.159-4.678.721-8.506 1.25-8.506s.961-1.8.961-4v-4h-4c-3.992 0-4 .008-4 3.95m114.897 2.3c-.057 3.438-.033 11.65.055 18.25.177 13.413.774 49.43.94 56.75.059 2.612.558 4.75 1.108 4.75.641 0 1-9.333 1-26 0-20.267.276-25.945 1.25-25.75 1.949.39 2.118-24.895.171-25.642-.903-.346-1.421-2.016-1.421-4.577 0-2.916-.415-4.031-1.5-4.031-1.162 0-1.523 1.407-1.603 6.25m-62.708.5c-.104.688-.837 1.25-1.63 1.25-3.033 0-3.274 4.799-2.006 40 .248 6.875.45 18.237.449 25.25-.001 7.834.384 12.75.998 12.75.633 0 1.012-7.438 1.032-20.25.025-16.22.324-20.636 1.5-22.191 1.602-2.118 1.952-10.923.763-19.169-.657-4.554-.752-4.684-1.382-1.89-.669 2.969-.678 2.962-.795-.667-.065-2.016.358-3.825.939-4.019.642-.214.912-2.699.689-6.333-.202-3.29-.453-5.418-.557-4.731m54.153 14c.357 7.013.652 24.563.654 39 .003 22.33.222 26.25 1.462 26.25 1.212 0 1.526-3.172 1.859-18.75.22-10.312.74-20.212 1.155-22 .505-2.173.386-3.25-.359-3.25-.632 0-1.113-1.728-1.113-4 0-2.2.385-4 .855-4 1.689 0 3.056-22.718 1.517-25.207-.269-.436-1.883-.793-3.585-.793h-3.096l.651 12.75M430 638.277c0 14.63.769 22.723 2.159 22.723 1.471 0 .575-35.257-.909-35.751-.959-.319-1.25 2.718-1.25 13.028" fill="#d3d3d3" fill-rule="evenodd"/></svg>