<svg xmlns="http://www.w3.org/2000/svg" width="500" height="652"><path d="M309.642 107.131c-5.141 4.583-6.676 6.94-13.109 20.134-4.008 8.218-7.552 14.514-7.876 13.989-.324-.525-.851-7.659-1.171-15.854-.777-19.908-1.075-21.665-3.541-20.883-1.252.398-1.95.148-1.96-.7-.011-.891-.253-.962-.75-.219-.498.743-8.16 1.1-23.735 1.105-12.65.005-26.15.377-30 .827-3.85.451-7.338.741-7.75.645-.412-.096-.75.752-.75 1.884s-.384 1.822-.852 1.532c-2.248-1.389-14.113 21.687-19.75 38.409l-3.876 11.5-1.395-10.226c-.767-5.625-1.777-9.99-2.246-9.701-.468.29-.595-.958-.282-2.773.455-2.638.336-2.999-.596-1.8-.934 1.203-1.044.907-.554-1.5.478-2.345.369-2.672-.5-1.5-.868 1.172-.977.845-.5-1.5.474-2.326.365-2.663-.484-1.5-.864 1.183-.963.972-.465-1 .486-1.925.389-2.155-.419-1-.931 1.33-1.052 1.328-1.066-.018-.031-3.122-5.169-8.931-11.071-12.516-17.202-10.45-38.548-9.71-63.416 2.196-3.834 1.836-7.719 3.338-8.633 3.338-.914 0-1.946 1.013-2.293 2.25-.347 1.237-.363 36.225-.035 77.75.328 41.525.744 103.4.923 137.5.381 72.5 1.255 83.006 8.457 101.701 12.207 31.689 39.869 50.457 63.053 42.781 12.044-3.987 23.857-11.758 32.674-21.492 7.103-7.844 8.463-8.797 7.826-5.49-.238 1.237.153 2 1.026 2 .776 0 1.182.597.902 1.328-.28.73.031 2.642.693 4.25.661 1.607 1.106 3.331.988 3.83-.118.5.349 1.257 1.038 1.683.689.426 1.206 2.45 1.148 4.498-.076 2.677.166 3.328.86 2.317.662-.963.771-.304.345 2.094-.482 2.717-.371 3.165.5 2s.982-.717.5 2-.371 3.165.5 2 .982-.717.5 2-.371 3.165.5 2c.875-1.17.998-.73.563 2-.395 2.481-.304 2.918.314 1.5.683-1.564 1.264-.204 2.668 6.25l1.796 8.25H301v-9.441c0-12.258 1.932-13.908 2.186-1.868l.187 8.809.563-8.249.564-8.249 6 3.646c7.392 4.492 18.482 9.63 26.76 12.396 12.628 4.22 37.091 1.569 44.198-4.79 12.335-11.038 15.474-15.546 18.93-27.186 1.796-6.05 2.107-9.914.528-6.568-.761 1.612-.845 1.418-.435-1 .279-1.65.741-14.7 1.024-29 .284-14.3.846-34.1 1.248-44 .899-22.09.909-94.171.014-95.066-.357-.358-3.039-.871-5.958-1.141-2.92-.27-5.511-.685-5.758-.924-.246-.238.301-4.131 1.217-8.651 3.515-17.347 9.235-76.361 8.647-89.218-.05-1.1-.004-17.975.104-37.5.289-52.599.249-54-1.519-54-.825 0-1.5.345-1.5.767 0 .422-1.687.672-3.75.554a656.243 656.243 0 0 0-8.964-.42c-2.868-.114-4.999-.556-4.735-.983.263-.427-14.273-.821-32.303-.876l-32.783-.101-5.823 5.19M156 215.818v10.14l10.624-.229 10.624-.229-4.874-4c-2.681-2.2-7.462-6.66-10.624-9.911l-5.75-5.91v10.139m80.044-1.568c-1.279 2.338-3.7 5.713-5.381 7.5l-3.055 3.25h18.265l-3.131-7.5c-1.722-4.125-3.41-7.5-3.752-7.5-.342 0-1.668 1.912-2.946 4.25M150 294.525c0 .894 1.857 8.679 4.126 17.3 2.27 8.621 4.942 19.5 5.939 24.175l1.812 8.5-.188-25.5-.189-25.5-5.75-.3c-4.764-.248-5.75-.021-5.75 1.325m88.461.225c.667 1.73 4.925 16.356 8.006 27.5.874 3.163 2.026 5.75 2.561 5.75.535 0 .979 2.137.987 4.75.009 2.613.379 5.322.823 6.022.755 1.19 3.21-30.509 3.177-41.022L254 293h-8.107c-7.311 0-8.041.172-7.432 1.75m111.214 126.895c-1.445 5.42-3.97 14.868-5.611 20.994-1.642 6.127-3.186 12.202-3.432 13.5-.247 1.299-.943 3.636-1.547 5.195-.605 1.559-.868 3.208-.586 3.665.282.456.131.981-.336 1.166-1.026.405-6.34 15.992-5.677 16.654.257.257.732-.222 1.055-1.065.36-.94 1.346-1.335 2.544-1.021 1.782.466 6.256-3.44 13.506-11.789 3.475-4.003 4.909-13.935 4.9-33.944-.011-24.567-1.055-27.463-4.816-13.355" fill="#d3d3d3" fill-rule="evenodd"/></svg>