<svg xmlns="http://www.w3.org/2000/svg" width="500" height="750"><path d="M242.046 68.77c-14.037.177-21.685.645-22.122 1.354-.475.768-1.312.738-2.882-.102-2.691-1.44-3.798-.638-2.042 1.478.707.852 1.108 1.65.893 1.774-3.641 2.095-5.118 2.726-6.379 2.726-.855 0-1.514.884-1.514 2.031 0 2.211-2.802 3.867-3.851 2.276-.995-1.51-9.149-1.156-9.149.397 0 .713-.338 1.327-.75 1.365-.412.038-1.988.232-3.501.432-1.928.254-3.055-.204-3.766-1.532-.639-1.195-1.613-1.664-2.639-1.271-1.458.56-1.437.761.207 1.963 1.007.736 1.408 1.346.89 1.354-.517.009-.279.434.53.946 1.781 1.126 1.004 2.09-1.858 2.305-1.162.088-2.106.401-2.098.697.026.892 1.953 3.597 1.97 2.764.008-.425 1.163-.021 2.566.899 3.125 2.047 2.105 3.325-3.159 3.957-2.14.257-4.44 1.198-5.111 2.091-1.015 1.352-1.481 1.405-2.792.317-2.211-1.835-11.208-2.034-12.664-.28-.909 1.095-.748 1.497.761 1.893 1.312.344 1.984 1.507 2.137 3.699.174 2.503-.009 2.871-.845 1.697-.9-1.266-.979-1.229-.508.238.307.956.237 1.69-.156 1.632-4.324-.645-5.131.766-2.304 4.027 2.028 2.337 2.171 2.256 4.829-2.751.688-1.295 1.001-2.757.697-3.25-.305-.493-.077-.896.505-.896s1.059-.702 1.059-1.559.468-1.27 1.041-.916c.572.354.754 1.544.405 2.645-.564 1.779-.399 1.875 1.487.866 1.168-.625 1.859-1.564 1.536-2.086-.693-1.121.574-1.232 2.104-.185 1.093.749 2.503 3.618 3.01 6.124.154.764-.365 2.375-1.155 3.58-.789 1.205-1.144 2.482-.788 2.837.355.356-.113.938-1.042 1.295-1.508.579-1.464.805.422 2.125 2.494 1.747 3.803.971 2.009-1.191-1.102-1.327-.538-1.464 4.608-1.115 8.171.553 8.064.524 6.069 1.685-1.178.685-1.584 1.704-1.182 2.969.468 1.477.129 1.926-1.457 1.926-1.435 0-2.067.644-2.067 2.107 0 1.462.459 1.931 1.5 1.531.825-.316 1.5-.113 1.5.452 0 .566.498.72 1.107.344.771-.477.696-.944-.25-1.544-1.057-.669-.97-.863.393-.875.963-.008 1.75-.481 1.75-1.05 0-.651.836-.572 2.25.212 1.238.686 2.588 1.152 3 1.035.412-.116.75.238.75.788s-.659 1-1.465 1c-2.996 0-3.706 3.658-1.048 5.4 2.087 1.367 2.72 5.464.647 4.183-.361-.223-1.452.176-2.424.887-1.53 1.119-1.562 1.373-.239 1.88.841.323 1.529 1.078 1.529 1.678 0 .599-.359.868-.798.597-.439-.271-1.451-.08-2.25.426-1.171.74-1.065.937.548 1.013 1.1.051 1.438.321.75.598-.687.278-1.24 1.48-1.228 2.671l.022 2.167 1.728-2.125c1.881-2.313 12.228-4.223 12.228-2.256 0 .563.675 1.699 1.5 2.524.897.897 1.5 1.046 1.5.369 0-.621.45-.852 1-.512.55.34 1-.084 1-.941s.702-1.559 1.559-1.559 1.281-.45.941-1c-.34-.55-.141-1 .441-1s1.059.702 1.059 1.559.45 1.281 1 .941c1.478-.914 1.214.749-.511 3.212-.956 1.365-1.139 2.386-.5 2.781.556.344 1.011.118 1.011-.501 0-1.356 4.126-.265 5.268 1.393.531.77 1.063.617 1.722-.496.763-1.288 2.166-1.518 7.012-1.149 7.472.57 12.389-.382 9.713-1.88-.966-.54-1.51-1.383-1.208-1.871.302-.489-.364-1.377-1.479-1.974-2.387-1.278-2.758-3.509-.435-2.618 5.015 1.925 6.407 1.847 6.407-.356 0-1.777-.412-2.06-2.25-1.543-1.386.39-1.778.302-1.02-.229 2.159-1.514-4.667-4.717-10.23-4.8-2.75-.041-5.983-.613-7.184-1.271-1.202-.659-2.814-1.198-3.584-1.198-.889 0-1.399-1.098-1.399-3.014 0-2.269.392-2.906 1.584-2.575.87.242 3.063.738 4.872 1.102l3.289.663-1.987-3.267c-1.093-1.797-1.759-3.637-1.48-4.088.729-1.18 8.389-1.016 8.389.179 0 1.5 1.651 1.206 3.476-.619.891-.891 1.859-1.379 2.153-1.086.73.731-1.61 5.021-3.275 6.005-1.827 1.079-1.723 3.7.146 3.7.825 0 1.5-.457 1.5-1.016 0-.559 1.578-1.769 3.507-2.689 2.626-1.252 3.363-2.128 2.933-3.484-.316-.996-.138-1.811.395-1.811s1.452-1.384 2.041-3.075c.66-1.891 1.51-2.804 2.21-2.372.626.387 1.519.087 1.984-.667.674-1.09 1.1-1.116 2.088-.128.989.989.916 1.242-.358 1.242-1.155 0-1.543.828-1.395 2.972.252 3.643 1.245 4.778 2.812 3.211.651-.651 2.281-1.183 3.623-1.183s3.043-.787 3.781-1.75c1.172-1.529 1.466-1.56 2.328-.25.632.96.638 1.62.019 1.833-.532.184-.968.875-.968 1.538 0 .662-1.337 1.305-2.971 1.43-4.25.324-8.255 2.024-7.53 3.197 1.271 2.056 10.472-.023 10.493-2.37.004-.48.767-.255 1.695.5 1.483 1.205 1.605 1.153 1.012-.43-.372-.991-.27-1.551.227-1.244.497.307 1.093-.007 1.326-.698.337-1.002.738-.996 1.98.029.857.707 2.097 1.157 2.756 1 .659-.157 1.678.441 2.264 1.329 1.402 2.123.178 5.265-1.76 4.521-.905-.347-1.492.005-1.492.896 0 .808-.485 1.469-1.077 1.469-1.313 0-6.923 5.484-6.923 6.768 0 2.971-5.526 5.058-7.235 2.732-1.257-1.712-.834 5.953.485 8.783 1.961 4.207 3.716 4.155 7.936-.237 3.221-3.352 3.75-4.474 3.196-6.781-.365-1.521-.293-2.42.161-1.998.453.421 1.394-.591 2.092-2.25 1.448-3.445 2.955-3.885 3.832-1.12.672 2.117 3.67 1.848 5.623-.505 1.31-1.578 8.478-1.9 9.392-.421.33.534-.544 1.257-1.941 1.608-1.398.351-2.541 1.264-2.541 2.029 0 .766-.45 1.392-1 1.392-1.529 0-1.189 2.99.41 3.604.775.297 2.813-.185 4.529-1.073 1.716-.887 3.557-1.343 4.09-1.013.534.33.971.154.971-.392 0-.545.907-1.279 2.015-1.631 1.108-.351 1.782-1.015 1.498-1.474-.284-.459.409-.593 1.539-.297 1.683.44 1.488-.031-1.075-2.593-1.722-1.722-3.771-3.131-4.554-3.131-1.541 0-1.766-.943-.816-3.418.825-2.151 2.129-1.99 2.873.354.855 2.694 3.619 2.965 5.997.587 1.885-1.885 2.02-1.896 2.349-.186.335 1.739.431 1.74 2.311.039 1.918-1.736 1.949-1.701 1.378 1.541-.555 3.149-.456 3.285 1.95 2.681 2.121-.532 2.535-.287 2.535 1.502 0 2.091.075 2.08 3.428-.477 3.277-2.499 7.096-2.694 6.305-.321-.407 1.22-1.704 1.98-7.233 4.234-6.16 2.511-6.807 2.947-7.074 4.764-.338 2.303 1.247 3.107 2.325 1.18 1.253-2.238 4.489-.81 3.711 1.638-.37 1.167-.115 1.882.671 1.882 2.292 0-.953 2.425-3.401 2.542-3.135.149-6.631 2.558-6.02 4.149.281.734.004 1.946-.616 2.694-.891 1.072-.492 1.622 1.888 2.608 1.659.687 3.016 1.672 3.016 2.187 0 .516-.45.66-1 .32s-1 .294-1 1.41c0 1.326-.484 1.842-1.399 1.49-.769-.295-1.696-.056-2.059.532-.363.587-1.421 1.061-2.351 1.053-1.47-.014-1.495-.156-.191-1.095 1.556-1.119.501-.901-3.541.733-.847.342-1.469.23-1.381-.25.354-1.941-.183-2.285-2.328-1.492-2.965 1.096-4.75.384-4.75-1.895 0-1.6.425-1.724 3.184-.933 1.751.502 3.394.702 3.651.445.257-.257 1.037.313 1.734 1.266.697.953 1.638 1.362 2.091.909.453-.452.03-1.267-.939-1.809-.97-.543-1.51-1.396-1.201-1.896.309-.5-.469-1.158-1.729-1.463-3.867-.935-11.909-1.123-12.423-.291-.267.432-2.245.786-4.396.786-3.162 0-3.793.304-3.299 1.59.468 1.219.052 1.523-1.781 1.301-1.316-.159-3.304.212-4.419.826-1.115.613-3.449 1.016-5.187.896-1.738-.12-2.94.137-2.671.573.594.961-2.626-.118-4.365-1.464-.832-.643-1.25-.592-1.25.156 0 .617-.9 1.122-2 1.122s-2-.45-2-1 .372-1 .827-1c.455 0 .637-1.292.405-2.872-.404-2.751-.635-2.866-5.499-2.743-3.046.077-5.608-.403-6.405-1.2-.73-.73-1.335-.958-1.343-.506-.009.451-.396.221-.861-.513-.648-1.022-1.364-.677-3.058 1.477l-2.212 2.813 2.123.947c1.617.721 2.052 1.681 1.823 4.022-.275 2.821-.59 3.064-3.8 2.942-7.385-.281-9.67-1.217-7-2.867 1.44-.89 1.234-3.637-.25-3.325-.687.145-2.542-.598-4.121-1.65-3.016-2.01-6.629-2.761-6.629-1.377 0 .448 1.107 1.092 2.459 1.431 2.456.617 5.616 3.421 3.855 3.421-.513 0-1.805.707-2.873 1.572-1.84 1.49-1.769 1.543 1.359 1.015 2.042-.345 3.068-.182 2.691.428-.335.542-1.074.985-1.642.985-.569 0-2.133.865-3.476 1.921-2.369 1.864-2.381 1.942-.417 2.565 1.114.354 2.48.362 3.035.02.555-.343 1.023-.035 1.041.685.021.878.463.741 1.342-.417 1.158-1.524 1.533-1.556 3.218-.281 1.05.794 2.888 1.458 4.087 1.475 1.198.018 2.837.691 3.642 1.496 1.286 1.286 1.547 1.194 2.139-.75.428-1.404.867-1.744 1.202-.93.29.706.09 1.831-.444 2.5-.546.683-.618 2.092-.165 3.216.444 1.1.838 1.51.877.911.115-1.781 5.245-3.747 6.113-2.342.505.817 1.031.621 1.743-.652.824-1.472 1.303-1.588 2.49-.603.809.671 2.199.941 3.089.599.992-.38 1.856 0 2.234.983.621 1.621 3.401 2.28 3.401.808 0-1.26 4.768-.836 6.15.546 1.776 1.776 2.988 1.547 2.644-.5-.189-1.123.348-1.753 1.498-1.759.985-.005 2.166-.615 2.624-1.355.683-1.105 1.296-1.043 3.414.345 1.42.93 3.005 1.43 3.521 1.111.517-.319 1.186.063 1.488.848.616 1.607 6.451 1.858 8.347.359.75-.593 1.953-.527 3.271.178 1.146.613 2.51.852 3.031.53.521-.321 1.52.333 2.22 1.454.7 1.122 2.135 2.039 3.188 2.039 1.851 0 1.854.066.104 2-.995 1.1-1.403 2.016-.905 2.035.498.02-.167.63-1.477 1.356l-2.383 1.321 3.186 1.111c2.766.964 3.046 1.371 2.127 3.088-1.711 3.196-3.29 3.61-4.843 1.271-1.349-2.031-1.591-2.067-4.072-.601-2.187 1.291-3.15 1.349-5.635.336-4.151-1.693-6.498-2.064-6.498-1.027 0 .482-1.125 1.092-2.5 1.355-1.375.263-2.5.09-2.5-.384 0-.473-1.806-.861-4.014-.861-2.207 0-4.896-.551-5.975-1.225-1.61-1.006-2.19-.939-3.236.372-1.575 1.973-6.065 3.218-5.496 1.524.216-.644 1.11-1.177 1.987-1.184.876-.007 1.925-.344 2.33-.75.406-.405.01-.737-.88-.737-.889 0-2.002-.688-2.473-1.53-.601-1.074-2.753-1.607-7.229-1.79-3.893-.158-6.531-.73-6.777-1.47-.222-.665-.843-1.21-1.379-1.21-.537 0-.698.45-.358 1 .34.55.141 1-.441 1-1.517 0-1.306 1.61.441 3.357.825.825 1.5 2.432 1.5 3.572 0 1.529.639 2.071 2.441 2.071 1.343 0 2.707.43 3.032.957.344.556-.677.796-2.441.572-3.147-.398-3.417-.001-3.045 4.471.265 3.192.46 3.355 2.677 2.236 1.172-.591 3.463-.502 6.336.244 4.03 1.048 4.255 1.251 2.149 1.944-1.775.585-2.068 1.056-1.195 1.925 1.592 1.586 11.879 1.504 12.499-.099.672-1.735 4.547-1.575 4.547.187 0 1.084.86 1.298 3.5.869 2.135-.346 3.5-.159 3.5.48 0 .577 2.05 1.831 4.555 2.788 3.322 1.269 4.202 1.994 3.25 2.677-.942.677-.804.776.497.355 1.057-.342 1.549-.174 1.191.405-.336.544-.108.989.507.989s.84.45.5 1c-.34.55-.179 1 .358 1 .536 0 1.185-.563 1.442-1.25.299-.799.76-.528 1.278.75 1.722 4.249 4.011 5.432 5.812 3.002 1.312-1.77 7.61-2.739 7.61-1.171 0 .732.351.718 1.113-.044 1.67-1.67.138-3.287-3.113-3.287-4.956 0-4.245-1.779.999-2.5 2.751-.378 5.001-1.144 5.001-1.702 0-.583 1.064-.748 2.5-.387 3.082.773 3.116.357.226-2.761-1.941-2.095-2.531-2.266-4.029-1.17-.965.705-3.205 1.213-4.976 1.126-2.924-.142-3.246-.477-3.489-3.631-.239-3.113-.124-3.293 1.111-1.725 1.687 2.143 4.657 2.302 4.657.25 0-.928.941-1.5 2.465-1.5 1.371 0 2.902-.818 3.451-1.843.84-1.569 2.181-1.829 9.035-1.75 4.427.051 8.049-.245 8.049-.657 0-1.466 3.796-.723 4.404.861.403 1.051.179 1.445-.643 1.132-2.463-.938-5.698 1.214-7.687 5.112-2.241 4.393-.542 6.695 2.821 3.821 1.795-1.534 4.839-2.877 7.105-3.133 3.637-.411 8-1.866 8-2.668 0-.481.788-.868 1.75-.86 1.468.013 1.513.166.279.946-.809.512-1.122 1.279-.696 1.706.427.426 1.194.113 1.706-.696.814-1.287.931-1.284.938.029.004.825-1.826 2.547-4.066 3.827-2.887 1.649-4.717 3.714-6.281 7.09-1.547 3.338-2.731 4.685-3.961 4.505-.965-.142-2.294.605-2.952 1.66-.659 1.055-1.948 1.918-2.864 1.918-1.17 0-1.511.592-1.146 1.988.33 1.261-.07 2.214-1.094 2.607-2.016.774-2.114 2.405-.144 2.405.894 0 1.243.586.893 1.5-.317.825-1.095 1.5-1.728 1.5-.634 0-1.725.917-2.425 2.037-.699 1.12-2.4 2.465-3.779 2.99-2.23.847-2.455 1.395-2.027 4.94.264 2.193.099 4.223-.368 4.511-.466.288-.612 1.424-.324 2.523.287 1.099.067 1.999-.489 1.999-1.287 0-7.222 5.507-7.222 6.701 0 .495 1.575.899 3.5.899 2.205 0 3.5-.481 3.5-1.3 0-1.513 1.612-1.737 2.473-.344.325.526 1.195.725 1.934.441 2.615-1.003 1.182 4.047-1.657 5.838-1.512.955-2.75 2.192-2.75 2.75 0 1.313 4.69 1.325 5.5.015.934-1.511 2.5-1.198 2.5.5 0 1.458-1.639 1.976-5.277 1.665-1.01-.086-2.148.818-2.636 2.092-1.053 2.753-3.842 5.279-6.837 6.192-3.404 1.038-2.694 2.27.997 1.728 2.868-.421 3.094-.293 1.935 1.104-1.112 1.34-.985 1.754.839 2.73 1.183.633 2.347.954 2.588.713.704-.703-.745-3.758-1.547-3.262-.401.247-.729-.205-.729-1.006 0-1.566.047-1.593 3.391-1.946 1.223-.129 2.003.123 1.733.56-.27.436.979.047 2.776-.865 1.797-.911 5.36-1.668 7.917-1.681 2.558-.013 4.458-.338 4.224-.722-.235-.383.497-.519 1.626-.302 1.129.217 1.82.018 1.535-.444-.932-1.507 6.602-1.776 8.09-.288 1.702 1.702.891 3.367-1.241 2.549-1.254-.481-1.296-.757-.218-1.441.873-.553.93-.851.166-.861-2.256-.029-4.332 1.213-4.332 2.592 0 .766-.45 1.393-1 1.393s-1-.54-1-1.2c0-.881-.296-.904-1.113-.087-1.469 1.469-.299 3.245 1.884 2.857.951-.168 3.482-.623 5.625-1.011 3.902-.705 9.078-3.419 8.199-4.297-.257-.257-.034-1.606.495-2.998 1.062-2.795 1.396-2.777-11.993-.657-3.414.541-4.228.414-3.625-.562 1.07-1.732-3.594-.247-4.968 1.582-.552.735-1.904 1.501-3.004 1.704-1.1.203-2.761.699-3.692 1.103-.93.404-2.505.52-3.5.257-1.606-.426-1.566-.557.36-1.18 2.081-.673 3.842-3.769 4.557-8.011.224-1.33 1.081-1.973 2.556-1.921 2.339.084 3.044-1.137 1.042-1.805-1.963-.654.127-2.774 2.736-2.774 1.628 0 2.467.583 2.52 1.75.062 1.379.202 1.436.661.268 1.259-3.209 3.5-4.354 8.308-4.244 3.983.091 4.964-.238 5.47-1.832.339-1.068 1.153-1.942 1.809-1.942.655 0 1.754-.9 2.441-2 1.208-1.934 6.232-2.881 6.232-1.174 0 1.308-4.618 5.296-5.754 4.97-1.047-.301-5.246 3.902-5.246 5.25 0 1.184 2.627 1.864 4.904 1.269 1.252-.328 2.096-.074 2.096.63 0 1.226 7.304.6 11.583-.993 2.437-.907 4.98.328 3.986 1.936-.378.612-1.673 1.157-2.878 1.212-2.085.095-2.075.132.209.771l2.399.672-2.888 1.316-2.888 1.315 2.489 1.378c1.801.997 2.021 1.387.797 1.413-.93.019-1.969-.415-2.309-.965-.34-.55-1.379-.964-2.309-.921-1.051.049-1.216.271-.435.585.691.279.986.944.656 1.478-1.289 2.086.557 5.764 2.845 5.669 3.795-.159 4.887.147 4.243 1.189-.34.55-.141 1 .441 1s1.079-.562 1.103-1.25c.025-.687.883.325 1.907 2.25 2.221 4.172 8.049 8.153 8.049 5.498 0-.892.479-1.32 1.068-.956.588.363.827 1.29.532 2.059-.71 1.849.83 1.791 2.391-.09 1.581-1.905 3.334-.862 2.69 1.602-.61 2.333 2.468 2.617 4.31.398 2.092-2.521 2.83-.784 2.44 5.738-.206 3.438-.397 7.376-.425 8.751-.152 7.465-.228 14.851-.178 17.5.287 15.355.116 24.094-.587 30.125-1.16 9.934-.878 10.291 11.77 14.9 15.279 5.568 14.443 4.589 13.379 15.688l-.89 9.287-4 .156-4 .156 3.5-.774c1.925-.426 3.213-.834 2.862-.906-.351-.073-5.045-1.707-10.432-3.632-5.387-1.925-10.613-3.5-11.612-3.5-1.353 0-1.818-.767-1.818-3 0-2.405-.427-3-2.155-3-2.092 0-2.102.059-.345 2 2.525 2.79 1.64 2.628-16.145-2.952-17.079-5.358-22.084-5.758-38.569-3.083-11.689 1.897-12.786 1.648-12.786-2.893v-3.929l5.25-1.021c2.887-.562 10.145-1.608 16.128-2.324l10.878-1.301.262-3.322c.333-4.238-.764-4.631-9.238-3.306-3.729.583-10.98 1.618-16.114 2.299l-9.335 1.238.552 2.758c.755 3.777-.022 4.01-9.56 2.868-28.902-3.458-28.417-3.434-35.028-1.75-3.462.882-8.545 2.104-11.295 2.714-2.75.611-13.767 3.285-24.483 5.944-12.364 3.067-20.22 4.558-21.5 4.081-1.109-.414-4.942-1.034-8.517-1.379-3.575-.345-13.548-1.525-22.162-2.622l-15.662-1.996-10.338 3.042c-5.686 1.673-12.813 3.708-15.838 4.521-3.025.814-5.988 2.124-6.585 2.911-.826 1.09-1.363 1.154-2.25.267-.887-.887-1.165-.781-1.165.441 0 1.04-.619 1.445-1.757 1.147-.966-.252-6.897 1.359-13.18 3.581-6.282 2.222-11.553 3.91-11.712 3.75-.494-.493-.725-5.898-.534-12.455.17-5.83.377-6.351 2.933-7.391 1.513-.615 4.1-1.677 5.75-2.359 1.65-.682 5.475-2.028 8.5-2.992 6.44-2.051 8.284-3.304 7.577-5.147-.283-.737.008-1.34.646-1.34.637 0 .33-.607-.685-1.348-1.193-.873-1.55-1.823-1.012-2.694 1.294-2.093 1.655-16.958.412-16.958-.581 0-.793-.426-.471-.946.842-1.364.945-28.578.113-29.924-.42-.68.023-1.136 1.111-1.145 1.356-.012 1.479-.225.491-.852-1.965-1.246-1.314-17.133.702-17.133.797 0 1.152.297.789.66-.94.94 3.122 3.585 4.345 2.829a1.187 1.187 0 0 0 .398-1.625c-.34-.549.366-1.256 1.568-1.57 1.486-.389 1.796-.812.968-1.323-.83-.513-.499-.98 1.041-1.469 1.4-.444 2.542-.255 3.007.498.906 1.466 4.985.398 5.033-1.317.059-2.077 3.848-5.874 5.094-5.105.722.447.917.302.501-.371-.656-1.061 3.03-.882 4.112.2.259.258 1.487-.628 2.73-1.969 2.541-2.741 4.527-3.362 2.402-.751-1.208 1.485-1.153 1.605.46 1 1.007-.378 2.245-.687 2.75-.687 1.301 0 1.143-3.743-.194-4.569-.611-.378-1.461-.122-1.888.569-.427.691-1.277.947-1.888.569-.634-.392-1.112-.017-1.112.872 0 .857-.45 1.559-1 1.559s-1-.675-1-1.5.45-1.5 1-1.5 1-.851 1-1.892c0-2.925 4.777-3.724 7.135-1.193 1.034 1.109 2.53 1.767 3.324 1.462 1.998-.766 3.567.391 2.897 2.137-.429 1.118-1.011 1.206-2.545.385-1.679-.899-1.933-.778-1.626.768.253 1.271 1.124 1.761 2.84 1.599 2.237-.211 2.283-.145.475.68-1.465.669-1.599.973-.5 1.136.825.122 1.95.293 2.5.38.55.086 1.9.45 3 .809 1.1.359 4.25.869 7 1.133 2.75.263 4.213.247 3.25-.036-.963-.283-1.75-.958-1.75-1.5s-.52-.665-1.155-.273c-.773.479-.89.251-.353-.69.625-1.095.522-1.147-.467-.233-1.834 1.694-4.025.492-4.025-2.209 0-2.145.249-2.252 3.243-1.393 1.784.511 4.905.93 6.935.93 2.031 0 4.83.433 6.221.962 1.693.643 2.745.614 3.178-.087.965-1.561-.757-2.819-4.451-3.249-5.737-.668-6.756-4.13-1.507-5.119a164.26 164.26 0 0 0 2.381-.462c.275-.06-.354-.755-1.398-1.546-1.554-1.176-1.672-1.709-.65-2.941 1.731-2.086 6.416.357 9.088 4.741 1.074 1.76 1.954 2.612 1.956 1.892.002-.72.472-1.02 1.045-.666.572.354.767 1.505.432 2.559-.422 1.332-.13 1.916.96 1.916 1.298 0 2.075 1.249 1.398 2.25-.93 1.376 2.855 4.783 5.931 5.339 2.056.371 4.638 1.162 5.738 1.757 1.1.596 2.45 1.111 3 1.145.55.035.893 1.063.762 2.286-.195 1.817.261 2.22 2.5 2.208 2.079-.012 2.384-.24 1.267-.946-1.839-1.163-.869-2.298 1.265-1.48.869.334 1.356 1.189 1.083 1.901-.322.839.582 1.454 2.563 1.744 2.157.317 3.06.041 3.06-.936 0-.762.457-1.103 1.016-.758.559.346.758 1.047.441 1.559-.316.512.127.931.984.931s1.506-.337 1.441-.75c-.312-1.971.254-2.382 1.665-1.211 1.192.99 1.262 1.461.302 2.054-.817.505-.233.99 1.703 1.413 1.621.354 6.661 1.91 11.198 3.459 5.463 1.864 8.25 2.413 8.25 1.626 0-1.373 4.623-3.135 10.75-4.099 3.692-.58 6.14-2.492 3.191-2.492-.582 0-.739-.518-.347-1.151.493-.798 1.127-.584 2.062.696.996 1.362 1.645 1.554 2.47.729.615-.615 1.85-.862 2.746-.549 1.324.463 1.395.318.378-.778-2.058-2.218-1.458-2.825 2.736-2.767 2.678.037 3.77.427 3.328 1.188-.362.622.208.376 1.266-.548 1.058-.925 3.187-2.161 4.732-2.749 1.583-.601 2.52-1.534 2.147-2.137-.364-.589-1.394-.789-2.29-.445-9.441 3.623-42.169 7.882-42.169 5.488 0-.537-.702-.977-1.559-.977s-1.281-.45-.941-1c.34-.55 1.604-.993 2.809-.985 1.781.013 1.91.197.691.985-1.322.854-1.316.971.05.985 1.996.019 3.959-1.952 3.918-3.935-.026-1.3-.248-1.265-1.368.211-1.117 1.472-1.524 1.536-2.475.39-1.364-1.644-6.155-.968-7.664 1.082-1.115 1.514-6.887.765-5.938-.771.663-1.073-1.381-2.323-4.498-2.751-1.361-.187-3.049-.816-3.75-1.398-.701-.582-1.275-.726-1.275-.32 0 .405-1.164-.026-2.587-.958-1.422-.932-2.844-1.438-3.158-1.124-.314.315-1.169.075-1.9-.531-.73-.606-3.359-1.159-5.842-1.227-3.598-.099-4.513-.482-4.513-1.889 0-1.131-.761-1.764-2.122-1.764-1.763 0-1.914-.251-.892-1.483 1.023-1.232.766-1.661-1.516-2.528-1.511-.575-2.572-1.213-2.359-1.418.4-.383 11.634 1.476 20.241 3.35 4.221.919 12.648 1.243 12.648.486 0-1.284-3.587-3.356-5.021-2.9-.996.316-2.074.148-2.396-.372-.322-.521-1.383-.738-2.359-.483s-3.414-.649-5.418-2.009c-2.004-1.36-3.862-2.254-4.128-1.987-1.337 1.336-9.169-2.585-8.957-4.484.254-2.275-1.369-3.144-5.106-2.734-1.631.179-2.615-.204-2.615-1.019 0-.718-.948-1.97-2.107-2.781-2.096-1.469-2.092-1.484.823-2.991 1.611-.833 3.572-2.295 4.357-3.247 1.32-1.602 1.146-1.687-2.323-1.129-3.52.566-5.251-.53-2.5-1.583.688-.263-2.35-.464-6.75-.447-4.4.017-8.225.34-8.5.718-.275.378-2.375.498-4.666.267-3.625-.365-4.116-.7-3.775-2.573.345-1.902-.043-2.141-3.334-2.049-2.605.073-3.822.599-4.048 1.75-.35 1.781-2.8 2.267-3.344.663-.183-.54-2.02-1.103-4.081-1.25-2.8-.199-3.748-.71-3.75-2.017-.001-.963.475-1.75 1.057-1.75s.781-.45.441-1 .294-1 1.41-1c1.423 0 1.849.463 1.43 1.555-.498 1.3.248 1.517 4.532 1.322 4.491-.205 7.67-1.877 3.569-1.877-.857 0-1.306-.409-.997-.91.913-1.477-.525-4.084-2.301-4.169-1.047-.05-1.187-.263-.387-.585 2.255-.909.19-2.36-2.425-1.704-2.366.594-2.463.484-1.375-1.549.644-1.203 1.023-2.952.842-3.885-.224-1.157-.896-.503-2.11 2.052-1.047 2.204-2.484 3.737-3.485 3.72-1.601-.029-1.6-.091.005-1.027.971-.566 1.458-1.651 1.127-2.513-.509-1.326-.817-1.303-2.457.18-1.489 1.348-2.339 1.473-4.126.611-1.239-.597-1.689-1.116-1.002-1.153.688-.038 1.25-.545 1.25-1.127s-.461-.774-1.025-.426c-.563.349-.901.038-.75-.691.162-.777-.803-1.449-2.336-1.627-2.462-.286-2.589-.568-2.224-4.95.213-2.556 1.12-5.457 2.016-6.447.984-1.088 1.172-1.8.474-1.8-.635 0-1.155-1.088-1.155-2.417 0-1.329-.337-2.605-.75-2.836-.412-.23-.187-.282.5-.114.688.167 1.25-.367 1.25-1.187 0-.82 1.8-3.443 4-5.83 2.397-2.601 4-5.321 4-6.789 0-1.348.939-3.458 2.087-4.69 1.148-1.232 1.828-2.916 1.512-3.741-.369-.959-.164-1.245.567-.793.681.421.87.264.467-.387-.371-.601-.069-1.458.671-1.905.741-.446 1.703-1.711 2.138-2.811.498-1.261.962-1.541 1.255-.759.347.928.854.851 2.011-.306 1.397-1.397 1.34-1.741-.58-3.53-2.525-2.353-2.636-3.238-.617-4.914 1.344-1.116 1.335-1.383-.088-2.423-1.447-1.058-1.391-1.569.59-5.369 1.204-2.309 2.593-4.199 3.088-4.199.494 0 .899-.62.899-1.378 0-.757.67-1.933 1.489-2.613.819-.68 1.262-1.604.984-2.053-.958-1.55 1.369-1.972 2.827-.513.804.804 1.74 1.183 2.081.843 1.07-1.07.675-2.286-.742-2.286-.913 0-1.204-.824-.884-2.5.357-1.866.051-2.5-1.206-2.5-1.204 0-1.511-.546-1.076-1.916.335-1.054.14-2.205-.432-2.559-.618-.381-1.041.398-1.041 1.916 0 1.407-.338 2.506-.75 2.441-2.063-.326-3.25.265-3.25 1.618 0 .825-.562 1.507-1.25 1.515-.833.011-.75.339.25.985.825.533 1.05 1.045.5 1.137-.55.092-1.45.272-2 .4s-1.9.291-3 .363c-1.523.099-1.675.336-.639.993.748.474 2.323.659 3.5.41 1.852-.391 1.938-.274.639.873-.825.728-1.483 2.224-1.462 3.324.021 1.1-.818 3.194-1.866 4.652-1.047 1.459-1.692 3.259-1.433 4 .26.742-.979 2.775-2.752 4.518-3.235 3.181-5.039 7.979-3.228 8.583.533.178.741 1.206.461 2.285-.475 1.833-.556 1.813-1.236-.309-.572-1.783-1.022-2.027-2.095-1.137-.752.624-1.113 1.545-.804 2.046.31.501.024.788-.636.637-.659-.151-1.42.331-1.69 1.072-.388 1.065-.062 1.118 1.56.25 2.733-1.463 3.228-1.384 2.543.403-.317.825-.078 1.5.531 1.5s1.093 1.012 1.075 2.25c-.031 2.229-.047 2.231-1.622.25-1.519-1.912-1.563-1.855-.983 1.3.367 1.992.228 3.065-.349 2.709-.525-.325-1.242.549-1.591 1.943-.778 3.097-2.423 2.37-2.423-1.07 0-1.565-.412-2.245-1.101-1.82-.614.38-.854 1.913-.543 3.467.306 1.533.146 4.219-.355 5.969-.768 2.677-.669 3.088.627 2.591.972-.373 1.37-.13 1.081.66-.253.688-1 1.127-1.661.975-.661-.151-1.716 1.086-2.344 2.75-1.592 4.218-2.443 3.779-2.861-1.474-.196-2.475.01-4.5.459-4.5s.538-.45.198-1-.169-1 .379-1 .965-.787.925-1.75c-.039-.963.262-2.537.669-3.5.791-1.869-.896-2.493-1.983-.734-.346.559-1.047.758-1.559.441-.879-.543-1.365 1.529-1.006 4.293.09.688-.217 1.25-.681 1.25-.946 0-.737 9.393.244 10.98.346.561.219 1.02-.283 1.02s-.814 1.688-.695 3.75c.12 2.063-.224 4.309-.763 4.993-.539.684-1.078 2.484-1.198 4-.448 5.668-1.599 8.057-3.629 7.526-1.322-.346-1.92-1.382-1.92-3.327 0-1.553-.405-3.075-.901-3.381-.495-.306-.708-2.619-.473-5.141.62-6.634.695-6.847 2.693-7.663 1.27-.519 1.627-1.351 1.183-2.75-.366-1.154-.183-2.007.431-2.007.587 0 1.067-.725 1.067-1.611 0-1.299-.676-1.485-3.485-.958-2.896.544-3.384.391-2.888-.901.328-.856.041-2.225-.638-3.043-.678-.818-.841-1.494-.361-1.502.479-.009.229-.423-.558-.92-2.219-1.405-2.11-3.923.24-5.57 1.174-.822 1.8-1.495 1.389-1.495-.41 0-.021-1.105.864-2.456 1.592-2.429 1.167-5.113-.632-4.001-.512.316-.931.125-.931-.425s.457-1.283 1.016-1.628c.559-.346.758-1.047.441-1.559-.316-.512-.098-.931.484-.931s1.059-1.52 1.059-3.378c0-1.857.675-3.937 1.5-4.622 1.631-1.353 2.096-3.486.552-2.532-.521.322-.772-.327-.557-1.441.246-1.28-.142-2.027-1.052-2.027-1.989 0-1.811-1.686.307-2.92.971-.566 1.194-1.033.5-1.05-2.21-.053-1.252-8.03.964-8.03.55 0 .77.563.489 1.25-1.886 4.613-1.983 5.041-1.007 4.438.57-.353 1.842.249 2.825 1.336 2.958 3.268 12.183 1.974 10.842-1.521-.413-1.075-1.044-1.209-2.363-.503-2.617 1.4-3.363-1.362-.956-3.54 2.172-1.965 1.723-3.46-1.038-3.46-1.237 0-2.308 1.193-3.142 3.5-.696 1.925-1.599 3.5-2.006 3.5-1.395 0-2.115-2.223-.952-2.942.639-.395.899-1.403.578-2.24-.366-.952.371-2.148 1.966-3.193 3.055-2.002 3.396-4.028.525-3.117-1.383.439-1.938.227-1.75-.669.177-.844-.885-1.375-2.975-1.488-3.217-.175-4.413 1.013-2 1.987.74.298.528.536-.519.583-1.355.061-1.629.638-1.169 2.47.624 2.486-.988 4.546-1.834 2.343-.83-2.164.075-9.792 1.344-11.321 1.451-1.748.617-2.891-1.512-2.074-.839.322-1.278 1.232-.975 2.022.303.79-.015 1.787-.708 2.215-.716.442-1.428.27-1.651-.399-.216-.647-1.269-1.177-2.341-1.177-1.071 0-2.207-.675-2.523-1.5-.317-.825-1.09-1.514-1.719-1.532-1.274-.035-6.643-4.502-6.643-5.527 0-.36.675-.396 1.5-.079.914.35 1.5.001 1.5-.893 0-.808.439-1.469.977-1.469.537 0 1.849-1.806 2.915-4.013 2.02-4.181 1.093-6.987-2.308-6.987-2.325 0-4.949 3.646-3.127 4.345.849.326 1.543.156 1.543-.376 0-.533.675-.969 1.5-.969 2.216 0 1.826 1.475-.94 3.552-1.342 1.008-2.173 2.266-1.846 2.795.327.529.075.641-.559.248-.635-.392-1.155-.236-1.155.346s-.702 1.059-1.559 1.059-1.305-.412-.994-.915c.311-.503 0-1.104-.691-1.337-.971-.327-.927-.821.19-2.174 1.262-1.528 1.262-1.725 0-1.544-2.797.401-3.946-.045-3.946-1.53 0-.825-.436-1.5-.969-1.5-.532 0-.709.675-.393 1.5.686 1.788.54 1.807-3.409.43-4.42-1.541-5.565-5.93-1.548-5.93 1.257 0 1.326-.286.354-1.458-.728-.877-.991-2.966-.66-5.25.302-2.085.566-4.13.587-4.542.021-.413.991.203 2.156 1.368 1.71 1.71 2.285 1.854 2.985.75 1.266-1.999 1.117-2.648-1.126-4.891-1.714-1.714-1.79-2.112-.5-2.607.838-.321 1.523-1.177 1.523-1.901s1.398-2.364 3.107-3.643c1.709-1.279 4.679-3.789 6.6-5.576 1.921-1.787 3.668-3.25 3.882-3.25.397 0 3.702-2.621 5.805-4.604.645-.608 2.507-1.827 4.139-2.71l2.967-1.606-3.75-.04c-2.062-.022-3.75.41-3.75.96s-.69 1-1.533 1c-.844 0-3.154 1.515-5.134 3.367-5.561 5.2-6.854 6.235-8.659 6.928-.921.353-1.674 1.331-1.674 2.174 0 .842-.413 1.531-.918 1.531-.505 0-1.634.275-2.509.61-1.388.533-1.558-.455-1.332-7.75.248-7.999.162-8.374-1.991-8.68-1.618-.229-2.259.192-2.28 1.5-.029 1.715-.09 1.719-1.05.07-1.244-2.135-6.746-2.368-7.532-.319-.302.788.419 2.741 1.602 4.341s2.292 4.804 2.465 7.12c.172 2.315.591 4.487.929 4.826 1.235 1.235.571 2.205-1.134 1.656-1.444-.464-1.493-.381-.279.477 1.918 1.356 1.319 1.834-3.185 2.543-3.212.505-3.639.349-3.156-1.155.473-1.471.392-1.508-.52-.239-.995 1.383-1.57.72-1.188-1.373.088-.48-.527-.609-1.366-.287-.922.354-1.944-.197-2.584-1.392-1.111-2.076-.341-2.777 3.7-3.37 2.4-.353 2.142-1.828-.535-3.065-2.407-1.112-3.021-6.236-.848-7.07.709-.273 1.358-1.41 1.442-2.528.15-1.983-.305-2.028-19.039-1.847-12.426.12-19.69.581-20.605 1.309-1.059.842-1.518.81-1.833-.127-.282-.837-2.678-1.25-7.25-1.25h-6.83l.271 3.25c.148 1.787.334 3.726.413 4.308.078.584 1.933.967 4.137.855 2.285-.117 3.746.198 3.413.735-.319.517-.084 1.538.523 2.269.607.731.821 2.067.475 2.968-.455 1.184-.207 1.476.895 1.053 2.179-.836 2.567 2.318.838 6.812-1.151 2.993-1.967 3.753-4.041 3.764-5.804.03-7.098.961-7.098 5.103 0 2.135.338 3.83.75 3.765 3.757-.594 7.317.375 8.328 2.265 1.447 2.702-.728 4.394-6.078 4.728-1.1.069-2 .758-2 1.531 0 .914.7 1.224 2 .884 2.398-.627 2.566.287.442 2.41-.856.857-1.326 2.16-1.043 2.897.282.736.103 1.593-.399 1.903-.502.31-.66 1.222-.352 2.026.309.805.917 1.243 1.352.974.435-.269 1.055.201 1.378 1.044.324.842.033 1.748-.645 2.011-.678.264-1.307 2.372-1.397 4.684-.09 2.312-.652 4.366-1.25 4.566-.674.224-1.086 3.766-1.086 9.337 0 5.029.394 8.733.895 8.423 1.015-.627 2.464 2.41 1.574 3.299-.318.318-.996-.084-1.508-.893-.772-1.221-.933-1.162-.946.35-.008 1.002.681 2.518 1.533 3.369.851.852 1.276 1.819.945 2.15-.331.331-1.02-.06-1.532-.869-.78-1.234-.933-1.189-.946.279-.008.963.548 1.757 1.235 1.765.967.012.957.202-.042.836-.711.451-1.269 2.356-1.239 4.234.029 1.878-.113 13.653-.315 26.165-.203 12.512.017 22.75.489 22.75.471 0 .883-1.687.915-3.75.104-6.779.713-13.954 1.358-15.986.666-2.098 4.011-2.238 15.399-.645 3.81.533 4.379.357 4.866-1.508.731-2.794 2.299-2.703 2.396.139.143 4.221.81 6.194 2.515 7.441 1.552 1.135 1.477 1.332-.844 2.215-2.328.885-2.538 1.445-2.438 6.518.111 5.677-1.974 9.026-4.917 7.897-1.678-.644-2.917 1.737-1.393 2.679.691.427.947 1.277.569 1.888-.378.612-.196 1.112.403 1.112.6 0 1.35-.675 1.666-1.5.751-1.957 2.362-1.935 2.362.032 0 .843-1.005 1.904-2.234 2.359l-2.233.826 2.182.693c1.365.433 1.975 1.235 1.627 2.141-.848 2.209-2.253 1.737-3.594-1.205-.665-1.459-2.454-3.899-3.977-5.421-2.719-2.719-2.792-2.733-4.164-.775-1.386 1.979-1.41 1.978-3.448-.21-1.129-1.212-3.202-2.33-4.606-2.484-2.471-.271-2.553-.099-2.538 5.382.01 3.549.336 5.156.875 4.305.523-.824 1.101-.967 1.474-.363.338.546-.056 1.549-.875 2.229-2.375 1.971-1.983 5.326.469 4.013 1.573-.841 2.163-.664 3 .9 1.482 2.769 1.29 4.11-.491 3.427-1.313-.504-1.362-.212-.34 2.031 1.199 2.63 2.873 3.54 2.873 1.561 0-.582.5-.75 1.112-.372a1.3 1.3 0 0 0 1.788-.407c.474-.767 1.529-.652 3.523.382 2.146 1.114 3.182 1.198 4.212.344 1.058-.878 1.365-.768 1.365.49 0 .892.503 1.622 1.118 1.622.754 0 .933 1.707.548 5.25-.906 8.343-1.558 9.748-4.533 9.765-1.734.01-2.197.292-1.355.827.926.587.567 1.135-1.297 1.985-3.286 1.497-3.481 1.479-3.481-.327 0-.825.436-1.5.969-1.5.532 0 .685-.738.339-1.64-.562-1.464-.751-1.475-1.752-.106-1.058 1.447-6.366 1.6-8.557.246-.463-.287-1.015 8.146-1.226 18.739-.574 28.837-.604 332.692-.033 334.874.271 1.038 1.148 1.887 1.948 1.887 1.224 0 1.205.25-.117 1.571-2.592 2.592-2.007 6.113 1.116 6.709 3.395.649 5.313-.071 5.313-1.994 0-.957.573-1.28 1.582-.893.87.334 2.445.607 3.5.607 1.055 0 1.918.675 1.918 1.5s.675 1.5 1.5 1.5c1.731 0 1.602-.509 2.106 8.317.368 6.44.279 6.781-1.608 6.182-1.099-.348-1.998-.202-1.998.327 0 1.49-3.255 2.38-4.043 1.105-.521-.844-1.285-.826-2.957.069-1.758.941-2.418.941-2.999.001-.523-.846-1.236-.504-2.392 1.147-1.475 2.106-1.487 2.468-.111 3.475 1.756 1.283.999 4.377-1.069 4.377-1.028 0-1.348 1.852-1.318 7.631.037 7.122.132 7.454 1.421 4.969.76-1.464 1.128-3.323.818-4.131-.437-1.139.322-1.469 3.376-1.469 4.568 0 5.72.757 4.108 2.7-.808.973-.835 1.699-.092 2.442.742.742 1.444-.014 2.358-2.543.967-2.674 1.878-3.599 3.542-3.599 1.232 0 2.548-.498 2.924-1.107.477-.771.944-.696 1.544.25 1.601 2.527.943 4.614-1.61 5.102-1.375.263-2.5.086-2.5-.392 0-.479-.867-.329-1.926.333-1.789 1.117-1.807 1.3-.25 2.59 1.558 1.29 1.553 1.349-.074.837-.962-.303-1.806-.114-1.875.418A20.74 20.74 0 0 1 37.5 665c-.138.55-.306 1.45-.375 2s-.97 1-2.003 1c-2.501 0-4.427 2.463-3.705 4.738.432 1.361.066 1.833-1.418 1.833-1.099 0-1.999-.353-1.999-.785 0-.432-.45-.786-1-.786s-1 1.813-1 4.028v4.028l3.75-.377c2.521-.253 4.09-1.046 4.788-2.419.891-1.753 1.291-1.858 2.82-.74 1.659 1.213 1.666 1.367.093 2.247-1.125.63 3.525.997 13.93 1.099 9.695.096 15.619-.22 15.619-.831 0-.645.887-.648 2.565-.01 3.408 1.295 4.435 1.229 4.435-.284 0-.693.862-1.798 1.914-2.455 1.633-1.02 2.155-.83 3.543 1.289l1.629 2.486 32.957-.15c18.23-.082 32.957-.542 32.957-1.03 0-.484-.45-.881-1-.881s-1-.45-1-1c0-1.498 1.937-1.206 3.7.558 1.411 1.41 1.673 1.339 2.775-.75 1.052-1.995.899-2.654-1.126-4.86l-2.344-2.552 3.559-.101c3.651-.103 4.952 1.453 5.787 6.924.163 1.07.939 2.352 1.723 2.848 2.554 1.616 3.19.984 1.541-1.532-2.511-3.832-2.011-4.567 2.135-3.137 2.549.878 3.852 1.983 4.07 3.447.462 3.12 3.18 2.734 3.18-.452 0-1.968.388-2.458 1.584-1.999 1.01.388 1.424.155 1.142-.643-.243-.688-1.18-1.188-2.084-1.112-.903.076-1.642-.261-1.642-.75s-.62-.889-1.378-.889c-1.565 0-4.183-2.773-3.378-3.578.292-.291 1.45-.599 2.574-.683 1.124-.085 1.78-.58 1.458-1.101-.322-.521-.117-.658.456-.304.572.354 1.251-.16 1.508-1.143.316-1.211 2.608-2.398 7.113-3.687 6.736-1.926 8.64-3.504 4.229-3.504-3.275 0-5.691-1.014-5.017-2.105.304-.492.025-.895-.619-.895-.742 0-1.006-1.136-.719-3.093.295-2.007-.016-3.273-.887-3.607-.737-.283-1.34-1.141-1.34-1.907s-.675-1.393-1.5-1.393-1.5-.45-1.5-1c0-.981 1.343-1.38 3.675-1.092.646.08 1.46-.317 1.809-.881.949-1.536 6.77-1.238 9.212.472 1.177.825 3.535 1.653 5.24 1.839 1.705.187 3.172.75 3.26 1.251.089.501.76 1.51 1.492 2.242.732.731 1.104 1.697.827 2.145-.277.448.169 1.072.991 1.388.822.315 1.494.233 1.494-.183 0-1.267 4.387-1.171 5.204.115 1.356 2.133.853 2.676-1.611 1.739-2.075-.789-2.491-.579-3.019 1.525-.337 1.342-1.279 2.44-2.093 2.44-.815 0-1.368.53-1.231 1.178.476 2.243-5.273 3.511-6.751 1.489-.719-.982-1.535-1.417-1.814-.966-.817 1.322 1.932 4.381 3.438 3.827 1.865-.687 4.299.98 3.446 2.36-.378.612-1.335 1.112-2.128 1.112-.793 0-1.441.45-1.441 1s-.675 1-1.5 1-1.5.459-1.5 1.019c0 .987 4.35.39 6.5-.892 1.024-.611 1.571-.762 3.75-1.032.764-.095.57-.552-.5-1.175-.962-.561-1.75-1.417-1.75-1.902 0-1.102 3.987-2.51 6-2.119.825.16 1.169-.045.766-.455-.938-.952 2.2-3.37 4.427-3.412.932-.018 2.371-.999 3.199-2.181 1.438-2.053 1.618-2.074 4.056-.477 2.984 1.955 3.505.407.558-1.657-2.038-1.428-1.725-2.717.661-2.717.733 0 1.333.675 1.333 1.5 0 .833.889 1.5 2 1.5 1.1 0 2-.487 2-1.083s.563-.883 1.25-.638c1.174.419 6.75-1.846 6.75-2.743 0-.226-.787-.408-1.75-.403-3.036.016-9.376-.926-9.924-1.474-.846-.846.721-2.748 1.743-2.116.512.316.931.171.931-.323s1.35-.818 3-.72c1.65.098 3-.248 3-.769s1.113-.668 2.473-.327c2.033.51 2.358.32 1.827-1.065-.5-1.304-.249-1.533 1.108-1.013.966.371 1.944.674 2.174.674.23 0 .418.626.418 1.392 0 1.506 4.485 3.044 6.053 2.075.529-.326 1.231.11 1.561.97.33.859 1.297 1.563 2.148 1.563 1.388 0 1.391-.18.023-1.75-.838-.962-1.299-2.375-1.025-3.139.279-.775.05-1.111-.517-.761-.559.345-1.577-.048-2.262-.873-.774-.933-1.67-1.165-2.364-.613-.614.489-2.017.544-3.117.123-1.83-.702-1.745-.875 1-2.037 1.65-.699 3.465-1.201 4.034-1.116.568.085 2.501-1.186 4.295-2.825 1.794-1.638 3.579-2.932 3.966-2.876 2.133.313 2.313-.36.61-2.279-1.401-1.578-1.508-2.02-.405-1.671.825.261 1.95 1.348 2.5 2.414.55 1.067 2.012 2.944 3.25 4.172 2.575 2.553 2.959 5.231.75 5.231-2.139 0-1.854 1.74.49 2.995 2.183 1.168 7.5-1.393 6.442-3.104-.94-1.523 1.339-.977 3.044.728.891.891 1.898 1.341 2.238 1 .341-.34.207-.635-.297-.654-.504-.02.192-.65 1.546-1.4 2.12-1.174 2.619-1.152 3.577.158 1.383 1.893 4.507 1.033 6.221-1.712 1.119-1.791 1.009-2.013-1.003-2.026-2.184-.015-6.278-1.923-4.258-1.985.55-.017.338-.449-.471-.961-2.606-1.648-.091-2.463 3.545-1.149 3.921 1.418 7.004.058 5.971-2.634-.325-.847-.045-1.256.694-1.01.682.228 2.069-.639 3.081-1.926 1.012-1.286 2.254-2.083 2.76-1.771.506.313.92.092.92-.49s-.579-1.059-1.287-1.059-1.358-.943-1.445-2.095c-.132-1.745.249-1.992 2.287-1.481 1.897.477 2.452.218 2.477-1.155.029-1.603.146-1.618 1.254-.165.672.883 2.292 1.945 3.6 2.36 1.308.415 1.968 1.043 1.467 1.395-.501.353-.848 1.642-.77 2.865.078 1.223-.247 1.984-.721 1.691-1.027-.635-1.169 1.945-.162 2.952.385.385.748 3.468.806 6.852.065 3.814.562 6.304 1.306 6.552.877.292 1.057-1.06.668-5.026l-.532-5.427 3.068.183c3.122.186 6.81 2.499 3.984 2.499-1.089 0-1.133.267-.2 1.2.66.66 1.2 2.01 1.2 3 0 .99.633 1.8 1.406 1.8.948 0 1.223.703.843 2.156-.388 1.484-.201 1.932.601 1.437.67-.414 1.45.024 1.837 1.034.387 1.008.172 1.92-.507 2.146-1.942.648-1.342 2.196 1.32 3.409 2.575 1.173 3.603 4.178 1.101 3.218-.769-.295-1.696-.056-2.059.532-.389.629.211 1.068 1.458 1.068 1.165 0 1.846.441 1.513.979-.889 1.438 1.31 5.021 3.081 5.021.838 0 1.246-.45.906-1-.34-.55-.141-1 .441-1s1.059.398 1.059.883c0 .486.9 1.119 2 1.407 1.483.388 2 .03 2-1.384 0-1.212-.698-1.906-1.917-1.906-1.054 0-2.145-.563-2.424-1.25-.396-.977-.711-.959-1.444.085-.727 1.034-1.064.852-1.499-.812-.357-1.367-.029-2.349.905-2.708 1.111-.426.72-1.18-1.609-3.11-2.278-1.887-2.743-2.763-1.794-3.376 1.016-.657.971-1.033-.218-1.814-.825-.541-1.275-1.026-1-1.076.275-.051 1.286-.243 2.246-.426.96-.184 2.016.102 2.346.636.334.541 1.194.169 1.942-.839 1.288-1.736 1.409-1.728 2.976.19 1.582 1.937 1.618 1.905 1.133-1.018-.725-4.372 5.02-9.486 7.675-6.831.358.358-.13 1.226-1.084 1.929-1.638 1.207-1.633 1.316.086 1.983 1.622.628 1.513.907-1 2.564-1.551 1.023-2.37 1.873-1.82 1.889.55.016-.083.861-1.406 1.878-2.729 2.098-2.357 4.542.817 5.372 2.138.56 8.089-3.955 8.089-6.136 0-1.92 2.574-.13 2.727 1.896.113 1.502-.479 1.974-2.48 1.974-2.527 0-2.553.057-.688 1.468 1.877 1.42 1.858 1.473-.559 1.619-1.375.082-3.108.067-3.85-.035-.743-.102-1.054.294-.691.881.362.587 1.356 1.067 2.208 1.067 1.156 0 1.389.639.919 2.511-.509 2.032-.148 2.731 1.892 3.661 2.638 1.202 3.243 2.421 1.491 3.005-1.901.634.929 6.247 4.046 8.026 3.126 1.784 3.971 3.797 1.594 3.797-1.713 0-10.573-3.947-8.929-3.978.831-.016.93-.897.332-2.979-.466-1.626-.62-3.825-.343-4.887.689-2.632-1.501-3.768-3.086-1.6-.856 1.171-2.033 1.56-3.532 1.167-1.894-.495-2.164-.262-1.709 1.476.297 1.138-.111 2.712-.911 3.512-1.827 1.828-.81 3.621 1.684 2.969 1.116-.292 2.286.184 2.857 1.163.532.911.981 1.287.998.836.051-1.385 2.723 1.778 3.458 4.094l.691 2.179 36.191.274c19.904.151 43.222.049 51.816-.226 8.594-.275 22.016-.275 29.826 0 7.809.275 16.865.348 20.124.161l5.924-.339v-18.911c0-14.454-.295-18.915-1.25-18.926-.858-.011-.907-.246-.158-.75.601-.404 1.097-2.31 1.103-4.235.006-1.925.104-8.225.218-14 .289-14.627.195-17.017-.663-16.882-2.879.455-3.387-.264-1.403-1.985 2.122-1.84 2.153-2.341 2.153-34.435 0-20.102-.398-33.614-1.039-35.3-.783-2.059-.721-2.933.25-3.55 1.047-.664 1.048-.82.004-.833-.911-.011-1.014-.525-.356-1.765 1.191-2.242 1.171-23.189-.024-25.5-.541-1.046-.54-1.75.002-1.75.902 0 1.546-69.176 1.339-144a28043.15 28043.15 0 0 1-.104-56.732c-.002-16.879-.19-19.16-1.537-18.643-.844.324-1.535.077-1.535-.549 0-.627.675-1.398 1.5-1.714 1.998-.767 2.068-9.646.089-11.288-.917-.761-1.628-.82-2.032-.166-.909 1.471-3.765.076-3.146-1.537.289-.754.09-1.371-.442-1.371-.533 0-.969-.675-.969-1.5s.45-1.5 1-1.5 1-.675 1-1.5c0-2.136 1.532-1.856 2.597.475.573 1.253 1.362 1.687 2.16 1.186.949-.595 1.239-6.032 1.184-22.224-.039-11.79-.057-22.337-.039-23.437.306-18.478-.102-26.032-1.444-26.783-1.9-1.064-1.874-2.717.042-2.717.825 0 1.5-.644 1.5-1.43 0-1.138-.664-1.24-3.243-.5-4.041 1.159-3.757 1.198-3.757-.525 0-.87 1.405-1.718 3.5-2.111 5.217-.979 4.325-2.68-.988-1.884-5.387.808-7.704.115-6.872-2.055.334-.87.836-1.353 1.115-1.073.279.279 1.373.045 2.43-.521 1.058-.566 3.136-1.123 4.619-1.237 2.612-.201 2.701-.409 2.843-6.686.09-3.934-.303-6.767-1-7.213-.855-.547-.848-.738.026-.75 1.514-.019 1.651-20.697.143-21.629-.689-.425-.657-.866.096-1.332 2.52-1.557 2.16-30.148-.459-36.468-.56-1.351-.449-1.701.377-1.191 1.247.771 1.502-1.266 1.174-9.395-.224-5.566-.231-5.573-4.504-4.261-4.44 1.362-5.252.104-2.019-3.129 1.385-1.385 2.519-2.09 2.519-1.565 0 .525.9.955 2 .955 2.281 0 2.724-2.869.75-4.862-1.001-1.011-.896-1.462.527-2.265 1.251-.706 1.708-2.02 1.546-4.438L475.591 69l-10.045-.15c-5.525-.082-26.471-.093-46.546-.024s-42.939.137-50.809.15c-9.279.016-14.092.376-13.691 1.024.34.55.141 1-.441 1S353 70.55 353 70s-.45-1-1-1-1 .9-1 2c0 1.175-.667 2-1.617 2-1.118 0-1.457-.61-1.099-1.977.509-1.947-.131-1.977-41.407-1.956-23.058.012-42.251-.11-42.65-.272-.4-.162-10.381-.173-22.181-.025m-12.525 6.206c-.983 1.087-2.274 1.676-2.869 1.309-.594-.367-3.186-.806-5.76-.974-5.179-.34-7.004 1.434-4.278 4.16.841.841 1.159 1.543.707 1.561-.451.017-.007.649.989 1.404 1.201.911 1.439 1.601.706 2.054-.607.375-1.646.273-2.31-.227-2.108-1.589-8.017-1.517-7.401.09.296.772.089 1.853-.46 2.402-1.437 1.437 4.445 5.431 6.814 4.628 1.184-.402.781.33-1.129 2.051-3.054 2.753-2.467 4.511 1.52 4.551.853.008 2.075.54 2.717 1.182.89.89 1.319.772 1.805-.494.351-.914 1.048-1.408 1.549-1.098.501.31.653.982.336 1.494-.316.512-.072.931.543.931s.882.382.593.849c-.288.467.804.886 2.428.933 3.356.095 5.24.986 4.527 2.141-.267.431.626 1.291 1.983 1.909 2.591 1.181 2.613 1.152 2.746-3.582.074-2.628 1.222-4.202 3.09-4.235.476-.008.634 1.2.35 2.684-.284 1.485-.079 3.848.454 5.25.894 2.352 1.05 2.408 1.996.717.976-1.744 1.101-1.729 2.538.323 1.501 2.144 1.522 2.145 3.347.186 1.01-1.084 2.424-2.176 3.142-2.427.997-.348.886-.929-.469-2.459-1.582-1.784-1.609-2.14-.25-3.268.839-.696 1.525-2.111 1.525-3.143 0-1.196.709-1.878 1.953-1.878 2.352 0 7.047-2.031 7.047-3.049 0-.401 1.588-1.026 3.528-1.39 1.94-.364 3.267-1.084 2.948-1.6-.327-.53.167-.651 1.136-.28 1.216.467 1.491.294.943-.592-.448-.725-1.735-1.01-3.06-.677-1.51.379-2.481.067-2.859-.919-.439-1.144.224-1.493 2.836-1.493 3.463 0 5.129-1.218 4.051-2.962-.375-.608-1.456-.57-2.932.103-1.693.771-2.942.742-4.528-.108-1.491-.797-2.58-.849-3.41-.16-.824.684-1.697.681-2.687-.006-1.11-.772-1.163-1.142-.216-1.526 2.125-.863 1.392-2.096-1.934-3.255-2.386-.832-3.364-.817-3.907.061-1.123 1.817-.006 3.612 2.663 4.282 3.905.98 3.001 3.3-1.239 3.177-3.261-.094-3.709-.427-4.055-3.013-.225-1.686.16-3.254.917-3.735.98-.621.874-.831-.426-.843-1.019-.009-1.989 1.013-2.358 2.485-.376 1.498-1.343 2.5-2.412 2.5-.982 0-2.044.675-2.361 1.5-.839 2.187-4.638 1.92-4.638-.327 0-1.461-.601-1.738-3-1.386-3.314.486-3.676-.31-1.468-3.228 2.981-3.942 1.242-6.176-2.011-2.583M55.614 91.563c-.303.79-.115 1.437.417 1.437.533 0 .962.787.954 1.75-.012 1.34-.214 1.438-.861.416-.973-1.534-2.129.545-2.679 4.813-.176 1.363-.797 2.638-1.382 2.833-.585.195-1.063.794-1.063 1.33 0 .537.45.698 1 .358 1.584-.979 1.161 3.196-.491 4.848-.82.82-1.046 1.64-.502 1.822.543.181 1.053 2.355 1.131 4.83.079 2.475.585 5.063 1.125 5.75 2.545 3.24 4.442-.744 2.075-4.357-1.558-2.378-1.538-2.528.413-3.038 2.263-.592 3.618-6.586 1.881-8.323-.622-.622-.359-1.199.737-1.62 1.551-.595 1.566-.862.167-2.998-1.86-2.838-1.974-5.1-.286-5.668.991-.334.982-.745-.042-1.986-1.017-1.232-1.027-1.654-.05-1.979.844-.282.724-.612-.376-1.034-.948-.364-1.844-.027-2.168.816m24.384-.063c-.129.55-.182 1.338-.116 1.75.065.412-.294.75-.799.75-.504 0-1.105-.338-1.336-.75-.23-.412-.282-.187-.114.5.167.688-.132 1.25-.664 1.25-.533 0-.969.469-.969 1.043s1.463.912 3.25.75c3.968-.358 4.917 1.454 1.026 1.96-1.527.198-3.347.922-4.044 1.608C74.63 101.936 73.541 112 74.973 112c.565 0 1.041-.787 1.059-1.75.03-1.651.108-1.649 1.384.033 1.277 1.683 1.53 1.633 4.523-.885 1.761-1.482 2.938-3.275 2.647-4.033-.295-.771.115-1.365.945-1.365.808 0 1.469-.62 1.469-1.378 0-.757.675-1.937 1.5-2.622 2.599-2.157 1.864-4.129-1.25-3.353-2.401.598-2.588.488-1.474-.864 1.457-1.77-.596-3.173-3.189-2.178-.83.319-1.606-.209-1.884-1.282-.259-1.002-.576-1.373-.705-.823m206.671 3.164c-.368.368-.669 1.48-.669 2.471 0 1.082-.528 1.6-1.321 1.295-.809-.31-2.063 1.021-3.241 3.442-1.056 2.171-2.312 3.706-2.791 3.41-.479-.296-1.158-.077-1.509.487-.981 1.575-8.404 2.028-7.888.481.278-.834-.61-1.266-2.5-1.218-.73.018-.479.615.603 1.435 1.719 1.303 1.59 1.453-1.794 2.088-2.06.386-3.473 1.176-3.249 1.814.219.622 1.183.988 2.144.814.966-.175 1.471.129 1.13.681-1.049 1.697 1.65 2.536 2.856.888.858-1.174 2.289-1.424 5.848-1.023 4.177.471 4.712.807 4.712 2.96 0 1.365.438 2.158 1 1.811 2.121-1.311 3.114.732 1.057 2.173-2.397 1.678-1.871 3.327 1.061 3.327 1.1 0 1.722-.45 1.382-1-.352-.569.509-1 2-1 1.564 0 2.358-.42 1.973-1.044-.355-.574-.218-1.586.305-2.25.522-.663.936-2.663.919-4.444-.039-4.128 4.552-8.68 6.644-6.588 1.249 1.249 5.88.914 6.409-.464.588-1.533-5.232-7.351-6.353-6.351-.395.353-.394.079.002-.609.501-.87-.11-1.25-2.011-1.25-1.502 0-3.477-.676-4.39-1.502-.913-.826-1.961-1.201-2.329-.834m53.334 2.527l-2.497.927 2.497 2.015c1.673 1.35 2.085 2.183 1.247 2.524-1.741.71-1.566 2.343.25 2.343.825 0 1.5.702 1.5 1.559s-.476 1.265-1.057.906c-1.356-.838-6.178.345-5.55 1.362.617.999-1.02 3.637-2.357 3.798-.57.069-1.218.181-1.439.25-1.46.452 3.468 9.667 5.321 9.948 2.167.328 2.559-1.624.606-3.022-.537-.384.103-1.097 1.421-1.585 1.587-.587 1.996-1.134 1.21-1.62-1.567-.969-.48-2.658 1.276-1.984.752.288 1.652.063 2-.5.348-.564 1.29-.773 2.093-.465 2.258.867 3.133-2.694 1.038-4.225-1.912-1.398-1.323-3.422.997-3.422.793 0 1.441-.886 1.441-1.969 0-1.152-.518-1.778-1.25-1.51-1.88.689-3.83-.932-4.011-3.335-.199-2.644-1.507-3.195-4.736-1.995m-123.752 14.001c.2 1.849-.181 2.249-1.912 2.01-1.189-.164-2.453.174-2.809.75-.868 1.404-4.53 1.343-4.53-.074 0-.818-.359-.825-1.324-.024-.969.804-1.656.77-2.567-.128-.983-.969-1.491-.894-2.426.362-.651.873-1.808 1.377-2.572 1.12-.951-.32-1.137-.032-.59.912.44.759.443 1.058.008.665-.963-.869-4.529.903-4.529 2.25 0 .531.686.965 1.525.965.838 0 1.964 1.155 2.501 2.567.986 2.595 4.485 2.702 6.102.186.74-1.151 9.947-1.684 9.237-.535-.266.43.274.782 1.198.782 1.236 0 1.405-.333.641-1.255-.782-.941-.043-1.74 2.961-3.202 3.429-1.667 3.776-2.113 2.419-3.105-.871-.637-1.584-1.446-1.584-1.798 0-1.063 3.834-.717 4.53.409.441.713 1.109.666 2.092-.151 2.245-1.862 1.069-3.34-2.727-3.428-1.901-.044-4.004-.419-4.674-.833-.843-.521-1.141-.042-.97 1.555m107.222-.148c-.325.526-.171.956.343.956s1.188 1.269 1.498 2.82c.311 1.557 1.599 3.343 2.875 3.988l2.311 1.168-2.5-.137c-1.375-.075-3.288.204-4.25.619-.962.416-2.466.481-3.34.146-.875-.336-2.112-.285-2.75.114-2.315 1.445-4.61 1.314-4.017-.23.321-.837.014-1.488-.703-1.488-.7 0-1 .273-.667.606.961.961-3 4.681-4.196 3.941-.593-.366-1.077.035-1.077.894 0 .857.45 1.559 1 1.559s1 .498 1 1.107-.675.848-1.5.531c-.825-.316-1.5-.139-1.5.393 0 1.39 1.853 1.211 7.157-.69 4.019-1.44 4.861-1.475 6.139-.255.816.778 2.649 2.258 4.074 3.29 3.059 2.214 2.621 3.671-.91 3.031-1.911-.347-2.703.075-3.331 1.774-1.454 3.931 3.504 6.433 5.089 2.569.796-1.94 2.782-2.388 2.782-.628 0 .811.39.799 1.403-.041.892-.741 1.529-.797 1.75-.155.228.663.862.675 1.847.035 1.268-.825 1.115-1.274-.993-2.906-2.198-1.702-2.29-2.009-.775-2.591 2.136-.819 4.854-6.076 4.125-7.977-.298-.776-1.46-1.702-2.582-2.058-1.373-.436-1.653-.887-.856-1.379 1.234-.763-.204-5.307-2.407-7.606-1.601-1.671-4.392-2.447-5.039-1.4m-177.972 8.206c-.403 1.237-.792 2.7-.866 3.25-.074.55-1.147 1.144-2.385 1.32-2.262.321-3.224 2.18-1.128 2.18.761 0 .71.498-.16 1.546-.705.85-1.885 1.314-2.622 1.031-.737-.283-1.34-.078-1.34.454 0 .533-.575.969-1.278.969-1.891 0-4.899 3.773-3.409 4.275.653.221 1.683-.272 2.289-1.095.925-1.255 1.204-1.089 1.737 1.033.542 2.16 1.109 2.478 3.898 2.184 2.954-.312 3.091-.214 1.453 1.033-1.144.871-1.42 1.619-.75 2.033 1.406.869 3.06-.224 3.06-2.022 0-.793.75-1.441 1.667-1.441.916 0 1.365.302.996.67-.368.369-.049 1.618.709 2.775 1.845 2.815.595 11.374-1.93 13.221-1.714 1.253-1.717 1.334-.058 1.334 1.305 0 1.719.719 1.585 2.75-.264 4.013-.051 5.665.641 4.973.336-.336.763-3.162.949-6.281.211-3.546.977-6.377 2.044-7.556 1.616-1.785 1.605-1.89-.198-1.965-1.048-.043-1.368-.297-.711-.565.656-.267.936-1.156.621-1.977-.316-.823.362-2.361 1.515-3.435 2.687-2.503 2.989-2.449 2.437.439-.567 2.965 1.036 4.069 3.593 2.473 2.304-1.439 1.728-4.019-.69-3.091-1.546.593-1.545.456.015-1.924 2.78-4.243 1.799-6.326-3.03-6.433-2.285-.051-4.155.286-4.155.75 0 .463-.477.842-1.059.842s-.781-.45-.441-1 .217-1-.274-1c-1.018 0-.976-2.977.066-4.663.383-.62-.027-1.405-.911-1.744-1.554-.597-1.53-1.853.113-5.843.4-.974.281-1.75-.27-1.75-.545 0-1.32 1.013-1.723 2.25m-111.488 2.107c-.74 1.729-1.414 3.593-1.498 4.143-.969 6.337-1.918 10.219-2.751 11.25-.72.892-.584 1.25.475 1.25 1.076 0 1.341.749.963 2.722-.446 2.335-.615 2.451-1.189.816-.503-1.436-.865-1.586-1.469-.61-.44.713-.345 1.583.212 1.934.557.351 1.182 1.538 1.389 2.638.462 2.46 4.855 3.427 4.855 1.07 0-.864.388-1.57.861-1.57.474 0 .647-1.125.384-2.5-.279-1.459-.013-2.5.638-2.5.615 0 1.117 1.134 1.117 2.519 0 2.241.304 2.446 2.75 1.862 3.556-.85 4.25-1.269 4.25-2.562 0-.701-.482-.664-1.411.107-2.242 1.861-2.775-.448-.565-2.447 1.234-1.117 1.976-1.333 1.976-.575 0 .668.52.893 1.155.501.674-.417.884-.277.505.336-.357.577.024 1.307.846 1.623.907.348 1.494-.003 1.494-.895 0-.808-.477-1.469-1.059-1.469s-.785-.444-.449-.986c1.678-2.716 1.281-8.014-.601-8.014-1.35 0-1.891.715-1.891 2.5 0 3.015-1.61 3.304-2.515.452-.66-2.08 1.13-5.308 2.481-4.473.407.251 1.593-.189 2.637-.979 1.265-.958 1.445-1.447.54-1.468-.746-.018-1.125-.635-.843-1.373.692-1.801-.81-4.08-2.145-3.255-.587.363-.814 1.321-.504 2.128.351.915-.042 1.468-1.044 1.468-1.057 0-1.607-.875-1.607-2.559 0-1.562-.417-2.302-1.069-1.898-.588.363-.95 2.315-.804 4.337.146 2.021-.031 4.156-.394 4.743-.363.587-.979 3.05-1.368 5.472l-.708 4.405-1.231-3c-.855-2.083-.907-3.201-.17-3.657.967-.599 1.565-3.681 1.852-9.556.059-1.218-.535-2.857-1.321-3.643-1.239-1.239-1.608-1.011-2.774 1.713m57.512 4.683c.411.665-.222.823-1.753.439-1.904-.478-2.635-.076-3.562 1.96-.977 2.144-.917 2.561.37 2.561.846 0 1.263.445.927.989-.359.581.076.725 1.057.348 1.476-.566 1.52-.362.383 1.761-.707 1.321-1.23 2.627-1.162 2.902.067.275-1.036.348-2.452.163-2.167-.284-2.368-.116-1.27 1.059.718.769 2.104 1.37 3.08 1.338.976-.033 1.681.39 1.566.94-.115.55-1.864 1.017-3.886 1.037-2.023.021-3.423-.375-3.111-.88.311-.504-.059-.699-.823-.433-.764.266-1.266 1.185-1.115 2.042.192 1.093-.298 1.41-1.637 1.059-1.834-.479-3.903 1.242-2.809 2.337 1.032 1.031 6.672-.843 6.672-2.217 0-1.074.574-1.177 2.491-.448 1.371.521 3.171.686 4 .368.83-.318 1.509-.129 1.509.421 0 1.147-2.932 2.618-4.675 2.345-.646-.101-1.448.258-1.782.799-.334.54-1.333.704-2.22.364-.969-.372-2.153.12-2.968 1.235-.745 1.019-1.355 1.331-1.355.694 0-.638-.67-.903-1.489-.589-1.007.386-1.439 1.833-1.336 4.469.15 3.826.871 4.453 4.575 3.972.688-.09 1.25.307 1.25.881 0 .574-.787 1.051-1.75 1.059-1.496.013-1.532.157-.25.985.825.533 1.147.976.715.985-.432.008-.304.915.285 2.015s.85 2 .58 2c-1.169 0-7.647-4.947-7.445-5.685.122-.448-.645-.952-1.706-1.119-1.605-.252-1.677-.129-.429.735 1.302.901 1.277 1.04-.183 1.054-.925.008-1.931.802-2.235 1.765-.83 2.629-.987 10.785-.232 12.007.364.59.097 1.282-.594 1.538-.937.347-.836.906.398 2.203 2.107 2.215 4.173.993 3.579-2.115-.251-1.311-.048-2.383.45-2.383.497 0 .772-.771.611-1.714-.183-1.067.461-1.842 1.706-2.054 1.69-.287 1.768-.162.5.809-1.269.971-1.218 1.056.332.553 1.007-.327 2.969-.594 4.358-.594 2.241 0 2.456-.311 1.903-2.75-.581-2.563-.524-2.623.839-.881 1.422 1.817 1.606 1.818 6.52.051 4.049-1.456 4.943-2.177 4.485-3.619-.315-.991-.083-1.801.515-1.801.659 0 .84-.982.459-2.5-.638-2.542.989-3.606 1.912-1.25.269.688.315-1.832.102-5.6-.334-5.895-.17-6.766 1.176-6.25.859.33 1.709.6 1.887.6.179 0 .103 1.012-.168 2.25-.397 1.808-.283 1.955.578.75.889-1.245 1.074-1.118 1.087.75.008 1.238-.494 2.25-1.115 2.25-.748 0-.959 1.522-.623 4.5.279 2.475.155 4.5-.276 4.5-.431 0-.548.9-.261 2 .73 2.791 2.152 2.493 3.369-.708l1.029-2.707 1.258 2.457c.872 1.706.932 2.683.196 3.193-.709.49-.652.739.171.75 1.105.013 3.59 1.94 9.368 7.265 1.044.963 1.899 2.457 1.899 3.321 0 1.409-.168 1.404-1.621-.049-.891-.891-2.909-1.878-4.483-2.193-1.575-.315-2.619-.968-2.321-1.451.299-.483.066-.878-.516-.878-.582 0-1.059.9-1.059 2s-.542 1.888-1.205 1.75c-.662-.137-1.281.313-1.375 1-.093.688-.28 1.588-.413 2-.134.412-.139 1.2-.012 1.75.128.55.357 2.653.509 4.674.152 2.021 1.001 4.709 1.886 5.973 2.732 3.9 1.953 5.556-1.195 2.54-1.542-1.478-3.455-2.673-4.25-2.655-1.046.023-.909.437.496 1.5 1.068.807 1.405 1.468.75 1.468-2.172 0-1.233 2.66 1.356 3.839 3.625 1.652 7.453 1.478 7.453-.339 0-.825.702-1.5 1.559-1.5.924 0 1.268.47.846 1.155-.443.715-.275.883.44.44.635-.392 1.155-.181 1.155.468 0 .898.336.903 1.395.024.767-.636 1.779-1.088 2.25-1.004 2.917.524 3.36-.303 3.23-6.035-.103-4.566-.511-6.052-1.755-6.384-1.034-.276-.785-.474.689-.548 1.27-.064 2.05-.535 1.734-1.047-.317-.512-.111-1.218.457-1.569.568-.351.718-1.148.333-1.771-.947-1.532-1.024-10.619-.103-12.067.481-.756.745-.551.755.588.009 1.112.789 1.75 2.137 1.75 1.766 0 1.915-.25.889-1.487-.701-.844-.918-2.25-.502-3.25.982-2.362 1.192-18.263.241-18.263-.412 0-.75-1.35-.75-3s-.401-3-.892-3c-1.174 0-2.353 4.794-1.513 6.153.432.699-.112.818-1.595.347-1.393-.442-2.535-.252-3 .5-.57.922-.924.931-1.476.039-.447-.723.112-1.393 1.456-1.744 1.441-.377 2.03-1.149 1.735-2.276-.245-.939.356-2.207 1.337-2.82 2.075-1.296 1.529-5.199-.728-5.199-.793 0-1.183-.419-.867-.931.777-1.256-1.51-2.586-2.319-1.348-.948 1.451-4.138 1.153-4.138-.388 0-.733-.787-1.378-1.75-1.433-1.109-.063-.834-.357.75-.802l2.5-.704-2.742-1.807c-3.505-2.31-5.665-1.553-5.031 1.763.338 1.768.965 2.358 2.126 1.997 1.267-.392 1.199-.145-.294 1.071-1.733 1.412-1.757 1.582-.219 1.582 1.935 0 3.192 2.33 2.16 4.001-.472.763-1.059.78-1.931.056-2.886-2.395-3.489 2.577-.853 7.039.943 1.597 2.1 2.904 2.571 2.904 1.28 0 4.039 3.007 3.372 3.674-.923.923 2.322 6.456 3.396 5.792.566-.35.614-1.235.114-2.128-1.007-1.799-.328-6.338.948-6.338.485 0 .883.727.883 1.617 0 1.094.612 1.456 1.895 1.121 1.315-.344 2.232.246 3 1.93 1.44 3.162 1.494 3.018-1.395 3.743-2.62.657-3.688 5.737-1.492 7.094.627.387.45 1.18-.468 2.097-.993.994-1.279 2.523-.875 4.687.419 2.246.28 2.911-.463 2.211-.585-.55-1.319-3.214-1.632-5.921-.313-2.706-1.314-5.744-2.225-6.75-.91-1.006-1.367-1.829-1.015-1.829.352 0-.251-1.463-1.341-3.25-1.09-1.787-1.983-4.037-1.985-5-.002-.963-.624-1.75-1.382-1.75-.758 0-2.111-1.012-3.006-2.25-1.598-2.208-1.619-2.181-1.127 1.5.287 2.155.077 3.75-.494 3.75-.86 0-1.48-2.927-1.113-5.25.065-.412-.567-.75-1.405-.75-1.307 0-1.275-.379.229-2.674 1.29-1.969 1.426-2.782.517-3.085-.68-.227-1-.792-.713-1.257.287-.465.064-1.129-.496-1.475-.56-.346-1.466.55-2.014 1.991-.548 1.441-1.454 2.337-2.014 1.991-.56-.346-.749-1.066-.418-1.6.33-.534-.563-1.886-1.984-3.004S92 134.988 92 133.927c0-1.06-.408-1.927-.906-1.927-1.416 0-.071-3.795 1.568-4.424 1.539-.59.938-2.576-.78-2.576-.55 0-.711.468-.357 1.04m260.959 15.987c-.349.564-1.198.902-1.887.75-1.507-.333-8.597 5.688-8.597 7.301 0 .76.914.886 2.75.377 1.512-.419 5.9-.869 9.75-1 3.85-.131 7.349-.287 7.775-.347.426-.059 1.202-1.233 1.725-2.608.523-1.375 1.663-2.5 2.534-2.5.871 0 1.296-.466.944-1.036-.651-1.052-7.5-.687-9.425.503-.579.358-1.053.212-1.053-.325 0-.536.563-1.202 1.25-1.48.688-.277-.186-.54-1.941-.583-1.755-.043-3.476.383-3.825.948m-310.125 6.125c-2.928 3.764-1.383 7.477 2.53 6.083.931-.331 1.127-.07.596.79-.521.842-.396 1.038.36.57.677-.418 1.155-.092 1.155.789 0 1.492-.736 1.51-6.062.149-2.92-.747-4.938 2.274-4.938 7.392 0 1.556-.675 3.39-1.5 4.075s-1.5 1.64-1.5 2.122c0 1.214 4.739 1.109 5.5-.122.955-1.545 2.507-1.181 1.884.442-.304.793-1.731 1.58-3.17 1.75-1.728.203-3.275 1.439-4.556 3.642-2.063 3.545-3.24 12.166-1.661 12.166.517 0 .694.642.393 1.427-.381.992.01 1.293 1.281.987 5.214-1.253 14.331-.884 14.408.584.07 1.334.139 1.334.615.002.295-.825 1.226-2.048 2.069-2.719 1.321-1.049 1.34-1.457.135-2.937-1.233-1.516-1.192-1.641.352-1.063 1.17.439 1.75.169 1.75-.812 0-.808-.45-1.469-1-1.469s-1-.498-1-1.107.642-.861 1.427-.559c1.838.705 3.698-1.514 2.667-3.182-.989-1.601-.189-6.152 1.082-6.152.518 0 .612-.534.208-1.188-.404-.653-.905-3.915-1.113-7.25-.209-3.334-1.03-7.059-1.825-8.277-1.857-2.844-1.82-3.285.277-3.285 1.412 0 1.319-.282-.512-1.565-3.192-2.235-8.567-2.935-9.852-1.283m140.128 20.098c-.74 1.688-1.799 2.238-4.237 2.202-3.13-.046-3.692.525-3.309 3.365.138 1.024-.28 1.072-1.882.215-2.256-1.208-2.638-2.556-1.01-3.562.716-.443.678-1.094-.123-2.059-1.835-2.211-3.026-1.657-2.337 1.089.345 1.375.242 2.5-.231 2.501-.472 0-.923 1.122-1.002 2.493-.087 1.511.269 2.237.905 1.845.659-.408.745-.157.229.676-.618 1-.349 1.138 1.096.563 1.053-.419 2.949-.886 4.214-1.038 2.632-.316 2.507 1.254-.909 11.46-1.939 5.79-2.398 8.84-1.141 7.583.412-.412.781-1.05.82-1.416.632-6.062 9.014-18.884 10.144-15.518.275.82 1.243.72 3.391-.351 2.81-1.402 2.909-1.639 1.531-3.649-.812-1.182-1.961-2.036-2.556-1.899-.615.142-1.08-1.255-1.08-3.25 0-4.002-1.071-4.535-2.513-1.25M73.682 181.651c-.358.358.025 1.146.85 1.75 1.298.95 1.216 1.277-.602 2.412-1.935 1.207-2.049 1.139-1.417-.854l.688-2.167-3.101 2.292c-5.965 4.41-2.512 9.348 4.073 5.823 1.516-.811 2.336-.779 3.184.125.86.916.832 1.332-.113 1.678-.691.254-.955.949-.586 1.545.426.69.065.853-.994.446-1.087-.417-1.664-.129-1.664.83 0 .831.923 1.469 2.122 1.469 1.774 0 1.918.247.878 1.5-.999 1.204-.986 1.5.066 1.5.792 0 .439.812-.89 2.051-1.211 1.128-2.713 1.735-3.338 1.349-.625-.386-2.601-.818-4.391-.96-3.205-.255-3.242-.21-2.351 2.894 1.176 4.102 1.14 4.93-.181 4.114-.724-.448-.991.621-.803 3.219.154 2.139-.004 4.349-.352 4.912-1.327 2.148-1.786 13.035-.478 11.359 1.604-2.057 4.625-3.269 7.718-3.096l2.5.14-2.476-1.042c-1.493-.629-2.046-1.32-1.392-1.741.597-.385.963-1.486.815-2.449-.149-.963.041-1.75.422-1.75s1.202-1.35 1.825-3c1.038-2.751.952-3.007-1.031-3.079-1.19-.043-1.6-.306-.913-.583 1.874-.757 1.507-2.122-.765-2.843-1.108-.351-1.756-1.057-1.441-1.567.96-1.553 3.285-1.037 3.702.822.28 1.248.86.675 2.022-2 .897-2.062 2.103-3.75 2.681-3.75.578 0 1.051-.916 1.051-2.035 0-1.704.316-1.867 1.939-.997 1.29.69 2.147.702 2.559.035.341-.552 1.606-1.017 2.811-1.035 1.205-.017 2.974-.626 3.932-1.353 1.642-1.247 1.627-1.424-.256-3.129-1.099-.994-2.291-1.514-2.649-1.155-.359.358-1.256.15-1.994-.462-1.029-.854-1.342-.735-1.342.509 0 .892-.436 1.622-.969 1.622-.532 0-.709-.675-.393-1.5.317-.825.058-1.5-.575-1.5s-1.078-.562-.988-1.25c.355-2.74-.13-4.75-1.146-4.75-1.385 0-3.929-2.544-3.929-3.929 0-1.19-1.31-1.427-2.318-.42M255 217.829c0 .456 2.25 1.883 5 3.171 4.97 2.328 6.413 4 3.45 4-.852 0-2.82-.657-4.373-1.46-1.553-.803-3.083-1.201-3.399-.884-.317.316-2.001.078-3.743-.529-3.383-1.179-9.342 1.133-8.616 3.344.498 1.518 4.835 1.898 5.699.5.549-.888 1.234-.919 2.613-.118 1.028.598 1.307 1.1.619 1.117-1.774.043-1.56 2.03.219 2.03.891 0 1.243.587.896 1.492-.328.855.119 1.757 1.049 2.113 1.919.737 1.701 3.41-.414 5.078-1.158.913-1.23 1.457-.314 2.385.922.936 1.548.84 2.821-.432 1.877-1.877 3.969-2.215 2.888-.466-.486.787-.178.961.941.531.915-.351 1.664-.202 1.664.33 0 .533.4.969.889.969s.826-.739.75-1.642c-.076-.904.424-1.841 1.112-2.084.837-.295 1.027.14.576 1.316-.52 1.355-.291 1.61.999 1.115 2.691-1.033 1.983 1.792-.826 3.295-1.375.736-2.5 1.712-2.5 2.169 0 .457-.863.831-1.917.831s-2.143.563-2.421 1.25c-.403 1-.52 1-.583 0-.043-.687-.515-1.25-1.048-1.25-.532 0-.727.629-.431 1.399.676 1.763-1.573 3.263-2.542 1.695-.395-.639-1.483-.868-2.417-.51-1.589.61-1.59.733-.023 1.879 1.517 1.109 1.447 1.289-.72 1.882-1.371.374-1.97.976-1.398 1.405 1.432 1.074 1.794 4.25.485 4.25-.607 0-.789.508-.405 1.13.427.69.158.937-.691.635-.764-.272-2.176-.09-3.139.405-1.119.576-1.75.527-1.75-.135 0-.569.482-1.035 1.072-1.035.589 0 .94-1.012.78-2.25-.159-1.238.06-2.812.488-3.5.53-.851.103-1.25-1.34-1.25-1.165 0-1.843.445-1.507.989.358.579-.134.747-1.191.405-1.414-.457-1.498-.367-.39.421 1.122.797.917 1.073-1 1.344-1.327.188-2.187.719-1.912 1.182.275.463-.768 1.505-2.317 2.317-2.241 1.174-2.581 1.76-1.664 2.865.634.764.827 1.917.428 2.563-.454.734-.205 1 .664.71.764-.254 1.389-.965 1.389-1.579 0-1.723 2.199-3.521 3.399-2.779 1.434.886.81 4.501-.973 5.629-.784.496-1.019.909-.521.918.498.008.123.879-.832 1.935-1.664 1.838-1.64 1.933.579 2.25l2.316.33-2.423 2.25c-3.001 2.787-1.084 3.027 4.583.573 2.13-.922 4.379-1.774 4.998-1.893.62-.119 2.082-.52 3.25-.891 1.565-.496 2.124-.25 2.124.937 0 .887-.562 1.522-1.25 1.413-.687-.11-2.375.292-3.75.892-2.201.962-1.342 1.787 1.355 1.302.471-.084 1.429.323 2.13.904.918.763 2.144.563 4.388-.714 3.727-2.122 4.072-4.273.686-4.273-3.246 0-4.114-1.633-1.587-2.985 1.115-.597 2.028-.829 2.028-.515 0 .314.9.089 2-.5 1.356-.726 2-.737 2-.035 0 .569-.477 1.035-1.059 1.035s-.8.419-.484.93c.636 1.03 4.464.855 6.315-.289.653-.403 2.008-.294 3.011.243 1.004.537 2.422.607 3.153.156.989-.612.739-1.008-.977-1.553l-2.305-.732 2.423-1.313c2.366-1.282 2.318-1.331-2.077-2.084-2.475-.425-4.837-.679-5.25-.565-1.162.321-.831-1.102.739-3.176 1.491-1.969 3.861-2.595 11.755-3.101 2.621-.168 4.496.096 4.19.592-.562.908 4.48 3.312 5.276 2.515.664-.664-2.968-4.581-3.782-4.079-.393.243-1.004-.712-1.358-2.122-.51-2.031-1.209-2.528-3.357-2.388-5.026.329-5.59.126-4.221-1.524.797-.96 2.175-1.287 3.872-.919 2.047.443 2.301.333 1.136-.495-.825-.586-1.147-1.072-.715-1.081.432-.008.304-.915-.285-2.015-1.096-2.047-4.437-2.719-5.442-1.094-.795 1.286-4.558.118-4.558-1.415 0-.919 1.82-1.237 6.494-1.134 3.572.079 6.497.481 6.5.893.012 1.507 2.812.7 3.47-1 .596-1.535.823-1.566 1.857-.25.649.825 2.251 1.618 3.562 1.762 2.161.237 2.336-.041 1.884-3-.576-3.762-.003-6.026 1.318-5.209.503.311.915-.002.915-.694 0-.905.305-.954 1.084-.175 1.23 1.23 4.916.579 4.916-.868 0-.523-.9-.665-2-.316-1.44.457-2 .18-2-.992 0-.974-.463-1.34-1.155-.913-.715.443-.883.275-.44-.44.392-.635.263-1.155-.287-1.155s-1.281.455-1.625 1.011c-.718 1.162-6.493.963-6.493-.224 0-.433-.477-.787-1.059-.787s-.781.45-.441 1c.378.611-1.156 1-3.941 1-2.507 0-4.559-.342-4.559-.759 0-.953 4.237-3.739 5.25-3.453 1.288.364.827-.789-1.173-2.936-1.764-1.893-4.78-1.799-3.599.112.281.455-.199 1.099-1.066 1.431-2.27.871-2.418.784-1.729-1.01.486-1.267.177-1.475-1.426-.966-1.551.492-2.011.227-1.902-1.094.105-1.254-.835-1.909-3.355-2.336-1.925-.326-5.032-1.357-6.904-2.291-3.775-1.884-5.096-2.109-5.096-.869m-95 66.049c0 1.141 2.534 3.231 4.217 3.478.724.106 2.937 1.194 4.918 2.418 3.701 2.288 5.865 2.82 5.865 1.444 0-.43 1.108-.874 2.463-.986 1.713-.141 2.305.21 1.943 1.153-.431 1.123 1.596 2.683 3.594 2.765.275.011 1.063.487 1.75 1.057.922.766 1.268.547 1.32-.835.065-1.736.129-1.727.875.128 1.016 2.526.266 3.92-1.376 2.557-1.524-1.265-2.629-.377-1.898 1.527.429 1.12-.633 1.298-5.494.92l-6.027-.469.893 3.117c.492 1.713 1.696 3.694 2.676 4.401 5.824 4.2 5.842 4.226 4.531 6.373-3.004 4.919-1.685 6.785 5.375 7.602 2.681.31 9.311 1.443 14.733 2.518 14.927 2.959 13.708 3.78 13.063-8.796-.604-11.773-.947-13.661-2.329-12.807-.506.313-1.149.004-1.428-.687-.278-.691-.542-.247-.585.986-.043 1.234-1.43 3.447-3.082 4.918-2.887 2.573-2.935 2.751-1.25 4.613.964 1.065 1.528 2.077 1.253 2.249-.275.171-.162.649.25 1.061.412.413.75 0 .75-.916 0-2.115 1.593-2.171 2.393-.085.902 2.351.841 2.418-2.193 2.418-1.54 0-3.238.438-3.774.974-.631.631-1.94.472-3.724-.454-2.968-1.539-2.9-1.52-5.369-1.52-.916 0-1.382-.284-1.035-.631.347-.348.182-1.473-.368-2.5-.775-1.448-.654-1.869.535-1.869.844 0 1.535-.675 1.535-1.5 0-2.087 1.776-1.886 2.206.25.335 1.661.388 1.661 1.039.008.506-1.285-.091-2.144-2.279-3.276-1.631-.843-2.966-2.002-2.966-2.575 0-.586-.873-.765-1.994-.409-1.528.485-1.854.269-1.395-.927.329-.858.97-1.33 1.425-1.049.454.281 1.121.034 1.481-.549.805-1.303-1.404-4.161-2.63-3.403-.488.301-.887-.139-.887-.98 0-1.038.561-1.317 1.75-.871 1.486.556 1.557.418.474-.915-1.56-1.922 1.235-3.498 3.245-1.83.668.555 1.583.675 2.033.267.45-.407.452-.109.004.664-.548.944-.437 1.17.339.69.635-.392 1.155-.206 1.155.413 0 .672.808.87 2 .492 1.282-.407 2-.18 2 .633 0 .922.3.967 1.101.166.647-.647 2.194-.808 3.75-.39 2.942.79 6.149.36 6.149-.824 0-1.02-5.614-2.602-16-4.507a3803.135 3803.135 0 0 1-21.654-4.069c-14.681-2.8-15.346-2.871-15.346-1.631m178.5 2.223c-48.289 9.075-47.14 8.682-32.25 11.032 9.086 1.434 9.26 1.423 9.811-.587.551-2.008.584-2.004 1.785.204.936 1.721.944 2.25.034 2.25-.811 0-.72.557.286 1.75 1.014 1.203 1.4 3.626 1.235 7.75a663.96 663.96 0 0 0-.32 9.75c-.104 4.812.358 4.818-25.709-.323-20.499-4.043-22.591-4.152-28.872-1.511-1.65.693-8.625 3.12-15.5 5.391a2761.032 2761.032 0 0 0-24.397 8.211c-13.508 4.633-8.737 4.706-43.018-.658-8.754-1.369-17.754-2.513-20-2.541-2.247-.028-4.322-.424-4.611-.881-.478-.756-26.075 8.829-27.569 10.323-.861.862-.53 18.712.376 20.241.531.897 4.501-.037 15.176-3.572l14.458-4.786 12.542 1.441c6.899.793 17.79 2.336 24.204 3.429 17.784 3.029 16.398 3.636 16.018-7.012-.211-5.932.044-9.002.75-9.002.717 0 1.021 4.549.921 13.75-.082 7.563-.334 12.549-.558 11.08-.425-2.769-2.323-3.336-17.292-5.166-9.182-1.123-27.749-3.745-29.809-4.21-2.167-.49-2.29-.259-2 3.762.305 4.227.363 4.288 4.309 4.558 2.2.151 8.725.963 14.5 1.804 5.775.84 12.525 1.711 15 1.935 2.475.223 7.341.844 10.814 1.38 4.911.757 7.216.655 10.376-.46 2.234-.788 4.923-1.433 5.976-1.433 1.052 0 3.583-.824 5.624-1.832 2.04-1.007 6.41-2.417 9.71-3.133 3.3-.715 8.25-1.914 11-2.663l5-1.362-4.545.448c-2.5.246-5.321.745-6.269 1.109-1.459.56-1.589.299-.848-1.703.481-1.3.677-2.927.435-3.615-.291-.826.182-1.049 1.393-.657 1.656.536 1.639.415-.166-1.249-1.816-1.674-1.954-2.761-1.5-11.843.462-9.237.568-9.657 1.398-5.5.493 2.475 1.126 3.825 1.406 3 .28-.825 1.339-2.228 2.353-3.117 1.013-.89 1.843-2.829 1.843-4.309 0-1.54.428-2.428 1-2.074.55.34 1 2.114 1 3.942 0 2.734.435 3.408 2.45 3.793 1.485.284 2.652-.057 2.962-.866.282-.735 1.202-1.071 2.044-.747.843.323 1.315.939 1.049 1.369-.266.431.176 1.329.981 1.997 1.201.997 1.675.754 2.635-1.355.644-1.414 1.55-2.336 2.014-2.05.463.287.544-.256.18-1.205-.513-1.337-.274-1.576 1.063-1.063 1.154.443 1.492.283 1.019-.481-.435-.704-.263-.869.448-.429 1.835 1.133 1.338-.545-.595-2.013-1.134-.861-1.296-1.34-.46-1.36.788-.02.373-1.022-1.064-2.572-2.402-2.59-5.726-2.567-5.726.04 0 .707-.706 1.557-1.569 1.888-1.015.389-1.353 1.281-.959 2.523.335 1.056.141 2.21-.431 2.564-.672.415-1.041-1.258-1.041-4.716V319.4l3.25-.055c4.417-.075 6.024-.579 7.477-2.345 1.015-1.232 1.392-1.262 2.116-.165.484.735 1.168 1.297 1.519 1.25 3.837-.513 5.327.74 6.16 5.179.602 3.211.469 3.67-.908 3.141-1.087-.417-1.614-.075-1.614 1.047 0 .984.463 1.38 1.13.968.687-.425.944-.154.657.691-.268.788-1.453 1.246-2.739 1.058-2.77-.405-1.868 1.558 1.304 2.838 2.146.865 2.146.866-.127.93-2.383.066-4.818 4.295-3.604 6.259.349.565.015 1.42-.743 1.9-.998.633-1.033.878-.128.889 1.933.023 1.491 1.652-1.25 4.61-1.767 1.906-2.5 2.242-2.5 1.145 0-1.289-.41-1.359-2.415-.412-1.328.626-2.197 1.491-1.931 1.922a.924.924 0 0 0 1.268.298c.431-.266 1.599.112 2.596.841 1.261.923 2.892 1.082 5.363.525 1.953-.44 4.016-.418 4.585.051 1.147.945 15.466 3.63 25.533 4.789 5.286.609 6.793.454 8.074-.827.957-.957 5.077-2.041 10.501-2.764 4.909-.653 12.911-1.725 17.782-2.382l8.855-1.193 14.145 4.74c7.779 2.607 14.658 4.725 15.287 4.706 1.651-.049 1.875-1.468 1.865-11.858l-.008-9.324-8.5-3.48c-4.675-1.914-9.85-4.096-11.5-4.849-4.872-2.223-8.5-2.891-8.5-1.564 0 .696-.768.932-1.879.579-1.034-.328-7.754.317-14.934 1.433-17.323 2.693-16.187 2.861-16.187-2.399v-4.428l5.5-.687c6.225-.778 6.871-2.038 4.847-9.457-.24-.882 1.032-2.471 3.087-3.855 1.923-1.295 3.458-2.645 3.413-3-.046-.355.003-.87.109-1.145 1.314-3.41.893-5.007-1.21-4.584-7.356 1.481-8.746 1.504-8.746.142 0-.765-.436-1.541-.968-1.725-1.919-.66.783-3.083 3.438-3.083 2.146 0 2.598-.384 2.208-1.875-.565-2.159-.27-2.262 2.388-.84 1.445.774 1.938.71 1.949-.25.01-.789.299-.899.75-.285 1.036 1.409 3.235 1.709 3.235.441 0-.582.368-.832.818-.554.45.278 1.42-.329 2.155-1.35.736-1.02 1.846-1.66 2.467-1.422.622.239 2.127-.495 3.345-1.629 2.169-2.021 2.953-4.095 1.465-3.875-.413.061-5.25.957-10.75 1.99m-197.75 3.56c-2.54 1.338-3.231 2.484-2.832 4.699.086.473.353 7.673.595 16s.45 15.268.463 15.425c.013.157.924-.196 2.024-.785 1.356-.726 2-.737 2-.035 0 1.787 1.992 1.134 4.652-1.526 3.251-3.251 2.627-3.871-1.966-1.952-1.992.832-3.801 1.513-4.021 1.513-.219 0-.473-5.618-.565-12.485-.172-12.912 1.251-18.362 4.472-17.126 1.678.644 4.82-4.028 3.33-4.95-.592-.365-1.577-.164-2.189.448-1.384 1.384-3.051 1.469-2.213.113.817-1.322-.389-1.11-3.75.661M362 289c1.282.828 1.246.972-.25.985-.962.008-1.75.6-1.75 1.315 0 1.847 2.091 3.7 4.177 3.7 4.381 0 5.985 12.384 3.855 29.763-.017.145-1.676-.423-3.686-1.263-4.744-1.982-5.647-.963-1.846 2.085 3.086 2.474 5.093 3.184 4 1.415-.34-.55-.141-1 .441-1s1.059.675 1.059 1.5c0 1.813 1.899 2.005 2.468.25.222-.687.62-8.792.883-18.011.446-15.634.352-16.828-1.396-17.763-1.031-.552-2.23-.944-2.664-.871-2.62.437-4.174-.246-3.653-1.605.386-1.004-.038-1.495-1.281-1.485-1.565.013-1.621.168-.357.985m-144.623 7.366c.111.751.947 2.439 1.859 3.75l1.659 2.384.053-2.25c.042-1.816.624-2.25 3.017-2.25 3.424 0 5.035 2.254 5.035 7.041 0 2.164.398 2.999 1.25 2.625.688-.301 3.941-1.673 7.23-3.047 3.289-1.375 6.16-3.039 6.38-3.699.246-.737-.079-.903-.842-.431-.683.422-1.529.347-1.88-.166-.735-1.075-17.925-5.323-21.54-5.323-1.478 0-2.343.532-2.221 1.366m-89.002 16.254c.774 19.883.727 19.38 1.792 19.38.963 0 1.018-.373 1.315-8.782.161-4.556.686-6.621 1.912-7.517 1.568-1.147 1.543-1.391-.353-3.426-2.243-2.408-2.6-5.363-1.006-8.341.644-1.202.669-1.934.067-1.934-.533 0-1.112-1.203-1.286-2.673-.174-1.47-.942-2.879-1.707-3.13-1.169-.385-1.286 2.243-.734 16.423M264 299.585c-8.307 3.171-21.846 8.009-29.338 10.485-8.368 2.765-9.043 3.29-9.106 7.078-.038 2.288-.532 3.352-1.556 3.352-.997 0-1.462-.922-1.387-2.75.08-1.943-.375-2.75-1.55-2.75-2.448 0-4.063 2.034-4.063 5.117 0 1.494-.562 2.917-1.25 3.163-.687.245-.935.785-.55 1.199.991 1.068 20.112-5.229 35.993-11.853 4.782-1.994 9.457-3.626 10.391-3.626.933 0 3.659-.98 6.056-2.177 4.007-2.001 4.36-2.487 4.36-6 0-4.47.333-4.418-8-1.238m115.209 1.165c-.124 1.512-.65 2.892-1.168 3.067-.586.197-.582 1.261.012 2.824.525 1.379.715 4.611.423 7.183a551.07 551.07 0 0 0-.622 5.676c-.051.55.263 1.861.697 2.914.556 1.35.444 1.701-.381 1.191-1.439-.889-1.551.614-.15 2.015.694.694.206 1.456-1.523 2.381-2.627 1.407-2.861 3.044-.545 3.816.791.264 1.044-.014.628-.687-.384-.622-.274-1.13.244-1.13.519 0 1.227 1.012 1.575 2.25.589 2.092.708 2.123 1.698.444 1.604-2.72 2.122-34.694.561-34.694-.672 0-1.324 1.238-1.449 2.75m-163.526 77.9c-.375.376-.622 6.121-.547 12.767.075 6.646.331 11.071.57 9.835.252-1.31 1.343-2.434 2.613-2.692 1.2-.244 7.581-1.592 14.181-2.995 19.447-4.135 22.468-4.589 24.292-3.651.939.483 6.208 1.878 11.708 3.1 5.5 1.223 13.262 3.023 17.25 4.002l7.25 1.78.014-3.148c.007-1.731.285-4.16.616-5.398.444-1.654.175-2.25-1.013-2.25-1.145 0-1.617.914-1.617 3.131 0 3.637-1.407 3.639-13.796.023-3.687-1.076-9.179-2.484-12.204-3.129-3.025-.644-6.713-1.633-8.195-2.197-2.81-1.069-9.611.103-25.805 4.445-4.125 1.107-8.85 2.325-10.5 2.708l-3 .696.36-7.929c.332-7.314-.497-10.778-2.177-9.098m32.817 22.044c-3.3.751-6.778 1.493-7.73 1.649-.951.156-2.038.592-2.416.97-.378.378-1.974.687-3.547.687-1.573 0-6.561.961-11.083 2.136-8.827 2.293-6.284 2.299-45.724-.108-12.425-.759-15.859-.624-24 .942-5.225 1.005-11.91 2.082-14.856 2.394-6.604.699-8.144 1.903-8.144 6.367 0 3.277.16 3.446 2.666 2.817 18.54-4.654 29.472-5.661 47.731-4.397 33.099 2.291 36.658 2.031 54.83-3.999l15.727-5.219 6.273 1.598c6.636 1.691 20.909 6.079 24.273 7.463 6.765 2.783 11.44 3.474 19.5 2.881 31.191-2.294 46.072-2.161 58.5.523 16.065 3.47 17.308 3.439 17.114-.422-.189-3.747-3.178-5.489-10.716-6.245-2.969-.297-8.773-1.29-12.898-2.205-8.507-1.887-10.528-2.005-21-1.227-19.256 1.431-39.764 1.779-44.5.753-2.75-.595-7.812-1.592-11.25-2.215-3.437-.623-6.25-1.458-6.25-1.856 0-.398-2.326-1.032-5.168-1.409s-6.555-1.261-8.25-1.965c-2.525-1.048-4.167-1.033-9.082.087m80.746 203.473c-.264 1.008-1.102 1.833-1.863 1.833-2.382 0-1.513 1.882 1.617 3.5 1.65.853 3 1.754 3 2.001 0 .247-1.35.179-3-.151-2.349-.47-3-.247-3 1.025 0 .894-.45 1.625-1 1.625s-1 .45-1 1 .702 1 1.559 1 1.281-.45.941-1c-.34-.55.095-1 .966-1 .945 0 1.816 1.16 2.159 2.875.611 3.053 5.375 4.383 5.375 1.5 0-1.565 1.59-1.847 2.462-.436.319.516-.217 1.402-1.191 1.969-1.558.907-1.573 1.035-.128 1.062.904.016 1.913.734 2.243 1.593.889 2.316 2.506.799 1.933-1.814-.396-1.807-.282-1.954.579-.749.761 1.065 1.076 1.128 1.087.219.008-.705-.693-1.554-1.559-1.886-1.106-.424-1.391-1.337-.957-3.064.347-1.384.08-3.108-.612-3.941-.732-.882-.851-1.753-.293-2.154 1.662-1.197 1.502-3.213-.305-3.854-.967-.343-2.434-1.171-3.259-1.839-2.197-1.78-5.203-1.422-5.754.686m-48.246.201c0 .678.563 1.81 1.25 2.516 1.004 1.03.954 1.225-.25.99-.825-.162-2.549.286-3.832.995-1.999 1.105-2.511 1.044-3.589-.43-1.152-1.575-1.31-1.582-1.886-.081-.416 1.084.205 2.184 1.839 3.255 2.811 1.841 3.315 5.848.855 6.792-1.283.492-1.367.914-.414 2.063.66.794.909 1.914.554 2.488-.355.574-.168 1.044.414 1.044s1.059.466 1.059 1.035c0 .688-.605.711-1.804.07-3.092-1.655-4.689.342-1.791 2.241 3.226 2.114 3.9 2.08 6.059-.306.976-1.078 2.229-1.866 2.784-1.75 1.065.222 1.786-3.958 1.031-5.977-.245-.653-1.195-.918-2.112-.591-.917.328-1.329.224-.915-.232.414-.455.007-1.652-.905-2.659-2.246-2.482-.913-2.309 2.681.348 1.621 1.198 3.253 1.873 3.626 1.5.374-.373.122-.679-.559-.679-.839 0-.729-.509.343-1.581.869-.869 1.325-1.994 1.012-2.5-.312-.505-.106-.919.46-.919 1.357 0 .131-3.163-1.848-4.765-1.33-1.078-1.179-1.179 1.021-.684 1.926.434 2.584.184 2.584-.984 0-.862-.488-1.598-1.084-1.636-.595-.038-2.321-.232-3.833-.432-1.708-.225-2.75.104-2.75.869m-2.811 39.671c-1.204 1.121-2.189 1.52-2.189.886 0-.711-1.147-.984-3-.712-1.65.242-3 .069-3-.386s-.483-.827-1.073-.827c-2.552 0-.26 3.505 2.354 3.601 5.67.208 3.517 3.684-3.091 4.99-2.296.454-3.144 1.088-2.767 2.069 1.009 2.628-6.974 3.946-9.647 1.594-2.016-1.773-6.776.524-6.776 3.269 0 .812-.45 1.477-1 1.477s-1-.639-1-1.419c0-1.143-.69-1.229-3.534-.444-1.944.537-4.328.724-5.297.417-1.386-.44-1.752.005-1.716 2.083.067 3.796 8.253 6.007 12.966 3.501 1.694-.901 4.431-1.638 6.081-1.638 1.65 0 3.237-.314 3.526-.697.29-.384 1.083-.354 1.763.066.815.504-.303 1.533-3.289 3.024-2.488 1.242-4.267 2.675-3.953 3.183.859 1.39 3.231 1.115 5.992-.694 1.358-.89 4.277-1.593 6.486-1.562 2.56.035 3.781-.325 3.367-.994-.356-.577-.043-1.423.696-1.88.986-.61.554-1.132-1.622-1.959-2.615-.994-2.758-1.244-1.208-2.111.967-.542 2.204-.708 2.75-.371.546.337.992.136.992-.446 0-.582.675-1.059 1.5-1.059s1.387-.511 1.25-1.137c-.562-2.553 8.844-3.344 16.418-1.379 2.087.541 2.904.251 3.752-1.334.899-1.681.786-2.014-.668-1.957-.964.038-3.262-.6-5.107-1.416l-3.356-1.485 3.106-.621c4.65-.93 3.74-2.671-1.395-2.671-3.333 0-4.5-.389-4.5-1.5 0-2.053-1.214-1.881-3.811.539m62.202 4.138c-.356.576-.027 1.489.731 2.029 1.087.775 1.025.87-.289.451-.917-.292-1.88.022-2.139.698-.573 1.492 1.583 4.645 3.176 4.645.647 0-.167 2.469-1.86 5.641-3.75 7.027-3.735 7.254.687 10.609 4.555 3.456 6.175 3.529 5.548.25-.265-1.387-.009-2.5.575-2.5.579 0 1.194 1.417 1.367 3.149.316 3.175 3.061 5.936 4.486 4.511.423-.423.107-1.194-.702-1.714-1.619-1.041.143-2.898 2.779-2.931 1.872-.023 1.508-1.373-.75-2.783-1.1-.687-2-.837-2-.335 0 .503-1.123.395-2.495-.241-2.255-1.045-2.335-1.274-.83-2.39 1.483-1.1 1.501-1.426.171-3-3.042-3.597.873-7.442 5.941-5.834 1.152.366 2.44-.001 3.194-.909 1.021-1.23 1.015-1.523-.03-1.523-.711 0-2.144-.77-3.183-1.71-1.485-1.344-2.06-1.435-2.684-.426-.628 1.016-1.121.956-2.367-.29-.866-.866-1.991-1.574-2.5-1.574-.509 0-2.107-1.096-3.552-2.435-1.615-1.496-2.877-2.031-3.274-1.388" fill="#d3d3d3" fill-rule="evenodd"/></svg>