<svg xmlns="http://www.w3.org/2000/svg" width="500" height="736"><path d="M463.644 4.689c-.103.103-9.853.416-21.666.693-11.813.278-23.278.767-25.478 1.088-2.2.32-10.975.78-19.5 1.022a3682.6 3682.6 0 0 0-29 .954c-7.425.282-20.475.753-29 1.047-8.525.294-21.125.751-28 1.017-34.49 1.332-62.305 2.017-95.417 2.35-7.654.077-13.629.428-13.277.779.351.352 16.514.538 35.916.415 53.661-.34 68.124-.64 69.927-1.45.907-.407 1.918-.304 2.248.229.346.56 4.506.805 9.851.58 10.993-.462 83.091-1.605 88.752-1.406 6.239.219 67.188-1.151 69.75-1.569 3.331-.542 4.577-3.5 2.116-5.021-.97-.599-16.687-1.264-17.222-.728M19 14.119c-3.025.465-6.512.62-7.75.344L9 13.962l.223 18.269.222 18.269.304-15.977c.167-8.787.726-16.398 1.243-16.915.539-.539 17.373-1.09 39.606-1.296 21.267-.197 38.989-.557 39.381-.799.393-.243 3.137-.058 6.099.41 2.962.468 6.293.52 7.403.115 1.111-.404 6.209-.571 11.329-.371 5.121.201 9.969-.004 10.774-.454 1.446-.809-17.733-1.146-63.584-1.117-27.694.017-33.98-.071-36-.502-.825-.177-3.975.06-7 .525m249.915 142.707c-.778.239-2.203 1.121-3.165 1.959-.962.839-1.757 1.118-1.765.62-.009-.498-.452-.23-.985.595-.584.904-.975 1.026-.985.307-.008-.656-.803-1.035-1.765-.843-5.391 1.074-8.059 2.079-10.75 4.05-5.915 4.332-15.201 8.154-22 9.054-1.1.146-2.225.353-2.5.459-.275.107-1.412.126-2.527.041-2.724-.205-9.69 2.772-9.02 3.856.293.474-.63 1.154-2.051 1.511-1.722.433-2.397 1.135-2.024 2.107.84 2.19-.144 1.779-3.682-1.537-3.75-3.515-4.382-3.598-7.696-1.005-3.6 2.816-4.083 2.507-3.527-2.25.4-3.427.2-3.088-1.033 1.75-3.121 12.247-3.542 13.5-4.539 13.5-.561 0-.698.52-.306 1.155.417.674.277.884-.336.505-1.25-.772-2.144 6.42-1.136 9.143 1.082 2.925-.192 11.197-1.724 11.197-2.066 0-3.047 5.599-2.26 12.896 1.128 10.461.82 41.38-.55 55.195-.28 2.827-8.625 30.762-11.325 37.909-.975 2.582-1.344 4.383-1.659 8.102-.167 1.982-.508 4.007-.757 4.5-.73 1.449-.249 21.94.545 23.225.399.645.28 1.173-.264 1.173-.583 0-.701 1.13-.287 2.75 1.4 5.484.526 26.04-1.221 28.705-2.076 3.169-2.054 4.671.03 2.045 1.684-2.123 1.662-1.582-.25 6-.451 1.789-.366 1.83.81.383 1.934-2.378 3.984.171 3.293 4.094-.361 2.051-.126 3.023.732 3.023.699 0 1.342 1.34 1.438 3 .095 1.65.264 4.149.375 5.552.117 1.486-.731 3.545-2.029 4.926-1.226 1.306-1.929 2.86-1.561 3.455.367.595-.036 1.351-.896 1.681-1.749.671-2.153 3.386-.504 3.386.582 0 .795.428.471.951-.323.523-.648 2.567-.722 4.542-.074 1.975-.477 3.802-.894 4.06-1.423.88.137 10.914 2.124 13.657 1.079 1.49 1.962 3.65 1.962 4.799 0 1.15.768 3.53 1.706 5.291.938 1.76 1.613 3.537 1.5 3.95-.113.413.244.75.794.75s1 .645 1 1.433.9 1.718 2 2.067c1.1.349 2 1.504 2 2.567 0 1.383.695 1.933 2.441 1.933 1.343 0 2.719.45 3.059 1 .34.55 1.476 1 2.524 1s2.406.935 3.018 2.078c.611 1.142 1.642 1.874 2.29 1.625.648-.249 1.756.166 2.463.922 1.252 1.34 1.19 1.491-.712 1.75-1.448.197-2.546 1.625-1.25 1.625.642 0 .251.916-.869 2.036-1.121 1.121-2.443 1.786-2.94 1.479-.497-.307-.834.351-.751 1.463.084 1.112.619 2.054 1.19 2.092.57.039.257.38-.695.757-1.547.613-1.583.976-.338 3.376.767 1.479 1.097 2.864.733 3.079-.365.215-.123.262.536.105.731-.174.958.345.58 1.328-.418 1.09-.231 1.374.576.875.657-.406 1.074-.368.928.086-.147.453.517 1.937 1.475 3.297.958 1.359 1.744 2.034 1.746 1.5.003-.84 4.167 5.154 4.535 6.527.073.275.476 1.4.893 2.5.921 2.423 1.293 3.732 1.375 4.826.034.454.983 1.625 2.109 2.601 1.126.977 1.78 2.043 1.454 2.37-1.019 1.019 6.851 9.832 8.288 9.281.738-.284 1.342-.101 1.342.405 0 .507 1.994 2.293 4.43 3.969 4.416 3.038 6.978 4.056 4.848 1.926-1.515-1.515-.483-3.894 1.38-3.179 2.198.843 1.331-2.658-1.408-5.689-2.023-2.239-2.715-4.066-2.368-6.26.065-.413-.359-.75-.941-.75s-.781-.45-.441-1 .093-1-.549-1c-.762 0-.946-.956-.529-2.75.505-2.176.404-2.437-.486-1.25-.942 1.256-1.026 1.196-.517-.367.379-1.163-.528-3.715-2.405-6.765-1.658-2.694-3.014-5.58-3.014-6.414 0-.834-.638-1.762-1.418-2.061-1.339-.514-1.378-1.894-.225-7.893.507-2.639-.382-4.068-1.467-2.357-.685 1.081-.862 1.091-.875.048-.008-.72-.465-1.031-1.015-.691-.55.34-1 .141-1-.441s.477-1.059 1.059-1.059.781-.45.441-1-.156-1 .41-1c.565 0 .89-.562.723-1.25-.168-.687-.118-.916.112-.508.229.408 1.346.245 2.482-.363 1.83-.98 2.002-.864 1.513 1.008-.304 1.162-.103 2.113.447 2.113s1.238-.909 1.529-2.021c.415-1.588.824-1.776 1.906-.878 1.111.922 1.378.635 1.378-1.487 0-2.363.2-2.506 1.96-1.407 1.414.883 1.623 1.438.75 1.993-.935.594-.926.773.04.785 1.79.022 1.545 4.525-.33 6.082-.913.757-1.396 2.276-1.145 3.592.24 1.254.039 2.035-.447 1.735-.486-.301-.646.802-.355 2.45.48 2.725.233 3.062-2.723 3.711-2.813.619-2.981.816-1.25 1.466 1.1.413 3.229 1.898 4.731 3.3 1.82 1.699 2.964 2.173 3.427 1.423.383-.619.166-1.303-.481-1.518-1.713-.571-1.478-5.226.264-5.226 2.48 0 2.794-1.977.452-2.844-1.497-.554-1.843-1.069-1.048-1.56.653-.404.886-1.223.517-1.82-.42-.678-.201-.795.583-.31.985.608 1.01.319.12-1.345-1.02-1.905-.874-2.121 1.432-2.121 2.85 0 5.177 3.895 3.127 5.235-.813.531-.817.739-.013.75.645.009.911 1.066.634 2.515-.296 1.549-1.154 2.5-2.255 2.5-.977 0-2.06.739-2.407 1.643-.956 2.491.167 2.893 2.411.863 1.553-1.406 2.029-1.499 2.107-.411 1.056 14.612 2.871 21.101 5.825 20.823 2.926-.276 4.074.077 4.074 1.253 0 .644.615 1.882 1.366 2.75 2.783 3.218 2.861 6.805.162 7.483-1.352.339-3.565 1.724-4.919 3.078-1.614 1.614-2.609 2.041-2.89 1.24-.236-.672-.438.015-.449 1.528-.011 1.513.393 2.75.899 2.75.505 0 .846.563.756 1.25-.332 2.56.127 3.328 2.075 3.475 1.1.083 2.037-.159 2.083-.537.512-4.225.455-5.188-.309-5.188-.491 0-.614-.45-.274-1 .34-.55 1.518-1 2.618-1 1.257 0 1.735.429 1.287 1.155-.404.653-.278.885.29.534 1.141-.706 2.851 2.38 3.775 6.811.344 1.65.877 3.844 1.185 4.875.363 1.217.17 1.635-.548 1.191-1.933-1.195-1.192.917.972 2.77 2.142 1.834 5.351 1.935 5.185.164-.052-.55.411-1.608 1.027-2.351.882-1.063 1.582-.118 3.276 4.423 2.349 6.295 2.192 9.052-.567 9.928-2.229.707-3.023 3.586-2.269 8.228.417 2.57.254 3.381-.575 2.868-.652-.403-1.143-.144-1.127.595.055 2.482 3.79 15.079 4.653 15.694 2.163 1.54 4.25 5.972 3.042 6.461-.673.273-.099.563 1.276.645 2.306.138 2.345.216.5 1.009-1.908.82-1.897.863.25.93 1.967.061 2.673.991 2.415 3.181-.13 1.098 4.741 2.85 5.32 1.913.307-.496 1.56-.699 2.786-.452 7.687 1.548 7.605 1.564 11.235-2.285 1.939-2.055 4.065-4.955 4.724-6.444 1.027-2.32 1.632-2.625 4.234-2.132 1.764.335 2.687.202 2.203-.317-.459-.492-1.246-.894-1.75-.894-.505 0-.929-.422-.944-.937-.028-.923 1.59-1.436 5.527-1.755 1.1-.089 2.576-.598 3.279-1.132.895-.678 2.025-.269 3.763 1.363l2.483 2.333 2.702-2.018c1.784-1.331 3.278-3.956 4.396-7.723.932-3.138 2.129-6.251 2.66-6.918 1.725-2.166 2.063-8.105.525-9.23-1.533-1.121-.741-4.868.824-3.901.911.563.297-5.079-.734-6.748-.284-.459.073-.841.793-.849 1.038-.012 1.027-.194-.054-.879-.961-.609-1.019-.979-.197-1.253.641-.213 1.339-2.516 1.551-5.116.212-2.6.665-5.18 1.006-5.732.342-.553.032-1.019-.688-1.035-.828-.02-.681-.397.399-1.027.943-.549 1.455-1.657 1.143-2.469-.311-.811-.111-1.474.444-1.474s1.482-1.357 2.061-3.016c.776-2.228 1.867-3.179 4.176-3.64 2.054-.411 3.44-1.456 4.046-3.05 1.186-3.119 1.206-5.29.032-3.437-.6.946-1.067 1.021-1.544.25-.376-.609-.425-1.526-.109-2.038.317-.512.138-1.201-.396-1.531-.534-.331-.849-2.152-.7-4.047.149-1.896.016-3.608-.295-3.805-.311-.197-.003-.221.684-.053 1.464.357 1.616-1.507.292-3.599-1.037-1.64.598-4.374 2.071-3.464.488.301.887.071.887-.511s-.408-1.059-.906-1.059c-.499 0-.645-1.001-.325-2.224.32-1.224.765-1.674.99-1 .224.673.847 1.224 1.383 1.224.537 0 .698-.45.358-1-.34-.55-.029-1.007.691-1.015.965-.012.923-.26-.163-.947-3.07-1.941 2.067-2.286 12.832-.861l10.771 1.425 2.703-27.551c1.487-15.153 2.695-28.751 2.685-30.218-.011-1.466.544-2.893 1.231-3.171.954-.385.96-.523.028-.583-1.299-.084-1.261-1.804.796-35.579.569-9.35 1.236-20.6 1.482-25 .907-16.239 2.491-42.407 3.419-56.5 4.678-70.974 6.909-107.144 6.989-113.301.038-2.983-.88-3.559-12.464-7.819l-5-1.839-11.318 11.729-11.318 11.73.606-6c.333-3.3 1.517-8.925 2.632-12.5 2.017-6.464 2.492-12.226 1.404-17-.314-1.375-1.001-4.672-1.527-7.327-.526-2.655-1.185-5.198-1.465-5.65-.817-1.322-7.759-.948-10.707.577-3.949 2.042-4.706 1.753-4.278-1.632.244-1.926.004-2.798-.657-2.389-.637.394-.909-.271-.702-1.718.368-2.578.329-2.653-4.236-8.108-1.725-2.06-3.588-3.467-4.142-3.125-.638.395-.738-.224-.273-1.689.645-2.03.21-1.863-3.573 1.375-2.368 2.027-4.648 3.686-5.067 3.686-1.807 0-1.93-2.29-.227-4.213 1.824-2.059 1.814-2.078-.682-1.473-3.435.833-6.796-.171-7.176-2.144-.327-1.702-8.792-2.531-8.793-.861-.001.445-.423.548-.94.229-.516-.319-1.372.196-1.903 1.144-.733 1.309-1.288 1.456-2.311.61-2.11-1.743-13.765-3.441-16.932-2.466m56.62 79.424c-1.018 2.338-2.464 4.615-3.214 5.061-.75.447-1.029 1.347-.62 2 1.186 1.898 1.221 3.759.057 3.039-.63-.389-.775-.186-.353.495.427.691.063 1.155-.905 1.155s-1.332.464-.905 1.155c.443.715.275.883-.44.44-1.111-.686-1.632 1.152-1.207 4.253.101.741-.497 2.102-1.331 3.023-.949 1.048-1.199 2.188-.667 3.047.636 1.03 1.284.525 2.594-2.022.96-1.868 4.83-7.755 8.601-13.082 7.695-10.873 7.844-11.236 4.355-10.569-1.676.32-2.5.029-2.5-.884 0-2.666-1.643-1.296-3.465 2.889M311.5 261c-1.1.473-1.55.898-1 .945.667.057.667.331 0 .82-1.579 1.161-3.5 5.032-3.5 7.055 0 2.683-.711 3.035-4.439 2.194-2.668-.602-3.672-.365-4.996 1.181-1.742 2.035-5.243 2.032-4.815-.004.137-.655-.186-1.191-.719-1.191-.532 0-.709-.675-.393-1.5.317-.825.372-1.5.122-1.5-1.02 0-4.76 3.815-4.76 4.856 0 1.658-3.24 5.144-4.781 5.144-.735 0-1.077.421-.759.935.318.515-.555 2.069-1.941 3.455-1.385 1.385-2.519 3.016-2.519 3.624 0 .607-.45.826-1 .486-.55-.34-1 .219-1 1.241s-.54 2.399-1.2 3.059c-.933.933-.928 1.2.023 1.2 1.251 0-.967 4.393-3.282 6.5-1.661 1.512-4.521 9.5-3.402 9.5.539 0 .636.555.217 1.232-.419.678-.823 2.07-.898 3.092-.076 1.023-.772 2.262-1.548 2.753-1.191.754-1.177.897.09.923 1.256.026 1.273.175.104.914-.822.521-1.123 1.593-.732 2.612.364.95.208 2.275-.348 2.945-.555.669-1.125 3.424-1.267 6.123-.141 2.698-.813 5.494-1.493 6.213-.981 1.038-.981 1.584 0 2.649 1.013 1.1 1.35.864 1.868-1.307.347-1.457.685-2.06.75-1.34.065.72.521 1.06 1.013.756.493-.305 1.161.138 1.485.984.464 1.209 1.021 1.307 2.605.459 1.397-.748 2.015-.755 2.015-.024 0 .64 1.038.794 2.645.39 2.46-.617 2.598-.479 1.981 1.981-.393 1.564-.248 2.645.355 2.645.56 0 1.035-.562 1.054-1.25.02-.687.606-.223 1.302 1.031.697 1.255 1.653 1.93 2.125 1.5.472-.429.535-.218.139.469-.647 1.125.486 1.71 2.649 1.368.413-.065.757.67.765 1.632.013 1.496.157 1.532.985.25.862-1.333.973-1.333 1 0 .025 1.229.187 1.254.894.137.475-.75 1.031-.922 1.235-.382.582 1.54 4.871 2.588 4.871 1.19 0-.912.34-.908 1.454.017 1.678 1.393 8.806 5.123 9.121 4.773.116-.129-.679-6.31-1.766-13.735-3.772-25.742-.232-49.444 10.565-70.752 2.539-5.01 3.42-9.322 1.876-9.178-.413.039-1.65.457-2.75.93m-101.976 28.204c-1.076 2.214-2.535 4.247-3.241 4.517-.735.283-1.283 2.129-1.283 4.327 0 2.109-.43 4.1-.956 4.425-.526.325-.675 1.325-.33 2.223.384 1.001.222 1.382-.419.986-.609-.376-1.106.391-1.191 1.836-.281 4.778-.444 5.482-1.271 5.482-.458 0-.833.675-.833 1.5s-.562 1.507-1.25 1.515c-.868.011-.811.293.186.924 1.13.715 1.181 1.216.237 2.353-1.708 2.057-1.232 10.814.713 13.128 1.506 1.791 1.489 1.873-.257 1.235-1.515-.555-1.77-.302-1.343 1.33.29 1.108.119 2.015-.38 2.015-.498 0-.906.477-.906 1.059s.375.827.833.544c.459-.283.834.14.834.941 0 .801-.386 1.456-.857 1.456s-.201 1.012.6 2.25c.913 1.41 1.35 4.134 1.172 7.298-.243 4.31-.014 5.069 1.566 5.188 1.019.077 1.852-.507 1.852-1.298s-.536-1.438-1.191-1.438-.357-.61.662-1.355c1.115-.815 1.607-1.999 1.235-2.968-.34-.887-.217-1.861.274-2.165.491-.303.881-1.33.867-2.282-.066-4.417 1.227-10.658 2.352-11.353.923-.57.8-.94-.477-1.43-.947-.364-1.722-1.089-1.722-1.613s.375-.72.833-.437c.459.283.838-.028.843-.691.054-7.117 1.752-19.632 2.987-22.021.857-1.658 1.722-4.853 1.92-7.1.199-2.247.635-6.174.969-8.727.785-6.011-.553-6.741-3.028-1.654M10.92 340.083c-.15 36.452.344 82.394 1.069 99.417.398 9.35.517-13.375.264-50.5s-.639-67.687-.857-67.917c-.218-.229-.432 8.321-.476 19" fill="#d3d3d3" fill-rule="evenodd"/></svg>