<svg xmlns="http://www.w3.org/2000/svg" width="500" height="345"><path d="M0 172.502v172.502l250.25-.252 250.25-.252.253-172.25L501.006 0H0v172.502m.489.498c0 94.875.117 133.688.261 86.25.144-47.437.144-125.062 0-172.5C.606 39.313.489 78.125.489 173M299.747 21.586c-.322.323-4.785.8-9.917 1.06-5.131.261-14.12 1.351-19.974 2.424-7.152 1.31-17.322 2.132-31 2.506-19.176.524-42.206 2.335-56.856 4.471-3.575.521-10.325 1.189-15 1.486-8.956.567-14.828 1.929-16.509 3.827C147.872 40.32 140 44.905 140 43.471c0-1.238-.336-1.278-2-.239-2.867 1.791-2.475 3.765.75 3.783 1.512.009 2.3.346 1.75.75-.55.404-1.113 1.298-1.25 1.985-.137.688-.363 1.773-.5 2.411-.137.639.875 1.494 2.25 1.901 2.443.722 2.432.742-.5.902l-3 .163 2.5 1.034 2.5 1.035-2.25.87c-2.655 1.026-3.023 3.927-.5 3.949 1.496.013 1.532.157.25.985-1.333.862-1.333.974 0 1.015 1.063.032.917.376-.5 1.18-2.885 1.636-3.495 2.946-2.361 5.065 1.345 2.513 6.549 1.406 9.192-1.954 2.165-2.752 15.973-9.589 18.407-9.114C166.306 59.497 176 71.341 176 72.951c0 .461-1.462.509-3.25.105-1.787-.403-3.689-.772-4.225-.819-1.712-.153-1.758-2.237-.049-2.237 3.037 0 .552-1.82-3.398-2.487-6.821-1.152-13.089.343-14.937 3.565-1.414 2.463-2.396 2.897-7.878 3.484-5.27.565-6.263.975-6.263 2.586 0 1.053-.655 2.166-1.456 2.473-1.264.486-1.249 1.075.113 4.48 1.096 2.74 1.259 4.296.539 5.163-1.395 1.681.999 5.141 2.511 3.629 1.8-1.8 15.011-2.463 13.53-.679-.671.808-.962 1.728-.647 2.042 1.022 1.023-1.612 4.743-3.375 4.767-1.037.014-.486.629 1.396 1.557 2.867 1.415 3.082 1.87 2.752 5.828-.257 3.087.138 4.826 1.406 6.192 2.076 2.238 7.802 5.4 9.777 5.4.761 0 1.847.866 2.413 1.924 1.368 2.556 6.406 5.011 8.21 4.001 2.347-1.313 3.548.352 3.074 4.261-.403 3.323-.664 3.604-2.646 2.851-4.118-1.566-7.349-.174-8.031 3.46-.547 2.92-.961 3.276-3.591 3.094-2.645-.183-5.857-2.799-5.943-4.841-.018-.412-.53-.75-1.138-.75-.608 0-2.442-1.125-4.076-2.5-1.634-1.375-3.612-2.5-4.395-2.5-.783 0-1.423-.675-1.423-1.5 0-2.168-2.647-1.842-4.309.53-1.537 2.195-1.37 7.571.455 14.656.914 3.548 1.679 4.427 5.017 5.763 2.167.867 3.665 2.02 3.329 2.563-1.292 2.092.67 2.826 2.544.952 2.976-2.976 5.329-2.403 10.411 2.536 2.546 2.475 5.092 4.5 5.658 4.5.565 0 3.905 2.812 7.421 6.25 6.929 6.775 6.981 6.818 13.625 11.267 4.495 3.01 5.87 6.635 1.663 4.383-6.433-3.442-13.3 3.705-8.333 8.672 1.336 1.336 2.869 2.428 3.408 2.428 2.432 0 6.111-2.092 6.111-3.475 0-1.782-1.353-1.942-4.081-.482-2.199 1.177-3.607-.809-2.541-3.586.468-1.22 1.018-1.315 2.628-.454 1.119.599 2.588.748 3.263.33 2.859-1.766 5.225-.871 5.731 2.167.545 3.268 4.271 4.567 7.66 2.67 1.1-.615 2.494-.601 3.899.039 3.169 1.444 6.431-.567 6.48-3.994.039-2.712.041-2.712 1.452.535.914 2.104 2.114 3.25 3.402 3.25 2.617 0 3.59-1.713 2.035-3.586-.933-1.125-.958-1.784-.099-2.643.858-.858.759-1.569-.399-2.849-1.904-2.103-5.141-1.409-5.996 1.287-.46 1.45-.932 1.693-1.733.892-1.22-1.22-4.987-1.482-6.049-.42-1.558 1.559-10.468.844-11.575-.929-.885-1.418-.759-1.758.665-1.784 1.88-.034 3.965-1.453 6.044-4.113 1.083-1.387.809-2.455-1.75-6.794-1.67-2.832-3.036-5.407-3.036-5.723 0-.316-1.366-2.208-3.035-4.206-5.342-6.394-5.214-6.132-3.004-6.132 1.121 0 2.039.42 2.039.933 0 .513.933 1.228 2.072 1.59 1.16.368 1.851 1.235 1.569 1.97-.277.721-.242 1.572.077 1.891.754.754 5.279-4.503 5.281-6.134.002-1.826 3.68-1.53 4.402.354.352.915 1.256 1.358 2.107 1.031.821-.315 1.492-.136 1.492.396 0 .533.579.969 1.286.969.707 0 1.371.9 1.476 2 .105 1.1.276 2.675.381 3.5.119.937 1.258 1.5 3.033 1.5 1.581 0 3.584.865 4.512 1.948 1.556 1.818 1.754 1.835 2.958.25.71-.934 1.305-2.473 1.322-3.421.042-2.246-4.077-10.97-5.827-12.343-.747-.586-1.197-1.905-.999-2.931.321-1.668 1.623-1.907 12.358-2.268 6.6-.222 12.15-.816 12.333-1.319.184-.504 1.309-.909 2.5-.901 1.565.011 1.797.25.836.859-1.653 1.048 3.14 2.126 9.456 2.126 6.245 0 5.436 1.715-.875 1.854-6.271.139-10.39 1.66-11.02 4.071-.748 2.858 2.696 4.367 4.76 2.086 2.976-3.288 6.266-.936 6.735 4.814.113 1.381 14.061 1.223 15.459-.176.357-.357-.127-.649-1.076-.649-.988 0-1.439-.465-1.054-1.087.369-.598 1.521-.865 2.559-.594 1.038.272 1.887.086 1.887-.413 0-.498-1.913-.913-4.25-.921-3.093-.011-3.842-.277-2.75-.975.825-.528 3.075-.907 5-.843 4.708.158 11.857-1.126 12.554-2.254.31-.502-.153-.913-1.03-.913-1.284 0-1.386-.389-.524-2 .821-1.535 2.051-1.984 5.285-1.932 3.526.056 3.88.23 2.166 1.063-2.865 1.392-5.001 4.869-2.991 4.869.902 0 1.253.584.902 1.5-.317.825-.262 1.5.121 1.5 1.151 0 4.541-4.315 5.636-7.174.789-2.062 1.924-2.826 4.957-3.339 2.163-.365 3.679-1.074 3.369-1.576-.31-.501-.086-.911.496-.911 1.474 0 1.329 6.265-.191 8.248-1.101 1.437-7.405 6.446-16.989 13.502-1.882 1.385-4.491 2.25-6.786 2.25-2.096 0-4.276.657-4.975 1.5-.685.825-1.81 1.5-2.5 1.5s-1.815.675-2.5 1.5-2.116 1.5-3.181 1.5c-1.066 0-1.659.449-1.32.998 1.015 1.643-4.709 5.829-8.999 6.581-2.2.385-6.617.772-9.816.859-3.855.105-6.127.649-6.735 1.611-.631.996-.923 1.059-.934.201-.022-1.851-3.699-1.517-4.436.403-.578 1.507-.751 1.494-1.955-.152-1.721-2.354-3.624-1.116-3.624 2.358 0 3.5 1.664 5.141 5.214 5.141 1.547 0 3.671.535 4.719 1.19 1.474.921 5.375.914 17.236-.029 8.432-.671 21.631-1.693 29.331-2.271 11.475-.861 14.372-1.397 16.064-2.971 1.136-1.055 2.769-1.919 3.628-1.919.86 0 2.27-1.012 3.134-2.25 1.098-1.575 1.585-1.797 1.622-.741.052 1.515 3.456 4.254 4.271 3.438.655-.654.032-9.232-.763-10.518-.439-.711-.008-.989 1.176-.761 1.493.289 1.868 1.262 1.868 4.847 0 5.857 2.16 5.969 4.405.228 2.16-5.524 5.625-9.113 7.24-7.498.891.891 2.735-.426 7.761-5.539 8.111-8.249 15.806-14.619 20.242-16.756 7.3-3.516 10.628-16.534 7.397-28.937-.8-3.072-1.203-6.24-.896-7.041.31-.807-.147-1.726-1.027-2.064-1.115-.428-1.327-1.097-.714-2.258.48-.907.809-4.125.732-7.15-.144-5.666-.721-6.221-4.745-4.56-1.946.804-3.192-6.995-2.234-13.986l.593-4.327-4.377-.313c-4.05-.291-4.526-.629-6.377-4.528-1.1-2.317-2.562-4.23-3.25-4.25-1.756-.051-1.57-2.036.191-2.036.793 0 1.749-.498 2.125-1.107.477-.772-.285-.894-2.523-.403-3.197.703-8.707-2.607-7.525-4.519.721-1.167-4.474-2.82-11.018-3.506-3.3-.346-6.788-.847-7.75-1.114-3.051-.847-1.899 2.037 1.762 4.408 5.432 3.519 4.521 4.597-3.262 3.864a722.86 722.86 0 0 0-14.541-1.177l-7.791-.54 2.791 5.109c7.392 13.533 6.936 12.845 13.505 20.375 5.668 6.497 6.786 7.941 6.786 8.763 0 1.292-5.768 1.009-8.014-.394-1.59-.992-2.401-.981-4.064.058-1.595.996-2.407 1.026-3.488.129-.823-.684-2.141-.844-3.171-.385-3.251 1.446-6.263 1.388-6.263-.121 0-1.34 1.769-1.903 4.757-1.513.692.09 2.042-.277 3-.815 1.437-.808.929-1.198-2.898-2.224l-4.64-1.244 2.14-1.886c2.141-1.885 2.141-1.885-1.573-1.283-3.9.632-11.449-2.303-13.073-5.083-1.81-3.099-19.199-22.149-22.982-25.178-3.959-3.17-4.373-3.274-11.668-2.919l-7.563.367-.264 4.419c-.385 6.462-1.105 8.919-2.611 8.919-1.417 0-2.943-13.066-1.963-16.814.507-1.94 7.297-3.16 17.695-3.179 3.279-.006 3.749-.269 3.139-1.757-1.834-4.47-1.42-4.736 7.864-5.041 6.05-.198 10.174.188 13 1.219 5.554 2.024 13.227 2.501 12.883.801-.204-1.008 3.177-1.136 16.337-.62l16.593.651-.336-2.38c-.301-2.127-.868-2.391-5.337-2.485-9.443-.198-9.5-.215-9.5-2.824 0-1.335.653-3.081 1.451-3.879.797-.798 1.746-2.63 2.108-4.071.575-2.292.351-2.621-1.784-2.621-1.343 0-2.706.264-3.028.586m10.6 74.951c-.324.846.079 2.308.896 3.25.818.942 1.752 3.447 2.075 5.566l.59 3.852-3.204-.548c-1.762-.302-5.904-.182-9.204.266-3.375.458-4.687.888-3 .981 2.624.146 9.276 2.968 7.215 3.061-2.321.104 1.74 3.965 4.536 4.312l3.249.403-3.5.175c-2.489.125-3.091.434-2.085 1.071.778.493 3.885.641 6.905.329 4.016-.415 5.299-.256 4.776.589-.393.636-2.15 1.19-3.905 1.232-1.755.042-4.758.642-6.674 1.334l-3.484 1.257 6.837.639c7.402.691 13.298-1.124 12.278-3.78-.711-1.854 2.193-4.127 6.256-4.895 3.741-.706 12.096-6.986 12.096-9.091 0-1.864-2.793-2.721-5.007-1.536-5.148 2.755-14.09.296-12.642-3.476.674-1.756-2.135-3.528-5.594-3.528-1.306 0-3.248-.661-4.316-1.468-2.527-1.911-4.359-1.909-5.094.005m-92.499 20.713c-.282 4.157-.374 4.473-1.799 6.191-1.152 1.388-1.175 1.863-.122 2.514 1.054.651 1.042.905-.064 1.345-1.882.748 7.108.815 9.876.073 1.231-.33 1.95-1.067 1.597-1.638s.139-1.609 1.092-2.306c1.627-1.19 1.606-1.395-.347-3.348-1.145-1.145-2.926-2.081-3.959-2.081-1.032 0-2.437-.675-3.122-1.5-1.776-2.14-2.976-1.855-3.152.75m-62.278 35.637c-.301.487.122 1.442.941 2.122 2.565 2.129 1.653 3.141-2.261 2.511-11.045-1.779-12.25-1.736-12.25.43 0 1.507.647 2.05 2.441 2.05 1.343 0 2.719.45 3.059 1 .34.55.141 1-.441 1-2.009 0-1.05 2.562 1.941 5.187 1.884 1.653 3 3.596 3 5.223 0 3.217-.314 3.215-4.567-.029-2.752-2.099-3.433-2.297-3.433-1 0 .891.42 1.619.933 1.619.513 0 1.213.885 1.557 1.968.753 2.373 7.38 6.996 17.446 12.171 8.564 4.404 10.106 4.401 3.884-.007-6.331-4.484-9.716-8.363-10.435-11.955-.72-3.604-.001-3.875 4.897-1.841 7.311 3.036 8.718 2.996 8.718-.246 0-1.976-1.116-4.131-3.387-6.539-1.863-1.975-3.961-5.045-4.662-6.821-2.136-5.413-6.033-9.025-7.381-6.843M493 171.659c-13.956 1.354-14.129 1.402-15.845 4.42-1.823 3.206-2.621 3.441-16.655 4.907-4.95.517-19.575 2.28-32.5 3.916-12.925 1.637-25.741 3.242-28.481 3.568-5.924.704-7.483 1.874-5.74 4.308.678.947 1.536 2.397 1.904 3.222 1.294 2.894 2.808 2.995 3.323.222.666-3.577 4.678-4.439 5.167-1.11.414 2.822 2.827 3.755 2.827 1.094 0-2.471 2.497-4.613 4.487-3.849 2.248.862 1.831 2.459-.737 2.823-1.853.264-2.237.927-2.178 3.761.08 3.8 2.083 5.399 2.601 2.077.471-3.022 2.274-2.976 2.628.068.629 5.415-5.45 6.353-7.504 1.157l-1.084-2.743-.107 2.715c-.19 4.867-6.106 5.913-6.106 1.079 0-2.143-.234-2.345-1.5-1.294-.825.685-1.5 1.876-1.5 2.647 0 .771-1.154 1.841-2.565 2.378-3.456 1.314-3.435 1.324-3.435-1.544 0-2.188.329-2.437 2.5-1.892 2.371.595 2.5.409 2.5-3.588 0-3.623-.246-4.113-1.75-3.492-.962.398-4.1.648-6.972.557-8.686-.277-10.093 1.399-8.581 10.218l.477 2.784 7.663-.618c4.215-.339 14.188-1.274 22.163-2.077 7.975-.803 24.175-2.335 36-3.404 27.97-2.528 32.263-3.109 29.022-3.925-2.259-.569-2.44-1.015-2.061-5.084.229-2.453.396-5.705.37-7.227-.052-3.151-.147-3.116 12.786-4.71 4.74-.584 9.307-.798 10.149-.475 1.568.602 2.918 7.22 1.634 8.014-1.41.871.372 4.438 2.217 4.438 2.76 0 2.888-17.591.133-18.311-1.667-.435-1.667-.463 0-.573 1.169-.077 1.75-.946 1.75-2.616 0-1.775-.507-2.454-1.75-2.34-.962.088-3.325.313-5.25.499m-30.662 14.111c-1.349.858-1.323 13.377.03 14.362.477.348 2.052.305 3.5-.094 2.486-.685 2.621-1.043 2.43-6.471-.258-7.33-2.364-10.085-5.96-7.797m-21.088 1.953c-2.734.34-3.25.818-3.25 3.015v2.611l-2.314-2.175c-3.142-2.951-3.686-2.756-3.686 1.326 0 1.925-.36 3.5-.8 3.5-1.413 0-3.2-2.345-3.2-4.2 0-.99-.675-1.8-1.5-1.8s-1.5.802-1.5 1.782-.604 4.109-1.341 6.954l-1.342 5.171 5.749-.337c6.386-.375 8.941-1.33 6.913-2.583-.68-.42-.913-1.286-.518-1.924.544-.88 1.055-.88 2.117.002.77.639 1.183 1.513.917 1.944-.732 1.184 1.775 1.841 5.068 1.327 6.936-1.081 6.943-1.086 6.806-4.542-.249-6.296-2.277-11.224-4.369-10.619-.275.08-1.962.327-3.75.548M35 194c0 2.533-.389 3-2.5 3-2.287 0-3.085 1.296-2.618 4.25.065.412-.359.75-.941.75s-.781.45-.441 1 .029 1.007-.691 1.015c-1.038.012-1.027.194.054.879 1.151.729 1.151.948 0 1.406-.95.378-.833.566.387.621.962.043 1.75.463 1.75.932 0 .47 1.662.807 3.694.75l3.695-.103.055-5.749c.031-3.162-.281-5.749-.694-5.75-1.275-.002-.825-4.804.5-5.339.747-.301.545-.536-.5-.583-1.295-.058-1.75.7-1.75 2.921m326.675 4.658c-.361.362-3.629.562-7.261.444l-6.604-.214.323 5.806c.178 3.193-.056 6.41-.52 7.148-.69 1.096.414 1.224 6.021.7 10.947-1.023 14.366-1.653 14.366-2.649 0-.512-1.125-.649-2.5-.304-2.188.55-2.5.302-2.5-1.981 0-2.642-1.346-3.475-2.527-1.564-.355.574-.101 1.699.563 2.5.974 1.173.894 1.456-.414 1.456-1.226 0-1.622-.977-1.622-4 0-3.333.333-4 2-4 1.333 0 2-.667 2-2 0-2.126-.268-2.398-1.325-1.342m-37.979 2.063c-5.375.809-6.034 6.197-.946 7.734 2.008.607 2.26.323 2.34-2.638l.09-3.317.939 3.25c.516 1.787 1.375 3.25 1.91 3.25.534 0 .971.675.971 1.5s.477 1.5 1.059 1.5.781.45.441 1c-.369.596.843 1 3 1 2.3 0 3.379-.387 2.961-1.063-.361-.585.142-1.945 1.117-3.024 1.361-1.503 1.5-2.235.598-3.137-.647-.647-1.176-2.436-1.176-3.976 0-2.73-.131-2.796-5.25-2.65-2.887.082-6.512.339-8.054.571M163.5 211.079c-13.983 1.734-15.537 2.052-14.918 3.053.341.553 1.25.763 2.019.468 2.34-.898 1.56.855-.851 1.913-3.213 1.409-2.778 2.936.938 3.296 1.972.191 3.358.954 3.634 2 .317 1.201.48 1.04.562-.559.102-1.973.655-2.25 4.491-2.25 2.406 0 5.781-.281 7.5-.625 2.019-.404 3.125-.227 3.125.5 0 .619-.605 1.125-1.345 1.125s-2.15.889-3.134 1.976c-.983 1.087-2.178 1.736-2.655 1.441-.476-.294-.866.392-.866 1.524 0 1.132.563 2.091 1.25 2.129.688.039.35.457-.75.93-1.399.601-.048.876 4.5.914 3.575.031 7.175-.424 8-1.01 1.114-.792.408-.913-2.75-.473-4.475.624-6.214-1.415-2.5-2.931 1.612-.658 1.595-.772-.214-1.445-1.788-.666-1.731-.789.631-1.382 1.427-.358 2.823-1.528 3.103-2.599.389-1.486 1.543-2.022 4.87-2.261 4.109-.295 4.36-.486 4.357-3.313-.003-2.983-.036-3.001-6-3.144-3.298-.079-9.147.246-12.997.723m-89.922 4.297c-4.357.618-8.056 1.574-8.219 2.124-.164.55-.736 4.6-1.272 9-1.271 10.423-.856 10.891 8.472 9.543 3.817-.552 8.795-1.012 11.06-1.023 3.965-.019 4.142-.158 4.715-3.692.387-2.386.043-4.84-.985-7.004-1.507-3.176-1.482-4.622.145-8.574.856-2.081-1.449-2.143-13.916-.374m181.464.738c-5.202.462-12.558 1.269-16.347 1.794-3.789.525-7.521.712-8.294.416-1.89-.726-6.401.469-6.401 1.695 0 .54.845.981 1.878.981 1.032 0 2.437.675 3.122 1.5 1.04 1.253.896 1.5-.878 1.5-2.391 0-2.936 2.751-.714 3.603 3.38 1.297 5.246 11.61 2.65 14.642-1.896 2.214-8.058 2.418-8.058.267 0-.966 1.421-1.716 4.047-2.136l4.047-.647-2.047-2.179c-2.319-2.468-2.603-4.594-.847-6.35.933-.933.822-1.2-.5-1.2-.935 0-1.7.45-1.7 1s-.45 1-1 1c-1.453 0-1.229-4.748.25-5.297.928-.344.825-.91-.402-2.2-1.565-1.644-1.717-1.617-2.854.508-.722 1.349-.827 2.492-.263 2.866 1.294.86 1.003 8.184-.422 10.623-1.12 1.917-1.213 1.883-2.239-.815-.588-1.548-1.07-3.424-1.07-4.169 0-.745-.648-2.628-1.439-4.185-.791-1.557-1.971-4.294-2.621-6.081-1.879-5.163-4.488-4.309-4.581 1.5-.041 2.613.117 3.738.352 2.5.516-2.713 2.289-3.011 2.289-.385 0 1.026.833 2.938 1.851 4.25 1.018 1.312 1.65 2.963 1.405 3.669-.245.706-.016 1.831.509 2.5 2.129 2.715 2.31 7.716.28 7.716-1.215 0-2.022-.816-2.225-2.25-.378-2.662-4.148-3.279-6.382-1.045-1.251 1.25-1.438 1.157-1.438-.717 0-1.282-.506-1.984-1.25-1.734-.687.232-1.812-.293-2.5-1.166-1.135-1.442-1.375-1.427-2.61.162-.748.963-1.873 1.75-2.5 1.75-1.997 0-1.227-2.938 1.36-5.187 3.026-2.631 3.122-3.836.489-6.091-2.5-2.14-3.989-2.201-3.989-.163 0 .857-.45 1.281-1 .941-1.326-.82-1.272 1.123.103 3.693.83 1.551.796 2.251-.137 2.828-.712.44-1.028 1.876-.742 3.373.355 1.855.074 2.606-.976 2.606-1.07 0-1.354-.824-1.035-3 .301-2.047.019-3-.886-3-.73 0-1.327-.54-1.327-1.2 0-.773-.344-.856-.967-.233-1.157 1.157-.219 5.433 1.191 5.433.544 0 .721.7.393 1.556-.808 2.106 3.687 6.461 6.588 6.381 2.284-.063 2.285-.068.147-.93-1.181-.477-2.389-1.257-2.684-1.735-.711-1.15 1.028-3.909 1.909-3.028.377.377 1.593.2 2.702-.394 1.849-.989 1.969-.839 1.439 1.812l-.578 2.89 5.18-.184c2.849-.101 9.93-.205 15.735-.231 14.027-.064 16.863-3.047 14.721-15.481-.734-4.26-.673-6.076.243-7.179 1.976-2.381 2.981-1.719 2.981 1.964 0 1.893.45 3.719 1 4.059.899.556 1.433-.757 1.118-2.75-.295-1.873 2.487-.389 4.807 2.563 1.319 1.679 1.209 1.77-1.5 1.229-2.641-.527-2.716-.474-.777.544 1.649.866 2.114 1.972 2 4.759-.231 5.662-3.06 5.418-4.223-.364-.809-4.023-3.351-6.393-2.66-2.481.746 4.229.722 7.626-.062 8.706-1.751 2.413.414 3.559 5.568 2.948 6.204-.734 6.195-.724 4.611-5.104-1.03-2.849-1.051-4.263-.1-6.783.794-2.105.865-3.52.21-4.175-1.449-1.449-1.212-7.164.35-8.461 1.833-1.521 2.658-.423 2.658 3.536 0 3.273 2.067 4.651 3.5 2.333.67-1.085 7.668-1.33 11.168-.391 1.193.32 2.722 1.919 3.399 3.554 1.746 4.215 2.882 1.739 2.206-4.809-.339-3.278-.116-5.838.58-6.677 2.382-2.87.744-3.032-15.811-1.563M101 218c0 2.245-3.489 2.848-4.341.75-.365-.901-.737-.939-1.333-.135-.454.614-1.792 1.417-2.972 1.785-2.734.852-3.064 13.1-.354 13.1.825 0 1.444-.746 1.377-1.658-.075-1.002.814-1.837 2.25-2.111 1.305-.249 2.373-.066 2.373.408 0 .473-.702.861-1.559.861s-1.342.351-1.077.781c.266.429 2.205.766 4.309.75 3.694-.03 3.838-.161 4.137-3.781.419-5.061 3.899-5.459 4.377-.5.482 5.005 2.145 3.833 3.928-2.77 1.884-6.978 1.738-7.48-2.174-7.48-1.618 0-2.941-.45-2.941-1s-1.35-1-3-1c-2.333 0-3 .444-3 2m19.389.43c-.332.863-.344 2.245-.027 3.07.395 1.029-.061 1.5-1.452 1.5-1.159 0-1.751.449-1.38 1.048.356.576 1.62.914 2.809.75 1.828-.252 2.194.241 2.374 3.202l.212 3.5-1.256-2.734-1.256-2.735-1.71 2.894c-2.959 5.009.462 8.533 3.74 3.852.856-1.222 1.557-1.672 1.557-1 0 .673.75 1.223 1.667 1.223.916 0 1.37-.296 1.008-.658-.362-.362-.128-1.296.519-2.076.839-1.01.864-1.612.087-2.092-.599-.371-1.252-2.924-1.45-5.674-.308-4.285-.68-5.046-2.6-5.32-1.339-.192-2.482.311-2.842 1.25m160.571.428c1.269.886 1.246 1.258-.173 2.831-1.428 1.583-1.455 2.056-.211 3.752 1.658 2.26 1.889 5.559.39 5.559-.569 0-.858 1.238-.641 2.75.317 2.222.852 2.698 2.784 2.481 3.719-.419 4.703-2.63 4.23-9.507-.482-7.003-.674-7.329-4.839-8.234-2.19-.476-2.606-.376-1.54.368M436 221.53c-6.325.697-12.707 1.313-14.183 1.369-2.966.112-4.384 2.739-3.308 6.129.923 2.907 6.188 4.822 10.491 3.816 1.925-.45 5.975-.589 9-.31 3.025.28 8.65.16 12.5-.265l7-.773-.277-3.498c-.688-8.669-.838-8.714-21.223-6.468m-186.607 9.052c.334.87.607 2.021.607 2.559 0 .537.45.699 1 .359 1.3-.803 1.281 1.106-.035 3.566-1.035 1.933-.415 2.405 2.671 2.035.625-.075 1.399.547 1.719 1.381.399 1.04-.037 1.518-1.386 1.518-1.083 0-1.983-.562-1.999-1.25-.017-.687-.508-.429-1.092.575-1.41 2.424-1.074 2.587 3.622 1.758 2.802-.495 3.877-1.137 3.59-2.145-.226-.791-.602-3.013-.837-4.938l-.427-3.5 4.921 5.421c5.875 6.47 7.968 6.452 7.702-.068-.24-5.874-.294-6.067-1.497-5.323-.576.356-.974 1.395-.885 2.309.424 4.321-.01 5.453-1.59 4.142-.845-.702-1.27-2.056-.956-3.047.416-1.311-.042-1.87-1.727-2.109-1.465-.208-2.244-.959-2.155-2.075.139-1.749-5.541-2.743-5.713-1-.479 4.828-1.926 8.098-1.926 4.351 0-2.775-1.713-6.101-3.142-6.101-.59 0-.799.712-.465 1.582m26.203 17.808c.417 1.086-1.29 1.552-7.781 2.126-10.731.949-14.451 2.334-6.502 2.421l5.814.063-.314 3.25c-.305 3.167-.435 3.25-5.065 3.25-5.648 0-6.23 1.131-1.08 2.097 4.798.901 25.949-.321 28.415-1.641 1.398-.748 1.917-2.107 1.917-5.016 0-4.384-2.112-5.94-8.065-5.94-1.614 0-2.935-.45-2.935-1s-1.111-1-2.469-1c-1.696 0-2.301.435-1.935 1.39" fill="#d3d3d3" fill-rule="evenodd"/></svg>