<svg xmlns="http://www.w3.org/2000/svg" width="500" height="750"><path d="M24 334.5V627l61.25.045c33.688.024 90.725.028 126.75.008 36.025-.019 109.487-.039 163.25-.044L473 627V42H24v292.5M289.842 55.69c-.682.822-3.393 1.31-7.273 1.31-3.892 0-6.907.545-8.128 1.468-1.067.808-3.426 1.483-5.241 1.5-3.268.032-8.704 2.238-9.36 3.8-.187.446-3.265 1.645-6.84 2.664-3.575 1.02-8.75 2.513-11.5 3.318-2.75.805-7.25 1.822-10 2.26-2.75.438-6.238 1.279-7.75 1.869-2.275.886-2.75.805-2.75-.471 0-1.148-.576-1.357-2.25-.818-1.238.398-2.7.649-3.25.558-.55-.092-6.427-.366-13.061-.61-6.633-.244-13.3-.915-14.815-1.491-4.13-1.57-4.629-1.324-3.974 1.953.47 2.349.247 3-1.025 3-.894 0-1.625.436-1.625.969 0 .532-.711.695-1.581.362-.981-.377-1.387-1.347-1.069-2.56.34-1.303-.621-3.169-2.893-5.612-1.871-2.012-3.415-3.096-3.43-2.409-.035 1.599-5.24 1.637-6.827.05-.66-.66-1.2-2.235-1.2-3.5 0-1.633-.58-2.3-2-2.3-1.1 0-2 .48-2 1.067s-.838.802-1.862.477c-1.024-.325-4.008.329-6.631 1.453-3.392 1.454-5.789 1.853-8.298 1.382-2.552-.478-3.831-.252-4.619.816-1.798 2.438-5.219 3.805-9.524 3.805-4.154 0-4.907 1.376-4.171 7.617.348 2.955-2.499 3.204-4.395.384-1.065-1.585-2.653-3.069-3.529-3.298-2.323-.608-7.193 3.617-6.799 5.897.232 1.343-.259 1.9-1.672 1.9-1.5 0-1.922-.562-1.687-2.25.226-1.625-.191-2.246-1.5-2.235-3.108.027-4.473 1.498-3.817 4.114.531 2.116.076 2.675-3.442 4.227C94.997 87.705 94 88.714 94 90.461c0 1.521-2.063 4.313-6 8.121-4.561 4.412-6 6.484-6 8.642 0 1.561-.633 3.082-1.408 3.379-2.045.785-5.301 9.029-6.086 15.414-.593 4.822-.415 5.755 1.408 7.405 1.147 1.038 2.086 2.853 2.086 4.032 0 1.842.471 2.089 3.338 1.755 4.87-.569 7.608 2.261 4.758 4.916-1.107 1.031-2.467 1.875-3.023 1.875s-.723.749-.372 1.664c.467 1.216.278 1.441-.701.836-1.022-.632-1.152-.374-.547 1.086.436 1.053 1.243 3.264 1.793 4.914 2.343 7.033 4.4 10.298 9.604 15.25 3.035 2.888 6.05 5.25 6.699 5.25.65 0 2.327.901 3.727 2.003 1.617 1.271 3.218 1.751 4.385 1.312 1.487-.557 1.627-.414.733.748-2.088 2.715-2.308 5.83-.451 6.419 3.403 1.08 5.015 6.473 3.229 10.803-1.381 3.348-1.111 5.214 1.356 9.344 1.693 2.834 2.135 3.036 4.688 2.146 1.551-.541 3.936-.703 5.301-.36 2.926.734 7.483 7.452 7.483 11.03 0 1.367 1.35 4.023 3 5.902 2.917 3.323 4.367 10.653 2.107 10.653-1.291 0-2.241 2.978-1.384 4.34 1.049 1.668 1.316 7.66.342 7.66-.453 0-1.375 1.334-2.05 2.965-1.184 2.856-1.007 3.214 4.807 9.75 5.901 6.633 12.178 11.448 12.178 9.342 0-1.747 4.569-1.191 6.345.772 2.26 2.497 2.084 3.66-.845 5.579-1.375.901-2.5 2.303-2.5 3.115 0 1.821-.072 1.823 4.538-.103 2.618-1.094 6.156-1.491 11.488-1.289 8.963.34 12.373-1.126 11.352-4.881-.373-1.375-1.385-2.25-2.602-2.25-1.339 0-1.806-.48-1.427-1.468.809-2.108-1.047-2.894-2.156-.913-.511.914-1.397 1.373-1.967 1.02-1.221-.754-.425-4.639.95-4.639.518 0 .69.408.382.907-.309.498.366.664 1.5.368 1.531-.401 2.209.03 2.64 1.677.43 1.647.79 1.876 1.399.891.653-1.056 1.073-1.073 2.061-.085.683.683 2.052 1.242 3.042 1.242.99 0 1.836.563 1.879 1.25.043.688.531.013 1.083-1.498.808-2.215 1.452-2.636 3.312-2.169 1.269.318 2.607.094 2.974-.498.461-.747 1.502-.645 3.39.331 1.93.999 3.245 1.117 4.515.406 1.334-.746 2.282-.557 3.719.743 1.312 1.187 1.928 1.339 1.928.473 0-.791.777-1.068 2.058-.733 1.531.4 1.977.115 1.741-1.112-.175-.908 1.036-2.885 2.691-4.393 2.465-2.245 2.678-2.747 1.177-2.771-1.026-.016-1.641-.58-1.397-1.279.552-1.578 3.689-1.054 5.986 1.001.966.863 2.052 1.275 2.413.914 1.175-1.176-1.583-5.682-4.054-6.621-1.519-.578-3.362-2.93-4.986-6.363-1.417-2.996-3.292-5.721-4.165-6.057-1.265-.485-1.455-1.499-.935-4.97.939-6.261-2.404-13.479-6.634-14.325-2.893-.579-2.996-.773-2.369-4.483.554-3.277.303-4.164-1.613-5.715l-2.269-1.837 1.982-3.394c1.09-1.866 2.858-3.545 3.928-3.731 1.07-.186 2.487-1.031 3.148-1.879.849-1.088 2.025-1.337 4-.846 1.539.383 6.244.837 10.456 1.01 4.212.173 8.119.599 8.684.948 2.462 1.522 9.37-2.657 11.255-6.808 2.547-5.608 2.384-7.444-1.155-13.025-1.682-2.652-2.801-5.495-2.485-6.316.424-1.106.05-1.357-1.442-.967-1.284.336-2.015.038-2.015-.821 0-1.933 1.981-2.884 3.287-1.578 1.944 1.944 2.953 1.205 2.238-1.637-.381-1.512-.799-6.826-.931-11.807-.131-4.982-.654-9.707-1.162-10.5-1.26-1.968-3.294-11.656-3.346-15.943-.036-2.962.728-4.191 4.979-8 6.441-5.771 9.35-13.751 6.276-17.216-1.409-1.59-1.531-2.184-.52-2.537.837-.292.324-.978-1.401-1.873-2.838-1.472-4.492-.759-8.149 3.514-.955 1.117-1.734 1.193-3.5.342-2.246-1.083-2.248-1.095-.128-1.162 1.179-.038 2.404-.749 2.723-1.58.444-1.157.054-1.381-1.658-.951-2.453.616-11.318-7.741-10.174-9.591 1.133-1.834 3.295-1.007 2.756 1.054-.56 2.14 1.13 2.653 3.596 1.092 1.12-.71.962-1.235-.821-2.735-7.423-6.243-4.388-15.803 3.959-12.472 1.362.544 1.988 1.017 1.393 1.052-1.3.076-1.489 3.123-.289 4.656.548.699-.124 1.54-1.864 2.333-2.429 1.106-2.533 1.344-.972 2.218.962.538 2.619.702 3.683.364 1.089-.346 3.046.115 4.479 1.054 1.542 1.01 2.546 1.228 2.546.553 0-.613-.45-1.115-1-1.115-1.461 0-1.226-1.651.25-1.753.688-.048 2.262-.322 3.5-.609 1.571-.365 2.25-.067 2.25.988 0 1.219.56 1.112 2.904-.558 3.411-2.429 5.096-2.633 5.096-.619 0 1.466 12.107-4.743 16.5-8.462 1.886-1.597 17.06-7.979 22.5-9.464 1.375-.375 3.943-1.333 5.706-2.128 4.356-1.966 23.2-6.571 24.245-5.926.461.286 1.097-.153 1.413-.975.315-.822 1.487-1.494 2.605-1.494 3.177 0 2.381-2.667-1.219-4.081-4.624-1.817-30.436-2.002-31.908-.229m-105.175 66.977c-.367.366-.667 1.506-.667 2.532s-.97 2.224-2.156 2.663c-2.058.761-1.991.924 1.475 3.568 4.61 3.516 9.706 4.756 12.163 2.959.997-.729 2.196-1.088 2.665-.798 1.669 1.031.82-1.311-1.107-3.055-1.078-.976-1.866-2.122-1.75-2.546.305-1.121-4.402-5.039-5.35-4.453-.441.273-1.084.038-1.43-.521-.713-1.153-2.846-1.347-3.843-.349m150.83 41.329c1.15 1.86-13.537 5.459-18.431 4.517-1.33-.256-2.901-.105-3.492.335-2.37 1.769-9.78 3.204-13.213 2.56-2.845-.534-3.516-.383-3.141.707.262.762-.548 2.07-1.8 2.908-9.916 6.633-11.666 10.804-6.07 14.47 2.277 1.493 7.621.273 7.642-1.743.004-.412.368-.75.807-.75.44 0 .621 1.531.402 3.402-.431 3.694 1.743 5.324 5.288 3.964 1.486-.571 1.245-.952-1.496-2.37-3.248-1.679-3.255-1.699-1.137-3.183 1.172-.821 1.817-1.807 1.433-2.191-1.165-1.165-1.428-5.622-.332-5.622.564 0 1.588.9 2.275 2 1.414 2.265 3.261 2.728 2.45.615-.292-.762.763-2.625 2.344-4.14l2.876-2.755 2.163 3.666c1.19 2.016 3.073 4.152 4.184 4.747 1.112.595 1.59 1.371 1.063 1.724-.527.354-1.239 1.405-1.582 2.336-.442 1.202-2.018 1.782-5.427 2l-4.803.307-.915 4.735c-.616 3.191-1.513 4.925-2.75 5.317-3.236 1.027-2.01 9.568 1.251 8.715 1.302-.34 1.914.016 1.914 1.116 0 .89.659 1.617 1.465 1.617 1.809 0 4.119 4.001 2.815 4.877-1.481.996-2.281 4.005-1.236 4.65.526.325.956 1.383.956 2.352 0 .968 1.35 3.273 3 5.121 1.65 1.848 3 3.729 3 4.18 0 .451.675.82 1.5.82 1.595 0 2.096-3.514.63-4.419-.478-.296-.531-2.389-.117-4.651.413-2.262.551-4.88.306-5.818-.293-1.121.519-2.204 2.367-3.157 1.548-.799 3.151-1.903 3.564-2.453 1.283-1.713 2.857 1.763 2.356 5.203-.372 2.562-.064 3.332 1.537 3.84 1.191.378 1.783 1.207 1.461 2.045-.364.948.186 1.42 1.677 1.44 1.976.027 2.029.141.483 1.042-2.165 1.262-1.629 7.453 1.166 13.461 1.118 2.403 1.66 5.159 1.343 6.822-.294 1.534-.076 3.769.483 4.967 3.239 6.941 5.419 19.753 4.001 23.511-1.375 3.644-.431 5.069 2.249 3.395 1.053-.657 2.608-.93 3.454-.605 1.808.694 2.134-2.645.547-5.609-.546-1.021-1.211-6.694-1.478-12.607-.44-9.758-.716-10.992-2.982-13.358l-2.498-2.607 4.338-5.471c5.198-6.555 12.293-13.779 16.025-16.315 2.552-1.734 2.606-1.922.908-3.164-.993-.726-1.853-1.921-1.911-2.656-.41-5.232-.357-5.124-1.909-3.836-1.251 1.038-1.5.902-1.5-.819 0-2.351 1.55-3.719 2.49-2.197 1.102 1.783 2.51 1.092 2.514-1.234.004-2.513 3.471-8.75 4.865-8.75 2.578 0 1.643-8.029-1.806-15.5-.508-1.1-1.455-3.8-2.105-6-2.091-7.082-3.327-8.186-12.187-10.889-4.549-1.388-9.171-3.204-10.271-4.036-2.294-1.733-3.909-2.045-3.003-.579M348 211.488c0 .947-.818 1.402-2.25 1.25-1.898-.201-2.302.31-2.582 3.258-.182 1.923-.782 4.039-1.332 4.702-2.93 3.531 1.392 6.484 8.16 5.576 4.167-.559 5.136-1.626 2.422-2.667-2.359-.905-3.615-.735-2.916.396.345.558-.184.88-1.191.727-2.732-.417-3.121-2.186-.561-2.55 1.238-.175 2.25-.759 2.25-1.298 0-.538 1.238-2.121 2.75-3.518 1.842-1.701 2.163-2.352.971-1.972-1.365.436-1.918-.126-2.375-2.412-.603-3.015-3.346-4.237-3.346-1.492m-62 68.944c0 1.534 4.841 5.427 6.5 5.228 1.666-.2 4.458 6.653 3.29 8.078-1.547 1.886 1.869 2.782 4.743 1.244 3.184-1.704 5.87.276 5.012 3.694-.458 1.825-.173 2.324 1.329 2.324 1.052 0 2.196.739 2.543 1.643.346.904.898 1.375 1.226 1.048 1.097-1.098 3.244 2.024 2.734 3.975-.348 1.33.25 2.331 1.928 3.23 2.961 1.584 6.343 1.027 5.8-.955-.217-.793-.364-3.798-.327-6.68.037-2.881-.355-5.499-.871-5.819-.517-.319-.65-1.049-.295-1.623.771-1.248-1.39-2.782-3.95-2.804-1.591-.013-1.747.521-1.162 3.985.564 3.338.4 4-.992 4-1.314 0-1.534-.606-1.039-2.859.547-2.491.244-3.017-2.36-4.096-1.644-.681-3.465-.943-4.049-.582-1.407.869-1.34-.042.183-2.48 1.899-3.041-.177-5.322-5.9-6.482-2.717-.551-6.016-2.013-7.33-3.251-2.687-2.529-7.013-3.034-7.013-.818m-140.518 4.292c-3.022 2.067-3.56 2.808-2.232 3.073 3.753.75 1.494 1.937-3 1.577-2.613-.209-4.187-.117-3.5.206 1.961.92 1.467 2.243-1 2.677-2.245.395-2.244.399.25 1.506 1.375.611 2.05 1.173 1.5 1.25-4.087.572-7.51 1.987-4.805 1.987.565 0 .813 1.125.55 2.5-.481 2.514-2.595 3.361-3.745 1.5-1.153-1.865-4.5-1.121-4.5 1 0 1.111-.667 2-1.5 2-.825 0-1.5.45-1.5 1s.436 1 .969 1c.532 0 .709.675.393 1.5-.834 2.173 1.285 1.842 2.892-.452 1.527-2.18 5.619-2.228 8.187-.097 1.307 1.085 1.559 1.022 1.559-.388 0-.924.445-1.406.989-1.07.589.364.719-.091.321-1.128-.574-1.496 5.462 2.182 7.69 4.685.275.309 2.106.658 4.07.775l3.569.213-.104-6.374c-.074-4.583-.585-6.857-1.817-8.089-1.983-1.983-.989-4.824 2.305-6.587 2.189-1.172 2.688-3.168.727-2.913-3.827.497-4.829-.058-3.75-2.075 1.452-2.712.216-2.514-4.518.724m76.76 3.434c-1.808 1.808-.247 4.967 2.132 4.318 2.027-.553 2.04-.511.284.9-1.73 1.389-1.623 1.54 1.757 2.473 1.979.546 5.348 2.379 7.486 4.072 4.279 3.39 6.847 3.898 7.754 1.536.519-1.353.836-1.322 2.571.247 1.923 1.741 1.968 1.722 1.626-.707-.285-2.024-.848-2.446-2.97-2.23-2.753.281-7.765-4.905-8.926-9.238-.607-2.265-9.75-3.335-11.714-1.371m-29.745 1.846c-.397.644-.222 1.671.39 2.283 2.027 2.027 1.162 4.359-3.137 8.46-5.895 5.624-6.815 6.92-6.147 8.661.349.91-.554 2.582-2.261 4.182-2.286 2.144-2.45 2.553-.842 2.09 1.634-.47 2.457.361 4.5 4.543 5.628 11.524 17.199 14.202 27.478 6.361 4.233-3.228 6.562-3.386 5.988-.407-.493 2.559-2.14 3.786-5.109 3.808-1.179.008-2.41.711-2.737 1.562-.326.851-1.162 1.435-1.857 1.298-1.664-.328-12.763 5.22-12.763 6.38 0 .495-.88.76-1.955.588-1.075-.172-1.955.137-1.955.687-.001.55 1.418.847 3.152.66 2.672-.289 2.968-.118 1.938 1.123-.668.805-.936 2.19-.595 3.078.341.888.141 2.987-.444 4.665-.875 2.509-.714 3.674.907 6.56 2.917 5.194 1.325 7.934-3.293 5.668-1.79-.879-3.516-1.985-3.835-2.46-1.868-2.776-6.105 2.682-7.329 9.441-.757 4.184.983 12.146 2.456 11.236.524-.324.953.145.953 1.041 0 1.976 2.824 4.997 3.779 4.042.376-.375-.077-2.008-1.006-3.627-1.685-2.935-1.683-2.942.711-2.342 1.744.438 3.16-.102 5.18-1.974l2.78-2.578-1.69-4.56c-1.463-3.947-1.493-4.621-.222-5.017l2.968-.925c.865-.27 1.5.153 1.5 1 0 2.085 2.248 1.819 4.811-.57 3.008-2.802 3.318-18.775.401-20.597-1.107-.691-1.741-2.21-1.663-3.982.11-2.526 1.003-3.302 7.538-6.545 12.513-6.212 13.048-6.147 15.519 1.886 1.147 3.727 1.742 7.228 1.322 7.78-.419.551-.173 1.808.547 2.793 1.134 1.551 1.393.748 1.938-6.002.998-12.379-.556-18.592-4.4-17.587-2.917.763-2.463-.901.851-3.122 3.345-2.241 3.539-6.225.648-13.333-.95-2.336-1.485-4.88-1.189-5.651.734-1.914-3.218-2.848-4.906-1.161-.727.727-1.107 1.536-.845 1.798.262.263-.217 1.052-1.064 1.756-1.299 1.078-2.07.734-4.908-2.188-4.581-4.717-8.896-6.448-12.257-4.916-2.956 1.347-4.555.434-7.395-4.223-1.139-1.869-1.973-2.435-2.451-1.663m-59.247 22.659c-.687.277-1.25 1.415-1.25 2.529 0 1.696-.435 1.916-2.675 1.354-2.343-.589-2.514-.478-1.377.891 1.095 1.32 1.014 1.563-.526 1.563-1.417 0-1.555.267-.622 1.2.66.66 1.2 2.91 1.2 5s.45 3.8 1 3.8 1 .45 1 1-.9 1-2 1-2.034.337-2.077.75c-.042.413-.227 1.536-.41 2.496-.184.96.075 1.999.576 2.309.501.31.911 1.388.911 2.397s.667 2.09 1.483 2.403c1.05.403 1.31 1.428.893 3.514-.997 4.987 2.706 6.632 10.235 4.548 3.239-.897 6.894-1.588 8.122-1.536 4.01.169 8.028-11.555 5.387-15.721-.468-.738-1.923-1.876-3.235-2.53-1.312-.654-2.984-2.438-3.716-3.965-.732-1.527-2.307-3.15-3.5-3.606-3.535-1.352-6.122-4.671-4.212-5.404 1.936-.743 2.036-3.655.125-3.655-.78 0-2.018-.189-2.75-.421-.733-.231-1.894-.194-2.582.084M104.362 357.5c-.317.825-1.695 1.5-3.063 1.5-1.678 0-2.663.677-3.031 2.082-.477 1.826-1.172 2.041-5.656 1.75-4.667-.303-5.14-.135-5.433 1.933-.177 1.245-.74 2.006-1.25 1.691-.511-.316-.929-.045-.929.602 0 .769.777.922 2.25.443 5.323-1.732 12.55-.969 14.582 1.54 2.163 2.671 1.823 4.482-1.575 8.383C98.02 379.993 95 380.898 95 379c0-1.858-4.174-1.049-4.686.908-.274 1.049-1.357 2.132-2.406 2.406C83.91 383.359 87.115 392 91.5 392c2.198 0 1.831 1.68-.5 2.29-1.197.313-2 1.364-2 2.616 0 2.049 1.601 2.61 6.169 2.16 1.214-.12 1.524.39 1.138 1.87-.773 2.953.407 5.54 1.955 4.287 1.857-1.504 7.041-1.293 5.774.234-.686.826-.544 1.812.449 3.125 1.241 1.64 2.182 8.418 1.169 8.418-.668 0-6.654-3.15-6.654-3.502 0-.195.646-1.002 1.436-1.792 1.249-1.248 1.127-1.602-.932-2.704-3.064-1.639-5.504-.719-4.839 1.824.28 1.072.02 2.251-.578 2.62-1.723 1.065-1.263 3.551.663 3.586 1.667.03 1.667.095 0 1.36-2.211 1.679-2.229 2.608-.05 2.608 1.174 0 1.379.321.663 1.037s-1.897.711-3.814-.018c-2.409-.916-2.693-.837-2.143.596.349.911-.273 3.189-1.386 5.076-2.471 4.187-2.481 3.802.169 6.27 3.01 2.805 6.191 2.553 8.997-.711 3.596-4.183 5.399-5.346 7.213-4.65 1.254.481 1.384.956.54 1.973-.611.737-.821 1.809-.466 2.383.366.592-.22 1.044-1.355 1.044-1.1 0-2.266.43-2.591.956-.325.526-1.27.696-2.1.378-.948-.364-1.401-.069-1.218.793.178.842-.478 1.304-1.694 1.195-1.092-.098-2.274.287-2.625.856-.424.685-1.779.528-4.015-.465-6.4-2.843-6.873-2.848-7.925-.081-.542 1.426-.907 3.105-.81 3.73.096.626-.082 1.813-.397 2.638-3.224 8.449-3.75 11.417-2.18 12.295 1.213.679 1.445 1.857.993 5.045-.561 3.963-.459 3.857 2.158-2.221 3.836-8.913 9.12-14.744 11.653-12.861 1.771 1.315 1.782 1.554.203 4.607-.916 1.772-2.832 3.664-4.257 4.206-1.425.542-2.307 1.268-1.96 1.615.346.346.184 1.167-.36 1.823-.545.656-1.19 4.748-1.434 9.092s-.839 10.262-1.322 13.149c-.483 2.887-.509 5.25-.058 5.25.452 0 .873-1.012.937-2.25.08-1.555.252-1.735.557-.585.689 2.603 3.181 2.981 5.35.812 2.235-2.235 2.599-4.101.727-3.727-1.188.238-1.35-3.039-.293-5.937.661-1.817 13.543-1.613 13.543.214 0 .772.929 1.9 2.064 2.507 5.925 3.171 6.389-6.868.818-17.675-.793-1.539-.8-2.664-.023-4 .594-1.022 1.094-1.296 1.111-.609.041 1.7 1.964 1.586 2.632-.156.297-.773-.237-2.312-1.186-3.421-1.544-1.804-3.068-8.173-1.955-8.173 1.317 0 6.151 2.636 6.839 3.729.44.699 1.254 1.271 1.809 1.271.555 0 .7-.5.322-1.112a1.318 1.318 0 0 1 .438-1.807c.734-.454-.072-2.003-2.315-4.453-4.271-4.662-3.91-7.959.606-5.542 1.794.96 1.953.844 1.367-1-.4-1.26-.222-2.086.449-2.086.742 0 .934-1.745.575-5.25-.294-2.887-.652-8.286-.793-11.996-.142-3.71-.565-6.747-.941-6.75-2.434-.015-2.436-6.61-.002-9.331 1.512-1.691 1.509-2.043-.044-4.75-.923-1.607-1.249-2.923-.724-2.923.524 0 .946-.788.938-1.75-.014-1.51-.161-1.544-1.075-.25-.789 1.117-.902.548-.443-2.23.451-2.733.074-4.736-1.415-7.5-4.173-7.747-7.225-17.204-6.548-20.287.685-3.12-1.053-4.323-2.142-1.483m51.119 13.56c-.484 1.524-1.347 1.98-3.318 1.75-2.257-.263-2.663.071-2.663 2.19 0 1.977-.459 2.452-2.195 2.272-2.561-.267-9.076 5.633-7.379 6.683.744.459.689 1.474-.179 3.344-1.158 2.495-2.457 3.161-5.436 2.79-1.383-.173-3.857 4.875-4.857 9.911-.382 1.925-1.398 4.85-2.256 6.5-3.549 6.817 1.356 21.397 7.992 23.76.721.256 1.011.789.646 1.184-.366.395-1.603.216-2.75-.398-1.205-.645-2.086-.714-2.086-.165 0 .524.563 1.159 1.25 1.411 1 .366 1 .723 0 1.783-1.026 1.088-1.25.987-1.25-.564 0-1.749-.151-1.726-2.051.313-1.128 1.211-1.759 2.674-1.402 3.252.357.577-.142 1.924-1.11 2.993-2.078 2.297-1.654 3.062 1.272 2.297 1.167-.305 2.393-1.637 2.725-2.96.332-1.324 1.201-2.406 1.93-2.406.729 0 2.113-.87 3.075-1.933 1.012-1.118 2.414-1.677 3.329-1.326 1.238.475 1.41.19.795-1.317-1.297-3.178-1.149-4.866.437-4.996.825-.068 2.24-.192 3.144-.276.982-.091 1.658-1.058 1.677-2.402.019-1.238.288-3.759.599-5.604.467-2.771.291-3.249-1.009-2.75-.866.332-1.763.604-1.993.604-.23 0-.418.605-.418 1.345s-.927 2.184-2.061 3.21c-2.11 1.909-3.882.916-3.924-2.198-.008-.629-.69-1.402-1.515-1.719-2.616-1.004-1.621-3.36 1.75-4.144 2.312-.537 2.728-.887 1.442-1.209-2.584-.649-1.751-4.091 1.458-6.028 2.77-1.671 5.85-.246 5.85 2.707 0 .805.568.802 2.088-.011 3.679-1.969 6.648-2.084 7.339-.283.712 1.856-1.051 3.412-3.013 2.658-.865-.331-1.095.175-.724 1.593.299 1.143.95 2.079 1.448 2.079s1.401 1.089 2.008 2.421c.714 1.567 1.676 2.239 2.728 1.906 1.411-.448 1.428-.369.126.597-1.315.975-1.284 1.24.25 2.144.963.567 1.75 2.073 1.75 3.347 0 3.513 3.837 7.965 5.602 6.5 1.946-1.614 3.798.106 6.074 5.643 1.003 2.439 2.099 4.436 2.435 4.438.337.002.397 1.129.134 2.504-.301 1.573-1.151 2.5-2.294 2.5-1.888 0-3.525 3.263-2.483 4.948.329.532-.767 1.673-2.435 2.535-1.668.863-3.033 2.007-3.033 2.543s-.408.974-.906.974c-.499 0-.671-.9-.384-2 .486-1.859-2.619-2.804-6.96-2.118-.412.065-.75-.332-.75-.882s-.9-1-2-1c-1.336 0-2-.667-2-2.008 0-1.704-.281-1.834-1.849-.854-2.25 1.405-7.151.354-7.151-1.535 0-1.92-2.988-4.36-3.032-2.475-.022.939-.48.78-1.452-.503-.82-1.083-2.074-1.625-2.968-1.282-.851.327-1.548.103-1.548-.497 0-.705-.548-.636-1.547.193-1.236 1.026-1.287 1.45-.25 2.107.902.573.612.828-.953.839-3.209.022-2.794 2.339 1.069 5.984 2.591 2.443 3.229 3.752 2.905 5.957-.305 2.082.168 3.235 1.797 4.376 3.397 2.38 6.601.465 7.381-4.412.684-4.279 1.181-4.571 4.188-2.465 1.229.861 2.571 1.094 3.39.587.813-.502 2.203-.283 3.472.548 1.163.763 3.225 1.566 4.582 1.785 1.53.247 2.413 1.016 2.327 2.027-.076.895.149 1.678.5 1.74.352.061 2.131.283 3.954.493 1.823.21 4.024 1.091 4.892 1.96 2.008 2.007 2.138 10.315.186 11.844-.766.6-1.452 1.766-1.524 2.591-.071.825-.237 1.95-.368 2.5-.595 2.501.14 4.5 1.654 4.5 1.488 0 1.473.201-.155 2-.995 1.1-1.483 2-1.084 2 .4 0 .06.667-.756 1.482-1.481 1.482-1.206 5.062.468 6.097.487.301 1.155-.153 1.483-1.009.412-1.072 1.342-1.369 2.993-.954 1.503.377 2.396.166 2.396-.567 0-.642.5-.858 1.112-.48.611.378 1.491.073 1.955-.677.671-1.087 1.282-.895 2.989.938 2.486 2.668 2.463 2.72-1.724 3.83l-3.167.84 1.793 3.674c1.087 2.225 1.433 4.035.878 4.59-1.997 1.997 2.45 5.306 7.252 5.396 4.322.082 4.56.23 4.115 2.556-.41 2.149-.228 2.343 1.413 1.498 5.464-2.813 9.79-4.22 11.405-3.707.996.316 2.119.076 2.495-.533.787-1.273.243-2.032-1.674-2.338-.738-.118-2.568-1.028-4.066-2.023-2.399-1.593-2.548-1.984-1.25-3.282 2.063-2.063 1.873-2.932-1.384-6.34-2.899-3.033-5.142-3.87-5.142-1.92 0 .59-.675 1.747-1.5 2.572-1.333 1.333-1.5 1.185-1.5-1.331 0-1.748.765-3.309 2-4.08 2.286-1.428 2.762-6.232.617-6.232-2.215 0-2.769-4.004-.666-4.811 2.216-.85 1.009-5.189-1.444-5.189-.856 0-1.984-1.125-2.507-2.5-1.141-3.002-.22-8.5 1.424-8.5.764 0 1.025-1.284.746-3.669-.276-2.367.061-4.053.951-4.75 2.712-2.126 1.919-5.236-2.459-9.641l-4.271-4.298 3.554-3.177c3.274-2.925 7.484-5.665 9.305-6.055.412-.088 1.03-.216 1.372-.285 2.176-.437-2.533-3.128-5.494-3.14-3.03-.013-8.546-1.923-5.687-1.97.518-.008.073-.65-.989-1.426-1.061-.777-2.304-1.18-2.762-.897-.458.282-.688-.96-.511-2.762.177-1.802.946-3.482 1.71-3.733.797-.262 1.11-.004.734.604-.361.584-.254 1.309.236 1.612.49.303 1.443-1.42 2.117-3.828.921-3.289 2.572-5.54 6.64-9.052 2.978-2.571 5.197-5.026 4.931-5.456-.265-.431.163-1.636.953-2.68 1.955-2.582 1.849-3.397-.441-3.397-1.068 0-2.219-.45-2.559-1-.34-.55-2.144-1-4.009-1-1.928 0-3.743-.628-4.206-1.455-1.393-2.489-3.403-.101-3.461 4.111-.053 3.818-.164 3.948-3.027 3.528-2.74-.403-2.926-.685-2.376-3.613.445-2.371.087-3.722-1.413-5.332-2.037-2.186-2.624-5.29-1.258-6.656.412-.412.766-1.05.785-1.416.02-.367.603-1.689 1.297-2.938 1.49-2.683.798-4.229-1.891-4.229-1.359 0-1.941.69-1.941 2.3 0 1.265-.538 2.838-1.196 3.496-.657.657-1.089 3.002-.959 5.209.291 4.932-2.412 6.506-8.354 4.865-2.023-.559-3.921-.774-4.216-.478-.296.296-1.475.036-2.619-.576l-2.082-1.114 2.213-.819c1.217-.45 2.213-1.508 2.213-2.351 0-.842.498-1.532 1.107-1.532s.841-.692.517-1.538c-.336-.875.049-1.783.893-2.107.816-.313 1.483-1.244 1.483-2.069 0-.843-.587-1.275-1.341-.986-3.038 1.166-3.719-.484-4.56-11.05-.158-1.988-1.901-1.449-2.618.81M61.25 406.733c-2.999 1.04-1.164 3.267 2.691 3.267 2.168 0 4.219.45 4.559 1 .34.55-.161 1-1.112 1-.952 0-2.545.737-3.541 1.638-2.077 1.88-5.371.169-4.424-2.298.283-.737.131-1.34-.338-1.34-.918 0-2.049 3.412-2.071 6.25-.008.962.614 1.75 1.381 1.75 1.077 0 1.215.796.605 3.5-.434 1.925-.443 3.5-.02 3.5.424 0 1.093-1.462 1.488-3.25.396-1.788.939-2.687 1.209-2 .802 2.046 2.305 1.428 3.376-1.389.552-1.451 1.249-2.392 1.55-2.091.301.301 1.889.162 3.53-.308 4.596-1.318 5.867-.329 5.867 4.563 0 4.472.746 7.475 1.857 7.475.715 0 .536-6.251-.449-15.75L76.76 406h-4.394c-2.416 0-5.301.563-6.41 1.25-1.445.895-2.221.938-2.737.15-.395-.605-1.281-.905-1.969-.667m172.254 54.259c-.872 1.687-1.335 3.472-1.029 3.968.307.496.093 1.189-.475 1.54s-.731 1.127-.362 1.724c.375.605.211.801-.37.442-.573-.354-1.481-.086-2.018.595-1.484 1.881-1.112 4.739.617 4.739 1.144 0 1.245.288.397 1.136-.847.847-1.518.753-2.643-.372-1.591-1.591-6.621-1.271-6.621.42 0 .523 1.012.666 2.25.318 1.837-.517 1.975-.423.75.513-1.189.909-.878 1.009 1.5.484l3-.662-2.424 2.582c-2.354 2.506-1.682 3.787.724 1.381.933-.933 1.2-.835 1.2.441 0 .903.372 1.871.826 2.152 1.274.787 5.223-.506 4.604-1.507-.302-.487.154-.886 1.011-.886.857 0 1.559-.45 1.559-1s1.012-.993 2.25-.985c1.238.009 1.8.346 1.25.75s-1.07 1.565-1.154 2.578c-.132 1.576.376 1.761 3.5 1.274 2.639-.412 3.098-.318 1.654.336-1.916.869-1.906.909.25.977 1.238.038 2.257.633 2.265 1.32.011.896.224.929.75.116.404-.624 1.635-1.305 2.735-1.514 2.972-.564 2.754-5.245-.265-5.673-1.245-.177-2.025-.709-1.733-1.182.292-.473-.408-1.518-1.555-2.322-1.361-.953-1.657-1.605-.851-1.874.964-.321.979-1.146.07-3.755-.641-1.84-1.173-4.29-1.181-5.445-.024-3.184-1.129-4.247-5.19-4.994-3.417-.628-3.829-.442-5.291 2.385" fill="#d3d3d3" fill-rule="evenodd"/></svg>