<svg xmlns="http://www.w3.org/2000/svg" width="500" height="750"><path d="M0 95.617c0 95.124.01 95.614 2 95.093 1.3-.34 2-.03 2 .884 0 .773-.9 1.406-2 1.406-1.943 0-2 .667-2 23.559 0 14.694.359 23.337.954 22.969 1.459-.902 5.835.479 6.43 2.029.29.757-.158 3.686-.996 6.509-.838 2.822-1.397 6.612-1.241 8.421.156 1.809-.301 3.994-1.016 4.855-3.724 4.487-6.367 35.57-2.927 34.423.662-.22 1.562-1.78 1.998-3.466.437-1.686 1.6-3.275 2.584-3.533 2.238-.585 6.214.823 6.214 2.202 0 2.287 4.091 5.032 7.5 5.032 4.487 0 4.617 2.139.25 4.092-1.788.799-3.131 2.024-2.986 2.721.144.697-.193 2.12-.751 3.162-.658 1.231-.679 2.773-.058 4.406 1.051 2.765.798 2.936-6.197 4.175-3.305.586-3.673.935-3.155 2.997.906 3.612-.373 4.827-3.16 3.001C.179 318.416 0 318.519 0 322.525c0 2.71.52 3.742 2.25 4.465C6.929 328.946 13 336.207 13 339.848c0 1.205-1.227 2.764-3 3.811-1.65.975-3 2.09-3 2.479 0 .389-1.575 1.227-3.5 1.862L0 349.155v30.877l2.75-.028c1.512-.015 4.334.24 6.27.567 5.451.92 8.238-2.491 4.612-5.643-2.019-1.755-2.342-2.602-1.555-4.072 1.414-2.643 3.596-2.297 5.633.894.965 1.512 2.568 3.35 3.562 4.084C29.113 381.625 44 397.074 44 399.421c0 1.662-5.91 4.579-9.279 4.579-1.362 0-3.036.675-3.721 1.5-1.05 1.266-.852 1.5 1.267 1.5 3.763 0 7.146 3.124 6.293 5.812-1.626 5.123-10.55.456-9.678-5.062.065-.413-2.547-.75-5.804-.75-5.812 0-5.943-.062-7.01-3.294-.598-1.811-3.31-5.262-6.026-7.669-2.717-2.407-5.454-5.617-6.082-7.135-.629-1.517-1.777-3.002-2.552-3.299C.2 385.14 0 411.02 0 567.531V750l130.25-.052c118.73-.046 129.919-.188 126.506-1.604-2.06-.854-3.498-1.953-3.196-2.441 1.554-2.514-1.14-3.525-3.345-1.255-2.016 2.074-2.075 2.354-.5 2.367 1.463.013 1.525.18.344.927-.92.582-2.366.439-4-.395-2.477-1.265-4.341-1.722-12.337-3.03-2.078-.34-3.555-.979-3.283-1.419.273-.441-1.177-1.269-3.222-1.84l-8.467-2.367c-2.613-.73-4.757-1.792-4.765-2.359-.009-.568-.417-.398-.908.378-.75 1.185-1.395 1.201-4.054.099-1.739-.72-4.473-1.272-6.075-1.227-1.602.046-3.177-.344-3.5-.866-.322-.522-1.025-.678-1.561-.346-.536.331-1.517.175-2.181-.348-1.749-1.377-12.706-2.46-12.706-1.255 0 .637-.942.626-2.672-.033-1.47-.558-3.226-.803-3.903-.544-.676.26-1.536.166-1.911-.209-1.003-1.003-2.916-.888-3.688.221-.418.602-1.243.497-2.176-.277-.826-.686-2.098-1.166-2.826-1.067-3.311.448-4.602-.319-6.64-3.944-3.299-5.871-3.021-6.285 4.066-6.038 3.438.12 6.7.489 7.25.821 1.788 1.078 25.879 5.093 30.295 5.049 2.362-.024 5.737.404 7.5.95 1.763.546 6.58 1.495 10.705 2.108s10.081 1.763 13.235 2.556c3.154.792 6.604 1.44 7.667 1.44 1.062 0 2.081.415 2.265.922.183.508 2.343 1.219 4.799 1.581 2.457.362 5.315 1.112 6.352 1.667 1.038.556 2.719.792 3.736.526 1.018-.266 1.999-.037 2.181.509.182.546 4.366 1.414 9.298 1.928 4.932.515 10.542 1.165 12.467 1.445 1.925.281 5.525.766 8 1.078 2.475.313 4.95.907 5.5 1.32.893.671 7.502 1.75 16 2.612 1.65.168 4.125.651 5.5 1.075 1.375.423 40.975.853 88 .954 47.025.101 84.6-.002 83.5-.228-10.311-2.127-13.249-2.91-14.805-3.949-1.216-.812-3.001-.935-5.474-.377-2.019.455-3.907.449-4.196-.014-.749-1.201-8.977-3.281-10.565-2.672-.732.281-1.472.111-1.645-.378-.173-.488-3.233-1.117-6.799-1.396-3.567-.28-6.648-.998-6.847-1.597-.251-.753-.82-.71-1.842.138-.952.79-1.72.872-2.153.23-.941-1.393-11.599-3.605-17.369-3.605-3.197 0-4.805-.421-4.805-1.259 0-.693-.292-2.718-.648-4.499-.616-3.08-.541-3.182 1.52-2.079 1.92 1.027 2.367.811 3.898-1.88 1.861-3.269 5.23-4.146 5.23-1.361 0 1.475.18 1.445 1.411-.239 1.61-2.201 1.064-3.848-1.012-3.052-2.766 1.062-1.308-1.517 3.643-6.441 2.772-2.759 4.771-5.453 4.441-5.987-.331-.535-.126-.972.455-.972s2.913-1.677 5.182-3.727c4.394-3.97 11.881-5.364 17.447-3.248 1.42.54 2.59.53 2.932-.024.314-.508-1.725-1.227-4.53-1.6-2.806-.372-5.747-1.321-6.535-2.11-.789-.789-1.434-1.062-1.434-.607 0 1.199-6.957 3.194-7.587 2.175-.292-.472.171-.859 1.028-.859s1.559-.466 1.559-1.035c0-.714-.601-.714-1.934 0-2.537 1.357-3.984 1.305-2.066-.075 1.274-.916 1.241-.996-.218-.528-.945.303-1.984.12-2.309-.406-1.279-2.069-2.977-.79-3.049 2.297-.053 2.255-1.123 4.36-3.5 6.888-4.27 4.54-10.924 13.514-10.924 14.731 0 .501-1.125 1.194-2.5 1.539s-2.5 1.157-2.5 1.804c0 .648-1.221 3.002-2.713 5.231a497.167 497.167 0 0 0-2.915 4.385c-.11.182-1.07-.134-2.131-.702-1.902-1.018-9.385-2.155-16.241-2.469-1.925-.088-3.856-.715-4.29-1.393-.627-.978-1.224-.978-2.881 0-1.664.982-2.183.977-2.545-.023-.25-.691-.866-1.002-1.369-.691-.503.311-.915.114-.915-.437 0-.55-.912-.826-2.027-.611-1.114.215-1.818.054-1.564-.357s-1.197-.88-3.224-1.042c-8.581-.686-11.034-1.042-17.585-2.55-3.796-.873-7.099-1.39-7.342-1.147-.242.242-2.537-.196-5.099-.973-5.724-1.737-9.379-1.816-10.959-.236-.667.667-1.2.756-1.2.2 0-.55.54-1.54 1.2-2.2.667-.667.756-1.2.2-1.2-.55 0-1.559.559-2.242 1.242-.969.969-1.406.975-1.991.028-.412-.667-3.32-1.462-6.461-1.767-3.142-.305-6.723-.929-7.959-1.386-1.236-.458-3.485-.769-4.997-.691-1.513.077-2.75-.154-2.75-.514 0-.359-2.813-.991-6.25-1.404-3.437-.413-7.15-.87-8.25-1.016-1.1-.146-7.85-1.432-15-2.858-11.608-2.315-18.87-3.357-25-3.589-1.511-.057-1.669-.286-.643-.935.946-.6 1.021-1.067.25-1.544-.609-.376-1.107-.233-1.107.318 0 .82-6.186.897-8 .099-.275-.121-.838-.167-1.25-.101-.413.065-.75-.219-.75-.632 0-.412-1.238-.788-2.75-.834-6.978-.212-10.638-1.171-11.262-2.95-.459-1.31-.858-1.485-1.397-.613-.705 1.14-7.749.785-9.82-.494-.424-.263-.785.112-.803.832-.024.98-.338.932-1.25-.191-.67-.826-2.679-1.455-4.468-1.4-1.787.055-3.25-.207-3.25-.583s-.562-.747-1.25-.825c-.687-.077-3.5-.37-6.25-.65-2.75-.279-6.35-.813-8-1.185-2.961-.668-5.612-1.101-10.5-1.716-1.375-.172-3.175-.577-4-.899-.825-.322-4.807-1.04-8.85-1.597-8.172-1.124-8.94-1.488-7.301-3.463.623-.751.8-1.734.392-2.184-.407-.45-.184-.498.498-.106.858.493 1.059.158.655-1.09-.487-1.507-.406-1.556.496-.302 1.034 1.436 1.635.605 1.086-1.5-1.002-3.843-1.525-9.5-.88-9.5.429 0 .748-.787.708-1.75-.039-.962.256-2.65.657-3.75.606-1.665.53-1.749-.451-.5-.936 1.192-1.029.782-.452-2 .4-1.925.681-4.737.625-6.25-.082-2.205.335-2.747 2.107-2.735 1.794.013 1.927.198.71.985-1.282.828-1.246.972.25.985.963.008 1.75-.36 1.75-.818 0-.458.787-.747 1.75-.641 2.953.323 7.25 2.367 7.25 3.449 0 .564.498 1.025 1.107 1.025s.848-.675.531-1.5c-.316-.825-.139-1.5.393-1.5.533 0 .969.675.969 1.5s.337 1.447.75 1.382c1.867-.295 3.25.206 3.25 1.177 0 .582-.45.781-1 .441s-1 .021-1 .802c0 1.011.793 1.269 2.75.894 1.512-.29 2.188-.715 1.5-.945-.687-.23-1.25-.846-1.25-1.37 0-.574.763-.543 1.928.08 1.978 1.059 5.075.426 6.213-1.27.352-.525.945.004 1.317 1.177.768 2.421 3.542 2.916 3.542.632 0-1.815 1.652-1.995 2.292-.25.334.911.776.953 1.629.154 1.346-1.26 8.922.197 13.031 2.505 1.763.991 2.559 1.057 2.834.234.516-1.549 4.138-1.431 7.339.239 1.451.757 4.322 1.183 6.419.952 2.087-.23 4.505-.142 5.375.196.87.338 4.506.745 8.081.904 3.575.159 5.707.092 4.738-.148-.969-.241-1.492-.875-1.161-1.41.381-.618 1.074-.581 1.895.101.958.795 1.458.648 1.923-.564.424-1.104 1.032-1.337 1.867-.714 1.862 1.39 4.238.998 4.238-.699 0-3.111 2.083-4.07 5.664-2.608 1.835.749 4.348 1.196 5.586.992 1.238-.205 2.25.032 2.25.524 0 1.38-5.542 2.993-7.058 2.056-1.693-1.046-3.007-.298-2.374 1.352.587 1.53 5.432 2.078 5.432.614 0-.577.476-.754 1.057-.395 2.166 1.339 5.804-.483 6.127-3.069.354-2.834 2.316-3.441 2.316-.716 0 1.743 1.27 3.206 2.809 3.235.445.008.489-.503.097-1.137-.977-1.581 2.246-3.752 4.64-3.126 1.077.282 1.954.01 1.954-.605s.661-1.117 1.469-1.117c.807 0 1.331-.562 1.164-1.25-.168-.687-.116-.913.114-.5.231.412.859.75 1.395.75.537 0 .718-.418.402-.928-1.07-1.731 3.39-2.232 5.668-.636 2.508 1.757 4.214 2.063 3.306.593-.33-.534.525-1.253 1.9-1.598 3.739-.938 5.511-3.427 2.454-3.446-1.304-.009-1.922-.346-1.372-.75 1.332-.979 1.739-3.235.583-3.235-.504 0-1.143.562-1.421 1.25-.403 1-.52 1-.583 0-.043-.687-.699-1.25-1.457-1.25-.757 0-1.915-.648-2.573-1.441-1.532-1.846-4.049-.903-4.049 1.517 0 1.325.479 1.677 1.664 1.223 1.11-.426 1.426-.254.95.517-.576.931-3.241 1.021-7.486.251-.205-.037.193-.748.884-1.581 1.374-1.656-1.184-1.757-3.762-.148-.939.586-1.25-.489-1.25-4.314 0-4.784.122-5.029 2-4.024 2.731 1.461 2.731-1.029 0-3.5-1.1-.995-2-1.328-2-.738 0 .589.337 1.26.75 1.491.413.23.164.273-.552.095-.716-.179-1.056.073-.756.559.301.486-.163 1.156-1.03 1.488-2.405.923-2.935.728-1.612-.595 1.581-1.581 1.545-3.134-.05-2.134-.687.431-2.038.655-3 .496-.962-.158-1.75.191-1.75.775 0 .585-.73 1.063-1.622 1.063-1.329 0-1.398-.271-.378-1.5.685-.825.902-1.5.483-1.5-.42 0-1.293.725-1.94 1.611-1.084 1.481-1.308 1.481-2.789 0-.886-.886-2.082-1.611-2.658-1.611-.629 0-.807-1.196-.446-3 .396-1.982.198-3-.584-3-.651 0-.931-.409-.622-.91.922-1.49-.503-4.005-1.954-3.448-.961.369-1.183-.1-.778-1.648.427-1.634.772-1.837 1.411-.829.681 1.074.863 1.042.929-.165.053-.943.486-.664 1.168.75 1.345 2.787 3.203 2.974 2.49.25-.412-1.576-.03-2 1.8-2 1.278 0 2.574-.562 2.88-1.25.307-.687.457-.125.334 1.25-.158 1.765-.739 2.414-1.974 2.206-2.162-.363-2.323 1.36-.203 2.174.851.326 1.413 1.37 1.25 2.32-.172 1.001.439 1.879 1.453 2.087.962.198 1.75-.123 1.75-.714 0-.59-.54-1.073-1.2-1.073-.911 0-.901-.299.042-1.242.988-.988 1.433-.938 2.184.25.705 1.114.947.669.959-1.758.008-1.788-.421-3.25-.954-3.25-.532 0-.709-.675-.393-1.5.371-.966-.021-1.5-1.102-1.5-2.246 0 .066-2.422 3.288-3.444 2.07-.657 2.189-.467 1.648 2.618-.467 2.667-.334 3.078.673 2.076 1.852-1.845 5.633-1.538 6.166.5.363 1.39.481 1.312.573-.378.144-2.635-2.085-4.616-4.257-3.782-1.27.487-1.624-.002-1.612-2.233.011-1.993.277-2.445.879-1.494.729 1.151.948 1.151 1.406 0 .361-.908.568-.743.621.494.051 1.188.597 1.658 1.516 1.305.835-.32 1.625.159 1.884 1.143.395 1.498.46 1.485.563-.114.064-.995.535-1.55 1.047-1.234.512.317 1.213.118 1.559-.441.35-.566-.312-1.016-1.497-1.016-4.955 0-7.846-3.496-3.743-4.527 1.575-.396 2.298-1.372 2.409-3.255.142-2.406.025-2.507-1.11-.954-1.661 2.272-3.683 2.261-2.83-.014.574-1.532.446-1.579-1.032-.378-.928.755-1.687 1.993-1.687 2.75 0 .758-.644 1.378-1.43 1.378-.787 0-1.575 1.012-1.75 2.25-.251 1.763-1.076 2.322-3.816 2.582-1.923.182-4.003.752-4.623 1.267-.62.515-1.839.662-2.71.328-2.739-1.051.296-3.029 3.986-2.598 2.106.245 3.343-.043 3.343-.779 0-.642-.518-.848-1.152-.456-.633.391-1.758-.118-2.5-1.132-.741-1.015-1.348-1.308-1.348-.653 0 2.227-2 1.203-2.068-1.059l-.067-2.25-1.085 2.25c-.647 1.341-1.991 2.25-3.326 2.25-1.232 0-2.51.704-2.84 1.563-.33.86-1.015 1.307-1.522.994-.506-.313-1.149-.004-1.428.687-.278.691-.549.356-.6-.744-.079-1.664-.257-1.748-1.064-.5-.828 1.282-.972 1.246-.985-.25-.009-1.025-.74-1.717-1.765-1.671-1.045.047-1.247.282-.5.583.687.278 1.214 1.48 1.171 2.671-.043 1.192-.306 1.605-.583.917-.539-1.336-7.884-1.763-8.591-.5-.23.413-.282.188-.114-.5.442-1.816-2.003-1.531-4.353.507-1.62 1.405-1.772 1.994-.759 2.94.696.65 1.539.91 1.872.576.334-.333.607-.191.607.316s-1.608 1.425-3.573 2.04c-3.299 1.032-3.639.944-4.438-1.158-.964-2.535-2.989-4.209-2.989-2.471 0 .615-.421.858-.935.54-.515-.318-1.998.484-3.296 1.782-2.204 2.204-2.516 2.258-4.699.808-2.261-1.501-2.314-1.474-1.589.81.611 1.924.45 2.248-.866 1.743-.888-.341-1.615-.132-1.615.465 0 .66-.881.819-2.25.406-1.237-.374-3.15-.774-4.25-.888-1.415-.148-1.932-.852-1.767-2.409.208-1.958-.122-2.139-3-1.644-2.228.383-2.809.256-1.87-.408 1.986-1.403-.653-2.18-3.646-1.074-1.468.543-2.997.402-4.281-.393-1.613-1-2.159-.977-2.842.119-.588.945-1.051 1.021-1.528.25-.376-.609-1.445-1.071-2.375-1.028-1.041.049-1.211.273-.441.583 1.992.804 1.446 3.338-.719 3.338-1.422 0-1.812-.485-1.405-1.75.464-1.444.381-1.493-.477-.279-.572.809-1.34 1.172-1.706.805-.725-.725 4.292-5.776 5.738-5.776.489 0 .401-.913-.196-2.028s-1.512-1.764-2.033-1.442c-.522.322-1.949-.115-3.173-.972-1.679-1.176-1.83-1.558-.616-1.558 3.149 0 6.746-2.532 5.775-4.066-.631-.997-.912-1.053-.923-.184-.008.688-.802 1.243-1.765 1.235-1.185-.011-1.363-.261-.553-.777.79-.502.88-1.263.266-2.234-.513-.811-.946-1.024-.963-.474-.034 1.11-1.96-1.559-1.985-2.75-.008-.413.772-.751 1.735-.752 1.254-.002 1.78-.854 1.857-3.004.086-2.419-.157-2.783-1.25-1.875-.747.619-1.357 1.677-1.357 2.351 0 1.901-5.821 1.66-6.958-.287-.863-1.48-.985-1.426-1.012.445-.016 1.17-.783 2.745-1.703 3.5-1.493 1.224-1.61 1.125-1.084-.915.428-1.663-.123-2.948-2.02-4.707-2.283-2.117-2.398-2.502-.917-3.07.932-.358 2.355-.396 3.162-.087.807.31 1.734.133 2.059-.393.325-.526.066-.956-.575-.956-.656 0-.899-.697-.555-1.593 1.482-3.862 1.765-6.407.711-6.407-.609 0-1.108.675-1.108 1.5 0 1.951-.675 1.893-2.906-.25-6.142-5.897-5.24-20.25 1.273-20.25.898 0 1.633-.445 1.633-.988 0-.544-.949-.881-2.109-.75-1.981.224-4.907-2.579-3.823-3.663.273-.273 2.282-.102 4.464.38 2.183.483 10.395 1.613 18.249 2.513 7.855.899 15.28 1.85 16.5 2.113 1.221.263 4.469.691 7.219.95 2.75.26 7.25.879 10 1.375 2.75.497 8.6 1.42 13 2.05 4.4.631 11.721 1.831 16.268 2.666 4.548.836 11.523 1.901 15.5 2.367 3.978.466 13.082 1.823 20.232 3.016 15.01 2.503 23.5 3.252 23.5 2.073 0-.453 1.166-.602 2.592-.329 1.957.374 2.263.725 1.25 1.432-.918.641-.324.812 1.884.543 1.774-.217 3.352-.014 3.507.45.155.465 3.878 1.293 8.274 1.84 4.396.547 8.893 1.168 9.993 1.38 10.747 2.067 16.91 2.539 17.662 1.354.577-.91.812-.743.823.585.009 1.176.527 1.66 1.412 1.321.768-.295 2.938.29 4.821 1.299 1.883 1.009 5.867 2.134 8.853 2.499 2.986.366 6.104.773 6.929.904 5.226.835 11.141 1.625 15.261 2.038 2.619.263 5.243.775 5.83 1.138.587.363 2.72.793 4.739.955 2.018.161 6.37.793 9.67 1.404 3.3.61 8.025 1.323 10.5 1.584 2.475.261 6.3.666 8.5.9 5.216.554 6.886.951 7.519 1.786.285.376 1.86.873 3.5 1.103 2.098.294 2.894.905 2.687 2.065-.222 1.243.479 1.647 2.857 1.647 2.195 0 2.998-.399 2.646-1.317-.373-.971.647-1.299 3.891-1.25 2.418.037 4.397.413 4.398.836.001.423 1.127.487 2.502.142 1.379-.347 2.5-.193 2.5.342 0 .533 1.117.756 2.483.495s3.279-.127 4.25.297c.972.425 2.157.684 2.633.575.477-.109 1.996.542 3.376 1.447 1.38.904 2.79 1.259 3.134.788.908-1.244 4.226-1.329 3.459-.088-.383.619-.157.741.554.301.659-.407 1.741-.313 2.405.21 1.551 1.221 4.706 1.176 4.706-.067 0-.564.512-.531 1.25.082 1.408 1.168 1.592 1.207 5.75 1.207h3v11.955c0 11.333-.127 12.081-2.435 14.389-1.856 1.856-2.563 2.105-2.969 1.046-.621-1.619-3.596-1.893-3.596-.331 0 .582.419.8.931.484.512-.317 1.257-.047 1.656.598.502.813.062 1.001-1.43.61-1.185-.31-2.407-.155-2.715.343-.308.498.312.906 1.378.906 1.21 0 2.404 1.126 3.18 3 .683 1.65 1.654 3 2.157 3 .502 0 .411-.939-.203-2.086-.614-1.147-.837-2.365-.495-2.706.341-.341.88.372 1.197 1.586.318 1.213 1.005 2.206 1.528 2.206.523 0 .647-.956.276-2.125-.439-1.385-.304-1.897.388-1.469.716.443 1.075 12.036 1.099 35.554.034 32.348-.091 34.93-1.705 35.352-1.638.429-1.638.463-.013.572 1.568.105 1.757 2.008 2.028 20.366.164 11.138.386-69.886.495-180.053.22-223.86.701-208.197-6.406-208.197-3.797 0-6.517-.915-5.863-1.972.259-.42 2.778-.344 5.597.168 2.819.513 5.302.756 5.517.54.376-.376.903-54.667.822-84.736-.021-7.975-.012-25.525.021-39 .052-21.21-.141-24.477-1.44-24.331-13.29 1.495-13.59 1.567-10.7 2.565 3.42 1.18 3.035 3.149-.7 3.59-2.654.312-2.726.195-2.148-3.442.329-2.071.324-3.491-.012-3.155-.336.335-1.973.135-3.638-.446-2.851-.994-2.996-1.296-2.48-5.147.302-2.25 1.01-4.245 1.574-4.433.564-.188.877-1.547.694-3.021-.182-1.474-.132-2.117.112-1.43.451 1.267 1.583 1.617 4.298 1.327 1.333-.143 1.333-.034 0 .976-1.28.969-1.244 1.053.25.573.962-.31 1.75-.101 1.75.464 0 .566.437.758.971.428s1.246.656 1.583 2.191c1.175 5.35 1.182 5.357 5.326 4.694 3.3-.527 4.007-.33 4.409 1.234.263 1.025.431-41.112.373-93.637-.058-52.525-.242-88.689-.409-80.365l-.304 15.135-7.724.658c-4.249.362-9.646.916-11.995 1.231-4.224.568-4.259.547-3.313-1.94.525-1.382.66-2.809.298-3.171-.361-.361-.061-1.025.667-1.475.996-.616 1.059-1.314.255-2.817-1.326-2.478.422-6.711 3.363-8.145 1.559-.761.76-.991-3.628-1.043-3.848-.047-6.021.406-6.872 1.432-.703.847-.807 1.5-.239 1.5 1.826 0 2.243 4.277.538 5.523-.887.649-1.277 1.703-.872 2.358 1.569 2.54 1.599 7.895.047 8.49-.835.321-7.471 1.265-14.746 2.099-23.656 2.71-31.208 3.804-32.346 4.688-.615.477-6.161 1.095-12.324 1.373l-11.205.504.172-9.267c.094-5.098.127-14.33.073-20.518L400 0h-35l-.055 12.25c-.031 6.738-.008 17.513.051 23.945l.106 11.695-3.301.533A942.076 942.076 0 0 0 352 50.101c-3.575.63-9.425 1.245-13 1.366-6.599.224-37.819 3.813-66 7.588-8.525 1.141-17.975 2.2-21 2.352-3.025.152-8.964.632-13.198 1.068-7.574.779-16.434-1.451-26.038-6.553-2.681-1.424-2.764-1.285-2.764 4.637 0 3.422-.381 5.323-.992 4.946-.93-.575-.346-48.4.604-49.422.214-.229.388 3.034.388 7.25 0 4.217.354 7.667.787 7.667.433 0 .863 1.013.956 2.25.345 4.612 1.323 6.634 3.509 7.252 1.237.349 3.693 1.372 5.459 2.273 4.252 2.169 4.254 2.165 4.749-10.13.236-5.861.706-11.104 1.044-11.651.338-.547-.425-1.024-1.695-1.061-3.154-.091 4.615-2.486 10.886-3.356 8.027-1.113 10.35-2.404 10.105-5.617-.168-2.201-.857-2.955-3.256-3.56l-3.044-.767 3.85-.383c4.661-.463 4.68-.447 5.373 4.719.469 3.498.879 4.087 2.666 3.832 1.788-.255 2.157-1.087 2.41-5.445l.298-5.143 4.202-.576c2.31-.316 6.033-.824 8.273-1.128 2.239-.304 6.064-.943 8.5-1.421C277.675.577 221.905.174 139.75.11L0 0v95.617M.48 96c0 52.525.121 74.012.27 47.75.148-26.263.148-69.238 0-95.5C.601 21.987.48 43.475.48 96m164.322-80.051c-2.033.396-4.494 1.356-5.468 2.135A446.21 446.21 0 0 1 155.639 21c-1.058.825-2.841 2.512-3.962 3.75S148.725 27 147.608 27c-2.082 0-2.081 0 8.853 5.873 2.179 1.17 4.783 2.127 5.786 2.127 1.003 0 2.947.736 4.319 1.635 1.373.9 2.729 1.403 3.014 1.118 1.199-1.199.884-22.824-.33-22.638-.412.063-2.414.439-4.448.834M14.626 48.204c-1.357 9.484-.568 52.711.952 52.128.782-.3 1.422-1.194 1.422-1.987 0-.792 1.183-2.537 2.63-3.878 2.615-2.424 2.63-2.521 2.722-18.128.066-11.134-.246-15.804-1.073-16.079-.642-.214-.918-1.036-.615-1.827.954-2.486-.524-6.424-2.174-5.791-1.588.609-1.604.571-1.885-4.348-.277-4.862-1.289-4.908-1.979-.09M489.5 44.738c-4.051.593-5.09 1.635-4.94 4.955.427 9.424.396 9.307 2.44 9.307 1.1 0 2-.378 2-.84 0-.462 2.475-1.434 5.5-2.16l5.5-1.319V44l-3.75.15c-2.062.082-5.1.347-6.75.588M452 48.68c-1.925.198-11.6 1.251-21.5 2.339-9.9 1.089-21.038 2.038-24.75 2.109l-6.75.13v37.846l8.75-.611c4.813-.336 9.716-.806 10.896-1.045 1.254-.253 2.37.152 2.687.976.756 1.971-1.626 2.639-5.472 1.536-2.454-.704-3.82-.562-5.557.577-2.591 1.697-3.233 5.033-.788 4.095.834-.32 5.217.064 9.74.854 8.865 1.548 9.994 1.207 9.994-3.018 0-1.881.257-2.277.86-1.325.575.908.864.963.875.166.008-.655-.435-1.469-.985-1.809-.55-.34-1-1.067-1-1.616 0-.548.976-.314 2.168.521 2.518 1.764 2.545 3.797.41 30.74-.708 8.938-1.075 17.062-.816 18.053.259.991.024 1.802-.522 1.802-.581 0-1.066-4.209-1.168-10.141-.128-7.44-.65-11.102-1.959-13.75-.982-1.985-2.814-6.421-4.071-9.859-1.906-5.213-2.671-6.25-4.605-6.25-1.275 0-2.597-.45-2.937-1-.34-.55-2.158-1-4.04-1-3.785 0-5.963 3.932-3.503 6.323.936.911 1.135.755.877-.69-.472-2.64 2.527-4.409 4.582-2.703 2.244 1.863 1.969 3.809-.916 6.482-2.507 2.324-3.501 7.588-1.433 7.588.613 0 .797.853.433 2-.446 1.406-.18 2 .897 2 1.429 0 4.214 3.723 3.396 4.54-.982.982-7.93.723-8.989-.336-.662-.662-2.126-1.228-3.254-1.256-1.987-.051-1.981-.101.2-1.622 1.238-.864 2.25-2.415 2.25-3.448s.45-1.878 1-1.878c2.427 0-.874-12.897-3.321-12.974-1.327-.042-3.645 2.674-2.91 3.409.37.371.011 1.092-.798 1.604s-1.004.937-.434.946c1.455.021 1.605 4.012.151 4.03-.71.009-.584.406.312.985 1.333.862 1.333.973 0 1-1.224.025-1.25.189-.143.89.828.525.968 1.1.36 1.476-.557.344-1.065 5.814-1.15 12.379-.083 6.47-.343 14.603-.577 18.073-.421 6.242-.394 6.319 2.542 7.343l2.968 1.035.09 15.652c.087 14.987.624 36.587 1.336 53.652.183 4.4.663 9.463 1.067 11.25.546 2.419.386 3.275-.63 3.35-.749.055-.238.41 1.137.789 2.898.8 4.095 7.087 1.862 9.778-1.038 1.25-.984 1.685.301 2.404.923.517 1.454 1.916 1.29 3.403-.152 1.389.133 2.526.635 2.526s.912.675.912 1.5.498 1.5 1.107 1.5c.612 0 .828.728.483 1.627-.372.968.091 2.17 1.143 2.968 1.425 1.082 1.477 1.351.267 1.389-1.333.041-1.333.154 0 1.016 1.746 1.129 5.015 1.348 3.5.235-.55-.404-1.101-1.86-1.225-3.235-.123-1.375.027-1.937.334-1.25.307.688 1.533 1.264 2.724 1.28 2.006.029 2.032.109.347 1.089-1.759 1.024-1.759 1.104 0 2.438 1.72 1.304 1.696 1.381-.43 1.411-1.238.018-2.25.482-2.25 1.032s-.562.888-1.25.75c-.764-.153-1.235.818-1.211 2.499.027 1.856-.585 2.948-1.882 3.36-1.36.432-1.564.831-.697 1.366 2.007 1.241 2.533 8.025.622 8.025-.87 0-1.582.4-1.582.889 0 2.286 3.682.232 5.176-2.889 1.009-2.108 1.705-2.804 1.75-1.75.041.962.637 1.782 1.324 1.82.688.039.35.457-.75.93-1.159.498-1.409.889-.595.93 1.065.053.943.587-.5 2.203-1.882 2.107-1.88 2.125.178 1.485 1.479-.459 2.084-.208 2.084.868 0 .832-.825 1.514-1.834 1.514-1.008 0-1.833.45-1.833 1s1.323 1 2.941 1c3.559 0 4.757 1.495 2.33 2.908-1.556.906-1.572 1.035-.129 1.062 1.571.029 3.533 4.689 2.435 5.786-.286.287-3.571 1.021-7.299 1.632-6.561 1.076-6.881 1.266-9.996 5.927-2.73 4.086-3.035 5.108-2.009 6.75.95 1.521.938 2.368-.055 3.958-1.657 2.652-.07 5.725 3.406 6.597 1.411.355 2.186.922 1.721 1.262-3.256 2.38-4.997 13.03-2.962 18.116 1.199 2.998 1.289 4.006.359 4.017-.817.01-.729.347.258.985.825.533 1.167.976.76.985-.407.008.03.915.972 2.015s2.85 1.984 4.24 1.965l2.528-.036-2.5-1.429c-1.637-.936-1.982-1.484-1-1.589 5.286-.565 7.886-.248 10.807 1.317 1.819.975 3.507 1.772 3.75 1.772.244 0 .443-2.7.443-6 0-5.565-.163-5.998-2.25-5.968-1.924.027-2.033.208-.75 1.25 1.779 1.445 2.298 4.99.647 4.421-.631-.217-2.325-.063-3.765.343-2.735.772-8.882-1.464-8.882-3.23 0-.514.399-.687.887-.386.487.301 1.442-.122 2.122-.941 1.029-1.239.88-1.489-.887-1.489-1.455 0-2.122-.628-2.122-2 0-1.1.45-2 1-2 1.355 0 1.27-3.33-.12-4.72-.828-.828.929-1.076 6.711-.95l7.832.17-.289-4.774-.288-4.774 4.327.663c5.259.806 5.44.941 3.847 2.861-1.078 1.299-.882 1.524 1.326 1.524 1.892 0 2.436-.405 2.016-1.5-.365-.95.013-1.5 1.031-1.5.884 0 1.554.337 1.489.75-.442 2.797.27 3.47 3.079 2.908 1.629-.326 3.213-.185 3.521.313.568.919 3.704.65 5.522-.473.548-.339.996-.142.996.437 0 1.253 2.716.933 5.486-.646 1.907-1.088 1.888-1.153-.5-1.66-3.232-.686-23.383-4.338-28.276-5.125l-3.789-.609.289-8.198.29-8.197 13.5-.5 13.5-.5-10-.818c-5.5-.449-11.575-.899-13.5-1l-3.5-.182.315-60c.311-59.287.736-70.608 3.678-98 .827-7.7 1.504-16.129 1.505-18.731.002-4.109.298-4.789 2.252-5.17 2.026-.395 30.403-2.578 54.5-4.192l9.25-.619v-4.962c0-4.53-.176-4.905-2.03-4.317-1.84.585-2.004.264-1.75-3.442.195-2.851.81-4.256 2.03-4.645 2.182-.694 2.629-13.901.5-14.76-1-.403-1-.52 0-.583.864-.055 1.25-2.095 1.25-6.613 0-6.366-.064-6.526-2.462-6.205-1.354.182-2.779.647-3.167 1.035-.387.387-1.478.704-2.423.704-.946 0-2.976.652-4.512 1.449-1.536.797-3.213 1.189-3.726.872-.514-.318-1.221-.123-1.572.433s-2.663 1.291-5.138 1.634c-6.932.959-10.844 2.547-11.52 4.674-.338 1.066-1.245 1.938-2.016 1.938-.871 0-1.17.603-.79 1.593.496 1.293-.21 1.174-3.739-.626-2.738-1.397-4.485-1.817-4.713-1.132-.209.626-1.551.849-3.166.526-2.125-.425-3.162-.047-4.289 1.562-.969 1.382-2.075 1.896-3.175 1.474-1.061-.407-2.197.049-3.058 1.226-.754 1.031-1.681 1.563-2.061 1.183-1.53-1.529 3.615-6.732 7.318-7.401 3.528-.638 7.209-3.297 7.209-5.208 0-.488-2.896-3.013-6.436-5.612-8.889-6.526-8.675-6.117-7.683-14.674.703-6.062.89-6.592 1.025-2.911.31 8.457 5.753 12.419 11.703 8.52 1.258-.824 2.515-1.128 2.795-.676 1.009 1.634 6.713-.093 8.298-2.511 1.822-2.782 2.276-8.572.987-12.583-.934-2.904-1.904-3.076-11.689-2.07M75.75 51.778c-.963.203-1.75.812-1.75 1.354s.414.73.919.418c.506-.313 1.715.223 2.687 1.191 1.69 1.681 1.665 1.774-.556 2.096-1.278.186-2.705-.264-3.172-1-.466-.735-.854-.87-.863-.3-.026 1.756-11.602.147-13.899-1.932-1.801-1.63-2.196-1.668-3.525-.339-1.664 1.664-9.008 2.116-11.626.715-1.795-.96-2.695 5.004-3.156 20.92-.175 6.029-.245 5.778-.809-2.901l-.617-9.5-.113 11c-.061 6.05.081 10.538.317 9.974.237-.564 2.175-.859 4.307-.656 5.799.553 53.371-5.281 68.106-8.352.825-.172 1.811-.347 2.19-.389.38-.043.595-1.309.48-2.816-.169-2.188-.709-2.741-2.69-2.75-1.364-.006-3.068-.798-3.787-1.761-1.658-2.221-4.006-2.229-6.446-.021-1.814 1.642-1.963 1.636-2.946-.12-.836-1.494-1.201-1.586-1.903-.479-.611.965-.872.543-.883-1.428-.009-1.697-1.014-3.724-2.556-5.153-1.829-1.695-2.18-2.523-1.25-2.957.71-.33.063-.438-1.437-.239-2.033.269-2.889-.145-3.359-1.628-.512-1.611-.819-1.727-1.617-.607-.804 1.128-.896 1.1-.504-.154.316-1.008-.167-1.535-1.406-1.535-2.202 0-2.132-.205-.974 2.839 1.163 3.061-.363 6.075-1.889 3.732-.538-.825-.707-2.4-.376-3.5.331-1.1.231-1.648-.221-1.219-.452.43-1.295-.04-1.874-1.045-.579-1.005-1.839-1.661-2.802-1.458m91.413 32.743c-1.278 1.624-2.85 2.984-3.493 3.023-1.843.111-5.1 1.706-5.887 2.883-.394.59-1.295 1.082-2.001 1.092-.707.011-2.397.798-3.756 1.75S149.971 95 150.48 95c.509 0-.85 1.818-3.02 4.041-3.201 3.278-3.67 4.211-2.482 4.946.805.497 1.078 1.266.606 1.709-.472.442-1.054.254-1.295-.418-.28-.784-1.305-.285-2.863 1.396-2.272 2.452-2.845 3.72-2.534 5.606.241 1.467-2.889 6.619-4.642 7.64-1.08.629-1.249 1.031-.441 1.05.72.016 1.062.429.761.917-.301.487.122 1.442.941 2.122.819.68 1.489 2.292 1.489 3.582 0 1.675.429 2.181 1.5 1.771 1.938-.744 1.91.086-.071 2.067-.929.928-1.104 1.571-.429 1.571 1.655 0 4.029 2.625 3.202 3.541-.386.429-.163.47.496.093.803-.461 1.069-.019.807 1.339-.215 1.115.034 2.027.552 2.027 2.394 0 5.03 2.009 4.274 3.258-.252.416.245 1.461 1.105 2.321 1.712 1.712 2.173 4.915.564 3.921-.55-.34-1 .309-1 1.441 0 1.132.431 2.059.958 2.059.527 0 .834 1.575.682 3.5-.152 1.925.14 3.5.649 3.5s.666.675.349 1.5c-.384 1.002.042 1.5 1.284 1.5 2.642 0 3.662 12.414 1.709 20.8-.328 1.407-.019 2.497.794 2.81 1.027.394 1.081 1.038.238 2.825-1.874 3.97-5.065 2.908-10.688-3.558-2.862-3.29-6.288-6.165-7.792-6.538-1.475-.366-4.083-2.187-5.794-4.046-3.043-3.307-3.107-3.576-2.92-12.457.186-8.871-.994-16.831-2.941-19.836-1.13-1.744-1.349-2.748-2.08-9.5-.611-5.652-2.259-10.5-3.569-10.5-.484 0-.879-.638-.879-1.417s-.338-1.566-.75-1.75c-.412-.183-1.875-2.546-3.25-5.251a562.725 562.725 0 0 0-4.691-9c-1.205-2.245-2.218-4.869-2.25-5.832-.032-.963-.466-1.75-.964-1.75-.498 0-1.51-1.912-2.25-4.25L102.5 89.5l-10 .098c-12.228.121-50.524 4.256-52.25 5.643-.969.778-1.25 11.988-1.25 49.913 0 38.269-.272 48.987-1.25 49.267-6.987 2.003-10.436 3.901-11.953 6.576-1.84 3.243-3.797 3.974-3.797 1.42 0-.871-.484-1.422-1.075-1.225-.591.197-.938.572-.77.833.168.261-1.028 1.972-2.658 3.802-1.836 2.06-3.1 4.711-3.319 6.962-.366 3.762-3.385 10.603-5.164 11.702-.558.345-1.014 2.424-1.014 4.62 0 3.513.351 4.115 2.92 5.011 4.166 1.452 4.347 2.926 1.458 11.884-2.653 8.223-2.708 10.343-.602 22.906.99 5.905 3.47 8.787 8.412 9.776 3.325.665 3.536 1.712.812 4.044-1.1.942-2 2.025-2 2.407 0 1.099 13.826 5.086 15.039 4.337.6-.371 2.544-.402 4.32-.068 2.813.527 3.384 1.181 4.423 5.067 1.772 6.624 4.77 7.855 17.061 7.003l9.657-.669 4.397 3.345c2.418 1.84 5.343 3.994 6.5 4.785a54.113 54.113 0 0 1 4.103 3.181c1.1.958 3.889 1.956 6.197 2.219 2.308.262 4.623.741 5.145 1.063.522.323 1.221-.123 1.553-.99.905-2.356.731-3.608-.402-2.908-.554.343-1.287-.107-1.629-.998-.342-.892-1.19-1.403-1.883-1.137-1.565.6-5.74-3.14-4.944-4.429.319-.517.172-.94-.328-.94-1.114 0-.437-7.706.896-10.196 2.446-4.571 17.568-1.722 22.601 4.258 1.359 1.616 2.959 2.938 3.554 2.938 2.412 0 4.707 3.193 3.678 5.116-.715 1.336-.59 2.503.444 4.124 1.164 1.825 1.218 2.919.28 5.685-1.652 4.869-2.733 4.776-8.786-.751-4.469-4.08-5.756-4.768-7.626-4.074-1.237.46-2.257 1.413-2.265 2.118-.011.912-.327.849-1.095-.218-.91-1.266-.991-1.227-.516.25.327 1.017.052 1.752-.655 1.754-.671.002.191.863 1.915 1.915 1.724 1.051 4.362 3.52 5.862 5.487 2.061 2.702 3.251 3.445 4.87 3.038 3.883-.974 12.124 8.833 16.242 19.33.284.726 14.744 4.226 17.456 4.226 6.538 0 10.619-7.442 7.943-14.481-.76-2-.608-3.198.649-5.117 1.236-1.886 1.358-2.788.493-3.653-1.675-1.675-1.44-2.296 1.351-3.567 4.36-1.987 2.515-7.681-3.603-11.12-3.444-1.936-5.227-4.866-3.147-5.172 5.014-.738 13.274-.333 15.45.757 3.67 1.839 4.26 1.73 5.752-1.058 2.613-4.882-2.405-17.202-10.988-26.977-4.715-5.37-6.303-10.915-3.915-13.668 3.323-3.832 3.496-8.338.57-14.859-1.441-3.209-2.619-6.356-2.619-6.993 0-.637-1.04-3.281-2.311-5.875-2.42-4.938-2.378-12.555.077-14.072.609-.377.963-2.011.785-3.63-.178-1.62-.101-3.523.17-4.23.73-1.901 3.255-1.559 3.431.465.084.963.203 2.252.265 2.864.062.613.771 1.907 1.574 2.875.804.969 1.326 3.055 1.16 4.636-.196 1.867.163 2.88 1.024 2.89.983.012.938.265-.175.985-.825.533-1.162 1.033-.75 1.11a37.4 37.4 0 0 1 1.75.39c.55.137 1.626.306 2.391.375.97.087 1.289 1.178 1.054 3.6-.185 1.911.097 3.742.626 4.069.529.327.633 1.125.232 1.774-1.271 2.058-1.095 15.054.243 17.91.703 1.5 1.04 3.637.75 4.75-.291 1.112-.055 2.022.525 2.022 1.043 0 1.208.792 1.32 6.35.041 2.031.367 2.542 1.132 1.777 1.02-1.02 2.566-185.629 1.597-190.593-.347-1.773-.613-1.676-2.707.987M295.5 92.609c-34.1 3.524-66.725 6.861-72.5 7.416-12.846 1.236-13.676 1.483-14.293 4.261-.271 1.218-.561 10.629-.645 20.913l-.152 18.7 4.295 1.118c23.667 6.162 26.795 7.237 26.795 9.216 0 1.641-.453 1.87-2.621 1.326-2.765-.694-2.819-.225-.764 6.691.34 1.143-.023 1.75-1.048 1.75-.862 0-1.567.675-1.567 1.5s.842 1.5 1.871 1.5c1.547 0 1.99 1.051 2.557 6.068.378 3.337.954 6.764 1.281 7.616.5 1.303.253 1.366-1.557.397-1.184-.633-2.152-1.811-2.152-2.616 0-.806-.498-1.465-1.107-1.465s-.848.675-.531 1.5c.842 2.196-.307 4.458-1.945 3.83-.946-.363-1.417.156-1.417 1.563 0 1.159.506 2.107 1.125 2.107.72 0 .906 1.094.517 3.038-.435 2.175-.188 3.199.87 3.605.812.312 1.228.969.923 1.462-.304.492.036.902.756.91.949.011.897.278-.191.97-1.236.786-1.28 1.308-.25 2.971 1.777 2.867 1.547 5.044-.532 5.044-1.485 0-1.738.752-1.519 4.5.276 4.709-.543 5.513-3.056 3-1.64-1.64-3.643-1.997-3.643-.65 0 .467-1.8.67-4 .45-2.863-.286-4-.022-4 .931 0 1.85 5.994 4.019 7.547 2.73.66-.547 1.932-.715 2.826-.371 1.78.683 2.229 2.41.627 2.41-.55 0-1 1.602-1 3.559 0 2.01-.416 3.302-.956 2.968-.526-.325-.746-1.14-.488-1.811.592-1.545-3.219-4.07-4.069-2.696-.333.539-.128.98.454.98.582 0 1.023.787.98 1.75-.047 1.045-.282 1.247-.583.5-.278-.688-1.098-1.25-1.824-1.25-1.64 0-3.786 5.714-2.454 6.537.849.525 1.366-.837 1.058-2.787-.342-2.171 2.776-.337 3.4 2l.735 2.75 1.124-2.589c.618-1.425 1.686-2.4 2.373-2.167.688.232 1.25-.065 1.25-.661 0-2.196 1.806-.996 2.508 1.667 1.478 5.61 1.292 9.01-.468 8.55-1.178-.308-1.614.219-1.56 1.886.092 2.859 2.565 6.814 4.261 6.814.692 0 1.259.499 1.259 1.108 0 .683.96.868 2.5.481 1.845-.463 2.5-.229 2.5.892 0 .835-.513 1.519-1.14 1.519-.627 0-1.672.728-2.322 1.617-1.088 1.488-1.444 1.483-4.428-.06-4.341-2.245-6.381-1.421-2.362.953 1.742 1.029 3.682 3.113 4.311 4.632.629 1.518 2.223 3.468 3.542 4.332 1.371.899 2.385 2.526 2.366 3.799l-.034 2.227-1.877-2.25c-1.032-1.237-2.142-2.25-2.466-2.25-1.331 0-.438 2.061 1.91 4.409 1.536 1.536 2.473 3.578 2.43 5.296-.059 2.329-.197 2.473-.828.861-.52-1.329-.986-1.563-1.489-.75-1.098 1.779-2.185 1.437-3.393-1.066-1.056-2.191-1.086-2.175-1.152.594-.049 2.036.5 2.992 1.932 3.366 1.122.294 2 1.364 2 2.438 0 1.053.675 2.174 1.5 2.49 1.722.661 2.123 7.362.441 7.362-.582 0-.781-.45-.441-1s-.053-1-.874-1c-.82 0-1.777-.9-2.126-2-.392-1.236-1.469-1.97-2.817-1.921-1.201.043-1.62.306-.933.583 1.626.656 1.648 5.419.024 5.088-.675-.137-1.381.762-1.57 2-.28 1.839.127 2.25 2.226 2.25 2.075 0 2.57.482 2.57 2.5 0 1.976.506 2.5 2.413 2.5h2.413l-.354 45.75c-.194 25.163-.38 46.553-.413 47.533-.054 1.623-1.152 1.764-12.169 1.561-6.661-.123-13.411-.414-15-.647l-2.89-.424-.235-30.136-.234-30.137-.272 30c-.24 26.494-.465 30.143-1.919 31.222-2.855 2.12.714 2.417 45.16 3.763 9.9.3 20.925.709 24.5.909 3.575.2 14.375.668 24 1.039 9.625.372 24.025 1.094 32 1.606 7.975.511 18.663.937 23.75.946L364 397v-63l-4.75-.008c-10.465-.018-116.758-1.27-116.865-1.377-.064-.063-.413-10.015-.777-22.115-.363-12.1-.862-25.15-1.108-29-.245-3.85-.507-14.534-.581-23.743-.073-9.208-.503-16.514-.954-16.235-.452.279-1.071-.287-1.376-1.257-.782-2.486-.419-9.278.467-8.731.404.25.992-.218 1.308-1.04.315-.822.137-1.494-.395-1.494-.533 0-.937-1.238-.899-2.75.06-2.336.186-2.455.836-.792 1.382 3.533 2.076-7.855 2.085-34.208L241 166l3.25.15c3.248.15 3.249.15.34.582l-2.911.432.658 38.168c.362 20.992.659 58.081.661 82.418L243 332h3.899c3.841 0 3.907-.064 4.411-4.25.834-6.929 2.224-11.988 4.524-16.46 1.192-2.316 2.166-4.912 2.166-5.77 0-5.01 7.529-12.64 15.352-15.558 3.219-1.2 6.788-3.258 7.931-4.572 1.143-1.315 2.784-2.423 3.647-2.463 3.92-.183 7.566-3.548 8.127-7.502l.558-3.925.769 5c.423 2.75 1.337 7.057 2.031 9.571 1.361 4.934.575 8.929-1.758 8.929-.774 0-3.215 3.712-5.423 8.25-2.496 5.127-7.085 11.905-12.125 17.907-4.46 5.311-8.109 9.882-8.109 10.157 0 .275 3.344.534 7.431.576 7.186.074 7.55-.039 11.044-3.431 2.08-2.021 5.181-3.834 7.311-4.277 3.808-.791 8.764-7.109 7.752-9.883-.536-1.472 3.575-13.515 4.962-14.534.55-.404-.099-.741-1.441-.75-2.234-.014-2.292-.124-.684-1.3 2.832-2.07 3.186-8.649.74-13.713-1.156-2.392-1.912-4.539-1.68-4.77 1.021-1.021 5.905 8.604 6.344 12.504.452 4.01 2.221 7.153 2.221 3.945 0-.79.707-2.022 1.57-2.739 1.165-.967 1.488-2.739 1.25-6.873-.278-4.846-.093-5.531 1.43-5.275.962.161 1.75-.124 1.75-.634 0-1.242 3.487-2.095 4.928-1.204.831.513.861 1.468.111 3.442-.572 1.503-1.039 4.304-1.039 6.226 0 1.922-.419 3.235-.931 2.919-1.55-.959-2.144 1.13-1.101 3.873 1.321 3.476 3.23 3.348 2.494-.166l-.576-2.75 1.522 2.5c2.048 3.366 1.963 4.629-.475 7.067-2.001 2.001-4.933 1.333-4.933-1.124 0-.447-.502-2.08-1.116-3.628l-1.116-2.815-1.25 3.5c-.985 2.759-.992 4.029-.034 6 .668 1.375 2.47 7.14 4.004 12.812 1.534 5.671 3.116 9.946 3.516 9.5 3.89-4.339 7.862-11.848 6.428-12.152-1.228-.26-1.427-.963-.849-3 .414-1.463.791-3.672.835-4.91.102-2.79.321-2.793 2.553-.038l1.792 2.213 3.618-7.322c3.639-7.363 4.694-11.885 2.449-10.498-.787.486-.961.178-.531-.941.904-2.356-.283-5.305-1.408-3.498-.474.762-.795-2.598-.749-7.83.045-5.04-.242-9.689-.638-10.33s-.67-4.515-.609-8.609c.07-4.603-.461-8.817-1.391-11.042-2.414-5.777-2.046-8.708.996-7.944 2.527.634 3.56-.814 1.25-1.752-.891-.361-.934-.744-.148-1.333 2.259-1.693 4.626-8.283 3.946-10.989-.917-3.656-4.208-7.775-4.879-6.107-.315.783-.541.599-.59-.48-.043-.963.371-1.75.921-1.75 1.572 0 1.167-2.722-.5-3.362-.825-.316-1.5-1.274-1.5-2.129 0-2.107-8.731-7.509-12.137-7.509-1.51 0-3.022-.448-3.361-.996-.388-.628-1.701-.435-3.548.52-1.613.834-3.275 1.565-3.694 1.624-.418.058-1.287.309-1.932.556-.644.248-2.077-.035-3.184-.627-2.993-1.602-7.144-1.356-7.144.423 0 .825-.473 1.5-1.051 1.5-2.226 0-4.213 7.157-3.038 10.946 2.654 8.561 2.999 12.261 1.376 14.738-1.463 2.234-1.417 2.549.702 4.805l2.269 2.414-2.112 3.299c-1.162 1.814-2.176 2.96-2.254 2.548-.422-2.231-.923-6.722-1.143-10.25-.137-2.2-.699-4.321-1.249-4.714-.55-.392-1.045-5.567-1.1-11.5-.056-5.932-.217-11.011-.36-11.286-.814-1.572-.775-9.614.051-10.61.539-.649.91-1.564.826-2.035-.447-2.486.275-3.467 2.333-3.175 1.57.223 2.318 1.075 2.474 2.82.123 1.375-.027 1.938-.334 1.25-.785-1.763-2.39-1.556-2.39.309 0 .857.408 1.307.907.999.498-.309.684.289.413 1.328-.272 1.038-.005 2.191.593 2.56.598.37 1.087.019 1.087-.78s.675-1.711 1.5-2.028c.825-.316 1.5-1.489 1.5-2.607 0-1.117.45-2.031 1-2.031s1.007-.787 1.015-1.75c.013-1.496.157-1.532.985-.25.805 1.245.978 1.16 1.017-.5.031-1.279 1.299-2.586 3.516-3.624 4.135-1.936 4.131-1.95.987 3.682-2.741 4.908-1.68 5.903 3.015 2.827 1.443-.946 2.465-1.166 2.465-.531 0 .596.675.824 1.5.508.825-.317 1.5-1.209 1.5-1.984 0-.774 1.238-2.19 2.75-3.148 3.756-2.376 3.767-3.877.034-4.623-2.973-.595-3.037-.702-1.217-2.032 1.056-.773 2.148-1.073 2.427-.667.798 1.163 4.199 2.213 3.499 1.081-.336-.544-.183-.989.341-.989s1.19.619 1.48 1.376c.309.806 1.494 1.211 2.857.977 1.281-.22 3.004.06 3.829.623 2.229 1.522-.679 3.193-4.25 2.443-2.365-.497-2.75-.259-2.75 1.702 0 1.772.267 2.012 1.2 1.079 1.735-1.735 3.276-1.478 1.8.3-.685.825-.91 1.5-.5 1.5.41 0 .244.604-.369 1.342-1.331 1.604-.495 2.735 1.467 1.982.817-.313 1.402.085 1.402.955 0 .821.616 2.681 1.37 4.133l1.37 2.64.63-3.151c1.005-5.025.811-5.761-1.37-5.191-2.547.666-2.578-1.132-.062-3.647 1.318-1.319 1.557-2.093.75-2.422-.654-.266-.149-.519 1.121-.562 1.577-.054 2.081.317 1.59 1.171-.396.688-.36.925.079.528 1.355-1.224 7.979 7.249 8.681 11.103.363 1.991.426 8.911.141 15.379-.483 10.955-.397 11.714 1.252 11.082 1.495-.574 1.654-.304 1.028 1.739a82.22 82.22 0 0 0-1.307 4.919c-.31 1.375-1.177 2.862-1.925 3.303-1.013.598-1.096 1.299-.324 2.741 1.218 2.278-1.27 8.1-3.291 7.699-1.627-.323-2.692 10.746-1.421 14.757 1.703 5.372 3.622 6.427 2.98 1.638-.701-5.226-.016-5.205 3.444.105 4.818 7.396 8.78 10.757 12.681 10.757 2.263 0 3.841.613 4.503 1.75 1.429 2.454 2.141-143.387.727-149.019-.85-3.389-3.236-4.055-14.155-3.951-10.039.095-16.506 1.758-12.992 3.341 1.297.584-.761.729-5.849.411-6.647-.415-7.762-.264-7.281.989.456 1.189-.552 1.509-5.151 1.631-7.565.202-7.955.251-8.815 1.111-.406.405-1.787.737-3.071.737-1.283 0-2.333.45-2.333 1s-.702 1-1.559 1-1.316.394-1.018.875c.298.482-3.163.887-7.691.901-11.149.035-18.989.647-20.536 1.603-.713.44-1.927.259-2.73-.407-1.175-.976-1.623-.758-2.393 1.164-.6 1.499-.969 1.773-1.01.75-.062-1.592-6.028-2.152-8.563-.805-.55.292-2.575.646-4.5.785-1.925.14-4.719 1.127-6.21 2.194-1.49 1.067-3.376 1.94-4.19 1.94-.815 0-1.76.45-2.1 1-2.056 3.327-2.521-.514-2.271-18.75l.271-19.75 3.315-.318c1.824-.175 3.961.217 4.75.872 1.134.941 1.435.887 1.435-.26 0-1.155 3.213-1.699 15.75-2.667 8.663-.668 19.8-1.639 24.75-2.157 4.95-.518 18.45-1.882 30-3.032 32.543-3.24 44.516-4.621 45.096-5.2.293-.294.229-2.155-.143-4.136-.841-4.484 6.761-4.816-68.953 3.007M20.422 114.095c-5.825 7.592-6.518 10.321-6.333 24.932.098 7.711.464 14.197.814 14.413.351.217.569 2.429.485 4.915-.107 3.195.287 4.69 1.343 5.095.916.352 1.294 1.345.976 2.562-.286 1.093-.112 1.988.387 1.988.498 0 .906 1.575.906 3.5s.45 3.5 1 3.5.926-.338.836-.75c-.09-.412.148-1.875.53-3.25 1.194-4.297.295-58.519-.944-56.905M208 156.428v8.828l3.917-.627c3.619-.578 3.987-.418 4.831 2.115l.914 2.741.708-2.824c.54-2.152-.142-4.617-2.872-10.368-4.12-8.68-5.779-9.437-2.011-.918 2.927 6.619 2.948 6.729 1.13 6.032-.76-.292-2.168-3.09-3.128-6.219-2.688-8.756-3.489-8.472-3.489 1.24m190.683.956c-.29.755-.57 32.631-.623 70.836-.082 59.257.121 69.964 1.383 72.872 1.323 3.049 1.483-4.35 1.518-70.283.035-66.43-.339-78.479-2.278-73.425m-80.5 80.695c-1.732 2.774-1.507 4.983.432 4.238 1.245-.477 1.475-.176 1.003 1.313-.408 1.284.056 2.414 1.384 3.372 2.756 1.986 2.5 2.998-.759 2.998-1.516 0-4.21.417-5.986.926-1.777.51-3.405.622-3.618.25-.589-1.024.937-4.674 1.962-4.691 1.779-.031 3.397-1.636 3.32-3.294-.049-1.041-.273-1.211-.583-.441-.693 1.716-4.338 1.584-4.338-.156 0-.944.702-1.223 2.134-.849 1.537.402 2.003.166 1.667-.843-.558-1.674-5.801-1.994-5.801-.353 0 .627-.9 1.956-2 2.951-1.1.995-2 2.389-2 3.096 0 .707-.498 1.594-1.107 1.97-.77.476-.898-.268-.42-2.441.401-1.828.282-3.125-.287-3.125-1.161 0-2.186 2.405-2.186 5.13 0 1.081-1.055 2.957-2.344 4.168-2.857 2.683-3.973 6.737-2.718 9.869.515 1.283.964 1.771.999 1.083.034-.687.738-1.25 1.563-1.25s1.5-.505 1.5-1.122c0-.776.464-.738 1.5.122 1.279 1.061 1.5.785 1.5-1.878 0-2.108.487-3.122 1.5-3.122.933 0 1.5.944 1.5 2.5 0 1.375-.505 2.5-1.122 2.5-.781 0-.747.453.111 1.486.678.818 1.048 3.068.823 5-.433 3.704.036 4.266 1.955 2.347.89-.89 1.326-.711 1.835.75 1.916 5.502 4.679 10.769 5.085 9.693.255-.674-.246-2.236-1.112-3.473-1.957-2.793-2.051-4.443-.164-2.877 1.013.84 1.602.861 2.089.074.492-.796 1.041-.796 2 0 .961.797 1.51.792 2.011-.018.379-.613.532-1.231.339-1.372a379.886 379.886 0 0 0-3.85-2.636c-3.927-2.668-4.962-3.872-4.985-5.797-.01-.903.821-.665 2.62.75 3.618 2.846 5.741 2.604 8.776-1.004 1.424-1.692 2.589-2.57 2.589-1.95 0 1.688-2.932 7.027-3.859 7.027-.444 0-.808.665-.808 1.477 0 1.006.677 1.308 2.121.945 1.639-.411 2.373.106 3.227 2.273 1.021 2.589 1.114 2.63 1.213.524.058-1.255.781-2.541 1.606-2.857.898-.345 1.494-1.837 1.485-3.719-.012-2.397-.246-2.787-.985-1.643-.79 1.222-.972 1.098-.985-.668-.021-3.035 1.026-5.424 2.09-4.767.492.304.895-.572.895-1.947s-.472-2.791-1.048-3.148c-.576-.356-.938-1.395-.805-2.309.302-2.064-3.002-8.474-6.865-13.319-2.731-3.425-2.992-3.537-4.099-1.763M207.351 264c.01 13.904.239 18.674.649 13.5l.633-8 .333 9.5.334 9.5.779-14.344c.428-7.889 1.022-14.976 1.319-15.75.306-.799-.071-1.406-.875-1.406-.967 0-1.532 1.5-1.788 4.75l-.375 4.75-.18-5.25c-.101-2.953.257-5.25.82-5.25.58 0 .922-2.627.815-6.25l-.185-6.25-.514 5.5-.513 5.5-.634-6c-.348-3.3-.626 3.675-.618 15.5m7.851 3.5c.046 6.041.242 7.143.798 4.5l.737-3.5.131 3.719c.102 2.864.477 3.586 1.632 3.143 1.102-.423 1.536.182 1.636 2.281.117 2.446.2 2.525.577.549.691-3.617 2.832-1.955 2.456 1.907-.23 2.351-.009 3.088.714 2.387 1.583-1.535 1.891-8.041.367-7.736-.879.176-1.301-1.604-1.423-6l-.172-6.25L222 269l-.655 6.5-.335-7-.336-7L220 267l-.674 5.5-.163-5.75c-.09-3.163-.613-5.75-1.163-5.75s-1.032.563-1.07 1.25c-.039.688-.457.35-.93-.75-.569-1.324-.839.702-.798 6M61.2 316.2c-3.839 3.839 1.479 8.8 9.435 8.8 2.951 0 5.294-.337 5.206-.75-.087-.413.199-1.572.637-2.578 1.083-2.488-.926-4.156-6.671-5.541-5.921-1.427-7.121-1.417-8.607.069m-27.379 37.912c-2.003 1.241 1.241 5.965 5.675 8.265 4.086 2.121 20.05 3.39 22.4 1.781 2.247-1.54.511-3.968-3.593-5.026a911.232 911.232 0 0 1-9.803-2.616c-9.949-2.714-13.293-3.262-14.679-2.404M89 359.461c-1.375.764-5.142 1.978-8.371 2.697-3.229.72-6.092 1.884-6.362 2.588-.735 1.916 1.659 4.254 4.355 4.254 2.518 0 3.134 1.844 1.248 3.73-1.696 1.696 6.115 15.474 12.718 22.432 3.503 3.692 11.329 2.391 9.787-1.627-.618-1.61 2.231-4.535 4.417-4.535.907 0 4.025-.552 6.929-1.227 6.776-1.576 6.72-3.019-.339-8.773-10.731-8.747-16.442-14.68-15.783-16.397 1.499-3.908-3.763-5.831-8.599-3.142m312.692 28.198c.476 11.021.345 14.482-.529 13.941-.64-.395-1.163-.314-1.163.18 0 .495-1.238 1.483-2.75 2.197l-2.75 1.299 2.61.738c1.436.406 8.186 1.033 15 1.392 6.815.36 28.535 1.541 48.268 2.624 19.733 1.084 36.72 1.97 37.75 1.97 1.602 0 1.872.792 1.872 5.5v5.5l-3.25-.005c-1.788-.002-18.325-.908-36.75-2.013-63.85-3.828-72.449-4.151-75.597-2.84-2.724 1.135-2.409 1.259 5.097 2.006 9.937.989 97.033 5.852 104.809 5.852H500v103.176l-3.75-.554c-2.062-.305-6.9-.826-10.75-1.158-3.85-.332-23.762-2.273-44.25-4.313-20.488-2.041-37.25-3.386-37.25-2.991 0 .396 1.688.896 3.75 1.112 2.547.266 1.764.446-2.441.56-14.501.394-4.264 1.983 42.026 6.526 27.041 2.654 49.953 5.04 50.915 5.301 1.373.373 1.75 1.564 1.75 5.533v5.058l-3.231-.646c-1.777-.356-7.515-1.117-12.75-1.693-5.236-.576-13.119-1.645-17.519-2.377-4.4-.731-11.375-1.396-15.5-1.478-4.125-.081-8.175-.343-9-.581-1.935-.558-42.342-4.487-51.5-5.007-13.131-.746.374 1.258 27 4.006 13.75 1.419 37.498 3.918 52.773 5.553 15.275 1.635 28.212 2.973 28.75 2.973.586 0 .977 5.202.977 13v13h-2.928c-1.61 0-6.222-.424-10.25-.942A937.775 937.775 0 0 0 475 568.613c-2.475-.277-5.85-.764-7.5-1.083-1.65-.319-5.7-.777-9-1.019-3.3-.242-10.95-1.117-17-1.945-6.05-.827-21.35-2.648-34-4.046-12.65-1.398-24.034-2.987-25.297-3.531-1.263-.544-3.478-.989-4.921-.989-1.444 0-3.335-.62-4.203-1.378-1.391-1.214-8.359-2.874-17.579-4.188-1.65-.235-18.975-2.219-38.5-4.408-19.525-2.189-37.525-4.225-40-4.523-13.62-1.645-49.677-5.448-57-6.012-4.675-.36-10.525-.836-13-1.057-3.986-.356-21.144-.506-26.5-.231-1.1.056-5.779-.255-10.397-.692-6.385-.605-8.221-.511-7.664.391.403.652.324 1.728-.176 2.392-3.336 4.426.469 7.228 11.237 8.276 2.75.268 6.8.693 9 .944s7.185.614 11.079.806c3.893.193 7.493.587 8 .877 1.762 1.007 6.955 1.996 12.421 2.365 6.393.431 16.767 2.127 22.5 3.677 3.821 1.034 3.888 1.119 1.5 1.908-1.982.654-1.722.737 1.25.402 2.063-.233 3.75-.002 3.75.514 0 .515.787.93 1.75.922 1.505-.013 1.54-.159.25-1.042-1.333-.912-1.333-1.004 0-.827.825.11 2.293-.147 3.262-.57 2.721-1.188 10.738.317 10.738 2.015 0 .792.498 1.439 1.107 1.439s.848-.675.531-1.5c-.841-2.192 3.094-1.928 7.649.514 2.33 1.249 4.664 1.785 6.148 1.413 1.666-.418 3.025.033 4.478 1.486 2.03 2.03 5.76 2.985 4.652 1.192-.926-1.498 2.124-2.056 5.628-1.03 1.819.533 4.772 1.031 6.561 1.109 1.79.077 3.049.346 2.798.597-.736.737 2.171 3.219 3.77 3.219.805 0 1.741.722 2.079 1.604.375.975 1.244 1.363 2.219.988 1.144-.439 1.437-.182 1.023.897-.448 1.166.198 1.511 2.829 1.511 4.142 0 5.835-1.951 1.837-2.116-1.714-.071-2.122-.295-1.047-.576.969-.253 1.504-.877 1.189-1.387-.315-.511-1.622-.665-2.903-.344-1.281.322-2.604.141-2.94-.402-.351-.568 1.405-1.264 4.141-1.64 6.052-.833 6.821-.64 6.438 1.618-.406 2.4 1.432 2.411 2.059.013.404-1.544 1.333-1.786 5.867-1.529 2.963.168 7.054.309 9.091.314 2.688.005 4 .562 4.785 2.028.595 1.112.953 2.053.796 2.092-.157.039-2.07.287-4.252.551-4.936.596-5.267.915-2.491 2.4 1.354.725 2.454.816 2.835.235.343-.522 1.858-1.251 3.367-1.621 1.509-.369 2.634-1.199 2.5-1.844-.134-.645.544-1.345 1.506-1.556 1.163-.254 1.755.229 1.765 1.441.012 1.428.205 1.524.89.443.669-1.057 2.012-1.192 5.734-.575 2.674.443 5.161.839 5.528.88.366.041 1.004.412 1.416.825.413.413 1.575.75 2.584.75 1.008 0 1.833.45 1.833 1s1.238.993 2.75.985c1.887-.011 2.331-.281 1.416-.861-1.89-1.199.649-2.091 3.28-1.154 1.823.65 1.801.732-.35 1.295-1.286.336-2.007 1.07-1.638 1.668 1.219 1.971 3.319 1.091 4.015-1.682.631-2.513.8-2.598 1.969-1 1.607 2.199 3.705 2.296 2.875.134-.508-1.325-.188-1.474 1.782-.829 1.32.433 3.301.736 4.401.674 1.869-.106 1.886-.029.25 1.188-2.392 1.78-2.209 2.328 1 2.994 7.052 1.464 10.25 1.45 10.25-.046 0-.816-.423-1.223-.939-.903-1.404.867-9.11-.575-8.484-1.588.699-1.131 5.143-1.138 5.84-.009.294.476 1.586.665 2.87.419 3.48-.665 5.635 2.288 3.111 4.264-1.77 1.386-1.663 1.468 1.602 1.219 2.208-.169 3.404-.74 3.241-1.546-.351-1.729 2.478-2.7 4.055-1.391.864.717 2.654.743 5.598.081 2.932-.658 4.735-.634 5.589.074.944.784 1.575.289 2.51-1.97 1.654-3.991 3.016-3.849 2.352.246-.729 4.495 3.008 8.344 5.196 5.351 1.526-2.087 12.98-2.002 14.288.106.385.621 5.053 1.23 10.959 1.431 7.276.247 10.533.747 11.125 1.707.584.947 1.044 1.022 1.522.248.914-1.479 8.807-.243 9.865 1.544 1.052 1.778 2.7 1.73 2.7-.078 0-1 1.049-1.375 3.496-1.25 1.922.098 3.497.461 3.5.807.011 1.583-3.088 2.98-5.198 2.342-1.507-.455-1.954-.357-1.298.285 1.419 1.392 7.316 2.352 7.967 1.298.3-.485-.02-1.11-.711-1.389-.946-.381-.956-.526-.037-.585.67-.043.957-.759.638-1.59-.408-1.063-.12-1.335.969-.918.917.352 1.301 1.238.942 2.172-.622 1.622.63 1.549 5.146-.299 1.357-.556 1.702-.44 1.184.398-.48.775.316 1.391 2.316 1.791l3.046.609.022 80.548c.012 44.301.246 80.771.52 81.045.274.274.4-81.814.281-182.418-.12-100.604-.361-177.292-.535-170.417l-.318 12.5-15.715.094c-9.296.056-14.081-.204-11.715-.636 2.225-.406-2.434-.596-10.5-.427-8.287.174-12.143.012-9-.377 4.422-.548 2.589-.798-9.353-1.276-8.169-.326-15.144-1.04-15.5-1.584-.356-.545-3.294-1.295-6.529-1.667-8.151-.936-10.849-2.63-7.493-4.704 1.025-.634.938-1.196-.415-2.691-2.141-2.365-2.161-3.924-.076-6.009 1.071-1.071 1.243-1.764.5-2.012-.624-.208-1.134-.817-1.134-1.353 0-.537.399-.73.886-.428 1.218.752 2.061-2.898 1.049-4.536-.459-.743-.358-1.885.231-2.594.991-1.194-2.347-3.3-5.231-3.3-.514 0-.935-.45-.935-1s-1.787-1-3.971-1h-3.97l.633 14.659m-268.145-4.926c-3.943 4.252-1.417 9.506 5.165 10.741 1.969.369 4.636 1.363 5.927 2.209 1.564 1.025 3.266 1.298 5.104.82 1.516-.394 6.47-.646 11.007-.558 6.191.118 8.248-.167 8.243-1.144-.005-.925-2.102-1.373-7.25-1.549-11.22-.385-13.453-.962-14.128-3.65-.679-2.706-7.917-9.602-10.077-9.602-.802 0-2.597 1.23-3.991 2.733m3.769 21.726c-1.202.859-2.44 1.15-2.751.646-1.853-2.998-6.28 1.691-4.586 4.856 1.435 2.68-2.683 8.439-6.336 8.863-2.136.247-2.919-.164-3.334-1.75-.657-2.512-4.446-2.794-6.738-.503-2.082 2.083-2.084 2.076 2.207 8.506C122.6 435.299 131.713 446 133.596 446c.764 0 2.609 1.369 4.1 3.043 4.603 5.166 9.374 2.867 4.884-2.354-2.346-2.728-2.368-2.905-.749-5.999 2.153-4.114 3.149-4.827 6.043-4.329 1.6.276 2.514-.129 2.805-1.24.237-.907 2.769-2.768 5.626-4.135 4.726-2.261 5.223-2.818 5.501-6.167.832-10.002-17.577-25.307-24.49-20.36m62.184 3.611c5.653 1.63 166.896 9.867 168.173 8.591 1.96-1.96-5.401-2.643-54.673-5.068-29.425-1.449-61.278-3.075-70.784-3.614-21.335-1.209-47.032-1.154-42.716.091m-138.75 6.619c-.962.252-1.75.848-1.75 1.326 0 .477-2.719 2.317-6.042 4.088-6.572 3.503-7.353 5.6-2.668 7.161 2.368.789 3.19.529 5.435-1.716 2.878-2.878 7.272-3.176 8.085-.548.255.825.12 1.18-.3.79-.42-.391-2.057-.042-3.637.776-3.006 1.554-3.834 4.731-1.599 6.134.701.44 2.021 1.977 2.934 3.415 1.101 1.733 3.166 2.994 6.125 3.739 3.61.909 4.664 1.7 5.513 4.135 1.165 3.341 6.667 4.445 7.774 1.559.306-.798 1.982-1.922 3.724-2.496 2.108-.696 4.076-2.551 5.887-5.549 2.399-3.971 3.136-4.503 6.244-4.503 2.993 0 3.523-.339 3.51-2.25-.025-3.897-2.318-7.081-5.735-7.966-1.787-.463-3.25-1.45-3.25-2.195 0-.822-3.293-2.38-8.396-3.971-9.471-2.953-10.723-3.099-12.377-1.445-.897.897-1.778.897-3.747 0-2.677-1.22-2.856-1.235-5.73-.484m59.799 37.061c-.322.962-2.31 2.542-4.418 3.511l-3.832 1.761 1.35 5.207c.743 2.864 1.351 6.459 1.351 7.989 0 2.407.393 2.782 2.917 2.782 1.604 0 3.066.337 3.25.75.906 2.039 8.174 7.251 10.118 7.256 1.218.004 3.424.637 4.901 1.407 3.595 1.876 5.445.4 6.71-5.349 1.295-5.893.074-8.495-8.829-18.814-5.875-6.809-7.626-8.25-10.025-8.25-1.879 0-3.114.619-3.493 1.75m30.835 12.693c-.723 1.884 1.248 4.557 3.361 4.557 1.031 0 1.208.391.566 1.25-1.201 1.607-1.074 2.301 1.438 7.89 3.637 8.091 4.955 7.202 5.395-3.64.234-5.763.147-6-2.2-6-1.805 0-2.576-.653-2.95-2.5-.597-2.945-4.646-4.069-5.61-1.557m53.116 47.106c.55.215 14.95 1.747 32 3.404 17.05 1.657 37.525 3.706 45.5 4.553 66.974 7.111 94.409 9.485 87 7.53-3.432-.906-24.195-3.085-67-7.033-11.825-1.091-30.05-2.893-40.5-4.005-41.526-4.42-60.767-5.922-57-4.449" fill="#d3d3d3" fill-rule="evenodd"/></svg>