<svg xmlns="http://www.w3.org/2000/svg" width="500" height="505"><path d="M.063 16.75c.058 15.222 1.025 19.221 2.359 9.75.715-5.075 1.907-8.414 2.807-7.859.601.372.722-.22.311-1.516C5.083 15.687 5.294 15 6.193 15c.73 0 2.448-1.012 3.817-2.25 1.37-1.238 3.743-2.897 5.275-3.688 1.532-.79 2.571-1.995 2.309-2.677-.671-1.749 1.68-3.452 3.346-2.422 1.583.979 5.949.374 7.682-1.064.793-.658 1.314-.592 1.579.203.302.907.93.898 2.68-.038 1.884-1.008 2.592-.946 4.031.356C38.866 5.189 45 5.584 45 3.941c0-.582.432-.792.959-.466.528.326 1.892.015 3.031-.691 2.105-1.305 2.559-1.031 4.494 2.716.31.601.749.501 1.099-.25.321-.687 1.015-1.25 1.542-1.25.527 0 1.925-.9 3.105-2l2.147-2H0l.063 16.75M101.573.765c1.882 1.289 2.669 4.542.938 3.878-.935-.359-1.511-.007-1.511.924 0 1.152.432 1.272 1.847.515 2.97-1.59 4.439.695 2.077 3.23-1.058 1.136-1.924 2.682-1.924 3.436 0 .753-.45 1.092-1 .752-.55-.34-1-.115-1 .5s-.419.859-.931.543c-.512-.317-1.213-.118-1.559.441-.345.559-1.571 1.016-2.724 1.016-1.967 0-1.994.112-.441 1.829 1.917 2.118 2.132 3.278.542 2.921-.612-.138-1.289.79-1.503 2.061-.229 1.355.02 2.057.602 1.698.581-.359.755.133.421 1.189-.541 1.709-.496 1.712.872.052.793-.962 2.024-1.75 2.737-1.75.712 0 2.688-1.055 4.39-2.344 1.702-1.29 3.769-2.604 4.594-2.921 1.005-.387.754-.603-.758-.656-2.042-.071-2.138-.294-1-2.309 2.805-4.971 5.784-5.612 5.293-1.14-.202 1.841.25 2.763 1.52 3.095.993.259 2.068 1.153 2.387 1.985.395 1.028.12 1.336-.858.961-.791-.304-1.976.096-2.633.888-.848 1.022-.87 1.441-.073 1.441.617 0 1.122.666 1.122 1.48 0 1.719 3.475 1.471 9-.642 4.248-1.624 6.533-3.626 7.414-6.496.843-2.747 3.158-3.641 5.786-2.235 1.361.729 2.264.76 2.677.093.343-.554 2.198-.854 4.123-.667 1.925.186 3.807.368 4.182.403.834.078.407 4.808-.517 5.732-1.046 1.046-.776 2.519.335 1.832 1.962-1.213 2.948.521 1.768 3.11-.903 1.981-.865 3.006.174 4.669.899 1.44.981 2.247.25 2.49-.594.198-.803 1.08-.466 1.96.408 1.062.221 1.356-.556.876-.644-.398-1.17-.246-1.17.336 0 .582.563 1.069 1.25 1.081.688.012.183.843-1.122 1.846-1.9 1.461-2.073 1.939-.873 2.4 2.047.785 10.098-.343 10.869-1.523.37-.567 1.596-.319 3.01.607 1.618 1.06 2.865 1.26 3.876.621.819-.518 3.853-.949 6.74-.958 3.058-.009 5.25-.462 5.25-1.087 0-.589 1.012-.989 2.25-.889 3.834.311 4.75.014 4.75-1.539 0-.825.45-1.5 1-1.5s1-.623 1-1.385c0-1.626 4.226-4.615 6.524-4.615.877 0 1.345-.403 1.041-.895-.305-.493.119-1.153.941-1.469.822-.315 1.494-1.085 1.494-1.71 0-2.967 5.234-7.356 8.443-7.079 3.343.288 5.341-1.206 6.009-4.495.207-1.019.665-2.58 1.018-3.471.443-1.113-.008-1.788-1.442-2.163-3.09-.808-1.104-5.485 2.972-7.002.825-.307-23.7-.587-54.5-.622-30.8-.035-55.517.267-54.927.671M42.597 14.211c-2.149 3.281-5.175 4.515-10.347 4.22-2.368-.134-4.001.163-3.687.671.31.502-.153 1.187-1.029 1.523-1.438.552-1.43.73.084 1.838 1.526 1.115 1.476 1.279-.549 1.809-1.659.433-2.087.218-1.679-.845.301-.785.111-1.427-.421-1.427-.533 0-.969.825-.969 1.833 0 1.009-.68 1.834-1.512 1.834-1.617 0-1.637-3.05-.036-5.608.585-.934.486-1.58-.281-1.835-.651-.217-.929-.806-.618-1.309.311-.503.088-.915-.494-.915S20 16.419 20 16.93c0 .512-1.012 1.085-2.25 1.274-1.238.189-2.138.895-2 1.57.137.674-.088 1.131-.5 1.014-1.511-.427-5.25 2.744-5.25 4.453C10 26.208 9.55 27 9 27s-1 .499-1 1.108c0 .713.982.858 2.75.407 5.487-1.402 6.25-1.396 6.25.042 0 .794-.849 1.443-1.887 1.443-2.112 0-3.362 4.804-1.92 7.381.898 1.604-.671 3.273-1.625 1.729-.313-.507-1.476-.685-2.584-.396-1.503.393-1.866.142-1.431-.992.321-.836.099-1.819-.492-2.184-.591-.366-1.378.124-1.748 1.089-.387 1.008-.172 1.92.507 2.146C7.792 39.431 7.138 41 4.893 41c-1.452 0-1.93.461-1.537 1.485.335.872-.24 1.917-1.393 2.535C.021 46.059 0 48.545 0 275.535V505h90c71.27 0 90.025-.26 90.118-1.25.362-3.812-1.919-9.69-3.05-7.861-.663 1.074-1.278 1.02-3.28-.292-2.313-1.516-2.575-1.489-4.312.43-1.018 1.124-2.517 1.787-3.333 1.474-.816-.313-1.822-.02-2.237.651-.587.95-1.102.93-2.33-.089-1.055-.875-1.576-.937-1.576-.185 0 .617-.408 1.122-.906 1.122-.499 0-.68-.869-.402-1.931.285-1.09 1.083-1.709 1.834-1.421.932.358 1.166-.11.784-1.569-.299-1.143-1.166-2.079-1.927-2.079-.76 0-1.397-.562-1.413-1.25-.017-.694-.484-.471-1.05.5-.591 1.015-2.209 1.75-3.853 1.75-2.069 0-3.018.607-3.518 2.25-.385 1.267-.901 1.728-1.181 1.055-.796-1.91 1.605-5.457 3.449-5.097 1.988.388 5.183-2.078 5.183-4.002 0-1.571 2.409-4.206 3.845-4.206.544 0 1.215-.562 1.493-1.25.403-1 .52-1 .583 0 .134 2.121 2.062 1.382 3.261-1.25.628-1.378 1.984-2.5 3.022-2.5 1.036 0 3.054-1.086 4.485-2.413 1.431-1.327 3.217-2.176 3.969-1.888 1.591.61 4.561-1.535 3.81-2.751-.281-.454.218-1.232 1.107-1.73s1.686-2.1 1.771-3.561c.101-1.734.724-2.656 1.797-2.656.904-.001 1.884-.63 2.179-1.398.612-1.594-4.007-2.922-4.936-1.419-.311.503-1.401-.048-2.423-1.226-1.021-1.178-2.331-1.849-2.91-1.491-.579.358-1.053-.077-1.053-.967 0-.981.461-1.333 1.17-.895.798.493.957.168.5-1.023-.369-.96-.677-2.046-.685-2.414-.009-.367-.452.007-.985.832-.704 1.09-.974 1.142-.985.191-.008-.72-.423-1.057-.921-.749-.498.308-.691 1.382-.429 2.386.324 1.239-.64 2.679-3.004 4.482-2.296 1.75-3.327 3.258-3.026 4.423.435 1.687-4.845 5.1-6.926 4.477-.434-.13-1.672.235-2.75.812-1.52.813-1.959.729-1.959-.378 0-.785 1.238-1.756 2.75-2.159 1.512-.402 2.185-.94 1.494-1.194-.691-.254-1.002-.873-.691-1.376.311-.503.056-.915-.565-.915-1.794 0-4.133-2.819-3.937-4.743.4-3.924-.167-5.248-2.498-5.833-1.346-.338-3.17-1.717-4.053-3.064-.882-1.347-2.714-2.871-4.07-3.387-1.356-.515-2.914-2.116-3.462-3.557-.625-1.645-1.521-2.418-2.409-2.077-.777.298-1.951-.106-2.608-.898-1.469-1.769-4.781-1.907-4.59-.191.076.688-.311 1.361-.861 1.496-.55.136-1.012-1.013-1.026-2.552-.033-3.508-3.546-7.487-5.834-6.609-1.28.491-1.507.232-.988-1.122.567-1.477.239-1.675-2.046-1.238-2.032.388-2.589.172-2.195-.853.289-.754.053-1.372-.526-1.372-.578 0-.855-.563-.615-1.25.241-.687 1.144-1.126 2.008-.973.864.152 2.17-.523 2.902-1.5.732-.978 2.678-2.536 4.325-3.464 2.867-1.615 3.361-3.613.745-3.012-2.534.581-1.152-.939 1.782-1.962 2.331-.813 2.782-1.358 1.951-2.359-1.323-1.594.165-2.744 2.427-1.876.874.335 1.59.112 1.59-.497s-.477-1.107-1.059-1.107-.767-.472-.411-1.049c.45-.728 1.044-.72 1.942.026.956.793 1.454.659 1.904-.515.336-.874 1.063-1.309 1.617-.966.554.342 1.007.148 1.007-.431 0-1.338 5.954-.62 9.698 1.169 3 1.433 8.302 1.242 8.302-.3 0-.514.9-.934 2-.934s2 .45 2 1 .45 1 1 1c1.654 0 1.134-1.866-1.158-4.158l-2.158-2.158 2.158.564c1.455.381 2.158.107 2.158-.842 0-.773-.45-1.406-1-1.406-1.454 0-1.228-4.775.25-5.283.688-.237.462-.312-.501-.167-.964.145-1.5-.145-1.191-.643.308-.499-.217-.907-1.166-.907s-1.452-.273-1.119-.607c.756-.756-1.522-3.334-2.451-2.774-.373.226-.968-.503-1.322-1.619-.354-1.116-1.065-1.769-1.579-1.451-.514.318-1.205-.126-1.535-.986-.33-.859-1.253-1.563-2.052-1.563-.799 0-1.174.45-.834 1 .34.55-.282 1-1.382 1-1.1 0-2.283.457-2.628 1.016-1.058 1.713-2.248.171-1.776-2.301.305-1.596-.447-3.286-2.384-5.353-2.62-2.796-3.05-2.929-5.806-1.799-2.628 1.079-3.183.983-4.75-.824-.976-1.125-1.774-1.568-1.774-.986 0 .583-.838.841-1.862.573-1.182-.309-2.115.171-2.554 1.315-.575 1.5-.84 1.562-1.578.369-.721-1.167-1.25-.969-2.85 1.065-1.78 2.263-2.608 2.483-8.778 2.339-3.747-.088-7.615.341-8.595.954-1.335.833-2.296.793-3.824-.161-1.122-.701-2.472-1.008-3-.682-.527.326-.959.151-.959-.389s-1.447.446-3.215 2.191c-2.624 2.59-3.278 2.864-3.56 1.489-.196-.955-1.727-1.979-3.536-2.365-1.754-.375-3.736-1.122-4.404-1.66-.669-.538-2.95-.685-5.07-.327-2.568.434-5.331.096-8.284-1.012-2.437-.915-5.556-1.785-6.931-1.933-1.375-.148-2.376-.809-2.225-1.468.151-.66-.187-.915-.75-.566-.57.352-1.025-.259-1.025-1.376 0-1.105.726-2.416 1.612-2.912 1.293-.723.985-1.028-1.558-1.536-3.647-.73-7.351-3.661-4.625-3.661.864 0 1.571-.675 1.571-1.5s.702-1.5 1.559-1.5c.889 0 1.264-.478.872-1.112-.378-.611-.118-1.463.577-1.893.949-.586.731-1.238-.872-2.61-1.175-1.006-2.136-2.356-2.136-3 0-.644-.712-1.444-1.583-1.779-.871-.334-1.396-1.169-1.167-1.857.413-1.238.839-1.382 4.798-1.624 1.126-.069 3.09-1.25 4.364-2.625 1.275-1.375 2.828-2.5 3.453-2.5.624 0 1.135-.45 1.135-1s.338-.947.75-.882c2.388.378 3.25-.436 3.25-3.068 0-1.75.699-3.342 1.718-3.912 2.784-1.558-.27-14.364-4.526-18.978-.719-.78-1.054-2.077-.745-2.882 1.6-4.171 1.636-6.032.127-6.611-.866-.332-1.574-1.293-1.574-2.136 0-.842-.45-1.531-1-1.531s-1-1.35-1-3c0-4.315 3.794-4.282 4.658.041.593 2.963.722 3.025 4.962 2.389 5.478-.822 10.167.183 8.525 1.825-1.536 1.536-1.461 4.017.105 3.495.688-.229 1.25-1.054 1.25-1.833 0-.78.563-1.372 1.25-1.317 4.632.371 4.664.386 3.45 1.6-1.432 1.432-1.563 2.8-.267 2.8.513 0 1.22-.907 1.572-2.015.351-1.108 1.078-1.742 1.616-1.41.612.378.539 1.129-.195 2.014-.9 1.085-.886 1.411.059 1.411.719 0 .973.668.611 1.611-.405 1.054-.18 1.443.648 1.126.697-.268 1.844.132 2.551.888.706.756.83 1.375.276 1.375-.555 0-.749.675-.433 1.5.317.825 1.373 1.5 2.347 1.5.973 0 2.29.627 2.926 1.392.635.766 2.49 1.946 4.122 2.622 1.8.745 2.967 1.967 2.967 3.107 0 1.542.808 1.901 4.5 2.004 6.473.18 7.03.324 6.727 1.739-.18.841.643 1.165 2.423.955 2.884-.341 4.584-2.819 1.933-2.819-1.766 0-2.127-1.546-.583-2.5.55-.34 1.007-.029 1.015.691.011.951.281.899.985-.191.79-1.223.972-1.101.985.662.01 1.502.549 2.069 1.765 1.86.963-.165 2.704.296 3.87 1.026 1.165.73 3.64 1.74 5.5 2.245 1.859.505 3.267 1.433 3.13 2.063-.138.629.848 1.144 2.191 1.144s2.68.387 2.972.859c.292.472 2.955 1.144 5.918 1.492 2.963.348 7.046 1.326 9.072 2.173 2.027.847 4.003 1.345 4.391 1.107.388-.238 2.506-.739 4.706-1.112 2.2-.373 4.45-.795 5-.938.55-.143 2.8-.589 5-.992 7.231-1.325 8.322-2.317 9.062-8.239.778-6.225 2.859-7.439 9.395-5.481 5.148 1.542 7.38 1.452 6.719-.271-.296-.771-.256-1.684.089-2.029.344-.345.722-1.176.839-1.848.816-4.688 1.531-8.179 1.699-8.286.108-.07 1.989-1.321 4.179-2.781 2.19-1.46 4.918-2.654 6.062-2.654 2.411 0 6.915 5.557 6.71 8.278-.181 2.402 1.743 3.054 5.171 1.751l2.769-1.053-.708 10.384c-.493 7.238-.371 10.593.403 11.072.651.402 1.147-.064 1.199-1.123.271-5.585 1.009-12.123 1.614-14.309.381-1.375.762-4.075.847-6 .539-12.257.43-11.64 1.683-9.5 1.062 1.813 1.404 4.278 1.978 14.25.182 3.166 1.79 4.738 1.79 1.75 0-.825.477-1.5 1.059-1.5s.778.454.435 1.009c-.873 1.414.45 5.144 1.578 4.447 1.667-1.03 1.401 10.236-.29 12.294-1.407 1.713-3.782 1.575-3.782-.219 0-.894-.586-1.243-1.5-.893-.825.317-1.5 1.239-1.5 2.048 0 1.116-.727 1.313-3.001.814-3.067-.674-5.971 2.343-3.158 3.28 2.75.917 4.411 6.186 2.75 8.721-1.161 1.773-1.239 2.471-.315 2.845.673.273-.044.532-1.593.575-2.441.068-2.728.38-2.149 2.329.851 2.866 3.412 4.895 5.414 4.291.853-.258 3.116-.735 5.028-1.059 3.845-.653 6.919-3.296 6.232-5.359-.319-.956.155-1.143 1.674-.661 1.65.524 2.118.253 2.118-1.228 0-2.603 1.052-3.436 2.658-2.103.987.819 1.342.817 1.342-.009 0-.617 1.173-1.122 2.607-1.122 1.881 0 2.45.409 2.044 1.468-1.15 2.997 1.173 2.388 2.794-.732l1.681-3.236-.608 3.75c-.396 2.437-.222 3.75.496 3.75.607 0 .826.45.486 1-.34.55-.141 1 .441 1s1.107-.562 1.165-1.25c.427-5.055.381-13.461-.11-20.069-.319-4.301-.224-8.04.211-8.309.78-.482 1.239 2.695.813 5.617-.288 1.973 4.04 9.82 5.786 10.49.756.29 1.896.2 2.534-.199 1.269-.795 1.825-.901 5.91-1.128 3.669-.203 3.486-1.939-.376-3.563-1.883-.792-2.679-1.592-2-2.011.619-.383 1.171-.332 1.226.113.055.445.429-.316.832-1.691.811-2.768.295-5.259-.932-4.5-.435.269-1.068-.235-1.407-1.118-.423-1.103-1.005-1.307-1.855-.65-3.234 2.501-4.87 2.329-4.65-.489.467-5.991-.066-9.819-1.148-8.243-.823 1.199-.998.999-.874-1 .389-6.256-.201-11.513-1.066-9.5-.473 1.1-.891 1.465-.93.812-.038-.653-.858-1.156-1.82-1.116-.962.039-2.562-.272-3.555-.691-1.621-.684-1.782-.234-1.57 4.401.171 3.738-.228 5.625-1.445 6.842-1.223 1.224-1.68 1.319-1.68.35 0-.891-.852-1.168-2.579-.838-2.835.542-4.074-1.117-2.974-3.982.458-1.194.882-1.363 1.383-.553 1.577 2.551 3.473-.43 2.916-4.585-.377-2.81-.114-4.42.854-5.223 1.066-.884 1.4-.88 1.4.02 0 .649.45.903 1 .563.55-.34 1-1.068 1-1.618s-.337-.796-.75-.546c-1.017.616-2.75-1.487-2.75-3.336 0-.959-.811-1.414-2.25-1.262-1.648.175-2.25-.285-2.25-1.718 0-1.329-.482-1.772-1.5-1.382-.922.354-1.5-.002-1.5-.924 0-.825-.724-1.778-1.609-2.118-1.236-.474-1.461-1.411-.968-4.037.593-3.159.436-3.444-2.058-3.739-2.074-.246-2.971-1.131-3.871-3.82-.644-1.925-1.919-3.645-2.833-3.823-.913-.178-1.661-.966-1.661-1.75 0-.785-.817-1.427-1.816-1.427-1.082 0-2.74-1.644-4.104-4.071-1.258-2.24-2.85-4.287-3.536-4.55-.695-.267-1.053-1.498-.807-2.782.29-1.52-.432-3.244-2.126-5.072-1.411-1.523-2.87-4.39-3.242-6.372-.372-1.981-1.315-4.242-2.096-5.023-1.122-1.122-1.156-1.584-.161-2.199 1.649-1.019-.822-4.256-2.699-3.536-.697.267-1.805-.162-2.462-.954-.942-1.135-.904-1.46.177-1.531.754-.05.006-.488-1.663-.973-3.226-.938-4.71-4.937-1.831-4.937 1.315 0 1.306-.203-.072-1.581-.869-.869-1.295-2.042-.946-2.606.403-.652.947-.532 1.494.33.513.811.866.901.875.224.008-.624 1.027-1.399 2.265-1.722 1.238-.324 2.25-.525 2.25-.448 0 .078.961-.373 2.135-1.002 1.174-.628 4.853-1.37 8.175-1.648 5.894-.493 17.19-4.74 17.19-6.463 0-.745-6.581-2.321-11-2.634-.825-.058-3.525-.472-6-.92-2.475-.447-6.501-.742-8.946-.656-2.446.086-8.071-.716-12.5-1.782-4.43-1.067-11.879-2.462-16.554-3.1-4.675-.638-9.252-1.835-10.171-2.66-.919-.824-2.944-1.414-4.5-1.31-9.603.644-12.712-.31-15.137-4.644-.469-.837-2.729-1.774-5.022-2.082-2.294-.308-4.17-.95-4.17-1.428 0-.477-.675-.868-1.5-.868s-1.5-.675-1.5-1.5-.675-1.5-1.5-1.5c-.962 0-1.511-.986-1.532-2.75-.017-1.512-.692-3.624-1.5-4.691-1.28-1.693-1.468-1.725-1.468-.25 0 .93-.413 1.691-.918 1.691-2.741 0-4.044-1.567-4.648-5.589-.644-4.3-1.423-4.974-5.184-4.486-.687.09-1.25-.307-1.25-.881 0-.574-.477-1.044-1.059-1.044s-.781.45-.441 1 .127 1-.472 1c-1.493 0-2.65-3.293-1.314-3.738.59-.197.826-1.307.522-2.466-.376-1.438-.183-1.881.606-1.393.674.416 1.158.108 1.158-.737 0-1.557-2.652-3.123-6-3.541-1.7-.213-1.1-2.125.667-2.125.916 0 1.381-.286 1.031-.635-1.196-1.196-8.967-1.386-10.333-.253-1.058.878-1.365.768-1.365-.49 0-.892-.413-1.622-.918-1.622-2.474 0-4.082 1.454-4.082 3.69 0 4.647-2.407 1.759-2.716-3.259-.167-2.712-.51-5.493-.762-6.181-.253-.687.202-1.25 1.009-1.25 1.793 0 1.939-1.614.219-2.417-.998-.465-.997-.701.006-1.168.691-.322 1.002-.997.691-1.5-.311-.503.11-.915.935-.915.825 0 1.799-.484 2.165-1.077.95-1.536-2.687-4.553-4.942-4.101-1.516.305-1.616.557-.5 1.264 1.099.696 1 .887-.462.899-1.237.01-1.665.516-1.281 1.515.316.825.194 1.5-.271 1.5s-1.406-.675-2.091-1.5c-.685-.825-2.765-1.5-4.622-1.5-2.336 0-3.378-.463-3.378-1.5 0-.825-.45-1.5-1-1.5s-1.014-.787-1.03-1.75c-.029-1.662-.082-1.661-1.055.008-.563.967-.767 2.173-.453 2.681.314.507.113 1.205-.446 1.551-.963.596-1.183.171-1.416-2.74-.055-.687-1.272-1.763-2.705-2.391-1.995-.873-2.76-2.112-3.269-5.297-.434-2.713-1.056-3.914-1.791-3.46-.783.484-.924-.112-.462-1.953.555-2.21.331-2.649-1.354-2.649-2.367 0-2.702-1.801-.493-2.648 1.176-.452 1.262-.902.377-1.969-.867-1.045-.859-1.383.034-1.383.649 0 .929-.408.621-.906-.308-.498-1.41-.684-2.449-.412-1.948.509-3.063-5.261-3.61-18.682-.272-6.677-.267-6.667-3.404-6.667-2.009 0-2.747.411-2.393 1.334.476 1.24 1.723 1.745 3.569 1.444.947-.154-.197 5.027-1.4 6.339-.784.856-1.076.081-.786-2.088.147-1.097-2.34-2.201-3.744-1.662-1.865.715-1.681 2.3.266 2.3 1.018 0 1.396.55 1.031 1.5-.391 1.02.054 1.5 1.393 1.5 2.363 0 2.542 1.57.421 3.69-.851.852-1.276 1.819-.945 2.15.331.331.915.165 1.297-.369 1.649-2.302 2.977-1.085 3.575 3.278.493 3.599.295 4.854-.87 5.506-.83.464-1.509 1.299-1.509 1.854 0 .555.45.731 1 .391.55-.34 1-.141 1 .441S64.1 118 63 118c-1.178 0-2 .667-2 1.622 0 1.35-.26 1.408-1.546.34-.85-.705-1.312-1.891-1.026-2.635.384-1.001-.122-1.191-1.955-.731-1.863.468-2.473.224-2.473-.988 0-.884-.48-1.608-1.067-1.608-.649 0-.792.882-.363 2.25 1.676 5.352 1.676 5.349.248 3.632-.741-.891-2.69-1.604-4.332-1.585-6.227.071-10.447-.753-10.98-2.143-.304-.792-.43-1.488-.28-1.547.151-.059 1.709-.904 3.463-1.877 1.754-.974 3.554-1.713 4-1.642 3.093.49 4.94-1.43 5.173-5.379.272-4.613 1.289-5.671 5.471-5.694 1.823-.01 2.682-.461 2.407-1.265-.234-.687-1.393-1.11-2.575-.938-1.606.232-1.997-.087-1.546-1.262.44-1.145.165-1.405-1.008-.954-2.069.794-2.164-1.9-.139-3.925 1.296-1.296 1.293-1.621-.025-2.715-1.329-1.103-1.328-1.43.014-2.913 1.166-1.288 1.24-1.942.325-2.857-.915-.915-.784-1.186.573-1.186 1.075 0 1.482.449 1.046 1.155-.443.715-.275.883.44.44.74-.457 1.155.082 1.155 1.501 0 2.163.046 2.172 2.035.372 1.12-1.013 1.823-2.395 1.563-3.072-.259-.677.222-1.497 1.069-1.822.865-.332 1.29-1.244.968-2.082-.315-.821-.136-1.492.396-1.492.533 0 .984 1.013 1.002 2.25l.034 2.25 1.966-2.361C66.115 77.841 67 77.071 67 77.43c0 .358 1.237-.505 2.75-1.918 1.564-1.461 3.679-2.452 4.902-2.297 1.184.149 3.052-.542 4.151-1.537 1.525-1.379 2.181-1.512 2.77-.56.564.912.949.746 1.426-.616 1.828-5.21-3.147-9.509-8.099-6.998-2.773 1.406-9.556.837-10.203-.855-.241-.632.655-3.542 1.99-6.466 2.339-5.119 2.545-5.291 5.564-4.628 3.883.853 5.935 2.798 5.139 4.871-.395 1.03-.048 1.574 1.003 1.574.884 0 1.607-.342 1.607-.759 0-1.474 4.15-3.328 6.077-2.717 1.074.341 1.74.962 1.482 1.381-.259.419 1.414.724 3.717.678 3.543-.07 4.191.225 4.206 1.917.012 1.285.644 1.95 1.768 1.861.963-.076 1.75.309 1.75.857s.732.715 1.627.372c.894-.344 2.132-.237 2.75.238 2.428 1.863 4.869 2.254 4.266.683-.519-1.352.466-1.967 2.607-1.629.413.065.75-.296.75-.803 0-.506 1.463-1.248 3.25-1.65 1.787-.401 2.685-.925 1.994-1.164-.691-.24-.983-.878-.65-1.418.334-.54-.338-1.229-1.493-1.531-1.156-.302-2.101-.977-2.101-1.5s-.795-.698-1.767-.39c-1.876.595-5.559-3.327-5.934-6.319-.953-7.597-.986-9.107-.199-9.107.495 0 .9-.439.9-.975 0-.634-.898-.634-2.565 0-3.368 1.28-3.432 1.266-3.45-.775-.011-1.219-.252-1.378-.794-.525-.989 1.557-7.82-1.664-7.441-3.508.138-.669-.259-1.217-.88-1.217-.746 0-.959-1.514-.628-4.457.277-2.452.223-4.424-.12-4.382-2.308.281-4.178-.483-6.545-2.677-1.493-1.384-3.106-2.275-3.585-1.979-.478.295-1.234-.085-1.681-.846-.535-.913-3.702-1.605-9.311-2.035-4.675-.358-11.937-.93-16.139-1.272-7.346-.597-7.701-.526-9.264 1.859M469.592 133.5c-1.236 1.886-2.506 2.5-5.174 2.5-2.103 0-3.286.405-2.918 1 .34.55-.309 1-1.441 1-1.132 0-2.059-.488-2.059-1.083 0-.596-.562-.877-1.25-.625-.687.252-1.119 1.019-.959 1.706.173.743-.313 1.016-1.203.674-.897-.344-2.431.542-3.843 2.22-2.393 2.843-6.855 4.665-8.18 3.34-.915-.915-6.565-.971-6.565-.065 0 .366.563.899 1.25 1.182.757.313.363.786-1 1.2-1.238.376-2.25 1.114-2.25 1.639 0 .525-1.012.826-2.25.668-2.676-.34-8.75 3.032-8.75 4.86 0 .706.005 1.622.011 2.034.006.412.677.755 1.492.761 2.713.019 2.038 1.796-1.102 2.9-3.686 1.295-6.045 3.51-6.562 6.16-.275 1.41-1.239 1.945-3.584 1.988-4.237.079-5.526 1.441-1.363 1.441 1.774 0 2.966.421 2.647.936-.758 1.228-4.833.954-5.774-.388-.486-.694-.74-.641-.75.157-.008.662-1.681 1.517-3.717 1.899-2.036.382-4.596 1.527-5.688 2.545-1.093 1.018-2.352 1.851-2.799 1.851-.446 0-.811.702-.811 1.559s-.45 1.281-1 .941c-.55-.34-1-.093-1 .548 0 .653.697.899 1.584.558.973-.373 1.431-.15 1.187.581-.696 2.087-2.26 1.903-5.754-.674-2.288-1.688-2.85-2.513-1.711-2.513.932 0 1.694-.381 1.694-.847 0-.466.9-1.885 2-3.153 2.057-2.371 2.571-4.012 1.25-3.985-1.027.021-3.943 1.951-2.977 1.97.425.008.057 1.108-.819 2.444-1.567 2.392-2.778 2.555-7.606 1.023-1.176-.373-2.68-.009-3.674.891-.926.837-3.019 1.702-4.653 1.921-2.141.286-3.134 1.071-3.561 2.817-.412 1.68-1.168 2.315-2.475 2.08-1.034-.187-2.355.295-2.933 1.071-.953 1.277-8.952 3.184-18.808 4.484-2.066.272-4.005.898-4.309 1.39-.304.492-1.764.902-3.244.911-1.48.01-6.066.948-10.191 2.086-9.11 2.512-16.766 3.805-23.728 4.007-2.875.084-5 .52-4.722.97.278.451-1.194 1.134-3.272 1.519s-6.211 1.533-9.185 2.55c-2.973 1.018-6.798 1.882-8.5 1.919-5.034.111-16.115 3.349-15.863 4.636.126.646-.661 1.457-1.75 1.802-3.437 1.091-2.146 2.317 2.082 1.978 2.937-.236 4.223.096 4.647 1.199.446 1.162 1.503 1.379 4.438.909 2.121-.339 3.853-.203 3.853.303 0 .505.9.682 2 .395 1.535-.402 2-.031 2 1.593 0 2.284 1.989 2.633 12.284 2.152 2.741-.128 5.443.323 6.328 1.058.898.745 3.546 1.175 6.333 1.027 3.839-.204 4.936.106 5.53 1.563.696 1.709.779 1.713 1.395.069.588-1.57.941-1.483 3.46.853 1.543 1.431 2.569 3.215 2.281 3.966-.288.751-.093 1.631.433 1.956.526.325.956 1.634.956 2.91 0 2.704 1.414 4.028 5.293 4.955 1.536.367 3.07 1.39 3.409 2.274.742 1.934-1.045 4.946-2.702 4.553-1.528-.362-.265 7.958 1.364 8.989.811.514.777 1.051-.122 1.95-2.033 2.033-1.426 3.842 1.289 3.842 1.393 0 2.784.658 3.093 1.462.308.804 1.374 1.72 2.369 2.036.994.315 2.114 1.791 2.487 3.278.818 3.259 2.502 4.484 4.212 3.065.933-.775 1.562-.378 2.435 1.538.915 2.009 1.683 2.456 3.455 2.011 1.928-.484 2.194-.251 1.732 1.519-.376 1.436-.077 2.091.956 2.091 1.415 0 2.749 3.928 2.819 8.297.015.988 1.138 2.219 2.495 2.735 4.456 1.694 10.416 9.95 10.416 14.428 0 .847.513 1.54 1.14 1.54.627 0 1.639.635 2.25 1.412.61.776 2.859 2.327 4.996 3.447l3.886 2.035-2.886.711c-1.587.391-3.861 1.342-5.053 2.114-2.891 1.871-6.327-.136-6.348-3.71-.013-2.057-.21-2.239-1.095-1.009-.925 1.286-1.003 1.263-.547-.167.292-.917-.066-1.897-.796-2.177-.859-.329-1.54.561-1.933 2.526-.457 2.281-1.012 2.879-2.237 2.409-.897-.344-2.248-.113-3.004.514-.91.755-1.373.784-1.373.085 0-.58-.907-1.343-2.015-1.695-1.108-.351-1.74-1.082-1.405-1.624.825-1.336-.385-5.871-1.568-5.871-.522 0-.67.727-.329 1.615.493 1.285.179 1.476-1.532.933-1.339-.425-2.151-.254-2.151.452 0 .634-.787.885-1.783.569-1.53-.486-1.813.141-2 4.433-.216 4.98.423 5.76 4.161 5.074.483-.089.645.729.36 1.817-.304 1.162.056 2.198.873 2.511.764.293 1.389.097 1.389-.435 0-.533.9-.969 2-.969 1.145 0 2 .667 2 1.559 0 .857-.419 1.3-.931.984-.512-.317-1.213-.118-1.559.441-.345.559-.151 1.016.431 1.016s1.059.675 1.059 1.5.45 1.5 1 1.5 1-.482 1-1.071c0-.59.707-.365 1.571.5 2.144 2.143 2.92 1.983 4.221-.873.998-2.188 1.451-2.347 4.345-1.517 1.777.51 3.449.709 3.716.442.752-.753 4.147 2.664 4.147 4.174 0 1.131 1.849 1.633 4.638 1.26.351-.047.994.49 1.429 1.193.434.703 2.264 1.304 4.066 1.335 2.919.051 3.354.435 3.991 3.53.393 1.91 1.22 3.642 1.837 3.847.82.274.808.753-.042 1.777-.77.928-.804 1.403-.1 1.403.584 0 1.341-.45 1.681-1 .34-.55 1.716-1 3.059-1 1.343 0 2.441-.567 2.441-1.259 0-1.599 3.768-4.002 5.041-3.216.543.336.959-.949.959-2.966 0-4.006 1.601-4.712 2.969-1.309.842 2.096.917 2.113 1.086.25.1-1.1.106-2.575.013-3.277-.092-.702 1.283-2.727 3.055-4.5 2.612-2.611 2.904-3.285 1.538-3.549-.927-.179-1.415-.763-1.084-1.298.377-.611 1.11-.551 1.968.162 1.763 1.462 3.455.4 3.455-2.168 0-1.848.131-1.882 1.606-.407 1.059 1.059 1.996 1.282 2.753.654.747-.62 1.823-.457 3.085.466 1.066.779 1.515 1.431.997 1.447-.517.017-.153.489.809 1.05 1.193.695 1.728 2.197 1.68 4.72-.057 2.98-.238 3.311-.93 1.7-.838-1.951-.861-1.947-.93.128-.038 1.17.855 2.745 1.985 3.5 1.131.755 2.156 2.047 2.278 2.872.123.825.628 2.148 1.122 2.941.581.931.483 1.58-.278 1.833-.647.216-1.177 1.308-1.177 2.426 0 1.702.447 1.932 2.75 1.41 9.011-2.043 8.996-2.044 9.692 1.124.619 2.82.886 2.955 5.604 2.829 2.725-.073 4.954.195 4.954.595 0 .4 1.012.527 2.25.282 4.975-.984 10.358-1.156 12.25-.39l2 .809-2 .077c-1.761.067-1.698.234.527 1.395 4.569 2.385 7.045 2.656 7.689.841 1.252-3.524 2.453-4.327 4.177-2.793 1.927 1.713 12.107-1.517 12.107-3.842 0-.728.724-1.601 1.609-1.941 1.235-.473 1.461-1.412.97-4.029-.685-3.649.766-5.622 2.708-3.68.612.612 2.178 1.113 3.48 1.113 2.683 0 2.387 3.431-.491 5.7-1.306 1.03-1.149 1.294 1.101 1.859 1.443.362 2.623 1.059 2.623 1.549 0 .491.675.892 1.5.892 1.324 0 1.5-12.332 1.5-104.991v-104.99l-7.75.132c-4.497.076-8.54.675-9.632 1.427-1.555 1.07-2.263 1.045-4.08-.145-2.406-1.576-3.708-1.04-2.858 1.176.376.98.049 1.224-1.069.795-.886-.34-1.611-1.47-1.611-2.511 0-2.625-1.461-2.365-3.408.607M385.5 294.496c-6.081 2.839-7.001 4.091-5.117 6.966.915 1.396 2.122 2.538 2.684 2.538.561 0 .908.563.769 1.25-.138.688.076 2.488.476 4 .67 2.538 1.113 2.75 5.738 2.75 3.533 0 5.183-.443 5.588-1.5.317-.825 1.259-1.5 2.094-1.5 1.889 0 1.037-5.493-1.244-8.013-.818-.905-1.488-2.341-1.488-3.193 0-3.463-5.246-5.285-9.5-3.298M173 388.046c0 1.965-2.725 4.559-5.5 5.235-1.618.394-1.666.509-.25.603.963.064 1.75.586 1.75 1.16s-.741.911-1.646.75c-2.441-.436-2.8 1.93-.409 2.689 2.145.68 2.736 2.111 1.108 2.684-1.702.599-2.273 6.833-.626 6.833.8 0 1.721-.43 2.046-.956 1.039-1.681 3.629.059 3.007 2.019-.522 1.645-.252 1.725 2.72.807 7.56-2.336 18.19-4.747 18.923-4.294.434.268 1.536-.652 2.448-2.044.912-1.393 2.477-2.532 3.477-2.532.999 0 2.105-.907 2.457-2.015.351-1.108 1.057-1.756 1.567-1.441 1.492.923 1.067-1.262-.563-2.892-.91-.91-1.079-1.629-.435-1.843.603-.201.208-1.331-.919-2.63-1.205-1.39-2.229-1.869-2.624-1.229-.357.578-1.099 1.05-1.649 1.05s-.722-.45-.382-1c.34-.55.141-1-.441-1s-1.059.437-1.059.971c0 .555-1.676.736-3.92.422-2.157-.302-4.749-.105-5.761.436-2.451 1.312-7.326.353-6.686-1.315.328-.854-.697-1.419-3.071-1.697-2.807-.327-3.562-.067-3.562 1.229" fill="#d3d3d3" fill-rule="evenodd"/></svg>