<svg xmlns="http://www.w3.org/2000/svg" width="500" height="738"><path d="M285.282 156.75c-9.479 10.233-22.452 34.493-33.288 62.25-3.072 7.87-11.029 21.584-20.776 35.809-4.638 6.77-8.218 12.524-7.955 12.787.795.796 17.125-21.526 22.113-30.227 2.564-4.472 6.412-12.347 8.552-17.5 14.684-35.368 26.717-57.445 34.578-63.441 3.538-2.699 4.45-4.428 2.335-4.428-.638 0-3.139 2.137-5.559 4.75m51.968-4.032c-.687.247-1.243 1.199-1.235 2.115.012 1.243.223 1.34.829.385.619-.975 2.595-.299 8.235 2.814 4.082 2.254 11.133 5.89 15.671 8.081s8.25 4.342 8.25 4.78c0 1.182-3.039 3.632-6.994 5.638-5.511 2.796-14.006 9.565-14.006 11.161 0 .798.662 2.113 1.47 2.921 1.294 1.294 1.544 1.136 2.084-1.321 1.084-4.938 1.316-5.255 5.877-8.045 2.47-1.511 6.308-3.85 8.53-5.198 2.221-1.348 4.039-3.036 4.039-3.75 0-2.41 2.071-1.323 7.146 3.752 2.778 2.777 5.55 4.884 6.16 4.68.61-.203-1.684-2.992-5.098-6.198-6.901-6.479-7.318-7.92-4.596-15.909.887-2.603 1.381-4.964 1.098-5.247-.599-.6-4.71 10.002-4.71 12.148 0 1.022-1.568.447-5.313-1.949-2.922-1.869-7.31-3.915-9.75-4.546-2.44-.632-6.912-2.313-9.937-3.737a714.303 714.303 0 0 0-6-2.806c-.275-.12-1.062-.015-1.75.231m-21.54 38.963c-.408.649-.278 1.468.29 1.819 1.587.981.15 2.495-1.696 1.786-1.091-.418-1.392-.238-.909.544.398.644.319 1.17-.175 1.17s-.784 1.8-.644 4-.173 4-.696 4c-.559 0-.507.829.126 2.011.592 1.107.97 2.569.839 3.25-.423 2.209 1.251 5.739 2.722 5.739.788 0 1.433.358 1.433.796 0 1.613 6.747 1.306 7.377-.336.335-.873 1.062-1.307 1.616-.964.554.342 1.007.255 1.007-.193s1.32-1.399 2.932-2.113c2.578-1.141 3.844-3.432 4.527-8.19.039-.275.429-1.062.865-1.75.478-.752.306-1.25-.432-1.25-.674 0-.933-.293-.575-.65 1.177-1.177-4.071-5.081-7.759-5.773-2.3-.432-3.362-1.085-2.922-1.797.445-.721.122-.901-.907-.506-.88.337-1.818.076-2.085-.58-.361-.887-.506-.873-.565.056-.121 1.909-2.885 1.488-3.279-.5-.238-1.201-.58-1.38-1.09-.569m-165.186 6.1c2.254 14.76-.048 28.853-5.509 33.719-2.187 1.948-4.501 6.243-4.176 7.75.088.412-.234.75-.718.75-.483 0-1.471 1.463-2.196 3.25-.725 1.787-2.531 5.275-4.014 7.75-4.771 7.962-3.268 10.599 9.531 16.722 2.719 1.3 6.994 4.274 9.5 6.608 2.507 2.334 6.133 4.825 8.058 5.535 1.925.711 6.669 2.617 10.542 4.237 4.822 2.017 9.235 3.066 14 3.327 4.556.249 6.095.094 4.458-.449-1.375-.456-5.035-1.898-8.134-3.205l-5.633-2.374 1.783-2.451c1.06-1.456 1.961-4.884 2.221-8.45.383-5.25 2.265-12.002 3.763-13.5.275-.275 1.588-2.662 2.918-5.305 1.33-2.642 3.242-5.246 4.25-5.785 1.102-.59 1.832-2.089 1.832-3.762 0-3.077 4.51-12.506 8.457-17.681 1.399-1.834 2.543-3.725 2.543-4.204 0-.947-9.344-6.263-11.01-6.263-1.61 0-9.954 17.755-11.984 25.5-1.212 4.625-1.864 6.011-1.92 4.083-.047-1.604-.407-2.596-.799-2.204-1.114 1.115-4.285 9.921-4.286 11.904-.001.981-1.126 4.004-2.501 6.717s-2.532 6.186-2.57 7.717c-.056 2.195-.223 2.397-.792.952-.575-1.461-1.209-.754-3.14 3.5-2.895 6.38-2.851 6.311-3.563 5.599-.311-.311.814-3.298 2.5-6.638s3.097-7.323 3.135-8.851c.056-2.212.219-2.403.797-.934.649 1.649.853 1.565 1.929-.797.662-1.453 1.208-3.858 1.213-5.345.004-1.487 2.17-6.978 4.813-12.203 2.642-5.225 5.394-11.629 6.116-14.232.721-2.602 1.664-4.514 2.094-4.248.43.265.585-.305.345-1.269-.24-.963.194-4.146.966-7.074l1.402-5.323-2.622-.948c-5.015-1.811-7.441-3.417-7.919-5.241-.306-1.167-.733-1.427-1.173-.716-.38.615-1.44.831-2.355.48-.916-.351-1.441-1.001-1.167-1.444 1.748-2.828-2.731-4.525-4.607-1.745-.329.488-2.354-.073-4.5-1.247a2942.762 2942.762 0 0 1-8.25-4.531l-4.348-2.4.72 4.719m217.926 41.091c-1.612 1.481-12.239 2.278-13.043.978-.516-.835-1.014-.76-1.81.274-.603.785-2.222 1.436-3.597 1.447-1.375.01-4.232.365-6.348.788-2.577.514-3.638.427-3.21-.266 2.799-4.527-22.17-1.072-43.127 5.969-6.447 2.166-11.813 3.938-11.925 3.938-.111 0 .019-.847.289-1.881.314-1.199-1.395-.11-4.707 3-5.006 4.7-5.418 4.881-11.086 4.881-3.257 0-5.886.447-5.886 1 0 .55 1.688 1.014 3.75 1.03 3.061.025 3.425.22 1.979 1.062-.974.567-1.513 1.448-1.198 1.958.315.51-.238.665-1.229.344-1.472-.476-1.533-.392-.33.458 1.704 1.204-1.02 2.854-2.848 1.725-.534-.33-4.406 1.177-8.605 3.35-8.143 4.214-15.198 6.789-19.93 7.274-1.647.169-3.012.95-3.144 1.799a48.129 48.129 0 0 1-.59 3c-.247 1.043.585 1.592 2.73 1.801 2.607.254 3.072-.033 3-1.858-.07-1.766 1.187-2.664 6.915-4.943 25.375-10.093 30.417-12.557 37-18.077 1.1-.922 3.8-2.243 6-2.935 2.2-.692 5.789-2.159 7.975-3.259 3.498-1.759 22.677-7.729 24.832-7.729 2.254 0-.81 1.889-4.62 2.849-3.954.995-13.398 8.151-10.758 8.151.589 0 1.071.505 1.071 1.122 0 .816-.38.808-1.389-.03-1.123-.932-1.739-.303-3.228 3.296-1.012 2.446-2.074 4.304-2.361 4.127-.287-.176-.623 1.064-.745 2.756-.123 1.692-.747 3.56-1.386 4.152-.868.804-1.019.48-.594-1.274 1.461-6.038-3.439-9.424-9.297-6.425-3.175 1.626-3.471 2.139-3.19 5.532.304 3.661.255 3.719-2.315 2.742-1.444-.549-4.321-.998-6.393-.998-2.073 0-4.082-.313-4.464-.696-1.677-1.676-3.677-.839-6.555 2.742-1.699 2.115-4.343 4.585-5.875 5.49-2.35 1.389-2.723 2.176-2.388 5.047.33 2.832.002 3.559-1.962 4.346-1.763.706-1.912.96-.59 1.008 2.259.081 2.332 10.063.073 10.063-.737 0-1.348.563-1.356 1.25-.011.836-.342.753-1-.25-.825-1.257-1.082-1.146-1.584.681-.359 1.309-1.144 1.971-1.964 1.656-3.766-1.445-10.171 7.044-9.189 12.179.266 1.392.094 2.773-.382 3.067-.476.294-.866-.111-.866-.902 0-.79-.652-1.977-1.449-2.639-.797-.661-1.956-2.853-2.576-4.872-.62-2.018-1.389-4.345-1.71-5.17-.32-.825-.516-1.822-.435-2.215.081-.394-.35-1.969-.956-3.5-3.02-7.623-3.671-11.917-1.991-13.144 1.393-1.017 1.317-1.103-.549-.62-3.439.89-3.704-1.278-.367-3.004 1.668-.863 3.033-1.98 3.033-2.484 0-1.87-1.73-1.875-4.79-.015-2.645 1.609-3.275 1.688-3.943.494-1.074-1.919-2.959-.587-3.776 2.67-.602 2.395-.417 2.634 1.847 2.385 4.395-.482 5.356 1.219 1.093 1.936-6.088 1.024-6.479 1.562-.772 1.064l5.159-.451-.067 4.399c-.037 2.42.377 4.982.919 5.692 1.351 1.773 4.468 10.361 4.146 11.427-.143.476.552 2.081 1.545 3.567 3.436 5.142 1.769 6.501-8.641 7.042-7.484.389-10.727 1.106-17.22 3.809-5.45 2.269-9.673 3.349-13.249 3.389-2.887.033-5.249.396-5.25.809-.001.413-.991.75-2.201.75-1.723 0-1.937.263-.988 1.212 1.428 1.428 15.928-1.165 24.295-4.345 6.181-2.348 19.298-3.639 20.311-1.999.503.813 1.262.839 2.663.088 2.323-1.243 4.276-.33 3.519 1.645-.296.77-.154 1.399.315 1.399.468 0 1.11-.987 1.425-2.193.569-2.176.593-2.172 3.099.532 1.389 1.499 2.999 3.611 3.578 4.693.579 1.082 1.713 1.968 2.518 1.968 1.966 0 1.854-.537-.729-3.508-1.206-1.387-2.301-3.258-2.433-4.157-.132-.899-.832-2.026-1.557-2.505-1.022-.676-.788-1.313 1.045-2.85 2.585-2.168 4.68-2.532 5.639-.98.34.55 1.266 1 2.059 1 .793 0 1.441-.45 1.441-1s-.723-1-1.606-1c-1.129 0-.685-.86 1.5-2.901 2.424-2.265 3.106-3.738 3.106-6.714 0-3.279.193-3.608 1.375-2.349 1.881 2.004 2.818 8.708 1.303 9.326-.674.275-.492.514.426.559 1.754.086 6.896 4.454 6.896 5.857 0 .48 1.109 1.915 2.464 3.188 2.634 2.475 1.844 2.512 13.819-.651 1.656-.437 1.643-.242-.173 2.745-1.414 2.325-1.718 3.841-1.097 5.475.473 1.242.818 3.698.768 5.457-.05 1.759.541 3.599 1.314 4.088 2.287 1.448 3.046 1.051 1.94-1.014-2.869-5.361 1.564-15.189 9.583-21.242 2.96-2.236 5.389-4.798 5.397-5.694.012-1.276.199-1.34.862-.295.466.735 1.145 1.243 1.509 1.13.364-.113 2.114.087 3.888.445 2.482.5 2.886.862 1.75 1.569-1.199.746-1.012 1.092 1 1.844 1.644.614 2.706.564 3.16-.151.923-1.453.063-2.651-1.993-2.772-1.004-.059-.675-.393.809-.821 1.855-.535 3.328-.099 5.71 1.688l3.211 2.41-.461-10.264c-.349-7.777-.119-10.785.951-12.418 1.828-2.789 1.904-16.051.109-18.915-2.058-3.285-2.829-11.112-1.331-13.512 1.772-2.837 6.33-2.736 8.228.182 1.703 2.618.405 11.451-1.958 13.322-1.036.82-1.288 3.981-1.074 13.5.217 9.602-.043 12.809-1.141 14.104-.781.922-1.67 4.428-1.975 7.792-.537 5.928-.458 6.195 2.605 8.732 7.55 6.255 10.804 18.573 7.128 26.981-1.76 4.024-8.797 10.319-11.535 10.319-.679 0-1.449 1.125-1.712 2.5-.577 3.021-.831 3.006 5.56.322 9.585-4.025 13.034-8.03 15.128-17.564.822-3.742-2.112-11.401-6.944-18.127-3.835-5.338-3.796-5.51 1.501-6.646 10.155-2.178 19.647-9.146 28.386-20.84 6.662-8.915 7.647-10.804 6.976-13.37-.295-1.127-.047-2.352.551-2.721 1.853-1.145 1.229-9.354-1.052-13.844-4.662-9.177-10.904-17.71-12.955-17.71-1.113 0-1.765-.419-1.449-.931.317-.512.068-1.245-.552-1.628-.621-.383-1.449-.179-1.84.455-.493.796-1.277.527-2.546-.875-1.821-2.012-1.797-2.024 3.574-1.842 2.974.101 9.033-.173 13.465-.61l8.058-.794 1.412 4.363c.776 2.399 1.522 5.712 1.658 7.362.402 4.877 1.49 9.5 2.236 9.5 2.986 0 6.385 7.074 4.083 8.497-1.138.703.2 3.733 2.953 6.688 2.944 3.16 8.313 21.778 6.813 23.625-1.064 1.31-1.012 1.468.318.97 1.935-.723 3.769 6.399 7.813 30.348 2.867 16.98 2.768 17.872-1.989 17.872-3.036 0-15.36 6.888-20.113 11.241-1.646 1.508-9.474 5.875-17.396 9.704-7.922 3.83-14.404 7.408-14.404 7.95 0 1.941 1.804 2.047 4.132.245 1.303-1.008 7.543-4.432 13.868-7.61s14.2-7.913 17.5-10.522c6.141-4.854 14.316-9.525 15.172-8.669.263.263 1.88.076 3.592-.415 2.4-.688 3.528-.517 4.925.747 2.232 2.02 2.579-.144.416-2.592-.767-.869-2.137-6.529-3.044-12.579-2.065-13.783-6.421-36.636-8.052-42.25-1.024-3.525-1.002-4.25.128-4.25 2.091 0 1.618-1.7-.637-2.29-1.212-.317-2-1.364-2-2.656 0-1.174-.854-3.807-1.897-5.851-1.043-2.045-2.038-5.065-2.21-6.711-.173-1.645-.824-3.667-1.447-4.492-1.779-2.357-11.792-28.3-11.675-30.25.112-1.878-3.57-2.486-5.321-.878m-248.758 25.434c.619 5.998-.212 11.109-1.661 10.213-.5-.309-.918.235-.927 1.209-.049 4.899-2.164 17.665-4.105 24.772-4.203 15.388-4.22 15.528-2.493 20.807 1.454 4.446 3.534 8.156 8.049 14.358 1.745 2.397.558 2.804-15.362 5.267-6.735 1.041-15.219 5.246-11.882 5.889.996.192 3.333-.373 5.194-1.256 1.86-.883 4.645-1.571 6.189-1.53 1.543.042 4.294-.089 6.114-.291 1.819-.201 3.537.006 3.819.461.281.455 1.013.518 1.626.139.708-.438.411-.936-.816-1.366-1.387-.487-.569-.881 2.908-1.403 2.661-.399 4.937-.579 5.059-.4.121.179 1.821 2.575 3.779 5.325 1.957 2.75 4.364 6.575 5.349 8.5.985 1.925 1.976 2.949 2.204 2.276.227-.673-1.886-4.723-4.696-9l-5.11-7.776 7.785-.767c8.973-.884 10.285-1.243 10.285-2.813 0-.765-1.16-.925-3.507-.485-1.928.362-6.316.841-9.75 1.064l-6.243.405-3.706-5.702c-6.985-10.747-8.092-17.705-2.942-18.496l2.648-.406-2.75-.15c-3.311-.181-3.404-1.215-.798-8.896 1.074-3.165 2.41-9.994 2.969-15.176.559-5.181 1.411-9.681 1.894-10 .482-.318 1.18-1.816 1.55-3.328.37-1.512 1.06-2.75 1.532-2.75.887 0-1.125-12.561-2.181-13.618-.326-.326-.337 1.89-.024 4.924M177 328.24c-2.475.482-6.075 1.285-8 1.784-1.925.499-3.829.951-4.231 1.006-.403.055-3.776.971-7.497 2.035S149.353 335 147.944 335c-1.409 0-3.435.706-4.503 1.569-2.62 2.116 7.091 1.222 16.559-1.526 3.575-1.037 9.2-2.402 12.5-3.033 3.3-.631 6.756-1.362 7.679-1.624 1.228-.348 1.793.275 2.1 2.319.353 2.341.446 2.195.571-.896.182-4.476-.153-4.681-5.85-3.569m17.938 19.042c-.859.67-1.896 2.105-2.304 3.19-.622 1.654-.892 1.734-1.672.5-.512-.81-.938-1.079-.947-.6-.008.48-.69.313-1.515-.372s-1.556-.965-1.625-.622A47.166 47.166 0 0 1 186.5 351c-.137.55-.306 1.502-.375 2.117-.069.614-.994.889-2.056.611-1.193-.312-2.728.345-4.02 1.719l-2.089 2.224 3.978 1.192c2.836.85 3.816 1.615 3.413 2.665-.358.933.045 1.472 1.101 1.472.916 0 1.419-.399 1.118-.887-.301-.487.078-1.406.844-2.041 1.059-.88 1.49-.861 1.803.079.278.833 1.56.358 3.942-1.458 4.195-3.2 4.817-3.317 4.153-.777-.449 1.718-.141 1.835 2.975 1.132 1.913-.431 3.98-1.095 4.595-1.475.69-.426 1.118.121 1.118 1.427 0 1.18.45 1.84 1.016 1.49.559-.346.758-1.047.441-1.559-.316-.512.014-.945.734-.963.821-.02.601-.568-.588-1.468-1.044-.79-2.338-1.164-2.876-.831-.595.368-.812-.818-.553-3.033.445-3.816-.986-5.07-1.881-1.647-.286 1.094-.914 1.745-1.395 1.448-.481-.298-.607.157-.28 1.011.329.856.073 1.552-.57 1.552-.641 0-.888-.45-.548-1 .34-.55.24-1-.223-1-.462 0-.937-1.165-1.055-2.589-.371-4.479-1.498-5.302-4.284-3.129M262 363.078c0 .593 2.475 5.997 5.5 12.01 6.245 12.413 6.086 11.907 3.75 11.927-1.498.013-1.534.157-.25 1 1.333.876 1.333 1.106 0 2.072-1.204.872-1.04.985.829.573 1.73-.382 2.188-.147 1.781.913-.302.788.039 1.427.761 1.427.719 0 1.795 1.07 2.391 2.377.596 1.307 2.508 4 4.249 5.983 1.742 1.984 2.975 4.177 2.741 4.873-.239.711 1.663 2.463 4.336 3.994l4.761 2.727 4.603-2.036c2.531-1.119 5.454-1.765 6.494-1.435 1.333.423 2.08.011 2.525-1.39.406-1.281 1.183-1.779 2.179-1.397 1.345.516 1.372.312.208-1.551-1.523-2.439-2.466-2.703-3.196-.895-.394.977-.521.969-.583-.035-.062-1.015-.544-1.037-2.286-.104-1.213.649-4.823 1.227-8.021 1.285-5.769.103-5.85.064-10.222-4.896-2.748-3.117-7.53-11.308-12.7-21.75-7.485-15.116-9.85-18.879-9.85-15.672m-42.199 5.964c-2.035 1.074-4.06 2.586-4.5 3.36-.441.773-1.926 1.613-3.301 1.866-2.111.388-1.994.481.75.596 3.474.145 4.394 1.677 1.5 2.497-13.02 3.692-15.553 3.152-16.937-3.611-.31-1.512-.987-2.75-1.505-2.75-1.055 0-.266 3.102 1.844 7.25 1.284 2.522 1.243 2.75-.487 2.75-1.037 0-3.974.286-6.525.636-4.529.621-4.64.572-4.64-2.059 0-1.879-.378-2.474-1.25-1.964-.687.402-.523-.134.366-1.191 2.746-3.267 3.28-7.338.879-6.711-1.144.3-1.995.029-1.995-.634 0-.831-.352-.854-1.25-.082-.687.59-2.15 1.719-3.25 2.507-1.929 1.384-1.903 1.436.75 1.466 3.321.039 3.613 1.767.5 2.957-2.201.841-2.189.875.583 1.596 2.09.544 2.708 1.214 2.357 2.556-.294 1.125.15 1.984 1.167 2.254.904.241-.157.514-2.357.608-14.401.614-18.322.988-20.889 1.99-1.588.62-3.144.872-3.456.559-.312-.312.37-.813 1.517-1.112 2.878-.753 4.79-5.056 3.029-6.818-1.086-1.085-1.642-1.074-3.199.064-1.036.758-2.768 1.378-3.848 1.378-1.858 0-1.872.102-.266 1.876 1.555 1.719 1.561 1.929.073 2.5-2.31.887-2.677.782-1.866-.531.443-.715.275-.883-.44-.44-.635.392-1.155.21-1.155-.405s-.437-.848-.971-.518c-.534.33-1.968-.547-3.186-1.948-1.635-1.88-2.425-2.219-3.014-1.291-.635 1-.802 1.001-.814.007-.008-.687-.492-1.25-1.074-1.25-.582 0-.738.52-.346 1.155.473.763.271.88-.595.345-.921-.569-1.069-.421-.5.5.507.82.416 1.066-.241.66-.979-.605-2.259 1.334-2.259 3.422 0 1.564 6.017 1.036 6.638-.582 1.002-2.611 2.033-1.622 1.574 1.509-.243 1.655.115 3.68.796 4.5 1.01 1.217.939 1.491-.386 1.491-1.968 0-1.969.026-.22 4.73.771 2.073 1.732 4.67 2.134 5.77.402 1.1.894 3.575 1.092 5.5l.361 3.5-1.459-2.5c-.803-1.375-1.475-3.512-1.495-4.75-.019-1.238-.56-2.25-1.202-2.25-.641 0-.875-.291-.519-.648.918-.917-3.431-8.344-5.549-9.478-.971-.519-1.836-1.941-1.922-3.159-.087-1.218-.492.035-.902 2.785-.717 4.813-.738 4.75-.556-1.689.212-7.498-.851-8.59-6.453-6.637-2.217.772-2.932 1.649-2.932 3.59 0 1.413-.312 2.258-.692 1.877-.381-.381-1.763 2.132-3.071 5.583C117.984 408.723 117.23 415 121.5 415c1.375 0 2.5.446 2.5.991 0 1.024 7.433.477 9.314-.685.66-.408.742.047.227 1.28-1.903 4.561-1.769 6.121.576 6.734 2.937.768 3.307.34 1.929-2.234-1.093-2.043.016-2.766 3.322-2.165.478.087.559-1.097.18-2.632-.993-4.018.936-1.647 2.409 2.961.659 2.063 1.64 3.75 2.18 3.75.539 0 .696.461.348 1.024s.124 3.003 1.048 5.423c1.936 5.069 1.351 7.096-1.594 5.521-1.543-.827-1.939-.712-1.939.563 0 2.963-2.1 5.92-3.092 4.354-.697-1.101-.881-1.026-.893.365-.008.962-.465 1.75-1.015 1.75-.55 0-1-.661-1-1.469 0-.975-.588-1.254-1.75-.83-1.625.592-1.62.49.065-1.432 1.182-1.348 1.444-2.3.75-2.729-1.395-.862-3.27.32-2.495 1.573.331.536.001 1.703-.734 2.593-1.001 1.214-1.037 1.72-.142 2.021.656.221.951 1.161.655 2.088-.464 1.454-.381 1.48.61.185.97-1.267 1.095-1.19.804.5-.247 1.431-1.011 1.926-2.686 1.738-1.778-.198-2.093.042-1.309 1 .724.886.636 1.626-.295 2.483-1.044.961-1.431.961-1.82 0-.273-.672-.531-.182-.574 1.088-.051 1.479-.494 2.053-1.234 1.596-.763-.473-.88-.271-.345.595s.418 1.068-.345.595c-1.407-.869-1.433-.458-.18 2.84 1.246 3.277 3.025 3.315 3.025.065 0-1.556.567-2.5 1.5-2.5.825 0 1.5.477 1.5 1.059s-.45.781-1 .441-1 .309-1 1.441c0 1.132.36 2.059.8 2.059 1.82 0 3.2-2.628 3.2-6.093 0-3.502 1.198-4.931 4.5-5.366.55-.073.907-.614.794-1.204-.113-.589.9-2.11 2.25-3.379 2.42-2.273 3.589-1.491 1.256.842-.66.66-.773 1.252-.25 1.315.522.064 1.4.22 1.95.348.55.128 1.757.301 2.683.385.925.083 1.995 1.136 2.376 2.339.589 1.855.865 1.963 1.818.714 1.454-1.908 4.976-1.263 4.196.768-.315.822-.573 1.908-.573 2.413 0 .505-.338.865-.75.8-2.995-.473-6.277.266-5.655 1.273.393.634.307.917-.19.627-.498-.289-1.783.327-2.856 1.37-1.931 1.878-1.928 1.893.264 1.559 1.218-.186 2.748-.872 3.401-1.525 4.745-4.745 3.286 5.364-3.326 23.032-3.292 8.798-3.806 12.789-1.388 10.782.825-.685 1.5-1.827 1.5-2.54 0-1.753 3.121-8.505 7.841-16.96 3.391-6.076 4.254-6.975 6.533-6.812 1.861.134 2.636-.304 2.661-1.5.027-1.247.383-1.061 1.367.713l1.33 2.402 1.055-2.902c.58-1.595 1.135-2.226 1.234-1.401.099.834.568.39 1.057-1 .698-1.985.785-1.676.424 1.5-.25 2.2-.128 3.244.272 2.319.653-1.512 1.129-1.426 4.726.847 3.86 2.439 3.325 2.566-2.75.652-1.044-.329-1.75-.033-1.75.732 0 .706.279 1.005.619.664.694-.694 2.324.874 3.994 3.841.872 1.55.774 2.294-.452 3.439-1.395 1.303-1.1 1.554 2.717 2.309 3.311.654 4.547 1.469 5.452 3.593 1.575 3.697 8.67 9.956 8.67 7.649 0-.915.472-1.371 1.049-1.015.723.447.702 1.065-.067 1.992-1.284 1.547 2.361 6.002 4.054 4.955.53-.327.964-.086.964.535 0 .651.671.46 1.581-.45.869-.869 1.994-1.325 2.5-1.012.505.312.919.065.919-.55s.45-.84 1-.5c.55.34 1 .089 1-.558 0-.703-.847-.954-2.111-.623-1.524.398-2.251.014-2.616-1.384-.279-1.064-1.155-1.935-1.949-1.935-.835 0-1.142-.486-.729-1.155.443-.715.275-.883-.44-.44-.635.392-1.155.159-1.155-.517 0-.677-.719-2.025-1.598-2.996-2.075-2.293-1.017-3.892 2.575-3.892 3.871 0 6.023.931 6.023 2.607 0 .766.477 1.393 1.059 1.393s.781.45.441 1 .035 1 .834 1c1.668 0 3.075 2.684 2.756 5.257-.12.966.486 2.027 1.346 2.357.86.33 1.564 1.253 1.564 2.052 0 .799-.419 1.193-.931.877a1.106 1.106 0 0 0-1.516.372c-.322.521-.148 1.217.387 1.548.535.331.719 1.262.409 2.069-.361.942.057 1.468 1.166 1.468 1.424 0 1.51.265.485 1.5-.754.908-.834 1.5-.204 1.5.572 0 1.691.25 2.486.555 1.059.406 1.617-.52 2.088-3.467.451-2.823 1.048-3.865 2.005-3.498.805.309 1.582-.319 1.9-1.533.313-1.197.054-2.063-.619-2.072-.721-.01-.643-.341.207-.879 1.151-.729 1.151-.935 0-1.322-1.077-.363-1.109-.766-.155-1.923 1.365-1.655.629-5.861-1.025-5.861-.713 0-.673-.41.117-1.2.66-.66 1.2-2.017 1.2-3.016 0-2.192 7.008-19.061 17.775-42.784 6.996-15.415 12.975-32.615 17.251-49.627 1.208-4.805 1.145-5.361-1.013-8.852-1.898-3.071-2.057-3.879-.907-4.607 1.115-.707 1.044-.886-.356-.899-.963-.008-1.75-.727-1.75-1.598 0-2.305-2.353-1.157-2.972 1.45-.528 2.218-.529 2.218-1.999.176-1.674-2.326-3.558-2.633-4.729-.772-1.199 1.905-6.282 3.869-8.331 3.219-.99-.314-2.09-.103-2.444.469-.784 1.269-5.195 1.383-5.955.155-.623-1.009 2.633-2.235 6.625-2.495 3.831-.25 4.752-1.619 1.088-1.619-2.209 0-3.194-.551-3.573-2-.638-2.442-1.214-2.438-5.909.042M117.75 383.798c-2.026.404-2.095.688-.771 3.163 1.258 2.351-.201 3.548-5.479 4.498-2.2.396-4.45 1.058-5 1.472-.55.414-2.921 1.498-5.269 2.41C96.095 397.336 89 401.699 89 402.863c0 .461 3.382 1.635 7.516 2.608 5.826 1.372 7.456 2.137 7.25 3.4-.19 1.166.39 1.558 2.042 1.38 1.529-.164 2.068.141 1.596.905-.442.714-.273.881.441.439.635-.392 1.155-.219 1.155.385 0 .708.489.642 1.375-.185.756-.707 1.158-1.849.893-2.54-.265-.69.031-1.255.657-1.255.627 0 1.546 1.012 2.044 2.25.555 1.382.956 1.671 1.038.75.095-1.064.41-.919 1.084.5.878 1.849.917 1.828.515-.279-.239-1.254.431-4.741 1.488-7.749s2.085-6.707 2.283-8.221c.198-1.513.692-3.539 1.099-4.501.406-.962.479-2.425.162-3.25-.316-.825-.139-1.5.393-1.5.533 0 .969-.579.969-1.286 0-1.27-1.848-1.593-5.25-.916m192.323 3.729c.04 1.085.412 4.357.827 7.27.591 4.152.442 5.472-.687 6.104-1.166.652-1.213 1.231-.246 3.038.657 1.228 1.493 1.934 1.858 1.569s1.223 1.284 1.907 3.664l1.243 4.328-.453-4.64c-.422-4.321-.28-4.673 2.07-5.122 2.018-.386 2.398-.158 1.896 1.14-.345.892-.885 2.972-1.199 4.622-.314 1.65-.912 3.45-1.33 4-.418.55-1.09 4.578-1.495 8.95-.584 6.304-1.174 8.316-2.85 9.717-1.163.971-1.642 1.781-1.064 1.8.577.018 1.59-.507 2.25-1.167.66-.66 1.199-.997 1.198-.75-.019 4.355-3.295 29.637-4.015 30.981-.625 1.169-.637 2.065-.032 2.439.585.361.731 7.271.376 17.81-.391 11.603-.251 16.894.431 16.22.556-.55 1.245-8.147 1.53-16.881.286-8.735.94-16.16 1.453-16.5 1.303-.863 2.271-5.119 1.165-5.119-1.622 0-.406-18.461 1.779-27l.639-2.5.802 3c.685 2.564.749 2.39.44-1.196-.292-3.387.053-4.501 1.786-5.778l2.148-1.581-2.141.56c-2.092.548-2.132.358-1.703-8.222.622-12.432 1.155-15.029 3.541-17.252 3.498-3.259.987-5.205-4.344-3.368-4.936 1.7-4.96 1.682-5.034-3.808-.033-2.395-.68-5.243-1.439-6.328-1.374-1.963-1.38-1.963-1.307 0m-57.573 3.472c-2.017 9.186-11.864 36.93-17.213 48.501-3.305 7.15-7.661 17.275-9.678 22.5a2200.25 2200.25 0 0 1-5.581 14.318c-2.158 5.435-1.784 7.682 1.279 7.682 1.562 0 1.805.288.957 1.136-.847.847-.795 1.476.209 2.479 1.125 1.126 1.117 2.096-.047 5.964-1.429 4.749-.792 7.799 1.81 8.666.787.263.416.871-.989 1.623-2.397 1.283-3.08 4.122-.997 4.147.836.011.753.342-.25 1-1.251.822-1.127 1.087.75 1.602 1.238.339 2.25.958 2.25 1.376 0 .417 2.892 1.587 6.428 2.6 3.535 1.012 6.347 2.249 6.25 2.749-.098.499.447 1.135 1.211 1.413.851.309 1.119.067.691-.625-1.339-2.168 2.334-1.125 4.829 1.37 2.869 2.868 3.591 3.082 3.591 1.061 0-1.239.628-1.226 4.5.094 2.588.881 4.5 2.156 4.5 2.998 0 .806.406 1.214.901.908 1.349-.833 9.427 4.065 9.693 5.877.127.864-.167 1.326-.653 1.026-.485-.3-1.83.543-2.987 1.874-2.083 2.395-6.181 3.571-18.454 5.294-2.75.386-4.213.885-3.25 1.108.963.224 1.75.856 1.75 1.405s.756.241 1.681-.683c1.242-1.242 2.806-1.555 5.982-1.197 2.365.267 4.087.14 3.827-.281-.418-.677 6.55-2.069 7.308-1.461.163.131-.358.894-1.16 1.696-.95.95-1.146 1.948-.563 2.869.615.971.899 1.027.91.179.018-1.488 9.021-6.163 10.71-5.562 1.55.551 5.51-1.564 4.869-2.601-.27-.438 1.517-.728 3.972-.645 3.94.133 4.464-.1 4.464-1.988 0-3.576 1.214-3.656 4.669-.307 5.023 4.868 4.85 2.908-.193-2.194-3.994-4.041-5.765-7.665-7.07-14.466-.212-1.102-1.254-6.504-2.317-12.004-3.212-16.628-3.471-23.831-1.028-28.619 1.143-2.241 1.855-4.299 1.581-4.572-.274-.274-1.389 1.232-2.48 3.347l-1.982 3.844-.626-3c-.344-1.65-1.306-5.072-2.138-7.605-.832-2.533-1.378-5.011-1.214-5.507.32-.969-2.981-12.54-6.816-23.888-1.301-3.85-2.619-8.575-2.928-10.5-.309-1.925-1.254-5.894-2.101-8.82-1.398-4.831-1.393-5.482.052-7.079.875-.967 1.591-2.372 1.591-3.121 0-.887-.512-.685-1.468.579-1.396 1.846-1.47 1.85-1.5.092-.018-1.017-.751-3.364-1.629-5.215-.879-1.852-2.398-5.951-3.375-9.11l-1.777-5.744-.751 3.417m120 16.717c-9.713 2.92-11.995 3.877-11.5 4.826.275.527.95.779 1.5.56.55-.219 3.087-.334 5.638-.255 2.551.079 6.496-.512 8.767-1.314 4.27-1.506 8.562-1.078 5.929.591-.808.512 1.031.825 4.666.793 5.137-.045 5.64-.203 3.5-1.102-1.375-.578-4.075-1.846-6-2.818-5.398-2.726-7.11-2.902-12.5-1.281m-211.412 5.666c-1.125 1.365-1.601 1.449-2.344.415-.71-.987-.817-.927-.446.253.267.853-.124 2.653-.871 4-1.333 2.408-1.359 2.381-1.541-1.55-.155-3.348-.256-3.523-.619-1.076-.339 2.287-.652 2.614-1.437 1.5-.736-1.045-.836-.759-.374 1.076.345 1.375.757 7.45.914 13.5.157 6.05.823 12.125 1.48 13.5 1.031 2.159 1.13 1.681.727-3.5-.257-3.3-.712-7.123-1.012-8.495-.749-3.429.32-6.78 1.559-4.887.564.862.654-.274.238-3.021-.482-3.181-.35-4.208.474-3.698.769.475.921.117.465-1.097-.593-1.583-.471-1.635 1.012-.43 1.947 1.584 2.214 3.786.527 4.348-.868.289-.876.876-.03 2.333.838 1.445 1.155 1.56 1.23.447.068-1.022.343-.88.862.446.727 1.858.788 1.847 1.336-.25.316-1.208.167-2.196-.332-2.196-.498 0-.899-.788-.891-1.75.01-1.08.297-1.329.75-.649 1.323 1.982 6.471 2.411 5.971.497-.238-.911.28-2.319 1.151-3.128 1.428-1.324 1.313-1.501-1.151-1.786-1.505-.174-2.736-.737-2.736-1.25 0-.514-.644-.934-1.43-.934-.787 0-1.575-.974-1.75-2.165-.297-2.012-.42-2.044-1.732-.453m15.603 35.368c.78 2.171 3.869 5.25 5.267 5.25.573 0 1.042.436 1.042.969 0 .532.6.738 1.334.456.874-.335 1.305.244 1.25 1.68-.046 1.206.591 2.407 1.416 2.669 1.211.384 1.259.221.25-.849-1.952-2.069-1.469-3.113.862-1.865 1.162.622 3.198.923 4.525.669 1.424-.272 2.729.103 3.183.914.865 1.545 11.18-2.74 11.18-4.645 0-.549.648-.998 1.441-.998s1.759-.515 2.149-1.145c.486-.787-.1-.991-1.877-.651-3.374.645-5.857-.79-3.731-2.156.982-.632-2.302-.918-9.75-.852-6.178.056-11.232.517-11.232 1.024 0 .508-.707.216-1.571-.649-2.256-2.255-6.564-2.121-5.738.179m-63.084 2.832c-1.132 2.949-.614 5.118 1.857 7.784 2.24 2.418 2.579 6.397.431 5.069-.492-.304-.895-.076-.895.506s.499 1.059 1.108 1.059c1.454 0 .274 4.761-1.657 6.692-.798.798-1.437 2.881-1.421 4.629.026 2.668.197 2.894 1.062 1.408.567-.974 1.528-1.464 2.136-1.088.704.435.169 1.439-1.475 2.771-2.195 1.776-2.369 2.28-1.166 3.377.817.746 1.413.852 1.413.25 0-.571.9-1.039 2-1.039s2 .477 2 1.059-.45.781-1 .441-1-.168-1 .382.419 1.259.932 1.576c1.574.973.341 8.622-1.624 10.065-1.694 1.244-1.64 1.392.845 2.341 3.355 1.281 4.156 2.586 3.281 5.343l-.695 2.189-1.869-2.309c-1.676-2.069-2.332-2.016-1.988.163.065.413-.402.75-1.037.75-.655 0-.371.866.655 2 .995 1.1 1.322 2 .725 2-.741 0-.8.996-.184 3.142.496 1.729.647 3.554.336 4.058-2.364 3.824-.322 8.8 3.611 8.8 1.171 0 1.88.404 1.575.897-.305.494-2.131.824-4.059.733-4.714-.222-4.495 1.167.246 1.56 3.326.275 3.761.623 3.851 3.078.113 3.099 1.399 5.12 1.399 2.199 0-1.406.284-1.583 1.149-.718s.741 1.77-.5 3.664c-.907 1.384-1.656 3.545-1.664 4.802-.016 2.395-1.941 6.34-1.97 4.035-.008-.687-.481-1.25-1.05-1.25-.695 0-.712.604-.052 1.838.542 1.011.778 2.924.525 4.25-.386 2.027-.226 1.933 1.006-.588 1.454-2.976 1.467-2.98 1.633-.5.092 1.375.541-.05.999-3.167 1.095-7.463 3.775-12.488 6.392-11.982 1.778.343 1.826.207.5-1.397-1.354-1.638-1.257-1.736 1.247-1.261 1.516.289 2.917.028 3.171-.588.28-.677.487-.598.535.204.043.72.524 1.034 1.069.697.58-.358.198-1.461-.924-2.665-1.052-1.13-2.384-1.762-2.96-1.406-.59.364-1.347-.549-1.735-2.091-.423-1.686-.263-2.88.415-3.106.606-.202.854-1.013.551-1.803-.303-.789-.061-1.435.537-1.435.598 0 1.373 1.137 1.722 2.527.51 2.033.909 2.299 2.038 1.362 1.089-.904 1.809-.798 3.213.473.996.901 2.45 1.645 3.232 1.653 1.175.013 1.162.183-.079.985-1.52.982-1.104 1.214 2.5 1.398 1.1.056 1.887.665 1.75 1.352-.232 1.159 1.048 1.705 3.116 1.33.477-.087 1.896.517 3.154 1.341 1.868 1.224 6.083 1.948 14.73 2.529.412.027.75.548.75 1.157s-.661.853-1.468.544c-.807-.31-1.734-.133-2.059.393-.334.54.958.956 2.968.956 3.287 0 4.113-.765 3.637-3.373-.088-.48.534-.606 1.381-.281 1.864.715 1.983-.366.291-2.654-1.131-1.528-4.122-2.263-10.5-2.58-1.4-.07-2.28-.773-2.329-1.862-.047-1.045-.282-1.247-.583-.5-.747 1.85-3.764 1.521-7.781-.849-3.611-2.13-4.792-3.589-2.057-2.539.825.316 1.5.139 1.5-.393a.97.97 0 0 0-.968-.969c-.589 0-.635-.88-.116-2.25.517-1.366 1.526-2.126 2.568-1.933 1.139.21 1.463-.094.962-.905-.483-.78-.338-.964.399-.507 1.586.98 3.182-.17 2.544-1.833-.584-1.522-5.389-2.792-5.389-1.425 0 1.286-4.137-1.297-6.327-3.95-2.364-2.863-3.133-2.301-1.564 1.142.651 1.429 1.68 2.315 2.287 1.969.607-.346.782-.272.389.163-.393.436-.19 1.745.452 2.91 3.165 5.746 1.782 7.052-4.188 3.955-3.558-1.847-4.762-2.997-4.383-4.191.45-1.417.373-1.437-.556-.145-.989 1.374-1.35.796-1.025-1.638.047-.351-.413-.946-1.022-1.323-1.212-.749 2.317-9.94 4.329-11.274.609-.404.759-.741.332-.75-.426-.008-.089-1.343.75-2.965 2.04-3.945 2.023-5.707-.04-3.995-1.453 1.206-4.685 6.596-4.308 7.185.468.729-1.389 4.76-2.193 4.76-.513 0-.933.886-.933 1.969 0 1.316-.484 1.782-1.462 1.407-1.487-.57-3.14-4.133-2.683-5.784.138-.5-.232-1.207-.822-1.571-2.914-1.802-7.116-24.403-4.718-25.38.784-.32.808-.51.074-.562-1.436-.102-.512-5.098 1.272-6.883 1.119-1.119 1.339-1.008 1.339.674 0 1.106-.45 2.29-1 2.63-.55.34-1 1.111-1 1.714s.835.34 1.857-.584c2.028-1.836 1.811-6.63-.3-6.63-.776 0-1.053-1.077-.77-3 .242-1.653-.016-3-.576-3-.558 0-1.486 1.35-2.061 3s-1.332 3-1.681 3c-.35 0-.438-.562-.196-1.25.242-.687.072-2.247-.378-3.465-.476-1.286-.416-2.463.143-2.809 1.997-1.234 1.12-6.392-1.017-5.98-1.088.21-2.24-.041-2.559-.557-.877-1.42-2.176-1.128-2.855.643m113.524 34.722c.17 1.974-.015 3.913-.411 4.309-2.79 2.791 2.056 4.707 5.201 2.056.869-.731 3.716-2.119 6.329-3.082 6.823-2.517 6.755-5.587-.125-5.587-2.681 0-6.321-.289-8.089-.643-3.179-.636-3.211-.604-2.905 2.947m-65.052-1.446c-.055.942-.847 1.166-2.579.731-1.876-.47-2.5-.233-2.5.951 0 .979-.474 1.305-1.25.859-.687-.396-.934-.369-.548.06.825.915-1.546 3.541-3.198 3.541-1.317 0-.307 4.132 1.256 5.136.544.35.99 1.813.99 3.25 0 1.551.559 2.614 1.375 2.614.756 0 1.375.73 1.375 1.622 0 1.208.329 1.35 1.284.558.813-.676 1.82-.726 2.75-.138.806.51 1.029.934.494.943-.534.008.591 1.091 2.5 2.407 1.91 1.316 3.81 2.189 4.222 1.941.412-.248.75-.037.75.469 0 .507 1.192.693 2.649.414 1.737-.332 2.419-.136 1.983.57-.365.592-.25 1.332.258 1.646.507.313.7 1.582.429 2.819-.395 1.806-.282 1.954.578.749.588-.825.801-2.968.473-4.762-.475-2.593-.299-3.148.856-2.705.8.307 2.027-.133 2.727-.976.701-.844 1.673-1.288 2.16-.987.488.301.887.071.887-.511s-.675-1.059-1.5-1.059-1.5-.45-1.5-1 1.125-1 2.5-1c2.975 0 3.346-1.966.511-2.707-1.094-.286-1.753-.901-1.466-1.366.897-1.451-1.804-4.765-3.387-4.157-1.043.4-1.242.175-.668-.755.545-.881.433-1.085-.335-.61-.708.437-1.167.013-1.187-1.096-.029-1.688-.13-1.679-1.5.132-1.255 1.659-1.468 1.7-1.468.282 0-1.065-.538-1.454-1.5-1.085-.95.365-1.5-.013-1.5-1.031 0-.884-.477-1.607-1.059-1.607s-.781-.45-.441-1-.084-1-.941-1-1.559-.477-1.559-1.059-.412-.805-.915-.494c-.503.311-1.142 0-1.421-.691-.38-.943-.526-.918-.585.102M205 503.902c0 .496 1.463 1.442 3.25 2.101 1.787.66 2.713 1.408 2.056 1.663-.656.255-.968 1.051-.692 1.77.275.718-.223 1.584-1.108 1.924-.886.339-1.354.203-1.042-.302.313-.506.111-1.202-.448-1.548-.566-.35-1.016.313-1.016 1.498 0 1.742.407 2.003 2.25 1.44 2.248-.686 2.248-.685.25 1.284-1.991 1.963-2.007 1.96-3.743-.631-1.848-2.756-2.449-1.262-.761 1.892 1.499 2.801.328 4.576-4.191 6.352-4.029 1.582-6.382 1.397-5.262-.414.316-.512.098-.931-.484-.931a1.063 1.063 0 0 1-1.059-1.059c0-.582.45-.781 1-.441s1 .19 1-.334-.618-1.189-1.374-1.479c-.755-.29-1.684-2.184-2.064-4.209-.38-2.025-.942-3.432-1.248-3.125-.307.306.006 3.541.694 7.187 1.07 5.672 1.038 6.843-.224 8.104-1.793 1.794-8.764 2.465-14.556 1.401-2.349-.431-4.513-.393-4.809.085-.295.479.179.87 1.053.87.875 0 1.856.691 2.18 1.535.858 2.238 8.842 7.465 11.401 7.465 1.72 0 1.952-.289 1.078-1.342-.612-.738-.78-1.71-.372-2.16.407-.45.179-.495-.509-.099-.687.395-1.25.235-1.25-.356s1.319-.974 2.931-.851c1.612.122 2.713.574 2.448 1.004-.266.43.289.485 1.233.123 1.23-.473 1.493-.298.927.618-.603.976-.076 1.12 2.241.611 1.799-.395 3.299-.228 3.694.41.365.591 1.102.804 1.637.474 1.073-.664 15.092 3.327 15.889 4.523.77 1.155 11.286 2.317 10.576 1.168-.329-.533-2.056-1.281-3.837-1.662-1.782-.38-3.701-1.062-4.266-1.514-.565-.452-4.39-1.573-8.5-2.491-4.11-.919-7.865-2.037-8.345-2.485-.479-.448-1.492-.577-2.25-.286s-1.378.093-1.378-.439c0-.533-1.061-.766-2.359-.518-3.315.634-4.347-2.334-1.095-3.15 1.327-.333 4.693-1.95 7.48-3.593 4.813-2.838 5.215-2.912 8.003-1.47 1.615.835 4.969 1.797 7.454 2.138 2.484.34 4.517 1.008 4.517 1.483 0 .475.9.864 2 .864s2-.441 2-.981c0-.992-1.308-1.386-8.449-2.544-6.175-1.001-8.075-2.691-5.573-4.955 1.088-.985 2.964-1.843 4.168-1.906 2.173-.113 4.019-2.614 1.929-2.614-.74 0-.692-.64.147-1.984 1.68-2.69-.404-4.697-7.38-7.106-6.388-2.206-5.842-2.112-5.842-1.008m-63.921 45.348c-.069 1.533-1.841 2.282-4.383 1.851-.442-.075-1.49.55-2.33 1.39-.84.84-1.989 1.242-2.554.893-.659-.408-.768.179-.304 1.642.574 1.807.403 2.154-.828 1.681-.853-.327-1.753-.057-2.001.599-.294.782-.996.504-2.032-.806-1.84-2.324-2.152-1.313-.531 1.717.934 1.745.86 1.988-.449 1.486-1.138-.437-1.396-.161-.946 1.012.428 1.115.237 1.377-.619.848-.681-.421-1.045-1.282-.809-1.914.237-.632.074-2.049-.361-3.149-.634-1.603-.805-1.328-.862 1.39-.044 2.115.588 3.895 1.68 4.733 1.625 1.248 1.575 1.393-.696 2.029-2.269.634-2.305.739-.5 1.446 1.799.704 1.776.767-.304.832-1.237.038-2.25.478-2.25.976 0 .499.9.671 2 .384 2.467-.645 2.595.538.25 2.318-1.653 1.255-1.646 1.33.122 1.36 1.551.027 1.659.29.628 1.532-1.02 1.229-.951 1.5.378 1.5 1.011 0 1.628.847 1.637 2.25.012 1.711.23 1.912.91.838.951-1.503 4.075.585 4.075 2.724 0 1.078 3.778 2.501 5.894 2.22.766-.102 1.766.411 2.221 1.141.639 1.023 1.198.803 2.442-.963 1.108-1.574 2.214-2.1 3.532-1.682 1.574.5 1.851.192 1.537-1.709-.21-1.276.35-3.172 1.246-4.215 1.358-1.581 1.379-1.816.128-1.412-1.702.549-3.921-1.875-3.968-4.335-.034-1.76 2.557-3.229 4.058-2.301 1.348.833 1.103-.951-.34-2.481-1-1.06-.999-1.417.006-1.785.691-.254.995-.884.676-1.4-.319-.517-.21-.875.244-.796 3.056.531 3.378-.315.97-2.546-3.026-2.805-3.266-3.548-1.146-3.548.825 0 1.5-.375 1.5-.833 0-.459-.675-.834-1.5-.834s-1.5.375-1.5.834c0 .458-.54.833-1.2.833-.933 0-.933-.267 0-1.2 1.68-1.68 1.506-3.298-.203-1.881-1.128.937-1.602.618-2.421-1.627-.632-1.734-1.048-2.129-1.097-1.042m174.104 2.967c-.65.65-1.233.755-1.295.233-.061-.522-.856 2.2-1.767 6.05-1.446 6.11-1.972 7.051-4.139 7.403-2.383.386-2.396.426-.318 1l2.165.597-2.4 7.5c-1.321 4.125-2.257 7.95-2.081 8.5.411 1.284 5.338-13.485 7.614-22.822l1.749-7.178 1.677 3.794c.921 2.087 1.434 4.186 1.138 4.665-.296.478.027 1.105.718 1.393.896.372.699.971-.685 2.085-1.885 1.518-1.869 1.563.565 1.563 1.887 0 2.925.879 4.203 3.559 4.137 8.676 17.945 24.781 18.966 22.12.407-1.06.148-1.679-.703-1.679-3.803 0-17.21-20.023-21.091-31.5-3.165-9.357-2.821-8.778-4.316-7.283" fill="#d3d3d3" fill-rule="evenodd"/></svg>