<svg xmlns="http://www.w3.org/2000/svg" width="500" height="678"><path d="M304.53 70.155c-1.863 1.126-12.086 1.482-27.353.953-4.865-.168-7.128.255-9.808 1.837-1.916 1.13-4.589 2.055-5.94 2.055-2.447 0-3.101.242-9.083 3.357-1.735.904-4.113 1.643-5.285 1.643-1.172 0-3.215.71-4.54 1.578-1.325.869-3.897 1.811-5.715 2.094-1.818.284-3.777.903-4.352 1.375-.575.473-1.925.88-3 .905-7.026.164-18.849 2.11-21.641 3.561-2.754 1.432-6.771 1.774-23.813 2.025-11.275.166-27.025 1.073-35 2.016-24.933 2.948-35.879 3.177-42.443.889-2.231-.778-5.135-1.42-6.453-1.428L97.708 93l.629 12.25c.346 6.737.929 26.058 1.296 42.934.367 16.877.938 31.052 1.267 31.5 2.081 2.83 20.655 7.159 23.559 5.49.528-.303 4.128-.706 8-.895a657.12 657.12 0 0 0 12.041-.703c5.86-.421 19.937 1.108 23.428 2.544 2.319.955 6.569 1.944 17.572 4.09 8.075 1.575 15.8 1.633 17.304.129 1.876-1.876 4.548-1.673 10.241.776 2.703 1.163 5.492 1.893 6.198 1.622.705-.271 3.43-.166 6.055.232 2.625.399 4.982.386 5.238-.027.804-1.301 17.19.609 19.165 2.233 1.506 1.24 13.586 1.496 27.299.579 26.118-1.745 34.604-2.21 36-1.97 10.345 1.781 13.536 2.016 14.663 1.08.69-.572 2.511-.794 4.046-.492 8.184 1.611 11.156 1.979 14.791 1.83 6.271-.257 25.032 1.718 32.272 3.397 4.429 1.027 8.583 1.308 12.753.861 4.65-.498 6.925-.279 9.169.882 1.642.849 5.42 1.557 8.396 1.572 23.25.122 26.488.3 29.696 1.641 5.624 2.35 6.549 1.993 4.6-1.775-.916-1.771-1.854-4.809-2.084-6.75-.23-1.942-1.523-6.36-2.872-9.819-4.236-10.862-6.18-51.185-2.974-61.711.837-2.75 1.527-7.336 1.533-10.191.006-2.855.418-5.443.916-5.75.497-.308.679-2.247.402-4.309-.276-2.063-.054-6.225.493-9.25.698-3.859.648-7.588-.17-12.5l-1.164-7-3.479-.332c-1.914-.182-4.02-.78-4.681-1.329-.77-.639-4.542-.7-10.504-.168-5.116.456-10.202.701-11.302.545-1.1-.157-6.05-.444-11-.638-10.194-.401-32.478-2.348-37-3.233-4.523-.886-10.595-.511-12.111.747-.991.823-2.606.824-6.118.004-2.624-.612-6.121-1.091-7.771-1.064-1.65.028-8.4-.202-15-.509-8.413-.392-12.589-.203-13.97.632M45.725 181.275c-.304.791-.877 5.581-1.273 10.644-.436 5.573-1.259 9.745-2.086 10.572-1.42 1.42-1.607 5.848-.466 11.009.365 1.65.376 4.958.025 7.352-.659 4.488.601 12.921 2.18 14.598.492.522.902 2.772.91 5 .023 6.128.767 6.736 6.018 4.922 2.813-.972 5.763-1.297 7.967-.878 4.838.921 10.584.631 13.799-.696 1.486-.613 4.051-1.224 5.701-1.357 1.65-.132 5.025-.714 7.5-1.293 3.044-.711 5.523-.728 7.663-.051 3.349 1.06 12.045-.147 29.337-4.069 2.475-.561 7.2-1.213 10.5-1.447 3.3-.234 8.475-.939 11.5-1.566 4.667-.968 25.247-2.493 30-2.223.825.047 8.025.329 16 .627 7.975.299 17.66 1.047 21.522 1.664 7.711 1.232 6.194 1.7 23.978-7.409 2.75-1.408 7.475-3.526 10.5-4.706a651.931 651.931 0 0 0 6.817-2.689c1.462-.605 1.051 9.921-.659 16.859l-.897 3.637 6.911-.354c3.8-.194 7.406-.66 8.011-1.034 2.302-1.423 14.286-1.185 17.25.342 2.754 1.42 13.565 2.456 13.569 1.301.001-.291 4.951-.672 11-.847 7.084-.203 10.998.05 10.998.714 0 .566-1.962.991-4.36.942-3.018-.06-5.737.72-8.831 2.533-2.459 1.441-6.684 2.87-9.39 3.176-5.602.632-11.759 2.295-15.419 4.163-1.375.702-3.175 1.281-4 1.287-.825.005-2.887.856-4.583 1.89-1.696 1.034-4.509 2.193-6.25 2.575-1.742.383-3.167 1.077-3.167 1.543 0 1.12-5.151 3.65-9.24 4.54-4.684 1.018-7.339 4.185-8.643 10.307-.627 2.945-2.902 8.795-5.056 13-2.153 4.206-4.925 10.01-6.159 12.897-1.234 2.887-2.617 5.25-3.073 5.25-1.326 0-.957-3.729.515-5.201.739-.74 2.095-3.584 3.011-6.322.917-2.737 2.771-6.906 4.119-9.263 2.47-4.32 4.298-12.434 4.413-19.589.034-2.131.575-6.487 1.204-9.68 1.286-6.539.758-25.496-.753-27.007-.97-.97-6.306.642-10.838 3.274-8.978 5.215-14.092 6.979-18.481 6.372-2.486-.344-11.944-.855-21.019-1.137-9.075-.281-19.507-.693-23.182-.916-3.676-.222-12.001.252-18.5 1.055-6.5.803-15.418 1.857-19.818 2.342-10.526 1.161-43.058 7.934-48 9.993-2.105.878-9.352 2.513-15.873 3.581-2.13.349-4.605 1.004-5.5 1.456-6.162 3.108-23.903 10.513-34.662 14.467-7.76 2.852-11.779 5.257-10.971 6.565.898 1.454 13.042 7.01 15.321 7.01 2.265 0 9.267 1.471 15.185 3.191 1.925.56 5.183 2.154 7.241 3.543 3.104 2.095 4.003 2.309 5.276 1.252.843-.7 4.913-2.078 9.044-3.062 4.186-.998 8.269-2.624 9.224-3.674 3.273-3.596 11.262-5.546 15.488-3.78 2.015.841 4.915 1.542 6.445 1.557 1.591.015 4.281 1.288 6.282 2.973 3.911 3.293 2.439 4.119-1.79 1.006-2.347-1.728-3.234-1.85-6.619-.91-3.289.914-4.051.833-4.8-.505-2.25-4.02-7.713-1.346-9.36 4.581-3.635 13.083-4.392 15.59-5.532 18.328-.687 1.65-1.375 4.094-1.528 5.432-.154 1.338-.716 3.588-1.249 5-.533 1.412-1.238 5.268-1.566 8.568l-.596 6 4.821 2.208c4.6 2.107 8.191 2.181 10.732.222 3.205-2.472 30.341-.707 37.611 2.447 1.857.805 6.507 2.18 10.333 3.055 4.516 1.033 7.881 2.475 9.587 4.111 1.447 1.385 3.266 2.29 4.043 2.01.777-.28 9.58-.69 19.562-.91 9.983-.22 18.627-.695 19.21-1.056.583-.36 1.96-.093 3.06.595 1.564.977 2.718.991 5.291.066 1.809-.651 5.99-1.462 9.29-1.801 3.477-.358 8.633-1.872 12.261-3.601 6.628-3.157 10.92-3.467 10.482-.757-.507 3.136 2.961 5.036 6.162 3.376 1.553-.806 4.01-1.483 5.459-1.505 1.45-.022 5.089-1.098 8.087-2.392 2.997-1.293 5.947-2.161 6.553-1.928.607.233 3.68-.716 6.828-2.108 7.061-3.123 7.039-3.123 10.036.109 3.315 3.575 13.322 3.081 21.481-1.06 2.943-1.494 5.586-2.479 5.874-2.191.289.288 2.346-.405 4.571-1.54 3.708-1.892 5.81-2.065 25.126-2.072 23.973-.009 39.922.506 50.08 1.618 5.465.598 7.815.419 10.718-.815 2.045-.87 5.442-1.581 7.55-1.581 2.108 0 4.259-.422 4.782-.938.522-.516 3.313-1.249 6.2-1.629 5.31-.699 5.953-.252 5.391 3.749-.053.375.594 2.334 1.438 4.352 1.267 3.033 1.914 3.568 3.727 3.082 1.207-.324 3.572-.595 5.256-.602l3.063-.014-.854-7.75c-.47-4.262-2.836-23.725-5.259-43.25-2.423-19.525-4.708-38.709-5.076-42.631-.942-10.01-.325-9.601-14.57-9.677-14.261-.076-18.023.324-30.366 3.229-4.95 1.165-12.231 2.624-16.181 3.242l-7.181 1.123-5.488-3.643c-3.019-2.004-6.05-3.643-6.736-3.643-.687 0-4.163-1.602-7.726-3.561-3.563-1.958-7.875-3.708-9.583-3.888-1.708-.18-5.355-1.349-8.105-2.599-6.892-3.131-11.579-4.265-26.5-6.409-3.907-.561-9.048-2.338-10.677-3.69-1.018-.844-4.834-1.15-12.153-.973-5.869.143-11.345.241-12.17.218-.825-.022-12.975-.241-27-.487-21.863-.383-47.513-1.115-73-2.081-4.928-.187-7.682-.911-11.385-2.996-3.977-2.238-6.301-2.79-12.5-2.969-4.188-.121-8.29-.504-9.115-.852-4.637-1.957-20.652-7.701-21.5-7.712-.55-.007-2.294-.688-3.876-1.513-1.582-.825-5.407-1.769-8.5-2.098-7.503-.797-16.689-3.13-21.064-5.348-5.009-2.54-15.599-3.686-16.335-1.767m360.136 152.702c-.902.549-3.827 1.071-6.5 1.159-2.674.088-6.886.764-9.361 1.502-2.475.737-6.182 1.345-8.239 1.351-2.056.006-7.215.965-11.464 2.13-5.366 1.472-9.417 1.969-13.261 1.627-7.993-.711-11.906.034-11.351 2.159.294 1.123-.435 2.116-2.118 2.883-1.412.643-2.567 1.823-2.567 2.623 0 1.36-2.541 2.689-6 3.137-.825.106-2.242.508-3.149.891-2.361.999-3.337-1.244-1.449-3.331 3.549-3.921 4.245-3.684-22.902-7.813-19.28-2.933-29.476-3.39-31.841-1.427-.869.721-3.286 1.188-5.37 1.036-4.507-.327-20.564 1.154-19.884 1.835.261.261 4.889.66 10.285.887 12.698.534 16.872 1.212 15.556 2.528-.557.557-5.993 1.088-12.08 1.18-7.32.11-11.49.589-12.316 1.416-.723.723-3.801 1.253-7.3 1.256-3.328.004-7.175.59-8.55 1.302-1.375.713-4.96 1.424-7.966 1.58-3.006.156-8.856 1.18-13 2.276-4.144 1.097-8.659 2.249-10.034 2.56-1.375.312-3.388 1.177-4.473 1.922-1.084.744-3.664 1.354-5.731 1.354-2.067 0-6.888.537-10.712 1.192-4.719.81-8.179.885-10.769.235-2.248-.564-6.691-.622-10.815-.141-4.475.522-8.564.424-11.335-.271-2.385-.598-12.285-1.538-22-2.09-18.276-1.038-20.577-1.236-33.165-2.858C78.418 355.802 69.964 355 63.663 355h-6.701l.647 2.577c.356 1.418.096 3.605-.576 4.862-1.22 2.279-.942 16.848.531 27.817.598 4.455-1.737 14.924-5.798 25.995-1.398 3.81.224 5.422 6.295 6.257 2.728.376 7.145 1.737 9.816 3.025 5.02 2.422 13.482 4.804 20.861 5.873 2.331.338 6.101 1.584 8.376 2.771 4.391 2.288 11.863 2.884 14.083 1.122.717-.569 5.027-1.601 9.579-2.293 5.244-.798 9.213-1.996 10.836-3.273 3.445-2.709 12.081-2.557 21.642.381 3.985 1.225 9.583 2.938 12.438 3.807l5.193 1.579-14.693.016c-11.067.011-16.087.443-20.346 1.75-3.11.953-7.02 1.734-8.691 1.734-1.67 0-3.289.408-3.597.906-.9 1.456-10.166 2.374-12.321 1.221-1.066-.571-4.256-1.302-7.088-1.626-4.885-.559-5.146-.472-5.087 1.705.176 6.474 7.706 46.271 8.715 46.061 1.842-.383 23.504-1.494 52.074-2.67 8.443-.348 16.993-.989 19-1.425 2.007-.436 7.474-.464 12.149-.062 12.505 1.075 24.871 1.029 26.981-.1 1.222-.654 3.633-.652 7.099.005 5.132.974 10.323.094 13.626-2.31.664-.482 1.789-.514 2.5-.071.712.444 6.329.889 12.483.99 6.154.1 11.619.448 12.144.773 1.21.748 7.443-1.82 9.015-3.714 1.063-1.281 4.459-2.195 12.152-3.27 1.375-.193 6.241-.557 10.813-.811 4.571-.253 8.846-.884 9.5-1.401.653-.517 2.83-1.236 4.839-1.598 2.513-.452 4.449-1.702 6.207-4.007 1.696-2.224 4.069-3.797 7.058-4.679 2.477-.732 4.337-1.497 4.133-1.7-1.104-1.105-64.081.98-65.26 2.16-.299.299-2.174-.15-4.167-.998-1.993-.849-5.423-1.678-7.623-1.844-2.2-.166-5.8-.779-8-1.364-2.2-.584-7.6-1.508-12-2.054-4.4-.546-9.49-1.742-11.311-2.658-3.252-1.637-3.279-1.705-1.511-3.813.99-1.18 1.924-2.34 2.076-2.577.629-.987 11.666-2.062 25.246-2.459 12.961-.379 15.021-.687 19.405-2.902 4.579-2.312 5.135-2.38 8.367-1.03 1.904.795 4.041 1.224 4.75.952 1.776-.682 15.477 1.271 18.194 2.593 1.609.783 2.593.766 3.592-.064.757-.628 1.634-.884 1.948-.569.315.314 1.403.128 2.418-.415 1.83-.98 10.355.521 11.936 2.101.388.389 1.321.196 2.072-.427 1.811-1.503 17.382.002 24.318 2.351 1.925.652 8.225 1.286 14 1.41 5.775.123 14.887.515 20.25.87l9.75.646v-2.902c0-2.146.669-3.208 2.565-4.072 2.545-1.159 2.614-1.769.764-6.71-.218-.583.539-2.137 1.683-3.456 4.148-4.782 5.968-8.785 6.86-15.089.701-4.946 1.865-7.866 5.051-12.662 4.134-6.224 4.14-6.248 4.437-16.984.17-6.134.836-11.756 1.552-13.092.948-1.766.984-2.996.148-5.013-.846-2.044-.77-3.79.321-7.417.785-2.609 1.2-5.615.922-6.679-.279-1.065.259-3.424 1.194-5.243 2.312-4.496 3.205-17.807 1.195-17.807-.793 0-2.736-.23-4.317-.511s-3.613-.061-4.514.488M473 461.668c-1.925.855-7.1 2.151-11.5 2.88-11.119 1.843-19.789 3.945-28.063 6.804-15.562 5.377-36.531 7.173-47.668 4.083-5.978-1.66-11.369-2.239-27.769-2.987-8.093-.37-12.537-1.043-15-2.275l-3.5-1.751-6.784 7.039c-3.731 3.872-7.742 9.096-8.912 11.61-1.202 2.581-3.582 5.524-5.466 6.759-1.836 1.204-3.338 2.634-3.338 3.179 0 .545-.605.991-1.345.991-2.008 0-4.421 3.084-6.071 7.762-2.933 8.312-10.762 12.668-13.969 7.773-2.446-3.733-2.017-5.219 2.885-9.983 2.475-2.406 4.5-4.809 4.5-5.342 0-1.339-21.471-2.403-75.5-3.741-29.623-.733-76.064 1.867-99.114 5.549-3.742.598-8.578.788-10.746.421-3.573-.604-3.87-.492-3.175 1.198.808 1.967 2.294 7.179 3.239 11.363.31 1.375.956 2.998 1.434 3.608 1.27 1.616 4.809 12.547 4.837 14.942.014 1.128.505 2.53 1.092 3.117.587.587 1.328 4.516 1.647 8.732.319 4.215.963 7.902 1.433 8.192.469.29.853 1.829.853 3.421 0 1.592.424 3.928.942 5.191s1.225 4.884 1.572 8.047l.63 5.75h6.485c3.567 0 8.372.414 10.678.919 12.975 2.845 36.867 5.769 53.818 6.587 6.393.308 12.468.718 13.5.911 1.031.193 5.7.641 10.375.996 4.675.354 11.134.906 14.354 1.226l5.853.581-.638-2.905c-.621-2.83-.501-2.934 4.599-3.979 2.88-.59 9.308-.879 14.284-.643 8.521.404 12.085.786 30.548 3.271 20.406 2.746 40.517 2.451 48.076-.706 1.417-.592 8.842-1.331 16.5-1.642 13.928-.566 34.952-2.824 43.424-4.663 6.202-1.346 21.79-1.277 32 .142 4.675.649 13.45 1.231 19.5 1.293l11 .112v-19c0-10.45-.338-21.475-.751-24.5-.413-3.025-.786-7.975-.83-11-.075-5.241-.204-5.506-2.749-5.628-8.334-.398-29.187-2.262-29.869-2.669-.44-.264-4.087-.766-8.103-1.117-4.015-.351-9.865-1.322-13-2.157-3.359-.895-9.187-1.444-14.198-1.339-28.394.599-50.64-.454-52.903-2.503-2.573-2.328-3.817-2.003-8.664 2.263-5.07 4.463-13.902 8.15-19.522 8.15-5.923 0-4.68-1.689 1.629-2.212 4.126-.342 6.685-1.266 10.029-3.624 2.469-1.74 4.72-3.164 5.002-3.164.283 0 1.057-.458 1.721-1.019 5.595-4.717 5.896-4.86 8.321-3.938 3.6 1.369 6.992 1.906 15.802 2.505 4.354.296 8.292.771 8.751 1.055 1.296.801 24.517.711 25.83-.1.641-.397 5.742-.917 11.335-1.157 9.042-.388 20.088-1.883 32.169-4.352 2.2-.45 6.25-1.261 9-1.803s6.35-1.443 8-2.004c6.634-2.253 10.247-3.187 12.325-3.187 1.2 0 3.861-.9 5.914-2 2.052-1.1 4.302-2 5-2 .697 0 2.947-.9 5-2 2.052-1.1 4.981-2 6.508-2 2.693 0 2.759-.128 2.182-4.25-.327-2.337-1.073-5.6-1.658-7.25-.585-1.65-1.335-5.25-1.667-8l-.604-5-4-.193c-2.2-.106-5.575.507-7.5 1.361" fill="#d3d3d3" fill-rule="evenodd"/></svg>