<svg xmlns="http://www.w3.org/2000/svg" width="500" height="496"><path d="M0 50.495c0 49.798.029 50.534 2.077 52.582 1.296 1.296 2.707 1.828 3.75 1.414 2.363-.937 5.124-1.575 9.173-2.121 1.925-.259 3.95-.949 4.5-1.533.698-.741.244-.861-1.5-.398-2.43.646-2.444.62-.512-.922 1.826-1.456 2.093-1.442 3.272.17.706.966 1.099 2.239.872 2.829-.273.711 1.994 1.017 6.728.906 3.927-.092 9.054.28 11.393.825 3.283.766 4.638.679 5.938-.377 1.461-1.189 1.603-1.154 1.072.263-.547 1.463.448 1.582 9.563 1.14 13.805-.67 21.544-.091 22.66 1.695.283.452 5.914.723 12.514.601 19.136-.352 18.003-.129 18.144-3.569.067-1.65-.365-3-.961-3-.76 0-.751-.332.03-1.113 1.767-1.767 3.287-.068 3.287 3.672 0 3.591 2.929 5.205 3.07 1.691.062-1.526.168-1.502.828.184.52 1.329.986 1.563 1.489.75.402-.651.453-1.634.113-2.184-.34-.55-.179-1 .358-1 .536 0 1.125.359 1.309.797.43 1.029 9.833.261 9.833-.803 0-.442-3.263-1.237-7.25-1.765-5.751-.762-6.372-.989-3-1.095 3.711-.117 4.246-.419 4.22-2.384-.028-2.009-.14-2.063-1.05-.5-1.345 2.309-7.92 2.467-7.92.191 0-.924.47-1.268 1.155-.846.715.443.883.275.44-.44-.492-.797.484-1.155 3.146-1.155 2.122 0 4.348-.489 4.946-1.087.753-.753 1.287-.765 1.736-.038.431.697 1.485.73 3.148.098 1.921-.73 2.632-.607 3.069.532.313.816.992 1.222 1.509.903.516-.319 1.594-.036 2.395.628 1.025.851 1.456.877 1.456.086 0-.617.477-1.122 1.059-1.122s.781.45.441 1-.111 1 .508 1c.712 0 .865-.825.415-2.242-.625-1.97-.517-2.081.889-.914.88.73 2.039 1.057 2.575.726.536-.332 1.28-.109 1.653.495.373.603 1.754.827 3.069.497 1.35-.339 2.391-.156 2.391.419 0 .56.477 1.019 1.059 1.019s.781-.45.441-1-.141-1 .441-1 1.059.654 1.059 1.453c0 1.216.486 1.175 2.966-.248 2.407-1.382 2.651-1.813 1.297-2.288-1.17-.411-.681-.783 1.637-1.247 1.818-.364 3.709-.412 4.203-.107.493.305.897.078.897-.504S164.97 91 166.155 91c2.07 0 2.086-.076.397-1.942-.966-1.068-1.559-2.531-1.317-3.25.242-.719-.274-1.899-1.147-2.621-1.186-.98-1.271-1.444-.338-1.833 2.05-.854 1.475-3.226-.648-2.67-4.538 1.186-7.964-5.305-5.11-9.684.836-1.283.98-1.247.993.25.012 1.416.825 1.718 4.265 1.582l4.25-.168-3.832-.397c-2.824-.293-3.687-.775-3.281-1.832.302-.789.002-1.442-.668-1.45-.855-.011-.814-.273.138-.875.957-.607.589-.86-1.25-.86-1.434 0-2.607.394-2.607.875s-.45.875-1 .875c-1.609 0-1.163-1.448 1.242-4.03 1.864-2 2.296-2.131 2.557-.774.433 2.246 2.904 3.021 3.627 1.137.332-.865 1.244-1.29 2.082-.968.821.315 1.492.136 1.492-.396 0-.533.787-.983 1.75-.999 1.662-.029 1.661-.082-.008-1.055-.967-.563-2.204-.747-2.75-.41-.546.337-.992.136-.992-.446 0-.886 2.236-1.275 5.75-1 .412.032.688.707.611 1.5-.151 1.566.609 1.774 3.057.834.87-.334 1.582-1.234 1.582-2S175.73 57 176.622 57c1.266 0 1.371.303.478 1.379-.913 1.101-.63 1.478 1.402 1.866 1.4.268 2.75.156 3-.249.25-.404 2.377-.295 4.726.242 8.292 1.898 15.772 2.101 15.772.428 0-1.661-6.346-4.189-7.98-3.178-.561.346-1.02.153-1.02-.429S192.25 56 191.333 56c-.916 0-1.352-.315-.967-.699.384-.385 2.709-.576 5.167-.425 2.691.166 4.467-.153 4.467-.8 0-.592-.986-1.076-2.191-1.076-2.146 0-2.151-.032-.25-1.529 1.854-1.461 1.807-1.523-1.059-1.394-1.65.074-3.45.019-4-.122-1.047-.269-3.829-.614-6.679-.829-.923-.069-2.466-.913-3.428-1.876-.963-.962-1.782-1.608-1.822-1.435-.039.173-.904-.006-1.922-.396-1.092-.419-2.16-.21-2.605.509-.583.944-1.575.877-4.377-.294-2.137-.893-3.862-1.128-4.204-.574-.818 1.323-10.218 1.176-10.665-.166-.263-.788-1.425-.815-4.032-.095-2.661.735-3.813.695-4.214-.144-.399-.834-.718-.796-1.149.137-.404.873-.982.972-1.783.307-.653-.541-3.421-1.282-6.153-1.647-5.32-.709-7.178-1.452-3.634-1.452 1.192 0 2.167-.47 2.167-1.044 0-.574-.562-.971-1.25-.881-3.116.404-4.173-.052-2.95-1.275.66-.66 1.236-2.122 1.279-3.25.044-1.142.308-1.478.597-.758.387.963.86 1.008 1.862.177.739-.614 1.097-1.757.796-2.542-.302-.785-.064-1.427.528-1.427.591 0 .814-.681.495-1.513-.811-2.112 1.379-4.423 3.757-3.965 1.129.217 2.235-.269 2.565-1.127.318-.831 1.213-1.267 1.988-.969.775.297 1.665-.127 1.978-.943.313-.817 1.813-1.483 3.34-1.483 1.523 0 3.299-.637 3.945-1.415.854-1.03 1.977-1.185 4.122-.57 1.621.465 2.955.539 2.963.165.009-.374.361-.136.783.528.759 1.194 8.895-.83 10.191-2.535.781-1.028 4.417-.801 5.246.327.455.619.74.524.75-.25.023-1.888 3.706-1.499 4.462.472.538 1.402.819 1.465 1.514.341.47-.76.595-2.057.278-2.883-.457-1.189-.073-1.347 1.842-.759 4.243 1.303 6.362 1.278 7.73-.089.732-.733 2.812-1.332 4.622-1.332 2.97 0 3.243-.243 2.812-2.5-.279-1.459-.013-2.5.638-2.5.615 0 1.117-.45 1.117-1s-1.35-1-3-1-3-.45-3-1-.9-1-2-1c-1.333 0-2-.667-2-2s-.667-2-2-2c-1.111 0-2 .667-2 1.5 0 .825-.675 1.5-1.5 1.5s-1.5-.668-1.5-1.485C189 .212 177.405.027 94.5.01L0-.009v50.504M325 .514c0 1.598 2.68 3.079 4.828 2.668 1.769-.338 2.3-.086 1.945.926-.269.766-1.227 1.33-2.131 1.253-1.763-.149-2.266 2.135-.686 3.112.526.325.703 1.252.393 2.059-.406 1.059.163 1.468 2.044 1.468 1.651 0 2.607.55 2.607 1.5 0 .833.889 1.5 2 1.5 1.1 0 2-.55 2-1.223 0-.672.701-.222 1.557 1C340.413 16 341.737 17 342.5 17c.763 0 2.026.913 2.808 2.03.829 1.183 2.728 2.121 4.555 2.25 1.723.121 3.134.734 3.135 1.362.002 1.107 3.476 2.436 7.451 2.85 1.072.112 2.106.674 2.298 1.249.192.576 1.222.818 2.29.539 1.067-.279 1.694-.906 1.393-1.394-.302-.487.379-.886 1.511-.886s2.059.45 2.059 1 .788.993 1.75.985c1.496-.013 1.532-.157.25-.985-1.162-.751-.825-.999 1.5-1.1 1.65-.072 3.45-.235 4-.363.55-.128 2.125-.336 3.5-.464 1.375-.127 1.938-.458 1.25-.735-2.242-.905-1.342-2.502.992-1.761 2.006.636 2.096.535.858-.957-1.727-2.08-.999-2.848 3.13-3.3 4.472-.49 6.328.303 4.857 2.075-1.525 1.837.869 2.764 5.005 1.937 2.172-.435 2.68-.861 1.739-1.458-.919-.582-.516-.848 1.302-.859 1.771-.01 2.799.619 3.14 1.92.407 1.558 1.304 1.898 4.613 1.75 5.296-.238 5.402-2.21.114-2.107-2.2.043-4-.238-4-.625 0-.932 5.293-1.953 10.125-1.953 2.329 0 3.775-.444 3.625-1.113-.138-.612.762-1.285 2-1.494 1.499-.253 2.25.118 2.25 1.113 0 .822.788 1.501 1.75 1.509 1.285.012 1.409.232.468.829-.752.477.9.817 4 .823 2.905.005 4.27-.174 3.032-.398-2.266-.411-3.203-2.269-1.143-2.269.609 0 .851-.668.537-1.485-.708-1.844 2.82-3.888 5.502-3.187 1.067.279 3.247.133 4.843-.325 1.967-.564 3.055-.457 3.377.333.262.64.512.429.555-.469.089-1.845-2.557-2.778-8.421-2.972-3.927-.129-3.945-.147-1-.964 2.876-.798 2.845-.822-.75-.583-2.062.138-3.75-.009-3.75-.325 0-.317-1.8-.552-4-.523-2.462.033-4-.406-4-1.14 0-.656-.562-1.42-1.25-1.698-.78-.314-.623-.534.417-.583.916-.043 1.87.483 2.119 1.171.36.995.896.988 2.624-.034 1.194-.706 2.572-1.036 3.062-.734.489.303 1.15.13 1.467-.384.334-.539-1.837-.912-5.136-.883-3.412.031-5.866-.405-6.092-1.082-.208-.623-1.353-1.101-2.544-1.063-2.098.068-2.104.098-.167.93 1.786.767 1.712.867-.691.93-1.48.038-2.965-.373-3.299-.914-.93-1.505-69.002-.719-73.786.852-2.076.682-3.512 1.666-3.191 2.186.322.52.305 1.399-.038 1.954-.791 1.28-3.145-.967-3.637-3.473C332.527.849 325-1.086 325 .514m-63.823 20.327c-.728.478-2.416.748-3.75.601-1.335-.146-2.427.144-2.427.646s-.675.912-1.5.912-1.5.477-1.5 1.059.45.781 1 .441 1-.089 1 .558c0 .714.98.988 2.5.697 1.375-.263 2.5-.173 2.5.198 0 2.105 6.725 3.567 12.25 2.663 6.828-1.116 7.549-3.054 1.72-4.624-2.217-.597-3.765-1.514-3.441-2.039.324-.524-.225-.959-1.22-.967-.995-.007-2.709-.238-3.809-.513-1.1-.274-2.596-.109-3.323.368M241.643 35.5c-1.661 1.66-7.136 2.106-6.143.5.34-.55-.294-1-1.41-1-1.398 0-1.847.469-1.447 1.511.432 1.126.124 1.337-1.205.827-1.328-.51-1.637-.299-1.207.821.479 1.249-.411 1.47-5.207 1.291-3.182-.118-6.402.175-7.155.652-.972.616-.593.872 1.308.883 1.699.009 2.843.654 3.134 1.765.435 1.667.463 1.667.573 0 .064-.962.679-1.797 1.366-1.855 5.702-.481 9.751-.23 9.765.605.01.667.261.667.75 0 1.042-1.418 3.966-1.744 4.719-.527.967 1.566 3.516 1.223 3.516-.473 0-.825.563-1.529 1.25-1.564 6.166-.315 12.376-1.936 7.417-1.936-.917 0-1.667-.501-1.667-1.113 0-.664-1.19-.939-2.947-.681-1.621.237-2.72.064-2.441-.387.873-1.412-1.397-.892-2.969.681M1.25 150.662c-.896.362-1.25 3.7-1.25 11.805 0 10.873.085 11.323 2.25 11.903 4.012 1.075 29.927.725 29.235-.395-.349-.563-.263-.96.191-.881 2.504.435 6.672-.221 5.627-.886-.79-.502-.88-1.263-.266-2.234.783-1.238.935-1.194.948.276.009 1.095.786 1.75 2.074 1.75 1.302 0 1.797-.425 1.346-1.155-.443-.715-.275-.883.44-.44.635.392 1.155.215 1.155-.394s-1.414-1.702-3.142-2.429c-2.035-.855-2.651-1.507-1.75-1.849.87-.331.641-.539-.608-.556-3.68-.049-16.5-4.262-16.5-5.422 0-.415-.625-.755-1.389-.755s-1.326-.735-1.25-1.633c.136-1.593-.648-1.918-6.847-2.838-1.642-.244-3.159-.963-3.371-1.599-.268-.805-.647-.742-1.249.207-.688 1.086-.866 1.029-.879-.28-.012-1.272-2.375-3.234-3.347-2.778-.092.043-.73.306-1.418.583M30 231.167c0 1.008.45 1.833 1 1.833s1 .675 1 1.5c0 1.698-1.566 2.011-2.5.5-.771-1.248-5.5-1.328-5.5-.094 0 .499.849.685 1.887.413 1.038-.271 2.263.108 2.721.844 1.276 2.045 1.498 4.837.386 4.837-.547 0-.994-.6-.994-1.333 0-1.411-2.702-1.588-4.768-.311-.677.419-1.787.419-2.464 0-2.294-1.417-4.599-1.096-4.075.568.295.938.154 1.171-.349.576-1.007-1.192-5.344-1.497-5.344-.375 0 .432-1.688 1.069-3.75 1.417-7.546 1.273-7.25.91-7.25 8.902v7.308l14.75.536c21.77.79 34.38 1.504 47.25 2.678 6.325.576 13.975 1.231 17 1.455 16.628 1.23 31 3.886 31 5.729 0 .364.863.437 1.918.161 1.056-.276 2.743-.022 3.75.563 1.694.985 1.7 1.067.082 1.096-.963.016-1.75.705-1.75 1.53 0 .825.787 1.507 1.75 1.515 1.424.013 1.486.183.329.915-.933.591 1.25 1.015 6.351 1.235 6.487.28 7.922.056 8.671-1.349 1.297-2.43 1.171-2.591-1.601-2.061-1.459.279-2.5.013-2.5-.638 0-.615 1.383-1.117 3.073-1.117 3.22 0 4.117-3.461.914-3.527-5.598-.114-11.731-3.59-8.513-4.825.84-.322 2.201-.326 3.026-.01.95.365 1.5-.013 1.5-1.031 0-.884.45-1.607 1-1.607s1-.477 1-1.059-.47-.769-1.044-.414c-.574.355-1.699.101-2.5-.563-1.025-.851-1.456-.877-1.456-.086 0 .617-.9 1.122-2 1.122-1.467 0-2-.667-2-2.5 0-2.855-1.458-3.291-2.827-.846-1.322 2.363-4.564.949-3.874-1.69.316-1.207.061-1.939-.636-1.83-.64.1-1.838-.082-2.663-.404-.825-.322-4.094-.876-7.264-1.231-3.169-.356-5.535-1.016-5.255-1.468.973-1.575-2.435-1.935-3.952-.417-.841.841-1.529 1.047-1.529.457 0-.589-1.211-1.071-2.691-1.071-2.581 0-2.612.06-.75 1.468 2.3 1.74 2.707 1.681-11.059 1.599-14.44-.086-18.843-.583-19.339-2.18-.901-2.909-2.354-3.972-3.794-2.777-.868.721-1.367.76-1.367.106 0-.566-.871-.801-1.935-.523-1.139.298-2.843-.34-4.144-1.552-1.705-1.589-2.638-1.828-4.094-1.048-2.021 1.081-4.154-2.479-5.492-9.167-.747-3.737-2.299-4.779-3.019-2.027-.302 1.156-.977 2.101-1.5 2.101s-.689-.825-.369-1.833c.39-1.227.081-1.834-.933-1.834-.832 0-1.514.825-1.514 1.834m156.361 22.583c.077.963.926 2.622 1.889 3.689 2.288 2.534 2.209 3.18-.5 4.053-2.741.883-5.136.636-5.58-.575-.495-1.346-3.17 1.687-3.17 3.595 0 .91-.562 1.448-1.25 1.196-.687-.252-1.137-.964-1-1.583.138-.619-.425-1.125-1.25-1.125s-1.5-.338-1.5-.751c0-.412-1.687-.79-3.75-.839-2.062-.049-3.185.102-2.494.336.691.234 1.002.836.691 1.339-.311.503-.062.915.553.915s.84.45.5 1c-.34.55.196 1.007 1.191 1.015 1.534.013 1.581.163.309.985-.825.533-3.161.976-5.191.985-2.03.008-3.974.472-4.319 1.031-.346.559-1.016.777-1.49.484-.966-.597-2.489 1.344-1.686 2.148.283.283 1.498-.012 2.699-.655 1.201-.643 4.502-1.278 7.336-1.412 2.833-.134 6.177-.882 7.432-1.662 1.911-1.19 2.417-1.2 3.125-.062.627 1.007 1.031 1.054 1.57.182.4-.647 1.396-.918 2.215-.604 2.096.804 3.873-.463 2.166-1.545-.991-.628-.75-.864.893-.875 1.238-.008 2.291-.577 2.34-1.265.05-.687.486.11.97 1.773.785 2.698 1.299 3.022 4.788 3.022 3.789 0 4.42-.726 2.835-3.262-.459-.734.029-1.711 1.227-2.459 1.601-1 1.755-1.53.789-2.72-.995-1.226-.887-1.361.633-.791 1.007.378 2.075.687 2.372.687.298 0 .057.583-.534 1.296-.858 1.034-.071 1.263 3.903 1.137 2.739-.087 5.207.211 5.485.661 1.391 2.25 3.186-.312 2.147-3.064-.9-2.386-1.423-2.707-3.265-2.007-2.997 1.139-10.384.176-12.143-1.584-.792-.791-2.501-1.439-3.797-1.439-1.296 0-3.032-.675-3.857-1.5-2.007-2.007-3.452-1.896-3.282.25m-94.635 17.858c-.265.264-1.759.712-3.322.995-1.563.284-3.306.878-3.873 1.321C82.912 275.189 67 276.213 67 275.052c0-.589-3.362-.942-8.25-.866-4.538.071-10.935-.367-14.216-.972-3.873-.714-6.377-.76-7.136-.129-1.433 1.189-29.218 1.082-31.467-.122-3.516-1.882-5.942-.034-5.781 4.404.109 3.024.262 3.39.568 1.366.23-1.522.837-2.508 1.35-2.191 1.364.843 1.138 4.218-.318 4.738-.687.245-.985.736-.66 1.089.92 1.005 4.91-2.904 4.91-4.81 0-1.096.626-1.576 1.75-1.344.962.199 1.688 1.132 1.611 2.073-.076.942.513 1.712 1.309 1.712.796 0 1.216-.375.933-.833-.283-.459.028-.865.691-.903.663-.038 2.556-.28 4.206-.538 1.65-.257 2.438-.268 1.75-.024-2.687.955-1.047 1.832 2.75 1.469 2.42-.23 4 .043 4 .693 0 1.249 3.141.295 4.25-1.291.505-.722 1.072-.582 1.735.427.541.825.991 1.072 1 .55.008-.523.555-.41 1.215.25 1.453 1.453 4.8 1.593 4.8.2 0-.55.338-.911.75-.802.413.109 1.841-.171 3.174-.622 1.834-.622 2.746-.38 3.75.993.729.997 1.326 1.277 1.326.622 0-.779 1.925-1.191 5.559-1.191 3.057 0 5.316.393 5.019.874-.299.483 4.717.825 11.191.764 15.98-.15 24.868.408 30.331 1.905 2.787.763 5.152.911 6 .374 1.049-.664 1.078-.89.115-.902-.992-.012-1.031-.49-.171-2.097.905-1.691.771-2.342-.715-3.468-1.652-1.252-1.417-1.389 2.421-1.418 2.338-.018 4.25-.417 4.25-.888 0-.472-1.237-.857-2.75-.858-5.666-.002-11.82-.609-13.897-1.371-1.181-.433-2.363-.571-2.627-.307M46.512 311.98c-.354.573-6.717.956-15.309.921-8.087-.033-18.416-.033-22.953-.001l-8.25.058V496h250.059c188.762 0 249.884-.283 249.346-1.155-.443-.715-.275-.883.44-.44.871.537 1.101-21.905.936-91.096-.121-50.495-.359-85.621-.529-78.059l-.308 13.75h-2.531c-1.488 0-2.268.426-1.892 1.034.406.657-.37.851-2.127.532-1.522-.275-3.392.018-4.157.652-1.066.885-1.622.82-2.389-.282-.593-.852-1.177-1.016-1.435-.404-.289.686-9.815.91-28.472.667-17.204-.223-28.502.011-29.239.607-.661.533-2.772.839-4.69.68-1.919-.16-4.619.277-6 .97-1.382.694-4.199 1.051-6.262.793-2.062-.257-3.75-.075-3.75.406 0 .481-3.937.941-8.75 1.022-5.238.089-7.546-.135-5.75-.557l3-.705-3.375-.707c-4.879-1.023-5.325-.913-4.67 1.151.637 2.007-4.07 2.35-9.331.68-1.539-.488-2.151-.392-1.74.273.798 1.292 9.472 3.188 14.583 3.188 4.793 0 7.699.97 6.017 2.01-.65.402 1.899.745 5.667.762 3.767.018 9.099.261 11.849.541 2.75.281 6.169.55 7.597.599 1.428.048 3.654 1.004 4.945 2.125 2.386 2.069 7.672 1.944 9.049-.215.595-.932 20.97-.516 22.564.461 1.233.755 11.406 1.922 17.276 1.982 3.5.035 5.069.459 5.069 1.368 0 .934-.945 1.154-3.25.758-2.402-.414-2.866-.291-1.779.47.809.567 1.085 1.392.613 1.835-.472.442-1.06.239-1.306-.452-.247-.691-.93-.959-1.518-.596-.632.391-.777.189-.355-.493.431-.698.048-1.155-.968-1.155-1.382 0-1.46.268-.437 1.5 1.333 1.606 1.473 1.567-7 1.959-7.05.326-7.644.479-6 1.541.825.533 1.162.976.75.985-.413.008.037.844 1 1.857 1.298 1.366 2.233 1.599 3.621.9 1.259-.634 1.661-.602 1.228.097-.605.98 6.428 1.084 8.901.131 2.454-.944 9.428 1.054 8.858 2.539-.315.822-.283 2.653.072 4.067.581 2.317 1.062 2.543 4.858 2.286 2.316-.158 5.337-.863 6.712-1.568 3.923-2.011 5.172-1.633 4.816 1.456-.34 2.954-1.103 3.123-9.066 1.999-2.062-.291-3.75-.161-3.75.289 0 .774-10.568 2.603-12.324 2.133-.454-.121-.564.201-.246.716.319.516-.21.82-1.175.677-.965-.143-2.43.082-3.255.502-7.62 3.872-19.737 5.79-41 6.492-13.729.453-18 .78-18 1.379.001.31-1.912.434-4.25.276-5.925-.399-4.949-.414-18.75.281-14.573.735-13.702.738-21.75-.091-4.935-.508-6.253-.355-6.265.727-.013 1.151-.153 1.153-.877.011-.646-1.019-1.953-1.16-5.234-.562-2.406.438-4.712.712-5.124.609-.413-.104-.75.216-.75.709 0 .494 2.398.811 5.329.705 3.021-.109 5.802.313 6.42.974 1.366 1.463-5.805 2.302-16.999 1.99-4.262-.119-7.75.104-7.75.495 0 .624 1.375 1.015 8 2.276 1.897.361 6.34 2.721 7.001 3.718.275.416 4.667.911 9.758 1.101 6.427.239 9.125.694 8.821 1.489-.302.792.775.983 3.492.619 2.16-.29 3.928-.11 3.928.4s3.825.872 8.5.805c6.455-.092 8.5.198 8.5 1.205 0 1.664.452 1.658 3.8-.056 1.574-.806 5.117-1.293 8.495-1.169 3.187.118 6.026-.16 6.309-.617.283-.458 1.414-.832 2.514-.832 1.213 0 1.73.438 1.313 1.112-.378.611-.122 1.461.569 1.888 1.746 1.079.321 3-2.226 3-1.159 0-1.859.248-1.556.551.643.643 4.452 1.142 10.782 1.414 2.475.106 3.942.419 3.259.694-2.166.875 1.28 3.341 4.67 3.341 1.689 0 3.071.45 3.071 1s.675 1 1.5 1 1.5-.675 1.5-1.5c0-2.025 2.017-1.837 4.75.444 2.749 2.293 2.845 3.667.348 5.003-1.618.866-1.824.722-1.383-.964.384-1.469.035-1.963-1.348-1.904-1.054.044-1.322.299-.617.583 2.288.924 1.292 2.232-2.5 3.285-5.477 1.521-6.791 1.409-5.25-.447 1.006-1.212.976-1.5-.155-1.5-.77 0-2.163.891-3.095 1.979-.962 1.123-2.356 1.726-3.222 1.393-.841-.322-1.528-.088-1.528.521s-.45 1.107-1 1.107-.887-.405-.75-.9c.346-1.247-.152-1.299-5-.524-2.337.374-4.25 1.072-4.25 1.552s-.788.901-1.75.935c-1.295.047-1.141.308.592 1.002 1.289.517 2.751.686 3.25.378.5-.309.908.316.908 1.389 0 2.354-5.848 3.421-10.332 1.885l-2.832-.97 2.687-1.762 2.687-1.763-5.355-1.983c-8.623-3.195-10.186-3.584-9.421-2.346.376.609 1.445 1.125 2.375 1.147 1.144.027.801.523-1.062 1.534-2.796 1.517-6.747.593-6.747-1.577 0-.537-.921-.592-2.169-.13-1.194.441-4.006.446-6.25.011-6.015-1.166-7.581-1.044-7.581.591 0 .847.592 1.241 1.399.931.769-.295 1.696-.056 2.059.532.363.587.157 1.068-.458 1.068s-.796.521-.403 1.157c.524.848-.569.982-4.08.5-2.638-.361-5.394-.657-6.125-.657-.771 0-1.087-.63-.754-1.5.317-.825 1.428-1.5 2.469-1.5s1.893-.45 1.893-1-.45-1-1-1-1-.45-1-1 .675-1 1.5-1 1.5-.598 1.5-1.329c0-.923-1.746-1.399-5.72-1.56-3.146-.127-6.304-.716-7.016-1.307-.8-.663-3.375-.831-6.72-.438-3.394.399-5.667.244-6.073-.413-.432-.698-1.049-.718-1.844-.059-.745.619-1.745.643-2.661.064-1.396-.883-1.271-1.045 1.034-1.333 2.489-.311 1.169-2.157-1.743-2.438-2.703-.261-3.134-.03-2.59 1.387.724 1.888.472 1.868-11.643-.927-4.027-.928-7.052-1.156-8-.601-.838.491-1.074.914-.524.939 1.165.053-1.583 1.977-2.857 2-.471.008-.632-.571-.357-1.288.295-.768-.775-1.868-2.607-2.679-1.709-.756-2.561-1.557-1.893-1.78 1.721-.574 1.509-2.238-.286-2.238-.825 0-1.5-.702-1.5-1.559 0-.889-.478-1.264-1.112-.872-.611.378-1.504.067-1.984-.691-.633-.998-.878-1.033-.889-.128-.018 1.514-2.705 1.679-3.199.197-.462-1.384-7.795-3.045-10.191-2.309-1.221.375-1.637.19-1.191-.531.388-.629.01-1.107-.875-1.107-.857 0-1.559.422-1.559.938s-.788.955-1.75.976c-10.562.231-21.195.934-22.042 1.457-.579.358-8.175.604-16.88.548-8.705-.057-17.403-.084-19.328-.06-9.142.113-11.434-.014-12.909-.717-.875-.417-3.166-.5-5.091-.184-3.642.598-16.501-1.358-18.407-2.8-.601-.455-4.904-.936-9.561-1.068-4.657-.133-8.87-.49-9.362-.794-.491-.304-1.218-.027-1.615.615-.515.834-1.472.881-3.353.166-1.447-.55-2.856-.636-3.131-.191-.275.445-3.779.894-7.786.999-4.007.104-8.072.428-9.035.72-1.148.347-1.75-.01-1.75-1.038 0-.862-.477-1.567-1.059-1.567s-.8.419-.484.931c1.023 1.655-1.03 2.003-3.686.625-1.733-.899-2.917-1.01-3.591-.336-.553.553-1.513.693-2.132.31-.619-.383-4.704-.805-9.078-.937-4.373-.133-8.256-.545-8.627-.917-.372-.372-1.951-.676-3.51-.676-2.805 0-3.763-1.307-1.833-2.5.55-.34 1-.254 1 .191.001 1.043 6.121 1.055 7.726.015.674-.437 3.964-.229 7.31.462 4.237.875 6.293.936 6.774.2 1.262-1.934 9.978-1.62 10.5.377.435 1.666.464 1.666.574.005.113-1.701 2.858-2.281 8.616-1.82 1.663.133 1.747-.014.5-.87-1.2-.823-.961-1.032 1.191-1.045 1.48-.008 2.908.336 3.173.764.264.429 2.854.883 5.755 1.009 2.9.126 5.593.746 5.983 1.377.529.856 1.901.814 5.398-.165 2.791-.781 4.954-.94 5.344-.391.565.792 9.434.989 23.489.519 4.759-.159 4.499-2.254-.345-2.784-3.269-.358-6.817-2.344-4.188-2.344.66 0 1.2-.9 1.2-2 0-1.846 1.1-2.506 3.432-2.058 8.325 1.6 18.104 2.534 45.318 4.329 2.888.191 5.25-.003 5.25-.431 0-.427.68-.516 1.511-.197 1.082.415 1.336.121.893-1.032-.34-.886-1.132-1.643-1.761-1.681-9.04-.558-14.377-1.253-15.907-2.071-1.03-.551-3.529-.926-5.554-.834-2.025.093-4.132.088-4.682-.011-.55-.099-6.175-.169-12.5-.156-6.325.013-15.55-.389-20.5-.893-7.937-.807-21.325-1.025-37-.6-2.75.074-5.67.565-6.489 1.092-.819.526-3.069 1.034-5 1.128-6.185.303-6.695.47-4.511 1.482 1.415.655.683.764-2.5.371-2.952-.365-4.031-.233-3.137.382 1.151.792 1.151 1.011 0 1.409-1.659.573-13.776-.161-15.863-.961-.825-.316-1.95-.644-2.5-.728-.55-.085-1.675-.398-2.5-.696-6.537-2.358-8.409-2.695-10.061-1.811-2.23 1.193-4.983.245-4.318-1.487.271-.708-.257-1.576-1.175-1.928-1.193-.458-1.509-.224-1.108.819.942 2.457-2.163 2.859-17.594 2.274-5.69-.216-8.211-.749-9.464-2.003-1.611-1.611-1.583-1.708.506-1.708 1.218 0 2.214.55 2.214 1.223 0 .672.716.2 1.59-1.048 1.275-1.821 1.874-2.035 3.024-1.08 1.71 1.418 2.437.875 2.652-1.982.169-2.232 1.723-3 1.749-.863.011.861.244.909.75.154.404-.603 2.886-1.384 5.515-1.735 4.441-.594 4.848-.463 5.726 1.846.814 2.142 1.535 2.469 5.219 2.369 2.351-.064 3.488-.322 2.527-.573-1.633-.427-1.638-.568-.081-2.125 1.088-1.088 1.8-1.273 2.047-.533.208.624 1.256.905 2.33.624 1.286-.336 1.952-.006 1.952.968 0 1.051.748 1.335 2.592.982 1.426-.272 2.139-.775 1.585-1.117-.642-.397-.511-1.3.36-2.492 1.259-1.722 2.531-1.829 16.126-1.362 9.621.331 14.889.899 15.133 1.632.206.619.749.893 1.205.611.457-.282 1.978-.077 3.38.456 1.683.64 2.761.624 3.175-.046.345-.557 2.948-.924 5.785-.814 2.838.11 7.409-.359 10.159-1.042 4.559-1.132 12.695-1.868 27.5-2.487 3.025-.126 6.472.198 7.66.722 1.603.706 2.764.508 4.5-.765l2.34-1.717-3.226.42c-1.774.231-3.349.097-3.5-.298-.45-1.181-16.624-2.082-45.274-2.523-28.456-.438-51.773-2.005-52.335-3.516-.185-.496-.747-.647-1.25-.336s-.915.133-.915-.394-1.661-.959-3.69-.959c-4.708 0-7.389-2.923-4.594-5.009.981-.733 1.671-1.75 1.534-2.262-.375-1.395 1.495-1.118 2.167.321.466 1 .7 1 1.166 0 .721-1.545 8.044-1.662 8.983-.143.48.777.926.716 1.494-.205.459-.741 2.578-1.301 4.875-1.287 2.236.013 4.065-.233 4.066-.546.001-1.09 14.624-1.067 33.499.053 22.283 1.321 25.802 1.438 72.591 2.411 33.353.694 35.632.631 36.261-1.008.491-1.279.274-1.596-.808-1.18-.813.312-3.855-.14-6.761-1.003-2.906-.864-7.533-1.452-10.283-1.307-11.962.629-31.626.121-39-1.008-4.4-.674-14.75-1.401-23-1.616-16.127-.42-27.122-1.815-31.267-3.965-1.424-.739-2.959-1.115-3.411-.836-.452.28-.822.063-.822-.481 0-.545 1.012-1.185 2.25-1.423 1.313-.253.605-.49-1.7-.57-2.366-.081-3.569-.494-3-1.03 1.362-1.28 10.45-2.196 10.45-1.053 0 .521.338.894.75.829 2.602-.411 3.732.161 2.25 1.138-1.15.759-.8.961 1.5.866 3.741-.154 11.349.903 12.756 1.772.579.358.767.188.417-.379-.584-.943 3.738-.896 11.042.122 1.218.169 2.422-.189 2.674-.796.331-.798.688-.79 1.285.028.54.741 5.442 1.153 14.154 1.192 8.184.036 13.842.486 14.661 1.165.733.609 1.577.712 1.876.228.299-.484 3.602-.73 7.339-.547 22.254 1.089 42.487 1.321 43.948.504 4.509-2.524-7.051-4.472-31.152-5.251l-4-.129 3.5-.885c5.532-1.4 16.601-1.194 28 .52 5.775.869 14.55 2.18 19.5 2.915 5.653.838 13.463 1.145 21 .823 6.6-.282 22.238-.547 34.75-.59 12.513-.043 22.75-.324 22.75-.625 0-.302-1.913-.613-4.25-.692-47.781-1.622-55.529-2.09-59.75-3.611-2.475-.891-5.873-1.627-7.55-1.635-1.678-.008-3.478-.397-4-.863-1.725-1.539-15.95-3.411-35.376-4.654-4.085-.261-8.306-.754-9.381-1.095-3.381-1.074-8.702-1.459-25.693-1.863-19.26-.457-31.89-1.312-37.5-2.54-2.2-.481-6.25-1.126-9-1.432-2.75-.307-7.475-.843-10.5-1.193-3.025-.349-10.787-.657-17.25-.684-6.463-.027-11.75-.346-11.75-.71 0-.363-1.125-1.173-2.5-1.799-1.393-.635-2.5-.727-2.5-.208 0 .512-2.138.283-4.75-.509-4.431-1.343-14.91-2.077-41.75-2.927a2594.44 2594.44 0 0 1-13.25-.443c-1.508-.064-2.25-.72-2.25-1.988 0-2.553-1.309-2.894-9.5-2.473-4.82.247-6.533.054-5.5-.622 1.294-.847 1.268-.983-.191-.997-.93-.008-1.964.426-2.297.965M.479 404.5c0 50.6.122 71.447.271 46.326.148-25.121.148-66.521 0-92C.601 333.347.479 353.9.479 404.5M161 407.059c0 .582-.526.734-1.17.336-.768-.475-.967-.193-.578.819.505 1.316-.484 1.509-6.71 1.315-4.308-.135-8.244.276-9.601 1.002-3.721 1.992 6.122 2.642 34.545 2.284 23.146-.292 25.011-.186 25.323 1.435.634 3.29 29.809 1.395 30.944-2.01.207-.619-.441-1.134-1.439-1.145-11.999-.131-32.087-1.54-33.051-2.319-.68-.55-2.255-.751-3.5-.446-1.245.304-3.136-.096-4.204-.889-2.223-1.65-13.051-2.046-12.059-.441.34.55.168 1-.382 1s-1.258-.417-1.572-.926c-.33-.534-1.782-.58-3.426-.109-1.568.45-3.475.424-4.236-.058-1.957-1.239-8.884-1.121-8.884.152" fill="#d3d3d3" fill-rule="evenodd"/></svg>