<svg xmlns="http://www.w3.org/2000/svg" width="500" height="671"><path d="M401.126 18.376c1.321 2.9-.916 6.906-4.992 8.942-1.448.723-2.536 1.805-2.416 2.403.12.598-.507 1.689-1.394 2.425-1.421 1.179-1.528 1.073-.903-.898.585-1.843.406-2.119-1.02-1.572-1.097.421-1.489.275-1.071-.401.362-.586-.118-1.363-1.067-1.727-.949-.365-1.883-.187-2.077.395-.194.581-1.44 1.057-2.769 1.057-1.33 0-2.417.45-2.417 1s-1.125 1-2.5 1c-1.917 0-2.507-.525-2.532-2.25-.028-1.992-.173-2.064-1.263-.633-2.208 2.9-4.324-.523-2.266-3.665.884-1.348 1.303-2.452.931-2.452-.372 0 .293-.84 1.477-1.867C378.175 17.247 377.635 17 368 17c-7.583 0-9.354.315-11.25 2a540.658 540.658 0 0 1-4.118 3.618c-1.413 1.224-1.563 1.807-.615 2.393 1.684 1.04.379 6.355-1.393 5.675-.711-.273-2.105.586-3.098 1.909-1.474 1.962-2.701 2.405-6.666 2.405-5.473 0-5.662.198-2.86 3 1.1 1.1 2 1.662 2 1.25 0-.413 2.25-.885 5-1.05 3.585-.216 5.004.067 5.015 1 .011.934.289.877.985-.2.57-.883.976-1.014.985-.32.008.65 1.016 1.325 2.24 1.5 1.224.176 2.726 1.329 3.339 2.563.612 1.233 2.014 3.033 3.115 4 1.101.966 2.37 3.107 2.821 4.757.586 2.143.938 2.5 1.233 1.25.68-2.877 2.373-1.978 1.883 1a193.283 193.283 0 0 0-.534 3.383c-.092.708-3.29 1.847-7.082 2.524-1.375.245-4.33 1.323-6.566 2.394-2.236 1.072-4.723 1.949-5.527 1.949-.804 0-2.416.669-3.583 1.486-1.883 1.318-2.187 1.313-2.708-.043-.441-1.15-1.046-1.283-2.439-.537-2.1 1.123-6.443.333-5.607-1.02.302-.487-.33-.886-1.403-.886-1.246 0-2.177-.902-2.578-2.5-.444-1.77-1.279-2.477-2.858-2.421-1.227.043-1.668.306-.981.583.688.278 1.25.944 1.25 1.48 0 .537-.427.712-.95.389-.522-.323-1.438.326-2.035 1.441-1.256 2.348-3.015 2.69-3.015.587 0-.793-.43-1.707-.957-2.032-.554-.343-.798.658-.579 2.385.22 1.746-.204 3.457-1.027 4.14-1.167.969-1.363.517-1.17-2.694.214-3.54.027-3.847-2.267-3.727-4.71.247-5.117.371-4.5 1.369.34.55.141 1-.441 1-2.45 0-.781-3.927 2.691-6.331 7.859-5.442 14.25-13.618 14.25-18.23 0-.706 1.873-1.581 4.25-1.984 3.991-.676 4.098-.777 1.75-1.649-4.016-1.491-8.965-1.553-10.149-.126-.603.726-1.828 1.327-2.723 1.335-3.326.032-4.533 1.741-4.279 6.055.543 9.194-5.755 15.359-17.369 17.004-4.833.685-7.128.633-8.11-.182-1.087-.902-1.37-.698-1.37.986 0 2.54-1.949 2.882-2.118.372-.065-.962-.403-.468-.75 1.098-.827 3.727-8.892 13.233-12.302 14.5-1.469.546-3.651 1.973-4.849 3.171-1.198 1.198-3.147 2.313-4.33 2.478-4.703.654-14.346 4.727-17.839 7.534-2.032 1.633-4.059 2.996-4.503 3.029-.445.033-2.834 2.462-5.309 5.398-4.316 5.12-4.522 5.659-5.036 13.19-.295 4.319-.134 9.413.357 11.321.492 1.909.598 6.476.236 10.15-.497 5.04-.339 6.809.642 7.202.986.395.999.54.051.6-.687.043-1.25.754-1.25 1.579s.563 1.514 1.25 1.53c.713.018.515.459-.458 1.027-.94.548-1.455 1.656-1.146 2.464.31.807.966 1.219 1.459.914.492-.304.895.792.895 2.436 0 2.339-.49 3.059-2.25 3.309-1.823.259-2.267.984-2.338 3.82-.131 5.183-.292 5.543-1.662 3.703-.953-1.28-2.142-1.532-5-1.061-3.238.535-5.432 2.358-2.838 2.358 1.118 0 .836 1.638-.907 5.25-.729 1.512-1.816 2.746-2.416 2.742-1.188-.008-3.54-4.457-3.67-6.941-.045-.853-.696-.201-1.447 1.449-.75 1.65-1.124 3.819-.829 4.82.377 1.28-.108 1.989-1.634 2.388-1.515.396-2.023 1.129-1.683 2.43.268 1.024.106 1.862-.358 1.862-.465 0-1.859 3.375-3.098 7.5-1.239 4.125-2.617 7.5-3.061 7.5-.445 0-.823.563-.84 1.25-.045 1.79-4.704 4.987-5.468 3.751-1.05-1.698-2.476-1.105-1.8.749.573 1.571.416 1.555-1.531-.155-1.194-1.048-2.18-3.073-2.192-4.5l-.022-2.595-1.9 2.472c-1.045 1.36-1.739 2.731-1.544 3.048.196.316-.057 1.229-.563 2.028-.654 1.034-.923.372-.934-2.298-.016-4.059-1.476-5.023-2.538-1.678-.362 1.141-1.238 1.85-1.949 1.577-.975-.374-1.222.795-1.007 4.77.274 5.08.198 5.25-2.119 4.807-2.271-.434-2.811-1.261-2.508-3.838.072-.612-.556-2.412-1.395-4l-1.526-2.888.185 3c.101 1.65-.136 3.975-.527 5.166-.404 1.229-.255 2.448.345 2.819 1.197.74.425 2.515-1.094 2.515-.55 0-.722-.45-.382-1 .34-.55.127-1-.472-1-1.566 0-2.622 3.302-1.208 3.773 1.713.571 1.449 3.227-.32 3.227-.825 0-1.5.702-1.5 1.559s-.48 1.262-1.067.899c-.587-.362-1.313.281-1.614 1.43-.301 1.149-1.016 1.799-1.59 1.444-.658-.406-.835.153-.48 1.512.31 1.186.17 2.156-.311 2.156s-.614.68-.295 1.511c.383.999.118 1.334-.783.989-2.446-.939-3.911 5.987-1.575 7.446 2.192 1.369 1.482 2.554-1.531 2.554-1.431 0-2.402.986-3.16 3.211-.602 1.766-1.994 3.867-3.094 4.669-1.1.802-2.056 1.945-2.125 2.539a185.86 185.86 0 0 0-.251 2.331c-.145 1.432-4.511 6.75-5.541 6.75-1.698 0-3.66-7.064-2.364-8.506 2.794-3.107 3.838-4.494 3.386-4.494-.261 0 1.076-4.339 2.971-9.643 1.895-5.303 3.388-10.141 3.317-10.75-.326-2.784.197-4.669 1.135-4.09 1.401.866 4.724-3.344 5.538-7.017.366-1.65 1.002-3.45 1.413-4 1.015-1.356.896-4.541-.146-3.897-1.41.872-.922-.657.741-2.32 1.126-1.126 1.247-1.775.426-2.283-1.31-.81.977-7.212 3.618-10.131.849-.937 1.394-2.747 1.212-4.022-.252-1.773-2.011.617-7.482 10.168-10.012 17.479-19.485 36.773-18.256 37.182.692.231.646 1.327-.14 3.324-1.073 2.728-1.239 2.81-1.96.979-.637-1.618-1.78.098-5.992 9-11.733 24.799-16.58 38.901-32.997 96-1.581 5.5-3.655 12.7-4.607 16-.953 3.3-1.801 6.45-1.885 7-1.025 6.756-1.894 9.502-2.636 8.331-.579-.912-.849-.956-.86-.138-.008.656-.915 1.019-2.015.807-2.369-.456-2.523.12-.557 2.085 1.256 1.257 1.587 1.216 2.568-.321.998-1.563 1.072-1.507.651.488-.262 1.239-1.494 7.869-2.738 14.733-1.898 10.47-2.488 12.291-3.669 11.312-1.09-.905-1.612-.844-2.316.267-.673 1.065-.912.725-.924-1.314-.008-1.512-.39-2.75-.848-2.75-.459 0-.834 1.35-.834 3 0 1.76.526 3 1.272 3 .699 0 1.222.787 1.161 1.75-.06.962.224 2.762.63 4 .555 1.691.349 2.25-.829 2.25-.862 0-1.567-.627-1.567-1.393 0-1.933-2.63-2.757-3.903-1.224-.735.886-.722 1.592.042 2.356.789.789.613 2.017-.633 4.426-.949 1.834-1.92 4.91-2.158 6.835-.239 1.925-.582 4.4-.763 5.5-.181 1.1-.387 3.238-.457 4.75-.089 1.904-.667 2.75-1.878 2.75-1.5 0-1.75-1-1.75-7 0-3.85.338-7 .75-7s.75-.477.75-1.059-.45-.781-1-.441-1 .141-1-.441.505-1.059 1.122-1.059c.764 0 .804-.399.124-1.25-.569-.712-.652-2.111-.193-3.25.444-1.1.838-1.562.877-1.027.038.534.709.06 1.489-1.054 1.307-1.866 3.564-11.216 5.048-20.919C74.381 375.993 77 357.759 77 356.945c0-.52.459-.945 1.019-.945.561 0 .784 1.013.496 2.25-.288 1.238-.714 4.275-.946 6.75-.233 2.475-.738 6.413-1.124 8.75-.478 2.902-.343 4.25.427 4.25.62 0 1.128-.675 1.128-1.5s.354-1.5.786-1.5c.432 0 .843-.788.912-1.75.111-1.523 1.021-10.914 1.333-13.75.06-.55.521-.1 1.023 1l.913 2-.208-2c-.115-1.1.144-2.562.575-3.25.431-.687.345-1.25-.192-1.25-.536 0-1.202.562-1.48 1.25-.301.747-.536.545-.583-.5-.043-.962.269-1.75.694-1.75 1.107 0 3.045-8.995 2.067-9.599-.984-.608-.313-6.65 1.016-9.131.524-.98.713-3.917.419-6.526-.358-3.175-.161-4.744.595-4.744.621 0 1.13.675 1.13 1.5 0 2.352 1.378 1.747 2.75-1.207 1.473-3.171 1.61-5.293.344-5.293-.499 0-.671-.9-.384-2 .288-1.1.035-2-.562-2-.601 0-.801-.742-.447-1.664.401-1.044.242-1.419-.426-1.006-.586.362-1.338-.051-1.67-.918-.994-2.59-.706-2.813 1.296-1.002 1.143 1.035 2.146 1.323 2.516.724.339-.548.151-1.283-.417-1.634s-.774-1.057-.457-1.569c.316-.512.098-.931-.484-.931S88 307.55 88 307s.675-1 1.5-1 1.5-.702 1.5-1.559.395-1.315.878-1.016c.483.298 1.172-.913 1.53-2.691.472-2.343.889-2.853 1.513-1.852.681 1.094.992.968 1.492-.609.796-2.507-.28-5.474-1.672-4.613-.578.357-.803.242-.5-.255.302-.498-.009-1.421-.692-2.051-1.513-1.396-5.058 3.876-4.168 6.198.306.796.158 1.448-.329 1.448s-1.112-.563-1.39-1.25c-.403-1-.52-1-.583 0-.043.688-.604 1.25-1.246 1.25-.641 0-.87-.296-.508-.658.362-.362.156-1.262-.456-2-.829-.999-.8-1.342.116-1.342.676 0 .981-.646.678-1.435-.303-.79-.013-1.654.643-1.921.657-.268.739-.522.183-.565-1.321-.103-.819-21.257.524-22.087.543-.336 1.038-3.284 1.099-6.551.132-7.041 2.506-17.277 4.54-19.573 1.5-1.695 2.587-12.868 1.252-12.868-.417 0-.963.787-1.215 1.75-.298 1.143-.497.849-.573-.845-.064-1.441.769-3.396 1.875-4.397 1.878-1.699 1.892-1.876.25-3.123-.958-.727-1.233-1.336-.612-1.353 1.613-.046 4.085-6.294 2.675-6.764-.601-.2-.87-1.211-.599-2.247.271-1.035 1.077-1.658 1.792-1.384.716.275 1.598.019 1.961-.569.364-.589-.065-1.068-.958-1.068-.89 0-1.335-.457-.99-1.016.346-.559.952-.817 1.347-.572.395.244.81-.761.921-2.234.159-2.11-.016-2.36-.825-1.178-1.377 2.01-.352-3.827 2.721-15.5 1.303-4.95 2.597-10.125 2.876-11.5.279-1.375.76-3.175 1.068-4 .308-.825.77-2.625 1.025-4 1.984-10.677 12.682-44.516 18.811-59.5 3.054-7.468 4.583-12.033 9.543-28.5 6.881-22.841 8.007-27.884 8.64-38.689.739-12.604-.207-16.52-4.53-18.756-1.437-.743-3.468-2.296-4.514-3.453-3.536-3.906-12.073-1.931-20.524 4.749-2.766 2.186-7.4 4.751-10.299 5.699-9.441 3.089-12.452 5.095-14.847 9.891-1.232 2.465-2.687 4.205-3.235 3.866-.549-.339-.727-.179-.397.355.33.534-.688 1.732-2.263 2.663-1.575.93-3.983 3.022-5.352 4.648-1.899 2.257-2.622 2.61-3.051 1.492-.97-2.527-3.009-1.545-6.424 3.097-3.042 4.135-3.425 4.357-4.921 2.861-1.496-1.496-1.758-1.441-3.38.71-.983 1.303-1.399 2.781-.943 3.349C60.307 66.164 61.298 74 60.161 74c-.558 0-1.22-.787-1.472-1.75-.344-1.317-.486-1.193-.573.5-.071 1.385.461 2.25 1.384 2.25.825 0 1.5.498 1.5 1.107s.675.848 1.5.531c.825-.316 1.5-.177 1.5.31s-.561 1.072-1.246 1.301c-.685.228-1.247 1.278-1.25 2.333-.002 1.096-.59 1.794-1.373 1.628-1.104-.233-1.238 1.025-.693 6.5.372 3.735.663 8.458.646 10.497-.018 2.039.406 3.978.942 4.309 2.127 1.314 1.033 3.716-1.412 3.102-3.588-.9-4.45 2.791-3.125 13.382.31 2.475.557 5.513.548 6.75-.008 1.237.446 2.25 1.009 2.25.695 0 .692.622-.011 1.934-.569 1.064-1.035 2.864-1.035 4 0 1.17-.651 2.066-1.5 2.066-2.642 0-1.611 1.577 2.23 3.408l3.73 1.779-3.058 1.286c-3.136 1.319-9.477 8.152-9.277 9.997.498 4.588-.295 10.843-1.182 9.322-.548-.94-1.642-1.461-2.432-1.158-1.24.476-1.232.862.057 2.829 1.744 2.662 2.177 7.048 1.029 10.412-.564 1.651-.473 2.167.296 1.691.699-.432 1.107.259 1.107 1.875 0 3.357-2.101 3.262-4.242-.191-1.152-1.858-1.713-2.217-1.731-1.106-.015.905 1.415 3.155 3.177 5 1.762 1.846 3.072 4.007 2.911 4.802-.227 1.123.016 1.19 1.087.301 1.074-.891 1.65-.713 2.598.804 1.376 2.204 3.781 2.575 4.538.699.338-.839.53-.87.583-.094.047.683.962.926 2.235.593 1.478-.387 1.932-.2 1.441.593-.473.766.181 1.158 1.927 1.158 1.681 0 2.484.455 2.206 1.25-.241.688-1.178 1.118-2.084.956-.905-.161-1.646.305-1.646 1.036 0 .731-.9 1.329-2 1.329s-2-.611-2-1.359c0-3.204-3.462-.481-4.453 3.503-.922 3.703-3.547 8.047-3.547 5.87 0-.448-1.104-.091-2.454.793-2.275 1.49-2.529 1.48-3.47-.135-.829-1.423-1.024-1.1-1.061 1.757-.031 2.35-.328 3.054-.905 2.143-.6-.946-1.067-1.021-1.544-.25-.376.609-.152 1.107.497 1.107.881 0 .865.382-.063 1.5-.685.825-2.09 1.5-3.122 1.5-1.128 0-1.872.699-1.863 1.75.013 1.499.157 1.535 1.003.25 1.405-2.135.772 1.797-.728 4.518-.612 1.111-1.428 3.811-1.813 6-.386 2.19-1.326 4.979-2.089 6.197-.764 1.218-1.388 3.385-1.388 4.816 0 1.43-.42 3.385-.933 4.344-.513.958-1.224 5.316-1.579 9.684-.356 4.368-.996 8.069-1.422 8.226-.426.157-.563 1.397-.303 2.756.26 1.359-.129 3.195-.864 4.081-2.223 2.678-3.816 8.224-2.518 8.762.809.335.815.693.023 1.29-1.752 1.32-2.589 6.082-3.048 17.326-.235 5.775-.603 11.4-.816 12.5-.213 1.1-.421 2.562-.463 3.25-.043.687-.607 1.137-1.255 1-1.641-.348-2.982 7.936-1.892 11.688l.89 3.062.09-3.917c.087-3.803 1.162-4.285 1.794-.804.407 2.243-1.729 18.135-2.785 20.721-.793 1.94-.837 1.933-1.482-.239-.365-1.231-1.063-1.992-1.551-1.691-.487.302-.886.071-.886-.511s.419-1.059.932-1.059c1.202 0 .706-4.762-.637-6.105-.703-.703-1.198-.375-1.567 1.039-.298 1.136-.106 2.066.425 2.066s.687.45.347 1c-1.118 1.809-2.359 1.046-2.846-1.75-.264-1.512-.278 2.425-.032 8.75.417 10.72 1.199 22.075 4.849 70.427.785 10.41 1.223 19.259.972 19.665-.25.405.11.965.801 1.244.946.381.956.526.037.585-.716.046-.955.764-.58 1.743.465 1.21.277 1.44-.689.844-1.034-.64-1.148-.289-.515 1.586.446 1.323 1.003 5.673 1.237 9.666.283 4.835.784 7.038 1.5 6.595.607-.375.787-.199.414.405-.363.588-.127 1.247.526 1.465.684.228.901 1.137.513 2.148-.37.965-1.126 1.474-1.68 1.131-.554-.342-1.007.305-1.007 1.437 0 1.132-.406 2.059-.903 2.059-.496 0-.956 3.938-1.022 8.75-.247 17.994-1.698 58.618-2.34 65.5-.09.962-.442 1.75-.783 1.75-.34 0-.687.563-.77 1.25-.29 2.392-1.207 14.292-1.598 20.75-.217 3.575-.733 7.583-1.147 8.906-.534 1.709-.417 2.2.402 1.693.853-.527.894-.028.158 1.909-.578 1.521-.636 3.331-.138 4.307.796 1.561.787 5.807-.018 9.06-.188.756.222 1.581.909 1.833.76.279 1.289-.457 1.35-1.875.207-4.851 1.696 2.385 1.8 8.75.198 12.077 3.628 22.416 6.107 18.406.686-1.11 1.213-.945 2.674.834l1.819 2.215 5.454-2.007c2.999-1.104 5.822-2.666 6.272-3.47 1.203-2.149 3.942-4.726 4.467-4.202.25.25-.921 2.353-2.601 4.673-3.043 4.201-3.296 6.367-.623 5.342.773-.297 1.183-1.116.913-1.822-.271-.705.957-2.501 2.729-3.992 2.919-2.456 3.243-3.289 3.454-8.885.127-3.396.917-8.72 1.754-11.83.837-3.111 1.763-8.061 2.057-11l.534-5.345-1.648 5c-.906 2.75-1.811 5.212-2.009 5.471-.66.86-2.222-2.435-2.238-4.721-.008-1.237-.425-2.25-.927-2.25-.915 0-.865-1.216.165-4a86.16 86.16 0 0 0 1.072-3.126c.362-1.138 1.292-1.479 3.096-1.134 2.875.55 3.168-.353 1.386-4.265-.882-1.936-.899-2.8-.063-3.317 1.885-1.165 3.27-6.021 3.924-13.755.341-4.038.999-7.109 1.463-6.822.771.476.544 3.934-.682 10.419-.832 4.402-2.45 23.137-3.022 35-.577 11.984-1.989 20.611-3.527 21.562-1.565.967-1.084 8.438.542 8.438.794 0 3.57 2.464 6.17 5.476 6.644 7.696 11.541 9.292 21.973 7.165 4.143-.845 9.532-2.653 11.974-4.018L87 622.141v2.488c0 3.994 1.694 1.826 3.028-3.876 1.845-7.885 2.447-8.427 3.956-3.563 1.234 3.978 1.388 4.117 1.996 1.81.372-1.41.193-2.82-.41-3.235-.651-.446-.678-.746-.07-.765.55-.017.325-.474-.5-1.015-1.244-.817-1.268-1.134-.143-1.86.942-.608 1.02-1.083.253-1.557-1.532-.947-.592-8.116 2.565-19.568 1.44-5.225 2.729-9.639 2.863-9.808.135-.169.218 3.656.185 8.5-.061 9.125 2.098 19.085 4.586 21.149 1.068.886 1.324.329 1.306-2.831-.013-2.165-.239-3.72-.502-3.456-.264.263-1.21-1.1-2.102-3.031-1.597-3.452-1.866-11.984-.553-17.523.326-1.375.787-4.293 1.023-6.485.237-2.192.9-4.142 1.475-4.334 1.91-.636 1.077-2.18-1.206-2.233l-2.25-.053 2.25-1.569c1.646-1.148 2.241-2.545 2.218-5.198-.028-3.231-.177-3.436-1.36-1.878-.731.962-1.841 1.75-2.468 1.75s-1.14.455-1.14 1.011c0 .556-.87 2.918-1.933 5.25-1.803 3.952-7.036 20.62-8.512 27.107-1.632 7.174-1.615.477.029-11.816C93.286 572.831 93.532 572 95.585 572c2.326 0 2.329-.007 4.396-11.5 1.298-7.217 2.926-12.5 3.852-12.5.374 0 1.227-1.237 1.897-2.75 1.146-2.587 5.08-7.142 8.672-10.039.879-.71 1.598-2.536 1.598-4.059 0-1.523.661-3.643 1.468-4.711 1.888-2.495 1.954.751.472 23.014-.878 13.196-1.464 16.788-3.422 20.983-4.599 9.853-6.253 24.157-3.582 30.979.628 1.604.787 3.179.353 3.5-1.057.781-1.121 7.097-.066 6.445.454-.281.723-.14.596.314-.127.453.57 2.327 1.548 4.164.978 1.837 1.547 3.942 1.265 4.677-.282.735.135 1.875.927 2.532.793.658 1.441.846 1.441.418 0-.427.811-.043 1.802.853 4.509 4.081 18.568 4.096 32.914.034 6.072-1.719 5.859-1.105 6.718-19.287.297-6.288.883-11.688 1.303-12 .911-.677 1.307-2.368 1.254-5.362-.07-4.009-1.769-23.141-2.372-26.705-.506-2.993-.451-3.138.381-1 .896 2.303.937 2.247.519-.711-.249-1.766-.018-3.48.514-3.809.532-.329.967-.206.967.272 0 .479.974 1.916 2.165 3.194 1.997 2.145 2.26 2.193 3.404.629.805-1.101 1.472-1.318 1.904-.619a1.273 1.273 0 0 0 1.748.407c.981-.606.685 3.287-.733 9.637-.184.825-.369 3.214-.411 5.309-.043 2.095-.496 3.55-1.008 3.234-.512-.317-1.213-.118-1.559.441-.345.559-.211 1.016.298 1.016.515 0 .962 5.6 1.008 12.615.087 13.495-.366 15.436-1.363 5.837-.34-3.274-1.031-6.38-1.535-6.902-1.625-1.682-1.01 14.605.829 21.95l1.753 7 .5-4.5.5-4.5 2.5 6.943c3.813 10.59 11.254 16.571 15 12.057 1.859-2.24 3.519-1.864 9.274 2.099 5.702 3.927 12.01 4.264 15.79.843 1.563-1.414 2.035-1.249 5.49 1.915 2.078 1.905 5.167 3.688 6.863 3.963 5.2.844 6.243 1.203 7.908 2.718 7.471 6.802 11.282 8.345 13.628 5.518.822-.99 1.882-1.187 3.373-.628 6.724 2.524 10.611 2.966 25.424 2.89 8.938-.046 16.25-.373 16.25-.727s-1.913-.505-4.25-.336l-4.25.308 3-1.741c1.65-.957 3.337-1.647 3.75-1.531 1.778.496.531-1.704-1.85-3.265-2.187-1.433-2.503-2.207-1.984-4.865.887-4.541.896-4.984.146-6.782-.4-.958.014-2.312 1.012-3.31 1.092-1.092 1.99-4.411 2.537-9.379.466-4.23 1.325-10.39 1.907-13.69 2.323-13.149 2.685-16.02 2.079-16.5-.87-.69-.588-13.396.33-14.882.41-.663.201-1.861-.463-2.662-.739-.89-.807-1.456-.175-1.456 1.53 0 .941-2.166-1.536-5.645-2.675-3.756-1.881-4.994 1.498-2.336 1.366 1.075 2.833 1.738 3.259 1.475 1.246-.77 11.243 4.113 14.212 6.942 2.382 2.269 2.581 2.903 1.589 5.078-.622 1.368-1.536 2.486-2.031 2.486-.494 0-.579.516-.19 1.146.499.806-.076.949-1.941.481-1.457-.366-2.649-.255-2.649.246 0 .5 1.095 1.185 2.433 1.521 1.339.336 2.73 1.544 3.092 2.684.362 1.14.901 1.83 1.198 1.533.87-.871 4.277 1.337 4.277 2.772 0 .787 1.262 1.349 3.152 1.402 1.734.05 3.51.668 3.946 1.373 1.176 1.903 1.97.561 2.243-3.791.21-3.366.586-3.907 2.896-4.178 1.867-.219 2.485-.75 2.085-1.791-.312-.814-.175-1.408.305-1.32 2.267.413 3.261-.206 2.696-1.679-.338-.88.014-2.005.781-2.5 1.101-.709.931-1.027-.799-1.501-1.873-.514-2.021-.88-1.009-2.5.652-1.044 1.784-1.898 2.516-1.898.998 0 .931-.399-.264-1.595-.877-.877-2.243-2.848-3.035-4.381-.793-1.532-2.75-3.887-4.35-5.234-3.201-2.692-5.786-6.79-4.285-6.79.521 0 .727-1.397.458-3.104l-.489-3.105 2.479 1.855c1.687 1.262 2.175 2.225 1.528 3.015-.609.743-.574 1.394.097 1.809.577.356 1.049.171 1.049-.411s.578-1.059 1.284-1.059c.789 0 1.271 1.253 1.25 3.25-.034 3.253.932 4.706 3.146 4.735.867.011.919-.847.195-3.235-1.715-5.658-2.064-7.205-2.031-9 .017-.962-.557-1.75-1.277-1.75-.811 0-1.615-1.999-2.113-5.25-1.317-8.611-1.283-9.164.671-10.858 2.265-1.965 2.385-2.892.375-2.892-.825 0-1.5-.459-1.5-1.019 0-.599 1.075-.749 2.607-.365 1.726.433 2.904.186 3.485-.731 1.421-2.243 1.041-3.026-.95-1.961-1.506.806-2.067.536-2.962-1.429-.608-1.333-.745-2.646-.306-2.917 1.087-.672.771-3.651-.646-6.078-1.144-1.96-1.168-1.956-1.198.191-.041 2.961-2.026 4.046-2.045 1.118-.012-1.814-.215-1.994-.946-.838-.512.809-1.262 1.139-1.668.733-.406-.405-.24-1.235.368-1.843 1.333-1.333.641-3.607-1.993-6.537-1.075-1.197-1.657-2.659-1.292-3.25.365-.591.23-1.074-.301-1.074s-.705-1.012-.386-2.25c.517-2.004.397-2.1-1.094-.878-1.488 1.221-1.673 1.082-1.673-1.25 0-1.442.477-2.622 1.059-2.622s.781-.45.441-1-.141-1 .441-1 1.059-.886 1.059-1.969c0-1.425-.459-1.792-1.664-1.33-1.216.467-1.441.278-.836-.701.596-.964.386-1.17-.749-.735-1.244.478-1.556-.068-1.475-2.58.272-8.389-.218-10.685-2.276-10.685-3.254 0-1.716-4.814 2-6.259.924-.359 1.02-.613.25-.662-.687-.043-1.279-.867-1.313-1.829-.048-1.308-.298-1.166-.992.564-.581 1.449-1.38 2.035-2.137 1.567-.938-.579-.94-.837-.009-1.147 1.752-.584 1.469-2.234-.382-2.234-2.082 0-1.296-2.23 1.234-3.504 1.959-.986 1.953-1.047-.358-3.5-1.889-2.004-2.051-2.56-.823-2.819.842-.178 1.53-.767 1.53-1.309 0-.542-.403-.737-.895-.433-1.226.758-2.166-1.974-1.06-3.08 1.309-1.309-.035-5.355-1.778-5.355-1.022 0-1.329-.656-.962-2.057.386-1.477-.102-2.349-1.728-3.09-1.686-.768-2.147-1.649-1.805-3.443.334-1.743.014-2.41-1.155-2.41-.89 0-1.617-.369-1.617-.82 0-1.284 4.754-5.092 5.467-4.379.351.351.342-.136-.021-1.081-.605-1.577-1.749-2.146-3.696-1.838-.413.065-.757-.445-.765-1.132-.012-.935-.204-.953-.764-.074-.52.819-1.415.427-2.942-1.287-2.42-2.718-2.501-3.106-1.157-5.616.684-1.28.34-2.311-1.329-3.98-2.636-2.636-3.465-6.751-1.598-7.935.977-.619.865-.831-.445-.843-1.838-.016-2.486-3.442-.844-4.457 1.095-.677.224-4.558-1.023-4.558-.485 0-.883-1.125-.883-2.5s-.477-2.5-1.059-2.5-.813-.397-.513-.883c.3-.486.804-2.511 1.121-4.5.519-3.269.352-3.622-1.737-3.669l-2.312-.053 2.25-1.569c1.237-.864 2.25-2.26 2.25-3.103 0-1.366-.191-1.369-1.75-.03-4.152 3.565-4.602 3.394-3.932-1.493.347-2.537.235-4.858-.249-5.157-.485-.3-.674-1.338-.42-2.308.253-.97.049-2.878-.455-4.24-.697-1.883-.53-2.772.695-3.704 1.441-1.098 1.399-1.231-.398-1.259-3.725-.059-6.955-7.926-5.434-13.231.628-2.191.566-3.416-.199-3.888-.794-.491-.668-1.588.437-3.802 1.611-3.23 1.084-4.02-1.242-1.861-1.099 1.02-1.236.933-.743-.471.333-.947.017-2.309-.702-3.029-1.361-1.36.062-3.75 2.233-3.75 1.939 0 1.987-3.92.056-4.533-1.043-.331-1.897-1.471-1.897-2.534 0-1.063-.034-2.259-.075-2.658-.168-1.625 1.942-1.253 2.375.42.257.993.52-1.007.584-4.445.09-4.837.455-6.25 1.616-6.25.825 0 1.5.653 1.5 1.45 0 .798.745 1.867 1.654 2.377.996.557 1.407 1.572 1.032 2.549-.343.893-.222 1.624.268 1.624 1.57 0 3.182 6.756 2.492 10.438-.499 2.657-.323 3.572.693 3.603 1.884.057 6.215 9.637 6.438 14.244.101 2.087.855 4.563 1.675 5.504 2.533 2.907 3.626 5.714 3.318 8.52-.162 1.48.02 2.691.404 2.691 1.357 0 6.026 10.57 6.026 13.642 0 1.712.64 3.644 1.422 4.293.782.649 1.732 3.067 2.111 5.373.379 2.305 1.539 6.08 2.578 8.387 2.192 4.869 2.404 7.299.639 7.32-.868.011-.811.293.186.924 1.19.753 1.211 1.178.127 2.485-.927 1.116-.968 1.576-.144 1.576 1.926 0 4.922 3.36 5.36 6.013.226 1.368 1.371 4.512 2.544 6.987 1.173 2.475 2.143 5.069 2.155 5.764.012.695.469 2.045 1.014 3 1.593 2.785 5.008 12.177 5.008 13.769 0 .802 1.545 4.804 3.434 8.894 1.889 4.089 4.252 9.828 5.25 12.754.999 2.925 2.129 5.555 2.511 5.844.383.289 1.148 2.539 1.7 5 1.47 6.554 5.795 17.683 9.306 23.947 1.791 3.195 3.108 7.045 3.166 9.25.061 2.331.585 3.778 1.366 3.778.697 0 1.267.642 1.267 1.427 0 .786 1.11 2.301 2.466 3.368 1.356 1.067 2.181 2.224 1.833 2.572-.348.348-.16.633.418.633.577 0 1.285.9 1.573 2 .34 1.3.03 2-.884 2-.773 0-1.406.675-1.406 1.5s-.562 1.387-1.25 1.25c-.695-.139-1.387.933-1.558 2.417-.17 1.467-1.408 3.853-2.75 5.302-3.325 3.587-3.07 4.462 1.028 3.538 2.513-.567 3.789-.4 4.623.605.634.763.759 1.402.279 1.42-.479.017-.005.688 1.055 1.489 1.06.802 1.598 1.787 1.196 2.19-.403.402-1.18.069-1.728-.74-.719-1.062-.874-.43-.557 2.269.284 2.417.074 3.515-.594 3.102-.654-.405-.848.333-.528 2.009.279 1.457.119 2.649-.355 2.649-.473 0-.861.477-.861 1.059s.45.781 1 .441 1.007-.029 1.015.691c.012 1.04.193 1.029.878-.052.657-1.036 1.302-.618 2.7 1.75 1.011 1.711 2.386 3.111 3.055 3.111.67 0 1.491.862 1.825 1.916.335 1.054 1.94 2.381 3.568 2.948 2.908 1.014 3.925 3.421 1.959 4.636-1.362.842-1.271 4.5.111 4.5.724 0 .888 1.194.47 3.422-.373 1.985-.209 3.69.388 4.059.567.35 1.031 2.566 1.031 4.923 0 5.259 3.62 9.766 4.657 5.799.698-2.667 3.961-2.159 9.325 1.452 1.915 1.29 4.696 2.345 6.179 2.345 1.483 0 3.371.675 4.196 1.5 2.164 2.164 3.818 1.844 3.456-.668-.236-1.637.352-2.349 2.396-2.903 3.164-.857 4.235.118 5.497 5.003 1.161 4.496 3.106 5.025 4.538 1.234 1.223-3.243 4.295-4.81 5.135-2.62.28.729.063 1.473-.482 1.655-.596.199-.376 1.802.553 4.025 1.334 3.193 1.951 3.666 4.545 3.484 3.564-.249 3.55-.202.987-3.459-1.129-1.436-1.771-3.34-1.458-4.325.43-1.356.116-1.645-1.364-1.258-1.643.43-1.93-.054-1.979-3.333-.095-6.469-1.196-10.701-3.292-12.653-2.451-2.284-2.33-8.332.16-7.934 1.22.195 1.459-.518 1.128-3.356-.368-3.153-.186-3.531 1.451-3.021 3.308 1.031 4.518-.694 4.183-5.968-.272-4.285-.595-4.917-2.561-5.016-1.238-.063-2.25.275-2.25.75 0 .474-.375.863-.833.863-.459 0-.834-.675-.834-1.5s.574-1.5 1.275-1.5c3.375 0 1.301-4.721-2.318-5.273-2.709-.414-5.29-3.133-5.29-5.574 0-3.213-1.096-5.159-2.857-5.074-1.038.05-1.182.265-.393.583 1.855.749 1.582 5.338-.317 5.338-1.09 0-1.382.584-.96 1.916.335 1.054.138 2.206-.436 2.561-.574.355-.811 1.968-.526 3.584.292 1.661.076 2.939-.497 2.939-.558 0-1.014.927-1.014 2.059 0 1.14-.454 1.779-1.016 1.431-.559-.346-.783-1.006-.497-1.469.828-1.34-.568-4.021-2.094-4.021-.766 0-1.449-.675-1.518-1.5-.131-1.572-.504-3.325-.798-3.75-.982-1.42-.781-11.919.318-16.63.769-3.296 1.231-6.161 1.026-6.365-.204-.205-.661-4.171-1.015-8.814-.428-5.617-.31-8.106.354-7.441.888.89 3.587 7.947 3.697 9.667.024.366.349.973.724 1.347.375.375.461 1.254.193 1.955-.671 1.746 2.561 2.83 4.253 1.426 1.704-1.415 1.791-2.98.147-2.645-2.114.431-2.041-3.95.091-5.443 1.679-1.176 1.907-2.216 1.501-6.847-.76-8.683-.515-11.378 1.147-12.593 1.514-1.107 2.438-9.749 1.178-11.009-.31-.31-.159-1.626.335-2.925.561-1.476.527-2.591-.091-2.973-1.35-.834-.761-3.695 1.065-5.178.825-.67 1.033-1.233.463-1.25-1.618-.05-1.678-5.81-.07-6.726.779-.443 1.57-2.381 1.759-4.306.3-3.051.065-3.491-1.834-3.428-1.306.043-2.369-.658-2.654-1.75-.513-1.96.799-2.5 1.869-.769 1.464 2.37 2.703.034 2.831-5.342.075-3.142-.142-5.825-.482-5.962-3.075-1.24.673-10.749 6.777-17.192 3.604-3.804 6.191-10.818 3.341-9.057-.55.34-1.015 1.379-1.033 2.309-.033 1.649-3.226 6.191-4.353 6.191-.31 0-.126-1.154.411-2.565.536-1.411.975-4.534.975-6.941s.472-4.668 1.049-5.024c.716-.443.677-1.096-.125-2.062-.665-.8-.917-2.695-.581-4.372.325-1.627.138-3.239-.416-3.581-.555-.343-.717-1.542-.361-2.664.429-1.35.277-1.812-.447-1.364-.687.424-.874.098-.501-.875.386-1.006.03-1.552-1.011-1.552-.884 0-1.607.675-1.607 1.5s.43 1.5.955 1.5c.525 0-.15 1.105-1.5 2.455s-2.455 3.487-2.456 4.75c-.002 5.515-5.328 25.457-7.335 27.465-.365.365-.664 1.295-.664 2.068 0 .773-.635 2.04-1.411 2.816-.776.775-1.563 1.827-1.75 2.337-.376 1.027-2.138 1.406-5.711 1.227-1.749-.087-2.114-.447-1.388-1.368.541-.687 1.28-2.488 1.641-4s1.087-2.75 1.613-2.75c.539 0 .681-1.375.325-3.155-.451-2.256-.302-2.952.525-2.441.692.427 1.156.068 1.156-.895 0-.884.708-2.978 1.573-4.651.866-1.673 1.697-6.039 1.848-9.7.193-4.694.908-7.69 2.423-10.158 1.182-1.925 2.15-4.444 2.152-5.598.004-2.065 5.793-19.037 8.494-24.902 1.35-2.931 1.383-2.942 1.44-.5.032 1.375-.628 3.815-1.466 5.422-.94 1.803-1.149 3.155-.544 3.529.539.333 1.424 1.718 1.967 3.077.696 1.746 1.005 1.958 1.05.722.085-2.366 2.063-2.244 2.063.128 0 1.843 2.269 4.52 3.114 3.674.237-.236 1.507 1.14 2.822 3.06l2.392 3.491-1.743 8.198c-.958 4.51-1.902 9.774-2.096 11.699-.195 1.925-.127 2.375.149 1 .277-1.375 1.034-2.95 1.683-3.5.648-.55 1.328-2.125 1.511-3.5.182-1.375.969-3.497 1.75-4.715.78-1.218 1.418-3.325 1.418-4.682 0-1.59.712-2.694 2-3.103 1.1-.349 2-1.054 2-1.567 0-.513.644-.933 1.43-.933 1.138 0 1.24-.664.5-3.243-1.323-4.613-1.251-4.905 2.075-8.453 1.647-1.757 2.995-3.642 2.995-4.188 0-.546 1.35-2.471 3-4.277 1.65-1.807 3-4.084 3-5.062 0-2.691.08-3.032 1.503-6.438 2.656-6.357 2.334-10.25-1.003-12.14-1.65-.935-3.208-1.832-3.462-1.994-.254-.163.087-1.175.758-2.25 1.001-1.602.959-1.955-.229-1.955-.797 0-1.727.45-2.067 1-.769 1.244-4.514 1.277-6.443.056-1.156-.731-1.216-1.412-.302-3.418.87-1.91.857-2.622-.057-2.993-.896-.364-.883-.507.052-.566.688-.043 1.25-1.204 1.25-2.579 0-1.375.48-2.5 1.067-2.5s.802-.836.478-1.859c-.342-1.076.056-2.395.945-3.132 1.832-1.521.314-4.009-2.446-4.009-2.379 0-2.829-.676-2.298-3.453.531-2.775 2.686-2.419 5.471.904 1.694 2.023 1.717 2.023 1.75.06.042-2.516 3.287-10.502 4.27-10.507.405-.002 1.484 1.684 2.399 3.746 1.827 4.121 1.989 4.706 2.212 8 .083 1.238.658 2.25 1.277 2.25.699 0 .913-1.06.566-2.797-.308-1.538-.163-3.439.322-4.224.556-.899.439-1.733-.316-2.256-.776-.538-.493-.718.803-.51 1.1.176 2.005 1.096 2.011 2.045.019 3.241 1.988 1.819 2.729-1.973.407-2.082 1.631-7.61 2.719-12.285 3.368-14.473 3.279-15.16-2.251-17.282-1.581-.606-1.554-1.037.365-5.936 1.139-2.905 2.488-5.709 2.999-6.232.51-.522.938-2.097.95-3.5.012-1.402.902-3.675 1.978-5.05s1.966-2.907 1.978-3.404c.012-.496 1.132-3.248 2.488-6.115 2.828-5.978 4.827-13.956 4.095-16.348-.274-.898-.09-3.208.409-5.133 4.505-17.357 5.363-22.176 4.089-22.964-.727-.449-.978-1.358-.562-2.031.579-.937.951-.905 1.613.138.61.964.864.618.875-1.193.008-1.403-.525-3.09-1.185-3.75-.933-.933-.92-1.2.059-1.2.692 0 .945-.508.561-1.13-.422-.682-.155-.948.674-.672 1.805.602 3.621-3.044 4.452-8.943.369-2.615 1.238-5.662 1.931-6.77 2.427-3.879 2.773-8.092.825-10.044-.991-.993-1.815-2.512-1.83-3.374-.018-1.018-.807-1.484-2.25-1.329-2.65.284-2.63.628-.631-10.958 3.182-18.437.338-34.215-6.603-36.634-3.93-1.37-6.192 1.093-7.524 8.195-.37 1.973-1.376 4.166-2.235 4.873-1.388 1.143-1.475.841-.789-2.714.425-2.2.944-5.955 1.153-8.344.209-2.389.841-6.053 1.403-8.143 1.178-4.373.431-7.245-1.771-6.812-.918.18-2.179 2.683-3.175 6.299-1.863 6.765-10.072 24.5-11.34 24.5-.455 0-.569-.419-.253-.931.317-.512.118-1.213-.441-1.559-.559-.345-1.016-1.659-1.016-2.92 0-4.355-2.077-8.771-3.55-7.549-.732.608-1.102 1.702-.822 2.431.279.729.028 1.623-.56 1.986-.587.363-1.068.183-1.068-.399 0-.582-.502-1.059-1.115-1.059-.766 0-.904 1.692-.44 5.404.774 6.198.422 6.62-6.022 7.222l-4.423.413v-3.819c0-2.101.521-4.341 1.158-4.978.876-.876.848-1.53-.118-2.694-.732-.882-1.033-2.711-.707-4.292.63-3.052-1.342-13.256-2.56-13.256-1.948 0-.662-6.027 1.602-7.51 2.243-1.47 2.681-2.946 2.783-9.371.02-1.309-.512-2.72-1.183-3.135-.812-.502-1.008-2.047-.586-4.619.749-4.563.767-9.207.045-11.534-.339-1.093.206-1.899 1.577-2.334 1.674-.532 1.859-.949.919-2.081-1.306-1.574-1.303-1.578 1.732-1.903 4.453-.477 6.07-1.517 4.088-2.63-2.778-1.559-2.033-2.89 1.25-2.233 2.732.546 3 .362 3-2.06 0-2.323.246-2.529 1.939-1.622 1.29.69 2.147.702 2.559.035 1.023-1.655 2.502-1.134 2.502.882 0 1.037 1.084 2.595 2.408 3.463 2.685 1.759 5.592 6.916 5.592 9.919 0 1.603.539 1.881 2.961 1.525 2.124-.311 3.056.01 3.297 1.137.185.864 1.022-1.129 1.86-4.429 1.41-5.552 1.724-5.986 4.203-5.812 1.473.104 2.679.101 2.679-.006 0-.108-.419-1.655-.93-3.439-.674-2.348-.605-3.252.25-3.275.649-.017.311-.689-.751-1.493-1.898-1.435-1.894-1.5.25-3.782 2.514-2.676 2.741-3.693.827-3.693-2.708 0-6.887-4.956-6.387-7.575.26-1.36.149-2.673-.247-2.918-.971-.6-3.187 4.402-2.466 5.568.315.509-.13.925-.987.925s-1.559.436-1.559.969c0 .532-.675.709-1.5.393-.825-.317-1.5-1.01-1.5-1.54 0-1.677-3.126-4.231-3.841-3.138-.362.554-1.885 1.308-3.382 1.674-2.275.557-2.618.391-2.08-1.01.433-1.129.261-1.44-.527-.953-.644.398-1.17.261-1.17-.305 0-.565-.788-.78-1.75-.477-1.581.497-1.572.405.091-.958 1.238-1.015 1.625-2.186 1.182-3.582-.403-1.269-.216-2.073.481-2.073 1.651 0 3.996-2.599 3.996-4.429 0-.864.468-1.571 1.039-1.571.6 0 .494-.59-.25-1.395-.709-.767-1.617-1.197-2.018-.954-.401.243-1.526.028-2.5-.477s-3.959-1.236-6.633-1.624l-4.861-.706 2.095 2.249 2.095 2.249-2.942 1.789c-1.618.984-5.211 2.09-7.983 2.458-2.773.368-5.042.988-5.042 1.378 0 1.344-7.111.973-10.974-.573-4.764-1.906-5.086-2.698-4.079-10.038.985-7.186.817-7.321-9.176-7.341L400.043 16l1.083 2.376m-246.875 7.862c-1.649 2.052-2.201 18.855-.566 17.22.723-.724 1.315-2.279 1.315-3.458 0-1.179.675-2.818 1.5-3.643 1.333-1.333 1.5-1.263 1.5.631 0 1.171.38 1.895.844 1.608.465-.287.671 1.149.46 3.191A2100.96 2100.96 0 0 1 158.54 49c-.208 1.925-.606 6.2-.883 9.5-.477 5.66-.747 6.987-2.291 11.25-1.552 4.287-1.445 8.25.223 8.25 1.152 0 1.488-.599 1.121-2.001-.288-1.101-.209-1.807.176-1.57.384.238.808-.991.94-2.732.133-1.74.676-3.599 1.208-4.131 1.304-1.304 1.229-4.566-.105-4.566-.59 0-.365-.707.5-1.571.864-.865 1.571-3.077 1.571-4.917 0-1.84.557-3.531 1.238-3.758.957-.319.977-.986.091-2.931-.631-1.385-1.168-6.412-1.193-11.171-.025-4.758-.066-9.354-.091-10.211-.025-.857-.495-1.281-1.045-.941-.55.34-1 .066-1-.608 0-.674-.296-.929-.658-.567-.362.362-1.202.206-1.867-.346-.826-.685-1.531-.603-2.224.259M424 51.857c0 .558 1.8 2.027 4 3.263 2.2 1.237 4 2.604 4 3.038 0 1.24 5.477 3.757 7.794 3.583 1.167-.088 2.61-1.281 3.265-2.699a156.105 156.105 0 0 1 2.058-4.278c.486-.955.883-1.889.883-2.075 0-.186-3.488-.304-7.75-.263-4.262.041-9.212-.299-11-.755-2.078-.531-3.25-.464-3.25.186m45.313 26.636c-1.427 1-3.264 1.242-5.939.784-5.145-.881-15.529-.522-16.626.575-1.031 1.031 4.974 2.438 6.467 1.515.555-.343 1.358-.058 1.785.633.427.691 1.325.917 1.995.503.937-.579.905-.951-.138-1.613-1.057-.669-.97-.863.393-.875.962-.008 1.75.483 1.75 1.092 0 .609.675.848 1.5.531 2.849-1.093 1.534 2.293-1.5 3.862-3.399 1.758-3.978 2.989-1.045 2.222 1.762-.461 1.984.095 2.25 5.633l.295 6.145 1.758-5.033c1.431-4.095 2.222-5.071 4.25-5.238 1.371-.114 2.492.308 2.492.937 0 .637.887.341 2-.666 2.371-2.145 2.605-5.753.488-7.51-1.165-.966-1.247-1.576-.358-2.647 1.678-2.022.586-2.533-1.817-.85m-64.824 57.524c-.366.593-1.414.974-2.328.846-3.363-.47-7.954 1.311-10.661 4.137-1.53 1.597-4.068 3.185-5.641 3.531-1.572.345-2.859.974-2.859 1.397 0 .949-7.78 4.526-10.218 4.697-.98.069-2.457.181-3.282.25-.825.069-1.5.752-1.5 1.518 0 2.355-3.119 2.869-3.709.611-.578-2.209-2.291-2.753-2.291-.726 0 1.749-3.973 5.121-4.079 3.462-.043-.682-.561.11-1.15 1.76-.589 1.65-1.523 3.295-2.076 3.655-.553.36-.965 2.055-.916 3.768.048 1.712-.299 2.873-.773 2.58-1.121-.692-2.206 2.8-2.206 7.097 0 1.867-.382 3.158-.849 2.869-.81-.5-1.942 4.353-1.757 7.531.048.825-.196 4.157-.541 7.404-.345 3.247-.355 5.631-.021 5.298 1.577-1.578 3.625 2.44 2.501 4.906-1.316 2.888-1.445 4.392-.377 4.392.416 0 1.428-1.463 2.25-3.25l1.494-3.25.316 2.75c.275 2.389.573 2.612 2.271 1.703 1.075-.575 2.348-.802 2.829-.505.481.297 1.132-.132 1.448-.954.315-.822 1.289-1.494 2.164-1.494.874 0 1.341-.403 1.037-.895-.561-.907 2.243-2.577 3.759-2.239.454.101.54-.278.191-.841-.568-.92.724-1.461 2.735-1.143.413.065.75-.899.75-2.141 0-1.243.934-2.843 2.076-3.556 1.724-1.077 1.861-1.556.808-2.825-1.601-1.929-1.651-10.214-.077-12.86.999-1.681 1.1-1.281.628 2.5-.476 3.817-.378 4.196.65 2.5.666-1.1 2.114-2.87 3.217-3.933 1.956-1.884 1.959-1.95.102-2.625-1.047-.38-2.241-.496-2.654-.258-1.224.709-.868-.688 1.162-4.548 1.051-2 2.229-4.536 2.616-5.636.442-1.255.879-1.534 1.172-.75.257.688 1.09 1.25 1.852 1.25.82 0 1.151.612.81 1.5-.33.86.003 1.549.781 1.615 4.002.341 4.283.611 3.298 3.178-.834 2.173-.671 2.36 2.811 3.234 2.316.581 2.748.373 2.748-1.325 0-1.84.303-1.922 3.499-.941 4.498 1.381 4.788.982 3.493-4.797-1.131-5.045-.792-7.464 1.044-7.464.645 0 .836.829.462 2.005-.427 1.346-.106 2.208.976 2.623 2.162.83 3.351-.494 1.497-1.667-1.114-.704-.795-.934 1.31-.946 1.539-.008 3.039-.685 3.357-1.515.328-.855 1.82-1.5 3.469-1.5 2.938 0 3.825-1.306 1.755-2.585-.678-.419.633-1.553 3.249-2.809 5.199-2.497 6.711-5.711 5.322-11.319-.888-3.587-1.174-3.802-5.933-4.472-2.75-.387-6.427-.967-8.172-1.29-1.827-.338-3.455-.129-3.839.492m-99.626 26.385c-.651 1.429-1.531 2.598-1.956 2.598-.425 0-1.058.9-1.407 2s-1.189 2-1.867 2c-3.204 0-3.637 2.387-.944 5.198 2.941 3.069 4.573 3.648 3.673 1.302-.357-.929.004-1.5.95-1.5 2.442 0 7.675 3.366 7.682 4.941.004 1.03.425.888 1.474-.5 2.274-3.007 1.825-4.421-1.9-5.977-3.843-1.606-4.827-2.793-5.198-6.273-.194-1.818.152-2.289 1.437-1.956.931.24 2.559-.389 3.618-1.399 1.616-1.541 1.669-1.836.332-1.836-.876 0-2.295-.269-3.152-.598-1.042-.4-1.951.262-2.742 2M277 163.8c0 .44.465 1.265 1.033 1.833 1.206 1.206.185 4.62-1.138 3.802-.492-.304-.895-.076-.895.506 0 1.827-1.998 1.151-2.04-.691-.028-1.235-.487-.926-1.558 1.049-1.176 2.169-1.988 2.65-3.608 2.136-1.896-.602-2.031-.37-1.457 2.5.395 1.974.262 2.935-.352 2.556-.542-.335-.985-.132-.985.45 0 .582-.675 1.059-1.5 1.059s-1.5.459-1.5 1.02c0 .561-1.125 2.802-2.5 4.98-2.277 3.607-3.545 8.379-1.75 6.583.413-.412.789-1.05.836-1.416.505-3.896 3.368-5.467 3.493-1.917.043 1.238.306 1.688.583 1 .278-.687.877-1.25 1.333-1.25.964 0 .792 1.951-.332 3.75-.707 1.132-.254 1.389 2.087 1.184.413-.036.604-.772.425-1.635-.212-1.025.178-1.377 1.124-1.015.905.348 1.949-.445 2.785-2.114.734-1.468 2.591-3.882 4.126-5.364 1.534-1.481 2.79-3.544 2.79-4.583 0-1.039.337-2.227.75-2.64.713-.713.833-1.106 1.125-3.69.069-.609.763-.862 1.542-.563 1.833.703 3.055-2.414 1.367-3.485-1-.634-1.007-.818-.034-.83.688-.008 1.25-.388 1.25-.844 0-.457-1.012-.794-2.25-.75-1.297.045-2.144-.45-2-1.171.137-.687-.425-1.25-1.25-1.25s-1.5.36-1.5.8m23.25 29.862c-.687.278-1.25 1.289-1.25 2.247 0 2.086-3.619 5.594-6.75 6.543-2.329.707-3.013 2.958-1.234 4.058.559.346.777 1.016.484 1.49-.918 1.485 1.514 2.233 3.068.944.814-.676 1.758-.952 2.096-.613.912.912 6.336-2.552 6.336-4.047 0-.706-.41-1.284-.912-1.284-.501 0-.795-.787-.654-1.75.174-1.182 1.093-1.715 2.832-1.641 1.767.075 2.734-.502 3.084-1.841.43-1.643.127-1.854-1.92-1.34-1.972.495-2.43.23-2.43-1.409 0-2.039-.476-2.274-2.75-1.357m-239.642 8.786C59.117 204.401 57.33 206 56.636 206c-2.163 0-6.946 5.69-6.026 7.169.456.732.697 2.343.538 3.581-.16 1.238.191 2.25.78 2.25.59 0 1.072.9 1.072 2s-.461 2-1.024 2c-.574 0-.904 1.758-.75 3.999.333 4.864.927 5.001 2.983.688 1.082-2.268 1.282-3.844.636-5-.776-1.387-.494-1.687 1.586-1.687 2.544 0 4.529-3.637 3.178-5.823-.318-.515.462-2.903 1.734-5.307 4.533-8.568 4.028-13.667-.735-7.422m273.544 3.244c-.556.995-1.352 1.683-1.769 1.531-.417-.153-.864.444-.993 1.327-.144.983.284 1.405 1.104 1.091.737-.283 1.613.196 1.947 1.065.901 2.348.234 2.477-3.411.659-4.869-2.429-5.623-.889-6.313 12.885-.186 3.713.053 6.75.532 6.75.478 0 .548.52.156 1.155-.397.642-.279.885.267.548.561-.347 1.529 2.152 2.263 5.845 1.156 5.817 1.901 6.952 4.315 6.57.413-.065.75.589.75 1.453 0 1.425.148 1.424 1.581-.009.869-.869 1.994-1.325 2.5-1.012.505.312.919-.16.919-1.05s.43-1.352.956-1.027c.526.325.675 1.325.33 2.223-.418 1.091-.238 1.392.544.909.644-.398 1.226-.246 1.295.336.069.582.238 1.509.375 2.059.137.55.306 1.45.375 2s.526 1 1.017 1c1.419 0 2.263-4.907 1.167-6.788-.568-.974-1.011-1.173-1.029-.462-.016.688-.454 1.25-.973 1.25-.917 0-.618-3.772.379-4.769.274-.274-.387-1.624-1.469-3-1.082-1.375-1.967-3.303-1.967-4.284 0-2.725-1.081-4.947-2.407-4.947-.656 0-1.212-1.012-1.235-2.25-.023-1.238-.763-4.613-1.646-7.5-1.377-4.507-1.399-5.25-.158-5.25.795 0 1.446.689 1.446 1.531 0 .843.647 1.78 1.437 2.083.79.303 1.2 1.168.911 1.921-.289.753-.16 1.953.287 2.667.447.714.824 1.973.839 2.798.014.825.589 1.388 1.276 1.25.688-.137 1.279.313 1.313 1 .035.688.552.125 1.148-1.25 1.934-4.459 1.845-5.752-.44-6.35-1.201-.314-1.87-.885-1.486-1.268.384-.384.158-1.349-.502-2.144-.66-.795-1.219-3.755-1.242-6.577-.044-5.525-2.351-7.61-4.389-3.969M179.067 209a71.549 71.549 0 0 1-2.465 4.776c-.752 1.305-1.607 7.496-2.003 14.5-.915 16.203-1.362 19.764-3.666 29.224-1.517 6.229-1.723 8.775-.933 11.5.559 1.925 1.304 7.212 1.655 11.75.642 8.273 2.552 12.48 3.979 8.762.385-1.003.079-2.08-.738-2.598-1.126-.713-1.068-.886.304-.899.935-.008 2.201.773 2.813 1.735.933 1.466 1.021 1.312.544-.947-.523-2.482 1.564-6.907 5.429-11.511.558-.664 1.014-3.053 1.014-5.309 0-2.479.395-3.857 1-3.483.55.34 1-.084 1-.941s-.466-1.559-1.035-1.559c-.671 0-.711-.616-.112-1.75.507-.962 1.227-4.45 1.6-7.75.372-3.3 1.138-8.025 1.7-10.5 1.363-5.99 1.732-8.388 2.39-15.5.306-3.3.717-6.491.914-7.091.52-1.583-1.064-3.77-2.216-3.058-.54.334-1.269 2.039-1.619 3.788-.951 4.755-1.788 2.821-1.755-4.054.016-3.347-.398-6.085-.919-6.085s-.948.454-.948 1.008c0 .609-.767.53-1.935-.2-1.065-.664-1.796-1.456-1.625-1.758.17-.303-.034-1.45-.455-2.55-.727-1.902-.821-1.878-1.918.5m-9.555 12.75c.184.963.404 1.75.488 1.75.084 0 .304.79.489 1.755.2 1.045-.096 1.488-.731 1.095-.63-.389-.775-.186-.353.495.392.635.217 1.155-.39 1.155-.606 0-1.03.563-.94 1.25.433 3.334-.143 4.938-1.575 4.388-.825-.316-1.5-.177-1.5.31s.545 1.067 1.212 1.289c.942.314.95 1.279.035 4.334-.648 2.161-1.207 4.261-1.242 4.666-.036.406-.912 2.713-1.947 5.127-1.924 4.489-2.351 7.238-2.164 13.945.063 2.28.51 3.559 1.113 3.187.554-.343 1.277.081 1.607.941.997 2.598 3.372 1.802 3.543-1.187.273-4.798.527-7.57 1.35-14.75 1.037-9.032.989-8.745 2.879-17.315 2.237-10.14 2.152-14.185-.298-14.185-1.281 0-1.801.577-1.576 1.75m144.254 1.221c-2.498 2.271-2.854 2.977-1.516 3 .962.016 1.75.704 1.75 1.529s.505 1.5 1.122 1.5c.792 0 .768.427-.082 1.452-.663.799-.913 2.374-.555 3.5.473 1.491.207 2.048-.977 2.048-.911 0-1.332.476-.958 1.081.374.605 1.768.805 3.168.454l2.5-.628-2.139 2.719c-1.176 1.496-1.768 2.979-1.316 3.297 1.805 1.267 1.135 5.824-1.175 7.994-1.427 1.341-2.173 2.953-1.882 4.067.309 1.181-.27 2.248-1.612 2.966-2.184 1.169-2.681-.072-2.128-5.311.123-1.156-.307-1.692-1.134-1.416-.733.244-1.332.888-1.332 1.432 0 1.973-3.447 4.365-6.667 4.626-3.065.249-3.317.543-3.598 4.205-.166 2.165-.683 4.179-1.15 4.476-.466.296-.836 1.888-.822 3.538.015 1.65.237 2.399.494 1.664.306-.875 1.065-.359 2.203 1.5 1.169 1.909 1.387 3.063.667 3.532-.588.382-.72 1.044-.294 1.471.427.426 1.194.113 1.706-.696.735-1.162.934-.998.946.779.008 1.238.451 2.25.984 2.25.532 0 .716.658.407 1.462-.73 1.904 4.266 6.538 7.048 6.538 1.172 0 2.902-.9 3.844-2 .942-1.1 1.437-2 1.1-2-.337 0-.037-.694.667-1.542.854-1.029 1.614-1.209 2.28-.543.667.667.581 1.505-.257 2.515-1.014 1.221-.994 1.777.102 2.872 1.458 1.459 4.226 1.132 3.287-.387-.311-.503.159-.915 1.044-.915 2.834 0 9.084-6.838 7.561-8.273-1.029-.97-1.398-.965-1.76.023-.6 1.635-2.292 1.615-2.292-.028 0-1.171 3.384-4.722 4.5-4.722.262 0 1.382-.775 2.489-1.722 2.888-2.474 2.683-9.633-.472-16.429-1.366-2.942-2.249-6.097-1.961-7.011.74-2.352-5.148-18.838-6.729-18.838-1.011 0-3.827-2.996-3.827-4.071 0-.511.904-.929 2.008-.929 1.759 0 1.853-.249.76-2-1.639-2.625-2.139-2.544-6.002.971m150.049 33.083c-.193.58-1.085 1.163-1.982 1.294-2.614.384-4.37 2.33-4.599 5.096-.117 1.413-.892 4.196-1.723 6.185-2.944 7.044-1.632 9.965 3.658 8.148 4.451-1.528 8.155-13.198 3.831-12.067-2.885.755-2.46-.97 1-4.052 1.65-1.471 3-3.345 3-4.166 0-1.69-2.646-2.054-3.185-.438M155 300.622c0 1.213-.326 1.352-1.291.551-.957-.794-1.596-.584-2.467.811-.908 1.453-.898 1.979.041 2.306.669.232.494.322-.39.198-1.033-.145-1.618.53-1.639 1.893-.074 4.93-2.657 8.757-3.431 5.085-.251-1.19-.625-1.046-1.672.645-1.184 1.913-1.154 2.104.25 1.565 1.018-.39 1.599-.08 1.599.855 0 .808-.346 1.357-.769 1.219-1.409-.458-6.355 4.056-5.216 4.759.766.473.74 1.082-.089 2.08-.644.776-.756 1.411-.248 1.411.507 0 .922 1.125.922 2.5s-.387 2.5-.859 2.5-.603.415-.29.921c.949 1.536 1.342 7.079.501 7.079-.432 0-1.012-.562-1.29-1.25-.388-.961-.522-.948-.583.059-.043.72-.529 1.031-1.079.691-.55-.34-1-.179-1 .358 0 1.494 2.24 1.951 4.841.989 1.858-.688 2.438-.494 2.813.939.531 2.028 5.846 2.526 5.846.547 0-.641.338-1.504.75-1.916.412-.413.75-.199.75.475 0 .674.445.951.989.615.587-.363.73.12.352 1.191-.774 2.195.257 1.185 3.964-3.881 1.482-2.026 2.702-4.501 2.71-5.5.009-.999.452-2.492.985-3.317.723-1.118.973-.56.985 2.191.014 3.413 1.415 5.742 2.688 4.469.298-.297.715-3.379.928-6.848.213-3.47.843-6.46 1.399-6.645.557-.186.741-.778.408-1.315-.332-.538.185-1.85 1.149-2.915 1.524-1.684 1.548-1.937.181-1.937-.864 0-1.761-.562-1.992-1.25-.654-1.943-3.907 1.161-3.291 3.141 1.051 3.384-1.15 4.422-2.312 1.091-.615-1.767-.897-3.572-.625-4.011.272-.44-.071-1.007-.762-1.261-.938-.344-.97-.765-.124-1.667 1.206-1.286-.929-7.043-2.612-7.043-.458 0-.597-.9-.31-2 .288-1.1.246-2-.093-2-.34 0-.617.73-.617 1.622m111.193 27.873c-4.588 3.162-6.124 5.469-6.161 9.255-.021 2.078-.529 3.25-1.41 3.25-2.471 0-4.148 2.928-2.859 4.992.917 1.468.822 1.953-.477 2.452-1.235.474-1.343.899-.453 1.789 1.738 1.738 1.414 2.7-.769 2.279-1.064-.205-2.469.271-3.122 1.058-.978 1.178-.725 1.43 1.436 1.43 2.247 0 2.622.429 2.622 3 0 3.654-.271 4.576-1.25 4.25-.947-.316-.981 1.185-.049 2.118.386.386.723 6.035.75 12.555.049 11.759.031 11.851-2.201 11.446-1.238-.224-2.306.051-2.375.611-.247 2.016-.418 2.54-1.268 3.882-.534.841-.404 1.645.339 2.104.899.556.805 1.14-.372 2.317-1.971 1.971-1.991 2.717-.074 2.717.825 0 1.5-.436 1.5-.969 0-.532.644-.721 1.432-.419 1.759.675 1.637 4.388-.145 4.388-.708 0-1.287.45-1.287 1s.563 1 1.25 1c.794 0 1.284 1.587 1.342 4.352.102 4.782 2.499 16.647 3.364 16.649.299.001.67 1.836.824 4.078.154 2.242-.093 3.846-.548 3.564-.455-.281-1.446-.129-2.201.338-1.152.712-1.089 1.901.389 7.362 1.991 7.354 3.702 8.822 5.312 4.556.974-2.58.88-2.899-.851-2.899-2.148 0-3.851-3.398-3.115-6.213.511-1.955 8.234-2.693 8.234-.787 0 .55-.338.887-.75.75-.677-.226-1.25.545-1.25 1.68 0 .237 1.245.073 2.766-.363 1.91-.548 3.16-.371 4.04.57 1.053 1.127.833 1.363-1.267 1.363-1.396 0-2.539.257-2.539.571 0 1.443 3.012 3.362 4.426 2.819 1.19-.457 1.609.093 1.716 2.253.422 8.514-.284 12.267-2.436 12.95-1.776.564-1.553 1.769.377 2.032 2.228.304 2.333.459.917 1.354-.902.571-1.5 2.458-1.5 4.735 0 2.615-.41 3.701-1.325 3.511-1.785-.371-.574 3.586 1.94 6.339 1.037 1.136 1.885 2.45 1.885 2.922 0 .471.746 1.68 1.657 2.687 1.598 1.766 1.697 1.751 2.813-.421.986-1.919.852-2.425-.906-3.42-1.994-1.131-1.972-1.192.687-1.859 2.833-.711 3.873-3.473 1.308-3.473-.793 0-1.72-.451-2.061-1.003-.345-.559.183-.878 1.191-.721 2.557.398 4.435 1.715 3.833 2.688-.535.866 2.177 2.275 3.318 1.725.747-.36 5.115 3.955 5.142 5.079.01.403.538.732 1.173.732 1.521 0 1.887 2.868.833 6.543-.658 2.293-.527 2.957.582 2.957.786 0 1.43.675 1.43 1.5 0 1.816 1.635 1.991 2.338.25.403-1 .52-1 .583 0 .043.688.754 1.25 1.579 1.25s1.5.436 1.5.969c0 .532.753.679 1.674.326 1.268-.487 1.518-.237 1.031 1.031-.353.921-.259 1.674.21 1.674 1.235 0 2.066-3.894.975-4.568-.508-.314-.701-.929-.43-1.367.271-.439-.397-1.603-1.484-2.586-1.087-.984-1.976-1.431-1.976-.994 0 .437-1.132-.875-2.517-2.914-2.546-3.753-2.53-5.571.051-5.571 1.04 0 1.257-.797.816-3-.47-2.349-.247-3 1.025-3 2.493 0 1.929-1.934-.875-3-1.729-.657-2.5-1.707-2.5-3.404 0-1.349-.704-3.157-1.564-4.017-.86-.86-1.24-2.087-.845-2.726.425-.689.283-.893-.349-.503-.67.414-.965-.273-.792-1.845.174-1.582-.227-2.505-1.088-2.505-.749 0-1.362-.45-1.362-1s.45-1 1-1 1-.675 1-1.5-.562-1.507-1.25-1.515c-.912-.011-.88-.25.118-.882 1.099-.697.929-1.306-.868-3.103-1.634-1.634-1.906-2.44-1.011-2.993.718-.444.83-1.001.271-1.346-1.247-.771-1.392-6.546-.219-8.737.645-1.206.453-2.099-.648-3.013-1.046-.868-1.379-2.23-1.004-4.105.325-1.627.127-2.806-.473-2.806-.569 0-.744-.47-.389-1.044.355-.574.101-1.699-.563-2.5-.929-1.119-.936-1.784-.031-2.875.93-1.121.799-1.64-.628-2.47-1.396-.812-1.465-1.064-.305-1.112 1.202-.05 1.143-.333-.296-1.424-1.299-.986-1.614-2.086-1.138-3.98.536-2.138.361-2.504-.955-1.999-1.069.41-1.611.078-1.611-.989 0-.884.675-1.607 1.5-1.607 1.474 0 2.216-2.985.75-3.015-2.429-.05-3.598-1.861-2.25-3.485 1.113-1.341 1.128-1.803.079-2.451-.91-.563-.965-1.001-.186-1.483 1.78-1.1 1.295-2.159-1.591-3.474-2.094-.955-2.384-1.423-1.296-2.096 1.187-.733 1.194-1.253.047-3.397-1.094-2.045-1.112-2.823-.091-4.053 1.036-1.249.974-1.633-.349-2.141-.887-.341-1.613-1.246-1.613-2.012s-.416-1.393-.925-1.393c-.508 0-.721-1.637-.473-3.637.352-2.843.008-3.948-1.575-5.057-1.115-.781-2.027-2.055-2.027-2.831 0-.845-.603-1.181-1.5-.837-.95.365-1.5-.013-1.5-1.031 0-.884.354-1.607.787-1.607 1.281 0 1.22-4.286-.084-5.867-.938-1.137-.936-1.548.008-1.866 1.469-.495.614-6.286-1.147-7.767-1.03-.866-1.217-3.102-.693-8.271.071-.7 1.245-1.781 2.61-2.402 2.777-1.266 4.055-4.065 2.83-6.199-.668-1.163-1.395-1.009-4.118.867M158.897 375.5c-.074.55-.069 1.371.009 1.824.079.454-.387.497-1.036.096-.789-.488-.911-.296-.37.58.551.892.42 1.068-.413.554-.78-.482-1.424.019-1.782 1.386-.734 2.809-2.756 2.084-2.783-.998-.025-2.766-2.727-3.764-4.841-1.789-1.295 1.21-1.27 3.372.08 6.847 1.365 3.516.815 6.211-1.444 7.07-1.485.564-2.074 1.399-1.691 2.398.788 2.053 3.343 1.941 4.982-.218 1.255-1.654 1.33-1.647 1.36.117.024 1.369.565 1.727 2.034 1.343 1.229-.322 2.399.116 3.028 1.133.852 1.375.979 1.234.748-.832-.159-1.423.257-2.547.972-2.625.688-.075 1.85-.192 2.583-.261.734-.069 1.355-.687 1.381-1.375.026-.687.375-2.038.774-3 .521-1.257.257-1.75-.94-1.75-.916 0-1.429.384-1.139.853.29.469-.087 1.693-.838 2.719-1.206 1.65-1.359 1.141-1.307-4.352.042-4.5.429-6.22 1.397-6.22 1.575 0 1.679-.926.339-3-.533-.825-1.03-1.05-1.103-.5m-24.934 3c-.11.55-.135 1.371-.057 1.824.079.454-.318.54-.881.191-.564-.348-1.025-.108-1.025.533s-.675.907-1.5.59c-.903-.346-1.5-.005-1.5.858 0 .789-.787 1.855-1.75 2.37a109.63 109.63 0 0 0-2.346 1.285c-.328.192-1.341-.269-2.25-1.023-1.427-1.185-1.654-1.142-1.654.309 0 .924.45 1.403 1 1.063.55-.34 1 .139 1 1.063 0 1.382-.268 1.46-1.5.437-1.274-1.058-1.498-.813-1.485 1.628.011 2.025.273 2.466.889 1.494.48-.758 1.373-1.069 1.984-.691.612.378 1.112.184 1.112-.431s.489-.816 1.087-.446c.598.369.864 1.527.59 2.572-.645 2.467 3.129 4.788 4.435 2.727.817-1.29.977-1.145 1.263 1.147.143 1.145 1.135 1.369 2.9.654.95-.385.944-.514-.025-.575-.687-.043-1.198-1.091-1.134-2.329.087-1.693.229-1.817.573-.5.661 2.53 3.587 2.149 6.387-.831 2.27-2.416 2.313-2.661.674-3.86-1.901-1.39-2.358-3.559-.75-3.559.55 0 1-.9 1-2 0-2.196-.735-2.453-2.972-1.039-1.106.7-1.769.262-2.669-1.765-.658-1.483-1.286-2.246-1.396-1.696m31.294 8.742c-.093 1.234.519 3.293 1.359 4.576 1.411 2.153 1.389 2.318-.294 2.142-3.912-.408-4.654-.065-3.322 1.54.685.825 1.891 1.5 2.681 1.5.791 0 1.159.45.819 1-.34.55-1.679 1-2.975 1-1.658 0-2.752.891-3.685 3-.777 1.754-2.087 3-3.156 3-1.712 0-1.721.106-.145 1.682 1.458 1.458 1.488 1.825.226 2.75-.802.588-2.221 2.545-3.154 4.351-.933 1.805-2.127 3.016-2.654 2.691-.526-.326-.957.136-.957 1.026s.403 1.369.895 1.065c1.322-.817 2.234 2.314 1.241 4.257-2.481 4.853-2.146 9.452.899 12.361 1.631 1.559 2.965 3.505 2.965 4.326 0 .82.42 1.491.933 1.491.513 0 1.187.804 1.499 1.787.312.983 1.427 1.852 2.477 1.931 2.456.185 3.308-2.871 3.685-13.218.16-4.4.316-8.364.348-8.809.032-.445.584-.484 1.228-.086.794.491.958.171.511-.993-.461-1.202-.287-1.493.58-.972.7.42.586-.074-.261-1.135-1.366-1.711-1.338-1.819.302-1.204 1 .376 1.551.27 1.238-.237-.311-.502.229-1.119 1.198-1.372 1.665-.435 1.665-.466.012-.576-.963-.064-1.75-.552-1.75-1.085 0-.532.787-.715 1.75-.405 1.387.446 1.457.355.34-.44-.776-.551-1.488-2.056-1.583-3.344-.095-1.288-.66-2.342-1.257-2.342-1.948 0-2.561-1.421-1.279-2.965.691-.832 1.655-1.266 2.142-.965.488.301.887.12.887-.404s-.766-1.246-1.703-1.606c-1.443-.553-1.197-1.085 1.609-3.48 2.383-2.034 2.959-3.045 2.052-3.606-.955-.59-.814-1.106.582-2.127 1.532-1.12 1.576-1.347.258-1.347-.871 0-1.843-.675-2.16-1.5-.35-.914-.001-1.5.893-1.5 1.894 0 1.879-1.415-.031-3-1.205-1-1.5-.985-1.5.078 0 1.028-.267 1.055-1.2.122-1.74-1.74-2.353-1.489-2.543 1.042m-23.788 40.1c-.394 1.187-.863 3.222-1.042 4.523-.179 1.3-.93 3.1-1.669 4-2.385 2.901-3.829 6.562-3.8 9.635.041 4.364-.805 17.431-1.393 21.5-.475 3.295-.331 3.512 2.465 3.71 1.634.115 2.97-.222 2.97-.75s.787-1.767 1.75-2.753c3.963-4.061 4.421-5.02 3.352-7.017-.809-1.511-.628-2.309.82-3.619 1.777-1.609 1.874-1.509 2.237 2.3.265 2.777-.163 4.65-1.415 6.196-2.355 2.909-1.317 3.9 1.13 1.079 1.16-1.338 2.51-1.936 3.506-1.554 1.209.464 1.624.024 1.637-1.735.01-1.296 1.149-3.43 2.532-4.742 2.615-2.482 3.437-2.413 3.839.321.13.89.609 1.568 1.063 1.506.454-.062 1.236.488 1.739 1.223.575.841.692-.467.317-3.536-.694-5.674-4.923-14.629-6.909-14.629-1.46 0-5.209-4.945-4.796-6.324.136-.454-.148-.58-.631-.282-.95.588-3.171-3.573-3.171-5.941 0-.799-.858-2.311-1.908-3.361-1.876-1.876-1.919-1.872-2.623.25M65.025 438.75c-.454 2.062-.643 2.631-1.826 5.478-1.963 4.727-1.709 15.772.363 15.772.907 0 .761 1.505-.556 5.75-.981 3.163-1.721 8.113-1.645 11 .077 2.888-.269 5.386-.767 5.552-.498.166-1.018 3.204-1.155 6.75-.209 5.394-.097 5.917.684 3.198.514-1.788 1.357-3.25 1.874-3.25.517 0 .702-.622.41-1.382-.512-1.335 2.738-18.136 6.504-33.618 2.462-10.122 2.159-14-1.092-14-.516 0-.574.563-.129 1.25 1.154 1.786 1.128 6.756-.031 6.039-.533-.329-.647-.079-.254.556.392.635.21 1.155-.405 1.155s-.906.342-.648.761c.259.419-.172 1.64-.958 2.715-1.312 1.794-1.396 1.63-1.027-2.011.221-2.181.713-4.714 1.092-5.631.38-.916.499-2.941.265-4.5-.233-1.558-.548-2.271-.699-1.584m-40.311 25.9c.81.329.913 1.052.31 2.171-.497.924-1.186 3.006-1.532 4.627-.474 2.219-.847 2.596-1.508 1.526-.535-.866-.467-1.676.176-2.073.703-.434.716-.859.041-1.277-.557-.344-.778-1.526-.49-2.625.335-1.282.03-1.999-.851-1.999-1.09 0-1.439 3.184-1.697 15.494-.32 15.29.207 21.506 1.823 21.506.455 0 .605-.849.333-1.887-.271-1.038.072-2.237.764-2.664.885-.547 1.068-.285.618.887-.351.915-.315 1.664.08 1.664.396 0 .719 1.125.719 2.5s-.309 2.5-.687 2.5c-.378 0-.432 1.575-.119 3.5.396 2.44.188 3.5-.686 3.5-1 0-1.002.302-.008 1.5.993 1.197.993 1.803 0 3-.78.939-.849 1.5-.185 1.5.7 0 .916 3.195.638 9.438-.39 8.751-.276 9.484 1.578 10.072 1.099.349 1.759 1.021 1.467 1.493-.292.472-.073 1.141.486 1.487.562.348 1.016-.291 1.016-1.431 0-1.132-.41-2.059-.912-2.059-1.016 0-.864-2.557.216-3.638.383-.382.728.167.766 1.221.067 1.827.108 1.823.862-.083.435-1.1.578-2.568.318-3.263-.261-.694-.035-1.819.502-2.5.536-.68.887-2.25.779-3.487-.108-1.237.126-2.25.519-2.25.394 0 .995-.788 1.334-1.75.34-.962.9-2.375 1.246-3.139.397-.876.212-1.131-.5-.691-.622.384-1.13.259-1.13-.278 0-.536.42-1.125.932-1.309.513-.183 1.076-2.133 1.25-4.333.175-2.2.768-4.331 1.318-4.735.611-.449.492-.74-.307-.75-1.02-.012-.981-.48.179-2.136 1.058-1.511 1.226-2.807.582-4.5-.498-1.309-.714-2.379-.48-2.379.233 0-.206-1.507-.976-3.349-1.055-2.526-1.116-3.633-.249-4.5.868-.868.826-1.151-.171-1.151-.973 0-1.037-.344-.242-1.302.594-.716.803-2.362.465-3.656-.412-1.575-.253-2.13.481-1.677.666.412 1.039-.089.95-1.274-.081-1.074-.573-1.689-1.094-1.367-.521.322-.638.085-.261-.525.378-.611-.072-2.818-.999-4.905s-1.576-4.445-1.443-5.24c.203-1.21-.017-1.231-1.346-.128-1.058.879-1.589.944-1.589.196 0-.617.482-1.122 1.071-1.122.59 0 .397-.675-.428-1.5s-2.32-1.464-3.322-1.421c-1.001.043-1.275.3-.607.571M303 600.5c0 .825.623 1.5 1.383 1.5 1.52 0 2.894 3.711 1.657 4.475-.425.263-1.568-.401-2.54-1.475s-2.157-1.712-2.634-1.417c-.476.294-.866.058-.866-.524 0-.582-.45-1.059-1-1.059s-1 1.152-1 2.559c0 1.508-.425 2.296-1.034 1.92-2.762-1.707 2.362 13.045 5.652 16.271 2.363 2.317 5.382 3.018 5.382 1.25 0-.55-.45-1-1-1s-1-.702-1-1.559c0-.924.47-1.268 1.155-.846.679.42.884.277.498-.347-.421-.682.134-.855 1.552-.484l2.209.577-2.207-2.805c-2.875-3.655-3.097-6.652-.306-4.126 1.045.946 2.119 1.353 2.387.905.783-1.312.535-6.315-.314-6.315-.426 0-1.194-1.687-1.706-3.75-.512-2.062-1.457-3.638-2.1-3.5-.642.138-1.168-.2-1.168-.75s-.675-1-1.5-1-1.5.675-1.5 1.5" fill="#d3d3d3" fill-rule="evenodd"/></svg>