<svg xmlns="http://www.w3.org/2000/svg" width="500" height="752"><path d="M176.37 193.9l-.62 3.1-7.125.148c-10.925.228-25.692-.163-29.981-.793l-3.856-.567.607 3.856c.333 2.121.168 8.131-.367 13.356-1.05 10.243-1.305 13.786-1.136 15.762.131 1.537 10.708 1.593 19.479.103 4.406-.748 8.398-.624 16 .497 12.35 1.822 31.731 2.981 44.971 2.689l9.843-.216-.486 23.154c-.355 16.877-.177 23.253.657 23.516.856.27 36.624 1.269 52.777 1.474 1.228.016 1.565.826 1.36 3.271-.151 1.788-.323 5.613-.383 8.5L278 297h-27v14.5c0 14.343.024 14.501 2.25 14.592 3.7.151 32.234-.247 32.441-.452.106-.104.416-7.828.69-17.165.274-9.336.816-21.836 1.205-27.777l.707-10.803 3.067.303 3.067.302-.303 31.116-.303 31.117 2.34.43c2.089.384 16.315.375 39.241-.025l7.902-.138-.871-12.75c-.479-7.012-.837-17.509-.796-23.326l.076-10.577-7.107-1.18c-3.908-.648-8.456-1.087-10.106-.973-1.65.113-6.262.115-10.25.006L307 284v-9.298l18.25.809c29.285 1.298 26.99 1.463 27.842-2.011.755-3.076 1.849-28.823 1.134-26.677-.218.654-.76.965-1.205.69-.444-.274-1.089.623-1.433 1.994-.486 1.933-1.271 2.493-3.496 2.493-7.055 0-9.893 8.29-4.637 13.545 1.35 1.35 3.6 2.455 5 2.455 2.204 0 2.545.435 2.547 3.25l.003 3.25-9.753-.5c-5.535-.284-9.738-.932-9.72-1.5.018-.55.4-6.288.849-12.75l.816-11.75 5.652-.015c4.017-.011 5.217-.296 4.151-.985-1.135-.734-.695-.973 1.809-.985 1.955-.009 3.056.394 2.691.985-.775 1.254 1.509 1.28 3.471.039 2.638-1.668.801-1.878-21.93-2.498-12.345-.337-22.634-.801-22.864-1.031-.231-.23-.107-2.913.274-5.962l.692-5.542 25.442.277 25.443.277-.254-16.369c-.139-9.003-.681-16.633-1.203-16.956-1.241-.767-4.204-.945-28.071-1.688-11-.343-21.706-.82-23.79-1.061-4.515-.522-4.418-.725-5.256 11.014-.854 11.954-.627 16.764.836 17.735.898.596.759 1.149-.54 2.144-2.051 1.572-2.266 3.261-.5 3.923.869.326.656.924-.699 1.965-1.631 1.253-2.017 3.064-2.369 11.115l-.421 9.618h-5.703l-.008-18.363c-.004-10.1-.319-19.173-.699-20.164-.439-1.145-.308-1.564.361-1.151 1.114.688 2.996-19.947 1.918-21.026-.738-.737-11.978-1.039-68.385-1.84l-46.255-.657-.62 3.101m4.472.137c-1.826.431-2.355 1.283-2.486 4.005-.092 1.902-.499 7.396-.903 12.208l-.735 8.75 13.391.014c7.365.007 14.387.28 15.605.607 2.091.56 2.21.293 2.148-4.843-.036-2.989.259-8.887.654-13.107l.719-7.671-6.868-.135-13.036-.256c-3.393-.065-7.213.127-8.489.428m162.572 8.463c-.661 2.672-.94 11.358-.65 20.25L343 230h11.57l.978-5.338c.549-2.996.627-7.272.179-9.75-.439-2.426-.67-6.516-.513-9.087l.286-4.675-5.796-.325c-5.108-.286-5.854-.088-6.29 1.675m-205.009 30.233c-.605.424-.898 2.392-.654 4.402l.441 3.636 12.654.709c6.96.39 14.904 1.142 17.654 1.672 2.75.529 8.851.936 13.558.905 12.227-.082 11.653-1.219 10.841 21.443-.375 10.45-.797 26.65-.939 36l-.258 17 5.399.677c5.307.665 21.133 1.064 35.899.905l7.5-.081v-31.943l-10 .221-10 .221v-26.163c0-14.389-.236-26.4-.524-26.691-2.117-2.132-78.777-4.87-81.571-2.913m99.091 5.104c-.273.273-.496 1.282-.496 2.242 0 2.229 2.807 2.639 23.821 3.473l16.321.649-.321-3.351-.321-3.35-19.254-.079c-10.59-.044-19.477.144-19.75.416M149.4 257.622c-.055 7.083-.643 18.728-1.306 25.878-1.882 20.284-2.138 30.558-.772 30.992.648.206 8.46.584 17.361.841 8.901.256 16.663.763 17.25 1.126.718.444 1.072-1.729 1.081-6.65.008-4.02.27-13.384.582-20.809.841-20.015 1.07-42.088.441-42.477-.303-.188-8.198-.665-17.544-1.06l-16.993-.719-.1 12.878m2.953-2.971c.356 4.208.647 9.341.647 11.406v3.756h28.863l.331-9.157c.183-5.036.196-9.637.031-10.226-.29-1.032-18.982-3.43-26.733-3.43h-3.785l.646 7.651m9.994-2.721c-10.927 4.961-3.353 17.95 8.771 15.042 6.232-1.495 8.318-3.834 7.467-8.372-1.386-7.388-8.354-10.25-16.238-6.67m150.755 2.968c-6.946 6.946-.907 15.983 8.57 12.826 3.609-1.202 3.82-1.499 3.696-5.199-.237-7.06-8.004-11.889-12.266-7.627M162.388 276.98c-9.748 3.939-7.33 16.569 3.097 16.175 7.501-.284 10.04-1.956 9.894-6.516-.261-8.213-6.003-12.482-12.991-9.659m97.825 22.815l-7.287.294.67 3.706c.368 2.038.722 3.775.787 3.86.149.196 20.692.622 22.367.463.772-.073 1.25-1.648 1.25-4.118 0-4.723-.727-4.895-17.787-4.205m46.037 15.874c-2.003.418-2.25 1.073-2.25 5.953v5.484l6.25-.141c3.438-.077 10.134.187 14.881.586 12.604 1.06 13.869.561 13.869-5.472v-4.883l-5.75-.563c-9.46-.927-24.593-1.468-27-.964M179.725 326l-8.774.5-.532 9c-.748 12.646-.742 14.51.048 15.302.963.964 68.162 2.94 69.013 2.029.505-.539.899-11.748.702-19.953l-.182-7.622-25.75.122c-14.162.067-29.699.347-34.525.622m-6.227 4.008c-.175.28-.455 2.755-.625 5.5l-.307 4.992 15.967.306c8.782.168 18.217.381 20.967.474 2.75.092 10.192.066 16.539-.056l11.538-.224-.109-5.75-.11-5.75h-31.772c-17.474 0-31.914.229-32.088.508m72.006 6.465c-.276 1.665-.39 5.47-.253 8.456.234 5.098.432 5.48 3.249 6.262 3.41.947 21.255 1.27 55.75 1.01l23.75-.179V344h-18.5c-20.368 0-19.095.41-18.619-6 .307-4.131-.826-4.347-23.295-4.453l-21.579-.101-.503 3.027" fill="#d3d3d3" fill-rule="evenodd"/></svg>