<svg xmlns="http://www.w3.org/2000/svg" width="500" height="686"><path d="M205 112.842V119h3.314c1.822 0 8.46.732 14.75 1.628 6.29.895 13.686 1.907 16.436 2.25 4.441.552 5.034.911 5.301 3.208.165 1.422-.285 3.054-1 3.626-1.482 1.186-17.402 2.914-35.801 3.886-6.875.363-12.665.805-12.867.981-.202.177-.546 2.482-.765 5.122-1.021 12.342-2.673 24.369-3.409 24.824-.913.565-23.55-1.319-28.959-2.41l-3.5-.705-.04-12.455c-.022-6.85-.408-13.693-.858-15.205l-.819-2.75h-19.78l.199 20.25c.253 25.828-.872 42.686-2.901 43.465-.809.31-5.226-.174-9.816-1.075-4.589-.902-8.797-1.64-9.35-1.64-.65 0-.97 8.923-.906 25.25.097 24.596-.561 33.24-3.748 49.25-1.658 8.333-3.767 40.638-2.716 41.61 1.368 1.266 37.625 4.27 55.14 4.57 9.573.163 17.552.444 17.732.623.179.18-.294 4.347-1.052 9.262-2.922 18.947-2.947 18.197.62 18.98 3.449.758 19.656-.043 38.181-1.885 7.678-.764 15.643-.895 22.5-.372 5.838.446 16.914.614 24.614.374 7.7-.241 16.475-.151 19.5.2 3.025.351 11.108.342 17.963-.019 6.898-.363 20.597-.13 30.68.523 10.019.65 18.699 1.02 19.287.824 1.665-.555 1.265-7.026-.922-14.918-1.095-3.953-2.222-9.344-2.504-11.98-.281-2.635-.786-6.99-1.12-9.677l-.609-4.885 23.613.735L395 301.2l-.017-2.35c-.01-1.292-.433-6.4-.94-11.35-1.284-12.524-1.532-34.885-.61-55.042.707-15.443.572-18.115-1.436-28.471-1.218-6.286-2.55-16.392-2.959-22.458-.473-7.015-.797-8.936-.891-5.279-.098 3.846-.561 5.755-1.397 5.765-.891.011-.926.226-.121.75 1.355.882 2.777 14.604 1.427 13.77-.505-.312-1.2-.11-1.546.449-.887 1.436-12.58 1.332-12.26-.109.137-.619-.327-1.336-1.031-1.594-.705-.258-1.155.136-1 .875.356 1.702-7.705 1.516-9.804-.226-1.087-.902-1.415-.896-1.415.027 0 1.395-5.668.483-7.826-1.258-.949-.766-1.527-.745-2.033.072-.552.894-6.013 1.093-9.044.33-.222-.055.678-1.071 2-2.257 1.664-1.493 1.865-1.964.653-1.531-1.353.483-1.75.081-1.75-1.771 0-1.44.698-2.578 1.75-2.853 1.667-.435 1.667-.463 0-.573-2.28-.151-2.209-1.108.5-6.745 1.655-3.445 1.92-4.796 1-5.11-1.527-.522-1.664-2.261-.179-2.261 1.755 0 4.079 2.789 2.92 3.505-.563.348-.765 1.052-.448 1.564.316.512.126.931-.422.931s-.929.9-.846 2c.162 2.15 1.725 2.829 1.726.75 0-.687 1.092-1.313 2.426-1.39 1.692-.097 2.264.281 1.892 1.25-.313.818.105 1.39 1.015 1.39 2.416 0 2.749-1.499.666-3-1.041-.75-1.688-1.696-1.437-2.102.25-.405-.212-1.404-1.028-2.22-1.311-1.312-1.303-1.553.072-2.081 2.031-.779 2.418-.753 2.275.153-.066.412-.066 1.762 0 3 .143 2.731 2.118 3.04 2.118.332 0-3.675 1.058-5.122 2.989-4.088.984.526 3.076.966 4.65.976 3.228.02 17.727-.834 18.111-1.068.466-.283 2.243-.651 3.75-.777.825-.069 1.5-.528 1.5-1.02 0-.514-1.561-.542-3.668-.067-3.155.711-9.767.726-35.404.078l-4.573-.116-1.11-7.17c-.791-5.114-.81-9.698-.066-15.99 1.466-12.405 2.32-11.684-13.868-11.707-7.596-.01-18.421-.719-24.054-1.576-5.634-.856-11.522-1.557-13.084-1.557-2.489 0-2.84-.371-2.84-3 0-1.65.038-3.062.084-3.138.045-.076 9.277-.413 20.513-.75l20.431-.612.745-2.795c.41-1.538 1.046-5.537 1.414-8.887l.669-6.091-9.345.787c-13.192 1.111-74.477 1.159-98.594.078l-20.25-.908v6.158m57.33-.633c-2.107.39-7.88 2.726-12.83 5.191-8.833 4.399-8.926 4.482-5 4.487 4.307.006 14.586-2.804 15.649-4.278.357-.495 1.326-.641 2.152-.324.827.318 1.764.317 2.083-.002 2.848-2.848 18.576.18 24.293 4.678 2.5 1.966 9.197 2.831 10.653 1.376.963-.964-11.133-8.723-15.83-10.153-4.774-1.455-15.83-1.964-21.17-.975M236 132.974c-7.709.978-25.186 2.269-33.195 2.453-3.133.072-5.896.343-6.141.602-.424.449-.764 3.25-2.182 17.971-.345 3.575-1.79 11.9-3.212 18.5-3.552 16.483-3.693 18.862-1.779 30.094.943 5.539 1.403 11.628 1.054 13.958-.414 2.757.135 7.262 1.648 13.54 1.988 8.241 2.264 11.951 2.233 29.908l-.037 20.5-4.814 14c-2.648 7.7-5.495 15.929-6.325 18.286-.831 2.358-1.274 4.524-.984 4.814 1.683 1.683 52.2-1.308 59.638-3.531 6.608-1.975 24.186-3.386 25.447-2.043.895.954.512 1.112-1.732.713-2.847-.506-17.898 1.302-26.619 3.196-2.475.538-6.75 1.004-9.5 1.037-7.192.084-7.576.559-8.129 10.053-.267 4.574-.572 8.776-.678 9.337-.121.642 4.808 1.121 13.307 1.291 52.36 1.051 63.367 1.155 70.194.658l7.695-.56-.371-5.625c-.204-3.094-.404-7.452-.444-9.685l-.074-4.058-9.25-1.388c-5.087-.763-8.245-1.555-7.016-1.759 2.485-.413 25.789 2.379 31.266 3.745 1.925.481 7.881 1.157 13.236 1.504l9.737.63-.439-2.808c-1.303-8.328-1.775-13.203-2.641-27.307-.524-8.525-1.108-20.225-1.298-26-.323-9.798-3.026-23.113-6.602-32.518-2.073-5.452-2.323-19.668-.469-26.623 3.976-14.914 4.613-19.484 4.371-31.359-.134-6.6-.208-17.738-.164-24.75l.08-12.75-12.156-.077c-6.685-.042-12.83-.207-13.655-.368-7.941-1.543-21.4-2.687-35.5-3.017-9.35-.219-21.725-.621-27.5-.893-5.775-.273-13.425-.125-17 .329m4 9.025c-2.475.469-6.36.886-8.633.927-4.844.087-5.332 1.068-5.353 10.757-.011 5.041.309 6.273 1.736 6.674.963.27 21.1.638 44.75.817l43 .326.286-9.118.286-9.118-2.786-.517c-1.532-.284-14.711-.571-29.286-.638-14.575-.067-29.425-.311-33-.542-3.575-.231-8.525-.037-11 .432m-5 2.781c-6.911.774-7 .86-7 6.739 0 3.71.404 5.486 1.25 5.496.84.011.759.348-.25 1.029-1.05.71 1.399.925 8.165.718 5.316-.163 9.452.049 9.191.471-.261.422.704.767 2.144.767 1.44 0 2.375-.394 2.077-.875-.297-.481 1.476-.648 3.941-.37 3.193.36 4.482.145 4.482-.747 0-.879.373-.949 1.25-.234 1.392 1.135 29.572 1.151 31.326.018 1.22-.788 5.424.082 5.424 1.122 0 .883 15.957 1.135 16.136.254.631-3.113.285-9.168-.524-9.168-.578 0-.498-.514.188-1.2 2.145-2.145 1.534-5.049-.8-3.8-1.356.726-2 .737-2 .035 0-1.329-7.681-1.36-8.5-.035-.34.55-.066 1 .608 1 .674 0 .959.266.634.591-.325.326-1.638.259-2.917-.148-2.232-.709-2.245-.77-.325-1.521 1.303-.51-.013-.761-3.773-.72-5.16.055-9.521 1.681-5.036 1.877 1.06.046 1.289.289.553.585-.691.279-1.002.918-.691 1.421.311.503.04.915-.602.915-.746 0-.941.903-.54 2.5.361 1.442.196 2.5-.392 2.5-.56 0-1.019-.688-1.019-1.529 0-1.284-1.52-1.484-9.5-1.25-5.225.153-9.5.647-9.5 1.096 0 .45-.862.544-1.916.21-1.054-.335-2.219-.118-2.589.481-.485.785-1.043.782-1.995-.008-.727-.603-1.544-.738-1.816-.299-.272.44-2.9.746-5.839.681-10.97-.243-10.845-.213-10.845-2.682 0-1.265-.54-2.84-1.2-3.5-.933-.933-.933-1.2 0-1.2.66 0 1.2-.45 1.2-.999 0-.916-2.293-.972-9-.221m-89.905 18.161c-.743.459-1.042 1.336-.664 1.947.378.612.21 1.112-.372 1.112s-1.059-.708-1.059-1.573c0-.958-.684-1.444-1.75-1.242-2.011.381-3.201 7.815-1.251 7.815.615 0 .836.457.491 1.016a1.19 1.19 0 0 1-1.63.398c-.633-.392-.985 1.901-.956 6.233.025 3.769-.209 9.441-.521 12.603-.592 5.99-.722 5.783 3.867 6.15.688.055 1.138-.462 1-1.15-.418-2.091 1.479-1.393 2.04.75.527 2.015 3.698 2.57 13.434 2.35 1.773-.041 3.029.241 2.791.626-.555.897 19.021 5.024 23.833 5.024 3.229 0 3.652-.29 3.652-2.5 0-1.375-.498-2.5-1.107-2.5s-.848-.675-.531-1.5c.316-.825.169-1.5-.327-1.5s-.699-1.125-.449-2.5c.327-1.802.013-2.5-1.125-2.5-.869 0-1.32.419-1.004.931.317.512.118 1.213-.441 1.559-.559.345-1.016.022-1.016-.718 0-1.363-2.243-1.992-7.25-2.035-1.512-.013-2.75-.465-2.75-1.003 0-.563-.582-.496-1.367.156-2.195 1.821-3.963-1.307-4.436-7.844l-.419-5.786 3.111-.457c1.711-.251 3.111-.099 3.111.339 0 1.029 3.288-.178 4.196-1.54.382-.574 1.044-.695 1.471-.269.426.427.113 1.199-.696 1.717-1.069.684-.515.919 2.029.86 1.925-.044 4.804.248 6.399.65 1.947.49 2.683.382 2.243-.33-.36-.582-.227-1.21.296-1.395 1.327-.468 2.968-8.368 2.048-9.857-.457-.74-2.178-1.058-4.355-.803-1.98.231-3.719.085-3.865-.325-.146-.41-5.778-.881-12.516-1.047-6.737-.167-12.25-.615-12.25-.996s-.9-.519-2-.307c-1.1.212-2-.039-2-.557 0-.519-.388-.943-.861-.943-.474 0-.647 1.125-.384 2.5s.018 2.5-.545 2.5c-.562 0-.786-.907-.496-2.015.416-1.589.163-1.875-1.194-1.354-.947.363-2.026.169-2.397-.432-.397-.642-1.234-.749-2.028-.258m109.183 15.034c-9.819 2.278-14.726 5.005-22.913 12.734-8.651 8.167-13.712 15.621-15.813 23.291-.979 3.575-2.687 9.602-3.794 13.393-4.908 16.805.992 40.926 13.636 55.748a904.007 904.007 0 0 1 5.28 6.25c1.196 1.435 2.771 2.599 3.5 2.587.817-.014.525-.685-.763-1.75-2.175-1.799-6.411-7.547-6.411-8.7 0-.365 1.89-.52 4.199-.345l4.2.317-.217-21.682-.216-21.682 2.767-.318c1.522-.175 5.793-.169 9.491.013l6.725.331.02 18.169c.012 9.993-.265 23.72-.614 30.504l-.636 12.335-3.609-.606c-2.86-.479-3.24-.379-1.829.482 6.223 3.801 50.414-.685 46.39-4.708-.275-.275-1.367-.036-2.427.531-1.06.568-4.136 1.296-6.836 1.618-2.699.323-6.033.851-7.408 1.174-4.902 1.152-7.594 1.49-14.64 1.835l-7.14.351.417-22.674c.23-12.47.45-24.698.49-27.173.04-2.475.59-4.831 1.223-5.235.855-.546.857-.738.008-.75-.807-.011-1.071-3.612-.899-12.265.285-14.338.252-14.047 1.541-13.25.55.34 1 .168 1-.382 0-1.605-1.774-2.248-2.416-.874-.323.691-.348-.396-.055-2.416.308-2.126.078-3.953-.547-4.339-.64-.396-.725-1.139-.207-1.828.479-.639.931-2.28 1.004-3.648.091-1.709-.129-2.065-.702-1.137-.652 1.054-.927 1.073-1.255.089-.303-.909-3.202-1.243-10.371-1.194-14.074.096-14.193.106-12.603 1.114 3.141 1.99.798 4.596-4.432 4.929-5.392.343-9.607-2.036-6.034-3.407.883-.339 1.355-1.023 1.048-1.52-.307-.497.483-1.322 1.756-1.832 1.273-.511 1.725-.957 1.005-.992-.72-.034-1.043-.493-.718-1.019.325-.526 1.364-.667 2.309-.313 1.479.554 1.534.417.395-.985-1.166-1.434-.928-1.68 2-2.069 5.486-.728 10.925-.732 12.094-.009.605.373 3.556.566 6.557.427 3.675-.171 5.736.181 6.314 1.076.705 1.092 1.023 1.073 1.782-.107.753-1.171 1.206-1.201 2.456-.164.843.7 1.975.999 2.516.664 1.239-.765 1.078 3.502-.195 5.186-.597.788-.592 1.25.013 1.25.527 0 1.029 1.8 1.115 4 .115 2.95-.235 4-1.336 4-1.809 0-1.989 1.668-.243 2.25.89.296 1.281 3.59 1.357 11.447.058 6.066.422 11.541.809 12.166.386.626.301 1.137-.19 1.137-1.047 0-.965 2.995.13 4.768.419.677.495 1.232.168 1.232-2.086 0 1.998 3.85 4.469 4.212 5.89.865 6.513-.539 6.453-14.531-.03-6.906.308-12.333.75-12.06.442.273.804.02.804-.562 0-.582-.42-1.059-.933-1.059-.513 0-.895-1.335-.849-2.966.046-1.631.466-2.729.933-2.441.467.289.849.048.849-.534 0-.582-.337-1.059-.75-1.059s-.833-3.016-.934-6.703c-.121-4.399.131-6.203.734-5.25.506.799.926.991.935.426.008-.566-.66-1.992-1.485-3.169-1.471-2.101-1.124-5.304.576-5.304.473 0 .585-.72.247-1.601-.338-.88.014-1.999.781-2.485 1.083-.685 1.102-.887.087-.899-.72-.008-1.03-.466-.69-1.017.76-1.229-3.946-3.148-5.891-2.402-.774.297-1.705.06-2.068-.528-.363-.587-1.421-1.061-2.351-1.053-1.457.014-1.484.15-.191.985 1.101.712.392.973-2.667.985-2.41.009-4.379-.512-4.671-1.235-.363-.901-.526-.917-.583-.059-.058.867-.825.801-2.829-.244-3.08-1.607-5.576-1.95-3.25-.447 1.138.736.716.973-1.75.985-2.133.01-3.25-.468-3.25-1.391 0-.918.7-1.224 2.015-.88 1.594.417 1.876.165 1.349-1.209-.553-1.44-.278-1.612 1.61-1.013 1.69.536 2.077.399 1.502-.531-.582-.941-.095-1.082 1.959-.567 1.789.449 2.511.327 2.09-.354-.368-.595.263-1.04 1.475-1.04 1.165 0 1.84.45 1.5 1-.34.55.11 1 1 1s1.34-.45 1-1c-.34-.55.309-1 1.441-1 1.132 0 2.059.45 2.059 1s.761 1 1.691 1c1.513 0 1.497-.142-.151-1.347-1.277-.934-1.489-1.566-.691-2.059.633-.392 1.151-.278 1.151.252 0 .542 1.694.736 3.87.445 2.129-.286 4.147-.072 4.486.475.349.566 3.103.795 6.379.53 6.817-.55 8.204-1.263 2.682-1.377-2.154-.045-5.042-.201-6.417-.347-13.62-1.446-14.847-1.424-22.722.403M115 197.356c0 3.341.472 4.82 1.75 5.488 2.903 1.516 17.75 3.025 35.783 3.636 9.368.317 18.368.959 20 1.426 4.886 1.399-38.077-.706-52.283-2.561l-4.25-.555v10.086c0 11.724-1.721 10.385 15.5 12.061 6.05.589 15.95 1.694 22 2.456 6.05.761 16.909 1.697 24.131 2.08l13.131.695-.837-4.334c-.461-2.384-.857-8.108-.881-12.721l-.044-8.387-6.487.521c-3.568.286-6.255.144-5.97-.317.833-1.348-15.533-5.251-29.069-6.933-4.83-.6-9.589-1.523-10.575-2.051-.986-.528-5.079-1.591-9.096-2.364-4.016-.772-8.54-1.718-10.053-2.101-2.701-.685-2.75-.616-2.75 3.875m169.105-.774c-1.318.686-3.23 1.086-4.25.89-1.02-.196-1.855.067-1.855.585 0 .519.498.943 1.107.943s.877.563.596 1.25c-1.882 4.604-1.91 4.824-.576 4.541.958-.203 1.373.768 1.373 3.209 0 1.925.283 3.95.628 4.5.345.55.624 3.925.62 7.5-.005 3.575.325 7.293.734 8.263.408.97.797 3.758.864 6.195.146 5.286 1.025 5.733 10.904 5.54 3.712-.073 6.75.286 6.75.796 0 .511 1.075.723 2.388.472s3.396.083 4.627.742c1.754.939 2.405.93 3.005-.04.893-1.445 6.026-.478 7.22 1.361.555.855 1.026.766 1.745-.329.773-1.177.988-.913 1 1.231.019 3.512-2.436 4.172-12.738 3.427-23.537-1.703-26.247-1.559-26.247 1.39 0 1.009-.527 2.16-1.171 2.558-2.088 1.29 2.837 2.338 14.253 3.032 6.044.367 11.156.938 11.361 1.27.588.95-.599 6.112-1.307 5.688-.35-.209-6.936-.672-14.636-1.03-7.7-.357-15.238-.892-16.75-1.187-2.705-.529-2.75-.456-2.75 4.458 0 3.061-.484 5.192-1.25 5.501-1 .403-1 .52 0 .583.775.049 1.25 1.576 1.25 4.02 0 4.703 1.007 5.484 6.691 5.19 2.37-.123 4.309.182 4.309.677 0 .495 1.688.889 3.75.877 11.792-.073 18.97 1.134 16.357 2.749-.609.376-1.107 1.192-1.107 1.812 0 1.786 5.818-4.258 9.381-9.746 13.275-20.446 17.199-52.545 8.68-71.008-2.948-6.389-7.072-11.253-5.595-6.598.706 2.223.568 2.329-2.105 1.621-4.326-1.146-9.006-1.568-18.254-1.648-4.997-.043-7.842-.413-7.029-.915 2.263-1.399.601-1.71-1.973-.37m65.365 3.636c-7.902.924-8.046.99-9.054 4.213-.907 2.897-.714 3.648 1.68 6.515 4.748 5.687 4.73 14.228-.04 18.998-1.895 1.895-1.938 2.358-.677 7.29l1.346 5.266 11.774.283 11.774.283-.646-7.283c-.356-4.006-.617-13.92-.579-22.033l.068-14.75-3.808.139c-2.094.077-7.421.562-11.838 1.079m-60.97 3.736c-5.899.537-5.999.596-5.928 3.546.096 4.023 2.552 29.93 2.868 30.262.138.144 2.682.462 5.655.708 2.973.246 10.805.908 17.405 1.472 6.6.565 12.337 1.033 12.75 1.042.413.009.75-1.504.75-3.363 0-2.802-.506-3.588-2.963-4.606-10.408-4.311-12.819-17.291-4.632-24.939 4.795-4.48 3.706-5.093-8.655-4.87-6.187.111-13.95.448-17.25.748m-70.818 8.296c-.304 1.238-1.504 5.4-2.669 9.25-3.633 12.013-3.936 13.601-2.673 13.983.638.193 5.547.623 10.91.954l9.75.603V210h-7.383c-6.827 0-7.425.17-7.935 2.25m-76.957 17.562c-1.602.311-1.739 1.435-1.395 11.468.209 6.118.783 11.257 1.275 11.42.492.163.756 5.71.586 12.326l-.309 12.031 3.809.083c16.61.362 23.713.147 24.005-.729.2-.598 3.452-.853 8.069-.631 4.254.203 9.535.1 11.735-.229l4-.599.386-8.226c.212-4.524.352-9.576.312-11.226-.04-1.65-.093-5.025-.117-7.5-.024-2.475-.535-6.863-1.134-9.752l-1.089-5.251-11.679.117c-6.424.064-14.379-.368-17.679-.961-9.092-1.634-18.789-2.726-20.775-2.341m71.68 16.544c.369 4.598 1.173 8.392 1.871 8.836.795.505.835.783.113.793-.645.009-.911 1.066-.634 2.515.263 1.375.862 2.5 1.33 2.5.469 0 .595.671.28 1.492-.326.85.114 1.755 1.026 2.104.878.338 1.395.942 1.147 1.343s.46 2.57 1.573 4.82c1.907 3.855 5.239 5.224 7.417 3.047.288-.289 2.108-.35 4.044-.137l3.521.388-.62-12.778c-.341-7.029-.655-13.454-.698-14.279-.043-.825-.572-1.831-1.176-2.235-.798-.533-.797-.739.002-.75.605-.008 1.055-1.253 1-2.765l-.101-2.75-10.372-.101-10.371-.101.648 8.058m-36.808-4.198c.49.793.037.98-1.44.593-1.185-.31-2.431-.116-2.769.43-.337.546-1.463.771-2.501.5-1.038-.272-1.887-.056-1.887.48s-.9.688-2 .339c-1.147-.364-2-.18-2 .433 0 .587-.702 1.067-1.559 1.067s-1.284.445-.948.989c.351.568-.054.733-.952.388-1.136-.435-1.394-.158-.945 1.012.34.886.12 1.611-.489 1.611S157 251.323 157 252.941c0 1.618-.445 3.216-.989 3.552-.608.376-.382 1.538.586 3.015.867 1.322 1.285 2.874.93 3.448-.355.574-.174 1.044.403 1.044 1.552 0 5.07 3.254 5.07 4.691 0 .685.563 1.109 1.25.942.688-.168.912-.116.5.114-.412.231-.75.887-.75 1.459 0 .688.447.668 1.324-.06 1.445-1.199 4.416-.891 7.545.784 2.595 1.389 3.426 1.356 2.526-.1-.486-.787-.178-.961.941-.531.915.351 1.664.231 1.664-.266s1.463-1.435 3.25-2.085c3.679-1.337 6.75-6.336 6.75-10.989 0-1.646.536-2.959 1.208-2.959 1.831 0-7.108-8.716-10.291-10.034-1.746-.724-2.581-1.677-2.243-2.559.297-.774.015-1.407-.626-1.407s-.844.521-.451 1.158M345.5 245c.34.55.141 1-.441 1s-1.059.623-1.059 1.383c0 1.758 5.246 2.835 6.215 1.276 1.348-2.171 5.141 2.788 4.397 5.75-.57 2.274-1.168 2.593-4.881 2.606-3.1.012-3.83.275-2.731.985 1.235.798 1.25.972.083.985-.779.008-1.079.352-.666.765.412.413 3.83.768 7.594.791l6.845.04.651-3.471c.358-1.91.953-3.038 1.322-2.507.369.53 1.796.988 3.171 1.017 1.375.029 3.361.428 4.414.886 1.361.593 1.705.496 1.191-.336-.398-.644-.277-1.17.269-1.17 1.687 0 2.333 3.832 2.55 15.127.2 10.376.115 10.875-1.857 10.923-1.137.028-5.667.285-10.067.572-6.976.455-10.337.745-14.531 1.253-1.174.142-1.041 7.074.166 8.685.436.582.697 2.371.579 3.975-.204 2.775 1.273 3.866 3.616 2.671 1.372-.7 19.671-.757 19.67-.062 0 .355 1.012.656 2.25.671 1.238.015 5.057.19 8.489.389 3.694.215 6.416-.058 6.674-.67.267-.635.797-.519 1.372.3.753 1.072 1.065.999 1.591-.371.904-2.356-.497-37.463-1.495-37.463-.443 0-.558-3.013-.255-6.696.501-6.081.403-6.573-1.061-5.358-.887.737-1.871 1.081-2.187.766-.315-.315.371-1.163 1.525-1.883 1.153-.721 2.097-1.707 2.097-2.192 0-.485-.675-.322-1.5.363-1.036.86-1.5.898-1.5.122 0-.617-.675-1.122-1.5-1.122s-1.5.396-1.5.88c0 .483-2.522.675-5.604.426-3.837-.31-5.396-.114-4.941.621.864 1.398-.738 1.39-2.14-.012-1.417-1.417-5.888-.727-5.565.859.35 1.715-1.416 1.538-2.087-.209-.303-.79-.013-1.627.643-1.861.657-.233-1.095-.436-3.892-.449-2.798-.013-6.51-.337-8.25-.719-2.075-.456-3.164-.311-3.164.42 0 .792-.56.815-1.934.079-2.441-1.306-3.359-1.319-2.566-.035m-62.5 4.771c0 2.04 7.314 3.636 20.5 4.475 3.847.244 4.012.397 4.31 4.004.3 3.622.441 3.75 4.115 3.75 3.558 0 3.909-.276 5.439-4.283.9-2.356 1.636-4.772 1.636-5.369 0-1.159-5.367-2.293-13.5-2.851-2.75-.188-8.937-.659-13.75-1.045-8.347-.67-8.75-.61-8.75 1.319m-161.658 9.977c-1.961 4.703-3.196 13.912-1.994 14.874.084.067 2.214.421 4.734.786l4.582.664-.339-3.286c-.252-2.432-.124-2.785.493-1.359.746 1.728.899 1.754 1.476.25.36-.938.162-1.677-.448-1.677-.677 0-.57-.64.282-1.687 1.193-1.467 1.157-1.607-.278-1.07-1.281.479-2.063-.523-3.5-4.485-2.18-6.013-3.44-6.77-5.008-3.01m-11.811 27.192c-.354 6.358-.731 13.585-.837 16.06l-.194 4.5 8 .626c4.4.344 11.501.972 15.78 1.396 7.324.726 7.925.634 10.274-1.573l2.495-2.344 2.198 2.197c1.672 1.672 1.833 2.198.675 2.198-.837 0-2.062-.54-2.722-1.2-.933-.933-1.2-.822-1.2.5 0 1.41 1.108 1.726 6.5 1.85 3.575.083 7.063.195 7.75.25.688.055 1.137-.463 1-1.15-.356-1.778 2.419-1.555 3.112.25.624 1.627 12.638 2.267 12.638.673 0-.455 1.463-.676 3.25-.492 2.645.272 2.877.16 1.25-.603-1.1-.516-1.63-.969-1.179-1.008 1.213-.103-1.984-3.07-3.309-3.07-.621 0-.871-.419-.555-.931.879-1.421-.766-2.039-6.956-2.612-3.761-.347-5.446-.177-5.021.51.351.568-.09 1.033-.98 1.033s-1.34-.45-1-1c.34-.55.127-1-.472-1-.6 0-1.35.675-1.666 1.5-.317.825-1.229 1.5-2.028 1.5-.799 0-1.174-.45-.834-1 .866-1.401-.118-1.249-3.617.56-1.659.859-3.775 1.38-4.7 1.16-4.09-.975 8.238-5.147 15.317-5.183 9.07-.048 11.202.626 15.837 5.001 2.11 1.992 4.087 3.371 4.394 3.065 1.767-1.768 8.979-26.167 7.931-26.833-.639-.407-4.663-.746-8.941-.755-8.897-.017-42.607-2.472-59.884-4.36l-11.663-1.275-.643 11.56m155.815-6.206c-4.62.326-5.229.644-5.885 3.065-1.882 6.959-.734 8.201 7.581 8.201 1.535 0 3.018.563 3.296 1.25.403 1 .52 1 .583 0 .057-.907 2.688-1.25 9.579-1.25h9.5v-2.917c0-1.604.563-3.118 1.25-3.364 2.292-.821-9.6-3.446-18-3.974-.687-.043-1.25-.453-1.25-.912 0-.458-.337-.75-.75-.648-.413.102-3.069.349-5.904.549M259 321.594c-4.675.677-12.887 1.27-18.25 1.319L231 323v7.731l28.25.649c15.538.357 31.85.743 36.25.859l8 .211v-3.82c0-5.476-.253-5.648-10.61-7.229-10.748-1.64-21.665-1.578-33.89.193" fill="#d3d3d3" fill-rule="evenodd"/></svg>