<svg xmlns="http://www.w3.org/2000/svg" width="500" height="664"><path d="M9.498 33.75c.283 13.063.563 23.975.624 24.25.624 2.851.382 20.918-.299 22.25-.584 1.145-.515 1.75.201 1.75.602 0 .863.374.581.831C9.552 84.534 9.116 103 10.128 103c.591 0 .709.928.285 2.25-.397 1.237-.646 39.15-.553 84.25.093 45.1.166 82.225.163 82.5-.45 34.993.556 205.852 1.217 206.706.512.664.644 1.673.291 2.244-.353.571-.579 8.803-.503 18.294.199 24.737.2 32.745.004 49.256-.058 4.95-.109 9.675-.112 10.5l-.046 11.5c-.023 5.5.003 10.675.057 11.5.054.825.062 11.85.017 24.5-.076 21.297-.316 28.896-1.327 41.976-.548 7.087-.202 7.524 5.961 7.524h5.368l-.562-3.25c-.896-5.186-1.215-5.75-3.25-5.75-3.247 0-3.877-8.661-3.528-48.5.178-20.35.339-114.078.357-208.284L14 218.931l5.25.679c2.888.373 11.775 2.828 19.75 5.455 30.529 10.056 59.675 20.117 63.876 22.05 7.491 3.447 27.354 10.602 38.227 13.77 5.771 1.682 24.858 9.456 42.897 17.473 17.875 7.944 34.975 15.233 38 16.198 3.025.966 14.889 5.078 26.363 9.139 33.231 11.759 73.032 20.897 99.137 22.76 24.427 1.743 34.137 3.725 63.5 12.96 8.045 2.531 17.779 4.52 32.401 6.621 11.496 1.653 24.996 3.669 30 4.48 5.005.812 10.561 1.478 12.349 1.48L489 352V11h-24.808l-.609 10.75c-1.178 20.779-2.754 38.795-3.782 43.25-.572 2.475-1.174 8.325-1.338 13-.165 4.675-.556 10.525-.871 13-.314 2.475-.863 10.125-1.219 17-.355 6.875-.776 13.175-.933 14-.158.825-.321 2.963-.363 4.75-.053 2.244-.559 3.25-1.636 3.25-.857 0-1.276.457-.931 1.016.346.559 1.047.758 1.559.441.512-.316.931.127.931.984 0 1.076-.958 1.559-3.094 1.559-2.226 0-3.236.547-3.604 1.951-.588 2.251-5.756 2.201-53.532-.522-19.066-1.086-39.011-1.339-77-.976-59.647.569-147.813-1.71-195.77-5.061-4.675-.327-29.65-.942-55.5-1.368-25.85-.426-48.33-1.196-49.955-1.709l-2.955-.935-.045-54.481c-.041-49.613.107-54.714 1.653-57.076 1.688-2.579 1.681-2.597-1.375-3.208-1.69-.338-3.47-.615-3.956-.615-.5 0-.66 10.296-.369 23.75m327.534 418.01c.347 5.272.143 5.501-2.936 3.308-3.149-2.242-5.096-2.65-5.096-1.068 0 .55-.675 1-1.5 1s-1.5-.45-1.5-1-.41-1-.912-1c-.501 0-.784.788-.63 1.75.183 1.136 1.039 1.665 2.438 1.507 1.688-.19 2.291.426 2.772 2.835.707 3.534 4.189 5.537 5.89 3.388 2.067-2.612 3.289.177 5.023 11.469 1.361 8.869 1.48 11.531.526 11.849-.92.306-.857.823.252 2.056.82.911 1.785 4.77 2.163 8.646l.682 7-2.998.202c-2.23.15-3.129-.298-3.507-1.745-1.046-4.001-4.879-3.804-5.084.261-.091 1.814-.782 2.346-3.365 2.595-3.768.364-3.705.519-1.727-4.213 1.337-3.201 1.343-3.714.048-4.211-1.693-.65-3.571.26-3.571 1.729 0 .55.45.722 1 .382.55-.34 1-.141 1 .441s-.445 1.059-.988 1.059c-.544 0-.881 1.012-.75 2.25.144 1.359-.257 2.151-1.012 2-.687-.138-1.25.387-1.25 1.167 0 .779.563 1.643 1.25 1.921.747.301.545.536-.5.583-.962.043-1.75.588-1.75 1.211 0 .743 1.374.947 4 .595 3.338-.448 4-.249 4 1.201 0 .956.655 1.739 1.456 1.739.801 0 1.227-.37.948-.822-.279-.452.264-.526 1.208-.164 1.036.398 1.47.26 1.094-.348-.372-.601.569-.936 2.336-.831 1.627.097 2.965-.314 2.973-.913.009-.599.452-.414.985.411.533.825.983 1.05 1 .5.017-.55.467-.325 1 .5.806 1.247.983 1.163 1.048-.5.183-4.65 1.816 2.425 1.996 8.648.271 9.343.562 8.861-5.294 8.778-5.237-.074-15.596-1.55-12.75-1.816 1.333-.125 1.333-.248 0-1.11-1.958-1.266-3.282-1.266-2.5 0 .34.55-.084 1-.941 1s-1.506-.337-1.441-.75c.327-2.065-.338-2.832-2.618-3.021-1.618-.134-2.5.308-2.5 1.251 0 .902-.587 1.232-1.541.866-1.698-.652-1.666 1.635.041 2.889.565.415.238.741-.75.75-.962.008-1.75-.435-1.75-.985s-.477-1-1.059-1-.781.45-.441 1c.365.591-.736.994-2.691.985-2.173-.01-2.854-.304-1.985-.855 1.072-.68 1.019-1.144-.279-2.442-2.176-2.177-4.862-1.148-3.525 1.35.809 1.512.629 1.811-1.018 1.687-1.101-.083-2.009-.617-2.017-1.188-.009-.57-.452-.362-.985.463-.533.825-.976 1.107-.985.628-.008-.48-.642-.352-1.409.284-1.074.891-1.747.805-2.929-.377-1.947-1.948-2.677-1.941-2.677.024 0 1.004-.445 1.276-1.25.765-1.658-1.052-2.819-1.095-5.397-.199-1.181.411-2.451.443-2.823.072-.372-.372-3.518-.53-6.991-.351-6.502.334-8.084-.371-6.488-2.894.598-.946.924-1.027.934-.233.008.67.69.959 1.515.643.825-.317 1.5-1.191 1.5-1.943s1.392-2.087 3.093-2.967c1.701-.88 2.847-1.845 2.548-2.145-.991-.99 2.173-3.307 4.538-3.322 1.447-.01 1.87-.302 1.124-.777-.72-.457-.864-1.3-.362-2.113.935-1.513 3.059-.645 3.059 1.251 0 .676.888 1.295 1.973 1.377 1.085.082 2.998 1.114 4.25 2.295 3.117 2.937 5.777 4.326 5.777 3.017 0-.569-.505-1.035-1.122-1.035-.761 0-.71-.498.16-1.546.705-.85 1.913-1.303 2.684-1.007.899.345 1.341-.086 1.234-1.205-.304-3.185 1.205-6.576 2.261-5.077.652.927.805.493.5-1.415-.39-2.441-.13-2.75 2.315-2.75 1.652 0 3.011.669 3.396 1.673.567 1.477.818 1.42 2.157-.491 1.429-2.04 1.654-2.072 3.965-.557 1.509.988 2.45 1.177 2.45.49 0-.613.702-1.115 1.559-1.115s1.298-.422.979-.939c-.319-.516.084-1.31.896-1.764 2.644-1.48.161-3.889-2.676-2.596-1.54.701-2.984.752-4.072.143-1.262-.706-1.686-.554-1.686.606 0 1.736.102 1.701-5.751 2.001-2.338.12-4.502.468-4.808.775-.899.899-4.473-.366-3.855-1.364.309-.502.192-.827-.262-.723-.453.104-1.992-.141-3.42-.545-3.064-.866-10.127 3.406-14.351 8.681a928.17 928.17 0 0 1-3.568 4.433c-.542.664-.985 1.703-.985 2.309 0 .605-.409.848-.91.539-1.205-.745-4.211.44-3.605 1.421.97 1.568-5.725 6.069-7.202 4.843-1.119-.929-1.134-1.301-.08-1.982 1.045-.675 1.017-1.018-.143-1.764-1.75-1.126-2.503-5.682-1.084-6.559.572-.354 1.024.275 1.024 1.426 0 2.373.024 2.38 3.435 1.084 2.802-1.065 3.641-5.025 1.065-5.025-.825 0-1.5-.502-1.5-1.117 0-.641.892-.883 2.096-.568 2.546.666 5.104-.183 4.329-1.436-.31-.501-.939-.679-1.399-.395-.46.284-.766-2.642-.681-6.503.133-6.011-.034-6.765-1.161-5.25-.744 1-1.178 3.56-1 5.891.377 4.919-1.758 7.923-2.769 3.896-.347-1.385-.991-2.518-1.43-2.518-.439 0-.581.831-.315 1.846.384 1.469-.109 1.862-2.421 1.928-2.395.068-2.872-.3-2.719-2.096.141-1.661.753-2.118 2.577-1.925 1.683.178 1.99-.007 1.036-.625-.946-.612-1.022-1.085-.25-1.562 1.829-1.13 1.251-2.566-1.033-2.566-1.177 0-2.688.75-3.357 1.666-1.06 1.448-1.307 1.194-1.897-1.955-.526-2.8-1.048-3.479-2.307-2.996-1.103.424-1.389.24-.888-.572.407-.658 1.268-1.09 1.914-.96 2.361.475 5.509-2.101 4.991-4.083-.287-1.096.457-3.227 1.725-4.941 1.225-1.658 1.97-3.689 1.653-4.514-.316-.824.021-1.993.749-2.597.99-.823 1.471-.715 1.909.426.921 2.401 2.883 1.843 2.108-.599-.418-1.317-.293-1.89.328-1.506 1.388.858 2.092-1.454 1.179-3.869l-.757-2-.855 2c-.923 2.158-.972 2.169-15.855 3.495-5.5.49-11.969 1.592-14.376 2.448-2.406.856-6.006 1.568-8 1.581-1.993.014-5.531.465-7.863 1.003-3.431.792-5.336.602-10-.993-3.168-1.084-6.661-1.824-7.761-1.644-1.1.18-2.372-.172-2.826-.782-.592-.794-.97-.754-1.333.142-.279.688-1.145 1.25-1.924 1.25-1.914 0-1.8 1.639.166 2.394.871.334 1.382 1.169 1.135 1.857-.246.687-.043 2.037.452 2.999 1.049 2.039.856 2.091-2.719.731-2.281-.867-2.588-.781-2.065.582.338.88.614 2.069.614 2.641 0 .644.555.58 1.456-.168.801-.664 1.926-.918 2.5-.563.574.355 1.044.168 1.044-.414s.675-1.059 1.5-1.059c2.187 0 1.835 1.759-.5 2.5-1.1.349-2.048 1.167-2.106 1.817a227.18 227.18 0 0 0-.25 3.165c-.182 2.507-2.921 3.098-4.951 1.068-.853-.853-2.231-1.55-3.063-1.55-2.134 0-3.012-1.835-1.658-3.467 1.409-1.697-2.541-2.629-5.036-1.187-1.128.651-2.353.172-4.396-1.722-1.558-1.443-3.216-2.624-3.686-2.624-.47 0-.854-.948-.854-2.107 0-1.397.473-1.926 1.402-1.569 2.528.97 2.627-.596.12-1.897-2.077-1.078-3.456-.942-9.11.896l-6.661 2.166.716 13.005c.701 12.723 2.157 24.517 2.408 19.499.117-2.346 7.125-10.177 7.125-7.962 0 .533.675.969 1.5.969s1.5-.466 1.5-1.035c0-.699.658-.683 2.021.046 1.111.595 2.461.809 3 .476.538-.333.979-.128.979.454 0 .582.9 1.059 2 1.059s2 .445 2 .989c0 1.669 3.297 4.945 4.333 4.305.537-.332.687-.135.333.438-.354.572.297 1.286 1.446 1.587 1.149.301 1.792 1.027 1.43 1.614-.363.587-.135 1.067.506 1.067s.907.675.59 1.5c-.734 1.914.29 4.662 1.467 3.935.492-.304.895.374.895 1.506 0 2.118-2.398 2.842-3.502 1.056-.411-.665-1.278-.65-2.579.047-2.323 1.243-4.881.18-2.776-1.154.997-.632.776-.863-.834-.875-2.775-.019-3.91 1.669-1.571 2.337.969.277-3.076.405-8.988.286l-10.75-.217.079 3.539c.043 1.947.306 2.978.583 2.29.612-1.516 4.338-1.68 4.338-.191 0 .599.544.718 1.25.275 2.233-1.4 6.043-1.477 6.892-.139.539.851.833.904.843.152.017-1.34 21.692-1.372 23.765-.035.688.443 1.25.421 1.25-.05s2.362-.835 5.25-.809c4.431.04 5.204.32 4.956 1.797-.161.962.176 1.75.75 1.75.574 0 1.044-.623 1.044-1.383 0-2.478 4.022-2.71 4.998-.289.571 1.417.897 1.627.939.604.039-.98 1.095-1.64 2.813-1.758 1.512-.105 4.716-.464 7.119-.798 3.121-.435 4.643-.218 5.326.758.742 1.059 1.071 1.085 1.464.116.752-1.851 5.419-1.515 6.949.5 1.255 1.653 1.33 1.646 1.36-.122.026-1.493.317-1.637 1.435-.709.984.817 1.51.841 1.765.078.199-.597 1.255-1.062 2.347-1.033 1.092.029 4.01-.006 6.485-.077 5.901-.171 27.45-.181 32.309-.016 2.507.085 3.575.508 3.125 1.236-.469.759.063.88 1.691.385 4.061-1.235 4.383-1.077 4.096 2.008-.192 2.066.004 2.576.629 1.637.767-1.151 1.006-1.151 1.535 0 .345.75.388.116.096-1.409-.625-3.267 1.285-4.459 4.441-2.77 1.325.71 2.078.748 2.078.105 0-.605 1.893-.805 4.75-.5 7.665.817 8.364 1.005 9.315 2.507.727 1.15.907 1.063.92-.442.012-1.551.273-1.659 1.515-.628.825.685 1.507.852 1.515.372.009-.479.493-.197 1.076.628.799 1.129 1.187 1.191 1.568.25.714-1.758 3.341-1.562 3.341.25 0 .825.436 1.5.969 1.5.532 0 .709-.675.393-1.5-.317-.825-.078-1.5.531-1.5s1.107.505 1.107 1.122c0 .798.415.778 1.436-.069 1.074-.892 1.963-.91 3.528-.072 2.24 1.199 1.889 3.019-.582 3.019-.825 0-1.222-.45-.882-1 .34-.55.141-1-.441-1s-1.059.477-1.059 1.059-.45.781-1 .441-1-.115-1 .5-.342.906-.761.648c-.419-.259-1.575.124-2.569.851-1.721 1.259-1.708 1.354.276 1.984 1.151.365 1.784 1.145 1.414 1.744-.4.647-.202.793.493.364.638-.395 1.403-.086 1.7.685.302.788 2.049 1.46 3.981 1.533 3.812.143 4.148-.483 4.724-8.809l.312-4.5 20.965.017c11.531.01 38.515.434 59.965.944 35.788.851 44.047.943 57.763.643l4.763-.104-.263-34.714-.263-34.713-7.5-1.746c-10.105-2.351-14.721-2.236-26.5.661-15.145 3.725-21.78 2.873-42.5-5.457-4.619-1.857-8.544-2.35-24.5-3.077-15.825-.721-31.413-2.49-47.824-5.428-2.565-.459-2.808-.254-2.644 2.234m-96.617 42.334c-.925 1.022-2.055 1.628-2.511 1.347-.455-.282-2.7 1.304-4.987 3.523-2.287 2.22-4.554 4.036-5.038 4.036a.88.88 0 0 0-.879.875c0 .481 1.139.875 2.532.875 2.563 0 4.996-2.825 3.683-4.278-.393-.435.018-.529.913-.209.896.319 2.133.076 2.75-.541.829-.829 1.122-.678 1.122.578 0 .935.675 1.7 1.5 1.7s1.5-.45 1.5-1 .9-1 2-1c1.333 0 2-.667 2-2 0-1.1.436-2 .969-2 .532 0 .709.675.393 1.5-.317.825-.168 1.5.331 1.5 1.629 0 3.307-2.352 3.307-4.637 0-2.964-6.969-3.16-9.585-.269" fill="#d3d3d3" fill-rule="evenodd"/></svg>