<svg xmlns="http://www.w3.org/2000/svg" width="500" height="481"><path d="M261.622 100.654c-3.785 2.476-3.864 2.649-3.288 7.192.583 4.596 5.149 16.808 7.974 21.327.8 1.28 1.741 3.565 2.092 5.077 1.264 5.449 2.421 2.554 3.129-7.83.834-12.24.258-17.854-2.466-24.011-2.255-5.098-2.31-5.111-7.441-1.755m-60.11 7.596c.368 1.787 1.754 5.667 3.079 8.621 1.325 2.954 2.434 5.879 2.465 6.5.089 1.812 11.005 9.968 12.004 8.969 1.457-1.457-1.188-8.51-4.811-12.827-2.35-2.799-3.184-4.636-2.8-6.165.429-1.709-.358-2.843-3.648-5.263-5.566-4.093-7.159-4.051-6.289.165m115.082 9.096c-2.81 2.651-3.63 4.079-3.091 5.381.404.975.966 5.046 1.249 9.046.283 4 .908 7.517 1.389 7.814 2.616 1.617 6.719-16.969 5.07-22.968l-.791-2.881-3.826 3.608m-161.013 13.597c.364 1.894 1.287 4.068 2.05 4.831.763.763 1.169 1.741.902 2.173-.267.432.474 1.633 1.648 2.669 2.303 2.034 2.376 1.119.31-3.907-1.813-4.41 2.088-.721 5.067 4.791 3.058 5.659 7.744 10.531 8.96 9.316.303-.303-1.257-3.648-3.466-7.433-2.209-3.786-4.025-6.294-4.034-5.574-.01.72-.468 1.031-1.018.691-.55-.34-1-1.068-1-1.618s.45-.722 1-.382c1.494.923 1.149-.728-.626-3-1.441-1.844-1.649-1.869-2.671-.317-.986 1.497-1.474 1.278-4.446-2l-3.339-3.683.663 3.443m-7.306 43.272l-4.226.893 1.912 5.031c1.051 2.767 1.667 5.667 1.368 6.446-.337.878.102 1.415 1.158 1.415.935 0 1.937.907 2.227 2.016.293 1.118 1.222 1.898 2.088 1.75 1.388-.237 3.164 1.808 6.831 7.863 2.693 4.449 2.406-.195-.394-6.366-1.687-3.72-3.628-9.463-4.312-12.763-1.536-7.413-1.496-7.375-6.652-6.285M368.5 220.536c-1.65.756-4.8 1.397-7 1.424-2.2.028-5.575.455-7.5.949a261.854 261.854 0 0 1-6.25 1.513c-4.066.911-3.337 2.578 1.127 2.578 5.862 0 18.208 3.058 18.824 4.662.462 1.206.849 1.209 2.67.021 1.171-.764 4.444-1.61 7.273-1.879 5.44-.518 15.211-5.378 13.706-6.817-.795-.759-16.906-4.084-18.928-3.906-.507.045-2.272.7-3.922 1.455M340 248.764c0 .591 2.163 3.474 4.807 6.405 2.644 2.932 5.854 6.834 7.133 8.672 1.279 1.838 4.528 4.696 7.22 6.353 2.692 1.656 5.569 4.315 6.393 5.909 1.883 3.641 1.452 3.619-5.344-.27-4.615-2.64-6.589-3.166-11.872-3.166-7.012 0-9.119.863-4.705 1.927 1.577.38 5.568 2.09 8.868 3.799 5.597 2.898 6.688 3.104 16.249 3.058 13.528-.065 14.52-1.178 5.204-5.838-3.972-1.987-7.724-3.615-8.337-3.617-.614-.002-1.963-2.139-2.999-4.75-3.068-7.731-4.305-9.064-11.883-12.81-3.974-1.963-8.014-4.285-8.979-5.158-.965-.873-1.755-1.104-1.755-.514M133 261c-1.09.704-1.142.974-.191.985.72.008 1.044.444.719.969-.955 1.546.57 6.046 2.049 6.046.798 0 1.122.62.785 1.5-.671 1.747 4.091 2.194 5.148.484.346-.559 1.016-.777 1.49-.484.474.293 1.164.044 1.534-.554.412-.668 2.135-.84 4.466-.446 2.144.362 4.059.214 4.402-.341.338-.547-1.167-1.281-3.398-1.658-2.202-.372-4.004-1.051-4.004-1.509 0-.458-1.313-1.121-2.918-1.474-1.605-.352-3.923-1.513-5.153-2.579-2.548-2.21-2.868-2.271-4.929-.939m72.801 27.661c.532 1.011 1.267 3.653 1.634 5.87.462 2.793 1.866 5.252 4.567 8 2.508 2.552 3.917 4.923 3.949 6.641.051 2.789 7.781 18.828 9.074 18.828.408 0 .977.9 1.265 2 .514 1.967 2.71 2.859 2.71 1.1 0-.494-1.529-3.171-3.397-5.948-3.331-4.948-5.861-10.845-7.074-16.487-.335-1.56-1.604-3.811-2.819-5.003-4.868-4.774-6.155-6.985-6.671-11.462-.401-3.484-1.007-4.767-2.372-5.028-1.495-.286-1.655-.012-.866 1.489m143.769 1.764c.461 1.836.231 2.369-.952 2.195-2.44-.358-3.204-1.637-1.589-2.659 1.287-.814 1.284-.931-.029-.932-6.026-.007-8.074 3.36-2.75 4.52 1.788.389 5.389 1.823 8.002 3.185 5.524 2.88 7.239 2.56 8.051-1.499 1.176-5.878.061-7.235-5.939-7.235-5.218 0-5.381.083-4.794 2.425M152.085 301.5c-.098 1.698-.279 1.773-1.195.5-.91-1.266-.991-1.227-.516.25.407 1.265.017 1.75-1.405 1.75-1.083 0-1.969.45-1.969 1s.45 1 1 1 1 .477 1 1.059-.45.781-1 .441-1-.179-1 .358c0 .536.352 1.125.782 1.309.43.183.342 2.808-.196 5.833-.599 3.369-1.122 4.628-1.351 3.25-.208-1.247-1.123-2.285-2.055-2.329-1.04-.049-1.204-.271-.43-.583.688-.278 1.25-.944 1.25-1.48 0-.537-.45-.698-1-.358-.55.34-1-.159-1-1.108 0-.949-.247-1.478-.55-1.175-.302.302-.22 2.965.183 5.916.606 4.438.857 4.934 1.45 2.867.699-2.435.72-2.44.817-.205.117 2.687 3.802 2.409 12.387-.932 2.633-1.025 5.895-1.863 7.25-1.863 1.355 0 2.463-.45 2.463-1s-1.295-1-2.878-1c-1.583 0-4.473-.667-6.423-1.481-2.743-1.147-3.668-1.203-4.089-.25-.3.677-.312-.344-.027-2.269.285-1.925.09-5.3-.432-7.5-.523-2.2-1.002-3.1-1.066-2m50.481 42.75c.694 2.232.683 2.235-1.439.339-2.724-2.432-3.829-1.429-1.729 1.569 1.917 2.737 2.074 5.485.352 6.18-.705.284-.437.539.617.583 1.384.059 1.726.616 1.323 2.158-.378 1.444-.145 1.926.762 1.578.718-.276 2.822-.169 4.677.238 1.854.406 4.496.416 5.871.021 1.394-.399 1.77-.761.85-.816-1.194-.072-1.65-1.05-1.65-3.534 0-4.197-.934-5.882-2.853-5.146-.81.311-1.181.121-.84-.431.336-.544-.087-.989-.94-.989-.852 0-2.112-.9-2.799-2-1.684-2.696-3.07-2.539-2.202.25m74.953 11.305c-5.164 3.571-9.854 4.406-13.57 2.417-4.308-2.305-10.881-2.811-13.223-1.018-1.224.938-3.033 2-4.019 2.361-1.545.564-1.619.969-.538 2.92.691 1.246 1.137 2.674.991 3.173-.417 1.427 2.04 2.56 5.59 2.577 2.063.009 3.25-.476 3.25-1.33 0-3.141 3.794-4.791 13.002-5.655 9.148-.858 11.998-.595 11.998 1.107 0 .491 1.125.893 2.5.893 2.908 0 3.257-1.691.75-3.64-1.66-1.29-1.654-1.434.125-2.812 1.998-1.547 1.596-4.587-.594-4.493-.704.03-3.523 1.605-6.262 3.5" fill="#d3d3d3" fill-rule="evenodd"/></svg>