<svg xmlns="http://www.w3.org/2000/svg" width="500" height="281"><path d="M.09 12.25c.066 8.997.329 11.428.989 9.153l.899-3.098 10.667-.652c13.792-.844 68.497-.844 84.198.001 11.702.629 12.157.737 12.157 2.877 0 2.646-1.643 4.195-5.025 4.738C98.696 26.116 93 29.178 93 31.168c0 1.072.391 1.708.869 1.413 1.261-.779 8.008 6.081 8.703 8.849.507 2.02-1.612 16.531-3.186 21.82-.603 2.026 1.193 2.328 2.978.5 1.727-1.769 3.196-5.848 6.034-16.75 1.361-5.225 3.22-12.2 4.132-15.5.912-3.3 2.463-9.299 3.446-13.332.983-4.033 2.241-7.785 2.794-8.338.675-.675 9.684-.322 27.368 1.072 14.499 1.144 32.437 2.553 39.862 3.132 20.239 1.579 23.422 3.215 16.911 8.695-2.744 2.309-3.024 3.028-2.5 6.435.324 2.11.868 5.705 1.209 7.99l.619 4.154-11.869-.666c-6.529-.366-15.53-.943-20.003-1.282l-8.133-.616-.4 4.203c-.473 4.953.51 5.942 3.379 3.401 2.064-1.828 2.079-1.819 1.428.863-.455 1.868-.036 3.733 1.345 6 1.394 2.287 1.827 4.242 1.421 6.418-.366 1.961.018 4.292 1.03 6.25 1.34 2.59 1.374 3.121.204 3.121-.776 0-2.2 1.204-3.164 2.676-.965 1.472-2.929 3.795-4.365 5.162-1.437 1.368-1.914 2.237-1.06 1.932.894-.32 2.551.483 3.909 1.893 2.19 2.276 2.24 2.565.705 4.1-1.29 1.29-1.916 1.387-2.859.444-.664-.664-1.657-1.207-2.207-1.207-.556 0-.467.533.2 1.2 1.693 1.693 1.491 3.126-.34 2.423-.903-.347-1.475-.081-1.382.643.399 3.098-.205 5.718-1.649 7.163-.982.981-1.13 1.571-.395 1.571.648 0 2.514 1.125 4.148 2.5s3.499 2.515 4.145 2.533c.645.019 2.247.928 3.559 2.021 2.306 1.92 2.326 2.054.595 3.967-.985 1.088-1.341 1.979-.791 1.979 2.237 0 4.644-3.892 3.362-5.437-1.37-1.651-.627-3.563 1.385-3.563 1.94 0 3.214 2.034 3.843 6.135.528 3.445.355 3.726-3.307 5.377-2.125.958-4.866 2.81-6.092 4.115-2.617 2.785-4.134 2.977-5.976.758-1.395-1.68-.774-2.484 4.726-6.121 1.663-1.099 1.565-1.17-.881-.641-2.415.521-2.75.294-2.75-1.863 0-1.955-.853-2.792-4.177-4.098-5.363-2.106-6.236-1.342-1.181 1.033 5.399 2.537 5.842 5.936.896 6.864-3.424.642-6.538 3.535-6.538 6.074 0 .653 1.793 3.456 3.984 6.228 2.202 2.785 3.544 5.313 3 5.649-1.828 1.13-1 5.78 1.648 9.251l2.631 3.451 8.119-.288c11.828-.419 14.618-.138 14.618 1.475 0 .939 1.481 1.517 4.5 1.758 2.475.196 4.5.129 4.501-.15 0-.279.441-5.232.98-11.007 1.783-19.124 6.96-81.339 7.571-91 .331-5.225.874-10.175 1.206-11 .333-.825.636-2.625.673-4 .053-1.931.524-2.422 2.069-2.157 1.1.188 2.441.413 2.98.5.54.086 1.383-2.093 1.874-4.843.491-2.75 1.311-6.711 1.822-8.801l.929-3.802 6.697.115c3.684.063 7.925-.146 9.425-.464 2.823-.599 3.06-.246 3.998 5.952.29 1.917 1.111 2.004 19.789 2.105 10.717.058 22.411.416 25.986.796 3.575.381 8.91.868 11.855 1.084 6.399.469 6.17.284 6.878 5.562l.565 4.212-10.899-.649c-5.994-.357-15.103-.922-20.241-1.255l-9.341-.607.636 35.376c.35 19.457.788 38.189.973 41.626.185 3.438-.06 6.25-.545 6.25-.485 0-.881 6.3-.881 14v14l5.25.061c20.194.236 36.643 1.174 42.143 2.404 1.776.397 1.855-.084 1.267-7.771-1.063-13.898-2.833-56.854-2.362-57.325.244-.245.974 5.534 1.62 12.843 2.305 26.064 7.131 71.364 8.074 75.788.528 2.475.92 7.499.872 11.165-.048 3.665.219 7.16.593 7.766 1.101 1.781 2.752.043 2.176-2.29-.738-2.99-3.452-30.199-4.153-41.641-.32-5.225-1.445-19.4-2.5-31.5-3.623-41.561-5.906-71.006-5.859-75.576.061-6.128 1.416-8.207 2.294-3.523 1.42 7.569 2.585 3.296 2.585-9.483V5.836l64.75.544c35.613.298 66.325.751 68.25 1.004 1.925.254 3.95.517 4.5.584.55.067-.35.74-2 1.496-1.65.755-2.55 1.453-2 1.551.55.097-1.25.755-4 1.462l-5 1.285 4.698.119c3.557.09 5.374.744 7.476 2.693 1.527 1.415 2.929 2.118 3.114 1.562.185-.556 1.137-.252 2.116.677.978.928 1.551 2.101 1.273 2.607-.278.506.267.624 1.211.261 1.019-.391 1.468-.257 1.105.33-.336.544.075.989.913.989.838 0 2.021.929 2.629 2.065.841 1.572 1.421 1.802 2.433.962 1.845-1.532 4.715 6.307 20.587 56.243 7.208 22.676 13.484 42.355 13.946 43.73.481 1.428.875-17.414.92-43.952L500 35.595l-3.063-8.776c-1.898-5.437-2.882-9.927-2.588-11.798.3-1.898.044-3.027-.686-3.036-.803-.011-.831-.243-.09-.75.59-.404 1.394-1.602 1.787-2.663 1.414-3.818 4.079.805 4.733 8.212.505 5.726.616 4.984.75-5.034L501 0H69.821l-1.825 2.25c-1.003 1.238-2.167 1.908-2.587 1.49-.42-.419.104-1.417 1.164-2.219C68.273.235 64.473.06 34.25.032L0 0l.09 12.25M13 23c0 .55-.643 1-1.429 1-.785 0-2.135.707-3 1.571-.864.865-1.571 1.26-1.571.878s-.675-.134-1.5.551c-.888.737-1.5.825-1.5.216 0-.566-.787-.822-1.75-.569C.106 27.209-.644 33 1.427 33c1.771 0 2.538 5.542 1.359 9.813-1.329 4.814-.107 5.223 1.765.591 3.317-8.207 6.952-14.734 7.275-13.064.179.927.738 1.429 1.242 1.118.505-.312 2.608-.734 4.675-.937 2.066-.204 4.882-.61 6.257-.901 1.375-.292 4.2-.798 6.278-1.126 2.242-.353 3.517-1.016 3.137-1.632-.352-.57-1.468-.82-2.48-.555-1.011.264-1.979.061-2.15-.451-.171-.513-3.455-1.59-7.297-2.394C13.19 21.726 13 21.715 13 23m367 13.173c-3.309 1.386-12.062 1.821-14.189.707-1.034-.542-1.93-.496-2.309.117-.341.552-2.753 1.003-5.361 1.003-2.608 0-5.281.54-5.941 1.2-1.447 1.447-1.613 4.173-.2 3.3.583-.361 1 .656 1 2.441 0 1.682.48 3.059 1.067 3.059.634 0 .793.864.393 2.125-.408 1.286-.288 1.887.303 1.522.582-.36 1.023 1.468 1.092 4.527.064 2.821.311 5.325.549 5.563.678.678-1.5 6.263-2.443 6.263-.464 0-1.207-1.841-1.652-4.09-1.008-5.099-2.925-4.771-2.482.424.235 2.759-.161 4.189-1.413 5.105-1.651 1.208-1.649 1.946.049 14.666 1.876 14.048 2.745 15.96 6.893 15.167 2.714-.518 4.004 4.659 8.727 35.01.666 4.28 1.57 8.003 2.008 8.274.439.272 5.773.507 11.854.524 8.96.024 11.055.303 11.055 1.475 0 1.583 4.608 2.06 5.167.535.183-.501 11.538-1.168 25.233-1.483 13.694-.315 25.079-.753 25.299-.972.219-.22-.308-3.447-1.171-7.172-1.666-7.181-2.215-15.543-1.135-17.29.357-.577-.148-1.5-1.122-2.049-1.449-.818-1.536-1.237-.479-2.303 1.651-1.668 2.841.049 3.746 5.403 1.114 6.593 2.763 5.679 1.977-1.095-.609-5.245-.481-6.129.887-6.129 1.827 0 1.951-1.08.689-6a260.69 260.69 0 0 1-1.513-6.25c-.341-1.52-1.294-2.75-2.132-2.75-.834 0-2.571-.691-3.86-1.536-2.108-1.381-2.404-1.381-2.934 0-.827 2.156-2.652 1.917-2.652-.347 0-1.083.909-2.121 2.137-2.442 1.776-.465 2.034-1.068 1.532-3.578-.332-1.661-.163-3.291.374-3.624.594-.367.384-1.452-.532-2.761-.831-1.186-1.511-3.61-1.511-5.385s-.589-3.587-1.309-4.027c-1.623-.992-4.187-7.137-3.334-7.99.344-.344.207-1.13-.304-1.746-.511-.616-1.18-3.357-1.485-6.092-.306-2.735-.835-6.204-1.176-7.71-.453-1.996-.184-2.905.994-3.357.888-.34 1.614-1.521 1.614-2.623 0-1.884-.118-1.862-1.967.357-1.162 1.396-1.98 1.813-2 1.021-.039-1.579-3.987-5.079-5.783-5.127-.687-.018-1.25-1.158-1.25-2.533 0-2.546-4.107-3.754-5.438-1.6-.306.495-2.133.9-4.059.9-1.927 0-3.503-.405-3.503-.9s-.675-.9-1.5-.9-1.387.563-1.25 1.25c.394 1.968-11.693 2.19-16.413.301-4.446-1.779-5.394-1.819-8.837-.378M37.724 51.598C36.27 57.044 34.143 65.775 32.997 71c-1.146 5.225-3.639 14.388-5.54 20.361-3.442 10.815-4.226 14.4-2.581 11.805.681-1.074.964-1.025 1.453.25.335.871.214 1.584-.267 1.584s-.641.896-.354 1.99c.371 1.42-.119 2.226-1.711 2.816-1.79.662-3.023 3.287-6.226 13.26-4.88 15.191-5.349 17.001-3.873 14.934.589-.825 1.079-1.05 1.088-.5.01.55 2.074 2.3 4.588 3.888 4.216 2.663 5.081 2.84 11.131 2.275 6.364-.594 6.509-.557 4.864 1.26-1.616 1.787-1.574 1.866.913 1.725 2.24-.127 2.529-.5 2.047-2.648-.537-2.399-.499-2.422.956-.559.833 1.068 1.515 2.305 1.515 2.75 0 .445.675.809 1.5.809s1.507-.562 1.515-1.25c.01-.774.295-.869.75-.25.404.55 1.969 1.091 3.477 1.202 2.697.199 2.715.162 1.114-2.281-2.052-3.133-1.18-4.112 1.802-2.023 1.323.927 4.301 1.602 7.065 1.602 4.868 0 5.715.662 3.577 2.8-.933.933.384 1.2 5.929 1.2h7.129l1.473-5.25c5.884-20.974 14.958-61.154 13.892-61.509-.876-.292-.798-.809.286-1.893.82-.82 1.524-2.471 1.565-3.669.113-3.311 4.302-22.917 6.501-30.429.634-2.166.422-2.25-5.708-2.255-3.502-.003-16.747-.297-29.434-.652l-23.067-.646-2.642 9.901m323.642 30.604l.36 3.298 8.387 1c8.309.991 8.385 1.025 8.199 3.75-.138 2.011.265 2.731 1.5 2.68 1.873-.078 6.198-1.748 4.816-1.86-.48-.038-.434-.632.102-1.32 1.147-1.47-.279-7.75-1.759-7.75-.534 0-.971-.621-.971-1.38 0-1.076-2.318-1.418-10.497-1.549l-10.497-.167.36 3.298m2.739 27.899c-.058 1.98.385 5.13.983 7 .599 1.869 1.303 4.074 1.565 4.899.262.825.477 1.725.477 2 .001.275.984 1.047 2.186 1.715 1.766.982 1.854 1.221.459 1.25-2.962.06-.634 7.948 2.368 8.02 1.352.032 1.756-3.117.738-5.744-.585-1.507-1.292-6.566-1.571-11.241-.324-5.433-1.026-9.041-1.946-10-1.256-1.31-1.353-.77-.764 4.25.473 4.026.334 5.75-.462 5.75-.626 0-1.173-.787-1.215-1.75-.042-.963-.67-3.55-1.395-5.75l-1.318-4-.105 3.601m38.624 10.967c-.974.58-1.467 1.547-1.096 2.148.405.655.214.807-.478.379-.753-.465-1.155.141-1.155 1.742 0 2.344.363 2.487 8.057 3.168 9.347.827 9.594.702 8.367-4.263-.917-3.714-.966-3.744-6.424-3.986-3.025-.134-6.297.231-7.271.812m-241.694 11.297c-1.667 1.667-1.221 3.224 1.866 6.529 2.949 3.157 6.519 3.904 11.841 2.478l2.243-.601-2.583-3.07c-2.961-3.519-11.697-7.006-13.367-5.336M462 175.906c0 1.08.452 3.152 1.004 4.604.757 1.993.642 3.158-.472 4.747-1.086 1.551-1.186 2.454-.381 3.425.757.912.766 1.318.03 1.318-.584 0-1.321-.417-1.636-.926-.881-1.427-17.62-10.333-18.245-9.708-.303.304.809 1.696 2.472 3.095 6.294 5.297 11.38 15.658 9.411 19.176-.793 1.418-.975 1.014-.89-1.981.143-5.067-3.936-8.568-10.043-8.62-8.771-.074-11.172 7.494-4.417 13.92 2.95 2.807 3.657 4.095 3.07 5.595-1.202 3.073-1.14 3.152 3.426 4.302 6.809 1.714 10.897 5.709 13.074 12.779.766 2.486.206 2.789-9.903 5.368-3.85.982-7.692 2.071-8.538 2.419-.972.399-2.606-.482-4.437-2.393-1.595-1.664-3.485-3.026-4.2-3.026-.745 0-1.575-1.711-1.941-4l-.64-4h-4.872c-3.191 0-4.898-.431-4.947-1.25-.041-.687-.663-4.85-1.38-9.25-2.046-12.535-1.757-3.385.429 13.634 3.023 23.527 3.041 23.739 2.001 24.382-.536.331-.975.05-.975-.624s-.254-.972-.564-.661c-.31.31.174 4.895 1.076 10.189.902 5.294 1.447 10.178 1.211 10.853-.235.675-.771-.798-1.19-3.273-1.509-8.909-7.595-34.59-9.183-38.75l-1.622-4.25-30.614-.042c-16.838-.023-63.914-.77-104.614-1.658-40.7-.889-80.525-1.57-88.5-1.515-23.957.168-48.052 1.01-55.759 1.95-3.993.487-34.705.858-68.25.825L0 222.5V281h97.824l.57-3.75c.314-2.062 1.522-12.75 2.686-23.75s2.333-20.224 2.598-20.497c.265-.273 4.609-.781 9.652-1.129 5.044-.348 17.495-1.198 27.67-1.889 11.617-.789 18.872-1.698 19.5-2.445.829-.985 38.401-3.636 50.411-3.556l2.411.016-.657 28.5-.657 28.5h118.103c107.284 0 118.047-.145 117.496-1.582-.334-.87-.607-1.796-.607-2.059 0-.262-.52-.156-1.155.236-.756.468-.881.272-.36-.57.531-.86.335-1.121-.596-.79-2.396.853-4.739-1.032-4.316-3.472.303-1.743.118-1.616-.806.552-1.757 4.125-8.493 3.621-10.885-.815-1.4-2.597-6.432-27.441-5.663-27.962.155-.104 3.84-1.855 8.189-3.89l7.908-3.7 2.353 2.211c1.84 1.728 2.226 2.883 1.772 5.302-.991 5.285 2.695 8.876 8.535 8.315 4.003-.384 5.13-.051 8.042 2.38l3.386 2.827-1.279 6.258c-.703 3.443-1.694 6.687-2.202 7.209-.508.523-.923 2.258-.923 3.857 0 1.999-.413 2.749-1.322 2.4-.727-.279-1.856.348-2.508 1.393-1.152 1.845-.561 1.9 20.265 1.9h21.453l-2.096-4.75c-7.67-17.381-11.586-22.955-21.208-30.187-9.689-7.282-13.637-11.02-10.334-9.782 2.27.851 2.209.118-.25-3.008-1.16-1.475-2.006-1.961-2.015-1.158-.013 1.16-.161 1.156-.91-.027-.558-.883-.459-1.868.266-2.628.637-.668 1.819-2.167 2.625-3.331 1.937-2.796 7.06-4.402 11.427-3.583 4.789.898 5.818-2.618 2.835-9.68L475.172 208l3.164.01c3.284.01 6.595 2.247 16.491 11.144l5.173 4.652V250l-2-2c-3.83-3.83-8.309-1.169-6.12 3.636.999 2.193 1.691 2.516 4.647 2.171 1.91-.223 3.473-.046 3.473.394 0 .439-1.613.799-3.583.799-4.09 0-4.362 2.279-.339 2.835 3.891.537 4.734 2.165 1.122 2.165-3.125 0-4.216 1.254-2.184 2.51.559.346.771 1.026.471 1.512-.301.485.705 1.561 2.233 2.39 2.608 1.415 2.641 1.51.53 1.548-2.761.049-2.98 2.036-.301 2.737 1.504.393 2.035 1.572 2.32 5.156.204 2.556.418-8.403.477-24.353.13-35.574-.086-37.421-4.639-39.694-1.866-.931-4.494-2.652-5.841-3.823-2.31-2.008-2.347-2.203-.663-3.435 1.662-1.215 1.498-1.65-2.354-6.25-2.277-2.72-5.964-5.768-8.194-6.773-5.512-2.486-5.094-3.276 1.443-2.734 7.49.622 8.542-.419 8.241-8.154l-.239-6.137-13.25-.279c-12.597-.265-13.25-.182-13.25 1.685m-55.443 6.031c-1.605 1.774-1.666 2.386-.512 5.172 1.425 3.439-.304 5.891-4.154 5.891-4.626 0-5.144 1.144-1.992 4.396 1.704 1.758 3.399 4.877 3.866 7.117.743 3.557 1.118 3.953 3.478 3.673 2.898-.345 3.841 1.803 5.313 12.11 1.253 8.774 1.7 3.956.556-5.998a1391.691 1391.691 0 0 1-2.183-20.751c-1.254-12.99-1.803-14.449-4.372-11.61" fill="#d3d3d3" fill-rule="evenodd"/></svg>