<svg xmlns="http://www.w3.org/2000/svg" width="500" height="622"><path d="M100.554 2.913C100.184 3.511 97.659 4 94.941 4 92.223 4 90 4.4 90 4.89c0 .489-2.012 1.483-4.47 2.209-2.459.726-3.974 1.627-3.367 2.002C85.633 11.245 119 11.132 119 8.975c0-.433-.859-.563-1.909-.289-1.271.333-2.023-.08-2.25-1.234-.213-1.082-2.032-2.209-4.841-2.998-2.475-.695-5.462-1.571-6.637-1.946-1.204-.384-2.431-.207-2.809.405m-23.89 11.756c-.456.457-2.03.915-3.497 1.017-2.636.183-42.334.203-47.167.023-6.669-.248-11.354.337-10.394 1.297.662.662 26.493.919 75.45.75 53.463-.184 73.88-.557 72.444-1.323-1.194-.637-4.82-.839-9-.5-8.624.699-68.678-.446-73.503-1.401-1.926-.381-3.876-.319-4.333.137m96.142 1.481c-1.268.358 32.982.695 76.111.75 43.129.055 78.185-.131 77.903-.414-.766-.765-151.329-1.093-154.014-.336M474 15.726c1.375.25 3.683 1.654 5.13 3.12l2.63 2.666.599 78.994c1.81 238.862 1.975 499.017.318 500.674-1.647 1.647-.626 2.82 2.452 2.82.854 0 .499-247.875-.593-414.5-.177-26.95-.382-77.237-.455-111.75L483.949 15l-6.225.136c-3.423.075-5.099.341-3.724.59M310.936 129.939c2.922 1.849-.508 3.63-6.923 3.594-5.8-.031-6.075.076-5.55 2.173.573 2.285-4.518 9.294-6.75 9.294-.595 0-3.225-2.225-5.847-4.945-4.526-4.696-5.773-5.448-8.573-5.173-1.128.11 4.239 10.421 7.39 14.197 2.066 2.476 1.557 5.595-1.433 8.791-1.512 1.616-4.017 4.781-5.565 7.034-2.789 4.058-6.685 5.593-6.685 2.633 0-.804-2.652-3.263-5.894-5.465-3.241-2.201-6.503-4.594-7.25-5.318-2.598-2.522-13.394-10.371-18.856-13.71-3.025-1.849-8.425-5.293-12-7.653-6.079-4.013-6.953-4.293-13.5-4.321-6.163-.027-32.91.592-36.25.838-.687.051-1.25.736-1.25 1.524 0 .787-1.463 2.436-3.25 3.664-3.68 2.526-11.75 10.822-11.75 12.077 0 2.103-1.971.394-4.809-4.173-2.765-4.448-3.493-5-6.591-5-5.125 0-5.157 1.056-.363 11.758 4.232 9.446 4.321 9.855 2.942 13.454-1.801 4.702-1.022 7.31 1.74 5.831 2.704-1.447 2.268-1.766 7.869 5.765 6.435 8.655 17.546 19.16 23.949 22.645l4.962 2.701 2.252 14.673c1.239 8.07 2.504 15.348 2.81 16.173.306.825.484 1.842.395 2.26-.167.778 2.526 26.243 3.25 30.74.222 1.375 1.536 9.925 2.922 19 1.385 9.075 2.96 18.525 3.499 21 .539 2.475 1.274 8.55 1.633 13.5.358 4.95 1.494 14.175 2.524 20.5 3.024 18.576 3.991 25.958 9.127 69.69 1.451 12.35 1.188 11.904 7.542 12.769 5.117.697 5.157.681 5.809-2.287.592-2.694-.163-13.79-1.039-15.271-.194-.329-.828-5.279-1.408-11-1.025-10.111-2.265-19.637-4.022-30.901-2.111-13.528-6.15-43.277-6.947-51.175-.482-4.771-1.801-14.446-2.932-21.5-1.13-7.054-3.213-24.525-4.627-38.825-1.415-14.3-2.937-29.375-3.383-33.5-.446-4.125-.62-8.018-.388-8.651.689-1.879 4.578-2.393 6.302-.832 4.435 4.013 29.128.538 44.253-6.227 3.174-1.42 5.925-2.404 6.114-2.186 1.142 1.318 9.499 32.439 11.022 41.046.355 2.007 1.356 4.238 2.224 4.958 2.154 1.788 3.453 5.512 3.826 10.969.172 2.517.988 5.892 1.813 7.5 1.411 2.748 2.945 9.2 5.806 24.423.672 3.575 1.462 6.926 1.754 7.447 1.258 2.241 1.56 15.424.61 26.647-.421 4.975-.093 11.357.952 18.5 2.2 15.05 2.569 20.254 1.765 24.906l-.691 4h-8.079c-5.11 0-8.648.472-9.627 1.285-.852.707-1.934 1.161-2.405 1.009-.47-.151-2.917.516-5.438 1.484-3.383 1.299-5.609 1.549-8.5.954-3.825-.787-3.956-.959-5.569-7.269-.909-3.555-1.696-8.539-1.75-11.076l-.098-4.613 5.75-1.843c3.556-1.14 9.126-1.899 14.6-1.989 5.521-.091 9.121-.585 9.571-1.314.397-.642 1.812-1.046 3.146-.898 3.545.395 3.877-6.013.487-9.403-1.294-1.294-2.511-3.472-2.703-4.84-.369-2.614-4.93-3.037-20.851-1.932-2.475.172-8.549.026-13.497-.324l-8.997-.636-2.95 3.202c-5.857 6.358-6.347 26.199-1.052 42.58 5.976 18.485 10.149 22.505 22.787 21.948 7.146-.315 7.825-.177 8.196 1.666.754 3.751 1.64 11.528 2.079 18.248.601 9.203 1.134 10.587 3.78 9.816 1.185-.346 4.53-.901 7.433-1.235 6.535-.75 6.435-.57 5.249-9.479-.538-4.037-1.197-9.864-1.466-12.948-.269-3.083-1.212-7.739-2.097-10.345-2.642-7.782.663-7.672 5.071.168 1.5 2.669 4.487 6.117 6.637 7.663 3.89 2.796 3.928 2.801 7.618 1.088 4.94-2.294 7.057-4.252 9.258-8.564 3.972-7.783 4.89-31.187 2.093-53.403-.553-4.4-1.247-11.15-1.541-15-.591-7.747-2.032-16.142-4.207-24.5-.787-3.025-2.553-13.375-3.925-23-2.708-19.002-6.533-39.286-9.053-48-3.152-10.902-5.679-20.648-7.416-28.601-.973-4.455-2.271-9.038-2.885-10.184-1.773-3.313-1.338-5.231 2.18-9.612 1.812-2.257 5.435-7.14 8.05-10.853 5.274-7.486 5.926-7.784 9.6-4.393 4.173 3.851 9.855 6.39 22.645 10.118 17.918 5.224 26.48 4.309 19.778-2.114-1.227-1.176-2.403-3.651-2.612-5.5l-.38-3.361-10.438-.572c-10.798-.591-12.839-1.123-21.688-5.659-6.15-3.153-6.05-2.731-2.38-10.048 1.578-3.146 3.205-6.846 3.616-8.221.41-1.375 1.88-4.012 3.265-5.86 2.417-3.224 2.432-3.333.384-2.683-2.248.714-3.053-.92-.885-1.795.688-.277-.1-.533-1.75-.568-2.171-.046-2.603.188-1.564.845m10.814 3.46c-5.18 1.317-4.732 2.67 2.5 7.553 5.875 3.967 6.596 4.196 12.015 3.819 6.987-.486 8.631-1.728 6.805-5.141-1.683-3.145-4.354-4.38-11.03-5.102-3.004-.325-5.704-.926-6-1.336-.297-.411-2.227-.317-4.29.207m-142.68 4.689c-6.946 1.363-16.07 11.417-16.07 17.709 0 2.973 4.775 13.192 7.647 16.366.922 1.018 2.165 2.816 2.764 3.996 1.473 2.903 7.478 7.571 10.768 8.371l2.678.651-1.521-5.827c-.968-3.707-1.388-8.742-1.154-13.84.361-7.836.496-8.208 6.128-16.764 3.167-4.812 6.37-8.75 7.117-8.75.748 0 1.618-.675 1.935-1.5.665-1.733-12.225-1.994-20.292-.412m42.448 10.026c.406 1.312 1.581 4.056 2.61 6.096 6.226 12.341-3.713 25.354-17.637 23.095-4.148-.673-4.96 1.343-3.971 9.864.681 5.869.807 6.076 4.84 7.907 9.049 4.109 21.458 2.364 39.64-5.577 11.83-5.166 11.865-5.213 8.692-11.684-3.834-7.821-11.227-17.523-14.734-19.337-1.685-.871-3.857-2.348-4.826-3.281-4.2-4.046-10.099-8.15-12.623-8.784-2.522-.633-2.674-.503-1.991 1.701" fill="#d3d3d3" fill-rule="evenodd"/></svg>