<svg xmlns="http://www.w3.org/2000/svg" width="500" height="382"><path d="M406 19.46c0 1.475-.514 2.435-1.226 2.29-.675-.137-1.381.762-1.57 2-.359 2.356-1.651 2.953-2.704 1.25-1.01-1.634-3.788-1.193-3.139.499.317.824.168 2.512-.329 3.75-.712 1.771-.919 1.871-.969.47-.034-.98-.738-2.041-1.563-2.357-.825-.317-1.5-1.127-1.5-1.8s-1.1-1.813-2.445-2.533c-2.781-1.488-8.825.625-9.915 3.466-.326.85-1.81 1.505-3.409 1.505-1.557 0-3.318.487-3.913 1.082-.776.776-1.697.706-3.256-.25-1.868-1.145-2.304-1.102-3.105.306-1.136 1.998-5.717 3.284-7.303 2.049-2.233-1.738-5.882-2.034-11.241-.91-5.25 1.102-6.98 2.908-3.913 4.085 1.688.647 2.033 4.191.5 5.138-.55.34-1 .086-1-.563 0-.896-.353-.889-1.459.029-1.2.996-1.57.765-2.09-1.305-.997-3.974-3.438-4.238-3.514-.38-.058 2.931-.145 3.018-.968.969-1.005-2.501-1.76-2.721-3.969-1.159-1.093.773-1.17 1.196-.286 1.556.948.387.95.918.009 2.424-1.434 2.296-5.723 2.618-5.723.429 0-2.073-.515-1.93-5.57 1.548-3.744 2.576-4.43 3.564-4.43 6.38v3.332l7.139-.13c5.729-.104 7.351.206 8.215 1.572.591.936.729 2.048.306 2.471-.423.423-1.142.166-1.598-.572-.66-1.069-1.029-.983-1.817.426-.917 1.638-1.155 1.65-3.291.153-2.177-1.524-2.363-1.491-3.396.604-.602 1.219-2.098 2.66-3.326 3.203-1.227.543-2.297 1.668-2.377 2.5-.08.832-.268 3.088-.419 5.013-.151 1.925-.58 4.923-.955 6.661-.578 2.682-.294 3.415 1.875 4.836 1.406.922 2.985 1.41 3.51 1.086 1.524-.942 4.131.481 4.164 2.274.027 1.423.172 1.401 1.084-.168.693-1.192 1.964-1.704 3.72-1.5 1.841.215 2.666-.153 2.666-1.189 0-1.107-1.544-1.631-5.898-2-5.734-.486-9.212-2.724-7.262-4.673.423-.423 1.198-.107 1.722.702.797 1.23 1.258 1.077 2.819-.937 1.026-1.324 2.71-2.499 3.742-2.611 1.032-.112 2.643-.531 3.579-.931.936-.4 2.174-.436 2.75-.08.591.366 1.048-.186 1.048-1.265 0-2.433 3.96-6.744 7.094-7.723 1.323-.413 2.743-1.253 3.156-1.867.523-.778 1.048-.662 1.735.385.799 1.218.987 1.077 1-.75.008-1.237.465-2.25 1.015-2.25.55 0 1 1.162 1 2.582 0 2.446.271 2.312 5.16-2.551 5.591-5.562 7.325-5.362 6.212.719-.478 2.611-.265 3.25 1.082 3.25 3.022 0 5.392-1.872 4.875-3.849-.294-1.125.135-2.115 1.072-2.475 1.136-.436 1.791.276 2.405 2.613.792 3.015 1.082 3.19 4.769 2.861 2.159-.192 4.277-.966 4.708-1.72 1.06-1.855 7.538-3.491 14.135-3.57 4.031-.048 5.992-.594 7.633-2.122 1.872-1.744 2.513-1.867 4.213-.805 1.588.992 2.162.995 2.768.016.42-.68 1.71-.988 2.868-.685 1.352.353 2.441-.043 3.045-1.107.853-1.505 1.075-1.474 2.415.341.812 1.1 1.759 1.716 2.105 1.37.639-.639 10.915 2.247 14.224 3.995 7.942 4.195 19.32 6.55 20.718 4.288.289-.467-.472-1.786-1.691-2.931s-2.806-2.798-3.527-3.673c-1.756-2.134-4.296-12.104-3.567-14.004.388-1.01-.294-1.848-2.046-2.514-2.689-1.022-4.362-3.577-3.141-4.797.374-.375 2.793-.763 5.373-.863 2.581-.1 4.889-.224 5.129-.275 1.269-.272-5.886-6.364-9.377-7.984-5.752-2.671-8.324-3.1-9.572-1.596-1.235 1.489.325 3.029 2.012 1.986.55-.34 1-.179 1 .358 0 .536-.562 1.202-1.25 1.48-1.192.481-.145.819 1.841.595.968-.109 3.271 3.482 2.761 4.306-1.048 1.697-6.217.762-6.852-1.239-.349-1.1-1.414-2-2.367-2-2.297 0-4.108-1.903-3.448-3.622.34-.885-.18-1.378-1.453-1.378-1.47 0-1.982.675-1.982 2.614 0 2.808-2.261 4.986-3.349 3.226-.358-.58-1.607-.751-2.775-.38-1.707.542-2.332.12-3.182-2.143-.581-1.549-2.156-3.848-3.5-5.107L406 16.919v2.541m-301.333 5.207c-.367.366-.667 1.716-.667 3 0 1.386-.597 2.333-1.47 2.333-.808 0-3.003.862-4.878 1.914-1.874 1.053-4.431 2.066-5.68 2.25-3.661.541-6.159 4.717-5.075 8.485C87.929 46.238 86.81 48 83.5 48c-3.1 0-4.5 1.929-4.5 6.2 0 4.247.097 4.168-3.435 2.825C72.736 55.949 72.097 54 74.573 54c2.027 0 1.453-3.474-.586-3.555C71.054 50.328 69 48.748 69 46.607 69 44.598 61.962 38 59.818 38c-.45 0-.818-.682-.818-1.516 0-1.541-5.656-1.85-6.577-.359-.234.378-1.327.451-2.429.163C47.553 35.65 45 37.586 45 40.077c0 1.008-1.153 2.985-2.562 4.394-2.529 2.529-2.652 6.467-.231 7.387.519.197 2.469 1.885 4.335 3.75C48.407 57.474 50.398 59 50.967 59c.568 0 1.033.845 1.033 1.878 0 1.032.675 2.437 1.5 3.122s1.5 2.288 1.5 3.563c0 1.276.473 2.612 1.052 2.969.663.41.94-.379.75-2.131-.364-3.352 5.542-6.049 7.269-3.32.631.997.903 1.047.914.169.025-2.029 2.776-1.429 4.458.973 2.196 3.134 1.941 4.084-.947 3.532-2.014-.386-2.909.178-4.581 2.883C62.369 75.139 61.131 76 59.079 76c-2.344 0-2.963.618-4.114 4.106-.745 2.259-2.055 4.363-2.91 4.676-5.029 1.841-7.537 8.061-4.198 10.411 1.021.719 2.2 2.394 2.62 3.723.42 1.329 2.05 3.591 3.622 5.027l2.859 2.611-2.335 5.746c-1.285 3.16-2.625 6.036-2.979 6.39-1.218 1.218-.642 8.067.778 9.245 2.381 1.976 3.132 9.186 1.111 10.664-.936.685-1.949 3.08-2.249 5.323-.482 3.59-3.284 6.159-3.284 3.011 0-1.142-4.839-7.971-6.471-9.132-.541-.385-1.736-.018-2.657.815-2.06 1.864-2.805.836-3.257-4.491-.186-2.195-1.076-4.728-1.977-5.629-.901-.902-1.638-2.057-1.638-2.567 0-2.297-7.232-.892-9.849 1.912-4.515 4.84-8.075 18.901-5.45 21.527.386.386.796 2.526.91 4.756.129 2.512 1.004 4.902 2.299 6.28 1.149 1.224 2.09 2.71 2.09 3.303 0 .594.667 1.335 1.483 1.648.862.331 1.23 1.229.879 2.144-.333.867.079 2.346.913 3.288.835.942 1.681 2.598 1.879 3.679.198 1.081 1.699 2.656 3.336 3.5 6.949 3.582 6.357 6.034-2.098 8.7-6.758 2.13-7.536 4.805-1.142 3.925 2.338-.321 3.499-.248 2.581.162-2.239 1.001.976 5.247 3.972 5.247 2.885 0 3.31 2.286 1.099 5.92-1.657 2.725-1.86 4.461-1.417 12.095.475 8.179.353 9.002-1.484 9.984-2.111 1.13-2.704 4.448-.985 5.511.559.345.844 2.183.635 4.085-.268 2.427.097 3.724 1.226 4.356 3.52 1.97.006 2.031-5.729.099-3.347-1.128-6.973-2.05-8.057-2.05-1.085 0-2.265-.472-2.621-1.049-.362-.586-3.298-.954-6.647-.833-6.831.247-7.784-.53-7.808-6.368C2.007 225.688 1.55 224 1 224c-1.365 0-1.319 18.685.049 19.53.63.389.694 1.111.16 1.809-1.546 2.022-1.239 22.886.328 22.285.734-.281 1.505.002 1.714.63C3.809 269.928 1.805 278 .832 278 .374 278 0 295.598 0 317.107c0 35.25.156 39.047 1.582 38.5.87-.334 2.05-.607 2.622-.607.588 0 .444-.723-.332-1.663-1.068-1.294-1.096-1.755-.123-2.082.866-.292 1.054-1.632.615-4.383-.493-3.081-.326-3.896.751-3.667.88.187 1.354-.541 1.301-1.998-.063-1.726.308-2.126 1.5-1.617.871.372 2.381.644 3.356.604.974-.04 1.51.35 1.191.867-.32.516-1.203.939-1.963.939s-1.684.489-2.053 1.086c-.439.71.32.97 2.191.75 2.464-.289 2.905.038 3.172 2.35.284 2.455-.017 2.713-3.5 3-3.455.285-3.838.605-4.114 3.437-.253 2.597.091 3.199 2.038 3.571 3.65.698 4.766-.109 4.766-3.444 0-3.553.643-3.413 1.152.25.59 4.239 7.275 5.417 8.269 1.457.945-3.763 3.249-4.105 6.201-.92 1.53 1.652 2.834 2.352 3.223 1.734.996-1.578 8.801-.658 13.616 1.606 4.167 1.958 7.918 2.243 10.285.78.639-.395 2.308-.431 3.708-.079 1.489.374 2.546.213 2.546-.387 0-.584 2.371-1.005 5.489-.977 3.039.027 6.172-.518 7.019-1.221 1.252-1.039 1.858-.972 3.342.371.997.902 2.047 1.405 2.334 1.118.287-.287 2.349-.703 4.582-.926 5.402-.537 16.57-3.666 17.377-4.869.353-.527 1.746-.681 3.094-.342 1.825.458 3.05-.022 4.792-1.876 1.886-2.007 2.962-2.374 5.55-1.888 1.767.331 4.196.075 5.403-.571 1.205-.645 5.783-1.317 10.172-1.492 4.389-.176 8.25-.589 8.58-.919 2.001-2.001 19.766.111 19.766 2.351 0 .946 2.082 1.945 6 2.877 10.313 2.454 15.429 4.857 16.535 7.765.447 1.175 1.552 2.419 2.457 2.767 1.095.42 1.439 1.284 1.027 2.581-.512 1.613-.016 2.064 2.867 2.605 3.579.671 4.494.24 9.045-4.265l2.243-2.22 6.824 2.475c9.01 3.268 25.363 2.219 31.479-2.019 2.998-2.078 4.654-2.471 9.803-2.329 3.408.094 6.453-.087 6.767-.401.314-.314 2.861.267 5.66 1.29 2.798 1.023 5.522 1.591 6.052 1.264.531-.328 1.285-.078 1.676.555.392.634 1.579 1.348 2.638 1.589 1.06.24 2.896.721 4.081 1.068 1.589.465 2.315.122 2.769-1.309 1.031-3.248 5.229-4.577 6.905-2.185 1.229 1.755 1.538 1.809 2.654.464 1.8-2.169 2.345-1.933 3.991 1.728 1.096 2.438 1.551 2.806 1.822 1.474.228-1.121 1.161-1.708 2.533-1.594 5.204.434 9.643-.244 11.093-1.694.86-.86 2.38-1.426 3.376-1.257.997.169 3.014-.48 4.482-1.442 2.068-1.355 4.871-1.758 12.445-1.79 11.889-.049 15.853-1.125 16.708-4.533.345-1.373 1.063-2.226 1.597-1.896 1.376.851 1.205 2.105-.522 3.833-2.283 2.282 3.193 3.208 7.055 1.192 2.198-1.146 4.891-1.407 10.688-1.033 6.893.445 7.759.306 7.829-1.255.047-1.046.283-1.25.583-.505.278.688 1.887 1.25 3.576 1.25 3.047 0 3.057-.017 1.191-2.078-2.006-2.217-8.562-2.215-19.429.007-2.502.512-4.892.54-5.383.063-1.9-1.845.403-3.742 5.548-4.572l5.335-.86-5.25-.332c-5.811-.368-6.331-1.237-3.74-6.248 2.352-4.548 5.163-5.605 7.437-2.797 1.783 2.201 1.945 2.225 3.795.55 1.841-1.666 2.006-1.665 3.465.009.843.967 1.328 2.321 1.079 3.008-.249.688.26 1.25 1.131 1.25s1.583-.671 1.583-1.492c0-.82.9-2.053 2-2.74 1.1-.687 2-1.816 2-2.509 0-.692.863-1.259 1.918-1.259 3.255 0 5.082-1.128 5.082-3.138 0-2.609 2.787-3.503 4.762-1.528 1.368 1.367 1.413 1.97.305 4.041-.717 1.339-1 2.925-.63 3.524.371.599-.415 2.554-1.746 4.345-1.698 2.284-2.336 4.3-2.138 6.753.155 1.923-.186 4.061-.758 4.75-1.242 1.496-1.281 1.476 3.455 1.749 3.805.219 5.539-2.002 2.087-2.673-2.647-.514-2.432-5.761.264-6.438 1.506-.378 2.023-1.106 1.69-2.379-.308-1.179.287-2.245 1.663-2.981 1.498-.802 1.958-1.728 1.529-3.08-.467-1.47-.239-1.789.954-1.331 1.107.425 1.974-.363 2.946-2.673 1.279-3.043 1.425-3.121 2.064-1.108.378 1.192 1.422 2.167 2.32 2.167 1.207 0 1.34-.293.511-1.122-.617-.617-.882-1.748-.588-2.513.294-.765-.005-2.04-.664-2.834-1.606-1.934-.46-3.531 2.533-3.531 1.503 0 2.441-.576 2.441-1.5 0-.825.675-1.5 1.5-1.5 1.271 0 1.5 2.444 1.5 16 0 16.273-.065 16.553-3.75 16.075-.687-.09-1.25.307-1.25.881 0 .574 1.848 1.044 4.107 1.044 3.521 0 4.003-.25 3.381-1.75-.399-.962-.654-2.425-.567-3.25.088-.825.081-4.2-.016-7.5-.581-19.747-.426-23 1.095-23 1.224 0 1.601 2.299 2.047 12.5.626 14.28 1.182 14.151 1.077-.25-.066-9.116.059-9.75 1.935-9.75 1.103 0 2.328.846 2.723 1.879.759 1.987 9.54 9.121 11.227 9.121.545 0 .991.45.991 1s1.086 1 2.413 1c1.696 0 3.319 1.265 5.457 4.25 1.674 2.337 3.546 4.7 4.159 5.25.614.55 2.258 2.041 3.653 3.314 1.395 1.272 3.95 2.408 5.677 2.524 1.728.115 3.72.573 4.428 1.018.707.444 2.957.547 5 .228 2.042-.319 6.413-.8 9.713-1.068 9.859-.803 13.812-7.306 7-11.516-3.484-2.153-4.537-4.488-2.354-5.215 1.532-.511 2.083-21.489.635-24.194-.868-1.623-.67-2.253 1.077-3.413 1.178-.782 2.142-2.183 2.142-3.113 0-1.853-4.473-6.411-7.25-7.387-2.516-.884-2.169-1.999 1.25-4.019 3.507-2.071 3.563-2.368 1.069-5.613-1.603-2.087-2.913-2.518-8.728-2.875-15.425-.946-18.913.028-19.953 5.573-.547 2.918-.955 3.327-2.765 2.776-1.168-.355-2.927-.73-3.911-.833-.983-.103-2.133-.748-2.557-1.434-1.401-2.27-13.408-1.181-13.754 1.247-.872 6.116-1.71 8.18-4 9.848-3.413 2.486-5.324.151-5.369-6.559-.031-4.633.033-4.729 3.837-5.754 2.129-.573 4.941-1.879 6.25-2.902 1.31-1.023 5.306-2.885 8.881-4.137 3.575-1.251 7.194-3.047 8.041-3.989 3.57-3.968 5.758-4.326 12.054-1.971 3.248 1.214 5.905 2.673 5.905 3.241 0 .568.816.294 1.814-.608 1.361-1.232 2.099-1.356 2.957-.498.792.792 1.542.828 2.437.117.71-.565 2.983-1.332 5.05-1.704 6.396-1.153 8.735-7.912 3.674-10.62-1.062-.569-1.932-1.694-1.932-2.499 0-2.353-3.689-1.708-4.489.785-.612 1.906-.795 1.982-1.19.5-.539-2.018-1.458-2.213-3.028-.643-.809.809-1.56.415-2.792-1.466-2.216-3.381.752-8.109 5.763-9.18 3.867-.827 5.736-2.183 5.736-4.163 0-1.099-.738-1.295-3-.798-4.383.963-4.063-2.761.616-7.175 3.47-3.272 3.546-3.488 1.882-5.327-1.196-1.322-1.53-2.732-1.076-4.543 1.068-4.254-.152-6.561-3.247-6.137-2.019.276-2.702.956-2.783 2.774-.06 1.324-.173 2.913-.25 3.53-.081.642-1.881 1.076-4.211 1.015-4.005-.105-4.036-.134-1.951-1.822 1.165-.943 2.771-1.464 3.569-1.158 1.509.579 2.06-1.163.645-2.037-.444-.274-.62-2.097-.392-4.051.228-1.954.816-3.305 1.306-3.002.491.303.892-.188.892-1.091 0-.904.563-1.445 1.25-1.204.688.241 1.12 1.628.962 3.083-.223 2.047.149 2.645 1.644 2.645 2.089 0 2.177-.427 2.161-10.439-.006-3.661-.491-6.244-1.263-6.734-1.972-1.252-4.754-.96-4.754.499 0 .729-1.125 2.382-2.5 3.674-1.375 1.292-2.5 2.896-2.5 3.564 0 .669-2.025 3.967-4.5 7.329-2.475 3.362-4.5 6.513-4.5 7.003 0 1.671-2.939 2.022-4.432.529-.819-.819-1.769-2.98-2.111-4.803-.543-2.895-.941-3.252-3.149-2.83-2.359.451-2.483.281-1.859-2.559.385-1.753.232-3.312-.361-3.679-1.465-.905-2.266 3.401-1.287 6.916.546 1.961 1.651 3.165 3.253 3.543 1.645.388 2.027.819 1.186 1.339-1.773 1.096-1.533 3.648.343 3.648 1.788 0 1.765.086-1.464 5.277-1.865 3-2.631 3.543-3.722 2.638-1.045-.868-1.499-.814-1.897.222-.288.75-1.678 1.43-3.09 1.512-2.83.164-6.699 3.357-9.213 7.601-.895 1.512-2.13 2.75-2.744 2.75-.613 0-1.717 1.125-2.453 2.5-.736 1.375-1.899 2.5-2.586 2.5-.686 0-1.474.562-1.752 1.25-.296.735-.537.516-.583-.531-.043-.98.596-2.041 1.421-2.357 1.82-.699 1.978-3.016.25-3.665-.736-.276-.25-.861 1.182-1.422 4.045-1.586-4.251-2.45-9.651-1.005-3.93 1.051-4.557.988-5.413-.541-.532-.951-1.62-1.729-2.418-1.729-3.106 0-1.24-1.778 2.493-2.375 5.117-.818 5.971-2.331 1.911-3.383-1.77-.459-3.419-1.438-3.666-2.177-.268-.805.005-1.063.682-.645.622.384 1.693.341 2.38-.096 2.567-1.63 10.74-1.227 10.882.536.072.902.438.065.813-1.86.534-2.743.289-3.797-1.132-4.872-1.968-1.489-2.42-4.635-.809-5.63.552-.341.748-1.639.435-2.883-.358-1.429.028-2.758 1.047-3.604 1.393-1.155 1.693-1.042 2.181.825 1.467 5.607 5.773.226 6.072-7.586.234-6.149-.296-7.293-2.405-5.184-.755.755-1.225.459-1.61-1.013-.367-1.404.076-2.411 1.366-3.101 2.262-1.211 2.493-3.526.465-4.661-1.251-.7-1.234-1.244.125-4.05 2.458-5.076 7.249-4.644 11.177 1.009 4.053 5.832 6.948 8.75 8.682 8.75 2.078 0 1.865-4.951-.289-6.703-1.285-1.044-1.354-1.318-.259-1.029 1.678.442 4.009-1.497 4.009-3.336 0-.666.728-1.744 1.619-2.395 1.36-.995 1.414-1.511.339-3.232-1.056-1.692-1.001-2.893.314-6.888 1.458-4.43 1.457-5.067-.008-7.547-1.436-2.43-1.444-2.948-.084-5.039 2.308-3.551 3.353-17.689 1.363-18.453-3.272-1.255-4.782.327-2.963 3.104.908 1.385 1.373 2.574 1.035 2.643-.338.069-1.14.181-1.782.25-1.82.195-2.173 2.557-.479 3.207 3.078 1.181.612 3.225-3.422 2.836-3.865-.372-5.44 1.066-2.432 2.22 2.796 1.073 1.518 4.296-4 10.085-3.025 3.173-5.5 6.234-5.5 6.801 0 .567-.861 1.769-1.913 2.669-1.795 1.538-1.946 1.503-2.465-.564-.444-1.769-1.334-2.232-4.535-2.36-2.966-.118-3.85.184-3.466 1.185.283.739.082 1.612-.448 1.939-.53.328-1.221-.077-1.537-.899-.649-1.69-3.636-2.055-3.636-.443 0 .578-1.462-.316-3.249-1.986-2.83-2.645-3.091-3.291-2.021-5.005 1.276-2.043.437-3.437-1.351-2.244-.564.376-1.315 1.471-1.671 2.434-.965 2.616-2.595 2.113-3.238-1-1.508-7.295-2.851-10.51-3.597-8.613-.403 1.025-.764 3.277-.803 5.006-.042 1.894-.698 3.384-1.652 3.75-2.253.865-2.183.925-3.032-2.643-.425-1.787-.855-3.588-.955-4-.099-.412-.237-2.62-.306-4.905-.119-3.959-.211-4.077-1.954-2.5-1.006.91-2.554 1.655-3.441 1.655-.886 0-1.904.472-2.26 1.049-.444.718-1.089.682-2.046-.112-2.547-2.114-6.596-.266-6.237 2.848.215 1.869.858 2.672 2.063 2.576 2.003-.159 2.379 1.469.5 2.165-3.366 1.249-14.75.867-14.75-.495 0-.532.679-.708 1.508-.39 1.544.593 7.965-1.98 8.96-3.589 1.035-1.675-5.352-4.047-8.092-3.005-3.361 1.278-3.293 1.302-4.376-1.547-1.132-2.977-2.633-3.233-3.471-.592-1.04 3.276-7.529 3.687-7.529.475 0-.76-.402-1.383-.893-1.383-1.264 0-2.152 2.72-1.469 4.5.358.932-.006 1.5-.961 1.5-.846 0-1.682 1.013-1.857 2.25-.21 1.476-1.008 2.25-2.32 2.251-2.107.002-2.253.604-1.026 4.242.664 1.972 1.227 2.169 4.641 1.623 2.584-.414 3.885-.244 3.885.506 0 .62-.45 1.128-1 1.128s-.888.563-.75 1.25c.181.905-1.683 1.25-6.75 1.25-3.85 0-7.262.354-7.581.786-.32.433-3.245.883-6.5 1-5.513.199-5.898.368-5.606 2.464.198 1.427-.209 2.25-1.111 2.25-.98 0-1.276-.78-.947-2.5.548-2.864.566-2.856-3.504-1.438-2.448.854-3.168 1.788-3.662 4.75-.905 5.418-.725 8.486.544 9.27.618.382.784 1.243.369 1.914-1.028 1.664 2.594 12.004 4.205 12.004.711 0 1.293.45 1.293 1s-.513 1-1.14 1c-.627 0-1.639.668-2.25 1.484-.696.932-1.949 1.261-3.36.884-2.633-.704-3.076-3.457-.5-3.106.962.131 1.844-.212 1.959-.762.115-.55-.713-.96-1.84-.911-1.685.073-1.976-.403-1.642-2.681.387-2.636.168-2.804-4.504-3.446-5.007-.689-7.581.341-6.247 2.499.518.839 1.087.817 2.17-.082 1.195-.992 1.966-.722 4.139 1.451 2.359 2.359 2.448 2.67.763 2.67-3.119 0-8.548-2.308-8.548-3.634 0-2.061-3.845-2.664-5.627-.881-1.048 1.047-2.905 1.514-5.247 1.318-3.175-.265-3.667-.664-3.958-3.211-.537-4.712.735-9.592 2.5-9.592 1.288 0 1.349-.275.332-1.5-1.039-1.252-.9-1.5.842-1.5 3.132 0 4.526-3.355 3.139-7.558-.628-1.903-.939-4.018-.692-4.701.248-.682-.202-1.991-.999-2.908-1.206-1.386-1.233-2.059-.16-4 .709-1.283 1.194-2.814 1.077-3.403-.116-.588 1.604-2.594 3.825-4.457 3.516-2.95 3.953-3.764 3.393-6.315-.603-2.745-.483-2.889 1.904-2.29 1.402.352 2.828.188 3.169-.364.341-.552 1.393-1.004 2.339-1.004 2.609 0 5.095-3.37 3.97-5.381-.663-1.185-.259-2.883 1.403-5.892 2.268-4.107 2.478-4.227 7.407-4.227 3.035 0 5.803-.603 6.89-1.5 1.385-1.143 1.918-1.202 2.239-.25.231.688 1.057 1.25 1.835 1.25 2.124 0 8.763 6.661 8.173 8.199-.283.737-.17 3.131.251 5.32.577 3.004.793 3.323.88 1.299.074-1.724 1.133-3.407 2.965-4.711 3.181-2.265 11.15-4.41 11.15-3.001 0 .492 2.052.894 4.559.894s4.327-.375 4.044-.833c-.283-.459-1.885-.632-3.559-.387-2.549.374-3.044.113-3.044-1.607 0-1.13.45-2.333 1-2.673.55-.34 1-1.716 1-3.059 0-2.459 2.289-3.401 3.5-1.441.34.55 1.716 1 3.059 1 3.375 0 3.542 4.649.191 5.294-1.627.314-1.35.471 1 .57 2.283.095 3.25-.31 3.25-1.364 0-.825.563-1.561 1.25-1.635 1.295-.139 4.189-.355 9.107-.677 2.114-.139 2.704-.586 2.27-1.717-.423-1.102.255-1.697 2.427-2.132 2.925-.585 2.954-.645.98-2.028-1.251-.876-2.034-2.542-2.034-4.329 0-2.634-.482-3.048-5.182-4.443-6.488-1.927-6.561-1.924-7.265.293-.729 2.299-4.923 2.171-5.376-.164-.178-.918-1.191-1.668-2.25-1.668-1.06 0-1.927-.63-1.927-1.401 0-1.685 7.092-1.83 8.235-.168.404.588.741-.142.75-1.622.008-1.48-.547-3.042-1.235-3.471-1.97-1.23-4.75-1.424-4.75-.332 0 1.728-4.751 1.085-5.45-.737-.366-.952-.189-1.889.393-2.083.581-.194 1.057-.99 1.057-1.769 0-.779.505-1.417 1.122-1.417.818 0 .811-.376-.026-1.384-.93-1.121-.491-1.507 2.305-2.031 1.899-.357 3.627-1.168 3.839-1.804.429-1.287 4.76 2.552 4.76 4.219 0 .55.498 1 1.107 1s.881-.588.605-1.308c-.372-.97.801-1.307 4.549-1.307 5.382 0 9.739 2.675 9.739 5.98 0 1.93 1.312 2.073 4.316.469 3.788-2.023 7.683-6.926 7.699-9.69.009-1.454.592-4.571 1.296-6.926l1.281-4.281 2.284 2.431c1.256 1.337 2.179 3.264 2.05 4.281-.128 1.018.061 2.638.42 3.601.36.963.875 2.453 1.146 3.311.439 1.393.808 1.375 3.42-.168 3.113-1.839 5.234-8.067 3.179-9.337-2.793-1.726 1.437-10.233 5.791-11.645 3.702-1.201 5.557-3.626 4.848-6.337-.333-1.271.736-2.417 3.837-4.11 3.604-1.969 4.141-2.642 3.325-4.166-.791-1.479-.487-2.001 1.635-2.808 3.043-1.157 2.739-3.521-.969-7.522-4.066-4.387-12.234-2.397-8.521 2.076 1.933 2.33-1.456 4.344-6.231 3.703-3.803-.51-4.781.378-2.705 2.454.801.801.528 1.282-1 1.767-1.156.367-2.101 1.149-2.101 1.739 0 1.714-3.282 3.733-6 3.691-1.737-.027-2.032-.246-.966-.718 3.229-1.432 6.157-4.061 5.573-5.006-1.065-1.725-9.264.996-10.938 3.63-.623.98-1.169 1.026-2.186.182-1.868-1.551-5.483.459-5.483 3.049 0 2.907-2.762 2.401-5.653-1.035-2.094-2.488-3.32-3.022-7.186-3.132-4.548-.128-4.576-.148-1.161-.829 2.753-.548 3.127-.863 1.754-1.473-3.612-1.607-22.067 2.364-26.46 5.692-.664.503-1.593.675-2.066.383-.473-.293-2.63.135-4.794.95-2.164.814-4.722 1.742-5.684 2.062-2.144.711-2.293 2.925-.25 3.709.825.316 1.5.238 1.5-.174 0-1.458 9.23-4.658 16.5-5.72 2.979-.436 2.977-.432-.25.575-1.788.558-3.25 1.409-3.25 1.892 0 1.029 3.945.21 5.737-1.191.681-.532 1.951-.694 2.823-.359.872.334 2.425.158 3.452-.391 2.169-1.161 3.587.286 1.727 1.762-.681.541-2.814 1.269-4.739 1.618-7.141 1.294-10.749 6.847-8.633 13.283 1.301 3.96-3.784 7.856-11.367 8.711-1.375.155-3.85.824-5.5 1.487-1.65.662-3.569 1.404-4.265 1.649-1.827.642-3.445 5.521-2.75 8.292 1.64 6.535-2.704 8.208-6.303 2.427-3.188-5.12-6.658-7.574-8.963-6.34-1.465.784-2.036.427-3.075-1.919-2.471-5.584-11.701-8.687-19.394-6.521-2.133.6-2.75.433-2.75-.746 0-1.872-5.824-6.924-7.085-6.145-1.701 1.052-1.108 4.961 2.267 14.948 2.198 6.502 2.653 10.808 1.287 12.174-1.634 1.634-3.695 1.7-5.227.168-1.751-1.751-4.242.794-4.242 4.335 0 3.439-3.207 10.92-5.496 12.82-.877.728-1.369 1.912-1.093 2.632.467 1.217-7.142 8.371-8.904 8.371-1.058 0-3.436 3.206-3.475 4.687-.043 1.61 6.026.578 10.746-1.829 8.283-4.223 8.327-1.112.079 5.642-8.514 6.971-13.83 12.671-13.845 14.844-.006 1.014-.912 2.079-2.012 2.366-2.433.637-2.542 2.034-.345 4.461 2.279 2.519-.12 2.364-2.655-.171-1.1-1.1-2-1.55-2-1 0 1.875-2.062 1.007-2.969-1.25-.497-1.238-.933-1.675-.968-.972-.043.87-1.253 1.156-3.79.896-3.152-.324-3.731-.753-3.75-2.778-.02-2.066-.436-2.35-3.023-2.06-1.65.185-3.428.747-3.95 1.25-1.542 1.483-2.55 1.054-2.55-1.086 0-1.1.623-2 1.383-2 1.462 0 2.753-4.482 1.918-6.657-.756-1.972-10.162-.897-11.877 1.358-.752.989-1.122 2.474-.822 3.299 1.129 3.102.797 3.507-3.102 3.783-2.2.155-5.575.447-7.5.647-1.925.201-5.88.483-8.79.627-2.909.145-5.523.641-5.809 1.103-1.697 2.745-2.603.344-1.973-5.226.68-6.013.667-6.055-1.502-4.894-2.106 1.127-2.163 1.036-1.512-2.435.406-2.16.281-3.605-.31-3.605-1.699 0-1.95 1.372-1.101 6.009.977 5.327.803 5.662-1.784 3.447-1.514-1.297-1.902-2.704-1.675-6.072.162-2.411-.101-4.384-.585-4.384-.485 0-1.799-.985-2.92-2.189-1.121-1.203-2.068-1.766-2.102-1.25-.035.517-.471-.073-.968-1.311-.498-1.238-1.603-2.25-2.456-2.25-1.116 0-1.39-.641-.978-2.282.315-1.255-.124-3.618-.975-5.25-3.008-5.769-1.767-9.251 3.604-10.11 3.127-.5 3.804-.966 3.266-2.245-.373-.887-.735-3.332-.804-5.433-.083-2.504-.729-4.158-1.876-4.8-1.05-.588-1.75-2.16-1.75-3.93 0-2.855 2.076-3.832 6.408-3.016.5.095 1.224-.339 1.61-.963.859-1.389 8.394.615 10.116 2.691.648.78 3.248 1.365 6.238 1.402l5.128.064-3.25 1.617c-1.787.89-3.25 1.986-3.25 2.436 0 1.161 2.766 1.015 5.173-.274 3.123-1.671 4.391.303 2.271 3.537-1.214 1.854-1.424 2.976-.693 3.707 1.391 1.391 5.249.105 5.249-1.75 0-.805.607-1.697 1.348-1.981 1.978-.759.277-7.343-4.181-16.182-2.403-4.764-4.122-7.086-4.997-6.75-.733.282-1.522.512-1.752.512-.23 0-.418.927-.418 2.059 0 1.132-.45 1.781-1 1.441-.55-.34-1-.141-1 .441s.45 1.059 1 1.059c1.736 0 1.083 2.885-.892 3.942-2.247 1.203-8.472-1.428-7.784-3.29.235-.634.901-1.05 1.481-.925 1.758.378 6.447-2.453 5.269-3.181-.59-.365-1.074-1.786-1.074-3.157 0-1.871-.749-2.754-3-3.539-4.871-1.698-3.212-4.444 2.425-4.014l2.983.227-1.954-2.282c-7.282-8.502-5.292-16.329 4.32-16.99 3.797-.261 4.344-.629 5.32-3.58.829-2.51 1.514-3.153 2.891-2.716 2.526.802 5.123-2.03 4.185-4.564-1.217-3.29-6.049-5.927-8.885-4.849-3.34 1.27-3.509 1.198-2.757-1.169.467-1.472-.02-2.722-1.651-4.243-2.086-1.942-2.137-2.189-.521-2.5.986-.19 2.631.413 3.655 1.34 2.787 2.522 3.849 1.082 3.706-5.024-.111-4.742-.366-5.415-1.877-4.935-2.554.81-6.617-2.258-7.338-5.541-.671-3.056-3.056-4.598-4.879-3.155-1.613 1.279-8.108.818-9.943-.706-2.399-1.991-6.947-1.024-8.334 1.771-.66 1.331-3.443 3.659-6.184 5.173l-4.984 2.753-.563-2.173c-.692-2.668-6.833-6.97-9.277-6.5-.983.19-2.337 1.447-3.009 2.794-1.875 3.762-5.137 4.549-6.495 1.567-1.44-3.159-3.704-3.962-5.807-2.058-2.505 2.266-6.374 1.848-9.027-.976-1.292-1.375-3.409-2.5-4.706-2.5-1.296 0-2.612-.664-2.923-1.475-1.079-2.812-8.923-5.639-10.704-3.858m35.846 37.313c-.38.613-1.65.982-2.824.818-1.898-.265-2.137.19-2.161 4.114-.027 4.203.113 4.42 2.972 4.584 1.65.095 3.955-.17 5.121-.588 1.167-.418 3.975-.29 6.24.285l4.118 1.045-.24 5.536c-.227 5.257-.098 5.584 2.554 6.479 3.398 1.146 7.707.215 7.707-1.666 0-.762 1.004-1.372 2.25-1.368 1.238.004 3.219-.31 4.404-.697 1.657-.543 2.306-.223 2.817 1.387.578 1.821 4.529 3.126 4.529 1.495 0-2.03-3.882-6.569-5.99-7.005-3.809-.786-5.472-1.92-5.88-4.006-.204-1.041-.991-2.781-1.75-3.866-1.36-1.943-1.38-1.941-1.38.144 0 1.163-.723 2.392-1.606 2.731-1.164.447-1.427 1.329-.956 3.205.47 1.875.292 2.472-.644 2.164-.712-.234-1.437-1.874-1.611-3.644-.245-2.488-.699-3.1-2-2.696-2.91.905-4.895-1.029-3.449-3.361 2.049-3.306.567-5.07-4.259-5.07-2.371 0-4.978-.256-5.792-.568-.814-.313-1.791-.066-2.17.548M143 87.5c-.685.825-1.617 1.5-2.071 1.5-.454 0-1.955 1.047-3.336 2.326-1.381 1.28-4.329 2.927-6.552 3.66-3.659 1.208-4.041 1.653-4.041 4.705 0 2.329.541 3.546 1.75 3.936.963.311 2.425.809 3.25 1.107 2.423.877 8.376.192 10-1.15 2.221-1.836 11.933-5.584 14.467-5.584 3.014 0 3.717-.959 1.976-2.7-.804-.804-1.166-1.94-.804-2.524.361-.585.806-2.349.989-3.92l.333-2.856h-7.358c-5.321 0-7.703.415-8.603 1.5m276.458 9.568c-.363.588-1.245.844-1.961.569-.718-.275-1.526.366-1.805 1.432-.278 1.062-1.357 1.931-2.398 1.931-1.994 0-4.294 1.772-4.294 3.308 0 1.71 5.497-.441 7.75-3.031 1.769-2.035 2.25-2.225 2.25-.889 0 .935.563 1.627 1.25 1.537 3.173-.412 3.806.181 3.591 3.363-.28 4.166.68 5.712 3.551 5.712 1.251 0 2.544.269 2.872.598.992.991-.376 3.402-1.93 3.402-.799 0-1.174.45-.834 1 .34.55 1.716 1 3.059 1 1.661 0 2.441.561 2.441 1.756 0 1.855 5.292 4.799 6.872 3.823.505-.312 1.191.142 1.523 1.009.991 2.58.69 5.217-.645 5.666-.982.33-.963.768.086 2.04.735.89 1.06 2.066.722 2.612-.682 1.104 2.446 3.094 4.863 3.094 2.217 0 4.285-5.669 4.435-12.155.07-3.059.807-7.187 1.636-9.172 2.253-5.392 1.974-13.811-.565-17.038-2.208-2.807-8.426-3.736-10.581-1.581-1.434 1.434-12.45 1.496-15.087.085-2.677-1.433-5.938-1.467-6.801-.071M80.5 105.865c3.913 1.773 3.946 1.829 1.5 2.608-4.157 1.324-5.664 4.983-1.636 3.972 1.628-.409 2.553-.103 2.969.981.899 2.341-.292 4.574-2.44 4.574-1.041 0-1.893-.675-1.893-1.5 0-2.169-1.426-1.854-4.923 1.089-3.517 2.959-3.869 4.391-1.246 5.077 1.345.352 2.17 2.183 3.108 6.906.746 3.749 1.793 6.428 2.515 6.428 2.168 0 4.771 3.715 4.095 5.844-.346 1.093-.162 2.277.41 2.631 2.238 1.383.85 2.525-3.066 2.525-3.334 0-3.993.298-3.5 1.582.334.87.607 2.178.607 2.906 0 .813.74 1.131 1.914.824 1.26-.329 2.298.215 3.036 1.594 1.112 2.079.934 2.307-1.95 2.498-2.164.142-1.845 2.687.5 3.987 1.1.61 2.188 1.222 2.418 1.361.23.138-.175 1.36-.901 2.715-1.449 2.709-.119 5.533 2.605 5.533 1.501 0 1.819-1.226.628-2.416-1.633-1.633-1.094-9.701.626-9.368 1.185.23 1.536 1.188 1.299 3.549-.186 1.843.137 3.235.75 3.235.591 0 1.075-.358 1.075-.795 0-.437 2.025-1.63 4.5-2.651 4.493-1.853 5.387-2.888 3.5-4.054-.55-.34-1-1.491-1-2.559 0-1.266-.687-1.941-1.975-1.941-1.661 0-1.88-.477-1.375-3 .54-2.698.346-3-1.918-3-2.273 0-3.732-1.596-3.732-4.082 0-.505.675-.918 1.5-.918s1.5-.873 1.5-1.941c0-2.51 1.836-3.65 2.614-1.622.357.929 1.672 1.508 3.243 1.427 2.356-.122 2.398-.183.393-.57-1.407-.271-2.25-1.157-2.25-2.364 0-1.061-.416-1.93-.923-1.93-.508 0-.25-1.35.573-3 1.474-2.954 4.6-4.023 5.85-2 1.139 1.842 2.5 1.025 2.5-1.5 0-1.375.439-2.5.975-2.5s.737 1.237.445 2.75c-.432 2.243-.059 2.963 2.025 3.906 2.022.915 2.555.885 2.555-.143 0-.715-.675-1.558-1.5-1.875-.901-.345-1.513-1.885-1.532-3.857-.017-1.804-.692-4.155-1.5-5.222-2.117-2.8-1.815-4.255 1.032-4.97 1.614-.405 2.5-1.329 2.5-2.608 0-2.412-.378-2.46-2.519-.319-1.938 1.938-3.439.485-3.466-3.353-.019-2.811-1.451-3.693-2.989-1.84-1.659 1.998-6.933.845-9.728-2.127-1.725-1.835-3.242-2.336-7-2.316l-4.798.026 4 1.813m329.401 4.938c-1.976 2.308-4.3 4.197-5.164 4.197-.864 0-1.747.53-1.963 1.177-.22.662-.937.84-1.637.407-.966-.596-.878-1.33.389-3.263 1.97-3.007 1.546-3.628-1.886-2.767-7.099 1.782-6.263 19.446.921 19.446 1.171 0 2.963.922 3.983 2.049 3.298 3.644 7.658 2.309 8.914-2.729.573-2.3 1.379-4.512 1.792-4.917 1.651-1.621.554-2.186-3.25-1.676-3.891.522-4 .455-4-2.44 0-3.38 3.147-6.828 5.431-5.952 1.892.726 3.065-1.023 1.763-2.629-.538-.663-1.141-2.082-1.34-3.153-.306-1.65-.909-1.306-3.953 2.25M188 124.5c0 1.553-.916 1.85-4.75 1.539-2.321-.188-2.703.616-1.626 3.422.566 1.475.805 1.46 2.597-.161 1.936-1.752 1.968-1.713 1.647 2.006-.219 2.544.161 4.101 1.153 4.728 2.137 1.351 2.979 1.18 2.979-.605 0-1.429.143-1.429 1.571 0 .865.864 1.99 1.571 2.5 1.571 1.678 0 4.929-3.958 4.929-6 0-2.674-1.861-2.549-2.876.192-.784 2.122-.833 2.105-1.498-.545-.378-1.507-.422-3.168-.098-3.693.325-.525-.056-.954-.847-.954-.79 0-1.996-.675-2.681-1.5s-1.64-1.5-2.122-1.5c-.483 0-.878.675-.878 1.5m-59.482 3.75c-.231.688-.554 2.375-.719 3.75-.228 1.905-.882 2.5-2.749 2.5-1.776 0-2.627.688-3.091 2.5-.824 3.212.743 5.492 2.674 3.89 1.113-.924 1.367-.463 1.367 2.488 0 1.992.402 3.622.893 3.622 1.319 0 2.175-2.84 1.063-3.527-1.902-1.176-.9-2.497 1.447-1.908 1.575.395 2.695.095 3.25-.869.466-.81 1.746-1.642 2.844-1.848 1.098-.206 2.736-1.94 3.64-3.854l1.643-3.481-4.64-2.247c-5.293-2.564-7.025-2.795-7.622-1.016M185.083 149c.079 7.771.409 10 1.478 10 .756 0 1.996 1.185 2.755 2.634l1.38 2.634.612-3.058c.337-1.683.217-6.579-.266-10.882-.482-4.303-.861-8.049-.841-8.326.158-2.218-.55-3.002-2.711-3.002h-2.509l.102 10m-50.408-7.342c-.362.362-.174 1.24.416 1.952 1.54 1.855.124 5.39-2.158 5.39-1.966 0-2.516 1.083-1.213 2.387.396.396.769 1.483.829 2.416.06.933.186 2.935.28 4.447.207 3.333 1.48 3.548 2.951.5 1.009-2.094 1.089-2.011 1.152 1.2.05 2.55.361 3.157 1.19 2.328.617-.617 1.742-.884 2.5-.593.902.346 1.378-.199 1.378-1.578 0-1.206.641-2.107 1.5-2.107.825 0 1.5.845 1.5 1.878 0 2.904 2.448 4.492 4.014 2.605.995-1.199 1.022-2.109.12-4.088-.638-1.399-.89-2.981-.561-3.514.33-.533-.104-2.042-.964-3.355-.859-1.312-1.856-4.217-2.214-6.456-.704-4.406-1.885-5.251-2.895-2.07-.406 1.278-1.513 2-3.067 2-1.766 0-2.433-.548-2.433-2 0-1.987-1.065-2.602-2.325-1.342m71.242 39.746c-.229.222-7.792.645-16.806.939-16.799.548-20.225 1.391-16.557 4.073 1.913 1.399 1.908 1.464-.337 3.853-2.788 2.967-1.528 4.502 4.444 5.415 2.111.322 4.603 1.25 5.538 2.06.934.81 3.634 1.604 6 1.763 6.699.451 9.743 1.48 9.127 3.085-.356.928.157 1.408 1.505 1.408 1.428 0 1.999.603 1.894 2-.179 2.382-1.317 2.55-3.368.5-2.36-2.36-5.168-2.053-3.012.329 1.807 1.996 2.23 5.171.69 5.171-.53 0-1.446.9-2.035 2-.909 1.699-.76 2 .99 2 1.277 0 2.421-.95 3.01-2.5.739-1.943 1.659-2.5 4.129-2.5 3.531 0 12.836 4.048 14.832 6.453 1.532 1.845 4.039 2.047 4.039.324 0-.672.726-.185 1.614 1.082 2.124 3.033-.428 8.255-4.851 9.924-4.31 1.627-3.049 3.795 1.972 3.391 2.229-.179 4.353.159 4.718.75.766 1.239 5.547 1.477 5.547.276 0-.44-.392-1.228-.871-1.75-3.049-3.326-.416-12.023 2.984-9.852 3.89 2.484 7.744 3.093 11.467 1.814 3.375-1.161 4.011-1.092 6.261.678 2.61 2.052 4.541 1.069 3.455-1.761-.352-.916 0-1.153 1.093-.733 1.04.399 1.611.087 1.611-.882 0-.825-.675-1.759-1.5-2.076-1.862-.714-1.976-4.241-.16-4.938 1.637-.628 1.032-6.344-.679-6.414-.639-.026-1.884-.35-2.768-.719-1.152-.481-1.941.135-2.786 2.176-1.034 2.495-1.608 2.797-4.643 2.443-2.113-.247-3.464.028-3.464.705 0 1.425-9.649 1.485-10.527.065-.355-.574-.101-1.699.563-2.5 1.232-1.484.757-1.813-2.197-1.523-.914.089-1.953-.309-2.309-.885-.357-.576-1.323-1.048-2.148-1.048-.825 0-1.222.45-.882 1 .34.55.141 1-.441 1s-1.059-.562-1.059-1.25c.001-.888-1.937-1.213-6.694-1.123-4.497.085-7.147-.325-8.072-1.25-.757-.757-2.47-1.377-3.805-1.377-1.336 0-2.429-.417-2.429-.927 0-1.558 3.325-1.747 6.702-.381 2.008.812 4.059.986 5.5.465 1.264-.456 5.877-.519 10.251-.14 4.374.38 8.723.488 9.665.242 1.068-.28 2.363.545 3.443 2.194 1.745 2.662 6.268 2.906 8.854.476.523-.49 1.419-.171 2.089.746 1.07 1.462 1.234 1.451 1.839-.127.455-1.186.099-1.881-1.128-2.202-.987-.258-2.226-1.454-2.754-2.657-.529-1.204-2.69-3.089-4.803-4.189-2.46-1.28-4.358-3.232-5.275-5.423-1.93-4.613-4.94-6.531-10.691-6.811-2.644-.129-5.782-.916-6.972-1.75-1.943-1.36-8.751-2.133-9.803-1.112m50.422 5.036c.304.793-.548 3.063-1.893 5.045-3.174 4.677-3.084 6.371.554 10.354 1.65 1.806 3 4.221 3 5.365 0 1.952.381 2.041 6.147 1.438 3.38-.353 6.98-.642 8-.642 1.019 0 1.853-.623 1.853-1.383 0-.761.886-1.615 1.968-1.898 1.754-.459 1.924-1.206 1.562-6.867-.44-6.894-2.492-8.777-3.652-3.352-.465 2.177-.674 2.405-.76.832-.247-4.525-1.151-5.612-3.157-3.797-1.638 1.482-2 1.486-4.206.04-1.328-.87-2.716-1.28-3.085-.912-.368.369-.67-.08-.67-.996 0-1-.8-1.667-2-1.667-1.111 0-2-.667-2-1.5 0-.825-.498-1.5-1.107-1.5s-.858.648-.554 1.44M78.555 196.526c-.92 1.939-1.391 4.414-1.047 5.5.349 1.098.167 1.974-.409 1.974-1.952 0 .067 2.883 2.236 3.192 1.605.228 2.084.89 1.852 2.558-.287 2.067 2.585 3.529 2.947 1.5.911-5.12.475-13.463-.727-13.924-.774-.297-1.407-1.392-1.407-2.433 0-2.984-1.618-2.217-3.445 1.633m249.407 11.02c-.705.85-1.848 1.328-2.539 1.063-.692-.266-1.506.164-1.809.954-.303.79-1.209 1.437-2.013 1.437-.804 0-1.63 1.012-1.836 2.25-.333 2.003-.541 1.866-1.896-1.25-1.503-3.454-1.539-3.471-2.732-1.248-1.512 2.815-7.004 5.187-10.475 4.524-3.433-.656-7.922.495-7.102 1.821.353.572 1.227.815 1.943.54.715-.274 1.518.258 1.785 1.182.267.925.809 2.468 1.206 3.431.506 1.23.253 1.75-.852 1.75-2.098 0-4.101 3.647-2.384 4.34.781.316.638.531-.386.581-.895.043-2.13-.527-2.746-1.269-1.397-1.684-7.138-1.955-7.094-.335.107 3.987 2.405 4.724 13.284 4.261 5.817-.247 11.47-.928 12.564-1.514 1.094-.585 4.781-1.064 8.194-1.064 4.737 0 6.52-.414 7.534-1.75 1.225-1.614 1.331-1.619 1.36-.059.045 2.369 1.636 3.091 4.011 1.82 1.612-.862 2.021-.777 2.021.422 0 .926.576 1.283 1.5.929 1.749-.672 1.818-.329.586 2.912-.739 1.943-1.47 2.323-3.807 1.98-1.844-.27-3.37.15-4.208 1.161-1.833 2.208-4.79 1.978-6.103-.475-1.469-2.745-4.462-2.09-4.49.983-.031 3.258-2.84 4.957-5.475 3.311-2.061-1.287-2.502-.754-2.078 2.516.09.688-.532 1.25-1.381 1.25s-1.544.483-1.544 1.073c0 1.664-3.494.593-3.545-1.087-.118-3.846-4.834.158-5.784 4.911-.373 1.863-1.308 3.886-2.079 4.495-1.926 1.524-.932 7.286 1.36 7.885.963.252 4.032.239 6.821-.029 4.943-.475 5.079-.417 5.399 2.305.18 1.536.951 2.998 1.713 3.248 1.102.363 1.233-.338.641-3.423-.41-2.133-.907-6.409-1.106-9.503-.347-5.382-.258-5.625 2.056-5.625 1.668 0 2.547.659 2.835 2.125.328 1.671.446 1.538.553-.625.168-3.403 3.854-3.824 6.63-.756 1.608 1.776 2.635 1.927 9.405 1.384 8.052-.646 10.101-1.535 10.101-4.384 0-.968.933-2.005 2.074-2.303 1.141-.298 2.319-1.476 2.617-2.617.298-1.141 1.11-2.074 1.803-2.074.694 0 1.821-.675 2.506-1.5 2.662-3.208 7.818-1.234 7.163 2.742-.195 1.187.187 1.561 1.198 1.173.816-.313 2.358.304 3.427 1.373 3.16 3.16 5.975.998 3.235-2.486-1.113-1.414-2.023-3.17-2.023-3.902 0-.731-.922-1.823-2.048-2.426-1.471-.787-1.864-1.676-1.395-3.153.47-1.483.274-1.92-.702-1.564-.745.271-1.242.999-1.105 1.618.138.619-.56 1.125-1.55 1.125s-2.34.54-3 1.2c-.933.933-1.2.83-1.2-.465 0-2.087-3.309-3.937-5.522-3.088-1.107.425-2.476-.301-4.073-2.159-2.302-2.679-2.486-2.724-4.324-1.061-1.839 1.664-1.934 1.639-2.251-.595-.216-1.527-1.106-2.442-2.58-2.652-2.567-.364-3.09-2.18-.628-2.18 1.329 0 1.398-.271.378-1.5-.685-.825-.91-1.5-.5-1.5.41 0 .18-.681-.51-1.512-1.354-1.632-4.507-.133-3.42 1.625.301.488-.379.887-1.511.887H329.5c-.816 0-.568-1.499.25-1.515 1.732-.036 3.25-1.741 3.25-3.652 0-1.687-.442-1.939-2.5-1.422-2.789.7-3.291-.51-1-2.411 1.628-1.351 2.041-4 .622-4-.482 0-1.454.695-2.16 1.546M311 216.429c0 .864-.675 1.571-1.5 1.571-2.339 0-5.5 3.736-5.5 6.5 0 2.58 1.368 3.331 2.559 1.404.373-.602 2.199-.918 4.059-.7 2.871.335 3.382.085 3.382-1.655 0-1.413.698-2.096 2.25-2.202 3.651-.248 9.782-2.754 9.4-3.842-.399-1.137-2.502-1.179-7.802-.156-2.721.525-4.059.297-5.25-.894-1.441-1.441-1.598-1.444-1.598-.026m-76.313 27.212c3.379 1.376-6.691 7.694-10.624 6.665-1.401-.366-2.063-.062-2.063.947 0 .935 1.764 1.943 4.75 2.715 2.613.675 5.348 1.408 6.08 1.629 1.547.467.628 6.452-1.166 7.592-.725.461-.496 1.339.691 2.651 3.863 4.269 14.088 3.441 13.458-1.089-.216-1.556.382-2.556 1.937-3.238 3.27-1.435 2.773-2.897-1.649-4.848-4.219-1.862-5.897-5.31-4.16-8.554 1.202-2.246.476-3.111-2.608-3.111-1.283 0-2.333-.45-2.333-1s-.787-.964-1.75-.921c-.963.043-1.216.296-.563.562" fill="#d3d3d3" fill-rule="evenodd"/></svg>