<svg xmlns="http://www.w3.org/2000/svg" width="500" height="402"><path d="M474.456 17.928c.315.51-.31 1.208-1.388 1.551-2.144.68-1.506 1.924 3.432 6.701 2.333 2.256 2.617 31.802 1.183 122.82-.839 53.287-1.137 218.016-.4 222 .254 1.375.605 3.175.781 4 1.238 5.828 1.489-22.193 2.32-259.5.175-50.05.66-92.687 1.077-94.75l.758-3.75h-4.169c-2.308 0-3.912.414-3.594.928M108.174 64.83c-1.503.212-2.138.821-1.794 1.718.293.763.102 1.654-.424 1.979-.526.325-.956 3.039-.956 6.032 0 4.933-1.227 7.261-2.234 4.24-.303-.909-.59-.893-1.184.068-.509.824-.101 1.446 1.164 1.777 1.439.376 1.827 1.141 1.484 2.933-.655 3.424-1.882 3.007-3.238-1.1-.856-2.595-2.26-4.077-5.327-5.623-4.957-2.499-9.401-6.494-10.686-9.604-.868-2.101-1.51-2.245-9.704-2.171-4.826.043-8.212.306-7.525.583.874.353 1.245 3.262 1.235 9.671-.011 6.288-.32 8.696-.985 7.667-.699-1.081-.941-.243-.866 3 .094 4.104.17 4.236.866 1.5l.763-3 .119 3.191c.065 1.755-.332 3.469-.882 3.809-.583.36-.994 5.91-.985 13.309.011 8.604.329 12.208.99 11.191.662-1.019.919 1.704.8 8.5-.096 5.5-.372 8.875-.614 7.5-.394-2.239-.514-2.298-1.142-.569-.386 1.062-.484 3.075-.217 4.472.445 2.328.551 2.376 1.257.569.757-1.937.772-1.936.841.055.038 1.116-.665 3.077-1.563 4.359-1.194 1.706-1.32 2.525-.466 3.053.642.396.908 1.395.592 2.219-.316.823-.129 2.67.416 4.103.705 1.853.659 2.716-.157 2.988-.847.283-.813 1.19.13 3.466.702 1.696 1.201 5.266 1.109 7.934-.32 9.198-1.955 8.351 16.126 8.351 15.624 0 16.1-.061 15.593-2-.67-2.564.772-2.578 2.56-.024 1.332 1.901 2.659 1.976 35.057 1.981 18.52.003 33.673-.383 33.673-.859 0-1.221 3.838-2.085 4.216-.949.296.886 5.486 1.068 26.128.916 8.007-.059 8.893-.256 9.372-2.088.467-1.783.665-1.838 1.674-.459 1.021 1.397 1.379 1.345 3.335-.477 1.205-1.122 2.715-2.041 3.356-2.041.833 0 .798-.441-.123-1.55-1.054-1.271-1.031-1.793.128-2.893 2.134-2.026 5.914-2.942 5.914-1.433 0 .701.65.399 1.468-.683.808-1.067 1.483-1.415 1.5-.773.018.643.29 1.84.604 2.66.362.942-.191 1.734-1.5 2.149-1.139.362-2.072 1.302-2.072 2.09 0 1.249-1.862 1.928-4.25 1.551-.412-.065-.75.486-.75 1.224 0 .932 1.487 1.357 4.87 1.391 2.678.027 5.828.354 7 .726 1.238.393 2.13.242 2.13-.36 0-.57.713-.763 1.584-.428 1.275.489 1.324.772.25 1.453-.888.563-.258.85 1.885.861 2.275.011 3.068-.376 2.707-1.318-.38-.991.298-1.214 2.642-.87 4.32.634 4.507.048 4.81-15.109.272-13.625-.656-17.179-3.952-15.142-3.237 2-7.926 2.256-7.926.432 0-.996.562-2.076 1.25-2.399.688-.324.002-.421-1.524-.218-1.525.204-3.015-.019-3.309-.495-.294-.476.193-.866 1.083-.866.89 0 1.335-.457.99-1.016-.346-.559-1.047-.758-1.559-.441-.512.316-.931.098-.931-.484 0-1.638 4.713-1.25 5.362.441.636 1.658 4.638 2.09 4.638.5 0-.55-.338-.887-.75-.75a.792.792 0 0 1-1-.5c-.649-1.946-.067-2.751 2-2.765 3.745-.026 4.713-1.342 5.362-7.291.598-5.484.533-5.696-1.746-5.757l-2.366-.064 2.25-.904c2.139-.86 2.25-1.438 2.25-11.737 0-7.293-.406-11.238-1.242-12.074-.988-.988-.982-1.402.033-2.029.906-.56 1.232-3.57 1.129-10.448-.08-5.332-.542-9.414-1.032-9.112-.489.302-.888 1.183-.888 1.959 0 .842-.604 1.178-1.5.834-2.285-.877-1.886-4.362.5-4.362 1.367 0 2-.667 2-2.107 0-1.535-.442-1.938-1.627-1.483-.913.351-2.12-.027-2.75-.86-.889-1.175-4.041-1.514-15.123-1.63l-14-.147-.593 4.864c-.558 4.581-1.448 1.971-.967-2.84.152-1.527-1.225-1.706-13.326-1.73-7.423-.015-13.86-.09-14.305-.166-.445-.076-2.384-.085-4.31-.019l-3.501.118-.287 5.5c-.183 3.499.112 5.5.81 5.5.603 0 .776.52.384 1.155-.48.776-.27.88.642.316.746-.461 3.065-.737 5.155-.614 3.046.18 3.811-.13 3.866-1.566.055-1.469.262-1.387 1.152.459.597 1.237 1.456 2.25 1.908 2.25.452 0 .384 1.154-.153 2.565-.536 1.411-.975 3.709-.975 5.107 0 1.849-.409 2.385-1.5 1.966-.885-.339-1.5-.012-1.5.8 0 .848.713 1.188 1.862.888 1.117-.292 2.105.145 2.469 1.093.664 1.732.178 1.843-2.831.643-1.497-.596-2.33-.264-3.313 1.321l-1.312 2.117.469-2.25c.261-1.252-.018-2.25-.629-2.25-.603 0-.264-.609.753-1.353 1.74-1.272 1.751-1.496.192-3.723-.913-1.303-1.66-1.833-1.66-1.178 0 .686-.685.928-1.615.571-1.755-.673-1.195 2.865.86 5.433.75.938.33 1.25-1.682 1.25-1.529 0-2.416-.429-2.064-.998.339-.549-.084-1.999-.941-3.223L176 84.555v2.722c0 1.806-.528 2.723-1.567 2.723-1.113 0-1.383-.581-.933-2 .495-1.56.18-2-1.433-2-2.212 0-2.768 1.449-.98 2.554.598.369.804 1.633.457 2.809A70.887 70.887 0 0 0 170.397 96c-.643 3.109-2.397 5.09-2.397 2.708 0-.931-1.307-2.857-2.904-4.28s-3.174-4.028-3.504-5.79c-.331-1.762-1.499-3.85-2.597-4.641-1.097-.791-1.995-2.191-1.995-3.111 0-.92-.596-1.901-1.324-2.18-1.441-.553-1.481 3.586-.124 12.544.5 3.301.373 4.75-.416 4.75-.625 0-1.136-.417-1.136-.928 0-.51-.478-4.361-1.061-8.559l-1.062-7.631 3.64-3.334c2.208-2.022 3.215-3.595 2.561-4-.593-.366-1.078-1.566-1.078-2.666 0-1.257-.429-1.735-1.155-1.287-.763.473-.88.271-.345-.595.517-.836.417-1.067-.276-.638-.597.369-1.368.213-1.714-.346-.977-1.58-5.51-1.23-5.51.425 0 .793.45 1.719 1 2.059.55.34 1 2.418 1 4.618 0 2.56-.381 3.764-1.059 3.346-.607-.375-.786-1.893-.42-3.558.515-2.345.343-2.791-.892-2.317-1.175.451-1.483-.071-1.329-2.251.167-2.376-.224-2.887-2.405-3.14-2.519-.293-2.59-.156-2.157 4.18.425 4.258.329 4.46-1.895 4.032-1.689-.325-1.865-.236-.63.32 1.087.488 1.42 1.245.912 2.068-.639 1.034-1.062.983-2.086-.251-.706-.851-1.952-1.547-2.768-1.547-1.574 0-5.943-4.931-5.521-6.231.138-.423-.537-.776-1.5-.784-1.481-.013-1.522-.16-.263-.956 1.144-.723.912-.904-1-.783-1.368.087-2.825.63-3.237 1.206-.514.719-.986.688-1.5-.097-.757-1.157-9.779-2.134-14.076-1.525m158.475 3.267c-1.145 1.337-2.523 1.908-3.802 1.573-1.517-.396-1.859-.142-1.403 1.044 1.046 2.727-.412 5.286-3.011 5.286-2.899 0-3.367 3.311-.859 6.082 1.455 1.608 1.228 2.059-3 5.956-2.516 2.319-4.574 4.698-4.574 5.286 0 .587 1.484-.37 3.298-2.128 3.518-3.41 5.227-3.961 6.04-1.946.318.789.533.645.583-.393.065-1.358 1.973-2.857 3.636-2.857.216 0-.045 1.154-.582 2.565-1.229 3.234-1.282 5.469-.085 3.578 1.119-1.765 2.336.104 1.495 2.296-.561 1.461-.755 1.445-1.987-.16-1.285-1.675-1.402-1.647-1.998.471-.743 2.641-1.344 2.76-3.959.782-2.771-2.096-3.441-1.883-3.441 1.09 0 2.218-.232 2.431-1.5 1.378-1.331-1.104-1.513 7.03-1.615 72.128-.063 40.354-.035 74.159.063 75.122.098.963-.301 1.75-.885 1.75-.585 0-1.063.702-1.063 1.559s.456 1.277 1.014.933c.964-.596.629 64.695-.428 83.508-.232 4.125-.202 6.488.066 5.25l.487-2.25h29.597c16.279 0 29.313-.284 28.966-.631-.902-.903 1.222-4.534 2.272-3.885.481.297 1.081-.253 1.334-1.222.46-1.762.511-1.572 1.067 3.988.186 1.858 56.618 2.396 56.64.54.012-.965.206-.99.771-.101.492.773 4.24 1.231 10.735 1.312 16.255.201 16.191.208 16.769-2.001.287-1.1.973-2 1.523-2 .55 0 .766.895.48 1.988-.694 2.654 1.19 3.235 6.985 2.152 2.618-.489 4.966-.554 5.219-.145.253.41 2.27.413 4.481.009 2.479-.453 4.022-.356 4.022.253 0 .611.49.581 1.284-.077.749-.622 1.856-.712 2.659-.215 3.493 2.158 3.557.93 3.557-67.878 0-37.339.377-67.372.837-66.739.487.672.597.109.263-1.348-.315-1.375-.579-21.962-.586-45.75-.012-37.772-.204-43.25-1.514-43.25-.825 0-1.5-.675-1.5-1.5s.649-1.5 1.442-1.5c1.206 0 1.454-3.346 1.514-20.5.077-21.585.145-21.249-4.144-20.639-.379.054-2.966.179-5.75.277-2.784.099-5.062.59-5.062 1.092 0 .502-.723.19-1.606-.693-1.024-1.024-2.021-1.276-2.75-.695-.629.501-1.989.603-3.022.226-3.362-1.225-7.475-.039-7.93 2.287-.41 2.095-.423 2.093-.556-.105-.238-3.942-5.669-3.13-6.686 1l-.801 3.25-.388-3.25c-.404-3.383-4.261-4.95-4.261-1.731 0 .836-1.208 4.625-2.685 8.421-2.623 6.742-2.715 6.843-3.983 4.398-1.077-2.076-1.058-2.967.112-5.229 1.923-3.719.424-6.186-1.816-2.988-.895 1.278-1.628 2.899-1.628 3.602 0 2.89-1.839.985-2.87-2.973-1.673-6.422-2.069-6.7-10.491-7.353-11.001-.853-14.983.024-14.382 3.168.256 1.339.12 2.435-.302 2.435s-.558.801-.303 1.779c.275 1.05-1.062 3.779-3.262 6.661-3.437 4.502-3.788 4.716-4.515 2.751-1.488-4.021.115-10.181 3.54-13.606l2.068-2.068-2.991-.572c-3.65-.697-5.492-.164-5.492 1.591 0 2.279-3.153 4.835-4.091 3.317-.972-1.573-1.05-1.484-3.606 4.147-4.07 8.968-3.762 12.386.893 9.895 2.197-1.176 2.555 3.154.644 7.79-.639 1.548-1.058 3.423-.933 4.165.144.859-.253 1.074-1.09.59-.724-.418-.986-.395-.583.051.404.446-.012 1.357-.925 2.025-.913.668-1.748 2.062-1.856 3.099-.107 1.037-.52 2.785-.917 3.885-.581 1.61-.327 1.515 1.303-.485 2.558-3.141 3.406-2.355 2.157 2-.714 2.489-.643 3.59.267 4.169.911.578.835.789-.29.801-.84.008-3.09 1.376-5 3.038-5.643 4.913-5.952 5.108-7.029 4.442-1.631-1.008-3.873 1.452-7.037 7.719-1.612 3.193-2.978 6.145-3.037 6.56-.303 2.14-2.568 4.061-3.853 3.266-1.172-.724-1.18-1.486-.053-4.9.734-2.224 1.659-3.843 2.057-3.597.397.245 2.203-2.357 4.012-5.783 1.81-3.427 4.118-7.303 5.129-8.615 2.201-2.855 2.545-8.323.473-7.529-.75.288-1.865 1.624-2.478 2.969-1.412 3.099-2.507 3.085-4.567-.057-1.506-2.299-1.509-2.753-.042-5.59.878-1.699 1.367-3.686 1.087-4.417-.281-.731.362-2.334 1.427-3.563 1.066-1.229 1.938-2.737 1.938-3.353 0-.615 2.025-3.324 4.5-6.02 2.475-2.696 4.5-5.204 4.5-5.575 0-1.774 3.273-6.905 5.445-8.536 1.34-1.006 2.18-2.243 1.867-2.748-.313-.506-.084-1.219.507-1.584 2.014-1.245-.438-3.13-4.384-3.372-3.922-.239-3.947-.217-7.59 6.76-2.011 3.85-4.094 7.485-4.629 8.078-.536.594-2.151 2.844-3.589 5-1.437 2.157-4.867 7.072-7.62 10.921-2.754 3.849-5.007 7.562-5.007 8.25 0 .688-.45 1.251-1 1.251s-1-1.485-1-3.3c0-1.815-.54-3.84-1.2-4.5-.933-.933-.837-1.2.433-1.2 1.727 0 3.296-3.335 2.315-4.922-.319-.517-.123-1.222.436-1.568 1.507-.932 1.231-2.177-.484-2.177-.825 0-1.5.6-1.5 1.334 0 .733-.45 1.333-1 1.333s-1-.627-1-1.393-.675-1.652-1.5-1.969c-.825-.316-1.5-1.334-1.5-2.262 0-1.54-.173-1.53-2 .124-2.472 2.237-2.677.246-.25-2.428 3.242-3.573 4.25-4.983 4.25-5.946 0-.528-.562-1.177-1.25-1.444-.794-.308.147-1.805 2.577-4.103 4.74-4.482 4.349-5.992-1.655-6.384-4.146-.27-4.672-.073-4.672 1.75 0 1.13-.338 2.055-.752 2.055-.413 0-1.849 2.069-3.191 4.599-2.317 4.368-2.483 4.481-3.304 2.262-.475-1.285-.635-3.977-.354-5.983.479-3.423.321-3.684-2.57-4.262-4.619-.924-5.229-.798-7.18 1.481m33.99-.235c-1.451.881-2.639 2.172-2.639 2.87 0 .697-.822 2.09-1.826 3.094-1.005 1.005-2.127 2.608-2.493 3.564-.388 1.01-1.16 1.432-1.844 1.009-.806-.498-.966-.176-.507 1.019.369.96.67 2.159.67 2.664 0 .505.482.918 1.071.918 1.384 0 3.996-2.6 3.306-3.29-.29-.29.406-.824 1.548-1.186 1.141-.362 2.075-.994 2.075-1.403 0-.409.925-1.736 2.055-2.949 1.864-2.001 2.199-2.06 3.619-.641 1.836 1.836 2.633 1.433 1.745-.882-.346-.901-1.031-1.389-1.524-1.084-1.167.721-1.136-.246.081-2.52 1.371-2.562-1.878-3.282-5.337-1.183M363 75c-.589 1.1-1.674 2-2.413 2-.738 0-1.902.675-2.587 1.5-.86 1.036-.898 1.5-.122 1.5.617 0 .334.837-.628 1.86-1.567 1.666-1.88 1.699-3 .309-.687-.853-1.25-1.082-1.25-.508 0 .573-1.35 2.455-3 4.182-3.41 3.568-3.784 5.667-1.25 7.023 2.669 1.429 3.451 1.423 4.373-.031.627-.989.85-1.013.862-.092.015 1.239 1.389.22 8.544-6.333 3.381-3.098 4.493-6.661 2.467-7.912-.552-.341-.728-1.718-.391-3.059.74-2.95-.133-3.189-1.605-.439m5.238 10.162c-.681.681-1.238 1.614-1.238 2.073 0 .459-3.192 3.903-7.094 7.653-6.258 6.014-7.497 6.787-10.508 6.548-2.229-.177-3.184.101-2.752.801.393.635.192.781-.491.358-.635-.392-1.155-.168-1.155.499s-.9.174-2-1.094-2-3.009-2-3.867c0-1.37-.176-1.382-1.434-.097-1.975 2.016-3.122 6.964-1.615 6.964.642 0 .908-.419.592-.931-1.193-1.929 1.266-1.937 3.01-.01 1.002 1.106 2.397 1.79 3.102 1.52 2.062-.791 2.452 1.02.571 2.65-2.219 1.924-7.954 3.02-8.783 1.678-.385-.621-1.154-.317-1.95.772-.724.989-1.124 2.109-.89 2.488.234.379-.469.973-1.562 1.32-1.094.347-2.952 1.983-4.128 3.636-1.31 1.839-2.706 2.787-3.601 2.443-1.969-.755-4.459 1.888-3.683 3.911.362.943-.206 2.547-1.353 3.824-2.957 3.288-3.5 5.708-1.848 8.23 1.331 2.031 1.289 2.415-.439 3.979-2.204 1.995-6.318 9.482-5.223 9.505.404.009.164.377-.532.819-.696.442-1.963 4.144-2.814 8.227-.851 4.082-2.206 8.15-3.011 9.039-3.779 4.176-5.622 24.887-3.283 36.9 2.749 14.122 3.598 32.421 1.816 39.153-1.845 6.971 2.414 12.042 4.423 5.265.476-1.605 1.495-4.409 2.264-6.232 1.47-3.48.578-19.767-1.534-28.012-2.269-8.863-3.314-28.86-1.971-37.747 1.853-12.26 8.943-28.774 15.517-36.141 2.285-2.56 3.949-5.192 3.697-5.847-.251-.656.591-1.455 1.872-1.777 1.282-.321 3.315-1.502 4.518-2.623 1.204-1.122 2.581-2.039 3.061-2.039s1.435-1.05 2.122-2.333c.687-1.284 1.775-2.396 2.419-2.471 4.558-.536 6.963-1.194 8.242-2.256.812-.674 1.749-.952 2.082-.619.876.875-4.557 6.974-8.654 9.715-9.253 6.192-23 24.052-23 29.882 0 .623-.919 3.708-2.043 6.857-2.352 6.59-3.741 30.033-2.044 34.497.575 1.513.61 2.727.082 2.911-1.373.481.669 8.574 3.71 14.704 2.159 4.352 2.802 5.025 3.349 3.5.649-1.81.697-1.806 1.195.113.286 1.1.571-.272.635-3.05.064-2.777-.242-5.477-.68-6-1.806-2.156-3.428-8.693-2.326-9.375.752-.464.801-1.708.155-3.959-.924-3.224.243-23.136 1.474-25.127.317-.514 1.481-4.384 2.585-8.599 2.182-8.333 5.22-15.028 7.891-17.39.932-.825 2.33-2.85 3.106-4.5a7.323 7.323 0 0 1 4.549-3.925c1.808-.533 3.927-2.228 5-4l1.862-3.075.316 2.745c.267 2.318-3.914 10.083-6.869 12.755-1.842 1.666-4.947 8.133-4.947 10.303 0 1.412-.531 3.834-1.18 5.382-1.062 2.531-2.726 15.131-2.797 21.169-.016 1.295-.759 3.896-1.653 5.779-1.157 2.438-1.428 4.642-.94 7.646.377 2.322.824 5.346.993 6.721 1.48 12.029 3.611 19.348 6.204 21.303 2.756 2.079 2.906 1.35.93-4.518-.794-2.357-1.932-10.81-2.529-18.785l-1.086-14.5 3.457-16.5c3.602-17.199 8.88-29.443 14.795-34.324 1.216-1.003 2.315-2.533 2.442-3.4.127-.867.823-1.951 1.548-2.411.724-.459.983-.841.575-.85-1.447-.03 5.446-10.025 8.331-12.079 1.613-1.149 2.706-2.457 2.428-2.908-.279-.45.151-1.071.956-1.38 1.626-.624 3.07.898 1.671 1.762-.487.302-1.159 1.908-1.491 3.569-.367 1.836-1.226 3.021-2.188 3.021-.871 0-1.325.419-1.008.932.891 1.442-7.214 21.045-8.708 21.06-.413.004-.762.795-.776 1.758-.014.963-1.149 5.125-2.521 9.25-2.323 6.984-2.486 8.772-2.374 26 .066 10.175-.011 18.95-.171 19.5-.16.55.243 3.375.896 6.279 1.128 5.015.828 19.165-.502 23.721-.953 3.262-4.913 8.549-5.801 7.745-.452-.41-.527-.23-.167.4.948 1.66-2.133 2.533-4.489 1.272-1.954-1.046-1.959-1.134-.178-3.102 1.008-1.114 1.72-2.203 1.583-2.42-.137-.217-.216-.508-.173-.645.633-2.069.559-3.75-.165-3.75-.845 0-1.311 1.471-1.03 3.25.065.413-.782.75-1.882.75-1.467 0-2 .667-2 2.5 0 1.375-.45 2.5-1 2.5s-1-.381-1-.847c0-2.266-3.703-4.884-6.751-4.772-3.475.127-4.091 2.378-2.355 8.614.729 2.622 4.083 4.104 4.138 1.828.02-.828.624-.574 1.615.677 1.536 1.939 1.569 1.917 1.108-.744-.28-1.619.082-3.206.885-3.872 1.002-.832 1.36-.833 1.36-.006 0 3.273 1.645 6.122 3.535 6.122.806 0 1.465.375 1.465.833 0 1.479 3.61.619 6.308-1.503 1.443-1.135 2.302-2.421 1.908-2.858-.394-.436-.142-.462.559-.058.701.404 1.151.335 1-.154-.151-.488 1.18-2.348 2.957-4.133 3.534-3.548 3.71-7.096 1.25-25.127-2.412-17.671.39-57.41 4.582-65 .76-1.375 2.446-5.211 3.747-8.524 1.301-3.314 4.166-8.714 6.365-12 2.2-3.287 4.578-7.439 5.284-9.226.705-1.787 1.678-3.25 2.161-3.25 1.209 0 1.103 1.376-.206 2.685-.597.597-1.194 3.049-1.328 5.45-.134 2.401-.932 5.956-1.775 7.901-6.887 15.903-10.693 33.111-10.93 49.425-.103 7.129-.55 14.329-.992 16-3.464 13.092-4.117 16.502-3.473 18.153.629 1.612 1.01 1.326 2.623-1.968 1.038-2.119 2.466-4.55 3.174-5.402.9-1.083 1.349-6.077 1.496-16.646.232-16.679 1.749-32.904 3.937-42.098 2.182-9.169 8.288-22.09 11.607-24.562.415-.309 2.582-4.34 4.815-8.959 3.352-6.93 3.88-8.796 3.023-10.676-.571-1.254-.789-2.928-.485-3.722.402-1.047-.359-1.53-2.777-1.762-3.069-.294-3.355-.618-3.644-4.127-.334-4.059 1.58-4.835 4.68-1.897 1.452 1.376 3.624 1.151 3.649-.378.009-.504.337-1.421.73-2.038 1.346-2.113-2.826-5.674-5.175-4.416-1.139.609-2.07 1.542-2.07 2.072 0 .531-.675.965-1.5.965s-1.5-.627-1.5-1.393.675-1.652 1.5-1.969c.825-.316 1.5-1.066 1.5-1.666 0-.599-.45-.812-1-.472-.55.34-1 .216-1-.274 0-.491-.653-.893-1.45-.893-.965 0-1.718 1.663-2.25 4.971-.623 3.87-1.307 5.157-3.09 5.815-1.623.6-2.244.487-2.131-.386.452-3.522-.306-3.702-3.079-.733-3.512 3.759-4.35 7.532-1 4.5 1.1-.995 2-1.345 2-.777 0 1.515-2.756 3.546-3.876 2.854-.529-.328-1.642.084-2.472.914-.83.83-2.104 1.516-2.831 1.524-1.075.013-1.08.169-.024.839 1.862 1.18-1.01 3.402-3.842 2.973-1.951-.296-1.569-1.084 4.043-8.327 3.409-4.4 6.856-9.268 7.661-10.818 1.68-3.238 1.426-5.367-.421-3.52m-151.794 6.659c-.519.373-1.088 1.579-1.265 2.679-1.016 6.342-1.47 7.647-2.231 6.416-.597-.967-1.134-1.006-2.155-.159-.872.724-1.886.796-2.827.201-.806-.51-2.366-.936-3.466-.947-1.1-.011-4.347-1.799-7.216-3.974-3.076-2.332-5.477-3.534-5.851-2.928-.35.565-1.265.786-2.034.491-.923-.355-1.439.217-1.517 1.681-.155 2.893-.154 2.901.708 5.119.749 1.925-.953 1.933-5.924.025-1.146-.439-1.386-.071-.976 1.496.299 1.143.967 2.079 1.486 2.079.518 0 .664-.45.324-1s-.141-1 .441-1 1.059.408 1.059.906c0 .499.9.671 2 .384 1.1-.288 2-.119 2 .375s1.125.992 2.5 1.106c2.871.237 3.182-1.335.843-4.271-1.572-1.973-1.586-1.97-1.062.25.293 1.237.176 2.25-.258 2.25s-1.027-1.237-1.316-2.75c-.591-3.089.593-6.192 1.687-4.422.368.597 1.274.853 2.013.569.9-.345 1.343.298 1.343 1.953 0 1.357 1.181 3.742 2.625 5.299 1.497 1.614 2.625 2.245 2.625 1.468 0-1.097.292-1.12 1.5-.117.825.685 1.5.877 1.5.426 0-.45 1.575.708 3.5 2.574 1.925 1.866 3.5 2.806 3.5 2.089 0-.747.64-1.058 1.5-.727 1.126.432 1.5-.165 1.5-2.393 0-1.636.898-3.867 2-4.969 1.1-1.1 2-1.622 2-1.161 0 .818 5.031 3.521 5.487 2.948 1.817-2.281-3.865-13.532-6.043-11.966m66.73 9.005c-1.768 2.692-2.101 4.039-1.388 5.608.674 1.482.372 3.557-1.067 7.341-1.846 4.856-2.141 5.153-3.701 3.742-1.563-1.416-1.792-1.127-2.958 3.731-.694 2.896-1.099 6.388-.899 7.759.33 2.264.63 2.033 3.261-2.507 1.593-2.75 4.175-6.99 5.737-9.421 1.563-2.432 2.841-4.968 2.841-5.636 0-.668.672-2.503 1.494-4.079 1.819-3.488 1.966-8.979.256-9.616-.687-.256-2.297 1.129-3.576 3.078m-71.059 10.983c-.063.72-.565 1.031-1.115.691-.55-.34-1-.141-1 .441s.45 1.059 1 1.059 1 .675 1 1.5c0 2.156-3.649 1.851-6-.5-2.392-2.392-3-2.494-3-.5 0 .825.45 1.5 1 1.5s1 .48 1 1.067c0 1.308-4.181.148-5.235-1.452-.45-.684-.74-.398-.75.74-.013 1.559-.653 1.794-4.015 1.474-2.2-.21-4-.032-4 .395 0 .427.45.776 1 .776 1.439 0 1.234 2.739-.25 3.338-.747.301-.545.536.5.583 2.747.124 2.055 1.87-1.463 3.689-1.767.914-4.05 2.725-5.072 4.026-2.4 3.05-5.117 3.206-4.175.239.377-1.187.275-1.879-.231-1.566-.497.307-1.558.146-2.357-.36-1.199-.758-1.141-.921.329-.934.98-.008 1.998-.577 2.262-1.265.264-.687 1.63-1.317 3.034-1.398 2.93-.17 4.525-1.411 2.667-2.074-.691-.247-1.002-.86-.691-1.363.311-.503.126-.915-.411-.915-.536 0-1.125.416-1.309.925-.183.509-1.008 1.071-1.833 1.25-.825.179-1.831.775-2.235 1.325-.42.572-.741.286-.75-.667-.008-.916.455-1.823 1.029-2.014.574-.192.106-1.354-1.039-2.584-2.209-2.37-9.005-3.215-9.005-1.118 0 .642.893.883 2.104.566 1.846-.483 2.051-.191 1.673 2.383-.43 2.93.607 4.048 1.561 1.684.553-1.371.819 1.174.897 8.579.045 4.235.28 4.758 1.908 4.25 3.181-.992 6.418-1.63 5.107-1.007-.687.327-1.25 1.284-1.25 2.126 0 1.348.301 1.335 2.5-.106 2.295-1.504 2.934-1.343 2.618.658-.065.412.83.75 1.989.75 1.377 0 1.924-.476 1.579-1.376-.312-.813.481-1.835 1.94-2.5 3.041-1.385 3.67-1.412 2.874-.124-.34.55-.093 1 .548 1s.907-.675.59-1.5c-.316-.825-.139-1.5.393-1.5.533 0 .969.45.969 1s.498 1 1.107 1 .862-.638.563-1.417c-.299-.78.088-1.66.861-1.957 2.659-1.02 2.636 1.467-.046 4.983-1.478 1.937-2.446 3.763-2.153 4.057.898.897 2.74-.726 3.705-3.263.502-1.322 1.648-2.403 2.545-2.403 1.033 0 1.423.546 1.062 1.486-.42 1.093.08 1.432 1.893 1.282 1.355-.112 2.463-.583 2.463-1.045 0-.463.388-.601.863-.308 1.164.719 2.06-16.134 1.118-21.02-.413-2.142-.803-3.306-.866-2.586m85.221 2.03c-.59 1.464-1.86 4.911-2.821 7.661-.962 2.75-2.776 6.575-4.032 8.5-3.548 5.439-3.927 7.706-1.537 9.198 2.96 1.849 2.6 2.965-2.499 7.744-4.198 3.935-4.444 4.429-3.164 6.358 1.572 2.367 3.717 3.405 3.717 1.798 0-.587 1.35-3.262 3-5.944 1.65-2.681 3-6.277 3-7.99 0-1.714.898-4.589 1.996-6.39 1.098-1.801 1.998-3.858 2-4.572.002-.714.904-3.161 2.004-5.438 2.267-4.691 2.537-9.475.673-11.925-1.138-1.497-1.37-1.398-2.337 1m93.639 2.726c-.536 1.411-.975 3-.975 3.531 0 .532-.562 1.184-1.25 1.449-.687.265-1.295 1.767-1.35 3.336-.055 1.57-1.997 6.605-4.315 11.19-2.319 4.584-4.839 10.724-5.599 13.644-.761 2.92-1.658 5.754-1.993 6.297-.336.543-.022.995.698 1.003 1.039.012 1.049.181.048.816-1.436.912-3.588 29.172-2.599 34.121.327 1.634-.171 6.092-1.106 9.908-2.628 10.725-1.511 13.22 1.63 3.64 1.907-5.816 2.655-10.283 2.74-16.362.064-4.599.398-8.818.743-9.377.345-.558.591-4.22.547-8.138-.044-3.917.186-6.448.513-5.623.326.825.985 1.758 1.465 2.073 1.652 1.084 2.516 23.218 1.363 34.927l-.541 5.5 2.01-5.449c1.351-3.664 2.163-8.904 2.479-16 .404-9.063.837-15.08 2.02-28.051.126-1.375.501-3.175.834-4 2.619-6.489 4.324-21.474 2.567-22.559-.603-.373-.865-1.862-.582-3.309.588-3.009 2.496-10.784 3.283-13.382.839-2.772-1.547-2.032-2.63.815m3.629 6.635c-1.711 6.154-1.708 6.213.427 7.823 2.106 1.589 2.125 1.836.914 12.05-.679 5.735-1.185 15.968-1.123 22.74.074 8.12-.362 13.738-1.279 16.5-1.565 4.715-1.823 6.569-1.658 11.937.21 6.828 1.813 3.892 3.004-5.5 1.89-14.899 2.073-17.361 2.652-35.75.389-12.323 1.092-19.495 2.376-24.243l1.825-6.744-2.323-2.506c-3.041-3.281-2.831-3.442-4.815 3.693m-261.405 1.423c-.716.771-1.051 1.808-.744 2.304.307.496.145 1.053-.359 1.238-.504.184-1.122 2.36-1.374 4.835-.251 2.475-.264 3.745-.029 2.823.235-.923 1.075-2.215 1.866-2.872 1.215-1.009 1.346-.724.836 1.825-.983 4.912 4.268 23.791 5.325 19.149.198-.866-.585-3.778-1.739-6.47-2.016-4.702-2.027-4.949-.29-6.237 1.719-1.275 1.722-1.406.059-2.64-1.902-1.411-2.356-3.578-.75-3.578.55 0 1 .45 1 1s.472 1 1.05 1c.646 0 .935-2.211.75-5.75-.202-3.865-.722-5.75-1.586-5.75-.708 0-1.608-.513-2-1.139-.516-.823-1.076-.75-2.015.262m24.929 57.649c-1.691 1.691-1.376 2.541 1.122 3.022 1.711.33 1.508.466-.847.57-2.303.101-3.376-.441-4.183-2.114l-1.085-2.25-.146 2.5c-.081 1.375-.374 1.938-.651 1.25-.889-2.203-2.171-1.336-1.885 1.274.153 1.389-.112 2.765-.588 3.059-.476.294-.865-.418-.865-1.583s-.437-1.848-.971-1.518c-.534.33-1.266-.577-1.626-2.014-.438-1.743-.99-2.281-1.657-1.614-.633.633-1.884.664-3.408.085-4.286-1.63-7.832.298-5.985 3.255.702 1.124 1.313 1.347 1.751.638 1.373-2.222 3.024.311 2.29 3.513-.398 1.735-.677 3.942-.621 4.905.137 2.341-1.003 2.213-2.565-.289-1.35-2.161-3.208-1.815-3.208.598 0 .793.787 1.47 1.75 1.504 1.341.049 1.224.275-.5.968-1.238.498-2.25 1.369-2.25 1.937 0 .567-.47 1.032-1.044 1.032-.574 0-.971-.562-.881-1.25.322-2.48-.093-3.857-.994-3.3-1.173.725-4.081-2.141-4.081-4.021 0-.786-.482-1.429-1.071-1.429-1.417 0-3.929 2.557-3.929 4 0 .629-.675 1.818-1.5 2.643-1.678 1.678-2.052 3.816-.5 2.857.55-.34 1-.141 1 .441 0 1.769-2.075 1.188-3.928-1.1-1.043-1.288-2.241-1.855-2.97-1.404-.906.56-.77 1.085.525 2.032 1.628 1.191 1.598 1.325-.44 1.972-1.203.381-2.187 1.113-2.187 1.626 0 .513-.852.933-1.893.933s-2.139.64-2.439 1.422c-.35.912-1.342 1.214-2.763.843-1.417-.371-1.983-.2-1.567.473.411.664-.547 1-2.593.908-2.664-.12-3.303.26-3.566 2.119-.177 1.245-.74 2.006-1.25 1.691-.511-.316-.929-.109-.929.46 0 .678-.825.721-2.397.123-1.319-.501-2.669-.64-3-.308-.332.331-.603-.162-.603-1.096s.675-1.957 1.5-2.273c2.107-.809 1.868-1.726-.75-2.875-1.237-.543-2.25-1.662-2.25-2.487 0-1.669-5.183-2.547-9.153-1.551-1.833.46-2.339 1.219-2.215 3.324.089 1.5-.111 4.977-.444 7.727s-.375 4.259-.093 3.353c.544-1.751 4.405-3.293 4.405-1.759 0 .498.9.906 2 .906s2 .454 2 1.01c0 .555-.9 1.78-2 2.722s-2 2.794-2 4.115c0 2.195.281 2.339 3.25 1.667 6.288-1.424 9.75-.131 9.75 3.64 0 2.698-2.479 3.322-7.325 1.844-9.166-2.796-10.395-2.354-10.941 3.936-.575 6.633-.69 6.459 4.299 6.519 3.942.047 5.411 1.779 2.467 2.909-.825.316-1.5.084-1.5-.516 0-.726-.494-.681-1.479.137-1.189.986-1.247 1.648-.298 3.372.649 1.18 1.281 2.747 1.403 3.483.123.735.994 2.19 1.936 3.231 1.4 1.547 1.483 2.172.454 3.412-1.442 1.737-5.016 2.055-5.016.448 0-.59-.675-.397-1.5.428-1.672 1.672-2.063 7.643-.5 7.643.55 0 1-.502 1-1.117 0-.624.882-.886 1.999-.594 1.099.288 2.251.115 2.559-.383.924-1.495 2.108-1.025 2.125.844.009.962-.816 2.823-1.833 4.135-1.018 1.312-1.85 1.874-1.85 1.25 0-.624-.498-1.135-1.107-1.135s-.859.646-.556 1.436c.303.79-.324 2.549-1.393 3.908-2.264 2.878-2.569 4.419-.541 2.737 1.077-.895 1.503-.865 1.837.127.461 1.371 3.907-.644 3.513-2.054-.387-1.386 5.349-9.154 6.76-9.154.855 0 1.517-.957 1.557-2.25.067-2.139.111-2.151.893-.25.593 1.445.306 2.416-1.037 3.5-1.023.825-1.829 2.4-1.791 3.5.037 1.1-.396 3.462-.964 5.25-.613 1.931-.654 3.25-.101 3.25.511 0 .93-.364.93-.809 0-.445.698-1.682 1.552-2.75 1.497-1.872 1.528-1.856.884.46-.55 1.98-.369 2.287 1.03 1.75.934-.358 2.223-.658 2.866-.666.67-.009.529-.429-.332-.985-1.333-.862-1.333-.973 0-1 1.149-.023 1.202-.22.226-.839-.973-.617-.795-1.241.75-2.64 1.113-1.007 2.06-2.774 2.103-3.926.044-1.182.308-1.524.604-.784.412 1.029.913.96 2.33-.323 1.684-1.524 1.852-1.49 2.481.494.372 1.17 1.161 1.966 1.753 1.769 1.667-.556 1.731-3.545.091-4.175-.807-.309-1.142-1.084-.747-1.723.479-.776.278-.89-.606-.343-.946.584-1.153.369-.724-.748 1.171-3.051-.621-2.698-4.009.79-1.997 2.056-3.199 4.144-2.874 4.991.957 2.494-.814 1.579-2.034-1.051-.938-2.022-.891-2.492.25-2.492.773 0 1.406-.477 1.406-1.059s.498-.751 1.107-.375c.745.46.887-.01.435-1.434-.526-1.656-.331-1.988.893-1.519 3.333 1.279 1.445-2.282-2.558-4.826-2.589-1.645-3.121-6.787-.701-6.787.518 0 .628.508.244 1.13-.426.689-.157.94.691.643.764-.267 2.453-.092 3.753.389 2.027.75 2.261.623 1.639-.893-1.196-2.917-1.082-4.785.275-4.51.703.143 1.527-.391 1.833-1.187.311-.81 1.287-1.212 2.222-.915 1.271.406 1.35.305.332-.424-1.031-.739-.812-1.092.965-1.557 2.808-.734 3.987.887 2.839 3.905-.62 1.631-.459 2.401.588 2.803 1.037.397 1.449-.213 1.465-2.165l.022-2.719L110 245c2.409 3.079 2.516 4.135.336 3.299-1.037-.398-1.418-.241-1.011.418.359.581-.017 1.612-.836 2.292-1.912 1.587-1.907 2.991.011 2.991.825 0 1.5.502 1.5 1.117 0 .624.882.886 2 .593 1.1-.287 2-.115 2 .384 0 .498-.914.906-2.032.906-1.118 0-3.658.679-5.646 1.51-3.412 1.425-3.522 1.612-1.966 3.331.907 1.002 1.347 2.122.98 2.49-.368.368.531.669 1.997.669 3.259 0 3.418-1.553.417-4.056-2.582-2.154-1.183-2.621 1.777-.593 1.085.743 3.21 1.651 4.723 2.019 1.513.367 2.75 1.11 2.75 1.649 0 1.296-2.325 1.256-3.642-.061-.724-.724-1.435-.57-2.323.5-1.047 1.262-1.031 1.545.093 1.557 1.078.012 1.05.224-.128.985-1.173.758-.914.973 1.191.985 2.806.016 4.519 1.458 2.911 2.452-.512.317-1.11.038-1.329-.618-.256-.768-1.204-.388-2.657 1.065-2.252 2.252-2.263 2.253-3.993.258-1.162-1.34-2.195-1.715-3.131-1.137-.768.475-1.704.673-2.081.44-.376-.232-.918.472-1.204 1.566-.286 1.094-1.292 1.989-2.236 1.989-1.341 0-1.467-.3-.576-1.373 1.269-1.53.415-4.937-1.016-4.052-.501.31-.635 1.01-.297 1.557.337.547-.073 1.753-.913 2.681-1.89 2.088-1.831 3.334.232 4.905 1.445 1.101 1.427 1.221-.182 1.25-.98.018-2.04.704-2.355 1.526-.316.822-.864 1.343-1.219 1.159-.355-.185-1.409.47-2.344 1.454-1.601 1.688-1.589 1.825.212 2.397 1.051.334 2.867.095 4.035-.53 1.168-.625 2.374-.886 2.679-.58.72.72-3.843 4.529-5.477 4.573-1.705.045-1.582 1.692.177 2.367.785.301 1.982-.122 2.66-.939.678-.817 1.781-1.276 2.451-1.019.67.257 1.684.002 2.253-.567.569-.569 1.539-.723 2.155-.342.73.451.271 1.361-1.315 2.609-1.34 1.054-3.624 3.943-5.076 6.42-1.452 2.477-3.295 4.504-4.097 4.504-1.604 0-1.624.047-2.017 4.845-.235 2.865 0 3.273 1.642 2.843 1.054-.275 1.917-.066 1.917.465s.45.687 1 .347c2.081-1.286 3.351.768 1.401 2.267-1.417 1.09-1.564 1.588-.578 1.955.986.368.775 1.077-.825 2.78-2.505 2.666-1.179 4.201 2.109 2.441 2.285-1.223 4.411.41 3.163 2.429-.337.546.085.706.967.367 1.052-.403 1.765.116 2.171 1.58l.605 2.181 1.971-2.5c2.573-3.263 2.511-3.817-.367-3.267-1.31.25-2.687-.037-3.059-.639-.372-.602-.173-1.094.442-1.094s.84-.45.5-1c-.34-.55.057-1 .882-1s1.766.43 2.091.956c.325.526 1.139.764 1.809.528 1.687-.593 5.066 2.144 4.259 3.449-.371.601.109 1.067 1.1 1.067 1.401 0 1.506.253.517 1.242-.988.988-1.44.938-2.218-.25-.816-1.247-1.412-1-3.633 1.508l-2.657 3 2.425.346c1.334.19 3.072.865 3.862 1.5 1.166.936 1.314.823.782-.596-.486-1.296-.146-1.75 1.312-1.75 1.083 0 1.969.466 1.969 1.035 0 .702.644.691 2-.035 1.1-.589 2-1.715 2-2.504 0-.863.597-1.204 1.5-.858 1.459.56 1.956-.578 1.542-3.532-.272-1.94 2.128-3.21 3.662-1.937.699.58 1.928.802 2.732.494.885-.34 1.7.19 2.065 1.342.614 1.933 4.792 2.219 8.589.587.934-.401 2.122-.041 2.881.874 1.163 1.4 1.428 1.38 2.644-.205 1.267-1.651 1.391-1.621 1.979.465.796 2.826 4.406 1.325 4.406-1.833 0-1.856.14-1.896 1.581-.455.869.869 1.974 1.337 2.456 1.039 1.052-.65.122-3.477-1.144-3.477a.901.901 0 0 1-.893-.903c0-.497 2.137-.083 4.75.92 4.209 1.616 4.715 2.13 4.444 4.519-.296 2.609-.184 2.674 3.5 2.01 2.093-.378 7.024-.625 10.956-.551 4.131.079 7.429-.314 7.809-.929 1.028-1.663 2.345-1.258 3.041.934.799 2.516 2.905 2.659 2.25.152-.266-1.016.149-2.929.921-4.25 1.364-2.333 1.386-2.305.76.973-.448 2.347-.308 3.167.462 2.691.668-.413 1.107.108 1.107 1.316 0 1.1.45 2.278 1 2.618.55.34 1-.068 1-.906 0-.838.87-1.989 1.934-2.559 2.584-1.382 3.066-1.309 3.066.465 0 .825.385 1.5.856 1.5.472 0 .809-1.349.75-2.998-.058-1.648-.444-2.998-.856-3-.412-.001-.75-.645-.75-1.431 0-.785-.562-2.023-1.25-2.75-1.724-1.822-2.109-7.817-.504-7.836.854-.011.785-.312-.217-.946-.809-.512-1.161-1.241-.781-1.62.379-.379 1.839.063 3.244.984 1.405.921 3.107 1.568 3.781 1.439 1.838-.351 5.727 1.16 5.727 2.225 0 .513.675.933 1.5.933 1.189 0 1.5 1.438 1.5 6.941 0 6.612 1.327 9.975 2.614 6.622.847-2.205 3.053-1.943 3.676.438.288 1.101.115 1.75-.383 1.441-.499-.308-.907-.083-.907.499s1.238 1.045 2.75 1.027c2.5-.029 2.591-.152 1-1.36-2.157-1.637-2.238-2.608-.219-2.608.843 0 1.791-.675 2.107-1.5 1.092-2.844 6.938-1.857 9.669 1.633 2.742 3.504 5.044 3.113 4.088-.694-.576-2.296.221-2.993 2.903-2.541.439.074.509-1.409.155-3.296-.54-2.881-.289-3.619 1.573-4.616 1.485-.794 1.991-.823 1.536-.086-.384.621.002 1.1.887 1.1 1.311 0 1.366-.324.334-1.975-1.042-1.669-.927-2.201.742-3.429 1.834-1.35 1.85-1.502.225-2.132-.963-.373-1.75-1.455-1.75-2.404 0-2.405-1.083-3.236-2.588-1.987-2.848 2.363-4.3-6.024-1.964-11.336.457-1.038.273-2.369-.448-3.237-.673-.811-.964-2.151-.647-2.977.389-1.014-.223-1.703-1.881-2.119-1.352-.34-2.21-1.019-1.906-1.511.304-.491.119-.893-.41-.893-1.164 0-2.05-6.859-2.746-21.25-.292-6.044-.128-10.75.375-10.75 1.56 0 3.855-8.287 2.427-8.763-.673-.224-1.017-.743-.764-1.152.253-.41-.428-3.702-1.512-7.317-1.749-5.83-2.223-6.525-4.204-6.159-1.227.227-1.669.146-.982-.181.688-.327 1.25-1.195 1.25-1.928 0-.733.563-1.56 1.25-1.838 1-.403 1-.52 0-.583-.687-.043-1.25-.829-1.25-1.746 0-.916-.284-1.382-.631-1.035-1.109 1.109-4.369-1.299-4.369-3.226 0-1.022-.675-2.117-1.5-2.434-.825-.316-1.5-.139-1.5.393 0 .533-.45.969-1 .969s-1-.702-1-1.559.453-1.279 1.007-.937c.554.343 1.31-.166 1.68-1.131.387-1.008.172-1.92-.507-2.146-.649-.217-1.232-1.369-1.296-2.56-.089-1.658-.223-1.761-.569-.439-.419 1.597-.637 1.607-2.884.135-1.854-1.215-2.431-1.283-2.431-.287 0 .806-.519.596-1.355-.547-.883-1.208-1.973-1.617-3.127-1.174-.974.374-2.389.167-3.145-.46-1.071-.89-1.373-.771-1.373.542 0 .924-.414 1.425-.919 1.113-.506-.313-1.599.111-2.429.941-.83.83-2.243 1.509-3.14 1.509-.896 0-1.352.45-1.012 1 .34.55.141 1-.441 1-3.023 0 .383-5.94 4.191-7.309 2.45-.88 2.215-3.691-.309-3.691-1.132 0-1.81.403-1.506.895.305.493-.104 1.148-.909 1.457-.804.308-1.728.13-2.053-.396-.325-.526-.211-.956.254-.956.464 0 .844-.9.844-2s-.605-2-1.344-2c-.74 0-1.067-.45-.727-1 .34-.55-.139-1-1.063-1-1.423 0-1.479.244-.363 1.589 1.134 1.367 1.046 1.541-.628 1.25-1.207-.21-1.842.164-1.671.985.164.793-.199 1.032-.905.596-.789-.488-.911-.296-.37.58.535.866.418 1.068-.345.595-.635-.392-1.155-.241-1.155.336s-.9.279-2-.663c-1.1-.942-2-2.455-2-3.362 0-1.14-1.185-1.84-3.831-2.263-4.607-.737-8.173-3.971-5.845-5.302 1.202-.688 1.233-1.06.169-2.041-1.037-.956-1.436-.662-1.966 1.448-.499 1.987-.878 2.302-1.519 1.264-.707-1.144-1.129-1.157-2.432-.075-1.304 1.082-1.588 1.071-1.646-.065-.039-.754-.418-.482-.843.606-.741 1.896-.825 1.879-2.046-.402-1.114-2.081-1.071-2.302.343-1.759 3.124 1.199 1.492-2.053-2.006-3.995-1.575-.875-2.412-.888-3.25-.05m125.465 8.813c-1.05 3.528-2.253 7.99-2.675 9.915-.421 1.925-1.445 6.204-2.274 9.508-.98 3.906-1.619 12.291-1.826 23.964-.317 17.91-.312 17.959 1.995 19.115 1.272.638 2.204 1.555 2.071 2.037s.514 1.021 1.437 1.199c.924.178 1.679-.186 1.679-.809 0-.622.495-.826 1.101-.452.621.384.853 1.919.532 3.521-.312 1.561-.102 3.127.466 3.478 1.234.763 3.967-2.645 3.164-3.945-.308-.498.535-.697 1.874-.441 2.411.461 2.431.401 2.033-6.105-.485-7.924-.498-7.942-3.932-5.411-2.837 2.091-5.238 2.071-5.238-.042 0-.67-.53-1.747-1.177-2.394-1.279-1.279-1.857-23.025-.625-23.47.384-.139.937-6.226 1.228-13.527.291-7.301 1.017-14.186 1.613-15.3.597-1.114.944-3.202.773-4.641-.237-1.986-.771-1.071-2.219 3.8M419 186.139c0 .26-2.925 6.947-6.499 14.859-4.384 9.704-6.133 14.611-5.374 15.08.753.466.069 2.23-2.072 5.342-3.344 4.86-7.503 13.466-6.832 14.136 2.142 2.142 14.967-22.926 17.936-35.056.538-2.2 1.656-6.179 2.484-8.843.828-2.663 1.247-5.101.931-5.416-.316-.316-.574-.362-.574-.102M403.472 198.5c-.425 1.65-1.831 5.334-3.123 8.186-1.292 2.852-2.349 5.89-2.349 6.75 0 .86-.459 1.564-1.019 1.564-.561 0-.785 1.012-.498 2.25.286 1.238.716 3.984.956 6.104.637 5.634 1.267 5.562 3.919-.45 2.659-6.027 4.496-13.44 2.703-10.904-1.729 2.445-3.044-.626-1.877-4.384 2.525-8.129 2.912-9.819 2.503-10.926-.242-.654-.789.16-1.215 1.81m-111.311 19.25c-.667 9.213-1.479 17.762-1.804 19-.432 1.649-.159 2.25 1.026 2.25.89 0 1.617-.445 1.617-.988 0-.544 1.012-.881 2.25-.75 3.076.325 3.662-8.204 1.139-16.59-1.508-5.014-1.553-5.958-.321-6.75 1.099-.708 1.147-1.107.208-1.715-.674-.437-1.168-2.349-1.098-4.25.188-5.086-.079-6.957-.991-6.957-.448 0-1.359 7.537-2.026 16.75m77.873 10.208c-1.166.737-.859 1.159 1.5 2.059 2.852 1.089 2.892 1.187 1.025 2.558-1.068.784-2.274 1.425-2.681 1.425-1.903 0-1.297 4.639.849 6.5l2.307 2-2.218 4.445-2.218 4.444-.815-3.145c-1.259-4.859-2.41-4.7-5.371.741-1.502 2.758-3.108 5.015-3.571 5.015-.463 0-.741.338-.619.75.123.412-.574 1.941-1.547 3.397-2.952 4.414-2.674 7.964.713 9.123 2.281.781 3.067.668 3.742-.537.663-1.185 1.658-1.345 4.455-.714 3.566.804 3.622.766 5.66-3.853 1.132-2.566 3.202-6.466 4.6-8.666 3.056-4.809 4.299-24.5 1.548-24.5-.766 0-1.393-.45-1.393-1 0-1.253-4.006-1.282-5.966-.042m23.186 3.292c-.863 1.791-1.098 1.893-1.152.5-.098-2.522-7.148-2.424-9.46.131-1.447 1.598-1.495 2.089-.325 3.259.758.758 1.195 2.049.971 2.869-.357 1.311-.266 1.31.757-.009.957-1.234 1.07-1.081.639.865-.288 1.301-.053 3.119.522 4.039.812 1.3.373 2.67-1.965 6.135-3.299 4.887-8.207 15.405-8.207 17.585 0 .757-.45 1.376-1 1.376s-1-.54-1-1.2c0-.911-.299-.901-1.242.042-.924.924-.947 1.423-.09 1.953.633.391 1.305 2.06 1.492 3.708.337 2.97.361 2.954 2.677-1.749 1.286-2.61 3.421-5.599 4.746-6.64 2.676-2.106 9.423-16.066 12.616-26.102 1.139-3.582 2.515-7.074 3.058-7.762.696-.881.554-1.25-.482-1.25-.808 0-1.958 1.012-2.555 2.25m-186.986 23.584c-.696.442-1.489 3.248-1.763 6.235-.274 2.987-.744 7.344-1.046 9.681-.483 3.752-.316 4.25 1.43 4.25 1.088 0 2.179.563 2.425 1.25 1.595 4.466 2.428-5.407 1.773-21-.061-1.433-.999-1.571-2.819-.416m-77.416 5.536c-1.674 3.644-1.307 6.63.814 6.63.817 0 1.201.461.853 1.025-.349.563-.064.901.631.75 2.102-.457 2.151 3.023.073 5.253-1.606 1.724-1.751 2.501-.829 4.454 1.197 2.537 2.826 1.377 1.953-1.391-.36-1.142-.248-1.24.398-.348 1.041 1.44 6.99-7.184 6.495-9.417-.17-.766.573-1.326 1.759-1.326 1.802 0 1.9-.244.803-2-1.642-2.629-2.74-2.534-2.886.25-.096 1.819-.265 1.675-.882-.75-.517-2.032-.806-2.355-.897-1-.108 1.616-.31 1.722-1.052.548-.506-.799-.759-1.711-.564-2.027.196-.316-.902-1.296-2.438-2.178-2.754-1.58-2.813-1.559-4.231 1.527m57.218-.914c-.664.801-.937 1.895-.606 2.431.332.536.097 1.287-.52 1.669-.796.492-.728.945.233 1.554 1.022.647.862.867-.643.89-1.627.025-1.725.205-.526.963.971.614 1.741.523 2.258-.266.431-.658.589.491.351 2.553-.389 3.373-.201 3.75 1.87 3.75 1.266 0 2.862.675 3.547 1.5 1.823 2.197 4 1.83 4-.674v-2.175l2.5 2.349 2.5 2.349.115-4.925c.207-8.852-1.073-12.688-3.141-9.416-.519.821-.95 1.027-.959.458-.046-3.145-8.861-5.561-10.979-3.01m105.23 2.657c-.087 1.162.819 3.435 2.014 5.051 1.413 1.912 1.801 3.183 1.111 3.637-.584.385-1.614 1.599-2.29 2.699-1.115 1.816-1.173 1.743-.632-.802.535-2.52.402-2.7-1.319-1.778-3.201 1.713-3.325 3.968-.416 7.613l2.719 3.407 2.859-2.72c3.498-3.327 4.748-5.542 5.216-9.243.321-2.538.075-2.819-2.334-2.658-2.042.137-2.625-.234-2.408-1.533.157-.943-.631-2.631-1.75-3.75-2.519-2.519-2.574-2.517-2.77.077m9.705 13.01c-.809 1.167-1.962 2.638-2.562 3.269-2.089 2.196-1.454 7.348 1.111 9.029 1.311.859 3.51 2.777 4.888 4.264 2.25 2.426 2.576 2.521 3.188.925.545-1.419.869-1.509 1.609-.444.623.897.719.515.295-1.166-.433-1.714-.335-2.073.309-1.143 1.179 1.7 2.088.367 2.569-3.766.359-3.086-.636-4.645-3.357-5.259-1.987-.448-5.591-4.969-5.226-6.556.458-1.995-1.2-1.498-2.824.847m-176.304 9.544c-.367.366-.667 1.716-.667 3 0 1.283-.338 2.367-.75 2.41-4.633.472-6.328 1.638-4.25 2.923.793.49 1.093 1.24.667 1.667-.427.426-1.194.113-1.706-.696-.78-1.234-.933-1.189-.946.279-.008.962-.465 1.75-1.015 1.75-.55 0-1 .675-1 1.5s-.45 1.5-1 1.5-1-.505-1-1.122c0-.752-.521-.69-1.576.185-1.299 1.078-1.719 1.077-2.388-.005-.447-.723-1.273-1.029-1.836-.681-1.457.9.134 6.117 1.875 6.149.784.015 1.988.379 2.675.809.809.507 1.25.208 1.25-.847 0-1.465.156-1.475 1.533-.098 2.084 2.084 5.447-.572 4.756-3.756-.362-1.67-.241-1.819.556-.686.821 1.168 1.149.926 1.695-1.25.377-1.503 1.404-2.733 2.318-2.777 1.038-.05 1.182-.265.392-.583-.687-.278-1.25-.903-1.25-1.39 0-.487.675-.626 1.5-.31.95.365 1.5-.013 1.5-1.031 0-2.37 1.925-1.953 2.969.643l.904 2.25.064-2.179c.034-1.198.767-2.882 1.627-3.742 1.921-1.921.889-3.931-1.676-3.26-1.037.271-2.138.085-2.446-.413-.661-1.07-1.843-1.172-2.775-.239" fill="#d3d3d3" fill-rule="evenodd"/></svg>