<svg xmlns="http://www.w3.org/2000/svg" width="500" height="375"><path d="M0 187.502v187.502l250.25-.252 250.25-.252.253-187.25L501.005 0H0v187.502m.49.498c0 103.125.117 145.313.26 93.75.143-51.562.143-135.937 0-187.5C.607 42.688.49 84.875.49 188m214.177-85.333c-.367.366-.667 1.732-.667 3.035 0 1.987-.295 2.21-1.833 1.387-1.008-.539-4.566-.942-7.905-.895l-6.072.086-.707 13.191c-.768 14.344.738 35.585 3.116 43.961 1.985 6.986 1.828 8.565-.849 8.583-4.6.032-5.518 1.685-2.5 4.501 2.564 2.392 2.75 3.114 2.75 10.696 0 6.315-.388 8.559-1.736 10.049-1.688 1.865-1.635 1.899 1.922 1.232 7.377-1.384 15.019 2.613 16.32 8.534.738 3.359 3.494 4.075 3.494.907 0-3.46 1.821-5.736 5.181-6.474l3.198-.702-3.206-2.629c-3.098-2.541-3.227-2.953-3.833-12.266-.606-9.312-.553-9.661 1.572-10.335 2.846-.903 2.107-3.131-.893-2.692-2.268.332-2.286.251-1.588-7 .389-4.035 1.119-9.212 1.624-11.505.504-2.293 1.808-12.868 2.896-23.5 1.088-10.632 2.264-20.736 2.613-22.453.61-3.002.451-3.185-4.143-4.75-5.121-1.745-7.689-2.027-8.754-.961M327 105.94c-1.925 1.018-7.693 3.315-12.817 5.104l-9.317 3.253.716 28.352.715 28.351h-3.148c-3.668 0-4.475 2.84-1.062 3.733 1.976.517 2.069 1.1 1.75 10.984l-.337 10.438-6.78 6.172c-7.608 6.928-8.301 8.231-3.252 6.122 9.433-3.941 23.532-.831 23.532 5.191 0 2.161.301 2.386 2.25 1.684 1.238-.445 4.709-.813 7.714-.817 7.175-.009 8.375 1.924 7.603 12.251l-.543 7.259 3.687-1.541c2.027-.847 3.803-1.657 3.946-1.799 1.343-1.344-7.7-27.99-10.574-31.157-3.388-3.733-4.083-6.345-4.083-15.338 0-8.108.188-8.998 2-9.472 3.089-.807 2.619-4.062-.5-3.465-2.972.568-2.893 1.539-1.442-17.711.588-7.795 2.335-19.814 3.929-27.034 2.572-11.646 3.423-17.447 3.114-21.25-.142-1.758-2.997-1.481-7.101.69m-204.5 20.685c-15.781 1.178-21.701 2.512-21.029 4.741.354 1.173 1.072 5.734 1.595 10.134 1.281 10.789 2.542 17.03 6.007 29.734 3.528 12.938 3.505 12.182.427 13.584-5.44 2.479-.579 8.143 7 8.157 14.835.026 26.711-2.754 28.187-6.6.927-2.418-1.29-3.948-3.308-2.283-1.571 1.296-1.66 1.091-1.127-2.592.318-2.2 1.549-10.975 2.735-19.5s2.849-19.478 3.695-24.34c1.13-6.496 1.242-9.136.424-9.954-1.137-1.137-15.435-1.765-24.606-1.081m265.016 11.349c-.349.564-.355 1.478-.013 2.031.684 1.106 10.973 8.439 15.884 11.321 1.712 1.005 3.609 2.462 4.215 3.24.607.777 2.668 2.067 4.58 2.866 4.581 1.914 5.883 3.636 6.559 8.674.55 4.1.507 4.175-2.114 3.674-3.309-.633-4.381.746-1.696 2.183 1.684.901 1.927 1.863 1.593 6.3a202.412 202.412 0 0 0-.459 10.547c-.061 4.952-.396 5.66-4.98 10.507-4.66 4.927-4.844 5.326-3.536 7.69 3.109 5.616 1.094 11.048-7.23 19.493l-5.914 6 1.592 5.85c1.367 5.021 1.776 5.629 2.889 4.288 1.761-2.123 11.427-5.638 15.502-5.638 4.035 0 9.494 1.749 11.868 3.802 2.007 1.736 1.941 1.777 4.127-2.522 2.17-4.267 4.717-5.481 11.638-5.546 12.46-.118 23.443 11.271 23.445 24.312l.001 5.545 2.308-3.401 2.308-3.401-2.015-11.863c-1.108-6.524-2.688-13.475-3.512-15.445-2.238-5.357-11.587-19.201-17.41-25.782-6.164-6.966-6.464-7.987-5.929-20.176.349-7.951.74-9.779 2.351-10.998 1.847-1.397 1.81-1.463-.818-1.493-1.512-.018-2.75-.279-2.75-.582 0-1.578 3.273-6.528 5.217-7.889l2.228-1.561h-2.222c-4.612 0-2.047-2.654 4.326-4.476 3.602-1.03 6.778-2.244 7.059-2.698.28-.455 1.407-.826 2.504-.826 3.494 0 15.585-3.058 17.432-4.409 2.867-2.096 1.2-5.112-1.776-3.214-5.561 3.548-36.654 4.849-51.768 2.166-7.445-1.321-7.39-1.328 7.5-.847 8.25.267 14.733.215 14.407-.115-.326-.33-9.776-.994-21-1.475-18.399-.789-27.907-2.306-27.907-4.451 0-.175 9.563-.216 21.25-.09l21.25.228-18-.842c-9.9-.464-21.229-1.104-25.175-1.423-4.457-.36-7.415-.191-7.809.446m-329.767 2.611c-.412.411-.749 1.781-.749 3.043 0 1.827-.807 2.512-3.958 3.361-2.177.586-4.211 1.476-4.521 1.977-.948 1.533 2.383 15.592 5.514 23.275 3.36 8.246 3.458 8.759 1.665 8.759-3.023 0-3.75 2.318-1.484 4.73 1.848 1.967 2.209 3.529 2.243 9.7l.041 7.355-9.138 9.447c-7.508 7.761-15.31 18.337-15.353 20.811-.005.299 2.576 1.422 5.736 2.496 3.16 1.074 7.185 3.217 8.945 4.762l3.2 2.809 8.186-1.12c4.503-.617 9.816-.846 11.806-.51 3.261.551 3.983.227 7.295-3.267 4.112-4.34 12.45-8.011 20.323-8.947 4.419-.526 4.853-.416 3.733.943-.697.846-1.002 2.229-.678 3.074.324.845-.118 2.905-.983 4.577-1.833 3.546-1.919 4.14-.598 4.14.536 0 1.661-1.328 2.5-2.95 1.791-3.464 2.054-7.494.422-6.486-2.29 1.415 2.182-4.175 5.329-6.663 4.872-3.85 9.295-5.901 12.725-5.901 10.43 0 8.473-14.976-2.45-18.757-1.65-.571-3.861-1.386-4.914-1.811-1.255-.506-1.689-.407-1.26.287 1.183 1.913 1.013 17.779-.214 20.072-1.743 3.256-2.796 2.832-10.032-4.041-3.619-3.437-9.361-8.363-12.76-10.945-6.673-5.069-6.061-3.693-7.778-17.493-.244-1.963.152-3.643 1.031-4.373 2.334-1.937 1.647-3.233-1.392-2.625l-2.819.564.069-18.402c.057-15.115-.199-18.66-1.431-19.843-1.643-1.578-16.998-3.301-18.251-2.048M195.5 201.573c-4.406 2.291-7.151 5.144-12.086 12.561-5.096 7.66-5.359 8.531-1.888 6.257 3.767-2.468 5.464-.387 14.281 17.512 9.461 19.206 10.46 24.984 5.225 30.219-3.486 3.486-3.481 3.215-.236 13.878 1.11 3.648 2.216 5.842 2.52 5 .97-2.681 3.524-14.236 5.807-26.276l2.233-11.775-3.77-3.861c-4.359-4.463-2.879-6.509 1.654-2.286 3.377 3.147 3.405 3.118 4.694-4.827 1.575-9.706 1.404-22.975-.296-22.975-1.897 0-8.178 5.146-11.716 9.598-3.32 4.178-3.197 5.892.81 11.237l2.499 3.334-2.331-.334c-2.69-.386-6.9-6.083-6.9-9.335 0-3.68 4.186-8.765 11.017-13.382 5.617-3.796 6.463-4.768 6.333-7.277-.367-7.052-10.406-11.14-17.85-7.268m143.541 6.55c-.023.342.816 2.592 1.864 5 1.047 2.407 2.429 6.965 3.071 10.127 1.022 5.043 1.455 5.75 3.522 5.75 1.374 0 3.271 1.147 4.547 2.75l2.189 2.75-.741-3.5c-1.141-5.39-5.839-14.021-10.342-19-2.238-2.475-4.087-4.22-4.11-3.877m-47.17 4.676c-4.569 2.387-9.871 7.859-9.871 10.188 0 .381 1.125 1.205 2.5 1.831 4.07 1.854 3.305 6.3-3.347 19.462-5.601 11.082-5.876 11.982-6.527 21.394-.374 5.404-.95 12.976-1.281 16.826-.684 7.972.143 7.858 3.61-.5 1.255-3.025 4.946-10.337 8.202-16.25 5.521-10.024 5.856-11.002 4.973-14.5-4.153-16.443-.76-23.461 14.696-30.396 7.09-3.181 8.135-4.141 8.159-7.497.032-4.54-12.84-4.881-21.114-.558m-72.621-.081c-.877.315-1.25 3.187-1.249 9.615.001 5.042-.508 12.813-1.131 17.269l-1.132 8.101 8.747 8.899c4.81 4.894 10.381 10.917 12.38 13.385 1.999 2.467 5.547 6.455 7.885 8.862l4.25 4.375v-7.875c0-7.207-.191-7.958-2.25-8.862-2.351-1.031-6.431-8.46-9.329-16.987-2.789-8.205-15.282-36.342-16.406-36.951-.283-.154-1.077-.077-1.765.169m5.75-.356c0 .199 1.413 3.461 3.139 7.25 1.726 3.788 5.984 14.028 9.461 22.755 10.187 25.564 11.4 26.288 11.4 6.801 0-20.171-3.971-30.999-13.099-35.719-2.428-1.256-10.901-2.101-10.901-1.087m95.735 6.857l-6.764 2.088-4.999 9.244c-2.749 5.085-5.696 9.513-6.549 9.84-.852.327-1.299 1-.993 1.496.653 1.056-4.219 12.113-5.337 12.113-1.004 0-1.125 2.349-.459 8.91.335 3.295.862 4.905 1.349 4.118.829-1.342 1.555.845 6.305 18.972l2.489 9.5 3.543-7.655c6.367-13.756 6.457-14.592 2.268-21.14-5.345-8.355-5.845-10.153-4.035-14.486 1.217-2.912 1.737-3.375 2.478-2.203.754 1.192.941 1.06.954-.673.021-2.94 8.971-10.829 14.29-12.596l4.225-1.404.5-6.922c.91-12.598 1.107-12.403-9.265-9.202m-141.184 6.125c-3.117 4.087-3.169 6.075-.285 10.863 9.122 15.138 11.852 19.877 13.852 24.043 2.419 5.038 3.77 5.719 6.311 3.178 2.101-2.101 1.581-3.987-6.009-21.79-9.126-21.405-9.571-21.928-13.869-16.294m-57.65 2.406c-6.311 6.627-18.006 20.046-21.216 24.344-2.216 2.966-2.685 4.644-2.685 9.595C98 272.622 96.709 289 95.848 289c-.466 0-.848-.765-.848-1.7 0-3.459-1.781.307-2.46 5.2-.614 4.431-.533 4.787.711 3.126 4.588-6.126 4.245 14.735-.391 23.764a401.958 401.958 0 0 0-2.802 5.543c-2.156 4.467-8.092 3.785-10.179-1.17-1.739-4.128-1.708-21.44.056-31.763 1.416-8.279 6.575-22.596 10.969-30.436 2.785-4.969 4.834-12.045 3.299-11.394-1.837.778-9.116 9.672-11.056 13.507-7.041 13.919-13.087 63.738-8.752 72.119 7.637 14.77 46.834 18.927 80.105 8.497 19.184-6.014 33.552-15.626 37.05-24.785 3.988-10.442-6.001-54.913-14.866-66.182-1.051-1.337-1.611-2.732-1.244-3.1.368-.367.982-.175 1.364.427.998 1.571 7.196 2.787 7.196 1.411 0-.602-1.549-3.45-3.443-6.329-1.893-2.879-3.75-6.505-4.126-8.058-.855-3.526-2.036-2.43-3.255 3.019-.73 3.26-.608 4.67.544 6.315.816 1.165 1.273 2.329 1.015 2.587-.475.476-4.744-4.101-8.041-8.622-1.377-1.887-1.634-2-1.082-.476.398 1.1 1.661 5.623 2.806 10.051 1.453 5.618 3.074 9.244 5.366 12 8.688 10.447 14.582 33.564 11.225 44.032-1.364 4.256-4.624 8.417-6.594 8.417-2.185 0-6.353-5.978-7.891-11.317-1.165-4.042-3.422-31.055-3.509-41.996-.008-.998-3.331-5.295-7.384-9.549-4.053-4.255-7.683-8.726-8.067-9.937-1.224-3.856-2.004-2.504-6.948 12.049l-4.841 14.25 2.676 6c5.865 13.153 7.775 38.141 3.65 47.765-4.419 10.308-14.689 12.569-20.976 4.619-4.333-5.478-2.629-22.453 4.481-44.646l3.608-11.261-4.122-6.939c-2.267-3.816-4.61-7.24-5.205-7.608-2.538-1.568-6.887-9.991-6.887-13.337 0-4.204 8.104-12.471 16.161-16.486 4.217-2.102 4.524-2.458 2.564-2.983-6.177-1.656-9.168-.763-13.824 4.126m-7.791-2.667c-8.375 3.351-9.11 3.992-9.11 7.954 0 2.776-.903 4.992-3.326 8.167-3.229 4.23-5.199 8.796-3.796 8.796.38 0 1.552-1.463 2.605-3.25s6.168-7.637 11.366-13c9.586-9.887 10.084-11.797 2.261-8.667m22.472 6.397c-6.286 2.584-14.582 9.773-14.582 12.635 0 1.468 12.193 16.939 13.901 17.638.553.227 2.161-3.909 9.316-23.954 3.314-9.283 1.61-10.53-8.635-6.319m18.992 5.005c-1.392 2.933-1.449 3.87-.364 5.916 1.831 3.45 11.23 11.584 10.458 9.049-.327-1.072-1.085-4.186-1.684-6.918-1.1-5.011-4.465-11.532-5.952-11.532-.442 0-1.548 1.568-2.458 3.485m232.519.342c-.601 1.123-1.093 3.17-1.093 4.548 0 1.379-.391 2.749-.869 3.044-.477.295-1.152 2.234-1.499 4.309-.347 2.075-.909 4.784-1.248 6.022-.488 1.778-.206 2.25 1.344 2.25 4.772 0 8.582-8.348 7.091-15.537-1.254-6.044-2.286-7.328-3.726-4.636m-51.797.896c-3.006 1.498-3.36 2.265-5.75 12.458-1.401 5.974-3.626 13.516-4.944 16.76l-2.397 5.898 5.04 8.331c2.772 4.581 6.26 10.494 7.752 13.139l2.711 4.81 1.093-2.81c1.039-2.672 4.369-13.673 9.225-30.477l2.216-7.667-3.187-4.439c-1.929-2.685-3.786-7.062-4.703-11.082-1.615-7.083-2.073-7.402-7.056-4.921m18.886 8.777c-.044 8.205 3.49 22.887 8.426 35 .993 2.437-.832-11.581-3.123-23.985-3.599-19.486-5.239-22.893-5.303-11.015m81.318-7.163c-4.231 3.181-1.188 18.223 4.687 23.167 4.813 4.05 14.927 3.277 18.531-1.417 3.735-4.865-.937-17.157-7.743-20.372-5.456-2.578-12.986-3.249-15.475-1.378m-223.901 21.895c-.985 5.097-2.872 14.72-4.195 21.383C207.082 289.278 206 296.201 206 298v3.27l12.25-.534c12.289-.535 19.492-2.23 27.5-6.47 3.587-1.899 3.774-2.396 2.106-5.582-3.557-6.793-29.018-35.186-32.689-36.452-.428-.148-1.583 3.902-2.568 9m75.529 7.669c-2.376 4-6.273 11.621-8.658 16.936-4.283 9.54-4.313 9.685-2.363 11.356 4.146 3.556 25.899 9.822 25.887 7.458-.008-1.505-7.493-32.851-9.214-38.587l-1.331-4.436-4.321 7.273m60.526 11.895c-2.653 10.287-5.063 19.716-5.356 20.954-.422 1.789-.1 2.25 1.575 2.25 3.263 0 11.866-3.564 15.745-6.522 4.111-3.136 4.116-3.051-1.191-19.978-5.669-18.084-5.223-18.221-10.773 3.296M37.809 266.5c-.267 2.2-.86 4.861-1.317 5.914-.583 1.341-.49 1.703.312 1.207.629-.388-.195 2.438-1.83 6.281-5.614 13.193-2.709 24.902 4.056 16.348 2.002-2.532 2.12-3.454 1.488-11.611-.441-5.702-.336-8.645.294-8.255 1.829 1.13 1.935-7.448.108-8.728-.908-.636-1.678-1.505-1.711-1.931-.228-2.986-.996-2.561-1.4.775m345.796-1.671c-.699 1.133-2.642 13.531-2.807 17.919-.107 2.841.517 4.145 3.082 6.436 3.149 2.814 3.274 2.838 6.082 1.179 6.604-3.901 6.794-17.45.345-24.576-1.664-1.839-5.792-2.429-6.702-.958m24.109 10.156c-.265 1.015-.02 2.309.546 2.875.706.706.238 1.228-1.487 1.661-3.712.931-5.094 4.361-4.587 11.378.272 3.762.036 6.2-.624 6.429-1.614.561 12.897 3.693 21.938 4.735 12.252 1.412 11.626 1.603 10.873-3.313-1.652-10.786-9.529-18.46-19.765-19.254-3.671-.285-4.104-.592-4.071-2.882.045-3.034-2.128-4.287-2.823-1.629m39.171-.605c-8.642 3.088-12.047 7.492-9.526 12.32 3.346 6.406 10.552 10.98 18.084 11.481 4.688.311 4.864.219 6.851-3.563 6.657-12.673-2.591-24.819-15.409-20.238m-129.435 7.708c-1.512 2.977-4.233 9.559-6.047 14.627l-3.298 9.214 3.543.665c3.938.738 23.05.042 23.965-.874.321-.321-1.559-4.326-4.177-8.901-2.618-4.576-6.218-10.979-7.999-14.231l-3.239-5.912-2.748 5.412" fill="#d3d3d3" fill-rule="evenodd"/></svg>