<svg xmlns="http://www.w3.org/2000/svg" width="500" height="375"><path d="M365.919 15.25c-.045 8.387-.176 16.825-.291 18.75-.116 1.925-.318 26.675-.451 55-.214 45.893-.403 51.285-1.732 49.527-1.272-1.683-1.378-5.132-.718-23.5.425-11.84.773-36.803.773-55.474V25.605l-4.5-.277c-10.265-.631-65.716-2.486-68-2.274-.825.076-17.925.242-38 .368-33.657.21-46.007-.429-48.377-2.507-.482-.423-1.987-.347-3.345.169-1.412.537-8.309.666-16.123.301-7.51-.351-14.33-.635-15.155-.631-.825.003-3.975.049-7 .102-13.56.236-20.486-.011-21.454-.766-1.675-1.306-13.533-2.167-15.481-1.125-3.059 1.637-24.247 1.501-25.496-.164-1.696-2.261-4.382-2.845-5.937-1.291-1.577 1.578-7.618 1.57-7.645-.01-.01-.55-.426-.354-.926.436-.78 1.232-2.439 1.254-11.735.158-5.954-.702-15.551-1.125-21.326-.941-5.775.185-15.527.006-21.671-.398l-11.172-.735-.677 6.74c-.372 3.707-1.056 8.525-1.521 10.707-.56 2.632-.469 4.418.27 5.309 1.625 1.958 1.869 6.262.56 9.908-.776 2.161-.819 3.607-.134 4.5.581.757.879 5.78.703 11.816-.169 5.775.095 11.963.587 13.75.591 2.148.543 3.25-.141 3.25-1.243 0-.111 11.004 1.281 12.45 1.552 1.612 1.056 3.541-.735 2.854-1.398-.536-1.528-.189-.853 2.282 1.316 4.817 2.035 18.321 1.503 28.234-.275 5.127-.215 10.085.133 11.02 1.563 4.201 1.502 19.086-.082 19.697-1.373.529-1.361.704.107 1.528 2.326 1.307 2.487 28.596.22 37.382-1.153 4.469-1.362 8.262-.837 15.254.457 6.106.332 9.747-.365 10.587-.729.878-.76 3.153-.101 7.246 1.056 6.559 1.039 6.104.476 12.466-.376 4.246-.448 9.29-.534 37-.02 6.325-.282 13.525-.584 16-.302 2.475-.504 6.574-.449 9.108.055 2.535-.387 7.653-.981 11.374-1.466 9.178-1.494 15.222-.076 16.93.845 1.018 3.857 1.473 10.626 1.602 5.196.099 10.684.212 12.197.251 1.513.039 9.05-.007 16.75-.101 7.7-.094 15.575.018 17.5.25 11.59 1.395 19.112 1.759 20.226.979.701-.491 8.474-.843 17.274-.783 65.045.449 86.65.415 87.544-.137.565-.35 9.674-.826 20.242-1.06 10.568-.233 20.789-.598 22.714-.81 1.925-.213 5.525.174 8 .859 2.475.685 6.3 1.082 8.5.882 6.309-.575 25.035-.801 39.5-.477.825.018 8.475.084 17 .147 18.819.138 18.669.085 21.155 7.45 6.266 18.56 27.165 31.593 40.009 24.951 2.878-1.488 3.025-1.839 2.412-5.75-.648-4.133-.64-4.147 1.043-1.771 1.619 2.285 1.758 2.311 3.039.559 1.796-2.456 1.702-11.181-.177-16.508-1.065-3.017-1.204-4.622-.466-5.36 1.167-1.167 49.066-.937 50.049.24.31.371 1.373 3.375 2.362 6.675 2.07 6.906 3.119 8.5 5.594 8.5 1.773 0 11.467 7.096 22.116 16.188l5.636 4.812 9.864-.1c5.425-.055 8.786-.401 7.469-.77-2.393-.67-2.392-.674 1-3.289a164.693 164.693 0 0 0 6.395-5.235c1.65-1.44 3.788-2.871 4.75-3.179 1.621-.52 1.75-3.057 1.75-34.463 0-29.724-.185-33.83-1.5-33.326-1.269.487-1.532-1.095-1.711-10.281l-.211-10.857-.324 10.25-.324 10.25-2.715-.004c-1.493-.002-10.976-1.127-21.072-2.5-10.096-1.373-18.754-2.496-19.239-2.496-.485 0-.851-1.013-.814-2.25.037-1.238-.241-4.725-.618-7.75-1.075-8.614-.737-15.027 1.013-19.243.398-.958.374-4.108-.052-7-1.082-7.33-.6-49.577.59-51.801 1.631-3.046 1.234-14.643-.523-15.318-1.7-.652-2.106-6.638-.451-6.638.592 0 1.031-2.073 1.006-4.75-.04-4.393.158-6.741 1.371-16.25.245-1.925.475-5.472.51-7.882l.064-4.382 22.5.731c22.419.728 22.5.723 22.5-1.368 0-2.021-.471-2.1-12.75-2.114-14.308-.017-17.516-.879-10.729-2.883 9.863-2.912 14.267-13.925 6.961-17.409-1.935-.923-4.067-2.919-4.738-4.435-.672-1.517-1.789-3.353-2.483-4.08-.763-.799-1.01-2.383-.624-4 .893-3.741 1.237-4.178 3.287-4.178 1.536 0 1.753.705 1.454 4.708-.395 5.266 2.18 9.038 7.739 11.341 3.272 1.355 3.701 2.591 1.133 3.262-.962.251 1.063.509 4.5.573L500 126v-5c0-2.75-.337-4.995-.75-4.988-.413.006-3.14.648-6.06 1.425-6.5 1.73-6.353 1.967-5.347-8.577.087-.902 2.853-3.377 6.148-5.5l5.992-3.86.008-49.75L500 0h-17.176l.591 3.75c3.604 22.875 3.17 68.43-.696 73.088-1.012 1.22-.834 1.333 1.124.712 2.297-.729 2.305-.705.627 1.856-1.853 2.828-5.09 3.653-4.088 1.042.34-.888.173-1.291-.392-.942-1.449.896-.039-77.771 1.411-78.741.605-.404-12.033-.741-28.083-.75L424.136 0l-2.147 3.015C419.943 5.889 415.296 9 413.05 9c-.578 0-1.05-2.025-1.05-4.5V0h-32.208l.354 12.589.354 12.589-5 .355c-9.112.647-8.887 1.01-8.169-13.148.397-7.842.268-12.385-.352-12.385-.592 0-1.011 6.021-1.06 15.25m70.696-8.377l-4.884 4.969 2.134 2.714c1.174 1.493 2.135 3.686 2.135 4.875 0 1.703.584 2.152 2.75 2.115 2.608-.044 2.766-.319 3.053-5.33.167-2.905.167-7.315 0-9.798l-.303-4.514-4.885 4.969m-24.601 10.234c.024 4.225 1.181 6.981 2.863 6.819.893-.086 1.96-.048 2.373.084 1.905.61 3.303.481 3.89-.358.605-.865 2.433-1.231 7.61-1.524 2.615-.149 3.084-3.191.787-5.098-.805-.668-5.08-1.462-9.5-1.765-7.966-.546-8.037-.53-8.023 1.842M238.062 86.5c-.03 1.1-.47 12.35-.979 25-1.22 30.368-2.58 159.384-1.716 162.828.621 2.472 1.023 2.664 4.905 2.338 5.287-.445 7.728-1.478 7.728-3.273 0-.766.45-1.393 1-1.393s1.007.563 1.015 1.25c.011.84.256.898.75.177.404-.59 1.587-1.388 2.628-1.773 1.041-.386 1.625-.969 1.298-1.297-.328-.327.134-1.325 1.026-2.217 1.181-1.181 1.734-1.287 2.033-.389.454 1.36 4.094-.067 5.485-2.151.523-.783.739-.765.75.062.02 1.572 2.955 1.045 4.08-.732.773-1.222.909-1.212.935.07.02.988.282 1.119.765.385.404-.614 1.86-1.454 3.235-1.868 1.375-.415 3.278-1.437 4.229-2.271 1.552-1.363 1.795-1.348 2.367.143.453 1.181.992 1.368 1.863.645.674-.559 1.593-.683 2.043-.275.45.407.465.13.033-.616-.597-1.032-.277-1.196 1.34-.683 1.699.54 2.125.26 2.125-1.393 0-1.171.65-2.067 1.5-2.067.825 0 1.5-.424 1.5-.943 0-.518.941-.761 2.092-.539 1.571.302 1.942.012 1.488-1.169-.414-1.08-.159-1.401.815-1.028 1.482.569 5.033-2.56 4.036-3.557-.316-.316.808-.877 2.497-1.248 1.69-.371 3.072-1.1 3.072-1.62s1.125-1.373 2.5-1.896c1.375-.523 2.5-1.604 2.5-2.404 0-2.255 3.125-5.011 4.027-3.552.763 1.234 4.973-2.087 4.973-3.922 0-1.751 2.759-3.308 3.391-1.914.322.711.33-.171.018-1.958-.351-2.01-.156-3.25.512-3.25.593 0 1.079-.675 1.079-1.5s.45-1.5 1-1.5 1-.675 1-1.5.563-1.569 1.25-1.652c.688-.084 1.7-.257 2.25-.385s1.76-.284 2.688-.348c2.102-.143 2.006-3.826-.121-4.643-1.318-.505-1.324-.695-.048-1.484.805-.497 1.467-1.711 1.472-2.696.006-1.118.64-1.688 1.686-1.515 1.354.224 1.614-.404 1.35-3.25-.271-2.91.003-3.527 1.566-3.527 1.598 0 1.822-.57 1.429-3.64-.257-2.003-.162-4.134.21-4.736.373-.602.552-2.551.399-4.33-.154-1.779.497-4.548 1.445-6.153 1.784-3.02 1.406-6.141-.745-6.141-.957 0-.964.267-.031 1.2 1.615 1.615 1.511 2.467-.3 2.467-.905 0-1.5-.926-1.5-2.334 0-1.283.45-2.333 1-2.333s.993-1.687.985-3.75c-.012-2.789-.264-3.366-.985-2.25-.822 1.272-.972 1.225-.985-.309-.009-1.111-.461-1.534-1.17-1.096-.763.473-.88.271-.345-.595.567-.917.421-1.069-.486-.508-1.032.637-1.198-.727-.814-6.704.319-4.972.076-8.058-.72-9.147-.661-.904-.974-2.835-.696-4.291.339-1.775.142-2.422-.598-1.965-1.642 1.015-5.25-1.607-4.681-3.402.27-.849-.391-2.18-1.469-2.957-1.392-1.003-1.666-1.767-.945-2.635.731-.882.442-1.405-1.038-1.874-1.129-.359-2.053-1.071-2.053-1.584 0-.513-.9-.933-2-.933s-2-.401-2-.892c0-.49-1.125-1.174-2.5-1.519s-2.5-1.342-2.5-2.215c0-.959-.561-1.373-1.417-1.044-.78.299-1.677-.131-1.993-.957-.317-.825-1.033-1.218-1.591-.873s-1.773-.131-2.701-1.059c-1.581-1.581-1.737-1.57-2.506.186-.627 1.434-.732 1.228-.445-.877.34-2.49.011-2.932-1.985-2.665-.351.047-.971-.453-1.378-1.111-.407-.659-2.152-1.255-3.877-1.326-1.935-.079-2.966-.574-2.691-1.291.246-.639-.183-1.994-.953-3.01-1.1-1.452-1.409-1.527-1.447-.347-.041 1.333-.154 1.333-1.016 0-.704-1.09-.974-1.142-.985-.191-.008.72-.495 1.012-1.082.65-.586-.363-.827-.898-.535-1.191 1.062-1.062-1.449-4.186-2.913-3.624-.817.314-1.485.121-1.485-.429 0-.549-1.131-1.282-2.513-1.629-2.086-.523-2.408-1.053-1.892-3.108.502-2.001.247-2.478-1.322-2.478-1.07 0-3.931-1.546-6.359-3.437-2.428-1.89-5.761-3.68-7.407-3.977-1.646-.298-3.146-1.002-3.333-1.564-.187-.562-.978-1.022-1.757-1.022-.78 0-1.417-.579-1.417-1.286 0-.707-.788-1.313-1.75-1.347-2.393-.085-4.649-.736-5.25-1.515-.275-.356-1.85-.789-3.5-.962-1.65-.173-3.562-.724-4.25-1.225-.828-.602-1.25-.466-1.25.404 0 .794-.57.546-1.442-.628-1.422-1.915-1.443-1.914-1.496.059M95 93c-.825.533-2.56.976-3.855.985-1.295.008-4.355 1.365-6.8 3.015-2.445 1.65-4.873 3-5.395 3-.523 0-.95.394-.95.875s-1.358 1.147-3.018 1.479c-4.548.909-15.645 10.368-22.853 19.478-1.853 2.343-3.62 4.01-3.925 3.705-.306-.305-1.602.427-2.88 1.628-1.278 1.201-2.34 1.768-2.359 1.259-.02-.508-.582.049-1.25 1.239-.668 1.189-2.578 3.664-4.244 5.5-3.476 3.829-5.78 8.401-7.479 14.837-.653 2.475-1.585 4.985-2.07 5.578-.485.594-1.044 1.944-1.242 3a430.086 430.086 0 0 1-1.134 5.683c-.515 2.505-.372 4.243.427 5.206.659.795.96 1.832.669 2.304-1.283 2.075-.669 10.146 1.121 14.729 3.938 10.085 5.754 13.529 7.41 14.055 1.05.333 1.548 1.298 1.31 2.535-.263 1.363.384 2.348 2.035 3.1 1.33.606 2.207 1.446 1.947 1.867-.57.922 6.075 7.943 7.517 7.943 2.283 0 3.963 1.765 8.755 9.198.957 1.484 2.816 3.189 4.131 3.788 1.315.599 2.131 1.348 1.814 1.665-.806.806 10.351 9.047 14.717 10.871 1.981.828 3.601 1.949 3.601 2.491 0 .543.662.987 1.47.987.809 0 4.001 1.157 7.093 2.572 8.6 3.933 8.437 4.254 8.437-16.606 0-11.109.419-18.881 1.086-20.127 2.003-3.743 2.409-61.375.531-75.509-.899-6.768-1.617-19.086-1.617-27.75 0-15.553-.175-16.405-3-14.58m26.75 18.39c-.412 2.689-.75 6.571-.75 8.627 0 2.057-.773 5.481-1.719 7.611-1.983 4.469-2.012 4.598-2.166 9.739-.098 3.28-.403 3.791-2.015 3.369-1.6-.418-1.9.057-1.9 3.013 0 1.93-.546 3.847-1.213 4.259-.923.571-.888.879.15 1.292.774.308.373.576-.929.621-3.066.106-5.935-2.741-6.471-6.421-.241-1.65-.46 12.3-.487 31-.028 18.7.259 33.1.637 32 2.605-7.578 4.302-10.263 6.177-9.773 2.004.524 2.114.985 2.478 10.397.12 3.093.75 6.468 1.401 7.5 1.298 2.056.854-13.39-.484-16.874-.392-1.018-.21-1.75.434-1.75.609 0 1.107.9 1.107 2s.525 1.887 1.166 1.75c1.3-.279 3.041 5.966 2.273 8.153-.598 1.701 1.394 8.097 2.522 8.097.443 0 1.056-.958 1.363-2.13.372-1.423 1.075-1.931 2.116-1.531.858.329 1.56.162 1.56-.37 0-.533.604-.969 1.342-.969 1.31 0 3.658 6.05 3.658 9.425 0 .931.45 1.415 1 1.075 1.475-.912 1.215-4.833-.468-7.059-.808-1.067-1.483-2.702-1.5-3.632-.043-2.3-2.054-3.384-3.128-1.687-.481.758-.9 1.153-.934.878a731.05 731.05 0 0 1-.56-6l-.5-5.5 2.27 3.5c1.248 1.925 2.619 3.65 3.045 3.833.426.184.836 1.984.911 4 .087 2.328.295 2.845.57 1.417.543-2.819 3.294-2.978 3.294-.191 0 1.132-.45 1.781-1 1.441-.55-.34-1-.141-1 .441s.45 1.059 1 1.059 1 1.52 1 3.378c0 1.857.619 3.891 1.375 4.519.757.627 1.948 3.27 2.648 5.872.699 2.602 1.656 5.159 2.124 5.681.469.523.892 1.873.939 3 .065 1.55.293 1.358.936-.785.468-1.559.692-3.359.498-4-.195-.641-.63-3.134-.968-5.54-.591-4.197-.523-4.347 1.666-3.7 4.472 1.323 5.24 1.231 6.915-.834 2.392-2.951 3.387-1.542 3.784 5.359.064 1.128.35 1.183 1.283.25 1.641-1.641 3.352-1.505 5.276.419.891.891 1.844 1.394 2.119 1.119.275-.275-.196-1.196-1.047-2.048-1.965-1.964-2.004-4.69-.067-4.69.814 0 1.767 1.238 2.117 2.75.35 1.512 1.238 4.775 1.973 7.25.735 2.475 1.53 5.4 1.766 6.5.237 1.1.483-.363.547-3.25.064-2.887.495-5.25.958-5.25.463 0 .871-1.977.908-4.394.036-2.417.625-5.437 1.307-6.713l1.241-2.319.93 2.463c.511 1.355 1.276 4.263 1.7 6.463l.771 4 1.22-2.998c2.43-5.972 4.01-6.848 6.977-3.868 2.506 2.516 2.616 2.536 2.917.542.172-1.14-.179-2.991-.78-4.114-.847-1.583-.723-2.605.552-4.552 2.104-3.21 1.16-3.18-3.142.101-4 3.051-8.443 2.72-8.443-.63 0-1.09.603-1.981 1.339-1.981 1.57 0 3.654-4.138 3.676-7.297.011-1.567.257-1.823.851-.886.606.956 1.189.465 2.123-1.791.708-1.71 2.821-4.373 4.696-5.918 1.874-1.545 3.798-4.114 4.276-5.709l.867-2.899.086 3.091c.047 1.7-.584 5.3-1.403 8-.819 2.7-1.494 4.969-1.5 5.042-.006.074.858.361 1.92.639 1.605.42 2.047-.184 2.621-3.579.628-3.719.81-3.919 2.033-2.246.738 1.01 1.511 2.335 1.716 2.945.537 1.593 3.703-1.212 3.684-3.264-.014-1.425-.15-1.441-1.095-.128-.902 1.254-.983 1.205-.496-.302.321-.991.249-1.596-.159-1.344-.407.253-.822-1.629-.921-4.18-.098-2.552.205-4.877.674-5.167.469-.29 1.18-1.827 1.579-3.416.517-2.061.396-2.686-.421-2.181-1.422.879-1.421.854.322-8.997.786-4.447 1.175-9.062.863-10.255-.312-1.193-.025-2.822.637-3.62.662-.797.892-1.956.51-2.573-.402-.65-1.718 1.016-3.125 3.956-1.337 2.793-2.862 5.079-3.389 5.079-.527 0-1.598 1.463-2.38 3.25-.861 1.969-1.453 2.56-1.502 1.5-.045-.963-.5-1.75-1.01-1.75-.511 0-1.894-2.58-3.074-5.734s-3.912-8.38-6.072-11.614c-2.159-3.234-3.926-6.729-3.926-7.766s-.45-1.886-1-1.886-1-.927-1-2.059c0-1.132.45-1.781 1-1.441.55.34 1.036-.196 1.079-1.191.046-1.049.291-1.284.583-.559.912 2.258 2.582 1.305 2.103-1.2-.286-1.496.057-2.652.883-2.969 1.303-.499 1.974-4.581.754-4.581-.329 0-2.126 1.688-3.993 3.75-3.581 3.957-5.678 3.463-4.712-1.111.442-2.096.42-2.1-1.123-.198-.866 1.068-1.574 2.305-1.574 2.75 0 .445-.583.809-1.295.809-.941 0-1.283-1.914-1.25-6.999.025-3.849-.293-6.999-.705-7-.412 0-.757 2.587-.765 5.749-.016 6.074-1.147 9.414-2.466 7.281-.402-.65-.451-3.736-.109-6.857l.622-5.674-1.599 3.5c-.879 1.925-2.478 5.822-3.554 8.66-2.054 5.421-5.605 8.745-7.855 7.355-1.334-.825.913-5.617 4.891-10.435 1.457-1.764 1.448-1.869-.102-1.305-1.098.4-1.839.022-2.12-1.08-.281-1.105-.694-.564-1.187 1.555-1.291 5.551-2.842 3.792-2.194-2.489l.593-5.738-1.829 2.988c-2.224 3.633-3.627 8.947-2.116 8.014 1.358-.839 1.332 2.339-.051 6.306-.962 2.761-1.265 2.956-2.568 1.652-1.525-1.525-1.001-5.483.726-5.483.513 0 .933-.41.933-.912 0-1.036-1.894-.91-3.75.249-1.951 1.219-1.53-1.916 1.101-8.212 2.933-7.016 4.72-12.387 4.272-12.835-1.067-1.067-7.623 8.041-7.623 10.59 0 1.582-.67 3.431-1.489 4.111-.819.68-1.242 1.635-.941 2.122.301.488-.041.908-.761.934-.72.025-2.218 1.896-3.328 4.157-3.229 6.573-7.998 5.585-5.643-1.169.573-1.645.687-3.211.251-3.48-.435-.269-1.387 1.319-2.116 3.528-1.496 4.531-2.973 6.039-2.973 3.035 0-1.1-.45-2.278-1-2.618-.55-.34-1 .309-1 1.441 0 1.132-.45 2.059-1 2.059s-1 .775-1 1.723c0 1.507-.17 1.476-1.365-.25-2.696-3.895-2.993-6.567-.794-7.142 3.595-.94 5.96-11.456 3.298-14.663-.544-.656-1.136-2.988-1.314-5.181l-.325-3.987-.75 4.89" fill="#d3d3d3" fill-rule="evenodd"/></svg>