<svg xmlns="http://www.w3.org/2000/svg" width="500" height="675"><path d="M.448 4.75C.638 8 1.164 9.5 2.113 9.5c.763 0 1.612.293 1.887.65.275.358 1.4.808 2.5 1 1.1.193 2.331.8 2.735 1.35.455.619.74.524.75-.25.008-.687.942-1.25 2.074-1.25 1.317 0 1.799-.421 1.336-1.17-.492-.797-.168-.957 1.015-.503 1.01.388 2.366.04 3.236-.83.823-.823 1.185-1.497.803-1.497s-.156-.648.502-1.441c.657-.792 1.725-1.316 2.372-1.163.647.152.839.087.427-.143-1.884-1.054-.428-1.814 2.761-1.441 2.908.339 3.405.133 2.893-1.201C26.879.241 24.791 0 13.478 0H.17l.278 4.75m38.651 18.364c-4.207.86-4.23.896-4.205 6.533.055 12.403 1.18 60.174 1.478 62.783.185 1.612-.035 4.537-.489 6.5-1.242 5.37-2.266 32.715-1.249 33.344.685.423.836 11.209.297 21.226-.029.55.292 3.25.713 6 .422 2.75.746 7.7.72 11-.026 3.3-.17 20.85-.321 39-.265 31.927.773 69 1.932 69 .409 0 1.317 28.778 1.088 34.5-.077 1.925.095 9.35.382 16.5.379 9.469.147 14.239-.857 17.561-.967 3.2-1.077 5.101-.367 6.369.709 1.266.667 2.021-.139 2.519-.632.391-.923 1.35-.645 2.131 1.757 4.939 2.192 12.506 1.634 28.42-.355 10.121.625 74.759 1.523 100.5.84 24.076.857 35.947.06 42.703-.36 3.048-.204 5.457.374 5.815.612.377.755 4.309.376 10.296-.338 5.327-.5 13.511-.361 18.186.305 10.25.263 18.502-.156 30.528-.501 14.367-1.523 13.715 27.113 17.313 3.025.38 7.75.348 10.5-.071 2.75-.42 5.45-.748 6-.73 1.315.043 21.708.873 23 .936 1.725.084 15.861-1.718 18.905-2.41 1.597-.364 3.622-.341 4.5.05.877.391 1.933.806 2.345.923.412.116 1.088.317 1.5.447.412.129 1.762.153 3 .053 1.237-.1 2.882.451 3.656 1.224 1.619 1.62 9.872 2.189 12.391.855 1.528-.809 8.131-2.184 10.703-2.228 2.943-.05 35.04 1.199 41.201 1.603 4.165.274 7.457.06 7.807-.506.373-.604 1.73-.398 3.538.537 1.613.834 3.05 1.478 3.194 1.432.143-.047 1.084.231 2.091.618 3.141 1.205 16.495-.257 18.234-1.996.868-.868 2.108-1.63 2.756-1.693 2.405-.235 5.215.339 6.395 1.307.677.554 3.674.756 6.75.454 3.044-.299 5.534-.197 5.534.227 0 .423 2.283.874 5.074 1.001 2.79.127 6.053.552 7.25.944 1.197.392 9.486.706 18.421.697 8.935-.008 16.247.247 16.25.568.007.773 3.239.509 4.682-.384.629-.388 1.858-.431 2.733-.095.874.335 1.59.112 1.59-.497s.948-1.107 2.107-1.107c1.462 0 1.931.459 1.531 1.5-.386 1.006.045 1.5 1.31 1.5 1.037 0 2.035-.424 2.219-.941.538-1.52 5.712-2.034 7.079-.704 1.966 1.915 10.498 1.924 11.568.012.758-1.354.97-1.372 1.449-.124.46 1.198 3.644 1.48 17.625 1.563 9.385.056 20.562.398 24.838.759 4.276.362 8.449.619 9.274.572.825-.048 8.363-.119 16.75-.16 8.388-.041 15.25-.407 15.25-.814s-2.76-5.222-6.133-10.701c-9.294-15.098-9.388-15.275-8.517-16.147.447-.448 5.34-.972 10.874-1.163 9.991-.346 10.057-.333 9.477 1.884-.715 2.735 8.352 21.387 11.115 22.866 1.012.541 12.144 1.487 24.738 2.101 12.594.614 23.097 1.314 23.339 1.557.242.242-.508.44-1.667.44-1.16 0-2.405.481-2.768 1.068-.363.588-1.347.805-2.186.483-.839-.322-2.124-.089-2.855.518-.731.607-1.758.838-2.283.514-1.398-.864-4.228.456-3.5 1.634a1.21 1.21 0 0 1-.38 1.645c-.611.389-.67 1.526-.152 2.911.745 1.991 1.101 2.117 2.866 1.015 1.753-1.095 2.371-.903 4.742 1.468l2.727 2.727-25.322-.054c-13.928-.03-25.405.086-25.506.258-.914 1.559-17.659 41.494-17.637 42.063.015.413 18.028.75 40.028.75h40V459.333c0-118.616-.173-215.479-.385-215.25-.211.229-.911 17.292-1.556 37.917-1.499 47.96-3.714 108.473-5.509 150.5-.775 18.15-1.98 49.759-2.677 70.241l-1.266 37.242-2.054-1.506c-1.572-1.153-6.747-3.948-9.289-5.017-.131-.055 1.357-6.368 3.306-14.03 4.57-17.964 3.66-23.764-4.242-27.066-7.802-3.26-13.19-.966-18.048 7.684-3.115 5.546-4.566 6.437-3.302 2.027.462-1.608.628-3.136.369-3.395-.259-.258.031-6.812.644-14.564 1.964-24.842 2.218-30.819 1.905-44.711-.113-5.002.116-9.615.508-10.25.4-.647.139-1.162-.595-1.17-.799-.01-.92-.302-.309-.75.55-.404 1.014-3.435 1.032-6.735.017-3.3.16-10.5.316-16s.023-12.7-.297-16c-.727-7.52-.732-6.286.064-17.5.745-10.493 1.301-43.382 1.176-69.5-.045-9.42.684-14.742 2.528-18.437 1.565-3.138 1.358-12.019-.305-13.061-.441-.276-.422-2.888.041-5.805.463-2.917.589-5.96.281-6.763-.308-.803-.044-2.081.587-2.841.631-.761 1.078-1.767.994-2.238-.085-.47-.071-1.08.031-1.355.234-.634.995-15.9 1.121-22.5.053-2.75-.149-11.146-.45-18.658-.443-11.11-.279-13.88.884-14.844.786-.653 1.381-2.607 1.322-4.342-.099-2.949.518-9.072 1.805-17.906.435-2.988.223-3.75-1.042-3.75-.873 0-1.517-.337-1.429-.75.087-.412-.21-1.599-.659-2.636-.464-1.068-.388-2.568.175-3.46.648-1.027.659-3.139.034-6.072-.651-3.05-.625-4.61.08-4.845.652-.217.74-1.394.234-3.158-.444-1.546-.447-3.393-.007-4.104.439-.712.58-1.864.313-2.561-.268-.697.722-1.901 2.2-2.675 2.334-1.223 2.742-2.15 3.111-7.073.312-4.159.084-5.67-.857-5.681-.913-.011-.851-.327.217-1.095 1.266-.91 1.227-.991-.25-.516-1.164.375-1.75.036-1.75-1.012 0-.954.563-1.36 1.427-1.028 1.626.623 3.405-11.178 2.023-13.415-.422-.682-.709-3.981-.639-7.33.102-4.889-.068-5.617-.863-3.694-.545 1.318-1.267 2.119-1.604 1.782-.337-.337-.106-1.865.514-3.395.711-1.756 1.066-9.235.963-20.282-.09-9.625.137-24.336.506-32.692.368-8.356.333-15.391-.079-15.635-.411-.244-4.798-.764-9.748-1.156-4.95-.392-9.225-.845-9.5-1.008-1.941-1.144-10.352-1.389-12.261-.357-3.39 1.834-6.703 2.024-12.485.717-4.522-1.023-5.49-.965-7.019.418-1.44 1.303-2.575 1.424-6.047.644-5.678-1.276-60.601-.451-65.181.978-4.358 1.361-17.978 1.386-32.936.062-6.371-.564-11.681-.629-12-.148-.314.474-2.106 1.162-3.983 1.527-3.364.655-3.386.637-1.595-1.343 1.559-1.722 1.594-2.007.244-2.007-2.6 0-4.765 1.146-4.124 2.182.876 1.419-10.579.775-13.683-.768-1.413-.703-4.338-1.472-6.5-1.709-2.161-.237-4.723-.767-5.693-1.18-1.019-.433-2.395-.223-3.264.497-.984.817-3.045 1.034-5.987.631-2.467-.338-4.486-.245-4.486.206 0 2.228-24.615 4.382-25.921 2.268-.571-.923-5.525-1.23-19.174-1.191-10.123.03-20.655-.003-23.405-.073-2.75-.071-13.55-.023-24 .106s-20.056-.175-21.348-.675c-1.367-.53-4.5-.552-7.5-.052-8.612 1.434-26.552 1.727-37.652.614-5.775-.579-14.1-1.008-18.5-.953-4.4.055-10.035-.371-12.522-.947-6.477-1.499-22.115-2.612-25.879-1.842M207.237 59.75l-68.263.264.573 66.243c.316 36.434 1.221 102.836 2.013 147.56.792 44.725 1.44 91.862 1.44 104.75V402h66.336c36.485 0 85.934.298 109.888.661l43.552.661.558-14.411c.711-18.351 3.483-149.763 4.66-220.911.496-29.975 1.168-66.762 1.494-81.75L370.08 59l-47.29.243c-26.01.134-78.008.362-115.553.507M206 62.632c0 .898-.842 3.035-1.872 4.75-1.03 1.715-2.656 5.674-3.615 8.797-1.21 3.946-2.241 5.661-3.378 5.619-2.929-.108-9.571 1.02-12.413 2.109-2.486.953-2.897.804-3.91-1.421-.623-1.367-1.511-2.486-1.973-2.486-.461 0-.839-2.302-.839-5.115V69.77l-2.518 1.65c-2.481 1.626-2.527 1.606-3.125-1.385-.764-3.822-1.307-3.796-8.989.427-3.621 1.99-6.554 3.046-6.902 2.483-1.003-1.623-2.316-.086-1.755 2.056.358 1.372.03 1.999-1.047 1.999-3.278 0-6.708 2.285-6.137 4.086.376 1.184-.106 1.963-1.485 2.401-1.444.458-2.042 1.506-2.042 3.58 0 1.613-.441 2.933-.981 2.933-1.534 0-2.318 4.654-1.125 6.678 1.001 1.699 1.118 1.667 1.717-.469.354-1.26 1.116-2.133 1.694-1.941 1.198.4 5.882 13.62 5.211 14.706-.243.393.033 2.431.613 4.531.676 2.447 1.329 3.372 1.821 2.576.517-.837 1.598.167 3.323 3.089 1.406 2.382 4.17 5.881 6.142 7.776 2.553 2.454 3.585 4.311 3.585 6.45 0 2.287-.278 2.726-1.165 1.839s-1.425-.81-2.253.323c-.599.818-2.775 1.761-4.835 2.096-3.591.582-3.75.488-3.826-2.273-.045-1.629-.327-2.229-.65-1.381-.314.825-1.014 1.789-1.555 2.142-.63.411-.46 2.753.47 6.5 1.635 6.581 2.951 7.024 11.809 3.972 5.692-1.961 4.936-.677-1.995 3.386-3.284 1.925-5.977 3.858-5.985 4.295-.008.438.734 5.308 1.65 10.823 1.654 9.955 1.649 10.086-.653 18.051-1.95 6.751-2.095 8.165-.915 8.912 2.397 1.518 2.9 1.043 3.003-2.831.169-6.359 1.681-9.692 1.8-3.969.12 5.721 1.451 6.558 7.425 4.673 2.296-.725 4.469-1.25 4.829-1.168.36.083 1.202-.511 1.873-1.318 2.057-2.479 3.717-1.644 4.445 2.235.535 2.85.316 3.979-.952 4.906-1.712 1.252-19.902 7.391-21.899 7.391-3.348 0-3.626 3.801-1.005 13.714 3.218 12.171 7.41 19.268 17.747 30.04l7.92 8.254-2.642 2.449c-2.391 2.216-8.183 4.523-11.391 4.537-.687.003-1.25.456-1.25 1.006s2.055 1 4.567 1c4.272 0 4.524.146 3.888 2.25-1.058 3.501-5.14 7.303-11.454 10.669-3.748 1.997-5.73 3.67-5.64 4.757.076.923-1.39 2.723-3.259 4.001-2.164 1.479-2.791 2.323-1.728 2.323.918 0 3.498-1.211 5.734-2.69 4.771-3.157 6.421-2.623 9.212 2.984l1.82 3.655-2.681 3.516c-1.475 1.933-3.081 3.268-3.57 2.966-.489-.302-.889-.163-.889.31 0 .472 4.769 3.052 10.599 5.734 5.829 2.681 10.826 5.469 11.104 6.194.279.726.893 1.081 1.364.789.472-.291 3.142.628 5.933 2.042 2.791 1.414 5.445 2.343 5.898 2.063.835-.516 2.469 11.403 1.672 12.2-.742.742-5.382-3.153-6.426-5.393-1.393-2.99-9.742-5.86-10.594-3.641-.831 2.168.109 2.799 1.926 1.291 1.772-1.471 1.957-.697.489 2.046-.57 1.064-1.695 1.934-2.5 1.934-1.944 0-1.876 1.628.098 2.386.86.33 1.284 1.053.941 1.607-.342.554-.183 1.007.354 1.007.536 0 1.204-.562 1.483-1.25.383-.945.756-.891 1.53.224.718 1.034.667 1.7-.174 2.234-.818.521-.659.766.502.777 1.475.013 6.801 5.703 6.801 7.266 0 .309-.93.319-2.067.021l-2.067-.54 2.063 3.384c3.432 5.628 2.324 6.38-1.802 1.224-2.13-2.662-5.28-6.162-7-7.777-1.755-1.648-3.127-3.952-3.127-5.25 0-1.272-.417-2.313-.927-2.313-1.599 0-4.988 5.057-4.406 6.574.55 1.434-13.229 15.169-14.754 14.708-.397-.12-1.244.412-1.884 1.183-1.251 1.508-1.054 1.769 6.275 8.293 4.173 3.714 7.252 8.019 6.368 8.903-.329.329-2.676-1.54-5.216-4.153l-4.617-4.751-1.435 2.766c-1.415 2.726-1.341 2.855 5.228 9.14 6.697 6.406 8.523 7.363 6.368 3.337-2.065-3.858-.301-3.231 1.962.697 4.304 7.472 4.896 8.951 3.152 7.873-1.425-.88-2.058 3.344-.704 4.698.678.677 1.29 1.682 1.36 2.232.415 3.261 1.279 4.5 3.136 4.5 1.152 0 2.094-.477 2.094-1.059s.511-.743 1.136-.357c.625.386 1.862.804 2.75.929 3.342.468 6.115 1.759 6.129 2.854.048 3.52 1.741 3.86 6.202 1.246 3.024-1.772 5.91-2.613 8.969-2.613 2.481 0 8.741-.893 13.912-1.984 5.171-1.092 9.74-1.992 10.152-2 .412-.009.75-.889.75-1.957 0-4.833 4.005-2.818 7.383 3.714 2.877 5.565 8.011 5.401 13.209-.422 2.576-2.885 4.666-3.892 12.5-6.024 5.175-1.408 9.768-3.182 10.208-3.943 1.962-3.396 14.522-.588 13.936 3.116-.296 1.875-.229 1.891 1.084.25 1.81-2.261 3.943-2.221 6.056.113 1.612 1.781 1.467 1.958-3.28 4-2.732 1.176-6.008 2.144-7.281 2.152-1.273.009-2.916.396-3.65.862-2.196 1.392 2.641 2.16 5.692.904 1.454-.599 3.135-1.194 3.736-1.323 1.773-.381 8.823-5.049 10.284-6.81 1.14-1.373 1.116-1.714-.154-2.201-1.6-.614-1.21-4.447.453-4.447.518 0 .664-.45.324-1s-.185-1 .343-1c1.558 0 3.241 5.797 1.834 6.316-.886.327-.868.762.073 1.759.688.729 1.25 3.501 1.25 6.16 0 4.281.201 4.732 1.75 3.936.963-.494 6.114-1.193 11.448-1.552 5.334-.358 12.702-1.58 16.372-2.713 3.932-1.215 7.723-1.798 9.226-1.421 2.192.55 2.376.428 1.303-.866-.934-1.126-3.993-10.382-4.087-12.369-.007-.137.663-.25 1.488-.25 1.702 0 1.953-1.144.558-2.55-.518-.523-1.381-3.689-1.918-7.036-.537-3.347-1.694-7.804-2.571-9.903-1.891-4.525-1.368-5.544 1.507-2.942 2.327 2.106 4.924 7.671 4.924 10.553 0 1.033.675 1.878 1.5 1.878.893 0 1.494-.91 1.485-2.25-.013-1.819-.201-1.963-.985-.75-.912 1.411-1.613-1.406-1.083-4.355.084-.471-.363-1.477-.994-2.238-.631-.76-.891-2.049-.577-2.865.313-.816.026-2.06-.638-2.763-2.339-2.477-1.4-5.149 2.168-6.172l3.371-.967-.597-5.717c-.329-3.144-1.491-7.982-2.582-10.75-1.364-3.462-1.63-5.152-.849-5.413.627-.209.792-.932.369-1.618-.591-.956-1.091-.97-2.189-.058-1.148.953-1.389.818-1.252-.702.321-3.555-.148-5.499-1.175-4.865-.565.349-2.252-.637-3.75-2.191-1.497-1.554-3.622-2.826-4.722-2.826-1.313 0-2.11-.773-2.32-2.25-.307-2.166-3.18-3.295-3.18-1.25 0 .55-1.173 1-2.607 1-1.966 0-2.458-.389-2-1.582.334-.87.614-1.882.622-2.25.009-.367.386-.084.839.629.647 1.021 1.124.928 2.234-.437 1.25-1.536 1.212-1.659-.338-1.079-.962.361-1.75.22-1.75-.312 0-.533.788-.976 1.75-.984 1.079-.01 1.328-.297.65-.75-.605-.404-1.334-1.41-1.619-2.235-.378-1.092-.868-.757-1.802 1.233-1.163 2.473-1.401 2.572-2.52 1.041-.68-.929-.985-2.384-.678-3.232.406-1.122-.063-.997-1.722.458-1.947 1.708-2.036 2.049-.612 2.334 1.943.39 1.698 3.286-.336 3.963-.773.257-1.108.008-.756-.562 1.312-2.123-2.23-1.996-4.249.152-2.138 2.275-2.936 5.244-1.106 4.113.55-.34 1-.055 1 .632 0 .688.661.377 1.468-.691.808-1.067 1.483-1.411 1.5-.762.018.648.739 1.885 1.603 2.75 1.354 1.353 1.366 1.571.084 1.571-.819 0-1.689-.562-1.935-1.25-.245-.687-.832-.888-1.304-.446-.472.443-.196 1.223.613 1.735.809.512 1.021.944.471.961-.55.017-.325.467.5 1 1.569 1.014 1.256 1.151-3.247 1.425-1.835.112-2.931-.412-3.301-1.577-.305-.96-1.408-2.017-2.452-2.348-1.232-.391-1.683-1.162-1.286-2.196.353-.92-.101-2.114-1.075-2.826-1.551-1.134-1.524-1.275.338-1.762 1.113-.291 2.023-1.25 2.023-2.131 0-1.529-3.198-.577-5 1.488-1.089 1.248-3.808 1.719-4.711.816-1.245-1.245-4.755 6.436-4.562 9.985.123 2.28.034 2.362-.678.626-.881-2.15-.737-2.49-2.959 7-.506 2.162-1.763 3.505-4.504 4.809-4.261 2.027-5.671 1.633-3.158-.88 1.507-1.507 1.518-1.831.119-3.377-.851-.94-1.547-2.237-1.547-2.881 0-.644-.45-1.171-1-1.171-.969 0-1.417 2.662-1.052 6.25.227 2.233-.064 2.204-4.572-.456-2.702-1.594-3.854-1.86-4.155-.958-.318.955-.744.975-1.818.083-1.135-.941-1.682-.495-2.866 2.337-1.449 3.469-3.873 5.273-5.627 4.188-.501-.309-.91.149-.91 1.018 0 2.236-4.864 4.375-5.951 2.618-.657-1.064-.9-1.054-1.312.057-.366.991-.722.833-1.3-.577-.509-1.239-.368-2.083.389-2.335 1.86-.62.299-2.225-2.163-2.225-1.22 0-3.024.941-4.008 2.09-1.689 1.972-1.693 2.162-.071 3.348 1.123.821 1.344 1.489.636 1.926-.596.368-1.676-.178-2.402-1.213-.725-1.035-1.757-1.909-2.293-1.942-1.426-.086-1.906-2.209-.5-2.209.75 0 .974-.867.605-2.338-.944-3.763 5.97-8.737 7.87-5.662.352.569-.509 1-2 1-1.44 0-2.389.37-2.11.822.279.452 2.148.693 4.153.535 2.945-.232 3.53.01 3.05 1.261-.372.971-.127 1.396.656 1.138.688-.225 1.389-1.567 1.558-2.98.416-3.496 6.675-4.562 7.737-1.318.652 1.994.68 1.996 1.176.08.28-1.079.007-2.129-.606-2.333-.613-.205-1.114-.811-1.114-1.347 0-.537.45-.698 1-.358.568.351 1-.5 1-1.972 0-1.425.675-2.85 1.5-3.166 1.798-.69 2.096-7.362.329-7.362-1.805 0-4.75-3.043-4.237-4.379.251-.655-.471-2.187-1.605-3.405-1.945-2.087-2.202-2.121-4.517-.605-1.35.885-3.133 1.349-3.962 1.03-1.083-.415-1.508.091-1.508 1.796 0 2.597-5.037 9.28-10.69 14.184-3.504 3.039-3.673 3.078-6.457 1.5-1.572-.892-3.143-2.521-3.49-3.621-.348-1.1-1.06-2.275-1.582-2.611-.522-.336-.259-.875.584-1.199.973-.373 1.759.124 2.151 1.361.729 2.295 2.484 2.612 2.484.449 0-.825-.488-1.5-1.083-1.5-.596 0-.899-.555-.673-1.233.487-1.46-3.703-3.905-7.244-4.227a146.94 146.94 0 0 1-3.744-.383c-1.559-.197-1.051-4.048.675-5.114.786-.486 1.022-1.617.609-2.918-.4-1.261-.241-2.125.393-2.125.587 0 1.074.788 1.082 1.75.009 1.019.323 1.318.75.717.404-.569 1.298-.963 1.985-.875l2.25.283c.55.069 1 1.08 1 2.247 0 1.781.243 1.921 1.512.868 1.151-.955 1.241-1.583.378-2.623-1.99-2.398.222-1.47 3.978 1.668a742.025 742.025 0 0 0 4.986 4.136c1.72 1.4 6.307-3.827 5.56-6.337-.641-2.154 1.41-3.457 2.2-1.397.33.859 1.587 1.563 2.793 1.563 1.206 0 2.695.502 3.308 1.115.82.82 1.534.304 2.7-1.95 1.974-3.817 1.97-3.906-.165-4.527-.963-.28.838-.261 4 .042 3.892.373 5.75.19 5.75-.565 0-1.583 4.958-1.389 5.574.218.282.734 1.055 1.338 1.719 1.343.664.005 2.328.37 3.699.811 2.092.673 2.302.572 1.307-.626-4.063-4.897 6.673-4.692 12.053.229 2.649 2.424 2.91 3.041 1.648 3.895-1.248.845-1.271 1.162-.137 1.894 1.151.742 1.151.951 0 1.339-.845.285-.093 1.119 1.98 2.195 1.839.954 3.479 1.589 3.645 1.411.469-.503 3.512-37.219 3.512-42.374 0-4.034-.226-4.513-1.882-3.988-1.221.388-2.102.022-2.511-1.044-.45-1.171-.207-1.478.85-1.073.813.312 1.716.184 2.005-.284.29-.468-.193-1.127-1.071-1.465-.933-.357-1.354-1.25-1.012-2.142.338-.88-.067-1.781-.953-2.121-.848-.325-1.304-1.208-1.015-1.962.289-.754-.022-1.385-.692-1.401-.671-.017-.408-.503.583-1.079 1.317-.766 2.24-.691 3.424.28 1.436 1.177 1.545 1.043.961-1.171-.363-1.375-.666-2.87-.673-3.321-.008-.452-.721-.115-1.585.75-1.992 1.992-3.543 2.031-2.791.071.384-.999-.044-1.505-1.281-1.515-1.563-.013-1.62-.168-.357-.977.825-.53 2.288-.717 3.25-.418 1.3.405 1.75-.019 1.75-1.645 0-1.825-.248-1.984-1.488-.955-1.205 1-1.606.929-2.107-.377-.376-.98-1.778-1.613-3.571-1.613-1.624 0-2.698-.412-2.387-.915.311-.503 0-1.142-.691-1.421-.736-.296-.507-.539.553-.585 1.017-.044 1.52-.547 1.149-1.147-.363-.588-1.29-.827-2.059-.532-1.051.404-1.399-.432-1.399-3.364 0-3.049-.446-4.043-2.041-4.549-1.212-.385-2.278-1.834-2.625-3.567-.321-1.606-.903-2.92-1.292-2.92-1.76 0-1.751 1.429.026 4.344 1.059 1.736 1.926 3.859 1.928 4.718.002.859.875 3.365 1.94 5.569 1.483 3.069 1.744 4.853 1.119 7.626-.616 2.732-.478 3.75.564 4.15.76.292 1.381-.01 1.381-.671 0-1.329 4.282 4.746 5.296 7.514.353.963.318 1.808-.077 1.879-4.628.83-9.089.333-16.219-1.808-.825-.247-1.617-.412-1.76-.365-.144.046-1.509-.561-3.035-1.35-2.528-1.308-12.05-1.363-15.923-.093-.67.22-1.463.002-1.763-.483-.307-.495-1.824-.516-3.457-.048-1.601.459-3.204.543-3.562.185-.357-.358-1.093.141-1.634 1.108-.71 1.268-1.439 1.504-2.617.844-1.091-.61-2.369-.432-3.848.538-2.536 1.661-3.519.758-2.346-2.157.538-1.337.838-1.503.907-.5.079 1.162.432 1.063 1.57-.441.807-1.068 1.468-1.405 1.468-.75 0 1.923 2.836 1.365 3.987-.784 1.168-2.183-1.653-3.482-6.912-3.184-1.416.08-5.05.175-8.075.21l-5.5.064 3.388 1.79 3.389 1.79-3.264.652c-4.8.96-5.013.882-5.013-1.847 0-1.375-.436-2.5-.969-2.5-.532 0-.673.788-.312 1.75.574 1.532.446 1.579-1.032.378-2.105-1.713-2.261.155-.187 2.229 1.754 1.754 1.912 2.643.468 2.643-.568 0-1.439-1.013-1.937-2.25-.866-2.154-.907-2.131-.968.531-.072 3.171-2.376 4.534-4.576 2.708-.986-.818-1.487-.867-1.487-.143 0 .616-.74.807-1.699.439-1.063-.408-1.251-.802-.5-1.052 3.383-1.128-1.431-6.149-6.42-6.697-1.902-.208-2.381.208-2.381 2.07 0 1.661.431 2.166 1.5 1.756.963-.37 1.5.02 1.5 1.09 0 .916.399 1.419.887 1.118.487-.301 1.5.206 2.25 1.128 1.2 1.476 1.138 1.592-.516.971-1.033-.388-3.846-1.2-6.25-1.806-2.404-.605-4.371-1.497-4.371-1.982 0-.484-.45-.881-1-.881s-1 .765-1 1.7c0 1.322-.267 1.433-1.2.5-1.735-1.735-3.276-1.478-1.8.3.685.825 2.202 1.506 3.372 1.514 4.181.026 6.152 1.19 7.759 4.578.897 1.89 1.3 3.642.896 3.891-.404.25-1.267-.715-1.918-2.144-.651-1.428-1.463-2.318-1.804-1.977-.342.341-1.294.062-2.116-.621-.823-.682-3.339-1.261-5.592-1.286-2.885-.032-4.105-.476-4.123-1.5-.015-.8-.379-2.017-.809-2.705-.542-.865-.071-1.252 1.526-1.257 2.182-.006 2.144-.116-.691-1.993-2.145-1.42-2.501-1.989-1.25-1.993 1.993-.008 2.258-1.099.656-2.701-.601-.601-.924-1.929-.717-2.95.262-1.287 1.111-.247 2.772 3.394 2.766 6.062 5.111 7.046 4.47 1.876-.23-1.856-1.094-4.668-1.919-6.25-1.637-3.14-2.097-11.856-.576-10.915.515.318.883 1.357.817 2.309-.207 3.004 1.265 7.337 2.28 6.71.536-.332.728-1.587.426-2.791-.301-1.204-.624-3.201-.716-4.439-.093-1.238-.523-2.25-.956-2.25-.433 0-.734-.338-.669-.75.326-2.063-.265-3.25-1.618-3.25-.825 0-1.5-.679-1.5-1.508 0-1.247.34-1.297 1.955-.288 1.075.671 2.299.875 2.721.454.421-.422.104-1.185-.705-1.697-1.214-.768-1.144-.933.396-.946 1.458-.012 1.761.536 1.384 2.508-.379 1.984.129 2.884 2.383 4.215 1.576.931 2.83 2.384 2.787 3.228-.053 1.028-.245 1.122-.583.284-.278-.688-1.169-1.25-1.98-1.25-.812 0-1.198.45-.858 1 .34.55.115 1-.5 1s-.835.457-.49 1.016c.346.559 1.044.76 1.551.446.508-.314 1.714-.11 2.681.453 1.508.879 1.367 1.029-.992 1.055-1.512.016-2.743.368-2.735.78.033 1.599 2.855 9.671 2.918 8.345.052-1.083.525-.991 2.067.405 1.719 1.555 2 1.589 2 .237 0-2.983-1.193-5.043-2.085-3.6-1.086 1.758-2.124.572-1.324-1.513.642-1.675 3.719-1.819 6.159-.29 2.168 1.36 1.354-1.148-.881-2.714-1.42-.994-1.91-2.071-1.467-3.226.368-.958.131-2.064-.528-2.472-.663-.41-1.163-2.779-1.124-5.333.038-2.527-.34-4.342-.84-4.033-1.584.978-.988-.451 1.27-3.048 1.2-1.38 2.887-2.515 3.75-2.523 1.342-.013 1.359-.149.118-.934-.799-.506-1.811-.697-2.25-.426-.439.271-.798-.385-.798-1.459s.675-2.211 1.5-2.528c.825-.316 1.5-1.255 1.5-2.085 0-1.554-1.263-1.271-7.748 1.74-2.736 1.27-3.202.861-4.234-3.714-.79-3.503-.742-3.579 2.259-3.579 1.686 0 3.888.745 4.894 1.655 1.707 1.545 1.829 1.536 1.829-.14 0-1.575.665-1.726 5.441-1.233 6.264.646 9.559.032 9.559-1.784 0-1.718 4.586-4.607 8.225-5.181 2.895-.456 2.949-.387 2.241 2.838-.68 3.094-.611 3.211 1.067 1.825 1.306-1.078 1.901-1.156 2.194-.286.221.656 1.054.944 1.85.638.797-.306 2.08-.032 2.852.609 1.114.925 1.538.74 2.059-.903.774-2.438 2.486-1.825 1.999.716-.183.96-.415 1.746-.515 1.746-.099 0-.286 1.691-.416 3.757-.178 2.854.123 3.695 1.251 3.5 2.619-.453 2.442 2.172-.228 3.389-1.419.646-2.579 1.505-2.579 1.908 0 1.199 2.887 1.938 3.527.902.791-1.28 8.111-1.22 10.554.087 1.508.808 2.082.695 2.541-.5.326-.849 1.402-1.543 2.391-1.543 1.274 0 1.655-.554 1.305-1.893-.388-1.481.34-2.177 3.343-3.196 5.248-1.78 6.339-1.902 6.339-.712 0 .563.862-.04 1.917-1.338 1.961-2.416.546-4.883-1.925-3.356-.546.337-.992.136-.992-.446 0-1.826-3.285-1.143-9.391 1.954-6.711 3.403-8.609 3.694-8.609 1.32 0-.916.284-1.382.631-1.035.348.347 1.545.143 2.66-.454 1.981-1.06 1.984-1.111.119-2.189-1.051-.606-2.36-1.125-2.91-1.151-.55-.027-.858-.87-.684-1.874.174-1.004-.376-2.592-1.223-3.527-1.398-1.545-1.297-2.043 1.093-5.402 1.449-2.036 3.164-3.701 3.813-3.701 1.28 0 3.901-4.934 3.065-5.769-.281-.281-2.885 1.278-5.787 3.466-6.162 4.644-9.926 6.83-11.15 6.475-.48-.14-.625.392-.322 1.181s-.458 2.382-1.692 3.541c-2.416 2.27-3.613 2.658-3.613 1.171 0-2.872-2.154-6.435-3.042-5.031-.789 1.247-.93 1.221-.943-.177-.008-.904.689-1.913 1.548-2.243.86-.33 1.254-1.101.875-1.714-.483-.782-.936-.713-1.521.235-.698 1.129-1.044 1.126-2.125-.018-1.024-1.083-1.032-1.462-.042-1.825.688-.252 1.218-1.659 1.18-3.125-.056-2.121-.217-2.296-.785-.856-.422 1.071-.785-.732-.887-4.407-.094-3.42-.589-6.635-1.099-7.145-1.558-1.558-.222-4.177 3.397-6.657 1.894-1.298 3.444-2.704 3.444-3.124 0-1.065-2.987-2.104-4.09-1.422-.501.309-.91.138-.91-.38 0-.519-.902-1.179-2.004-1.467-2.119-.554-1.876-3.346.297-3.412.664-.02 3.34-.288 5.948-.595 3.545-.417 4.945-.192 5.553.895.641 1.144 1.653 1.26 4.76.543l3.946-.91-3.279-.746c-3.172-.721-3.229-.822-1.75-3.08.841-1.283 1.529-3.474 1.529-4.869 0-1.394.436-2.535.969-2.535.532 0 .709-.675.393-1.5-.317-.825-.978-1.5-1.469-1.5-.491 0-.893.675-.893 1.5s-.686 1.5-1.525 1.5c-.838 0-1.916 1.031-2.396 2.291-2.277 5.99-6.469 5.342-5.726-.885.616-5.159-1.5-16.625-3.171-17.18-.725-.241-1.234.172-1.132.918.381 2.767-.095 3.672-1.8 3.423-.963-.141-1.911-1.113-2.108-2.161-.196-1.049-.814-2.468-1.372-3.156-.699-.86-.665-1.25.108-1.25.617 0 1.122-1.125 1.122-2.5 0-1.556.567-2.5 1.5-2.5.825 0 1.5.45 1.5 1s.45 1 1 1 1-1.141 1-2.535c0-2.225-.244-2.405-2-1.465-1.125.602-2 .665-2 .144 0-.51-1.238-1.258-2.75-1.663l-2.75-.735 3.366-1.423c3.013-1.274 3.563-1.245 5.25.282 1.036.938 1.884 1.212 1.884.609s-.457-1.379-1.016-1.724c-1.482-.916-.038-2.725 1.655-2.075 1.821.699 3.081-2.352 1.4-3.391-1.845-1.14.059-1.919 3.217-1.315 1.586.303 2.744 1.178 2.744 2.074 0 .853-.293 1.257-.652.899-.978-.979-3.347 4.157-2.698 5.849.64 1.667 4.906 1.996 5.86.453.346-.559 1.047-.758 1.559-.441 1.994 1.232.804-1.519-1.292-2.986-1.788-1.253-1.891-1.557-.531-1.557 1.092 0 1.487-.531 1.116-1.5-1.056-2.751.51-1.548 4.092 3.144 4.48 5.866 4.806 3.125.468-3.926-1.694-2.752-2.673-5.276-2.177-5.611 1.471-.991 2.244-3.996 1.195-4.644-.535-.331-.714-1.02-.397-1.532.316-.512.04-.931-.615-.931-.801 0-1.004-1.143-.622-3.5.486-2.991.287-3.5-1.369-3.5-1.065 0-1.937-.436-1.937-.969 0-1.324-3.214-.106-4.75 1.8-.81 1.006-1.25 1.12-1.25.325 0-.826-.572-.948-1.75-.375-.963.468-2.312.765-3 .66a49.61 49.61 0 0 0-2.744-.316c-1.102-.092-1.38-1.015-1.06-3.516.387-3.017.209-3.331-1.617-2.854-1.829.478-1.98.208-1.389-2.482.487-2.215.261-3.174-.846-3.598-.83-.319-2.658-2.401-4.064-4.627-2.714-4.3-7.53-5.845-7.53-2.416m81.535 7.619c.39 2.337 1.036 4.474 1.433 4.749.398.275 1.055 1.85 1.46 3.499.732 2.985.741 2.989 1.945.738 1.499-2.801 4.026-1.29 5.024 3.004.527 2.267 1.328 2.851 4.642 3.381 4.825.772 5.851 1.938 2.454 2.79-3.48.874-3.687 6.546-.243 6.667 1.387.049 1.675.268.75.573-3.086 1.017-6 2.713-6 3.492 0 .444 1.154.368 2.565-.169 5.076-1.93 5.846-1.336 3.476 2.68-1.708 2.895-1.885 3.828-.849 4.485.981.622.871.833-.442.845-.962.008-1.75.69-1.75 1.515s-.398 1.5-.883 1.5c-.486 0-1.093.799-1.348 1.776-.636 2.43-4.562 2.532-7.532.196-1.867-1.469-2.902-1.687-4.344-.915-2.37 1.269-2.363 1.388.295 4.983 2.522 3.411 3.586 3.651 5.374 1.21 1.209-1.651 1.442-1.629 4.11.384 1.555 1.174 2.704 2.828 2.551 3.675-.152.847.186 1.826.75 2.175.578.357 1.027-.285 1.027-1.469 0-1.156.563-2.012 1.25-1.901 2.04.329 4.75-1.223 4.75-2.721 0-.766.675-1.393 1.5-1.393s1.5-.862 1.5-1.917c0-2.505 1.501-2.918 6.926-1.904 4.532.846 6.899-.036 5.626-2.096-.371-.599-1.746-.821-3.056-.493-3.605.905-4.736-.294-2.909-3.082 1.002-1.53 2.135-2.168 3.153-1.778 1.084.417 1.348.222.832-.613-1.088-1.761 3.485-5.622 4.606-3.888 1.075 1.662 2.785-.763 2.807-3.979.026-3.854 2.008-2.46 2.133 1.5.066 2.063-.03 4.2-.212 4.75-.181.55-.273 2.797-.203 4.994.07 2.196-.397 4.327-1.038 4.734-.645.41.278.748 2.066.757 3.344.016 4.711-2.123 4.235-6.627-.385-3.648.058-5.153 1.704-5.785 2.187-.839 3.46 1.315 2.185 3.698-.553 1.033-.924 4.883-.823 8.554.1 3.671.182 8.31.182 10.308v3.633l4.893-.074c5.096-.077 5.7-.485 3.693-2.492-.933-.933-.796-1.2.617-1.2 1.321 0 1.674-.543 1.296-1.99-.397-1.517.368-2.49 3.217-4.091 2.055-1.155 3.741-2.622 3.746-3.259.005-.638.354-2.229.774-3.535.491-1.526.402-2.152-.249-1.75-.557.345-2.656-1.661-4.665-4.458l-3.652-5.084-2.514 2.712c-1.781 1.922-2.824 2.401-3.58 1.645-1.68-1.68 2.464-9.384 6.846-12.726 2.086-1.591 4.563-3.663 5.504-4.604 1.02-1.02 2.55-1.492 3.786-1.169 2.298.601 2.836-1.134.743-2.391-1.697-1.02-4.669-7.037-4.669-9.454 0-1.26-.73-1.846-2.3-1.846-1.265 0-2.728-.372-3.25-.826-2.638-2.294-11.029-3.147-35.788-3.639l-26.837-.533.71 4.249M325 123.059c1.079.739.038.886-3.715.523-2.903-.28-5.483-.071-5.819.473-.332.538-.992.738-1.466.445s-1.146-.072-1.494.491c-.348.563.071 1.293.931 1.623 1.776.682 2.234 7.386.504 7.386-.582 0-.781.45-.441 1s.196 1-.32 1c-.515 0-1.497 1.35-2.18 3-1.113 2.687-2.085 3.424-4.155 3.15-1.725-.228-1.539 2.812.206 3.366 1.072.34 1.949 1.038 1.949 1.551 0 .513.675.933 1.5.933s1.5.462 1.5 1.026c0 .588 1.255.376 2.944-.497l2.944-1.522-.482 3.996c-.423 3.513-.235 3.997 1.556 3.997 2.141 0 2.741 1.447 1.038 2.5-.55.34-.964 1.379-.921 2.309.049 1.041.273 1.211.583.441.278-.687.877-1.25 1.333-1.25.98 0 .745 1.44-.887 5.435-1.004 2.457-.948 3.075.346 3.799.851.476 1.546 1.341 1.546 1.921 0 1.244 4.993 7.387 5.015 6.172.009-.455.408-.207.889.551.487.77 1.411 1.046 2.091.625.872-.539.903-.948.109-1.439-.71-.439-.029-1.719 1.894-3.562l3.002-2.876.118 3.437c.066 1.89.046 4-.043 4.687-.142 1.089 1.837 1.738 4.175 1.368.413-.065.75.529.75 1.319 0 1.509 7.169 1.07 7.795-.477.463-1.144 5.188 1.393 5.197 2.79.012 1.846 4.69 1.52 5.418-.377.344-.894.229-2.132-.255-2.75-.483-.618-1.162-3.298-1.509-5.955-.347-2.658-1.269-6.258-2.05-8-.781-1.743-1.938-5.46-2.57-8.26-1.138-5.042-1.745-6.462-5.799-13.563-1.821-3.19-1.908-3.89-.688-5.5 2.196-2.899 1.791-3.659-3.557-6.662-2.759-1.55-4.799-3.171-4.532-3.602.56-.906-6.103-3.081-9.438-3.081-1.893 0-2.056-.242-1.012-1.5 1.047-1.262.868-1.498-1.128-1.485-1.932.013-2.094.206-.872 1.044m-112.592 50.035c.397 1.323.989 3.264 1.315 4.312.401 1.29.218 1.675-.565 1.191-.768-.474-1.179.231-1.221 2.094-.061 2.681-.105 2.706-.969.558-.497-1.238-.622-2.987-.277-3.887.433-1.126.189-1.485-.782-1.153-.873.299-1.367 1.773-1.299 3.879.066 2.068-.52 3.861-1.5 4.583-1.467 1.081-1.455 1.246.14 1.865.963.373 1.75 1.305 1.75 2.071 0 .766.41 1.393.912 1.393 1.036 0 .91-1.894-.249-3.75-.494-.79-.233-1.25.711-1.25.82 0 1.764-.858 2.097-1.908.796-2.51 2.71-3.164 4.796-1.638 1.451 1.061 1.495 1.489.317 3.101-1.041 1.423-1.692 1.604-2.726.758-1.011-.828-1.675-.768-2.598.234-1.648 1.79.078 2.836 3.332 2.019 3.998-1.003 7.02-10.566 3.34-10.566-1.063 0-1.879-.338-1.814-.75.42-2.657-.159-3.461-1.618-2.25-1.225 1.016-1.5.958-1.5-.319 0-.859-.521-1.885-1.158-2.278-.82-.507-.946-.015-.434 1.691m162.573 6.989c-.01 1.88-.234 7.917-.496 13.417-.263 5.5-.93 28.675-1.482 51.5-.552 22.825-1.231 47.125-1.508 54-1.348 33.45-1.508 87.497-.252 85.397.698-1.169 1.924-1.891 2.757-1.625 1.092.348 1.208.166.428-.669-.742-.794-.77-2.626-.089-5.949.782-3.819.666-5.437-.569-7.912-1.321-2.65-1.342-3.192-.136-3.655.984-.378 1.219-1.387.772-3.315-.621-2.677-.589-2.704.943-.772 1.023 1.288 1.599 1.521 1.619.654.018-.74.949-2.632 2.069-4.206 1.12-1.573 2.133-4.229 2.25-5.902.117-1.673.55-3.043.963-3.044 1.454-.004.729-2.796-.886-3.416-1.504-.577-1.499-.779.065-2.508 1.103-1.218 1.33-2.109.646-2.531-.669-.414-.326-1.434.937-2.79 1.5-1.61 1.683-2.327.744-2.908-.925-.571-.733-1.145.742-2.224 2.121-1.551 2.651-4.648 1.002-5.86-.56-.411-.204-.741.809-.75 1.21-.01 1.541-.429 1-1.265-.931-1.438-1.17-8.782-.268-8.225.33.204.52-2.094.422-5.106-.097-3.013.216-5.721.696-6.017.481-.297.615-.959.298-1.471-.316-.512.239-.938 1.234-.946 1.534-.013 1.581-.163.309-.985-1-.646-1.083-.974-.25-.985.688-.008 1.25-.52 1.25-1.137 0-.807-.397-.794-1.411.048-.965.801-1.616.839-2.059.123-.356-.577.054-1.049.911-1.049 1.823 0 2.069-1.567.408-2.594-.803-.496-.615-1.104.621-2.007 1.239-.907 1.638-2.207 1.328-4.323-.245-1.665.039-3.204.629-3.421.762-.28.758-.939-.012-2.274-.601-1.041-.769-3.041-.377-4.479 1.199-4.402.458-32.237-.87-32.679-.643-.215-1.168-1.44-1.168-2.723s-.562-2.56-1.25-2.838c-.977-.394-.969-.521.035-.583 1.004-.062 1.034-.549.134-2.23-.633-1.182-1.211-5.231-1.285-8.996-.074-3.765-.359-6.848-.634-6.85-.275-.002-.545-1.466-.601-3.254-.219-7.047-1.135-12.161-2.246-12.531-.641-.214-.911-.8-.6-1.303.311-.503.013-.915-.661-.915s-.929-.296-.567-.658c.362-.362.239-1.163-.273-1.78s-1.016-3.808-1.118-7.092c-.103-3.283-.816-6.982-1.584-8.22-.958-1.545-1.037-2.25-.251-2.25.785 0 .727-.505-.183-1.601-.73-.88-1.427-2.272-1.547-3.092-.447-3.042-1.37-2.526-1.388.776m-104.774 11.405c-2.421 2.516-3.174 5.56-.911 3.681 1.425-1.182 7.31 1.891 6.045 3.156-.371.371.102.675 1.051.675s1.47.414 1.157.92c-.312.506.449 1.743 1.691 2.75 1.249 1.011 2.264 2.949 2.269 4.33.006 1.837.613 2.586 2.288 2.825 1.253.178 2.792 1.146 3.419 2.15.627 1.004 1.747 1.593 2.488 1.308 1.078-.413 1.1-.814.109-2.008-1.378-1.661 1.123-4.261 4.128-4.29 1.372-.014 1.379-.134.059-1.003-1.23-.81-1.14-.949.5-.771 3.718.404 17.716-1.46 16.519-2.199-.836-.517-.677-.929.54-1.396 4.452-1.709.129-1.355-4.855.397-6.999 2.46-18.704 2.781-18.704.514 0-.811-.979-3.488-2.175-5.951l-2.176-4.478-1.959 2.201c-1.386 1.558-2.095 1.823-2.422.909-.355-.992-.788-1.022-1.865-.127-1.013.84-1.403.852-1.403.041 0-.617.45-1.122 1-1.122 1.2 0 1.261-1.041.161-2.773-1.426-2.248-4.655-2.127-6.954.261m61.706.117c-1.473 1.775 1.373 5.395 4.242 5.395 1.015 0 1.845.477 1.845 1.059s.47.769 1.044.414c.574-.355 2.157.084 3.517.975 3.665 2.401 1.771 5.642-2.859 4.891-4.988-.809-7.215 2.237-2.769 3.787 1.906.665 2.993 1.625 2.7 2.387-.268.701.555 2.255 1.832 3.454 1.72 1.616 2.445 1.837 2.803.856.385-1.05 1.145-.962 3.689.427 4.77 2.605 5.445 2.143 2.504-1.713-2.603-3.412-4.586-11.537-2.815-11.537.5 0 1.938.721 3.196 1.602 1.258.881 2.51 1.379 2.782 1.107.514-.514-2.496-2.724-13.823-10.146-5.663-3.711-6.884-4.168-7.888-2.958m12.274 33.895c-1.196 1.375-2.814 2.5-3.597 2.5-.783 0-1.63.563-1.882 1.25-.351.958-.75.976-1.705.078-.686-.644-1.826-.949-2.535-.678-.708.272-2.71-.241-4.45-1.14-2.61-1.351-3.434-1.41-4.722-.34-1.788 1.483-12.613 15.93-12.121 16.175.179.089 1.754 1.161 3.5 2.383 2.255 1.577 3.32 1.866 3.674.997.367-.902.771-.832 1.533.267.824 1.188 1.288 1.238 2.276.25.989-.989.896-1.242-.458-1.242-.935 0-1.7-.45-1.7-1s1.557-1 3.461-1c3.307 0 7.539-2.978 7.539-5.305 0-.511.928-.686 2.061-.389 1.287.336 2.275-.017 2.629-.941.313-.814 1.162-1.252 1.888-.973.729.279 1.597-.367 1.938-1.443.34-1.072 1.065-1.949 1.61-1.949.546 0 .712-.453.37-1.007-.343-.554.078-1.276.935-1.605.857-.329 1.266-1.07.909-1.647-.406-.657-.16-.748.66-.241.866.535 1.068.418.595-.345-.422-.685-.078-1.155.846-1.155.857 0 1.559-.45 1.559-1s-.477-1-1.059-1-.781-.45-.441-1c1.257-2.035-1.212-.917-3.313 1.5m-25.586 27.634c-2.144 1.576-4.506 2.866-5.25 2.866-2.805 0-1.153 2.892 4.629 8.107 3.289 2.966 5.989 5.868 6 6.448.038 1.972 6.781 8.445 8.798 8.445 2.016 0 3.712 2.416 3.336 4.75-.111.688.691 1.25 1.783 1.25s2.263.45 2.603 1c.34.55 1.068 1 1.618 1s.722-.45.382-1c-.34-.55-.115-1 .5-1s.818-.486.451-1.08c-.367-.594.281-1.744 1.441-2.557 1.159-.812 2.108-1.832 2.108-2.267 0-1.286-3.639-5.096-4.867-5.096-.623 0-1.133-.422-1.133-.938s-.937-.867-2.081-.781c-1.721.13-1.985.638-1.525 2.938.703 3.514.173 3.486-4.047-.219-1.879-1.65-3.023-3-2.542-3 .481 0 1.494-1.238 2.252-2.75.759-1.512 1.531-3.052 1.718-3.421.65-1.286-4.284.437-5.466 1.909-1.402 1.746-4.386-.042-10.242-6.137l-3.432-3.573 3.932-3.414c4.932-4.281 4.255-5.317-.966-1.48m-45.934-1.467c-.367.366-.667 1.476-.667 2.464 0 2.082-2.848 3.867-6.184 3.875-4.572.011-10.036 2.121-10.547 4.073-.513 1.963-1.254 2.272-4.769 1.991-1.528-.122-1.677.06-.63.768 1.115.756 1.022 1.139-.5 2.062-1.624.984-1.475 1.086 1.13.775 1.65-.197 3.675-.632 4.5-.967.825-.336 2.59-.744 3.922-.909 3.868-.478 3.795-2.796-.089-2.814-2.563-.012-2.987-.248-1.833-1.02.825-.552 3.398-.906 5.717-.785 2.32.12 4.538-.102 4.929-.493s2.318-.426 4.282-.078c2.938.521 3.35.399 2.322-.688-2.019-2.134-1.449-3.668 1.255-3.371 1.378.151 2.271-.103 1.985-.566-.286-.463.357-.986 1.428-1.163 1.741-.287 1.796-.525.525-2.248-.782-1.06-1.751-1.598-2.154-1.196-.402.403-.069 1.15.74 1.662 1.255.794 1.229.933-.172.946-.904.008-1.902-.66-2.219-1.485-.609-1.588-1.865-1.94-2.971-.833M321 311.417c0 .779.511 1.587 1.136 1.795 1.285.428-.513 4.202-3.229 6.777-.877.831-1.367 2.178-1.09 2.993.696 2.046 3.153 4.382 3.862 3.672 1.107-1.106 4.255 1.356 3.672 2.873-.413 1.076-.111 1.318 1.079.862.908-.349 1.521-.233 1.361.258-.16.49.667 1.922 1.838 3.181 1.17 1.259 2.376 3.814 2.678 5.679.824 5.075 3.646 10.448 5.178 9.86 1.568-.601 1.335-3.594-.322-4.146-.64-.213-1.156-1.363-1.148-2.554.01-1.377.293-1.73.777-.97 1.557 2.45 3.11-.081 1.659-2.704-1.227-2.216-1.386-2.271-1.431-.493-.042 1.661-.215 1.746-1.02.5-1.164-1.802-1.282-3.094-.25-2.75a.792.792 0 0 0 1-.5c.633-1.9.093-2.75-1.75-2.75-1.111 0-2-.667-2-1.5 0-.825-.562-1.532-1.25-1.57-.687-.039-.35-.457.75-.93 2.024-.87 1.477-1.15-2.731-1.398-.951-.056-1.766-.552-1.81-1.102-.044-.55-.987-1.965-2.095-3.145-1.443-1.536-1.679-2.351-.832-2.875.899-.555.885-.914-.06-1.498-1.664-1.028 2.606-3.358 4.69-2.558.883.339 1.346.1 1.12-.578-.498-1.493-4.782-3.118-4.782-1.814 0 .533-.525.968-1.167.968-.641 0-.882-.284-.535-.631.82-.82-1.076-4.369-2.333-4.369-.531 0-.965.637-.965 1.417m-67.442 54.164c-1.444 1.056-1.572 1.459-.499 1.576.792.087-.708.424-3.334.75-6.235.774-5.815 2.081 1.56 4.853 5.85 2.199 6.048 2.21 7.328.382.723-1.033 2.761-2.167 4.528-2.52l3.213-.643-2.866-2.992c-2.093-2.184-3.082-2.654-3.662-1.739-.438.688-.802.785-.811.215-.023-1.561-3.257-1.491-5.457.118" fill="#d3d3d3" fill-rule="evenodd"/></svg>