<svg xmlns="http://www.w3.org/2000/svg" width="500" height="727"><path d="M497 1.559c0 .857-.359 1.337-.798 1.066-1.913-1.183-3.43 1.081-2.228 3.326 1.582 2.956.671 5.03-1.913 4.355-2.162-.566-2.858 1.083-.954 2.26.771.477.696.944-.25 1.544-1 .633-.787.863.81.875 1.191.008 2.346-.525 2.566-1.184.25-.751.644-.563 1.052.5.495 1.29.108 1.699-1.606 1.699-1.806 0-2.25.55-2.218 2.75.029 2.035-.499 2.827-2.031 3.046-1.678.24-1.988.853-1.638 3.24.238 1.619.832 2.697 1.32 2.395.488-.302.888.153.888 1.01S490.45 30 491 30c1.439 0 1.234 2.739-.25 3.338-.687.277.1.584 1.75.683 2.886.172 2.906.204.529.867l-2.472.689 2.244 1.571c2.622 1.836 2.148 4.006-1.274 5.838-2.034 1.088-2.586 4.188-.682 3.826.36-.068 1.78.367 3.155.968l2.5 1.093-2.372.064c-1.933.051-2.155.326-1.195 1.482.93 1.12.797 1.662-.628 2.569-1.628 1.037-1.584 1.103.445.674 1.238-.261 2.25-.035 2.25.503s-1.012.896-2.25.796c-3.688-.299-4.463.229-1.332.907 3.785.82 4.645 3.132 1.165 3.132-1.42 0-2.583-.45-2.583-1s-.765-1-1.7-1c-1.256 0-1.407-.293-.578-1.122.617-.617.897-1.706.623-2.42-.298-.778.435-1.477 1.829-1.742 2.241-.427 2.233-.449-.224-.58-1.402-.075-3.09.404-3.75 1.064-.933.933-1.2.933-1.2 0 0-.66.482-1.2 1.071-1.2.59 0 .365-.707-.5-1.571-2.019-2.02-2.117-4.127-.115-2.465 1.934 1.605 3.486.529 2.833-1.965-.644-2.464-2.263-2.635-2.359-.249-.06 1.496-.195 1.46-.93-.25-1.258-2.928-1.287-5.502-.039-3.529.512.809 1.279 1.122 1.706.696.426-.427.187-1.139-.531-1.583-.719-.444-1.297-1.083-1.284-1.419.048-1.311-3.392-8.645-4.06-8.655-.597-.008-.573 2.944.072 8.709.081.729.839.955 1.886.562 1.536-.575 1.581-.448.371 1.04-1.328 1.632-1.19 4.777.457 10.429.402 1.381.224 2.25-.461 2.25-.615 0-1.117-1.098-1.117-2.441 0-2.506-1.941-4.722-2.074-2.368-.041.72-.268 2.349-.503 3.62-.256 1.38-.025 2.061.574 1.691.552-.341 1.003-.175 1.003.369 0 .545 1.012 1.134 2.25 1.309 1.598.227 2.34 1.101 2.561 3.015.217 1.877.752 2.526 1.761 2.139 1.019-.391 1.266-.077.832 1.055-.34.886-1.245 1.611-2.011 1.611s-1.393.388-1.393.861c0 .474 1.109.65 2.463.391 1.355-.259 2.427-.759 2.382-1.112-.257-2.011.329-3.14 1.63-3.14 1.116 0 1.324.754.855 3.099l-.62 3.1 2.653-2.653c1.46-1.46 3.1-2.378 3.645-2.041.546.337 1.059.249 1.142-.196.603-3.257.281-37.075-.35-36.686-1.003.62-1 .562.146-3.435.791-2.759.627-3.573-1-4.966-2.413-2.066-2.48-3.042-.196-2.861 1.502.119 1.759-.819 1.816-6.611.049-4.949-.284-6.75-1.25-6.75-.724 0-1.316.702-1.316 1.559M312 41.71c-.825.304-2.837 1.89-4.47 3.525-2.558 2.56-12.429 8.212-13.113 7.508-.131-.134-.644-1.818-1.141-3.743-.773-2.996-1.324-3.5-3.826-3.5-4.06 0-5.941 3.958-4.683 9.855.572 2.682.549 5.187-.063 6.712l-.975 2.433-.765-2.5c-1.139-3.724-1.161.445-.028 5.329 1.177 5.07 1.498 5.262 4.646 2.785 1.478-1.163 3.302-2.114 4.053-2.114.751 0 1.252-.552 1.115-1.226-.138-.675.805-1.387 2.093-1.582 1.958-.297 2.238-.023 1.702 1.665-.455 1.434-.049 2.338 1.395 3.111 1.12.599 2.313 2.193 2.652 3.541.504 2.01.944 2.275 2.446 1.471 2.719-1.455 3.063-1.233 2.369 1.533-.708 2.821 1.193 5.854 3.189 5.089.701-.269 1.49.048 1.753.704.512 1.279 11.648-10.058 11.65-11.86 0-.579 1.63-2.604 3.62-4.5 4.34-4.132 7.029-9.698 5.449-11.278-.757-.757-1.068-.574-1.068.632 0 .935-.502 1.7-1.117 1.7-.643 0-.883-.894-.564-2.111.394-1.509.016-2.25-1.327-2.601-1.119-.293-2.003-1.557-2.185-3.126-.24-2.057-.855-2.637-2.807-2.648-1.883-.011-2.456-.504-2.322-1.999.276-3.08-3.342-4.401-7.678-2.805m-16.028 60.839c-3.173 5.546-5.545 6.678-5.39 2.572.046-1.197-.179-2.016-.5-1.821-.32.195-2.044.981-3.832 1.747-1.788.765-3.25 1.743-3.25 2.172 0 .43-.675.781-1.5.781s-1.5.717-1.5 1.594c0 .876-.844 1.814-1.876 2.084s-2.458 1.578-3.169 2.906c-.711 1.329-1.779 2.423-2.374 2.431-.595.009-.406.452.419.985.988.638 1.076.975.258.985-1.2.014-2.508.988-10.187 7.581-5.404 4.64-9.704 7.434-11.44 7.434-.858 0-2.04.895-2.625 1.99-1.317 2.46-6.082 5.01-9.363 5.01-2.008 0-2.355.386-1.903 2.114.469 1.795.228 2.011-1.599 1.431-1.489-.473-2.336-.2-2.753.886-.331.863-1.174 1.569-1.873 1.569-.698 0-1.784.619-2.411 1.375-.628.757-2.863 1.651-4.966 1.987-9.249 1.479-17.545 6.978-16.63 11.024.267 1.178-.293 3.022-1.265 4.166-2.245 2.644-8.611 5.843-9.044 4.545-.501-1.502-3.078-.151-6.785 3.556-3.182 3.181-4.65 3.891-6.914 3.341-2.729-.663-9.5-.502-9.5.226 0 .456-1.012 1.288-2.25 1.848-7.048 3.189-11.75 7.373-11.75 10.454 0 2.307-6.874 6.292-8.799 5.102-1.376-.85-2.193 2.984-.909 4.268.748.748.566 1.608-.616 2.913-.922 1.019-1.676 3.232-1.676 4.917 0 3.212-10.451 15.282-13.225 15.274-4.529-.013-9.719-6.618-10.18-12.955-.062-.848-.973-2.817-2.025-4.376-1.935-2.87-1.179-4.605 2.025-4.65.602-.008 1.91-.915 2.905-2.015.995-1.1 1.345-2 .777-2-.567 0-1.592.675-2.277 1.5-1.337 1.611-3.492 2.105-2.553.585.311-.503.026-1.094-.632-1.313-.863-.288-.599-1.922.941-5.836 1.177-2.99 2.662-7.461 3.302-9.936.639-2.475 1.639-5.512 2.221-6.75.78-1.657.717-2.89-.24-4.678-.715-1.335-1.051-3.698-.748-5.25.57-2.914-7.785-22.155-9.67-22.269-.483-.029-2.733-1.651-5-3.603-5.505-4.743-6.431-5.45-7.134-5.45-.848 0-9.692-3.878-11.487-5.036-4.267-2.755-5.735-2.849-25.179-1.623-2.573.163-5.425.915-6.338 1.673-.913.758-3.307 1.323-5.321 1.256-4.183-.138-11.409 3.605-13.565 7.026-2.427 3.851-2.922 6.704-1.164 6.704.862 0 1.567.575 1.567 1.278 0 .703.9 2.048 2 2.99 1.119.958 2 2.95 2 4.522 0 1.546.392 3.237.871 3.76.479.522 1.176 2.242 1.549 3.821.635 2.687.516 2.83-1.871 2.231-1.602-.402-2.549-.222-2.549.486 0 .625-.717.851-1.611.508-1.18-.453-1.448-.192-1 .974.336.877.611 2.007.611 2.512 0 .505 1.125.918 2.5.918 3.23 0 3.297 2.583.088 3.389-2.363.593-2.767 1.934-1.294 4.292 1.36 2.175-1.073 2.343-5.633.388-2.486-1.066-5.038-2.906-5.672-4.089-1.445-2.701-2.194-1.995-2.456 2.316-.113 1.869-1.611 5.411-3.369 7.965-3.919 5.697-3.94 6.634-.164 7.389 1.65.33 3 .994 3 1.475 0 1.366-3.293.968-5.441-.657-1.068-.807-2.53-1.468-3.25-1.468-2.147 0-1.486 2.654 1.08 4.336 2.226 1.458 2.322 1.882 1.402 6.195-.887 4.16-.762 4.871 1.229 6.991 1.946 2.07 2.08 2.752 1.099 5.568C26.73 215.072 26.671 219 28 219c.55 0 1 1.595 1 3.545 0 4.156 3.629 8.434 7.205 8.493 1.262.021 3.92.274 5.905.562 1.986.289 7.15-.143 11.477-.96 6.442-1.216 8.323-1.255 10.39-.215 1.387.699 4.243 2.103 6.346 3.12 2.398 1.159 4.765 3.456 6.349 6.158l2.525 4.309-3.099 3.529c-1.704 1.941-3.119 3.85-3.144 4.244-.025.393-.251 4.315-.501 8.715-.664 11.688-1.129 15.614-2.283 19.25-.567 1.788-.819 3.25-.561 3.25.258 0-.394.926-1.449 2.058-3.105 3.333-4.278 15.395-1.986 20.425 1.067 2.342.839 2.919-2.5 6.339C61.049 314.51 60 316.465 60 318.67c0 1.697-.681 4.716-1.513 6.708-.833 1.992-1.267 3.622-.965 3.622.301 0 .03.968-.603 2.152-.969 1.81-.906 2.057.398 1.557 1.134-.435 1.732.262 2.232 2.598.375 1.756 1.133 3.753 1.684 4.437.715.888.325 1.794-1.362 3.16-2.433 1.969-4.194 1.1-3.171-1.565.284-.739-.146-3.03-.954-5.091-.809-2.061-1.249-4.373-.978-5.137.3-.849.052-1.118-.638-.691-1.099.679-1.608-1.237-1.16-4.366.167-1.165-.079-1.208-1.27-.22-.812.674-1.782 3.664-2.154 6.644-.372 2.981-1.548 6.526-2.612 7.878C44.91 342.93 44.418 345 45.83 345c1.038 0 7.543 8.96 6.942 9.562-.242.241-1.634-.901-3.094-2.539-3.738-4.195-10.345-8.365-12.153-7.671-.848.325-1.539 1.82-1.557 3.367-.043 3.754-2.565 7.31-3.265 4.603-.428-1.657-.482-1.663-.587-.072-.148 2.231-.812 2.198-5.961-.289-2.321-1.121-4.655-1.77-5.187-1.441-.533.329-.968.089-.968-.533 0-.621-1.052-.992-2.337-.824-2.329.305-5.663-2.085-5.663-4.06 0-.572-.675-.781-1.5-.465-.825.317-1.5.108-1.5-.464 0-.571-.891-1.322-1.98-1.668-1.089-.345-1.876-1.134-1.75-1.752.127-.618-1.004-1.238-2.513-1.379l-2.744-.254-.003 96.86-.003 96.861 6.246.606c13.566 1.316 43.998-.04 50.247-2.238 1.65-.581 4.575-1.34 6.5-1.687 1.925-.347 5.975-2.382 9-4.521 3.025-2.138 8.559-5.487 12.298-7.442 14.992-7.836 23.77-17.081 22.221-23.403-.614-2.506-.553-2.561 1.074-.962 1.622 1.593 1.879 1.576 4.316-.293 7.407-5.679 15.091-10.799 15.091-10.054 0 .465-.64 2.151-1.422 3.748-4.408 9.005-1.3 10.714 8.017 4.406 15.699-10.628 21.15-14.59 23.97-17.423 4.265-4.285 10.435-8.869 10.435-7.752 0 .511-.665 2.52-1.477 4.464-2.118 5.069-2.658 19.431-.801 21.288 3.491 3.491 5.112 3.608 9.823.71 2.493-1.534 6.131-3.689 8.085-4.789 1.953-1.1 4.749-3.764 6.211-5.92 4.696-6.922 6.67-5.358 3.688 2.92-2.004 5.562-1.914 10.487.221 12.108 3.934 2.986 12.459.767 18.663-4.858 5.434-4.927 6.093-3.227 1.587 4.096-7.909 12.853 1.144 23.889 9.807 11.954.718-.99 1.731-1.8 2.25-1.8 1.458 0 1.118 2.305-.731 4.944-1.658 2.368-2.212 10.814-.853 13.013 1.276 2.064 4.753.971 9.412-2.957 6.236-5.258 7.482-5.211 6.619.25-.369 2.337-1.12 5.825-1.667 7.75-1.789 6.291-.773 11.45 2.327 11.808 2.514.291 2.606.487 1.648 3.5-3.448 10.838-4.922 23.657-3.15 27.392 2.124 4.477 5.581 4.04 11.159-1.409 2.823-2.758 2.9-1.048.2 4.459-1.55 3.163-3.32 8.747-3.933 12.411-.614 3.663-1.806 8.314-2.65 10.334-4.484 10.73 4.25 21.418 10.973 13.428 3.41-4.052 3.401-1.869-.033 7.456-5.484 14.892-3.428 33.473 3.993 36.082 3.439 1.21 7.885-3.4 12.743-13.211 5.288-10.679 5.914-8.507 2.467 8.551-5.065 25.062.017 40.44 9.826 29.731 3.733-4.076 9.377-15.003 10.187-19.723.666-3.877 2.425-7.809 3.495-7.809.413 0 .51 4.163.215 9.25-.493 8.505-.356 9.476 1.695 12.055 3.305 4.152 7.812 3.486 10.501-1.552 1.1-2.061 2.604-3.749 3.342-3.75.739-.002 2.487-.903 3.885-2.003 3.185-2.505 4.273-2.526 4.273-.081 0 3.182 3.082 14.425 4.614 16.831 1.687 2.651 4.585 2.918 6.514.601 1.915-2.302 5.991-13.142 6.524-17.351.244-1.925 1.299-8.225 2.344-14s2.181-13.087 2.524-16.25c.343-3.163.992-5.75 1.441-5.75.449 0 .774-.562.722-1.25-.085-1.118.527-4.836 1.894-11.5.476-2.325 2.816-3.041 3.949-1.208.354.573-.115 5.254-1.042 10.402-2.197 12.207-1.565 32.538 1.372 44.056 6.359 24.946 9.957 37.308 11.572 39.762 2.405 3.655 6.195 4.599 8.51 2.119 2.067-2.213 6.108-18.098 6.966-27.381l.601-6.5 1.998 4c2.686 5.379 6.169 6.043 6.883 1.312.825-5.467 2.476-17.947 3.149-23.812.977-8.506 3.276-21.592 5.534-31.5 3.991-17.512 3.69-15.667 7.006-43 .6-4.95 2.228-13.5 3.618-19 3.307-13.088 8.03-36.866 8.889-44.754.374-3.435.956-6.696 1.294-7.246.337-.55.648-3.025.691-5.5.044-2.475.439-22.95.879-45.5.78-40.004.691-42.225-2.073-51.75-.279-.963-.095-1.75.41-1.75.888 0 4.246 6.343 9.661 18.25 2.551 5.61 3.8 6.783 5.056 4.75 1.056-1.709 2.335-1.128 5.726 2.602 2.854 3.139 7.552 6.398 9.224 6.398.303 0 .55-2.171.55-4.824 0-3.909-.664-5.758-3.5-9.747-1.925-2.707-3.5-5.322-3.5-5.809 0-.488-1.523-3.876-3.385-7.53-2.263-4.439-3.921-9.76-5-16.04-1.592-9.271-5.938-23.651-7.706-25.5-.5-.522-.909-1.743-.909-2.711 0-.969-1.717-3.467-3.816-5.55-2.098-2.084-5.036-6.264-6.528-9.289-7.346-14.894-11.749-20-17.245-20-1.261 0-2.571-.45-2.911-1-.34-.55-1.436-1-2.437-1-1 0-2.368-.663-3.041-1.474-.673-.81-2.865-1.742-4.872-2.072-4.018-.658-6.867-1.835-12.15-5.017-1.925-1.159-6.425-2.639-10-3.29-18.124-3.295-29.304-5.529-37-7.393-4.675-1.131-12.775-2.202-18-2.379-14.106-.478-21.036-1.164-22.337-2.21-.64-.514-2.738-1.253-4.663-1.643-1.925-.39-6.339-2.029-9.809-3.642-5.635-2.62-6.229-3.171-5.559-5.157.413-1.222.644-5.701.513-9.951-.137-4.43.257-8.654.922-9.898 1.201-2.244 2.765-16.776 3.472-32.263.431-9.457.801-10.671 2.678-8.794 2.116 2.116 2.783 1.266 2.795-3.567l.013-4.75 3.832 4.125c9.414 10.134 16.035 10.533 14.496.875-.853-5.351-1.025-31.5-.207-31.5.355 0 2.041 2.175 3.747 4.833 1.706 2.659 3.665 4.876 4.354 4.928.689.052 2.175.381 3.302.731 2.842.882 7.82-4.069 6.98-6.943-1.274-4.36-1.857-36.228-.675-36.958.63-.39 1.146-2.681 1.146-5.091s.453-4.662 1.007-5.004c2.547-1.574 6.99-16.264 6.992-23.119.002-4.79-6.847-16.778-9.732-17.034-.972-.086-5.747-.391-10.611-.677-4.864-.286-9.075-.752-9.359-1.036-.284-.283.785-2.454 2.375-4.823 1.59-2.369 3.724-6.107 4.742-8.307 1.019-2.2 2.258-4.787 2.754-5.75 2.312-4.484-1.358-1.161-4.196 3.799M124.255 231.25c.257.688.112 2.15-.323 3.25-.675 1.707-.819 1.56-.978-1-.111-1.793-.371-2.291-.646-1.238-.253.969-.875 1.505-1.384 1.191-.508-.314-.924.082-.924.881 0 1.667-2.689 2.976-4.197 2.044-.639-.394-.766.163-.343 1.497.371 1.169.27 2.125-.224 2.125s-1.489 1.105-2.212 2.455c-.722 1.35-2.036 2.647-2.919 2.884-1.005.269-.742.472.704.545 1.289.065 2.032.565 1.681 1.132-.346.559-.935.844-1.309.633-1.131-.636-6.7 3.027-6.431 4.231.137.616-.387 1.12-1.165 1.12-1.665 0-8.958 8.877-11.706 14.248-2.099 4.102-1.696 9.003.665 8.097.748-.287 1.934-.168 2.635.266.701.433 3.021.95 5.155 1.149 2.134.199 4.395.791 5.023 1.315 4.04 3.37 9.367 6.034 12.964 6.482 2.298.287 4.33.957 4.514 1.488.185.532.738.719 1.23.415.491-.304 1.832-.05 2.978.563 1.587.849 2.463.802 3.665-.196 1.381-1.146 1.491-1.028.869.931-.45 1.417-.297 2.242.415 2.242.619 0 .848-.45.508-1-.899-1.455.223-1.227 3.035.615 1.965 1.287 2.471 1.338 2.495.25.021-.912.371-.781 1.055.395.679 1.165 1.85 1.61 3.47 1.316 1.345-.244 2.445-.059 2.445.411s1.425 1.167 3.166 1.55c3.01.661 3.968 1.217 7.369 4.284.806.727 1.465.995 1.465.595 0-.399.787-.04 1.75.799.963.838 2.2 1.702 2.75 1.92 2.622 1.04 8.5 5.164 8.5 5.964 0 .495.624.901 1.387.901s3.871 2.363 6.907 5.25c6.973 6.633 10.573 9.75 11.259 9.75.757 0 5.447 4.774 5.447 5.544 0 1.018 4.38 4.386 5.75 4.423.688.018 1.25.919 1.25 2.002 0 1.162.512 1.773 1.25 1.491.837-.32 1.338.755 1.517 3.251.146 2.05.934 4.102 1.75 4.558.815.457 1.483 1.933 1.483 3.281 0 1.347.45 2.45 1 2.45s1 .675 1 1.5.45 1.5 1 1.5 1 .52 1 1.156c0 2.023 5.036 7.843 6.801 7.859 1.219.011 1.347.239.453.807-.86.546 1.924 3.839 9 10.645 5.635 5.42 10.122 10.266 9.971 10.768-.151.503.187.629.75.28.564-.348 1.025.069 1.025.926s.787 1.595 1.75 1.638c1.045.047 1.247.282.5.583-1.947.786-1.47 2.338.719 2.338 1.275 0 1.779.492 1.432 1.398-.295.769.474 2.339 1.708 3.489 1.235 1.151 1.962 2.375 1.616 2.721-.346.347.024 1.284.823 2.082.798.799 1.452 2.294 1.452 3.322 0 1.029.4 2.117.889 2.42.489.302 1.194 1.791 1.565 3.309 1.031 4.209 5.486 13.259 6.527 13.259.508 0 .776 1.637.597 3.638-.298 3.323 1.87 9.389 3.64 10.185.395.177 1.008 1.865 1.362 3.75.353 1.885 1.155 3.434 1.781 3.442.636.009.476.493-.361 1.095-1.331.957-1.33 1.026.008.609 1.882-.587 2.606 11.529 1.1 18.389-2.064 9.396-2.506 20.892-.804 20.892.951 0 1.704-1.077 1.923-2.75l.361-2.75 1.377 2.774c2.297 4.624 8.313 4.911 12.923.616 1.291-1.203 3.98-2.334 5.974-2.513 1.995-.179 4.079-.933 4.633-1.676 1.674-2.248 7.72-3.965 8.673-2.463.578.91.806.775.817-.488.043-4.953 3.982.707 4.349 6.25.265 3.989 3.785 9 6.323 9 2.885 0 3.844-1.645 2.533-4.345-1.949-4.015-6.19-15.489-6.19-16.747 0-.688-.613-1.961-1.363-2.829-.75-.869-2.125-3.604-3.056-6.079-.93-2.475-3.51-6.525-5.732-9-4.573-5.095-8.849-11.412-8.849-13.076 0-.613-.833-2.31-1.851-3.77-1.017-1.46-4.793-9.854-8.391-18.654-7.05-17.245-18.787-42.83-22.249-48.5-3.559-5.829-13.222-26.22-14.555-30.714-1.489-5.022-1.839-5.358-18.454-17.72-7.15-5.32-13.9-10.428-15-11.352-9.773-8.204-15.08-12.747-15.5-13.268-.914-1.133-15.379-11.46-24-17.134-11.868-7.811-20.265-17.023-19.198-21.062.109-.412-.365-.757-1.052-.765-.836-.011-.753-.342.25-1 1.281-.841 1.293-1.118.088-1.894-1.593-1.026-.771-2.164 3.885-5.382 1.359-.94 1.895-1.709 1.19-1.709-.704 0-1.003-.45-.663-1 .34-.55.141-1-.441-1s-1.059-.505-1.059-1.122c0-.73.582-.643 1.663.25 1.425 1.176 1.591 1.158 1.165-.128-.288-.871-1.929-1.6-3.912-1.738-11.295-.788-14.494-1.617-18.416-4.776-6.277-5.056-11.337-7.148-10.245-4.236M441 264.54c0 .297.909 2.322 2.02 4.5l2.021 3.96h-3.637c-3.284 0-3.579.219-3.034 2.25.331 1.238.609 2.813.616 3.5.008.688.464 1.25 1.014 1.25s1-.707 1-1.571c0-1.301.225-1.344 1.306-.25 1.746 1.766 2.852 4.821 1.746 4.821-.487 0-1.086-.562-1.332-1.25-.245-.687-.813-.907-1.262-.488-.449.42.134 2.048 1.295 3.618 1.572 2.126 1.822 3.145.979 3.988-.843.843-.762 1.132.317 1.132.797 0 4.248 3.014 7.67 6.697 3.421 3.683 6.558 6.359 6.972 5.946.413-.414.089-1.17-.72-1.682-1.236-.782-1.193-.933.267-.946 1.178-.01 1.662-.702 1.5-2.145-.24-2.149 3.109-3.69 4.237-1.949.888 1.369 5.025 2.314 5.025 1.146 0-.587-.659-1.067-1.465-1.067-3.186 0-3.556-3.502-.512-4.85 2.719-1.204 3.242-4.15.736-4.15-.564 0-3.248-2.257-5.963-5.015-2.715-2.759-5.355-4.757-5.867-4.441-.511.316-.985.097-1.054-.485-.069-.582-.181-1.509-.25-2.059-.069-.55-.575-1.044-1.125-1.099-2.068-.204-4.534-2.037-3.969-2.951.323-.523-.227-.953-1.222-.956-.995-.004-2.576-1.354-3.512-3-1.471-2.585-3.797-4.088-3.797-2.454" fill="#d3d3d3" fill-rule="evenodd"/></svg>