<svg xmlns="http://www.w3.org/2000/svg" width="500" height="395"><path d="M250 102.872c-1.375.385-4.412.655-6.75.601-2.338-.053-4.306.268-4.375.715a49.214 49.214 0 0 0-.25 2.062c-.069.688-1.475 1.382-3.125 1.543-5.046.493-5.906 1.013-4.49 2.719.858 1.033.892 1.488.112 1.488-2.118 0-1.122 1.962 1.306 2.571 5.146 1.292 3.852 3.426-1.996 3.291-3.025-.07-5.785.158-6.133.506-.348.347.825.632 2.606.632 2.895 0 3.077.161 1.72 1.518-.835.835-1.879 1.456-2.321 1.381-3.179-.539-3.969.525-2.304 3.101.804 1.243 1.563.858 4.434-2.25 2.911-3.151 4.151-3.769 7.765-3.866 2.366-.064 3.508-.323 2.539-.576-.969-.253-1.505-.875-1.191-1.384.314-.508.094-.924-.488-.924s-1.059-.45-1.059-1 1.728-1 3.839-1c3.126 0 4.052-.465 4.979-2.5.656-1.439.737-2.5.192-2.5-.521 0-.728-.562-.461-1.25.642-1.648 5.243-3.75 8.209-3.75 1.319 0 2.087-.441 1.742-1-.689-1.115-.948-1.123-4.5-.128m11 1.856c-1.375.243-2.95.911-3.5 1.486-.688.718-.219.887 1.5.54 1.375-.278 3.625-.156 5 .271 1.375.427 1.922.82 1.215.875-.973.076-1.025.586-.215 2.1 1.09 2.036-.291 2.957-1.5 1-.34-.55-2.166-1-4.059-1-1.893 0-3.441.45-3.441 1s.505 1 1.122 1c.776 0 .738.464-.122 1.5-.685.825-2.037 1.5-3.006 1.5-2.023 0-3.354 3.625-1.638 4.461.629.306-.517.361-2.547.121-2.825-.335-3.568-.117-3.167.927.288.751 1.161 1.12 1.941.821.779-.299 1.417.009 1.417.685 0 .916.343.945 1.342.116 1.716-1.424 2.583-.56 1.933 1.927-.36 1.377-1.379 1.942-3.499 1.942-2.316 0-2.853.357-2.383 1.582.334.87.607 2.05.607 2.622 0 .685.459.66 1.342-.073.738-.612 1.645-.811 2.015-.441.37.37 2.309-.871 4.308-2.758 2.161-2.04 3.384-2.722 3.017-1.682-.803 2.269 2.835 2.452 3.704.187.33-.86 1.053-1.284 1.607-.941.554.342 1.007.242 1.007-.221 0-.464 1.333-1.631 2.962-2.594 2.543-1.502 2.833-2.089 2.05-4.149-.635-1.671-.548-2.547.288-2.886.66-.269.364-.524-.657-.567-1.225-.052-1.661-.589-1.281-1.579.372-.97-.032-1.511-1.143-1.532-1.61-.03-1.608-.116.031-1.36.962-.731 1.75-1.789 1.75-2.352 0-.562-.788-1.301-1.75-1.64-.962-.34-2.2-.777-2.75-.973-.55-.196-2.125-.158-3.5.085m25 5.835l-3.5 1.324 3.5.096 3.5.095-3.45 1.497c-1.897.823-4.62 1.239-6.052.925-3.61-.793-8.5 3.342-7.538 6.374.5 1.576 1.498 2.13 3.857 2.141 2.522.012 2.871.236 1.683 1.076-1.134.803-1.194 1.185-.244 1.57.866.352.556 1.097-1 2.404-1.9 1.595-2.025 2.046-.79 2.857 3.271 2.149-11.265 4.435-18.187 2.861-2.697-.614-3.34-1.783-.981-1.783 1.172 0 2.613-.9 3.202-2 .913-1.706.76-2-1.036-2-2.242 0-5.265 2.365-4.281 3.35.323.323-.373.402-1.548.176-1.174-.226-2.135.061-2.135.638 0 .578-.7.781-1.556.453-.925-.355-2.564.412-4.045 1.893l-2.49 2.49 3.296.151c1.812.083 4.533.054 6.045-.064 1.512-.118 2.75.211 2.75.732 0 1.443-4.094 2.201-6.096 1.13-2.082-1.115-6.576-1.287-5.5-.212.405.406 1.268.787 1.917.848.648.061 2.079.186 3.179.278 1.67.14 1.753.328.5 1.137-1 .646-1.083.974-.25.985.688.008 1.25.462 1.25 1.008 0 1.222-8.059 1.071-9.66-.181-.757-.593-1.628-.239-2.51 1.021-.743 1.06-2.209 2.094-3.258 2.298-1.048.203-2.108.975-2.355 1.716-.358 1.075-.02 1.118 1.667.215 2.298-1.23 2.845-.191.916 1.738-.933.933-.809 1.2.559 1.2.967 0 1.481-.45 1.141-1-.34-.55-.093-1 .548-1s.9.692.576 1.538c-.383.997.196 1.855 1.643 2.437 2.546 1.024-.467 1.282-12.267 1.048-8.175-.162-12.995 2.325-6.771 3.492 2.763.519 4.111.287 5.309-.91 1.839-1.839 3.462-2.095 3.462-.546 0 .582.409.806.91.497.5-.309 1.697-.26 2.66.109 1.523.585 1.44.787-.635 1.555-1.922.711-2.104 1.058-.934 1.781.973.601 2.087.337 3.372-.802 1.424-1.26 2.033-1.375 2.359-.443.241.691.847 1.004 1.345.696.499-.308 1.692-.121 2.651.416 1.506.842 1.336 1.073-1.242 1.692-1.642.394-3.436.975-3.985 1.291-.55.317-2.35.509-4 .427-1.651-.081-2.208.082-1.239.363.969.281 1.505.926 1.191 1.435-.314.508.918.953 2.738.987 3.205.062 3.231.095.826 1.055-1.643.655-3.223.653-4.666-.004-1.657-.755-2.316-.648-2.736.446-.414 1.079.297 1.44 2.835 1.44 5.617 0 7.314 1.083 3.917 2.501-3.015 1.258-5.742.914-4.802-.606.304-.492.103-.895-.447-.895s-1.283.457-1.628 1.016c-.346.559-.935.832-1.309.605-1.137-.687-2.671 1.723-2.848 4.474-.161 2.497.01 2.581 4.5 2.208 7.13-.592 9.172 1.015 11.683 9.197 1.513 4.93 2.311 6.408 2.7 5 .471-1.706.571-1.633.683.5.108 2.051.322 2.23 1.192 1 .768-1.087.885.247.424 4.846-.372 3.707-.26 6.114.269 5.788.498-.308.989-3.141 1.092-6.296.2-6.101 1.124-8.907 1.124-3.411 0 2.419.516 3.395 2 3.783 1.616.423 2 1.364 2 4.907 0 2.491.469 4.383 1.088 4.383.713 0 .858-1.361.421-3.948-.406-2.399-.218-4.654.479-5.75.957-1.505 1.056-1.267.604 1.448-.298 1.787-.135 3.25.363 3.25s1.107 1.012 1.354 2.25c.246 1.238.292-1.125.101-5.25-.242-5.217-.111-6.424.429-3.966.427 1.944 1.173 4.177 1.659 4.962.485.786.8 2.795.699 4.466-.101 1.671.257 3.713.795 4.538.769 1.181.981.937.993-1.143.017-2.906 2.804-4.742 3.553-2.34 1.455 4.669 1.681 5.022 2.239 3.501.675-1.838 3.217-4.46 3.238-3.339.009.451.393.225.855-.503.69-1.088 1.093-1.07 2.263.1 1.194 1.194 1.627 1.206 2.685.074 1.022-1.095.97-1.35-.279-1.35-.846 0-2.355-.816-3.351-1.812-.997-.997-2.369-1.628-3.049-1.401-1.648.549-6.133-4.765-6.149-7.287-.007-1.1-.274-3.585-.595-5.523-.993-6 1.865-8.4 7.605-6.386 6.813 2.391 23.732-.24 28.426-4.42 2.96-2.637 8.146-4.486 11.031-3.934 1.36.26 2.621.028 2.802-.515.183-.548 1.319-.673 2.55-.283 1.221.388 1.962 1.123 1.647 1.633-.83 1.342 1.929 1.143 3.311-.239.89-.89 1.32-.771 1.807.5.352.917 1.219 1.667 1.926 1.667.707 0 1.563.722 1.901 1.604.339.882 1.254 1.359 2.034 1.059.78-.299 1.907.044 2.504.764 1.467 1.767 7.013 1.014 8.638-1.173 3.556-4.786 2.337-8.842-2.327-7.745-1.68.395-2.256.081-2.272-1.24-.019-1.472-.331-1.367-1.863.625-1.028 1.336-2.343 2.083-2.978 1.691-1.434-.887-1.493-3.585-.078-3.585.582 0 .781-.45.441-1s-.167-1 .384-1c.55 0 .836-.86.633-1.911-.202-1.051.259-2.738 1.026-3.75 1.102-1.455 1.407-1.526 1.458-.339.047 1.062.647.802 2.057-.892 2.139-2.567 1.878-4.129-.377-2.258-1.076.893-1.654.551-2.715-1.608-1.308-2.66-1.36-2.674-1.727-.492-.369 2.195-2.239 3.239-2.239 1.25 0-.55-1.462-1.007-3.25-1.015-7.024-.033-7.504-3.289-.647-4.385 5.544-.887 7.897-2.266 7.897-4.627 0-1.076.9-2.518 2-3.205 2.777-1.734 2.502-2.932-.5-2.179-1.54.387-2.5.202-2.5-.481 0-1.608-2.547-1.358-4 .392-1.04 1.253-.896 1.5.878 1.5 1.22 0 2.122.638 2.122 1.5 0 .833-.889 1.5-2 1.5-1.1 0-2 .45-2 1s.45 1 1 1 1 .492 1 1.093c0 .705-1.511.901-4.25.551-2.337-.298-5.456-.565-6.93-.593-2.509-.048-2.624-.247-1.804-3.108 1.123-3.913.28-6.172-2.029-5.439-2.127.675-4.987-1.91-4.987-4.508 0-1.024-.959-2.166-2.132-2.538-1.675-.532-1.836-.864-.75-1.552 1.017-.644.721-.91-1.118-1.007-1.86-.097-2.029-.253-.657-.606 1.331-.343 1.682-1.075 1.263-2.634-.318-1.188-.585-2.526-.592-2.975-.024-1.387-5.331-.27-5.823 1.225-.319.968.049 1.213 1.173.782.9-.346 1.636-.223 1.636.273s-.897 1.186-1.994 1.534c-3.393 1.077-5.252 3.501-3.918 5.108.945 1.139.631 1.381-1.716 1.324-2.479-.061-2.598-.183-.872-.893 1.714-.705 1.771-.916.399-1.479-.88-.362-2.005-.582-2.5-.489-.494.092-1.773.115-2.84.049-3.262-.199 1.27-3.044 4.941-3.102 2.07-.032 2.58-.313 1.643-.906-.946-.6-1.021-1.067-.25-1.544.609-.376 1.107-1.473 1.107-2.436 0-.964.895-2.714 1.989-3.888 4.081-4.38 1.252-5.61-8.489-3.691l-3 .591 3-2.065c1.65-1.135 3.675-2.074 4.5-2.086.825-.012 2.175-.498 3-1.081 1.114-.787.47-.906-2.5-.462-3.719.555-3.864.49-2.059-.925 2.385-1.871.567-1.855-4.441.04m-90.817 37.087c.251 1.466-.201 1.771-2.183 1.471-4.832-.733-5.427-.605-5.808 1.247-.24 1.166.028 1.614.712 1.191.603-.372 1.096-.203 1.096.376 0 .617 1.416.871 3.424.614 5.892-.754 7.144 2.702 1.404 3.877-3.028.62-4.832 1.885-4.891 3.431-.044 1.131-.345.943-.968-.607-.933-2.321-2.969-3.104-2.969-1.143 0 .67-.691.814-1.75.366-.963-.407-2.572-.705-3.576-.663-1.479.062-1.598-.197-.628-1.365.999-1.204.737-1.405-1.578-1.213-1.684.139-2.958.926-3.239 1.999-.497 1.901-1.104 2.09-5.729 1.78-3.691-.248-3.835-.381-3.058-2.827.852-2.685 9.644-4.397 13.808-2.688 1.292.53 1.758.232 1.782-1.139.03-1.771.094-1.775 1.382-.078 1.257 1.658 1.394 1.663 2.002.08.869-2.265-1.035-3.295-4.925-2.664-1.882.306-4.408-.118-6.183-1.036-3.261-1.686-7.131-1.244-8.958 1.023-.633.785-2.067 1.496-3.188 1.581-2.412.181-3.496 3.215-1.686 4.717.699.58 2.003.774 2.897.43 1.078-.413 1.627-.093 1.627.952 0 1.058-.546 1.366-1.664.937-1.124-.432-1.428-.257-.936.54.444.718-.174 1.54-1.586 2.106-2.132.855-2.053.933 1.002.992 3.716.071 7.184 1.601 7.184 3.17 0 3.701-9.139 5.573-10.46 2.143-.642-1.667-.721-1.667-1.657 0-1.419 2.528-8.883 2.486-8.883-.05 0-2.874-1.931-4.26-4.072-2.923-1.439.899-2.222.767-3.773-.637-1.298-1.175-2.181-1.407-2.625-.689-.367.595-1.036.854-1.486.576-.449-.278-1.378.171-2.063.996-.924 1.113-1.588 1.218-2.566.407-.725-.603-2.353-.81-3.617-.461-2.262.625-2.259.604.202-1.325a151.099 151.099 0 0 0 4.903-4.052c1.322-1.151 2.897-2.099 3.5-2.107.603-.009.422-.459-.403-1-2.071-1.36.358-2.954 4.5-2.954 2.239 0 2.627.236 1.528.931-1.942 1.227-.252 1.866 5.972 2.256 3.557.223 4.707.754 5.487 2.532 1.299 2.96 2.919 2.849 4.352-.297 1.51-3.314 1.474-3.511-.503-2.752-.959.368-1.411.229-1.066-.329.986-1.595-.572-3.078-4.019-3.826-2.712-.588-3.149-.444-2.643.875.754 1.965-.291 2.039-2.177.153-.784-.784-1.153-2.134-.821-3 .465-1.212-.072-1.574-2.336-1.574-3.78 0-4.697.958-2.508 2.619 1.501 1.14.995 1.317-3.766 1.317-5.117 0-5.361-.105-3.505-1.507 1.712-1.294 1.783-1.642.5-2.453-3.087-1.952-13.995-.83-13.995 1.44 0 1.308-6.806 4.111-7.733 3.184-.321-.32-1.074-.188-1.675.295-.628.504-3.856.482-7.592-.051-9.1-1.3-17.594.166-16.561 2.858.403 1.051.126 1.345-.896.953-1.472-.565-3.216 1.005-2.221 2 .287.288 2.442.677 4.788.865 5.635.453 8.123 1.901 10.34 6.018 1.009 1.872 2.22 3.166 2.692 2.874.472-.291.858-.027.858.588s.45.84 1 .5c.55-.34 1-.134 1 .457 0 .592 1.575 1.826 3.5 2.744 2.647 1.263 3.504 2.295 3.515 4.234.01 1.559.314 2.096.777 1.368 1.247-1.963 3.515.153 2.75 2.566-.55 1.73-.34 2.011 1.143 1.53 1.514-.49 1.566-.409.315.491-1.289.928-1.246 1.082.309 1.095 1.035.008 1.524.476 1.144 1.092-.819 1.324 2.645 4.724 4.262 4.185.645-.215.932-1.017.639-1.783-.432-1.125.094-1.211 2.755-.448 2.313.664 3.499.603 3.999-.206.509-.824 1.153-.706 2.276.416 1.976 1.976-.105 3.172-5.134 2.949-3.445-.153-4.377 1.164-1.583 2.236 1.271.487 1.39.917.5 1.807-1.894 1.894-1.361 2.449 1.893 1.971 2.204-.323 2.9-.865 2.489-1.938-.367-.956-.103-1.309.74-.985.721.277 2.414-.107 3.761-.854 1.348-.746 1.813-1.372 1.033-1.392-.779-.019-1.12-.331-.758-.693.362-.362.156-1.262-.456-2-.863-1.04-.692-1.36.759-1.421 1.053-.044 1.325-.299.622-.583-.687-.278-1.25-1.341-1.25-2.362 0-2.777-1.683-3.281-2.386-.715-.498 1.817-.79 1.965-1.548.787-.514-.799-.701-1.83-.416-2.29.473-.767-1.96-.436-7.15.97-1.1.298-2.331 1.043-2.735 1.657-.407.618-.741-.096-.75-1.604-.011-2.056-.398-2.571-1.584-2.116-1.426.547-1.426.258 0-3.154 2.123-5.081 1.922-6.515-.504-3.601-1.452 1.743-2.309 2.108-3.1 1.317-1.977-1.977-.102-4.227 3.525-4.227 2.644 0 3.541-.481 3.972-2.131.514-1.966.683-2.005 2.18-.508.929.929 1.295 2.155.857 2.864-2.847 4.607.605 5.591 9.415 2.684 3.989-1.316 4.776-.631 5.854 5.091.362 1.925.931 3.725 1.264 4 1.739 1.436 3.136 5.266 2.308 6.328-.502.645-1.152 2.072-1.444 3.172-.292 1.1-.844 2.9-1.226 4-.685 1.972-.673 1.973.886.059 1.434-1.76 1.582-1.777 1.582-.191 0 .962.418 1.492.929 1.176.51-.315 1.084.446 1.274 1.691.331 2.16.425 2.125 2.032-.735l1.685-3 .04 2.719c.03 2.006.436 2.566 1.551 2.138 1.136-.435 1.342-.116.831 1.282-.652 1.78-.594 1.785 1.317.111 2.562-2.244 3.895-2.203 7.3.22 1.521 1.084 3.052 1.686 3.4 1.338.977-.977 6.927-1.426 8.625-.65 2.038.93 23.297.39 24.345-.619 1.048-1.007 7.838-.177 9.171 1.122.662.644.343 1.458-.941 2.406-1.255.926-1.459 1.433-.579 1.433.749 0 2.158-.72 3.13-1.6 2.005-1.814 9.131-2.177 9.692-.494.203.609.78.852 1.283.541.503-.311.915-.033.915.616 0 .897.352.89 1.456-.027.801-.664 1.885-.944 2.408-.62.523.323 2.005.191 3.294-.294 2.168-.816 2.025-.968-1.919-2.043-2.343-.639-4.818-1.09-5.5-1.002-3.771.487-6.739-.208-6.739-1.577 0-.825-.45-1.5-1-1.5s-1-.603-1-1.339c0-.737-1.183-1.879-2.629-2.538-1.446-.659-2.372-1.455-2.057-1.77.315-.315-.527-2.314-1.871-4.443-1.344-2.129-2.443-4.731-2.443-5.783 0-1.052-.64-2.159-1.422-2.459-.966-.37-1.267-1.536-.937-3.628.335-2.127.101-2.998-.757-2.811-.694.151-1.262-.723-1.286-1.979-.023-1.238.29-2.284.696-2.326 2.06-.211 6.706 1.367 6.706 2.278 0 .644.563.576 1.47-.177 1.685-1.399 7.53-2.045 7.53-.832 0 .444-.45.807-1 .807-2.311 0-.728 1.895 2.75 3.292 4.284 1.72 5.131 1.475 3.15-.912-1.245-1.501-1.134-1.597 1.108-.959 1.897.54 2.134.459.992-.34-1.015-.711-1.096-1.055-.25-1.066.688-.008 1.25-.493 1.25-1.078 0-.584-.787-.983-1.75-.885-3.157.321-3.658-.033-1.883-1.331 1.658-1.212 1.649-1.397-.176-3.5-1.059-1.222-2.66-2.221-3.558-2.221-.898 0-1.633-.436-1.633-.969 0-.532-.562-.752-1.25-.489-2.067.794-1.591 5.65.5 5.103.963-.252 1.75-.101 1.75.335 0 .436-1.369.994-3.043 1.24-2.218.325-2.907.092-2.541-.86.275-.719-.119-1.657-.877-2.084-.758-.427-1.526-1.433-1.708-2.237-.182-.803-1.119-2.352-2.082-3.44-1.171-1.323-1.392-2.202-.666-2.65.643-.398.235-.894-.998-1.217-1.276-.333-2.085-1.357-2.085-2.638 0-1.152-.562-1.981-1.25-1.844-.758.152-1.133-.6-.952-1.911.164-1.189-.204-2.472-.817-2.851-.697-.43-.996.005-.798 1.162m216.442 1.168c-.455.725-1.457 1.077-2.226.782-.77-.296-1.403-.214-1.407.181-.021 1.944-5.415 3.173-9.091 2.071-4.592-1.376-6.643-.698-7.073 2.337-.281 1.983-.815 2.263-3.757 1.973-2.657-.262-3.835.189-5.228 2-.989 1.286-1.809 1.749-1.821 1.029-.012-.72-.444-1.048-.961-.729-.516.319-1.355-.165-1.865-1.076-.839-1.499-1.129-1.453-3.061.479-1.174 1.174-2.135 2.758-2.135 3.52 0 2.471-4.59 4.814-6.031 3.078-1.352-1.629-4.619-1.971-5.136-.538-.183.509-1.008 1.071-1.833 1.25-.825.179-1.813.762-2.196 1.296-1.521 2.124-2.133-.794-1.161-5.539 1.075-5.249.442-6.944-1.652-4.421-.819.987-.868 1.489-.145 1.489.6 0 .825.694.5 1.542-.326.848-1.324 1.422-2.219 1.275-.895-.147-2.189.086-2.877.517-.737.462-1.25.299-1.25-.397 0-.903-.341-.899-1.441.014-.792.657-1.194 1.837-.893 2.622.302.785.05 1.427-.559 1.427-.609 0-1.107-.9-1.107-2 0-1.175-.667-2-1.617-2-1.124 0-1.457-.609-1.093-2 .681-2.605-.344-2.53-3.32.242-2.083 1.942-2.176 2.287-.688 2.574 1.853.357 2.405 2.184.659 2.184-.582 0-.769.47-.414 1.044.355.574.047 1.764-.683 2.644-1.167 1.406-1.057 1.514.908.891 1.788-.568 2.113-.39 1.622.889-.698 1.818 3.869.255 6.447-2.206 1.428-1.364 3.597-1.748 2.827-.501-1.004 1.625 2.183 4.427 4.279 3.762 1.14-.362 2.073-.29 2.072.16 0 .449 1.688.753 3.75.676 2.169-.082 3.646-.609 3.501-1.25-.138-.61.2-1.109.75-1.109s1 .42 1 .933c0 .513.9 1.218 2 1.567 2.467.783 2.593 2.198.25 2.811-1.128.295-.816.498.878.573 3.931.174 6.065 3.121 2.244 3.101-1.579-.009-3.543-.44-4.362-.958-1.015-.641-2.276-.428-3.949.669-1.792 1.174-2.567 1.285-2.86.408-.293-.881-1.043-.782-2.801.369-1.384.908-2.4 1.122-2.4.506 0-.587-.562-.994-1.25-.904-5.702.74-6.989.012-6.316-3.575.798-4.255-.163-4.364-3.316-.377-1.67 2.111-2.067 3.328-1.328 4.067.579.579.826 1.646.548 2.371-.388 1.012.96 1.285 5.828 1.177 9.384-.206 13.57 1.522 14.734 6.083 2.008 7.867 2.357 12.214.938 11.681-.776-.292-1.858.621-2.578 2.175-1.487 3.214-1.062 3.982 1.041 1.88 1.15-1.151 1.652-1.226 1.988-.298.352.971.944.948 2.725-.108 2.003-1.187 2.202-1.157 1.662.25-.337.879-.177 1.599.355 1.599.533 0 .976-.562.984-1.25.011-.833.339-.75.985.25.753 1.165.973.872.985-1.309.008-1.545.423-2.557.921-2.249.498.308.714 1.572.48 2.809-.398 2.096-.363 2.113.523.249.523-1.1.982-1.411 1.021-.691.038.72.464 1.066.945.768.481-.297.648 1.476.37 3.941-.334 2.963-.122 4.482.625 4.482.621 0 1.146-1.463 1.165-3.25l.036-3.25 1.429 2.5c1.421 2.485 1.43 2.476 1.5-1.5.07-3.976.079-3.985 1.5-1.5.786 1.375 1.452 2.05 1.48 1.5.028-.55.528-.325 1.111.5.846 1.196 1.169 1.232 1.593.177.397-.989 1.122-.768 2.873.876 1.371 1.289 3 1.947 3.93 1.59.931-.357 1.824.005 2.158.874.313.816 1.546 1.483 2.74 1.483 3.475 0 5.437 2.973 3.941 5.973-.85 1.705-.903 2.67-.171 3.123.736.455.721.862-.048 1.338-1.814 1.121-1.256 2.418.807 1.878 2.618-.684 4.57 2.914 3.086 5.688-.589 1.1-1.681 2-2.428 2-1.356 0-2.6 2.122-2.54 4.332.018.652.584.442 1.283-.477 1.719-2.259 4.193-.37 5.135 3.918.392 1.784 1.126 2.989 1.631 2.677.506-.313.919.134.919.991 0 2.265 7.845 2.154 9.519-.135 1.162-1.59 1.398-1.591 3.81-.01 2.433 1.594 2.641 1.585 3.871-.17.942-1.343 2.334-1.785 5.05-1.602 2.122.142 3.75-.206 3.75-.803 0-.58.282-.772.627-.428.345.345 1.853-.007 3.351-.782 2.107-1.089 2.994-1.139 3.915-.218.874.874 1.379.891 1.899.064.389-.619 1.608-1.35 2.708-1.625 1.533-.383 1.358-.527-.75-.616-1.512-.064-2.75-.552-2.75-1.085 0-.532-.72-.692-1.601-.354-.88.338-1.936.073-2.345-.589-.472-.764-1.748-.952-3.494-.514-1.764.443-2.319.957-1.548 1.433.861.532.887.937.095 1.427-.609.376-1.107.195-1.107-.402 0-1.003-13.237-.6-16.75.51-.687.218-1.257-.153-1.265-.823-.01-.771-.372-.668-.985.281-.533.825-.976 1.139-.985.698-.008-.44-1.1.369-2.425 1.8-1.356 1.462-2.68 2.165-3.027 1.604-.759-1.229.046-19.661.921-21.077.349-.564.199-1.025-.332-1.025-.532 0-1.148-2.363-1.368-5.25-.69-9.018-1.172-9.55-8.784-9.695-3.393-.065-4.131-.337-3-1.107 1.081-.737.444-.839-2.281-.368-5.675.982-7.9-1.99-7.511-10.032l.292-6.048 7.219-.885c5.96-.731 7.641-.609 9.636.698 2.629 1.723 3.645 1.328 3.645-1.416 0-1.266.925-1.86 3.25-2.084 2.666-.257 3.305-.785 3.554-2.939.261-2.247.894-2.704 4.395-3.174 2.249-.302 4.458-1.145 4.909-1.874.45-.729 1.398-1.336 2.106-1.348 1.562-.028 1.158-3.151-.802-6.207-1.34-2.087-1.256-2.271 1.329-2.899 1.517-.369 3.659-1.327 4.759-2.131 1.856-1.355 1.731-1.42-1.75-.913-3.868.563-4.621-.057-2.567-2.111 3.355-3.355-3.892-1.287-12.603 3.595-.506.284-.649-.189-.319-1.05.848-2.21-.183-2.874-2.52-1.624-1.499.803-2.199.739-2.814-.257-.644-1.041-.961-.957-1.48.397-.364.947-1.079 1.722-1.589 1.722-.511 0-.386-1.012.276-2.25s1.015-2.261.785-2.274c-.23-.014.546-1.251 1.725-2.75 2.21-2.81 10.356-4.121 10.356-1.667 0 .582.448.782.996.443.548-.338 1.959-.801 3.136-1.027 3.154-.608 3.202-1.026.335-2.905-2.655-1.739-8.467-1.39-8.467.509 0 1.659-1.845.964-2.2-.829-.268-1.35-.536-1.449-1.175-.432M41.714 151.65c1.336.542-.426 4.35-2.014 4.35-.45 0-.54-.45-.2-1s.13-1-.466-1c-.596 0-1.353 1.343-1.681 2.984-.328 1.641-.953 2.763-1.389 2.494-.436-.27-.979.067-1.206.749-.323.967-1.603.993-5.836.118-4.401-.91-5.569-.866-6.204.235-.624 1.083-1.189.949-2.801-.663-1.428-1.428-2.664-1.81-4.218-1.306-1.21.392-3.549.87-5.199 1.062-1.65.191-3.543.419-4.206.504-.663.086-.931.601-.596 1.144.336.543.123.686-.474.317a1.275 1.275 0 0 0-1.751.406c-.428.693-1.153.432-2.037-.734-1.266-1.67-1.375-1.589-1.404 1.047-.026 2.345.282 2.723 1.718 2.109 3.472-1.485 7.579-1.807 6.791-.532-.409.661-1.358.966-2.11.678-.752-.289-1.633-.094-1.958.432-.325.526-1.459.956-2.521.956-3.224 0-2.226 4.98 1.016 5.07 2.227.062 2.297.163.576.836-1.936.757-1.936.775-.008 1.854 1.071.6 1.577 1.461 1.124 1.913-.453.453-1.399.037-2.102-.925-2.05-2.803-2.562-2.084-2.495 3.502.051 4.16.251 4.783.968 3 .956-2.377 2.44-2.914 3.466-1.254.339.547-.6 2.122-2.087 3.5-2.612 2.42-2.34 3.379.456 1.608.83-.526 2.38-.339 3.954.478 2.977 1.544 4.001 1.112 2.281-.961-.92-1.107-.896-1.542.107-1.945.711-.285.19-.554-1.158-.597-1.882-.061-2.177-.352-1.27-1.259.877-.877 1.761-.896 3.45-.073 1.248.609 2.945 1.329 3.77 1.601 1.163.383 1.107.512-.25.573-.963.043-1.75.559-1.75 1.146 0 1.335 3.884.192 5.775-1.699 1.454-1.454-.329-4.368-2.672-4.368-.572 0-.782-.672-.467-1.494.316-.822 1.046-1.203 1.623-.846.613.379.753.169.336-.505-.392-.635-.21-1.155.405-1.155s.84-.45.5-1c-.895-1.448-4.493-1.231-4.133.25.168.688.125.938-.096.556-.22-.381-1.046-.446-1.836-.143-.789.303-1.435.026-1.435-.615s-.457-.883-1.016-.538c-.559.346-.758 1.047-.441 1.559.316.512-.157.931-1.051.931-1.172 0-1.449-.56-.992-2 .407-1.282.18-2-.633-2-.916 0-.964-.303-.175-1.092 1.216-1.216 7.199-1.894 7.822-.886.219.354 1.763.444 3.432.199 1.668-.245 2.789-.841 2.49-1.325-.299-.484-.1-1.671.443-2.638.941-1.676 1.018-1.676 1.666.007.374.971.447 2.658.161 3.75-.332 1.269-.023 1.985.856 1.985.756 0 1.139-.616.85-1.368-.408-1.063.325-1.249 3.282-.833 6.481.912 9.256.56 11.065-1.406 1.131-1.23 2.752-1.778 4.629-1.563 2.291.261 2.762.003 2.281-1.25-.333-.869-.144-1.58.421-1.58.566 0 .726-.489.356-1.087-.369-.598-1.471-.878-2.448-.623-3.205.838-4.457-.831-2.266-3.022 1.775-1.775 2.075-1.811 3.059-.368.918 1.346 1.101 1.177 1.15-1.068.084-3.814-.903-5.844-2.798-5.753-.98.047-1.153.278-.429.571m350.148 6.017c-.609.733-1.897 1.333-2.862 1.333-2.725 0-4.345 2.469-2.581 3.933 1.043.866 2.436.925 5.013.213 2.122-.586 3.568-.612 3.568-.065 0 1.052 3.403 1.185 6.831.268 1.743-.467 2.196-1.137 1.798-2.662-.326-1.245.128-2.539 1.169-3.33 1.482-1.126 1.178-1.298-2.348-1.325-2.228-.018-4.59.508-5.25 1.168-.718.718-1.2.785-1.2.167 0-1.481-2.831-1.276-4.138.3M54.62 164.806c-.752 1.217 2.314 5.353 3.448 4.652.513-.317.932.336.932 1.452 0 1.399.469 1.847 1.513 1.447.832-.32 2.219.006 3.083.723 2.102 1.744 5.638 1.971 5.004.321-.268-.7.05-1.492.706-1.76.853-.349.766-.792-.306-1.55-1.319-.932-1.309-1.062.083-1.076.871-.008 1.893.294 2.271.672.938.939 4.646 1.15 4.646.265 0-.393-2.025-1.224-4.5-1.848-2.475-.623-4.5-1.529-4.5-2.013s-1.013-.836-2.25-.783c-1.237.054-3.902-.233-5.922-.636-2.02-.403-3.913-.343-4.208.134M188.591 173c-.412.986-2.158 1.542-5.091 1.623-2.455.068-5.511.809-6.79 1.647-1.388.91-2.907 1.201-3.768.722-.793-.441-3.544-1.116-6.114-1.499-5.812-.867-7.801 1.882-7.239 10.007.648 9.362.802 9.555 8.911 11.216 1.65.338 4.125.653 5.5.699 1.375.047 2.982.7 3.572 1.451 1.314 1.677 18.976 2.829 17.951 1.172-.363-.589.25-1.038 1.418-1.038 1.132 0 2.059-.505 2.059-1.122 0-.807.397-.794 1.411.048.844.701 1.645.792 1.994.227.522-.844-1.629-2.34-3.691-2.567-.433-.047-1.158-.687-1.612-1.421-.454-.735-1.225-1.41-1.714-1.5-.488-.091-.905-1.516-.925-3.166-.021-1.651-.385-3.563-.809-4.25-.465-.753-.252-1.263.537-1.284.72-.02.228-.635-1.092-1.367-1.383-.766-1.889-1.501-1.193-1.733.88-.294.679-1.619-.74-4.884-1.339-3.078-2.145-4.011-2.575-2.981M11.556 187.285c.293.764-.329 1.348-1.531 1.438-1.114.084-2.032-.382-2.04-1.035-.009-.713-.41-.588-1 .312-.692 1.054-1.208 1.166-1.735.376-.479-.718-1.558-.822-2.987-.287l-2.238.837-.011 103.039-.011 103.039 250.249-.252L500.5 394.5l.104-65c.057-35.75-.082-63.8-.309-62.333-.226 1.467-1.541 3.886-2.922 5.376l-2.51 2.708 2.568-.644 2.569-.645v7c0 6.676-.118 7.03-2.56 7.642-1.675.421-2.37 1.136-2.011 2.071.311.812.111 1.158-.465.803-.558-.345-.89-.067-.739.618.172.776-.948 1.289-2.975 1.364-3.231.119-4.388-.887-2-1.74.688-.245.882-.839.432-1.318-.451-.48-1.656.237-2.682 1.598-1.025 1.359-2.123 2.21-2.442 1.892-.318-.318.552-1.797 1.932-3.287 3.228-3.483 3.169-4.609-.24-4.59-1.512.009-2.275.346-1.695.75.69.48.43 1.341-.75 2.485-1.493 1.448-1.805 1.491-1.805.25 0-.825-.439-1.5-.975-1.5-.633 0-.633.901.001 2.57.731 1.922.617 2.93-.453 4-1.881 1.881-3.573 1.82-3.573-.129 0-.857-.432-1.292-.959-.966-.528.326-1.765.16-2.75-.368-.985-.529-2.607-1.216-3.604-1.527-.998-.311-1.529-1.026-1.181-1.589.348-.563 1.128-.717 1.733-.343.719.444.868.074.431-1.066-.369-.96-.67-1.934-.67-2.164 0-.23-.675-.418-1.5-.418s-1.5.374-1.5.832c0 .983-7.166 3.335-7.905 2.596-.279-.279.485-.767 1.699-1.084 2.263-.592 3.085-2.344 1.099-2.344-.609 0-.848-.675-.531-1.5.316-.825.139-1.5-.393-1.5-.533 0-.969.604-.969 1.342 0 .738-1.74 1.863-3.866 2.5-4.746 1.422-6.444 1.469-5.634.158.34-.55 1.716-1 3.059-1 1.343 0 2.441-.42 2.441-.933 0-.513.9-1.218 2-1.567 2.872-.912 2.471-2.313-.5-1.745-1.375.263-2.507.988-2.515 1.612-.01.749-.285.708-.81-.118-.602-.949-1.315-.767-2.943.749-1.922 1.791-4.398 2.707-7.915 2.928-.65.041-1.452.925-1.783 1.966-.714 2.251-4.534 3.584-4.534 1.582 0-.737.851-1.609 1.892-1.94 2.457-.78 3.321-4.179 1.519-5.98-.776-.776-1.411-1.92-1.411-2.542 0-.621-.45-.852-1-.512-.55.34-1-.309-1-1.441 0-1.132.563-2.066 1.25-2.074.885-.011.838-.276-.159-.908-2.152-1.362-4.43-.19-2.994 1.54 1.496 1.803.073 1.77-4.406-.102-4.171-1.742-5.269-3.079-3.185-3.879.907-.348 1.494.003 1.494.895 0 .808.9 1.469 2 1.469s2-.436 2-.969c0-.532-.642-.722-1.427-.421-1.048.403-1.311-.071-.989-1.781.241-1.281.172-1.771-.153-1.088-.457.958-.915.918-2.011-.178-1.708-1.709-1.878-2.964-.265-1.968.715.443.883.275.44-.44-.417-.675-.096-1.155.773-1.155.817 0 1.691.788 1.943 1.75.27 1.035.504.582.573-1.107.086-2.127-.259-2.713-1.352-2.294-.807.31-1.705.18-1.994-.288-.29-.468.222-1.139 1.138-1.49.915-.351 1.987-.116 2.382.523s1.222.851 1.838.47c1.917-1.184 4.083 1.732 2.432 3.274-.755.705-1.035 1.817-.623 2.472.518.824.855.652 1.095-.56.191-.962.957-1.75 1.704-1.75 1.024 0 1.151.717.518 2.925-.889 3.099-.503 4.075 1.613 4.075.716 0 1.065-.617.776-1.371-.289-.754.175-1.64 1.032-1.969.856-.328 1.557-1.047 1.557-1.597s-.68-.739-1.511-.42c-1.063.408-1.335.12-.918-.969.327-.851 1.208-1.312 1.959-1.024 1.118.429 1.149.067.167-2.013-.756-1.602-1.547-2.187-2.147-1.587-.523.523-1.385.95-1.917.95-.531 0-.693-.273-.36-.607.987-.986-1.582-3.124-3.243-2.699-.842.216-2.096-.527-2.788-1.651-1.187-1.927-1.031-2.043 2.75-2.043 2.204 0 4.008.378 4.008.839 0 .462 1.35.759 3 .661 1.929-.115 3 .3 3 1.161 0 .736-.52 1.339-1.155 1.339-.749 0-.635.615.325 1.75.815.962 1.575 3.318 1.689 5.234.115 1.916.667 3.941 1.227 4.5.868.866.68-4.818-.461-13.984-.075-.598 2.458-.9 6.302-.751 4.34.168 7.157-.229 8.675-1.224 1.51-.99 2.369-1.112 2.615-.374.236.709 1.554.838 3.708.366 2.356-.518 2.943-.98 1.992-1.568-.778-.481-1.912-.368-2.676.266-.968.803-1.638.788-2.483-.057-.877-.877-.867-1.158.042-1.158.66 0 1.2-.445 1.2-.989s-1.125-.895-2.5-.782c-1.375.114-2.5.732-2.5 1.372 0 1.558-3.802 2.494-4.281 1.055-.281-.842-1.013-.843-2.856-.004-1.949.889-3.212.798-5.92-.425-1.894-.856-6.593-1.672-10.443-1.813-3.85-.142-9.475-.5-12.5-.796-3.025-.296-6.175-.563-7-.594-1.267-.046-1.281-.193-.091-.947.775-.49 2.125-.642 3-.337 1.085.378 1.273.223.591-.487-.55-.573-2.575-1.358-4.5-1.745-3.371-.677-3.426-.641-1.5.969 1.964 1.642 1.955 1.661-.5 1.111-1.375-.308-3.062-.567-3.75-.574-.687-.008-1.25-.689-1.25-1.514 0-.825-.723-1.5-1.607-1.5-1.055 0-1.398-.544-.999-1.584.4-1.044.182-1.385-.643-1-.688.32-2.039.86-3.001 1.2-1.827.644-2.209 1.592-1.092 2.709.362.362 1.337.099 2.166-.584 1.312-1.079 1.43-.752.905 2.509-.332 2.063-.196 3.75.302 3.75.499 0 .708.563.467 1.25-.242.688-.639 2.375-.882 3.75-.675 3.82-2.476 7.876-2.553 5.75-.034-.962-.765-1.75-1.622-1.75-.857 0-1.3.419-.984.931.317.512.118 1.213-.441 1.559-.559.345-1.006 1.614-.994 2.819.022 2.19.023 2.19 1.846-.181 1.316-1.71 1.949-1.989 2.271-1 .506 1.557.196 21.588-.655 42.372-.824 20.121-1.103 22.873-2.359 23.292-.619.206-1.125.814-1.125 1.35 0 .537.498.668 1.106.292 1.098-.678.477 42.316-.627 43.42-1.023 1.023-78.925-1.543-131.479-4.331-15.125-.802-32.9-1.677-39.5-1.944-14.032-.567-77.029-5.12-93-6.721-6.05-.606-15.44-1.385-20.867-1.73l-9.868-.628.201-12.5c.111-6.875.541-17.9.956-24.5.415-6.6.833-20.325.928-30.5.094-10.175.441-21.65.771-25.5.341-3.99.023-11.085-.74-16.5-.736-5.225-1.348-12.589-1.359-16.365l-.022-6.864-7.75.449c-5.702.331-7.75.125-7.75-.778 0-1.431 2.764-2.706 4.09-1.886.501.309.91.03.91-.619 0-.806.398-.867 1.25-.194 2.218 1.752 9.75 2.263 9.75.662 0-.773-.562-1.437-1.25-1.475-.687-.039-.35-.457.75-.93 1.1-.473 1.422-.891.715-.93-.898-.049-1.013-.598-.382-1.82 1.708-3.308 2.358-9.25 1.012-9.25-.968 0-.978-.267-.045-1.2 1.701-1.701 1.487-2.797-.55-2.815-.988-.009-1.315-.335-.75-.75 1.622-1.192 1.622-3.235 0-3.235-.825 0-1.5.477-1.5 1.059s-.45.781-1 .441-1-.141-1 .441-.9 1.059-2 1.059c-2.322 0-2.98-6.438-.75-7.338.688-.277.013-.54-1.5-.583-2.11-.061-2.75.387-2.75 1.921 0 1.244-.662 1.994-1.75 1.985-1.337-.012-1.436-.215-.419-.86.901-.571.014-1.054-2.746-1.495-2.243-.359-4.026-.985-3.963-1.391.063-.407.005-1.077-.129-1.489-.133-.412-.299-1.2-.368-1.75s-.463-1-.875-1h-1.285c-.295 0-.054.9.535 2 .726 1.356.737 2 .035 2-.569 0-1.042-.562-1.05-1.25-.011-.847-.316-.775-.946.221-.512.809-1.251 1.151-1.643.759-.391-.392-1.266-.253-1.942.308-1.817 1.509-6.441-.816-5.793-2.912.405-1.31.21-1.27-.999.205-.825 1.006-1.303 2.919-1.062 4.25.47 2.591-1.024 3.362-1.932.997-.36-.938-1.333-1.213-2.857-.807l-2.311.616 2.5.707c2.085.589 2.168.735.5.877l-2 .17 2 .95c1.816.863 1.784.908-.349.497-1.292-.249-2.065-.169-1.719.178.347.346-.396 1.2-1.651 1.897-2.102 1.168-1.953 1.248 1.916 1.022 3.71-.217 7.553-1.685 4.411-1.685-.674 0-.943-.457-.598-1.016.906-1.466 2.49-.189 2.49 2.008 0 1.955-3.247 3.592-4.99 2.514-.586-.362-.903.341-.759 1.686.286 2.656-2.52 2.727-5.418.138-1.275-1.14-2.14-1.236-3.684-.41-2.503 1.34-3.149 1.356-3.149.08 0-.55.702-1 1.559-1s1.281-.45.941-1c-.34-.55.335-1 1.5-1 1.247 0 1.847-.439 1.458-1.068-.363-.588-1.261-.838-1.995-.556-.735.282-2.448-.363-3.807-1.432-3.117-2.452-3.423-2.433-3.276.206.129 2.303-2.351 3.253-5.762 2.208-1.508-.462-1.607-.751-.5-1.452.899-.57-.364-.886-3.618-.906-3.568-.022-4.571-.304-3.5-.987 1.062-.677.331-.861-2.5-.631-4.805.391-6.5-.128-6.5-1.989 0-1.842-2.473-1.777-4.365.115-.934.934-1.744 1.124-2.13.5-.343-.555-1.609-1.044-2.814-1.087-1.354-.049-1.655-.291-.79-.634 1.026-.406.757-.912-1-1.885-1.778-.986-1.962-1.34-.71-1.367.93-.019 1.987.444 2.349 1.03.431.697 1.315.471 2.559-.655 1.486-1.345 1.904-1.413 1.916-.315.013 1.152.168 1.165.862.07.466-.735 1.134-1.297 1.485-1.25 2.938.393 5.648-.09 5.138-.915-.34-.55.031-1 .824-1 .794 0 1.698.977 2.011 2.171l.567 2.171 1.887-2.33c1.962-2.423 4.545-2.045 3.56.52-.369.964.075 1.473 1.294 1.483 1.399.012 1.528.224.523.861-1.069.678-1.012.969.288 1.468.925.355 1.843.046 2.136-.718.518-1.351 3.432-1.399 6.66-.111 1.033.413 1.75.246 1.75-.408 0-1.784-.446-2.625-1.25-2.357-.413.137-.75-.2-.75-.75 0-.886 2.145-1.451 4.25-1.118.412.065.75-.837.75-2.004 0-1.774-.247-1.918-1.5-.878-.946.785-1.5.852-1.5.181 0-.584.472-1.355 1.049-1.711 1.521-.94-.834-3.47-3.23-3.47-1.066 0-1.659.45-1.319 1 .34.55-.196 1.057-1.191 1.126-.995.07-2.783.182-3.973.25s-2.502.462-2.916.874c-1.069 1.065-2.651.933-1.973-.165.311-.503 0-1.142-.691-1.421-1.314-.529 2.474-1.024 5.494-.716.962.098 1.75-.301 1.75-.885 0-.585-1.538-1.063-3.418-1.063-1.88 0-4.164-.286-5.075-.636-1.232-.472-1.574-.152-1.332 1.25.241 1.396-.181 1.798-1.621 1.547-1.674-.291-1.762-.117-.628 1.25.725.874.926 1.635.446 1.69-2.658.309-8.074-.422-9.372-1.265-1.155-.75-.983-.864.751-.498 1.426.301 2.011.086 1.596-.586-.363-.586-.186-.771.394-.412.577.357 1.293.013 1.591-.763 1.069-2.786-5.233-3.533-7.838-.929-1.531 1.532-1.894 1.532-5.105 0-4.162-1.984-4.466-2.013-3.833-.363M.472 330.5c0 35.75.125 50.23.278 32.177.152-18.052.152-47.302-.001-65C.596 279.98.471 294.75.472 330.5" fill="#d3d3d3" fill-rule="evenodd"/></svg>