<svg xmlns="http://www.w3.org/2000/svg" width="500" height="750"><path d="M30 335.496V610h440V61.022l-220-.015-220-.015v274.504m311.675-144.838c-.362.362-.099 1.346.584 2.187 1.041 1.283.958 1.424-.509.874-.962-.361-1.75-.413-1.75-.116 0 .862 2.402 3.026 4.018 3.62 1.191.437 1.111.697-.413 1.323-1.228.505-2.283.282-3-.634-1.407-1.797-6.605-2.48-6.605-.867 0 .696.829.972 2.001.665 1.101-.288 1.76-.132 1.465.345-.296.478.941 1.256 2.748 1.729 3.156.825 3.201.905 1.141 2.016-1.712.924-2.394.858-3.379-.329-1.071-1.291-1.555-1.164-3.682.962-3.618 3.619-2.852 7.173 1.453 6.742 2.632-.264 3.132-.023 2.636 1.269-.517 1.347-.208 1.44 2.003.599 1.44-.547 2.614-.595 2.614-.107s.788.736 1.75.552c.962-.184 2.2-.414 2.75-.511.55-.097-.092-.481-1.426-.854-1.334-.373-2.645-1.341-2.912-2.151-.377-1.139-.168-1.222.925-.369.777.607 3.213.994 5.413.861 5.154-.311 5.402-.432 3-1.464-1.533-.659-.949-.883 2.5-.96 3.562-.08 4.135-.313 2.75-1.12-2.17-1.264-2.3-3.92-.191-3.92.857 0 1.267-.472.911-1.049-.431-.697-1.048-.716-1.843-.057-.745.619-1.745.643-2.661.064-1.14-.721-.911-.957 1.034-1.059 1.83-.096 2.011-.257.677-.602-1.073-.278-1.601-1.054-1.282-1.884.298-.777.115-1.413-.407-1.413-.523 0-1.231 1.122-1.576 2.493-.344 1.371-.98 2.274-1.414 2.006-.434-.268-1.085.285-1.447 1.229-.565 1.472-.793 1.507-1.605.244-.833-1.295-1.059-1.296-1.892-.001-.52.809-1.205 1.211-1.523.893-.935-.935.568-3.864 1.982-3.864.805 0 1.102-.757.78-1.989-.286-1.094-.871-1.772-1.3-1.507-.429.265-1.061-.64-1.405-2.011-.62-2.467-1.639-3.109-2.913-1.835M423 197.01c0 .453.563 1.024 1.25 1.27.727.259.879.817.363 1.333s-1.074.361-1.335-.369c-.247-.691-.882-.989-1.412-.661-.593.366-.513 1.138.208 2.006.771.929.808 1.411.107 1.411-.584 0-1.367-.492-1.739-1.094-.372-.602-1.76-.887-3.084-.634-1.983.379-2.304.132-1.817-1.4.429-1.353.191-1.707-.874-1.298-1.718.659-2.546 6.046-1.52 9.882.674 2.523.525 2.675-2.465 2.513-5.074-.274-5.186-.18-5.099 4.283.124 6.301.283 6.863 1.851 6.542.789-.162 1.426.106 1.415.594-.011.489.395 1.164.902 1.5 1.519 1.009 3.235 7.003 2.189 7.649-.517.32-.94.049-.94-.6 0-.881-.382-.865-1.5.063-1.118.928-1.5.944-1.5.063 0-.649-.452-.902-1.003-.561-.552.341-.776 1.915-.497 3.498.511 2.899-.514 4.244-3.482 4.574-.835.092-2.418.535-3.518.984-1.78.727-1.849.631-.628-.871.755-.928 1.077-1.687.715-1.687-.361 0-.176-.9.413-2 .898-1.679.76-2-.858-2-1.06 0-2.165.619-2.456 1.375-.29.756-1.652 1.375-3.027 1.375-1.847 0-2.345-.405-1.906-1.549.436-1.137.15-1.378-1.079-.906-1.247.478-1.674.091-1.674-1.518 0-2.12-.028-2.124-1.582-.218-1.35 1.657-1.501 1.685-1.031.191.303-.963.114-1.75-.418-1.75-.533 0-.969.465-.969 1.032 0 .568-1.012 1.439-2.25 1.937-1.724.693-1.841.919-.5.968.962.034 1.75.765 1.75 1.622 0 .924-.47 1.268-1.155.846-.715-.443-.883-.275-.44.44.392.635.263 1.155-.287 1.155s-1.278-.45-1.618-1c-.34-.55-.115-1 .5-1s.821-.481.458-1.068c-.363-.588-1.29-.827-2.059-.532-.77.296-1.399.053-1.399-.538 0-.592-.725-.798-1.611-.458-1.153.443-1.447.189-1.032-.893.319-.831.144-1.511-.388-1.511-.533 0-.969.45-.969 1s-.675 1-1.5 1-1.5-.45-1.5-1-.391-1-.869-1-.711 1.35-.519 3c.249 2.14-.076 3-1.132 3-.814 0-1.48-.675-1.48-1.5s-.477-1.5-1.059-1.5-.781-.45-.441-1c.635-1.027-.629-1.373-3.81-1.042-.995.103-2.402-.304-3.127-.906-1.006-.835-1.444-.615-1.847.927-.291 1.112-.121 2.021.378 2.021 1.345 0 1.098 2.355-.472 4.502-1.331 1.821-1.439 1.823-3.194.069-1.755-1.755-1.841-1.753-2.552.056-.404 1.03-.767 1.343-.806.694-.09-1.51-2.884-4.321-4.296-4.321-.596 0-.328.835.595 1.855.993 1.098 1.408 2.562 1.016 3.584-.526 1.37-.839 1.452-1.509.395-.647-1.022-.849-.924-.861.416-.009 1.091.741 1.75 1.993 1.75 1.711 0 1.836.277.843 1.868-1.661 2.658-.376 5.434 2.144 4.634 1.152-.366 2.005-.183 2.005.431 0 .587-.62 1.067-1.378 1.067-.757 0-1.995.759-2.75 1.687-1.201 1.478-1.154 1.606.378 1.032.962-.361 1.75-.268 1.75.205 0 .474-.609 1.096-1.353 1.381-1.435.551-4.886-2.732-3.904-3.714 1.621-1.622.843-6.466-1.122-6.98-1.127-.295-2.291-.159-2.585.301-1.144 1.786-7.036 2.345-7.036.667 0-3.082-2.778-1.605-3.141 1.671-.563 5.099.065 7.716 1.703 7.088.972-.373 1.438.135 1.438 1.565 0 1.895-.497 2.089-4.75 1.855-3.891-.214-4.697-.577-4.456-2.009.178-1.062-.338-1.749-1.313-1.749-1.078 0-1.504-.714-1.294-2.168.237-1.643-.353-2.349-2.437-2.914-2.38-.645-2.752-.454-2.765 1.418-.009 1.19-.452 2.839-.985 3.664-.822 1.272-.972 1.225-.985-.309-.008-.996-.483-1.52-1.056-1.166-.572.354-.786 1.445-.475 2.425.464 1.46.11 1.695-1.959 1.3-2.454-.47-3.604-2.25-1.454-2.25 1.069 0 3.929-2.428 3.929-3.335 0-.263-.849-.256-1.887.016-1.038.271-2.237-.072-2.664-.764-.547-.885-.285-1.068.887-.618.915.351 1.664.25 1.664-.223 0-.719-2.293-2.076-3.509-2.076-1.146 0-3.162 5.946-2.14 6.314.632.227.876.709.542 1.073-1.274 1.386-3.955-.615-3.355-2.505.337-1.063.119-1.882-.502-1.882-1.5 0-2.563 3.046-1.344 3.851 1.734 1.144 2.171 5.017.705 6.235-.768.637-1.397 1.779-1.397 2.536 0 .758-.436 1.378-.969 1.378-.532 0-.727.629-.431 1.399.295.769-.021 1.743-.702 2.164-.864.534-1.045.262-.599-.899.753-1.964-2.723-2.404-3.904-.494-.492.795-.17.957 1.006.506 1.382-.53 1.603-.263 1.097 1.33-.399 1.257-.176 1.994.601 1.994 2.263 0-.055 1.326-2.837 1.622-2.154.23-2.423.067-1.252-.759 1.231-.869 1.177-.95-.312-.469-1.248.404-1.583.203-1.09-.655.392-.682.362-.923-.067-.537-1.363 1.229-3.982-2.161-2.677-3.466.848-.848 1.14-.641 1.151.814.013 1.624.177 1.699.982.45.689-1.07.486-1.858-.707-2.75-1.561-1.167-1.56-1.258.019-1.375.93-.069 2.199-.181 2.819-.25 1.91-.212 4.45-4.625 2.662-4.625-.984 0-1.509-1.214-1.624-3.75-.371-8.226-1.138-10.364-2.509-7-.344.845-1.137.475-2.445-1.143-1.561-1.929-2.496-2.259-4.824-1.701-1.588.381-3.725.816-4.749.966-2.317.34-3.222 1.962-4.113 7.373-.825 5.002-1.501 5.595-4.907 4.3-1.552-.59-2.772-.607-3.12-.043-.315.509-1.356.154-2.314-.788-1.224-1.204-1.436-2.061-.714-2.88.627-.711 1.401-.808 1.979-.25 1.358 1.309 2.802 1.134 1.955-.239-.443-.715-.275-.883.44-.44.685.422 1.155.078 1.155-.846 0-.857-.675-1.559-1.5-1.559s-1.5-.45-1.5-1-.9-1-2-1-2-.48-2-1.067c0-.634.864-.793 2.125-.393 1.272.404 1.886.286 1.528-.292-.759-1.228 1.516-6.225 2.847-6.256.55-.012.325-.5-.5-1.083-1.129-.799-1.191-1.187-.25-1.568.688-.279 1.25-.975 1.25-1.547 0-.645-.547-.585-1.444.159-1.183.982-1.415.824-1.287-.877.1-1.327.892-2.118 2.194-2.192 1.686-.096 1.736-.195.287-.573-2.346-.613-2.217-1.956.25-2.601 2.029-.53 2.834-2.71 1-2.71-.55 0-1 .45-1 1s-.675 1-1.5 1-1.5.436-1.5.969c0 .532-.672.71-1.494.395-.822-.316-1.203-1.046-.846-1.623.364-.589.173-.756-.436-.379-.597.369-1.368.213-1.714-.346-.345-.559-.076-1.016.598-1.016.674 0 .916-.309.538-.687-.607-.608-1.884-.907-6.353-1.489-.664-.087-1.437-.757-1.719-1.491-.281-.733-1.002-1.333-1.602-1.333-.599 0-.812.45-.472 1 .34.55-.294 1-1.41 1-1.19 0-1.845.516-1.587 1.25.521 1.478-2.198 5.388-3.112 4.475-.619-.62-3.391 1.59-3.391 2.704 0 .314.787.578 1.75.586 1.496.013 1.532.157.25.985-1.178.761-1.206.973-.128.985 1.124.012 1.14.295.093 1.557-.97 1.169-.999 1.824-.123 2.7.637.637 1.158 1.936 1.158 2.887 0 .95.729 2.457 1.619 3.347.891.891 1.378 1.86 1.083 2.155-.294.295.38 1.451 1.499 2.57 1.649 1.649 2.2 1.775 2.902.667.685-1.081.87-1.094.882-.059.008.72.46 1.034 1.004.698.543-.336.757-.009.475.727-.321.835.219 1.337 1.438 1.337 1.073 0 1.733-.353 1.466-.785-.668-1.081.815-.96 2.632.214 1.09.704 1.142.974.191.985-.743.008-.997.521-.586 1.185.486.787.178.961-.941.531-.915-.351-1.664-.216-1.664.299s-.788.684-1.75.374c-1.494-.48-1.53-.396-.25.573 1.267.96 1.19 1.091-.5.845-1.179-.172-1.897.221-1.75.958.138.688-.2 1.25-.75 1.25s-1.014-1.012-1.03-2.25c-.029-2.132-.089-2.149-1.14-.339-.881 1.517-.759 2.167.59 3.154.963.704 1.277 1.504.725 1.845-.536.331-1.229.037-1.54-.654-.311-.691-.386.529-.166 2.711.22 2.181-.052 4.81-.604 5.842-.552 1.031-1.172 3.296-1.378 5.033-.344 2.907-.262 3.009 1.034 1.286 1.299-1.727 1.534-1.746 3.03-.25 1.496 1.496 1.495 1.622-.009 1.622-.99 0-1.346.459-.907 1.17.483.782.182.962-.909.544-.898-.345-1.898-.196-2.223.33-.325.526-.059.956.59.956.898 0 .904.335.023 1.397-1.782 2.146-4.836.848-4.836-2.056 0-3.24-1.628-4.819-3.933-3.815-.999.435-2.127.729-2.506.653-.379-.076-.972.752-1.317 1.841-.346 1.089-1.034 1.98-1.53 1.98s-.614-.788-.263-1.75c.571-1.567.41-1.55-1.54.162-2.087 1.833-2.104 1.994-.419 3.883 1.696 1.901 1.682 1.947-.409 1.297-1.861-.579-2.086-.363-1.593 1.523.36 1.377.189 1.959-.457 1.56-.975-.602-1.433 1.584-1.328 6.325.092 4.119.498 6 1.294 6 .452 0 .379.827-.162 1.838-1.164 2.174-.338 6.155 1.28 6.177.722.01.665.312-.156.833-.961.61-1.031 1.496-.275 3.485.668 1.756.681 3.544.038 5.235-.891 2.345-.79 2.508 1.176 1.884 1.712-.543 2.026-.352 1.533.933-.404 1.052-.088 1.615.907 1.615.841 0 1.262.43.937.956-.325.526-1.33.673-2.233.327-1.256-.482-1.483-.218-.968 1.125.371.966.674 1.944.674 2.174 0 .23.675.418 1.5.418s1.5.477 1.5 1.059-.399.813-.886.511c-.488-.301-1.121.347-1.407 1.441-.286 1.094-.042 1.989.542 1.989.583 0 .246.9-.749 2-1.75 1.933-1.747 2.003.095 2.079 1.056.044 1.348.304.655.583-.687.278-1.25.944-1.25 1.48 0 .537.45.698 1 .358.55-.34 1-.179 1 .358 0 .536-.562 1.202-1.25 1.48-.961.388-.948.522.059.583.72.043 1.031.529.691 1.079-.34.55.084 1 .941 1s1.559.498 1.559 1.107-.675.848-1.5.531c-.825-.316-1.5-.139-1.5.393 0 .533.45.969 1 .969 1.411 0 1.248 6.352-.2 7.8-.933.933-.822 1.2.5 1.2 2.231 0 2.194 1.724-.05 2.311-1.667.435-1.667.463 0 .573 1.813.12 2.52 2.116.75 2.116-.55 0-1 .702-1 1.559s-.338 1.355-.75 1.105-1.377.224-2.143 1.052c-1.226 1.325-1.015 1.423 1.75.815 3.627-.796 4.211.121.893 1.403-2.191.847-2.197.893-.25 1.718 1.1.466 2.045 1.411 2.1 2.098.055.688.167 2.205.25 3.372.125 1.769.4 1.915 1.65.878 1.229-1.02 1.5-.951 1.5.378 0 .892.675 1.622 1.5 1.622 1.827 0 1.925 1.149.25 2.925-1 1.06-1 1.417 0 1.783.688.252 1.25.862 1.25 1.354 0 .492-1.125.383-2.5-.244-1.375-.626-2.5-1.832-2.5-2.679 0-1.24-.242-1.293-1.25-.272-1.002 1.016-.865 1.552.691 2.7 1.69 1.247 1.722 1.433.25 1.433-1.854 0-2.275 1.521-.691 2.5.55.34 1 1.293 1 2.118 0 .879-.478 1.205-1.155.787-.763-.473-.88-.271-.345.595.57.922.421 1.069-.503.498-.977-.604-1.168-.261-.748 1.346.485 1.854.144 2.156-2.438 2.156-4.438 0-8.514 2.81-9.298 6.411-.975 4.474-1.253 10.589-.481 10.589.629 0 1.138 3.817 1.167 8.75.007 1.238.415 2.25.907 2.25.492 0 .894.9.894 2s.45 2 1 2 1 .638 1 1.417.476 1.575 1.057 1.769c.587.195.747 1.161.361 2.167-.487 1.27-.917 1.457-1.432.624-1.773-2.868-1.724 1.041.054 4.359 2.081 3.883 2.634 6.175.884 3.664-.782-1.122-.889-.704-.426 1.655.383 1.951.174 3.429-.546 3.875-.859.53-.808.946.191 1.58.809.512.899.866.225.875-.824.011-.795.998.107 3.619.681 1.982 1.089 4.888.906 6.459-.218 1.875.088 2.754.893 2.56.674-.162.888-.106.476.124-1.405.786-.756 3.253.857 3.253 1.018 0 1.396.55 1.031 1.5-.316.825-.187 1.5.286 1.5 2.191 0 2.08-5.581-.14-7.083-.474-.321-.407-1.779.149-3.241.556-1.462.75-3.338.432-4.167-.33-.861-.029-1.509.702-1.509.757 0 .321-1.023-1.067-2.5-1.292-1.375-1.816-2.5-1.166-2.5.905 0 .902-.451-.015-1.919-.944-1.511-.92-2.255.114-3.5.945-1.139.982-1.581.133-1.581-.793 0-.669-.729.377-2.223 1.799-2.567 2.029-4.777.498-4.777-.582 0-.8.419-.484.931.317.512.118 1.213-.441 1.559-.559.346-1.016-.275-1.016-1.381 0-1.105.787-2.468 1.75-3.029.963-.561 1.3-1.064.75-1.12-.55-.055-.1-.487 1-.96 1.889-.812 1.872-.863-.309-.93-1.272-.038-2.031-.519-1.691-1.07.34-.55.115-1-.5-1s-.852-.43-.527-.956c.325-.526 1.325-.675 2.223-.33 1.131.434 1.398.247.868-.611-.454-.734-.013-1.805 1.086-2.638 1.017-.771 1.34-1.416.717-1.433-2.172-.061-2.4-4.211-.262-4.77 1.766-.462 1.817-.69.486-2.162-.939-1.037-1.173-2.158-.633-3.032.471-.763.611-2.028.31-2.811-.419-1.093-.724-1.137-1.311-.188-.457.74-.703.166-.611-1.426.101-1.752.604-2.491 1.469-2.159.959.367 1.127-.105.618-1.74-.383-1.234-1.084-2.393-1.556-2.574-.473-.182-.167-1.023.68-1.869.846-.847 1.813-1.264 2.149-.929.335.336 1.214.109 1.952-.503.819-.68 1.342-.724 1.342-.114 0 .55-.675 1.56-1.5 2.245s-1.485 1.752-1.467 2.372c.019.621.821.186 1.784-.966 1.454-1.739 1.963-1.866 3.006-.75 1.188 1.271.76 1.779-1.196 1.422-.48-.088-.592.57-.25 1.463.343.892.623 2.036.623 2.541 0 .505.955.918 2.122.918 1.714 0 1.897.272.952 1.411-.801.965-.839 1.616-.123 2.059.577.356 1.056.284 1.064-.161.009-.445.402-.198.875.548.6.946 1.067 1.021 1.544.25.376-.609.247-1.107-.288-1.107-.593 0-.527-1.18.168-3.021.872-2.311.852-3.484-.087-4.987-.675-1.081-1.22-2.533-1.212-3.228.011-.861.325-.785.985.236.807 1.249.986 1.165 1.068-.5.054-1.1.211-3.012.348-4.25.178-1.606-.275-2.25-1.583-2.25-1.024 0-1.833-.716-1.833-1.622 0-1.329.271-1.398 1.5-.378 2.009 1.667 1.889.754-.446-3.404-1.398-2.488-1.609-3.603-.75-3.954.881-.361.833-.744-.182-1.454-.758-.53-1.093-1.426-.744-1.991.349-.564.069-1.254-.622-1.533-.998-.402-.999-.522-.006-.585 1.517-.096 1.694-3.079.183-3.079-.613 0-.797-.853-.433-2 .45-1.419.18-2-.933-2-1.964 0-1.983-.727-.067-2.643 1.917-1.917 1.917-3.357 0-3.357-2.037 0-1.894-1.668.25-2.932 1.527-.9 1.559-1.161.25-2.05-.942-.639-1.128-1.297-.5-1.768 1.202-.901 1.321-5.255.191-7-.534-.825-.238-1.25.872-1.25 1.242 0 1.407-.331.633-1.263-.639-.771-.826-3.99-.479-8.25.312-3.843.617-8.674.676-10.737.074-2.611.562-3.755 1.607-3.765 1.011-.011 1.128-.255.357-.75-.629-.404-1.006-1.973-.838-3.485.168-1.512-.105-2.75-.607-2.75-1.458 0-1.054-2.715.659-4.429 1.433-1.432 1.157-2.002-.821-1.689-.78.123-1.116-2.078-.792-5.192.103-.995-.362-2.471-1.033-3.281-.983-1.184-.882-1.72.517-2.743 1.595-1.166 1.605-1.382.123-2.612-1.485-1.233-1.48-1.491.065-3.197 1.258-1.391 1.342-1.857.334-1.857-.862 0-.663-.5.555-1.39 2.658-1.943 6.081-.537 5.658 2.324-.207 1.401.152 2.09 1 1.917.728-.149 2.273.256 3.435.9 2.612 1.449 9.388 2.273 9.388 1.143 0-.457.619-.594 1.375-.304.756.291 1.375 1.635 1.375 2.988 0 1.973-.272 2.234-1.375 1.318-.923-.765-1.375-.791-1.375-.077 0 .584.457 1.346 1.016 1.691.559.346.758 1.047.441 1.559-.316.512-.098.931.484.931s1.059-.675 1.059-1.5c0-1.244.319-1.201 1.867.25 1.65 1.546 1.706 2.012.477 4-.88 1.424-.993 2.25-.308 2.25.595 0 .799.457.454 1.016-.346.559-1.047.758-1.559.441-.512-.316-.931-.098-.931.484s.398 1.059.883 1.059c1.015 0 2.298 4.153 1.523 4.927-.283.283-.933-.147-1.445-.956-.787-1.245-.933-1.211-.946.22-.008.93.462 1.986 1.044 2.346.644.397.875 2.972.588 6.559-.401 5.022-.223 5.906 1.191 5.919 1.033.01 1.249.294.571.75-.6.404-1.048 3.137-.995 6.073.052 2.936-.196 5.809-.551 6.384-.356.575-.286 2.302.154 3.837.44 1.535.532 3.058.205 3.386-.328.328-.662 1.374-.742 2.325-.08.952-.476 2.742-.88 3.98-.469 1.436-.327 2.25.392 2.25.619 0 .805.52.413 1.155-.443.715-.275.883.44.44 1.721-1.063 1.395.482-.555 2.637-1.476 1.631-1.51 2.017-.25 2.814 1.228.777 1.235.926.043.939-.779.008-1.132.299-.785.646.347.348.196 1.445-.336 2.44-.532.994-.614 2.026-.181 2.294 1.297.801.11 8.74-1.393 9.316-.763.293-1.388 1.583-1.388 2.867s-.527 2.66-1.171 3.058c-.767.474-.372 1.019 1.145 1.58 4.419 1.635 1.11 2.031-3.589.429-5.584-1.902-6.06-1.717-3.274 1.274 1.15 1.234 1.828 2.505 1.508 2.826-.321.32.386 1.422 1.57 2.449 2.113 1.833 2.118 1.894.231 3.433-1.504 1.227-1.562 1.455-.268 1.054 1.283-.399 1.748.307 2.088 3.168.24 2.025.777 4.581 1.192 5.681.604 1.595.538 1.696-.322.5-.933-1.297-1.081-1.263-1.095.25-.008.962.49 1.75 1.107 1.75.825 0 .821.363-.011 1.367-1.303 1.569-1.078 5.798.363 6.83.535.384 1.341.159 1.791-.5.578-.846.742-.757.557.303-.398 2.291 3.109 6.964 4.753 6.333.784-.301 1.425-.035 1.425.591 0 .627-.675 1.398-1.5 1.714-2.17.833-1.842 2.035.75 2.745 1.876.514 2.001.78.75 1.598-1.067.698-1.833.537-2.654-.559-.635-.848-1.41-1.128-1.723-.621-.313.506-.304 1.185.02 1.509.324.323.764 4.289.98 8.813.405 8.52.906 10.257 2.306 7.991.634-1.025.992-1.05 1.574-.109.414.67.198 1.562-.482 1.982-.968.598-.971.926-.016 1.516 1.393.861 3.195-1.4 2.541-3.188-.239-.652.027-1.339.59-1.527.667-.222.587-1.301-.229-3.092-.978-2.146-.988-3.015-.047-3.956.941-.941 1.334-.715 1.789 1.027.575 2.199 4.351 3.269 4.351 1.233 0-.55-.661-1-1.469-1-.912 0-1.244-.584-.876-1.543.524-1.366.808-1.348 2.469.155 1.205 1.091 1.876 1.264 1.876.484 0-.668.457-.931 1.016-.586.559.346.789.997.511 1.447-.279.45.839 1.016 2.483 1.258 2.295.337 2.99.053 2.99-1.221 0-1.649 3.208-2.119 4.646-.681 1.266 1.266 5.41.704 5.992-.813.317-.825 1.18-1.5 1.919-1.5.739 0 1.802-.788 2.363-1.75.566-.971 1.033-1.194 1.05-.5.016.688.51 1.25 1.097 1.25s.802-.836.478-1.859c-.342-1.076.056-2.395.945-3.132 1.182-.982 1.27-1.594.38-2.666-1.57-1.891-.458-2.788 1.289-1.041 1.197 1.197 1.588 1.194 2.722-.02.728-.779 1.953-1.176 2.722-.881.805.309 1.397-.086 1.397-.932 0-.891.961-1.469 2.441-1.469 2.476 0 4.002-1.223 2.9-2.325-.332-.333-1.445-.155-2.472.395-1.266.678-1.869.666-1.869-.035 0-.569-.788-1.028-1.75-1.02-1.302.012-1.418.226-.453.839 2.186 1.386-1.215 3.581-3.495 2.255-1.648-.959-1.613-1.051.417-1.079 1.555-.021 2.046-.479 1.643-1.53-.461-1.2.347-1.5 4.031-1.5 3.475 0 4.607-.377 4.607-1.535 0-1.208-.412-1.315-1.934-.5-2.856 1.528-4.967 1.276-2.84-.339 1.466-1.114 1.526-1.582.401-3.121-1.278-1.748-4.22-1.274-3.122.504.296.478-.371.801-1.483.718-2.377-.179-2.58-1.312-.593-3.298 1.762-1.763 4.233-1.852 4.909-.179.388.961.522.948.583-.059.043-.72.509-1.043 1.035-.718.526.325.709 1.364.406 2.309-.392 1.224-.288 1.353.364.449.687-.952 1.252-.64 2.264 1.25.741 1.385 1.748 2.519 2.238 2.519s.615-.445.279-.989c-.367-.593.109-.718 1.191-.312 1.516.568 1.605.433.561-.854-1.5-1.847-.493-3.251 1.11-1.547 1.402 1.49 1.509 10.901.136 12.028-.654.538-.567 1.004.251 1.336.691.28 1.002.92.691 1.423-.311.503.249.922 1.244.93.995.009 2.484.495 3.309 1.081 1.16.824.891.933-1.189.481-1.48-.322-2.986-.103-3.351.488-.364.589-1.292.83-2.061.535-.77-.296-1.399-.045-1.399.556 0 .682 1.13.868 3 .494 1.786-.357 3-.182 3 .434 0 .569-.445.759-.989.423-.566-.35-.734.051-.393.941.328.854.098 1.552-.511 1.552-1.709 0-1.308 3.709.475 4.393 2.446.939 2.769.735 1.418-.893-1.02-1.229-.951-1.5.378-1.5.892 0 1.622.45 1.622 1s.675 1 1.5 1 1.5-.675 1.5-1.5-.402-1.5-.893-1.5-1.152-.675-1.469-1.5c-.356-.93.005-1.5.952-1.5.841 0 1.292.382 1.003.849-.289.467.579 1.44 1.929 2.163 1.916 1.025 2.206 1.611 1.323 2.675-.621.749-.913 1.578-.648 1.843.631.631 3.876-2.97 4.228-4.692.15-.736.642-2.198 1.093-3.248.774-1.805.866-1.785 1.661.364.707 1.912 1.086 2.071 2.378.998.846-.701 1.173-1.54.728-1.864-.445-.323-.87-1.842-.944-3.375-.117-2.425.072-2.619 1.454-1.5 1.21.98 1.41.989.838.037-.441-.734-.235-1.25.499-1.25.688 0 .377-.661-.691-1.468-1.685-1.275-1.72-1.473-.262-1.5.923-.018 2.467.756 3.43 1.718 1.669 1.667 1.725 1.643 1.165-.5-.323-1.238-.179-2.25.32-2.25.498 0 .906.9.906 2s.45 2 1 2 1-.45 1-1 .648-1 1.441-1 1.766-.526 2.164-1.17c.49-.792.173-.959-.98-.516-1.706.654-5.625-1.125-5.625-2.555 0-.417.688-.759 1.53-.759 2.43 0-3.44-7.941-5.902-7.985-.48-.008-.329.64.336 1.441 1.231 1.484.655 3.544-.992 3.544-.5 0-.648-.68-.329-1.511.415-1.082.121-1.336-1.032-.893-1.069.41-1.611.078-1.611-.989 0-.884.788-1.643 1.75-1.686 1.056-.048 1.252-.28.494-.585-2.274-.917-.394-2.012 2.679-1.561 1.817.267 3.249 1.192 3.611 2.334.331 1.04 1.047 1.891 1.592 1.891.546 0 .714-.45.374-1-1.343-2.173 4.106.429 6.077 2.901.76.953 1.332 1.055 1.787.32.368-.596.211-1.365-.348-1.711-.559-.345-1.001-1.164-.983-1.819.019-.655.878-.179 1.911 1.059 1.032 1.237 2.523 2.25 3.313 2.25.791 0 1.926 1.012 2.523 2.25.863 1.791 1.098 1.893 1.152.5.07-1.804 3.068-2.537 3.068-.75 0 .55-.446 1-.99 1-1.928 0 2.466 4.001 4.462 4.063 1.808.057 1.768.168-.367 1.022-3.579 1.432-2.034 2.01 2.227.834 2.045-.565 3.456-1.453 3.135-1.973-.322-.52-.108-.946.474-.946s1.059.675 1.059 1.5-.45 1.5-1 1.5c-1.655 0-1.131 1.908 1.032 3.76 1.118.957 2.131 1.551 2.25 1.321.12-.23 1.23.123 2.468.785 2.497 1.336 2.749.935 1.215-1.932-.747-1.394-.712-1.934.122-1.934.838 0 .814-.414-.087-1.5-.797-.961-.859-1.5-.172-1.5.59 0 1.432.612 1.872 1.359.641 1.089 1.197.96 2.8-.653 1.706-1.717 1.743-1.921.25-1.391-2.079.739-4.75-.121-4.75-1.529 0-.55.681-.739 1.512-.42 1.186.455 1.379.047.892-1.893-.381-1.517-.192-2.473.488-2.473.609 0 1.108-.45 1.108-1s-.723-1-1.607-1c-1.018 0-1.396-.55-1.031-1.5.316-.825.139-1.5-.393-1.5-1.425 0-1.182 3.748.281 4.338 1 .403 1 .52 0 .583-.687.043-1.25.754-1.25 1.579 0 2.62-1.493 1.612-1.651-1.114-.087-1.497-1.45-3.799-3.193-5.39-1.672-1.528-2.729-3.124-2.348-3.547.38-.423.13-.446-.558-.05-.687.395-1.25.242-1.25-.34 0-.582.45-1.059 1-1.059s1-.675 1-1.5-.436-1.5-.969-1.5c-.532 0-.671-.774-.308-1.719.515-1.344 1.042-.852 2.413 2.25 1.435 3.249 2.193 3.914 4.178 3.665 1.752-.22 2.573.265 2.962 1.75.295 1.13 1.077 2.054 1.737 2.054.661 0 .978-.581.705-1.292-.953-2.485 2.09-5.309 4.26-3.954 1.217.76 2.153.843 2.535.226.833-1.349 5.487-1.24 5.487.127 0 .609-.675.848-1.5.531-.825-.316-1.5-.171-1.5.322s-.707 1.604-1.571 2.469C404 413.857 404 414 405.429 414c.864 0 1.571-.468 1.571-1.039 0-.6.588-.494 1.389.25.974.903 1.059 1.496.284 1.982-.656.411.048 1.131 1.733 1.771 1.921.731 3.231.752 4.058.066.671-.557 1.583-.679 2.026-.271.443.407.556-.271.251-1.509-.304-1.238-.104-2.25.446-2.25s1.236.9 1.523 2c.594 2.272 2.29 2.721 2.29.606 0-.859.96-1.339 2.499-1.25 2.672.154 3.302 1.153 1.251 1.985-2.48 1.006 1.412 2.548 3.974 1.574 1.733-.659 2.195-.592 1.679.243-.441.712-.272.879.442.437.726-.448 1.155.029 1.155 1.284 0 1.262.644 1.97 1.75 1.925.962-.039 2.65.256 3.75.656 1.607.583 1.512.328-.485-1.299-1.367-1.113-2.118-2.392-1.668-2.841.449-.449 1.392-.03 2.095.932.703.961 1.818 1.748 2.477 1.748.66 0 .921.45.581 1-.34.55-.029 1.007.691 1.015 1.06.013 1.055.177-.025.861-1.082.686-1.047.956.188 1.43 2.089.801 2.638-3.421.654-5.024-1.329-1.074-1.31-1.222.159-1.25.916-.018 1.893.531 2.171 1.218.301.747.536.545.583-.5.085-1.876 1.587-2.355 2.542-.81.32.518-.413 1.868-1.629 3-1.216 1.133-1.69 2.06-1.054 2.06.637 0 .898.675.582 1.5-.588 1.531 1.668 2.136 3 .804 1.947-1.947 3.762-1.052 3.472 1.712-.19 1.819.459 3.701 1.784 5.172 1.146 1.271 2.373 3.128 2.726 4.125.353.998 1.04 1.568 1.527 1.267.487-.301 1.165.851 1.507 2.561.855 4.272.785 5.078-.378 4.359-.55-.34-1-.168-1 .382s.45 1.278 1 1.618c.55.34 1.029 1.829 1.063 3.309.062 2.607.092 2.621.968.441.498-1.237 1.369-2.25 1.937-2.25.654 0 1.032-4.573 1.032-12.5 0-7.667-.387-12.5-1-12.5-.55 0-1-.477-1-1.059s.464-.772 1.032-.422c1.764 1.091.772-202.349-1.027-210.519-.911-4.136-1.565-5.654-1.798-4.174-.235 1.496-.862 2.137-1.755 1.794-.763-.293-1.654-.102-1.979.424-.325.526-1.127.941-1.782.923-.655-.019-.179-.878 1.059-1.911 1.238-1.032 2.243-2.479 2.235-3.216-.011-.904-.255-.982-.75-.24-1.256 1.88-5.057 3.498-5.715 2.432-.331-.535.561-1.265 1.983-1.622 1.421-.357 2.417-1.157 2.212-1.779-.541-1.647-4.71-2.043-4.738-.451-.012.726-.754-.165-1.649-1.98-.99-2.01-2.154-3.097-2.977-2.781-.88.338-1.362-.255-1.381-1.7-.026-1.899-.169-1.982-.992-.572-.649 1.111-.519 2.737.4 5 .749 1.844 1.137 3.978.862 4.742-.307.855-.062 1.119.639.686 1.538-.951 5.303.322 4.551 1.538-.329.532-1.408.711-2.398.397-1.298-.412-1.961.071-2.377 1.729-.667 2.658 1.62 10.153 2.753 9.02.417-.417.609-.241.425.391-.183.633.021 1.179.453 1.214 2.098.172 4.048 3.311 2.626 4.227-1.036.667-1.102 1.11-.247 1.665.863.561.788 1.271-.29 2.745-1.141 1.561-1.631 1.703-2.275.66-.658-1.064-.943-1.013-1.429.255-.349.909-.089 1.591.61 1.599.85.011.887.238.121.75-.605.404-1.016 1.767-.914 3.027.101 1.261-.214 2.539-.701 2.839-.486.301-.357 1.182.287 1.958 2.437 2.936-1.03 1.35-4.019-1.839-1.675-1.787-3.048-2.714-3.05-2.059-.003.655.452 1.474 1.011 1.819.559.346.758 1.047.441 1.559-.316.512.127.931.984.931s1.559.391 1.559.869-1.35.711-3 .519c-3.285-.382-4.092 1.461-1.559 3.563.792.657 1.194 1.837.893 2.622-.77 2.005-2.14 1.78-1.973-.323.089-1.114-.465-1.651-1.524-1.476-1.224.201-1.523-.26-1.133-1.75.343-1.31.047-2.013-.837-1.992-2.225.052-5.13 2.734-4.342 4.008.54.874.935.835 1.546-.154 1.067-1.727 2.014-.717 2.37 2.526.191 1.739-.198 2.588-1.186 2.588-.895 0-1.244-.586-.893-1.5.515-1.342-.476-1.956-2.612-1.618-.413.065-.75-.318-.75-.851 0-.532-.675-.709-1.5-.393-2.126.816-1.859-.519.495-2.478 2.096-1.744 1.886-5.651-.348-6.477-.631-.234.091-.269 1.603-.079s2.75-.093 2.75-.629.702-.975 1.559-.975 1.28-.451.939-1.003c-.378-.611-1.278-.659-2.309-.121-2.28 1.19-9.516.642-9.982-.755-.212-.635.746-1.121 2.21-1.121 1.629 0 2.583-.554 2.583-1.5 0-1.756 1.659-2.023 2.214-.357.284.85.952.839 2.604-.046 1.223-.654 2.617-.946 3.098-.649.481.297 1.162-.208 1.513-1.124.351-.915.101-1.997-.557-2.403-.906-.56-.853-1.118.216-2.296 2.868-3.16 3.415-4.18 3.551-6.625.182-3.274 1.348-9.32 1.905-9.878.241-.241-.058-1.036-.665-1.767-.606-.731-.856-1.973-.554-2.76.302-.786-.135-1.692-.97-2.012-2.174-.835-2.223-.793-1.645 1.417.386 1.475.034 1.996-1.343 1.985-1.572-.013-1.63-.169-.367-.985 1.235-.798 1.25-.972.083-.985-.779-.008-1.12-.311-.758-.673 1.835-1.835-1.487-3.108-4.365-1.672-2.635 1.314-3.129 1.304-4.53-.097-.865-.865-1.091-1.573-.501-1.573 1.935 0 1.122-3.753-.929-4.29-1.1-.287-2-.152-2 .3m-119.339 62.431c-.884 2.303-.843 2.559.41 2.559.59 0 1.762.691 2.606 1.535 1.128 1.127 1.881 1.247 2.84.451.905-.751 1.504-.762 1.953-.035.356.577-.102 1.049-1.018 1.049-1.054 0-1.459.539-1.103 1.468.31.807.133 1.734-.393 2.059-.526.325-.956 1.07-.956 1.654 0 .704.475.67 1.403-.1 1.073-.891 1.499-.874 1.816.075.433 1.3 6.781-.626 6.781-2.058 0-.363 1.35-1.169 3-1.792s3-1.614 3-2.202c0-.589-1.573-.186-3.5.896-2.915 1.637-5.337 1.254-2.634-.417.476-.294.668-1.571.426-2.836-.388-2.031-.989-2.289-5.116-2.192-2.572.06-5.007-.377-5.411-.973-.433-.638-.741-.286-.75.859-.014 1.867-.066 1.871-1.354.11-1.25-1.71-1.383-1.717-2-.11m126.158 7.067c-.375.378-.411 1.392-.08 2.254.366.955.189 1.312-.454.914-1.782-1.101-7.232 1.299-6.613 2.912.386 1.005.065 1.248-1.072.812-1.164-.447-1.459-.196-1.043.888.319.83.099 1.807-.489 2.17-.587.363-1.066 1.196-1.063 1.851.002.655 1.352-.247 3-2.005 1.647-1.757 2.995-3.595 2.995-4.083 0-1.443 2.866-1.012 3.454.52.297.774-.133 2.081-.957 2.905-.897.897-1.497 1.044-1.497.366 0-.621-.45-.852-1-.512-1.842 1.139-1.025 2.5 1.5 2.5 1.708 0 2.505-.554 2.515-1.75.013-1.437.178-1.493.924-.314.753 1.19 1.178 1.211 2.485.127 1.055-.875 1.576-.937 1.576-.185 0 .617.927 1.122 2.059 1.122 1.132 0 1.781-.45 1.441-1-.34-.55-.055-1 .632-1 .688 0 .377-.661-.691-1.468-1.811-1.37-1.82-1.471-.132-1.5.995-.018 1.531-.482 1.191-1.032-.34-.55-.141-1 .441-1s1.059-.45 1.059-1-.702-1-1.559-1-1.281.45-.941 1c.34.55-.031 1-.824 1-.794 0-1.72 1.012-2.059 2.25-.498 1.817-.796 1.972-1.546.806-.672-1.044-.198-2.073 1.707-3.71 1.45-1.246 2.293-2.608 1.875-3.027-.419-.418-1.18-.099-1.692.71-.512.809-.937 1.078-.946.599-.008-.48-.652-.344-1.431.303-1.119.928-1.487.83-1.75-.468-.184-.903-.64-1.333-1.015-.955" fill="#d3d3d3" fill-rule="evenodd"/></svg>