<svg xmlns="http://www.w3.org/2000/svg" width="500" height="750"><path d="M30.248 336.118L30.5 611.5h439v-550l-51-.021c-49.669-.021-104.518.748-101.5 1.423.825.184 2.063.262 2.75.173.688-.09 1.25.334 1.25.94 0 .607.434.835.964.508.529-.328 1.933.374 3.118 1.559 1.649 1.649 2.34 1.853 2.949.868.715-1.158 4.953 4.122 4.965 6.187.009 1.551 6.005 1.492 6.067-.06.037-.919.499-.533 1.105.923.993 2.382 1.081 2.405 1.867.5.453-1.1.856-1.382.895-.628.056 1.107.361 1.131 1.57.128 1.229-1.02 1.5-.951 1.5.378 0 .892-.477 1.622-1.059 1.622-2.161 0 .122 1.763 3.038 2.346 1.836.367 3.021 1.226 3.021 2.188 0 .943.467 1.295 1.155.871.748-.463.881-.272.379.54-.604.977-.321 1.012 1.278.156 1.698-.909 2.157-.774 2.651.781.602 1.898 5.504 2.484 7.135.854 1.208-1.208 2.377-.834 1.832.586-.29.754.583 1.818 2.031 2.478 1.397.637 2.539 1.672 2.539 2.301 0 .846.368.839 1.411-.027 1.682-1.396 2.878.01 1.985 2.336-.461 1.203.025 1.59 1.997 1.59 1.434 0 2.607.45 2.607 1s-.482 1-1.071 1c-.59 0-.315.757.61 1.682 1.577 1.577 1.57 1.765-.105 2.99-.983.719-1.537 1.558-1.23 1.865.307.307 1.362-.246 2.346-1.229 1.717-1.717 1.76-1.68 1.1.952-.532 2.12-.331 2.74.89 2.74.868 0 1.295.457.95 1.016-.346.559-1.047.758-1.559.441-.512-.316-.931-.147-.931.377s.675 1.211 1.5 1.528c.825.316 1.5 1.066 1.5 1.666 0 .599-.4.843-.888.541-.488-.302-1.085.797-1.327 2.441-.241 1.645-.067 2.99.388 2.99s.827-.477.827-1.059.399-.813.886-.511c.488.301 1.226-.46 1.641-1.691.726-2.152.772-2.132 1.181.511.233 1.513.831 2.75 1.327 2.75s.666-.616.377-1.369c-.308-.804.297-1.583 1.467-1.889 2.86-.748 3.672 2.184 1.103 3.983-1.379.966-1.861 2.08-1.455 3.36.334 1.053.18 1.915-.343 1.915s-1.235.787-1.583 1.75c-1.677 4.637-7.384 12.25-9.183 12.25-.706 0-1.569-.9-1.918-2-.783-2.467-2.346-2.589-3.208-.25-.356.963-1.125 2.069-1.71 2.458-1.301.865-1.428 3.849-.236 5.529 1.355 1.91-.03 4.254-2.565 4.342-1.254.043-1.716.307-1.025.585.691.279 1 .922.686 1.429-.643 1.041-3.442-1.39-3.442-2.99 0-.572-.749-.753-1.664-.402-1.053.404-1.42.243-.999-.438.434-.702-.117-.875-1.586-.496-1.858.479-2.047.331-1.083-.847 1.274-1.557-.273-10.92-1.805-10.92-.44 0-.541.675-.225 1.5.352.916.001 1.5-.9 1.5-1.547 0-2.688 4.567-2.749 11-.018 1.925-.899 5.408-1.958 7.741-1.91 4.207-3.207 5.121-11.781 8.297-1.787.663-3.25 1.825-3.25 2.583 0 .759-.705 1.379-1.567 1.379-1.111 0-1.383.581-.935 1.994.486 1.53.269 1.854-.933 1.393-.861-.331-1.565-.103-1.565.506s.45 1.107 1 1.107 1 .45 1 1-.623 1-1.383 1c-1.939 0-2.826-3.983-1.039-4.668 2.182-.838 1.688-2.339-.682-2.07-1.157.131-3.587 1.7-5.4 3.488-3.178 3.134-5.496 4.153-5.496 2.417 0-.459-.675-.834-1.5-.834s-1.5.435-1.5.967c0 1.378-5.217 5.684-6.171 5.094-.437-.27-.742 1.855-.678 4.723.091 4.042-.306 5.523-1.767 6.591-1.036.758-1.904 2.44-1.929 3.739-.048 2.501.179 2.524 9.845 1.019 1.681-.262 2.556-.042 2.191.549-.335.542-1.284.985-2.109.985s-1.241.419-.925.931c.317.512.111 1.218-.457 1.569-2.234 1.381.283 2.338 5.097 1.938 5.97-.496 7.011-.993 6.248-2.981-.407-1.062.02-1.389 1.518-1.16 2.825.431 3.51 1.287 2.707 3.382-.53 1.38-.856 1.476-1.496.441-.641-1.037-1.116-.903-2.196.62-.758 1.069-2.031 2.158-2.829 2.419-1.013.332-1.107.687-.309 1.18.627.388 1.959-.173 2.96-1.247 1.797-1.929 1.832-1.923 2.986.522 1.08 2.289 1.005 2.426-1.009 1.823-2.042-.611-2.074-.544-.513 1.084 1.408 1.468 2.165 1.56 4.933.595 2.546-.888 3.447-.861 4.071.122 1.328 2.092.976 2.572-2.418 3.298-1.787.382-3.765 1.109-4.395 1.615-.629.505-1.529.832-2 .725-.47-.106-1.53.051-2.355.351-4.197 1.523-16.583 4.407-22.5 5.239-3.527.496-6.5 1.96-6.5 3.201 0 .798.382 1.215.849.926.867-.535 3.83 4.089 3.069 4.789-.23.211-1.993.657-3.918.989-1.925.333-2.937.348-2.25.034.687-.314 1.25-1.011 1.25-1.547 0-.537-.412-.722-.915-.411-.503.311-1.101.004-1.33-.682-.313-.94-.785-.878-1.916.253-.825.825-1.314 2.058-1.086 2.741.228.683-.411 1.277-1.42 1.32-1.051.045-1.3.294-.583.583 1.982.8 1.45 2.624-.608 2.085-1.022-.267-2.58-.081-3.462.412-2.257 1.263-6.664-.052-6.762-2.017-.086-1.744-3.029 4.121-3.588 7.149-.181.986-1.343 3.911-2.58 6.5l-2.25 4.709-6 .119c-3.3.065-5.437-.085-4.75-.333 2.157-.781 1.362-3.22-1.263-3.879-3.33-.835-6.02 1.246-4.296 3.323 1.019 1.228.818 1.408-1.238 1.117-4.115-.582-5.163-3.494-2.291-6.366 1.405-1.405 1.444-1.801.25-2.556-3.62-2.292-9.478.483-7.092 3.359.685.824.729 1.807.123 2.75-.826 1.284-1.065 1.28-1.928-.034-.868-1.323-.986-1.317-1 .049-.011 1.145-1.055 1.536-4.012 1.5-2.503-.031-3.998-.516-4-1.299-.002-.687-.903-1.25-2.003-1.25s-2-.45-2-1-.675-1-1.5-1-1.5.45-1.5 1-.562.986-1.25.969c-1.667-.042-5.017-4.729-4.257-5.957.33-.534.082-1.937-.55-3.119-.901-1.683-.857-2.333.204-3.005 1.051-.666.963-.861-.397-.873-1.674-.014-2.178 1.016-1.825 3.735.09.688-.307 1.25-.881 1.25-.574 0-1.044-.707-1.044-1.571 0-1.369-.223-1.349-1.727.155-1.636 1.637-1.763 1.601-2.4-.678-.371-1.323-.718-1.817-.773-1.097-.055.72-.57 1.019-1.144.664-.574-.355-1.679-.118-2.456.527-.777.645-1.844.906-2.371.58-.527-.326-1.186-.027-1.465.664-.402.998-.522.999-.585.006-.111-1.751-2.079-1.571-2.079.19 0 .983-.872 1.337-2.75 1.114a181.396 181.396 0 0 0-4.059-.44c-.72-.063-.99-.63-.601-1.26.499-.806-.076-.949-1.941-.481-1.942.488-2.649.283-2.649-.767 0-1.171-.538-1.229-2.95-.319-2.651 1.001-3.207.836-5.5-1.638-1.402-1.514-2.55-3.42-2.55-4.236 0-1.196-.406-1.266-2.095-.362-1.739.93-2.34.773-3.528-.923-.821-1.172-2.065-1.801-2.917-1.474-.817.313-2.042.113-2.723-.446-.68-.559-2.351-1.172-3.712-1.362-1.361-.19-2.94-1.282-3.508-2.427-.568-1.144-1.603-1.965-2.3-1.825-.697.141-.806.027-.242-.252 2.06-1.022.947-2.342-1.975-2.342-2 0-3-.5-3-1.5 0-.825-.477-1.5-1.059-1.5s-.781.45-.441 1-.309 1-1.441 1c-1.164 0-2.059-.652-2.059-1.5 0-.825-.42-1.5-.933-1.5-.513 0-1.22-.907-1.572-2.015-.351-1.108-1.057-1.756-1.567-1.441-.51.316-.928-.165-.928-1.068 0-.904-.563-1.449-1.25-1.213-.771.265-1.668-1.141-2.341-3.667-.6-2.253-1.613-3.983-2.25-3.846-.638.138-1.159-.151-1.159-.642 0-.49-1.125-1.174-2.5-1.519-2.472-.62-3.532-2.589-1.393-2.589.609 0 .846-.679.528-1.509-.34-.885.237-2.018 1.393-2.741 1.085-.677 1.972-1.824 1.972-2.55 0-.725.481-1.021 1.068-.658.588.363.827 1.29.532 2.059-.296.77-.149 1.399.324 1.399 1.701 0 2.093-3.325.651-5.526-1.634-2.493-1.167-3.639 1.124-2.759.826.317 1.795.105 2.152-.471.614-.99 3.242-1.657 11.038-2.8 4.568-.67 5.286-1.249 4.161-3.351-.625-1.167-.595-2.148.084-2.827.72-.72.688-1.258-.107-1.749-.798-.493-.596-1.161.663-2.195 1.619-1.328 1.628-1.428.092-.947-.945.296-2.051-.001-2.457-.659-.483-.78-.98-.331-1.433 1.294-.666 2.395-.697 2.376-.808-.51-.08-2.086-.377-2.586-.974-1.643-.522.824-1.101.967-1.474.363-.338-.546-2.194-1.29-4.125-1.652-1.931-.362-3.511-1.088-3.511-1.613 0-.525-.338-.902-.75-.837-1.975.312-2.599-.246-1.25-1.118 1.222-.79 1.099-.972-.667-.985-1.191-.008-2.355.323-2.586.735-.23.412-.263.137-.072-.611.231-.903-.205-1.15-1.291-.733-.984.378-2.159-.076-2.944-1.139-1.008-1.365-1.579-1.497-2.508-.581-1.334 1.315-3.932-.494-3.932-2.737 0-.903-.366-.89-1.5.051-1.234 1.024-1.5.941-1.5-.471 0-.944-.9-1.952-2-2.239-2.298-.601-2.174-.252-2.399-6.79-.107-3.117-.599-4.916-1.307-4.776-.624.122-2.183-.882-3.465-2.233-1.281-1.351-2.891-2.464-3.579-2.474-.687-.009-1.287-.355-1.332-.767-.263-2.399-1.09-6.755-1.327-6.992-.599-.599-5.393 4.543-5.991 6.426-.348 1.098-1.751 2.594-3.117 3.325-1.365.731-2.483 1.983-2.483 2.782 0 1.236-.247 1.249-1.644.089-1.462-1.213-1.565-1.115-.933.878.397 1.25.291 2.242-.239 2.242-.523 0-1.228-1.012-1.567-2.25-.524-1.91-.782-2.023-1.711-.75-.909 1.245-.991 1.182-.485-.371.488-1.499.209-1.766-1.405-1.343-1.108.289-2.266.118-2.574-.38-.308-.498.029-.916.749-.928.72-.012.197-.877-1.163-1.922s-2.771-1.715-3.136-1.489c-1.407.87-1.66-3.785-.344-6.323 1.54-2.968-.05-5.195-1.99-2.788-2.203 2.732-6.268 2.403-9.749-.79-1.82-1.669-3.196-3.401-3.059-3.85.406-1.326-1.534-.93-2.127.434-.299.688-.449-.1-.333-1.75.115-1.65.797-3.619 1.515-4.376.718-.757 1.168-2.426 1-3.707-.188-1.438.461-2.891 1.693-3.792 1.1-.804 1.625-1.835 1.168-2.293-.457-.457-2.144.639-3.749 2.434-1.604 1.796-2.953 3.146-2.996 3-.044-.146-.263-2.612-.488-5.479-.224-2.867-.467-5.567-.539-6-.849-5.111.277-9.292 2.666-9.891 1.623-.408 2.366-1.146 2.031-2.019-.615-1.604.983-1.875 1.939-.329.356.576 1.395.957 2.309.846.913-.111 2.494.158 3.512.598 2.036.88 3.96-1.087 3.17-3.242-.425-1.16.178-1.374 4.639-1.648.912-.056 1.996-.436 2.408-.843.411-.408 1.314-.272 2.006.302.93.772 1.438.475 1.951-1.14.448-1.41.947-1.775 1.407-1.03.523.845 1.769.695 4.641-.559 2.16-.942 5.138-1.661 6.617-1.596 1.947.084 2.539-.278 2.143-1.31-.326-.85.068-1.426.977-1.426.838 0 1.708-.553 1.933-1.228.227-.682 2.378-1.314 4.833-1.42 2.433-.105 4.536-.284 4.674-.397.138-.113.7-.317 1.25-.455s1.112-.364 1.25-.504c.138-.14 1.375-.376 2.75-.525 1.375-.148 4.406-.48 6.736-.737 2.33-.256 4.898-1.015 5.706-1.686.809-.671 1.94-.93 2.514-.575.574.355 1.607.284 2.294-.157.688-.442 2.15-.836 3.25-.876 1.1-.041 3.599-.385 5.553-.765 2.807-.547 4.004-.27 5.708 1.317 2.516 2.344 4.052 2.693 2.239.508-1.65-1.988.37-1.988 2.357 0 2.115 2.115 4.726 1.952 4.017-.25-.45-1.399-.36-1.464.447-.327.824 1.159 1.67.744 4.577-2.25 3.298-3.397 3.399-3.672 1.334-3.658-1.227.008-32.045-.276-68.484-.632l-66.252-.648.252 275.383M236 265.469c0 .894-.586 1.243-1.5.893-.825-.317-1.5-.064-1.5.562 0 .627.671 1.396 1.49 1.711 1.738.667-1.987 6.21-4.24 6.31-.687.03-1.25.778-1.25 1.662 0 .884-.565 1.39-1.255 1.125-2.189-.84-3.347 1.588-3.705 7.768-.464 8.013-.328 12.218.547 16.918.633 3.4.51 3.833-.929 3.281-.912-.35-1.658-.248-1.658.225 0 .474.667 1.118 1.483 1.431 1.91.733.935 3.302-1.493 3.937-1.916.501-2.043 5.878-.302 12.708.351 1.375.545 3.063.431 3.75-.213 1.289-.095 1.347 3.543 1.737 1.189.127 2.877.506 3.75.841.915.351 1.588.093 1.588-.609.001-.799 2.139-1.311 6.202-1.486 3.41-.146 6.447-.648 6.749-1.115.496-.766 1.507-1.149 7.299-2.765 1.033-.288 1.75.056 1.75.839 0 1.523-3.698 4.113-4.853 3.399-.424-.263-2.024.344-3.554 1.348-3.19 2.092-2.086 3.417 2.111 2.535 2.738-.576 2.749-.56.536.759-1.767 1.054-1.996 1.611-1.05 2.557.947.947.877 1.21-.321 1.21-.842 0-2.133-1.125-2.869-2.5-.929-1.736-2.178-2.5-4.087-2.5-1.512 0-3.419-.257-4.236-.571-1.731-.664-3.335 4.703-2.032 6.797.436.701.675 2.194.529 3.319-.293 2.273 3.092 6.73 5.364 7.063 2.05.301 1.819-1.251-.538-3.608-2.466-2.466-2.569-3.363-.25-2.17 2.606 1.34 4.24.334 4.329-2.663l.079-2.667 1.055 3c2.336 6.64 5.012 7.421 4.161 1.214-.531-3.877-.386-4.285 1.519-4.285 2.521 0 2.64.461.517 2.013-1.454 1.063-1.454 1.277 0 2.483 1.058.879 1.59.945 1.59.197 0-.617.477-1.122 1.059-1.122s.81.403.506.895c-.305.493.147 1.164 1.004 1.493.857.329 1.278 1.051.935 1.605-.345.558.35 1.007 1.559 1.007 1.826 0 1.979-.245.937-1.5-1.031-1.242-.923-1.503.628-1.515 1.461-.012 1.568-.208.487-.893-.901-.57-1.164-1.761-.752-3.402.39-1.556.183-2.675-.542-2.916-.646-.216-.85-.919-.452-1.563.551-.89 1.185-.882 2.652.034 1.506.941 2.195.939 3.141-.007.949-.949.563-1.438-1.78-2.255-3.069-1.07-7.012-7.476-5.266-8.555 1.306-.807 1.073-4.829-.366-6.34-1.019-1.071-.841-1.189.967-.644 2.9.876 4.61-4.122 1.924-5.625-1.055-.59-1.646-2.24-1.656-4.619-.009-2.035-.433-4.36-.943-5.166-.552-.874-.563-1.906-.026-2.553.551-.664.357-2.136-.498-3.784-.77-1.483-1.089-2.697-.709-2.698.38 0 .76-1.194.845-2.653.115-1.986-.09-2.3-.816-1.249-.703 1.018-.797.791-.343-.827.345-1.226.119-3.026-.503-4-1.004-1.573-1.077-1.52-.654.48.261 1.238.067 2.25-.432 2.25-.498 0-.906.446-.906.991 0 .546-1.262 2.233-2.804 3.75-1.543 1.518-2.638 3.53-2.434 4.473.252 1.166-.455 1.922-2.209 2.362-2.966.745-5.764-1.072-5.357-3.479.148-.878-.51-2.71-1.463-4.07-4.515-6.442.463-16.027 8.324-16.027 2.72 0 3.005-.22 1.943-1.5-.715-.861-2.896-1.5-5.122-1.5-2.133 0-3.878-.45-3.878-1s.47-1 1.044-1c.574 0 .911-.788.75-1.75-.498-2.967-3.794-4.514-3.794-1.781" fill="#d3d3d3" fill-rule="evenodd"/></svg>