<svg xmlns="http://www.w3.org/2000/svg" width="500" height="665"><path d="M213.69 95.602c-4.846.756-11.436 2.055-14.645 2.886-3.208.832-7.006 1.512-8.439 1.512-1.433 0-2.606.398-2.606.884s-2.588 1.912-5.75 3.168c-10.782 4.284-23.383 11.032-30.687 16.433-6.815 5.04-22.395 20.926-27.015 27.546-1.127 1.614-2.61 2.942-3.298 2.952-.687.009-1.25.911-1.25 2.004 0 1.437-1.871 2.971-6.75 5.536-17.174 9.027-41.304 29.68-53.135 45.479-3.09 4.126-6.63 8.513-7.867 9.75-1.236 1.236-2.248 3.092-2.248 4.124 0 3.437-4.986 13.308-6.987 13.831-1.467.384-1.801 1.127-1.413 3.148.28 1.455-.433 5.345-1.583 8.645-9.236 26.488-9.836 63.061-1.671 101.81.789 3.746 1.206 7.686.927 8.756-.28 1.069.069 2.641.776 3.493 1.488 1.793 2.922 8.764 3.279 15.941.155 3.129 1.491 7.682 3.57 12.167 4.151 8.958 2.865 11.624-3.821 7.92-2.498-1.384-2.732-1.988-3.689-9.544-.311-2.452-1.2-5.364-1.976-6.473-.777-1.108-1.412-3.175-1.412-4.593 0-1.417-.374-3.005-.831-3.527-.947-1.081-2.79-7.301-3.666-12.366-.762-4.409-1.248-5.119-3.035-4.433-1.018.39-1.508-.16-1.6-1.794-.091-1.636-.333-1.286-.792 1.143-.365 1.933-.056 6.186.691 9.5.744 3.3 1.76 9.522 2.258 13.827.498 4.304 1.61 9.239 2.472 10.967 1.992 3.994 1.153 7.875-2.026 9.362-1.359.636-2.471.84-2.471.453 0-1.302-4.482-.622-6.823 1.037-3.143 2.225-1.513 3.047 6.375 3.217 4.224.091 6.855.643 7.794 1.637 2.578 2.729 5.89 13.428 7.12 23 .036.275.383 1 .772 1.611.753 1.181.013 2.389-1.464 2.389-.49 0-.614-.45-.274-1 .34-.55-.053-1-.874-1-.82 0-1.777-.9-2.126-2s-1.31-2-2.135-2c-1.072 0-1.323-.641-.881-2.25.595-2.163.56-2.176-.9-.353-.836 1.044-1.302 2.25-1.036 2.681.267.431.027 1.066-.532 1.412-.559.345-1.016 1.501-1.016 2.569S30.564 429 30.031 429c-1.165 0-.116 3.193 1.396 4.25.735.513.652 1.022-.262 1.612-.735.474-1.185 1.113-1 1.42.862 1.435-4.339 5.798-6.206 5.205-1.442-.458-1.98-.142-2.038 1.196-.051 1.17-.267 1.346-.608.494-.393-.985-1.14-.749-2.921.924-2.256 2.12-2.396 2.138-2.455.323-.058-1.759-.138-1.741-.922.202-.654 1.618-1.475 2.009-3.437 1.634-1.75-.335-2.583-.054-2.593.873-.011.916-.258 1.004-.75.267C7.072 445.658 3 443.764 3 444.965c0 .569.45 1.035 1 1.035s.986.788.968 1.75c-.029 1.629-.128 1.623-1.42-.083C.152 443.187 0 447.896 0 557.436v107.568l250.25-.252 250.25-.252.002-110c.003-140.639-.785-249.777-1.777-246.225-1.071 3.834-4.475 7.024-6.835 6.406-1.059-.276-2.592.164-3.408.979-.815.816-1.497 1.113-1.515.661-.019-.451-.806.079-1.75 1.179s-3.624 2.9-5.956 4c-2.823 1.332-4.265 2.668-4.32 4-.079 1.945-.102 1.947-.839.066-.52-1.329-.986-1.563-1.489-.75-.402.651-1.496 1.184-2.431 1.184-.936 0-2.24.863-2.898 1.918-.748 1.197-1.914 1.73-3.105 1.419-1.252-.328-2.603.386-3.937 2.082-1.116 1.42-2.731 2.581-3.589 2.581-2.152 0-6.653 2.138-6.653 3.161 0 .461-1.152.839-2.559.839-1.623 0-2.308.407-1.872 1.112.921 1.49-1.417 2.854-4.926 2.873-2.125.011-2.71.399-2.281 1.515.35.914.001 1.5-.893 1.5-.808 0-1.469-.45-1.469-1s-.45-1-1-1-1 .666-1 1.481c0 .814-1.221 1.787-2.714 2.162-2.465.619-2.534.754-.75 1.476 1.08.438-1.186.478-5.036.088-9.559-.966-37.936-.601-43.678.561l-4.679.947-3.821-5.407c-15.865-22.446-29.059-35.885-47.519-48.399l-11.696-7.929 4.696-4.286c26-23.731 60.918-48.315 77.67-54.684 1.974-.75 2.533-1.404 1.813-2.124-3.542-3.542-43.448 23.566-77.035 52.329l-9.008 7.715-7.605-3.215c-8.366-3.537-8.831-4.246-5.091-7.759 5.339-5.016 10.807-13.002 9.675-14.134-.785-.785-1.595-.271-2.906 1.847-3.673 5.937-11.604 15.271-12.504 14.715-.509-.315-1.913-.699-3.119-.854-7.103-.911-8.937-2.253-6.193-4.53.825-.685 1.5-1.718 1.5-2.297 0-.578-1.1-.018-2.444 1.244-2.726 2.561-2.253 2.585-18.556-.929-11.365-2.45-38.555-3.368-50.25-1.696-6.607.944-6.964.413-3.75-5.583 1.1-2.053 2-4.183 2-4.735 0-.552-.9-1.004-2-1.004-1.327 0-2 .667-2 1.98 0 3.844-3.159 10.024-5.362 10.49-1.176.248-4.696.945-7.823 1.548-3.127.603-9.14 2.163-13.362 3.465-4.222 1.303-8.301 2.129-9.065 1.836-3.148-1.208-.375-36.423 4.083-51.838 1.732-5.993 4.701-9.481 8.068-9.481 1.521 0 2.461-.573 2.461-1.5 0-1.772-1.366-1.91-4.151-.419-3.012 1.612-3.064.901-.488-6.662 6.384-18.741 26.738-50.605 34.118-53.411 1.271-.483 2.471-1.267 2.666-1.741 1.112-2.7 28.58-6.758 40.355-5.962 4.803.325 7.201.2 6-.312-3.363-1.434-22.795-1.085-31.497.566-4.52.857-8.429 1.348-8.686 1.091-.69-.689 10.991-7.018 20.183-10.936 6.673-2.844 12.979-5.06 31.5-11.069.825-.268.375-.516-1-.551-6.774-.174-39.778 13.225-52.288 21.227-3.163 2.024-6.391 3.679-7.172 3.679-.782 0-1.66.385-1.95.855-.291.47-4.03 2.127-8.309 3.683-22.931 8.334-68.068 30.856-78.873 39.356-1.473 1.158-3.213 2.106-3.867 2.106-.654 0-3.383 1.56-6.065 3.467-2.682 1.906-5.048 3.295-5.258 3.084-.7-.7 3.752-15.041 4.775-15.382.554-.185 1.007-.943 1.007-1.685 0-.743 2.036-3.019 4.525-5.058 5.371-4.401 5.259-5.888-.134-1.777l-3.739 2.851.674-3.375c1.431-7.164 11.177-24.506 14.794-26.325 14.701-7.392 39.38-12.8 58.415-12.8 12.264 0 16.104-.773 11.883-2.393-.87-.334-6.866-.607-13.325-.607-17.845 0-34.407 3.517-54.507 11.573-8.347 3.345 23.42-30.009 33.395-35.063 8.051-4.08 17.081-7.423 18.539-6.864.781.3 2.57-.358 3.973-1.462 6.973-5.485 38.502-6.699 57.98-2.231 10.642 2.44 22.881 8.27 32.246 15.359l6.777 5.131-5.998 1.213-5.998 1.214 7-.495 7-.495 6.155 6.462c11.405 11.974 22.337 29.53 27.962 44.908 1.669 4.561 3.404 7.75 4.218 7.75 5.346 0-13.033-34.884-26.818-50.9-6.467-7.514-6.244-8.253 1.326-4.4 1.564.796 3.068 1.222 3.343.947.622-.622-3.975-2.989-8.893-4.577-2.038-.658-7.655-4.14-12.481-7.739-14.611-10.892-29.53-17.144-45.812-19.196l-7-.882 7-.267 7-.268-5.5-.76c-8.251-1.14-19.451-.894-29.31.644m-88.014 61.53c-.411 1.571-1.103 1.99-2.626 1.591-1.714-.448-2.762.647-6.118 6.394-3.344 5.726-11.932 24.681-11.932 26.336 0 .256 2.19-.897 4.867-2.561 5.357-3.33 5.462-3.492 10.66-16.392 1.995-4.95 4.736-10.912 6.092-13.25 1.852-3.193 2.111-4.25 1.04-4.25-.784 0-1.677.959-1.983 2.132m79.824-.25c-2.75.995-8.225 3.229-12.168 4.964-3.942 1.734-7.425 3.154-7.741 3.154-4.329 0-60.467 32.037-71.344 40.716-2.465 1.966-4.344 9.324-6.196 24.258-1.4 11.285-1.367 11.71.949 12.316 2.844.743 2.481 2.71-.5 2.71-2.43 0-2.5.198-2.5 7.032v7.031l5.25-3.839c13.912-10.175 56.932-34.376 58.434-32.873.283.283-1.892 1.734-4.835 3.225-2.942 1.491-11.424 6.195-18.849 10.454-35.29 20.243-40.011 23.911-39.983 31.061.017 4.296 1.611 13.099 3.931 21.715l1.147 4.262 3.022-2.151c1.662-1.184 3.416-3.189 3.898-4.455.578-1.521 1.489-2.162 2.68-1.886 3.77.871 6.794-3.287 6.8-9.35.003-3.551.456-5.707 1.255-5.974 1.247-.418 1.634 1.236 1.289 5.498-.248 3.064.146 2.915 5.986-2.273 2.801-2.487 5.516-4.261 6.034-3.941 1.864 1.152.882 3.246-2.102 4.482-7.288 3.019-8.957 5.901-8.957 15.467 0 4.775.338 8.527.75 8.339 8.302-3.799 21.052-10.484 22.216-11.647 1.261-1.261 1.569-5.295 1.76-23.032.211-19.574.869-24.884 2.838-22.915.328.329.055 5.85-.606 12.27-1.098 10.646-.964 30.827.212 32.004.268.267 3.271-.525 6.674-1.759l6.188-2.245-.613-7c-.829-9.454 1.027-27.616 4.188-41 1.429-6.05 2.557-12.012 2.507-13.25-.05-1.238.282-2.25.739-2.25s1.399-1.897 2.094-4.216c4.214-14.068 15.666-35.168 26.269-48.401 7.144-8.916 7.098-9.329-.716-6.501m-99.581 9.774c-18.768 12.596-36.552 28.91-44.738 41.039-5.697 8.441-5.418 10.605 1.819 14.139 1.375.671 5.641 3.384 9.48 6.028l6.979 4.808 4.582-3.585c7.069-5.532 9.625-9.895 12.492-21.318 3.288-13.106 8.442-26.98 14.011-37.72 2.41-4.65 4.25-8.586 4.089-8.748-.162-.161-4.083 2.249-8.714 5.357m2.536 24.723c-4.935 3.324-5.057 3.53-7.376 12.527-1.297 5.031-2.13 9.376-1.852 9.655.279.278 2.929-1.469 5.89-3.882 5.647-4.604 5.28-3.829 9.697-20.429.531-1.994-.993-1.484-6.359 2.129m-4.562 21.411c-5.62 4.527-6.616 6.635-7.895 16.729-1.331 10.494-.947 11.481 4.466 11.481h4.329l1.221-8.75c.671-4.812 1.777-12.012 2.459-16 1.432-8.38 1.482-8.341-4.58-3.46m-50.056 7.527c-2.996 3.02-7.291 13.739-6.206 15.488 2.065 3.33 14.669 8.447 27.869 11.313 16.65 3.616 15.502 3.633 15.486-.237-.024-6.121-.915-7.582-5.745-9.427l-4.579-1.748-3.581 4.162c-1.97 2.29-3.919 4.156-4.331 4.147-1.744-.036-.506-2.68 2.875-6.143l3.625-3.712-5.214-2.83c-9.484-5.148-10.719-5.911-14.808-9.149-3.396-2.69-4.272-2.993-5.391-1.864m-9.347 18.92C33.977 268.296 32.9 302.034 41.195 342.5c1.127 5.5 2.396 11.755 2.82 13.901.424 2.145 1.495 4.305 2.378 4.799.884.495 1.607 1.676 1.607 2.626 0 1.354 9.077 15.584 11.46 17.968.694.693 3.246-5.568 4.976-12.208 1.368-5.255 1.324-5.64-1.448-12.451-2.965-7.287-8.253-27.002-9.525-35.513-1.351-9.042 1.746-4.819 3.622 4.939C60.615 344.928 65.9 362 68.056 362c.445 0 1.097-.906 1.448-2.013.994-3.132 13.785-22.133 17.183-25.526 1.674-1.671 3.343-3.98 3.709-5.132.68-2.143-2.905-13.329-4.272-13.329-.974 0-5.786 5.229-11.044 12-4.204 5.415-6.047 6.6-6.791 4.366-.365-1.094 1.526-3.496 4.01-5.094.661-.425 3.951-3.926 7.312-7.78l6.11-7.008-1.782-6.492c-2.125-7.737-5.973-22.581-6.673-25.742-.351-1.583-.038-2.25 1.056-2.25 1.093 0 1.76 1.414 2.242 4.75.378 2.613 1.761 9.25 3.075 14.75 1.314 5.5 2.616 11.012 2.894 12.25.671 2.987 1.203 2.85 6.395-1.637l4.428-3.828-2.275-13.392c-3.461-20.371-2.844-18.417-5.152-16.329-1.569 1.421-2.229 1.534-3.203.551-.97-.981-.53-1.808 2.111-3.972l3.336-2.733-.716-8.205c-.651-7.467-.906-8.205-2.836-8.209-5.263-.011-29.97-7.038-36.569-10.401-5.052-2.574-7.237-3.256-7.562-2.358m50.584 14.678c-.024 6.647.191 12.085.477 12.085 1.496 0 5.718-3.629 6.863-5.898.722-1.431 1.606-5.588 1.965-9.238l.653-6.635-3.587-.673c-1.973-.37-4.204-.91-4.958-1.199-1.113-.427-1.379 1.746-1.413 11.558m4.044 12.772l-3.382 2.664.6 7.075c.68 8.017 3.498 22.685 4.58 23.841.395.422 2.384-.478 4.419-2 4.153-3.104 4.096-1.772.768-18.052-1.157-5.657-2.103-11.62-2.103-13.25 0-3.632-.583-3.665-4.882-.278m118.382 5.466c-5.5.483-10.15 1.321-10.333 1.863-.184.541-.908.984-1.611.984-.767 0-1.856 2.695-2.726 6.75l-1.448 6.75 3.559.608c1.957.335 2.615.672 1.462.75-3.1.21-5.99 3.198-6.728 6.955-.557 2.836-.4 3.239 1.087 2.797 14.237-4.234 50.238-7.274 50.238-4.242 0 1.2-2.894 1.547-16.25 1.949-8.937.268-18.275.943-20.75 1.498a259.33 259.33 0 0 1-8.5 1.74c-6.282 1.145-7.135 2.73-9.461 17.583-1.151 7.349-2.53 15.534-3.066 18.188-.535 2.655-.973 6.852-.973 9.328v4.501l4.75-5.148c3.171-3.437 5.459-7.19 6.881-11.288 1.172-3.377 2.699-6.329 3.392-6.56 1.303-.434 1.063 2.265-.564 6.341-.787 1.973-.769 1.974 1.371.095 3.206-2.815 2.634-.549-.814 3.226-2.999 3.283-6.44 13.485-5.821 17.259.266 1.627 1.078 1.33 6.365-2.328l6.059-4.192 1.3-7.53c.714-4.142 1.53-8.88 1.812-10.53l.514-3-3.112 2.927c-1.712 1.61-3.354 2.686-3.649 2.39-.295-.295 1.237-2.139 3.404-4.097 3.291-2.973 4.226-4.732 5.669-10.669.95-3.91 2.082-7.328 2.516-7.596 1.796-1.11 1.783 1.649-.033 6.928-1.079 3.136-1.489 5.617-.93 5.617.552 0 .313 1.238-.531 2.75-1.415 2.535-4.579 16.148-4.579 19.697 0 1.238 1.03 1.026 5.376-1.105 5.111-2.507 5.439-2.902 6.673-8.047 2.08-8.67 9.647-28.694 11.016-29.15.868-.289 1.023.163.505 1.469-1.848 4.657-5.574 15.508-7.621 22.192-4.125 13.476.511 11.288 10.022-4.731 4.603-7.753 18.824-27.946 22.77-32.331 3.479-3.867 2.124-.587-2.027 4.907-10.533 13.938-25.424 36.985-24.489 37.902.151.149 3.712-.648 7.914-1.771 7.102-1.897 7.799-2.328 9.936-6.13 3.203-5.697 22.754-34.994 27.795-41.647l4.162-5.494-4.102-1.368c-4.053-1.351-4.145-1.327-7.517 1.941-3.962 3.84-4.668 2.835-.825-1.175l2.587-2.701-8.837-2.058c-16.539-3.85-31.964-4.742-51.838-2.997m-21 3c-8.108 1.507-21.5 5.828-21.5 6.936 0 2.593 2.393 10.552 3.545 11.789 1.002 1.077 1.959 1.142 4.379.298 1.703-.593 5.79-1.384 9.082-1.756l5.986-.677 2.069-7.122c1.137-3.916 2.295-7.909 2.571-8.871.277-.962.135-1.7-.315-1.638-.449.061-3.067.53-5.817 1.041m87.77 13.573c-14.224 19.444-27.774 41.669-25.677 42.117 5.217 1.112 8.149-.792 12.501-8.12 5.495-9.253 15.847-24.419 22.092-32.365 5.216-6.638 5.211-6.753-.323-7.751-3.571-.643-3.729-.531-8.593 6.119m-159.531-3.554c-2.587 1.884-2.739 2.435-2.739 9.911 0 8.628.4 9.13 4.354 5.465 2.375-2.201 2.646-3.168 2.646-9.441 0-8.013-.484-8.687-4.261-5.935m39.925-.074c-2.659 1.062-5.504 2.599-6.321 3.416-.817.817-1.904 1.486-2.414 1.486-2.243 0-.659 1.898 1.821 2.184l2.75.316-2.25 1.972c-2.107 1.847-3.24 7.528-1.502 7.528.411 0 4.927-1.393 10.037-3.095 7.829-2.608 9.2-3.378 8.718-4.896-.315-.991-.905-3.76-1.311-6.155-.882-5.19-2.36-5.617-9.528-2.756m132.198 4.316C288.16 299.188 270 325.979 270 329.044c0 2.683 4.196.531 7.048-3.614 3.656-5.314 5.244-5.257 1.952.07-1.225 1.983-1.952 3.882-1.614 4.219.741.742.479 1.044 4.966-5.706 4.246-6.385 4.694-8.345 1.148-5.013-5.061 4.754-2.292.24 4.608-7.513 3.909-4.393 8.019-9.475 9.132-11.293 1.203-1.965 2.577-3.094 3.387-2.784 2.075.797 9.65-7.675 7.792-8.715-6.533-3.657-7.727-3.583-11.557.719m-181.807 3.029c-3.519 3.631-3.486 3.179-.929 12.926l1.015 3.87 2.738-2.623c2.655-2.543 2.715-2.839 1.978-9.738-.934-8.737-.775-8.59-4.802-4.435m29.2 1.897c-4.532 2.288-9.148 4.948-10.259 5.91-1.11.962-2.464 1.75-3.007 1.75-.544 0-.989 1.405-.989 3.122 0 2.46.278 2.892 1.309 2.037.719-.597 5.839-3.342 11.377-6.099 6.414-3.194 10.25-5.707 10.569-6.926 1.041-3.98-.791-3.938-9 .206m158.351 5.764C294.528 309.315 282 326.796 282 328.858c0 .483 1.913 1.135 4.25 1.449 4.633.621 6.62-1.017 16.441-13.557 2.046-2.613 4.078-4.75 4.514-4.75 2.052 0 .196 2.832-6.769 10.328l-7.563 8.141 2.813.661c8.65 2.029 10.29 1.88 13.021-1.186 4.066-4.563 7.003-3.83 3.677.918-2.017 2.88-1.596 3.215 7.616 6.068 7.664 2.374 18.216 7.287 25.43 11.841 3.929 2.481 6.474 2.82 15.07 2.011 1.979-.186 2.915.143 2.75.968-.305 1.523-.226 1.525 5.307.131 2.444-.615 4.443-1.488 4.443-1.939 0-1.759-18.654-25.768-24.472-31.498-10.827-10.663-22.767-19.827-36.093-27.704-.585-.346-5.008 3.868-9.829 9.364M192.5 294.072c-5.879.801-13.5 2.787-13.5 3.516 0 .281.709 1.883 1.576 3.559 1.449 2.802 1.871 2.992 5.25 2.365 5.357-.995 11.145-4.549 11.826-7.26.752-2.997.771-2.988-5.152-2.18m-86.883 5.942c-2.136 1.605-4.03 3.066-4.21 3.245-.377.378 2.465 12.946 3.062 13.544.822.821 8.528-6.203 8.47-7.72-.034-.871-.821-3.924-1.75-6.785l-1.689-5.202-3.883 2.918m37.326 3.25c-13.736 7.526-13.259 7.164-12.517 9.502.626 1.974.923 1.9 7.229-1.785 3.617-2.113 9.024-4.836 12.015-6.05 3.841-1.559 5.275-2.631 4.884-3.651-.305-.794-.554-1.857-.554-2.362 0-1.536-1.137-1.089-11.057 4.346m28.357-4.298c-9.991 2.376-16.463 6.579-13.219 8.584.595.368.811 1.744.481 3.059-.756 3.012-1.25 3.073 10.573-1.306 9.578-3.547 9.957-3.8 9.344-6.244-.681-2.71-2.314-5.126-3.351-4.957-.346.057-2.068.445-3.828.864m11.7 8.081c-6.875 2.009-15.107 4.848-18.294 6.31-5.615 2.575-5.776 2.757-5.211 5.9.321 1.784 1.217 7.293 1.992 12.243 4.863 31.059 4.907 31.237 7.212 29.363 1.487-1.209 1.585-1.137.875.637-1.557 3.889-1.792 5.495-1.167 7.984.347 1.384 1.099 2.516 1.671 2.516.572 0 .721-.516.332-1.146-.494-.799.051-.955 1.803-.515 4.92 1.234 16.16-12.867 17.279-21.677 1.975-15.553 3.714-26.961 5.092-33.406.853-3.985 1.407-8.284 1.233-9.553l-.317-2.308-12.5 3.652m-33.725-.567c-8.121 3.531-17.275 9.658-17.275 11.564 0 2.599.782 2.48 6.175-.94 2.512-1.593 6.547-3.772 8.967-4.843 4.518-1.998 7.858-4.69 7.858-6.332 0-1.286-1.925-1.101-5.725.551m-56.185 3.443l-4.408 3.759 1.153 4.578c.634 2.518 1.597 5.745 2.139 7.171l.985 2.591 2.55-2.217c4.58-3.982 5.495-7.012 4.026-13.333-1.648-7.089-1.288-6.946-6.445-2.549m53.224 11.174c-9.956 4.688-12.314 6.745-12.314 10.742 0 2.765 13.001 38.041 17.505 47.496l3.732 7.835 2.197-5.335c1.209-2.934 3.428-7.818 4.931-10.854l2.733-5.518-3.1-17.982c-1.705-9.889-3.574-20.906-4.155-24.481-.58-3.575-1.119-6.545-1.199-6.6-.079-.055-4.728 2.059-10.33 4.697M128.1 331.9c-1.155 1.155-2.775 2.1-3.6 2.1-2.822 0-.979 7.319 4.63 18.393 2.098 4.141 2.67 6.207 1.927 6.95-.665.665-1.386.705-1.943.107-1.286-1.378-8.114-18.903-8.114-20.824 0-.894-.342-1.626-.76-1.626-1.196 0-6.24 4.963-6.24 6.139 0 2.548 13.221 27.842 14.228 27.22.655-.405.791-.199.345.522-1.02 1.652 11.388 20.542 15.618 23.778 3.992 3.052 10.89.822 7.609-2.459-.727-.727-.79-1.2-.161-1.2 1.792 0 .795-5.281-2.05-10.859-3.556-6.972-12.55-30.434-15.579-40.641-2.899-9.769-3.267-10.243-5.91-7.6m-38.849 4.466c-3.727 4.246-15.981 22.84-17.418 26.431a127.45 127.45 0 0 1-2.061 4.83c-.729 1.585-.542 2.795.734 4.742 2.161 3.297 2.54 3.03 7-4.945 3.893-6.962 10.14-15.19 16.832-22.17 2.843-2.966 3.754-4.562 3.02-5.296s-1.866.019-3.755 2.496c-1.488 1.95-3.132 3.546-3.654 3.546-1.731 0-.983-2.806 1.551-5.818 4.661-5.538 2.493-9.216-2.249-3.816m186.962 5.097L271.926 350h2.49c4.503 0 7.49-2.216 11.703-8.682 4.676-7.178 4.641-7.39-1.32-7.972l-4.299-.42-4.287 8.537m-20.493-6.768c-1.03.268-3.687 4.261-6.309 9.482l-4.529 9.019 4.309-.711c6.057-.998 6.163-1.091 11.727-10.252l5.001-8.233-4.21.116c-2.315.064-5.01.324-5.989.579m32.868 6.042c-2.418 3.72-4.235 6.93-4.038 7.133.196.204 2.366.07 4.82-.298 3.907-.586 4.987-1.35 8.687-6.146 4.809-6.234 4.845-5.933-.814-6.8l-4.258-.652-4.397 6.763M245 337.175c-1.925.548-4.259 1.676-5.187 2.508-.928.832-2.131 1.238-2.674.903-.92-.569-4.218 6.896-5.759 13.038-.576 2.291-.414 2.603 1.058 2.038.955-.366 3.385-.93 5.399-1.253 3.428-.549 3.962-1.158 8.33-9.498 2.567-4.901 4.142-8.87 3.5-8.821-.642.05-2.742.538-4.667 1.085m56.17 4.238c-1.744 2.428-3.171 4.565-3.172 4.75-.001.186 5.895.199 13.103.03 10.452-.245 13.012-.042 12.65 1-.249.719-1.533 1.19-2.852 1.048-1.32-.142-7.349-.259-13.399-.258-10.555 0-11.091.104-13.25 2.564-3.163 3.606-2.816 4.632 1.5 4.433 8.613-.399 7.751 1.26-1.286 2.473-5.034.675-5.037.679-10.067 8.861-6.125 9.964-7.515 13.129-6.776 15.424.485 1.505.4 1.543-.58.262-.978-1.277-1.103-1.215-.845.417.377 2.375 2.804 3.354 2.804 1.131 0-1.88 3.851-.355 5.3 2.098.44.745 2.24 1.368 4 1.386 1.76.017 4.012.647 5.004 1.399 1.617 1.227 2.289.842 6.5-3.723 10.657-11.554 23.104-20.679 41.958-30.76l3.261-1.744-4.261-2.478c-8.211-4.772-14.332-7.515-22.564-10.109-11.721-3.695-13.197-3.539-17.028 1.796m-208.425 8.461C86.183 357.429 79 367.046 79 368.276c0 .457-1.125 2.486-2.5 4.509-1.375 2.024-2.5 4.025-2.5 4.447 0 1.963 1.926.237 6.676-5.982 2.835-3.712 8.981-10.48 13.657-15.038l8.501-8.288-2.167-2.338-2.167-2.337-5.755 6.625m105.662-4.617c-5.833 6.741-7.504 9.767-8.08 14.632-1.324 11.18 6.822 3.736 9.134-8.347 1.714-8.958 1.64-9.397-1.054-6.285m22.343 1.916c-5.663 3.072-5.75 3.187-5.75 7.541 0 3.731.273 4.344 1.75 3.928.963-.271 3.126-.768 4.808-1.105 2.821-.564 3.175-1.115 4.552-7.074.822-3.555 1.246-6.451.942-6.436-.304.014-3.14 1.43-6.302 3.146m-114.236 1.06C94.888 357.835 78 377.056 78 380.686c0 2.336 3.277 5.668 4.491 4.566.457-.414.446-.077-.023.748-.734 1.293-.619 1.311.84.128 1.05-.852 1.692-.959 1.692-.282 0 .6.629.85 1.399.554.769-.295 1.696-.056 2.059.532.363.587.157 1.068-.458 1.068s-.84.45-.5 1c.34.55-.196 1.018-1.191 1.04-1.426.032-1.28.327.691 1.395 4.55 2.467 12 1.151 12-2.119 0-1.207-.688-1.428-3-.966-1.65.33-3 .209-3-.268 0-1.243 2.735-2.121 4.5-1.444.825.317 1.5.051 1.5-.59s.422-.905.939-.586c.516.319 1.415-.217 1.999-1.191 1.005-1.678 1.14-1.669 2.561.17 1.262 1.632 1.501 1.681 1.501.309 0-.898-.45-1.91-1-2.25-.55-.34-1-1.111-1-1.714s.823-.351 1.829.559c1.976 1.789 3.647 2.235 2.714.724-.963-1.557 1.204-2.179 2.629-.754.734.734 2.803 1.232 4.598 1.108 2.339-.162 3.554.313 4.283 1.675.722 1.351 2.094 1.898 4.732 1.887 6.314-.026 6.685-.963 2.88-7.281-1.868-3.102-3.754-5.317-4.191-4.922-.437.395-.424.079.03-.702.606-1.044.402-1.258-.771-.808-1.222.469-1.588-.019-1.563-2.08.018-1.48-2.382-7.762-5.334-13.959l-5.366-11.267-3.956 3.267M388 350.139c-4.125.54-7.881 1.358-8.346 1.818-.465.459.938 3.791 3.117 7.405 2.18 3.614 4.272 6.262 4.649 5.885.377-.377.358.169-.043 1.214-.697 1.814-.622 1.824 1.669.219 2.761-1.933 5.954-2.216 5.954-.527 0 .634.844.18 1.874-1.008 1.031-1.189 3.281-2.652 5-3.251 1.72-.599 3.126-1.46 3.126-1.912 0-.453 1.354-1.12 3.009-1.484 1.78-.391 2.738-1.099 2.345-1.734-.421-.681-.185-.777.646-.264.926.572 1.07.422.49-.515-.607-.983-.352-1.146.991-.631 1.104.424 2.506.063 3.601-.928.985-.892 2.27-1.326 2.855-.965.585.361 1.063-.007 1.063-.819 0-.811.563-1.704 1.25-1.984.688-.28.125-.55-1.25-.598-1.375-.049-7.45-.273-13.5-.497-6.05-.224-14.375.035-18.5.576m-22.5 4.814c-3.3.943-5.883 2.01-5.74 2.37.406 1.021 8.886 8.677 9.61 8.677.356 0 2.049 1.238 3.762 2.75 1.714 1.512 3.51 2.637 3.992 2.5.482-.137.823.087.758.5-.287 1.815.193 3.25 1.087 3.25.532 0 .673-.788.312-1.75-.574-1.532-.446-1.579 1.032-.378 1.099.894 1.687.982 1.687.25 0-.617.7-1.122 1.557-1.122 1.393 0 1.399-.289.064-2.75-.821-1.512-2.933-5.788-4.694-9.5-3.608-7.606-3.607-7.606-13.427-4.797m-23 1.276c-12.834 4.876-44.938 29.634-42.837 33.035.355.575.174.753-.404.396-1.704-1.053-2.244 1.986-.709 3.993 1.158 1.515 1.575 1.599 2.319.469.528-.801 1.437-1.051 2.174-.596.894.553 1.027.37.451-.621-.448-.773-.467-1.092-.043-.71.853.768 6.197-5.128 5.799-6.398-.138-.438.399-.797 1.193-.797s2.032-.808 2.75-1.795c3.008-4.131 20.733-17.27 33.609-24.913 5.141-3.052 2.117-4.501-4.302-2.063m-1.34 8.217c-15.014 9.52-27.841 20.233-25.404 21.217.691.279.959.989.596 1.577-.376.608-.192.779.424.398.597-.369 1.322-.288 1.611.179.289.467 1.895.648 3.569.403 1.837-.27 3.044-.005 3.044.667 0 .612.675 1.113 1.5 1.113.884 0 1.506-.923 1.515-2.25.009-1.238.346-1.8.75-1.25 1.109 1.51 4.208 1.767 5.761.478.758-.629 2.241-.869 3.296-.535 1.554.494 2.043-.013 2.578-2.667.497-2.467.882-2.92 1.558-1.833.713 1.145 1.405 1.213 3.348.327 1.802-.821 2.743-.821 3.565.001.821.821 1.875.388 3.992-1.639 2.63-2.52 2.939-2.601 3.623-.944.499 1.211.902 1.397 1.214.562.772-2.068 2.299-1.408 2.315 1 .01 1.424.296 1.808.78 1.047.421-.662 2.692-1.511 5.047-1.888 3.022-.483 3.97-.997 3.22-1.747-.584-.584-1.062-1.697-1.062-2.473 0-.892.723-.543 1.967.95l1.966 2.361.034-2.25c.018-1.238-.529-2.257-1.217-2.265-.954-.012-.94-.212.059-.846 2.052-1.301-15.071-16.139-18.625-16.139-.471 0-5.432 2.901-11.024 6.446m-62.26-4.786c-.88.236-2.541 2.546-3.692 5.134-6.07 13.654-7.349 17.168-6.657 18.288.486.786.343.971-.396.513-.635-.392-1.155-.263-1.155.287s.45 1.278 1 1.618c.55.34.993 1.154.985 1.809-.01.779-.319.711-.893-.194-.7-1.105-1.11-.95-2.031.771-.634 1.185-.905 2.558-.601 3.049.304.492-.013 1.096-.704 1.343-.691.246-1.012.717-.713 1.045.299.328 1.831-.51 3.406-1.863 1.574-1.353 2.535-2.46 2.135-2.46-.4 0 .006-.733.902-1.629s1.392-2.246 1.103-3c-.289-.754-.134-1.371.345-1.371.478 0 1.321-1.292 1.871-2.871s3.504-6.979 6.563-12l5.561-9.129-2.714.116c-1.493.064-3.435.309-4.315.544m-10.386 2.075c-3.98 1.007-7.278 6.6-11.528 19.546-1.719 5.237-2.771 11.546-1.333 7.998.514-1.269.877-1.074 5.076 2.721 1.49 1.347 1.592 1.322.996-.25-.364-.962-.304-1.75.135-1.75.438 0 2.283-3.937 4.101-8.75 1.817-4.812 4.601-11.337 6.186-14.5l2.882-5.75-2.265.116c-1.245.064-3.158.342-4.25.619M204.5 363.44c-3.716 1.142-4.021 1.516-4.301 5.266l-.301 4.036 5.708-1.143c5.899-1.182 7.171-2.458 7.324-7.349.081-2.602-1.965-2.798-8.43-.81m49 1.428c-2.842.599-3.224 1.307-7.244 13.417-2.334 7.031-4.532 14.681-4.884 17l-.64 4.215 2.006-2c1.104-1.1 1.812-2.337 1.575-2.75-.237-.413.271-.75 1.128-.75.857 0 1.566-.562 1.574-1.25.011-.833.339-.75.985.25.613.949.975 1.052.985.281.008-.67.69-.959 1.515-.643 1.012.389 1.5-.048 1.5-1.343 0-2.597 5.187-17.782 7.872-23.045l2.169-4.25-2.771.118c-1.523.065-4.12.403-5.77.75m-10 1.787l-4.25.903c-1.238.264-2.25.895-2.25 1.402 0 .507-1.85 4.886-4.111 9.731-4.796 10.275-7.069 16.309-6.145 16.309.361 0 .116.54-.544 1.2-.66.66-1.2 2.159-1.2 3.33 0 2.243 4.205 2.759 8.25 1.012 1.146-.495 1.75-.317 1.75.518 0 1.567 1.482.231 1.545-1.393.025-.642.532-1.073 1.127-.958.595.115 1.367-1.948 1.717-4.584.35-2.636 2.399-10.042 4.555-16.459 2.426-7.22 3.469-11.622 2.738-11.55-.65.064-2.082.306-3.182.539m-78.5 3.178c0 2.021-.266 2.639-1.578 3.667-1.027.804-6.422 12.76-6.422 14.231 0 .213.45.109 1-.231s1.032-.029 1.07.691c.039.72.457.409.93-.691.683-1.589.874-1.658.93-.338.072 1.708 3.57 1.946 3.57.243 0-.498 1.012-1.917 2.25-3.155 2.569-2.569 2.614-3.035.921-9.452-1.21-4.586-2.671-7.301-2.671-4.965m51.189 1.221c-2.205.884-2.283 1.262-1.691 8.187.697 8.159 2.368 16.754 3.548 18.259.431.55.737 1.225.679 1.5-.057.275.416 1.4 1.052 2.5.937 1.62 1.153.292 1.138-7-.01-4.95.29-12.488.665-16.75.746-8.46.321-8.987-5.391-6.696m-10.439 2.716l-5.75 1.446.015 6.642c.011 4.657.305 6.194.985 5.142.784-1.213.972-1.069.985.75.008 1.238.435 2.25.948 2.25.949 0 2.626 3.885 2.265 5.25-.109.413.365.756 1.052.764.688.007 2.262.285 3.5.616 1.867.501 2.253.2 2.265-1.763.013-1.942.205-2.098 1.069-.867.768 1.093.902.008.494-4-.308-3.025-.828-8.2-1.156-11.5-.328-3.3-.669-6.039-.759-6.088-.09-.048-2.751.563-5.913 1.358m-13.008 3.315c-.967.563-2.145.784-2.617.492-1.279-.79-2.175 7.643-1.169 11.006.48 1.605.911 2.43.958 1.835.161-2.027 6.916-3.446 7.418-1.558.24.902.488-.911.552-4.028.174-8.516-.94-10.195-5.142-7.747M47.708 398.72c-2.639.398-2.781.68-2.571 5.101.22 4.649 6.015 18.179 7.787 18.179.464 0 1.093.958 1.399 2.128.431 1.649 1.125 2.019 3.082 1.645 1.389-.265 2.73.015 2.981.622.251.608.492.317.535-.645.043-.962-.401-1.75-.988-1.75-.628 0-.807-.927-.435-2.25.514-1.827.42-1.968-.498-.75-.932 1.236-1.029 1.133-.549-.588.536-1.928-3.75-15.237-5.283-16.404-.368-.279-.713-1.07-.768-1.758-.29-3.619-.463-4.237-1.15-4.1-.413.082-2.007.339-3.542.57m14.844 3.97c.147 3.355 7.75 10.515 10.177 9.584 1.148-.441 1.368-.24.781.711-.58.937-.436 1.087.49.515.809-.5 1.066-.416.673.22-.365.591.333 1.03 1.64 1.03 2.978 0 3.116-4.517.187-6.141-1.1-.61-2.225-1.386-2.5-1.725-.275-.338-2.382-1.569-4.682-2.735-2.3-1.166-4.464-2.577-4.809-3.135-1.144-1.85-2.077-1.051-1.957 1.676M.482 557c0 59.675.121 84.087.268 54.25.147-29.838.147-78.663 0-108.5C.603 472.912.482 497.325.482 557" fill="#d3d3d3" fill-rule="evenodd"/></svg>