<svg xmlns="http://www.w3.org/2000/svg" width="500" height="770"><path d="M80.006 4.25C80.012 9.204 81.714 16 82.948 16c.469 0 .647 1.978.395 4.395-.281 2.7.143 5.832 1.1 8.122.856 2.05 1.557 4.573 1.557 5.607 0 1.034 1.35 5.776 3 10.538 1.65 4.762 3 9.685 3 10.939 0 1.255.438 2.552.973 2.882.535.331 1.869 3.503 2.964 7.049 1.096 3.546 2.906 8.14 4.024 10.208 1.118 2.068 4.267 8.485 6.998 14.26 2.73 5.775 6.554 13.425 8.498 17 1.943 3.575 3.536 7.007 3.538 7.628.003.62.68 1.687 1.505 2.372.825.685 1.5 1.87 1.5 2.634 0 2.289 9.499 21.635 12.21 24.866 1.384 1.65 2.856 4.125 3.271 5.5.416 1.375 1.421 3.259 2.235 4.187.814.928 1.184 2.165.823 2.75s-.225 1.063.303 1.063 1.792 2.023 2.809 4.496c1.017 2.473 2.412 4.498 3.099 4.5.699.002 1.25 1.228 1.25 2.781 0 3.039 2.648 7.558 3.955 6.751.45-.278 1.432.237 2.182 1.146 1.064 1.29 1.089 1.743.113 2.072-.688.231-1.25.86-1.25 1.396 0 .537.391.735.868.44s.87.241.872 1.191c.006 2.685 1.392 6.227 2.436 6.227.518 0 .667.444.332.987-.61.987.519 2.756 3.654 5.73.914.868 1.427 2.189 1.14 2.938-.856 2.232.685 8.345 2.105 8.345.869 0 1.151.86.831 2.535-.292 1.527.162 3.249 1.141 4.331.894.988 1.368 2.053 1.054 2.368-.751.75 1.661 8.766 2.637 8.766.414 0 .626.788.471 1.75-.155.963.12 2.525.61 3.473s1.336 4.074 1.881 6.948c.545 2.874 1.484 5.53 2.086 5.902.69.427.733.901.117 1.282-.606.374-.261 2.783.902 6.308 1.035 3.137 1.639 6.468 1.342 7.402-.321 1.011.108 1.946 1.06 2.312 1.067.409 1.388 1.277.965 2.609-.348 1.098-.27 2.563.174 3.255.444.692.865 2.741.934 4.553.073 1.902.922 3.932 2.007 4.802 1.779 1.426 1.746 1.47-.611.812-2.148-.6-2.318-.487-1.233.821.693.835.992 2.214.665 3.066-.327.852-.014 2.596.695 3.877.71 1.28 1.212 2.612 1.117 2.959-.095.347 1.947 1.216 4.538 1.931 2.59.715 6.186 2.118 7.99 3.119 1.805 1 4.173 1.819 5.264 1.819 2.365 0 5.378 1.674 8.547 4.75 1.275 1.238 3.014 2.25 3.864 2.25.85 0 1.545.603 1.545 1.34 0 2.162 7.894 4.398 9.163 2.595.788-1.119.91-.972.557.665-.378 1.747.322 2.364 4.163 3.666 7.393 2.507 37.187 2.663 41.148.215.533-.33.969-.072.969.573 0 .847 2.77 1.049 10.002.728 5.502-.244 10.18-.267 10.396-.051 1.511 1.512 101.28 2.026 103.912.535.446-.252 12.596-.689 27-.971 34.484-.674 42.395-.995 43.645-1.767.572-.354 3.404-.558 6.293-.454 2.888.104 10.315-.162 16.502-.593l11.25-.782V0H80l.006 4.25M292.5 317.641c-3.653.748-9.972 2.575-12 3.47-3.739 1.649-15.991 6.083-18.25 6.604-1.238.285-2.25.825-2.25 1.201 0 1.078-6.592 3.178-8.128 2.588-.79-.303-1.813.379-2.379 1.586-.546 1.164-2.118 2.746-3.493 3.514-14.939 8.346-18.32 10.382-17.25 10.389.688.004 1.25.457 1.25 1.007 0 .55-1.125 1-2.5 1s-2.5.414-2.5.921c0 .506-1.35 1.217-3 1.579-1.65.362-3 1.148-3 1.746 0 .598-.281.807-.623.464-.343-.343-2.07.48-3.839 1.828-1.768 1.349-3.488 2.178-3.823 1.843-.336-.335-1.819.342-3.297 1.505-1.478 1.163-3.752 2.114-5.053 2.114-1.301 0-2.365.45-2.365 1s-.906 1-2.014 1c-1.107 0-2.795.419-3.75.931-.955.511-4.331 1.947-7.502 3.19-3.172 1.243-6.64 3.075-7.708 4.07-1.068.995-2.561 1.809-3.318 1.809-.756 0-1.712.337-2.125.75-.412.413-1.05.781-1.416.82-2.776.289-9.348 2.754-10.551 3.956-.81.811-1.955 1.474-2.545 1.474-.589 0-1.071.45-1.071 1s-.745 1-1.655 1-3.303 1.688-5.317 3.75c-3.828 3.92-6.144 5.649-9.579 7.152-1.128.494-4.119 2.292-6.645 3.998-2.527 1.705-5.036 3.1-5.577 3.1-.54 0-1.518.646-2.174 1.436-.655.789-2.51 1.725-4.122 2.079-1.612.354-2.931 1.269-2.931 2.033 0 .824-.61 1.155-1.5.814-.825-.317-1.5-.084-1.5.518 0 .601-1.463 1.704-3.25 2.452-1.788.747-3.868 2.103-4.622 3.013-.755.91-1.993 1.655-2.75 1.655-.758 0-1.378.502-1.378 1.117 0 .624-.882.886-2 .593-1.3-.34-2-.03-2 .884 0 .773-.576 1.406-1.279 1.406-.704 0-2.841 1.507-4.75 3.349-1.909 1.841-5.158 4.143-7.221 5.114-2.062.971-3.75 2.121-3.75 2.557 0 .436-.847.571-1.883.3-1.115-.291-2.441.257-3.25 1.344-.752 1.01-2.569 2.456-4.038 3.213-1.469.757-5.304 3.506-8.521 6.11-3.217 2.603-6.864 5.055-8.105 5.449-1.241.393-2.971 1.807-3.845 3.14-.873 1.333-2.138 2.424-2.81 2.424-.672 0-3.736 1.8-6.808 4-3.073 2.2-6.071 4-6.663 4-.592 0-1.077.417-1.077.928 0 .51-2.7 2.567-6 4.572s-6 4.062-6 4.572c0 .511-.498.928-1.106.928-.608 0-2.442 1.125-4.076 2.5-1.634 1.375-3.557 2.5-4.272 2.5-.716 0-1.845.655-2.509 1.456-.665.8-3.87 2.712-7.123 4.248L0 483.497v286.507l250.25-.252 250.25-.252V617.583c0-132.714-.186-151.979-1.469-152.406-1.617-.539-13.031-11.595-13.031-12.622 0-.353-1.688-2.494-3.75-4.757-2.062-2.263-4.875-5.444-6.25-7.069-2.222-2.627-17.286-17.824-27.688-27.934-2.097-2.037-4.937-4.873-6.312-6.301-1.375-1.429-4.639-3.772-7.254-5.207-2.615-1.435-5.901-4.112-7.301-5.948-1.401-1.837-2.97-3.339-3.487-3.339-.517 0-2.88-1.462-5.25-3.25s-5.589-4.15-7.153-5.25c-1.564-1.1-4.407-3.331-6.318-4.957-3.55-3.023-27.591-15.543-29.844-15.543-.685 0-4.992-2.311-9.57-5.134-4.577-2.824-10.348-6.265-12.823-7.646-2.475-1.381-7.759-4.687-11.741-7.347-3.983-2.659-9.928-6.192-13.212-7.849-3.284-1.658-7.548-4.591-9.475-6.519-1.928-1.928-4.163-3.505-4.967-3.505-.804 0-2.089-.627-2.855-1.392-2.335-2.336-11.542-6.615-13.967-6.492-1.256.064-3.183.3-4.283.525M.487 626.5c0 79.2.118 111.452.263 71.672.145-39.781.145-104.581 0-144C.605 514.752.487 547.3.487 626.5" fill="#d3d3d3" fill-rule="evenodd"/></svg>