<svg xmlns="http://www.w3.org/2000/svg" width="500" height="794"><path d="M0 320.5C0 496.775.219 641 .486 641s1.73-1.891 3.25-4.202 3.832-5.348 5.138-6.75c1.306-1.401 3.382-4.129 4.613-6.06 2.513-3.944 12.824-15.375 19.24-21.33 2.325-2.158 3.986-4.314 3.691-4.791-.295-.477.002-.867.66-.867s4.033-2.363 7.499-5.25c3.467-2.888 8.243-6.68 10.613-8.427C63.367 577.296 90 549.185 90 546.582c0-2.084 45.729-47.539 47.886-47.599.338-.01 1.659-1.119 2.936-2.466 1.276-1.346 5.551-4.884 9.5-7.861 3.948-2.978 8.035-6.369 9.083-7.535 1.048-1.167 2.192-2.121 2.543-2.121s6.316-5.625 13.256-12.5c6.941-6.875 13.109-12.5 13.707-12.5.599 0 1.089-.637 1.089-1.417 0-.779.387-1.566.86-1.75.955-.37 10.025-11.108 14.64-17.333 1.632-2.2 3.54-4.675 4.241-5.5.702-.825 1.384-1.915 1.517-2.423s1.367-2.145 2.742-3.639c3.828-4.157 5-5.762 5-6.846 0-.546.787-1.451 1.75-2.012.963-.561 1.312-1.033.777-1.05-.534-.016-.006-.706 1.174-1.533 2.583-1.81 8.525-13.322 7.627-14.776-.4-.646-.113-.726.767-.215.773.448 1.071.446.664-.004-.408-.45-.24-1.422.372-2.16.839-1.011.776-1.349-.259-1.372-.92-.021-.789-.37.399-1.062.974-.567 1.467-1.523 1.096-2.124-.434-.701-.207-.803.633-.284.781.483 1.066.415.706-.167-.332-.537.311-1.759 1.429-2.716 1.117-.957 1.81-2.319 1.538-3.026-.271-.708.815-2.817 2.414-4.689 1.6-1.871 2.909-4.081 2.911-4.911.001-.831.839-2.032 1.861-2.671 1.023-.638 2.151-2.619 2.507-4.4.356-1.782.943-2.944 1.304-2.583.83.83 4.542-5.171 4.846-7.837.126-1.1.293-2.45.372-3 .078-.55.529-.389 1.002.357.638 1.006 1.047 1.053 1.585.183.399-.645.514-1.384.257-1.642-.258-.257.835-1.864 2.429-3.57 1.594-1.707 2.687-3.314 2.429-3.572s.403-1.406 1.47-2.551c1.067-1.145 1.94-2.672 1.94-3.394 0-.721.394-1.311.875-1.311s1.146-1.354 1.477-3.008c.33-1.654.964-2.892 1.407-2.75.873.279 5.991-4.777 7.945-7.849 2.64-4.149 7.296-14.145 7.296-15.663 0-.887.479-1.908 1.065-2.27.586-.362.94-1.851.787-3.31-.153-1.458.04-3.166.429-3.796.389-.629.035-1.402-.787-1.718-.822-.315-1.494-1.397-1.494-2.405 0-1.007-.425-2.258-.945-2.781-.519-.522-1.181-2.303-1.471-3.958-.29-1.654-1.665-5.807-3.056-9.23-1.39-3.422-2.528-6.874-2.528-7.671 0-.796-.562-2.043-1.25-2.77-.687-.726-1.273-1.771-1.302-2.321-.255-4.886-1.852-8.385-4.084-8.945-1.345-.337-2.161-1.074-1.813-1.637.348-.563-.378-1.9-1.612-2.971-1.235-1.071-1.839-1.962-1.342-1.98.497-.019-.113-.881-1.355-1.917-1.243-1.036-2.536-3.272-2.875-4.967-.34-1.696-.98-3.083-1.425-3.083-.444 0-1.093-.9-1.442-2s-1.306-2-2.126-2c-.821 0-1.216-.446-.879-.992.727-1.176-.594-3.847-1.932-3.909-.516-.024-1.054-.836-1.196-1.803-.142-.968-.707-1.909-1.256-2.092-.549-.183-.756-1.092-.46-2.019.412-1.29.312-1.37-.424-.34-1.196 1.672-2.456-2.075-3.102-9.228-.069-.761-1.008-1.615-2.088-1.897-1.327-.347-1.836-1.168-1.572-2.537.214-1.114-.231-2.263-.99-2.554-.759-.291-1.211-1.401-1.006-2.467.464-2.413-1.648-8.722-3.737-11.162-.862-1.007-1.361-2.038-1.108-2.291.653-.652-2.652-8.879-4.377-10.896-.794-.928-1.197-2.085-.896-2.572.301-.486-.012-1.977-.695-3.313-.682-1.335-1.87-4.003-2.64-5.928-2.356-5.893-6.065-10.919-7.617-10.323-.958.368-1.234.056-.846-.955.328-.854-.466-2.544-1.841-3.919-1.329-1.329-2.596-2.849-2.814-3.378-.219-.529-1.696-1.966-3.283-3.193-1.915-1.482-2.354-2.232-1.306-2.232 2.053 0-1.507-8.53-4.608-11.041-1.117-.904-2.186-2.664-2.376-3.912-.385-2.521-3.687-7.611-6.681-10.297-1.072-.962-1.45-1.75-.84-1.75 1.162 0-4.554-10.244-7.575-13.575-.96-1.059-2.578-3.222-3.596-4.807-1.411-2.195-2.051-2.559-2.689-1.528-1.093 1.77-2.442-1.35-1.568-3.628.33-.858-.037-1.778-.83-2.083-.781-.299-1.197-1.124-.925-1.833.271-.708-.238-1.569-1.132-1.912-1.004-.385-1.413-1.299-1.068-2.386.325-1.024-.38-2.916-1.681-4.513-1.232-1.512-3.815-5.05-5.74-7.862-1.925-2.812-4.675-6.522-6.111-8.243-1.437-1.722-3.361-4.592-4.276-6.38-.915-1.788-2.05-3.25-2.522-3.25s-1.142-.788-1.49-1.75c-.986-2.727-2.864-5.485-5.959-8.75-1.564-1.65-3.534-4.35-4.378-6-.844-1.65-2.149-3.36-2.899-3.8-.751-.44-1.395-1.34-1.431-2-.037-.66-1.586-3.225-3.443-5.7s-4.379-6.525-5.604-9c-1.226-2.475-3.509-6.391-5.074-8.703-1.564-2.312-2.737-4.562-2.606-5 .131-.438-.589-2.035-1.6-3.547L118.77 0H0v320.5m495.5-192.879c-2.2.836-6.25 2.565-9 3.843s-7.7 3.547-11 5.042c-3.3 1.495-6.9 3.21-8 3.81-1.1.6-5.895 2.999-10.657 5.332-4.761 2.332-8.95 4.716-9.309 5.296-.358.581-1.42 1.056-2.358 1.056-.938 0-3.274.84-5.191 1.867-1.917 1.026-4.947 2.187-6.735 2.579-1.788.392-3.25 1.073-3.25 1.512 0 .44-1.462 1.371-3.25 2.071-5.478 2.143-10.224 4.336-10.75 4.968-.275.33-2.3 1.134-4.5 1.786-2.2.652-5.575 2.18-7.5 3.394-1.925 1.214-4.504 2.36-5.731 2.547-1.227.187-6.852 1.672-12.5 3.301-5.648 1.63-11.281 2.965-12.519 2.969-1.238.003-2.25.442-2.25.975 0 .532-.675.709-1.5.393-.825-.317-1.5-.108-1.5.465 0 .572-1.109.839-2.464.594-1.356-.246-4.393.042-6.75.641-2.357.598-5.065 1.082-6.016 1.076-.952-.006-1.991.411-2.309.926-.319.515-1.677.936-3.02.936s-2.441.338-2.442.75c-.001.412-2.138.783-4.75.824-4.779.074-14.473 1.091-19.407 2.036-2.107.403-3.116 1.636-4.866 5.949-1.215 2.993-2.551 5.441-2.97 5.441-.419 0-.647 1.342-.507 2.982.139 1.641-.09 2.771-.509 2.512-.672-.416-1.538 1.39-2.497 5.206-.166.659-1.357 2.29-2.647 3.624-3.77 3.897-5.846 6.627-5.846 7.687 0 .544-.45.989-1 .989s-.913.338-.806.75c.107.412-1.402 4.125-3.353 8.25-4.001 8.462-4.598 15.132-3.98 44.5.058 2.75-.093 8.6-.335 13-2.788 50.652-2.559 164.841.34 169.5 2.089 3.357 2.257 5 .51 5-1.136 0-1.217.428-.376 2 .767 1.433.754 2.591-.046 4.086-.614 1.147-.855 2.347-.535 2.666.32.32.581.211.581-.241 0-.452 1.086.441 2.412 1.986 2.477 2.882 3.985 7.503 2.449 7.503-.473 0-.875-.788-.893-1.75-.057-3.124-3.635-6.815-3.635-3.75 0 .825.384 1.5.853 1.5s.56 1.238.203 2.75c-.931 3.934-.577 13.25.503 13.25.373 0 .679.9.679 2s-.374 2-.832 2c-1.004 0-.152 18.524.931 20.272.419.675.802 6.628.85 13.228.094 12.869 1.282 31.046 2.19 33.5.305.825.682 2.4.838 3.5.156 1.1 1.694 8.75 3.418 17 1.724 8.25 3.381 16.35 3.683 18 .301 1.65.841 3.225 1.2 3.5.358.275.735 2.404.839 4.732.103 2.327.924 7.052 1.824 10.5.901 3.447 1.81 7.524 2.02 9.058.211 1.535.835 5.36 1.387 8.5a617.51 617.51 0 0 1 1.587 9.46c.322 2.062.924 3.75 1.339 3.75.415 0 .809 1.013.875 2.25.304 5.721 2.356 19.705 4.805 32.75.878 4.675 2 11.611 2.492 15.414.493 3.803 1.228 8.303 1.633 10 .952 3.984.823 3.324 1.765 9.086.449 2.75.969 6.575 1.154 8.5.186 1.925.809 6.313 1.384 9.75 2.888 17.243 3.726 23.764 5.558 43.25.337 3.575.837 7.279 1.112 8.231.468 1.622 5.598 1.732 81.938 1.757l81.439.027V460.008c0-183.705-.113-333.985-.25-333.956-.137.028-2.05.734-4.25 1.569" fill="#d3d3d3" fill-rule="evenodd"/></svg>