<svg xmlns="http://www.w3.org/2000/svg" width="500" height="497"><path d="M222.684 25.544c-39.083 5.325-76.807 23.237-104.047 49.403-24.762 23.787-48.546 62.843-54.819 90.02-.628 2.723-1.537 4.706-2.02 4.408-.483-.298-.569.687-.192 2.19.48 1.914.347 2.524-.445 2.034-.797-.492-.941.249-.49 2.507.455 2.273.31 3-.5 2.5-.809-.5-.955.226-.5 2.5.477 2.384.329 3.012-.579 2.451-.92-.569-1.047.166-.517 2.989.538 2.868.41 3.563-.548 2.971-.966-.597-1.119.451-.675 4.605.517 4.843.464 5.054-.535 2.124-.863-2.534-.724-5.595.627-13.827.954-5.816 1.491-10.817 1.194-11.114-.297-.298-.784.525-1.081 1.827-4.171 18.261-5.746 24.149-7.589 28.368-3.862 8.843-1.86 40.461 4.06 64.124 6.199 24.774 22.14 57.221 37.77 76.876 6.657 8.37 24.16 26.5 25.585 26.5.555 0-.517-1.575-2.383-3.5-5.304-5.473-2.521-4.109 4.835 2.369 10.264 9.038 24.135 18.247 26.591 17.652 1.141-.276 1.509-.243.818.074-1.375.63-.73 2.405.874 2.405.55 0 .722-.45.382-1-.867-1.403.119-1.248 3.64.572 1.672.865 3.658 1.336 4.413 1.046.755-.29 5.57 1.462 10.7 3.892 12.521 5.931 30.736 11.864 44.747 14.574 7.617 1.473 12.104 2.847 13.289 4.07 1.723 1.778 1.705 1.846-.5 1.845-4.009-.003-18.585-2.838-28.6-5.564-13.753-3.743-14.05-3.805-12.037-2.509 2.526 1.626 24.562 7.769 34.503 9.619 10.068 1.872 52.324 3.136 48.845 1.46-1.585-.764-1.127-.925 2.207-.775 2.314.104 4.478-.082 4.809-.413.331-.33-7.975-.358-18.457-.062-10.483.297-19.059.255-19.059-.094s1.63-1.315 3.622-2.148c3.92-1.638 6.758-2.04 4.561-.647-.805.51 1.874 1.101 6.88 1.519 8.836.737 19.477-.547 41.781-5.042 6.79-1.368 12.528-2.304 12.752-2.08.562.562-9.446 3.235-19.096 5.101-4.4.851-9.125 1.767-10.5 2.037-1.375.269.537.277 4.249.016 21.099-1.478 58.401-15.869 81.725-31.528 10.763-7.227 27.64-22.432 36.336-32.737 9.583-11.356 8.249-11.175-2.56.346-11.603 12.368-23.185 22.53-34.479 30.252-10.812 7.392-26.172 16.25-28.178 16.25-.82 0 3.436-2.836 9.458-6.303 60.991-35.11 96.712-89.987 102.576-157.581 4.117-47.474-11.894-99.122-42.25-136.285-7.788-9.534-14.096-15.814-15.2-15.132-.592.367-.663.088-.177-.699.541-.876.419-1.068-.37-.58-.706.436-1.069.197-.905-.596.151-.728-.321-1.2-1.049-1.049-.793.164-1.032-.199-.596-.905.488-.789.296-.911-.58-.37-.831.514-1.067.417-.645-.265.815-1.319-6.311-7.38-7.681-6.534-.589.365-.659.084-.174-.701.541-.876.419-1.068-.37-.58-.649.401-1.056.268-.905-.294.389-1.448-10.199-9.26-11.478-8.47-.664.411-.755.167-.247-.656.58-.939.412-1.079-.595-.494-.773.448-1.064.439-.647-.02.978-1.078-4.293-4.565-5.696-3.769-.584.332-.727.234-.318-.217 1.03-1.137-2.979-3.782-4.4-2.903-.767.473-.879.268-.334-.612.599-.97.358-1.149-.898-.666-1.008.387-1.467.255-1.112-.319.355-.574-.104-.706-1.112-.319-1.157.444-1.483.281-1-.5.48-.776.121-.966-1.086-.575-1.542.499-1.586.411-.302-.606s1.24-1.105-.302-.606c-1.207.391-1.566.201-1.086-.575.483-.781.157-.944-1-.5-1.156.443-1.482.28-1-.5.483-.781.157-.944-1-.5-1.156.443-1.482.28-1-.5.483-.781.157-.944-1-.5-1.008.387-1.467.255-1.112-.319.355-.574-.104-.706-1.112-.319-1.265.486-1.498.306-.888-.681.61-.987.377-1.167-.888-.681-.944.362-1.467.255-1.163-.237.305-.493-.459-.673-1.698-.402-1.86.408-1.99.293-.751-.659 1.213-.932 1.022-1.031-1-.521-2.004.506-2.203.407-1-.5 1.205-.909 1.033-.999-.875-.458-1.781.504-2.178.353-1.586-.605.566-.916.304-1.091-.927-.618-1.111.426-1.477.272-1.039-.438.458-.74-.052-.864-1.573-.381s-2.031.359-1.573-.381c.438-.71.072-.864-1.039-.438-1.231.473-1.493.298-.927-.618.592-.957.225-1.098-1.461-.563-1.532.486-2.032.361-1.567-.391.412-.667-.035-1.044-1.125-.949-3.615.314-5.421-.169-4.742-1.267.466-.754-.033-.88-1.566-.393-1.573.499-2.037.369-1.541-.433.499-.808-.129-.964-2.125-.526-2.292.502-2.547.396-1.334-.554 1.285-1.007 1.246-1.094-.272-.604-2.068.667-11.84-1.393-11.237-2.368.224-.364-1.032-.654-2.791-.645-1.76.009-8.278-.746-14.484-1.677-13.57-2.036-39.162-2.107-53.532-.149m22.095 151.62c-.164.492-3.444 1.382-7.289 1.979-3.844.597-8.184 1.934-9.644 2.971-1.46 1.037-3.035 1.89-3.5 1.895-.465.005-1.907 1.352-3.203 2.993-1.296 1.641-2.748 2.742-3.225 2.447-2.364-1.461-15.584 18.218-13.583 20.219.249.249-.136 2.681-.854 5.405-.719 2.723-1.109 6.859-.867 9.189.719 6.941 1.378 10.916 1.968 11.871.306.495.771 2.13 1.033 3.633.879 5.048 11.18 24.515 14.691 27.766 3.964 3.67 9.36 7.468 10.61 7.468.675 0 1.87.643 2.656 1.429 5.471 5.471 27.403 4.146 40.457-2.444C279.849 271.047 288 264.055 288 262c0-.55.45-1 1-1s1-.675 1-1.5.4-1.5.89-1.5c3.404 0 8.502-20.657 7.65-31-.497-6.024-6.51-21-8.433-21-.34 0-1.218-1.353-1.95-3.007-3.529-7.973-22.09-23.488-29.189-24.4-1.357-.174-3.593-.612-4.968-.972-4.399-1.154-8.915-1.377-9.221-.457m-7.279 9.183c-14.343 5.57-22.442 14.284-26.06 28.039-2.312 8.794-.789 27.343 2.596 31.614 1.09 1.375 2.417 3.514 2.95 4.754.896 2.087 9.405 8.921 10.173 8.17.662-.647 4.731 3.445 4.231 4.254-1.14 1.845 1.607.664 2.964-1.274 1.889-2.696 5.639-1.761 5.661 1.413.013 1.776.196 1.903.985.683.798-1.235.972-1.25.985-.083.008.779.294 1.138.634.797.341-.34 1.273.035 2.071.834 1.683 1.682 5.614 1.895 8.315.449 1.273-.681 2.082-.665 2.523.049.409.662 1.08.705 1.811.118.639-.513 2.618-1.245 4.4-1.625 3.492-.747 5.406-2.657 3.348-3.343-.697-.233 1.21-2.18 4.238-4.328 8.732-6.194 15.075-17.484 15.953-28.391.178-2.213.696-4.626 1.151-5.362.455-.736.432-1.626-.051-1.977-.943-.685-1.007-.909-2.45-8.516-.523-2.76-1.298-5.267-1.723-5.57-.424-.304-2.252-2.894-4.063-5.757-7.669-12.123-13.552-15.498-27.642-15.858-5.865-.15-11.241.226-13 .91m5.821 15.349c-1.198.234-4.934 2.985-8.301 6.114-5.52 5.131-6.2 6.206-6.922 10.94-.439 2.887-.417 5.25.051 5.25 1.143 0 1.09 3.734-.063 4.447-2.357 1.457 5.353 12.033 10.958 15.031 4.261 2.278 15.921 2.981 20.15 1.214 5.483-2.291 11.366-8.886 12.719-14.26 1.15-4.566.584-11.432-.943-11.432-1.829 0-3.97 1.291-3.97 2.394 0 .649-.842 1.244-1.872 1.321-1.622.123-1.724-.173-.763-2.208.609-1.292 1.339-2.331 1.622-2.31 5.436.419 6.302-1.571 3.024-6.947-2.122-3.48-5.389-4.314-6.416-1.637-.52 1.355-.873 1.401-2.21.292-1.437-1.193-1.385-1.486.532-3.039 2.104-1.704 2.105-1.724.112-2.357-1.106-.351-2.465-.357-3.02-.015-.555.343-1.009-.025-1.009-.818 0-2.318-6.848-3.309-13.679-1.98" fill="#d3d3d3" fill-rule="evenodd"/></svg>