<svg xmlns="http://www.w3.org/2000/svg" width="500" height="497"><path d="M117 47.071c0 .59-.675 1.747-1.5 2.572-1.333 1.333-1.5 1.293-1.5-.359 0-1.142-.771-1.917-2-2.009-1.143-.086-2 .466-2 1.287 0 .801-.996 1.473-2.25 1.517-1.237.043-1.735.29-1.106.548.629.258.914 1.347.633 2.421-.597 2.285-2.277 2.63-2.277.468 0-1.272-.509-1.241-3.559.214-4.156 1.981-5.83.668-4.731-3.712.552-2.198.453-2.319-.827-1.008-2.026 2.075-2.161 5.99-.206 5.99 1.361 0 1.341.324-.167 2.626-1.671 2.55-.971 4.303 1.74 4.359 1.143.023.895 3.015-.25 3.015-1.6 0-1.161 1.911.964 4.191 2.598 2.79 9.043.746 10.148-3.218.379-1.36.733-1.803.788-.984.061.904 1.469-.077 3.586-2.5 1.917-2.194 3.334-4.439 3.148-4.989-.604-1.788 3.987-5.479 5.248-4.218.824.824 1.118.803 1.118-.082 0-.66.627-1.2 1.393-1.2s1.64-.644 1.942-1.431c.4-1.042-.213-1.41-2.249-1.352-3.706.105-5.816-1.14-3.943-2.327 1.057-.669.97-.863-.393-.875-.963-.008-1.75.467-1.75 1.056m172.393 23.374c-2.665.912-12.339 9.005-22.48 18.805-1.565 1.513-3.304 2.75-3.864 2.75-.855 0-7.275 5.587-15.267 13.286-1.02.983-1.587 2.221-1.259 2.75.327.53-.305.964-1.405.964s-2.278.45-2.618 1c-.84 1.359 3.819 1.281 5.187-.087.783-.783 1.275-.783 1.759 0 .37.598 1.995 1.087 3.613 1.087 1.618 0 2.941.45 2.941 1s.337.926.75.836c1.623-.355 7.034 1.417 12.75 4.175 3.3 1.592 8.025 3.174 10.5 3.516 2.475.341 4.906 1.016 5.403 1.5.52.506 1.642.484 2.645-.053 1.223-.654 2.105-.495 2.96.536.67.807 1.642 1.207 2.158.887.517-.319 1.757.361 2.754 1.511.998 1.151 2.311 2.092 2.918 2.092 1.514 0 10.357 6.097 11.967 8.25.72.963 1.858 1.75 2.529 1.75 1.314 0 3.15 1.924 5.882 6.164.972 1.507 3.063 2.958 4.821 3.344 2.103.462 2.93 1.135 2.565 2.087-.298.776.061 1.405.802 1.405.738 0 2.687 1.575 4.331 3.5 1.644 1.925 3.47 3.5 4.057 3.5 1.063 0 7.208 8.411 7.208 9.867 0 .422 1.297 3.303 2.882 6.402 1.585 3.099 2.733 5.782 2.553 5.963-.371.37-1.344 5.53-2.023 10.725-.888 6.781-7.229 13.678-15.743 17.12-3.208 1.297-6.231 3.104-6.719 4.016-.487.911-1.913 1.68-3.168 1.709-1.255.028-5.207.543-8.782 1.144-3.575.601-7.175 1.139-8 1.197-.825.057-3.75.703-6.5 1.435-6.396 1.702-7.437 1.951-16.695 3.996-9.014 1.99-9.057 2.057-7.184 10.994 2.053 9.794 1.138 11.295-1.482 2.432-3.034-10.261-3.851-12-5.638-12-3.031 0-19.966 9.289-24.35 13.356-9.001 8.351-11.511 11.452-21.952 27.128-10.346 15.535-12.605 20.206-17.901 37.016-.867 2.75-2.413 6.073-3.437 7.385-1.023 1.312-1.861 2.985-1.861 3.719 0 .735-.894 2.927-1.987 4.873-1.093 1.946-3.598 8.597-5.566 14.78-1.969 6.184-4.016 12.05-4.549 13.036-.533.986-1.213 3.686-1.511 6-1.098 8.524-4.097 18.707-5.508 18.707-.532 0-.894-.562-.804-1.25.434-3.347-.341-4.777-3.325-6.133-5.8-2.636-16.376-6.617-17.578-6.617-.645 0-1.172-.473-1.172-1.051 0-1.061-5.711-3.816-9.372-4.521-1.089-.209-2.345-.954-2.789-1.655-.629-.991-.812-.957-.824.151-.01 1.005-.725.757-2.426-.841-1.548-1.454-4.05-2.418-6.984-2.692-3.38-.316-5.376-1.212-7.647-3.432-1.691-1.653-3.568-2.7-4.171-2.328-.658.407-.811.217-.382-.476.454-.737-.067-1.155-1.44-1.155-1.285 0-2.356-.777-2.657-1.929-.464-1.777-6.986-3.929-9.716-3.206-.5.132-1.194-.222-1.544-.787-.349-.565-1.616-1.177-2.816-1.36-1.199-.183-2.478-.63-2.841-.993-.775-.776-7.391 7.597-7.391 9.355 0 .66-.687 1.702-1.526 2.315-1.934 1.415-9.347 14.982-9.892 18.105-.096.55-1.341 2.824-2.767 5.053-1.425 2.23-4.2 7.247-6.165 11.15-1.966 3.903-4.731 8.801-6.145 10.885-2.53 3.728-2.541 3.821-.665 5.696 1.115 1.115 3.412 1.949 5.533 2.01 1.995.056 3.627.607 3.627 1.224 0 1.56 6.56 6.758 10.17 8.058 1.643.592 4.189 2.038 5.659 3.215 5.792 4.637 18.361 12.52 20.196 12.667.288.023 1.188.608 2 1.299C118.294 424.1 127.323 431 128.044 431c.483 0 1.77.958 2.861 2.128 1.091 1.171 2.632 1.88 3.426 1.575.815-.313 2.796.77 4.556 2.491 1.712 1.674 3.113 2.723 3.113 2.332 0-.392 2.2 1.13 4.889 3.381S152.476 447 153.33 447c.853 0 1.83.45 2.17 1 .34.55 1.661 1 2.937 1 1.275 0 2.878.675 3.563 1.5s1.703 1.5 2.263 1.5c.56 0 2.867.843 5.127 1.874 13.655 6.226 28.662 7.349 38.61 2.889 3.025-1.356 6.672-2.75 8.105-3.097 3.132-.759 13.703-11.249 14.527-14.416.679-2.611.464-2.544 3.925-1.229 3.017 1.148 5.418-.121 5.479-2.893.05-2.246 4.952-8.178 4.959-6 .003.895-.67 2.187-1.495 2.872-3.474 2.883-1.284 8.594 3.648 9.515 1.294.241 3.927 1.059 5.852 1.817 10.001 3.938 20.344 7.007 27.5 8.158 4.4.708 10.358 1.775 13.24 2.371 2.883.596 5.926.821 6.763.499.837-.321 2.079-.191 2.76.289.68.48 10.462.84 21.737.8 24.694-.087 31.155-1.355 37.701-7.4 2.66-2.455 4.477-3.471 5.099-2.849.92.92 5.2-2.602 5.2-4.28 0-.387 1.815-1.429 4.033-2.317 2.219-.887 4.322-2.399 4.674-3.358.815-2.219 9.048-13.074 12.03-15.86 1.245-1.163 2.263-2.824 2.263-3.691s.398-1.822.884-2.122c.486-.301 1.794-2.465 2.906-4.809 1.112-2.345 4.314-7.105 7.116-10.579 2.802-3.474 5.094-6.921 5.094-7.66 0-.74 1.705-3.522 3.789-6.184 4.088-5.223 7.758-11.259 11.904-19.579 1.441-2.894 2.888-5.486 3.214-5.761.497-.419 5.611-9.92 10.765-20 4.137-8.091 8.328-17.264 8.328-18.226 0-.614.603-1.827 1.339-2.695.737-.869 2.579-5.404 4.093-10.079 1.515-4.675 3.362-9.625 4.106-11 7.035-13 10.662-26.916 10.82-41.517.164-15.063-1.134-19.468-7.561-25.665-5.804-5.596-22.935-9.28-26.513-5.702-.614.614-2.166 1.642-3.45 2.284-1.827.915-2.353 2.031-2.424 5.135-.142 6.304-.33 7.242-1.736 8.648-.729.729-1.638 2.888-2.02 4.797-.631 3.156-2.215 6.031-7.923 14.382-1.076 1.574-2.018 3.936-2.094 5.249-.075 1.313-.474 2.388-.887 2.388-.413.001-.75.619-.75 1.374 0 .755-1.568 2.712-3.484 4.349-1.917 1.637-3.267 3.269-3 3.627.266.358.196.438-.157.177-.642-.475-6.313 5.424-6.343 6.598-.009.344-1.632 2.369-3.607 4.5-1.975 2.132-4.978 5.901-6.674 8.376-1.695 2.475-4.198 5.4-5.562 6.5-1.364 1.1-3.424 3.032-4.577 4.292-7.085 7.749-15.997 15.741-25.524 22.89-3.064 2.3-5.628 4.662-5.697 5.25a81.038 81.038 0 0 1-.25 1.919c-.069.467-2.6 2.825-5.625 5.239-3.025 2.414-5.5 4.967-5.5 5.674 0 .707-1.012 1.683-2.25 2.169-1.238.487-3.033 1.825-3.99 2.976-.957 1.15-2.35 2.091-3.095 2.091-.745 0-2.17.9-3.165 2-.995 1.1-2.35 2-3.009 2-.659 0-2.437 1.148-3.951 2.551-1.514 1.402-4.617 3.283-6.896 4.178-2.279.896-4.443 2.114-4.808 2.708-.831 1.35-23.059 1.198-27.345-.187-1.655-.535-3.966-.618-5.135-.186-2.052.759-8.356 11.77-8.356 14.596 0 .737-.433 1.34-.961 1.34-.529 0-1.429 1.688-2 3.75-1.44 5.201-3.271 7.763-2.681 3.75.243-1.65.908-4.191 1.478-5.647.57-1.456.823-2.86.563-3.121-.261-.26 1.231-3.72 3.314-7.688 8.213-15.646 9.1-17.597 10.332-22.73.701-2.923 1.653-5.314 2.115-5.314.462 0 .73-.337.594-.75-.41-1.253 7.449-18.522 10.057-22.1 2.166-2.97 2.322-3.764 1.374-7-.588-2.007-1.602-7.25-2.253-11.65-1.181-7.978-3.762-18.54-5.803-23.746-.592-1.51-1.99-6.416-3.106-10.902-1.117-4.486-2.51-8.734-3.096-9.44-.74-.891-.749-1.875-.032-3.217.569-1.062.75-2.216.403-2.564-.347-.347.119-.631 1.035-.631.917 0 1.667-.367 1.667-.817 0-.449 4.178-1.603 9.284-2.565 5.106-.962 11.81-2.775 14.898-4.03 3.705-1.506 6.147-1.983 7.181-1.405.939.526 2.283.463 3.352-.156 2.916-1.688 44.657-10.465 55.285-11.625.825-.09 5.325-1.097 10-2.236 16.078-3.92 18.523-4.351 26.776-4.715 4.552-.201 8.808-.694 9.458-1.096.65-.401 2.319-.851 3.709-.999 1.391-.149 2.689-.752 2.885-1.341.219-.655 1.68-.823 3.765-.432 2.216.416 3.407.251 3.407-.472 0-.611-.536-1.111-1.191-1.111-.7 0-.529-.515.415-1.25 2.507-1.951 4.212-12.454 5.317-32.75.255-4.675.652-9.007.882-9.627.231-.62-.028-3.095-.576-5.5-.548-2.405-1.39-7.298-1.872-10.873-2.083-15.457-3.236-18.541-7.979-21.343-1.79-1.057-2.608-2.33-2.488-3.867.124-1.571-.476-2.461-1.912-2.835-1.349-.351-2.272-1.594-2.6-3.5-.366-2.122-1.152-3.046-2.791-3.28-1.254-.178-2.822-1.191-3.484-2.25-.661-1.059-1.597-1.925-2.08-1.925-.482 0-2.415-1.35-4.294-3-1.879-1.65-4.076-3-4.882-3s-1.465-.585-1.465-1.301c0-.715-2.054-2.598-4.564-4.185-2.51-1.587-5.449-4.128-6.532-5.648-1.14-1.602-5.544-4.503-10.478-6.902-4.681-2.276-9.683-5.224-11.115-6.551-1.432-1.327-3.4-2.413-4.375-2.413-.974 0-4.012-1.125-6.749-2.5-2.738-1.375-5.742-2.5-6.676-2.5-.934 0-1.915-.828-2.18-1.841-.516-1.975-5.945-4.724-10.831-5.483-5.656-.88-9.002-1.946-10.684-3.405-.926-.804-2.951-1.606-4.5-1.783-1.549-.176-4.483-.757-6.521-1.289-2.638-.689-3.84-.641-4.174.166-.337.816-.716.786-1.35-.108-1.152-1.626-14.787-2.213-18.878-.812M216.5 115.768c-3.3.711-7.35 1.782-9 2.381-1.65.599-5.694 1.69-8.986 2.425-3.292.734-7.567 1.978-9.5 2.764-1.933.786-6.439 1.971-10.014 2.634-3.575.663-6.95 1.522-7.5 1.908-.55.387-2.8 1.298-5 2.025-5.24 1.732-14.405 5.773-22.5 9.92-3.575 1.832-8.525 4.01-11 4.84-2.475.83-6.075 2.53-8 3.778-1.925 1.247-5.726 3.529-8.446 5.07-2.72 1.54-7.503 5.43-10.628 8.644-3.125 3.214-6.187 5.843-6.804 5.843S98 168.637 98 169.417c0 .779-.337 1.566-.75 1.75-.914.406-4.268 5.334-6.183 9.083-.773 1.512-1.728 2.75-2.123 2.75-2.777 0-8.511 22.715-7.951 31.5.175 2.75.261 5.9.19 7-1.653 25.905-.763 31.755 5.359 35.23 2.177 1.235 4.44 2.072 5.03 1.858.589-.214 1.606.467 2.258 1.512.653 1.045 2.005 1.9 3.004 1.9 1 0 2.852 1.102 4.117 2.448 1.265 1.347 3.563 2.726 5.105 3.064 1.543.339 3.342 1.263 3.997 2.052.656.79 1.67 1.436 2.255 1.436s2.08.955 3.322 2.122c2.218 2.084 8.213 2.051 6.922-.038-.291-.471.303-1.074 1.321-1.341 1.018-.266 2.504-1.779 3.303-3.363 8.557-16.979 22.053-41.38 22.886-41.38.41 0 2.428-3.249 4.482-7.219 5.589-10.799 7.474-14.075 9.37-16.281.945-1.1 3.246-4.588 5.113-7.75 1.868-3.162 3.75-5.75 4.184-5.75.434 0 .789-.595.789-1.322 0-.727 1.337-3.089 2.972-5.25 1.635-2.16 2.985-4.162 3-4.448.015-.287 2.95-3.662 6.522-7.5 3.572-3.839 6.497-7.542 6.5-8.23.003-.687.456-1.25 1.006-1.25s1-.474 1-1.053c0-2.942 14.401-21.862 17.546-23.051 1.31-.496 8.454-9.864 8.454-11.087 0-.497 1.912-2.842 4.25-5.212 6.943-7.038 4.481-8.678-8.75-5.829m-170.141.738c-.315.822-1.128 1.494-1.805 1.494-.678 0-1.742 1.116-2.363 2.48-.653 1.433-1.698 2.263-2.474 1.965-2.022-.776-4.839 2.76-3.647 4.578.835 1.274 1.158 1.229 2.348-.326.951-1.242 1.508-1.419 1.791-.57.419 1.257 1.95.848 4.993-1.335 2.066-1.482 2.837-.844 3.099 2.565.109 1.424.649 2.502 1.199 2.396.55-.107.873-.746.718-1.421-.384-1.673 3.437-3.699 4.31-2.286 1.146 1.853 3.66-1.159 3.038-3.639-.332-1.325-.052-2.448.686-2.745.694-.281.41-.539-.642-.583-1.039-.043-2.538-.866-3.331-1.829-1.374-1.667-1.416-1.667-.892 0 .303.963.114 1.75-.418 1.75-.533 0-.969-.378-.969-.839 0-1.783-5.026-3.257-5.641-1.655m-28.584 6.708c-.925 2.654-3.775 3.958-3.775 1.727 0-.582-.481-.762-1.069-.398-.588.363-.935 2.523-.77 4.799.238 3.296-.059 4.207-1.457 4.477-.982.189-1.635-.193-1.48-.866.152-.661-.286-1.409-.974-1.661-.747-.274-1.25.38-1.25 1.625 0 1.287.669 2.113 1.75 2.162 1.045.047 1.247.282.5.583-.687.278-1.25.917-1.25 1.421 0 1.557 2.433.525 3.734-1.583 1.114-1.805 1.215-1.659 1.039 1.5-.107 1.925-.754 3.95-1.438 4.5-.982.79-.937 1.408.211 2.941 1.385 1.849 1.458 1.801 1.544-1l.09-2.941.939 3.25c1.076 3.726 2.578 4.336 2.46 1-.054-1.555.461-2.207 1.671-2.111 1.133.09 1.75-.571 1.75-1.873 0-1.674-.251-1.802-1.5-.766-1.036.86-1.5.898-1.5.122 0-.617.41-1.122.912-1.122 1.174 0 .642-5.026-.621-5.864-1.19-.789.355-7.136 1.738-7.136.534 0 .971.469.971 1.042 0 .573.844 1.947 1.875 3.054 1.735 1.862 1.996 1.89 3.509.377.899-.899 1.379-2.048 1.066-2.554-.312-.505-.106-.919.46-.919.565 0 .773-.663.461-1.474-.49-1.278-.777-1.263-2.154.114-1.451 1.451-1.656 1.406-2.371-.527-.43-1.163-.561-2.693-.289-3.4.307-.801-.318-1.284-1.659-1.284-1.455 0-2.466.902-3.123 2.785M43.077 135.5a307.305 307.305 0 0 0-2.322 5.5c-.747 1.836-1.155 2.102-1.536 1-.508-1.469-2.149-2.954-3.297-2.985-.318-.008-.605 2.01-.638 4.485-.056 4.128.142 4.5 2.395 4.5 1.992 0 2.337.374 1.827 1.98-.345 1.089-.202 2.741.319 3.671.822 1.469 1.152 1.294 2.509-1.331 1.173-2.267 1.278-3.308.42-4.166-.857-.857-.595-1.654 1.052-3.187C46.125 142.805 46.669 141 45 141c-.55 0-1-.675-1-1.5 0-.944.952-1.5 2.567-1.5 2.113 0 2.455.355 1.933 2-.349 1.1-.203 2 .326 2 1.417 0 2.473-3.4 1.189-3.828-.777-.259-.752-.783.086-1.793 1.759-2.12.201-2.962-1.924-1.04-2.421 2.192-2.964 2.098-3.416-.589-.354-2.103-.463-2.055-1.684.75M9.374 177.25c.363 1.128.041 1.75-.905 1.75-.808 0-1.469.886-1.469 1.969 0 1.283-.491 1.78-1.41 1.427-.849-.326-1.673.289-2.072 1.546-.364 1.148-1.053 1.845-1.531 1.55-.779-.481-.187 6.441.633 7.403.185.218.684-.457 1.109-1.5C4.674 189.073 7 188.437 7 190.5c0 .825-.45 1.5-1 1.5s-1 .661-1 1.469c0 .857-.591 1.242-1.418.924-1.132-.434-1.486.992-1.75 7.045-.259 5.923-.046 7.479.97 7.087.716-.276 1.027-.057.691.486-.336.544-.134.989.448.989.582 0 1.059-.477 1.059-1.059s.462-.774 1.027-.425c.564.349.961 1.163.881 1.809-.534 4.329 1.105 4.83 3.557 1.088 1.988-3.033 1.038-4.821-1.047-1.97-1.056 1.444-1.418 1.559-1.418.448 0-.82.563-2.087 1.25-2.816 1-1.06.999-1.417-.006-1.785-1.389-.509-.709-2.29.874-2.29.55 0 .762.385.471.856-.291.47.583.643 1.941.383 1.359-.26 2.507-.082 2.553.394.046.477.197 1.899.336 3.161.173 1.566-.171 2.132-1.083 1.781-.735-.282-1.336-.149-1.336.296 0 1.178 4.981 3.259 6.119 2.556.533-.33 1.624-.055 2.425.609 1.221 1.014 1.456.715 1.456-1.846 0-2.254.567-3.235 2.163-3.742 1.916-.608 1.973-.792.5-1.617-.915-.512-1.663-1.76-1.663-2.774 0-2.097-2.87-3.587-4.252-2.205-2.524 2.524-5.736-.776-3.748-3.852.804-1.244.975-1.159 1 .5.025 1.659.196 1.744 1 .5.646-1 .974-1.083.985-.25.021 1.766 1.36 1.552 3.862-.617 2.49-2.16 2.831-3.607.653-2.771-.93.356-1.5-.005-1.5-.952 0-.841-.45-1.25-1-.91-.55.34-1-.309-1-1.441 0-1.164.652-2.059 1.5-2.059 2.117 0 1.877-1.985-.25-2.07-1.539-.062-1.556-.152-.137-.75.945-.399 1.359-1.301 1-2.18-.836-2.046-3.113-2.368-3.113-.441 0 .857-.419 1.3-.931.984-.512-.317-1.213-.118-1.559.441-1.391 2.25-2.315.822-1.44-2.227 1.251-4.362 1.274-4.279-1.57-5.575-1.928-.878-2.504-.858-2.515.089-.01.809-.384.716-1.095-.271-.91-1.266-.991-1.227-.516.25m-4.482 54.941c-.059 1.27-.114 3.659-.121 5.309-.006 1.65-.367 3.226-.8 3.502-.433.277-1.104 2.302-1.491 4.5-.664 3.77-.614 3.884.876 1.998 1.103-1.395 1.59-1.572 1.612-.583.018.779.328 1.12.69.758.362-.362 1.262-.156 2 .456 1.029.854 1.342.735 1.342-.509 0-.892.45-1.622 1-1.622s1.052-1.238 1.116-2.75c.072-1.715.289-2.087.576-.988.253.969.878 1.503 1.391 1.187 1.504-.93 2.255 2.438.906 4.064-.678.818-2.079 1.487-3.111 1.487-2.197 0-2.229.136-.768 3.343 1.623 3.561 5.59 5.179 6.404 2.611.342-1.074 1.038-1.954 1.547-1.954 1.29 0 .509-4.31-.863-4.767-.703-.235-.915-1.837-.57-4.303.545-3.898-1.667-5.898-2.966-2.68-.301.747-.536.545-.583-.5-.043-.963.821-2.65 1.921-3.75 2.015-2.015 2.799-4.612 1.069-3.543-.512.317-1.203.135-1.536-.404-.345-.559-1.479-.107-2.636 1.05-1.43 1.43-1.732 2.391-1.021 3.247.633.763.663 1.764.082 2.684-.51.806-.937 1.016-.948.466-.011-.55-1.127.35-2.479 2-1.817 2.217-2.468 2.558-2.495 1.309-.02-.93.414-1.969.964-2.309.55-.34 1-1.743 1-3.118 0-1.412.435-2.231 1-1.882.558.345.993-.403.985-1.691-.013-1.858-.205-2.016-.985-.809-.788 1.219-.972 1.09-.985-.691-.021-2.979-1.988-4.015-2.123-1.118" fill="#d3d3d3" fill-rule="evenodd"/></svg>