<svg xmlns="http://www.w3.org/2000/svg" width="500" height="604"><path d="M0 302v302l122.25-.1c67.238-.055 121.245-.392 120.018-.75-2.224-.647-2.217-.682 1.67-8.65 2.147-4.4 6.236-13.175 9.087-19.5 2.852-6.325 5.736-12.175 6.41-13 1.269-1.553 4.346-9.312 5.003-12.616.206-1.036.673-3.054 1.039-4.483 1.115-4.363-5.094-5.86-11.977-2.889-1.65.713-5.465 1.256-8.478 1.208-3.012-.048-6.084.417-6.826 1.032-1.007.836-1.551.792-2.147-.173-.618-1-.969-1.018-1.549-.079-.58.939-.931.921-1.549-.079-.652-1.055-1.088-1.052-2.375.016-.867.719-1.576.876-1.576.347 0-.528-1.597-1.02-3.549-1.093-1.952-.074-3.977-.398-4.5-.721-.523-.324-.951-.155-.951.375 0 .564-2.284.746-5.514.44-4.99-.474-5.45-.354-4.83 1.26.455 1.186.309 1.551-.436 1.091-1.313-.812-2.706 5.201-1.859 8.027.302 1.01.226 3.354-.17 5.209l-.72 3.371-9.736-9.688c-5.354-5.328-9.735-9.908-9.735-10.176 0-.269-.934-2.54-2.077-5.047-1.142-2.507-2.551-7.095-3.132-10.195-.581-3.1-1.755-8.112-2.61-11.137-.854-3.025-1.641-6.4-1.748-7.5-1.212-12.444-1.783-16.345-2.968-20.283l-1.387-4.609 6.685-6.804c3.677-3.742 7.415-6.804 8.306-6.804 1.749 0 4.931-3.016 4.931-4.674 0-.559.9-1.831 2-2.826 1.1-.995 2-2.649 2-3.675 0-2.524 4.495-9.484 6.985-10.817 1.108-.593 2.015-1.625 2.015-2.293 0-.668 1.575-2.472 3.5-4.008s3.5-3.7 3.5-4.809.419-1.757.931-1.441c.512.317 1.181.171 1.487-.325.306-.495-.788-1.457-2.431-2.137-2.956-1.225-4.378-3.743-1.487-2.633.825.316 1.5.214 1.5-.227s.675-.802 1.5-.802 1.5.375 1.5.834c0 .458.477.833 1.059.833s.781-.45.441-1-.21-1 .288-1c1.408 0 5.212-3.596 5.212-4.926 0-.656.403-.943.895-.639.837.517 2.324-1.767 2.519-3.867.047-.513 3.011-3.342 6.586-6.288 3.575-2.945 8.49-7.138 10.922-9.318 2.432-2.179 5.432-3.962 6.666-3.962 1.235 0 2.395-.382 2.579-.848 1.262-3.212 23.807-10.473 29.73-9.574 8.165 1.238 7.815-.976 4.167 26.422-.55 4.125-1.249 10.875-1.555 15-1.006 13.563-2.051 23.383-2.973 27.939-.272 1.341.137 3.703.907 5.248 1.268 2.542 1.22 2.936-.514 4.15-1.054.739-1.746 1.527-1.538 1.753.688.746-1.4 13.297-2.305 13.859-.488.303-1.136 5.051-1.439 10.551-.302 5.5-.609 10-.68 10-.071 0-.281 1.125-.466 2.5-1.918 14.234-3.958 22-5.779 22-.462 0-.608.375-.325.833.283.458-.565 2.421-1.884 4.362-1.533 2.257-2.192 4.316-1.828 5.71.554 2.115.975 2.176 14.193 2.029 9.838-.11 14.537-.575 16.915-1.677 3.1-1.436 3.426-1.4 5.574.618 1.255 1.179 2.537 1.888 2.849 1.576.312-.313.436 1.521.275 4.073-.203 3.237-.959 5.264-2.498 6.697-1.213 1.13-2.76 3.373-3.438 4.985-.677 1.611-1.634 2.873-2.127 2.802-.492-.07-1.415 1.812-2.052 4.182-1.354 5.044-7.109 15.81-8.451 15.81-.509 0-.925.58-.925 1.289 0 .708-.9 3.053-2 5.211-1.1 2.158-2 4.979-2 6.27 0 1.292-.395 2.104-.878 1.805-.483-.298-1.136.746-1.451 2.321-.315 1.574-1.304 3.594-2.198 4.488-1.499 1.5 6.981 1.605 110.201 1.37L500.5 603.5l.252-301.75L501.003 0l-2.751.136c-2.358.117-2.43.198-.502.57 1.238.238 2.25.904 2.25 1.48 0 .598-.965.789-2.25.444-1.238-.331-3.15-.64-4.25-.687l-2-.084 2-.859C494.623.517 386.858.11 247.75.07L0 0v302m.493.5c0 166.1.116 233.901.257 150.669.141-83.232.141-219.132 0-302S.493 136.4.493 302.5M191.378 4.14c.362 1.808 2.392 6.904 4.512 11.324 4.806 10.022 6.423 14.974 5.667 17.358-.849 2.673-9.248 11.178-11.04 11.178-.834 0-1.517.45-1.517 1s-.852 1-1.893 1-2.114.576-2.384 1.28c-.27.704-2.231 2.167-4.357 3.25-2.126 1.084-4.091 2.195-4.366 2.47-1.158 1.158-6.971 5-7.565 5-1.332 0-6.863 5.284-7.18 6.86-.718 3.569-.449 6.575.62 6.932.619.206 1.133.9 1.143 1.541.021 1.333 4.833 8.661 7.32 11.148.914.914 1.662 2.252 1.662 2.974 0 .721.879 1.542 1.954 1.823 1.628.425 1.858 1.107 1.376 4.075-.471 2.901-.084 4.151 2.082 6.724 1.463 1.739 3.187 5.133 3.831 7.542 1.245 4.654 2.614 5.381 5.223 2.772.96-.96 2.601-1.42 4.066-1.14 1.381.264 2.949-.126 3.584-.891.621-.748 1.535-1.36 2.031-1.36.496 0 3.752-1.8 7.236-4 3.483-2.2 6.669-4 7.08-4 .411 0 2.747-1.35 5.192-3 2.445-1.65 4.674-3 4.953-3 .279 0 4.803-2.7 10.054-6 5.25-3.3 9.949-6 10.442-6 .493 0 .896-.45.896-1s.338-.911.75-.802c1.278.338 5.25-1.288 5.25-2.149 0-.877 3.799-2.34 5.587-2.151 1.672.177 3.61-4.644 2.111-5.253-.659-.268-.411-.523.552-.566.962-.043 1.784-.417 1.827-.829.042-.412.244-1.65.449-2.75.206-1.1.635-3.919.954-6.264.319-2.345 1.016-5.411 1.55-6.815 1.271-3.343 1.252-7.713-.03-6.921-.55.34-1-.114-1-1.008 0-1.148-.564-1.448-1.915-1.019-2.051.651-5.082-2.594-5.088-5.446-.002-.84-1.808-4.227-4.013-7.527-2.206-3.3-4.472-7.687-5.036-9.75-.564-2.063-1.458-3.75-1.987-3.75-.528 0-.961-.475-.961-1.055 0-1.636-3.728-9.164-5.916-11.945l-1.967-2.5-21.198-.324L190.72.852l.658 3.288M305.873 70.7c-1.855 1.953-5.848 5.152-8.873 7.111-3.025 1.958-6.019 4.076-6.653 4.706-.635.631-3.672 2.421-6.75 3.978-3.078 1.558-5.597 3.208-5.597 3.669 0 .46-.689.836-1.531.836-.843 0-1.768.615-2.056 1.366-.668 1.74-19.719 11.134-22.581 11.134-1.575 0-3.471 4.093-5.328 11.5-1.016 4.054-4.185 8.16-8.876 11.5-3.089 2.2-5.62 4.323-5.623 4.719-.003.395-.754.431-1.669.08-1.208-.464-1.44-.276-.846.686.513.829.43 1.084-.222.681-.573-.354-1.593.021-2.268.834-.675.813-1.676 1.2-2.225.861-.549-.34-1.286-.194-1.637.324s-3.563 1.994-7.138 3.279c-3.575 1.286-7.963 3.207-9.75 4.269-1.787 1.061-3.25 1.651-3.25 1.31 0-.342-.985.296-2.188 1.417-1.203 1.121-3.453 2.599-5 3.283-1.547.685-2.812 1.529-2.812 1.876 0 .553-5.08 1.929-6.558 1.776-.301-.031-1.543.596-2.759 1.393-1.217.798-3.766 1.791-5.665 2.208-1.899.417-4.142 1.122-4.985 1.566-.843.444-3.896 1.817-6.783 3.051-2.887 1.234-5.25 2.551-5.25 2.927 0 .375-1.108.471-2.462.212-2.454-.469-5.538 1.57-5.538 3.662 0 1.377 6.162 11.479 7.287 11.945.875.362 9.713 13.721 9.713 14.681 0 .285 1.714 2.688 3.81 5.339 2.095 2.651 4.908 7.355 6.25 10.453 1.342 3.099 2.988 5.642 3.659 5.651.67.009.991.609.714 1.332-.278.723.601 2.509 1.953 3.968 2.928 3.159 3.9 5.807 2.998 8.16-.498 1.297-.856 1.411-1.443.461-.754-1.22-3.941-2.226-3.941-1.244 0 .911 2.857 3.34 3.929 3.34.589 0 1.071.623 1.071 1.383 0 .761.878 1.613 1.951 1.894 1.559.408 1.92 1.308 1.793 4.481-.103 2.58.44 4.568 1.549 5.678.939.939 1.714 2.237 1.722 2.885.009.688.413.554.97-.321.75-1.178 1.096-.802 1.61 1.75.36 1.787 1.086 3.25 1.613 3.25.527 0 .773.558.545 1.241-.228.683.173 1.828.89 2.545.717.717 1.817 3.196 2.444 5.509.628 2.313 1.396 4.88 1.706 5.705 1.192 3.164.856 4.858-1.063 5.36-1.37.359-1.79 1.042-1.349 2.192.456 1.186.225 1.511-.797 1.119-1.72-.661-4.03 1.798-3.101 3.302.36.583 1.023.832 1.473.554 1.208-.746 2.684 1.662 2.496 4.073-.091 1.154-1.3 4.529-2.689 7.5-1.388 2.97-2.85 6.525-3.248 7.9-.398 1.375-1.282 3.4-1.965 4.5-2.123 3.421-2.413 7.32-.657 8.844 2.323 2.016 14.506 6.656 17.478 6.656 1.391 0 2.895.654 3.343 1.453.447.799 2.494 1.566 4.549 1.704 2.055.139 3.737.547 3.737.909 0 .361 1.119.443 2.488.181 1.7-.325 2.688.047 3.121 1.176 1.077 2.806 6.189 4.676 14.062 5.143 4.147.246 7.908.674 8.356.951.834.515 3.968-4.937 3.979-6.921.004-.603.676-2.38 1.495-3.95.819-1.57 1.239-3.257.935-3.75-.305-.493-.077-.896.505-.896s1.059-1.294 1.059-2.875 2.025-7.238 4.5-12.571c2.475-5.332 4.5-10.537 4.5-11.566 0-1.028.45-2.148 1-2.488.55-.34 1-1.506 1-2.59 0-1.085.655-2.224 1.455-2.531.8-.307 2.156-2.97 3.013-5.918 2.261-7.777 5.107-8.569 5.981-1.664.219 1.731.634 3.529.922 3.995.289.466.748 1.942 1.022 3.278 2.554 12.478 6.91 27.109 8.221 27.612.641.246.958 1.237.706 2.202-.252.966.247 2.342 1.11 3.058.864.717 1.573 2.71 1.576 4.43.004 1.721.679 4.417 1.5 5.992.822 1.576 1.509 3.601 1.528 4.5.054 2.61 3.632 9.485 4.34 8.34.353-.572 3.451-2.957 6.884-5.3 7.216-4.926 8.742-6.312 8.742-7.94 0-.654.69-.913 1.552-.582.854.327 1.323.225 1.044-.227-.279-.452.088-.822.817-.822 1.247 0 7.196-4.373 12.016-8.833 2.349-2.173 2.968-2.5 4.738-2.5.641 0 .879-.288.527-.639-.351-.352 1.13-1.515 3.293-2.585 2.162-1.069 4.207-2.813 4.544-3.875.338-1.065 1.103-1.627 1.707-1.254.601.371 2.195-.634 3.541-2.236 1.347-1.601 2.217-2.204 1.935-1.339-.293.894.321 2.093 1.422 2.781 1.826 1.14 3.615 4.542 4.383 8.332.188.927.767 2.502 1.288 3.5.95 1.821 7.254 19.94 7.59 21.815.689 3.846 5.274 16.141 6.249 16.756.658.415 2.014 3.115 3.013 6 1.828 5.277 2.011 5.996 2.229 8.744.24 3.014 4.134 8.225 5.402 7.227 2.176-1.711 6.509-2.311 7.048-.975.277.686.547.348.598-.752.073-1.545.294-1.685.972-.615.703 1.111 1.097.975 1.986-.688.61-1.14 1.896-2.019 2.858-1.954 2.258.154 9.248-3.184 9.248-4.416 0-.52.446-.669.992-.332.545.337 2.14-.537 3.545-1.941 1.405-1.405 2.816-2.554 3.136-2.554 1.625 0 13.603-6.556 14.035-7.683.276-.718.904-1.057 1.397-.752.492.304.895-.163.895-1.038 0-1.735 3.745-3.551 5.75-2.789.688.262 1.25.027 1.25-.523 0-.549 1.122-1.28 2.494-1.624 1.372-.344 2.444-.956 2.382-1.359-.421-2.735.229-4.396 1.374-3.515 3.067 2.359 13.75-2.563 13.75-6.336 0-.759.45-1.381 1-1.381 1.294 0 1.265-6.776-.065-14.971-.854-5.262-.791-6.664.334-7.5 1.677-1.247 1.993-9.069 1.493-37.029-.049-2.75.271-7.211.712-9.913.674-4.126.521-5.118-.957-6.198-1.38-1.009-1.611-2.073-1.074-4.938.488-2.599.258-4.127-.796-5.301-.815-.908-1.991-4.474-2.613-7.925-1.587-8.803-4.752-13.901-8.284-13.343-.413.065-.75-.312-.75-.837 0-.526-2.812.072-6.25 1.328-4.762 1.741-7.202 2.108-10.25 1.544-3.926-.726-28.528 2.342-30.909 3.854-.6.382-3.566.726-6.591.767-7.739.102-20.216 1.553-22 2.557-1.237.696-1.174.85.357.875 1.25.02 1.665.53 1.27 1.559-.419 1.092.232 1.693 2.279 2.102 2.595.519 5.361 3.919 5.588 6.869.13 1.682 2.953 7.5 3.64 7.5.355 0 1.243 2.025 1.974 4.5.731 2.475 1.707 4.5 2.169 4.5.463 0 .585.414.273.919-.313.506.034 1.523.771 2.259.737.737 1.154 1.898.926 2.581-.228.683-.023 1.241.454 1.241.477 0 1.691 1.394 2.698 3.099l1.831 3.098-3.177 2.902c-1.747 1.595-3.817 2.901-4.599 2.901-.783 0-4.018 1.331-7.189 2.957-3.171 1.627-5.916 2.524-6.1 1.994-.185-.53-.859-.64-1.499-.244-.64.395-2.064.735-3.165.756-1.291.024-2.003.717-2.005 1.955-.003 1.055-.565 2.105-1.25 2.333-.685.229-1.246-.098-1.246-.727 0-.628-.481-.845-1.068-.482-.588.363-.82 1.307-.517 2.097.314.817-.196 1.715-1.182 2.081-.953.355-3.035 1.575-4.626 2.712-2.119 1.514-3.013 1.729-3.34.8-.245-.697-1.008-1.83-1.696-2.518-.687-.687-1.511-1.917-1.831-2.732-.42-1.068-.606-.924-.668.518-.122 2.873-4.056-3.175-4.065-6.25-.004-1.238-.569-2.257-1.257-2.265-.973-.012-.966-.196.034-.83 1.451-.921.803-3.321-1.933-7.155-.981-1.375-2.029-3.957-2.329-5.737-.806-4.78-8.469-18.998-11.206-20.791-2.462-1.614-9.316-1.143-9.316.639 0 1.396-2.996 1.039-3.033-.361-.019-.706-.78-.358-1.75.801-2.204 2.634-19.891 8.675-26.217 8.956-3.861.171-10 2.746-10 4.194 0 1.754-1.518 1.638-3.419-.263-1.383-1.382-1.88-1.395-4.322-.107-5.297 2.794-17.209 6.818-18.261 6.168-1.337-.827-.295-6.945 1.874-10.999.883-1.65 1.619-3.451 1.636-4.001.017-.551.809-2.114 1.761-3.473.952-1.359 1.731-2.877 1.731-3.373 0-1.207 5.247-13.018 6.066-13.653.973-.755 3.374-8.323 3.093-9.75-.277-1.402 2.487-1.743 3.008-.372.183.483 3.792 1.159 8.02 1.501 4.228.343 8.728 1.013 10 1.49 1.272.476 5.252 1.176 8.845 1.555 3.593.379 7.115 1.049 7.829 1.49 3.524 2.178 7.374-.32 11.043-7.167 1.978-3.69 6.402-10.768 9.831-15.728 3.429-4.961 5.792-9.019 5.25-9.019-.542 0-.985-.702-.985-1.559s-.417-1.301-.926-.987c-.909.562-11.608-2.977-13.574-4.489-.55-.423-3.025-1.304-5.5-1.957s-5.4-1.993-6.5-2.978c-1.1-.985-4.025-2.755-6.5-3.933-2.475-1.178-5.618-2.788-6.983-3.578-2.396-1.385-3.89-.576-4.577 2.481-.062.275-.358 1.175-.658 2-.299.825-1.896 5.55-3.548 10.5-3.701 11.091-11.542 29.076-12.034 27.601-.254-.763-.939-.776-2.307-.044-1.07.573-6.096 1.162-11.169 1.308-5.073.147-11.249.776-13.724 1.398-7.376 1.855-28.644 4.296-41.75 4.793-15.158.574-15.401.058-4.75-10.087 4.125-3.93 7.5-6.927 7.5-6.661s1.044-.594 2.319-1.912c4.588-4.739 11.753-10.896 12.682-10.896.521 0 1.646-1.35 2.499-3 .853-1.65 1.245-3 .871-3-.375 0 .124-.889 1.108-1.976.983-1.087 2.246-1.694 2.806-1.348.56.346 1.606-.174 2.324-1.156.718-.982 2.439-1.91 3.824-2.062 1.493-.164 4.221-2.147 6.697-4.867 2.298-2.525 4.566-4.591 5.041-4.591.476 0 3.836-3.15 7.468-7s7.028-7 7.547-7c.519 0 2.08-1.351 3.47-3.003 1.389-1.651 2.882-2.783 3.316-2.514.435.268 1.848-1.056 3.141-2.943 1.293-1.886 3.259-3.923 4.369-4.525 5.657-3.068 7.165-4.214 11.096-8.435 2.346-2.519 4.654-4.58 5.128-4.58.475 0 1.719-1.463 2.766-3.25 2.297-3.925 4.497-5.699 6.236-5.032.719.276 1.292-.203 1.292-1.08 0-.989.558-1.361 1.5-1 .839.322 1.5.027 1.5-.671 0-.685.752-1.796 1.671-2.468 2.223-1.626 2.223-1.626 2.482-27.499.158-15.74.596-23.101 1.459-24.5.987-1.599.973-2.235-.066-3.175-1.021-.922-2.024-.412-4.673 2.375m-238.52 79.071C65.1 151.816 62 156.524 62 157.9c0 .533-.522 2.237-1.16 3.785-.639 1.548-1.077 3.344-.974 3.99.103.646-.275 1.46-.839 1.809-.565.349-1.027 1.534-1.027 2.634 0 1.1-.398 1.754-.884 1.454-1.064-.658-2.76 3.556-3.454 8.578-.512 3.709 2.206 7.85 5.152 7.85.653 0 1.186.45 1.186 1s.337.907.75.793c1.997-.552 9.252 1.381 9.265 2.469.01.81.351.719.985-.262.533-.825.976-.99.985-.367.008.624.915 1.369 2.015 1.657 1.1.287 2 1.041 2 1.675 0 .634-.45.875-1 .535-.55-.34-1-.141-1 .441S73.523 197 72.941 197s-.839-.357-.569-.792c.269-.436-.451-.864-1.601-.95-1.15-.087-2.462-.743-2.916-1.458-.676-1.066-.827-1.066-.84 0-.011.928-.5 1.028-1.712.349-1.008-.564-2.633-.594-4-.074-1.973.75-2.307.556-2.333-1.35-.028-2.009-.131-2.053-1.062-.454-.567.974-1.461 1.506-1.986 1.181-.525-.325-.725-.962-.444-1.416.281-.455-.195-1.097-1.058-1.428-2.191-.841-4.952 2.241-4.576 5.108.172 1.315-.227 3.041-.888 3.837-.939 1.131-.929 1.447.044 1.447.942 0 .968.334.105 1.373-.627.756-.83 2.179-.452 3.164.463 1.209.316 1.562-.454 1.086-.71-.439-1.392.348-1.808 2.086-.367 1.535-1.016 3.241-1.444 3.791-.776.999-.885 1.401-1.017 3.75-.039.688-.459.35-.935-.75-.933-2.161-.955-2.054-1.141 5.75-.038 1.615-.625 2.75-1.421 2.75-1.746 0-3.194 5.896-3.297 13.424-.045 3.258-.493 6.183-.996 6.5-1.051.662-4.482 7.977-4.591 9.788-.04.666-.629 1.768-1.311 2.45-2.7 2.7-.18 9.791 3.021 8.497.962-.388.966-.519.016-.58-.877-.057-.966-.762-.314-2.476.501-1.319.64-2.669.308-3-.331-.332-.13-.603.448-.603 1.451 0 2.326-3.819.977-4.269-.601-.2-.328-.657.607-1.016 1.244-.478 1.699-.125 1.699 1.316 0 1.302.677 1.969 2 1.969 1.1 0 2 .477 2 1.059s-.45.781-1 .441c-1.236-.764-1.274.518-.073 2.417.501.791.526 2.39.058 3.623-1.01 2.657.467 4.46 3.656 4.46 1.233 0 2.535.476 2.895 1.059.378.61 1.989.796 3.809.439 2.359-.463 2.777-.356 1.655.426-1.328.926 1.894 1.492 5.638.991.351-.047.962.438 1.358 1.079.396.641 3.674 1.531 7.285 1.979 3.611.448 7.041 1.108 7.622 1.467.58.359 2.064.113 3.296-.547 1.232-.659 4.815-1.165 7.961-1.123 5.139.068 5.753-.146 6.031-2.097.17-1.195.577-1.948.905-1.673.328.275 1.341-.118 2.25-.872 2.461-2.043 2.14-.764-1.474 5.872-1.275 2.341-3.428 7.08-5.451 12-1.018 2.475-2.697 5.416-3.731 6.535-2.326 2.52-9.604 19.185-9.654 22.108-.049 2.903 2.132 3.674 10.964 3.876 4.125.095 8.104.354 8.843.577 1.44.433 2.233-.606 4.648-6.096.847-1.925 3.139-6.191 5.094-9.48 1.955-3.29 3.977-8.015 4.493-10.5.517-2.486 1.214-5.76 1.548-7.276.342-1.548.096-3.374-.561-4.166-2.58-3.108 7.872-1.358 15.147 2.536.954.51 3.995 1.356 6.758 1.88 2.763.524 7.025 1.865 9.472 2.979 2.446 1.115 5.723 2.027 7.281 2.027 1.557 0 3.737.634 4.843 1.408 1.105.775 3.793 1.493 5.972 1.597 5.582.266 5.856.175 4.476-1.488-1.02-1.229-.79-1.652 1.34-2.461 2.306-.877 2.526-1.406 2.138-5.135-.238-2.287-1.163-4.691-2.054-5.343-1.281-.937-1.695-3.477-1.973-12.131-.194-6.021-.592-12.747-.884-14.947l-1.062-8c-1.205-9.089-1.713-14.283-1.887-19.303-.101-2.916-.655-5.616-1.231-6-.576-.383-1.313-1.421-1.638-2.305-.6-1.631-4.823-2.892-9.688-2.892-1.471 0-3.103-.374-3.625-.831-1.448-1.268-8.802-3.169-12.257-3.169-1.691 0-3.353-.45-3.693-1-.34-.55-1.379-.993-2.309-.985-1.125.011-1.299.265-.52.761.824.524.349 1.847-1.603 4.465-1.525 2.046-3.061 3.433-3.412 3.082-.351-.352-.199-1.169.338-1.816.678-.816-.09-2.375-2.508-5.092-1.916-2.153-3.485-4.267-3.485-4.696-.001-1.214 3.122-2.119 3.85-1.115.357.493 1.324.959 2.149 1.035.825.076 2.287.462 3.25.857 1.016.417 1.75.275 1.75-.339 0-.581 1.35-3.057 3-5.502s3-5.302 3-6.35.396-2.332.879-2.855c.484-.522 1.437-2.75 2.119-4.95 1.418-4.574 6.183-13.424 9.883-18.357 2.745-3.657 3.276-8.546 1.34-12.335-.649-1.269-1.638-3.573-2.198-5.118-.675-1.86-1.439-2.551-2.261-2.043-.683.422-5.816.647-11.406.501-6.364-.168-10.409.129-10.819.792-.89 1.44-5.202 1.31-10.037-.304-4.991-1.665-27.65-1.687-28.203-.027-.369 1.107-6.774.451-8.995-.922-.574-.355-1.901.133-2.949 1.084m78.891 190.894c-.691.278-.959.987-.596 1.575.391.632.189.777-.493.355-.662-.408-1.155-.118-1.155.681 0 .766-1.723 5.63-3.83 10.809-2.106 5.178-4.157 10.722-4.557 12.319-.401 1.596-1.973 4.746-3.494 7-4.098 6.069-8.436 17.021-7.683 19.395.739 2.329 4.326 4.923 7.724 5.586 3.182.621 9.695 3.065 13.34 5.005 1.65.879 3.405 1.6 3.9 1.604.972.006 7.183 2.831 20.6 9.366 4.675 2.277 9.625 4.39 11 4.696 1.375.305 2.376 1.126 2.225 1.824-.151.698.148 1.007.665.688.516-.319 1.099-.102 1.294.483.195.585 1.159.755 2.143.377.983-.377 1.551-1.303 1.262-2.057-.289-.754-.125-1.371.365-1.371.866 0 2.633-4.452 3.374-8.5.202-1.1.954-3.35 1.673-5 1.785-4.098 2.123-5.372 2.661-10 .256-2.2.73-4.675 1.055-5.5.324-.825.657-1.95.74-2.5.256-1.708 1.68-6.925 2.319-8.5.336-.825.662-1.95.726-2.5.193-1.655 1.574-5.813 2.99-9 2.538-5.712 2.303-6.634-2.317-9.102-5.541-2.96-18.7-7.951-27.675-10.497-3.85-1.092-9.025-2.681-11.5-3.53-2.475-.85-6.3-1.895-8.5-2.324-2.2-.428-4.675-1.028-5.5-1.333-.825-.306-2.065-.328-2.756-.049M310.697 374.8c-1.397.284-1.549.673-.675 1.727.883 1.063.731 1.349-.696 1.311-1.004-.026-4.301.903-7.326 2.065-3.025 1.162-6.048 1.904-6.718 1.649-1.626-.62-2.647 1.135-1.038 1.784.691.278.226.542-1.033.585l-2.289.079 2.039 2.189c1.121 1.203 2.039 2.778 2.039 3.5 0 .721.45 1.311 1 1.311s1 .675 1 1.5.45 1.5 1 1.5 1 .697 1 1.55c0 .852.7 2.902 1.555 4.556.855 1.653 1.715 4.218 1.911 5.7.196 1.482 1.517 5.169 2.936 8.194 1.419 3.025 2.878 7.075 3.242 9 .364 1.925 1.617 5.075 2.786 7 2.883 4.749 6.317 13.635 7.149 18.5.376 2.2 1.091 4.788 1.588 5.75.579 1.122.532 1.75-.132 1.75-.569 0-1.035.404-1.035.898 0 1.355 5.99.623 10.447-1.278 2.171-.925 4.519-1.463 5.218-1.195.699.268 1.548.039 1.887-.509.339-.549 1.478-.724 2.532-.389 1.114.353 1.916.136 1.916-.519 0-.619.419-.867.931-.551.512.317 1.214.117 1.56-.443.368-.594 2.27-.756 4.569-.388 2.482.396 3.94.242 3.94-.419 0-.576 1.35-1.345 3-1.707 1.65-.362 3-.977 3-1.365 0-.389.788-.759 1.75-.822.962-.064 4.113-.544 7-1.065 4.21-.761 5.25-.682 5.25.401 0 .743.45 1.351 1 1.351s1-.916 1-2.035c0-1.779.274-1.889 2.171-.874 1.797.962 2.398.852 3.49-.641.725-.992 1.602-1.521 1.948-1.175.346.347 1.283-.024 2.081-.823.799-.798 2.712-1.452 4.251-1.452 1.539 0 5.621-.902 9.071-2.004 3.616-1.155 6.743-1.646 7.381-1.159 2.361 1.802 9.834-1.978 7.857-3.975-.687-.694-1.25-2.297-1.25-3.562 0-1.265-.392-2.3-.871-2.3s-4.417-7.087-8.75-15.75c-4.334-8.663-8.13-15.975-8.436-16.25-.306-.275-1.168-2.075-1.914-4-.747-1.925-1.866-4.175-2.487-5-.62-.825-1.769-2.85-2.552-4.5-.783-1.65-1.519-3.156-1.636-3.346-.54-.878-12.738 6.505-16.569 10.028-2.357 2.168-9.91 6.781-16.785 10.252a4720.327 4720.327 0 0 0-16 8.107c-1.925.988-3.86 2.396-4.3 3.128-.44.732-1.365 1.331-2.057 1.331-1.424 0-4.643-6.664-4.643-9.614 0-1.067-.592-2.829-1.315-3.913-.724-1.085-1.838-3.789-2.476-6.009-.639-2.219-2.037-4.976-3.109-6.126-1.396-1.499-1.641-2.397-.866-3.172.775-.775.719-1.518-.199-2.624-.869-1.046-.919-1.542-.157-1.542.617 0 1.122-.436 1.122-.969 0-.532-.672-.71-1.494-.395-.9.345-1.794-.177-2.25-1.315-.449-1.122-1.487-1.739-2.559-1.521M164.5 483.129c-5.823 1.825-13.721 4.214-24 7.26-2.75.815-7.553 1.986-10.673 2.601-3.12.616-6.143 1.685-6.716 2.376-.574.691-3.153 1.366-5.731 1.499-6.941.36-13.437 4.61-9.63 6.302 1.245.553 4.916 6.205 5.75 8.852.43 1.365 3.081 5.272 5.891 8.684 2.81 3.411 6.459 8.811 8.109 12 1.65 3.188 3.338 5.947 3.75 6.13.412.184.75.764.75 1.291 0 1.01 3.755 6.649 5.57 8.365 2.138 2.021 4.47 6.511 3.382 6.511-.602 0-.388.707.477 1.571.864.865 1.571 2.126 1.571 2.803 0 1.817 5.977 9.626 7.367 9.626 1.787 0 3.815-5.788 4.204-12 .728-11.627 1.568-18.516 3.096-25.381.872-3.915 1.947-9.144 2.389-11.619 2.165-12.122 5.042-21.416 9.053-29.236.49-.955.891-2.868.891-4.25 0-1.383.375-2.514.833-2.514.459 0 .834-.675.834-1.5s-.263-1.444-.584-1.375c-.321.069-3.283.971-6.583 2.004m-12.876 93.001c-.4 2-.258 3.492.353 3.696.562.187 1.016 1.091 1.008 2.007-.013 1.397-.164 1.433-.932.219-.718-1.135-1.062-.865-1.593 1.25-.372 1.484-1.127 2.698-1.678 2.698-.555 0-.819 1.559-.592 3.5.225 1.925.101 3.5-.274 3.5-.376 0-.909.788-1.186 1.75a43.992 43.992 0 0 1-1.286 3.664c-.553 1.349-.438 1.701.386 1.191.644-.398 1.17-.198 1.17.443 0 .65.697.899 1.574.562.866-.332 2.283.104 3.149.971 1.003 1.002 2.338 1.328 3.676.896 1.156-.372 3.863-.745 6.018-.827 2.307-.088 4.103-.71 4.371-1.513.349-1.049.629-1.08 1.214-.134.418.676 3.03 1.352 5.805 1.502 6.416.346 6.316-.341-1.346-9.225-2.002-2.321-3.937-4.185-4.3-4.142-2.234.265-5.167-1.737-6.2-4.233-1.326-3.2-1.973-3.493-3.761-1.705-.933.933-1.2.933-1.2 0 0-.66.45-1.2 1-1.2s1-.45 1-1-.506-.888-1.125-.75-1.331-.313-1.584-1.001c-.307-.839.119-1.029 1.299-.576 1.379.529 1.612.296 1.084-1.081-.371-.966-.674-2.255-.674-2.865 0-.61-.611-.274-1.358.747-1.293 1.77-1.404 1.773-2.352.079-.852-1.522-1.092-1.295-1.666 1.577" fill="#d3d3d3" fill-rule="evenodd"/></svg>