<svg xmlns="http://www.w3.org/2000/svg" width="500" height="361"><path d="M0 180.5V361h39.607c32.767 0 39.518-.232 39.091-1.345-.284-.74.343-3.264 1.393-5.609 1.05-2.346 1.909-5.548 1.909-7.118 0-1.569 1.008-5.457 2.24-8.64 1.231-3.184 2.287-6.238 2.346-6.788.059-.55.362-1.675.673-2.5.31-.825 1.012-2.907 1.558-4.626.546-1.719 3.675-7.569 6.954-13 3.278-5.431 7.809-13.552 10.068-18.048 2.259-4.496 4.569-8.46 5.134-8.809.565-.349 1.027-1.696 1.027-2.993 0-1.296.344-2.507.765-2.691 1.17-.509 7.233-14.234 7.25-16.413.009-1.056.452-2.595.985-3.42.901-1.395 1.119-1.16 1.42 1.532.129 1.147 1.597 6.233 5.043 17.468l5.516 18c1.768 5.775 3.846 11.978 4.618 13.784.772 1.806 1.403 3.892 1.403 4.636 0 .744 1.17 4.837 2.6 9.095 2.588 7.704 5.085 20.773 6.064 31.735l.514 5.75h4.843c5.378 0 5.362.021 6.449-8.5.351-2.75 1.054-6.35 1.564-8 .51-1.65 1.378-7.95 1.93-14s1.464-13.475 2.027-16.5c1.395-7.501 2.932-21.94 3.126-29.371.087-3.371.579-8.154 1.091-10.629 1.381-6.672 1.768-9.494 2.805-20.5.519-5.5 1.475-13.17 2.126-17.043.65-3.874.886-8.149.526-9.5-.931-3.488-14.209-17.069-16.012-16.378-.92.354-1.993-.554-2.97-2.513-1.49-2.986-1.468-3.066.822-3.066 1.294 0 3.035-.683 3.87-1.518s1.879-1.461 2.321-1.392c2.054.322 6.62-1.767 18.64-8.53 2.66-1.496 5.069-2.488 5.353-2.204.284.284 1.7.066 3.146-.484 1.951-.741 4.003-.568 7.944.672 2.923.919 6.418 1.46 7.767 1.202 1.35-.258 2.454-.13 2.454.284 0 1.238 7.117 3.682 13 4.463 3.025.402 6.033 1.161 6.684 1.687 3.089 2.493 22.734 4.201 29.316 2.549.825-.208 4.2-.991 7.5-1.741 3.3-.75 6.225-1.426 6.5-1.503 2.017-.564 8.74-1.802 10.431-1.921 1.138-.08 1.957-.689 1.819-1.355-.137-.665.102-1.209.532-1.209.43 0 .879-1.173.997-2.606.156-1.874-.177-2.455-1.183-2.069-.98.376-1.604-.556-2.083-3.11-.881-4.694-3.025-8.814-4.976-9.562-.845-.325-1.537-1.081-1.537-1.681 0-.599.419-.831.931-.515 1.743 1.077 2.271-1.576.667-3.349-.879-.971-1.598-2.352-1.598-3.069 0-.716-.937-2.819-2.082-4.671-1.322-2.14-1.642-3.368-.877-3.368.935 0 .937-.322.008-1.441-.657-.792-1.95-1.17-2.872-.84-.922.33-1.348.236-.945-.208.828-.914-4.094-10.511-5.391-10.511-.463 0-.841-.654-.841-1.453s-1.575-2.201-3.5-3.114c-4.541-2.155-4.446-3.441.25-3.402 3.909.032 6.733 2.832 11.821 11.719 1.023 1.787 2.213 3.25 2.645 3.25.431 0 .784.571.784 1.268 0 .697 1.125 2.923 2.5 4.947 1.375 2.023 2.5 4.742 2.5 6.041 0 1.299.649 3.235 1.441 4.303.798 1.074 1.193 2.958.885 4.218-.362 1.481.326 3.609 1.968 6.091 2.729 4.124 4.648 9.874 3.965 11.882-.687 2.017 4.643 1.485 10.981-1.098 3.157-1.286 5.445-2.634 5.084-2.995-.362-.361.257-.657 1.374-.657 1.118 0 3.176-.9 4.575-2 1.398-1.1 3.013-2 3.587-2 .623 0 .827-1.313.506-3.25-.297-1.787-.64-4.6-.764-6.25-.256-3.437-2.675-9.5-3.79-9.5-.412 0-.508-.629-.212-1.399.295-.769.056-1.696-.532-2.059-.587-.363-1.068-1.548-1.068-2.632 0-1.085-.675-2.232-1.5-2.548-.825-.317-1.5-.958-1.5-1.425 0-.466-1.119-2.497-2.486-4.511-1.367-2.015-2.24-4.06-1.941-4.545.3-.484.02-.881-.621-.881s-.899-.694-.574-1.543c.497-1.294-3.295-8.806-5.277-10.457-1.24-1.032-3.102-5.037-3.133-6.736-.052-2.876-2.683-5.514-5.499-5.514-1.445 0-2.83-.527-3.077-1.171-.302-.788-2.561-1.036-6.921-.758-4.343.277-6.471.045-6.471-.705 0-.614 1.295-1.116 2.878-1.116 1.582 0 3.4-.63 4.039-1.4.795-.957 2.408-1.232 5.113-.869 2.322.311 4.531.048 5.359-.639 1.525-1.265 8.442-1.175 9.243.121.27.437 1.647.504 3.06.15 1.926-.484 2.454-.3 2.108.736-.504 1.513 3.208 4.901 5.37 4.901.746 0 2.25 1.204 3.343 2.675 1.093 1.471 2.581 3.159 3.307 3.75 2.788 2.27 9.18 9.099 9.18 9.807 0 1.024 7.649 5.768 9.3 5.768 1.73 0 5.745 4.597 4.869 5.575-.368.41-.172.463.435.117.607-.346 1.61.482 2.228 1.839 1.375 3.018 2.298 3.088 4.763.363 2.034-2.249 2.41-12.951.806-22.894-.4-2.475-.807-5.4-.906-6.5-.3-3.344-1.573-6.5-2.621-6.5-.546 0-.743-.403-.439-.895.305-.493-.119-1.153-.941-1.469-.822-.315-1.494-1.232-1.494-2.037 0-.805-.803-1.719-1.784-2.03-.981-.312-2.612-1.969-3.624-3.682-1.948-3.299-6.297-7.516-7.422-7.198-.369.105-1.57-.653-2.67-1.683-1.1-1.03-3.238-2.342-4.75-2.915S314 90.363 314 89.525c0-.839-.525-1.525-1.167-1.525-.641 0-.882-.285-.534-.633.705-.704-3.56-4.367-5.084-4.367-.534 0-1.523-.666-2.199-1.48-.818-.986-2.407-1.33-4.761-1.028-1.943.248-3.253.173-2.912-.168.341-.342-.351-1.464-1.539-2.494-1.693-1.468-2.358-1.598-3.076-.601-.642.89-.742.731-.334-.531.321-.991.177-1.551-.32-1.244-.497.307-1.054.202-1.239-.234-.184-.436-1.789-1.813-3.567-3.061-1.777-1.248-3.127-2.778-3-3.401.286-1.394-10.125-8.685-12.461-8.727-.932-.017-2.455-1.32-3.386-2.895-2.065-3.496-6.317-6.136-9.884-6.136-1.46 0-2.433-.359-2.162-.798.719-1.163-.834-3.3-2.585-3.556-1.795-.264-5.249-3.52-4.514-4.255 1.061-1.061-4.123-5.41-7.177-6.021-1.748-.35-3.01-1.136-2.806-1.748.403-1.21-4.557-6.622-6.07-6.622-.512 0-2.023-1.013-3.359-2.25-1.335-1.238-2.638-2.333-2.896-2.435-.257-.102-1.255-.488-2.218-.857-.963-.37-1.75-1.308-1.75-2.086 0-.778-1.125-1.927-2.5-2.554-1.375-.626-2.5-1.481-2.5-1.899 0-.418-1.317-1.049-2.926-1.403-1.61-.353-3.623-1.705-4.474-3.003-.851-1.299-2.389-2.629-3.419-2.956-1.045-.331-2.454-2.354-3.187-4.576L202.68 0H0v180.5M336.538 8.802c.358 4.747 1.23 10.221 1.937 12.164.707 1.944 1.87 5.559 2.585 8.034 1.454 5.033 2.781 7.216 3.949 6.495.43-.266 1.039.189 1.355 1.011.315.822.137 1.494-.395 1.494-2.344 0-.696 4.114 2.526 6.303 1.922 1.306 3.251 2.618 2.953 2.916-.298.297.605.828 2.005 1.18 2.661.668 3.451 3.069 1.297 3.939-.949.382-.956.523-.031.583.67.043.959.754.643 1.579-.317.825-.048 1.5.598 1.5.72 0 .929.775.54 2-.349 1.1-.23 2 .265 2 .496 0 .821 1.013.724 2.25-.097 1.238.48 3.263 1.282 4.5 1.003 1.546 1.094 2.25.293 2.25-.641 0 .093 1.651 1.632 3.669 1.54 2.018 2.679 4.38 2.532 5.25-.159.939.938 2.113 2.698 2.891 1.91.844 2.769 1.822 2.413 2.75-.34.884.065 1.44 1.048 1.44 1.241 0 1.502.769 1.162 3.424-.277 2.163.072 3.846.947 4.573.762.632 1.119 1.844.793 2.692-.498 1.297-.249 1.36 1.559.392 1.409-.754 2.152-.794 2.152-.116 0 .569-.761 1.035-1.691 1.035-1.506 0-1.488.149.167 1.359 1.022.747 2.007 2.334 2.189 3.527.182 1.192 1.082 3.843 2 5.891.918 2.048 1.813 4.955 1.989 6.46.176 1.505 1.226 3.643 2.333 4.75 2.317 2.317 2.538 3.601.763 4.43-1 .466-1 .7 0 1.166.688.321 1.25 1.446 1.25 2.5 0 1.055.684 1.917 1.52 1.917 1.026 0 1.39.73 1.122 2.25-.576 3.268 1.083 7.07 2.798 6.411 1.461-.56 1.496-.417 1.585 6.439.028 2.167.844 4.456 2.05 5.75 1.102 1.183 1.555 2.15 1.008 2.15-.568 0-.317 1.823.584 4.25.868 2.337 1.514 5.52 1.435 7.072-.104 2.025.214 2.616 1.127 2.09.699-.403.94-.367.537.079-.404.446-.024 1.331.844 1.966 1.414 1.034 1.424 1.514.097 4.599-1.597 3.711-10.976 13.414-12.984 13.433-.673.006-1.317.36-1.431.786-.115.426-.983 2.086-1.93 3.689-1.546 2.617-1.578 3.353-.31 7.194.777 2.353 1.42 4.742 1.43 5.31.063 3.598 4.937 13.532 6.64 13.532 1.033 0 1.878.601 1.878 1.336 0 1.442-7.57 8.664-9.082 8.664-.505 0-.933 1.238-.951 2.75-.041 3.413-4.887 10.611-7.48 11.11-1.632.315-1.729.137-.64-1.175.705-.851 1.323-2.944 1.371-4.651.049-1.708.469-3.341.935-3.629.466-.288.811-1.284.768-2.214-.049-1.041-.273-1.211-.583-.441-1.083 2.683-2.173 1.076-1.188-1.75.575-1.65 1.402-3 1.837-3 1.572 0 .559-8.481-1.206-10.102-.96-.88-1.428-1.917-1.042-2.304.387-.386.041-1.121-.768-1.633-1.234-.78-1.189-.933.279-.946 1.167-.01 1.724-.764 1.671-2.265-.043-1.238-.306-1.687-.583-1-.578 1.431-4.338 1.72-4.338.333 0-.504.563-1.117 1.25-1.363.688-.245.888-.832.446-1.304-.443-.472-1.23-.196-1.75.613-.775 1.205-1.058 1.064-1.563-.779-.339-1.237-1-2.25-1.468-2.25-.469 0-.637.563-.375 1.25.342.894-1.029 1.285-4.813 1.373-5.083.118-12.044 2.831-17.225 6.715-2.701 2.025-1.126 3.334 1.998 1.662 2.688-1.439 4.911-.504 2.471 1.039-1.14.721-.908.941 1.029.976 2.236.041 2.309.157.689 1.099-.996.579-2.447.809-3.225.51-1.671-.641-8.464 2.004-8.464 3.296 0 .491 1.012.676 2.25.412 2.086-.445 2.123-.376.5.954-1.909 1.565-2.343 3.714-.75 3.714.55 0 1 .644 1 1.43 0 .787.888 1.575 1.974 1.75 1.44.233 1.731.709 1.076 1.757-.726 1.161-1.47.825-3.876-1.75-1.652-1.769-3.985-3.187-5.242-3.187-1.246 0-1.981.284-1.634.631.347.348.229 1.385-.263 2.304-.861 1.609.008 4.327 1.327 4.15 2.223-.297 2.446.167 1.451 3.022-.855 2.453-.792 3.296.302 4 1.179.761 1.179 1.026-.005 1.788-1.448.934 1.875 9.684 4.292 11.301.572.382.731 1.004.354 1.381s-.262 1.477.255 2.444c.728 1.36.502 1.873-.996 2.265-2.272.594-4.58-3.605-8.126-14.786-1.221-3.85-2.91-7.809-3.753-8.798-.843-.989-1.639-2.519-1.768-3.4-.129-.881-.766-1.93-1.415-2.331-.871-.538-.823-.859.184-1.225 1.093-.398 1.115-.759.113-1.821-.972-1.031-1.517-1.058-2.45-.125-.66.66-1.769 1.2-2.465 1.2-1.33 0-5.158 2.562-14.928 9.992-3.249 2.47-7.707 5.418-9.907 6.55-12.745 6.558-17.501 13.002-17.804 24.122-.157 5.749-.561 7.393-2.043 8.32-2.501 1.563-3.294.515-1.198-1.582 1.302-1.302 1.403-1.872.439-2.468-.806-.497-1.244-3.13-1.226-7.354.016-3.619-.24-6.573-.569-6.565-1.008.024-9.016 2.925-10.862 3.934-.955.522-4.715 2.317-8.354 3.988-3.64 1.671-7.146 3.675-7.791 4.452-.645.777-3.624 2.654-6.62 4.169-2.995 1.516-6.197 3.585-7.114 4.599-.917 1.014-2.498 1.843-3.513 1.843-1.015 0-1.845.568-1.845 1.262 0 .695-1.788 4.632-3.974 8.75-2.185 4.119-3.985 8.191-4 9.05-.022 1.339-2.181 6.644-4.858 11.938-.417.825-.892 3.3-1.055 5.5-.174 2.331-1.094 4.747-2.205 5.789-1.05.984-1.908 2.686-1.908 3.781 0 1.096-.675 2.252-1.5 2.568-.825.317-1.5 1.439-1.5 2.494 0 1.055-.9 4.479-2 7.608-1.1 3.13-2 6.745-2 8.034 0 1.289-.38 2.109-.844 1.823-1.126-.697-2.778 5.034-2.71 9.403l.054 3.5 37.433.262c40.529.284 38.99.492 39.087-5.262l.051-3 1.429 2.5c.786 1.375 1.445 3.288 1.465 4.25.03 1.521 1.105 1.75 8.226 1.75 7.57 0 8.044-.118 6.25-1.552-1.889-1.51-1.881-1.535.287-.939 1.973.542 2.302.153 2.868-3.387.352-2.199 1.209-4.217 1.904-4.484.695-.266 1.812-2.769 2.482-5.561.745-3.106 1.761-5.077 2.618-5.077 1.583 0 1.822 1.136.536 2.55-.474.522-1.351 2.412-1.947 4.2-.939 2.813-.857 3.254.613 3.282 1.537.029 1.525.163-.131 1.418-1.365 1.034-1.59 1.851-.885 3.218 1.037 2.013.523 4.425-1.186 5.567-.605.404 5.461.741 13.481.75 14.511.015 14.587.003 15.91-2.468.731-1.366 2.176-2.753 3.21-3.081 1.05-.333 2.139-1.887 2.465-3.516.321-1.606.978-2.92 1.459-2.92 1.525 0 1.354 7.252-.184 7.821-.478.177-.327 1.19.336 2.25 1.173 1.879 3.27 1.929 80.964 1.929H500V-.06l-82.057.116-82.057.115.652 8.631m14.067 5.927c-1.522.38-1.621.647-.5 1.357 1.116.707 1.045.886-.355.899-.962.008-1.75.465-1.75 1.015 0 .886 2.145 1.451 4.25 1.118.413-.065.75.557.75 1.382 0 .825.45 1.5 1 1.5s1-1.125 1-2.5.477-2.5 1.059-2.5.819.388.526.862c-.936 1.515 2.582 8.948 4.468 9.442 2.178.569 3.6-2.273 1.731-3.459-.944-.599-.821-.818.466-.83.962-.008 1.75-.492 1.75-1.074 0-.582-.45-.781-1-.441-1.66 1.026-3.432-.597-1.857-1.701 1.137-.797 1.13-1.042-.044-1.509-1.026-.408-.766-.898.971-1.827 2.209-1.183 2.065-1.261-2.099-1.141-2.459.072-5.371-.139-6.471-.469-1.1-.329-2.853-.385-3.895-.124M80.507 31.25c.977 4.192 1.752 10.395 1.805 14.45.023 1.759.412 2.97.865 2.691.453-.28.857.08.9.8.16 2.751.851 5.306 2.029 7.507 1.008 1.883.943 2.591-.372 4.043-1.002 1.107-1.29 2.316-.778 3.26.448.824 1.133 3.074 1.523 4.999 1.083 5.352 5.594 14.499 6.46 13.099.834-1.35-.737-12.041-2.003-13.633-.452-.568-.408-1.693.098-2.5 1.014-1.615.6-3.714-1.756-8.918-1.101-2.43-1.228-3.565-.429-3.831.763-.254.827-.954.194-2.137-.517-.967-.801-3.068-.629-4.669C88.74 43.367 87.25 39 85.885 39c-.437 0-1.099-1.687-1.471-3.75C83.582 30.64 82.28 28 80.84 28c-.718 0-.832 1.108-.333 3.25m72.949 29.822c-.361.583.176 1.692 1.194 2.463 1.715 1.299 1.624 1.404-1.251 1.433-3.083.032-3.094.052-2.005 3.532 1.041 3.327 2.606 4.764 2.606 2.393 0-.609.704-.837 1.565-.506 1.202.461 1.419.137.933-1.393-.813-2.561.574-2.558 2.77.006.942 1.1 2.606 2 3.697 2 1.672 0 1.89.473 1.385 3-.382 1.911-.192 3 .525 3 .619 0 1.125.675 1.125 1.5s.675 1.5 1.5 1.5 1.5.498 1.5 1.107-.675.848-1.5.531c-3.093-1.187-1.358 1.01 2 2.532 1.925.872 3.5 1.177 3.5.677 0-.501-.675-1.169-1.5-1.485-2.073-.796-1.892-2.516.228-2.156 2.791.475 5.445 3.069 4.033 3.942-.843.52-.482 1.359 1.218 2.834 3.068 2.661 3.629 5.346.939 4.492-1.073-.341-1.918-.138-1.918.459 0 .587 1.098 1.067 2.441 1.067 3.474 0 4.292 1.978.868 2.1l-2.809.099 2.5.743c1.375.408 3.586.566 4.913.351 2.053-.333 2.227-.166 1.163 1.115-1.008 1.215-.963 1.915.23 3.619 1.073 1.532 1.626 1.75 2.008.793.301-.751.562-.41.607.79.069 1.832-.414 2.073-3.671 1.829-2.062-.154-4.537-.589-5.5-.966-1.026-.403-1.75-.229-1.75.42 0 .609.689 1.107 1.531 1.107.843 0 1.791.675 2.107 1.5.317.825 1.203 1.5 1.969 1.5s1.393.723 1.393 1.607c0 1.018-.55 1.396-1.5 1.031-.825-.316-1.5-.166-1.5.334 0 1.602 2.043 2.237 3.447 1.072 1.021-.848 1.488-.807 1.88.164.406 1.007.75.962 1.557-.203.899-1.297 1.222-1.243 2.425.403.764 1.045 1.905 1.578 2.539 1.186 2.095-1.295 3.252.45 1.472 2.22-1.592 1.583-1.395 1.705 3.223 2 2.705.173 5.229.816 5.608 1.43.379.613 1.441 1.226 2.361 1.361.919.135 1.866.439 2.103.677.752.752-.787 3.73-1.651 3.196-.454-.281-1.09-.084-1.412.438-.323.522-1.913.912-3.535.865-1.621-.046-2.742-.417-2.49-.825.253-.408-1.563-1.693-4.034-2.854-4.678-2.199-5.541-3.486-2.993-4.464 3.163-1.213 1.295-2.206-3.17-1.684-2.914.341-4.846 1.11-5.137 2.046-.257.825-.109 1.166.328.759.437-.408 1.394-.244 2.127.364 1.076.893.844 1.489-1.205 3.1-2.658 2.091-13.443 1.854-13.443-.295 0-1.671-2.517-.973-4.394 1.219-1.8 2.103-1.795 2.136.278 1.594 1.164-.305 2.116-.2 2.116.231 0 1.147 5.011 3.035 8.757 3.299 1.781.126 3.24.454 3.241.729.001.275 3.489.565 7.752.644 9.054.168 17.288 1.253 18.851 2.486.606.477 2.293.966 3.75 1.087 1.457.121 2.649.509 2.649.864 0 .354 3.488 1.204 7.75 1.888 4.262.685 8.566 1.677 9.564 2.207 1.185.629 2.243.607 3.052-.065 1.344-1.116 4.621-.523 8.607 1.558 3.257 1.7 4.681 1.675 5.361-.096.742-1.935-1.135-3.306-5.335-3.897-1.925-.271-3.499-.585-3.499-.698 0-.114-1.35-.36-3-.549-5.551-.634-7.363-1.423-8.019-3.49-.978-3.082 2.139-8.921 4.816-9.022 1.212-.046 3.328-.265 4.703-.487 1.375-.222 7-.579 12.5-.794 12.132-.473 16.5-1.373 16.5-3.397 0-1.306-1.463-1.4-10.75-.692-5.912.451-14.656.73-19.431.62-4.81-.11-8.951.237-9.285.779-.385.622-1.5.637-3.069.041-1.356-.516-2.465-.724-2.465-.462 0 .606-1.786-.973-10.898-9.633-4.069-3.867-7.669-6.647-8-6.178-.331.469-1.164.782-1.852.694-3.316-.42-3.536-.694-1.024-1.276l2.726-.632-5.149-5.329c-4.714-4.878-5.432-5.276-8.493-4.701-3.7.694-6.344-.213-4.3-1.476 1.622-1.003.653-2.573-5.78-9.357-3.195-3.371-5.827-5.345-6.685-5.016-1.484.57-6.045-3.921-6.045-5.951 0-.644-.45-1.209-1-1.256-2.439-.211-5.234-1.932-8.194-5.045-1.919-2.017-3.456-2.935-3.85-2.297m-60.725 27.53c-.392.393-.229 1.298.364 2.012.592.714 1.234 3.456 1.427 6.092 1.108 15.217 2.225 17.843 8.037 18.884 1.618.29 3.091.951 3.274 1.469.532 1.501 3.016 1.092 4.917-.809 1.863-1.863 2.224-3.609 1-4.833-.412-.413-.75-.048-.75.809 0 2.117-2.928 3.126-3.645 1.257-.313-.816-1.469-1.483-2.569-1.483-1.367 0-1.818-.475-1.424-1.5.316-.825.188-1.5-.285-1.5s-1.122-1.042-1.441-2.316c-.32-1.273-1.494-3.367-2.609-4.653-1.115-1.285-2.096-3.056-2.179-3.934-.084-.878-.257-2.047-.385-2.597-.128-.55-.284-1.701-.348-2.559-.161-2.176-2.521-5.202-3.384-4.339M121 113.5c0 .89-.45 1.34-1 1-.55-.34-1-.115-1 .5s-.526.793-1.17.395c-.795-.492-.957-.17-.506 1.006.541 1.412.251 1.616-1.58 1.113-2.14-.589-2.158-.548-.377.88 1.664 1.335 2.134 1.324 4.305-.098 2.314-1.517 2.465-1.486 3.014.61.331 1.267 1.128 1.995 1.872 1.71.713-.273 1.791.1 2.397.83.693.834 2.4 1.152 4.602.855 1.925-.26 6.631.056 10.457.701 3.826.646 7.119 1.022 7.317.836.199-.186.996.189 1.772.832.974.809 3.109.925 6.904.375 3.849-.557 4.595-.868 2.493-1.039-1.65-.133-3.338-.19-3.75-.124-.412.065-.75-.362-.75-.949 0-.634-.864-.793-2.125-.393-1.415.449-1.9.309-1.451-.418.458-.741-.282-.9-2.302-.496-3.608.721-11.671-2.145-13.541-4.814-1.404-2.004-3.958-2.855-9.606-3.2-1.939-.119-4.076-.557-4.75-.973-.774-.478-1.225-.161-1.225.861m200.199 34.116c-.716.775-1.027 1.854-.691 2.397.335.543-.076.987-.914.987-.838 0-1.984-.861-2.548-1.913-.907-1.696-4.925-2.389-4.296-.742.137.36.406.542.596.405.812-.586 3.653 2.633 3.639 4.122-.013 1.392-.15 1.415-.946.157-.512-.809-1.209-1.192-1.55-.851-.341.34.745 2.015 2.412 3.721 2.661 2.722 2.791 3.101 1.065 3.101-1.081 0-1.966.661-1.966 1.469 0 .899.586 1.243 1.511.888 1.092-.419 1.336-.122.879 1.069-.363.945.126 2.486 1.144 3.611.977 1.08 1.298 1.963.715 1.963-.584 0-.826.9-.539 2 .288 1.1 1.113 2 1.833 2 .721 0 1.516.787 1.768 1.75.344 1.317.486 1.193.573-.5.064-1.238.566-2.25 1.116-2.25.55 0 .887.563.75 1.25-.367 1.835 4.492 1.057 6-.96 1.166-1.56 1.25-1.559 1.25.019 0 .93.648 1.691 1.441 1.691 2.133 0 2.985-1.995.868-2.032-1.716-.03-1.719-.1-.059-1.36 2.348-1.783 2.217-2.891-.25-2.108-3.346 1.062-2.231-.376 1.5-1.936 1.925-.804 3.5-1.921 3.5-2.482 0-1.207-3.179-.197-4.235 1.345-.418.611-.741.139-.75-1.094-.008-1.191-.577-2.429-1.265-2.75-.98-.457-.964-.714.07-1.19.962-.442.698-1.042-.971-2.211l-2.292-1.605 2.472-.689c2.183-.608 2.063-.704-1.029-.824l-3.5-.135 2.5-1.389 2.5-1.389-2.815-1.076c-1.548-.591-3.664-1.075-4.7-1.075-1.037 0-2.245-.629-2.685-1.397-.684-1.194-.989-1.192-2.101.013" fill="#d3d3d3" fill-rule="evenodd"/></svg>