<svg xmlns="http://www.w3.org/2000/svg" width="500" height="281"><path d="M392.71 1.313c-.277.723-2.777 2.393-5.554 3.711-3.889 1.847-4.805 2.694-3.981 3.687.738.889.744 1.289.019 1.289-.578 0-1.646.568-2.373 1.262-2.242 2.141-7.057 3.902-8.025 2.934-.494-.494-2.042-.68-3.439-.413-1.612.308-2.105.755-1.348 1.222.676.418-.857 1.045-3.536 1.447-6.707 1.006-7.237 1.33-6.707 4.106 1.894 9.907-20.951 25.967-46.08 32.394-18.226 4.662-68.273 5.244-68.626.798a29.266 29.266 0 01-.06-1.865c0-.681-.974-.477-2.5.523-1.375.901-2.5 1.178-2.5.615s.563-1.03 1.25-1.038c.833-.011.75-.339-.25-.985-1.246-.805-1.161-.979.5-1.025 1.631-.045 1.446-.364-1-1.727-2.854-1.59-3.457-1.832-5.287-2.123-1.667-.265-1.01-4.055.802-4.63 1.182-.375 1.664-1.167 1.295-2.13-.477-1.242-.749-1.28-1.434-.199-.583.919-.85.498-.861-1.357-.008-1.48-.501-2.992-1.096-3.359-.601-.372-.805-1.767-.46-3.143.35-1.393.223-2.228-.29-1.912-1.455.9-5.699-3.265-4.524-4.44 1.71-1.71.384-6.955-1.758-6.955-1.038 0-1.775-.338-1.637-.75.137-.413-.148-.75-.635-.75s-1.26-1.013-1.718-2.25c-.458-1.238-1.635-2.282-2.615-2.32-1.561-.062-1.534-.177.218-.93 9.332-4.01-33.478 3.751-50.019 9.068l-9.981 3.208-22-.608c-28.83-.797-43.44.952-37.229 4.456 2.257 1.273 1.306 2.876-1.708 2.876-1.275 0-2.83.617-3.457 1.372-1.439 1.734 2.797 3.643 7.658 3.451 3.62-.142 4.771.502 3.775 2.114-.364.589-1.71.807-2.991.486-3.513-.882-3.787.901-.48 3.117 2.512 1.683 4.49 6.541 2.048 5.032-1.915-1.184-15.086 1.259-17.646 3.273l-2.593 2.04 3.012 1.557c1.656.857 4.582 1.558 6.502 1.558s3.769.45 4.109 1c.34.55 2.054 1.047 3.809 1.103 3.138.102 3.124.121-.809 1.133-2.2.566-4.212 1.219-4.471 1.451-1.074.962 2.758 2.283 6.662 2.298 2.305.008 4.443.423 4.751.921.308.499 2.882 1.226 5.721 1.616 3.394.467 5.96 1.51 7.499 3.049 2.789 2.789 3.118 4.973.588 3.903-2.469-1.045-8.652-.605-10.853.772-.606.38-1.956.044-3-.746-2.502-1.894-3.969-1.894-2.397 0 1.004 1.209.979 1.507-.128 1.535-.754.02-.25.657 1.121 1.416 1.875 1.037 2.705 1.091 3.345.214.54-.74.645-.526.288.585-.421 1.308-.002 1.754 1.655 1.765 1.537.011 1.823.267.93.833-.993.63-1.037 1.48-.192 3.701.603 1.586 1.407 2.433 1.788 1.884.381-.55 3.713-.985 7.404-.966l6.711.033 1.648 4c2.417 5.866 3.43 8.537 3.43 9.047 0 .249-4.95.453-11 .453-6.89 0-11 .385-11 1.031 0 1.612 1.332 1.764 20.783 2.38 16.162.513 18.354.395 18.896-1.017.337-.878.045-1.947-.649-2.375-1.747-1.08 12.933-2.967 27.295-3.51 6.504-.246 13.254-.707 15-1.026 2.804-.512 18.706.41 37.486 2.174 5.75.539 6.358.413 6.839-1.425.718-2.747 7.572-1.927 12.1 1.448 5.078 3.784 4.117 4.32-7.75 4.32-7.467 0-11-.361-11-1.122 0-.767-.484-.721-1.527.145-1.689 1.401-24.458.571-25.447-.927-.907-1.373-8.604-1.914-10.61-.746-1.111.647-9.443 1.333-19.835 1.633-12.399.358-18.039.878-18.307 1.688-.494 1.49 5.416 2.103 26.61 2.758 22.557.697 21.649 1.675-1.428 1.538-10.426-.062-19.759.199-20.741.581-.981.381-14.031.425-29 .097-14.968-.327-28.002-.606-28.965-.62-1.075-.015-1.75-.796-1.75-2.025 0-1.667.667-2 4-2 2.694 0 4-.441 4-1.352 0-.969-2.217-1.523-7.835-1.956-4.31-.332-9.93-1.315-12.489-2.184-3.149-1.069-6.208-1.374-9.458-.942-6.304.836-7.718-.7-6.911-7.507.319-2.699 1.164-5.841 1.877-6.983C73.544 74.899 76 74.244 76 76.059c0 .582.414.803.919.491.506-.313 1.436.996 2.067 2.908 1.154 3.496 2.847 4.284 9.514 4.431 1.1.025 3.092.207 4.427.405 2.449.364 11.991-1.507 13.992-2.744 1.835-1.134 1.215-2.785-2.169-5.785-2.127-1.885-2.818-3.061-2-3.406.688-.289 1.25-.947 1.25-1.462 0-1.291-9.361-.313-9.807 1.025-.198.593-1.474 1.078-2.835 1.078-1.362 0-2.23-.399-1.929-.886.628-1.016-4.457-2.215-5.821-1.372-1.944 1.202-8.501.979-8.994-.306-.276-.719.036-1.525.692-1.792.657-.268.181-.522-1.056-.565-1.57-.055-2.25-.694-2.25-2.114 0-3.951-.468-4.501-31.231-36.628l-8.73-9.118-10.27-.647c-5.648-.356-12.857-.89-16.019-1.189L0 17.841v131.87l6.356.593c3.496.327 11.934 2.009 18.75 3.738 6.817 1.729 15.319 3.439 18.894 3.801l6.5.657.194 8c.107 4.4.219 9.84.25 12.089.058 4.261 2.412 6.411 7.02 6.411 1.028 0 2.019.391 2.203.868.522 1.359 4.833 2.429 4.833 1.199 0-1.824 1.496-1.189 4.794 2.036 2.849 2.785 3.481 2.997 6.162 2.062 1.943-.677 4.132-.713 6.259-.103 1.8.516 3.312.938 3.361.938.049 0 .016-.995-.073-2.211-.111-1.502-1.463-2.866-4.213-4.25-3.303-1.663-3.805-2.268-2.723-3.279.835-.78 1.554-.873 1.939-.25 1.21 1.957 3.316 1.038 2.889-1.26-.229-1.238-.15-1.687.177-1 .327.687 1.345 1.214 2.261 1.171 1.05-.05 1.202-.267.411-.585-.691-.279-1.011-.904-.711-1.389.299-.485-.373-1.455-1.494-2.155-1.122-.7-2.039-2.097-2.039-3.104 0-1.664.143-1.688 1.571-.259.865.864 1.99 1.571 2.5 1.571.511 0 .929.642.929 1.427 0 .786 1.14 2.325 2.533 3.421 2.128 1.673 2.26 2.045.822 2.322-1.606.31-1.604.438.038 2.08 2.399 2.399 3.945 2.251 2.607-.25-1.654-3.09-.288-2.387 3.885 2 2.093 2.2 4.502 4 5.353 4s1.807.675 2.124 1.5c.316.825 1.055 1.5 1.642 1.5.731 0 .752-.587.066-1.869-.55-1.027-.678-2.195-.285-2.595.393-.399.04-.63-.785-.513-3.697.527-5.267.004-4.124-1.373 1.885-2.272-1.335-7.604-4.149-6.869-1.98.516-2.06.414-.727-.919 2.239-2.239 5.423-2.757 7.52-1.224 2.046 1.496 4.48 1.81 4.48.578 0-1.384-5.369-3.968-9.745-4.69-4.118-.679-6.929-2.526-3.845-2.526.947 0 1.308-.57.952-1.5-.824-2.146.935-1.855 2.335.386.842 1.348 2.123 1.807 4.49 1.61 4.345-.363 4.23-.289 2.914-1.874-.898-1.082-.71-1.491.877-1.906 1.111-.291 2.289-.093 2.618.44.329.532 1.567 1.414 2.751 1.96s3.728 1.847 5.653 2.89c4.25 2.305 7.963 2.49 10.559.526 1.067-.808 2.703-1.483 3.634-1.5.932-.018 2.322-.929 3.09-2.026.768-1.096 1.694-1.696 2.057-1.333s.66-.517.66-1.957c0-1.439-.788-3.075-1.75-3.636-1.605-.935-1.61-1.022-.059-1.05.93-.016 1.969.42 2.309.97.654 1.058 6.5 1.421 6.5.404 0-.327-.755-1.874-1.678-3.436-2.629-4.451-9.717-5.196-8.595-.903.363 1.389-.006 1.935-1.31 1.935-1.413 0-1.55.267-.617 1.2 1.815 1.815 1.448 2.798-1.05 2.815-1.819.013-1.963.201-.75.985 2.632 1.701-2.167 1.132-5-.592l-2.5-1.522 3 .628c1.939.405 2.646.286 2-.338-.55-.531-2.575-1.265-4.5-1.631-2.579-.491-3.105-.391-2 .379 1.217.848 1.029 1.045-1 1.045-2.995 0-4.425-.869-5.292-3.219-.407-1.104-1.693-1.75-3.485-1.75-1.563 0-3.714-.661-4.782-1.468-1.067-.808-2.663-1.483-3.545-1.5-.882-.018-2.8-1.141-4.262-2.495-1.462-1.355-4.565-2.967-6.896-3.583-2.331-.615-6.488-1.955-9.238-2.978-2.75-1.022-6.125-2.078-7.5-2.345-2.648-.516 3.128 0 10.25.915 3.895.5 4.094.421 2.382-.947-1.688-1.348-1.218-1.437 4.885-.923 4.858.409 6.557.253 6.058-.554-.381-.617-.232-1.122.331-1.122.563 0 1.503.895 2.088 1.99 1.371 2.56 6.516 5.22 9.324 4.821 1.696-.242.902-.96-3.568-3.225-5.953-3.016-7.297-4.224-3.635-3.266 2.409.63 5.885-1.178 5.885-3.061 0-.692.675-1.259 1.5-1.259 1.81 0 1.933-1.167.296-2.804-1.242-1.242-1.154-1.24 7.924.193 1.771.28 4.111.986 5.201 1.569 1.539.823 2.887.589 6.031-1.05 4.728-2.464 4.905-3.358 1.56-7.892-3.658-4.958-2.371-4.776 2.976.421 4.533 4.405 5.57 4.987 8.262 4.638.688-.09 1.264.42 1.282 1.131.02.822.532.633 1.404-.516.79-1.042 1.632-1.39 1.984-.819.337.545.153 1.275-.409 1.622-.578.358.548 2.112 2.597 4.044 3.821 3.604 5.458 3.54 9.362-.365 1.295-1.295 1.306-1.58.078-1.989-.789-.263-2.482-1.526-3.763-2.807-3.307-3.307-5.415-4.255-10.516-4.732-5.075-.474-7.459-1.539-10.185-4.551-1.142-1.262-3.122-2.095-4.989-2.097-1.762-.003-5.034-1.293-7.595-2.996-3.579-2.379-4.052-2.992-2.309-2.996 1.205-.002 2.451.418 2.77.933.894 1.446 6.677 4.096 7.64 3.501 1.155-.714 4.791 1.239 8.165 4.387 2.587 2.413 3.039 2.505 7 1.425 3.639-.992 4.41-.924 5.484.489 1.147 1.508 1.25 1.496 1.25-.141 0-.982-.869-2.012-1.931-2.29-2.048-.536-3.714-3.308-1.988-3.308 2.532 0 6.75 3.179 7.899 5.953.695 1.676 1.628 3.047 2.074 3.047.446 0 1.105.926 1.465 2.058.712 2.246 5.187 2.405 4.731.168-.23-1.125.404-1.343 4.75-1.63 1.967-.129 2.02-2.629.103-4.907-1.135-1.349-1.221-1.998-.337-2.544 2.846-1.759.898-7.124-3.332-9.174-4.981-2.415-6.861-2.526-6.029-.357.891 2.32-5.787.988-10.405-2.075-1.925-1.277-5.269-2.632-7.431-3.01-2.88-.504-3.548-.929-2.5-1.593 2.175-1.376 5.686-1.114 9.161.683 3.429 1.773 12.616.555 15.77-2.092 1.982-1.663 7-2.824 7-1.619 0 .52-.788 1.151-1.75 1.403-.963.251-.255.509 1.571.573 1.911.067 4.035-.597 5-1.563 2.59-2.589 2.963 1.194.397 4.018-1.08 1.189-1.758 2.723-1.508 3.41.251.688-.276 1.531-1.17 1.874-2.034.78.709 4.377 3.338 4.377 1.049 0 .501.974-1.655 2.944-3.747 3.422-3.97 4.572-1.223 6.288 1.1.687 2 1.763 2 2.392 0 .628.9 1.378 2 1.666 1.1.287 2 .115 2-.384 0-.498-.675-.906-1.5-.906s-1.5-.408-1.5-.906c0-.499.976-.652 2.169-.34 1.72.45 2.037.224 1.531-1.093-.818-2.133-.148-2.092 3.682.225 5.616 3.397 7.47 3.551 8.191.678.352-1.403 1.042-2.302 1.534-1.998.491.304.893.075.893-.507s.675-1.059 1.5-1.059c1.816 0 1.994-1.604.25-2.246-1.758-.646-3.875.235-3.197 1.331.311.503-.253.915-1.253.915-1.001 0-2.422-.965-3.158-2.145-1.173-1.878-1.141-2.069.259-1.531.879.337 1.599.147 1.599-.423s.862-.762 1.916-.428c1.054.335 2.175.189 2.492-.324.7-1.134 7.606-.338 9.342 1.077.866.706 1.25.665 1.25-.135 0-.635-.755-1.443-1.677-1.797-1.499-.575-1.472-.72.25-1.361 1.643-.612 1.338-.991-2.073-2.575-3.484-1.618-3.881-2.13-3.074-3.965.786-1.789 1.616-2.053 5.5-1.747 2.516.198 4.037.105 3.38-.207-.656-.313-.963-1.169-.682-1.902.282-.734.032-1.632-.556-1.995-.587-.363-1.068-1.485-1.068-2.494 0-1.682 1.417-1.885 17.25-2.46 9.574-.348 18.807-.219 20.75.29l3.5.917-3.5.209c-1.925.114-4.799.12-6.386.012-1.587-.107-3.173.271-3.525.841-.744 1.203-5.736 1.378-15.589.546l-7-.592 3.25 3.038c3.3 3.085 4.156 5.151 2.135 5.151-.685 0-.492.951.5 2.465 2.396 3.656 1.956 5.195-.674 2.357-1.845-1.99-3.009-2.386-6-2.036-4.147.484-4.693 1.584-1.711 3.446 2.329 1.454 2.702 3.251.5 2.406-.825-.316-1.5-.128-1.5.418 0 1.326 4.473 2.964 7.815 2.862 2.607-.079 2.583-.128-.815-1.695-3.273-1.509-3.345-1.64-1.114-2.006 1.377-.226 3.58.491 5.21 1.696 3.125 2.311 6.355 2.626 10.55 1.032 4.194-1.595 7.691-.443 6.336 2.089-.782 1.46-1.696 1.825-3.465 1.381-2.999-.753-5.362.435-3.374 1.695.917.58.283.864-1.952.875-2.24.01-3.079.387-2.597 1.167.517.836-.42.972-3.412.493-3.341-.534-4.02-.388-3.576.77.716 1.865 3.75 3.016 4.222 1.6.258-.774.742-.787 1.637-.044 1.018.845.95 1.738-.348 4.509-1.743 3.723-3.244 4.721-2.432 1.616.33-1.263-.121-2.087-1.344-2.45-1.725-.512-22.341-.462-22.341.055 0 .131 2.514 1.846 5.587 3.811 4.511 2.886 5.364 3.842 4.43 4.967-2.341 2.821.458 5.386 6.24 5.719 4.581.264 5.218.558 5.044 2.331-.169 1.727.376 2.025 3.666 2 4.947-.037 6.088-1.177 2.533-2.529-1.528-.581-2.552-1.281-2.277-1.556.275-.275 1.718-.037 3.208.53 4.678 1.778 3.003-3.027-1.849-5.307-6.895-3.24-1.17-3.987 8.324-1.087 1.633.499 2.19.385 1.734-.353-.37-.599-.208-1.376.36-1.727.568-.351.774-1.057.457-1.569-.316-.512-.125-.931.425-.931 1.512 0 2.017 1.284 2.197 5.586.213 5.098.835 7.414 1.988 7.414.513 0 .94-.787.948-1.75.01-1.106.286-1.334.75-.621.404.621 2.31.967 4.235.77 7.365-.756 32.704-.717 37 .056 3.86.695 4.185.927 2.286 1.632-3.034 1.126-1.448 5.732 2.812 8.164 2.942 1.679 3.484 3.722 1.192 4.486-.596.198-1.018-.449-.937-1.438.114-1.39-.705-1.87-3.599-2.109-3.011-.249-3.866-.789-4.358-2.75-.591-2.354-2.396-3.458-2.396-1.465 0 .621-.887.638-2.444.046-2.115-.804-3.065-.342-7.058 3.43-2.538 2.397-4.218 4.604-3.734 4.903 1.576.974 9.53-.213 10.395-1.552 1.077-1.667 2.929.804 2.141 2.857-.303.791.17 1.341 1.152 1.341.916 0 1.388-.45 1.048-1-.34-.55.046-1 .858-1 .811 0 1.632.47 1.823 1.044.192.575 1.354 1.121 2.584 1.213 2.794.211 2.825.893.117 2.585-1.67 1.042-1.855 1.569-.875 2.49.95.893 1.351.873 1.701-.082.252-.688 1.123-1.25 1.934-1.25.812 0 1.198.45.858 1-.919 1.486 1.08 1.211 2.354-.324.802-.966.781-1.641-.078-2.5-.901-.901-.604-1.173 1.274-1.162 3.559.019 6.95 1.074 6.95 2.162 0 .518-.45.664-1 .324-1.421-.878-1.241.859.242 2.342.988.988.938 1.433-.25 2.184-.958.606-1.053.949-.265.959 2.271.028 4.676 4.824 3.269 6.52-.944 1.137-.964 1.829-.084 2.889.891 1.074.806 1.745-.369 2.92-1.863 1.863-1.012 10.596 1.192 12.223 1.126.832.648 1.526-2.415 3.5-2.101 1.355-4.27 3.495-4.82 4.756-.734 1.685-1.57 2.151-3.146 1.758-1.306-.327-2.352 0-2.672.836-.391 1.017.768 1.498 4.47 1.854 7.29.7 9.321 3.105 5.348 6.332-1.65 1.34-2.868 3.109-2.706 3.932.334 1.703-.625 1.887-2.768.532-1.542-.975-2.981.322-3.011 2.713-.023 1.94 4.948 1.506 5.727-.5.437-1.123 1.052.578 1.719 4.75.967 6.048 1.23 6.522 3.789 6.816 5.11.588 2.298 5.982-3.25 6.234-2.345.106-2.295.202.805 1.557 1.817.794 3.73 1.18 4.25.859.52-.321.945-.159.945.361s-1.679 1.742-3.73 2.715c-3.169 1.504-3.443 1.871-1.823 2.439 1.772.622 1.783.717.148 1.344-.967.371-2.44.675-3.272.675-.833 0-2.709.834-4.169 1.854-1.46 1.02-3.892 2.154-5.404 2.519-3.553.859-4.011 4.869-.5 4.386 3.598-.495 5.263-1.819 3.607-2.869-.923-.584-.339-.864 1.826-.875 2.296-.011 3.359-.572 3.817-2.015.705-2.22 3.096-2.697 3.758-.75.234.688-.066 2.062-.666 3.055-.868 1.435-.718 2.018.731 2.841 1.707.969 1.717 1.152.152 2.882-1.937 2.14-1.268 3.72 2.122 5.009 1.988.756 2.403 1.609 2.403 4.938V281h19.326l-.765-54.75c-.896-64.12-1.05-66.388-4.561-67.359-1.375-.381-1.825-.759-1-.842 2.186-.219 13.291-1.158 22.489-1.903 7.543-.61 8.066-.806 9.364-3.52.86-1.798 1.639-2.448 2.08-1.735.739 1.196 36.221 1.75 38.09.595 1.028-.636 9.772-2.207 16.977-3.052 4.643-.544 22-8.118 22-9.6 0-.459.606-.834 1.347-.834 2.924 0 5.906-3.888 6.01-7.835.079-3.03-.605-4.683-3.128-7.557-5.781-6.585-3.615-9.467 4.553-6.055 7.122 2.975 11.704 9.556 7.718 11.085-2.148.825-1.85 2.886.658 4.551 2.307 1.532 2.607 5.223 6.861 84.311.621 11.55 1.771 24.635 2.555 29.078 1.651 9.353 1.878 21.025.426 21.922-1.129.698-1.31 5.699-.375 10.375l.625 3.125H475v-3.102c0-1.707-.673-12.619-1.496-24.25-2.186-30.886-6.381-93.364-7.15-106.486l-.665-11.337-5.095-2.331-5.094-2.33 4.816-.082c2.648-.045 5.616-.51 6.594-1.034 1.211-.648 4.941-.305 11.684 1.074 5.473 1.119 12.464 1.881 15.623 1.702l5.716-.324.328 8.5c.18 4.675.418-19.4.529-53.5.111-34.1-.091-67.738-.448-74.75L499.691 0h-53.238c-43.038 0-53.336.252-53.743 1.313M.472 84c0 36.575.125 51.537.278 33.25.152-18.288.152-48.213 0-66.5C.597 32.462.472 47.425.472 84m432.341-48.927c-1.477.396-2.916.491-3.196.211-.628-.628-14.82 8.633-15.891 10.37-.426.69-3.014 3.375-5.75 5.966-5.833 5.523-5.914 5.844-1.976 7.88 1.869.967 3 1.143 3 .467 0-.597.45-.807 1-.467s1 .194 1-.324c0-1.416 4.327-2.266 5.107-1.003.426.689 1.103.303 1.821-1.038.628-1.174 1.978-2.135 2.999-2.135 1.183 0 2.118-.997 2.579-2.75.611-2.325.827-2.468 1.398-.926.616 1.666.91 1.589 3.385-.886 1.491-1.491 2.718-3.212 2.726-3.824.009-.613.459-.439 1 .386.826 1.258 1.128 1.278 1.873.122.489-.758 1.276-1.155 1.75-.882s2.437-.122 4.362-.879c3.022-1.188 3.124-1.326.75-1.007-1.512.203-2.75-.019-2.75-.493 0-.778 2.421-1.253 5.75-1.13.688.026 1.25-.353 1.25-.842s.359-.777.797-.639c.438.137 2.927-.84 5.53-2.173 5.267-2.696 4.604-4.449-1.089-2.877-2.533.699-3.718.642-4.241-.205-.85-1.375-9.293-1.965-13.184-.922m-30.994 28.43c-.375.381-.561 1.211-.414 1.845.147.633.078.814-.152.402-.231-.412-.902-.75-1.491-.75-.59 0-.257.9.738 2 1.026 1.134 1.31 2 .655 2-.635 0-1.162-.562-1.17-1.25-.01-.774-.295-.869-.75-.25-.404.55-1.618 1.154-2.698 1.343-1.08.188-2.769 1.313-3.753 2.5a495.206 495.206 0 01-3.787 4.492c-3.113 3.64-2.788 3.756 10.99 3.926 9.696.119 12.927-.147 12.75-1.051-.13-.665.368-1.083 1.107-.929.739.155 1.15-.295.914-1-.237-.704-1.066-1.342-1.844-1.416l-2.633-.25c-.692-.065-.975-.87-.655-1.865.429-1.333.332-1.427-.407-.393-.677.948-1.175 1.024-1.653.25-.376-.609-.207-1.107.375-1.107S409 71.55 409 71s-.513-1-1.14-1c-.627 0-1.737-.787-2.468-1.75-1.247-1.643-1.339-1.628-1.502.25-.096 1.1-.447.27-.782-1.844-.334-2.115-.914-3.533-1.289-3.153M40.412 91.765c-1.984 1.341-2.36 5.542-.791 8.849 1.564 3.296 5.362 5.645 11.068 6.847 3.166.666 3.192.639 3.5-3.645L54.5 99.5l11.75.362c16.41.506 15.421-2.403-1.5-4.41-3.163-.375-5.75-1.066-5.75-1.536 0-.469-.654-.602-1.454-.295-.799.306-2.474-.158-3.722-1.032-2.337-1.637-11.385-2.192-13.412-.824m119.326 55c-.969.213-1.483.839-1.141 1.392.36.582-.248.866-1.442.674-1.135-.182-2.046.069-2.024.557.071 1.587-2.527 2.528-3.879 1.406-.955-.793-2.461-.748-5.5.162-3.91 1.172-4.06 1.346-2.278 2.649 1.507 1.102 2.075 1.132 2.702.145.436-.688.835-1.025.885-.75.051.275.243 1.286.427 2.247.271 1.417-.148 1.625-2.219 1.106l-2.552-.641 1.891 3.281c1.041 1.805 2.679 3.497 3.642 3.761.963.264 1.75.877 1.75 1.363 0 1.267 2.753 1.091 3.569-.229.803-1.299-1.534-3.062-3.236-2.441-1.425.521-2.617-2.153-1.319-2.956.51-.315 2.268.121 3.907.968 3.909 2.022 4.344 1.95 3.539-.584-.907-2.86 1.09-3.928 4.879-2.607 2.253.785 3.152.759 3.439-.102.214-.641 1.155-1.166 2.091-1.166 1.036 0 1.702-.783 1.702-2 0-1.1-.353-2-.785-2-.432 0-.786-.45-.786-1s.765-1 1.7-1c1.049 0 1.336-.347.75-.907-1.11-1.059-7.162-1.887-9.712-1.328m221.09 11.138c-3.12.334-5.888.831-6.15 1.103-.263.272-.236 5.52.06 11.663.471 9.794.767 11.23 2.399 11.657 1.023.267 2.113.078 2.421-.42.969-1.568 2.187-.99 2.793 1.327.709 2.712-.993 4.865-1.925 2.434-.739-1.925-5.428-2.286-5.422-.417.002.688.645 14.75 1.429 31.25s1.734 37.762 2.111 47.25l.685 17.25h17.84l-.515-4.75c-.283-2.613-1.473-29.95-2.643-60.75-1.171-30.8-2.291-56.562-2.489-57.25-.376-1.309-1.338-1.34-10.594-.347m14.587 3.847c.338 2.613.829 11.275 1.091 19.25.261 7.975.987 19.314 1.612 25.197.625 5.883.881 11.363.568 12.178-.312.815-.154 4.326.352 7.803a615.78 615.78 0 011.644 12.322l.724 6 .547-4.5c.567-4.667-.026-21.231-1.899-53-1.581-26.827-1.978-30-3.752-30-1.21 0-1.382.92-.887 4.75m-257.549 16.911c-.994 1.198-.955 1.673.198 2.415 1.24.798 1.231 1.058-.064 1.909-2.586 1.697-4.135 1.118-5.306-1.985-.654-1.733-1.859-3-2.854-3-2.37 0-3.263 1.786-1.784 3.568.676.814.915 1.794.532 2.177s-1.01.255-1.392-.286c-.383-.541-1.878-1.04-3.323-1.108-2.177-.103-2.535.226-2.092 1.92.534 2.04.53 2.04-1.546-.036-3.961-3.961-13.424-.873-12.432 4.057.252 1.254.932 1.61 2.269 1.185 2.482-.788 4.669.447 2.819 1.591-.963.595-.561 1.107 1.477 1.882 1.54.585 3.212.81 3.716.498.504-.311.916.136.916.993 0 1.997 2.69 2.012 4.675.027 1.377-1.377 1.259-1.806-1.156-4.222-1.578-1.578-2.215-2.847-1.541-3.072.632-.211 1.683.294 2.335 1.121.653.826 2.308 1.838 3.679 2.248 2.051.613 2.294.498 1.374-.649-.669-.834-.795-2.198-.313-3.394.568-1.409.827-1.54.877-.441.038.857.745 2.432 1.571 3.5 1.476 1.91 1.531 1.905 3.382-.274 1.199-1.412 2.67-2.064 4.056-1.797 3.306.637 7.674-1.275 6.224-2.725-1.599-1.599-1.457-2.763.337-2.763.825 0 1.5-.675 1.5-1.5s-.115-1.5-.257-1.5c-.141 0-1.692-.412-3.447-.915-2.448-.702-3.48-.568-4.43.576m13.8 2.466c-1.753 1.019-1.742 1.132.252 2.528 1.147.803 2.535 1.183 3.084.844.549-.339.998-.183.998.348 0 .531.9.73 2 .443 2.907-.76 2.475 1.579-.5 2.71-1.375.523-2.5 1.384-2.5 1.913 0 .53-.787.928-1.75.886-3.453-.151-16.38 1.163-17.353 1.764-.559.346.153 1.76 1.631 3.238 1.775 1.775 2.481 3.371 2.182 4.935-.492 2.576 1.097 4.195 2.264 2.307.412-.668 1.037-1.175 1.388-1.128 2.18.291 2.638-.249 2.638-3.115 0-2.489.267-2.933 1.2-2 1.439 1.439 4.184 1.548 6.564.26.955-.516 2.999-1.206 4.543-1.533 2.236-.473 2.68-.994 2.182-2.56-.477-1.505-.157-1.967 1.362-1.967 4.965 0 6.808-2.367 2.655-3.409-1.372-.344-2.384-.956-2.25-1.359.134-.402-.156-.806-.644-.897-.489-.09-1.217-.697-1.62-1.347-.402-.651-1.914-1.252-3.361-1.336-2.784-.161-3.468-1.147-1.381-1.99.848-.342.768-.52-.25-.553-.825-.026-2.325.432-3.334 1.018M49.69 192.076c-.408 1.561-.968 1.705-3.646.936-1.741-.499-5.792-.895-9.003-.879l-5.838.028-.678 4.524c-.374 2.488-.904 8.414-1.178 13.169-.275 4.755-.893 11.796-1.372 15.646-.48 3.85-.895 10.278-.924 14.284L27 247.069l5.25-.642c2.888-.353 7.05-1.033 9.25-1.51 6.96-1.51 6.58-2.333 6.276 13.573l-.276 14.491-4.219.009c-3.445.008-4.106-.281-3.609-1.578.47-1.224.061-1.51-1.781-1.25-1.612.228-2.391.99-2.391 2.338 0 1.843.667 2 8.5 2 7.209 0 8.461-.241 8.243-1.589-.202-1.249.548-1.539 3.5-1.355 2.066.13 4.545.282 5.507.34 1.392.083 1.75 1.025 1.75 4.604v4.5h22v-4.383c0-3.633.365-4.479 2.132-4.941 2.018-.528 2.101-.292 1.547 4.383-.34 2.874-.186 4.941.368 4.941.524 0 .96-.562.968-1.25.012-.935.229-.914.862.085.643 1.014.976.834 1.391-.75.299-1.147 1.067-2.085 1.706-2.085.706 0 .912.784.526 2-.541 1.703-.18 2 2.433 2 2.722 0 3.067-.328 3.067-2.918 0-4.066.932-6.071 2.857-6.145 3.537-.137-3.096-1.909-7.762-2.074-2.652-.094-6.346-.982-8.209-1.975-3.827-2.039-2.781-2.445 2.003-.777 2.924 1.019 3.391.875 5.648-1.75 1.956-2.275 2.461-2.496 2.462-1.08.001 2.304 2.305 3.162 4.842 1.804 1.436-.769 2.102-.757 2.368.042.429 1.288 11.791-.885 11.791-2.255 0-.445.672-.551 1.494-.236.822.316 1.246.976.941 1.469-.304.492.164.895 1.041.895 2.036 0 .412-3.445-2.075-4.399-1.32-.507-.841-1.224 2.373-3.552 6.136-4.445 5.975-4.86-1.914-4.934-3.93-.037-7.381-.303-7.669-.591-.289-.288.901-.524 2.642-.524 6.19 0 3.046-1.735-4.36-2.406-9.095-.824-10.642.21-10.703 7.156-.011 1.238-.414 2.25-.895 2.25-.481 0-.875-.45-.875-1s-.787-.964-1.75-.921c-1.045.047-1.247.282-.5.583 1.808.73 1.544 1.673-.895 3.196-1.842 1.151-2.065 1.131-1.578-.137.312-.813.043-2.001-.597-2.641-.884-.884-.806-1.389.328-2.106 1.217-.769 1.112-.946-.567-.959-1.132-.008-2.932-.676-4-1.483-1.067-.808-2.703-1.483-3.634-1.5-.932-.018-2.36-.984-3.175-2.147-1.868-2.667-7.503-6.248-10.132-6.438l-4.055-.296c-1.13-.083-3.691-1.65-5.691-3.482l-3.637-3.332 3.691-.036c2.031-.02 5.717-.312 8.192-.648l4.5-.613-4 1.403-4 1.403 4.75.077c2.763.045 4.75.541 4.75 1.185 0 .652-.931.875-2.258.542-1.242-.312-2.93-.142-3.75.376-1.364.863 1.267 1.548 4.228 1.102.396-.059 1.2.787 1.785 1.882 1.375 2.568 4.004 2.633 3.514.087-.237-1.23.314-2.081 1.557-2.407 1.058-.276 1.924-.032 1.924.544 0 .67 1.973.842 5.486.48 3.259-.337 5.741-.155 6.113.447.345.557 1.447.799 2.449.537 1.038-.272 2.066.157 2.387.994.851 2.218.808 2.238-2.678 1.238-5.238-1.502-6.035-1.092-3.124 1.606 1.718 1.592 3.319 2.284 4.302 1.859.861-.372 2.69-.78 4.065-.907 7.988-.736 7.765-.668 4.502-1.366-1.898-.406-2.999-1.263-3-2.335-.001-.932-.901-2.353-2-3.159-1.1-.805-1.762-1.701-1.472-1.991.9-.901 8.273 1.159 9.115 2.547 2.535 4.179 2.548 4.186 5.672 2.892 2.204-.913 3.54-.955 5.027-.16 1.113.596 2.369 1.084 2.79 1.084 1.384 0-1.06-1.863-5.577-4.252-3.074-1.625-4.673-3.218-5.197-5.178-.416-1.557-1.793-3.934-3.058-5.281-1.266-1.348-2.077-2.751-1.802-3.12.275-.368-.513-.813-1.75-.989-2.471-.351-2.914.756-1.05 2.62 1.562 1.562-.229 1.498-2.288-.082-.873-.67-1.398-1.78-1.166-2.468.281-.836-.683-1.245-2.913-1.235-2.633.012-3.018.24-1.833 1.081 1.13.803.76.892-1.5.361-1.65-.388-5.925-1.283-9.5-1.989-9.701-1.916-21-5.563-21-6.779 0-.156 2.925-.098 6.5.13 4.725.301 6.5.076 6.5-.825 0-.948.329-.966 1.398-.079 1.558 1.293 3.759 1.814 11.102 2.629 4.955.55 4.975.541 2.25-1.026-2.976-1.712-3.742-3.113-1.16-2.122 2.171.833 4.019-.395 2.267-1.506-1.05-.665-.951-.863.437-.875.986-.008 1.721-.577 1.631-1.265-.587-4.524 2.523-5.261 4.219-1 .649 1.63 1.289 2.224 1.572 1.458.37-.997.801-1.024 1.893-.117.779.646 2.872 1.32 4.653 1.499 1.781.178 5.342.58 7.914.892 2.744.333 4.937.144 5.309-.457.651-1.054.104-1.212-4.892-1.41-1.599-.063-3.109-.707-3.355-1.43-.34-.999.397-1.157 3.07-.655 1.935.363 4.534.338 5.776-.057 2.153-.683 2.088-.818-1.411-2.93-2.018-1.218-3.406-2.477-3.085-2.798 1.237-1.236-3.882-2.843-8.866-2.782-2.872.036-6.631-.21-8.354-.545-1.843-.359-3.41-.159-3.809.486-.974 1.577-3.559 1.351-3.559-.31 0-.914.7-1.224 2-.884 3.379.884 2.225-.423-2.316-2.621-2.373-1.149-6.261-2.089-8.639-2.089-3.001 0-5.738-.87-8.946-2.844-6.118-3.765-21.593-5.201-22.409-2.08m70.476 20.756c-1.078.719-1.03 1.006.25 1.497.871.335 1.584 1.267 1.584 2.073 0 .841 1.171 1.624 2.75 1.837l2.75.372-3 .778c-5.681 1.473-5.987 2.057-1.25 2.388 2.612.183 4.75.744 4.75 1.248 0 .503-1.67.816-3.711.695-2.932-.174-3.793.175-4.099 1.66-.768 3.73 4.79 4.35 7.55.842 1.644-2.091 2.51-1.067 1.729 2.046-.421 1.676-1.18 2.373-2.299 2.11-1.129-.266-2.196.743-3.294 3.114-.892 1.929-1.23 3.508-.75 3.508.481 0 .888 1.012.906 2.25.031 2.194.068 2.202 1.5.309 2.477-3.275 4.708-2.927 3.93.613-.554 2.522-.376 2.957 1.09 2.671 1.903-.373 3.135-4.843 1.335-4.843-.606 0-.856-.638-.557-1.417.299-.78-.13-1.676-.954-1.992-1.3-.499-1.263-.973.278-3.583 1.639-2.775 2.616-3.439 4.596-3.126 1.182.186.875-2.357-.444-3.676-.926-.926-.69-1.665 1.05-3.287 2.52-2.347 1.485-4.919-1.978-4.919-1.033 0-1.878-.67-1.878-1.489 0-.883-.915-1.48-2.25-1.468-1.238.011-3.6-.232-5.25-.54-1.65-.308-3.6-.16-4.334.329m42.517 12.818c-.358.358-2.773 1.19-5.366 1.848-2.594.659-4.911 1.784-5.15 2.501-.301.902.223 1.132 1.698.747 1.173-.307 2.385-.15 2.693.348.308.498 1.419.906 2.47.906 1.197 0 1.715.506 1.388 1.357-.832 2.171 4.861 3.978 10.07 3.197 4.58-.687 6.609-3.554 2.514-3.554-1.1 0-2-.477-2-1.059s.447-.783.993-.445c.577.356.904-.465.781-1.955-.252-3.049-7.96-6.021-10.091-3.891m-27.988 5.065c-1.65.912-1.788 1.223-.556 1.25.902.019 2.687.883 3.968 1.92 2.043 1.655 2.156 2.093.925 3.577-1.491 1.796.287 4.077 2.237 2.872.476-.294.722.298.548 1.316-.216 1.261.212 1.763 1.346 1.576 1.224-.201 1.523.26 1.133 1.75-.464 1.773-.049 2.026 3.337 2.039 2.865.012 3.478.267 2.367.985-.825.533-2.682.976-4.128.985-3.678.021-5.905 2.787-3.6 4.472 2.262 1.654 1.164 2.543-3.139 2.543-2.748 0-3.266-.267-2.333-1.2 2.162-2.162 1.259-3.299-2.656-3.344-3.257-.036-3.833.271-3.747 2 .079 1.567-.48 2.019-2.397 1.935-2.585-.112-6.371 3.2-5.419 4.741.299.483 1.399.414 2.459-.153 2.346-1.256 7.872-.172 5.805 1.138-.98.621-.75.857.846.868 1.205.008 2.469.465 2.809 1.015 1.009 1.633 2.229 1.145 2.823-1.128.434-1.658 1.122-2.02 3.117-1.639 1.733.331 2.56.05 2.56-.872a1.36 1.36 0 011.352-1.361c1.216 0 2.72-1.148 10.398-7.939l2.25-1.99v2.965c0 3.57 1.697 3.892 2.963.561 1.097-2.885 3.013-4.254 3.913-2.797.359.581 1.322 1.018 2.139.971 3.517-.203 4.889.35 5.479 2.209.345 1.089 1.163 1.876 1.817 1.75.654-.127 1.057.557.895 1.52-.433 2.58 1.439 2.127 3.497-.845.988-1.428 2.584-3.453 3.547-4.5.963-1.048 1.412-1.951 1-2.006-1.638-.222-7.904.207-10.499.718-2.297.453-2.64.258-2.088-1.182.422-1.099-.01-2.216-1.192-3.08-1.711-1.251-1.719-1.355-.103-1.355.985 0 1.462-.466 1.091-1.067-.363-.586-.916-.81-1.229-.496-.314.313-1.569-.085-2.79-.885s-3.407-1.613-4.856-1.807c-1.45-.194-2.591-.757-2.536-1.25.055-.493-.875-1.257-2.066-1.697-2.613-.967-4.823.055-2.839 1.312 1.038.657.916.863-.515.875-1.551.012-1.659.273-.628 1.515 1.309 1.577.45 2.013-3 1.524-3.36-.476-6.462-7.002-4.04-8.499.701-.434.585-1.123-.349-2.057-1.632-1.632-6.752-1.505-9.916.247m61.638 6.951c.366.367-1.662 1.604-4.508 2.75-5.083 2.047-7.523 4.584-4.408 4.584.87 0 1.583.675 1.583 1.5 0 1.81 3.278 1.968 5.968.288 2.352-1.469 3.78-.394 2.126 1.599-1.644 1.981.129 2.859 3.322 1.645 1.71-.65 2.584-1.735 2.584-3.207 0-1.731-.267-1.958-1.2-1.025-1.395 1.395-2.8 1.572-2.8.353 0-1.777 3.579-4.726 5.298-4.365 2.073.435 4.945-1.586 4.13-2.905-.303-.49-1.715-.598-3.138-.241-1.815.456-2.377.307-1.88-.496.489-.792-.597-1.146-3.518-1.146-2.324 0-3.926.3-3.559.666m-2.928 27.29c-4.857 2.426-7.441 3.019-14.451 3.312-9.533.398-11.705 1.122-9.898 3.3.755.909 1.724 1.094 2.799.536.905-.469 5.47-.797 10.145-.729l8.5.125-.242 4.75c-.135 2.639.198 4.75.75 4.75.545 0 .992-1.745.992-3.878 0-3.936 2.032-6.838 3.956-5.649.574.355 1.044 2.643 1.044 5.086 0 2.443.45 4.441 1 4.441s1-2.346 1-5.212c0-4.453.401-5.553 2.75-7.55 2.938-2.497 2.785-2.525-3.75-.671-3.18.902-2.34-1.521 1.017-2.932 1.659-.698 2.709-1.576 2.333-1.952-1.053-1.053-1.61-.893-7.945 2.273m-56.669 3.642c-.329.329-.343 1.262-.031 2.075.345.901.026 1.402-.819 1.284-7.723-1.079-11.888 1.921-7.801 5.62 1.027.93 1.627 2.08 1.332 2.557-.294.476.359.866 1.451.866s2.191-.788 2.443-1.75c.435-1.667.463-1.667.573 0 .086 1.302.989 1.75 3.528 1.75 3.222 0 3.451-.231 4.113-4.147.548-3.244.358-4.339-.871-5.027-.864-.483-1.316-1.542-1.005-2.352.555-1.447-1.673-2.117-2.913-.876m-28.927 1.632c-2.674.892-3.771 3.21-3.795 8.02-.013 2.589.246 2.75 4.425 2.75h4.438l.682-4.543c.848-5.658 2.929-5.38 2.744.366-.091 2.837.285 4.177 1.171 4.177.865 0 1.258-1.257 1.166-3.726-.098-2.593.316-3.818 1.36-4.026 1.144-.228 1.481.657 1.422 3.727-.115 5.934 2.178 5.1 2.999-1.092.373-2.814.501-5.294.284-5.511-.847-.847-14.439-.961-16.896-.142" fill="#d3d3d3" fill-rule="evenodd"/></svg>