<svg xmlns="http://www.w3.org/2000/svg" width="500" height="669"><path d="M11.669 5.664c-.368.368-.669 3.369-.669 6.669 0 3.3.312 5.688.694 5.306.382-.381.588-2.481.459-4.666-.221-3.754.96-5.218 2.369-2.937.44.711 67.533.878 214.309.535 117.518-.276 223.944-.517 236.502-.536 16.213-.025 22.727-.355 22.465-1.14-.266-.799-49.024-1.247-175.833-1.616-96.506-.281-180.415-.535-186.465-.565-6.05-.03-33.178.303-60.285.74-44.799.721-49.448.645-51.081-.832-.988-.895-2.097-1.325-2.465-.958m247.618 168.749c-3.417 1.269-7.467 3.133-9 4.141-3.511 2.31-16.02 8.771-19.876 10.268-1.601.621-5.611 2.714-8.911 4.651-3.3 1.937-6.675 3.819-7.5 4.183-4.37 1.926-22.479 13.547-29 18.609-11.565 8.977-12.747 10.376-15.121 17.899-4.142 13.125-1.68 26.595 8.127 44.464 4.539 8.27 6.942 15.801 17.033 53.372 3.505 13.049 7.164 29.28 7.439 33.001.102 1.376.652 3.401 1.222 4.5.57 1.1 1.607 3.799 2.303 5.999.697 2.2 2.331 5.84 3.632 8.088 1.301 2.248 2.365 4.816 2.365 5.705 0 3.37 12.761 19.568 20.737 26.323 3.17 2.684 5.913 5.218 6.096 5.632.184.414.765.752 1.293.752.528 0 3.319 1.687 6.202 3.75 8.689 6.215 15.904 10.046 22.738 12.073 1.888.56 5.909 1.964 8.934 3.12 3.025 1.156 6.859 2.283 8.52 2.504 1.661.222 5.936 1.076 9.5 1.9 6.96 1.608 14.016 2.07 21.73 1.424.688-.057 1.25-.404 1.25-.771s.563-.706 1.25-.753c5.738-.397 12.253-4.814 14.29-9.688.988-2.366 1.204-7.124.845-18.619-.655-20.98-1.191-23.216-9.092-37.939-4.371-8.143-7.234-11.513-14.451-17.001-11.797-8.973-20.351-19.98-21.235-27.327-.144-1.195-.526-2.848-.849-3.673-.678-1.731-1.719-7.723-2.346-13.5-.239-2.2-.85-5.8-1.358-8-1.125-4.875-1.518-15.089-.71-18.5.616-2.605 1.619-10.976 2.036-17 .134-1.925.52-4.4.859-5.5.339-1.1.935-6.275 1.324-11.5s.898-11.3 1.13-13.5c.233-2.2.59-7.375.794-11.5.204-4.125.707-10.65 1.117-14.5 2.393-22.459-.921-39.976-8.276-43.75-5.085-2.609-17.091-2.291-25.041.663M10.774 450.75c-.15 19.663-.024 40.25.282 45.75l.557 10 .399-7.5c.628-11.779.773-18.692.631-30-.072-5.775-.06-20.288.027-32.25.089-12.166-.233-21.75-.731-21.75s-1.011 15.725-1.165 35.75M292 451.945c-2.475.459-6.3 1.12-8.5 1.468-13.192 2.09-26.431 8.259-49.443 23.041-9.531 6.122-24.752 21.367-32.076 32.126-1.842 2.706-3.608 5.145-3.924 5.42-1.733 1.506-6.074 9.35-8.396 15.171-5.752 14.418-2.391 25.953 8.769 30.097 5.55 2.061 34.644 2.895 49.07 1.407 40.042-4.13 79.348-22.214 92.2-42.421.964-1.515 2.295-3.097 2.959-3.516 3.521-2.224 7.783-16.348 6.913-22.91-1.499-11.295-10.597-24.972-21.655-32.553-9.016-6.18-24.779-9.397-35.917-7.33M10.13 537.75c.02 24.358.269 30.205 1.197 28.127 1.429-3.196 1.14-58.877-.305-58.877-.536 0-.906 12.756-.892 30.75m.337 67.923c.3 20.17.768 36.895 1.039 37.167.662.661.681-.541.583-36.84-.047-17.325-.087-32.737-.087-34.25-.001-1.513-.47-2.75-1.041-2.75-.71 0-.867 11.617-.494 36.673" fill="#d3d3d3" fill-rule="evenodd"/></svg>