<svg xmlns="http://www.w3.org/2000/svg" width="500" height="487"><path d="M20.469 14.05c-.378.611-.406 33.363-.062 72.781.344 39.418.64 133.094.656 208.169.017 75.075.303 145.791.635 157.146l.605 20.645 7.098.715c3.905.394 15.199.688 25.099.653 9.9-.034 105.975-.319 213.5-.634s199.663-.853 204.75-1.196l9.25-.624V432.5l-2.75-.155c-8.131-.458-19.627-1.231-26.25-1.764a5316.24 5316.24 0 0 0-14.5-1.144c-9.33-.721-37.609-4.405-39.5-5.146-.825-.324-2.512-.489-3.75-.368-2.569.251-2.607.146-1.252-3.418.558-1.466 1.471-2.333 2.068-1.964.589.364.829 1.291.534 2.06-.764 1.99 1.424 1.735 3.008-.351 1.218-1.605 1.332-1.542 1.376.75.033 1.798.289 2.117.91 1.137.729-1.151.935-1.151 1.32 0 .294.878.996.333 1.974-1.53.937-1.786 1.783-2.463 2.211-1.77.381.617.222 2.003-.355 3.08-.871 1.627-.735 1.935.8 1.82 1.286-.097 1.84-.915 1.821-2.688-.015-1.402.33-3.342.765-4.31.615-1.368.432-1.623-.819-1.143-.939.36-1.611.109-1.611-.603 0-.787 1.065-1.064 3-.78 1.65.242 3 .126 3-.258 0-.385-1.8-.987-4-1.339s-4-1.111-4-1.687c0-.576-.45-.769-1-.429s-1.007.029-1.015-.691c-.012-.966-.259-.924-.946.162-.512.809-1.269 1.132-1.683.719-.413-.414-1.322.274-2.019 1.529-.696 1.254-1.282 1.719-1.302 1.031-.09-3.181-3.067-.711-5.123 4.25-2.124 5.124-3.912 7.089-3.912 4.3 0-.933-.267-.933-1.2 0-1.633 1.633-2.8 1.508-2.8-.3 0-.833-.889-1.5-2-1.5-1.1 0-2.007.563-2.015 1.25-.011.901-.26.864-.892-.134-.482-.761-.545-2.561-.139-4 .818-2.899.368-5.116-1.037-5.116-.505 0-.917 2.025-.917 4.5 0 2.523-.469 4.5-1.067 4.5-.628 0-.807-.927-.435-2.25.496-1.761.405-1.924-.417-.75-.9 1.285-1.053 1.241-1.066-.309-.008-.995-.465-1.531-1.015-1.191-.567.351-1-.49-1-1.941 0-1.407-.499-2.559-1.108-2.559-.635 0-.889.961-.595 2.25.282 1.238.137 3.15-.322 4.25-.621 1.49-.852.818-.905-2.633-.059-3.93-.412-4.725-2.32-5.237-3.159-.846-3.75-.779-3.75.429 0 .582.45.781 1 .441s1 .057 1 .882c0 2.234-1.778 2.912-2.308.88-.35-1.341-.488-1.224-.576.488-.064 1.238-.533 2.25-1.043 2.25-.509 0-1.132.788-1.384 1.75-.312 1.196-.499.959-.588-.75-.187-3.559-2.065-6.346-2.086-3.095-.014 2.326-.079 2.347-1.978.629-1.261-1.142-2.601-1.513-3.75-1.039-1.201.496-1.377.891-.537 1.205 1.773.662 1.553 2.3-.309 2.3-.857 0-1.284-.445-.948-.989.338-.547-.024-.745-.812-.442-.783.3-1.678-.12-1.991-.934-.606-1.581-4.651-1.126-5.828.655-.936 1.417-2.868-.111-2.233-1.765.298-.776 1.29-1.61 2.206-1.852 1.119-.296.908-.479-.644-.557-1.27-.064-2.097-.458-1.839-.877 1.6-2.588-4.025-5.48-8.281-4.259-1.906.546-3.274.501-3.659-.122-.338-.547-1.273-.742-2.079-.432-1.112.426-1.315.022-.847-1.682.583-2.118.535-2.141-.852-.415-1.152 1.434-1.892 1.603-3.421.785-2.235-1.196-3.213-.572-3.213 2.053 0 1.954-2.068 2.281-5.5.87-1.836-.755-1.856-.881-.25-1.537.962-.393 1.75-1.396 1.75-2.229 0-1.234-.279-1.284-1.5-.271-1.539 1.277-1.863.807-1.552-2.25.254-2.499-1.015-2.167-3.821 1-1.434 1.619-2.182 2.035-1.818 1.012.341-.956.298-1.69-.095-1.632-2.564.383-3.411-.188-2.288-1.541 1.383-1.666-.002-2.881-2.285-2.005-1.202.461-1.438.028-1.076-1.971.383-2.111.155-2.45-1.3-1.927-1.423.511-1.329.154.485-1.84 2.171-2.388 3.055-4.461 1.489-3.494-1.104.682-4.73-2.194-3.862-3.063.403-.402 1.093-.147 1.534.567.441.714 1.654 1.151 2.695.971 1.107-.191 1.79.192 1.644.923-.286 1.43 2.578 1.645 4.628.346.758-.48 1.056-1.395.661-2.033-.513-.83-1.084-.856-2.006-.09-.964.8-1.414.589-1.787-.837-.384-1.469-1.125-1.786-3.231-1.384-2.488.476-2.635.341-1.648-1.503.936-1.75.747-2.09-1.392-2.498-1.361-.261-2.475-.086-2.475.388 0 .473.45.861 1 .861s1 .675 1 1.5c0 1.753-.489 1.844-2.92.543-1.387-.743-2.358-.351-4.334 1.75-2.871 3.053-3.471 8.207-.954 8.207 1.81 0 .794 1.297-1.252 1.597-.771.113-1.69-.537-2.042-1.446-.572-1.473-.807-1.436-2.185.349-1.49 1.931-1.527 1.905-1.067-.75.327-1.887.049-2.75-.885-2.75-.748 0-1.361-.45-1.361-1s.627-1 1.393-1 1.69-.775 2.054-1.722c.512-1.336.842-1.429 1.468-.416.636 1.03.935.971 1.414-.278.385-1.002.069-1.584-.86-1.584-.808 0-1.469-.375-1.469-.833 0-.459-1.575-.834-3.5-.834s-3.5.361-3.5.802c0 .441-.787.555-1.75.252-1.667-.524-1.667-.482 0 .892 2.099 1.729 2.305 3.148.349 2.397-1.701-.652-2.904 2.988-1.243 3.758.629.292.244.42-.856.285-1.662-.205-2.008-1.014-2.048-4.795-.05-4.709-3.678-11.52-5.528-10.377-.508.314-.976-.918-1.04-2.738-.064-1.82-.322-2.521-.573-1.559-.528 2.019-2.905 2.344-3.649.5-.277-.687-.54-.274-.583.918-.188 5.161-4.627 7.777-5.771 3.401-.297-1.134-1.076-1.712-1.888-1.4-1.048.402-1.327-.376-1.152-3.21.141-2.273-.258-3.915-1.018-4.183-.777-.275-1.25.471-1.25 1.974 0 1.511-.578 2.417-1.543 2.417-1.017 0-1.319-.54-.887-1.584 1.817-4.381 1.848-5.641.103-4.211-.92.755-1.673 1.993-1.673 2.75 0 .758-.45 1.378-1 1.378s-1-.649-1-1.443c0-.925-.75-1.298-2.092-1.039-1.541.297-1.939.005-1.511-1.11.329-.858.153-1.248-.408-.901-.544.336-.989.134-.989-.448 0-.582.563-1.066 1.25-1.074.936-.012.915-.228-.084-.861-1.078-.684-1.036-.96.218-1.441.854-.328 1.831-.143 2.173.409.402.651 1.13.583 2.064-.192 1.23-1.021 1.294-.807.436 1.451-.646 1.699-.658 2.649-.032 2.649.536 0 .975-.886.975-1.969 0-1.345.478-1.785 1.511-1.388 1.039.398 1.335.119.947-.891-.623-1.625-4.123-3.584-6.458-3.615-.825-.011-2.4-.207-3.5-.437-1.1-.229-2.235-.058-2.521.38-.287.439-2.029.068-3.871-.824-3.333-1.615-3.338-1.627-.979-2.553 1.411-.554 1.865-1.121 1.121-1.4-.688-.258-1.25-1.052-1.25-1.764s-.675-1.854-1.5-2.539c-1.036-.86-1.5-.898-1.5-.122 0 .617-.477 1.122-1.059 1.122s-.738-.52-.346-1.155c.471-.761.271-.88-.586-.35-.995.614-1.144.181-.636-1.846.394-1.567.249-2.649-.354-2.649-.56 0-1.06.563-1.109 1.25-.05.688-.567-.325-1.15-2.25-1.037-3.428-1.075-3.449-1.82-1l-.762 2.5-.703-2.239c-.386-1.231-1.101-1.992-1.589-1.691-.487.302-.886-.069-.886-.822 0-.754-1.012-2.457-2.25-3.784-1.237-1.328-2.951-4.441-3.809-6.918l-1.558-4.505 7.767-4.52c8.636-5.026 24.421-17.795 32.85-26.573 9.116-9.494 10-10.503 10-11.421 0-.485 1.125-1.767 2.5-2.848 1.375-1.082 2.5-2.657 2.5-3.5 0-.844 1.11-2.407 2.466-3.474 1.356-1.067 2.244-2.162 1.972-2.434-.981-.981 1.549-5.771 3.049-5.771 1.224 0 1.411-.787.918-3.866-.499-3.125.571-7.39 5.585-22.25 10.723-31.782 17.01-62.135 17.01-82.128 0-4.73.375-6.761 1.25-6.771.883-.011.921-.231.13-.75-.708-.465-1.329-6.624-1.687-16.735-.75-21.15-4.259-33.789-9.784-35.234-1.037-.271-1.634-.902-1.326-1.401.309-.499-.969-1.546-2.84-2.328-1.87-.781-4.541-3.134-5.935-5.229-1.393-2.094-5.521-7.025-9.171-10.957-3.65-3.932-6.637-7.419-6.637-7.75 0-1.106-3.826-4.442-4.417-3.851-.321.321-.583-.167-.583-1.083 0-.917-.675-1.667-1.5-1.667s-1.5-.417-1.5-.927c0-.509-.563-1.072-1.25-1.25-.687-.178-5.3-2.926-10.25-6.107-12.199-7.841-26.122-15.921-36.982-21.464-4.96-2.532-14.868-7.786-22.018-11.677l-13-7.075-72.672-.281c-52.522-.203-72.862.027-73.359.831M246 16.553c3.575 1.346 8.675 2.595 11.334 2.775 4.59.311 4.811.21 4.388-2.001-.518-2.713-.654-2.659 2.963-1.161 1.548.642 3.115 1.204 3.482 1.25.366.046 1.004.421 1.416.834.413.413 1.359.75 2.104.75.744 0 3.135 1.125 5.313 2.5s4.899 2.5 6.046 2.5C286.929 24 296 31.083 296 34.115c0 .552.416.746.923.432C297.971 33.9 305 42.058 305 43.92c0 .777.812.991 2.25.596 2.094-.577 2.126-.52.468.816-1.673 1.347-1.627 1.474.75 2.071 1.393.349 2.532 1.251 2.532 2.004 0 .753 3.377 3.817 7.505 6.809s7.166 5.815 6.75 6.272c-.415.458-.192.509.495.113.87-.5 1.25.109 1.25 2.007 0 1.499.296 2.429.658 2.067 1.51-1.51 3.234 1.479 2.288 3.968-1.294 3.402-1.139 5.311.232 2.857 1.548-2.772 1.559-2.78 2.763-2.036.712.44.525 1.213-.556 2.294-1.507 1.507-1.488 1.686.242 2.366 1.318.517 1.428.761.373.821-1.226.07-1.252.243-.143.945.946.6 1.021 1.067.25 1.544-1.588.981-1.365 2.566.362 2.566.891 0 1.243.587.896 1.492-.329.856.121 1.757 1.057 2.116 1.262.485 1.37.937.481 2.009-.897 1.081-.793 1.383.475 1.383.955 0 1.622.822 1.622 2 0 1.1.477 2 1.059 2s.781.45.441 1 .084 1 .941 1c1.115 0 1.559.997 1.559 3.5 0 2 .5 3.5 1.167 3.5.641 0 .865.301.497.669-.367.368-.013 1.393.789 2.279 3.003 3.318 6.99 26.418 6.137 35.552-.961 10.291-4.242 26.211-5.813 28.206-.522.664-.659 1.676-.304 2.25.355.574.264 1.044-.201 1.044-.466 0-.919.967-1.008 2.149-.18 2.386-2.264 5.14-2.264 2.992 0-.692-.481-.962-1.068-.599-.588.363-.864 1.194-.613 1.846.726 1.892-10.107 12.707-18.687 18.656-4.327 3.001-9.052 6.473-10.5 7.716-2.181 1.873-10.876 6.673-22.874 12.627-3.76 1.866-2.767 2.29 11.992 5.113 7.837 1.499 14.658 2.97 15.157 3.269.498.298 2.973.716 5.5.928 2.526.212 9.668 1.717 15.871 3.344 6.203 1.628 12.192 2.959 13.309 2.959 1.23 0 1.761.436 1.347 1.107-.455.737-.008.893 1.335.466 1.202-.381 2.61-.051 3.475.814 2.242 2.242 8.889 3.663 18.243 3.898 4.85.123 8.518.645 8.527 1.215.009.55.453.325.986-.5.533-.825.976-.999.985-.388.008.612 1.14.989 2.515.839 1.375-.151 2.5.121 2.5.606 0 .484.675.621 1.5.305 1.07-.411 1.504.1 1.515 1.781.009 1.347.331 1.882.75 1.249 3.447-5.2 47.566 26.019 63.427 44.882 12.156 14.455 21.781 32.694 23.868 45.226.91 5.467.318-240.08-.698-289.75L478.733 14l-119.617.052-119.616.052 6.5 2.449" fill="#d3d3d3" fill-rule="evenodd"/></svg>