<svg xmlns="http://www.w3.org/2000/svg" width="500" height="384"><path d="M211 63.516c-7.431 1.519-12.915 3.38-18.794 6.379l-4.1 2.092 3.456 5.247c1.901 2.887 3.738 6.152 4.082 7.257.344 1.105.916 2.234 1.27 2.509.912.707 8.086 10.903 8.086 11.491 0 .268 3.336 5.39 7.414 11.383l7.414 10.896.58 11.865c.318 6.526.858 13.775 1.198 16.109l.619 4.244 4.138-.584c3.884-.547 10.637-2.305 10.637-2.769 0-.628-8.527-16.519-9.999-18.635-5.663-8.137-7.207-22.84-7.011-66.75.011-2.544-.09-2.553-8.99-.734m91.429 17.111c-1.323 8.821.546 37.727 2.571 39.766 1.342 1.353 4.6-6.761 6.582-16.393.962-4.675 2.11-9.23 2.551-10.123.772-1.563-8.615-17.801-10.322-17.855-.379-.012-1.001 2.06-1.382 4.605m-179.942 55.728c3.19 15.075 9.456 48.016 9.757 51.298.224 2.43 2.613 8.555 5.761 14.765 5.221 10.298 5.544 10.691 10.937 13.299 3.057 1.478 5.805 2.829 6.107 3.001.302.173-1.145-3.18-3.215-7.452-3.877-8-7.958-21.974-10.353-35.454-1.228-6.915-3.629-13.465-5.428-14.812-.367-.275-3.706-6.575-7.419-14-3.713-7.425-6.48-12.215-6.147-10.645m201.628 15.183c-1.288 1.878-4.315 5.235-6.728 7.459-2.413 2.224-4.387 4.423-4.387 4.887 0 1.429-12.899 14.426-25.5 25.694-6.6 5.902-15.648 14.06-20.106 18.129l-8.107 7.399 1.241 5.197a459.14 459.14 0 0 0 1.913 7.74c.748 2.83-.26 4.151-9.293 12.185l-5.315 4.728 2.3 3.272c1.266 1.8 2.889 3.877 3.607 4.617.719.739 1.984 2.654 2.812 4.255.828 1.601 3.405 4.089 5.726 5.529 12.14 7.529 12.78 10.925 3.884 20.611-3.318 3.612-2.271 4.359 4.063 2.897 4.958-1.144 5.301-1.091 6.932 1.072.944 1.251 2.308 2.291 3.03 2.311 1.932.054 7.471 1.4 14.641 3.558 10.965 3.301 25.891 5.281 29.267 3.883 5.371-2.225 21.542-20.615 24.565-27.935 3.861-9.349 6.043-11.849 15.736-18.026a2374.2 2374.2 0 0 0 16.51-10.635c8.783-5.725 11.252-5.93 19.6-1.635 11.338 5.834 43.288 7.705 57.994 3.396 4.024-1.18 2.558-1.605-12.5-3.629-6.875-.924-12.95-2.047-13.5-2.496-.55-.448-4.993-2.465-9.872-4.482l-8.873-3.667-11.7 3.133c-6.434 1.724-12.117 3.035-12.627 2.916-.51-.12-1.603.055-2.428.388-3.893 1.575-22.987 6.801-26.482 7.248-2.163.277-4.852 1.346-5.975 2.375-1.124 1.029-7.443 4.685-14.043 8.123-6.6 3.439-16.95 9.072-23 12.517-6.05 3.446-13.475 7.388-16.5 8.76-7.33 3.326-23.193 9.688-24.156 9.688-.868 0-3.034-7.362-2.725-9.261.111-.681-.315-2.491-.946-4.022-.632-1.531-2.078-7.381-3.215-13-1.136-5.619-2.694-12.692-3.463-15.717-2.443-9.616-1.988-11.171 5.111-17.481 3.468-3.082 10.899-10.985 16.513-17.562 5.614-6.576 10.584-11.957 11.044-11.957.46 0 .837-.567.837-1.261 0-.693 3.262-5.245 7.25-10.114 12.41-15.155 15.628-20.301 18.724-29.942 1.604-4.995 1.024-5.353-1.859-1.145m-54.711 15.001c-5.96 1.309-6.382 1.629-19 14.467C237.215 194.425 235.918 196 238.059 196c1.154 0 11.215 7.898 13.489 10.59 1.205 1.426 6.361-6.2 16.783-24.826 3.492-6.24 7.147-12.564 8.124-14.054 2.057-3.14 1.978-3.153-7.051-1.171M392 179.206c-7.978.781-11.07 1.647-19.299 5.402-6.17 2.816-12.557 4.911-17.25 5.657-8.091 1.288-10.475 3.387-2.701 2.379 2.613-.339 11.05-.901 18.75-1.25l14-.634 10.231-4.88c5.627-2.684 11.054-4.88 12.059-4.88 1.005 0 2.701-.661 3.769-1.468 2.343-1.773-3.748-1.874-19.559-.326m-214.845.937c-4.463 1.285-4.399 1.561 5.039 21.693 2.15 4.585 5.274 11.335 6.944 15 1.67 3.665 4.404 9.068 6.075 12.006l3.039 5.341 5.374-5.307c2.956-2.919 5.374-5.664 5.374-6.099 0-.436-2.418-5.851-5.374-12.034-7.648-15.998-12.71-26.886-13.712-29.493-.963-2.507-6.289-2.969-12.759-1.107m125.87 17.048c.013 2.37.914 6.969 2.002 10.221 1.573 4.702 1.774 6.646.981 9.5-2.422 8.72-.968 8.565 3.875-.412 2.67-4.95 6.45-11.7 8.4-15 1.949-3.3 3.471-6.068 3.381-6.152-.09-.084-3.989-.465-8.664-.846-4.675-.382-8.837-.903-9.25-1.157-.413-.255-.739 1.476-.725 3.846m-74.137 31.559c-3.474 5.363-7.233 11.427-8.352 13.477-1.12 2.051-7.275 11.951-13.677 22-15.293 24.004-23.092 36.984-23.147 38.523-.025.688-.35 1.25-.723 1.25-1.541 0-14.2 22.189-13.219 23.17 1.268 1.268 1.894.383 13.918-19.67 5.277-8.8 10.418-17.35 11.425-19a235.536 235.536 0 0 0 3.465-5.904c.898-1.598 3.723-6.098 6.276-10 2.554-3.903 4.869-7.546 5.145-8.096.275-.55 1.815-3.025 3.421-5.5a550.798 550.798 0 0 0 5.087-8c1.193-1.925 6.089-9.469 10.882-16.763 7.831-11.922 9.279-15.237 6.655-15.237-.461 0-3.681 4.387-7.156 9.75M156 236.641c-3.025 1.808-6.43 3.711-7.566 4.229-1.136.517-4.262 2.333-6.946 4.035-3.973 2.52-5.931 3.095-10.535 3.095-4.164 0-6.939.683-10.525 2.589-3.139 1.669-6.563 2.62-9.639 2.677-5.046.092-7.176-.797-4.432-1.849 2.483-.953 1.984-2.102-1.43-3.292-3.046-1.062-3.069-1.044-2.75 2.15.375 3.744 1.042 3.655-17.677 2.357-10.776-.747-11.142-.702-18 2.216-3.85 1.639-12.353 4.358-18.895 6.044-6.543 1.686-12.166 3.336-12.496 3.666-.331.33 10.647.453 24.395.271L84.5 264.5l8.966-4.832c8.864-4.779 9.002-4.815 12.263-3.26 4.998 2.383 19.356 16.673 28.929 28.792 6.078 7.695 9.305 10.964 11.191 11.338 1.458.29 4.375 1.395 6.482 2.456l3.831 1.929 2.48-2.712c3.29-3.596 10.926-15.169 11.74-17.794.74-2.383 1.892-1.737-18.882-10.586-18.166-7.739-22.76-9.767-29.464-13.004l-5.536-2.674 10.52-.076c10.079-.074 15.714.902 29.113 5.043 3.703 1.145 7.643-.897 19.611-10.161l2.244-1.737-2.384-1.562c-1.312-.859-5.021-3.98-8.244-6.934l-5.86-5.373-5.5 3.288m78.06 3.627c-14.434 21.955-17.318 26.874-16.329 27.863 1.25 1.25 6.053-2.162 18.448-13.108 8.112-7.163 8.416-7.583 7.231-10-.68-1.388-2.053-4.21-3.051-6.273-2.282-4.718-2.183-4.742-6.299 1.518" fill="#d3d3d3" fill-rule="evenodd"/></svg>