<svg xmlns="http://www.w3.org/2000/svg" width="500" height="333"><path d="M207.92 104.97c-2.518.449-6.416 1.753-8.662 2.898-2.245 1.146-6.94 3.159-10.433 4.474-9.911 3.73-18.365 8.307-20.028 10.843-.836 1.273-4.732 6.037-8.658 10.587-3.927 4.55-7.139 8.697-7.139 9.215 0 .519-1.275 2.422-2.834 4.228-7.429 8.611-8.846 19.722-2.88 22.59 1.493.717 2.725 1.842 2.738 2.5.013.657 1.101 3.817 2.419 7.021 1.759 4.278 2.018 5.681.976 5.281-.78-.299-1.419-.221-1.419.174 0 .396-2.363.849-5.25 1.008-15.162.837-38.545 6.695-60.049 15.045-4.289 1.666-9.213 3.339-10.943 3.719-1.73.38-3.769 1.315-4.532 2.078-.763.763-1.784 1.142-2.269.842-.486-.3-2.587.53-4.67 1.845-2.083 1.314-4.831 2.721-6.107 3.126-2.965.94-11.18 8.505-11.18 10.295 0 2.292-2.974 7.261-4.346 7.261-.712 0-3.134 1.575-5.383 3.5s-4.395 3.5-4.77 3.5c-1.008 0-4.429 4.32-4.468 5.643-.018.629-.708 1.402-1.533 1.719-2.167.831-1.872 6.35.5 9.365 1.1 1.399 2.015 3.045 2.033 3.658.13 4.362 12.941 11.867 31.467 18.435 3.92 1.39 18.272 4.772 26.5 6.245 3.575.641 8.451 1.795 10.835 2.567 9.675 3.129 38.424 7.046 79.665 10.851 20.323 1.875 74.827 2.172 99.5.541 9.075-.599 24.15-1.518 33.5-2.042 9.35-.524 21.275-1.418 26.5-1.988 5.225-.57 12.875-1.276 17-1.569 13.484-.96 38.535-5.99 50.45-10.13 3.878-1.348 7.5-2.54 8.05-2.65 2.714-.544 14.185-5.114 15.5-6.175.825-.666 3.593-2.36 6.151-3.765 5.552-3.05 8.849-5.747 8.849-7.24 0-.6 1.334-2.369 2.964-3.931 1.631-1.562 2.739-3.205 2.464-3.651-.276-.446 1.427-2.018 3.785-3.492 7.565-4.729 15.466-14.28 14.248-17.222-.38-.918-.831-3.185-1.002-5.037-.376-4.063-4.581-8.78-8.617-9.667-1.79-.393-3.447-1.733-4.385-3.548-.83-1.604-2.297-2.917-3.26-2.917-.964 0-2.64-.613-3.724-1.362-1.085-.749-4.102-1.676-6.704-2.059-2.601-.382-4.626-1.184-4.5-1.782.127-.597-1.344-1.509-3.269-2.027-1.925-.517-4.183-1.552-5.018-2.301-.835-.748-4.435-2.029-8-2.846-3.565-.818-11.882-2.862-18.482-4.541-6.6-1.68-14.475-3.512-17.5-4.071-3.025-.558-9.1-1.692-13.5-2.519-15.252-2.865-30.09-4.404-48.497-5.029-10.173-.345-18.995-1.041-19.604-1.547-.609-.505-3.31-.823-6.003-.705-2.693.117-15.021-.111-27.396-.508s-23.738-.718-25.25-.713c-2.223.008-2.75-.441-2.75-2.342 0-3.241-3.85-8.66-8.024-11.294-5.767-3.638-8.808-7.396-9.53-11.773-.37-2.245-1.124-4.641-1.677-5.326-.553-.684-.746-2.236-.429-3.448.317-1.211.09-2.789-.504-3.505-.595-.716-.822-1.302-.506-1.302.316 0-.074-2.137-.867-4.75-1.718-5.662-1.702-5.516-.535-4.794.51.315 1.216-.333 1.567-1.441.352-1.108 1.059-2.015 1.572-2.015 1.294 0 1.177-5.731-.134-6.541-1.33-.823-1.808-.364-2.184 2.102-.505 3.31-2.153 2.613-2.083-.882.111-5.482 3.09-9.5 4.888-6.592.369.598 1.521.865 2.559.594 1.038-.272 1.887-.068 1.887.452s1.012-.002 2.25-1.159c1.85-1.73 2.306-1.832 2.566-.577.229 1.108 1.095 1.371 3.158.958 4.268-.853 6.61 3.918 3.467 7.061-1.412 1.412-1.804 1.301-4.151-1.178-2.547-2.691-2.581-2.698-2.004-.373.323 1.301.064 3.202-.574 4.225-.89 1.425-.876 2.146.063 3.085 2.343 2.343 1.206 2.948-1.679.893-3.412-2.429-5.547-2.685-4.734-.568.316.825.139 1.5-.393 1.5-1.132 0-1.325 8.311-.219 9.417.412.412.75 1.275.75 1.916 0 .658 1.854 1.301 4.25 1.474 3.075.223 4.25-.069 4.25-1.057 0-.751 2.727-4.265 6.06-7.808 7.171-7.624 8.029-11.995 3.993-20.333-2.944-6.081-5.458-7.631-13.217-8.15a663.658 663.658 0 0 1-11.336-.863c-2.75-.242-7.061-.074-9.58.374M0 307.5V333h81.167c44.641 0 80.964-.202 80.717-.449-.246-.247-5.511-.654-11.699-.905s-11.798-.903-12.468-1.45c-.669-.547-9.43-1.322-19.467-1.723-14.447-.577-18.25-1.014-18.25-2.101 0-1.077-2.629-1.414-12.25-1.567-18.175-.29-19.76-.415-21.008-1.663-.628-.628-1.903-1.142-2.833-1.142-2.211 0-10.056-3.52-9.371-4.205.291-.291-1.331-.826-3.605-1.19-4.299-.687-11.899-4.282-13.159-6.224-.4-.615-2.087-1.682-3.75-2.371-1.663-.689-3.024-1.628-3.024-2.086 0-.458-1.656-1.144-3.679-1.524-3.718-.697-6.765-3.007-15.364-11.65-2.599-2.613-5.476-4.75-6.393-4.75-.954 0-2.116-1.284-2.714-3C.56 278.429 0 282.846 0 307.5m497.394-4.084c-.299.778-2.216 2.575-4.26 3.991-2.045 1.417-6.277 5.055-9.404 8.085-3.128 3.029-6.372 5.508-7.209 5.508-.836 0-1.521.45-1.521 1s-.466 1-1.035 1c-.57 0-2.221.777-3.67 1.726-3.258 2.135-14.903 6.269-17.717 6.289-1.143.009-2.753.452-3.578.985-.99.64 7.433.975 24.75.985L500 333v-15.5c0-14.301-.821-18.737-2.606-14.084" fill="#d3d3d3" fill-rule="evenodd"/></svg>