<svg xmlns="http://www.w3.org/2000/svg" width="500" height="396"><path d="M238.065 52.042c-1.339.567-2.971.824-3.628.572-.656-.252-1.661.01-2.233.582-.571.571-2.86 1.127-5.087 1.235-2.226.108-4.858.929-5.847 1.825-2.594 2.347-10.255 3.947-10.896 2.275-.718-1.87-4.993.341-6.331 3.275-.578 1.269-1.523 2.015-2.1 1.659-.577-.357-1.866.293-2.863 1.443-.998 1.151-2.549 2.092-3.447 2.092-.898 0-1.633.705-1.633 1.567 0 1.091-.584 1.382-1.919.959-1.363-.433-2.103-.032-2.552 1.381-.347 1.095-1.211 1.768-1.92 1.496-.709-.272-1.922.269-2.696 1.202-1.262 1.52-1.526 1.135-2.548-3.705l-1.141-5.4-.112 4.364c-.141 5.489-3.506 11.598-7.877 14.3-1.837 1.135-5.069 4.376-7.182 7.2-2.113 2.825-5.689 7.031-7.947 9.347-2.258 2.317-4.106 4.904-4.106 5.75 0 .847-.45 1.539-1 1.539s-1 1.098-1 2.441c0 2.723-1.551 4.261-2.336 2.315-.278-.691-.542.855-.585 3.435-.043 2.58-.529 4.969-1.08 5.309-.55.34-1.503 2.617-2.118 5.059-.615 2.443-1.444 4.441-1.841 4.441-.934 0-3.139 7.366-3.72 12.424-.248 2.161-1.06 5.106-1.804 6.545-2.56 4.95-1.543 37.785 1.626 52.531 2.026 9.427 6.067 19.75 13.062 33.369 7.221 14.058 9.458 17.458 10.9 16.567.461-.285 1.124.626 1.475 2.023.351 1.398 1.054 2.541 1.562 2.541s1.261.914 1.675 2.031c1.247 3.372 10.459 13.592 14.004 15.538 1.827 1.002 3.946 2.971 4.71 4.376l1.39 2.555.073-2.5.074-2.5 1.834 2.198c1.009 1.209 3.045 2.501 4.524 2.873 1.48.371 3.391 1.744 4.247 3.052.857 1.307 2.23 2.377 3.051 2.377 1.051 0 1.326.669.928 2.256-.443 1.763.126 2.691 2.606 4.25a359.089 359.089 0 0 1 5.708 3.671c4.011 2.653 6.035 2.299 6.035-1.055 0-4.631 1.688-5.221 9.018-3.154 3.565 1.005 7.774 2.333 9.354 2.951 2.131.834 3.223.832 4.238-.01 1.813-1.505 2.384.081 3.355 9.326.602 5.731.794 6.315.91 2.765.287-8.785 1.209-12.258 2.726-10.26 1.217 1.604 1.338 1.514 1.367-1.01.027-2.364.38-2.706 2.412-2.338 2.721.494 4.62-2.52 4.62-7.332 0-3.731 2.955-5.01 4.88-2.112 1.307 1.966 1.454 1.983 2.751.315 1.304-1.678 1.421-1.678 2.419-.013 1.487 2.48 2.347 2.185 3.644-1.25.842-2.23 1.773-3 3.629-3 2.567 0 3.632-3.621 4.999-17 .197-1.925.464.325.594 5 .224 8.078.298 8.329 1.48 5.058.994-2.751 1.378-3.089 1.916-1.686.386 1.004 1.169 1.449 1.832 1.039.818-.505.655-1.085-.552-1.968-.961-.702-1.286-1.514-.742-1.85 1.634-1.01 4.254.549 5.227 3.111.699 1.836 1.413 2.275 2.924 1.796 1.652-.525 1.999-.179 1.999 1.992 0 1.444.419 2.367.932 2.05.512-.316 1.601.381 2.42 1.55 1.884 2.69 3.394 1.78 4.203-2.533.532-2.838 1.156-3.47 3.937-3.992 1.818-.341 4.499-1.559 5.959-2.707 3.075-2.419 2.842-2.541 5.02 2.64l1.682 4 2.746-3.25c1.511-1.787 3.276-3.25 3.924-3.25.647 0 1.177-.359 1.177-.799 0-.753 6.12-7.227 9.407-9.951.83-.687 2.203-1.25 3.051-1.25.875 0 1.542-.865 1.542-2 0-1.1.9-2.9 2-4s2-2.258 2-2.573c0-.683 9.962-13.949 12.925-17.212 1.141-1.257 2.075-2.72 2.075-3.25 0-.531.441-.965.981-.965.539 0 1.259-1.107 1.598-2.459.34-1.352 1.247-2.981 2.016-3.62 1.585-1.315 4.267-9.211 5.409-15.921.421-2.475 1.23-5.85 1.798-7.5 4.975-14.449 5.535-18.478 5.377-38.655-.124-15.876-.272-17.041-3.155-24.941-1.663-4.558-3.039-9.213-3.058-10.345-.019-1.133-.903-3.859-1.966-6.059s-1.947-4.931-1.966-6.07c-.019-1.138-1.159-3.048-2.534-4.243-1.375-1.196-2.5-2.852-2.5-3.68 0-.829-.388-1.507-.861-1.507-.474 0-2.949-1.944-5.5-4.32-3.978-3.704-4.643-4.88-4.669-8.25-.025-3.19-.225-3.596-1.064-2.155-.93 1.597-1.351 1.401-4.219-1.966-1.753-2.058-4.425-4.949-5.937-6.426-1.512-1.477-2.75-3.638-2.75-4.803 0-1.745-.429-2.01-2.434-1.507-1.807.453-2.771.072-3.741-1.481-.718-1.151-1.818-2.092-2.443-2.092s-1.665-.636-2.31-1.414c-1.5-1.807-9.5-5.586-11.826-5.586-.977 0-3.479-.913-5.56-2.028-2.082-1.116-4.281-1.722-4.887-1.348-.606.375-1.607-.009-2.225-.853-.617-.845-3.694-2.069-6.837-2.722-3.305-.686-6.128-1.895-6.695-2.868-.59-1.01-.993-1.175-1.012-.412-.019.806-.851 1.071-2.28.727-7.303-1.76-41.342-2.868-44.685-1.454" fill="#d3d3d3" fill-rule="evenodd"/></svg>