<svg xmlns="http://www.w3.org/2000/svg" width="886" height="498"><path d="M147.638 1.5c.32.832.029 1.5-.653 1.5-.929 0-.904.393.105 1.608 1.134 1.367 1.048 1.818-.569 3C144.848 8.832 144.822 9 146.309 9c.93 0 1.691.45 1.691 1s-.505 1-1.122 1c-.768 0-.723.482.142 1.524.696.838.992 1.798.658 2.132-.334.334-.158 1.448.392 2.475.669 1.25.667 1.869-.006 1.869-.626 0-.788 2.148-.43 5.666.522 5.126.352 5.839-1.778 7.478-1.665 1.28-1.916 1.839-.856 1.904 1.015.063.853.37-.5.952-1.889.812-1.872.863.309.93 1.27.038 2.06.473 1.756.965-.305.493.147 1.164 1.004 1.493.857.329 1.264 1.073.905 1.653-.442.716-1.153.64-2.207-.235-1.361-1.129-1.453-.979-.731 1.202.453 1.371.815 4.405.804 6.742-.011 2.338.256 4.25.593 4.25.337 0 .612 1.777.612 3.949 0 3.559-.158 3.806-1.601 2.5-2.306-2.087-3.56-1.787-1.597.382.912 1.007 1.356 2.132.989 2.5-.368.368.033.669.89.669.858 0 1.833.712 2.167 1.582.961 2.504.75 2.631-1.616.975-3.564-2.497-4.565-1.783-1.277.912 1.65 1.352 2.452 2.475 1.781 2.495-.671.02-.958.715-.638 1.547.431 1.124.124 1.337-1.196.83-1.261-.484-1.553-.322-1.01.557.421.681 1.358 1.011 2.081.733.724-.277 1.584.192 1.911 1.043.427 1.114.147 1.377-.997.938-1.317-.505-1.49-.051-1.009 2.639.526 2.939.471 3.034-.574.999-.635-1.238-1.591-2.25-2.124-2.25-.534 0-.41.675.275 1.5 1.004 1.209.979 1.506-.128 1.53-.93.021-.809.359.378 1.05.963.561 1.75 1.65 1.75 2.42s.781 1.838 1.736 2.372c2.657 1.487-1.568 2.173-22.236 3.613-2.2.153-6.631.576-9.846.939-3.89.44-6.316.271-7.25-.504-1.013-.84-1.404-.852-1.404-.042 0 .617.525 1.122 1.167 1.122.641 0 .953.214.692.475-.615.614-16.418 1.837-25.108 1.943-3.712.045-6.75.307-6.75.582-.001.275-1.801.465-4.001.422-2.2-.043-4 .294-4 .75 0 .455-.838.828-1.862.828-1.415 0-1.794.628-1.576 2.615.39 3.549-.438 5.37-2.145 4.715-.779-.299-1.417-.046-1.417.563S62.864 103 63.921 103c1.808 0 1.911.793 1.75 13.5-.094 7.426.222 13.501.701 13.5.48 0 .275.72-.456 1.601-1.555 1.874-2.156 4.666-.828 3.845.502-.31.912.363.912 1.495 0 1.132-.562 2.066-1.25 2.074-.913.012-.939.214-.096.75 1.901 1.211 2.208 20.078.346 21.256-1.302.823-1.285.95.133.964 2.344.022 2.286 11.728-.061 12.36-1.282.345-1.249.444.178.539 1.997.132 2.478 4.107.5 4.131-.836.011-.753.342.25 1 1.333.876 1.333 1.094 0 1.97-.942.618-1.049.99-.288 1 .809.01 1.191 1.844 1.147 5.51-.036 3.022-.469 5.246-.962 4.941-.494-.305-.897-.115-.897.422 0 .536.558 1.161 1.241 1.389.881.294.709.946-.591 2.246-1.524 1.524-1.977 1.596-2.699.428-.61-.987-1.182-1.09-1.925-.347-.742.742.213 1.693 3.209 3.197 5.079 2.548 6.601 4.757 7.426 10.769.48 3.509.227 4.927-1.156 6.455-2.29 2.53-3.697 1.641-2.478-1.565.522-1.375.866-2.821.763-3.215-.102-.393.152-1.707.565-2.919.493-1.449.179-3.077-.917-4.75-2.238-3.416-2.904-3.22-4.095 1.204-1.096 4.068-.8 4.336-3.977-3.59-.737-1.837-2.255-3.58-3.374-3.872-1.366-.358-1.73-.903-1.107-1.66 1.896-2.307 2.092-7.819.295-8.319-.924-.257-2.588-1.892-3.697-3.633-3.098-4.861-6.447-6.074-11.352-4.112-3.73 1.493-3.934 1.774-2.911 4.021 1.08 2.368 2.78 3.294 2.78 1.513 0-.496 1.313-1.36 2.919-1.92 3.258-1.136 6.953.603 5.675 2.67-.392.634-.235 1.152.347 1.152S51 190.294 51 191.875c0 2.4-.413 2.875-2.5 2.875-1.455 0-2.5-.575-2.5-1.375 0-.756-.48-1.375-1.067-1.375-.613 0-.797.853-.433 2 .906 2.855-1.611 2.575-4.5-.5-2.883-3.069-5.869-3.177-9.472-.344l-2.741 2.157 2.856 1.172 2.857 1.172-4.5.832c-9.469 1.751-9.395 1.763-7.422-1.248l1.737-2.652-4.886-4.3c-2.687-2.364-5.683-4.552-6.657-4.862-4.316-1.369-.745-2.595 8.09-2.777 3.505-.073 4.795.413 6.564 2.469 1.32 1.535 3.712 2.804 5.977 3.172 3.722.604 3.755.58 2.267-1.589-.83-1.211-2.029-2.078-2.664-1.927-.679.161-.852-.251-.42-1 .404-.701.393-.968-.025-.593-.417.376-2.627-.299-4.91-1.5-2.541-1.336-5.956-2.182-8.806-2.182-5.489 0-5.386-1.23.179-2.12l3.908-.625-3.216-2.152c-1.769-1.184-3.66-3.154-4.203-4.378-1.043-2.352-2.037-2.804-2.943-1.338-.301.487.122 1.442.941 2.122 2.35 1.95 1.757 2.984-1.761 3.07-1.788.043-2.687.306-2 .583 1.322.534 1.781 3.45.5 3.179-1.541-.326-4.25 1.421-4.25 2.741 0 1.047-.588 1.145-2.5.418-2.474-.941-2.5-.895-2.5 4.418 0 3.849.424 5.531 1.5 5.944.864.331 1.5.018 1.5-.738C3 189.266 6.099 186 7.388 186c.401 0 .406.562.011 1.25-.396.688-.384.949.025.582.41-.367 1.494-.045 2.411.716.916.762 3.205 2.412 5.088 3.668 1.883 1.256 3.622 2.891 3.866 3.633.338 1.026-.133.972-1.963-.227-1.928-1.264-3.149-1.372-6.15-.543-2.06.569-4.517.802-5.46.518C1.034 194.34.319 196.685.101 212.38c-.202 14.563-.162 14.869 1.846 14.344 1.129-.295 2.053-.181 2.053.253s-.931 1.033-2.069 1.331c-1.66.434-2.006 1.198-1.75 3.866.311 3.24.449 3.334 5.36 3.621 2.773.162 6.148-.13 7.5-.65 2.192-.843 1.884-1.025-2.834-1.68l-5.294-.734 3.166-1.925c4.013-2.441 5.321-1.903 7.961 3.272 1.171 2.296 3.329 5.298 4.795 6.67l2.665 2.496-11.75-.721-11.75-.72v8.442l6.75-.646c3.713-.356 9.45-1.064 12.75-1.573 3.3-.51 15.584-1.126 27.299-1.37l21.298-.442-.213 5.899c-.13 3.602-.635 5.819-1.298 5.693-2.213-.421-8.586 1.321-8.586 2.346 0 .584-.675.803-1.5.486-.825-.316-1.5-.196-1.5.268 0 .894-5.639 2.483-7.75 2.184-.688-.098-1.251.18-1.251.616-.001.437-1.627.85-3.614.918-1.986.068-3.934.646-4.328 1.283-.394.638-2.818 1.201-5.386 1.253-3.542.071-4.671.474-4.671 1.667 0 1.223-.267 1.306-1.2.373-1.919-1.919-4.372-1.595-2.748.363 1.14 1.374.956 1.477-1.527.854-2.087-.524-2.628-.392-2.074.504.457.739.222 1.14-.601 1.027-2.346-.322-4.207.028-3.564.671.945.945-1.728 3.203-4.665 3.94-1.442.362-2.621 1.064-2.621 1.561 0 .497-1.8.616-4 .264-3.614-.578-4-.434-4 1.488 0 1.45.627 2.128 1.969 2.128 1.284 0 1.78.491 1.426 1.413-.319.83.209 1.606 1.282 1.884 1.002.259.166.523-1.86.587-3.482.11-3.679.293-3.605 3.366.074 3.026 1.167 4.698 3.097 4.735.445.008.543-.415.218-.942-.344-.556.677-.796 2.441-.572 2.139.27 3.032-.037 3.032-1.044 0-.785.73-1.427 1.622-1.427 1.351 0 1.408-.259.339-1.547-.921-1.11-1.486-1.221-1.998-.394-.392.635-.959.756-1.26.27-.301-.487.308-1.997 1.353-3.357s1.91-1.877 1.922-1.151c.032 1.937 2.762 4.409 3.517 3.187.938-1.518 2.505-1.21 2.505.492 0 .825-.552 1.388-1.226 1.25-.675-.137-1.338.875-1.474 2.25-.136 1.375.004 1.935.312 1.244.307-.691.974-1 1.48-.687.507.313 1.192-.134 1.522-.994.742-1.932 3.386-2.073 3.386-.18 0 1.594 3.745 2.883 4.221 1.454.489-1.466 3.632.124 4.279 2.163.815 2.568 3.675 3.438 4.784 1.456.808-1.442 1.079-1.383 2.417.527.861 1.23 2.133 1.911 2.968 1.59 1.073-.411 1.3-.052.856 1.349-.721 2.269 1.178 3.775 2.762 2.191.612-.612 1.473-1.113 1.913-1.113 1.285 0 .92 2.776-.45 3.428-.687.327-.237.406 1.001.176 1.239-.229 2-.009 1.691.489-.308.499-.083.907.499.907s1.075-.788 1.095-1.75c.028-1.384.507-1.174 2.288 1 1.238 1.512 2.627 2.75 3.086 2.75.459 0 .275-.675-.41-1.5-.898-1.082-.923-1.5-.09-1.5.635 0 1.561 1.013 2.059 2.25.497 1.238.933 1.688.968 1 .034-.687.543-1.25 1.13-1.25.612 0 .797.852.435 1.994-.486 1.53-.269 1.854.933 1.393.861-.331 1.565-1.228 1.565-1.994 0-1.856 1.637-1.782 2.362.107.35.914.001 1.5-.893 1.5-1.781 0-1.987 1.966-.219 2.081.688.045-.1.723-1.75 1.507l-3 1.426 4.5-.374c2.475-.206 3.712-.178 2.75.062-2.398.599-2.213 2.298.25 2.298 2.221 0 2.694 1.516.75 2.405-.687.314.213.316 2 .004 2.675-.467 3.262-.244 3.32 1.262.064 1.655.152 1.639.93-.171.473-1.1.891-1.437.93-.75.038.688.857 1.257 1.82 1.265 1.51.014 1.544.161.25 1.075-1.116.789-.54.901 2.25.44 2.983-.494 3.75-.305 3.75.925 0 .85.45 1.545 1 1.545s1-.675 1-1.5.498-1.5 1.107-1.5.848.675.531 1.5c-.35.914-.001 1.5.893 1.5.808 0 1.469-.45 1.469-1s.45-1 1-1 1 .862 1 1.917c0 2.814 2.166 3.127 4.874.706l2.374-2.123-.731 2.375c-.459 1.491-.361 2.147.263 1.761.546-.338 1.549.056 2.229.875.68.819 1.856 1.489 2.613 1.489.758 0 1.378.645 1.378 1.433s.9 1.718 2 2.067c1.1.349 2 1.306 2 2.126 0 .821.489 1.19 1.087.82.598-.369.865-1.521.594-2.559-.272-1.038-.086-1.887.413-1.887.498 0 .913.788.921 1.75.028 3.162 1.55 4.525 4.11 3.681l2.375-.784-2.5-.724-2.5-.724 2.667-.099c1.466-.055 2.838.415 3.047 1.043.286.858.915.858 2.518 0 3.211-1.718 6.839-1.536 5.342.268-1.49 1.796.55 3.365 2.213 1.702 1.749-1.749 2.577-1.309 1.962 1.043-.39 1.493-.203 1.933.61 1.431.645-.399.915-1.144.598-1.656-.316-.512.325-.931 1.425-.931s2.278.45 2.618 1c.34.55.141 1-.441 1s-1.059.45-1.059 1c0 1.443 2.973 1.233 3.543-.25.839-2.183 5.293-1.839 4.717.363-.621 2.376 1.299 2.474 2.66.137.933-1.601 1.022-1.607 1.05-.063.024 1.379.695 1.579 3.664 1.098 2.852-.463 3.529-.288 3.145.812-.28.805-1.546 1.291-2.967 1.141-1.67-.176-2.479.237-2.479 1.264 0 1.189.739 1.387 3.346.898 2.943-.552 3.274-.403 2.752 1.236-.534 1.676-.459 1.702.741.26 1.97-2.367 5.995-3.494 5.215-1.461-.331.861-.14 1.565.423 1.565s1.19-.499 1.393-1.11c.222-.664.957-.389 1.834.688 1.313 1.613 1.284 1.729-.287 1.141-.963-.361-1.75-.22-1.75.312 0 .533.81.969 1.8.969s2.228.395 2.75.879c1.195 1.105 14.45 2.155 14.45 1.145 0-.411 1.233-.511 2.74-.223 2.649.507 2.608.565-1.25 1.757-3.594 1.11-3.711 1.243-1.181 1.337 1.598.06 2.543.536 2.191 1.105-.372.603 1.094 1.04 3.691 1.1 3.564.082 3.877.23 1.809.856l-2.5.757 3 .763c1.65.42 3.505 1.393 4.123 2.161 1.19 1.481 4.377.85 4.377-.866 0-.586.635-.489 1.5.229 1.197.994 1.805.992 3.012-.01 1.261-1.047 1.483-.943 1.341.628-.46 5.092-.086 5.554 3.147 3.882 2.611-1.35 3-1.36 3-.075 0 2.269 3.046 3.559 5.24 2.218 1.513-.924 2.061-.808 2.865.607.646 1.136 2.204 1.75 4.445 1.75 2.227 0 3.361.443 3.2 1.25-.139.697.522 1.121 1.496.957 1.291-.217 1.682.304 1.5 2-.217 2.023.135 2.256 2.997 1.98 2.664-.257 3.451.144 4.41 2.25 1.403 3.079 2.49 3.262 3.347.563.651-2.052 2.5-2.792 2.5-1 0 .55.849 1 1.886 1s3.174.672 4.75 1.494c2.624 1.368 2.675 1.494.614 1.5-1.238.003-2.25.486-2.25 1.073 0 .972 1.608.745 5.75-.811 1.632-.613 1.632 1.402 0 2.151-.687.316-.125.324 1.25.018s2.05-.189 1.5.259c-1.047.855-1.937 4.316-1.109 4.316.263 0 1.603-.427 2.977-.95 1.77-.673 2.664-.6 3.065.25.434.918.704.907 1.15-.05.956-2.049 3.016-1.425 4.253 1.288.795 1.747 1.859 2.478 3.41 2.345 1.24-.107 3.379-.092 4.754.032 2.317.209 2.354.288.5 1.085-1.794.771-1.813.867-.184.93.998.038 2.686-.396 3.75-.965 1.549-.829 1.934-.707 1.934.616 0 1.16.596 1.496 1.999 1.13 1.099-.288 2.251-.115 2.559.383.308.498.083.906-.499.906s-1.059.498-1.059 1.107.675.848 1.5.531c.917-.352 1.5 0 1.5.905 0 1.48 5.428 1.389 10.396-.174 1.546-.486 1.794-.205 1.344 1.517-.304 1.163-.145 2.114.354 2.114.498 0 .906-.45.906-1 0-1.847 1.65-1.022 3 1.5.736 1.375 1.882 2.5 2.547 2.5.664 0 1.801.715 2.526 1.588 1.179 1.421 1.413 1.342 2.22-.75l.903-2.338 1.007 2.5c.935 2.321 1.059 2.361 1.733.557.644-1.724.885-1.582 2.139 1.25 1.494 3.375 2.925 4.203 2.925 1.693 0-.825-.525-1.5-1.167-1.5-.641 0-.9-.266-.575-.591 1.257-1.257 4.643.685 4.021 2.306-.397 1.034-.221 1.367.491.927.61-.377 2.524.174 4.253 1.226 1.729 1.051 2.687 2.193 2.129 2.538a1.197 1.197 0 0 1-1.642-.39c-.345-.559-1.107-1.016-1.691-1.016-.671 0-.604.554.181 1.5 1.396 1.682 5 2.043 5 .5 0-.55.653-1 1.45-1 .798 0 1.943-.788 2.544-1.75.874-1.4.968-1.1.47 1.5-.619 3.231 1.783 5.009 2.77 2.049.31-.931.568-.929 1.147.009.468.757-.089 1.518-1.488 2.036-1.363.504-1.805 1.092-1.133 1.508.606.374 1.389.216 1.74-.352s1.057-.774 1.569-.457c.512.316.931.098.931-.484 0-1.644 2.667-1.249 4.598.682 1.252 1.252 1.858 1.392 2.155.5.228-.683.812-1.241 1.299-1.241.487 0 .652.607.368 1.348-.346.901 1.513 2.229 5.597 4 6.793 2.946 7.374 3.094 6.483 1.652-1.085-1.755 1.044-1.073 3.347 1.072 1.223 1.14 3.327 2.19 4.676 2.333 1.348.144 3.281 1.013 4.295 1.931 1.015.917 2.138 1.374 2.498 1.015.359-.359-.128-1.246-1.082-1.97-1.644-1.249-1.643-1.319.016-1.349.962-.018 1.75.374 1.75.87s1.35 1.373 3 1.948 3 1.505 3 2.067c0 .561.629.779 1.399.483.769-.295 1.712-.029 2.096.592.486.786 1.046.658 1.851-.423.89-1.196 1.839-1.344 4.154-.646l3 .905-3.5.202c-2.28.132-2.803.376-1.5.702 1.1.275 2.372 1.01 2.826 1.634.605.831.962.8 1.333-.116.659-1.622 2.16-1.622 1.98 0-.076.688.311 1.25.861 1.25s.888-.337.75-.75c-.137-.413.425-.75 1.25-.75s1.5.645 1.5 1.433.9 1.718 2 2.067c1.1.349 2.007 1.392 2.015 2.317.012 1.326.198 1.395.875.326.69-1.088 1.016-1.104 1.65-.079.575.931 1.007.689 1.592-.893.442-1.194 1.323-2.171 1.958-2.171.787 0 .718.537-.218 1.687-1.201 1.478-1.154 1.606.378 1.032.994-.373 1.75-.188 1.75.429 0 .621 1.08.879 2.525.602 1.643-.314 2.887.083 3.558 1.134.758 1.186 1.173 1.283 1.558.366.725-1.725 3.022-1.57 3.721.25.316.825 1.35 1.5 2.298 1.5 1.53 0 1.506-.163-.219-1.468-1.673-1.265-1.711-1.473-.274-1.5.916-.018 1.895.53 2.174 1.218.383.946.755.892 1.528-.221.562-.809 1.384-1.085 1.827-.613.442.472.239 1.06-.452 1.306-.691.247-1.014.841-.718 1.32.782 1.266 3.474-.012 3.474-1.649 0-.766.45-1.393 1-1.393 1.38 0 1.256 2.344-.2 3.8-.933.933-.841 1.2.417 1.2.889 0 1.845-.563 2.124-1.25.399-.984.703-.972 1.428.058.578.821 2.002 1.098 3.826.744 1.598-.31 2.343-.299 1.655.025-2.008.947-1.437 2.617.667 1.949 1.553-.493 1.816-.221 1.383 1.433-.617 2.363 1.197 2.761 2.443.536.898-1.605 11.257-2.818 11.257-1.317 0 .452-.45.822-1 .822s-1 .439-1 .975c0 .551 1.312.713 3.018.371 2.625-.525 2.927-.365 2.317 1.224-.621 1.617-.346 1.574 2.386-.371 1.698-1.21 3.356-2.199 3.683-2.199 1.076 0 .622 2.825-.514 3.203-.694.232-.507.87.5 1.706 1.382 1.147 1.612 1.071 1.625-.537.013-1.543.179-1.614.946-.401.512.809 1.244 1.157 1.627.774s.119-1.393-.588-2.245c-.707-.852-.971-1.862-.588-2.245.898-.898 2.553 1.71 2.573 4.054.009 1.111.461 1.534 1.17 1.096.715-.443.883-.275.44.44-.883 1.431-.054 1.471 2.471.12 1.333-.714 1.934-.714 1.934 0 0 2.049 2.822.975 5.137-1.956 1.3-1.645 2.651-2.995 3.002-3 .882-.012.54 3.359-.413 4.065-.425.315.165 1.422 1.311 2.46 1.794 1.623 2.23 1.682 3.118.426.847-1.196.932-1.144.471.29-.31.962-.127 1.75.405 1.75.533 0 .969-.45.969-1s1.35-1 3-1 3-.436 3-.969c0-.532.788-.715 1.75-.405 1.477.475 1.516.394.25-.516-1.283-.923-1.23-1.082.367-1.095 1.377-.011 1.729.51 1.343 1.985-.617 2.36 1.077 2.72 1.961.416.42-1.094.826-1.229 1.316-.437.485.785 1.671.338 3.755-1.416 3.246-2.731 5.238-3.449 3.389-1.221-.612.738-.818 1.638-.456 2 1.082 1.081 4.129.745 4.545-.502.289-.868.876-.876 2.333-.03 1.103.639 1.374 1.142.626 1.16-2.054.047-4.41 2.769-3.099 3.579.604.374 2.82-1.228 4.938-3.569 2.868-3.169 4.305-4.067 5.663-3.539 1.538.599 1.317.921-1.431 2.085-1.788.758-3.25 1.904-3.25 2.548 0 .889.344.886 1.426-.012.784-.651 2.247-1.044 3.25-.873 1.044.178 1.717-.223 1.574-.939-.15-.752.822-1.25 2.441-1.25 2.573 0 2.606.063.75 1.433-1.556 1.148-1.693 1.684-.691 2.7 1.007 1.02 1.25.936 1.25-.433 0-.935.502-1.7 1.117-1.7.624 0 .886-.882.594-1.999-.288-1.099-.108-2.256.399-2.569.508-.314.664-.989.347-1.501-.316-.512.464-.938 1.734-.946 1.858-.013 2.016-.205.809-.985-1.653-1.068-2.004-.952 4.5-1.481 4.828-.391 5.077-.5 3.5-1.519-1.264-.817-1.208-.972.357-.985 1.243-.01 1.667.481 1.281 1.485-.391 1.02.054 1.5 1.393 1.5 1.083 0 1.969-.459 1.969-1.019 0-.588 1.058-.753 2.5-.392 1.54.387 2.5.202 2.5-.481 0-.609-.691-1.108-1.535-1.108-1.293 0-1.34-.355-.294-2.25.933-1.691 1.322-1.871 1.565-.724.179.839 1.323 1.968 2.544 2.509 1.303.577 2.099 1.702 1.926 2.724-.161.958.124 1.741.634 1.741 1.103 0 2.181-4.804 1.169-5.215-.385-.157-1.012-1.56-1.394-3.119-.457-1.862-.339-2.613.345-2.191.572.354 1.047 1.404 1.055 2.334.014 1.457.15 1.484.985.191.646-1 .974-1.083.985-.25.019 1.545 4.641 1.663 5.581.143.446-.722.031-.904-1.191-.523-1.031.321-2.55.106-3.375-.48-1.202-.852-1.052-.965.75-.57 1.719.376 2.25.043 2.25-1.414 0-1.048.398-1.906.883-1.906.858 0 2.443 3.739 2.225 5.25-.059.413.342.75.892.75s1-.723 1-1.607c0-1.035.547-1.397 1.538-1.017.994.382 1.82-.169 2.332-1.553.68-1.839.883-1.908 1.43-.483.35.913 1.087 1.66 1.637 1.66s.741-.675.425-1.5c-.347-.904-.006-1.5.86-1.5.841 0 1.404.92 1.357 2.219-.048 1.351.604 2.357 1.667 2.572 1.223.248 1.572-.103 1.162-1.17-.888-2.315.435-3.843 2.045-2.361.939.865 1.037 1.618.324 2.49-1.995 2.44 3.287.328 6.024-2.408.738-.738 2.21-1.342 3.27-1.342 1.061 0 1.929-.436 1.929-.969 0-.532.672-.71 1.494-.395.822.316 1.205 1.042.851 1.615-.423.685.315.8 2.161.337 1.871-.47 3.092-.269 3.668.604.685 1.037 1.142.946 2.205-.442 1.645-2.146 2.621-2.239 2.621-.25 0 .825.499 1.5 1.108 1.5.703 0 .863-.98.438-2.675-.601-2.393-.5-2.531.967-1.314 1.348 1.119 1.784 1.127 2.451.047.447-.723 1.313-1.005 1.924-.627 1.659 1.025 1.343 2.595-.388 1.931-.825-.317-1.5-.078-1.5.531 0 1.418 3.671 1.449 4.542.039.363-.588 1.275-.832 2.027-.544.752.289 1.663.046 2.024-.538.437-.708.936-.612 1.49.285.664 1.074 1.087 1.095 2.075.107 1.899-1.899 4.44-1.667 2.842.258-1.015 1.223-.96 1.5.294 1.5.847 0 1.71-.512 1.919-1.138.277-.831 1.376-.779 4.063.193 3.438 1.243 3.85 1.175 6.2-1.032 1.384-1.3 2.842-2.038 3.241-1.639.399.399.076 1.126-.717 1.616-.793.49-1.147 1.187-.786 1.548s1.686-.065 2.944-.946c2.851-1.997 3.842-2.023 3.842-.102 0 .825.45 1.5 1 1.5 1.443 0 1.233-3.724-.25-4.423-.687-.324.1-.331 1.75-.015 4.22.807 7.765 3.306 7.11 5.012-.301.784-.138 1.426.362 1.426 1.573 0 2.246-2.032 1.123-3.386-.593-.714-.782-1.594-.42-1.956 1.204-1.203 2.325-.68 2.34 1.092.012 1.37.203 1.454.879.387.729-1.151.961-1.151 1.485 0 .481 1.055.753 1.081 1.204.113.946-2.026 2.276-1.428 1.703.765-.6 2.292 1.801 1.895 4.964-.822 1.021-.877 1.75-1.047 1.75-.407 0 .603-.45 1.374-1 1.714-.55.34-.999 1.154-.999 1.809.001.655 1.108-.096 2.461-1.669 2.327-2.706 2.553-2.768 4.181-1.139 1.605 1.605 1.804 1.608 2.943.05.781-1.068 1.458-1.288 1.877-.611 1.201 1.943 2.536 1.093 2.655-1.69l.119-2.75.763 3c.42 1.65.817 2.212.882 1.25.073-1.08.931-1.75 2.24-1.75 1.789 0 1.924.24.858 1.524-.696.838-.914 1.851-.486 2.25.429.399.981.164 1.226-.524.595-1.666 5.585-1.666 5.03 0-.229.687-.904 1.25-1.5 1.25s-1.416.332-1.822.739c-.406.406 1.129.631 3.412.5 2.282-.132 4.152-.576 4.155-.989.003-.413.68-.75 1.505-.75.825 0 1.5-.45 1.5-1s.45-1 1-1 1 .761 1 1.691c0 1.475.188 1.443 1.468-.25.983-1.299 1.479-1.487 1.5-.569.026 1.107.323 1.132 1.532.128 1.798-1.492 2.219.881.467 2.633-.711.711-.086 1.034 2.005 1.034 2.986 0 3.011-.043 1.454-2.42-1.831-2.795-.902-4.619 1.016-1.995 1.568 2.145 2.558 2.241 2.558.248 0-.825.408-1.5.906-1.5.499 0 .658.951.354 2.113-.501 1.916-.343 2.002 1.677.921 1.828-.979 2.558-.896 4.056.459 1.709 1.547 1.868 1.52 2.484-.42.66-2.078 3.523-2.951 3.523-1.073 0 .55.702 1 1.559 1s1.281-.45.941-1c-.34-.55-.141-1 .441-1s1.059-.505 1.059-1.122c0-.776-.464-.738-1.5.122-1.243 1.032-1.5.922-1.5-.637 0-1.035.9-2.444 2-3.131 1.186-.74 2-.838 2-.24 0 .554-.562 1.022-1.25 1.038-.713.018-.515.459.458 1.027.943.549 1.455 1.657 1.143 2.469-.311.811-.014 1.474.659 1.474.769 0 1.044-.938.74-2.525-.401-2.103-.171-2.426 1.378-1.934 1.477.468 1.719.217 1.178-1.226-.604-1.612-.487-1.658 1.049-.407 1.31 1.066 2.011 1.126 2.887.25 1.563-1.563 2.31-1.463 4.355.582 1.654 1.654 1.706 1.603 1.051-1.007-.748-2.979 1.251-3.558 2.532-.733.49 1.082.699.874.75-.75.04-1.29-.524-2.25-1.323-2.25-.766 0-1.652-.675-1.969-1.5-.67-1.748.687-1.932 3.428-.465 1.064.57 1.934 1.92 1.934 3 0 1.081.45 1.965 1 1.965s1-.498 1-1.107.661-.853 1.468-.544c.807.31 1.705.18 1.994-.288.29-.468-.146-1.109-.968-1.425-2.139-.821-1.843-2.312.585-2.946 1.518-.397 1.931-.159 1.531.883-.36.938.127 1.427 1.421 1.427 1.117 0 1.969-.675 1.969-1.559 0-.857.45-1.281 1-.941.55.34 1-.294 1-1.41 0-1.507.449-1.864 1.75-1.389 1.571.573 1.555.416-.155-1.531-1.048-1.194-1.399-2.17-.781-2.17s.864-.675.548-1.5c-.762-1.986 1.08-1.915 3.114.119.891.891 1.905 1.333 2.255.983.35-.349.103-1.168-.548-1.819-1.442-1.442-1.556-3.783-.183-3.783.55 0 1 .745 1 1.655 0 1.54.127 1.54 1.829 0 1.006-.91 2.175-1.655 2.599-1.655.937 0 6.504-2.358 12.544-5.312 2.46-1.204 4.822-2.075 5.25-1.938.428.138.778-.2.778-.75s.788-1.003 1.75-1.007c.962-.003 3.072-.878 4.688-1.943 1.615-1.065 3.372-1.667 3.904-1.339.532.329.649.084.261-.545-.472-.763-.137-.924 1.009-.485 1.103.424 1.476.271 1.045-.427-.418-.676 1.76-1.895 5.76-3.226 3.537-1.178 7.028-2.875 7.757-3.772 1.162-1.429 1.079-1.537-.674-.873-1.1.416-3.35 1.026-5 1.354-3.075.613-17.077 7.538-26 12.86-5.971 3.561-9.679 3.556-22.5-.03-4.675-1.307-10.075-2.678-12-3.045-1.925-.368-6.425-1.504-10-2.524-3.575-1.021-17.285-4.195-30.467-7.053-31.134-6.75-55.404-13.695-53.792-15.393.417-.44-.366-.49-1.741-.111-1.908.527-2.145.441-1-.36 1.199-.84.898-1.077-1.5-1.181-5.542-.241-5.966-.393-6.33-2.268-.208-1.074.068-1.603.648-1.244.556.343 1.239.059 1.518-.632.402-.998.522-.999.585-.006.043.688.535 1.25 1.092 1.25.596 0 .399-1.472-.477-3.568-.82-1.962-1.448-3.875-1.395-4.25.272-1.936-.282-2.511-1.141-1.182-.759 1.175-.973.922-.985-1.167-.008-1.466.547-2.929 1.235-3.25 1-.466 1-.7 0-1.166-1.802-.841-1.538-2.417.405-2.417 1.488 0 1.473-.201-.155-2-1.747-1.93-1.747-2 0-2 1.691 0 1.701-.12.153-1.831-.912-1.007-1.469-2.02-1.24-2.25.23-.231.7-6.269 1.044-13.419.344-7.15.824-15.25 1.068-18 .243-2.75.681-12.875.973-22.5.292-9.625.734-19.3.982-21.5.248-2.2.738-8.05 1.089-13 .526-7.406 2.287-15.319 2.401-10.781.036 1.445 3.03.523 3.03-.933 0-.55-.675-.741-1.5-.424-1.861.714-1.991-.97-.159-2.062.875-.523 1.686-4.531 2.338-11.562.887-9.559 1.339-11.235 4.042-15 1.674-2.331 3.751-5.93 4.615-7.999C676.431 200.33 692.94 186 698.381 186c.89 0 1.619-.675 1.619-1.5s-.45-1.5-1-1.5-1-.45-1-1 .675-1 1.5-1 1.5-.398 1.5-.883c0-1.718 4.173-1.943 7.813-.422 2.028.847 3.799 1.488 3.937 1.423 1.174-.554 2.25.171 2.25 1.514 0 1.326-.748 1.531-4 1.095-6.855-.92-5.119 1.751 1.864 2.867 3.6.576 4.088.444 3.548-.963-.983-2.562.327-5.093 1.942-3.752.731.607 1.651.783 2.042.391.807-.806 2.565 1.572 2.589 3.499.01.885-.817 1.062-2.735.584-2.415-.601-2.593-.494-1.458.885 1.158 1.405.6 1.518-5.337 1.079-11.175-.826-16.68 3.03-5.955 4.171.9.096 3.447.52 13 2.165 5.245.904 19.38.157 21.469-1.134.575-.355 1.319.069 1.655.943.443 1.156.955 1.302 1.878.536 1.541-1.278 10.306-1.656 12.789-.55 1.275.568 1.707.402 1.5-.575-.16-.755.226-1.276.859-1.156.632.119 1.429-.894 1.769-2.25.597-2.381 2.581-3.508 2.581-1.467 0 .55.659 1 1.465 1 .805 0 1.946.9 2.535 2 .589 1.1 1.535 2 2.103 2 .568 0 .103-1.307-1.035-2.904-2.427-3.408-2.693-4.86-.568-3.096 1.908 1.583 1.886 1.08-.129-2.958-1.022-2.048-1.258-3.503-.635-3.903 1.433-.921 2.791-5.583 1.371-4.705-.691.427-1.107-.212-1.107-1.702 0-2.082-.382-2.33-3-1.945-1.715.251-3-.012-3-.614 0-1.622 1.772-2.345 2.278-.929.246.691.834.894 1.306.452.472-.443.314-1.141-.35-1.551-.88-.544-.945-1.667-.238-4.13 1.161-4.048.53-5.092-1.475-2.442-.903 1.195-1.469 1.43-1.489.618-.018-.72-.482-1.031-1.032-.691-.55.34-1 .099-1-.535s.9-1.388 2-1.675c1.1-.288 2-1.146 2-1.907 0-1.554-1.585-1.864-2.442-.477-.826 1.336-4.558.089-4.558-1.523 0-.76-.337-1.417-.75-1.46-.413-.042-1.65-.264-2.75-.494-4.15-.867-8.455-.711-9.738.353-1.687 1.4-4.312-.084-3.234-1.828.612-.989-.324-1.138-4.239-.675-5.652.67-9.289-1.028-9.289-4.336 0-1.847 1.468-2.465 5-2.105 5.095.519 10.571-1.039 10.571-3.008 0-1.813-.479-1.988-4.285-1.559-2.357.266-4.286.089-4.286-.394 0-.482-.9-.877-2-.877s-1.887.405-1.75.9c.243.875-.212 1.1-2.225 1.1-.558 0-.709-1.332-.352-3.114.547-2.738.392-3.041-1.287-2.508-1.05.333-4.52.828-7.711 1.099-3.19.272-6.56.981-7.488 1.577-1.444.928-1.363 1.015.563.608 2.672-.564 2.977.815.5 2.258-1.503.875-1.37 1.023.941 1.05 1.48.016 2.999.529 3.377 1.139.776 1.256-7.695.188-8.568-1.08-.275-.399-1.625-.626-3-.504s-2.95-.058-3.5-.401c-.55-.343-1.675-.641-2.5-.663-.825-.021-4.122-.622-7.326-1.336-4.979-1.11-5.997-1.088-7 .149-.646.795-1.89 1.693-2.765 1.994-2.006.69-4.808-.968-3.409-2.018.55-.412 1.069-2.1 1.153-3.75.277-5.429 2.74-11.958 5.469-14.5a397.753 397.753 0 0 1 6.477-5.846c4.389-3.87 12.612-15.917 11.19-16.391-.529-.176.759-1.545 2.863-3.042 2.103-1.496 3.344-2.721 2.758-2.721-.607 0-1.014-1.831-.945-4.25.115-4.004-.98-7.522-2.749-8.83-1.177-.871.294-3.92 1.891-3.92 1.556 0 1.684-1.51.381-4.5-.849-1.948-.889-1.942-1.54.226-.898 2.99 2.473 3.401-71.448-8.706-49.212-8.06-43.841-6.78-43.658-10.403.155-3.062.239-3.111 4.732-2.802 3.228.222 4.955-.146 5.872-1.25 1.081-1.303 1.045-1.565-.218-1.565-.989 0-1.466-.869-1.372-2.499.169-2.929.844-3.072 4.181-.885 1.357.889 3.58 1.404 4.94 1.144 1.549-.296 3.05.165 4.018 1.235 1.201 1.327 2.67 1.599 6.592 1.223 3.143-.302 5.97.01 7.499.828 1.821.975 2.745 1.023 3.582.186 1.57-1.57 5.461 3.288 4.044 5.049-.539.67-1.294 2.682-1.676 4.469-.682 3.191-.63 3.25 2.885 3.25 2.515 0 3.579-.446 3.579-1.5 0-.825-.562-1.507-1.25-1.515-.865-.011-.806-.297.191-.928.793-.501 3.509-.757 6.036-.569 3.849.286 4.594.056 4.594-1.419 0-1.304-.865-1.794-3.334-1.886-7.303-.275-7.451-6.183-.155-6.183 1.166 0 1.912-.686 1.903-1.75-.013-1.485-.158-1.524-.959-.258-1.094 1.73-2.642.557-3.179-2.409-.483-2.669-2.847-3.248-2.847-.698 0 1.421-.465 1.874-1.513 1.472-.832-.32-2.138-.062-2.902.573-.994.824-1.495.84-1.757.054-.261-.784-1.739-.733-5.151.18-5.46 1.46-8.41-.326-4.908-2.972 1.531-1.157 1.385-1.263-1.269-.92-2.16.278-3.089.995-3.32 2.557-.329 2.235-1.634 2.864-2.622 1.265-.308-.498-1.398-.687-2.421-.42-1.283.336-2.031-.16-2.406-1.593-.664-2.54.1-2.676 1.867-.331 1.166 1.547 1.274 1.373.933-1.5-.269-2.271.027-3.25.983-3.25 1.436 0 3.007-1.812 2.237-2.582-.554-.554-6.907 2.047-6.467 2.649.174.238-.718 1.429-1.983 2.647-2.28 2.194-2.744 1.775-2.33-2.104.149-1.389-.241-1.72-1.466-1.25-.918.352-2.532.64-3.587.64-1.232 0-1.918.694-1.918 1.941 0 1.068-.45 2.219-1 2.559-.55.34-1-.069-1-.91 0-.947-.57-1.308-1.5-.952-.825.317-1.5.051-1.5-.59s-.47-.876-1.044-.521c-.574.355-1.623.164-2.332-.424-.927-.769-1.8-.695-3.114.266-1.707 1.249-1.649 1.379.899 2.019 3.858.968 3.173 4.244-.79 3.776-1.857-.22-2.611.04-2.172.75.845 1.368 2.811 1.688-17.376-2.833-17.198-3.852-17.529-3.886-25-2.558-4.164.74-16.796 2.521-28.071 3.958-20.921 2.666-39.911 5.284-43.5 5.998-8.123 1.614-13.699 2.529-18 2.954-2.75.271-8.15.955-12 1.519-27.491 4.028-55.615 7.182-58.466 6.555-1.458-.32-9.375.095-17.593.923-8.217.828-21.916 2.197-30.441 3.043-32.142 3.187-45.667 4.662-51 5.562-7.567 1.278-22.072 3.083-24.5 3.048-4.332-.061-59.279 5.025-63.627 5.89-2.545.506-9.538 1.147-15.541 1.424l-10.914.504-.354-24.701c-.195-13.585-.477-26.05-.628-27.7-.15-1.65-.31-9.187-.355-16.75L170 0h-11.469c-9.783 0-11.384.22-10.893 1.5m677.323 5.021c-4.189 2.241.757 3.843 6.075 1.966 5.184-1.829 4.391-1.923 7.412.878C841.367 12.07 841.636 13 839.5 13c-.825 0-1.5-.408-1.5-.907 0-.505-5.324-.812-12-.692-9.622.173-12-.057-12-1.16 0-.937-.661-1.166-2.074-.718-1.14.362-3.414.103-5.052-.575-2.379-.986-3.763-.975-6.883.055-2.147.709-6.736 1.262-10.198 1.23-3.461-.032-8.425.396-11.032.952-4.575.974-4.687 1.082-3.25 3.135 1.643 2.345 1.976 4.099.618 3.26-.479-.296-1.871.329-3.092 1.388-1.222 1.06-2.521 2.063-2.887 2.229-1.514.689-6.83 8.386-6.479 9.381.21.592-.8 1.615-2.243 2.273-1.605.731-2.415 1.741-2.086 2.599.753 1.96-1.929 3.941-4.079 3.013-.97-.418-2.776-.661-4.013-.54-1.712.167-2.25-.301-2.25-1.958 0-1.576-.438-2.011-1.582-1.572-.87.334-1.77.607-2 .607-1.401 0-.083 5.192 1.582 6.232 2.367 1.479 2.6 2.768.5 2.768-.825 0-1.5.47-1.5 1.044 0 .574-.562.936-1.25.804-1.787-.343-5.75 1.13-5.75 2.138 0 .468-.266 1.543-.591 2.39-.41 1.07.2 1.739 2 2.191 1.425.357 2.623 1.389 2.661 2.291.055 1.281.26 1.202.93-.358.696-1.619.873-1.679.93-.317.038.925.97 1.968 2.07 2.317 2.675.849 2.521 1.942-.464 3.302-2.456 1.119-4.589-.033-2.478-1.338.651-.402-.034-1.258-1.701-2.123-3.184-1.651-7.808-.958-7.035 1.055.277.722-.538 2.436-1.811 3.809-2.683 2.893-1.922 6.063.802 3.339 1.937-1.937 6.218-1.158 7.093 1.291.327.916.857 2.228 1.178 2.915.328.703-.073 1.25-.917 1.25-.825 0-1.727.562-2.005 1.25-.403 1-.52 1-.583 0-.093-1.473-5.079-1.718-5.079-.25 0 .55 1.152 1 2.559 1 3.021 0 2.377 1.694-1.156 3.037-1.322.502-2.403 1.551-2.403 2.331s-.675 1.677-1.5 1.994c-2.151.825-1.849 2.314.601 2.954 1.156.303 1.804 1.029 1.441 1.617-.899 1.454 4.659 1.388 7.911-.094 1.401-.638 2.547-1.763 2.547-2.5 0-.778 1.097-1.339 2.617-1.339 2.085 0 2.515-.389 2.116-1.914-.439-1.679 2.823-3.864 4.005-2.682 1.381 1.382.869 4.586-.819 5.122-1.071.34-1.716.993-1.433 1.451.574.929 8.574.167 9.794-.934.43-.387 3.58-.315 7 .16 9.033 1.255 18.661 1.473 19.009.431.165-.496 1.036-.167 1.934.732.899.899 3.204 1.634 5.122 1.634 1.919 0 3.638.337 3.822.75.444 1 10.075 4.25 12.595 4.25 1.096 0 2.553.675 3.238 1.5s2.063 1.5 3.063 1.5c1.001 0 2.102.457 2.447 1.016.346.559 1.011.78 1.478.491 1.149-.71 4.177 2.417 3.462 3.574-1.036 1.676.806.951 2.108-.829.703-.962 1.562-1.466 1.908-1.119.346.346-.069 1.327-.921 2.18-1.401 1.401-1.356 1.612.466 2.191 1.11.352 1.76 1.058 1.445 1.568-.316.51.101.928.926.928 1.724 0 3.134 1.817 2.164 2.788-.36.36-1.073-.008-1.585-.817-.622-.984-.935-1.06-.946-.229-.015 1.265 2.429 4.428 7.064 9.141 1.419 1.442 2.89 3.858 3.27 5.37.461 1.839 1.343 2.747 2.67 2.747 2.282 0 2.688 2.515.539 3.339-1.517.582-1.713 1.528-1.741 8.411-.009 2.338-.369 4.25-.8 4.25-1.592 0-1.92 4.45-.447 6.077 1.339 1.48 1.255 1.808-.818 3.166-1.272.833-3.199 3.364-4.282 5.625-1.084 2.26-2.319 4.114-2.745 4.121-.426.006-1.202 1.136-1.725 2.511-.523 1.375-1.398 2.5-1.944 2.5s-.732.68-.413 1.511c.411 1.071.121 1.336-.994.908-1.522-.584-6.649 3.831-6.649 5.727 0 .47-.623.854-1.383.854-1.61 0-3.038 4.339-1.591 4.833.535.184.974 1.019.974 1.857 0 .884-.579 1.302-1.378.995-.758-.291-1.771-.148-2.25.316-1.138 1.103-6.372.069-6.372-1.257 0-.563-.788-1.613-1.75-2.334-1.652-1.237-1.655-1.481-.055-4.346l1.695-3.035-3.195.418c-1.757.23-3.195.477-3.195.549 0 .073-2.555.282-5.678.467-8.836.521-11.993 1.989-16.234 7.55-2.092 2.743-4.43 4.987-5.196 4.987-2.158 0-1.643 3.423.858 5.701 4.426 4.031 12.133 6.3 23.25 6.844 10.433.511 16.693 1.536 19.129 3.131 1.981 1.298 2.411 1.193 4.774-1.17l2.597-2.597v2.685c0 1.477-.715 3.208-1.588 3.847-1.432 1.047-1.375 1.568.582 5.322 2.776 5.327 4.762 13.172 6.514 25.737 2.074 14.872 2.216 15.363 5.694 19.755 3.482 4.396 3.812 6.773 2.354 16.934-.93 6.474-.335 9.047 1.892 8.193 1.351-.519 1.356-.824.038-2.706-2.047-2.922-1.87-3.676.859-3.676 3.3 0 6.333 3.478 4.724 5.417-.871 1.049-.915 2.001-.159 3.414 1.136 2.123-1.106 5.278-2.337 3.287-.597-.966-5.101-.923-6.082.058-.279.278-.676 2.715-.883 5.415-.207 2.7-.701 7.384-1.097 10.409l-.721 5.5 6.24.316c3.432.173 7.284.999 8.559 1.834 1.382.906 5.263 1.646 9.615 1.833 4.013.173 9.505 1.035 12.205 1.916 2.7.88 7.087 1.601 9.75 1.601H886v-3.969c0-2.926-.356-3.832-1.354-3.449-1.907.732-8.647-3.77-8.358-5.582.132-.825.812-1.5 1.512-1.5 2.042 0 3.11-2.607 2.126-5.194-.755-1.987-.503-2.541 1.588-3.494 2.804-1.278 3.014-1.884 1.261-3.637-.946-.946-.957-1.654-.047-3.111.951-1.522.882-2-.357-2.475-1.32-.507-1.234-1.074.618-4.071 2.026-3.278 1.991-6.242-.058-4.975-.512.316-.931-.352-.931-1.484 0-1.132.54-2.059 1.2-2.059.887 0 .907-.293.078-1.122-.617-.617-.884-1.742-.593-2.5.604-1.574-1.248-1.894-2.185-.378-.928 1.501-6.087 1.203-7.442-.43-.95-1.144-.774-1.652.877-2.535 2.651-1.419 2.689-3.431.052-2.742-1.331.348-2.359-.12-3.035-1.383-.647-1.209-2.092-1.91-3.937-1.91-1.663 0-3.31-.705-3.834-1.64-.517-.925-1.433-1.322-2.098-.911-1.506.93.447 3.551 2.646 3.551.965 0 1.265.574.856 1.639-.767 1.998 1.511 7.497 2.91 7.025 1.667-.563 3.155 2.361 2.718 5.341-.306 2.083-1.088 2.929-3.056 3.305-3.74.715-4.429-.046-3.676-4.06.603-3.217.48-3.473-1.43-2.973-1.586.414-2.455-.158-3.597-2.365-1.527-2.954-3.116-4.08-2.13-1.509.296.771-.106 2.234-.894 3.25-1.356 1.749-1.597 1.647-4.528-1.903-1.703-2.062-3.712-3.75-4.464-3.75-.752 0-1.833-.87-2.403-1.934-1.306-2.441-1.319-3.359-.035-2.566 1.468.907 1.223-.23-.671-3.121-1.404-2.142-1.448-2.687-.279-3.41.766-.473 1.074-1.178.686-1.566-.766-.767 3.698-3.403 5.762-3.403 1.415 0 2.684-4.767 1.389-5.215-.453-.157-.413-.946.089-1.753.764-1.23 1.233-1.098 2.892.816 1.089 1.256 2.24 2.254 2.556 2.218 3.143-.359 4.449.1 3.954 1.39-.456 1.189.007 1.294 2.518.574 1.693-.486 3.303-.517 3.579-.07.277.447 2.133 1.119 4.125 1.493 2.385.447 3.794 1.339 4.128 2.613.628 2.403 1.114 2.417 3.155.091.889-1.014 2.69-2.412 4.002-3.108 1.863-.987 2.084-1.45 1.008-2.115-1.096-.677-1.123-1.104-.135-2.092 1.759-1.759 1.578-5.842-.258-5.842-.825 0-1.514.563-1.532 1.25-.021.832-.439.724-1.25-.325-1.376-1.779-7.24-4.07-8.133-3.177-.322.322-.585.005-.585-.704 0-.978-.33-1.015-1.371-.151-.932.773-2.134.833-3.75.186-2.103-.842-2.147-.961-.379-1.031 1.668-.066 1.751-.242.5-1.063-1.333-.876-1.333-1.094 0-1.97 1.003-.658 1.086-.989.25-1-.687-.008-1.25-.69-1.25-1.515 0-1.002 1.002-1.5 3.019-1.5 2.766 0 2.963.222 2.354 2.649-.464 1.851-.323 2.438.47 1.948.748-.462.936-.088.551 1.101-.35 1.082-.245 1.367.262.714 1.921-2.475 5.51-2.335 7.962.31 1.321 1.425 2.525 2.408 2.675 2.185.15-.224.795-1.097 1.432-1.94 1.372-1.814-.107-9.954-2.031-11.177-.819-.521-.67-.764.473-.775.916-.008 1.867.547 2.113 1.235.245.688.788.932 1.207.543 1.338-1.244-.352-3.793-2.515-3.793-1.341 0-1.831-.419-1.367-1.17.471-.762.198-.968-.782-.592-1.152.442-1.537-.248-1.638-2.937-.131-3.486-.105-3.509 3.341-2.862 3.435.644 3.474.611 3.474-2.894 0-3.583-1.371-4.318-6.75-3.62-.687.09-1.25-.559-1.25-1.44 0-.882.45-1.325 1-.985.55.34 1-.271 1-1.358 0-1.086.563-2.21 1.25-2.496.91-.379.773-.908-.5-1.943-2.653-2.158-2.114-2.862 1.65-2.156 3.308.621 3.402.548 3.459-2.704.032-1.839.28-5.755.55-8.703.484-5.264.457-5.329-1.458-3.595-1.771 1.602-1.951 1.612-1.951.11 0-.988-.806-1.655-2-1.655-4.085 0-1.777-5.008 2.5-5.425 1.215-.118.679-4.939-.602-5.41-1.601-.59.14-2.164 2.411-2.18 1.789-.013 1.915-.197.691-1-.941-.618-1.127-1.265-.5-1.735 1.855-1.392 1.368-31.25-.51-31.25-.874 0-2.186-.562-2.915-1.25-1.06-1-1.417-1-1.783 0-.698 1.904-2.42 1.491-2.086-.5.171-1.019-.332-1.75-1.206-1.75-1.406 0-4-1.816-4-2.801 0-.244 1.815-.734 4.034-1.088 3.974-.636 7.66.482 9.201 2.789.422.632.741.144.75-1.15.009-1.34-.592-2.25-1.485-2.25-1.886 0-1.992-3.874-.125-4.59 1.749-.672 1.77-4.901.041-8.234-.86-1.658-.996-2.977-.383-3.715.522-.63.654-1.441.292-1.803-.362-.362-.235-.658.283-.658.576 0 .939-17.703.934-45.5-.004-25.025-.102-45.5-.218-45.5-.115 0-1.785.929-3.71 2.065-2.935 1.732-3.867 1.87-5.764.855-1.863-.997-2.435-.94-3.231.322-1.049 1.663-6.09.657-8.119-1.62-1.101-1.236-12.5-1.853-12.5-.677 0 .844 5.124 3.491 6.25 3.23.413-.096.75.261.75.795 0 .533-1.595.909-3.544.836-2.468-.093-3.392-.53-3.044-1.438.275-.717.07-1.57-.456-1.895-.526-.325-.956-.157-.956.374s-.833.748-1.851.482-2.561.226-3.428 1.093c-.868.868-2.034 1.578-2.591 1.578-1.883 0-2.266-2.006-.685-3.588.866-.865 1.318-1.987 1.005-2.493-.789-1.277-5.45-1.158-5.45.14 0 .582-.396.815-.879.516-1.909-1.18-10.986-1.217-13.16-.054m-26.492 5.527c-2.509.96-6.469 4.7-6.469 6.108 0 .616 1.094.868 2.558.588 1.883-.36 2.419-.127 2.031.884-.299.779.108 1.372.942 1.372.808 0 1.469.675 1.469 1.5s-.337 1.429-.75 1.341c-1.337-.283-4.25 1.345-4.25 2.374 0 .607 1.083.707 2.75.254 1.513-.411 3.629-.706 4.704-.655 1.075.051 2.517-.375 3.206-.947.689-.571 1.615-.815 2.057-.542.443.274 1.578-.068 2.523-.759 1.593-1.164 1.54-1.424-.723-3.55-2.321-2.181-2.567-2.213-4.945-.655-2.373 1.554-2.559 1.532-3.612-.435-.939-1.756-.791-2.157.965-2.617 2.374-.62 2.642-1.884.794-3.733-.784-.784-2.047-.989-3.25-.528m-38.191 2.118c-2.089 2.09-2.308 2.117-4.09.504-2.137-1.933-5.909-1.723-7.255.404-1.502 2.374-1.072 2.903 2.067 2.538 1.65-.192 3 .041 3 .519 0 .478.702.869 1.559.869s1.276.457.931 1.016c-.346.559-1.013.779-1.482.489-1.875-1.159-7.787 3.534-8.226 6.53-.376 2.562-.119 2.965 1.891 2.965 1.28 0 2.327-.528 2.327-1.174 0-.646 1.042-.196 2.314 1 3.002 2.819 3.32 2.754 4.036-.826.358-1.792 1.227-3 2.157-3 .857 0 1.932-1.012 2.39-2.25.458-1.238 1.118-2.137 1.468-2 2.046.805 4.635.047 4.635-1.358 0-1.754-5.174-1.149-5.833.682-.184.509-.746.926-1.25.926-1.612 0-1-5.854.712-6.812.896-.502 1.456-1.434 1.243-2.071-.24-.72-1.222-.323-2.594 1.049m115.869 1.436c-.795.902-2.03 1.253-3 .852-4.516-1.867-5.147-1.743-5.147 1.009 0 2.456-.259 2.639-2.905 2.058-1.666-.366-3.184-.187-3.559.42-1.221 1.977-2.413 1.07-2.224-1.691.164-2.402-.211-2.789-2.966-3.056-3.377-.328-6.346 2.493-6.346 6.029 0 1.922.045 1.902-4.75 2.173-1.788.101-3.25-.172-3.25-.606 0-.435-.398-.79-.883-.79-1.534 0-1.873 3.504-.466 4.819.742.693 1.349.962 1.349.598s.618-.149 1.373.478c.756.627 2.179.83 3.164.452 1.23-.472 1.564-.32 1.068.483-.398.644-1.821 1.17-3.164 1.17-1.343 0-2.441.477-2.441 1.059s-.526.734-1.17.336c-.798-.493-.957-.168-.5 1.023.369.96.67 2.175.67 2.699 0 .583.68.605 1.75.057 3.771-1.933 7.232-2.292 6.616-.686-.719 1.875.544 1.895 2.984.047 1.018-.771 1.583-1.835 1.256-2.364-.327-.529.063-1.214.868-1.523 1.856-.712 3.199 1.318 1.547 2.339-.97.599-.956.935.063 1.565.76.47 1.46.315 1.69-.373.229-.689 1.347-.936 2.7-.596 1.269.318 2.596.112 2.949-.458.353-.571 1.302-.784 2.109-.474.807.309 1.468.065 1.468-.544S866.334 31 865.519 31c-.814 0-1.763-1.125-2.108-2.5-.393-1.564-1.336-2.5-2.519-2.5-1.751 0-2.821-1.929-1.142-2.057 5.641-.432 9.783-1.123 10.663-1.779 1.555-1.159 5.587-1.218 5.587-.082 0 .527 1.8.04 4-1.082s4-2.669 4-3.437c0-.768.563-1.623 1.25-1.901.688-.277-.176-.54-1.918-.583-1.743-.043-3.768-.288-4.5-.545-.733-.256-1.941.225-2.685 1.068M731.733 18.6c-.33.33-2.317.571-4.416.536-6.18-.103-15.838 3.01-13.849 4.464 1.359.994 1.398 1.391.25 2.539-.748.749-1.407 1.71-1.464 2.136-.274 2.049-.966 2.63-3.53 2.968-3.038.4-3.135.523-2.247 2.837 1.012 2.638 4.849 1.522 7.323-2.13 1.265-1.867 3.132-4.17 4.148-5.116 1.016-.947 2.06-2.31 2.319-3.028.382-1.058.876-1.067 2.602-.048 1.309.773 2.131.863 2.131.231 0-.597 1.049-.764 2.507-.398 3.129.786 7.682-1.934 6.854-4.093-.602-1.568-1.612-1.913-2.628-.898m85.056 3.944c-.333.333-1.434.728-2.447.876-1.013.149-1.898.79-1.967 1.425-.248 2.29-.397 2.382-1.875 1.155-1.081-.897-1.5-.922-1.5-.091 0 .635.667 1.41 1.482 1.722 1.1.423 1.229 1.041.5 2.403-1.37 2.56-1.224 3.412.36 2.097.738-.612 1.663-.793 2.054-.401.392.392 1.093.097 1.557-.655.562-.908 1.466-1.09 2.696-.541 1.018.453 2.526.916 3.351 1.028.825.111 2.175.368 3 .57 1.053.258 1.426-.32 1.251-1.94-.136-1.27.121-2.08.572-1.801.451.278 1.571-.37 2.489-1.442.918-1.072 2.374-1.949 3.237-1.949s1.291-.45.951-1c-.34-.55-1.518-1-2.618-1-1.1 0-1.741.419-1.425.931.317.512.118 1.213-.441 1.559-.559.345-1.016.103-1.016-.538s-.631-.924-1.402-.628c-.771.296-1.684.256-2.029-.089-.345-.344-1.176-.72-1.848-.834-.672-.114-1.92-.49-2.773-.835-.854-.346-1.825-.355-2.159-.022M701 35.469c0 .941-.58 1.246-1.615.848-1.284-.492-1.476-.179-.935 1.525.558 1.759.354 2.039-1.135 1.557-1.508-.488-1.561-.408-.315.477 1.216.863.869 1.191-1.836 1.736-1.835.37-3.535 1.192-3.779 1.826-.388 1.013-2.106 1.176-7.252.691-.855-.081-1.171-.877-.843-2.129.687-2.626-.913-2.573-2.332.078-.691 1.291-1.698 1.852-2.661 1.482-.853-.327-2.111-.129-2.797.44-1.663 1.38-4.675.14-4.299-1.769.164-.834 1.199-2.015 2.299-2.624 2.142-1.186 3.46-2.644 3.485-3.857.026-1.268-1.759-.834-3.425.833-.975.974-3.311 1.584-6.072 1.584-4.25 0-5.697.968-3.488 2.333 1.539.951 1.185 2.5-.571 2.5-.865 0-2.288.716-3.163 1.591-2.096 2.096-.003 3.56 4.07 2.847 2.242-.393 2.947-.072 3.367 1.533.569 2.177 2.885 2.766 3.509.892.209-.626 2.27-1.189 4.581-1.25 2.311-.062 4.205-.338 4.208-.613.011-.809 16.742-.571 17.573.25 2.151 2.125 15.984-2.962 20.597-7.574 3.312-3.313 3.412-3.604 1.079-3.143-6.658 1.317-7.158 1.542-6.611 2.969.345.898-.161 1.717-1.285 2.08-1.02.33-2.876 1.089-4.124 1.688-3.146 1.51-5.225-.447-3.467-3.262.844-1.352.92-2.712.25-4.475-1.045-2.746-3.013-3.442-3.013-1.064m121.475 22.572c-.354.572-1.559.75-2.677.395-1.453-.461-1.904-.258-1.579.709.251.745-.221 1.854-1.048 2.464-1.673 1.232-2.791 5.892-1.174 4.893.552-.341 1.003-.18 1.003.357 0 .538.251 1.631.558 2.43.306.799-.147 2.157-1.008 3.018-1.066 1.066-1.216 1.781-.471 2.242.603.372 1.596.176 2.208-.436.612-.612 2.823-1.113 4.913-1.113 6.49 0 4.589-3.842-2.032-4.106l-2.668-.107 2.75-1.086c1.734-.686 2.762-1.847 2.782-3.144.031-2.024.055-2.026 1.5-.116.807 1.068 1.468 1.379 1.468.691 0-.687.47-.96 1.044-.605 1.122.694 3.956-1.204 3.956-2.649 0-.483-.675-.878-1.5-.878s-1.5-.627-1.5-1.393c0-2.331-5.27-3.597-6.525-1.566M714.5 71c-.34.55.282 1 1.382 1 2.973 0 3.628 1.954 1.221 3.641-3.511 2.459-5.376 6.949-3.88 9.344 1.622 2.598 2.87 2.543 5.303-.235l1.971-2.25.314 2.198c.173 1.21-.18 3.122-.783 4.25-.959 1.791-.808 2.052 1.187 2.048 2.832-.004 9.794-4.128 8.007-4.742-.881-.303-1.091-1.576-.675-4.097.45-2.731.334-3.277-.457-2.157-.61.864-1.066 1.009-1.075.344-.009-.691-.884-.929-2.171-.593-1.396.365-1.922.184-1.491-.513.366-.592.033-1.709-.739-2.481-.832-.832-1.196-2.494-.892-4.081.513-2.684-1.101-3.802-2.06-1.426-.403 1-.52 1-.583 0-.094-1.487-3.693-1.683-4.579-.25M3 85.5c2.302 2.45 1.559 3.659-.8 1.3-.933-.933-1.2-.685-1.2 1.117 0 1.824.425 2.205 1.999 1.794 1.099-.288 2.222-.163 2.494.278.622 1.006-2.355 2.215-3.583 1.455-1.269-.784-1.134.955.328 4.259 2.279 5.148 7.641 8.297 9.394 5.518 1.133-1.796 3.368-.864 3.368 1.405 0 1.069-.601 1.318-2.063.854-1.849-.587-1.935-.449-.822 1.333 1.111 1.778 3.683 1.99 4.013.33.753-3.798.326-5.034-2.271-6.568-1.571-.929-2.857-1.243-2.857-.699 0 1.939-3.967 2.3-5.744.523-1.308-1.308-1.418-1.845-.444-2.17.944-.314.806-.801-.509-1.798-1.692-1.283-1.66-1.369.506-1.399 1.513-.021 2.09-.463 1.674-1.282-.35-.687.259-.236 1.353 1.002 1.206 1.367 2.613 2.013 3.576 1.643C13.162 93.724 13.585 92 12 92c-.55 0-1 .5-1 1.111s-.863.048-1.918-1.25c-1.9-2.339-1.897-2.372.239-3.524 2.117-1.142 2.102-1.184-.833-2.357-1.643-.658-3.769-1.597-4.724-2.088C.804 82.372.555 82.897 3 85.5m448.5 29.891c-5.743 1.971-9.771 4.215-12.251 6.829a324.233 324.233 0 0 1-5.598 5.682c-3.618 3.583-11.071 17.61-12.028 22.637-.31 1.629-1.206 5.886-1.99 9.461-.783 3.575-1.658 10.55-1.942 15.5-.318 5.529-.22 7.457.254 5 .539-2.796.818-3.247.927-1.5.085 1.375.427 3.512.758 4.75.444 1.654.175 2.25-1.013 2.25-2.199 0-2.068 1.992.133 2.032 1.53.028 1.562.184.25 1.25-1.605 1.303-1.535 6.718.086 6.718.524 0 .75 1.118.503 2.484-.248 1.366-.047 2.733.447 3.039.494.305.618 1.957.275 3.671-.441 2.208-.289 2.911.521 2.41.761-.47.949-.103.562 1.094-.492 1.523-.409 1.57.542.302.901-1.202 1.008-.995.539 1.039-.322 1.397-.041 3.872.625 5.5.667 1.629 1.28 3.411 1.363 3.961.366 2.421 1.833 4.435 2.796 3.84.613-.379.753-.169.336.505-.392.635-.206 1.155.413 1.155.643 0 .873.798.537 1.859-.341 1.073.053 2.393.932 3.122 1.042.865 1.523.91 1.523.141 0-1.697 2.701-1.344 3.387.443.476 1.241.134 1.421-1.643.867-2.232-.694-2.233-.686-.318 1.459 1.183 1.324 2.177 1.752 2.574 1.109.404-.654 1.3-.326 2.385.873 1.336 1.476 1.435 2.025.426 2.378-2.151.753 3.345 4.754 5.689 4.141 1.667-.436 1.75-.335.5.608-1.203.907-1.004 1.006 1 .5 1.677-.423 2.062-.327 1.169.294-.98.68-.203 1.376 2.946 2.635 29.559 11.827 59.838-22.341 59.877-67.569.02-22.633-9.017-47.067-19.742-53.379-1.788-1.052-3.25-2.228-3.25-2.613 0-.386-3.036-2.181-6.747-3.989-7.897-3.847-20.498-4.976-27.753-2.488m250.75 2.949c2.65 2.09 2.154 2.647-2.5 2.802l-4.25.142 4 .608c2.574.391 3.551.898 2.741 1.423-.692.448-2.267.537-3.5.198-2.179-.599-2.187-.574-.3.935 2.157 1.725 5.025 2.115 4.059.552-.34-.55.084-1 .941-1s1.559-.477 1.559-1.059.45-.781 1-.441c1.65 1.02 1.138 2.225-1.25 2.942-2.183.654-2.19.7-.25 1.511 1.907.798 1.884.885-.5 1.879l-2.5 1.041 2.809.064c1.631.036 2.55-.356 2.191-.937-.574-.928 2.223-1.48 5.342-1.053.738.1 1.962-.634 2.718-1.632 1.7-2.241 1.882-4.157.24-2.515-1.677 1.677-3.128 1.498-2.438-.3.411-1.072-.098-1.5-1.783-1.5-1.296 0-3.42-.885-4.718-1.967-2.868-2.389-2.364-2.475 3.139-.533 4.399 1.552 7.82 1.987 6.682.849-.358-.358.13-1.244 1.084-1.968 1.604-1.219 1.572-1.32-.433-1.349-1.191-.018-2.343.499-2.56 1.148-.254.763-1.079.889-2.333.358-1.067-.451-3.965-.991-6.44-1.2-3.972-.334-4.295-.216-2.75 1.002m-481.966 1.37c-8.678 3.002-16.151 13.376-18.818 26.124-1.629 7.783-1.214 35.901.579 39.251.619 1.156.866 3.133.55 4.394-.348 1.385-.009 2.762.855 3.48.787.653 1.185 1.829.884 2.614-.302.785-.05 1.427.559 1.427.609 0 1.107.675 1.107 1.5s.45 1.5 1 1.5.887.346.75.769c-.138.423.762 1.858 2 3.189 1.238 1.33 2.25 2.961 2.25 3.624 0 .662.775 1.501 1.722 1.865 1.382.53 1.454.826.365 1.499-2.112 1.305 1.965 3.054 7.119 3.054 9.271 0 18.67-13.476 21.533-30.874 1.44-8.751.815-32.121-1.046-39.126-3.532-13.295-13.122-27.826-15.831-23.988-.876 1.241-.957 1.198-.488-.262.644-2.002.584-2.002-5.09-.04M325 118.909c0 .465-2.03.616-4.512.337-13.507-1.523-25.6 12.319-29.489 33.756-1.273 7.019-1.109 22.77.258 24.659.479.662.389 1.44-.208 1.809-.577.356-1.049 1.098-1.049 1.648 0 .55.45.722 1 .382.55-.34 1.049.421 1.11 1.691.298 6.275.745 9.11 1.529 9.681 1.345.981 1.386 6.124.049 6.16-.757.02-.644.474.312 1.25.825.67 1.545 1.781 1.6 2.468.233 2.917.454 3.335 1.44 2.725.671-.414.817.246.412 1.859-.482 1.92-.129 2.769 1.517 3.649 1.179.631 2.507 2.128 2.95 3.327.443 1.199 1.641 2.182 2.661 2.185 1.02.003 2.359 1.014 2.976 2.248.617 1.234 1.939 3.146 2.938 4.25 1.401 1.549 1.495 2.025.411 2.088-2.215.128 6.328 3.864 8.902 3.893 30.828.35 44.123-62.963 20.823-99.163-1.66-2.579-3.45-4.422-3.979-4.096-.566.35-.628.057-.151-.715.569-.921.421-1.069-.5-.5-.805.498-1.066.416-.678-.212.347-.561-.286-1.85-1.407-2.865-1.62-1.466-2.204-1.574-2.851-.526-.525.849-1.616 1.063-3.071.601-1.539-.489-1.87-.956-1.041-1.468.895-.554.798-.912-.368-1.359-.871-.335-1.584-.228-1.584.238m-237.456 4.82c-5.836 5.835-7.902 14.072-7.863 31.335.044 19.515 2.99 32.325 8.87 38.558 3.829 4.06 5.359 4.195 8.779.775 11.798-11.797 10.018-58.14-2.722-70.88-3.159-3.158-3.71-3.142-7.064.212m53.746-.764c-9.277 5.656-13.901 24.742-10.912 45.035.364 2.475.905 6.3 1.202 8.5.769 5.693 3.537 14.5 4.557 14.5.475 0 .863 1.152.863 2.559 0 1.451.433 2.292 1 1.941.55-.34 1 .084 1 .941s.45 1.559 1 1.559 1 .59 1 1.312c0 3.782 8.784 7.368 12.871 5.255 8.221-4.251 11.468-14.249 11.553-35.567.094-23.345-4.618-37.909-14.809-45.773-3.538-2.731-5.199-2.778-9.325-.262m596.247 8.094c.319.518-.221.941-1.2.941-1.44 0-1.307.328.69 1.709 4.217 2.915 5.134 4.058 3.714 4.632-.896.362-.854.523.149.58.764.043 1.95-.688 2.635-1.625 1.009-1.379 1.698-1.497 3.611-.619 2.339 1.072 2.328 1.094-.99 1.979-3.691.985-3.698.978 3.854 4.156l2.5 1.053-2.5.098c-2.349.092-2.382.166-.553 1.227 1.457.846 2.044.838 2.333-.03.536-1.607 3.453-1.451 5.779.308 1.828 1.383 1.739 1.47-1.523 1.5-3.209.03-3.344.153-1.827 1.67.901.9 3.504 1.742 5.786 1.871 2.95.167 3.839-.075 3.077-.837-1.32-1.32-1.422-3.006-.133-2.21.516.319 1.373-.196 1.904-1.145.822-1.471 1.356-1.548 3.608-.521 1.454.662 3.634 1.172 4.846 1.134 2.119-.068 2.127-.103.203-.93-1.65-.709-1.402-.872 1.417-.93 1.879-.038 3.079-.408 2.666-.82-.722-.722-1.093-.833-3.833-1.14-.924-.104-.89-.369.132-1.016 1.107-.701 1.007-.988-.5-1.441-3.422-1.029-14.847-2.748-16.882-2.54-3.42.349-6.5-.078-6.5-.9 0-.433 1.462-.894 3.25-1.024 8.869-.646 8.417-2.164-.803-2.698-3.722-.216-7.033-.795-7.358-1.287-.803-1.22-8.301-2.356-7.552-1.145m-30.526 33.931c-2.802 2.43-4.058 11.01-1.612 11.01.802 0 2.229-.77 3.17-1.712 2.056-2.056 4.635-2.576 5.537-1.116.432.699 1.239.734 2.366.103 1.757-.983.982-1.472-5.865-3.705-1.041-.339-1.593-.917-1.227-1.284.843-.843 7.62-1.053 7.62-.236 0 1.137 8.947.239 10.506-1.055 1.192-.989 2.128-1.027 4.024-.163 2.523 1.149 3.056.64 1.649-1.577-1.167-1.838-15.307-2.366-17.642-.658-1.916 1.401-3.987.94-2.994-.666 1.086-1.758-3.238-.93-5.532 1.059m154.964 10.575c-.536 1.411-.975 2.964-.975 3.45 0 .487-.784 1.324-1.742 1.86s-1.418 1.298-1.024 1.692c.395.395 1.468.095 2.386-.667 1.504-1.248 1.59-1.139.867 1.108-.873 2.714-.877 2.956-.136 7.742.552 3.566.393 3.718-2.36 2.245-1.966-1.052-6.991.504-6.991 2.166 0 .461-.675.839-1.5.839-1.885 0-1.874.41.123 4.619 1.346 2.836 1.875 3.213 3.092 2.203.807-.67 3.057-1.111 5-.981 3.34.225 3.505.091 3.018-2.46-.358-1.871.108-3.338 1.523-4.789 1.666-1.71 1.926-1.772 1.423-.342-.342.97-.133 1.75.469 1.75.618 0 .88-1.076.607-2.5-.336-1.758-.037-2.5 1.006-2.5 1.2 0 1.248-.284.249-1.488-.997-1.202-.938-1.602.309-2.081 2.082-.799 1.708-4.191-.527-4.775-1.817-.475-2.525-4.211-.914-4.823 1.178-.446-.52-4.833-1.871-4.833-.581 0-1.495 1.154-2.032 2.565M859.5 208c.34.55.152 1-.418 1s-1.779 1.134-2.688 2.521c-1.571 2.398-1.545 2.613.526 4.41l2.178 1.889-3.12.685c-2.159.474-2.949 1.129-2.565 2.128.339.885-.311 1.791-1.68 2.342-2.015.811-1.916.904 1.017.962 1.788.034 3.25-.387 3.25-.937s.392-1 .87-1c.479 0 .816 1.423.75 3.161-.066 1.739.443 3.351 1.13 3.583.688.233 1.25-.29 1.25-1.161 0-.901.837-1.583 1.943-1.583 2.402 0 1.987-3.835-.622-5.75-.937-.687-1.209-1.25-.606-1.25.605 0 .863-.897.575-2-.288-1.1-.921-2-1.407-2-.485 0-.883-.477-.883-1.059s.45-.781 1-.441 1 .179 1-.358c0-.536-.558-1.161-1.241-1.389-.892-.297-.752-.903.5-2.155 2.144-2.144 2.176-2.598.182-2.598-.857 0-1.281.45-.941 1M45.881 223c-.065.275-.06.851.011 1.28C46.243 226.412 38.841 237 37 237c-1.345 0-.533-2.753 1.462-4.958 1.023-1.13 1.593-2.32 1.268-2.646-.325-.325-1.181.353-1.901 1.507-.721 1.153-1.742 2.097-2.27 2.097-.527 0-.419-.54.241-1.2 1.969-1.969 1.358-3.253-.673-1.415-1.772 1.604-1.903 1.58-2.433-.446-.345-1.32-1.011-1.861-1.738-1.412-.649.401-1.467.281-1.818-.267s-2.55-1.915-4.888-3.037c-4.137-1.987-4.25-1.991-4.25-.132 0 1.383.758 1.947 2.75 2.045 2.358.117 2.429.198.5.57-3.038.585-2.832 1.519.812 3.671 1.907 1.127 3.981 1.578 5.5 1.197 3.584-.9 2.968.307-1.006 1.967-1.894.792-4.257 1.142-5.25.779-1.673-.61-1.664-.498.112 1.525 1.291 1.469 2.598 1.994 4 1.604 1.724-.48 1.824-.383.582.565-1.176.898-.583 1.041 2.75.661 4.808-.548 6.814.939 2.541 1.883-1.535.339-3.241.767-3.791.951-1.863.621 23.149.495 30.849-.156 5.906-.499 7.651-.994 7.651-2.171 0-.838.611-2.235 1.358-3.103 1.929-2.242 3.642-7.791 3.642-11.796v-3.419l-2.904 2.068c-3.5 2.492-5.879 2.609-8.975.44-2.157-1.511-14.935-2.661-15.24-1.372M235.88 404.356c.751.904 1.919 1.644 2.595 1.644 1.817 0 24.969 11.047 25.358 12.099.184.496 1.003.901 1.821.901.818 0 6.293 2.308 12.167 5.128 32.47 15.591 39.172 18.787 44.179 21.068 11.782 5.368 26.786 12.408 32.784 15.385 3.456 1.714 6.488 2.788 6.736 2.386.441-.714-6.692-4.409-27.02-13.999l-19.81-9.342c-5.396-2.545-9.962-4.626-10.147-4.626-.186 0-6.346-2.864-13.69-6.365-7.344-3.5-15.828-7.513-18.853-8.917-3.025-1.403-11.664-5.476-19.198-9.051-16.296-7.732-18.91-8.707-16.922-6.311" fill="#d3d3d3" fill-rule="evenodd"/></svg>