<svg xmlns="http://www.w3.org/2000/svg" width="500" height="680"><path d="M370.304 3.397c.115.629-2.5 1.322-6.304 1.67-7.917.724-9.378 1.182-19.482 6.114-7.612 3.715-8.373 3.882-16.415 3.607-6.07-.207-8.55.062-8.851.962-.23.688-1.151 1.25-2.046 1.25-5.667 0-13.831 4.78-22.375 13.099-4.857 4.73-8.831 9.25-8.831 10.046 0 .796-4.029 5.585-8.953 10.642-6.645 6.825-9.121 10.091-9.605 12.671-1.314 7.005-4.521 8.946-20.686 12.526-9.111 2.017-14.998 3.889-43.419 13.802-16.953 5.914-22.762 10.261-28.339 21.211-2.664 5.23-4.579 6.927-7.865 6.971-1.868.025-2.256.453-1.843 2.032.474 1.814.03 2-4.761 2-3.581 0-5.704.506-6.587 1.57-.716.863-2.1 1.361-3.074 1.106-.975-.255-1.99.051-2.257.68-.328.773-.911.629-1.798-.444-.722-.873-1.928-1.381-2.679-1.128-.751.253-1.772-.158-2.269-.912-1.333-2.025-4.082 1.869-3.225 4.568.572 1.804.455 1.884-.996.68-1.072-.89-1.644-.974-1.644-.242 0 .617-.45 1.122-1 1.122s-1-.675-1-1.5c0-2.805-2.838-1.514-3.522 1.602-.375 1.706-1.48 3.9-2.455 4.875-.975.975-1.95 2.304-2.166 2.952-.216.649-1.184 1.296-2.149 1.438-.966.141-2.459 1.26-3.317 2.486-.967 1.38-2.207 2.023-3.257 1.69-1.059-.337-2.247.297-3.165 1.689-.808 1.225-3.269 4.111-5.469 6.415-6.738 7.055-10.438 12.043-12.498 16.848-1.084 2.528-3.021 6.039-4.305 7.801-1.284 1.762-3.172 5.229-4.197 7.704-1.024 2.475-2.564 5.079-3.421 5.786-2.449 2.019-3.76 8.152-2.912 13.618.419 2.698.89 10.459 1.047 17.247.157 6.788.624 12.343 1.036 12.345.412.002.75.706.75 1.563s.419 1.3.931.984a1.106 1.106 0 0 1 1.516.372c.322.521.203 1.183-.264 1.472-.467.289-.659 1.822-.426 3.408.469 3.2-2.142 6.709-4.088 5.492-1.916-1.198-14.904-.217-17.945 1.355-10.27 5.312-22.704 22.477-20.532 28.347.468 1.266.565 3.2.217 4.299-.349 1.099-.156 3.621.429 5.605.585 1.984 1.311 4.813 1.614 6.287.303 1.474 1.225 3.354 2.05 4.179.824.824 1.498 1.735 1.498 2.024 0 .289 1.107 1.633 2.459 2.985 1.353 1.353 2.74 3.736 3.082 5.296 1.374 6.265 3.156 8.873 12.591 18.421C77.142 334.214 79.833 336 85.09 336c2.477 0 3.056.481 3.55 2.949.324 1.622 1.438 3.717 2.475 4.655 1.037.938 1.885 2.917 1.885 4.398 0 1.481.9 3.73 2 4.998 1.1 1.268 2.002 3.25 2.005 4.403.004 1.855 3.224 5.735 9.495 11.443 1.1 1.001 4.7 3.112 8 4.69 3.3 1.578 6.269 3.257 6.598 3.73.329.473 2.129 1.097 4 1.386 1.871.288 5.42.896 7.886 1.351 2.466.454 4.941.541 5.5.192.826-.516 6.531-1.414 15.204-2.394.653-.074 2.678-1.446 4.5-3.05 1.821-1.603 4.504-3.356 5.962-3.896 1.457-.539 2.877-1.85 3.155-2.913.278-1.062 1.315-2.243 2.306-2.623.99-.38 2.495-1.274 3.345-1.986.849-.712 2.444-1.97 3.544-2.795 1.504-1.128 1.69-1.705.75-2.328-2.355-1.56 7.214-9.753 12.666-10.843 2.84-.568 2.959-.74 1.35-1.937-2.107-1.566-.576-5.024 2.122-4.791.887.076 1.612-.486 1.612-1.25 0-3.963 7.102.094 12.918 7.379 5.804 7.269 7.733 11.324 13.197 27.732 4.26 12.793 4.481 14.025 6.051 33.823.931 11.741.87 12.93-.727 14.098-1.91 1.397-1.197 3.579 1.17 3.579 1.687 0 1.134 10.662-.756 14.573-.662 1.371-.668 3.234-.018 5.5.861 2.997 1.005 3.114 1.145.927.146-2.278.23-2.322.945-.5.431 1.1.4 3.347-.07 4.993-1.162 4.069-1.013 6.637.233 4.007.632-1.335.778 1.343.437 8.058-.367 7.232-.163 10.404.724 11.291.979.979.926 1.433-.257 2.193-.964.619-1.128 1.224-.463 1.708 1.034.753 1.013 1.99-.135 8-.391 2.047-.22 3.25.461 3.25.595 0 .823-.675.507-1.5-.319-.83-.029-1.5.648-1.5 1.214 0 1.013 5.567-.605 16.75-.484 3.343-.303 4.25.848 4.25 1.228 0 1.478 3.007 1.561 18.75.054 10.313.587 25.95 1.184 34.75 2.082 30.667 2.333 42.139 1.064 48.593-.671 3.406-.846 6.465-.39 6.8 1.67 1.224 1.802 43.196.139 44.224-.587.363-.712 1.234-.278 1.936.434.703.725 4.803.646 9.112l-.144 7.835 25.733-.001H286.5l.204-10.25c.112-5.637.629-14.299 1.149-19.249 1.528-14.55.345-118.122-1.732-151.5-1.573-25.295-.044-92.41 2.155-94.61.838-.837 1.843 8.286 1.197 10.861-.393 1.567-.068 3.011.895 3.974.877.877 1.279 2.41.956 3.644-.323 1.235-.088 2.131.559 2.131.615 0 1.064-.337.999-.75-.506-3.205.295-20.25.951-20.25.459 0 .904.563.99 1.25.085.688.356 2.6.601 4.25l1.483 10c2.38 16.061 1.705 38.726-1.022 34.315-.427-.692-1.098-.935-1.491-.542s.032 1.54.945 2.55c.914 1.009 1.729 2.474 1.811 3.256.083.781.465-.604.85-3.079l.7-4.5.15 4.55c.082 2.502-.326 5.026-.907 5.607-1.158 1.158.352 36.321 2.084 48.532.523 3.688.767 7.292.543 8.008-.979 3.132-1.511 51.803-.566 51.803.595 0 .996 4.029.996 10 0 6.133-.395 10-1.02 10-.635 0-.974 3.799-.898 10.038.105 8.682.319 9.874 1.583 8.825 1.272-1.056 1.425.642 1.185 13.111-.246 12.781-.468 14.375-2.063 14.792-2.365.618-2.271 1.946.193 2.728 1.089.345 1.908.938 1.821 1.317-.087.379.2 5.965.639 12.414.82 12.068.115 22.775-1.499 22.775-.511 0-.811-4.629-.678-10.472.143-6.335-.158-10.581-.763-10.75-.55-.153-1.166 1.072-1.368 2.722-.323 2.625-.47 2.75-1.18 1-.547-1.349-.811-.047-.811 4 0 4.493.235 5.498.938 4 .686-1.46.844-.609.586 3.153-.194 2.835.079 5.926.607 6.869.678 1.212.56 1.964-.4 2.557-.75.464 17.6.867 40.883.899l42.245.057.231-34.267c.262-38.737.289-35.222-.637-82.268-.379-19.25-.874-61.325-1.099-93.5-.225-32.175-.658-68.798-.962-81.383-.313-12.951-.15-24.345.376-26.25.564-2.041.568-3.367.01-3.367-.505 0-.919-.675-.919-1.5s.36-1.5.801-1.5c1.144 0 3.542-14.344 2.793-16.705-.345-1.085.547-7.558 1.981-14.384 1.434-6.826 2.971-15.111 3.417-18.411 1.442-10.681 7.61-25.256 12.062-28.5 1.141-.831 8.946-12.273 8.946-13.114 0-1.496 4.903-6.064 5.869-5.467.534.33 2.109-.854 3.5-2.632 1.691-2.16 2.16-3.46 1.414-3.921-.614-.379 1.22-1.383 4.076-2.231 2.855-.848 5.887-2.238 6.737-3.089 1.025-1.024 3.462-1.554 7.225-1.57 11.32-.049 21.779-4.107 33.228-12.891 6.454-4.953 18.811-18.575 19.39-21.377.137-.664 1.226-3.398 2.42-6.074 5.124-11.493 6.142-16.409 6.117-29.549-.013-6.922-.5-14.385-1.082-16.585-.582-2.2-1.268-5.35-1.524-7-.698-4.492-2.447-11.737-3.381-14-.454-1.1-1.787-5.825-2.962-10.5-1.175-4.675-2.732-9.413-3.459-10.528-1.553-2.381-5.568-3.037-5.568-.91 0 3.015-1.939 1.267-2.565-2.312-.361-2.062-1.507-5.238-2.546-7.057-2.374-4.157-2.362-4.585.294-10.072 1.752-3.618 2.15-6.091 2.014-12.508-.232-10.907 1.047-15.39 4.507-15.799 3.709-.438 9.711-11.714 8.811-16.554-1.263-6.797-11.008-11.985-14.534-7.737-.77.928-2.037 1.277-3.246.893-1.09-.346-2.489-.706-3.109-.801-2.231-.34-3.674-1.798-3.403-3.44.153-.921-.285-1.563-.973-1.425-.687.137-1.25-.2-1.25-.75s-.469-1-1.042-1c-1.096 0-1.302-.154-7.097-5.322-4.514-4.025-21.573-12.432-34.361-16.933-2.956-1.041-8.536-3.346-11.533-4.765-.843-.399-3.093-1.06-5-1.468-1.907-.409-3.931-1.114-4.498-1.569-4.539-3.632-30.719-7.579-30.165-4.546M249.5 83.572c-8.726 1.602-10.721 2.237-22.5 7.164-5.225 2.186-13.55 5.416-18.5 7.178-13.609 4.844-16.768 6.31-19.532 9.064-1.392 1.387-3.551 3.197-4.799 4.022-3.471 2.296-14.585 21.657-16.585 28.89l-1.766 6.39 2.841 2.324c2.296 1.878 2.494 2.331 1.032 2.36-.995.02-1.562.436-1.259.926.838 1.356 7.728 1.914 10.774.871 2.392-.818 3.175-.461 6.75 3.078 4.333 4.291 4.924 6.186 2.544 8.161-2.096 1.74-1.855 3.131 1.017 5.855 2.049 1.943 2.483 2.062 2.483.683 0-2.112 3.782-1.185 6 1.471 1.205 1.443 1.991 1.596 4 .779 1.834-.745 2.1-1.154 1-1.533-1.981-.681-5-3.345-5-4.41 0-1.562 2.189-.864 5.179 1.653 2.571 2.163 3.16 2.306 4.396 1.07 2.351-2.351 12.475-4.832 17.123-4.195 3.614.495 4.461.24 6.087-1.826C235.958 156.97 247.651 152 257.95 152c2.885 0 3.848-.364 3.482-1.316-.277-.723.184-2.636 1.026-4.25.841-1.614 1.532-3.487 1.536-4.164.015-2.953 3.307-9.086 5.386-10.033 2.141-.976 3.127-3.013 6.553-13.545 1.406-4.324.697-11.923-1.509-16.176-.783-1.509-1.424-3.663-1.424-4.786 0-1.123-1.06-3.434-2.356-5.136-1.296-1.702-2.676-4.107-3.068-5.345-1.365-4.319-7.636-5.594-18.076-3.677m-2.734 79.173c-8.592.289-9.862.567-10.827 2.369-1.608 3.005-.659 4.334 4.205 5.883 5.838 1.859 14.542 6.743 15.235 8.548 1.02 2.659 4.345 1.587 6.522-2.102 3.725-6.312 2.046-15.612-2.749-15.234-1.459.115-7.032.357-12.386.536m-18.518 10.747c-2.131.926-4.949 1.212-8.172.831-3.955-.469-5.595-.166-8.366 1.547-1.895 1.171-4.885 2.13-6.644 2.13-3.773 0-7.373 1.694-6.523 3.07.33.533.092 2.506-.528 4.384-1.724 5.223.162 10.566 5.763 16.33 2.597 2.672 9.222 9.999 14.722 16.283 13.209 15.09 34.964 36.967 40.092 40.317 6.002 3.92 13.772 4.674 15.47 1.501 2.667-4.984 1.712-44.659-1.189-49.385-.338-.55-.46-1.9-.273-3 .944-5.533-9.055-18.574-16.684-21.762-1.923-.803-4.28-2.245-5.238-3.203-1.411-1.411-18.053-10.637-18.933-10.496-.135.022-1.708.675-3.497 1.453" fill="#d3d3d3" fill-rule="evenodd"/></svg>