<svg xmlns="http://www.w3.org/2000/svg" width="500" height="684"><path d="M233.116 49.106c-1.08 1.159-2.415 1.827-2.968 1.486C226.14 48.115 206 68.877 206 75.486c0 2.206-.428 2.514-3.5 2.514-2.444 0-3.5.452-3.5 1.5 0 .825-.382 1.5-.849 1.5-.467 0-1.651 1.944-2.631 4.319-.979 2.375-2.733 4.738-3.896 5.25-1.163.512-2.749 2.281-3.524 3.931-.775 1.65-1.828 3.275-2.34 3.612-.512.336-.885.904-.829 1.26.105.675-2.942 5.754-3.977 6.628-.325.275-1.686 2.663-3.023 5.306a4118.067 4118.067 0 0 1-4.247 8.372c-.998 1.962-4.036 6.235-6.75 9.497-2.714 3.261-4.934 6.304-4.934 6.762 0 .458-2.5 3.472-5.556 6.698-5.3 5.595-9.062 12.204-12.87 22.611-.955 2.61-2.32 5.085-3.034 5.5-1.65.959-15.537 29.15-15.539 31.544-.001 2.343-4.745 11.21-7.751 14.489-.688.75-1.318 2.232-1.4 3.292a2389.58 2389.58 0 0 1-.25 3.179c-.055.688-.631 1.592-1.279 2.01-.649.418-1.487 3.343-1.862 6.5-.737 6.202-3.962 16.918-5.74 19.071-.604.732-1.446 3.432-1.871 6-1.548 9.355-2.148 11.706-3.485 13.642-.75 1.084-1.363 2.96-1.363 4.168 0 2.383-3.032 8.342-4.25 8.353-.412.003-.75.685-.75 1.516 0 .83-.9 2.28-2 3.222-1.1.942-2 2.232-2 2.868 0 .635-.736 1.766-1.636 2.513-.9.747-2.752 3.164-4.115 5.372-1.363 2.208-3.283 4.69-4.266 5.515-.983.825-3.008 3.872-4.501 6.771-1.506 2.925-5.285 7.597-8.492 10.5-4.385 3.968-6.065 6.292-6.966 9.639-1.5 5.572-3.205 8.157-9.911 15.029-6.84 7.008-14.763 23.014-15.711 31.737-.72 6.635-3.3 15.333-6.221 20.975-2.986 5.768-4.277 11.668-5.235 23.928-.476 6.094-1.305 12.236-1.843 13.65-1.003 2.637-.85 3.505 2.938 16.771 1.021 3.575 2.261 8.82 2.754 11.656.923 5.299 4.359 10.767 7.455 11.86.963.341 1.75 1.201 1.75 1.912 0 .711 1.125 2.951 2.5 4.977 1.375 2.026 2.5 4.358 2.5 5.182 0 .823.443 2.041.985 2.705 3.783 4.639 5.931 7.666 7.597 10.708 1.055 1.925 2.143 3.725 2.418 4 .886.886 5 10.018 5 11.098 0 .575.563 1.672 1.25 2.439 3.095 3.451 3.75 4.473 3.75 5.849 0 .809.58 2.066 1.288 2.793 1.968 2.019 4.888 8.726 4.25 9.76-.312.504.339 1.205 1.447 1.556 2.238.711 2.706 3.06.765 3.843-.839.338-.747.53.282.583.926.048 1.622 1.167 1.759 2.829.124 1.513.675 2.901 1.224 3.085.549.185.755.728.459 1.206-.296.479.598 1.615 1.986 2.524 1.387.91 2.284 2.04 1.993 2.512-.292.472.387 1.431 1.508 2.131 1.122.7 2.039 1.831 2.039 2.513 0 .683 1.013 1.504 2.25 1.826 3.095.804 5.934 4.948 6.043 8.821.073 2.546.999 3.95 4.399 6.674 2.37 1.897 4.308 3.833 4.308 4.302 0 .47 1.237 2.086 2.75 3.593 12.581 12.53 20.25 21.001 20.25 22.367 0 1.802 5.336 7.696 6.966 7.696.569 0 1.034.567 1.034 1.259 0 1.707 3.806 3.979 5.211 3.111.722-.447.916-.143.538.841-.677 1.765 3.611 4.28 6.61 3.876 1.138-.153 1.596.177 1.18.85-.798 1.291 5.204 4.099 7.159 3.349.716-.275 1.302.025 1.302.666s.453.886 1.007.544c.554-.342 2.311.306 3.904 1.441 1.594 1.135 3.343 2.063 3.886 2.063.544 0 1.248.675 1.565 1.5.316.825 1.489 1.5 2.607 1.5 1.117 0 2.031.45 2.031 1s.94 1 2.09 1c1.149 0 2.837.913 3.75 2.029 3.148 3.849 15.657 1.612 16.867-3.016.413-1.581 1.359-2.013 4.41-2.013 2.135 0 3.883-.441 3.883-.981 0-.539 1.237-1.284 2.75-1.655 2.906-.713 18.667-13.958 18.788-15.79.039-.591.622-2.424 1.296-4.074s1.423-3.562 1.664-4.25c.242-.687.903-1.25 1.471-1.25.567 0 1.031-.911 1.031-2.025 0-1.241.97-2.393 2.507-2.978 1.379-.524 2.451-1.3 2.382-1.725-.727-4.46.323-8.048 2.667-9.116 1.406-.64 2.274-1.621 1.929-2.18-.345-.558.98-3.204 2.944-5.879 1.964-2.676 3.571-5.548 3.571-6.382 0-.834 1.979-4.149 4.397-7.366 4.085-5.434 9.311-15.496 11.089-21.349.417-1.375 1.073-2.95 1.456-3.5.905-1.297 2.819-8.038 3.549-12.5 1.953-11.932 2.58-15.536 3.112-17.876 1.077-4.738 4.24-21.47 5.552-29.374.708-4.262 1.637-7.75 2.066-7.75.428 0 .779-.586.779-1.303 0-2.503 6.023-9.625 7.622-9.012 1.324.508 1.445 3.403.933 22.2-.324 11.888-.789 47.49-1.034 79.115-.245 31.625-.585 70.438-.755 86.25l-.309 28.75h36.748l-.352-8.405c-.194-4.623.022-8.173.481-7.889.459.284.684-5.16.5-12.097-.356-13.459.115-14.66 4.166-10.609 1.1 1.1 2.244 2 2.542 2 .298 0 1.526.917 2.73 2.039 1.203 1.121 3.223 2.298 4.489 2.616 1.702.427 2.145 1.067 1.702 2.461-.476 1.5-.092 1.884 1.886 1.884 1.367 0 2.713.562 2.992 1.25.375.926.721.952 1.333.103.839-1.166 6-1.31 7.826-.219.55.329 2.688.452 4.75.274 2.063-.178 3.75.116 3.75.653 0 .543 1.111.698 2.5.35 1.891-.475 2.5-.236 2.5.981 0 1.334 1.275 1.608 7.5 1.608 4.333 0 7.5-.422 7.5-1 0-.55.973-1 2.162-1 5.555 0 24.306-7.013 26.998-10.098.913-1.046 2.304-1.902 3.091-1.902.787 0 3.603-2.052 6.258-4.559 2.654-2.508 5.793-5.321 6.973-6.25 1.181-.93 3.012-3.041 4.07-4.691 1.057-1.65 2.378-3.507 2.935-4.127.557-.621 1.688-2.138 2.513-3.373 2.015-3.015 3.534-4.543 7.617-7.657 3.283-2.504 4.606-4.844 12.883-22.788 4.433-9.608 8.676-19.933 8.899-21.65.114-.877 1.646-3.767 3.404-6.421 1.758-2.655 3.197-5.2 3.197-5.655 0-.456.916-1.745 2.036-2.865 1.121-1.121 1.769-2.471 1.441-3-.327-.53-.118-.964.464-.964.582 0 1.059-.689 1.059-1.531 0-.843.644-1.779 1.43-2.081.787-.301 1.888-1.862 2.448-3.468.56-1.606 1.491-2.92 2.07-2.92.579 0 1.052-.707 1.052-1.571 0-.865.675-2.247 1.5-3.072.825-.825 1.5-2.445 1.5-3.6 0-1.155.681-2.852 1.514-3.772.949-1.05 1.685-4.431 1.974-9.079.663-10.664 1.582-16.906 2.489-16.906.995 0 .756-5.072-.319-6.773-1.986-3.142-1.819-10.066.294-12.179 2.208-2.208 2.237-12.205.071-24.548-.483-2.75-1.159-7.475-1.502-10.5-.343-3.025-1.477-7.3-2.521-9.5-4.324-9.12-7.12-18.023-6.317-20.115.259-.676-.109-2.276-.818-3.557-.71-1.28-1.179-2.713-1.042-3.183.136-.471-.16-1.371-.657-2-.497-.63-1.458-3.508-2.135-6.395-.677-2.887-1.684-5.25-2.238-5.25s-.726-.732-.383-1.627c.344-.894.114-2.242-.51-2.994-.625-.752-.899-2.603-.611-4.113.289-1.509.07-3.595-.486-4.633-.555-1.039-1.393-4.194-1.862-7.011-.468-2.817-1.294-7.597-1.835-10.622-1.744-9.751-2.108-17.998-.796-18.015.84-.011.866-.232.089-.75-.606-.404-1.415-3.865-1.799-7.692-.384-3.826-1.099-7.439-1.588-8.029-.489-.589-1.096-3.984-1.347-7.543-.252-3.559-.807-7.337-1.235-8.395-.621-1.538-.442-1.795.896-1.281.921.353 1.674.206 1.674-.326 0-.533-.761-.969-1.691-.969-1.475 0-1.443-.188.25-1.468 1.067-.808 1.426-1.483.797-1.5-.63-.018-1.193-1.045-1.253-2.282-.323-6.718-.744-8.39-2.466-9.812-1.957-1.616-2.816-5.996-1.377-7.021 1.28-.913-1.033-5.917-2.735-5.917-.839 0-1.525-.477-1.525-1.059s.419-.8.931-.484c.512.317 1.213.118 1.559-.441.345-.559-.074-1.016-.931-1.016-.857 0-1.559-.477-1.559-1.059s.45-.781 1-.441 1-.057 1-.882-.441-1.773-.981-2.106c-.539-.334-.942-2.723-.894-5.309.115-6.245-1.158-13.525-2.525-14.438-.659-.44-.299-.766.9-.813 1.925-.076 1.921-.111-.11-.931-2.162-.874-4.26-9.804-2.843-12.098.344-.556.024-1.735-.711-2.62-.735-.886-1.19-1.867-1.011-2.182.179-.314-.221-.753-.889-.976-.697-.232-.917.077-.516.725.384.622.187 1.13-.437 1.13-.692 0-1.034-1.466-.876-3.75.143-2.062-.271-4.73-.92-5.928-.649-1.197-.952-2.772-.673-3.5.279-.727-.672-2.593-2.114-4.147-2.051-2.211-2.491-3.471-2.025-5.8.367-1.837.218-2.742-.39-2.366-.551.341-.985-.545-.985-2.009 0-1.66.405-2.368 1.107-1.934.761.471.875-.058.365-1.691-.408-1.306-1.199-2.669-1.759-3.028-1.206-.774-2.691-10.88-2.325-15.82.184-2.48-.37-4.1-1.939-5.669-1.208-1.208-2.495-3.788-2.86-5.735-.365-1.946-1.319-4.795-2.12-6.331-.801-1.535-1.459-3.369-1.463-4.074-.003-.705-.753-2.955-1.666-5-.912-2.045-1.701-3.943-1.751-4.218-.051-.275-1.209-2.3-2.575-4.5-1.365-2.2-2.674-4.45-2.908-5-.234-.55-2.381-3.407-4.771-6.349-2.391-2.941-4.626-6.462-4.967-7.823-.738-2.939-5.262-5.117-6.493-3.125-.611.988-1.063 1.009-1.979.093-.677-.677-2.416-.942-4.042-.617-2.361.472-2.854.233-2.854-1.387 0-1.51-.688-1.959-3-1.959-1.65 0-3 .375-3 .834 0 .458.702.833 1.559.833s1.293.43.968.956c-.325.526-1.268.697-2.096.379-.828-.318-2.389.222-3.468 1.199-1.08.977-1.963 1.419-1.963.983 0-.435-1.388.957-3.085 3.095-3.856 4.858-5.93 6.804-8.165 7.657-.962.368-1.75 1.288-1.75 2.046 0 .758-.725 2.83-1.61 4.605-.931 1.865-1.378 4.391-1.059 5.983.393 1.969-.002 3.227-1.39 4.416-1.068.914-1.941 2.791-1.941 4.171 0 1.381-.405 2.51-.901 2.51s-.927 1.463-.959 3.25c-.139 7.861-.855 12.463-2.386 15.344-1.697 3.194-2.529 6.842-2.672 11.715-.045 1.545-.501 2.55-1.013 2.234-1.276-.789-1.855.386-2.474 5.012-1.438 10.745-5.383 18.337-11.026 21.218-6.059 3.094-16.22 4.41-17.541 2.272-.391-.633-1.12-1.054-1.62-.936-.499.118-2.175-.309-3.723-.948-1.548-.638-3.166-1.161-3.595-1.161-.428 0-2.086-1.124-3.684-2.499-1.599-1.374-2.574-2.499-2.168-2.5.406 0-.643-2.552-2.33-5.67-2.389-4.416-2.929-6.406-2.442-9 .384-2.049.222-3.331-.421-3.331-.575 0-1.059.563-1.077 1.25-.017.694-.717.36-1.571-.75-.967-1.256-1.355-3.18-1.044-5.172.338-2.163.048-3.344-.912-3.712-.788-.303-1.146-1.222-.812-2.091.327-.853.056-2.2-.603-2.994s-.877-1.963-.484-2.599c.393-.636.233-1.453-.356-1.817-.589-.364-1.18-2.789-1.315-5.388-.135-2.6-.68-4.727-1.213-4.727-.532 0-.173-.878.798-1.952 1.692-1.869 1.682-2.092-.22-5.25-1.092-1.814-1.759-3.923-1.481-4.687.309-.851.067-1.119-.625-.691-.671.414-1.178-.037-1.248-1.111-.065-.995-.282-3.159-.484-4.809-.201-1.65-.485-4.238-.632-5.75-.146-1.512-.63-2.75-1.075-2.75-.445 0-.519-.47-.164-1.044.355-.574.139-1.653-.479-2.398-1.644-1.981-2.155-5.724-.976-7.145.709-.854.668-1.455-.13-1.949-.844-.521-.789-.946.201-1.574.999-.632 1.027-.863.107-.875-.819-.01-1.257-1.651-1.271-4.765-.011-2.613-.632-7.668-1.379-11.234-.746-3.566-1.137-7.06-.867-7.763.27-.703.048-1.835-.493-2.516-1.291-1.622-1.455-22.486-.184-23.272.537-.332.657-1.121.266-1.753-.391-.633-.836-4.478-.989-8.545-.153-4.068-.751-7.966-1.329-8.662-.578-.697-1.703-3.767-2.499-6.823-1.095-4.205-2.487-6.557-5.726-9.675l-4.279-4.12-7.5.691c-13.162 1.212-21.806 1.079-21.266-.326.76-1.982-1.465-1.457-3.618.854m-10.084 52.261c-.024 1.388-.561 1.728-2.097 1.326-1.409-.368-2.917.334-4.75 2.213-1.477 1.513-3.472 3.04-4.435 3.391-6.195 2.265 3.009 11.437 9.639 9.606 1.973-.545 3.817-.971 4.099-.947 3.578.306 4.765-8.464 1.635-12.08-.655-.757-1.837-2.276-2.625-3.376-1.355-1.889-1.436-1.896-1.466-.133M225 120.892c-7.056 3.625-8.001 3.956-8.015 2.811-.01-.754-.29-.83-.75-.203-.404.55-1.41 1.098-2.235 1.219-.825.12-2.738.51-4.25.866-2.244.529-2.756.304-2.782-1.218-.03-1.792-.087-1.794-1.399-.064-.752.992-1.525 1.389-1.718.882-.193-.506-1.255-1.201-2.361-1.544-4.063-1.26-6.009 11.619-2.41 15.955.663.799.937 1.72.61 2.047-.327.327-.042 1.104.635 1.726 7.341 6.753 14.358 7.971 18.977 3.294 1.54-1.561 3.373-2.618 4.071-2.35 1.72.66 4.041-2.973 2.341-3.663-.668-.271-.271-.528.881-.571 1.152-.043 2.91-.979 3.905-2.079.995-1.1 2.442-2 3.214-2 .772 0 1.15-.412.839-.915-.311-.503-.177-1.065.297-1.25 1.322-.513 2.439-7.835 1.195-7.835-.575 0-1.045-.873-1.045-1.941s-.338-2.133-.75-2.369c-1.722-.981-7.861-1.511-9.25-.798m-45.104 42.876c-2.56 3.054-.377 10.09 5.603 18.058 5.009 6.673 5.01 6.674 10.005 6.674 4.259 0 5.039-.3 5.287-2.03.16-1.117 1.285-2.467 2.5-3 5.279-2.318-1.633-15.327-9.083-17.096-1.49-.353-3.44-1.276-4.334-2.051-2.814-2.438-8.151-2.735-9.978-.555m-21.613 22.666c-3.844 3.951-4.079 4.556-4.894 12.608-1.281 12.66-.723 16.758 2.956 21.677 1.735 2.321 3.894 4.233 4.798 4.25.904.017 1.913.734 2.242 1.592.409 1.066 1.474 1.418 3.357 1.11 11.823-1.937 12.453-2.235 14.998-7.098 4.453-8.51 4.487-18.15.083-23.137-1.003-1.136-1.823-2.503-1.823-3.038 0-2.379-9.638-10.325-13.589-11.204-3.952-.878-4.226-.769-8.128 3.24M134 239.063c-9.765 6.569-13.857 28.182-7.838 41.394 3.852 8.453 20.672 14.914 30.822 11.838 2.484-.752 5.416-1.154 6.516-.893 6.309 1.5 8.836-8.556 3.472-13.819-2.221-2.18-3.021-3.948-3.167-7-.358-7.5-.544-9.072-1.282-10.829-.404-.961-.799-2.873-.879-4.25-.079-1.376-.482-2.503-.894-2.503-.412-.001-.75-.923-.75-2.051 0-5.186-5.886-11.021-13.899-13.78-5.095-1.754-7.16-1.431-12.101 1.893m28.5 70.777c-6.922 2.285-9.187 7.809-6.366 15.527 1.026 2.807 1.866 5.899 1.866 6.869 0 .97.368 1.764.817 1.764.45 0 1.593 2.458 2.54 5.462 1.537 4.877 2.065 5.522 4.932 6.019 3.679.638 9.864.161 11.568-.893 3.266-2.018 6.296-13.444 4.244-16.003-.478-.597-1.185-2.56-1.571-4.362-1.039-4.859-5.479-12.254-7.906-13.168-3.651-1.375-8.042-1.902-10.124-1.215m216.82 6.66c-.914 1.674-1.036 5.854-.421 14.405.079 1.104.514 1.031 2.029-.34 1.174-1.062 2.693-1.503 3.883-1.125 1.625.516 2.069.015 2.628-2.966.37-1.972 1.547-4.46 2.617-5.53 2.799-2.799 2.399-4.603-1.181-5.319-3.642-.728-7.955-.701-6.119.039.691.279 1.002.918.691 1.421-.913 1.478-2.271 1.053-2.667-.835-.332-1.58-.474-1.555-1.46.25m-276.046 5.8c-1.775.537-3.479 1.769-3.786 2.738-.308.97-1.703 2.05-3.101 2.401C93.88 328.068 84 337.254 84 338.956c0 .482-1.306 1.455-2.903 2.161-1.597.707-3.648 2.545-4.557 4.084-.909 1.54-2.104 2.799-2.656 2.799-.551 0-.727.445-.391.989.336.544-.542 2.231-1.952 3.75-7.708 8.3-8.541 9.589-8.541 13.209 0 2.009.478 4.13 1.063 4.715s1.104 2.496 1.154 4.247c.061 2.17.757 3.521 2.187 4.244 1.153.583 3.446 2.343 5.096 3.912C84.813 394.769 86.533 396 90.568 396c3.263 0 6.432-2.549 6.432-5.174 0-.834.9-2.331 2-3.326 1.1-.995 2-2.267 2-2.826 0-.559.709-1.8 1.576-2.758.866-.957 1.669-2.377 1.783-3.155.311-2.12 8.6-15.761 9.577-15.761.466 0 1.104-1.012 1.417-2.25.581-2.291 7.218-9.75 8.677-9.75 1.734 0 11.934-11.666 12.531-14.332.554-2.474-.029-3.461-4.616-7.813-2.887-2.739-5.518-4.615-5.847-4.168-.889 1.209-7.89 1.459-8.601.308-.338-.547-1.736-.995-3.106-.995-1.37 0-3.705-.602-5.191-1.338-1.971-.976-3.571-1.074-5.926-.362m314.062 14.63c.372 1.862.145 3.078-.625 3.337-.912.307-.87.821.172 2.083.989 1.198 1.738 1.38 2.633.637.893-.741 1.409-.626 1.804.405a1.546 1.546 0 0 1-.883 1.994c-1.894.727-1.849 2.614.063 2.614.825 0 1.5.45 1.5 1s-.439 1-.975 1c-.541 0-.719 1.282-.399 2.878.316 1.583.079 3.805-.528 4.939-1.123 2.098.181 4.158 1.392 2.199.776-1.255 4.193-1.339 4.946-.12.304.493-.116 2.18-.935 3.75-.819 1.57-1.491 2.292-1.495 1.604-.003-.687-.751-1.25-1.661-1.25-1.54 0-1.54.127 0 1.829.91 1.006 1.655 2.329 1.655 2.941 0 1.716 1.946 2.519 3.327 1.373.72-.597 1.819-.671 2.619-.177 2.256 1.395 4.357-1.708 4.46-6.587.052-2.448-.408-4.772-1.021-5.165-.614-.393-1.466-1.839-1.894-3.214-.428-1.375-1.561-3.052-2.519-3.726-1.375-.968-1.676-2.401-1.431-6.811.238-4.279.028-5.35-.899-4.581-.739.614-1.777.653-2.671.1-1.238-.765-1.172-1.114.435-2.29 1.23-.899 1.513-1.624.807-2.06-.6-.371-1.534.119-2.076 1.087-.916 1.638-1.122 1.605-2.929-.479-2.636-3.04-3.573-2.815-2.872.69M142.5 366.389c-1.1.851-3.029 1.562-4.286 1.579-1.318.019-4.277 1.939-6.983 4.532-2.583 2.475-5.027 4.5-5.432 4.5-1.474 0-8.799 10.978-8.813 13.207-.02 3.426-1.107 6.836-2.002 6.283-.433-.268-1.082 2.325-1.441 5.762-.359 3.436-1.352 9.17-2.206 12.742-2.645 11.061.271 29.006 4.713 29.006.488 0 .619.698.292 1.551-.339.882.341 2.547 1.577 3.863 1.195 1.272 2.098 2.711 2.008 3.199-.491 2.657.439 4.718 3.765 8.334 3.445 3.748 3.962 3.974 7.75 3.397 6.175-.941 7.838-2.09 7.127-4.926-.334-1.33-.179-2.418.345-2.418 1.81 0 2.192-3.908.616-6.313-1.409-2.151-1.414-2.538-.053-3.668.838-.695 1.523-2.36 1.523-3.699s1.125-4.45 2.5-6.913 2.5-5.033 2.5-5.71c0-.678 1.125-2.888 2.5-4.912 1.375-2.023 2.5-4.23 2.5-4.903 0-.674.614-1.935 1.364-2.803 1.721-1.994 5.636-13.688 5.636-16.839 0-1.304.452-3.217 1.005-4.25 1.451-2.71 1.73-23.245.323-23.714-.614-.205-.886-1.25-.605-2.324.346-1.323.005-1.952-1.057-1.952-.861 0-1.978-.735-2.481-1.634-1.311-2.343-10.05-3.016-12.685-.977m68.556 10.475c-.652 1.575-1.086 5.287-.965 8.25.121 2.962-.253 6.529-.831 7.927-1.075 2.598-4.092 5.649-5.164 5.221-1.306-.521-4.096.949-4.096 2.159 0 .708 1.125 2.501 2.5 3.984 1.375 1.484 2.507 3.462 2.515 4.397.013 1.462.151 1.489.985.198.781-1.209.972-1.057.985.785.017 2.537 2.111 6.096 6.265 10.647 1.512 1.658 2.75 4.065 2.75 5.35 0 1.285.414 2.08.919 1.768.506-.313 1.599.111 2.429.941 2.041 2.041 3.715 1.908 3.039-.241-.471-1.498-.323-1.472 1.028.186 1.555 1.908 1.635 1.904 5.581-.314 2.202-1.237 4.004-1.938 4.004-1.556 0 .382 1.629-1.164 3.62-3.436 1.992-2.271 4.166-4.13 4.831-4.13 2.71 0 3.967-4.703 2.47-9.24-.773-2.343-1.302-4.37-1.174-4.504.128-.135-1.338-3.153-3.257-6.708-1.92-3.554-3.49-7.307-3.49-8.339 0-1.031-.338-2.213-.75-2.626-.749-.749-.89-1.259-1.125-4.083-.202-2.422-2.125-1.718-2.125.777 0 4.609-2.437 6.449-8.715 6.583-5.74.122-5.802.093-8.055-3.852-2.14-3.745-2.183-4.184-.757-7.598.833-1.992 1.265-4.025.961-4.516-1.101-1.783-3.218-.831-4.378 1.97M54.032 388.25c-.018 1.512-.493 2.75-1.057 2.75-.858 0-3.113 4.342-3.117 6 0 .275-.566 1.175-1.257 2s-1.336 3.926-1.435 6.892c-.115 3.47-.925 6.599-2.271 8.778-1.539 2.49-1.808 3.73-1.018 4.682.75.903.758 1.613.027 2.344-2.461 2.461-2.829 25.145-.463 28.523.857 1.224 1.559 3.266 1.559 4.537 0 1.582 1.105 2.964 3.5 4.377 1.925 1.135 3.5 2.423 3.5 2.86 0 .438 1.237 2.119 2.75 3.736 3.129 3.344 11.839 4.535 14.413 1.97 2.696-2.686 6.593-4.73 7.994-4.192 3.406 1.307 6.126-4 6.524-12.733.207-4.551.801-9.399 1.32-10.774.938-2.489.668-16.879-.461-24.5-1.452-9.808-1.644-10.398-3.575-11.011-1.081-.343-1.965-1.193-1.965-1.889 0-1.351-7.251-7.6-8.819-7.6-.515 0-1.492-.67-2.172-1.489-.68-.819-1.594-1.267-2.032-.997-1.304.806-3.977-.62-3.977-2.121 0-.839-1.05-1.393-2.64-1.393-1.452 0-3.237-.788-3.968-1.75-1.208-1.591-1.331-1.5-1.36 1m351.044 1.391c-2.869 2.564-3.232 3.516-3.516 9.225-.175 3.501-.733 6.651-1.241 7-2.891 1.983-5.545 8.343-4.467 10.708.97 2.13.86 2.426-.906 2.426-1.16 0-2.356.933-2.826 2.206-.951 2.57.29 9.097 1.827 9.61.579.193 1.053.936 1.053 1.652 0 2.54 8.37 6.36 9.595 4.378.331-.535 1.214-.159 1.982.844 1.208 1.578 1.515 1.618 2.404.31.855-1.259 1.162-1.278 1.907-.122 1.119 1.736 7.746 2.388 10.311 1.015 2.692-1.44 9.164-8.757 9.446-10.678.375-2.557-2.482-12.377-4.131-14.199-.833-.921-1.514-3.011-1.514-4.645 0-1.634-.415-3.399-.922-3.921-.506-.522-1.1-3.674-1.319-7.003-.472-7.185-1.105-8.447-4.235-8.447-1.296 0-2.511-.461-2.699-1.024-.884-2.653-7.494-2.244-10.749.665M176.43 419.17c-7.756 1.67-16.778 14.638-18.519 26.617-.502 3.458-1.647 7.407-2.544 8.776-2.097 3.2-1.187 10.936 1.64 13.945 1.096 1.166 1.993 2.545 1.993 3.062 0 .518 1.463 1.539 3.25 2.27 5.538 2.263 8.226 3.624 8.856 4.484.333.455 2.506 1.083 4.829 1.394 3.015.404 3.843.837 2.894 1.511-.918.652-.555.767 1.171.371 1.375-.315 3.72-.579 5.211-.586 1.491-.008 3.624-.994 4.739-2.191 1.116-1.198 2.308-1.898 2.649-1.557.711.711 5.789-1.845 9.485-4.776 5.143-4.077 6.836-7.603 7.439-15.49.84-10.989.711-12.004-1.972-15.521-1.344-1.763-2.734-4.36-3.088-5.771-.354-1.411-3.191-4.765-6.304-7.453-10.989-9.49-14.001-10.749-21.729-9.085m179.452 16.021c-.066.72-.034 1.921.069 2.67.103.749-.744 2.229-1.882 3.289s-2.069 1.46-2.069.889-.45-1.039-1-1.039-1 .675-1 1.5-.735 1.5-1.633 1.5-2.481.978-3.518 2.174c-2.074 2.391-6.849 3.164-6.849 1.109 0-.706-.653-1.283-1.45-1.283-.798 0-1.951-.788-2.563-1.75-.93-1.462-1.019-1.302-.538.973.455 2.154.259 2.602-.937 2.143-.831-.319-1.512-.082-1.512.527s.397 1.107.882 1.107.822 1.8.75 4c-.073 2.199-.525 3.999-1.004 4-.48 0-.308.681.382 1.512 1.015 1.223 1.544 1.274 2.758.265.827-.686 2.005-1.298 2.618-1.36.612-.062 1.902-.181 2.864-.265.962-.083 1.75-.827 1.75-1.652s.637-1.5 1.417-1.5c.779 0 1.643-.562 1.921-1.25.403-1 .52-1 .583 0 .183 2.893 3.767.921 10.75-5.915 2.475-2.423 3.574-5.565 2.235-6.393-.498-.308-.906-1.632-.906-2.942 0-2.495-1.913-4.58-2.118-2.309m37.426 23.029c-2.256 1.064-3.944 3.78-2.349 3.78.493 0 .636 2.519.319 5.598-.336 3.251-.165 5.872.408 6.25 1.752 1.158 3.396 7.152 1.962 7.152-1.953 0-3.552-2.087-2.9-3.786.39-1.017.191-1.294-.585-.815-.667.412-1.434.058-1.77-.817-.473-1.232-1.013-1.321-2.664-.437-3.16 1.691-5.329-1.581-3.201-4.829 1.543-2.353 1.306-2.601-2.154-2.253-.345.035-1.132-.927-1.75-2.138-1.062-2.079-3.41-2.753-2.874-.825.137.495-.177.9-.698.9-1.385 0-6.052 4.533-6.052 5.878 0 .632-.412 1.931-.916 2.886-6.762 12.819-9.31 29.36-5.433 35.261 2.961 4.505 7.113 6.941 12.167 7.139 3.121.122 3.869.488 3.415 1.67-.437 1.14-.126 1.339 1.263.806 1.085-.416 2.155-.205 2.598.512.58.938 1.081.948 2.172.042.78-.647 1.714-.881 2.076-.519.362.362.658.142.658-.489 0-.777 1.387-.958 4.289-.56 3.15.432 4.62.189 5.537-.916.687-.828 2.124-1.274 3.199-.993 1.23.321 2.183-.095 2.58-1.129.487-1.27.94-1.381 2.012-.491.761.631 1.397.755 1.413.275.017-.479.498-.07 1.068.911.813 1.396 1.784 1.642 4.484 1.136 7.725-1.45 22.045-21.549 18.444-25.888-.659-.794-.925-1.886-.59-2.427.823-1.332-5.37-8.263-6.666-7.462-.578.357-.818.027-.548-.753 1.097-3.169-13.502-19.563-19.341-21.718-4.599-1.697-7.401-1.975-9.573-.951m-278.899 26.839c-1.05.383-4.159.482-6.909.221-10.208-.971-21.439 6.163-23.147 14.704-.336 1.682-1.005 3.301-1.486 3.598-.481.297-.611 1.589-.29 2.87.322 1.281.099 2.63-.496 2.998-1.337.826-1.428 5.218-.125 6.023.526.325.735 1.168.465 1.872-.27.705.424 2.11 1.544 3.123 1.119 1.013 2.035 2.447 2.035 3.187 0 .74.434 1.233.964 1.095.53-.137 1.818 1.325 2.863 3.25 1.161 2.142 3.018 3.837 4.785 4.368 1.589.477 3.686 1.275 4.661 1.772 1.266.647 1.935.481 2.342-.579.313-.817 1.429-1.757 2.478-2.091 2.28-.723 8.886-7.489 8.898-9.113.005-.629.666-1.395 1.468-1.703.803-.308 2.611-2.831 4.017-5.607 1.407-2.776 3.048-5.047 3.648-5.047.599 0 .809-.732.466-1.627-.344-.894-.073-2.291.601-3.104 2.491-3.001 2.777-12.514.454-15.072-1.525-1.677-1.765-2.505-.886-3.048 1.697-1.049-5.955-2.964-8.35-2.09m72.224 9.66c-.131.121-1.677.329-3.435.463-1.759.134-3.198.57-3.198.969 0 .798-5.489 1.691-14 2.278-3.025.208-5.5.858-5.5 1.443 0 .585-.783 1.978-1.74 3.096-1.446 1.688-1.488 2.032-.25 2.032.819 0 1.49.45 1.49 1s-.702 1-1.559 1-1.312.399-1.011.887c.301.487-.082 1.409-.852 2.048-1.066.885-1.577.876-2.142-.038-.55-.89-1.034-.799-1.877.353-1.204 1.647-7.013 1.293-5.988-.364.301-.487.07-.886-.512-.886-.582 0-1.059.717-1.059 1.594 0 .876-.9 1.829-2 2.116-1.1.288-2.001.808-2.001 1.157-.002 1.1-4.688 6.133-5.71 6.133-2.064 0-4.706 3.983-3.465 5.224 1.891 1.891 1.358 3.775-1.074 3.791-3.68.025-8.75 5.721-8.75 9.83 0 1.12-.408 2.289-.906 2.597-.498.308-.671 1.46-.383 2.559.361 1.38.03 1.999-1.07 1.999-1.237 0-1.401.501-.736 2.25.47 1.237.89 2.593.932 3.012.041.419.535 2.424 1.096 4.456.754 2.731.708 3.886-.178 4.433-.658.407-.848 1.089-.422 1.516.427.426 1.194.113 1.706-.696.712-1.126.934-.854.946 1.157.008 1.445.7 3.196 1.538 3.891.837.695 1.282 2.02.988 2.946-.598 1.886 2.127 8.035 3.562 8.035.51 0 .927 1.109.927 2.465 0 1.475.837 2.913 2.086 3.581 1.147.614 1.869 1.332 1.606 1.596-.601.6 4.084 5.358 5.276 5.358.482 0 2.417 1.8 4.3 4s4.088 4 4.9 4c.812 0 3.669.747 6.35 1.661 3.528 1.202 4.982 1.34 5.262.5.213-.639 1.279-1.161 2.371-1.161 1.456 0 1.832.479 1.412 1.802-.473 1.491.033 1.819 2.933 1.901 2.348.066 3.504-.353 3.504-1.271 0-.806.617-1.133 1.5-.794.825.317 1.5 1.203 1.5 1.969 0 1.911 2.921 1.764 3.668-.185.491-1.279 1.616-1.459 5.956-.953 4.842.566 5.294.455 4.768-1.172-.486-1.504-.405-1.552.498-.297 1.448 2.012 1.506-.391.075-3.066-2.194-4.1.46-6.197 6.897-5.45 5.854.679 10.405-1.625 8.69-4.4-1.081-1.749 1.468-5.644 2.597-3.969.605.898.726-.374.344-3.615-.533-4.521-.46-4.782.761-2.719 1.547 2.614 2.746 1.968 2.746-1.479 0-1.301.675-2.624 1.5-2.94 1.733-.665 2.056-2.486.375-2.112-.619.137-1.341-.343-1.606-1.068-.309-.848.181-1.205 1.375-1 1.125.193 1.856-.273 1.856-1.182 0-.825-.658-1.356-1.462-1.179-.804.176-2.041-.473-2.75-1.442-1.18-1.614-1.289-1.558-1.303.68-.011 1.665-.277 2.028-.839 1.144-.657-1.037-1.081-.986-2.107.25-3.795 4.572-4.064-.78-.289-5.756 2.693-3.549 5.25-4.803 5.25-2.575 0 .78.455.746 1.488-.112 1.216-1.01 1.614-.895 2.177.627 1.028 2.779 2.459 3.395 6.335 2.725 4.009-.693 5.667-1.832 4.087-2.808-.598-.37-1.087-1.151-1.087-1.735 0-.671.554-.604 1.5.181 1.229 1.02 1.5.951 1.5-.378 0-.892.4-1.622.889-1.622 1.579 0 2.406-7.197.934-8.131-.962-.609-.989-.843-.099-.854 1.786-.022 4.551-5.897 3.697-7.855-1.178-2.704-1.484-4.44-1.513-8.59-.016-2.227-.857-5.094-1.94-6.615-1.345-1.889-1.773-3.766-1.443-6.339.52-4.061-.534-6.443-5.138-11.616-1.713-1.925-3.721-4.93-4.463-6.678-.742-1.748-1.723-2.946-2.18-2.664-.457.283-1.43.018-2.161-.589-1.098-.911-24.989-1.233-25.95-.35m254.97 25.776c-2.022 1.372-4.222 2.951-4.889 3.51-.668.559-2.504 1.986-4.082 3.171-4.59 3.448-5.979 7.79-3.382 10.574 2.433 2.608 4.294 2.881 5.112.75.316-.825 1.495-1.5 2.62-1.5s2.827-.425 3.782-.945c.955-.52 3.408-1.213 5.451-1.539 4.248-.679 5.763-2.315 3.626-3.918-2.407-1.805-3.039-4.587-1.06-4.668 1.434-.059 1.387-.213-.281-.93-1.1-.473-1.437-.891-.75-.93 1.592-.089 1.625-3.295.05-4.87-1.635-1.635-1.989-1.561-6.197 1.295M333 522.776c0 .466.9 1.813 2 2.994 2.581 2.77 2.522 3.052-.514 2.472-2.006-.383-2.389-.153-1.893 1.139.413 1.078.084 1.619-.986 1.619-2.245 0-2.106 3.978.143 4.079 1.397.063 1.448.196.25.658-4.93 1.903-7.142 20.263-2.441 20.263.807 0 2.421.563 3.585 1.25 1.694 1 2.208 1 2.57 0 .659-1.819 2.971-1.53 4.479.561.719.996 1.846 2.134 2.506 2.528 1.385.827 10.301-1.199 10.301-2.341 0-.421.958-1.015 2.13-1.322 1.367-.357 1.926-1.087 1.562-2.037-.313-.814.484-2.616 1.77-4.003 4.46-4.813 1.499-13.927-5.217-16.058-1.235-.392-2.245-1.342-2.245-2.11 0-.769-.9-1.879-2-2.468s-2.014-1.617-2.031-2.285c-.058-2.229-5.055-5.184-6.08-3.595-.748 1.162-1.038 1.148-1.835-.091-.52-.809-1.254-1.162-1.631-.785-.377.377-1.527.236-2.554-.314-1.028-.55-1.869-.619-1.869-.154m79.174 19.05c-1.005 1.005-2.58 2.116-3.5 2.469-1.847.709-2.357 6.165-.674 7.205.55.34 1 1.744 1 3.121 0 3.468 2.92 12.068 4.559 13.428 1.619 1.343 3.78.276 3.088-1.526-.269-.701.623-1.781 1.983-2.4 2.283-1.041 2.581-.863 3.92 2.343.798 1.909 1.45 3.904 1.45 4.434 0 2.086 3.915 2.185 5.949.151 1.128-1.128 2.726-2.051 3.551-2.051.825 0 1.5-.257 1.5-.571 0-.315-.675-1.247-1.5-2.072s-1.5-1.211-1.5-.857c0 .354-.707-.064-1.571-.929-.865-.864-2.595-1.571-3.845-1.571-1.251 0-3.089-.9-4.084-2-1.682-1.859-1.688-2-.088-2 1.322 0 1.564-.523 1.04-2.25-.375-1.237-.743-2.7-.817-3.25-.074-.55-1.035-1.245-2.135-1.545-1.309-.357-2-1.394-2-3 0-1.35-.583-2.914-1.295-3.474-.712-.561-1.37-2.023-1.463-3.25-.204-2.709-1.156-2.817-3.568-.405M374 560.94c-3.359 1.033-12.027 6.966-12.686 8.684-.29.757-1.568 1.376-2.839 1.376s-3.039.279-3.928.62c-1.669.641-8.166 9.38-6.973 9.38 1.818 0-1.99 2.833-4.475 3.33-3.953.791-10.099 9.222-10.099 13.854 0 1.879-.532 3.948-1.182 4.598-1.939 1.939-1.791 9.203.297 14.638 2.469 6.425 5.143 11.58 6.008 11.58.367 0 2.852 2.073 5.522 4.606l4.855 4.605 5.852-.601c4.816-.494 6.332-.259 8.561 1.328 4.458 3.174 7.744 3.584 9.262 1.154.718-1.151 2.323-2.092 3.566-2.092 1.242 0 2.262-.562 2.265-1.25.007-1.38 5.356-4.75 7.54-4.75.761 0 1.872-.913 2.469-2.028.597-1.115 1.432-1.814 1.856-1.552 1.173.725 7.11-3.197 7.836-5.176.352-.959 2.311-3.199 4.355-4.977 4.196-3.651 5.269-8 3.642-14.767-.529-2.2-.928-4.836-.887-5.858.041-1.022-.722-2.066-1.697-2.321-1.389-.363-1.732-1.396-1.591-4.793.103-2.47-.602-5.985-1.64-8.179-1.002-2.117-1.836-4.408-1.855-5.092-.074-2.717-3.617-9.307-5.288-9.838-.976-.309-1.499-1.009-1.163-1.554.623-1.007-2.269-4.865-3.647-4.865-.953 0-.498 11.771.493 12.762.404.404 1.305-.045 2.002-.998 1.411-1.93 2.731-1.349 1.893.834-.296.771.073 1.434.819 1.472.746.039.473.416-.607.838-1.776.695-1.705.833.75 1.449 3.134.787 3.657 2.643.745 2.643-1.339 0-1.784.48-1.393 1.5.363.945-.011 1.5-1.012 1.5-1.597 0-3.398-4.562-2.252-5.707.337-.337-.284-1.242-1.38-2.01-1.097-.768-1.994-1.865-1.994-2.439 0-2.549-3.519-8.091-5.653-8.902-1.291-.491-2.347-1.579-2.347-2.417 0-1.671-.315-1.717-4-.585" fill="#d3d3d3" fill-rule="evenodd"/></svg>