<svg xmlns="http://www.w3.org/2000/svg" width="500" height="500"><path d="M300.396 2.492c.172 1.104.136 1.526-.081.937-.216-.589-1.75-.872-3.408-.629-2.691.395-2.983.774-2.711 3.526.275 2.788.639 3.087 3.804 3.128 3.129.041 3.482.32 3.335 2.629-.105 1.627.353 2.584 1.234 2.584.978 0 1.255-.829.917-2.746-.465-2.64-.375-2.705 2.313-1.691 1.631.616 2.858 1.866 2.943 2.999.099 1.313-.321 1.763-1.298 1.388-.794-.305-1.444-.118-1.444.414 0 .533.513.969 1.14.969.627 0 1.737.788 2.468 1.75 1.192 1.57 1.332 1.416 1.36-1.5.018-1.788.482-3.25 1.032-3.25 1.104 0 1.403 2.447 1.038 8.5-.223 3.713.829 4.61 1.339 1.14.124-.849 1.06-2.466 2.08-3.592 1.554-1.717 1.603-2.048.305-2.048-.851 0-1.818-.704-2.149-1.565-.456-1.191-.137-1.419 1.332-.952 1.336.423 2.272-.02 3.029-1.435.919-1.716.801-2.048-.726-2.048-1.069 0-1.881-.78-1.965-1.888-.102-1.358.365-1.755 1.666-1.415 2.291.599 4.436 4.947 2.907 5.892-.716.443-.621.945.287 1.521 1.057.669.97.863-.393.875-1.078.009-1.75.783-1.75 2.015 0 1.2-.7 2.04-1.75 2.1-1.156.066-.933.328.658.773 1.325.371 2.528 1.492 2.675 2.492.445 3.031 1.417 3.154 1.417.179 0-2.245.266-2.568 1.367-1.654 1.039.862 1.661.781 2.586-.334 1.393-1.678.644-3.386-1.917-4.376-1.291-.499-1.548-1.212-.968-2.68.671-1.695.802-1.733.862-.25.083 2.086 1.649 2.301 2.77.381 1.228-2.102 5.449-3.184 4.689-1.202-.329.858-.969 1.331-1.422 1.051-1.393-.862-2.262 3.631-.941 4.871.925.868 1.336.843 1.682-.101.252-.687 1.123-1.25 1.934-1.25.812 0 1.198.45.858 1-.34.55-.179 1 .358 1 .536 0 1.202-.563 1.48-1.25.301-.747.536-.545.583.5.043.962-.569 1.75-1.362 1.75-.793 0-1.763.521-2.156 1.158-.491.793-.037.98 1.441.593 1.453-.38 2.156-.105 2.156.843 0 .773.413 1.406.918 1.406.505 0 1.704.301 2.664.67 1.22.468 1.52.304.996-.544-.413-.667-.223-1.849.422-2.626.645-.777.882-1.882.527-2.456-.961-1.555-2.548-1.263-1.927.355.295.769.056 1.696-.532 2.059-1.29.797-1.451-5.306-.192-7.292.676-1.066.973-1.003 1.478.314.347.906 1.085 1.367 1.639 1.024.554-.342 1.007-.145 1.007.437 0 1.642 1.713 1.248 2.404-.552.443-1.153.189-1.447-.893-1.032-.831.319-1.511.192-1.511-.281 0-.474.675-1.121 1.5-1.438.825-.316 1.5-1.354 1.5-2.307 0-1.346.267-1.464 1.2-.531 1.885 1.885 2.374 1.456 2.627-2.3.141-2.088-.224-3.5-.903-3.5-.626 0-.879.675-.562 1.5.316.825.139 1.5-.393 1.5-.933 0-1.392-1.512-1.035-3.408.095-.5-.415-1.281-1.131-1.735-.974-.618-.861-.83.447-.842.962-.008 1.75.435 1.75.985s.9 1 2 1 2 .505 2 1.122c0 .776.464.738 1.5-.122.906-.752 1.5-.833 1.5-.206 0 .572-.562 1.266-1.25 1.544-.747.301-.545.536.5.583 1.002.045 1.75.863 1.75 1.912 0 2.541 1.066 3.357 2.658 2.036.738-.613 1.342-.802 1.342-.42 0 .382.767-.074 1.705-1.012 2.057-2.056 2.906-.448 1.325 2.508-.888 1.659-.804 2.055.435 2.055.844 0 1.535-.702 1.535-1.559s.45-1.281 1-.941c.55.34 1-.084 1-.941S366.59 9 366.088 9c-.501 0-.81-.687-.687-1.527.343-2.335 2.054-1.841 2.447.705l.348 2.258 1.367-2.468c1.355-2.448 1.366-2.45 1.402-.218.019 1.238.062 2.588.094 3 .032.412-.98 1.015-2.25 1.339-1.27.323-2.196 1.111-2.059 1.75.138.638-.65 1.161-1.75 1.161-2.239 0-2.9 4.325-.855 5.59.79.488.988-.113.639-1.941-.435-2.275-.165-2.649 1.914-2.649 1.331 0 2.161-.419 1.845-.931a1.086 1.086 0 0 1 .336-1.494c.501-.31 1.169.109 1.485.931.834 2.175 2.636 1.829 2.636-.506 0-1.1.45-2.056 1-2.125 3.972-.496 4.514-.219 5.122 2.625.612 2.865 1.381 1.021.947-2.272-.092-.7.482-1.922 1.275-2.715 1.255-1.255 1.515-1.161 2.009.729.312 1.194.896 1.842 1.298 1.441.401-.402 1.258.518 1.904 2.043 1.165 2.749 1.182 2.73 1.939-2.077.486-3.092 1.055-4.378 1.569-3.548.443.717.583 1.662.312 2.101-.271.439-.016.798.566.798 1.641 0 1.25-2.666-.673-4.589-1.295-1.295-1.358-1.6-.25-1.207.815.289 2.335.085 3.378-.453 1.625-.838 1.817-.675 1.344 1.135-.304 1.161-.192 2.335.249 2.607.821.508 2.03-7.59 1.269-8.491-.232-.275-1.06.374-1.84 1.441-1.296 1.772-1.418 1.786-1.418.165 0-.998-.547-1.574-1.25-1.316-.687.252-1.16.898-1.049 1.435.11.537-.944.758-2.342.491-1.828-.35-2.169-.717-1.214-1.308.927-.572.677-.772-.824-.659-1.511.114-2.324 1.015-2.726 3.022-.316 1.581-1.026 2.579-1.587 2.232-.558-.345-.74-1.725-.403-3.066.458-1.828.209-2.439-.997-2.439-.884 0-1.615.563-1.623 1.25-.011.912-.215.938-.75.098-.524-.821-8.257-1.154-26.91-1.158-25.536-.006-26.166.042-25.794 1.97.236 1.225-.078 1.817-.825 1.555-.663-.232-1.074-1.163-.912-2.069.345-1.933-.894-2.146-2.594-.446-.933.933-1.2.933-1.2 0 0-.667-1.333-1.2-3-1.2-1.945 0-3 .507-3 1.441 0 .793-.498 1.749-1.107 2.125-.745.461-.912-.093-.509-1.691.328-1.306.339-1.813.023-1.125-.315.687-1.324 1.243-2.24 1.235-1.446-.014-1.468-.149-.167-1.026 1.077-.726-.108-.935-4.208-.743-5.083.239-5.674.488-5.396 2.276m98.211-.91c-.854 2.224-.891 2.195 2.057 1.631 2.167-.414 2.546-.202 2.031 1.139-.831 2.166.248 2.108 1.863-.1.703-.962 1.64-1.388 2.081-.946.442.441.366 1.116-.168 1.498-1.094.784-1.79 5.196-.819 5.196.345 0 1.203-.787 1.906-1.748.725-.992 1.639-1.365 2.11-.864.458.487.273 1.086-.41 1.33-.831.296-.946.996-.349 2.113.492.918.976 2.119 1.076 2.669.398 2.188 1.015 1.682 1.015-.833 0-2.16.464-2.667 2.437-2.667 2.008 0 2.499-.571 2.796-3.25l.36-3.25 1.382 3c1.186 2.574 1.433 2.716 1.742 1 .477-2.644 5.113-4.886 6.949-3.362 1.736 1.44 1.661-.122-.117-2.469-1.336-1.762-1.466-1.752-3.492.274l-2.104 2.104-.808-2.184c-.689-1.863-.901-1.94-1.445-.523-.35.913-1.087 1.66-1.637 1.66s-.741-.675-.425-1.5c.58-1.511-4.515-2.29-5.902-.902-1.091 1.09.405 3.285 1.858 2.728.996-.383 1.241-.061.81 1.063-.73 1.904-2.397 2.153-2.419.361-.011-.833-.339-.75-.985.25-.758 1.173-.973.914-.985-1.191C409.007 2.329 408.55.84 408 .5c-.55-.34-1.007-.029-1.015.691-.011.889-.251.956-.75.21-.953-1.424-4.337-1.41-3.544.016.331.596-.004.521-.744-.167-1.786-1.658-2.608-1.576-3.34.332M65.373 60.069l-3.127.924-.715 30.254c-.862 36.459-.325 165.752.688 165.753.395 0 .454.688.131 1.529-.514 1.34-.738 1.322-1.813-.147-1.109-1.517-1.289-1.447-1.882.72-.542 1.984-.825 2.139-1.64.898-.541-.825-1.026-1.275-1.076-1a642.87 642.87 0 0 1-.427 2.25c-.363 1.897.978 2.385 2.001.729.369-.598 1.394-.08 2.469 1.247 1.237 1.528 1.479 2.489.742 2.945-.784.484-.761 1.08.082 2.095 1.354 1.632.61 2.831-1.303 2.097-.715-.275-1.569-.066-1.896.464-.328.53.146 1.248 1.052 1.596 1.493.573 1.476.758-.186 1.973-1.756 1.284-1.741 1.39.347 2.508 2.869 1.535 2.757 2.926-.329 4.099-2.424.922-2.449 1.023-.75 3.008 1.737 2.029 1.889 2.426 2.134 5.611.108 1.396.359 1.431 1.798.25 1.503-1.232 1.606-1.117 1.014 1.128-.363 1.375-.666 2.886-.673 3.357-.008.471-.682.601-1.499.287-1.917-.736-3.698 2.454-2.461 4.41.712 1.125.919.946.931-.804.011-1.715.596-2.25 2.456-2.25 2.333 0 2.378.12 1.035 2.71-1.245 2.398-1.209 2.933.309 4.657 1.644 1.867 1.622 1.924-.534 1.384-1.237-.31-2.501-.155-2.809.343-.308.498.029.913.749.921 1.045.013 1.036.188-.044.873-1.497.949.041 5.112 1.888 5.112.531 0 .965 1.125.965 2.5 0 1.467-.517 2.397-1.25 2.25-.687-.137-1.256.506-1.263 1.429-.007.924-.344 2.012-.75 2.417-1.072 1.073-.905 3.626.194 2.947.512-.317 1.213-.118 1.559.441.35.566-.31 1.016-1.49 1.016-1.165 0-1.866.408-1.558.906.308.498 1.46.671 2.559.383 1.162-.303 1.999-.03 1.999.653 0 .647-.454.896-1.008.553-.555-.343-1.427.418-1.937 1.691-.694 1.73-.944 1.872-.992.564-.034-.962-.793-1.75-1.685-1.75-1.208 0-1.35.329-.558 1.284.676.813.726 1.82.138 2.75-1.282 2.027-1.217 2.361.945 4.854 1.047 1.207 2.061 1.721 2.253 1.143.193-.578.956-.081 1.696 1.104 1.165 1.865 1.142 2.077-.17 1.573a1.595 1.595 0 0 0-2.099.937c-.841 2.19-.751 2.357.917 1.717.967-.371 1.5.022 1.5 1.106 0 1.291-.737 1.607-3.166 1.357-1.897-.195-3.333.176-3.583.926-.263.787.159 1.029 1.14.653.857-.329 2.244.088 3.083.927 2.045 2.045 1.932 2.955-.224 1.811-1.209-.642-2.149-.498-3.039.465-1.071 1.157-.944 1.393.75 1.393 1.334 0 2.039.654 2.039 1.893 0 1.041.722 2.17 1.604 2.508.882.339 1.357 1.258 1.056 2.043-.301.785-.01 1.645.646 1.912.659.268.423.522-.525.565-1.192.055-1.53.615-1.102 1.829.502 1.429.368 1.52-.732.5-.741-.687-1.82-1.236-2.397-1.218-.578.017-.176.692.891 1.5 1.693 1.28 1.725 1.468.25 1.468-1.642 0-2.125 1.067-1.743 3.85.102.743-.294 1.054-.881.691-.587-.362-1.067.01-1.067.827s.788 1.691 1.75 1.943c1.667.435 1.667.463 0 .573-1.035.069-1.75.921-1.75 2.085 0 1.335.48 1.784 1.494 1.395.822-.316 1.277-.925 1.011-1.355-.266-.431.127-1.288.872-1.907 1.113-.924 1.294-.311 1.014 3.428-.249 3.322.058 4.705 1.134 5.118.811.311 1.475 1.225 1.475 2.03 0 1.241-.24 1.225-1.571-.107-1.71-1.709-5.935-2.199-4.929-.571.34.55 1.241 1 2.002 1 1.367 0 1.36 1.759-.023 5.25-.467 1.18-.221 1.75.753 1.75 1.648 0 3.683 3.867 3.031 5.756-.239.691-.915.959-1.503.596-.632-.391-.777-.189-.355.493.399.647.137 1.162-.596 1.17-.855.01-.941.27-.247.75.584.404.987 2.628.895 4.943-.143 3.607.066 4.082 1.465 3.334 1.454-.778 1.63.095 1.605 7.959-.015 4.858-.365 9.171-.779 9.585-.414.413-.007 1.576.905 2.583 1.076 1.189 1.232 1.831.445 1.831-.858 0-.773.625.291 2.145.926 1.322 1.284 3.241.932 5-.452 2.261-.211 2.855 1.161 2.855 1.129 0 1.531.522 1.156 1.5-.316.825-.139 1.5.393 1.5.533 0 .969.694.969 1.542 0 .848.9 2.508 2 3.688 1.1 1.181 2 2.706 2 3.389 0 .683 1.013 1.386 2.25 1.562 1.425.203 2.199.962 2.111 2.069-.161 2.028.743 2.246 2.409.58.892-.892 1.354-.715 1.95.75.749 1.843 1.879 2.099 10.749 2.436 1.083.042 2.297.605 2.696 1.252.505.817.934.637 1.405-.589.611-1.594.842-1.617 2.373-.23 1.434 1.297 1.98 1.327 3.529.195 1.559-1.14 2.081-1.091 3.498.326 1.113 1.113 3.051 1.595 5.848 1.452 2.3-.118 4.182.189 4.182.682 0 .493.477.896 1.059.896s.781-.45.441-1c-.987-1.597.665-1.157 2.817.75 1.448 1.283 2.092 1.416 2.412.5.241-.687.898-1.25 1.461-1.25.563 0 .765.675.448 1.5-.691 1.801.496 1.966 2.162.3.933-.933 1.215-.544 1.268 1.75.063 2.776.129 2.822 1.113.788 1.073-2.217 5.763-2.767 8.569-1.005.688.432 1.257.421 1.265-.024.009-.445.459-.134 1 .691.788 1.2 1.153 1.241 1.823.204.53-.821 3.442-1.381 7.942-1.526 3.908-.126 7.415-.54 7.794-.919.379-.379 1.587-.208 2.685.379 1.506.807 2.206.737 2.853-.285.685-1.08.86-1.089.873-.044.008.72.427 1.055.93.744.503-.311 1.104-.225 1.336.191.232.416.313.268.18-.328-.456-2.052 10.161-5 12.128-3.367.841.698 1.383.545 1.786-.507.332-.864 1.236-1.256 2.117-.918.846.324 2.325.254 3.288-.156 2.561-1.091 5.25-1.255 5.25-.32 0 .448 2.025.536 4.5.197 2.945-.404 4.5-.242 4.5.467 0 .772.87.781 3.021.031 2.01-.701 3.432-.72 4.25-.058 1.407 1.139 6.729 1.331 6.729.242 0-1.295 5.955-.929 6.738.415.618 1.059 1.662 1.076 5.512.087 2.613-.671 4.75-.899 4.75-.507s1.874.554 4.165.36c2.29-.195 4.718.106 5.394.667.858.712 1.672.577 2.699-.45 1.098-1.097 1.759-1.182 2.606-.335.848.848 1.136.826 1.136-.087 0-.89.613-.821 2.25.251 1.613 1.057 3.247 1.249 5.769.681 1.935-.437 4.298-.68 5.25-.54s1.731-.081 1.731-.491c0-.409.675-.745 1.5-.745s1.5.402 1.5.893c0 .49.401.644.892.341.491-.304 2.567-.766 4.614-1.028 2.047-.262 4.533-.734 5.524-1.049.991-.314 2.071-.136 2.399.396.344.555 1.763.64 3.334.2 1.506-.422 5.1-.664 7.987-.538 3.923.171 5.25-.122 5.25-1.159 0-.764.675-1.389 1.5-1.389s1.5.376 1.5.836c0 .459 4.05.792 9 .74 4.95-.052 9 .302 9 .787 0 .485.604.381 1.342-.232.738-.612 1.638-.818 2-.456.362.362.665.021.673-.758.013-1.174.163-1.184.873-.064.636 1.003 1.357 1.086 2.789.32 1.096-.587 2.52-.669 3.293-.191.75.463 2.324.476 3.499.03 1.189-.452 2.889-.391 3.834.137 1.121.628 1.697.594 1.697-.099 0-1.63 4.991-1.236 5.636.444.316.822.976 1.246 1.469.941.492-.304.91.036.928.756.019.742.886.286 2-1.052 1.082-1.298 1.967-1.813 1.967-1.143 0 .676.673.96 1.511.638 2.108-.809 7.456.386 7.2 1.608-.116.554.352 1.214 1.04 1.467.745.273 1.036-.101.72-.925-.41-1.068.557-1.355 4.249-1.26 2.629.068 5.568-.263 6.53-.735 1.075-.528 1.75-.472 1.75.144 0 .553.72.728 1.601.39.88-.338 1.94-.066 2.355.605.575.932 1.104.869 2.237-.263.917-.918 1.999-1.164 2.837-.646.868.536 1.813.234 2.631-.841 1.169-1.539 1.278-1.542 1.307-.035.039 2.027 3.032 3.394 3.032 1.385 0-2.207 1.412-2.546 4.322-1.036 1.473.764 2.678 1.019 2.678.565 0-1.692 4.008-1.865 4.972-.214.896 1.534.969 1.532.998-.031.018-1.042.768-1.632 1.961-1.542 1.062.08 1.71.502 1.441.938-.27.435.001.792.6.792.6 0 1.35-.675 1.666-1.5.728-1.895 2.362-1.96 2.362-.094 0 .919.7 1.224 2.021.878 1.588-.415 1.776-.824.878-1.906-.736-.886-.773-1.378-.105-1.378.572 0 1.241.563 1.488 1.25.305.849 1.085.535 2.435-.982 1.092-1.227 2.214-2.004 2.492-1.726.278.279 1.075-.18 1.771-1.018.696-.838 1.885-1.524 2.642-1.524.758 0 1.378-.649 1.378-1.443s.959-2.115 2.131-2.937c1.209-.846 1.89-2.122 1.574-2.947-.307-.799.282-2.355 1.308-3.457 2.435-2.613 1.665-3.216-4.112-3.216-3.889 0-4.883-.368-5.401-2.001-.35-1.101-1.536-2.483-2.636-3.072-1.838-.983-1.878-1.257-.492-3.371 2.26-3.45 1.103-6.687-1.972-5.518-2.578.98-3.147.109-1.2-1.838.933-.933.615-1.2-1.433-1.2-2.473 0-2.611-.247-2.261-4.063.259-2.832.011-3.936-.817-3.645-.654.231-2.427-.947-3.939-2.617-1.513-1.669-2.75-2.474-2.75-1.788 0 .791-.729 1.016-1.991.616-1.095-.348-2.558-.277-3.25.156-.692.433-2.834.824-4.759.868-6.605.152-13.765 2.468-14.333 4.637-.565 2.163-4.371 2.189-3.917.027.395-1.883-1.236-1.397-4.042 1.204-1.422 1.317-2.837 2.142-3.146 1.833-.309-.309-.562-.036-.562.605 0 .642.498 1.167 1.107 1.167s.869.619.579 1.376c-.657 1.711 3.647 3.817 5.976 2.924 1.303-.5 1.532-.249 1.012 1.108-.371.966-.674 2.169-.674 2.674 0 .505-.633.918-1.406.918-.774 0-1.288.788-1.144 1.75.145.962.066 1.169-.175.458-.278-.82-1.211-1.046-2.56-.618-2.571.816-5.397 3.41-3.715 3.41.698 0 .56.583-.357 1.5-1.877 1.876-3.024 1.937-2.328.122.291-.758.085-1.822-.457-2.364-.649-.649-.41-1.563.697-2.67 2.245-2.245 1.691-2.585-4.657-2.857-3.834-.164-5.327.125-5.155.999.178.898-.969 1.064-4.25.614-3.048-.418-4.493-.251-4.493.52 0 .625-.788 1.155-1.75 1.178-1.115.027-.545.684 1.568 1.811l3.318 1.769-8.818 1.166c-12.67 1.675-25.66.625-26.889-2.174-.829-1.887-1.679-2.096-7.929-1.95-3.85.09-7.692.439-8.539.776-2.035.809-5.428.247-7.154-1.186-2.995-2.484-7.348-2.367-9.633.261-2.207 2.539-4.174 3.253-4.174 1.516 0-.532-.672-.71-1.494-.395-.822.316-1.303.883-1.069 1.261.692 1.121-7.245 1.491-24.437 1.14-1.375-.028-6.662.101-11.75.287-9.103.333-9.728.132-9.342-2.998.08-.646-.783-1.469-1.917-1.829-1.998-.634-1.982-.717.527-2.69 3.278-2.579 2.667-3.306-1.119-1.331-1.595.831-3.911 1.514-5.149 1.518-1.442.004-2.25.612-2.25 1.693 0 1.338-.591 1.121-2.855-1.048-1.57-1.505-3.258-2.661-3.75-2.569-2.419.451-4.449-.174-3.829-1.177.461-.745-.011-.887-1.441-.433-1.308.416-2.125.242-2.125-.452 0-.619-.399-.879-.887-.578-.487.301-1.442-.122-2.122-.941-.992-1.195-.965-1.497.137-1.528.754-.022-.169-.708-2.053-1.526-2.488-1.079-3.617-1.176-4.125-.354-.512.829-.902.805-1.453-.086-.415-.672-.168-1.58.551-2.025.717-.443 1.421-1.855 1.565-3.138.143-1.282.028-1.774-.257-1.091-.397.954-.846.912-1.936-.179-2.452-2.451-1.575-3.709 1.282-1.838 2.555 1.675 2.665 1.676 2.031.023-.703-1.833.048-2.152 2.685-1.14.87.334 1.582 1.234 1.582 2 0 1.879 2.638 1.778 3.37-.13.495-1.29.893-1.214 2.607.5 2.074 2.074 4.632 2.817 3.523 1.023-.824-1.333.818-1.282 2.168.068 1.297 1.297 11.174 1.997 11.888.842.599-.97 6.439-.725 6.442.27.001.375-1.011.858-2.248 1.075-2.06.36-2.094.462-.399 1.215 1.097.487 2.115.403 2.5-.206.947-1.5 5.066-1.01 6.187.736.855 1.333 1.071 1.333 1.947 0 .658-1.003.989-1.086 1-.25.008.688.97 1.25 2.137 1.25 1.694 0 1.891-.279.975-1.383-.889-1.071-.785-1.523.459-2 2.254-.865 2.444-.801 2.444.824 0 .793.515 1.759 1.145 2.149.789.487.989-.108.643-1.918-.434-2.269-.182-2.599 1.855-2.431 1.296.107 2.357.574 2.357 1.036 0 .463.455.56 1.012.216.562-.348 1.284.737 1.625 2.441.337 1.686.993 3.066 1.457 3.066.464 0 .582-.681.263-1.513-.674-1.754 1.439-4.731 2.773-3.907.496.307.644.977.327 1.489-.316.512-.151.931.367.931 2.123 0 1.973-3.93-.177-4.622-2.046-.659-2.017-.735.603-1.618 1.512-.51 2.782-1.677 2.82-2.593.056-1.33.244-1.263.93.333.596 1.388.881 1.531.93.468.041-.898 1.127-1.619 2.625-1.743 1.723-.143 2.321.167 1.836.952-.485.783-.176.944.945.493l3.338-1.344c1.274-.513 1.52-.274 1.031 1-.494 1.287-.071 1.674 1.826 1.674 2.542 0 3.294-1.372 1.395-2.546-.628-.388.091-1.269 1.73-2.119 1.769-.918 2.931-1.075 3.148-.424.22.661.807.597 1.636-.178 1.053-.983.992-1.437-.323-2.438-1.428-1.087-1.347-1.235.692-1.263 1.27-.018 2.043-.462 1.718-.988-.325-.526-1.252-.703-2.059-.393-.85.326-1.468-.013-1.468-.805 0-.822 1.184-1.416 2.971-1.489 1.635-.066 3.772-.439 4.75-.828 2.379-.946 14.488-1.518 15.74-.744 1.85 1.143 8.687 1.337 9.959.282.695-.577 1.572-.742 1.948-.366 1.386 1.387 5.051 1.302 5.855-.136.457-.815 1.447-1.245 2.202-.955 2.65 1.016 4.725-7.243 2.222-8.845-1.778-1.138-2.108-.99-5.811 2.605-3.092 3.004-3.674 3.222-5.344 2-1.031-.753-1.508-1.37-1.061-1.37.448 0 .254-.675-.431-1.5-1.664-2.005-2.809-1.896-2.639.25.088 1.107-.686 1.866-2.111 2.069-2.42.344-3.267-2.285-1-3.104.688-.249-.887-.788-3.5-1.197-2.613-.41-4.75-1.121-4.75-1.58 0-.458-1.323-.373-2.941.191-1.618.564-3.98.878-5.25.698-2.015-.285-1.713-.677 2.369-3.077 2.573-1.513 5.337-2.75 6.143-2.75 1.574 0 2.679-2.052 2.679-4.975 0-2.738-3.01-3.392-5.131-1.114-1.337 1.435-2.576 1.797-4.6 1.343-1.523-.341-4.259-.567-6.08-.504-3.708.13-4.011-2.032-.361-2.57 2.303-.338 3.037-2.131.922-2.25-2.841-.161 7.043-3.082 10.388-3.071 3.228.011 3.704-.318 4.225-2.923.456-2.282 1.129-2.936 3.018-2.936 1.939 0 2.326-.405 1.909-2-.405-1.547-.031-2 1.652-2 1.197 0 1.898-.45 1.558-1-.34-.55-.066-1 .608-1 .674 0 .912-.313.53-.696-1.032-1.031-3.638-1.253-3.638-.309 0 .45-.841.598-1.868.329-1.028-.268-3.84.202-6.25 1.046-2.41.844-3.819 1.556-3.132 1.582.688.027 1.25.588 1.25 1.248 0 .933-.267.933-1.2 0-1.343-1.343-2.863-1.598-2.682-.45.066.412.009 1.087-.125 1.5-.218.673-.507 1.761-.868 3.273-.069.288-1.252-.215-2.63-1.118-1.913-1.254-2.831-1.371-3.883-.498-1.064.883-1.518.78-1.99-.45-.424-1.105-1.305-1.4-2.867-.96-1.764.496-1.929.405-.755-.416 1.234-.864 1.091-1.053-.809-1.066-1.27-.008-2.129.322-1.909.735.524.982-2.939 4.259-3.699 3.5-.321-.321-.583-.024-.583.66s1.378 2.622 3.062 4.305c3.674 3.675 2.53 5.899-1.314 2.556-1.436-1.249-2.754-2.928-2.93-3.732-.441-2.025-2.165-3.921-3.068-3.375-1.798 1.088-.479 4.467 2.75 7.043 2.99 2.386 4.793 6.293 2.904 6.293-3.15 0-7.668-5.384-7.552-9 .028-.856-4.285-2.85-5.089-2.353-.42.259-.763 1.794-.763 3.412 0 3.762-2.813 3.971-6.145.458-2.295-2.419-4.855-3.325-4.855-1.717 0 .44.43 1.23.957 1.757.608.608-.119 1.573-2 2.653-1.627.933-2.957 1.268-2.957.743 0-.524-1.125-.953-2.5-.953s-2.5-.36-2.5-.8c0-1.602 2.461-3.2 4.95-3.215 2.014-.012 2.234-.22 1.05-.985-1.227-.793-1.113-.972.628-.985 2.875-.02 4.198-1.992 3.366-5.015-.499-1.813-.113-3.139 1.404-4.825 2.791-3.103 2.72-14.856-.111-18.366-1.948-2.415-3.298-11.027-1.628-10.386.882.338 1.181.128.768-.542-.462-.747.078-.86 1.698-.355 2.332.726 2.342.703.543-1.313-1.008-1.128-1.728-3.101-1.601-4.382.127-1.282-.119-3.144-.547-4.137-.427-.993-.512-3.734-.189-6.09.366-2.67.15-4.723-.571-5.444-1.495-1.495-1.904-9.281-.573-10.886.73-.879 1.566-.941 2.918-.218 1.16.621 1.895.644 1.895.061 0-.525 1.63-1.961 3.622-3.193 3.197-1.975 3.726-2.054 4.5-.67 1.145 2.045 4.28 1.562 4.726-.729.428-2.19-1.844-3.774-3.473-2.422-.831.691-1.961.22-3.738-1.557-1.4-1.4-2.117-2.546-1.592-2.546.525 0 .955-.627.955-1.393s.675-1.652 1.5-1.969c.825-.316 1.5-1.181 1.5-1.921 0-.741 1.575-2.098 3.5-3.016 1.925-.918 3.5-2.099 3.5-2.626 0-1.497-1.788-2.227-2.527-1.031-.428.693-1.153.432-2.037-.734-.755-.996-1.387-1.457-1.404-1.025-.018.432-.98.278-2.139-.342-2.677-1.433-1.079-3.33 2.861-3.397 2.103-.035 2.746-.535 2.746-2.134 0-1.149.618-2.836 1.372-3.75 1.327-1.607.215-2.416-1.273-.927-.404.404-2.603.829-4.886.944-3.093.156-3.776-.053-2.682-.821 1.154-.81.994-.928-.744-.548-1.22.266-2.734-.144-3.373-.913-.637-.768-1.977-1.397-2.977-1.397-2.391 0-3.487-1.852-1.538-2.599.838-.322 1.81-1.485 2.159-2.585.432-1.359 1.244-1.84 2.538-1.501 1.047.274 1.904.09 1.904-.409 0-.498-.44-.906-.979-.906-.608 0-.568-.899.106-2.379.798-1.751 1.649-2.24 3.228-1.852 1.18.289 1.823.176 1.43-.253-.393-.428-.279-1.593.254-2.588 1.6-2.99-2.509-5.321-5.697-3.233-2.199 1.441-2.554 1.423-4.374-.224-1.089-.986-2.282-1.49-2.651-1.121-.369.369.196 1.327 1.256 2.129 2.597 1.965.458 1.931-2.352-.037-2.241-1.569-4.759-1.122-3.664.65.708 1.146-1.694 6.908-2.879 6.908-.459 0-.687 1.645-.506 3.656.205 2.284-.141 3.816-.922 4.083-.688.235-1.25-.328-1.25-1.251 0-3.323-4.016-7.72-5.742-6.287-1.34 1.112-1.45.978-.82-1.007.427-1.345.245-2.871-.441-3.698-.643-.775-.936-1.786-.65-2.248.285-.462-1.227-.851-3.361-.863-2.134-.012-3.684.294-3.445.682.24.387-.695.92-2.077 1.185-1.381.264-2.742.107-3.024-.348-.281-.456-1.606-.33-2.944.28-1.338.61-2.215 1.462-1.948 1.893.266.432.059 1.048-.46 1.369-.52.321-1.09-.431-1.267-1.671-.176-1.24-1.034-2.39-1.904-2.556-2.794-.532-1.704 2.706 1.815 5.39 1.87 1.426 3.148 2.845 2.84 3.153-.308.307-1.462-.258-2.566-1.256-2.206-1.997-2.566-1.42-.971 1.56.57 1.064 1.807 1.97 2.75 2.013 1.043.048 1.225.277.465.583-.688.278-1.25 1.169-1.25 1.98 0 .812-.461 1.191-1.025.843-.563-.349-.96-.263-.881.191.45 2.595-.127 3.691-1.317 2.501-.673-.673-1.262-3.801-1.309-6.95l-.086-5.727h-3.857c-4.329 0-5.742-1.89-2.943-3.937 1.707-1.247 1.699-1.339-.177-1.934-1.174-.373-2.052-1.635-2.176-3.127-.239-2.894 1.208-3.298 2.691-.752.807 1.385 1.032 1.437 1.083.25.048-1.132.49-.99 1.8.577.955 1.142 2.403 1.895 3.217 1.674 1.3-.354 1.301-.279.009.618-2.057 1.43-.983 2.069 1.743 1.038 3.273-1.237 3.725-3.46 1.324-6.512-1.153-1.466-2.096-2.211-2.096-1.656 0 1.753-6.459-.169-6.817-2.029-.246-1.276.363-1.71 2.399-1.71 2.579 0 2.638-.1 1.073-1.829-.91-1.006-1.655-2.325-1.655-2.932 0-.607-.9-1.39-2-1.739-1.1-.349-2-1.11-2-1.69 0-.699-.463-.67-1.373.085-.756.627-2.099.861-2.986.521-1.389-.533-1.303-.878.623-2.497 1.614-1.356 1.902-2.101 1.034-2.678-.923-.614-.874-1.375.21-3.27.777-1.359 1.79-3.292 2.252-4.295.461-1.003 1.053-1.678 1.314-1.5.261.178 1.185-.339 2.052-1.149 1.428-1.334 1.364-1.641-.682-3.25-1.243-.977-2.924-1.777-3.735-1.777-.812 0-1.695-1.148-1.964-2.551-.45-2.358-.27-2.504 2.384-1.921 1.788.393 2.871.221 2.871-.457 0-.732.653-.68 1.993.156 1.379.862 1.796 1.862 1.355 3.251-.543 1.713-.412 1.82.897.734 1.882-1.563 9.981 2.937 11.626 6.459 1.562 3.344 5.834 1.777 5.246-1.924-.065-.415 1.119-.689 2.632-.609 1.513.079 3.876.071 5.251-.019l2.5-.163-2.5-1.941c-1.375-1.067-3.651-2.199-5.058-2.515-2.678-.602-15.036-6.49-13.635-6.496.443-.002.106-1.004-.75-2.227-.856-1.222-1.557-2.497-1.557-2.832 0-.536 4.092-.452 4.75.097.137.114.588.28 1 .368.412.089 1.798.742 3.078 1.452 1.281.711 2.954 1.052 3.718.759.765-.294 1.656-.103 1.981.423.325.526 2.31.956 4.41.956s5.434.675 7.409 1.5c4.025 1.682 13.125 2.071 12.167.521-.333-.539-.09-1.944.541-3.122 1.135-2.12 1.167-2.122 3.085-.204 2.419 2.419 1.581 6.143-.918 4.081-1.283-1.058-1.463-1.02-1.057.224.685 2.097 5.687 2.551 6.442.585.449-1.17 1.048-1.305 2.454-.553 1.232.659 3.311.661 6.15.006 6.073-1.4 9.072-1.323 8.189.212-.396.688-.351.916.099.509.45-.408 1.367-.286 2.038.271 2.061 1.711 7.494-1.142 8.629-4.53.184-.55.785-.92 1.335-.822 5.27.937 7.792 2.155 13.689 6.607 2.028 1.532 4.953 2.779 6.5 2.771 1.546-.009 3.823-.025 5.061-.036 1.238-.011 3.038-.01 4 .003 3.548.046 9.25-1.269 9.25-2.132 0-.49-.509-.891-1.132-.891-.623 0-2.76-1.007-4.75-2.238l-3.618-2.239 3-.518c2.796-.483 5.268-5.005 2.736-5.005-.496 0-.903-.708-.903-1.573 0-1.046.629-1.409 1.875-1.083 1.399.366 1.74.068 1.346-1.177-.915-2.883 5.076-8.415 7.483-6.912 1.935 1.208 2.857 6.745 1.124 6.745-1.476 0-3.219 4.846-2.011 5.592.986.61 2.236-.595 3.206-3.092.214-.55 1.93.463 3.814 2.25 1.884 1.787 4.386 3.25 5.56 3.25 2.587 0 4.168 3.809 2.127 5.125-1.131.729-1.115 1.031.095 1.809 1.743 1.121 3.048.482 3.048-1.493 0-2.273 1.569-1.683 2.818 1.059 1.139 2.501 4.182 3.499 4.182 1.372 0-.759 1.391-.922 4.25-.499l4.25.628-2.743-2.446c-1.75-1.562-2.343-2.693-1.638-3.129.608-.375 1.392-.285 1.743.202 1.06 1.468 7.456 5.861 10.388 7.134 2.944 1.279 3.775 4.238 1.191 4.238-.857 0-1.276.457-.931 1.016.346.559 1.047.758 1.559.441.512-.316.931.084.931.89 0 1.008-.704 1.303-2.25.945l-2.25-.52 2.352 1.742c1.293.958 1.917 2.022 1.385 2.364-.532.342-1.296 1.673-1.697 2.958-.672 2.151-.558 2.244 1.447 1.171 1.792-.959 2.4-.86 3.437.558 1.172 1.603 1.37 1.568 2.823-.508l1.563-2.231.662 2.087c.731 2.301 2.139 2.755 2.761.889.304-.912 1.168-.878 3.635.143 2.021.837 3.041 1.851 2.716 2.698-.287.746-.085 1.357.447 1.357 1.321 0 1.233 2.745-.101 3.19-.589.196-1.186 2.176-1.328 4.4-.142 2.224-.618 4.626-1.058 5.338-.477.773-.244 1.648.578 2.168 1.105.7 1.048.876-.289.889-.916.008-1.893-.548-2.171-1.235-.388-.961-.522-.948-.583.059-.044.729-.592.992-1.237.594-.811-.502-.965.003-.513 1.691.354 1.323.65 2.744.657 3.156.008.412.802.743 1.764.735 1.469-.013 1.513-.165.278-.947-1.798-1.136 1.038-2.61 3.33-1.731 1.623.623 1.437 7.663-.321 12.172-.706 1.811-.787 3.104-.206 3.298.526.175.727 1.197.446 2.271-.618 2.362.419 2.449 4.562.382 4.109-2.05 6.773-1.121 7.522 2.624.719 3.597 4.187 3.307 8.178-.684 2.744-2.744 4.016-2.973 4.823-.87 1.15 2.997 6.638.687 6.638-2.794 0-.79.813-2.509 1.806-3.821 1.423-1.88 4.237-8.88 4.777-11.885.49-2.726 1.771-3.951 3.034-2.903 1.546 1.283 1.546 1.282 1.874-1.847.153-1.456-.304-2.25-1.294-2.25-.842 0-1.234-.296-.872-.658.362-.362.156-1.262-.456-2-.819-.987-.817-1.342.009-1.342 1.985 0 1.195-1.743-1.128-2.489-1.879-.604-1.965-.799-.525-1.186 1.61-.431 1.601-.595-.122-2.445-1.352-1.451-2.551-1.806-4.475-1.323-2.021.508-2.628.289-2.628-.949 0-.884-.498-1.608-1.107-1.608s-.848-.675-.531-1.5c.316-.825.049-1.5-.593-1.5-.868 0-.878-.291-.041-1.128.829-.829.834-1.6.021-2.902-.855-1.369-.719-2.367.595-4.372.936-1.429 1.242-2.598.679-2.598s-1.023-.47-1.023-1.044c0-.574.771-.911 1.714-.75 1.055.181 1.865-.475 2.108-1.706.217-1.1.061-1.677-.347-1.283-.409.395-1.868-.168-3.244-1.25-3.169-2.492-4.231-2.484-4.231.033 0 1.1.408 2 .906 2 .499 0 .662.936.363 2.081-.404 1.544-1.089 1.934-2.657 1.513-1.161-.312-2.674-.573-3.362-.58-.687-.008-1.25-.716-1.25-1.573s-.45-1.281-1-.941c-.55.34-1-.309-1-1.441 0-1.132.627-2.059 1.393-2.059s1.652-.675 1.969-1.5c.316-.825 1.364-1.5 2.329-1.5 1.474 0 1.4-.248-.461-1.551-3.285-2.301-4.912-5.661-2.547-5.258.999.17 2.148.759 2.552 1.309.438.596.741.425.75-.424.01-.996.758-.727 2.484.895 1.358 1.276 2.189 2.774 1.846 3.329-.381.616-.114.694.685.2.866-.535 1.068-.418.595.345-.392.635-.21 1.155.405 1.155s.797.52.405 1.155c-.473.763-.271.88.595.345s1.068-.418.595.345c-.686 1.111.506 1.574 3.161 1.228.691-.09 2.332.997 3.646 2.416 1.315 1.419 2.775 2.511 3.245 2.427.469-.084 1.078-.05 1.353.075 1.281.584 6.912.699 6.842.14-.245-1.965.285-3.17 1.158-2.631 1.544.954 1.182 4.493-.526 5.148-1.203.462-1.274.888-.335 2.02.735.885 1.077 4 .893 8.133-.896 20.182-.227 32.728 1.223 22.949 1.032-6.957.858-57.562-.2-58.216-.635-.392-1.055.365-1.055 1.901 0 2.532-.234 2.607-5 1.609-.275-.058.288-.563 1.25-1.124 1.199-.699 1.75-2.262 1.75-4.97 0-4.221 1.611-5.445 2.238-1.7.207 1.238.675-2.025 1.041-7.25.366-5.225.945-13.55 1.286-18.5.957-13.857 1.562-63.118.876-71.252-.667-7.903-.181-7.398-8.441-8.775-8.424-1.405-51.701-1.766-52.521-.439-.59.954-.335 1.125.947.633.965-.371 2.159-.423 2.654-.118.495.306 5.049.778 10.121 1.048 15.731.84 11.077 1.43-10.071 1.277-26.729-.193-34.6-1.941-10.465-2.324 6.72-.106 4.275-1.554-2.748-1.627-4.079-.042-8.117-.214-8.974-.383-6.391-1.259-294.484-2.678-298.57-1.471m175.445 25.446c-.3.3-2.005.73-3.789.956-4.024.509-4.222.711-4.412 4.488-.161 3.205-.587 3.383-4.518 1.888-1.321-.502-2.896-.737-3.5-.522-.605.214-2.27-.429-3.7-1.43-2.564-1.793-2.62-1.785-3.868.547-1.769 3.305-.801 4.264 5.116 5.078 3.675.506 5.756 1.419 7.286 3.196 2.115 2.46 2.186 2.47 6.104.833A585.922 585.922 0 0 1 240 98.697c.275-.109.387-.535.25-.947-.369-1.106.508-.927 3.8.776 2.166 1.12 2.95 1.199 2.95.3 0-.954.267-.959 1.2-.026 2.246 2.246 4.077 1.439 3.346-1.475-.589-2.343-.478-2.514.891-1.377 2.182 1.811 1.948.402-.505-3.044-1.138-1.597-2.938-2.904-4-2.904-1.063 0-1.819-.536-1.682-1.191.137-.654-.65-1.382-1.75-1.615-1.1-.234-2.256-.83-2.568-1.325-.313-.494-.814-.654-1.114-.354m79.204 55.235c-.012.688-.359 1.197-.772 1.132-1.871-.296-3.25.207-3.25 1.185 0 .628.861.795 2.087.405 1.846-.586 5.551 1.784 5.515 3.528-.03 1.428 4.111 5.01 5.87 5.079 1.116.043 1.47.305.787.58-.939.38-.876.867.259 2.002.825.825 1.245 1.914.932 2.42-.312.505.118.919.956.919s2.01-.909 2.605-2.021c1.158-2.163.459-4.387-1.08-3.436-1.636 1.011-.999-.842 1.034-3.005 3.858-4.108.776-7.546-5.965-6.655-.825.11-2.4.32-3.5.469-1.1.149-2.777-.657-3.728-1.791-.966-1.152-1.737-1.51-1.75-.811m-43.549 18.165c.885 2.79-.447 7.085-2.198 7.085-1.002 0-1.337.653-.999 1.947.33 1.262-.069 2.101-1.133 2.384-1.108.295-.91.475.607.553 2.338.121 3.487 5.116 1.177 5.116-1.352 0-.786 3.094.573 3.138.55.018 1.555.493 2.233 1.056.902.748 1.485.362 2.169-1.437.515-1.354 2.926-3.779 5.357-5.39 3.596-2.382 4.277-3.296 3.651-4.898-.423-1.083-.801-3.128-.84-4.545-.097-3.562-3.958-6.924-7.952-6.924-2.75 0-3.159.296-2.645 1.915m74.202 45.743c-.362.362-.141 1.281.491 2.042.823.991.842 1.692.07 2.464-1.212 1.212-.614 3.371 1.672 6.042 1.779 2.077 3.166 2.354 2.725.544-.168-.687-.116-.912.114-.5.231.412 1.192.75 2.136.75 3.043 0 4.306 2.134 2.467 4.165-1.498 1.656-1.494 1.842.044 2.433 1.034.396 2.333-.13 3.424-1.388 1.312-1.513 2.192-1.784 3.47-1.069 1.419.794 1.712.522 1.712-1.591 0-1.403-.346-2.437-.769-2.3-1.343.436-6.231-3.972-6.231-5.619 0-1.284.482-1.398 2.565-.606 3.353 1.274 3.228 1.342 2.693-1.454-.3-1.57-.958-2.239-1.861-1.893-.833.32-1.397-.103-1.397-1.046 0-1.245-.498-1.393-2.333-.695-1.365.519-2.922.515-3.75-.01-1.658-1.049-6.29-1.221-7.242-.269m-179.934 14.434c-2.456 2.69-1.989 10.766.759 13.125 1.542 1.323 1.657 1.731.5 1.782-1.134.049-1.012.434.5 1.576 2.821 2.131 2.725 6.33-.162 7.055-3.217.807-4.977 3.131-3.496 4.612.637.637 1.158 1.968 1.158 2.958 0 .99.509 1.8 1.131 1.8.734 0 .931-1.229.563-3.5-.59-3.636.058-4.348 2.099-2.307.925.925 1.866.55 4.177-1.664 2.338-2.241 3.83-2.826 6.899-2.705 3.16.124 4.23-.326 5.542-2.329.895-1.365 1.956-2.432 2.358-2.37 1.964.301 2.575-.257 1.231-1.125-1-.646-1.083-.974-.25-.985.688-.008 1.25-.492 1.25-1.074 0-.582-.403-.81-.895-.506-.493.305-1.153-.119-1.469-.941-.315-.822-.213-1.494.228-1.494.679 0 .748-3.397.101-5-.111-.275-.162-.798-.113-1.162.222-1.645-5.711-2.661-7.521-1.289-2.475 1.875-5.98 1.807-6.724-.131-.848-2.209-.761-2.631.393-1.918.55.34 1-.139 1-1.063 0-1.298-.308-1.426-1.348-.563-1.029.854-1.777.646-3.155-.878-2.164-2.391-2.49-2.384-4.756.096m166.384 35.619c-.972 1.04-.754 1.485 1.079 2.205 1.263.496 3.079 1.842 4.036 2.993 1.597 1.919 1.468 2.515-.478 2.213-1.274-.197-.473 5.295 1.032 7.084 1.258 1.494 1.618 1.525 2.893.25.801-.801 2.051-1.456 2.777-1.456 1.827 0 2.882-3.168 1.368-4.104-.68-.42-1.595-.542-2.034-.271-.439.271-.798.069-.798-.449 0-.519.9-1.178 2-1.466 2.585-.676 2.523-1.791-.282-5.054-2.322-2.703-4.718-3.514-4.718-1.597 0 .582-.457.776-1.016.431-.559-.346-.76-1.044-.445-1.552.872-1.412-4.027-.712-5.414.773M432 265.55c0 1.11-.673 1.319-2.649.823-2.027-.508-2.46-.359-1.846.636.475.767.408 1.055-.163.702-.532-.328-2.22.225-3.752 1.23-1.792 1.176-2.318 1.983-1.474 2.264.98.327.789 1.1-.755 3.064-1.58 2.008-2.342 2.35-3.239 1.453-.873-.873-1.63-.886-2.97-.049-1.448.904-2.029.753-2.984-.775-1.742-2.789-5.399-2.531-4.98.352.18 1.238-.351 2.849-1.18 3.582-1.332 1.176-1.315 1.271.146.818 1.246-.387 1.593.049 1.405 1.764-.321 2.92-1.362 4.586-2.868 4.586-2.837 0-1.082 6.155 2.21 7.749 2.109 1.021 2.806 1.814 2.022 2.299-.763.471-.946 1.775-.506 3.596.38 1.571.696 3.623.702 4.559.007.937.883 1.98 1.947 2.318 1.064.338 1.934 1.258 1.934 2.046 0 .788.465 1.433 1.032 1.433.568 0 1.357.877 1.753 1.948.686 1.853.882 1.869 4.056.332 1.835-.889 3.749-2.703 4.255-4.032.989-2.602.348-4.64-1.165-3.705-.512.316-.987-.802-1.056-2.484-.14-3.417-.225-3.827-1.316-6.303-.423-.96-1.171-1.496-1.664-1.191-.492.304-.895-.374-.895-1.506 0-1.132.45-2.115 1-2.184l2.25-.283c.688-.088 1.534.246 1.881.741.364.519 1.422.44 2.5-.186 1.821-1.058 1.702-1.264-.881-1.522-.687-.069-1.395-1.148-1.573-2.399-.328-2.314 1.55-2.757 3.073-.726.475.634 1.075.495 1.638-.378.496-.769 1.427-1.045 2.107-.625.937.579.905.947-.138 1.595-1.691 1.049 1.342 4.309 5.041 5.418 2.238.671 2.357.516 1.789-2.325-.335-1.675-.289-3.227.102-3.451.391-.223.193-.286-.44-.139-.634.146-1.024-.49-.868-1.414.157-.925.735-1.586 1.284-1.47.55.116 1.024-1.483 1.052-3.554.029-2.071.135-4.19.236-4.711.588-3.026-.16-5.342-1.553-4.808-1.128.433-1.5-.168-1.5-2.424 0-1.744-.628-3.241-1.5-3.576-.919-.352-1.5.001-1.5.912m-199 22.481c0 .568.654 1.283 1.453 1.589 1.162.446 1.217.935.275 2.444-.91 1.457-.899 2.165.047 3.111 1.666 1.666 1.54 2.825-.307 2.825-.843 0-1.855-.867-2.25-1.927-.656-1.762-1.085-1.596-4.976 1.93-4.106 3.719-4.178 3.884-2 4.619 1.242.419 2.977.658 3.855.533 2.736-.392 4.676 2.807 2.615 4.313-.941.689-1.712 1.798-1.712 2.464 0 1.228-2.483 4.169-3.464 4.104-.295-.02-1.548.016-2.786.08-1.907.098-1.961.19-.355.601 1.489.382 1.603.666.529 1.33-.751.464-1.008 1.202-.57 1.64.438.438 1.235.013 1.771-.945 1.325-2.369 2.849-2.204 2.375.258-.212 1.1.066 2 .616 2 .551 0 .724.45.384 1-.34.55.309 1 1.441 1 1.392 0 2.059-.648 2.059-2 0-1.1.666-2 1.481-2 1.952 0 2.889-4.027 2.251-9.682-.437-3.88-.231-4.636 1.377-5.057 1.04-.272 1.891-.94 1.891-1.485 0-.544-.681-.729-1.513-.409-3.12 1.197-11.054 1.782-9.487.7.825-.57 2.977-1.043 4.781-1.052 2.213-.01 3.484-.585 3.902-1.765.342-.962 1.268-2.505 2.059-3.428 1.314-1.534.879-6.776-.452-5.445-.291.29-1.182-.126-1.98-.925-1.693-1.692-3.31-1.898-3.31-.421m157 41.989c0 .386-1.085.495-2.411.242-3.288-.629-5.073 2.582-3.435 6.176 1.383 3.036-1.738 6.562-5.807 6.562-1.291 0-2.347.525-2.347 1.167 0 .641.284.882.631.535 1.032-1.031 4.486 1.299 3.733 2.518-.451.73-.113.898.972.481.915-.351 1.664-.202 1.664.33 0 .533-.9.969-2 .969s-2 .45-2 1-.873 1-1.941 1-2.219-.45-2.559-1c-.34-.55-1.461-1-2.492-1-2.18 0-3.798 3.894-2.064 4.966.637.393 1.295 2.025 1.463 3.625.245 2.344.844 2.973 3.086 3.239 2.248.266 2.66.011 2.145-1.332-.351-.914-.638-2.075-.638-2.58 0-.505-.675-.918-1.5-.918s-1.5-.42-1.5-.934c0-.858 3.767-.618 6.75.432.688.241 1.257-.109 1.265-.779.011-.851.277-.807.879.144.729 1.151.961 1.151 1.485 0 .477-1.047.755-1.076 1.201-.122.457.976.859.963 1.886-.064.736-.736 3.1-1.214 5.42-1.095 2.49.127 4.164-.242 4.242-.936.07-.63.23-2.496.354-4.146.361-4.772.494-5.086 1.489-3.513.798 1.262 1.256 1.146 3.039-.767 1.928-2.07 1.968-2.385.492-3.861-1.032-1.032-1.41-2.545-1.056-4.233.303-1.444.147-3.253-.345-4.019-.926-1.44-10.101-3.335-10.101-2.087m44.59 9.476c-.344 1.372-.65 2.835-.679 3.25-.029.414-.696 1.114-1.482 1.554-.786.44-1.429 1.254-1.429 1.809 0 .555.52.688 1.155.296.715-.443.883-.275.44.44-.392.635-.279 1.155.252 1.155s.732.895.446 1.989-.927 1.737-1.423 1.431c-.496-.307-.644-.977-.327-1.489.316-.512.098-.931-.484-.931s-1.066.337-1.074.75c-.055 2.702-1.727 3.256-5.308 1.759-3.273-1.367-3.677-1.37-3.677-.022 0 .832-.702 1.513-1.559 1.513s-1.3-.419-.984-.931c.317-.512.118-1.213-.441-1.559-.559-.345-1.016.047-1.016.872 0 2.271-1.715 2.907-8.797 3.267-7.135.362-9.203 1.455-9.203 4.866 0 1.249-.736 2.554-1.636 2.899-1.491.572-1.477.803.155 2.607.985 1.088 2.418 1.979 3.184 1.979 2.16 0 6.297-5.023 6.297-7.646 0-1.295.488-2.354 1.083-2.354.596 0 .882.563.635 1.25-.907 2.532 1.241 4.796 4.066 4.284 1.486-.269 2.855-.95 3.042-1.512.187-.562.808-1.022 1.38-1.022.673 0 .641.48-.093 1.364-.924 1.113-.39 1.363 2.908 1.363 5.048 0 5.796.713 3.456 3.298-2.257 2.494-.399 5.072 3.839 5.324 1.619.096 3.139 1.153 4.172 2.901 1.918 3.246 2.55 3.349 5.56.912 2.116-1.713 2.012-4.935-.117-3.619-.512.316-.967-.464-1.01-1.734-.044-1.27-.267-4.714-.496-7.654-.366-4.689-.172-5.408 1.579-5.866 2.982-.78 3.082-19.289.104-19.289-1.182 0-2.126.935-2.518 2.496m-337.064 3.462c-.372.602-1.43.971-2.351.819-.921-.153-1.578.24-1.458.873.119.632-.933 1.438-2.339 1.791-3.034.762-1.574 3.559 1.858 3.559 1.643 0 1.914.524 1.551 3-.459 3.124.574 4.107 1.575 1.5 1.361-3.546 3.141-1.387 3.301 4.004.127 4.26-.17 5.496-1.317 5.496-1.026 0-1.286-.615-.846-2 .734-2.312.23-2.473-2.468-.788-2.427 1.516-3.557.526-2.154-1.887.584-1.004 1.075-1.262 1.092-.575.016.688.496 1.25 1.065 1.25.691 0 .668-.686-.07-2.065-.892-1.668-1.384-1.832-2.559-.857-.8.664-1.768.893-2.151.51-.383-.383-.048-1.098.746-1.589 1.212-.749 1.163-.999-.309-1.564-1.113-.427-1.548-1.315-1.192-2.435.354-1.115-.095-2.046-1.22-2.533-3.356-1.45-4.115-1.262-4.726 1.175-.337 1.342-1.002 2.199-1.479 1.905-.476-.295-1.109.099-1.406.873-.297.775-1.774 2.01-3.281 2.745-1.507.734-2.944 1.96-3.194 2.724-.26.797-.001 1.11.607.734.584-.361 1.343-.198 1.689.361.38.615-.775 1.016-2.931 1.016-1.957 0-3.559-.477-3.559-1.059s-.363-.834-.808-.56c-1.217.752-1.409 33.619-.196 33.619 1.109 0 1.282-1.655 1.436-13.744.093-7.267.363-8.424 2.282-9.768 1.197-.839 2.538-1.463 2.981-1.388 2.163.368 4.362-.198 3.87-.995-.305-.493.15-1.165 1.01-1.495 1.009-.388 1.347-1.281.953-2.521-.335-1.056-.141-2.21.431-2.564.573-.354 1.041-.166 1.041.416S83.675 362 84.5 362c1.698 0 2.011-1.566.5-2.5-2.125-1.313-1.088-3.468 1.25-2.598 1.646.613 2.266 1.668 2.31 3.935.033 1.724.92 3.889 2 4.881 1.067.98 2.064 2.907 2.215 4.282.152 1.375 1.099 3.175 2.105 4 2.735 2.242 3.446 5 1.289 5-.973 0-2.242.473-2.82 1.051-1.194 1.194-.58 5.949.768 5.949.485 0 .883.661.883 1.469 0 .847.592 1.241 1.399.931.769-.295 1.696-.056 2.059.532.363.587 1.11 1.068 1.66 1.068.55 0 .755-.397.455-.882-.3-.486 1.213-.907 3.363-.937 3.607-.049 3.874.135 3.467 2.383-.505 2.783.35 3.156 2.016.877.901-1.231 1.705-1.344 3.827-.538 4.079 1.551 8.043-3.35 4.504-5.569-1.332-.835 4.85-2.449 9.106-2.378 1.744.029 2.199-.371 1.75-1.54-.333-.869-.606-1.957-.606-2.418 0-.846-1.975-1.359-9.739-2.531-3.847-.58-4.141-.822-3.179-2.621.993-1.854 1.218-1.879 3.49-.391 1.365.894 2.428 1.129 2.428.536 0-.581-1.013-1.44-2.25-1.91-2.004-.762-1.813-.929 1.75-1.534 7.849-1.331 8.006-1.549 4.56-6.305-1.683-2.324-3.06-4.61-3.06-5.08 0-1.351-3.612-5.162-4.892-5.162-.637 0-1.571-1.086-2.075-2.414-.505-1.328-1.844-2.709-2.976-3.068-1.131-.359-2.057-1.267-2.057-2.018 0-1.347-2.6-2.573-6.5-3.065-1.1-.138-2.742-.549-3.649-.912-.907-.362-1.953-.167-2.325.435m4.924 52.961c.367.594 1.343 1.081 2.168 1.081.825 0 1.253.399.952.887-.301.487.01 1.326.691 1.863 1.388 1.095 4.739 1.276 4.739.257 0-.364 1.377-.459 3.06-.211 2.143.314 2.896.877 2.511 1.879-.34.885.581 2.078 2.414 3.128 1.629.933 3.134 2.147 3.345 2.697.211.55.265.212.12-.751-.145-.964.145-1.5.643-1.191 1.646 1.017.946-.818-1.569-4.116-1.911-2.505-2.162-3.367-1.098-3.775 1.651-.634 2.574.134 2.574 2.139 0 1.855 2.916 4.12 5.357 4.162 1.246.022 1.668-.462 1.281-1.468-.338-.881-.013-1.5.786-1.5 2.458 0 2.743-2.991.295-3.083-2.47-.093-4.828-.484-9.075-1.504-1.651-.397-3.128-.25-3.5.347-1.198 1.924-8.285 1.917-10.323-.01-1.7-1.609-6.291-2.319-5.371-.831m273.3 26.438c-1.933 1.506-2.313 4.177-.734 5.153.559.346.758 1.047.441 1.559-.316.512-.098.931.484.931s.946.538.809 1.196c-.41 1.964 6.637 3.804 11.447 2.988 3.724-.631 4.346-1.096 4.619-3.456.226-1.944-.133-2.728-1.25-2.728-2.239 0-1.936-1.748.434-2.5 3.362-1.067 2.378-3.3-1.455-3.3-1.901 0-5.613-.272-8.25-.604-3.319-.417-5.334-.183-6.545.761" fill="#d3d3d3" fill-rule="evenodd"/></svg>