<svg xmlns="http://www.w3.org/2000/svg" width="500" height="583"><path d="M0 28.5C0 46.833.357 57 1 57c.55 0 1-.675 1-1.5 0-1.213 1.578-1.498 8.25-1.489 10.593.014 15.75.872 15.75 2.62 0 2.039 5.999 1.738 7.608-.381.731-.962 1.343-3.663 1.36-6L35 46h-7.5c-5.929 0-7.5.308-7.5 1.469 0 .929-.582 1.245-1.584.86-1.275-.489-1.324-.772-.25-1.453.822-.521-.775-.855-4.166-.872-8.986-.043-12.945-.971-12.246-2.872.881-2.395 2.162-2.971 5.454-2.452 1.618.255 4.208.022 5.757-.518 1.981-.69 3.188-.638 4.072.178.984.908 1.117.762.61-.672-.356-1.007-.647-2.489-.647-3.294 0-.809-.735-1.331-1.646-1.168-.906.162-1.843-.268-2.084-.956-.24-.687.388-1.329 1.397-1.427 1.008-.097-1.317-.434-5.167-.75-5.548-.454-6.921-.884-6.621-2.073.209-.825.601-3.613.872-6.195.435-4.141.803-4.744 3.121-5.101 1.982-.305 1.713-.441-1.097-.554-3.568-.144-3.684-.258-2.75-2.715.536-1.411.975-3.661.975-5S4.45 8 5 8s1 1.085 1 2.412c0 3.138 7.555 4.917 9.512 2.241.866-1.184 1.445-1.296 2.296-.445.852.852 1.082.339.915-2.033-.141-2.013-.771-3.197-1.723-3.243-1.001-.049-.835-.358.5-.932 1.342-.577-.719-.883-6.269-.93L2.962 5l.627-2.5C4.11.425 3.858 0 2.108 0 .013 0 0 .178 0 28.5M32.375 2.766c-.066 1.504-.27 5.771-.453 9.484L31.589 19H22v3.941c0 4.501.875 5.411 4.067 4.23 3.149-1.165 6.683.709 6.683 3.544 0 2.121-.422 2.285-5.875 2.285H21v7.807l5.25.394c9.184.691 8.75 1.378 8.75-13.88 0-13.447 1.571-22.123 4.353-24.036.631-.433 4.072-.527 7.647-.209l6.5.579-6.25.172c-6.177.171-6.25.206-6.25 3.048 0 1.581-.281 4.281-.625 6-.582 2.909-.426 3.13 2.25 3.204l2.875.079-2.75 1.004c-2.103.769-2.75 1.661-2.75 3.796 0 1.536-.281 4.198-.625 5.917L38.75 30l6.875.173 6.875.172-6.5.578-6.5.577-.298 5.672-.297 5.672 5.297.575c2.914.315 6.648.733 8.298.928 1.65.194-.712.421-5.25.503L39 45v2.875c0 1.581-.281 4.281-.625 6-.599 2.995-.484 3.129 2.75 3.215l3.375.09-3.25.939c-2.862.826-3.25 1.352-3.25 4.41C38 65.333 37.616 66 36 66c-1.556 0-2-.667-2-3v-3l-9.25.015c-10.127.017-11.823.545-11.271 3.51.202 1.086.402 2.339.444 2.784.043.445.597.488 1.232.096.75-.464.881-.272.374.548-.577.934-.209 1.08 1.416.564 1.684-.534 2.316-.236 2.712 1.279.284 1.087 1.49 2.447 2.68 3.022 1.728.836.704 1.06-5.087 1.114L10 73v4c0 3.276.347 4 1.918 4 2.829 0 5.15 1.081 4.517 2.105-.304.492-1.876.895-3.494.895-3.138 0-3.218.182-2.958 6.75l.168 4.25H1v-3.917c0-2.197.549-4.138 1.25-4.421.747-.301.545-.536-.5-.583C.091 86.004 0 93.829 0 237.035v151.036l35.875-.121c32.798-.111 35.864-.264 35.75-1.785-.076-1.014.754-1.789 2.125-1.984 1.237-.176 2.25.161 2.25.749 0 .589-.477 1.07-1.059 1.07s-.781.45-.441 1c1.04 1.683 4.238 1.112 4.75-.849.732-2.8 4.754-3.557 4.47-.841-.138 1.319.436 2.244 1.53 2.472 1.089.227 1.75-.239 1.75-1.233 0-.879 1.154-2.037 2.565-2.574 3.508-1.334 3.557-1.308 2.846 1.525-.475 1.891-.236 2.5.981 2.5.884 0 1.608-.585 1.608-1.3 0-2.02 1.982-3.517 3.968-2.998 1.198.313 1.632 1.11 1.299 2.384-.379 1.452.025 1.914 1.675 1.914 1.197 0 1.954-.359 1.683-.798-.271-.439-.123-1.396.329-2.128.946-1.529 3.046-.594 3.046 1.356 0 .828 1.938 1.57 5.25 2.01 5.231.694 292.938-.202 306.25-.954 3.85-.218 23.991-.416 44.758-.441l37.758-.045-.117-158.25c-.064-87.037-.472-157.125-.908-155.75-.682 2.153-1.272 1.067-.901-1.66.049-.363-.626-1.061-1.5-1.55-1.81-1.012-2.09-4.987-.555-7.856 1.653-3.088 2.823-2.261 3.277 2.316.232 2.338.321.942.198-3.102-.139-4.588-.693-7.643-1.473-8.125-.887-.549-.929-.972-.144-1.457.761-.47 1.107-8.439 1.107-25.5V1.25l-3.129-.626C495.15.28 389.962.006 263.119.015L32.495.031l-.12 2.735m37.856 2.959c-3.8.47-3.377 2.221.578 2.391 2 .086 2.196.242.762.608C67.532 9.754 64.896 16 68.5 16c2.336 0 1.763 2.68-.75 3.506-2.041.67-1.936.797 1.134 1.366 3.278.608 3.394.792 3.708 5.852.246 3.946-.058 5.438-1.243 6.101-1.416.792-1.412.937.042 1.495 1.763.676 2.208 5.192.609 6.18-.55.34-1.007.029-1.015-.691-.013-1.074-.165-1.073-.849.005C69.086 41.471 71.935 48 73.708 48c.711 0 1.292-.425 1.292-.945s2.138-1.114 4.75-1.32l4.75-.375-4.75-.18c-4.443-.168-4.757-.358-4.856-2.93-.199-5.163.306-8.749 1.319-9.379.618-.383.486-.805-.338-1.079-1.053-.351-1.11-.986-.259-2.871.601-1.332 1.046-3.884.988-5.671-.117-3.66-.387-3.566 9.896-3.474l7 .063-8.25-1.02L77 17.8V6.1l5.75-.361c4.812-.302 4.526-.366-1.75-.39-4.125-.016-8.971.153-10.769.376M442 30.607c0 4.573.277 5.501 1.5 5.031 1.901-.729 1.944.296.073 1.752-1.701 1.323-1.838 2.453-1.688 13.967.096 7.433.356 8.764 1.615 8.281 1.091-.418 1.537.167 1.636 2.143.134 2.67.144 2.674.542.219.223-1.375.891-3.471 1.484-4.659.627-1.255.785-3.766.378-6-.385-2.112-.68-8.549-.654-14.303.046-10.388-.436-11.983-3.636-12.023-.853-.01-1.25 1.765-1.25 5.592M189.963 61.454l-3.382 1.975 2.459.686c1.353.377 5.835.762 9.96.856 5.189.117 6.884.434 5.5 1.029-1.836.789-1.795.866.5.945 3.694.126 4.79 1.183 5.259 5.064.231 1.92.493.214.581-3.79.184-8.377.66-7.972-9.918-8.42-6.133-.259-8.222.056-10.959 1.655m251.217 5.237c-.178 5.137-1.698 7.707-3.16 5.342-.536-.867-1.741-.261-4.138 2.08l-3.382 3.304-.227 12.292c-.124 6.76.101 12.291.5 12.291.4 0 .749 3.263.776 7.25.065 9.743.857 14.437 2.8 16.583 1.692 1.87.559 7.633-1.849 9.402-1.493 1.097-6.5.916-6.5-.235 0-.55-.502-1-1.117-1-.654 0-.917 1.044-.634 2.524.266 1.388.093 2.765-.383 3.059-1.44.89-.971 3.417.634 3.417.825 0 1.5-.675 1.5-1.5s.436-1.5.969-1.5c.532 0 .709.675.393 1.5-.331.862.001 1.542.781 1.6.746.055.232.41-1.143.789-2.748.758-4.129 6.382-2.073 8.438.764.764 1.073.151 1.073-2.127 0-1.76.45-3.2 1-3.2s1 1.35 1 3c0 3.005 1.431 4.098 2.292 1.75.349-.952.753-.973 1.696-.087 1.874 1.761.503 2.994-3.495 3.145-4.932.185-5.407.667-4.877 4.943.733 5.91 2.379 6.387 2.416.699.028-4.345.195-4.735 1.367-3.19.735.968 1.185 3.06 1 4.648-.294 2.53-.061 2.828 1.882 2.403 1.788-.39 1.928-.277.719.587-.825.589-3.123 1.078-5.108 1.087l-3.607.015-.643 6.147c-.971 9.291-.802 12.852.608 12.859.688.004 2.556.687 4.152 1.519 1.595.833 3.696 1.261 4.668.953 1.166-.37 1.926.049 2.233 1.23.431 1.661.473 1.664.581.042.097-1.457 1.11-1.75 6.057-1.75 3.268 0 6.235-.476 6.595-1.058.359-.581.596-8.344.527-17.25-.07-8.905-.042-27.217.062-40.692.104-13.475.23-31.925.282-41l.093-16.5-2.694.279c-2.545.264-2.715.014-3.07-4.5l-.376-4.779-.18 5.191M182.923 72.75c-.042.412-.227 1.536-.41 2.496-.42 2.191 1.296 3.345 2.774 1.867.817-.817.794-1.113-.087-1.113-.66 0-1.2-.45-1.2-1s.709-1 1.575-1c2.871 0 1.434 6.396-1.575 7.013-2.345.48-2.5.9-2.5 6.75 0 3.43.338 6.237.75 6.237s.75.45.75 1-.675 1-1.5 1c-.915 0-1.5.933-1.5 2.393 0 1.316-.675 2.652-1.5 2.969-1.82.698-1.977 3.249-.25 4.055 1 .466 1 .7 0 1.166-.687.321-1.25 1.896-1.25 3.5 0 2.25-.457 2.917-2 2.917-1.551 0-2-.667-2-2.969 0-2.228-.374-2.825-1.5-2.393-.965.371-1.5-.021-1.5-1.098 0-1.22.544-1.502 2-1.04 2.383.756 2.635-.728.434-2.555C168.457 99.645 166.271 90 169.5 90c2.493 0 1.682-1.916-1.107-2.616-3.738-.938-3.932-.102-3.544 15.27.427 16.898.399 18.585-.417 24.677-.384 2.873-.139 6.645.606 9.305.941 3.361.968 4.758.107 5.619-.63.63-1.145 2.855-1.145 4.945 0 3.855-3.078 5.663-4.341 2.55-.352-.868-.759-.923-1.333-.177-.454.59-1.678 1.388-2.719 1.773-1.041.386-1.638.957-1.325 1.269.312.312.028 2.439-.632 4.726-1.504 5.219-1.04 8.66 1.17 8.657 1.422-.001 1.629.907 1.346 5.909-.184 3.25.172 6.855.79 8.011.979 1.83.787 2.229-1.489 3.094-4.001 1.522-2.853 4.36 2.043 5.05 3.869.545 3.899.578.99 1.1l-3 .538 2.75.15c2.678.146 2.75.308 2.75 6.15 0 5.333-.222 6-2 6-1.1 0-2 .623-2 1.383 0 .761-.9 1.619-2 1.907-2.512.657-2.657 4.367-.201 5.146 1.395.443 1.707 1.356 1.39 4.068l-.408 3.496h-6.415c-5.966 0-6.484.18-7.391 2.565-1.27 3.341-1.254 10.144.025 10.935.55.34 1.014 1.604 1.03 2.809.028 1.969.134 2.014 1.05.441 2.183-3.748 2.762-2.484 2.942 6.426.106 5.307.95 6.288 6.228 7.239 3.89.701 4.845 1.951 2.25 2.947-2.854 1.095-1.574 3.541 2.415 4.615l3.916 1.055.334 6.734c.184 3.704-.003 6.884-.415 7.067-.412.184-.75 1.638-.75 3.231 0 2.203-.539 3.007-2.25 3.354-5.82 1.18-10.548 1.442-13.75.763-7.161-1.519-10.552.519-4.816 2.895 2.649 1.097 3.259 1.094 3.631-.02.26-.781.997-.03 1.767 1.802 1.91 4.541 6.229 3.679 6.55-1.308.072-1.127.41-.48.75 1.439.432 2.441 1.218 3.587 2.618 3.818 1.1.181 3.427.977 5.17 1.77 1.744.793 4.556 1.718 6.25 2.057 1.694.339 3.08 1.01 3.08 1.491 0 .481.675.875 1.5.875 1.586 0 2.081-2.523.666-3.398-1.318-.814-1.28-8.447.052-10.58 1.579-2.529.16-3.922-1.576-1.548-1.362 1.864-3.398.559-2.186-1.402.315-.51-.305-1.207-1.378-1.547-2.475-.786-2.831-3.387-1.576-11.525 1.272-8.246 2.594-10.794 4.446-8.563 1.688 2.035 5.052 2.021 5.052-.02 0-.871.563-1.395 1.25-1.164.688.23 1.261 1.28 1.274 2.333.016 1.312.61 1.812 1.89 1.588 1.59-.278 1.775.129 1.251 2.75-.35 1.752-.195 3.076.36 3.076.536 0 .975-.45.975-1 0-1.769 2.02-1.071 4.724 1.633 2.406 2.406 2.488 2.739.954 3.86-.923.675-1.678 1.74-1.678 2.367s-1.155 1.14-2.567 1.14c-2.113 0-2.455.355-1.933 2 .439 1.382.18 2-.839 2-.981 0-1.299.668-.951 2 .288 1.1.921 2 1.407 2 .485 0 .883 1.125.883 2.5s.506 2.388 1.125 2.25c.619-.137 1.355.384 1.636 1.159.355.977.01 1.217-1.125.782-1.319-.507-1.636.037-1.636 2.809 0 2.534.368 3.296 1.399 2.9 1.549-.594 3.129 1.156 1.791 1.983-1.741 1.076-5.059-.555-4.539-2.232.447-1.439.327-1.426-.93.099-.793.962-2.404 1.75-3.581 1.75-1.711 0-2.14.601-2.14 3 0 2.435.424 3.006 2.25 3.032 2.194.031 2.201.068.309 1.5-1.77 1.338-1.355 1.468 4.691 1.468 6.406 0 9.079 1.06 6.575 2.608-.664.41-1.384.216-1.599-.431-.56-1.678-4.226-1.462-4.226.25 0 .784.787 1.632 1.75 1.884 1.667.435 1.667.463 0 .573-1.079.072-1.75.928-1.75 2.233 0 1.718.47 2.026 2.5 1.638 2.673-.511 3.172.173 1.413 1.932-.783.783-.783 1.275 0 1.759 2.155 1.332 1.014 2.148-2.663 1.902-3.402-.226-3.473-.184-.762.459 1.896.45 3.103 1.436 3.304 2.701.186 1.178-.013 1.552-.488.916-.557-.746-3.872-.808-10.804-.203-9.624.841-21.999.469-27.75-.832-4.231-.957-3.845 3.034.437 4.526 7.044 2.456 1.588 3.562-20.484 4.152-27.296.729-46.91 4.932-40.998 8.784.547.357 1.529 1.661 2.18 2.899.881 1.672 2.075 2.25 4.65 2.25 1.906 0 3.465.492 3.465 1.093 0 .705 1.511.901 4.25.551 2.337-.298 6.162-.565 8.5-.593 3.473-.042 4.25-.394 4.25-1.929 0-2.982 1.9-3.827 11.696-5.2 5.057-.709 8.968-1.657 8.691-2.106-.521-.841 6.435-1.299 12.613-.831 1.925.146 11.777.174 21.893.062 14.376-.159 18.576.086 19.234 1.125.492.775.856-2.628.875-8.172.03-8.795.217-9.675 2.515-11.855 2.962-2.809 3.014-3.236.693-5.68-1.72-1.812-1.72-1.955 0-3.675 2.183-2.183 2.306-3.79.29-3.79-.825 0-1.5-.45-1.5-1s.42-1 .933-1c.513 0 .895-1.35.848-3-.047-1.65-.467-3-.933-3s-.848-.48-.848-1.067.837-.802 1.859-.478c3.885 1.233 5.141-.323 5.141-6.371 0-5.955 1.977-10.548 3.488-8.104.488.791.163 1.636-.848 2.201-1.933 1.082-2.18 4.4-.39 5.236 1 .466 1 .7 0 1.166-2.836 1.324-1.339 3.595 1.9 2.884 2.642-.58 3.05-.432 2.532.921-.341.886-.203 1.612.306 1.612.508 0 1.057-3.262 1.218-7.25.263-6.485.505-7.25 2.294-7.25 1.35 0 1.905-.569 1.706-1.75-.174-1.038.335-1.75 1.25-1.75.849 0 1.544.675 1.544 1.5s.58 1.5 1.288 1.5c1.535 0 2.416-14.925.939-15.896-1.385-.91-2.445-6.104-1.246-6.104 1.416 0 1.28-4.339-.181-5.8-.933-.933-.933-1.2 0-1.2.667 0 1.2-1.333 1.2-3s-.533-3-1.2-3c-.857 0-.892-.308-.123-1.077.673-.673.788-2.363.304-4.506-.43-1.907-.371-3.676.132-3.987 1.587-.981.235-20.224-1.545-22.005-1.809-1.809-1.988-3.047-.568-3.925 1.569-.97 1.172-3.653-.75-5.068-1.667-1.228-1.667-1.321 0-1.968 1.069-.414 1.737-1.707 1.717-3.321l-.034-2.643-1.964 2.358c-1.149 1.379-2.588 2.118-3.467 1.781-1.128-.433-1.502.162-1.502 2.392 0 2.342.44 2.969 2.083 2.969 1.245 0 1.899.503 1.625 1.25-.252.688-1.003 1.125-1.669.971-.666-.153-1.45.635-1.742 1.75-.611 2.339-3.297 2.77-3.297.529 0-.825-.648-1.5-1.441-1.5-2.554 0-2.953-2.262-.718-4.072 2.45-1.984 2.834-3.928.776-3.928-.761 0-1.643-.993-1.961-2.206-.317-1.214-.908-1.876-1.312-1.471-1.111 1.11-1.347 4.057-.374 4.659.473.292.223 1.401-.555 2.465-1.272 1.739-1.415 1.258-1.415-4.756 0-3.794.433-6.691 1-6.691.55 0 1 .45 1 1s.477 1 1.059 1 .739-.518.347-1.152c-.391-.633.145-1.81 1.191-2.614 1.332-1.025 1.528-1.604.653-1.932-.687-.258-1.295-1.444-1.35-2.635-.092-2.014-.147-1.995-.777.259-.766 2.739-3.123 4.044-3.123 1.729 0-.832.707-2.219 1.571-3.084 1.429-1.428 1.429-1.571 0-1.571-1.268 0-1.571-1.26-1.571-6.521 0-6.005.2-6.613 2.527-7.673 1.969-.898 2.797-.865 3.75.146.887.942.912 1.413.091 1.717-.733.271-.963 2.256-.651 5.625.702 7.586 1.982 8.886 2.037 2.07.066-8.19.097-8.364 1.496-8.366.909-.002 1.157 1.806.91 6.615-.237 4.596-.008 6.411.75 5.943 2.082-1.287 3.519.657 1.55 2.097-1.686 1.233-1.572 1.347 1.349 1.347 2.708 0 3.191-.366 3.191-2.417 0-1.329-.562-2.679-1.25-3-1-.466-1-.7 0-1.166 1.82-.85 1.531-5.372-.39-6.109-1.415-.543-1.441-.779-.188-1.719 2.481-1.86 2.767-4.197.729-5.942-2.237-1.916-5.56-2.17-6.127-.47-.23.69-.929.845-1.69.375-1.023-.632-1.035-.964-.058-1.568.956-.591.867-1.299-.393-3.098-.898-1.282-1.633-3.131-1.633-4.109 0-1.251-.776-1.777-2.622-1.777-2.332 0-2.471.185-1.25 1.673 1.222 1.491 1.126 1.611-.878 1.094-2.17-.559-2.694.103-2.333 2.948.113.884-2.166 1.156-8.38 1-4.695-.118-8.536-.218-8.536-.222-.001-.003.408-1.433.908-3.177 1.078-3.757-.132-4.588-5.448-3.743l-3.443.547.289-4.852c.376-6.313 2.498-9.379 6.303-9.108 1.59.113 6.464.123 10.831.023 7.217-.166 7.764-.317 6-1.651-1.756-1.329-1.774-1.471-.191-1.5 1.986-.036 2.521-4.608.614-5.244-.81-.27-.739-1.083.25-2.833 1.94-3.436 2.872-3.911 5.622-2.865 1.322.502 3.497.639 4.833.303 1.48-.371 2.431-.176 2.431.499 0 .609-.675 1.108-1.5 1.108-1.768 0-1.91 1.365-.431 4.13.777 1.452.747 2.387-.111 3.421-1.243 1.498-.547 4.931.827 4.082.44-.272.865.374.945 1.436.124 1.644-.525 1.931-4.359 1.931-4.274 0-4.488.134-4.187 2.624.316 2.626 2.882 3.078 13.816 2.435 1.244-.073 1.326-3.74.1-4.497-.495-.306-.771-6.97-.614-14.809.313-15.648-.028-18.753-2.059-18.753-.746 0-1.838-.9-2.427-2-1.477-2.76-3-2.506-3 .5 0 1.556.567 2.5 1.5 2.5.825 0 1.5.464 1.5 1.031 0 .568-.675 1.291-1.5 1.607-2.83 1.087-1.499 2.211 2.09 1.766 4.031-.5 4.47 1.638.527 2.568-1.229.291-2.175.967-2.101 1.503.074.536-.35 1.136-.941 1.333-.591.197-1.075-.354-1.075-1.225 0-1.032-.891-1.583-2.559-1.583-1.407 0-2.3.419-1.984.931.778 1.259-1.173 2.363-2.608 1.475-.797-.492-.566-1.165.75-2.184 1.837-1.423 1.829-1.455-.238-.97-2.503.588-5.657-1.081-3.611-1.911 1.621-.658 1.628-6.048.009-6.588-2.712-.904 2.553-4.253 6.686-4.253 3.444 0 4.103-.339 4.375-2.25.175-1.237.963-2.25 1.75-2.25.786 0 1.396-.787 1.354-1.75-.111-2.558-2.758-9.064-2.848-7-.123 2.822-3.076 2.102-3.076-.75 0-1.47.574-2.5 1.393-2.5 1.488 0 2.617-2.105 2.592-4.832-.014-1.446-.149-1.468-1.019-.168-.881 1.318-1.121 1.3-1.976-.146-.823-1.392-1.605-1.485-5.082-.603-4.489 1.14-6.379-.089-5.329-3.464.391-1.259-.444-2.121-3.145-3.25-4.096-1.712-5.397-1.897-5.511-.787M.487 237c0 83.325.118 117.413.263 75.75.144-41.662.144-109.837 0-151.5C.605 119.588.487 153.675.487 237m309.217-73.303c-.264.442-.781 7.382-1.149 15.424-.58 12.656-.463 14.7.87 15.212.891.342 1.292 1.24.951 2.129-.324.846-.092 1.538.517 1.538s1.107-.9 1.107-2 .45-2 1-2 1 .505 1 1.122c0 .779.456.744 1.49-.114.943-.783 1.271-2.113.892-3.622-.441-1.757-.184-2.386.974-2.386 3.068 0 3.856-3.716 3.11-14.661-.584-8.567-.977-10.357-2.171-9.899-.802.308-1.647.56-1.877.56-.23 0-.418 1.9-.418 4.223 0 3.924-.1 4.079-1.414 2.203-.778-1.11-1.565-3.313-1.75-4.895-.326-2.795-2.163-4.456-3.132-2.834m-137.393 19.591c-.446.731-2.259 1.914-4.028 2.628-4.68 1.89-5.029 2.657-5.818 12.792l-.716 9.208 4.125 1.65c3.224 1.29 4.126 2.174 4.126 4.043 0 1.315-.45 2.391-1 2.391s-1 .45-1 1 1.076 1 2.392 1c3.448 0 4.482-4.537 1.637-7.188-2.178-2.028-1.921-3.812.549-3.812 1.058 0 1.287-.688.833-2.498-.345-1.374-.306-3.286.085-4.25.998-2.456 1.324-17.245.393-17.82-.421-.261-1.131.124-1.578.856m255.537 24.462c-.084 4.813-.193 9.65-.242 10.75-.081 1.797.704 2.051 7.725 2.5 11.561.74 11.758.591 11.603-8.729-.071-4.274-.346-9.009-.611-10.521l-.482-2.75H428l-.152 8.75m-115.768 6.057c-.983 2.373-1.072 27.396-.116 32.693.1.55-.146 2.079-.547 3.397l-.727 2.396 6.399-.724c3.519-.398 6.518-.843 6.664-.989.605-.604.518-8.941-.237-22.785l-.801-14.706 7.892-.343c7.207-.314 6.966-.361-2.763-.545-10.002-.189-10.626-.085-10.163 1.686.271 1.038-.026 2.208-.66 2.6-1.445.893-1.89.455-2.306-2.272-.518-3.393-1.345-3.522-2.635-.408M172.583 233.69c-1.778 1.777-2.275 2.883-1.509 3.356.71.439.948 2.357.629 5.08-.302 2.584-.039 4.952.643 5.787.879 1.076.857 1.512-.096 1.833-2.87.966-.909 2.065 3.75 2.101 3.707.028 5-.334 5-1.404 0-.794-.562-1.457-1.25-1.473-.694-.017-.471-.484.5-1.05.963-.561 1.75-1.469 1.75-2.017 0-.549 1.144-2.058 2.541-3.354 1.763-1.633 2.146-2.501 1.25-2.833-.765-.283-.17-.924 1.459-1.572 5.69-2.265 1.453-6.155-7.383-6.778-3.921-.277-5.041.081-7.284 2.324M197.5 233c-.349 1.1-1.317 2-2.151 2-.833 0-1.309.563-1.057 1.25.252.688.964 1.137 1.583 1 .639-.142 1.125 1.046 1.125 2.75s-.486 2.892-1.125 2.75c-.619-.137-1.331.313-1.583 1-.252.688.254 1.25 1.125 1.25.87 0 1.583.49 1.583 1.09 0 .599 1.197 2.358 2.66 3.908 2.22 2.352 2.965 2.628 4.5 1.67 1.401-.875 2.315-.853 3.826.091 2.565 1.602 3.014 1.563 3.014-.259 0-.825-.675-1.5-1.5-1.5-.833 0-1.5-.889-1.5-2 0-1.1-.45-2-1-2-1.294 0-1.304-3.694-.011-4.493.608-.376.382-1.538-.586-3.015-1.941-2.963-1.127-4.487 2.406-4.507l2.691-.014-2.5-1.318c-2.258-1.19-2.76-1.067-5.183 1.265-1.673 1.609-2.332 2.94-1.75 3.532 1.356 1.381 1.143 5.308-.317 5.832-.836.3-.453 1.156 1.153 2.583l2.403 2.135h-2.224c-3.999 0-6.495-4.187-3.989-6.693.79-.79.79-1.657 0-3.134-1.7-3.177-1.319-4.163 1.657-4.289 1.692-.071 2.077-.292 1-.573-.963-.252-1.75-.875-1.75-1.384 0-1.735-1.863-.935-2.5 1.073m227.827.859c-.308 1.177-1.178 2.141-1.932 2.141-3.919 0-5.395 3.207-5.395 11.722 0 7.696.966 10.415 2.386 6.715.451-1.177 1.486-1.422 4.19-.992 4.676.743 6.009-.141 3.834-2.544-2.042-2.257-2.243-2.213 8.84-1.927l8.75.227.134-3.351c.136-3.392-.209-12.206-.491-12.522-.084-.094-4.564-.495-9.955-.891-9.469-.695-9.82-.647-10.361 1.422M320.21 255.695c-1.766.855-3.21 1.85-3.21 2.212 0 .361-1.176.754-2.614.873-1.607.133-4.058 1.796-6.362 4.317l-3.748 4.1-2.33-3.273c-1.281-1.799-2.505-2.747-2.719-2.106-.284.853-.927.878-2.393.093-3.594-1.923-3.434-3.385-4.337 39.697l-.715 34.108 4.609 2.231c4.422 2.141 5.462 3.992 4.704 8.374-.156.901 3.949 4.592 5.165 4.646.418.018 3.001 1.608 5.74 3.533 2.739 1.925 5.434 3.5 5.99 3.5.837 0 1.401-6.741 1.359-16.25-.004-.962.399-1.75.897-1.75s.775-1.238.616-2.751c-.158-1.512.04-3.281.441-3.931.401-.649.346-1.417-.123-1.707-1.593-.985-.586-5.13 1.171-4.817 1.808.322 2.254-1.302.633-2.304-.559-.346-.715-1.117-.346-1.714s.226-.81-.317-.474c-1.363.842-1.284-2.624.08-3.537.773-.516.745-.739-.094-.75-1.418-.018-.808-4.348.683-4.845 1.556-.519 1.195-3.17-.431-3.17-.793 0-1.76-.516-2.149-1.146-.495-.801.058-.953 1.841-.506 2.304.578 2.525.376 2.299-2.104-.392-4.3-.91-5.616-2.953-7.494-1.854-1.705-1.835-1.75.75-1.75 1.666 0 2.653-.546 2.653-1.469 0-.981-.58-1.251-1.75-.812-1.516.568-1.571.435-.414-.988 1.686-2.074.712-3.731-2.194-3.731-2.478 0-5.168-5.466-4.083-8.294.739-1.924-2.73-3.958-6.016-3.527-1.291.169-3.292-.547-4.445-1.591-3.797-3.435-2.399-4.065 3.402-1.534 1.1.48 4.7 1.6 8 2.489 11.167 3.009 10.478 3.02 9.63-.149-.732-2.736-.933-2.812-6.942-2.616-3.55.115-6.188-.221-6.188-.789 0-.544 2.057-.989 4.571-.989 4.572 0 8.87-2.444 6.755-3.841-.549-.362-.9-3.703-.78-7.423.252-7.789 0-8.141-4.336-6.041m-126.817 2.479c-.286.462.184 1.11 1.044 1.44 2.03.779 2.084 5.386.063 5.386-2.134 0-1.836 1.149.996 3.834 1.942 1.842 3.106 2.193 5.523 1.662 1.822-.4 3.622-.209 4.444.473 1.044.867 1.886.83 3.459-.152 2.326-1.453 2.847-5.817.695-5.817-.761 0-1.619-.9-1.907-2-.608-2.324-2.71-2.712-2.71-.5 0 .825.45 1.5 1 1.5s1 .708 1 1.573c0 2.502-3.329 1.228-4.797-1.835-.722-1.506-1.932-2.738-2.69-2.738s-1.64-.825-1.96-1.833c-.595-1.876-3.227-2.504-4.16-.993M24.5 261.289a93.48 93.48 0 0 0-3.5 1.898c-.825.479-2.288 1.135-3.25 1.459-.962.323-1.802 1.547-1.866 2.721-.263 4.827.308 22.134.753 22.855.265.428-.031.778-.657.778-.779 0-1.034 2.368-.809 7.502.304 6.942.18 7.504-1.671 7.516-1.657.01-1.743.179-.5.982 1.12.724.612.955-2 .914-2.672-.042-3.04-.235-1.554-.816 1.803-.706 1.766-.81-.5-1.416-3.947-1.056-4.687-.815-5.165 1.683l-.452 2.365 9.085-.483c4.998-.266 9.514-.881 10.036-1.366 1.855-1.72 7.397-1.044 7.121.869-.191 1.332-1.543 1.89-5.661 2.337-2.976.323-4.735.692-3.91.82 1.093.17.957.467-.5 1.093-1.444.62-.423.879 3.667.93 3.654.045 5.845-.374 6.171-1.18.403-1 .52-1 .583 0 .053.838 1.881 1.25 5.548 1.25 4.45 0 5.361-.279 4.893-1.5-.372-.968-1.919-1.5-4.362-1.5-3.762 0-6.113-2.194-3.85-3.593 1.429-.883-.903-2.322-4.15-2.56-1.375-.101.2-.445 3.5-.765l6-.582.272-19.25c.235-16.685.068-19.25-1.25-19.25-.837 0-1.522-.675-1.522-1.5 0-1.022-1.035-1.505-3.25-1.515-2.202-.011-2.813-.293-1.893-.875 2.004-1.27-2.849-1.107-5.357.179m313.25 16.456c-6.76.257-8.75.658-8.75 1.761 0 1.159 2.314 1.434 12.25 1.456 17.958.041 28.75-.935 28.75-2.6 0-1.383-8.093-1.538-32.25-.617M44.7 327.699c-1.57.407-1.776 1.525-1.616 8.764.206 9.368-.198 10.537-3.643 10.537-1.937 0-2.441-.516-2.441-2.5 0-3.575-2.676-3.159-3.213.5l-.441 3h6.296c4.617 0 6.172-.333 5.831-1.25-.255-.687-.054-2.6.446-4.25s.948-2.437.995-1.75c.047.688.696 1.25 1.441 1.25 1.878 0 2.276-12.983.433-14.152-.708-.45-1.513-.772-1.788-.717-.275.056-1.31.311-2.3.568" fill="#d3d3d3" fill-rule="evenodd"/></svg>