<svg xmlns="http://www.w3.org/2000/svg" width="500" height="582"><path d="M.079 43.281C.011 81.137.201 87.14 1.486 87.633c1.314.504 1.314.815 0 2.691-1.53 2.184-2.15 13.69-.736 13.661 2.371-.049 3.315-1.749 2.26-4.076-.694-1.531-.789-3.866-.26-6.409l.832-4 8.959-.538c16.209-.974 28.417-9.403 36.188-24.987 3.149-6.313 3.231-6.388 3.282-2.975.047 3.126.195 3.313 1.381 1.75C54.807 60.885 59 60.325 59 62c0 .55-.9 1-2 1s-2 .45-2 1c0 1.303 5.695 1.303 6.5 0 .34-.55 2.193-1 4.118-1 1.925 0 3.292.337 3.038.75-.253.412 3.959.739 9.362.725 5.426-.014 9.578.37 9.277.857-.3.485.298.643 1.33.35 4.913-1.395 9.282-1.967 13.625-1.784 2.777.118 4.75-.235 4.75-.849 0-1.373 3.69-1.36 4.54.016.362.586 1.851.971 3.309.856 1.458-.114 3.326.038 4.151.34.825.301 2.253.788 3.172 1.082 1.729.553 1.474 4.657-.289 4.657-.485 0-.77.552-.633 1.226.138.675-.763 1.381-2 1.57-1.238.189-2.25.782-2.25 1.319 0 .58-1.472.699-3.634.294-1.999-.375-8.074-.71-13.5-.745C94.44 73.63 90 73.241 90 72.801c0-.441-.338-.727-.75-.637-1.94.424-6.409-1.593-7.327-3.307-1.28-2.393-2.916-1.548-2.212 1.144.585 2.238-2.442 2.868-4.396.914-1.417-1.417-5.888-.727-5.565.859.137.674-.698 1.226-1.857 1.226-1.542 0-1.938.44-1.477 1.641.554 1.444-.094 1.575-5.393 1.095-3.757-.341-6.023-.165-6.023.466 0 .557-.642.766-1.426.465-1.731-.664-2.033 4.488-2.409 41.07-.234 22.758-.103 25.176 1.336 24.624 2.226-.854 4.609 2.565 3.384 4.854-.513.959-.671 2.788-.351 4.064.46 1.835-.005 2.622-2.226 3.762-5.066 2.599-12.729 8.123-17.103 12.329C31.763 171.641 21 186.855 21 188.862c0 .626-1.125 1.138-2.5 1.138s-2.5.45-2.5 1 .725 1 1.611 1c1.271 0 1.488.686 1.027 3.25a375.357 375.357 0 0 0-1.239 7.5l-.655 4.25h-4.372C9.967 207 8 207.45 8 208s2.058 1 4.573 1c3.783 0 4.517.297 4.243 1.716-.265 1.375-1.323 1.685-5.323 1.559-4.453-.141-4.711-.041-2.386.926 1.434.597 3.055 2.258 3.601 3.692l.994 2.607 1.316-3 1.316-3 .749 4.5c.864 5.186.295 7.983-1.979 9.714-1.383 1.054-1.216 1.227 1.219 1.254 2.143.024 2.742.454 2.485 1.782-.368 1.906-4.868 2.283-14.058 1.179l-4.75-.57.1 9.07c.059 5.397.386 8.058.806 6.571.674-2.383.733-2.401 1.271-.386.392 1.468 1.675 2.323 4.194 2.796 1.996.374 3.629 1.054 3.629 1.51 0 .457 1.293 1.089 2.874 1.405 3.759.752 4.205 2.112 4.977 15.175l.649 11 .5-10.493.5-10.493 3-.593 3-.592-3-.414c-3.052-.422-3.314-1.161-1.975-5.56.575-1.886-.05-2.403-5.186-4.292-13.767-5.064-14.331-5.388-14.335-8.234-.003-2.104.578-2.795 2.746-3.26 5.238-1.124 10.794-.872 13.641.62 2.806 1.47 3.322 2.442 7.731 14.579 1.053 2.898 2.791 6.145 3.862 7.216 1.071 1.071 3.163 3.876 4.647 6.232 1.484 2.356 5.55 7.138 9.034 10.627L49 280.185v7.376c0 6.146-.25 7.28-1.5 6.801-.825-.317-1.5-.078-1.5.531S46.675 296 47.5 296c1.242 0 1.5 1.889 1.5 11 0 12.17.249 11.8-6.967 10.357-3.144-.629-3.203-.739-2.588-4.842l.63-4.198-6.288-1.596c-11.428-2.902-16.865-3.14-17.485-.766-.655 2.503-3.925 2.67-10.893.556-2.7-.819-5.021-1.494-5.159-1.5-.692-.03-.101 21.676.621 22.815.463.729 2.593 1.561 4.735 1.848 3.842.515 3.893.479 3.802-2.698-.054-1.883-.781-3.605-1.75-4.148-2.611-1.461-1.966-3.978 2.231-8.706 4.954-5.58 6.317-4.848 6.012 3.228l-.232 6.15 6.161-.173c4.534-.128 6.856-.722 8.8-2.25 3.3-2.597 4-2.598 4.677-.013.481 1.843 1.183 2.032 6.539 1.757 3.3-.169 6.335.027 6.744.436.409.408 5.618.743 11.577.743 8.457 0 10.833.298 10.833 1.358 0 .922 1.914 1.557 5.967 1.981 6.738.704 9.157.148 8.363-1.922-.834-2.172 15.915-2.029 18.099.154.864.865 1.571 1.99 1.571 2.5 0 1.743 3.605.933 7-1.571 1.864-1.375 4.415-2.5 5.669-2.5 2.01 0 2.221-.386 1.777-3.25l-.505-3.25 1.711 3.25c1.537 2.919 2.161 3.25 6.136 3.25 3.523 0 4.309-.306 3.85-1.5-.35-.914-.001-1.5.893-1.5.808 0 1.469.675 1.469 1.5s.113 1.527.25 1.561c.137.033 5.2.277 11.25.541 6.06.265 12.693 1.135 14.77 1.939 4.84 1.873 7.73 1.857 7.73-.041 0-1.313 6.056-1.5 48.5-1.5 26.675 0 48.5-.389 48.5-.865s-.961-2.087-2.135-3.579c-1.814-2.306-1.927-2.916-.75-4.056 1.994-1.931 7.334-2.201 9.422-.476.982.812 2.501 1.522 3.375 1.578 4.376.281 5.088.472 5.088 1.367 0 .532-.787.715-1.75.405-1.444-.464-1.493-.381-.279.477 2.017 1.426.965 2.184-3.604 2.597-2.127.192-3.867.429-3.867.527 0 .098-.829.335-1.842.526-1.013.192-2.038.546-2.279.787-.241.24 30.513.769 68.342 1.174 37.828.405 68.971.921 69.206 1.148.404.389.108 20.256-.431 28.89-.137 2.2-.305 4.995-.373 6.211-.067 1.216-.979 3.016-2.026 4-2.14 2.012-2.777 4.932-1.644 7.539.419.962.502 2.425.185 3.25-.457 1.191.318 1.5 3.764 1.5h4.34l.664-5.869c.968-8.563.589-41.016-.487-41.681-2.539-1.569-.868-4.45 2.581-4.45 3.35 0 4.585 1.211 2.53 2.481-1.391.86-.699 12.796.771 13.286 1.443.481 1.599 5.433.214 6.818-.542.542-1.133 2.339-1.314 3.995-.182 1.656-.671 3.562-1.087 4.236-.447.722.298 2.479 1.814 4.281 1.415 1.681 2.572 3.435 2.572 3.898 0 1.949-1.308 4.005-2.548 4.005-2.219 0-2.645 1.824-1.297 5.552 1.231 3.403 1.451 3.528 5.703 3.244l4.424-.296.404-6.5c.222-3.575.444-15.162.492-25.75l.089-19.25H428l.107 8.75c.059 4.813.063 13.475.01 19.25s.278 12.075.736 14c.792 3.328.869 3.18 1.553-3 1.354-12.224.975-52-.496-52-.528 0-.898-15.093-.883-36.066l.024-36.066 2.225.317c2.241.319 2.987 5.273 1.013 6.732-1.58 1.168-1.334 3.453.859 7.97 2.3 4.736 2.942 8.817 1.675 10.652-.891 1.289 1.095 9.461 2.299 9.461.483 0 .878 3.375.878 7.5 0 4.333-.422 7.5-1 7.5-.645 0-1 10.833-1 30.5 0 26.444.199 30.5 1.5 30.5 1.636 0 1.966 2.9 1.56 13.7-.32 8.522 3.093 14.33 7.44 12.662 2.22-.852 2.22-22.362 0-22.362-1.962 0-1.895-.539.472-3.79 2.176-2.989 2.117-1.467 2.064-53.631-.015-14.257.175-26.123.421-26.369 2.13-2.13 5.288 11.111 4.601 19.29-.139 1.65-.205 3.675-.147 4.5.102 1.462.986 30.017 1.145 37 .074 3.25.157 3.339 1.164 1.25 1.587-3.289 2.334-2.768 2.515 1.75.087 2.2-.214 4-.671 4-.456 0-.74 1.462-.629 3.25.111 1.788-.173 4.6-.63 6.25-.458 1.65-.917 8.4-1.021 15-.11 7.008-.625 12.306-1.237 12.735-.576.404 1.514.741 4.644.75 3.13.008 5.935-.38 6.234-.863.298-.484.565-25.993.592-56.688.031-35.436.412-56.246 1.043-57.006.546-.659 1.277-4.234 1.624-7.944l.63-6.747-6.184.447c-7.28.527-6.491 2.216-8.032-17.184-1.132-14.241-1.795-18-3.176-18-1.588 0-2.753 7.501-4.401 28.333-1.686 21.316-2.049 23.667-3.662 23.667-.543 0-.898-9.205-.858-22.25.038-12.237.053-22.862.034-23.609-.027-1.058-1.713-1.275-7.585-.978-8.059.407-9.406 1.239-9.435 5.826-.016 2.696-3.129 11.001-4.125 11.007-.336.002-.869-2.502-1.185-5.565-.629-6.096-2.428-9.472-3.851-7.228-.573.902-.828.612-.839-.953-.008-1.238-.395-2.25-.86-2.25-1.705 0-4.155 3.732-4.155 6.329 0 3.124-1.531 3.572-2.29.671-.844-3.23-8.91-2.863-10.703.488-.969 1.81-1.668 2.208-2.566 1.463-1.486-1.233-.705-4.913 1.198-5.643.748-.287 1.361-.91 1.361-1.384 0-.473-.617-.624-1.371-.335-2.865 1.099-2.66-2.664.235-4.326 2.855-1.638 4.057-6.275 2.264-8.734-1.284-1.76-.709-3.986 1.122-4.339 1.458-.28 1.75.417 1.75 4.178 0 2.483.45 4.792 1 5.132 1.635 1.011 1.135 2.489-.615 1.817-1.304-.5-1.476-.18-.893 1.657.495 1.562.372 2.06-.392 1.588-1.085-.671-2.808 2.063-1.883 2.988.255.255 2.336.726 4.623 1.046 3.959.554 4.16.456 4.16-2.007 0-1.424.45-2.589 1-2.589s1-.675 1-1.5.477-1.5 1.059-1.5.751-.498.375-1.107c-.477-.772-.954-.697-1.579.25-.57.864-.797-.614-.625-4.064.276-5.55 2.077-7.838 3.253-4.134.958 3.02 4.204 2.521 7.569-1.163 2.756-3.017 3.045-3.113 4.624-1.535 1.579 1.579 1.532 1.743-.746 2.618-2.08.8-2.178 1.021-.68 1.535 5.01 1.718 5.226 1.842 4 2.3-1.745.651-1.565 2.3.25 2.3 1.207 0 1.5-1.543 1.5-7.889v-7.89l10.75-.444c11.75-.486 18.523-2.476 26.379-7.752 2.378-1.598 4.428-2.801 4.555-2.674.127.127.233 15.737.236 34.69.002 18.952.06 36.259.127 38.459.3 9.78.137 66.543-.205 71.5-.209 3.025.134 7.525.762 10 .629 2.475 1.242 8.775 1.365 14 .417 17.836.809 23.178 1.772 24.141.529.529 3.841.826 7.361.661l6.398-.302.261-5c.353-6.742 1.101-9.704 2.268-8.982.534.33.971.123.971-.459 0-.582-.398-1.059-.883-1.059-2.149 0-4.043-18.179-2.134-20.479 1.64-1.977 1.192-13.475-.664-17.021-1.899-3.629-2.588-30.088-.829-31.847 1.895-1.895 1.953-5.581.111-7.043-1.055-.836-1.554-5.362-2.026-18.367-.606-16.696-.553-17.386 1.642-21.2l2.269-3.941-2.172-2.024c-2.079-1.937-2.174-2.84-2.222-21.118-.042-16.104.208-19.488 1.597-21.608 1.48-2.259 1.495-2.784.145-5.183-2.705-4.808-1.446-16.608 2.273-21.304 3.512-4.434 4.179-4.608 7.123-1.865 1.181 1.1 2.455 2 2.831 2 1.131 0 2.04-7.945 1.337-11.691-.595-3.172-.924-3.459-3.527-3.077-3.384.497-3.565-.177-.904-3.371l1.966-2.361.034 2.25c.018 1.238.485 2.25 1.037 2.25.587 0 .975-3.015.933-7.25-.039-3.988.21-39.2.554-78.25.391-44.367.273-70.487-.314-69.634-.631.919-2.34 1.233-5.215.959-3.956-.377-4.421-.161-6.218 2.884-2.485 4.211-3.446 4.176-2.946-.108.36-3.08.13-3.444-2.45-3.874-5.952-.992-15.494-.773-14.807.34.462.747-1.157 1.003-5.17.817l-5.843-.27-2.112 8.443A1351.104 1351.104 0 0 0 452.005 24c-.714 3.025-2.108 7.981-3.098 11.013-.99 3.033-2.088 9.108-2.44 13.5-.352 4.393-1.047 8.478-1.545 9.079-.498.601-.663 1.334-.367 1.63.296.296-.625.83-2.046 1.186-2.691.676-5.765-.424-5.583-1.998.057-.5-1.881-1.045-4.307-1.211-5.018-.341-5.781-1.604-4.751-7.858 1.211-7.358.38-10.325-2.931-10.466-1.616-.069-3.387-.237-3.937-.375-.55-.138-1.45-.306-2-.375s-1-.8-1-1.625c0-1.949-2.89-1.949-3.638 0-.939 2.445-8.362 2.043-8.362-.453 0-5.813 5.325-9.549 10.025-7.034 1.709.915 2.493.828 3.887-.433.96-.869 2.696-1.58 3.858-1.58 1.161 0 2.388-.446 2.725-.992 1.018-1.647-.837-3.508-3.495-3.508-2.358 0-2.516-.34-2.776-6-.23-5.006-.692-6.343-2.788-8.068-4.716-3.882-.6-6.411 11.064-6.799 4.341-.144 4.68.729 2.955 7.617-1.022 4.082 1.226 3.448 3.023-.852 1.502-3.596 1.514-3.601 7.263-3.346 9.236.408 10.697.181 9.34-1.455-.895-1.077-.865-1.508.127-1.859 1.195-.422-22.102-1.385-38.958-1.61-7.835-.104-9.027 1.053-6.03 5.852 1.064 1.705.763 2.37-2.375 5.236-1.977 1.806-3.897 4.575-4.269 6.154-.371 1.578-2.037 4.565-3.703 6.638l-3.028 3.768 2.147 4.209c1.181 2.315 1.87 4.487 1.53 4.826-.339.339-68.883.706-152.319.814-83.437.108-160.525.501-171.308.873l-19.605.676-.595-3.669C50.662 22.977 37.542 10.549 24.076 8.396 21.834 8.038 20 7.199 20 6.533c0-1.543-4.74-3.763-5.479-2.567-.302.489.356 1.178 1.464 1.529C19.327 6.556 18.254 8 14.125 8c-2.131 0-5.318.289-7.082.641l-3.208.642.581-4.892c.32-2.69.32-4.328-.001-3.641-.751 1.614-3.102 1.614-3.753 0C.385.062.122 19.202.079 43.281M458.223 26.25c-2.896 7.086-7.194 20.828-7.21 23.05-.007.989-.641 3.014-1.409 4.5-2.842 5.5-2.473 7.244 1.851 8.738 2.674.925 4.345 1.043 5.161.366.809-.672 1.419-.656 1.854.047 1.661 2.689 2.318-.257 4.007-17.984 1.381-14.493 1.546-19.622.69-21.5-1.638-3.596-2.547-3.084-4.944 2.783m-27.556 8.417c-.367.366-.667 2.391-.667 4.5 0 3.274.328 3.85 2.25 3.949 1.778.092 1.871.214.445.584-3.389.878-1.043 2.8 3.636 2.979 5.251.201 6.024-.758 1.919-2.38l-2.75-1.086 3.049-.107c2.537-.088 3.262-.694 4.313-3.6.695-1.922.984-3.947.642-4.5-.686-1.11-11.774-1.403-12.837-.339M187 64.667c-2.475.645-5.531 1.208-6.792 1.253-1.26.044-3.178.906-4.261 1.915-1.951 1.818-1.947 1.844.542 2.978 1.381.629 2.511 1.656 2.511 2.282 0 .709.848.89 2.25.479 6.434-1.886 7.42-1.637 6.851 1.727-.174 1.033 13.076-.004 13.83-1.082.313-.448 1.688-.886 3.056-.973 1.912-.121 2.144.06 1 .783-1.239.784-1.177.943.374.956 1.647.013 1.59.24-.5 1.976l-2.361 1.96 4.5-.571c2.475-.314 6.412-.791 8.75-1.061 3.336-.385 4.25-.899 4.25-2.39 0-2.722 2.069-2.342 4.635.851l2.21 2.75 2.194-2.333c1.649-1.754 2.476-2.048 3.328-1.183.847.86.642 1.513-.808 2.583-1.822 1.345-1.731 1.439 1.5 1.533 3.237.093 3.293.151.941.97-2.143.746-1.964.832 1.25.601 2.063-.148 3.75.12 3.75.596s1.202.723 2.672.549c3.023-.358 4.826-5.816 1.921-5.816-1.659 0-3.112-1.814-2.192-2.735.331-.331 1.614-.116 2.851.476 4.069 1.951 6.223 2.57 8.107 2.331 1.117-.141 1.593.197 1.191.847-.367.594-1.793 1.081-3.168 1.081-1.412 0-2.231.435-1.882 1 1.297 2.098 8.335 1.173 8.68-1.141.518-3.467 4.055-4.08 7.324-1.271 3.069 2.637 4.063 2.922 4.986 1.428.334-.541 3.623-.885 7.309-.764 5.874.192 6.665.004 6.407-1.517-.386-2.28 1.058-2.206 3.204.165 2.641 2.919 5.844 3.474 5.017.871-.56-1.764-.325-1.978 1.618-1.47 1.428.374 3.124-.076 4.566-1.209l2.293-1.804-3.818-1.144c-2.1-.629-4.36-1.144-5.023-1.144-.663 0-1.871-.665-2.684-1.478-1.942-1.942-5.379.026-5.379 3.08 0 2.631-4.613 2.193-5.474-.52-.413-1.302-1.718-1.697-5.604-1.697-3.332 0-5.373-.494-5.964-1.443-.737-1.185-1.258-1.218-2.927-.184-1.416.878-2.031.92-2.031.139 0-.729-1.172-.9-3.362-.489-2.44.458-3.724.193-4.687-.966-1.196-1.442-1.493-1.375-3.044.681-1.367 1.813-2.008 2.038-3.136 1.102-.983-.816-1.738-.858-2.459-.137-.721.721-1.572.509-2.769-.688-1.981-1.981-7.576-2.477-8.246-.731-.599 1.56-5.286.651-7.644-1.482-2.296-2.078-32.164-2.469-39.653-.52m242.691 43.034c-1.689.437-1.788 1.962-1.5 23.134l.309 22.665 5 .258c7.824.404 12.9-2.916 13.316-8.711.29-4.041.177-4.286-1.38-2.994-1.544 1.281-1.645 1.14-1.127-1.573 2.385-12.487.727-29.201-3.193-32.186-1.58-1.203-7.822-1.527-11.425-.593m-145.487 39.318c-.662 3.86-1.251 8.247-1.307 9.75-.088 2.31-.265 2.119-1.153-1.243-1.927-7.303-5.718-7.165-5.759.21-.009 1.52-.452 3.439-.985 4.264-.755 1.169-.973.893-.985-1.25-.008-1.512-.492-2.75-1.074-2.75-.582 0-.813-.398-.512-.885.301-.487.03-2.368-.601-4.18l-1.149-3.294-1.324 4.429c-.729 2.437-1.331 6.277-1.34 8.536l-.015 4.105-15.081-.105c-13.849-.097-15.202-.269-16.57-2.106-.82-1.1-1.956-1.872-2.525-1.715-.569.157-1.622-.202-2.34-.798-.862-.715-1.517-.742-1.927-.079-.342.552-1.278.753-2.081.445-.841-.323-1.742.176-2.127 1.18-.605 1.576-1.673 1.664-11.259.93-10.198-.78-14.269-.958-33.332-1.454-8.581-.224-8.731-.27-8.163-2.533.559-2.225.33-2.317-6.606-2.641-3.952-.184-7.393.003-7.646.415-.254.412.723.75 2.169.75 1.447 0 3.306.675 4.131 1.5.825.825 1.188 1.5.806 1.5-.382 0-.134.675.551 1.5 1.076 1.296.584 1.516-3.628 1.615l-4.872.115 3.761.729c2.069.402 4.094 1.089 4.5 1.529.406.44-.78.51-2.636.156s-4.781-.676-6.5-.714c-2.652-.06-2.822-.201-1.125-.93 1.1-.473 1.438-.891.75-.93-.687-.038-1.25-.547-1.25-1.129s.451-.78 1.003-.439c.594.367.849-.323.626-1.691-.208-1.271.071-2.873.619-3.561.773-.969-.21-1.243-4.376-1.22-4.317.025-5.009.242-3.524 1.105 1.503.874 1.737 1.847 1.252 5.219-.725 5.04.006 6.333 3.903 6.906 2.588.38 2.451.465-1.003.622-3.745.17-3.876.275-2.059 1.65 1.862 1.408 1.831 1.468-.75 1.468-2.94 0-3.971 4.081-1.441 5.7.688.44 1.751 1.7 2.363 2.8.798 1.434 2.141 1.996 4.75 1.986 2-.007 3.637.33 3.637.75s-1.35.764-3 .764c-3.563 0-3.485-.379-.982 4.801 2.517 5.21 4.42 13.073 5.977 24.699 1.553 11.592 1.593 11.698 4.222 11.32 3.537-.508 4.578-6.233 4.648-25.556.034-9.48.348-19.38.696-22l.634-4.764-6.847.138c-3.767.076-5.349-.068-3.518-.319 2.374-.326 3.173-.869 2.782-1.888-.616-1.606 1.948-1.869 7.466-.765 2.77.554 3 .784 1.375 1.373-3.253 1.179 9.608 2.019 69.547 4.544 23.954 1.009 27.717 1.83 25.422 5.544-.322.52-.277 2.773.1 5.005.761 4.5-.076 4.336 11.728 2.297 3.799-.656 4.449-.081 2.818 2.495-.607.959-2.97 1.47-7.234 1.566l-6.334.143-.3 5.12c-.223 3.812-.734 5.234-2 5.567-1.557.41-1.553.458.05.564 1.35.089 1.75 1.014 1.75 4.039 0 2.657.761 4.836 2.359 6.75 1.298 1.555 3.195 4.402 4.217 6.327l1.857 3.5.533-3.5c.444-2.912.954-3.506 3.034-3.533 3.163-.043 3.966 1.11 3.985 5.724.015 3.721 1.335 5.719 2.515 3.809.351-.568 1.01-.803 1.464-.522.455.281 1.092-.181 1.416-1.027.477-1.243 1-1.318 2.73-.392 1.645.88 2.709.841 4.599-.171 2.214-1.185 2.636-1.083 4.222 1.021l1.763 2.337.653-4.762c.359-2.62.729-6.838.821-9.374.163-4.469.189-4.426.832 1.39.661 5.977.664 5.968.817-2.5.093-5.188-.189-7.961-.723-7.118-1.334 2.106-2.125-1.355-1.746-7.632l.317-5.25h-4.833c-2.657 0-4.832-.45-4.832-1s.97-1 2.155-1c2.092 0 2.102-.059.345-2-1.628-1.799-1.643-2-.155-2 .91 0 1.655.675 1.655 1.5 0 1.911.99 1.896 3.777-.057 1.5-1.05 2.228-2.595 2.238-4.75l.015-3.193 3.312 3.916c1.822 2.153 3.794 3.618 4.381 3.255.587-.363 1.325.013 1.641.835.315.822 1.31 1.494 2.21 1.494 1.322 0 1.184-.477-.719-2.483-1.295-1.365-2.917-2.49-3.605-2.5-.687-.009-1.25-.622-1.25-1.362 0-2.183-3.434-4.65-6.579-4.725-2.506-.061-2.637-.188-.921-.893 1.896-.779 1.904-.861.166-1.569-1.008-.41-1.409-1.021-.889-1.357 1.628-1.053 2.118-10.937.572-11.531-3.383-1.298-5.875 3.567-2.897 5.655.576.404-1.539.741-4.702.75-3.177.008-5.75-.432-5.75-.985 0-.55.675-1 1.5-1s1.5-.885 1.5-1.969c0-1.339.48-1.784 1.5-1.393.825.317 2.288.208 3.25-.241 1.215-.567-.083-.982-4.241-1.357-4.81-.433-6.061-.908-6.346-2.408-.221-1.16.06-1.612.741-1.191 1.177.727 1.265.512 1.521-3.691.098-1.606-.346-2.75-1.067-2.75-1.474 0-2.843-7.898-1.889-10.901.366-1.155.277-2.099-.198-2.099-.475 0-1.405 3.158-2.067 7.019M327 195.406c0 .916-.7 1.224-2.005.882-2.493-.652-5.387 1.524-4.115 3.095.498.614 1.072 2.017 1.276 3.117.204 1.1 1.04 2 1.858 2 .817 0 1.637 1.065 1.821 2.366.184 1.305 1.193 2.59 2.25 2.866 1.66.435 2.852 3.268 1.375 3.268-1.475 0-6.462-4.574-6.475-5.938-.013-1.258-.183-1.298-.875-.205-.6.946-1.067 1.021-1.544.25-1.101-1.781-2.565-1.271-1.847.643.58 1.55.457 1.588-1.079.338-1.196-.973-1.383-1.629-.603-2.111.768-.475.623-.893-.453-1.306-1.064-.409-1.637-2.014-1.744-4.89-.138-3.682-.216-3.827-.563-1.031-.222 1.787-.915 3.25-1.54 3.25-.814 0-.796.341.063 1.2 1.991 1.991 1.36 2.877-1.55 2.178l-2.75-.66 2.345 2.556c2.021 2.204 2.403 3.837 2.772 11.83.489 10.621 1.383 13.246 1.383 4.063 0-4.259.387-6.172 1.25-6.182.926-.012.9-.237-.098-.87-.742-.47-1.192-1.587-1-2.482.756-3.533 5.99 2.436 6.23 7.104.271 5.27 1.618 6.876 1.618 1.93 0-2.785.409-3.667 1.7-3.667 1.322 0 1.433-.267.5-1.2-1.451-1.451-1.6-3.165-.2-2.3 1.4.865 1.251-.849-.2-2.3-.707-.707-.778-1.2-.174-1.2 1.704 0 5.375 4.496 5.359 6.564-.012 1.491-.216 1.619-.889.558-.48-.758-1.38-1.064-2.001-.681-.62.383-.869 1.116-.552 1.628.792 1.282 4.457 1.177 4.457-.128 0-.582.45-.781 1-.441s1 .168 1-.382-.352-1.217-.781-1.483c-1.105-.683-1.436-6.635-.37-6.635 1.889 0 6.151 4.249 6.151 6.132 0 1.092-.4 1.739-.888 1.437-.488-.302-1.085.797-1.327 2.441-.506 3.449.859 4.118 1.509.74.239-1.238.488.225.555 3.25.085 3.881-.165 5.059-.849 4-.533-.825-.976-1.026-.985-.447-.009.672-3.6 1.016-9.928.952l-9.914-.101-.984 3.048c-.544 1.682-1.031 2.264-1.087 1.298-.145-2.496-1.786-2.163-3.694.75-.901 1.375-2.414 2.5-3.362 2.5-.949 0-2.238-1.125-2.864-2.5-.627-1.375-1.772-2.5-2.545-2.5-1.548 0-5.077 9.478-4.112 11.041 1.187 1.92 9.351 1.083 11.625-1.191 1.72-1.72 2.471-1.919 3.75-.994 2.941 2.126 4.115 2.376 5.553 1.183.786-.652 1.23-1.715.987-2.362-.242-.647.572-1.666 1.81-2.263 1.237-.597 4.05-2.033 6.25-3.19s5.575-2.271 7.5-2.474c3.232-.342 3.524-.653 3.81-4.06.171-2.03.789-3.69 1.373-3.69.743 0 .747-.38.011-1.266-.578-.697-1.047-3.959-1.043-7.25.009-5.829.047-5.913 1.461-3.234 1.754 3.322 2.789 3.606 1.822.5-.694-2.23-.681-2.233 1.433-.345 1.173 1.048 2.169 2.848 2.212 4 .043 1.152.307 1.53.585.839.279-.691.918-1.002 1.421-.691 1.184.731 1.163-.221-.054-2.494-1.056-1.974-10.289-8.25-11.674-7.936-.471.107-1.757-.208-2.857-.7-1.734-.776-1.535-.964 1.5-1.409 2.717-.399 3.574-1.036 3.83-2.844.275-1.944-.056-2.271-2-1.976-1.281.194-2.215.912-2.075 1.595.183.891-1.3 1.177-5.25 1.012-3.028-.127-5.505-.494-5.505-.816 0-1.333 2.549-2.985 4.606-2.985 1.714 0 2.09-.446 1.684-2-.592-2.263-3.29-2.75-3.29-.594m25.71 24.196l.585 3.602-2.97-1.536c-1.634-.845-3.551-2.236-4.261-3.091s-1.711-1.295-2.226-.977c-.565.349-.521 1.077.112 1.84 1.521 1.833 2.57 10.56 1.269 10.56-.579 0-1.279-.562-1.557-1.25-.403-1-.52-1-.583 0-.043.688-.754 1.25-1.579 1.25s-1.5.338-1.5.75c0 .865 5.723.86 6.589-.006.318-.317.578-2.597.578-5.066v-4.489l2.91 1.655c2.126 1.21 2.912 2.413 2.917 4.465.004 1.736.414 2.557 1.074 2.149.588-.363.848-1.235.578-1.937-.269-.703.015-1.782.632-2.399.829-.829.809-1.122-.078-1.122-.66 0-1.2-.9-1.2-2s.45-2 1-2 1 .627 1 1.393.675 1.652 1.5 1.969c.825.316 1.5.139 1.5-.393 0-.533.45-.969 1-.969s1 .702 1 1.559-.41 1.305-.912.995c-1.191-.736-.826 1.411.67 3.946.65 1.1 1.195 1.438 1.212.75.016-.687.818-1.264 1.78-1.28 1.667-.029 1.667-.079 0-1.05-.962-.561-1.75-1.757-1.75-2.658 0-1.316.42-1.188 2.13.648 1.686 1.809 2.309 2.005 2.985.938.575-.906.859-.281.87 1.91.014 3.022.163 3.168 2.051 2 3.702-2.287 2.145-5.669-3.536-7.682-2.75-.974-5.793-2.114-6.761-2.535-1.425-.618-1.628-.408-1.063 1.098.614 1.637.496 1.697-.978.498-.922-.75-1.443-1.74-1.159-2.2.448-.726-2.496-2.937-3.91-2.937-.277 0-.24 1.621.081 3.602m-72.838 12.526c-.07.204-.266 1.272-.435 2.372-.169 1.1-.964 4.335-1.766 7.189l-1.458 5.19 2.644.85c3.437 1.106 7.122.49 7.811-1.307.3-.782 1.313-1.422 2.251-1.422s2.703-1.35 3.923-3c1.22-1.65 1.76-3 1.201-3-.559 0-1.674-1.575-2.479-3.5-1.586-3.797-3.868-4.525-5.484-1.75-.629 1.08-1.031 1.249-1.05.441-.016-.72-.5-1.019-1.074-.664-.574.355-1.699.101-2.5-.563-.801-.665-1.513-1.041-1.584-.836m10.628 21.984c-5.5.471-11.35 1.112-13 1.425-1.65.314-3.675.575-4.5.58-3.005.02-16.086 7.216-15.569 8.565.296.771-.208 1.331-1.212 1.348-1.465.026-1.424.196.281 1.148 2.909 1.626 5.609 4.637 4.674 5.214-.443.274-4.038.286-7.99.028-3.951-.259-7.184-.081-7.184.396 0 1.77-8.111 3.314-13.727 2.612-5.351-.668-5.554-.61-5.018 1.438.432 1.653.107 2.134-1.442 2.134-1.159 0-2.22-.841-2.523-2-.288-1.1-1.172-2-1.966-2-.793 0-1.183.419-.867.931.317.512.118 1.213-.441 1.559-.559.345-1.02.264-1.025-.181-.005-.445-2.93-.892-6.5-.994-3.57-.101-6.491.211-6.491.695s-3.132.693-6.961.466c-4.151-.246-7.217.003-7.597.617-.35.567-1.659 1.419-2.908 1.894-2.571.977-4.158 6.013-1.895 6.013.748 0 1.361.401 1.361.891 0 .489 3.408.941 7.574 1.004 4.166.063 8.411.562 9.434 1.109 2.563 1.372 5.013 1.322 2.992-.061-1.333-.912-1.333-1.009 0-.866 3.453.369 4.614-.035 3.013-1.048-1.169-.739-1.009-.904.75-.772 1.265.095 2.244.837 2.252 1.706.013 1.29.159 1.31.91.124.684-1.081 4.022-1.466 14.235-1.642 7.337-.126 14.528-.54 15.981-.918 1.555-.406 2.915-.245 3.309.392.367.595 2.779 1.113 5.359 1.151 6.695.101 10.226 1.767 3.941 1.86-2.613.038-4.75.52-4.75 1.07s.445 1 .988 1c.544 0 .881.955.75 2.123-.186 1.655.628 2.428 3.696 3.511 5.355 1.89 11.334 2.55 12.086 1.334.34-.55.972-.782 1.404-.515.432.267 1.796-.59 3.031-1.905 1.811-1.928 2.95-2.293 5.895-1.886 2.764.381 3.286.245 2.15-.564-.825-.587-2.539-1.074-3.809-1.083-1.27-.008-2.043-.445-1.718-.971.325-.526 1.364-.685 2.309-.353 1.198.421 1.415.276.718-.477-.55-.594-2.8-1.223-5-1.397-2.542-.202-3.909-.773-3.75-1.567.156-.782-.895-1.25-2.809-1.25-5.579 0-2.147-1.648 3.659-1.757 3.524-.066 6.016-.609 6.533-1.425.634-.999.84-1.015.852-.068.033 2.751 6.407 1.393 9.339-1.991l2.824-3.259-.436 2.75c-.454 2.872.646 3.458 3.288 1.75 1.17-.756 1.2-.973.133-.985-.895-.01-1.176-.742-.815-2.122.303-1.159.132-3.21-.381-4.557-.684-1.8-.621-2.259.236-1.729.783.484.957.174.528-.943-.351-.915-.202-1.664.33-1.664.533 0 .969-.45.969-1s-1.425-1-3.167-1c-4.795 0-3.053-.698 3.661-1.468 7.09-.812 6.448-.352 7.188-5.158.905-5.886 1.637-6.362 8.757-5.697 3.831.357 7.008.157 8.166-.516 1.483-.861-.06-1.11-7.105-1.144-4.95-.024-9.9-.205-11-.402-1.1-.197-6.5.027-12 .497M10.5 277c-.34.55-.369 1.403-.065 1.895.305.493-.203 1.186-1.128 1.541-1.028.394-2.027.029-2.569-.939-.584-1.044-1.586-1.363-2.937-.934-1.255.398-2.384.124-2.911-.706-.571-.902-.865-.137-.875 2.286-.009 2.327.527 3.851 1.485 4.219.825.316 1.5 1.066 1.5 1.666 0 .599-.402.842-.893.538-.492-.304-1.189.623-1.549 2.059-.36 1.436-.521 2.67-.357 2.743.165.073 1.291.685 2.503 1.362 1.591.887 2.394.921 2.888.121.472-.764.93-.67 1.475.304.44.786 2.261 1.397 4.111 1.378 3.294-.033 3.323-.075 3.478-5.033.086-2.75.294-5.45.461-6 1.227-4.021-2.717-9.573-4.617-6.5m114.252 4.26c-6.045 2.93-8.749 4.781-8.75 5.99-.001.962-.564 1.637-1.252 1.5-.71-.142-1.39.971-1.574 2.575-.285 2.49-.101 2.705 1.554 1.819 2.395-1.281 3.324-.571 5.695 4.356 1.53 3.177 2 3.589 2.289 2 .972-5.346 1.412-6.5 2.476-6.5.634 0 1.966-.736 2.96-1.636 1.675-1.516 1.855-1.514 2.446.025.476 1.242.969 1.387 1.947.576.72-.598 2.13-.947 3.133-.776 2.686.458 3.298-11.004.689-12.911-2.302-1.684-1.632-1.856-11.613 2.982m30.056 47.266c-.374.374-.259 1.788.256 3.142.515 1.354.982 3.67 1.038 5.147.094 2.454.171 2.397.893-.658 1.473-6.232 4.728-6.77 5.217-.863.187 2.256.698 2.706 3.074 2.706h2.85l-.259 8.976c-.275 9.531.207 11.091 2.903 9.391 2.207-1.392 2.781-7.367.708-7.367-1.13 0-1.488-1.275-1.488-5.3 0-2.915-.511-5.811-1.136-6.436-.847-.847-.72-1.55.5-2.771.9-.9 1.636-1.823 1.636-2.051 0-1.696-14.827-5.282-16.192-3.916M21 332.052c-21.657 1.165-21 .537-21 20.073V363l4.5.125c12.946.36 14.728.316 15.155-.375.91-1.473 4.293-.716 5.312 1.189.709 1.323 2.546 2.139 5.786 2.567 12.453 1.647 15.158 2.534 16.946 5.561 1.854 3.139 5.842 3.992 8.101 1.733 1.669-1.669 1.5-3.8-.3-3.8-2.416 0-1.724-1.964 1.065-3.025 3.365-1.279 3.424-1.266 3.498.775.047 1.289.312 1.13 1.007-.605.63-1.573 1.465-2.154 2.518-1.75.867.333 1.989.605 2.494.605 1.564 0 1.009 3.85-.691 4.801-1.468.822-1.462.958.063 1.543.92.353 1.375 1.123 1.012 1.711-.44.712.772.965 3.628.757l4.289-.312 1.685-6.5c.926-3.575 2.19-7.767 2.808-9.315.618-1.548 1.124-3.911 1.124-5.25 0-2.33.28-2.435 6.5-2.435 7.427 0 8.043.956 4.432 6.879-1.133 1.859-2.214 4.559-2.402 6-.189 1.442-1.002 4.517-1.807 6.834-.805 2.317-1.222 4.455-.927 4.75.296.295 4.512.537 9.371.537H104l-.094-2.75c-.052-1.512-.614-7.475-1.25-13.25l-1.156-10.5-29.728.076c-24.586.063-29.538-.153-28.628-1.25.84-1.012.703-1.326-.581-1.326-.924 0-1.432.403-1.128.895 1.08 1.748-2.821 2.103-21.267 1.937-10.267-.093-16.868-.318-14.668-.5 8.887-.738 12.519-1.492 11.913-2.473-.862-1.394-.859-11.329.004-12.724.432-.7 3.903-1.135 9.053-1.135 8.018 0 8.451.118 10.83 2.945 2.539 3.017 3.7 3.024 3.7.02 0-1.441 1.186-1.727 7.75-1.871 4.263-.093 9.862-.343 12.444-.555l4.694-.386-.558 4.707c-.61 5.15 1.165 7.932 4.295 6.73 1.358-.521 1.55-1.603 1.085-6.111-.429-4.159-.247-5.479.755-5.479 1.729 0 2.535 2.252 2.535 7.082 0 2.155.45 3.918 1 3.918.873 0 1.374-3.437 1.349-9.25-.009-1.999 3.214-2.417 3.855-.5 1.206 3.604-.455 11.909-2.555 12.776-1.407.581 1.479.816 8.351.681l10.5-.207.304-3.65c.557-6.675-.985-10.192-4.86-11.085-4.952-1.141-53.847-1.632-70.944-.713m84.938 24.698c-.478 5.803-.642 16.147-.276 17.5.554 2.05 6.28 2.495 6.435.5.333-4.296-.472-9.477-1.683-10.829-.778-.868-1.414-3.006-1.414-4.75 0-2.752-2.849-5.004-3.062-2.421M153 371.852V376h5.45c4.091 0 5.688-.424 6.403-1.701.642-1.148 2.039-1.638 4.299-1.506 1.841.107 5.261.31 7.598.451 6.409.386 5.71-1.795-.75-2.343-1.925-.163-3.986-.649-4.58-1.08-.593-.431-4.981-1.083-9.75-1.45l-8.67-.666v4.147" fill="#d3d3d3" fill-rule="evenodd"/></svg>