<svg xmlns="http://www.w3.org/2000/svg" width="500" height="382"><path d="M150.308 37.925c-3.132 6.537-3.801 13.792-2.311 25.05l1.287 9.726-3.972 5.399c-12.303 16.726-14.788 22.029-16.352 34.9-.435 3.575-1.086 8.075-1.447 10-.589 3.141-.51 3.321.775 1.75 1.928-2.356 3.066-2.21 2.407.307-1.213 4.64 3.195-.344 10.805-12.216.55-.858 1.799-2.688 2.777-4.066 1.365-1.926 1.554-3.09.813-5.037-1.356-3.567-.424-3.949 4.057-1.663 4.406 2.248 10.275 1.424 13.599-1.908.965-.967 3.017-2.302 4.56-2.967 3.062-1.318 2.72-3.66-.39-2.673-1.466.465-1.916.122-1.916-1.46 0-1.137.436-2.067.969-2.067 1.264 0 .143-3.181-1.631-4.627-1.389-1.131 1.278-4.104 7.451-8.305 2.024-1.378 2.105-3.738.085-2.49-1.501.928-5.875-.45-5.864-1.847.005-.677 1.536-3.151 3.402-5.498 2.225-2.799 3.213-4.953 2.871-6.26-.405-1.546.179-2.238 2.598-3.081 1.715-.598 3.124-1.381 3.13-1.74.007-.359 1.856-1.536 4.109-2.616 6.097-2.922 3.185-2.964-4.84-.069-9.429 3.401-10.049 3.309-12.325-1.835-2.383-5.389-4.559-7.428-6.187-5.8-2.055 2.055-1.716 4.613.984 7.431 2.935 3.064 2.209 4.782-2.638 6.24-2.16.65-2.327.481-1.76-1.778.408-1.626.107-2.927-.864-3.733-1.726-1.433-2.202-13.55-.49-12.492.55.34 1.053 1.604 1.118 2.809.064 1.205.501-.059.969-2.809 1.603-9.401-2.073-12.311-5.779-4.575m29.692-.81c0 .487.563.893 1.25.902 1.587.022 4.699 3.391 7.706 8.344 2.212 3.642 2.569 3.832 6.277 3.335 5.168-.694 5.357-1.006 2.951-4.893-4.052-6.548-7.167-8.618-12.934-8.594-2.887.012-5.25.42-5.25.906m37.446 37.233c-3.113 3.403-4.706 8.572-4.936 16.01-.29 9.407.317 8.917-13.879 11.201-10.228 1.646-13.631 2.928-13.631 5.137 0 .881 10.323 3.971 18 5.389 8.07 1.49 15.457 3.44 17.607 4.648 1.159.651 4.084 1.385 6.5 1.63 7.435.755 11.211 1.822 9.724 2.748-.929.579-.355 1.026 1.897 1.48 3.231.651 5.512 2.447 5.148 4.054-.106.47.151 1.644.573 2.607.422.964.422 2.989 0 4.5-.422 1.512-.663 3.562-.535 4.558.128.995-.253 2.393-.845 3.107-.592.714-1.188 3.21-1.323 5.547-.244 4.22-.29 4.267-6.496 6.749-3.437 1.374-6.25 2.89-6.25 3.367 0 .478-1.35 1.567-3 2.42-1.796.929-3 2.343-3 3.526 0 1.086-.599 1.974-1.331 1.974s-1.933 1.125-2.669 2.5-1.7 2.5-2.143 2.5c-.443 0-1.494 1.332-2.336 2.959-.841 1.628-2.653 4.082-4.026 5.455-1.372 1.372-2.495 2.782-2.495 3.133s-.9 1.782-2 3.18c-1.1 1.399-2 3.321-2 4.273 0 .952-.9 2.874-2 4.273-1.1 1.398-2.001 3.146-2.003 3.885-.001.738-1.376 2.242-3.054 3.342-2.586 1.695-4.217 4.911-4.173 8.226.006.426-.953 2.115-2.13 3.753-2.713 3.778-4.141 6.206-6.006 10.216-1.818 3.909-1.749 3.867-19.634 11.916-17.11 7.701-15.981 7.29-32.5 11.823-16.428 4.507-15.908 4.52-15.126-.374.634-3.962-.833-6.634-1.988-3.623-.742 1.933-4.256 1.977-6.755.084-1.97-1.492-4.589-10.743-4.615-16.302-.023-4.81-2.171-4.924-8.726-.463-3.185 2.167-8.94 5.78-12.79 8.029-3.85 2.249-8.8 5.707-11 7.685-2.2 1.977-8.5 6.982-14 11.122s-10.795 8.178-11.767 8.973c-.972.794-4.122 3.093-7 5.109l-8.206 5.745c-1.635 1.145-3.652 2.716-4.483 3.492-.83.776-3.907 2.945-6.836 4.819-7.527 4.815-7.147 7.532 1.677 12.01 3.511 1.782 8.35 4.851 10.753 6.82 4.672 3.828 5.282 7.383 2.506 14.595-1.878 4.879.366 12.447 4.96 16.727 2.577 2.401 12.222 5.768 44.896 15.672 14.025 4.252 28.237 8.759 31.582 10.016 3.863 1.452 10.391 2.688 17.89 3.385 6.493.605 12.118 1.292 12.498 1.527.381.235 11.006.688 23.611 1.006 12.606.318 26.744 1.01 31.419 1.537 11.188 1.262 23.657 1.231 28.007-.069 1.921-.574 8.443-1.273 14.493-1.554 6.05-.281 14.825-1.131 19.5-1.89 4.675-.759 14.8-1.872 22.5-2.475 7.7-.603 17.374-1.581 21.497-2.173 17.465-2.51 39.716-2.862 60.109-.951l14.605 1.369 5.395-2.862c2.967-1.574 8.769-5.395 12.894-8.492 4.125-3.096 10.2-7.125 13.5-8.954 3.3-1.828 7.038-4.117 8.307-5.087 1.268-.97 4.643-2.523 7.5-3.451 2.856-.927 6.122-2.53 7.257-3.561 1.136-1.031 2.61-1.875 3.275-1.875.666 0 4.237-1.509 7.936-3.353 3.699-1.844 8.975-4.17 11.725-5.169 2.75-.999 5.675-2.34 6.5-2.978.825-.639 3.568-2.341 6.095-3.782 3.216-1.834 5.765-4.478 8.5-8.815 2.148-3.407 6.718-9.203 10.155-12.879 8.051-8.61 8.207-10.722 1.348-18.227-3.111-3.404-6.856-6.224-10.25-7.718-17.166-7.556-23.704-11.183-28.839-15.997-5.629-5.278-10.02-7.211-19.662-8.657-2.614-.392-8.334-2.02-12.711-3.617-5.173-1.888-8.185-2.538-8.605-1.858-.406.656-1.854.156-3.884-1.342-2.98-2.198-3.955-2.354-12.267-1.955-4.966.238-12.258-.005-16.204-.54-3.947-.535-9.256-.728-11.797-.428l-4.622.546-1.105 6.135c-2.18 12.101-6.141 25.107-8.159 26.791-2.587 2.16-5.714 1.283-7.458-2.089-.762-1.473-2.553-3.211-3.98-3.861-2.398-1.093-4.555-4.665-4.555-7.544 0-.664 2.066-3.447 4.59-6.185 5.728-6.212 7.279-9.168 9.434-17.978 2.231-9.12 1.744-22.99-1.094-31.139-1.123-3.224-2.283-6.761-2.579-7.861-.296-1.1-1.814-5.15-3.373-9-1.559-3.85-3.379-9.15-4.045-11.778-.845-3.342-2.795-6.557-6.485-10.692-2.902-3.252-5.539-6.727-5.861-7.721-.321-.995-2.26-2.934-4.309-4.309-2.049-1.375-5.087-4.04-6.752-5.921-5.135-5.806-24.137-20.484-32.797-25.334-4.526-2.535-10.254-6.415-12.729-8.623-4.016-3.582-9.182-6.562-18.5-10.672-1.65-.727-6.15-2.744-10-4.481C234.512 78.914 225.497 76 221.943 76c-1.578 0-2.937-.611-3.12-1.402-.241-1.046-.59-1.11-1.377-.25m31.952 124.571c-9.956 4.836-18.427 9.319-18.825 9.963-.546.883 2.305 1.012 11.602.524 6.779-.355 13.225-.574 14.325-.485 9.099.733 10.43.147 8.02-3.531-2.082-3.177-.907-8.825 2.471-11.882 2.02-1.828 2.654-3.562 1.259-3.445-.413.035-8.896 4.02-18.852 8.856" fill="#d3d3d3" fill-rule="evenodd"/></svg>