<svg xmlns="http://www.w3.org/2000/svg" width="500" height="804"><path d="M.249 400.25L.5 800.5l16 1.362c25.384 2.161 449.731 2.764 451.853.642 1.642-1.642 3.098-2.043 2.212-.609-.633 1.024 1.688 2.105 4.517 2.105 1.055 0 1.918-.675 1.918-1.5 0-.859.901-1.5 2.107-1.5 1.462 0 1.931.459 1.531 1.5-.316.825-.139 1.5.393 1.5.533 0 .983-.788.999-1.75.029-1.667.079-1.667 1.05 0 .833 1.431 2.447 1.75 8.839 1.75h7.819l.62-3.75c.341-2.062.519-183.075.395-402.25-.123-219.175-.345-384.1-.492-366.5-.147 17.6-.378 149.9-.514 294-.157 167.015-.595 261.883-1.208 261.676-.962-.324-2.337 2.223-2.469 4.574-.114 2.034 1.538 1.427 2.721-1 .829-1.7 1.098 3.498 1.101 21.25.004 23.851-.343 28.457-2.066 27.392-.528-.326-1.207.348-1.507 1.498-.566 2.163-2.187 2.156-8.134-.036-3.271-1.206-3.486-1.112-2.866 1.258.488 1.866.222 2.046-2.279 1.546-2.215-.443-2.938-.156-3.324 1.322-.323 1.233-1.777 2.128-4.191 2.581-3.543.665-10.169 5.439-7.549 5.439 1.004 0 1.014.308.047 1.472-1.391 1.676-4.709-.554-3.568-2.398.32-.518-1.104-2.579-3.163-4.579-2.06-2-3.889-3.203-4.066-2.672-.838 2.512-4.118-.226-4.75-3.964-.537-3.18-.931-3.727-2.027-2.816-1.418 1.176-3.449.527-3.449-1.102 0-.518.9-.941 2-.941 3.367 0 1.535-5.176-2.033-5.744-1.656-.264-4.654 7.824-3.558 9.598 1.507 2.438-.497 3.861-4.424 3.143-2.152-.393-4.041-.362-4.199.07-.157.432-1.529 1.093-3.047 1.47-2.395.594-2.674.438-2.103-1.176.539-1.524.414-1.635-.689-.611-1.702 1.579-4.657 1.62-5.174.07-.388-1.164-2.677-1.531-12.074-1.935-3.569-.153-5.063-.697-5.825-2.121-.991-1.851-1.101-1.837-3.267.41-1.232 1.279-2.029 2.733-1.77 3.231.26.497-.02.6-.621.228-.601-.371-1.557.122-2.124 1.096-.883 1.516-1.036 1.359-1.062-1.087-.026-2.526-.314-2.788-2.469-2.247-1.341.337-2.698.192-3.016-.321-1.01-1.636-9.962.254-12.774 2.696-1.544 1.342-1.796 1.327-2.357-.134-1.024-2.667.202-4.309 3.75-5.024 2.323-.468 2.931-.924 2.002-1.503-1.081-.673-1.046-.941.185-1.413 2.735-1.05 3.819-4.313 1.941-5.841-1.435-1.167-1.584-1.134-1.072.236.831 2.223-.914 4.883-2.05 3.125-.482-.745-1.573-.999-2.601-.604-1.057.406-2.164.117-2.746-.716-.745-1.067-1.094-1.103-1.479-.155-.383.941-.865.881-1.996-.25-2.195-2.195-3.353-1.821-3.119 1.009.115 1.382.835 2.5 1.612 2.5 1.095 0 1.146.31.233 1.411-.814.981-.847 1.611-.106 2.069.585.362.77 1.135.41 1.718-.417.673-.978.481-1.543-.528-.548-.98-1.547-1.34-2.611-.941-1.507.564-1.551.433-.352-1.042 1.177-1.446 1.153-1.687-.166-1.687-.847 0-1.766.562-2.044 1.25-.277.688-.54.385-.583-.671-.043-1.057.666-2.744 1.576-3.75 1.02-1.127 1.204-1.829.481-1.829-.734 0-.952-.883-.583-2.356.874-3.48-2.229-6.47-4.082-3.935-1.212 1.657-1.358 1.59-1.984-.903-.489-1.952-1.405-2.776-3.331-2.999-1.863-.215-3.104-1.271-4.156-3.535-.825-1.776-2.062-3.238-2.75-3.25-.687-.012-1.25-.472-1.25-1.022s-.512-1-1.137-1c-1.333 0-.608 12.861.782 13.876.47.343 1.009 1.749 1.198 3.124.189 1.375.976 3.21 1.75 4.079 1.713 1.922 1.799 3.561.237 4.526-.781.483-.962.183-.545-.904.401-1.046-.253-2.318-1.831-3.558-1.349-1.062-2.461-2.541-2.469-3.287-.012-1.031-.202-1.062-.794-.13-.962 1.514-7.186 1.203-7.189-.359-.003-1.573 4.635-2.312 6.076-.968.898.838 1.011.386.472-1.889-.39-1.644-1.01-3.219-1.379-3.5-.369-.28-.693-.96-.72-1.51-.316-6.375-5.392-23.041-7.462-24.5-1.23-.867-4.077-6.999-3.265-7.03.427-.017-.012-.489-.974-1.05-3.506-2.042-.651-8.92 3.702-8.92.787 0 1.708-.45 2.048-1 .34-.55.141-1-.441-1s-1.059-.675-1.059-1.5.45-1.5 1-1.5 1 .436 1 .969c0 .532.647.72 1.437.417a1.534 1.534 0 0 0 .893-1.969c-.336-.875.096-1.417 1.13-1.417 1.22 0 1.502.544 1.04 2-.633 1.996.871 2.826 1.952 1.077.817-1.321 2.61-10.869 2.926-15.577.148-2.2 1.342-6.328 2.654-9.173l2.386-5.174 1.527 3.174c.84 1.745 2.603 4.178 3.918 5.406 2.062 1.925 2.168 2.318.764 2.857-.895.343-1.627 1.012-1.627 1.486 0 .473.675.602 1.5.286.825-.317 1.5-.051 1.5.59s.432.899.961.572c.528-.326 2.627.978 4.663 2.899 2.037 1.921 4.093 3.252 4.57 2.957.856-.529-1.087-3.071-6.444-8.431-1.513-1.513-2.75-3.022-2.75-3.353 0-.331-1.291-2.675-2.868-5.21-2.681-4.307-2.774-4.796-1.427-7.497.793-1.589 1.746-2.882 2.118-2.874 1.556.036 2.911 1.655 3.542 4.235.395 1.615 1.353 2.75 2.321 2.75.906 0 1.354.293.996.652-.706.705 3.805 3.348 5.714 3.348.642 0 1.261-1.125 1.375-2.5.119-1.442-.322-2.5-1.042-2.5-1.849 0-3.966-3.735-2.597-4.582.601-.371 1.441-.109 1.868.582.999 1.616 3.01.391 2.968-1.809-.017-.93-.637-2.489-1.377-3.464-1.263-1.665-1.39-1.635-2.074.5-.615 1.916-.802 1.998-1.196.523-.505-1.889-2.321-2.43-2.321-.691 0 .582-.52.738-1.155.346-.715-.443-.883-.275-.44.44.451.73-.044 1.155-1.346 1.155-1.412 0-2.059-.647-2.059-2.059 0-1.305-.424-1.797-1.158-1.344-.774.479-.99.075-.651-1.22.279-1.065-.1-2.503-.842-3.196-.742-.693-1.356-2.255-1.364-3.47-.021-2.928-1.925-5.736-2.658-3.919-.4.989-.849 1.02-1.919.132-.769-.638-2.318-.919-3.444-.625-1.659.434-1.931.172-1.438-1.382.341-1.072.138-1.917-.459-1.917-.587 0-1.067-.9-1.067-2s-.394-2-.875-2c-1.39 0-.402-18.959 1.082-20.761 1.136-1.38.959-1.488-1.457-.886-3.486.868-3.537-.589-.115-3.28 1.92-1.511 2.191-2.073 1-2.073-2.605 0-1.898-1.812 1.365-3.5 1.65-.853 3.014-2.327 3.032-3.276.038-2.052 2.277-5.224 3.688-5.224 1.051 0 .889 7.206-.202 8.971-.35.566-.159 1.029.423 1.029s1.059.635 1.059 1.412c0 .805.752 1.267 1.75 1.076.962-.184 2.15-.369 2.639-.411 1.045-.09.027-10.157-1.113-11.002-.931-.69-.875-.334-1.809-11.575-.411-4.95-.664-10.727-.562-12.837.103-2.111-.185-3.608-.639-3.328-.453.281-.913 2.907-1.021 5.838-.405 10.941-1.289 15.035-2.951 13.656-1.485-1.233-1.394-5.075.281-11.829.721-2.905 1.136-10.911 1.789-34.5.259-9.35.788-20.6 1.175-25 .387-4.4.718-8.675.734-9.5.016-.825.524-1.857 1.128-2.293.627-.453.025-.668-1.401-.5-2.373.278-2.484.572-2.181 5.793.36 6.22-1.588 17-3.072 17-.539 0-.745-.9-.458-1.999.288-1.099.094-2.265-.431-2.589-.579-.358-.486-1.156.236-2.026.798-.96 1.006-3.661.629-8.161-.376-4.5-.064-8.545.943-12.225 2.8-10.23 3.088-11.834 2.594-14.42-.271-1.419-.891-2.58-1.377-2.58-.485 0-.883-.702-.883-1.559s-.45-1.281-1-.941c-.55.34-1 .141-1-.441s.88-1.059 1.956-1.059c1.814 0 1.865-.271.711-3.75-.706-2.13-1.011-5.91-.705-8.75.296-2.75.538-8.262.538-12.249 0-4.156.427-7.257 1-7.266.667-.01.667-.261 0-.75-1.07-.786-1.141-1.336-1.816-13.986-.262-4.909-.996-8.924-1.812-9.912-.973-1.179-1.039-1.774-.228-2.048 1.29-.434.607-4.289-.761-4.289-.485 0-.883-.765-.883-1.7 0-1.322-.267-1.433-1.2-.5-.66.66-1.673 1.184-2.25 1.164-.578-.02.246-1.096 1.83-2.391 2.773-2.268 2.802-2.38.786-3.02-2.141-.68-2.184-1.421-.548-9.436.862-4.219-2.556-11.94-5.018-11.337-1.214.298-1.748.137-1.267-.382.459-.494 1.321-.898 1.917-.898.596 0 1.29-.619 1.542-1.375.276-.83-.083-1.195-.909-.919-.752.25-1.848-.481-2.434-1.625-.797-1.553-1.877-2.017-4.258-1.827-3.045.242-3.649-.376-3.296-3.371.072-.614-.55-1.681-1.382-2.372-1.039-.863-1.513-.905-1.513-.133 0 .617-.45 1.122-1 1.122s-1-.675-1-1.5c0-2.116-1.983-1.878-2.079.25-.051 1.13-.264 1.289-.601.447-.391-.975-.866-.849-1.889.5-1.249 1.646-1.37 1.655-1.399.103-.018-.935.563-2.06 1.29-2.5.878-.531 1.079-1.64.6-3.3-.463-1.602-.758-1.871-.822-.75-.055.963-.498 1.75-.983 1.75-.486 0-1.119.9-1.407 2-.378 1.446-1.364 2-3.557 2-3.428 0-4.844 1.462-3.263 3.368.756.91.724 1.618-.11 2.452-.897.897-.715 1.519.774 2.644 1.891 1.43 1.879 1.473-.421 1.504-1.836.025-2.254.463-1.863 1.955.276 1.057-.29 3.226-1.259 4.818-.969 1.593-2.096 3.991-2.504 5.328-.409 1.337-1.329 3.106-2.045 3.931-1.093 1.259-.756 2.302 2.103 6.5 3.758 5.52 4.26 7.969 1.822 8.905-1.327.509-1.387.89-.341 2.15 1.581 1.906 2.385 15.061.973 15.933-.56.347-.967 1.841-.903 3.321.073 1.693.286 2.042.573.941.712-2.723 2.092-2.058 1.556.75-.263 1.375-.853 2.5-1.311 2.5-.457 0-.152 1.628.68 3.619 1.392 3.332 1.369 3.787-.301 5.75-2.715 3.191-4.105 6.008-4.816 9.758-.838 4.422-2.529 6.599-5.458 7.026-1.31.191-2.588.972-2.84 1.736-.278.843-.014 1.115.671.691.645-.398 1.13-.064 1.13.778 0 .811-.562 1.702-1.25 1.98-.747.301-.545.536.5.583 1.751.079 2.616 4.079.882 4.079-.825 0-1.376 2.41-2.632 11.5-1.221 8.84-1.611 10.37-2.743 10.748-.841.28-1.101 3.974-.907 12.906.238 10.976.073 12.513-1.348 12.513-.962 0-1.84-1.105-2.163-2.724-.3-1.497-1.846-4.148-3.437-5.889-4.084-4.471-5.216-6.91-5.595-12.054-.508-6.884-.524-6.934-2.385-7.525-1.481-.47-1.749-1.87-1.77-9.264-.014-4.791-.219-9.963-.455-11.494-.439-2.848-1.697-4.985-1.697-2.884 0 .642-.45 1.167-1 1.167s-1-.648-1-1.441c0-3.743-4.571-2.375-5.19 1.553-.17 1.082-.647 1.949-1.06 1.928-.413-.022-.637-.301-.5-.621s-.845-1.167-2.184-1.884c-2.891-1.547-8.588.704-9.405 3.715-.506 1.868-2.661 2.448-2.661.717 0-1.659-6.944 5.755-8.005 8.546-.531 1.397-1.985 2.973-3.23 3.502-1.679.712-1.035.805 2.485.359 3.183-.403 4.75-.234 4.75.512 0 .613-1.579 1.114-3.509 1.114h-3.509l2.259 3.486 2.259 3.486 1.149-2.728 1.149-2.727.351 2.491c.232 1.644.947 2.445 2.101 2.353.982-.078 1.75.55 1.75 1.429 0 1.786 6.317 7.938 7.683 7.482 1.323-.441 7.317 4.791 7.317 6.387 0 .752.499 2.167 1.109 3.144 1.38 2.21-1.196 10.683-3.261 10.723-.741.015-1.97.416-2.73.891-.918.574-1.693.306-2.311-.798-.512-.913-1.352-1.4-1.868-1.081-.517.319-.939-.053-.939-.826 0-.773-.9-2.444-2-3.712-1.1-1.268-2.056-2.912-2.125-3.653-.069-.741-.181-2.209-.25-3.264-.221-3.384-1.431-3.357-3.233.074l-1.756 3.343-.719-2.5c-.394-1.375-.762-2.01-.817-1.411-.159 1.735-4.87 3.568-5.419 2.109-.305-.809-.903-.612-1.844.608-1.219 1.582-1.709 1.642-3.942.483-1.403-.727-2.365-1.878-2.139-2.556.652-1.956-.997-1.374-4.415 1.558-2.015 1.727-3.411 4.055-3.855 6.423-.382 2.043-1.294 4.212-2.026 4.819-.732.608-1.621 2.424-1.975 4.036-.354 1.612-.987 2.931-1.406 2.931-1.161 0-5.621 8.825-7.58 15-.96 3.025-2.14 5.928-2.622 6.45-.482.523-.877 1.574-.877 2.336 0 .762-1.324 2.809-2.942 4.55C198.15 451.69 194 456.763 194 457.632c0 .967-5.165 7.139-11.5 13.741-2.2 2.293-4.788 5.659-5.751 7.481-1.592 3.011-4.598 3.967-3.999 1.271.137-.619-.144-1.125-.625-1.125s-1.159 1.422-1.507 3.16c-.648 3.24-1.57 3.371-2.023.287-.171-1.169-1.372-1.858-3.675-2.109-1.881-.205-3.571-.817-3.755-1.361-.185-.544-.86-.69-1.5-.323-.641.367-.847.314-.458-.117.687-.763-5.46-5.537-7.129-5.537-.458 0-1.393-.675-2.078-1.5-1.773-2.136-3-1.855-3 .687 0 2.097-.124 2.068-3-.687-1.65-1.581-3-3.663-3-4.628 0-2.445-1.653-3.218-2.449-1.144-.564 1.468-.79 1.504-1.568.244-.613-.991-.472-1.635.429-1.972 1.019-.381 1.094-1.097.312-3-1.229-2.995-1.374-3.67-1.572-7.309-.086-1.589-.586-2.541-1.152-2.191-.55.34-1-.084-1-.941s.45-1.559 1-1.559.948-1.238.884-2.75c-.072-1.715-.289-2.087-.576-.988-.634 2.431-2.308 1.152-2.308-1.762 0-2.676 1.559-4.182 2.336-2.256.278.691.542.247.585-.986.043-1.232-.775-2.774-1.819-3.426-1.798-1.123-1.314-4.794.901-6.832.299-.275 1.329-1.735 2.289-3.244.96-1.509 2.076-2.634 2.479-2.5.403.134 2.161-1.25 3.907-3.077 1.746-1.826 3.424-3.308 3.73-3.293 2.221.109 7.401-3.247 8.863-5.742.973-1.662 2.692-3.315 3.819-3.672 1.126-.358 2.844-1.96 3.818-3.56.973-1.601 3.529-4.813 5.681-7.138 2.151-2.325 3.798-4.35 3.661-4.501-.137-.15-.243-.61-.235-1.023.009-.413.428-.098.932.698.733 1.159 1.16.91 2.145-1.25.676-1.484 1.633-2.698 2.128-2.698.494 0 .654-.396.355-.879-.299-.484.5-1.946 1.776-3.25s2.954-3.833 3.729-5.621c.889-2.051 2.117-3.25 3.331-3.25 1.057 0 1.638-.284 1.291-.631-.347-.348-.182-1.473.368-2.5.678-1.266.666-1.869-.035-1.869-.569 0-1.035.535-1.035 1.189 0 1.465-3.348-2.027-4.278-4.462-.927-2.427-3.429-3.215-5.294-1.667-2.134 1.771-6.428 2.119-6.428.521 0-2.843 2.286-7.581 3.657-7.581.803 0 1.178-.457.833-1.016-.346-.559-1.095-.728-1.666-.375-1.231.76-.118-3.435 1.421-5.359.675-.843.654-1.25-.064-1.25-.584 0-1.346.457-1.691 1.016-.346.559-1.047.758-1.559.441-.512-.316-.931.084-.931.89 0 .999-.716 1.309-2.25.973-1.28-.281-1.819-.133-1.25.343 1.173.982 1.744 6.337.675 6.337-.401 0-1.73-.701-2.952-1.557-1.246-.872-2.223-1.092-2.223-.5 0 .581-.498 1.057-1.107 1.057s-.853-.661-.544-1.468c.31-.807.162-1.716-.329-2.02-1.081-.668-.916-4.512.193-4.512.433 0 .78-1.012.772-2.25-.009-1.269-.336-1.782-.75-1.177-1.033 1.508-4.235 2.564-4.235 1.396 0-.533.563-.976 1.25-.984.84-.011.898-.256.177-.75-1.885-1.291-2.782-4.608-2.499-9.235l.275-4.5-2.416 2.25c-1.329 1.238-2.914 2.25-3.522 2.25-2.055 0-2.74 9.805-.893 12.793.288.466-.346 2.279-1.409 4.028-1.064 1.748-1.501 3.179-.973 3.179.578 0 .626.895.12 2.25-.691 1.851-.759 4.807-.178 7.75.054.275.491-.12.972-.878 1.054-1.665 3.439-.459 2.733 1.381-.275.716-.206 1.595.152 1.953.358.358.522 2.157.363 3.997-.158 1.84.241 3.672.887 4.071.754.466.814.95.168 1.351-.554.344-1.165 1.525-1.357 2.625-.424 2.421-2.071 4.459-3.1 3.836-.412-.25-.75-.004-.75.546s.45 1.278 1 1.618c1.396.863 1.253 2.553-.191 2.25-.654-.138-1.362.538-1.573 1.5-.21.962.1 1.75.691 1.75.59 0 1.073-.436 1.073-.969 0-.532.68-.707 1.511-.388 1.124.431 1.337.124.83-1.196-.435-1.135-.297-1.538.384-1.117 1.2.742 2.586-2.017 1.719-3.42-.309-.501-.116-.91.43-.91 2.05 0 2.145 3.905.18 7.404-1.111 1.978-1.629 3.596-1.152 3.596.477 0 .834 1.774.794 3.943-.042 2.265-.484 3.688-1.039 3.345-.531-.328-.664-.108-.294.491.375.606-.664 1.876-2.345 2.87-1.66.98-3.018 2.135-3.018 2.567 0 .431-.69.784-1.532.784-.843 0-1.855.787-2.25 1.75-.395.962-1.393 1.75-2.218 1.75-.896 0-1.376.731-1.191 1.817.257 1.508-.018 1.641-1.618.785-2.293-1.227-3.273-.535-2.475 1.746.388 1.106-.174.876-1.699-.696-1.801-1.857-2.457-2.066-3.132-1-.637 1.005-.858.835-.87-.667-.013-1.732-.753-2.049-5.265-2.254-2.888-.131-5.401-.689-5.585-1.241-.185-.551-.763-.739-1.284-.416-.542.334-.755-.487-.496-1.914.367-2.022-.297-3.02-3.472-5.22-2.785-1.93-3.64-3.064-2.943-3.904 1.628-1.962.99-8.458-.765-7.784-.966.37-1.317.078-1.013-.843.256-.775 1.442-1.553 2.636-1.729 1.195-.175 2.172-.902 2.172-1.615 0-2.254 3.984-6.509 5.537-5.913.805.309 1.463.016 1.463-.652s.674-.955 1.5-.638c.945.362 1.5-.012 1.5-1.01 0-1.226-.623-1.432-2.75-.91-2.543.624-7.009.921-10 .665-.687-.059-1.137-.669-1-1.357.17-.849-1.286-1.286-4.535-1.363-4.212-.099-5.071.253-7.177 2.944-3.602 4.603-7.298 2.712-7.731-3.956-.169-2.595-.812-4.885-1.43-5.088-1.668-.548-2.43 3.652-1.064 5.859.954 1.539.892 2.099-.313 2.854-1.24.776-1.282 1.29-.242 2.969 1.054 1.7 1.013 2.031-.25 2.031-.829 0-1.508-.45-1.508-1s-.666-1-1.481-1c-1.553 0-3.238 4.615-2.099 5.753.362.363.905-.281 1.206-1.43.57-2.182 4.518-2.202 4.088-.021-.122.619 1.386 1.111 3.5 1.143 2.141.032 4.456.796 5.464 1.805.963.963 1.246 1.75.63 1.75-.628 0-.891.879-.598 2 .364 1.391.031 2-1.093 2-.89 0-1.617.702-1.617 1.559s.45 1.281 1 .941c.55-.34 1-.141 1 .441 0 1.624-2.81 1.257-3.177-.415-.202-.92-.802-1.173-1.599-.674-.963.603-.656 1.468 1.25 3.525 2.872 3.099 3.02 3.729 1.284 5.465-1.781 1.781.654 3.075 4.626 2.456 3.779-.589 4.475-1.149 2.753-2.213-1.023-.633-.955-.941.317-1.429 1.026-.394 1.856.014 2.261 1.111.351.953 1.122 2.058 1.712 2.455 1.491 1.002-.578 4.169-3.034 4.644-1.041.201-2.224.876-2.628 1.5-.487.752-.74.617-.75-.402-.008-.844-.802-1.567-1.765-1.605-.963-.039-2.479-.386-3.371-.772-.973-.421-2.283-.04-3.276.953-.91.91-2.318 1.4-3.129 1.089-.811-.312-1.474-.13-1.474.402 0 .533.9.969 2 .969 1.333 0 2 .667 2 2 0 1.1.418 2 .929 2 2.637 0 4.181 3.183 2.666 5.496-1.533 2.339-1.778 6.504-.382 6.504.433 0 .787.45.787 1s-.675 1-1.5 1c-2.336 0-1.772 2.367 1.25 5.245 3.026 2.881 7.181 1.839 5.193-1.303-.63-.996-.917-1.056-.928-.192-.024 2.006-1.732 1.439-2.309-.768-.291-1.109.129-2.674.932-3.477.803-.803 1.358-2.033 1.232-2.733-.294-1.646 3.24-8.772 4.35-8.772.468 0 .369.9-.22 2-.652 1.218-.692 2-.103 2 .533 0 1.254-.9 1.603-2 .75-2.364 1.81-2.537 3.447-.564.868 1.046.901 1.98.122 3.434-1.448 2.707-1.358 3.125.681 3.16 1.551.027 1.57.136.163.959-1.944 1.137-2 16.149-.063 16.794.696.232.909-.246.539-1.212-.72-1.875 1.229-4.571 3.305-4.571 1.957 0 4.063-2.228 3.553-3.759-.689-2.067 3.631-1.409 4.985.759.687 1.1 1.816 2 2.509 2 .692 0 1.259.825 1.259 1.833 0 2.493 1.058 3.363 2.568 2.111 1.844-1.531.882 6.72-1.145 9.813-2.01 3.069-2.674 2.378-2.604-2.709.04-2.879-.359-4.048-1.382-4.048-.79 0-1.437.717-1.437 1.592 0 .876-.901 2.738-2.002 4.138-2.388 3.036-5.042 11.445-4.5 14.259.239 1.239-.355 2.399-1.556 3.042-1.245.666-1.942 2.092-1.942 3.973 0 1.924-.43 2.776-1.25 2.475-1.883-.69-3.572.769-4.1 3.542-.988 5.195-1.737 6.242-3.117 4.356-1.845-2.524-3.314-.894-2.866 3.177.255 2.31.027 3.375-.635 2.966-.567-.351-1.039-1.399-1.047-2.329-.014-1.462-.152-1.488-1.022-.191-.754 1.124-.885.775-.525-1.393.265-1.591 1.316-3.841 2.337-5 2.634-2.991 5.225-7.326 5.225-8.743 0-.664.745-2.029 1.655-3.035.91-1.006 1.177-1.829.594-1.829-1.561 0-.295-4.144 2.06-6.746 1.118-1.235 1.692-2.585 1.276-3-.417-.415-1.618.308-2.671 1.607-1.694 2.089-1.918 2.147-1.946.5-.03-1.785-.091-1.783-1.489.066-1.856 2.453-2.789 1.586-1.639-1.523.659-1.782.475-2.69-.729-3.587-1.314-.978-1.386-1.534-.392-3.008 3.752-5.565 6.532-14.335 4.531-14.294-2.637.054-8.25 10.568-8.25 15.454 0 1.327-.468 2.702-1.041 3.056-.572.354-.767 1.505-.432 2.559.358 1.13.136 1.916-.543 1.916-.633 0-.949.562-.702 1.25.617 1.722-1.165 4.94-2.336 4.217-.524-.324-.678-1.687-.341-3.028.389-1.553.183-2.439-.568-2.439-.74 0-.594-.585.392-1.571 1.593-1.594 1.806-2.555 1.758-7.929-.065-7.161-1.248-9.316-4.134-7.532-.938.579-.967.967-.111 1.496 1.432.885-.466 3.536-2.533 3.536-.836 0-1.108.621-.718 1.636 1.109 2.89-2.078.948-3.611-2.2-.992-2.037-1.568-2.473-1.911-1.444-1.227 3.681-2.712 3.777-6.138.397-2.55-2.516-3.956-3.195-5.707-2.755-2.071.519-2.324.233-2.324-2.633 0-2.507.345-3.083 1.565-2.614 1.135.435 1.434.12 1.088-1.143-.263-.959-.76-3.416-1.105-5.461-.45-2.671-1.443-4.199-3.533-5.433-2.846-1.682-3.173-4.008-.414-2.95.77.296 1.399.101 1.399-.431 0-.533-.603-.969-1.339-.969-2.008 0-3.793-4.782-3.121-8.362.366-1.95.01-4.277-.933-6.094-1.204-2.322-1.271-3.251-.316-4.429 1.001-1.233.908-1.377-.541-.834-1.17.439-1.75.169-1.75-.812 0-.808.54-1.469 1.2-1.469.933 0 .933-.267 0-1.2-.66-.66-1.2-2.655-1.2-4.433 0-2.26-.553-3.408-1.84-3.816-3.429-1.088-6.063-11.848-4.174-17.051.399-1.1.296-3.238-.228-4.75-.623-1.795-.593-3.784.084-5.728 1.157-3.318-.15-5.081-1.706-2.301-1.611 2.879-2.507.358-3.053-8.588-.049-.803-.817-1.174-1.863-.901-2.217.58-3.952-1.205-4.757-4.896-.897-4.114-2.629-7.336-3.944-7.336-1.814 0-5.611-5.794-6.208-9.471-.37-2.281-1.229-3.563-2.678-4.001-2.099-.634-2.101-.658-.133-1.516 1.1-.479 1.521-.903.937-.942-.585-.038-1.682-1.646-2.438-3.572-.755-1.926-2.414-4.479-3.686-5.674-1.272-1.195-2.313-2.873-2.313-3.729 0-4.266-6.26-16.168-7.731-14.697-.35.349-.103 1.168.548 1.819s1.147 2.105 1.104 3.233c-.056 1.461-.243 1.619-.65.55-.314-.825-.85-1.725-1.191-2-.342-.275-1.189-1.791-1.883-3.37-1.097-2.491-1.061-2.792.27-2.281 1.836.704 1.977-.665.339-3.288-.918-1.469-.923-2.51-.022-4.487.771-1.691.817-2.574.136-2.574-.571 0-.755-.457-.41-1.016.346-.559 1.016-.777 1.49-.484.474.293 1.144.075 1.49-.484 1.008-1.631 2.234-1.178 2.815 1.041.508 1.942.648 1.964 2.492.384 1.155-.988 1.753-2.444 1.462-3.557-.337-1.292.034-1.884 1.183-1.884.922 0 1.398-.45 1.058-1-.34-.55-.156-1 .41-1 .565 0 .768-.675.452-1.5-.659-1.716.451-1.92 2.638-.485 1.333.876 1.333 1.094 0 1.97-1.232.808-1.119.987.628 1 2.956.021 4.101 1.891 3.776 6.165-.225 2.96.107 3.75 1.76 4.183 1.34.35 1.768.969 1.249 1.807-2.182 3.532-1.281 10.429.963 7.361 1.974-2.7 3.544-1.078 2.677 2.765-.407 1.803-.392 4.168.034 5.256.766 1.962.774 1.962 1-.022.126-1.1.193-2.65.149-3.444-.043-.793.504-2.274 1.216-3.29 1.244-1.777 1.314-1.77 1.827.193.294 1.123.099 2.041-.432 2.041s-.657.498-.281 1.107c.489.791.898.76 1.434-.107.536-.867.945-.898 1.434-.107.376.609.095 1.114-.625 1.122-.964.012-.921.261.165.948.971.614 1.732.524 2.234-.266.479-.753.767-.362.777 1.053.009 1.34-.592 2.25-1.485 2.25-1.996 0-1.963 4.371.046 6.038.85.705 1.314 1.885 1.031 2.622-.283.737.034 1.354.704 1.37.671.017.439.485-.514 1.041-1.429.832-1.523 1.347-.535 2.929 1.109 1.775 1.334 1.798 2.984.305 1.668-1.51 1.784-1.448 1.784.957 0 1.414-.563 2.798-1.25 3.076-.85.343-.767.529.259.583.831.043 2.072-.821 2.759-1.921 1-1.602.999-2.001-.01-2.006-.692-.004.031-.679 1.606-1.5 3.843-2.004 3.896-1.974 3.11 1.756-.542 2.571-.425 3.002.556 2.064 1.94-1.853 4.077.891 3.392 4.356-.453 2.293-.119 3.02 1.759 3.83 1.483.639 2.435 2.015 2.641 3.812.265 2.31.578 2.601 1.75 1.628.953-.791 1.428-.827 1.428-.108 0 .592 1.125 2.202 2.5 3.577s2.448 3.533 2.384 4.796c-.09 1.78-.221 1.89-.584.49-.82-3.164-2.789-1.19-3.107 3.116-.31 4.211-3.37 7.816-5.51 6.493-.598-.37-.671-.093-.183.696.535.866.418 1.068-.345.595-1.62-1-1.44.263.281 1.984.917.917 1.665 1.066 2.069.412.348-.563 1.052-.765 1.564-.448.512.316.931.068.931-.551 0-.684.813-.869 2.07-.47 1.568.498 2.203.15 2.617-1.432.3-1.15 1.224-2.09 2.052-2.09 1.258 0 1.29.26.198 1.576-.919 1.107-.983 1.778-.216 2.252.601.371 1.544 2.249 2.096 4.174.88 3.072 1.028 3.193 1.211.998.115-1.375.156-2.837.09-3.25-.181-1.148 1.339-.893 2.682.45.933.933 1.2.846 1.2-.393 0-.876-.775-1.89-1.722-2.254-1.357-.52-1.44-.835-.393-1.482.93-.575.996-1.026.222-1.505-.609-.376-1.179-2.345-1.267-4.375l-.16-3.691-.408 3.311c-.243 1.971-.886 3.152-1.59 2.918-1.475-.489-2.767-8.888-1.566-10.179.486-.523.884-1.93.884-3.128 0-1.197.675-2.737 1.5-3.422s1.5-1.955 1.5-2.822c0-1.132-.306-1.272-1.082-.496-1.474 1.474-7.145-.647-6.466-2.418.271-.705-.395-1.836-1.48-2.514-1.085-.677-1.94-2.135-1.902-3.241.07-2.005.072-2.005.93-.009.793 1.845.871 1.806 1.01-.5.612-10.131.348-20.979-.51-20.946-.55.021-.855 1.142-.678 2.492.176 1.35-.13 2.454-.682 2.454s-.867 1.238-.701 2.75c.166 1.512-.202 3.122-.818 3.576-.825.608-.819.951.023 1.298.629.26.915 1.345.636 2.413-1.246 4.763-2.28-.099-2.28-10.718 0-10.166-.181-11.413-1.5-10.319-1.618 1.343-1.611 1.361-1.928-4.33-.117-2.107-.798-4.192-1.513-4.633-1.001-.619-.869-1.053.571-1.89 1.799-1.045 1.794-1.092-.13-1.235-1.1-.082-2.338-.096-2.75-.03-.413.065-.75-.35-.75-.921 0-.601-.591-.495-1.399.25-.77.709-1.224 1.473-1.009 1.697.215.224-.094.992-.686 1.705-1.357 1.636-4.947-.301-4.827-2.604.053-1.013.244-1.101.58-.268.385.953.832.911 1.921-.179 2.735-2.735.948-5.45-2.406-3.655-1.306.699-2.227.64-3.062-.195-.927-.927-1.386-.887-2.044.178-.658 1.064-1.006.881-1.544-.813-.692-2.183-3.024-2.409-3.024-.294 0 2.443-2.3 3.49-2.344 1.067-.098-5.317-1.342-8.941-2.686-7.825-1.027.852-1.258.286-1.112-2.725.241-4.996 2.258-8.556 4.453-7.86 1.412.448 1.74-.31 2-4.625.278-4.615.143-5.022-1.274-3.846-2.455 2.038-2.903.554-1.276-4.22 1.012-2.973 1.359-7.013 1.09-12.697-.289-6.105-.011-8.922 1.041-10.527.789-1.205 1.656-3.589 1.925-5.297.589-3.738 1.452-5.29 3.944-7.085 2.55-1.838 3.663-5.168 2.636-7.893-.621-1.649-.483-2.25.519-2.25.752 0 1.65 1.125 1.995 2.5 1.263 5.034 4.128 2.205 5.593-5.523.97-5.114 1.996-7.703 1.996-5.037 0 .722.651 1.024 1.5.698.903-.346 1.5-.005 1.5.858 0 1.286 2.858 3.504 4.514 3.504 1.063 0-.652-6.281-2.114-7.743-.979-.979-1.194-2.944-.771-7.057.715-6.942.72-6.814-.462-11.45-.551-2.16-.577-3.75-.062-3.75.492 0 .895-1.125.895-2.5 0-1.467-.517-2.397-1.25-2.25-.687.137-1.115-.381-.949-1.152.715-3.334 1.432-9.767 1.669-14.978.141-3.091.318-5.958.393-6.37.247-1.353 2.137-.784 2.137.643 0 2.757 2.843 2.593 3.48-.2.958-4.199 3.273-6.84 4.724-5.389.928.928.759 1.203-.754 1.226-1.773.028-1.795.121-.242 1.027.943.549 1.455 1.657 1.143 2.469-.931 2.427.426 1.697 4.598-2.475 3.541-3.541 3.985-4.546 4.31-9.75.312-4.99.389-4.667.552 2.314.149 6.407.61 8.65 2.189 10.658 1.1 1.398 2.053 3.371 2.118 4.385.184 2.859 1.63-3.676 1.764-7.967.065-2.095.493-3.577.951-3.294.459.283.632 1.885.387 3.559-.27 1.837-.005 3.044.667 3.044.612 0 1.118-1.463 1.124-3.25.023-6.652 1.178-10.863 2.877-10.487.887.196 1.5.892 1.362 1.546-.156.744 1.078 1.191 3.285 1.191 3.046 0 3.41-.242 2.627-1.75-1.759-3.388-.737-6.723 2.165-7.066 2.508-.297 2.673-.068 2.673 3.718 0 4.297 1.9 4.804 4.75 1.267 1.049-1.302 1.25-.899 1.25 2.515 0 10.304.329 10.605 9.608 8.767 1.819-.361 2.037-.046 1.589 2.298-.547 2.86-2.849 5.751-4.58 5.751-.962 0-2.293 3.342-2.517 6.321-.075.99.283.938 1.429-.207.841-.841 2.23-1.26 3.087-.931 1.109.425 1.488.053 1.317-1.293-.132-1.039.109-2.697.537-3.683.732-1.69.886-1.695 2.654-.095 1.484 1.343 1.889 1.404 1.94.293.205-4.512.807-8.103 1.461-8.71.412-.382.531.508.265 1.978-.363 2.007-.023 2.794 1.363 3.157 1.947.509 2.337 3.182 1.884 12.92-.196 4.223.011 4.75 1.871 4.75 1.425 0 2.092-.637 2.092-2 0-1.1-.388-2-.862-2-1.096 0-.613-4.703.645-6.298.522-.661.882-2.45.799-3.976-.107-1.972.245-2.623 1.216-2.25.751.288 2.034.524 2.851.524 1.005 0 1.29.615.882 1.902-.332 1.046-.627 4.982-.656 8.746-.031 3.983-.538 7.198-1.214 7.692-.725.53-.484.63.641.266 1.198-.388 1.564-.199 1.094.563-.482.779-.019.966 1.448.582 2.823-.738 2.721-.004-.4 2.889-1.406 1.303-2.28 2.817-1.941 3.364.338.548.086.996-.561.996-.683 0-.956-.838-.652-2 .758-2.899-1.735-2.513-3.099.48-1.131 2.482-4.094 2.594-4.277.163-.047-.629-.481.18-.964 1.797-.484 1.618-.5 3.418-.037 4 1.217 1.533 1.181 13.56-.041 13.56-.558 0-1.69.675-2.515 1.5-.825.825-1.018 1.5-.428 1.5.589 0 1.071.45 1.071 1s-1.323 1-2.941 1c-3.756 0-4.48 1.195-2.008 3.312 2.7 2.311 2.533 4.878-.301 4.649-4.128-.334-4.519.013-5.211 4.628-.631 4.207-.806 4.436-2.106 2.75-1.286-1.669-1.379-1.495-1.006 1.87.227 2.039.688 4.579 1.026 5.644.365 1.148-.031 2.582-.973 3.524-1.697 1.697-2.844 5.623-1.643 5.623.397 0 1.37-.9 2.163-2 1.51-2.094 4-2.717 4-1 0 .55-.477 1-1.059 1s-.781.45-.441 1c2.007 3.248 6.37-.921 6.59-6.297.068-1.646.328-1.381 1.029 1.047.661 2.291 1.537 3.25 2.969 3.25 1.116 0 1.752.45 1.412 1-.34.55.252 1 1.316 1 1.331 0 2.114.898 2.51 2.879.405 2.025 1.345 3.072 3.166 3.53 1.424.357 2.376.995 2.115 1.418-.261.423-.062 1.422.444 2.221.749 1.185.921 1.108.934-.415.011-1.371.545-1.728 2.015-1.343 1.1.287 2 .052 2-.523 0-.576.788-1.644 1.75-2.375 1.069-.811 1.263-1.341.5-1.36-.687-.018-1.25-.482-1.25-1.032 0-1.134 3.303-1.364 4.362-.304.383.382 1.245.785 1.917.894 2.994.489 4.269.977 4.917 1.881 1.038 1.449 2.141-.126 1.158-1.654-.466-.725-.848-2.667-.85-4.317-.003-2.387-.39-2.934-1.89-2.675-1.328.229-1.716-.117-1.313-1.167.315-.821-.074-1.741-.864-2.044-.79-.303-1.437-1.24-1.437-2.083 0-.842-.45-1.531-1-1.531s-.947-.338-.882-.75c.066-.412.034-2.325-.07-4.25-.152-2.815-.342-3.109-.97-1.5-.742 1.896-.822 1.874-1.558-.441-.607-1.909-.257-2.905 1.602-4.563 3.75-3.346 3.46-5.102-.758-4.597-.625.075-1.399-.547-1.719-1.381-.349-.91-.024-1.518.811-1.518.993 0 1.298-1.026 1.062-3.567-.221-2.379.135-3.746 1.07-4.105.77-.296 1.083-1.053.695-1.683-.388-.63.523-.342 2.024.64 2.619 1.713 2.756 1.713 3.388 0 .363-.982 1.142-2.116 1.732-2.52.708-.484.625-.74-.244-.75-.861-.01-1.098-.709-.683-2.015.443-1.397.18-2-.874-2-2.12 0-3.151 2.057-1.532 3.058 1.381.854 1.335.885-3.511 2.379-.78.24-1.666-.21-1.969-1-.343-.893.099-1.467 1.167-1.516 1.044-.048 1.228-.277.469-.583-.688-.278-1.25-.903-1.25-1.39 0-.487.749-.598 1.664-.247 1.037.398 1.418.241 1.011-.418-.359-.581.017-1.612.836-2.292.819-.68 1.489-1.695 1.489-2.255 0-1.415 5.703-6.733 7.241-6.751.865-.011.789-.347-.241-1.075-1.119-.791-.484-.922 2.5-.517 2.2.298 3.438.294 2.75-.009-1.745-.769-1.603-3.733.147-3.062.903.346 1.561-.323 1.861-1.893.304-1.587.004-2.429-.865-2.429-.772 0-1.088-.63-.755-1.5.32-.833.028-1.5-.656-1.5-.824 0-1.041-.954-.656-2.881.569-2.846-1.775-4.056-3.442-1.777-.339.463-.839-.324-1.111-1.75-.387-2.026-.096-2.592 1.334-2.592 1.222 0 1.638-.502 1.25-1.511-.415-1.082-.121-1.336 1.032-.893 1.157.444 1.611.043 1.611-1.419 0-1.318-.795-2.191-2.25-2.471-1.929-.372-1.858-.453.5-.57 1.512-.075 2.75.332 2.75.903 0 .6.589.494 1.39-.25 1.187-1.1 1.184-1.691-.025-4.039-1.308-2.54-1.269-2.75.516-2.75 1.412 0 1.797-.516 1.43-1.918-.276-1.056.019-2.743.655-3.75 1.01-1.601 1.102-1.482.729.942-.235 1.525-.037 3.015.439 3.309.476.294.866-.584.866-1.953 0-1.368.663-3.151 1.474-3.961 1.299-1.3 1.27-1.554-.25-2.139-1.599-.616-1.588-.741.145-1.714 1.39-.78 2.083-.703 2.701.298.606.979 1.235.396 2.305-2.134 1.408-3.329 1.377-3.504-.702-4.026-1.773-.446-1.876-.66-.562-1.165 1.856-.714 3.242-4.789 1.629-4.789-.59 0-.772-.301-.404-.669.367-.368-.077-1.493-.989-2.5-1.079-1.192-1.234-1.831-.443-1.831.668 0 .975-.387.683-.86-.631-1.021 1.584-6.121 2.663-6.132.412-.004.743-1.021.735-2.258-.009-1.237-.346-1.8-.75-1.25-1.071 1.457-3.539 1.801-2.655.37.457-.739.298-.913-.425-.465-.774.478-1.129-.214-1.076-2.096.043-1.545.306-2.246.583-1.559.628 1.555 4.338 1.662 4.338.125 0-.721 1.096-.906 3.05-.515 1.937.387 2.822.242 2.425-.4-.343-.555-.028-.886.701-.735.944.196 1.299-.944 1.238-3.975-.048-2.338.276-4.25.718-4.25.443 0 .546-.675.23-1.5-.365-.95.013-1.5 1.031-1.5 2.057 0 2.103-1.75.057-2.177-1.315-.274-1.349-.597-.22-2.132 1.115-1.517 1.791-1.634 4.188-.722 1.573.598 3.115.832 3.427.519.312-.312-.348-.807-1.466-1.099-1.343-.351-1.974-1.272-1.858-2.711.097-1.198-.285-2.478-.847-2.845-1.123-.732-1.782-7.833-.728-7.833.36 0 1.194.54 1.854 1.2.933.933 1.184.767 1.13-.75-.12-3.318-1.335-4.95-3.688-4.954-2.426-.004-2.686-1.814-.311-2.162 1.981-.291 5.242 1.578 4.591 2.631-.294.475-.152 1.015.316 1.2.468.184.644 2.039.393 4.121-.415 3.429-.586 3.617-1.813 2-1.243-1.639-1.357-1.646-1.386-.086-.018.935.713 2.117 1.622 2.627.996.557 1.407 1.572 1.032 2.549-.343.893-.176 1.624.37 1.624.547 0 1.256-1.31 1.576-2.911.351-1.753 1.37-3.118 2.562-3.43 2.446-.639 2.016-4.223-.482-4.02-2.112.171-2.233-2.261-.212-4.282.825-.825 1.5-2.326 1.5-3.335 0-1.408.523-1.7 2.25-1.255 1.916.494 2.066.355 1.009-.936-.683-.833-.946-1.811-.584-2.173.362-.362-.017-.658-.842-.658-2.165 0-1.908-3.131.471-5.75l2.045-2.25h-2.955c-2.317 0-3.183-.604-4.01-2.794-1.05-2.781-1.034-2.794 3.281-2.935 2.735-.089 4.35.296 4.375 1.044.022.652.711-.052 1.532-1.565 1.859-3.427 3.428-3.542 3.428-.25 0 1.375.354 2.5.787 2.5 1.291 0 1.221-4.375-.083-5.204-.75-.477-.262-.795 1.296-.844 2.49-.078 2.491-.082.25-.983-3.02-1.214-2.839-2.604.448-3.429 1.484-.373 2.24-.984 1.68-1.359-.579-.387-.707-1.758-.297-3.181.698-2.424.723-2.409.835.5.072 1.885.409 2.537.905 1.755.435-.685 2.003-1.346 3.485-1.468 1.94-.161 2.694-.776 2.694-2.196 0-1.95-.017-1.95-1.468-.032-1.234 1.631-1.473 1.681-1.5.313-.018-.895.643-2.187 1.468-2.872s1.5-2.127 1.5-3.206c0-1.146.519-1.77 1.25-1.502.688.252 1.137.964 1 1.583-.138.619.425 1.125 1.25 1.125s1.5-.675 1.5-1.5.45-1.5 1-1.5 1-1.125 1-2.5c0-2.844-4.597-3.714-5.614-1.063-.583 1.519-3.386 1.019-3.386-.603 0-.524.52-.631 1.155-.239.718.444.882.275.435-.449-.902-1.46 3.475-3.265 4.984-2.055.625.501 1.565.37 2.25-.315.901-.901 1.466-.886 2.418.066.792.792.883 1.497.25 1.95-1.324.945-1.824 3.531-.528 2.73.557-.344.809-.04.559.676-.25.716-.061 2.877.419 4.802.808 3.235.929 3.325 1.598 1.193.459-1.465 1.252-2.103 2.173-1.75.798.307 1.639.557 1.869.557.23 0 .432 1.012.448 2.25.028 2.016.137 2.067 1.055.492.563-.967.771-2.166.463-2.665-.308-.498.005-1.118.696-1.377.874-.327.651-.935-.733-1.997-1.094-.839-2.331-1.314-2.75-1.055-.419.258-.761-.059-.761-.706 0-.684.838-.956 2.004-.651 1.505.393 2.155-.076 2.609-1.884.619-2.469 1.834-3.111 2.832-1.496.715 1.156 3.504.777 4.385-.597.368-.574 1.739-1.378 3.045-1.786 1.633-.51 2.162-.396 1.691.365-.376.609-.193 1.107.406 1.107.6 0 1.35-.675 1.666-1.5.317-.825 1.653-1.5 2.969-1.5 1.46 0 2.393-.585 2.393-1.5 0-1.556-.089-1.604-3.662-1.987-3.801-.407-5.329-1.372-4.714-2.975C254.136.204 252.528 0 241.485 0 230.283 0 228.905.18 230 1.5c.897 1.081.922 1.5.091 1.5-.635 0-1.413-.675-1.729-1.5-.404-1.053-1.96-1.476-5.219-1.421-2.554.043-4.08.306-3.393.583 1.702.687 1.584 2.338-.167 2.338-.779 0-1.643.563-1.921 1.25-.403 1-.52 1-.583 0-.043-.687-.556-1.25-1.138-1.25-.582 0-.813.399-.511.886.623 1.009-2.318 1.995-4.13 1.385-.844-.284-.925-1.126-.275-2.838L211.95 0H-.002l.251 400.25m.246.25c0 220 .115 309.851.255 199.669.14-110.183.14-290.183 0-400C.61 90.351.495 180.5.495 400.5m220.22-365.882c-.34.34-.348 1.966-.019 3.614.551 2.751.436 2.909-1.395 1.929-2.163-1.158-4.301.104-4.301 2.539 0 1.901-2.733 1.588-3.92-.45-.566-.971-1.033-1.194-1.05-.5-.016.688-1.042 1.286-2.28 1.329-1.238.043-1.753.284-1.145.535.607.251.935 1.678.728 3.171-.354 2.559-.319 2.586.613.465 1.165-2.649 2.333-2.828 4.475-.686.86.86 2.017 1.283 2.571.941.555-.343 1.008-.161 1.008.405 0 .565.787.78 1.75.477 1.531-.481 1.513-.357-.147.999-1.044.853-2.249 1.333-2.678 1.067-.43-.265-1.081.464-1.448 1.62-.71 2.237 2.274 5.956 4.731 5.895.777-.019.519-.616-.649-1.5-1.068-.807-1.405-1.468-.75-1.468s1.138-.337 1.073-.75c-.335-2.121.271-3.129 1.578-2.627 1.067.41 1.348-.023 1.043-1.607-.277-1.44.552-3.115 2.473-4.992 2.66-2.601 2.736-2.866.957-3.331-2.039-.533-2.732-3.693-.811-3.693.826 0 .828-.355.009-1.342-.612-.738-.818-1.638-.456-2 .362-.362.208-.658-.342-.658s-1.278.278-1.618.618M165 239.92c0 .532 1.012 1.68 2.25 2.551 1.883 1.327 2.009 1.735.776 2.505-1.248.778-1.133 1.281.75 3.286 1.223 1.302 2.224 2.9 2.224 3.552 0 .653.477 1.186 1.059 1.186s.81-.403.506-.895c-.305-.493.119-1.153.941-1.469.964-.37 1.494.029 1.494 1.125 0 1.863 6.046 11.234 7.25 11.237 1.233.003.848-2.836-.502-3.698-2.424-1.549-4.045-5.948-2.926-7.941.977-1.74 1.087-1.747 1.716-.115.756 1.963 2.462 1.406 2.462-.803 0-.793-.852-1.441-1.893-1.441s-2.196-.787-2.567-1.75c-.637-1.653-.731-1.65-1.689.058-.947 1.687-1.171 1.639-3.359-.722-1.551-1.674-2.512-2.116-2.839-1.308-.272.672-.531.261-.574-.913-.076-2.049-5.079-6.428-5.079-4.445m27.298 63.047c-.282 1.082-1.354 2.233-2.38 2.559-2.966.941-5.927 5.45-5.818 8.859.095 2.982.132 3.008.858.615.712-2.347.782-2.286 1.15 1 .237 2.115.887 3.401 1.642 3.25.688-.137 1.25.211 1.25.775 0 .563 1.125 1.452 2.5 1.975 1.375.523 2.5 1.667 2.5 2.543 0 1.137.572 1.41 2 .957 1.147-.364 2-.18 2 .433 0 .587.838 1.067 1.862 1.067 1.866 0 2.25 3.391.673 5.943-.359.581.049 1.057.906 1.057s1.559-.825 1.559-1.833c0-2.6.974-3.251 3.131-2.097 1.266.678 1.869.666 1.869-.035 0-.569-.45-1.035-1-1.035s-1-.675-1-1.5-.45-1.5-1-1.5-1-.472-1-1.048c0-1.972-5.497-5.889-8.309-5.92-1.625-.019-2.547-.456-2.187-1.039.343-.554-.094-1.282-.97-1.618-1.442-.554-1.435-.727.069-1.827 1.543-1.128 1.545-1.393.017-3.724-1.565-2.389-1.525-2.686.838-6.167 1.985-2.925 2.169-3.657.918-3.657-.86 0-1.795.885-2.078 1.967m39.689 6.283c-1.382 1.788-3.806 5.163-5.386 7.5-1.58 2.337-3.184 4.25-3.564 4.25-.38 0-2.633 2.681-5.007 5.959-3.521 4.86-4.635 5.788-6.042 5.035-.949-.508-1.96-.688-2.248-.401-.862.862.415 4.429 1.374 3.837 1.035-.64 1.211 1.912.201 2.922-.377.377-1.224 2.252-1.882 4.167-1.063 3.091-1.004 3.481.527 3.481 1.144 0 2.126-1.344 2.922-4 .659-2.2 1.581-4 2.05-4 .468 0 1.16-1.238 1.537-2.75.378-1.512 1.697-4.1 2.932-5.75 1.236-1.65 2.553-3.83 2.928-4.845.374-1.015 1.523-2.065 2.552-2.334 1.029-.269 2.489-1.689 3.244-3.155.754-1.466 1.599-2.891 1.876-3.166 1.149-1.139 5.999-8.661 5.999-9.304 0-1.558-1.641-.513-4.013 2.554M193 341.107c0 .609-.689.843-1.53.52-1.003-.385-1.927.282-2.679 1.931-.631 1.386-1.7 2.307-2.375 2.048-1.277-.49-5.111 3.033-4.244 3.899.271.271 2.606-.577 5.189-1.885 4.256-2.154 4.642-2.205 4.112-.536-.321 1.012-.124 2.7.438 3.75.623 1.165.691 3.065.175 4.868-.569 1.981-.406 4.011.493 6.149.738 1.755 1.087 3.857.775 4.67-.914 2.381.268 1.705 2.222-1.271.993-1.512 1.741-3.629 1.662-4.704-.08-1.075.397-2.61 1.059-3.413.941-1.14.931-1.55-.047-1.879-.687-.231-1.25-1.508-1.25-2.837 0-1.33-.45-2.417-1-2.417s-1-.643-1-1.429c0-.785-.707-2.135-1.571-3-1.429-1.428-1.429-1.714 0-3.142 1.823-1.824 1.965-2.429.571-2.429-.55 0-1 .498-1 1.107m-66.991 127.382c-.68.819-1.612 1.256-2.073.971-1.39-.859-10.825 9.363-10.66 11.551.196 2.608.95 2.511 4.647-.6 1.692-1.424 3.077-2.113 3.077-1.531 0 .581.675.798 1.5.482 1.057-.406 1.534.12 1.615 1.781.219 4.485-.305 6.191-2.455 7.987-1.188.992-1.687 1.818-1.11 1.837.578.018 1.539-.456 2.137-1.054.702-.702 1.304-.736 1.699-.098.336.545-.738 1.461-2.387 2.036-3.423 1.193-3.831 2.633-1.152 4.067 1.235.661 2.191.644 2.887-.052.72-.72 1.283-.647 1.83.238.457.739.291 1.444-.393 1.672-.651.217-.899.855-.552 1.417.394.637-.136.778-1.41.373-1.122-.356-2.33-.179-2.684.393-.354.573-.229 1.041.277 1.041.507 0 .707 1.12.445 2.488-.263 1.377-.936 2.204-1.507 1.851-1.809-1.118.277 5.026 2.369 6.976 1.89 1.762 2.082 1.715 6.669-1.659 8.969-6.599 11.935-12.492 5.972-11.868-1.941.203-2.75-.168-2.75-1.262 0-1.242.776-1.425 3.905-.925 3.274.523 3.982.323 4.384-1.238.33-1.283.515-1.007.595.887.068 1.619.685 2.75 1.499 2.75 1.8 0 2.782-3.824 1.566-6.096-.522-.975-.949-2.923-.949-4.33 0-1.474-.847-3.086-2-3.806-1.1-.687-2.014-1.928-2.032-2.759-.053-2.52-2.968 2.02-2.968 4.623 0 1.238-.472 2.542-1.049 2.898-.725.448-.71 1.056.049 1.97.693.835.739 1.543.124 1.923-.535.331-1.162-.192-1.394-1.161-.38-1.591-.501-1.567-1.252.238-1.526 3.669-4.478 4.679-4.478 1.531 0-1.442-.467-1.804-1.75-1.352-1.429.502-1.52.368-.5-.732.688-.741 1.25-2.163 1.25-3.161 0-.997.424-2.595.941-3.55 1.864-3.437 4.461-13.997 4.177-16.986-.165-1.741-4.61-1.567-6.109.239m45.665 29.761c-1.492 2.14-1.572 2.152-1.637.25-.044-1.292-.334-1.581-.821-.815-.414.651-1.976 1.348-3.47 1.548-3.477.466-8.746 5.485-8.746 8.332 0 1.204-.675 2.75-1.5 3.435s-1.5 1.865-1.5 2.622c0 .758-.375 1.378-.832 1.378-.458 0-1.33 2.138-1.937 4.75-.735 3.163-1.016 3.664-.841 1.5.145-1.788-.082-3.25-.504-3.25-1.481 0-1.924 1.913-1.318 5.689.79 4.921 5.464 5.735 8.251 1.437 2.468-3.807 4.984-6.126 6.646-6.126 2.249 0 3.945-3.801 2.482-5.564-.914-1.101-.918-1.766-.016-2.852.932-1.124.817-1.486-.556-1.75-3.08-.594 1.256-3.834 5.129-3.834 2.483 0 3.527-.523 3.996-2 .349-1.1 1.253-2 2.008-2 2.186 0 2.649-1.701.93-3.419-2.181-2.181-3.916-1.979-5.764.669M378.5 532c-.34.55-.115 1 .5 1s.856.423.537.94c-.32.518.313 1.774 1.406 2.792 1.511 1.408 2.048 3.37 2.237 8.174.159 4.015.717 6.501 1.529 6.813 1.963.753.32 2.522-1.822 1.962-1.038-.272-1.901.026-1.919.663-.017.636-.692.282-1.5-.785-.807-1.068-1.468-1.457-1.468-.865 0 1.696 2.605 7.449 3.338 7.374 1.854-.19 1.891.044.2 1.28-1.014.742-1.523 1.867-1.132 2.5 1.104 1.786 2.594 1.36 2.594-.742 0-3.341 4.817-2.211 5.591 1.312.537 2.442.794 2.646 1.575 1.25 1.283-2.293 2.834-2.095 2.834.363 0 1.118.788 2.322 1.75 2.677.962.356 2.096 1.129 2.519 1.719.507.707 1.274.411 2.25-.868 1.428-1.872 1.481-1.85 1.481.611 0 2.666-.147 2.616 12.297 4.232.988.129 2.672.983 3.742 1.899 2.167 1.855 6.457 2.387 9.375 1.162 1.243-.521 1.69-.44 1.274.233-.353.57.249 1.842 1.336 2.825 1.087.984 2.032 1.494 2.101 1.134.069-.36.181-1.18.25-1.822.158-1.476 2.625-2.366 2.625-.948 0 .579.675.793 1.5.477.944-.362 1.5.011 1.5 1.005 0 .87 1.35 2.28 3 3.133 2.736 1.415 3 1.409 3-.067 0-1.665-3.665-6.924-4.841-6.945-1.634-.028-7.159-2.821-7.159-3.618 0-.488-.914-.321-2.031.372-2.145 1.329-4.527-.53-3.275-2.556.309-.5-.046-1.286-.789-1.745-.791-.488-1.628-.389-2.017.24-1.047 1.695-2.888-.051-2.888-2.74 0-1.343-.45-2.441-1-2.441s-1 .45-1 1-.45 1-1 1-1-.675-1-1.5-.839-1.5-1.865-1.5-3.009-.9-4.408-2c-1.398-1.1-3.184-2-3.968-2-.784 0-2.724-1.298-4.311-2.885-1.586-1.587-3.461-2.663-4.166-2.393-.705.271-1.282-.006-1.282-.615s-.562-1.11-1.25-1.114c-1.47-.008-5.236-5.414-6.264-8.993-.395-1.375-1.791-3.932-3.102-5.683S383 533.605 383 532.96c0-.65-.693-.908-1.552-.578-.89.341-1.291.173-.941-.393.336-.544.161-.989-.389-.989s-1.278.45-1.618 1m18.579 67.191c-.043 2.03.419 3.999 1.028 4.375.738.456.891.004.459-1.357-.356-1.122-.234-2.296.272-2.609 1.171-.724 2.216 4.374 1.596 7.792-.361 1.991-.055 2.624 1.296 2.676 1.43.054 1.338.276-.48 1.152-2.649 1.278-3.038 2.965-.5 2.167 1.667-.524 1.667-.482 0 .892-1.94 1.598-2.334 3.721-.691 3.721.582 0 .738.52.346 1.155-.443.715-.275.883.44.44.807-.498 1.155.634 1.155 3.763 0 2.689.499 4.643 1.25 4.896.994.335.989.737-.026 1.967-1.051 1.274-.995 1.653.323 2.159 1.423.546 1.565-.811 1.295-12.383-.239-10.22-.598-12.997-1.68-12.997-.928 0-1.133-.57-.63-1.75.411-.962.796-2.875.857-4.25.061-1.375.77-3.015 1.576-3.644 1.701-1.328-3.542-1.404-5.63-.081-.64.405-1.392.172-1.671-.519-.278-.691-.542.405-.585 2.435m-69.329 34.498c-.962.252-1.75 1.1-1.75 1.884 0 1.732-1.675 1.901-2.234.226-.301-.905-.577-.914-1.119-.036-.396.64.18 2.064 1.28 3.164 1.114 1.114 1.573 2.264 1.037 2.596-3.592 2.219 3.222 4.742 8.437 3.124 2.764-.858 3.581-1.588 3.241-2.897-.25-.962-.047-1.75.452-1.75.498 0 .962.9 1.031 2 .203 3.251.337 3.795 1.125 4.583.773.773 1.049-.974.939-5.937-.08-3.603-.74-4.263-2.665-2.666-1.259 1.045-1.524.983-1.524-.358 0-.892.675-1.622 1.5-1.622 1.815 0 1.997-1.66.25-2.269-2.456-.857-3.751.539-3.829 4.126-.077 3.567-.099 3.587-1.063.954-.541-1.479-1.743-2.889-2.671-3.134-1.482-.391-1.467-.459.122-.561.995-.064 1.531-.566 1.191-1.116-.644-1.042-.876-1.062-3.75-.311m124.857 27.893c-.334.87-.614 2.557-.622 3.75-.013 1.727-.205 1.869-.947.696-.78-1.235-1.051-1.154-1.678.5-.412 1.085-1.395 2.625-2.185 3.424-1.25 1.264-1.16 1.575.694 2.403 1.172.523 2.131 1.632 2.131 2.464 0 .833.297 1.217.66.854.363-.363 1.306.262 2.096 1.388 2.425 3.464 4.636 2.044 4.772-3.066.067-2.472-.221-4.728-.638-5.014-.679-.463-1.585-4.339-1.808-7.731-.116-1.771-1.752-1.552-2.475.332m-33.035 4.619c-1.169 1.668-1.25 2.38-.335 2.946.877.542.764.915-.414 1.367-1.09.419-1.589 1.748-1.524 4.054.103 3.623 2.015 4.662 3.148 1.71.538-1.402.819-1.465 1.514-.341.47.76.608 2.023.307 2.806-.441 1.149-.702 1.172-1.353.119-.622-1.006-.965-.895-1.494.483-.975 2.542 1.051 4.338 3.037 2.69 1.808-1.501 2.101.006.342 1.765-.847.847-.868 1.2-.073 1.2.619 0 1.294.788 1.5 1.75.497 2.328 3.975-4.045 3.561-6.524-.195-1.168.279-1.631 1.463-1.432 1.079.181 2.197-.682 2.911-2.25.637-1.399 1.612-2.544 2.165-2.544 1.479 0-.104-1.329-2.106-1.769-4.364-.958-5.676-.622-6.906 1.769l-1.286 2.5-.014-3.191c-.008-1.755-.507-3.495-1.109-3.867-.602-.372-.889-1.749-.639-3.059.57-2.983-.674-3.067-2.695-.182m-107.365 5.84c-.701 1.122-1.006 2.476-.677 3.007.712 1.152-1.254 3.27-4.002 4.312-1.437.545-1.631.958-.716 1.524.691.427.99 1.469.664 2.317-.644 1.679 2.016 3.231 3.726 2.174.562-.347 1.374-.062 1.804.635.592.958 1.349.738 3.113-.906 2.168-2.02 2.376-2.047 2.981-.388.357.981.454 2.121.216 2.534-.239.413.133.75.825.75.979 0 .992.267.059 1.2-.66.66-1.133 3.022-1.05 5.25.111 2.999.258 3.337.566 1.3.289-1.908 1.009-2.75 2.35-2.75 2.41 0 2.508-1.566.184-2.92-1.572-.916-1.527-1.022.443-1.05 1.207-.016 2.858-.979 3.67-2.138.813-1.16 1.932-1.828 2.488-1.484a1.196 1.196 0 0 0 1.639-.392c.345-.559-.038-1.016-.852-1.016-.839 0-1.772-1.333-2.156-3.084-.582-2.649-1.016-2.999-3.08-2.481-1.321.332-2.402.16-2.402-.381s-.914-1.473-2.032-2.071c-1.821-.975-1.972-.845-1.447 1.245.542 2.159.302 2.319-3.218 2.144-5.036-.25-5.08-.271-3.045-1.457.967-.563 2.204-.747 2.75-.41.546.337.992.136.992-.446 0-.582-.501-1.059-1.113-1.059-.669 0-.938-1.199-.674-3 .513-3.494-.208-3.839-2.006-.959M483.985 772.75c-.013 1.496-.157 1.532-.985.25-1.025-1.585-1.105-1.371-1.395 3.706-.101 1.763-.499 3.521-.885 3.908-.387.386-.144 1.39.539 2.231 1.041 1.283.958 1.424-.509.874-3.462-1.298-4.79.176-4.093 4.539.51 3.19.37 3.877-.659 3.241-.827-.511-1.064-.415-.646.261.363.588.095 1.271-.596 1.518-.691.246-.957.771-.592 1.166.366.395 1.593.221 2.728-.386 1.701-.911 2.283-.75 3.326.919.695 1.113 1.792 2.023 2.439 2.023s1.356.54 1.576 1.199c.243.728.67.495 1.088-.592.494-1.289.129-1.938-1.302-2.312-1.848-.484-1.778-.718.996-3.309 3.427-3.202 4.03-8.174 1.349-11.137-1.524-1.683-1.49-1.93.495-3.578 1.503-1.249 1.951-2.435 1.519-4.021-.733-2.697-4.37-3.111-4.393-.5" fill="#d3d3d3" fill-rule="evenodd"/></svg>