<svg xmlns="http://www.w3.org/2000/svg" width="500" height="275"><path d="M365.553 33.74c-2.171.222-5.096 1.219-6.5 2.215-1.404.996-3.453 1.982-4.553 2.191-3.652.692-4.318 11.504-1.067 17.327 7.519 13.469 7.6 22.086.225 23.953-2.012.51-3.658 1.522-3.658 2.25S349.556 83 349.014 83s-2.15 1.76-3.573 3.91l-2.588 3.91.824 15.34c.676 12.603 1.091 15.34 2.323 15.34 2.003 0 2.718 8.436.815 9.62-1.085.676-1.086 1.189-.005 2.932.915 1.476 1.227 5.272 1.035 12.589-.2 7.605.071 10.689.987 11.255 1.874 1.159-1.282 3.481-3.827 2.816-1.205-.316-2.005-.034-2.005.707 0 3.515-8.202 7.823-18.28 9.602-3.421.603-9.37 2.141-13.22 3.416-14.714 4.873-30.339 6.936-47.307 6.246-16.934-.688-48.511.772-49.009 2.266-.193.578-1.711 1.051-3.374 1.051-2.183 0-2.874-.39-2.486-1.401.32-.834-.245-1.607-1.393-1.907-1.163-.304-1.931.003-1.931.771 0 1.471-5.218 2.51-12.682 2.526-4.61.01-5.417.342-7.318 3.011-1.768 2.483-1.866 3-.568 3 1.845 0 2.156 1.985.318 2.032-4.2.106-8.166 7.152-5.517 9.801.977.977.787 1.349-.916 1.794-1.181.309-2.404 1.585-2.718 2.836-.716 2.852-7.476 2.863-10.621.017-2.359-2.135-3.294-1.477-3.571 2.513-.143 2.067.331 3.106 1.599 3.509.991.314 4.882 3.469 8.648 7.01 4.419 4.155 7.732 6.474 9.346 6.54 1.375.056 4.486.179 6.912.275 4.575.179 7.236 2.645 2.921 2.706l-2.333.034 2.361 1.966c1.298 1.082 3.008 1.967 3.799 1.967 3.932 0 7.567 3.117 6.991 5.995-.373 1.866-.054 3.255.937 4.078.827.686 1.242 1.927.924 2.757-.738 1.922 1.159 3.129 4.988 3.177 1.65.02 4.872.887 7.16 1.926 2.288 1.039 7.134 2.207 10.77 2.596l6.61.708-.27-3.368c-.257-3.203-.122-3.352 2.73-3.017 3.573.42 4.714 1.88 3.395 4.344-.695 1.299-.606 1.825.32 1.881.707.042 2.185.283 3.285.536 11.746 2.704 25.236 2.643 39-.177 3.85-.789 7.82-1.435 8.821-1.435 1.002-.001 2.497-.676 3.322-1.501.825-.825 2.566-1.5 3.869-1.5 1.304 0 2.639-.436 2.968-.968.329-.533 2.096-.912 3.927-.843 4.038.152 17.637-3.213 19.261-4.766.643-.614 5.231-1.672 10.197-2.35 4.966-.679 10.694-2.083 12.73-3.121 2.035-1.038 4.087-1.648 4.56-1.356.473.292 1.129-.173 1.459-1.033.33-.859 1.339-1.566 2.243-1.569.904-.004 2.963-.695 4.577-1.536 1.614-.842 3.614-1.27 4.444-.951 1.978.759 11.328-1.521 12.659-3.086 1.229-1.447 14.489-4.043 35.781-7.006 4.317-.6 6.891-2.323 3.682-2.463-3.123-.137 6.198-4.918 9.628-4.939 1.17-.007 2.703-.707 3.408-1.556.704-.848 2.446-1.456 3.872-1.349 5.969.446 7.124-.018 7.742-3.108.33-1.65.946-3 1.368-3 1.083 0 2.013-2.755 1.437-4.256-.321-.837-2.062-1.139-5.218-.903-3.862.288-4.506.113-3.487-.944 2.008-2.083 1.484-2.632-2.396-2.511-4.658.146-5.41-1.822-1.25-3.272 1.757-.613 3.577-1.114 4.045-1.114 1.583 0 .863 1.85-.899 2.311-.962.251-.288.509 1.5.573 1.788.064 3.25-.334 3.25-.884s-.562-1.029-1.25-1.063c-.687-.035-.125-.513 1.25-1.063 1.375-.549 3.872-.742 5.549-.429 1.925.36 3.767.026 5-.906 2.658-2.01 12.786-2.045 14.442-.05.68.819 1.706 1.199 2.28.844.665-.412.829.178.45 1.626-.327 1.249-.205 3.007.269 3.906.475.899 1.154 2.535 1.508 3.635.637 1.975.663 1.975 2.073.059.786-1.068 1.429-3.455 1.429-5.305 0-5.101 3.591-12.254 6.153-12.254 1.893 0 2.039-.399 1.463-4-.352-2.2-.297-4 .122-4.001.419-.001.83-2.248.913-4.994.139-4.611-.014-4.96-2-4.562-8.004 1.606-7.874 1.532-7.229 4.101.452 1.801.211 2.456-.903 2.456-.835 0-1.519-.45-1.519-1s-1.098-1-2.441-1c-1.343 0-2.724-.457-3.069-1.016-.346-.559-1.006-.783-1.469-.497-3.055 1.888-5.095-5.322-2.633-9.306.289-.468-1.029-1.593-2.931-2.5L454 155.032v3.293c0 1.811-.712 4.166-1.582 5.234-1.502 1.843-1.551 1.846-.981.06.385-1.204-.393-3.183-2.161-5.5-1.518-1.99-2.632-4.181-2.475-4.869.158-.687-.21-1.25-.816-1.25-.607 0-.778-.526-.38-1.17.477-.772.19-.965-.842-.569-1.536.589-3.157-2.222-2.845-4.935.074-.646-.821-1.478-1.99-1.849-2.123-.674-5.928-3.937-5.928-5.084 0-.334.675-.348 1.5-.031.895.343 1.5.008 1.5-.832 0-.901-1.618-1.65-4.5-2.082-2.475-.371-4.5-1.104-4.5-1.629 0-.525-.848-.685-1.885-.355-1.296.411-2.637-.271-4.292-2.183-3.144-3.634-8.066-6.354-10.922-6.035-1.538.171-2.667-.506-3.476-2.084-.731-1.427-1.46-1.915-1.87-1.25-.37.598-1.988 1.088-3.595 1.088-3.395 0-4.625-2.893-3.513-8.263.369-1.78.666-4.362.66-5.737-.039-8.768-.419-11.763-1.754-13.831-.828-1.282-1.263-2.961-.967-3.732.296-.771-.12-3.266-.924-5.545-1.302-3.691-2.05-12.241-.8-9.142.278.688 1.142 1.25 1.921 1.25.78 0 1.462.787 1.517 1.75.066 1.167.366.917.9-.75.768-2.398.805-2.409.9-.25.055 1.237.514 2.25 1.021 2.25 1.252 0 2.494-6.015 1.43-6.93-1.908-1.642-9.795-3.171-13.302-2.578-3.409.576-3.705.876-3.271 3.32.438 2.473.266 2.384-2.151-1.106-3.079-4.447-3.272-5.706-.877-5.707 2.097-.002 6.308-8.809 6.134-12.827-.079-1.821-.266-2.092-.587-.85-.456 1.762-.52 1.762-1.952 0-1.376-1.692-1.439-1.626-.894.928.323 1.513.158 2.75-.366 2.75-.523 0-1.095-1.237-1.269-2.75-.221-1.924-.852-2.707-2.1-2.605-1.319.106-1.627-.349-1.183-1.75.475-1.496.103-1.895-1.766-1.895-2.331 0-4.767-1.635-4.767-3.2 0-.44.675-.8 1.5-.8 1.464 0 1.928-1.615 1.537-5.342-.158-1.496.243-1.704 2.127-1.106 2.162.686 2.218.607.828-1.158-3.489-4.429-4.462-4.675-14.439-3.654M356 98.566c0 .311.466 1.436 1.035 2.5 1.28 2.392-.513 2.689-1.847.306-1.59-2.842-2.287.222-1.177 5.175.793 3.542.747 5.04-.192 6.17-.85 1.025-1.308 6.557-1.459 17.638-.121 8.88-.461 19.187-.755 22.905-.585 7.403-.11 9.74 1.98 9.74 2.455 0 12.415-5.381 12.415-6.708 0-1.636 1.228-1.654 2.884-.042 1.03 1.003 1.243.954 1.081-.25-.383-2.843.04-3.855 1.785-4.269 1.399-.333 1.215-.637-.914-1.516-1.466-.605-2.959-2.027-3.318-3.159-.359-1.132-1.491-2.506-2.514-3.054-1.639-.877-1.804-1.936-1.391-8.915.29-4.912.073-8.163-.573-8.562-.572-.354-1.04-1.686-1.04-2.962 0-1.275-.714-2.911-1.586-3.635-1.066-.884-1.402-2.236-1.025-4.122.463-2.317.217-2.806-1.414-2.806-1.327 0-1.975-.675-1.975-2.059 0-1.256.434-1.791 1.112-1.372 1.72 1.063 2.843-1.666 1.546-3.76-.886-1.43-.873-2.048.054-2.625 1.57-.978.492-5.184-1.329-5.184-.76 0-1.383.255-1.383.566M182.64 174.63c-2.228 1.207-16.932 3.983-23.14 4.369-3.633.225 3.804 2.223 8.44 2.266 5.574.053 5.687.108 3.9 1.895-2.317 2.317-2.308 3.066.05 4.539 2.641 1.65 8.552-.288 10.184-3.338.695-1.298 1.638-2.361 2.095-2.361 1.697 0 .758-1.888-1.256-2.528l-2.087-.662 2.148-1.504c2.153-1.509 7.681-1.44 11.276.139 1.199.527 1.75.329 1.75-.631 0-.814-1.887-1.904-4.514-2.607-5.512-1.474-5.33-1.482-8.846.423M371 194.607c0 1.002-.553 1.395-1.468 1.044-.807-.31-1.734-.133-2.059.393-.325.526-.114.956.468.956 2.446 0 .809 2.896-1.984 3.509-2.265.498-3.181 1.361-3.585 3.379-.298 1.49-1.852 3.588-3.454 4.661-3.312 2.219-4.207 9.136-1.475 11.404 1.793 1.488 10.742-3.307 9.963-5.337-.266-.693.68-1.79 2.102-2.438 3.164-1.441 4.818-1.515 3.992-.178-.34.55-.141 1 .441 1s1.059-.34 1.059-.756c0-.82 2.967-2.103 10-4.323 4.376-1.382 6.456-4.903 3.848-6.515-1.069-.661-.131-2.406 1.294-2.406.564 0 .839.558.611 1.241-.966 2.899 5.217 5.235 6.852 2.589.496-.803.162-.955-1.068-.483-4.069 1.562-6.28-4.264-2.293-6.043 1.806-.805.88-1.051-4.75-1.261-10.127-.377-10.741-.354-13.494.515-2.252.711-2.364.623-1.128-.885 1.221-1.488 1.082-1.673-1.25-1.673-1.742 0-2.622.54-2.622 1.607" fill="#d3d3d3" fill-rule="evenodd"/></svg>