<svg xmlns="http://www.w3.org/2000/svg" width="500" height="629"><path d="M0 314.502v314.502l250.25-.252 250.25-.252.022-314.5c.012-172.975-.223-300.1-.521-282.5-.299 17.6-.685 31.775-.858 31.5-.173-.275-.445-10.175-.604-22-.37-27.512-1.3-39-3.157-39-.76 0-1.382-.45-1.382-1 0-.652-15.333-1-44-1s-44 .348-44 1c0 .55-.873 1-1.941 1-2.976 0-6.255 8.324-3.694 9.376.624.256.272.502-.782.545-2 .082-1.29 1.578.75 1.58 1.361.001 1.743 3.154 2.116 17.499.15 5.775.731 12.153 1.289 14.173.726 2.621.694 4-.111 4.817-.838.851-.679 1.476.623 2.438.962.711 1.761 2.593 1.774 4.182.014 1.59.489 4.903 1.056 7.363.567 2.461 1.076 8.012 1.132 12.336.059 4.529.598 8.358 1.271 9.031 2.233 2.233 2.69 7.798.77 9.38-1.657 1.364-1.651 1.411.108.85 1.48-.471 1.711-.231 1.129 1.169-.403.968-.759 5.019-.791 9.001-.049 6.092-.347 7.331-1.879 7.817-2.933.931-2.668 11.954.293 12.177 2.879.216 3.233.753 2.478 3.76-.378 1.504-1.103 2.308-1.732 1.919-.595-.368-1.475-.049-1.955.709-.633.998-.878 1.033-.889.128-.008-.687-.594-1.25-1.302-1.25-1.537 0-1.975 3.642-.72 5.986.866 1.619-2.741 6.106-3.993 4.968-.275-.25-.643.791-.818 2.313-.175 1.522-.706 2.527-1.181 2.234-.475-.294-1.159-.054-1.521.531-.458.742-1.083.713-2.057-.096-1.091-.906-1.536-.806-2.018.451-.341.887-1.007 1.613-1.481 1.613-.473 0-.655-.562-.403-1.25.711-1.94-1.139-4.111-2.92-3.427-.881.338-1.601 1.528-1.601 2.646 0 1.117-.605 2.031-1.345 2.031s-2.16.9-3.155 2c-2.151 2.377-3.5 2.569-3.5.5 0-.825-.45-1.5-1-1.5s-1 .9-1 2c0 2.213-1.547 2.71-2.338.75-.301-.747-.536-.545-.583.5-.108 2.402-1.654 2.194-3.522-.473-1.741-2.485-2.098-5.229-.557-4.277.604.373.969-.889.921-3.191-.043-2.095-.315-3.219-.604-2.498-.424 1.06-.84 1.037-2.171-.119-3.115-2.707-7.225-2.704-9.936.007-1.646 1.646-2.715 2.103-3.175 1.357-.382-.618-1.446-.835-2.365-.483-1.234.474-1.67.091-1.67-1.466 0-1.159-.576-2.107-1.281-2.107-2.619 0-5.055-8.877-3.545-12.917 1.104-2.952-.66-4.428-3.485-2.916-1.514.81-1.803 1.745-1.367 4.43.304 1.872.167 3.403-.303 3.403-.471 0-1.455.23-2.187.51-1.045.4-1.393-1.699-1.616-9.75-.672-24.33-.793-25.881-2.075-26.673-1.011-.625-.915-1.17.447-2.532 1.459-1.459 1.511-1.876.324-2.609-.777-.48-1.519-2.126-1.651-3.659-.131-1.533-.425-5.164-.654-8.069-.229-2.905-.992-5.977-1.697-6.826-1.044-1.259-1.037-1.696.04-2.361.863-.533 1.09-1.734.656-3.465-.366-1.456-1.07-2.397-1.566-2.091-.496.307-1.165.131-1.487-.39-.322-.521-.101-1.246.491-1.612.698-.432.476-1.103-.632-1.914-1.605-1.173-1.595-1.44.155-4.404 1.026-1.735 2.217-3.155 2.649-3.155.431 0 .784-.675.784-1.5 0-.862-.902-1.5-2.122-1.5-1.546 0-1.861-.34-1.158-1.25.53-.688.86-3.837.733-7-.176-4.352.106-5.75 1.158-5.75 1.788 0 1.78-1.751-.015-3.547-.974-.974-1.276-3.019-.987-6.678.23-2.901.436-6.101.46-7.111.026-1.128.567-1.634 1.404-1.313.749.288 1.611-.128 1.916-.923.306-.796.905-1.389 1.333-1.319 2.093.344 3.278-.254 3.278-1.654 0-1.217-.799-1.429-3.75-.999-2.062.301-3.075.254-2.25-.104 2.392-1.039 2.968-2.531 2.985-7.724.013-4.219-.186-4.706-1.485-3.628-1.036.86-1.5.898-1.5.122C333 .305 316.957 0 274 0c-35.641 0-59 .368-59 .929 0 .51-.762 1.69-1.693 2.622-1.592 1.591-1.592 1.768 0 2.931C215.672 8.212 215.419 9 212.5 9c-1.375 0-2.5.45-2.5 1s.45 1 1 1c2.079 0 1.033 4.855-1.198 5.563l-2.198.698 2.302 1.864c1.266 1.025 2.671 1.636 3.122 1.358.45-.279 1.733.777 2.851 2.347 1.782 2.503 1.889 3.315.873 6.626-.998 3.253-.923 3.946.545 5.019C219.4 36.013 219.479 37 217.5 37c-.825 0-1.5.675-1.5 1.5 0 .879.931 1.513 2.25 1.532 1.958.027 2.047.19.688 1.25-2.803 2.186-3.227 4.99-1.012 6.677 1.114.848 2.174 2.542 2.357 3.765.183 1.224.597 2.489.921 2.813.324.324.351 2.361.061 4.526-.346 2.574-.137 3.937.603 3.937.623 0 1.132-.525 1.132-1.167 0-.641.308-.859.684-.482 1.021 1.021 1.201 9.696.188 9.07-.48-.296-.872-1.412-.872-2.48S222.55 66 222 66s-1.006.563-1.014 1.25c-.007.688-.285 2.263-.616 3.5-.455 1.696-.179 2.25 1.12 2.25 1.164 0 1.526.516 1.115 1.587-2.406 6.27-1.375 12.281 1.315 7.663.844-1.45 1.024-1.192 1.05 1.5.027 2.976-.232 3.25-3.078 3.25-2.865 0-3.057-.208-2.442-2.655 1.075-4.284-1.403-4.694-4.125-.683-2.593 3.822-2.374 5.425.636 4.638 3.196-.836 9.336 3.521 8.571 6.082-.348 1.165-.742 2.635-.876 3.267-.134.632-.837 1.864-1.562 2.738-1.108 1.334-1.061 1.688.288 2.206.883.339 1.326 1.07.984 1.624-.342.553-.114 1.321.507 1.705.77.475.439 1.476-1.038 3.138a4469.313 4469.313 0 01-4.166 4.68c-1.928 2.16-1.935 2.309-.197 4.229 1.959 2.165 2.14 1.968-3.335 3.639-1.071.327-1.106.724-.164 1.86 1.506 1.814.513 3.532-2.04 3.532-1.717 0-1.8.255-.691 2.131 1.004 1.7 1.006 2.222.009 2.583-.858.31-1.055 1.661-.63 4.32.461 2.879.196 4.292-1.035 5.523-1.562 1.562-1.369 5.15.347 6.443 1.314.991.942 5-.464 5-.839 0-1.174.605-.831 1.5.72 1.875-2.79 2.047-5.627.275-1.643-1.027-2.184-.921-3.334.653-.756 1.033-1.892 1.557-2.525 1.166-1.415-.875-1.524-5.246-.152-6.094.55-.34 1.007-2.054 1.015-3.809.012-2.39.252-2.817.959-1.699 1.386 2.193 3.415-.191 2.531-2.976-.543-1.712-1.214-2.055-3.099-1.582-1.75.44-2.406.19-2.406-.915 0-.835-.45-1.519-1-1.519-1.205 0-1.349 4.666-.167 5.397.459.283.628 1.919.376 3.634-.506 3.445-1.852 2.866-2.374-1.021-.428-3.179-3.835-4.097-3.835-1.032 0 1.51-1.083 2.575-3.75 3.685-2.062.859-4.037 2.019-4.388 2.578-.351.558-1.139.706-1.75.328-1.33-.822-1.499-4.569-.206-4.569.498 0 .399-1.073-.219-2.384-.619-1.312-1.702-2.164-2.406-1.893-.705.27-1.281.061-1.281-.464s-1.35-.993-3-1.04c-2.671-.076-3 .237-3 2.848 0 1.613-.45 2.933-1 2.933s-1 .825-1 1.833c0 2.507-1.061 3.361-2.594 2.089-.901-.748-1.869-.745-3.281.011-1.351.723-2.209.74-2.633.053-.347-.56-1.049-.76-1.561-.443-.512.316-.931.151-.931-.367 0-.519-.945-1.19-2.099-1.492-1.696-.443-2.002-.178-1.594 1.384.278 1.062-.015 2.001-.651 2.084-.636.084-1.607.205-2.157.269-.551.065-2.095.883-3.432 1.82-1.59 1.113-2.826 1.374-3.573.754-.731-.607-1.549-.54-2.275.186-.846.846-1.504.827-2.588-.072-.991-.823-1.659-.872-2.103-.155-.45.73-1.243.734-2.589.014-1.64-.878-1.939-.706-1.939 1.119 0 2.734-2.36 1.051-4.6-3.281-1.311-2.535-1.707-2.711-3.684-1.64-2.625 1.421-7.341 1.278-10.421-.315-1.773-.917-2.73-.796-4.894.622-2.525 1.654-2.748 1.658-3.642.061-.655-1.17-1.686-1.518-3.297-1.114-1.856.466-2.706-.025-4.086-2.361-.959-1.623-2.063-2.752-2.455-2.51-.391.242-1.016-.345-1.388-1.305-.64-1.653-.744-1.651-1.982.029-1.223 1.661-1.349 1.629-1.996-.5-.416-1.371-.894-1.777-1.206-1.023-.89 2.156-2.521 1.367-1.809-.875.456-1.438.314-1.903-.441-1.436-2.564 1.584-4.573-2.569-4.282-8.85.307-6.603-1.552-16.121-4.265-21.838-1.334-2.812-1.462-4.05-.587-5.685.888-1.659.697-3.041-.923-6.705C73.795 92.283 73.472 90 75 90c.55 0 1-.675 1-1.5s-.426-1.5-.948-1.5c-.521 0-1.083-2.359-1.25-5.242-.268-4.644-.627-5.397-3.156-6.604-2.469-1.179-2.773-1.77-2.25-4.383.332-1.662.611-3.977.619-5.146.013-1.762.191-1.869 1.042-.625.721 1.054.865-.969.482-6.812-.299-4.571-.142-9.071.348-10 .528-1 .497-3.724-.076-6.688-1.757-9.084-1.322-19.977.959-24.054.846-1.511.723-2.349-.551-3.756-1.078-1.192-1.278-2.048-.583-2.501 1.527-.996 2.504-5.781 1.775-8.689L71.783 0H0v314.502m.494.498c0 172.975.115 243.737.256 157.25.141-86.488.141-228.013 0-314.5C.609 71.262.494 142.025.494 315M499.209 69.375L499 74.25l-3.125-.625c-1.719-.344-3.744-.625-4.5-.625-.756 0-1.375-.675-1.375-1.5s-.45-1.5-1-1.5-1 .81-1 1.8-.549 2.349-1.219 3.019c-1.268 1.268 2.846 6.181 5.175 6.181 1.729 0 1.173-1.82-.706-2.311-1.077-.281-.692-.502 1-.573 2.223-.094 2.75.317 2.75 2.143 0 2.056 3.585 5.489 4.635 4.439.242-.242.293-4.886.112-10.319-.181-5.433-.423-7.685-.538-5.004M125 216c-33.145.48-33.872.531-18.5 1.295 25.788 1.281 100.559.431 99.003-1.125-.705-.705-38.126-.784-80.503-.17m80.377 9.75c.198 1.512.7 3.557 1.115 4.543.415.986.514 2.035.218 2.33-.698.698-5.71-2.583-5.71-3.738 0-2.5-1.88-.388-2.549 2.865-.425 2.063-.927 4.2-1.117 4.75-.19.55-.624 2.575-.965 4.5-.817 4.613-2.182 6.194-4.667 5.405-1.429-.453-2.547.05-3.837 1.728l-1.821 2.367-.022-4.191c-.021-4.02-1.806-7.232-1.99-3.581-.331 6.576-.649 8.246-1.532 8.052-.55-.122-.868-.797-.706-1.5.161-.704-.401-1.28-1.25-1.28-1.033 0-1.544.949-1.544 2.865 0 1.576-.9 4.009-2 5.408-1.1 1.398-2 3.442-2 4.541 0 1.53-.486 1.872-2.074 1.456-1.618-.423-1.941-1.072-1.47-2.952.804-3.202-.209-4.768-2.079-3.216-1.128.937-1.985.91-3.91-.119-3.132-1.677-3.799-.986-2.456 2.545.586 1.543.679 3.068.205 3.389-.474.321-1.2 1.483-1.613 2.583-.731 1.946-.804 1.936-2.683-.368-1.378-1.689-2.288-2.08-3.176-1.365-1.528 1.232-5.69-.174-5.876-1.985-.072-.705-.446.293-.831 2.218l-.699 3.5-1.539-3.392c-.979-2.16-1.723-2.886-2.049-2-.332.905-.959.341-1.791-1.608l-1.278-3-.628 3c-.479 2.291-1.125 2.948-2.732 2.781-1.365-.142-2.285.472-2.619 1.75-.283 1.083-1.033 1.969-1.667 1.969-.634 0-.872-.454-.529-1.009 1.94-3.139-2.083-6.41-4.42-3.594-.681.82-2.073 1.161-3.373.826-1.969-.507-2.062-.385-.841 1.104.774.943.92 1.673.334 1.673-.572 0-1.274-.562-1.56-1.25-.379-.912-.902-.781-1.932.484-.776.954-1.705 1.442-2.063 1.084-.358-.358-.651.774-.651 2.515 0 1.742-.45 3.167-1 3.167s-1-1.173-1-2.607c0-1.906-.403-2.452-1.5-2.031-.825.316-1.5.139-1.5-.393 0-.533.487-.969 1.083-.969 2.916 0-.205-2.446-3.379-2.649-3.685-.236-5.659.941-3.655 2.179.722.446.52 1.288-.607 2.534-1.035 1.143-1.501 2.848-1.204 4.401.267 1.394.124 2.535-.318 2.535-1.61 0-2.409-2.627-2.519-8.285-.087-4.431-.556-6.111-2.007-7.18-1.099-.809-2.041-.982-2.245-.412-.193.541-.944.172-1.669-.82-1.254-1.715-1.44-1.689-3.794.522-1.578 1.483-2.716 1.936-3.14 1.25-.365-.591-1.114-1.075-1.664-1.075-.55 0-.68.518-.288 1.152.391.633-.059 1.715-1.001 2.404-1.09.797-1.327 1.49-.653 1.907 2.033 1.256.34 11.066-3.069 17.787-.665 1.311-.483 1.75.728 1.75 1.13 0 1.411.526.937 1.75-1.299 3.354-2.292 16.117-1.563 20.101.538 2.942.349 4.399-.708 5.456-.84.84-1.467 3.476-1.501 6.317-.033 2.682-.422 5.114-.865 5.406-.443.291-1.109 2.429-1.48 4.75-.773 4.834.859 5.856 2.348 1.47l.933-2.75.745 3.322c.843 3.755.356 4.605-2.661 4.648-1.16.016-2.298.593-2.53 1.28-.231.688.237 1.25 1.04 1.25 3.123 0 3.986 2.629 2.616 7.972-1.381 5.391-2.533 6.403-3.16 2.778-.357-2.062-.459-2.007-1.217.656-.654 2.295-.442 3.187 1.011 4.25 1.011.739 1.298 1.344.639 1.344-.924 0-.918.451.026 1.963.965 1.546.967 2.929.008 6.514-1.856 6.943-1.634 9.445.783 8.813 2.414-.631 2.882 4.006.669 6.631-2.331 2.767-5.126 11.427-3.827 11.86.637.212 1.158 1.5 1.158 2.861 0 1.396-.436 2.206-1 1.858-.55-.34-1-.141-1 .441S76.45 395 77 395s1 .675 1 1.5-.338 1.501-.75 1.503c-.412.001-.892 2.814-1.065 6.25-.173 3.436-.736 6.674-1.25 7.197-1.471 1.495-1.092 4.55.565 4.55 2.053 0 1.951 4.648-.128 5.812-1.911 1.069-.828 2.036 4.128 3.688 3.771 1.257 4.196 4.831.635 5.335-1.301.184-2.854-.154-3.45-.75-2.782-2.782-3.262-.957-2.931 11.165.184 6.738.294 14.88.246 18.094-.049 3.215.437 6.477 1.078 7.25.893 1.076.874 1.759-.078 2.906-.685.825-.949 1.5-.587 1.5.361 0 .15.948-.47 2.107-.816 1.524-.826 2.41-.036 3.2.791.791 1.093.622 1.093-.607 0-.935.45-1.7 1-1.7s1 1.088 1 2.418.283 3.157.63 4.06c.431 1.123-.013 1.809-1.408 2.174-2.23.583-3.627 3.979-2.041 4.96.546.337 1.494.113 2.106-.499.612-.612 1.473-1.113 1.913-1.113 1.386 0 .868 3.699-.7 5-1.72 1.428-2.01 4-.451 4 .623 0 .957 2.028.822 4.988-.125 2.744.078 5.294.451 5.667.373.373.678-.072.678-.988 0-2.166.483-2.103 3.412.443 1.964 1.708 2.322 2.756 1.876 5.5-.402 2.479-.178 3.394.831 3.405 1.112.013 1.094.197-.09.946-.809.512-1.122 1.279-.696 1.706.427.426 1.194.113 1.706-.696.737-1.166.934-1.01.946.748.01 1.558.462 2.047 1.515 1.643 1.143-.439 1.5.194 1.5 2.653 0 2.758.219 3.048 1.5 1.985 1.607-1.334 1.641-1.269 2.062 3.914.49 6.037 1.516 10.156 2.395 9.613.47-.291.62-1.429.332-2.528-.292-1.117-.03-1.999.594-1.999.615 0 1.117 1.377 1.117 3.059 0 1.762.419 2.8.989 2.448 2.314-1.43 8.011 2.617 8.011 5.69 0 1.935.436 2.822 1.25 2.547.688-.233 1.759.742 2.38 2.167 1.181 2.706 1.247 2.649 2.865-2.48.337-1.069 1.149-1.361 2.548-.917 1.129.358 2.647.159 3.372-.444.978-.811 1.642-.706 2.566.407 1.519 1.831 3.019 1.083 3.019-1.505 0-1.113.521-1.712 1.25-1.436.688.261 2.137-.854 3.221-2.476 1.085-1.623 2.135-2.787 2.335-2.587.829.828 4.2-3.073 4.273-4.945.043-1.116.307-1.463.585-.772.279.691.918 1.002 1.421.691 1.441-.89 1.068-2.447-.585-2.447-.825 0-1.5-.675-1.5-1.5s.477-1.5 1.059-1.5.742-.512.355-1.138c-1.146-1.855 6.785.039 8.255 1.971 1.529 2.012 1.627 2.866.414 3.615-1.556.963 2.002 8.552 4.01 8.552.984 0 2.07.455 2.414 1.011.399.646 1.345.506 2.623-.39 1.1-.77 2.916-1.16 4.037-.867 1.154.302 2.449-.071 2.987-.861.796-1.168 1.131-1.128 2.072.244.896 1.308 1.691 1.439 3.951.651 2.245-.782 3.636-.566 6.728 1.045 2.143 1.118 4.156 1.773 4.472 1.457.316-.316 1.189-.065 1.941.559.751.623 1.593.907 1.87.629.278-.277 2.037.126 3.908.895 3.675 1.511 7.855.677 7.967-1.591.035-.705.49-.218 1.01 1.082.755 1.885 1.231 2.128 2.348 1.202.975-.81 1.601-.84 2.059-.098.979 1.584 2.68.124 2.099-1.802-.362-1.199.643-2.197 3.59-3.561 2.252-1.043 4.312-2.73 4.579-3.75.584-2.234 2.097-2.422 2.888-.361.815 2.123 2.566.719 1.864-1.494-.826-2.601 1.522-3.69 3.152-1.462 1.308 1.79 1.348 1.789 1.348-.018 0-1.024.709-2.646 1.576-3.604.866-.957 1.671-2.343 1.789-3.078.117-.736 1.039-2.582 2.049-4.102 2.396-3.61 3.41-11.73 1.466-11.751-.921-.011-1.014-.26-.28-.75 2.09-1.396 2.138-3.743.123-5.959-1.764-1.939-1.821-2.301-.446-2.829 2.394-.919 6.01-.119 6.524 1.442.263.798.007 1.11-.602.734-.584-.361-1.312-.249-1.619.247-.72 1.166 2.833 2.096 5.42 1.42 2.103-.55 2.865-2.472.809-2.04-.654.137-1.353-.65-1.551-1.75-.199-1.1-.848-2.983-1.443-4.184-.596-1.202-.816-3.203-.491-4.448.326-1.245.106-2.85-.488-3.566-.785-.946-.754-1.302.113-1.302.658 0 1.064-1.011.903-2.25-.159-1.238.016-2.742.391-3.344.816-1.309-.914-8.085-2.28-8.929-.53-.327-.963-1.524-.963-2.658 0-1.644.282-1.83 1.383-.916 1.067.885 1.517.799 1.969-.377.322-.84.149-1.526-.383-1.526-.533 0-1.005-1.012-1.048-2.25-.043-1.238-.306-1.687-.583-1-.921 2.283-2.571 1.315-1.954-1.146.408-1.622.12-2.581-.891-2.968-3.112-1.195-1.576-8.009 2.007-8.904 1.816-.454 1.793-.511-.25-.616-2.625-.135-2.808-.996-.782-3.675 1.916-2.532 1.933-5.441.032-5.441-1.601 0-2.093-3.515-.621-4.425 1.002-.62 1.556-14.591 1.258-31.746-.112-6.418.189-11.913.669-12.209.837-.518-1.087-12.234-2.191-13.338-.294-.295.099-1.762.874-3.26.894-1.729 1.06-3.073.454-3.679-.605-.605-.163-1.803 1.211-3.278 1.762-1.891 1.952-2.666 1.018-4.161-.807-1.293-.848-2.625-.138-4.493.703-1.85.674-3.057-.095-3.985-.607-.731-.872-2.139-.587-3.128 1.373-4.776 1.629-18.175.372-19.464-1.129-1.158-1.545-4.046-2.105-14.584-.065-1.238-.457-2.25-.869-2.25s-.75-2.025-.75-4.5c0-3.333-.389-4.5-1.5-4.5-1.994 0-1.892-.608.5-3 2.36-2.36 2.624-5 .5-5-.862 0-1.5-.902-1.5-2.122 0-1.774.247-1.918 1.5-.878 1.274 1.058 1.498.813 1.485-1.628-.019-3.586-.926-5.028-3.485-5.542-1.739-.35-1.963-1.083-1.72-5.616.154-2.868-.127-5.214-.625-5.214-1.27 0-2.843-6.887-3.428-15-.326-4.534-2.465-8.315-4.304-7.609-.783.3-1.423.11-1.423-.422 0-.533.702-.969 1.559-.969s1.31-.403 1.006-.895c-.305-.493.114-1.152.93-1.465 1.157-.444 1.266-1.139.494-3.169-1.287-3.385-1.272-3.471.618-3.471.984 0 1.394-.555 1.057-1.433-.379-.988.425-1.647 2.587-2.122 2.947-.647 3.022-.772 1.251-2.067-2.481-1.814-3.261-1.738-3.813.372-.332 1.271-.489 1.111-.573-.583-.07-1.404-.614-2.158-1.366-1.893-.687.243-1.184 1.202-1.103 2.133.081.93-.369 1.519-1 1.31-.631-.21-1.193-1.59-1.248-3.067-.128-3.381-.971-4.25-2.717-2.801-1.496 1.241-2.682.571-2.682-1.516 0-.733.675-1.333 1.5-1.333s1.5-.45 1.5-1-1.157-1-2.572-1c-2.054 0-2.534-.453-2.389-2.25.31-3.831.014-4.75-1.531-4.75-1.047 0-1.384.818-1.131 2.75m171.739 12.326c-.101 2.241-3.695 6.924-5.314 6.924-.313 0-.91-1.012-1.326-2.25-.721-2.14-.78-2.109-1.194.614-.267 1.751-1.184 3.059-2.359 3.366-1.058.277-1.923 1.126-1.923 1.887 0 2.059-1.563 1.674-3.197-.788-1.62-2.439-3.803-1.766-3.803 1.171 0 1.035-.45 2.16-1 2.5-.55.34-1-.084-1-.941s-.625-1.559-1.389-1.559-1.326.787-1.25 1.75c.087 1.098-.513 1.698-1.611 1.611-.962-.076-1.75.247-1.75.719 0 .471-.675.598-1.5.282-1.032-.397-1.5.062-1.5 1.472 0 1.126-.45 2.326-1 2.666-.55.34-1 1.491-1 2.559 0 3.028-2.825 2.311-3.184-.809l-.316-2.75-2.334 3.753c-2.012 3.237-2.26 4.635-1.803 10.155.503 6.074.41 6.432-1.801 6.987-1.926.483-2.284 1.152-2.059 3.845.15 1.793-.066 3.71-.479 4.26-1.128 1.498-1.949 11.868-1.074 13.542 1.27 2.427-.747 7.958-2.902 7.958-1.776 0-1.8.19-.379 3.038 1.555 3.118 1.137 6.578-.662 5.466-.554-.342-1.007.053-1.007.878s.502 1.81 1.114 2.189c.753.465.885 2.677.407 6.809-.389 3.366-.838 10.212-.997 15.213-.365 11.468-1.183 14.594-3.123 11.94-1.835-2.509-3.06.368-1.443 3.389.827 1.545.817 2.078-.039 2.078-.734 0-.9.817-.458 2.25 1.706 5.529 2.331 10.309 1.464 11.2-1.211 1.244-1.205 7.841.006 7.093 1.601-.99 2.515 1.732 2.671 7.957.625 24.947.512 30.407-.754 36.415-.671 3.183-.603 4.619.244 5.142 1.115.689 1.259 5.758.476 16.715-.168 2.35.085 4.514.563 4.809 1.542.953.927 2.46-1.381 3.388-1.724.693-1.841.919-.5.968.962.034 1.75.351 1.75.703s-.788 1.237-1.75 1.968c-1.667 1.265-1.667 1.33 0 1.36 1.93.035 2.328 2.054.721 3.661-.705.705-.365 1.872 1.079 3.708 1.845 2.345 2.023 3.472 1.425 9.048-.456 4.258-.316 6.595.422 7.051 1.376.851 1.47 9.564.103 9.564-.55 0-1 .9-1 2s.612 2 1.361 2c.895 0 1.573 1.792 1.981 5.244.342 2.884 1.109 5.406 1.704 5.605 2.116.705 4.655 10.151 2.729 10.151-.436 0-.377.788.13 1.75s1.298 3.999 1.758 6.749c.75 4.476 1.229 5.183 4.587 6.758 2.063.967 3.787 2.093 3.831 2.501.045.408.263 2.092.486 3.742.853 6.337 1.407 11.128 1.665 14.414.312 3.979 2.768 5.568 2.768 1.792 0-4.442 2.613-5.466 7.342-2.876 3.656 2.003 4.248 2.083 5.25.714 1.548-2.118 4.408-1.951 4.408.256 0 .99.431 2.231.958 2.758 1.748 1.748-.515 4.054-2.424 2.47-1.226-1.017-1.9-1.062-2.776-.186-.877.877-.746 1.158.542 1.158.935 0 1.7.675 1.7 1.5s-.45 1.5-1 1.5-1 .483-1 1.073c0 .591.788.901 1.75.691.962-.211 1.638-.919 1.5-1.573-.137-.655.2-1.191.75-1.191s1 .45 1 1 .675 1 1.5 1 1.5-.45 1.5-1 .627-1 1.393-1c1.712 0 3.12-2.721 3.492-6.75.063-.688.641-1.138 1.283-1 1.33.285 3.795-3.89 3.817-6.465.008-.943.915-2.196 2.015-2.785 1.229-.658 2.012-2.117 2.032-3.785.031-2.653.068-2.669 1.615-.715 1.103 1.394 1.725 1.619 2.053.744.259-.691.882-1.002 1.385-.691 1.158.715 1.15.194-.048-2.956-.83-2.183-.485-3.04 2.5-6.205 3.439-3.646 4.657-8.536 2.463-9.892-1.425-.881-1.24-2.548.25-2.25 1.332.266 1.383-.422.298-4-.493-1.623-.273-2.25.788-2.25 1.347 0 2.453-10.033 2.635-23.899.017-1.319.433-2.894.925-3.5.491-.605.871-4.476.844-8.601-.093-14.171 1.467-43.501 2.363-44.45 1.321-1.399 1.135-5.815-.21-4.984-.763.471-.872-.055-.352-1.691 1.26-3.966 2.045-19.635 1.091-21.774-.492-1.103-1.623-2.199-2.513-2.437-1.414-.377-1.403-.447.091-.548 1.171-.079 1.708-.982 1.706-2.866-.002-1.512-.003-3.538-.002-4.5.002-.962-.039-2.762-.091-4-.051-1.238-.014-3.825.082-5.75.21-4.195-.443-9.443-1.359-10.926-.365-.591-.187-1.074.395-1.074 1.337 0 1.402-6.67.073-7.491-1.12-.693-.82-5.395.477-7.495.526-.85.442-1.536-.213-1.755-.722-.24-.611-1.289.337-3.19 1.397-2.8 1.008-6.069-.722-6.069-.491 0-.893-.661-.893-1.469 0-.894.586-1.243 1.5-.893.825.317 1.5.078 1.5-.531s-.675-1.107-1.5-1.107c-1.789 0-2.122-5.626-.367-6.211 1.457-.486 1.253-12.701-.275-16.504-1.455-3.617-1.972-12.097-.782-12.832 1.553-.959 1.078-5.453-.576-5.453-1.781 0-1.994-3.106-.327-4.773.897-.897.89-1.794-.031-3.815-.662-1.453-.935-3.49-.606-4.527.33-1.037.13-1.885-.444-1.885-.654 0-.741-.838-.233-2.25.445-1.238.656-3.825.468-5.75-.188-1.925-.546-6.595-.796-10.379-.251-3.783-.735-7.158-1.076-7.5-1.173-1.173-5.398-.712-5.919.646-.844 2.198-2.536.361-2.536-2.753 0-1.89-.596-3.023-1.75-3.325-1.502-.392-1.517-.473-.107-.573.904-.064 1.913-.819 2.242-1.678.449-1.17.045-1.483-1.615-1.25-1.843.26-2.313-.282-2.8-3.222-.85-5.134-2.087-6.854-3.163-4.4-.755 1.723-.802 1.692-.431-.279.519-2.75-2.101-5.35-3.351-3.328-.631 1.021-.935.89-1.308-.564-.365-1.425-.514-1.256-.601.681" fill="#d3d3d3" fill-rule="evenodd"/></svg>