<svg xmlns="http://www.w3.org/2000/svg" width="500" height="676"><path d="M282.457 3.168c-.727 2.406-1.855 3.475-4.685 4.44-2.05.7-5.134 2.874-6.853 4.832-3.614 4.116-4.477 4.356-5.235 1.459-.302-1.155-1.016-1.812-1.587-1.459s-2.379-.052-4.018-.899c-6.049-3.128-11.945-.001-13.737 7.286-.575 2.339-9.514 27.944-13.938 39.923-2.042 5.529-2.639 5.377-5.878-1.5-3.274-6.953-7.149-12.25-8.962-12.25-.734 0-2.059-1.107-2.946-2.46C209.678 35 200.977 29 194.982 29c-4.996 0-13.826 5.935-13.95 9.376-.018.482-1.382 3.533-3.032 6.78-1.65 3.247-3 6.502-3 7.233 0 .731-1.571 3.305-3.49 5.72-1.92 2.415-3.495 5.187-3.5 6.16-.006.973-1.146 5.021-2.535 8.995-4.033 11.545-3.683 10.785-15.231 33.06-2.068 3.989-2.94 4.075-11.824 1.168-33.073-10.823-59.848-12.423-75.92-4.537-7.55 3.704-9.132 4.892-18.368 13.795-4.137 3.987-8.075 7.25-8.75 7.25-.676 0-2.505 1.276-4.065 2.837-1.56 1.56-3.315 3.022-3.9 3.25-2.172.844-13.198 13.94-14.827 17.611-.928 2.091-2.174 4.678-2.769 5.748-.596 1.07-1.279 4.895-1.52 8.5-.24 3.605-1.138 8.217-1.996 10.25-.858 2.033-1.276 4.437-.929 5.342.347.905-.091 4.641-.974 8.303-1.319 5.473-1.421 8.173-.574 15.159 1.414 11.657 1.899 13.481 5.72 21.5C12.715 229.146 17 241.142 17 243.361c0 .567 2.081 5.105 4.625 10.085 7.392 14.472 12.458 18.414 21.853 17.005 4.421-.663 4.575-.596 5.632 2.434.597 1.713 1.491 3.115 1.986 3.115.495 0 2.811 1.8 5.147 4 6.227 5.866 7.988 5.436 11.847-2.894 2.708-5.843 3.845-7.218 7.468-9.028l4.273-2.134 4.022 2.097c4.786 2.494 7.612 1.57 8.447-2.763 2.308-11.975 7.745-19.647 9.41-13.278.288 1.1.881 2 1.319 2 .437 0 1.095 1.772 1.461 3.939.451 2.669 1.088 3.776 1.977 3.435.735-.282 1.089-1.357.804-2.444-.279-1.067.028-2.585.682-3.373 1.38-1.663.401-10.65-1.277-11.731-.703-.452-.611-1.199.278-2.271.972-1.171 1.184-3.858.796-10.085-.489-7.828.428-11.776 1.864-8.033.78 2.033 2.053 2.012 2.053-.034 0-.879-1.05-2.076-2.334-2.661-2.53-1.153-3.191-3.742-.955-3.742.758 0 2.993.675 4.968 1.5 4.593 1.919 9.536 1.916 11.662-.007 1.959-1.773 15.242-2.704 14.65-1.028-.201.569-1.106.903-2.012.741-1.19-.212-1.646.445-1.646 2.373 0 2.256.23 2.475 1.5 1.421 1.22-1.013 1.5-.964 1.5.261 0 .828-.9 1.741-2 2.029-1.1.287-2 1.289-2 2.225 0 1.331.563 1.56 2.583 1.053 2.062-.517 2.691-.236 3.117 1.392.293 1.122.931 2.04 1.417 2.04.485 0 .883.45.883 1s-.873 1-1.941 1-2.266.526-2.664 1.17c-.486.787-.178.961.941.531 1.357-.52 1.664.008 1.664 2.866 0 3.119.206 3.393 1.881 2.497 2.026-1.085 3.119 1.72 3.119 8.002 0 3.932 1.701 4.574 2.498.943.364-1.655 1.075-3.009 1.581-3.009.507 0 .921-.43.921-.955 0-1.944 4.809-5.836 5.884-4.761 1.316 1.316 6.35 1.903 5.575.65-.317-.514-1.225-.934-2.018-.934-.793 0-1.441-.45-1.441-1s.408-1 .906-1c.499 0 .671-.9.384-2-.459-1.753-2.076-2.507-4.54-2.118-1.056.166-.935-1.532.432-6.095.956-3.193.926-4.102-.162-4.775-.984-.608-.719-.922.99-1.171 1.283-.188 2.539-.966 2.791-1.73.278-.843.014-1.115-.671-.691-.655.405-1.13.043-1.13-.861 0-1.463 1.733-2.038 4.85-1.611.743.102 1.057-.289.698-.87-.41-.663-.014-.81 1.064-.397 1.164.447 1.484.283.993-.511-.398-.644-.33-1.17.15-1.17 1.21 0 5.245 7.765 5.245 10.095 0 1.048-.54 1.905-1.2 1.905-.933 0-.933.267 0 1.2 1.63 1.63 1.459 5.874-.332 8.241-1.926 2.547-1.861 3.647.169 2.868 1.428-.548 1.578.09 1.172 4.985-.397 4.789-.244 5.489 1.041 4.77 1.134-.635 1.456-2.419 1.301-7.204l-.205-6.36 1.89 2.394c1.052 1.333 2.394 2.082 3.027 1.691 1.879-1.162 1.286-3.59-1.113-4.554-1.238-.497-1.645-.933-.906-.968 1.038-.049 1.184-1.227.639-5.186-.483-3.513-.337-5.349.464-5.844 1.312-.811.399-6.033-1.055-6.033-1.011 0-1.186-3.07-.307-5.361.452-1.178 1.15-1.31 3.065-.582 3.896 1.481 5.344 1.132 5.418-1.307.066-2.199.093-2.193 1.196.25 1.585 3.509 1.735 3.619 2.736 2 .49-.793 1.217-1.116 1.616-.717.399.399-.252 1.765-1.445 3.035-2.628 2.798-2.718 3.503-.421 3.321 2.365-.188 2.752 3.264 1.287 11.505-1.911 10.753-2.058 17.856-.371 17.856 3.969 0 7.456 3.075 7.143 6.298-.209 2.15-.907 3.299-2.15 3.535-1.012.192-2.726 1.234-3.809 2.317-3.134 3.134-8.197 2.191-8.857-1.65l-.516-3-2.239 3.618c-2.742 4.433-2.764 5.061-.238 6.882 1.1.793 2 2.481 2 3.752s.675 2.57 1.5 2.886c.825.317 1.5 1.01 1.5 1.54 0 .531.675 1.64 1.5 2.465s1.5 2.41 1.5 3.522c0 1.181.832 2.24 2 2.545 2.066.541 2.8 2.29.961 2.29-.571 0-.11.997 1.026 2.217 1.136 1.219 1.984 2.906 1.885 3.75-.098.843.088 2.208.416 3.033.327.825.794 2.4 1.037 3.5.244 1.1.527.2.629-2 .312-6.696 1.42-8.424 2.983-4.651.718 1.733 1.621 3.151 2.006 3.151.385 0 .807 2.357.939 5.238.134 2.936.896 5.964 1.735 6.891 1.373 1.518 2.138 4.55 2.314 9.18.038.995.454 1.571.925 1.28.471-.291.66-2.68.421-5.309-.304-3.332.033-5.386 1.112-6.78.86-1.112 1.562-1.445 1.579-.75.018.688.932 1.25 2.032 1.25 1.467 0 2 .667 2 2.5 0 1.556.567 2.5 1.5 2.5.825 0 1.5.45 1.5 1s.477 1 1.059 1 .8-.419.484-.931c-.969-1.568.874-1.949 2.246-.464.83.897.898 1.395.191 1.395-.604 0-.82.45-.48 1 .34.55.029 1.007-.691 1.015-.933.011-.979.227-.162.75 2.128 1.363 2.083 8.235-.053 8.235-.914 0-1.224.7-.884 2 .304 1.162.031 2-.652 2-.647 0-.927.403-.623.895.305.493-.119 1.153-.941 1.469-.822.315-1.494.082-1.494-.518 0-.677-.624-.573-1.644.274-1.447 1.201-1.571 1.125-1.03-.628.337-1.096.23-4.242-.239-6.992-.468-2.75-.905-4.009-.969-2.797-.156 2.921-2.217 7.354-3.151 6.777-.407-.252-1.292.207-1.966 1.019-1.431 1.724.888 3.141 3.499 2.139 1.166-.447 1.503.252 1.515 3.143.012 2.923.247 3.398 1.095 2.219.932-1.297 1.009-1.279.562.128-.283.896-.068 2.076.479 2.623.659.659.611 2.42-.145 5.226-1.539 5.715-2.171 14.023-1.068 14.023.493 0 1.122-.562 1.4-1.25.277-.687.54-.223.583 1.031.093 2.677-1.903 3.691-5.49 2.791-1.922-.482-2.493-1.199-2.279-2.858.367-2.838-.838-4.772-2.561-4.11-.955.366-1.545-.809-2.03-4.044-.447-2.984-1.181-4.56-2.122-4.56-.993 0-1.444-1.161-1.454-3.75-.009-2.062-.346-3.248-.75-2.635-1.933 2.934-4.838 2.441-6.53-1.108-.92-1.929-2.335-3.507-3.144-3.507-.912 0-1.727-1.423-2.146-3.75-.372-2.062-1.106-4.293-1.631-4.956-.526-.664-.728-1.575-.449-2.026.955-1.546-3.741-18.195-4.826-17.11-.39.39-1.234 8.128-1.455 13.342-.07 1.657-.247 1.743-1.035.5-.632-.999-.904 1.8-.814 8.375.129 9.354.285 10.038 2.965 12.973 1.557 1.704 2.83 3.447 2.83 3.875 0 .427.914 1.691 2.03 2.807 2.331 2.331 5.421 2.215 9.336-.35 3.359-2.201 4.379-1.595 5.227 3.105 1.064 5.898 7.527 15.877 9.495 14.661.502-.31.912.123.912.964 0 .952-.569 1.309-1.511.947-1.089-.417-1.336-.122-.884 1.057.487 1.269.94 1.379 2.012.489 1.063-.882 1.391-.83 1.418.225.02.754.679.247 1.465-1.128 1.43-2.502 1.898-2.1 1.539 1.326-.218 2.09 3.346.792 4.295-1.565.341-.846.534-.748.587.3.043.859-.811 2.517-1.898 3.684-1.972 2.117-1.972 2.123.172 2.438 1.181.175 2.354.942 2.606 1.706.305.924.029 1.124-.823.597-.751-.464-1.736-.211-2.38.611-1.059 1.353-7.13 3.903-9.291 3.903-.578 0-1.342-1.818-1.697-4.04-.753-4.704-2.723-5.002-6.359-.96l-2.249 2.5-.126-2.75a455.7 455.7 0 0 0-.227-4.5c-.062-1.077.563-1.697 1.625-1.611.949.076 1.726-.261 1.726-.75s.45-.889 1-.889 1 .9 1 2c0 1.467.667 2 2.5 2 3.145 0 3.173.126-1-4.43-2.331-2.545-3.5-3.278-3.5-2.196 0 2.816-1.495 1.761-1.594-1.124-.144-4.221-.914-7.158-2.22-8.464-.652-.652-1.186-1.996-1.186-2.986 0-2.175-2.83-2.408-3.638-.3-.317.825-.235 2.287.182 3.25 1.796 4.146 2.473 10.363 1.23 11.294-.4.3.192 2.401 1.314 4.67 1.123 2.268 2.081 5.509 2.129 7.202.072 2.544.334 2.872 1.511 1.895.961-.798 1.644-.846 2.098-.146.371.569 1.627 1.537 2.792 2.15 1.607.845 1.994 1.764 1.604 3.806-.413 2.157.159 3.27 2.882 5.607 2.181 1.872 2.949 3.098 2.147 3.426-.976.4-.946.943.14 2.494.763 1.09 1.16 2.852.882 3.917-.279 1.064-.061 1.935.483 1.935 2.009 0 3.916 16.957 2.04 18.147-.963.611-.847.826.454.838.963.008 1.75.6 1.75 1.315 0 .72-1.115 1.3-2.5 1.3-1.741 0-2.5-.547-2.5-1.8 0-.99-.45-1.8-1-1.8s-1 .45-1 1c0 1.933-1.677.971-3.049-1.75-.762-1.512-2.526-3.746-3.919-4.964-1.392-1.218-1.954-2.23-1.247-2.25.966-.027 1.024-.524.237-1.995-.577-1.078-.971-2.316-.877-2.75.095-.435-.196-1.64-.645-2.677-.495-1.14-.357-2.524.348-3.5 3.137-4.34 3.476-5.97 1.782-8.555-2.683-4.095-8.992-6.618-14.143-5.655-4.511.842-7.21.076-6.094-1.731.357-.577-.073-1.454-.956-1.948-1.067-.597-1.695-2.551-1.871-5.82-.146-2.707-1.035-6.411-1.975-8.23-1.812-3.503-1.868-11.104-.091-12.41 1.499-1.101-2.979-.914-6.048.253-2.575.979-2.651.912-1.986-1.74.381-1.517 1.124-3.025 1.652-3.351.603-.372.551-1.666-.138-3.48-.91-2.392-.809-3.099.584-4.117 1.521-1.113 1.455-1.28-.691-1.749-4.435-.97-6.371-1.033-7.623-.247-.843.529-1.25.14-1.25-1.192 0-1.086-.562-2.202-1.25-2.48-.687-.277-.211-.54 1.059-.583 1.395-.048 2.043-.509 1.637-1.166-.369-.598-1.452-.883-2.407-.634-.954.25-2.816-.145-4.137-.877-1.321-.732-3.527-1.349-4.902-1.37-1.375-.022-3.85-.859-5.5-1.86-5.494-3.335-7.51-3.336-12.955-.005-2.775 1.697-5.405 3.704-5.845 4.459-.44.756-1.666 1.374-2.725 1.374-1.654 0-1.788-.362-.95-2.565 1.259-3.313 1.237-3.473-.394-2.847-.812.312-1.587-.311-1.906-1.531-.296-1.132-1.255-2.057-2.131-2.057-.877 0-1.594-.45-1.594-1s-.805-1-1.788-1c-2.404 0-8.787-7.79-9.668-11.799-1.208-5.502-7.965-7.357-9.179-2.52-1.005 4.004 1.479 7.749 5.392 8.131 2.149.209 3.857 1.241 5.219 3.154C104.07 324.907 104.761 331 103 331c-.55 0-1 .9-1 2s-.45 2-1 2-1 .873-1 1.941-.415 2.198-.923 2.511c-.508.314-1.241 2.028-1.63 3.809-.389 1.782-1.549 4.312-2.577 5.624-1.029 1.312-1.87 2.999-1.87 3.75 0 .751-.408 1.365-.906 1.365-.499 0-.683.857-.409 1.904.339 1.296-.143 2.107-1.51 2.541-2.145.68-3.034 8.906-1.092 10.107 1.248.771 1.161 4.179-.127 4.975-.574.355-1.602.182-2.284-.384-.682-.566-2.125-.864-3.206-.663-1.081.202-2.279.401-2.661.443-.383.043-.833 2.179-1 4.749-.319 4.884-2.522 7.127-3.464 3.526-.702-2.688-4.248-3.489-7.118-1.608-2.499 1.637-2.286 5.136.408 6.71.753.44 1.369 1.522 1.369 2.405 0 1.405.249 1.38 2-.205 1.799-1.628 2-1.643 2-.155 0 .91-.45 1.655-1 1.655-1.329 0-1.289 4.704.048 5.53.576.356.925 1.395.775 2.309-.481 2.924 1.045 4.137 4.368 3.473l3.114-.623-.647 4.05c-.722 4.514.91 6.098 4.372 4.245 1.864-.998 5.018 2.302 3.577 3.742-.655.656 2.504 6.274 3.528 6.274.839 0 3.442 7.971 4.327 13.25.501 2.987.314 3.75-.917 3.75-.85 0-1.545.695-1.545 1.544 0 .911.71 1.423 1.732 1.25 1.43-.243 1.855.788 2.433 5.896.385 3.405 1.181 7.088 1.768 8.185 1.65 3.083 1.268 7.747-.929 11.351-2.613 4.285-2.523 5.106.496 4.529 1.942-.371 2.5-.063 2.5 1.384 0 1.023.505 1.861 1.122 1.861.743 0 .671.544-.211 1.607-3.221 3.882-7.18 12.127-6.594 13.736.231.636 1.016-.111 1.743-1.66.92-1.96 1.872-2.672 3.133-2.343 1.009.264 2.198-.216 2.683-1.083.515-.92 1.666-1.348 2.816-1.048 1.431.374 2.279-.247 3.21-2.35 1.449-3.273 3.682-3.746 4.564-.967.668 2.104 9.409 9.303 10.487 8.637.377-.233 4.141 2.869 8.366 6.893 6.821 6.497 7.681 7.723 7.681 10.947 0 3.336.235 3.631 2.885 3.631 2.84 0 6.448 3.715 6.448 6.639 0 .661 1.05 1.763 2.334 2.45 1.283.687 2.333 2.073 2.333 3.08 0 1.033.717 1.831 1.646 1.831 1.455 0 3.971 2.002 14.54 11.569 1.478 1.337 3.053 2.431 3.502 2.431 1.1 0 15.306 13.572 15.333 14.648.024.958 7.336 6.345 8.639 6.364.462.007 2.656 1.695 4.876 3.75 2.221 2.056 5.078 4.423 6.351 5.261 2.874 1.891 7.912 14.207 5.101 12.469-.98-.605-1.151-.359-.654.937.371.966.96 2.952 1.308 4.414 1.485 6.225 4.358 6.323 4.358.148 0-5.287 2.135-6.41 7.185-3.778 2.104 1.097 4.074 2.398 4.379 2.891.305.493 1.343.896 2.306.896.964 0 2.719.9 3.9 2 1.18 1.1 2.408 2 2.729 2 2.086 0 13.501 9.859 13.501 11.661 0 .736.439 1.339.975 1.339s1.869 1.963 2.963 4.363c1.317 2.891 2.985 4.777 4.945 5.588 3.834 1.589 15.991 1.576 20.831-.022 4.645-1.533 36.639-23.101 43.934-29.617 1.731-1.547 5.106-4.381 7.5-6.299 7.091-5.682 17.363-15.931 25.069-25.013 3.967-4.675 7.883-8.912 8.703-9.415 1.464-.898 4.638-4.115 12.572-12.744 6.503-7.071 17.476-21.242 17.492-22.591.009-.687.411-1.25.894-1.25.483 0 2.621-2.588 4.75-5.75 2.13-3.163 4.115-5.975 4.411-6.25 3.612-3.35 18.566-29.846 23.986-42.5 1.505-3.515 8.006-21.822 9.587-27 5.148-16.859 10.836-33.417 12.367-36 .978-1.65 2.318-4.687 2.977-6.75.66-2.062 1.6-3.75 2.09-3.75.49 0 .63-.68.311-1.511-.415-1.082-.121-1.336 1.032-.893 1.012.388 1.611.094 1.611-.793 0-.776 1.097-3.636 2.439-6.357 4.169-8.457 7.581-18.559 9.608-28.446 1.072-5.225 2.44-11.75 3.041-14.5 4.517-20.674 7.273-35.173 7.984-42 .458-4.4 1.299-10.925 1.87-14.5 2.06-12.909 4.109-51.175 3.133-58.509-1.815-13.644-5.004-33.09-6.558-39.991-.867-3.85-2.89-13.075-4.496-20.5-8.64-39.94-22.094-62.876-42.521-72.488-18.981-8.932-25.345-10.24-56.893-11.693-21.985-1.013-23.2-.97-30.62 1.063-4.25 1.165-8.798 2.125-10.107 2.133-1.309.008-4.405.725-6.88 1.593-3.5 1.228-22.122 4.338-26.25 4.384-.413.004-.75-.929-.75-2.075 0-1.237-.508-1.903-1.25-1.64-.687.244-1.143 1.406-1.012 2.583.218 1.953-.236 2.14-5.178 2.14h-5.417l-1.198-5.354c-.659-2.945-.921-7.107-.582-9.25 2.947-18.646 2.836-50.973-.187-54.504C291.285 3.852 290.036 3 289.4 3c-.635 0-1.715-.675-2.4-1.5-1.949-2.348-3.503-1.778-4.543 1.668M107.593 172.487c-.442 1.758-1.077 2.265-2.267 1.808-1.11-.426-1.416-.25-.931.535.398.644.299 1.17-.219 1.17-.519 0-1.221.787-1.56 1.75-.34.963-.879 2.313-1.2 3-.748 1.605 6.161 1.744 7.15.143.46-.744.893-.769 1.321-.076.41.663 2.328.298 5.391-1.028 4.864-2.106 4.888-2.155 3.789-7.789-.054-.275-.5.135-.992.912-.755 1.194-1.151 1.155-2.556-.25-.914-.914-1.967-1.695-2.34-1.736-.374-.041-1.645-.256-2.826-.478-1.612-.303-2.3.205-2.76 2.039m11.552 10.044c-1.847 1.555-3.114 2.061-3.355 1.34-.896-2.688-4.998 1.587-8.823 9.194l-4.014 7.985 2.773-.684c4.46-1.101 7.162-3.615 7.898-7.349.518-2.628.842-3.039 1.32-1.676.572 1.629 1.148 1.462 5.846-1.7 2.866-1.928 6.069-3.779 7.118-4.112 1.718-.545 3.62-3.335 2.82-4.135-1.8-1.799-8.924-1.1-11.583 1.137m181.584 1.563c-.974.566-1.53 1.419-1.236 1.895.295.477-.371 1.155-1.48 1.507-2.403.762-4.385 4.092-3.621 6.082.3.782.109 1.422-.423 1.422-.533 0-.969-.45-.969-1s-.418-.888-.929-.75c-.512.137-1.622-.65-2.469-1.75-.846-1.1-1.553-1.47-1.57-.821-.018.648.622 1.832 1.42 2.631 2.032 2.031.602 3.049-1.549 1.102-1.957-1.771-5.903-1.102-5.903 1 0 .703-.942 2.13-2.093 3.172-2.669 2.416-3.987 4.895-4.42 8.32-.189 1.495-1.539 7.191-2.999 12.657-1.46 5.467-2.73 10.581-2.822 11.366-.091.785 2.147 2.762 4.974 4.392 4.552 2.625 5.091 3.282 4.704 5.735-.24 1.524.034 3.062.61 3.417.575.356 1.046 1.858 1.046 3.338 0 2.071.518 2.732 2.25 2.87 3.247.258 7.891 1.11 8.141 1.493 3.713 5.688 3.705 5.642 1.349 7.392l-2.24 1.664 2.377-.554c1.349-.314 3.401.117 4.743.996 2.71 1.776 5.38 1.158 5.38-1.246 0-1.045.543-1.43 1.5-1.062.825.316 1.5.139 1.5-.393 0-.533.477-.969 1.059-.969s.781.45.441 1-.093 1 .548 1 .912.661.603 1.468c-.706 1.838.645 2.739 2.843 1.896 1.351-.519 1.417-.826.34-1.597-.99-.709-.872-.807.454-.378 1.07.346 2.012-.008 2.347-.88.65-1.694-2.173-4.913-3.558-4.056-.516.319-1.221.122-1.567-.437-.345-.559-1.726-1.016-3.069-1.016-2.442 0-3.015-1.341-1.858-4.355.703-1.834 3.417-1.023 3.417 1.021 0 .799.45 1.174 1 .834.55-.34 1-1.726 1-3.08 0-1.635.814-2.834 2.421-3.566 1.331-.607 2.305-1.609 2.164-2.228-.142-.62-.068-.788.162-.376.639 1.142 3.253.894 3.253-.309 0-.582-.398-.813-.884-.513-.486.301-1.438-.792-2.116-2.428-.678-1.636-1.588-2.755-2.023-2.486-.435.269-.598-.524-.363-1.763.393-2.073.356-2.092-.47-.251-.734 1.635-.902 1.335-.921-1.647-.027-4.238-1.068-8.053-2.045-7.495-.373.212-1.544-.456-2.603-1.486-1.222-1.188-1.457-1.872-.643-1.872.729 0 1.034-.647.706-1.5-.316-.825-.139-1.5.393-1.5.533 0 .969.473.969 1.051s1.591-.162 3.534-1.645c3.514-2.68 3.534-2.739 3.366-9.996-.119-5.122-.577-7.456-1.535-7.823-.751-.288-1.365-1.663-1.365-3.056 0-1.392-.45-2.531-1-2.531s-1-1.575-1-3.5c0-2.066-.459-3.398-1.12-3.25-.616.137-1.873-1.069-2.793-2.681-1.955-3.424-2.941-3.88-5.358-2.475m-200.353.992c-1.719.498-3.575 1.47-4.125 2.16-1.48 1.856-2.064 7.636-.824 8.153.73.306.693.719-.117 1.297-1.836 1.309-1.347 7.312.592 7.265 2.423-.059 9.2-9.84 12.095-17.454.877-2.305.734-2.5-1.772-2.417-1.499.05-4.131.498-5.849.996m26.983 6.242c-2.672 1.83-5.759 4.74-6.859 6.466-1.1 1.725-2.548 2.947-3.218 2.715-1.937-.671-2.664 1.538-1.04 3.162 1.26 1.26 2.662 1.306 9.451.314 7.783-1.138 8-1.246 9.204-4.575.79-2.187 1.888-3.41 3.061-3.41 1.867 0 3.253-2.058 3.589-5.332.137-1.334-.32-1.699-1.68-1.344-1.027.269-1.867.081-1.867-.418 0-2.082-6.088-.696-10.641 2.422m2.611 14.987c-.259.232-4.257.691-8.886 1.02-9.065.644-11.135 1.548-8.517 3.72 2.231 1.852 22.753 2.008 24.583.188 1.019-1.013.981-1.535-.193-2.684-1.515-1.484-6.168-2.978-6.987-2.244m136.548 55.98c.035 7.604.426 9.945 2.149 12.866 1.375 2.329 1.922 4.538 1.575 6.353-.347 1.816-.164 2.556.528 2.128.582-.36 1.287-.089 1.566.602.402.998.522.999.585.006.043-.687.754-1.25 1.579-1.25 1.883 0 1.943-3.011.111-5.517-.764-1.045-1.163-2.486-.888-3.204.275-.717-.055-1.974-.734-2.792-.857-1.033-.891-1.487-.111-1.487.617 0 1.122-.765 1.122-1.7 0-1.256.293-1.407 1.122-.578 1.264 1.264 4.165.552 3.32-.815-.3-.486.265-.593 1.256-.236.991.356 1.48.292 1.087-.143-1.226-1.357 1.228-4.915 2.508-3.635 1.758 1.758 3.707 1.288 3.707-.893 0-1.1-.351-2-.781-2-.429 0-1.262-1.275-1.85-2.833-1.133-3.003-4.364-3.926-4.377-1.25-.012 2.486-4.511 4.166-6.704 2.503-1.623-1.231-1.488-1.359 1.462-1.388 1.788-.018 3.25-.509 3.25-1.091s-.52-.738-1.155-.346c-.691.428-.883.276-.479-.378.449-.727-.243-.926-2.074-.593-1.512.274-3.056.994-3.43 1.599-.466.754-1.18.602-2.262-.48-1.182-1.182-1.268-1.709-.341-2.084.832-.336.742-.527-.272-.58-1.25-.065-1.505 1.533-1.469 9.216M227.5 319c-.34.55.132 1 1.048 1 1.128 0 1.464.526 1.042 1.627-.374.973.086 2.147 1.141 2.918.971.71 1.405 1.653.963 2.094-.441.442-1.18.193-1.641-.553-.656-1.061-1.087-.891-1.981.779-.638 1.193-.727 2.135-.201 2.135 1.41 0 .147 3.779-1.47 4.399-1.503.577-1.975 4.601-.54 4.601.474 0 .648 1.119.386 2.488-.316 1.651.046 2.687 1.076 3.082.853.328 1.314 1.213 1.024 1.969-.421 1.096.11 1.19 2.63.467 1.93-.553 4.13-.536 5.656.044 3.696 1.406 4.573 1.173 3.873-1.03-.345-1.089-.164-2.776.403-3.75.933-1.604 1.033-1.564 1.061.421.016 1.205.457 2.455.98 2.778 1.124.695 3.386-3.117 2.602-4.385-.297-.481.186-1.153 1.074-1.494 1.22-.468 1.493-.152 1.116 1.29-.347 1.326.227 2.241 1.879 2.993 2.772 1.263 3.26-.135.879-2.516-.825-.825-1.5-2.619-1.5-3.987 0-1.404-.436-2.219-1-1.87-.552.341-1-.379-1-1.608 0-2.897-1.251-1.637-1.597 1.61-.278 2.601-2.972 6.084-3.679 4.756-.222-.417-.29-2.412-.15-4.434.168-2.431-.225-3.86-1.16-4.219-1.748-.67-1.815-2.985-.164-5.649 1.486-2.398-.226-4.036-3.361-3.217-1.315.344-1.889-.032-1.889-1.239 0-1.309-.611-1.616-2.5-1.255-1.375.263-2.5.09-2.5-.384 0-1.183-1.743-1.086-2.5.139" fill="#d3d3d3" fill-rule="evenodd"/></svg>