<svg xmlns="http://www.w3.org/2000/svg" width="500" height="502"><path d="M0 251.028v251.027l244.25-.423c134.338-.233 245.712-.551 247.5-.707 3.196-.279 4.779-2.925 1.75-2.925-.825 0-1.5-.477-1.5-1.059s.412-.804.916-.493c.504.312 2.118.109 3.587-.449 2.449-.931 2.615-1.339 2.01-4.924-.363-2.149-.29-6.083.163-8.742.725-4.25.89-3.385 1.373 7.167.302 6.6.639-100.839.75-238.752L501-.005 296.25.248 91.5.5l.123 2.5c.067 1.375.415 5.2.772 8.5.356 3.3.707 6.675.778 7.5.071.825.595 1.803 1.164 2.174.686.447.594 1.204-.274 2.25-.834 1.005-.913 1.576-.217 1.576.673 0 1.034 2.113.945 5.522-.08 3.042-.491 4.964-.914 4.279-1.538-2.489-2.378.547-2.416 8.738-.021 4.605-.31 8.643-.641 8.974-.863.863.233 4.487 1.356 4.487.518 0 .683.419.367.931-.317.512-.138 1.201.397 1.532 1.343.83.16 3.537-1.547 3.537-1.733 0-1.738.761-.038 5.624.872 2.492 1.17 6.197.835 10.376-.617 7.707-.649 11.65-.188 23 .19 4.675.009 9.952-.402 11.726-.412 1.774-.39 3.799.047 4.5.437.701.86 2.624.94 4.274.402 8.304 3.713 29.07 4.74 29.723.874.556.855.75-.077.762-.687.008-1.25.451-1.25.984 0 .532.675.709 1.5.393.938-.36 1.5.008 1.5.981 0 .857.737 1.97 1.637 2.474 2.134 1.194 3.32 19.974 1.339 21.198-.968.598-.973 1.828-.025 5.779 1.401 5.841 1.884 23.783.807 29.969-.409 2.344-.809 6.394-.89 9-.081 2.605-.552 5.528-1.046 6.494-.831 1.622.922 9.088 3.261 13.886.44.904.834 12.154.875 25 .041 12.846.281 27.07.532 31.607.336 6.075.134 8.259-.767 8.283-.673.019-2.244.885-3.492 1.926-2.395 1.997-2.453 3.563-.69 18.541.601 5.107 3.596 9.339 4.282 6.05.415-1.987 2.177-2.028 2.177-.05 0 .825-.398 1.5-.883 1.5-1.401 0-2.164 4.353-.9 5.134 1.356.838 1.844 2.667 2.499 9.366.269 2.75.919 5.527 1.444 6.172 1.097 1.345-1.805 5.328-3.882 5.328-.703 0-1.347.563-1.43 1.25-.084.688-.257 1.7-.385 2.25s-.284 2.688-.348 4.75c-.079 2.593-.572 3.75-1.596 3.75-1.648 0-2.603-2.954-2.424-7.5.064-1.65-.356-4.8-.935-7-.579-2.2-1.341-7.15-1.694-11-.353-3.85-.862-8.575-1.131-10.5-.27-1.925-.622-6.262-.784-9.638-.162-3.376-.651-6.715-1.087-7.42-.436-.706-.665-3.793-.509-6.862.242-4.756.244-8.971.011-22.58-.019-1.1.197-8.075.479-15.5.283-7.425.557-16.312.61-19.75.053-3.438.459-6.25.904-6.25.444 0 1.043-.9 1.331-2 .287-1.1.21-2-.173-2-.382 0-.737-1.575-.788-3.5-.051-1.925.313-3.5.81-3.5.512 0 .625-2.923.26-6.75-.354-3.713-.701-7.988-.771-9.5-.07-1.512-.466-2.75-.878-2.75s-.795-4.162-.85-9.25c-.061-5.666-.383-8.281-.83-6.75-.402 1.375-.695 5.064-.651 8.199.061 4.282-.293 5.796-1.425 6.092-1.149.301-1.544-.613-1.67-3.866-.091-2.342-.623-5.115-1.182-6.16-1.271-2.375-1.9-8.845-3.138-32.265-.538-10.175-1.405-24.125-1.928-31-.522-6.875-1.252-20.054-1.621-29.287-.508-12.708-1.027-17.142-2.134-18.25-.805-.804-.982-1.463-.392-1.463.589 0 1.071-.477 1.071-1.059s-.45-.781-1-.441c-1.52.939-1.194-1.094.386-2.405 1.472-1.222 1.691-44.543.237-46.896-.373-.603-.698-7.307-.723-14.898-.053-16.205.079-19.244.764-17.545.833 2.066 2.336.333 2.336-2.693 0-1.55-.675-3.378-1.5-4.063-.825-.685-1.5-2.262-1.5-3.506C79 .121 77.897.029 37.25.014L0 0v251.028m.492.472c0 138.05.116 194.376.258 125.17.142-69.207.142-182.157 0-251C.608 56.826.492 113.45.492 251.5M343.882 9.25c-.066.688-.066 1.588 0 2 .065.412-.514.75-1.287.75-1.363 0-9.586 3.928-10.595 5.061-.76.854-5 .62-5-.275 0-1.238-3.79-.916-4.214.357-.281.842-.997.814-2.711-.103-1.757-.94-2.506-.961-3.048-.084-.478.774-1.287.296-2.417-1.428-.944-1.442-2.191-2.287-2.808-1.905-.673.415-.829.231-.397-.468 1.342-2.173-3.534-1.212-5.562 1.095l-1.977 2.25.427-2.742.427-2.743-5.61.625c-7.348.817-12.089 2.785-12.189 5.059-.046 1.049-.29 1.279-.583.551-.757-1.876-2.183-1.52-4.671 1.164-1.279 1.38-3.937 2.695-6.202 3.068-9.962 1.64-9.465 1.353-9.465 5.483 0 2.094.639 5.039 1.421 6.545 1.887 3.637 1.052 5.647-2.025 4.874-2.136-.535-2.396-.269-2.396 2.449 0 1.677-.378 3.283-.84 3.568-.462.286-.946 2.675-1.075 5.309-.13 2.635-.356 6.14-.504 7.79-.148 1.65.05 3.45.439 4 .389.55.764 1.675.833 2.5.736 8.763 1.659 13.654 2.788 14.784 1.585 1.585 1.781 3.216.387 3.216-.534 0 .237 2.138 1.713 4.75 2.291 4.052 2.764 6.292 3.222 15.25l.537 10.5 8.75.289 8.75.289v6.961c0 3.974-.429 6.961-1 6.961-.55 0-1-.505-1-1.122 0-.826-.355-.828-1.342-.009-.738.612-1.564.891-1.836.62-.272-.272-.566 1.355-.655 3.614-.128 3.276.142 3.992 1.336 3.534.823-.316 1.497-.138 1.497.394 0 .533-.378.969-.84.969-1.389 0-2.979 7.111-3.002 13.425-.012 3.259-.38 8.659-.817 12-.858 6.55-1.022 32.478-.232 36.575.867 4.497 2.7 6.863 4.878 6.293 1.285-.336 2.024-.032 2.043.84.059 2.626 2.31-2.555 4.141-9.533 1.997-7.606 2.291-11.196.982-12.005-1.896-1.172-1.096-6.595.973-6.595 1.096 0 1.711.454 1.368 1.009-1.436 2.324.612 4.991 3.833 4.991 4.247 0 5.826-2.603 5.043-8.314l-.601-4.387 3.6-.584c1.98-.321 5.067-.164 6.859.35 5.268 1.511 6.473 1.18 7.099-1.95.417-2.087 1.442-3.187 3.7-3.975 1.997-.696 2.86-1.514 2.393-2.269-.488-.79-.296-.913.58-.371.836.517 1.067.417.638-.276-.369-.597-.213-1.368.346-1.714.559-.345 1.016-1.951 1.016-3.569 0-1.618.441-2.941.981-2.941.539 0 1.277-1.238 1.638-2.75.362-1.513.919-3.2 1.24-3.75.32-.55.713-2.125.874-3.5.161-1.375.362-3.062.447-3.75.084-.687.753-1.25 1.487-1.25.733 0 1.333-.45 1.333-1s-.477-1-1.059-1-.75-.5-.372-1.112c.378-.611.067-1.504-.691-1.984-.998-.633-1.033-.878-.128-.889.719-.008 1.25-1.29 1.25-3.015 0-1.945-.507-3-1.441-3-1.866 0-2.568 1.208-2.563 4.411.002 1.424.001 3.807-.002 5.295-.007 3.518-1.685 5.263-2.648 2.755-1.532-3.993-4.434-6.257-7.684-5.994-3.319.269-6.662-1.816-6.662-4.154 0-.758-1.012-1.784-2.25-2.282-1.724-.693-1.841-.919-.5-.968.962-.034 1.75-.513 1.75-1.063 0-1.379-3.719-1.263-4.588.143-1.27 2.054-3.191-3.369-3.559-10.047-.303-5.493-.104-6.44 1.397-6.661 1.426-.21 1.753.513 1.764 3.903.02 6.152.936 8.662 3.162 8.662 1.068 0 1.693-.403 1.389-.895-.305-.493.044-1.125.775-1.405.731-.281 1.411-2.015 1.511-3.855.1-1.84.579-4.92 1.063-6.845.858-3.407.884-3.363.984 1.668.122 6.157.829 8.332 2.709 8.332.952 0 1.393-1.231 1.393-3.886 0-3.818.076-3.897 4.25-4.449 5.127-.679 8.78-.435 8.763.585-.007.412-.013 1.11-.013 1.549 0 .44-1.595.613-3.545.386-2.425-.284-4.154.138-5.476 1.334-2.448 2.215-1.888 3.088 2.51 3.913 2.104.395 3.511 1.242 3.511 2.113 0 1.973 2.634 1.851 3.405-.158.528-1.377.859-1.413 2.266-.25.905.75 4.162 1.468 7.238 1.596 12.611.525 12.606.523 12.462 4.814-.13 3.876 1.912 7.423 3.134 5.444.348-.563 1.001-.796 1.451-.518 1.793 1.108 3.27-2.781 3.471-9.145.117-3.689.685-6.865 1.262-7.058.703-.234.617-1.57-.261-4.06-.726-2.057-1.056-5.381-.741-7.46.386-2.546.188-3.75-.618-3.75-.653 0-.863-.524-.467-1.165 1.115-1.804.386-14.145-.93-15.73C362.502 78.695 361 65 362.016 65c.295 0 .365-1.8.155-4-.209-2.2-.711-4-1.114-4-1.303 0-1.081-6.998.223-7.03.671-.017.432-.489-.53-1.05-2.198-1.28-2.27-2.92-.128-2.92 1.279 0 1.376-.297.459-1.403-.894-1.077-.864-1.543.127-2.006.711-.332.107-.38-1.341-.107-2.385.449-2.621.215-2.51-2.494.087-2.142.621-2.99 1.882-2.99.969 0 1.761-.477 1.761-1.059s-.45-.781-1-.441-1 .179-1-.358c0-.536.563-1.202 1.25-1.48 1-.403 1-.52 0-.583-.687-.043-1.25-.529-1.25-1.079 0-.55.337-.947.75-.882 1.949.308 2.222-.295 1.073-2.368-.686-1.238-1.152-2.587-1.035-3 .116-.413-.35-.757-1.038-.765-.847-.011-.767-.357.25-1.076 1.135-.803 1.194-1.185.244-1.571-.691-.28-1.006-.915-.699-1.41.306-.496-.316-1.839-1.383-2.984-1.067-1.146-2.215-3.457-2.55-5.136-.485-2.421-.891-2.822-1.96-1.934-1.029.854-1.776.646-3.155-.878-2.013-2.224-5.432-2.678-5.615-.746m62.922 79.351c-.275.494-.605 3.596-.735 6.892-.13 3.296-.659 6.254-1.176 6.573-1.862 1.151-3.65 20.934-1.892 20.934.529 0 1.242 1.122 1.587 2.493.344 1.371 1.027 2.245 1.519 1.941.491-.304.893-.113.893.424 0 .536-.562 1.202-1.25 1.48-1 .403-1 .52 0 .583 1.798.114 1.543 3.753-.313 4.465-.86.33-1.262 1.088-.894 1.684.937 1.516 1.385 24.319.489 24.93-.911.622-2.089 9.153-1.187 8.596.536-.33.774 48.828.291 60.083-.182 4.251-2.458 6.407-6.014 5.695-2.445-.489-2.78-.269-2.633 1.726.093 1.257.695 2.461 1.34 2.676 1.605.535 1.482 2.224-.162 2.224-.734 0-1.394.563-1.469 1.25a570.5 570.5 0 0 0-.539 5.75c-.222 2.475-.517 4.5-.656 4.5-.205 0-.781 13.686-1.074 25.5-.034 1.375.128 8.091.359 14.924.4 11.803.534 12.466 2.681 13.26 1.866.691 2.044 1.095 1.023 2.326-.858 1.034-.893 1.49-.114 1.49 1.444 0 1.463 6.993.028 10.685-.602 1.548-1.273 8.89-1.492 16.315-1.735 58.821-1.766 61.498-.812 69.246.559 4.537.701 4.716 3.223 4.083 1.452-.364 3.21-.662 3.907-.662.697 0 1.268-.368 1.268-.817 0-.449 2.511-.584 5.58-.3l5.58.516-.444-5.995c-.244-3.297-.073-6.125.38-6.283 1.7-.595 1.286-18.787-.458-20.086-1.301-.97-1.683-3.709-1.983-14.202-.414-14.463.192-21.856 1.433-17.5.392 1.375.757 4.188.812 6.25.055 2.063.582 3.75 1.171 3.75.59 0 .365.707-.5 1.571-1.788 1.789-2.046 4.017-.571 4.929.554.342 1-.39 1-1.641 0-1.795.254-2.005 1.238-1.021.87.87 1.275 6.047 1.364 17.45.128 16.441.812 22.712 2.477 22.712.507 0 .97-.562 1.031-1.25.06-.687.236-2.78.39-4.649.155-1.869 1.008-3.806 1.897-4.303 1.212-.679 1.37-1.364.634-2.74-.54-1.01-.94-3.123-.888-4.697.394-12.019.29-25.593-.199-25.896-.325-.2-.491-2.872-.368-5.936.181-4.511-.065-5.519-1.294-5.3-1.218.217-1.524-.92-1.545-5.729-.04-9.167 1.4-27.822 2.271-29.433.427-.787.123-3.632-.676-6.32-.798-2.689-1.26-5.419-1.027-6.068.234-.648.027-1.953-.459-2.898-.486-.945-1.058-10.62-1.272-21.5-.344-17.526-.239-19.268.921-15.281l1.309 4.5.216-3.5c.119-1.925.135-3.923.035-4.441-.279-1.443-.155-14.1.229-23.385.221-5.321.803-8.61 1.614-9.111 1.01-.624.992-.891-.086-1.305-2.424-.93-2.076-5.566.455-6.054 1.613-.312 1.341-.469-.982-.568-5.202-.22-5.716-2.261-6.08-24.114-.178-10.712-.691-19.712-1.139-20-1.889-1.21-2.998-10.833-3.518-30.522-.218-8.25-.936-20.175-1.595-26.5-.659-6.325-1.284-12.4-1.389-13.5-.105-1.1.094-2.675.442-3.5.707-1.676-1.418-8.814-2.202-7.399m-282.217 42.22c-1.975.846-1.94.645-3.012 17.179-.781 12.055-.648 33.206.217 34.357 1.294 1.723 3.206 8.995 3.223 12.259.021 3.807 1.257 5.601 3.315 4.811.94-.361 1.67-.157 1.67.466 0 .609-1.046 1.107-2.325 1.107-2.32 0-2.324.022-1.869 11.044.378 9.189.193 11.248-1.103 12.25-2.233 1.728-2.434 5.824-.428 8.689 2.135 3.047 2.195 4.9.183 5.671-.848.326-1.455 1.324-1.349 2.219.107.895-.262 2.746-.818 4.115-1.701 4.186 1.984 7.904 3.977 4.012.422-.825.557.855.299 3.734-.258 2.878-.153 5.187.232 5.131.386-.056 2.649-.049 5.03.017l4.33.118-.705 3.25c-.388 1.788-1.138 3.526-1.668 3.864-.53.337-.877 2.137-.773 4 .304 5.43.116 5.886-2.43 5.886-1.329 0-2.617-.562-2.863-1.25-.815-2.282-1.81-.052-2.089 4.68-.2 3.394.154 4.929 1.297 5.619 1.41.852 1.392 1.09-.178 2.311-.963.748-1.75 2.098-1.75 3 0 .957-.809 1.64-1.941 1.64-1.068 0-2.266.526-2.664 1.17-.5.808-.156.952 1.111.466 1.097-.421 2.161-.188 2.649.58 1.105 1.743 1.048 2.784-.155 2.784-.55 0-1-.679-1-1.508 0-1.232-.349-1.291-1.9-.322-1.829 1.142-1.778 3.631.1 4.903.466.316 1.064 2.274 1.33 4.352.499 3.893-2.354 8.517-5.28 8.558-.687.009-1.25.515-1.25 1.124 0 .609.673.849 1.495.533 1.249-.479 1.407.311.965 4.824-.44 4.479-.226 5.574 1.255 6.436 1.577.918 1.592 1.043.129 1.07-1.155.021-1.5.631-1.138 2.015.286 1.092.176 2.779-.244 3.75-1.372 3.176-1.529 5.634-.539 8.473 1.164 3.341-.182 3.687-2.343.602-.844-1.204-1.866-1.857-2.272-1.452-1.102 1.102 1.02 3.967 4.034 5.447 2.416 1.185 3.401 3.907 2.737 7.562-.086.477.333 2.352.933 4.168.599 1.816 1.23 6.536 1.402 10.49.172 3.954.764 7.478 1.315 7.832 1.351.867 2.579 5.016 2.483 8.388-.071 2.487.256 2.755 3.355 2.755 2.385 0 3.433.458 3.433 1.5 0 .825-.477 1.5-1.059 1.5s-.776.457-.431 1.016c.346.559.996.789 1.446.511.449-.278 1.337.121 1.972.887.883 1.063.851 1.505-.136 1.875-.794.296-.328.864 1.208 1.471 1.745.69 2.722.649 3.235-.136.521-.797.739-.76.75.126.008.688.503 1.25 1.098 1.25.596 0 .892-.563.657-1.25s.438-2.008 1.494-2.935c2.66-2.332 3.133-6.656 2.926-26.755-.143-13.886-.497-17.925-1.738-19.819-.857-1.308-1.446-3.585-1.309-5.06.552-5.934-.694-7.181-7.18-7.181-6.286 0-6.421-.128-5.983-5.666.094-1.192-.582-2.588-1.503-3.104-1.249-.699-1.47-1.546-.869-3.333.443-1.319.705-3.1.583-3.959-.123-.858.429-3.108 1.225-5 1.417-3.367 1.459-3.387 2.011-.938.31 1.375.685 4.075.833 6 .25 3.245.488 3.476 3.263 3.174 3.908-.425 3.97-.52 3.746-5.682-.185-4.238 1.703-5.418 3.787-2.368.29.424 1.19.351 2-.161.811-.513 1.024-.939.474-.948-.576-.008-.961-2.88-.909-6.765.05-3.712-.525-8.53-1.278-10.705-1.613-4.662-1.137-6.545 1.656-6.545 2.743 0 2.844-4.607.119-5.472-2.066-.656-3.807-8.689-2.663-12.291.328-1.033.216-4.659-.249-8.058-.499-3.647-.474-6.179.061-6.179.498 0 .263-.643-.523-1.429-.952-.952-1.286-2.847-1.002-5.687.474-4.747-1.275-9.028-3.53-8.638-.811.139-1.679-.333-1.929-1.05-.319-.912.394-1.212 2.371-1 2.668.287 2.81.107 2.544-3.219-.601-7.505-.657-34.977-.071-34.977.813 0 1.903 10.647 1.903 18.588 0 6.031 1.082 8.707 2.556 6.322.492-.797.954-.729 1.588.233.725 1.1 1.162 1.007 2.308-.493 2.855-3.735 5.444 2.323 6.133 14.35.205 3.575.678 8.263 1.052 10.418.587 3.387.455 3.831-.978 3.281-.911-.349-2.67-.228-3.908.269-2.087.839-2.105.916-.251 1.048 1.171.083 1.465.357.708.66-1.055.424-1.055.805 0 2.084 1.024 1.241 1.033 1.652.042 1.986-.825.278-1.25 2.583-1.25 6.778 0 3.497-.45 6.636-1 6.976-1.64 1.014-1.218 6.5.5 6.5.825 0 1.5-.815 1.5-1.811 0-1.795 3.42-6.203 4.789-6.174 1.841.04 7.211 6.85 7.211 9.145 0 .964.267.973 1.2.04 1.447-1.447 4.173-1.613 3.3-.2-.34.55-.093 1 .548 1s.907.675.59 1.5c-.316.825-.139 1.5.393 1.5.533 0 .969-.527.969-1.171s.707-1.953 1.571-2.908c1.781-1.967 2.059-14.541.573-25.921-.466-3.575-.496-7.737-.066-9.249.543-1.908.347-3.183-.639-4.169-.997-.997-1.076-1.536-.267-1.806 1.121-.374 1.518-1.595 2.202-6.776.354-2.685 5.549-4.75 12.376-4.92 1.787-.044 3.306-.53 3.375-1.08.069-.55.18-1.562.246-2.25.067-.687-.511-3.162-1.285-5.5-1.22-3.687-1.787-4.25-4.278-4.25-2.863 0-5.304 3.27-4.035 5.406.313.528-1.778.634-5.011.254-6.605-.777-11.762.071-11.762 1.934 0 .739-.616 1.107-1.369.818-.823-.316-1.593.334-1.932 1.632-1.524 5.828-7.075-5.89-6.259-13.214.307-2.76.81-5.426 1.118-5.924.308-.498-.142-.906-.999-.906s-1.576-.562-1.597-1.25c-.298-9.934-.947-21.598-1.499-26.96l-.691-6.709 2.584 1.209c1.905.892 2.478 1.802 2.181 3.46-.223 1.238-.013 2.25.464 2.25.478 0 1.439 1.575 2.135 3.5.696 1.925 1.835 3.5 2.531 3.5 1.6 0 1.03-8.839-2.323-36-.567-4.593-5.643-10.949-11.059-13.847-2.698-1.444-19.087-2.45-21.698-1.332m76.85 8.281c-.351.567-.371 1.297-.046 1.623.325.325.09 1.195-.522 1.933-.724.873-.752 1.342-.08 1.342.864 0 .949 1.977.172 4-.568 1.48-.387 3.649.396 4.75.555.781.474 1.25-.215 1.25-1.442 0-.705 8.034.824 8.979.796.492.693 1.059-.352 1.927-2.421 2.009-1.395 41.532 1.17 45.053 1.018 1.397 2.157 3.362 2.531 4.365 1.512 4.059 4.175 1.421 4.379-4.338.107-3.017.255-6.611.328-7.986.073-1.375-.193-9.137-.591-17.25-.712-14.487-.393-16.312 2.369-13.55.933.933 1.2.357 1.2-2.594 0-2.843-.461-3.914-1.841-4.275-1.589-.415-1.802-1.365-1.549-6.923.161-3.543.566-6.884.9-7.425.335-.54.222-.983-.25-.983-.471 0-.836-1.799-.809-3.997.046-3.756.23-3.999 3.049-4.03 2.649-.03 2.781-.161 1.127-1.122-2.549-1.481-11.402-2.024-12.19-.749m-131.552 6.565c-.223 3.531-.4 3.982-2.314 5.9-1.634 1.638-1.691 1.979-.375 2.232 1.092.211 1.577 1.544 1.636 4.5.076 3.81-.151 4.215-2.439 4.349-3.373.198-3.7.679-2.909 4.28.463 2.106 1.268 3.072 2.563 3.072 1.688 0 1.856.688 1.586 6.5-.195 4.184.084 6.505.782 6.515.597.009.41.459-.415 1-1.178.774-1.228 1.161-.232 1.805.743.481 1.221 2.655 1.154 5.25-.063 2.437.116 8.03.399 12.43.376 5.856.156 8.402-.82 9.5-.734.825-1.33 2.625-1.324 4 .005 1.375-.306 4.329-.691 6.566-.603 3.501.16 11.171 1.908 19.184.323 1.481.021 2.25-.884 2.25-1.42 0-2.987 3.398-2.187 4.741.249.417.74 8.615 1.092 18.217.442 12.042 1.019 17.704 1.863 18.25.877.568.909 1.004.115 1.542-.647.438-1.019 3.244-.895 6.75.338 9.523.387 9.758 1.91 9.174 1.374-.528 3.244 3.563 2.664 5.826-.751 2.928.04 11.524 1.348 14.654.825 1.976 1.206 3.887.845 4.248-1.049 1.049-1.174 3.598-.177 3.598.502 0 .919 1.012.927 2.25.013 1.827.201 1.968 1 .75.541-.825.98-5.55.975-10.5-.014-13.476.4-18.909 1.51-19.826.647-.535.557-1.006-.256-1.336-.691-.28-1.009-.91-.706-1.4 1.578-2.553 3.336-25.397 2.054-26.68-1.229-1.228-2.532.986-1.603 2.722.672 1.255.657 1.971-.046 2.206-.573.191-1.361 2.59-1.751 5.33-.59 4.142-1.089 5.038-2.955 5.304-2.835.404-4.283-2.655-1.891-3.993.909-.51 1.654-1.652 1.654-2.539C73 281.885 76.259 272 77.051 272c.378 0 .532-1.33.342-2.956-.189-1.626.082-3.219.602-3.541 1.295-.8 1.178-38.856-.17-55.003-.597-7.15-1.063-13.9-1.036-15 .028-1.1-.345-6.725-.828-12.5a2961.787 2961.787 0 0 1-1.521-19c-1.087-14.367-1.888-19.325-3.19-19.754-.687-.227-1.302.412-1.365 1.421m41.329 22.344c-2.13 1.74-2.284 2.608-2.253 12.679.048 15.906.565 22.399 1.844 23.19.805.497.884 2.309.27 6.162-.667 4.18-.563 5.634.441 6.21.914.523 1.138 2.041.738 5-.936 6.93-.283 22.053 1.009 23.345.367.366.192 1.554-.389 2.638-.747 1.396-.688 6.639.201 17.94 1.183 15.021 1.422 16.175 4.029 19.456l2.772 3.488 1.48-2.31c2.592-4.042 2.525-10.045-.106-9.603-1.984.333-1.919.974-2.643-26.206-.241-9.075-.908-19.425-1.481-23-1.56-9.731-2.505-25.454-2.094-34.859.159-3.639-.201-5.627-1.121-6.196-1.084-.67-1.008-.971.381-1.504 1.527-.586 1.659-1.643 1.096-8.803-.746-9.473-1.107-10.134-4.174-7.627m322.036 33.651c-.687.278-1.25 1.169-1.25 1.98 0 .812.45 1.198 1 .858 2.058-1.272.91 3.45-1.198 4.926l-2.198 1.54 3.129 1.091 3.129 1.09-.511 24.177c-.281 13.297-.454 24.626-.383 25.176.132 1.034 1.174 69.223 1.403 91.75.071 7.013.354 12.75.629 12.75s.61 2.363.745 5.25c.135 2.888.555 8.4.935 12.25.38 3.85.607 7.337.505 7.75-.102.413.49.75 1.315.75 1.941 0 1.941 1.617 0 2.362-1.944.746-2.178 11.63-.25 11.653.908.011.874.254-.124.886-1.051.666-.698 1.194 1.5 2.244 2.583 1.233 2.904 1.929 3.166 6.864l.292 5.491 4.208-.16c2.314-.087 4.765.301 5.446.863.872.72 1.35.619 1.617-.34.209-.75 1.03-3.613 1.826-6.363 1.163-4.021 1.399-11.995 1.21-40.739-.218-33.028.411-42.81 2.108-32.765.523 3.096 1.126 4.004 2.656 4.004 1.601 0 1.841-.43 1.255-2.25-.398-1.238-.657-2.7-.575-3.25.083-.55.346-4.825.585-9.5s.663-9.492.941-10.704c.362-1.574-.046-2.379-1.427-2.817-1.064-.338-1.934-1.258-1.934-2.046 0-1.644-1.583-1.917-2.5-.433-.34.55-.141 1 .441 1s1.059.9 1.059 2c0 1.178.667 2 1.622 2 1.323 0 1.395.275.389 1.487-.679.818-.974 2.168-.654 3 .319.832.145 1.513-.386 1.513-.532 0-.791 1.8-.577 4 .214 2.2-.012 4-.502 4-.491 0-.892.675-.892 1.5s-.416 1.5-.925 1.5c-.508 0-.735-1.527-.503-3.394.306-2.47-.018-3.563-1.188-4.012-1.236-.474-1.346-.935-.475-1.984.793-.956.834-2.156.135-3.994-1.379-3.626-4.247-29.089-3.681-32.68.253-1.61.008-3.207-.545-3.549-.554-.342-.801-1.694-.551-3.004.309-1.616-.007-2.383-.981-2.383-1.064 0-1.371-1.104-1.183-4.25.14-2.337-.276-5.233-.925-6.434-1.533-2.842-1.487-3.316.322-3.316.825 0 1.5-.45 1.5-1s-.45-1-1-1-1-1.125-1-2.5.54-2.5 1.2-2.5c.887 0 .907-.293.078-1.122-.617-.617-.897-1.707-.623-2.422.275-.715-.005-2.242-.621-3.393-.883-1.649-.817-2.209.312-2.642 1.647-.632 1.039-4.413-.713-4.436-.623-.009-.458-.459.367-1 1.055-.693 1.166-1.208.376-1.735-2.002-1.335-2.782-7.25-.955-7.25.868 0 1.579-.675 1.579-1.5s-.45-1.5-1-1.5-1.007.563-1.015 1.25c-.011.836-.341.753-.999-.25-.54-.825-.718-2.756-.396-4.291.38-1.807-.027-3.727-1.155-5.449-.958-1.462-1.302-2.804-.765-2.983 1.332-.444.409-6.407-1.294-8.358-.759-.87-1.12-1.841-.803-2.159.318-.317-.356-.874-1.498-1.236-2.293-.728-2.779-3.039-.825-3.923.688-.311.35-.434-.75-.274-1.1.16-1.887.828-1.75 1.482.137.655-.48 1.191-1.372 1.191-1.329 0-1.398-.271-.378-1.5.86-1.036.898-1.5.122-1.5-.617 0-1.122-.675-1.122-1.5s-.436-1.5-.969-1.5c-.532 0-.709-.675-.393-1.5.612-1.593.56-1.624-1.388-.838M386.132 272.5c-.144 27.649-.839 41.758-2.024 41.11-.334-.182-1.958.298-3.608 1.067l-3 1.399 3.634-.562c4.588-.708 5.002.936 4.844 19.229-.06 7.016.208 16.002.596 19.969.576 5.881.399 7.68-.957 9.75-.915 1.396-1.231 2.538-.702 2.538 1.121 0 1.195.836 1.022 11.5-.299 18.372.042 16.96-4.187 17.31-3.062.254-3.753-.021-3.765-1.5-.012-1.403-.21-1.504-.879-.447-.728 1.149-.935 1.149-1.317.003-.316-.946-.821-.675-1.657.887-2.171 4.057-3.454 2.651-2.857-3.131.508-4.916.357-5.469-1.757-6.432-2.554-1.163-2.875-2.763-4.15-20.69-.391-5.5-.765-10.45-.832-11-.066-.55-.492-4.937-.946-9.75-.455-4.812-1.288-8.75-1.853-8.75-.664 0-.799 2.382-.381 6.75.354 3.712.942 14.78 1.306 24.595.654 17.663.685 17.856 3.101 18.957 2.205 1.004 2.386 1.549 1.885 5.655-2.299 18.842-1.556 31.043 1.891 31.043.803 0 1.461-.45 1.461-1s1.35-1 3-1 3 .378 3 .839c0 .462 1.146 1.362 2.547 2 3.151 1.436 9.815 1.556 8.953.161-.34-.55-.141-1 .441-1s1.059-1.125 1.059-2.5.45-2.5 1-2.5 1 .675 1 1.5c0 1.93 1.89 1.95 2.628.027.311-.81 2.191-1.778 4.178-2.15 3.424-.643 3.488-.724 1.222-1.562-1.465-.542-3.539-.484-5.358.15-3.999 1.394-5.968 1.326-5.04-.175.963-1.558.549-17.175-.532-20.076-.454-1.217-.428-5.489.058-9.492.488-4.014.503-8.05.035-9-.467-.947-.721-5.322-.563-9.722.398-11.126.395-15.482-.021-35.75-.361-17.552-.341-17.75 1.764-17.765 1.683-.012 1.825-.208.677-.934-.799-.506-1.699-.767-2-.581-.302.186-.647-10.756-.769-24.316-.122-13.56-.621-28.704-1.111-33.654-.733-7.416-.915-4.072-1.036 19m112.801-24.75c-.038 1.512-.279 4.325-.537 6.25-.258 1.925-.586 5.982-.729 9.016-.143 3.033-.621 6.1-1.062 6.815-.442.714-.52 2.809-.173 4.656.361 1.929.191 3.628-.401 3.994-1.228.759-1.393 4.519-.198 4.519.917 0 .91 2.965-.01 4.518-1.171 1.975-.732 23.919.493 24.699.764.485.798.758.096.768-.643.009-1.003 1.751-.881 4.265.113 2.337-.045 4.682-.351 5.209-.306.528-.436 2.914-.29 5.303.147 2.389-.285 5.009-.961 5.823-.959 1.156-.968 2.294-.041 5.197.653 2.045 1.031 6.572.841 10.061-.196 3.615.161 7.319.831 8.61 1.278 2.463.383 5.066-2.487 7.236-1.275.964-1.347 1.56-.38 3.145 1.04 1.705.886 2.013-1.2 2.412-2.826.54-3.971-1.484-2.449-4.328.856-1.599.637-2.093-1.254-2.831-4.189-1.637-8.714-7.087-5.884-7.087.499 0 .663-.933.364-2.074-.436-1.671-1.051-1.947-3.154-1.419-3.356.842-3.451.968-2.381 3.157.494 1.01.868 3.765.831 6.122-.06 3.925.187 4.36 2.934 5.16 2.275.663 2.486.895.872.964-2.256.095-5.608 3.09-3.459 3.09.761 0 .865.599.303 1.75-.471.962-.724 5.8-.564 10.75.474 14.655.593 15.655 1.722 14.526 1.63-1.63 2.483-1.197 1.916.974-.288 1.1-.032 2 .568 2 1.373 0 .286 6.198-1.265 7.219-.779.514-.74 1.289.137 2.704 1.529 2.469-.021 3.643-2.086 1.579-2.009-2.01-2.811-.573-2.811 5.037 0 2.454-.219 4.461-.488 4.461-1.143 0-3.353-3.001-3.445-4.679-.069-1.258-.32-1.048-.812.679-1.076 3.778.748 8.856 2.973 8.274 1.422-.372 1.687-.028 1.255 1.627-.406 1.553-.085 2.099 1.234 2.099.981 0 1.499.284 1.152.631-1.205 1.206 1.38 4.369 3.583 4.384 1.69.012 1.881.227.803.91-1.2.759-1.173 1.133.178 2.484 2.101 2.101 3.027 2.023 1.904-.159-.495-.962-.698-2.312-.452-3 .247-.687-.28-1.25-1.17-1.25-1.379 0-1.435-.332-.377-2.25 1.102-1.996 1.284-2.047 1.619-.447.3 1.433.668 1.562 1.794.628 1.015-.843 1.416-.858 1.416-.053 0 .617-.375 1.122-.833 1.122-.459 0-.834.675-.834 1.5s.375 1.5.834 1.5c.458 0 .833-.525.833-1.167 0-.641.284-.882.631-.535.348.347 1.473.182 2.5-.368 1.266-.678 1.869-.666 1.869.035 0 .569.788 1.08 1.75 1.135 1.167.066.917.366-.75.9-2.398.768-2.409.805-.25.9 2.083.093 3.368 2.1 1.344 2.1-1.626 0 1.169 6.997 2.824 7.07 1.366.061 1.377.163.082.75-1.623.736-2.525 3.18-1.173 3.18.455 0 .628 1.35.386 3-.283 1.928-.006 3 .774 3 .826 0 1.1 1.441.856 4.5-.196 2.475-.017 4.5.4 4.5.416 0 .757.9.757 2s-.562 2.007-1.25 2.015c-.928.012-.949.207-.081.759.642.409 1.358 2.315 1.59 4.235.231 1.92.493-48.821.581-112.759.088-63.937-.065-116.25-.34-116.25s-.53 1.238-.567 2.75M424 262.617c0 1.124-.609 1.457-2 1.093-1.1-.287-2-.115-2 .384 0 .498.675.906 1.5.906 2.183 0 2.432 14.797.272 16.138-.566.351-.714 1.146-.331 1.767.383.62 1.14.854 1.681.519.541-.334 1.801.334 2.798 1.484 1.8 2.075 3.718 2.933 2.633 1.177-.311-.503-.01-1.099.67-1.326.905-.302.755-1.143-.561-3.152-1.352-2.063-1.52-3.073-.68-4.085.769-.927.79-1.545.067-1.992-.577-.356-1.049-1.098-1.049-1.648 0-.55.45-.722 1-.382.55.34 1.498.31 2.107-.066.771-.477.696-.944-.25-1.544-1.081-.685-1.091-.862-.048-.875.72-.008 1.043-.445.718-.971-.325-.526-1.252-.703-2.059-.393-1.091.418-1.468-.213-1.468-2.462 0-3.612-.877-6.189-2.107-6.189-.491 0-.893.727-.893 1.617m-94.002 18.888c-.549 1.444-.998 3.046-.998 3.56 0 .514-.45.935-1 .935s-1-.9-1-2c0-1.519-.662-1.996-2.75-1.985-2.086.012-2.395.24-1.279.946 1.785 1.129.702 2.511-1.35 1.724-.915-.351-1.262-1.343-.923-2.639.421-1.61.179-1.936-1.077-1.454-1.917.736-1.947.93-.544 3.552.592 1.107.746 2.765.341 3.684-.404.92-.657 2.029-.562 2.466.095.437.389 2.462.653 4.5s.676 4.686.914 5.883c.341 1.709-.228 2.408-2.644 3.25-4.073 1.42-4.779 1.357-4.779-.427 0-.825-.498-1.5-1.107-1.5s-.843.687-.521 1.528c.33.859-.254 2.247-1.335 3.173-1.458 1.247-1.686 2.087-.944 3.472.537 1.005.607 1.827.155 1.827-.452 0-.89.9-.973 2-.083 1.1.238 2 .714 2 .475 0 1.106.788 1.402 1.75.295.962.403.574.238-.862-.193-1.683.349-3.018 1.522-3.75 2.542-1.588 3.178-1.423 2.354.612-.634 1.564-.878 5.26-.603 9.117.065.907.943 1.205 2.613.885 3.003-.574 4.093 2.196 3.05 7.755-.627 3.342-.1 4.051 2.685 3.611.413-.065.75.584.75 1.441 0 .875-.481 1.262-1.095.882-.602-.372-2.384.276-3.96 1.441-1.575 1.165-3.332 2.118-3.905 2.118-.572 0-1.04 1.35-1.04 3 0 3.007-1.427 4.094-2.297 1.75-.88-2.368-2.703 4.382-2.703 10.006 0 5.162.121 5.466 1.468 3.685 1.329-1.756 1.471-1.774 1.5-.191.018.962-.334 1.75-.781 1.75s-.922 2.109-1.056 4.686c-.287 5.552-.659 6.314-3.083 6.314-1.009 0-2.107.712-2.441 1.582-.848 2.209-.761 2.631.393 1.918.55-.34 1-.141 1 .441s-.498 1.059-1.107 1.059-.866.627-.572 1.394c.294.766-.558 2.419-1.893 3.674-2.949 2.77-3.017 3.914-.428 7.205 1.1 1.398 2 3.204 2 4.012 0 .809.663 2.02 1.474 2.693 2.051 1.702 3.071 7.92 1.667 10.168-1.293 2.071-1.517 4.854-.391 4.855.413 0 .75 2.362.75 5.25 0 2.887.45 5.58 1 5.984.585.43.378.728-.5.718-3.308-.036-4.879-2.525-5.191-8.22-.261-4.758-.668-5.796-2.625-6.691-2.297-1.051-2.312-1.015-1.858 4.599.307 3.8.985 5.954 2.066 6.558 1.149.643 1.608 2.353 1.608 5.985 0 5.312 1.787 12.816 3.051 12.816.952 0 2.091-2.961 1.504-3.91-1.191-1.928-1.375-6.197-.251-5.819.658.221 1.257 1.037 1.331 1.815l.25 2.664c.063.688.728 1.25 1.476 1.25.913 0 1.204-.824.884-2.5-.279-1.459-.013-2.5.638-2.5.615 0 1.028.337.919.75-.462 1.748 1.454 5.25 2.872 5.25.975 0 1.323.564.95 1.538-.358.932.093 1.79 1.143 2.177 4.351 1.605 4.535 6.416.233 6.088-1.661-.126-3-.803-3-1.516 0-.708-.675-1.287-1.5-1.287-1.815 0-1.997-1.656-.25-2.28 2.316-.827.278-1.487-3.034-.983l-3.283.5 3.228 2.381c2.014 1.486 2.631 2.382 1.64 2.382-.873 0-1.856.7-2.184 1.555-.741 1.931 5.049 4.607 8.19 3.785 2.466-.645 6.67-7.031 6.312-9.59-.135-.962.234-1.75.818-1.75.585 0 1.063-.75 1.063-1.667 0-2.196.951-1.186 1.482 1.575 1.232 6.397 2.878 8.992 5.951 9.382 2.845.362 2.8.401-.624.55-4.848.21-5.774 1.928-1.788 3.317 2.041.712 2.743 1.371 1.969 1.849-.868.537-.893.936-.09 1.432.613.379 1.384-.015 1.714-.875.33-.859 1.028-1.563 1.552-1.563s.737.348.474.773c-.263.426.607 3.013 1.932 5.75 1.325 2.738 2.449 5.877 2.498 6.977.048 1.1.315 1.438.592.75.584-1.447 3.338-1.706 3.338-.315 0 .515 1.571 1.504 3.492 2.198 2.86 1.034 3.607 1.906 4.131 4.815.352 1.954.846 3.911 1.097 4.351.841 1.466 3.28-1.511 3.28-4.005 0-1.526.475-2.301 1.25-2.04 1.998.673 3.654-2.376 2.681-4.935-.599-1.575-.416-2.691.607-3.714 1.664-1.664 1.965-3.034.462-2.105-.55.34-1 .141-1-.441s.9-1.059 2-1.059c1.111 0 2-.667 2-1.5 0-2.061-2.673-1.891-3.92.25-.561.962-1.064 1.3-1.118.75-.055-.55-.263-2.238-.463-3.75-.199-1.512.057-2.75.569-2.75.513 0 .932.647.932 1.438 0 .821.857 1.373 2 1.287 2.305-.174 2.755-1.725.5-1.725-1.667 0-2.021-1.56-.56-2.463.582-.36.554-1.69-.073-3.488-.676-1.94-.681-3.528-.015-4.772.934-1.746.67-18.089-.309-19.067-.246-.247.166-1.062.916-1.811.749-.75 1.126-2.272.835-3.381-.386-1.479-.028-2.037 1.339-2.088 1.723-.065 1.712-.131-.133-.851-1.1-.429-2.056-1.298-2.125-1.93-.069-.632-.239-1.262-.379-1.399s-.401-1.375-.581-2.75c-.18-1.375-.88-5.128-1.555-8.341-.948-4.509-.958-6.273-.044-7.736.651-1.043 1.184-2.604 1.184-3.468 0-.865.393-1.33.874-1.033 1.103.682.725-6.645-.44-8.524-.865-1.396-1.007-3.025-1.827-20.898-.239-5.225-.807-12.425-1.262-16-.454-3.575-.717-9.425-.584-13 .133-3.575-.198-9.425-.735-13-.538-3.575-1.254-11.19-1.592-16.922-.338-5.732-1.027-11.508-1.531-12.834-.505-1.327-.663-2.824-.351-3.328.311-.504.089-.916-.493-.916s-1.09 1.012-1.127 2.25c-.092 3.037-.746 10.952-1.033 12.5-.328 1.766-1.899 1.559-1.899-.25 0-.872-.907-1.5-2.167-1.5-1.191 0-1.87-.296-1.508-.658.362-.362.125-1.3-.526-2.084-.65-.784-1.241-2.625-1.312-4.092-.194-3.984-4.487-11.867-4.487-8.237 0 .589-1.687 1.064-3.75 1.056-2.482-.01-3.291-.306-2.393-.875.947-.601 1.022-1.067.248-1.545-.646-.399-1.525.41-2.107 1.94m3.932 10.662c-.054 3.338-.268 3.874-.93 2.333-.473-1.1-.891-1.593-.93-1.095-.038.498-.97.09-2.07-.905-1.1-.995-2.048-1.628-2.106-1.405-.059.223-.212 3.144-.34 6.492-.28 7.267-.642 7.981-4.438 8.74-2.901.58-2.917.621-1.874 4.879.578 2.362 1.499 4.867 2.047 5.568.548.701.723 1.548.389 1.882-1.279 1.278 1.433 4.443 3.3 3.851 1.487-.472 1.75-.183 1.322 1.452-.308 1.179-.049 2.041.615 2.041 1.13 0 2.045-1.565 2.44-4.172.111-.73.456-1.778.767-2.328.463-.819.312-11-.163-11-.784 0-.789-6.487-.005-6.972.575-.355 1.046-1.546 1.046-2.646 0-1.35.406-1.746 1.25-1.219 1.782 1.113 3.75 1.3 3.75.356 0-.443-.775-1.102-1.722-1.466-1.332-.511-1.427-.843-.42-1.465 1.595-.986 1.125-6.275-.608-6.844-.864-.284-1.272.926-1.32 3.923m-84.68 48.566c-.687.239-1.25 1.521-1.25 2.85 0 1.33-.398 2.417-.885 2.417-.486 0-.816 2.77-.733 6.155.126 5.131.481 6.284 2.134 6.93 4.604 1.798 5.372 1.209 5.331-4.085-.029-3.723-.416-5-1.514-5-1.26 0-1.246-.23.096-1.571 1.743-1.744 2.065-3.429.654-3.429-.504 0-1.291-1.058-1.75-2.35-.458-1.292-1.395-2.155-2.083-1.917m39.632 16.517c-.066 1.238-.063 2.596.006 3.018.068.423.293 4.698.499 9.5.206 4.803.719 9.565 1.14 10.583.493 1.193.269 2.165-.631 2.735-1.081.684-.944.89.604.914 1.188.018 1.554.329.901.765-2.095 1.401-1.203 4.235 1.333 4.235 1.824 0 2.272-.42 1.864-1.75-.296-.962-.787-5.747-1.091-10.633-.304-4.885-.793-9.271-1.087-9.746-.702-1.136-1.333-4.503-1.607-8.579-.249-3.703-1.749-4.512-1.931-1.042m-31.429.5c-.418.962-.647 2.629-.509 3.703.218 1.697.037 1.776-1.376.603-2.167-1.798-6.519.102-6.693 2.923-.253 4.099-.453 4.516-2.034 4.253-2.477-.411-3.268 2.843-.845 3.477 1.102.288 2.004.908 2.004 1.376 0 .469-.636.608-1.413.31-.829-.318-1.611.211-1.894 1.282-.419 1.588-.576 1.526-1.218-.484-.519-1.623-1.217-2.108-2.356-1.636-4.355 1.802-5.119 1.7-5.154-.69-.02-1.302-.704-3.492-1.52-4.867-1.471-2.479-1.479-2.471-.85 1 .349 1.925.761 8.45.917 14.5.356 13.862 1.161 20.68 2.541 21.533 1.003.619 1.686 2.71 1.87 5.717.043.688.95 1.25 2.018 1.25 1.068 0 2.219.45 2.559 1 .34.55-.008 1-.774 1-2.021 0-3.869 10.637-2.102 12.103.708.588 1.73.796 2.271.462.54-.334 1.364.075 1.83.908.53.946 2.899 1.708 6.311 2.028 3.803.356 5.008.211 3.964-.479-.825-.545-1.014-.998-.421-1.007.594-.008 1.076-.803 1.072-1.765-.004-.962.119-4.225.274-7.25l.282-5.5.953 4c.524 2.2 1.153 4.977 1.396 6.17.295 1.449 1.463 2.395 3.515 2.845 3.759.826 4.426.281 2.975-2.429-.742-1.386-.769-2.086-.081-2.086 1.899 0 2.524.489 2.234 1.75-.158.688.21 1.25.816 1.25.607 0 .822.455.478 1.012-.348.562.737 1.284 2.441 1.625 1.686.337 3.105 1.119 3.152 1.738.047.619.462-.125.921-1.653s.645-4.308.414-6.178c-.251-2.021.118-3.94.91-4.732 2.045-2.045 2.882-6.627 2.613-14.312-.135-3.85-.191-8.645-.125-10.655.079-2.379-.392-3.851-1.349-4.218-1.643-.631-2.031-3.627-.47-3.627.55 0 1.007.563 1.015 1.25.01.83.334.746.964-.25.696-1.101.282-2.071-1.558-3.652-1.716-1.475-2.099-2.298-1.213-2.614.711-.253.918-.859.46-1.346-.47-.5-1.448-.042-2.25 1.055-1.186 1.622-1.418 1.672-1.418.307 0-.898.498-1.94 1.107-2.316.808-.5.807-.869-.003-1.37-.611-.377-1.361-2.683-1.667-5.125-1.191-9.481-3.437-9.076-3.437.62 0 3.543-.375 6.441-.833 6.441-.459 0-.834-1.245-.834-2.766 0-3.673-3.36-14.234-4.529-14.234-.507 0-.663-.419-.347-.931.317-.512.118-1.213-.441-1.559-.559-.345-1.016.1-1.016.99 0 .893-.479 1.322-1.068.958-.588-.363-.827-1.29-.532-2.059.785-2.045-1.049-1.714-1.947.351M318.976 370c-.1 4.306-.452 6.517-.826 5.191-.357-1.27-1.079-2.282-1.603-2.249-1.559.098-.929 37.728.721 43.058l1.393 4.5.749-3.25c1.187-5.151 4.59-3.334 4.59 2.45 0 3.267 1.364 4.463 2.338 2.05.301-.747.536-.545.583.5.043.962-.371 1.75-.921 1.75s-1 .436-1 .969c0 .532.663.714 1.473.403 1.331-.511 2.571-4.524 3.051-9.872.117-1.312.781-1.891 1.928-1.683.962.174 1.498-.089 1.191-.586-.307-.496-.627-5.644-.712-11.439-.085-5.794-.581-11.156-1.102-11.914-.619-.901-.84 1.708-.638 7.53.185 5.327-.093 9.045-.691 9.25-.55.188-1.037-1.12-1.083-2.908-.045-1.788-.581-6.4-1.19-10.25-.608-3.85-1.211-9.925-1.339-13.5-.293-8.201-.714-9.819-2.652-10.196-.857-.167-2.127-1.879-2.821-3.804-1.23-3.408-1.267-3.303-1.439 4m17.566 27.75c.435 15.299 1.033 20.25 2.444 20.25.455 0 .584-.927.288-2.059-.398-1.522.029-2.207 1.634-2.627 5.044-1.319 7.397-17.314 2.547-17.314-1.154 0-5.455-9.491-5.455-12.038a.954.954 0 0 0-.939-.962c-.562 0-.771 5.921-.519 14.75" fill="#d3d3d3" fill-rule="evenodd"/></svg>