<svg xmlns="http://www.w3.org/2000/svg" width="500" height="599"><path d="M279.117 31.774c-17.119.27-17.357.304-15.632 2.21 1.279 1.413 1.551 2.689 1.006 4.726-.41 1.534-.657 5.141-.547 8.015.332 8.738-1.961 11.429-9.434 11.066-6.538-.317-8.519-2.83-5.221-6.623 3.328-3.827 2.388-8.168-1.767-8.168-3.084 0-5.663 3.59-4.865 6.77.524 2.088.291 2.359-1.777 2.067-2.23-.316-2.399-.804-2.677-7.74-.175-4.371.146-7.852.785-8.5.594-.603 5.678-1.627 11.297-2.276 9.041-1.043-92.613-.918-124.785.154-3.85.128-19.15.309-34 .403-30.176.19-57.508 1.857-58.02 3.538-.463 1.52-2.411 83.304-3.265 137.084-.393 24.75-.715 106.088-.715 180.75V491H0v108.004l250.25-.252 250.25-.252.286-52.5c.158-28.875.025-53.962-.295-55.75l-.582-3.25h-34.85l.221-73.487c.145-48.525-.12-73.45-.78-73.381-2.395.251-3.299-.257-3.79-2.132-.579-2.216 2.052-2.838 3.955-.935.753.753.945-7.81.657-29.25-.224-16.673-.377-30.99-.34-31.815.554-12.229-.633-117.182-1.476-130.5-.537-8.503-1.995-98.025-1.708-104.896.296-7.085-.367-7.504-11.919-7.517-9.886-.012-9.964.007-10.977 2.671-.827 2.174-.691 2.923.716 3.952 2.049 1.498 1.629 2.148-1.629 2.518-2.153.245-2.395-.12-2.465-3.728-.042-2.2-.418-4.545-.836-5.211-.579-.925-15.335-1.237-62.473-1.319-33.943-.059-64.865-.189-68.715-.289-3.85-.099-14.822-.058-24.383.093m36.637 2.176c-3.711.39-6.861.899-7 1.13-.14.231-.818 1.32-1.506 2.42-2.507 4.003-3.021 6.166-3.389 14.258-.402 8.865-.152 9.244 4.655 7.054 1.897-.865 2.481-1.751 2.142-3.25-.256-1.134-.09-2.962.369-4.062.646-1.548.85-1.084.905 2.05.117 6.777 5.449 8.868 10.07 3.95 1.292-1.375 3.144-2.5 4.115-2.5 2.913 0 3.389-2.968 2.566-16-.401-6.334-.469-6.361-12.927-5.05m-43.058.687c-1.332 1.332-.727 5.363.804 5.363.825 0 1.5.45 1.5 1s-.675 1-1.5 1c-1.199 0-1.5 1.491-1.5 7.418 0 4.08-.293 8.181-.65 9.114-1.265 3.294 7.561.716 12.534-3.661 4.373-3.849 7.541-5.293 5.064-2.308-1.142 1.375-.947 1.479 1.627.862 1.609-.386 3.825-1.199 4.925-1.806 1.863-1.029 1.803-1.128-.884-1.441l-2.884-.337 3.183-1.936c3.056-1.858 3.172-2.166 2.884-7.67L297.5 34.5l-12.054-.279c-6.63-.154-12.367.034-12.75.416m68.771.549l-6.033.931-2.224 9.191c-2.605 10.762-2.779 14.536-.71 15.33 4.284 1.644-.08 2.166-14.63 1.75-14.388-.412-16.341-.272-18.074 1.296-1.736 1.571-3.94 1.726-20.703 1.451-16.561-.271-18.76-.121-18.76 1.274 0 1.379 1.537 1.52 12.084 1.107 6.646-.261 22.095-.498 34.333-.528 12.475-.031 22.25-.45 22.25-.954 0-.495 1.849-.731 4.11-.524 4.393.402 6.479 1.415 3.307 1.605-2.267.136 5.065 1.744 8.333 1.827 2.655.068 3.024-1.593.5-2.253-.962-.251-.099-.509 1.918-.573C352 65.963 354 65.125 354 63.253c0-.843.622-2.032 1.381-2.643 2.675-2.15 2.905-9.233.366-11.287-1.239-1.003-2.752-3.736-3.361-6.073L351.278 39h3.361c2.091 0 3.361-.491 3.361-1.3 0-3.711-4.422-4.383-16.533-2.514m43.474-.936c-.032.138-.192 2.008-.356 4.158-.319 4.21-3.315 7.648-4.704 5.399-.566-.916-1.394-.887-3.559.122-2.634 1.227-2.689 1.368-.822 2.123 1.921.775 1.913.81-.191.878-1.205.038-2.469-.38-2.809-.93-1.11-1.796-4.236-1.052-5.836 1.39-.874 1.334-1.698 5.127-1.865 8.582l-.299 6.191 6 .392c3.3.216 8.925.632 12.5.924 7.808.639 8.865.069 10.104-5.449 1.572-6.993-.426-10.263-3.547-5.807-1.023 1.459-1.552 1.717-1.542.75.021-2.011 1.146-3.494 3.235-4.265 3.66-1.35-.167-14.708-4.214-14.708-1.12 0-2.063.112-2.095.25m-313.311 6c-.874 3.262-.765 9.75.164 9.75.437 0 2.725-1.8 5.084-4 4.277-3.988 7.92-5.644 4.777-2.171-.91 1.006-1.655 2.325-1.655 2.932 0 .607-1.013 1.42-2.25 1.806-3.009.939-3.716 2.217-3.735 6.742-.02 4.932-1.99 3.876-2.085-1.118-.111-5.818-1.774-.847-1.86 5.559-.061 4.607.175 5.25 1.93 5.25 1.111 0 2-.667 2-1.5 0-2.309 1.691-1.777 2.383.75.815 2.974 2.597.486 1.869-2.611-.498-2.122-.489-2.123 1.091-.139 1.577 1.979 1.594 1.976 1.625-.282.02-1.451-.788-2.612-2.218-3.187-2.215-.89-2.217-.905-.117-.968 1.259-.037 2.348-.883 2.657-2.063.633-2.42 3.988-2.625 8.074-.494 4.116 2.146 4.959 1.907 7.066-2.006 2.041-3.789 4.11-4.776 3.057-1.458-.965 3.04.541 11.091 1.582 8.458 1.292-3.27 1.085-18.946-.269-20.3-.816-.816-5.574-1.2-14.883-1.2-13.345 0-13.699.056-14.287 2.25m48.62 3c-1.282 1.61-5.25 10.693-5.25 12.017 0 1.212 10.841.292 12.166-1.033.995-.995-3.627-12.234-5.031-12.234-.49 0-1.338.563-1.885 1.25m-73.185 3.885c-6.595 1.094-5.867.267-6.509 7.402-.295 3.28-.811 8.707-1.146 12.062-.579 5.787-.471 6.208 2.125 8.25 4.291 3.375 4.817 2.823 4.147-4.349-.644-6.901-.489-7.155 3.136-5.143 2.065 1.146 2.147 1.427.75 2.587-2.578 2.139-1.961 6.366 1.139 7.806 5.596 2.599 6.771.126 4.596-9.675-.662-2.984-.983-5.784-.712-6.222.271-.438-.29-2.047-1.247-3.575-.956-1.528-1.785-2.876-1.842-2.996-.057-.119-1.747.287-3.756.904-3.069.942-3.5 1.405-2.699 2.902 1.535 2.868 1.023 4.658-.547 1.912-2.371-4.148-1.859-5.669 2.25-6.675 2.063-.505 4.467-.765 5.344-.578 2.859.609 6.192 9.036 6.699 16.937.655 10.198 1.785 9.123 2.56-2.434.359-5.362.939-12.112 1.289-15l.637-5.25-5.39.117c-2.964.064-7.835.522-10.824 1.018m395.957 10.61c-6.699.459-6.988.882-7.007 10.26L436 75.511l3.75 1.393c2.063.766 6.675 1.439 10.25 1.494l6.5.102-.108-3.5c-.06-1.925-.267-6.763-.462-10.75l-.353-7.25-3.539.185c-1.946.102-6.003.354-9.016.56m-76.011 22.842c-6.689 6.256-16.111 19.49-19.7 27.67-1.63 3.716-3.203 6.517-3.495 6.225-.292-.291-1.1.156-1.796.994-.706.85-.82 1.524-.259 1.524.553 0 1.241.899 1.528 1.997.287 1.099 1.577 2.42 2.867 2.937 2.238.897 2.248.942.216 1.003-2.834.084-4.691 2.483-3.886 5.02 1.013 3.191-1.816 3.547-8.057 1.014-4.154-1.686-5.835-1.965-6.689-1.111-1.663 1.663-2.775 1.394-2.049-.496.345-.9.218-1.455-.282-1.233-5.525 2.451-10.541 5.358-11.968 6.934-2.552 2.821-.267 2.37 5.636-1.11 2.841-1.676 5.331-2.88 5.534-2.678.635.635-3.545 4.637-6.39 6.117-1.497.779-3.812 2.584-5.145 4.011-1.334 1.427-3.246 2.595-4.25 2.595-3.73 0-1.626 2.216 4.924 5.187 3.712 1.684 7.279 3.14 7.926 3.235.647.095 2.001 1.192 3.009 2.437 1.221 1.508 2.414 2.04 3.574 1.595 1.978-.759 2.335-3.089.564-3.68-1.688-.562-.04-2.774 2.067-2.774 1.786 0 14.352-12.299 17.44-17.069.914-1.412 1.724-3.887 1.8-5.5.203-4.297 3.239-10.513 6.775-13.868 1.702-1.615 3.095-3.698 3.095-4.628 0-.929.675-2.25 1.5-2.935s1.5-1.865 1.5-2.622c0-.758.347-1.378.771-1.378.425 0 3.218-3.138 6.208-6.972 2.989-3.835 5.991-7.186 6.67-7.447.679-.26 1.987-1.622 2.906-3.025 1.606-2.451 1.579-2.629-.691-4.52-3.709-3.09-6.455-2.499-11.853 2.551M447.306 88c-.623 1.65-.721 3-.219 3s.913 1.058.913 2.351.511 3.816 1.135 5.607c.911 2.613.862 3.437-.25 4.168-1.14.75-1.072 1.095.386 1.954.974.573 1.516 1.456 1.204 1.961-1.224 1.98 1.604 5.085 4.342 4.769 3.06-.354 3.976-4.3 1.004-4.323-3.182-.024-3.138-1.48.078-2.602 2.188-.762 3.043-1.593 2.662-2.586-.308-.804-.561-1.651-.561-1.881 0-.23-1.125-.418-2.5-.418s-2.5-.441-2.5-.981c0-.539 1.125-1.263 2.5-1.608 1.623-.408 2.5-1.329 2.5-2.626 0-1.511-.428-1.824-1.75-1.281-2.994 1.229-4.75 1.056-4.75-.467 0-.804 1.462-1.882 3.25-2.394 4.609-1.322 4.504-4.388-.132-3.847-1.86.218-3.686-.098-4.059-.7-1.118-1.81-2.059-1.26-3.253 1.904m-3.106 31.2c-1.714 1.714-1.483 4.8.359 4.8.922 0 1.268.471.847 1.152-.391.633.045 1.705.971 2.381 1.472 1.077 1.491 1.304.152 1.817-1.607.617-2.167 4.65-.646 4.65.486 0 1.119.9 1.407 2 .349 1.336 1.364 2 3.057 2 3.438 0 4.417-1.963 1.968-3.946-1.612-1.305-1.753-1.855-.725-2.816 1.035-.966.966-1.818-.362-4.466-.902-1.8-1.514-4.509-1.359-6.022.31-3.025-3.227-3.992-5.669-1.55m-208.713 14.599c-8.11 2.804-14.344 7.001-21.382 14.393-3.633 3.816-9.755 9.661-13.605 12.989-7.14 6.171-20.766 20.887-20.025 21.627.225.225 2.572-1.352 5.217-3.503 2.644-2.152 6.116-4.564 7.716-5.359 2.699-1.342 19.371-17.383 32.895-31.65 4.65-4.906 6.738-6.346 10.509-7.251 2.588-.621 5.376-1.553 6.197-2.072 2.542-1.607-1.896-1.12-7.522.826m3.443 4.681c-4.652 1.019-6.332 2.035-10.193 6.163-7.052 7.539-8.969 10.255-9.67 13.699-.519 2.549-1.232 3.254-3.696 3.658-3.129.512-11.502 7.396-24.525 20.163-4.748 4.654-7.353 6.517-8.641 6.18-3.312-.866-4.369 1.783-3.105 7.78.624 2.957 1.546 5.891 2.049 6.518 1.652 2.06 6.712 2.17 8.508.186.909-1.005 2.371-1.841 3.248-1.859.877-.017 2.471-.694 3.543-1.504 1.077-.815 2.813-1.198 3.886-.858 1.675.532 1.849.26 1.283-1.995-.36-1.436-.237-2.611.274-2.611s3.299-1.873 6.196-4.163c7.945-6.28 29.95-19.399 33.84-20.174 1.885-.376 3.235-.497 3-.268-.235.229-3.346 2.561-6.913 5.182-7.656 5.626-6.822 6.647 2.091 2.561a597.345 597.345 0 0 1 13.395-5.895c3.85-1.629 9.925-4.633 13.5-6.676l6.5-3.713-4.856.65c-2.67.358-8.049 1.691-11.952 2.964-6.84 2.23-10.328 2.37-9.088.364.325-.527-.187-1.818-1.138-2.87-1.657-1.83-1.616-1.954.967-2.937 1.484-.564 2.902-1.025 3.152-1.025s2.291-1.159 4.535-2.576l4.08-2.575 5.65 2.236c3.107 1.231 6.55 2.702 7.65 3.27 2.459 1.269 5.432 1.409 7.75.364 1.048-.473 1.75-.374 1.75.246 0 .569 1.492 1.035 3.316 1.035 3.993 0 15.574-9.75 14.208-11.962-1.085-1.755-10.02-.804-12.363 1.316-2.883 2.609-18.161 1.837-18.161-.917 0-1.58-2.127-2.293-7.75-2.598-2.337-.126-4.25-.592-4.25-1.035 0-1.195-2.777-.974-3.554.283-.369.598-.171 1.588.441 2.2.612.612 1.113 1.484 1.113 1.938 0 .955-5.055 3.053-5.73 2.378-.931-.931 2.187-7.603 3.553-7.603 1.151 0 1.184-.286.177-1.5-.685-.825-2.063-1.5-3.063-1.5-1.001 0-2.097-.45-2.437-1-.34-.55.335-1 1.5-1s1.84-.45 1.5-1c-.77-1.246-4.372-1.096-11.57.48m64.307 11.197c-2.065 2.319-3.06 4.307-2.709 5.411.44 1.386.113 1.631-1.586 1.187-3.505-.917-8.924 6.759-5.692 8.063.688.277-.1.554-1.75.615-4.119.152-6.898 2.418-6.206 5.062.308 1.178.034 2.28-.622 2.5-.644.216-3.759 1.12-6.922 2.01-7.321 2.059-7.345 3.475-.059 3.475 5.16 0 5.51.132 3.75 1.419-1.067.781-1.941 1.913-1.941 2.516 0 1.94-5.755 5.098-7.163 3.93-2.407-1.998-13.157 1.999-11.703 4.352.342.553 2.245.738 4.262.416 2.267-.363 4.678-.048 6.375.833 2.364 1.226 2.729 1.223 2.729-.025 0-.824.964-1.447 2.25-1.455 1.238-.007 3.375-.271 4.75-.586 1.425-.327 2.039-.214 1.427.263-.59.46-1.364 1.625-1.719 2.588-.356.964-2.235 2.51-4.177 3.436-4.825 2.301-4.491 3.722.681 2.895 5.569-.89 4.829-.374-4.724 3.299-8.651 3.326-16.129 9.487-13.493 11.116.749.463 2.667.255 4.415-.478 3.641-1.528 31.871-9.519 33.628-9.519.926 0 .917.349-.038 1.5-.685.825-2.513 1.5-4.063 1.5-1.551 0-3.101.457-3.446 1.015-.916 1.482-7.335 3.985-10.22 3.985-1.848 0-2.33.403-1.882 1.571.808 2.105-5.097 7.586-13.389 12.429-3.582 2.092-7.326 4.703-8.321 5.802-3.092 3.417-.051 3.558 5.705.264 5.927-3.391 7.493-3.828 5.616-1.566-1.936 2.333 1.274 1.959 3.406-.396 1.343-1.485 1.431-2.026.405-2.491-.721-.327-.317-.349.897-.05 1.214.3 3.464-.178 5-1.061l2.792-1.606-3 .625-3 .625 2.076-1.95c1.436-1.349 3.375-1.915 6.296-1.838 2.321.061 4.537-.377 4.924-.974 1.141-1.759 4.545-3.214 8.762-3.748 2.168-.274 6.366-.98 9.328-1.567 8.267-1.64 9.228-1.176 2.614 1.262-5.902 2.176-5.994 2.269-5.656 5.691.19 1.913.72 4.153 1.18 4.977.538.967.238 2.166-.845 3.375-1.614 1.803-1.553 1.849 1.571 1.171 2.095-.453 3.25-.32 3.25.376 0 .593-.436 1.079-.969 1.079-.532 0-.692.72-.354 1.601.338.88-.014 1.999-.781 2.485-.998.631-1.039.888-.146.899.688.008 1.25.465 1.25 1.015 0 .55-.675 1-1.5 1s-1.5.69-1.5 1.534c0 2.018 9.925.959 11.681-1.246 1.559-1.956.587-4.288-1.788-4.288-2.047 0-2.541-1.481-.844-2.53 1.569-.97-.863-3.463-3.421-3.505-2.005-.034-1.983-.119.372-1.465 4.098-2.343 6-1.906 6 1.378 0 3.986 2.722 10.122 4.49 10.122 1.833 0 4.908-4.547 4.033-5.963-.357-.578.166-1.362 1.164-1.741.997-.379 2.711-1.825 3.809-3.213 1.098-1.388 3.051-3.437 4.341-4.554 2.525-2.185 8.163-10.099 8.163-11.458 0-1.29 5.782-3.369 7.517-2.703 1.639.629 1.724.392-3.217 8.979-.66 1.147-.936 2.326-.613 2.62.323.293.788-.029 1.033-.717.576-1.613 2.99-1.619 3.527-.009.228.683-.145 1.8-.828 2.482-.682.683-1.029 2.053-.77 3.044.31 1.186-.831 2.986-3.339 5.267l-3.81 3.466 2.81.322c3.565.409 5.499-1.211 7.769-6.507.994-2.317 3.237-5.699 4.986-7.514 4.049-4.204 5.528-6.574 6.379-10.226.604-2.59.501-2.774-.905-1.607-2.21 1.834-3.09.536-1.701-2.511 1.59-3.491 1.408-5.365-.303-3.107-.771 1.018-1.769 1.634-2.218 1.37-1.281-.753-24.991 3.478-28.817 5.143-3.043 1.323-11.249 3.147-13.764 3.058-1.87-.066-1.745-.243.764-1.078 1.65-.55 5.349-1.911 8.219-3.025 2.871-1.114 9.171-2.839 14-3.833 4.83-.994 12.156-2.74 16.281-3.879 4.125-1.14 10.2-2.087 13.5-2.105 3.3-.019 10.714-.888 16.475-1.932 7.048-1.278 11.055-1.588 12.25-.949 2.54 1.36 2.191 2.682-.567 2.155-1.361-.26-3.034.244-3.993 1.203-.908.907-2.441 1.54-3.408 1.404-.966-.135-3.695.105-6.065.534-3.765.681-4.092.937-2.597 2.029 1.352.99 1.571 2.118 1.045 5.403-.365 2.284-.281 4.152.188 4.152 1.002 0 3.172-4.464 3.172-6.524 0-2.567 4.752-4.91 7.458-3.677 2.013.917 2.605.747 3.87-1.108 2.424-3.556 5.496-.094 3.72 4.192-1.659 4.005-1.007 5.933 1.245 3.681 3.408-3.408 3.423-11.564.021-11.564-4.657 0 .593-1.253 8.126-1.94 9.487-.865 10.573-1.343 8.768-3.858-2.261-3.151-2.479-4.327-1.236-6.65.681-1.273.948-3.229.593-4.349-.356-1.119-.178-2.324.394-2.678.587-.362 1.041-4.289 1.041-8.997v-8.354l-2.941 1.11c-3.058 1.154-4.343 3.797-4.482 9.216-.073 2.844-.52 3.5-2.385 3.5-.444 0-1.232-1.912-1.75-4.25-1.092-4.928-2.557-5.224-3.85-.779-.579 1.992-1.394 2.935-2.25 2.607-.851-.327-1.342.227-1.342 1.512 0 1.116.399 1.781.887 1.48.487-.301 1.464.148 2.17.999s2.67 2.138 4.363 2.86c3.603 1.536 8.246 6.239 7.196 7.288-.399.399-1.048.202-1.443-.437-1.481-2.396-6.22-4.059-9.476-3.324-3.662.826-8.614-.577-11.859-3.36-2.827-2.424-12.618-7.596-14.381-7.596-4.867 0-1.13 4.542 4.523 5.497 2.211.373 4.02 1.059 4.02 1.524 0 .464.934 1.141 2.075 1.503 1.142.362 1.867.868 1.611 1.123-.255.256-5.802-1.298-12.325-3.452-14.935-4.933-17.092-5.44-17.859-4.199-1.051 1.702-4.757 1.113-7.15-1.135-1.252-1.177-3.298-2.648-4.545-3.27-1.247-.622-2.312-2.022-2.366-3.111-.294-5.892-.504-6.48-2.319-6.48-1.032 0-2.437-.675-3.122-1.5-1.756-2.116-5.171-1.943-4.948.25.522 5.125-.028 5.867-2.195 2.962-3.228-4.329-12.782-10.28-18.857-11.748-5.673-1.371-8.737-2.964-5.7-2.964.935 0 1.7-.45 1.7-1 0-2.075-2.615-.86-5.763 2.677M143.5 151.512c-2.596 1.197-13.533 5.968-24.25 10.578-1.787.769-3.25 1.797-3.25 2.284 0 1.461 9.289-.048 10.501-1.706.617-.845 2.445-1.859 4.061-2.255 1.616-.396 4.506-1.551 6.423-2.566 1.917-1.016 4.023-1.847 4.681-1.847 1.52 0 8.235-4.252 8.292-5.25.065-1.152-3.125-.776-6.458.762m301 2.557c-5.412 4.496-9.827 9.941-10.054 12.399-.103 1.118-.696 1.919-1.317 1.782-.621-.138-1.129.425-1.129 1.25s.627 1.5 1.393 1.5 1.652.675 1.969 1.5c1.167 3.042 7.755 1.847 12.8-2.322 6.128-5.064 8.191-7.178 7.005-7.178-.561 0-.75-1.694-.443-3.982.385-2.869.149-4.103-.845-4.415-3.202-1.005-8.452-1.304-9.379-.534m-391.061.729c-3.769.277-4.171.6-5.592 4.5C46.228 163.74 43 165.666 43 162.19c0-1.125-.862-2.182-2.029-2.487-1.115-.292-1.903-1.105-1.75-1.807.154-.703-.562-1.46-1.589-1.683-1.364-.296-1.642-.041-1.029.941 1.28 2.05 1.375 4.018.291 6.043-.789 1.475-.532 2.008 1.312 2.719 2.028.781 2.091.966.544 1.591-2.755 1.113-2.077 2.792.834 2.061 1.675-.42 2.358-.283 1.941.392-.354.572-.14 1.04.475 1.04s.906.342.648.761c-.259.419.161 1.625.933 2.681 1.37 1.873 1.469 1.86 3.997-.511l2.592-2.431 1.719 2.118c1.709 2.107 1.731 2.108 4.127.168 1.632-1.322 3.292-1.774 5.145-1.404l2.736.547-.533-5.214c-.293-2.868-.683-6.34-.866-7.715-.183-1.375-.371-3.01-.416-3.633-.101-1.39-3.262-1.964-8.643-1.569m90.562 1.922c-3.024.807-5.724 1.763-6 2.125-.275.362-1.773 1.314-3.328 2.117-2.261 1.166-2.498 1.573-1.184 2.034 2.157.757-.664 3.421-4.613 4.357-1.443.342-3.693 1.554-5 2.694l-2.376 2.072 5-.658c7.121-.938 14.009-4.91 11.357-6.55-.655-.404.87-.704 3.39-.666 5.334.081 10.753-1.877 10.753-3.885 0-1.311-2.024-1.257-6.718.18-.67.205-1.461-.021-1.759-.502-.297-.482.782-1.166 2.399-1.521s3.476-1.292 4.131-2.081c1.383-1.666 1.232-1.659-6.052.284m301.41 2.171c-6.238 3.804-9.268 10.128-5.225 10.906 4.048.78 12.549-7.719 11.21-11.207-.795-2.073-2.209-2.002-5.985.301m-285.935 21.961c-1.663 1.014-4.813 2.43-7 3.146-6.982 2.287-18.476 7.851-18.476 8.945 0 1.892 3.053 1.133 13.962-3.471 5.9-2.491 11.432-4.258 12.292-3.928 1.638.629 7.746-2.029 7.746-3.37 0-3.237-4.292-3.903-8.524-1.322m282.032 4.896c-4.946.185-9.382.726-9.858 1.202-.909.909-2.861 23.172-2.099 23.934.242.243 1.567-.073 2.945-.7 1.377-.628 2.504-.731 2.504-.23s-.846 1.18-1.881 1.508c-1.605.51-3.119 4.239-3.119 7.685 0 .494 3.038.666 6.75.383 3.712-.283 10.696-.8 15.519-1.148 4.823-.349 9.042-1.076 9.375-1.615.828-1.34-1.731-8.831-2.793-8.175-1.049.648-1.14-2.97-.101-4.008 1.201-1.2 1.077-5.633-.335-11.993-1.372-6.179-2.582-7.687-5.915-7.37-1.1.105-6.047.342-10.992.527m-280.906 5.846c-.33.86-1.61 1.12-3.8.771-1.816-.29-4.652.041-6.302.734-1.65.694-4.662 1.364-6.694 1.49-5.353.333-21.979 9.404-17.256 9.416 2.877.007 11.45-3.248 11.45-4.349 0-.521 1.164.308 2.586 1.842l2.586 2.79 3.664-1.751c2.015-.964 6.814-2.886 10.664-4.271 6.831-2.459 8.453-3.587 8.485-5.899.022-1.652-4.781-2.341-5.383-.773m-5.102 12.724c-14.051 7.345-23.385 12.686-24.05 13.763-.799 1.293-.542 1.211 4.969-1.585 2.706-1.373 5.537-2.496 6.292-2.496.755 0 4.166-1.3 7.581-2.888 3.414-1.589 8.447-3.643 11.183-4.565 5.972-2.012 7.525-3.182 7.525-5.669 0-2.918-2.608-2.254-13.5 3.44m253.859-3.529c-.039.941-.385 2.439-.771 3.33-.496 1.144-.077 1.781 1.43 2.176 1.787.467 1.958.881 1.057 2.565-.591 1.105-1.089 3.276-1.107 4.824-.017 1.549-.692 3.69-1.5 4.757-.868 1.148-1.468 4.139-1.468 7.322 0 2.996-.554 5.913-1.25 6.582-1.911 1.838-6.68 1.451-7.329-.595-.306-.963-1.425-1.75-2.488-1.75-2.05 0-2.671-1.587-.858-2.192.646-.215.806-1.435.399-3.054-.579-2.309-.876-2.495-2.075-1.296-1.737 1.737-1.834 6.2-.149 6.88.747.301.545.536-.5.583-.962.043-1.75.556-1.75 1.138 0 .582-.474.766-1.052.409-.589-.364-1.567.713-2.22 2.441-.641 1.7-1.673 3.091-2.292 3.091-1.496 0-4.772-3.683-5.068-5.698-.485-3.302-7.368-3.192-7.368.118 0 .604-.842 1.625-1.872 2.268-1.595.996-2.041.798-3.013-1.334-.627-1.377-.847-2.979-.489-3.559 1.817-2.939-2.56.429-5.424 4.175-2.67 3.49-3.183 4.905-2.693 7.421l.606 3.109-3.693-3.883c-2.826-2.971-3.88-3.559-4.489-2.5-3.029 5.264-3.788 5.568-6.311 2.525-1.43-1.725-2.631-2.437-3.028-1.794-.362.586-1.392.783-2.29.438-.98-.376-1.38-.219-1.002.393.346.561-.48 1.984-1.836 3.164-1.356 1.179-2.466 2.649-2.466 3.267 0 .668-1.045.923-2.579.63-1.638-.313-2.771.009-3.107.884-.886 2.31-3.009 1.545-5.199-1.874-1.555-2.428-2.086-2.776-2.098-1.378-.014 1.551-.275 1.659-1.517.628-1.118-.928-1.5-.944-1.5-.063 0 .649-.337.986-.75.747-.413-.238-1.65-.072-2.75.371-1.726.694-1.611.814.833.875 3.625.09 3.057 2.245-.915 3.47-3.809 1.174-10.149 4.159-13.918 6.551-7.77 4.932-10.411 5.905-10.999 4.053-.3-.947-.263-2.461.083-3.363.768-2.001.395-2.031-3.053-.242-5.8 3.01-7.469.132-3.311-5.708 1.288-1.809 1.678-3.193 1.07-3.801-1.545-1.545-4.346.15-4.937 2.986-.301 1.443-1.934 3.524-3.629 4.624-4.852 3.147-4.816 4.91.087 4.252 3.81-.511 4-.422 2.893 1.351-.652 1.043-1.685 1.897-2.296 1.897-.611 0-2.427 1.238-4.036 2.75-1.608 1.512-3.812 2.904-4.898 3.092-1.086.187-2.134.779-2.329 1.314-.195.535-1.433 1.383-2.75 1.884-1.317.501-2.395 1.597-2.395 2.435 0 .839-.675 1.525-1.5 1.525s-1.387.563-1.25 1.25c.149.746-.843 1.268-2.462 1.296-3.476.058-4.898 1.403-1.705 1.612 2.58.168 3.707.095 8.397-.544 2.919-.397 3.927.173 11.355 6.422 1.284 1.08 3.444 1.964 4.8 1.964 1.355 0 3.679.612 5.165 1.361 4.464 2.25 11.562 3.025 10.856 1.185-.968-2.523 2.562-3.58 8.986-2.689 5.102.707 5.503.912 3.108 1.586-2.526.711-2.863 1.125-2.691 3.307.032.413-.98 1.067-2.25 1.454-1.662.507-1.215.647 1.597.5 2.389-.125 4.071.281 4.333 1.047.272.796-.148 1.029-1.155.643-3.282-1.259-1.427.645 2.038 2.093 4.242 1.772 5.378 1.88 5.378.513 0-.55-.675-1-1.5-1s-1.5-.47-1.5-1.045c0-.66 1.383-.8 3.75-.378 2.063.367 4.2.725 4.75.795.55.07.858-.701.685-1.714-.66-3.857 7.149-5.892 13.565-3.534 2.741 1.007 3.056 3.266.334 2.403-3.136-.996-3.155.896-.028 2.691 1.595.915 3.152 1.255 3.46.755.685-1.107 5.861-.279 10.125 1.619 3.394 1.511 4.977 3.982 3.053 4.764-.657.268-.182.522 1.056.565 1.238.043 2.25-.371 2.25-.921s.505-1 1.122-1c.776 0 .738.464-.122 1.5-1.06 1.278-.791 1.5 1.819 1.5 1.684 0 3.346.457 3.691 1.016.346.559 1.047.758 1.559.441.512-.316.931.352.931 1.484 0 1.132.563 2.111 1.25 2.174 2.139.198 3.189.471 5.037 1.313 1.19.542 2.401.259 3.623-.847 1.722-1.558 1.869-1.534 2.369.379.294 1.122.126 2.04-.373 2.04-.498 0-.906-.477-.906-1.059s-.518-.739-1.151-.347c-1.457.9 1.738 3.406 4.342 3.406.995 0 1.809.45 1.809 1s.852 1 1.893 1 2.127.611 2.414 1.358c.287.747 1.842 1.622 3.455 1.944 1.614.323 7.608 3.499 13.319 7.058 5.712 3.558 10.73 6.257 11.152 5.996.919-.568 1.027-9.515.142-11.821-.343-.895-2.863-2.762-5.599-4.149-5.637-2.856-5.963-4.198-.462-1.899 7.624 3.185 7.957.699.372-2.773-5.64-2.582-11.721-7.714-9.141-7.714.8 0 1.455-.45 1.455-1 0-.899-.767-1.165-2.638-.915-.351.047-1.026-.515-1.5-1.25-.691-1.071-1.025-1.083-1.684-.064-.637.985-1.32.841-3.027-.64-1.212-1.052-4.217-2.214-6.678-2.583-2.46-.369-4.473-1.13-4.473-1.691 0-.603 1.329-.784 3.25-.442 1.788.317 4.825.843 6.75 1.169l3.5.591-3-2.552c-1.65-1.403-2.485-2.567-1.856-2.587 1.767-.056 1.068-4.991-.79-5.582-.906-.288-2.031-.454-2.5-.37-.47.084-1.079.059-1.354-.056-.275-.114-2.153-.333-4.174-.485-5.816-.439-13.236-2.87-11.105-3.638 1.334-.481.724-.961-2.438-1.922-5.825-1.768-4.596-2.703 3.781-2.875 6.202-.128 8.267.348 16.27 3.747 5.041 2.142 10.291 4.221 11.666 4.62s5.27 2.224 8.655 4.054c3.385 1.831 6.422 3.06 6.75 2.733.327-.327.595-5.47.595-11.429 0-6.686.39-10.833 1.018-10.833.582 0 .953-2.253.866-5.25-.085-2.887.019-6.102.231-7.142.809-3.975-2.165-2.657-4.079 1.809-2.302 5.37-3.499 5.608-10.455 2.079-2.706-1.373-5.631-2.503-6.5-2.511-1.386-.014-1.396-.135-.081-.977.825-.53 2.288-.717 3.25-.418.962.3 1.75.064 1.75-.523 0-.968-3.125-1.541-7-1.282-.825.055-3.871-.584-6.77-1.419-2.898-.836-5.823-1.321-6.5-1.078-.676.243-2.037.026-3.023-.481-.986-.508-6.066-.912-11.289-.897-5.872.016-9.268-.344-8.898-.942.329-.533 1.435-.968 2.457-.968 5.587 0 6.641-2.71 1.273-3.272-2.492-.26-1.57-.463 2.75-.603 3.575-.117 8.525-.607 11-1.089 2.918-.568 5.978-.484 8.705.239 3.503.929 4.505.854 6-.452 4.818-4.209 13.863-6.291 19.316-4.446 3.846 1.302 10.88.549 7.729-.827-2.85-1.244-2.239-3.686.647-2.589 1.319.501 2.669.64 3 .308.726-.725.725-.751.777 23.731.058 26.629 1.552 13.124 2.269-20.492.32-15.009.894-24.12 1.534-24.334.563-.187 1.023-1.005 1.023-1.816 0-.812-.45-1.198-1-.858-1.085.671-1.429-4.737-.369-5.798.922-.922 1.194-7.702.309-7.702-.414 0-1.064 2.363-1.444 5.25-.698 5.294-4.057 18.644-4.905 19.493-1.433 1.432-2.716-1.346-2.13-4.611 1.136-6.333 1.766-22.129.886-22.206-.466-.041-1.763-.249-2.883-.461-1.388-.264-2.058.157-2.105 1.324m27.141 22.929c-1.65.171-4.391.536-6.091.812l-3.091.501.37 13.728c.268 9.939.751 14.109 1.751 15.109 1.988 1.988 27.545 2.21 29.902.26 1.387-1.148 1.657-3.445 1.645-14-.019-17.917.859-16.619-11.289-16.674-5.608-.025-11.547.094-13.197.264m2.5 37.501c-11.815 1.052-12.833 1.51-10.035 4.513 1.302 1.398 1.574 2.255.798 2.514-1.852.617-2.433 20.754-.599 20.754.769 0 1.907-1.35 2.53-3 1.239-3.284 3.619-3.836 6.647-1.542 2.246 1.703 1.314 3.812-2.918 6.602l-2.923 1.927 8.25.006c8.079.007 9.283-.533 8-3.588-.396-.942 6.52-4.317 8.942-4.363 1.818-.035 2.175-.596 2.094-3.292-.053-1.788.256-5.613.687-8.5.777-5.201.76-5.25-1.844-5.25-1.67 0-2.629-.547-2.629-1.5 0-2.069-2.734-1.89-3.808.25-.942 1.877-.182 6.407 1.058 6.309 2.04-.161 2.092.124.275 1.498-1.642 1.241-1.774 1.815-.781 3.405 1.046 1.675.752 2.186-2.363 4.112-2.649 1.637-3.216 2.415-2.22 3.047.97.615.735.853-.852.864-2.649.018-3.952-1.742-2.422-3.272.612-.612 1.113-2.013 1.113-3.113 0-1.556-.267-1.733-1.2-.8-2.252 2.252-4.337 1.451-2.244-.862 1.027-1.134 2.648-1.856 3.607-1.606 2.099.549 2.893-1.229 1.532-3.431-1.232-1.995-.094-6.901 1.602-6.901 1.711 0 4.906-3.862 4.174-5.047-.324-.524-1.35-.889-2.28-.811-.93.077-6.416.562-12.191 1.077M47 297.294c0 1.792.682 2.784 2.25 3.273 4.204 1.312 5.215 5.433 1.332 5.433-6.331 0-7.467 3.82-2.541 8.539 1.673 1.603 4.42 5.062 6.104 7.687 3.229 5.032 4.044 5.552 5.52 3.524 1.48-2.032 1.63-6.75.215-6.75-.726 0-.475-.576.591-1.355 1.291-.944 1.623-1.931 1.093-3.25-.419-1.042-.953-5.469-1.188-9.837-.235-4.368-.605-8.12-.822-8.338-.218-.217-3.132-.643-6.475-.947-6.006-.544-6.079-.52-6.079 2.021m400 4.695c-4.349.419-5.029.699-3.25 1.338 3.753 1.348 2.515 2.535-1.5 1.439-2.062-.563-6.285-1.228-9.383-1.478l-5.632-.454-.165 11.083c-.133 8.963.106 11.083 1.249 11.083 1.107 0 11.129-3.66 12.472-4.554.387-.258-3.707-7.332-5.968-10.314-1.979-2.609-1.611-4.142.986-4.113 1.016.012 3.219 2.633 5.518 6.563 3.698 6.323 3.933 6.52 7 5.863 4.567-.979 4.673-1.115 4.673-6.004 0-5.663 1.785-5.826 2.193-.2.204 2.817.811 4.328 1.807 4.499 2.919.501 3.84-1.321 4.168-8.249l.332-6.991-4.5-.02c-2.475-.011-6.975.219-10 .509m-128 2.524c0 .509 1.8 1.36 19.878 9.396 9.352 4.158 12.452 4.847 7.653 1.703-1.392-.912-2.531-2.443-2.531-3.402 0-2.108-8.613-5.656-17.434-7.183-6.768-1.171-7.566-1.226-7.566-.514m-26.103 6.987c-.074.55-.099 1.283-.056 1.629.075.605-4.649 1.62-11.712 2.517-3.692.468-9.628 3.189-8.789 4.027.289.29 2.019.056 3.843-.519 1.824-.576 5.694-1.045 8.6-1.043 2.905.002 6.168-.278 7.25-.621 2.139-.679 2.753.974.717 1.931-1.162.547.691.276 7.473-1.091 3.643-.734 8.74-5.685 6.346-6.163-.917-.183-2.77.39-4.118 1.273-1.348.883-2.451 1.258-2.452.833 0-.425-1.184-.842-2.63-.925-1.447-.084-3.015-.759-3.484-1.5-.47-.742-.915-.898-.988-.348m159.175 7.588c-6.096 1.196-6.633 2.092-3.489 5.829 3.28 3.897 2.149 6.081-2.328 4.499-2.133-.755-2.764-1.629-2.794-3.875-.021-1.595-.503-3.055-1.071-3.244-1.489-.497-7.822 2.314-9.342 4.145-.711.857-2.363 1.558-3.67 1.558-2.019 0-2.376.49-2.363 3.25.024 4.94 1.294 6.386 4.375 4.982 1.394-.635 8.353-1.462 15.464-1.837l12.931-.683.596-3.606c1.975-11.937 1.253-12.894-8.309-11.018M380 325.961c0 2.678 25.934 21.039 29.716 21.039 1.259 0 2.299-3.421 1.411-4.641-.345-.474-1.977-1.516-3.627-2.315-1.65-.799-3.9-2.209-5-3.134-1.1-.924-4.812-3.128-8.25-4.897-3.437-1.768-6.25-3.695-6.25-4.281 0-.586-.282-.783-.627-.438-.345.345-2.145-.007-4-.783-1.855-.775-3.373-1.022-3.373-.55m-326 7.705c-5.952.938-7.067 1.432-6.787 3.009.158.889-.344 1.837-1.115 2.105-1.013.353-1.247-.104-.843-1.646.442-1.692.111-2.133-1.599-2.128-3.461.009-9.656 1.998-9.656 3.1 0 .557.45.734 1 .394.55-.34 1-.115 1 .5s.45.84 1 .5c1.506-.931 1.201 1.088-.36 2.384-.774.642-1.155 2.204-.884 3.622.278 1.454.012 2.494-.639 2.494-.687 0-1.117 2.117-1.117 5.5 0 3.025.45 5.5 1 5.5s1-.579 1-1.287.91-1.356 2.022-1.44c1.179-.089 1.752.284 1.374.895-.398.644.075.842 1.229.514 1.031-.293 3.382-.837 5.224-1.209 3.589-.724 3.214-1.974-.849-2.831-1.375-.289-.277-.373 2.439-.186 3.302.228 5.374.935 6.25 2.134.739 1.01 1.311 1.254 1.311.557 0-.679.788-1.102 1.75-.941 1.574.264 1.763-.837 1.881-10.956.091-7.849-.211-11.209-1-11.114-.622.075-2.256.314-3.631.53m385 17.379c-1.375.416-3.962.8-5.75.855-3.1.095-3.25.282-3.25 4.041 0 4.738.98 5.495 5.815 4.494 2.228-.462 2.993-.925 1.935-1.173-3.263-.762-1.772-2.262 2.25-2.262 2.2 0 4 .45 4 1s-.54 1-1.2 1c-.911 0-.901.299.042 1.242.792.792 1.497.883 1.95.25.389-.546 2.503-1.137 4.698-1.315 2.194-.178 4.171-.505 4.392-.726.678-.677-2.055-3.462-2.891-2.946-.43.266-1.039-.189-1.355-1.011-.341-.89-.003-1.494.836-1.494 1.649 0 2.91-1.646 1.792-2.337-.423-.261-2.537.132-4.697.875-3.218 1.106-4.121 1.116-4.998.051-.702-.854-1.926-1.04-3.569-.544m15.361 31.18c-.263.426-.132.775.292.775.425 0-1.444 2.25-4.153 5-6.668 6.77-9.808 6.413-15.407-1.75-2.48-3.616-6.093-4.413-6.093-1.345 0 2.755 4.08 9.986 5.974 10.587 2.507.796 9.026 7.325 9.026 9.041 0 .846-.727 2.647-1.615 4.002-.888 1.356-1.451 2.5-1.25 2.543.201.042 4.528.159 9.615.259l9.25.182v-8.26c0-9.115-.11-9.235-6.743-7.333-5.136 1.473-4.719-.412 1.228-5.546 6.253-5.399 7.579-9.528 2.935-9.144-1.419.117-2.795.562-3.059.989M52.25 412.706c-1.237.238-2.25 1.077-2.25 1.864 0 1.76-1.677 1.894-2.254.18-.232-.687-.723.35-1.093 2.306-.423 2.242-2.116 4.966-4.582 7.375-2.173 2.121-3.679 4.427-3.388 5.186.289.751-.197 1.643-1.079 1.982-1.147.439-1.604 1.912-1.604 5.163v4.548l3.876-5.997c2.132-3.298 5.507-7.004 7.5-8.236 1.993-1.232 3.624-2.878 3.624-3.659 0-.78.395-1.418.878-1.418 1.506 0 7.957 2.924 8.543 3.872 1.413 2.286-5.904 4.277-9.722 2.645-2.071-.886-6.254 2.482-7.317 5.891-.358 1.151-1.094 2.376-1.635 2.724-1.747 1.123 2.764 4.721 4.618 3.684 2.293-1.284 2.041-2.735-.365-2.106-2.231.584-2.633-.677-.8-2.51 1.633-1.633 2.8-1.508 2.8.3 0 .825.395 1.5.878 1.5.482 0 1.437-.675 2.122-1.5.86-1.036.898-1.5.122-1.5-1.946 0-1.215-2.742.878-3.29 1.467-.383 2-.03 2 1.325 0 2.934 1.877 3.302 2.579.506.417-1.661 1.33-2.541 2.636-2.541 1.347 0 1.815.479 1.436 1.468-.31.807-.184 1.702.279 1.989 1.841 1.138 2.468-3.717 2.187-16.957L63 412l-4.25.136c-2.337.075-5.263.331-6.5.57m401.462 4.915c-.341.342-4.354.714-8.916.826-4.563.113-9.697.284-11.41.379l-3.113.174-1.639 12.25c-2.014 15.052-2.071 18.75-.289 18.75 2.327 0 4.896-3.665 4.171-5.951-.863-2.718.243-7.665 2.137-9.559 2.083-2.083 3.255-1.856 2.637.51-.429 1.641-.031 2 2.216 2 2.432 0 2.585.185 1.37 1.65-1.234 1.486-1.048 1.602 1.877 1.173 1.786-.262 3.247-.177 3.247.19 0 1.137-4.948 2.987-7.988 2.987-3.246 0-4.956 1.701-2.613 2.599.838.322 1.797 1.444 2.13 2.493.333 1.05 1.011 1.908 1.507 1.908s.654-.788.351-1.75c-.514-1.636-.455-1.634.915.032 1.378 1.676 1.503 1.632 2.101-.75.609-2.429 2.597-3.602 2.597-1.532 0 .55.388 1 .861 1 .474 0 .647-1.125.384-2.5-.511-2.673.605-3.25 2.541-1.314 1.533 1.533 8.568-3.91 9.026-6.983.186-1.244.844-1.889 1.623-1.59 1.764.678 2.477-3.494 1.825-10.686-.435-4.79-.881-5.858-2.641-6.331-2.772-.744-4.145-.737-4.907.025m-69.83 10.129c-.066.413-.042 1.159.052 1.658.095.5-.415 1.281-1.131 1.735-.986.625-.894.83.376.842.923.008 2.273.586 3 1.283.726.697 2.446 1.792 3.821 2.432 1.375.641 1.938 1.195 1.25 1.232-.687.038-1.25 1.193-1.25 2.568 0 1.636-.559 2.5-1.617 2.5-1.189 0-1.489.667-1.134 2.524.266 1.388.093 2.765-.383 3.059-.476.294-.823 3.771-.77 7.726l.095 7.191 1.541-5c2.093-6.792 5.157-13.397 5.218-11.25.028.962.59 1.75 1.25 1.75.933 0 .933.267 0 1.2-1.721 1.721-1.596 16.261.154 18.011.745.745 2.035 2.653 2.867 4.241l1.512 2.886 1.743-2.661c2.202-3.36 3.068-2.81 4.02 2.551.677 3.812.834 4.003 1.458 1.772.384-1.375.327-3.847-.128-5.493-.454-1.647-.826-4.041-.826-5.322 0-2.707-1.969-5.029-3.759-4.432-.683.228-1.241-.074-1.241-.67 0-.595 1.012-1.09 2.25-1.098 1.819-.013 1.963-.201.75-.985-.848-.548-.995-.976-.339-.985.639-.008 2.388-3.951 3.887-8.761 2.375-7.621 2.841-8.436 3.617-6.336 1.461 3.949-.767 33.073-2.532 33.097-.836.012-.839.208-.009.75 1.625 1.062 2.714 6.908 1.435 7.699-1.866 1.153-1.134 2.536 1.341 2.536 2.342 0 2.4-.203 2.4-8.349 0-11.08 2.127-41.494 3.123-44.651.434-1.375.46-3.4.057-4.5-.678-1.855-.758-1.824-1.105.433-.434 2.814-5.371 4.822-6.247 2.54-.651-1.698-4.628-.715-4.628 1.144 0 1.681-.506 1.718-3.274.236-2.093-1.12-3.814-1.466-8.57-1.725-1.436-.079-2.546-.903-2.866-2.128-.503-1.923-5.133-2.993-5.408-1.25m-91.891 13.893c-.829.226-3.043 3.886-4.919 8.134-1.876 4.248-3.916 8.398-4.534 9.223-1.575 2.102-8.538 17.908-8.538 19.381 0 .243.788.324 1.75.181 1.108-.166 1.75-1.142 1.75-2.662 0-1.618.51-2.318 1.564-2.149 1.87.3 5.748-6.98 4.025-7.555-1.366-.455-1.443-3.196-.089-3.196.55 0 1.016.788 1.035 1.75.027 1.326.372 1.144 1.422-.75 1.19-2.147 1.182-2.615-.057-3.311-.793-.447-1.177-1.242-.852-1.767.325-.525 1.059-.665 1.633-.31.573.354 1.435.024 1.915-.734 1.135-1.791 1.137-2.943.004-2.628-.828.23-1.1-.234-1.1-1.872 0-.343.607-.119 1.349.497 1.069.887 1.741.252 3.23-3.051 1.396-3.096 1.564-4.276.651-4.581-1.918-.639-1.444-2.243.663-2.243 1.041 0 2.152-.675 2.469-1.5.565-1.474-.299-1.694-3.371-.857M39.132 451.721c-2.255.428-2.329.693-1.57 5.614.438 2.841.695 7.528.57 10.415-.179 4.168.093 5.25 1.321 5.25.96 0 1.547-.898 1.547-2.365 0-1.301.9-3.509 2-4.908 1.1-1.398 2-3.468 2-4.6 0-2.659 3.362-4.601 4.854-2.803.762.918.667 2.046-.336 3.979-1.472 2.838-.683 3.391 2.448 1.715 1.371-.734 1.982-.596 2.419.543.465 1.213 1.01 1.298 2.656.417 4.546-2.433 4.09-.116-.61 3.096-4.872 3.33-4.995 3.534-4.365 7.262.628 3.726-1.788 6.997-2.839 3.844-.621-1.861-2.347-1.374-2.021.57.171 1.019-.332 1.75-1.206 1.75-1.065 0-1.402-.836-1.161-2.881l.339-2.882-3.089 2.2c-8.488 6.043 2.51 7.281 13.553 1.525 8.004-4.172 7.995-4.16 8.22-10.518.137-3.879-.16-4.944-1.379-4.944-1.263 0-1.345-.388-.441-2.078.612-1.143.866-2.718.566-3.5-.3-.782-.109-1.422.423-1.422.533 0 .969-.702.969-1.559s-.445-1.284-.989-.948c-.587.363-.721-.086-.33-1.105.447-1.164.283-1.484-.511-.993-.644.398-1.17.246-1.17-.336 0-1.048-16.756-1.307-21.868-.338m93.427 1.811c-1.068.807-2.994 1.468-4.282 1.468-3.082 0-4.165 2.877-1.748 4.645 1.767 1.292 1.751 1.355-.338 1.355-1.676 0-2.191-.593-2.191-2.525 0-2.097-2.839-4.475-5.342-4.475-.116 0-.039 1.8.171 3.999.412 4.33 4.655 9.001 8.175 9.001 2.605 0 5.996-4.697 5.996-8.306 0-1.67.745-3.859 1.655-4.865 1.973-2.181.643-2.369-2.096-.297m218.624 20.218l.317 7.75-2.943.335c-2.587.295-2.784.144-1.628-1.25 2.118-2.551-.073-1.821-3.027 1.008-2.27 2.176-3.818 2.651-9.607 2.95-7.146.369-11.623 1.561-12.757 3.395-.949 1.536-2.538 1.304-2.538-.371 0-.788 1.012-1.743 2.25-2.122 3.529-1.082 4.926-2.528 3.778-3.912-2.042-2.46-7.028-.659-7.028 2.54 0 1.075-.545 2.828-1.212 3.895-1.843 2.95-.935 3.054 7.723.884 4.394-1.101 12.939-2.688 18.989-3.527 6.05-.839 11.07-1.592 11.156-1.675.197-.189.596-14.708.451-16.4-.059-.687-1.037-1.25-2.174-1.25-1.939 0-2.047.481-1.75 7.75M.466 545c0 29.975.128 42.237.283 27.25.156-14.988.156-39.513 0-54.5C.594 502.762.466 515.025.466 545" fill="#d3d3d3" fill-rule="evenodd"/></svg>