<svg xmlns="http://www.w3.org/2000/svg" width="500" height="667"><path d="M196 78.218c0 4.453-6.122 13.605-12.317 18.414-2.649 2.057-6.011 5.793-7.471 8.304-1.461 2.51-3.42 5.398-4.354 6.417-2.14 2.334-3.348 10.091-2.982 19.147.278 6.857-2.15 20.803-4.029 23.145-.505.63-2.59 1.442-4.633 1.804-6.54 1.158-7.429 1.622-6.91 3.607.556 2.126-1.236 7.953-3.16 10.27-1.061 1.279-1.035 2.151.143 4.866 2.573 5.925 4.649 19.808 2.963 19.808-.412 0-.807 1.012-.877 2.25-.07 1.238-.405 3.375-.744 4.75-1.168 4.731-1.922 18-1.023 17.988.492-.007 1.865-1.513 3.052-3.346 2.162-3.339 7.462-4.875 8.884-2.575.317.513 1.349.933 2.295.933 2.107 0 5.472 3.691 4.124 4.524-1.44.89-1.16 2.186.62 2.869 1.692.649 5.818-1.661 4.795-2.684-1.263-1.263 4.776-1.889 7.468-.774 3.461 1.434 8.031 9.906 6.015 11.152-.695.43-1.566.594-1.936.365-.37-.228-.673.752-.673 2.18 0 3.107-1.459 4.168-5.733 4.168-4.288 0-11.367 3.358-14.908 7.071-1.589 1.668-4.289 3.331-6 3.696-4.462.953-6.353 2.636-3.956 3.521 1.568.58 1.423.794-.963 1.421-1.812.476-2.622 1.226-2.281 2.114.301.784-.104 1.377-.94 1.377-.808 0-1.469.473-1.469 1.051s-1.687 1.754-3.75 2.612c-2.062.859-3.975 1.894-4.25 2.3-.275.406-2.412 1.936-4.75 3.4-3.598 2.254-4.25 3.166-4.25 5.95 0 1.808-.54 3.827-1.2 4.487-.933.933-.844 1.2.4 1.2 1.078 0 1.985-1.552 2.776-4.75 1.062-4.291 1.64-4.969 5.977-7.016 2.641-1.246 5.532-1.985 6.424-1.643 1.887.724 2.137 3.495.465 5.167-.876.876-.856 1.52.083 2.652 1.635 1.97.424 5.59-1.87 5.59-2.218 0-5.097 2.982-2.927 3.032.997.023.904.387-.342 1.334-1.32 1.002-1.571 2.181-1.094 5.123.448 2.761.299 3.624-.536 3.107-1.764-1.09-1.376 1.041.538 2.955 1.592 1.592 1.736 1.581 2.39-.178.612-1.647.829-1.534 1.806.942 1.378 3.495 1.421 5.685.11 5.685-.55 0-1.014.788-1.032 1.75-.029 1.583-.171 1.565-1.5-.191-.807-1.068-1.115-2.193-.684-2.5 1.096-.782.917-3.054-.244-3.083-.528-.013-1.114 1.323-1.302 2.97-.33 2.883 1.488 6.346 6.012 11.455 2.424 2.737 2.187 3.747-.708 3.02-1.673-.42-3.429.075-5.5 1.549-3.612 2.572-3.698 3.224-.924 6.975 1.165 1.576 1.832 3.327 1.483 3.891-.348.564-.219 1.282.289 1.596.507.313.687 1.47.399 2.569-.363 1.39-.03 1.999 1.094 1.999.89 0 1.617-.675 1.617-1.5 0-2.794.117-2.999 2.132-3.745 1.298-.48 1.948-1.545 1.83-3-.295-3.632-.031-4.755 1.117-4.755.639 0 .865 1.124.554 2.75-.289 1.512-.81 4.635-1.157 6.939-.461 3.061-1.014 4.042-2.054 3.643-.782-.3-1.422-.123-1.422.394 0 1.715 1.297 2.272 2.658 1.143 1.057-.878 1.352-.611 1.39 1.259.241 11.96 2.848 22.8 6.86 28.521l2.909 4.15-3.431 7.85c-3.199 7.32-3.424 8.528-3.319 17.851.062 5.5-.524 13.701-1.302 18.225-.778 4.524-1.088 8.752-.69 9.396.975 1.578 3.925.34 3.925-1.649 0-2.636 1.697-.739 2.376 2.658.605 3.024.721 3.093 2.502 1.48 1.766-1.598 1.898-1.573 2.429.455.861 3.295 3.235 1.74 2.939-1.924-.286-3.54.339-3.82 3.533-1.583 5.484 3.841 5.585-1.736.134-7.409-2.38-2.476-3.858-4.851-3.538-5.684.573-1.494 3.625-.941 3.625.657 0 1.381 6.085 4.783 7.551 4.22.75-.288 1.105-1.508.849-2.918-.347-1.917-.012-2.424 1.602-2.424 1.267 0 2.499-1.043 3.249-2.75 1.351-3.074 2.756-4.364 3.951-3.625.439.271.798-.235.798-1.125s-.45-1.34-1-1c-.55.34-1 .141-1-.441s.338-1.059.75-1.059.809-1.012.88-2.25c.072-1.238.37-4.5.664-7.25.389-3.651.124-5.457-.983-6.692-1.333-1.488-1.344-2.209-.09-5.97l1.426-4.278 5.429-.134c6.44-.159 9.912-1.116 9.956-2.743.017-.651.744-2.083 1.616-3.183 2.654-3.351.798 10.756-2.333 17.733-1.868 4.161-2.423 6.717-2.01 9.258.371 2.289.174 3.509-.568 3.509-.814 0-.797.34.063 1.2 1.628 1.628 1.51 2.8-.283 2.8-1.417 0 .648 4.971 3.56 8.566 1.232 1.523-.713 7.794-3.083 9.939-1.097.993-1.994 2.369-1.994 3.058 0 .689-1.064 3.431-2.365 6.095a710.718 710.718 0 0 0-3.54 7.342c-2.081 4.43-3.885 7.252-5.126 8.019-1.964 1.214.264 6.218 3.776 8.481 1.708 1.1 3.377 3.031 3.709 4.291.333 1.26 1.076 1.999 1.653 1.643.706-.436.831.797.383 3.783-.461 3.078-.18 5.59.923 8.229.873 2.089 1.587 5.108 1.587 6.708 0 1.601.623 4.4 1.384 6.222.761 1.821 1.713 6.149 2.115 9.617.668 5.752 1.128 6.691 5.236 10.684 3.766 3.659 4.414 4.83 3.951 7.141-.687 3.438 2.613 11.182 4.765 11.182.852 0 1.549.525 1.549 1.167 0 .641.294.873.652.514.989-.989-2.772-14.066-4.309-14.981-.739-.44-1.343-1.452-1.343-2.25 0-1.628 6.479-2.102 7.442-.544.308.498 1.498.661 2.644.361 1.584-.414 1.763-.747.749-1.39-1.06-.672-1.016-.85.215-.862 2.631-.026 3.485 1.723 3.115 6.377-.286 3.603-.677 4.377-2.01 3.984-1.033-.305-.809.142.595 1.19 1.382 1.031 2.25 2.74 2.25 4.431 0 3.284 5.465 6.692 7.724 4.817.855-.709 1.276-.719 1.276-.03 0 1.345 6.849-.594 9.25-2.618 2.3-1.939 2.21-3.397-.304-4.968-1.411-.881-1.859-1.896-1.432-3.241.382-1.204-.175-3.076-1.446-4.862-1.138-1.597-2.068-3.876-2.068-5.065 0-1.189-.455-3.012-1.012-4.052-.764-1.428-.52-2.696.996-5.184 1.196-1.961 2.01-5.054 2.012-7.643.006-6.399 2.617-11.337 5.792-10.954 4.223.51 4.97 3.113 1.93 6.726-2.901 3.448-3.354 5.417-4.215 18.327-.385 5.767-.229 8.75.457 8.75.572 0 1.064-.337 1.094-.75 1.151-16.009 1.732-17.452 9.547-23.698l3.1-2.479 1.348 2.519c1.071 2 1.105 3.162.167 5.647-1.672 4.429-.557 4.82 1.271.447 1.749-4.187 1.941-6.686.513-6.686-.55 0-1-.385-1-.855 0-.471 2.942-1.13 6.537-1.466 3.958-.37 7.168-1.241 8.136-2.209 2.626-2.626 3.759-.192 1.706 3.665-.984 1.851-1.693 3.716-1.575 4.145.311 1.125-2.711 6.72-3.63 6.72-.426 0-1.272-.498-1.881-1.107-1.319-1.319-4.867 3.369-3.825 5.055.352.569-.71 2.727-2.359 4.794-3.118 3.908-5.61 9.258-4.312 9.258.412 0 1.565-1.516 2.562-3.368.998-1.853 4.475-6.192 7.728-9.641 3.252-3.45 5.913-6.675 5.913-7.167s.841-.444 1.869.106c2.02 1.081 3.131.515 3.131-1.597 0-.733-.675-1.333-1.5-1.333-1.804 0-1.823-.197-.339-3.453.638-1.401 1.65-2.548 2.25-2.549 1.699-.002 9.114-8.329 8.766-9.845-.171-.744.059-1.125.51-.846.452.279.841-.689.865-2.15.175-10.607.5-12.673 1.673-10.657.64 1.1 1.51 3.575 1.933 5.5.667 3.031.723 2.853.42-1.326-.449-6.196-3.339-9.312-14.328-15.446-4.538-2.533-8.311-5.083-8.385-5.667-.074-.583-.186-2.357-.25-3.94-.066-1.656-.858-3.249-1.865-3.75a80.631 80.631 0 0 1-3.5-1.877A48.209 48.209 0 0 0 265 428.3c-.825-.379-2.043-1.224-2.706-1.879-1.121-1.106-2.425-14.705-2.284-23.817.033-2.143-.925-6.272-2.128-9.175-1.926-4.648-2.033-5.651-.89-8.409.742-1.793 1.671-2.757 2.173-2.255 1.299 1.299 4.835 11.384 4.835 13.791 0 1.146 1.505 3.853 3.345 6.014 1.84 2.162 3.881 4.942 4.535 6.18.655 1.238 2.075 2.25 3.155 2.25 2.228 0 2.64 2.869.884 6.151-1.325 2.476-.708 3.234 1.944 2.393 1.137-.361 2.523-2.183 3.184-4.186 1.884-5.708 5.618-6.693 14.249-3.757 6.757 2.298 8.704 2.358 8.704.269 0-.557.691-1.703 1.535-2.547 1.108-1.109 1.24-1.889.474-2.812-.773-.932-.647-1.436.465-1.863 2.431-.933 1.774-2.435-1.366-3.124-2.332-.512-2.785-1.042-2.342-2.736.491-1.88.229-2.037-2.492-1.493l-3.041.608-.424-5.861c-.508-7.028-3.668-12.378-10.187-17.25-4.037-3.017-12.623-14.744-12.621-17.237.001-.58 2.363-2.814 5.25-4.964 4.719-3.514 5.984-3.957 12.522-4.383 8.504-.554 9.012-.984 5.707-4.828-2.895-3.365-2.905-3.417-1.09-5.899 1.202-1.644 1.751-1.738 4.049-.691 2.184.995 3.21.926 5.758-.392 1.705-.882 5.377-1.829 8.16-2.105 2.783-.275 6.203-.976 7.601-1.557 1.398-.581 3.043-.979 3.655-.884.612.095 2.183-1.39 3.492-3.3 1.309-1.911 3.4-4.019 4.647-4.687l2.267-1.213-2.565-1.682c-3.932-2.58-5.82-5.616-3.94-6.337.825-.317 1.486-.016 1.486.676 0 1.754 3.174 4.267 6.417 5.081 2.51.63 2.682.494 2.031-1.601-.392-1.259-1.106-2.44-1.586-2.624-2.284-.877.593-1.965 3.812-1.443 2.537.412 3.429.254 2.949-.522-.378-.612-1.264-.891-1.97-.62-.808.31-1.707-.91-2.427-3.294-1.094-3.618-1.125-3.64-.7-.486.271 2.013.06 3.062-.541 2.691-.542-.335-.985-1.482-.985-2.55 0-1.068-.353-1.941-.784-1.941-.431 0-.761-1.462-.733-3.25.132-8.575-4.492-12.152-5.483-4.24l-.5 3.99-1.364-3.232c-1.696-4.019-.986-6.014 2.588-7.283 1.527-.542 3.617-1.473 4.644-2.068 1.372-.794 2.168-.761 3 .126.846.902.816 1.323-.118 1.665-.687.252-1.25.926-1.25 1.498 0 .627.595.545 1.5-.206 1.268-1.052 1.597-.767 2.117 1.833.524 2.621.821 2.872 1.999 1.694 1.579-1.579 1.902-4.965.384-4.027-.55.34-1 .141-1-.441s.93-1.059 2.067-1.059c1.613 0 1.928.44 1.433 2-.39 1.229-.18 2 .546 2 .743 0 1.018 1.112.741 3-.295 2.005-.001 3.05.886 3.15 3.026.342 3.32.328 3.158-.15-.093-.275.373-1.512 1.035-2.75.689-1.287.79-2.25.237-2.25-.533 0-1.28-1.012-1.662-2.25-.381-1.238-1.971-4.005-3.533-6.151-1.562-2.145-2.604-4.283-2.315-4.75.289-.467.022-.849-.593-.849s-.84-.45-.5-1c.34-.55.093-1-.548-1s-.938-.595-.659-1.322c.279-.727-.348-1.856-1.393-2.508-1.045-.653-1.9-.775-1.9-.272s-.831.697-1.847.432c-1.344-.352-1.719-1.149-1.379-2.929.365-1.908.761-2.202 1.803-1.337.734.609 1.767.842 2.294.516.527-.326 1.136-.06 1.353.591.85 2.552 2.886-.395 2.255-3.266-.397-1.807-.23-2.905.442-2.905.593 0 1.079-.661 1.079-1.469 0-.807-.562-1.331-1.25-1.164-.687.168-.913.116-.5-.114.413-.231.75-1.084.75-1.895 0-.812.45-1.198 1-.858.55.34 1 .123 1-.483 0-.605.9-2.067 2-3.247 2.067-2.219 2.665-4.77 1.119-4.77-.485 0-1.368-1.93-1.962-4.289-.594-2.36-2.222-5.363-3.618-6.675-2.937-2.759-3.132-4.202-1.003-7.45 1.406-2.147 1.385-2.409-.25-3.114-2.261-.974-6.407-.589-8.036.748-.687.563-1.28.857-1.317.652-.038-.204-.253-1.947-.48-3.872-.395-3.355-.346-3.417 1.193-1.5 1.563 1.949 1.585 1.936.882-.5-.397-1.375-.775-3.287-.839-4.249-.081-1.205-.674-1.573-1.903-1.183-.982.312-1.786.086-1.786-.501S329.923 222 328.607 222c-2.439 0-3.607-1.646-3.607-5.082 0-1.215.694-1.918 1.892-1.918 2.604 0 3.724-4.662 1.666-6.936-1.395-1.542-1.323-1.994.77-4.832l2.31-3.13 3.322 2.02 3.322 2.02-.546-4.075c-.896-6.678-.152-8.121 3.3-6.399 1.832.914 2.662 1.956 2.303 2.892-.396 1.031-.086 1.28 1.05.844.886-.34 1.621-1.582 1.634-2.761.018-1.745.32-1.539 1.625 1.107 1.787 3.625 2.78 3.964 5.026 1.718 1.764-1.763 2.061-12.723.361-13.29-.569-.189-.99-1.545-.935-3.011.095-2.553.127-2.568.75-.359.641 2.277.675 2.266 2.458-.752 1.78-3.014 1.382-6.752-.418-3.913-.628.991-.864.75-.875-.893-.008-1.238.548-2.257 1.235-2.265.861-.011.909-.245.155-.75-.603-.404-1.38-2.534-1.728-4.732-.347-2.198-1.331-4.508-2.186-5.133-1.593-1.165-1.53-1.511 1.612-8.87.47-1.1.728-5.468.574-9.707-.212-5.849.006-7.471.905-6.725.813.675 1.368.504 1.77-.542.699-1.823-.192-4.526-1.493-4.526-1.216 0-.537-5.024.695-5.147.951-.095 3.907 4.649 6.945 11.147 1.165 2.492 1.466 4.94 1.047 8.5-.324 2.75-.739 6.553-.922 8.451-.183 1.899-.848 3.624-1.478 3.834-3.225 1.075 1.345 9.419 4.685 8.552 1.323-.343 1.685.321 1.748 3.2.075 3.494 1.826 5.778 3.921 5.113 1.479-.468 1.327-2.911-.301-4.856-2.176-2.598-2.337-11.615-.184-10.285 1.385.856 3.98-.647 4.085-2.366.057-.941.387-.615.772.762 1.01 3.608 3.906 5.051 5.591 2.785.748-1.006 1.611-1.379 1.944-.84.727 1.176-.357 4.367-1.834 5.4-.733.512-.643 1.028.284 1.625.858.553 1.106 1.667.674 3.028-.497 1.567-.067 2.652 1.582 3.988 1.962 1.588 2.281 2.826 2.375 9.222.061 4.063.481 8.194.935 9.181.951 2.069.08 8.765-1.253 9.625-1.377.889-2.438 5.048-2.698 10.581-1.823 38.746-1.916 39.31-6.919 41.942-4.871 2.563-5.374 3.974-2.164 6.077 7.014 4.596 12.444-5.178 13.201-23.762.151-3.709.761-10.909 1.357-16 .595-5.092 1.294-12.105 1.552-15.587.259-3.481.986-9.289 1.616-12.906 1.622-9.32.545-18.361-4.26-35.764-1.008-3.65-1.179-3.803-1.948-1.75-1.018 2.719-3.991 2.92-6.252.421-2.049-2.264-2.088-3.566-.155-5.171 1.118-.928 1.5-.944 1.5-.063 0 .649.45.903 1 .563.55-.34 1.007-.029 1.015.691.012 1.038.194 1.027.879-.054.729-1.151.948-1.151 1.406 0 .298.75.578-.087.621-1.858.043-1.772-1.021-5.71-2.366-8.75-1.345-3.041-2.234-5.529-1.976-5.529.259 0-.622-2.051-1.956-4.557-2.185-4.105-6.429-8.706-14.02-15.202-1.452-1.243-4.273-4.843-6.27-8-1.996-3.158-5.7-8.057-8.231-10.889-2.531-2.831-6.177-7.015-8.102-9.298-2.094-2.483-5.814-5.22-9.262-6.816-7.062-3.266-6.866-4.686.676-4.903 8.621-.248 8.061-1.335-.688-1.335-8.149 0-9.95.99-7.244 3.981 2.252 2.488 1.645 6.519-.982 6.519-1.1 0-2.562.364-3.25.809-.687.445-1.319.445-1.402 0l-.344-1.809c-1.116-5.82-4.664-8.291-12.504-8.71-3.745-.2-6 .443-6 1.71 0 1.873-1.634 1.955-2.7.136-.969-1.653-10.888-2.739-14.05-1.539-1.379.523-2.25.476-2.25-.122 0-.536-1.125-.975-2.5-.975s-2.5.45-2.5 1c0 .955.641 1.18 3.987 1.404 2.365.158 2.35 3.345-.022 4.615-2.516 1.346-6.578-1.979-5.584-4.571.33-.859-.041-1.448-.912-1.448-.808 0-1.469.691-1.469 1.535 0 5.145-7.055 8.018-8.501 3.463-.788-2.483-4.448-3.297-5.26-1.17-1.039 2.722-2.566 3.899-4.426 3.413-2.249-.588-3.313-3.934-1.822-5.73 1.587-1.912-4.31-2.992-11.297-2.068-2.857.377-6.206.657-7.444.621-1.238-.035-3.262-.1-4.5-.144-1.238-.044-3.375-.003-4.75.091s-8.687-.118-16.25-.473L196 74.894v3.324m33.527 229.572c-.964 2.513-.549 3.21 1.914 3.21 1.343 0 2.724.457 3.069 1.016.346.559 1.016.777 1.49.484.474-.293 1.116-.122 1.426.38.324.525 2.103.565 4.19.094 1.995-.45 4.192-.601 4.883-.336.792.304 1.422-.65 1.705-2.578.248-1.683.19-3.086-.127-3.117-7.811-.778-18.107-.308-18.55.847m43.755 8.46c-1.136 1.238-2.375 3.712-2.753 5.499-.588 2.78-1.021 3.166-2.999 2.669-1.272-.319-2.587-.134-2.924.411-1.024 1.656.49 4.171 2.51 4.171 1.707 0 1.838.54 1.28 5.284-.491 4.178-.283 5.565.992 6.623 1.791 1.487 4.612.008 4.612-2.418 0-.697.756-1.204 1.681-1.128.984.081 1.916-.808 2.25-2.146l.569-2.286 1.812 2.119c1.046 1.224 2.456 1.871 3.338 1.533.84-.323 2.673.315 4.074 1.416 3.47 2.73 4.957 2.521 6.75-.947 2.054-3.971 2.07-9.473.026-8.688-1.084.415-1.5-.11-1.5-1.893 0-1.358.563-2.476 1.25-2.484.885-.011.838-.276-.159-.908-1.882-1.191-4.072-.256-4.17 1.78-.05 1.038-.265 1.182-.583.393-.278-.687-1.07-1.25-1.761-1.25-.775 0-1.185-1.177-1.072-3.076.158-2.669-.094-3.001-1.911-2.513-1.152.309-2.462.568-2.911.575-.45.008-.514.97-.143 2.139.425 1.34.296 1.892-.347 1.494-.562-.347-1.181-.155-1.375.428-.242.725-1.139.747-2.836.07-1.365-.545-1.964-1.019-1.33-1.054 1.852-.101 3.647-6.255 2.11-7.231-1.846-1.172-2.205-1.058-4.48 1.418m-24.25 14.559c-.018.72-.435 1.06-.927.756-.493-.305-1.153.119-1.469.941-.315.822-1.163 1.494-1.884 1.494-.721 0-1.942.876-2.713 1.946-.772 1.071-1.771 1.719-2.221 1.441-.45-.278-.818 2.121-.818 5.331 0 3.709-.578 6.662-1.585 8.1-1.552 2.216-1.527 2.249 1.25 1.584 1.559-.373 3.441-1.157 4.183-1.743.741-.586 2.316-1.204 3.5-1.374 4.652-.666 4.873-1.129 2.21-4.62-4.254-5.577-2.86-8.666 2.284-5.063 2.94 2.059 3.322 1.576 2.14-2.704-1.064-3.853-3.898-8.222-3.95-6.089m-32.144 15.957c-.736 1.796-2.539 3.797-4.006 4.447-1.523.674-2.454 1.74-2.168 2.484.275.717.019 1.303-.568 1.303-1.226 0-2.616 4.736-4.053 13.805-.55 3.467-2.122 9.11-3.494 12.538-2.188 5.47-2.36 6.759-1.409 10.508.78 3.074.78 4.579-.001 5.36-1.579 1.579 1.29 6.641 4.443 7.839 3.775 1.436 4.672.185 2.277-3.178-4.995-7.014 2.239-3.058 8.598 4.702 4.808 5.867 8.129 7.335 14.299 6.319 7.698-1.269 9.037-.995 4.694.959-3.993 1.797-3.996 1.801-1.314 2.477 3.025.762 12.405-.973 14.579-2.698.784-.622 2.48-2.096 3.77-3.275 1.289-1.179 2.596-1.892 2.904-1.583.844.843.679-.333-.471-3.356-.986-2.594-1.092-2.63-2.418-.817-1.76 2.407-3.071 1.242-1.631-1.449 1.655-3.092 1.334-4.366-.919-3.651-1.479.469-2 .18-2-1.112 0-2.408 2.238-8.388 3.139-8.388.405 0 .705-.788.665-1.75-.039-.962.262-2.538.669-3.5.448-1.059.304-1.75-.366-1.75-.609 0-1.114.788-1.122 1.75-.013 1.495-.156 1.531-.982.25-.661-1.027-.558-1.815.328-2.5 2.558-1.978 2.783-4.483.38-4.231-1.717.179-2.132-.216-1.856-1.769.196-1.1.558-4.25.806-7 .247-2.75.679-5.675.959-6.5.28-.825.498-1.606.484-1.736-.014-.13.539-1.93 1.228-4 1.522-4.569 1.107-8.37-.831-7.626-.756.29-1.161 1.085-.899 1.767.484 1.261-3.509 3.595-6.149 3.595-.799 0-1.467.563-1.485 1.25-.019.757-.56.554-1.373-.517-1.303-1.717-5.146-1.434-4.075.3.28.453-.357 1.098-1.416 1.434-2.963.94-5.535 5.588-5.212 9.419.157 1.863-.239 3.711-.879 4.106-.641.396-1.412 2.561-1.713 4.811-.466 3.472-.757 3.883-1.925 2.715-1.786-1.786-1.749-4.641.093-7.077.808-1.067 1.499-3.066 1.536-4.441.037-1.375.71-3.625 1.496-5 1.89-3.306 1.877-3.398-.879-6.673-2.344-2.786-2.621-3.35-2.621-5.327 0-2.681-1.988-.539-2.553 2.75-.354 2.063-1.725 6.527-3.045 9.921-1.321 3.393-2.402 7.276-2.402 8.627 0 1.351-.675 3.017-1.5 3.702s-1.5 1.865-1.5 2.622c0 .758-.6 1.378-1.333 1.378-1.412 0-1.878-2.497-.933-5 .873-2.311 1.304-5 .802-5-1.419 0-5.536 9.194-5.536 12.361v3.685l2.621-1.717c2.499-1.638 2.686-1.63 4 .168.759 1.037 1.379 2.726 1.379 3.753 0 1.157.439 1.597 1.155 1.155.682-.422.884-.277.493.355-.363.588-.095 1.297.596 1.576.691.278-.134.542-1.833.585-4.751.121-10.329-4.562-10.375-8.711-.037-3.404 2.902-10.217 5.915-13.71 2.064-2.392 3.661-6.577 4.553-11.931.456-2.739.913-3.513 1.507-2.552 1.398 2.262 2.391-3.675 1.227-7.334l-1.012-3.183-1.338 3.266m56.631 22.264c.501.811.141 1-1.144.6-1.031-.321-2.55-.152-3.375.378-1.243.797-1.157.969.5 1.003 1.71.036 1.595.292-.792 1.766-3.107 1.917-3.057 5.516.107 7.829.925.677 1.372 1.54.994 1.918-.378.379-1.811-.435-3.184-1.808-2.141-2.141-2.584-2.265-3.118-.875-.342.892-.258 1.749.186 1.906 2.383.843 3.73 2.308 2.759 3.003-1.855 1.327-1.547 5.209.364 4.599 1.226-.391 1.335-.286.4.387-1.709 1.23-.575 3.991 3.234 7.874 1.677 1.711 3.63 3.849 4.339 4.75.71.902 2.735 1.658 4.5 1.68l3.211.04-2.86 1.55c-2.064 1.118-3.164 1.246-3.95.46-1.965-1.965-3.045-1.14-1.19.91.995 1.1 2.536 2 3.423 2 2.711 0 9.015-4.906 9.673-7.528.342-1.36 1.022-2.472 1.512-2.472.491 0 .839-.337.774-.75-.304-1.924.204-3.315 1.025-2.808.498.309.645-.452.326-1.691-.504-1.958-.373-2.082 1.005-.952 2.614 2.142 2.987-.335.675-4.484-4.167-7.478-5.853-8.136-7.706-3.01-1.428 3.947-4.951 7.971-6.267 7.158-1.436-.888-1.156-1.751 1.501-4.616 1.342-1.448 2.152-2.921 1.799-3.274-.354-.353-.813-2.989-1.022-5.858-.523-7.185-2.088-10.141-5.582-10.542-1.996-.229-2.63.028-2.117.857M225.5 472.412c-1.65 1.422-3.415 2.586-3.921 2.587-.507 0-1.632.617-2.5 1.371-.869.753-2.929 1.826-4.579 2.385l-3 1.017 2.5.988c1.745.69 2.722.649 3.235-.136.537-.822.738-.814.75.032.008.662.87.933 2.015.634 1.195-.313 2-.031 2 .7 0 .673.642.978 1.427.676 1.493-.573 4.286 1.954 3.276 2.965-1.114 1.114 1.735 3.219 2.98 2.202.882-.721.662-1.488-.868-3.018-1.661-1.661-1.791-2.216-.683-2.918.752-.476.975-.873.496-.882-.48-.008-.313-.69.372-1.515s.91-1.5.5-1.5c-.41 0-.201-.655.464-1.456.664-.801.918-1.926.563-2.5-.355-.574-.168-1.044.414-1.044s1.059-.505 1.059-1.122c0-.805-.401-.79-1.416.053-1.119.928-1.487.83-1.75-.465-.281-1.377-.814-1.226-3.334.946m41.881 39.129c-1.33 2.03-1.44 3.033-.55 4.988.614 1.346.883 3.053.599 3.792-.284.74.074 1.346.795 1.346.721 0 2.599.323 4.173.718 2.53.635 2.801.485 2.335-1.297-.289-1.108.102-2.536.87-3.174 1.653-1.371 1.804-4.285.362-6.98-1.559-2.913-6.506-2.564-8.584.607" fill="#d3d3d3" fill-rule="evenodd"/></svg>