<svg xmlns="http://www.w3.org/2000/svg" width="500" height="461"><path d="M200.564 10.175c-5.328.769-19.775 9.816-34.327 21.496-7.518 6.034-16.123 17.422-18.382 24.329-.63 1.925-3.154 7.775-5.61 13-10.016 21.31-9.723 19.812-3.393 17.326 2.313-.909 4.028-2.141 3.809-2.739-.218-.598 1.119-3.226 2.971-5.839 1.853-2.614 3.368-5.147 3.368-5.628 0-.482.995-1.536 2.21-2.344 1.216-.807 2.283-2.549 2.372-3.872.255-3.815 2.696-9.829 5.545-13.666.924-1.244 1.445-3.157 1.159-4.251-.366-1.401.663-3.171 3.48-5.988 4.123-4.124 7.234-5.173 7.234-2.44 0 .857.481 1.262 1.068.899.588-.363.827-1.29.532-2.059-.296-.77-.101-1.399.431-1.399.533 0 .969.45.969 1s.48 1 1.067 1c.594 0 .8-.843.465-1.9-.415-1.306.188-2.521 1.933-3.893 1.394-1.097 2.535-2.685 2.535-3.528 0-2.159 3.949-5.017 13.592-9.84 4.579-2.29 8.124-4.489 7.879-4.886-.245-.396.896-1.277 2.535-1.956 2.676-1.108 3.164-1.009 4.765.969 1.501 1.853 3.013 2.261 9.531 2.574 4.261.205 8.212.659 8.779 1.01.568.351 2.245.298 3.726-.119 1.481-.416 3.289-.656 4.017-.533.728.123 1.944-.291 2.702-.92s2.412-.855 3.676-.503c4.237 1.181 10.281 3.886 12.101 5.416.992.833 4.142 1.807 7 2.162 2.858.356 5.985.988 6.947 1.404 1.308.566 1.754.288 1.765-1.1.013-1.565.168-1.621.985-.357.533.825.976 1.093.985.594.008-.498 1.027.27 2.265 1.705 1.993 2.312 2.67 2.515 5.929 1.777 3.41-.772 3.762-.633 4.813 1.904 1.055 2.548 5.925 6.992 7.718 7.042.434.012 1.915.902 3.29 1.978 3.056 2.39 4.742 2.598 2.88.356-1.221-1.472-1.102-1.566 1.128-.893 2.928.883 4.735 2.458 5.176 4.51.174.811 1.216 1.972 2.316 2.582 1.1.61 1.902 1.591 1.782 2.181-.12.59.443 1.62 1.25 2.291.807.67 1.468 1.633 1.468 2.141s1.125 2.048 2.5 3.423c1.678 1.678 2.5 3.608 2.5 5.873 0 4.27.861 6.536 2.485 6.536.698 0 1.784.619 2.411 1.375 1.969 2.372 6.285 1.784 5.505-.75-2.218-7.203-12.683-23.71-17.677-27.883-17.867-14.933-24.745-18.798-38.643-21.718-5.73-1.204-13.435-3.277-17.121-4.606-5.835-2.105-8.498-2.425-20.581-2.469-7.633-.029-16.804-.375-20.379-.77-3.575-.394-8.721-.397-11.436-.004M322 73c0 .55.648 1 1.441 1 2.369 0 2.872 1.997 1.019 4.044-1.251 1.383-1.443 2.273-.686 3.187.577.698 1.055 2.394 1.063 3.769.021 3.949.81 8.98 1.519 9.689.357.357-.097 1.473-1.009 2.48-.911 1.007-1.233 1.831-.715 1.831 1.03 0 1.561 2.822 1.411 7.5-.315 9.866.493 17.002 2.374 20.967 1.266 2.668 1.414 4.329.677 7.608-.655 2.918-.595 4.75.197 6.019.86 1.377.823 3.245-.149 7.615-2.96 13.317-2.692 17.398 1.124 17.08l2.234-.186.321-30.171c.313-29.457-.748-50.501-2.986-59.182-1.016-3.943-1.339-4.25-4.465-4.25-1.853 0-3.37.45-3.37 1M132.253 93.732c-2.368.287-3.401 1.01-3.818 2.67-.555 2.21 1.302 22.669 2.133 23.5.228.228.016.905-.472 1.506-.487.601-2.067 6.492-3.511 13.092-1.443 6.6-3.764 15.6-5.158 20-4.147 13.09-5.645 32.794-5.493 72.25.073 18.838-.075 34.25-.328 34.25-.254 0-2.07-2.648-4.035-5.884-1.972-3.245-4.508-6.128-5.657-6.428-4.029-1.054-.934 12.767 3.701 16.528 2.798 2.271 2.614 6.18-.31 6.596-1.434.204-2.003.811-1.643 1.75.647 1.686 5.338 1.963 5.338.316 0-1.902 2.902 1.099 5.732 5.928 2.414 4.119 2.486 4.561.931 5.698-1.451 1.061-1.486 1.398-.251 2.423 1.165.967 1.518.758 1.884-1.119l.45-2.308.744 2.25c.409 1.238 1.092 2.25 1.518 2.25.426 0 1.05 1.095 1.386 2.433.336 1.339 1.404 2.685 2.373 2.993.984.312 2.8 3.172 4.114 6.48 1.293 3.257 3.087 6.173 3.985 6.48 6.178 2.114 12.134 8.19 12.134 12.38 0 .713.675 1.556 1.5 1.872.825.317 1.5 1.201 1.5 1.964 0 .763 2.025 2.34 4.5 3.503 5.965 2.804 5.751 2.992-2.75 2.426l-7.25-.482 7.323 1.421c4.028.782 8.952 1.275 10.943 1.096 2.264-.203 4.183.24 5.126 1.183 1.211 1.212 2.892 1.363 8.558.77 3.877-.406 8.4-.701 10.05-.656 2.272.062 2.636-.15 1.5-.875-.825-.527-4.607-.964-8.405-.973-6.689-.015-6.852-.074-5.207-1.891.934-1.032 3.366-2.191 5.405-2.576 8.296-1.565 20.934-3.757 24.457-4.242 2.063-.284 3.75-.87 3.75-1.303 0-.875 3.609-1.92 8.967-2.596 5.107-.644 7.142-1.421 6.489-2.479-.316-.51.128-.928.985-.928s1.559-.393 1.559-.873 2.263-1.09 5.029-1.356c3.588-.345 6.095-1.333 8.75-3.45 2.047-1.631 5.184-3.606 6.971-4.388s3.25-1.986 3.25-2.677c0-.691.738-1.256 1.639-1.256.902 0 3.715-1.262 6.25-2.804 2.536-1.541 6.073-3.396 7.861-4.121 1.788-.725 3.25-1.713 3.25-2.196 0-.484.675-.879 1.5-.879s1.5-.675 1.5-1.5.563-1.507 1.25-1.515c.833-.011.75-.339-.25-.985-1.349-.872-.725-1.43 1.25-1.118.413.065.75-.332.75-.882s.469-1 1.042-1c.573 0 2.035-.935 3.25-2.078 1.214-1.143 3.576-2.655 5.247-3.361 1.672-.705 5.659-3.82 8.862-6.922 5.273-5.107 6.813-6.146 7.986-5.389.213.137 1.323-.875 2.467-2.25 2.531-3.042 2.833-.972.449 3.065-.934 1.58-1.322 3.225-.864 3.654.459.43 1.027.244 1.263-.413.621-1.736 3.298-.4 3.298 1.646 0 2.765 6.484 7.048 10.669 7.048 1.354 0 1.383-.237.203-1.687-1.221-1.501-1.152-1.599.628-.887 1.1.441 2.9 1.038 4 1.328 1.1.291 2.712 1.141 3.581 1.889.87.749 1.849 1.094 2.175.768.327-.327 1.415-.117 2.419.467 1.543.897 1.29 1.066-1.639 1.092-2.989.026-3.264.22-2 1.414 2.333 2.204 8.964 3.064 8.964 1.161 0-.85.113-1.533.25-1.519 2.142.221 14.25 5.029 14.25 5.659 0 .475.959 2.083 2.131 3.572 2.095 2.664 2.184 2.682 5.403 1.076 2.789-1.391 3.436-1.425 4.37-.233.603.77 3.121 2.479 5.596 3.799 2.475 1.319 5.286 3.075 6.248 3.902 1.963 1.69 11.288 5.116 14.061 5.166.995.018 1.587.392 1.316.831-1.031 1.667 6.338 7.046 8.73 6.373.471-.133 1.483.28 2.25.916.767.637 1.402.765 1.41.285.009-.479.346-.422.75.128s2.31 1.877 4.235 2.949c3.566 1.986 17.921 13.234 19.208 15.051.39.55 3.802 4.15 7.583 8 3.781 3.85 8.493 9.7 10.47 13 1.977 3.3 5.011 7.575 6.742 9.5 2.801 3.114 10.261 13.957 18.579 27 4.136 6.487 8.786 16.402 12.479 26.611 1.769 4.889 4.512 12.489 6.095 16.889 1.584 4.4 3.822 11.492 4.974 15.76 2.45 9.076 4.53 11.575 3.524 4.233-2.027-14.789-11.174-44.515-18.459-59.993-6.127-13.015-14.366-25.209-31.754-47-15.639-19.599-17.149-20.837-50.941-41.79-22.442-13.915-25.686-15.589-41.296-21.304-25.345-9.279-41.209-20.398-41.199-28.875.004-3.378.984-5.327 6.051-12.031 3.325-4.4 7.202-10.025 8.615-12.5 2.841-4.976 8.014-10.264 12.142-12.412 1.478-.769 3.644-2.453 4.814-3.743l2.128-2.345-7.685-22.835c-6.326-18.8-7.902-22.573-8.916-21.35-.911 1.097-.976 2.622-.25 5.835.541 2.393 1.687 7.95 2.548 12.35.861 4.4 2.192 10.567 2.956 13.705l1.391 5.705-2.9-.58c-1.824-.365-2.899-.163-2.899.545 0 .619-.625 1.125-1.389 1.125-1.505 0-2.849 5.218-2.202 8.548.285 1.464-.36 2.387-2.255 3.23-1.46.65-4.229 3.157-6.154 5.571-1.925 2.414-4.4 4.785-5.5 5.27-1.1.484-2.022 1.331-2.049 1.881-.103 2.091-1.622 5.5-2.451 5.5-.476 0-1.151.9-1.5 2s-1.279 2-2.067 2c-.788 0-1.433.402-1.433.893 0 3.35-3.485 1.393-8.331-4.68-2.947-3.692-6.592-7.372-8.099-8.178-1.507-.805-3.413-2.83-4.235-4.5-3.297-6.699-11.912-18.497-13.52-18.516-.927-.01-2.839.42-4.25.956-1.729.657-2.565.638-2.565-.059 0-.569-.384-.797-.853-.507-1.396.863-4.224-1.782-4.4-4.116-.217-2.879-3.786-3.859-4.474-1.228-.618 2.363-1.1 2.402-3.45.274-2.147-1.942-2.982-1.395-3.378 2.212-.372 3.392-3.086 6.356-5.291 5.779-2.287-.598-4.355 1.961-7.01 8.674-1.306 3.302-5 8.804-9.233 13.75-3.881 4.535-6.71 8.246-6.288 8.246.423 0-.583 1.463-2.236 3.25-4.281 4.63-7.983 9.882-8.811 12.5-.391 1.238-1.367 2.25-2.168 2.25-.802 0-1.869 1.081-2.371 2.402-1.303 3.428-19.05 21.236-22.037 22.112-1.375.404-3.274 1.545-4.221 2.537-.946.991-3.421 3.073-5.5 4.626-5.09 3.802-6.279 4.986-6.279 6.252 0 1.064-8.347 1.594-18.462 1.172-5.173-.216-7.973-1.589-6.872-3.369.373-.604.159-.742-.511-.327-.635.392-1.155.222-1.155-.377 0-.6.58-1.313 1.289-1.585 1.42-.545 2.084-4.443.757-4.443-.456 0-1.112 1.125-1.457 2.5-.62 2.472-2.589 3.532-2.589 1.394 0-.608-1.125-2.442-2.5-4.076-1.669-1.984-2.502-4.192-2.506-6.645-.004-2.02-.606-4.823-1.34-6.228-.733-1.405-1.638-5.151-2.011-8.324-.373-3.173-1.611-7.597-2.751-9.832-1.14-2.235-1.867-5.138-1.616-6.451.29-1.518-.133-2.733-1.16-3.333-1.08-.631-1.182-.954-.307-.975.72-.016 1.055-.442.744-.945-.311-.503-.142-1.065.376-1.25.586-.209.553-6.746-.09-17.335-1.142-18.829-1.162-27.634-.065-28.456 1.828-1.37 1.779-16.11-.065-19.63-1.124-2.145-1.148-3.777-.134-9.259.677-3.66 1.488-8.574 1.801-10.92.313-2.345 1.03-5.125 1.593-6.178.564-1.052 2.201-5.658 3.638-10.235 1.438-4.577 3.536-10.3 4.663-12.718 1.432-3.071 1.985-6.084 1.834-10-.118-3.082-.303-9.614-.41-14.515-.204-9.392-.263-9.487-5.441-8.857m126.301 118.181c-.34.55-1.263.752-2.051.45-.787-.302-2.769.402-4.402 1.565-1.634 1.164-3.563 1.993-4.286 1.844-.728-.151-1.161.398-.97 1.228 1.117 4.85.281 7.92-3.949 14.51-2.468 3.845-6.432 10.027-8.809 13.74-2.377 3.713-4.719 6.75-5.204 6.75-.486 0-.883.599-.883 1.331s-1.012 1.879-2.25 2.548c-1.238.67-4.05 3.283-6.25 5.809C210.068 272.515 182.219 300 180.68 300c-.924 0-1.68.675-1.68 1.5s-.436 1.5-.969 1.5c-.532 0-.709-.675-.393-1.5.317-.825.078-1.5-.531-1.5s-1.107.952-1.107 2.115c0 1.974-.359 2.071-5.354 1.446-7.484-.935-15.646.248-15.646 2.268 0 1.222-.267 1.304-1.2.371-.66-.66-1.71-1.2-2.333-1.2-2.326 0-1.012 3.629 2.715 7.5 2.118 2.2 4.108 4.974 4.421 6.163.323 1.226 1.725 2.486 3.234 2.907 1.464.408 3.223.916 3.907 1.128 5.421 1.678 6.82 1.356 11.669-2.689l4.913-4.098 7.087.555c4.043.316 6.276.202 5.199-.267-2.03-.884-1.35-1.202 13.388-6.263 3.575-1.228 8.45-3.066 10.833-4.084 2.383-1.019 6.04-1.852 8.127-1.852 2.154 0 4.334-.649 5.04-1.5 1.031-1.242.923-1.5-.628-1.502-1.029-.001 1.953-2.302 6.628-5.113 8.707-5.236 20.265-13.312 32.277-22.554 3.728-2.867 7.665-5.495 8.75-5.84 1.085-.344 1.973-1.192 1.973-1.884 0-1.47 3.748-5.044 6.192-5.904 6.44-2.267 5.356-9.187-2.824-18.012-3.155-3.405-8.375-9.746-11.599-14.091-8.14-10.969-13.486-16.868-14.215-15.687M81.013 236.484c-.677.816-7.707 5.876-15.622 11.244C57.476 253.096 51 258.054 51 258.744c0 .691-.686 1.256-1.525 1.256-1.645 0-13.663 7.171-17.039 10.168C31.3 271.176 29.457 272 28.341 272c-1.117 0-2.846.9-3.841 2-.995 1.1-2.406 2-3.135 2-.728 0-2.294 1.913-3.479 4.25-2.776 5.476-3.218 5.716-10.533 5.735L1.207 286l-.066 5.5c-.05 4.189.283 5.5 1.397 5.5.804 0 1.462-.498 1.462-1.107s.661-.853 1.47-.543c1.512.58 10.029-2.731 10.979-4.268.293-.473 1.774-1.169 3.292-1.545 1.517-.377 6.078-3.405 10.136-6.728 11.019-9.026 12.098-10.041 11.577-10.883-.439-.71 5.308-5.421 6.617-5.424.315-.001 1.359-.79 2.322-1.752.962-.962 2.168-1.75 2.678-1.75.511 0 .929-.661.929-1.469 0-.894.586-1.243 1.5-.893.999.384 1.505-.044 1.515-1.281.013-1.531.178-1.6.944-.389.781 1.235 1.233 1.116 2.852-.75 1.058-1.22 2.658-2.218 3.556-2.218.898 0 1.633-.723 1.633-1.607 0-1.044.546-1.398 1.557-1.01.947.364 2.504-.425 3.978-2.015 1.648-1.778 3.08-2.44 4.485-2.073 1.669.436 2.178-.034 2.664-2.464.932-4.659 3.973-5.492 12.049-3.302 3.722 1.01 7.517 1.892 8.434 1.962.916.069 2.379.717 3.25 1.44.87.723 1.583.864 1.583.314s-.675-1.56-1.5-2.245c-.843-.7-1.5-2.88-1.5-4.978v-3.733l-6.75-.637c-9.908-.936-11.872-.813-13.237.832M150 336.614c-8.41.773-8.823 1.017-9.511 5.64-.489 3.29.08 6.385 2.53 13.746 5.946 17.864 7.121 24.681 5.323 30.882-1.07 3.689-1.824 4.957-2.397 4.029-1.183-1.914-1.659-1.077-2.465 4.339-.923 6.199-.869 6.194 14.958-1.368 2.166-1.035 4.727-1.882 5.691-1.882.964 0 2.031-.45 2.371-1 .34-.55 1.949-1 3.575-1 3.342 0 3.702-.641 8.416-15 1.534-4.675 5.183-13.003 8.108-18.507 7.7-14.489 8.87-18.129 6.073-18.895-2.753-.753-36.672-1.536-42.672-.984m-7.742 73.091c-1.899.366-2.798 2.223-5.866 12.114a3115.125 3115.125 0 0 1-5.507 17.596c-1.037 3.253-1.885 6.968-1.885 8.255 0 1.287-1.125 4.672-2.5 7.522-1.375 2.85-2.5 5.349-2.5 5.553 0 .205 8.887.233 19.75.063 16.428-.256 20.322-.602 23.154-2.058 4.192-2.156 4.096-2.159 4.096.13 0 1.695.924 1.895 9.417 2.038 5.179.088 9.654-.224 9.944-.694.29-.469-.604-5.099-1.987-10.289-1.384-5.189-2.619-9.885-2.745-10.435-.127-.55-1.421-4.825-2.876-9.5-1.455-4.675-3.358-11.087-4.227-14.25-1.781-6.474-3.421-6.984-10.291-3.199-.146.081.304 1.494 1 3.142.872 2.063 1.11 6.223.765 13.378l-.5 10.383-7 1.786c-6.086 1.552-7.556 2.404-11.259 6.523l-4.259 4.737.177-15.5c.258-22.749.626-26 2.938-26 1.046 0 1.903-.45 1.903-1 0-.983-5.337-1.145-9.742-.295" fill="#d3d3d3" fill-rule="evenodd"/></svg>