<svg xmlns="http://www.w3.org/2000/svg" width="500" height="243"><path d="M295 38.637c-16.409 2.778-22.753 5.821-27.324 13.108-3.858 6.15-6.176 14.967-6.176 23.494 0 9.313.511 8.951-13.673 9.702-9.426.5-10.968.843-13.199 2.939-1.834 1.722-3.275 2.23-5.258 1.85-4.319-.825-7.954 1.333-7.509 4.459.054.379-.68.915-1.631 1.192-11.741 3.41-49.029 14.418-56.73 16.747-5.5 1.663-12.475 3.688-15.5 4.5-3.025.812-8.65 2.624-12.5 4.025-11.15 4.06-25.554 8.347-28.044 8.347-3.332 0-27.657 7.175-36.782 10.849C66.37 141.582 61.771 143 60.453 143c-1.318 0-4.771 1.05-7.674 2.333-2.904 1.284-7.079 2.623-9.279 2.976-16.855 2.707-21.588 7.718-16.573 17.548 2.911 5.705 4.548 6.735 8.46 5.32 7.302-2.64 9.399-1.809 12.621 5.005 1.608 3.4 3.221 8.237 3.584 10.75.363 2.512.989 5.018 1.39 5.568 1.039 1.424 3.018 9.911 3.018 12.943 0 1.406.457 2.557 1.016 2.557 1.998 0 23.501-6.205 24.372-7.033.512-.486-1.103-8.116-3.813-18.009-2.585-9.441-4.56-17.28-4.388-17.421.172-.141 1.497-.539 2.945-.886 2.457-.588 2.772-.249 4.745 5.11 1.163 3.156 2.364 7.395 2.669 9.419.79 5.236 4.25 17.016 5.31 18.076.524.524 5.696-.429 12.518-2.306L113 191.751l-.009-3.126c-.01-3.489-3.932-19.545-6.995-28.637-3.285-9.752-6.051-7.925 25.504-16.849 7.7-2.178 31.903-9.108 53.784-15.401 37.022-10.647 40.067-11.366 43.852-10.356 3.735.997 4.223.893 5.969-1.263 1.442-1.781 3.713-2.663 9.394-3.65 4.121-.715 8.957-2.185 10.747-3.265 1.79-1.08 5.686-2.571 8.658-3.313 5.096-1.271 5.468-1.235 6.5.63.603 1.089 3.233 4.118 5.846 6.732 5.551 5.555 5.616 5.742 2 5.763-3.486.021-9.982 3.702-12.479 7.071-10.606 14.309 10.427 38.976 28.976 33.981 6.9-1.858 13.253-8.578 13.253-14.018 0-2.444 1.262-2.644 3.055-.484 4.09 4.928 15.192 6.256 21.447 2.565 1.987-1.172 3.797-2.131 4.022-2.131.225 0 .38 9.338.345 20.75-.069 22.577.232 24.099 5.843 29.473 6.093 5.836 5.444 5.777 63.13 5.777 57.648 0 58.496-.075 64.376-5.709 5.893-5.645 5.873-5.403 5.564-67.365l-.282-56.574-2.814-4.252c-1.949-2.944-4.41-4.994-8-6.666L459.5 59.02l-52.5-.005c-33.957-.002-53.85.371-56.321 1.057-7.272 2.019-12.888 8.872-13.873 16.928-.227 1.851-.895.728-2.574-4.327-3.048-9.172-7.53-15.87-15.869-23.712-9.228-8.678-15.836-11.599-23.363-10.324m-6.942 10.506c-8.75 1.611-15.422 9.122-15.675 17.645-.255 8.588 1.95 13.631 7.343 16.791 3.982 2.334 4.394 2.909 3.783 5.27-2.395 9.253-1.497 14.934 3.031 19.188l2.379 2.235 1.27-2.886c2.179-4.95 6.103-5.931 9.354-2.338 1.759 1.943 1.769 2.274.203 6.5l-1.65 4.452h4.509c14.386 0 20.782-5.536 22.529-19.5.993-7.944-.55-13.191-4.583-15.576-5.224-3.091-5.733-3.843-4.915-7.268 1.184-4.965.47-10.748-1.775-14.381-1.824-2.95-3.927-4.48-12.242-8.902-3.131-1.665-8.534-2.155-13.561-1.23M366 78.063c-1.375.406-1.937.782-1.25.837.886.071 1.25 2.403 1.25 8.017 0 5.397-.398 8.077-1.25 8.421-.687.277.441.54 2.508.583 3.484.073 3.67-.064 2.54-1.872-1.574-2.521.017-7.39 2.575-7.882 1.618-.312 1.791.243 1.48 4.741-.339 4.885-.249 5.093 2.196 5.093 2.341-.001 2.521-.308 2.202-3.751-.746-8.036-.987-8.426-5.004-8.08-3.525.304-3.681.183-3.741-2.871-.077-3.906-.357-4.165-3.506-3.236m54.75.599c.858.347 1.25 3.091 1.25 8.756v8.25l5.235-.084c4.663-.075 5.377-.379 6.531-2.785 2.513-5.236-1.283-10.349-6.264-8.438-1.158.444-1.502-.218-1.502-2.892 0-3.263-.193-3.464-3.25-3.39-1.788.043-2.687.306-2 .583M396.8 85.2c1.552 1.552 1.552 8.048 0 9.6-.933.933-.333 1.2 2.7 1.2 3.033 0 3.633-.267 2.7-1.2-1.693-1.693-1.491-6.313.342-7.835 2.338-1.94 3.75.181 3.295 4.948-.363 3.807-.217 4.087 2.137 4.087 2.362 0 2.526-.322 2.526-4.965 0-5.953-2.567-8.237-6.991-6.221-1.524.694-2.509.759-2.509.165 0-.539-1.215-.979-2.7-.979-2.1 0-2.433.267-1.5 1.2m-27.036 18.736c-9.897 3.196-14.264 8.931-14.264 18.731 0 11.556 6.751 16.236 13.577 9.41 4.78-4.78 3.47-9.056-3.717-12.137-3.888-1.667-4.41-2.234-3.843-4.184 2.049-7.051 14.031-9.459 18.809-3.78 7.944 9.44 3.563 21.69-15.385 43.024-18.217 20.51-18.482 20 10.411 20h23.352l.642-8.25c1.127-14.477.99-15.75-1.688-15.75-1.861 0-2.585.812-3.526 3.955-2.031 6.777-2.69 7.045-17.326 7.045-15.435 0-15.477.728.658-11.451 6.191-4.674 12.831-10.24 14.755-12.37 9.966-11.031 8.543-25.715-3.156-32.568-3.63-2.127-14.878-3.103-19.299-1.675m65.982 3.183c-2.064 1.045-7.239 2.487-11.5 3.204-6.716 1.131-7.789 1.595-8.066 3.491-.302 2.069.052 2.186 6.643 2.186 5.427 0 7.097.349 7.57 1.582.964 2.513.673 49.765-.316 51.328-.526.831-3.211 1.602-6.538 1.878-4.989.414-5.609.705-5.342 2.506.29 1.949 1.077 2.05 18.303 2.345 19.795.339 21.5.124 21.5-2.706 0-1.649-.724-1.933-4.918-1.933-8.761 0-8.082 2.823-8.082-33.607V105l-2.75.109c-1.512.06-4.439.964-6.504 2.01M318.75 125.392c-2.473 1.878-2.179 2.608 1.05 2.608 5.735 0 7.29 6.274 2.45 9.885l-2.75 2.052 3.168.031c5.704.057 9.332-3.428 9.332-8.964 0-5.318-8.753-9.025-13.25-5.612m-42.552 5.358c-3.166 2.738-3.412 5.402-.948 10.284 3.778 7.484 14.928 11.593 20.309 7.484 1.811-1.384 1.724-1.442-1.307-.876-4.049.757-6.252-.921-6.252-4.764 0-2.504-.374-2.878-2.878-2.878-4.286 0-5.725-2.29-4.447-7.077 1.205-4.513-.701-5.438-4.477-2.173" fill="#d3d3d3" fill-rule="evenodd"/></svg>