<svg xmlns="http://www.w3.org/2000/svg" width="500" height="333"><path d="M496.101 110.742c-.035 5.367-.329 21.008-.653 34.758-.324 13.75-.629 43.15-.678 65.334-.074 33.362-1.083 63.66-1.633 49.023-.126-3.363-2.012-5.519-4.387-5.016-.413.088-.75-.291-.75-.841s.422-1 .937-1c1.393 0 1.038-8.106-.484-11.072-1.004-1.956-1.074-3.633-.293-7 1.432-6.172 1.676-7.312 1.763-8.237.043-.445.48-.56.972-.256 1.523.941 2.105-2.243 2.105-11.517 0-8.204-.158-8.918-1.969-8.918-1.339 0-1.784-.48-1.393-1.5.317-.825 1.004-1.5 1.528-1.5s.674.45.334 1-.216 1 .274 1c1.495 0 1.487-32.217-.008-33.166-1-.635-1.003-.807-.016-.819.688-.008 1.25-.514 1.25-1.123 0-.67-.947-.871-2.394-.508-2.067.519-2.374.261-2.25-1.891.079-1.37.534-2.492 1.011-2.492.476-.001.631-.901.343-2.001-.287-1.1-.115-2 .384-2 .498 0 .906 1.323.906 2.941 0 1.618.45 3.219 1 3.559.629.388 1-1.864 1-6.063 0-5.873-.184-6.529-1.524-5.417-2.405 1.996-2.872.376-.559-1.937 1.145-1.145 2.083-2.731 2.083-3.524 0-2.066-2.073-3.06-3.057-1.466-.459.742-1.113 1.07-1.454.729-.341-.341.642-1.79 2.185-3.221 1.543-1.43 2.585-2.638 2.316-2.682-.27-.045-1.615-.233-2.99-.419-1.375-.186-3.4-.487-4.5-.669-1.482-.245-1.954.183-1.822 1.654.098 1.092-.297 2.28-.878 2.639-1.35.834-.124 2.876 1.728 2.876.842 0 1.178.604.834 1.5-.317.825-.115 1.5.448 1.5.563 0 1.25-.562 1.528-1.25.277-.687.54-.275.583.917.043 1.191-.483 2.37-1.171 2.619-.985.357-.964.936.099 2.728 1.206 2.035 1.168 2.207-.361 1.62-1.254-.481-1.556-.253-1.131.855.321.836.036 1.518-.638 1.526-.923.012-.912.21.044.817.694.441 1.422 2.684 1.617 4.985.341 4.028-.518 5.387-1.946 3.076-.478-.774-.976-.698-1.653.25-.731 1.022-.826.912-.387-.445.321-.991.196-1.563-.277-1.27-1.24.766-.903-7.785.341-8.663.699-.492.666-.739-.098-.75-.718-.009-.997-1.404-.753-3.765.32-3.109.222-3.365-.578-1.5-.53 1.238-1.429 2.25-1.997 2.25-.567 0-1.032.627-1.032 1.393 0 1.78-2.266 2.649-8.405 3.222-5.639.527-6.662.973-6.114 2.667.922 2.85 1.526 25.84.665 25.308-.505-.312-1.533.18-2.283 1.094-1.211 1.477-1.112 1.598.887 1.083 2.827-.728 2.912.656.158 2.585l-2.091 1.465 2.091 2.091c1.203 1.203 2.043 3.26 1.976 4.842-.077 1.826-.274 2.137-.587.927-.26-1.003-1.053-1.601-1.763-1.329-.709.273-1.795-.009-2.412-.626-1.391-1.391-1.483-3.063-.122-2.222.55.34 1 .141 1-.441s-.675-1.059-1.5-1.059-1.5.477-1.5 1.059-.405.808-.901.502c-1.655-1.023-.829-7.374 1.072-8.246 1.177-.539 1.494-1.269.938-2.157-.691-1.103-1.209-1.112-2.905-.054-3.02 1.886-1.957 10.321 1.707 13.551 3.002 2.646.926 3.32-2.606.846-1.643-1.151-2.247-1.209-2.602-.25-.348.939-.873.86-2.113-.316-1.524-1.447-1.458-1.668.88-2.919 1.519-.813 2.502-2.186 2.46-3.435-.07-2.053-.083-2.054-1.021-.081-.885 1.864-.921 1.847-.523-.25.235-1.238.019-2.25-.48-2.25-.498 0-.906-.477-.906-1.059s.465-.771 1.034-.42c.654.404.854-.353.544-2.064-.575-3.173-1.578-4.522-1.578-2.124 0 1.861-3.608 2.342-4.202.561-.203-.609-1.928-1.186-3.833-1.283-2.473-.126-3.469-.649-3.478-1.823-.021-2.77-1.567-3.393-3.194-1.286-1.524 1.973-1.537 1.971-1.028-.187.426-1.814-.784-3.315-2.674-3.315-.134 0-.046 1.35.196 3 .37 2.526.106 3-1.674 3-1.162 0-2.113-.45-2.113-1s.563-1.007 1.25-1.015c.961-.012.949-.206-.05-.84-.715-.454-1.375-1.821-1.467-3.039-.137-1.823-.597-2.106-2.605-1.602-1.341.337-2.71.172-3.043-.367-.333-.538-1.951-1.314-3.595-1.724-2.739-.682-2.871-.601-1.58.967.776.941 2.013 1.48 2.75 1.197 1.223-.469 1.8.638 1.433 2.748-.079.454.824.519 2.007.143 1.37-.435 1.919-.308 1.513.349-.351.567.156 1.198 1.125 1.401 1.504.315 1.413.562-.615 1.679-1.802.993-2.553 1.025-3.105.132-.533-.863-1.146-.758-2.298.394-.888.888-2.365 1.314-3.396.98-1.517-.492-1.571-.411-.324.482 1.606 1.149-3.209.926-9.75-.451-2.146-.452-3.25-.302-3.25.441 0 .619 1.125 1.125 2.5 1.125s2.5.441 2.5.98c0 1.011-3.419.817-8.261-.469-2.26-.6-2.653-.45-2.163.827.488 1.272-.109 1.508-3.239 1.279-4.891-.358-6.324.173-7.256 2.693-.431 1.164-1.027 1.587-1.396.99-.719-1.164 2.003-4.674 4.315-5.565 1.178-.453 1.115-.594-.292-.656-.985-.043-2.753.816-3.927 1.91-1.175 1.095-2.393 1.708-2.708 1.364-.315-.345.008-.834.719-1.087 1.055-.376 1.055-.749 0-2.037-1.117-1.362-1.001-1.501.854-1.023 1.612.415 2.481-.101 3.498-2.077.744-1.446 1.804-2.96 2.354-3.364.635-.465.574-.74-.166-.75-.643-.008-1.88-.288-2.75-.622-1.193-.458-1.582.034-1.582 2 0 1.434-.447 2.607-.994 2.607-.546 0-.805-1.012-.574-2.25.231-1.238.453-2.76.494-3.383.041-.624.974-1.369 2.074-1.657 2.186-.571 2.761-2.683.75-2.755-.687-.025.1-.631 1.75-1.346l3-1.301-3.25-.733c-2.284-.516-3.25-1.305-3.25-2.654 0-1.057-.439-1.921-.975-1.921-.561 0-.706 1.344-.341 3.168.545 2.727.391 3.075-1.107 2.5-.957-.367-1.955-.668-2.218-.668-.262 0-.199-.45.141-1 1.087-1.759-1.046-1.071-3.359 1.083-1.903 1.773-2.48 1.885-3.876.75-1.412-1.148-1.552-1.099-1.008.352.347.927.11 1.859-.525 2.071-.709.236-1.047 2.158-.875 4.963.155 2.518-.2 4.875-.788 5.238-.588.364-1.069 1.111-1.069 1.661s.498.692 1.107.316c.745-.461.887.011.433 1.441-.77 2.426.932 2.944 1.846.562.33-.86 1.022-1.303 1.538-.984.516.319 1.22.122 1.566-.437.345-.559.067-1.016-.62-1.016-.71 0-.353-.833.83-1.935 1.386-1.291 2.846-1.735 4.385-1.332 2.171.567 2.193.648.361 1.365-1.764.69-1.777.768-.137.832 2.657.103.984 2.07-1.761 2.07-1.284 0-2.593.675-2.91 1.5-.316.825-1.264 1.5-2.107 1.5-1.332 0-2.035 1.811-1.649 4.25.065.412-.557.75-1.382.75-.933 0-1.5.944-1.5 2.5 0 1.93-.513 2.497-2.25 2.485-1.827-.013-1.968-.201-.75-1 1.009-.663 1.149-1.23.427-1.735-1.463-1.022-2.578-4.25-1.469-4.25.492 0 1.084.787 1.314 1.75.389 1.625.475 1.618 1.219-.101.528-1.221.326-2.142-.595-2.707-5.669-3.478-7.759-7.673-4.751-9.532.79-.488.988.113.639 1.941-.548 2.865.12 3.345 2.016 1.449.933-.933 1.2-.92 1.2.059 0 .692.395 1.015.877.717.483-.298.572-2.012.199-3.809-.548-2.639-1.101-3.207-2.877-2.954-1.21.172-2.199-.166-2.199-.75 0-.585-.675-1.063-1.5-1.063s-1.5.45-1.5 1 .45 1 1 1 1 .45 1 1-.702 1-1.559 1-1.281-.45-.941-1c.34-.55.141-1-.441-1s-1.059.675-1.059 1.5-.73 1.5-1.622 1.5c-1.381 0-1.423.241-.282 1.615 1.164 1.403 1.082 1.563-.628 1.214-1.133-.231-1.854-1.081-1.7-2.002.173-1.032-.716-1.836-2.5-2.262-1.522-.363-3.556-.894-4.518-1.18-2.766-.822-2.035 1.556.81 2.638 1.562.594 2.281 1.425 1.844 2.133-.492.795-.04.982 1.44.595 1.727-.452 2.156-.125 2.156 1.643 0 1.213.438 2.644.974 3.18.631.631.456 1.971-.5 3.814-.811 1.562-1.474 3.434-1.474 4.159 0 .725-.9 1.604-2 1.953s-2 1.243-2 1.986c0 .743-.309 2.175-.687 3.182-.591 1.576-.464 1.651.911.533 1.074-.873 1.81-.954 2.246-.25.356.577-.054 1.049-.911 1.049-.883 0-1.559.852-1.559 1.965 0 1.08-.9 2.446-2 3.035s-2 1.715-2 2.504c0 .863-.597 1.204-1.5.858-.825-.317-1.5-1.454-1.5-2.528s-.409-1.699-.91-1.39c-.5.309-1.638.283-2.529-.059-1.473-.565-1.465-.735.092-1.873 2.284-1.671 3.038-6.714.879-5.886-.843.323-1.532.09-1.532-.519s.852-1.107 1.893-1.107 2.152-.675 2.469-1.5c.73-1.904-.287-4.664-1.454-3.943-.485.3-1.873-.378-3.084-1.506-1.882-1.754-1.952-2.051-.48-2.051.946 0 2.127-1.012 2.625-2.25.497-1.238.933-1.74.968-1.117.068 1.228 3.603 2.493 4.49 1.607.298-.298-.239-1.142-1.193-1.875-1.619-1.244-1.593-1.372.383-1.93 1.843-.521 1.973-.911 1-3.009-.614-1.326-1.454-2.414-1.867-2.418-1.336-.014-.797-1.453 1.501-4.008 2.359-2.622 5.749-3.827 5.749-2.044 0 .574-.765 1.044-1.7 1.044-2.363 0-.436 1.592 2.867 2.369 1.707.402 2.849.178 3.171-.621.277-.686.547-.348.598.752.074 1.57.287 1.697.987.591.49-.775.632-2.087.315-2.914-.36-.937-.162-1.248.523-.825.605.374 2.369-.509 3.92-1.964 2.572-2.413 2.622-2.583.569-1.949-2.496.772-2.727.32-1.25-2.439.656-1.226.665-2.752.025-4.435-1.433-3.769-3.082-3.251-1.972.619 1.135 3.957 1.032 4.052-2.835 2.592-2.188-.826-3.338-2.045-3.765-3.991-.782-3.561-2.635-2.585-1.951 1.026.281 1.479.245 2.127-.079 1.439-1.03-2.183-2.307-1.348-2.111 1.381.137 1.919-.34 2.715-1.763 2.941-1.073.171-2.648 1.225-3.5 2.343-1.617 2.122-4.967 1.379-3.618-.803.378-.612.21-1.112-.372-1.112s-1.059.477-1.059 1.059-.403.81-.895.506c-.999-.617-2.53 2.254-2.223 4.169.115.713-.43.993-1.29.663-.819-.314-2.496.367-3.727 1.514-2.038 1.899-2.423 1.95-4.302.573-3.521-2.58-4.309-2.682-6.469-.833-2.189 1.875-2.812 4.349-1.094 4.349.55 0 1-.675 1-1.5s.502-1.5 1.117-1.5c.614 0 .894.85.622 1.889-.272 1.039-.123 2.49.331 3.225.529.855.106 2.005-1.176 3.199-1.96 1.826-2.05 1.81-4.447-.776-2.97-3.204-3.07-3.933-.447-3.247 2.156.563 2.818-.827.75-1.576-1-.362-1-.876 0-2.57 1.594-2.7 1.571-3.144-.167-3.144-.779 0-1.602-.557-1.829-1.238-.322-.965-.981-.979-2.988-.065-2.501 1.139-2.536 1.283-1.214 4.988 1.64 4.598 1.798 6.649.448 5.815-.55-.34-1-.109-1 .513 0 .642-1.188.996-2.75.82-1.512-.171-2.712.134-2.665.678.047.544-.965 2.073-2.25 3.397-1.284 1.325-2.335 1.888-2.335 1.25 0-.637-.679-1.158-1.508-1.158-1.259 0-1.302.332-.26 2 1.519 2.432 3.35 2.569 4.595.344.841-1.502 1.217-1.449 4.062.577 1.724 1.227 2.836 2.716 2.47 3.307-.429.694-1.118.454-1.945-.677-1.453-1.987-3.398-1.277-3.446 1.258-.029 1.56-.135 1.555-1.36-.059-1.656-2.181-6.608-2.368-6.608-.25 0 2.613-1.853 1.618-2.184-1.173-.174-1.47-.879-2.858-1.567-3.083-.793-.261-1.028.169-.643 1.172.335.871.162 1.584-.382 1.584-1.327 0-2.17-3.489-1.481-6.127l.557-2.127 1.756 2.328c2.12 2.81 4.944 1.27 4.944-2.696 0-1.308.45-2.378 1-2.378s1 .675 1 1.5c0 2.442 1.727 1.708 2.235-.95.366-1.913.008-2.516-1.633-2.751-1.214-.174-1.649-.596-1.03-.999.589-.384 2.328-.046 3.864.751 3.455 1.793 5.672 1.847 3.349.082-1.356-1.029-1.461-1.574-.5-2.594.985-1.047.419-1.192-2.996-.766-4.186.523-8.215-1.491-5.092-2.546.717-.242.515-.322-.447-.177-.962.144-1.75-.145-1.75-.644 0-.498-1.8-.906-4-.906s-4-.432-4-.961c0-1.136-4.018-5.039-5.189-5.039-.446 0-.811.675-.811 1.5s.623 1.5 1.383 1.5c.761 0 1.626.926 1.922 2.058.382 1.46.109 1.969-.936 1.75-.811-.169-1.533-.758-1.605-1.308-.071-.55-1.156-1.807-2.411-2.794-2.139-1.683-2.479-1.692-5.463-.149-2.23 1.153-2.802 1.879-1.914 2.428.697.431 1.049 1.398.781 2.149-.268.751-.061 2.192.459 3.202 1.205 2.338.338 3.26-1.474 1.568-.764-.714-1.191-2.334-.949-3.601.247-1.292-.05-2.303-.676-2.303-.615 0-1.117.9-1.117 2s-.45 2-1 2-1-.672-1-1.492c0-2.436-4.18-6.508-6.68-6.508-1.276 0-2.32.45-2.32 1s-.477 1-1.059 1-.8-.419-.484-.931c.317-.512.118-1.213-.441-1.559-2.029-1.254-.96-2.534 1.583-1.896 2.178.547 2.538.347 2.225-1.231-.252-1.27-1.072-1.786-2.518-1.584-1.732.242-2.04-.099-1.603-1.771.44-1.683.813-1.845 1.995-.863 1.143.948 1.629.925 2.269-.111.61-.988.983-.786 1.488.805.371 1.168.375 2.607.009 3.199-.37.599.267 1.32 1.435 1.626 1.156.302 2.101 1.145 2.101 1.874 0 1.516 1.849 2.927 2.709 2.066.317-.316-.051-1.346-.816-2.287-1.226-1.506-1.185-1.633.345-1.06 1.083.406 1.648.202 1.5-.539-.131-.655.774-1.345 2.012-1.534 1.238-.189 2.25-.762 2.25-1.274 0-.511.48-.93 1.067-.93.591 0 .801.842.47 1.885-.593 1.867.252 2.017 6.88 1.225.99-.119-.15-1.6-1.25-1.625-2.626-.061-2.98-1.757-1.075-5.149 1.715-3.052 1.772-3.498.381-2.964-.9.345-2.05.628-2.555.628-.505 0-.932.787-.95 1.75-.03 1.667-.095 1.667-1.36 0-2.084-2.745-3.755-2.186-2.958.99.642 2.559.577 2.63-.981 1.072-.918-.918-1.669-2.137-1.669-2.709 0-.572-.701-.771-1.557-.443-.857.329-1.321 1.215-1.032 1.969.289.754.138 1.371-.335 1.371-.474 0-1.118-.667-1.431-1.483-.408-1.063-1.428-1.31-3.607-.875-2.387.478-3.038.26-3.038-1.017 0-.894-.498-1.625-1.107-1.625s-.848.675-.531 1.5c.35.914.001 1.5-.893 1.5-.808 0-1.525.45-1.594 1-.069.55-.181 1.412-.25 1.917-.245 1.798-1.625 2.385-1.625.691 0-.949-.468-1.437-1.041-1.083-.572.354-.767 1.505-.432 2.559.334 1.054.164 1.916-.378 1.916s-1.697.273-2.567.607c-1.139.437-1.582.008-1.582-1.531 0-2.3-2.781-4.012-3.851-2.372-.357.548-1.324 1.253-2.149 1.567-1.002.382-.753.597.75.65 1.238.043 2.257-.483 2.265-1.171.011-.833.339-.75.985.25 1.569 2.427 1.207 2.747-2.852 2.518-5.166-.292-7.515-1.723-4.138-2.521 2.06-.487 2.193-.703.769-1.251-.982-.377-2.347-.035-3.179.796-1.66 1.661-3.028 1.959-2.1.458.34-.55-.11-1-1-1-.971 0-1.332.463-.903 1.158.502.811-.003.965-1.691.513-1.323-.354-2.995-.65-3.715-.657-.72-.008-1.026-.471-.681-1.03.346-.559 1.047-.758 1.559-.441.54.333.865-1.864.774-5.234l-.157-5.809-.605 5-.604 5-.641-6.224c-.655-6.35-2.349-9.276-5.372-9.276-1.081 0-1.473-.534-1.102-1.5.412-1.075-.101-1.5-1.81-1.5-1.312 0-2.535-.38-2.719-.845-.509-1.292-5.833-2.364-5.833-1.174 0 1.355-4.7 1.313-5.542-.049-.363-.588-1.235-.848-1.937-.578-.703.269-1.67.119-2.149-.334-.48-.454-6.497-1.12-13.372-1.481-6.875-.362-12.95-.702-13.5-.755-.55-.054-1.976.216-3.169.601-1.687.543-2.323.215-2.86-1.475-.379-1.196-.978-1.777-1.33-1.292-.353.485-1.541 1.026-2.641 1.201-1.1.176-2.45.892-3 1.591-.55.7-3.475 1.586-6.5 1.971-15.285 1.942-26.499 4.96-27.554 7.417-.403.936-.832 8.284-.954 16.329-.122 8.044-.485 15.052-.806 15.572-.321.52-2.459.797-4.75.616-4.13-.327-4.161-.304-3.717 2.722.246 1.678.073 3.283-.386 3.566-.811.502-1.215-.918-.928-3.266.084-.688-.669-.95-1.845-.642-1.725.451-1.799.709-.557 1.951 1.466 1.466 1.475 14.301.013 18.924-.417 1.317-.085 2.543.914 3.372.864.717 1.57 1.768 1.57 2.335 0 .568-.9.218-2-.777s-2-2.64-2-3.655c0-1.015-.388-1.845-.861-1.845-1.551 0 .058 5.024 2.057 6.424 1.073.752 1.519 1.634.991 1.961-.528.326-1.516-.077-2.196-.896-1.339-1.613-3.477-2.084-2.534-.558 1.06 1.714-1.519 2.258-3.756.793-2.394-1.569-6.701-.7-6.701 1.351 0 .626-.675.88-1.5.563-1.667-.639-2.096.9-.475 1.704.564.279.455.393-.241.253-1.484-.3-4.294 2.228-3.434 3.088.323.323 1.727-.158 3.119-1.071 1.392-.912 2.531-1.22 2.531-.685 0 .536-.787 1.432-1.75 1.993-.971.566-1.194 1.033-.5 1.05.688.016 1.25.555 1.25 1.197 0 .641-.296.87-.658.508-.362-.362-1.257-.161-1.988.446-1.005.834-1.486.7-1.965-.549-.522-1.36-.884-1.172-2.042 1.06-.774 1.492-1.056 2.973-.627 3.29 1.546 1.146 1.507 4.379-.046 3.783-.952-.365-1.681.209-2.05 1.614-.315 1.2-.134 2.331.402 2.514 1.694.58 1.062 2.063-1.633 3.829-2.488 1.63-2.657 1.62-3.724-.227-1.434-2.484-1.513-3.638-.358-5.185.62-.83.517-1.25-.305-1.25-.778 0-1.064-.918-.768-2.465.259-1.356-.026-2.672-.633-2.924-.727-.302-.763-.741-.105-1.285 1.404-1.16 1.802-4.326.544-4.326-.574 0-1.051.787-1.059 1.75-.013 1.485-.158 1.524-.959.258-.751-1.188-1.196-1.238-2.184-.25-.989.989-.919 1.242.345 1.242.998 0 1.749 1.113 2.027 3.006.53 3.61.224 3.994-3.181 3.994-1.448 0-3.173.54-3.833 1.2-.933.933-1.2.822-1.2-.5 0-.935.563-1.707 1.25-1.715.941-.012.922-.224-.077-.857-.73-.462-1.239-1.468-1.131-2.234.486-3.473-.041-5.443-1.042-3.894-1.223 1.892-1.237 1.315-.07-2.757.754-2.628.646-3.243-.567-3.243-1.043 0-1.305.608-.863 2 .364 1.147.18 2-.433 2-.587 0-1.067.878-1.067 1.95 0 1.073-.751 2.371-1.67 2.885-2.124 1.189-2.532 8.777-.64 11.915 1.387 2.301 1.123 2.614-1.94 2.302-.963-.098-1.75.286-1.75.854 0 .567.727.752 1.616.411 1.419-.544 1.458-.326.326 1.781-.71 1.321-1.268 4.09-1.24 6.152.035 2.586-.387 3.75-1.361 3.75-1.077 0-1.17-.45-.394-1.9.772-1.443.655-2.039-.488-2.477-1.238-.475-1.285-.928-.27-2.555.68-1.087.853-2.335.386-2.773-.467-.437-1.05-.232-1.295.455-.246.688-1.984 1.25-3.863 1.25-1.88 0-3.417.398-3.417.883 0 .486-.945 1.131-2.101 1.433-1.155.302-1.83.987-1.499 1.523.67 1.084 4.6.367 4.6-.839 0-1.558 3.962-1.751 5.205-.253 1.098 1.323.985 1.448-.794.883-2.922-.927-6.805 2.552-5.929 5.312.38 1.2.208 2.058-.415 2.058-.587 0-1.074-.788-1.082-1.75-.023-2.585-1.593-4.61-2.933-3.782-.83.513-.644 1.124.638 2.096 1.695 1.285 1.699 1.374.06 1.404-.962.018-1.75-.418-1.75-.968s-.702-1-1.559-1-1.281-.45-.941-1c.873-1.413-1.853-1.247-3.3.2-.933.933-1.2.724-1.2-.941 0-1.178.45-2.419 1-2.759.55-.34 1-1.252 1-2.027 0-1.891-4.462-.295-4.594 1.644-.052.761-.55 2.508-1.106 3.883a217.19 217.19 0 0 0-1.577 4c-.354.939-.608.566-.679-1l-.115-2.5L27.5 258c-1.144 2.001-1.436 2.137-1.465.683-.024-1.259-.573-1.656-1.785-1.291-4.322 1.301-4.777-.733-5.005-22.392-.243-23.097-.54-26.616-2.216-26.225-.648.151-.893-.187-.544-.75.348-.564.213-1.025-.301-1.025s-.934-1.068-.934-2.374c0-1.898.426-2.281 2.125-1.913 1.573.341 1.771.21.762-.505-.75-.531-.929-1.133-.398-1.337 1.26-.485 2.408-15.871 1.184-15.871-.508 0-.923-.675-.923-1.5s.436-1.5.969-1.5c.532 0 .704-.688.381-1.529-.507-1.322-.77-1.288-1.936.25-1.862 2.453-1.773.237.097-2.433.946-1.35 1.548-4.634 1.61-8.779.102-6.823-.761-9.601-1.777-5.715-.776 2.965-2.344 2.808-2.344-.235 0-1.343-.498-2.749-1.107-3.125-.772-.477-.697-.957.25-1.589.892-.596.329-.719-1.643-.36-2.139.389-2.447.304-1.073-.295 1.791-.781 1.803-.888.168-1.515-2.522-.968-3.81-.832-3.095.325.35.566-.481 1-1.916 1-2.29 0-2.443-.241-1.584-2.5.523-1.375.567-2.5.098-2.5-1.136 0-3.59 2.996-2.47 3.015.479.009.197.442-.628.964C.337 158.03-.95 188 .668 188c.458 0 .886 1.238.952 2.75.066 1.512.458 3.769.871 5.015.565 1.705.411 2.135-.62 1.739-1.762-.676-2.612 35.42-.86 36.503.721.445.753 1.482.101 3.199-.673 1.77-.612 2.894.203 3.709.862.862.872 1.354.04 1.877-.807.506-1.166 13.453-1.263 45.458L-.042 333h66.021c58.019 0 66.021-.182 66.021-1.5 0-.825.436-1.5.969-1.5.532 0 .71.673.394 1.496-.508 1.324 20.441 1.467 183.282 1.25L500.5 332.5l.045-27c.039-23.309-.034-24.676-.537-10-.721 21.086-1.278 18.789-1.028-4.249.161-14.959-.025-17.331-1.404-17.86-1.796-.689-1.955-5.217-.338-9.641 1.535-4.202 2.621-3.299 3.008 2.5.193 2.887.24-32.092.104-77.733-.169-56.956-.576-83.092-1.298-83.333-.579-.193-1.052-.962-1.052-1.708 0-.747-.413-1.613-.917-1.925-.532-.328-.945 3.542-.982 9.191M64.043 190.92c-1.528 2.854-.969 13.264.639 11.929.959-.796 1.158-.333.861 2.01-.37 2.923-.247 3.033 3.087 2.771 3.66-.289 5.396.762 2.864 1.734-.822.315-1.494 1.049-1.494 1.63 0 .631 1.224.424 3.033-.511 3.626-1.875 3.114-3.05-2.397-5.502-2.275-1.012-3.333-1.872-2.351-1.91 1.471-.059 1.597-.423.715-2.071-1.189-2.221-.739-2.466 1.92-1.043 1.538.823 1.774.544 1.684-1.998-.096-2.729-1.604-4.414-1.604-1.792 0 1.676-1.344.097-1.641-1.928-.138-.936-.725-1.861-1.305-2.054-.579-.193-1.054-.989-1.054-1.768 0-2.042-1.755-1.743-2.957.503m33.499 74.948c-.485 1.529-1.596 1.815-6.726 1.732-4.352-.071-6.278.296-6.599 1.255-.349 1.043.283 1.194 2.732.656 3.04-.668 3.126-.604 1.878 1.395-.72 1.152-1.65 2.094-2.068 2.094-.417 0-.759.436-.759.969 0 .532.65.719 1.444.414 1.006-.386 1.396.097 1.283 1.591-.115 1.532-.672 2.012-1.944 1.679-1.292-.337-1.783.112-1.783 1.632 0 2.059-.027 2.062-1.468.156-.808-1.067-1.483-1.405-1.5-.75-.018.655.398 1.457.924 1.782.526.325.731 1.18.455 1.899-.276.719.193 1.885 1.043 2.59 1.286 1.068 1.546 1.01 1.546-.34 0-2.039 1.869-2.126 2.638-.122.869 2.263 2.592 1.801 1.862-.5-.513-1.617-.191-1.987 1.683-1.93 2.205.067 2.221.116.317 1.013-1.483.698-.793.844 2.668.562 3.96-.323 4.745-.086 5.176 1.562.42 1.605.857 1.756 2.516.868 2.637-1.411 4.441-1.371 3.545.08-.443.715-.275.883.44.44.635-.392 1.155-.251 1.155.315 0 .565.787.774 1.75.464 1.502-.483 1.538-.397.25.608-1.319 1.029-1.32 1.121-.009.764 2.641-.72 4.182 1.781 2.87 4.659-1.44 3.162-3.092 2.364-2.229-1.077.582-2.319.425-2.484-1.746-1.826-3.478 1.054-4.381 2.197-3.026 3.829.646.778.865 2.221.487 3.206-.472 1.23-.32 1.564.483 1.068.644-.398 1.17-.246 1.17.336 0 .582-.675 1.059-1.5 1.059s-1.5-.45-1.5-1-.498-1-1.107-1-.853.661-.544 1.468c.782 2.037-.577 2.616-2.15.915-1.073-1.161-1.029-1.511.25-2.002 2.024-.776 2.017-4.381-.008-4.381-.857 0-1.32.387-1.028.86.631 1.021-1.584 6.121-2.663 6.132-2.134.022-.294 2.003 2.813 3.029 2.986.985 3.846.919 5.313-.409 1.351-1.222 2.023-1.313 2.938-.398.915.915 1.186.912 1.186-.014 0-.66-.477-1.2-1.059-1.2s-.751-.498-.375-1.107c.479-.774.93-.708 1.505.222.647 1.047.962.964 1.482-.393.364-.947 1.049-1.722 1.523-1.722.473 0 .629.606.345 1.346-.361.941.417 1.373 2.581 1.435 2.425.069 3.303-.454 4.048-2.411 1.34-3.525.752-13.603-.825-14.128-.941-.314-1.139.628-.762 3.63.415 3.304.234 3.949-.977 3.484-.817-.313-1.555-1.084-1.638-1.713-.522-3.918-2.026-7.651-2.871-7.129-.438.271-1.565.198-2.504-.163-1.488-.571-1.403-.824.66-1.968 1.302-.721 1.729-1.328.95-1.348-.779-.019-1.12-.331-.758-.693.362-.362.167-1.249-.433-1.972-.811-.978-.638-1.767.678-3.083 1.267-1.267 1.887-1.417 2.183-.528.561 1.684 2.247 1.577 2.247-.142 0-2.11-3.843-2.72-4.927-.782-.508.906-1.281 1.29-1.719.852-.438-.438-.134-1.214.675-1.726 1.222-.773 1.164-.933-.345-.946-2.075-.017-5.872 1.805-6.833 3.28-.357.548-1.469.682-2.472.297-1.348-.517-1.496-.902-.567-1.476.707-.437.987-1.614.64-2.696-.589-1.838-.552-1.843.87-.11.944 1.149 1.725 1.423 2.141.75.36-.583 1.6-1.06 2.754-1.06 2.041 0 2.033-.063-.309-2.25-1.746-1.631-2.552-1.897-2.933-.966-.388.949-1.09.758-2.688-.732-2.062-1.92-2.191-1.929-2.745-.184M153 270c0 .55-.9 1-2 1s-2 .502-2 1.117c0 .634 1.02.921 2.362.665 1.558-.298 2.75.168 3.5 1.369 1.462 2.34 1.468 3.579.011 2.122-.724-.724-1.939-.818-3.397-.264-1.249.475-2.542.592-2.873.26-.332-.331-.603-.139-.603.427 0 1.306-5.265 1.182-6.196-.145-.382-.546-1.044-.644-1.471-.218-.426.427-.249 1.101.393 1.498.767.474.848 1.228.237 2.195-1.243 1.965-1.218 4.25.037 3.474.55-.34 1-.141 1 .441s-.45 1.059-1 1.059c-1.662 0-1.124 2.578.926 4.433 2.074 1.877 5.734 1.71 5.324-.242-.412-1.964 2.638-1.344 3.982.809.687 1.1 2.093 2 3.125 2 1.384 0 1.739-.525 1.353-2-.483-1.847.715-2.564 3.54-2.118.412.065.75-.332.75-.882s-.4-1-.889-1-.826-.788-.75-1.75c.087-1.098-.513-1.698-1.611-1.611-.963.076-1.75-.261-1.75-.75s.852-.889 1.893-.889c2.225 0 3.107-1.869 3.107-6.582 0-3-.313-3.418-2.559-3.418-1.451 0-2.292-.433-1.941-1 .34-.55-.084-1-.941-1s-1.559.45-1.559 1" fill="#d3d3d3" fill-rule="evenodd"/></svg>