<svg xmlns="http://www.w3.org/2000/svg" width="500" height="333"><path d="M0 19.917c0 14.997.309 20.041 1.25 20.421.995.401.993.52-.007.583-.99.062-1.25 9.212-1.221 42.978l.037 42.898 2.22-.543c1.222-.298 2.729-.938 3.349-1.42.65-.505 2.157-.486 3.553.045 1.333.507 3.076.56 3.872.118.796-.442 3.022-.936 4.947-1.098 1.925-.162 3.985-.646 4.577-1.076 3.102-2.249 33.551-4.098 36.588-2.221 1.871 1.156.642 3.187-2.282 3.771-2.611.523-3.024.981-2.542 2.823 1.12 4.282-4.53 6.936-5.858 2.751-.52-1.639-.936-1.816-2.067-.877-1.016.843-1.416.858-1.416.052 0-3.466-7.764 1.057-8.516 4.962-.556 2.885-.842 3.104-4.651 3.547l-3.248.378 3.91-4.004c3.434-3.517 3.653-4.005 1.791-4.005-1.166 0-2.302-.548-2.525-1.218-.389-1.167-11.981-1.382-13.805-.255-.78.482 1.064 7.827 2.268 9.03.38.38-.171 2.379-1.224 4.443-1.053 2.064-1.644 4.022-1.315 4.352.33.33.049 1.264-.625 2.076s-.944 2.361-.601 3.443c.587 1.849-2.377 3.943-4.709 3.327-.412-.109-.75.525-.75 1.409 0 .967-.558 1.393-1.401 1.069-.863-.331-1.62.295-1.968 1.626-.406 1.554-.871 1.858-1.65 1.079-.596-.596-2.186-.873-3.532-.616-2.261.432-2.449.911-2.449 6.227 0 5.642.062 5.77 3.108 6.38 2.308.461 2.952 1.03 2.5 2.208-.94 2.45 1.726 1.158 2.879-1.395.543-1.202 1.331-2.185 1.75-2.185.42 0 .763-.45.763-1s-1.687-1.072-3.75-1.16c-3.692-.158-3.7-.166-.5-.563 2.968-.369 3.767-1.245 3.328-3.65-.088-.48.511-.615 1.33-.301.866.333 1.371.07 1.205-.627-.157-.659-.096-.859.136-.443s.946.457 1.586.09c.641-.367.83-.297.421.154-1.705 1.882 3.157 3.684 6.745 2.5 1.903-.628 3.872-.887 4.377-.576 1.742 1.077 7.061-.657 7.644-2.492.67-2.113 3.781-3.356 7.728-3.087 1.787.121 2.75-.306 2.75-1.222 0-.775.725-1.687 1.611-2.027 1.205-.463 1.449-.195.966 1.063-.357.933-.073 2.044.639 2.496 1 .634 1.007.818.034.83-.687.008-1.25.513-1.25 1.122 0 .609.675.848 1.5.531.825-.316 1.5-.139 1.5.393 0 .533 1.013.955 2.25.937 2.084-.029 2.121-.13.5-1.36-2.036-1.546-2.303-3.548-.5-3.744.688-.075 2.6-.268 4.25-.428 3.188-.31 8.383-1.037 12.5-1.748 1.375-.238 3.48-.49 4.679-.56 1.198-.071 2.962-.911 3.919-1.869 1.193-1.193 1.866-1.366 2.138-.55.282.845 1.123.915 2.896.241 1.374-.523 4.017-.95 5.874-.95 1.857 0 3.636-.421 3.954-.935.527-.853 2.296.434 8.082 5.875 2.521 2.372 10.853 3.094 21.458 1.86 4.125-.481 10.65-1.076 14.5-1.324 10.756-.693 18.722-1.495 19.477-1.962.376-.232 3.107.217 6.069.998 8.121 2.142 34.79 3.079 35.493 1.246.299-.779 2.101-2.028 4.003-2.774 3.605-1.415 4.332-2.494 2.208-3.28-.687-.254.887-1.02 3.5-1.702 4.362-1.138 6.472-2.965 3.5-3.029-.687-.015.395-1.557 2.406-3.427 3.196-2.973 4.407-6.088 1.395-3.588-1.663 1.379-7.551 2.238-7.551 1.1 0-1.07 11.427-7.975 17.106-10.336 4.65-1.934 8.683-1.208 9.088 1.634.518 3.629 2.191 2.55 15.285-9.856 15.158-14.361 16.719-14.836 11.639-3.543-1.35 3.002-2.557 7.052-2.682 9-.125 1.949-.274 4.315-.332 5.258-.11 1.818-2.302 3.357-5.604 3.935-1.1.192-2.45 1.102-3 2.022-3.211 5.368-13.042 14.791-14.837 14.221-1.096-.348-2.327-.027-2.882.75-.739 1.034-.836.94-.407-.393.31-.963.127-1.75-.405-1.75-.533 0-.969.675-.969 1.5s-.45 1.5-1 1.5-1-1.125-1-2.5c0-3.433-.689-3.186-7 2.505-3.025 2.727-6.08 4.75-6.788 4.494-.708-.256-1.544.202-1.857 1.018-.313.816-1.394 1.483-2.403 1.483-1.009 0-2.112.45-2.452 1-.34.55-1.461 1-2.492 1-1.03 0-2.159.899-2.507 1.998-.888 2.798-4.756 3.485-12.05 2.141-3.439-.634-6.978-.874-7.863-.534-1.184.454-1.447.191-.992-.994.519-1.352-.203-1.611-4.489-1.611-3.959 0-5.107.351-5.107 1.559 0 .857-.363 1.335-.807 1.06-2.273-1.404-9.98-1.492-11.775-.134-1.799 1.362-1.702 1.462 1.582 1.619 1.925.092 5.3.329 7.5.528 2.2.198 5.425.474 7.167.614s3.505.592 3.917 1.004c.412.412 2.474.75 4.583.75 2.108 0 3.833.436 3.833.969 0 .532.675.709 1.5.393.825-.317 1.5-.138 1.5.398s1.82.82 4.044.632c2.454-.208 3.807.04 3.441.632-.332.537-.014.986.706.998.72.012.184.902-1.191 1.978s-1.911 1.966-1.191 1.978c.72.012 1.031.472.691 1.022-.34.55-1.068 1-1.618 1s-.679-.52-.287-1.155c.426-.689.276-.884-.371-.483-.597.369-1.368.213-1.714-.346-.345-.559-1.141-1.016-1.769-1.016-.837 0-.829.312.031 1.172.896.896.648 1.434-1.05 2.285-1.249.626-2.222 2.044-2.222 3.238 0 2.855-1.388 4.091-2.554 2.276-.775-1.205-1.058-1.064-1.563.779-.339 1.238-.901 2.275-1.25 2.305-6.091.525-9.73.494-10.133-.085-.275-.395-1.625-.278-3 .261-1.914.749-2.148 1.13-1 1.624 2.074.892 2.557 3.573.501 2.784-2.362-.906-5.676 1.445-4.328 3.07.795.957.684 1.291-.428 1.291-.825 0-2.118.75-2.873 1.666-1.231 1.494-1.111 1.601 1.168 1.034 2.047-.51 2.568-.252 2.688 1.334.081 1.081-.274 1.966-.79 1.966s-.938.927-.938 2.059c0 1.132-.422 1.798-.939 1.479-.516-.319-1.385.217-1.932 1.191-.944 1.681-1.029 1.683-1.669.021-.831-2.157-2.46-2.302-2.46-.219 0 .843-.675 1.791-1.5 2.107-.825.317-1.5 1.448-1.5 2.514 0 1.067-1.105 3.043-2.455 4.393-1.639 1.64-1.982 2.455-1.031 2.455.783 0 1.191.606.907 1.346-.406 1.057.621 1.248 4.781.888 2.914-.252 6.784-.521 8.599-.596 2.534-.106 3.202-.52 2.872-1.78-.381-1.456.66-1.603 9.155-1.299 6.049.217 10.078-.066 10.922-.766.735-.611 5.03-1.203 9.544-1.316 8.236-.207 13.706-1.139 13.706-2.335 0-.353 5.063-.712 11.25-.798 18.442-.256 28.82-1.152 39.75-3.431 7.366-1.536 24-2.154 24-.892 0 .538-.562 1.036-1.25 1.107-1.558.159-4.359.616-8.25 1.346-1.65.31-5.25.74-8 .956-2.75.216-7.23.906-9.956 1.532-2.725.626-10.15 1.344-16.5 1.595-6.349.25-12.669.689-14.044.974-5.295 1.099-16.709 2.409-21.25 2.438-3.157.021-5.337.618-6.501 1.781-1.316 1.314-3.618 1.795-9.25 1.932-4.125.1-9.074.429-10.999.731-7.27 1.14-16.609 2.55-19.5 2.945-1.65.225-4.8.891-7 1.481-2.2.589-5.464 1.023-7.253.964-1.814-.06-4.099.658-5.164 1.622-1.051.951-2.738 1.592-3.747 1.423-1.01-.169-3.34.318-5.178 1.082-2.672 1.11-3.499 1.136-4.123.126-.555-.897-1.324-.977-2.658-.277-1.032.543-3.938 1.021-6.457 1.064-2.519.042-5.669.445-7 .894-1.331.449-3.77.753-5.42.675-1.65-.078-6.6.515-11 1.317-4.4.803-9.575 1.655-11.5 1.894-1.925.239-4.954.904-6.73 1.477-1.777.573-3.68.764-4.23.425-.549-.34-1.795-.195-2.769.321-2.502 1.326-9.271 2.106-9.271 1.069 0-.482-1.03-.474-2.324.018-2.141.814-7.455 1.41-10.415 1.168-1.324-.108-1.364-5.015-.043-5.226.43-.069 1.345-.191 2.032-.272.688-.082 1.118-.925.956-1.875-.412-2.426 1.521-2.163 2.307.314.5 1.573 1.146 1.875 2.818 1.318 1.193-.398 4.082-.739 6.419-.756 2.337-.018 4.25-.439 4.25-.935 0-.496 1.125-.687 2.5-.424 1.676.32 2.5.029 2.5-.884 0-1.266 3.363-1.972 7-1.468 2.345.324 3.165.299 8.5-.268 2.75-.291 5.364-.552 5.809-.578.445-.026.503-.542.129-1.147-.472-.765-.027-.751 1.462.046 2.23 1.194 4.536.569 3.584-.971-.301-.488-1.321-.64-2.266-.337-1.261.404-1.372.302-.415-.385.716-.515 1.166-1.345 1-1.845-.167-.499.04-1.015.459-1.145.419-.13 2.341-1.673 4.271-3.429 4.126-3.755 3.278-5.822-1.396-3.405-2.88 1.489-3.332 1.471-6.588-.275-1.923-1.03-3.208-2.162-2.856-2.514.352-.352-.222-.647-1.276-.655-1.48-.012-1.603-.215-.539-.889 1.773-1.123.537-3.193-1.451-2.43-.83.319-1.378.187-1.218-.293.573-1.718-1.325-1.427-3.897.596-1.439 1.133-2.331 2.346-1.98 2.696.35.351-.144 1.23-1.098 1.954-1.583 1.203-1.516 1.323.766 1.381 2.415.061 2.434.114.559 1.532-1.068.807-1.379 1.468-.691 1.468.687 0 .972.45.632 1-.34.55-1.068 1-1.618 1s-.742-.418-.426-.928c.315-.51-.333-1.216-1.441-1.567-2.571-.816-2.578-2.673-.015-4.273 2.466-1.54 2.568-2.959.25-3.474-2.816-.625-7.594 3.123-6.169 4.84.898 1.082.864 1.402-.15 1.402-.792 0-.545.562.622 1.415 1.064.778 2.162 1.091 2.441.695.278-.396 1.259.057 2.179 1.008 1.552 1.603 1.554 1.773.019 2.362-.91.349-1.804.184-1.988-.367-.183-.55-.975-.754-1.76-.453s-1.703-.171-2.04-1.049c-.429-1.12-1.403-1.436-3.258-1.06l-2.646.537 2.25-1.666c2.566-1.9 3.015-3.653.709-2.768-.981.376-1.435.092-1.25-.781.16-.755-.384-1.373-1.209-1.373-.878 0-1.377.731-1.203 1.763.163.97-.391 2.028-1.232 2.35-1.119.43-1.275 1.06-.582 2.355 1.177 2.2.489 2.968-2.062 2.301-1.54-.403-1.717-.81-.82-1.891 1.646-1.983-2.466-1.87-4.458.122-1.961 1.961-6.058 2.025-5.313.083a1.534 1.534 0 0 0-.893-1.969c-.847-.325-1.437.051-1.437.917 0 .808-.337 1.416-.75 1.351-2.006-.317-2.077.291-.25 2.118 2.384 2.384 2.884 5.978.564 4.053-1.046-.868-1.98-.901-3.434-.122-2.895 1.549-3.348 1.341-2.573-1.181l.691-2.25-2.624 2.424c-1.443 1.334-2.624 3.021-2.624 3.75 0 .729-.81 1.326-1.8 1.326s-2.391.563-3.112 1.25c-1.071 1.02-1.188.836-.633-1 .409-1.353.254-2.25-.388-2.25-.587 0-1.067.441-1.067.98 0 .54-1.314.828-2.92.641-2.18-.254-3.043.131-3.407 1.521-.267 1.023-.078 1.609.42 1.3.499-.308.907-.046.907.582 0 .629-.563.941-1.25.694-.688-.246-2.037-.043-3 .452-2.071 1.066-2.464-1.056-.55-2.97.849-.849.87-1.2.071-1.2-.62 0-1.835.707-2.7 1.571C13.143 240 13 240 13 238.571A1.57 1.57 0 0 0 11.441 237c-.857 0-1.293.431-.967.957.325.527-.751 1.652-2.392 2.5-3.756 1.943-4.669 1.956-3.082.043 1.632-1.966-.7-2.044-3.25-.108C.128 241.623 0 245.068 0 287.386v45.665l71.25-.4c69.901-.393 80.407-.779 79.09-2.91-.366-.592-.172-.755.444-.374.601.371 1.511-.071 2.021-.983.511-.912 2.226-1.795 3.812-1.961 6.673-.7 9.736-1.376 10.729-2.369 1.202-1.202 15.139-1.31 18.132-.141 1.088.426 3.453.441 5.256.034 1.802-.406 3.526-.336 3.83.157.784 1.268 4.819 1.113 6.169-.237 1.337-1.337 4.677-.34 3.771 1.126-.6.971 3.246 1.454 8.291 1.04 1.429-.117 3.06.784 4.323 2.39 1.115 1.417 2.669 2.577 3.455 2.577.785 0 1.427.452 1.427 1.003 0 .668 46.592.919 139.25.75l139.25-.253.178-166.25L500.855 0H0v19.917M217.383 6.555c.417 1.088-.377 1.968-2.643 2.928-1.782.755-3.806 2.305-4.498 3.445-.693 1.139-1.908 2.072-2.701 2.072-.793 0-1.838.708-2.322 1.573-.484.866-1.969 2.128-3.3 2.806-1.399.713-2.295 1.946-2.125 2.926.163.939-.343 1.695-1.134 1.695-.784 0-1.663.902-1.951 2.004-.325 1.244-1.075 1.793-1.976 1.447-.799-.307-2.798.574-4.442 1.957-2.427 2.043-3.674 2.404-6.64 1.923-2.398-.389-3.651-.205-3.651.538 0 .622-.338 1.06-.75.972-1.905-.403-4.25 1.587-4.25 3.605 0 1.461-.943 2.663-2.728 3.476-2.539 1.157-2.598 1.316-.849 2.295 1.781.997 1.754 1.12-.522 2.382-1.494.828-1.834 1.355-.901 1.396 1.162.051 1.094.302-.302 1.114-1.286.748-2.205.715-3.207-.116-.772-.641-1.873-.875-2.447-.52-.574.355-1.044.113-1.044-.536 0-.881-.382-.865-1.5.063-1 .83-1.5.879-1.5.147 0-.756-.774-.803-2.488-.151-2.181.829-2.566.637-3.115-1.551-.61-2.431-.801-2.48-7.262-1.882-3.649.338-8.526 1.44-10.837 2.448C131.885 46.937 118 59.606 118 61.706c0 1.801 3.37 3.294 7.434 3.294 4.216 0 4.408.55 1.098 3.154-1.358 1.068-3.052 3.157-3.765 4.644-1.193 2.485-1.777 2.704-7.282 2.729-6.19.028-8.485.767-8.485 2.732 0 .822.336.805 1.2-.059 1.451-1.451 3.165-1.6 2.3-.2-.34.55-.086 1 .563 1 .881 0 .865.382-.063 1.5-1.876 2.261.417 1.802 2.5-.5.995-1.1 2.279-2 2.851-2 .573 0-.41 1.497-2.183 3.327l-3.224 3.326 2.492 1.136c1.561.711 2.715.776 3.087.173 1.18-1.909 1.981-.882 2.173 2.786.138 2.644-.447 4.446-2 6.155-1.78 1.959-1.864 2.298-.446 1.789 2.054-.739 2.344 1.33.634 4.525-.979 1.829-.887 1.997.75 1.364 4.695-1.815 11.459-2.888 12.384-1.963.629.629-1.23 1.42-5.273 2.244-9.093 1.852-13.245 3.831-11.769 5.609.959 1.156.21 1.822-4.153 3.693-12.464 5.345-13.346 6.08-13.11 10.931.125 2.576.845 4.84 1.75 5.501 2.117 1.549 1.937 2.087-.938 2.808-1.362.342-4.174 2.375-6.25 4.518-3.439 3.55-4.397 3.965-10.775 4.664-6.811.747-6.906.795-3.5 1.779 1.925.557 3.734 1.349 4.02 1.761.579.832 5.584 2.874 7.045 2.874.514 0 .935-.624.935-1.386 0-3.11 5.385-10.562 6.69-9.257.327.327.107 1.183-.49 1.902-.691.833-.748 1.841-.158 2.775.51.806.934 2.389.943 3.516.023 3.111 1.757 4.252 5.326 3.506 1.754-.367 4.987-.345 7.185.049 2.273.408 4.248.309 4.58-.228.321-.52 1.335-.656 2.254-.304.94.361 1.67.157 1.67-.466 0-.609-.45-1.107-1-1.107s-.888-.36-.75-.801c.717-2.295-2.708-8.188-4.439-7.639-.996.316-1.811.094-1.811-.493s-.675-1.067-1.5-1.067-1.5-.45-1.5-1 1.013-1.016 2.25-1.035c2.364-.038 8.162-2.868 6-2.93-1.798-.051-1.547-2.035.257-2.035.829 0 3.642-1.09 6.25-2.421 5.507-2.812 8.162-3.847 10.21-3.982.807-.054 1.932-.997 2.5-2.097.707-1.368 1.844-1.906 3.601-1.701 2.111.246 3.824-1.119 9.642-7.678 3.892-4.388 7.236-8.395 7.433-8.905.463-1.205 9.857-2.246 9.857-1.093 0 1.207 5.737 1.111 6.491-.109.863-1.396 3.928-.738 5.942 1.276 3.035 3.035 7.523 1.629 9.984-3.129 1.526-2.951.652-5.94-1.372-4.689-.654.404-1.729-.025-2.417-.966-2.425-3.316-16.186-1.577-31.506 3.983-5.026 1.825-6.079 1.468-3.444-1.167 1.015-1.015 1.702-2.585 1.528-3.49-.174-.905.158-1.939.739-2.298.58-.359 1.055-1.642 1.055-2.852 0-1.211.917-2.773 2.037-3.473 1.12-.699 2.469-2.41 2.998-3.801.529-1.39 1.412-2.25 1.963-1.909.551.34 1.002-.035 1.002-.834 0-1.197.703-1.274 4-.437 2.2.558 4 1.411 4 1.894 0 .483.678.878 1.507.878.828 0 2.484 1.125 3.68 2.5 2.614 3.006 6.03 3.194 9.76.537 3.44-2.449 10.117-3.983 18.317-4.209 5.378-.149 6.307-.443 6.307-2.001 0-1.005-.339-1.827-.754-1.827s-.512-.63-.217-1.4c.349-.909-.101-1.348-1.281-1.25-1.345.111-1.737-.437-1.506-2.1.24-1.727-.182-2.25-1.818-2.25-1.621 0-1.989-.444-1.54-1.859 1.079-3.4-.404-5.311-3.582-4.613-1.779.391-2.873.22-2.873-.449 0-.593.338-.976.75-.85 1.044.32 7.25-3.485 7.25-4.445 0-.431-.787-.794-1.75-.806-1.416-.018-1.274-.388.741-1.937 2.076-1.594 2.744-1.696 4-.608 1.59 1.377 4.009 1.052 4.009-.538 0-.516 1.138-2.658 2.529-4.759 2.299-3.475 2.56-7.136.508-7.136-.412 0-.701-3.197-.643-7.105l.106-7.105 7.749-2.493c4.261-1.371 7.497-2.899 7.191-3.395-.307-.496-.081-.902.501-.902S226 18.55 226 18s-.923-1-2.051-1c-1.935 0-1.894-.211.744-3.75 1.538-2.062 3.248-4.081 3.801-4.485.589-.43.364-.741-.544-.75-.853-.008-2.151.548-2.886 1.235-1.096 1.026-1.235.832-.773-1.079.421-1.743.204-2.191-.864-1.781-.785.301-1.427.111-1.427-.421 0-.533-1.173-.969-2.607-.969-1.948 0-2.456.393-2.01 1.555M15.781 31.103c-.934.522-1.465 1.557-1.18 2.3.323.842-.445 1.592-2.041 1.993-1.408.353-2.56 1.335-2.56 2.182s-.45 1.262-1 .922c-.55-.34-1-.115-1 .5s-.342.906-.761.648c-.419-.259-1.63.164-2.691.941-2.201 1.609-.837 1.852 2.747.489 3.111-1.183 3.086.934-.072 5.922-2.592 4.094-2.867 7-.664 7 .857 0 1.312-.399 1.011-.887-.301-.487.07-1.399.824-2.025 1.858-1.542 2.987 1.331 1.567 3.984-1.35 2.524.124 2.478 2.307-.072.942-1.1 2.355-2 3.14-2 .786 0 2.107-.261 2.937-.579 1.107-.425 1.375-.066 1.005 1.347-.377 1.445-1.135 1.805-3.035 1.441-2.216-.423-2.411-.248-1.559 1.404.536 1.038.772 2.45.525 3.138-.296.827.172 1.049 1.385.656 5.526-1.791 8.011-2.887 9.584-4.227 1.954-1.664 2.431-.261.55 1.62-.864.864-.881 1.2-.059 1.2.628 0 1.455-.508 1.838-1.128.475-.768.997-.594 1.634.543.6 1.074 1.622 1.455 2.853 1.064C36.959 58.243 40 57.987 40 58.894c0 .529 1.189.615 2.75.198 3.618-.968 3.523-3.437-.156-4.082-2.63-.461-2.748-.642-1.238-1.893 1.268-1.051 1.399-1.707.544-2.738-.863-1.039-.729-1.507.571-2.006 1.349-.518 1.423-.825.363-1.497-.955-.605-.687-.85.939-.861 2.195-.014 2.217.071.635 2.485-.909 1.388-1.168 2.5-.582 2.5.581 0 1.353-.481 1.716-1.068.363-.588 1.275-.832 2.027-.544 1.873.719 2.379-.394 2.871-6.307.26-3.138.022-5.081-.624-5.081-.581 0-.344-1.071.531-2.407 2.068-3.156-.207-4.308-4.386-2.223-2.651 1.322-2.835 1.267-3.408-1.017l-.606-2.414-3.278 2.5c-3.977 3.034-10.421 5.832-11.663 5.065-.498-.308-1.401.365-2.006 1.496-.605 1.131-1.601 1.747-2.213 1.369-.729-.451-.368-1.29 1.051-2.439C25.027 36.967 26 35.824 26 35.39c0-.435-.54-.25-1.2.41-2.679 2.679-2.962.979-.3-1.8 1.581-1.65 2.452-3.031 1.937-3.069-.515-.038-2.175-.232-3.687-.432-1.512-.199-2.75.112-2.75.692 0 .734-.382.737-1.261.008-.817-.679-1.857-.713-2.958-.096m79.993 30.86C94.35 63.083 92.709 64 92.127 64c-.581 0-1.553.927-2.16 2.061-.606 1.133-1.625 1.886-2.263 1.674-1.39-.464-4.121 2.036-5.055 4.626-.515 1.427-.3 1.719.921 1.25.877-.336 2.455-.611 3.509-.611 1.203 0 2.444-1.209 3.337-3.25.781-1.787 1.458-2.661 1.502-1.941.046.727.595.992 1.237.596.634-.393.889-.285.564.24-.324.525.33 1.529 1.454 2.231 1.674 1.046 1.965 1.038 1.605-.041-.654-1.963 1.907-4.111 3.703-3.106 1.989 1.114-9.28 12.499-12.675 12.805-1.268.114-2.194.716-2.056 1.337.137.621-.2 1.129-.75 1.129s-1 .45-1 1c0 1.667 6.211 1.119 8.251-.727 1.125-1.018 3.518-1.728 5.829-1.728 2.507 0 3.92-.458 3.92-1.272 0-.7.477-1.273 1.059-1.273s.798-.422.479-.939c-.319-.516.213-1.382 1.183-1.925.969-.542 1.422-1.326 1.006-1.743-.416-.416-2.213.615-3.992 2.292-3.503 3.3-7.735 4.907-7.735 2.937 0-.655 1.412-2.025 3.138-3.045 5.972-3.527 12.441-9.967 10.439-10.391-.816-.173-1.744-1.137-2.063-2.142-.319-1.006-1.353-2.051-2.297-2.323a37.3 37.3 0 0 1-3.285-1.145c-.903-.374-2.667.214-4.158 1.387m111.559 21.843c-2.292.932-4.496 2.023-4.898 2.426-.403.402-1.765.472-3.028.155-1.79-.449-2.278-.169-2.211 1.268.048 1.015-.03 2.295-.173 2.845-.619 2.383.186 3.317 3.376 3.915 1.869.351 4.582 1.569 6.029 2.707 3.236 2.546 5.849 1.849 5.064-1.35-.651-2.654 2.317-6.255 8.103-9.831 2.067-1.277 3.214-2.505 2.548-2.727-.665-.221-1.827.109-2.581.735-1.484 1.231-6.562.413-6.562-1.057 0-1.199-.78-1.073-5.667.914m88.852 126.956c-3.522.23-5.183.745-4.922 1.527.458 1.375 4.209 1.983 11.237 1.82 12.197-.281 16.581-.308 25.5-.156 8.471.145 18.473-1.093 19.834-2.453.719-.72-10.946-.956-28.334-.575-5.5.121-11.8.055-14-.145-2.2-.201-6.392-.209-9.315-.018M119.75 301.8c-4.219.22-5.75.686-5.75 1.75 0 .887-1.068 1.495-2.75 1.566-1.692.071-2.077.292-1 .573.963.252 1.75.875 1.75 1.384 0 .51.643.927 1.429.927.785 0 2.118.69 2.961 1.533 1.16 1.16 4.288 1.6 12.822 1.806 6.208.149 10.388.082 9.288-.149-1.1-.232-2.225-.707-2.5-1.056-.275-.349-2.75-2.434-5.5-4.634-4.701-3.761-5.344-3.982-10.75-3.7" fill="#d3d3d3" fill-rule="evenodd"/></svg>