<svg xmlns="http://www.w3.org/2000/svg" width="500" height="516"><path d="M0 22.5c0 20.384.597 25.597 2.396 20.91.336-.875.355-2.004.042-2.51-.312-.506.336-2.069 1.441-3.473 1.105-1.405 1.761-3.201 1.458-3.991-.33-.861.059-1.436.973-1.436.838 0 1.75.563 2.028 1.25.277.688.54-.411.583-2.441.043-2.03.498-3.95 1.01-4.266.867-.536.827-1.343-.365-7.293-.573-2.86 2.035-3.082 2.934-.25.349 1.1 1.462 2 2.474 2 1.348 0 1.699.535 1.314 2.005-.288 1.103.043 2.689.736 3.524 1.561 1.88.52 3.167-1.324 1.637-.997-.828-1.653-.813-2.524.058-1.679 1.679-1.454 2.774.574 2.791 1.08.01 1.329.297.649.75-1.746 1.165-2.448 6.468-.771 5.824.754-.289 1.372-.09 1.372.442 0 .533-.637.969-1.417.969-.779 0-1.589.519-1.8 1.152-.212.634-1.487 1.272-2.834 1.417-1.347.145-2.787.302-3.199.348-.412.045-.75.491-.75.989 0 .499.857.683 1.904.409 1.298-.34 2.107.144 2.544 1.521.352 1.11 2.222 2.952 4.155 4.092 1.933 1.141 3.234 2.527 2.891 3.081-.342.554.419 1.426 1.692 1.936 1.273.511 1.726.957 1.007.992-2.254.109 1.887 5.895 4.996 6.979 1.936.675 2.608 1.449 2.194 2.528-.358.934-.055 1.562.76 1.571 1.047.012 1.014.237-.143.985-1.207.78-1.049.972.809.985 1.431.009 2.049.436 1.625 1.122-.469.758.065.882 1.691.393 3.445-1.036 4.917-2.754 5.829-6.798.997-4.421.11-5.042-7.954-5.569-2.036-.133-2.222-.354-1-1.192 1.283-.88 1.175-1.257-.75-2.607-1.285-.901-2.25-2.622-2.25-4.013 0-2.26-.148-2.331-2.065-.988-1.135.795-2.973 1.208-4.084.918-1.189-.311-1.577-.802-.943-1.194.723-.447.428-1.936-.901-4.543-2.153-4.224-1.864-6.028.472-2.941 1.4 1.851 1.459 1.827 1.489-.623.018-1.402.56-3.078 1.206-3.724.899-.899.561-1.743-1.442-3.599-2.515-2.331-2.537-2.445-.578-2.957 2.483-.649 5.04.207 4.281 1.435-.304.492.261.902 1.256.91 1.422.012 1.513.203.427.891-1.085.687-.92 1.022.764 1.557 1.181.374 1.887 1.102 1.569 1.616-.318.514.126 1.205.986 1.535.859.33 1.563 1.42 1.563 2.422 0 1.001.675 2.496 1.5 3.321.825.825 1.493 2.095 1.485 2.822-.013 1.068-.18 1.061-.875-.036-.523-.824-1.101-.967-1.474-.363-.338.546.02 1.519.794 2.162 1.107.919 1.631.783 2.449-.637C34.61 44.301 43.616 54.3 43.187 58.75c-.194 2.013-.86 3.25-1.75 3.25-1.761 0-1.907 1.677-.196 2.247.887.296.732.923-.542 2.197-1.181 1.181-1.63 2.758-1.328 4.67.25 1.587.044 2.886-.458 2.886S38 74.675 38 75.5c0 1.92.236 1.898 5.555-.525 4.904-2.234 5.82-3.358 1.945-2.386-1.791.45-2.5.224-2.5-.798 0-1.008.997-1.348 3.399-1.159 3.562.28 5.46-2.114 5.858-7.388.087-1.158.58-1.845 1.096-1.526.536.331.72-.554.431-2.069-.347-1.816-.079-2.649.855-2.649.748 0 1.361-.675 1.361-1.5s.45-1.5 1-1.5c1.524 0 1.192-2.951-.526-4.669-.839-.839-2.123-1.296-2.853-1.016s-2.035-.318-2.9-1.328c-1.065-1.244-2.326-1.644-3.898-1.239-2.074.535-2.176.42-.951-1.075.851-1.036.958-1.673.282-1.673-.6 0-.832-.675-.516-1.5.317-.825.078-1.5-.531-1.5s-1.121-1.237-1.137-2.75c-.026-2.351-.179-2.496-1.05-1-1.442 2.476-3.104 2.172-2.733-.5.271-1.946-.194-2.292-3.437-2.56-2.062-.171-3.75-.809-3.75-1.417s-.282-.824-.627-.479C31.667 32 23 26.321 23 25.152c0-.414.511-1.263 1.136-1.888.847-.847.72-1.55-.5-2.771-.9-.9-1.636-1.863-1.636-2.14 0-.548 6.015-.204 7.277.417.428.21 3.647.535 7.154.721l6.375.339.373-3.915c.316-3.31.08-3.915-1.525-3.915-1.575 0-1.686-.256-.654-1.5.685-.825.904-1.5.488-1.5-.417 0 .357-.877 1.719-1.948 1.515-1.192 3.305-1.731 4.613-1.389 2.077.543 2.093.471.586-2.552L46.854 0H0v22.5m62.31 7.992c-.654.712-.981 1.504-.726 1.759.256.255-.222 1.033-1.06 1.729C59.686 34.676 59 36 59 36.922c0 .923-.501 2.179-1.113 2.791-1.421 1.421-.131 3.594 1.714 2.887.853-.328 1.426.134 1.469 1.181.06 1.465.182 1.435.825-.208.654-1.669.838-1.711 1.374-.314.34.886.081 1.83-.575 2.097-.908.37-.902.505.025.565.67.043.977.708.681 1.478-.295.769-.056 1.696.532 2.059.587.363 1.068 1.533 1.068 2.601S65.675 54 66.5 54s1.387-.562 1.25-1.25c-.138-.687.425-1.25 1.25-1.25s1.831-.45 2.235-1c.455-.619.74-.524.75.25.008.688.421 1.25.917 1.25C74.107 52 76 46.409 76 42.851c0-2.184.468-2.851 2-2.851 1.111 0 2-.667 2-1.5 0-.825.563-1.502 1.25-1.505 1.865-.008-6.477-4.927-8.417-4.964-.916-.017-1.821.433-2.01 1-.474 1.423-6.61-.773-7.015-2.51-.252-1.083-.525-1.088-1.498-.029M158 88.947c0 .359-1.557.653-3.459.653-2.388 0-4.092.729-5.5 2.353-1.123 1.294-2.055 1.947-2.071 1.45-.017-.497-.489-.116-1.05.847-1.618 2.777-2.642 2.046-2.453-1.75.096-1.925-.195-3.5-.646-3.5-.452 0-.821.675-.821 1.5s-.414 1.5-.92 1.5c-.505 0-1.676 2.362-2.601 5.25-3.203 10.003-5.291 13.462-8.511 14.106-2.177.436-2.968 1.162-2.968 2.726 0 1.442-.465 1.954-1.435 1.581-.79-.303-1.585-.102-1.768.447-.221.661-1.17.663-2.815.007l-2.482-.99 2.785-.064c2.581-.058 2.695-.228 1.557-2.313-.676-1.237-1.255-3.15-1.286-4.25-.031-1.1-.618-1.888-1.306-1.75-.687.137-1.25-.2-1.25-.75 0-2.03-3.884-.91-7.027 2.025-2.168 2.025-3.856 2.829-5.106 2.433-1.175-.373-1.873-.104-1.882.725-.012.97-.264.924-.959-.175-1.231-1.947-3.241-.091-3.606 3.33-.291 2.727 2.627 4.601 6.28 4.032 1.209-.188 2.473.1 2.807.641.373.605-1.591.931-5.115.85-4.252-.098-6.028.288-6.917 1.504-.657.899-1.708 1.635-2.335 1.635s-1.14.891-1.14 1.981c0 1.279-.886 2.203-2.5 2.608-1.375.345-2.5.999-2.5 1.452 0 .453-.907 1.112-2.015 1.464-1.108.351-1.749 1.068-1.425 1.592.324.524.218.888-.236.809-2.215-.384-2.519.236-.765 1.562 1.449 1.096.69 2.376-.809 1.363-.138-.093-1.375.448-2.75 1.202-2.755 1.511-3.551 1.779-6.5 2.189-1.1.153-2.331.728-2.735 1.278-.454.618-.74.519-.75-.258-.012-1.012-.412-1.012-2.037 0-1.999 1.244-1.996 1.265.25 1.908 1.931.553 1.793.666-.919.75-1.755.055-3.474.557-3.819 1.116-.346.559-1.097.727-1.671.372-.573-.354-1.33-.206-1.681.33-.997 1.522-6.138 2.517-6.138 1.188 0-1.283-9.142-.284-10 1.092-.275.441-2.223 1.075-4.329 1.409-6.107.968-12.671 5.41-12.671 8.573 0 .891-.374 2.048-.831 2.57-.741.846-3.169 8.312-3.169 9.743 0 .308.787.766 1.75 1.018 1.495.39 1.511.474.111.573-1.042.074-1.876 1.384-2.292 3.598-.608 3.243-.804 3.398-2.85 2.25-2.368-1.328-5.719-4.646-5.719-5.663 0-.343.891-1.388 1.98-2.32 1.508-1.291 1.846-2.478 1.416-4.972-.454-2.637-.334-2.984.614-1.777.98 1.248 1.054 1.163.44-.5-.407-1.1-.672-2.675-.589-3.5.683-6.829.601-16.273-.174-19.958-.666-3.165-.611-4.567.188-4.834 1.439-.479 1.44-3.423.002-6.578C17.56 123.74 9 122.832 9 125.583c0 1.705-1.186 1.831-2.727.29-.636-.636-2.246-.846-3.7-.481L0 126.038v47l2.75-.66c1.513-.362 2.916-.8 3.119-.971 1.136-.959 3.237 2.76 2.239 3.963-.6.723-.795 1.61-.433 1.972.64.64-1.901 1.06-4.425.733-.687-.09-1.25.334-1.25.94 0 .607-.45.825-1 .485-.65-.402-1 4.8-1 14.873v15.491L2.999 212c4.499 3.203 9.426.825 5.801-2.8-.933-.933-.92-1.2.059-1.2.692 0 1.055-.338.805-.75-.25-.412.174-1.33.941-2.039 1.15-1.063 1.395-1.007 1.395.321 0 1.349.238 1.396 1.465.289 3.34-3.011 4.504-3.821 5.493-3.821.573 0 1.042-.398 1.042-.883 0-.486.925-1.126 2.055-1.421 2.311-.604 8.945 4.53 8.945 6.922 0 2.067 5.999 5.445 7.921 4.461.869-.445 2.142-.607 2.829-.361.688.247 1.25-.135 1.25-.849 0-.968.385-.913 1.515.217 1.059 1.06 1.319 2.496.862 4.777-.46 2.303-.964 2.95-1.715 2.2-1.663-1.664-2.584-1.253-2.157.964.262 1.358-.004 1.8-.807 1.339-.659-.377-.863-.317-.454.134s-.184 1.47-1.318 2.264c-1.133.794-1.836 2.027-1.562 2.741.28.731-.403 1.533-1.563 1.837-1.514.396-1.871 1.019-1.346 2.348.393.996.921 4.06 1.174 6.81.253 2.75.921 7.009 1.484 9.464.88 3.837.779 4.642-.722 5.739-1.571 1.149-1.42 1.341 1.51 1.927 2.15.43 3.56 1.452 4.152 3.011.781 2.052 2.55 2.895 5.197 2.477.413-.065.75 1.205.75 2.823 0 1.618.508 3.255 1.13 3.639.686.424.946.153.662-.691-.641-1.903 2.116-3.819 5.552-3.857 2.044-.023 2.994.546 3.381 2.025.33 1.262 1.086 1.846 1.959 1.511 1.796-.69 6.316 2.206 6.316 4.047 0 1.98 1.752 1.713 2.395-.365.298-.962.36-.062.136 2-.386 3.574-.268 3.75 2.532 3.75 2.609 0 2.937.341 2.937 3.059 0 1.682.382 2.823.849 2.534.467-.289 1.414.531 2.105 1.82.826 1.545 1.879 2.182 3.086 1.866 3.569-.933 5.032 1.925 2.287 4.469-1.337 1.239-2.969 2.305-3.629 2.37-8.331.819-10.871 1.253-12.218 2.085-.541.335-3.373.529-6.294.432-2.92-.097-5.844.163-6.497.579-.808.513-.65.76.494.771.925.008 1.987.974 2.359 2.147.532 1.675.864 1.836 1.552.75.69-1.09.879-1.004.891.406.013 1.573.919 1.767 7.545 1.613 7.067-.164 12.219.927 5.887 1.246-1.604.081-.217.452 3.083.825 6.372.719 8.838.384 7.935-1.077-.304-.492-.114-.895.423-.895.536 0 1.147.516 1.357 1.146.45 1.35 12.164-3.575 15.275-6.421 1.309-1.197 2.805-1.617 4.367-1.225 1.307.328 3.786.871 5.51 1.206 1.723.334 3.408 1.026 3.745 1.536.373.567 2.028.537 4.25-.076 2.947-.814 3.638-.735 3.638.415 0 2.146 1.776 1.699 2.517-.634.506-1.595.953-1.801 2.008-.927.746.62 1.142 1.685.879 2.368-.262.684-.063 2.338.441 3.677.789 2.093 1.025 1.598 1.678-3.522.442-3.472.352-7.036-.217-8.544-.537-1.423-.632-3.467-.212-4.543.421-1.076.797-4.898.836-8.493.061-5.719.312-6.556 2.003-6.683 1.064-.08 2.469.499 3.123 1.287.654.788 1.809 1.433 2.566 1.433.758 0 1.378.4 1.378.889 0 .488 1.599 1.188 3.553 1.555 1.953.366 3.802 1.317 4.107 2.111.725 1.892 2.007 1.857 2.007-.055 0-.825-.375-1.5-.834-1.5-.458 0-.833-.81-.833-1.8s-.54-2.34-1.2-3c-1.385-1.385.84-1.726 2.835-.435 1.361.881 2.263 10.235.987 10.235-.49 0 .359.984 1.888 2.186 2.567 2.02 2.634 2.243.884 2.93-1.33.522-1.447.774-.394.847 1.949.135 6 3.523 6 5.019 0 .707.614.547 1.571-.411.865-.864 2.599-1.571 3.855-1.571 1.303 0 3.319-1.25 4.694-2.909 1.513-1.826 3.335-2.893 4.895-2.865 1.367.023 3.957-.57 5.756-1.319 2.566-1.068 3.683-1.104 5.179-.17 1.482.925 2.023.92 2.426-.023.285-.668.258.707-.06 3.055-.466 3.442-.301 4.162.851 3.72 1.932-.741 5.446 3.222 6.661 7.511l.992 3.5.195-3.5.195-3.5 1.318 4c1.209 3.669 1.325 3.764 1.395 1.145l.077-2.855 2.43 2.339c1.474 1.418 2.02 2.593 1.387 2.984-.676.418-.594.795.232 1.07 1.475.492 2.226 3.817.863 3.817-.502 0-.905 1.238-.897 2.75.009 1.512.346 2.267.75 1.677.404-.59 1.522-1.363 2.485-1.719.963-.355 1.75-1.504 1.75-2.554 0-2.46 2.523-4.57 4.206-3.518 1.912 1.193 3.711 1.307 4.349.275.31-.501-.278-.911-1.305-.911s-2.741-.712-3.809-1.582c-1.998-1.628-1.329-1.587 3.059.189.825.334 1.5.157 1.5-.393 0-1.334 2.644-2.288 4.437-1.6a1.534 1.534 0 0 1 .893 1.969c-.76 1.981.682 1.77 2.278-.333 1.077-1.419 1.337-1.467 1.376-.25.041 1.333.153 1.333 1.001 0 .789-1.24 1.306-1.282 2.984-.242 1.593.988 2.031.994 2.031.028 0-.677.719-.205 1.597 1.05 1.509 2.153 1.67 2.181 2.902.497.967-1.324 2.925-1.852 7.587-2.048 3.455-.145 6.549-.695 6.875-1.221.36-.583 1.166-.604 2.057-.053.806.498 2.487.649 3.737.336 1.249-.314 2.94-.015 3.758.664 1.082.898 1.487.919 1.487.076 0-.86.531-.873 2.065-.052 1.643.879 1.824 1.394.886 2.524-.648.78-1.581 1.17-2.073.865-1.215-.75-4.878.483-4.878 1.643 0 .513 1.318.933 2.929.933 1.61 0 3.716.788 4.678 1.75.963.962 1.895 1.637 2.072 1.5 1.024-.797 2.273.024 2.863 1.882.47 1.48.908 1.758 1.433.908.528-.853 1.328-.932 2.641-.258 9.266 4.751 10.777 5.173 12.606 3.517 1.653-1.496 1.778-1.454 1.778.605 0 1.419.415 1.958 1.155 1.501.689-.426.884-.276.483.371-1.016 1.645.973 2.397 2.255.853 1.812-2.183 6.107-.827 6.107 1.929 0 1.278.42 2.583.933 2.9.513.317.893 1.962.845 3.655-.079 2.783.733 3.943 3.722 5.313.55.252.213.956-.75 1.566-2.523 1.597-2.151 3.869.753 4.598 4.402 1.105 7.497 5.891 7.497 11.594 0 4.406.217 4.938 1.75 4.29 2.323-.983 7.473-.651 8.684.56.531.531 2.338.914 4.016.85 2.028-.077 2.403-.281 1.121-.608-5.98-1.524-6.77-8.174-1.071-9.012 1.1-.162 5.6-2.008 10-4.103 7.92-3.771 8.05-3.795 13-2.441 2.75.752 6.913 1.364 9.25 1.36 2.337-.004 4.25.459 4.25 1.028 0 2.7 3.009 4.014 7.741 3.38 6.497-.87 8.005-1.409 6.519-2.327-.814-.503-.024-2.068 2.528-5.005 3.134-3.608 4.411-4.34 8.206-4.704 6.532-.627 8.133.083 6.986 3.101-1.108 2.914-.197 8.441 1.395 8.462.619.009.45.452-.375.985-2.28 1.473.411 1.187 3.396-.361 1.443-.749 3.632-1.223 4.864-1.053 9.091 1.255 14.168 2.606 16.407 4.367 3.912 3.077 8.185 1.984 5.394-1.38-1.551-1.868.035-2.283 8.149-2.131 3.69.07 6.165-.22 5.5-.643-.83-.527-.661-.773.54-.784.962-.008 1.75.451 1.75 1.02 0 .711.601.713 1.919.008 1.352-.723 2.029-.698 2.291.086.204.613 2.378 1.176 4.83 1.253 2.453.076 4.91.394 5.46.705.55.311 3.025.703 5.5.871 2.475.167 5.4.371 6.5.453 1.1.081 2.45.394 3 .694.55.301 2.575.634 4.5.742 1.925.107 4.015.881 4.644 1.72 1.631 2.174 8.31 3.116 9.441 1.33.715-1.13.887-1.074.9.294.008.93.541 2.016 1.185 2.414.774.479.965.188.563-.858-.349-.91.003-1.815.83-2.133.79-.303 1.437-.089 1.437.476 0 .566.472.736 1.049.38.68-.421.709-1.056.082-1.812-.641-.773-.451-1.835.566-3.161 1.059-1.379 1.677-1.61 2.001-.747 1.44 3.842 2.099-.391 2.141-13.75.031-9.859-.314-15-1.006-15-.679 0-.793-1.33-.322-3.75.402-2.062.789-9.6.86-16.75l.129-13-5.25-.346c-5.875-.388-8.455-.353-19.25.264-12.241.699-17.238 1.353-17.888 2.341-.915 1.393-8.112 2.33-8.112 1.056 0-.668-.551-.603-1.488.175-2.135 1.772-2.925-.858-2.17-7.229.753-6.359 1.234-6.644 10.841-6.433 4.3.095 7.818-.165 7.818-.578-.001-.876-3.743-1.194-9.794-.833-4.177.25-7.699-1.312-6.68-2.961.278-.45.048-1.1-.511-1.446-.559-.345-1.016-1.579-1.016-2.74 0-3.729-2.66-5.625-7.061-5.035-2.512.337-3.939.131-3.939-.568 0-.603-.966-1.614-2.146-2.245-1.903-1.019-2.087-.922-1.623.854 1.003 3.834-1.462 5.13-7.731 4.064-1.543-.262-2.072.289-2.316 2.41-.231 2.002.125 2.75 1.309 2.75.953 0 1.336.467.927 1.13-.424.686-.153.947.691.664.764-.257 1.39-1.321 1.391-2.367.001-1.094.836-2.061 1.968-2.279 1.657-.319 1.768-.14.706 1.139-.927 1.118-.954 1.62-.103 1.904.635.212 1.29 1.611 1.454 3.108.359 3.271-2.143 5.055-4.913 3.505-2.284-1.279-5.584 1.678-7.194 6.446-1.184 3.502-4.917 5.201-7.343 3.341-1.165-.893-1.313-.66-.812 1.282.585 2.269.432 2.35-3.47 1.826-4.433-.594-6.302-2.384-4.613-4.418.587-.707.789-2.674.45-4.371-.339-1.696-.111-5.092.507-7.546l1.123-4.462 1.788 2.94c2.324 3.822 3.705 4.606 5.494 3.122 2.339-1.941 1.703-3.619-2.044-5.397-1.925-.913-3.5-2.011-3.5-2.44 0-1.29 4.323-4.927 7.113-5.984 3.732-1.413 4.086-4.232.999-7.962-3.048-3.684-5.376-3.049-5.337 1.455.026 3.014-4.107 8.364-6.462 8.364-.722 0-1.313.91-1.313 2.021 0 2.636-5.083 5.229-5.834 2.977-.271-.813-1.769-2.755-3.329-4.315-1.561-1.56-2.837-3.279-2.837-3.819s-.45-.704-1-.364c-.55.34-1-.276-1-1.368 0-1.093-1.11-2.86-2.466-3.927-2.513-1.976-2.475-3.503.064-2.529 3.563 1.367-2.252-8.264-7.077-11.722-2.212-1.584-4.565-3.347-5.229-3.917-1.614-1.385-2.415-1.308-2.217.213.33 2.543-.103 3.851-1.075 3.25-.55-.34-1-.124-1 .48 0 .707-.499.639-1.401-.191-.771-.709-.996-1.439-.5-1.622.495-.184.901-.773.901-1.309 0-.537-.423-.715-.94-.395-.517.319-2.429-.327-4.25-1.437-4.63-2.823-7.271-2.756-5.719.145.951 1.777.858 2.393-.517 3.399-1.293.945-1.38 1.366-.377 1.829 1.339.618-.215 1.937-1.887 1.603-1.416-.283-4.371 10.22-3.254 11.566.576.693.647 1.497.159 1.799-.485.3-.68 1.915-.435 3.589.341 2.319.063 3.044-1.167 3.044-2.249 0-2.016 2.267.387 3.768 2.306 1.44 2.724 3.724.527 2.881-.835-.321-2.088.314-2.895 1.466-.896 1.279-1.67 1.633-2.088.956-1.129-1.826-4.743.726-4.063 2.868.762 2.401-3.644 3.336-6.452 1.369-1.885-1.32-1.91-1.56-.404-3.858.988-1.509 1.177-2.45.49-2.45-.613 0-1.062-.337-.997-.75.312-1.975-.246-2.599-1.118-1.25-.776 1.2-.972 1.026-.985-.872-.011-1.825-.313-2.125-1.306-1.301-.959.795-1.605.57-2.509-.878-.964-1.544-.956-1.952.042-1.964.939-.012.915-.233-.095-.873-1.046-.663-1.1-1.332-.237-2.944.614-1.148 1.037-2.443.939-2.877-.097-.435.096-1.916.429-3.291.334-1.375.88-4.2 1.215-6.278.334-2.078.979-3.548 1.433-3.268.453.28.841-.495.861-1.722.114-6.786 7.733-15.432 13.713-15.56 1.1-.024 3.174-.338 4.61-.697 2.129-.534 2.715-.253 3.18 1.525.432 1.653 1.061 2.024 2.602 1.534 1.118-.355 2.985-.135 4.148.488 1.164.622 2.869.803 3.788.402 2.523-1.102 4.542-1.046 5.831.163 1.656 1.554 16.341-1.774 16.341-3.704 0-2.193 1.908-.578 2.5 2.117.362 1.65 1.059 3 1.548 3 .489 0 .652-.617.363-1.371-.289-.754.239-1.665 1.175-2.023 1.967-.755 3.361.167 1.812 1.198-1.46.973-2.534 4.196-1.398 4.196.515 0 .671.693.346 1.541-.376.979-.093 1.435.778 1.25 1.771-.376 3.794-2.877 3.877-4.791.183-4.199 8.432-8.642 9.736-5.244.318.83.124 2.237-.431 3.126-1.11 1.779-.289 5.275 1.233 5.251.529-.008 1.254-1.054 1.611-2.324.589-2.089.668-2.023.829.691.099 1.65.407 2.435.685 1.744.279-.691.904-1.011 1.389-.711.485.299 1.455-.373 2.155-1.494.7-1.122 1.93-2.039 2.733-2.039 1.135 0 1.192-.267.259-1.2-1.802-1.802-1.448-2.678.841-2.079 1.122.293 1.871 1.039 1.663 1.656-.35 1.039 4.282 3.623 6.494 3.623 1.362 0 .39-2.473-1.031-2.625a139.68 139.68 0 0 0-2.667-.25c-3.438-.286-1.167-2.125 2.625-2.125 4.05 0 4.114.055 3.525 3-.557 2.785-.391 3 2.316 3 1.604 0 3.136.356 3.405.792.589.952 15.396.704 17.879-.299 1.131-.457 1.75-.248 1.75.591 0 .772.595.512 1.468-.643.808-1.067 1.483-1.418 1.5-.778.024.877.769.885 3.032.031 3.548-1.339 3.987-2.605.685-1.974-2.055.393-2.308.068-2.25-2.889.036-1.832.437-3.189.891-3.015.454.173 1.604-.582 2.556-1.679 1.127-1.3 2.201-1.704 3.083-1.159.745.461 1.957.605 2.694.322.991-.38 1.353.623 1.386 3.843.043 4.126.109 4.225 1.25 1.857 1.213-2.516 3.705-3.861 3.705-2 0 .55.45 1 1 1s1-.975 1-2.167c0-5.334 1.099-.366 1.336 6.036.313 8.469 1.501 10.296 4.561 7.012 1.828-1.963 1.915-2.407.616-3.134-1.866-1.044-2.047-6.747-.213-6.747.715 0 1.759.459 2.32 1.02.694.694 1.452.214 2.369-1.5.742-1.386 1.749-2.52 2.239-2.52.49 0 .628-.423.309-.94-1.358-2.198 4.616-5.653 8.974-5.19 3.239.345 3.583-5.311 3.27-53.715-.171-26.41-.579-48.286-.907-48.614-.328-.328-1.839-.125-3.357.453-1.988.756-3.146.729-4.139-.095-.758-.629-1.378-.764-1.378-.299s-.779-.268-1.732-1.627c-.952-1.36-1.587-2.658-1.41-2.883.798-1.019-3.769-2.456-8.819-2.774-3.046-.192-6.664-.428-8.039-.525-1.375-.096-3.85.024-5.5.267-2.865.422-3.015.263-3.325-3.545-.417-5.128-1.442-6.269-5.429-6.044-1.785.101-3.804-.24-4.487-.758-1.068-.809-3.468-.631-11.759.877-.55.1-1.562.233-2.25.297-.687.063-1.25.714-1.25 1.446s-1.238 1.969-2.75 2.748c-1.512.78-3.005 1.761-3.316 2.181-.312.42-2.087.234-3.945-.414-2.581-.899-3.471-.901-3.769-.005-.215.644-.754.947-1.199.672-.444-.275-2.706.17-5.025.988-4.119 1.454-4.262 1.43-6.179-1.006-1.079-1.372-2.815-2.495-3.858-2.495-1.275 0-1.708-.492-1.321-1.5.436-1.135-.18-1.5-2.531-1.5-1.709 0-3.107.45-3.107 1s-2.363 1.032-5.25 1.07c-3.856.052-4.719.299-3.25.93 1.772.762 1.687.867-.75.93-1.974.05-2.754-.424-2.765-1.68-.01-1.079-.297-1.328-.75-.65-1.133 1.696-3.464 2.169-6.485 1.316-2.215-.625-2.753-.449-2.765.904-.012 1.295-.208 1.376-.857.353-.68-1.073-1.969-1.108-6.735-.181-13.421 2.612-14.369 2.54-17.828-1.348-2.84-3.192-3.686-3.546-8.99-3.761-4.705-.19-5.948-.595-6.331-2.06-1.043-3.988-7.538 1.053-6.734 5.227.206 1.072-.049 1.95-.567 1.95-.519 0-.943-.45-.943-1s-.927-1-2.059-1c-1.302 0-1.797.425-1.346 1.155.426.689.276.884-.371.483a1.28 1.28 0 0 0-1.756.414c-.369.596-1.255.86-1.971.585-1.458-.559-2.79 2.663-2.526 6.113.135 1.767-.38 2.277-2.399 2.375-1.415.069-3.134.196-3.822.283-.687.088-1.581-.306-1.985-.875-.447-.628-.743-.446-.757.467-.037 2.35-4.333 3.932-6.919 2.547-1.184-.633-1.838-1.465-1.454-1.849.384-.384.211-.698-.385-.698s-1.31.563-1.588 1.25c-.301.747-.536.545-.583-.5-.085-1.877-5.079-2.615-5.079-.75 0 1.606-2.728 1.15-3.387-.565-.469-1.224-.137-1.419 1.519-.893 1.424.452 1.894.31 1.434-.435-.852-1.379-4.939-1.436-7.58-.107-1.092.55-2.843 1.427-3.891 1.949-1.744.869-7.624-.413-9.095-1.982-.699-.746-2.694-.607-3.548.248-.393.393-1.514.287-2.491-.236-1.454-.778-1.964-.41-2.816 2.035-1.171 3.359-2.822 3.81-4.673 1.279-.687-.939-2.761-2.255-4.61-2.924-2.695-.975-2.914-1.232-1.104-1.293 1.98-.067 2.109-.316 1.049-2.013-2.039-3.266-4.55-3.705-13.663-2.387-8.655 1.251-16.852 4.4-17.785 6.832-.274.712-1.254 1.558-2.178 1.879-.925.322-3.031 1.417-4.681 2.433-4.834 2.978-8.431 3.548-9.174 1.455-.346-.976-1.306-2.562-2.133-3.525-.827-.963-1.19-1.75-.808-1.75.383 0-.462-1.237-1.877-2.75-1.907-2.038-2.414-3.396-1.959-5.248.337-1.374.276-2.16-.137-1.748-.412.413-1.496.075-2.408-.75-.911-.825-3.648-1.717-6.081-1.982-2.433-.264-6.223-.968-8.423-1.563s-4.543-1.129-5.206-1.187c-.663-.058-1.006-.429-.761-.825.607-.982-3.207-1.895-5.815-1.393-1.168.225-2.369.03-2.67-.433-.656-1.008-11.048-2.113-11.048-1.174m6.568 43.259c-.862 1.231-1.568 3.489-1.568 5.017 0 1.876-.518 2.777-1.596 2.777-.877 0-2.966.787-4.642 1.75-2.294 1.318-3.156 1.441-3.488.5-1.107-3.14-1.767-.608-1.695 6.501.054 5.309.762 9.609 2.25 13.656 1.194 3.248 2.171 6.704 2.171 7.678 0 .975.678 2.451 1.508 3.28 2.03 2.03.738 2.652-6.479 3.117-3.304.213-6.461.667-7.015 1.009-.553.342-1.796.79-2.76.994-8.099 1.716-40.251 16.369-43.879 19.997-.835.835-2.498 1.52-3.696 1.523-1.199.002-3.529 1.26-5.179 2.796-3.836 3.57-12.043 9.199-13.411 9.199-.578 0-1.348 1.238-1.711 2.75-.786 3.274-6.365 11.28-6.408 9.197-.02-.955-.415-.767-1.162.553-.622 1.1-1.787 2.39-2.589 2.867-.926.55-1.079 1.102-.419 1.509.686.424.382 2.511-.892 6.13-1.063 3.018-1.744 5.98-1.513 6.581.231.602.035 1.718-.436 2.48-.662 1.07-1.06.835-1.751-1.034l-.895-2.418-.675 2.693c-.395 1.572-1.396 2.725-2.407 2.771-1.146.052-1.287.257-.416.605.723.289 1.724 1.604 2.225 2.921.501 1.317 1.597 2.395 2.435 2.395.839 0 1.413.563 1.275 1.25-.15.75.55 1.112 1.75.905 2.951-.509 3.047-.946.66-3.016-2.021-1.753-2.917-4.139-1.554-4.139.333 0 1.469 1.097 2.524 2.438 2.021 2.569 5.508 2.735 7.031.335.642-1.011.812-1.014.824-.015.012.982.429 1 1.897.083 1.496-.934 1.716-1.756 1.07-4.008-.455-1.586-.423-2.833.071-2.833 1.129 0 2.964-6.556 2.971-10.614C77 229 78.212 227.967 91 220.445c3.575-2.102 6.725-4.12 7-4.484.275-.364 1.035-.841 1.69-1.061.654-.22 2.247-1.974 3.539-3.899 1.974-2.941 3.779-3.987 11.31-6.558 4.929-1.682 10.536-3.629 12.461-4.328 4.946-1.793 12.621-2.269 12.852-.796 1.045 6.64.773 25.175-.402 27.441-1.599 3.08-1.151 4.067 1.026 2.26 1.729-1.435 1.95-.802.609 1.744-.503.955-1.904 6.011-3.113 11.236-1.208 5.225-2.832 10.512-3.608 11.75-.853 1.361-.992 2.25-.352 2.25.737 0 .744.588.023 1.934-.569 1.064-.999 2.977-.956 4.25.043 1.274.306 1.754.583 1.066.748-1.852 3.038-1.516 4.57.671 1.091 1.557 3.037 2.035 10.306 2.53 20.368 1.385 26.011.819 27.451-2.756.486-1.207.913-1.675.948-1.039.036.656.929.93 2.063.634 1.1-.288 2-.061 2 .505 0 1.558 3.102.774 4.118-1.041 1.243-2.221-.633-6.877-2.485-6.167-2.141.822-2.675-.851-1.561-4.886.612-2.215 1.479-3.427 2.244-3.133.905.347 1.264-1.168 1.314-5.545.038-3.313-.314-6.023-.781-6.023s-.849-.702-.849-1.559.413-1.304.919-.991c.939.58 2.646-4.942 2.226-7.2-.128-.687.189-1.25.704-1.25 1.638 0 3.513-8.685 3.399-15.743-.019-1.234.37-1.993.865-1.687.496.306 1.19-.259 1.543-1.257 1.322-3.733 4.623-6.313 8.077-6.313 2.002 0 3.133.409 2.767 1-.34.55-.168 1 .382 1s1.26-.42 1.577-.933c.772-1.25 9.545 1.779 10.216 3.528.285.744-.148 2.02-.963 2.835-1.309 1.31-1.688 1.254-3.252-.474-.973-1.076-2.263-1.952-2.865-1.947-.602.004.48 1.495 2.405 3.312 4.203 3.967 10.324 7.208 10.817 5.728.236-.709.955-.706 2.292.009 2.057 1.101 1.568 3.416-.551 2.603-.682-.262-1.874-.074-2.649.416-1.398.885-.062 1.447 2.415 1.017.454-.079.497.387.096 1.036-.431.697-.3.914.321.53.577-.357 1.307.024 1.623.846.315.822 1.439 1.494 2.498 1.494 2.11 0 3.138 1.839 3.138 5.617 0 2.302 2.557 7.612 11.334 23.534 4.148 7.525 4.237 7.849 2.166 7.849-2.139 0-1.864 1.266.999 4.594 1.374 1.599 2.499 3.243 2.5 3.656 0 .413.646.75 1.434.75.788 0 1.7.788 2.026 1.75.327.962 1.257 2.624 2.068 3.691 1.412 1.861 1.528 1.867 2.791.139 1.14-1.559 1.511-1.61 2.75-.379.787.782 2.894 2.067 4.682 2.855 3.028 1.334 4.645 4.944 2.215 4.944-.702 0-.691.644.035 2 .767 1.434.76 2-.024 2-.602 0-.805.468-.451 1.041.786 1.271 4.192.295 7.223-2.071l2.248-1.754-2.748-.723c-2.503-.658-2.57-.789-.748-1.471 1.172-.439 2.342-.288 2.826.364.594.801.969.761 1.336-.142.28-.691.92-1.002 1.423-.691.503.311.915-.122.915-.963 0-.874-.579-1.305-1.355-1.007-1.055.404-1.254-.487-.9-4.032.346-3.468.118-4.551-.959-4.551-.777 0-2.023-1.556-2.77-3.458-.746-1.902-1.955-3.688-2.686-3.969-.732-.281-1.333-1.087-1.337-1.792-.004-.704-1.496-2.295-3.316-3.534-2.461-1.675-3.887-3.891-5.565-8.643-2.268-6.425-6.107-11.343-7.96-10.198-.547.338-2.175-1.977-3.617-5.145-1.441-3.169-3.531-6.461-4.644-7.316-1.114-.855-2.167-2.851-2.341-4.437-.234-2.135-2.774-5.232-9.796-11.945-5.215-4.985-10.685-10.839-12.156-13.01-2.929-4.321-11.244-11.042-16.321-13.192-2.866-1.214-3.561-1.159-6.291.501-1.818 1.106-4.335 1.719-6.177 1.504-1.71-.199-3.68.112-4.378.692-.927.769-1.561.566-2.35-.753-1.025-1.712-1.135-1.715-2.131-.055-.577.963-1.444 1.75-1.926 1.75-.483 0-1.083-.787-1.335-1.75-.435-1.667-.463-1.667-.573 0-.163 2.461-2.116 2.193-2.116-.289 0-1.687-.238-1.818-1.375-.756-.756.707-1.158 1.849-.893 2.54.265.69-.016 1.255-.625 1.255s-1.107-.477-1.107-1.059-.453-.779-1.008-.436c-.554.342-1.711-.081-2.571-.941-1.426-1.426-1.146-1.994.829-1.682 1.364.215.778-4.711-.741-6.23-1.132-1.132-1.192-1.616-.25-2.009.884-.368.71-.947-.606-2.011-1.796-1.453-1.796-1.586 0-4.813 1.016-1.826 2.284-3.632 2.818-4.015 1.083-.776.896-1.025-1.971-2.626-1.1-.615-1.461-1.131-.802-1.148 2.54-.064 6.174-4.507 5.164-6.313-.665-1.187-.604-1.717.195-1.717.636 0 .903-.663.592-1.474-.312-.812.2-1.92 1.143-2.469 1.566-.914 1.551-.999-.182-1.027-1.039-.016-2.487.757-3.218 1.72-1.205 1.588-1.331 1.49-1.36-1.059-.022-1.959-.41-2.591-1.282-2.09-.687.396-.916.351-.509-.099.408-.45.204-1.466-.453-2.258-1.81-2.181-1.899-4.679-.324-9.143 1.611-4.566.482-6.29-1.896-2.895m316.932 25.53c-1.1.278-2.844 1.094-3.874 1.816-1.713 1.197-1.539 1.364 2 1.924 4.278.678 7.83 1.322 10.874 1.973 7.285 1.557 8.988 1.177 9.304-2.077.364-3.739-2.086-4.781-8.059-3.43-2.164.49-3.99.47-4.309-.046-.584-.944-2.609-.999-5.936-.16m-162.762 41.001c-.956 1.056-1.738 3.09-1.738 4.52 0 1.43-.675 3.275-1.5 4.1-.825.825-1.5 1.908-1.5 2.408 0 .499-1.687 2.491-3.75 4.426-2.062 1.936-5.06 5.366-6.661 7.623-3.23 4.554-5.408 4.776-2.833.289 1.534-2.673 1.523-2.967-.181-4.671-1.757-1.757-1.741-1.879.464-3.665 3.08-2.494 1.326-4.148-4.17-3.933-4.906.192-5.119.335-5.119 3.426 0 3.366-8.199 5.266-15.744 3.648-2.899-.622-7.461-.84-10.138-.485-3.884.515-4.868.353-4.868-.805 0-.798.563-1.714 1.25-2.035 1-.466 1-.7 0-1.166-.687-.321-1.25-1.242-1.25-2.047 0-1.194-.452-1.133-2.458.333-1.565 1.145-2.267 2.433-1.932 3.547.288.963.05 1.75-.531 1.75-1.358 0-5.079 3.172-5.079 4.329 0 .487.676.626 1.502.309s3.639-.128 6.25.42c7.266 1.526 13.158 1.897 13.793.869.315-.51 2.796-.927 5.514-.927 4.423 0 4.953.236 5.057 2.25.087 1.693.229 1.817.573.5.585-2.238 1.477-2.201 6.05.25 2.052 1.1 4.301 2 4.996 2 .696 0 1.265.48 1.265 1.067 0 .613.853.797 2 .433 2.421-.768 2.425-.722.319 4.128-1.187 2.734-1.796 3.358-2.073 2.123-.503-2.244-4.815-3.354-6.759-1.74-.822.682-1.487.79-1.487.241 0-1.198-7.603-3.352-10.75-3.046-2.794.273-2.915 1.448-.235 2.299 1.108.351 1.773 1.03 1.478 1.507-.296.477.035 1.342.735 1.921 10.75 8.898 10.523 8.782 12.344 6.317 2.852-3.86 3.486.158.816 5.173-1.883 3.536-2.417 5.684-1.969 7.922.693 3.465 8.15 11.034 10.124 10.277.695-.267 2.094.145 3.11.915 2.739 2.075 4.056 1.764 4.602-1.088.45-2.354.267-2.503-2.359-1.926-3.719.817-5.367-.195-3.446-2.116 1.498-1.498 1.06-4.315-.877-5.642-.59-.404.165-.741 1.677-.75 2.964-.016 3.84-2.383 1.25-3.377-2.416-.927-1.733-4.499 1.518-7.942 1.66-1.758 3.374-4.546 3.808-6.196.477-1.814 1.878-3.527 3.541-4.333 1.513-.733 3.247-2.421 3.853-3.75.605-1.329 1.498-2.417 1.983-2.417 3.458 0 3.971-4.763.906-8.42-1.509-1.8-1.485-1.873.391-1.175 2.265.842 2.481.877 4.357.713.799-.069 1.112-.757.761-1.67-.327-.854-.242-1.334.189-1.067.431.266.709-.723.617-2.198-.254-4.101-.349-4.347-1.424-3.683-1.151.711-1.341-3.436-.235-5.115.404-.614 1.798-1.447 3.097-1.853 2.048-.64 2.171-.927.93-2.168-2.474-2.475-8.066-2.824-10.054-.627m39.762 42.264c.398 1.254-.136 3.084-1.432 4.904-2.431 3.413-2.681 6.095-.568 6.095.825 0 1.5-.36 1.5-.801 0-.44 2.025-1.784 4.5-2.987 2.475-1.202 4.5-1.906 4.5-1.564 0 .975-4.989 5.352-6.099 5.352-1.119 0-5.901 4.887-5.901 6.029 0 2.515 5.506 1.509 8.996-1.644 2.06-1.862 4.379-3.385 5.153-3.385s2.177-.9 3.119-2c.942-1.1 2.672-2 3.845-2 1.802 0 1.935-.237.859-1.533-.7-.844-1.763-1.37-2.363-1.17-.6.2-1.77-.315-2.6-1.145-1.345-1.346-1.544-1.327-1.832.169-.178.924-.756 1.679-1.286 1.679-.596 0-.575-.722.056-1.9.983-1.837-.916-3.749-3.227-3.249-.429.093-2.094-.51-3.701-1.341-3.815-1.973-4.28-1.908-3.519.491M156.627 299.25c1.063 3.139.666 13.335-.612 15.723-.79 1.475-.668 2.922.478 5.665 1.688 4.038 1.255 6.643-1.615 9.724-1.033 1.108-1.878 2.54-1.878 3.181 0 1.913-8.991 10.581-10.199 9.834-.694-.429-.827-.228-.355.535.462.749.232 1.15-.596 1.036-2.715-.372-3.85.085-3.85 1.552 0 .825-.638 1.5-1.418 1.5-.78 0-2.073.251-2.873.558-.981.377-1.613-.274-1.943-2-.269-1.407-.075-2.558.432-2.558.506 0 .642-.45.302-1s-.115-1 .5-1 .84-.45.5-1c-.34-.55-1.686-1-2.992-1-2.35 0-4.251-2.988-3.093-4.862.299-.484-.38-1.944-1.508-3.245-1.128-1.301-2.302-3.617-2.607-5.145-.444-2.219-.833-2.55-1.928-1.642-1.007.836-1.405.84-1.497.016A19.452 19.452 0 0 0 119.5 323c-.138-.55-.306-1.45-.375-2-.168-1.343-3.125-1.287-3.125.059 0 .582-.5.75-1.112.372-.611-.378-1.486-.082-1.944.659-.653 1.057-1.257.855-2.818-.945-1.622-1.87-2.354-2.093-3.99-1.218-1.103.59-3.047 1.087-4.32 1.105-1.274.017-3.19.692-4.257 1.5-1.068.807-2.643 1.461-3.5 1.453-1.372-.014-1.379-.132-.059-.985 1.115-.721.602-.944-2-.869-1.925.056-2.713.307-1.75.558.962.252 1.75.875 1.75 1.384 0 1.247-3.722 1.186-4.5-.073-.34-.55-1.604-.948-2.809-.884-1.71.091-1.804.217-.429.576.969.253 1.532.833 1.249 1.29-.282.457-1.407.596-2.501.31-1.093-.285-1.749-.905-1.459-1.375.291-.471-1.381-.666-3.715-.434-2.335.232-4.828-.061-5.54-.653-.713-.591-1.296-.682-1.296-.202.001 1.47-17.63-.415-23.129-2.473-3.529-1.32-13.875-2.424-13.846-1.477.03 1.03 6.541 4.322 8.547 4.322.82 0 1.754.686 2.076 1.526.397 1.033.962 1.213 1.753.556.642-.532 2.052-.803 3.133-.602 1.081.202 2.78.401 3.775.443.995.043 1.53.529 1.189 1.081-.341.552-1.801.707-3.243.345-2.278-.572-2.442-.465-1.246.815 1.682 1.802 4.843 1.693 6.017-.206.722-1.168.971-1.131 1.489.222.343.893 2.22 1.923 4.171 2.289l3.547.665-2.075 1.933C62.017 333.13 59.747 334 58.113 334c-1.633 0-3.645.675-4.47 1.5-1.747 1.747-3.643 1.97-3.643.429 0-2.037-2.565-3.752-4.223-2.824-1.23.688-1.818.217-2.629-2.109-.574-1.648-1.544-2.996-2.155-2.996-.611 0-.864.399-.563.887.91 1.473-1.824 3.108-3.464 2.071-2.06-1.303-6.695-1.18-9.282.247-1.201.662-3.309 1.343-4.684 1.512-4.972.612-7.07 1.36-6.482 2.312.33.534.196.971-.298.971s-.843 1.578-.776 3.508c.104 3.002.529 3.806 1.806 3.415.137-.042.991-.22 1.896-.396.906-.176 2.596-1.269 3.756-2.429 1.802-1.802 2.409-1.926 4.173-.853 1.824 1.109 2.347.905 4.49-1.745 1.334-1.65 2.427-2.437 2.43-1.75.003.718 1.268 1.25 2.974 1.25 2.132 0 2.817.394 2.431 1.399-.295.769-.034 1.709.58 2.089.816.504.802 1.07-.054 2.101-.842 1.014-.855 1.411-.048 1.411 1.82 0 1.297 1.708-1.422 4.642-2.99 3.226-2.87 6.553.264 7.317 1.628.397 1.982.924 1.326 1.977-.741 1.19-1.163 1.211-2.47.127-1.325-1.099-1.576-1.049-1.576.315 0 .892-.45 1.622-1 1.622-1.781 0-1.057 1.998.75 2.07 1.481.06 1.443.19-.249.851-1.326.517-2.352.298-3.047-.653-.84-1.149-2.081-1.245-6.277-.482-5.631 1.024-12.633.232-10.362-1.172 1.021-.631.912-1.107-.505-2.194-1.718-1.317-1.696-1.419.429-2.017 1.231-.347 1.992-1.029 1.691-1.517-.9-1.455-3.43-1.003-3.43.614 0 .825-.575 1.5-1.277 1.5-1.66 0-6.792 5.839-5.716 6.504.452.28 2.323.498 4.157.485 1.835-.013 5.024-.03 7.086-.038 2.133-.008 3.75.474 3.75 1.118 0 .728-1.606 1.005-4.5.774-2.475-.196-4.5-.045-4.5.336 0 .382-1.462.876-3.25 1.098-2.866.355-2.756.422.93.563 3.509.134 4.232.52 4.5 2.4.191 1.332 1.13 2.36 2.32 2.537 1.828.271 1.85.203.25-.79-2.818-1.75-2.043-2.747 2.5-3.216 4.591-.475 6.75-.057 6.75 1.305 0 .473-.629.62-1.399.324-.769-.295-1.707-.037-2.084.573-.377.609-1.547.835-2.601.5-2.481-.787-2.472.159.015 1.49 1.428.764 2.296.667 3.337-.374.882-.881 1.925-1.088 2.792-.552 1.105.683.986 1.017-.588 1.656-2.891 1.173 4.985 2.083 9.528 1.1 1.925-.416 7.881-1.057 13.236-1.424 9.205-.631 9.942-.851 13.5-4.018 3.454-3.073 7.814-4.312 11.764-3.342 1.463.359 2.7.236 5.5-.549 3.847-1.078 7.171-.795 8.131.692.717 1.112 1.041 1.085 1.854-.152.541-.825.998-1.05 1.015-.5.017.55.437.358.933-.426.573-.906 2.857-1.484 6.269-1.586 5.269-.157 9.87-2.122 12.548-5.359 1.101-1.331 1.25-1.306 1.25.211 0 .948-.783 2.023-1.739 2.39-1.203.462-.203.995 3.25 1.731 4.042.861 4.989 1.457 4.989 3.139 0 2.702 2.268 5.4 4.539 5.4.987 0 2.004.563 2.261 1.25.319.855 1.214.499 2.833-1.128l2.367-2.379-2.249.535c-1.237.294-2.501.126-2.809-.372-.308-.498.479-.913 1.749-.921 1.858-.013 2.016-.205.809-.985-1.22-.789-1.238-.972-.095-.985 1.105-.012 1.042-.416-.293-1.891-1.598-1.766-1.597-1.916.015-2.534.942-.362 2.025-.154 2.405.462.381.616 1.542.99 2.58.83 3.216-.495 6.42 2.189 5.242 4.39-.821 1.536-.671 1.844.82 1.689 3.102-.325 3.891.028 2.326 1.039-1.293.835-1.266.971.191.985.93.008 1.953.438 2.272.956.344.556-.961.731-3.191.429-3.593-.487-3.678-.435-1.784 1.094 1.161.937 2.131 1.178 2.331.58.195-.587 1.013-.355 1.907.539 1.278 1.278 1.738 1.322 2.514.241.696-.971.793-.844.366.478-.387 1.196-.198 1.564.56 1.095.677-.418.87-.265.474.376-.374.606.309 1.393 1.549 1.787 1.22.387 2.833 1.319 3.586 2.072.752.752 2.123 1.416 3.046 1.474.924.058 3.2.19 5.059.293l3.38.187-.825-13.043c-1.061-16.787-1.049-30.402.029-33.449.539-1.525.493-2.186-.126-1.803-.568.351-.953-.84-.919-2.843.032-1.897.401-3.448.82-3.448.418 0 .761-.702.761-1.559s-.359-1.337-.798-1.066c-.439.271-1.451.08-2.25-.426-.798-.505-1.002-.926-.452-.935 1.066-.019 1.695-11.013.63-11.016-.347-.001-.618-3.264-.604-7.25.014-3.986-.436-7.579-1-7.983-1.909-1.366-2.664-.775-1.899 1.485m38.78 15.599c.666 1.079-3.953 5.151-5.843 5.151-1.333 0-2.222 4.18-2.819 13.25-.1 1.512-.505 2.75-.901 2.75s-.703.788-.683 1.75c.057 2.687-1.195 16.467-1.727 19-.26 1.238-.065 2.25.433 2.25 2.171 0 1.245 20.918-1.384 31.25-.45 1.767-.304 2.75.409 2.75.609 0 1.108-.46 1.108-1.021 0-.562 1.076-1.512 2.39-2.111 1.315-.599 3.002-2.277 3.75-3.728 2.01-3.901 5.085-6.195 6.61-4.931.927.768 1.25.53 1.25-.92 0-1.076.675-1.956 1.5-1.956s1.5.586 1.5 1.301c0 3.165 9.332-3.748 11.007-8.154 1.1-2.892.473-4.895-1.206-3.857-.601.371-.867.074-.613-.686.354-1.063 8.059-3.827 10.921-3.918.335-.01.578 1.94.54 4.335-.05 3.086-.478 4.323-1.471 4.25-2.188-.162-4.007 3.248-2.3 4.313.772.481 1.046 1.397.624 2.08-.57.922.318 1.075 3.621.625 2.408-.328 3.815-.34 3.127-.026-.687.314-1.25 1.02-1.25 1.569 0 .549 1.545.043 3.434-1.124 3.207-1.982 3.672-2.023 7.018-.625 1.972.823 3.914 1.549 4.316 1.612.403.063 1.083.742 1.513 1.509.815 1.458 4.451-.098 10.873-4.654 1.46-1.036 3.598-1.883 4.75-1.883 1.153 0 2.096-.48 2.096-1.067 0-1.479 4.181-.046 5.727 1.963.924 1.2 1.437 1.3 2.036.398.869-1.308 9.237-1.382 9.237-.082 0 1.6 5.909.773 6.88-.962.539-.962 1.32-1.625 1.737-1.473.417.153.859-.409.982-1.25.123-.84-.186-1.527-.687-1.527-.502 0-.912.487-.912 1.082 0 .679-1.393.879-3.75.537-2.062-.299-4.762-.56-6-.581-1.238-.021-2.25-.515-2.25-1.097s.45-.781 1-.441 1.498.31 2.107-.066c.771-.477.696-.944-.25-1.544-1.107-.701-1.081-.865.143-.89 2.842-.058-1.248-1.968-4.25-1.985-2.263-.012-2.75-.458-2.75-2.515 0-2.095.472-2.5 2.917-2.5 2.021 0 3.524-.835 4.898-2.72 1.537-2.11 2.734-2.685 5.333-2.561 1.844.087 2.79-.076 2.102-.363-2.484-1.038-1.201-3.275 2.25-3.922 1.925-.361 3.5-1.031 3.5-1.489 0-1.23-4.191-3.945-5.163-3.344-.46.284-.837.01-.837-.609 0-.679-1.492-1.03-3.75-.884-6.529.422-10.117-.091-7.75-1.108 1.492-.641 1.595-.877.403-.93-.878-.038-2.678-1.025-4-2.193l-2.403-2.122 2.5.735c2.032.597 2.268.491 1.262-.565-.736-.774-3.064-1.205-5.75-1.066-2.481.128-4.512-.19-4.512-.708 0-.575-1.457-.602-3.75-.07-4.841 1.125-5.493 1.12-4.781-.031.828-1.339-2.765-3.05-6.403-3.05-1.686 0-3.066-.436-3.066-.969 0-.532-.562-.831-1.25-.664-.687.168-.912.116-.5-.114.412-.231.75-.859.75-1.395 0-.537-.5-.667-1.112-.289-.611.378-1.399.254-1.75-.276-.65-.983-11.821-6.512-13.638-6.752-.55-.073-.887-.675-.749-1.34.182-.876-1.051-1.037-4.5-.587-2.613.341-5.313.643-6.001.67-.687.027-1.25.451-1.25.942 0 .49-.419.633-.931.317-.512-.317-1.213-.118-1.559.441-1.262 2.042-6.931 1.061-8.813-1.524-1.754-2.409-1.5-5.074.372-3.917.512.316.931-.378.931-1.543s-.419-1.859-.931-1.543c-.512.317-1.213.118-1.559-.441-.345-.559-1.078-1.016-1.628-1.016-.55 0-.764.382-.475.849m166.185 31.862c-2.7.666-5.287.977-5.75.691-.463-.286-.842-.043-.842.539 0 .582-.788 1.075-1.75 1.094-1.336.027-1.158.374.75 1.465 3.063 1.751 4.353 1.881 3.402.342-.529-.857 1.145-1.002 6.429-.559 5.633.472 7.464.279 8.657-.914.878-.878 1.512-1.044 1.512-.394 0 .675 1.681 1.048 4.25.942 2.337-.097 5.488.157 7 .562 2.166.581 2.75.396 2.75-.871 0-.884.337-1.495.75-1.358s.75-.2.75-.75c0-.565-2.721-.981-6.25-.956-3.437.024-6.25-.237-6.25-.579 0-1.038-10.177-.545-15.408.746m-190.79 20.49c-2.81 2.684-3.849 9.138-1.316 8.166 2.052-.787 2.057 3.947.006 5.998-.954.954-1.132 1.74-.483 2.14.563.348.763 1.055.444 1.571s.095 1.197.92 1.514c.826.316 1.257 1.211.959 1.987-.298.776-.944 1.163-1.437.858-.492-.304-.895 1.949-.895 5.006 0 3.057.45 5.559 1 5.559s1.003-1.238 1.006-2.75c.003-1.512.5-4.534 1.106-6.715.803-2.892.801-4.064-.006-4.333-.608-.203-1.099-1.344-1.091-2.535.013-1.766.195-1.889.985-.667.934 1.445 1.51.565.98-1.5-.528-2.06.144-7.959.966-8.469 1.353-.841 1.694-7.316.408-7.746-.63-.21-2.229.652-3.552 1.916m110.112-.275c.778.492 2.863.66 4.633.373 3.01-.489 3.187-.357 2.729 2.036-.269 1.408-1.004 2.744-1.632 2.969-.629.225-.356.291.607.146.964-.145 1.499.146 1.189.646-.457.74 2.477.652 4.56-.137 1.378-.521 13.568.347 14 .997 1.002 1.509 10.992.646 11.078-.956.055-1.035.237-1.11.586-.244.279.691.854 1.042 1.279.779.425-.262 2.074-.109 3.665.34 4.35 1.229 5.557.368 3.052-2.178-1.64-1.668-3.062-2.112-5.91-1.842-2.489.236-3.75-.058-3.75-.872 0-.958-.318-.964-1.447-.027-2.267 1.881-17.445 1.019-16.831-.956.349-1.122.237-1.182-.444-.238-1.035 1.434-7.601.569-6.703-.884.299-.483-2.296-.871-5.766-.863-4.105.01-5.815.328-4.895.911m99.931 16.038c-.534 1.603-10.845 2.455-10.845.896 0-.473-1.012-.808-2.25-.744-1.774.091-1.869.215-.447.584 1.431.371 1.561.759.628 1.884-.911 1.097-.885 1.416.113 1.416 1.908 0 .23 1.335-2.131 1.695-1.166.179-1.77-.117-1.415-.692.361-.584-.553-.977-2.189-.94l-2.809.064 2.5 1.161c2.302 1.07 2.072 1.188-2.905 1.495-2.973.183-5.673-.031-6-.475-1.867-2.535-3.895-3.226-6.923-2.357-2.508.719-3.172.61-3.172-.521 0-.95-1.091-1.425-3.25-1.415-2.226.011-2.819.289-1.88.883 1.106.701 1.01 1.078-.5 1.955-1.631.947-1.462 1.09 1.321 1.117 1.755.016 3.516.556 3.914 1.2.486.787.178.961-.941.531-.915-.351-1.664-.202-1.664.33 0 .533 1.575.969 3.5.969s3.5.495 3.5 1.101c0 .691 1.675.967 4.5.742 2.475-.196 4.5-.012 4.5.409 0 .422 2.023.65 4.495.507 2.472-.142 4.497-.652 4.5-1.131.003-.48.66-.329 1.461.336.801.664 1.926.918 2.5.563.574-.355 1.051-.056 1.059.664.013 1.061.176 1.057.86-.023.835-1.317 4.644-1.16 8.386.346 1.304.524 1.614.323 1.192-.775-.438-1.142.077-1.395 2.239-1.098 2.382.328 2.505.244.808-.557-1.618-.763-1.682-.957-.333-1.014.916-.038 1.816-.459 2-.934.183-.476 2.358-.532 4.833-.125 3.861.634 4.038.756 1.25.864-3.522.135-4.112 1.406-1.75 3.768.825.825 1.5 1.07 1.5.545 0-1.907 8.699-.003 10.235 2.239 1.568 2.29.714-1.576-.889-4.022-1.249-1.905-1.858-2.203-2.485-1.215-.633.999-.834.914-.846-.357-.008-.916-.577-1.893-1.265-2.171-.77-.31-.6-.534.441-.583.93-.043 1.969.371 2.309.921.34.55 1.154.993 1.809.985.716-.01.592-.403-.309-.985-.825-.533-1.012-.976-.417-.985 1.419-.02 1.431-3.304.016-4.25-.67-.448-.393-.74.71-.75.995-.008 1.544-.444 1.221-.967-.885-1.431-14.527-1.176-14.545.272-.01.749-.338.671-.899-.216-.486-.767-1.575-1.13-2.42-.806-.845.324-1.716.052-1.935-.604-.267-.802-.558-.714-.886.27m23.708 20.817c-1.153 1.153-.484 2.796 1.197 2.94 3.64.312 7.777 1.618 8.485 2.678.456.683.74.449.75-.618.01-1.154.535-1.519 1.599-1.11 1.275.489 1.324.772.25 1.453-1.08.684-1.085.848-.025.861.72.008 1.031.465.691 1.015-.351.567.49 1 1.941 1 1.407 0 2.559.365 2.559.811 0 .446 2.363 1.399 5.25 2.117s6.6 1.902 8.25 2.63c6.479 2.86 15.358 4.186 23.5 3.509 2.315-.192 2.352-.271.5-1.067-1.1-.473-1.437-.891-.75-.93.688-.038 1.25-.547 1.25-1.129s-.45-.781-1-.441-1 .24-1-.223c0-.462-1.173-.938-2.606-1.056-1.925-.16-2.459.166-2.045 1.246.599 1.561-5.334 1.243-10.032-.539-1.345-.51-2.316-.431-2.527.203-.354 1.062-5.961-1.496-8.613-3.929-1.987-1.822-.784-2.597 1.845-1.19 1.586.848 2.495.871 3.285.081 1.031-1.031.455-1.329-1.945-1.008-.351.047-.954-.425-1.34-1.05-.386-.624-1.674-1.208-2.862-1.298-1.188-.089-2.16-.549-2.16-1.021 0-.473-1.062-.72-2.361-.55-1.299.17-3.099-.302-4-1.051-1.419-1.177-1.641-1.109-1.654.513-.013 1.574-.17 1.634-.985.372-.862-1.333-.973-1.333-1 0-.026 1.266-.17 1.28-.923.091-.49-.775-.699-1.913-.463-2.528.442-1.151-11.95-1.894-13.061-.782m-56.385 2.358c.267 1.897-.11 2.345-1.918 2.282-1.238-.044-2.25.279-2.25.718 0 .439-.675.539-1.5.223-.955-.367-1.5.016-1.5 1.055 0 1.281-.777 1.544-3.626 1.231-2.86-.316-3.726-.018-4.099 1.407-.259.994-1.057 1.582-1.772 1.308-1.597-.613-2.93 1.255-1.519 2.127 2.395 1.48.483 2.021-7.739 2.186-4.81.097-9.784.21-11.054.25-1.271.041-2.031.523-1.691 1.074.34.55-.084 1-.941 1s-1.559-.525-1.559-1.167c0-.641-.296-.87-.658-.508-.362.362-1.311.116-2.108-.546-1.156-.959-1.705-.856-2.702.509-1.269 1.734-3.111 2.458-2.102.826 1.027-1.662-3.729-2.087-4.933-.44-1.048 1.432-1.869 1.409-8.897-.248-6.226-1.468-8.072-1.584-9.422-.592-.923.678-3.361 2.005-5.418 2.949-2.057.945-3.744 2.022-3.75 2.395-.009.585 8.53 2.088 12.99 2.286.825.037 1.971.368 2.548.735.576.368 1.701.256 2.5-.25.798-.505 1.002-.957.452-1.004-2.461-.211 3.399-1.812 6.861-1.875l3.861-.07-2.357 1.909-2.357 1.908 3.496.596c11.206 1.909 25.295 3.622 25.782 3.134.313-.312-.261-1.174-1.275-1.915-1.785-1.305-1.782-1.385.073-2.558 1.801-1.139 1.781-1.183-.334-.736-2.305.486-3.078-.708-1.206-1.865.574-.355 1.699-.101 2.5.563.801.665 1.456.779 1.456.253s.788-1.016 1.75-1.089c4.538-.347 12.561-.223 12.983.2.26.26 1.551.062 2.87-.439 1.318-.501 2.397-.585 2.397-.186 0 .399 1.35.669 3 .6 7.455-.311 8.305-.403 7.851-.858-.266-.265-2.203-.702-4.306-.972-3.969-.508-6.125-1.545-3.212-1.545.917 0 1.823.113 2.013.25.191.137 1.1-.376 2.021-1.14.922-.765 3.353-1.56 5.404-1.768 4.333-.439 14.605-1.165 18.229-1.288 3.782-.128 5.938-1.766 4-3.039-1.085-.712-.048-.989 3.75-1 3.05-.009 5.25.43 5.25 1.048 0 .584-.788.983-1.75.885-3.544-.361-5.648.054-4.7.926 1.483 1.364 9.367 2.069 10.088.902.393-.635.98-.422 1.527.554.924 1.652 5.241.9 5.421-.945.202-2.071 1.692-4.331 2.519-3.82.492.304.895.125.895-.398 0-.946-3.468-2.156-7.75-2.703-1.238-.158-2.25.122-2.25.624s-.477.912-1.059.912-.781-.45-.441-1 .254-1.057-.191-1.128a832.26 832.26 0 0 1-3.309-.536c-5.125-.838-12-.919-12-.141 0 .443-.436.805-.969.805-.532 0-.709-.675-.393-1.5.421-1.097-.125-1.5-2.031-1.5-1.695 0-2.607.546-2.607 1.559 0 .857-.468 1.27-1.04.916-.67-.414-.846.367-.494 2.191.3 1.559.298 2.324-.005 1.7-.374-.771-1.734-.869-4.256-.304-9.975 2.231-13.208 2.125-7.455-.244 2.172-.895 2.382-1.22 1-1.549-.962-.228-1.75-.881-1.75-1.449 0-.569-.667-.778-1.481-.466-1.054.405-1.415-.038-1.25-1.532.127-1.156-.368-2.313-1.101-2.572-.916-.324-1.228.264-1 1.889m-162.668.749c-1.1.418-5.825.717-10.5.663-4.675-.053-7.658.07-6.628.273 1.7.336 1.664.476-.388 1.523-1.243.634-2.198 1.49-2.122 1.903.076.413.138 2.311.138 4.219 0 2.812.312 3.348 1.65 2.835 1.365-.524 1.534-.174.981 2.032-.397 1.58-.254 2.664.35 2.664.56 0 1.019-.675 1.019-1.5s.45-1.5 1-1.5 1 .45 1 1 .477 1 1.059 1 .811-.401.509-.891c-.575-.93 3.6-4.109 5.397-4.109.569 0 1.035.675 1.035 1.5s-.45 1.5-1 1.5-1 .675-1 1.5-.408 1.5-.906 1.5c-1.179 0-.097 4.283 1.318 5.222.76.503.775 1.223.052 2.384-1.777 2.852-2.952 2.057-3.264-2.208-.277-3.775-.499-4.064-2.792-3.625-1.535.293-2.431 1.1-2.335 2.102.32 3.309-.08 4.06-1.823 3.424-1.571-.573-1.555-.416.155 1.531 1.048 1.194 2.348 2.17 2.89 2.17.541 0 1.484.632 2.095 1.404 1.701 2.152 7.61.918 7.61-1.589 0-3.132 2.702-5.307 4.618-3.717 1.409 1.169 1.391 1.422-.181 2.572-1.602 1.171-1.609 1.327-.09 1.909.909.349 1.653 1.248 1.653 1.997 0 .815-.618 1.124-1.541.77-.981-.376-1.435-.092-1.25.781.197.928-.845 1.445-3.209 1.596-2.792.177-3.095.04-1.5-.68 1.916-.864 1.905-.905-.25-.973-1.668-.052-2.268.512-2.32 2.18-.067 2.147-.11 2.158-.93.25-.759-1.766-.868-1.79-.93-.206-.044 1.135-.713 1.686-1.82 1.5-1.772-.298-1.838.311-.751 6.956.203 1.238.061 2.298-.315 2.356-3.773.585-7.874.249-9.921-.813-3.207-1.664-5.084-1.714-3.463-.093 1.908 1.908 1.411 2.801-1.55 2.785-1.889-.011-2.332-.281-1.415-.862.735-.466 1.297-1.134 1.25-1.485-.29-2.169.229-2.638 2.915-2.638 1.65 0 3 .505 3 1.122 0 .807.397.794 1.411-.048.965-.801 1.616-.839 2.059-.123 1.049 1.697 2.53 1.203 2.53-.844 0-1.041-.675-2.152-1.5-2.469-.825-.316-1.5-1.216-1.5-2 0-2.997-5.577-3.545-6.5-.638-.441 1.389-1.513 2-3.508 2-2.786 0-5.34 2.051-3.372 2.707.536.178.788 1.92.561 3.871-.293 2.509-.819 3.391-1.798 3.016-1.677-.644-1.699-.383-.245 2.81.726 1.592 2.266 2.724 4.25 3.122 1.712.343 4.012.871 5.112 1.173 1.883.517 1.869.407-.25-1.889-2.315-2.509-3.029-4.41-1.243-3.306.554.343 1.277-.081 1.607-.941.33-.859 1.213-1.563 1.962-1.563.755 0 1.122.622.824 1.399-.295.769-.103 1.667.427 1.994.53.328 1.221-.077 1.537-.899.315-.822 1.289-1.494 2.164-1.494.874 0 1.312.45.972 1-.761 1.231-.286 1.249 2.72.106 3.078-1.17 5.78.586 5.78 3.755 0 .474 1.125.647 2.5.384 1.843-.353 2.5-.048 2.5 1.158 0 1.778 4.791 1.553 5.923-.278.354-.573 2.358-.614 5.081-.102 2.473.464 5.501.602 6.728.307 1.228-.296 3.552-.078 5.165.484 3.564 1.243 4.582.519 2.368-1.683-1.518-1.51-1.462-1.657.754-1.978 3.021-.437 10.212 1.664 9.521 2.782-.778 1.258 3.576 2.105 5.385 1.047.866-.506 1.125-.942.575-.967-.55-.025-.325-.523.5-1.106 1.129-.799 1.191-1.187.25-1.568-.687-.279-1.243-1.483-1.235-2.674.011-1.521.261-1.78.839-.87.655 1.034 1.088.978 2.129-.277 1.146-1.381.92-1.544-1.838-1.334-1.73.132-3.145.684-3.145 1.227s-.54.447-1.2-.213c-.66-.66-2.573-1.236-4.25-1.279-1.678-.043-2.469-.312-1.758-.597.95-.382 1.002-.867.198-1.836-1.236-1.49-6.826-.371-8.051 1.61-.496.802-1.242.832-2.548.101-1.685-.943-1.586-1.149 1.131-2.345 1.638-.722 3.343-1.893 3.789-2.604.447-.711 1.234-1.031 1.75-.712.517.319.939-.122.939-.979 0-2.014-.947-1.94-3.863.303-2.883 2.217-7.25 1.734-6.472-.715.451-1.418.374-1.439-.555-.147-.875 1.216-1.082.979-1.095-1.25-.01-1.771-.549-2.75-1.515-2.75-1.624 0-2.035-1.552-.639-2.414.474-.293 2.386-.731 4.25-.973 5.852-.759 6.751-1.512 7.462-6.251.575-3.833 1.164-4.699 4.187-6.161 5.007-2.421 4.199-3.603-2.989-4.372-12.141-1.299-16.818-2.096-17.351-2.958-.296-.479-.11-.871.413-.871 2.331 0 2.32-5.375-.015-7.172-1.468-1.13-1.799-1.792-.901-1.806 2.137-.033.329-1.397-2.205-1.663-1.217-.127-3.112.11-4.212.529m92.5 43.143c0 .533-1.25.969-2.777.969-1.528 0-3.708.651-4.844 1.447-2.081 1.458-6.379 1.078-6.379-.564 0-.485-1.125-.883-2.5-.883s-2.5.45-2.5 1 .563 1.007 1.25 1.015c1.727.021-1.323 1.95-3.115 1.97-1.079.012-1.022-.509.273-2.485 1.434-2.189 1.448-2.5.115-2.5-.838 0-1.523.602-1.523 1.338 0 .85-1.342 1.388-3.676 1.476-2.022.076-4.137.599-4.7 1.162-.563.563-1.909 1.024-2.991 1.024-8.831 0 11.249 2.453 28.367 3.465 4.675.276 11.762.797 15.75 1.157 5.136.463 7.25.322 7.25-.484 0-.626-.562-1.145-1.25-1.153-.833-.011-.75-.339.25-.985 1.207-.78 1.049-.972-.809-.985-1.49-.01-2.056-.425-1.595-1.171.515-.833-.33-.987-3.029-.549-3.135.509-3.646.352-3.141-.964.464-1.209.116-1.444-1.508-1.02-2.447.64-5.131-.157-4.418-1.311.269-.435-.184-1.048-1.006-1.364-.822-.315-1.494-.137-1.494.395M41.361 499.697c-.441 1.757-.252 2.839.542 3.104.868.289.72.958-.511 2.319-1.643 1.815-1.638 1.98.11 3.258 1.012.74 2.666 1.129 3.674.866 1.009-.264 2.395-.021 3.079.541.685.561 2.595 1.16 4.245 1.33 1.65.17 3.522.686 4.161 1.146.661.476 1.444.377 1.819-.229.362-.585 1.178-.743 1.814-.35.636.393 2.067.767 3.181.831l5.525.318c2.337.133 3.058.48 2.169 1.043-1.567.994 3.043 2.126 8.656 2.126 4.875 0 2.798-2.01-2.422-2.344-2.463-.157-3.903-.742-3.903-1.584 0-.734-1.425-2.099-3.167-3.033-3.127-1.677-5.652-1.751-15.583-.457-4.251.554-4.75.415-4.75-1.326 0-1.757 3.644-6.114 4.605-5.506.217.137.958.236 1.645.218 1.962-.05-2.404-2.968-4.441-2.968-.995 0-1.809-.45-1.809-1s-1.791-1-3.981-1c-3.49 0-4.064.333-4.658 2.697" fill="#d3d3d3" fill-rule="evenodd"/></svg>