<svg xmlns="http://www.w3.org/2000/svg" width="500" height="505"><path d="M0 212.559c0 116.907.359 212.337.798 212.066.439-.271 1.436-.098 2.216.384.781.482 1.884.506 2.452.052 1.634-1.302 8.456-1.767 8.942-.608.264.628.878.447 1.535-.453.961-1.316 1.259-1.286 2.436.25 1.532 1.999 2.74 2.301 2.371.593-.155-.717 1.367-1.213 4-1.304 2.338-.081 4.251.102 4.253.407.002.305 1.577.588 3.5.629 1.923.041 3.497-.245 3.497-.636 0-1.048 6-1.749 6.603-.772.283.458 1.051.819 1.706.801.655-.017.397-.634-.572-1.37-1.586-1.203-1.333-1.42 2.5-2.148 2.344-.445 4.794-.847 5.442-.893.649-.045 1.512-.414 1.917-.82 1.1-1.1 2.617-.89 1.904.263-.34.55.098 1 .972 1 .875 0 1.807-.563 2.071-1.25.368-.957 6.044-1.217 24.219-1.109 13.056.078 26.213-.229 29.238-.682 3.025-.453 11.35-1.368 18.5-2.032 7.15-.665 14.125-1.362 15.5-1.55 20.322-2.775 26.759-3.3 41.5-3.382 4.95-.027 9.651-.456 10.446-.952.873-.545 2.162-.52 3.25.062 1.228.657 1.804.616 1.804-.129 0-.602.45-.816 1-.476.55.34 1 .206 1-.297 0-.98.071-.988 16-1.807 7.004-.36 11.021-1.011 12.066-1.956.861-.779 2.998-1.703 4.75-2.053 1.751-.35 3.184-.958 3.184-1.351 0-.392 2.587-.743 5.75-.78 3.162-.036 7.775-.777 10.25-1.647 2.475-.869 5.527-1.586 6.781-1.594 1.255-.008 2.526-.652 2.825-1.431.564-1.468 8.246-2.955 14.218-2.752 4.741.161 3.576-1.992-2.074-3.832-2.533-.825-4.938-1.837-5.344-2.25-.407-.412-1.36-.75-2.118-.75-.758 0-2.504-1.125-3.879-2.5-1.871-1.871-3.558-2.502-6.704-2.506-2.313-.004-5.375-.617-6.805-1.363-1.43-.746-5.521-1.64-9.092-1.987-9.029-.877-12.867-1.739-12.242-2.75.293-.475 1.523-.796 2.734-.713 2.476.168 16.393-1.992 18.7-2.903 2.038-.805-3.115-2.007-9.26-2.16-3.42-.085-5.241-.681-6.472-2.118-1.152-1.345-2.95-2-5.49-2-3.766 0-4.216-.509-3.819-4.319.173-1.655-.654-1.802-9.134-1.627-5.129.105-11.575-.201-14.325-.681-2.75-.48-9.15-.798-14.222-.706-6.145.111-9.148-.193-9-.912.122-.593-.903-1.41-2.278-1.817-1.794-.53-2.005-.802-.75-.963.963-.124 2.163-.281 2.667-.35 1.691-.231 2.537-1.727 1.38-2.441-.737-.456-.281-1.116 1.279-1.852 1.434-.676 2.424-.75 2.424-.179 0 .531.369.737.82.458 1.776-1.097 6.181-1.419 6.753-.493.381.616 1.128.545 2.016-.192.776-.644 1.411-.88 1.411-.525s1.087-.067 2.417-.938c2.236-1.466 2.492-1.449 3.432.227.944 1.681 1.217 1.698 3.834.233 2.066-1.157 5.956-1.617 14.598-1.729 11.634-.151 11.795-.122 12.91 2.327 1.346 2.954 4.885 3.484 4.136.62-.605-2.313 3.524-3.409 11.923-3.166 3.88.112 5.75-.222 5.75-1.027 0-.852.475-.801 1.663.18 1.302 1.075 1.754 1.1 2.085.116.233-.691.821-1.01 1.308-.71.486.301 4.488.691 8.892.866 4.404.175 8.58.781 9.28 1.346 1.731 1.398 12.499.762 15.272-.902.759-.456 95.02-.17 100 .303 1.637.155 33.318-1.161 42.5-1.766 9.221-.607 15.51-.556 19.169.156 1.282.25 6.831.41 12.331.356 15.758-.155 18.627-.078 24.739.66l5.738.693.273 39.127c.151 21.52.27-56.498.266-173.373-.005-116.875-.124-153.621-.266-81.657l-.257 130.844-5.247-.709c-2.885-.389-5.921-1.035-6.746-1.435-.825-.4-3.965-.837-6.977-.971-3.012-.134-6.162-.603-7-1.041-.838-.438-7.148-.631-14.023-.429-17.05.502-25.013-2.253-26.893-9.304-.772-2.895-1.305-3.102-12.29-4.796-2.167-.334-3.813-1.198-4-2.098-.45-2.171-13.565-2.676-14.745-.567-.582 1.038-1.623 1.238-3.691.709-1.585-.406-6.256-1.118-10.381-1.583-21.688-2.444-29.108-3.177-35.218-3.477-3.694-.182-7.543-.593-8.552-.913-1.01-.32-5.862-.772-10.783-1.004-17.551-.827-59.134-8.215-71.332-12.673-2.961-1.083-6.256-3.077-7.322-4.432-1.066-1.355-2.542-2.464-3.28-2.464s-2.752-2.293-4.476-5.095c-1.724-2.802-3.58-5.614-4.124-6.25-5.401-6.311-9.677-13.886-10.814-19.155-1.515-7.022-4.451-14.144-7.003-16.988-2.033-2.265-5.574-8.659-7.023-12.681-.529-1.468-2.168-3.268-3.642-4-1.908-.947-4.302-4.527-8.306-12.418-3.094-6.097-6.451-11.905-7.461-12.907-1.396-1.385-1.755-2.98-1.5-6.664.332-4.787.301-4.843-2.664-4.854-1.65-.005-4.758-.3-6.908-.655-3.675-.607-3.872-.513-3.324 1.582.539 2.061.309 2.191-3.069 1.736-2.024-.273-4.403-1.419-5.336-2.572-.926-1.143-2.174-2.079-2.773-2.079-.6 0-1.09-.62-1.09-1.378 0-.757-.675-1.937-1.5-2.622-.825-.685-1.5-1.926-1.5-2.758 0-1.608-1.271-2.921-10.226-10.559-3.782-3.227-6.757-6.957-9.008-11.297-3.939-7.595-12.574-18.249-14.855-18.33-1.526-.054-3.876-3.842-3.943-6.353-.08-3.026-3.396-5.024-12.923-7.785-7.672-2.224-11.349-3.902-15.175-6.927C100.093 40.796 97.206 39 96.456 39s-2.953-2.138-4.895-4.75c-1.942-2.613-3.933-5.235-4.424-5.827-.491-.592-1.201-2.167-1.577-3.5-2.255-7.973-7.816-13.512-18.786-18.71-3.718-1.762-5.734-3.327-5.75-4.463C61.002.122 58.872 0 30.5 0H0v212.559m.491.441c0 116.875.116 164.687.259 106.25.142-58.438.142-154.063 0-212.5C.607 48.312.491 96.125.491 213M2.25 443.083l-2.25.853v61.321l45.75-.632 91.021-1.258c24.899-.344 45.514-1.019 45.811-1.5.297-.481 1.75-.641 3.229-.355 2.072.4 2.242.324.743-.329-1.868-.812-1.857-.87.25-1.421 1.208-.316 2.196-.21 2.196.236 0 .919 8.229.053 9-.946.797-1.033 5-1.024 5 .01 0 .516-.648.938-1.441.938s-1.719.45-2.059 1c-.368.595.823 1 2.941 1 1.957 0 3.559-.45 3.559-1 0-1.586 3.504-4.665 4.813-4.229.653.218 1.183.021 1.179-.438-.011-1.198-4.976-3.333-7.75-3.333-1.319 0-2.087-.441-1.742-1 .34-.55 1.396-1 2.348-1 .951 0 3.494-.9 5.652-2 3.865-1.971 9.5-2.92 6.665-1.123-1.732 1.098 1.938 2.17 4.835 1.413 2.766-.724 2.501-1.947-.588-2.723-2.153-.54-2.381-.899-1.358-2.132 1.756-2.116 1.195-2.336-7.112-2.799-4.093-.228-7.442-.502-7.442-.609 0-.302-4.42-.864-11.053-1.405-5.972-.487-13.572-1.989-18.447-3.645-1.375-.467-5.732-1.092-9.683-1.39-7.443-.562-12.32-1.142-18.317-2.182-1.925-.334-5.3-.82-7.5-1.08-2.2-.26-6.009-1.387-8.464-2.505-2.456-1.117-6.056-2.14-8-2.273-5.438-.37-11.036-1.679-11.036-2.581 0-1.324-6.003-2.855-18-4.591-5.886-.852-16.693-3.182-19-4.097-1.375-.545-3.062-.793-3.75-.551-.687.242-1.25-.074-1.25-.703 0-.628-.5-.833-1.112-.455a1.31 1.31 0 0 1-1.799-.425c-.378-.612-3.14-1.318-6.138-1.569-2.998-.252-9.051-1.331-13.451-2.397-4.4-1.067-10.25-2.218-13-2.559-13.107-1.624-17.32-2.017-21.25-1.981-2.338.021-4.25-.386-4.25-.906 0-.521-.732-.665-1.627-.322-.894.344-2.132.219-2.75-.278-.639-.513-2.092-.535-3.373-.049" fill="#d3d3d3" fill-rule="evenodd"/></svg>