<svg xmlns="http://www.w3.org/2000/svg" width="500" height="496"><path d="M244 177.031c0 .533.787.983 1.75 1.001 1.642.03 1.639.116-.053 1.399-1.371 1.039-1.491 1.514-.5 1.979.717.337.34.437-.836.224-2.413-.438-4.861.753-4.861 2.366 0 .59-.675 1.543-1.5 2.117-1.146.799-.866.907 1.189.46 1.479-.321 2.941-.175 3.251.325.309.501 1.349.718 2.311.484 1.208-.295 2.213.569 3.249 2.792 1.212 2.6 2.604 3.58 7.242 5.101 5.059 1.659 5.624 2.103 4.75 3.736-1.314 2.455-1.253 3.264.178 2.38.782-.483.962-.182.544.909-.345.898-.148 1.928.436 2.289.585.361.678.938.207 1.282-.471.344-1.464 1.703-2.206 3.02-1.234 2.191-1.192 2.331.5 1.642 1.017-.415 3.267-1.164 5-1.665 1.732-.501 3.384-1.522 3.671-2.268.315-.821 1.468-1.176 2.922-.898 1.34.256 3.989-.433 5.996-1.56 3.071-1.725 3.678-1.801 4.168-.525.47 1.225 1.178 1.034 3.927-1.063 1.845-1.407 3.847-2.558 4.45-2.558 2.672 0 1.865-1.966-1.801-4.392-2.191-1.45-3.984-2.153-3.984-1.563 0 .59-.403.824-.895.52-.493-.305-1.192.219-1.554 1.163-.876 2.282-2.507-.101-2.551-3.728-.017-1.404-.353-2.018-.765-1.4-.819 1.226-8.227 1.343-8.232.13-.002-.423-1.155-2.594-2.562-4.823-2.098-3.323-2.819-3.838-4-2.858-.937.778-1.441.824-1.441.131 0-1.33-4.111-.619-5.031.87-.459.743-1.219.557-2.349-.573-.919-.919-2.335-1.417-3.146-1.106-.971.373-1.474-.064-1.474-1.28 0-1.015-.562-2.281-1.25-2.813-2.038-1.577-4.75-2.289-4.75-1.247m95 12.438c0 .874-.589 1.242-1.456.91-1.94-.745-7.3 4.536-5.643 5.56.881.544.775 1.085-.401 2.061-1.166.968-1.277 1.52-.412 2.055.802.495.111 1.689-2.148 3.707-3.307 2.955-3.343 2.962-4.967.957-1.97-2.434-7.312-1.766-6.331.791.442 1.15-.251 1.49-3.035 1.49-2.153 0-3.506-.453-3.357-1.125.137-.619-.327-1.336-1.031-1.594-.705-.258-1.155.136-1 .875.154.739-.268 1.236-.939 1.104-.671-.132-1.706.668-2.3 1.778-.594 1.11-1.457 1.785-1.917 1.501-.46-.284-1.421.187-2.135 1.048-1.979 2.385.59 3.544 6.758 3.05 3.657-.293 5.333-.031 5.686.891.638 1.661-1.397 2.45-5.107 1.98-2.162-.273-3.359.25-4.721 2.063-1.029 1.37-2.852 2.429-4.184 2.429-1.388 0-2.36.593-2.36 1.441 0 2.066 2.073 3.06 3.057 1.466.459-.742 1.169-1.014 1.579-.604.41.409.097 1.364-.696 2.122-2.171 2.075-6.288.246-5.442-2.418.366-1.154.183-2.007-.431-2.007-.587 0-1.067.45-1.067 1 0 1.239-1.049 1.255-2.961.045-1.973-1.248 3.505-5.671 6.424-5.187 1.12.186 1.703-.003 1.296-.418-.408-.416-.183-1.444.5-2.285 1.041-1.283.958-1.424-.509-.874-1.238.464-1.758.154-1.777-1.062-.019-1.238-.504-.949-1.731 1.031-1.679 2.707-3.242 3.604-3.242 1.859 0-.489-1.462-1.117-3.25-1.394a107.583 107.583 0 0 1-6.009-1.13c-1.687-.384-3.932-.021-5.779.935-1.661.859-3.458 1.292-3.991.962-.534-.33-.971-.166-.971.365s-.788.777-1.75.547c-2.869-.686-6.734 1.912-6.901 4.641-.084 1.356-.196 3.21-.25 4.121-.067 1.117-.717 1.495-1.997 1.16-1.986-.519-2.2-4.009-.219-3.566.614.138 1.117-.2 1.117-.75s-.675-1-1.5-1-1.5-.45-1.5-1c0-2.582-1.91-.616-2.187 2.25-.236 2.452-.743 3.178-2.063 2.956-.963-.161-1.75.176-1.75.75 0 .574-.338.97-.75.88-.412-.09-1.946.173-3.407.585-1.487.419-3.51.292-4.597-.289-1.13-.605-2.317-.668-2.843-.151-1.128 1.108-9.403 2.106-9.403 1.134 0-.392-1.636-.522-3.636-.289-2.294.268-3.406.051-3.011-.587 1.074-1.739-2.113-3.683-3.777-2.302-1.49 1.237-10.451-.395-9.175-1.672 1.629-1.629-2.614-4.125-5.093-2.996-2.108.961-2.66.854-3.521-.685-.826-1.476-1.186-1.563-1.889-.454-.682 1.077-.871.996-.883-.38-.008-.962-.577-1.637-1.265-1.5-.794.159-1.18-.763-1.059-2.523.106-1.525-.232-2.511-.75-2.191-1.354.838-1.16-.917.259-2.336.66-.66.773-1.207.25-1.215-.522-.009-.288-.434.521-.946 1.724-1.09 1.119-1.944-1.771-2.501-1.139-.219-2.583.218-3.209.972-.625.754-1.744 1.138-2.486.854-1.78-.684-5.728 1.466-4.964 2.702.328.532.959.743 1.4.47.442-.273 1.081 1.182 1.42 3.234 1.055 6.381.884 7-1.791 6.488-2.564-.49-3.323-4.258-.857-4.258 1.599 0 1.684-1.636.135-2.594-.633-.391-1.713.056-2.399.994-.945 1.293-1.373 1.39-1.769.403-.395-.985-.541-.998-.601-.053-.043.688-.806 1.25-1.696 1.25-1.124 0-1.457-.609-1.093-2 .434-1.661.03-2-2.384-2-1.916 0-2.906-.511-2.906-1.5 0-.825.536-1.5 1.191-1.5s.318-.661-.75-1.468c-1.756-1.329-1.774-1.471-.191-1.5 2.125-.039 2.284-2.355.298-4.342-.799-.798-1.247-1.657-.996-1.909.251-.251-1.165-.518-3.148-.592-3.069-.115-3.423.083-2.382 1.338.855 1.029.885 1.473.1 1.473-.617 0-1.122.9-1.122 2 0 1.98-.862 2.397-4.243 2.053-1.05-.106-2.235.942-2.98 2.635-.68 1.547-1.607 3.078-2.059 3.404-.453.325-.747 1-.652 1.5.632 3.356-.137 4.428-2.715 3.781-1.777-.446-2.43-.31-1.984.412.366.592.208 1.359-.351 1.705-.559.345-1.016.151-1.016-.431s-.9-1.059-2-1.059-2 .422-2 .938c0 2.163-5.968 7.494-7.111 6.351-.623-.623-1.827-.866-2.675-.541-.884.34-1.281.169-.929-.399.739-1.197-8.193-1.232-10.035-.04-.752.487-1.25.336-1.25-.378 0-.83-1.237-.989-4.117-.528-3.23.516-4.383.295-5.348-1.024-.864-1.182-1.441-1.34-1.941-.53-.392.633-.235 1.151.347 1.151s1.059.352 1.059.782c0 1.122-4.792 1.364-5.464.276-.31-.501-3.004-.659-5.987-.351-4.072.42-5.8.184-6.93-.946-1.627-1.626-6.619-1.25-6.619.5 0 .662-2.649.827-7.445.465-5.603-.424-7.724-.227-8.573.796-.621.747-1.844 1.084-2.719.749-1.178-.452-1.369-.242-.735.809.703 1.166.582 1.198-.678.179-.844-.683-1.827-.948-2.186-.59-.359.359.358 1.154 1.592 1.767s2.376 2.023 2.537 3.133c.242 1.675.882 1.951 3.75 1.616 2.108-.246 3.457.029 3.457.706 0 1.884 1.829 1.223 2.505-.906.351-1.108 1.096-1.732 1.654-1.387.677.418.653.99-.072 1.715-1.836 1.836-1.276 2.395 4.163 4.162 2.888.938 5.925 2.29 6.75 3.004.825.714 2.963 1.609 4.75 1.989 1.787.38 3.25 1.105 3.25 1.611 0 .507.45.921 1 .921s1-.616 1-1.369c0-1.85 6.504-2.814 9.567-1.418 1.338.609 2.433 1.516 2.433 2.015 0 .499.9.621 2 .272 1.201-.381 2-.18 2 .504 0 1.64 3.269 4.69 3.685 3.44.415-1.243 7.315-.615 7.315.665 0 .49.482.891 1.071.891 1.677 0 3.64 2.371 5.349 6.463 1.095 2.621 2.024 3.581 3.075 3.177.919-.352 1.505-.006 1.505.891 0 .808.675 1.469 1.5 1.469s1.5.502 1.5 1.117c0 .617.878.887 1.963.603 1.08-.283 2.447.069 3.037.78.59.711 1.844 1.132 2.787.934 4.442-.931 10.309-1.088 10.803-.289.301.488.967.629 1.479.312.512-.316.931-.165.931.337s1.688.866 3.75.809c3.39-.093 3.722-.343 3.455-2.603-.233-1.977-.079-2.186.735-1 .566.825 1.036 1.107 1.045.628.008-.48.637-.356 1.398.275 1.071.889 1.523.785 2-.459.874-2.279.807-2.444-.99-2.444-1.018 0-1.396-.55-1.031-1.5.777-2.025-.054-1.887-3.107.514-2.673 2.103-4.232 1.958-2.586-.24.524-.701.915-1.949.867-2.774-.115-1.981 2.42-3.929 5.164-3.968 1.21-.018 2.659-.819 3.22-1.782.953-1.636 1.021-1.628 1.05.122.025 1.544.291 1.656 1.518.638 1.202-.998 1.603-.937 2.083.314.327.852 1.12 1.373 1.762 1.158.642-.216 4.092.209 7.667.943 4.255.875 5.464 1.383 3.5 1.471-3.752.168-7.081 2.003-4 2.204 1.1.072 2.45.235 3 .363.55.128 1.563.301 2.25.385.688.083 1.25.854 1.25 1.711 0 .857.418 1.301.928.985.51-.315 1.208.311 1.551 1.391.343 1.08 1.997 3.433 3.675 5.23 1.678 1.797 2.555 3.432 1.949 3.634-1.552.517-1.371 2.733.338 4.152 1.49 1.237 1.069 4.049-.607 4.049-.524 0-.674-.45-.334-1 .808-1.308-2.098-1.285-4.566.035-2.823 1.511-2.426 3.305.566 2.554 1.969-.494 2.5-.247 2.5 1.163 0 .985 1.151 2.906 2.558 4.269 1.407 1.363 3.77 3.661 5.25 5.105 2.449 2.389 8.825 4.523 11.942 3.997.688-.116 1.25.245 1.25.802s.675.753 1.5.437c.825-.317 1.5-.078 1.5.531s.93 1.107 2.066 1.107c1.136 0 2.973.486 4.082 1.079 1.555.832 2.283.738 3.184-.412 1.412-1.804 5.828-1.691 6.446.165.275.827-.261 1.257-1.417 1.134-2.952-.312-4.361-.031-4.361.867 0 1.713 11.203 2.057 11.768.362.561-1.681 3.232-1.494 3.232.226 0 .781 1.339 1.714 2.975 2.074 1.637.359 2.874 1.162 2.75 1.784-.124.621.225 1.162.775 1.201.55.039 2.426 1.52 4.169 3.291 3.65 3.709 2.326 5.662-2.835 4.181-2.072-.594-2.834-.464-2.834.483 0 .712-.895 2.433-1.989 3.824l-1.99 2.53 2.42.607c1.331.334 3.606.157 5.055-.394 3.482-1.324 3.641-1.29 3.298.712-.435 2.536 3.066 2.813 5.297.419 1.05-1.127 1.909-2.518 1.909-3.091 0-.573.477-1.042 1.059-1.042s.781.45.441 1-.204 1 .302 1c.507 0 .686 1.225.4 2.722-.446 2.335-.615 2.451-1.189.816-.42-1.197-.921-1.496-1.35-.802-.375.606.03 1.814.899 2.683.87.87 1.211 1.582.759 1.582-.451.001.454 1.098 2.011 2.437 1.68 1.445 3.511 2.198 4.5 1.851 2.012-.705 8.376-5.265 9.403-6.736 1.293-1.854.865-4.528-.634-3.953-.769.295-1.696.056-2.059-.532-.401-.648.319-1.068 1.832-1.068 1.638 0 2.715-.706 3.145-2.061.36-1.133 1.74-2.556 3.068-3.16 1.55-.707 2.413-1.937 2.413-3.44 0-2.009.496-2.339 3.52-2.339 3.208 0 3.479-.221 3.066-2.5-.462-2.547.872-3.524 1.706-1.25.366 1 .723 1 1.783 0 1.617-1.526 5.925-1.659 5.925-.183 0 .629.862.794 2.099.402 1.155-.367 4.151-.823 6.658-1.014 2.507-.192 4.938-.935 5.401-1.651.687-1.064 1.004-1.053 1.721.059.674 1.045.976 1.073 1.294.117.272-.815 1.212-.992 2.722-.513 1.678.532 2.007 1.031 1.206 1.832-2.385 2.385-.951 3.467 1.537 1.161 2.367-2.194 3.214-2.38 8.25-1.814 6.535.736 7.267 1.128 4.741 2.542-5.601 3.134-6.812 7.812-2.022 7.812 1.601 0 2.403-.579 2.423-1.75.029-1.625.107-1.62 1.089.07 1.024 1.759 1.108 1.759 2.551 0 1.366-1.664 1.446-1.67.943-.07-.422 1.343.024 1.75 1.918 1.75 1.442 0 2.365.52 2.219 1.25-.173.864 1.218 1.239 4.5 1.213 3.848-.03 4.75.291 4.75 1.691 0 2.286 1.639 3.23 2.357 1.357.917-2.389 7.643 1.289 7.643 4.18 0 .685.563 1.033 1.25.772.688-.26 2.557.654 4.156 2.032 1.598 1.378 3.295 2.505 3.771 2.505s1.386 1.142 2.023 2.539c.644 1.415 1.729 2.318 2.451 2.042.712-.274 1.869.311 2.572 1.299 1.536 2.162 5.924 3.482 11.027 3.318 2.677-.086 3.75.298 3.75 1.341 0 .804.498 1.461 1.107 1.461s.848-.675.531-1.5c-.316-.825-.188-1.5.285-1.5s1.152 1.162 1.508 2.581c.588 2.341.993 2.528 4.358 2.005 4.537-.704 7.879 1.354 6.684 4.116-3.94 9.104-4.977 15.091-2.516 14.523.655-.151.907.187.558.75-.348.564.124 1.025 1.048 1.025 1.382 0 1.46.268.437 1.5-1.043 1.256-.886 1.5.961 1.5 3.089 0 2.1 2.195-1.77 3.93-2.342 1.05-3.212 2.115-3.27 4-.043 1.414-.307 2.005-.585 1.314-.279-.691-.989-.959-1.578-.595-.716.443-.869-.342-.463-2.374.745-3.725-1.343-3.948-5.09-.544-1.351 1.227-2.85 1.988-3.331 1.691-.481-.297-.876-.176-.879.269-.002.445-1.352 2.247-3 4.005-3.429 3.658-3.635 4.304-1.373 4.304 1.373 0 1.419.246.298 1.597-1.174 1.414-.954 1.557 1.918 1.256 1.784-.187 3.562.16 3.952.77.391.611 1.61 1.058 2.71.994 1.1-.064 2.067.333 2.15.883.082.55-.302.872-.855.715-.553-.157-1.562.177-2.242.741-.68.565-1.557.707-1.948.316-.391-.391-.467-.05-.168.758.701 1.901-1.355 5.049-2.099 3.214-.28-.691-.92-1.002-1.423-.691-.503.311-.915.12-.915-.424 0-.545 1.012-1.185 2.25-1.423 1.929-.372 1.858-.453-.5-.57-1.994-.099-2.759.345-2.782 1.614-.03 1.639-.119 1.635-1.404-.06-1.548-2.042-2.915-.767-1.929 1.8.394 1.028 1.357 1.484 2.503 1.184 1.105-.289 1.862.037 1.862.803 0 .709-.855 1.513-1.9 1.787-2.594.678-7.1-.271-7.1-1.496 0-.549-1.012-.338-2.25.468s-3.119 1.336-4.18 1.177c-1.062-.159-3.467.353-5.343 1.137-1.877.784-5.843 1.544-8.813 1.688-2.97.144-5.403.555-5.407.913-.007.626-5.896 4.554-9.007 6.008-1.143.534-1.013.717.55.771 1.127.038 2.521.541 3.097 1.117.576.576 4.889 1.207 9.585 1.403 4.695.196 9.479.86 10.631 1.476 1.151.617 3.202.92 4.557.674 1.356-.246 2.607-.019 2.781.503.583 1.748 8.444 2.126 8.632.415l.334-3.048c.091-.841 1.891-2.499 4-3.684 2.108-1.185 3.885-2.634 3.948-3.22.064-.586.176-1.724.25-2.527.1-1.08 1.836-1.551 6.635-1.803 3.921-.206 7.081-.916 7.964-1.789 1.285-1.269 1.254-1.447-.25-1.447-.943 0-1.714-.486-1.714-1.079 0-.657 1.076-.844 2.75-.478 5.461 1.196 10.061.889 11.734-.784.912-.913 2.308-1.659 3.101-1.659.793 0 2.224-.397 3.179-.883 3.106-1.581 6.684-2.949 9.236-3.534 3.3-.756 12-6.298 12-7.644 0-.581-.376-.825-.836-.541-.459.285-2.111.176-3.67-.241l-2.835-.758 3.728-2.2c2.05-1.209 4.152-2.199 4.67-2.199a.943.943 0 0 0 .943-.938c0-.516-.788-.937-1.75-.935-.962.001-4.9-.727-8.75-1.618-9.845-2.28-13.367-1.363-16.377 4.262-.656 1.226-1.885 2.229-2.73 2.229s-2.211.675-3.036 1.5c-1.571 1.571-3.842 2.093-2.97.683.278-.45-1.496-1.643-3.941-2.651-4.194-1.729-5.592-3.705-3.527-4.982.506-.313 1.631.143 2.5 1.012 1.441 1.441 1.581 1.437 1.581-.05 0-.896.359-1.408.798-1.137.439.271 1.413.112 2.166-.353.754-.466 2.418-.447 3.703.041 1.884.717 2.336.555 2.348-.838.013-1.479.154-1.511.985-.225.828 1.282.972 1.246.985-.25.008-.962-.483-1.75-1.092-1.75-.67 0-.814-.69-.365-1.75.409-.962.691-2.716.627-3.897-.081-1.509.633-2.334 2.406-2.779 1.386-.348 2.251-1.069 1.921-1.603-.549-.888 1.072-1.358 4.268-1.24.688.026 1.25-.493 1.25-1.154 0-.66.81-2.072 1.8-3.138.991-1.067 2.099-2.719 2.463-3.672.398-1.045 1.271-1.499 2.195-1.145 1.239.476 1.419.015.938-2.39-.675-3.377 2.223-6.232 6.327-6.232 1.357 0 2.277-.606 2.277-1.5 0-.825.45-1.5 1-1.5 1.362 0 1.258 1.342-.219 2.819-.958.958-.531 1.081 1.998.575 1.769-.354 3.78-.178 4.469.391.688.569 2.827 1.46 4.752 1.981 1.925.52 3.404 1.412 3.286 1.982-.238 1.153 1.324 1.379 10.541 1.522 4.485.07 6.595-.318 7.25-1.335.797-1.239 1.058-1.23 1.908.065.681 1.039.989-1.518 1-8.309.016-10.14-1.441-12.877-1.859-3.494-.13 2.917-.68 5.459-1.223 5.65-.602.212-.525.903.198 1.774 1.567 1.889 1.218 2.11-4.293 2.712-3.341.365-5.031.103-5.872-.91-.97-1.169-.713-1.423 1.442-1.423 1.442 0 2.629-.562 2.637-1.25.012-.954.196-.967.777-.053.534.841 1.2.892 2.234.174 1.121-.778 1.173-1.145.218-1.533-.691-.28-1.002-.92-.691-1.423.311-.503-.137-.915-.994-.915s-1.595.788-1.638 1.75c-.047 1.045-.282 1.247-.583.5-.278-.687-1.169-1.25-1.98-1.25-.812 0-1.217.419-.901.931 1.148 1.857-1.305 2.013-3.515.223-1.553-1.257-1.901-2.062-1.104-2.554.639-.395 1.162-.241 1.162.341a1.07 1.07 0 0 0 1.073 1.059c.591 0 .901-.788.691-1.75-.211-.962-.919-1.637-1.573-1.5-1.615.339-1.498-.586.301-2.385.821-.821 1.943-1.214 2.492-.875.55.34 1.791.158 2.758-.405 1.019-.594 1.222-1.037.482-1.055-.987-.023-.939-.68.21-2.903.818-1.58 1.204-3.155.859-3.5-.344-.345-.149-.627.433-.627 3.441 0 2.019-4.334-2.226-6.784-1.928-1.113-1.915-1.156.357-1.186 1.616-.02 2.186-.475 1.813-1.447a1.534 1.534 0 0 1 .893-1.969c1.763-.677 1.917-2.764.187-2.539-3.453.448-4.115-.131-1.914-1.672 2.17-1.521 2.193-1.664.472-2.969-.994-.754-1.358-1.436-.808-1.516 5.045-.736 6.432-.661 6.23.334-.127.621.558 1.301 1.52 1.512.962.21 1.75-.127 1.75-.75 0-.622-.375-.9-.833-.617-.459.283-.834-.14-.834-.941 0-.801.336-1.456.747-1.456.41 0 .802-19.194.869-42.652.11-38.252-.036-42.521-1.413-41.378-.845.701-1.543 2.232-1.551 3.402-.012 1.575-.239 1.776-.875.771-.609-.961-1.062-1.029-1.554-.233-.382.617-1.141.846-1.688.508-.547-.337-1.821.134-2.832 1.049-1.208 1.094-2.063 1.299-2.496.598-.872-1.411.218-3.065 2.019-3.065 2.076 0 1.772-1.978-.623-4.056-2.092-1.813-8.933-3.519-12.246-3.053-.995.14-2.345-.176-3-.703-.733-.59-2.113-.608-3.596-.047-2.265.857-2.301.987-.602 2.229 1.696 1.241 1.661 1.366-.594 2.098-4.943 1.605-6.718 1.256-7.229-1.42-.268-1.399.035-2.875.672-3.28 1.889-1.202-1.167-.932-3.482.308-3.692 1.975-5.762 4.621-4.559 5.824.8.8.783 1.1-.061 1.1-.638 0-1.735-.615-2.437-1.367-1.076-1.151-1.47-1.112-2.507.25-.867 1.138-1.241 1.229-1.263.308-.018-.732-.541-.994-1.187-.596-.715.443-.883.275-.44-.44.498-.807-.634-1.155-3.763-1.155-2.461 0-4.625.408-4.809.908-.183.499-2.75 1.164-5.704 1.477-2.954.314-5.947 1.049-6.652 1.635-.909.753-1.388.746-1.645-.025-.246-.737-1.554-.591-4.05.452-2.678 1.118-4.381 1.276-6.225.574-2.587-.983-5.557-.453-5.557.992 0 .44-.895.566-1.989.28-1.094-.286-1.766-.881-1.494-1.321.273-.441-.07-1.036-.761-1.324-.929-.386-.82-.879.42-1.891 1.551-1.268 1.523-1.464-.384-2.655-1.412-.882-2.266-.953-2.715-.226-.361.583-2.1 1.17-3.866 1.305-1.766.134-3.211.685-3.211 1.223s-.615.138-1.366-.89c-1.238-1.693-1.683-1.739-4.75-.498-1.861.754-3.715 1.846-4.119 2.427-.441.636-.74.388-.75-.622-.008-.923.601-2.294 1.353-3.046 3.336-3.336 2.782-7.619-.585-4.525-2.18 2.003-5.623 3.75-7.392 3.75-1.309 0-1.398.287-.443 1.438.973 1.172.626 1.731-1.877 3.025-1.834.948-3.071 1.161-3.071.527 0-.738-.587-.746-1.934-.025-2.221 1.188-5.115 1.407-3.566.27.55-.404.939-1.41.865-2.235-.074-.825-.186-2.314-.25-3.309-.063-.995-.572-1.526-1.131-1.181-.559.346-.758 1.047-.441 1.559.316.512.098.931-.484.931s-1.059-.45-1.059-1-.761-1-1.691-1c-1.513 0-1.497-.142.151-1.347 2.188-1.6.81-2.798-2.286-1.988-2.41.63-2.847 1.897-.924 2.673.813.328.694.532-.339.583-1.832.091-3.712-3.597-3.148-6.171.23-1.051 1.306-1.75 2.694-1.75 2.787 0 4.264-3.786 1.839-4.717-3.648-1.4-13.832 4.259-12.227 6.795 1.543 2.437 1.024 3.922-1.369 3.922-1.265 0-2.727.399-3.25.888-1.612 1.506-5.45 2.337-5.45 1.179 0-.587.702-1.067 1.559-1.067s1.281-.45.941-1c-.34-.55-.141-1 .441-1s1.059-.45 1.059-1-.702-1-1.559-1-1.293-.43-.968-.956c.325-.526 1.364-.709 2.309-.406 1.459.468 1.492.388.218-.528-1.297-.933-1.263-1.081.25-1.095 1-.008 1.757.735 1.765 1.735.013 1.496.157 1.532.985.25 1.699-2.629 1.144-3.894-1.5-3.414-1.551.281-2.558-.029-2.652-.816-.423-3.525-.308-4.458.823-6.698 1.249-2.474.963-4.072-.73-4.072-.518 0-.941.661-.941 1.469m-83.785 48.874c.279 1.461.09 2.657-.421 2.657s-.622.966-.248 2.146c.578 1.821.361 2.063-1.432 1.594-1.163-.304-2.114-.145-2.114.354 0 .498.723.906 1.607.906.891 0 1.379.557 1.096 1.25-1.955 4.782-1.958 4.751.44 4.671 1.296-.043 1.795-.306 1.107-.583-.687-.278-1.25-.944-1.25-1.48 0-.537.45-.698 1-.358.55.34 1.007.029 1.015-.691.011-.951.281-.899.985.191.646 1 .974 1.083.985.25.017-1.446 3.617-1.703 4.472-.319.317.512.111 1.218-.457 1.569-2.441 1.509.359 2.377 3.472 1.076 3.631-1.517 5.112-1.116 3.247.879-.638.683-2.073 1.055-3.189.825-1.933-.398-1.941-.361-.162.767 1.057.67 3.554.959 5.75.664 4.282-.574 4.941.146 1.882 2.057-3.12 1.948-2.411 3.271 1.096 2.049 2.273-.793 2.738-1.307 1.75-1.933-1.031-.654-.923-.857.463-.869.995-.008 1.531-.465 1.191-1.015-.34-.55.121-1 1.024-1 3.068 0 .905-2.263-4.005-4.192-2.866-1.125-6.283-1.733-8.251-1.468-2.676.36-3.326.118-3.198-1.194.279-2.868-.041-4.146-1.039-4.146-.532 0-.727.629-.431 1.399.295.769.056 1.696-.532 2.059-1.101.681-1.343-.156-1.289-4.458.019-1.54-.948-3.232-2.52-4.407l-2.552-1.908.508 2.658m-28.787 31.226c.524 2.089.311 2.52-1.142 2.308-2.267-.33-6.286.999-6.286 2.079 0 .452-.739.759-1.642.683-.904-.076-1.829.388-2.057 1.032-.269.759.336.975 1.717.614 1.462-.382 2.071-.122 1.939.829-.398 2.845.092 3.884 1.793 3.807 1.045-.047 1.247-.282.5-.583-.687-.278-1.25-.972-1.25-1.544 0-.631.584-.554 1.487.195.818.679 2.192.965 3.052.634 1.009-.387 1.316-.198.864.533-.726 1.176 2.333.842 5.858-.639 1.355-.569 1.619-.368 1.143.872-.361.94-.109 1.611.606 1.611.739 0 1.012-.808.69-2.041-.433-1.654-.17-1.926 1.383-1.433 1.345.427 1.917.131 1.917-.994 0-1.274.396-1.39 1.934-.567 2.864 1.532 4.478 1.305 2.781-.393-.785-.785-3.001-1.723-4.924-2.083-3.287-.617-3.474-.861-3.12-4.073.374-3.398.354-3.416-3.756-3.416-3.938 0-4.101.121-3.487 2.569m125.322.181c-.962.218-1.75 1.039-1.75 1.823 0 .785-.562 1.434-1.25 1.442-.854.011-.905.249-.162.75.598.404 1.326 1.681 1.617 2.837.447 1.771.063 2.114-2.44 2.186-4.617.131-4.608 1.212.009 1.212 2.26 0 4.332.363 4.606.806.897 1.451 7.536.138 6.955-1.376-.289-.752-.82-1.328-1.18-1.28-.36.048-1.993.034-3.628-.032l-2.972-.118 2.224-1.558c3.709-2.598 6.382-2.704 6.026-.238-.168 1.161.32 2.323 1.084 2.583.796.271 1.111.022.738-.582-.358-.579.142-1.26 1.111-1.513 1.517-.396 1.484-.486-.238-.646l-2-.187 2-.859 2-.859-2-.086c-1.313-.056-1.589-.347-.803-.847.798-.507.882-1.252.25-2.234-.782-1.217-1.098-1.239-1.814-.13-.724 1.121-1.346 1.109-3.75-.073-1.586-.78-3.671-1.239-4.633-1.021M137 273.716c0 2.115-.702 3.322-2.486 4.276-2.015 1.079-2.388 1.883-1.972 4.246.324 1.838.137 2.682-.506 2.284-.89-.55-6.036 3.593-6.036 4.859 0 .26.787.683 1.75.94 1.564.417 1.538.537-.25 1.126-2.144.706-3.218 5.991-1.441 7.09.536.33.697 1.048.359 1.595-1.14 1.844 2.574 4.819 4.931 3.949 1.183-.436 2.776-.575 3.54-.308.848.297 1.117.046.691-.643-.384-.622-.201-1.13.407-1.13.609 0 1.873 1.347 2.81 2.994 1.823 3.204 4.622 3.962 5.565 1.506.316-.825 1.264-1.5 2.107-1.5.842 0 1.531-.45 1.531-1 0-1.827 6.021-1.141 6.582.75.286.962 1.172 3.024 1.969 4.581.797 1.557 1.449 4.16 1.449 5.785 0 2.61.225 2.834 1.933 1.92 1.553-.832 2.05-.666 2.528.842.81 2.553 5.536 7.946 5.538 6.32.001-.772.915-.366 2.251 1 3.314 3.39 10.02 6.64 14.5 7.027.688.06 1.25.431 1.25.825 0 .394 1.151.937 2.558 1.206 1.97.376 2.426.146 1.986-1.003-.436-1.136.009-1.38 1.865-1.026 1.772.339 2.57-.038 2.921-1.38.265-1.016.075-1.847-.424-1.847-.498 0-.906.45-.906 1s-.765 1-1.7 1c-1.256 0-1.407-.293-.578-1.122 1.362-1.362.561-3.878-1.235-3.878-.744 0-1.106-.748-.845-1.75.717-2.765-1.968-5.455-6.119-6.13-3.469-.564-5.252-2.62-2.273-2.62 2.916 0 2.903-5.731-.024-10.252-.802-1.238-1.226-3.139-.943-4.223.419-1.602-.121-2.092-2.884-2.61-1.869-.351-3.399-.958-3.399-1.349s-2.015-1.718-4.477-2.948c-4.357-2.175-6.583-4.118-4.72-4.118.507 0 .729-1.238.492-2.75-.236-1.512-.426-3.554-.421-4.537.005-1.19-1-1.988-3.007-2.39-2.637-.527-2.934-.919-2.377-3.137.526-2.099.394-2.335-.769-1.369-.773.641-1.701.87-2.063.508-.362-.362-.658-.133-.658.508 0 .642.477 1.167 1.059 1.167s.762.481.399 1.068c-.363.588-1.267.836-2.008.551-.761-.292-1.617.332-1.966 1.432-.572 1.801-2.679 2.887-2.328 1.199.251-1.203-1.688-5.405-2.456-5.324-4.574.484-5.809-.007-5.16-2.051.445-1.402.307-1.898-.405-1.459-.593.367-2.216-.078-3.607-.989-2.507-1.643-2.528-1.632-2.528 1.289m-75.75.946c-1.546.624-1.661 3.338-.142 3.338.703 0 .863.98.438 2.675-.558 2.222-.434 2.477.733 1.508 2.181-1.81 2.799-.235 1.155 2.944-1.517 2.935-2.929 3.48-5.231 2.019-1.037-.657-.986-1.081.25-2.107 1.669-1.385 2.105-4.039.664-4.039-.486 0-1.131-.947-1.434-2.105-.705-2.695-3.078-1.957-3.524 1.095-.217 1.49-.607 1.903-1.078 1.141-1.876-3.035-8.338 5.707-8.235 11.141.018.974-.277 1.584-.657 1.355-.379-.23-1.139.098-1.689.728-1.457 1.669-1.768 4.645-.485 4.645.607 0 .862.39.568.866-.294.476-1.671.649-3.059.383-1.48-.283-2.524-.02-2.524.634 0 .615.659 1.117 1.466 1.117.806 0 2.829 1.333 4.496 2.963 1.667 1.63 3.962 3.461 5.099 4.07 1.654.885 1.831 1.393.881 2.537-.653.786-.794 1.462-.314 1.5.479.039-.028.498-1.128 1.021-1.864.885-1.847.921.25.523 1.237-.235 2.25-.049 2.25.413 0 .462 1.237.983 2.75 1.157 1.513.174 2.75.841 2.75 1.483 0 2.036 1.428 2.685 2.093.951.466-1.214.985-1.383 1.902-.622.88.73 2.107.726 4.05-.013 2.098-.798 2.98-.751 3.561.188.596.965 1.185.877 2.583-.383 2.776-2.502 7.311-3.384 7.311-1.421 0 1.58 1.29 1.383 7-1.071 2.894-1.243 7.481-.779 9.209.931.96.95 2.318 1.526 3.018 1.279.7-.246 2.623-.669 4.273-.938 4.959-.81 8.545-5.958 7.823-11.231-.392-2.859-.218-4.337.511-4.337.621 0 1.048-1.531.974-3.5-.083-2.191-.633-3.5-1.47-3.5-.736 0-1.338-.675-1.338-1.5 0-.833-.889-1.5-2-1.5-1.1 0-2-.436-2-.969 0-.532.675-.709 1.5-.393.825.317 1.5.095 1.5-.492s1.013-2.052 2.25-3.255c1.727-1.678 1.843-2.043.5-1.57-1.172.413-1.75.112-1.75-.911 0-.841.45-1.25 1-.91.55.34 1-.341 1-1.512 0-2.447-2.578-5.48-3.453-4.064-.341.552-1.709.351-3.314-.486-3.551-1.852-6.233-1.826-6.233.062 0 .825-.477 1.5-1.059 1.5s-.811-.402-.507-.893c.854-1.381-4.238-2.282-6.389-1.131C85.48 277.349 76 277.305 76 275.921c0-.694-1.161-.832-3.25-.385-3.773.807-5.961 2.313-5.185 3.569.299.484.083 1.67-.48 2.637-.912 1.566-1.028 1.505-1.055-.551-.018-1.429-.452-2.048-1.137-1.625-.77.476-.898-.268-.42-2.441.691-3.147-.075-3.733-3.223-2.463m247.366 1.088c-.34.962-.86 2.253-1.156 2.867-.66 1.37 5.414 4.383 8.834 4.383 1.404 0 2.771.728 3.132 1.667.48 1.251.925 1.382 1.783.524.858-.858 1.515-.837 2.63.083 1.207.996 1.394.948.997-.254-.269-.814.445-2.3 1.587-3.303l2.077-1.823-2.257.623c-1.68.463-3.025-.145-5.259-2.379-2.145-2.145-3.695-2.877-5.429-2.562-1.335.242-2.707-.014-3.05-.568-.987-1.598-3.214-1.173-3.889.742M459 285c0 .55-.624 1-1.386 1-2.507 0-6.278 2.507-5.823 3.872.339 1.018-.302 1.175-2.673.654-1.919-.421-3.118-.288-3.118.347 0 .568-1.296.868-2.88.668-2.264-.287-3.114.15-3.978 2.047-.605 1.327-1.832 2.412-2.728 2.412-1.074 0-1.421.538-1.021 1.582.334.87.607 1.77.607 2 0 1.066 2.965.236 5.115-1.433 1.312-1.018 2.962-1.65 3.666-1.406.705.245 1.155-.16 1-.899-.18-.862.885-1.456 2.969-1.657 2.414-.233 3.25.088 3.25 1.25 0 .859.477 1.563 1.059 1.563s.766-.474.408-1.053c-.889-1.439 3.346-4.956 5.14-4.268 1.54.591 1.067 1.506-2.857 5.528-.962.986-1.75 2.285-1.75 2.885 0 .601-.894 2.229-1.986 3.618-1.92 2.44-1.9 4.29.045 4.29.518 0 .941-.723.941-1.607 0-1.07.541-1.399 1.62-.985 1.979.759 5.491-2.955 4.712-4.984-.438-1.142.322-1.296 3.943-.8 3.758.515 4.837.264 6.645-1.544 1.188-1.188 3.317-2.6 4.732-3.138 1.895-.72 2.436-1.499 2.054-2.959-.285-1.089-.11-2.233.388-2.541 1.61-.995.962-2.442-1.094-2.442-1.1 0-2 .477-2 1.059s-.498.751-1.107.375c-.745-.461-.887.011-.433 1.441.4 1.261.241 2.125-.393 2.125-.587 0-1.067-.85-1.067-1.889 0-1.185-.652-1.837-1.75-1.75-.962.077-1.637-.423-1.5-1.111.334-1.671-.565-1.577-2.393.25-1.678 1.678-3.816 2.052-2.857.5.34-.55-.132-1-1.048-1-1.07 0-1.46-.537-1.09-1.5.316-.825.139-1.5-.393-1.5-.533 0-.969.45-.969 1m-146.5 86.065c-3.3.403-6.357.514-6.794.247-.436-.266-1.336-.047-2 .486-.663.534-3.231 1.418-5.706 1.964-2.475.547-5.288 1.322-6.25 1.723-1.243.518-1.75.264-1.75-.878 0-.894-.777-1.572-1.75-1.528-.962.043-1.213.297-.556.565.656.267.947 1.129.645 1.915-.302.786-.959 1.176-1.46.866-.501-.31-.617-1.04-.256-1.624.377-.609.065-.864-.734-.597-.764.254-1.445.988-1.514 1.629-.069.642-.181 1.665-.25 2.274s-.771.859-1.56.556c-.79-.303-1.656-.013-1.924.643-.371.906-.704.89-1.381-.068-.695-.983-1.618-1.009-4.173-.119-2.392.834-2.915 1.375-1.933 1.997.866.549-.168.859-2.904.869-2.337.008-4.25-.386-4.25-.876 0-3.611-18.512-4.419-22.644-.989-.915.759-2.523 1.234-3.573 1.056-1.05-.178-3.119.49-4.596 1.483-4.1 2.756-7.279 4.341-8.708 4.341-.799 0-1.092.762-.769 2 .304 1.162.031 2-.652 2-.647 0-.887-.468-.533-1.04 1.122-1.816-4.798.133-8.281 2.727-1.791 1.333-3.703 2.147-4.25 1.809-.547-.338-.994-.164-.994.386 0 1.437 1.284 2.039 5.506 2.579 2.047.262 4.571.746 5.608 1.075 1.475.468 1.889.094 1.901-1.719.011-1.67.254-1.94.87-.969 1.287 2.031 4.664.959 4.361-1.384-.232-1.79-.111-1.765 1.372.286.894 1.238 2.246 2.25 3.004 2.25 1.7 0 1.773 1.205.17 2.808-2.225 2.225 16.829.759 23.208-1.786 3.025-1.207 8.65-2.624 12.5-3.15 3.85-.525 8.8-1.21 11-1.522 2.2-.312 4.725-1.207 5.612-1.989 2.372-2.091 7.089-3.201 9.623-2.263 1.416.523 3.472.296 5.688-.63 2.308-.965 3.684-1.104 4.109-.416.754 1.22 13.533.433 14.399-.886.313-.477 1.694-1.098 3.069-1.38 4.559-.935 5.494-1.277 6.235-2.286.448-.611.74-.49.75.309.008.742.521.996 1.182.588.642-.397 7.505-.889 15.25-1.094 13.853-.367 25.663-.952 30.583-1.516 1.375-.158 2.99-.913 3.589-1.677.915-1.169 1.19-1.129 1.719.25.891 2.321 4.692 2.134 4.692-.231 0-1.544 1.047-1.989 6-2.549 3.3-.374 6-1.134 6-1.689 0-.555.45-.731 1-.391.55.34 1 .128 1-.471 0-.682-2.192-1.024-5.86-.914-3.223.097-6.335-.117-6.915-.476-.58-.358-1.244-.311-1.476.105-.232.416-.3.236-.153-.399.446-1.92-19.32-3.536-27.592-2.256-2.477.383-4.954.368-5.504-.034-.993-.726-2.695-.688-16.046.357-3.825.299-6.404.198-5.732-.225 1.573-.991-11.423-1.074-19.222-.122m-309 17.569c-1.932 3.592-1.995 5.474-1.852 55.292l.147 51.574H497.5l.111-19.5c.061-10.725.464-30.637.895-44.25.784-24.725.403-28.186-2.506-22.75-.802 1.498-.76 2 .165 2 .842 0 .909.326.212 1.023-.697.697-2.188.536-4.682-.506-2.013-.841-4.005-1.473-4.427-1.405-2.427.394-4.268-.302-4.268-1.612 0-.825-.723-1.5-1.607-1.5-1.071 0-1.399.541-.985 1.621.478 1.245.156 1.498-1.392 1.093-1.108-.289-2.271-.111-2.584.396a1.092 1.092 0 0 1-1.501.347c-.512-.316-.931-.172-.931.32 0 1.076-8.333.526-12.398-.818-2.032-.672-3.325-.604-4.326.227-1.104.916-1.6.908-2.182-.034-.916-1.482-4.094-.443-4.094 1.338 0 .702-.9 1.512-2 1.8-1.1.287-2 .06-2-.506 0-.609-.612-.521-1.5.216-.825.685-1.5.805-1.5.268 0-.556-2.911-.908-6.75-.816-3.712.088-6.975-.156-7.25-.543-.56-.788-3.991-1.194-8.5-1.004-2.324.097-2.662.344-1.5 1.095 1.16.75.821.994-1.5 1.076-18.221.647-21.5.948-21.5 1.974 0 1.29-4.365 1.892-5.698.786-.938-.779-1.302-.767-1.302.042 0 .617-.661 1.122-1.469 1.122-.866 0-1.242.59-.917 1.437a1.534 1.534 0 0 0 1.969.893c.883-.339 1.417.102 1.417 1.17 0 1.23-.494 1.518-1.75 1.021-.962-.381-2.649-.875-3.747-1.097-1.098-.222-2.148-.858-2.332-1.412-.185-.555-1.424-.736-2.754-.402-1.53.384-2.417.175-2.417-.569 0-1.261-4.077-.423-5.02 1.031-.757 1.167-6.251 3.287-7.83 3.021-.743-.125-1.083.206-.756.735.327.529-.115 1.235-.982 1.567-2.282.876-3.412.745-3.412-.395 0-.55.675-1 1.5-1 1.803 0 2.035-1.954.25-2.108-5.621-.485-12.75 1.036-12.75 2.721 0 .763-.45 1.387-1 1.387s-1 .675-1 1.5.45 1.5 1 1.5 1 .45 1 1-.675 1-1.5 1-1.5.342-1.5.759c0 1.296 4.021 3.346 5.17 2.636.618-.382.906-.123.666.597-.54 1.621-7.108 2.183-8.033.688-.384-.62-.159-1.511.5-1.98.922-.657.91-.969-.053-1.359-1.766-.717-1.551-2.401.498-3.899 2.042-1.493 1.285-2.775-1.099-1.861-.901.346-1.341 1.108-.979 1.694.431.697-.003.808-1.256.321-2.721-1.058-2.591-1.054-6.164-.207-2.913.69-4.733 3.611-2.25 3.611.55 0 1 .457 1 1.016 0 .559-1.237.953-2.75.876-1.512-.076-4.663.199-7 .612-2.745.486-4.25.385-4.25-.283 0-.568-.9-.798-2-.511-1.557.408-2 .031-2-1.702 0-1.874-.394-2.126-2.5-1.597-3.715.932-7.534-.37-8.495-2.897-.528-1.389-2.012-2.465-3.927-2.848-1.823-.365-3.078-1.238-3.078-2.141 0-.839-.413-1.525-.918-1.525-.505 0-1.595-.26-2.423-.577-.827-.318-2.395.313-3.483 1.401-2.794 2.794-6.176 3.749-6.176 1.743 0-.862.477-1.567 1.059-1.567s.781-.45.441-1 .309-1 1.441-1c1.132 0 2.059-.45 2.059-1s-.413-1-.918-1c-.505 0-1.708-.303-2.674-.674-1.353-.519-1.608-.29-1.113 1 .407 1.06.143 1.674-.719 1.674-.749 0-1.683.788-2.076 1.75-.656 1.606-.782 1.586-1.537-.25-.452-1.1-.854-1.452-.893-.781-.038.67-.686.982-1.439.693-.812-.312-1.587.311-1.906 1.531-.628 2.401-2.725 2.783-2.725.498 0-.857-.342-1.347-.761-1.089-.419.259-1.63-.164-2.691-.941-1.062-.776-1.507-1.456-.989-1.511.517-.055-.184-.414-1.559-.8l-2.5-.7 3.25-1.444c3.491-1.551 3.965-2.396 2.018-3.6-1.728-1.067-4.768-1.188-4.768-.189 0 .458-.9-.067-2-1.167s-2.54-2-3.2-2c-.933 0-.933-.267 0-1.2 2.08-2.08 1.326-2.554-2.848-1.791-2.226.407-4.593 1.485-5.259 2.396-.675.924-2.19 1.507-3.426 1.318-3.701-.565-3.818-1.718-.184-1.802 1.88-.043 2.836-.312 2.125-.597-.992-.398-1.021-.844-.127-1.921.64-.772.996-1.437.791-1.48-3.14-.645-3.874-.566-3.887.415-.011.803-.243.83-.75.089-1.1-1.605-4.088-2.474-4.762-1.383-.325.526-.167.956.351.956.519 0 1.158 1.125 1.421 2.5.396 2.075.09 2.5-1.8 2.5-1.253 0-2.507.563-2.786 1.25-.381.94-.767.878-1.557-.25-.79-1.129-.662-1.584.517-1.841 1.278-.279 1.181-.611-.528-1.808-2.773-1.942-4.382-.789-3.861 2.766.322 2.191-.133 3.245-1.903 4.405-1.28.838-2.327 1.237-2.327.886 0-.351-1.125.099-2.5 1s-2.5 1.178-2.5.615-.408-1.023-.906-1.023c-.499 0-.681.863-.405 1.918.371 1.418-.11 2.034-1.844 2.364-1.567.298-1.101.491 1.405.582 2.604.094 3.75-.29 3.75-1.257 0-.766.729-1.673 1.621-2.015 1.246-.478 1.498-.156 1.093 1.393-.441 1.685-.042 2.015 2.439 2.015 1.846 0 2.716.403 2.306 1.067-.396.64.08.94 1.191.75 2.065-.354 2.121-.083 2.979 14.433l.518 8.75h-2.967c-3.004 0-4.18-1.413-4.18-5.025 0-1.024-.879-2.477-1.954-3.23-1.929-1.351-4.579-10.073-3.562-11.72.913-1.476-.593-3.92-2.067-3.355-.988.379-1.422 2.251-1.432 6.187-.022 7.925-.118 7.996-10.563 7.807-9.298-.168-11.174-.894-12.697-4.914-.73-1.93-6.725-2.535-6.725-.679 0 1.304-2.513 3.929-3.761 3.929-.497 0-1.317-2.104-1.821-4.676-.505-2.571-1.403-4.833-1.996-5.025-1.128-.367-3.699 4.119-3.84 6.701-.06 1.106-1.195 1.467-4.315 1.373-2.328-.069-3.989.268-3.691.75.298.483.145.877-.341.877-.485 0-1.299-1.64-1.809-3.645-1.229-4.835-5.035-6.513-6.434-2.835-.518 1.364-1.404 2.48-1.967 2.48-.564 0-1.025.702-1.025 1.559s-.45 1.281-1 .941c-.55-.34-1-.141-1 .441s-.9 1.059-2 1.059c-2.4 0-2.804-3.754-.5-4.638 1.816-.697 1.992-2.361.25-2.365-.687-.001-2.15-1.35-3.25-2.997-1.726-2.584-4.571-4.543-3.07-2.113 1.606 2.598-7.341 4.13-9.429 1.615-.689-.831-1.337-4.146-1.439-7.367-.158-4.948-.677-6.451-3.347-9.69-3.753-4.553-4.522-4.105-4.863 2.834-.141 2.872-.445 6.346-.676 7.721l-.548 3.25c-.313 1.84-3.14.537-3.256-1.5-.576-10.156-1.325-11.713-5.321-11.065-5.608.91-8.548-.276-8.566-3.454-.025-4.44-1.38-5.592-6.658-5.665l-4.827-.066-.31-4.304c-.519-7.196-5.14-6.778-5.175.468-.014 2.959-.192 3.116-2.759 2.429-2.193-.586-2.866-1.477-3.345-4.425-.732-4.506-1.201-5.028-3.778-4.21-1.445.458-2.105 1.67-2.326 4.264-.342 4.038-2.26 5.476-3.087 2.315-.675-2.58-3.72-1.67-3.72 1.112 0 4.072-3.271 6.017-8.872 5.274-5.396-.716-5.475-.826-5.488-7.573-.002-1.208-.91-1.65-3.388-1.65-1.862 0-3.189.196-2.949.436 1.143 1.144-2.241 7.864-3.96 7.864-1.014 0-1.892-.45-1.951-1-.557-5.166-6.392-12.545-6.392-8.083 0 .779-.367 1.566-.815 1.75-.448.183-1.521 2.133-2.384 4.333l-1.57 4-6.366.315c-10.85.537-14.721-.445-16.505-4.186-.848-1.778-2.513-3.66-3.701-4.181-1.434-.63-2.327-2.123-2.659-4.448-.752-5.264-4.76-5.46-7.5-.366m192.001 4.432c-1.649.492-3.579 1.688-4.289 2.659-1.055 1.443-1.446 1.514-2.14.392-.466-.755-1.356-1.059-1.977-.676-.62.383-.826 1.186-.457 1.783.401.647.206.797-.483.371-.691-.427-1.155-.063-1.155.905 0 .89-.457 1.335-1.016.99-.559-.346-.758-1.047-.441-1.559.316-.512.125-.931-.425-.931s-1.278.45-1.618 1c-.34.55-1.759 1-3.153 1-1.667 0-2.708.664-3.041 1.939-.478 1.828-.63 1.799-2.657-.512-1.998-2.279-2.339-2.35-4.855-1.021-1.488.786-3.605 1.195-4.703.907-4.259-1.113-10.609 4.086-7.341 6.011 1.487.875 5.25-1.299 5.265-3.042.013-1.471.176-1.529.934-.33.506.799.705 1.798.444 2.221-.916 1.482 4.193 1.901 13.607 1.118 9.397-.782 9.503-.821 9.816-3.541.174-1.512.737-2.75 1.25-2.75.514 0 .822.563.684 1.25-.609 3.045 14.455-.082 17.595-3.652 1.822-2.072 1.807-2.102-1.196-2.407-2.167-.221-2.882-.724-2.488-1.75.631-1.645-1.473-1.772-6.16-.375M246 431c0 .615-.468.829-1.04.475-1.14-.704-.536 3.072 1.243 7.775.758 2.006.697 3.577-.226 5.806-1.608 3.881-.378 5.277 4.734 5.373 2.947.056 3.823.5 4.079 2.071.718 4.395 1.099 4.835 2.909 3.363 1.456-1.185 1.593-1.143 1.045.321-.464 1.238-.117 1.644 1.313 1.537 2.158-.163 2.686-3.255.693-4.059-1-.403-1-.52 0-.583.688-.043 1.25-.559 1.25-1.146 0-.588-.841-.801-1.87-.474-1.476.468-1.997-.044-2.475-2.433-.37-1.852-1.225-3.026-2.201-3.026-.878 0-2.272-.675-3.097-1.5-.825-.825-1.157-1.5-.737-1.5.419 0-.111-.645-1.179-1.433-1.439-1.062-1.651-1.727-.819-2.572 1.202-1.22-.331-5.972-1.931-5.987-.445-.004-.55-.427-.234-.939.317-.512.118-1.213-.441-1.559-.559-.345-1.016-.125-1.016.49m243.43 25.887c.301.487-.084 1.411-.857 2.053-1.112.922-1.478.792-1.751-.625-.323-1.679-.473-1.666-2.376.196-1.118 1.094-2.766 2.113-3.663 2.266-2.171.367-3.405-1.769-1.661-2.873 1.111-.704 1.062-.876-.255-.889-1.764-.016-3.376 5.24-1.785 5.818.505.184.954 1.084.997 2 .049 1.04.269 1.197.583.417.278-.687.903-1.25 1.39-1.25.487 0 .626.675.31 1.5-.317.825-.104 1.5.472 1.5 1.04 0 2.621-1.889 2.651-3.167.046-2.011 1.526-1.778 1.585.25.063 2.162.151 2.211.832.471.706-1.803.81-1.766 1.414.5.451 1.69.139 2.829-1.009 3.686-.913.681-1.356 1.544-.984 1.916.372.373.677.322.677-.112s.655-.245 1.456.42c1.992 1.653 4.046.346 2.46-1.565-.945-1.139-.636-1.93 1.544-3.949 1.658-1.537 2.493-3.13 2.132-4.07-.325-.849-.592-2.407-.592-3.462 0-1.27-.696-1.918-2.059-1.918-1.132 0-1.812.399-1.511.887" fill="#d3d3d3" fill-rule="evenodd"/></svg>