<svg xmlns="http://www.w3.org/2000/svg" width="500" height="752"><path d="M0 376.002v376.002l250.25-.252 250.25-.252.251-375.75L501.003 0H0v376.002m.495.498c0 206.8.115 291.251.255 187.669.14-103.583.14-272.783 0-376C.61 84.951.495 169.7.495 376.5M66.097 41.179C53.3 46.093 46.226 60.108 50.031 73.007c.566 1.921 1.948 8.218 3.069 13.993 5.731 29.511 15.118 50.611 34.704 78 12.924 18.074 17.649 33.076 16.975 53.901-.493 15.228-1.953 20.385-6.966 24.603-7.419 6.242-17.698.665-24.822-13.469-10.014-19.866-20.097-71.99-22.737-117.535-.415-7.15-1.123-12.775-1.573-12.5-1.108.676-1.813 150-.708 150 .477 0 1.173-1.463 1.545-3.25 1.782-8.551 10.881-38.736 11.467-38.04.366.435 2.128 5.352 3.916 10.928 14.074 43.884 36.087 47.873 48.414 8.773 6.654-21.104 9.26-47.076 10.243-102.068.593-33.149.485-37.698-1.002-42.173-3.239-9.754-12.673-15.814-37.556-24.126-16.024-5.353-20.233-7.975-19.809-12.341.443-4.566 4.26-6.212 14.309-6.168 13.716.06 24.492 6.869 32.678 20.647 2.222 3.741 4.412 6.571 4.866 6.291.455-.281.794-6.911.755-14.734l-.071-14.222-5.331 5.96-5.331 5.96-2.783-2.557c-10.287-9.455-25.585-12.54-38.186-7.701m299.252 40.353c-.218.568-.273 9.314-.122 19.435l.273 18.403 6.765-11.952C380.432 92.99 387.248 84 390.02 84c1.975 0 1.989.714 1.735 87.25l-.255 87.25-4.802.307-4.803.307.303 4.693.302 4.693h53.946l.13-4c.171-5.263-.726-6.204-5.549-5.822l-4.027.318v-87.498c0-95.954-.325-91.117 5.695-84.748 3.738 3.956 12.538 17.628 16.412 25.5 1.827 3.713 3.676 6.75 4.108 6.75.432 0 .785-8.541.785-18.98V81.041l-44.128-.271c-29.656-.181-44.257.068-44.523.762m-135.355 1.479c-.615 1.149-1.73 3.754-2.477 5.789-.747 2.035-3.658 9.289-6.47 16.12-5.074 12.33-5.122 12.549-6.582 30-6.572 78.587-12.149 119.794-17.421 128.731-1.127 1.91-2.044 5.232-2.044 7.406V275h23v-4.263c0-3.461-.423-4.448-2.25-5.25-6.321-2.773-8.171-32.746-4.413-71.487 2.335-24.071 1.043-21.562 11.014-21.395 4.636.078 8.86.407 9.387.733.526.325 1.257 5.445 1.625 11.377.567 9.157 2.203 31.692 5.267 72.535l.657 8.75H231v9h49.115l-.308-4.25c-.288-3.989-.506-4.269-3.557-4.563-3.02-.292-3.25-.574-3.25-3.987 0-2.02-.666-11.104-1.481-20.186-2.107-23.509-4.27-49.592-6.55-79.014-3.508-45.252-3.175-43.296-10.816-63.5l-6.807-18-8.117-.29c-7.367-.262-8.22-.096-9.235 1.801m-9.252 28.739c-1.784 4.677-2.766 9.668-3.198 16.25-.733 11.167-2.394 29.331-3.04 33.25l-.454 2.75h18.173l-.565-3.25c-.311-1.787-1.069-11.35-1.684-21.25-.983-15.826-4.419-34.5-6.348-34.5-.171 0-1.468 3.037-2.884 6.75M295 112.943c0 .581 1.012 1.064 2.25 1.072 1.238.009 2.7.346 3.25.75.65.478 1 24.391 1 68.235v67.5h-3c-2.654 0-3.036.375-3.313 3.25l-.314 3.25h35.254l-.314-3.25c-.262-2.725-.676-3.199-2.563-2.937-1.238.172-2.263-.053-2.279-.5-.039-1.098-.041-68.173-.002-91.563L325 140h2.461c4.149 0 4.675 4.808 5.629 51.499.889 43.529 1.4 50.438 4.39 59.442 4.457 13.419 16.397 12.977 20.965-.776 1.708-5.142 4.555-25.691 4.555-32.877 0-7.889-1.705-4.4-2.409 4.931-.383 5.071-.922 9.445-1.198 9.721-1.592 1.592-2.364-4.23-2.38-17.94-.042-36.776-4.365-63.508-11.517-71.22-2.782-3.002-3.053-3.78-1.312-3.78.652 0 3.085-.92 5.407-2.044 10.308-4.99 9.409-17.861-1.591-22.778-4.311-1.927-53-3.062-53-1.235m29.462 2.295c-.295.768-.407 6.092-.249 11.83l.287 10.432 2.689.311c4.921.568 6.811-2.656 6.811-11.62 0-4.728-.493-8.439-1.25-9.406-1.772-2.266-7.595-3.352-8.288-1.547m-181.795 10.429c-1.031 1.03-.788 18.333.257 18.333.508 0 2.17-2.461 3.693-5.469 3.647-7.203 8.004-12.31 9.351-10.963.678.678.939 21.976.777 63.432l-.245 62.41-2.5.59c-1.613.381-2.5 1.284-2.5 2.545 0 1.836.871 1.972 14.25 2.232l14.25.278v-2.458c0-1.788-.614-2.545-2.25-2.777l-2.25-.32-.257-63.25c-.165-40.306.093-63.25.711-63.25 1.562 0 4.461 3.58 8.519 10.518 2.085 3.565 4.069 6.483 4.409 6.484.34.001.475-4.274.299-9.5l-.318-9.502h-22.765c-12.521 0-23.065.3-23.431.667M370.705 227.75c-.84 21.88-3.894 31.204-13.659 41.701-9.173 9.86-8.916 11.345 4.109 23.719 10.582 10.053 12.244 13.235 8.971 17.179-3.67 4.421-9.12 2.367-11.193-4.22-.628-1.996-2.266-5.376-3.64-7.512l-2.497-3.883-8.648.516c-4.982.297-10.792 1.342-13.705 2.464-4.438 1.709-5.516 1.789-8.793.654-10.425-3.609-30.649-3.978-42.975-.784-5.736 1.487-6.73 1.475-14.172-.169-11.229-2.481-29.724-2.499-39.328-.039-6.295 1.612-7.702 1.688-10 .538-1.899-.95-9.489-1.494-26.175-1.876l-23.5-.538-.305-4.75c-.366-5.707-.213-5.683-6.213-1-2.643 2.063-8.218 6.225-12.389 9.25-4.171 3.025-7.473 5.819-7.338 6.21.391 1.132 24.678 18.79 25.844 18.79.622 0 .928-1.744.746-4.25l-.307-4.25 18.231-.273c10.027-.149 18.231-.009 18.231.313 0 .321-.728 2.811-1.619 5.533-2.099 6.419-1.555 21.915.935 26.636 7.958 15.085 26.403 15.028 33.23-.102 6.28-13.919 2.407-33.093-8.716-43.142l-3.873-3.498 2.76-1.05c7.532-2.863 13.701-.537 14.853 5.602 1.334 7.115 3.809 9.481 9.915 9.481 3.033 0 5.508.113 5.5.25-.008.137-.664 2.05-1.456 4.25-.793 2.2-1.445 5.125-1.449 6.5-.005 1.652.656.654 1.95-2.944 2.645-7.357 2.964-7.56 11.773-7.526 12.231.048 20.062 4.543 22.283 12.79 3.024 11.231-5.452 21.867-17.56 22.032-9.346.127-15.017-4.9-18.445-16.352-.936-3.126-.994-2.879-.547 2.324 1.153 13.406 9.588 22.682 20.617 22.672 19.92-.017 25.135-38.131 7.358-53.779l-4.586-4.037 3.289-1.033c9.018-2.833 12.586-.979 14.764 7.673 1.656 6.574 2.427 7.18 9.146 7.18 3.233 0 5.873.113 5.867.25-.006.137-.682 2.462-1.502 5.165-1.41 4.65-1.294 8.016.137 3.978 2.821-7.956 3.055-8.222 7.864-8.943 5.992-.899 14.656.858 20.172 4.091 2.387 1.399 4.353 2.637 4.368 2.751.016.114.923 2.683 2.018 5.708l1.989 5.5-.492-6.882c-.592-8.273-3.047-13.737-9.293-20.685-5.246-5.835-4.814-6.892 2.826-6.918 4.866-.016 8.924 2.839 8.924 6.279 0 3.584 3.165 9.53 5.322 10 5.977 1.301 17.91-.182 21.712-2.698 6.278-4.155 6.115-5.368-2.437-18.047-8.327-12.347-8.826-14.249-5.041-19.212C372.943 264.342 379.897 213 373 213c-1.534 0-1.792 1.658-2.295 14.75M205.85 315.611c-5.271 1.588-7.631 18.687-3.568 25.859 11.433 20.186 41.681 3.983 31.638-16.948-2.886-6.014-19.829-11.393-28.07-8.911m98.531 21.889c2.108 16.465 14.66 25.531 27.046 19.535 5.231-2.532 7.591-5.496 9.923-12.463 1.908-5.7 2.329-13.058.49-8.572-3.85 9.394-6.434 11.956-14.203 14.081-8.609 2.355-18.402-3.012-20.783-11.39-1.812-6.377-3.224-7.057-2.473-1.191M252.5 376.868c.55.538 2.35 1.125 4 1.305l3 .327.256 77.689.256 77.69-3.756.31c-3.567.295-3.756.487-3.756 3.811v3.5l20.638.27 20.639.27.414-3.551c.503-4.305.345-4.489-3.858-4.489H287V419.901l5.856.662c12.203 1.381 21.151-3.859 26.575-15.563 4.931-10.639 2.351-22.057-5.971-26.423-3.7-1.94-5.867-2.097-32.96-2.382-18.914-.199-28.652.035-28 .673m35.024.942c-1.072 1.071-.547 34.19.542 34.19 2.187 0 4.96-2.15 6.424-4.98 1.951-3.774 2.153-24.828.26-27.213-1.26-1.588-6.255-2.968-7.226-1.997M172 378.94c0 .516 1.545 1.079 3.434 1.25l3.434.31.459 53.5c.588 68.498 2.286 84.114 10.906 100.285 7.256 13.614 20.531 16.65 29.089 6.651 10.789-12.604 14.556-45.313 14.645-127.186.032-28.393.124-29.841 2.033-31.75 1.1-1.1 2.9-2 4-2s2-.45 2-1c0-.596-3.833-1-9.5-1-9.255 0-12.486 1.153-6.554 2.339 5.547 1.11 5.566 1.284 5.419 48.661-.217 69.993-3.438 96.355-12.302 100.681-5.899 2.88-9.554-4.034-10.97-20.757-.532-6.283-1.25-37.861-1.595-70.174l-.629-58.75h4.066c2.236 0 4.065-.45 4.065-1 0-.635-7.667-1-21-1-12.434 0-21 .383-21 .94m177.561 18.961c-.306.496-.987 5.062-1.513 10.147-1.138 10.993-4.423 18.611-9.796 22.71-3.495 2.667-4.038 2.756-19.723 3.242-13.179.409-16.624.824-18.829 2.273l-2.7 1.773v30.152l3.106 2.901c1.708 1.595 3.62 2.946 4.25 3.002.629.055 10.144.168 21.144.25l20 .149.088 4c.048 2.2.425 4.164.838 4.364 1.2.582 24.773-18.072 23.881-18.897-2.625-2.429-23.43-16.967-24.281-16.967-.564 0-1.026 2.013-1.026 4.473v4.474l-14.75.276-14.75.277-3.764 7.75c-4.119 8.482-5.529 9.274-10.101 5.677-4.738-3.726-3.687-6.929 4.615-14.067 9.701-8.34 9.695-8.333 10.343-11.575.616-3.078-1.5-5.787-5.022-6.432-1.061-.194-1.736-.803-1.5-1.353.246-.574 5.535-1.066 12.429-1.155 20.942-.271 34.708-7.457 41.845-21.845 3.176-6.401 4.471-14.369 2.535-15.595-1.825-1.156-16.605-1.159-17.319-.004M314 503c2.545 2.545 2.517 3.046-.5 9-2.842 5.609-3.231 7.873-.961 5.604.995-.995 2.525-1.341 4.334-.979 2.273.454 3.292-.033 5.461-2.61 5.535-6.578 2.187-13.015-6.768-13.015H312l2 2m19.111.56c-3.956 3.329-4.682 7.511-3.18 18.313 3.852 27.714 16.405 27.584 20.104-.208 1.455-10.939.785-14.797-3.146-18.105-5.803-4.883-5.889-4.628-5.889 17.44 0 12.667-.367 20-1 20s-1-7.333-1-20c0-22.068-.086-22.323-5.889-17.44m28.054-1.704l-2.334.656.123 18.744c.082 12.378-.229 18.744-.915 18.744-.571 0-1.039.45-1.039 1 0 .564 2.833 1 6.5 1s6.5-.436 6.5-1c0-.55-.45-1-1-1-.632 0-1-7.167-1-19.5V501l-2.25.1c-1.238.055-3.301.395-4.585.756m22.335.311c-6.917 3.826-8.165 7.931-6.496 21.365 1.918 15.431 7.067 22.996 12.803 18.806 4.441-3.244 6.55-8.818 7.016-18.541.5-10.434-.164-13.618-3.066-14.691l-2.183-.808 2.213-1.184c3.557-1.904 1.73-6.114-2.654-6.114-1.91 0-2.474 4.277-.732 5.551 1.489 1.089 1.445 1.256-.453 1.752-1.275.334-2.024 1.265-1.908 2.373.666 6.381-.184 30.324-1.078 30.324-1.317 0-1.151-35.747.179-38.25 1.092-2.056-.513-2.313-3.641-.583m-60.001 15.836l-1.815 4.024-5.092-.638a1254.11 1254.11 0 0 1-6.014-.763c-1.536-.21-3.426 7.499-3.401 13.874.014 3.852.265 5.132.7 3.574 1.052-3.762 2.576-3.498 5.524.956 5.498 8.308 9.75 3.219 11.601-13.885 1.274-11.764 1.053-12.812-1.503-7.142m-149.084 53.146c-4.926 1.314-7.349 6.67-5.125 11.332 3.149 6.604 11.346 7.019 15.002.759 3.821-6.543-2.351-14.1-9.877-12.091M106 579.031c0 9.075.54 9.74 6.738 8.299 10.553-2.454 7.6-16.265-3.488-16.315L106 571v8.031m2.494-6.192c-.272.272-.494 3.344-.494 6.828 0 6.246.038 6.333 2.75 6.318 5.367-.03 7.962-4.386 5.749-9.65-1.201-2.857-6.381-5.119-8.005-3.496m63.961 1.616c-1.35 1.35-2.455 3.172-2.455 4.049 0 2.133 2.822 7.496 3.944 7.496.491 0 1.594.269 2.452.599 2.044.784 7.604-4.749 7.604-7.568 0-2.724-4.288-7.031-7-7.031-1.15 0-3.195 1.105-4.545 2.455M106 612.943c0 4.705.416 8.057 1 8.057.55 0 1-.9 1-2 0-2.694 2.727-2.557 5.004.25 1.003 1.237 2.187 1.888 2.631 1.446.444-.443.17-1.199-.609-1.68-1.194-.738-1.113-1.439.52-4.471 2.813-5.225.713-8.912-5.328-9.352l-4.218-.308v8.058" fill="#d3d3d3" fill-rule="evenodd"/></svg>