<svg xmlns="http://www.w3.org/2000/svg" width="500" height="709"><path d="M313.325 94.209a184.63 184.63 0 0 0-3.728 8.791c-.321.825-1.005 2.175-1.518 3-.514.825-1.178 2.287-1.475 3.25-.298.963-1.455 1.75-2.573 1.75-1.207 0-2.031.658-2.031 1.622 0 1.329.271 1.398 1.5.378.906-.752 1.5-.833 1.5-.206 0 .572-.446 1.189-.991 1.373-.546.183-1.167 1.683-1.381 3.333-.214 1.65-1.544 5.444-2.956 8.432-1.411 2.987-2.338 5.8-2.06 6.25.278.45-.196.818-1.053.818s-1.559.475-1.559 1.055c0 1.01-6.439-5.648-12.626-13.055-6.136-7.347-6.308-5.982 2.04-16.156 4.172-5.085 7.586-9.605 7.586-10.045 0-.439-3.076-.799-6.836-.799-6.73 0-6.893.063-10.489 4.069-2.009 2.239-4.056 4.789-4.548 5.668-.949 1.697-2.574-4.861-1.935-7.812.236-1.091-1.158-1.495-5.942-1.723l-6.25-.297v21.047c0 11.577-.338 21.067-.75 21.091-.412.023-2.775 1.822-5.25 3.997l-4.5 3.955 5.501.002c4.979.003 6.094-.437 11.75-4.629 6.217-4.609 6.249-4.658 6.319-9.75.052-3.781.295-4.596.93-3.118.473 1.1.891 1.584.93 1.076.103-1.36 5.07 3.554 5.07 5.015 0 .683.563 1.469 1.25 1.745.788.318-.484 2.196-3.442 5.084l-4.692 4.58h6.534c5.052 0 7.12-.46 9.115-2.03 1.704-1.34 2.808-1.661 3.25-.945 1.335 2.159 9.976.764 13.727-2.217 3.106-2.469 4.373-2.808 10.477-2.808 6.453 0 7.246-.247 11.205-3.491 2.343-1.92 4.629-3.158 5.079-2.75.449.407.494.179.098-.509-.395-.687-.294-1.25.226-1.25.521 0 1.15 1.388 1.399 3.085.39 2.662-.141 3.581-3.887 6.711-2.386 1.995-4.339 3.916-4.339 4.269 0 1.675 10.676-.492 13.327-2.705 1.554-1.298 3.493-2.36 4.309-2.36.815 0 1.218-.427.895-.95-.323-.522.354-1.454 1.505-2.069 2.601-1.392 1.989-5.612-1.627-11.21-1.325-2.05-2.409-4.216-2.409-4.811 0-.596-1.081-3.418-2.402-6.272-1.32-2.853-3.764-8.338-5.429-12.188l-3.029-7-6.379-.291c-5.816-.266-6.472-.09-7.436 2m94.093.263c-.354 1.408-.389 3.53-.079 4.716.442 1.689-.668 3.298-5.138 7.446-5.339 4.955-5.534 5.294-3.073 5.329 1.445.02 3.165-.611 3.823-1.404.657-.792 1.837-1.194 2.622-.893.943.362 1.427-.131 1.427-1.452 0-1.1.675-2.259 1.5-2.576 2.015-.773 2.07-.968-2.663 9.364-2.558 5.585-4.631 8.907-5.378 8.621-2.122-.814-3.261 1.436-2.73 5.393.465 3.468.154 4.148-3.281 7.158-7.425 6.509-7.339 6.261-2.387 6.886 5.927.747 13.689.22 15.21-1.033 7.336-6.045 9.432-7.867 11.416-9.923 1.272-1.318 2.313-3.005 2.313-3.75 0-.745.337-1.301.75-1.236 2.194.347 4.296-.235 3.793-1.049-.317-.512-.131-1.206.413-1.542.617-.381.849 1.167.617 4.118-.333 4.214-.901 5.188-5.223 8.946-5.777 5.024-5.686 5.209 2.656 5.41 11.252.271 11.392.233 16.333-4.501 2.583-2.475 5.138-4.5 5.679-4.5.54 0 .982-2.25.982-5 0-4.376-.256-5-2.053-5-1.569 0-2.762-1.588-5.067-6.75-6.052-13.549-10.329-22.765-10.848-23.377-.293-.344-5.131-.927-10.752-1.293l-10.22-.667-.642 2.559m-300.497-.427c-.481.299-.997 9.383-1.148 20.186l-.273 19.641-2.939 3.067c-1.88 1.96-3.187 2.666-3.625 1.957-.501-.811-.87-.811-1.37-.003-.376.609-.129 1.107.549 1.107.681 0 .181 1.121-1.115 2.5l-2.349 2.5h5.979c5.497 0 6.245-.276 9.305-3.433 1.83-1.888 4.618-3.968 6.196-4.621 2.694-1.116 2.869-1.544 2.869-7.005 0-5.2.212-5.801 2-5.666 1.198.09 2 .867 2 1.938 0 .983.477 1.787 1.059 1.787s.735.563.34 1.25c-.396.688-.354.919.094.513.986-.892 5.66 5.181 4.915 6.386-.289.468-1.201.851-2.026.851-.825 0-1.222.45-.882 1 .34.55-.084 1-.941 1s-1.559.46-1.559 1.021c0 .562-1.111 1.528-2.469 2.147-3.72 1.695-2.064 2.832 4.124 2.832 5.294 0 11.345-2.28 11.345-4.275 0-.463.484-.544 1.075-.178.679.419.224 1.454-1.235 2.809l-2.31 2.144 5.73.3c5.258.275 6.118.003 10.446-3.302 4.269-3.259 5.242-3.576 10.255-3.341 4.02.188 6.293-.241 8.289-1.564 1.512-1.003 2.757-1.434 2.765-.958.008.476.584-.26 1.279-1.635 1.222-2.415 5.19-3.555 5.221-1.5.009.55.347 1.521.753 2.158.45.707-1.308 2.936-4.516 5.726l-5.252 4.567 5.368.025c4.557.02 5.884-.429 8.785-2.976 1.879-1.65 4.401-3 5.604-3h2.188l-2.239 1.568c-3.285 2.301-1.775 3.467 3.588 2.771 5.434-.704 16.839-8.472 17.383-11.839.232-1.439.96-1.911 2.594-1.684 1.531.214 3.812-1.045 7-3.86 2.601-2.297 5.741-4.566 6.979-5.042 1.807-.694 2.25-1.641 2.25-4.807 0-6.311-.693-7.255-4.761-6.492-4.417.829-3.786-.455 2.273-4.623 2.593-1.784 4.2-3.58 3.9-4.36-.279-.729-.608-2.632-.73-4.229l-.222-2.903-14.902-.278c-8.856-.165-15.303.123-15.889.709-.57.57-1.043 9.16-1.121 20.384l-.136 19.398-2.832 2.625c-2.866 2.656-5.698 2.713-3.504.07 1.366-1.645.549-7.009-1.423-9.342-.727-.861-4.173-8.316-7.656-16.566-7-16.579-6.914-16.463-12.313-16.485-5.22-.021-7.173 1.25-9.022 5.871-.868 2.169-2.054 4.238-2.636 4.598-.582.36-.8 1.073-.483 1.585.316.512.098.931-.484.931s-1.006.338-.941.75c.346 2.191-.296 4.285-1.764 5.753-.905.905-1.76 2.692-1.901 3.972-.392 3.575-1.496 6.525-2.441 6.525-.469 0-1.14 1.463-1.491 3.25-.896 4.57-2.643 7.793-3.826 7.061-.552-.341-.72-.161-.373.401.347.561-.259 1.826-1.346 2.809-1.664 1.506-1.976 1.547-1.976.256 0-.842.675-2.092 1.5-2.777 2.007-1.666 1.904-2.31-.815-5.114-1.273-1.312-3.56-4.052-5.082-6.088l-2.767-3.701 3.582-3.582c6.097-6.097 4.394-17.78-3.143-21.565-2.781-1.396-25.619-2.987-27.354-1.905m240.996.372c-.229.229-.342 9.566-.249 20.75l.167 20.333-6 4.5-6 4.5 5.302.31c3.917.229 5.6-.098 6.443-1.25.627-.858 1.424-1.56 1.772-1.56 1.642 0 10.216-7.483 10.732-9.368.322-1.172.398-5.947.17-10.61l-.415-8.478 2.057 1.862c1.131 1.024 1.845 2.204 1.586 2.623-.259.419.202 1.019 1.024 1.335.822.315 1.494 1.254 1.494 2.086 0 3.039 4.953 3.05 7.323.017a160.237 160.237 0 0 1 4.428-5.377l2.251-2.59-.116 11.15-.115 11.15-4.403 3.299c-5.313 3.981-5.143 5.306.73 5.696 3.819.254 4.839-.12 7.286-2.674 1.764-1.841 3.438-2.743 4.404-2.372 1.134.435 1.389.156.937-1.024-.414-1.079.037-1.832 1.346-2.248 1.887-.598 1.958-1.488 1.699-21.301L391.5 94.5l-6-.219-6-.219-4.5 5.441c-2.475 2.993-5.048 5.454-5.718 5.47-.669.015-3.086-2.448-5.37-5.473L359.76 94h-5.713c-3.143 0-5.901.187-6.13.417M74 96.259c-5.944 1.962-12.604 9.696-13.378 15.535-.801 6.037.95 14.83 3.497 17.564 1.035 1.111 1.881 2.636 1.881 3.39 0 .781.496 1.063 1.155.657.763-.473.88-.271.345.595-.46.744-.414 1.065.107.743.503-.311 1.682-.005 2.619.68 1.539 1.126 1.266 1.663-2.817 5.555-5.103 4.864-4.841 5.858 1.591 6.031 10.168.275 15.292-1.541 20.946-7.424 1.896-1.972 4.146-3.599 5-3.617 4.173-.085 5.423-2.656 5.874-12.081.469-9.822-.142-11.217-4.57-10.423-3.365.603-2.718-1.12.675-1.799 3.096-.619 3.93-2.646 3.229-7.851-.899-6.668-15.799-10.972-26.154-7.555m161.941 9.491c-.033 5.912-.048 15.235-.034 20.716l.025 9.965-3.473 2.863c-6.073 5.007-6.334 6.706-1.028 6.706 3.919 0 5.159-.583 9.569-4.5 2.787-2.475 5.727-4.5 6.533-4.5 1.582 0 2.192-27.431.831-37.36l-.636-4.64H236l-.059 10.75M40.847 166.801l-4.654.301-.346 4.212c-.191 2.317-.196 11.976-.012 21.465l.334 17.253 35.666-.547c47.728-.732 256.261-1.646 297.665-1.305 39.082.322 91.483-.06 93.25-.679 2.038-.714 1.776-40.085-.272-40.871-.837-.321-42.574-.363-92.75-.092-109.149.588-125.07.605-237.228.243-47.85-.155-89.094-.146-91.653.02m-2.167 56.022c-1.471.283-1.68 1.944-1.68 13.334 0 7.155.395 12.86.877 12.676 1.833-.697 25.94-24.381 25.785-25.333-.149-.919-20.813-1.479-24.982-.677M65.879 237c-.325 8.525-.635 21.277-.69 28.337-.068 8.774-.435 12.629-1.16 12.181-.584-.361-.757-1.188-.385-1.837.372-.65.341-.88-.068-.513-.41.367-1.657-.083-2.772-1-3.472-2.857-6.987-6.901-6.575-7.565.149-.24-.066-.774-.479-1.186-.413-.413-.764-.113-.782.666-.05 2.234-2.955-2.092-3.038-4.524-.067-1.963-.106-1.969-.824-.138-.719 1.836-.824 1.82-2.354-.364-.881-1.258-1.326-3.022-.989-3.922.55-1.471.423-1.484-1.268-.135-1.67 1.333-1.784 1.333-1.027 0 .469-.825.474-1.156.012-.736-.463.42-2.061-.405-3.552-1.833l-2.71-2.597.173 9.333c.095 5.133.504 9.864.907 10.514.404.649.383 1.398-.046 1.663-.429.265-.614 2.571-.411 5.124.356 4.472.87 5.145 14.014 18.337L65.5 310.5l-14 .5-14 .5.171 30.909.172 30.909 14.078 14.103L66 401.525l-.051 14.988-.05 14.987-13.939-14.428c-7.666-7.935-14.055-14.235-14.199-14-.678 1.112.398 59.034 1.092 58.751.712-.29 7.434-7.38 21.437-22.613 2.635-2.865 4.997-5.21 5.25-5.21.253 0 .46 6.832.46 15.182v15.181l-14.25 13.768-14.25 13.768 14.75.05L67 492v-27.243l14.25-15.281c7.838-8.405 14.588-15.325 15-15.379.412-.053.75 6.616.75 14.82v14.917l-14.75 14.078-14.75 14.077 6 .091c3.3.05 9.678.29 14.174.533 4.496.243 8.389.092 8.652-.336.262-.427.808-13.714 1.213-29.527.405-15.812 1.012-28.763 1.349-28.78.336-.016 6.8-.129 14.362-.25l13.75-.22.037 15.5.037 15.5-14.287 13.72L98.5 491.94l14.75.03L128 492v-26.64l14.25-15.592c7.838-8.576 14.588-15.632 15-15.68.412-.048.75 6.726.75 15.054v15.141l-14.25 13.81-14.25 13.81 15 .029 15 .029 14.25-13.57 14.25-13.57.162 12.34.161 12.339.766-15c.421-8.25.863-20.713.981-27.696l.215-12.697 12.728-.303c7.001-.167 13.462-.159 14.358.019 1.418.282 1.634 2.292 1.666 15.5l.037 15.177-14.287 13.72-14.287 13.72 7.5.106c4.125.059 8.4.281 9.5.494 1.1.213 4.363.117 7.25-.214l5.25-.601.003-13.113.004-13.112 14.746-15.924 14.747-15.925.277 15.41.278 15.409-3.778 3.484c-10.879 10.034-24.988 24.092-24.422 24.337.355.153 3.795.228 7.645.167 3.85-.062 16.675-.213 28.5-.335l21.5-.223-14.279-13.7-14.279-13.7.279-15.382.279-15.383 14.75 16.058L281 465.851V492l14.75-.016 14.75-.015-14.5-13.836-14.5-13.835.085-11.399c.046-6.27.158-13.199.248-15.399l.164-4 14.402.3 14.403.301.14 13.196c.127 11.965-.001 13.011-1.369 11.2-.83-1.098-1.524-1.521-1.541-.938-.018.582.629 1.932 1.436 3 1.111 1.469 1.526 5.59 1.707 16.941l.239 15 .543-14 .543-14 11.5 11.011c6.325 6.056 12.845 12.244 14.49 13.75 2.987 2.737 3.003 2.739 18 2.688l15.01-.052-14.277-13.723-14.278-13.724.278-15.411.277-15.412 14.732 15.937 14.732 15.936.018 13.191.018 13.191 12.25.309c19.405.489 19.199 1.568 2.703-14.167l-14.348-13.686-.307-13.867c-.424-19.159-1.9-17.471 15.269-17.471H403v58.845l13.75.346c7.563.191 14.116.062 14.563-.286.72-.559-15.376-16.963-24.063-24.522l-3.25-2.828v-15.278c0-8.402.337-15.237.75-15.189.413.048 7.163 7.104 15 15.68L434 465.36v13.32c0 12.009.172 13.323 1.75 13.345.962.014 7.214.275 13.892.58 7.561.345 12.373.18 12.754-.437.337-.545-5.701-6.999-13.419-14.341l-14.032-13.35.278-15.322.277-15.322 12.926 14.084c7.109 7.745 13.206 14.083 13.55 14.083.343 0 .704-13.387.801-29.75l.177-29.75-13.927 14.5-13.927 14.5-.05-15.013-.05-15.014 14-13.973c7.7-7.685 14-14.521 14-15.19 0-1.958-2.238-6.31-3.245-6.31-.509 0-4.599-3.552-9.09-7.892-4.491-4.341-9.865-9.468-11.942-11.394l-3.778-3.502.278-14.856.277-14.856 4.353 4.5c18.773 19.41 22.322 23 22.733 23 .257 0 .343-6.637.191-14.75l-.277-14.75-13.25-.279c-7.288-.153-13.25-.546-13.25-.872 0-.327 6.092-6.726 13.539-14.221l13.539-13.628-.136-7c-.074-3.85-.386-10.3-.692-14.333l-.557-7.332-13.453 13.332-13.452 13.333.687-25.879c.378-14.233.922-26.493 1.211-27.244 1.006-2.623 2.1-.36 1.385 2.868-.397 1.79-.651 6.833-.566 11.205l.155 7.951 5.17-.275c3.188-.169 5.17.137 5.17.8 0 .606 1.96 1.074 4.5 1.074 2.661 0 4.5-.459 4.5-1.122 0-.818.359-.825 1.324-.024 2.827 2.346 3.676-.899 3.676-14.054V223h-27.944l-.278 13.75-.278 13.75-14.348-13.75C411.26 229.188 404.411 223 403.93 223c-.48 0-.999 6.08-1.152 13.512l-.278 13.512-3-2.739c-1.65-1.506-8.179-7.699-14.509-13.762L373.482 222.5l-15.741.299-15.741.299v13.451c0 7.398-.265 13.451-.588 13.451-.323 0-6.94-6.075-14.704-13.5S312.246 223 311.824 223c-.422 0-.893 6.107-1.046 13.571l-.278 13.571-14.226-13.519-14.226-13.518-31.114-.077-31.115-.076-3.659 3.146c-2.013 1.731-8.428 7.817-14.255 13.524-5.827 5.708-11.114 10.378-11.75 10.378-.816 0-1.155-3.944-1.155-13.451v-13.451l-15.499-.299-15.499-.299-14.414 13.75C135.66 243.813 128.91 250 128.587 250c-.323 0-.587-6.075-.587-13.5s-.26-13.5-.578-13.5c-.318 0-6.857 5.963-14.53 13.25-7.673 7.287-14.279 13.364-14.68 13.503-.401.139-.671-6.066-.599-13.789l.132-14.043-2.123 1.785c-1.167.981-6.172 5.672-11.122 10.425-4.95 4.753-10.8 10.263-13 12.245l-4 3.604-.516-14.24-.515-14.24-.59 15.5M67 265.839v14.173l11.132 11.744c6.123 6.459 12.844 13.508 14.935 15.664l3.802 3.92.073-15.514.072-15.513-14.509-13.825a7082.457 7082.457 0 0 1-15.007-14.323c-.274-.274-.498 5.879-.498 13.674m122.605-11.402c-.359 1.432-.382 7.862-.05 14.289l.604 11.685 10.831 11.544c5.956 6.35 12.446 13.096 14.42 14.991l3.59 3.446-.145-15.446-.145-15.446-14.226-13.833c-13.594-13.219-14.254-13.718-14.879-11.23m30.397 11.313l.002 13.75 14.748 15.581 14.748 15.582.281-15.082.281-15.081-14.281-14.214c-7.855-7.817-14.619-14.23-15.031-14.25-.412-.02-.749 6.152-.748 13.714m45.235.513L251 280.525v30.425l14.982-15.725 14.981-15.725.019-13.75c.01-7.562-.325-13.75-.745-13.75s-7.17 6.418-15 14.263m31.064-.174c-7.81 7.731-14.274 14.811-14.366 15.734-.091.922-.101 7.752-.023 15.177l.142 13.5 14.429-15 14.429-15 .044-14.25c.024-7.837-.069-14.243-.206-14.234-.137.01-6.64 6.342-14.449 14.073m30.449-.182L312 280.313v31.025l13.171-13.752c18.685-19.508 16.934-16.105 16.608-32.28L341.5 251.5l-14.75 14.407m92-.017L404 280.265v31.168l13.214-13.854c18.663-19.566 16.891-16.114 16.565-32.265l-.279-13.799-14.75 14.375m-52.995 21.405c-3.16 3.413-9.348 9.936-13.75 14.496-4.403 4.56-8.005 8.454-8.005 8.655 0 .2 6.3.424 14 .496l14 .133v-15.038c0-8.27-.113-15.017-.25-14.992-.137.025-2.835 2.837-5.995 6.25m-236.802-1.545c-.026 1.512-.139 7.7-.25 13.75l-.203 11 14.342.18 14.341.181-6.341-6.681c-3.488-3.674-7.017-6.905-7.842-7.18-.825-.275-1.637-1.137-1.805-1.915-.355-1.646-10.192-12.085-11.388-12.085-.444 0-.828 1.238-.854 2.75M89 320.362a3283.546 3283.546 0 0 1-14.25 15.55L67 344.308v27.87l14.798-14.052 14.797-14.052.219-15.537c.12-8.545-.126-15.49-.548-15.433-.421.057-3.691 3.323-7.266 7.258m33.73-3.357c-2.073 2.311-8.729 9.558-14.79 16.104l-11.021 11.903.412 12.532c.227 6.893.586 12.706.798 12.918.213.213 6.823-5.767 14.689-13.288l14.304-13.674-.311-15.348-.311-15.348-3.77 4.201m51.02 11.377L159 344.166v27.054l9.75-9.027c5.363-4.964 11.756-11.089 14.208-13.61 2.452-2.52 4.815-4.583 5.25-4.583.436 0 .792 5.823.792 12.941s.34 13.151.755 13.408c.416.256 7.191-5.679 15.056-13.191l14.3-13.658-.305-15.205-.306-15.204-14.5 15.653-14.5 15.653-.5-15.9-.5-15.9-14.75 15.785m65.25-4.336a27444.834 27444.834 0 0 1-14.733 15.895l-4.233 4.559-.017 13.25c-.009 7.288.321 13.229.733 13.204.412-.025 7.175-6.216 15.027-13.756l14.278-13.71-.278-15.389-.277-15.388-10.5 11.335m12.011 4.086L251 343.763l14.115 13.369c7.763 7.352 14.513 13.518 15 13.701.487.184.885-5.619.885-12.895V344.71l-11.246-12.105a9436.3 9436.3 0 0 0-14.99-16.105l-3.742-4-.011 15.632m60.989-.197v14.935l12.25 11.988c6.738 6.593 13.488 12.955 15 14.137l2.75 2.15v-26.848l-14.567-15.648c-8.012-8.607-14.762-15.649-15-15.649-.238 0-.433 6.721-.433 14.935m61.427-11.398c-.389 2.073-.461 9.102-.161 15.619l.546 11.848 12.739 12.248C404.777 373.775 403 373.648 403 357.425v-13.687l-12.299-13.119c-6.764-7.216-13.258-14.184-14.432-15.485l-2.135-2.367-.707 3.77M404 328.375v15.374l5.986 5.876c3.293 3.231 5.993 6.464 6 7.184.008.72.428 1.053.934.74.506-.312 1.808.561 2.894 1.941 1.086 1.381 2.441 2.51 3.013 2.51.571 0 1.326.907 1.678 2.015.351 1.108.988 1.799 1.414 1.535.426-.263 2.053.855 3.615 2.486 1.562 1.63 3.206 2.964 3.653 2.964.447 0 .813-6.005.813-13.344v-13.345l-14.592-15.655c-8.026-8.611-14.776-15.656-15-15.656-.225 0-.408 6.919-.408 15.375m-276 58.271v13.647l4.692 5.103C141.957 415.474 156.996 431 157.493 431c.279 0 .507-6.643.507-14.763v-14.763l-14.263-14.237c-7.844-7.83-14.594-14.237-15-14.237-.405 0-.737 6.141-.737 13.646m31 .219v14.302l10.772 11.166c5.924 6.142 12.296 12.855 14.16 14.917 1.864 2.063 3.767 3.75 4.229 3.75.461 0 .839-6.678.839-14.839v-14.84l-9.25-8.823a3930.526 3930.526 0 0 1-15-14.379l-5.75-5.556v14.302m30-.399v13.633l14.75 15.617 14.75 15.617.276-15.186.276-15.186-14.127-13.73c-7.771-7.552-14.532-13.881-15.026-14.064-.504-.187-.899 5.656-.899 13.299m31.028.284l.029 13.75 6.136 6.5c14.43 15.286 22.905 24 23.34 24 .257 0 .467-6.643.467-14.763v-14.763l-14.263-14.237c-7.844-7.83-14.594-14.237-15-14.237-.405 0-.724 6.188-.709 13.75m45.209.513L251 401.525l.051 14.988.052 14.987 14.941-15.5 14.941-15.5.008-13.75c.004-7.562-.336-13.75-.756-13.75s-7.17 6.418-15 14.263m61.201-.099L312 401.327v14.837c0 8.16.396 14.836.88 14.836.483 0 2.396-1.73 4.25-3.844 1.853-2.114 8.207-8.921 14.12-15.128L342 400.744v-13.872c0-7.63-.253-13.872-.562-13.872-.31 0-7.06 6.374-15 14.164m30.799.099L343 401.525l.047 14.988.047 14.987 14.928-15.5 14.928-15.5.025-13.75c.014-7.562-.318-13.75-.738-13.75s-7.17 6.418-15 14.263M42.25 507.802l-5.25.303-.125 9.197c-.069 5.059-.284 14.598-.477 21.198-.291 9.936-.625 56.689-.449 62.75C35.997 602.911 46.877 603 250 603h214v-26c0-18.741-.317-26-1.136-26-.787 0-.92-1.458-.431-4.75.387-2.612.89-12.514 1.116-22.004l.413-17.254-208.231.254c-114.527.14-210.593.39-213.481.556m52.832 12.434c-.595.955-1.082 5.793-1.082 10.75 0 9.01.001 9.014 2.566 9.014 3.344 0 6.434-1.691 6.434-3.522 0-.798 1.688-2.147 3.75-2.997 2.063-.85 4.26-2.22 4.883-3.045.932-1.232 1.249-.88 1.787 1.99 2.216 11.812 22.58 8.594 22.58-3.569 0-10.708-17.021-13.15-21.487-3.082-1.229 2.771-2.509 2.927-1.801.22.561-2.148-1.396-5.308-2.764-4.463-.454.281-1.19-.129-1.637-.911-1.299-2.275-11.859-2.582-13.229-.385m-40.046.221c-.665.801-1.42 5.526-1.678 10.5L52.889 540h8.02c6.906 0 8.164-.269 9.056-1.934 1.446-2.703 1.29-4.066-.465-4.066-1.614 0-2.073-1.617-.615-2.167.486-.183 1.205-3.145 1.598-6.583l.713-6.25h-7.475c-5.327 0-7.824.419-8.685 1.457m18.289-.041c-.919 1.048-.639 2.129 1.284 4.96 2.854 4.199 2.743 7.256-.383 10.611-3.04 3.264-2.809 4.013 1.239 4.013 2.554 0 3.776-.583 4.651-2.216l1.185-2.216 1.472 2.216c1.086 1.636 2.458 2.216 5.242 2.216 5.034 0 5.532-1.862 1.842-6.88-3.268-4.444-3.18-7.487.286-9.927 4.834-3.402-.623-5.89-5.668-2.585-2.255 1.478-2.505 1.478-3.072 0-.76-1.98-6.392-2.114-8.078-.192m67.573.866c-3.899 2.619-4.908 6.565-2.337 9.136 1.538 1.538 1.542 1.81.054 3.455-2.131 2.355-2.039 3.83.319 5.092 4.818 2.578 14.264.138 15.585-4.026.923-2.906-.262-6.939-2.038-6.939-1.916 0-1.87-.999.179-3.924 3.434-4.904-5.471-7.019-11.762-2.794M158.2 520.2c-.761.761-1.2 4.6-1.2 10.5v9.3h2.8c4.514 0 5.2-1.544 5.2-11.7V519h-2.8c-1.54 0-3.34.54-4 1.2m9.55-.141c-.963.572-1.75 2.202-1.75 3.622 0 2.353.286 2.534 3.25 2.052l3.25-.528-.204 7.398c-.198 7.175-.133 7.397 2.168 7.397 4.869 0 5.536-.853 5.536-7.081 0-5.535.174-5.958 3.062-7.451 2.234-1.155 2.978-2.176 2.75-3.776-.288-2.024-.927-2.21-8.312-2.432-4.4-.132-8.787.227-9.75.799m20.45.141c-.761.761-1.2 4.6-1.2 10.5 0 9.169.034 9.3 2.418 9.3 5.333 0 5.582-.495 5.582-11.107V519h-2.8c-1.54 0-3.34.54-4 1.2m15.371.05c-9.504 6.16-8.355 19.75 1.67 19.75 8.967 0 13.407-3.595 13.919-11.271.463-6.943-9.553-12.39-15.589-8.479m19.387-.286c-1.19.696-1.598 3.1-1.788 10.532l-.246 9.629 3.788-.312c3.051-.252 3.85-.751 4.108-2.563.407-2.868.937-2.828 3.359.25 2.745 3.49 7.509 3.452 8.848-.071 1.521-4 1.045-17.464-.64-18.111-2.39-.917-6.575.683-7.107 2.717-.476 1.823-.63 1.789-2.467-.545-1.999-2.541-5.094-3.143-7.855-1.526m35.72.989C249.077 527.1 251.652 540 262.481 540c2.421 0 4.696-.478 5.057-1.062.361-.584 1.738-1.472 3.059-1.975 2.927-1.113 3.072-2.535.403-3.963-1.385-.741-2.593-.753-3.928-.039-2.624 1.405-4.963.321-5.707-2.645-.83-3.306.79-4.838 3.554-3.359 2.13 1.14 8.081-1.739 8.081-3.91 0-3.634-9.701-5.053-14.322-2.094m21.822-.55c-7.387 3.26-9.642 12.496-4.194 17.183 6.185 5.322 17.306 1.758 18.932-6.067 1.922-9.251-5.789-15.067-14.738-11.116m18.44-.121c-1.033.807-1.354 2.061-.95 3.718.335 1.375.316 4.439-.041 6.808-1.12 7.431-.322 9.192 4.168 9.192 2.135 0 3.883-.45 3.883-1s1.152-1 2.559-1c1.451 0 2.292.433 1.941 1-.997 1.613 2.211 1.146 3.929-.571 1.428-1.429 1.571-1.429 1.571 0 0 1.873 12.771 2.299 16.066.536 1.333-.714 1.934-.714 1.934 0 0 1.186 14.881 1.428 16.573.27.59-.404 1.391-1.594 1.779-2.644.665-1.795.872-1.75 3.477.745 4.141 3.968 11.629 3.581 16.092-.83l2.421-2.393-2.545-1.159c-1.934-.882-3.069-.879-4.734.013-2.902 1.552-5.063-.194-5.063-4.089 0-3.024 1.7-3.778 3.793-1.685.924.924 1.859.701 4.147-.99 1.74-1.287 3.205-1.777 3.566-1.194.337.545 1.71.991 3.053.991 2.567 0 2.96 1.713 2.466 10.75-.168 3.06.019 3.25 3.198 3.25 4.675 0 5.777-1.522 5.777-7.981 0-5.31.149-5.637 3.068-6.739l3.068-1.158-.536 4.972c-.891 8.253.059 10.906 3.903 10.906 4.747 0 5.717-1.811 5.331-9.956-.426-8.999.722-8.56 4.595 1.754 2.907 7.741 3.232 8.179 6.071 8.175 2.501-.003 7.592-1.911 5.224-1.958-.426-.008-.126-1.271.668-2.807 2.378-4.597 5.593-14.423 5.022-15.347-.293-.474-1.432-.861-2.532-.861s-1.722.45-1.382 1c.34.55-.21 1-1.222 1-1.141 0-2.336 1.235-3.147 3.25l-1.307 3.25-1.496-4.25c-1.34-3.809-1.828-4.25-4.711-4.25-1.769 0-3.757.54-4.417 1.2-.933.933-1.2.933-1.2 0 0-.667-1.333-1.2-3-1.2-1.65 0-3 .398-3 .883 0 .486-.9 1.119-2 1.407-1.3.34-2 .03-2-.884 0-2.151-15.705-1.983-18.11.194-1.62 1.466-1.958 1.466-4.051 0-4.276-2.995-13.442-1.029-14.48 3.106-.315 1.254-.927 2.061-1.361 1.793-1.103-.682-1.984 2.004-2.077 6.333-.043 2.017-.297 3.131-.565 2.474-.267-.656-1.131-.946-1.921-.643-.789.303-1.435.053-1.435-.556 0-.609.499-1.107 1.109-1.107.679 0 .951-1.358.701-3.5-.225-1.925-.101-3.5.274-3.5.913 0 1.697-3.184 1.17-4.75-.518-1.54-11.904-1.714-15.778-.241-2.58.981-2.646 1.213-2.342 8.25.29 6.738.175 7.218-1.661 6.907-1.085-.183-2.401-.746-2.923-1.25-.523-.504-1.985-.916-3.25-.916-2.177 0-2.3-.368-2.3-6.875 0-6.83-.018-6.875-2.75-6.89-4.424-.024-5.243 1.38-5.329 9.137-.043 3.921-.306 6.566-.583 5.878-.297-.735-2.324-1.25-4.921-1.25H306v-7c0-6.977-.009-7-2.75-6.968-1.512.017-3.452.58-4.31 1.25m129.481.44c-1.016 1.016-1.421 3.966-1.421 10.349V540h7.8c8.051 0 10.2-.885 10.2-4.2 0-1.615-1.092-2.259-3.25-1.918-1.366.215-.777-1.658.699-2.224.948-.364 1.406-1.87 1.324-4.357-.069-2.091.199-4.781.596-5.98.699-2.115.498-2.176-6.903-2.1-5.167.054-8.082.537-9.045 1.501M196 618.851c0 .468.494 2.268 1.098 4 1.187 3.404 2.617 4.056 3.552 1.62.511-1.332.75-1.307 1.846.192 1.132 1.549 1.458 1.333 3.249-2.157l1.99-3.88 1.334 3.687c1.418 3.924 2.624 4.65 3.581 2.158.508-1.324.759-1.293 1.874.231 1.172 1.603 1.447 1.428 3.061-1.958 1.886-3.956 1.132-6.446-1.048-3.463-1.123 1.536-1.38 1.569-1.887.248-.801-2.086-2.643-1.935-2.682.221-.03 1.667-.095 1.667-1.36 0-1.665-2.194-5.468-2.279-6.288-.141-.568 1.48-.691 1.48-1.519 0-1.192-2.131-2.793-2.052-2.833.141-.03 1.667-.095 1.667-1.36 0-1.423-1.875-2.608-2.284-2.608-.899m81.542 37.878c-11.497 2.921-13.149 19.286-2.503 24.791 8.881 4.593 18.961-1.519 18.961-11.498 0-9.516-7.495-15.569-16.458-13.293M38.4 661.4c-8.115 8.115-1.42 21.805 9.919 20.284 10.017-1.343 14.265-14.493 6.719-20.794-5.215-4.353-11.983-4.145-16.638.51m372.481-1.897c-8.181 4.446-7.074 17.429 1.803 21.138 8.18 3.418 15.351-1.016 16.092-9.95.447-5.393.31-5.805-3.054-9.169-3.951-3.951-9.817-4.749-14.841-2.019m34.882.062c-5.404 2.932-7.365 10.915-4.057 16.515 3.897 6.597 13.084 7.344 18.776 1.525l3.018-3.086-2.5-.344c-3.007-.414-5.193-2.175-2.7-2.175 1.117 0 1.676-.771 1.63-2.25-.065-2.08-.128-2.103-.832-.304-.708 1.809-.807 1.777-1.392-.464-.707-2.7.816-4.242 3.544-3.589 2.03.487 2.123.172.72-2.448-2.414-4.511-10.872-6.274-16.207-3.38m-256.513 1.494c-3.843 1.18-3.843 1.18-1.152 10.037 2.467 8.123 2.924 8.538 7.106 6.452 1.748-.872 4.78-1.815 6.737-2.095 1.958-.28 4.684-.688 6.059-.907 1.375-.218 3.175-.438 4-.487 1.265-.076 1.28-.229.094-.98-.773-.489-2.461-.699-3.75-.465-1.729.314-2.352-.039-2.374-1.344-.029-1.681-.082-1.682-1.05-.02-1.166 2.002-4.912 2.381-4.935.5-.011-.894-.267-.853-.899.145-.71 1.121-.979 1.023-1.369-.5-.376-1.469-.511-1.525-.601-.251-.078 1.099-.945 1.597-2.615 1.5-2.5-.144-3.118-1.263-1.736-3.144.893-1.215 6.235-1.549 6.235-.389 0 .454.68.565 1.511.246.959-.368 1.385-.082 1.164.782-.191.748-.158 1.021.074.605.232-.416.833-.502 1.336-.191.503.311.915.04.915-.601s.675-.907 1.5-.59c.825.316 1.5.124 1.5-.429 0-.59.721-.678 1.75-.214.963.434 2.875.77 4.25.747 1.375-.023 2.806.65 3.18 1.496.596 1.348.688 1.339.75-.075.091-2.092 4.57-1.981 4.57.113 0 1.078-1.056 1.483-3.75 1.439-4.158-.068-4.986.997-1.5 1.931 6.884 1.844 8.705.368 8.736-7.081.013-3.001-.33-3.319-5.236-4.862-6.204-1.95-25.752-2.827-30.5-1.368m177.479.671c-2.074.216-3.564.728-3.311 1.137.253.409-1.088 1.577-2.979 2.596-1.892 1.019-3.439 2.231-3.439 2.694 0 .464-.436.843-.969.843-.532 0-.681-.749-.33-1.664.43-1.119.256-1.427-.531-.941-1.617.999-1.466 4.166.282 5.915.799.798 1.15 1.754.781 2.124-.37.369.214.38 1.297.025 1.658-.545 1.732-.459.47.541-1.28 1.014-1.232 1.102.329.595 1.007-.326 3.032-.284 4.5.094l2.671.687-2.5.659c-1.985.523-1.367.805 3 1.37 9.154 1.183 24.858-2.556 27.305-6.5 1.27-2.047.041-7.237-1.489-6.291-.682.422-.847.245-.419-.448.469-.758.101-.947-1.095-.56-1.413.457-1.498.366-.391-.42 3.291-2.339-10.401-3.79-23.182-2.456m-281.381 5.108c-.857 2.092-1.096 2.171-2.275.75-2.015-2.428-4.073-1.937-4.073.971 0 1.523-.423 2.298-1.044 1.914-1.305-.807-3.956 1.304-3.956 3.149 0 2.042 2.995 1.674 3.032-.372.03-1.667.095-1.667 1.36 0 1.922 2.532 2.608 2.167 2.608-1.385v-3.135l2.073 2.635c1.919 2.441 5.814 3.879 4.427 1.635-.515-.833 1.928-1.268 5.211-.926.391.041 1.034-.747 1.43-1.75.54-1.371.736-1.442.789-.287.073 1.604 4.07 2.519 4.07.932 0-.498.72-.63 1.601-.292.88.338 1.999-.014 2.485-.781.631-.998.888-1.039.899-.146.008.688.69 1.25 1.515 1.25 1.626 0 1.896-.92.735-2.5-.748-1.017-9.235-1.444-9.235-.464 0 .295-1.595.483-3.545.419-2.286-.076-3.86.444-4.432 1.463-.964 1.716-1.401 1.07-2.312-3.418-.381-1.875-.466-1.853-1.363.338" fill="#d3d3d3" fill-rule="evenodd"/></svg>