<svg xmlns="http://www.w3.org/2000/svg" width="500" height="708"><path d="M190.491 25.014c-.967 1.566-7.926 4.871-17.68 8.397-4.874 1.762-8.513 3.588-8.087 4.057.427.469.223.535-.453.146-.677-.389-2.977-.183-5.112.457-3.564 1.067-4.438.898-10.631-2.058-6.193-2.955-6.881-3.089-8.353-1.617-1.347 1.348-1.369 1.609-.139 1.636 1.08.023.954.417-.477 1.5-1.068.807-2.643 1.452-3.5 1.433-.999-.023-.661-.549.941-1.465 5.109-2.921.136-1.356-11.802 3.714-8.244 3.5-11.731 5.424-10.573 5.83 1.628.571 1.627.646-.03 1.281-2.629 1.009-4.33.796-2.595-.325 2.21-1.428-.163-1.206-4.874.456L103 49.911v-4.896c0-2.693.462-5.182 1.026-5.531.617-.382.02-1.829-1.5-3.636-1.389-1.651-2.526-3.626-2.526-4.39C100 30.277 97.145 28 95.665 28c-.257 0-1.487 1.688-2.733 3.75-1.927 3.188-2.279 5.226-2.349 13.598l-.083 9.849-6 2.347c-3.3 1.291-11.06 4.324-17.244 6.74-6.185 2.417-10.91 4.764-10.5 5.215.409.452.171.492-.528.088-1.216-.7-11.228 2.037-11.228 3.07C45 74.253 51.223 79 53.314 79c1.357 0 4.429.89 6.827 1.978 2.397 1.088 5.752 1.988 7.455 2 4.079.029 10.1 2.974 8.324 4.072-1.05.649-1.042 1.098.044 2.407 1.466 1.766.693 32.778-.83 33.316-.425.15-.576 4.025-.335 8.611.406 7.74.278 8.449-1.788 9.896-2.246 1.573-2.368 6.512-.417 16.797l.489 2.577 17.708 1.295c17.624 1.289 35.918 1.791 90.178 2.476 30.883.39 32.519.182 33.495-4.263.83-3.775 2.163-4.107 17.036-4.249 6.6-.062 22.575-.631 35.5-1.263l23.5-1.15.304-4.723.303-4.722 43.197.222 43.196.223.319-2.248c.194-1.367 1.175-2.42 2.5-2.684 1.92-.384 39.601-2.601 43.793-2.577 2.584.015 3.888-9.446 3.888-28.214V91.888l4.549-2.013c2.913-1.288 5.554-1.792 7.341-1.399 1.907.419 3.204.116 4.093-.956 1.561-1.881 1.742-1.72-4.483-3.983-17.999-6.542-65.633-28.99-73.86-34.807l-2.859-2.022-4.641 2.256c-8.75 4.255-25.587 9.556-22.14 6.972 1.28-.96 1.245-1.043-.238-.566-.959.308-1.631.084-1.5-.499.131-.581-.489-1.537-1.377-2.124-1.256-.829-3.671-.057-10.859 3.474-5.083 2.497-8.632 4.752-7.884 5.012.747.259.008.478-1.642.487-1.65.009-4.07.368-5.377.798-2.277.749-2.356.618-1.88-3.118.533-4.18-2.257-10.4-4.664-10.4-2.313 0-3.913 5.29-3.66 12.094.239 6.415.168 6.627-2.629 7.786-2.439 1.01-3.606.868-7.689-.938-3.163-1.399-5.151-1.792-5.799-1.144-.648.648.246 1.393 2.606 2.172 4.405 1.453 4.605 2.493.506 2.641-1.695.061-2.556-.214-1.914-.611 1.693-1.046-1.758-2.192-4.391-1.457-1.37.382-1.668.28-.852-.291 1.837-1.284-9.004-5.602-11.968-4.766-1.783.502-1.958.413-.789-.405 1.593-1.115.177-1.525-4.5-1.303-1.1.052-1.435-.14-.744-.427.869-.361.561-1.1-1-2.403-2.769-2.31-1.686-2.48 2.384-.376 1.672.865 3.698 1.32 4.502 1.012.804-.309 1.209-.153.901.347-.842 1.361 6.408 3.518 7.65 2.276 1.247-1.247-2.611-2.685-4.339-1.617-.696.43-.894.284-.494-.363.81-1.311-2.87-2.648-4.506-1.637-.654.404-.896.286-.552-.27.793-1.283-9.86-5.711-11.421-4.746-.693.428-.927.31-.561-.284.811-1.31-20.423-9.587-21.593-8.417-.482.482 1.922 2 5.456 3.446 3.474 1.421 5.534 2.605 4.578 2.632-2.338.066-14.761-4.954-14.761-5.964 0-.44.9-.564 2-.277 5.478 1.433.71-1.832-10.173-6.965-10.762-5.075-12.359-5.573-13.773-4.294-1.09.987-2.07 1.146-3.077.498-1.827-1.174.468-3.099 2.682-2.249 2.888 1.108 1.135-.764-2.409-2.573-2.062-1.053-4.607-2.862-5.655-4.021-2.109-2.332-3.164-2.613-4.104-1.092M153.5 45.044c3.3 1.619 6.675 3.059 7.5 3.2.825.141 1.725.526 2 .855.275.33 3.425 1.765 7 3.19 12.208 4.866 19.454 8.475 17.969 8.95-.808.258-.344.296 1.031.085 2.015-.31 2.209-.172 1 .711-1.215.888-1.094.983.635.5 2.83-.791 7.932 1.456 6.143 2.704-.816.57-.375.664 1.222.261 2.029-.512 2.217-.412 1 .529-1.272.984-1.222 1.069.332.565 1.007-.327 2.02-.594 2.25-.594 1.393 0 .059-1.979-1.714-2.542-1.704-.541-1.855-.869-.75-1.633.967-.669.631-.767-1.118-.325-2.004.506-2.203.407-1-.5 1.203-.907 1.004-1.006-1-.5-1.972.498-2.183.399-1-.465 1.163-.849.826-.958-1.5-.484-2.386.486-2.693.376-1.5-.536 1.211-.925 1.018-1.024-1-.515-2.004.506-2.203.407-1-.5 1.203-.907 1.004-1.006-1-.5-1.972.498-2.183.399-1-.465 1.17-.854.839-.976-1.5-.55-2.01.366-2.391.278-1.155-.266 1.667-.734 1.59-.927-.797-2.015-3.302-1.505-3.856-1.511-2.943-.034.493.798.168.957-1.023.5-.96-.369-2.046-.677-2.414-.685-.367-.009.007-.488.832-1.066 1.172-.821 1.006-.911-.763-.413-1.587.447-5.845-1.027-14.258-4.935-12.505-5.807-21.668-8.017-10.479-2.527m30.724 3.759c-4.846.279-6.736 2.197-2.165 2.197 1.068 0 2.841.9 3.941 2 1.111 1.111 3.333 2 5 2 1.867 0 2.906.472 2.75 1.25-.189.945 3.165 1.298 13.75 1.446 8.046.112 13.149-.154 12-.625-1.1-.452-2.407-.583-2.905-.291-.497.291-.583.009-.19-.625.513-.831-1.48-1.201-7.096-1.318-7.506-.157-7.596-.186-2.309-.75 6.861-.732 4.427-1.859-2.804-1.298-4.738.367-5.112.557-3.5 1.779 1.678 1.273 1.63 1.366-.696 1.33-2.795-.043-7.41-1.713-5.05-1.828 1.895-.092.205-1.718-2.45-2.357-1.261-.303-.707-.55 1.5-.667 1.925-.103 4.4-.573 5.5-1.046l2-.859-2-.21c-3.65-.382-9.933-.435-15.276-.128m-70.486.889c-.969.253-1.458.952-1.086 1.554.433.701.078.864-.988.455-.915-.351-1.664-.176-1.664.389 0 .566-.376.796-.836.511-.46-.284-3.95.751-7.756 2.3s-10.829 4.089-15.607 5.645c-4.778 1.556-8.478 3.168-8.222 3.581.255.414-.351.691-1.348.615-3.256-.245-18.61 6.466-16.936 7.403 1.651.924 8.07-1.367 10.422-3.719.784-.784 2.18-1.426 3.101-1.426 2.498 0 17.63-5.165 18.015-6.149.184-.468 1.18-.851 2.213-.851 1.034 0 4.198-.914 7.032-2.031 2.834-1.117 6.113-1.762 7.287-1.434 1.697.474 1.827.38.635-.454-1.591-1.114.113-1.605 4.308-1.241.995.086 1.553-.256 1.241-.761-.312-.505 1.117-1.474 3.176-2.153 3.233-1.067 3.473-1.341 1.759-2.011-2.214-.864-2.278-.867-4.746-.223M216 65.91c0 1.443 2.793 2.081 9.832 2.247 6.656.157 6.659.158 1.668.765-7.947.967-2.652 1.946 11.5 2.126 6.875.087 12.95.098 13.5.024 2.322-.314-3.161-3.072-6.108-3.072-1.774 0-3.379-.461-3.567-1.024-.584-1.752-7.898-2.467-8.925-.873-.585.908-1.163 1.038-1.65.371-.918-1.256-16.25-1.788-16.25-.564m-76.25 10.822c3.108.28 4.284.838 4.378 2.075.07.931.234 2.723.365 3.982.237 2.284.214 2.288-11.189 1.926-8.15-.26-12.159.016-13.98.961-2.924 1.516-6.721 1.776-5.871.401.703-1.139-12.227-1.759-22.453-1.077-14.801.987-2.292 2.262 25.447 2.595 20.004.24 27.325.011 28.413-.886 1.089-.898 1.565-.913 1.853-.057.282.835 8.556 1.148 30.088 1.136 16.334-.008 28.68-.221 27.434-.473-1.262-.255-1.976-.924-1.613-1.512.439-.71-.616-.835-3.236-.382-8.496 1.468-12.934 1.721-11.386.649 1.075-.745-1.903-1.039-10.5-1.039-8.702 0-11.588.29-10.5 1.055 1.114.784.599.885-2 .392-1.925-.365-6.519-.883-10.208-1.151-6.881-.5-8.744-1.965-7.911-6.221.414-2.113-1.897-3.093-6.881-2.916l-4.5.159 4.25.383m-54.251 3.269c-.292.474-.105 1.124.416 1.446.521.322 1.229.128 1.575-.431.345-.559 1.303-1.016 2.128-1.016.825 0 1.222.45.882 1-.397.642 2.889.975 9.191.93 6.411-.046 9.116-.368 7.809-.93-1.368-.588.212-.859 5-.859s6.368.271 5 .859c-1.263.543 2.695.885 10.75.93 10.775.059 12.75-.166 12.75-1.451 0-1.718-54.445-2.186-55.501-.478m64.861.226c-1.069 1.73 1.935 2.742 8.14 2.744 7.358.002 11.26-.874 9.335-2.094-.801-.508 1.533-.853 5.832-.862 4.856-.01 7.3.388 7.582 1.235.294.884 3.833 1.327 12.083 1.513 11.522.26 13.991-.449 9.651-2.772-2.63-1.407-51.744-1.187-52.623.236M366 84.987c1.042.665.424.784-2.026.39-2.147-.345-4.883.028-7 .953l-3.474 1.519 5.458-.432c4.21-.334 5.186-.161 4.271.754-.792.792-5.095 1.154-12.962 1.091-8.652-.07-12.438.292-14.272 1.363-2.241 1.311-1.073 1.401 11.505.889 7.7-.313 16.8-.591 20.222-.617l6.221-.048-.345-2.965c-.416-3.576-1.598-5.092-1.598-2.051 0 1.296-.627 2.167-1.559 2.167-.889 0-1.264-.478-.872-1.112.765-1.238-1.257-2.857-3.569-2.857-1.333 0-1.333.106 0 .956m-34.625.811c1.646 2.664-1.471 3.417-14.001 3.385-8.833-.022-12.089.252-10.374.874 2.304.835 2.265.867-.5.405-1.65-.276-4.594-.765-6.541-1.086-2.568-.423-3.908-.142-4.873 1.02-1.211 1.459-.018 1.604 13.233 1.604 9.009 0 14.808-.397 15.206-1.041.354-.572 1.505-.797 2.559-.5 1.054.298 2.872.814 4.041 1.148 1.414.404 1.897.237 1.441-.5-.377-.611-.048-1.107.736-1.107.976 0 1.271-.782.943-2.5-.263-1.375-.902-2.5-1.421-2.5-.518 0-.72.359-.449.798m-121.239 5.011c-.075.72-.616 1.012-1.203.65-.633-.391-.938.051-.75 1.088.522 2.877-4.992 3.143-6.047.291-.541-1.463-1.074 2.837-1.541 12.446-.464 9.551-.354 15.299.315 16.449.805 1.383 1.039 1.441 1.075.267.041-1.333.153-1.333 1.015 0 .862 1.333.973 1.333 1 0 .027-1.333.138-1.333 1 0 .804 1.244.975 1.159 1-.5.022-1.465.255-1.647.869-.678.461.727 2.002 1.45 3.426 1.606l2.587.284-.567-8.606c-.763-11.58-2.01-24.914-2.179-23.297M79.147 95.5c-1.491 5.253-1.518 24.153-.035 25.069.611.378 1.504.067 1.984-.691.481-.758.881-.928.891-.378.032 1.891 6.742 1.65 7.226-.26.731-2.879-.112-28.382-.875-26.49-.278.688-1.142 1.25-1.921 1.25-.779 0-1.424-.562-1.432-1.25-.011-.833-.339-.75-.985.25-.862 1.333-.973 1.333-1 0-.025-1.229-.187-1.254-.894-.137-.729 1.151-.939 1.151-1.344 0-.264-.75-.991.437-1.615 2.637m290.226 7c.437 6.228.316 9.5-.353 9.5-.561 0-1.02.675-1.02 1.5 0 .973.965 1.495 2.75 1.485 4.801-.027 5.555-1.151 4.767-7.114-.39-2.954-.67-7.509-.622-10.121.086-4.676.039-4.75-3.051-4.75h-3.139l.668 9.5m-75.706-6.833c-.367.366-.667 5.091-.667 10.5V116h6.285l-.643-6.147c-.353-3.38-.642-8.105-.642-10.5 0-4.211-2.058-5.962-4.333-3.686m-34.974 14.742c-1.308 3.882-.024 4.23 16.377 4.439 10.351.132 15.93-.156 15.93-.822 0-.634-4.112-1.05-10.75-1.089-7.867-.047-10.111-.319-8.367-1.017 1.31-.525 4.573-.663 7.25-.308 4.119.546 4.867.392 4.867-1.006 0-2.004-24.633-2.196-25.307-.197m-88.318 4.716c.344 1.719.704 7.906.802 13.75.17 10.281.197 10.398.823 3.625.356-3.85.726-6.002.823-4.781.132 1.65.625 2.06 1.927 1.602 1.321-.464 1.48-.322.649.583-.606.66-.891 2.301-.634 3.647.68 3.555 11.655 3.774 12.577.251.879-3.364-1.057-4.802-6.464-4.802-3.669 0-4.878-.372-4.878-1.5 0-1.111 1.167-1.5 4.5-1.5 2.475 0 4.5.42 4.5.933 0 .513.9 1.218 2 1.567 1.611.511 2.012 1.545 2.063 5.317.044 3.209.296 4.053.802 2.683.406-1.1.455-7.175.11-13.5-.477-8.711-.671-9.837-.802-4.641l-.173 6.86-7.5-.379c-4.67-.236-7.506.006-7.515.641-.063 4.196-1.958-3.241-1.97-7.731-.009-3.584-.439-5.75-1.14-5.75-.727 0-.904 1.106-.5 3.125M270 123.893c0 .491.712 1.166 1.582 1.5 2.438.936 5.418.719 5.418-.393 0-.55.702-1 1.559-1s1.281.45.941 1c-.34.55.159 1 1.108 1 .949 0 1.424.301 1.055.67-.368.368-5.094.571-10.503.45-7.852-.175-10.092.093-11.119 1.331-1.148 1.383-.108 1.549 9.697 1.549 12.508 0 20.465-.862 19.68-2.133-.295-.477-1.409-.867-2.477-.867-3.091 0-2.249-1.854 1.309-2.881 2.553-.737.945-.958-7.5-1.029-5.913-.049-10.75.312-10.75.803M76.116 128.75c.071 1.692.292 2.077.573 1 .514-1.965 2.311-2.4 2.311-.559 0 .655.661.318 1.468-.75 1.346-1.779 1.471-1.457 1.5 3.872.03 5.462-.104 5.794-2.218 5.5-1.237-.172-2.556-.988-2.93-1.813-.49-1.082-.699-.874-.75.75-.064 2.069.372 2.25 5.43 2.25H87v-6.059c0-3.57.39-5.818.95-5.472.522.323.743 2.937.491 5.809-.547 6.231.111 5.26 1.375-2.028l.911-5.25H76l.116 2.75M199 134v7h6.796c6.789 0 6.797-.003 6.629-2.75-.319-5.247-.712-5.729-1.425-1.75-.649 3.622-.746 3.339-1.035-3l-.318-7-.647 7-.647 7-.176-6.75L208 127h-9v7m-98.504-1.993c-1.078 1.744 2.61 2.356 6.253 1.039 2.174-.786 3.735-.902 4.124-.305.345.527 1.302 1.216 2.127 1.53.825.314-1.875.642-6 .729-4.125.087-6.919.391-6.208.676.992.398 1.021.844.127 1.921-.986 1.188.196 1.375 7.709 1.22l8.872-.184-8-.566c-6.842-.485-7.495-.679-4.512-1.34 4.153-.92 15.205.152 14.434 1.4-.297.48.724.941 2.269 1.023 1.944.104 1.423.366-1.691.85l-4.5.7 4.691.15c2.58.082 4.938-.25 5.24-.738.305-.495 8.812-.679 19.171-.415 13.245.337 18.428.16 17.951-.612-.43-.695-6.486-1.15-16.862-1.265-8.905-.099-14.054-.349-11.441-.555 5.434-.428 6.327-1.943 1.5-2.542-1.787-.221.125-.403 4.25-.403s6.037.182 4.25.403c-7.447.925-2.511 2.277 8.309 2.277 7.451 0 11.339-.355 10.941-1-.34-.55-3.918-1-7.952-1-5.597 0-7.47-.355-7.91-1.5-.35-.914-.001-1.5.893-1.5.808 0 1.469.45 1.469 1 0 .571 3 1 7 1 5.542 0 7-.311 7-1.493 0-1.719-35.504-2.119-36.558-.412-.308.498.029.919.749.935.765.018.542.477-.537 1.104-1.324.769-2.159.761-2.95-.03-.805-.805-.763-1.104.155-1.104.692 0 .981-.45.641-1-.822-1.33-24.182-1.323-25.004.007m-4.41 247.85c-.065 2.554-.445 3.219-1.586 2.781-.825-.316-1.5-.07-1.5.548 0 .618-.96.267-2.133-.781-2.123-1.897-2.129-1.894-1.365.595.884 2.878 2.453 4.179 4.248 3.521 2.054-.753 1.422.556-1.303 2.699-1.404 1.104-2.315 2.246-2.024 2.537.291.29 1.215-.041 2.053-.737 1.064-.883 1.524-.921 1.524-.128 0 .626-1.463 2.029-3.25 3.119-2.376 1.449-2.746 1.983-1.378 1.985 1.631.004 1.696.22.5 1.677-1.222 1.491-1.126 1.611.878 1.094 2.252-.58 3.259.73 1.111 1.446-.781.26-.607 1.306.556 3.333l1.694 2.954-.531-3.25c-.295-1.807-.097-3.25.445-3.25.536 0 .975-.482.975-1.071 0-.59.675-1.747 1.5-2.572 1.051-1.051 1.5-1.129 1.5-.262 0 2.247 1.16.129 2.022-3.691.856-3.796-1.22-9.495-2.276-6.246-.24.738-.28.217-.088-1.158.191-1.375-.065-3.85-.569-5.5l-.917-3-.086 3.357m-8.637 28.24c.375 1.322.315 1.922-.133 1.333-.452-.592-1.932-.782-3.316-.426l-2.5.643 2.5.877c1.375.483 2.854.9 3.286.927 1.322.082 2.684 2.911 2.672 5.549l-.011 2.5-1.705-2.75c-1.556-2.509-3.242-3.629-3.242-2.154 0 1.812 3.68 6.404 5.132 6.404.936 0 1.969.563 2.296 1.25.327.688.335.125.019-1.25-1.712-7.448-1.74-11.05-.079-10.412.897.344 1.639 1.59 1.647 2.769.012 1.617.231 1.803.893.758.541-.854.682.34.369 3.12-.312 2.764-.077 4.771.608 5.194.613.379 1.115.186 1.115-.429s.45-.84 1-.5c.604.373 1-.99 1-3.441 0-2.232-.372-4.059-.827-4.059-.455 0-.619-1.414-.365-3.142.298-2.036.091-2.914-.588-2.494-.577.357-1.239.308-1.471-.108-.232-.416-.284-.193-.116.494.449 1.845-1.45 1.526-5.381-.903l-3.484-2.154.681 2.404M76 409.35c0 .412.708 2.119 1.574 3.793 2.242 4.336 1.077 4.646-1.541.41-2.223-3.597-4.49-4.907-3.35-1.937.524 1.365.295 1.443-1.466.5-3.145-1.683-3.707-1.394-3.828 1.97-.079 2.203.162 2.701.845 1.748.714-.998.813-.893.392.416-.504 1.565.383 2.209 2.588 1.88.393-.058.463.676.156 1.632-.419 1.303-.32 1.404.397.404.771-1.077 1.078-1.014 1.594.332.98 2.553.741 4.207-.361 2.502-.853-1.32-.971-1.313-.985.059-.008.857.646 2.432 1.453 3.5.906 1.197 1.481 1.439 1.5.632.018-.742.539-.996 1.202-.586.82.507.944.151.414-1.191-.415-1.053-.93-3.23-1.144-4.839-.214-1.609-.738-3.184-1.165-3.5-.426-.316-.925-1.475-1.109-2.575-.376-2.259.111-1.818 4.267 3.851 2.144 2.924 3.035 3.526 3.703 2.5.69-1.06 1.302-.813 2.849 1.149 3.796 4.816 1.974-.142-2.129-5.793-4.883-6.726-5.856-7.865-5.856-6.857m-3.995 22.245c-.006 2.404 3.247 5.781 4.486 4.657.457-.414.499-.178.095.523-.45.781-.239 1.168.544 1 .704-.151 1.3.265 1.325.925.025.66.608 1.763 1.295 2.45 2.006 2.006 1.447 2.875-1.202 1.868-2.077-.79-2.369-.671-1.909.775.298.939-.776.181-2.387-1.684-2.497-2.889-3.028-3.136-3.591-1.668-.899 2.343-.807 3.337.167 1.803.553-.871 1.428-.104 2.855 2.5 2.222 4.057 3.83 11.691 2.258 10.719-.518-.319-.944-1.792-.948-3.272-.007-3.063-3.444-8.889-4.364-7.399-.334.54.063 1.537.882 2.217.819.68 1.453 2.418 1.41 3.863-.043 1.446-.306 2.066-.583 1.378-.278-.687-.933-1.25-1.457-1.25-.573 0-.54.768.084 1.934 1.581 2.955 1.25 4.424-.584 2.59-2.169-2.169-2.723-1.369-1.266 1.829 1.098 2.411 1.292 2.478 2.506.88 1.246-1.642 1.317-1.641 1.347.017.018.962.737 1.75 1.599 1.75 1.146 0 1.398-.606.938-2.25-.61-2.179-.567-2.171 1.364.235 2.191 2.73 3.852 2.27 2.346-.649-.521-1.01-1.195-4.311-1.498-7.336-.303-3.025-.335-4.737-.071-3.805.298 1.053 1.071 1.467 2.044 1.094 1.283-.493 1.49.046 1.147 2.985-.231 1.972-.063 3.366.372 3.097.435-.269.798 1.45.806 3.82.009 2.37.485 4.984 1.059 5.809.772 1.11.909.459.527-2.5-1.875-14.495-1.886-15.124-.227-13 .859 1.1 1.577 1.524 1.594.941.018-.582-.629-1.932-1.436-3-1.033-1.365-1.478-1.52-1.5-.524-.018.779-.284 1.165-.591.857-.308-.308.411-2.295 1.597-4.417 1.875-3.353 2.073-3.487 1.519-1.023-.416 1.85-.276 2.61.405 2.19 1.077-.666 3.394 4.09 2.611 5.358-.243.392-.028 1.367.478 2.166 1.63 2.577 1.095-3.642-.699-8.127-1.227-3.066-1.349-4.305-.477-4.844.833-.514.625-1.22-.718-2.435-1.819-1.646-1.915-1.558-2.536 2.324-.354 2.219-1.075 4.034-1.601 4.034-.527 0-.698-.675-.382-1.5.317-.825.062-1.5-.566-1.5-.811 0-.848-.549-.128-1.895.766-1.431.617-2.225-.609-3.242-1.435-1.191-1.541-1.088-.914.889.952 2.998-2.011 2.066-5.166-1.625-2.111-2.47-2.245-2.502-2.25-.532m250.759 39.836c-.953.697-1.402 1.632-.998 2.078.403.446.059.442-.766-.009s-1.189-.475-.809-.053-.368 1.91-1.663 3.306c-1.294 1.396-2.147 3.076-1.895 3.732.252.657-.237 1.772-1.087 2.477-1.333 1.106-1.55.887-1.576-1.59-.029-2.675-.112-2.735-1.215-.872-1.49 2.518-2.022 9.217-.792 9.977.508.314.677 2.59.375 5.056-.478 3.903-.332 4.402 1.124 3.843 1.082-.415 1.329-.985.701-1.613s-.504-2.435.35-5.117c.726-2.28 1.591-5.384 1.923-6.896.331-1.512 1.121-2.75 1.754-2.75 1.869 0 4.718-3.077 4.17-4.504-.277-.723.236-2.748 1.141-4.499 1.9-3.673 1.705-4.352-.737-2.566M106.986 485.5c-.181 2.926-.203 2.938-.9.5-.631-2.208-.806-1.975-1.507 2-.436 2.475-1.007 3.938-1.269 3.25-.952-2.498-2.303-1.155-3.015 3l-.729 4.25-.651-3.5-.652-3.5-.25 3-.25 3-.763-3c-.635-2.496-.806-1.992-1.018 3-.14 3.3-.449 4.988-.688 3.75-.489-2.54-2.294-3.084-2.294-.691 0 .857-.45 1.281-1 .941-1.494-.923-1.207-4.5.361-4.5.943 0 1.202-.838.841-2.722-.462-2.418-.6-2.502-1.236-.75-.655 1.802-.759 1.757-1.205-.528-.269-1.375-.55 2.187-.625 7.917-.124 9.498.328 12.508 1.131 7.522.172-1.066.843-2.839 1.492-3.939 1.101-1.865 1.182-1.808 1.211.842.016 1.564.93 3.987 2.03 5.385 1.1 1.399 2 2.005 2 1.349 0-.657.414-.938.919-.626.506.313 1.631-.143 2.5-1.012 1.406-1.406 1.581-1.41 1.581-.041 0 .907.574 1.32 1.396 1.004 1.638-.628 2.702-6.202 1.276-6.677-1.504-.501-2.084-11.203-.724-13.359.981-1.555 1.099-1.159.709 2.385-.309 2.812-.076 4.255.688 4.265.643.009.494.434-.337.959-.994.628-1.158 1.276-.491 1.943 3.355 3.355 5.107-7.142 2.573-15.417l-.918-3-.186 3m165.955 1c-.334 3.73-1.187 6.156-2.513 7.149-1.199.898-1.249 1.263-.231 1.671.717.287.039.558-1.506.601-1.842.052-2.565.473-2.101 1.224.489.792-.12.987-1.977.632-1.922-.367-2.958-.001-3.648 1.289-1.472 2.749-1.216 2.906 2.073 1.265 1.671-.834 3.696-1.263 4.5-.955.804.309 1.462.139 1.462-.376s.675-.678 1.5-.362c2.481.952 1.688 2.631-1 2.117-1.375-.263-2.5-.09-2.5.384 0 .473 1.012.906 2.25.961 2.159.095 2.148.132-.25.9-2.466.79-2.469.802-.191.9 1.27.055 2.031.55 1.691 1.1-.34.55-.141 1 .441 1s1.059-.45 1.059-1 .691-1 1.535-1c1.197 0 1.312-.418.521-1.895-1.017-1.902.579-4.382 2.589-4.022 2.021.363 2.743-.185 1.379-1.047-1.26-.797-1.15-1.375.75-3.944 1.224-1.656 2.226-3.309 2.226-3.674 0-1.291-3.153 1.977-4.592 4.759-1.759 3.403-3.935 3.821-2.979.573 1.158-3.936 1.304-6.564.441-7.927-.462-.727-.88-.873-.929-.323m-187.593 7c-.6 3.3-1.149 4.762-1.22 3.25-.07-1.512-.578-2.75-1.128-2.75-.607 0-1 4.389-1 11.167 0 6.141.296 10.87.658 10.508.362-.362 1.302-.123 2.089.53 1.132.94 1.388.886 1.223-.259-.51-3.562.013-4.35 1.586-2.387 1.436 1.791 1.503 1.478.871-4.059-.376-3.3-.978-9.6-1.336-14l-.651-8-1.092 6m149.325 2.91c-.308.803-.023 1.718.633 2.033.657.314-.831.362-3.306.105-4.699-.487-3.277.713 2.25 1.9 1.512.324 2.75 1.094 2.75 1.711 0 .616.763 1.678 1.695 2.36 1.475 1.079 1.157 1.33-2.458 1.941-2.284.386-5.184.39-6.445.008-1.656-.501-2.002-.386-1.247.415.575.609 3.5 1.346 6.5 1.637 3 .292 6.355.774 7.455 1.071 1.408.38 1.61.269.682-.377-1.506-1.047 4.629-2.964 11.318-3.536 2.2-.188.4-.424-4-.525-9.679-.222-11.276-.943-8.557-3.861 1.928-2.07 1.928-2.093-.1-2.623-1.124-.294-1.767-.984-1.427-1.533.339-.549.19-1.261-.331-1.583-.521-.322-1.243-.106-1.605.479-.465.752-1.038.75-1.952-.009-.95-.788-1.444-.685-1.855.387m14.665 13.324c-3.537.25-5.353.862-5.768 1.944-.496 1.292-.064 1.471 2.373.983 1.639-.327 3.229-.192 3.533.3.305.493-.466 1.092-1.711 1.331-1.246.24-.128.497 2.485.572 3.427.098 4.75.541 4.75 1.591 0 1.981 6.474 3.106 9.624 1.671 3.236-1.475 3.277-1.462 2.663.885-.646 2.469-4.184 3.459-9.091 2.544-2.033-.378-5.477-.879-7.653-1.111-3.892-.416-3.919-.396-1.652 1.192 2.318 1.624 26.345 2.462 27.836.971.333-.334-1.831-.623-4.81-.642-5.201-.034-5.317-.093-2.917-1.464 1.375-.786 4.943-2.156 7.929-3.045 3.862-1.149 5.025-1.867 4.027-2.483-.813-.503-1.646-.475-1.979.065-.317.512-2.129 1.218-4.027 1.569-3.336.615-3.384.581-1.45-1.053 1.944-1.643 1.916-1.671-1-1.005-4.066.928-15.113.559-17.811-.595-2.129-.911-2.121-.933.311-.834 4.858.197 5.647-.095 3.544-1.315-1.941-1.126-1.941-1.14 0-1.899 2.141-.838.629-.866-9.206-.172M224 513.771c0 .558.675 1.274 1.5 1.591.825.316 1.5 1.116 1.5 1.778 0 .661.745 2.025 1.655 3.031 1.165 1.287 1.276 1.829.378 1.829-1.027 0-1.032.297-.023 1.512.865 1.043 1.63 1.202 2.46.513.849-.705 1.895-.265 3.542 1.487 2.606 2.775 1.677 3.421-1.189.827-3.522-3.187-2.816-.613 1.03 3.756 2.132 2.423 4.05 4.855 4.262 5.405.212.55.702.894 1.088.766.387-.129 2.82.672 5.406 1.781 2.587 1.109 5.195 1.812 5.797 1.563.69-.285.632-.481-.156-.531-2.808-.177-1.007-2.082 2-2.114 1.787-.02 4.293-.615 5.568-1.322 2.273-1.261 2.239-1.309-1.774-2.512-3.48-1.042-4.324-.994-5.64.322-1.808 1.808-3.854 2.084-2.799.377.467-.755.203-.97-.743-.607-1.988.763-8.162-1.928-7.369-3.211.349-.565-.107-1.311-1.013-1.658-1.333-.512-1.393-.815-.314-1.587.987-.707.865-.804-.468-.373-1.005.325-1.545.167-1.22-.358.32-.518-1.697-2.744-4.483-4.945-2.785-2.202-4.936-4.306-4.78-4.675.157-.37-.727-1.344-1.965-2.166-1.238-.822-2.25-1.037-2.25-.479m80 1.13c-.825.462-4.538 1.399-8.25 2.083-7.988 1.47-9.69 4.102-2.1 3.246 3.348-.377 4.451-.203 3.941.623-.39.631-2.145 1.161-3.9 1.179-2.87.028-8.411 2.811-6.132 3.079 2.504.294 6.216-.461 8.781-1.787 2.98-1.541 6.249-1.087 5.137.713-.357.578-.105 1.706.559 2.507.947 1.14.939 1.781-.036 2.956-1.894 2.282.427 1.791 2.532-.535 1.013-1.12 2.433-1.809 3.155-1.532.722.277 1.313-.107 1.313-.854 0-.746.847-2.403 1.882-3.681 1.478-1.826 1.662-2.805.857-4.571l-1.024-2.248-2.492 1.961c-1.371 1.078-3.416 1.96-4.545 1.96-1.887 0-1.821-.242.822-3 2.787-2.909 2.57-3.819-.5-2.099m-154.072 19.788c-.996 2.62-4.476 5.789-6.372 5.804-.519.004-1.762 1.408-2.762 3.12-1.654 2.832-1.682 3.373-.312 6l1.506 2.887.006-4.095c.004-2.819.629-4.659 2.006-5.905 2.371-2.146 2.581-.843.506 3.136-.821 1.575-1.532 4.664-1.579 6.864-.047 2.2-.312 3.438-.589 2.75-.819-2.029-2.095-1.442-3.261 1.5-.991 2.5-1.051 2.353-.662-1.621.31-3.169.126-4.07-.669-3.275-.794.794-.742 4.59.191 13.802 1.162 11.471 1.13 12.822-.325 13.886-.969.709-1.581 2.53-1.533 4.568.043 1.865.301 2.715.573 1.89 2.643-8.021 3.914-7.567 6.001 2.145.962 4.48 1.917 7.645 2.121 7.033.204-.612-.344-4.618-1.218-8.901-1.654-8.113-1.953-24.512-.495-27.216.462-.859 1.12-4.141 1.46-7.295.934-8.651 2.936-8.752 2.211-.112-.598 7.131.445 11.762 1.606 7.135.572-2.279.012-10.798-.893-13.591-.232-.716.023-1.027.566-.691.544.336.989.209.989-.281 0-.491.65-.893 1.444-.893 1.117 0 1.377 1.218 1.147 5.365-.164 2.951.086 5.603.556 5.893.469.29.909-1.637.977-4.282.069-2.645.705 2.391 1.415 11.191.709 8.8 2.004 18.7 2.878 22l1.588 6-.672-5c-.37-2.75-.776-6.8-.902-9-.125-2.2-.461-4.675-.746-5.5-1.046-3.032-1.668-18.893-.762-19.452.509-.315 1.132.221 1.385 1.19.39 1.492.474 1.456.554-.238.052-1.1-.818-4.011-1.933-6.469-1.115-2.458-2.291-6.395-2.614-8.75-.672-4.901-1.908-5.482-3.387-1.592m43.005 7.811c-.15 2.2-.151 6.025-.003 8.5.266 4.45-1.032 5.093-1.514.75a5088.09 5088.09 0 0 0-.333-3c-.046-.413-.486-.75-.978-.75-.522 0-.532 1.562-.024 3.75 1.073 4.618 1.054 6.426-.038 3.75-.563-1.382-.742-.61-.576 2.5.142 2.67.691 4.403 1.35 4.262.611-.131.865.404.563 1.189-.301.785-.031 2.242.599 3.238.982 1.55 1.063 1.414.565-.939-.668-3.157-.315-3.378 1.885-1.179 1.428 1.429 1.571 1.418 1.571-.122 0-1.33.298-1.447 1.385-.545 1.705 1.416 2.432-.967 3.093-10.129l.452-6.275-1.138 4.5c-.625 2.475-1.464 4.725-1.864 5-.399.275-.973 1.625-1.275 3-.301 1.375-.344-.402-.095-3.949.421-5.99.341-6.31-1.121-4.5-1.481 1.835-1.543 1.715-1.057-2.051.284-2.2.136-5.575-.329-7.5l-.846-3.5-.272 4M391 553c0 .615-.45.84-1 .5-.55-.34-1-.115-1 .5s-.45.84-1 .5c-1.34-.828-1.26.062.25 2.764 1.648 2.948 3.045 3.877 3.856 2.565.422-.683 1.35-.373 2.588.865 1.964 1.964 2.016 4.863.066 3.658-.677-.419-.772-.181-.26.648.504.815.416 1.066-.232.666-2.303-1.424-2.093 3.893.347 8.775 2.532 5.07 5.235 8.651 4.125 5.468-.933-2.675.856-4.532 2.11-2.19 2.318 4.332 8.15 10.513 8.138 8.626-.006-1.015-2.015-3.924-4.463-6.466-2.447-2.541-4.239-4.831-3.982-5.089.258-.258-.403-1.258-1.469-2.223-1.078-.976-1.705-2.49-1.412-3.411.41-1.288.311-1.355-.443-.299-1.222 1.711-2.47-.04-1.615-2.267.608-1.586 1.675-1.996 4.262-1.638.752.104-.598-2.092-3-4.881-2.401-2.789-4.816-5.077-5.366-5.086-.55-.009-.389-.402.357-.875.946-.6 1.021-1.067.25-1.544-.609-.376-1.107-.181-1.107.434m-202.584 14.875c.321 1.856.616 4.781.654 6.5.06 2.652.201 2.822.93 1.125.473-1.1.891-1.437.93-.75.119 2.122 1.904 1.379 2.402-1 .26-1.237.24.504-.044 3.87-.797 9.442 1.572 9.737 3.046.38.238-1.51.498-.719.656 2 .222 3.794.468 3.091 1.568-4.485.718-4.942 1.18-9.111 1.026-9.264-.153-.154-1.496.679-2.984 1.849s-2.978 1.856-3.311 1.523c-.333-.333-1.209-.104-1.947.508-1.041.864-1.345.694-1.357-.759-.009-1.029-.497-2.547-1.085-3.372-.809-1.136-.927-.681-.484 1.875M264 587.5c1.02 1.229.951 1.5-.378 1.5-2.451 0-1.944 1.896.847 3.168 1.357.618 2.251 1.476 1.985 1.906-.626 1.013 3.265 2.238 6.791 2.138 1.821-.052 2.755.432 2.755 1.426 0 .828.675 2.18 1.5 3.005 2.168 2.168 1.9 3.642-.434 2.392-2.601-1.392-3.74-1.309-2.266.165 1.697 1.697 1.489 3.125-.352 2.418-.89-.341-1.291-.173-.941.393.914 1.48-.094 1.192-1.419-.405-.893-1.076-.791-1.76.449-3 1.37-1.371 1.387-1.606.116-1.606-.819 0-2.201-.273-3.071-.607-.87-.334-1.582-.109-1.582.5s.675 1.107 1.5 1.107 1.5.466 1.5 1.035c0 .702-.644.691-2-.035-1.286-.688-2-.714-2-.07 0 .55.876 1.469 1.948 2.042 1.071.573 2.729 2.365 3.683 3.981.955 1.616 2.098 2.714 2.541 2.441.443-.274.543.313.222 1.304-.494 1.527-.409 1.573.553.302 1.01-1.333 1.114-1.333.932 0-.292 2.143 1.19 7 2.136 7 .439 0 .544-.97.234-2.156-.411-1.57-.22-1.944.701-1.375 1.234.763 1.061-.464-.774-5.469-.468-1.275-.303-1.299 1.098-.16.907.737 1.947 2.282 2.313 3.433.617 1.946.75 1.888 1.899-.84 1.347-3.196.391-6.433-1.899-6.433-.738 0-1.902-.675-2.587-1.5-.928-1.118-.944-1.5-.063-1.5.649 0 .959-.359.688-.798-.271-.439-.09-1.449.401-2.245.754-1.218 1.114-1.147 2.282.449.963 1.317 1.606 1.543 2.103.739.8-1.295-2.598-6.569-5.215-8.095-1.402-.818-1.175-1.012 1.304-1.119 2.901-.126 2.918-.153.5-.827-2.322-.647-2.36-.75-.528-1.454 1.654-.636 1.735-.908.5-1.688-1.11-.702-.734-.96 1.528-1.046 2.909-.112 2.924-.137.5-.835-1.375-.397-2.725-.408-3-.026-.275.381-2.075 1.06-4 1.507l-3.5.813 3 .694c2.835.656 2.78.7-1 .797-3.334.086-9.075-1.722-6-1.89.952-.052-5.177-2.976-6.237-2.976-.279 0 .052.675.737 1.5m96.095 1.441c-.919.568-.979 1.013-.202 1.493.609.376 1.107 1.134 1.107 1.684s-.45.722-1 .382c-.55-.34-1-.176-1 .364 0 1.312 5.875 7.136 7.199 7.136.639 0 .562.584-.199 1.5-.685.825-1.865 1.5-2.622 1.5-1.8 0-1.75.341.618 4.226 1.59 2.608 2.003 2.867 2.031 1.274.031-1.854.109-1.87 1.065-.229 1.147 1.971 2.908 1.433 2.908-.889 0-.825-.337-1.294-.75-1.042s-.833-1.184-.934-3.191c-.184-3.627-.176-3.634 1.214-1.149 2.015 3.601 1.324-2.986-1.142-10.893-.969-3.105-1.393-.085-.529 3.761 1.247 5.551.173 5.184-2.851-.974-2.839-5.783-3.117-6.063-4.913-4.953M355.439 593c.639 2.403.604 2.424-.887.559-1.45-1.814-1.552-1.585-1.558 3.5-.006 5.439-.007 5.44-1.5 2.577-.822-1.576-1.494-3.965-1.494-5.309 0-1.345-.389-2.204-.865-1.91-1.638 1.012-1.975 7.397-.646 12.235l1.332 4.848.171-4 .17-4 1.318 2.992c1.147 2.604 1.377 2.734 1.779 1 .254-1.096.279-.53.056 1.258-.223 1.788.034 3.25.572 3.25 1.493 0 2.339-3.694 1.608-7.022-.963-4.384.253-3.627 1.477.919.577 2.144 1.774 4.175 2.659 4.515 1.277.49 1.485.149 1.003-1.647-.334-1.246-.62-2.715-.636-3.265-.016-.55-.382-.444-.813.235-.468.736-.785-.147-.785-2.185 0-1.881.36-3.198.8-2.926.44.272.8-.208.8-1.065s-.503-1.447-1.117-1.309c-.615.138-1.258-.596-1.431-1.631-.172-1.034-.845-2.384-1.495-3-.899-.851-1.023-.521-.518 1.381m-94.732 19.989c.286 1.094.872 1.771 1.302 1.505 1.134-.7 1.927 1.935 1.402 4.66-.377 1.956-.313 2.03.386.442.965-2.194 4.058 3.437 6.144 11.187 1.331 4.942 2.544 5.717 1.512.967l-.705-3.25 2.093 2.5c1.926 2.301 2.093 2.341 2.094.5.001-2.122-2.3-5.802-3.117-4.984-.267.266-.506-.078-.532-.766-.026-.687-.398-2.099-.826-3.136-1.271-3.08 1.719-1.434 4.29 2.361 2.334 3.445 3.124 2.526 1.092-1.27-1.596-2.983-3.17-4.429-4.381-4.025-.561.187-2.717-1.69-4.791-4.17-3.978-4.759-6.867-5.981-5.963-2.521m23.968 2.171c-.365 1.455-.371 4.109-.013 5.898.51 2.554.365 3.077-.676 2.433-1.005-.621-1.136-.355-.542 1.095 2.034 4.972 1.956 6.02-.256 3.414-2.38-2.805-2.939-1.577-.656 1.441 1.681 2.222 1.949 3.974.468 3.059-1.582-.978-1.162 1.12.5 2.5 1.118.928 1.5.944 1.5.063 0-.649.45-.903 1-.563.55.34 1 1.068 1 1.618s-.515.682-1.144.293c-.629-.389-.315.696.697 2.41 2.36 3.994 4.149 4.654 5.091 1.878.701-2.068.792-2.02 1.512.801.495 1.941.637.542.402-3.967-.2-3.848-.853-7.131-1.459-7.333-.65-.217-.834-1.409-.451-2.932.388-1.548.261-2.33-.321-1.97-.563.348-.842-.734-.67-2.601.261-2.833.205-2.912-.489-.697-.742 2.365-.872 2.258-2.411-2-.895-2.475-1.806-5.172-2.023-5.992-.241-.91-.655-.46-1.059 1.152m-53.042.055c.405.656.214.808-.478.38-.635-.392-1.155-.21-1.155.405s-.48.821-1.067.458c-.595-.367-1.328.336-1.656 1.589-.56 2.143-.651 2.162-1.932.41-2.115-2.892-1.575-.657 2.181 9.043 2.706 6.985 3.444 8.216 3.3 5.5-.362-6.826.111-9.713 1.266-7.729.567.974 1.523 1.467 2.124 1.096.601-.372.846-.269.543.228-.302.498.079 1.485.846 2.194 1.148 1.061 1.395 1.017 1.395-.25 0-.846.414-1.539.921-1.539 1.293 0 2.356 5.502 1.588 8.228-.5 1.773-.41 1.943.41.772.638-.911 1.056-1.034 1.066-.315.024 1.844 2.016 6.648 2.54 6.124.257-.258-.214-2.768-1.049-5.577-.834-2.81-1.419-5.474-1.298-5.921.446-1.656-1.521-5.885-3.813-8.197-2.457-2.479-3.237-4.771-1.195-3.509.798.493.957.168.5-1.023-.369-.96-.67-1.96-.67-2.223 0-.262-.52-.156-1.155.236-.634.393-.891.288-.569-.233.322-.521-.293-1.013-1.367-1.094-1.182-.089-1.686.285-1.276.947M252.774 630c-1.246 11.294.213 29.744 2.252 28.484.447-.276 1.363 1.189 2.036 3.257 3.574 10.988 5.118 8.385 5.48-9.241.307-14.958.413-15.375 2.032-8l1.317 6-.579-8c-.678-9.38-2.149-14.447-2.249-7.75-.08 5.391-1.604 5.519-2.454.206-1.269-7.933-5.477-11-5.772-4.206-.13 2.99-.283 2.635-.755-1.75l-.591-5.5-.717 6.5m-29.174 2.6c-.562 1.466 2.955 16.346 4.109 17.384.315.284.294-1.734-.046-4.484-.657-5.309.585-4.448 1.802 1.25.446 2.088.308 3.25-.386 3.25-.593 0-1.079.525-1.079 1.167 0 .641.273.893.607.56.869-.869 3.292 1.594 2.634 2.678-.303.497-.036.586.593.198.763-.472.924-.137.485 1.009-.444 1.157-.281 1.483.5 1 .776-.48.966-.121.575 1.086-.496 1.534-.41 1.579.577.302.941-1.217 1.041-1.029.529 1-.476 1.885-.38 2.134.39 1.013.852-1.241 1.024-1.158 1.036.5.008 1.093.279 3.562.602 5.487.501 2.981.394 3.265-.72 1.912-.719-.873-1.87-1.398-2.558-1.166-.687.231-1.257-.179-1.265-.913-.012-1.008-.272-.967-1.066.167-.808 1.155-.905.925-.419-1 .424-1.681.328-2.063-.295-1.166-.746 1.074-1.051 1.009-1.566-.332-.904-2.357-.803-2.721.531-1.897.824.51.939.158.386-1.191a43.992 43.992 0 0 1-1.286-3.664c-.277-.962-.901-1.75-1.387-1.75-.485 0-.883-.723-.883-1.607 0-.954-.56-1.392-1.378-1.078-.758.291-1.883.024-2.5-.593-.829-.829-1.126-.352-1.137 1.828-.025 4.795-1.924.739-2.13-4.55-.145-3.731-.244-3.941-.58-1.231-.222 1.798-.732 3.067-1.132 2.819-.4-.247-.794.429-.875 1.503-.081 1.074.217 1.727.661 1.453.445-.275.831 2.046.859 5.157.034 3.742-.255 5.173-.853 4.228-1.334-2.108-1.169.462.226 3.524.638 1.401 1.425 2.581 1.75 2.624.324.042 1.376.227 2.339.411 1.082.207 1.776-.3 1.818-1.326.051-1.252.33-1.119 1.129.535.584 1.209 2.386 2.659 4.004 3.223 1.619.565 4.663 2.388 6.765 4.053 4.876 3.862 4.78 3.891 5.635-1.723l.724-4.75 1.375 3c1.263 2.758 1.325 2.395.764-4.5-.336-4.125-1.028-7.928-1.537-8.45-.51-.523-.964-2.098-1.009-3.5-.076-2.385-.188-2.324-1.729.95l-1.648 3.5-.331-3.75c-.182-2.062-.754-3.75-1.27-3.75-.517 0-.94-.702-.94-1.559s-.45-1.281-1-.941c-1.046.646-1.438-1.271-1.127-5.5.132-1.788-.073-2.114-.719-1.143-1.043 1.566-1.442 1.038-3.103-4.116-.72-2.234-1.649-3.489-2.289-3.094-.68.42-.89-.048-.571-1.27.646-2.471-1.731-5.018-2.591-2.777m47.877 5.473c-.604 1.901-.802 1.943-2.396.5-2.61-2.361-2.834-2.001-1.982 3.177.43 2.612.809 7.064.841 9.893.046 3.905.481 5.325 1.81 5.901 3.624 1.57 4.464 1.381 3.861-.868-.321-1.197-.59-3.189-.597-4.426-.008-1.237-.374-2.25-.813-2.25-.44 0-.661 1.688-.491 3.75.448 5.437-1.35 1.026-2.187-5.368-.574-4.382-.491-4.697.818-3.079.801.992 1.615 1.344 1.808.782 1.06-3.084 3.321 1.787 4.902 10.559.976 5.421 2.07 10.981 2.431 12.356.608 2.32.567 2.356-.578.5-.678-1.1-1.542-2.225-1.919-2.5-.377-.275-.942-1.175-1.256-2-.421-1.107-.61-.975-.72.5l-.15 2-.859-2c-.663-1.543-.875-1.016-.93 2.309-.047 2.91.29 4.087 1.037 3.625.752-.465.882.026.406 1.527-.645 2.029-.52 2.113 1.52 1.022 1.769-.947 2.392-.914 3.058.164 1.559 2.523 5.86.84 5.944-2.326.02-.726.679-.196 1.465 1.179 1.274 2.228 1.435 2.282 1.48.5.041-1.627.224-1.726.982-.528 1.01 1.598 1.353 1.094 2.363-3.472.359-1.621.468-1.526.574.5.073 1.375.578 3.175 1.123 4 .68 1.029.789-.3.349-4.234-.448-3.996-.258-6.198.628-7.265.698-.841 1.41-4.786 1.58-8.766.206-4.797.068-6.056-.41-3.735-.633 3.082-.795 3.231-1.351 1.25-1.276-4.55-2.677-2.287-2.165 3.5.373 4.23.226 5.353-.557 4.25-.586-.825-1.123-2.85-1.193-4.5-.095-2.23-.439-1.589-1.34 2.5-.857 3.887-1.384 4.913-1.797 3.5-.321-1.1-.358-.186-.082 2.03.442 3.55.252 4.049-1.591 4.188-1.365.103-2.088-.43-2.078-1.53.014-1.455.149-1.481.985-.188.802 1.241.968 1.155.961-.5-.017-4.02-1.869-9.869-3.395-10.723-.861-.482-1.566-1.556-1.566-2.386 0-.83-.414-1.253-.919-.941-.506.313-1.409-.913-2.006-2.724-.598-1.81-1.992-4.067-3.099-5.014-1.45-1.242-1.837-2.419-1.385-4.217.754-3.005-.182-3.359-1.114-.422M226 684.458c0 1.3 1.846 1.548 11.75 1.578 6.463.019 27.335.287 46.383.594 25.727.414 34.817.259 35.35-.603.395-.638.56-1.298.367-1.466-.192-.168-21.388-.607-47.1-.975-41.741-.598-46.75-.504-46.75.872" fill="#d3d3d3" fill-rule="evenodd"/></svg>