<svg xmlns="http://www.w3.org/2000/svg" width="500" height="499"><path d="M131.25 3.674c-2.541 1.773-3.137 4.899-.75 3.933l3.116-1.259c1.354-.546 1.441-.323.536 1.369-.595 1.111-.858 2.243-.585 2.516.606.607-4.114 5.267-5.335 5.267-1.523 0-4.386 3.442-3.737 4.492.343.555.098 1.008-.543 1.008s-.907.675-.59 1.5c.863 2.249-.39 5.062-1.486 3.334-.599-.946-.85-.646-.861 1.031-.014 2.257.093 2.295 2.35.815 1.785-1.169 2.648-1.267 3.517-.398.869.869.349 1.529-2.115 2.688-3.2 1.505-5.427 7.03-2.833 7.03.586 0 1.066.873 1.066 1.941s.376 2.173.835 2.457c.46.284.395 3.252-.144 6.596-.698 4.336-.651 6.799.165 8.59.629 1.38 1.144 3.211 1.144 4.069 0 .857 1.013 2.798 2.25 4.314 1.238 1.516 3.476 4.843 4.975 7.394 1.85 3.148 3.391 4.639 4.797 4.639 1.223 0 2.734 1.156 3.692 2.824.891 1.553 3.308 3.795 5.37 4.982 2.664 1.533 3.953 3.087 4.454 5.369.892 4.06 2.811 6.012 5.061 5.149 1.385-.532 1.604-.294 1.052 1.143-1.176 3.064 1.845 6.188 7.789 8.058 6.411 2.016 8.394 3.765 6.65 5.866-1.217 1.467 2.972 3.609 7.059 3.609 1.018 0 1.851.477 1.851 1.059 0 2.888 1.997-.726 2.957-5.352 1.644-7.921 4.296-11.692 8.278-11.775 3.133-.065 3.172-.112.946-1.183-2.431-1.17-2.427-1.319.209-8.249.837-2.2 1.542-5.137 1.566-6.527.024-1.391.776-3.574 1.672-4.852 1.284-1.833 1.491-3.656.981-8.635-.611-5.964-.504-6.423 1.944-8.349 13.316-10.474 12.637-22.794-2.051-37.212-3.576-3.51-6.502-6.919-6.502-7.576s-1.546-1.704-3.435-2.328c-1.89-.623-3.577-1.449-3.75-1.835C181.969 9.302 173.936 4 171.927 4c-1.257 0-3.804-.549-5.661-1.221-3.616-1.307-5.675-.009-4.566 2.88.338.881-.294 1.357-1.843 1.388-12.565.253-17.281.726-17.629 1.768-.476 1.428-4.863 1.585-5.715.206-.333-.539-.195-1.776.306-2.75 2.058-4.001-1.307-5.569-5.569-2.597m98.433 35.976c-.357.358-3.269.572-6.469.476-6.677-.201-10.249 2.359-10.664 7.642-.126 1.597-.571 3.458-.99 4.135-.419.678-.806 2.777-.859 4.665-.054 1.887-.458 3.432-.899 3.432-1.485 0-.818 2.676 1.099 4.41 2.333 2.111 3.377.826 2.922-3.599-.208-2.022.172-3.308 1.066-3.607.814-.271 1.112-.015.72.62-.91 1.472.38 6.301 1.498 5.61.491-.304.893-.075.893.507S217.325 65 216.5 65s-1.5.45-1.5 1 1.088 1 2.417 1c1.329 0 2.59.522 2.803 1.16.212.637 1.204-1.05 2.204-3.75.999-2.701 2.458-5.937 3.241-7.192 1.729-2.772 3.826-2.004 2.303.843-1.08 2.017.346 2.857 1.548.912.349-.564 1.378-.902 2.287-.75.909.153 1.662-.205 1.675-.794.012-.59.809-1.859 1.772-2.822.963-.962 1.757-2.28 1.765-2.928.009-.691.406-.561.959.313.518.82.673 2.62.343 4l-.599 2.508 2.888-2.5c1.588-1.375 3.039-2.837 3.224-3.25.185-.413 1.009-.75 1.831-.75.994 0 .296 1.4-2.083 4.18-4.715 5.509-4.513 6.202.922 3.164 2.475-1.383 4.5-2.953 4.5-3.489 0-.535.524-.649 1.164-.254.789.488.305 1.459-1.5 3.011-1.465 1.261-2.664 2.989-2.664 3.84 0 .934-.892 1.554-2.25 1.563-4.826.033-6.124 4.655-3.225 11.485.759 1.787.669 1.853-.85.617-1.488-1.21-2.003-1.055-4.14 1.25-1.724 1.861-3.407 2.614-5.737 2.57-3.044-.059-3.119-.135-.984-.992 1.273-.51 2.034-1.382 1.691-1.937-1.136-1.837-5.121-1.045-7.505 1.492-1.292 1.375-1.975 2.5-1.519 2.5.456 0 .153.787-.674 1.75-2.353 2.739-2.848 5.067-1.64 7.717.842 1.847.797 3.205-.181 5.567-1.783 4.304 2.192 8.572 6.125 6.577 1.948-.988 2.591-.945 3.483.236 1.403 1.856 6.406.743 6.406-1.425 0-.847.45-1.262 1-.922.55.34 1 .186 1-.342C237 98.988 245.994 90 247.165 90c.459 0 .842-1.237.85-2.75.012-2.143.23-2.419.985-1.25 1.458 2.256 1.281 2.731-2.332 6.252-4.216 4.108-7.668 9.103-7.668 11.093 0 2.056-1.244 2.707-5.838 3.055-2.12.161-4.371.611-5.002 1.001-.63.39-3.062.937-5.403 1.216-4.853.578-6.701 1.839-5.075 3.465 1.168 1.168-.412 6.918-1.901 6.918-.43 0-.781 1.152-.781 2.559 0 1.451-.433 2.292-1 1.941-.55-.34-1-1.941-1-3.559 0-4.525-1.401-3.566-5.931 4.059-2.287 3.85-4.838 7-5.669 7-.991 0-.545.832 1.294 2.415 3.419 2.942 2.785 3.742-3.29 4.148-5.741.384-7.592 1.848-4.861 3.845 1.064.778 2.277 1.203 2.696.944.419-.258.761.007.761.589s-.375 1.059-.833 1.059c-.459 0-.909.675-1 1.5l-.334 3c-.091.825-.568 1.5-1.059 1.5-.49 0-.602.47-.247 1.044.355.574.082 1.722-.605 2.55-1.04 1.254-.887 1.602.914 2.073 1.19.312 2.164.964 2.164 1.45 0 .485.9.883 2 .883s2 .45 2 1-.9 1.9-2 3-1.81 2-1.577 2c.233 0-.927 1.35-2.577 3s-3.305 3-3.679 3c-.373 0-1.323 1.463-2.111 3.25-.788 1.787-2.043 3.865-2.789 4.616-2.188 2.204-.857 3.658 3.061 3.344 3.07-.246 9.672 1.968 9.672 3.243 0 .222-2.369.158-5.264-.141-5.007-.517-5.519-.342-10.471 3.572-3.604 2.849-6.176 4.116-8.358 4.116-2.734 0-2.981.206-1.865 1.55 1.064 1.283.989 1.844-.433 3.25-1.621 1.603-1.691 1.545-1.233-1.034.267-1.503.086-2.98-.401-3.282-.488-.301-.598-1.321-.244-2.266.575-1.536.454-1.564-1.145-.262-.983.801-2.466 1.556-3.295 1.678-2.837.416-8.53 6.151-7.88 7.938.214.589-.466 1.606-1.511 2.258-1.46.912-1.9.913-1.9.004 0-.65-1.042-.204-2.314.992-1.273 1.196-2.875 2.174-3.559 2.174-.685 0-.967.45-.627 1 .34.55-.084 1-.941 1s-1.559.42-1.559.933c0 .513-.826 1.194-1.836 1.515-1.01.321-3.598 3.041-5.75 6.046-3.713 5.183-5.414 6.627-5.414 4.596 0-.501 1.839-3.237 4.087-6.08 4.955-6.27 4.737-6.826-1.11-2.832-6.871 4.693-16.116 8.82-19.758 8.821-3.869.001-5.364 2.443-2.692 4.397 3.024 2.211 1.485 3.256-7.678 5.209-1.199.256-1.514-.17-1.151-1.557.277-1.06 1.083-1.686 1.81-1.406 1.352.518 3.16-3.307 2.076-4.392-1.246-1.246-8.063 1.252-8.413 3.083-.3 1.572-.052 1.674 1.74.715 2.1-1.124 3.085.218 1.073 1.462-.559.346-.758 1.047-.441 1.559.316.512-.381.931-1.55.931-1.168 0-3.089.516-4.267 1.147-1.178.63-3.061 1.248-4.184 1.372-1.123.124-2.428.283-2.899.353-.471.071-.592.817-.269 1.66.395 1.029-.269 1.858-2.024 2.525-1.436.546-3.841 1.868-5.343 2.938-1.503 1.07-2.932 1.746-3.176 1.502-.244-.244-1.909.895-3.699 2.53-1.912 1.746-2.661 2.973-1.816 2.973.791 0 1.999-.675 2.684-1.5s1.695-1.5 2.245-1.5c.558 0 .45.663-.244 1.499-1.483 1.787 3.093 1.203 8.858-1.129 2.054-.831 4.87-1.117 7.25-.737 2.685.43 3.891.255 3.891-.564 0-.653.392-.945.871-.649 1.062.657 5.129-2.722 5.129-4.262 0-.608 1.307-1.783 2.905-2.609 1.598-.826 3.573-2.17 4.389-2.986 1.388-1.388 13.6-4.002 14.499-3.104.225.226-.782 1.677-2.239 3.226-1.456 1.548-3.322 4.211-4.145 5.918-2.4 4.975-12.651 14.983-14.301 13.963-1.256-.776-4.112 5.041-4.093 8.338.037 6.691 6.819 18.096 10.761 18.096 1.541 0 .725 6.218-.898 6.833-.483.184-.871 1.534-.863 3 .012 2.104.224 2.35 1.003 1.167.813-1.235.96-1.146.827.5-.413 5.11.094 6.795 1.655 5.5.825-.685 1.5-1.891 1.5-2.681 0-.843.484-1.138 1.17-.714.774.479.965.188.563-.858-.711-1.853 1.861-3.212 2.9-1.532.432.7 1.033.218 1.583-1.27.723-1.954 1.056-2.124 1.803-.921.567.912.547 1.603-.051 1.809-.532.184-.958 1.534-.946 3l.022 2.667 2.052-2.5c1.29-1.572 2.233-2.06 2.539-1.316.367.891 1.494.829 4.552-.25 5.477-1.932 5.811-1.857 5.828 1.316.012 2.143.23 2.419.985 1.25.533-.825.976-2.738.985-4.25.009-1.698.557-2.75 1.431-2.75.779 0 3.347-1.8 5.706-4 4.927-4.595 9.435-5.534 8.394-1.75-.588 2.135-.544 2.156.866.4.817-1.018 1.965-1.554 2.551-1.191.587.362 1.067.182 1.067-.4 0-.582-.525-1.059-1.167-1.059-.641 0-.85-.317-.462-.704.387-.387 1.924-.725 3.416-.75 1.827-.031 3.035-.781 3.7-2.296.645-1.47 1.859-2.253 3.5-2.259 1.382-.005 4.625-1.032 7.206-2.282 3.27-1.584 6.203-2.211 9.672-2.066 3.534.148 5.137-.206 5.525-1.218.301-.784-.001-1.502-.671-1.596-1.683-.236-4.778-.519-7.528-.687-1.27-.078-2.031-.592-1.691-1.142.34-.55.141-1-.441-1s-1.059.362-1.059.804c0 .442-2.137.779-4.75.75-2.613-.03-5.13.396-5.594.946-.487.576-.592.222-.25-.834.395-1.216.174-1.679-.655-1.375-.688.253-1.149.934-1.024 1.514.285 1.326-6.305 3.571-8.268 2.818-.803-.308-1.459-.124-1.459.408 0 .533-.675.969-1.5.969s-1.447-.337-1.382-.75c.403-2.55-.319-2.945-4.118-2.25-2.2.402-4 .535-4 .294 0-.24-.707.27-1.571 1.135-.865.864-3.105 1.571-4.979 1.571h-3.407l.421-5.25c.231-2.887.724-6.488 1.095-8 .535-2.181.325-2.75-1.016-2.75-2.243 0-1.628-2.955.915-4.393 3.287-1.859 4.542-3.372 4.542-5.476 0-1.874-.188-1.915-2.75-.586-3.193 1.657-8.25 7.156-8.25 8.972 0 .685-1.597 2.463-3.548 3.952-3.369 2.57-3.537 2.981-3.327 8.166.122 3.004.593 5.691 1.048 5.972.455.281.827 1.422.827 2.535 0 2.562-2.437 1.901-2.671-.725-.094-1.054-.439-4.295-.766-7.202-.351-3.114-.145-6.127.501-7.335 1.452-2.712.517-3.466-2.56-2.064-1.522.694-2.504.757-2.504.163 0-.539.382-.979.848-.979.467 0 1.556-1.8 2.42-4 1.496-3.808 4.125-5.32 4.95-2.847.227.681 1.491.047 3.083-1.545 2.603-2.603 3.75-5.376 1.699-4.108-.55.34-1 .211-1-.286 0-.996 3.829-4.714 4.855-4.714.355 0 .583-.562.506-1.25-.076-.687.255-1.25.737-1.25.481 0 1.518-1.539 2.304-3.42 1.308-3.13 5.133-6.379 6.225-5.287.25.251-.621 1.75-1.937 3.331-1.316 1.582-2.197 3.439-1.958 4.126.613 1.763 3.268 1.56 3.268-.25 0-.825.477-1.5 1.059-1.5s.781.45.441 1 .084 1 .941 1 1.559-.436 1.559-.969c0-.532.648-.72 1.439-.416 1.026.394 1.632-.476 2.111-3.031.532-2.835 1.137-3.584 2.895-3.584 3.249 0 3.871-1.158 1.308-2.436-2.613-1.303-3.829-4.914-1.331-3.956.861.331 1.318 1.004 1.013 1.497-.304.492.149.895 1.006.895 1.026 0 1.57-.94 1.591-2.75.029-2.488.157-2.585 1.349-1.016.724.954 1.61 1.442 1.968 1.084.358-.358.651.099.651 1.015 0 .917-.45 1.667-1 1.667s-1 .45-1 1 1.125 1 2.5 1 2.5.45 2.5 1c0 1.562 1.426 1.184 3.77-1 1.18-1.1 2.567-2 3.081-2 1.085 0 2.156-2.425 2.134-4.832-.014-1.442-.147-1.465-.985-.168-.828 1.282-.972 1.246-.985-.25-.008-.963.66-1.75 1.485-1.75.825 0 1.5-.477 1.5-1.059s.563-.735 1.25-.34c.688.396.95.385.583-.024-.948-1.058 2.416-4.32 3.917-3.798.688.239 1.25-.288 1.25-1.172 0-.884.477-1.607 1.059-1.607s.781-.45.441-1c-1.355-2.193 1.244-.824 3.547 1.868 1.349 1.577 3.014 2.655 3.699 2.394.906-.344 1.076.38.622 2.65-.519 2.594-.353 3.02.978 2.509.881-.338 2.214-.004 2.962.744 1.268 1.268 1.471 2 1.828 6.585.075.963.58 2.313 1.123 3 .663.841.578 1.741-.259 2.75-1.107 1.334-.743 1.882 1.107 1.666.333-.039 2.302 1.483 4.375 3.382 2.073 1.898 4.174 3.452 4.669 3.452.495 0 .209 1.336-.635 2.97-.845 1.633-1.419 3.546-1.276 4.25.159.78-.984 1.401-2.929 1.589-2.624.254-3.245.786-3.5 3-.269 2.328-.783 2.703-3.811 2.783-2.466.065-3.402.507-3.168 1.497.5 2.113 2.243 3.911 3.79 3.911.758 0 1.378.975 1.378 2.166 0 1.191.787 2.913 1.748 3.826 1.639 1.556 1.919 1.443 4.5-1.804 1.514-1.905 2.755-3.964 2.758-4.576.004-.611.761-2.462 1.683-4.112 1.262-2.257 1.641-5.228 1.531-12l-.146-9 2.003 3.781c1.101 2.08 1.734 4.216 1.405 4.748-.329.532.046 1.887.833 3.01 1.427 2.037 1.432 2.037 2.02-.212.324-1.241.201-2.497-.274-2.791-.475-.295-1.094-2.001-1.376-3.792-.29-1.841-.115-3.01.401-2.691.503.311.914.157.914-.341s.907-1.952 2.015-3.229c1.969-2.271 2.048-2.28 3.468-.403.8 1.056 1.468 1.527 1.485 1.048.018-.48.707-.313 1.532.372.908.754 1.5.834 1.5.204 0-.572.303-1.83.674-2.796.517-1.348.289-1.608-.985-1.119-2.191.841-7.839-2.398-7.19-4.123.29-.769-.026-1.146-.748-.891-.711.252-1.147 1.76-1.009 3.494.255 3.223-1.197 3.758-3.965 1.461-1.092-.906-1.699-.908-2.601-.006-.703.703-1.176.764-1.176.152 0-.563-2.536-3.792-5.636-7.176-7.578-8.273-7.866-11.075-1.798-17.499 2.438-2.581 4.434-5.145 4.434-5.697 0-.552.691-1.004 1.535-1.004.845 0 2.732-.784 4.194-1.742 2.726-1.786 8.271-2.63 8.271-1.258 0 1.242 4.379 2.021 5.433.967 1.698-1.698 6.851-1.048 9.202 1.16 1.567 1.472 2.817 1.883 4.064 1.336.991-.435 2.058-.829 2.372-.877.315-.047 1.34-.854 2.279-1.794.939-.939 2.37-1.453 3.179-1.143.919.353 1.471-.038 1.471-1.042 0-.884.45-1.607 1-1.607s1-.675 1-1.5.47-1.5 1.044-1.5c1.99 0 .73-14.427-1.294-14.813-1.359-.259-1.75.352-1.75 2.74 0 1.69-.422 3.073-.937 3.073-.516 0-.912-1.822-.882-4.048.071-5.151.029-5.18-5.253-3.621-3.087.911-4.386 1.816-4.289 2.988.173 2.09-.496 2.121-2.702.124-3.021-2.734 1.165-8.555 5.439-7.562.482.112 1.52-.716 2.307-1.839.787-1.123 2.08-2.042 2.874-2.042s1.443-.723 1.443-1.607c0-1.002-.553-1.395-1.468-1.044-2.813 1.08-2.525-1.202.538-4.265 1.696-1.696 2.573-3.084 1.948-3.084s-.881-.412-.57-.915c.311-.504-.592-2.291-2.007-3.972-1.892-2.249-2.327-3.495-1.645-4.713.632-1.129 1.149-1.297 1.625-.528 1.103 1.785 6.146 1.316 9.946-.926l3.482-2.054-.28-8.196c-.296-8.635-.783-10.589-3.688-14.789-1.358-1.963-1.513-2.875-.638-3.75.876-.876.865-1.157-.043-1.157-.66 0-1.2-.436-1.2-.969 0-.532.753-.679 1.674-.326 1.274.489 1.513.243 1-1.031-.371-.921-.929-2.301-1.24-3.068-.36-.885.609-1.98 2.653-3 4.38-2.185 4.59-2.114 5.945 1.991 1.355 4.107 3.953 9.351 3.962 8 .003-.497.906.135 2.006 1.403 1.383 1.595 2.039 3.878 2.128 7.403.148 5.924.288 6.885 2.284 15.697 1.43 6.317 2.528 9.598 4.934 14.748 1.311 2.806 1.222 14.949-.152 20.902-1.109 4.802-1.043 4.865 2.762 2.617 2.606-1.54 2.798-2.145 3.342-10.535.421-6.499.199-9.768-.822-12.116-.769-1.769-1.415-2.823-1.437-2.344-.021.48-.749.284-1.617-.437-1.196-.992-1.499-2.776-1.251-7.372.179-3.335-.209-8.088-.863-10.563-4.591-17.369-5.042-23-1.84-23 2.177 0 1.6-7.076-.718-8.807-.962-.718-1.75-1.87-1.75-2.559 0-.688-.696-2.125-1.546-3.193-1.439-1.807-1.502-1.648-.912 2.309.757 5.079-.284 5.397-3.153.964-3.405-5.261-3.827-7.637-1.734-9.753 4.164-4.209 4.398-4.75 3.197-7.386-.629-1.382-1.536-2.27-2.015-1.975-.478.296-.611.957-.294 1.469.316.512-.343.931-1.465.931-1.354 0-2.256-.86-2.682-2.559l-.642-2.558-2.39 2.245c-3.221 3.025-5.282 1.228-2.514-2.191 1.43-1.766 1.707-2.972 1.068-4.652-.89-2.342-.293-5.285 1.072-5.285.427 0 1.012-.9 1.3-2 .788-3.013 2.379-2.404 3.097 1.184.35 1.752 1.376 4.002 2.28 5 .904.999 1.316 1.816.917 1.816-.4 0-.02.707.845 1.571.864.865 1.571 2.413 1.571 3.441 0 3.985 1.647 2.571 3.644-3.128l2.087-5.96-3.593-2.962c-1.977-1.629-4.729-2.992-6.116-3.03-2.503-.067-2.506-.075-.317-1.133 1.592-.768 3.402-.729 6.5.141 8.143 2.288 8.796 2.356 8.78.927-.031-2.715-1.794-4.067-5.306-4.067-2.619 0-3.98-.61-5.069-2.272-.818-1.249-2.528-2.509-3.799-2.8-7.638-1.747-13.894-3.906-18.039-6.227-2.6-1.456-5.131-2.397-5.624-2.093-.493.305-2.101-.562-3.574-1.927-2.509-2.325-7.391-3.331-8.891-1.831m-95.527 5.472c-2.322 3.718-1.344 11.142 1.794 13.617l2.839 2.238.624-2.488c.344-1.369 1.032-2.489 1.528-2.489 1.457 0 3.565-7.331 2.236-7.774-.611-.204-2.631-1.402-4.488-2.663-3.245-2.201-3.423-2.219-4.533-.441m195.344-.036c-5.347 2.716-12.235 11.523-8.373 10.705.883-.187 1.251.423 1.031 1.709-.323 1.891-1.343 2.828-2.727 2.506-1.134-.264-6.059 7.43-7.843 12.253-2.079 5.621-1.409 12.058 1.517 14.563 1.042.892 1.895 2.903 1.895 4.468 0 2.238.373 2.735 1.75 2.331 2.889-.849 10.566-.941 13.443-.162 1.481.401 3.281.361 4-.088.719-.45 1.757-.83 2.307-.845 2.991-.079.985-2.154-2.826-2.922l-4.443-.896v-4.854c0-2.67.398-4.854.884-4.854.487 0 .899.563.915 1.25.017.688.543.367 1.169-.713.627-1.08 1.041-4.117.921-6.75-.172-3.75.117-4.787 1.331-4.787.852 0 1.583.787 1.625 1.75.042.963.683.175 1.424-1.75 1.771-4.6 1.771-5 0-5-2.094 0-1.87-1.356.593-3.584 3.29-2.978 4.35-5.509 2.76-6.595-1.114-.761-1.07-1.119.247-2.023 1.457-1.001 1.446-1.252-.125-2.823-.949-.949-1.894-2.198-2.1-2.776-.747-2.095-5.364-2.15-9.375-.113m53.5 7.749c0 2.898-1.069 5.241-2.101 4.603-.49-.303-1.386.536-1.991 1.864-.907 1.991-.644 3.38 1.496 7.903 3.109 6.573 3.24 8.902.632 11.262-2.37 2.145-4.89 8.64-5.361 13.818-.189 2.081-.869 4.309-1.51 4.95-1.522 1.522-1.467 6.716.1 9.314 4.094 6.79 5.469 8.297 8.94 9.801 2.265.981 4.242 2.695 4.799 4.159.52 1.37 1.708 2.491 2.638 2.491.93 0 1.44.252 1.132.559-.307.307.254 2.782 1.248 5.5 1.393 3.813 1.507 4.941.499 4.941-.719 0-1.566.675-1.883 1.5-.336.877-1.835 1.5-3.607 1.5-3.414 0-3.679.63-1.545 3.677 1.48 2.112 1.503 2.113 5.212.222 2.049-1.044 4.305-1.899 5.013-1.899.709 0 1.345-.45 1.414-1 .069-.55.238-1.45.375-2s.306-1.45.375-2c.245-1.962 2.824-.956 3.964 1.547 2.291 5.027.345 9.792-2.443 5.98-.837-1.144-1.931-1.536-3.07-1.099-1.519.583-1.561.823-.298 1.691 1.118.769.932.86-.778.379-1.376-.387-2.25-.195-2.25.494 0 .619.45.848 1 .508.55-.34 1-.141 1 .441s-.45 1.059-1 1.059-1 .45-1 1 .788 1.012 1.75 1.027c1.29.019 1.025.476-1.005 1.734-3.628 2.249-2.96 3.769 1.59 3.616 2.5-.084 3.665.313 3.665 1.25 0 1.802 1.485 1.746 3.357-.127 1.882-1.881 2.743-1.923 2.043-.1-.984 2.564 6.504 2.997 11.628.672 2.46-1.115 5.859-2.038 7.555-2.05 1.696-.012 5.72-.551 8.941-1.198 4.466-.897 5.951-.899 6.248-.008.289.866.921.883 2.444.068 1.146-.613 4.871-.92 8.42-.694 4.014.255 6.376.018 6.397-.643.019-.576.878-.035 1.911 1.203 2.292 2.748 2.683 2.784 3.331.306.388-1.482-.12-2.082-2.133-2.521-5.46-1.192-19.952-1.397-28.458-.402-11.149 1.304-12.297.953-10.193-3.115 1.506-2.912 1.484-3.018-.621-3.018-1.2 0-3.687-1.149-5.528-2.553-1.841-1.404-4.696-3.023-6.345-3.598-2.26-.788-3.024-1.697-3.108-3.697-.062-1.459-.198-4.452-.304-6.652-.106-2.2.468-6.983 1.275-10.629 1.408-6.357 1.38-6.798-.696-10.78-2.781-5.336-2.693-8.631.362-13.591 4.672-7.586 1.981-14.777-7.808-20.859-1.53-.951-2.485-2.209-2.123-2.795 1.69-2.734 14.169 2.72 13.028 5.694-.277.723.144 1.852.936 2.509.793.658 1.441 1.816 1.441 2.573 0 2.014 1.767 1.682 2.965-.556 1.634-3.055 1.221-5.045-1.242-5.981-1.252-.476-3.806-2.294-5.675-4.04-5.651-5.279-8.726-6.458-13.283-5.093-4.231 1.268-7.117.129-6.138-2.421.279-.728-.389-1.951-1.484-2.718-1.095-.767-1.912-2.228-1.817-3.246.096-1.019-.388-2.05-1.076-2.293-.731-.257-1.25.391-1.25 1.561M195 100c.589 1.1.823 2 .522 2-.302 0 .132 1.63.965 3.622 1.89 4.525 1.884 8.304-.019 10.819-.807 1.068-1.468 3.173-1.468 4.678 0 1.769-.937 3.473-2.653 4.822-3.313 2.607-3.08 2.821 3.667 3.357l5.486.437 2.749-5.727c1.512-3.15 3.894-7.414 5.294-9.476 2.416-3.56 2.453-3.817.75-5.108-.986-.748-2.12-1.375-2.519-1.392-.399-.018-2.159-1.607-3.91-3.532-1.752-1.925-4.027-3.5-5.056-3.5s-2.13-.675-2.446-1.5c-.317-.825-.994-1.5-1.504-1.5-.524 0-.462.872.142 2m-69.7 10.274c-.932 1.484-4.956 4.189-11.3 7.594-2.475 1.329-5.735 3.446-7.245 4.705-1.509 1.259-3.647 2.575-4.75 2.925-1.103.35-2.005 1.281-2.005 2.069s-.338 1.38-.75 1.315c-2.136-.338-3.093.356-3.671 2.661-.351 1.398-1.413 2.825-2.359 3.17-6.527 2.382-22.623 15.06-19.505 15.364.432.042 1.535.221 2.451.399.917.177 3.227-.738 5.134-2.034 3.317-2.254 3.538-2.278 5.084-.57 2.293 2.533 2.091 2.905-2.293 4.219-5.377 1.611-9.205 6.621-6.546 8.566 1.749 1.279 1.753 1.405.076 2.631-.969.709-1.618 1.946-1.442 2.75.177.804-.241 1.349-.929 1.212-.687-.138-1.25.425-1.25 1.25s.45 1.5 1 1.5 1.007-.562 1.015-1.25c.012-.92.243-.891.875.107.625.985 1.784 1.139 4.235.559 1.856-.438 3.713-.711 4.125-.606 1.113.282.908-1.252-.332-2.492-1.513-1.513.839-5.052 4.061-6.111 3.292-1.081 6.306-.392 5.659 1.294-.372.969.482 1.282 3.177 1.162 4.024-.178 5.435 2.485 1.685 3.181-2.972.552-4.869 2.31-3.444 3.191 2.108 1.303-.807 4.828-4.579 5.535-3.453.648-5.828 2.416-3.286 2.445.951.011.899.281-.191.985-1.102.712-.397.973 2.652.985l4.152.015.697 6.006c.624 5.377.969 6.074 3.295 6.658 1.43.358 3.675 1.931 4.99 3.494 1.316 1.563 3.231 2.842 4.256 2.842 2.431 0 6.958 2.077 6.958 3.192 0 .479-.787 1.134-1.75 1.456-3.83 1.281-7.25 2.868-7.25 3.363 0 .652 6.001.399 10.483-.442 1.932-.362 3.632-.192 3.998.4.35.567.16 1.087-.422 1.156-.582.069-1.509.238-2.059.375-.55.137-2.077.306-3.393.375-2.729.143-4.163 2.75-2.569 4.671.795.958.607 1.553-.724 2.298-3.196 1.789-.603 2.623 7.195 2.314 2.752-.108 6.359-1.548 11.5-4.589 4.12-2.438 9.65-5.606 12.288-7.041 2.638-1.435 5.042-3.379 5.341-4.319.299-.94 1.006-2.679 1.571-3.864 2.253-4.725-2.29-6.023-4.709-1.345-1.583 3.061-4.5 4.113-4.5 1.622 0-.757.736-1.988 1.636-2.735 1.601-1.329 6.364-8.339 6.364-9.367 0-1.151-2.838-.42-4.052 1.043-1.174 1.415-1.384 1.409-2.206-.06-.832-1.486-1.115-1.489-3.325-.04-1.33.871-2.417 1.309-2.417.975 0-.334-2.309 1.23-5.131 3.477-2.821 2.247-5.521 4.085-6 4.085-4.737 0 11.396-14.021 17.735-15.413 2.773-.609 9.396-9.108 9.396-12.057 0-1.689 5.233-14.048 6.608-15.609.766-.868 1.392-2.523 1.392-3.678 0-1.155.563-2.695 1.25-3.423.688-.727 3.034-3.572 5.215-6.321 2.18-2.75 4.543-5.359 5.25-5.799 2.06-1.281 1.487-3.673-1.118-4.663-1.321-.503-2.703-1.399-3.069-1.992-1.178-1.905-2.528-.029-2.528 3.514 0 1.893-.45 3.441-1 3.441s-1-1.295-1-2.878c0-3.131-2.248-5.705-4.024-4.607-.612.378-.871 1.316-.576 2.085.295.769.129 2.411-.368 3.649-.79 1.964-.913 1.78-.969-1.44-.071-4.179-1.591-5.709-3.638-3.663-1.115 1.115-1.159 2.111-.228 5.143.82 2.674.844 4.07.082 4.832-.761.761-1.26-.049-1.725-2.803-.526-3.114-1.283-4.148-3.854-5.268-1.76-.766-4.904-2.457-6.987-3.758-2.083-1.3-4.125-2.155-4.538-1.9-1.581.977-3.469-5.451-2.334-7.943.867-1.902.75-2.716-.583-4.049-1.234-1.233-1.778-1.34-2.089-.408-.503 1.51-6.326 6.937-7.487 6.979-.45.016.039-1.208 1.086-2.721 1.047-1.513 2.229-3.312 2.627-4 .953-1.648-1.06-1.625-2.095.024M67.07 151.25c-.038.963-.756 1.75-1.595 1.75-.893 0-1.772 1.237-2.122 2.984-.328 1.641-.979 2.747-1.446 2.459-1.044-.646-5.208 3.999-5.526 6.164-.334 2.278-1.381 3.036-1.381 1.001 0-.949-.45-1.448-1-1.108-.55.34-1-.168-1-1.13 0-1.53-.249-1.48-2 .4-1.1 1.18-2 2.59-2 3.131 0 .542-.897 1.614-1.994 2.382-1.096.768-1.696 1.694-1.333 2.057.605.604-1.118 1.063-2.923.778-.413-.065-.75.359-.75.941s-.381.823-.847.536c-.466-.288-2.125.81-3.687 2.441-1.562 1.63-2.445 2.964-1.962 2.964.483 0 .061.598-.938 1.328-.999.73-1.816 2.53-1.816 4 0 1.522-.558 2.672-1.297 2.672-.713 0-2.569 2.102-4.125 4.671-5.31 8.771-17.961 18.93-19.146 15.376-.665-1.995-2.291-1.033-3.339 1.974-.579 1.662-1.893 3.471-2.92 4.02-1.697.908-1.863 2.36-1.832 15.979C.113 238.885.487 244 1.185 244c.664 0 .596.559-.185 1.5-2.522 3.039.719 1.385 4.054-2.068 2.704-2.801 4.006-3.458 6.05-3.055 1.432.283 3.054.065 3.604-.485.55-.55 3.059-1.62 5.576-2.377 5.136-1.546 7.056-.063 8.359 6.452.419 2.091 1.658 3.51 4.225 4.837 2.514 1.3 3.726 2.664 3.938 4.433.169 1.405 1.229 3.389 2.357 4.409 2.044 1.848 2.049 1.839 1.694-3.146-.354-4.961-.335-4.998 2.515-4.795 3.647.26 4.052.705 4.094 4.51.019 1.714.597 3.305 1.284 3.534.86.288 1.25-.821 1.25-3.557 0-4.679 2.053-5.697 10.638-5.274 7.013.344 7.37-1.161.805-3.393-4.511-1.533-5.443-2.25-5.443-4.187 0-1.671-.57-2.338-2-2.338-1.356 0-2-.667-2-2.071 0-1.906.129-1.943 1.613-.459 1.483 1.483 1.819 1.477 4.199-.082 1.782-1.168 2.705-1.336 2.97-.541.619 1.856 4.625 1.327 6.496-.858 2.267-2.649 2.259-2.666-1.636-3.396-2.806-.527-3.288-.997-2.932-2.862.384-2.013-.019-2.259-4.134-2.521-2.508-.159-5.576.289-6.818.996-1.242.707-2.77 1.293-3.397 1.304-.626.01-2.954 1.564-5.173 3.454l-4.035 3.435 2.673 2.299c1.471 1.265 2.276 2.3 1.789 2.301-.487 0 .305.937 1.76 2.081 3.128 2.461 2.513 4.721-.718 2.636-1.186-.766-4.285-2.198-6.885-3.182-3.648-1.38-4.539-2.129-3.898-3.274.853-1.523-.749-6.238-2.124-6.252-.413-.004-.75 1.417-.75 3.159 0 3.573-.977 3.324-1.369-.349-.44-4.129-3.631-7.044-3.631-3.318 0 1.914-.315 1.887-3.972-.337-1.662-1.01-2.736-2.122-2.388-2.47.349-.348-.845-1.884-2.651-3.413-6.221-5.265-6.989-6.289-6.989-9.33 0-2.29.337-2.85 1.353-2.25 2.718 1.608 7.647 6.197 7.647 7.12 0 1.456 4.917 4.349 6.123 3.604.587-.363 2.318.265 3.846 1.395l2.78 2.055 2.044-2.351c1.125-1.294 1.744-2.687 1.376-3.098-.368-.41-.103-.42.589-.021.779.448 1.542-.04 2-1.28.408-1.103 1.002-1.919 1.32-1.814.318.104 2.118-.569 4-1.496 1.882-.928 4.322-2.026 5.422-2.441 1.78-.671 1.697-.795-.75-1.13-2.449-.335-2.85-.745-2.714-2.779.019-.294-.656-1.226-1.5-2.071-.845-.845-1.592-2.179-1.661-2.964-.069-.786-.237-1.879-.375-2.429a32.33 32.33 0 0 1-.375-1.693c-.069-.381-1.308.735-2.753 2.48-1.446 1.745-3.024 2.928-3.508 2.629-.484-.299-.253-1.17.513-1.936.774-.773 1.271-2.859 1.118-4.687-.152-1.811-.325-3.855-.385-4.543-.061-.687-1.235-1.25-2.61-1.25-1.808 0-2.5-.537-2.5-1.941 0-2.78 1.735-3.469 2.519-1 .608 1.915.805 1.958 2.403.512.957-.867 2.113-1.237 2.569-.823.457.414.506.19.11-.498-.478-.832-.015-1.25 1.385-1.25 1.158 0 3.23-1.125 4.605-2.5 1.375-1.375 2.992-2.5 3.594-2.5 1.6 0 3.746-3.175 3.783-5.595.018-1.152.932-2.91 2.032-3.905 1.1-.995 2-2.337 2-2.981 0-.644 1.089-2.193 2.419-3.443 1.331-1.25 3.324-4.366 4.429-6.924 1.106-2.559 2.869-5.568 3.92-6.687 1.314-1.401 1.67-2.647 1.141-4-.661-1.689-.778-1.719-.839-.215M293 179.678c0 1.709-4.888 8.17-11.205 14.812-2.087 2.194-3.795 4.303-3.795 4.687 0 .383-1.487.456-3.305.161-2.609-.423-3.979.03-6.5 2.152-2.983 2.51-4.547 5.463-2.088 3.944.759-.469.875.046.369 1.642-.731 2.303-.713 2.309 1.893.602l2.631-1.724v2.947c0 6.095-2.379 13.557-4.966 15.578-1.394 1.088-5.684 5.138-9.534 9l-7 7.021.067 7.25c.047 5.118-.296 7.25-1.167 7.25-.678 0-1.418.554-1.643 1.23-.318.952-.958.968-2.834.068-1.333-.64-1.86-1.193-1.173-1.23.688-.038 1.25-.878 1.25-1.868 0-.99.533-2.333 1.183-2.983.651-.651.932-1.436.624-1.744-.309-.308-3.06 2.202-6.115 5.577-6.197 6.849-6.952 9.95-2.42 9.95 1.643 0 2.585.423 2.228 1-.34.55-.066 1 .608 1 1.709 0 .226 1.312-1.878 1.661-6.393 1.062-8.456 1.764-8.949 3.048-.458 1.193-.713 1.216-1.405.125-.548-.865-.851-.017-.861 2.416-.012 2.936.372 3.75 1.767 3.75 1.901 0 2.947 4.431 1.288 5.457-1.412.873-5.07-5.854-5.07-9.325 0-1.723-.45-3.132-1-3.132-1.34 0-1.279-4.321.08-5.68.768-.768.774-2.19.02-4.92-.692-2.508-.72-4.18-.08-4.82 1.473-1.473 1.178-5.29-.458-5.918-.936-.359-1.556.214-1.778 1.643-.31 1.996-.5 1.9-2.088-1.055-2.245-4.175-4.081-4.281-3.181-.183.464 2.116.202 3.589-.847 4.75-1.364 1.51-1.336 2.083.277 5.567 1.722 3.722 1.725 7.616.006 7.616-.449 0-1.102-.9-1.451-2-.751-2.366-1.81-2.537-3.452-.558-1.702 2.051 1.571 9.119 3.486 7.529 1.795-1.489 2.492-.043 3.027 6.278.667 7.88 1.56 11.794 2.551 11.182.488-.302.888.139.888.98 0 .84.9 3.131 2 5.089 2.03 3.615 2.732 8.07 1.113 7.07-.487-.301-1.442.122-2.122.941-.799.963-.856 1.489-.161 1.489.709 0 .865 1.789.458 5.25-.54 4.6-.43 5.096.89 4.009 2.076-1.712 2.885-.556 1.733 2.476-1.094 2.877-.277 6.609 1.242 5.67.555-.343.766-1.59.47-2.772-.637-2.537.509-4.823 1.92-3.83C230.974 317.514 233.186 333 231 333c-1.449 0-1.216 6.063.348 9.059.734 1.408 1.652 4.543 2.04 6.967.388 2.424 2.259 6.749 4.16 9.612 4.135 6.231 5.043 8.362 3.559 8.362-.609 0-1.107-.62-1.107-1.378 0-.757-.675-1.937-1.5-2.622-1.921-1.594-1.899-.673.074 3.143 2.761 5.34.924 4.035-3.122-2.218-3.761-5.811-5.287-6.39-4.071-1.545.316 1.262 1.598 2.788 2.847 3.39 1.25.602 1.687 1.125.972 1.162-2.835.148-7.2-3.003-7.215-5.208-.028-4.04-1.943.38-2.069 4.776-.243 8.441-1.672 9.062-1.733.754-.033-4.536-.316-8.66-.628-9.165-.312-.505-.169-1.069.318-1.254.503-.19.532-2.896.066-6.278-.45-3.268-.594-6.306-.32-6.75.275-.444-.765-.814-2.31-.822-1.545-.009-3.401-.391-4.124-.849-.723-.459-2.523-.6-4-.315l-2.685.519 3 1.285c1.65.707 2.55 1.305 2 1.33-.55.025-.946 1.507-.88 3.295.066 1.787-.216 3.925-.627 4.75-.411.825-.974 4.285-1.251 7.688-.318 3.915-1.313 7.5-2.71 9.761-1.839 2.974-2.118 4.534-1.666 9.312.926 9.792 1.504 14.606 2.191 18.239.364 1.925.875 4.85 1.135 6.5.26 1.65.886 3.427 1.391 3.95.504.522.917 2.408.917 4.191 0 5.2 2.622 5.177 8.761-.076 2.851-2.439 4.825-9.154 3.25-11.052-.741-.892-.77-1.544-.089-1.965.561-.346 1.317.626 1.682 2.161.364 1.535 1.784 5.204 3.155 8.154 2.062 4.436 2.255 5.533 1.117 6.344-1.039.742-.921.834.485.376 1.412-.459 1.714-.221 1.25.987-.336.877-.611 2.933-.611 4.571 0 1.639-.43 2.711-.956 2.386-.526-.325-.708-1.24-.403-2.033.304-.794-.165-2.161-1.043-3.039-.879-.878-1.877-3.345-2.218-5.482l-.622-3.885-3.044 3.045c-2.454 2.453-2.77 3.218-1.63 3.94 1.159.734 1.109.899-.275.912-2.177.019-3.425 2.016-1.863 2.981.882.546.717 1.228-.622 2.567-1.003 1.003-1.634 2.081-1.401 2.396.233.314-1.567 1.31-4 2.213l-4.423 1.641.084 6.859c.047 3.772.453 8.839.903 11.261.602 3.24.513 4.215-.335 3.691-1.696-1.048-1.436 1.737.89 9.548 1.485 4.986 2.509 6.862 3.75 6.873 1.34.012 1.416.201.351.875-.956.606-1.149 1.856-.653 4.235.668 3.202.624 3.272-.861 1.375-.861-1.1-1.587-2.45-1.613-3-.114-2.431-1.976-4.063-2.934-2.573-.613.952-.929-.678-.949-4.899-.016-3.479-.503-6.798-1.082-7.377-1.3-1.3-1.392-2.98-.119-2.193 3.102 1.917.674-13.258-3.34-20.877-1.426-2.706-2.592-5.464-2.592-6.128 0-.664-.67-1.764-1.489-2.444-.819-.68-1.251-1.621-.959-2.093.291-.471-.256-2.333-1.217-4.137-.96-1.803-1.638-3.664-1.505-4.135.132-.471-1.575-4.383-3.795-8.693-2.219-4.311-4.035-8.731-4.035-9.823 0-1.092-.624-2.609-1.386-3.371-1.651-1.651-6.614-12.255-6.614-14.132 0-.723-.916-2.144-2.035-3.157-1.12-1.013-1.787-2.49-1.483-3.282.304-.792.031-2.068-.607-2.837-.638-.768-.868-1.689-.511-2.046.357-.357-1.004-2.163-3.025-4.014-2.054-1.882-3.945-2.926-4.29-2.369-1.06 1.715-8.321-8.47-7.972-11.181.787-6.104-.104-8.739-2.955-8.739-3.079 0-5.71 2.239-4.649 3.956.355.574 1.331 1.044 2.169 1.044.839 0 1.326.563 1.084 1.25-.243.688-1.18 1.187-2.084 1.111-3.111-.263-1.595 3.401 3.866 9.348 1.915 2.085 3.485 4.317 3.487 4.959.003.643.28 1.885.616 2.762.447 1.164.18 1.427-.994.977-.883-.339-1.376-.988-1.095-1.443.281-.454.053-1.108-.506-1.454-.566-.35-1.016.31-1.016 1.49 0 1.165-.416 1.861-.926 1.546-.509-.315-.757-1.902-.551-3.527.281-2.218-.237-3.436-2.075-4.881-1.346-1.059-2.448-2.336-2.448-2.838 0-.501-1.125-2.436-2.5-4.3-2.807-3.805-3.637-7.784-.926-4.441 1.535 1.892 1.562 1.885 1.094-.309-.264-1.238-.066-2.25.44-2.25 1.029 0 .573-3.289-1.626-11.729-.815-3.13-1.482-6.695-1.482-7.922 0-1.227-.457-2.514-1.016-2.859-.559-.346-.758-1.047-.441-1.559.316-.512.072-.931-.543-.931s-.793-.526-.395-1.17c.48-.776.187-.964-.868-.559-3.403 1.306-4.484-4.456-2.316-12.345.492-1.791.232-2.969-.857-3.873-1.327-1.101-1.564-1.006-1.564.625 0 2.332-2.209 7.303-3.25 7.314-.412.004-.75.535-.75 1.179s-.67 1.911-1.488 2.816c-1.843 2.036-3.155 8.013-1.759 8.013.551 0 .887 1.357.746 3.016-.141 1.658.134 3.257.612 3.553.478.295.311 1.142-.371 1.883-1.018 1.105-1.339.872-1.796-1.303-.305-1.457-1.093-2.536-1.75-2.399-.683.143-1.228-.927-1.273-2.5-.043-1.512-.306-2.187-.583-1.5-.278.688-1.232 1.25-2.121 1.25-1.258 0-1.35-.267-.417-1.2 1.752-1.752 1.466-2.837-.55-2.081-1.532.574-1.579.446-.378-1.032 1.581-1.943.574-2.311-1.193-.437-1.288 1.366-1.64 13.112-.429 14.329.412.415.77 1.917.795 3.338.025 1.42.602 3.887 1.282 5.48 1.182 2.768 1.315 2.818 3.002 1.131.972-.971 2.082-1.449 2.469-1.061.386.388-.36 1.566-1.659 2.619-2.104 1.706-2.08 2.365.073 2.045 1.524-.227 18.441 18.371 19.418 21.346.357 1.087 2.076 4.052 3.821 6.588 1.745 2.537 3.734 6.148 4.419 8.024.686 1.876 2.433 5.756 3.883 8.622 3.042 6.017 4.296 5.762 6.382-1.302 1.165-3.948 1.613-4.438 3.598-3.94 1.705.428 2.282.13 2.326-1.2.032-.973 1.065.256 2.296 2.731 1.722 3.466 2.734 4.447 4.402 4.269 1.511-.162 2.001.197 1.622 1.186-.3.781-1.133 1.193-1.851.917-1.749-.671.502 10.499 2.833 14.056 1.115 1.702 1.277 2.678.521 3.145-.755.467-.674.949.261 1.552 1.035.667.802 1.027-.978 1.514-1.648.451-1.961.869-1.064 1.424 1.007.621 1.015 1.092.043 2.264-.959 1.155-.962 1.567-.014 1.883 1.325.442 2.017 4.79.762 4.79-.965 0-2.263-2.02-2.559-3.982-.123-.815-.699-1.64-1.279-1.833-.579-.193-1.086-1.102-1.124-2.018-.056-1.33-.244-1.263-.93.333-.473 1.1-.891 1.438-.93.75-.038-.687-.857-1.282-1.82-1.32-1.511-.061-1.477-.2.25-1.021 1.983-.942 1.982-.947-.03-.581-2.308.42-3.812-.914-4.315-3.828-.51-2.954-1.153-3.184-1.169-.417-.025 4.553-1.053 6.712-2.956 6.215-1.12-.293-1.627-1.124-1.344-2.204.249-.954-.226-2.298-1.057-2.987-.831-.689-1.281-1.851-1-2.582 1.332-3.472-8.881-18.353-10.641-15.505-.38.615-1.802-.651-3.339-2.975-1.473-2.225-3.196-4.045-3.83-4.045-.634 0-.905-.247-.603-.549.745-.746-4.91-7.079-15.716-17.601-4.95-4.82-9.675-9.475-10.5-10.346-5.703-6.021-9.508-9.455-13.852-12.504-4.864-3.413-5.721-4.864-7.68-13-1.955-8.117-3.887-9.947-5.014-4.75-.388 1.788-1.115 3.511-1.615 3.831-.5.319-1.186 2.344-1.523 4.5l-.614 3.919 1.93-2.338 1.929-2.338 2.469 2.012 2.47 2.012-1.892 3.547c-1.041 1.951-2.241 3.332-2.668 3.068-.426-.264-.618 1.212-.426 3.279.403 4.326-.236 7.258-1.581 7.258-.513 0-.933-.9-.933-2s-.372-2-.826-2c-1.129 0-4.736 4.104-5.494 6.25-.796 2.257-5.277 2.297-7.501.067-1.253-1.256-1.657-3.352-1.591-8.25l.087-6.567-1.426 3.461c-.969 2.35-1.22 5.113-.784 8.609 1.121 8.972-2.286 15.11-4.64 8.359-.622-1.784-1.586-2.851-2.322-2.568-.693.265-1.819-.045-2.502-.689-.983-.926-1.124-.437-.673 2.328 1.342 8.226 1.685 13.495.75 11.5-.515-1.1-.969-3.012-1.008-4.25-.038-1.238-.534-2.25-1.101-2.25-1.972 0-2.243 3.203-.568 6.715.927 1.943 1.473 3.744 1.215 4.002-.6.6-6.594-9.803-6.607-11.467-.005-.687-.44-1.25-.967-1.25-1.761 0-.435 6.952 1.775 9.305 2.202 2.344 2.882 4.695 1.357 4.695-1.882 0-5.119-4.799-6.059-8.982-.554-2.465-1.401-4.613-1.884-4.774-1.047-.349-.338-6.244.752-6.244.415 0 1.036-1.462 1.378-3.25a762.793 762.793 0 0 1 1.513-7.59c.782-3.813.582-4.811-1.646-8.214-2.878-4.396-4.221-4.281-4.243.363-.021 4.404-1.911 7.319-2.069 3.191-.121-3.142-.289-2.913-2.384 3.25-.421 1.238-1.163 2.25-1.649 2.25-.485 0-.883.648-.883 1.441s-.468 1.73-1.04 2.084c-1.045.646-.891-.503 1.178-8.771.515-2.06 1.76-4.535 2.767-5.5 2.794-2.678 3.297-8.065 1.544-16.541-1.649-7.973-6.697-18.738-7.886-16.815-.374.606-.425 1.516-.113 2.021.313.506-.167 1.655-1.065 2.553-1.169 1.169-1.488 2.726-1.119 5.472l.514 3.837-2.792-1.602c-1.962-1.127-2.667-2.208-2.374-3.641.23-1.121.63-3.838.89-6.038.462-3.905.438-3.941-.98-1.5-.799 1.375-1.469 3.759-1.489 5.298-.02 1.644-1.037 3.726-2.466 5.05-2.785 2.581-4.264 7.104-2.65 8.102.595.367 1.081.165 1.081-.45s.408-.866.907-.558c.498.309.692-.452.431-1.691-.423-2-.35-2.054.654-.481.622.974.848 2.66.503 3.746-.667 2.101 1.382 8.984 2.675 8.984.422 0 .506.68.187 1.511-.415 1.082-.121 1.336 1.032.893 1.259-.483 1.594.007 1.532 2.239-.043 1.571-.312 2.276-.597 1.566-.371-.925-1.057-.67-2.421.903-1.723 1.986-1.903 2.019-1.903.35 0-1.792-.038-1.792-1.348 0-2.468 3.375-3.505.857-3.261-7.916.129-4.638-.131-8.207-.578-7.93-.447.276-.815 1.263-.817 2.193-.006 2.203-5.448 10.405-6.324 9.53-.369-.37-.723-.26-.786.244-.767 6.166-.75 6.817.14 5.409 1.223-1.934 1.254.442.045 3.508-.689 1.748-.879 1.59-1.509-1.25-.396-1.788-1.135-3.25-1.641-3.25-1.741 0-.919-3.888 1.124-5.319 1.603-1.123 1.738-1.55.622-1.979-.783-.3-1.903-.066-2.489.52-.754.754-1.839.146-3.711-2.078C3.013 332.415 1.412 331 .911 331c-1.692 0-1.085 14.152.662 15.43 2.68 1.959 2.09 18.57-.659 18.57-.594 0-.925 25.221-.879 67l.072 67h12.446c12.231 0 12.448-.039 12.48-2.25l.034-2.25 1.868 2.239 1.868 2.239 109.099.004c79.589.003 109.098-.298 109.098-1.112 0-.815.365-.812 1.357.011.994.825 34.914 1.059 126.75.873L500.5 498.5l.082-77.5c.045-42.625-.132-92.007-.393-109.737l-.475-32.238-8.276-6.012c-4.551-3.307-8.59-6.013-8.976-6.013-.385 0-4.145-2.414-8.356-5.365s-9.558-6.335-11.881-7.52c-2.324-1.186-4.225-2.623-4.225-3.194 0-.572-.403-.79-.896-.486-.492.305-.802-1.273-.688-3.506.156-3.061-.246-4.303-1.637-5.047-1.623-.869-1.767-.681-1.203 1.566.869 3.46-.415 3.219-6.143-1.155-3.645-2.783-5.648-3.638-8.037-3.432-2.78.239-8.774-.918-12.843-2.479-1.013-.389-1.207.507-.831 3.845 1.04 9.225-6.531 8.405-8.776-.951-.984-4.101-1.694-5.276-3.189-5.276-2.943 0-1.547-2.224 2.184-3.48l3.321-1.118-2.695-1.766c-4.199-2.751-8.255-1.408-9.635 3.19-1.368 4.558-3.949 7.841-6.164 7.841-1.867 0-3.332-2.677-1.964-3.587 2.563-1.706 1.648-6.08-1.272-6.08-.397 0-1.591 5.793-1.856 9-.274 3.321-1.584 5.249-3.155 4.646-.703-.269-1.782.015-2.399.632s-1.122.717-1.122.221c0-2.105 3.51-12.499 4.222-12.499.428 0 .778-1.35.778-3 0-1.867-.472-2.906-1.25-2.75-.791.158-1.181-.759-1.062-2.5.221-3.231-.56-3.416-3.803-.899-3.468 2.69-5.056 2.97-6.886 1.212-1.439-1.383-1.459-1.826-.177-3.844.797-1.255 1.214-2.516.928-2.803-.287-.287-1.51 1.077-2.717 3.031-3.769 6.097-4.825 3.709-1.887-4.262.47-1.273.854-2.737.854-3.253 0-1.257-5.928 5.578-9.166 10.568-5.084 7.836-7.454 10.001-8.636 7.89-.982-1.755-1.131-1.761-2.945-.119-2.21 2-7.87 2.318-8.546.479-.253-.687-.804.1-1.224 1.75-1.25 4.909-3.592 8.942-4.417 7.606-.439-.71-1.867 1.536-3.563 5.605-4.85 11.633-6.77 12.455-5.935 2.539.639-7.593 1.667-11.429 5.077-18.936 2.89-6.364 2.893-6.53.116-6.134-1.648.236-3.111 2.108-5.547 7.1-3.451 7.069-6.234 8.49-3.774 1.927 1.709-4.563 1.661-7.207-.131-7.207-1.678 0-3.304 4.066-3.324 8.315-.022 4.557-1.373 6.438-3.409 4.748-2.04-1.693-2.058-8.447-.037-14.174.998-2.827 1.174-4.485.5-4.709-.571-.191-1.039-1.209-1.039-2.263 0-2.445-.247-2.417-4.948.55l-3.907 2.467-.994-2.717c-.546-1.494-1.029-2.154-1.072-1.467-.14 2.211-2.075 1.33-2.195-1-.087-1.693-.229-1.817-.573-.5-.252.963-.875 1.75-1.384 1.75-.977 0-1.004-.191-1.308-9.203-.105-3.137-.479-5.99-.83-6.342-.652-.651-7.579 1.368-9.161 2.671-.479.395-1.52.469-2.312.165-1.116-.428-.822-1.197 1.309-3.422 3.134-3.271 2.596-3.501-3.092-1.327-2.401.918-4.517 2.572-5.23 4.087-.995 2.116-.958 2.453.218 2.001.778-.298 1.673-.126 1.988.384.819 1.325-2.309 6.986-3.86 6.986-1.876 0-5.627 4.288-6.156 7.038-.577 2.994-2.659 5.099-4.13 4.176-1.57-.986.902-12.744 3.216-15.301 1.008-1.114 1.249-1.913.576-1.913-.635 0-1.155-.45-1.155-1s.707-1 1.571-1c.865 0 2.247-.675 3.072-1.5.825-.825 1.018-1.5.428-1.5-1.924 0-1.125-2.027 1.179-2.99 4.282-1.79 6.75-4.707 6.75-7.979 0-1.836.415-2.892.996-2.534.547.339 1.496-.647 2.107-2.191.612-1.543 1.493-3.553 1.958-4.467.575-1.13.38-1.839-.608-2.219-.901-.345-1.453.056-1.453 1.058M7.43 185.5c-2.618 4.861-4.255 4.208-3.473-1.386.126-.906-.38-1.166-1.464-.75-.911.35-1.845.636-2.075.636-.23 0-.418 4.78-.418 10.622 0 8.893.224 10.437 1.373 9.483.756-.627 2.106-.859 3-.515 1.15.441 1.627.068 1.627-1.272 0-1.042.875-3.611 1.944-5.709 1.926-3.777 1.926-3.808 0-3.305-2.278.596-2.647-.82-.435-1.669.83-.319 1.393-1.144 1.25-1.833-.142-.69.715-1.404 1.906-1.587 2.212-.339 3.769-2.704 2.806-4.262-.294-.476-1.269-.584-2.167-.239-1.091.418-1.392.238-.909-.544.398-.644.317-1.17-.179-1.17-.495 0-1.749 1.575-2.786 3.5m310.77 9.551c-.669 1.072-1.888 1.949-2.708 1.949-1.822 0-1.828.443-.077 5.5 1.123 3.243 1.925 4.064 4.235 4.337 1.568.185 3.21.972 3.65 1.75 1.741 3.077 5.679 1.51 8.45-3.362 1.803-3.169 1.551-4.227-1-4.21-1.415.01-1.806.298-1.053.777.676.429.855 1.314.412 2.032-.613.992-1.076.921-2.109-.324-.962-1.159-1.522-1.274-2.05-.419-1.196 1.935-2.647.212-3.31-3.929-.797-4.989-2.756-6.798-4.44-4.101m88.55 54.61c-1.512.796-2.75 1.909-2.75 2.473 0 .606-1.162.77-2.841.401-1.917-.421-3.243-.139-4.077.866-.915 1.103-1.867 1.251-3.659.57-2.881-1.096-6.881.175-7.76 2.464-1.07 2.789 1.429 6.297 6.423 9.015 2.669 1.453 5.089 3.024 5.378 3.492.289.468 2.441 1.847 4.781 3.065 5.434 2.827 9.887 7.418 13.194 13.603 2.791 5.22 7.782 11.998 12.437 16.89 7.322 7.695 8.023 12.344 2.71 17.977-2.937 3.114-3.121 3.578-1.323 3.321 1.633-.233 2.312.467 3.106 3.202l1.015 3.5.666-4c.366-2.2.73-3.282.808-2.405.14 1.57 3.171 4.905 4.459 4.905.363 0 .552-1.011.421-2.247-.174-1.646.351-2.331 1.965-2.563 1.211-.174 2.487-1.213 2.835-2.31.549-1.73 1.08-1.359 4.024 2.814 1.865 2.643 4.19 5.852 5.165 7.131.975 1.279 3.349 4.879 5.274 8 1.926 3.121 5.526 7.556 8 9.854 4.443 4.128 4.496 4.253 4.248 10.095-.205 4.846.111 6.242 1.75 7.725 1.101.996 2.001 2.506 2.001 3.356 0 1.111.305 1.24 1.085.46s.64-1.947-.5-4.15c-.872-1.686-1.555-3.876-1.517-4.865.056-1.486.257-1.408 1.152.45.597 1.238 1.453 2.25 1.901 2.25.449 0 .579.617.29 1.371s.161 1.634 1 1.956c1.721.661 3.03-.805 2.084-2.335-.783-1.268 1.86-3.992 3.875-3.992 2.25 0 2.874-1.692.902-2.449-1.448-.556-1.49-.798-.272-1.551 1.652-1.021.294-1.825-4.097-2.424-4.69-.64-6.741-1.795-7.325-4.122-.326-1.297-2.191-4.067-4.145-6.156-1.954-2.089-4.602-5.823-5.885-8.298-1.282-2.475-3.34-5.4-4.572-6.5-2.311-2.063-12.68-22.677-14.085-28-3.906-14.805-6.794-21.296-8.896-19.997-.747.462-3.995-7.065-3.995-9.255 0-.652-.562-.974-1.25-.716-.687.258-1.812-.746-2.5-2.231-1.702-3.677-1.598-5.648.262-4.935 1.207.464 1.381.031.86-2.143-.874-3.644-1.03-3.731-2.326-1.309-1.298 2.425-3.046 2.761-3.046.586 0-.825-.418-1.5-.929-1.5-1.003 0-7.071-8.544-7.071-9.957 0-.47-.895-.622-1.988-.336-1.261.33-2.214-.07-2.607-1.094-.722-1.881-1-1.878-4.655.048M5 261.709c-4.105 1.51-5 3.469-5 10.946 0 7.333.003 7.342 1.99 5.355 1.095-1.095 2.937-4.003 4.093-6.462 1.156-2.46 2.914-4.73 3.906-5.045 1.172-.371 1.633-1.231 1.315-2.447-.325-1.244.13-2.033 1.353-2.349 1.014-.261.043-.492-2.157-.512-2.2-.02-4.675.211-5.5.514m47.751 1.873c-.954.954.256 10.529 1.684 13.326.929 1.818 1.041 3.338.376 5.092-1.573 4.143-2.571 10.771-1.808 12.004.399.647.993-.578 1.344-2.772.346-2.162 1.534-5.082 2.641-6.489 1.106-1.407 2.012-2.995 2.012-3.528 0-.534.599-1.467 1.33-2.074 2.281-1.893 10.658 8.732 10.666 13.527.005 2.858.993 5.332 2.13 5.332.502 0 .642-1.074.313-2.387-.614-2.448 2.878-6.153 4.724-5.012.46.284.837-.158.837-.983 0-2.575-2.09-2.935-3.699-.637-1.534 2.189-1.548 2.182-3.9-1.958-1.298-2.286-2.869-5.854-3.491-7.928-.867-2.894-1.894-4.049-4.409-4.958-2.209-.799-3.695-2.238-4.555-4.412-2.01-5.083-4.644-7.694-6.195-6.143m135.267 13.158c-5.687 2.007-7.959 4.051-5.93 5.335.977.619.256.899-2.338.91-4.18.017-4.111-.065-2.812 3.351.74 1.948.535 2.831-.977 4.199-2.063 1.867-1.76 3.465.657 3.465.825 0 1.282-.353 1.015-.784-.266-.432.625-1.669 1.98-2.75a101.498 101.498 0 0 0 4.803-4.139l2.339-2.173.9 3.173c.662 2.334 2.002 3.702 5.068 5.173 3.574 1.715 4.095 2.356 3.659 4.5-.417 2.053-.318 2.203.555.839 1.06-1.658 1.559-1.685 5.813-.325 2.475.791 3.349 6.473 1 6.501-.833.011-.75.339.25.985 1.207.78 1.049.972-.809.985-1.282.008-2.034.46-1.691 1.015.963 1.558 2.923 1.186 5.27-1 1.18-1.1 2.54-2 3.022-2 1.279 0 1.073-6.988-.209-7.063-.595-.035.031-.508 1.393-1.052 2.02-.806 2.204-1.159 1-1.918-1.009-.635-1.827-.461-2.586.552-.611.814-1.398 1.481-1.75 1.481-1.108 0-.694-3.546.56-4.8 1.673-1.673-.003-3.077-4.042-3.385-4.127-.314-5.275-1.79-1.467-1.885 2.198-.055 2.412-.227.985-.789-1.003-.396-1.871-1.152-1.929-1.68-.113-1.043-2.908-4.102-3.415-3.738-.886.634-3.333-1.15-3.861-2.815-.707-2.226-.629-2.224-6.453-.168M66.243 297.692c-3.19 4.537-5.379 9.308-4.269 9.308 1.436 0 1.277 3.173-.352 7.048-1.279 3.042-1.453 3.136-2.43 1.31-.653-1.22-.705-2.514-.138-3.412 1.949-3.081.793-2.86-2.554.487-1.925 1.925-3.5 3.935-3.5 4.466 0 1.512 3.952 2.386 5.39 1.192 1.647-1.367 2.61-.406 2.61 2.607 0 1.301.675 2.624 1.5 2.94.825.317 1.53 1.315 1.567 2.219.08 1.972 2.909-6.705 2.887-8.857-.012-1.174-.236-1.12-1.034.25-.561.962-1.447 1.75-1.97 1.75-1.181 0-1.264-4.688-.096-5.41.47-.29 1.139-3.248 1.486-6.573.348-3.325 1.374-7.178 2.282-8.562 2.299-3.509 1.042-4.204-1.379-.763m109.656-1.257c-.239.239-1.598.59-3.019.781-1.422.19-3.219 1.007-3.994 1.815-1.942 2.024-4.041 6.969-2.958 6.969.487 0 .649.9.362 2-.288 1.1-.825 2-1.194 2-1.571 0-.81 4.162.964 5.27 1.067.666 1.947 1.89 1.955 2.721.014 1.339.125 1.34.985.009.533-.825.976-2.528.985-3.785.013-1.974.287-2.14 2.015-1.215 1.565.837 2 .76 2-.354 0-.843 1.469-1.699 3.602-2.099 4.493-.843 3.863-1.652-1.342-1.724l-3.95-.054 2.443-2.635c3.199-3.45 4.635-6.134 3.282-6.134-.569 0-1.035-.477-1.035-1.059s.45-.781 1-.441 1-.084 1-.941c0-1.423-2.057-2.168-3.101-1.124m283.44 65.252c-.356.997-.873 2.22-1.148 2.718-.275.497.02.583.654.19.791-.488 1.155.41 1.155 2.846 0 1.957.477 3.559 1.059 3.559s.754.493.382 1.096c-.373.603-1.975.906-3.559.673-3.659-.537-3.741.933-.132 2.365 1.512.6 4.034 1.769 5.604 2.597 1.569.827 5.732 1.68 9.25 1.894 6.132.373 6.396.294 6.396-1.927 0-2.427-2.911-7.23-2.968-4.897-.044 1.773-7.032-3.613-7.032-5.42 0-.759-.343-1.381-.763-1.381-.419 0-1.207-1.012-1.75-2.25-.543-1.238-1.662-2.262-2.487-2.276-.825-.015-2.066-.381-2.757-.814-.795-.498-1.495-.121-1.904 1.027M.468 421c0 31.075.126 43.788.281 28.25.155-15.537.155-40.962 0-56.5C.594 377.213.468 389.925.468 421m87.191 20.447c-.277.72.002 1.814.619 2.431s.791 1.122.387 1.122c-.405 0-.223.957.403 2.127.718 1.341.781 2.358.17 2.75-1.885 1.212-2.5 5.123-.805 5.123 2.223 0 5.046 3.124 5.185 5.738.065 1.219-.273 1.975-.75 1.68-.477-.295-.868-.059-.868.523 0 2.026 5.157 1.176 5.71-.941.288-1.1.921-2 1.407-2 1.423 0 1.015-2.646-.617-4-1.036-.86-1.5-.898-1.5-.122 0 .617-.45 1.122-1 1.122s-1-.675-1-1.5c0-.846.895-1.5 2.052-1.5 1.966 0 1.952-.093-.344-2.25-2.449-2.3-4.424-9.75-2.586-9.75.548 0 .761-.381.473-.847-.846-1.369-6.388-1.134-6.936.294m-66.771 10.901c-1.12 1.502-1.359 2.849-.783 4.408.488 1.319.444 2.244-.106 2.244-.515 0-.678.672-.363 1.494.316.822.976 1.246 1.469.941.492-.304.895-.119.895.412 0 .531.97.712 2.156.402 1.478-.387 1.932-.2 1.441.593-.393.637-.276 1.158.261 1.158.536 0 1.202-.562 1.48-1.25.291-.721.538-.479.583.571.043 1.002.83 2.573 1.748 3.491 1.558 1.558 1.623 1.489.988-1.041-.552-2.201-.21-3.018 1.823-4.35 1.377-.902 2.225-2.089 1.886-2.637-.377-.611-.964-.471-1.513.359-.598.906-.741.423-.43-1.455.614-3.7-.227-5.688-2.408-5.688-2.679 0-4.507 2.597-2.397 3.407.917.352 1.443.865 1.168 1.14-.275.275-1.239.216-2.143-.13-1.938-.744-2.178-3.035-.393-3.755.688-.277.275-.54-.917-.583-1.191-.043-2.316-.487-2.5-.986-.183-.5-1.059.066-1.945 1.255M195.8 471.75c-.372 6.987-.018 9.169 2.246 13.845l2.259 4.666-2.403 1.847c-9.361 7.198-28.773-4.748-25.715-15.823 1.275-4.617.328-5.376-1.143-.917-1.934 5.858.006 10.656 6.259 15.48 10.277 7.929 24.697 5.94 24.697-3.406 0-2.295-.402-3.225-1.252-2.899-2.322.891-4.093-3.763-3.917-10.293.181-6.67-.696-8.795-1.031-2.5" fill="#d3d3d3" fill-rule="evenodd"/></svg>