<svg xmlns="http://www.w3.org/2000/svg" width="500" height="657"><path d="M359.378 55.921c-1.166.506-2.392 1.968-2.723 3.249-.636 2.461-7.272 6.834-10.353 6.824-.991-.004-2.505-1.241-3.363-2.75l-1.562-2.744-14.938.051c-8.217.028-18.989.64-23.939 1.359-8.938 1.3-47.225 1.031-72.09-.506-7.075-.437-13.202-.145-20.5.977-15.936 2.451-62.369 3.403-104.142 2.135-12.202-.37-19.917-.076-28.5 1.087-6.472.877-17.168 1.687-23.768 1.799-14.18.242-15.423.812-21.647 9.931l-4.181 6.126 1.164 6.789c1.407 8.208 1.439 25.533.087 47.752-.552 9.075-1.205 21.324-1.451 27.22-.247 5.895-.955 12.645-1.573 15-.723 2.749-1.36 23.599-1.782 58.28-.362 29.7-.993 54.532-1.404 55.181-.874 1.384-1.2 94.722-.336 96.121 1.226 1.983 1.608 117.661.459 138.645-1.108 20.231-.826 28.789 1.797 54.473.829 8.114 4.492 11.481 11.635 10.695 2.878-.317 9.29-.944 14.25-1.393 4.959-.449 9.684-1.238 10.5-1.754 1.191-.753 75.323-1.921 102.482-1.615 35.77.402 43.122.178 60.474-1.846 17.474-2.038 39.288-2.888 86.026-3.353 20.778-.206 31.262-2.726 39.177-9.415.922-.779 3.34-1.792 5.373-2.25 4.182-.944 5.998.41 10.266 7.654 5.15 8.739 16.191 11.613 30.184 7.857 7.119-1.911 10.682-1.875 18.085.183 6.464 1.798 10.703 1.353 19.415-2.038 2.2-.857 5.702-1.577 7.783-1.601 2.081-.024 5.984-1.159 8.673-2.522 4.447-2.253 5.055-2.996 6.717-8.203l1.827-5.726 6.083-1.783c9.625-2.821 9.473-2.47 12.922-29.865.87-6.906 1.337-14.331 1.039-16.5-1.574-11.448-2.769-42.581-3.089-80.445-.197-23.375-.943-54.425-1.657-69-.714-14.575-1.132-36.4-.93-48.5.751-44.811-.003-116.291-1.247-118.305-.356-.576-.873-18.968-1.148-40.871-.276-21.903-.972-43.965-1.548-49.025-.736-6.468-.732-9.791.014-11.184.583-1.091 1.068-3.476 1.077-5.299.008-1.824.629-5.925 1.379-9.114l1.365-5.798-4.888-4.202c-2.688-2.311-5.138-4.985-5.443-5.941-.306-.956-3.011-3.368-6.012-5.36l-5.455-3.62-6.589 1.243c-6.186 1.167-12.626 1.002-24.523-.631-4.176-.572-4.883-.37-6.931 1.985-2.806 3.227-7.039 3.44-11.935.601-13.332-7.732-19.317-9.887-28.984-10.437-5.225-.298-10.455-.127-11.622.379m31.153 60.03c-.792 1.28.144 6.124 1.432 7.412.571.571 1.082 3.984 1.137 7.587.13 8.534.876 10.943 4.145 13.384 4.43 3.307 8.114 1.035 7.47-4.608-1.63-14.279-6.394-24.726-11.275-24.726-1.277 0-2.586.428-2.909.951m-280.005 5.299c-1.355 4.113-1.219 22.501.191 25.75.879 2.028 1.469 6.106 1.402 9.694-.1 5.316.195 6.412 2.076 7.73 1.967 1.378 2.366 1.378 3.881.007 2.487-2.25 5.846-.972 10.885 4.141 4.61 4.678 7.828 4.808 4.805.194-2.764-4.219-6.766-15.354-6.772-18.844-.004-1.882-.629-4.616-1.391-6.075-.761-1.46-1.918-4.272-2.571-6.25-.653-1.978-1.546-3.597-1.985-3.597-.438 0-1.071-1.372-1.407-3.049-.591-2.958-6.343-10.897-7.921-10.933-.43-.01-.967.545-1.193 1.232m33.856 2.364c-.423 1.687.101 4.44 1.481 7.769 1.201 2.897 2.14 7.338 2.143 10.136.004 2.74.724 6.331 1.602 7.981.877 1.65 2.226 5.084 2.997 7.63.771 2.547 2.075 5.189 2.898 5.873.823.683 1.497 1.866 1.497 2.629 0 .763.9 2.158 2 3.1 1.1.942 2 2.14 2 2.662 0 .521.716 1.739 1.59 2.706.875.966 1.997 3.564 2.493 5.773.496 2.209 2.031 5.679 3.41 7.711S171 191.891 171 192.64c0 .748.438 1.36.974 1.36s1.723 1.463 2.637 3.25c1.571 3.073 3.62 5.757 11.075 14.509 6.511 7.645 6.279-3.296-.247-11.673-1.892-2.428-3.439-4.986-3.439-5.686 0-.699-1.79-3.238-3.977-5.641-2.187-2.404-5.619-7.465-7.627-11.248-2.007-3.784-4.974-8.707-6.593-10.941-2.741-3.784-2.895-4.474-2.258-10.066.862-7.564 1.887-9.504 5.022-9.504 1.466 0 2.761.722 3.138 1.75.353.963 2.364 3.248 4.468 5.078 2.105 1.83 3.827 3.906 3.827 4.612 0 .707 1.377 3.018 3.061 5.136 1.683 2.119 2.861 4.613 2.618 5.544-.243.93.402 2.972 1.433 4.536 1.032 1.564 2.558 5.177 3.391 8.028.976 3.342 2.489 5.912 4.256 7.229 6.047 4.51 10.191 10.636 12.642 18.69.353 1.157 1.915 3.239 3.472 4.626 1.837 1.637 3.057 3.934 3.474 6.538.353 2.208 1.261 4.252 2.019 4.543.757.291 1.696 1.802 2.086 3.359.391 1.557 1.509 3.576 2.486 4.487.977.911 2.086 3.59 2.464 5.954.744 4.656 3.934 10.609 6.802 12.697.988.718 1.796 2.015 1.796 2.882 0 2.673 3.914 8.073 6.283 8.667 2.106.529 2.247 1.087 2.232 8.854-.014 7.93.147 8.529 3.71 13.79 2.049 3.025 4.018 6.962 4.375 8.75.358 1.788.995 3.25 1.416 3.25.422 0 1.487 1.8 2.367 4 .881 2.2 2.043 4 2.583 4 .541 0 1.671 1.332 2.513 2.959.841 1.628 2.607 4.036 3.924 5.353 1.316 1.316 3.126 3.81 4.021 5.541.895 1.731 2.029 3.147 2.52 3.147.491 0 1.6.272 2.466.604.955.366 1.824-.05 2.211-1.06.706-1.838-4.066-7.544-6.308-7.544-1.782 0-1.665-4.418.213-8.05 1.841-3.561 5.015-3.917 5.833-.654 1.287 5.127 7.839 14.543 10.995 15.802 4.014 1.601 18.646 16.506 18.646 18.994 0 1.198 1.249 2.403 3.439 3.318 2.003.837 4.492 3.105 5.96 5.43 1.386 2.195 2.995 4.285 3.576 4.644 1.618 1.001 4.121 7.638 3.554 9.427-.352 1.112.902 2.34 4.174 4.089 5.86 3.132 6.651 4.995 2.13 5.014-8.142.033-9.164 1.456-5.792 8.066 2.69 5.273 5.843 6.474 12.715 4.845 2.89-.686 5.512-.991 5.825-.677.313.313 1.998.144 3.744-.376 5.617-1.671 24.84.041 25.421 2.265.399 1.526 1.46 1.863 5.871 1.863 5.075 0 5.383.143 5.383 2.5 0 2-.5 2.5-2.5 2.5-1.833 0-2.5-.533-2.5-2 0-2.841-6.743-2.71-12.29.238-3.64 1.936-5.742 2.24-15.53 2.25-12.542.013-14.338.877-12.089 5.813.906 1.987 2.44 2.728 8.261 3.986 3.931.85 9.519 2.234 12.416 3.077 2.898.843 9.198 1.638 14 1.766 4.803.129 9.947.827 11.432 1.552 6.44 3.143 9.252-1.499 8.568-14.144-.26-4.818-.158-5.022 3.522-7 4.267-2.294 7.694-6.893 7.703-10.338.004-1.264.699-3.638 1.546-5.275 2.215-4.283 3.272-11.568 3.908-26.925.308-7.425 1.04-16.65 1.627-20.5 1.278-8.383-.176-57.801-2.559-87-.852-10.45-1.937-25.081-2.411-32.512-.766-12.025-1.242-14.447-4.331-22-1.909-4.669-4.039-11.413-4.734-14.988-1.902-9.78-4.721-18.928-7.526-24.419-1.382-2.706-2.517-5.406-2.522-6-.014-1.799-6.995-8.581-8.831-8.581-5.798 0-16.16 12.236-16.16 19.083 0 1.054-.45 1.917-1 1.917s-1-.8-1-1.778c0-3.051-3.323-5.19-5.542-3.568-1.183.865-3.062 1.136-5.159.742-2.87-.538-3.299-.349-3.299 1.454 0 1.566-.961 2.332-3.927 3.13-2.291.617-5.036 2.376-6.589 4.221-2.309 2.744-3.23 3.134-6.949 2.942-3.93-.204-8.393 2.093-11.535 5.936-.275.337-3.326 2.594-6.78 5.017a1260.143 1260.143 0 0 0-10 7.082c-2.046 1.474-5.295 2.977-7.22 3.341-1.925.364-5.364 1.511-7.642 2.548-5.728 2.607-9.163 2.638-14.023.129-3.113-1.607-5.658-2.093-10.068-1.923-4.512.173-6.318-.187-7.663-1.53-4.195-4.187-11.629-6.44-24.913-7.549-10.426-.871-10.939-1.025-14.5-4.368C201.208 160.21 193.306 154 192.143 154c-.593 0-1.712 1.208-2.485 2.684-1.381 2.635-1.419 2.644-2.1.5-.381-1.201-1.112-2.184-1.625-2.184-.513 0-.88-.338-.815-.75.769-4.865-.307-8.371-2.866-9.344-3.755-1.428-6.252-3.848-6.252-6.061 0-1.015-.562-1.849-1.25-1.854-.687-.005-3.5-1.116-6.25-2.469-2.75-1.353-5.478-2.474-6.063-2.491-.585-.017-2.385-1.423-4-3.124-2.458-2.589-11.124-7.907-12.885-7.907-.283 0-.809 1.176-1.17 2.614m284.12 11.521c-1.031 4.11.283 73.865 1.565 83.026.918 6.566.944 12.145.107 23.254-.771 10.239-.789 16.301-.061 20.241.572 3.093.801 8.824.508 12.734-.292 3.911-.972 18.81-1.51 33.11s-1.26 28.7-1.604 32c-1.02 9.789-4.482 32.473-6.104 40-.83 3.85-1.932 14.875-2.449 24.5-1.149 21.388-2.715 40.455-3.99 48.604-.526 3.357-.917 12.132-.871 19.5.047 7.368-.412 15.859-1.02 18.87-.609 3.011-1.358 12.236-1.666 20.5-.499 13.384-.837 15.598-3.097 20.265-2.987 6.168-2.661 9.942 1.446 16.742 7.631 12.634 23.092 5.643 26.809-12.122 2.014-9.624 2.606-63.101.873-78.859-1.271-11.567-1.877-54.755-1.92-137-.016-29.358.184-33.599 1.811-38.431 1.007-2.986 2.235-9.286 2.731-14 1.107-10.522 2.596-21.094 3.811-27.069 1.692-8.322 2.326-25.247 1.142-30.485-.62-2.742-1.522-7.917-2.005-11.5-3.008-22.335-4.299-30.613-6.161-39.515-1.151-5.5-2.514-10.808-3.03-11.796-.515-.988-1.349-4.33-1.853-7.427-1.064-6.534-2.556-8.751-3.462-5.142m-68.521 36.413c-1.647 4.197-3.323 5.763-6.645 6.208-1.588.212-2.351-.125-2.182-.965.576-2.853-1.22-6.98-2.778-6.382-.847.325-2.142.591-2.878.591-2.755 0-2.79 5.582-.053 8.535 1.415 1.527 2.555 3.949 2.555 5.431 0 2.816-3.879 7.034-6.469 7.034-1.573 0-4.037 7.372-3.017 9.023 1.26 2.039 3.247.834 4.986-3.023 1.267-2.809 2.428-4.005 3.902-4.015 3.245-.024 4.412-1.236 4.079-4.235-.205-1.846.159-2.75 1.107-2.75.777 0 1.412-.447 1.412-.994 0-1.212 2.731-.831 5.682.792 4.072 2.239 3.867 4.883-.767 9.91l-4.251 4.612 2.513 2.09c1.382 1.15 2.794 2.877 3.137 3.84.343.963 1.031 1.75 1.53 1.75 1.39 0 2.214 5.693 1.192 8.237-.5 1.245-.938 1.698-.973 1.006-.034-.691-1.188-2.234-2.563-3.43-1.375-1.195-2.5-2.982-2.5-3.97 0-3.066-4.458-5.194-9.271-4.427-11.434 1.822-12.774 1.853-14.504.335-2.479-2.176-5.919-3.021-7.865-1.933-1.514.847-1.466 1.055.48 2.096 1.188.636 2.16 1.773 2.16 2.527 0 2.594-9.382 11.167-14.25 13.021-2.613.995-4.75 2.422-4.75 3.171 0 1.836-6.892 9.367-8.572 9.367-.736 0-3.838 2.44-6.893 5.423-3.595 3.509-7.227 5.987-10.295 7.022-3.614 1.219-5.427 2.623-7.635 5.913-1.592 2.373-4.889 5.577-7.328 7.12-2.439 1.543-4.846 3.888-5.349 5.212-.505 1.327-2.473 3.057-4.386 3.857-3.823 1.597-5.542 4.018-5.542 7.805 0 4.384 1.025 5.529 5.558 6.209 3.847.577 4.599 1.124 6.162 4.48 1.989 4.272 4.747 5.959 9.744 5.959 2.496 0 3.872.69 5.309 2.662 1.797 2.468 6.305 2.891 4.796.45-.307-.496.14-1.17.992-1.497 1.14-.437 1.295-1.049.588-2.313-.529-.945-.721-4.053-.426-6.907.397-3.847.114-5.789-1.094-7.514-3.165-4.519-1.132-8.257 4.406-8.099 1.631.046 2.965-.263 2.965-.688 0-.425 1.125-1.286 2.5-1.912 1.375-.627 2.5-1.806 2.5-2.622 0-2.406 3.805-5.25 8.82-6.592 2.574-.689 6.822-2.537 9.441-4.107 2.618-1.571 6.588-3.266 8.821-3.768 2.234-.502 5.002-1.741 6.152-2.753 1.15-1.012 3.088-2.74 4.306-3.84 3.827-3.454 10.449-6.331 12.982-5.639 4.709 1.288 11.64 7.141 13.221 11.167 1.641 4.177 3.929 5.522 7.76 4.561 2.616-.657 7.541.883 8.711 2.724.416.653.762 3.973.771 7.378.015 6.222 1.187 8.799 2.524 5.553.396-.959.641-4.445.545-7.746-.095-3.3.322-8.214.928-10.919.874-3.901.763-7.002-.538-14.998-.903-5.545-1.775-14.928-1.938-20.853-.163-5.924-.758-11.327-1.321-12.005-.563-.679-1.343-2.582-1.733-4.229-.39-1.647-1.503-4.344-2.473-5.994-.97-1.65-2.073-4.463-2.451-6.25-.378-1.787-1.09-3.25-1.582-3.25-1.598 0-3.653-5.404-3.519-9.253.098-2.792-.324-3.897-1.648-4.317-.978-.311-1.779-.984-1.779-1.497 0-2.169-1.73-.67-3.019 2.615m-66.762 46.647c-9.756 9.859-7.811 14.341 3.646 8.402 2.549-1.322 5.423-2.658 6.385-2.969 3.523-1.138.127-6.273-4.75-7.18-2.284-.425-3.545-.008-5.281 1.747M170 225.259c0 1.243.837 2.782 1.859 3.421 1.023.638 2.129 2.51 2.459 4.159.329 1.648 1.968 4.556 3.641 6.461 1.672 1.905 3.041 4.131 3.041 4.947 0 .816.936 2.673 2.08 4.128 1.145 1.455 3.452 5.228 5.127 8.385 1.675 3.157 3.629 6.08 4.341 6.496.713.416 1.592 2.103 1.953 3.749.362 1.646 1.411 3.556 2.333 4.244.921.688 2.844 3.051 4.274 5.251 7.102 10.93 16.751 15.52 16.128 7.673-.447-5.63-3.059-9.224-15.876-21.844-6.798-6.694-12.36-12.844-12.36-13.667 0-.822-.338-1.645-.75-1.829-.412-.183-1.568-1.908-2.568-3.833-3.828-7.367-5.361-9.64-9.444-14-2.317-2.475-4.219-4.838-4.226-5.25-.006-.412-.462-.75-1.012-.75s-1 1.017-1 2.259m182.506 75.731c-.327.529-.814 7.16-1.083 14.736-.612 17.248-1.199 27.383-1.609 27.794-.174.174-2.508-.185-5.186-.798-4.238-.97-5.029-.894-6.108.582-.682.933-1.465 1.696-1.739 1.696-.843 0-3.069-14.725-2.392-15.821.963-1.557-1.385-5.946-4.15-7.758-3.565-2.336-4.808-.539-4.415 6.381.976 17.174.851 18.539-1.817 19.876-2.454 1.229-3.175 6.91-1.056 8.322 1.438.959 3.049 4.887 3.049 7.434 0 1.569.561 2.566 1.443 2.566.794 0 2.161 1.012 3.038 2.25l1.594 2.25 1.94-2.5c1.068-1.375 1.951-3.062 1.963-3.75.012-.687.504-1.25 1.094-1.25.589 0 .989 1.012.889 2.25-.45 5.552-.266 5.75 5.339 5.75 2.915 0 5.727-.372 6.25-.826.522-.454 2.89-1.436 5.261-2.18 2.372-.745 4.727-2.132 5.236-3.081.723-1.351 1.793-1.61 4.919-1.191 8.18 1.097 13.895-4.408 9.158-8.821-1.168-1.089-2.157-2.524-2.198-3.19-.239-3.896-1.324-6.306-4.602-10.227-2.017-2.414-3.979-4.197-4.358-3.963-1.111.687-3.208-17.195-3.057-26.075.11-6.427-.205-8.447-1.482-9.507-2.056-1.706-5.147-2.202-5.921-.949m-78.066 75.305c-.953 2.484 4.399 14.229 7.613 16.705 1.261.972 1.802 19.08.769 25.744-1.016 6.554-3.739 13.469-5.808 14.747-.558.345-1.014 1.7-1.014 3.011 0 1.312-.795 2.973-1.767 3.691-.972.719-2.513 2.432-3.423 3.807-2.607 3.937-8.139 9.602-10.06 10.301-1.537.559-2.586 3.699-1.236 3.699 1.078 0 5.022-2.556 5.786-3.75.44-.687 1.661-1.25 2.715-1.25 1.053 0 2.396-.9 2.985-2 .728-1.36 2.098-2.002 4.285-2.007 3.193-.006 6.833-1.889 10.135-5.243.948-.962 2.498-1.75 3.446-1.75 2.787 0 9.565-7.131 11.407-12.002 2.905-7.679 9.778-10.103 14.096-4.972 1.447 1.72 2.631 3.631 2.631 4.247 0 1.21 4.301 7.966 7.166 11.255 1.903 2.186 5.927 9.029 8.312 14.136.812 1.741 1.984 6.466 2.604 10.5.619 4.035 1.536 7.84 2.036 8.456 2.796 3.439 14.882 27.084 14.882 29.114 0 .759 2.129 5.741 4.732 11.073 4.059 8.315 6.085 11.053 14.25 19.261 5.235 5.263 10.94 11.63 12.677 14.151 3.139 4.552 7.765 6.873 10.424 5.23 1.554-.961.282-8.388-1.836-10.729-1.359-1.501-1.438-2.185-.437-3.788 1.93-3.09.524-7.152-1.95-5.631-2.437 1.5-4.225-.577-9.57-11.117-2.041-4.023-5.123-8.973-6.85-11-5.538-6.498-17.973-27.71-31.363-53.501-10.625-20.465-12.752-24.279-17.598-31.559-6.502-9.768-9.663-14.003-12.665-16.97-1.478-1.46-3.13-3.828-3.672-5.264-.77-2.037-1.889-2.754-5.102-3.268-4.497-.719-4.584-.846-5.561-8.099-.948-7.048-7.305-13.523-13.276-13.523-2.276 0-4.719-.659-5.56-1.5-1.843-1.843-3.542-1.926-4.203-.205M156.039 430.75c-2.562 8.202-3.682 17.938-2.297 19.962 1.581 2.311 5.172.256 6.245-3.574 2.585-9.231 2.069-24.138-.835-24.138-.381 0-1.782 3.488-3.113 7.75m-49.554 7.318c-.37 1.687-1.284 3.302-2.031 3.588-.746.286-1.879 2.169-2.517 4.182-.638 2.014-1.755 4.613-2.481 5.774C96.942 455.631 90 483.44 90 489.492c0 4.429 2.136 7.961 4.366 7.221.624-.207 1.86-3.056 2.748-6.331.888-3.276 2.35-7.379 3.25-9.119.9-1.74 2.138-5.548 2.753-8.463.614-2.915 1.608-5.909 2.209-6.654.6-.745 1.427-4.12 1.836-7.5.41-3.38 1.203-9.405 1.763-13.388.993-7.063.696-10.258-.953-10.258-.447 0-1.116 1.38-1.487 3.068m183.358 15.377c-1.45 1.344-4.145 2.833-5.99 3.307-4.278 1.101-6.331 4.861-4.822 8.829.794 2.089.731 3.086-.259 4.075-1.805 1.806-8.445-.05-9.249-2.584-.399-1.258-1.229-1.7-2.542-1.357-3.992 1.044-6.719-.503-7.413-4.206-.362-1.93-1.259-3.509-1.993-3.509-2.754 0-20.065 13.477-20.41 15.89-.502 3.512 1.373 4.838 3.771 2.668 2.693-2.437 7.107-1.438 6.355 1.438-.288 1.102-1.259 2.013-2.158 2.024-.898.01-3.902 2.148-6.675 4.75-2.773 2.601-7.273 6.477-10 8.612-6.064 4.749-16.458 15.663-16.458 17.282 0 2.044-4.969 7.191-7.284 7.545-1.38.211-2.065.896-1.817 1.815 2.714 10.034-3.075 13.4-10.278 5.975-5.148-5.306-9.02-5.44-14.489-.499-2.131 1.925-4.601 3.5-5.489 3.5-1.659 0-5.965 5.853-7.068 9.609-.989 3.365 1.827 4.999 3.247 1.883.624-1.371 1.577-2.492 2.118-2.492.54 0 1.835-.916 2.878-2.035 4.102-4.403 13.143-7.455 14.686-4.958 1.193 1.93-3.453 6.993-6.417 6.993-1.527 0-3.592.9-4.587 2-.995 1.1-2.429 2-3.186 2-.757 0-1.636.675-1.952 1.5-.341.887-1.86 1.507-3.719 1.517-1.793.009-6.765 1.961-11.576 4.544l-8.434 4.527-4.752-2.044c-5.875-2.527-7.117-2.545-9.298-.135-.95 1.049-3.029 2.447-4.619 3.106-1.591.659-3.764 2.676-4.83 4.483-2.789 4.726-11.11 7.786-21.943 8.069-22.999.602-.489 4.937 24.809 4.778 13.292-.083 16.284-.401 21-2.232 5.742-2.228 18.049-5.541 33.721-9.078 5.223-1.178 12.161-3.629 16-5.651 3.729-1.964 10.682-4.872 15.453-6.462 4.77-1.59 10.845-4.22 13.5-5.845 8.295-5.077 17.663-10.4 21.826-12.401 7.179-3.452 37.627-36.285 41.205-44.432.663-1.509 1.225-4.331 1.25-6.271.025-1.941.654-4.416 1.398-5.5 2.793-4.074 2.998-23.473.247-23.473-.616 0-2.307 1.1-3.757 2.445m-174.216 16.816c-.33 1.232-.606 4.316-.613 6.854-.01 3.197-.677 5.458-2.17 7.356-2.399 3.05-4.373 10.282-5.854 21.45-.541 4.082-1.661 8.454-2.487 9.715-.902 1.376-1.464 4.407-1.405 7.579l.098 5.285 1.152-4.022c.634-2.212 1.939-5.125 2.902-6.472 1.305-1.828 1.75-4.42 1.75-10.193 0-6.597.283-7.894 1.91-8.765 1.198-.641 2.165-2.61 2.595-5.285.376-2.345 1.331-5.598 2.121-7.229 1.823-3.764 3.025-17.013 1.622-17.88-.561-.348-1.291.376-1.621 1.607" fill="#d3d3d3" fill-rule="evenodd"/></svg>