<svg xmlns="http://www.w3.org/2000/svg" width="500" height="392"><path d="M175.75 25.778c-13.019.264-13.75.385-13.75 2.291 0 1.671.636 2 3.75 1.944 2.063-.038 16.463.216 32 .563 25.521.571 28.25.477 28.25-.972 0-1.044.872-1.604 2.5-1.604 1.375 0 2.5.408 2.5.906 0 .499 1.012.715 2.25.48 2.079-.395 2.098-.358.25.483-1.893.862-1.858.967.664 1.964 3.412 1.348 3.598 2.109 4.313 17.667.666 14.486.633 14.585-5.977 18.168-2.2 1.192-4.534 3.19-5.186 4.439-.653 1.248-2.453 2.914-4 3.7-2.874 1.461-11.413 7.05-14.564 9.534-2.198 1.733-2.32 4.092-.169 3.266.926-.355 3.722.802 6.75 2.794 2.843 1.87 6.805 4.232 8.805 5.25 7.709 3.92 23.5 16.275 20.864 16.322-1.266.023-1.512 2.509-1.579 15.931l-.08 15.904 12.58.469c6.918.258 13.704.779 15.079 1.159l2.5.689-2.5-1.527c-1.375-.84-3.722-1.543-5.215-1.563-4.173-.054-4.473-1.719-5.138-28.535-.341-13.75-.919-32.04-1.286-40.644l-.665-15.644-3.479-.564c-2.134-.347-4.567-.001-6.298.894-6.299 3.257-6.415 3.018-6.46-13.407-.044-15.953-.979-19.017-5.447-17.848-1.054.275-2.082.003-2.285-.605-.25-.75-7.278-1.204-21.798-1.409-11.786-.166-21.879-.408-22.429-.538-.55-.129-7.187-.11-14.75.043m-36.389 5.095c-1.813 1.323-4.297 7.126-3.064 7.159.74.019.592.501-.385 1.25-.873.67-1.407 1.755-1.186 2.411.425 1.258-1.998 1.813-12.226 2.804-10.195.987-15.624 2.682-16.79 5.241-.736 1.614-.699 6.235.123 15.53.643 7.277 1.169 17.394 1.168 22.482-.001 7.556.274 9.25 1.499 9.25.825 0 1.5.653 1.5 1.45 0 .798.628 1.81 1.396 2.25 2.293 1.313 15.604 14.092 15.604 14.98 0 2.234 7.012 6.384 8.994 5.323 2.594-1.388 2.598-2.97.006-2.293-1.4.366-2 .031-2-1.118 0-1.028-1.133-1.869-3.026-2.247-2.332-.467-2.896-1.015-2.459-2.391.311-.982.098-2.075-.474-2.429-.573-.354-1.041-1.093-1.041-1.643s.419-.741.931-.425c2.246 1.389 1.939-1.67-.372-3.705-3.619-3.187-2.62-7.144 1.571-6.223 1.777.39 2.87.219 2.87-.45 0-2.176-6.725-1.237-7.316 1.022-.303 1.156-1.029 1.804-1.617 1.441-1.601-.99-1.284-5.522.433-6.18 2.872-1.103.053-9.362-3.196-9.362-.481 0-.936-.787-1.01-1.75-.073-.963-.426-4.838-.783-8.611-.581-6.137-.43-7.066 1.433-8.801 1.145-1.067 2.503-1.679 3.019-1.361.515.318 1.425-.334 2.022-1.449 1.337-2.498 6.968-2.76 10.439-.486 2.153 1.411 2.682 1.375 6.215-.416 4.854-2.462 14.872-3.605 19.971-2.278 2.14.556 6.439 1.556 9.555 2.221 7.488 1.599 10.035 4.791 9.746 12.217-.111 2.868-.108 6.564.007 8.214.197 2.829.26 2.872 1.113.75 1.134-2.82 1.969-2.886 1.969-.156 0 1.252-.803 2.303-2 2.616-1.161.304-2 1.364-2 2.529 0 1.565.295 1.761 1.342.892 1.75-1.453 2.658-.453 2.658 2.929 0 1.606-.675 2.985-1.643 3.357-2.945 1.13-.768 1.622 2.358.533l3.039-1.06-.131-17.195c-.071-9.457-.436-17.667-.811-18.243C185.3 57.123 170.351 52 165.069 52c-1.046 0-2.776-1.2-3.845-2.667-2.044-2.806-8.69-5.146-15.224-5.359-4.956-.162-7.272-1.288-7.643-3.715-.334-2.191 1.962-7.607 2.849-6.72.28.28 1.033-.122 1.673-.893 1.26-1.518-1.773-3.047-3.518-1.773M381.882 51.75c-.066.413-.024 1.2.091 1.75.116.55.415 4.6.664 9 .25 4.4.863 10.025 1.362 12.5.5 2.475 1.181 6.525 1.514 9 .898 6.666 3.215 17.773 6.991 33.5 3.592 14.964 6.998 34.738 7.88 45.75.486 6.062.355 6.75-1.282 6.75-2.41 0-13.999-9.077-14.057-11.01-.025-.831-1.067-2.631-2.316-4-1.25-1.37-3.162-3.913-4.25-5.653-1.089-1.739-5.834-7.364-10.546-12.5-17.976-19.592-17.062-18.065-15.75-26.337.302-1.908-.325-2.014-13.683-2.297-7.7-.163-15.5-.023-17.333.311l-3.333.608.333 17.189c.258 13.3.05 17.166-.917 17.089-.687-.055-2.712-.178-4.5-.272l-3.25-.172 2.292-1.764c2.529-1.946 3.016-7.448 2.247-25.356-.369-8.581-.393-8.65-2.506-7.266-2.462 1.613-3.39 1.131-12.283-6.379L294 97.757l-.058 3.372c-.031 1.854-.244 5.156-.471 7.337-.304 2.908.087 4.508 1.465 6C299.75 119.678 310 134.461 310 136.193c0 1.852-.748 1.922-17.25 1.621l-17.25-.314.05 4.522c.064 5.781.642 6.623 4.658 6.778 4.45.172 15.101 3.627 15.576 5.052.277.832-4.117 1.157-15.951 1.182-16.614.034-36.029.832-36.707 1.507-.205.205-.091 1.109.255 2.009.552 1.439 2.582 1.601 16.873 1.341 15.629-.283 16.235-.221 15.956 1.657-.159 1.074-.269 5.616-.244 10.094l.045 8.143-7.391-.263c-8.468-.301-9.759-.827-9.448-3.847.385-3.725-2.257-11.542-4.027-11.918-2.041-.434-7.145 3.131-7.145 4.99 0 .754-.414 1.115-.919.803-1.024-.633-2.31 9.474-2.474 19.448l-.107 6.502 16-.359 16-.358 6.864 3.661c3.775 2.014 6.974 3.525 7.109 3.359 1.32-1.628 1.353-5.803.046-5.803-.835 0-1.519.73-1.519 1.622 0 1.324-.274 1.395-1.489.387-.819-.68-1.267-1.595-.996-2.034.272-.439-1.29-1.099-3.469-1.467-2.719-.46-4.161-1.295-4.596-2.664-.801-2.524-.915-2.455 5.175-3.142 4.582-.517 5.237-.346 6.182 1.61.919 1.901 1.071 1.598 1.161-2.312.101-4.416.13-4.453 1.532-2 1.421 2.485 1.429 2.486 1.465.231.029-1.9.431-2.17 2.472-1.658 2.181.548 2.548.183 3.5-3.481l2.14-8.235c1.076-4.138.716-5.02-2.507-6.151-.511-.179-.66-1.029-.331-1.888.512-1.333 2.297-1.486 12.237-1.048 11.197.495 11.658.434 12.187-1.588.489-1.87 1.393-2.134 8.193-2.392l7.644-.29.616-5.048c.662-5.419 4.177-18.05 6.387-22.952.744-1.65 1.92-4.672 2.614-6.716 1.327-3.914 3.883-3.691 3.883.338 0 1.033.45 1.878 1 1.878s1 .675 1 1.5c0 .833-.889 1.5-2 1.5-1.1 0-2 .381-2 .846 0 1.366 3.037 7.059 4.123 7.73.603.373.73 2.753.322 6.02L354.77 150h3.315c2.26 0 2.989.326 2.292 1.023-1.77 1.77-5.696 1.998-7.427.432-1.962-1.776-3.274-.632-4.326 3.773-.689 2.888-1.034 2.668 6.682 4.242 1.268.259 4.595.109 7.394-.333 3.679-.582 5.805-.428 7.68.554 1.427.748 4.267 1.175 6.313.949 4.951-.546 7.878.937 9.786 4.956.866 1.826 2.019 3.594 2.562 3.929.543.336 1.886 2.268 2.984 4.293 2.18 4.021 3.155 5.625 7.094 11.666 1.441 2.209 4.439 7.641 6.664 12.072 2.224 4.43 4.758 8.648 5.631 9.372C412.641 207.947 413 210.225 413 217c0 14.07 3.194 14.813 10.023 2.332 10.39-18.993 10.196-17.903 6.459-36.383-3.953-19.546-7.462-40.129-7.472-43.83-.01-3.328.046-3.372 3.614-2.793 8.193 1.33 11.323 7.735 11.354 23.233.028 14.302.44 14.926 9.854 14.935 10.15.009 11.669-1.643 12.693-13.801.425-5.056.889-10.093 1.031-11.193 1.5-11.658.804-13.414-9.209-23.21-4.857-4.753-6.347-6.879-6.347-9.059 0-6.092-1.462-6.717-16.037-6.862-14.917-.148-13.845.44-17.067-9.369-1.174-3.575-4.611-11.819-7.637-18.32l-5.502-11.821.448-8.553.449-8.552-3.295-1.377c-3.461-1.446-14.274-1.915-14.477-.627M69.643 70.768C68.381 72.811 70.257 76 72.72 76h2.487l-3.015 3.434c-1.659 1.889-3.309 4.477-3.667 5.75-.358 1.274-1.14 3.313-1.739 4.532-.79 1.61-.781 2.586.035 3.568.85 1.024.622 2.285-.939 5.197-1.455 2.714-1.9 4.901-1.512 7.432 2.267 14.825 5.797 51.222 6.154 63.459.245 8.423.897 15.43 1.503 16.161.744.896.75 1.487.022 1.937-1.506.931-1.322 4.572.201 3.985.968-.373 1.18 2.26.939 11.671-.178 6.966.103 12.566.659 13.122.921.921 12.152-8.86 12.152-10.583 0-1.109 11.104-17.119 12.143-17.508 2.845-1.066-6.819 15.899-13.768 24.17-1.306 1.554-2.375 3.237-2.375 3.739 0 1.182-8.116 11.84-10.992 14.434-2.021 1.823-3.716 2.01-19.193 2.116-20.616.14-19.869-.298-19.914 11.713-.06 16.191 1.096 67.121 1.721 75.833l.622 8.662 10.128.633c5.57.348 13.25.5 17.066.338l6.939-.295.685 3.251c.492 2.33.156 4.17-1.186 6.5-1.03 1.787-4.563 8.649-7.853 15.249-3.29 6.6-7.566 13.713-9.502 15.806-1.937 2.093-3.521 4.265-3.521 4.827 0 1.358-5.554 6.867-6.923 6.867-1.785 0-1.215 2.067 1.082 3.928 1.387 1.123 1.869 2.218 1.347 3.062-.634 1.027-1.112.901-2.192-.575-1.262-1.726-1.606-1.761-4.017-.402-3.654 2.061-4.079 3.987-.88 3.987 1.421 0 2.583-.505 2.583-1.122 0-.829.354-.829 1.355.002.997.827 62.118 1.058 231.143.872l229.789-.252-.19-21.423-.189-21.423-2.704-2.326c-1.487-1.279-3.413-2.326-4.28-2.327-.866 0-2.529-1.013-3.695-2.251-1.165-1.238-3.831-3.149-5.924-4.248-2.093-1.098-4.4-2.561-5.126-3.25-.727-.688-1.81-1.252-2.406-1.252-.596 0-2.559-1.125-4.362-2.5s-3.688-2.5-4.189-2.5c-2.788 0-4.278-4.044-4.883-13.252-.645-9.808 1.473-18.358 6.227-25.145.789-1.127 1.434-3.011 1.434-4.188 0-2.649-7.693-3.569-28.033-3.353-7.205.076-13.253-.019-13.441-.212-.187-.192-.546-6.931-.797-14.976-.472-15.103-1.124-18.378-3.132-15.729-1.516 2.001-7.238 4.207-9.079 3.5-.835-.32-1.518-.209-1.518.248 0 .689-20.656 2.056-39 2.581-13.829.397-15.561 1.304-14.703 7.705.454 3.381.264 3.834-1.642 3.937-1.759.095-1.825.202-.359.582 1.624.422 1.787 1.777 1.7 14.134-.052 7.517-.073 14.231-.046 14.918.028.688.664 1.25 1.414 1.25 1.687 0 6.777 4.963 6.142 5.99-.255.412-7.074.829-15.155.926-8.081.097-14.964.345-15.296.55-.333.206-2.031.072-3.776-.296l-3.171-.67-.597-25.759c-.492-21.246-.344-26.326.847-29 .795-1.782 1.922-4.723 2.507-6.535.584-1.812 2.007-4.621 3.162-6.243 2.094-2.942 1.946-4.963-.364-4.963-1.751 0-5.169 4.229-4.85 6 .24 1.333.156 1.333-.756 0-.894-1.307-1.028-1.289-1.042.143-.008.904-.682 1.899-1.498 2.212-.844.324-1.229 1.232-.893 2.107.684 1.783-5.493 2.269-7.195.567-.535-.535-1.996-1.128-3.248-1.319-1.252-.191-3.16-1.104-4.24-2.029-4.607-3.944-5.33-.017-5.394 29.319l-.047 21.5 2.574 3.5c3.443 4.682 13.926 15.676 13.926 14.605 0-.467.675-.29 1.5.395 2.082 1.728 1.873 3-.492 3-1.095 0-2.524-.853-3.175-1.896-1.546-2.475-3.833-.456-3.833 3.384 0 1.499-.43 2.364-1 2.012-.55-.34-1-.115-1 .5s-.473.826-1.05.469c-.578-.357-2.61.091-4.517.996-3.147 1.493-3.61 1.5-5.034.077-2.117-2.117-3.964-8.854-2.557-9.323.739-.246.74-1.043.004-2.659-.747-1.638-.728-2.912.064-4.393.786-1.468.821-3.404.119-6.538-.549-2.449-1.01-17.43-1.024-33.291-.028-29.484-.359-39.025-1.392-40.058-1.437-1.438-97.813-.567-100.826.91-2.815 1.382-1.036 3.413 6.03 6.885 3.676 1.807 8.933 4.617 11.683 6.247 8.55 5.065 13.74 7.678 15.248 7.678 1.69 0 17.252 15.893 17.252 17.619 0 1.594-2.572 2.507-8.474 3.007-2.735.231-5.413.861-5.95 1.398-.537.537-2.236.976-3.776.976-3.841 0-3.623.627 2.95 8.482 3.162 3.779 7.513 9.154 9.667 11.945 2.154 2.79 6.156 7.423 8.892 10.295 2.737 2.872 5.699 6.198 6.583 7.391.885 1.193 2.62 3.17 3.858 4.393 1.238 1.223 2.25 2.513 2.25 2.867 0 .355 1.35 2.508 3 4.786 1.65 2.277 3 4.524 3 4.991 0 .468-5.625.85-12.5.85-10.444 0-12.5-.247-12.5-1.5 0-.825-.675-1.5-1.5-1.5-1.81 0-1.853 1.22-.235 6.621.859 2.866 1.032 7.586.569 15.5-.366 6.258-.704 13.966-.75 17.129-.064 4.407-.434 5.75-1.584 5.75-1.076 0-1.5-1.099-1.5-3.893 0-2.66-.511-4.089-1.613-4.512-1.024-.393-1.424-1.346-1.094-2.607.341-1.303.025-1.988-.918-1.988-.791 0-1.698-.788-2.016-1.75-1.096-3.319-5.861-12.751-6.609-13.083-.413-.184-.75-1.106-.75-2.05 0-.945-.412-2.145-.916-2.667-.504-.523-1.067-1.831-1.25-2.907-.184-1.077-1.113-2.755-2.065-3.731-1.542-1.58-1.703-3.956-1.48-21.876.138-11.056-.114-20.328-.56-20.603-.446-.276-.52-1.416-.165-2.533.977-3.079-3.587-13.768-6.154-14.412-1.15-.289-5.808-.156-10.352.294l-8.262.818 2.497 2.688c1.373 1.479 2.264 2.922 1.979 3.207-.286.285-.168 1.326.262 2.312 1.776 4.075-1.61 11.775-5.824 13.244-1.669.582-3.246.847-3.504.589s-1.31-.02-2.337.53c-1.248.668-1.869.667-1.869-.003 0-.553-.675-.745-1.5-.429-.825.317-1.5.078-1.5-.531s-.845-1.107-1.878-1.107c-2.458 0-3.717-1.696-4.503-6.069-1.085-6.037.211-9.947 3.516-10.608 3.178-.636 3.84-2.879 1.107-3.746-.967-.307-6.029-.391-11.25-.187-25.307.991-90.025 1.365-90.545.524-.316-.51.355-2.232 1.49-3.825 1.135-1.594 2.063-3.303 2.063-3.798 0-.495 1.374-3.066 3.053-5.714 1.68-2.648 4.099-7.574 5.377-10.946 1.278-3.372 5.244-12.206 8.815-19.631 3.57-7.425 6.826-14.625 7.236-16 .41-1.375 3.115-7.45 6.012-13.5 5.517-11.52 7.153-18.255 4.86-20-.794-.604-1.42-3.605-1.582-7.584-.255-6.246-.092-6.786 3.167-10.499 2.806-3.195 3.127-3.973 1.749-4.239-.928-.178-1.688-.629-1.689-1.001-.001-.372-8.131-.657-18.067-.632-11.509.029-18.3-.333-18.711-.997-.354-.574-.793-6.942-.975-14.152l-.33-13.11 16.292-.533c8.961-.293 16.48-.358 16.708-.144.229.213.624 3.989.879 8.39l.463 8.001h8.755c8.213 0 8.796-.139 9.427-2.25l.671-2.25 1.07 2.187c.973 1.991 1.813 2.184 9.394 2.163 8.298-.023 8.345-.009 14.727 4.546l6.403 4.568.536 18.768.536 18.768 5.362 8c2.949 4.4 5.7 8.15 6.112 8.333.412.184.75.971.75 1.75 0 .781.96 1.417 2.137 1.417 2.03 0 2.107-.338 1.544-6.75-.325-3.713-1.073-22.5-1.66-41.75-.588-19.25-1.309-36.492-1.602-38.315l-.534-3.315-5.692.661c-7.95.922-25.721 4.934-32.661 7.373-3.195 1.123-6.197 1.803-6.671 1.51-.474-.293-.861-.055-.861.527 0 .582.45 1.059 1 1.059s1 .45 1 1c0 2.063-3.02.892-5.158-2-1.22-1.65-2.621-3-3.113-3-1.394 0-7.849-6.998-7.29-7.902.274-.443-.671-1.338-2.1-1.989-1.429-.652-3.778-2.268-5.219-3.592-1.441-1.324-3.702-3.257-5.025-4.297-1.323-1.039-2.493-2.976-2.601-4.305-.134-1.639-.727-2.321-1.845-2.121-1.104.197-1.649-.404-1.649-1.818 0-1.656-.431-1.974-2-1.476-1.147.364-2 .18-2-.433 0-.587-.627-1.067-1.393-1.067-1.893 0-2.98-3.152-1.42-4.116.69-.426.906-1.124.48-1.551-.427-.426-1.17-.137-1.653.644-.669 1.083-1.039.77-1.565-1.326-.379-1.509-.919-2.514-1.201-2.233-.752.753-4.384-1.389-3.842-2.266.668-1.081-.682-2.938-2.415-3.322-.82-.181-2.412-1.267-3.537-2.411-1.74-1.771-2.24-1.873-3.351-.684-.717.768-1.596 1.105-1.952.749-.356-.356.129-1.215 1.077-1.909 1.601-1.171 1.565-1.341-.501-2.36-3.317-1.636-8.46-2.456-9.084-1.447m224.142.35c-1.027 2.677 1.882 7.88 4.417 7.897 1.703.012 1.94.242.915.891-1.17.741-1.156 1.2.09 2.979.81 1.156 1.71 1.865 2 1.575.475-.475 2.759 1.916 8.144 8.527 1.018 1.249 2.436 4.126 3.151 6.392l1.3 4.121.099-4.104c.075-3.105-.524-4.777-2.463-6.868-1.409-1.52-2.348-3.32-2.087-3.999.26-.679-.275-1.926-1.189-2.772-.914-.845-3.462-3.814-5.662-6.597-2.2-2.783-4.494-5.083-5.097-5.11-.604-.028-1.536-1.033-2.072-2.235-.76-1.701-1.101-1.856-1.546-.697M151.25 92.706c-1.49.287-2.25 1.15-2.25 2.555 0 2.075.031 2.079 1.416.184 1.277-1.745 1.396-1.373 1.208 3.769-.115 3.138-.491 5.986-.835 6.33-.801.802 2.297 4.456 3.778 4.456 2.844 0 4.686-3.989 4.809-10.417.145-7.595-.697-8.308-8.126-6.877M147 99.934c0 .513-1.238 1.076-2.75 1.25-2.582.297-2.769.651-3.06 5.794-.171 3.013-.846 5.819-1.5 6.235-.902.573-.887.76.06.772.688.008 1.25.69 1.25 1.515 0 2.037 2.299 1.888 5.034-.327 1.939-1.57 2.27-2.833 2.361-9 .058-3.946-.233-7.174-.645-7.173-.412 0-.75.42-.75.934M55.508 159.25c.165 14.438.351 30.975.412 36.75.075 7.138.419 10.02 1.074 9 1.104-1.72.683 6.332-.481 9.202-.974 2.403.184 3.798 3.153 3.798 2.061 0 2.397-.334 1.757-1.75-.435-.963-.897-5.261-1.027-9.551-.13-4.291-.738-8.406-1.351-9.145-1.953-2.353-2.659-12.004-.826-11.3.845.324 2.008.119 2.583-.456.729-.729 1.981-.721 4.122.026 2.512.875 3.076.807 3.076-.376 0-.796-.45-1.448-1-1.448s-.955-1.463-.9-3.25c.094-3.079.141-3.119.9-.75l.801 2.5.099-2.75c.055-1.512-.35-2.75-.9-2.75s-.964-2.363-.921-5.25c.043-2.887.306-4.687.583-4 .278.688.89 1.25 1.362 1.25.472 0 .212-1.238-.577-2.75-.789-1.512-1.437-3.939-1.441-5.393-.003-1.454-.681-2.902-1.506-3.219-.914-.35-1.5-.001-1.5.893 0 .808-.413 1.469-.917 1.469s-.9 2.137-.88 4.75l.037 4.75 1.255-3.5 1.255-3.5.735 3.743c.966 4.92.016 8.393-2.474 9.044-1.106.289-2.011 1.243-2.011 2.119 0 3.174-1.757 1.502-2.266-2.156-.499-3.592-.361-6.622.896-19.602.355-3.662.156-6.262-.532-6.95-.604-.604-1.098-4.383-1.098-8.398s-.404-7.3-.897-7.3c-.514 0-.768 11.202-.595 26.25M306 147.117c0 .632 1.018.922 2.345.668 2.312-.442 2.341-.342 2.01 6.883l-.336 7.332 3.24-.015c1.783-.009 3.916-.497 4.741-1.085 1.134-.808.668-.924-1.912-.477-3.259.565-3.337.51-1.75-1.244.914-1.01 1.662-2.39 1.662-3.067 0-.676.453-.95 1.007-.608.554.343 1.295-.126 1.646-1.042.351-.915.075-2.012-.614-2.438-.888-.549-.931-.973-.146-1.458 1.681-1.039 1.332-4.566-.452-4.566-.857 0-1.364.338-1.125.75.238.412.072 1.65-.371 2.75-.702 1.746-.813 1.651-.875-.75-.066-2.582-.345-2.75-4.57-2.75-2.647 0-4.5.46-4.5 1.117m-154.248 6.465c-.32.319.102 2.217.938 4.217 1.206 2.888 1.272 4.031.322 5.553-.945 1.513-.92 2.087.117 2.728 2.078 1.284.266 2.202-1.978 1.001-2.948-1.578-4.151-1.331-4.151.852 0 1.072-.916 2.223-2.059 2.586-1.921.609-1.955.811-.511 3.015 2.311 3.527-2.47 5.839-5.099 2.466-.964-1.236-1.715-1.294-4.276-.327-1.982.748-4.183.864-6.081.32-2.539-.729-2.974-.581-2.974 1.007 0 1.135.878 2.03 2.25 2.294 1.393.269.821.486-1.5.57-2.972.108-3.75.531-3.75 2.039 0 2.208 9.426 3.495 11.071 1.512.89-1.072 11.439-.238 12.68 1.003.311.31 1.111.112 1.778-.442.667-.553 3.52-1.058 6.342-1.122 4.302-.097 5.129-.417 5.129-1.985 0-1.202-.713-1.869-2-1.869-1.1 0-2 .414-2 .921 0 1.452-6.049 2.43-7.299 1.18-.801-.801-.772-1.101.107-1.101.929 0 .917-.478-.05-2.061-1.074-1.76-.973-2.272.697-3.51 1.713-1.27 2.059-1.263 2.799.061.465.831 1.461 1.51 2.212 1.51.752 0 1.544.53 1.76 1.177.523 1.571 2.774.108 2.774-1.803 0-1.022-.607-1.316-1.882-.912-1.187.377-2.098.033-2.468-.932-.401-1.044.019-1.53 1.32-1.53 1.72 0 1.909-.806 1.925-8.2.01-4.51-.467-8.785-1.061-9.5-1.109-1.336-4.049-1.752-5.082-.718m21.057 55.22c-4.47.289-4.705.453-5 3.5-.46 4.756.59 24.439 1.344 25.188.359.357 3.509.73 7 .829l6.347.181.261-12.553.26-12.552-2.76-2.448c-2.247-1.991-3.634-2.391-7.452-2.145M45.968 223.045c-1.244 1.747-3.42 3.295-5.104 3.632-1.614.323-3.393 1.442-3.952 2.487-.916 1.711-.738 1.834 1.786 1.23 1.541-.368 3.399-1.141 4.128-1.718.945-.746 1.551-.684 2.109.218.817 1.323 12.536 1.968 13.747.757.358-.358-.211-.687-1.265-.73-1.055-.043-1.38-.297-.723-.565.656-.267.953-1.111.66-1.876-.419-1.091-.815-1.131-1.839-.185-.718.663-1.101 1.543-.851 1.955.25.412-.883.75-2.516.75-4.864 0-3.553-3.881 1.492-4.416 1.79-.191 2.991-.971 3.211-2.087.271-1.379-.125-1.659-1.749-1.234-1.155.302-2.352.141-2.66-.357-1.154-1.868-4.38-.802-6.474 2.139M363 267.885c0 .562 3.389 3.18 7.53 5.818 4.142 2.639 16.819 10.941 28.173 18.449 11.353 7.509 21.132 13.465 21.73 13.235 1.257-.482 5.695-12.716 5.917-16.312.131-2.114-1.901-3.652-15.85-12l-16-9.575-15.75-.319c-10.27-.208-15.75.037-15.75.704" fill="#d3d3d3" fill-rule="evenodd"/></svg>