<svg xmlns="http://www.w3.org/2000/svg" width="500" height="649"><path d="M0 324.502v324.502l250.25-.252 250.25-.252.252-324.341.251-324.341-45.251.558c-24.889.307-70.021.535-100.294.507-30.273-.029-56.711.261-58.75.644-4.078.765-4.811 1.951-1.708 2.763 2.133.557 2.851 2.882.761 2.46-.802-.162-1.129.721-.928 2.5.17 1.512-.172 2.75-.761 2.75-.59 0-1.072.575-1.072 1.278 0 .703-.912 2.059-2.028 3.014-1.563 1.338-1.8 2.161-1.035 3.59.546 1.02.677 2.17.292 2.555-1.123 1.123-1.13 6.947-.009 8.313.752.918.527 1.271-.848 1.329-1.053.044-1.325.299-.622.583 1.851.747 1.538 3.285-1.25 10.146-2.705 6.657-3.271 12.183-1.25 12.207.836.011.753.342-.25 1-1.756 1.153.138 2.942 3.143 2.97 2.177.02 3.04 2.525 2.274 6.606-.369 1.965-.073 4.565.724 6.365C293.45 74.915 295 76.022 295 74c0-.55.788-.964 1.75-.921 1.045.047 1.247.282.5.583-.687.278-1.25 1.217-1.25 2.088s.284 1.299.631.952c.348-.347 1.473-.182 2.5.368 1.374.735 1.873.66 1.884-.285.011-.88.247-.938.75-.185 1.114 1.668 5.154 3.568 6.205 2.918 1.296-.8 3.316 3.295 2.576 5.223-.366.955.389 2.625 1.899 4.202 2.398 2.502 2.454 2.835 1.281 7.587-.955 3.871-1.707 5.039-3.403 5.28-1.198.171-2.716.958-3.373 1.75s-1.834 1.44-2.615 1.44c-1.045 0-.706 1.252 1.287 4.75 3.887 6.82 3.815 6.793 8.015 2.944 3.755-3.441 3.805-3.582 2.545-7.067-1.246-3.446-.748-10.627.737-10.627.383 0 2.629 3.628 4.992 8.063 2.363 4.435 4.525 7.835 4.804 7.555.279-.279-1.568-4.408-4.104-9.175-7.896-14.844-5.618-14.351 6.044 1.307 5.441 7.306 5.422 7.3 9.052 2.75 3.479-4.359 3.993-4.374 3.494-.098-.554 4.75 2.736 8.056 7.153 7.189 7.685-1.509 7.761-11.078.108-13.604-2.943-.971-3.346-1.421-2.35-2.622.835-1.006 1.522-1.131 2.246-.407 1.529 1.529 2.667 1.27 2.004-.458-.317-.825-.126-1.5.424-1.5s1.259.675 1.576 1.5c.316.825.053 1.5-.585 1.5-.637 0-.426.563.469 1.25.896.688 3.202 4.4 5.125 8.25 5.879 11.768 5.775 11.7 10.596 7.014l4.101-3.986-.244 3.198c-.165 2.167.469 3.957 1.966 5.551 2.049 2.181 2.21 3.311 2.21 15.537 0 8.124.384 13.186 1 13.186.619 0 1-5.304 1-13.912v-13.912l4.209-.711c2.805-.474 4.334-.337 4.583.412.655 1.965 2.463 1.206 1.935-.812-.677-2.591 1.869-3.462 4.577-1.565 1.819 1.275 1.879 1.5.397 1.5-.959 0-2.256 1.125-2.883 2.5-.626 1.375-1.527 2.5-2.002 2.5-.474 0-.085 1.186.865 2.636 1.999 3.05 10.649 7.326 8.814 4.356-.342-.554.081-1.711.941-2.571.86-.86 1.564-2.522 1.564-3.692 0-1.589.288-1.841 1.136-.993.848.848.707 2.448-.556 6.31-1.59 4.859-1.411 7.917.3 5.149.904-1.463 11.057-2.892 11.255-1.584 1.081 7.117.298 14.54-2.204 20.889-1.518 3.85-3.096 7.9-3.509 9a83.074 83.074 0 0 1-.97 2.5c-.122.275-.55 1.513-.953 2.75-.403 1.238-1.205 2.25-1.782 2.25-.578 0-.766.284-.419.632.348.347-.52 2.597-1.928 5-1.408 2.402-2.18 4.375-1.715 4.383.465.009.296.365-.376.791-.671.427-3.677 5.984-6.68 12.35-5.802 12.3-7.895 14.315-11.048 10.632-1.706-1.992-1.84-2.958-3.058-22.038-.968-15.182-2.553-14.547-1.874.751.674 15.199.087 16.596-5.406 12.869-2.014-1.367-4.419-2.288-5.343-2.046-1.3.34-2.367-1.292-4.703-7.192-4.154-10.489-9.003-20.874-9.093-19.473-.041.638 2.176 6.779 4.926 13.647 6.114 15.27 6.106 14.574.169 13.358-4.426-.907-5.154-1.49-8.702-6.969-3.963-6.12-6.215-6.611-2.519-.549 2.538 4.164 2.636 5.692.223 3.509-2.207-1.998-3.171-2.1-3.171-.337 0 .725-1.558 3.07-3.462 5.21l-3.462 3.892-2.534-2.381c-1.394-1.309-2.813-2.101-3.155-1.76-.341.342.764 1.885 2.455 3.429 1.705 1.558 2.759 3.299 2.366 3.909-.888 1.379-20.82-10.744-20.458-12.443.147-.689-.965-1.174-2.693-1.174-1.618 0-4.543-.944-6.5-2.099-2.153-1.27-3.557-1.641-3.557-.941 0 .637-.498.85-1.107.474-.77-.476-.785-.883-.046-1.339.583-.361-3.982-3.624-10.144-7.253-19.61-11.548-22.701-13.138-22.725-11.687-.015.876-.624.642-1.75-.673-2.684-3.135-5.497-5.178-8.228-5.976-2.044-.597-2.272-.491-1.25.582 1.733 1.819 1.563 2.969-.331 2.243-.968-.372-1.386-1.349-1.079-2.524.359-1.374-.203-2.185-1.984-2.862-3.276-1.245-3.25-1.255-2.646 1.055.589 2.25-1.18 2.726-2.41.65-.44-.743-3.241-1.631-6.225-1.974-2.983-.343-5.789-1.198-6.234-1.9-.592-.932-.814-.805-.826.474-.008.963.435 1.75.985 1.75 1.336 0 1.278 3.322-.082 4.682-.776.776-.706 1.69.25 3.231 1.124 1.813 1.106 2.289-.12 3.052-1.673 1.04-3.358.345-2.505-1.034.316-.512.059-.931-.572-.931-.773 0-.939-1.232-.509-3.776.351-2.076.667-8.039.702-13.25.06-8.944.208-9.593 2.652-11.591 2.529-2.069 2.549-2.177.855-4.763-1.696-2.588-1.681-2.666.661-3.556 2.936-1.117 3.999-3.576 2.642-6.113-2.362-4.412 2.815-7.444 14.702-8.611 3.29-.323 6.225-1.241 7.252-2.268.949-.949 4.544-2.323 7.99-3.055 3.445-.731 6.416-1.821 6.601-2.423.186-.602.597-15.719.914-33.594.317-17.875.85-33.507 1.185-34.738.422-1.55.104-2.432-1.034-2.868-.94-.361-1.434-1.329-1.154-2.262.97-3.231 1.437-18.132.569-18.132-.489 0-1.027 2.137-1.194 4.75l-.305 4.75-2.863-6.197c-1.574-3.409-3.712-6.966-4.75-7.905-2.186-1.979-2.559-.813-.487 1.523 4.145 4.673 6.862 14.394 6.252 22.371-.378 4.941-.24 7.572.376 7.191.946-.585 1.265 14.276 1.044 48.517-.106 16.422-.126 16.465-7.957 17.567-2.538.358-5.612 1.276-6.83 2.041-1.218.766-3.13 1.392-4.25 1.392-1.119 0-2.035.399-2.035.887 0 .487-2.877 1.429-6.393 2.093-10.093 1.904-16.149 8.183-14.113 14.632.512 1.621.173 2.242-1.459 2.668-2.161.566-2.486 3.622-.69 6.487.437.697.55 3.622.251 6.5-.615 5.915-1.973 35.135-1.917 41.233.112 12.246 1.342 34.935 2.221 41 1.219 8.407 2.032 20.282 2.089 30.5.029 5.195.338 7.039 1.005 6 .578-.9.73-7.608.38-16.771-.434-11.332-.268-15.652.643-16.75.856-1.031.888-1.479.105-1.479-.617 0-1.122-.932-1.122-2.071 0-1.716.226-1.845 1.317-.75 2.357 2.363 3.887 8.058 2.445 9.099-.879.634-.718.735.528.332 2.243-.724 1.979 2.535-.29 3.582-1.196.551-1.071.821.617 1.332 2.624.793 5.155 13.164 3.374 16.492-1.299 2.429-.245 6.984 1.617 6.984 1.858 0 1.786 2.635-.091 3.355-.844.324-1.229 1.232-.893 2.107.351.915.04 1.547-.767 1.56-.779.013-.331.811 1.049 1.872 2.972 2.285 2.249 5.641-1.03 4.784-1.881-.492-2.036-.23-1.488 2.511.337 1.684.612 3.441.612 3.905 0 .464.613.608 1.361.321 1.8-.691 14.326 11.308 13.072 12.521-.513.496-3.633 1.806-6.933 2.912-7.729 2.589-4.081 2.743 5.022.212 4.362-1.213 7.334-1.588 7.928-1 .599.592.506.94-.25.94-.66 0-1.2.9-1.2 2 0 1.111.667 2 1.5 2 2.46 0 1.786 1.153-4.219 7.221-3.214 3.248-5.063 5.779-4.222 5.779.822 0 2.608-1.252 3.968-2.783 4.926-5.543 9.649-8.504 10.409-6.524.576 1.503.812 1.542 1.662.279.774-1.149.957-.924.836 1.028-.085 1.375-.071 2.725.032 3 .723 1.932 1.144 5.128 1.174 8.917.024 3.003.323 3.963.933 3 .493-.779.903-2.205.912-3.167.008-.962.417-1.75.908-1.75 1.074 0 2.107 2.463 2.107 5.025 0 1.024 1 2.562 2.223 3.418 1.222.856 1.784 1.571 1.25 1.589-.535.017-.221.604.699 1.303.92.699 1.82 2.822 2 4.718.213 2.236.85 3.447 1.814 3.447 2.727 0 2.093 2.943-1.937 9-2.196 3.3-4.005 6.715-4.021 7.589-.015.875-1.178 2.114-2.584 2.755-1.406.64-2.316 1.555-2.021 2.031.546.884-2.799 5.378-3.525 4.736-.219-.194-1.264.489-2.323 1.518-1.896 1.843-1.888 1.871.511 1.871 1.843 0 3.996-1.946 8.852-8 6.598-8.227 7.062-8.689 7.062-7.026 0 .994-12.346 16.707-14.555 18.526-2.116 1.742-2.175 3.95-.132 4.992 2.092 1.068 2.96 2.485 10.722 17.508 2.699 5.225 6.54 12.425 8.535 16 11.221 20.11 14.226 26.693 15.282 33.48.593 3.807.899 7.102.681 7.321-.219.218.449 2.04 1.484 4.048s2.343 4.889 2.907 6.401c.565 1.512 1.434 2.75 1.933 2.75.498 0 1.389 1.918 1.979 4.263.59 2.344 2.038 5.298 3.217 6.563 1.179 1.266 2.566 3.832 3.083 5.704.517 1.871 1.485 3.98 2.152 4.686.666.706 1.257 1.847 1.312 2.534.221 2.766.446 3.25 1.508 3.25.683 0 .868-.96.481-2.5-1.007-4.013.316-2.886 2.447 2.083 2.182 5.091 2.601 8.193.627 4.636-1.282-2.309-2.663-2.046-2.663.507 0 .797.493 1.087 1.155.679.715-.443.883-.275.44.44-.392.635-.293 1.155.221 1.155s1.267 1.462 1.673 3.25c.719 3.158.759 3.18 1.415.771.595-2.182 1.021-1.643 3.552 4.5 9.127 22.156 10.38 24.479 13.199 24.479 1.766 0 1.716-.353-.725-5.137-2.295-4.499-2.319-4.341.82-5.306 1.36-.418 2.25-.27 2.25.376 0 .587-.45 1.067-1 1.067s-1 .477-1 1.059.468.77 1.04.416c.675-.417.812.266.392 1.941-.357 1.421-.263 2.564.21 2.541 1.441-.073 7.805-4.205 14.092-9.15 5.805-4.567 11.266-7.019 11.266-5.06 0 1.74-10.509 10.694-15.917 13.563-6.237 3.307-6.23 4.774.008 1.76 5.183-2.504 4.834-2.498 4.199-.07-.795 3.038.179 2.527 8.09-4.25 14.479-12.403 22.866-19.284 25.716-21.098 1.597-1.017 2.927-2.367 2.955-3 .071-1.568 20.172-17.921 22.438-18.253.996-.146 2.159-.83 2.585-1.518.616-.997 1.095-.986 2.35.056 1.351 1.121 1.576 1.004 1.576-.815 0-1.167.337-2.049.75-1.961.412.089 2.017-.361 3.565-1 1.548-.638 3.256-1.161 3.794-1.161.538 0 .869-.562.734-1.25-.472-2.414 12.569-15.75 15.402-15.75.965 0 1.755-.675 1.755-1.5s.563-1.518 1.25-1.541c1.646-.053 8.538-5.959 6.955-5.959-4.84 0 15.71-14.182 25.545-17.629 3.656-1.282 5.25-2.377 5.25-3.606 0-.971.49-1.765 1.089-1.765.735 0 1.02 3.815.876 11.75-.238 13.201-.238 79.417.001 88.904.088 3.485-.312 6.442-.922 6.819-.592.366-.787 1.133-.434 1.705.633 1.024-4.118 5.822-5.766 5.822-.464 0-.844.702-.844 1.559s.443 1.285.985.95c.615-.38.744.594.344 2.597-.426 2.127-.288 2.987.41 2.555.578-.357 1.309.023 1.625.845.315.822 1.297 1.494 2.181 1.494 1.207 0 1.538.815 1.327 3.264-.155 1.796-.018 3.708.304 4.25 2.077 3.495-2.961 11.07-5.081 7.64-.919-1.488-9.143-2.682-9.947-1.445-.987 1.519-12.406 7.286-14.43 7.289-.98.001-3.455.706-5.5 1.567-2.045.86-4.956 1.604-6.468 1.652-1.513.048-2.75.419-2.75.824 0 .405-.562.674-1.25.598-1.817-.202-12.866 2.389-15.498 3.634-1.237.585-2.546.767-2.908.404-.363-.363-1.258-.163-1.989.444-.731.606-1.982.853-2.778.547-.797-.306-2.562.319-3.921 1.388S418.988 584 417.527 584c-1.462 0-3.416.388-4.343.862-2.992 1.53-7.406 2.306-6.709 1.178.948-1.533-.034-1.279-3.701.956-1.801 1.098-4.399 1.989-5.774 1.98-2.442-.016 2.283-2.854 17.5-10.509 2.75-1.384 7.455-4.08 10.456-5.991 5.486-3.496 7.689-4.329 6.544-2.476-.34.55-.254.998.191.996 1.398-.006 7.561-4.078 7.009-4.63-.29-.289-1.705.246-3.144 1.19-1.44.943-2.88 1.453-3.2 1.133-.32-.32.932-1.504 2.781-2.631 3.653-2.227 5.338-2.636 4.363-1.058-2.016 3.262 8.202-3.065 18.342-11.357 4.212-3.445 11.933-9.455 17.158-13.357 11.161-8.335 15.471-12.615 14.708-14.604-.303-.791-.047-1.943.57-2.56.829-.829.806-1.438-.087-2.331-.946-.946-2.461.011-6.95 4.395-17.217 16.808-77.784 56.789-80.174 52.923-.572-.927-1.022-.991-1.501-.216-.376.609-.457 1.474-.181 1.922.434.702-24.805 13.252-27.8 13.823-.597.114-5.49 1.135-10.875 2.27-5.384 1.135-10.784 2.047-12 2.027-3.107-.05-8.209.645-9.296 1.267-1.761 1.008-11.492.827-13.507-.252-1.483-.793-2.407-.78-3.408.051-.755.626-2.751.922-4.436.656-1.685-.265-3.063-.111-3.063.342 0 1.715-7.986 2.24-10.365.682-1.475-.967-2.807-1.189-3.717-.618-2.245 1.407-13.686.922-14.978-.635-.943-1.137-1.469-1.129-3.282.048-2.621 1.702-20.658 2.075-20.658.426 0-.575-1.012-.923-2.25-.774-3.228.388-6.444-1.641-13.13-8.285-3.233-3.214-6.174-5.843-6.534-5.843-.36 0-1.518-1.462-2.573-3.25s-3.739-5.156-5.965-7.485c-5.57-5.829-6.548-7.038-6.548-8.1 0-.506-.696-1.498-1.547-2.204-1.097-.91-1.215-1.49-.406-1.99.769-.475.001-2.295-2.361-5.588-4.975-6.938-10.023-20.375-18.14-48.288-.865-2.973-1.853-7.248-2.195-9.5-.343-2.252-.973-4.545-1.399-5.095-.426-.55-1.227-3.25-1.78-6-2.112-10.508-10.264-37.673-16.055-53.5-3.321-9.075-6.768-19.425-7.661-23-.893-3.575-2.236-6.981-2.984-7.569-.748-.588-4.597-6.888-8.553-14-3.956-7.112-8.503-14.897-10.103-17.301-1.601-2.403-2.685-4.594-2.411-4.869.275-.274-.154-1.153-.953-1.951-.798-.799-1.452-2.975-1.452-4.836 0-2.275-.819-4.202-2.5-5.883-2.603-2.603-3.335-4.225-1.354-3.001.817.505.939-.124.426-2.191-.396-1.594-1.111-3.041-1.59-3.214-.478-.173-.639-.915-.358-1.648.658-1.715-1.617-3.166-2.563-1.635-.4.647-1.472-1.56-2.428-4.999-.942-3.386-1.473-6.396-1.181-6.688.292-.292.154-1.022-.305-1.623-1.915-2.5-2.219-4.834-.547-4.192 1.191.457 1.46.199 1.011-.97-.336-.877-.611-1.768-.611-1.98 0-.213-.617-.15-1.371.139-.754.289-1.659-.225-2.011-1.143-.465-1.211-.226-1.51.87-1.089 1.879.721 1.326-5.89-1.2-14.357-5.373-18.004.431-47.958 13.294-68.606 8.917-14.313 16.885-20.513 30.582-23.796 8.341-2 8.822-1.992 8.899.152.049 1.341.275 1.224.968-.5.631-1.571 1.745-2.255 3.687-2.265 1.53-.009 2.332-.346 1.782-.75-1.077-.792-1.333-3.002-1.563-13.485-.103-4.718-.53-6.75-1.419-6.75-.899 0-1.173 1.396-.934 4.75.28 3.944.194 4.241-.505 1.75-1.133-4.036-1.227-16.691-.104-14 .459 1.1.604 3.013.322 4.25-.305 1.335-.042 2.25.646 2.25.766 0 1.084-1.867.937-5.5-.211-5.232-1.119-6.972-2.218-4.25-.301.747-.536.545-.583-.5-.043-.963.596-1.75 1.421-1.75.893 0 1.494-.91 1.485-2.25-.013-1.819-.201-1.963-.985-.75-.838 1.297-.971 1.275-.985-.167-.008-.916.547-1.856 1.235-2.087.927-.312.965-.786.146-1.833-.762-.976-1.051-11.687-.934-34.652.093-18.282-.163-33.778-.57-34.436-1.329-2.149-4.059.994-2.841 3.27 1.511 2.824.733 17.144-.962 17.709-.906.302-1.1.023-.574-.829.49-.792.395-1.037-.247-.641-1.363.843-2.492-3.51-1.235-4.767 1.524-1.524 1.133-2.423-.83-1.91-1.846.483-3.759-2.169-4.442-6.157-.238-1.389-1.018-1.927-2.552-1.762-1.215.131-2.209-.206-2.209-.75 0-.543.765-.988 1.7-.988 1.322 0 1.433-.267.5-1.2-1.906-1.906-1.518-4.843.55-4.155 1.157.385.867-.218-.857-1.781-3.688-3.344-7.073-9.72-6.358-11.975.347-1.091.122-1.889-.53-1.889-.622 0-.99-.879-.818-1.952.172-1.074-.57-2.601-1.649-3.392-1.67-1.225-1.763-1.68-.628-3.048 1.125-1.355 1.1-1.608-.158-1.608-1.498 0-1.799-13.286-.334-14.751 1.075-1.075.596-2.249-.918-2.249-1.006 0-1.5-1.007-1.5-3.059 0-1.874.405-2.809 1.046-2.413.706.437.834-.95.395-4.263-.616-4.64-.476-5.057 2.53-7.588 3.45-2.902 6.463-3.438 7.729-1.373.44.717 2.938 2.818 5.55 4.669 2.613 1.851 4.75 3.679 4.75 4.061 0 .935 8.979 4.321 9.658 3.642.295-.295-1.42-1.528-3.811-2.739-5.643-2.86-12-7.88-11.337-8.953.286-.463-.464-.986-1.667-1.163-3.429-.504-3.232-2.405.375-3.614l3.282-1.1-4.028.143c-5.032.178-6.015-.433-8.486-5.278-4.21-8.251-2.275-17.001 5.168-23.372L176.36 0h-3.722c-2.333 0-4.518.742-5.857 1.989-2.399 2.236-3.752 1.886-1.801-.465C166.112.161 157.481 0 83.122 0H0v324.502m.494.498c0 178.475.115 251.487.256 162.25.141-89.238.141-235.263 0-324.5C.609 73.512.494 146.525.494 325m160.3-308.75c-1.323 4.381-1.803 21.077-.639 22.239 1.083 1.082 7.819-3.854 7.833-5.739.006-.962-.332-1.75-.752-1.75-1.682 0-4.564-8.732-4.539-13.75.032-6.358-.242-6.502-1.903-1m84.429 22.307c-3.125 2.189-3.125 8.697 0 10.886 5.102 3.574 11.177.35 11.177-5.931 0-5.964-5.963-8.608-11.177-4.955m67.369 45.063c-.386 1.006-.036 2.365.835 3.235 1.333 1.333 1.571 1.314 2.143-.177.8-2.084 3.295-2.193 4.068-.178.317.825 1.251 1.5 2.076 1.5.85 0 1.275.586.981 1.352-.285.744 2.218 4.863 5.563 9.153l6.083 7.8 2.442-2.902a527.362 527.362 0 0 1 4.985-5.818l2.542-2.916-2.405-1.834a144.86 144.86 0 0 1-3.655-2.874c-.909-.756-1.25-.62-1.25.5 0 2.169-2.684 1.912-5.278-.506-1.868-1.74-1.973-2.185-.709-2.984 1.238-.783 1.174-.943-.38-.956-1.454-.012-1.761.537-1.388 2.485.263 1.375.079 2.5-.409 2.5-.487 0-1.163-1.386-1.502-3.08-.478-2.391-1.036-2.97-2.493-2.589-1.032.27-2.487-.12-3.234-.867-.747-.747-2.202-1.322-3.233-1.278-1.031.045-2.603-.23-3.495-.61-1.061-.452-1.851-.092-2.287 1.044m115.723 56.679c-.281.455.303 1.726 1.297 2.825 1.176 1.299 1.439 2.239.752 2.687-.581.379-1.367 1.958-1.747 3.51-.85 3.472-3 3.018-3.441-.727-.233-1.974-.75-2.588-1.832-2.173-.829.319-2.756.579-4.283.579-2.551 0-3.122.789-7.063 9.75-2.359 5.363-7.86 17.175-12.225 26.25C392.26 198.619 387 210.332 387 211.441c0 .619 6.811-3.544 15.037-9.191 3.405-2.338 6.552-4.25 6.994-4.25.441 0 .952-.361 1.136-.802.183-.44 4.383-3.703 9.333-7.25 25.182-18.045 30.479-22.384 30.459-24.948-.017-2.168-.154-2.269-1.032-.762-1.858 3.188-4.564 3.94-8.404 2.336-3.945-1.648-4.81-5.491-2.055-9.133 2.238-2.958 1.833-3.751-1.566-3.071-3.888.777-7.902-.179-7.902-1.884 0-.975 1.453-1.165 5.863-.765 6.222.564 8.338-.568 6.101-3.265-.665-.801-.913-1.456-.551-1.456.361 0 .16-.929-.448-2.065-.847-1.583-1.417-1.805-2.446-.951-.925.768-1.542.788-1.989.065-.356-.577.054-1.049.911-1.049s1.559-.63 1.559-1.399c0-1.559-8.796-2.741-9.685-1.302m18.167 33.353c-2.19 1.459-11.407 7.913-20.482 14.342s-21 14.833-26.5 18.676c-9.414 6.578-9.99 7.181-9.837 10.298.097 1.987 1.112 4.261 2.536 5.685l2.373 2.374 13.153-6.014c7.235-3.307 13.766-6.013 14.514-6.013.749 0 1.788-.411 2.311-.914.522-.503 6.35-2.987 12.95-5.519 15.374-5.9 21.012-8.633 19.606-9.502-.611-.377-.944-2.121-.74-3.876.352-3.022.197-3.189-2.962-3.189-3.893 0-5.801-2.571-4.817-6.492.367-1.463.115-3.163-.598-4.021-.959-1.156-.963-1.487-.019-1.487 2.831 0 5.854-3.52 4.552-5.301-1.57-2.147-1.327-2.186-6.04.953M427.5 213.137c-25.262 10.794-30.5 13.289-30.5 14.53 0 .912-.753 1.194-2.25.842-2.647-.622-4.015.165-5.635 3.241-1.145 2.173-1.034 2.25 3.244 2.25 14.126 0 55.689-5.706 57.338-7.871.682-.896 1.254-1.261 1.271-.811.051 1.305 6.032-3.323 6.032-4.667 0-.667-1.354-1.723-3.008-2.348-2.192-.827-3.179-1.986-3.635-4.268-.624-3.122-.645-3.131-6.742-2.974-3.363.088-6.79-.083-7.615-.378-.825-.295-4.65.809-8.5 2.454m14 17.457c-6.05.63-19.271 2.104-29.379 3.276-10.109 1.171-18.546 2.13-18.75 2.13-1.231 0-.068 2.878 1.379 3.411.962.354 3.325 1.51 5.25 2.568 1.925 1.059 4.568 1.947 5.872 1.973 1.927.039 2.153.313 1.202 1.459-.644.776-.812 1.627-.373 1.892 4.358 2.625 10.378 5.697 11.165 5.697.539 0 2.36 1.38 4.046 3.066 1.686 1.686 3.521 2.785 4.077 2.441.556-.344 1.011.028 1.011.827 0 .799.563 1.676 1.25 1.95.688.274 4.341 2.791 8.118 5.593 3.777 2.803 7.202 4.889 7.61 4.636.409-.252 2.362 1.345 4.34 3.549 3.141 3.498 3.843 3.854 5.526 2.803 1.883-1.176 2.445-6.909.835-8.519-.356-.357.049-1.158.901-1.781 1.376-1.006 1.318-1.425-.516-3.756-2.403-3.056-2.683-7.467-.619-9.748.794-.878 1.713-3.121 2.041-4.984l.597-3.387-11.628.665c-9.134.521-11.538.394-11.211-.596.277-.836 3.889-1.509 10.747-2.003 5.681-.409 10.475-.888 10.652-1.066.177-.177-.219-1.755-.88-3.506-.893-2.367-.919-3.932-.101-6.099 1.439-3.812.761-3.94-13.162-2.491M238.141 260.75c-.135 4.075-1.418 5.628-2.479 3-.277-.687-.54 1.168-.583 4.122-.067 4.574.136 5.195 1.365 4.175 1.184-.983 1.415-.821 1.285.902-.095 1.263-.671 1.904-1.444 1.607-1.2-.461-1.746 1.222-1.36 4.194.09.688-.645 1.282-1.631 1.32-1.451.057-1.507.201-.293.75 4.966 2.248 5.999 4.384 5.999 12.402V301l-4.25.157c-7.784.286-9.78.539-10.518 1.332-1.057 1.135 16.069-.39 17.212-1.533.608-.608.519-.956-.244-.956-.88 0-1.226-4.333-1.299-16.25-.096-15.776-1.424-33.135-1.76-23M157.5 281.227c-13.45 4.795-21.41 19.695-18.53 34.687 1.17 6.088 6.496 18.086 8.029 18.086 1.376 0 1.376-.001-1.981-6.09-1.64-2.976-2.99-6.422-3-7.66-.01-1.238-.376-2.25-.814-2.25-1.404 0-.536-16.313 1.072-20.14 3.768-8.966 11.098-14.387 22.174-16.399l7.05-1.281-5.5-.011c-3.025-.006-6.85.47-8.5 1.058" fill="#d3d3d3" fill-rule="evenodd"/></svg>