<svg xmlns="http://www.w3.org/2000/svg" width="500" height="370"><path d="M0 185v185l77.75-.014c78.662-.013 83.112-.147 80.974-2.437-.641-.685-1.966-1.037-2.944-.781-.979.256-1.78-.037-1.78-.651 0-.615-.482-1.117-1.071-1.117-1.371 0-3.353-2.004-4.204-4.25-.396-1.046-1.705-1.75-3.253-1.75-1.61 0-2.336-.411-1.918-1.087.369-.598 1.521-.865 2.559-.594 1.183.31 1.887-.026 1.887-.901 0-.799-.962-1.369-2.25-1.333-1.238.034-3.15-.161-4.25-.435-1.1-.273-2.589-.531-3.309-.573-.72-.043-1.031-.527-.691-1.077.34-.55.156-1-.41-1-.565 0-.768-.675-.452-1.5.317-.825.078-1.5-.531-1.5s-.994-.563-.857-1.25c.145-.727-.71-1.215-2.043-1.166-1.522.056-2.121-.365-1.782-1.25.284-.739-.143-1.334-.956-1.334-.808 0-1.469.858-1.469 1.906 0 1.649-.317 1.756-2.355.795-1.295-.612-2.307-1.796-2.25-2.632.058-.836-.532-1.532-1.312-1.545-.779-.013-1.614-.617-1.855-1.341-.333-.997.984-1.292 5.416-1.212 9.522.171 74.767-1.091 75.856-1.467.55-.191-18.208-.382-41.685-.425-41.745-.077-52.045-.771-46.315-3.119 1.569-.643 1.643-.835.344-.89-1.153-.049-1.498-.679-1.134-2.07.461-1.762 1.371-2.002 7.657-2.015 9.751-.021 10.119-.361 9.857-9.082-.12-3.963.253-7.773.828-8.465.73-.881.715-1.464-.052-1.938-.792-.489-.782-1.057.034-2.041.622-.75.976-2.167.787-3.149-.46-2.39 2.622-5.317 6.816-6.475 1.878-.519 3.159-1.356 2.848-1.86-.312-.504.582-1.205 1.987-1.557 1.404-.353 2.885-1.154 3.291-1.78 1.061-1.638 10.641-6.73 21.987-11.687 2.888-1.261 5.25-2.666 5.25-3.122 0-.456.9-.829 2-.829s2-.498 2-1.107.661-.853 1.468-.544c.807.31 1.738.126 2.069-.409.331-.535.989-.733 1.463-.44.474.293 1.144.075 1.49-.484.345-.559 1.726-1.016 3.069-1.016 1.581 0 2.441-.569 2.441-1.617 0-1.143.607-1.458 2.074-1.074 1.279.335 2.797-.18 3.959-1.342 4.36-4.36 15.535-7.942 24.901-7.982 2.653-.012 3.182-.261 2.066-.973-1.364-.871-4.504-.779-16.604.482-3.954.412-4.086.334-3.609-2.158.412-2.155.645-2.315 1.403-.961 1.256 2.244 2.81 2.037 2.81-.375 0-1.111-.667-2-1.5-2-.825 0-1.5-.45-1.5-1s.45-1 1-1 1.032-.787 1.07-1.75c.062-1.531.165-1.508.825.177.725 1.851.783 1.854 1.464.08.426-1.111.197-2.172-.575-2.662-.925-.586-.949-.819-.086-.83.898-.011.935-.77.148-3.026-.79-2.266-.631-5.288.64-12.204.929-5.056 1.775-14.476 1.879-20.933.206-12.698.584-14.184 2.636-10.35 1.664 3.109 2.972 3.248 2.331.248-.425-1.989-.212-1.906 1.835.716 4.099 5.252 16.024 18.95 18.972 21.793 2.909 2.804 3.669 4.741 1.861 4.741-.55 0-.964.787-.921 1.75.047 1.045.282 1.247.583.5.789-1.953 3.338-1.465 3.338.639 0 1.039.563 1.868 1.25 1.842 3.844-.142 4.75.386 4.75 2.769 0 2.231.935 2.984 3.25 2.618.412-.065.75.515.75 1.288 0 .929.701 1.223 2.066.866 1.463-.382 1.755-.851 1-1.606-1.884-1.884-1.154-3.666 1.501-3.666 2.127 0 2.457-.349 1.922-2.035-.4-1.26.16-3.401 1.473-5.626 2.682-4.544 1.848-5.489-1.777-2.016-3.225 3.089-5.679 3.431-6.649.927-.639-1.648-.752-1.65-1.94-.038-1.139 1.547-1.468 1.566-3.428.193-1.192-.835-2.168-1.943-2.168-2.462 0-1.482-3.841-4.943-5.487-4.943-1.801 0-6.99-5.441-12.749-13.37-2.345-3.228-5.942-7.934-7.994-10.457l-3.729-4.587 2.229-2.43c1.56-1.7 1.853-2.565.974-2.879-.691-.246-1.002-.859-.691-1.362.311-.503-.163-.915-1.053-.915-.89 0-1.328-.47-.973-1.044.355-.574.101-1.699-.563-2.5-1.652-1.99-4.964-1.859-4.964.197 0 1.305-.433 1.154-2.056-.717-1.95-2.249-1.963-2.412-.25-3.174 1.514-.673 1.46-.739-.34-.403-1.535.286-2.53-.348-3.498-2.23-.744-1.446-1.804-2.96-2.354-3.364-.622-.456-.528-.74.248-.75.688-.008 1.25-.742 1.25-1.632 0-1.124-.609-1.457-1.999-1.094-1.099.288-2.251.115-2.559-.383-.308-.498-.104-.906.454-.906.557 0 .021-1.082-1.191-2.405-3.632-3.961-4.705-5.456-4.705-6.553 0-.573-.338-1.079-.75-1.125-.412-.046-1.687-.19-2.831-.321-3.346-.381-13.419-8.304-13.419-10.554 0-.573-.689-1.042-1.531-1.042-.843 0-1.784-.658-2.093-1.462-.308-.804-1.307-1.701-2.218-1.993-.912-.292-2.989-2.671-4.615-5.288-1.626-2.616-3.284-4.99-3.685-5.276-.4-.285-.89-1.731-1.088-3.212-.199-1.481-.678-3.01-1.066-3.398-1.026-1.026-.863-7.371.189-7.371.491 0 1.177.739 1.524 1.643.346.904.909 1.365 1.249 1.024.34-.34.083-1.264-.572-2.054-.826-.995-.865-1.637-.126-2.093.585-.362.825-1.046.532-1.521-.294-.474.407-1.521 1.557-2.326 1.358-.951 1.702-1.704.982-2.149-.61-.377-3.078-4.811-5.486-9.854l-4.378-9.17 3.163-2.709c1.739-1.491 3.869-2.728 4.734-2.75.864-.023 3.339-1.378 5.5-3.013 2.16-1.635 4.48-2.985 5.154-3 .674-.015 2.689-.918 4.478-2.006l3.252-1.977-3.226.227c-1.875.133-3.227.776-3.228 1.537-.001.72-.378 1.077-.838.792-1.089-.673-12.747 4.849-16.87 7.99-3.037 2.315-3.257 2.347-4.188.607-1.099-2.053-.988-3.995.349-6.139.581-.931.483-1.58-.278-1.833-2.513-.838-.993-3.198 2.698-4.192 3.179-.856 3.875-1.49 3.875-3.527 0-2.572-.439-2.625-7-.847-2.164.587-2.283-.973-.206-2.697 1.059-.878 1.348-2.176.921-4.122-.495-2.253-.272-2.841 1.078-2.841 1.399 0 1.481.267.457 1.5-1.571 1.893-1.077 1.884 2.806-.053 3.931-1.961 10.947-1.06 9.098 1.169-.767.924-.796 1.384-.085 1.384.584 0 1.341-.45 1.681-1 .34-.55 2.267-1 4.282-1 3.357 0 3.498-.109 1.691-1.31-1.085-.72-3.289-1.397-4.898-1.503-1.609-.106-3.669-.867-4.579-1.69-.909-.823-2.132-1.497-2.718-1.497-.585 0-1.304-.625-1.597-1.389-.96-2.502-7.121-.509-7.494 2.425-.488 3.849-4.757 6.532-7.801 4.903-1.606-.86-2.031-1.54-1.259-2.017 1.223-.756.493-4.033-.849-3.813-3.076.505-4.47-.172-3.289-1.596.679-.818.974-2.168.654-3-.738-1.924.281-4.678 1.462-3.948 1.87 1.155 2.815-.646 1.664-3.172-.93-2.042-.874-2.714.288-3.449.997-.631 1.056-.918.193-.929-.687-.008-1.25-.69-1.25-1.515s-.643-1.5-1.429-1.5c-.785 0-2.033-.604-2.771-1.343-2.429-2.429-14.168-5.868-21.3-6.239-16.199-.843-23.613-1.669-24.77-2.759-1.598-1.505-7.701-3.631-10.801-3.761-1.934-.082-1.715-.291 1.071-1.026 6.175-1.63 11.224-3.709 9.25-3.809-1.547-.078-1.222-2.012.679-4.039 1.257-1.34 1.076-1.6-1.5-2.156l-2.929-.631 3.12-.119c2.262-.085 3.118-.599 3.113-1.868-.014-3.535.299-4.175 1.767-3.612.929.357 1.5-.004 1.5-.948 0-.838-.563-1.75-1.25-2.028-.687-.277-.211-.54 1.059-.583C98.079 2.036 98.84 1.55 98.5 1c-.398-.645-18.01-1-49.559-1H0v185M392 1c-1.609.515-1.887.836-.781.9 1.149.067 1.515.631 1.104 1.701-.338.88.014 2.014.781 2.519 1.16.763 1.095 1.148-.383 2.281-1.586 1.214-1.607 1.429-.187 1.974.876.336 1.313 1.064.97 1.618-.367.594.657 1.007 2.496 1.007 1.824 0 2.862.415 2.5 1-.34.55-.029 1.032.691 1.07.72.039.409.457-.691.93-1.1.473-1.405.891-.679.93.727.038 1.997.745 2.822 1.57 1.333 1.333 1.081 1.5-2.272 1.5-4.038 0-3.624 1.955.48 2.264 1.182.089 2.149.567 2.149 1.062 0 .496-1.35.703-3 .461-3.435-.504-3.614-.258-1.411 1.945 2.283 2.283.254 3.15-7.902 3.374-3.645.1-6.389.568-6.098 1.038.291.471-7.148.912-16.53.981-9.382.069-17.509.238-18.059.375a21.06 21.06 0 0 1-1.969.375c-.532.069-.71.798-.394 1.621.467 1.217-.053 1.374-2.782.842-1.845-.36-3.505-1.034-3.688-1.497-.184-.462-1.084-.834-2-.826-1.442.014-1.464.147-.167.985 1.219.788 1.09.972-.691.985-1.205.008-2.469.465-2.809 1.015-.34.55-.194 1 .324 1 .993 0 2.482 3.702 2.267 5.636-.07.625.557 1.399 1.391 1.719 2.074.796 1.918 2.627-.232 2.724-1.045.047-1.247.282-.5.583 2.193.885 1.489 3.549-.75 2.838-1.147-.364-2-.18-2 .433 0 .587-.649 1.067-1.443 1.067-.896 0-1.299.745-1.063 1.967.299 1.554-.289 2.065-2.808 2.439-15.8 2.346-19.383 2.988-20.686 3.707-2.253 1.241 1.867 1.057 13.489-.604 9.872-1.411 14.511-1.198 14.511.667 0 .527.911.67 2.025.316 2.058-.653 2.48 1.279.581 2.656-.492.357.016 2.157 1.13 4 1.113 1.844 1.872 4.027 1.687 4.852-.186.825-.781 3.3-1.324 5.5-.542 2.2-1.238 5.21-1.546 6.69l-.561 2.69-3.246-2.965c-3.455-3.157-11.866-7.917-13.978-7.911-.697.002.194.895 1.982 1.985 3.115 1.9 4.596 4.66 2 3.729-.687-.246-2.001-.062-2.92.409-1.08.555-5.053-.093-11.25-1.835-9.361-2.631-9.583-2.763-9.698-5.742l-.119-3.05-.641 3c-.353 1.65-1.2 2.955-1.882 2.9-.682-.055-2.815-.167-4.74-.25-3.263-.14-3.5-.374-3.5-3.45 0-1.815.54-3.84 1.2-4.5.933-.933.933-1.2 0-1.2-1.928 0-1.431-4.793.55-5.311 1.087-.284.717-.501-.975-.573-2.496-.106-2.676.13-2.139 2.812.544 2.721.347 2.958-2.775 3.34l-3.361.412 3.25.16c3.326.164 3.702.87 2.62 4.91-.567 2.113-1.129 2.25-9.237 2.251-4.748.001-11.895.624-15.883 1.384-7.351 1.402-9.125.759-5.5-1.993 1.667-1.265 1.667-1.33 0-1.36-1.271-.023-1.75-.854-1.75-3.032 0-1.65-.397-3-.882-3s-.948 3.914-1.03 8.697c-.081 4.783-.247 8.791-.368 8.906-.121.116-3.023-1.435-6.449-3.446-5.171-3.035-6.233-4.114-6.25-6.348-.012-1.48-.537-3.01-1.167-3.399-.813-.503-.942.105-.442 2.096.449 1.786.272 3.071-.486 3.54-.8.494-.246 1.33 1.692 2.551 1.585.998 4.007 2.666 5.382 3.705l2.5 1.89-3.306-.518c-1.818-.284-4.33-1.188-5.582-2.008-1.348-.884-2.817-1.158-3.603-.671-.73.451-2.005.56-2.832.243-.863-.331-1.241-.151-.887.423.34.55 3.227 1.58 6.414 2.288 12.302 2.732 16.159 4.761 16.844 8.86.999 5.99 1.394 6.049 1.26.191-.069-3.025-.375-5.95-.68-6.499-.57-1.029-.233-6.696.44-7.39.208-.215 2.003.85 3.989 2.365 2.657 2.027 3.907 2.46 4.728 1.639.82-.82.732-1.121-.335-1.137-.798-.012-2.532-.854-3.854-1.871l-2.404-1.848 6.486-1.13c3.567-.621 10.161-1.129 14.654-1.129 8.046 0 8.168.037 8.168 2.5 0 1.486-.573 2.5-1.411 2.5-.776 0-2.547 1.35-3.935 3-2.21 2.626-2.853 2.875-5.154 2-1.447-.55-3.388-.964-4.315-.921-.927.043.228.756 2.565 1.583 3.435 1.216 4.25 1.975 4.25 3.957 0 5.845 6.458 10.97 11.868 9.419 1.87-.536 3.333-.522 3.678.036 1.252 2.026 3.454.868 3.468-1.824.031-6.22.859-7.249 5.853-7.265 2.548-.009 5.308-.452 6.133-.985 1.065-.688-.156-.974-4.215-.985-6.621-.017-7.79-1.243-7.025-7.359.444-3.553.679-3.799 3.11-3.258 1.447.321 4.78 1.029 7.407 1.572 5.315 1.1 8.723 2.651 8.723 3.972 0 .479.903.635 2.007.346 2.022-.529 8.471 1.567 7.576 2.463-.265.264-1.967.838-3.782 1.274-2.57.617-1.706.786 3.9.759 5.762-.028 7.297-.36 7.682-1.66.265-.893.236.514-.064 3.126-.797 6.93.102 5.85 3.08-3.702 1.45-4.648 3.154-8.772 3.788-9.164.798-.493.925-.123.413 1.202-.917 2.371-1.843 8.385-1.026 6.664 1.664-3.508 2.557-.254 1.302 4.75-.244.974.238 1.397 1.374 1.206.962-.161 1.757.289 1.765 1 .011.921.295.862.985-.206.533-.825 1.011-1.05 1.061-.5.051.55.246 1.81.434 2.799.257 1.349-.201 1.724-1.826 1.5-2.234-.308-2.695 3.259-.524 4.052.528.193.15.966-.842 1.718-1.707 1.295-1.69 1.369.308 1.399 1.708.026 2.02.51 1.634 2.532-.263 1.375-.059 2.5.453 2.5.513 0 .903 3.374.867 7.499-.036 4.124-.429 7.499-.874 7.5-.445 0-.55.42-.234.932.317.512.118 1.213-.441 1.559-1.577.974-1.207 6.223.484 6.872 2.464.945 1.697 2.398-.994 1.884-2.273-.435-2.462-.206-2.137 2.584.225 1.932-.147 3.254-1.006 3.584-.75.288-1.363 1.423-1.363 2.523 0 1.453-.479 1.846-1.75 1.437-1.018-.327-1.332-.209-.75.282 1.327 1.12 1.839 6.344.621 6.344-.525 0-1.181-.563-1.459-1.25-.277-.687-.54-.286-.583.893-.043 1.179.596 2.402 1.421 2.719.825.316 1.5 1.094 1.5 1.729 0 .831-.419.806-1.5-.091-1.118-.928-1.5-.944-1.5-.063 0 .649-.45.903-1 .563-.558-.345-1.055.513-1.125 1.941-.228 4.665-.407 5.061-2.147 4.765-1.317-.224-1.728.417-1.728 2.691 0 2.848-1.955 5.636-2.042 2.912-.023-.72-.904.266-1.958 2.191-1.054 1.925-1.935 3.155-1.958 2.734-.023-.421-1.353.702-2.955 2.495-1.942 2.173-2.535 3.494-1.779 3.961.624.386.748 1.063.276 1.506-.472.442-1.059.242-1.304-.446-.246-.688-1.197-1.236-2.113-1.218-1.489.028-1.474.178.143 1.404 1.144.867 1.42 1.613.75 2.027-.583.36-1.06 1.105-1.06 1.655s.45.722 1 .382c2.483-1.535.659 3.743-2.317 6.702-4.189 4.166-8.019 10.445-7.19 11.787.349.565.043 1.682-.679 2.484-3.007 3.336-3.814 4.497-3.814 5.485 0 .573-.419 1.042-.93 1.042-.512 0-1.075 1.012-1.25 2.25-.231 1.624-1.015 2.269-2.82 2.319-1.375.037-3.175.355-4 .707-.825.351-2.85.792-4.5.98-2.517.288-2.204.479 1.945 1.186 5.772.985 7.438 2.223 6.768 5.028-.396 1.659-.241 1.801.851.78 1.609-1.505 2.936-1.618 2.936-.25 0 .55-.562 1.014-1.25 1.031-1.571.04-5.037 4.696-4.338 5.827.286.462-.568 1.423-1.898 2.135-2.376 1.271-4.914 6.274-3.766 7.422.322.322-.405.585-1.617.585-1.914 0-2.057.269-1.097 2.064.812 1.517.803 2.428-.034 3.436-.821.989-.84 1.93-.069 3.37 1.555 2.907 1.325 4.442-.558 3.72-.973-.374-2.147.086-2.918 1.141-.71.971-1.653 1.405-2.094.963-.442-.441-.216-1.166.502-1.61.982-.606.83-.931-.612-1.308-2.241-.586-2.006.845-3.08-18.776-.599-10.939-.528-15.716.24-16.235.745-.502.694-.739-.161-.75-.833-.01-1.25-1.701-1.25-5.068 0-4.62.463-5.628 5.397-11.75C295.19 191.286 302.409 180 300.594 180c-.223 0-3.613 4.492-7.533 9.983-7.361 10.31-23.016 27.475-23.045 25.267-.009-.687-.691-1.25-1.516-1.25-.825 0-1.447.338-1.382.75.34 2.151-.242 4.25-1.177 4.25-.582 0-.781-.45-.441-1 .351-.567-.49-1-1.941-1-1.407 0-2.559-.527-2.559-1.171s-.778-2.031-1.729-3.082c-1.639-1.811-1.639-1.961 0-2.879 2.568-1.437 2.097-3.151-1.413-5.149-3.926-2.235-3.703-2.422 3.642-3.03 3.3-.274 6.225-.557 6.5-.629.275-.072-.624-.753-1.997-1.513-1.784-.987-2.862-1.079-3.774-.322-2.057 1.707-2.143 1.094-2.691-19.278-1.18-43.853-2.532-77.272-3.15-77.841-.361-.333-.368 10.644-.016 24.394.352 13.75.68 35.575.729 48.5l.089 23.5-2.595 1.305c-3.2 1.608-3.39 4.72-.345 5.646 1.363.414 1.757.887 1 1.2-1.804.744-1.537 2.994.602 5.06 2.272 2.195 3.413 6.244 1.804 6.404-2.766.276-3.173.439-3.465 1.385-.433 1.401 3.647 2.287 7.809 1.696l3.5-.497-1.905 2.151c-1.048 1.182-1.455 2.15-.905 2.15s1.765-.846 2.701-1.88c.936-1.033 3.593-2.216 5.905-2.627 3.496-.622 3.815-.852 1.898-1.37-2.278-.616-2.264-.663 1.137-3.96 3.804-3.686 4.542-3.36 4.168 1.837-.139 1.925.254 4.136.874 4.913.768.962.792 1.525.076 1.767-.679.229-.81 2.381-.369 6.087.374 3.153.537 12.144.361 19.979l-.319 14.246 2.386.599c3.286.825 5.896 4.829 4.113 6.309-.718.595-1.601.787-1.963.425-.362-.362-.658-.119-.658.54 0 1.603 3.279 2.798 3.755 1.369.249-.745 1.412-.495 3.441.739 1.686 1.025 3.681 1.628 4.435 1.339.753-.29 1.369-.014 1.369.612 0 .627-.648 1.387-1.44 1.691-1.162.446-1.222 1.069-.31 3.219 1.714 4.044 2.495 4.622 4.261 3.157 3.514-2.916 18.134-.222 17.85 3.29-.171 2.113 2.483 2.29 3.277.219.862-2.246 2.676-1.809 2.072.5-.384 1.47-.03 2 1.337 2 4.376 0 9.913 3.77 7.65 5.208-.904.575-.882.765.088.777 1.452.017 6.333-2.906 7.45-4.462.431-.601.741-.347.75.614.018 1.962 6.119 3.212 7.25 1.486.444-.68.746-.333.765.877.025 1.659.196 1.744 1 .5.771-1.193.973-.999.985.95.01 1.713-.301 2.134-1.036 1.399-.579-.579-2.171-.838-3.539-.577l-2.486.476 2.569 1.333c1.413.733 3.189 1.094 3.948.803.811-.311 1.649.324 2.036 1.544.641 2.019 1.626 2.5 4.361 2.127.951-.13 1.135.485.637 2.131-.571 1.889-.459 2.084.613 1.064 1.556-1.482 5.305-1.695 4.412-.25-.34.55-.141 1 .441 1s1.059-.477 1.059-1.059.521-.737 1.158-.344c.793.491.98.037.593-1.441-.389-1.488-.107-2.156.91-2.156 1.019 0 1.278.618.839 2-.349 1.1-.192 2 .349 2 .542 0 1.165-.542 1.386-1.205.421-1.262 8.507-2.022 9.221-.866.771 1.248-1.129 3.171-3.296 3.334-1.188.089-2.16.817-2.16 1.616 0 .8.304 1.15.676.779.372-.372 1.664.252 2.872 1.387 1.961 1.843 2.264 1.887 2.827.419.348-.904.378-2.054.069-2.554-.845-1.368.337-1.1 3.083.699 2.419 1.586 2.565 3.747.191 2.836-1.019-.391-1.468 9.845-.778 17.748.033.381.96.519 2.06.307 1.12-.216 2 .153 2 .838 0 .87-3.092 1.303-10.728 1.503-5.901.154-10.964.642-11.25 1.085-.287.442-1.541 1.122-2.787 1.511-1.245.389-2.04 1.07-1.766 1.513.931 1.506-4.93 1.815-27.719 1.459-14.324-.224-22.75.005-22.75.618 0 .601 8.466.973 22.171.973 23.387 0 26.677.626 25.087 4.771-.518 1.349-.719 1.298-1.363-.344-.66-1.685-.763-1.708-.825-.177-.038.962-.478 1.75-.976 1.75-.499 0-.668 1.013-.375 2.25.483 2.046.406 2.096-.844.55-1.218-1.505-1.661-1.538-3.875-.285l-2.5 1.414 3 .177c2.675.159 2.567.255-1 .894l-4 .716 3.5.232 3.5.232-3.435.987c-2.614.75-3.092 1.203-2 1.894.947.599-1.116.978-6.065 1.113-7.061.192-7.162.225-1.722.566 3.307.207 5.526.767 5.191 1.311-.323.522-.095.949.507.949.759 0 .788.573.094 1.869-.55 1.027-.715 2.152-.368 2.5.347.347.219.681-.285.743-6.061.739-7.417.733-7.417-.031 0-.491-1.575-.41-3.5.18-3.231.992-4.826 2.739-2.5 2.739.55 0 1 .499 1 1.108 0 .683-.96.868-2.5.481-1.442-.361-2.5-.196-2.5.392 0 .585 2.446.977 5.75.919 4.388-.076 5.158-.289 3.25-.9-2.35-.753-2.302-.807.809-.9 1.972-.06 3.059.304 2.691.9-.41.664 27.156 1 81.941 1H500V0l-52.75.1C418.238.155 393.375.56 392 1M176.413 31.633c.488 1.274-.895 1.239-8.102-.203-1.204-.24-2.436-.037-2.739.453-1.141 1.847 2.583 3.312 8.82 3.471 7.884.201 9.002 1.111 5.147 4.191-1.628 1.302-2.697 2.63-2.375 2.952.321.322 1.944-.558 3.605-1.956S184.313 38 184.953 38c.641 0 .887-.449.548-.998-.339-.549.084-1.999.941-3.223 2.082-2.972 1.965-3.779-.549-3.779-1.462 0-1.931.459-1.531 1.5.612 1.596-.87 2.106-1.791.615-.941-1.522-6.731-1.975-6.158-.482M196 80.147c-1.925.546-4.77 1.144-6.322 1.328-1.552.185-3.127.663-3.5 1.063-.373.4 2.247.357 5.822-.096 6.234-.789 10.262-.937 16.28-.598l2.78.156-2.28 3.084c-5.727 7.747-1.26 17.073 8.026 16.756 3.978-.136 4.169-.224 1.252-.578-1.893-.229-4.368-1.085-5.5-1.902-1.936-1.396-1.849-1.447 1.452-.856 1.931.346 4.715.171 6.187-.389 2.217-.843 2.731-.727 3.001.673.283 1.469.621 1.393 2.6-.586 1.251-1.251 1.965-2.777 1.586-3.39-.469-.759-1.075-.587-1.897.537-1.708 2.335-2.773 2.054-1.467-.387 2.236-4.177-2.616-9.962-8.355-9.962-1.858 0-2.691-.355-2.115-.903 4.11-3.906 12.45.674 12.45 6.837 0 1.136.45 2.066 1 2.066 1.486 0 1.211-3.692-.526-7.05-1.509-2.918-1.496-2.95 1.2-2.95 1.667 0 2.357-.354 1.776-.91-1.941-1.858-28.341-3.391-33.45-1.943m-62.264 12.451c-.329.329-.356 1.229-.06 2 .342.89-.14 1.408-1.319 1.417-1.565.013-1.621.168-.357.985.825.533 1.162.976.75.985-.412.008.15.915 1.25 2.015s2.007 2.787 2.015 3.75c.013 1.496.157 1.532.985.25.723-1.119.973-.569.985 2.167.008 2.016.578 3.893 1.265 4.171.759.306.575.535-.469.583-1.102.051-1.512.617-1.143 1.579.833 2.17 2.035 1.842 2.745-.75.506-1.845.787-1.985 1.564-.776.619.963.569 1.707-.146 2.149-1.705 1.054-.135 3.942 1.751 3.219 1.093-.42 1.474-1.424 1.162-3.06a4.43 4.43 0 0 1 1.325-4.109c1.617-1.51 1.666-2.161.507-6.673-2.092-8.144-2.702-9.5-4.27-9.5-.914 0-1.267.58-.914 1.5.316.825.139 1.5-.393 1.5-.533 0-.969-.498-.969-1.107s-.675-.848-1.5-.531c-.914.35-1.5.001-1.5-.893 0-1.456-2.115-2.021-3.264-.871m199.596 7.565c-1.16 2.385-2.41 6.052-2.777 8.147-1.175 6.704-8.471 27.786-12.5 36.121-4.24 8.77-5.981 13.738-4.231 12.069 3.098-2.955 14.652-32.063 17.663-44.5.866-3.575 2.286-8.148 3.156-10.163 2.306-5.338 1.174-6.784-1.311-1.674M144 127.167c0 1.008-.45 1.833-1 1.833s-1.007-.562-1.015-1.25c-.012-.981-.189-.976-.824.023-1.001 1.579-.257 7.227.952 7.227 1.087 0 .723 2.257-.509 3.149-.492.357-.581 1.469-.196 2.472.546 1.421.88 1.53 1.521.494.575-.93 1.026-.996 1.505-.222.376.609.095 1.139-.625 1.177-.72.039-.409.457.691.93 1.1.473 1.405.891.679.93-1.532.081-4.642 2.941-3.951 3.632.257.256 1.66-.473 3.119-1.621 1.459-1.147 2.653-1.641 2.653-1.097s-.562 1.216-1.25 1.494c-.687.277.014.54 1.559.583 1.856.052 2.567.471 2.096 1.234-.431.696-.276.883.39.472 1.208-.747 3.526 2.718 2.503 3.742-.347.347-.159.631.419.631.577 0 1.265 1.125 1.528 2.5.263 1.375.203 2.5-.134 2.5-.336 0-.568 1.462-.515 3.25.096 3.26 2.011 4.431 3.732 2.283.466-.58.631.197.378 1.775-.33 2.057-.092 2.67.89 2.294.737-.283 1.606-.084 1.931.442.325.526 1.395.956 2.378.956 3.166 0 8.04 2.981 7.438 4.548-.666 1.737-2.027 1.9-2.558.307-.21-.63-.94.72-1.623 3-.683 2.28-1.851 4.145-2.595 4.145-1.67 0-2.836 2.716-1.516 3.531.53.328 1.233-.108 1.563-.968.79-2.057 3.386-2.017 3.386.054 0 1.144.607 1.458 2.079 1.073 1.518-.397 1.931-.159 1.531.883-.366.954.141 1.427 1.528 1.427 1.381 0 1.894.475 1.532 1.417-.299.78.124 1.674.94 1.987.816.313 1.369 1.138 1.23 1.833-.362 1.794 1.056 6.763 1.929 6.763.402 0 .794-1.238.872-2.75.337-6.57.703-9.249 1.261-9.235 1.194.031 3.601 1.937 3.723 2.949.069.57.181 1.534.25 2.143.069.609.8.848 1.625.531.933-.358 1.5.007 1.5.965 0 .847.614 2.154 1.365 2.905 2.018 2.018 4.563-2.793 2.892-5.468-.947-1.516-.817-1.922.75-2.332 1.044-.272 2.138.019 2.433.648.295.629.29-.276-.01-2.011-.303-1.748-.075-3.446.511-3.809.583-.36 1.059.095 1.059 1.012 0 1.108.529 1.463 1.582 1.059.87-.334 1.77-.607 2-.607.23 0 .418-.675.418-1.5s-.436-1.5-.969-1.5c-.532 0-.72-.647-.417-1.437.318-.827 1.223-1.179 2.133-.83 1.087.417 1.342.22.816-.631-.421-.681-1.38-1.002-2.132-.714-.752.289-1.612.128-1.911-.356-.3-.484.147-1.027.991-1.206 2.681-.569-6.251-13.606-12.06-17.603-8.613-5.927-11.307-8.08-21.862-17.473-1.081-.963-2.631-1.75-3.444-1.75-.813 0-1.182-.296-.82-.658 1.104-1.104-1.368-3.263-3.014-2.631-1.201.461-1.392.118-.861-1.553.535-1.688.344-2.016-.896-1.54-1.152.442-1.409.168-.954-1.018.459-1.197.2-1.46-.989-1.004-.886.34-1.611.189-1.611-.336 0-1.488-3.626-5.301-4.352-4.575-.356.357-.648.198-.648-.352s-.675-1-1.5-1-1.5.825-1.5 1.834M171.442 157c.322 1.925 1.254 4 2.071 4.61.818.611 1.487 1.494 1.487 1.963 0 .468 1.106 1.769 2.458 2.889 1.352 1.121 2.728 3.388 3.057 5.038.593 2.971.586 2.977-.806.633-1.305-2.199-1.456-2.235-2.124-.5-.677 1.757-.777 1.764-1.702.117-1.211-2.158-4.061-2.377-3.245-.25.317.825 1.217 1.5 2.001 1.5.784 0 1.832 1.012 2.33 2.25.497 1.238.933 1.688.968 1 .122-2.422 2.063-1.217 2.063 1.281 0 4.384 5.992 4.057 9.718-.531 1.474-1.815 1.679-4.364.282-3.5-.55.34-1 .185-1-.343 0-.529-1.384-1.444-3.075-2.033-1.691-.59-2.848-1.44-2.57-1.889.957-1.549-2.563-7.235-4.48-7.235-2.016 0-2.584-1.597-.782-2.198.602-.2-.186-1.025-1.75-1.833s-3.438-2.144-4.165-2.969c-1.119-1.27-1.232-.963-.736 2m34.66 30.25c-.056.963-.552 1.75-1.102 1.75-1.958 0-2.516.183-3.797 1.247-1.063.882-1.063 1.225 0 1.899 1.012.642.967.827-.203.839-1.56.016-2.177 5.171-.785 6.563.393.393.258 1.569-.301 2.612-.893 1.67-.71 1.842 1.535 1.435 1.677-.304 2.551-.012 2.551.854 0 .842-1.128 1.26-3.127 1.16-2.631-.133-3.304-.708-4.25-3.633-.617-1.912-1.523-3.325-2.011-3.141-.489.185-1.226-.21-1.638-.878-.413-.667-1.273-.89-1.912-.495-.801.495-.477 1.31 1.041 2.628 1.212 1.05 1.737 1.91 1.167 1.91-.57 0-.913 1.463-.763 3.25l.399 4.75c.083 1.004.367 1.129.859.377.863-1.317 7.483-.587 6.666.735-.302.488-1.674.888-3.049.888-1.425 0-2.232.433-1.877 1.008.343.554 1.607.831 2.809.614 1.202-.216 2.721.182 3.376.886 1.338 1.438.716 2.585-1.038 1.913-1.048-.402-1.463 1.8-1.691 8.989-.034 1.051.462 2.234 1.102 2.629.848.524.794.87-.2 1.277-1.054.432-.923.912.578 2.121 1.068.86 1.405 1.563.75 1.563s-1.191.771-1.191 1.714c0 1.504.177 1.535 1.443.25 2.675-2.714 4.54-7.28 3.49-8.545-.681-.82-.47-1.383.685-1.826.917-.352 1.413-.895 1.101-1.207-.311-.312.074-2.383.857-4.602 1.795-5.086 1.786-19.295-.017-27.284-.745-3.3-1.4-5.213-1.457-4.25m56.829 117.333c-.76.915-.489 1.423 1.016 1.9 2.45.778 2.517 1.399.559 5.153-1.326 2.541-1.326 2.9 0 3.187 2.452.531 1.692 2.177-1.006 2.177-1.375 0-2.5.48-2.5 1.067 0 .589.841.801 1.876.472 1.325-.42 2.028-.016 2.392 1.377.405 1.551-.049 2.037-2.126 2.278l-2.642.306 2.75 2.43c1.512 1.337 2.75 3.025 2.75 3.75 0 .741 1.096 1.32 2.5 1.32 1.708 0 2.505-.554 2.515-1.75.011-1.278.234-1.406.825-.475 1.124 1.771 10.504 2.712 9.874.991-.255-.696.478-2.979 1.628-5.073 1.784-3.248 1.877-3.94.636-4.707-1.043-.644-1.786-.279-2.627 1.292-1.129 2.11-1.206 2.063-2.088-1.294-.809-3.075-.672-3.56 1.16-4.134 1.611-.505 1.691-.673.358-.75-1.089-.063-1.51-.643-1.15-1.582.912-2.375 4.369.066 4.369 3.085 0 2.077.359 2.418 2 1.897 1.392-.442 2-.18 2 .861 0 .823.686 2.182 1.524 3.02 1.364 1.365 1.304 1.641-.578 2.648-1.305.698-1.877 1.709-1.509 2.668.441 1.15.095 1.414-1.358 1.034-1.134-.297-2.173.072-2.483.88-.423 1.101.857 1.386 6.185 1.374 4.14-.01 6.198-.346 5.362-.875-.973-.617-1.143-1.815-.6-4.235.416-1.856.952-2.812 1.19-2.125.53 1.527 2.267 1.664 2.267.179 0-1.503-2.319-3.656-3.509-3.259-.545.181-.991-1.245-.991-3.17 0-2.832.382-3.501 2-3.504 1.549-.003 1.229-.474-1.418-2.087-1.88-1.146-3.005-2.382-2.5-2.746 3.155-2.278-.894-5.137-4.524-3.194-1.109.594-3.147.796-4.528.449-1.795-.45-2.687-.172-3.128.976-.339.883-1.229 1.606-1.978 1.606-.88 0-1.129-.619-.705-1.75.574-1.532.446-1.579-1.032-.378-.928.755-1.687 1.945-1.687 2.643 0 2.02-2.99 2.706-3.063.704-.045-1.21-.347-1.01-1.022.676-1.398 3.494-1.865 2.513-2.848-5.978-.124-1.075-3.087-.598-4.136.666" fill="#d3d3d3" fill-rule="evenodd"/></svg>