<svg xmlns="http://www.w3.org/2000/svg" width="500" height="196"><path d="M426.876 64.514c-3.238 1.75-7.244 9.885-6.441 13.083.512 2.039.139 2.383-3.178 2.934-9.097 1.512-14.707 4.583-30.536 16.714-2.079 1.593-5.791 3.582-8.25 4.42-2.459.838-4.471 1.931-4.471 2.429 0 1.828-2.64.701-8.5-3.627-5.623-4.154-15.535-9.422-20.716-11.011-5.227-1.603-6.391-4.894-2.284-6.456 5.356-2.036 1.523-14-4.485-14-6.295 0-8.402 4.857-5 11.529 2.78 5.453 2.023 6.853-3.277 6.061-4.222-.632-19.038 1.43-25.657 3.571-1.881.608-6.831 1.255-11 1.438-4.17.183-13.349.842-20.399 1.465-13.895 1.229-14.401 1.149-12.708-2.016 1.432-2.675.501-5.763-1.975-6.548-2.691-.854-7.223 1.771-11.141 6.452-3.034 3.625-4.276 4.248-12.858 6.448-5.225 1.34-14.371 4.133-20.324 6.207-8.585 2.99-10.994 3.497-11.642 2.449-.519-.841-2.651-1.281-5.855-1.209-2.771.063-6.758-.489-8.859-1.227-2.101-.737-6.52-1.663-9.82-2.057-14.098-1.684-20.718-6.342-18.513-13.024.625-1.894 2.009-3.72 3.075-4.059 3.387-1.075 2.395-4.546-2.883-10.092-.727-.763-2.839-1.388-4.694-1.388-6.356 0-8.657 7.63-3.978 13.19 2.435 2.894 2.551 5.582.178 4.116-2.77-1.713-12.099-2.117-24.717-1.073-10.641.882-14.486.851-18-.143-15.331-4.338-31.282-5.69-45.913-3.891-2.012.248-2.616-.286-3.415-3.02C57.219 77.314 52.807 73 49.254 73c-4.624 0-7.898 5.101-5.489 8.553C44.937 83.232 51.58 87 53.368 87c3.418 0 1.347 1.816-6.618 5.803-4.538 2.271-10.95 6.466-14.25 9.321-3.3 2.855-7.913 6.041-10.25 7.08-4 1.778-5.758 4.657-3 4.911 4.09.377 7.257-1.23 16.929-8.589 5.064-3.853 12.3-7.469 15.016-7.504.932-.012 3.45 2.429 5.596 5.425 3.687 5.15 3.933 5.957 4.493 14.75.358 5.615.11 12.103-.626 16.366-.67 3.885-.917 8.16-.549 9.5.861 3.135-.077 13.052-1.393 14.717-2.904 3.677-13.144 7.22-20.868 7.22-5.817 0-8.856.539-12.515 2.219l-4.833 2.22 48 .646c26.4.356 124.5.942 218 1.302 93.5.36 173.938.918 178.75 1.24 10.089.675 11.465-.534 4.167-3.663-4.038-1.73-6.923-1.964-24.267-1.964h-19.684l-.311-4.25c-.331-4.523-.343-5.769-.168-18.22.062-4.383-.664-12.826-1.613-18.762-1.913-11.962-1.211-21.094 2.167-28.212 2.54-5.354 3.031-5.309 15.196 1.388 6.051 3.331 11.524 6.056 12.162 6.056.639 0 3.921 1.161 7.293 2.581 4.426 1.863 7.061 2.407 9.47 1.955 4.487-.842 4.202-1.947-.912-3.539-2.337-.727-6.293-2.308-8.789-3.513-2.497-1.204-6.206-2.74-8.242-3.412-2.036-.672-6.293-3.107-9.461-5.413-3.167-2.305-6.883-4.94-8.258-5.856-1.375-.916-3.85-2.819-5.5-4.23-2.919-2.496-2.948-2.605-1.059-4.069 1.068-.827 2.928-1.504 4.134-1.504 1.454 0 2.365-.758 2.707-2.25.283-1.237 1.11-3.713 1.837-5.502 2.15-5.292-3.837-9.653-9.243-6.734m-23.27 26.736c-7.892 5.415-12.976 8.654-15.606 9.945-4.493 2.205-8.5 6.065-8.5 8.188 0 2.992-2.575 3.067-6.55.19-1.898-1.373-5.7-3.696-8.45-5.163-2.75-1.466-6.215-3.524-7.701-4.571-2.008-1.417-10.519-4.71-12.478-4.828-.099-.006-.946 2.577-1.883 5.739-2.78 9.385-2.311 15.556 1.849 24.303 5.964 12.542 5.939 15.91-.205 27.581l-5.155 9.792 1.894 2.537 1.894 2.537 31.529.264 31.528.264.658-3.505c1.639-8.74 1.63-32.365-.016-39.603-1.941-8.532-1.527-12.809 1.982-20.473 1.778-3.884 2.604-7.396 2.604-11.068 0-6.446-.776-6.669-7.394-2.129M73.06 90.428c-3.032 3.653-.614 11.959 8.023 27.572C85.607 126.177 89 135.003 89 138.594c0 2.125-2.7 4.887-13.298 13.604-2.736 2.251-2.773 2.419-1.669 7.543 1.377 6.394.909 6.105 10.351 6.406 5.746.183 7.971.647 8.646 1.8.576.984.92 1.095.94.303.021-.862 2.128-1.287 6.78-1.368 8.821-.155 12.743-1.044 12.762-2.892.024-2.24 2.247-8.16 5.906-15.722 2.553-5.277 3.528-9.033 4.428-17.049 1.462-13.035 2.58-15.607 10.111-23.256 5.748-5.838 6.125-6.506 5.844-10.352L139.5 93.5l-17.67.381c-16.426.355-17.904.237-21-1.665-4.66-2.863-25.751-4.221-27.77-1.788m243.174 1.609c-1.247.501-5.297 1.185-9 1.52-3.704.336-8.431 1.247-10.504 2.027-2.074.779-6.602 1.416-10.064 1.416-6.492 0-26.97 2.412-29.845 3.515-1.942.745-2.789 3.511-2.807 9.17-.017 5.166 1.028 8.024 5.969 16.315 4.398 7.382 7.488 16.988 6.6 20.525-.446 1.778-2.786 3.47-9.187 6.642l-8.589 4.256.585 3.538c.322 1.947.591 4.102.597 4.789.009.973 6.959 1.25 31.388 1.25h31.377l2.008-4.75c1.105-2.613 2.344-5.875 2.753-7.25.409-1.375 1.895-4.75 3.303-7.5 2.269-4.434 2.575-6.302 2.708-16.5.121-9.272.589-12.662 2.418-17.5 2.608-6.895 2.577-19.923-.05-21.587-1.771-1.121-6.719-1.058-9.66.124M220.5 106.074c-6.449 2.114-16.292 4.785-20.75 5.631-2.297.436-2.75.174-2.75-1.592 0-1.932-.551-2.113-6.435-2.113-3.539 0-7.617-.45-9.063-.999-1.445-.55-6.995-1.285-12.334-1.635l-9.706-.636-5.605 3.585c-3.083 1.972-5.886 4.319-6.231 5.217-2.277 5.934.993 20.752 7.386 33.468 1.521 3.025 3.092 6.625 3.491 8 .859 2.956 4.347 7 6.036 7 .655 0 2.42.966 3.922 2.148 2.634 2.072 3.693 2.151 30.24 2.25l27.51.102 1.551-4c.853-2.2 3.056-5.876 4.895-8.168 1.838-2.293 3.343-4.6 3.343-5.128 0-.527.611-1.466 1.358-2.086.747-.62 1.652-3.713 2.01-6.873a849.42 849.42 0 0 1 1.619-13.028c.752-5.664.654-8.222-.441-11.5-.774-2.32-1.713-5.904-2.088-7.967l-.681-3.75-5.638.054c-3.102.029-8.339.939-11.639 2.02m192.833 22.337c.502 5.943-.381 26.35-1.605 37.089-.194 1.705.363 2 3.772 2h4l-.011-15c-.01-13.823-.232-15.647-2.832-23.25-1.552-4.537-3.075-8.25-3.386-8.25-.31 0-.283 3.335.062 7.411m-341.67-5.274c-3.78 14.271-4.836 19.228-5.026 23.613-.126 2.887-.117 5.25.02 5.25 1.584 0 5.313-2.723 6.84-4.996 1.062-1.58 3.622-3.914 5.69-5.188 4.719-2.907 4.717-4.111-.014-11.411-4.531-6.99-6.961-9.341-7.51-7.268m62.072 3.113c-.821 1.787-2.716 6.982-4.21 11.543-1.495 4.561-4.223 10.529-6.062 13.262-2.922 4.342-5.544 13.197-4.282 14.46.982.981 40.819 1.462 40.819.493 0-.555-.414-1.008-.92-1.008s-2.896-3.937-5.311-8.75c-2.415-4.812-6.467-12.35-9.004-16.75-2.538-4.4-5.372-9.912-6.298-12.25-2.022-5.103-2.774-5.262-4.732-1m198.457-.609c-.592 1.107-1.367 4.453-1.721 7.436-.885 7.447-2.052 10.976-7.109 21.5-6.022 12.531-6.134 12.209 4.388 12.605 10.297.387 9.848.509 7.967-2.175-1.811-2.587-.645-7.245 4.236-16.914l3.148-6.235-1.598-5.495c-.929-3.198-2.984-7.009-4.915-9.116-3.169-3.458-3.366-3.53-4.396-1.606m-83.005 5.048c-.522.996-2.157 5.8-3.635 10.676-2.193 7.236-3.509 9.744-7.166 13.654-2.957 3.161-4.679 6.012-5.064 8.385l-.584 3.596h6.631c7.316 0 7.268.057 5.107-6.068-1.798-5.095-.918-6.128 10.168-11.931 3.435-1.798 6.448-3.798 6.696-4.444.521-1.359-8.256-14.771-10.022-15.315-.651-.2-1.609.451-2.131 1.447" fill="#d3d3d3" fill-rule="evenodd"/></svg>