<svg xmlns="http://www.w3.org/2000/svg" width="500" height="667"><path d="M0 1.5c0 1.249 2.133 1.519 12.75 1.612 7.012.061 17.025.399 22.25.75 5.225.351 14.786.391 21.248.089 7.258-.34 14.328-.09 18.5.654 3.713.662 5.541 1.246 4.061 1.299-1.48.053-2.965.539-3.3 1.081-1.033 1.671 5.876-.088 7.28-1.854.938-1.179 1.489-1.299 2.02-.441.762 1.233 3.011 1.116 14.191-.739 7.348-1.22 20.045-.524 27.5 1.506 3.087.841 13.502 1.597 27.221 1.977 12.221.338 25.899 1.076 30.395 1.64 7.99 1.002 31.312-.015 46.384-2.021 3.3-.44 12.733-.427 20.963.028 8.683.48 18.965.438 24.5-.101 5.245-.511 14.487-.948 20.537-.972 6.05-.023 15.05-.459 20-.969 4.95-.509 23.625-1.173 41.5-1.476 17.875-.302 39.025-.816 47-1.141 7.975-.325 22.041-.707 31.257-.847 9.217-.141 17.054-.553 17.417-.916C454.037.297 352.108 0 227.167 0 25.907 0 0 .171 0 1.5m373 128.094c-1.925.834-4.708 2.673-6.185 4.086-2.905 2.78-7.815 2.675-7.815-.168 0-1.947-2.1-.975-4.249 1.968-2.263 3.098-.942 7.004 2.676 7.912 4.009 1.006 3.587 6.233-.85 10.533-3.454 3.349-4.241 6.025-4.783 16.276-.132 2.48-1.454 5.45-4.009 9-2.097 2.915-4.295 6.522-4.885 8.017-1.307 3.31-9.493 7.448-17.739 8.968-3.114.574-8.064 1.892-11 2.929s-6.334 1.885-7.55 1.885c-1.216 0-2.639.427-3.161.948-1.261 1.259-12.165 4.295-15.939 4.439-2.571.097-3.149-.377-4.131-3.387-.879-2.693-1.688-3.5-3.511-3.5-2.255 0-2.369.321-2.369 6.667 0 3.667-.322 6.988-.715 7.381-.393.393-.265 1.556.285 2.583 1.24 2.317 5.337 2.433 10.45.296 2.071-.865 7.729-2.165 12.575-2.889 5.227-.781 10.199-2.174 12.225-3.427 2.322-1.435 5.071-2.111 8.58-2.111 2.84 0 6.78-.675 8.754-1.5 1.975-.825 4.654-1.5 5.954-1.5 1.3 0 4.282-.508 6.628-1.13 3.501-.927 4.943-.844 8.057.467l3.793 1.597-1.595 3.084c-.878 1.697-2.36 3.365-3.293 3.707-.934.342-3.154 2.294-4.933 4.339-5.565 6.397-9.886 8.052-15.294 5.86-12.169-4.933-19.157-1.108-21.586 11.816-1.086 5.783 5.114 12.26 11.737 12.26 1.361 0 1.878.724 1.878 2.63 0 2.526.179 2.61 4.5 2.123 3.4-.383 4.5-.171 4.5.87 0 .757.436 1.377.969 1.377.532 0 .709-.675.393-1.5-.782-2.037 2.044-1.951 4.12.125.894.894 2.504 3.495 3.578 5.78C341.465 263.52 351.054 274 353.33 274c.919 0 1.67.603 1.67 1.34 0 1.038-1.781 1.255-7.918.964-8.411-.399-11.082 1.028-11.082 5.919 0 2.091.086 2.079-5.345.712-6.552-1.65-13.857 1.511-22.266 9.635-5.168 4.994-7.562 6.594-10.588 7.078-3.828.612-12.097 3.221-10.483 3.308.45.024-.158 1.414-1.35 3.089-4.072 5.719-2.261 14.935 3.427 17.43 2.706 1.187 2.816 1.372.855 1.443-1.238.045-2.25.584-2.25 1.199 0 .624-.882.886-1.999.594-1.099-.288-2.239-.135-2.532.339-.293.475-1.182.614-1.975.309-.794-.304-2.165.17-3.049 1.053-.883.884-1.989 1.37-2.457 1.081-.467-.289-1.11-.104-1.428.41-1.247 2.018-14.733 5.433-15.662 3.966-.695-1.096-.87-1.043-.883.27-.01 1.085-1.282 1.899-3.765 2.41-2.062.425-4.425.921-5.25 1.104-.825.182-5.009.559-9.297.838-4.288.278-11.263 1.434-15.5 2.569s-8.378 2.218-9.203 2.407l-3 .688c-.825.19-1.725.57-2 .845-1.029 1.029-11.647 5.867-15.5 7.062-4.816 1.495-8.442 3.632-10.599 6.249-.879 1.066-2.791 1.939-4.25 1.939-1.458 0-2.652.281-2.653.625-.003 1.155-8.935 6.282-9.903 5.684-.526-.325-1.245-.126-1.597.444-.842 1.362-10.024 5.997-11.881 5.997-.798 0-1.627-.53-1.843-1.177-.219-.658-.938-.84-1.632-.411-.895.554-.941 1.125-.164 2.062 1.264 1.522-2.74 2.938-5.411 1.913-1.051-.403-2.778.684-5.08 3.197-1.918 2.094-3.487 3.424-3.487 2.956 0-.467-.922-.016-2.048 1.003-1.126 1.02-2.702 1.95-3.502 2.067-.8.118-3.366 1.094-5.702 2.169-2.336 1.076-6.02 2.752-8.186 3.724-4.143 1.861-5.231 2.6-9.203 6.247-1.347 1.238-3.067 2.25-3.821 2.25s-1.521.337-1.705.75c-.183.412-2.02 1.53-4.083 2.484-3.883 1.795-4.271 2.397-2.921 4.524.864 1.361 5.569-.684 13.901-6.039 2.327-1.495 4.689-2.719 5.25-2.719.561 0 1.02-.429 1.02-.953s2.03-1.852 4.512-2.949c2.481-1.098 4.779-2.694 5.107-3.547.413-1.076 1.941-1.551 4.988-1.551 2.425 0 4.393-.474 4.393-1.059 0-.582.5-.75 1.112-.372.611.378 1.432.169 1.823-.464.392-.634 1.632-1.329 2.757-1.546 1.125-.216 4.565-1.816 7.646-3.554 3.08-1.739 6.033-2.894 6.562-2.567.529.327 1.244.137 1.59-.422.345-.559 1.389-1.026 2.319-1.039.93-.012 4.151-1.553 7.157-3.425 3.007-1.872 5.794-3.2 6.195-2.952 1.08.667-8.302 10.005-10.86 10.81-1.209.381-2.47 1.457-2.8 2.391-.669 1.888-10.309 9.199-12.129 9.199-.637 0-1.417.675-1.734 1.5-.316.825-1.296 1.5-2.178 1.5-.882 0-2.278.675-3.103 1.5-.825.825-2.315 1.5-3.312 1.5-.996 0-2.047.9-2.335 2-.457 1.747-2.873 2.606-5.96 2.118-.412-.065-.75.64-.75 1.568 0 .927-.988 2.736-2.195 4.021-2.255 2.401-3.252 5.293-1.824 5.293.443 0 1.075-.704 1.405-1.563.988-2.576 2.314-.754 1.834 2.519-.252 1.714-1.053 3.044-1.833 3.044-.763 0-1.387.661-1.387 1.469 0 .916-.584 1.244-1.551.873-.89-.342-2.574.366-3.953 1.662-1.322 1.242-3.886 2.389-5.699 2.551-1.814.162-4.58.57-6.149.907-1.568.338-3.368.227-4-.247-2.28-1.71-5.672-1.108-7.24 1.286-.899 1.37-2.162 2.147-2.983 1.832-.784-.301-1.425-.097-1.425.453 0 1.292 2.886 2.403 4.174 1.606.583-.36.846.363.636 1.747-.196 1.299-.909 2.249-1.584 2.111-1.07-.218-1.71 1.686-1.344 4 .065.413-1.184.75-2.775.75-3.554 0-4.886 2.641-2.374 4.709 1.621 1.334 1.625 1.41.049.916-.945-.296-1.97-.13-2.278.369-.682 1.102 3.178 3.321 4.431 2.546.492-.304 1.045-.12 1.23.409.516 1.483 8.08-.563 9.558-2.585 1.094-1.496 1.277-1.52 1.277-.166 0 2.186 3.006 1.748 5.896-.861 1.317-1.189 2.964-1.944 3.659-1.677.696.266 1.558-.441 1.917-1.571.398-1.254 1.506-2.053 2.84-2.048 3.664.013 6.164-.584 6.65-1.587.914-1.891 4.554-5.181 5.277-4.77.406.231.442-.352.08-1.296-.363-.945-.245-1.47.261-1.169.506.3 2.045.082 3.42-.485 3.731-1.539 5.273-1.929 7.676-1.943 1.506-.008 2.002-.467 1.61-1.488-.389-1.013.027-1.413 1.324-1.274 4.99.532 8.469-1.498 8.311-4.85-.049-1.051-.269-1.209-.585-.423-.279.691-.918 1.002-1.421.691-.503-.311-.915-.175-.915.301 0 .477-1.351.773-3.002.659-1.652-.115-3.253.197-3.559.692-.897 1.451-5.439 1.053-5.439-.477 0-2.604 2.922-4.152 5.179-2.743 2.689 1.68 3.69.515 1.248-1.452-1.266-1.02-1.413-1.415-.427-1.152.825.22 2.019-.305 2.654-1.167.826-1.12 2.892-1.573 7.25-1.587 4.727-.016 6.102-.358 6.128-1.521.058-2.619 6.517-5.023 8.409-3.13 1.412 1.412 1.559 1.399 1.559-.13 0-.929 1.35-2.387 3-3.24 1.65-.853 3-1.99 3-2.526 0-.536 1.167-.974 2.592-.974 2.51 0 7.823-3.252 6.87-4.205-.259-.259 1.215-.534 3.276-.611 2.061-.078 3.887-.559 4.057-1.069.451-1.354 6.202-7.23 6.22-6.356.009.408.346.29.75-.261.404-.55 1.972-1.639 3.483-2.418 1.512-.779 2.555-1.61 2.318-1.848-1.032-1.031 5.707-6.232 8.075-6.232 1.876 0 2.417-.406 1.997-1.5-.338-.881-.013-1.5.786-1.5.749 0 1.639-.723 1.978-1.606.432-1.125 1.338-1.425 3.025-1.002 1.448.364 2.564.135 2.8-.573.459-1.378 6.773-2.049 6.773-.719 0 .495.477.9 1.059.9s.738-.52.346-1.155c-.473-.763-.271-.88.595-.345.815.504 1.066.416.666-.232-1.284-2.078 1.997-3.089 9.844-3.036 4.405.031 8.98-.253 10.166-.629 1.185-.376 2.445-.216 2.799.356.354.573 1.093 1.041 1.643 1.041s.722-.45.382-1c-.34-.55.282-1 1.382-1 1.1 0 2.258-.417 2.572-.926.352-.569 1.824-.568 3.809.001 2.101.603 3.353.577 3.57-.073.57-1.71 9.167-1.243 9.167.498 0 .825.73 1.5 1.622 1.5 1.364 0 1.414-.251.315-1.576-1.686-2.032-.266-2.998 5.728-3.897 2.384-.357 4.335-1.058 4.335-1.557 0-.499.639-.662 1.419-.363.781.3 2.581-.216 4-1.146 1.42-.93 2.581-1.238 2.581-.684 0 .553 1.143 1.293 2.541 1.644 1.397.351 2.271 1.074 1.941 1.608-.735 1.189-.729 1.189 3.275.041 2.208-.634 3.243-.591 3.243.134 0 2.039-2.409 9.3-3.287 9.908-.486.336-.845 1.011-.798 1.5.047.488-.927.888-2.165.888-1.588 0-2.164-.515-1.956-1.75.161-.962-.176-1.75-.75-1.75-.574 0-1.044-.845-1.044-1.878 0-1.032-.675-2.437-1.5-3.122-1.229-1.02-1.5-.951-1.5.378 0 .892.563 1.629 1.25 1.637.899.011.861.262-.137.894-.851.539-1.194 1.885-.889 3.485.274 1.433.111 2.606-.363 2.606-.473 0-.861-.45-.861-1s-.712-1-1.583-1c-2.547 0-.981 2.485 1.671 2.651 1.327.084 2.862.248 3.412.366.55.117 1.791.133 2.757.034 2.125-.217 3.532 2.843 1.799 3.914-.679.42-1.145 1.837-1.035 3.149.333 3.965.038 5.04-1.176 4.291-.67-.415-.884-.277-.511.327.354.572-.251 1.275-1.345 1.561-2.316.605-2.695 2.707-.489 2.707.825 0 1.5.459 1.5 1.019 0 .572-1.037.759-2.363.426-2.018-.506-2.596-.034-3.949 3.231-.872 2.103-1.608 3.036-1.636 2.074-.029-.962-.467-1.75-.974-1.75-.507 0-2.194-2.009-3.75-4.463-2.698-4.258-6.251-6.386-4.935-2.955.334.87.607 2.246.607 3.059 0 .829.488 1.176 1.112.79 1.441-.891 2.861 1.393 2.842 4.569-.013 2.282-.11 2.337-1.101.63-.598-1.028-1.372-1.452-1.72-.942-.348.51-1.746 1.689-3.106 2.62-1.795 1.229-2.023 1.692-.833 1.692.902 0 1.816.531 2.033 1.18.254.763 1.078.889 2.333.356 1.067-.452 3.228-.719 4.803-.592 1.575.127 2.607-.184 2.294-.69-.313-.506.78-.921 2.43-.921 2.826 0 2.961.178 2.338 3.084-1.047 4.881-2.22 6.425-5.687 7.49-1.781.546-6.95 2.355-11.488 4.018-8.613 3.157-8.9 3.157-7.215.009.57-1.064.66-1.934.2-1.934-1.444 0-3.099 2.191-2.613 3.458.306.796-.842 1.31-3.328 1.491-6.712.488-8.538.274-9.409-1.101-.642-1.013-.858-.863-.87.602-.012 1.517-.282 1.683-1.215.75-1.666-1.666-2.853-1.501-2.162.3.317.825.078 1.556-.531 1.625-1.358.153-2.173.378-4.107 1.133-1.462.571-7.483 1.763-11.5 2.276-1.1.14-3.238.536-4.75.88-1.61.366-2.75.203-2.75-.394 0-.561-.637-1.02-1.417-1.02-.779 0-1.617-.563-1.863-1.25-.245-.687-.806-.914-1.246-.504-.439.41-.311 1.815.284 3.123.927 2.034.77 2.529-1.087 3.422-4.81 2.313-8.541 3.096-8.997 1.886-.287-.759-.976-.485-1.942.773-.988 1.286-2.707 1.95-5.05 1.95-1.954 0-3.35.329-3.101.731.248.402.025.994-.496 1.316-1.268.784-2.612-1.494-1.363-2.309 1.461-.952 3.28-4.757 3.263-6.822-.013-1.538-.164-1.587-.985-.316-.533.825-.976.992-.985.372-.008-.621-1.74-1.567-3.848-2.102-4.041-1.025-10.167-.583-10.167.735 0 .428-1.238 1.079-2.75 1.448-5.043 1.227-22.163 10.024-22.742 11.686-.315.901-1.57 2.754-2.79 4.119-2.455 2.746-6.037 8.685-6.176 10.242-.049.55.564 1.675 1.363 2.5 1.272 1.314 1.244 1.54-.226 1.823-.923.178-1.948 1.399-2.278 2.714-.33 1.315-1.455 2.663-2.5 2.995-1.046.331-1.901 1.199-1.901 1.928 0 .729-.675 1.585-1.5 1.902-.932.357-1.5 1.881-1.5 4.023 0 1.897-.562 3.677-1.25 3.956-.941.381-.879.769.25 1.568 1.298.917 1.264 1.079-.25 1.201-.963.077-2.2.253-2.75.39-.55.137-1.28.306-1.622.375-.343.069-.067.795.613 1.614.68.819 1.638 1.24 2.129.937.492-.304 1.163.148 1.492 1.005.329.857 1 1.309 1.493 1.004.492-.304.895-.087.895.483 0 2.665 4.466 3.924 11.32 3.192 4.952-.529 7.28-.378 8.5.549 2.249 1.71 5.18 1.678 5.18-.057 0-1.48 5.519-1.635 7.81-.22.654.405 1.19.256 1.19-.33 0-.689 1.86-.875 5.25-.525 2.887.299 7.5.677 10.25.841 2.75.165 6.463.635 8.25 1.045 2.61.599 3.25.435 3.25-.834 0-1.424 1.776-1.995 5.75-1.848.688.026 1.25-.292 1.25-.706s1.8-2 4-3.525c3.405-2.36 4.654-2.682 8.405-2.168 3.357.46 4.54.255 4.969-.864.31-.807 1.451-1.468 2.536-1.468 1.084 0 2.264-.472 2.62-1.049.443-.716 1.094-.678 2.059.123 1.085.9 1.411.886 1.411-.06 0-1.176 2.351-.968 6.334.561 1.146.439 1.386.071.976-1.496-.386-1.478-.072-2.079 1.087-2.079.897 0 4.386-1.312 7.753-2.916 3.368-1.604 6.742-2.679 7.498-2.389.94.361 1.179.018.756-1.084-.448-1.167-.038-1.611 1.489-1.611 1.159 0 2.107-.45 2.107-1s.522-1 1.161-1c2.488 0 10.564-10.942 9.132-12.373-.344-.345-.101-.627.54-.627.642 0 1.167-.614 1.167-1.365s1.012-2.652 2.25-4.226c1.238-1.573 2.137-2.984 2-3.135-.137-.15-.25-1.232-.25-2.403 0-2.025.307-2.093 6.25-1.385 3.438.41 11.349.668 17.581.574 6.361-.096 11.86.268 12.537.83.663.55 5.206 1.498 10.095 2.105 4.89.608 9.261 1.334 9.713 1.614.453.28.824.109.824-.379s2.577-.992 5.727-1.119c3.15-.128 5.892-.396 6.092-.597.201-.2 2.399.508 4.885 1.573 3.635 1.559 4.409 1.649 3.954.463-.376-.978.721-2.197 3.264-3.626 2.846-1.6 4.133-3.164 5.009-6.088.928-3.096 1.562-3.814 2.973-3.367.986.313 3.025-.07 4.532-.851 2.413-1.252 2.536-1.534 1.036-2.374-1.923-1.076-1.24-13.244.743-13.244.56 0 .772-.943.47-2.096-.832-3.183.252-4.904 3.089-4.904 1.407 0 2.228-.332 1.822-.737-.405-.406-1.493-.743-2.417-.75-1.379-.011-1.655-.975-1.547-5.402.171-6.968 2.381-20.252 3.637-21.861.65-.832.611-1.25-.115-1.25-1.268 0-.324-3.141 1.273-4.235.709-.485.629-.74-.238-.75-3.359-.039 1.031-26.864 5.404-33.015 7.479-10.52 8.378-21.421 2.134-25.878-1.548-1.105-1.662-1.551-.579-2.25.954-.615 1.025-1.093.244-1.622-.61-.413-.965-1.425-.789-2.25 1.133-5.321 2.662-18.34 2.848-24.25l.149-4.75-8.55-.014c-8.616-.013-13.05-.655-13.05-1.888 0-.368 2.813-2.079 6.25-3.803 6.396-3.208 18.742-13.279 19.888-16.224.351-.902 1.393-2.267 2.316-3.033 6.745-5.597 6.815-16.727.145-22.959-3.379-3.156-4.232-2.169-1.709 1.98 2.387 3.925 1.268 8.242-1.435 5.539-.798-.798-4.151-3.091-7.453-5.096-3.301-2.006-6.002-4.278-6.002-5.049 0-1.868-5.899-4.91-8.847-4.562-3.589.424-6.179-2.957-5.495-7.173.605-3.728 4.439-5.718 11.017-5.718 1.618 0 3.805-.631 4.86-1.402 2.053-1.501 8.031.068 11.502 3.019 2.293 1.95 8.569 4.383 11.306 4.383 2.357 0 11.159 3.695 25.166 10.563 3.855 1.89 7.582 3.437 8.283 3.437.701 0 3.555 1.156 6.342 2.568 5.737 2.907 7.372 2.675 9.079-1.29.658-1.528 2.696-4.205 4.53-5.949 3.044-2.894 3.754-6.619 1.739-9.123-.13-.161-2.879 1.3-6.109 3.248-6.914 4.169-10.306 4.439-13.901 1.108-1.447-1.341-3.157-2.315-3.801-2.164-.644.151-.789.071-.323-.178 1.107-.59-6.484-3.974-12.066-5.379-2.402-.605-6.018-1.942-8.036-2.97-2.018-1.029-4.3-1.871-5.071-1.871-.772 0-3.264-.957-5.539-2.126a1866.615 1866.615 0 0 0-5.927-3.034c-.985-.499-2.226-.639-2.758-.31s-1.386-.443-1.896-1.716c-.511-1.273-.957-1.751-.992-1.064-.107 2.113-1.497 1.375-2.835-1.505-1.077-2.317-1.035-2.913.267-3.865 1.822-1.332 1.231-3.498-2.228-8.175-1.767-2.389-2.15-3.641-1.391-4.555 1.837-2.215 3.462-15.613 2.222-18.334-1.428-3.133-1.409-3.21.652-2.674 1.933.503 6.317-7.786 4.448-8.409-.542-.181-.766-1.17-.497-2.199.436-1.665.035-1.808-3.682-1.31-3.226.433-4.118.244-3.933-.832.132-.766-.059-2.63-.423-4.142a233.471 233.471 0 0 1-1.232-5.448c-.448-2.127-.77-2.392-1.52-1.25-1.254 1.908-5.264-2.595-4.593-5.158.296-1.134-.279-1.917-1.684-2.294-3-.805-3.686-.716-7.634.994M244.966 431.042c-.806.51-2.902.934-4.657.943-1.755.008-3.444.425-3.754.926-.31.501-1.349.789-2.309.64-.96-.149-2.634.341-3.719 1.089-1.084.748-2.792 1.36-3.795 1.36-1.003 0-2.849 1.012-4.104 2.25-1.473 1.453-3.669 2.318-6.198 2.442-2.595.127-4.486.894-5.601 2.271-.997 1.231-1.942 1.663-2.316 1.058-1.056-1.709-2.513-1.142-2.513.979 0 1.1.436 2 .969 2 .532 0 .73.62.439 1.379-.414 1.079.95 1.415 6.282 1.547 3.745.092 9.06.288 11.81.436 5.637.302 8.5-.7 8.5-2.976 0-2.443 7.668-9.727 9.501-9.024.92.353 1.814-.02 2.151-.897.316-.825 1.087-1.439 1.712-1.364 2.803.336 3.636-.274 3.636-2.66 0-1.523-.423-2.298-1.044-1.914-.574.355-1.601.182-2.283-.384-.781-.647-1.784-.685-2.707-.101m-67.716 148.62c-.687.278-1.25 1.383-1.25 2.457 0 1.588-.344 1.767-1.847.963-1.261-.675-2.202-.633-2.968.133-1.608 1.608-8.22 4.028-11.386 4.167-2.326.102-2.658.495-2.386 2.83.174 1.491-.186 2.928-.799 3.192-.686.296-.434.909.657 1.599.974.616 1.493 1.569 1.154 2.119-.34.549-.044 2.383.656 4.074 1.274 3.075 1.274 3.075 2.15.708.565-1.526.501-2.493-.177-2.719-.58-.194-1.054-.75-1.054-1.237 0-.487.591-.658 1.313-.381 1.441.553 5.382-3.206 4.395-4.192-.853-.854 1.438-2.969 4.147-3.829 1.656-.526 2.751-.154 4.089 1.39l1.828 2.107.693-2.761c1.125-4.479 2.75-4.517 4.723-.11 1.258 2.808 1.615 5.209 1.18 7.928-.847 5.299 1.973 5.396 4.398.15.954-2.062 2.299-4.112 2.991-4.553 1.746-1.117-.322-4.854-2.57-4.644-3.133.292-6.294-1.26-5.972-2.932.409-2.125 4.5-2.304 5.299-.232.557 1.447.721 1.433 1.603-.139.54-.962 1.437-1.75 1.992-1.75.555 0 .772.384.482.853-1.186 1.92 1.837 3.991 4.385 3.004 2.026-.785 2.208-1.132 1-1.908-1.299-.835-1.299-1.062-.004-1.895 1.962-1.261-1.035-2.532-4.088-1.734-1.147.3-3.198.038-4.559-.582-1.839-.838-2.941-.835-4.297.012-1.507.941-1.912.802-2.332-.805-.513-1.962-1.163-2.204-3.446-1.283m-70.104 17.917c-.607 1.332-1.843 2.421-2.747 2.421-1.262 0-1.385.312-.53 1.342.612.738.945 1.526.74 1.75-.906.989-1.438 9.921-.559 9.377.522-.323.936-.223.918.222-.061 1.557-2.486 3.812-4.468 4.155-2.583.448-5.469 2.082-3.75 2.124.688.016 1.264.818 1.282 1.78.03 1.667.095 1.667 1.36 0 .731-.962 1.649-1.75 2.04-1.75s1.386-.675 2.211-1.5c1.843-1.843 3.471-1.961 2.796-.202-.274.714.64 2.367 2.032 3.674 1.998 1.878 2.529 2.04 2.529.774 0-.882.787-2.39 1.75-3.351 1.818-1.816 2.848-6.883 1.192-5.859-.518.32-.942-.21-.942-1.177 0-1.339.278-1.481 1.165-.594.887.887 1.477.756 2.468-.55.879-1.156 1.314-1.288 1.335-.406.018.72.489 1.026 1.048.681.559-.346.758-1.047.441-1.559-.316-.512.1-.931.925-.931.825 0 1.778.45 2.118 1 1.095 1.772 2.5 1.065 2.485-1.25-.013-1.819-.201-1.963-.985-.75-.748 1.157-.973 1.19-.985.143-.008-.746-.635-1.119-1.393-.828-1.963.753-3.622-1.264-3.622-4.404 0-2.281-.531-2.788-3.5-3.345-1.925-.361-3.5-1.038-3.5-1.504 0-2.091-2.839-1.71-3.854.517" fill="#d3d3d3" fill-rule="evenodd"/></svg>