<svg xmlns="http://www.w3.org/2000/svg" width="500" height="281"><path d="M399.792 34.97c-11.228 11.491-12.258 12.121-24.292 14.873a3656.4 3656.4 0 0 0-16.5 3.816c-4.329 1.016-11.728 1.79-17.5 1.832-8.658.063-11.185.505-18.83 3.291-4.856 1.77-10.502 3.218-12.546 3.218-2.045 0-7.972.969-13.171 2.153-5.199 1.184-13.503 2.298-18.453 2.476-4.95.177-12.352 1.154-16.449 2.17-9.94 2.465-12.051 2.018-12.051-2.555 0-1.938-.663-4.023-1.474-4.634-1.217-.917-1.279-1.863-.358-5.44.985-3.821.893-4.54-.776-6.113-2.809-2.647-17.762-6.906-26.892-7.659-6.868-.566-8.659-1.126-12.656-3.96-4.598-3.258-7.475-3.603-10.49-1.257-.768.597-1.871-.281-3.339-2.657-3.939-6.374-9.761-7.432-14.832-2.695-5.122 4.784-5.316 9.618-.57 14.22 7.505 7.28 7.52 7.341 3.478 13.951-2.483 4.061-3.085 4.475-6.171 4.24-1.881-.143-4.545-.288-5.92-.321-1.548-.038-4.214-1.731-7-4.444-3.419-3.331-5.916-4.75-10.394-5.912-8.987-2.331-12.602-.967-15.743 5.937-6.065 13.334 3.924 24.92 19.778 22.939 5.892-.736 6.391-1.399 3.253-4.323-2.242-2.089-1.815-4.407.638-3.465.807.309 1.468.065 1.468-.544 0-1.748 2.716-1.289 3.434.581.392 1.023.041 2.026-.893 2.549-2.184 1.222-1.913 3.763.4 3.763 1.068 0 2.219.45 2.559 1 .34.55 1.293 1 2.118 1s1.245-.412.934-.916c-.796-1.288 1.17-6.084 2.495-6.084 1.213 0 3.953 2.461 3.953 3.551 0 .382-.68.129-1.512-.561-1.283-1.065-1.472-.894-1.25 1.128.144 1.31.823 2.832 1.508 3.382.685.55 2.412 5.036 3.838 9.969 1.425 4.934 3.212 10.17 3.97 11.636 1.931 3.733 10.317 10.895 12.758 10.895 1.117 0 2.798.694 3.736 1.543 1.438 1.302 1.789 1.323 2.246.133.37-.964-.715-1.825-3.427-2.72-4.29-1.416-6.011-2.956-3.304-2.956 1.382 0 1.46-.268.437-1.5-1.054-1.27-.834-1.5 1.437-1.5 1.533 0 2.416.428 2.063 1-.34.55.364 1 1.563 1 1.793 0 1.967.259.978 1.45-1.022 1.232-.562 1.425 3.055 1.281 2.384-.095 4.421.32 4.629.943.204.613 1.243.886 2.308.607 2.924-.765 5.591.495 4.134 1.952-2.116 2.116-1.228 2.767 3.583 2.629 7.714-.222 8.532-.038 7.84 1.765-.914 2.382 1.047 4.165 3.967 3.607 3.095-.592 7.618 3.146 6.701 5.536-.409 1.065-.207 1.316.639.793.8-.494 1.437-.002 1.802 1.393.357 1.366 1.096 1.953 2.014 1.601.798-.307 1.751-.564 2.119-.572.367-.009-.007-.452-.832-.985-1.282-.828-1.246-.972.25-.985.963-.008 1.75.66 1.75 1.485 0 1.043 1.049 1.5 3.441 1.5 3.181 0 6.308 1.918 3.368 2.066-.72.036 2.136 1.123 6.346 2.414 9.664 2.964 11.848 4.143 11.67 6.296-.298 3.617.228 5.224 1.71 5.224 1.149 0 1.302-.44.607-1.75-1.049-1.976.602-4.169 2.63-3.493 1.518.506 1.728 16.816.228 17.743-.55.34-1 2.429-1 4.642 0 2.662-.402 3.891-1.187 3.629-1.67-.557-3.148-5.497-2.261-7.554.923-2.139 1.182-10.217.327-10.217-1.108 0-1.879 6.011-1.879 14.656 0 9.988-.627 10.552-7.602 6.835-12.825-6.835-23.885 5.095-14.281 15.404 2.388 2.563 3.872 2.697 3.916.355.019-.963.87-2.752 1.892-3.977 1.791-2.147 1.978-2.168 5.133-.594 2.543 1.268 3.894 1.4 6.041.59 3.229-1.219 5.132.133 9.002 6.394 1.782 2.883 2.456 3.399 2.711 2.075.187-.969.755-1.505 1.264-1.191.508.314.924-.1.924-.92 0-2.103 5.398-1.424 5.823.733.178.902-.229 1.64-.905 1.64-1.715 0 1.83 3.785 4.271 4.56 2.061.654 2.063 4.123.002 3.69-.655-.138-1.191.038-1.191.39 0 1.118 3.434 3.295 5.25 3.328.962.018 1.75.572 1.75 1.232 0 .933.267.933 1.2 0 1.738-1.738 2.487-1.49 3.183 1.05.455 1.66.837 1.909 1.458.949.608-.941 1.507-1.038 3.25-.351 1.325.523 4.434 1.506 6.909 2.183 3.755 1.029 4.169 1.365 2.5 2.031-1.634.651-1.404.81 1.25.868 1.788.038 3.25-.308 3.25-.769 0-2.103 5.164-3.225 8.099-1.761 2.87 1.431 2.901 1.415 2.901-1.477 0-1.607-.461-2.923-1.025-2.923-.563 0-1.447-1.112-1.964-2.472-1.222-3.214-5.416-4.298-8.888-2.297-5.287 3.046-9.892 3.141-13.299.274-1.7-1.43-4.943-3.534-7.208-4.676-5.241-2.642-5.128-2.508-3.636-4.305 1.045-1.259.983-1.524-.358-1.524-.892 0-1.622.408-1.622.906 0 .499-.9.671-2 .384-1.1-.288-2-.947-2-1.466 0-.518.45-.664 1-.324s1 .015 1-.723c0-1.499 7.146-3.895 11-3.687 3.098.166 9.719-.798 11.027-1.607.535-.33.973.381.973 1.58 0 1.603.332 1.921 1.25 1.2 1.586-1.245 7.769-2.451 7.623-1.486-.45 2.973.345 4.223 2.686 4.223 1.407 0 2.304.413 1.991.919-.312.505.863 1.232 2.611 1.616 5.142 1.13 17.19 6.532 19.128 8.577.984 1.038 2.658 1.888 3.719 1.888 1.062 0 3.686.915 5.832 2.034 3.87 2.017 3.943 2.018 8.781.123 7.486-2.931 7.654-9.282.185-6.99-3.28 1.007-4.125.838-8.475-1.696-2.657-1.548-5.42-3.64-6.141-4.647-1.935-2.708-14.687-10.774-19.772-12.507-2.429-.827-4.652-1.887-4.941-2.354-.289-.468 2.706-3.956 6.655-7.751 4.204-4.042 6.734-7.177 6.105-7.566-.592-.365-2.63.802-4.531 2.595-1.901 1.792-3.849 3.374-4.331 3.514-6.754 1.967-7.697 2.536-6.122 3.688 1.393 1.018 1.192 1.328-1.523 2.353-1.72.649-3.375.787-3.678.308-.304-.48-1.452-1.097-2.552-1.372-1.78-.445-1.747-.513.304-.616 1.268-.064 3.743-1.464 5.5-3.111 1.758-1.648 3.533-2.998 3.946-3 .413-.003.75-.679.75-1.503 0-1.978 8.815-7.463 12-7.468 1.671-.002 2.074.267 1.216.811-1.537.975-.465 4.481 1.163 3.803.617-.256 2.809-1.188 4.871-2.071 2.063-.882 3.75-1.192 3.75-.689 0 1.426 23.672 3.559 26.681 2.404 2.139-.821 7.319-10.152 7.319-13.185 0-6.379-5.562-6.438-9.126-.096-2.804 4.988-2.378 4.889-15.742 3.665-13.461-1.234-22.032-.124-29.014 3.756-21.864 12.151-28.145 13.937-42.118 11.981-8.605-1.205-9.032-1.907-8.417-13.838.48-9.324.347-10.519-1.273-11.462-.996-.579-1.259-1.066-.585-1.083 1.916-.047.399-6.232-2.054-8.368-2.058-1.793-2.154-1.783-3.922.4-2.935 3.625-10.041.816-32.749-12.947-7.425-4.501-18.112-10.51-23.75-13.355-10.786-5.443-11.638-6.266-8-7.729 1.899-.763 1.607-.914-1.875-.968-5.831-.089-10.868 1.014-9.235 2.024 1.697 1.048.599 2.134-1.386 1.372-1.788-.686-1.186-4.511.905-5.759.738-.44 1.341-1.394 1.341-2.121 0-.727 1.572-2.392 3.493-3.7 3.032-2.065 5.255-5.077 2.482-3.364-.563.349-.901.038-.75-.691.151-.728-.321-1.2-1.049-1.049-.729.151-1.04-.187-.691-.75.55-.891-1.453-1.504-3.735-1.143-.412.065-.782-.669-.82-1.632-.06-1.496-.195-1.46-.93.25-.72 1.676-.871 1.474-.93-1.25-.038-1.787.38-3.25.93-3.25s1 .675 1 1.5c0 .833.889 1.5 2 1.5 1.1 0 2-.427 2-.948 0-1.642 4.654-6.052 6.388-6.052 1.538 0 1.54.18.022 2.497l-1.636 2.497 3.953-.154c2.175-.086 4.466.161 5.093.549.626.387 2.122.177 3.324-.466 1.203-.644 4.218-1.129 6.701-1.079 2.483.049 6.459-.77 8.835-1.821 2.376-1.051 4.32-1.57 4.32-1.155 0 1.08-5.671 5.129-7.21 5.147-.977.012-.951.23.106.899.767.486 1.119 1.605.781 2.485-.484 1.262.067 1.604 2.604 1.616 3.435.017 6.106 1.21 5.554 2.483-.284.657 3.452 1.493 7.872 1.762.664.04 1.456.723 1.761 1.518.374.973.073 1.26-.923.878-1.183-.454-1.356.071-.867 2.638.848 4.459 1.195 4.589 3.743 1.401 1.953-2.444 2.404-2.611 3.497-1.294 1.369 1.65.629 3.738-1.243 3.507-2.337-.288-3.993.107-3.31.79.384.384-.329 1.25-1.584 1.925l-2.281 1.226 3 1.186c1.65.652 4.212 1.167 5.692 1.144 1.858-.029 2.532.376 2.175 1.306-.384 1.003.591 1.348 3.808 1.348 2.379 0 4.775.091 5.325.202.55.111 3.25.095 6-.035 4.257-.201 4.554-.335 2-.896-2.257-.496-2.591-.821-1.346-1.313.909-.36 2.709-.421 4-.136 1.813.401 2.013.285.88-.511-1.203-.844-.974-1.216 1.276-2.072 1.507-.573 3.011-1.744 3.34-2.602.508-1.324.816-1.25 2.031.485.788 1.125 2.27 2.045 3.294 2.045 3.1 0 4.93 1.085 4.355 2.583-.359.935.144 1.417 1.481 1.417 3.076 0 5.562 1.151 4.244 1.966-.683.422-.137 1.131 1.417 1.839 2.084.95 2.528.892 2.528-.326 0-.814.477-1.479 1.059-1.479s.774.461.426 1.025c-.349.563-.263.94.191.836 2.172-.498 6.153 1.421 5.653 2.725-.296.771-.953 1.147-1.459.834-.506-.313-.855-.198-.776.256.356 2.053-.217 2.694-1.185 1.324-.799-1.129-1.187-1.191-1.568-.25-.279.687-1.37 1.25-2.424 1.25-1.054 0-1.917.492-1.917 1.092 0 .679 1.989 1.011 5.25.876 11.133-.459 25.843.072 25.323.914-.968 1.567 3.113 5.643 10.609 10.596 4.025 2.66 8.325 5.738 9.555 6.841 5.28 4.733 24.412-1.302 25.724-8.115.233-1.212.014-2.204-.486-2.204-.501 0-1.488-1.087-2.193-2.415-1.249-2.351-1.386-2.376-5.282-.943-12.495 4.598-12.504 4.6-14.024 3.338-.812-.674-1.476-1.806-1.476-2.517 0-2.733-19.128-19.404-22.915-19.972-3.77-.565-12.18-2.88-18.085-4.978-1.925-.684-5.3-1.546-7.5-1.915-16.245-2.727-17.354-3.523-9.476-6.797 6.167-2.563 5.629-3.354-2.023-2.975-5.067.252-6.018.01-6.97-1.767-.628-1.174-.697-2.059-.16-2.059.518 0 .708-.895.422-1.988-.354-1.353.075-2.18 1.344-2.591a62.307 62.307 0 0 0 3.863-1.432c2.608-1.082 9.148-2.167 13.25-2.199 1.788-.014 3.25-.423 3.25-.908 0-.485 1.35-.882 3-.882s3-.415 3-.922c0-1.136 6.899-3.512 7.744-2.667.848.848-4.807 6.589-6.49 6.589-.755 0-1.087.461-.739 1.025.349.563.263.906-.191.762-2.045-.651-7.171 2.448-6.583 3.98.453 1.18.173 1.414-1.105.923-1.644-.63-3.552 1.727-2.362 2.917.858.858 18.226-8.172 18.226-9.476 0-.662.494-1.525 1.099-1.917 1.346-.875 1.462-4.29.2-5.894-1.149-1.461 1.974-3.32 5.576-3.32 1.379 0 2.739-.375 3.022-.833.629-1.018 6.42-.271 7.159.923.292.473-1.514 1.374-4.013 2.003-4.261 1.073-6.09 2.525-3.293 2.613.688.022 1.7.15 2.25.285 2.021.497 3.601-.018 3.007-.979-.386-.625.978-.77 3.714-.395 8.5 1.165 30.128-3.2 40.759-8.226 5.501-2.601 11.86-4.807 15.152-5.258 6.648-.909 9.713-2.695 13.492-7.862 11.151-15.248 12.067-16.166 10.429-10.455-.56 1.951-.553 3.184.017 3.184.511 0 .93-.653.93-1.45 0-.798.563-1.81 1.25-2.25 1.455-.931 3.75-4.799 3.75-6.32 0-3.033-6.113-6.98-10.784-6.963-4.646.017-4.86.164-14.424 9.953M211.599 55.604c-.352.915-1.256 1.358-2.107 1.031-.821-.315-1.492-.136-1.492.396 0 .533-.868.969-1.929.969-2.532 0-5.136 2.667-4.422 4.529.311.809.993 1.471 1.517 1.471.524 0 .644-.498.268-1.107-.678-1.096-.446-1.069 5.493.651 1.335.387 3.58 1.772 4.99 3.08 3.261 3.023 4.277 3.017 3.122-.021-.501-1.319-.603-2.741-.225-3.161.377-.419.124-.439-.564-.043-1.473.848-1.716-.993-.25-1.899.55-.34 1-1.068 1-1.618s-.45-.722-1-.382c-.583.361-1-.656-1-2.441 0-3.298-2.314-4.289-3.401-1.455m79.834 160.564c-5.439 5.014-7.433 8.526-7.433 13.091 0 6.01-1.718 7.201-7.609 5.274l-5.01-1.639.059-4.697c.043-3.375-.332-4.697-1.332-4.697-1.925 0-5.172 4.588-5.346 7.552-.078 1.346-.957 3.521-1.952 4.833-3.258 4.292-1.305 16.115 2.661 16.115.781 0 2.007 1.204 2.724 2.676.718 1.472 1.911 2.874 2.652 3.116 1.051.343 1.114.004.285-1.545-.584-1.091-.764-2.281-.401-2.644 1.255-1.256 1.087-3.603-.257-3.603-.742 0-1.281-.919-1.196-2.041.109-1.445.748-1.956 2.188-1.75 1.776.254 2.034 1.021 2.034 6.04 0 3.163-.45 5.757-1 5.766-.55.008-.337.435.474.948.937.592 1.705.556 2.111-.1.351-.568.883-.094 1.183 1.052.299 1.147 1.037 2.085 1.638 2.085 1.803 0 1.236-4.549-.906-7.273-2.672-3.397-2.71-7.146-.065-6.454 1.119.292 2.161-.08 2.469-.884.293-.764.17-1.389-.275-1.389-1.334 0-3.172-4.855-2.091-5.523.529-.327.962.133.962 1.023 0 .89.457 1.335 1.016.99.559-.346.758-1.047.441-1.559-.316-.512-.098-.931.484-.931s1.059.647 1.059 1.438c0 .948.937 1.374 2.75 1.25 2.432-.166 2.754.164 2.786 2.853.12 10.138 7.595 13.764 34.964 16.964 6.6.772 12.974 1.691 14.165 2.044 2.425.717 6.413-3.915 4.734-5.5-1.313-1.239-16.569-4.776-26.399-6.121-17.113-2.341-11.598-4.434 9.1-3.454 8.144.386 15.374.351 16.066-.077 1.346-.831 2.481-.905 27.834-1.805 18.963-.673 19-.681 19-4.082 0-3.738-2.264-4.282-22.886-5.5-18.928-1.117-21.309-1.637-23.137-5.054-1.415-2.644-.845-3.349 4-4.948 3.748-1.237 4.393-1.168 7.996.856 3.387 1.904 4.807 2.112 10.473 1.531 3.605-.369 6.554-1.134 6.554-1.7 0-.565.296-.732.658-.37.362.362 1.262.156 2-.456.987-.819 1.342-.817 1.342.009 0 .617.411 1.122.914 1.122 1.826 0-.527-5.343-2.465-5.597-1.072-.14-5.324-.583-9.449-.984-4.125-.402-8.5-1.379-9.722-2.171-2.21-1.434-15.435-3.353-22.457-3.259-3.911.052-13.779 2.904-18.504 5.347-3.532 1.826-11.447 3.075-14.119 2.227-2.425-.77-3.738-5.207-2.119-7.159 1.603-1.93 2.998-1.767 2.22.26-.446 1.161-.265 1.433.599.899.681-.421 1.008-1.366.726-2.1-.281-.733.024-1.512.68-1.731.682-.227.235-.908-1.047-1.594-2-1.071-2.724-.749-6.824 3.03" fill="#d3d3d3" fill-rule="evenodd"/></svg>