<svg xmlns="http://www.w3.org/2000/svg" width="500" height="678"><path d="M.247 142.666L.5 285.332l2.998.401c1.649.221 3.359 1.046 3.8 1.834.441.788 1.454 1.433 2.252 1.433.797 0 1.45.402 1.45.893C11 290.985 8.525 292 5.859 292c-1.087 0-1.729.402-1.425.893.304.492-.57 1.175-1.941 1.519L0 295.038v77.898c0 61.382.265 78.004 1.25 78.402 1 .403 1 .52 0 .583C.258 451.984 0 475.309 0 565.002v113.002l248.75-.252c247.999-.251 248.75-.258 248.75-2.252 0-1.1.345-2.531.766-3.181.422-.649.422-1.394 0-1.654-.999-.617-.669-34.532.405-41.665.605-4.013.97 1.798 1.35 21.5.287 14.85.62-125.437.74-311.75L500.979 0H-.007l.254 142.666M0 143c0 78.283.228 142.106.506 141.827.658-.658.653-283.001-.005-283.659C.225.892 0 64.717 0 143M283.25 26.246c.137.686.881 1.743 1.653 2.349 1.456 1.144.617 3.844-.903 2.905-2.274-1.405-1.716 1.694.728 4.047 1.843 1.775 2.353 2.828 1.522 3.144-1.961.746-1.464 4.805.843 6.893 4.535 4.104 4.447 5.524-.298 4.783-2.362-.369-4.446-1.056-4.63-1.525-.185-.47-.738-.606-1.23-.302-.491.304-1.856.037-3.032-.592-1.871-1.001-2.077-1.784-1.648-6.254.27-2.81.951-5.263 1.512-5.45.561-.187.791-1.218.51-2.292-.464-1.777.515-2.459 2.973-2.07.413.065.75-.557.75-1.382 0-.825-.702-1.5-1.559-1.5s-1.313-.399-1.011-.886c.769-1.245-3.465-2.194-5.272-1.182-1.129.631-.733 1.002 1.619 1.519l3.112.683-1.941 3.183c-1.067 1.751-1.949 3.858-1.96 4.683-.04 3.204-1.495 4.182-4.31 2.899-2.709-1.234-2.863-3.542-.54-8.083 1.187-2.32 1.088-2.816-.56-2.816-.783 0-1.943 1.575-2.578 3.5-1.299 3.936-3.094 4.463-5.128 1.506-2.092-3.04-3.874-1.05-4.085 4.561-.102 2.713-.641 5.243-1.197 5.622-.626.427-.301 1.472.855 2.75 2.381 2.632 3.951 2.669 2.555.061-.767-1.434-.76-2 .024-2 .602 0 .813-.454.47-1.009-.873-1.414.45-5.144 1.578-4.447.51.316.928.135.928-.402 0-.536-.562-1.202-1.25-1.48-.751-.303-.556-.536.489-.583 1.538-.07 1.719.933 1.567 8.671-.101 5.167.313 9.644 1.012 10.934 2.624 4.849.225 13.037-3.412 11.642-.773-.297-1.406-.042-1.406.567 0 .671-2.069 1.101-5.25 1.092-3.062-.009-4.719-.353-3.975-.825 3.103-1.969-18.577-25.875-26.775-29.523-1.375-.612-2.95-1.591-3.5-2.176C218.83 35.685 210.203 29 209.582 29c-1.876 0-.109 2.953 2.385 3.986 3.55 1.471 6.029 4.016 3.905 4.01-.754-.002-2.845-.902-4.646-2-3.544-2.16-7.226-2.638-7.226-.937 0 .582.379.825.843.538.883-.546 6.906 2.491 16.67 8.403 7.706 4.666 23.68 20.334 22.873 22.435-.391 1.02-.04 1.565 1.007 1.565.884 0 1.607.617 1.607 1.371 0 .933-1.913 1.587-5.989 2.048-3.294.373-10.832 2.488-16.75 4.7-5.919 2.213-12.387 4.103-14.375 4.202-3.878.192-15.807 6.431-15.856 8.293-.044 1.627-8.778 2.591-11.29 1.247-4.491-2.404-14.751-4.163-26.047-4.467-6.493-.175-22.788-1.694-36.21-3.376-42.814-5.365-66.854-6.322-83.242-3.313l-8.259 1.516.659 13.805c.613 12.839.507 14.127-1.506 18.411-3.03 6.445-4.417 13.759-3.768 19.861 2.973 27.949 3.004 39.596.181 69.159-1.634 17.109-2.198 41.581-1.166 50.543.756 6.568-1.562 46.699-2.899 50.184-.39 1.017.369 2.525 2.062 4.095 1.474 1.366 2.852 3.775 3.063 5.353.21 1.577.634 4.443.941 6.368.448 2.81.341 3.155-.545 1.75-1.465-2.323-3.542-2.229-3.723.169-.149 1.974 2.192 3.525 3.809 2.525.501-.309.91.59.91 1.997s.354 2.559.786 2.559c.432 0 .812 10.238.845 22.75.061 23.012 1.854 43.476 4.853 55.396.782 3.105 1.204 6.842.939 8.304-.265 1.462.207 5.99 1.048 10.062 1.811 8.77 1.988 15.488.407 15.488-.82 0-.826.358-.02 1.328.606.731 1.462 3.06 1.901 5.177.959 4.614 2.113 5.194 4.994 2.51C45.082 444.846 47 444.387 47 446c0 .55.45 1 1 1s1-1.8 1-4c0-6.641 1.693-4.493 2.441 3.097.854 8.669-.199 10.291-2.86 4.403-.249-.55-1.413.101-2.586 1.447-2.275 2.608-4.317 1.475-3.346-1.856.262-.899-.266-.613-1.215.659-.923 1.238-2.298 2.25-3.056 2.25S37 453.477 37 454.059s.437.789.971.459c1.386-.856 2.742 6.028 3.442 17.482.253 4.125 1.082 10.979 1.843 15.23.761 4.252 1.05 8.077.642 8.5-1.302 1.351-2.208 8.27-1.083 8.27.571 0 1.244-.787 1.496-1.75.287-1.101.5-.752.573.941.125 2.89-1.385 4.635-2.22 2.565-.278-.691-.542-.258-.585.963-.053 1.481.374 2.044 1.285 1.695.912-.35 1.575.53 2 2.654.529 2.646.879 2.975 2.094 1.967 2.145-1.781 3.094 2.613 2.801 12.965-.355 12.562.323 16.278 3.218 17.632l2.422 1.132-.162-5.847c-.09-3.216-.51-5.3-.934-4.632-.678 1.067-1.179-3.493-1.074-9.785.055-3.304.179-3.515 2.63-4.447 2.714-1.031 4.198-6.144 2.632-9.069-1.201-2.245-1.324-9.984-.158-9.984.459 0 .909-.562 1.002-1.25.092-.687.441-2.937.776-5 .396-2.445.222-3.75-.502-3.75-.61 0-1.109-.477-1.109-1.059s.45-.781 1-.441c.583.361 1-.656 1-2.441 0-1.682-.45-3.059-1-3.059s-1-.9-1-2c0-2.213-1.547-2.71-2.338-.75-.277.688-.54-2.267-.583-6.566-.078-7.671.965-11.684 3.036-11.684.64 0 .789 1.161.385 3-.415 1.887-.259 3 .421 3 .593 0 1.079-1.025 1.079-2.277 0-1.253.715-3.299 1.589-4.547 1.828-2.609 1.238-5.176-1.188-5.176-1.375 0-1.545-.648-.984-3.75 1.242-6.858 1.522-9.669 2.022-20.25.273-5.775.812-13.65 1.197-17.5 1.271-12.717.794-60.623-.678-68.021C62.487 345.112 63.14 344 65 344c1.564 0 2-.667 2-3.059 0-1.785-.417-2.802-1-2.441-.55.34-1 .178-1-.359 0-.538-.309-1.802-.687-2.809-.603-1.606-.482-1.664.983-.473 1.466 1.191 1.796 1.03 2.687-1.315 1.578-4.149 1.302-5.769-.865-5.081-1.513.48-1.971-.006-2.333-2.477-.572-3.897-1.284-3.671 12.215-3.881 6.325-.098 12.911-.427 14.635-.732 1.784-.314 3.426-.083 3.809.537.371.6 1.697 1.09 2.948 1.09 3.53 0 3.722.964.896 4.505-1.994 2.5-2.901 3.004-3.839 2.134-.907-.841-.93-1.331-.088-1.874.676-.436.238-.741-1.076-.75-2.39-.016-5.429 3.958-3.07 4.017.785.019.555.584-.59 1.452-1.032.781-1.63 2.062-1.329 2.846.301.785.047 1.927-.564 2.538-.611.611-1.196 1.679-1.299 2.372-.431 2.906-7.517 13.241-9.085 13.25-.922.006-1.888.644-2.148 1.419-.325.97.038 1.214 1.164.782.9-.346 1.636-.141 1.636.454 0 1.612-4.241 8.855-5.184 8.855-.449 0-.816 1.336-.816 2.969 0 1.633-.892 4.681-1.983 6.774-3.105 5.956-4.29 13.829-2.579 17.137 1.71 3.307 3.147 30.6 1.56 29.619-.549-.34-1.043-1.828-1.098-3.308-.081-2.152-.288-1.892-1.034 1.298-.749 3.198-.63 4.21.6 5.11 1.672 1.223 2.152 2.901.545 1.908-.579-.358-.747.134-.405 1.191.439 1.357.344 1.467-.387.445-.677-.948-1.175-1.024-1.653-.25-.376.609-.181 1.107.434 1.107s.797.52.405 1.155c-.43.695-.276.883.388.473.716-.443.952.1.673 1.548-.236 1.226.125 2.581.802 3.011.97.616.966.786-.018.798-.687.008-1.25.888-1.25 1.956s-.457 2.224-1.016 2.569c-.559.346-.758 1.047-.441 1.559.316.512.098.931-.484.931S65 444.489 65 446.309s-.661 4.182-1.468 5.25c-1.918 2.535-1.934 4.533-.032 3.803.825-.317 1.5-1.203 1.5-1.969s.436-1.393.969-1.393c.532 0 .678-.756.324-1.679-.557-1.451-.298-1.418 1.898.238 2.339 1.764 2.426 2.096 1.09 4.136-1.65 2.518-.83 4.73 1.431 3.862 1.133-.435 1.326-.139.771 1.182-2.23 5.307-1.6 11.261 1.191 11.261 1.469 0 1.455.2-.134 1.956-1.587 1.754-1.613 2.114-.244 3.483.845.845 1.291 2.426.998 3.543-.994 3.801 1.662 2.024 4.562-3.053 1.593-2.789 3.289-5.151 3.77-5.25.481-.098.777-.909.659-1.8-.119-.892 1.626-3.592 3.876-6 5.21-5.575 9.839-12.981 9.839-15.74 0-1.176.45-2.139 1-2.139s1-.527 1-1.171.787-2.042 1.75-3.105c1.722-1.902 1.889-2.563 2.503-9.902.169-2.023 1.075-4.527 2.013-5.564 1.269-1.402 1.614-3.208 1.345-7.044-.31-4.428-.082-5.247 1.605-5.783 4.932-1.565 8.784-21.556 8.784-45.588 0-18.23.266-17.139-7.166-29.343-1.004-1.65-1.793-3.675-1.751-4.5.051-1.025.235-1.104.579-.25.854 2.116 2.496 1.381 2.158-.966-.176-1.218-1.709-3.149-3.407-4.29-2.264-1.522-2.913-2.569-2.436-3.929.575-1.639.953-1.469 3.242 1.456 2.391 3.055 2.717 3.186 4.215 1.688 1.601-1.601 4.566-1.342 4.566.398 0 .491 1.575.893 3.5.893s3.5-.45 3.5-1 .929-1 2.063-1c1.726 0 2.012.532 1.75 3.25-.267 2.777-.708 3.257-3.026 3.296-4.099.069-4.145.812-.307 5.002 3.914 4.273 4.831 7.033 1.206 3.626-2.792-2.623-4.039-2.813-2.783-.424 3.726 7.086 4.777 11.507 3.893 16.373-1.435 7.892-.713 13.194 1.954 14.364 2.014.884 2.25 1.696 2.25 7.75 0 3.72.421 6.763.935 6.763 2.586 0 5.857-2.096 6.378-4.088.508-1.943.802-2.061 2.213-.891 1.359 1.128 1.763 1.13 2.455.01.956-1.547 6.019-2.357 6.019-.963 0 .513.45.932 1 .932s1-.675 1-1.5c0-.891.914-1.497 2.25-1.494 3.016.009 13.147 10.369 12.512 12.796-.253.966.157 2.333.911 3.037.754.705 1.067 1.773.694 2.375-.405.657-.214.81.478.381.685-.422 1.155-.078 1.155.846 0 .857-.675 1.559-1.5 1.559s-1.5-.87-1.5-1.933c0-1.901-3.221-3.705-5.75-3.219-.687.132-1.25-.197-1.25-.731s-1.432-1.685-3.182-2.558c-3.264-1.628-4.764-.944-4.803 2.191-.022 1.858-1.369 1.514-2.754-.704-.768-1.23-.857-2.177-.241-2.559 1.536-.949 1.148-2.487-.627-2.487-.971 0-1.393.557-1.067 1.408.353.92-.388 1.642-2.137 2.081-4.43 1.112-7.21 4.511-3.689 4.511.825 0 1.5.675 1.5 1.5 0 2.066 1.247 1.88 4.486-.667l2.755-2.168-.758 2.418c-.416 1.329-.969 2.98-1.227 3.667-.259.688.014 1.25.606 1.25 1.058 0 .412 3.011-.859 4-.353.275-.342 1.625.025 3l.667 2.5 1.201-2.5c1.786-3.719 7.128-6.905 9.873-5.89 2.689.995 2.785 1.713.481 3.611-1.641 1.352-1.627 1.403.22.808 1.083-.349 1.661-.326 1.283.051-.377.377.406 1.544 1.741 2.594 1.998 1.572 2.263 2.335 1.504 4.331-.577 1.519-.561 2.647.044 3.021.531.328.69 1.694.353 3.035-.387 1.542-.182 2.439.556 2.439.642 0 .908-.419.592-.931-.317-.512-.118-1.213.441-1.559.559-.345 1.016-.207 1.016.307 0 .515 1.769 2.814 3.932 5.111 2.162 2.296 4.223 5.501 4.579 7.123.356 1.622 1.062 2.949 1.568 2.949.507 0 .921 1.116.921 2.481 0 1.812.674 2.65 2.5 3.108 1.375.345 2.5 1.24 2.5 1.987 0 .748 1.013 1.937 2.25 2.642 1.238.705 2.295 1.845 2.35 2.532.314 3.931.481 4.318 1.57 3.645.772-.477.965-.19.569.842-.397 1.036.087 1.746 1.431 2.097 1.117.292 1.754.981 1.414 1.53-.339.549-.047 1.355.65 1.79 1.382.866 1.898.967 6.075 1.194 1.638.089 2.545.58 2.175 1.179-.349.564-1.163.961-1.809.881-4.376-.54-6.753 2.361-4.024 4.911.742.693 1.349 2.057 1.349 3.032 0 .974.873 2.709 1.94 3.854s1.71 2.311 1.43 2.591c-.28.28.423 2.553 1.561 5.052 1.138 2.498 2.069 5.017 2.069 5.597 0 2.271 1.873.831 5.316-4.087l3.6-5.143-2.208-2.678c-1.214-1.473-4.147-4.143-6.516-5.933-4.227-3.194-5.082-5.74-1.834-5.465.903.076 1.642-.434 1.642-1.133 0-.7.962-1.524 2.137-1.832 1.911-.499 2.064-1.014 1.449-4.866-.379-2.369-1.115-4.736-1.637-5.258-.522-.523-.949-1.782-.949-2.8 0-1.017-.687-3.177-1.526-4.8-1.17-2.263-1.228-2.954-.25-2.965.964-.012.941-.228-.094-.883-1.106-.701-1.01-1.078.5-1.955 1.807-1.05 1.805-1.087-.08-1.117-1.517-.023-1.683-.297-.75-1.23 1.477-1.477 1.599-4.165.148-3.268-.646.399-.943-.254-.769-1.691.42-3.479-5.146-11.77-7.929-11.809-1.319-.019-2.25-.652-2.25-1.532 0-.825-.499-1.5-1.108-1.5-.675 0-.87-.951-.5-2.428.373-1.484.062-2.976-.8-3.837-.906-.906-1.095-1.916-.53-2.823 1.242-1.99 3.93-.171 6.396 4.329 1.715 3.13 6.03 6.759 8.035 6.759.377 0-.48-1.385-1.904-3.077s-2.589-3.492-2.589-4c0-1.768 1.965-.906 3.592 1.577.901 1.375 1.946 2.5 2.322 2.5 1.91 0 2.98-7.225 2.545-17.189-.292-6.694-.085-10.924.554-11.319.561-.347.761-1.049.444-1.561-.316-.512-.224-1.493.206-2.181.429-.687.862-1.786.962-2.44.472-3.111 2.617-8.053 4.473-10.31l2.056-2.5-.62 6.896c-.341 3.792-1.145 7.842-1.788 9-.642 1.157-1.283 3.904-1.423 6.104-.141 2.2-.635 6.323-1.099 9.162-.464 2.839-.657 6.757-.429 8.705.407 3.487.451 3.518 2.809 1.973 1.318-.864 2.389-1.181 2.381-.705-.029 1.601-1.901 3.865-3.199 3.867-.85.001-1.354 1.697-1.486 5-.278 6.918.381 9.558 2.21 8.856 1.686-.647 2.053 1.176.437 2.175-1.424.88-.624 2.967 1.136 2.967.78 0 1.473.563 1.542 1.25.069.688.244 1.363.39 1.5.146.137.363 1.984.483 4.103.188 3.315 1.61 5.577 3.54 5.632.787.022.324-17.882-.569-21.985-.419-1.925-1.422-4.512-2.229-5.748-1.227-1.88-1.276-3.272-.299-8.5 1.081-5.786.926-11.15-.52-18.002-.931-4.412.173-3.215 3.406 3.694 1.769 3.779 2.815 7.397 2.531 8.75-.472 2.253-.448 2.249 1.049-.194l1.533-2.5-.044 2.5c-.024 1.375.142 3.377.368 4.448.247 1.169-.556 2.845-2.009 4.192-2.337 2.165-2.379 2.445-1.21 8.052.666 3.194 1.214 7.945 1.217 10.558.002 2.613.395 4.75.871 4.75.477 0 .867 1.899.867 4.221 0 5.999 2.214 14.779 3.727 14.779.7 0 1.273-.477 1.273-1.059s.419-.8.931-.484c.512.317 1.213.118 1.559-.441.345-.559.264-1.019-.181-1.023-1.373-.012-1.145-21.357.24-22.493 1.272-1.043 1.351-1.315 3.93-13.5.874-4.125 2.023-8.281 2.555-9.236.531-.955.995-2.98 1.029-4.5.063-2.737.073-2.741 1.006-.412.605 1.511.555 4.55-.14 8.5-.596 3.381-1.109 6.823-1.142 7.648-.033.825-.411 1.951-.84 2.502-.429.551-.78 3.121-.78 5.711 0 2.589-.367 5.289-.816 5.998-.449.709-.696 3.357-.549 5.883.147 2.527-.182 5.774-.729 7.215-.662 1.741-.662 2.827 0 3.236 1.103.682 10.927-6.407 10.927-7.883 0-1.217 3.761-4.451 6.004-5.163.972-.309 3.005-2.347 4.518-4.53 1.512-2.183 3.476-3.976 4.364-3.984 1.34-.013 1.374-.168.196-.913-1.483-.939 3.939-5.06 6.668-5.068.688-.002 1.25-.454 1.25-1.004s.873-1 1.941-1c2.508 0 3.518-1.643 1.654-2.689-3.167-1.776-6.253-7.796-5.835-11.382.343-2.938.002-3.719-2.123-4.855-3.134-1.678-4.346-4.271-1.879-4.02 3.289.333 3.507-.057 1.094-1.956-1.33-1.046-3.528-2.11-4.885-2.364-1.753-.328-1.309-.521 1.533-.668 2.774-.143 3.444-.426 2.185-.922-1.737-.685-1.732-.791.105-2.454 1.056-.956 2.624-1.468 3.485-1.138.86.33 2.739-.17 4.175-1.111 2.971-1.947 3.851-1.493 4.007 2.066.076 1.748-.413 2.493-1.639 2.493-1.759 0-4.213 3.272-3.207 4.277.297.297-.394.837-1.536 1.199-2.235.71-2.694 2.024-1.059 3.034.559.346.758 1.047.441 1.559-.316.512-.098.931.484.931s1.059-.45 1.059-1 1.125-1 2.5-1c3.11 0 3.512 3.502.492 4.292-2.482.649-2.163 5.285.349 5.074 1.78-.149 3.171 2.996 2.095 4.737-.899 1.456 1.28 2.784 3.582 2.182 1.691-.442 1.68-.587-.194-2.461-1.095-1.095-1.689-2.291-1.321-2.657.368-.367 1.49.345 2.493 1.583 2.365 2.917 3.796 2.838 11.018-.601 3.292-1.568 5.986-2.482 5.986-2.032 0 .451.675.561 1.5.245.825-.317 1.5-.12 1.5.437 0 .558.834.796 1.854.529 1.288-.337 1.77-1.247 1.58-2.983-.206-1.871.102-2.353 1.227-1.921.827.317 3.127.576 5.112.576 3.369 0 3.48.095 1.668 1.433-1.556 1.148-1.693 1.684-.691 2.7.935.947 1.25.964 1.25.067 0-1.172 3.28-4.953 4.728-5.45 1.188-.408 1.295-3.051.25-6.148-.662-1.963-.634-3.312.087-4.18 1.296-1.561-9.22-25.422-11.204-25.422-1.492 0-.933-1.758.766-2.41.953-.366 2.129.062 2.839 1.032.892 1.22 1.67 1.401 2.947.686 2.49-1.393 8.008 3.79 7.096 6.664-.372 1.173-.194 2.028.424 2.028.587 0 1.067.605 1.067 1.345s.9 2.16 2 3.155c1.1.995 2 2.908 2 4.251 0 3.21 3.408 7.892 7.158 9.831 1.651.854 3.636 3.073 4.415 4.939.779 1.863 2.621 4.505 4.095 5.872 2.262 2.098 2.477 2.727 1.383 4.046-1.075 1.294-1.045 1.561.173 1.561 1.058 0 1.468 1.173 1.468 4.199 0 2.309.52 4.372 1.154 4.583.635.212 1.154.845 1.154 1.408s-.704.754-1.565.423c-1.858-.713-1.052 2.913 1.133 5.098 2.939 2.939 3.454-3.764.907-11.791-.342-1.075-.14-1.92.458-1.92.587 0 1.067.955 1.067 2.122 0 1.626.304 1.871 1.297 1.046.993-.824 1.754-.228 3.243 2.536 1.938 3.598 9.657 8.264 13.71 8.286 2 .011 2.042.301 1.811 12.629-.126 6.75.324 10.525 1.733 14.536 1.547 4.402 2.82 15.642 2.304 20.345-.061.55-.476 6.175-.923 12.5-.447 6.325-1.15 12.242-1.562 13.149-1.595 3.508 1.303 2.593 5.304-1.675 3.32-3.542 4.878-4.474 7.483-4.474 3.248 0 6.6-2.452 6.6-4.829 0-1.518-1.321-1.464-8 .329-3.025.812-5.648 1.482-5.83 1.488-.54.02.928-13.213 1.873-16.879.898-3.486.042-8.741-2.748-16.859-2.055-5.982-2.049-29.602.009-32.932.335-.543.104-4.039-.515-7.77-.856-5.168-.84-7.236.067-8.688.838-1.343.887-2.471.167-3.817-.563-1.051-1.023-2.954-1.024-4.227 0-1.274-.928-4.759-2.063-7.744-1.135-2.986-1.827-6.372-1.537-7.524 1.318-5.255-6.356-28.116-9.995-29.774-2.591-1.18-3.031-2.269-1.339-3.314 1.509-.933-1.694-4.222-6.565-6.742-6.224-3.221-28.069-2.72-31 .711-1.772 2.073-2.711 2.302-8.221 2.005-6.641-.358-7.224-.016-7.806 4.576-.419 3.313 2.575 7.608 6.93 9.938 1.428.765 2.597 2.021 2.597 2.792 0 1.132-.304 1.099-1.572-.169-1.011-1.011-2.445-1.354-4.013-.96-2.512.63-5.803-1.174-4.876-2.674.284-.46-.438-1.348-1.605-1.972-1.35-.723-1.949-1.798-1.647-2.955.363-1.388-.205-1.918-2.406-2.241-1.584-.232-2.881-.051-2.881.404s.477.827 1.059.827.765.476.405 1.059c-.387.625-1.946.786-3.809.394-2.445-.514-2.896-.392-2.005.542.872.914.721 1.634-.626 2.981-1.346 1.346-1.684 2.955-1.397 6.65.267 3.449.089 4.435-.609 3.374-.817-1.241-.99-1.147-1.003.55-.008 1.127-.566 2.601-1.24 3.275-.967.967-.966 1.639.001 3.188 1.126 1.803.899 2.015-2.775 2.603-2.201.352-4.001 1.018-4.001 1.48 0 .463-.675.582-1.5.266-2.293-.88-1.785-2.362.809-2.362 1.27 0 3.182-.705 4.25-1.566 1.847-1.489 1.795-1.537-1.059-.975-7.53 1.481-12.645 1.666-14.043.506-.998-.829-1.457-.862-1.457-.107 0 2.137-9.529-.463-12.686-3.461-.885-.84-.897-1.414-.05-2.261.625-.625.708-1.143.186-1.151-.523-.009-.303-.425.487-.925.791-.5 1.543-2.293 1.672-3.985.212-2.778-.163-3.271-2.269-2.985-.363.049-1.061-.626-1.55-1.5-.489-.875-1.446-1.59-2.125-1.59-.68 0-1.236-.925-1.236-2.055 0-1.624.465-1.937 2.224-1.496 1.223.307 2.504.107 2.845-.445.341-.552-.217-1.004-1.239-1.004s-2.36-.501-2.972-1.113a1.986 1.986 0 0 0-2.45-.275c-.735.461-2.124.709-3.087.55-1.093-.18-1.75.35-1.75 1.41 0 .934-1.125 2.741-2.5 4.016-2.918 2.704-2.935 2.623-1-4.588 1.574-5.865 1.897-8.731.869-7.702-.348.347-1.384.229-2.304-.263-1.216-.651-2-.369-2.877 1.035-.999 1.601-.935 1.93.375 1.93 2.814 0-.693 2.576-4.56 3.349-6.059 1.212-8.473 2.813-10.517 6.975-1.984 4.041-5.501 6.765-4.134 3.201.496-1.291.276-1.596-.841-1.168-1.139.437-1.511-.151-1.511-2.388 0-1.633-.45-2.969-1-2.969s-1-1.136-1-2.525c0-2.006-.617-2.648-3-3.125-3.018-.604-4.076-2.799-1.75-3.63 2.435-.869-.171-1.902-6.171-2.447-3.343-.303-6.079-.938-6.079-1.412 0-.473-1.238-.905-2.75-.958-2.615-.093-2.566-.173 1-1.636 2.063-.846 3.75-1.913 3.75-2.371 0-.458.709-.561 1.575-.229 1.142.438 1.486.086 1.25-1.281-.27-1.567.395-1.938 3.925-2.193 2.515-.182 4.25.124 4.25.75 0 1.528 1.902 1.298 3.641-.441.998-.998 2.059-1.21 3.178-.635.925.474 2.244.661 2.931.415.688-.247 1.25.032 1.25.62 0 .663 1.71.909 4.5.647 2.475-.232 4.5-.04 4.5.427 0 .466 1.772 1.148 3.939 1.514 2.839.479 3.786 1.062 3.393 2.088-.337.879.09 1.422 1.12 1.422.916 0 1.431-.38 1.145-.844-.287-.464 1.149-.743 3.191-.62 2.501.15 3.817.752 4.035 1.844.178.891.789 1.62 1.357 1.62.569 0 .765-.7.437-1.555-.924-2.408 3.861-7.123 5.689-5.606 1.594 1.323 4.334-.829 2.935-2.305-.407-.43.271-.471 1.509-.091 1.542.474 2.255.277 2.265-.626.013-1.062.173-1.069.83-.033.471.742 1.557.999 2.575.609 1.758-.675 1.759-1.403.013-7.393l-.729-2.5 2.595 2.374c2.243 2.053 2.788 2.182 4.016.954 3.194-3.194 3.763-9.912 1.093-12.907-1.98-2.22-1.75-3.244.592-2.631 2.291.599 2.37.417 1-2.304l-2-3.972c-.55-1.093-1-2.668-1-3.5 0-.833-.394-1.514-.875-1.514s-1.145-1.238-1.476-2.75c-.33-1.512-.908-3.833-1.282-5.156-.543-1.915-.395-2.225.725-1.516.775.49 1.752.898 2.172.907 1.468.029 3.659 5.369 2.399 5.846-.732.277-.422 1.009.837 1.977 1.838 1.413 2.062 1.372 2.765-.514.424-1.134.316-2.594-.241-3.265-.554-.667-.673-1.547-.265-1.954.407-.408.757-1.042.776-1.408.107-2.015 2.755-5.277 3.598-4.434 1.201 1.201-.512 9.265-2.188 10.301-.681.421.932 1.036 3.724 1.421 5.168.71 9.469 2.5 6.081 2.53a1.743 1.743 0 0 0-1.756 1.765c-.004.962-.635 2.956-1.404 4.429-.769 1.474-1.172 2.905-.896 3.181.779.78 3.356-.47 2.806-1.36-.269-.435.184-1.048 1.006-1.364.822-.315 1.494-1.68 1.494-3.033s.777-3.237 1.727-4.187c1.636-1.637 1.757-1.601 2.296.678.534 2.256.616 2.283 1.33.425.45-1.171.329-2.125-.296-2.333-.581-.194-1.057-1.44-1.057-2.769 0-1.911-.523-2.417-2.5-2.417-2.901 0-3.274 1.45-.75 2.92 1.573.916 1.528 1.022-.441 1.05-1.205.016-2.457-.4-2.782-.926-.325-.526-1.252-.703-2.059-.393-.807.309-1.468.102-1.468-.461 0-.563.428-1.173.951-1.357.523-.183 1.127-2.062 1.341-4.175.214-2.114.831-4.139 1.371-4.5 1.353-.906 1.103-5.793-.371-7.266-.943-.943-1.55-.923-2.774.093-2.17 1.801-2.871.712-2.12-3.294.563-2.999.991-3.39 3.618-3.297 2.638.094 4.506 1.606 1.984 1.606-.55 0-1 .675-1 1.5 0 2.468 2.589 1.697 3.891-1.159.968-2.125.95-2.826-.09-3.485-1.053-.668-1.042-.828.056-.841.793-.009 1.118-.638.781-1.515-.316-.825-.139-1.5.393-1.5.533 0 .969-1.538.969-3.417 0-1.879.563-3.651 1.25-3.937.88-.366.659-.995-.75-2.126-2.261-1.816-2.27-1.75.652-4.672 1.923-1.923 2.275-1.984 3.306-.574 1.034 1.413 1.278 1.379 2.348-.335 2.978-4.769 1-5.8-6.556-3.416-1.625.513-2.25.308-2.25-.74 0-.797-.675-1.45-1.5-1.45s-1.5.299-1.5.664c0 .364-4.837.541-10.75.393-10.971-.276-24.882 1.206-25.838 2.752-.291.472-1.729.858-3.194.858h-2.663l2.399-1.68c1.319-.924 3.114-1.733 3.99-1.797.875-.065 2.191-.489 2.925-.942.733-.453 3.65-1.117 6.482-1.474 4.414-.557 5.099-.932 4.799-2.624-.327-1.841-.225-1.865 1.5-.357 2.493 2.18 8.049 2.214 9.308.057.569-.976.994-1.158 1.012-.433.016.688.694 1.25 1.505 1.25 1.122 0 1.324-.756.844-3.155-.451-2.256-.302-2.952.525-2.441.675.417 1.156.1 1.156-.762 0-.811-.562-1.676-1.25-1.922-1.953-.697-.122-1.97 2.835-1.97 1.767 0 2.833-.633 3.158-1.875.27-1.031 1.124-1.875 1.898-1.875.775 0 1.847-1.154 2.384-2.565 1.213-3.192 1.221-3.705.043-2.977-.512.316-1.599-.378-2.415-1.542-1.482-2.117-1.484-2.116-3.042.733-1.533 2.804-1.569 2.814-2.201.601-.354-1.238-1.166-2.25-1.804-2.25-.954 0-4.606-3.39-4.606-4.275 0-.138 2.668-.251 5.93-.251 7.185 0 7.291-.094 7.86-6.96.356-4.283.122-5.611-1.068-6.067-1.233-.474-1.338-1.254-.55-4.107.792-2.868.651-3.878-.755-5.431-2.376-2.626-3.232-2.391-2.636.725.455 2.381-.002 2.14-4.738-2.497-2.883-2.823-5.647-4.882-6.142-4.576-.496.306-.901-.145-.901-1.002 0-1.897.108-1.903 3.393-.199 3.64 1.889 7.857 1.004 7.068-1.482-.41-1.292-.107-1.878.972-1.878.862 0 1.567.787 1.567 1.75 0 1.2.786 1.75 2.5 1.75 2.362 0 2.988-.731 2.544-2.973-1.036-5.228-.91-7.527.412-7.527.795 0 1.845.715 2.334 1.59.489.874 1.259 1.436 1.711 1.25.451-.187 1.362 1.235 2.023 3.16.76 2.213 1.805 3.449 2.839 3.361 1.809-.153 2.203 1.171.637 2.139-.55.34-1 1.068-1 1.618s.45.722 1 .382c.564-.348 1 .462 1 1.859 0 4.845 3.305 8.142 4.177 4.167.241-1.099.704-1.206 1.823-.424 1.021.715 1.133 1.201.352 1.524-.725.298-.953 1.93-.619 4.423.362 2.699.15 3.951-.669 3.951-.721 0-.959.754-.597 1.895.351 1.106-.067 2.562-1.004 3.5-1.46 1.459-1.463 1.748-.034 3.176.864.865 1.571 1.229 1.571.809 0-.419.606.067 1.347 1.08 1.887 2.58 2.841.456 1.209-2.689-1-1.928-1.053-2.874-.207-3.72.846-.846.832-1.321-.055-1.869-.714-.442-.855-1.274-.353-2.087.459-.743 1.336-1.042 1.947-.664.623.385 1.167.002 1.237-.872.069-.857.238-2.009.375-2.559.137-.55.351-2.238.475-3.75l.224-2.75.801 2.5c1.496 4.67 1.185 11.285-.5 10.638-1.819-.698-1.96.502-.258 2.204.988.988.938 1.433-.25 2.184-1.299.821-1.286.945.097.959 1.543.015 4.464 4.795 3.512 5.747-.26.261-.009 1.665.558 3.121 1.545 3.967 1.622 8.073.185 9.963-2.134 2.806-1.677 5.071.906 4.493 1.902-.426 1.786-.18-.75 1.587-1.65 1.15-3.863 2.094-4.917 2.097-1.054.004-1.619.304-1.256.667.363.363-.223 1.279-1.302 2.035-1.358.951-1.922 2.428-1.833 4.799.117 3.106 1.808 4.137 1.808 1.102 0-.707.9-2.101 2-3.096 1.94-1.756 2-1.747 2 .298 0 3.205-2.083 7.094-4.152 7.75-2.004.636-2.547 2.452-.733 2.452.681 0 .477.974-.523 2.5-1.504 2.295-1.343 2.934.658 2.618.413-.065.75.38.75.989s-.675.848-1.5.531c-1.96-.752-1.905.257.136 2.512 1.336 1.476 1.382 1.886.25 2.233-5.097 1.563-5.139 1.604-4.541 4.59.336 1.684-.052 4.474-.907 6.522-1.003 2.401-1.188 4.129-.561 5.25.67 1.198.466 2.029-.721 2.931-1.487 1.132-1.427 1.264.594 1.292 3.005.043 2.839.881-1.005 5.065-2.217 2.413-3.22 4.472-3.166 6.5.083 3.112-1.42 7.467-2.577 7.467-.373 0-.756 2.057-.851 4.57-.095 2.514-.582 6.394-1.083 8.623-.501 2.229-.673 4.673-.382 5.43.29.757-.025 1.377-.701 1.377-.966 0-.963.322.015 1.5.685.825 2.09 1.5 3.122 1.5 1.033 0 1.878.675 1.878 1.5 0 1.655 4.915 2.127 6.55.63.546-.501 2.226-.307 3.95.454 1.65.729 2.411 1.346 1.691 1.371-1.989.068-.334 2.045 1.713 2.045.982 0 2.539.832 3.459 1.848 2.92 3.227 8.318 2.462 7.755-1.098-.142-.902.194-.893 5.654.163 2.349.455 4.501.455 4.782 0 .28-.454 1.111-.595 1.845-.313 1.085.416 1.147-.441.332-4.564-.84-4.246-.738-5.371.621-6.872.893-.987 1.905-3.199 2.248-4.916.344-1.716 1.227-3.352 1.964-3.634.737-.283 1.163-1.437.946-2.564-.218-1.128-.084-2.051.297-2.052.381-.001.811-1.913.955-4.25.498-8.089 1.443-13.748 2.295-13.748.471 0 1.045-7.987 1.276-17.75.442-18.715.788-23.187 2.105-27.25.446-1.375.476-2.184.067-1.798-.409.387-1.283.162-1.943-.5-1.522-1.524-2.594-5.511-1.588-5.904.419-.164 1.06-1.257 1.424-2.43.559-1.8.193-2.201-2.345-2.573-1.653-.243-3.354-.133-3.78.245-1.671 1.485-7.05 2.716-8.351 1.912-1.071-.662-.94-.98.606-1.471 5.468-1.738 8.627-3.634 8.146-4.889-.285-.741.01-1.919.654-2.617.926-1.003.762-1.124-.783-.575-1.075.382-4 .967-6.5 1.301-2.5.334-4.832 1.045-5.183 1.581-.369.563-1.214.614-2 .121-.749-.469-2.115-.729-3.036-.578-2.1.345-2.73-3.033-1.461-7.825.51-1.925 1.028-6.65 1.152-10.5.638-19.918 1.228-25.032 3.348-28.986L325 178.53v4.435c0 3.548.25 4.185 1.25 3.185.688-.688 1.25-1.753 1.25-2.367 0-.614.634-1.328 1.409-1.586.972-.324 1.214.041.778 1.175-.347.905-.226 2.709.268 4.01.593 1.558.515 2.748-.228 3.491-.836.836-.578 1.127 1 1.127 1.229 0 2.27-.739 2.467-1.75.447-2.3 4.425 11.566 7.028 24.5 1.795 8.923 2.323 10.25 4.076 10.25 2.772 0 8.602 4.632 9.879 7.848 3.597 9.056 4.693 42.299 1.668 50.575-1.015 2.777-1.845 6.097-1.845 7.379 0 1.281-.466 3.2-1.035 4.264-.743 1.387-.713 1.934.107 1.934.697 0 .86.682.417 1.75-1.033 2.493-1.443 5.88-1.544 12.75-.048 3.3-.54 7.752-1.093 9.893-.739 2.859-.692 4.088.178 4.625 1.384.856.548 1.447-3.376 2.387-1.644.394-3.41.213-4.183-.429-1.016-.844-1.861-.586-3.522 1.075-1.759 1.759-1.918 2.354-.817 3.052 1.93 1.223 5.263 1.102 6.604-.239 1.342-1.342 4.473 1.212 4.032 3.29-.161.759 1.685 1.759 4.641 2.515 4.949 1.264 9.858 3.224 14.745 5.885 1.46.795 3.341 1.446 4.179 1.446 2.637 0 4.645 2.858 4.066 5.789-.294 1.491-.127 3.804.371 5.139l.906 2.429 1.824-3.088c1.444-2.444 2.081-2.831 3.054-1.858 3.039 3.039 1.601 7.308-3.026 8.983-1.521.55-1.666.902-.637 1.539 1.032.638 1.053.919.089 1.24-.798.266-.992 1.213-.541 2.636.388 1.221 1.123 1.962 1.633 1.647.51-.316.928-.15.928.368 0 .519-.945 1.19-2.101 1.492-1.199.314-1.809 1.021-1.42 1.65.374.605.864 2.773 1.089 4.817.801 7.282 1.537 10.217 2.561 10.217.571 0 .846.562.611 1.25s.321 1.925 1.236 2.75c2.768 2.497 5.334 14 3.123 14-.536 0-.907.9-.824 2 .083 1.1.842 1.993 1.688 1.985 1.69-.017 5.149-1.944 3.537-1.971-.55-.009-1.071-2.604-1.157-5.765-.323-11.837-.681-15.781-1.535-16.894-.483-.629-.809-1.529-.725-2 .383-2.129-.143-8.629-.656-8.116-.314.315-.791 3.428-1.059 6.917-.578 7.52-1.849 9.484-2.69 4.154-.852-5.404-1.153-6.676-1.844-7.81-.501-.822-.478-4.655.038-6.441.071-.243.789.432 1.596 1.5 1.341 1.772 1.471 1.38 1.5-4.509.036-7.284 1.781-7.338 2.754-.085.311 2.314 1.194 4.449 1.963 4.745.971.372 1.238 1.554.871 3.862-.291 1.83-.078 3.606.474 3.946.551.341.701 1.109.332 1.706-.429.693-.198.793.638.276.82-.507 1.066-.417.66.241-.357.578.233 2.11 1.312 3.405s2.029 1.904 2.113 1.354c.083-.55.309-2.35.502-4 .194-1.65.64-5.193.993-7.873.471-3.577.279-5.102-.72-5.734-1.963-1.244-3.098-1.086-2.568.357.252.688.964 1.138 1.583 1 1.679-.373 1.358 2.374-.494 4.226-2.049 2.049-2.243 1.816-2.505-3.014-.118-2.179-.813-5.177-1.545-6.662-1.589-3.225-1.68-4.134-.331-3.3 2.289 1.415.136-6.058-2.184-7.58-1.24-.814.184-4.096 1.557-3.587.62.229 1.015.923.877 1.542-.137.619.2 1.125.75 1.125s1-.466 1-1.035c0-.709.602-.713 1.91-.013 1.324.708 1.736 1.687 1.342 3.191-.389 1.489-.204 1.945.59 1.454.637-.393 1.158-1.433 1.158-2.311 0-1.434.178-1.441 1.75-.071.962.838 2.238 1.345 2.833 1.127.596-.219 1.084.29 1.084 1.13 0 .841-.402 1.528-.893 1.528-.49 0-.584.498-.208 1.107.479.774.93.708 1.505-.222.653-1.056.951-.992 1.453.316 1 2.606 4.164-.996 3.69-4.201-.307-2.069-.168-2.241.802-1 1.019 1.303 1.103 1.283.645-.158-.374-1.174.241-1.852 2.103-2.319 1.816-.456 2.238-.904 1.36-1.446-.993-.614-.912-1.146.372-2.43 1.525-1.525 1.44-1.727-1.176-2.803-2.133-.876-2.407-1.258-1.125-1.564.991-.237 1.465-1.002 1.143-1.843-.583-1.517.64-1.828 6.412-1.632 1.788.061 3.25-.321 3.25-.847 0-.527.932-.958 2.071-.958 1.884 0 1.929-.143.5-1.571-1.793-1.794-1.993-3.05-.621-3.898.522-.323 1.438.326 2.035 1.441.597 1.115 1.745 2.028 2.55 2.028.955 0 1.465 1.025 1.465 2.941 0 2.905 1.148 4.578 2.329 3.396.335-.334 2.085-.74 3.89-.902 4.605-.413 9.018-2.242 8.282-3.433-.34-.551-1.267-1.002-2.06-1.002-.793 0-1.441-.675-1.441-1.5s.845-1.5 1.878-1.5c1.032 0 2.437.675 3.122 1.5 1 1.205.985 1.5-.078 1.5-4.327 0 1.704 2.013 7.606 2.538l7.015.625 1.844-4.178c1.149-2.605 2.873-4.613 4.58-5.332 2.168-.913 2.581-1.569 1.99-3.153-.426-1.14-.232-2.86.45-4 2.022-3.379 3.883-10.222 3.117-11.461-.443-.717.084-1.385 1.358-1.718 2.184-.571 5.763-6.321 3.934-6.321-.566 0-.771-.675-.454-1.5.344-.896.008-1.5-.834-1.5-.776 0-1.62-.34-1.877-.756-.806-1.303 1.418-11.42 3.062-13.929 2.202-3.36 3.426-10.609 1.948-11.531-.869-.541-.835-1.249.137-2.816.713-1.151 1.037-2.912.72-3.912-.356-1.121.01-2.045.952-2.406.842-.323 1.53-.151 1.53.381 0 .533.45.969 1 .969s1.003-2.363 1.008-5.25c.004-2.887.49-8.175 1.08-11.75.59-3.575 1.174-9.65 1.298-13.5.26-8.085 2.469-16.5 4.332-16.5.705 0 1.333-1.012 1.396-2.25.063-1.238.249-3.375.414-4.75.342-2.853 1.28-13.96 2.117-25.071.47-6.238.279-7.862-1.088-9.229-.912-.912-1.909-3.806-2.214-6.429-.306-2.624-.924-6.796-1.375-9.271-.451-2.475-.687-6.863-.524-9.75.241-4.289-.002-5.253-1.325-5.265-1.29-.013-1.343-.191-.262-.875.774-.491.947-1.113.403-1.449-1.166-.721-1.433-6.436-.333-7.116.904-.559-1.052-7.545-2.113-7.545-.383 0-.974.45-1.314 1-.949 1.536-2.303 1.19-2.937-.75-.986-3.019-20.114-14.071-32.332-18.68-22.428-8.463-24.782-9.257-34.231-11.557-17.472-4.252-32.011-8.598-38.5-11.51-2.75-1.234-8.375-3.275-12.5-4.536-20.978-6.414-40.542-20.321-54.558-38.784-7.434-9.794-13.006-14.923-20.121-18.524-2.849-1.442-5.463-3.08-5.809-3.64-.889-1.438-2.562-1.27-2.262.227m46.232 168.574c.156.924.786 1.567 1.401 1.43 1.022-.229 1.593 2.408 1.192 5.5-.09.688.293 1.25.851 1.25.557 0 .955 1.557.883 3.46-.082 2.181-.533 3.23-1.22 2.839-.599-.341-.795-.291-.435.111.36.402.045 1.905-.699 3.339-1.363 2.628-1.133 4.251.604 4.251.518 0 .941-.927.941-2.059 0-4.398 1.772-.67 2.425 5.101.458 4.044 1.089 5.951 1.882 5.683 1.242-.42 1.709-8.831.539-9.725-.359-.275-.898-3.35-1.196-6.833-.299-3.484-1.013-6.9-1.588-7.592-.575-.693-.822-1.482-.549-1.755.273-.273.033-1.824-.533-3.447-1.119-3.211-5.006-4.553-4.498-1.553m-106.726 35.788c-.384.609-.261 2.631.273 4.493 1.48 5.159 1.196 8.589-.779 9.431-4.926 2.099-18.211 2.051-26.497-.096-3.327-.862-7.808-1.441-9.958-1.285-2.356.17-4.221-.222-4.694-.987-.431-.698-1.407-1.133-2.169-.967-.792.173-1.531-.659-1.728-1.947-.189-1.238-.837-2.25-1.44-2.25-.604 0-.801.296-.439.658.362.362.19 1.222-.382 1.911-.721.868-.718 1.452.008 1.901.577.356 1.049 1.548 1.049 2.648s.45 1.722 1 1.382c.55-.34 1-.163 1 .394 0 1.218 6.507 3.147 10 2.964 2.348-.122 2.364-.157.25-.564-1.238-.238-2.25-.814-2.25-1.28 0-1.148 8.839-1.084 9.552.069.311.505-.136.917-.993.917-2.315 0-1.892 1.988.441 2.071 3.545.127 10.992.076 11.25-.076.137-.081 1.018-.296 1.957-.477.938-.18 3.072-1.01 4.741-1.842 1.675-.836 3.284-1.109 3.593-.61.632 1.022 8.527.266 9.726-.933.43-.43.125-3.448-.678-6.707s-1.612-6.826-1.798-7.926c-.205-1.214-.612-1.565-1.035-.892m-52.348 22.06c.1 2.382-.245 4.332-.766 4.332s.112.919 1.408 2.043c3.096 2.686 6.105 2.141 7.803-1.414 1.153-2.413 1.156-3.005.018-3.709-1.006-.621-1.064-1.127-.226-1.965.807-.807 1.321-.819 1.801-.042.37.598 1.883 1.073 3.363 1.057 2.461-.028 2.527-.126.775-1.143-2.2-1.277-7.864-2.836-11.72-3.225-2.508-.254-2.628-.055-2.456 4.066m72.414 21.349c-.219 1.435.511 3.749 1.728 5.483 1.158 1.65 2.685 5.025 3.394 7.5a638.666 638.666 0 0 0 2.121 7.25c.507 1.677.454 2.75-.136 2.75-1.083 0-.35 4.312 1.318 7.75.6 1.238 1.69 2.25 2.422 2.25.732 0 1.331.675 1.331 1.5s.402 1.5.893 1.5c1.132 0 2.17-2.604 1.361-3.413-1.308-1.307-5.374-14.301-5.661-18.087-.466-6.162-2.642-14.5-3.783-14.5-.563 0-.765.675-.448 1.5 1.007 2.626-1.24 1.611-2.73-1.233l-1.432-2.733-.378 2.483m44.811 2.497c-.346.901.028 1.803.884 2.131 1.994.765 1.867 1.971-.452 4.29-1.064 1.064-2.378 3.539-2.919 5.5-.928 3.36-.849 3.565 1.384 3.565 2.295 0 7.47-5.355 7.47-7.73 0-.573.663-2.32 1.474-3.882 1.725-3.326 1.275-3.924-3.608-4.79-2.787-.495-3.774-.281-4.233.916M.476 373c0 43.175.123 60.838.274 39.25.15-21.587.15-56.912 0-78.5C.599 312.163.476 329.825.476 373m31.916-16.75c.69 8.779 2.53 33.743 2.579 35 .064 1.645 2.029.628 2.029-1.05 0-.99.559-2.359 1.242-3.042.988-.988.982-1.402-.034-2.03-.702-.433-1.019-1.456-.706-2.273.314-.817.18-2.54-.297-3.829-1.145-3.097-.315-7.282 1.32-6.655.925.355 1.287-.974 1.334-4.896.05-4.146-.248-5.263-1.296-4.861-2.587.993-4.529-6.184-2.124-7.849.693-.48.607-.74-.248-.75-.72-.008-1.037-.456-.704-.994.775-1.255-1.213-5.021-2.651-5.021-.755 0-.892 2.551-.444 8.25M401.29 372c.287 1.1.085 2-.451 2s-.679.93-.318 2.066c.588 1.854.856 10.918.581 19.684L401 399l-2.083-2.083c-1.146-1.146-2.371-1.797-2.721-1.446-.351.351-.123.956.506 1.345 2.534 1.566 5.551 14.184 3.392 14.184-.499 0-.671.9-.384 2 .293 1.118.031 2-.593 2-.615 0-1.117.477-1.117 1.059s.526.734 1.17.336c.794-.491.958-.171.511.993-.437 1.139-.277 1.48.476 1.015.779-.481.947.051.535 1.698-.33 1.319-.217 4.089.25 6.154.524 2.318.476 3.986-.125 4.358-.555.343-.726 2.816-.397 5.745l.577 5.142-1.516-4.5c-.834-2.475-1.752-6.3-2.04-8.5-1.527-11.681-3.493-10.81-3.597 1.593-.105 12.505-.048 12.902 1.453 10.201 1.74-3.129 3.307-1.596 4.139 4.048.805 5.457 1.764 5.595 1.764.253 0-3.089.184-3.354 1.449-2.089 2.554 2.555-.021 8.333-3.175 7.123-1.163-.447-1.474.376-1.474 3.902 0 2.458.378 4.469.839 4.469 1.666 0 2.993 4.837 2.446 8.913-.37 2.76-.028 5.246 1.014 7.375.866 1.767 1.845 3.887 2.176 4.712.332.825 1.2 2.534 1.93 3.797 1.326 2.296 1.326 2.296 1.961-.875.349-1.745.648-5.253.664-7.797.025-3.781.227-4.288 1.104-2.779 1.264 2.174.367 10.983-1.721 16.901-1.807 5.122-1.816 8.753-.02 8.753 1.896 0 2.403-1.666 3.208-10.552.443-4.886 1.168-7.806 2.019-8.132 1.53-.588 1.63-17.316.103-17.316-.485 0-.593-1.315-.24-2.923.584-2.659.434-2.877-1.671-2.413-1.505.332-1.881.2-1.077-.377.679-.488 1.505-2.439 1.834-4.337.453-2.604.337-3.082-.469-1.95-.588.825-1.076 2.32-1.085 3.323-.024 2.872-3.481 1.621-3.693-1.336-.098-1.368-.385-5.637-.637-9.487-.252-3.85-.934-9.025-1.516-11.5-.965-4.103-1.218-8.203-1.019-16.5.039-1.65-.397-4.462-.969-6.25-.617-1.925-.662-3.25-.111-3.25.511 0 .93-.436.93-.969 0-.532-.675-.709-1.5-.393-.905.348-1.5.005-1.5-.864 0-2.134 4.215-1.471 5.106.803.53 1.353.774.664.824-2.327.054-3.266-.302-4.25-1.537-4.25-1.002 0-1.395.553-1.044 1.468.31.807.133 1.734-.393 2.059-.527.326-.956-.755-.956-2.409 0-1.65.466-3.288 1.036-3.64.569-.352.99-2.291.934-4.309-.114-4.149.226-6.092 1.394-7.963.455-.728.296-1.911-.364-2.706-.645-.777-.901-1.851-.57-2.387a1.148 1.148 0 0 0-.37-1.576c-.535-.331-.691-1.335-.346-2.233.418-1.091.238-1.392-.544-.909-.644.398-1.17.246-1.17-.336 0-.582-.502-1.059-1.117-1.059-.624 0-.886.882-.593 2M373 381.559c0 2.794.388 4.319 1.003 3.939 1.069-.661.823 1.781-.486 4.819-.459 1.066-.314 2.286.35 2.95.623.623 1.133 1.943 1.133 2.933 0 .99.45 1.8 1 1.8s1 .9 1 2 .45 2 1 2 1 .9 1 2c0 1.119.667 2 1.514 2 1.758 0 1.517-2.074-1.665-14.35-2.089-8.061-4.501-14.65-5.362-14.65-.268 0-.487 2.052-.487 4.559m36.731 16.044c-.332.331-.172 1.736.354 3.121.64 1.684.603 2.947-.112 3.809-.744.896-.75 1.487-.022 1.937.584.36 1.052-.155 1.055-1.161.004-1.259.472-.917 1.538 1.127.842 1.615 1.341 3.64 1.109 4.5-.34 1.264-.443 1.228-.537-.186-.064-.962-.769-1.75-1.566-1.75-2.514 0-3.343 2.928-1.941 6.852.717 2.007 1.323 5.084 1.347 6.839.024 1.755.494 3.469 1.044 3.809.55.34 1 1.491 1 2.559s-.45 1.941-1 1.941-1-.45-1-1-.502-1-1.115-1c-.686 0-.497.944.493 2.454 1.755 2.679.717 7.797-1.481 7.303-.631-.141-1.353.306-1.606.994-.307.837.119 1.029 1.289.58 1.192-.458 1.518-.299 1.025.499-.398.644-.246 1.17.336 1.17.582 0 1.059-.45 1.059-1s.563-1 1.25-1c.782 0 1.242-1.405 1.228-3.75-.013-2.063.264-4.2.613-4.75.751-1.18.79-1.545 1.317-12.24.458-9.299-3.383-23.951-5.677-21.657M.483 565c0 62.425.12 87.963.267 56.75.147-31.212.147-82.287 0-113.5C.603 477.038.483 502.575.483 565m96.021-80.735c-.401.971-.5 2.642-.22 3.713.28 1.072-.065 2.425-.767 3.008-1.467 1.218-2.6 5.582-3.097 11.932-.357 4.568-2.016 6.663-3.983 5.03-.839-.696-.815-2.166.09-5.693 1.279-4.98.525-6.45-2.009-3.916-.825.825-1.071 1.649-.546 1.831.525.181-.716 2.194-2.759 4.471-3.672 4.095-6.213 4.731-6.213 1.553 0-1.349-.387-1.251-2.194.556-2.387 2.387-1.813 4.331.67 2.27 1.286-1.068 1.524-.924 1.524.917 0 1.199-.45 1.903-1 1.563-.55-.34-1 .11-1 1s.45 1.34 1 1c1.518-.938 1.195.448-.5 2.143-.825.825-1.5 2.191-1.5 3.035 0 .955.568 1.318 1.5.96.825-.316 1.5-.139 1.5.393 0 .533-.562.969-1.25.97-.687 0-2.203 2.059-3.369 4.574l-2.119 4.574 2.39.909c2.133.811 2.345 1.395 1.969 5.425-.233 2.484-.049 4.517.408 4.517.457 0 .426 1.414-.07 3.142-.496 1.729-.625 3.589-.288 4.134.336.545.708 2.577.826 4.515.119 1.961.97 4.077 1.918 4.771 1.086.794 1.32 1.484.645 1.901-1.645 1.017-1.111 8.699.837 12.037 1.263 2.165 2.635 3.087 4.927 3.313 3.086.305 4.111 1.491 2.27 2.629-.498.308-.653 1.53-.343 2.715.387 1.477.2 1.93-.593 1.44-.637-.393-1.158-.213-1.158.401 0 .688-.851.52-2.223-.441C78.559 579.302 78 579.59 78 583.5v3.5h5.441c2.993 0 5.701-.42 6.018-.934.318-.514 2.257-.705 4.309-.426l3.732.509-5.434-3.263c-2.989-1.795-4.898-3.442-4.244-3.66.655-.218.936-.808.625-1.311-.311-.503.067-.915.839-.915s2.219-.9 3.214-2c1.777-1.963 1.747-2-1.649-2-3.354 0-3.461-.121-3.547-4-.048-2.2.314-4 .804-4 .491 0 .892.477.892 1.059s.52.738 1.155.346c.763-.473.88-.271.345.595s-.418 1.068.345.595c.73-.451 1.155.044 1.155 1.346 0 1.132.45 2.059 1 2.059s1-.675 1-1.5.402-1.5.893-1.5 1.152.675 1.469 1.5c.316.825.201 1.5-.257 1.5-.719 0-.778 1.387-.233 5.45.071.523.637.441 1.26-.182.843-.843 1.844-.606 3.919.928 1.532 1.133 4.51 2.196 6.618 2.363 2.107.167 6.306.739 9.331 1.272 5.427.954 7.412.722 5.423-.635-.561-.383-2.085-2.271-3.388-4.196-2.689-3.974-7.729-9-9.024-9-2.216 0-4.794-5.158-4.625-9.251.212-5.138 1.623-8.074 2.576-5.359.774 2.207 2.333 2.205 2.657-.002.287-1.953-2.037-4.613-3.137-3.59-.415.386-.531-.535-.257-2.048.54-2.986-.604-3.683-1.988-1.209-1.196 2.138-3.978.861-5.8-2.662-1.403-2.714-1.373-2.879.537-2.879 2.154 0 2.793-1.578.896-2.21-.681-.227-1.187-3.212-1.272-7.503-.104-5.199-.609-7.642-1.87-9.035-2.14-2.365-2.154-2.874-.101-3.662.936-.36 2.115.043 2.776.947 1.678 2.294 4.402.895 3.853-1.978-.289-1.511-1.754-2.931-4.133-4.003-3.94-1.777-5.005-5.752-2.043-7.627.781-.494.936-.905.345-.914-1.38-.019-1.267-9.249.136-11.122.729-.974.686-2.747-.142-5.893-.896-3.405-1.362-4.071-1.915-2.735m311.048 24.985c-1.099 3.567-1.744 7.889-2.116 14.16-.226 3.826-.835 7.219-1.353 7.539-.518.32-1.253 5.525-1.632 11.566-.38 6.042-.957 11.433-1.282 11.98-.325.548-.68 2.798-.79 5-.11 2.203-.775 6.808-1.477 10.235-1.437 7.015-.972 8.34 1.915 5.453 1.442-1.442 1.683-2.283.883-3.083-.8-.8-.766-1.1.125-1.1 2.865 0 4.295-11.675 6.645-54.216.204-3.695.658-7.182 1.009-7.75.352-.569.148-1.034-.451-1.034-.6 0-1.264.563-1.476 1.25M49.667 546.667c-.367.366-.66 1.829-.652 3.25.009 1.42.346 2.133.75 1.583s1.792-1.594 3.085-2.321c2.335-1.312 2.345-1.295 1.662 2.75-.454 2.688-.318 4.071.4 4.071.598 0 1.088 1.323 1.088 2.941 0 1.618.45 3.219 1 3.559 1.582.978 1.163 5.309-.609 6.301-1.463.819-1.455.96.09 1.553.935.359 2.096.408 2.58.108.484-.299 1.167.6 1.518 1.997.351 1.398 1.039 2.541 1.529 2.541.491 0 .892.675.892 1.5s-.398 1.5-.884 1.5-.74 1.462-.564 3.25c.176 1.788.349 3.614.384 4.059.035.445.521.526 1.08.181.559-.346.758-1.047.441-1.559-.316-.512-.098-.931.484-.931S65 581.848 65 580.441c0-1.407-.338-2.354-.75-2.103-.413.251-.818-1.297-.9-3.441-.106-2.745.264-3.897 1.25-3.897.77 0 1.4.45 1.4 1a1 1 0 0 0 .994 1c.546 0 .841-.998.655-2.218-.271-1.773-1.021-2.23-3.744-2.284-3.719-.073-3.717-.063-1.23-4.758 2.066-3.902 2.462-5.74 1.237-5.74-.502 0-.912.45-.912 1s-.338 1-.752 1c-.907 0-5.255-8.014-5.251-9.679.007-2.887-5.401-5.584-7.33-3.654M301 585.835c0 .538-1.012.756-2.25.485-1.808-.397-1.955-.283-.75.578.825.589 1.145 1.078.711 1.087-.434.008.131 1.003 1.256 2.209 1.241 1.333 1.683 2.556 1.126 3.113-.993.993-3.393-.004-2.712-1.126.227-.375-.639-1.47-1.926-2.434-2.318-1.737-2.36-1.716-4.838 2.44-1.376 2.306-2.275 4.557-2 5.003 1.342 2.171 17.383-.31 17.383-2.689 0-1.096-3.237-6.881-4.63-8.274-.753-.753-1.37-.93-1.37-.392" fill="#d3d3d3" fill-rule="evenodd"/></svg>