<svg xmlns="http://www.w3.org/2000/svg" width="500" height="889"><path d="M369.485 242.098c-5.75 3.028-11.22 8.654-14.002 14.402-2.749 5.68-4.419 17.803-2.607 18.923.618.382 1.124 2.659 1.124 5.06 0 2.4.526 6.642 1.168 9.426.988 4.279.932 5.334-.365 6.826-1.599 1.839-3.279 7.265-2.251 7.265.325 0 1.27-.679 2.1-1.509 1.678-1.678 3.348-1.145 3.348 1.068 0 1.676 2.572 1.943 3.545.368 1.218-1.97 3.703 2.95 2.968 5.876-.572 2.282-.855 2.465-1.848 1.196-1.527-1.953-3.794-2.409-4.699-.945-1.227 1.987-5.15.101-4.44-2.135.341-1.074.139-1.919-.459-1.919-.587 0-1.067.93-1.067 2.066 0 5.414-.959 5.949-21.5 12.008-18.686 5.511-22.36 7.898-34.885 22.66-2.111 2.488-2.947 6.943-1.474 7.853.53.328-.438 1.936-2.153 3.575-2.493 2.382-2.881 3.262-1.94 4.395.646.78.915 2.098.595 2.93-.356.927-.012 1.513.888 1.513 1.001 0 1.469-1.073 1.469-3.365 0-1.851.885-4.491 1.967-5.866 1.082-1.376 1.777-2.692 1.544-2.924-.232-.233.705-1.756 2.083-3.384 2.11-2.494 2.412-2.619 1.915-.795-.728 2.67 1.402 4.244 2.672 1.974.505-.902 1.529-1.64 2.275-1.64 1.843 0 .744 4.115-1.534 5.743-1.017.726-1.534 2.026-1.245 3.131.561 2.142-4.3 13.126-5.809 13.126-.542 0-.705.455-.361 1.011.607.983-2.309 15.989-3.107 15.989-.22 0-1.3-.9-2.4-2-2.77-2.77-4-2.501-4 .875 0 1.581-.295 4.351-.656 6.155-.415 2.075-.291 3.055.337 2.667 1.082-.669 1.061 4.62-.03 7.553a77.051 77.051 0 0 0-1.117 3.244c-.387 1.239-.915 1.289-3.096.296-2.246-1.023-2.774-.941-3.615.561-.777 1.389-1.284 1.511-2.404.582-2.285-1.896-1.799 1.687.547 4.033 1.772 1.772 1.834 2.281.621 5.164-2.222 5.285-9.587 12.017-9.587 8.763 0-.609-.646-.859-1.435-.556-.79.303-1.654.013-1.921-.643-.268-.657-.522-.16-.565 1.104-.043 1.264-1.204 3.34-2.579 4.614-1.375 1.275-2.493 2.941-2.485 3.703.013 1.106.217 1.082 1.013-.115.714-1.074.923-.01.735 3.746-.145 2.885-.531 5.247-.859 5.25-.328.002-.553 2.045-.5 4.54.102 4.843-2.566 8.502-3.225 4.424-.432-2.671-2.179-1.455-2.179 1.516 0 1.297-.834 4.308-1.853 6.691-1.019 2.383-2.187 6.583-2.595 9.333-.722 4.859-2.752 9.57-5.302 12.303-.687.737-1.25 1.836-1.25 2.443 0 .606-1.142.029-2.539-1.282l-2.538-2.385-.584 2.232c-.455 1.74-.881 1.984-1.933 1.111-1.747-1.45-4.669 1.229-3.803 3.485.622 1.621 4.064.571 5.538-1.689.352-.54.945-.023 1.317 1.15.372 1.173 1.049 2.132 1.504 2.132.454 0 .762 1.13.682 2.51-.089 1.559-.618 2.329-1.394 2.032-.688-.264-1.25-.078-1.25.413 0 .841-24.151.577-28.5-.312-1.1-.225-1.891-.901-1.758-1.502.145-.654-1.264-1.053-3.5-.991-2.058.057-4.642-.145-5.742-.447-1.1-.303-2.523-.584-3.162-.626-.638-.043-1.046-.865-.906-1.827.371-2.551 11.914-5.046 13.946-3.015 1.423 1.423 10.289 1.707 12.407.398.579-.358 1.692-.013 2.472.767.932.932 1.903 1.107 2.831.509 1.767-1.138-.41-2.87-3.638-2.894-1.127-.008-2.497-.462-3.044-1.009-1.382-1.382-17.811-1.959-24.094-.846-5.511.976-12.312-.804-12.312-3.221 0-.64 1.994-5.147 4.431-10.016 4.986-9.96 5.345-16.327 1.366-24.257-2.413-4.81-11.019-9.216-16.319-8.356-4.179.678-13.143 6.635-15.607 10.372-2.32 3.519-2.403 4.995-.179 3.19 1.439-1.167 1.566-1.163.851.024-.671 1.113-.288 1.257 1.893.709 3.86-.968 6.262.057 6.998 2.988.504 2.009 1.058 2.386 2.725 1.857 1.331-.423 1.858-.287 1.45.374-.353.571-.184 1.32.375 1.666.559.345 1.016 1.362 1.016 2.26 0 1.435-.157 1.417-1.3-.146-1.205-1.648-1.398-1.571-2.653 1.059-.745 1.56-1.462 3.512-1.594 4.337-.132.825-.569 2.962-.971 4.75-.48 2.131-.356 3.25.362 3.25.601 0 .834.675.518 1.5-.365.95.013 1.5 1.031 1.5 2.163 0 2.025 1.312-.367 3.477-1.086.983-2.228 2.584-2.537 3.558-.309.975-2.233 2.549-4.276 3.5-7.2 3.35-19.719 14.757-18.516 16.87.343.602.248.754-.211.337-.881-.799-4.468 3.938-4.479 5.914-.009 1.51 4.151.457 5.531-1.4.571-.769 1.696-1.253 2.5-1.077.974.214 1.389-.394 1.243-1.82-.143-1.403.461-2.32 1.75-2.657 1.083-.283 1.969-.121 1.969.36s.711.602 1.581.269c.909-.349 1.384-1.356 1.118-2.373-.347-1.327.253-1.871 2.415-2.188 2.832-.416 2.871-.356 2.517 3.888-.197 2.37-.859 4.912-1.471 5.649-.82.988-.803 1.65.064 2.517.901.901.857 1.176-.191 1.176-.751 0-1.029.338-.616.75.728.728 1.187.862 3.85 1.125.77.076 1.308 1.69 1.372 4.118.057 2.196.629 4.626 1.271 5.399.676.813 1.107 4.294 1.024 8.257-.078 3.768.342 8.085.934 9.592.592 1.508.847 3.338.568 4.066-.28.729.18 2.645 1.022 4.259.841 1.614 1.497 3.834 1.457 4.934-.041 1.134-.297 1.441-.591.708-.398-.992-.844-1.021-1.921-.127-1.013.84-1.403.852-1.403.041 0-.617-.675-1.122-1.5-1.122-1.942 0-1.929 1.966.021 3.392.837.611 1.886 3.421 2.332 6.243.768 4.858.673 5.211-1.771 6.616-1.42.816-3.145 1.281-3.833 1.033-.752-.271-1.035.111-.709.96.298.776.002 2.726-.657 4.334-1.021 2.49-1.265 2.635-1.65.981-.617-2.642-3.233 3.472-3.233 7.556 0 1.587-.338 2.889-.75 2.894-.412.004-1.594 2.817-2.626 6.25-1.031 3.432-2.944 7.919-4.25 9.97-1.306 2.05-2.374 4.733-2.374 5.962 0 1.266-1.762 4.028-4.067 6.377-3.42 3.485-4.188 5.043-4.833 9.796-.505 3.716-1.542 6.478-3.029 8.06-3.051 3.248-3.014 8.382.124 17.027 3.239 8.92 4.882 10.094 10.567 7.546l4.262-1.91-2.008-3.293c-3.291-5.398-2.661-10.274 2.432-18.826 2.447-4.107 6.347-9.265 8.669-11.462 6.491-6.143 19.557-26.189 20.514-31.474.996-5.5 4.147-11.032 6.285-11.032 1.032 0 4.089 2.363 6.794 5.25 2.706 2.888 7.804 8.319 11.331 12.071 3.526 3.751 6.572 6.339 6.769 5.75.196-.589 1.064-1.071 1.929-1.071 1.113 0 .797-.666-1.083-2.282-1.976-1.697-2.691-3.298-2.792-6.25-.079-2.304-.318-3.024-.57-1.718-.476 2.472-2.294 3.113-2.294.809 0-1.874-2.035-3.121-2.875-1.761-.396.64-1.545.051-2.925-1.498-2.173-2.439-2.183-2.529-.238-2.02 1.12.293 2.288.124 2.596-.374.308-.498-.19-.906-1.106-.906-1.054 0-1.459-.539-1.103-1.468.31-.807.103-1.753-.461-2.101-.563-.348-.794-1.234-.512-1.968.281-.733.018-1.498-.585-1.699-.603-.201-1.177-1.468-1.276-2.815-.1-1.347-.481-2.337-.848-2.199-.367.138-1.169.25-1.784.25-.624 0-.886.882-.593 2 .309 1.183.03 2-.683 2-1.537 0-3.969-6.605-3.006-8.164.491-.793.186-.968-.937-.537-1.067.409-1.664.133-1.664-.771 0-1.891 1.717-2.863 2.267-1.284.241.691.769-.657 1.173-2.994.827-4.78 2.459-5.922 1.772-1.241-.453 3.088 1.319 6.399 2.901 5.421.488-.301.887-.073.887.508s1.5 2.745 3.333 4.809c1.834 2.064 3.616 4.533 3.962 5.486.401 1.105 1.222 1.506 2.264 1.106 1.705-.654 6.335 3.981 6.405 6.411.02.688.486 1.25 1.036 1.25s1 .9 1 2 .37 2 .823 2c1.197 0 5.177 8.348 5.177 10.86 0 2.7-1.658 2.793-2.5.14-.811-2.556-3.179-2.586-3.984-.051-.374 1.179-1.191 1.729-2.067 1.393-1.995-.765-1.832.156.977 5.523 2.545 4.861 3.859 11.135 2.333 11.135-.491 0-.608.9-.259 2 .368 1.16.18 2-.448 2-.596 0-1.03 1.237-.963 2.75.066 1.513-.402 7.447-1.041 13.187-.638 5.741-.872 12.144-.52 14.229.354 2.096.115 5.384-.534 7.351-1.627 4.932 1.645 9.04 11.562 14.514 8.978 4.956 13.794 5.874 18.378 3.503 3.032-1.568 3.213-1.942 2.578-5.36-.855-4.611-2.444-6.38-9.108-10.141-8.387-4.734-8.094-2.384-4.437-35.533 2.002-18.146-2.247-36.069-12.18-51.378-2.633-4.058-4.787-7.766-4.787-8.239 0-.472-3.038-7.052-6.75-14.621L195.5 540.5l.032-10.5c.083-27.475 3.134-35.614 13.163-35.11 18.326.919 36.591.098 40.147-1.806 1.107-.592 2.718-.806 3.581-.475 1.759.675 8.595-5.528 8.549-7.759-.015-.742-1.577-2.475-3.472-3.85-4.131-2.998-4.271-4.544-1-11 1.375-2.713 2.5-5.573 2.5-6.354 0-2.021 5.838-14.401 9.028-19.146 2.773-4.124 12.022-18.938 16.233-26 9.277-15.558 12.123-20.749 20.213-36.876 10.02-19.973 11.908-21.865 14.089-14.124l1.127 4 .479-3.227c.263-1.774.165-3.733-.217-4.351-.383-.619-.325-2.767.127-4.773.454-2.014.432-4.038-.05-4.52-.48-.48-.628-1.511-.328-2.292.329-.858.002-1.304-.828-1.128-.989.21-1.285-.618-1.059-2.959.173-1.788-.151-3.25-.719-3.25s-.801.603-.518 1.34c.283.737-.126 1.871-.909 2.521-1.143.949-1.531.771-1.968-.901-.328-1.253-.003-2.29.814-2.604.748-.287 1.132-1.114.855-1.838-.278-.723-.025-1.613.563-1.976.587-.363 1.068-.034 1.068.732 0 1.461 2.667 1.668 4.768.37.874-.54 1.232.128 1.232 2.297 0 2.732.32 3.059 3 3.059 1.65 0 3-.45 3-1s.48-1 1.067-1c.613 0 .797.853.433 2-.45 1.419-.18 2 .933 2 .89 0 1.567.847 1.567 1.961 0 2.88 3.906 6.039 7.466 6.039 3.148 0 7.106-3.265 6.043-4.985-.303-.491.237-1.333 1.199-1.872 1.655-.925 1.647-1.093-.134-3.061-1.669-1.845-1.696-2.082-.229-2.082.91 0 1.655.436 1.655.969 0 .532.617.731 1.371.442s1.64.175 1.969 1.032c.328.856.203 1.557-.278 1.557-.481 0-.629.938-.33 2.085.415 1.584.748 1.764 1.391.75.541-.854.852-.918.862-.179.008.662.87.933 2.015.634 1.54-.403 2-.031 2 1.618 0 1.341.898 2.483 2.403 3.055 2.992 1.138 3.434 1.852 4.127 6.67.406 2.825.279 3.463-.472 2.367-.565-.825-1.049-1.05-1.074-.5-.026.55-.667.183-1.425-.817-.757-.999-1.755-1.831-2.218-1.85-.896-.035-.877-.336.192-3.083.374-.962.235-1.75-.309-1.75-1.455 0-2.469 3.762-2.697 10-.219 6.019-.644 8.213-1.753 9.044-.9.675 3.073 12.875 4.897 15.037.733.87 1.039 1.875.68 2.235-.359.359-1.246-.128-1.97-1.082-1.958-2.578-1.846 7.351.125 11.13.822 1.576 1.493 3.376 1.491 4-.001.625.998 3.025 2.22 5.333 2.636 4.977 1.734 6.768-1.463 2.905a186.63 186.63 0 0 0-4.531-5.236c-1.253-1.381-2.212-3.041-2.132-3.689.4-3.232-.203-4.017-1.356-1.766-2.231 4.354-6.661 2.899-5.056-1.661.414-1.178.284-1.423-.4-.75-1.643 1.62-2.429 7.497-1.004 7.515.9.012.92.21.074.75-.634.404-1.398 2.085-1.7 3.735-.963 5.279-1.853 7.492-2.779 6.92-.496-.307-.644-.977-.327-1.489.316-.512.098-.931-.484-.931s-1.126.563-1.207 1.25c-.081.688-.24 1.925-.352 2.75-.112.825-.271 2.02-.352 2.656-.081.636-.936 1.038-1.898.894-.962-.145-1.146-.062-.407.185.747.249 1.127 1.272.856 2.308-.268 1.024.028 2.035.657 2.246 2.809.947-1.359 3.208-5.77 3.131-2.522-.044-4.586.294-4.586.75 0 1.333-1.728.959-3.429-.741-1.428-1.429-1.571-1.404-1.571.277 0 2.121-2.669 6.294-4.025 6.294-.502 0-.653-.675-.337-1.5.317-.825.108-1.5-.464-1.5-.571 0-1.325-.9-1.674-2-1.225-3.861-2.804-1.811-4.176 5.422-.2 1.056-.84 2.495-1.423 3.197-.672.81-.722 1.878-.137 2.924 1.077 1.924.427 6.457-.924 6.457-.51 0-.795-.741-.634-1.646.541-3.031-1.916-2.468-3.246.742-1.153 2.784-1.106 3.324.385 4.415 1.425 1.041 1.515 1.706.559 4.115-2.342 5.905-2.798 9.374-1.231 9.374 1.041 0 1.276.648.815 2.25a741.19 741.19 0 0 0-1.15 4.048c-.277.989.023 2.432.665 3.206.643.775.898 1.847.567 2.383-.332.536-.145 1.257.414 1.603.951.588 1.461-1.391 1.091-4.24-.09-.688.258-1.25.773-1.25 1.448 0 2.367 5.036 1.18 6.467-.701.844-.737 2.08-.107 3.654l.952 2.379.064-2.285c.083-3.01 3.547-1.416 3.785 1.741.088 1.166 1.536 3.328 3.219 4.805 3.474 3.048 3.838 4.232 1.309 4.254-1.496.013-1.532.157-.25.985 1.227.793 1.113.972-.628.985-2.935.021-4.707 2.483-4.094 5.69.434 2.268.076 3.558-1.997 7.21-.12.212-1.328-.341-2.684-1.229l-2.465-1.615.571 3.517c.718 4.421-2.804 12.214-3.739 8.276-.492-2.074-.674-1.964-2.25 1.356-2.008 4.232-2.248 9.455-.464 10.085.937.331.784 1.331-.612 3.998-1.024 1.956-1.597 3.985-1.273 4.508.323.524-.302 1.757-1.389 2.74-1.91 1.729-1.976 1.717-1.976-.366 0-1.185-.408-2.155-.906-2.155-.499 0-.685-1.013-.414-2.25.338-1.542.205-1.846-.423-.966-.94 1.316-4.257.667-4.257-.832 0-1.458 1.81-2.016 2.298-.708.321.858.698.702 1.193-.494.397-.962.402-2.538.009-3.5-.656-1.605-.78-1.585-1.509.25-.646 1.627-.929 1.211-1.517-2.231-.659-3.853-3.192-7.743-3.674-5.641-.11.479-.308 6.497-.44 13.372s-.298 13.85-.37 15.5c-.373 8.585.217 22.914 1.032 25.057 1.101 2.897-.604 3.397-2.543.746-1.113-1.523-1.912-1.053-7.77 4.572-3.591 3.448-7.136 7.474-7.878 8.947-.743 1.473-2.523 4.478-3.957 6.678a814.886 814.886 0 0 0-5.872 9.194c-1.796 2.856-3.858 5.42-4.582 5.698-.723.278-2.069 1.962-2.99 3.743-3.022 5.845-1.143 15.166 6.827 33.865.586 1.375.982 2.871.88 3.324-.103.454.344.497.993.096.709-.439.914-.3.513.349-.658 1.065 3.217 4.314 6.6 5.534 1.667.602 5.757-2.589 5.757-4.492 0-.446.337-.704.75-.573s2.158-.351 3.878-1.071c3.023-1.265 3.098-1.442 2.227-5.315-.495-2.204-1.957-6.11-3.249-8.68-1.292-2.569-3.37-7.492-4.618-10.939-2.603-7.191-1.824-9.142 4.482-11.223 3.533-1.166 31.529-29.174 34.067-34.081.799-1.546 1.89-5.886 2.422-9.643.533-3.757 1.67-8.817 2.526-11.245.857-2.427 2.235-7.336 3.064-10.908.828-3.572 1.929-7.004 2.447-7.628 1.255-1.512 4.011-12.549 4.995-20.005.917-6.951 2.497-14.024 4.037-18.074l1.079-2.837 2.402 4.956A933.571 933.571 0 0 1 338.93 526c1.66 3.575 3.037 5.6 3.06 4.5.03-1.49.257-1.658.891-.658.623.983.981.662 1.337-1.2.312-1.636-.024-2.737-.943-3.09-.924-.355-1.329-1.701-1.147-3.814.155-1.797-.116-3.909-.6-4.693-.562-.91-.455-1.569.295-1.819.647-.216 1.177-.832 1.177-1.368 0-.537-.424-.714-.942-.394-1.004.621-.786-2.506.435-6.214.407-1.237.8-2.267.874-2.288 2.669-.756 7.633-.874 7.633-.182 0 .518 1.117.729 2.482.468 2.742-.524 4.921 3.035 4.658 7.608-.098 1.711.275 2.199 1.362 1.781 1.176-.45 1.522.334 1.608 3.644.186 7.184.601 10.308 1.632 12.3.546 1.056 1.023 3.413 1.06 5.238.038 1.826.566 3.92 1.175 4.653.821.989.773 1.468-.185 1.855-.873.352-.952.789-.244 1.347.576.454 1.15 2.401 1.274 4.326.309 4.793 1.139 7.142 2.274 6.441 1.14-.705 4.596 6.834 5.068 11.059.433 3.87-.836 3.785-5.888-.394-2.679-2.216-3.899-3.924-3.516-4.923.411-1.072.133-1.356-.927-.949-.833.319-2.149.179-2.924-.311-1.133-.718-1.062-.895.367-.908 1.651-.014 1.666-.226.224-3.015-.853-1.65-2.065-3-2.692-3-.628 0-.885-.257-.571-.571.314-.314-.038-1.744-.782-3.178s-1.124-2.977-.845-3.429c.28-.452.005-.822-.61-.822s-.797-.52-.405-1.155c.475-.768.271-.88-.61-.335-.957.591-1.151.365-.699-.814.345-.898.196-1.898-.33-2.223-.526-.325-.956.534-.956 1.909 0 3.262-1.618 4.201-2.95 1.712-1.32-2.467-1.338-3.39-.05-2.594.55.34 1 .102 1-.528s-1.335-1.65-2.966-2.265c-1.632-.616-3.149-1.59-3.371-2.164-.223-.573-.227.307-.01 1.957.868 6.594 19.357 40.861 20.116 37.283.366-1.724 3.639-.774 5.342 1.551.336.458.884.121 1.218-.75.335-.871 1.242-1.584 2.017-1.584.775 0 1.969-.675 2.654-1.5.685-.825 1.609-1.5 2.055-1.5 1.005 0 2.43 4.022 2.074 5.85-.144.743.217 1.054.804.691.695-.429 1.067.9 1.067 3.817 0 2.501.511 4.646 1.158 4.861.641.214 1.057 1.923.933 3.834-.124 1.896-.217 4.306-.208 5.356.009 1.051-.432 2.749-.981 3.774-.735 1.374-.591 2.271.55 3.412 2.032 2.031 2.102 9.072.091 9.072-1.578 0-2.362-2.916-2.443-9.093-.029-2.16-.513-4.387-1.076-4.95-.563-.563-1.024-2.081-1.024-3.374 0-1.292-.668-3.642-1.485-5.221-1.144-2.213-1.202-2.987-.25-3.372.748-.302.574-.53-.442-.578-.922-.043-1.882-.867-2.134-1.829-.259-.993-.513-.452-.587 1.25-.189 4.392-1.201 7.557-2.216 6.93-1.207-.747-1.124-.207.575 3.705.875 2.016 1.476 2.64 1.5 1.556.021-.995.489-1.531 1.039-1.191.55.34.993 1.604.985 2.809-.013 1.748-.205 1.892-.95.713-1.606-2.539-.048 16.518 2.544 31.117 1.331 7.502 2.421 14.992 2.421 16.645 0 1.653.947 6.09 2.105 9.861 2.039 6.639 3.456 9.991 10.518 24.886 4.955 10.451 7.377 18.2 7.377 23.605 0 10.564 3.852 15.035 26.863 31.176 6.125 4.297 11.137 8.234 11.137 8.75 0 1.49-3.006 1.087-3.608-.483-.429-1.117-1.173-1.203-3.469-.402-3.492 1.217-3.763 3.082-.673 4.627 1.238.618 4.635 2.491 7.55 4.16 6.803 3.897 8.776 3.905 9.55.036.473-2.365 1.125-3 3.078-3 5.551 0 8.62-15.258 4.584-22.79-1.093-2.04-4.957-6.185-8.586-9.21-18.494-15.417-31.365-31.187-31.422-38.5-.009-1.1-1.351-6.924-2.982-12.942-1.631-6.018-3.268-13.668-3.637-17-.369-3.332-1.806-9.658-3.193-14.058-2.278-7.225-2.54-9.792-2.699-26.5l-.177-18.5-5.26-15c-4.265-12.16-5.424-16.894-6.122-25-.474-5.5-1.808-13.6-2.965-18-1.157-4.4-2.517-10.587-3.022-13.748-.505-3.162-1.6-7.379-2.433-9.372-1.966-4.707-1.917-7.834.157-9.908 1.556-1.556 1.558-2.266.039-10.321-.897-4.758-1.891-11.03-2.21-13.939-.318-2.908-1.455-8.083-2.527-11.5-1.114-3.556-1.953-9.101-1.96-12.969l-.013-6.757 6.971.648c6.928.644 6.978.631 8.018-2.106.9-2.367 1.431-2.659 3.779-2.075 1.503.374 5.438.92 8.746 1.215 9.389.835 10.541-.736 17.712-24.168 2.931-9.577 3.696-14.193 5.305-32 .628-6.952 1.161-8.574 4.072-12.384 1.842-2.411 3.109-4.773 2.814-5.25-.294-.476-.052-.866.539-.866 2.097 0 5.019-6.179 3.905-8.259-.564-1.054-1.24-3.1-1.502-4.548-.263-1.447-.965-3.218-1.561-3.936s-.906-1.434-.691-1.592c.216-.157 2.781-1.784 5.699-3.616 11.271-7.073 13.323-14.628 6.688-24.625-3.768-5.676-11.111-9.424-18.467-9.424-4.017 0-9.982 5.134-11.492 9.889-.368 1.161-1.359 2.111-2.202 2.111s-3.034 1.501-4.869 3.336c-3.772 3.772-2.213 4.08-15.964-3.154-8.004-4.21-8.641-5.703-6.413-15.026.941-3.934.987-5.808.177-7.105-.933-1.494.037-2.892 6.355-9.157 12.26-12.157 17.491-28.412 12.717-39.522-1.602-3.73-1.687-3.78-2.296-1.372-.574 2.271-.7 2.324-1.37.58-.445-1.159-.261-2.215.466-2.664 1.82-1.125-7.445-6.602-13.284-7.854-7.904-1.695-14.889-1.321-19.367 1.036M362.5 281c.34.55-.092 1-.96 1-1.2 0-1.434.658-.978 2.75.407 1.866.297 2.321-.342 1.416-.751-1.064-1.093-.962-1.688.5-.708 1.738-.79 1.73-1.569-.166-.711-1.73-.832-1.614-.893.857-.052 2.144.304 2.713 1.43 2.281.825-.316 1.5-.153 1.5.362s.675.678 1.5.362c.825-.317 1.5-.164 1.5.34 0 2.578 2.782 4.724 4.392 3.388 1.013-.841 1.608-.931 1.608-.244 0 .6.625.851 1.389.558 1.456-.559 1.042-4.404-.474-4.404-.469 0-.593-.675-.277-1.5.317-.825.078-1.5-.531-1.5s-1.107.45-1.107 1-1.012.948-2.25.884c-1.309-.067-1.61-.29-.721-.531 4.436-1.203 4.331-8.353-.123-8.353-1.113 0-1.746.45-1.406 1m11.018 60.696c.849 2.033 2.554 5.071 3.789 6.75 1.235 1.68 3.124 4.742 4.197 6.804 1.073 2.063 2.493 3.75 3.156 3.75.663 0 1.51.959 1.882 2.132.533 1.681.865 1.84 1.567.75.749-1.162 1.045-1.143 1.854.118.657 1.022.577 1.659-.25 2-.667.275-1.213.95-1.213 1.5 0 2.457-2.95 11.5-3.752 11.5-.49 0-1.566.675-2.391 1.5s-1.263 1.5-.974 1.5c.289 0-.578 1.105-1.928 2.455-3.124 3.123-3.111 4.371.044 4.189 1.375-.079 2.5-.467 2.5-.863.001-.395.617-.482 1.37-.193.781.3 1.574-.261 1.847-1.307.649-2.482 4.552-2.625 6.054-.221 1.387 2.221 2.931 2.627 2.139.563-.68-1.771 6.17-3.217 8.009-1.691 3.367 2.795 3.448-3.192.082-6.119-2.507-2.18-3.345-4.813-1.531-4.813.532 0 .728-.625.435-1.389-.303-.791-1.35-1.176-2.429-.894-1.713.448-1.804.172-.936-2.854 1.277-4.453 1.216-6.139-.191-5.269-.633.391-1.75-.107-2.482-1.108-.777-1.063-2.584-1.819-4.348-1.819-2.967 0-4.108-1.137-1.885-1.878.695-.232.856-1.249.416-2.636-.532-1.673-1.043-1.988-1.975-1.214-1.464 1.214-2.581.404-2.559-1.856.013-1.269.186-1.314.875-.226.625.986 1.054 1.042 1.571.206.391-.633.184-1.786-.461-2.563-.645-.777-.89-1.869-.545-2.427s-.629-1.292-2.164-1.631c-4.891-1.081-7.948-2.277-6.041-2.363 2.559-.115 2.125-1.398-.957-2.829-4.084-1.896-4.454-1.57-2.775 2.446m2.929 48.219c.311.503.069 1.08-.538 1.282-1.724.575.728 8.309 3.626 11.435 1.356 1.463 2.534 3.832 2.617 5.264.084 1.432.202 3.155.261 3.829.06.674.948 2.024 1.972 3 1.802 1.716 1.84 1.676 1.168-1.225-.56-2.42-.449-2.758.576-1.75 1.83 1.8 4.482 1.691 2.977-.122-.911-1.099-.538-1.492 1.878-1.975 2.144-.429 3.016-1.179 3.016-2.597 0-1.448-.455-1.819-1.664-1.355-1.208.464-1.44.276-.846-.686.583-.941.436-1.088-.505-.505-.962.594-1.15.362-.686-.846.422-1.101.125-1.664-.877-1.664-.833 0-2.282-1.347-3.219-2.994-.936-1.646-2.292-2.996-3.012-3-.72-.003-1.031-.456-.691-1.006.34-.55.141-1-.441-1s-1.059.546-1.059 1.214c0 .754-.657.558-1.73-.516-1.438-1.437-1.521-2.066-.492-3.714 1.086-1.738.983-1.984-.829-1.984-1.137 0-1.813.412-1.502.915M65 463.667c-6.467 1.023-11.922 4.562-13.533 8.78-1.244 3.258-2.127 4.171-4.196 4.343-4.807.397-9.106 6.12-8.889 11.833.082 2.181-.273 2.972-1.18 2.624-1.208-.463-4.098 2.311-4.17 4.003-.083 1.959 9.27.674 12.037-1.654 1.571-1.323 3.333-2.563 3.915-2.757.713-.238.644-1.243-.213-3.088-1.311-2.821-2.668-3.407-4.321-1.865-.522.488-1.85.52-2.95.071s-1.437-.848-.75-.887c.688-.038 1.25-.745 1.25-1.57 0-.825.87-1.5 1.933-1.5 1.088 0 2.225-.922 2.602-2.111.663-2.089.682-2.087 1.876.25.663 1.299 1.967 2.299 2.897 2.222.931-.076 1.692.486 1.692 1.25S52.353 485 51.562 485c-2.426 0-1.394 3.578 1.091 3.783 3.962.328 4.818.678 6.199 2.532 1.475 1.979 1.489 1.938-1.228 3.398-1.718.922-1.651 1.063.791 1.676 1.467.368 2.397 1.106 2.067 1.64-.33.534-.16.971.377.971.538 0 1.689.273 2.559.607 1.016.39 1.582.062 1.582-.917 0-.838.563-1.75 1.25-2.028.747-.301.545-.536-.5-.583-.963-.043-1.75.371-1.75.921s-.483 1-1.073 1c-1.353 0-.785-3.099.573-3.124.55-.01 1.743-.691 2.651-1.512 1.102-.998 1.869-1.14 2.309-.429.362.586.112 1.065-.556 1.065-.741 0-.485.805.655 2.065 1.75 1.934 1.909 1.951 2.498.272.348-.991.007-2.416-.761-3.184-.765-.765-1.134-1.648-.82-1.963.774-.774 3.319 1.947 3.564 3.81.365 2.779-.034 4.122-1.04 3.5-.55-.34-1-.115-1 .5s-.343.906-.763.647c-.419-.259-1.881.148-3.25.905-1.935 1.071-2.091 1.385-.705 1.413 2.302.045 3.785 3.955 2.363 6.231-1.371 2.196-4.827 2.727-6.21.954-.877-1.123-2.206-.794-7.5 1.859-8.668 4.344-9.638 5.171-7.282 6.214 1.554.688 1.496.752-.366.401-3.688-.696-5.359 3.155-8.839 20.376-.834 4.125-2.164 9.975-2.958 13-1.212 4.624-3.029 21.981-3.381 32.303-.052 1.542-.553 3.658-1.113 4.704-.559 1.045-1.297 4.579-1.639 7.853-.607 5.807-.552 5.988 2.26 7.441 7.684 3.971 8.388 3.132 12.408-14.801 1.233-5.5 2.671-10.832 3.196-11.848.525-1.016 1.343-6.416 1.818-12 1.715-20.143 4.99-29.085 7.198-19.652.869 3.711.156 31.094-1.223 47-.774 8.919-.698 9.599 1.232 11.119 1.845 1.451 1.987 2.298 1.382 8.211-.439 4.284-.114 10.37.928 17.381 2.29 15.405 3.245 33.392 2.138 40.266-1.808 11.228.99 18.804 6.367 17.242 6.876-1.998 7.333-3.012 8.103-17.973.625-12.147 2.405-39.081 3.368-50.962.639-7.889 3.757-12.581 9.123-13.727 3.693-.789 4.12-.306 6.574 7.443 2.346 7.41 2.296 7.852-1.799 15.677-3.094 5.914-3.486 7.422-2.938 11.323.348 2.475.739 6.535.87 9.022s.606 5.117 1.056 5.846c1.53 2.475 1.548 7.931.028 8.514-1.165.447-1.214 1.032-.262 3.123.803 1.762 1.667 2.368 2.744 1.925.865-.356 3.033-1.069 4.818-1.584 2.826-.817 3.232-1.352 3.142-4.142-.138-4.229.749-9.157 2.101-11.684.692-1.293.851-4.705.434-9.313-.619-6.825-.502-7.46 1.9-10.315 1.408-1.673 2.999-5.033 3.535-7.467 1.955-8.871 3.017-17.488 2.481-20.116-.303-1.481.233-4.74 1.192-7.251 1.475-3.861 1.574-5.442.646-10.309-.602-3.162-1.302-6.874-1.555-8.249-.556-3.024-4.742-14.379-8.194-22.227-6.106-13.879-5.966-31.452.231-29.073.738.282 1.341.068 1.341-.476 0-2.111 4.874-1.954 6.762.218 2.343 2.694 3.48 5.558 2.207 5.558-.533 0-.976-.788-.984-1.75-.012-1.363-.206-1.45-.875-.393-.6.946-1.067 1.021-1.544.25-.376-.609-1.128-1.107-1.672-1.107-.543 0-.179 1.136.809 2.524 1.333 1.872 2.507 2.434 4.547 2.173 1.829-.233 2.75.107 2.75 1.016 0 1.118.253 1.132 1.395.076.767-.709 1.148-1.696.846-2.194-.303-.497-.036-.586.593-.198.741.459.932.158.543-.856-.423-1.104-.156-1.393.911-.984 1.925.739 2.855-.718 1.661-2.605-.739-1.168-.929-1.061-.973.548-.041 1.518-.374 1.266-1.382-1.048-2.087-4.791-14.027-16.28-19.244-18.516-2.615-1.121-7.507-2.115-11.24-2.285-10.649-.483-13.335-3.642-9.221-10.844 1.039-1.819 2.182-4.979 2.539-7.022.746-4.269 2.046-5.467 4.09-3.77 1.982 1.645 13.426.295 14.181-1.672 1.369-3.569-8.159-10.475-14.959-10.842-3.88-.209-5.578-.818-6.926-2.483-1.634-2.018-9.619-5.207-12.223-4.882-.6.075-2.216.314-3.591.531m82.342 43.11c-1.737 1.498-3.947 4.298-4.911 6.223-.964 1.925-1.935 2.963-2.157 2.306-.222-.656-1.095-.928-1.94-.604-1.988.763-3.557-1.728-2.154-3.418.779-.94.697-1.278-.308-1.263-2.149.034-6.652 7.151-6.225 9.84.275 1.736-.009 2.214-1.072 1.806-.795-.305-1.627-.017-1.848.639-.608 1.808.38 4.746 1.387 4.124.487-.302.886.379.886 1.511s-.45 2.059-1 2.059-1.002-.788-1.004-1.75c-.002-1.161-.676-.647-2 1.524-2.389 3.92-2.48 4.626-.496 3.864 1.634-.626 2.205 2.808.629 3.782-.83.513-1.654 3.475-2.804 10.08-.287 1.65-.898 3.233-1.358 3.519-.46.285-1.003 1.759-1.206 3.276-.692 5.168-2.262 2.653-2.086-3.343.1-3.45-.217-5.735-.75-5.405-.509.314-.925-.431-.925-1.655 0-3.379-.645-1.921-1.375 3.108-.459 3.158-.354 4.053.35 3 .732-1.093.97-.145.876 3.5-.235 9.19.245 11.662 1.988 10.246 1.281-1.039 1.433-.971.916.41-.372.992.154 2.357 1.312 3.405 3.293 2.98 1.212 13.98-2.426 12.825-1.3-.413-1.74-.179-1.43.759.286.868 2.394 1.455 5.868 1.633 5.115.262 5.517.106 7.124-2.75 1.005-1.785 2.521-3.028 3.694-3.028 4.841 0 7.354-8.766 4.095-14.29-2.169-3.676-4.89-13.258-4.956-17.457-.02-1.236 1.468-3.936 3.307-6 3.593-4.034 11.041-16.318 12.128-20.003.782-2.651 3.039-2.948 4.367-.575 1.158 2.068 4.162 2.641 4.162.793 0-.745-.878-1.97-1.952-2.722-1.723-1.207-2.551-5.746-1.048-5.746 1.389 0 .7-3.901-.79-4.473-1.426-.547-1.451-.763-.182-1.565 1.289-.815 1.285-.93-.028-.92-.825.007-2.921 1.237-4.658 2.735" fill="#d3d3d3" fill-rule="evenodd"/></svg>