<svg xmlns="http://www.w3.org/2000/svg" width="500" height="623"><path d="M151.063 11.75c-3.918 19.323-10.332 40.718-16.118 53.764-.979 2.208-1.971 5.358-2.204 7-.233 1.642-.682 3.661-.996 4.486-4.069 10.66-6.034 16.716-6.229 19.2-.13 1.655-.68 3.3-1.222 3.655-.542.355-1.263 2.409-1.604 4.564-.34 2.156-1.02 4.181-1.51 4.5-.49.32-1.219 2.358-1.618 4.53-.4 2.172-1.329 4.808-2.064 5.858-.779 1.111-1.121 3.241-.82 5.097.356 2.194.019 3.602-1.08 4.515-.879.729-1.598 2.321-1.598 3.537 0 1.216-.3 2.511-.667 2.878-1.93 1.93-2.554 46.849-.676 48.724.875.874 1.013-.511.568-5.701-1.672-19.507 1.703-43.103 8.027-56.113 1.138-2.341 1.78-4.545 1.427-4.898-.352-.353.191-2.262 1.208-4.244 1.017-1.981 2.789-6.527 3.937-10.102 3.351-10.436 13.791-40.183 15.442-44 .833-1.925 2.494-7.55 3.692-12.5 7.002-28.935 10.197-42.257 10.612-44.25.378-1.816.025-2.25-1.829-2.25-2.13 0-2.469.852-4.678 11.75M404.755 2.5c-.263 1.375-.137 2.5.279 2.5 1.947 0-.331 75.854-2.316 77.144-.546.354-.761 1.852-.479 3.328.317 1.656.028 2.872-.752 3.171-.726.279-1.036 1.366-.727 2.548.349 1.334-.076 2.406-1.204 3.038-.959.536-2.382 2.504-3.163 4.373-1.028 2.459-2.051 3.398-3.706 3.398-2.656 0-4.728-1.729-4.084-3.408.249-.649-.449-1.163-1.578-1.163-2.147 0-2.905 2.548-.775 2.604.688.019.238.878-1 1.911-1.238 1.032-2.255 2.254-2.261 2.716-.036 2.604-10.659 5.477-12.038 3.256-.302-.486-3.872-.973-7.933-1.082-8.431-.227-10.494-1.524-11.574-7.278-.366-1.956-.954-3.559-1.305-3.562-.352-.003-.679-2.567-.728-5.696-.052-3.358-.565-5.849-1.25-6.078-.639-.213-1.161-1.448-1.161-2.744 0-1.297-.526-2.683-1.17-3.081-.782-.483-.962-.182-.544.909.345.898.229 1.878-.258 2.178-1.003.62-2.524-3.319-1.628-4.215.32-.321-.989-2.5-2.909-4.843C336.712 67.811 336.15 66 338.5 66c.825 0 1.5.45 1.5 1s.45 1 1 1c1.496 0 1.207-1.65-.606-3.463-1.183-1.183-1.95-1.321-2.911-.523-.764.634-1.541.702-1.873.164-1.799-2.911-11.692-2.209-10.912.775.548 2.095-3.948 4.047-9.323 4.047-1.83 0-4.768.877-6.53 1.948-1.762 1.072-3.593 1.708-4.068 1.414-.476-.294-1.517.008-2.315.67s-2.562.991-3.921.731-2.603-.078-2.763.403c-.433 1.298-5.761-1.449-5.77-2.975-.004-.72-.458-1.031-1.008-.691-.55.34-1-.084-1-.941S287.363 68 286.583 68c-.779 0-1.643-.563-1.921-1.25-.279-.693-.539-.401-.583.655-.074 1.783-.196 1.799-1.91.248-2.011-1.82-3.169-1.287-3.169 1.457 0 .977-.826 2.365-1.835 3.083-1.01.719-2.118 2.657-2.464 4.307-.345 1.65-1.324 6.256-2.175 10.237-.851 3.98-1.703 9.155-1.893 11.5-.421 5.193-2.698 15.889-3.675 17.263-.391.55-.379 1.9.027 3 .93 2.519.169 4.696-1.34 3.834-.63-.36-.811-.286-.404.164.408.45.24 1.422-.372 2.16-.829.999-.763 1.765.259 2.996 1.439 1.734 1.914 7.346.622 7.346-.413 0-.75.702-.75 1.559s-.443 1.285-.985.95c-.6-.371-.795.583-.5 2.441l.96 6.05c.31 1.955.048 3.005-.75 3.015-.868.011-.829.266.132.875 1.007.639 1.054 1.047.182 1.586-.647.4-.934 1.356-.639 2.125.296.77.015 1.399-.623 1.399-.637 0-.286.661.782 1.468 1.067.808 1.491 1.483.941 1.5-1.107.035-1.413 5.032-.307 5.032.381 0 .551.788.378 1.75-1.231 6.858-2.571 16.708-2.649 19.48-.027.952-.492 2.005-1.034 2.339-.627.388-.568 1.112.163 1.992.881 1.062.779 1.752-.437 2.968-1.447 1.447-1.446 1.798.009 4.018 1.46 2.229 1.459 2.484-.015 3.05-2.234.857-2.008 2.065.511 2.724 2.09.546 2.084.586-.422 2.909-2.177 2.017-2.475 2.996-2.077 6.816.27 2.589-.158 6.227-1.019 8.668-1.065 3.019-1.224 5.113-.563 7.418.514 1.791.542 3.689.065 4.29-.471.593-.493 1.978-.05 3.078.444 1.1.838 3.238.877 4.75.038 1.512.52 2.75 1.07 2.75s1 .694 1 1.542c0 .848.9 2.508 2 3.688 1.1 1.181 2 2.665 2 3.298 0 1.9 4.538 3.521 6.002 2.145.957-.899 1.355-.88 1.708.083.254.691.872 1.002 1.375.691.503-.311.915-.201.915.244.001.723 3.101.895 8.309.46 1.094-.091 1.527-.608 1.096-1.306-.406-.655-.278-.885.295-.53.555.343 1.931-.375 3.057-1.596C289.298 247.966 298 230.798 298 228.54c0-.912.406-1.407.903-1.1.496.307 1.411-.902 2.033-2.685.621-1.784 2.2-4.82 3.508-6.749 1.309-1.928 2.639-5.479 2.957-7.891.318-2.411 1.145-5.068 1.838-5.903.694-.835 1.286-2.701 1.318-4.147.031-1.447.315-3.065.632-3.597.317-.533.889-2.431 1.273-4.218.383-1.787 1.111-3.25 1.617-3.25.507 0 .921-.597.921-1.326 0-.729 1.111-2.369 2.469-3.645 1.358-1.276 2.285-2.618 2.06-2.982-.225-.364.708-1.501 2.073-2.526 2.038-1.531 2.367-2.414 1.842-4.942-.606-2.92-.56-2.976.877-1.081 1.332 1.757 3.101 1.575 3.221-.331.092-1.463 3.563-7.167 4.361-7.167.469 0 1.388.646 2.043 1.435 3.23 3.892-9.241 41.565-13.758 41.565-.745 0-1.157.562-.916 1.25s-1.296 4.677-3.417 8.866c-2.12 4.189-3.855 8.174-3.855 8.856 0 2.241-20.235 36.405-23.491 39.662-.83.83-1.516 2.264-1.524 3.187-.012 1.235-.229 1.343-.821.41-.585-.922-1.174-.581-2.154 1.25-.741 1.385-1.711 2.519-2.154 2.519-.444 0-.379 1.125.144 2.5.952 2.503-.323 3.651-1.388 1.25-.304-.687-.454-.397-.333.646.122 1.043-.306 2.081-.95 2.307-.749.263-.977-.332-.634-1.646.327-1.248.057-2.057-.685-2.057-.673 0-.97.661-.661 1.468.31.807.133 1.734-.393 2.059-.526.325-.97.002-.986-.718-.017-.722-.54-.432-1.165.647-1.126 1.941-1.14 1.941-1.899 0-.568-1.452-.784-.963-.836 1.901-.054 3.001-.403 3.729-1.57 3.281-.914-.35-1.5-.001-1.5.893 0 .808-.465 1.469-1.034 1.469-.568 0-1.962 1.574-3.098 3.499-1.135 1.924-2.539 3.204-3.12 2.845-.665-.411-.757-.167-.248.656.535.866.418 1.068-.345.595-.635-.392-1.155-.285-1.155.239 0 1.579-3.28 2.329-4.155.95-.748-1.18-1.353.997-.963 3.466.065.413-.489.75-1.23.75-.742 0-2.175 1.833-3.185 4.073-1.832 4.063-5.117 7.261-6.549 6.377-.415-.257-1.053.887-1.416 2.542-.455 2.072-1.424 3.201-3.109 3.624-1.949.489-2.213.896-1.297 1.999.897 1.082.798 1.385-.455 1.385-.881 0-1.881 1.11-2.222 2.467-.34 1.356-.912 2.428-1.269 2.381-3.415-.447-8.15 2.679-8.15 5.381 0 1.052-.814 1.385-2.75 1.128-1.512-.202-2.233-.117-1.601.188 1.291.623-1.115 6.455-2.663 6.455-2.491 0-2.226-2.652 1.051-10.5 1.564-3.746 3.963-15.117 3.963-18.783 0-4.997-2.04-3.989-4.155 2.054-3.424 9.786-4.233 11.858-6.532 16.729l-2.36 5 .688-7.5c.378-4.125.771-9.525.873-12 .163-3.947.789-8.567 2.1-15.5l.972-5.135c.703-3.713-1.011-5.308-2.571-2.393-1.782 3.331-2.857 2.31-2.34-2.222.602-5.269 1.93-8.885 5.526-15.044 3.233-5.538 3.463-6.49 1.107-4.578-1.15.932-1.451.971-.941.122 1.084-1.805-.427-1.527-3.805.7-2.851 1.879-5.186 1.868-4.019-.019.316-.512.098-.931-.484-.931s-1.059.525-1.059 1.167c0 2.986-1.352-.72-2.503-6.864-1.701-9.078-2.15-10.828-4.064-15.838-1.949-5.104-.567-7.099 7.814-11.275 2.671-1.331 4.615-2.661 4.32-2.956-.772-.772 2.636-3.165 4.561-3.202 2.144-.042 4.747-2.995 2.744-3.114-.754-.044.091-.721 1.878-1.502 3.594-1.572 4.179-3.027 1.5-3.727-1.667-.435-1.667-.463 0-.573 1.045-.069 1.75-.922 1.75-2.116 0-1.1.367-2 .814-2 .448 0 1.776-1.8 2.95-4 1.388-2.6 1.715-4.005.936-4.015-.753-.01-.827-.289-.2-.75.55-.404 1.081-2.085 1.181-3.735.099-1.65.452-7.725.783-13.5.332-5.775.872-13.2 1.199-16.5.328-3.3.581-7.687.562-9.75-.018-2.062.261-3.751.621-3.752.36-.002.702-1.352.76-3 .059-1.649-.327-2.998-.857-2.998-.529 0-.704-.675-.387-1.5.347-.905.005-1.5-.862-1.5-.807 0-1.206-.602-.911-1.371.289-.754-.175-2.072-1.031-2.929-1.815-1.814-2.043-3.7-.447-3.7.611 0 .052-.857-1.242-1.905-2.318-1.877-2.324-1.935-.455-4 1.676-1.852 1.704-2.095.241-2.095-.91 0-1.655.498-1.655 1.107s-.693.841-1.54.516c-.903-.347-1.475-.081-1.382.643.403 3.134-.058 4.313-1.07 2.734-.53-.825-.703-2.332-.386-3.35 1.009-3.238 1.132-6.65.24-6.65-.474 0-.862-.695-.862-1.544 0-.849-1.125-2.757-2.5-4.239-2.493-2.689-2.5-2.69-2.5-.398 0 1.303-.44 2.027-1.016 1.671-.559-.346-.783-1.006-.498-1.467.285-.461.138-1.866-.327-3.123-.84-2.269-.85-2.266-1.532.448-.377 1.504-1.103 2.476-1.613 2.161-.509-.315-.695-1.176-.413-1.912.283-.736-.219-1.62-1.116-1.964-.931-.358-1.551-1.591-1.446-2.879.363-4.479-.006-5.704-1.539-5.116-.825.317-1.5.051-1.5-.59s.45-.888 1-.548c.558.345.993-.403.985-1.691-.012-1.705-.244-1.948-.889-.93-.646 1.02-1.212.441-2.176-2.225-.717-1.982-1.496-3.411-1.731-3.176-.562.561-2.712-1.617-3.449-3.496-.364-.926-.617-.544-.676 1.018l-.093 2.5-1.317-2.5c-.725-1.375-1.843-2.387-2.486-2.25-.642.138-1.168-.248-1.168-.857s-.675-.848-1.5-.531c-.825.316-1.507.027-1.515-.643-.011-.821-.307-.758-.908.19-.49.775-.678 1.967-.416 2.649.261.682-.009 1.539-.6 1.904-.591.366-1.344-.036-1.673-.893-.329-.857-.995-1.312-1.481-1.011-.486.3-.58-.265-.208-1.256.593-1.583.471-1.635-1.012-.43-1.148.935-1.687 1.004-1.687.219 0-.635.675-1.413 1.5-1.729.825-.317 1.5-1.189 1.5-1.938 0-.799-.619-1.124-1.5-.786-1.036.398-1.5-.065-1.5-1.5 0-1.434-.464-1.897-1.5-1.5-1.593.612-2.104 3.362-.625 3.362 1.159 0 1.143 5.035-.024 7.25-.507.963-1.581 1.75-2.386 1.75-.806 0-1.472.563-1.48 1.25-.011.843-.32.769-.95-.227-.639-1.011-.427-2.037.671-3.25 1.448-1.601 1.135-2.222-.956-1.891-1.024.161-.942-.655.3-2.976.578-1.079 1.478-1.698 2-1.375.523.323.95-.006.95-.731 0-1.644-3.744-4.076-5.041-3.275-.527.326-.959.116-.959-.466 0-.582.45-1.059 1-1.059s.968-1.013.93-2.25c-.051-1.624-.26-1.832-.75-.75-.374.825-2.027 1.647-3.673 1.826-1.645.179-2.657-.009-2.247-.419.409-.41-.044-1.616-1.008-2.681S165.5 82.5 165.5 82.145s-.371-.521-.824-.37c-.454.151-.54-.187-.191-.75.348-.564.156-1.025-.426-1.025S163 78.8 163 77.333c0-3.289-.908-2.569-1.605 1.272-.588 3.245-1.395 4.498-1.395 2.167 0-1.56-.402-1.542-7.996.354-.823.206-2.047 1.049-2.719 1.874-1.086 1.333-1.227 1.333-1.269 0-.027-.885-.348-1.09-.781-.5-.404.55-2.049 1.675-3.655 2.5-3.331 1.711-4.85 4.383-1.914 3.366 1.146-.396.64.497-1.349 2.382-1.891 1.792-3.458 4.484-3.861 6.634-.373 1.99-1.087 3.618-1.586 3.618-.5 0-.626 1.125-.281 2.5.487 1.939.243 2.5-1.088 2.5-1.277 0-1.507.447-.9 1.75.996 2.139 1.036 8.216.094 14.25-.386 2.475-.888 6.155-1.114 8.177-.998 8.906-2.921 19.401-3.715 20.273-.476.523-.866 2.408-.866 4.191s-.477 3.536-1.059 3.895c-.583.36-.954 1.625-.826 2.81.32 2.95-1.213 20.94-1.879 22.053-.296.494-.736 4.093-.979 7.998-.243 3.904-.962 7.431-1.599 7.836-.681.433-.731.743-.122.752.58.008 1.11 2.67 1.204 6.045.096 3.473-.225 5.789-.756 5.46-1.307-.808-5.205-14.323-4.473-15.508.334-.54.243-.986-.202-.99-1.556-.015-3.344-5.245-2.245-6.569.661-.797.683-1.462.06-1.846-.535-.331-1.16.192-1.388 1.161-.314 1.328-.605 1.084-1.184-.988-.423-1.513-1.198-2.75-1.722-2.75-1.199 0-.074 11.376 1.167 11.815.49.173.688.848.441 1.5-.247.652.414 4.198 1.47 7.88 1.394 4.864 1.601 6.827.756 7.174-.807.332-.703.805.336 1.54 1.333.943 1.333 1.066 0 1.107-1.234.039-1.198.277.207 1.345 1.595 1.211 1.597 1.406.036 2.968-1.562 1.561-1.551 1.671.165 1.671 1.382 0 1.573.318.772 1.284a2.308 2.308 0 0 0-.195 2.692c.575.931.323 1.81-.744 2.59-1.442 1.054-1.38 1.255.575 1.876 2.016.639 2.061.823.576 2.309-1.484 1.484-1.484 1.709-.003 2.792 1.691 1.236 2.288 2.994.68 2-.512-.317-1.213-.118-1.559.441-.345.559-.151 1.016.431 1.016s1.059.886 1.059 1.969c0 1.082.563 1.831 1.25 1.664.688-.168.912-.116.5.114-1.095.613-.918 3.253.219 3.253.532 0 .709.675.393 1.5-.317.825-.048 1.5.598 1.5.721 0 .929.775.538 2.005-.431 1.359-.103 2.209 1.017 2.639 1.202.461 1.322.839.441 1.383-.743.459-.883 1.277-.362 2.111.961 1.541 1.19 2.531 2.049 8.862.335 2.475 1.115 4.837 1.733 5.25.79.527.678 1.047-.376 1.75-1.333.889-1.333 1.12 0 2.076 1.129.81 1.191 1.202.25 1.583-1.411.573-1.722 3.341-.375 3.341 1.14 0 1.14 4.873 0 5.577-.481.298-.875.991-.875 1.541 0 .55.461.715 1.025.367.563-.349.901-.038.75.691-.161.776.449 1.203 1.475 1.03.962-.161 1.743.064 1.735.5-.023 1.184-1.615 3.477-2.347 3.379-1.789-.239-1.777.06.064 1.665 1.181 1.029 1.919 2.78 1.79 4.25-.12 1.375.235 3.378.788 4.452.707 1.371.668 2.065-.129 2.331-.804.268-.836.937-.108 2.298.716 1.336.702 1.919-.043 1.919-.76 0-.76.579 0 2 .627 1.171.678 2 .124 2-1.403 0-.737 2.804 1.204 5.071.935 1.091 1.788 3.064 1.898 4.384.109 1.32.622 2.139 1.141 1.818.518-.32.662-.129.32.425-.343.554.023 1.861.813 2.905 1.894 2.502 1.894 3.969 0 2.397-1.232-1.023-1.5-.945-1.5.437 0 .924.422 1.42.937 1.102.529-.327.739.519.481 1.941-.269 1.483.01 2.52.679 2.52.631 0 .911.86.63 1.935-.3 1.147.086 2.163.947 2.493.799.307 1.222.931.941 1.387-.282.455.137 2.08.931 3.611.794 1.53 1.192 3.188.885 3.685-.307.497.159 1.178 1.035 1.514 1.419.545 1.398.755-.187 1.922-1.527 1.125-1.564 1.394-.262 1.899 1.027.399 1.46 1.788 1.341 4.308-.096 2.046.213 4.444.687 5.33.533.996.422 2.049-.292 2.763-.807.807-.823 1.153-.053 1.153.733 0 1.145 4.016 1.233 12 .093 8.482-.207 12-1.023 12-.845 0-.86.355-.056 1.324.802.966.781 1.641-.078 2.5-.834.834-.851 1.176-.056 1.176 1.258 0 1.314 7.168.063 8.06-.432.308.088 1.497 1.155 2.643 1.068 1.146 1.631 2.429 1.252 2.851-.38.422-.134.447.545.057.902-.519 1.086.044.681 2.089-.395 1.997.04 3.433 1.515 5.008 1.138 1.215 2.069 2.405 2.069 2.644 0 1.013 5.9 6.648 6.96 6.648.637 0 .88.45.54 1-.34.55.012 1 .783 1 .77 0 1.944 1.813 2.608 4.029.663 2.216 1.522 3.838 1.908 3.605.878-.531 3.239 1.935 2.641 2.759-.242.334-.148.39.208.125.357-.265 1.482.479 2.5 1.653 1.019 1.174 1.852 1.713 1.852 1.196 0-.516.9-.938 2-.938s2 .592 2 1.317c0 .724.622 1.556 1.383 1.847.76.292 2.117 3.09 3.016 6.219 5.38 18.734 6.856 21.884 9.492 20.256 1.588-.982.702-4.457-2.029-7.953-2.307-2.955-2.382-4.252-.198-3.414 1.203.462 1.439.275.852-.675-.447-.723-.776-2.599-.731-4.17.045-1.571-.365-2.856-.911-2.856s-.739-.409-.43-.91c.741-1.198-.397-4.09-1.61-4.09-.524 0-.674.45-.334 1s.141 1-.441 1c-1.495 0-1.324-4.736.191-5.292 1-.366 1-.723 0-1.783-2.086-2.211-1.431-2.848 2.5-2.435 2.063.217 3.75.452 3.75.523 0 .07 2.025.214 4.5.32 2.475.106 5.047.541 5.715.967.711.453 2.866-.318 5.192-1.857 2.188-1.448 4.454-2.338 5.035-1.979.582.36 1.058.22 1.058-.311s.849-.744 1.887-.472c1.038.271 2.19.004 2.559-.594.37-.598 1.686-1.087 2.924-1.087 1.239 0 3.249-.928 4.466-2.062 1.218-1.134 3.173-2.247 4.345-2.473 1.173-.226 3.143-1.36 4.379-2.521 1.965-1.847 2.356-1.916 3.118-.554.758 1.354 1.216 1.377 3.526.179 1.46-.757 2.839-1.192 3.065-.966.226.225 2.058-1.19 4.071-3.145s3.689-2.97 3.723-2.256c.035.714.481.257.992-1.016.533-1.329 1.403-2.021 2.043-1.625.788.486.725.93-.212 1.51-.731.451-.999 1.149-.596 1.552.402.402 1.571-.136 2.598-1.196 3.275-3.381 5.925-5.28 6.527-4.678.322.321.585.059.585-.582 0-.642.338-1.098.75-1.013 1.524.314 8.25-3.22 8.25-4.334 0-.634.297-.856.66-.493.363.363 1.284-.23 2.046-1.318.763-1.089 2.378-1.927 3.59-1.863 3.185.168 9.415-2.798 11.913-5.671 1.183-1.361 2.746-2.475 3.471-2.475.726 0 1.32-.379 1.32-.841 0-.463 3.375-5.274 7.5-10.692s7.5-10.234 7.5-10.702c0-.469 1.124-2.064 2.497-3.546 1.374-1.481 3.437-5.516 4.585-8.966 1.191-3.578 2.911-6.714 4.003-7.298 1.053-.564 1.915-.805 1.915-.536 0 1.002 4.736-4.287 5.408-6.041.594-1.547.84-1.6 1.63-.35.512.81 1.007 1.022 1.099.472.092-.55.272-1.45.4-2s.284-1.562.348-2.25c.063-.687 1.288-1.25 2.722-1.25 1.886 0 2.451-.408 2.042-1.474-.311-.81.086-1.838.884-2.284.797-.446 3.397-4.621 5.778-9.277 3.131-6.122 4.794-8.384 6.009-8.171.924.161 1.68-.203 1.68-.809 0-.607-.45-.825-1-.485-.55.34-1 .104-1-.524 0-.629.563-.951 1.25-.717.693.235 3.209-2.513 5.645-6.167 2.417-3.626 5.117-7.358 6-8.294 2.825-2.996 3.604-4.162 7.548-11.298 2.127-3.85 5.093-8.575 6.59-10.5 2.709-3.482 10.967-20.033 10.967-21.98 0-.561.675-1.02 1.5-1.02s1.5-.675 1.5-1.5.394-1.5.875-1.5 1.134-1.296 1.451-2.88c.57-2.852.623-2.871 5.375-2 4.418.811 6.227 1.34 11.799 3.45 1.1.416 2.225.818 2.5.893 3.386.918 5.189 2.021 6.109 3.74.781 1.46 1.326 1.712 1.853.858.559-.903 1.163-.793 2.393.437 1.204 1.204 1.649 1.29 1.66.323.013-1.071.178-1.065.873.032.476.751 2.92 1.46 5.493 1.592 3.967.204 8.124 1.555 4.786 1.555-.642 0-1.167.505-1.167 1.122 0 .801.368.817 1.284.058a2.305 2.305 0 0 1 2.702-.189c.78.482 1.73.685 2.11.45.38-.235 2.32.253 4.309 1.084 5.093 2.128 13.593 2.198 15.109.125.651-.89 1.477-1.326 1.835-.968.358.358.658.014.666-.765.013-1.167.187-1.152.985.083.828 1.282.972 1.246.985-.25.009-1.078.783-1.75 2.015-1.75 2.568 0 2.537 1.096-.095 3.349-1.152.987-1.803 2.086-1.446 2.444.358.357 1.021.049 1.474-.685.659-1.067.911-1.077 1.252-.052.51 1.53 8.13 1.499 8.641-.035.187-.561.78-1.021 1.316-1.021.537 0 .698.45.358 1-.361.584.549.952 2.191.884 1.581-.065 2.068-.311 1.114-.563-.991-.261-1.463-1.047-1.138-1.895.39-1.017.075-1.264-1.056-.83-1.995.765-1.998.487-.038-3.442 2.023-4.055 3.406-4.017 3.506.096.043 1.788.341 2.583.661 1.768 1.386-3.531 3.257-4.283 3.33-1.339.062 2.478.175 2.578.93.821.473-1.1.891-1.411.93-.691.038.72.568 1.001 1.177.625.778-.481.719-.924-.198-1.49-.922-.57-.512-1.005 1.393-1.484 1.484-.372 2.698-1.029 2.698-1.46 0-.431 1.125-1.066 2.5-1.411s2.5-1.251 2.5-2.014c0-.922.712-1.201 2.123-.833 2.101.55 2.098.57-.25 1.871-1.305.724-1.85 1.332-1.211 1.352.639.019 1.466 1.835 1.838 4.035.372 2.2 1.086 4 1.588 4s.912.436.912.969c0 .532-.675.709-1.5.393-1.139-.437-1.5.187-1.5 2.59 0 1.856.414 2.91 1 2.548.55-.34 1.014-.029 1.032.691.019.807.594.565 1.5-.632 2.078-2.748 2.057-17.825-.027-19.555-1.678-1.392-27.084-5.984-32.505-5.875-3.201.064-3.286.139-1 .871 1.375.44 4.181.845 6.236.9 4.398.118 12.764 2.215 12.764 3.201 0 .377-2.137.494-4.75.26-2.613-.234-13.975-.788-25.25-1.231-14.552-.572-22.241-1.314-26.5-2.558-3.3-.963-6.549-1.848-7.221-1.966-1.655-.291-2.889-1.606-1.508-1.606.608 0 4.17.719 7.917 1.598 4.498 1.055 10.548 1.525 17.812 1.385 6.05-.116 12.575-.162 14.5-.102 2.616.083 3.121-.137 2-.87-.825-.539-4.65-1.019-8.5-1.067-21.876-.27-56.457-6.803-51.793-9.785.567-.362 1.357-4.186 1.755-8.496.436-4.707 1.688-10.014 3.136-13.288 1.964-4.442 2.296-6.428 1.791-10.725-.522-4.438-.188-6.214 2.106-11.212 1.499-3.266 3.126-6.978 3.614-8.248.488-1.271 1.338-2.032 1.889-1.691.556.344 1.016-.408 1.034-1.69.017-1.27.692-3.183 1.5-4.25.807-1.068 1.475-3.093 1.483-4.5.009-1.408.419-3.196.912-3.976.493-.779.534-2.369.091-3.535-.511-1.344-.329-2.769.496-3.899 1.411-1.929 1.031-11.762-.569-14.753-.491-.917-.841-3.181-.778-5.031.165-4.88-4.262-25.34-6.138-28.365-.342-.55-.551-2.8-.467-5 .102-2.636-.418-4.511-1.524-5.5-1.534-1.371-5.152-10.122-5.168-12.5-.004-.55.335-6.85.753-14s.902-22.45 1.076-34c.174-11.55.393-23.25.487-26 .388-11.427-.157-17.5-1.569-17.5-.761 0-1.599 1.125-1.862 2.5m-98.118 122.349c-1.369 1.513-2.049 3.608-4.426 13.651-.927 3.918-.917 15.13.015 16.06.399.399 1.457.118 2.351-.624.893-.741 2.359-1.456 3.256-1.588.897-.131 1.808-.77 2.024-1.419.216-.648 1.221-2.007 2.234-3.02s2.997-3.673 4.411-5.912c1.413-2.239 3.004-3.803 3.534-3.475.53.328.964-.106.964-.963s.495-1.559 1.099-1.559c.702 0 .939-1.613.655-4.455-.244-2.45.001-4.9.546-5.445 1.194-1.194-1.46-1.895-9.471-2.502-4.427-.336-6.004-.062-7.192 1.251m91.989 85.089c-.357 2.234-1.024 4.062-1.482 4.062-5.27 0-8.97 13.194-5.505 19.629 2.444 4.538 2.724 4.392 6.472-3.379 2.781-5.768 3.263-7.872 3.309-14.463.061-8.774-1.728-12.519-2.794-5.849M0 517.316c0 1.068 1.237 1.791 3.75 2.194 5.288.847 5.722.955 15.75 3.95 4.95 1.478 9.848 2.865 10.884 3.082 1.036.217 3.736 1.05 6 1.851 2.264.802 6.254 2.039 8.866 2.75 2.612.712 4.75 1.645 4.75 2.075 0 .43.338.709.75.621.413-.089 1.974.344 3.469.963 1.496.619 4.421 1.254 6.5 1.412 2.08.157 4.376.849 5.102 1.536.727.688 2.219 1.25 3.316 1.25s2.846.456 3.888 1.013c2.365 1.266 18.011 4.284 18.69 3.605.275-.275-2.136-1.22-5.358-2.099-3.221-.88-10.357-3.344-15.857-5.476-5.5-2.131-10.9-4.094-12-4.361-1.1-.266-5.825-1.899-10.5-3.627-23.071-8.529-48-14.107-48-10.739m265.355 2.201c-.313.816-1.758 1.485-3.212 1.488l-2.643.005 2.893 2.315 2.893 2.315-2.676 5.328c-4.327 8.615-8.473 13.283-11.19 12.601-1.264-.317-2.596-.094-2.96.496-.364.589-1.292.83-2.061.535-.77-.296-1.399-.101-1.399.431 0 2.289-5.241.746-8.997-2.647-2.202-1.989-4.003-3.167-4.003-2.617 0 .55 1.853 2.674 4.118 4.721 4.097 3.701 4.15 3.716 10.549 3.031 6.457-.691 11.865-2.653 10.654-3.865-.357-.357.96-2.024 2.928-3.704 2.594-2.216 3.9-4.401 4.752-7.953 1.762-7.345 4.109-8.246 13.999-5.376 2.248.653 2.362.557 1.128-.948-.755-.92-2.191-1.673-3.191-1.673-1.001 0-2.102-.457-2.447-1.016-.346-.559-1.006-.783-1.469-.497-1.295.801-4.021-.546-4.021-1.987 0-1.913-2.98-2.717-3.645-.983" fill="#d3d3d3" fill-rule="evenodd"/></svg>