<svg xmlns="http://www.w3.org/2000/svg" width="500" height="296"><path d="M76 1.503c0 1.197-.423 1.341-1.794.607-1.643-.879-4.186-.837-12.812.215-6.843.835-6.402 3.553.606 3.736l3.5.091-3 1.174c-7.797 3.051-9.504 5.642-3.294 5 2.61-.27 2.879-.154 1.294.559-1.861.838-1.876.951-.22 1.626 1.223.499 1.583 1.345 1.151 2.706-.526 1.657-.286 1.872 1.47 1.314 1.237-.392 2.099-.227 2.099.402 0 .587-.381 1.067-.847 1.067-.466 0-1.825.848-3.021 1.885-1.947 1.689-1.997 1.953-.483 2.534.93.357 1.952.296 2.271-.135.319-.431 1.143-.896 1.83-1.034 1.963-.393 1.461 3.607-.75 5.98-1.1 1.181-2.007 1.725-2.015 1.209-.009-.517-.372-.378-.807.308-.436.686-3.016 2.349-5.735 3.697-5.656 2.804-4.567 3.214 2.903 1.092 6.891-1.956 10.568-1.398 10.639 1.615.017.748-5.043 3.874-12.985 8.022-5.79 3.023-13.637 10.795-17.203 17.036-1.166 2.04-2.497 3.476-2.958 3.191-.462-.285-.839.66-.839 2.1 0 3.288 1.325 2.529 4.575-2.618 2.849-4.515 5.436-7.283 8.176-8.749 2.398-1.283 4.899 1.311 4.432 4.596-.191 1.346.649 3.194 2.122 4.667 2.054 2.054 2.183 2.506.817 2.872-2.04.545-10.333 16.018-9.604 17.917.356.929 1.803 1.322 4.261 1.158 2.046-.137 2.821-.011 1.721.28-1.1.291-3.676.959-5.724 1.484-2.754.707-4.527 2.124-6.812 5.445-2.839 4.126-5.639 5.37-4.313 1.916.309-.807.177-1.467-.294-1.466-1.488.003-.99-10.398.555-11.607 1.665-1.303.694-4.763-1.163-4.145-.687.229-1.414 1.278-1.615 2.333-.201 1.054-.876 2.248-1.5 2.652-.768.497-.666.739.316.75 1.128.012 1.183.282.25 1.215-.66.66-1.2 2.235-1.2 3.5 0 1.265-.525 2.3-1.167 2.3-.641 0-.87.296-.508.658 1.179 1.179-1.347 3.149-3.362 2.622-1.304-.341-1.963-.012-1.963.981 0 2.132-1.97 3.455-6 4.031-5.161.737-8.584 2.229-7.148 3.116 1.737 1.074-2.67 8.592-5.036 8.592-.999 0-1.816-.627-1.816-1.393s-.675-1.652-1.5-1.969c-1.277-.49-1.5 1.054-1.5 10.393C0 128.115.258 130 1.5 130c.825 0 1.5-.477 1.5-1.059s.419-.8.931-.484c.512.317 1.169.19 1.461-.282.292-.472 1.898-.777 3.569-.677 1.671.099 3.039-.085 3.039-.409 0-.324 2.539-.589 5.641-.589 5.058 0 5.859.297 7.75 2.876 3.239 4.418 12.75 13.816 13.363 13.204.852-.853 3.104-4.81 4.455-7.83.676-1.512 1.581-2.75 2.01-2.75.43 0 .781-.73.781-1.622 0-1.329.271-1.398 1.5-.378.906.752 1.5.833 1.5.206 0-.572-.562-1.266-1.25-1.544-.725-.292-.49-.537.559-.583.995-.043 1.531-.529 1.191-1.079-.34-.55-.15-1 .422-1s1.337-1.237 1.699-2.75c.363-1.513 1.299-4.018 2.08-5.568 2.294-4.551.883-5.46-1.77-1.14-1.337 2.177-3.234 4.023-4.215 4.102-2.349.191-5.606-6.233-7.278-14.356-.138-.667.548-1.466 1.522-1.775C43.586 103.997 52.437 96 51.382 96c-.253 0 .119-.628.829-1.395.709-.767 1.594-1.211 1.967-.986.373.226.952-.454 1.288-1.51.647-2.042 3.661-2.227 4.315-.265.214.642.779.928 1.254.634.476-.294 1.353.379 1.95 1.494S65.01 96 66.158 96c1.663 0 1.854-.281.939-1.383-.885-1.067-.799-1.517.377-1.969 2.43-.932 1.987-5.002-.474-4.358-1.581.413-2 .03-2-1.825 0-1.291-.518-2.667-1.151-3.059-1.863-1.151 2.13-3.449 4.82-2.774 1.436.36 3.404-.105 5.076-1.201C76.429 77.673 84.825 76.888 88 78.1c.825.315 1.191.393.813.174-1.344-.78 2.67-4.274 4.909-4.274 1.253 0 2.278-.449 2.278-.997 0-.549 1.627-2.799 3.616-5C103.255 63.975 102.73 62.27 99 66c-2.942 2.942-6.186 2.539-8.211-1.019-.941-1.654-2.28-2.889-2.976-2.744-.696.145-1.42-.75-1.609-1.987-.189-1.237-.837-2.25-1.44-2.25-.604 0-.783.314-.399.698.384.384-.277 1.22-1.469 1.858l-2.167 1.159 2.464.619c2.659.667 5.406 5.178 3.769 6.189-.529.327-.962-.107-.962-.964S85.325 66 84.5 66s-1.5.438-1.5.974C83 68.622 77.304 71 73.359 71c-3.541 0-3.637-.082-1.8-1.537 2.039-1.615 1.549-1.615-8.309-.006-1.237.202-2.25-.043-2.25-.545S61.477 68 62.059 68s.781-.45.441-1-.179-1 .358-1c.536 0 1.144.506 1.35 1.125.207.619 1.219-.747 2.251-3.034 1.421-3.152 2.371-4.091 3.916-3.875 1.233.171 2.453-.511 3.083-1.724 2.425-4.674 4.451-6.741 6.016-6.14 2.064.792 3-1.598 1.628-4.161-1.685-3.148 4.312-5.777 7.014-3.075 2.833 2.833 3.879 2.354 2.832-1.296-.913-3.184-2.438-4.776-4.604-4.805-.874-.011-.874-.622 0-2.507 1.188-2.561 2.852-3.458 2.406-1.297-.138.67 1.537 1.66 3.75 2.214 4.338 1.088 6.418 3.003 6.468 5.957.072 4.269 3.89 8.298 9.957 10.51 4.991 1.82 6.028 2.618 6.563 5.051.349 1.59 1.301 3.146 2.116 3.459 1.059.406 1.223 1.072.574 2.333-.499.971-.694 2.363-.433 3.094.409 1.146-2.57 8.171-7.329 17.281-.75 1.435-1.038 2.97-.64 3.41.398.44.162.477-.526.081-1.574-.906-1.672 1.577-.123 3.126 1.447 1.447.491 5.217-2.185 8.62-2.616 3.326-3.64 2.738-5.061-2.906-.648-2.572-1.7-4.441-2.5-4.441C98.462 93 98 91.795 98 89.393c0-2.795-.338-3.477-1.5-3.031-.876.336-1.5.015-1.5-.771 0-1.466-2.764-4.16-3.507-3.418-.596.597 1.753 7.141 2.852 7.945.465.34-.348.917-1.807 1.283-1.721.432-2.577 1.269-2.439 2.382.437 3.51-1.976 7.242-5.082 7.864-3.2.64-3.892 2.382-1.677 4.22.737.612 1.259 2.467 1.161 4.123-.099 1.655.154 3.01.561 3.01.407 0 1.79 1.688 3.073 3.75 3.032 4.874 3.364 5.676 1.995 4.83-1.757-1.085-1.354.124 1.453 4.366 2.584 3.905 6.182 6.49 5.097 3.663-.756-1.971.37-2.812 1.978-1.478.865.718 1.342.748 1.342.085 0-1.149 3.742-.443 4.546.859.793 1.283-.644 5.982-1.641 5.366-.485-.3-.616.15-.29.999.349.909-.066 1.796-1.011 2.159-2.183.837-2.029 2.401.235 2.401 1.012 0 2.364-1.15 3.005-2.556 1.629-3.575 3.494-2.014 2.909 2.436-.262 1.991-.12 4.52.315 5.62.763 1.927.794 1.921.862-.168.108-3.33 1.135-5.332 2.736-5.332.843 0 1.153-.484.739-1.155-.475-.768-.271-.88.61-.335.948.585 1.152.368.719-.761-.334-.869-.224-2.855.244-4.414l.85-2.835.086 3.25c.074 2.803 2.086 4.973 2.086 2.25 0-.55 1.35-1 3-1s3 .45 3 1 .848 1 1.883 1c1.073 0 2.12.904 2.433 2.101.303 1.156 1.029 1.804 1.617 1.441.587-.363 1.067-.135 1.067.506s.652.916 1.449.61c.866-.332 1.688.198 2.044 1.319.435 1.371 1.278 1.751 3.135 1.414 1.937-.351 2.668.025 3.075 1.581.381 1.456 1.653 2.221 4.43 2.665 3.018.483 3.656.912 2.833 1.904-.74.891-.744 1.478-.015 1.929 1.29.797 1.398 4.53.132 4.53-.504 0-1.143-.562-1.421-1.25-.388-.961-.522-.948-.583.059-.043.72-.579 1-1.191.622-.611-.378-1.504-.067-1.984.691-1.382 2.182-1.046 3.241.596 1.878 1.096-.91 1.855-.95 2.82-.15 1.316 1.093 1.15 2.897-1.839 19.9-.696 3.958-2.45 4.3-2.562.5l-.081-2.75-1.374 3c-.756 1.65-1.394 2.313-1.419 1.474-.034-1.167-.967-1.439-3.958-1.154-3.173.303-4.125-.023-5.035-1.723-1.255-2.345-6.577-2.96-7.332-.847-1.796 5.029-2.758-7.314-1.266-16.239.482-2.881.385-3.18-.537-1.665-.618 1.016-1.37 4.555-1.67 7.866l-.546 6.019-4.49-.616c-2.47-.338-5.113-.615-5.875-.615-.762 0-1.81-1.116-2.329-2.481-.569-1.497-1.487-2.272-2.315-1.954-1.977.759-4.191-2.371-3.866-5.467.193-1.84-.552-3.409-2.434-5.125-2.026-1.847-2.553-2.03-2.084-.723.416 1.158.132 1.75-.839 1.75-.808 0-1.469.675-1.469 1.5s-.562 1.507-1.25 1.515c-.833.011-.75.339.25.985 1.222.79 1.099.972-.667.985-1.191.008-2.343-.516-2.56-1.165-.901-2.703-3.775.177-3.891 3.899-.116 3.695-.134 3.713-.815.781-.684-2.943-.712-2.917-1.492 1.381-1.204 6.633-2.548 2.999-2.061-5.572.327-5.741.075-7.577-1.213-8.865-1.377-1.377-1.41-1.762-.213-2.519 1.083-.686.907-.898-.756-.91-1.193-.008-2.88-.288-3.75-.622-1.19-.456-1.582.03-1.582 1.961 0 2.764-2.2 3.707-12 5.146-2.475.363-5.737.855-7.25 1.094-1.513.239-2.75-.022-2.75-.58 0-.558-.477-1.014-1.059-1.014s-.781.45-.441 1-.035 1-.834 1c-2.571 0-2.867 3.164-.503 5.367 1.645 1.532 2.057 1.648 1.596.447-.532-1.386.123-1.571 4.56-1.292 2.85.179 7.929.338 11.288.354l6.108.028.646 4.711c.806 5.883 1.28 5.537-8.579 6.269-4.555.339-8.131 1.016-7.947 1.504 1.025 2.715-7.286 2.668-9.335-.052-.826-1.097-1.499-1.067-3.864.168-1.576.823-3.938 1.496-5.25 1.496-3.814 0-2.755 1.685 1.484 2.363 2.129.341 4.43 1.293 5.113 2.117.684.824 1.646 1.249 2.138.945 1.555-.961 4.028 2.215 2.601 3.341-2.313 1.825-9.393 2.134-11.046.482-1.378-1.378-1.699-1.368-3.168.102-1.514 1.513-1.445 1.722.928 2.803 1.41.642 2.579 1.433 2.597 1.758.019.324.894 1.621 1.945 2.882l1.912 2.293 7.028-3.682c3.866-2.025 6.789-4.068 6.497-4.541-.292-.473.48-.748 1.715-.612 1.502.167 2.644-.526 3.445-2.089.721-1.408 1.463-1.91 1.863-1.262.453.733 1.436.573 3.07-.497 1.322-.867 2.877-1.283 3.455-.926.578.357 1.313-.034 1.634-.869.452-1.179 1.678-1.4 5.493-.988 4.618.498 4.912.391 4.942-1.795.03-2.184.115-2.216 1.404-.515.883 1.165 3.102 1.966 6.218 2.245 9.251.83 12.346 1.59 12.346 3.033 0 .861-1.035 1.412-2.653 1.412h-2.653l2.195 1.904c2.498 2.166 4.118 6.95 4.096 12.089-.012 2.763-.243 3.189-1.087 2.007-.84-1.176-.948-.96-.498 1 .315 1.375.638 4.525.718 7l.145 4.5.79-3.5c.607-2.692.724-1.999.507 3-.155 3.575-.056 4.925.22 3 .495-3.454.519-3.428 1.806 2 1.391 5.862 7.094 23.255 8.647 26.368 1.135 2.276.173 3.35-3.606 4.028-4.329.778-4.153 1.234.976 2.526l4.679 1.178-.581 6.928c-.33 3.932-.174 7.179.359 7.509 1.764 1.09.945 2.607-1.31 2.424-4.089-.331-4.75.015-4.75 2.492 0 2.724 1.931 7.547 3.021 7.547.788 0 2.259 8.791 2.301 13.75l.028 3.25h12.208c12.183 0 12.21-.005 12.68-2.465.259-1.356.006-2.62-.563-2.81-.596-.199-.718-1.167-.288-2.285.699-1.814.811-1.826 1.73-.19.54.962 1.973 1.743 3.183 1.735 2.15-.014 2.145-.043-.221-1.25-3.282-1.674-3.887-3.742-.886-3.031 2.26.535 2.266.515.313-.994-1.253-.968-2.225-1.164-2.618-.528-.696 1.126-2.888-4.438-2.888-7.331 0-1.184.72-1.851 2-1.851 1.663 0 2.025.717 2.15 4.25l.15 4.25.6-4.103c.437-2.988 1.032-4.038 2.19-3.862 1.009.153 2.04-1.006 2.824-3.174.679-1.878 1.764-3.354 2.41-3.279 3.942.453 5.372-1.211 5.274-6.141-.058-2.917-.604-5.102-1.348-5.392-.687-.267-1.25-1.414-1.25-2.549s-.638-2.307-1.417-2.606c-1.956-.751-7.235-11.087-6.172-12.085.475-.445 1.048-.294 1.274.335.44 1.223 4.315.643 4.315-.647 0-.423-1.575-1.517-3.5-2.43-3.803-1.804-4.388-3.012-1.918-3.96 2.513-.964 5.213-.763 3.587.267-1.238.785-.359 1.146 6.331 2.604.55.119 2.394.286 4.097.37 1.703.083 4.151 1.066 5.44 2.184 2.318 2.01 2.322 2.053.403 3.934-1.907 1.87-2.007 1.87-5.869-.032-2.16-1.064-5.043-1.934-6.405-1.934-2.399 0-2.421.061-.696 1.967 1.038 1.147 1.559 2.815 1.249 4-.408 1.56-.03 2.06 1.625 2.149 1.797.097 1.853.194.333.587-1.126.292-1.605 1.043-1.25 1.966.315.822.58 1.795.588 2.163.009.367.41.046.891-.715.736-1.161 1.246-1.124 3.173.226 2.17 1.52 3.551 4.657 2.051 4.657-.382 0-.785 1.105-.897 2.455-.112 1.351-.299 2.813-.416 3.25-.117.437.111 1.742.506 2.9.396 1.158.289 3.183-.238 4.5-.527 1.317-.994 1.72-1.037.895-.126-2.395-2.031 1.003-1.962 3.5.053 1.955.072 1.956.816.054.736-1.88.781-1.875 1.314.165.738 2.822-1.186 6.453-4.236 7.997-2.163 1.094-2.224 1.254-.48 1.253 1.1 0 3.523-1.344 5.386-2.985 1.862-1.641 2.874-2.984 2.25-2.984-1.444 0-1.506-7.23-.075-8.661 1.483-1.483 8.338.968 8.776 3.138.196.966.933 1.441 1.75 1.128.777-.298 1.42.006 1.428.676.012.897.21.915.75.069.404-.633 1.635-1.308 2.735-1.5 1.758-.308 1.998.195 1.98 4.15-.011 2.475.519 5.063 1.178 5.75 1.731 1.804 2.231 1.543 1.609-.838-.456-1.743-.151-2.032 1.843-1.75 1.478.209 2.297.923 2.146 1.871-.168 1.054.533 1.498 2.243 1.424 2.787-.122 4.773-1.457 2.168-1.457-.917 0-1.667-.45-1.667-1s.505-1 1.122-1c.774 0 .734-.468-.127-1.506-.688-.829-1.597-2.966-2.02-4.75-.754-3.175-.772-3.152-.873 1.072-.097 4.099-.241 4.301-2.852 4-2.491-.286-2.719-.645-2.421-3.816.203-2.156 1.259-4.313 2.75-5.616 1.332-1.164 2.421-2.627 2.421-3.25 0-.624.653-1.134 1.45-1.134.798 0 1.893-.788 2.433-1.75.936-1.667 1.015-1.667 1.657 0 1.48 3.841 2.689 1.594 2.269-4.215-.446-6.159.826-8.385 3.174-5.555 1.356 1.634 5.756 1.223 9.911-.925 1.654-.855 4.369-1.555 6.033-1.555 4.238 0 6.399-3.505 5.666-9.188-1.398-10.839-2.148-12.223-8.085-14.921l-4.008-1.821 5.5.6c3.025.331 5.652.729 5.837.886.937.792 2.118 8.672 2.139 14.265.032 8.313 3.078 11.795 6.298 7.199 1.243-1.776 3.688-2.729 7.552-2.946 1.494-.083 1.551-26.667.061-28.624-1.292-1.697-2.257-9.45-1.175-9.45 2.394 0 3.288 5.693 3.288 20.93v15.836l2.75.069c1.512.038 4.213.366 6 .73 2.288.466 3.25.292 3.25-.59 0-.688 1.828-3.327 4.063-5.863 6.378-7.241 7.937-9.773 7.937-12.891 0-1.051.9-2.726 2-3.721 1.1-.995 2-2.79 2-3.988s.563-2.221 1.25-2.273c.688-.052 2.15-.375 3.251-.718 1.337-.417 3.617.447 6.871 2.602 2.678 1.774 7.716 4.22 11.195 5.436l6.324 2.21.418-2.135c.395-2.011.426-2.018.555-.111.301 4.477 11.115 6.865 18.224 4.022 2.19-.876 2.737-12.545.587-12.545-.787 0-2.007-.695-2.713-1.546-.705-.85-1.943-1.292-2.749-.982-.807.309-1.972-.075-2.59-.854-.618-.779-2.248-1.71-3.623-2.069-2.425-.633-2.412-.584.441 1.649 1.617 1.266 3.867 2.626 5 3.023 1.144.4-.607.599-3.941.447-6.737-.307-7.015-.504-16.94-11.964-4.222-4.876-6.117-6.43-6.707-5.5-.628.99-.826.919-.838-.301-.019-1.966-2.224-4.455-7.768-8.767-2.338-1.82-4.525-4.394-4.858-5.722-.333-1.328-1.12-2.428-1.747-2.446-.628-.017-.354-.629.608-1.36 1.171-.889 1.75-2.698 1.75-5.468 0-2.277.455-4.14 1.012-4.14.613 0 .77-1.51.399-3.83-.351-2.197.117-7.403 1.098-12.213 1.419-6.957 1.478-8.457.35-8.814-1.569-.497-9.859-9.218-9.859-10.371 0-1.647 1.606-.572 4 2.676 2.151 2.92 6.75 6.552 8.296 6.552 1.426 0 1.473-5.322.082-9.403-.875-2.57-1.342-5.628-1.036-6.796.878-3.36-1.06-5.975-4.161-5.614-2.325.272-2.65-.019-2.447-2.187.21-2.251.142-2.301-.68-.5-.882 1.932-.916 1.925-.984-.203-.038-1.212-.592-3.349-1.231-4.75-.902-1.98-.868-3.159.153-5.297l1.313-2.75.794 2.5c.75 2.364.782 2.336.592-.5-.135-2.005.563-3.746 2.105-5.25 1.269-1.237 1.946-2.26 1.506-2.272-.441-.012.323-.902 1.698-1.978 2.101-1.643 2.211-1.959.686-1.978-1.436-.017-1.749-.689-1.5-3.224.245-2.494-.182-3.452-1.931-4.339l-2.244-1.138 2.802-2.497c3.445-3.07 8.854-4.427 8.854-2.223 0 .827-.592 1.258-1.334.973-.733-.281-1.333-.075-1.333.457 0 .533.499.969 1.108.969.676 0 .87.953.496 2.44-.423 1.687-.07 2.849 1.142 3.763 2.411 1.816 4.409 5.583 3.319 6.257-.492.304-1.122-.013-1.401-.704-.295-.732-.539-.496-.585.565-.088 2.026 2.334 4.933 3.302 3.965.34-.341.619-.118.619.496 0 1.47 4.893 6.718 6.263 6.718.589 0 1.279.625 1.533 1.389.281.843.019 1.115-.666.691-.622-.384-1.13-.221-1.13.361s-.822 1.059-1.827 1.059c-1.454 0-1.738.602-1.394 2.95.366 2.49-.091 3.27-2.923 4.996l-3.356 2.047 2.785.003c2.475.004 2.666.227 1.715 2.004-.989 1.849-.653 2.419 1.25 2.118.768-.121 1.114 1.405.825 3.632-.09.687.334 1.25.94 1.25.607 0 .862.39.568.866-.761 1.231 3.073 4.464 4.354 3.673.585-.361 1.063-1.395 1.063-2.298 0-1.187.302-1.339 1.093-.548 1.162 1.162-1.455 6.307-3.208 6.307-.487 0-.885.502-.885 1.115 0 .666 1.057.423 2.626-.605 3.014-1.976 4.359-.89 4.323 3.49l-.02 2.5-1.429-2.5c-2.083-3.643-1.879-.401.383 6.093 2.904 8.34 4.067 10.41 6.432 11.448 1.202.527 2.629 1.971 3.172 3.209.572 1.304 1.869 2.25 3.083 2.25 1.153 0 2.395.298 2.759.663.365.364 2.127.805 3.917.98 2.863.279 3.014.182 1.254-.81-1.1-.621-2.164-1.263-2.364-1.428-.2-.165.587-1.509 1.75-2.987 2.774-3.527 2.718-3.76-1.386-5.717-1.925-.918-3.5-2.178-3.5-2.801 0-.641-.869-.906-2-.61-1.396.365-2.014.022-2.048-1.134-.026-.911-.255-4.029-.508-6.929-.31-3.561.006-5.996.974-7.5.789-1.225 1.742-3.911 2.118-5.968.376-2.058 1.107-3.479 1.626-3.159.518.32.849-.471.735-1.759-.387-4.359.099-7.962.998-7.406 1.695 1.048 1.825-1.955.428-9.935-1.428-8.164-3.142-16.709-3.936-19.626-.274-1.005.301-1.821 1.505-2.136 1.449-.378 2.107.121 2.565 1.947.782 3.114 3.152 2.429 2.722-.786-1.061-7.941.387-14.871 3.113-14.893 1.213-.009 3.582-2.006 9.284-7.824 3.451-3.522 5.39-4.873 5.739-4 .357.893.553.773.606-.373.14-3.004 1.881-2.922 5.505.26 4.035 3.543 6.664 10.639 4.449 12.008-1.856 1.147-2.859.18-2.991-2.886-.079-1.825-.268-2.104-.587-.868-.278 1.073-1.054 1.601-1.884 1.282-.822-.315-1.413.072-1.413.926 0 .808.527 1.469 1.171 1.469s1.972.725 2.951 1.61c1.636 1.481 1.653 1.804.21 4.005-1.276 1.949-1.333 2.679-.304 3.918 1.098 1.323 1.54 1.092 3.368-1.759 1.157-1.806 2.779-3.281 3.604-3.278.825.002 1.39-.551 1.256-1.228-.134-.678.991-1.493 2.5-1.811 1.509-.318 3.56-1.022 4.557-1.565.996-.543 2.669-.715 3.716-.383 1.444.459 2.055.003 2.529-1.886.376-1.496 1.147-2.29 1.933-1.988.718.276 1.604.021 1.967-.567.429-.694-.851-1.073-3.649-1.083-3.333-.012-3.969-.258-2.809-1.087 1.169-.835.949-.933-1-.446-8.917 2.232-8.983 2.213-9.18-2.571-.488-11.898.648-13.916 7.482-13.295 3.363.305 3.701.205 1.698-.503-1.375-.486-3.977-.928-5.781-.983-4-.122-4.943-2.065-2.68-5.519 2.657-4.055 10.183-3.663 19.108.996 15.046 7.854 17.573 19.154 4.353 19.465-2.475.059-6.525.486-9 .951l-4.5.844 5.227-.108c6.063-.126 7.378.609 4.166 2.328-3.019 1.616-7.646 5.943-6.355 5.943.559 0 2.017-.701 3.239-1.557 1.305-.913 2.275-1.12 2.348-.5.069.581.238 1.507.375 2.057s.306 1.73.375 2.622c.096 1.241.441 1.361 1.467.509.738-.612 1.71-.78 2.159-.372.45.407.521-.083.158-1.091-.362-1.007-.659-2.046-.659-2.309 0-.262-.45-.199-1 .141-.55.34-1 .141-1-.441S369.45 72 370 72s1-.675 1-1.5c0-3.03 3.905-1.629 4.881 1.75.516 1.788.979 2.702 1.029 2.031.049-.67.765-.959 1.59-.643.825.317 1.5.13 1.5-.414 0-.545 1.328-.936 2.951-.87 2.947.121 4.959 3.365 3.525 5.684-.321.52-.171 1.685.335 2.588.613 1.097.338 3.231-.83 6.425-1.19 3.257-1.422 5.108-.726 5.804.696.696.548 2.462-.464 5.536-.817 2.483-1.109 4.891-.648 5.352.461.461.425 2.278-.08 4.038-.661 2.304-.572 3.413.315 3.96 1.498.921 5.622 8.776 5.622 10.706 0 .763.461 1.54 1.025 1.728.563.188-.288 1.913-1.891 3.833-2.895 3.467-2.974 3.492-11.275 3.546-8.827.058-10.726-.965-10.824-5.829-.023-1.156-1.073-1.983-3.013-2.371-4.195-.839-5.473-2.652-3.903-5.54 1.377-2.534 1.256-8.757-.201-10.264-.505-.523-.918-2.173-.918-3.667 0-1.494-.506-2.885-1.125-3.091-.619-.207-1.042-1.707-.94-3.334.405-6.475.186-7.82-1.686-10.339-1.29-1.736-3.091-2.731-5.339-2.95-1.866-.183-3.734-.858-4.151-1.5-.501-.771-.968-.406-1.373 1.07-.337 1.231-1.012 1.992-1.5 1.691-.487-.302-.886.154-.886 1.011 0 .857.509 1.559 1.131 1.559.73 0 .933 1.218.574 3.433-.443 2.726-.058 3.973 1.869 6.052 2.56 2.762 3.202 5.515 1.286 5.515-.627 0-1.666.72-2.309 1.599-2.07 2.831-7.99-2.116-8.277-6.917-.264-4.427-3.274-8.521-3.274-4.453 0 1.304-.54 2.911-1.2 3.571-.933.933-.847 1.2.389 1.2 1.024 0 1.822 1.244 2.245 3.5.361 1.925 1.241 3.5 1.956 3.5.715 0 2.115.9 3.11 2 .995 1.1 2.415 2 3.155 2 .74 0 1.345.64 1.345 1.423s1.133 2.769 2.517 4.415l2.516 2.991-2.394 1.883c-1.316 1.035-4.328 4.111-6.693 6.835-2.364 2.724-4.67 4.84-5.123 4.703-.982-.298-1.107 2.133-.158 3.082 1.444 1.444 1.257 5.852-.224 5.284-.793-.304-1.441-.075-1.441.509s.938 1.308 2.085 1.607c1.565.41 1.754.749.758 1.365-1.097.678-1.09 1.043.04 2.111 1.083 1.024 1.462 1.032 1.825.042.252-.687.857-1.25 1.344-1.25.487 0 .626.675.31 1.5-.317.825-1.155 1.5-1.862 1.5-1.295 0-2.528 2.166-2.467 4.332.019.642.93.092 2.025-1.224 2.677-3.213 3.3-2.223 1.742 2.769-1.209 3.872-2.8 5.552-2.8 2.956 0-2.524-1.307.318-1.547 3.363-.14 1.781-.749 3.403-1.354 3.604-.604.202-1.099.907-1.099 1.568 0 2.756-6.001 4.906-11.865 4.25-3.873-.434-5.166-.321-4.135.36.825.545 3.836.998 6.691 1.007 2.855.008 5.469.465 5.809 1.015.34.55 1.097 1 1.681 1 .671 0 .604-.554-.181-1.5-1.004-1.209-.979-1.501.128-1.503.754-.001 2.272-1.35 3.372-2.997 1.1-1.647 2.289-2.996 2.642-2.997.905-.004 2.033 4.905 1.372 5.974-.301.487-.089 1.167.47 1.513.559.345 1.016 2.176 1.016 4.069 0 1.893.438 3.441.974 3.441.906 0 4.026 5.083 4.026 6.557 0 .361-.565.44-1.255.175-.691-.265-1.897.205-2.681 1.044-1.261 1.35-1.091 1.462 1.467.973 2.007-.383 3.277-.047 4.149 1.099 1.682 2.211 1.628 3.152-.18 3.152-.825 0-1.5-.436-1.5-.969 0-.532-.619-.731-1.375-.441-.756.291-1.375 1.637-1.375 2.993 0 1.356-.948 3.288-2.107 4.293-1.159 1.005-1.888 2.046-1.62 2.313.728.729-1.584 6.811-2.589 6.811-.479 0-.584.749-.233 1.664.44 1.147.261 1.431-.575.914-.667-.413-1.756-.319-2.42.207-.663.527-2.071.819-3.128.65-1.918-.308-7.578 2.088-7.578 3.207 0 1.13 11.376-.658 13.645-2.145 3.356-2.199 3.673-1.865 1.662 1.753-2.421 4.355-2.92 4.615-7.157 3.729-2.008-.419-6.237-.823-9.4-.896l-5.75-.134v4.803c0 4.754 3.737 10.536 4.782 7.401.214-.641.8-.911 1.303-.6.503.311.915-.122.915-.963 0-.947.57-1.308 1.5-.952.825.317 1.5.106 1.5-.469s.851-.981 1.89-.902c1.265.095 1.697.654 1.306 1.688-.462 1.223-.217 1.181 1.181-.205 1.321-1.309 3.417-1.75 8.311-1.75 6.052 0 6.506-.151 6.023-1.999-.288-1.099-.112-2.253.391-2.564.502-.31.214-1.264-.642-2.12-1.355-1.355-1.37-1.765-.119-3.186.79-.897 1.76-3.153 2.156-5.014.47-2.207.991-2.945 1.5-2.122.429.694 1.243.974 1.811.624.567-.351 1.754.085 2.637.969 1.87 1.869 4.555 1.2 4.555-1.136 0-1.271-.686-1.487-3.25-1.025l-3.25.587 3.5-1.632a186.302 186.302 0 0 0 6.384-3.142c4.502-2.359 9.728-3.251 11.981-2.045 1.733.928 1.798 1.215.49 2.187-.828.615-2.243 2.253-3.145 3.639-.999 1.536-3.413 3.045-6.175 3.861-2.494.736-4.535 1.739-4.535 2.228 0 1.256 1.068 1.103 4.385-.627 2.166-1.129 3.222-1.224 4.241-.379.745.619 2.725.925 4.399.679 2.336-.343 3.009-.079 2.894 1.135-.291 3.078.098 4.082 1.581 4.082.825 0 1.5.408 1.5.906 0 .499-.896.673-1.99.386-1.433-.374-2.255.142-2.937 1.844-.61 1.524-.969 1.786-1.01.736-.045-1.166-.842-1.547-2.813-1.343-10.615 1.096-16.79 2.788-15.832 4.338.6.972 9.574.73 13.832-.372 1.566-.405 2.75-.304 2.75.236 0 1.424-4.134 2.93-7.25 2.643-1.512-.14-2.75.137-2.75.616s-1.238.554-2.75.167c-1.512-.386-4.775-.692-7.25-.68-2.475.013-4.837-.427-5.25-.977-.5-.667-1-.667-1.5 0-.413.55-2.76 1.132-5.217 1.293-5.55.363-7.377 2.49-2.756 3.207 4.117.639 4.526 2.589.704 3.354-2.256.451-2.788.984-2.287 2.291.473 1.231.246 1.546-.821 1.137-2.975-1.142-6.148 1.713-6.481 5.832-.552 6.839-.407 8.759.711 9.45 1.698 1.049.6 4.369-1.583 4.79-1.698.327-1.779.163-.616-1.239.738-.888.892-1.615.343-1.615-.548 0-1.281-1.422-1.629-3.16-.815-4.077-1.321-3.46-1.921 2.344-.385 3.719-.146 4.814 1.159 5.317 1.509.581 1.504.712-.064 1.593-.952.534-1.457 1.615-1.141 2.44.752 1.959-.498 8.466-1.627 8.466-.487 0-1.08-1.012-1.318-2.25l-.434-2.25-.136 2.25c-.075 1.238-.613 2.25-1.195 2.25-.582 0-.781-.45-.441-1s.089-1-.558-1c-.701 0-.954-.846-.627-2.096.771-2.948-.189-4.89-2.062-4.171-1.039.399-1.336.21-.865-.552.468-.756.178-.952-.836-.563-1.006.386-1.552.03-1.552-1.011 0-.884-.47-1.607-1.044-1.607-.574 0-.933.563-.797 1.25.136.688-.531 2.712-1.482 4.5-.95 1.788-1.496 3.25-1.212 3.25.283 0-.255.9-1.197 2-1.967 2.297-3.453 2.646-2.679.629.289-.754-.175-1.64-1.032-1.969-1.827-.701-4.557.165-4.557 1.447 0 .491-.675.893-1.5.893s-1.5.402-1.5.893c0 1.514 3.042 2.155 5.072 1.068 2.062-1.103 2.816.372.821 1.605-.772.477-.696.949.25 1.559 1.125.726 1.101 1.043-.143 1.86-2.241 1.471-5.307 1.258-4.7-.326.861-2.242-1.078-4.498-2.285-2.659-.577.88-.991 1.014-1 .323-.008-.647-.803-1.382-1.765-1.634-1.38-.36-1.297-.481.393-.573 1.179-.064 2.423-.845 2.764-1.735.496-1.292.113-1.522-1.893-1.139-1.383.264-2.514.067-2.514-.44 0-.506-.45-.642-1-.302s-1 .141-1-.441.563-1.073 1.25-1.091c.694-.017.37-.696-.728-1.526-1.764-1.334-2.037-1.325-2.532.087-.484 1.379-.857 1.321-2.902-.452-1.29-1.12-2.738-1.793-3.217-1.497-1.412.873-.996-.598.629-2.223 2.114-2.114 1.874-2.835-1.001-3.001-1.539-.089-2.499.391-2.499 1.25 0 .767-.675 1.394-1.5 1.394s-1.5.45-1.5 1-.45 1-1 1-1-.685-1-1.521c0-.837-1.238-2.066-2.75-2.73-3.914-1.72-4.229-2.556-2.652-7.026 1.637-4.639 1.764-6.065.47-5.265-.513.317-1.5 3.111-2.193 6.21-1.044 4.664-2.174 6.553-6.568 10.983-2.919 2.942-5.307 5.574-5.307 5.849 0 1.036 2.85.45 3.221-.663.442-1.325 3.779-2.081 3.779-.856 0 .443-.726 1.083-1.613 1.424-1.242.477-1.351.934-.473 1.992.906 1.091.599 1.508-1.499 2.035-2.5.627-2.551.76-.962 2.516.962 1.063 1.268 2.107.717 2.447-.528.326-1.229-.107-1.558-.964-.329-.857-1.082-1.259-1.673-.893-.591.365-.827 1.311-.524 2.101.313.815-.199 1.724-1.182 2.1-2.783 1.066-5.193 4.589-4.625 6.761.439 1.679.337 1.759-.637.5-1.03-1.332-1.107-1.332-.691.005.481 1.544-1.648 4.294-2.592 3.349-.289-.289-1.052.458-1.695 1.66-.852 1.591-1.832 2.059-3.605 1.72-1.34-.256-2.677-.076-2.971.4-.298.483 18.912.866 43.426.866h43.961l-1.402-4.659c-2.37-7.874-2.058-8.96 1.848-6.444 1.788 1.151 3.122 2.592 2.965 3.202-.598 2.331.88 4.802 2.5 4.18.919-.353 1.356-.203 1.015.349-.329.532-.212 1.592.26 2.355 1.08 1.748 3.995-.315 4.037-2.855.017-1.083.597-.708 1.731 1.122 1.676 2.703 3.242 3.605 3.242 1.867 0-.486.9-1.119 2-1.407 1.3-.34 2-.03 2 .884 0 .773.625 1.406 1.389 1.406s1.326-.787 1.25-1.75c-.076-.962.424-1.705 1.111-1.65.688.055 2.825.167 4.75.25 2.378.102 3.5.631 3.5 1.65 0 1.289 3.173 1.5 22.559 1.5 13.668 0 22.332-.367 21.984-.931-.905-1.464 1.396-2.365 2.884-1.13 1.011.839 1.483.738 1.925-.413.322-.84 1.274-1.526 2.117-1.526 1.839 0 2.043 1.651.281 2.28-.687.245-.888.832-.446 1.304.443.472 1.23.196 1.75-.613.83-1.291 1.071-1.288 1.965.029.891 1.312 1.187 1.281 2.36-.25 1.643-2.143 3.045-2.298 2.259-.25-.342.893-.009 1.5.824 1.5.769 0 1.543-1.012 1.718-2.25.291-2.048.815-2.234 5.82-2.074 3.807.122 4.602-.032 2.582-.5-1.604-.372-3.114-1.268-3.355-1.991-.548-1.649 5.791-.669 10.229 1.581 5.279 2.676 13.999 2.822 16.714.279 1.281-1.2 3.55-2.429 5.041-2.731 1.491-.302 2.616-.914 2.5-1.361-.116-.446.689-1.504 1.789-2.351 4.057-3.121-.505-1.474-7.148 2.581-7.619 4.651-14.888 5.578-11.473 1.463.929-1.119.705-1.541-1.108-2.091-1.355-.412-1.771-.896-1.03-1.203.953-.394.912-.842-.178-1.932-1.917-1.917-4.251-1.954-2.665-.043 1.572 1.894-4.961 5.078-8.174 3.984-1.223-.416-2.519-.682-2.879-.591-2.293.583-1.143-3.007 1.729-5.403 1.884-1.57 3.426-3.435 3.426-4.143 0-.708.675-1.546 1.5-1.862.825-.317 1.5-1.235 1.5-2.04 0-2.345 2.523.643 3.361 3.979.844 3.366 2.481 2.762 2.093-.772-.352-3.205 1.264-4.239 3.356-2.147 1.491 1.491 1.425 1.623-.846 1.681l-2.464.064 2.25.904c1.238.498 2.25 1.396 2.25 1.996 0 .6.472.799 1.049.443.716-.443.678-1.094-.123-2.059-1.554-1.873-.43-1.787 2.599.197 2.214 1.451 2.513 1.456 3.053.048.33-.858.357-1.952.062-2.43-.296-.478.359-1.637 1.454-2.574 1.095-.938 1.72-2.143 1.39-2.679-.331-.535.325-.973 1.457-.973 1.132 0 2.059-.45 2.059-1s1.012-1.014 2.25-1.03c2.065-.028 2.1-.118.43-1.089-1.759-1.024-1.759-1.104 0-2.438 1.001-.759 2.608-1.394 3.57-1.411 1.202-.022 1.75-.833 1.75-2.591 0-1.451.433-2.292 1-1.941.55.34 1-.11 1-1s-.419-1.359-.931-1.043c-2.099 1.298-1.94-1.495.207-3.643 2.288-2.287 4.738-6.532 8.263-14.314 1.294-2.858 1.926-3.497 2.212-2.238.22.969.816 1.505 1.325 1.191.508-.314.96.693 1.003 2.238l.079 2.809.984-2.689c.582-1.59 1.871-2.816 3.154-3 2.092-.3 2.066-.408-.736-3-2.46-2.275-2.708-2.928-1.611-4.25 1.631-1.965 3.051-2.008 3.051-.092 0 .892.587 1.243 1.494.895.822-.316 1.307-.876 1.078-1.247-.228-.37.436-1.785 1.478-3.145l1.893-2.472 1.248 3.25c.686 1.787 1.803 3.25 2.481 3.25 1.329 0 3.593 6.762 2.731 8.156-.286.464-.059.844.507.844.565 0 .74.749.389 1.664-.384 1-.235 1.414.374 1.038.624-.385 1.08 1.279 1.188 4.336.118 3.33-.225 4.962-1.043 4.962-.947 0-.951.267-.018 1.2.66.66 1.2 2.01 1.2 3 0 3.024 2.852 1.303 4.339-2.617 1.391-3.669 2.897-.182 1.965 4.549-.663 3.37-1.351 4.439-3.009 4.678-2.93.423-3.93 1.944-4.565 6.94-.397 3.128-.191 4.25.782 4.25.727 0 1.534.563 1.793 1.25.259.688 1.203-.437 2.097-2.5 3.12-7.199 3.851-4.648 3.081 10.75-.524 10.474-.414 14.5.396 14.5 1.868 0 1.962-236.559.095-238.426-1.28-1.28-4.974-1.78-4.974-.675 0 .488.675 1.146 1.5 1.463 1.734.665 2.047 3.638.383 3.638-.624 0-.886.882-.593 2 .287 1.1.085 2-.451 2s-.688.9-.339 2c.349 1.1.217 2-.294 2s-.722 1.082-.469 2.405c.358 1.874.051 2.371-1.389 2.25-1.376-.115-1.768.42-1.535 2.095.172 1.237-.166 2.25-.75 2.25-1.764 0-1.193 3.734.687 4.493 1.596.645 1.571.776-.285 1.495-1.714.664-2.001 1.576-1.825 5.797.331 7.941-1.523 9.078-16.75 10.273-6.815.534-14.022 1.145-16.017 1.357-3.585.381-3.626.344-3.488-3.186.076-1.963.648-3.74 1.271-3.948.622-.207.916-1.203.652-2.212-.264-1.01.234-3.216 1.106-4.903.872-1.686 1.55-3.877 1.507-4.866-.046-1.049-.289-1.279-.583-.55-.278.688-1.158 1.25-1.957 1.25-1.16 0-1.228-.418-.339-2.078.694-1.296 1.697-1.852 2.669-1.479 1.301.499 1.469-.066 1.019-3.423-.307-2.286-.149-3.779.365-3.461.498.307.905-.973.905-2.845 0-4.086 2.903-7.197 5.844-6.263 1.093.346 2.277.162 2.631-.41.354-.573 2.004-1.041 3.667-1.041 3.543 0 3.492-2.311-.061-2.831-2.051-.301-2.231-.787-1.922-5.183.307-4.365.116-4.893-1.909-5.28-1.238-.236-2.25-.041-2.25.433 0 .473-.675.861-1.5.861-1.147 0-1.524-1.351-1.603-5.75-.103-5.724-.108-5.733-1.1-2-.547 2.063-1.41 3.75-1.915 3.75-.506 0-.638-1.125-.293-2.5.387-1.54.202-2.5-.481-2.5-.609 0-1.108.52-1.108 1.155 0 .69-.736.489-1.831-.502-1.007-.912-2.122-1.367-2.477-1.012s-.928-.092-1.273-.992c-.346-.901-1.022-1.394-1.503-1.097-.481.297-.344 1.391.305 2.43.648 1.039 1.539 1.666 1.979 1.394.44-.272.8-.017.8.565 0 1.607-2.707 1.266-3.355-.424-.414-1.078-1.428-1.31-3.72-.852l-3.151.63 3.113-4.297c3.883-5.361 4.057-7.702.23-3.086-1.794 2.163-3.387 3.198-4.352 2.828-.837-.321-2.011-.094-2.61.505-1.326 1.326-1.748.229-2.58-6.708-.327-2.73-1.519-6.736-2.648-8.902-1.492-2.862-1.733-4.137-.883-4.662 3.103-1.918-3.35-2.175-9.294-.37-.963.293-1.75.051-1.75-.536 0-.587-.505-1.067-1.122-1.067-.776 0-.738.464.122 1.5.685.825.902 1.5.483 1.5-.42 0-1.308-.746-1.975-1.658-1.078-1.475-1.285-1.365-1.879 1-.367 1.462-1.309 2.658-2.093 2.658-.981 0-1.546 1.482-1.809 4.75-.306 3.811-.538 4.305-1.171 2.5-.931-2.655-2.495-3.024-2.117-.5.144.962-.796 4.866-2.089 8.675-1.292 3.809-2.35 7.904-2.35 9.101 0 3.266-2.068 8.55-3.097 7.914-.497-.307-.906.706-.909 2.251-.004 1.545-.679 4.098-1.5 5.673-.822 1.576-1.494 3.766-1.494 4.867 0 1.596-.507 1.905-2.5 1.524-1.803-.344-2.5-.043-2.5 1.084 0 1.05-.33 1.231-1.009.552-1.437-1.437-1.88-8.434-.721-11.391.538-1.375.929-5.087.868-8.25l-.111-5.75h3.987c3.861 0 3.986-.106 3.986-3.375 0-1.856.294-4.894.653-6.75l.652-3.375-2.152 1.905c-1.195 1.057-2.153 1.391-2.153.75 0-.635-.675-1.155-1.5-1.155s-1.5-.45-1.5-1-.686-1-1.525-1c-.838 0-1.922-1.046-2.409-2.325-.936-2.463-6.066-6.436-6.066-4.698 0 2.168-1.854.882-2.85-1.977-1.153-3.308-2.82-3.952-3.333-1.287-.244 1.264-1.202.542-3.651-2.75-2.838-3.816-3.254-5.079-2.866-8.713.375-3.51.159-4.25-1.244-4.25-1.458 0-1.606.712-1.05 5.048.682 5.313-.14 6.916-2.529 4.933-1.053-.874-2.239-.911-4.456-.138-1.662.579-3.077.964-3.145.855-.456-.729-.676-9.832-.227-9.382.31.309 1.661-.535 3.003-1.877 1.341-1.341 3.206-2.446 4.143-2.454 1.215-.011 1.349-.242.465-.803-1.463-.929-13.895 4.605-13.991 6.228-.035.6-.328 3.45-.65 6.335-.422 3.769-.254 5.176.598 5 .652-.135 1.71 1.31 2.351 3.211 1.329 3.938 2.813 4.802 5.055 2.942 1.318-1.094 1.503-1.01 1.216.552-.186 1.013.224 2.039.911 2.28.688.24 1.25-.051 1.25-.647 0-.595.627-1.083 1.393-1.083s1.638-.639 1.938-1.421c.99-2.58 7.669.775 7.669 3.854 0 1.45 3.646 4.587 4.426 3.808.327-.327 1.241.272 2.031 1.332 1.402 1.882 1.527 6.777.206 8.098-.911.91-.839 4.357.087 4.211 2.732-.432 4.25.346 4.25 2.177 0 1.132-.45 1.781-1 1.441-.55-.34-1-.19-1 .334s.788 1.287 1.75 1.697c1.511.642 1.417.832-.683 1.386-1.985.524-3.148-.134-6.323-3.579-2.14-2.321-6.813-5.689-10.385-7.484-3.571-1.795-6.715-3.621-6.985-4.059-.271-.437-2.904-.795-5.851-.795-5.874 0-8.523-.684-8.523-2.199 0-.542-.884-2.109-1.963-3.482l-1.964-2.495.603 5.088c.508 4.293.347 5.088-1.037 5.088-2.469 0-2.765.079-7.926 2.113-6.309 2.487-6.725 2.415-5.749-.986 1.85-6.452 7.023-10.901 11.151-9.591 2.207.701 2.434-.13.549-2.015-1.756-1.756-6.826.556-11.396 5.197-1.778 1.805-3.691 3.282-4.25 3.282-1.529 0-1.224 1.707.417 2.337.79.303 1.654.013 1.921-.643.345-.847.509-.811.565.122.043.723-.378 2.169-.936 3.213-1.133 2.116-3.985 1.619-3.985-.695 0-.799-.45-1.174-1-.834-.55.34-1 1.444-1 2.453 0 2.021-4.858 2.457-6.235.559-.472-.651-.74-.598-.75.15-.018 1.377-7.119 2.757-9.802 1.906-1.657-.526-1.844-1.541-1.63-8.831.15-5.129-.197-8.77-.921-9.65-.892-1.084-.862-1.513.13-1.847 1.041-.35 1.047-.729.032-1.952-1.043-1.257-.86-1.84 1.069-3.403 1.281-1.037 1.829-1.885 1.218-1.885S303 17.298 303 16.441c0-.868-.482-1.261-1.087-.887-.718.443-.975-.4-.757-2.482.415-3.948-1.18-5.037-7.406-5.057-3.117-.01-4.755-.445-4.765-1.265-.011-.876-.285-.825-.916.172-.638 1.009-3.471 1.519-9.734 1.754-15.322.574-19.164 1.242-20.828 3.618-2.057 2.937-1.891 4.706.442 4.706 2.148 0 7.051 5.761 7.051 8.285 0 .878.45 1.875 1 2.215.55.34 1 2.166 1 4.059 0 2.219.444 3.352 1.25 3.191 1.418-.284 1.569 5.409.512 19.25-1.056 13.826-3.675 19.412-6.682 14.25-.947-1.626-1.021-1.614-1.05.167-.016 1.054-.282 1.665-.589 1.357-.307-.307-2.888.293-5.736 1.334-6.099 2.229-13.2 2.396-16.705.392-3.73-2.132-4.623-1.792-2.165.824 1.201 1.278 1.842 2.684 1.424 3.124-.417.44.31.471 1.616.069 1.762-.543 2.177-.411 1.608.51-.568.919.049 1.122 2.375.781 1.728-.254 3.142-.063 3.142.424s.508.572 1.13.188c.685-.423.95-.151.673.691-.793 2.411-6.344 2.202-10.481-.393-2.102-1.319-4.959-2.679-6.35-3.021-5.683-1.401-8.274-5.862-8.071-13.894.101-4.011.392-8.42.647-9.798.255-1.378.199-1.942-.125-1.255-.749 1.587-3.658 1.615-5.223.05-1.661-1.661-1.545-6.8.153-6.8 1.013 0 1.238-1.202.894-4.779C218.252 27.861 230.191 12 238.986 12c3.677 0 3.977-1.72.454-2.604-1.407-.354-2.372-1.15-2.144-1.769.597-1.618-2.916-5.051-3.764-3.679-.954 1.544-2.558.282-1.881-1.48.324-.846-.012-1.468-.794-1.468-.781 0-1.357 1.062-1.357 2.5s.576 2.5 1.357 2.5c.857 0 1.121.616.716 1.67-.353.921-.065 2.036.643 2.485 1.029.652 1.017.817-.058.83-.739.008-2.487-.885-3.885-1.985-1.563-1.23-4.057-2-6.474-2-2.162 0-4.801-.466-5.865-1.035-1.166-.624-1.934-.657-1.934-.084 0 .524.562 1.214 1.25 1.534.688.321-1 .314-3.75-.014-2.75-.329-5.279-1.047-5.619-1.597-.382-.615-1.139-.444-1.971.447-1.384 1.482-4.91 1.218-4.91-.368 0-.485-.649-.883-1.443-.883s-2.144-1-3-2.223C193.701 1.555 193 .97 193 1.477c0 .508-.54.383-1.2-.277-.66-.66-2.868-1.2-4.906-1.2-3.342 0-3.652.222-3.153 2.25.305 1.238.192 1.916-.251 1.509-.443-.408-1.422-.231-2.175.394-1.126.935-.979 1.332.829 2.242 3.336 1.677 3.423 3.421.146 2.896-2.176-.349-2.46-.213-1.29.615.825.585 2.203 1.07 3.063 1.079.86.008 2.856 1.365 4.437 3.015 1.581 1.65 3.474 3 4.207 3 .857 0 1.178.848.901 2.38-.33 1.816.185 2.66 2.178 3.568 1.821.83 2.234 1.422 1.365 1.959-.96.593-.833 1.496.552 3.95 1.48 2.62 1.558 3.332.44 4.037-.945.597-1.021 1.063-.25 1.54 1.265.782 1.359 6.093.16 9.066-.459 1.139-.376 2.538.193 3.25.676.847.647 1.25-.092 1.25-.607 0-.808.739-.453 1.664.43 1.119.256 1.427-.531.941-.644-.398-1.17-.294-1.17.231 0 .573-1.395.639-3.5.164-1.925-.434-3.507-.499-3.515-.145-.009.355-.452-.03-.985-.855-.862-1.333-.973-1.333-1 0-.027 1.333-.138 1.333-1 0s-.979-1.333-1.055 0c-.058 1.01-.366.847-.945-.5-.611-1.422-.88-1.551-.93-.447-.073 1.614-8.184 1.278-12.32-.51-1.177-.509-1.755-.312-1.765.6-.013 1.126-.16 1.129-.862.022-.466-.735-1.021-1.268-1.235-1.186-.213.083-1.063-.066-1.888-.331-3.677-1.179-7.608-1.955-8.842-1.746-1.508.256-4.237-2.964-3.51-4.141.751-1.216-1.13-.879-2.448.439-.933.933-1.2.822-1.2-.5 0-.935-.48-1.7-1.067-1.7-.634 0-.793-.864-.393-2.125.5-1.575.343-1.921-.603-1.336-.916.566-1.091.304-.618-.927.4-1.042.26-1.47-.355-1.09-.558.345-.907.256-.776-.198.13-.453-.271-1.736-.892-2.851-.62-1.115-1.309-4.188-1.53-6.829-.226-2.693-1.031-5.199-1.834-5.707-1.225-.776-1.216-.911.068-.937 3.082-.063 4.501-1.691 3.024-3.471-.98-1.181-1.546-1.302-2.076-.444-.485.784-.956.465-1.406-.953C139.859 10.979 138 10.151 138 12c0 .55-.787.993-1.75.985-1.496-.013-1.532-.157-.25-.985 1.293-.835 1.266-.971-.191-.985-.93-.008-1.97.437-2.311.989-.347.56-1.657-.228-2.965-1.783-3.085-3.666-12.952-6.773-16.829-5.299-2.969 1.129-5.704.503-5.704-1.305 0-.753 1.366-1.04 3.833-.804 3.047.29 3.834.026 3.834-1.289 0-1.834-9.46-2.081-12.917-.337-1.05.53-1.75.508-1.75-.055 0-.527-5.476-.994-12.5-1.067C77.761-.047 76 .156 76 1.503M153.5 1c1.1.473 1.452.891.781.93-.67.038-.963.734-.652 1.545.742 1.933 6.182 4.64 6.921 3.444.312-.505 1.317-.919 2.232-.919 1.27 0 1.105.391-.698 1.654-1.928 1.35-2.721 1.429-4.32.431-1.077-.673-2.204-.978-2.505-.678-.3.3.206.834 1.123 1.186 1.323.508 1.423.937.482 2.071-.682.822-1.439 1.024-1.778.475-.325-.525-2.249-1.266-4.275-1.647l-3.685-.691 1.144 3.728c.63 2.05 1.312 3.224 1.518 2.607.263-.79.938-.818 2.293-.093 1.055.565 1.919.634 1.919.153s1.358-.794 3.017-.695c2.51.149 2.918-.129 2.432-1.661-.397-1.252-.083-1.84.984-1.84.862 0 1.567-.45 1.567-1s.43-1 .956-1c.525 0 2.557-1.087 4.515-2.416 2.428-1.648 4.667-2.328 7.044-2.139 1.917.152 3.485-.111 3.485-.584 0-.474-.45-.861-1-.861s-1-.675-1-1.5c0-1.256-1.997-1.489-12.25-1.43-7.775.045-11.519.384-10.25.93M374 3c0 1.65.384 3 .854 3s2.076 1.132 3.569 2.516c1.493 1.384 3.087 2.287 3.542 2.006.455-.281 2.111.158 3.681.977 5.549 2.894 8.318 1.192 10.327-6.35 1.338-5.023.802-6.16-1.796-3.81-2.279 2.063-4.063 2.122-4.815.161-.813-2.119-1.881-1.864-3.142.75-.93 1.93-1.094 1.986-1.152.393-.045-1.227-.577-1.662-1.568-1.281-.825.316-1.5.139-1.5-.393 0-.533-.675-.969-1.5-.969s-1.5.675-1.5 1.5-.45 1.5-1 1.5-1-.675-1-1.5-.675-1.5-1.5-1.5c-1 0-1.5 1-1.5 3m31.638-1.5c-.316.825-.139 1.5.393 1.5.533 0 .969.398.969.883 0 .98-3.796 2.42-5.75 2.182-.764-.093-1.25 1.054-1.25 2.953v3.106l6.076-.301c3.342-.166 6.547-.869 7.123-1.562.575-.694 1.553-1.276 2.173-1.294 2.124-.063 5.855-3.934 5.267-5.465-.619-1.615-4.175-2.062-5.056-.636-.764 1.236-5.93.101-6.883-1.512-1.051-1.78-2.346-1.719-3.062.146M113 14.281c0 1.603-.87 2.609-2.928 3.386-4.341 1.638-2.059 7.199 2.997 7.301 1.298.027 1.526 1.243 1.316 7.032-.14 3.85.092 7 .514 7 .422 0 .814-.562.871-1.25.056-.687.391-2.825.743-4.75.351-1.925.68-4.062.73-4.75.14-1.942 1.552-1.473 2.257.75.619 1.95 2.529 2.638 3.798 1.369.347-.348.145-1.541-.45-2.652-.939-1.756-.836-1.925.786-1.295 2.104.819 2.361.862 4.139.696.948-.088.854-.757-.365-2.618-1.899-2.899-.939-3.279 1.896-.75 1.901 1.696 1.939 1.673 1.225-.75-1.348-4.573-3.572-7.222-5.614-6.688-1.053.275-1.915.018-1.915-.572s-.296-.777-.658-.415c-.362.362-1.256.161-1.987-.446-.731-.606-2.01-.842-2.842-.522-.927.356-1.513.012-1.513-.888 0-.808-.675-1.469-1.5-1.469-.895 0-1.5.92-1.5 2.281M430.556 25.91c-.309.5-.299 1.738.022 2.75.554 1.74.507 1.745-.857.09-.793-.962-1.864-1.75-2.38-1.75-1.033 0-3.341 5.7-3.341 8.25 0 .884-.562 2.219-1.25 2.967-2.134 2.322-3.815 5.783-2.808 5.783.527 0 1.417-.788 1.978-1.75.604-1.037 1.032-1.226 1.05-.465.023.991.506 1.031 2.11.172 1.144-.612 3.944-.966 6.221-.785 3.942.312 4.153.187 4.374-2.594.316-3.982-1.178-6.718-2.094-3.833-.361 1.139-1.344 2.334-2.184 2.656-1.159.445-1.376.107-.898-1.399.347-1.092.844-3.226 1.105-4.743.261-1.518.712-3.547 1.003-4.509.544-1.804-1.051-2.458-2.051-.84m-103.7 19.567c-.263.263-1.35.624-2.417.803C316.708 47.579 305.462 53 310.5 53c1.691 0 1.873.863.604 2.867-.67 1.056-1.631 1.139-4.235.365-3.652-1.086-7.869-1.182-7.869-.178 0 .764-5.206 3.363-6.25 3.121-.413-.096-.75.275-.75.825 0 .55-.562 1.014-1.25 1.032-.687.017-2.079.659-3.091 1.427-2.393 1.813-.391 8.541 2.542 8.541.989 0 1.8.338 1.802.75.002.412 2.702.834 6 .936 4.631.143 5.997-.141 5.997-1.25 0-.79.384-1.436.854-1.436s2.382-2.388 4.25-5.306c3.144-4.913 11.123-12.938 16.856-16.953 1.331-.932 2.184-1.93 1.896-2.218-.287-.288-.737-.308-1-.046m113.927 3.073c-.302.303-.236 1.99.148 3.75s.387 4.67.006 6.467c-.761 3.595-.245 4.213 3.957 4.745 2.189.277 3.135-.197 4.141-2.077.716-1.339 1.677-2.435 2.134-2.435 1.474 0 .902-7.696-.669-9-.825-.685-1.5-.875-1.5-.422 0 .452-.54.282-1.2-.378-1.216-1.216-6.007-1.66-7.017-.65m-122.01 11.307c-1.449 1.723-2.921 4.035-3.271 5.138-.35 1.103-1.458 2.005-2.462 2.005-1.998 0-3.434 2.553-2.389 4.245.362.585.232.801-.289.479-.521-.322-1.012.274-1.091 1.324-.131 1.74 1.509 2.271 2.729.883.275-.313 2.552-1.549 5.06-2.747 4.077-1.948 5.76-3.585 10.87-10.579 1.284-1.757 1.253-1.889-.302-1.293-.952.366-1.486.267-1.186-.219.301-.486-.202-1.171-1.118-1.522-.915-.351-1.983-.123-2.373.508-.52.841-.82.813-1.126-.103-.257-.773-1.422-.055-3.052 1.881M129.24 64.591c-1.792 1.413-3.109 2.87-2.925 3.239.184.368-1.421 2.47-3.566 4.67-3.489 3.577-3.836 3.735-3.276 1.5.61-2.434.559-2.421-1.918.5-2.953 3.481-3.238 4.7-.891 3.799 1.119-.43 1.427-.256.941.531-.398.644-1.299 1.17-2.004 1.17-1.315 0-3.463 5.549-3.872 10-.173 1.891.197 2.428 1.521 2.206.963-.161 1.75.203 1.75.809 0 .607-.45.825-1 .485-.55-.34-1-.141-1 .441S114.161 95 115.579 95c2.361 0 2.523-.261 1.903-3.082-.536-2.44-.188-3.602 1.671-5.58 1.291-1.375 2.235-2.688 2.097-2.919-.778-1.305-.094-3.441.905-2.824.768.475.88.271.335-.61-.594-.962-.362-1.15.846-.686.915.351 1.677.315 1.694-.08.016-.396 2.488-3.355 5.492-6.576 3.005-3.222 5.215-6.259 4.912-6.75-.304-.491-.075-.893.507-.893s1.059-.436 1.059-.969c0-.532-.749-.681-1.664-.33-1.119.43-1.427.256-.941-.531 1.285-2.079-1.788-1.232-5.155 1.421m65.285.159c.408 1.513.865 4.55 1.016 6.75.151 2.2.768 7.288 1.371 11.307.796 5.303.796 7.87 0 9.358-1.516 2.832-2.952 1.104-3.571-4.294-.729-6.355-2.285-10.006-5.608-13.158-3.577-3.394-6.279-2.28-4.679 1.93.52 1.368.946 3.742.946 5.276 0 1.604 1.084 3.959 2.552 5.543 4.739 5.113 1.703 8.447-3.373 3.705-1.71-1.597-3.298-2.715-3.528-2.484-.775.774 3.292 8.131 6.339 11.467 2.142 2.345 2.895 4.036 2.596 5.827-.232 1.388-.487 2.523-.568 2.523-.857 0-.458 6.839.531 9.078.709 1.607 1.325 2.311 1.37 1.565.046-.772.717-1.113 1.555-.792.81.311 1.849-.106 2.309-.927.645-1.153 1.581-.343 4.107 3.556 4.431 6.838 9.46 12.02 11.665 12.02 1.526 0 1.345-.516-1.118-3.196a1568.498 1568.498 0 0 1-4.181-4.566c-.685-.753-3.082-4.516-5.328-8.361-3.677-6.296-3.976-7.3-3.006-10.084 1.282-3.676 1.295-3.827.328-3.675-2.253.356-2.928-.352-2.495-2.618.263-1.375 1.031-2.5 1.707-2.5 1.448 0 4.692-3.363 4.461-4.625-.421-2.301.162-7.351.827-7.163 3.303.936 6.741-5.097 4.424-7.762-.454-.523-1.418-2.837-2.142-5.144-2.263-7.214-10.335-15.333-8.507-8.556m217.643 6.834c-1.027 1.162-1.084 2.217-.25 4.611.595 1.707 1.082 4.354 1.082 5.882 0 4.74 8.13 9.354 9.624 5.461.308-.804 1.419-1.734 2.468-2.067 2.263-.718 2.552-2.471.408-2.471-1.707 0-2.009-1.568-.484-2.51.559-.346.758-1.047.441-1.559-.316-.512-.167-.931.331-.931 1.338 0 5.212-3.566 5.212-4.797 0-.724-1.036-.766-3.243-.133-3.689 1.058-7.396 1.236-6.471.311.34-.341-.003-1.241-.762-2-1.818-1.818-6.675-1.7-8.356.203M134.215 83.75c-.794 1.39-.89 2.25-.25 2.25 1.276 0 1.387 8.664.12 9.447-.503.311-1.142 0-1.421-.691-.402-.998-.522-.999-.585-.006-.043.688-1.188 1.25-2.544 1.25-3.161 0-5.04 3.188-3.535 6 .589 1.1 1.981 2 3.094 2 1.113 0 1.746.45 1.406 1-.34.55-.141 1 .441 1 .587 0 1.09 2.118 1.129 4.75.039 2.612.457 5.65.93 6.75l.859 2 .16-2c.087-1.1.155-4.25.151-7l-.007-5 .733 4.231c.403 2.328 1.042 4.54 1.419 4.917.651.651 1.135-6.056.722-9.99-.152-1.439.261-1.698 1.885-1.183 1.143.363 2.078.232 2.078-.291s1.125-1.166 2.5-1.429c1.375-.263 2.5-.09 2.5.384 0 .473.445.861.989.861 1.432 0 .808-4.924-.794-6.253-1.011-.839-1.856-.815-3.315.096-1.592.994-2.243.937-3.49-.31-.843-.843-1.93-1.533-2.416-1.533-.485 0-1.016-3.037-1.178-6.75-.266-6.07-.425-6.523-1.581-4.5m265.366 6.249c-3.256 3.298-6.151 5.764-6.433 5.482-.927-.926-4.079 6.944-4.114 10.269-.039 3.734.085 3.77 6.087 1.724 3.019-1.028 5.072-2.531 6.301-4.611 1.129-1.912 2.086-2.659 2.516-1.964 1.054 1.706 5.169-3.184 5.962-7.084.485-2.384 1.29-3.404 2.866-3.632 2.083-.301 2.113-.438.604-2.741-.874-1.334-1.99-2.177-2.479-1.874-.49.302-.891.073-.891-.509 0-2.957-4.931-.619-10.419 4.94m-178.328 5.747c.336 7.777.159 10.011-.733 9.27-2.587-2.147-13.541 3.323-14.384 7.183-1.808 8.269 1.466 14.896 8.076 16.348 3.308.726 4.972-.197 2.788-1.547-2.419-1.495-.523-2.078 2.889-.889 3.983 1.389 4.521.886 3.705-3.464-.512-2.725-1.035-3.344-2.504-2.96-1.252.327-1.694 1.11-1.357 2.399.394 1.507-.03 1.914-1.994 1.914-2.991 0-5.085-2.223-4.428-4.702.415-1.563.572-1.504 1.2.452.471 1.467 1.464 2.21 2.856 2.134 1.69-.092 1.769-.211.383-.573-3.957-1.034-1.678-3.753 3-3.58.688.026 1.25-.38 1.25-.901s.521-.626 1.158-.233c.793.491.98.037.593-1.441-.395-1.51-.108-2.156.956-2.156 1.187 0 1.372-.713.845-3.25-.371-1.787-.759-6.85-.863-11.25-.141-5.988-.653-8.629-2.034-10.5-1.827-2.477-1.841-2.404-1.402 7.746M34.388 104c-.55 1.954-1.925 3.922-3.114 4.456-2.576 1.157-3.857 6.638-2.178 9.325.885 1.418 2.476 1.907 6.55 2.014 5.914.156 6.109-.246 3.446-7.11-.601-1.548-1.092-3.911-1.092-5.25S37.581 105 37.07 105c-.512 0-1.103-1.013-1.314-2.25-.323-1.896-.538-1.699-1.368 1.25m207.965 4.389c-.631.719-1.367 2.163-1.634 3.209-.451 1.761-.496 1.767-.603.075-.225-3.549-5.125 3.719-5.037 7.471.043 1.846.315 2.766.604 2.045.405-1.013.97-.908 2.482.46 2.205 1.996 3.776.706 3.835-3.149.018-1.171.335-1.552.765-.92.404.594 2.171 1.705 3.925 2.468 1.755.763 3.4 2.189 3.657 3.17.674 2.578 2.376 2.189 4.001-.913 2.449-4.673-.255-10.306-6.268-13.06-1.969-.902-3.805-1.757-4.08-1.901-.275-.144-1.016.326-1.647 1.045m238.974 9.861c-.948 1.787-1.607 4.032-1.465 4.987.17 1.139-.967 2.322-3.301 3.435-1.959.934-3.561 2.142-3.561 2.684 0 .543-.745 1.809-1.655 2.815-1.096 1.212-1.241 1.829-.429 1.829.823 0 .709.518-.345 1.571-.864.865-1.576 2.552-1.582 3.75-.006 1.199-.278 3.792-.604 5.762-.474 2.868-.272 3.584 1.011 3.584.927 0 1.645-.879 1.702-2.084.054-1.145.66-.058 1.346 2.417l1.247 4.5 1.133-4c.622-2.2 2.492-6.614 4.154-9.81 1.662-3.195 3.022-6.63 3.022-7.633 0-1.003.902-2.06 2.004-2.348 1.427-.373 1.81-1.03 1.33-2.281-.46-1.199-.303-1.527.496-1.033.66.408 1.2.152 1.239-.586.038-.72.236-2.58.44-4.135.204-1.554-.006-3.804-.466-5-.817-2.122-.863-2.108-1.915.576-1.347 3.435-2.38 3.603-1.539.25.874-3.479-.209-3.12-2.262.75M196 125.943c0 .687.739 2.668 1.643 4.403 3.238 6.218 3.392 6.654 2.351 6.654-1.563 0 3.968 7.835 5.853 8.291 1.442.348 1.411.504-.242 1.217-1.367.589-2.268.284-3.236-1.096-5.649-8.052-8.229-7.164-4.484 1.543 2.952 6.862 2.729 10.897-.876 15.874-4.457 6.153-9.576 6.745-14.134 1.633-2.816-3.157-12.452-8.376-19.375-10.494-2.2-.673-5.047-1.622-6.326-2.109-2.682-1.021-7.568 2.196-8.567 5.641-.779 2.687-.58 18.384.273 21.436.912 3.265 5.519 4.51 9.444 2.552 4.115-2.052 11.457-2.81 16.36-1.688 4.382 1.003 9.388-.867 10.626-3.968.39-.977.553-.999.611-.082.119 1.886 1.985 1.533 8.579-1.625 7.322-3.507 11.26-7.517 11.921-12.139.806-5.64 3.18-11.23 6.399-15.064 3.846-4.58 2.819-7.81-1.263-3.975-1.402 1.317-2.851 2.092-3.22 1.724-.369-.369-.266-.671.228-.671.495 0-.78-1.141-2.833-2.536S202 138.253 202 137.428c0-1.148.875-.905 3.732 1.036 5.96 4.05 9.011 2.799 3.518-1.442-1.512-1.168-5.113-4.419-8-7.225-2.887-2.806-5.25-4.54-5.25-3.854m-117.97 4.355c-.032 1.936 4.676 6.618 6.707 6.67.68.018 1.871 1.552 2.648 3.41.776 1.858 2.015 3.751 2.753 4.207.985.609.68.986-1.148 1.417-1.37.324-2.494 1.243-2.499 2.043-.012 1.758 5.09 6.964 6.793 6.933.669-.012.091-.954-1.284-2.093-1.805-1.495-1.987-1.905-.657-1.474 1.013.329 3.038.88 4.5 1.225 1.461.344 3.712 1.58 5.001 2.745 2.284 2.064 2.336 2.068 2 .125-.342-1.984-3.196-4.042-6.48-4.674-1.571-.303-1.583-.47-.135-1.918 2.103-2.103-.418-8.162-2.986-7.177-.908.348-1.312.184-.958-.389.337-.545-2.279-2.892-5.812-5.215-3.533-2.323-6.872-4.991-7.418-5.928-.923-1.582-.996-1.576-1.025.093m-62.78 3.646c-1.238 1.032-2.25 2.817-2.25 3.966 0 1.15-.477 2.09-1.059 2.09s-.781-.45-.441-1 .126-1-.475-1c-1.546 0-.698 4.961 1.035 6.059 1.753 1.108 3.229 1.217 2.595.191-.255-.412.619-.815 1.941-.894 1.368-.082 2.404.41 2.404 1.143 0 2.495 2.739 2.369 3.901-.18.924-2.028 1.635-2.401 3.624-1.902 2.125.533 2.475.277 2.475-1.809 0-3.501-5.477-7.958-8.072-6.569-1.515.81-1.928.702-1.928-.504 0-2.002-.989-1.895-3.75.409m366.739 5.569c-.691.832-1.983 1.395-2.872 1.25-1.166-.19-1.544.402-1.355 2.119.235 2.141.083 2.242-1.5 1-.969-.76-2.065-1.803-2.436-2.318-.825-1.146-3.826 1.156-3.826 2.936 0 2.496-3.231 3.835-9.731 4.033-5.7.174-6.735.493-7.397 2.283-.423 1.145-1.484 2.892-2.357 3.883-5.471 6.206-8.549 11.676-5.515 9.801.55-.34 1-.141 1 .441s-.424 1.059-.942 1.059.151 1.912 1.488 4.25c1.336 2.338 2.435 5.269 2.442 6.515.012 2.308 6.936 10.743 6.985 8.51.02-.901.706-.968 2.592-.25 3.206 1.218 3.705 1.222 2.962.018-.344-.556.675-.796 2.436-.573 2.091.265 3.415-.171 4.282-1.409.69-.986 1.48-1.824 1.755-1.862 1.979-.277 3.894-1.561 3.435-2.304-.304-.492-.05-.895.565-.895s.872-.397.572-.883c-.3-.486-.764-2.624-1.032-4.75-.267-2.127-.229-3.286.084-2.575 1.039 2.353 3.376-.788 3.376-4.537 0-3.147-.168-3.361-1.663-2.127-1.413 1.167-1.593 1.162-1.198-.033.256-.773-.788-2.777-2.319-4.453-1.846-2.021-2.403-3.281-1.656-3.744.62-.383.86-1.392.534-2.243-.47-1.224.022-1.469 2.354-1.174 1.621.205 2.948-.044 2.948-.554s.863-.927 1.917-.927 2.12-.562 2.368-1.25c.3-.829 1.552-.239 3.715 1.75 2.175 2 3.414 2.581 3.717 1.744.25-.691.846-1.014 1.325-.718.479.296.617 1.199.307 2.006-.309.807-.065 1.468.544 1.468 1.36 0 1.43-3.952.107-6-.542-.839-.976-.99-.985-.344-.021 1.593-3.743.496-4.435-1.307-.306-.8.164-2.555 1.046-3.901 1.57-2.396 1.543-2.451-1.261-2.584-2.704-.129-2.725-.162-.365-.585 3.637-.652 4.938-2.279 1.822-2.279-1.417 0-3.142.681-3.833 1.513m-362.319 9.15c-1.29 1.29-.652 2.337 1.426 2.337 1.941 0 2.07.462 1.75 6.25l-.346 6.25 3.99-.323c4.886-.396 4.639-.139 5.237-5.447.562-4.986-1.589-8.226-4.787-7.211-1.017.323-2.918-.114-4.224-.97-1.307-.856-2.677-1.254-3.046-.886m369.114 16.612c-1.34 2.109-1.684 4.898-2.188 17.725-.228 5.798 4.927 41.081 6.501 44.5.802 1.741 1.779 11.294 1.872 18.309.019 1.433.452 2.049 1.141 1.623 1.128-.697.83-19.779-.712-45.628-.582-9.754-.439-12.093.866-14.083 1.543-2.356 2.321-5.395 3.384-13.221.617-4.549-1.025-7.111-6.3-9.827-3.035-1.563-3.203-1.541-4.564.602m-20.863 5.475c-.047 1.045-.282 1.247-.583.5-.278-.687-1.174-1.25-1.993-1.25-1.691 0-4.52 2.492-3.728 3.284.883.882-2.009 4.716-3.558 4.716-2.396 0 .256 2.008 3.406 2.579 5.593 1.015 6.89.788 6.173-1.079-.35-.914-.001-1.5.893-1.5.808 0 1.469.525 1.469 1.167 0 2.111.883.334 1.459-2.935.423-2.399.058-3.715-1.447-5.22-1.825-1.825-2.019-1.849-2.091-.262m-167.729 3.162c-2.727 2.334-3.02 2.94-1.668 3.459 2.249.863 2.27.854 2.787-1.121.251-.963.509 1.906.573 6.375.064 4.469.397 9.531.741 11.25.367 1.833.212 3.125-.375 3.125-.55 0-1.268-1.341-1.596-2.98-.976-4.881-3.647-2.825-3.684 2.837-.024 3.607-.256 4.257-1.039 2.913-1.116-1.915-1.507-20.029-.468-21.709.36-.584.236-1.061-.275-1.061-1.186 0-2.433 9.176-1.663 12.242.32 1.277-.081 3.601-.892 5.165-.811 1.563-1.237 3.461-.947 4.217.313.816-.126 1.376-1.079 1.376-.894 0-1.572.777-1.528 1.75.043.963.296 1.216.562.563.754-1.851 4.141 2.068 4.636 5.363.271 1.808.477 1.093.573-1.985.093-2.971.538-4.569 1.166-4.181.559.346.74 1.075.402 1.622-1.015 1.643 2.699 4.868 5.606 4.868 2.356 0 2.794-.489 3.316-3.709.331-2.04.278-3.952-.119-4.25-1.088-.816-1.172-1.861-1.285-15.98-.058-7.184-.18-13.043-.271-13.02-.091.022-1.653 1.314-3.473 2.871m5.323 11.213c.401 1.856 1.382 3.754 2.181 4.217.8.462 2.292 2.797 3.317 5.187 1.024 2.391 2.678 5.208 3.675 6.261.997 1.052 2.937 3.24 4.312 4.86 1.375 1.621 3.963 4.022 5.75 5.336 2.796 2.056 3.267 3.028 3.368 6.952.138 5.307 1.567 12.045 1.764 8.312.065-1.238.479-2.25.921-2.25.441 0 .402-2.588-.087-5.75s-.837-9.048-.772-13.078c.077-4.803-.238-7.108-.913-6.691-.567.35-1.037 3.423-1.044 6.828l-.012 6.191-6.346-6.772c-3.49-3.725-7.192-8.675-8.226-11-1.034-2.325-2.898-5.048-4.142-6.051-1.243-1.002-2.261-2.438-2.261-3.191 0-.752-.498-1.676-1.107-2.052-.776-.48-.889.324-.378 2.691" fill="#d3d3d3" fill-rule="evenodd"/></svg>