<svg xmlns="http://www.w3.org/2000/svg" width="500" height="658"><path d="M24.773 69.25c-1.993 3.078-2.983 7.502-1.836 8.211.585.362.552 1.705-.087 3.54-.567 1.626-.826 3.529-.576 4.228.251.699.084 1.997-.371 2.884-.526 1.026-.149 2.944 1.037 5.269 1.025 2.01 1.643 4.659 1.375 5.886-.363 1.657-.236 1.875.491.847.772-1.092 1.638-1.156 4.087-.302 3.207 1.118 3.724.71 2.182-1.725-1.249-1.974 1.358-4.338 4.173-3.785l2.252.443-2.25.744c-2.377.785-2.623 1.374-1.643 3.928.724 1.888 3.02 2.092 3.734.332.771-1.9 2.625 1.181 2.644 4.393.02 3.473 2.789 4.577 3.99 1.59.712-1.769.911-1.863.962-.452.034.98.751 2.046 1.593 2.369.919.353 1.307 1.289.971 2.348-.308.968-.728 4.769-.934 8.447-.253 4.502-.938 7.307-2.097 8.588-.99 1.094-1.495 2.764-1.189 3.933.292 1.118.105 2.295-.416 2.617-.52.322-.685 1.41-.365 2.417.636 2.004-1.333 3.876-2.362 2.244-.965-1.531-7.964-5.242-9.918-5.259-1.484-.014-1.515-.156-.22-1.042 1.333-.912 1.333-.997 0-.765-.825.143-2.625-.486-4-1.399s-3.625-1.81-5-1.994c-3.136-.421-5.19-1.669-4.522-2.749.693-1.122-2.12-2.111-3.978-1.398-1.097.421-1.5-.125-1.5-2.031 0-1.434-.477-2.607-1.059-2.607s-.781.45-.441 1 .25 1-.2 1c-.451 0-1.381-.9-2.068-2-1-1.602-.999-2.003.01-2.015.85-.011.771-.33-.242-.985-.825-.533-1.147-.976-.715-.985 2.127-.041-1.654-4.015-3.82-4.015H0v124.5C0 303.975.169 360 .376 360c.528 0 10.662-4.501 20.124-8.939 4.4-2.064 10.467-4.076 13.481-4.472 3.015-.395 5.715-1.075 6-1.51.704-1.071 10.019-2.038 10.019-1.039 0 .436-.563.983-1.25 1.214-.956.322-.901.843.23 2.213 1.383 1.675 1.272 1.747-1.68 1.099-2.591-.569-3.362-.319-4.274 1.385-1.2 2.243-1.113 2.314 4.266 3.495 4.19.92 7.966-3.642 4.208-5.084-3.159-1.213-1.283-2.359 3.75-2.292 3.856.052 4.719.299 3.25.93-1.792.77-1.724.867.663.93 2.542.067 2.612-.065 1.545-2.892-1.189-3.15-.206-5.462 1.292-3.038.49.793 1.24 1.093 1.667.667.426-.427.113-1.194-.696-1.706-1.081-.684-.591-.934 1.845-.946 4.356-.02 7.184-1.614 7.184-4.05 0-1.081.45-1.965 1-1.965s1 .45 1 1c0 1.991 3.479.937 5.773-1.75 1.576-1.846 2.521-2.337 2.874-1.493.388.93 1.258.735 3.343-.75 1.55-1.104 3.714-2.007 4.807-2.007 2.085 0 4.048-3.218 2.316-3.796-.55-.183-.754-.977-.452-1.763.302-.786.951-1.181 1.444-.876.492.304.895.05.895-.565s.457-.835 1.016-.49c.559.346.758 1.047.441 1.559-.316.512.914.895 2.734.852 1.82-.043 2.747-.306 2.059-.583-1.984-.801-1.451-2.338.809-2.338 1.132 0 1.781-.45 1.441-1-.34-.55-1.491-1-2.559-1-1.337 0-1.95-.7-1.971-2.25-.028-2.009-.14-2.063-1.05-.5-.561.962-1.72 1.75-2.576 1.75-.856 0-2.441 1.125-3.523 2.5-1.081 1.375-2.733 2.5-3.671 2.5-.938 0-2.817.779-4.176 1.731-1.359.952-2.922 1.783-3.473 1.848-.55.064-1.515.185-2.143.269-.627.083-1.42 1.261-1.76 2.617-.392 1.561-1.127 2.269-2.007 1.932-.764-.294-1.686-.053-2.049.535-.363.587-3.022 1.068-5.91 1.068-3.068 0-6.057.61-7.191 1.468-1.067.808-2.439 1.483-3.048 1.5-1.485.043-.941-23.603.585-25.442.648-.78 1.223-6.809 1.39-14.565.242-11.253.548-13.426 2.039-14.517 1.656-1.211 1.638-1.399-.326-3.363-2.571-2.571-2.575-2.918-.066-5.094 2.19-1.9 1.766-4.987-.686-4.987-.987 0-1.372-.888-1.194-2.75.145-1.512-.117-4.522-.582-6.687-.825-3.838.542-14.563 2.429-19.063C61.368 236.196 64 227.219 64 225.797c0-1.965 3.645-8.41 6.767-11.964 4.536-5.164 5.022-5.566 10.645-8.783 5.193-2.971 9.214-4.028 32.471-8.539 12.132-2.353 22.117-7.403 22.117-11.185 0-.729.398-1.326.883-1.326.486 0 1.11-.787 1.387-1.75.277-.963.807-2.485 1.179-3.383.617-1.491.17-1.514-5.137-.266-9.162 2.156-14.382 1.818-17.161-1.112-2.134-2.25-2.189-2.537-.605-3.145 1.11-.426 2.217-.02 3.048 1.116 1.204 1.645 1.431 1.658 2.927.162.892-.892 2.827-1.674 4.3-1.738 1.694-.073 2.035-.284.929-.573-.962-.252-1.75-.875-1.75-1.384 0-.51-.81-.927-1.8-.927s-2.378-.562-3.084-1.25c-1.034-1.008-1.219-.862-.95.75.184 1.1.784 2.351 1.334 2.78.55.43-.35.48-2 .112-4.461-.993-5.761-2.274-4.046-3.988.792-.792 2.151-1.109 3.136-.731 1.218.467 1.512.301.982-.556-.448-.726.116-1.979 1.388-3.083l2.144-1.859-2.085-1.943c-1.282-1.194-2.99-1.769-4.435-1.493-2.754.527-4.237-1.248-2.645-3.166.838-1.009.744-1.481-.381-1.913-.822-.315-1.748-.162-2.058.34-.818 1.323-3.332.106-3.976-1.926-.713-2.246-3.524-2.27-3.524-.03 0 2.537-1.926 3.687-7.5 4.479-4.117.585-4.779.478-3.75-.606 1.716-1.808 1.569-4.639-.296-5.683-1.238-.692-1.337-1.411-.5-3.614 1.326-3.487 1.351-7.62.046-7.62-.55 0-1-.466-1-1.035 0-1.747 3.794.811 4.5 3.034.349 1.101 1.279 2.001 2.067 2.001 1.974 0 1.914-5.878-.067-6.638-1.919-.737-1.898-1.821.071-3.791.999-.998 1.139-1.571.384-1.571-.728 0-1.003-.968-.71-2.5.47-2.459-.176-2.96-3.245-2.523-.825.117-1.158-.134-.741-.558.418-.424-.246-1.84-1.474-3.147-1.755-1.869-1.948-2.553-.902-3.2.931-.575.998-1.027.224-1.506-.609-.376-1.107-1.528-1.107-2.56s-.52-3.143-1.156-4.691c-.636-1.548-1.339-3.94-1.562-5.315-.619-3.817-2.081-4.649-2.842-1.618-.535 2.132-.949 2.44-2.05 1.527-1.53-1.27-1.116-15.87.577-20.323.498-1.309.638-2.648.311-2.975-1.014-1.013-3.19 1.455-2.612 2.962.302.785.05 1.483-.559 1.552-.609.069-1.557.237-2.107.375-.55.138-1.367.306-1.815.375-.448.069-.786 1.998-.75 4.287.069 4.448-1.827 6.329-2.918 2.893-.358-1.13-1.102-2.055-1.652-2.055-.55 0-.726.862-.392 1.915.713 2.247-.322 7.085-1.516 7.085-1.456 0 .041-12.419 1.604-13.294 1.93-1.08 1.827-3.62-.178-4.389-1.281-.492-1.053-.852 1.094-1.729l2.711-1.108-2.176-1.969c-2.128-1.926-2.199-1.928-3.236-.075-.928 1.658-1.199 1.706-2.168.38-.61-.833-1.558-1.47-2.108-1.415-.55.054-1.431-1.364-1.957-3.151-.526-1.787-1.587-3.25-2.357-3.25-.838 0-1.167.606-.82 1.512.319.831.055 2.665-.587 4.074-.891 1.956-.89 3.007.006 4.442.744 1.19.815 2.101.195 2.485-.539.333-.98 1.511-.98 2.617 0 3.31-2.935 5.367-7.7 5.398-2.948.019-4.197-.353-3.888-1.158.25-.653-.627-1.458-1.95-1.79-3.765-.945-7.779-10.137-4.907-11.239C41.677 77.526 41.315 76 39 76c-2.22 0-2.697-1.523-.75-2.39.688-.307.136-.457-1.225-.334-1.495.135-2.974 1.214-3.735 2.724l-1.261 2.5-.014-3.094C32.002 72.668 28.508 67 26.833 67c-.332 0-1.259 1.013-2.06 2.25M167 116.476c0 2.706-3.013 6.456-4.674 5.819-1.319-.506-1.344-.296-.184 1.56.736 1.18 1.932 2.145 2.658 2.145.725 0 1.04.45.7 1-.865 1.4.849 1.251 2.3-.2.933-.933 1.2-.835 1.2.441 0 .903-.43 1.907-.956 2.232-1.633 1.009.048 3.713 1.835 2.951.892-.38 2.379-.661 3.306-.625 3.307.131 3.547-10.921.264-12.18-.927-.356-1.646.317-2.047 1.916-1.054 4.198-3.288 3.031-2.693-1.405.311-2.313.071-4.148-.595-4.559-.641-.397-1.114-.012-1.114.905m-115.793 1.421c-.294.769-.058 2.66.525 4.203.806 2.137.734 3.232-.305 4.602-.75.989-1.378 2.773-1.395 3.965-.018 1.191-.562 2.343-1.209 2.559-1.176.392-.32 2.788.986 2.759 2.235-.05 3.667-2.001 2.191-2.985-2.11-1.407.628-3.225 3.75-2.491 1.578.371 2.25.075 2.25-.99 0-1.996 1.619-1.953 2.393.063.916 2.387.883 2.413-3.143 2.481-3.254.055-3.453.183-1.5.968 2.47.993 2.957 2.564 1 3.223-.975.328-.948.787.122 2.083 1.969 2.385 3.128 2.053 3.128-.896 0-1.451.433-2.292 1-1.941 1.513.935 1.2 3.621-.661 5.677-.913 1.01-1.358 2.137-.989 2.506.369.369 1.278-.16 2.021-1.176 1.941-2.654 4.384-.201 3.796 3.811-.411 2.795-.278 2.927 2.294 2.281 2.191-.55 3.227-.148 5.248 2.033l2.519 2.717 1.925-2.424c1.469-1.85 1.802-3.433 1.405-6.675-.406-3.321-.196-4.25.961-4.25.815 0 1.517.563 1.56 1.25.043.688.561-.1 1.149-1.75.589-1.65 1.903-4.073 2.921-5.385 1.812-2.334 1.851-2.34 1.851-.25 0 1.174.45 2.135 1 2.135 1.284 0 1.313 3.725.032 4.167-.624.215-.624.866 0 1.833 1.379 2.137 2.644-.113 2.361-4.2-.137-1.974.384-3.647 1.355-4.358 1.096-.801 1.321-1.731.739-3.047-.793-1.791-.86-1.777-1.218.247-.533 3.007-4.269 1.978-4.269-1.177 0-1.266-.267-3.126-.594-4.133-.495-1.524-.413-1.58.484-.332 1.458 2.026 1.541-1.802.087-4-.843-1.275-1.27-1.14-2.847.894-1.035 1.335-2.358 2.083-2.993 1.691-2.082-1.287-1.172 1.241 1.113 3.092 4.137 3.352 3.368 4.976-2.493 5.261-2.891.141-5.819.287-6.507.326-1.54.086-1.599.987-.157 2.429 1.837 1.837-.712 5.311-3.878 5.285l-2.715-.022 2.5-1.991c2.461-1.959 2.469-2.014.529-3.5-1.085-.83-2.547-1.288-3.25-1.018-2.061.79-1.468-.848.824-2.279 1.57-.981 1.994-2.055 1.673-4.241-.236-1.61-.12-2.927.259-2.927 1.579 0-.396-4.849-2.379-5.84-3.478-1.737-14.811-1.93-15.449-.263M185 127.842c0 1.186 2.989 3.678 3.035 2.53.074-1.809 2.893 4.218 2.866 6.128-.024 1.761-.14 1.719-.971-.355-.604-1.507-1.48-2.148-2.436-1.781-.887.34-1.494.004-1.494-.828 0-.771-1.012-1.717-2.25-2.103-1.238-.387-2.475-1.004-2.75-1.373-.275-.368-1.287.142-2.25 1.135-1.33 1.372-1.416 1.805-.357 1.805.766 0 1.652.675 1.969 1.5.737 1.921-.684 1.902-4.479-.061-1.66-.858-3.52-1.393-4.133-1.189-.613.204 2.057 1.983 5.934 3.952 4.697 2.387 7.51 3.289 8.432 2.705 1.86-1.178 3.144-1.136 2.393.078-.361.584.53.84 2.191.629 1.54-.196 2.238-.156 1.55.088-1.962.698-1.462 2.298.719 2.298 1.278 0 1.779.492 1.43 1.402-.7 1.825 9.407 5.723 12.644 4.876 1.745-.456 2.16-.249 1.732.865-1.017 2.651 5.863 6.355 11.83 6.368 5.439.012 8.974 1.445 3.812 1.546-1.857.036.535 1.135 6.583 3.024 10.789 3.369 22.609 3.953 29.75 1.469 2.923-1.018 2.842-2.116-.31-4.181-2.41-1.579-2.659-1.573-4.25.119-1.588 1.687-1.586 1.76.028 1.198 1.943-.677 3.382.825 1.754 1.831-.583.361-2.13-.046-3.438-.903-3.55-2.326-9.264-3.199-7.569-1.156 1.1 1.326.895 1.542-1.465 1.542-2.327 0-2.555-.229-1.5-1.5 1.061-1.279.785-1.5-1.878-1.5-3.25 0-4.437-1.473-1.372-1.703.963-.072 2.65-.33 3.75-.573 1.1-.242 2.32.057 2.712.665.494.767 1.828.506 4.349-.852l3.637-1.958-2.238-1.813c-1.293-1.047-3.025-1.563-4.099-1.222-1.59.505-1.866.034-1.893-3.227-.029-3.495-1.767-7.317-3.328-7.317-.352 0-.64.955-.64 2.122 0 1.663-.291 1.881-1.342 1.009-1.636-1.358-2.648-.498-2.688 2.286-.028 1.895-.123 1.925-1.05.333-1.32-2.266-2.462-2.208-4.92.25l-2 2-.081-4.25c-.077-4.023-.144-4.116-1.25-1.75-1.416 3.029-4.376 3.497-5.224.827-.498-1.57-3.533-3.584-6.445-4.279-.275-.065-1.4-.617-2.5-1.225-5.12-2.833-9.282-3.235-10.017-.968-.601 1.856-.758 1.91-1.162.395-.257-.963-1.308-1.75-2.335-1.75-1.028 0-2.197-.533-2.599-1.184-.506-.818-.93-.619-1.374.647-.538 1.534-1.009 1.209-2.904-2.002-1.775-3.01-2.46-3.525-3.185-2.397-.641.996-1.154 1.099-1.674.336-1.093-1.604-5.25-3.629-5.25-2.558m103.475 100.817c.595 6.573 2.961 15.777 4.437 17.253.989.989 1.467 2.848 1.268 4.932-.192 1.999.295 4.024 1.212 5.036.843.932 1.293 2.61 1 3.73-.293 1.12.355 3.579 1.441 5.463 1.085 1.885 2.329 5.002 2.764 6.927.434 1.925.872 3.837.972 4.25.099.413.237 1.425.306 2.25s.8 1.5 1.625 1.5c1.282 0 1.631.835 1.469 3.518-.018.286 1.108 2.464 2.502 4.842 1.393 2.377 2.486 5.406 2.429 6.731-.096 2.237 4.257 18.879 6.123 23.409.453 1.1 1.592 4.578 2.531 7.729.938 3.15 2.146 5.456 2.683 5.124.612-.378.71.611.263 2.647-.499 2.272-.381 3.044.393 2.566.609-.376 1.137-1.445 1.175-2.375.051-1.284.329-1.149 1.152.559.597 1.238 1.917 2.25 2.933 2.25 1.037 0 1.847.711 1.847 1.622 0 1.308.283 1.388 1.456.414 1.809-1.501 3.136-.726 5.031 2.939 2.093 4.046 9.301 2.146 8.176-2.155-.535-2.047 1.914-2.586 2.588-.57.23.688.668-.056.974-1.651.463-2.416-.054-3.462-3.085-6.245-2.002-1.839-4.09-3.183-4.64-2.986-.55.197-2.18-.238-3.623-.965-1.443-.728-2.978-1.004-3.411-.613-.432.39-.463.148-.067-.54.454-.789.101-1.25-.957-1.25-1.183 0-1.522.588-1.152 2 .779 2.978-1.584 2.429-3.04-.707-.687-1.481-1.25-3.094-1.25-3.585 0-.491-.856-1.981-1.903-3.312-1.047-1.331-1.683-3.264-1.413-4.295.27-1.031.001-2.178-.597-2.547-.598-.37-1.087-2.12-1.087-3.891 0-3.25-1.895-6.826-5.176-9.765-.983-.88-1.525-1.864-1.204-2.185.321-.321-.113-1.578-.964-2.794-.966-1.379-1.333-3.282-.977-5.064.373-1.863.157-2.855-.621-2.855-.742 0-.95-.764-.551-2.022.958-3.017-.432-8.453-1.808-7.077-1.706 1.706-2.353 1.348-3.775-2.085-1.008-2.434-1.037-3.278-.122-3.583 1.759-.587 1.46-3.919-.415-4.638-1.011-.388-1.423-1.348-1.104-2.57.281-1.073-.141-2.492-.936-3.152-.796-.661-1.312-2.365-1.147-3.787.246-2.122-.104-2.572-1.95-2.507-1.238.044-2.284-.406-2.327-1-.208-2.948-.956-5.434-2.73-9.079-2.666-5.48-4.34-10.464-4.632-13.792-.134-1.535-.717-3.264-1.294-3.841-.732-.732-.971-.191-.792 1.792M97.294 254.75c.33 6.462 1.273 14 2.095 16.75.823 2.75 2.073 7.147 2.778 9.771.839 3.121 1.723 4.601 2.557 4.281.822-.315 1.276.389 1.276 1.979 0 1.358-.369 2.469-.821 2.469-.755 0-.429 14.058.345 14.85.188.192 1.881-.159 3.762-.779 3.339-1.102 8.974-5.973 7.138-6.171-.508-.055.201-.407 1.576-.782 1.375-.376 2.944-1.681 3.487-2.901.543-1.219 1.331-2.217 1.75-2.217.42 0 .763-.9.763-2 0-1.149.667-2 1.567-2 1.078 0 1.382-.586.972-1.876-.416-1.313-.021-2.026 1.318-2.376 1.45-.38 1.792-1.132 1.414-3.112-.346-1.809-.004-2.801 1.115-3.231 1.889-.724 2.17-5.543.481-8.247-1.075-1.721-1.264-1.694-3.646.513-3.432 3.18-7.416 2.924-4.221-.271.667-.667.584-1.897-.25-3.692-1.442-3.106-2.538-3.38-4.234-1.061-.893 1.222-1.956 1.459-4.109.919-2.748-.69-2.803-.803-1.018-2.108 1.789-1.309 1.661-1.605-2.501-5.781-2.414-2.421-5.384-4.92-6.601-5.554-1.371-.715-1.992-1.729-1.633-2.665.518-1.349-3.721-6.458-5.358-6.458-.331 0-.332 5.287-.002 11.75m320.215 93.596c-2.403 3.667-6.175 5.038-6.842 2.487-.293-1.119-1.013-1.737-1.6-1.375-1.489.921-1.334 3.502.247 4.109.905.347.176 1.736-2.347 4.468-4.48 4.853-6.967 5.197-6.967.965 0-2.347-.441-3-2.028-3-2.079 0-2.463 4.778-.624 7.754.818 1.323-9.037 11.556-10.348 10.746-.441-.273-.601-2.634-.355-5.248l.448-4.752-1.547 2.864c-1.8 3.335-1.971 5.811-.504 7.278.724.724.57 1.435-.5 2.323-.848.704-1.592.887-1.654.407-.64-4.999-1.031-7.607-1.777-11.872l-.876-5-.117 4.809c-.072 2.926-.51 4.567-1.118 4.191-.55-.34-1 .309-1 1.441 0 1.6-.639 2.059-2.865 2.059-1.576 0-4.022.91-5.435 2.022-1.414 1.111-2.937 1.94-3.385 1.841-.448-.099-1.49.076-2.315.39-5.054 1.923-8 2.547-8 1.695 0-.521.45-.948 1-.948s1-.675 1-1.5c0-1.982-1.667-1.917-2.801.109-.821 1.467-.958 1.461-1.545-.068-.439-1.144-1.283-1.476-2.649-1.043-1.425.453-2.005.183-2.005-.931 0-1.758-.843-1.952-2.878-.663-.866.548-1.064 1.378-.531 2.234.466.749.728 2.284.583 3.411-.145 1.126.412 3.353 1.24 4.947 1.162 2.24 1.237 3.22.331 4.311-.772.93-1.298 1.034-1.542.303-.203-.611-1.259-1.11-2.345-1.11-1.087 0-1.727-.403-1.422-.896.676-1.094-1.024-4.435-4.686-9.208-1.512-1.972-2.75-4.492-2.75-5.601s-1.119-3.665-2.487-5.681c-1.369-2.016-2.768-4.783-3.111-6.149-.343-1.366-1.017-2.727-1.498-3.024-1.08-.668-.339 3.395 2.746 15.059 1.309 4.95 3.522 13.5 4.917 19 1.396 5.5 4.342 15.625 6.548 22.5 2.206 6.875 4.665 15.304 5.465 18.73.8 3.427 1.901 7.406 2.448 8.843.546 1.436 1.703 6.058 2.572 10.269.868 4.212 2.044 8.221 2.612 8.908.568.688.776 1.25.462 1.25-.313 0-.099 1.35.476 3s1.341 3 1.702 3c1.814 0 62.873-30.997 64.247-32.616 1.449-1.707 1.46-2.731.124-10.884-1.664-10.153-2.211-48.92-.802-56.853.669-3.766.552-5.045-.521-5.709-1.102-.681-1.13-1.108-.142-2.096 1.35-1.35 1.605-5.779.617-10.717-.746-3.731-1.793-3.942-3.866-.779m-385.25 2.904c-.041.688-.613 7.1-1.271 14.25-1.245 13.528-.669 27.62 1.604 39.25.682 3.489 2.408 4.473 2.408 1.372 0-3.47 3.985-5.122 6.687-2.772 1.272 1.106 2.313 2.605 2.313 3.33 0 .726.45 1.32 1 1.32s1.006 1.688 1.014 3.75c.019 5.222.974 8.25 2.603 8.25 1.725 0 1.826-4.157.141-5.842-.944-.944-.959-1.416-.064-1.969 1.633-1.009.481-9.189-1.294-9.189-.792 0-1.097-.627-.747-1.537.324-.846-.212-2.423-1.192-3.506-.98-1.083-1.5-2.252-1.154-2.597.345-.345-.259-1.755-1.342-3.132-1.867-2.374-1.879-2.573-.217-3.834 1.667-1.266 1.667-1.332.002-1.362-1.278-.023-1.78-.909-1.861-3.282-.109-3.165-.442-6.916-1.195-13.452-.203-1.761-.825-3.786-1.383-4.5-1.727-2.212-3.478-13.077-2.231-13.847.696-.43.488-.903-.578-1.312-2.427-.931-3.159-.793-3.243.611m41.954 46.444c-.122 1.482-.744 3.016-1.38 3.409-.826.511-.672 1.201.539 2.412 1.314 1.314 1.436 2.012.54 3.091-1.833 2.208-3.699 1.631-4.382-1.356-.89-3.893-4.013-7.386-5.942-6.645-1.986.762-2.011 1.829-.088 3.752.825.825 1.507 2.095 1.515 2.822.012 1.01.199 1.033.792.099.521-.821 1.143-.248 1.896 1.746.695 1.843.759 3.19.168 3.556-.524.323-.727 1.338-.452 2.254 1.678 5.592 2.481 17.942 1.327 20.416-1.194 2.56-2.337 2.151-3.79-1.356l-1.287-3.107-1.772 2.35c-1.552 2.057-1.853 2.141-2.418.67-.366-.956-1.273-1.439-2.103-1.121-1.946.747-1.359-1.963.624-2.878 1.176-.542 1.014-.837-.75-1.366-1.669-.501-2.25-1.433-2.25-3.61v-2.935l-2.416 2.607c-2.17 2.341-2.47 2.423-2.943.801-.29-.993-.44.848-.334 4.092.17 5.189-.045 5.932-1.789 6.195-1.09.165-2.126.731-2.301 1.258-.176.527-1.417 2.236-2.759 3.797-1.341 1.561-2.228 3.517-1.971 4.346.257.829.688 4.432.957 8.008.827 10.978 1.535 16.142 3.498 25.499 1.039 4.95 2.409 12.15 3.045 16 .636 3.85 1.537 7.9 2.002 9 5.874 13.893 7.802 18.196 11.314 25.25 2.259 4.538 4.435 8.25 4.835 8.25.4 0 1.036 1.013 1.413 2.25s1.362 3.021 2.189 3.963c2.37 2.7 1.067 4.184-9.928 11.306-5.671 3.674-11.212 7.323-12.312 8.109-8.695 6.211-16.469 11.043-27 16.782-1.1.6-2.9 1.799-4 2.665C14.224 581.867 2.827 587 1.125 587 .313 587 0 596.871 0 622.5V658h17.485c17.348 0 17.531-.023 23.25-2.925 23.772-12.061 33.779-15.645 33.015-11.825-.15.752.639 1.156 1.982 1.015 1.629-.172 2.68.639 3.89 3 1.981 3.867 2.45 4.2 8.878 6.296 2.75.896 5.519 2.056 6.154 2.577.635.522 2.274.667 3.641.324 1.387-.348 2.782-.146 3.155.457.464.75 15.258 1.08 48.359 1.078l47.691-.002-4.5-3.955c-2.475-2.175-4.887-3.974-5.36-3.997-1.689-.084-10.566-6.353-10.089-7.125.267-.433 4.386-.801 9.153-.819 9.632-.036 12.064.942 18.242 7.335 1.958 2.026 4.425 3.566 5.713 3.566 1.247 0 4.53.892 7.296 1.982 4.015 1.583 5.519 1.759 7.459.875 1.766-.805 3.288-.808 5.57-.012 2.321.809 3.626.791 5.001-.068 1.428-.891 3.913-.833 10.688.252 6.085.975 19.985 1.508 44.753 1.717l35.926.304-3.426-2.296c-5.612-3.76-19.627-9.754-22.807-9.754-8.072 0-53.111-15.65-59.849-20.797-1.227-.936-2.507-3.1-2.846-4.806l-.615-3.104 7.345-.664c4.319-.391 9.406-.209 12.346.44 6.284 1.388 7.619 1.389 15 .012 12.609-2.353 14.899-2.389 20.061-.316 4.997 2.006 13.686 4.138 16.439 4.033 2.423-.092 14.345 2.338 16.236 3.31 2.541 1.305 5.989 1.036 8.205-.64 2.741-2.073 4.472-1.826 5.469.782.473 1.237 1.812 3.107 2.975 4.155S344 630.92 344 631.666s.865 3.263 1.922 5.595c1.057 2.331 3.472 7.839 5.365 12.239l3.443 8 32.135.231c35.733.257 34.328.554 30.063-6.348-1.317-2.13-1.831-4.113-1.411-5.438.503-1.582.161-2.216-1.416-2.629-1.143-.299-1.834-.939-1.536-1.422.655-1.059-.88-4.033-2.155-4.174-3.986-.439-7.135-4.315-6.513-8.017.074-.438-1.174-1.252-2.772-1.809-2.04-.711-2.772-1.529-2.454-2.743.249-.951-.476-2.569-1.609-3.595-1.134-1.026-2.062-3.107-2.062-4.623 0-2.437-.464-2.836-4-3.433-3.71-.627-4-.912-4-3.933 0-3.587-3.359-7.772-4.317-5.378-.289.721-.561.298-.604-.939-.043-1.237-.705-2.25-1.471-2.25-.765 0-1.651-1.035-1.968-2.3-.33-1.313-2.05-3.002-4.011-3.937-3.258-1.554-3.522-1.539-5.186.3-2.095 2.315-4.288 2.504-5.081.437-.328-.855-1.82-1.5-3.469-1.5-1.591 0-2.893-.45-2.893-1s-.689-1-1.531-1c-.843 0-1.8-.698-2.127-1.552-.677-1.763-3.318.414-4.611 3.802-.368.962-1.099 1.75-1.626 1.75-.527 0-1.164-.788-1.416-1.75-.312-1.196-.499-.959-.588.75-.251 4.776-1.735 5.735-4.141 2.676-1.406-1.787-2.766-2.555-3.893-2.197-1.939.615-4.067-2.974-4.067-6.859 0-1.258-.337-2.624-.75-3.037-.413-.412-.762-1.05-.776-1.416-.014-.367-.851-1.901-1.86-3.409-1.029-1.539-1.551-3.479-1.19-4.42.354-.923.109-2.009-.545-2.413-.654-.404-1.321-1.974-1.483-3.489-.161-1.515-.789-3.061-1.395-3.435-.606-.375-1.174-1.653-1.264-2.841-.089-1.188-.445-2.16-.789-2.16-.95 0-2.948-4.825-2.948-7.119 0-2.422-5.942-20.975-7.152-22.331-.467-.523-.852-1.648-.857-2.5-.004-.853-1.804-5.282-4-9.843-2.195-4.562-3.991-8.894-3.991-9.628s-.675-1.894-1.5-2.579c-.825-.685-1.5-1.649-1.5-2.142 0-.494-1.059-2.576-2.354-4.628-1.295-2.051-2.706-4.855-3.137-6.23-.431-1.375-2.522-4.936-4.646-7.913-2.125-2.977-3.863-6.239-3.863-7.25 0-1.01-.398-1.837-.883-1.837-.486 0-1.141-.788-1.456-1.75-.315-.962-1.718-3.675-3.117-6.027-1.399-2.352-2.544-4.711-2.544-5.241 0-.531-1.575-3.028-3.5-5.55s-3.5-5.191-3.5-5.932c0-.741-1.125-2.684-2.5-4.318-1.375-1.634-2.5-3.236-2.5-3.561 0-.325-1.35-2.785-3-5.467-1.65-2.681-3-5.848-3-7.036 0-1.189-1.168-3.925-2.595-6.082-1.427-2.156-2.283-4.425-1.902-5.041.381-.617-.037-1.928-.929-2.913-.892-.986-1.371-2.449-1.063-3.25.308-.802-.292-2.229-1.332-3.17-1.167-1.056-1.725-2.588-1.455-3.998.253-1.322-.23-2.839-1.144-3.597-.869-.722-1.58-2.355-1.58-3.63 0-1.276-.468-2.608-1.04-2.962-1.103-.681-.872.697 1.764 10.525.812 3.025 1.709 6.519 1.995 7.765.286 1.245.916 2.509 1.4 2.809.485.299.881 1.137.881 1.862 0 1.977-25.665 26.745-31.154 30.064-.909.55-6.902 4.514-13.317 8.81-10.645 7.127-26.763 15.69-29.535 15.69-.62 0-2.56 1.062-4.311 2.359-4.918 3.645-11.446 6.335-19.972 8.228-4.284.952-8.023 2.109-8.309 2.572-.286.462-1.592.841-2.902.841s-2.661.451-3.002 1.003c-.705 1.141-8.812 4.997-10.505 4.997-2.344 0-10.993 3.273-10.993 4.16 0 .521 1.533.643 3.48.278l3.479-.653-4.949 5.108c-2.721 2.809-5.38 5.107-5.908 5.107-.527 0-1.554.568-2.281 1.263-2.174 2.078-6.661 4.735-8.036 4.759-.707.012-2.41.902-3.785 1.978-2.618 2.048-8 2.721-8 1 0-.55 1.237-1.021 2.75-1.046 1.989-.034 3.58-1.127 5.75-3.954 1.65-2.149 3.787-3.928 4.75-3.954.963-.025 1.75-.487 1.75-1.026 0-.538 1.868-1.932 4.151-3.097 2.816-1.437 3.747-2.368 2.894-2.895-.892-.551-.936-.977-.152-1.462.609-.376 1.107-1.163 1.107-1.747 0-.671-.554-.604-1.5.181-.825.685-1.5 1.865-1.5 2.622 0 .758-.62 1.378-1.378 1.378-.757 0-1.937.675-2.622 1.5-.685.825-2.116 1.5-3.181 1.5-1.068 0-1.653.46-1.304 1.025.349.563.263.96-.191.881-2.408-.418-3.955.326-4.873 2.344-.564 1.237-1.627 2.119-2.364 1.958-.737-.161-2.809.714-4.604 1.944-2.946 2.019-3.157 2.484-2.171 4.792 1.505 3.519 1.461 3.489 3.116 2.116.812-.674 2.27-1.072 3.24-.885 1.258.242.264 1.302-3.464 3.694-4.318 2.771-5.492 3.137-6.738 2.103-1.327-1.102-1.265-1.424.512-2.669C91.052 522.85 91.794 519 90 519c-.55 0-1 .45-1 1s-.949 1-2.108 1c-1.69 0-1.996-.449-1.542-2.258.641-2.556-1.149-6.113-2.009-3.992-.279.688-1.145 1.25-1.924 1.25-.779 0-1.417.675-1.417 1.5s-.675 1.5-1.5 1.5c-1.758 0-1.845-.487-.524-2.955.806-1.506.449-2.04-2.052-3.077-1.824-.755-2.826-1.781-2.52-2.579.28-.729.052-1.607-.507-1.952-1.337-.827-.748-5.567.911-7.316.719-.758 1.07-1.996.781-2.75-.746-1.945.374-4.371 2.018-4.371.766 0 1.393-.83 1.393-1.845 0-1.015.929-2.686 2.065-3.714 1.95-1.765 1.964-1.907.25-2.548-1.719-.642-1.712-.72.125-1.466 1.149-.466 2.081-.365 2.285.248.804 2.411 5.013.046 6.692-3.759 1.524-3.454 1.96-3.785 3.74-2.832 1.886 1.009 3.343.61 3.343-.917 0-1.597 5.082-5.54 7.909-6.138 2.237-.473 3.004-1.144 2.777-2.429-.243-1.376.142-1.631 1.712-1.132 2.471.784 6.42-1.144 5.475-2.673-.411-.666-.224-.821.472-.39.781.482 1.155-.318 1.155-2.468 0-2.705.223-2.996 1.489-1.946 1.833 1.521 7.799.571 9.533-1.517 1.012-1.22.857-1.474-.9-1.474-3.274 0-2.664-2.986.628-3.07 2.428-.062 2.516-.17.75-.916-1.769-.747-1.625-.927 1.25-1.554 2.729-.596 3.25-1.161 3.25-3.526 0-1.549-.479-3.112-1.065-3.474-1.295-.801 1.728-4.46 3.685-4.46.72 0 1.798-.913 2.395-2.028s1.516-1.762 2.042-1.437c.527.326 1.227-.112 1.557-.972.736-1.917 7.378-2.198 7.401-.313.011.858.304.794.934-.202.506-.799.697-1.811.426-2.25-.271-.439.178-.798.999-.798.82 0 1.76-.847 2.088-1.881.329-1.035 1.484-2.904 2.568-4.153 2.789-3.217 2.464-4.315-1.068-3.608-2.325.465-3.194.201-3.704-1.125-.556-1.448-.762-1.327-1.248.731a4.153 4.153 0 0 1-3.046 3.082c-3.974.998-4.899.213-3.891-3.302.491-1.711.686-3.318.434-3.57-.751-.751-3.507 1.959-3.507 3.448 0 .843-1.088 1.378-2.8 1.378-1.54 0-3.333.533-3.983 1.183-.651.651-1.529.815-1.95.363-.422-.451-.204-1.021.483-1.266.688-.246 1.25-1.084 1.25-1.863 0-1.565-3.547-1.958-4.452-.494-.314.508-1.916 1.219-3.559 1.58-1.644.361-2.989.968-2.989 1.349 0 1.566-6.891 4.279-10.092 3.973-2.882-.276-3.485-.781-3.966-3.325l-.567-3-.767 3.25c-.481 2.039-1.389 3.262-2.437 3.283-1.377.028-1.284.357.53 1.871l2.2 1.837-4.023 1.814c-2.213.998-4.661 2.725-5.441 3.839-1.094 1.561-1.69 1.753-2.604.839-.914-.914-.802-1.61.491-3.038 2.08-2.299 2.159-4.195.176-4.195-.825 0-1.5.45-1.5 1s-.45 1-1 1-1-1.125-1-2.5-.562-2.507-1.25-2.515c-.91-.011-.937-.216-.1-.75 2.082-1.33 1.876-3.709-.529-6.114-2.089-2.089-2.981-2.295-7.587-1.754-5.713.672-7.159.091-5.313-2.133.965-1.163.819-1.731-.734-2.867-1.538-1.125-1.711-1.779-.839-3.175 1.643-2.631 2.597-7.922 1.546-8.572-.508-.314-.749-2.157-.535-4.095.213-1.939.026-3.525-.417-3.525s-.906 1.212-1.029 2.694m49.237 29.228c-.523.507-2.525 1.32-4.45 1.808-3.239.82-3.523 1.204-3.811 5.152-.171 2.346.23 4.918.892 5.716 1.421 1.712 1.054 2.241-1.866 2.687-1.19.182-2.475.642-2.856 1.023-.381.38-1.855.699-3.276.707-2.438.015-6.718 1.892-4.583 2.01.55.03-.182.697-1.627 1.483-2.539 1.379-4.415 6.039-2.827 7.02.427.264 2.054-.155 3.615-.931 1.562-.777 3.964-1.868 5.339-2.425 9.283-3.76 14.106-6.519 18.35-10.495 5.193-4.864 5.398-7.167.555-6.236-1.598.308-4.311.832-6.03 1.166-3.944.766-3.141-.778 1.567-3.012 2.323-1.103 3.287-2.137 2.909-3.122-.398-1.039.13-1.478 1.792-1.488 1.889-.013 2.059-.208.857-.985-1.898-1.227-3.341-1.251-4.55-.078m238.228 51.734c-1.802 1.801 2.017 14.739 10.283 34.844 2.262 5.5 5.433 14.5 7.047 20 2.912 9.922 6.572 21.619 11.576 37 1.431 4.4 5.678 14.3 9.436 22 3.758 7.7 7.823 16.475 9.032 19.5 1.21 3.025 2.523 5.725 2.919 6 .396.275 1.352 1.703 2.125 3.173.772 1.47 3.541 5.654 6.154 9.298s4.75 6.804 4.75 7.023c0 .22 2.227 3.875 4.95 8.124 4.342 6.778 5.6 8.006 10.25 10.014 8.873 3.83 21.78 2.803 14.221-1.132-1.721-.896-1.901-2.039-1.727-11 .106-5.5-.456-13.938-1.25-18.75-.794-4.813-1.444-10.326-1.444-12.25 0-1.925-.45-3.5-1-3.5-1.558 0-1.315-22.705.25-23.341.918-.372.948-.726.113-1.333-1.313-.953-1.952-25.328-.665-25.322.834.004 5.893 16.885 6.892 22.996.315 1.925.943 4.4 1.395 5.5.453 1.1 1.348 6.05 1.988 11 .641 4.95 1.635 11.7 2.21 15 .575 3.3 1.442 10.725 1.927 16.5 1.252 14.923 1.979 20 2.863 20 .424 0 1.059 1.8 1.411 4 .693 4.332 1.19 4.607 5.108 2.822 1.793-.817 2.379-1.66 1.911-2.75-1.022-2.384-.559-6.234.963-7.997 2.468-2.859 2.641-7.97.621-18.371-1.089-5.612-1.982-10.316-1.984-10.454-.002-.138-.678-.25-1.503-.25-.825 0-1.5-.45-1.5-1s.45-1 1-1c1.648 0 1.13-3.181-.75-4.608-1.601-1.215-1.607-1.331-.073-1.36.922-.018 1.882-.82 2.134-1.782.435-1.667.463-1.667.573 0 .064.962.566 1.75 1.116 1.75.55 0 1 .675 1 1.5s.615 1.5 1.366 1.5c1.086 0 1.175-.87.434-4.25-.512-2.337-.962-5.15-1-6.25-.038-1.1-.689-3.946-1.448-6.324-.758-2.378-1.14-4.71-.849-5.181.291-.471.058-1.148-.518-1.505-.697-.43-1.019 1.807-.961 6.681.114 9.527-.089 10.829-1.691 10.829-.733 0-1.336-.337-1.341-.75-.004-.413-.502-3.675-1.107-7.25s-1.201-8.452-1.324-10.837c-.126-2.415-.843-4.719-1.619-5.199-2.072-1.28-2.033-21.003.045-22.624 1.303-1.016 1.266-1.403-.293-3.126-.979-1.081-2.047-3.614-2.374-5.629-.327-2.015-1.466-4.274-2.531-5.02-1.224-.857-1.541-1.6-.862-2.02 1.565-.967 1.314-4.545-.32-4.545-1.559 0-2.915 2.692-2.056 4.082.306.496.189 1.56-.261 2.365-1.402 2.505-3.241.187-3.949-4.977-.86-6.275-3.698-11.114-6.875-11.721-2.24-.429-2.475-.141-2.565 3.14l-.099 3.611-1.39-4.5c-.764-2.475-1.842-5.4-2.395-6.5-.553-1.1-1.693-5.375-2.534-9.5-.84-4.125-1.952-8.85-2.469-10.5-.518-1.65-1.162-4.125-1.431-5.5-.268-1.375-1.177-5.65-2.019-9.5l-1.531-7 .544 7.25c.5 6.667-.297 9.13-2.042 6.306-.321-.519-5.185-2.346-10.809-4.06a3746.756 3746.756 0 0 1-24.226-7.511c-7.7-2.417-15.575-4.618-17.5-4.89-8.761-1.24-13.698-1.563-14.322-.939M491 542.5c0 .825-.45 1.5-1 1.5s-1 .81-1 1.8-.521 2.321-1.158 2.958c-.867.867-.872 1.501-.017 2.532 1.834 2.209-1.1 5.577-3.555 4.082-1.466-.893-2.314-.755-4.061.66-2.15 1.741-2.969 3.968-1.459 3.968 1.061 0 .936 7.365-.138 8.144-.489.355.334 1.93 1.827 3.5 3.332 3.503 4.72 6.796 4.078 9.675-.267 1.2-.089 3.756.396 5.681l.882 3.5.103-4.719c.084-3.867.387-4.609 1.683-4.112 1.021.392 1.388 1.341 1.037 2.682-.309 1.182.145 2.835 1.055 3.84.878.971 1.733 3.003 1.899 4.516.166 1.513.78 2.91 1.365 3.105.585.195 1.063 1.442 1.063 2.771 0 1.459.582 2.417 1.469 2.417.9 0 1.244.586.888 1.513-.599 1.56 1.209 4.487 2.771 4.487.486 0 .858-9.202.828-20.449-.048-17.439-.269-20.368-1.506-19.893-.806.309-1.505-.046-1.574-.801-.611-6.687-.498-9.553.419-10.683.788-.971.699-1.559-.331-2.196-1.166-.721-1.116-.983.296-1.524 1.355-.52 1.487-1.058.645-2.632-.582-1.087-1.627-1.759-2.322-1.492-.696.267-1.899.083-2.674-.407-1.167-.739-1.173-.895-.037-.908 1.107-.012 1.132-.306.128-1.515-.86-1.036-.898-1.5-.122-1.5.617 0 1.122-.45 1.122-1s-.675-1-1.5-1-1.5.675-1.5 1.5m-59 38.04c0 2.972 6.212 11.254 10.808 14.408 4.259 2.924 4.711 2.312 3.064-4.144-.744-2.917-1.299-5.841-1.233-6.497.164-1.635-5.755-4.307-9.54-4.307-1.705 0-3.099.243-3.099.54m-3 49.799c0 .268 4.387 2.845 9.75 5.725 5.363 2.88 9.9 5.619 10.083 6.086.541 1.379 2.167.971 2.167-.543 0-.766-.675-1.652-1.5-1.969-1.696-.65-2.047-4.289-.465-4.816.659-.22.568-.938-.25-1.978-1.202-1.528-19.785-3.881-19.785-2.505" fill="#d3d3d3" fill-rule="evenodd"/></svg>