<svg xmlns="http://www.w3.org/2000/svg" width="500" height="1176"><path d="M90.5 43.749c-10.643.156-17.849.69-19.27 1.43-1.744.907-2.544.907-3.45.001-1.303-1.303-9.591-1.587-11.467-.394-2.355 1.497-3.289 6.418-2.849 15.006.245 4.789.697 27.608 1.005 50.708.916 68.761 1.697 97.896 2.675 99.748.508.961.939 5.659.956 10.439.018 4.781.531 9.619 1.14 10.753 1.836 3.413 1.877 23.433.056 26.955-1.228 2.375-1.299 3.37-.348 4.894 2.123 3.399 2.609 19.011.653 20.967-1.997 1.997-2.248 60.383-.607 141.244.524 25.85 1.406 71.75 1.959 102 .553 30.25 1.233 65.8 1.511 79 .277 13.2.588 40.072.69 59.716.182 34.943.447 38.284 3.046 38.284.7 0 1.428.809 1.619 1.798.385 1.998-1.606 4.952-2.828 4.197-1.863-1.152-1.909 2.933-.052 4.663 1.096 1.021 1.752 2.483 1.459 3.248-.294.765-.054 1.689.534 2.052 1.728 1.068 1.226 4.189-.913 5.67-1.803 1.249-2.005 2.717-2.25 16.372-.3 16.735 1.251 165.714 1.733 166.5.169.275.597 36.725.952 81 .86 107.296.924 109.394 3.466 112.626 2.016 2.563 2.016 2.579.051 6.432-2.545 4.987-2.555 10.104-.024 12.394 1.741 1.575 3.301 1.685 14.75 1.037 7.042-.399 15.496-.785 18.787-.857 4.84-.107 6.049-.467 6.323-1.882.198-1.021 1.246-1.756 2.516-1.764 4.11-.025 6.435-1.159 7.593-3.701 1.066-2.34 1.528-2.496 5.686-1.926 4.194.575 4.48.474 3.893-1.374-.437-1.377-.088-2.204 1.126-2.67 1.014-.389 1.926-.175 2.152.505.217.649.966 1.18 1.665 1.18.7 0 2.461 1.435 3.914 3.189l2.642 3.189-2.247 2.405-2.247 2.405 57.833-.324c31.809-.178 58.046-.669 58.306-1.089.26-.421 1.91-.747 3.667-.725 1.757.022 5.894-.156 9.194-.396 3.306-.239 6.567.025 7.263.589 1.207.978 19.765.723 67.737-.932 9.35-.322 35.675-.637 58.5-.699 22.825-.061 42.061-.475 42.746-.919.686-.443 2.228-.995 3.427-1.226 1.199-.231 2.544-.993 2.988-1.694.445-.7.814-18.823.82-40.273.007-21.45.249-65.325.539-97.5.657-73.121.69-66.75-.674-133.5-1.598-78.222-1.603-79.485-1.585-418.5.011-224.822-.871-376.825-2.196-378.422-1.341-1.616-4.954-1.68-55.5-.991-57.765.787-68.231.806-81.565.147-6.429-.317-92.696-.967-102.142-.768-.902.018-1.924 1.159-2.269 2.534-.808 3.222-3.912 3.281-5.361.101-.904-1.985-2.011-2.481-6.411-2.876-5.259-.472-68.45-.457-101.317.024m48.585 88.501c-.48 1.238-1.69 4.95-2.688 8.25-.999 3.3-2.124 6.45-2.5 7-1.084 1.585 1.078 21.551 2.666 24.622.79 1.528 1.437 3.632 1.437 4.675 0 2.467 2.87 8.203 4.105 8.203.527 0 1.281-.787 1.676-1.75.496-1.207.874-.357 1.219 2.741.595 5.346 2.902 6.389 6.551 2.962 1.82-1.711 2.148-2.647 1.41-4.025-1.193-2.229-1.211-2.928-.078-2.928.486 0 1.12.902 1.408 2.004.345 1.321 1.058 1.799 2.09 1.403 2.073-.795 10.035-12.972 11.382-17.407 1.299-4.277 3.237-12.668 3.237-14.014 0-1.686-1.829-1.081-2.311.764-.353 1.351-.483 1.251-.573-.441-.168-3.173-2.116-3.943-2.116-.837 0 1.564-.693 2.837-1.75 3.211-.963.342-2.474 1.24-3.36 1.997-4.854 4.15-14.473 2.587-19.947-3.241-2.692-2.865-2.025-4.728 4.678-13.071l3.319-4.131-1.94-2.369c-5.312-6.486-6.579-7.065-7.915-3.618m115.256 16c.316 3.438.877 9.731 1.247 13.986.435 4.993 1.208 8.18 2.181 8.987 2.038 1.692 1.342-25.18-.717-27.66-2.518-3.035-3.297-1.689-2.711 4.687m-154.674 7.417c-1.567 1.566-.167 10.716 3.033 19.833 1.69 4.815 12.371 16.327 17.886 19.279 3.51 1.878 13.893 4.17 16.182 3.572 3.696-.967 2.718-3.351-1.375-3.351-5.783 0-16.172-5.557-22.44-12.003-6.24-6.417-9.708-14.957-8.67-21.352.666-4.107-2.451-8.144-4.616-5.978m2.552 113.906c-.484.866-1.935 2.103-3.224 2.75-10.24 5.143-10.349 33.591-.202 52.677 5.564 10.465 7.311 12.82 11.868 16 1.97 1.375 5.258 4.188 7.306 6.25 2.048 2.063 4.017 3.75 4.377 3.75 2.825 0 12.413 12.967 11.127 15.048-.805 1.301 3.332 7.952 4.945 7.952.69 0 3.919.875 7.176 1.944 8.479 2.784 23.019 3.943 32.408 2.584 1.375-.199 3.452-.399 4.615-.445 1.163-.046 3.364-1.065 4.891-2.266 2.607-2.051 3.877-2.191 20.981-2.304l18.206-.12 4.735-4.873c10.243-10.539 15.642-22.465 18.571-41.02 1.774-11.243 1.866-11.5 4.087-11.5 1.473 0 1.91.492 1.553 1.75-.272.962-.788 4.675-1.146 8.25-.665 6.635-.86 7.461-4.567 19.314-3.77 12.051-.37 8.67 3.834-3.814 4.111-12.205 5.08-28.5 1.696-28.5-.709 0-1.477.563-1.706 1.25-.303.908-3.676 1.245-12.333 1.232l-11.917-.018-3.927-3.482c-10.376-9.2-18.375-18.741-19.209-22.913-.333-1.664-1.226-3.539-1.985-4.169-.758-.63-1.379-2.004-1.379-3.054 0-2.655-2.808-3.49-4.403-1.309-1.637 2.239-4.856 1.302-3.919-1.141.679-1.769-3.551-1.538-9.678.529-1.375.464-4.525 1.397-7 2.073-6.619 1.809-8.658 2.957-9.832 5.533-.745 1.634-1.636 2.159-3.041 1.792-1.335-.349-2.42.192-3.307 1.649-.726 1.193-3.22 3.042-5.541 4.11-2.322 1.068-4.699 2.833-5.282 3.923-1.594 2.979-9.285 9.943-10.997 9.958-.825.007-3.51-1.136-5.966-2.54-4.155-2.374-4.554-2.433-5.719-.84-1.14 1.56-1.342 1.477-2.259-.935-.821-2.161-1.644-2.648-4.472-2.648-1.906 0-3.782-.511-4.167-1.135-.466-.753-1.075-.46-1.81.867-.704 1.275-1.698 1.778-2.732 1.385-2.532-.961-.563-5.117 2.424-5.117 1.968 0 2.585-.795 3.683-4.75 2.459-8.86 1.82-13.609-2.485-18.462-5.286-5.959-12.406-8.559-14.278-5.215m1.517 3.119c-3.801.991-5.865 8.735-3.634 13.633 2.659 5.836 13.898 5.062 13.898-.956 0-3.659-2.343-10.369-3.621-10.369-.624 0-1.694-.675-2.379-1.5s-1.527-1.448-1.872-1.384c-.346.064-1.422.323-2.392.576m101.612 54.754c-6.186 3.061-12.407 8.425-13.541 11.678-.551 1.582-1.63 2.876-2.397 2.876-.767 0-2.597 1.35-4.068 3-1.47 1.65-3.273 3-4.007 3-.734 0-1.335.464-1.335 1.031 0 1.6 2.874 2.319 4.355 1.09 1.849-1.535 2.684-.354 1.658 2.345-.473 1.243-.606 4.149-.296 6.458.317 2.364-.006 5.922-.739 8.142-1.4 4.243-.578 6.475 1.392 3.781.792-1.083 2.098-1.48 3.801-1.155 1.427.273 2.899.004 3.271-.598 1.056-1.709 3.558-1.283 3.558.606 0 1.288.281 1.419 1.158.542.83-.83.853-1.523.082-2.452-1.215-1.465.359-4.218 2.51-4.39a102.91 102.91 0 0 0 2.609-.25c2.03-.224 10.138-6.905 10.163-8.375.013-.701.793-1.144 1.734-.985 1.104.187 1.525-.197 1.186-1.081-.379-.988 1.092-1.732 5.266-2.661 3.185-.709 6.986-2.135 8.446-3.168 1.46-1.034 2.893-1.88 3.185-1.88.292 0 1.679-.437 3.083-.971l2.553-.97-2.508-4.717c-1.38-2.595-4.187-6.546-6.238-8.78L226.5 325.5l-8.5-.054c-6.637-.042-9.41.397-12.652 2m-74.316 59.104c-.018 3.879.468 7.55 1.079 8.161.917.917 1.288 10.111.697 17.289-.7 8.503 1.127 12.193 4.202 8.488 2.013-2.425 1.544-15.9-.875-25.155-1.174-4.491-2.135-9.018-2.135-10.058 0-1.041-.661-2.766-1.468-3.834-1.337-1.767-1.471-1.308-1.5 5.109m-5.461 26.121c-.333 3.756-1.038 8.145-1.567 9.752-.603 1.833-.609 3.348-.018 4.06.518.625.907 7.184.864 14.576-.189 32.433.149 43.941 1.291 43.941.843 0 .96-6.255.447-23.906-.673-23.127-.631-23.95 1.29-25.296 2.475-1.733 3.123-4.191 1.122-4.254-1.243-.039-1.521-2.154-1.62-12.332-.135-13.886-.91-16.686-1.809-6.541m194.064 3.346c-.698 1.659-1.545 2.74-1.882 2.402-1.087-1.086-6.817 2.987-7.384 5.249-.302 1.203-1.184 2.431-1.959 2.728-2.07.794-1.718 4.362.679 6.896l2.09 2.208-.34-3.975c-.273-3.198.015-4.045 1.472-4.335 1.572-.313 1.723.113 1.139 3.225-.669 3.566-.216 4.091 3.175 3.688.619-.073 1.891 1.036 2.828 2.465.936 1.43 3.243 3.243 5.125 4.029 1.882.786 3.44 1.986 3.463 2.666.072 2.187 5.334 7.462 9.709 9.733 2.337 1.213 4.25 2.667 4.25 3.23 0 .615 1.256.773 3.143.395 1.807-.361 3.72-.149 4.5.498 1.066.884 1.357.696 1.357-.878 0-1.115 1.553-3.188 3.5-4.673 2.045-1.56 3.5-3.544 3.5-4.774 0-2.061-.042-2.066-2.061-.239-2.26 2.045-4.474.455-3.406-2.446.285-.772-.943-2.671-2.76-4.27-1.8-1.584-5.989-5.458-9.31-8.61-3.32-3.151-7.37-6.884-9-8.296-1.629-1.411-4.22-4.224-5.756-6.25-3.389-4.47-4.425-4.583-6.072-.666m11.403 44.891c-1.66 4.008-1.233 4.371 5.552 4.712 6.737.338 8.211 1.375 7.626 5.361-.602 4.105-.106 3.857 4.662-2.323 5.078-6.582 5.079-6.567-.128-6.554-9.332.025-13.747-.717-15.077-2.536-1.234-1.688-1.42-1.594-2.635 1.34m-25.92 13.735c.065 1.021.403 3.175.75 4.786.605 2.807.707 2.855 2.408 1.153 2.219-2.22 4.697-1.377 4.808 1.637.047 1.254.413 4.911.813 8.125.687 5.509.567 6.018-2.092 8.865-2.096 2.244-3.463 2.898-5.314 2.545-1.37-.262-2.491-.137-2.491.278 0 1.456-3.167 1.949-5.275.821-1.556-.833-2.229-.84-2.501-.026-.204.613-1.425-.11-2.712-1.607-2.89-3.357-4.193-2.346-2.805 2.176 1.174 3.828.114 6.825-1.754 4.957-1.656-1.656-2.245-10.297-.819-12.015.967-1.164.792-1.545-.914-1.991-1.304-.341-2.271-1.561-2.535-3.199-.235-1.456-.248-.623-.03 1.852.219 2.475.568 6.933.776 9.907.252 3.611.907 5.703 1.973 6.299.98.549 1.596 2.224 1.596 4.344 0 3.706 1.324 4.371 3.958 1.988.892-.807 2.554-1.217 3.71-.915 1.961.513 2.002.732.639 3.462-.799 1.603-1.926 2.915-2.503 2.915-.645 0-.57.577.196 1.5.685.825 2.09 1.5 3.122 1.5 1.033 0 1.878.395 1.878.878 0 1.129-2.531 3.239-3.645 3.039-2.569-.462-2.409.433.645 3.583 1.866 1.925 3.907 3.5 4.536 3.5.628 0 1.637 1.084 2.24 2.409 1.609 3.53 17.103 13.591 20.932 13.591 2.223 0 .649-1.656-5.376-5.655-3.068-2.037-6.905-5.535-8.526-7.774-1.621-2.239-3.928-4.597-5.127-5.24-1.198-.643-2.037-1.318-1.864-1.5.173-.182-.004-1.159-.392-2.172-.497-1.295.076-2.566 1.935-4.29 1.453-1.348 2.642-3.107 2.642-3.909 0-.803.516-1.348 1.146-1.21 1.725.376 13.854-15.614 13.854-18.265 0-.734-.59-.74-1.934-.02-5.392 2.885-7.737.775-5.034-4.529 2.433-4.771 2.456-6.522.149-11.298-1.311-2.714-1.537-4.212-.808-5.367 1.324-2.1-.509-4.347-4.145-5.08-1.501-.303-3.516-.856-4.478-1.228-1.298-.502-1.719-.198-1.632 1.18m-12.575 3.607c-1.248 3.96-1.386 10.673-.282 13.75 1.849 5.156 2.516 5.871 4.896 5.249 1.318-.345 1.913-.171 1.531.446-.343.556.005 1.864.773 2.908 1.324 1.799 1.432 1.805 2.089.11.425-1.098.042-2.507-.994-3.651-1.107-1.223-1.32-2.09-.621-2.522 2.037-1.259 1.191-4.203-1.185-4.119-2.07.073-2.25-.36-2.25-5.421 0-5.539-.797-8-2.59-8-.535 0-1.15.563-1.367 1.25M254.29 495c-.288 1.1-1.301 2-2.252 2-.95 0-2.473.823-3.383 1.829-1.785 1.972-2.196 4.171-.78 4.171.481 0 1.145 1.238 1.474 2.75.974 4.472 8.894 12.774 11.229 11.77 2.253-.969 3.131-1.163 6.204-1.368 3.391-.226 4.497-4.086 1.818-6.346l-2.1-1.771 2.25-.634c3.372-.95 2.89-1.765-4.936-8.353-7.878-6.631-8.752-7.003-9.524-4.048m-125.328 34.5c-.59 14.141.255 31.049 1.623 32.464 1.232 1.275 1.43 1.08 1.533-1.5.066-1.63.047-3.358-.041-3.839-.088-.481-.17-5.431-.182-11-.013-5.569-.63-12.6-1.374-15.625l-1.351-5.5-.208 5m4.49 97.047c1.485 29.75 2.562 40.514 4.048 40.463 1.208-.042.682-19.398-.62-22.825-.484-1.273-.88-8.081-.88-15.128 0-10.516-.286-13.05-1.598-14.138-1.454-1.207-1.539-.168-.95 11.628m95.864 13.264c-2.301.948-4.513 2.053-4.916 2.456-.403.403-1.538.733-2.521.733-1.915 0-2.534.52-14.284 11.999-6.179 6.036-8.497 9.202-11.885 16.233-3.799 7.882-6.71 11.081-6.71 7.375 0-.766-.675-1.652-1.5-1.969-1.757-.674-2.019 1.443-.381 3.081 2.439 2.439-1.154 28.339-5.047 36.382-1.517 3.135-1.582 4.229-.506 8.47 1.389 5.471.816 12.211-.893 10.502-.728-.728-1.616-.53-2.92.651-1.597 1.444-2.007 1.484-2.76.265-.486-.787-1.234-1.081-1.662-.653-.428.427-.045 1.989.852 3.471 5.025 8.308 8.203 16.013 8.258 20.024.04 2.919.629 4.747 1.809 5.61.962.704 1.752 1.905 1.754 2.669.002.765.808 3.64 1.791 6.39 1.625 4.546 2.099 5.03 5.224 5.33 3.291.317 3.365.252 1.756-1.526-2.507-2.77-3.425-9.841-1.379-10.626 1.13-.433 1.604-.046 1.604 1.311 0 2.656 6.615 6.342 18.634 10.382 10.46 3.516 24.435 5.63 21.116 3.193-.963-.706-1.75-1.958-1.75-2.78 0-.823-1.505-3.474-3.343-5.89-3.258-4.281-4.947-7.462-8.043-15.144-.832-2.062-2.073-3.75-2.759-3.75-1.341 0-8.771 4.869-8.983 5.886-.07.338-.243 1.514-.386 2.614-.474 3.671-3.057 7.529-4.245 6.341-.597-.597-.847-1.705-.556-2.463.778-2.028-2.708-1.724-4.264.372-1.155 1.556-1.466 1.584-2.807.25-1.342-1.335-.566-2.214 7.071-8 4.718-3.575 9.419-6.823 10.447-7.218 4.075-1.566-.13-10.542-10.131-21.622-1.162-1.288-1.959-3.088-1.771-4 .799-3.887 9.034-.034 20.378 9.532 5.633 4.751 9.287 5.849 7.337 2.206-.961-1.797-.728-2.415 1.604-4.25l4.807-3.783c1.745-1.373 1.87-1.887.783-3.198-1.875-2.259-.044-5.551 1.918-3.451 1.165 1.247 2.443.678 9.294-4.135 4.369-3.07 8.862-6.818 9.984-8.331 2.303-3.103 5.677-3.701 5.643-1-.031 2.419-2.774 5.511-7.279 8.204-7.711 4.609-7.789 5.842-1.204 19.046 1.493 2.994 2.633 8.765 3.013 15.258.251 4.292.044 4.816-2.115 5.358-1.316.331-2.422 1.115-2.456 1.742-.035.628-.471.129-.968-1.108-.613-1.524-1.743-2.25-3.504-2.25-2.785 0-2.784 2.603.001 6 .677.825 1.548 2.387 1.936 3.472.542 1.514.896 1.663 1.527.643.575-.93 1.026-.996 1.505-.222.376.609 1.471 1.107 2.433 1.107 1.486 0 5.133 5.922 5.133 8.336 0 1.869-1.938.281-2.85-2.336-.575-1.65-1.519-3-2.098-3-1.457 0-1.322 3.563.198 5.221 1.61 1.756 3.345 4.473 5.421 8.486 1.827 3.533 3.329 3.461 3.329-.159 0-2.66 2.552-4.157 3.386-1.985 1.859 4.844 17.929-1.66 18.766-7.595.234-1.662 1.083-2.572 2.598-2.788 2.471-.351 2.914.756 1.05 2.62-.833.833-.881 1.519-.158 2.242.724.724 1.435.57 2.323-.5.704-.848 1.874-1.542 2.601-1.542.726 0 1.909-.796 2.627-1.769.719-.974 3.22-3.261 5.557-5.084 3.712-2.896 4.25-3.811 4.25-7.231 0-2.814-.422-3.916-1.5-3.916-.825 0-1.514-.788-1.531-1.75-.018-.962-1.143-2.559-2.5-3.547-2.449-1.782-2.469-1.776-2.469.75 0 1.88-.524 2.547-2 2.547-1.293 0-2 .667-2 1.885 0 1.037-1.125 2.622-2.5 3.523-1.375.901-2.5 2.276-2.5 3.056 0 4.002-5.835.322-7.558-4.767-.702-2.072-3.442-.54-3.442 1.925 0 .758-.9 1.378-2 1.378-1.163 0-2-.667-2-1.592 0-.876.9-2.737 2-4.135 2.145-2.727 2.628-5.273 1-5.273-.55 0-1 .9-1 2s-.45 2-1 2-1-.9-1-2 .45-2 1-2c2.06 0 .903-3.086-1.5-4-2.55-.97-3.187-3.366-1.572-5.918.583-.92.354-2.248-.651-3.781-.851-1.3-1.273-2.638-.937-2.975.887-.886 3.66 1.664 3.66 3.366 0 .921.799 1.331 2.198 1.128 2.004-.292 2.174-.817 1.932-5.969-.256-5.451.933-8.176 2.478-5.676.41.664.216 1.384-.431 1.599-1.692.564-1.452 4.183.323 4.864 1.906.732 1.94 3.752.059 5.313-1.626 1.349-1.009 4.049.926 4.049.698 0 1.789-.625 2.423-1.389 3.374-4.066 7.433-1.985 4.999 2.562-1.601 2.992.426 4.74 2.901 2.501 1.02-.923 2.116-1.416 2.436-1.096.863.863 5.756-2.603 5.756-4.076 0-.698-.9-1.504-2-1.792-2.407-.629-2.644-3.249-.373-4.12 1.857-.713 4.373 1.006 4.373 2.987 0 .733 1.145 2.478 2.545 3.878s2.023 2.545 1.384 2.545c-.703 0-.972.997-.679 2.525.301 1.576-.061 2.829-.962 3.334-2.062 1.154 2.958 4.358 5.41 3.453 3.147-1.163 4.463-4.312 1.802-4.312-.825 0-1.545.788-1.6 1.75-.056.962-.524-.05-1.041-2.25-.518-2.2-.724-4.9-.459-6 .265-1.1-.166-2.874-.959-3.941-2.143-2.887-1.928-8.759.309-8.418.962.147 2.762-.383 4-1.177 6.013-3.861-.692-14.045-13.402-20.355-4.415-2.192-6.055-2.404-18.348-2.371-7.425.02-14.26.426-15.189.902-2.953 1.513-3.044-.955-.168-4.559 2.163-2.711 3.117-3.245 4.486-2.512 2.064 1.105 8.788 1.123 14.371.039l4-.776-4.658-.766c-2.562-.421-6.049-.46-7.751-.086-3.774.829-5.232-1.562-2.674-4.388 1.29-1.425 1.668-3.92 1.7-11.213.046-10.458-1.765-15.812-8.597-25.421-1.936-2.723-3.528-5.403-3.537-5.955-.01-.552-1.135-2.063-2.5-3.358-1.366-1.295-2.483-2.725-2.483-3.176 0-.452-2.539-2.064-5.642-3.582-7.222-3.534-19.485-4.276-26.042-1.576m-93.14 29.778c-2.093 1.467-2.161 1.785-.816 3.837 2.066 3.154 1.085 4.093-6.861 6.559-11.143 3.459-17.525 6.165-16.905 7.168.316.51 1.433.656 2.482.323 1.049-.333 3.148-.83 4.664-1.105 1.517-.275 6.133-1.951 10.259-3.723 8.903-3.826 9.987-3.728 12.511 1.135 2.375 4.576 11.376 18.217 12.02 18.217 1.202 0 .241-3.059-1.999-6.359-2.295-3.382-2.503-6.641-.424-6.641 1.27 0 1.055-1.201-.608-3.398-1.201-1.588-1.692-1.686-2.999-.602-2.508 2.081-5.655-2.796-7.908-12.255-1.119-4.695-1.161-4.735-3.416-3.156M304 684.967c0 1.751 3.689 8.53 5.427 9.972.865.718 1.573 1.889 1.573 2.602 0 .713.779 2.654 1.731 4.313 2.278 3.968 1.131 4.896-2.688 2.177-1.69-1.204-3.628-1.999-4.308-1.768-.679.23 1.24 1.824 4.265 3.541 3.025 1.717 6.066 4.038 6.758 5.159.693 1.12 1.705 2.037 2.25 2.037 1.553 0 1.162-4.614-.508-6-.825-.685-1.5-1.928-1.5-2.762 0-.834-1.35-3.711-3-6.392-3.295-5.356-3.808-8.599-1.5-9.484.825-.317 1.5-1.255 1.5-2.084 0-1.324-.294-1.316-2.41.071-2.24 1.468-2.595 1.435-5-.457-1.425-1.121-2.59-1.537-2.59-.925m-42.612 38.214c-.426.689.174 1.78 1.441 2.622 2.507 1.664 2.854 5.386.671 7.197-.921.764-1.5 2.958-1.5 5.683v4.438l3.75-.311c2.239-.185 3.71-.814 3.65-1.56-.055-.687-.167-3.659-.25-6.604-.118-4.196-.691-5.937-2.65-8.051-1.375-1.484-2.5-3.125-2.5-3.647 0-1.335-1.738-1.181-2.612.233M86.899 742.5c-.219 2.2-.174 14.35.101 27 .453 20.822.571 22.053 1.247 13 1.782-23.838 1.881-31.961.462-38l-1.41-6-.4 4m5.465 135.305c-2.711.386-3.625 4.511-2.81 12.683 1.073 10.776 3.248 14.879 6.97 13.153 2.928-1.358 3.095-3.495.82-10.537-.91-2.82-1.361-5.42-1.002-5.78.36-.359 5.472-.692 11.362-.739l10.708-.085.717-3.49c1.152-5.611.109-6.073-13.014-5.775-6.388.146-12.576.402-13.751.57m81.52-.356c-.247.247-6.506.606-13.909.797-13.445.347-13.461.35-14.369 2.934-1.898 5.396-.578 6.127 9.756 5.403 7.046-.494 9.588-.34 10.371.631.982 1.218 2.352 11.777 2.373 18.286.02 6.501 2.305 14.281 5.99 20.396 4.324 7.174 6.491 6.437 3.373-1.148-3.476-8.457-5.886-26.394-4.6-34.248l.655-4 5.488-.5c5.475-.499 5.489-.508 5.79-4.111.291-3.476.16-3.634-3.5-4.239-4.535-.749-6.808-.811-7.418-.201m206.366 1.268c-1.334.48-1.759 3.276-.5 3.293.413.005 2.759 3.161 5.214 7.012 3.954 6.201 7.154 8.708 6.194 4.853-.189-.756-.319-3.676-.29-6.488.029-2.812-.492-5.795-1.157-6.628-1.242-1.555-7.225-2.846-9.461-2.042m-256.468 1.436c-.211.634-.057 3.447.344 6.25.4 2.803.761 8.044.801 11.647.067 5.995 1.147 8.95 3.273 8.95.44 0 .8-2.164.8-4.809 0-5.442 2.338-10.031 3.536-6.941.373.962 1.075 1.75 1.56 1.75 2.036 0 10.978 10.714 11.977 14.351 1.367 4.973 1.079 5.169-7.026 4.795-4.385-.203-7.079.096-7.536.836-1.213 1.964.4 2.513 7.822 2.663 10.886.22 10.284-.69 9.83 14.855-.436 14.93.077 18.226 2.358 15.128 1.04-1.413 1.39-6.119 1.428-19.223.059-20.76-.869-23.68-11.1-34.905-7.395-8.113-11.849-13.915-11.849-15.433 0-1.445-5.734-1.365-6.218.086m77.885-.486c-.367.366-.667 1.649-.667 2.849 0 2.222-6.124 14.692-8.625 17.563-1.431 1.643-1.987 20.037-.745 24.671.907 3.385 3.737 2.952 3.083-.471-.903-4.726 1.112-21.061 3.011-24.409 4.804-8.47 5.341-9.109 6.784-8.078 1.235.882 5.492 6.9 5.492 7.763 0 .35.93 1.943 2.068 3.54 1.337 1.878 1.835 3.637 1.409 4.978-.362 1.141-.107 3.406.567 5.033 1.605 3.874 1.262 4.093-6.743 4.306-6.051.161-6.834.41-7.104 2.257-.398 2.728 1.054 3.136 8.506 2.388l6.203-.622.312 3.033c.172 1.667-.078 4.275-.555 5.795-1.027 3.271-.291 5.737 1.712 5.737 2.287 0 3.388-18.177 1.358-22.433-1.056-2.216-1.227-3.72-.556-4.918 1.362-2.435.143-6.944-2.995-11.078-4.953-6.524-7.428-11.054-7.415-13.571.02-3.877-2.995-6.438-5.1-4.333m21.889.243c-.309.5-.335 1.513-.057 2.25.278.737.644 5.84.814 11.34.26 8.444.553 9.958 1.884 9.732 2.314-.393 3.117 2.763 1.233 4.845-2.682 2.964 1.131 14.547 5.57 16.923 1.426.763 1.946 1.983 1.827 4.283-.353 6.793 1.423 22.259 2.711 23.614 1.696 1.785 3.799-4.588 2.193-6.646-.643-.824-.56-2.251.245-4.192 1.002-2.419.955-3.319-.261-5.056-1.091-1.557-1.261-3.081-.648-5.799.716-3.175.423-4.324-2.107-8.266-1.616-2.519-3.224-6.01-3.574-7.759-.35-1.748-1.017-3.179-1.483-3.179-.466 0-.834-2.362-.818-5.25.017-2.888-.032-6.6-.107-8.25-.076-1.65-.095-6.294-.043-10.321.053-4.027-.163-7.739-.479-8.25-.739-1.196-6.163-1.212-6.9-.019m75.806.59c.7 1.824-.7 1.931-3.379.257-4.43-2.766-6.583 3.758-5.06 15.331.151 1.147 7.072.831 8.081-.369C302.3 891.8 310 880.76 310 879.954c0-.525-2.523-.954-5.607-.954-4.573 0-5.501.277-5.031 1.5m-21.972 13.926c-.332.866-1.381 1.574-2.33 1.574-.95 0-1.798.563-1.886 1.25-.088.688-.588 4.175-1.112 7.75-.6 4.094-.602 7.836-.006 10.11.594 2.269.594 5.462-.001 8.599-.973 5.132-.498 9.291 1.062 9.291.485 0 .883-.492.883-1.092 0-.601.902-2.24 2.005-3.642 1.531-1.946 1.739-2.87.878-3.907-.864-1.041-.781-1.359.355-1.359.816 0 2.896-2.65 4.623-5.89 3.966-7.441 4.508-17.038 1.097-19.427-1.123-.787-1.911-2.023-1.75-2.747.423-1.908-3.101-2.379-3.818-.51M98.177 906.75c-.585 1.513-1.208 3.647-1.383 4.742-.211 1.32-1.323 2.167-3.294 2.508-3.247.562-4.43 3.174-2.495 5.506.741.893 2.191 1.205 3.96.851 4.467-.893 6.897 1.244 10.751 9.457 3.725 7.939 4.07 9.688 6.613 33.539 1.497 14.037 2.282 16.394 5.104 15.311 1.876-.72 2.056-3.775.325-5.506-.988-.988-.971-1.408.086-2.061 3.677-2.273 1.577-21.404-4.345-39.597-3.376-10.369-3.277-11.452 1.051-11.485 2.535-.019 4.45-1.832 4.45-4.215 0-1.531-.886-1.8-5.929-1.8h-5.928l-3.24-5c-3.742-5.775-4.279-5.986-5.726-2.25m27.66 2.917c-1.381 7.077-.883 35.539.664 37.94 1.155 1.793 1.136 2.327-.127 3.59-1.082 1.082-1.496 3.898-1.529 10.394C124.762 977.82 124.786 978 127 978c2.364 0 2.401-.376 2.023-20.5-.144-7.7-.219-14.9-.166-16 .585-12.101.149-23.878-.907-24.531-.757-.468-.973-1.742-.567-3.357.359-1.432.679-2.931.71-3.333.081-1.037-2.059-1.618-2.256-.612m51.83 25.083c-.248.413.144 3.613.87 7.111 1.563 7.53 1.929 18.866.929 28.786-.656 6.514-.544 7.241 1.269 8.211 1.481.793 2.468.714 3.864-.306 1.819-1.331 1.82-1.431.04-3.399-1.009-1.115-1.554-2.482-1.21-3.038.819-1.325 1.996-17.099 1.8-24.115-.243-8.677-1.115-12.258-2.828-11.6a1.59 1.59 0 0 1-2.046-.917c-.61-1.59-1.952-1.956-2.688-.733M309 936.607c0 1.073-.54 1.4-1.627.983-.894-.344-2.305-.061-3.135.628-.83.688-2.236 1.259-3.124 1.267-1.193.011-1.676 1.128-1.854 4.281-.229 4.093-.137 4.241 2.26 3.64 2.483-.623 2.496-.589 2.086 5.172-.227 3.19-.071 6.728.347 7.861 1.1 2.984.223 4.561-2.536 4.561-3.726 0-2.925 2.708 1.422 4.808 6.633 3.205 8.342 1.713 8.081-7.051-.119-3.991.139-9.017.573-11.168.686-3.396.574-3.829-.851-3.282-2.557.981-4.482-.201-3.908-2.4.363-1.385 1.067-1.788 2.39-1.368 1.666.529 1.876.029 1.876-4.472 0-2.787-.45-5.067-1-5.067s-1 .723-1 1.607m32.407 3.381c-.704 5.312-1.998 7.242-3.038 4.532-.56-1.46-.787-1.452-2.493.092-2.328 2.107-2.353 3.2-.126 5.678 1.676 1.866 1.655 2.011-.5 3.451-3.422 2.286-3.265 8.686.197 8.024 2.277-.435 2.49-.114 3.083 4.634.351 2.805.487 5.749.304 6.542-.184.792.404 1.603 1.306 1.802 2.181.481 3.165-7.412 1.026-8.233-1.142-.438-1.095-.969.269-3.05 1.243-1.898 1.75-5.597 2.051-14.967.405-12.618-.851-17.759-2.079-8.505m-126.023.2c-2.042 3.304-1.535 34.812.561 34.812 1.601 0 1.98-4.425.517-6.042-1.96-2.165-1.845-3.186.593-5.273 1.486-1.272 1.858-2.374 1.343-3.973-.392-1.216-.621-2.662-.509-3.212.111-.55.294-4.562.407-8.916.199-7.705-.938-10.591-2.912-7.396m19.63 30.062c.031 5.132 1.086 6.75 4.403 6.75 1.75 0 3.658.475 4.238 1.055 1.818 1.818 15.746-.171 16.156-2.306.3-1.564-.546-1.735-7.903-1.595-7.334.139-8.43-.08-9.983-1.999-.96-1.185-2.236-2.155-2.835-2.155-.6 0-1.09-.45-1.09-1s-.675-1-1.5-1c-.893 0-1.494.911-1.486 2.25" fill="#d3d3d3" fill-rule="evenodd"/></svg>