<svg xmlns="http://www.w3.org/2000/svg" width="500" height="829"><path d="M0 414.5V829h11.5c10.622 0 13.413-.7 10.349-2.594-.798-.493-.586-1.125.691-2.059 1.024-.749 1.291-1.347.601-1.347-2.365 0 .32-2.747 7.359-7.53 3.85-2.616 7.15-5.142 7.333-5.613.184-.472.695-.857 1.136-.857.442 0 3.499-1.8 6.793-4 3.295-2.2 6.337-4 6.76-4 .424 0 2.92-1.913 5.548-4.25 7.75-6.895 10.93-9.085 10.93-7.526 0 .757-.54 1.916-1.2 2.576-.933.933-.933 1.467 0 2.4 1.685 1.685 1.492 2.8-.483 2.8C64.83 797 53 810.001 53 812.734c0 1.75-.569 2.266-2.5 2.266-1.375 0-2.5-.45-2.5-1s.9-1 2-1c1.111 0 2-.667 2-1.5 0-1.791-1.257-1.853-8.041-.398-4.559.978-5.074 1.345-4.563 3.25.317 1.181.583 2.748.59 3.481.008.734.576 1.136 1.264.894.687-.242 2.317-.045 3.622.438 1.502.556 2.844.486 3.661-.192.902-.749 1.485-.753 1.941-.014.359.58-.051 1.325-.911 1.655-2.291.879-1.91 2.71.437 2.096 1.1-.287 2-.115 2 .384 0 1.236-5.729 1.154-6.5-.094-.34-.55-1.293-1-2.118-1s-1.222.45-.882 1c.34.55-.005 1-.767 1-.761 0-2.442 1.126-3.735 2.502l-2.351 2.502 232.427-.252L500.5 828.5l.002-414.5c.002-275.245-.083-310.412-.251-104.677-.213 259.465-.475 310.044-1.613 311.181-1.859 1.86-2.438-15.717-3.272-99.304-.601-60.284-.806-66.238-2.264-65.611-5.319 2.288-16.447 1.289-24.852-2.232-.818-.343-1.285.455-1.35 2.31-.09 2.538-.193 2.444-.982-.903-.58-2.46-2.322-5.021-5.101-7.5-11.1-9.9-14.851-14.761-14.489-18.776.108-1.196-.576-2.057-1.828-2.3-4.857-.942-7.822-6.954-7.635-15.481.034-1.536-.999-5.811-2.294-9.5-1.296-3.689-2.609-8.507-2.919-10.707-1.932-13.721-2.927-18.44-4.642-21.999-4.012-8.329-7.331-20.518-11.031-40.501-1.069-5.775-2.394-12.045-2.944-13.934-1.564-5.365-.613-4.894 7.167 3.549 3.997 4.337 13.397 14.185 20.889 21.885 7.493 7.7 16.021 16.7 18.95 20 2.929 3.3 5.604 6.12 5.943 6.267 2.706 1.17 4.212-52.84 4.167-149.436l-.02-41.169-4.315-3.956c-7.648-7.01-10.187-8.867-17.316-12.668-11.927-6.359-24.489-14.216-23.812-14.892.355-.355.201-.646-.341-.646-1.424 0-6.898-5.189-7.647-7.25-.351-.963-1.326-1.75-2.169-1.75-.901 0-1.531-.887-1.531-2.156 0-1.185-1.157-3.672-2.571-5.527-1.415-1.854-4.371-7.071-6.571-11.594-6.26-12.874-7.657-15.223-9.055-15.225-.87-.001-1.195-1.081-.978-3.25.179-1.786-.048-3.248-.506-3.248-.457 0-1.456-1.462-2.22-3.25-2.707-6.328-5.643-8.395-6.393-4.5-.323 1.678-.468 1.447-.57-.906-.114-2.648-.462-3.072-2.157-2.628-1.518.397-1.755.849-.952 1.817.671.808.711 1.511.107 1.884-.53.328-1.153.03-1.385-.661-.33-.983-.946-1-2.835-.079-1.328.647-3.089 1.399-3.914 1.671-.825.272-.193.53 1.405.573 2.745.075 2.814.179 1.258 1.899-1.455 1.608-1.477 2.044-.187 3.75.803 1.061 1.475 3.167 1.492 4.68.024 2.073.525 2.75 2.032 2.75 1.111 0 2 .667 2 1.5 0 1.698-1.566 2.011-2.5.5-.34-.55-1.041-1-1.559-1-1.335 0-1.172 5.739.187 6.579.747.462.923 2.663.52 6.513-.356 3.412-.203 6.065.372 6.42 1.91 1.181 1.03 2.585-.954 1.523-2.839-1.519-6.066-1.272-6.066.465 0 .825.627 1.5 1.393 1.5 1.518 0 2.607 2.098 2.607 5.023 0 2.647 1.837 3.434 3.822 1.638 1.218-1.102 2.894-1.375 5.937-.966 4.261.571 4.781.158 4.319-3.429-.099-.773.482-.988 1.555-.576 1.345.516 1.565.269 1.023-1.143-1.171-3.052.922-4.489 4.801-3.299 4.897 1.503 5.351 4.517.956 6.353-2.895 1.209-3.347 1.814-2.846 3.809.33 1.315.095 2.681-.527 3.065-.617.381-.86 1.518-.54 2.525.32 1.007.164 2.089-.346 2.405-.509.315-1.176-.382-1.481-1.548-.438-1.675-1.041-1.978-2.864-1.439-1.27.375-2.759.785-3.309.91-.55.126-1.562.58-2.25 1.009-.799.5-1.25.219-1.25-.778 0-.857-.45-1.559-1-1.559-1.976 0-1.021 4.182 1.081 4.731 1.518.397 1.935 1.101 1.541 2.605-.296 1.133-.099 2.589.437 3.235 1.24 1.494.157 4.429-1.635 4.429-.799 0-1.124.619-.786 1.5.394 1.027-.058 1.5-1.433 1.5-2.233 0-5.164 6.18-3.236 6.823.567.189 1.031 1.206 1.031 2.26 0 1.328.7 1.917 2.278 1.917 3.203 0 6.092 3.448 4.203 5.016-.762.632-2.27.868-3.352.525-1.405-.446-2.143-.071-2.581 1.309-.78 2.458-4.117 3.374-5.634 1.547-1.598-1.926-3.129-1.753-2.732.309.386 2.005 4.785 3.387 6.524 2.049 1.552-1.193 3.555.016 2.591 1.564-.404.65-.604 2.193-.445 3.431.16 1.237-.185 2.25-.767 2.25-.582 0-1.719 1.581-2.526 3.514-.808 1.933-2.164 3.781-3.014 4.107-1.7.653-2.053 5.028-.591 7.339.794 1.256 1.199 1.211 2.886-.315 1.214-1.099 2.202-1.386 2.593-.754 1.194 1.932 3.626.088 2.546-1.93-.652-1.219-.643-2.051.027-2.465 1.462-.904 2.938 3.66 1.853 5.731-.498.95-1.795 2.203-2.882 2.785-1.257.673-1.977 2.093-1.977 3.901 0 3.973-1.886 5.267-5.97 4.096-1.823-.523-3.597-.777-3.941-.564-.345.213-.673-1.375-.73-3.529-.071-2.701.323-3.916 1.269-3.916.755 0 1.372-.45 1.372-1s-.45-1-1-1-1-.646-1-1.435-.525-2.702-1.166-4.25c-.642-1.548-1.204-3.115-1.25-3.482-.15-1.193-1.584-2.197-1.584-1.108 0 .582-1.151 1.347-2.557 1.7-1.983.498-2.417 1.083-1.932 2.608.429 1.353.16 1.967-.86 1.967-.817 0-1.647-.488-1.846-1.084-.199-.597-1.781-1.183-3.516-1.303-3.052-.211-3.177-.061-3.816 4.584-.617 4.484-.854 4.803-3.567 4.803-3.074 0-3.455-.583-1.943-2.974.612-.968.529-1.722-.243-2.199-1.392-.86-2.101-12.827-.76-12.827.507 0 1.219.481 1.582 1.068.363.588 1.26.838 1.992.557.865-.332 1.574.588 2.021 2.626.572 2.606.88 2.881 1.817 1.63.62-.827 1.915-1.8 2.878-2.162.962-.361 1.75-1.175 1.75-1.81 0-.831-.419-.806-1.5.091-3.381 2.806-5.921-2.544-2.75-5.793 4.359-4.467 4.515-4.942 2.34-7.117-1.136-1.136-2.722-1.785-3.567-1.46-1.958.751-1.926-.515.115-4.607 1.518-3.043 1.518-3.488 0-6.058-.901-1.525-1.638-3.717-1.638-4.869 0-1.52-.632-2.096-2.3-2.096-1.265 0-2.803-.503-3.418-1.118-.825-.825-1.143 2.041-1.209 10.91-.091 11.997-.971 19.191-3.001 24.523-1.412 3.709-1.422 3.678 1.178 3.728 1.977.037 1.715.512-2.155 3.91l-4.405 3.868.635 8.34c.882 11.597 1.405 13.124 4.25 12.41 3.417-.858 3.905 1.106.705 2.841-1.529.83-2.254 1.526-1.612 1.548.643.022 1.816.288 2.607.592.931.357 1.867-.479 2.648-2.366 1.278-3.086 5.212-5.839 6.875-4.811.544.336 2.724.007 4.846-.732 2.121-.739 4.377-1.162 5.014-.94.637.221 1.452-.071 1.809-.65.358-.579 1.764-1.053 3.123-1.053 1.36 0 2.736-.686 3.058-1.526.473-1.232.872-1.287 2.077-.287 1.214 1.007 1.745.891 2.852-.623.975-1.334 1.723-1.573 2.642-.843 1.751 1.391 8.146 2.46 10.141 1.694 2.029-.778 1.151-2.415-1.297-2.415-2.906 0-4.129-2.19-2.48-4.444.779-1.066 1.417-1.486 1.417-.934 0 .553 1.473 1.583 3.273 2.289 2.912 1.143 3.272 1.71 3.272 5.157 0 2.13-.46 4.047-1.022 4.259-.563.212-.21.261.784.108 1.473-.226 1.751.31 1.5 2.894-.233 2.411-.846 3.248-2.557 3.491-1.446.205-2.25 1.009-2.25 2.25 0 1.061-.45 1.93-1 1.93s-1 .873-1 1.941c0 2.89-1.664 3.377-3.344.978-1.414-2.018-1.525-2.031-2.443-.267-.529 1.017-.6 2.748-.158 3.848.443 1.1.836 2.843.875 3.872.12 3.209-2.635.015-3.371-3.908-.606-3.233-4.559-5.37-4.559-2.464 0 .55-.675 1-1.5 1-1.391 0-1.966-1.734-1.575-4.75.09-.687-.532-1.25-1.381-1.25-1.852 0-2.188 5.619-.373 6.224 2.68.893 1.56 4.676-1.59 5.368-1.694.372-3.78 1.484-4.636 2.471-1.063 1.226-2.014 1.51-3.001.895-1.892-1.181-.026-4.396 2.67-4.602 1.037-.079 2.674-.191 3.636-.25.962-.058 1.75-.796 1.75-1.64 0-1.264-.884-1.418-5-.872-3.439.457-5 .311-5-.465 0-.621-.675-1.129-1.5-1.129s-1.5.675-1.5 1.5-.562 1.529-1.25 1.563c-.687.035-.238.471 1 .968 1.238.498 2.25 1.369 2.25 1.937 0 1.562-3.94 1.235-5.643-.468-1.653-1.653-4.834-2.081-3.87-.521 2.147 3.474-3.703 6.063-13.516 5.98-4.212-.035-4.544.152-4.752 2.67-.124 1.489.41 3.419 1.187 4.289 2.062 2.312 2.941 11.798 1.583 17.082-.636 2.475-1.495 9.261-1.908 15.079-.823 11.58-1.46 13.681-3.609 11.898-1.092-.907-1.409-.295-1.661 3.201-.436 6.056-3.068 5.939-3.987-.178-1.002-6.669-.91-19.934.169-24.5.52-2.2.704-4.788.409-5.75-1.161-3.786-3.15-1.362-5.871 7.154-2.606 8.155-2.751 9.374-1.723 14.493.916 4.562.839 6.555-.421 10.846a3178.29 3178.29 0 0 0-2.642 9.059c-1.385 4.788-9.653 12.36-9.771 8.948-.014-.413-.28-9.483-.59-20.157-.656-22.536-1.292-25.803-3.605-18.505-.856 2.702-1.869 6.712-2.252 8.912-.382 2.2-1.516 5.35-2.521 7-1.004 1.65-2.14 5.7-2.524 9-.725 6.226-3.719 14.5-5.246 14.5-.482 0-2.733 1.59-5.003 3.532-4.305 3.685-8.413 4.048-9.639.851-.643-1.674 3.441-22.715 6.382-32.88 1.19-4.113 1.986-9.677 1.933-13.5l-.091-6.503-1.743 5.5c-.958 3.025-2.524 7.003-3.48 8.839-.956 1.837-2.416 6.93-3.244 11.319-.894 4.742-2.488 9.428-3.928 11.55-1.333 1.964-2.423 3.97-2.423 4.458s-1.422 2.45-3.161 4.361c-3.035 3.335-7.839 4.8-7.839 2.39 0-2.405-2.427-.057-3.761 3.639-2.426 6.722-7.039 26.513-8.321 35.698-1.512 10.83-2.851 12.323-6.338 7.07-1.397-2.103-4.768-6.974-7.493-10.824-2.725-3.85-7.45-10.676-10.501-15.168-5.76-8.482-9.891-12.292-13.171-12.149-1.053.046-2.68-.241-3.615-.637-1.315-.558-2.052.121-3.253 2.997-1.972 4.718-4.954 4.458-14.751-1.286-3.886-2.278-10.402-4.893-15.5-6.221-4.838-1.26-9.471-2.851-10.296-3.537-.825-.685-3.158-1.778-5.185-2.429-2.027-.65-3.827-1.495-4-1.876-.532-1.173-8.126-6.787-11.632-8.6-5.207-2.692-7.492-1.552-2.683 1.337 2.2 1.322 6.925 4.529 10.5 7.126 3.575 2.597 9.2 5.784 12.5 7.083 3.762 1.48 6.358 3.176 6.961 4.548.528 1.204 1.655 2.371 2.505 2.593 1.642.429 6.803 9.147 7.297 12.326.162 1.041.663 2.484 1.114 3.206.786 1.261 1.332 5.91 1.53 13.044.071 2.552.453 3.219 1.593 2.781 1.72-.66 2.164 2.834.491 3.868-1.44.89-4.991-.417-4.991-1.837 0-5.345-22.376-28.226-33.183-33.931-3.919-2.069-7.335-3.553-7.59-3.298-.773.772 2.518 3.56 4.202 3.56.864 0 1.571.822 1.571 1.826s1.105 2.864 2.456 4.132c1.35 1.269 2.38 2.585 2.287 2.925-.092.339.333 1.517.946 2.617.612 1.1 1.428 4.25 1.813 7 .384 2.75 1.329 6.928 2.098 9.285 1.741 5.33 1.74 5.87-.013 6.543-1.88.722-8.587-12.779-8.587-17.285 0-3.805-6.158-10.58-8.722-9.596-2.085.8-6.767-2.844-10.356-8.061-3.589-5.216-9.894-11.748-10.63-11.012-.576.577 2.373 5.731 8.171 14.282 3.676 5.421 3.987 6.423 4.289 13.844.301 7.375-1.135 15.5-2.739 15.5-.678 0-3.013-11.252-3.013-14.521 0-.985-1.103-3.236-2.451-5.003-1.348-1.768-3.623-5.689-5.055-8.715-1.622-3.425-5.046-7.835-9.074-11.687-6.899-6.597-7.056-7.308-2.102-9.535 1.75-.786 4.307-2.083 5.682-2.881 1.375-.798 4.434-2.251 6.797-3.228 2.364-.977 4.614-2.261 5-2.853.387-.592 1.575-1.559 2.641-2.147 1.066-.589 2.785-2.7 3.819-4.693 1.86-3.584 1.944-3.621 8.016-3.535 8.352.118 14.533 1.91 20.884 6.054 5.755 3.754 5.966 3.773 19.843 1.789 27.198-3.889 25.241-2.803 22.097-12.259-1.15-3.458-3.179-11.461-4.51-17.786-3.126-14.856-4.816-21.567-8.056-32a758.278 758.278 0 0 1-5.017-17c-1.307-4.675-3.792-11.875-5.523-16-1.731-4.125-4.423-11.325-5.981-16-1.559-4.675-4.469-13-6.469-18.5-6.747-18.563-8.424-24.452-7.187-25.249.631-.406 7.671-.59 15.646-.41 12.432.281 15.641.018 22.5-1.842 10.266-2.786 15.5-5.045 15.5-6.691 0-.72.477-1.308 1.059-1.308s.781.45.441 1c-.984 1.593 1.918 1.165 6.641-.978 5.128-2.327 7.859-2.555 7.859-.656 0 1.23-12.591 7.634-15.009 7.634-1.469 0-1.201 1.581.509 3 .825.685 1.5 1.895 1.5 2.69 0 1.054.609 1.242 2.25.695 5.082-1.695 10.404-1.943 14.25-.664 6.81 2.263 10.5 4.311 10.5 5.826 0 .799.603 1.453 1.339 1.453 1.4 0 3.661 4.043 3.661 6.547 0 1.645 2.559 1.976 3.5.453 1.01-1.635 3.788-1.192 3.138.5-1.085 2.83 1.925 1.51 3.801-1.666 1.72-2.911 1.731-3.113.136-2.501-.953.366-2.822.392-4.152.058l-2.419-.607 2.482-1.951c2.481-1.952 2.481-1.952.497-4.081-1.09-1.171-1.983-2.761-1.983-3.533 0-.772-.9-2.548-2-3.946-1.1-1.399-2-1.977-2-1.285 0 1.008-.299 1.009-1.512.002-1.101-.913-1.222-1.606-.445-2.542.771-.928.705-1.518-.238-2.117-2.049-1.304-5.371-7.694-3.687-7.091.76.272 2.507-.085 3.882-.794 1.375-.709 3.315-1.546 4.312-1.86 1.669-.526 1.689-.747.25-2.801-.859-1.226-1.562-3.03-1.562-4.008 0-.977-.675-1.777-1.5-1.777-1.543 0-1.888-1.023-1.517-4.5.311-2.926 1.008-3.233 2.551-1.123.855 1.169 2 1.632 3.045 1.231.921-.353 2.252-.163 2.959.423.908.754 1.477.754 1.942.001.362-.585 1.099-.792 1.638-.459.598.37.624 1.056.065 1.766-1.862 2.363-2.049 7.037-.335 8.341 1.528 1.162 1.523 1.259-.067 1.288-.945.018-1.52.595-1.278 1.282.571 1.619-1.35 4.075-4.5 5.754-1.481.789-1.99 1.5-1.25 1.747.686.229 1.247 1.223 1.247 2.21 0 .987.631 2.318 1.403 2.958.771.64 2.594 3.508 4.051 6.373a514.284 514.284 0 0 0 5.087 9.708c2.807 5.181 3.383 11.569.959 10.638-1.972-.757-1.992 2.329-.032 4.921 1.527 2.018 2.068 8.572.812 9.828-.396.396-.594 2.193-.439 3.993.176 2.034-.309 3.764-1.279 4.569-.859.713-1.562 2.366-1.562 3.673 0 1.592-.578 2.383-1.75 2.393-1.468.013-1.513.166-.279.946.809.512 1.142 1.259.74 1.662-.403.402-1.388-.136-2.19-1.196-1.879-2.484-1.885-3.427-.021-3.427.825 0 1.5-.45 1.5-1 0-.939-5.032-1.522-11.25-1.302-1.512.053-2.764-.419-2.782-1.051-.017-.631-.678-.293-1.468.751-1.381 1.824-1.476 1.794-2.444-.75-.553-1.456-1.52-2.648-2.148-2.648-.66 0-.914-.869-.602-2.061.584-2.234-2.37-4.246-3.085-2.101-.22.659-1.067 1.865-1.882 2.68-1.309 1.309-1.241 1.482.59 1.482 2.519 0 2.641.862.359 2.532-2.169 1.585-.205 4.451 3.084 4.5 2.477.037 5.628 2.181 5.628 3.828 0 .627 1.176 1.14 2.613 1.14 2.328 0 2.566.324 2.179 2.961-.311 2.123.01 3.057 1.137 3.3 1.057.229.477.92-1.772 2.113-1.839.975-3.118 1.998-2.843 2.273.964.964 6.923-2.838 7.419-4.733.618-2.362 3.102-2.509 3.975-.234.86 2.242-7.052 9.098-11.458 9.93-1.787.337-3.241.9-3.23 1.251.06 1.88 6.979 18.657 8.36 20.269.891 1.041 1.62 2.408 1.62 3.037 0 1.321 4.165 6.977 7.262 9.862 3.043 2.835 4.641 2.447 6.302-1.529.805-1.925 1.962-3.5 2.572-3.5.752 0 .708-.483-.136-1.5-.685-.825-2.367-1.5-3.739-1.5-2.002 0-2.391-.395-1.971-2 .604-2.31-1.067-2.743-1.928-.5-.317.825-1.388 1.5-2.381 1.5-1.854 0-2.072-1.463-.575-3.862.52-.833.382-1.651-.355-2.107-.805-.497.669-2.346 4.43-5.559 11.228-9.592 15.59-22.718 12.436-37.423-.595-2.777-1.475-5.049-1.955-5.049-1.046 0-2.461-6.834-1.594-7.701.334-.335 1.583 1.599 2.775 4.296 1.192 2.698 2.704 5.355 3.36 5.905 1.526 1.281 7.497 10.35 7.497 11.387 0 .433 1.838 3.354 4.084 6.491 3.315 4.629 4.469 5.581 6.125 5.056 1.242-.395 1.801-.259 1.427.346-.939 1.52 2.102 3.54 4.101 2.725 1.63-.665 1.614-.775-.209-1.453-1.757-.654-1.675-.791.753-1.255 1.935-.37 3.419.122 5.119 1.698 2.143 1.986 2.904 2.122 7.247 1.293 2.669-.51 6.24-.902 7.936-.871 3.587.065 4.338-2.54 1-3.465-1.145-.318-3.166-1.112-4.489-1.765l-2.406-1.187 2.849-.5c1.567-.275 2.777-.95 2.687-1.5-.221-1.362-5.224-1.905-5.224-.566 0 .586-.428 1.066-.952 1.066-1.238 0 1.414-6.321 2.853-6.8.604-.202 1.099.121 1.099.717s.45 1.083 1 1.083 1-.675 1-1.5-.45-1.5-1-1.5-1-.45-1-1 1.125-1 2.5-1 2.5-.42 2.5-.933c0-1.433-4.348-2.522-4.789-1.2-.63 1.889-2.211 1.268-2.211-.867 0-2.031.759-2.361 4.709-2.044 2.544.203 9.291-2.752 9.291-4.07 0-.487-.339-.886-.754-.886-.414 0-.898-5.26-1.075-11.688-.321-11.677-1.482-15.812-4.44-15.812-.686 0-1.452-1.771-1.731-4-.333-2.667-1-4-2-4-.874 0-1.377.731-1.206 1.75.243 1.447-.472 1.75-4.128 1.75-2.71 0-4.903.581-5.666 1.5-.685.825-2.004 1.5-2.931 1.5-.928 0-2.549.631-3.603 1.401-2.496 1.826-4.605-.885-5.118-6.578-.197-2.185-1.27-4.884-2.432-6.117-1.735-1.84-1.978-2.995-1.464-6.956.339-2.613.224-4.75-.257-4.75-1.507 0-2.946 4.408-2.123 6.5 2.849 7.239-.731 5.656-7.072-3.126-8.513-11.791-10.594-13.705-14.131-12.998-4.58.916-7.303-2.106-6.602-7.329.298-2.226.187-4.047-.249-4.047-.743 0-1.071-1.144-2.652-9.25-.349-1.787-1.411-4.375-2.361-5.75-.95-1.375-2.267-4.165-2.928-6.201-.66-2.035-2.297-5.318-3.638-7.294-1.342-1.977-2.439-3.803-2.439-4.058 0-1.53-6.654-9.267-9.414-10.947-1.807-1.1-4.091-2.675-5.074-3.5-.984-.825-5.439-2.67-9.9-4.101-4.526-1.45-8.232-3.219-8.383-4-.344-1.772 8.197-13.674 15.044-20.965C218.711 33.209 234.705 21 236.458 21c.633 0 9.076-3.65 11.831-5.115.984-.523 6.834-1.662 13-2.53 15.259-2.151 37.607 1.024 53.263 7.565 5.37 2.244 10.279 4.08 10.909 4.08 1.544 0 16.412 7.479 19.539 9.83 1.375 1.033 6.325 4.391 11 7.462 5.068 3.33 10.923 8.331 14.5 12.387 11.311 12.823 14.941 16.498 17.719 17.934 2.047 1.059 2.781 2.185 2.781 4.268 0 2.402 12.546 28.51 21.201 44.119 8.391 15.133 21.157 27.745 32.306 31.917 5.838 2.184 15.36 7.806 19.224 11.35l2.231 2.046 6.769-3.063c7.6-3.44 16.835-6.25 20.538-6.25 2.46 0 2.461-.008 3.084-13.25.343-7.287.87-38.9 1.171-70.25.302-31.35.751-60.713.999-65.25l.452-8.25H145.233l-.549 2.101c-.589 2.251-2.684 1.736-2.684-.66C142 .2 132.152 0 71 0H0v414.5m.495.5c0 227.975.115 321.238.255 207.25.14-113.987.14-300.512 0-414.5C.61 93.763.495 187.025.495 415m432.65-388.791c-11.898 4.968-17.093 13.739-17.432 29.433-.24 11.119 1.95 17.111 8.52 23.306 11.687 11.019 34.286 9.043 42.752-3.738 3.7-5.586 3.953-7.783.765-6.628-4.705 1.704-16.072 1.053-18.889-1.082-3.065-2.322-5.873-9.37-5.866-14.719.011-8.544 9.923-18.781 18.183-18.781 7.855 0 4.64-5.409-4.876-8.204-10.511-3.087-14.963-3.007-23.157.413m-75.962 28.583c-.047 3.453.288 3.94 3.733 5.433 2.455 1.063 4.23 2.713 5.051 4.695.696 1.68 1.616 2.838 2.044 2.573.924-.571 1.989 1.887 1.989 4.589 0 1.166-.686 1.912-1.75 1.903-1.185-.011-1.363-.261-.553-.777.749-.475.871-1.289.326-2.17-1.121-1.814-4.176.401-3.387 2.456.326.848-.344 1.469-1.81 1.676-1.776.252-2.337.98-2.372 3.076-.026 1.511-.588 3.288-1.25 3.95-.935.935-1.204.935-1.204.004 0-.66-.45-1.2-1-1.2-1.472 0-1.218 2.979.303 3.563 2.492.956 9.005-2.487 7.694-4.067-.643-.775-.879-1.878-.524-2.452.823-1.332 3.527-1.365 3.527-.044 0 1.591 3.134 1.13 8-1.178 3.362-1.594 4.031-2.245 2.644-2.572-1.021-.241-2.349.055-2.95.656-1.768 1.768-4.553 1.329-4.161-.656 1.452-7.338 1.511-7.459 3.032-6.196.816.677 1.765.95 2.108.606.82-.82-16.494-17.66-18.157-17.66-.806 0-1.3 1.405-1.333 3.792m-80.068 45.396c-1.282 2.053-1.446 2.08-2.649.434-1.396-1.909-5.466-.422-5.466 1.996 0 1.746-3.095 3.918-5.098 3.578-1.344-.227-1.954.564-2.443 3.172-1.154 6.148 1.783 14.632 5.064 14.632.812 0 1.477.675 1.477 1.5s.689 1.5 1.531 1.5c.843 0 1.791.675 2.107 1.5.317.825 1.682 1.5 3.035 1.5 1.352 0 3.32.461 4.372 1.024 3.066 1.641 6.773.063 11.902-5.066 5.177-5.177 5.154-5.065 3.434-16.958-.799-5.523-1.436-6.364-6.778-8.95-5.496-2.661-8.767-2.618-10.488.138m-54.365 17.501c-.963.252-1.75 1.13-1.75 1.952 0 1.039.609 1.3 2 .859 2.325-.738 2.791 1.259.5 2.138-.825.317-1.5 1.192-1.5 1.944 0 1.002-.845 1.199-3.155.737-2.256-.451-2.952-.302-2.441.525.393.636.237 1.156-.345 1.156s-1.059.9-1.059 2c0 2.138.949 2.36 5.875 1.375 1.719-.344 3.125-1.232 3.125-1.975 0-.962.849-1.18 2.952-.76 2.568.514 3.037.251 3.608-2.022.893-3.559-.073-5.618-2.636-5.618-1.49 0-1.963-.455-1.562-1.5.576-1.501-.256-1.688-3.612-.811M394 146.313c0 .928.466 1.687 1.035 1.687.708 0 .702.623-.018 1.968-.869 1.624-1.499 1.799-3.6 1-3.421-1.3-3.327-1.336-4.487 1.717-1.014 2.666.546 4.777 3.573 4.834.552.011 2.695.821 4.761 1.802 2.067.981 4.203 1.508 4.747 1.172 1.392-.86 1.231-3.229-.261-3.831-.747-.301-.545-.536.5-.583.962-.043 1.75.329 1.75.827 0 .499 1.001.645 2.224.325 1.224-.32 1.685-.761 1.026-.981-.886-.295-.813-.987.279-2.655 1.791-2.733 1.098-3.595-2.891-3.595-1.924 0-4.051-.98-5.833-2.687-2.236-2.142-2.805-2.345-2.805-1M291 164.5c0 .825.563 1.507 1.25 1.515.833.011.75.339-.25.985-2.255 1.458-4.013 1.196-3.362-.5.358-.932-.006-1.5-.961-1.5-.846 0-1.692 1.012-1.881 2.25-.212 1.39-.907 2.109-1.82 1.881-4.047-1.013-4.426-.702-4.105 3.369.174 2.2.758 4.538 1.299 5.195 1.321 1.605.597 5.869-.944 5.555-.674-.137-1.226.65-1.226 1.75 0 1.17.667 2 1.607 2 1.018 0 1.396.55 1.031 1.5-.742 1.934 1.588 1.951 5.285.04 1.553-.803 3.105-1.178 3.45-.833.345.344.627-.092.627-.971 0-1.297.56-1.436 2.987-.74 2.934.842 5.313-.461 3.391-1.858-.483-.351-1.011-1.313-1.173-2.138-.163-.825-1.175-2.117-2.25-2.872-2.557-1.795-2.601-6.712-.073-8.065 2.767-1.481 3.297-3.831 1.371-6.08-2.008-2.345-4.253-2.6-4.253-.483m-5.814 76.555c-1.273.51-2.034 1.382-1.691 1.937.343.554.124 1.008-.486 1.008-.745 0-.8.551-.168 1.681.662 1.183.479 2.142-.62 3.241-1.156 1.156-1.667 1.239-1.974.319-.519-1.558-2.952-1.627-3.461-.098-.283.848-.965.831-2.635-.062-1.24-.664-3.243-1.015-4.453-.78-2.161.42-2.163.429-.07.563 2.668.171 5.499 3.136 2.994 3.136-2.144 0-2.053 1.3.235 3.37 1.657 1.5 1.992 1.517 3.122.155.696-.839 1.886-1.525 2.643-1.525.758 0 1.378-.45 1.378-1s.665-1 1.477-1 2.183-1.078 3.047-2.396c.863-1.317 2.561-2.677 3.773-3.021l2.203-.626-2.281-1.28c-2.598-1.458-1.965-2.677 1.389-2.677 1.251 0 2.552-.45 2.892-1 .772-1.249-4.155-1.212-7.314.055m196.628 118.003c-.259.777-2.462 1.241-5.949 1.253l-5.538.019-1.114 4.165c-1.58 5.906-.698 7.923 4.76 10.894 5.642 3.071 9.034 3.395 9.012.861-.012-1.315-.222-1.424-.846-.44-.972 1.532-3.634-1.949-4.682-6.124-.677-2.7 1.552-4.686 5.26-4.686 1.34 0 1.819-.696 1.738-2.528-.128-2.942-1.995-5.353-2.641-3.414M58 372.778c0 .428.885 1.535 1.966 2.461 1.718 1.471 1.889 2.51 1.353 8.247-.546 5.847-.431 6.494 1.047 5.927 2.241-.86 5.267 1.563 3.431 2.749-1.045.675-1.018 1.017.139 1.762 1.152.741 1.191 1.218.198 2.414-.68.82-1.101 2.744-.935 4.275.272 2.514-.019 2.803-3.001 2.971-3.749.212-3.739.206-4.543 2.916-.358 1.205.166 2.993 1.318 4.5l1.913 2.5 2.161-2.32 2.161-2.32 2.288 3.32c1.259 1.826 2.049 3.716 1.757 4.2-.292.484.081.675.83.426.749-.25 1.667-1.546 2.04-2.88.373-1.334.722-2 .777-1.48.15 1.419 5.256-6.959 9.607-15.763 4.309-8.718 4.753-9.198 7.235-7.804 1.672.938 1.673 1.019.008 1.661-3.045 1.173-1.907 3.297 2.907 5.426 4.174 1.847 4.83 1.903 6.329.547.919-.832 2.649-1.513 3.843-1.513 3.983 0 2.227-1.469-5.885-4.923-4.421-1.883-8.355-3.941-8.741-4.573-.387-.632-4.528-2.985-9.203-5.229-16.256-7.8-21-9.494-21-7.497m88.586 44.083c-1.114 1.803.529 3.642 7.719 8.639 9.533 6.625 17.403 11.186 21.695 12.572 1.925.622 6.425 2.375 10 3.895 3.575 1.521 9.2 3.699 12.5 4.84 5.339 1.847 15.43 5.771 21 8.168 6.168 2.653 8.825 3.041 10.494 1.531 1.812-1.64 4.006-2.005 4.006-.667 0 1.03 4.506 3.161 6.682 3.161.874 0 2.631 1.125 3.906 2.5 1.274 1.375 3.177 2.5 4.229 2.5s3.151.974 4.664 2.164c3.992 3.14 23.321 12.836 25.589 12.836 1.062 0 1.93.45 1.93 1s.45 1 1 1 1-1.35 1-3c0-3.13-.854-3.746-2.673-1.927-.765.765-1.255.35-1.704-1.44-.72-2.868-23.606-15.121-33.623-18.001-3.025-.87-7.75-2.699-10.5-4.066-2.75-1.366-6.463-3.062-8.25-3.769-1.787-.707-3.25-1.523-3.25-1.814 0-.593-1.55-1.386-18.379-9.411-6.534-3.115-15.309-6.5-19.5-7.521-8.34-2.032-17.097-5.813-21.336-9.212-1.949-1.563-4.27-2.231-8.23-2.369-3.034-.106-6.16-.727-6.947-1.38-.871-.724-1.661-.813-2.022-.229M76 464.083c0 2.031.427 2.936 1.25 2.652.688-.237 2.03.738 2.984 2.167.954 1.429 2.191 2.654 2.75 2.723l2.016.25c.55.069 1 .964 1 1.99s.9 3.009 2 4.408c1.1 1.398 2 3.034 2 3.635 0 .6.461 1.092 1.025 1.092.563 0 1.452 1.125 1.975 2.5.523 1.375 1.548 2.5 2.279 2.5 1.693 0 11.526 4.876 12.275 6.087.592.959 4.446 1.294 4.446.387 0-.906-7.392-10.474-8.092-10.474-.366 0-1.215-1.328-1.888-2.951-1.139-2.75-3.768-5.09-8.475-7.544-1.075-.56-2.805-2.591-3.845-4.512-2.631-4.864-7.595-8.78-8.754-6.906-.687 1.112-1.116 1.143-2.104.155-1.999-1.999-2.842-1.453-2.842 1.841m44 50.555c-6.856 3.048-22.69 9.591-35 14.464-6.875 2.722-14.75 5.897-17.5 7.056-2.75 1.159-9.612 3.687-15.25 5.617-5.638 1.93-10.25 3.915-10.25 4.412 0 .497 3.557 11.796 7.905 25.109A16173.307 16173.307 0 0 1 65.549 619.5c6.457 20.024 24.618 75.332 32.604 99.294 2.172 6.516 2.163 7.657-.17 21.466-.629 3.719-.964 7.297-.746 7.952.219.656-.272 1.975-1.092 2.931-2.173 2.538-5.281 13.155-4.07 13.903.546.338.691 1.399.323 2.359-.454 1.184-.224 1.665.716 1.495.762-.138 3.363.313 5.779 1.002 3.198.912 4.581.95 5.081.14 1.318-2.132 7.896-2.47 10.055-.516 1.091.987 2.314 1.464 2.719 1.06.404-.405-.086-1.196-1.091-1.758-3.053-1.708 1.235-3.974 6.546-3.46 6.886.668 12.068 1.841 11.091 2.512-.497.341-.092 1.408.901 2.37 1.721 1.669 1.805 1.66 1.805-.191 0-1.068.362-2.165.805-2.439 1.649-1.019 8.443 1.288 9.894 3.36 1.43 2.042 1.597 2.063 3.408.423 1.048-.948 2.055-1.539 2.237-1.314 1.844 2.282 7.048 10.526 6.888 10.911-.114.275.042 1.288.347 2.25.978 3.082 3.303 1.877 4.575-2.371.996-3.323 1.377-3.759 1.97-2.25.695 1.768.74 1.761.821-.129.164-3.833 1.787-5.249 3.434-2.997 1.994 2.727 2.414 1.975 3.204-5.733.96-9.376-.331-13.156-12.046-35.27-6.805-12.844-13.187-28.934-14.479-36.5-.61-3.575-1.54-8.525-2.067-11-1.652-7.761-2.289-22.335-2.593-59.281-.4-48.491-3.382-69.081-16.171-111.637-.935-3.11-1.949-3.345-6.227-1.444m98.706 42.13c2.55 26.462 4.875 40.05 11.761 68.732 1.848 7.7 3.633 15.237 3.966 16.75.333 1.513 1.077 2.75 1.653 2.75.577 0 .819-.788.538-1.75-5.191-17.786-11.769-50.335-13.591-67.25-1.429-13.261-3.071-22.905-3.998-23.478-.432-.267-.58 1.644-.329 4.246m161.296 60.409c-2.475 1.712-9.225 6.596-15 10.852-5.776 4.256-14.242 9.579-18.814 11.83-4.571 2.251-9.521 4.945-11 5.986-11.329 7.98-59.221 23.279-79.688 25.456l-12 1.276.272 2.962c.248 2.711 3.47 14.087 6.786 23.961 3.179 9.468 6.56 17.702 11.498 28 17.946 37.426 33.28 56.439 56.656 70.25 6.146 3.631 6.288 3.68 6.288 2.179 0-1.695-2.386-3.634-3.864-3.141-.951.317-1.16-.138-.711-1.551.417-1.314.11-2.202-.895-2.587-.842-.323-1.53-1.141-1.53-1.819 0-.957.267-.964 1.2-.031.66.66 1.56 1.2 2 1.2 1.662 0 .693-2.172-2.256-5.055-3.002-2.935-3.024-3.027-1.25-5.283.993-1.263 2.245-2.345 2.781-2.404 1.328-.147 1.951-2.258.667-2.258-.563 0-1.307.457-1.652 1.016-1.095 1.772-2.521-.043-1.919-2.441.442-1.761.089-2.431-1.497-2.845-4.039-1.057-2.517-3.902 1.676-3.132 2.063.379 3.866.973 4.009 1.321.142.348 3.742.339 8-.02 4.257-.359 8.529-.242 9.491.26 1.925 1.003 5.306-.327 5.981-2.353.666-1.998 16.51-1.759 20.767.314 1.926.938 3.952 1.337 4.502.887 1.338-1.094 13.5-1.042 13.5.058 0 .475.956 1.376 2.125 2.002 2.496 1.336 7.261-.618 6.479-2.657-.256-.668-.212-1.468.098-1.778.686-.686 4.298 3.747 4.298 5.276 0 1.617 1.697 1.324 2.362-.408.316-.825 1.28-1.5 2.142-1.5.861 0 2.7-.743 4.085-1.651 2.411-1.579 2.544-1.558 3.082.5.643 2.458 2.047 2.681 4.616.732 1.17-.887 3.656-1.222 7.201-.97 4.374.311 5.603.05 6.396-1.363.934-1.664 1.014-1.664 1.656.002.371.962 1.447 1.75 2.393 1.75 4.33 0 9.565-10.291 12.748-25.061 2.507-11.632 2.572-43.025.104-50.439-3.463-10.403-7.536-19.036-9.437-20-3.728-1.891-17.807-19.607-34.103-42.912-13.792-19.725-13.188-19.295-20.243-14.411" fill="#d3d3d3" fill-rule="evenodd"/></svg>