<svg xmlns="http://www.w3.org/2000/svg" width="500" height="811"><path d="M0 405.502v405.502l250.25-.252 250.25-.252.251-405.255.251-405.255-175.614.016C176.641.019 149.947.231 150.912 1.394c.87 1.048.801 1.502-.29 1.921-1.993.765-5.963-.368-6.922-1.974-1.072-1.797-3.624-1.703-4.338.159-.317.825-1.004 1.5-1.528 1.5s-.706-.399-.404-.886c1.159-1.877-5.929-2.087-70.68-2.1L0 0v405.502m.495.498c0 223.025.115 314.263.255 202.75.14-111.512.14-293.987 0-405.5C.61 91.738.495 182.975.495 406M234.576 25.518c-2.628 1.99-7.968 2.873-10.221 1.692-1.214-.637-2.719-.623-4.355.042-1.375.559-3.85 1.11-5.5 1.225-6.143.428-6.604.545-6 1.523.34.55-.034 1-.83 1-.796 0-1.385.779-1.309 1.731.091 1.131-.633 1.777-2.085 1.862-1.223.072-1.98-.263-1.683-.744.692-1.12-13.205-.021-16.776 1.326-1.673.631-2.481 1.536-2.148 2.405.702 1.829-4.667 4.041-5.711 2.352-.49-.793-.91-.818-1.365-.082-.361.584-1.258.832-1.994.55-.775-.298-1.562.351-1.874 1.543-.61 2.334.243 2.644 2.222.807 1.1-1.02 1.234-.929.732.5-.339.962-.218 1.75.269 1.75s1.037-.454 1.222-1.009c.184-.554 2.809-1.274 5.833-1.6 3.023-.325 5.722-.884 5.997-1.241.275-.358 1.973-.635 3.774-.616 2.1.021 3.113-.386 2.825-1.137-.284-.739.353-1.02 1.726-.763 1.964.368 1.987.325.241-.441-1.389-.609-1.588-1.062-.706-1.607.675-.417 1.883-.214 2.684.45.995.826 1.852.889 2.706.2.688-.556 3.275-1.322 5.75-1.703 7.739-1.193 12.089-2.58 11.432-3.643-.409-.662.624-.782 2.959-.344 2.755.516 3.726.313 4.184-.88.473-1.233 1.135-1.347 3.222-.553 1.752.666 3.305.664 4.665-.006 1.121-.552 2.878-1.14 3.904-1.305 1.822-.295 1.822-.355 0-2.521-1.677-1.994-2.061-2.072-3.79-.763m63.879 14.715c-.441 1.797-.773 3.83-.739 4.517.034.688-.305 1.25-.752 1.25-.448 0-.686 1.8-.53 4 .157 2.2-.101 4-.574 4s-.899-.562-.946-1.25c-.31-4.509-1.888 6.151-1.788 12.075.073 4.26-.346 7.795-1.001 8.45-.619.619-1.125 2.176-1.125 3.46 0 1.285-.681 3.374-1.513 4.644-1.121 1.712-1.396 4.157-1.063 9.465.247 3.936.126 7.156-.27 7.156-.395 0-.809 2.813-.919 6.25-.11 3.438-.626 7.713-1.147 9.5-.581 1.991-.588 3.25-.018 3.25.511 0 .93.702.93 1.559s-.45 1.281-1 .941c-.931-.575-1.504 3.075-1.256 8 .056 1.1-.707 7.175-1.695 13.5-.987 6.325-1.639 13.276-1.449 15.446.191 2.17-.35 5.995-1.2 8.5-.851 2.505-1.583 5.808-1.627 7.34-.044 1.532-.418 2.995-.832 3.251-.414.256-.5 1.435-.19 2.62.371 1.417.188 1.923-.533 1.478-.752-.465-1.063 1.137-.988 5.093.16 8.431-.472 17.272-1.234 17.272-.365 0-.688.563-.719 1.25-.267 5.93-1.735 15.49-2.534 16.5-.667.844-.624 1.25.135 1.25 1.587 0 1.398 2.68-.234 3.306-1.018.391-1.308 2.68-1.163 9.199.142 6.407-.183 9.054-1.241 10.112-.789.789-1.196 2.054-.906 2.811.291.758-.065 2.19-.791 3.183-.726.993-1.097 2.387-.825 3.097.273.711-.002 1.292-.611 1.292-.702 0-1.101 2.473-1.092 6.75.009 3.712.372 6.188.808 5.502 1.293-2.036 9.639-2.605 11.169-.762.749.903 2.068 1.308 3.143.967 1.389-.441 1.702-.196 1.252.978-.392 1.02-.041 1.565 1.006 1.565.884 0 1.611.337 1.615.75.019 1.822 4.901 3.038 6.704 1.67 1.619-1.228 1.629-1.359.109-1.388-1.813-.035-4.821-2.594-4.821-4.103 0-.511 1.575-.929 3.5-.929s3.5.357 3.5.794c0 .868 11.685 3.261 16.5 3.379 1.65.04 3.225.423 3.5.85.484.751 4.663 1.3 8.25 1.083.962-.058 1.75-.767 1.75-1.575 0-1.611 2.945-.988 4.235.896.429.626.754.241.781-.927.047-1.973.067-1.974 1.516-.059 1.117 1.477 1.468 1.581 1.468.433 0-2.791 43.354-1.357 45.25 1.497.478.72.974.314 1.367-1.121.339-1.238 1.271-2.25 2.072-2.25 1.136 0 1.022-.552-.522-2.515-1.845-2.345-1.884-2.868-.584-7.75.766-2.879 1.399-8.578 1.405-12.664.007-4.086.427-8.811.933-10.5 1.221-4.07 4.085-33.383 3.574-36.571-.221-1.375-.942-6.306-1.603-10.958-.785-5.529-1.84-9.143-3.047-10.438-1.015-1.09-1.845-3.176-1.845-4.636s-.9-5.271-2-8.468-2-6.491-2-7.319c0-2.261-15.605-33.841-17.984-36.394-1.136-1.219-1.843-2.795-1.572-3.502.271-.707.156-1.285-.257-1.285-.413 0-1.325-1.945-2.027-4.323-.702-2.377-2.375-5.508-3.718-6.956-1.343-1.449-2.442-3.259-2.442-4.024 0-1.811-3.51-5.854-4.352-5.012-.356.357-.648-.327-.648-1.518 0-1.192-.45-2.167-1-2.167s-1-.9-1-2-.444-2-.987-2c-.542 0-1.597-1.463-2.345-3.25-.747-1.788-2.103-3.868-3.013-4.622-.91-.755-1.655-1.955-1.655-2.667 0-.712-.337-1.444-.75-1.628-1.067-.474-5.25-6.574-5.25-7.656 0-.497-1.025-1.978-2.277-3.291-2.297-2.407-6.125-7.382-10.723-13.935-1.375-1.96-4.805-5.683-7.622-8.274l-5.121-4.711-.802 3.267m-36.833 22.925c-.291 2.388-.521 5.017-.511 5.842.01.825-.44 4.425-.999 8-.559 3.575-1.279 9.936-1.6 14.135-.32 4.199-.806 8.699-1.079 10-.698 3.329-2.451 20.116-2.909 27.865-.211 3.575-.172 5.375.087 4 .26-1.375.963-3.482 1.563-4.683.601-1.2.832-2.858.515-3.685-.317-.827-.132-1.651.411-1.832.543-.181 1.014-2.348 1.048-4.815.033-2.467.46-6.735.948-9.485 1.068-6.011 3.013-21.303 3.022-23.75.004-.963.333-1.75.733-1.75 1.657 0 1.378-22.104-.3-23.783-.221-.22-.639 1.553-.929 3.941m-28.325-.384c-1.211.194-2.479 1.224-2.817 2.289-.419 1.319-1.524 1.937-3.464 1.937-1.567 0-3.004.465-3.193 1.032-.19.568-3.04 1.712-6.334 2.543-5.797 1.461-12.453 4.221-13.499 5.596-.281.369-1.747.981-3.259 1.36-1.513.38-3.009 1.11-3.326 1.623-.317.513-4.7 2.966-9.741 5.452-11.204 5.525-13.459 6.802-21.485 12.168-3.476 2.324-7.215 4.226-8.309 4.226-1.093 0-1.715.441-1.382.981.338.546-1.152 1.261-3.365 1.615-2.835.454-3.818 1.035-3.436 2.031.37.965.035 1.203-1.087.773-1.197-.459-1.46-.2-1.004.989.429 1.119.06 1.611-1.207 1.611-1.004 0-2.74 1.055-3.857 2.343-1.118 1.289-2.548 2.527-3.179 2.75-.997.354-6.377 5.002-17.541 15.157-1.663 1.512-3.361 2.75-3.774 2.75-.935 0-8.869 10.534-10.301 13.679-.582 1.276-1.447 2.321-1.922 2.321-.476 0-1.309 1.169-1.852 2.597-.543 1.428-1.882 2.83-2.975 3.116-1.093.286-1.988 1.143-1.988 1.904 0 .76-.413 1.383-.917 1.383-.505 0-1.678 1.992-2.608 4.428-.93 2.435-2.523 5.32-3.54 6.411-1.016 1.091-2.989 5.511-4.384 9.823-2.443 7.548-2.515 8.503-1.972 25.838.815 25.987 1.834 36.42 3.675 37.623.525.343 1.192 3.449 1.483 6.902.487 5.778.379 6.241-1.354 5.817-1.036-.253-2.67.354-3.633 1.349-1.678 1.734-1.604 1.809 1.785 1.809 4.272 0 8.465 2.533 8.465 5.115 0 1.956 1.582 2.62 2.167.911.75-2.194 4.635.226 5.319 3.313.386 1.738.913 2.624 1.172 1.967a1.296 1.296 0 0 1 1.657-.739c.798.306 1.252-1.137 1.39-4.421.113-2.682.338-5.274.5-5.761.162-.487.027-.885-.301-.885s-1.27-.559-2.092-1.241c-1.669-1.385-2.927-.722-2.204 1.161.258.673-.621 1.72-1.953 2.327-3.965 1.807-6.36-.589-6.129-6.13.123-2.966-.445-5.464-1.663-7.311-1.017-1.543-1.853-4.508-1.856-6.587-.005-2.434-.541-3.987-1.507-4.357-2.02-.775-1.932-4.362.107-4.362.933 0 1.391.563 1.093 1.341-.283.737-.113 1.975.377 2.75.721 1.138.895 1.072.908-.341.008-.963.45-1.75.982-1.75.541 0 .809 2.202.61 5-.266 3.722-.01 5 1.001 5 .797 0 1.121.62.784 1.5-.673 1.752 1.185 2.042 2.232.349.497-.806 1.091-.632 1.977.579 1.02 1.395 1.669 1.514 3.347.616 1.239-.663 2.082-.723 2.082-.147 0 .531 1.181.841 2.625.687 2.865-.306 4.635-2.566 4.171-5.327-.285-1.69.085-1.815 3.954-1.344 1.376.168 1.244.416-.614 1.16-1.955.783-2.15 1.205-1.128 2.437 1.009 1.216.938 1.49-.386 1.49-.892 0-1.622.45-1.622 1s.675 1 1.5 1 1.5.45 1.5 1-.48 1-1.067 1c-.612 0-.797.852-.435 1.994.514 1.618.291 1.865-1.183 1.312-1.652-.619-1.681-.514-.315 1.18 1.388 1.722 1.332 1.817-.75 1.281-1.95-.503-2.25-.193-2.25 2.327 0 3.054 1.692 3.814 3.8 1.706.933-.933 1.2-.41 1.2 2.356 0 3.368.173 3.551 3.25 3.45 3.271-.107 6.186-1.836 5.036-2.987-.341-.34.018-.626.797-.634 1.112-.012 1.141-.191.136-.829-.915-.58-1.015-1.505-.35-3.234.832-2.165 1.008-2.23 1.66-.615.401.995 1.28 1.597 1.953 1.338 1.35-.518 4.703 2.837 3.769 3.77-.321.322-1.334.585-2.251.585-2.829 0-1.933 2.993.917 3.063 2.541.063 2.546.078.332.969-1.238.497-2.926.646-3.75.329-.825-.316-1.492-.189-1.484.282.06 3.324 5.971 5.887 6 2.601.013-1.481.158-1.519.959-.252.543.859.569 1.865.063 2.371-.485.485-.643 1.501-.352 2.259.293.764-.091 1.378-.864 1.378-.766 0-1.392.9-1.392 2s.578 2 1.285 2 1.286.675 1.286 1.5.702 1.5 1.559 1.5 1.281.45.941 1c-.34.55.357 1 1.548 1 1.654 0 2.006-.413 1.488-1.75-2.755-7.112-.568-16.57 2.822-12.205.628.809 2.204 1.317 3.503 1.129 1.627-.236 2.132.028 1.625.849-.514.832-.138 1.001 1.248.562 1.168-.371 2.46-.056 3.144.767 1.264 1.524 6.122 1.939 6.122.523 0-.481.675-.875 1.5-.875s1.5-.675 1.5-1.5.499-1.5 1.108-1.5c.683 0 .868.96.481 2.5-.361 1.442-.196 2.5.392 2.5.56 0 1.026-1.012 1.034-2.25.012-1.67.241-1.895.889-.872.48.758 1.342 1.088 1.915.734.574-.355 1.325-.187 1.671.372.345.559.119 1.016-.502 1.016-.622 0-1.806.675-2.631 1.5-.825.825-2.48 1.507-3.678 1.515-1.199.009-1.729.346-1.179.75s1.671 1.587 2.492 2.629c1.374 1.744 1.33 1.843-.552 1.246-1.197-.38-2.852-.032-3.992.839-1.906 1.456-1.897 1.502.387 2.143 1.804.507 2.031.873 1 1.611-1.006.72-.91.819.386.404.947-.304 2.376.103 3.176.903 1.642 1.642 4.163 1.049 5.019-1.181.313-.817.963-1.243 1.443-.946 1.354.836 3.646-2.456 5.161-7.413 1.834-5.998 3.774-8.903 7.437-11.137 3.237-1.974 1.829-2.622-1.65-.76-1.548.829-2.251.797-2.822-.128-.419-.677-1.269-.917-1.89-.534-.62.383-.869 1.116-.552 1.628.316.512-.239.934-1.234.937-.995.004-3.083.671-4.641 1.483-2.464 1.286-3.191 1.292-5.592.05-2.454-1.269-2.955-1.239-4.525.267-1.672 1.604-1.728 1.561-1.057-.806.389-1.375 1.424-3.062 2.298-3.75 1.4-1.101 1.322-1.25-.66-1.25-1.304 0-1.98-.438-1.607-1.041.354-.572 1.468-.779 2.475-.459 1.007.32 2.121.113 2.475-.459.354-.573-.085-1.041-.975-1.041s-1.366-.408-1.058-.906c.308-.498 1.46-.671 2.559-.383 1.879.491 2.15.157 2.399-2.961.055-.687.742-1.752 1.526-2.365 1.129-.883.775-1.092-1.697-1-1.975.073-3.745.942-4.816 2.365-.931 1.238-2.336 2.25-3.123 2.25-2.234 0-1.119-4.356 1.398-5.461 1.204-.528 2.411-1.811 2.683-2.85.272-1.04.978-1.591 1.569-1.226.592.366 1.779-.039 2.639-.899 1.611-1.611 1.235-1.931-1.885-1.607-1.594.166-1.538-.121.48-2.443 1.258-1.446 2.446-2.154 2.64-1.572.589 1.766 2.624 1.188 4.092-1.163l1.387-2.22.863 2.334c.635 1.717 1.407 2.193 2.915 1.799 1.368-.358 2.225.02 2.572 1.136 1.681 5.405 2.353 6.273 4.1 5.296 1.904-1.066 2.346-4.192.757-5.359-.619-.455-.524-.74.25-.75.688-.008 1.25-.492 1.25-1.074 0-.582-.384-.822-.854-.531-.751.464-3.666-4.367-2.933-4.863 5.264-3.564 7.697-5.494 9.505-7.539 2.304-2.604 2.986-6.455 1.326-7.481-.526-.325-.67-1.338-.32-2.251.484-1.26.936-.831 1.88 1.782 1.097 3.036 1.251 3.147 1.305.942.033-1.375-.337-3.127-.822-3.894-.998-1.576.539-6.865 2.596-8.927.724-.727 1.317-1.815 1.317-2.417 0-.602-.296-.799-.658-.437-1.58 1.58-2.818-1.512-2.496-6.234.328-4.811.475-5.049 2.761-4.475 2.023.508 2.319.304 1.823-1.255-.561-1.761-.515-1.766.853-.105 1.694 2.056 2.109 17.744.469 17.744-.578 0-.503.595.179 1.417.647.779 1.271 2.657 1.388 4.172.231 3.004 2.681 4.674 2.681 1.828 0-.963.297-1.453.661-1.09.363.364 1.174-.349 1.801-1.583.926-1.82.848-2.372-.41-2.924-1.342-.587-1.324-.689.131-.75 3.249-.135 3.502-6.07.258-6.07-1.754 0-1.856-1.185-.241-2.8.66-.66.758-1.2.218-1.2s-1.079-1.173-1.197-2.606c-.16-1.927.166-2.46 1.249-2.044.806.31 1.762.084 2.123-.5.889-1.439 2.372.979 2.392 3.9.008 1.238.515 2.25 1.126 2.25 1.533 0 .197 6.718-1.983 9.966-4.18 6.23-6.349 13.322-5.089 16.637 1.422 3.74 1.212 5.707-.539 5.035-.825-.316-1.5-.139-1.5.393 0 .533.45.969 1 .969s1 .498 1 1.107-.692.841-1.538.517c-1.844-.708-2.969 1.659-1.962 4.126.656 1.606.782 1.586 1.537-.25.794-1.932.825-1.926.893.167.038 1.191-.492 2.393-1.18 2.671-.913.368-.875.525.14.583.764.043 2.031-.708 2.815-1.671 1.289-1.581 1.365-1.461.789 1.25-.35 1.65-.77 3.9-.934 5-.164 1.1-.807 3.267-1.429 4.815-1.361 3.387-1.503 9.033-.207 8.232.509-.314 1.089.222 1.29 1.191.201.969.96-1.838 1.685-6.238.726-4.4 2.365-12.5 3.643-18 5.044-21.715 6.5-29.545 7.996-43 .857-7.7 2.178-17.15 2.936-21 .759-3.85 2.091-13.975 2.96-22.5.869-8.525 2.252-20.45 3.073-26.5.821-6.05 1.941-14.6 2.489-19 1.256-10.086 1.969-14.621 2.579-16.403.264-.771.732-5.946 1.041-11.5.309-5.553.959-11.647 1.446-13.541 1.012-3.943 1.119-3.745-1.765-3.282m18.276 93.476c-2.71 9.309-3.557 13.403-4.07 19.68-.334 4.087-.805 7.75-1.047 8.141-.242.391-.617 2.448-.835 4.57-.217 2.122-.722 5.552-1.122 7.621-.628 3.253-.502 3.676.931 3.127.911-.35 1.43-.863 1.153-1.139-.277-.277.126-1.72.895-3.207.769-1.487 1.381-4.467 1.36-6.623-.021-2.156.204-5.045.5-6.42.296-1.375.679-4.075.85-6 .172-1.925.637-3.744 1.034-4.041.397-.298.893-4.236 1.102-8.75.356-7.667.112-9.923-.751-6.959m-48.201 114.537c-1.229.777-2.544 7.255-2.833 13.952-.1 2.331-.492 4.548-.871 4.926-.378.378-.396 3.533-.04 7.011.628 6.123.575 6.324-1.657 6.324-1.267 0-2.02.284-1.673.631.347.348.182 1.473-.368 2.5-.626 1.17-.641 1.869-.039 1.869.53 0 1.168-.788 1.42-1.75.36-1.38.481-1.297.573.393.064 1.179-.487 2.374-1.224 2.657-.869.334-1.182 1.599-.889 3.595.686 4.675-.541 8.067-3.299 9.116-1.984.754-2.472 1.635-2.472 4.464 0 5.062.043 4.931-2 6.025-1.028.55-1.959 1.45-2.069 2-.553 2.763-13.931 5.175-13.931 2.512 0-.48-1.012-1.068-2.25-1.306-1.929-.372-1.858-.453.5-.57 1.599-.079 2.756.387 2.765 1.114.011.865.242.911.75.15.404-.605 1.41-1.357 2.235-1.671.912-.347.488-.602-1.083-.65-3.546-.108-4.223-1.083-2.259-3.254.915-1.01 1.405-2.095 1.089-2.411-.708-.708-5.747 2.497-5.747 3.656 0 .462-1.571 1.134-3.491 1.494-1.92.361-3.242 1.059-2.936 1.553.664 1.076-1.943 3.883-3.607 3.883-.648 0-2.514-1.125-4.148-2.5s-2.626-2.5-2.204-2.5c.423 0-.105-.661-1.173-1.468-1.303-.986-1.489-1.479-.566-1.5.991-.023 1.208-.869.775-3.032-.479-2.393-.251-3.013 1.125-3.063 1.234-.046 1.05-.334-.645-1.012l-2.369-.949 2.527-1.988c1.39-1.093 3.244-1.988 4.12-1.988.875 0 1.592-.402 1.592-.893 0-1.363-2.851-2.157-3.569-.995-.348.563-1.208.804-1.91.534-.703-.269-1.782.015-2.399.632-.829.829-1.122.678-1.122-.578 0-.935-.45-1.7-1-1.7s-1 .477-1 1.059-.45.781-1 .441c-1.277-.789-1.289 1.092-.021 3.461.711 1.329.574 2.165-.5 3.056-.813.676-1.486.835-1.494.355-.009-.479-.398-.268-.866.47-.62.978-.986.633-1.351-1.274-.275-1.439-.11-2.857.366-3.151 1.526-.943.926-2.549-.884-2.365-3.455.352-4.316-.093-5.428-2.802-2.056-5.012-2.033-6.452.09-5.778 2.317.735 3.875-1.233 1.651-2.086-2.578-.989-1.786-2.659.937-1.975 1.442.361 2.5.196 2.5-.392 0-1.029-1.253-1.377-4-1.11-1.174.114-1.116-.159.267-1.255 1.047-.828 1.513-2.064 1.143-3.027-.995-2.594-4.948-1.925-7.49 1.268-1.267 1.592-2.893 2.669-3.612 2.393-2.039-.782-1.562-2.203 1.642-4.9 1.739-1.463 2.722-3.079 2.394-3.935-.705-1.836 1.077-1.889 2.881-.085.753.753 2.472 1.712 3.822 2.133 2.432.758 2.437.747.569-1.345-1.036-1.16-2.273-1.868-2.75-1.573-.476.294-.866.107-.866-.417 0-1.213 2.892-2.351 4.09-1.61.501.309.91-.143.91-1.005 0-1.176.747-.901 3 1.107 1.65 1.47 3 3.468 3 4.44 0 2.128 5.686 2.359 7.73.315 2.137-2.137 1.623-5.739-.73-5.123-1.1.287-2.056.115-2.125-.384A22.188 22.188 0 0 0 149.5 289a23.053 23.053 0 0 1-.375-1.869c-.155-1.079-6.013-.469-7.522.784-.69.572-2.015.435-3.508-.364-1.32-.706-3.233-1.066-4.252-.8-2.732.715-5.083-1.658-4.388-4.427.642-2.558-1.156-3.266-2.093-.824-.862 2.246-2.676 1.809-2.072-.5.287-1.1.115-2-.384-2-.498 0-.906.626-.906 1.392 0 1.849-4.821 3.001-6.552 1.565-.748-.621-1.835-.836-2.414-.478-.675.417-.96-.542-.794-2.664.231-2.949-.043-3.35-2.49-3.631-1.813-.209-2.75.149-2.75 1.05 0 1.892 2.336 6.749 3.25 6.758.412.004.747 1.02.743 2.258-.006 2.084-.153 2.028-1.993-.75-1.178-1.778-1.99-2.369-1.993-1.45-.004.853.533 2.09 1.193 2.75.66.66.862 1.2.448 1.2-.413 0 .397 1.064 1.8 2.365 1.404 1.3 2.552 2.875 2.552 3.5 0 .624.787 1.142 1.75 1.15 1.496.013 1.532.157.25.985-1.244.804-1.159.975.5 1 1.659.025 1.744.196.5 1-.825.533-1.02.976-.434.985.586.008 2.051 1.768 3.255 3.91 1.204 2.142 2.862 4.153 3.684 4.469.822.315 1.495 1.184 1.495 1.931 0 .746 1.561 2.659 3.469 4.25 1.908 1.591 3.988 4.144 4.622 5.674.633 1.529 1.558 2.781 2.055 2.781.497 0 1.336 1.137 1.864 2.526.528 1.39 1.426 3.078 1.994 3.75 4.152 4.917 5.358 6.552 6.617 8.974 1.26 2.423 1.249 2.75-.095 2.75-.839 0-1.526.446-1.526.992 0 .545 1.46.831 3.244.636 3.422-.375 7.756 1.762 7.756 3.824 0 .672 1.712 3.023 3.805 5.223 2.093 2.2 5.131 6.097 6.75 8.661 1.62 2.563 3.395 4.679 3.945 4.702.55.023 2.8 2.336 5 5.14 5.828 7.428 13.45 15.479 13.558 14.322.052-.55.107-3.25.123-6 .015-2.75.384-5.675.819-6.5.435-.825 1.101-5.091 1.479-9.481.378-4.389.85-8.242 1.047-8.561.697-1.128 4.469-20.779 4.434-23.103-.052-3.553.816-10.683 1.42-11.66.591-.957.903-2.795 2.58-15.195 1.775-13.128 3.202-22.208 4.007-25.501.874-3.573-.004-6.719-1.595-5.712m58.979 18.684c.31.809-.153 2.188-1.029 3.064-1.017 1.017-1.246 1.941-.634 2.553 1.099 1.099.494 6.912-.72 6.912-.968 0-.723 6.019.312 7.665.403.64.319 1.315-.187 1.5-1.551.565-1.776 19.835-.232 19.835.474 0 .648-1.117.387-2.483s-.133-3.279.285-4.25c.417-.972.955-4.017 1.195-6.767.239-2.75 1.034-8.15 1.766-12 .804-4.229.97-7.376.418-7.95-1.49-1.552-1.04-2.535.838-1.831 1.56.584 1.594.464.314-1.108-.84-1.032-1.047-2.043-.5-2.437 1.412-1.017 1.7-3.455.306-2.594-.739.457-.913.298-.465-.425.43-.697.052-1.155-.953-1.155-1.055 0-1.459.539-1.101 1.471m-7.734 50.141c-1.391 3.362-1.584 5.045-.827 7.216.686 1.966.579 5.385-.349 11.181-.736 4.592-1.109 8.719-.83 9.17.279.452.045.821-.521.821-.565 0-.768.675-.452 1.5.317.825.078 1.5-.531 1.5-.703 0-1.107 2.527-1.107 6.917 0 3.841-.456 7.068-1.027 7.259-1.149.383-1.991 6.081-2.343 15.845-.129 3.592-.547 7.036-.929 7.654-.383.619-.666 2.182-.629 3.475.158 5.642-3.474 18.85-5.183 18.85-.343 0-4.395-3.617-9.006-8.038-4.611-4.421-10.183-8.979-12.383-10.13-2.2-1.151-4.298-2.596-4.662-3.212-.365-.616-1.558-2.15-2.651-3.409l-1.989-2.288-.537 4.788c-.698 6.228-2.227 15.506-3.589 21.789a551.033 551.033 0 0 0-2.189 10.774c-.801 4.184-1.695 6.085-3.244 6.9-1.177.619-2.364 1.396-2.639 1.726-.275.33-2.3 1.542-4.5 2.693-2.2 1.152-7.029 3.964-10.732 6.25-3.702 2.287-7.37 4.157-8.149 4.157-.78 0-3.758 1.575-6.619 3.5-2.861 1.925-6.185 3.5-7.388 3.5-1.203 0-3.746 1.332-5.65 2.959-1.904 1.628-4.234 2.978-5.177 3-.943.023-2.219.983-2.835 2.135-.72 1.344-1.784 1.921-2.971 1.611-1.017-.266-2.666.086-3.664.783-.998.696-5.19 2.98-9.315 5.075-12.004 6.097-15.015 8.702-18.155 15.711-1.534 3.424-2.802 6.773-2.817 7.441-.015.668-.911 1.687-1.991 2.265-1.153.618-1.728 1.663-1.393 2.535.314.817.162 1.485-.336 1.485-.862 0-3.73 6.384-3.819 8.5-.023.55-.315 1.45-.648 2-.663 1.095-1.451 4.812-2.332 11-.313 2.2-.967 5.35-1.453 7-4.466 15.171-7.383 32.325-5.824 34.25.698.861.607 1.739-.292 2.823-.842 1.013-1.396 5.19-1.561 11.75-.362 14.473-.768 16.764-3.339 18.846-2.779 2.25-.886 2.432 2.464.237 1.597-1.047 4.248-1.52 7.715-1.376 2.904.12 5.731.102 6.281-.04.55-.142 2.575-.368 4.5-.502 1.925-.134 8-.7 13.5-1.258 5.5-.557 15.288-.95 21.75-.872 6.463.078 11.751-.131 11.75-.465 0-.334 3.488-.898 7.75-1.254 4.262-.356 9.438-.833 11.5-1.06 2.063-.227 3.75 0 3.75.504 0 1.213 2.739 1.185 3.167-.032.524-1.493 33.725-2.385 35.452-.952 1.115.925 1.865.773 3.505-.711 2.22-2.01 5.331-2.117 40.378-1.39 7.151.149 14.434-.045 16.184-.429 2.733-.6 3.428-.324 4.919 1.951 1.292 1.972 1.431 2.84.543 3.389-.657.406-1.41 2.419-1.673 4.474-.312 2.441-.117 3.514.564 3.093 1.072-.663.99-.048-1.142 8.524-.616 2.475-1.276 6.75-1.467 9.5-.888 12.768-1.601 18.026-2.484 18.335-.527.185-.661.817-.297 1.406.882 1.427.447 14.241-.654 19.259-1.899 8.652-2.166 10.155-2.579 14.5-.498 5.255-1.445 14.347-1.893 18.176-.173 1.472-.612 3.159-.977 3.75-.365.591-.187 1.074.395 1.074 1.978 0 1.294 8.989-.691 9.079-1.056.048-1.252.28-.494.585.691.279.955.994.587 1.59-.368.596-.852 3.361-1.075 6.145-.223 2.784-.743 5.521-1.155 6.082-.413.56-.688 2.819-.613 5.019.076 2.2-.272 6.25-.772 9s-1.034 8.375-1.187 12.5c-.153 4.125-.403 7.725-.555 8-.152.275-.36 2.075-.463 4-.103 1.925-.556 6.2-1.008 9.5-.759 5.552-.943 9.092-.637 12.269.159 1.657 4.441.624 9.122-2.202 1.925-1.162 4.781-2.764 6.347-3.561 1.566-.796 3.854-2.644 5.085-4.107 1.23-1.463 3.226-2.973 4.435-3.357 1.209-.383 3.374-1.787 4.811-3.12 1.438-1.332 3.223-2.422 3.968-2.422.745 0 1.354-.45 1.354-1s.47-1 1.044-1c.574 0 2.257-1.125 3.739-2.5 1.483-1.375 3.07-2.5 3.526-2.5.456 0 3.61-2.639 7.01-5.864C321.961 751.041 324.273 749 325.07 749c1.035 0 14.93-13.366 14.93-14.361 0-.43.675-1.457 1.5-2.282s1.5-1.185 1.5-.8c0 .384 2.485-1.721 5.523-4.679A5135.34 5135.34 0 0 1 364.954 711c9.583-9.224 10.974-10.986 11.443-14.5.294-2.2 1.029-5.8 1.633-8 2.168-7.895 3.03-13.081 2.99-18-.059-7.292.854-26.206 1.546-32 1.125-9.427 1.514-14.003 1.453-17.097-.034-1.704.594-5.979 1.395-9.5 2.066-9.084 2.518-33.903.617-33.903-.532 0-.681.749-.33 1.664.411 1.071.246 1.422-.462.984-.605-.374-1.34-.294-1.632.179-1.086 1.757-27.666-.952-33.081-3.371-1.867-.834-3.39-.984-4.092-.401-.615.51-1.313.733-1.551.495s-6.496-.679-13.908-.979c-17.104-.692-27.035-1.456-32.697-2.514-2.459-.459-8.59-.761-13.625-.67-6.616.118-9.984-.269-12.153-1.399-2.051-1.068-6.322-1.638-13.5-1.8-5.775-.131-15.225-.721-21-1.312-7.529-.771-12.16-.767-16.366.012-3.226.598-6.194.884-6.595.636-.402-.248-7.531-.542-15.843-.653-8.313-.111-15.615-.512-16.227-.89-.789-.488-.831-2.114-.145-5.584.532-2.694 1.719-8.947 2.636-13.897.918-4.95 2.059-10.35 2.536-12 .478-1.65 1.358-6.6 1.957-11 1.445-10.624 2.803-18.915 5.077-31 2.346-12.467 2.622-14.172 4.726-29.25.941-6.738 2.046-12.25 2.457-12.25.41 0 3.107-1.786 5.992-3.97 2.884-2.183 6.581-4.263 8.214-4.622s5.694-1.884 9.025-3.389c9.919-4.483 12.556-4.747 12.556-1.257 0 1.358.225 1.344 1.831-.109 1.007-.912 2.132-1.356 2.5-.989.368.368.669-.531.669-1.997 0-1.467-.45-2.667-1-2.667s-1-.45-1-1 .698-1 1.552-1c.853 0 3.441-.977 5.75-2.171 6.616-3.422 7.581-3.829 9.077-3.829.774 0 1.642-.613 1.929-1.361.505-1.316 17.421-8.639 19.957-8.639.688 0 3.364-1.125 5.947-2.5s5.925-2.5 7.426-2.5c1.502 0 4.56-.864 6.796-1.921 2.236-1.056 9.691-4.603 16.566-7.882 6.875-3.279 14.525-6.84 17-7.914 2.475-1.073 6.672-3.833 9.327-6.132 2.655-2.299 6.094-4.835 7.642-5.635 1.548-.8 3.29-2.819 3.871-4.486.581-1.666 1.556-3.03 2.167-3.03.611 0 .79-.52.398-1.155-.41-.663-.278-.884.31-.521.963.595 2.596-4.931 5.265-17.824.569-2.75 1.245-5.933 1.502-7.073.747-3.314-5.276-2.025-6.763 1.448-.618 1.444-1.243 2.798-1.389 3.009-.475.688-5.709 1-6.684.397-.522-.322-7.445-.716-15.385-.873-16.65-.331-20.393-.9-19.597-2.975.654-1.705-.802-1.895-2.385-.312-.746.746-3.41.902-7.95.466-8.381-.805-12.128-.825-15.163-.08-1.386.341-2.09.179-1.733-.398.33-.534.142-1.253-.417-1.599-.559-.345-1.016-.204-1.016.314 0 .519-1.125 1.158-2.5 1.421-1.375.263-2.5.09-2.5-.384 0-.473.927-.861 2.059-.861 1.132 0 1.782-.448 1.444-.995-.369-.597-5.031-.861-11.648-.661-12.553.381-13.966-.229-13.284-5.735.648-5.221-1.795-5.219-3.954.003" fill="#d3d3d3" fill-rule="evenodd"/></svg>