<svg xmlns="http://www.w3.org/2000/svg" width="500" height="638"><path d="M135 .57c0 .313 1.364 2.552 3.03 4.974 1.667 2.422 4.279 7.003 5.804 10.18 3.144 6.546 9.793 17.274 11.639 18.777.676.551 3.097 4.861 5.38 9.578 2.284 4.717 5.276 9.633 6.649 10.923 1.374 1.291 2.498 3.001 2.498 3.801 0 .8 1.8 4.091 4 7.314 4.557 6.676 4.51 6.516 2.5 8.526-2.043 2.043-1.887 5.697.329 7.702 2.418 2.189 3.171 2.087 3.171-.428 0-3.053 2.439-1.783 2.822 1.469.31 2.629.187 2.706-3.25 2.062-2.797-.525-3.572-.347-3.572.818 0 .819-.675 2.049-1.5 2.734-.888.737-1.5.825-1.5.216 0-.566-.854-.805-1.898-.532-2.557.668-6.91-2.321-7.292-5.01-.195-1.365-1.141-2.292-2.543-2.491-2.795-.398-8.267-6.902-8.267-9.828 0-1.203-.562-2.415-1.25-2.693-.687-.277-.222-.54 1.035-.583 1.969-.068 2.137-.356 1.215-2.079-1.246-2.328-5-2.703-5-.5 0 .825-.675 1.5-1.5 1.5s-1.5-.731-1.5-1.625c0-1.267-.651-1.495-2.961-1.033-1.629.326-3.242.139-3.584-.415-.343-.555-1.52-.724-2.615-.376-1.7.539-1.959.215-1.765-2.209.452-5.661-.054-8.342-1.575-8.342-.825 0-1.5.45-1.5 1s.477 1 1.059 1 .776.457.431 1.016c-.346.559-1 .787-1.454.506-1.075-.664-2.232 2.352-1.411 3.68.347.562.011 1.414-.747 1.894-2.139 1.355-2.876 1.067-2.159-.846.584-1.56.464-1.594-1.108-.314-1.988 1.618-3.566.22-3.596-3.186-.028-3.23-3.989-.364-4.047 2.929-.03 1.738-.096 1.736-1.45-.052-.864-1.141-1.195-2.994-.846-4.739.362-1.808-.025-3.778-1.049-5.341-1.979-3.02-2.016-3.547-.248-3.547.756 0 1.64 1.237 1.964 2.75.82 3.829 6.4 6.585 9.776 4.828 1.335-.695 2.183-1.866 1.926-2.66-.252-.78-.477-3.443-.5-5.918-.041-4.484-.055-4.501-3.855-4.814-5.6-.461-7.145-2.559-7.415-10.063-.237-6.616-1.673-9.852-3.654-8.237-.614.501-3.029.744-5.367.541-4.817-.42-5.334.631-2.25 4.573 2.988 3.82 2.543 5.676-1.544 6.442-1.949.366-4.48.368-5.625.005-1.21-.385-2.39-.161-2.819.534-.406.657-2.488 1.285-4.627 1.394-2.139.11-4.413.524-5.053.92-1.185.732-6.332-.76-6.332-1.836C80 33.802 82.258 31 83.594 31c.838 0 1.265-.419.949-.931a1.106 1.106 0 0 1 .372-1.516c.521-.322 1.229-.128 1.575.431.345.559 1.55 1.016 2.677 1.016 1.705 0 1.941-.435 1.401-2.585-.932-3.712.123-6.114 3.402-7.75 2.056-1.026 3.171-1.124 3.948-.347.776.776 1.071-.034 1.041-2.868-.057-5.614-4.765-11.213-7.822-9.303-1.647 1.028-2.345 1.045-3.312.078-1.802-1.802-3.128-1.491-2.58.605.377 1.439-.371 2.057-3.5 2.893l-3.979 1.062.522-3.893C78.9 3.326 77.105 2.566 75 6.5 74.264 7.875 73.23 9 72.702 9c-.588 0-.693 2.714-.271 7 .577 5.851.445 7-.804 7-.887 0-1.623 1.118-1.811 2.75-.174 1.512-.766 2.705-1.316 2.651-.55-.055-1.548.62-2.218 1.5-1.66 2.178-1.583.435.305-6.933 2.783-10.865-1.767-8.537-4.949 2.532-.316 1.1-.383.251-.147-1.886l.427-3.886-2.565 2.386C54.948 26.211 53.835 33 57.567 33c.788 0 1.433.45 1.433 1s-.45 1-1 1-1 .9-1 2c0 1.619-.667 2-3.5 2-2.444 0-3.5-.452-3.5-1.5 0-1.767-1.58-1.989-2.584-.364-.466.754-1.284.365-2.433-1.159l-1.732-2.295-3.607 2.229c-1.984 1.226-4.066 1.946-4.626 1.6-1.419-.877-1.273-3.253.232-3.791 3.004-1.072-.215-1.544-3.551-.52-2.506.77-3.699 1.726-3.699 2.968C28 37.176 27.55 38 27 38s-1 .672-1 1.492c0 1.845-5.091 6.495-9.312 8.508-1.731.825-4.056 2.96-5.167 4.744-1.599 2.567-2.511 3.132-4.367 2.707C4.371 54.814 2 56.503 2 59.122 2 60.155 1.55 61 1 61c-.653 0-1 16.833-1 48.5C0 157.68.013 158 2.044 158c1.124 0 1.953.563 1.842 1.25-.111.688.145 2.043.568 3.013.429.981.296 2.334-.3 3.052-.993 1.196-.771 4.08.591 7.685 1.028 2.722 1.159 8 .198 8-1.58 0-1.05 3.745.62 4.386.86.33 1.298 1.03.973 1.556-.326.527.771 1.964 2.436 3.196 1.665 1.231 3.028 3.019 3.028 3.973 0 1.086 1.274 2.154 3.412 2.86 3.426 1.131 4.856 2.954 4.14 5.279-.212.688-.661 2.506-.998 4.041-.337 1.535-1 2.551-1.474 2.259-.473-.293-1.165 1.091-1.538 3.076-.743 3.965-.27 3.898-12.292 1.736-2.951-.531-3.25-.356-3.25 1.899 0 2.147.574 2.575 4.239 3.161 2.331.373 5.244 1.622 6.473 2.777 1.228 1.154 3.483 2.186 5.011 2.293 4.714.331 5.026.456 5.631 2.258.324.963 1.163 2.595 1.867 3.629 1.044 1.533 1.036 1.966-.041 2.356-.966.35-.801.842.617 1.835 1.379.966 2.132 3.085 2.616 7.363.374 3.303 1.089 6.259 1.59 6.569.5.309.645 1.253.321 2.097-.418 1.088-.9 1.225-1.657.468C25.031 248.431 24 248.791 24 251c0 2.569-1.096 2.537-3.351-.097-1.386-1.619-2.522-1.966-4.973-1.519-2.787.507-3.832-.032-8.532-4.403C.716 239.003 0 238.883 0 243.784c0 3.145.507 4.084 3 5.557 1.65.975 3 2.223 3 2.775 0 .551.444.727.987.392.543-.336 1.556-.111 2.25.5.695.611 2.776 2.008 4.626 3.105 1.849 1.097 3.098 2.26 2.774 2.583-.324.324-1.275.02-2.113-.676-1.042-.865-1.524-.91-1.524-.142 0 .617.436 1.122.97 1.122.533 0-.128 1.617-1.469 3.594-1.342 1.977-3.215 5.352-4.163 7.5C7.391 272.242 5.985 274 5.214 274c-.771 0-1.639.91-1.93 2.023-.501 1.915-.602 1.929-1.875.25-1.203-1.585-1.349-1.369-1.377 2.044C.004 281.686.235 282.06 2 281.5c1.56-.495 2-.18 2 1.433 0 1.171.65 2.067 1.5 2.067.825 0 1.5.648 1.5 1.441s.47 1.731 1.044 2.086c1.373.849 5.956-2.187 5.956-3.945 0-1.051.817-1.187 3.5-.582 1.98.447 3.5.401 3.5-.105 0-1.366 2.772-1.066 3.281.355.286.799 1.244.258 2.656-1.5 1.214-1.512 2.94-2.75 3.836-2.75 1.265 0 1.36-.267.427-1.2-1.158-1.158-1.719-5.8-.7-5.8 1.314 0 4.5 4.223 4.5 5.965 0 2.279 4.163 5.045 4.786 3.178.555-1.666 2.214-1.399 2.214.357 0 .825.501 1.5 1.113 1.5.679 0 .935 1.222.655 3.129-.349 2.374.347 4.327 2.886 8.1 4.352 6.467 4.265 6.786-1.654 6.085-5.373-.637-5.872-.329-3.429 2.115 1.852 1.851 6.528 2.072 8.212.388 2.005-2.005 2.451-.17.756 3.108-1.369 2.648-1.397 3.192-.184 3.658.841.322 1.215 1.347.912 2.503-.405 1.551-.802 1.715-1.913.793-.771-.64-1.716-.85-2.099-.467-.383.383-.047 1.099.748 1.59.795.491 1.485 1.704 1.534 2.695.266 5.363 1.737 8.303 4.154 8.303 3.798 0 6.309 1.805 6.309 4.535 0 2.108.471 2.47 3.25 2.497 1.787.017 4.124.692 5.191 1.5 1.296.98 1.482 1.468.559 1.468-1.033 0-.966.315.268 1.25 2.021 1.531 2.718 13.164.897 14.985-.641.641-1.165 1.905-1.165 2.81s-.9 2.46-2 3.455c-1.1.995-2 2.243-2 2.773 0 1.296-6.191 6.691-7.7 6.711-.66.009-1.56.622-2 1.362-1.419 2.387-7.01 2.869-7.59.654-.625-2.391-5.583-3.824-6.741-1.95-.676 1.094-1.092 1.093-2.417-.007-2.137-1.774-3.209-.558-1.242 1.409 1.871 1.872 3.36 1.983 3.993.298.274-.731.883-.212 1.466 1.25 1.193 2.995.799 3.833-2.366 5.037-1.662.632-2.403 1.693-2.403 3.438 0 1.601-.561 2.525-1.531 2.525-.843 0-1.791.675-2.107 1.5-.317.825-1.373 1.5-2.347 1.5-.973 0-2.354.704-3.068 1.564-.818.985-2.149 1.351-3.596.988-1.786-.448-2.166-.233-1.706.966.707 1.842-3.129 5.482-5.779 5.482-1.145 0-2.022.934-2.347 2.5l-1.048 5.041c-.291 1.397-.887 2.32-1.324 2.05-.437-.27-1.386 1.816-2.108 4.635-.723 2.819-2.095 6.509-3.049 8.2-1.32 2.339-1.677 4.988-1.491 11.074.135 4.4-.199 8.557-.74 9.238-.686.863-.498 1.425.622 1.855 1.44.552 1.411.89-.284 3.271-3.509 4.928-2.655 10.389 2.345 14.991 1.407 1.295 2.558 2.758 2.558 3.25s.64.895 1.422.895c.783 0 1.931 1.687 2.551 3.75 1.879 6.244 5.45 13.218 6.777 13.234.688.009 1.25.897 1.25 1.974C23 482.421 30.104 490 32.413 490c1.232 0 1.552.536 1.123 1.887-.485 1.529.023 1.99 2.683 2.429 1.804.298 4.518.851 6.031 1.229 2.324.582 2.75.373 2.75-1.345 0-1.118-.562-2.288-1.25-2.599-.687-.311-.35-.445.75-.297 1.264.17 1.892.899 1.706 1.982-.161.943.132 1.714.652 1.714.521 0 1.417 1.35 1.992 3 1.331 3.817 3.421 4.021 2.561.25l-.627-2.75 1.666 2.252c.916 1.238 1.376 2.721 1.022 3.294-.355.573.058 2.114.916 3.423 1.176 1.795 1.259 2.508.336 2.893-.838.351-.594.994.776 2.041 1.1.841 2.551 2.001 3.224 2.578.672.576 2.457 1.518 3.966 2.091 2.158.821 2.435 1.233 1.3 1.934-1.189.735-1.095 1.032.534 1.693 1.939.786 2.456 1.797 2.966 5.801.445 3.496.496 3.625 1.26 3.242.412-.207 1.825.658 3.138 1.922l2.388 2.298-2.388.901c-1.313.495-3.107.525-3.985.066-.964-.505-2.053-.379-2.75.318-.871.871-1.153.859-1.153-.047 0-.66-.45-1.2-1-1.2s-1 1.8-1 4c0 2.655.446 4 1.326 4 1.971 0 5.674 4.334 5.674 6.641 0 1.711-.488 1.935-3.25 1.493-1.91-.306-2.528-.677-1.5-.9 2.131-.464 2.354-4.234.25-4.234-.825 0-1.5.467-1.5 1.038 0 1.27-5.229.841-6.196-.509-.382-.534-.976-.69-1.319-.347-1.192 1.192 2.01 4.818 4.256 4.818 1.861 0 2.259.548 2.259 3.107 0 2.415-.35 2.973-1.573 2.503-1.115-.427-1.476-.095-1.241 1.144.2 1.055 1.423 1.872 3.09 2.064 1.517.175 2.499.737 2.182 1.25-.317.513-.099.932.483.932S66 557.523 66 556.941s.39-.818.866-.524c.476.294.655 1.636.398 2.982-.416 2.178.1 2.647 4.707 4.274 2.846 1.005 6.023 2.615 7.06 3.577 1.037.962 3.003 1.75 4.368 1.75 1.366 0 2.724.39 3.018.866.294.476 1.74.635 3.213.354 2.539-.486 2.646-.349 2.049 2.634-.573 2.866-.403 3.146 1.905 3.146 1.435 0 2.266-.434 1.916-1-.34-.55.057-1 .882-1s1.778.45 2.118 1c.34.55 1.491 1 2.559 1 1.545 0 1.941.702 1.941 3.441 0 4.215 1.49 5.38 3.081 2.407 1.142-2.132 1.229-2.144 2.551-.337 1.919 2.625 1.713 3.471-.882 3.607-1.825.096-1.683.265.75.892 2.851.735 2.889.809.75 1.498-2.382.768-3.115 3.412-1 3.607.688.064 1.7.22 2.25.348.55.128 1.9.315 3 .416 1.954.18 1.956.218.103 1.621-1.044.79-2.195 1.252-2.558 1.028-.363-.225-1.448.641-2.411 1.923-1.241 1.653-2.388 2.167-3.942 1.767-1.946-.502-2.039-.378-.824 1.104 1.168 1.424 1.12 2.047-.33 4.26-2.17 3.313-1.197 4.339 1.716 1.809 7.602-6.601 14.119-9.773 14.951-7.277.204.613 1.254.909 2.333.658 1.722-.401 1.626-.596-.788-1.59-1.512-.623-2.75-1.316-2.75-1.541 0-.613 5.238.012 7.317.873 1.025.424 2.837.206 4.155-.499 1.286-.688 2.889-.91 3.564-.493.674.417 4.167.757 7.761.756 5.768-.002 6.794.297 8.73 2.548 1.576 1.833 3.535 2.709 6.955 3.113l4.761.561 1.768 6c2.805 9.519 5.992 23.749 5.99 26.75-.001 2.104.479 2.75 2.044 2.75 2.306 0 2.167-2.39-.753-13-.833-3.025-1.65-7.852-1.815-10.726-.166-2.874-.792-7.514-1.391-10.311-1.537-7.164-.038-10.206 3.425-6.952 1.288 1.209 2.828 1.898 3.423 1.53.595-.368 1.808.058 2.695.945 1.951 1.951 4.265 1.644 5.764-.764.847-1.361.779-1.983-.289-2.65-.825-.515-1.124-1.578-.731-2.602.603-1.572.842-1.528 2.581.477l1.917 2.21-.089-3.125c-.119-4.197 1.597-5.878 3.944-3.86.976.838 2.554 1.8 3.507 2.138 1.054.373 1.502 1.217 1.143 2.152-.863 2.25.916 1.879 4.095-.853 1.53-1.314 2.496-2.853 2.146-3.419-.698-1.13 1.908-4.19 3.569-4.19.629 0 .5.895-.324 2.25-1.478 2.429-1.332 8.75.201 8.75.516 0 .937-.675.937-1.5s.45-1.5 1-1.5 1 .724 1 1.608c0 1.237.607 1.457 2.626.95 2.253-.566 2.521-.403 1.886 1.141-4.404 10.711-3.873 17.301 1.395 17.301 5.02 0 8.316-6.377 5.006-9.687-.783-.783-.783-1.275 0-1.759 1.493-.923 1.373-6.257-.163-7.22-.687-.431-2.1-.644-3.139-.473-1.504.248-1.772-.136-1.316-1.882.316-1.206.186-3.213-.288-4.459-.552-1.453-.457-2.67.266-3.393.836-.836.701-1.127-.523-1.127-.908 0-2.017.655-2.465 1.455-.447.8-1.313 1.137-1.923.75-1.745-1.108.26-5.205 2.547-5.205 2.439 0 3.235-1.149 2.086-3.008-.736-1.191-1.169-1.144-2.763.298-2.062 1.866-4.232 2.26-4.232.769 0-.518.45-1.219 1-1.559 1.421-.878 1.239-2.5-.281-2.5-.704 0-1.792-1.354-2.416-3.009-.989-2.619-.888-3.143.78-4.036 1.502-.803 1.917-.693 1.917.51 0 1.029.961 1.535 2.917 1.535 1.604 0 3.143.562 3.421 1.25.335.831.531.73.583-.3.043-.852-.356-1.985-.888-2.517-.532-.532-.702-1.982-.378-3.223.52-1.985 1.023-2.176 4.217-1.6 4.655.841 4.628.808 4.628 5.724 0 3.444.347 4.195 2 4.332 1.1.092 4.137.596 6.75 1.121 3.079.619 4.75.611 4.75-.023 0-.538.675-.719 1.5-.402.825.316 1.5.224 1.5-.206s2.138-.753 4.75-.719l4.75.063v-4.913c0-4.655.143-4.918 2.732-5.032 1.503-.066 3.246-.633 3.873-1.26.818-.818 1.792-.843 3.444-.091 5.681 2.589 9.337-1.363 5.507-5.954-2.323-2.785-2.85-2.792-5.742-.076-1.475 1.386-2.314 1.698-2.314.861 0-.723.642-1.814 1.428-2.425.785-.61 1.573-2.46 1.75-4.11l.322-3-6.656.332c-6.458.321-6.697.246-8.014-2.5-.746-1.558-1.913-2.888-2.593-2.957-.681-.069-2.362-.181-3.737-.25-1.886-.094-2.502-.677-2.508-2.375-.007-2.134-3.607-4.75-6.536-4.75-2.364 0-4.248-3.529-4.12-7.718.127-4.169-1.584-7.418-3.069-5.828-.422.451-.204 1.021.483 1.266 1.91.682 1.489 3.082-.75 4.28-1.596.854-2 .76-2-.465 0-.844-.648-1.535-1.441-1.535-2.066 0-2.923-1.856-1.597-3.455.719-.865.776-1.589.156-1.972-.539-.333-1.262-.148-1.608.411-.942 1.525-2.51 1.223-2.51-.484 0-.825.499-1.5 1.108-1.5.683 0 .868-.96.481-2.5-.5-1.993-.251-2.5 1.225-2.5 2.586 0 3.276-.964 2.169-3.032-.704-1.315-.527-1.929.691-2.396 2.14-.821-4.011-5.572-7.213-5.572-1.183 0-2.996-.933-4.028-2.074-1.21-1.337-2.701-1.917-4.195-1.631-1.394.266-2.172.007-1.953-.65.832-2.495-6.196-10.645-9.179-10.645-.608 0-1.106-.675-1.106-1.5s-.623-1.5-1.385-1.5c-1.657 0-4.929-4.683-4.151-5.941.3-.487-.694-1.799-2.209-2.916l-2.755-2.031 4.703.425c5.7.515 5.584.683 5.903-8.569.348-10.106.26-9.968 6.394-9.968 3.691 0 5.454-.437 5.842-1.448.871-2.272 7.622-3.583 17.377-3.375 7.865.168 9.34-.083 12.118-2.061 1.74-1.239 3.163-1.772 3.163-1.184 0 .587.45 1.068 1 1.068s1-1.35 1-3 .4-3 .89-3c.489 0 1.482-2.009 2.208-4.465.976-3.305 2.043-4.765 4.11-5.621 1.536-.636 2.792-1.699 2.792-2.362 0-.768 1.078-1.047 2.968-.77 1.633.24 4.333-.04 6-.621 2.423-.845 3.032-.779 3.032.324 0 1.666 5.715 1.76 6.779.112.39-.603.936.478 1.215 2.403.63 4.358 3.966 5.322 6.398 1.85 1.56-2.227 1.608-2.232 3.022-.306 1.39 1.893 1.471 1.865 2.511-.859.591-1.548 1.075-3.215 1.075-3.703s2.25-.621 5-.296c3.19.378 5 .214 5-.453 0-2.129 4.628.195 8.9 4.469 2.42 2.421 5.795 5.122 7.5 6.002 1.705.881 5.575 3.725 8.6 6.322 3.025 2.597 6.534 5.256 7.798 5.909 1.264.653 2.715 2.284 3.225 3.626.617 1.622 1.708 2.439 3.256 2.439 3.214 0 8.721 5.872 8.721 9.298 0 1.746.536 2.702 1.514 2.702.832 0 2.436.563 3.565 1.25 1.775 1.082 2.312.932 3.986-1.111 1.064-1.298 1.935-2.761 1.935-3.25 0-1.831-4.092-4.889-6.543-4.889-2.415 0-9.97-4.941-15.513-10.145-1.406-1.32-4.98-4.18-7.944-6.355-2.964-2.175-6.497-4.983-7.852-6.239l-2.465-2.284 2.998-3.738c5.628-7.019 7.789-16.148 7.573-31.989-.046-3.371.345-5.25 1.094-5.25 1.754 0 5.534-13.207 5.75-20.09.04-1.267 1.052-1.539 4.976-1.338 2.709.138 4.926-.159 4.926-.66 0-.502.675-.912 1.5-.912 1.813 0 1.932 1.168.286 2.814-2.213 2.213 3.484 6.827 6.939 5.62 4.38-1.531 4.155-11.434-.26-11.434-3.404 0-1.241-11.757 2.427-13.194 1.435-.562 3.323-1.381 4.197-1.822.875-.44 2.184-.433 2.91.015 1.861 1.15 4.012.102 4.972-2.422.692-1.82 1.448-2.09 4.923-1.758 4.634.441 4.803.805 2.357 5.066-1.647 2.871-1.65 3.145-.043 4.752 1.694 1.694 9.792 2.615 9.792 1.113 0-.413-.705-.75-1.567-.75-1.727 0-1.346-2.209 1.267-7.343 1.682-3.303.911-4.874-1.066-2.172-.909 1.244-1.949 1.608-3.211 1.124-1.074-.412-1.445-1.012-.875-1.413 2.783-1.952 3.581-6.427 1.493-8.372-3.585-3.34-2.041-7.824 2.694-7.824 1.285 0 3.489-.756 4.898-1.679 2.117-1.387 2.912-1.462 4.562-.431 2.156 1.346 3.414.905 2.346-.823-.362-.587-1.757-1.067-3.1-1.067-1.503 0-2.441-.576-2.441-1.5 0-.993.993-1.5 2.941-1.5 1.618 0 3.215-.443 3.55-.985.629-1.017 1.82-1.145 9.583-1.028 3.541.054 5.176-.49 7.246-2.408 3.966-3.675 12.851-5.18 18.556-3.142 4.957 1.771 11.369 2.037 14.081.586 1.189-.637 5.091-.636 11.185 0 5.147.538 14.269 1.451 20.27 2.029 6.002.578 11.664 1.453 12.582 1.945 1.611.862 13.513.176 12.609-.727-.696-.696-7.736-2.39-11.603-2.792a907.05 907.05 0 0 0-10.119-.953c-3.641-.324-8.138-1.025-9.994-1.557-1.855-.533-5.332-.968-7.726-.968-4.253 0-9.684-2.313-10.515-4.48-1.135-2.957 6.234-8.333 11.855-8.648 4.096-.23 11.194-5.938 9.929-7.986-.823-1.33.358-1.071 3 .66 1.588 1.04 2.192 2.184 1.848 3.5-.411 1.571.002 1.954 2.105 1.954 1.44 0 2.617.468 2.617 1.04 0 1.385 4.156 6.96 5.188 6.96 1.264 0 .958-1.799-.634-3.739a307.237 307.237 0 0 1-3.373-4.212l-1.925-2.451 3.939-3.786c2.334-2.242 3.645-4.262 3.216-4.956-.505-.817-.039-.992 1.543-.578 1.696.443 2.395.105 2.773-1.343.279-1.064 1.368-1.935 2.421-1.935 1.053 0 2.169-.662 2.479-1.471.481-1.253 1.131-1.183 4.373.471 3.357 1.712 3.879 1.759 4.404.39.818-2.133.749-2.602-.291-1.96-2.073 1.282-3.135-2.35-1.665-5.693.432-.981.309-2.325-.277-3.03-1.424-1.717-.703-13.361.951-15.354 1.819-2.192 1.61-66.766-.223-68.975-.937-1.129-.915-1.98.101-3.878 1.082-2.022 1.065-2.718-.099-4.129-1.086-1.315-1.12-1.791-.151-2.117 2.037-.685 1.43-2.82-1.202-4.228-2.541-1.36-5.114-6.664-3.501-7.217.496-.17.626-1.36.289-2.644-.445-1.692-.835-1.975-1.42-1.028-1.68 2.718-2.014-.129-.411-3.506 1.204-2.538 1.45-4.46.875-6.831-.441-1.815-.819-4.384-.841-5.708-.021-1.325-.67-2.623-1.441-2.884-1.029-.349-1.244.125-.81 1.785.578 2.209-1.688 7.007-3.308 7.007-1.686 0-.403-8.488 1.333-8.822.928-.178 1.687-.981 1.687-1.783 0-2.496-3.014-2.761-6.032-.53-1.588 1.174-3.779 2.135-4.868 2.135-1.09 0-2.239.415-2.552.923-.314.508-1.853 1.205-3.419 1.549-4.959 1.089-8.286 5.494-7.147 9.464 1.125 3.925.648 5.064-2.124 5.064-1.164 0-1.849.526-1.612 1.237.542 1.626-4.916 7.442-5.949 6.34-.438-.468-.234-1.052.453-1.297 2.201-.786 1.338-2.28-1.317-2.28-2.168 0-2.462.333-1.889 2.138.614 1.935.408 2.072-2.183 1.439-6.977-1.703-7.997-1.721-9.29-.162-1.752 2.111-4.811 2.017-5.382-.165-.353-1.351-.483-1.251-.573.441-.149 2.821-2.116 4.092-2.116 1.368 0-2.743-1.837-2.625-2.969.191-.497 1.237-.933 1.618-.968.845-.08-1.787-4.063 1.576-4.063 3.431 0 1.614-9.924 2.95-11.346 1.528-1.522-1.522-4.864-1.295-7.431.503-2.201 1.541-2.223 1.511-2.223-3.08 0-4.613-.015-4.633-3-4.056l-6 1.158c-2.356.455-3 .225-3-1.071 0-4.193-8.269-7.41-9.264-3.605-.414 1.581-1.34 2.097-3.767 2.097-3.017 0-3.183-.182-2.641-2.892.542-2.707.382-2.884-2.487-2.75-4.384.203-5.804-2.352-3.665-6.593.906-1.796 2.116-4.733 2.688-6.528.573-1.795 1.738-4.258 2.589-5.473l1.547-2.209v2.163c0 2.887 2.007 3.993 3.512 1.935.665-.909 1.946-1.653 2.848-1.653.973 0 1.64-.813 1.64-2 0-2.273-2.777-2.745-3.596-.611-.317.826-1.349 1.177-2.543.864-2.601-.68-2.062-2.892 3.592-14.753 2.359-4.95 5.988-12.6 8.065-17 5.115-10.842 8.482-14.533 8.482-9.3 0 3.765 1.709.686 3.441-6.2.899-3.575 2.472-8.3 3.496-10.5 1.023-2.2 2.074-6.118 2.334-8.706.26-2.588 1.589-6.863 2.953-9.5 1.364-2.637 2.805-6.144 3.203-7.794.399-1.65 1.957-5.025 3.464-7.5 4.212-6.92 4.511-8.181 1.851-7.812-2.533.352-5.3 4.266-7.147 10.109-.313.989-1.925 2.271-3.582 2.848-3.357 1.171-3.3 1.014-3.424 9.355-.089 6.024-3.461 14.96-6.338 16.8-.688.44-1.251 1.382-1.251 2.094s-1.111 2.587-2.468 4.167c-1.358 1.58-2.758 4.238-3.112 5.906-1.209 5.694-4.54 15.025-7.868 22.033-15.457 32.558-17.286 35.701-19.84 34.09-1.222-.771-2.207-.762-3.475.03-2.355 1.471-4.427-.53-3.066-2.961 1.259-2.25.274-3.588-2.172-2.948-2.114.552-2.442-.816-2.025-8.446l.177-3.236-9.01.289c-4.956.159-8.986.04-8.957-.265.191-2-.445-3.001-2.275-3.582-1.412-.448-1.936-1.261-1.611-2.503.276-1.054-.147-2.08-.99-2.403-2.529-.971-3.308-.632-3.308 1.435 0 2.83-1.661 2.486-2.411-.5-.345-1.375-1.069-2.5-1.608-2.5-.54 0-.981-.745-.981-1.656 0-.91-1.125-3.13-2.5-4.933-1.561-2.047-2.5-4.586-2.5-6.762 0-4.488-.856-6.649-2.632-6.649-.78 0-1.674-1.28-1.987-2.843-.465-2.329-.989-2.763-2.89-2.4-1.765.337-2.696-.24-3.88-2.407-1.541-2.817-1.566-2.824-2.207-.579-.415 1.455-1.054 1.974-1.776 1.444-.62-.455-2.366-.781-3.878-.725-1.698.064-2.75-.416-2.75-1.253 0-.745.45-1.077 1-.737.565.349 1-.47 1-1.882 0-2.607-1.465-4.293-2.406-2.77-.3.485-2.56-.07-5.024-1.233-3.641-1.72-4.487-2.618-4.524-4.806-.025-1.48-.444-2.937-.931-3.238-1.041-.643-2.063-6.571-1.133-6.571 2.309 0 4.268-3.354 5.557-9.514 1.943-9.287 1.877-10.125-1.039-13.269-2.884-3.111-3.107-4.906-.982-7.939 1.168-1.667 1.31-3.089.617-6.173-.495-2.203-.69-4.217-.432-4.475.258-.257-.47-.97-1.617-1.584-2.324-1.243-2.896-3.571-.669-2.716.78.299 1.68-.14 2-.975.932-2.427.674-6.355-.417-6.355-.55 0-1 .648-1 1.441s-.509 1.756-1.132 2.14c-.825.511-.934-1.141-.401-6.115.92-8.597 1.375-9.741 3.634-9.15 1.004.263 2.347-.151 2.985-.919.637-.768 2.004-1.397 3.036-1.397 1.738 0 2.805-2.908 1.128-3.074-.413-.041-1.74-.26-2.95-.486-1.209-.227-2.473.032-2.809.574-1.384 2.24-3.137.935-2.704-2.014.334-2.276.05-3-1.174-3C285.65 0 285 .832 285 2.066 285 4.501 283.286 8 282.093 8c-.461 0-1.125-1.8-1.477-4-.494-3.091-1.086-4-2.603-4-1.723 0-1.837.333-.93 2.717.568 1.495 1.497 3.277 2.065 3.961.567.684 1.063 3.304 1.101 5.822.038 2.518.447 4.812.91 5.098 1.801 1.113.855 4.402-1.266 4.402-1.442 0-1.929-.464-1.544-1.468.31-.807.194-1.697-.259-1.976-.452-.28-.628-1.532-.391-2.782.237-1.251-.02-3.399-.571-4.774-.956-2.387-1.004-2.399-1.065-.285-.034 1.218-1.016 2.725-2.181 3.348-1.768.946-2.032 1.78-1.596 5.035.555 4.135-1.039 6.563-1.97 3.003-.302-1.156-1.172-2.101-1.933-2.101-2.284 0-1.754-6.287.658-7.793 1.122-.701 2.472-1.008 3-.682.552.341.959-1.129.959-3.466 0-2.232.45-4.059 1-4.059 1.614 0 1.146-2.73-.582-3.393-4.823-1.851-15.803-.199-12.451 1.873.532.329.709 1.889.394 3.467-.449 2.244-.116 3.114 1.532 3.996C265.557 11.369 265.614 13 263 13c-2.799 0-2.491 2.469.613 4.911 1.702 1.338 2.396 2.624 1.989 3.685-.507 1.32-.908 1.395-2.114.394-1.544-1.281-1.986 1.077-1.529 8.161.183 2.833-1.382 4.592-2.49 2.799-.844-1.366-.845-6.186-.004-11.767.438-2.898.109-5.949-.999-9.287-.909-2.734-1.399-5.629-1.09-6.433.309-.805.125-1.463-.407-1.463-.533 0-.969-.9-.969-2s-.512-2-1.138-2c-.815 0-.901 1.63-.303 5.75 1.664 11.457 1.284 36.263-.57 37.256-1.617.865-2.927-1.177-5.39-8.399-1.306-3.827-1.922-.348-1.82 10.269.1 10.315-.022 11.004-2.337 13.178-1.343 1.262-2.442 3.1-2.442 4.085 0 .985-1.012 2.324-2.25 2.976-1.237.651-2.495 1.556-2.794 2.011-.3.454-2.309.339-4.465-.256-2.847-.786-4.021-.78-4.289.024-.203.608-1.261 1.106-2.353 1.106-1.529 0-1.838-.459-1.349-2 .435-1.369.18-2-.808-2-.793 0-1.692 1.237-1.998 2.75-.319 1.575-1.547 3.181-2.875 3.759-1.331.579-2.201 1.719-2.042 2.675.152.916-.186 1.951-.75 2.3-.565.349-1.027 1.262-1.027 2.03 0 1.776-4.664 6.486-6.423 6.486-1.959 0-3.892 2.737-3.202 4.534.364.949-.474 2.618-2.138 4.263L200.5 95.5l-2.568-2.5c-1.412-1.375-3.951-5.425-5.641-9s-4.697-9.922-6.682-14.105c-1.985-4.183-3.609-8.035-3.609-8.56 0-.525-1.356-2.342-3.014-4.038-1.657-1.695-5.215-6.393-7.906-10.44-2.691-4.046-7.189-10.507-9.997-14.357-2.807-3.85-5.409-7.675-5.781-8.5-.764-1.691-7.294-11.23-8.215-12-.329-.275-1.928-3.088-3.554-6.25C141.005.831 140.175 0 137.789 0 136.255 0 135 .256 135 .57M90.082 46.847c-2.002 3.74-.72 9.016 3.201 13.181C95.327 62.198 97 64.655 97 65.487c0 2.421 1.423 1.759 3.394-1.577 1.318-2.231 2.129-2.787 2.916-2 2.158 2.158 3.69 1.157 3.69-2.41 0-2.444-.452-3.5-1.5-3.5-.825 0-1.5.804-1.5 1.786 0 1.119-.747 1.785-2 1.785-1.1 0-2-.578-2-1.285s-.562-1.301-1.25-1.319c-3.215-.086-6.136-4.06-5.901-8.032.245-4.158-1.112-5.181-2.767-2.088m226.229 13.379c-.536.701-1.981 4.415-3.212 8.254-1.23 3.84-2.612 7.44-3.071 8-1.785 2.182-1.629 7.028.222 6.881 1.305-.103 1.75.617 1.75 2.833 0 1.94.434 2.824 1.25 2.545.71-.243 1.25-2.093 1.25-4.281 0-3.285.369-3.941 2.5-4.447 3.215-.763 3.769-4.218 1.201-7.483-1.678-2.133-1.814-3.157-1.006-7.599.985-5.418.724-6.806-.884-4.703M112 67.55c0 5.687-5.449 11.145-8.96 8.975-2.983-1.844-6.04-1.559-6.04.562 0 1.48.456 1.952 1.5 1.551 1.071-.411 1.5.097 1.5 1.777 0 2.405 4.14 4.586 4.837 2.548.186-.542 1.266-1.483 2.402-2.091 1.672-.895 1.96-.833 1.516.323-.301.786.296 2.526 1.326 3.867C112.139 87.739 112.56 90 111 90c-.55 0-1 .45-1 1s.675 1 1.5 1 1.5.502 1.5 1.115c0 .659 1.105.391 2.699-.653 1.844-1.209 2.821-1.403 3.083-.615.212.634 1.607 1.153 3.101 1.153 1.495 0 3.225.508 3.846 1.129.838.838 1.771.434 3.627-1.568 1.374-1.483 2.857-2.632 3.296-2.553.439.078.975-.389 1.191-1.038.366-1.098-1.133-.899-5.464.725-1.625.609-2.541-2.523-1.375-4.702.548-1.024.996-2.146.996-2.495 0-1.096-4.462.699-5.3 2.133-1.262 2.161-4.7 1.7-4.7-.631 0-1.1-.562-1.888-1.25-1.75-.702.14-1.12-.523-.953-1.513.163-.97-.399-2.031-1.25-2.357-1.547-.594-2.213-2.485-.797-2.262 5.6.885 6.893-2.242 2.769-6.692-1.365-1.473-2.238-3.071-1.941-3.552.297-.481-.162-.874-1.019-.874-1.004 0-1.559.907-1.559 2.55m337.912 77.32c-2.427 1.555-5.238 3.761-6.248 4.902-1.372 1.552-2.633 1.948-5 1.573-3.38-.536-8.149 2.686-7.389 4.994.764 2.324 4.948 1.9 7.406-.751 1.32-1.423 2.962-2.588 3.648-2.588.686 0 3.014-.9 5.171-2 2.158-1.1 4.665-1.765 5.571-1.478.905.288 2.215-.162 2.91-.999.821-.989 3.002-1.523 6.225-1.523 3.527 0 4.839-.361 4.539-1.25-.232-.687-1.282-1.278-2.333-1.312-1.052-.034-2.587-.333-3.412-.666-4.613-1.86-6.811-1.642-11.088 1.098M23.441 298.419c-1.405 1.028-1.948 2.637-1.965 5.832-.023 4.287.062 4.406 3 4.234 3.565-.21 8.058-1.922 8.988-3.426.464-.751 1.254-.745 2.682.019 2.599 1.391 3.259.672 2.427-2.644-.633-2.523-.762-2.572-2.53-.973-1.588 1.437-1.986 1.473-2.702.248-.698-1.193-6.372-4.709-7.6-4.709-.197 0-1.232.639-2.3 1.419m348.542 96.09c-4.444 2.379-5.712 11.491-1.599 11.491.797 0 1.641.563 1.876 1.25.337.987 1.145.962 3.834-.117 7.527-3.02 13.8-3.653 15.402-1.553 1.161 1.52 1.648 1.645 2.339.597 1.193-1.807 7.833-.509 10.369 2.027 1.344 1.344 2.295 1.626 3.135.93 1.17-.971 13.717 1.755 17.571 3.818 3.183 1.703 13.096 3.848 13.649 2.953.307-.498-.037-.905-.765-.905s-2.95-.871-4.937-1.937c-1.987-1.065-6.256-2.694-9.485-3.62-7.719-2.214-8.916-3.184-6.807-5.515 2.026-2.238 1.098-5.583-1.804-6.504-2.667-.846-6.104 2.919-5.217 5.715.727 2.289.218 2.313-3.844.18-1.76-.924-5.454-1.995-8.208-2.381-2.754-.385-7.479-1.929-10.5-3.431-7.124-3.542-12.125-4.541-15.009-2.998M14 524.083c0 .539.787 1.28 1.75 1.648.962.367 2.622 1.478 3.689 2.469 1.906 1.77 1.897 1.8-.55 1.8-1.369 0-2.917-.396-3.439-.881C14.043 527.814 0 526.67 0 527.86c0 .54 1.462 1.269 3.25 1.62 12.06 2.37 14.358 2.935 15.25 3.746 1.778 1.616-2.638 3.774-7.723 3.774-3.379 0-5.013.453-5.415 1.5-.317.825-1.653 1.5-2.969 1.5C.401 540 0 540.502 0 543c0 2.769.273 3 3.544 3 2.82 0 3.484-.357 3.25-1.75-.333-1.979-.698-1.945 8.706-.821 3.85.461 7.888 1.452 8.973 2.204 2.328 1.614 14.1 1.866 15.054.323 1.185-1.917-6.169-7.365-10.039-7.437-.561-.01-2.362-.998-4.004-2.194l-2.984-2.176 2.613-.998c1.437-.548 4.544-.738 6.903-.422 5.72.767 4.545-1.099-1.678-2.666-2.583-.65-5.853-1.986-7.267-2.97-3.464-2.408-9.071-4.269-9.071-3.01" fill="#d3d3d3" fill-rule="evenodd"/></svg>