<svg xmlns="http://www.w3.org/2000/svg" width="500" height="635"><path d="M113.636 2.779c-.338.548 1.068 2.81 3.124 5.027 2.057 2.216 4.535 5.466 5.506 7.221 1.427 2.579 2.038 2.966 3.183 2.015 1.141-.947 1.715-.627 2.944 1.641.84 1.549 1.545 2.255 1.567 1.567.022-.687.653-1.25 1.401-1.25 2.178 0 .738-4.777-2.117-7.023-3.002-2.361-1.825-2.536 3.134-.464 1.992.833 3.622 2.183 3.622 3 0 .818.734 1.487 1.631 1.487 1.31 0 1.517-.699 1.053-3.558-1.386-8.541.86-8.336 10.84.987 4.374 4.085 8.095 7.286 8.269 7.111.669-.669-10.159-15.666-12.037-16.67-2.666-1.427-31.311-2.4-32.12-1.091M232.5 3.978c-1.1.485-1.461.913-.802.952 1.221.071-.176 5.928-1.687 7.07-.364.275-1.512 1.962-2.552 3.75S224.792 19 223.843 19c-.949 0-2.017.472-2.373 1.049-.449.727-1.048.717-1.951-.034-.987-.818-1.79-.414-3.299 1.658-1.842 2.528-1.875 2.923-.437 5.119 2.416 3.687-.426 4.924-3.828 1.665-2.861-2.741-6.955-3.305-6.955-.957 0 1.707-1.568 2.009-2.51.484-.346-.559-1.047-.758-1.559-.441-.512.316-.938-.464-.946-1.734-.012-1.815-.215-1.994-.947-.837-.797 1.261-1.025 1.225-1.591-.25-.816-2.125-4.3-2.268-5.09-.209-.32.832-.025 2.182.654 3 .857 1.033.891 1.487.111 1.487-.617 0-1.122.684-1.122 1.519 0 1.119-.655 1.355-2.486.895-2.059-.517-2.79-.081-4.25 2.534-1.478 2.647-2.209 3.073-4.514 2.63-2.349-.451-2.75-.196-2.75 1.747 0 1.934.525 2.275 3.504 2.275 2.978 0 3.414-.283 2.905-1.886-.526-1.659-.34-1.748 1.546-.738 1.645.88 2.831.844 5.095-.158 2.917-1.292 3.941-2.818 1.891-2.818-.582 0-.781-.45-.441-1 .879-1.422 2.805-1.238 5.059.481 1.68 1.282 1.739 1.616.441 2.485-1.189.795-.941 1.007 1.191 1.019 2.908.016 4.5 1.47 2.777 2.535-.741.458-.708 1.088.106 2.069.878 1.058.886 1.755.031 2.784-.627.756-.86 2.102-.518 2.992.383.999-.005 1.858-1.013 2.245-1.71.656-1.272 4.268.668 5.515.606.39.555.882-.135 1.309-1.601.989-1.359 2.566.393 2.566.933 0 1.5.944 1.5 2.5 0 1.606-.562 2.5-1.571 2.5-1.393 0-1.382.19.09 1.662.915.914 1.959 1.252 2.322.75 1.351-1.87 8.907-1.664 10.867.296 2.029 2.029 1.707 6.32-.529 7.066-.92.306-1.078-.33-.577-2.325.488-1.945.355-2.54-.456-2.039-.63.389-1.146 1.356-1.146 2.149 0 .793-.398 1.441-.883 1.441-.486 0-1.12.902-1.408 2.004-.952 3.64-3.861 1.321-3.143-2.506.668-3.561-.931-5.533-2.895-3.569-.872.872-.848 1.343.099 1.929.971.6.999 1.506.126 4.009-1.305 3.745-.741 4.633 2.943 4.633 2.319 0 2.698.449 2.95 3.5.339 4.105-2.814 7.054-5.319 4.975-.756-.627-2.22-.872-3.254-.543-3.363 1.067-5.957-4.02-7.71-15.121-.459-2.909-1.068-4.033-1.993-3.678-.793.305-1.597-.429-1.986-1.811-.359-1.277-1.128-3.293-1.709-4.479-.803-1.639-.665-2.944.574-5.427 2.446-4.904.592-9.011-2.427-5.374-1.122 1.353-1.689 1.107-4.622-2.003-1.839-1.949-3.343-4.443-3.343-5.541 0-1.099-.441-1.998-.981-1.998-.539 0-1.263-1.125-1.608-2.5-.345-1.375-1.178-2.5-1.85-2.5-1.463 0-3.365-3.531-3.77-7-.198-1.695-.868-2.453-2.079-2.355-.989.08-3.183-1.592-4.917-3.75-5.841-7.268-4.837-3.939 1.699 5.634C168.072 35.77 171 40.542 171 41.135c0 .592 1.374 2.812 3.053 4.932 2.51 3.169 2.942 4.444 2.43 7.17-.673 3.59 1.937 8.123 5.293 9.195 2.394.765 11.562 18.965 11.538 22.903-.011 1.741.555 4.004 1.258 5.03.702 1.025 1.038 2.488.746 3.25-.321.835.123 1.385 1.119 1.385.908 0 1.56.563 1.449 1.25-.111.688.129 2.002.533 2.922.404.919.273 2.534-.291 3.588-.564 1.054-.778 2.861-.476 4.016.302 1.155-.171 3.128-1.052 4.384-2.066 2.951-2.274 7.312-.219 4.606.724-.954 1.61-1.442 1.968-1.084.358.358.651.036.651-.715 0-.881.344-1.023.967-.4 1.43 1.43.121 5.404-1.566 4.757-.907-.348-1.401.151-1.401 1.415 0 1.075-.765 3.485-1.699 5.357-.935 1.872-1.7 4.819-1.7 6.548-.001 2.653-.293 3.035-1.875 2.45-1.721-.636-2.183-2.913-.476-2.344 1.886.629.471-1.372-1.673-2.366-2.346-1.087-2.394-1.023-1.862 2.5.443 2.934.301 3.387-.751 2.4-1.432-1.344-6.504 3.034-5.464 4.716.293.474.13 1.111-.362 1.415-.492.304-1.163-.79-1.491-2.431-.787-3.934-2.169-3.824-2.157.171.006 1.735-.552 3.347-1.24 3.583-.687.236-1.253-.171-1.256-.905-.004-.733-.609-2.488-1.346-3.9-.736-1.411-1.664-3.886-2.061-5.5-1.72-6.983-5.587-9.319-5.587-3.374 0 1.618-.338 2.925-.75 2.905-1.294-.062-5.782-4.342-7.598-7.246-.957-1.53-2.113-2.551-2.568-2.27-.456.282-1.061-1.55-1.345-4.071-.581-5.159-3.205-8.931-4.275-6.145-.335.873.099 2.956.964 4.628.864 1.672 1.572 3.523 1.572 4.112s1.22 2.915 2.712 5.169c1.794 2.711 2.724 5.466 2.75 8.141.022 2.314.573 4.224 1.288 4.464.72.243 1.25-.417 1.25-1.556 0-3.044 2.763-3.482 4.569-.725 1.124 1.716 1.296 2.919.601 4.218-1.04 1.943-1.17 2.477-1.17 4.817 0 2.46-2.992 1.731-3.079-.75-.043-1.238-.3-1.705-.57-1.039-.305.752-1.569.995-3.333.643-2.387-.478-3.083-.112-4.353 2.289-1.395 2.637-1.562 2.703-2.182.857-1.863-5.557-2.95-8.056-3.739-8.598-.478-.328-.909-2.016-.959-3.75-.094-3.311-.699-3.838-2.426-2.111-1.875 1.875-7.314-5.067-12.567-16.041-7.525-15.718-18.892-38.234-20.434-40.473-2.188-3.177-1.673.414.692 4.827 1.127 2.103 2.879 5.922 3.893 8.485 1.913 4.838 4.685 11.03 11.039 24.661 2.051 4.4 4.543 10.25 5.539 13 .995 2.75 2.185 5.428 2.644 5.95 1.268 1.443.942 4.824-.669 6.953-1.272 1.681-1.513 1.716-2.057.298-.339-.883-.326-2.075.029-2.649.355-.574-.618-1.603-2.162-2.286-1.543-.684-3.401-1.81-4.127-2.504-2.064-1.971-4.417-1.587-3.721.606.326 1.027.143 3.052-.408 4.5-.643 1.693-.652 2.632-.025 2.632.536 0 .975.675.975 1.5 0 1.819-2.376 1.978-3.747.25-2.54-3.2-3.44-8.669-1.926-11.703 1.717-3.443.624-5.017-3.717-5.351-2.523-.193-2.866-.867-1.824-3.582.892-2.324-1.339-4.638-4.171-4.326-2.408.265-2.616-.012-2.63-3.5-.012-2.814-.265-3.402-.985-2.288-.731 1.132-.973.669-.985-1.884C101.997 105.058 100.006 98 98.88 98c-.443 0-.693 2.725-.558 6.056.313 7.662-1.375 9.664-4.667 5.536-1.695-2.126-2.897-2.69-5.181-2.43-2.835.322-2.971.556-2.916 5.004.073 5.938 1.647 7.834 6.505 7.834 3.66 0 6.563-1.958 4.114-2.774-2.738-.913-1.24-4.15 1.821-3.936 3.814.267 4.296 4.69.779 7.153-1.222.856-1.672 1.557-1 1.557.673 0 1.223.605 1.223 1.344 0 2.629 4.829 7.227 6.175 5.881 1.524-1.524 2.825-1.579 2.825-.119 0 .608 1.125 1.991 2.5 3.073 2.936 2.309 3.279 4.821.66 4.821-1.012 0-2.98 1.601-4.372 3.557-2.291 3.22-2.678 3.41-4.088 2-2.615-2.615-6.62-1.974-7.998 1.28-.675 1.593-1.775 2.644-2.51 2.397-1.558-.523-5.192 2.533-5.192 4.366 0 1.197-1.494 2.241-8 5.589-1.375.708-3.062 1.967-3.75 2.799-1.107 1.34-1.405 1.312-2.61-.238-1.7-2.186-2.64-2.232-2.64-.128 0 1.179-.342 1.342-1.25.596-.687-.564-2.375-1.193-3.75-1.396-1.455-.215-2.378-.934-2.208-1.721.911-4.224-6.621-6.569-11.285-3.514l-2.422 1.587 2.458 2.278c2.963 2.746 3.02 3.167.522 3.821-1.398.365-1.782 1.092-1.384 2.616.319 1.217.079 2.111-.564 2.111-.615 0-1.117-.635-1.117-1.411 0-1.972-5.924-6.753-7.883-6.362-1.117.222-1.617 1.396-1.617 3.797 0 1.912-.351 4.018-.781 4.68-.429.662-.501 2.314-.161 3.672.55 2.19.329 2.435-1.969 2.183-1.96-.215-2.589.168-2.589 1.579 0 2.615-1.289 2.302-2.656-.646-.938-2.022-.891-2.492.25-2.492.773 0 1.406-.477 1.406-1.059s-.418-.801-.928-.485c-.51.315-1.217-.338-1.571-1.452-.934-2.944-6.495-5.743-6.516-3.28-.011 1.332-.33 1.153-1.275-.715-2.567-5.073-7.71-2.93-7.71 3.214 0 1.578-.654 3.091-1.473 3.405-2.025.777-3.087 6.992-1.518 8.883.68.819 2.756 1.489 4.613 1.489 1.858 0 3.378.477 3.378 1.059s-.45.781-1 .441c-.575-.355-1.007.576-1.015 2.191-.012 2.162-.234 2.464-.965 1.309-.529-.836-2.403-1.5-4.234-1.5-2.997 0-3.258-.242-2.964-2.754.213-1.817-.221-2.962-1.275-3.367-1.008-.386-1.276-1.031-.726-1.746.479-.623.887-3.424.907-6.224.02-2.8.344-6.059.719-7.243.518-1.632.333-2.019-.762-1.598-2.219.851-4.114-5.281-2.218-7.177.784-.785 1.973-1.306 2.641-1.159.668.147 1.547-.857 1.954-2.232.693-2.345.745-2.362.838-.281.065 1.444.578 2.035 1.469 1.693.822-.315 1.592.331 1.929 1.618.373 1.428 1.168 2.012 2.381 1.748 1.002-.218 1.658-1.045 1.459-1.837-.199-.793-.677-4.012-1.062-7.155-.668-5.449-2.361-8.591-6.193-11.489-1.045-.791-1.462-2.208-1.18-4.01C12.476 118.964 11.635 114 7.945 114c-2.538 0-3.506 3.722-1.535 5.9 1.742 1.926 2.192 8.1.59 8.1-.55 0-1.052-1.237-1.116-2.75-.067-1.585-.305-2.032-.563-1.055-.259.984-1.049 1.463-1.884 1.143-1.327-.51-2.141 4.543-1.514 9.401.088.681-.342 2.175-.954 3.319-.917 1.713-.747 2.4.958 3.879C4.04 143.769 4.815 145.622 3 144.5c-.582-.36-1 .637-1 2.382 0 1.65-.389 3.241-.865 3.535-.476.294-.735 1.719-.576 3.168.159 1.448.603 10.347.987 19.774.874 21.461.848 21.205 2.405 23.082.994 1.198 1.009 1.559.064 1.559-.676 0-.996.606-.712 1.347.284.741-.07 4.229-.788 7.75-1.854 9.098-1.798 3.39-2.214 225.658L-.078 635.01l72.789-.155c40.034-.085 70.454-.435 67.6-.777-6.099-.731-6.187-.795-6.631-4.844-.188-1.716-.889-3.781-1.559-4.588-.827-.997-.882-1.676-.17-2.116.577-.356 1.049-2.196 1.049-4.089 0-1.893.42-3.441.933-3.441.513 0 1.247-.992 1.632-2.203.384-1.212 1.34-2.845 2.124-3.629.785-.784 1.189-2.043.9-2.797-.732-1.906.362-4.371 1.939-4.371.722 0 1.61-1.35 1.972-3 .713-3.246 2.46-4.098 2.563-1.25.047 1.289.312 1.13 1.007-.605.63-1.573 1.465-2.154 2.518-1.75.867.333 1.989.605 2.494.605 1.427 0 1.081 2.62-.523 3.951-.792.657-1.192 1.842-.888 2.633.386 1.006.067 1.253-1.06.82-1.228-.471-1.611.002-1.611 1.989 0 1.434.45 2.607 1 2.607s1 .884 1 1.965c0 2.37 2.074 3.543 7.812 4.42 6.269.957 11.325-.742 14.761-4.962 1.61-1.977 3.895-4.579 5.078-5.781 1.183-1.203 2.308-3.302 2.5-4.665.192-1.363 1.023-2.489 1.849-2.503 2.015-.036 4-1.35 4-2.65 0-.581-.925-.815-2.055-.52-2.589.677-4.076-2.721-3.296-7.53.627-3.861-.944-5.729-5.199-6.182-3.873-.413-4.806-2.856-4.079-10.676.404-4.34.252-7.031-.418-7.445-1.201-.742.615-3.471 2.309-3.471 1.434 0 3.668-3.166 3.706-5.25.04-2.212-1.55-2.283-2.385-.107-.346.904-.855 1.418-1.13 1.143-1.206-1.206.979-3.786 3.206-3.786 1.818 0 2.713.77 3.491 3 .575 1.65 1.399 3 1.831 3 .432 0 1.016.879 1.296 1.953.668 2.554 6.944.609 6.5-2.014-.15-.882.486-3.142 1.412-5.022.926-1.879 1.926-4.211 2.222-5.182.296-.971 1.786-2.24 3.312-2.82 4.128-1.569 6.279-3.911 6.263-6.82-.029-5.605-.984-6.826-7.076-9.048-5.985-2.182-7.782-4.842-4.556-6.747 2.329-1.376 3.575-4.676 2.494-6.607-.88-1.572 11.796-29.842 14.211-31.693.359-.275.967-2.211 1.352-4.303.385-2.091 1.35-4.052 2.144-4.357.952-.365 1.445-2.032 1.445-4.888 0-2.384.45-4.612 1-4.952.55-.34 1-1.506 1-2.59 0-1.085.678-2.233 1.506-2.551.828-.317 1.785-2.328 2.127-4.468.373-2.329 1.174-3.891 1.995-3.891.755 0 1.372-.904 1.372-2.008 0-1.759.249-1.853 2-.76 1.1.687 2 2.266 2 3.509 0 1.242.423 2.259.941 2.259 1.462 0 2.262-1.865 1.394-3.25-.43-.687-.794-1.925-.809-2.75-.031-1.793 8.593-11 10.304-11 .659 0 2.455-1.406 3.99-3.125 1.828-2.045 3.729-3.125 5.505-3.125 1.491 0 2.959-.401 3.262-.891.303-.491 1.02-.602 1.594-.247 1.518.938 2.972-1.871 1.516-2.93-.803-.584-.646-.695.476-.337 1.202.383 1.979-.342 2.757-2.574l1.083-3.107 2.397 2.252c2.289 2.15 2.449 2.169 3.552.418.845-1.343 1.298-1.488 1.693-.542.406.971.877 1.012 1.9.163.748-.621 3.196-1.203 5.44-1.292 2.244-.09 4.4-.658 4.792-1.263.877-1.354 5.437-3.903 6.463-3.612.413.116.75-.688.75-1.788 0-1.147.667-2 1.563-2 1.032 0 1.457-.735 1.25-2.166-.282-1.953.202-2.197 4.937-2.487 5.211-.319 5.25-.3 5.25 2.607 0 1.61-.477 3.223-1.059 3.582-.583.36-.934 1.625-.781 2.81.153 1.184-.053 2.685-.457 3.335-.405.649-.309 1.444.212 1.766.521.322 1.229.128 1.575-.431.345-.559.264-1.023-.181-1.031-.94-.017 3.41-2.667 5.849-3.561.911-.335 1.882-1.467 2.156-2.516.588-2.248 3.686-2.591 3.686-.408 0 1.816 1.635 1.991 2.338.25.301-.747.536-.545.583.5.048 1.057.871 1.75 2.079 1.75 2.74 0 2.536 1.785-.25 2.18-1.608.229-2.171.9-1.974 2.353.152 1.119-.536 2.919-1.529 4-.992 1.082-1.642 2.776-1.443 3.765.199.989-.165 2.432-.808 3.206-1.477 1.78-.464 3.496 2.063 3.496 1.068 0 1.941.439 1.941.975 0 .627.893.636 2.5.025 2.887-1.098 3.137-.355.937 2.786-1.414 2.019-1.414 2.38-.007 3.786.855.856 1.945 1.314 2.422 1.02 1.464-.905 6.188 1.805 5.648 3.24-.275.732-.507 2.082-.515 3-.031 3.309-1.624 4.671-3.394 2.902-.875-.875-1.591-2.325-1.591-3.222 0-.896-.45-1.352-1-1.012-1.822 1.126-1.214 5.519.664 4.799 1.059-.407 1.42-.244.994.446-.369.596-.138 1.262.513 1.479 1.857.619-.046 2.772-2.48 2.808-2.034.029-2.066.127-.441 1.36 2.117 1.607 2.289 4.464.313 5.222-.79.303-1.208 1.147-.929 1.876.589 1.534-2.091 9.982-4.196 13.225-.791 1.218-1.438 2.912-1.438 3.763 0 1.803-1.761 5.08-4.25 7.91-.963 1.094-1.75 2.47-1.75 3.059 0 .588-1.125 3.182-2.5 5.765-2.538 4.768-3.182 7.788-1.661 7.788.462 0 1.358-1.138 1.992-2.528.633-1.391 1.831-2.789 2.66-3.107.83-.318 1.509-1.221 1.509-2.006 0-.784 1.575-2.356 3.5-3.492 1.925-1.135 3.5-2.695 3.5-3.466 0-.77 1.012-1.453 2.25-1.517 1.693-.087 1.817-.229.5-.573-.962-.252-1.75-1.126-1.75-1.943 0-.817-.457-1.203-1.016-.858-.559.346-.777 1.016-.484 1.49.597.966-1.344 2.489-2.148 1.686-.926-.927 1.681-4.686 3.251-4.686 1.055 0 1.342-.597.923-1.917-.488-1.537-.217-1.815 1.365-1.401 1.578.412 1.869.117 1.454-1.47-.286-1.093-.072-2.263.474-2.6.546-.338.758-1.514.47-2.613-.287-1.099-.103-1.999.409-1.999 1.21 0 4.302-6.493 4.302-9.034 0-1.081.454-1.966 1.01-1.966.585 0 .807-1.576.529-3.75-.554-4.328 2.227-12.884 3.707-11.404.586.586.481 1.795-.276 3.211-.747 1.394-1.008 4.287-.677 7.492.361 3.495.071 6.124-.877 7.95-.779 1.502-1.416 4.028-1.416 5.615 0 1.587-.45 2.886-1 2.886s-1 .389-1 .863c0 .475.835.813 1.856.75 2.494-.152 7.006-5.675 7.774-9.513.593-2.963 1.337-3.536 4.12-3.175.688.09 1.25-.307 1.25-.881 0-.574.623-1.044 1.383-1.044.761 0 1.619-.9 1.907-2 .637-2.438 2.021-2.546 4.238-.329 1.548 1.548 1.867 1.551 4.322.045 1.457-.895 2.518-2.322 2.356-3.171-.161-.85.09-1.545.559-1.545 2.469 0 4.352-2.688 3.7-5.282-.373-1.487-1.1-2.444-1.615-2.125-1.003.62-3.85-1.319-3.85-2.622 0-.431.97-.53 2.156-.22 1.47.385 1.931.198 1.446-.586-.391-.632-.25-1.94.313-2.907.955-1.639 1.026-1.628 1.055.159.016 1.054.298 1.649.625 1.321.954-.953-.661-6.815-1.7-6.173-.569.352-.684-1.029-.291-3.491.774-4.839-1.303-5.828-2.254-1.074-.33 1.65-.656 3.023-.725 3.051-.069.028-2.15.301-4.625.608s-5.029.986-5.676 1.51c-.647.524-1.772.831-2.5.682-1.67-.341-5.958 1.979-7.484 4.05-.975 1.322-1.272.978-1.86-2.156-.777-4.142-.035-7.206 1.513-6.249.554.342 1.007.145 1.007-.437s-.562-1.073-1.25-1.091c-.763-.019-.569-.549.5-1.36.962-.731 1.75-2.066 1.75-2.968 0-.902.505-1.64 1.122-1.64.78 0 .809-.382.095-1.25-1.611-1.959-1.29-8.75.414-8.75.788 0 1.691-.675 2.007-1.5.317-.825 1.203-1.5 1.969-1.5 1.609 0 1.872-3.121.387-4.606-.674-.674-.344-1.715 1-3.158 1.104-1.184 2.006-2.846 2.006-3.694 0-.978.914-1.542 2.5-1.542 1.375 0 2.5.45 2.5 1s-.937 1-2.083 1c-1.146 0-1.922.484-1.725 1.075.197.591.684 1.041 1.083 1 .399-.041 1.798-.075 3.108-.075 2.114 0 4.814-4.963 2.728-5.015-2.839-.071-3.095-1.91-.611-4.394 1.606-1.606 2.442-3.3 2.087-4.226-1.291-3.364.719-3.264 2.536.126 1.064 1.985 1.689 4.005 1.389 4.489-.299.485-.135 1.135.365 1.444 1.1.68 2.443-4.097 1.556-5.533-.346-.559.094-1.816.977-2.792 1.481-1.636 1.455-1.912-.339-3.535-1.07-.968-2.423-1.464-3.008-1.103-2.258 1.396-.864-2.06 1.536-3.809 2.46-1.792 2.578-1.792 3.879-.013 1.3 1.778 1.405 1.777 3.406-.034 1.136-1.028 2.332-2.709 2.658-3.737.326-1.027 1.237-1.868 2.025-1.868.84 0 1.433-.979 1.433-2.365 0-1.301.835-3.438 1.855-4.75 1.02-1.312 2.157-4.027 2.526-6.034.37-2.006 1.526-4.734 2.57-6.062 1.287-1.636 1.606-2.877.991-3.851-.5-.791-.641-3.013-.314-4.938.556-3.269.497-3.371-.905-1.542-.825 1.077-1.343 2.427-1.151 3 .193.573-1.182 2.017-3.055 3.209-2.106 1.34-3.545 1.749-3.77 1.073-.715-2.144-2.75.4-2.17 2.712.322 1.281.131 2.61-.424 2.953-1.283.794-2.4-2.598-1.569-4.764.35-.912.138-1.641-.477-1.641-.609 0-1.107.675-1.107 1.5s-.675 1.5-1.5 1.5-1.5.675-1.5 1.5-.661 1.5-1.469 1.5c-.847 0-1.241-.592-.931-1.399.295-.769.056-1.696-.532-2.059-.587-.363-1.031-1.871-.987-3.351l.081-2.691 1.219 2.75c1.231 2.776 3.619 2.172 3.619-.915 0-.695.9-1.746 2-2.335 2.237-1.197 2.775-3.511.624-2.686-1.677.644-4.251-4.308-2.728-5.25.594-.367.646-1.188.127-2.026-.721-1.167-1.142-1.184-2.447-.101-1.325 1.099-1.576 1.049-1.576-.315 0-2.382-1.922-1.976-2.969.628-.497 1.238-.933 1.72-.968 1.071-.034-.648-.782-1.897-1.66-2.775-2.921-2.921 2.353-7.736 6.519-5.952.868.371 3.027.673 4.798.671 2.316-.003 3.671.683 4.825 2.444 1.037 1.583 2.168 2.231 3.199 1.836.878-.337 1.945-.048 2.372.642.426.69 1.124.906 1.551.48.426-.427.113-1.194-.696-1.706-.996-.63-1.068-.935-.221-.946.688-.008 1.25-.492 1.25-1.074 0-.582-.453-.779-1.007-.437-.554.343-1.277-.081-1.607-.941-.33-.859-1.227-1.563-1.993-1.563s-1.407-.788-1.425-1.75c-.039-2.161-2.291-5.25-3.828-5.25-.627 0-1.14-1.366-1.14-3.035 0-2.714.209-2.923 1.977-1.977 1.088.582 2.397 2.51 2.91 4.285.513 1.775.973 2.413 1.023 1.418.049-.995.535-1.534 1.079-1.198 1.218.753 8.028-2.374 8.639-3.966 1.306-3.404-1.302-6.027-5.992-6.027-2.548 0-4.636.225-4.642.5-.011.549-5.227 3.125-5.547 2.74-.109-.132-.522-1.291-.917-2.576-.668-2.169-.559-2.25 1.527-1.133 1.936 1.036 2.161.978 1.626-.415-.435-1.133-.032-1.653 1.348-1.741 2.796-.177 3.204-.298 5.719-1.696 3.132-1.74 2.807-3.179-.719-3.179-2.178 0-2.821-.385-2.413-1.446.467-1.217.066-1.261-2.532-.28-1.794.677-3.086 1.882-3.086 2.878 0 .942-.9 1.999-2 2.348-1.1.349-2 1.279-2 2.067 0 1.706-.379 1.733-5.25.38-3.7-1.027-5.166-2.947-2.25-2.947.825 0 1.5-.45 1.5-1s-.675-1-1.5-1c-2.371 0-1.744-1.826.75-2.184 1.724-.247 2.186-.892 1.978-2.757-.34-3.052-.298-3.017-3.809-3.235-1.605-.1-3.662-.806-4.57-1.568-1.03-.865-1.882-1.012-2.266-.39-.339.548-.158 1.278.401 1.624 1.957 1.209 1.147 3.686-.984 3.01-1.526-.484-1.963-.204-1.842 1.183.323 3.693-.198 5.317-1.703 5.317-1.225 0-1.409.727-.889 3.5.714 3.806-1.317 5.169-2.27 1.524-.409-1.564-.897-1.772-2.341-1-2.364 1.265-4.244 1.252-3.455-.024.34-.55-.084-1-.941-1s-1.447.506-1.309 1.125c.137.619-.312 1.331-1 1.583-.687.252-1.25-.029-1.25-.625s-.6-1.083-1.333-1.083c-2.022 0-1.595-3.206.5-3.754 1.008-.264 1.833-.907 1.833-1.43 0-.523-1.012-.644-2.25-.27l-2.25.681 2.25-2.152c1.238-1.184 2.25-3.035 2.25-4.114 0-1.228.679-1.961 1.815-1.961 2.109 0 5.612-6.509 4.477-8.319-.408-.649-.613-1.968-.454-2.931.158-.962-.246-1.75-.898-1.75-.887 0-.872-.377.06-1.5.752-.906.833-1.5.206-1.5-.572 0-1.266.562-1.544 1.25-.277.688-.54.208-.583-1.066-.099-2.898 1.72-6.426 2.927-5.68.499.308.665 1.333.369 2.278-.499 1.593-.433 1.59.904-.032 1.515-1.839 6.721-2.445 6.721-.781 0 .532-.629.727-1.399.431-1.605-.616-3.105 1.17-1.708 2.034 1.709 1.056 4.285-.645 3.798-2.507-.258-.989.1-2.017.798-2.284 2.048-.786 3.447 1.428 2.835 4.487-.439 2.197-.144 2.976 1.304 3.445 4.228 1.369 6.367 2.85 6.126 4.243-.398 2.308 2.313 2.641 2.911.357.292-1.12 1.213-2.298 2.045-2.617 1.178-.452 1.379-.049.908 1.826-.41 1.634-.124 2.592.889 2.98.821.315 1.493 1.514 1.493 2.664 0 1.149-.45 1.812-1 1.472-.55-.34-1 .117-1 1.014 0 1.018.659 1.504 1.75 1.291 2.245-.438 5.231 2.08 4.555 3.842-.285.744-.021 1.353.588 1.353s1.107-.9 1.107-2c0-1.27.667-2 1.826-2 2.094 0 5.807-3.666 6.324-6.244.32-1.595.595-1.617 3.204-.256 1.57.819 3.145 1.32 3.5 1.112.355-.207 1.674.011 2.932.486 2.137.808 2.194 1.043.873 3.633-1.65 3.235-1.669 10.434-.028 10.98.971.323 1.989-1.895 2.923-6.367.379-1.817 2.382-4.962 2.416-3.795.017.607 1.505.877 3.53.641 2.719-.318 3.5-.05 3.5 1.201 0 .885.434 1.609.965 1.609 1.187 0 3.035-3.309 3.035-5.434 0-2.336-1.934-1.89-2.969.684-.776 1.931-.913 1.699-.968-1.64-.042-2.6.517-4.318 1.687-5.182 1.37-1.012 1.488-1.56.542-2.518-.952-.967-1.533-.955-2.75.055-.848.704-1.542.865-1.542.357 0-1.482 2.259-3.322 4.078-3.322.923 0 2.316-.961 3.096-2.136l1.418-2.135 1.727 2.635c.95 1.45 1.267 2.636.704 2.636s-1.023.45-1.023 1-.916 1.916-2.036 3.036c-1.121 1.121-1.765 2.477-1.433 3.015.333.538 2.871-1.276 5.641-4.032 2.769-2.755 5.472-4.739 6.006-4.409.533.33 2.004-.372 3.268-1.559 2.016-1.894 2.375-1.961 2.919-.542.342.89.997 1.385 1.457 1.101 2.007-1.24 18.325-.99 19.118.293.642 1.039 1.266 1.057 3.071.091 1.246-.667 3.441-1.351 4.877-1.52 5.547-.654 11.697-2.676 13.612-4.474 1.704-1.601 3.901-1.921 14.85-2.163 11.532-.256 12.994-.49 14.25-2.284 1.218-1.738 1.4-1.774 1.4-.276 0 1.174.802 1.723 2.517 1.723h2.516l-.081-38.75c-.089-42.167-2.277-123.908-3.346-124.977-.365-.365-1.213-.749-1.885-.852-.672-.103-5.046-1.323-9.721-2.712-16.132-4.794-20.446-4.557-38.422 2.111-6.608 2.45-11.023 4.766-13.217 6.93-3.886 3.833-5.108 4.054-5.541 1-.264-1.853-1.026-2.294-4.32-2.501-2.2-.138-5.111-.363-6.469-.5-3.619-.365-3.984 3.08-.611 5.769l2.645 2.109-3.527 3.631c-1.94 1.997-3.13 3.876-2.646 4.176.485.299 1.437-.126 2.117-.945 1.589-1.915 2.991-1.906 2.991.02 0 2.2-5.164 7.642-6.694 7.055-.802-.308-1.306.258-1.306 1.467 0 1.203-.681 1.975-1.75 1.984-1.34.012-1.438.214-.416.861 1.054.669.966.987-.42 1.519-2.076.796-3.732-1.307-2.344-2.979.631-.76.446-1.573-.546-2.396-1.225-1.017-1.62-.934-2.151.451-.358.933-1.601 2.048-2.762 2.478-1.899.703-1.784.853 1.139 1.496 3.508.771 4.025 1.992 1.899 4.476-.744.869-2.431 3.601-3.75 6.073-1.32 2.472-2.745 4.947-3.168 5.5-3.248 4.251-4.769 5.601-5.678 5.039-.579-.358-1.053-.207-1.053.335 0 1.548-5.737 4.014-7.978 3.428-1.112-.291-2.022-1.178-2.022-1.972 0-.793-.45-1.164-1-.824-.55.34-1-.271-1-1.358 0-2.791-3.721-11.142-4.964-11.142-.57 0-1.036-.675-1.036-1.5s-.499-1.5-1.108-1.5c-1.541 0-.197-4.986 2.021-7.5 1.755-1.989 11.087-17.327 11.087-18.222 0-.258.916-1.756 2.036-3.329 4.452-6.252 15.543-27.703 14.739-28.507-.557-.557-5.775 7.059-5.775 8.43 0 .503-1.554 3.55-3.453 6.771-1.9 3.222-4.411 7.597-5.581 9.724-1.877 3.414-10.41 17.164-16.368 26.376-1.154 1.784-2.845 3.246-3.758 3.25-2.393.01-12.84-6.191-12.84-7.62 0-.664-.562-1.433-1.25-1.711-1-.403-1-.52 0-.583 1.473-.093 1.716-3.079.25-3.079-.55 0-1-.834-1-1.854s-1.125-3.068-2.5-4.551c-1.375-1.484-2.5-3.077-2.5-3.54 0-1.387-2.839-2.037-3.273-.749-.296.881-.851.823-2.115-.22-1.518-1.253-1.778-1.165-2.285.771-.451 1.724-.862 1.944-1.949 1.042-2.042-1.695-1.674-3.803.872-4.994 4.392-2.054 10.421-12.144 6.315-10.568-.79.303-1.624.013-1.854-.643-.286-.816-1.099-.591-2.565.711-2.511 2.229-2.756 3.595-.646 3.595.825 0 1.5.675 1.5 1.5 0 1.944-1.659 1.931-2.752-.022-.761-1.358-1.194-1.351-4.03.063-1.748.872-3.439 2.007-3.757 2.522-1.061 1.716-7.073 1.023-8.93-1.029-.979-1.082-2.736-1.869-3.905-1.75-1.856.189-2.138-.324-2.218-4.034-.051-2.338.286-4.25.75-4.25.463 0 .842-.675.842-1.5 0-.833.889-1.5 2-1.5 2.167 0 2.676-1.464.893-2.566-1.487-.919.872-2.398 3.857-2.419 1.238-.008 2.25-.492 2.25-1.074 0-.582.47-.769 1.044-.414.574.355 1.694.106 2.488-.554 1.149-.953 1.571-.869 2.063.414.62 1.615 7.535 2.434 7.287.863-.401-2.537.35-4.252 1.868-4.265 1.281-.012 1.407-.233.472-.827-.928-.588-.585-1.127 1.25-1.963 1.448-.66 2.528-1.986 2.528-3.105 0-1.075 1.245-2.84 2.766-3.923 4.508-3.211 10.257-16.049 10.964-24.489.54-6.444 3.243-13.025 3.285-7.999.013 1.541.164 1.59.982.321.683-1.061.504-1.845-.611-2.68-1.57-1.175-1.167-7.32.481-7.32 1.569 0 .896-4.338-.986-6.35-1.206-1.29-1.84-3.05-1.584-4.4.234-1.238.08-2.25-.342-2.25-.422 0-.532-.9-.245-2 .407-1.555.031-2-1.687-2-1.369 0-2.409-.761-2.733-2-.29-1.107-1.364-2-2.407-2-1.035 0-1.883-.35-1.883-.777 0-.428-1.287-2.186-2.859-3.908C341.195 9.091 339.492 5 341.094 5a.91.91 0 0 0 .906-.909c0-1.183-106.821-1.293-109.5-.113M25.616 16.75c-.34.962-.879 2.313-1.2 3-.321.689.059 1.25.846 1.25 2.279 0 4.457 3.174 5.147 7.5 2.103 13.191 2.429 18.335 1.576 24.894-1.084 8.345-1.198 11.152-.42 10.374 3.055-3.054 5.576-36.576 2.917-38.783-.815-.676-1.482-2.329-1.482-3.673 0-5.449-5.806-9.036-7.384-4.562m42.007 3.582c-.302 1.156.108 2.818.915 3.71.804.888 1.462 2.902 1.462 4.475 0 3.513 3.889 9.467 6.191 9.476.93.004 1.969.457 2.309 1.007 1.425 2.306 2.739.861 2.206-2.427-1.732-10.668-11.401-22.672-13.083-16.241m14.399 3.235c-.012.587 1.328 3.707 2.978 6.933 1.65 3.226 3 6.459 3 7.183 0 .724.378 1.317.839 1.317.847 0 3.161 4.359 3.161 5.953 0 .473-.97.606-2.157.296-1.977-.517-2.1-.286-1.488 2.778.368 1.838 1.338 4.082 2.157 4.986.818.905 1.488 2.569 1.488 3.699 0 2.44 4.58 3.826 5.419 1.64.285-.744.921-1.352 1.414-1.352 1.465 0 4.284 8.526 3.506 10.601-.624 1.661-.507 1.731.933.561 1.434-1.166 1.727-1.015 2.277 1.177.347 1.384 1.266 2.76 2.041 3.057 1.755.674 1.759.2.027-3.745-.76-1.733-1.94-4.614-2.621-6.401-.681-1.788-1.634-3.25-2.117-3.25-.484 0-.879-1.392-.879-3.094 0-2.207-.549-3.237-1.915-3.594-1.054-.276-2.209-1.669-2.567-3.095-.358-1.427-1.46-3.747-2.449-5.156-.99-1.409-3.438-5.711-5.441-9.561-3.831-7.363-7.568-12.736-7.606-10.933M156 52.5c-1.229 3.234.158 6.902 3.418 9.038 1.38.904 4.124 4.078 6.098 7.053 3.433 5.172 5.484 6.756 5.484 4.238 0-.644-.787-2.06-1.75-3.146-1.283-1.448-1.416-2.092-.5-2.412 1.78-.623 1.575-1.39-1.251-4.677-1.375-1.598-2.499-3.77-2.499-4.826 0-2.053-5.112-7.768-6.948-7.768-.606 0-1.529 1.125-2.052 2.5M.209 78.353c-.048 1.698.39 3.664.974 4.368.755.91.738 1.279-.061 1.279-1.453 0-1.49 9.904-.05 13.685.589 1.548 1.238 5.676 1.441 9.173.418 7.191.687 7.81 2.467 5.666.991-1.194 1.004-1.839.056-2.98-.664-.801-.915-1.93-.557-2.51 2.742-4.436.632-30.51-2.536-31.339-1.254-.328-1.667.306-1.734 2.658M389.354 312.52c-.482 1.256-.819 1.346-1.417.378-.632-1.022-1.092-1.014-2.361.039-1.891 1.569-2.054 3.736-.326 4.316.974.327.932 1.016-.188 3.118-.888 1.668-1.988 2.488-2.878 2.146-1.136-.436-1.311.1-.824 2.531.389 1.946-.136 5.318-1.422 9.135-2.58 7.659-1.849 8.549 1.535 1.869 1.435-2.83 3.291-5.408 4.125-5.728.834-.32 1.286-1.185 1.003-1.921-.282-.736-.065-1.616.483-1.955.549-.339.709-1.526.356-2.638-.407-1.28.321-3.792 1.982-6.843 1.639-3.012 2.237-5.06 1.594-5.457-.567-.35-1.315.104-1.662 1.01m100.301 8.309c-5.193 5.737 1.51 15.347 8.763 12.564 1.945-.746 2.251-11.324.382-13.193-1.822-1.822-7.266-1.447-9.145.629m-159.166 22.205c-.726 2.288.416 4.966 2.118 4.966 1.589 0 1.869 1.588.437 2.473-.526.325-.703 1.252-.393 2.059.328.856-.016 1.468-.826 1.468-.783 0-1.485 1.164-1.61 2.669-.297 3.594-.47 3.669-4.525 1.975-1.94-.811-3.789-1.212-4.108-.892-1.224 1.224-.499 3.139 1.418 3.748 1.1.349 2 1.454 2 2.456 0 1.29 1.021 2.013 3.5 2.478 3.484.654 4.922 2.566 1.929 2.566-3.06 0-4.712 2.852-4.137 7.141.521 3.885.45 4.011-1.925 3.415l-2.466-.619 2.477 4.437c1.362 2.441 2.21 4.705 1.883 5.032-.327.327.381.594 1.572.594 2.373 0 2.77-.997 1.074-2.693-1.761-1.761.737-5.555 3.154-4.788 1.707.542 1.939.117 1.939-3.545 0-3.32.404-4.267 2-4.684 2.417-.632 2.572-1.871.386-3.094-1.329-.744-1.405-1.293-.43-3.114.988-1.846 1.436-2.001 2.715-.94 1.97 1.635 4.156 1.946 4.926.702.332-.538-.263-1.205-1.323-1.483-2.097-.548-5.613-5.689-4.59-6.712.348-.347 1.264-.107 2.037.534 1.167.969 1.291.715.736-1.499-.491-1.956-.242-2.829.937-3.282.883-.339 1.592-1.58 1.574-2.759-.029-1.994-.124-2.022-1.36-.393-.731.962-1.564 1.75-1.852 1.75-.404 0-.295-4.178.18-6.861.035-.198.912.687 1.949 1.968 1.617 1.996 2.116 2.137 3.5.988 2.605-2.161 2.061-4.424-.885-3.684-1.828.458-2.5.227-2.5-.861 0-.911-.581-1.264-1.5-.912-.825.317-1.5 1.203-1.5 1.969s-.684 1.393-1.519 1.393c-1.1 0-1.355-.656-.923-2.375.516-2.057.185-2.436-2.469-2.825-2.259-.332-3.206-.007-3.6 1.234M287 427.709c-5.09 1.872-5.713 4.03-3.429 11.887 1.74 5.987 2.989 6.566 7.393 3.43 7.894-5.621 4.573-18.455-3.964-15.317m-91.268 50.827c-2.053 1.395-3.732 2.022-3.732 1.393 0-.645-.709-.871-1.627-.519-.894.344-2.172.172-2.838-.381-.843-.7-2.853-.187-6.623 1.689-4.421 2.201-5 2.761-3.162 3.058 2.762.446 2.858 1.363.31 2.954-2.135 1.334-2.394 5.27-.347 5.27.708 0 1.287.4 1.287.889s.787.826 1.75.75c1.154-.092 1.649.461 1.453 1.624-.434 2.581 2.798 3.456 4.445 1.203 1.055-1.442 1.627-1.591 2.556-.662 1.754 1.754 3.794 1.458 3.811-.554.012-1.362.206-1.449.874-.395.969 1.529 4.111-3.766 4.111-6.925 0-.97.492-1.927 1.094-2.128 1.065-.355 1.921-9.805.888-9.803-.285.001-2.197 1.142-4.25 2.537m86.997 50.643c-1.521 1.108-4.132 4-5.801 6.426-2.596 3.774-12.456 12.395-14.175 12.395-.311 0-.33-.9-.043-2 .402-1.535.031-2-1.593-2-1.408 0-2.117.632-2.117 1.887 0 3.262-6.296 11.786-10.345 14.006-4.561 2.5-5.655 2.617-5.655.607 0-2.213-1.247-1.867-6.641 1.842-2.926 2.012-4.991 4.237-5.191 5.593-.186 1.264-1.662 2.978-3.365 3.908-1.669.912-4.794 3.094-6.945 4.85-2.151 1.756-5.907 4.19-8.346 5.408s-4.189 2.612-3.889 3.098c.818 1.324 3.871.123 14.775-5.812 5.443-2.963 10.926-5.387 12.184-5.387 3.162 0 32.364-23.756 38.107-31 .979-1.235 1.551-1.279 3.237-.25 1.126.688 2.503 1.25 3.06 1.25 1.677 0 1.141-2.829-.736-3.886-1.587-.893-1.459-1.293 1.38-4.299 3.096-3.279 5.843-7.675 5.199-8.319-.183-.183-1.578.574-3.1 1.683m-82.839 59.105c-4.168 2.564-15.544 14.344-16.455 17.038-.353 1.046-1.217 1.592-2.025 1.282-.922-.354-1.41.147-1.41 1.449 0 1.121-1.031 2.46-2.361 3.066-1.299.591-3.077 2.577-3.952 4.411-1.244 2.61-2.292 3.405-4.812 3.653-4.487.442-5.042 2.817-.658 2.817 1.86 0 3.953-.562 4.65-1.25 1.016-1.002 1.525-.902 2.561.5 2.582 3.495 4.572 1.468 4.572-4.657 0-4.981 8.902-11.793 18.482-14.142 4.407-1.08 4.622-1.243 1.768-1.34-1.879-.064-3.25-.64-3.25-1.364 0-1.548 6.448-10.79 8.719-12.497 3.06-2.3-1.817-1.435-5.829 1.034M228 606.815c0 .448-1.564 1.56-3.475 2.472-2.191 1.044-3.997 2.908-4.89 5.043-1.933 4.627-5.446 7.67-8.855 7.67-1.834 0-3.035.621-3.384 1.75-.298.962-.97 2.549-1.493 3.525-1.479 2.759 3.806 1.111 7.94-2.477 2.145-1.861 4.296-2.828 6-2.699 5.043.384 5.84-.119 8.493-5.363 2.99-5.909 3.513-10.736 1.164-10.736-.825 0-1.5.367-1.5.815" fill="#d3d3d3" fill-rule="evenodd"/></svg>