<svg xmlns="http://www.w3.org/2000/svg" width="500" height="375"><path d="M291.5 89.604c-2.75.808-6.59 1.883-8.534 2.389-7.996 2.081-15.17 6.121-14.618 8.231.366 1.397-.055 2.148-1.401 2.5-1.059.277-1.704.861-1.434 1.297.27.437.069 1.848-.448 3.137-.516 1.288-.967 1.848-1.002 1.245-.095-1.644-3.669-5.464-4.415-4.718-.356.357-.641 1.361-.633 2.232.013 1.346.153 1.366.932.135.718-1.135 1.062-.865 1.593 1.25.372 1.484 1.078 2.698 1.568 2.698 1.135 0 1.176 3.721.047 4.167-.465.183-1.146 1.559-1.513 3.056-.489 2-.325 2.593.617 2.231 1.805-.692 4.066-4.454 2.678-4.454-.594 0-.373-.706.49-1.57 2.696-2.696 6.128-1.463 5.763 2.07l-.31 3 3.674-3.75c4.058-4.142 5.406-4.63 5.525-2 .063 1.388.194 1.44.637.25.662-1.778 3.865-4.995 4.992-5.012.436-.007 2.695-1.78 5.02-3.94 4.136-3.841 5.965-4.016 4.592-.44-.615 1.604-.382 1.576 2.247-.267 1.613-1.131 3.496-1.857 4.183-1.615.688.242 1.25.003 1.25-.531 0-.535 1.575-1.268 3.5-1.629 2.365-.444 3.505-1.21 3.515-2.361.012-1.278.222-1.38.839-.408.663 1.047 1.055 1.018 2.021-.146.659-.795 2.082-1.214 3.162-.931 2.909.761 2.636-3.267-.287-4.223-11.893-3.89-16.286-4.233-24.25-1.893m-84.721 6.122c-.866.976-2.604 4.024-3.863 6.774-2.773 6.061-12.438 19.246-14.429 19.684-1.036.228-1.159.732-.442 1.816.864 1.308 1.124 1.275 2.023-.25.567-.963 1.456-1.75 1.975-1.75 1.205 0 .669 3.688-.741 5.098-1.189 1.189-.572 4.902.815 4.902.485 0 .883.642.883 1.427 0 3.479 11.49-1.513 14.367-6.242 1.337-2.198 2.631.575 1.922 4.119-.331 1.656-.107 3.19.522 3.579.708.438.045 1.813-1.854 3.845-3.351 3.585-3.585 4.272-1.457 4.272.825 0 1.5.436 1.5.969 0 .532.787.721 1.75.418 1.494-.47 1.466-.319-.191 1.031-1.068.87-2.53 1.582-3.25 1.582-.72 0-1.309.48-1.309 1.067 0 .621.857.796 2.048.418 1.126-.358 2.701-.108 3.5.555.979.812 1.452.85 1.452.114 0-.607.739-.808 1.664-.453 1.071.411 1.422.246.984-.462-.374-.605-.216-1.388.352-1.739.568-.351.772-1.06.453-1.576s.236-1.228 1.234-1.583c2.249-.8 5.313-3.374 5.313-4.465 0-.447-.675-.554-1.5-.238-.95.365-1.5-.013-1.5-1.031 0-2.321-1.103-1.986-3.762 1.143l-2.337 2.75.687-2.5c.377-1.375.928-3.141 1.223-3.924.378-1.004.044-1.234-1.137-.781-1.938.744-2.063.301-.659-2.324.568-1.061 1.645-1.655 2.445-1.348.937.36 1.389-.083 1.313-1.287-.064-1.01.82-3.748 1.965-6.086l2.081-4.25h-2.345c-3.792 0-7.468 1.814-7.548 3.725-.041.976-.879-2.05-1.861-6.725-1.923-9.149-1.758-13.526.612-16.176 1.622-1.814 1.48-4.939-.25-5.515-.59-.197-1.782.441-2.648 1.417m71.366 21.817c-3.496 1.344-6.758 2.196-7.25 1.892-.492-.304-.895-.112-.895.427 0 .538-1.462 1.295-3.25 1.681-1.788.385-4.825 1.475-6.75 2.422-7.122 3.501-12.707 4.471-14.637 2.541-1.637-1.637-1.797-1.633-3.045.074-.725.991-1.338 2.279-1.363 2.861-.025.583-.614-.274-1.308-1.903l-1.264-2.961-2.214 4.574c-1.464 3.024-4.835 6.792-9.942 11.112-4.25 3.595-8.755 7.64-10.012 8.988-2.083 2.235-2.633 2.36-6.219 1.403-4.874-1.302-5.628-.628-3.677 3.284 1.206 2.418 1.252 3.062.215 3.062-.721 0-1.249.787-1.173 1.75.077.963-.423 1.638-1.111 1.5-.687-.137-1.25.344-1.25 1.07 0 .725-1.012 2.269-2.25 3.43-2.854 2.678-4.75 4.989-4.75 5.789 0 .7-5.094 7.168-12.239 15.539-2.619 3.067-4.761 5.88-4.761 6.25 0 2.101 2.662-.419 10.116-9.578 10.879-13.367 25.885-28.867 27.176-28.069.581.359.711.133.303-.526-.392-.635-.236-1.155.346-1.155s1.059.675 1.059 1.5.439 1.5.975 1.5c.623 0 .638-.888.042-2.455-.845-2.224-.256-3.067 6.263-8.958l7.197-6.504 2.512 2.394c1.381 1.317 4.686 3.323 7.344 4.459 5.559 2.374 6.926 2.576 4.385.649-1.661-1.26-1.609-1.396.772-1.993 2.077-.521 2.376-.974 1.602-2.42-1.361-2.542.169-4.767 1.869-2.719 2.037 2.454 3.039 1.821 3.039-1.922 0-2.527-.372-3.325-1.371-2.942-1.502.576-2.998-2.183-2.031-3.747.332-.538 1.205-.748 1.939-.466.733.281 1.535-.026 1.782-.682.267-.711.778-.385 1.264.806.449 1.1 1.514 2.723 2.367 3.606 1.806 1.871 8.05 3.321 8.05 1.869 0-.536-.788-.982-1.75-.99-1.384-.012-1.462-.198-.372-.889.758-.48 1.069-1.373.691-1.984-.378-.612-.199-1.112.397-1.112.596 0 1.508 1.116 2.027 2.481.985 2.59 4.007 2.567 4.007-.031 0-.735.933-1.99 2.073-2.789 1.397-.978 1.701-1.683.932-2.158-.628-.388-.921-1.28-.651-1.982.269-.703-.015-1.782-.632-2.399-.829-.829-.809-1.122.078-1.122.66 0 1.2.511 1.2 1.136 0 .625 1.179-.043 2.621-1.484 1.441-1.441 2.978-2.4 3.414-2.13.437.27.945.15 1.13-.266.184-.416 1.91-1.515 3.835-2.442 5.503-2.651.566-2.126-6.855.729m14.091 25.436c-1.796.426-5.429 2.742-8.074 5.148-5.639 5.127-17.58 13.873-18.943 13.873-1.471 0-10.219 9.737-10.219 11.374 0 .803-.338 1.609-.75 1.793-1.314.583-4.25 6.566-4.25 8.658 0 1.753-.881 2.108-6.75 2.719-9.733 1.014-10.112 1.332-9.761 8.189.209 4.071-.15 6.271-1.22 7.482-1.377 1.558-1.283 1.822 1.023 2.872 1.396.636 2.747 1.953 3.001 2.925.413 1.578 12.686 8.439 15.207 8.502.55.013 1.18.466 1.401 1.005.653 1.599 3.47 3.415 5.349 3.449.962.018 1.75.413 1.75.879 0 3.918 17.804 15.153 24.012 15.153 1.973 0 4.016.414 4.538.919 2.153 2.083 17.526 4.229 18.685 2.608.47-.658.74-.581.75.214.019 1.539 6.918.83 11.433-1.175 1.695-.753 4.432-1.8 6.083-2.328 4.748-1.519 10.744-6.034 12.312-9.271.79-1.632 2.04-2.967 2.777-2.967 1.925 0 7.41-5.625 7.41-7.599 0-.917-.807-2.394-1.793-3.284-2.48-2.237-2.902-16.134-.634-20.912 1.417-2.987 1.424-3.767.062-7.763-1.409-4.134-1.393-4.442.226-4.442.956 0 2.227-.488 2.823-1.084 1.2-1.2.594-4.916-.801-4.916-.485 0-.771-.562-.633-1.25.137-.687-.346-1.126-1.075-.975-.91.189-1.124-.36-.683-1.75.371-1.17.192-2.025-.425-2.025-.587 0-1.067-.516-1.067-1.147 0-1.837-6.837-9.667-9.056-10.371-1.113-.353-2.687-2.299-3.497-4.324-1.651-4.126-4.357-5.63-11.779-6.546-2.658-.328-5.981-1.5-7.385-2.604-2.726-2.144-13.1-2.677-20.047-1.029M144.75 195.658c-2.062.856-3.75 1.958-3.75 2.449 0 1.164 1.346 1.143 2.55-.04.589-.578 1.657-.41 2.812.443 1.741 1.285 1.643 1.438-1.5 2.342-1.849.532-2.799 1.008-2.112 1.058 1.977.142 1.454 1.803-.75 2.38-1.1.287-2 1.07-2 1.739 0 .933.354.922 1.524-.049 2.273-1.886 2.926-.445.809 1.786-4.041 4.261-5.324 6.234-4.073 6.263.682.016-.223 1.36-2.01 2.986-1.787 1.626-3.25 3.413-3.25 3.971a1.01 1.01 0 0 1-1 1.014c-.55 0-1 .675-1 1.5s-.45 1.5-1 1.5-1 .675-1 1.5-.702 1.5-1.559 1.5-1.289.437-.958.972c.33.534-.132 2.089-1.028 3.456-.895 1.366-1.388 2.872-1.095 3.346.293.474-.343 1.493-1.414 2.265-1.07.771-1.946 1.908-1.946 2.527 0 .618-.9 1.939-2 2.934-1.1.995-2 2.89-2 4.21 0 3.043 3.608 11.169 6.124 13.79 1.055 1.1 2.842 3.238 3.97 4.75 2.623 3.517 4.746 3.465 10.251-.25 4.253-2.87 7.355-3.941 6.254-2.159-.472.763 2.158 10.044 4.561 16.097l.968 2.438 1.248-2.438c.751-1.469.874-2.692.307-3.076-1.364-.927.134-2.869 1.739-2.254.83.319 1.145 1.37.813 2.707-.525 2.108-.474 2.1 1.456-.234 2.926-3.537 6.063-3.88 3.792-.415-2.398 3.66-1.09 3.995 1.484.38 2.628-3.69 4.379-3.048 3.544 1.299-.572 2.983-.521 3.049.942 1.214 1.531-1.922 1.547-1.922 1.579 0 .031 1.897.067 1.896 1.615-.059 1.527-1.928 1.565-1.893 1.069.949-.655 3.754.938 8.297 2.398 6.837.635-.635 2.374-.74 4.463-.269 1.883.425 3.423.615 3.423.423s1.105.755 2.455 2.105c3.535 3.536 4.936 3.081 7.857-2.549 2.318-4.467 2.823-7.367 2.658-15.246-.125-5.961.391-8.951 1.625-9.425 1.033-.396 1.227-1.586.748-4.583-.405-2.532-.283-3.823.326-3.446.536.331 1.684-.228 2.552-1.241.868-1.014 2.23-2.228 3.028-2.699 1.917-1.132.83-11.787-1.387-13.601-.844-.69-2.051-3.055-2.683-5.255-2.185-7.609-8.179-14.205-8.179-9 0 1.475-1.142 1.927-3.894 1.542-.766-.108-1.772.401-2.234 1.131-.685 1.08-.844 1.083-.857.018-.008-.72-.465-1.031-1.015-.691-1.309.809-1.271-1.425.09-5.33.6-1.72.888-3.7.64-4.399-.729-2.052-4.401 7.085-6.219 15.472-.923 4.258-2.088 7.996-2.589 8.305-.501.31-1.416 1.507-2.033 2.659-.948 1.772-.872 2 .495 1.476 1.161-.445 1.616-.049 1.616 1.407 0 1.116-.45 1.75-1 1.41-.55-.34-1 .051-1 .868 0 .818-1.041 2.307-2.313 3.309-1.272 1.003-2.878 2.723-3.568 3.823l-1.257 2 .456-2c.25-1.1.78-2.9 1.177-4 .407-1.126-1.073-.069-3.386 2.42-2.759 2.967-4.109 3.868-4.109 2.741 0-.924 1.349-3.091 2.998-4.816 7.14-7.471 10.446-19.272 9.82-35.045-.389-9.809-1.162-12.452-2.857-9.771-.512.809-.944 1.021-.961.471-.017-.55-.45-.338-.962.472-.797 1.261-1.025 1.225-1.591-.25-.825-2.149-1.85-2.176-3.923-.103-3.009 3.009-2.763.526.414-4.181 3.859-5.72 3.148-7.211-1.025-2.148-2.452 2.973-3.288 3.441-4.368 2.444-.734-.679-1.131-1.572-.881-1.984.25-.412-.21-.75-1.022-.75-.811 0-1.685.563-1.942 1.25-.303.811-.747.568-1.263-.69-.496-1.208-.373-2.081.327-2.315 1.135-.378.569-3.289-.621-3.193-.354.028-2.33.751-4.393 1.606" fill="#d3d3d3" fill-rule="evenodd"/></svg>