<svg xmlns="http://www.w3.org/2000/svg" width="500" height="375"><path d="M.025 93.353l.059 93.354 2.473-.473c1.36-.26 2.717-.869 3.017-1.353.927-1.5 2.424-.971 2.458.869.029 1.621.135 1.614 1.433-.1 1.566-2.067.37-6.128-2.453-8.329-1.326-1.033-1.285-1.266.339-1.895 1.125-.436 2.164-.211 2.649.574.466.754 1.535 1.009 2.569.612.974-.374 2.078-.184 2.453.423.374.606 2.66 1.282 5.08 1.502 3.168.288 3.839.148 2.398-.499-1.791-.804-1.811-.905-.191-.968 3.129-.121.967-1.709-4.795-3.522-5.04-1.585-8.635-4.76-7.113-6.283.31-.309-.497-1.508-1.793-2.664C6.273 162.52 4.48 157 6.139 157c.473 0 .861-.702.861-1.559s.457-1.276 1.016-.931c.559.346.812.959.563 1.363-.25.404 1.063.777 2.918.83 1.902.054 4.817 1.173 6.688 2.569 1.823 1.36 3.836 2.281 4.473 2.048.637-.234 1.452.048 1.809.627.358.579 2.682 1.053 5.163 1.053 2.761 0 5.12.607 6.078 1.565.945.945 2.875 1.452 4.875 1.28 1.82-.157 3.634.039 4.03.435 1.164 1.163 4.177.826 4.728-.53.395-.975.714-.955 1.449.092.912 1.299 5.21-.242 5.21-1.868 0-.3.927-.545 2.061-.545 1.47 0 1.929.501 1.602 1.75-.607 2.323 2.425 3.3 9.087 2.929 3.308-.185 5.25.111 5.25.8 0 .6.502.98 1.116.842.613-.137 1.831 1.662 2.706 4 1.967 5.254 3.241 5.582 1.94.5-.744-2.91-.586-4.619.706-7.627 1.65-3.843 1.679-3.858 3.188-1.704.837 1.196 1.271 2.828.965 3.627-.763 1.988.304 4.454 1.927 4.454 2.141 0 3.453 8.112 1.653 10.226-.807.95-1.906 1.456-2.442 1.125-.6-.371-.69.309-.234 1.774.407 1.306 1.13 2.525 1.607 2.708.477.184.868 1.201.868 2.26 0 1.06.9 2.697 2 3.639 1.1.942 2 2.512 2 3.49 0 .978.695 1.778 1.544 1.778.915 0 1.424.712 1.25 1.75-.193 1.15.267 1.658 1.343 1.482 1.058-.173 1.898.711 2.373 2.5.405 1.522.944 2.206 1.197 1.518.253-.688 1.083-1.25 1.845-1.25.818 0 1.15.612.812 1.494-.316.822-1.035 1.209-1.599.861-.565-.35-.83-.011-.59.756.555 1.778 6.898 4.934 11.09 5.52 2.353.329 2.834.183 1.764-.535-2.166-1.454-.914-2.014 1.971-.882l2.5.982-2.25.87c-1.237.478-2.25 1.424-2.25 2.102 0 .926.285.947 1.146.086.637-.637 2.412-.892 4-.575 2.202.441 2.854.2 2.854-1.054 0-.894-.675-1.625-1.5-1.625-.924 0-1.5-.938-1.5-2.443 0-1.344-.835-3.032-1.857-3.75-2.179-1.534-3.806-5.807-2.21-5.807.587 0 1.067.45 1.067 1s.563 1.01 1.25 1.022c.688.012 2.361.876 3.718 1.919 1.8 1.383 2.95 1.638 4.25.942.98-.524 1.782-.563 1.782-.085 0 .478.713.869 1.585.869 1.121 0 1.454-.683 1.138-2.334-.245-1.283-.058-2.333.416-2.333 2.055 0 .614-1.805-1.889-2.366-6.57-1.472-11.032-9.45-5.433-9.713 1.041-.049 1.206-.271.433-.583-.688-.278-1.25-1.19-1.25-2.028 0-.913.575-1.303 1.435-.973.79.303 1.64.013 1.889-.643.249-.657 1.184.494 2.078 2.556 1.603 3.7 4.598 5.166 4.598 2.25 0-.825-.375-1.5-.833-1.5-.459 0-.834-.675-.834-1.5s.324-1.5.72-1.5c.396 0 .954-1.237 1.24-2.75.286-1.512.858-3.833 1.271-5.156.534-1.712.417-2.2-.406-1.691-.637.393-1.158.163-1.158-.511s-.293-.932-.651-.574c-.946.945-3.215-2.503-2.638-4.008.359-.935 1.001-.999 2.417-.242 1.06.568 1.664 1.46 1.341 1.982-.323.523.115.95.972.95s1.559.466 1.559 1.035c0 .689.695.663 2.078-.077 2.776-1.485 4.895-.535 5.04 2.261.098 1.881.253 1.754.882-.719l.763-3 .119 2.75c.122 2.832 1.563 3.713 2.456 1.5.32-.793.533-.653.583.383.083 1.726 4.131 3.34 5.043 2.011.429-.624 4.292-.74 7.036-.21 1.336.258-2.786 2.037-4.75 2.051-2.347.016-3.268 2.911-1 3.143 4.616.471 5.593.657 6.545 1.245.587.363 1.379.154 1.761-.463 1.639-2.653 2.138 1.605.592 5.053-3.341 7.451-8.6 11.852-10.522 8.805-.827-1.31-1.294-1.191-3.339.854-2.995 2.995-4.086 2.978-8.303-.134-3.368-2.484-3.426-2.491-5.342-.575-2.101 2.102-4.034 11.36-2.491 11.934.524.195.422.962-.232 1.75-.917 1.106-.82 1.403.459 1.403 1.523 0 1.754.763 2.039 6.75.093 1.95 9.501 3.555 10.745 1.834.905-1.253 11.638-1.717 12.368-.535.324.523 1.882.951 3.464.951s4.03.439 5.441.975c1.667.634 2.565.634 2.565 0 0-.536.45-.975 1-.975s1 .81 1 1.8c0 3.237 1.883 4.147 5.478 2.645 1.797-.751 3.55-1.084 3.895-.739.345.345.627-.348.627-1.539 0-2.487 1.776-2.914 2.65-.637.796 2.075 11.253 9.47 13.391 9.47.964 0 2.261 1.315 2.959 3 .683 1.65 1.778 3 2.433 3 .655 0 2.157 1.306 3.337 2.902 2.161 2.924 12.91 9.751 13.859 8.803.28-.281-.872-1.326-2.56-2.323-3.501-2.068-4.048-4.382-1.037-4.382 1.173 0 2.415-.951 2.937-2.25.497-1.238.933-1.843.968-1.345.034.498.935.116 2-.848 2.105-1.905 4.063-1.363 4.063 1.124 0 1.256.287 1.326 1.456.355.801-.664 1.926-.918 2.5-.563.596.368 1.044-.238 1.044-1.414 0-3.825 3.484-2.382 5.893 2.441 2.588 5.182 3.543 5.762 2.628 1.595-.632-2.875.758-5.071 1.969-3.111.345.559 1.055 1.016 1.577 1.016.523 0 .385-.905-.306-2.012-.691-1.106-1.806-1.801-2.477-1.544-1.676.644-2.349-.733-1.218-2.492.778-1.21 1.08-1.226 1.809-.095.653 1.012 1.06 1.057 1.604.176.509-.823 1.173-.547 2.194.91.805 1.15 1.948 1.791 2.54 1.425.709-.438.901.254.563 2.023-.328 1.715-.112 2.554.596 2.318 1.286-.428 3.628 1.649 3.628 3.22 0 1.068 3.552 5.071 4.5 5.071.275 0 1.408.908 2.518 2.018l2.018 2.018-2.583.982c-3.345 1.272-3.453 1.255-3.453-.518 0-.825-.498-1.5-1.107-1.5s-.848.675-.531 1.5c.699 1.822-1.961 2.067-2.711.25-.313-.757-.786-.363-1.2 1-.943 3.101-3.12 2.816-6.55-.856-1.595-1.708-2.901-2.538-2.901-1.845 0 .889-.52.79-1.76-.332-.969-.877-3.008-1.457-4.533-1.289-3.453.379-3.837.753-2.668 2.601.63.996.935 1.068.946.221.008-.687.802-1.243 1.765-1.235 1.287.012 1.41.231.466.83-.718.456-.997 1.562-.633 2.51.505 1.318.959 1.44 2.034.548 1.081-.897 1.383-.793 1.383.475 0 .892.675 1.678 1.5 1.747 2.345.195 2.917.353 4.165 1.147.64.407 1.433.175 1.761-.516.328-.691.416-.273.196.929-.456 2.486.053 2.774 9.378 5.312 7.286 1.983 17.963 5.963 22.5 8.388 1.65.881 3.563 1.605 4.25 1.609.688.003 1.25.456 1.25 1.006s1.07 1 2.378 1c1.307 0 2.937.675 3.622 1.5s1.871 1.5 2.636 1.5c1.58 0 5.544 2.059 6.502 3.378.351.483 1.139.569 1.75.191.612-.378 1.112-.184 1.112.431s.52.797 1.155.405c.776-.48.887-.254.339.69-.448.773-.476 1.101-.063.73.414-.371 2.786.196 5.271 1.261 2.484 1.066 6.249 2.005 8.366 2.088 3.969.155 4.53 1.814.623 1.841-1.205.009-2.866.452-3.691.985-1.149.743-.787.973 1.55.985 1.678.008 3.512.477 4.077 1.042.564.564 3.467 1.282 6.45 1.594 2.982.312 6.83 1.195 8.549 1.962 2.054.915 5.226 1.23 9.25.917 5.831-.453 8.126.543 4.374 1.899-5.926 2.143-7.607 5.022-2.313 3.964 1.486-.298 4.369.156 6.407 1.007 2.038.852 4.369 1.294 5.181.982.811-.311 1.475-.12 1.475.424 0 .545 1.012 1.276 2.25 1.624 2.233.628 2.235.645.25 2.19-3.899 3.035-5.5 3.601-5.5 1.945 0-1.75-.853-1.914-2.974-.572-.97.613-1.724.526-2.208-.257-.564-.912-1.009-.915-1.912-.012s-1.483.872-2.489-.134c-.944-.944-2.514-1.091-5.614-.523-2.611.479-4.777.396-5.509-.21-1.357-1.124-3.62-.164-2.788 1.183 1.883 3.047-10.414-1.578-13.506-5.08-.921-1.042-4.976-2.333-10.5-3.341-15.813-2.886-14.482-2.929-15.166.493-.43 2.148-.921 2.731-1.671 1.981-.585-.585-2.296-1.063-3.804-1.063s-3.02-.451-3.361-1.003c-.414-.67-1.243-.669-2.498.003-1.255.672-2.084.673-2.498.003-.341-.552-1.493-1.003-2.561-1.003-1.068 0-2.763-.822-3.767-1.826-1.005-1.005-2.58-2.116-3.5-2.469-.921-.353-1.674-1.161-1.674-1.796 0-.867-.349-.864-1.403.01-1.07.889-1.497.88-1.803-.036-.22-.66-1.481-1.365-2.803-1.567-1.322-.201-2.707-.856-3.077-1.454-.454-.736-.873-.647-1.293.275-.481 1.055-.753 1.081-1.204.113-.775-1.66-3.55-1.581-6.98.198-2.503 1.299-2.926 1.273-4.083-.25-1.185-1.559-1.293-1.562-1.322-.042-.031 1.593 8.174 7.812 10.389 7.874.594.017.327.47-.592 1.006-1.972 1.15-6.585-.32-8.281-2.64-.984-1.345-1.412-1.291-3.64.462-2.485 1.954-2.544 1.955-3.725.064-1.687-2.702-2.995-2.39-2.428.578.309 1.613 1.147 2.5 2.362 2.5 1.035 0 1.883.398 1.883.883 0 .486.926 1.126 2.057 1.422 1.942.508 1.964.648.384 2.492-1.042 1.218-2.429 1.757-3.677 1.431-1.944-.508-1.952-.444-.274 2.116 1.688 2.576 1.672 2.662-.63 3.584-1.298.52-1.749.974-1.003 1.009.786.036 1.115.695.781 1.563-.354.922.002 1.5.925 1.5.825 0 1.759.675 2.075 1.5.317.825 1.328 1.5 2.246 1.5.919 0 2.692.715 3.94 1.589 1.248.874 2.923 1.338 3.722 1.032.8-.307 1.454-.032 1.454.61 0 .879.285.884 1.146.023.637-.637 2.412-.892 4-.575 3.879.776 3.764-1.466-.145-2.828-1.69-.59-2.714-1.507-2.345-2.103.383-.62.176-.762-.501-.343-.685.422-1.155.078-1.155-.846 0-.857-.45-1.559-1-1.559s-1-.675-1-1.5-.689-1.5-1.531-1.5c-.843 0-1.772-.625-2.065-1.389-.305-.796-1.467-1.219-2.719-.989-1.202.22-1.622.133-.935-.194s1.25-1.232 1.25-2.011c0-.78.45-1.417 1-1.417s1-.693 1-1.539c0-1.233.435-1.134 2.189.5 2.53 2.358 3.446 2.532 4.149.789.403-1 .52-1 .583 0 .043.688.74 1.25 1.548 1.25.894 0 1.243-.586.893-1.5-.317-.825-.078-1.5.531-1.5s.994-.338.857-.75a.792.792 0 0 1 .5-1c1.691-.564 1.928-.169.75 1.25-.821.989-.874 1.5-.154 1.5.6 0 .832.675.516 1.5-.686 1.787.046 1.887 2.842.391 3.58-1.916 7.796-2.2 7.796-.524 0 1.065.838 1.381 2.95 1.114 3.943-.499 5.445 3.181 2.183 5.347-1.206.801-2.133 2.475-2.133 3.853 0 1.577-.404 2.187-1.146 1.729-.803-.496-.952.063-.499 1.867.491 1.956.225 2.686-1.104 3.034-1.19.311-.951.495.749.577 2.42.116 2.392.185-.859 2.167-3.23 1.97-3.292 2.121-1.616 3.973.958 1.059 2.152 1.672 2.652 1.362.501-.309 1.495-.077 2.21.517.943.782 2.581.642 5.962-.51 4.446-1.515 4.822-1.493 8.156.474 1.922 1.134 3.495 1.6 3.495 1.036 0-.564.448-.748.996-.409.548.338 1.96.801 3.137 1.028 1.178.226 2.951 1.145 3.941 2.041.99.896 2.278 1.333 2.863.972 1.954-1.208 1.12 4.099-.937 5.961-1.1.995-2.036 2.528-2.079 3.405-.052 1.043-.254 1.16-.585.339-.599-1.485-2.336-.665-2.336 1.102 0 .676 1.006 1.304 2.235 1.397 1.23.092 2.392.638 2.584 1.213.191.574 1.219 1.044 2.283 1.044 1.609 0 1.822.465 1.262 2.75-.37 1.512-1.029 2.892-1.463 3.065-.434.173-.511 1.038-.171 1.923.453 1.18.19 1.445-.985.994-4.666-1.79-8.771-1.964-8.15-.346.696 1.814.228 1.916-9.345 2.036-3.437.043-6.249-.254-6.25-.66 0-1.035-4.354-.464-5.177.678-.417.581-2.044.521-4.249-.156-2.089-.641-3.804-.72-4.132-.19-.308.498-.057.906.558.906.615 0 .888.372.607.827-.281.455-2.774.536-5.541.182-2.98-.383-5.444-.231-6.048.373-.691.691-1.018.632-1.018-.182 0-1.501-4.641-1.589-5.558-.106-.372.602-1.805.879-3.183.615-1.379-.264-3.916-.09-5.637.385-1.722.475-6.953 1.056-11.626 1.291-9.827.493-8.996.345-8.996 1.602 0 .645 49.42.994 142.5 1.006l142.5.019.002-50.756c.002-27.916.3-112.293.664-187.506L501.327 0H-.034l.059 93.353M.475 74c0 40.425.123 56.963.275 36.75.151-20.212.151-53.287 0-73.5C.598 17.038.475 33.575.475 74m127.02-11.449c-.547.853-2.008 1.624-3.245 1.713-3.424.246-2.686 1.564 1.294 2.31 1.948.366 3.381 1.151 3.183 1.745-.413 1.24-4.673 1.451-6.499.322-.716-.442-1.228-.248-1.228.467 0 .674-.296.929-.658.567-.904-.904-3.453 1.337-2.772 2.438.301.488-.297.887-1.329.887-2.127 0-10.223 5.882-10.274 7.464-.088 2.737-3.839 5.48-7.316 5.349-1.964-.074-3.337-.512-3.052-.974.889-1.437-2.039-.92-4.485.794-2.827 1.98-3.633 1.061-4.574-5.217-.76-5.065-3.54-8.264-3.54-4.073 0 1.423.707 4.67 1.571 7.215.864 2.546 1.329 5.261 1.032 6.035-.297.774-.026 1.407.603 1.407.628 0 .164 1.042-1.032 2.314C83.978 94.587 83 96.148 83 96.783c0 .647-.769.907-1.75.591-1.355-.436-1.439-.341-.372.42 1.492 1.064.587 3.611-.947 2.663-.512-.316-.931-.039-.931.616 0 .812-1.275 1.019-4.015.652-3.37-.452-4.195-.201-5.141 1.566-1.062 1.985-1.217 1.881-2.738-1.844-.887-2.171-2.219-5.014-2.96-6.319l-1.347-2.372-2.086 2.087c-1.894 1.894-1.945 2.251-.552 3.872.844.982 1.809 2.558 2.143 3.503.335.946 2.259 2.408 4.275 3.25 4.601 1.923 5.421 1.919 5.421-.027 0-.857.481-1.262 1.068-.899.588.363.82 1.307.517 2.097-.303.79.116 1.693.932 2.006.816.313 1.483 1.21 1.483 1.993 0 2.313 2.958 2.795 4.516.737 1.733-2.288 1.948-4.239.284-2.575-.66.66-1.898 1.186-2.75 1.169-.852-.017.17-1.089 2.272-2.381 2.102-1.292 4.49-3.303 5.307-4.469.816-1.165 2.16-2.119 2.987-2.119.826 0 1.224-.45.884-1-.34-.55.084-1 .941-1s1.573-.562 1.591-1.25c.059-2.355 5.023-6.926 8.59-7.911 3.741-1.033 5.814-.344 3.418 1.136-.993.614-.256 1.056 2.529 1.518 8.211 1.36 11.931 4.255 11.061 8.607-.556 2.778-.275 3.159 3.634 4.933 2.33 1.058 4.721 1.933 5.313 1.945 1.062.022.875-4.917-.302-7.978a21.883 21.883 0 0 1-.874-2.999c-.163-.824-1.22-2.246-2.349-3.16-2.396-1.941-2.515-3.407-.552-6.841 1.116-1.952 1.437-2.11 1.465-.719.019.98.66 2.022 1.424 2.315.765.293 1.208 1.292.985 2.219-.262 1.094 1.003 2.672 3.611 4.5 2.208 1.548 4.015 3.236 4.015 3.75 0 .514.482.935 1.071.935 1.945 0 3.891 2.638 2.772 3.757-1.493 1.493.604 4.906 4.137 6.733 4.087 2.113 5.269 1.969 4.028-.49L144 106.014c-2.518-5.003-.404-4.387 3.291.959.94 1.359 1.709 1.891 1.709 1.181 0-.874.938-.622 2.912.784l2.913 2.073 1.837-2.503c1.496-2.038 2.92-2.594 7.661-2.992 8.027-.674 9.902-2.066 5.427-4.029-1.238-.543-2.25-1.512-2.25-2.154 0-.641-.338-1.504-.75-1.916-.412-.413-.75-.035-.75.84 0 3.758-5.895-1.107-7.362-6.075-1.1-3.729-1.815-4.666-3.51-4.603-2.075.078-2.88-.992-1.378-1.832.412-.23.232-.299-.401-.152-.634.146-1.379-.6-1.656-1.659-.277-1.059-1.333-2.229-2.348-2.599-1.015-.37-3.01-1.948-4.434-3.505-1.424-1.558-3.138-2.832-3.809-2.832-.671 0-.942-.45-.602-1 .34-.55-.061-1-.891-1-.83 0-1.869-.562-2.309-1.25-.44-.687-1.437-1.25-2.217-1.25-.779 0-1.625-.626-1.88-1.391-.36-1.079.182-1.224 2.417-.645 1.584.411 4.891.883 7.35 1.05 2.589.176 4.655.861 4.91 1.627.672 2.016 2.47 3.526 4.197 3.526 2.418 0 7.787 4.405 9.166 7.52.685 1.547 1.789 2.813 2.454 2.813 1.683 0 .853-5.593-1.124-7.57-.865-.865-1.573-1.991-1.573-2.501 0-.511-.953-1.882-2.118-3.047-1.709-1.709-1.854-2.285-.75-2.981 1.306-.825 3.063.616 4.256 3.491.302.728.807.609 1.47-.344.555-.799.762-1.854.458-2.345-.308-.5 2.142-.741 5.568-.548 7.505.423 7.934-.628.866-2.119-28.909-6.1-41.389-7.394-43.255-4.485M195 77.457c0 .326 1.169 1.037 2.597 1.58 1.428.543 2.837 1.907 3.131 3.032.294 1.124 1.078 1.836 1.741 1.581.664-.255 2.742.219 4.619 1.052C214.062 87.798 222.693 91 224.064 91c.563 0 .891-.787.73-1.75-.524-3.122 6.812-2.076 18.628 2.655 7.692 3.08 11.83 4.192 16.578 4.456 1.375.077 3.034.641 3.686 1.253.652.613 4.477 1.437 8.5 1.83 8.755.855 20.227 5.81 18.183 7.853-1.975 1.976 18.049 8.548 20.803 6.828.99-.619 2.959-1.125 4.373-1.125 1.415 0 2.319-.412 2.008-.915-.311-.503 0-1.142.691-1.421.77-.31.591-.537-.463-.585-1.008-.046-1.506-.632-1.204-1.418.364-.949-1.469-1.854-6.282-3.102A600.32 600.32 0 0 1 297 101.914c-3.575-1.035-10.55-2.797-15.5-3.915-18.46-4.168-50.591-14.281-51.333-16.157-.184-.463-1.327-.842-2.54-.842-1.214 0-4.664-.62-7.667-1.377-3.003-.758-7.452-1.626-9.887-1.929l-4.427-.551 2.927 2.392c3.349 2.738 1.314 3.475-2.404.871-1.251-.877-3.264-1.706-4.472-1.844-1.208-.137-3.209-.575-4.447-.973s-2.25-.457-2.25-.132m-17 1.829c0 .943-.675 1.714-1.5 1.714s-1.5.498-1.5 1.107-.675.848-1.5.531c-1.077-.413-1.5.103-1.5 1.831 0 1.79-.512 2.368-2 2.256-1.1-.083-2-.463-2-.844 0-.382-.869-.467-1.931-.189-2.066.541-3.707 3.308-1.961 3.308.575 0 2.396 1.35 4.046 3 1.65 1.65 3.49 3 4.09 3 .599 0 .811-.279.47-.619-.759-.759 1.171-2.76 3.519-3.649 1.048-.397 1.5-1.264 1.143-2.194-.727-1.894.358-1.905 3.624-.038 2.25 1.286 2.3 1.441.5 1.544-1.1.062-1.437.341-.75.618.688.278 1.25.965 1.25 1.528 0 .563-.675.765-1.5.448-.825-.316-1.5-.139-1.5.393 0 .533-.477.969-1.059.969s-.781-.45-.441-1c1.295-2.095-1.111-.886-2.853 1.434-1.023 1.361-2.449 2.196-3.237 1.893-.877-.336-1.41.11-1.41 1.18 0 1.47.691 1.633 4.75 1.119 4.074-.516 4.394-.44 2.25.537l-2.5 1.139 3.5.762c1.925.419 4.512 1.078 5.75 1.465 1.41.442 2.25.287 2.25-.412 0-.615-.606-1.117-1.347-1.117s-2.324-.848-3.519-1.884l-2.172-1.883 4.647-.697c7.205-1.081 7.783-1.446 5.782-3.656-1.289-1.425-2.017-1.605-3.043-.754-1.79 1.486-1.875-1.158-.098-3.073 1.023-1.102.918-1.23-.574-.703-2.379.84-4.182-1.107-4.464-4.821-.258-3.385-3.212-7.288-3.212-4.243m-6.383 100.964c-.45 1.639-.842 1.901-1.447.966-2.067-3.197-4.906.348-5.833 7.283-.294 2.201-.94 4.429-1.436 4.951-1.706 1.799-1.014 3.721 1.099 3.05 1.398-.444 2.038-.163 2.125.933.069.862.238 2.017.375 2.567.137.55.374 1.563.525 2.25.152.688.59-.775.975-3.25l.7-4.5.15 3.719c.109 2.692.527 3.574 1.515 3.195.75-.289 2.454.77 3.785 2.352 1.331 1.583 2.92 2.711 3.531 2.507.611-.204 2.348.777 3.861 2.178 1.513 1.402 3.065 2.549 3.451 2.549.613 0 1.724.82 6.57 4.846 1.861 1.547 5.261 3.155 6.621 3.132.742-.013.334-.778-.935-1.755-1.952-1.503-2.125-2.17-1.303-5.035.995-3.468.502-6.188-1.12-6.188-.529 0-.657-.956-.286-2.125.454-1.43.312-1.902-.433-1.441-.609.376-1.107.207-1.107-.375s.675-1.059 1.5-1.059 1.5-.436 1.5-.969c0-.532-.589-.742-1.308-.466-1.483.569-5.692-2.708-5.692-4.432 0-.623-.45-1.133-1-1.133s-1-.45-1-1 1.575-1 3.5-1c3.904 0 4.212-.431 1.936-2.706-1.8-1.801-6.436-.09-6.436 2.375 0 .732-.723 1.331-1.607 1.331-1.055 0-1.398-.544-1-1.582.334-.87.607-1.796.607-2.059 0-.262.45-.199 1 .141.55.34 1 .194 1-.324 0-.519-.958-1.193-2.13-1.5-1.423-.372-1.931-1.075-1.531-2.116.706-1.841.23-1.935-2.479-.485-1.677.897-2.098.732-2.551-1-.298-1.141-.992-2.075-1.542-2.075s-.765-.9-.477-2c.379-1.45.03-2-1.267-2-1.007 0-2.06.984-2.406 2.25M384 209.293c-2.475.579-4.792 1.49-5.149 2.025-.357.536-1.37.697-2.25.359-.881-.338-1.601-.215-1.601.273 0 .487-.291 1.711-.647 2.718-.53 1.499-.402 1.605.7.582 1.898-1.761 3.103-1.553 2.895.5-.098.963-.077 1.975.046 2.25 1.122 2.496.6 7.058-.749 6.541-1.797-.69-5.245.237-5.245 1.41 0 1.327 3.862 1.939 4.376.693.328-.795.769-.718 1.447.252 1.196 1.712 4.177.739 4.177-1.365 0-.842.45-1.531 1-1.531s1-.707 1-1.572c0-.864 1.225-3.662 2.721-6.216 2.757-4.703 3.881-8.311 2.523-8.092-.409.066-2.769.594-5.244 1.173" fill="#d3d3d3" fill-rule="evenodd"/></svg>