<svg xmlns="http://www.w3.org/2000/svg" width="500" height="499"><path d="M118.5 14.643c-1.1.173-25.04.436-53.201.586-37.668.199-51.512.583-52.379 1.45-.759.76-1.36 6.891-1.691 17.25C10.721 49.848 10.737 50 12.858 50c1.178 0 2.142.45 2.142 1s-.739 1-1.642 1c-1.461 0-1.573 1.19-1.01 10.75 1.087 18.463.985 34.317-.23 35.532-.615.615-1.118 2.126-1.118 3.359s-.439 2.512-.975 2.843c-.545.337-.714 2.506-.384 4.917.414 3.014.129 5.035-.943 6.707-1.891 2.948-2.248 5.56-1.249 9.142.702 2.515 1.181 2.75 5.6 2.75 5.849 0 5.919.102 4.84 7-.473 3.025-1.161 8.2-1.528 11.5-.367 3.3-1.278 6.941-2.024 8.091-1.474 2.269-2.143 31.296-.772 33.514 1.012 1.638 2.518 13.476 2.423 19.058-.043 2.565.392 4.954.967 5.309.575.355 1.045 1.471 1.045 2.48 0 1.949 1.871 3.048 5.19 3.048 2.542 0 1.92-3.282-1.712-9.035-1.343-2.128-2.108-4.075-1.7-4.328 1.33-.822 7.222 2.227 7.222 3.737 0 .808 1.85 3.054 4.112 4.99 2.908 2.489 4.181 4.405 4.349 6.544.131 1.664.752 3.644 1.38 4.4.628.757.906 1.612.618 1.899-.288.288.841 1.089 2.509 1.78 1.668.69 3.032 1.592 3.032 2.002 0 .411 3.71.827 8.244.923 8.494.182 11.711 1.392 8.506 3.2-.962.543-1.75 1.603-1.75 2.354 0 .752-.449 1.517-.998 1.701-2.023.675-3 6.705-1.17 7.217 5.586 1.563 8.209 1.641 10.354.309 1.272-.79 4.693-2.265 7.601-3.276l5.287-1.839 2.463 2.867c1.355 1.576 2.463 3.659 2.463 4.627 0 .969.407 1.911.905 2.095.497.183 1.06 1.458 1.25 2.833.33 2.393 2.34 4.242 6.084 5.598.956.346 1.49 1.031 1.186 1.523-.303.491.195 1.18 1.108 1.53 1.212.465 1.508 1.395 1.097 3.449-.418 2.089-.219 2.679.775 2.298 1.966-.754 3.014 2.788 1.136 3.839-.848.474-1.541 1.74-1.541 2.813 0 2.628-1.457 2.467-2.726-.3l-1.032-2.25-1.268 2.72c-1.035 2.221-1.023 3.016.065 4.327 1.566 1.887-.046 3.411-3.634 3.438-2.187.016-5.405 2.865-5.405 4.786 0 .613 1.912 1.252 4.25 1.422l4.25.307-2.25 2.25c-1.238 1.238-2.138 2.701-2 3.252.137.551-.875 1.571-2.25 2.267-1.375.697-2.95 2.3-3.5 3.564-.661 1.519-2.44 2.684-5.25 3.439-2.338.629-4.25 1.546-4.25 2.04 0 1.497 9.315-.124 10.243-1.782 1.12-2 2.757-1.962 2.757.064 0 .876-.9 1.829-2 2.116-1.943.508-2.846 2.29-1.161 2.29.462 0 1.336 1.089 1.943 2.42 1.143 2.51 3.372 2.826 5.428.77 1.624-1.624 2.79-1.494 2.79.31 0 .825.395 1.5.878 1.5.482 0 1.437-.675 2.122-1.5 1.921-2.315 3-1.79 3 1.461 0 1.758-.889 3.789-2.189 5-1.569 1.462-1.781 2.061-.75 2.115.792.042-.109.635-2.001 1.319-4.252 1.536-5.195 3.605-1.643 3.605 1.707 0 2.583.546 2.583 1.608 0 2.273-4.939.989-7.313-1.901-3.238-3.941-12.128-14.085-14.437-16.472-1.237-1.279-2.264-2.868-2.28-3.53-.028-1.128-12.578-7.705-14.702-7.705-1.03 0-2.174-11.53-2.38-24-.176-10.621-.948-13.566-3.465-13.22-2.543.35-8.649-2.142-10.391-4.242-.931-1.121-2.247-1.401-4.556-.968-1.917.36-3.523.163-3.92-.48-.371-.6-2.167-1.09-3.993-1.09-1.825 0-3.871-.667-4.548-1.482-1.085-1.308-1.48-1.305-3.372.02L15.5 253.04v145.959h4.194l4.194.001-1.99 4.75c-1.094 2.613-2.393 5.49-2.887 6.395-.677 1.242.073 2.697 3.058 5.929l3.955 4.284-2.512 3.625c-3.014 4.35-3.222 8.892-.548 11.975 2.568 2.961 2.139 9.684-.889 13.937-2.552 3.584-3.534 3.968-2.781 1.087.291-1.109-.107-2.652-.883-3.428-.776-.776-1.411-1.893-1.411-2.483 0-.589-.43-1.071-.955-1.071-1.259 0-2.428 6.416-2.141 11.75.391 7.242.29 10.633-.412 13.857-.54 2.476-.101 3.92 2.166 7.118 2.743 3.873 3.048 4.017 8.784 4.153 3.268.077 8.6-.342 11.849-.931 3.25-.589 11.761-1.236 18.915-1.438 12.681-.358 13.253-.282 22.859 3.062 13.224 4.603 14.995 4.573 14.214-.239-.504-3.108-.347-3.572 1.031-3.043.894.343 1.892.193 2.217-.333.325-.526 1.416-.956 2.425-.956 1.919 0 3.459-2.527 2.492-4.09-.309-.501-1.269-.91-2.133-.91-.864 0-3.65-1.964-6.191-4.365-2.541-2.401-8.399-7.689-13.019-11.75-9.32-8.195-10.694-9.897-9.824-12.164.529-1.38 1.275-1.339 6.748.364C79.512 445.17 85.086 446 88.889 446c3.886 0 7.216.505 7.911 1.2.831.831 1.2.857 1.2.085 0-1.041 8.543-2.222 16.965-2.346 1.906-.028 3.931-.42 4.5-.872 2.249-1.783 12.535-2.323 12.535-.658 0 2.796 4.761 3.105 6.931.45 1.546-1.893 2.178-2.112 3.198-1.109 1.516 1.491 6.497 1.664 7.368.255.338-.547 2.052-.983 3.809-.968 6.13.053 19.973-1.87 20.584-2.859.339-.548 2.527-1.761 4.863-2.696 4.219-1.688 4.247-1.732 4.247-6.803 0-4.328-.404-5.426-2.661-7.226-2.222-1.771-2.649-2.889-2.59-6.774.06-3.978-.362-5.017-2.905-7.156-1.74-1.465-2.675-2.988-2.253-3.671.532-.86-.568-.996-4.185-.516-2.71.359-4.325.278-3.609-.181 1.037-.665.987-1.089-.25-2.116-.851-.706-1.547-1.904-1.547-2.661 0-1.649-1.607-1.823-2.562-.277-.898 1.452-6.285.347-8.622-1.768-2.45-2.216-2.286-3.236.434-2.713l2.25.432-2.25-1.179c-2.761-1.446-2.955-3.873-.309-3.873 2.617 0 3.502-1.699 1.782-3.42-2.768-2.768-8.832-3.844-14.738-2.615-6.942 1.445-8.616 1.437-13.231-.064-3.178-1.034-4.012-.979-5.5.362-4.638 4.181-10.377 2.366-7.432-2.349.781-1.251.81-2.024.091-2.468-1.126-.695-.267-20.954 1.135-26.763.726-3.006.808-3.055 1.49-.882.623 1.986 1.149 2.203 3.842 1.586 1.716-.393 8.97-.763 16.12-.823 8.451-.071 13.79-.552 15.259-1.376 1.242-.698 3.942-1.171 6-1.052 2.058.118 4.819-.365 6.137-1.074 2.216-1.192 2.355-1.13 1.844.825-.457 1.748-.107 2.113 2.033 2.113 4.337 0 9.227 2.226 9.227 4.201 0 .989.675 1.799 1.5 1.799.918 0 1.5-.934 1.5-2.406 0-2.362.19-2.413 10.168-2.75 6.462-.219 10.306-.761 10.548-1.488.209-.629 1.208-.927 2.219-.663 1.012.265 2.142-.008 2.511-.606 1.049-1.697 4.876-1.367 4.212.363-.434 1.13.587 1.515 4.643 1.75 5.014.289 5.203.407 5.303 3.294.139 3.992-2.358 14.503-3.886 16.354-.987 1.198-.934 1.385.282.991 2.408-.781 4.075-5.341 4.707-12.88.324-3.863.972-7.261 1.441-7.55 1.221-.755 1.051-6.169-.272-8.641-.618-1.155-1.325-6.188-1.57-11.184l-.445-9.084 4.569-.259c2.58-.147 4.57.18 4.57.75 0 .555-.351 1.009-.781 1.009-1.512 0-3.248 6.26-2.115 7.625.584.704.779 2.167.435 3.253-.382 1.202-.076 2.296.78 2.798 1.052.617 1.679 5.229 2.491 18.324.597 9.625 1.154 17.95 1.238 18.5.084.55-.139 8.875-.495 18.5-.987 26.623-.928 38.839.193 40.235.56.696 1.247 2.84 1.528 4.765 2.137 14.635 3.998 24.636 4.725 25.379.961.983.284-12.47-.967-19.208-1.078-5.808-.322-8.48 2.213-7.817 3.844 1.005 10.73-3.307 8.845-5.538-.611-.724-2.08-2.605-3.263-4.18-1.951-2.598-2.554-2.808-6.489-2.269-4.722.647-4.421 1.066-4.581-6.367-.222-10.341-.013-10.999 3.493-11.015 7.738-.037 7.375-4.936-.548-7.4-2.074-.645-2.315-12.441-.46-22.585 1.205-6.59 1.185-7.887-.23-15-.602-3.025-1.271-7.525-1.486-10-.215-2.475-.626-6.187-.913-8.25-.397-2.853-.174-3.75.933-3.75.8 0 1.454-.45 1.454-1s.675-1 1.5-1c.933 0 1.5-.944 1.5-2.5 0-1.375.338-2.5.75-2.5.412.001.683-1.813.601-4.029-.082-2.217.403-4.582 1.078-5.257 1.752-1.752 1.263-6.889-.996-10.45-4.128-6.511-10.559-14.264-11.831-14.264-.884 0-1.295-1.199-1.218-3.552.11-3.359-1.131-4.78-6.19-7.088-.169-.077-.432-1.315-.585-2.751-.154-1.437-.578-2.911-.944-3.277-1.663-1.664-.656-6.332 1.366-6.332 2.943 0 3.604-2.809 1.223-5.191-1.818-1.818-1.884-2.292-.645-4.666 2.366-4.535.91-12.584-2.436-13.469-1.498-.396-1.49-.454.077-.558 2.47-.164 2.175-2.516-.896-7.158-1.456-2.199-2.331-4.314-1.946-4.699.385-.386 1.102-.052 1.592.741 2.02 3.269 2.184-.328.178-3.897-3.633-6.464-3.127-7.49 3.322-6.732 3.025.356 5.499.305 5.498-.112-.002-.418 3.936-.639 8.75-.492 7.584.231 8.518.083 7.002-1.11-.963-.758-1.75-2.075-1.75-2.928 0-.853-2.025-2.531-4.5-3.729s-4.5-2.558-4.5-3.022c0-.464-.914-1.133-2.032-1.488-2.314-.735-6.968-5.1-6.968-6.535 0-1.393-1.753-1.168-2.302.295-.869 2.318-3.633-2.582-3.666-6.5-.032-3.773.747-4.375 4.899-3.783.787.112 2.187-.798 3.11-2.022 1.623-2.151 1.555-2.349-2.007-5.911-4.448-4.448-6.659-5.453-7.451-3.389-.94 2.449-.679 3.329.816 2.755.769-.295 1.673-.092 2.009.451.336.543-.958 1.506-2.876 2.138-3.338 1.102-3.423 1.247-2.001 3.417 2.684 4.097-.958 12.302-4.492 10.118-.506-.313-3.441-.825-6.522-1.139l-5.602-.571.651 2.593c.506 2.014.279 2.593-1.017 2.593-.917 0-1.423-.395-1.124-.878.624-1.011-4.114-2.122-9.05-2.122-1.856 0-3.375-.501-3.375-1.114 0-.749-1.438-.897-4.395-.454-6.817 1.022-23.346.777-25.506-.379-1.066-.571-2.46-2.616-3.096-4.545-.637-1.93-1.562-3.508-2.056-3.508-1.685 0-6.696-12.819-6.128-15.675.129-.646-.228-1.46-.792-1.809-1.646-1.017-1.185-2.516.773-2.516.99 0 2.227-.393 2.75-.874 2.194-2.019 21.45 1.666 21.45 4.105 0 .543 1.568.805 3.484.581 1.917-.224 3.604-.086 3.75.307.146.393 1.984.119 4.084-.608 3.325-1.152 3.894-1.123 4.411.224.512 1.335.776 1.295 1.939-.296 1.059-1.447 2.75-1.859 7.896-1.922 4.473-.055 6.823-.525 7.416-1.484.624-1.01 1.24-1.111 2.194-.358.935.739 2.211.669 4.326-.234l3-1.282-4.756-1.288c-4.661-1.263-4.744-1.355-4.139-4.58.358-1.909.205-3.291-.366-3.291-.541 0-1.258-1.716-1.593-3.814-1.309-8.182-17.029-10.587-40.646-6.218-10.92 2.02-19.167 1.769-22.613-.688-1.712-1.222-3.399-1.934-3.75-1.584-.35.351-.637-.075-.637-.946s-.46-1.737-1.022-1.924c-.562-.187-1.261-1.656-1.552-3.263-.292-1.608-.76-3.295-1.041-3.75-.281-.455.344-2.061 1.389-3.57s2.185-3.53 2.532-4.493c.347-.963 1.368-1.75 2.27-1.75 1.045 0 1.43.543 1.062 1.5-.316.825-.174 1.5.316 1.5s1.397-1.534 2.016-3.41c1.034-3.133 1.425-3.39 4.828-3.177 2.036.127 4.489.585 5.452 1.016.962.432 2.343.557 3.068.279.726-.278 3.219-.158 5.542.266 3.907.715 4.201.617 3.931-1.308-.273-1.95.22-2.091 7.847-2.245 4.476-.09 8.708-.517 9.405-.947.697-.431 5.36-1.121 10.362-1.534 15.973-1.319 18.69-2.669 19.223-9.549.567-7.333-2.252-14.294-6.563-16.202-4.51-1.996-16.623-3.03-41.544-3.545-5.611-.116-7.042-.467-7.303-1.793-.255-1.29.774-1.8 4.727-2.343 2.778-.383 6.648-1.778 8.598-3.102 1.95-1.323 4.355-2.406 5.343-2.406 2.533 0 4.474-6.777 4.584-16 .13-10.933.582-11.514 6.592-8.469 5.011 2.539 11.498 3.29 12.126 1.404.196-.586 2.11-1.204 4.255-1.374 2.145-.17 4.385-.941 4.979-1.712.685-.891 2.535-1.297 5.078-1.115 7.68.552 13.01 1.499 14.298 2.541 1.501 1.214 7.202 1.59 7.202.475 0-2.145 6.099-.62 7 1.75.916 2.409 4.441 3.522 5.167 1.632.183-.477 1.458-1.212 2.833-1.633 2.489-.761 2.492-.755.595 1.368-1.564 1.751-1.631 2.133-.375 2.133.862 0 1.783 1.201 2.109 2.75.319 1.513 1.663 3.985 2.988 5.495 1.594 1.818 2.297 3.676 2.081 5.5-.179 1.515-.084 1.967.211 1.005.649-2.113 2.391-2.331 2.391-.3 0 .798.621 1.81 1.379 2.25.759.44 2.334 2.593 3.5 4.785 1.673 3.144 2.121 3.514 2.121 1.75 0-1.785.568-2.235 2.82-2.235 1.773 0 3.639-.943 5.029-2.541 2.346-2.699 4.151-2.505 4.151.445 0 .982.933 2.63 2.073 3.662 1.82 1.648 2.019 2.736 1.626 8.905-.788 12.387-1.034 41.528-.355 42.206.829.829.779 1.558 1.098-16.177.148-8.25.37-15.225.493-15.5.123-.275.3-4.775.394-10 .167-9.295.221-9.495 2.487-9.25 3.754.405 6.184-1.475 6.184-4.785 0-2.48.401-2.965 2.45-2.965 1.348 0 2.88-.767 3.404-1.704.794-1.418 1.374-1.513 3.45-.567 3.241 1.477 3.833.76 2.106-2.55-.769-1.473-1.4-3.466-1.404-4.429-.003-.963-.456-1.75-1.006-1.75s-1-.48-1-1.067c0-.613.853-.797 2-.433 1.198.38 2 .18 2-.5 0-.693.807-.879 2.07-.478 1.568.498 2.203.15 2.617-1.432.636-2.432 2.143-2.604 6.595-.751 1.77.736 3.781 1.149 4.468.916.688-.232 1.25.354 1.25 1.301 0 .948.788 2.319 1.75 3.046 1.616 1.221 1.465 1.587-1.956 4.769-3.485 3.241-3.644 3.647-2.654 6.788.579 1.838 1.274 4.287 1.544 5.443.716 3.058 9.151 6.627 11.603 4.909 1.892-1.325 10.485-.937 12.099.547.975.896-1.586 3.942-3.315 3.942-1.609 0-1.288 1.98.429 2.638 1.828.702 1.903 1.78.25 3.579-2.306 2.509-3.722 5.692-3.172 7.127.301.782-.157 3.105-1.016 5.161-2.468 5.909-1.778 6.476 1.211.995 1.763-3.233 3.484-5.108 4.869-5.305 1.572-.225 2.007-.823 1.633-2.25-.346-1.323-.001-1.945 1.077-1.945 1.004 0 1.372-.554 1.005-1.513-.32-.832-.065-2.134.566-2.894.631-.761 1.019-1.976.862-2.701-.157-.725.727-1.779 1.965-2.343 1.238-.563 2.25-1.817 2.25-2.786 0-2.472 4.187-2.294 5.773.246.69 1.104 1.328 4.682 1.419 7.95.149 5.433.365 5.968 2.517 6.242 3.265.415 3.005 2.018-.615 3.799-3.683 1.812-4.026 4-.625 4 1.783 0 2.308.416 1.893 1.5-.375.976.026 1.5 1.148 1.5 1.317 0 1.567.531 1.061 2.25a589.788 589.788 0 0 0-2.139 7.633c-2.424 8.841-7.275 16.117-10.744 16.117-1.074 0-3.444.922-5.268 2.05-3.123 1.93-3.953 3.221-4.897 7.62a4166.93 4166.93 0 0 0-1.056 4.949c-.677 3.175 2.211 7.381 5.067 7.381.636 0 1.971.9 2.966 2 1.774 1.96 1.747 2-1.345 2-1.735 0-3.155.373-3.155.828 0 .456 1.8.793 4 .75 2.2-.043 4 .26 4 .672 0 .412-.436.75-.969.75-.532 0-.696.709-.364 1.575.431 1.123.094 1.482-1.177 1.25-3.404-.621-2.608 2.099 1.063 3.633 2.03.848 4.016 1.542 4.414 1.542 1.238 0 6.033-4.506 6.033-5.67 0-.69 2.44-1.119 6.497-1.143 5.768-.033 6.328.13 5 1.459-2.164 2.163-1.854 3.226 1.161 3.983 2.273.57 2.433.832 1.105 1.802-1.327.971-1.355 1.407-.19 3 .75 1.025 1.126 2.247.836 2.716-1.018 1.648 1.886.833 3.199-.897.771-1.015 1.342-1.238 1.36-.531.067 2.578 3.032-.071 3.032-2.71 0-2.453.34-2.75 2.917-2.547 3.235.255 7.555 3.538 4.654 3.538-.864 0-1.571.45-1.571 1 0 1.739 3.616 1.082 5.5-1 .995-1.1 2.415-2 3.155-2 .74 0 1.345-.394 1.345-.875s1.133-.875 2.519-.875c1.691 0 2.246.37 1.688 1.125-1.124 1.524-.941 4.121.293 4.14.55.009 1.582.385 2.294.836.721.458 1.851.359 2.552-.223.692-.574 2.217-.794 3.388-.487 1.776.464 2.039.207 1.582-1.542-.302-1.154-1.059-2.131-1.683-2.169-1.448-.09 2.402-1.766 4.272-1.86 1.106-.055 1.053.319-.25 1.759-2.234 2.468-2.085 3.171.672 3.171 2.016 0 2.268-.4 1.886-3-.48-3.274.178-3.562 4.442-1.941 2.296.873 3.01.752 4.065-.691 1.179-1.612 1.28-1.617 1.28-.059 0 .93.436 1.691.969 1.691.532 0 .707-.68.388-1.511-.747-1.947 2.608-.827 4.303 1.436 1.035 1.382 1.382 1.347 3.236-.331 1.552-1.405 3.724-1.906 8.591-1.984 4.085-.065 6.513-.521 6.513-1.225 0-1.235 6.586-2.571 11.872-2.409 2.573.079 3.239-.244 2.811-1.36-.712-1.855 4.784-3.954 7.166-2.736.908.465 5.026 1.13 9.151 1.479 4.125.348 8.426.89 9.559 1.204 2.01.557 2.055.255 1.883-12.746-.239-18.197-.147-17.968-6.754-16.76-2.294.42-4.524.544-4.956.277-.432-.267-3.979-.667-7.881-.889-9.186-.522-9.969-1.218-9.346-8.313L458 136.5l-1.276 5.5c-1.687 7.264-2.456 8.467-4.389 6.863-.946-.785-1.733-.875-2.161-.247-1.822 2.671-22.174.132-22.174-2.766 0-.68-.974-.312-2.25.851-1.238 1.127-3.6 2.102-5.25 2.167-1.65.065-4.17.277-5.6.471-5.045.685-6.268-1.408-5.585-9.556.398-4.743.28-6.758-.337-5.782-.521.825-.954 2.086-.963 2.804-.023 1.969-3.731 9.714-5.256 10.98-.737.612-4.052 1.1-7.365 1.084-3.314-.016-7.623.271-9.576.637-3.251.61-3.594.448-4.046-1.92-.336-1.757-.058-2.586.867-2.586 1.533 0 1.737-.899 1.415-6.25-.124-2.062.194-3.75.708-3.75.513 0 .973-1.238 1.021-2.75.132-4.118 3.089-10.404 5.149-10.942 1.582-.414 1.688-.968.829-4.352-.679-2.673-.639-4.867.127-7.066.612-1.754 1.079-4.134 1.038-5.289-.089-2.508-3.732 4.781-3.852 7.705-.041.994-1.508 3.116-3.261 4.717-2.876 2.627-3.064 3.139-1.932 5.255 1.037 1.937.967 3.113-.406 6.783-2.424 6.483-6.774 14.939-7.686 14.939-.434 0-.789 1.27-.789 2.822 0 2.79-.061 2.818-5.25 2.418-2.887-.223-5.7-.368-6.25-.322-.55.045-2.916.195-5.257.332l-4.257.25.539-4.491c.525-4.374 1.463-8.468 3.753-16.378l1.121-3.869 2.096 2.437c1.153 1.341 2.711 2.232 3.463 1.982.752-.251 1.926.308 2.609 1.241.798 1.092 1.476 1.317 1.901.63.773-1.251-1.732-4.045-3.647-4.067-3.024-.035-3.884-1.507-2.76-4.729 1.179-3.384 6.372-6.175 7.317-3.933.332.786.998.556 2.008-.694 1.072-1.327 2.236-1.69 4.002-1.247 3.521.884 4.007-.714 1.101-3.62l-2.48-2.48 2.631-2.838c1.446-1.561 3.041-4.325 3.542-6.141.736-2.665 1.434-3.318 3.615-3.38 1.487-.042 3.497-.228 4.468-.413.971-.186 2.398.296 3.172 1.07 1.21 1.21 1.748 1.104 3.833-.753 1.334-1.189 3.507-2.251 4.828-2.362 1.321-.11 4.202-.556 6.402-.991 2.2-.435 4.788-.816 5.75-.847 2.497-.079 2.171-3.359-.416-4.18l-2.167-.687 2.113-1.63c1.892-1.46 1.962-1.832.666-3.571-.795-1.068-1.446-2.804-1.446-3.859 0-1.56-.479-1.797-2.572-1.271-2.679.672-8.898-2.34-9.681-4.689-.304-.911-1.287-.91-4.27.006-4.362 1.338-5.018 1.107-4.047-1.425.578-1.506.814-1.549 1.608-.293.786 1.243.934 1.205.947-.239.023-2.617 6.721-3.938 18.849-3.717 5.866.107 12.691-.277 15.166-.852 2.475-.575 6.3-1.099 8.5-1.164 2.2-.065 6.7-.267 10-.448s8.025.097 10.5.617c2.475.521 9.225 1.294 15 1.719 5.775.424 11.099.947 11.832 1.163.9.265 1.451-.806 1.697-3.298.249-2.517 1.35-4.631 3.463-6.651 2.014-1.924 2.653-3.11 1.826-3.385-1.421-.474-2.199-15.42-.846-16.256.429-.265-.049-3.977-1.062-8.249-1.013-4.273-1.857-9.9-1.876-12.505L487 14.027l-92.75.629c-51.013.346-101.157.609-111.431.584-15.816-.038-18.597.174-18.132 1.387.326.849 1.282 1.2 2.347.862.989-.314 2.087-.102 2.441.47.653 1.057-.565 1.415-3.725 1.093-.962-.098-1.75.316-1.75.92 0 .795-.562.797-2.038.008-1.121-.6-2.921-.811-4-.468-1.113.353-1.962.161-1.962-.445 0-1.299-4.656-1.432-5.445-.155-.331.534-1.776.453-3.497-.196-1.614-.609-2.752-1.403-2.529-1.763.421-.681-16.773-2.296-22.029-2.069-1.65.071-6.272.492-10.272.934-4 .443-7.479.598-7.731.346-.253-.253-17.455-.615-38.228-.805-20.773-.191-39.569-.5-41.769-.689-2.2-.188-4.9-.2-6-.027M240 25.346c0 .854-1.424 1.262-4.25 1.219-2.893-.044-4.17.334-4 1.185.305 1.525-1.44 1.681-1.942.174-.209-.626-4.119-1.223-9.333-1.427l-8.975-.349 3.59 1.676c1.98.924 3.4 2.236 3.166 2.926-.232.688.065 1.25.661 1.25.595 0 1.09.788 1.098 1.75.014 1.513.162 1.547 1.095.25.91-1.266.991-1.227.516.25-.711 2.208 1.26 2.288 2.849.115 1.083-1.481 1.399-1.417 3.36.689 1.841 1.975 2.165 2.062 2.165.576 0-.962.432-1.481.959-1.155.528.326 1.765.128 2.75-.441.985-.568 3.059-1.484 4.608-2.034 2.314-.823 2.696-1.403 2.138-3.251-.555-1.835-.438-2.019.633-.999 1.901 1.811 2.799 1.535 2.22-.681-.582-2.224-3.308-3.644-3.308-1.723m-86 29.493c0 1.012 1.125 2.353 2.5 2.979 2.184.995 2.5 1.775 2.5 6.161 0 3.796-.366 5.021-1.5 5.021-.825 0-1.5.498-1.5 1.107s.713.834 1.584.499c.871-.334 1.419-.27 1.217.143a536.7 536.7 0 0 1-1.746 3.505c-1.759 3.511-1.236 3.96 3.473 2.982 3.721-.773 3.873-.974 5.316-7.058 1.352-5.694 1.336-6.578-.179-9.754-.916-1.92-1.665-4.103-1.665-4.851 0-1.712-2.201-2.573-6.582-2.573-2.652 0-3.418.412-3.418 1.839m-26 35.329c-10.944 1.282-27.92 3.864-29.572 4.498-1.884.723-1.834 2.334.072 2.334.825 0 1.5-.349 1.5-.776 0-.427 1.778-.607 3.951-.4 7.474.713 32.01-3.484 34.499-5.901 1.074-1.044.426-1.028-10.45.245m127.115 18.082c-.647 5.638-1.354 16.775-1.571 24.75-.218 7.975-.645 17.65-.95 21.5-.345 4.351-.249 5.865.252 4 .444-1.65 1.26-3.9 1.813-5 .557-1.105 1.059-10.499 1.124-21 .064-10.45.411-22.487.771-26.75.95-11.259-.062-9.5-1.439 2.5M458 100.051c0 .954.788 2.053 1.75 2.442 1.551.627 1.492.807-.522 1.583-3.399 1.31-3.648 3.368-.781 6.461 1.413 1.525 2.453 3.477 2.311 4.338-.321 1.943 6.942 6.116 8.016 4.605.399-.562 1.964-1.564 3.476-2.229 1.512-.664 2.75-1.827 2.75-2.584 0-.756 1.125-2.589 2.5-4.072 3.238-3.494 3.163-5.994-.25-8.388-6.072-4.26-19.25-5.736-19.25-2.156m-18.559 12.045c-.373.603-1.975.906-3.559.673-1.585-.232-2.882-.105-2.882.283 0 .388-1.306 1.246-2.901 1.907-7.638 3.164-9.052 11.705-3.05 18.422 2.673 2.991 2.845 3.036 7.842 2.012 2.81-.576 5.109-.674 5.109-.22 0 1.189 6.152 1.018 9.857-.273 3.989-1.39 4.88-4.602 2.751-9.921-.884-2.21-1.608-4.924-1.608-6.031 0-1.106-.72-2.287-1.6-2.625-.88-.337-2.659-1.673-3.954-2.968-2.528-2.528-4.912-3.027-6.005-1.259M223.5 151.772c-4.463 1.813-5.715 3.085-4.986 5.068.8 2.177-.454 3.263-2.502 2.166-3.812-2.04-7.659 3.382-4.35 6.129.761.631 1.135 1.928.833 2.882-.367 1.154.087 1.902 1.353 2.233 2.457.642 3.498 7.457 1.325 8.673-1.309.733 7.947 6.077 10.525 6.077 1.634 0 3.411 4.229 2.871 6.834-.362 1.746.082 3.485 1.286 5.039 1.798 2.32 1.9 2.333 4.53.611 2.548-1.67 2.757-1.672 3.955-.033 1.148 1.569 1.387 1.583 2.575.151 1.106-1.332 1.02-1.686-.552-2.267-3.539-1.309-4.792-6.849-1.808-7.994.855-.329 1.48-1.552 1.389-2.719-.298-3.824.04-5.622 1.056-5.622.55 0 1 1.35 1 3 0 4.097 2.684 3.948 4.509-.25l1.413-3.25.212 6.5c.117 3.575.247 8.036.289 9.913.043 1.876.651 3.605 1.354 3.842.96.323 1.118-.559.637-3.568-.542-3.391-.357-4.051 1.222-4.355 1.068-.206 1.861-1.204 1.862-2.345.001-1.337.574-1.891 1.752-1.693.962.161 1.75-.176 1.75-.75 0-.574-.675-1.044-1.5-1.044-.862 0-1.5-.902-1.5-2.122 0-1.714-.272-1.897-1.411-.952-.965.801-1.616.839-2.059.123-.356-.577.054-1.049.911-1.049 1.771 0 2.073-2.086.526-3.633-.568-.568-.726-1.832-.351-2.809.614-1.601.771-1.617 1.583-.167.495.885 1.666 1.595 2.601 1.579 1.587-.029 1.586-.097-.02-1.034-.947-.551-2.2-2.782-2.786-4.957-.585-2.176-1.386-3.907-1.779-3.849-2.91.434-5.672-.496-7.806-2.63-1.375-1.375-2.887-2.5-3.361-2.5-.473 0-.625-.9-.338-2 .432-1.652.025-2.006-2.343-2.032-1.577-.017-3.741-.692-4.808-1.5-1.693-1.28-1.725-1.468-.25-1.468.93 0 1.691-.675 1.691-1.5s-.562-1.506-1.25-1.514c-.687-.007-2.15-.199-3.25-.426-1.1-.226-3.8.319-6 1.212m-91.855 33.505c-.341 1.36.254 4.851 1.368 8.02 1.423 4.049 1.717 6.282 1.056 8.021-1.625 4.276-7.472 5.086-9.208 1.276-1.219-2.675-4.57-3.678-9.573-2.866-1.806.293-5.307-.033-7.779-.726-5.4-1.511-7.509-.347-7.509 4.145 0 2.82-2.67 4.853-6.374 4.853-2.415 0-4.876-2.689-4.876-5.328 0-2.698-2.021-3.661-3.308-1.578-.372.602-1.759.887-3.083.634-1.324-.253-2.65-.067-2.947.414-.297.48-1.268.145-2.158-.745-1.397-1.397-1.765-1.421-2.686-.179-.748 1.009-1.893 1.218-3.818.698-2.854-.771-3.097-.571-2.806 2.309.095.949-.599 3.354-1.544 5.343-1.388 2.927-1.465 3.773-.403 4.43.722.447 1.445 2.051 1.607 3.566.492 4.618 6.341 6.276 8.422 2.388.726-1.358 1.71-1.853 2.916-1.47 1.123.356 2.046-.009 2.408-.952.954-2.486 3.826-1.889 3.463.72-.39 2.803 5.911 3.994 7.367 1.393 2.881-5.149 17.779-8.751 37.449-9.056 10.816-.167 13.428-.501 14.822-1.895 1.538-1.538 1.549-1.835.12-3.263-.864-.865-1.571-2.16-1.571-2.878s-.683-1.873-1.518-2.566c-.836-.693-2.122-2.661-2.86-4.373-2.001-4.644-3.547-7.844-5.037-10.428l-1.335-2.316-.605 2.409m298.084 12.535c-2.074.171-3.51.734-3.191 1.25 1.048 1.696-.587 3.142-2.117 1.872-2.484-2.061-14.519-2.509-15.599-.581-1.157 2.068-2.523 2.089-4.543.069-.982-.982-2.37-1.335-3.678-.934-1.156.353-5.44.863-9.52 1.133-4.081.269-8.214.915-9.185 1.434-.97.52-5.874.945-10.896.945-5.022 0-9.983.456-11.025 1.013-1.635.876-5.772 1.516-12.194 1.888-1.099.063-1.511.64-1.143 1.599.381.991-.054 1.523-1.281 1.568-1.593.058-1.537.222.393 1.152 2.666 1.286 2.995 3.778.5 3.784-.962.002-3.163.865-4.89 1.918-2.816 1.717-3.07 2.259-2.46 5.247.643 3.15.965 3.366 5.921 3.976 3.71.456 5.984 1.388 7.786 3.189 1.399 1.4 3.108 2.329 3.796 2.065 2.429-.932 6.94 1.483 5.657 3.029-1.563 1.883.506 3.177 2.471 1.546 1.639-1.36 4.923-.518 3.973 1.019-.353.571.438 1.007 1.829 1.007 1.772 0 2.622-.684 3.07-2.471.342-1.359 1.554-2.971 2.694-3.581 3.34-1.787 3.589-.07.364 2.507-1.629 1.301-2.68 2.65-2.336 2.997.772.78 8.875-2.37 8.875-3.449 0-1.739 7.37-2.217 8.584-.557 1.083 1.481 1.231 1.478 1.81-.031.43-1.121 1.421-1.492 3.118-1.168 1.369.262 2.488.062 2.488-.445 0-.506.5-.611 1.112-.233.611.378 1.485.083 1.941-.655.456-.738 2.768-1.436 5.138-1.552 2.37-.117 6.219-.423 8.554-.682 2.37-.263 4-.076 3.69.424-.304.493 1.785.896 4.642.896h5.195l-.741 4.75c-.408 2.613-.706 5.65-.662 6.75.137 3.471-2.743 8.343-5.134 8.682-1.443.205-2.236 1.012-2.238 2.276-.002 1.817-.801 1.968-11.113 2.106-6.111.082-11.673.496-12.359.921a1.448 1.448 0 0 1-2.01-.46c-.537-.869-1.313-.941-2.638-.244-3.542 1.862-10.485 2.499-12.938 1.187-1.926-1.032-2.929-.964-5.786.392-1.9.902-3.842 1.64-4.314 1.64s-1.42.9-2.107 2c-.78 1.249-2.332 2-4.133 2-1.642 0-3.133.646-3.461 1.5-.334.872-1.831 1.5-3.575 1.5-2.256 0-2.857.372-2.425 1.5.365.95-.013 1.5-1.031 1.5-1.446 0-2.057 1.15-1.725 3.25.312 1.981-1.861.36-4.023-3-4.036-6.271-4.575-7.627-4.373-11.013.106-1.792-.409-3.758-1.146-4.37-.737-.611-1.34-1.709-1.34-2.438 0-.729-1.125-2.54-2.5-4.024-1.375-1.483-2.5-3.505-2.5-4.492 0-.987-.396-2.04-.88-2.339-.484-.299-1.642-2.913-2.574-5.809-1.857-5.767-4.782-8.778-7.77-7.996-2.224.581-1.733 4.912.775 6.839.793.609 1.727 2.531 2.075 4.271.348 1.739 1.024 3.405 1.503 3.701 1.738 1.074.812 2.42-1.664 2.42-3.143 0-7.465-2.725-7.465-4.707 0-.813-.894-2.614-1.986-4.003-1.093-1.389-1.739-2.925-1.437-3.414.302-.489-.381-2.196-1.517-3.792-1.137-1.596-1.795-3.612-1.462-4.479.413-1.077-.2-1.883-1.936-2.543-1.397-.532-3.012-1.847-3.588-2.924-1.469-2.744-5.074-1.693-5.074 1.479 0 1.31-.52 2.383-1.155 2.383-.691 0-.49.735.5 1.829.91 1.006 1.655 2.318 1.655 2.916 0 .599.498 1.254 1.106 1.457.609.203 1.211 1.703 1.34 3.333.128 1.631.57 3.731.982 4.667.412.936.436 2.208.054 2.827-.382.618.263 2.017 1.434 3.107 1.171 1.091 1.867 2.406 1.547 2.924-.319.517.121.94.978.94s1.559.401 1.559.892c0 .49 1.14 1.177 2.534 1.527 1.424.358 3.062 1.829 3.738 3.359.663 1.497 1.772 3.317 2.466 4.043.694.727 1.314 1.852 1.377 2.5.064.649.22 1.629.348 2.179.128.55.301 1.563.385 2.25.083.688.755 1.25 1.491 1.25.737 0 1.921 1.238 2.632 2.75.71 1.512 1.477 2.242 1.703 1.62.237-.65 1.65.108 3.325 1.783 1.674 1.674 2.673 3.537 2.35 4.38-.359.936.054 1.467 1.143 1.467.938 0 3.011 1.398 4.607 3.106 3.292 3.524 3.807 2.788 1.013-1.45-1.042-1.581-1.639-3.75-1.343-4.882.363-1.388-.232-2.622-1.868-3.871l-2.401-1.833 3.5.215c4.945.304 8.45 4.619 8.655 10.657.234 6.893.266 7.058 1.404 7.058.582 0 .81-.403.506-.895-.305-.493.104-1.148.909-1.457 1.68-.644 1.718-.589 3.522 5.142.889 2.825 1.804 4.117 2.677 3.782.73-.28 1.327-.025 1.327.566 0 .592.675.817 1.5.5.914-.35 1.5-.001 1.5.893 0 .808.415 1.469.922 1.469 1.866 0 6.994 11.818 5.394 12.432-1.684.647-5.316-1.039-5.316-2.467 0-.531-.605-.965-1.345-.965-2.407 0-4.896-3.664-4.13-6.08.562-1.769.382-2.098-.879-1.614-1.154.442-2.994-1.429-6.758-6.874-5.121-7.407-8.077-9.709-4.002-3.117 1.163 1.882 2.114 5.055 2.114 7.053 0 1.998.498 3.632 1.107 3.632s.877.601.595 1.335c-.282.734 1.254 2.997 3.412 5.03 3.366 3.169 3.769 3.985 2.836 5.729-.791 1.477-.781 2.404.033 3.386 1.266 1.524 1.64 1.369-9.759 4.042-8.192 1.921-9.9 3.62-7.769 7.729 1.131 2.179 1.125 2.904-.038 4.564-2.432 3.472 3.037 5.077 18.417 5.405 7.238.154 13.161.635 13.163 1.068.002.433 1.241.658 2.753.5 2.443-.256 2.729.021 2.56 2.473-.104 1.519-.892 3.464-1.75 4.322-2.01 2.009-1.986 2.794.061 2.009 1.245-.478 1.498-.156 1.093 1.392-.289 1.108-.118 2.266.38 2.574 1.561.965.994 2.182-1.344 2.884-2.18.654-2.188.7-.25 1.491 1.1.449 2.337.621 2.75.383 1.64-.949.622 1.349-1.344 3.032-2.583 2.212-6.055-.06-5.184-3.392.463-1.771.239-1.838-2.705-.812-2.346.818-2.848 1.348-1.863 1.972.998.633 1.023.857.096.869-.687.008-1.25.526-1.25 1.15 0 1.335-4.674 5.865-6.052 5.865-.521 0-.948-.482-.948-1.071 0-2.111-2.562-3.753-4.319-2.77-2.086 1.167-2.193 2.841-.181 2.841 1.595 0 1.95 1.756.735 3.638-.492.761-2.058.882-4.735.365-2.2-.425-3.1-.841-2-.923 2.758-.208-1.991-2.993-5.191-3.045-2.828-.045-4.07 1.96-1.949 3.146.902.505 1.64 1.571 1.64 2.369 0 1.732-.493 1.792-3.13.381-1.219-.653-2.46-.716-3.184-.161-4.77 3.653-25.031 3.83-29.859.26-1.51-1.116-3.13-2.03-3.599-2.03-.47 0-2.176-1.395-3.791-3.101-1.615-1.705-3.949-3.494-5.187-3.975-1.28-.497-2.25-1.727-2.25-2.852 0-4.638-5.661-10.475-6.833-7.046-.602 1.759-2.167 1.018-2.167-1.026 0-1.1-.45-2-1-2s-1-.9-1-2-.445-2-.989-2c-.543 0-1.855-.742-2.915-1.65-2.825-2.419-8.48-4.12-12.607-3.793-2.316.184-3.796-.194-4.126-1.054-.487-1.269 2.118-6.307 3.93-7.603.461-.33 1.17-3.041 1.575-6.025.405-2.984 1.079-5.98 1.498-6.658.994-1.608-1.574-4.13-5.291-5.195-3.611-1.036-6.063 1.198-6.099 5.557-.038 4.646-1.738 10.774-3.308 11.922-.862.63-1.304 2.25-1.1 4.027.638 5.549-1.289 10.301-4.339 10.702l-2.729.358 2.75 1.366c1.834.912 2.75 2.151 2.75 3.72 0 1.294.52 3.36 1.156 4.59 2.585 5 2.953 6.026 3.953 11.026 1.397 6.984 1.697 12.238 1.802 31.627.049 9.029.257 16.229.463 16 .865-.963 1.58-14.668 1.704-32.675l.133-19.258 2.645.142c1.454.077 3.386-.175 4.293-.561.907-.386 1.946-.221 2.309.367.363.587 1.503 1.068 2.534 1.068 1.03 0 2.159.9 2.508 2 .349 1.1 1.504 2 2.567 2 1.063 0 1.933.675 1.933 1.5s.375 1.5.833 1.5c.459 0 .843 1.238.855 2.75.014 1.78 1.311 4.102 3.676 6.581 2.01 2.107 3.436 4.184 3.169 4.616-.267.432.418 1.604 1.522 2.603 1.105 1 1.937 2.522 1.85 3.384-.238 2.361 2.372 8.066 3.692 8.066 2.092 0 3.979 3.026 2.468 3.96-.985.609-.294 2.147 2.815 6.264 2.266 3.002 4.12 5.976 4.12 6.608 0 .633.9 1.713 2 2.4 2.801 1.75 2.491 3.095-.578 2.508-2.851-.545-5.215 2.751-4.085 5.696.81 2.112 2.646 1.987 2.733-.186.06-1.496.195-1.46.93.25.473 1.1.894 1.55.936 1 .105-1.38 3.064 4.421 3.064 6.007 0 2.249 7.197 3.601 8.442 1.587.82-1.327 4.558-.094 4.558 1.504 0 1.675-4.107 2.806-7.7 2.119-4.645-.888-7.956 2.519-8.164 8.401-.211 5.962-1.347 8.002-5.784 10.392-3.563 1.918-4.32 3.904-1.852 4.852 1.728.663 1.992 3.746.453 5.285-.576.576-1.151 2.666-1.277 4.644-.293 4.585-.91 5.139-5.453 4.903-6.406-.333-6.726.935-1.543 6.118 2.579 2.578 5.088 4.688 5.576 4.688.488 0 1.494.607 2.236 1.349 1.496 1.496 14.045 2.968 18.293 2.146 2.264-.438 2.383-.369.715.419-1.903.9-1.888.949.321 1.016 1.277.038 2.98-.588 3.784-1.393 1.284-1.283 1.061-1.578-1.821-2.409l-3.284-.948 3.809-.09c2.781-.066 3.615.247 3.09 1.16-.396.688-.363.928.072.535.436-.393 1.699-.229 2.807.364 1.589.85 2.206.737 2.918-.535.686-1.225 2.458-1.614 7.354-1.614 5.067 0 6.45-.322 6.45-1.5 0-.825.661-1.5 1.469-1.5.959 0 1.247.577.83 1.664-.36.936-.226 1.409.306 1.08.519-.321 2.508-.216 4.42.234l3.475.817-3 .193c-1.65.106-6.375.265-10.5.353-5.612.119-7.431.49-7.228 1.476.174.838-.519 1.201-1.907 1-1.198-.175-2.333.133-2.522.683-.225.656 8.353.874 24.907.635 13.887-.2 29.975-.32 35.75-.265 33.966.324 44.265.155 45.347-.743 1.113-.924 13.268-.032 15.326 1.124.455.256 3.077.155 5.827-.223 4.539-.623 4.777-.78 2.579-1.693-1.922-.798-2.128-1.188-1-1.891 2.375-1.481 4.921-1.512 4.921-.06 0 1.704 1.743 3.142 5 4.127 2.424.732 2.447.695.748-1.209-.964-1.08-1.451-2.265-1.084-2.633.368-.368.118-.669-.556-.669s-.947-.451-.607-1.002c.8-1.293-4.23-3.219-6.515-2.494-1.046.332-1.985-.059-2.336-.974-.377-.982-.012-1.53 1.021-1.53.885 0 2.108-.63 2.719-1.399 2.264-2.853 5.502-2.932 6.762-.166 1.448 3.176 1.954 3.186 5.044.096 1.399-1.399 5.018-3.133 8.347-4 7.337-1.911 7.447-1.908 7.501.219.026 1.032.867.191 2.051-2.052 1.193-2.261 1.747-4.621 1.366-5.821-.991-3.123 1.645-10.877 3.698-10.877 2.074 0 3.277-1.613 1.857-2.49-.559-.345-1.016-1.726-1.016-3.069 0-1.503-.576-2.441-1.5-2.441-1.375 0-1.985-2.448-1.734-6.958.162-2.911-1.8-5.166-3.912-4.496-1.333.423-2.766-.054-4.196-1.398-1.195-1.122-3.744-2.722-5.665-3.555-1.921-.833-2.93-1.532-2.243-1.554 1.472-.046 1.719-3.039.25-3.039-.55 0-1-.9-1-2 0-2.041 2.143-2.623 8-2.175 3.677.282 6.639-.603 6.869-2.052.409-2.567 1.374-41.485 1.197-48.258-.116-4.457-.704-7.563-1.624-8.579-.793-.877-1.442-2.121-1.442-2.765 0-1.793-6.178-1.865-6.833-.079-.184.499-1.309.894-2.5.876-2.121-.031-2.125-.063-.226-1.5 1.534-1.16 1.616-1.468.389-1.468-1.117 0-1.419-.702-1.075-2.5.273-1.425.011-2.5-.608-2.5-.6 0-1.027-1.568-.955-3.5.073-1.925.509-3.5.97-3.5.461 0 .838-.45.838-1s-1.125-1-2.5-1-2.5-.45-2.5-1-.788-1.007-1.75-1.015c-3.197-.028.92-1.951 4.25-1.985 2.244-.023 2.629-.265 1.529-.961-1.963-1.241-.596-2.489 1.678-1.53.986.415 2.804.89 4.039 1.055 1.235.164 3.092.567 4.126.895 2.476.786 3.097-1.648 3.114-12.209.015-8.815-.01-8.876-2.925-7.056-2.482 1.55-7.548-.483-6.702-2.688.707-1.843-1.912-4.506-4.43-4.506-1.061 0-1.929.675-1.929 1.5s.771 1.5 1.714 1.5c1.567 0 1.578.137.125 1.59-1.454 1.453-1.859 1.451-4.715-.026-1.718-.888-3.124-2.001-3.124-2.473s-1.006-1.121-2.235-1.442c-2.209-.578-2.212-.602-.25-2.085 1.777-1.343 1.802-1.504.235-1.532-.962-.018-1.75.448-1.75 1.035 0 1.296-4.187.152-5.193-1.418-.381-.595-.218-1.654.362-2.353.58-.699.799-1.937.487-2.751-.313-.815-.127-1.754.412-2.087 1.225-.757.679-5.37-.744-6.282-1.317-.845-2.774-5.294-1.649-5.04 1.274.289 6.051-1.883 6.797-3.091 1.567-2.535 2.303.34 1.019 3.981-1.385 3.925-1.372 3.974 1.022 3.974 1.744 0 2.263.421 1.849 1.5-.365.95.013 1.5 1.031 1.5.94 0 1.607-.83 1.607-2 0-1.1-.45-2-1-2s-1-.9-1-2c0-1.467.667-2 2.5-2 1.375 0 2.5-.436 2.5-.969 0-.532.702-.699 1.56-.37 1.043.401 1.745-.11 2.119-1.542.31-1.185 1.667-2.419 3.04-2.763l2.479-.623-2.731-2.178c-2.611-2.081-2.729-2.564-2.668-10.883.036-4.788-.324-8.466-.798-8.173-.475.294-1.15.069-1.501-.499-.351-.568-1.035-.788-1.519-.488-.951.588-3.23-2.93-2.422-3.738.269-.269-.197-1.058-1.035-1.754-1.959-1.626-1.976-3.407-.024-2.658.888.341 1.5.01 1.5-.81 0-.762-.439-1.535-.974-1.719-1.732-.592.103-4.833 2.091-4.833 2.046 0 2.745-4.349.883-5.5-.55-.34-1-1.491-1-2.559 0-1.739-1.054-2.406-3.25-2.059-.961.151-.848-1.826.25-4.382.651-1.514.876-1.609.93-.389.074 1.71 4.558 1.527 5.644-.23.299-.485 2.056-.881 3.903-.881 6.594 0 7.942-1.56 4.523-5.23-2.193-2.355-2.557-4.308-.984-5.28.559-.346.689-1.159.288-1.808-.401-.649-.746-2.755-.767-4.681-.034-3.215-.262-3.477-2.787-3.213-1.512.158-2.75-.179-2.75-.75 0-1.679-1.887-1.193-3.732.962-2.013 2.351-3.73 2.647-2.906.5.369-.962-.041-1.528-1.143-1.579-1.029-.047-1.221-.28-.478-.58 1.557-.629-.343-2.764-3.288-3.695-1.621-.512-1.971-.119-2.057 2.318-.079 2.23.401 3.035 2 3.349 1.319.26.87.465-1.205.551-1.821.075-3.05-.283-2.733-.796.788-1.276-3.358-4.044-5.073-3.386-.762.293-1.385.034-1.385-.575s.872-1.107 1.938-1.107c1.302 0 1.89-.637 1.791-1.943-.122-1.62-1.177-2.053-6.358-2.608-3.417-.366-6.586-.441-7.042-.167-.456.274-2.854.21-5.329-.142-2.475-.352-6.197-.5-8.271-.328M274.25 212.603c-1.238 1.412-2.25 3.005-2.25 3.541s-.393.731-.872.435c-1.314-.812-2.23 6.593-1 8.076.585.704 1.358 1.224 1.718 1.154 1.696-.329 4.373 1.713 5.759 4.393.941 1.82 2.07 2.753 2.931 2.423.77-.296 1.677-.089 2.016.459.339.549 1.41.745 2.381.437.97-.308 3.07.121 4.665.954 4.424 2.307 8.402 2.016 8.402-.615 0-1.177.771-2.703 1.712-3.392 1.395-1.02 1.481-1.53.464-2.756-.687-.828-1.278-3.975-1.315-6.994-.072-6.104-.193-6.223-9.289-9.138-7.51-2.407-12.614-2.066-15.322 1.023m-101 19.516c-2.02.583-3.262 1.59-3.282 2.66-.029 1.596-.123 1.6-1.294.061-1.914-2.516-24.381-1.121-29.941 1.859-3.698 1.983-5.436 2.233-15.516 2.227-8.323-.004-9.887.546-7.718 2.716 1.079 1.079 2.441 1.31 4.738.806 2.901-.637 3.089-.545 1.871.922-.744.896-1.86 1.64-2.48 1.652-.621.012-2.253.948-3.628 2.079l-2.5 2.057 2.75-.598c1.685-.366 2.75-.176 2.75.493 0 .599 1.013.959 2.25.799 1.237-.159 2.889.107 3.67.593 1.031.641 1.267.484.861-.573-.307-.801.031-2.262.751-3.246 1.24-1.697 1.37-1.677 2.47.377.638 1.193.902 2.426.588 2.741-.315.314-.082 1.163.518 1.886 1.288 1.552-1.422 4.912-3.117 3.864-.563-.348-2.754-.805-4.869-1.015-4.69-.467-7.766 3.571-4.182 5.489 1.123.601 2.153 2.623 2.558 5.019.373 2.207 1.012 4.013 1.421 4.013.409 0 1.382 1.238 2.162 2.75s2.057 3.249 2.837 3.86c1.199.938 1.065 1.606-.869 4.322l-2.288 3.213 3.369-.323c2.858-.273 3.419-.75 3.693-3.139.259-2.264 1.204-3.194 4.814-4.742 2.47-1.058 4.211-2.378 3.868-2.933-1.542-2.495 3.586-.69 5.441 1.916 1.221 1.715 3.419 3.215 5.318 3.63 1.78.389 4.309 1.548 5.621 2.576 5.31 4.163 16.115 1.45 16.115-4.047 0-1.054.563-2.104 1.25-2.333 1.388-.464 1.631-16.104.33-21.287-.721-2.874-.706-2.887 1.308-1.065 1.121 1.015 2.692 1.593 3.492 1.286.8-.307 1.722.139 2.049.99.427 1.114.147 1.377-.997.938-1.324-.508-1.476-.087-.905 2.513.378 1.717.767 3.674.866 4.349.099.674.951 2.402 1.894 3.841.942 1.438 1.713 3.707 1.713 5.041 0 1.777.693 2.601 2.588 3.077 2.174.545 2.388.891 1.336 2.159-1.042 1.255-.894 1.603.878 2.067 1.173.306 2.402 1.408 2.732 2.449.331 1.041 1.02 1.892 1.533 1.892.513 0 .933.477.933 1.059s-.45.781-1 .441c-.975-.602-1.406.711-1.071 3.265.19 1.453-3.812 3.207-5.69 2.492-.822-.313-1.046.081-.643 1.132.34.886 1.271 1.611 2.07 1.611.799 0 1.2.408.892.906-.308.498-1.407.685-2.442.414-1.212-.317-2.458.33-3.499 1.816-2.031 2.9-2.109 5.267-.149 4.515.807-.31 1.709-.174 2.003.302.841 1.361-.538 4.047-2.078 4.047-.766 0-1.393.45-1.393 1s.675 1 1.5 1 1.5.498 1.5 1.107-.638.862-1.417.563c-2.407-.923-3.907 8.394-1.583 9.83 1.157.715 1.367 4.499.25 4.503-1.199.005-1.064 7.421.15 8.232 1.448.967 5.851.98 5.254.015-.584-.945 12.658-.793 14.204.162.628.389 1.142.235 1.142-.34 0-1.402 9.676-.796 11.171.699 1.394 1.394-2.836 5.295-4.888 4.507-.706-.27-1.283-.187-1.283.186 0 1.317 2.88 3.537 4.679 3.606 1.63.063 1.611.154-.179.862-1.1.435-2.608.563-3.351.284-.743-.279-1.749.121-2.235.888-.569.9-.889.974-.899.208-.022-1.732-3.262-1.208-5.465.884-1.683 1.598-1.708 1.804-.225 1.804.921 0 1.675.639 1.675 1.421 0 2.22 5.558 3.002 8.198 1.153 2.709-1.898 3.888-2.005 3.552-.324-.155.777.882 1.25 2.743 1.25 2.955 0 2.99-.064 2.77-5-.661-14.757-1.718-21.5-3.371-21.5-.491 0-.892-.653-.892-1.45 0-.798-.667-1.824-1.481-2.28-.815-.456-1.727-2.78-2.027-5.164-.299-2.384-.983-5.154-1.518-6.155-1.639-3.063-1.163-4.22 1.526-3.706 1.375.263 2.5.297 2.5.076 0-1.339-4.64-6.333-5.938-6.391-1.096-.05-.965-.304.438-.852 1.908-.746 1.891-.817-.382-1.539-1.31-.417-1.985-1.046-1.5-1.398 1.699-1.234 5.382-7.074 5.382-8.533 0-.81-.909-1.762-2.02-2.114l-2.02-.641 2.014-1.677c2.251-1.872 1.824-2.896-2.302-5.524-1.606-1.022-2.605-2.385-2.31-3.152.713-1.86-1.221-8.5-2.477-8.5-.562 0-.164-1.238.883-2.75 1.128-1.629 1.995-4.778 2.126-7.724.267-6.007.07-5.776 3.447-4.024 2.416 1.253 2.821 1.241 3.337-.105.724-1.888-.941-3.677-3.606-3.873-1.099-.081-2.949-1.008-4.112-2.06-1.162-1.052-3.541-2.386-5.286-2.965-2.564-.85-3.141-1.552-3.002-3.657.15-2.269-.303-2.684-3.5-3.213-5.193-.859-14.094-.615-17.922.49m184.933 40.16c-1.429 1.722-1.182 7.616.356 8.507 1.154.669 9.461 17.507 9.461 19.178 0 1.524 4.183 6.041 5.08 5.487 1.785-1.104.892.838-1.233 2.682-1.184 1.027-1.972 1.899-1.75 1.938 4.587.812 8.348.761 10.02-.134 2.886-1.544 10.467-1.527 12.34.028 1.163.965 1.543.983 1.543.074 0-.663.563-1.004 1.25-.757.688.246 2.044.039 3.015-.46 1.262-.649 1.927-.485 2.335.578.441 1.149 1.145 1.267 3.107.521 1.778-.676 2.971-.603 3.991.243 1.137.944 1.619.941 2.209-.014.93-1.505 8.093-2.792 8.093-1.454 0 .527 1.35.759 3 .517 2.526-.37 3-.106 3 1.674 0 1.162.436 2.113.969 2.113.532 0 .731-.618.442-1.372-.88-2.292 4.496-2.75 5.899-.503 1.178 1.886 6.69 2.703 6.69.992 0-1.353 4.244-2.16 5.57-1.059.829.688 1.491.161 2.253-1.792 1.622-4.156 4.384-20.4 3.594-21.129-.38-.35-.876-.122-1.102.507-.226.629-1.259.922-2.296.651-1.617-.423-1.725-.846-.759-2.966 1.332-2.924-.096-4.289-4.51-4.314-2.253-.012-2.75.426-2.75 2.426 0 1.343-.45 2.719-1 3.059-.55.34-1-.035-1-.834 0-2.756-5.675-3.796-7.21-1.322-.788 1.271-6.677.968-8.382-.431-1.335-1.095-2.443-.168-1.8 1.507.818 2.131-4.034 3.662-5.476 1.727-1.128-1.514-1.187-1.508-.724.071.793 2.701-1.084 3.046-3.348.616-1.133-1.216-2.06-2.576-2.06-3.023 0-.446-1.077-.811-2.393-.811-1.316 0-2.613-.572-2.881-1.272-.778-2.026-5.677-1.899-8.66.225-2.925 2.083-6.753 1.793-8.569-.649-1.717-2.31-8.259-2.83-10.465-.833-1.845 1.67-1.917 1.649-1.754-.517.094-1.242.97-2.468 1.946-2.723 2.016-.527 2.153-1.1.776-3.231-.828-1.282-.972-1.246-.985.25-.021 2.462-1.717 2.175-4.427-.75-1.275-1.375-3.027-2.5-3.894-2.5s-1.854-.45-2.194-1c-.872-1.41-4.053-1.243-5.317.279m23.857 18.173c-.707.851-1.792 1.56-2.412 1.574-1.144.026-4.628 6.652-4.628 8.802 0 1.916 4.801 1.376 5.431-.612.601-1.891 6.499-5.892 6.669-4.523.055.444.41-.309.79-1.673.484-1.739 1.399-2.485 3.063-2.5 4.859-.041 2.892-2.04-2.288-2.324-3.874-.213-5.692.132-6.625 1.256m-214.451 8.692c.286.462-2.092.646-5.285.409-3.192-.238-8.729-.011-12.304.503-3.575.515-9.2 1.177-12.5 1.47-7.466.664-8.839 2.151-8.055 8.724.515 4.321.379 4.75-1.507 4.75-1.618 0-1.933.439-1.438 2 .389 1.225.18 2-.54 2-.646 0-.915.675-.598 1.5.316.825.139 1.5-.393 1.5-.533 0-.969 1.523-.969 3.385 0 2.511-.648 3.81-2.511 5.031-1.912 1.252-2.37 2.209-1.919 4.005.325 1.299.148 2.635-.395 2.971-.543.335-.757 1.491-.475 2.567.295 1.129-.379 3.089-1.594 4.634-1.158 1.472-2.104 3.404-2.102 4.292.002.936.843.238 2-1.66 1.294-2.121 3.054-3.487 4.997-3.875 3.089-.618 3.953-2.046 1.749-2.893-.687-.264-1.317-1.642-1.4-3.062-.171-2.935 4.215-5.395 9.618-5.395 1.668 0 3.032-.45 3.032-1s.4-1 .889-1 .826.77.75 1.712c-.077.947.707 1.885 1.754 2.101 1.503.308 1.779-.047 1.34-1.725-.903-3.456 2.162-4.25 14.006-3.628 10.145.533 17.227 2.54 8.961 2.54-2.656 0-3.7.432-3.7 1.531 0 1.13.983 1.492 3.75 1.379 5.999-.244 7.104-.753 6.517-2.997-.452-1.73-.172-1.927 1.978-1.388 2.163.543 2.672.174 3.721-2.698 2.5-6.845 2.542-28.877.053-27.338-.485.299-1.145.117-1.467-.405-.323-.522-1.913-.912-3.535-.865-1.621.046-2.714.462-2.428.925M54.2 301.2c-1.446 1.446-1.503 10.423-.18 28.3.529 7.15 1.419 21.325 1.977 31.5 1.476 26.891 1.78 28.906 4.463 29.579 2.911.731 17.656-1.304 21.664-2.989 1.761-.74 4.996-1.105 7.398-.835 3.555.401 4.354.169 4.784-1.387 1.372-4.969 1.34-25.76-.057-37.127-.424-3.452-.781-4.044-1.886-3.127-1.286 1.067-1.81.514-1.432-1.512.092-.494-.481-2.519-1.274-4.5-1.467-3.667-1.657-4.363-1.657-6.063 0-.529-1.912-1.462-4.25-2.073-4.599-1.201-6.929-3.336-6.074-5.563.298-.776-.068-1.41-.819-1.418-1.047-.012-1.014-.237.143-.985.825-.533.99-.976.367-.985-.624-.008-1.369-.915-1.657-2.015-.353-1.351-1.364-2-3.116-2-1.427 0-2.594-.45-2.594-1s.45-1 1-1c3.002 0 .26-3.28-4.602-5.504-3.371-1.542-5.807-3.346-6.117-4.529-.557-2.131-1.796-2.561-2.781-.967-1.295 2.095-2.425.874-1.85-2 .655-3.276.375-3.625-1.45-1.8m372.162 32.3c-.459 1.194-2.646 1.506-10.719 1.531-9.54.03-10.247.175-11.89 2.434-1.683 2.315-1.672 2.426.292 3.049 1.388.441 1.859 1.214 1.475 2.422-.309.976-.132 2.852.395 4.169.761 1.901.971 2.012 1.022.54.086-2.52 5.02 1.982 5.046 4.605.009.962.58 1.743 1.267 1.735 2.073-.026 4.05-1.691 3.35-2.823-.361-.584.257-1.55 1.372-2.147 1.115-.597 2.028-1.996 2.028-3.109 0-1.148.451-1.745 1.041-1.381.572.354.763 1.518.423 2.588-1.149 3.619-1.374 7.887-.416 7.887.523 0 .952-.9.952-2s.498-2 1.107-2 .875.603.593 1.341c-.853 2.222.849 3.937 3.175 3.199 1.169-.371 2.125-1.094 2.125-1.607 0-.513.45-.933 1-.933s1.916-.916 3.036-2.036c1.121-1.121 2.501-1.75 3.067-1.4.59.365.895-.11.714-1.11-.174-.961.317-1.967 1.092-2.237.965-.335 1.215.017.794 1.115-.339.882-.185 1.87.341 2.195.526.325.956.095.956-.512 0-.606.773-.97 1.718-.809 1.2.206 1.917-.609 2.381-2.706.545-2.459.686-2.582.783-.679.149 2.928 2.385 5.25 4.059 4.215.983-.607 1.006-1.267.101-2.958-.859-1.605-.879-3.042-.076-5.474 1.614-4.891-1.197-9.275-3.528-5.503-.387.626-1.922.852-3.559.525-1.597-.32-2.879-.142-2.879.399 0 1.904-2.795.937-4.408-1.525-1.881-2.87-7.262-3.524-8.23-1m-256.684 44.156c-.373.372-.678 1.516-.678 2.542 0 1.026-.787 2.131-1.75 2.456-5.098 1.723-9.201 3.99-9.224 5.096a126.57 126.57 0 0 0-.026 2c0 .413.787.75 1.75.75 1.996 0 5.46 3.351 4.713 4.56-.273.441-.069 1.065.452 1.387.521.322 1.195.185 1.497-.305.798-1.292 9.599.558 11.699 2.458.97.878 2.261 1.288 2.87.912s1.696-.195 2.416.403c.985.817 2.007.44 4.12-1.519 2.223-2.059 3.496-2.493 6.085-2.073 4.339.704 5.212-.688 4.492-7.171-.697-6.273-2.938-7.533-15.578-8.756-3.859-.373-7.241-1.004-7.516-1.402-.785-1.137-4.571-2.089-5.322-1.338M320 398.725c-3.792.674-4.471 1.855-4.637 8.067-.2 7.491-.122 7.208-1.97 7.208-1.055 0-1.398.544-1 1.582.334.87.607 1.947.607 2.394 0 .447 1.012.824 2.25.838 3.613.041 8.123 1.337 9.842 2.828.875.76 3.125 1.404 5 1.43 1.874.027 6.333.129 9.908.227 3.575.098 8.075-.192 10-.646 1.925-.454 7.236-.945 11.803-1.092 4.567-.147 8.798-.762 9.403-1.367.77-.77 1.68-.79 3.031-.067 1.062.568 3.986 1.259 6.498 1.535 2.513.277 5.708.936 7.101 1.466 1.962.746 2.729.614 3.398-.582.897-1.602 8.738-2.24 10.152-.826 1.444 1.443 8.985 1.267 11.322-.264 1.828-1.198 3.399-1.345 7.121-.669 2.627.478 5.653.538 6.724.134a2215.01 2215.01 0 0 1 5.184-1.944c1.781-.665 3.004-1.587 2.718-2.049-.285-.463-1.12-.61-1.856-.328-.782.3-1.566-.365-1.89-1.605-.305-1.165-1.151-2.037-1.881-1.938-3.677.499-4.291-.154-1.967-2.09 1.681-1.4 1.921-1.967.833-1.967-.84 0-1.793.563-2.117 1.25-.324.688-.381.125-.127-1.25l.461-2.5-14.333-.225c-7.884-.124-16.076-.479-18.206-.789-2.129-.31-7.472-.803-11.872-1.095-16.946-1.125-28.193-2.265-33-3.345-2.75-.618-9.05-1.287-14-1.487-4.95-.2-9.675-.57-10.5-.821-.825-.252-2.625-.257-4-.013m59.437 69.84c.451 3.828.311 4.182-1.469 3.716-1.358-.355-1.968-.013-1.968 1.102 0 1.174.937 1.617 3.418 1.617 4.405 0 6.582.862 6.582 2.607 0 .766.436 1.393.969 1.393.532 0 .736-.606.452-1.346-.362-.944.426-1.374 2.634-1.436 3.862-.11 5.329-1.218 1.612-1.218-1.467 0-2.667-.45-2.667-1s.675-1 1.5-1 1.5-.675 1.5-1.5c0-.962-.986-1.511-2.75-1.532-1.512-.017-3.623-.692-4.691-1.5-1.531-1.158-2.129-1.204-2.831-.218-.569.8-.689.32-.332-1.333.407-1.882.149-2.584-.949-2.584-1.184 0-1.4.908-1.01 4.232M431 467.136c0 .54-.412.728-.915.417-.503-.311-1.107 0-1.343.691-.325.949-1.14 1.002-3.336.215-1.598-.572-5.831-.797-9.406-.5l-6.5.541.335 3.34c.274 2.731.018 3.277-1.406 3-2.032-.397-2.852-3.96-1.153-5.011 2.109-1.303 0-1.971-3.907-1.238-2.947.552-3.396.873-1.937 1.385 2.546.893 2.849 3.8.474 4.554-1.048.333-1.906 1.024-1.906 1.537 0 .513-.546.82-1.213.683-.668-.137-1.674.762-2.238 2-.563 1.238-1.618 2.25-2.345 2.25-.727 0-1.02.489-.65 1.087.369.598 1.633.798 2.809.444 1.175-.353 5.584-.595 9.797-.537 4.388.061 7.938-.343 8.309-.944.357-.578 1.86-.989 3.34-.914 2.357.119 2.412.19.441.57-5.142.99-1.626 1.786 7.365 1.666 6.302-.084 9.873-.544 10.361-1.334.545-.88.91-.778 1.353.378.335.871 1.737 1.584 3.117 1.584 4.38 0 6.897-6.479 4.193-10.794-.453-.722-.321-1.884.298-2.63.905-1.09.296-1.244-3.321-.836-2.888.325-5.507-.038-7.523-1.044-1.701-.848-3.093-1.101-3.093-.56" fill="#d3d3d3" fill-rule="evenodd"/></svg>