<svg xmlns="http://www.w3.org/2000/svg" width="500" height="671"><path d="M102.75 2.75L0 3.009v149.912C0 271.94.258 302.928 1.25 303.292c1 .366 1 .723 0 1.783C.26 306.125 0 343.483 0 484.95V663.5l109.25-.049c61.089-.027 110.132-.439 111.25-.934 1.1-.487 2.603-1.724 3.34-2.749 1.41-1.961 4.16-.88 4.16 1.636 0 2.482 8.787 3.913 18.853 3.071 5.306-.444 63.3-.684 128.875-.534l119.228.273-.493-101.357c-.272-55.746-.461-104.205-.421-107.686.04-3.501-.455-6.963-1.107-7.75-.908-1.094-.9-1.758.035-2.885.844-1.017 1.047-3.995.666-9.75-1.718-25.94-1.859-34.001-.635-36.288.951-1.778.984-3.102.137-5.532-.613-1.758-.789-3.707-.391-4.331.623-.979 1.101-7.155 1.347-17.385.18-7.499-.92-32.071-1.538-34.364-.494-1.834-.283-2.777.709-3.158 1.211-.464 1.425-24.323 1.492-165.639l.079-165.097-125.614.254-125.614.254-1.736 8.5c-.955 4.675-2.177 9.932-2.715 11.682-.653 2.123-.628 4.563.073 7.325 1.025 4.038.823 7.001-2.282 33.493-.451 3.85-.573 8.47-.27 10.267.303 1.796-.004 4.606-.682 6.244-1.041 2.512-.972 3.376.44 5.532.921 1.405 1.709 4.445 1.752 6.756.043 2.31.693 6.42 1.445 9.133 1.602 5.779 1.764 14.507.395 21.269-2.083 10.287-1.921 36.008.254 40.404 3.659 7.396 3.538 16.075-.276 19.889-2.311 2.311-2.781 10.475-1.089 18.892 1.482 7.372 1.359 12.689-.443 19.146-2.539 9.102-3.338 17.398-2.326 24.168.518 3.465 1.092 8.14 1.275 10.389.184 2.249.866 5.082 1.516 6.296.757 1.415 1.089 6.233.926 13.411-.504 22.085.059 32.985 1.884 36.458 3.404 6.478-3.637 12.598-9.605 8.348-2.529-1.8-3.474-1.996-5.196-1.074-4.007 2.144-7.077-2.499-3.812-5.764.849-.849.649-1.976-.787-4.45-1.91-3.29-2.053-6.814-.276-6.814 1.309 0 1.158-3.756-.168-4.198-.669-.223-1.178-4.047-1.31-9.834-.139-6.122-.716-10.256-1.633-11.697-1.249-1.966-1.201-2.596.408-5.321 1.395-2.362 1.641-3.959 1.04-6.77-.432-2.024-.667-5.323-.521-7.332.145-2.008-.46-5.052-1.345-6.762-1.099-2.126-1.76-6.824-2.09-14.848-.644-15.688-.621-16.332.636-17.846 1.473-1.775 1.592-11.188.188-14.892-1.9-5.012-3.301-16.767-2.162-18.14.695-.837.522-2.159-.553-4.239-.86-1.662-1.563-3.944-1.563-5.071 0-2.324-.374-2.456-2.996-1.052-1.832.98-5.004-.888-5.004-2.947 0-2.014 2.875-3.188 5.01-2.046 1.834.982 2.216.848 2.684-.941.3-1.147 1.616-2.355 2.925-2.683 2.812-.706 2.895-1.517.787-7.703-1.424-4.179-3.406-6.319-3.406-3.678 0 2.052-2.001.898-3.513-2.025-3.602-6.965-3.858-13.469-.837-21.29 1.789-4.633 2.819-9.278 2.898-13.078.089-4.238.591-6.235 1.788-7.111 2.344-1.714 2.136-5.56-.336-6.206-1.781-.466-1.998-1.357-1.985-8.157.017-8.07.426-9.388 3.235-10.425 2.296-.847 2.239-2.767-.1-3.379-2.931-.767-3.041-16.779-.132-19.161 3.174-2.599 3.765-18.713.893-24.343-1.498-2.936-1.884-5.024-1.429-7.721.497-2.941.215-4.068-1.379-5.511-1.86-1.683-1.891-1.986-.439-4.204 1.201-1.833 1.404-3.69.869-7.97-.579-4.634-.389-5.921 1.122-7.59 1.76-1.945 1.757-2.055-.109-3.419-1.061-.776-3.305-1.3-4.987-1.165-1.683.135-49.296.362-105.809.505m132.788 362.598c-1.601 1.171-1.734 1.71-.725 2.927 1.008 1.214.92 1.613-.469 2.147-1.162.445-2.402-.216-3.881-2.07l-2.173-2.726-2.395 1.937c-2.708 2.19-2.758 2.414-3.43 15.437-.269 5.225-.936 11.666-1.481 14.314-.544 2.647-.737 5.823-.427 7.057s.688 4.693.841 7.686c.154 2.994.405 5.893.559 6.443.693 2.474-.084 5.5-1.412 5.5-1.439 0-1.841 1.452-3.046 11-1.155 9.154-1.41 13.955-1.805 34-.222 11.275.008 21.612.51 22.97 2.832 7.656 3.774 17.571 2.732 28.768-.735 7.896-.736 15.801-.002 26.239.707 10.069.721 15.801.042 17.587-.554 1.457-.953 6.089-.887 10.293.067 4.204-.199 9.564-.591 11.912-.481 2.883-.307 4.756.534 5.77.755.91 1.225 4.352 1.192 8.731-.035 4.601.641 9.31 1.86 12.948 1.054 3.146 1.916 8.073 1.916 10.95 0 7.72 1.814 4.784 2.59-4.19.355-4.113 1.262-8.465 2.014-9.672.874-1.4 1.132-3.389.714-5.5-.577-2.911-.469-3.153.903-2.025 1.945 1.599 2.753 5.514 1.572 7.624-.711 1.271-.389 1.595 1.59 1.595 1.67 0 2.708-.711 3.172-2.173.379-1.195 1.535-3.08 2.567-4.189 2.106-2.26 2.407-4.193.807-5.182-.657-.406-.816-2.165-.412-4.556.515-3.051.314-4.028-.929-4.505-1.189-.456-1.591-2.029-1.602-6.252-.016-6.771-.826-10.223-2.357-10.041-2.522.301-3.71-.162-3.071-1.196.372-.602 1.759-.887 3.083-.634 3.137.599 3.648-.402 4.051-7.936.405-7.575 1.696-11.336 3.892-11.336 1.231 0 1.482-.599 1.021-2.439-.337-1.341-.225-2.678.247-2.97.887-.548.45-9.927-.586-12.591-.321-.825-.493-1.894-.383-2.376.111-.482-.718-1.52-1.841-2.307-2.273-1.592-2.882-8.88-1.03-12.339 1.51-2.822 1.668-26.698.186-28.18-1.58-1.58-1.542-7.729.052-8.34 1.235-.474 1.308-27.569.125-45.958-.44-6.837-.482-9.454-.199-12.5.397-4.278-.467-7.091-3.254-10.598-3.398-4.276-3.464-8.734-.165-11.19 1.476-1.099 1.865-.985 2.652.778 1.059 2.375 2.933 2.159 3.428-.394.211-1.091-.44-1.941-1.75-2.284-1.229-.321-2.087-1.359-2.087-2.524 0-1.992 2.96-7.788 3.978-7.788 1.073 0 .5-10.085-.613-10.786-.624-.393-1.368-2.739-1.653-5.214-1.057-9.177-1.962-11.269-4.174-9.652" fill="#d3d3d3" fill-rule="evenodd"/></svg>