<svg xmlns="http://www.w3.org/2000/svg" width="500" height="666"><path d="M275.025 84.029c-1.912.446-3.845.582-4.296.303-1.463-.903-10.739.821-12.184 2.265-.771.772-1.772 1.417-2.224 1.435-.451.017-1.577.606-2.501 1.309-1.86 1.414-1.801 2.287 3.22 47.728l2.273 20.568-2.624 5.432c-1.444 2.987-4.586 9.031-6.983 13.431-2.397 4.4-6.53 12.05-9.185 17-2.655 4.95-8.426 15.525-12.824 23.5-4.399 7.975-10.242 18.775-12.985 24-2.742 5.225-5.318 9.871-5.724 10.325-.406.454-1.035-7.196-1.396-17-.837-22.667-1.56-30.325-2.866-30.325-.807 0-48.992-17.874-58.135-21.565-2.28-.921-2.926-10.377 4.946 72.482.805 8.48 1.612 15.565 1.792 15.745.297.297 16.081-4.773 19.671-6.318.825-.355 2.149-.776 2.941-.935.793-.158 2.523-.56 3.844-.891 1.748-.439 3.073.067 4.862 1.856 1.352 1.353 6.161 4.582 10.686 7.176 8.462 4.852 10.585 7.432 12.299 14.95.753 3.299 2.761 6.797 5.882 10.245 1.117 1.235 4.039 6.13 6.491 10.878 4.39 8.498 4.464 8.805 4.718 19.505.142 5.98-.116 10.872-.572 10.872-.457 0-1.37 1.185-2.03 2.633-.66 1.448-3.872 6.088-7.138 10.31-6.257 8.088-7.768 12.111-4.733 12.599 1.717.276 2.191-.992 1.799-4.814-.1-.975.185-1.653.634-1.508.45.145 1.93-.52 3.29-1.478 1.359-.958 2.147-1.742 1.75-1.742-.398 0 .177-.9 1.277-2 2.298-2.298 3.653-2.537 4.254-.75.328.975.787.948 2.083-.122 1.444-1.192 1.663-1.134 1.663.441 0 1.693.097 1.685 1.468-.128.808-1.067 1.483-1.534 1.5-1.036.018.498 1.003.048 2.189-1 2.142-1.892 2.153-1.889 1.573.424-.439 1.749-.229 2.193.843 1.781.785-.301 1.427-.186 1.427.255s.675.802 1.5.802 1.5-.375 1.5-.834c0-.458-.702-.833-1.559-.833s-1.281-.45-.941-1c.34-.55 1.518-1 2.618-1 1.1 0 1.722.45 1.382 1-.34.55-.141 1 .441 1s1.075-.562 1.094-1.25c.02-.687.601-.233 1.291 1.01.981 1.767 1.518 1.996 2.464 1.05.947-.947 1.21-.941 1.21.024 0 .679 1.309-.104 2.909-1.741 2.136-2.185 3.664-2.893 5.75-2.664 1.563.172 3.172-.192 3.576-.808.471-.719.74-.534.75.516.01 1.048 1.092 1.794 3.015 2.076 1.65.242 3 .069 3-.386s-.955-.827-2.122-.827c-1.768 0-1.916-.25-.886-1.49.813-.981 2.104-1.273 3.772-.854 1.77.444 2.321.29 1.826-.51-.393-.637-.127-1.153.601-1.161.951-.011.899-.281-.191-.985-1.248-.806-1.164-.984.5-1.055l2-.086-2-.859c-1.1-.473-1.411-.891-.691-.93.72-.038 1.065-.465.766-.948-.298-.483.83-1.153 2.508-1.489 1.677-.335 2.819-.983 2.537-1.439-.282-.456.306-1.42 1.306-2.141 1.08-.778 1.619-2.077 1.326-3.197-.387-1.479-.109-1.738 1.292-1.201 1.194.459 1.553.312 1.086-.445-.598-.968 5.544-9.109 7.564-10.025.381-.173.441-.972.133-1.775-.431-1.123-.881-1.195-1.944-.313-.761.631-1.417.98-1.46.775-.65-3.164-.597-3.789.272-3.252.641.397.769-.158.345-1.495-.416-1.308-.242-2.125.452-2.125.619 0 .872-.412.561-.915-.311-.503 0-1.124.691-1.381.691-.256-1.556-.368-4.994-.247-5.778.203-7.644-.477-5.294-1.93.526-.325.709-1.364.406-2.309-.468-1.459-.388-1.492.528-.218.898 1.247 1.082 1.121 1.095-.75.008-1.238.492-2.25 1.074-2.25.582 0 .825-.378.539-.841-.286-.463.775-1.798 2.357-2.968 2.501-1.848 3.037-3.503 2.006-6.191-.105-.275-.096-1.379.021-2.453.183-1.681-.01-1.769-1.385-.628-.878.729-1.597 1.062-1.597.739 0-.323-2.025.281-4.5 1.342-4.527 1.94-4.862 1.858-4.572-1.131.091-.948-.817-1.875-2.17-2.215-2.593-.651-3.508-4.429-1.279-5.284.99-.38 1.133-1.257.525-3.197a76.948 76.948 0 0 1-1.44-5.423c-.339-1.549-1.275-2.75-2.142-2.75-.982 0-1.257-.453-.759-1.25.429-.687.883-1.7 1.009-2.25.125-.55.528-2.012.894-3.25.412-1.388.24-2.25-.449-2.25-.615 0-1.117-.675-1.117-1.5s-.52-1.5-1.155-1.5c-1.558 0 1.926-3.752 5.378-5.791 1.527-.902 2.777-2.25 2.777-2.996s2.069-3.496 4.598-6.111l4.597-4.754 6.551 3.238c6.089 3.01 9.254 3.457 9.254 1.307 0-.491.675-.893 1.5-.893 2.187 0 1.835 1.759-.5 2.5-2.726.865-2.521 1.739 1.021 4.358 3.311 2.447 5.057 2.143 4.494-.782-.499-2.589 2.86-3.331 4.538-1.002 1.542 2.139 3.139 1.589 2.233-.77-.424-1.107-.241-1.394.569-.894.657.406 1.13.368 1.051-.086-.625-3.599 2.506-4.752 3.594-1.324.349 1.1 1.04 2 1.536 2s.635-.693.31-1.541c-.367-.957-.097-1.431.712-1.25.716.16 2.384-1.734 3.705-4.209 1.322-2.475 2.978-5.175 3.682-6 .703-.825 3.019-4.875 5.147-9s4.687-8.396 5.688-9.492c3.053-3.343 6.787-10.73 7.832-15.493.545-2.483 2.316-6.315 3.935-8.515 1.62-2.2 3.667-5.556 4.549-7.457 1.768-3.81 2.878-17.454 1.343-16.505-1.045.646-1.307-1.837-.3-2.844.56-.559.834-2.66 1.46-11.194.123-1.667-.476-8.026-1.248-13.25-.101-.687-.548-1.25-.993-1.25-.444 0-.538-1.35-.208-3 .374-1.87.188-3-.494-3-.601 0-.832-.68-.513-1.511.432-1.126.124-1.337-1.205-.827-1.292.496-1.637.292-1.25-.738.294-.783.179-2.324-.256-3.424-.755-1.907-.795-1.897-.862.219-.047 1.503-.533 2.04-1.507 1.667-.831-.319-1.179-1.222-.826-2.142.45-1.173.178-1.426-1.031-.961-.903.346-1.908.199-2.233-.327-.325-.526.126-.956 1.003-.956 1.197 0 1.369-.437.689-1.75-.498-.963-.779-2.537-.624-3.5.155-.963-.148-1.75-.673-1.75-.526 0-.823-.654-.662-1.453.375-1.851-8.461-9.753-9.331-8.345-.396.641-1.795.177-3.684-1.219-1.696-1.254-3.744-1.985-4.619-1.649-.952.365-1.572.07-1.572-.749 0-.743-.9-1.587-2-1.875-1.1-.287-2-1.187-2-2 0-1.494-3.58-3.042-4.288-1.854-.211.354-.283.175-.159-.398.402-1.865-7.259-5.667-7.925-3.932-.311.811-1.056 1.474-1.656 1.474-.599 0-.849-.39-.555-.866 1.072-1.734-9.287-7.995-14.417-8.714-7.126-.998-11.845-1.122-14.975-.391m21.742 105.223c2.291 2.439 2.507 8.799.468 13.748-1.438 3.49-7.283 10.088-8.351 9.428-.486-.3-.884-.069-.884.513 0 .582-.466 1.059-1.035 1.059-.691 0-.712-.605-.062-1.819 1.036-1.936.939-4.672-.207-5.819-.383-.382-.696.029-.696.915 0 .885-.949 2.274-2.108 3.086-2.179 1.526-1.824 3.637.611 3.637.864 0 .306 1.18-1.485 3.142-2.543 2.783-3.326 3.08-6.877 2.604-4.173-.56-5.141.24-5.141 4.249 0 1.547.427 1.693 2.75.942 1.512-.489 4.55-1.162 6.75-1.495 3.422-.518 5.262-1.931 12.729-9.774 9.361-9.831 10.554-12.373 9.347-19.916-.823-5.151-2.098-6.752-5.373-6.752h-2.552l2.116 2.252m-29.017 38.047c-1.584.627-2.75 1.853-2.75 2.894 0 .994-.48 1.807-1.067 1.807-.588 0-.801.84-.475 1.868.412 1.299-.177 2.373-1.932 3.523-3.198 2.096-3.424 6.189-.394 7.151 1.516.481 1.771.9.88 1.45-.941.582-.818 1.017.496 1.753 1.18.66 1.382 1.205.62 1.676-.62.383-1.128 1.19-1.128 1.793s.916.267 2.035-.746c1.12-1.013 1.793-2.474 1.496-3.247-.326-.85.259-1.615 1.479-1.934 1.994-.521 1.993-.55-.15-2.408-2.028-1.759-2.061-1.999-.514-3.709.91-1.005 1.654-2.961 1.654-4.346 0-1.385.891-3.545 1.979-4.8 1.497-1.725 2.028-4.651.712-3.918-.105.059-1.429.596-2.941 1.193m74.894 433.391c-.104.104-43.83.445-97.167.757-155.815.913-235.883 1.626-236.363 2.106-.429.428 32.327.801 55.386.629 111.912-.831 142.882-.906 144.94-.349 1.356.367 9.574.442 18.263.167 8.688-.275 18.873-.275 22.631 0 3.759.275 6.988.346 7.176.158.619-.621 147.149-2.509 167.812-2.163 1.707.029 2.569-.363 2.18-.991-.525-.85-84.01-1.159-84.858-.314" fill="#d3d3d3" fill-rule="evenodd"/></svg>