<svg xmlns="http://www.w3.org/2000/svg" width="500" height="497"><path d="M221 1.023c0 .537.938.977 2.083.977 3.638 0 1.468 2.472-2.661 3.031-3.403.461-3.624.635-1.672 1.317 1.238.433 2.25 1.206 2.25 1.719 0 .513 1.321.933 2.935.933s4.089.439 5.5.975c2.035.774 2.565.671 2.565-.5 0-.811.45-1.475 1-1.475s1 .505 1 1.122c0 .778.459.742 1.494-.117.822-.682 2.622-1.025 4-.761 1.378.263 2.506.153 2.506-.245s1.177-.595 2.615-.437c3.355.368 5.554-.479 4.725-1.821-.406-.657-.16-.748.66-.241.836.517 1.067.417.638-.276-1.694-2.742 1.816-2.075 4.418.838 2.23 2.498 2.655 3.581 1.808 4.602-.86 1.036-.675 1.336.825 1.336 1.879 0 6.307-3.358 6.315-4.789.01-1.64 9.753-1.287 10.391.377.457 1.189.206 1.473-.922 1.04-1.74-.668-3.043 1.64-1.937 3.431.521.842.946.788 1.574-.202.685-1.081.862-1.091.875-.048.008.72.523.995 1.145.611.685-.424.948-.152.667.691-.255.764-1.325 1.545-2.38 1.736-1.054.191-2.367.804-2.917 1.362-.675.686-.253.79 1.298.321 1.264-.382 2.854-.234 3.534.33.714.593 1.815.667 2.611.175.757-.467 1.979-.618 2.716-.335.738.282 1.341-.011 1.341-.652s.52-.845 1.155-.453c.715.443.883.275.44-.44-.392-.635-.236-1.155.346-1.155s1.059.372 1.059.827c0 .455 1.35.628 3 .386s3-.786 3-1.21c0-1.35 4.345-1.962 5.735-.808 1.008.837 2.549.545 6.227-1.177 2.688-1.259 5.556-2.033 6.372-1.72.816.313 3.887-.105 6.825-.929 2.937-.824 6.016-1.614 6.841-1.755.825-.14 2.175-.493 3-.783 5.866-2.064 8-2.547 8-1.814 0 .464 1.46.425 3.243-.087 1.784-.511 4.934-.93 7-.93C346.31 4 348 3.55 348 3s.337-.929.75-.841c.413.087 1.425-.102 2.25-.421a79.968 79.968 0 0 1 3-1.077c.825-.273-28.762-.523-65.75-.556C245.111.068 221 .397 221 1.023m257.001.227c0 .881-1.486 1.147-5.029.902-5.184-.36-8.471 1.106-7.596 3.386.257.67-.037 1.723-.654 2.34-.829.829-.809 1.122.078 1.122.677 0 1.2 1.359 1.2 3.117 0 2.688.293 3.04 2.131 2.559 1.207-.316 2.755.067 3.571.883 1.981 1.981 4.659 1.805 6.689-.439 1.619-1.789 1.578-1.911-.845-2.519-2.961-.743-3.429-2.601-.654-2.601 1.177 0 2.125-.932 2.511-2.471.342-1.359 1.628-3.002 2.859-3.65 1.231-.648 2.569-1.674 2.973-2.279.455-.682.74-.448.75.619.01 1.193.526 1.522 1.689 1.076 1.278-.491 1.518-.238 1.016 1.069-.417 1.087-.084 1.931.911 2.313 1.264.485 1.309.765.233 1.447-1.071.679-1.039.855.166.892 1.16.037 1.068.374-.403 1.488-1.506 1.14-1.611 1.554-.5 1.981 1.647.634 2.427 8.179 1.02 9.874C489.092 23.594 489 23.977 489 27c0 1.296-.667 2-1.893 2-1.041 0-2.149.667-2.461 1.481-.405 1.054.038 1.415 1.532 1.25 1.156-.127 2.322.394 2.591 1.158.3.848.05 1.117-.639.691-.622-.384-1.13-.221-1.13.361s.563 1.088 1.25 1.122c.688.035.238.471-1 .968-1.238.498-2.284 1.707-2.327 2.687-.156 3.637-.847 5.687-2.811 8.344-1.432 1.937-2.13 4.74-2.41 9.68-.217 3.824-.716 7.471-1.108 8.105-.391.634-.157 1.153.522 1.153.73 0 .447.756-.691 1.851-1.724 1.658-1.999 1.684-2.633.25-.39-.881-.561.455-.382 2.969.18 2.513.856 5.558 1.502 6.765.96 1.794.894 2.302-.363 2.785-2.076.796-.945 2.38 1.701 2.38 2.088 0 2.092.03.191 1.439-1.695 1.257-1.773 1.714-.615 3.609 1.052 1.719 1.062 2.081.048 1.743-2.374-.791-4.801 2.271-3.828 4.831.663 1.743.483 2.542-.726 3.219-1.455.814-1.428 1.148.286 3.498 1.829 2.508 5.258 3.868 3.799 1.506-.443-.715-.275-.883.44-.44.758.468 1.155-.166 1.155-1.846 0-1.407.445-2.559.988-2.559.544 0 .881.963.75 2.14s.339 2.344 1.043 2.594c.705.249 1.172.074 1.038-.39-.134-.464.318-1.857 1.004-3.094.686-1.237 1.007-2.306.712-2.375-.294-.069-.985-.237-1.535-.375-.55-.138-1.243-.306-1.539-.375-.297-.069.04-.755.75-1.525 1.256-1.363 4.261-.25 3.408 1.263-.197.35.972 1.717 2.599 3.036 2.686 2.178 2.936 2.224 2.719.5-.132-1.044.25-3.024.848-4.399.599-1.375 1.117-1.911 1.152-1.191.034.72.493 1.043 1.018.719.526-.325.834-2.135.685-4.023-.16-2.034.236-3.627.972-3.91 2.12-.813 2.295 7.375 2.994 139.905.371 70.4.784 133.288.916 139.75l.24 11.75-6.631-.008c-5.935-.007-24.159-2.016-32.961-3.633-1.831-.336-3.55-1.342-3.819-2.235-.715-2.376-6.104-15.304-10.613-25.461l-3.923-8.837 2.147-2.285c2.029-2.16 2.091-2.746 1.144-10.663-1.007-8.424-2.086-31.272-2.099-44.476l-.007-7.099-4.177-1.641c-4.619-1.814-6.62-1.438-2.452.461 2.099.957 2.629 1.893 2.629 4.648 0 3.448-.001 3.449-1.756 1.281-2.394-2.955-20.7-7.279-36.018-8.507-1.499-.12-3.993-.742-5.541-1.382-1.548-.64-3.659-1.163-4.691-1.163s-2.094-.352-2.359-.782c-.266-.431 4.095-.699 9.691-.597 5.595.102 8.712-.025 6.924-.281-1.788-.257-3.25-.83-3.25-1.273 0-.823-6.86-2.123-12.794-2.425-1.812-.092-3.652-.745-4.088-1.452-1.29-2.086-2.682.53-4.024 7.557-.657 3.436-1.82 7.746-2.586 9.579-.766 1.833-2.78 8.83-4.476 15.549-3.702 14.661-5.776 20.125-7.641 20.125-.765 0-1.391-.567-1.391-1.259 0-.693-.895-1.819-1.988-2.501-1.093-.683-1.888-2.029-1.767-2.991.637-5.029-1.404-12.998-3.55-13.864-2.99-1.206-38.698-.178-38.725 1.115-.011.55 2.431 1.228 5.427 1.506 4.993.463 9.083 1.994 5.329 1.994-2.631 0-3.145 1.935-3.699 13.927l-.527 11.427-3.346.253c-4.351.327-5.406 1.393-1.38 1.393 3.303 0 5.079 1.438 2.982 2.415-1.003.467-1.004.703-.006 1.168 1.353.632 1.796 17.436.615 23.342-.706 3.532-2.208 3.582-10.865.359-6.614-2.462-37.087-8.031-38.146-6.971-.246.246 1.142.745 3.085 1.11 1.943.364 3.426 1.189 3.297 1.833-.13.644.776 1.631 2.014 2.195 1.238.563 2.25 1.56 2.25 2.217 0 .656 1.012 1.337 2.25 1.512 1.446.206 2.364 1.124 2.57 2.57.175 1.238.727 2.25 1.226 2.25 1.826 0 4.329 5.025 3.11 6.244-1.404 1.404 2.273 5.756 4.863 5.756.919 0 2.455.866 3.413 1.925 1.675 1.85 1.643 1.938-.807 2.25l-2.549.325 3.962 7.723c2.179 4.248 3.962 8.173 3.962 8.723 0 1.827 5.34 12.511 7.688 15.381 1.272 1.554 2.318 4.029 2.326 5.5.018 3.549 1.049 7.252 1.877 6.741.364-.226 1.447.956 2.405 2.625 1.346 2.346 1.42 2.912.326 2.492-1.411-.541-2.96 3.644-1.783 4.82 2.019 2.019 1.605 8.495-.689 10.79l-2.101 2.1-2.495-2.344c-2.598-2.441-5.554-1.638-5.554 1.509 0 .724-.815 1.254-1.81 1.179-2.107-.158-11.196 6.086-11.178 7.681.006.594.676 3.555 1.488 6.58 1.565 5.831 1.944 9.994.595 6.547-.653-1.67-.857-1.488-1.404 1.25-.629 3.144-2.691 4.537-2.691 1.818 0-.762-1.125-2.122-2.5-3.023-2.334-1.529-3.735-4.473-1.46-3.067.685.423.798-.32.333-2.173-.851-3.393-.833-4.316.128-6.635.663-1.6.471-1.662-1.862-.598-1.43.651-2.883 2.076-3.229 3.165-.786 2.477-2.417.351-1.878-2.449.194-1.009-.051-1.835-.544-1.835-.493 0 .207-1.105 1.557-2.455 1.35-1.35 2.455-2.872 2.455-3.383 0-2.298 3.821-1.879 4.27.469.268 1.405-.003 2.34-.656 2.263-2.689-.316-3.614.241-3.614 2.177 0 1.909.127 1.945 1.619.453s1.766-1.485 3.5.084c1.804 1.632 1.881 1.572 1.881-1.453 0-2.02.498-3.155 1.383-3.155.761 0 1.59-1.079 1.842-2.398.433-2.264.203-2.39-4.111-2.25-3.412.11-4.602-.232-4.698-1.352-.404-4.718-5.022-9.98-7.444-8.483-.535.331-.986.012-1.002-.708-.018-.751-.496-.508-1.123.571-.663 1.141-.841 4.011-.454 7.303.617 5.257.58 5.368-1.204 3.62-2.412-2.361-3.911-6.543-4.749-13.245-.617-4.933-2.025-7.762-4.153-8.344-.431-.118-.634-2.526-.451-5.352.356-5.467-.457-6.698-4.571-6.927-2.541-.142-4.674 1.908-5.793 5.565-.996 3.253-.877 3.5 1.683 3.5 1.366 0 2.258.708 2.438 1.935.323 2.196-2.357 4.593-4.301 3.847-.884-.339-1.335.565-1.428 2.861-.095 2.346-.267 2.679-.57 1.107-.493-2.563-.701-2.638-3.36-1.215-1.064.57-1.934 1.87-1.934 2.889 0 1.948-3.508 6.937-4.272 6.076-.244-.275.239-2.075 1.072-4 2.119-4.891 2.125-6.566.029-7.875-2.187-1.366-6.15 1.874-5.229 4.274.305.795-.014 2.492-.708 3.773-.694 1.28-1.361 3.996-1.483 6.034-.215 3.598-.136 3.689 2.703 3.122 2.446-.49 2.819-.311 2.281 1.091-1.01 2.631 2.62 4.881 4.395 2.726 1.187-1.441 1.29-1.252.826 1.518-.349 2.088-.034 3.574.928 4.372 2.304 1.912 1.9 5.24-.542 4.465-2.367-.751-2.563.374-.532 3.059 1.662 2.197 1.997 3.846.606 2.987-.51-.315-1.24 1.935-1.623 5-.565 4.525-.995 5.459-2.283 4.965-.976-.375-2.219.231-3.234 1.577l-1.649 2.185-.504-2.636c-.277-1.451-.09-2.637.417-2.637.506 0 .635-.461.287-1.024-1.277-2.067.669-7.084 3.108-8.011 3.005-1.143 2.997-1.658-.125-7.243-4.081-7.303-4.863-7.568-9.378-3.186-2.147 2.083-3.67 4.395-3.385 5.137.343.894 0 1.151-1.017.761-.945-.363-1.962.209-2.646 1.488-.612 1.143-1.687 2.078-2.39 2.078-1.719 0-6.262 4.954-7.107 7.75-.374 1.237-1.099 2.25-1.612 2.25-.513 0-.933.928-.933 2.063 0 1.366.591 2.003 1.75 1.885 4.081-.415 4.447-.043 3.976 4.038-.446 3.865-.381 3.967 2.157 3.38 1.439-.333 3.069-1.114 3.621-1.736 1.826-2.056 3.308-1.609 4.323 1.305 1.293 3.708 4.314 4.64 8.414 2.595 2.884-1.439 3.346-1.448 4.342-.086.613.839 1.408 1.232 1.766.874.358-.358.651-.126.651.515 0 .642-.873 1.167-1.941 1.167-2.551 0-3.39 1.481-1.655 2.92 1.632 1.355 8.596 2.082 8.596.898 0-.45.534-.705 1.187-.568.655.138 1.216-.872 1.25-2.25.035-1.375.561-2.409 1.17-2.298.608.111 1.697-.901 2.419-2.25 1.54-2.878 3.479-3.159 4.854-.702.539.962 1.348 1.62 1.8 1.46.451-.159.957.516 1.125 1.5.167.985 1.842 2.915 3.722 4.29s3.43 3.336 3.445 4.357c.019 1.22.534 1.663 1.502 1.292.812-.312 1.92.2 2.469 1.143.869 1.49 1 1.413 1.027-.601.016-1.27-.381-2.055-.882-1.745-.502.31-.791-.545-.642-1.9.17-1.551-.604-3.285-2.088-4.679-1.709-1.606-2.38-1.824-2.44-.791-.044.783-.68.074-1.412-1.576-3.191-7.19-12.811-12.269-13.822-7.298-.269 1.323-.479.601-.495-1.702-.016-2.2-.364-5.8-.775-8-.68-3.644-.599-3.879.907-2.638.909.749 2.389 1.08 3.288.735 1.813-.696 6.391 3.546 6.391 5.923 0 .922.611 1.198 1.75.789.962-.345 1.419-.262 1.013.185-.405.447.513 1.756 2.039 2.909 1.526 1.153 2.623 2.828 2.437 3.721-.185.893.424 1.917 1.355 2.274 2.354.903 2.792.131.963-1.699-1.168-1.167-1.239-1.678-.298-2.119.985-.46.983-.7-.009-1.163-1.754-.819-1.557-3.085.332-3.81 2.311-.887 2.41-.821 2.497 1.643.043 1.238.307 1.685.585.994.279-.691.94-.989 1.47-.661.598.37.541 1.104-.152 1.939-.85 1.023-.622 1.838.951 3.411 5.591 5.591 7.069-1.631 2.237-10.933-.428-.825-.901-3.412-1.051-5.75-.359-5.613 2.35-6.022 3.31-.5.793 4.563 3.46 14.214 4.475 16.19 1.244 2.426 2.999 2.349 2.86-.124-.405-7.196 1.318-10.61 2.659-5.268l.639 2.548 2.604-2.048c1.432-1.126 2.993-2.048 3.469-2.048 1.151 0 1.109 3.349-.057 4.55-.507.522-1.216 2.75-1.575 4.95-.471 2.886-.366 3.586.377 2.513.882-1.272 1.334-1.161 3.135.773 1.157 1.242 2.476 2.028 2.931 1.747 1.029-.636 2.035.588 5.911 7.197l3.068 5.231-16.906-.312c-11.345-.208-17.386-.709-18.365-1.522-1.149-.953-1.551-.936-1.89.081-.343 1.031-11.731 1.348-56.347 1.569-30.754.152-56.367.454-56.917.671-.55.217 52.662.43 118.25.473L404 497v-4.5c0-4.645.438-5.156 3-3.5 1.282.828 1.246.972-.25.985-1.33.011-1.75.854-1.75 3.515v3.5h5.286c4.807 0 5.288-.204 5.311-2.25.014-1.238-.452-2.581-1.036-2.985-.664-.46-.5-.746.439-.765 1.313-.027 1.316-.147.029-.961-.809-.512-1.125-1.276-.702-1.699 1.313-1.313 4.157 1.228 4.489 4.011.174 1.457-.163 2.649-.75 2.649-.586 0-1.066.45-1.066 1 0 1.337 27.668 1.346 28.494.009.741-1.198 8.553-1.081 10.132.152.62.483 10.97.757 23 .609 21.247-.262 21.864-.327 21.534-2.27-1.14-6.695-1.229-9.929-.234-8.5.832 1.196 1.046.921 1.059-1.357.011-2.071-.379-2.706-1.416-2.308-1.211.465-1.422-2.254-1.37-17.643.033-10.005.26-17.404.504-16.442.244.962.854 1.75 1.355 1.75 1.211 0-.067-12.306-1.366-13.155-1.086-.71-.207-27.704.936-28.755.353-.324.393 4.694.09 11.152-.343 7.278-.177 11.974.436 12.353.652.403.812-62.669.469-184.742-.286-101.944-.543-199.19-.571-216.103L500 0h-11c-8.134 0-11 .326-10.999 1.25m-33.785 3.93c-1.353.536-1.188.719.784.868 1.375.104 2.837.136 3.25.07.413-.065.75.352.75.927 0 .653-1.313.799-3.5.389-1.925-.361-3.5-.269-3.5.205 0 .473-1.462.959-3.25 1.079s-6.339.513-10.114.874c-5.263.503-7.094.335-7.845-.718-.746-1.046-.839-.94-.392.441.488 1.507.207 1.695-1.651 1.105-3.017-.958-4.99-3.645-3.413-4.648.761-.484.558-.747-.585-.757-.962-.008-1.75.462-1.75 1.044 0 .582-.47.769-1.044.414-1.834-1.134-4.033 1.514-2.946 3.546 1.137 2.124 1.01 2.152-20.51 4.504-7.7.841-16.25 1.948-19 2.46s-7.7 1.209-11 1.548c-14.034 1.442-35.845 4.638-47 6.886-20.232 4.079-42.893 8.523-45 8.826-2.39.344-2.248-1.793-2.986 44.757-.834 52.654-.769 95.216.147 95.886 1.039.761 1.126 25.117.089 25.115-.413-.001-.75 1.21-.75 2.69 0 2.569-.064 2.603-1.419.75-.781-1.067-1.794-1.982-2.25-2.031-2.795-.305-9.209-4.151-13.296-7.974-5.363-5.017-7.28-5.407-20.035-4.082-5.354.557-9.503.365-14.5-.669-3.85-.798-7.9-1.441-9-1.431-4.584.043-15.064 2.787-17.488 4.579-3.76 2.78-12.675 7.17-13.297 6.548-.291-.29-1.899.18-3.572 1.045-4.212 2.178-4.143 2.247-4.141-4.176.005-12.052-3.211-57.765-4.085-58.083-.505-.184-.917-1.223-.917-2.309 0-1.087.446-1.701.99-1.364.648.4.764-4.51.336-14.191-.36-8.142-.693-15.816-.74-17.053-.076-2-1.379-2.694-4.598-2.448-.282.022-4.782.314-10 .651-5.218.336-10.613.81-11.988 1.053-1.375.244-7 .675-12.5.96-5.5.284-15.4.973-22 1.531-16.151 1.367-25.505 1.654-25.502.784.003-1.185-16.272.343-19.369 1.819-1.58.752-3.337 1.081-3.905.729-.622-.384-.728-.145-.266.603.561.907-.137 1.18-2.596 1.016-1.849-.124-4.037.022-4.862.325-3.23 1.183-6 1.499-6 .685 0-.469-1.238-.459-2.75.024-1.513.482-5.357 1.129-8.544 1.436-3.186.307-6.644 1.014-7.684 1.57-2.316 1.24-6.71 1.325-7.44.145-.296-.479-2.34-.386-4.559.206C1.117 114.382 1 114.538 1 118.705v4.291l4.25-.441c2.337-.242 4.25-.499 4.25-.572 0-.072 1.073-.33 2.384-.572 2.035-.375 2.2-.217 1.128 1.075-1.035 1.246-.97 1.514.366 1.514.892 0 1.622-.482 1.622-1.071 0-.59.71-.362 1.578.506 1.166 1.167 1.379 2.424.814 4.822-.42 1.783-.817 4.607-.883 6.273-.153 3.891-1.259 5.637-3.348 5.288-.913-.152-3.011.263-4.661.924-1.65.66-3.9 1.101-5 .979-1.843-.204-2.02.447-2.26 8.279-.175 5.681.056 8.012.695 7.029 1.72-2.647 2.252-.292.639 2.828-2.219 4.29-2.369 43.385-.164 42.539 1.585-.608 1.303 11.745-.477 20.903-.513 2.64-.933 7.662-.933 11.162 0 6.413.572 7.187 3.817 5.161 2.794-1.745 2.397.562-.635 3.691L1 246.595l.015 25.953c.01 16.399.358 25.41.946 24.481.512-.809 1.225-1.177 1.585-.817.36.36.283 1.247-.171 1.971-.453.725-1.061 2.442-1.35 3.817-.881 4.193-.513 136.202.392 140.75.596 2.995.512 4.25-.285 4.25-1.724 0-1.35 3.12.539 4.502 2.983 2.18 2.759 14.834-.327 18.501-1.89 2.246-2.386 3.82-2.116 6.715.297 3.188.495 3.468 1.26 1.782.498-1.1 4.08-5.15 7.959-9l7.053-7 .313 3.25C17.09 468.616 19 470.582 19 468c0-2.692 1.987-.534 2.532 2.75.342 2.063 1.021 5.008 1.509 6.545.948 2.988-.028 3.901-4.435 4.147-1.158.064-2.641.451-3.295.859-.654.408-2.996.453-5.203.1-6.325-1.011-9.298.116-8.921 3.384.273 2.368.854 2.787 4.544 3.28 6.474.864 7.121 3.15 1.258 4.438C5.345 493.864 4 494.54 4 495.006c0 .466-.788 1.053-1.75 1.305-.962.251 7.348.509 18.469.573 17.592.101 20.143-.079 19.643-1.384-.374-.974.025-1.5 1.138-1.5s1.512.526 1.138 1.5c-.477 1.244.606 1.5 6.362 1.5 5.589 0 6.831-.277 6.391-1.423-.601-1.566 2.401-3.586 5.293-3.562 1.439.012 1.526.199.421.899-1.12.709-1.021.972.5 1.332 1.677.398 1.607.575-.605 1.538-2.351 1.025-2.262 1.092 1.5 1.137 2.2.027 3.461-.294 2.803-.713-2.982-1.896.802-3.396 10.746-4.259 11.747-1.021 11.706-1.032 9.416 2.464-3.231 4.93 2.042 3.159 7.566-2.542 7.794-8.044 7.576-8.196-10.517-7.355-14.573.677-15.526.609-16.155-1.148-1.411-3.939-2.472-4.45-4.371-2.105-.99 1.223-2.405 2.27-3.144 2.328-.739.057-2.132.173-3.094.257-1.247.108-1.786 1.086-1.876 3.402-.077 1.996-.58.54-1.302-3.776-1.371-8.187-2-9.474-4.631-9.474-1.091 0-1.941-.682-1.941-1.559 0-.857-.45-1.281-1-.941-.55.34-1.006 1.829-1.014 3.309-.028 5.504-.89 6.791-4.55 6.791-3.693 0-4.417-.952-1.827-2.401 1.468-.822 1.462-.958-.063-1.543-.92-.353-1.374-1.125-1.009-1.716.401-.649-.069-.948-1.187-.757-1.281.219-1.861-.299-1.887-1.684-.021-1.101-.385-2.563-.809-3.25-.439-.71-.296-1.249.331-1.249.606 0 1.012-.563.901-1.25-.111-.687.146-2.045.57-3.017.424-.971.565-2.845.313-4.163-.625-3.266 2.396-3.745 13.231-2.097 28.076 4.269 34.909 4.69 42.287 2.601 2.632-.745 4.62-1.854 4.418-2.464-.447-1.349-11.766-2.842-16.955-2.237-4.717.549-5.107 1.233 8.007-14.026C93.099 433.806 97 428.258 97 426.36c0-2.57-1.909-1.353-5.059 3.226-1.735 2.522-6.062 7.809-9.615 11.75-3.553 3.94-7.176 8.669-8.052 10.509-1.591 3.342-1.598 3.345-7.183 2.706-10.524-1.203-35.59-4.775-37.091-5.285-1.72-.584-4.489-.926-15-1.847-8.81-.773-8.246-.437-8.69-5.172-.193-2.061-.798-4.872-1.344-6.247s-1.155-5.425-1.353-9l-.361-6.5 13.124.349c7.218.192 13.665.791 14.326 1.332.661.541 2.085.704 3.165.361 3.104-.985 7.133.431 7.133 2.507 0 2.927 1.595 3.117 3.611.432 1.976-2.631 4.65-3.093 8.788-1.519 1.662.632 2.744.615 3.155-.049.405-.655 1.147-.576 2.111.224 1.192.99 1.671.95 2.411-.201.771-1.198 1.069-1.211 1.799-.079.481.746 1.133.938 1.449.427.763-1.234 17.283.9 16.852 2.177-.428 1.269 2.536 2.381 6.574 2.469 2.792.06 3.25-.272 3.25-2.352 0-1.882.781-2.681 3.5-3.578 5.009-1.653 4.323-2.471-2.258-2.697-5.471-.187-35.199-2.966-41.929-3.919-3.506-.496-4.531-3.289-3.163-8.621.387-1.505.334-2.964-.117-3.243-.451-.278-1.08.529-1.397 1.795-.318 1.266-1.244 3.895-2.057 5.842l-1.48 3.541-4.799-.895c-2.64-.493-5.979-1.051-7.42-1.241-4.806-.633-6.88-1.68-6.88-3.474 0-2.164 3.492-5.52 4.863-4.673.544.336 2.259-1.185 3.813-3.381 1.553-2.195 3.278-4.001 3.833-4.013.556-.011 1.572-.921 2.259-2.021.687-1.1 1.92-2 2.74-2 .821 0 1.492-.567 1.492-1.259 0-1.292 2.149-2.92 7.596-5.756 3.24-1.687 8.64-1.172 46.816 4.468 5.452.806 10.374 1.179 10.939.83 1.227-.758-14.36-5.006-22.851-6.228-7.846-1.13-27.769-5.962-28.819-6.991-.451-.442-2.759-.584-5.13-.317-2.785.314-7.097-.311-12.181-1.765-14.087-4.029-15.863-4.738-16.211-6.469-.326-1.624 2.89-5.513 4.559-5.513.442 0 2.016-1.125 3.499-2.5 1.482-1.375 2.96-2.5 3.283-2.5.323 0 1.801-1.125 3.283-2.5 3.281-3.042 2.442-3.166-2.92-.43-2.231 1.138-4.213 1.914-4.403 1.724-.576-.576 3.669-6.794 4.638-6.794.496 0 .902-.653.902-1.45 0-3.585 5.868-12.05 8.332-12.019l2.443.03-.508-14.53c-.362-10.333-.198-14.241.566-13.528.591.552 1.207 4.566 1.37 8.92.314 8.368 2.297 11.856 2.297 4.041 0-5.251 1.773-7.067 4.565-4.676 1.369 1.172 1.578 2.011.842 3.385-.745 1.393-.62 1.827.526 1.827.89 0 1.281.581.958 1.423-.317.826.366 1.912 1.626 2.586 1.986 1.063 2.111.97 1.462-1.074-.57-1.798-.392-2.116.906-1.618.999.384 1.615.101 1.615-.741 0-1.818 2.006-2.489 5.462-1.828 1.854.354 2.609.176 2.181-.516-.819-1.327-8.78-5.227-10.709-5.247-1.233-.013-1.23-.145.018-.934.799-.506 1.811-.697 2.25-.426.821.507 1.147-.896.871-3.751-.086-.894 1.212-2.778 2.885-4.185 3.452-2.904 3.735-4.266 1.421-6.823-1.043-1.152-1.347-2.43-.851-3.579.423-.983.948-5.387 1.165-9.787.218-4.4.765-10.137 1.215-12.75.487-2.826.445-4.75-.104-4.75-.507 0-.716-.337-.465-.75.251-.413.761-3.675 1.133-7.25.741-7.127 2.37-9.329 6.19-8.37 1.286.323 2.338.167 2.338-.347 0-.513 1.463-.99 3.25-1.06 5.597-.219 7.75-.624 7.75-1.457 0-1.318 5.318.051 6.18 1.591.437.781 1.925 1.704 3.307 2.05 1.382.347 2.513 1.103 2.513 1.679 0 .614.881.769 2.125.374 1.43-.454 1.902-.312 1.441.433-.414.67.116 1.107 1.344 1.107 1.391 0 1.847-.471 1.452-1.5-.317-.825-.978-1.5-1.469-1.5-.491 0-.893-.477-.893-1.059s.412-.805.915-.494c.503.311 1.143 0 1.423-.691.363-.894.748-.939 1.336-.155.454.606 1.977 1.314 3.383 1.574 2.306.427 2.566.152 2.65-2.811.103-3.66-.923-4.878-4.963-5.892-2.934-.737-3.995 1.111-1.244 2.166 1.634.627 2.087 3.362.557 3.362-.519 0-1.532-.817-2.25-1.816-.719-1-3.482-2.687-6.14-3.75-2.948-1.18-5.362-2.942-6.19-4.52-1.303-2.481-8.044-5.018-16.477-6.202-2.438-.343-2.425-.372.5-1.183 1.65-.457 5.25-1.847 8-3.09 2.75-1.242 7.7-3.168 11-4.28 3.3-1.111 6.793-2.327 7.761-2.701 1.32-.51 1.613-.292 1.168.866-.488 1.272-.089 1.408 2.239.766 1.756-.485 2.779-1.41 2.693-2.436-.076-.91.261-1.654.75-1.654s.889.45.889 1 .787.964 1.75.921c1.045-.047 1.247-.282.5-.583-.687-.278-1.25-.944-1.25-1.48 0-.537.403-.727.895-.423 1.596.987 2.502-2.706 3.665-14.935l1.14-12 .15 15.595c.167 17.354.921 19.432 6.801 18.737 2.041-.241 2.905.145 3.152 1.407.281 1.442-.229 1.659-2.982 1.268-3.183-.452-3.154-.41.679.989l4 1.461-5.751-.229c-3.164-.125-5.751.11-5.75.522 0 .412.451.75 1.001.75.55 0 1 .67 1 1.488 0 .974 1.447 1.72 4.189 2.158 3.575.572 3.869.788 2.008 1.477-1.544.571-2.12 1.539-1.973 3.318.23 2.768 2.528 4.207 4.143 2.592 1.633-1.633 3.776-1.204 3.581.717-.33 3.238.044 4.373 1.204 3.656.633-.391 1.737.089 2.452 1.067 2.472 3.38 6.244-.963 7.864-9.056.627-3.132 3.272-4.25 4.767-2.016.474.71.74.564.75-.412.022-2.182 5.968-8.531 9.758-10.418 1.783-.888 3.197-1.942 3.142-2.343-.199-1.431 1.363-5.228 2.15-5.228 1.136 0 4.583-5.97 5.366-9.293l.658-2.792-2.779 1.779c-1.529.978-3.328 2.46-3.998 3.292-2.272 2.824-1.527-1.852 1.229-7.711.058-.124 1.688-.476 3.622-.784 3.225-.512 3.672-.268 5.403 2.946 2.125 3.946 1.258 8.127-2.918 14.063-1.161 1.65-1.999 3.113-1.864 3.25 1.055 1.072-5.555 9.25-7.476 9.25-.574 0-1.285.918-1.578 2.04-.434 1.66-1.041 1.913-3.255 1.357-2.657-.667-2.706-.6-2.057 2.856.378 2.015.174 4.613-.472 6.033-1.162 2.549-5.403 5.149-6.896 4.226-.456-.282-.58 1.4-.275 3.738.305 2.337.94 4.401 1.411 4.585.471.185.621.717.334 1.182-.288.465.313 1.439 1.335 2.165 3.345 2.373 4.355 5.436 3.203 9.715-1.147 4.259-.546 7.103 1.5 7.103.722 0 1.61 1.35 1.972 3 .362 1.65 1.293 3 2.068 3 1.151 0 3.168 6.571 2.763 9-1.246 7.467-1.22 16 .048 16 1.85 0 2.716-4.121 2.164-10.299-.404-4.534-.309-4.762 1.719-4.118 1.181.375 3.518.818 5.193.986 1.675.167 3.27.332 3.545.368.694.089 1.243 6.15 1.382 15.263.079 5.133.451 7.367 1.118 6.701 1.015-1.013 1.21-18.489.279-24.901-.28-1.925-.246-2.375.075-1 .397 1.701.753.498 1.115-3.767.66-7.793 2.086-8.333 3.917-1.483 1.588 5.943 3.035 6.826 3.276 2 .456-9.116.747-10.938 1.989-12.465 1.18-1.452 1.118-1.573-.494-.968-1.351.507-1.986.142-2.381-1.369-.296-1.134-1.042-1.87-1.657-1.636-.616.234-2.244-.01-3.619-.541l-2.5-.967 2.422-.933c1.731-.667 2.653-.568 3.234.348.556.876.818.563.829-.99.01-1.462-.877-2.678-2.485-3.411-2.617-1.193-3.661-6.982-1.5-8.318.55-.34 1-1.888 1-3.44 0-3.438 4.996-8.681 9.14-9.591 2.995-.658 3.736-1.949 1.61-2.807-.687-.277-.293-.54.878-.583 2.566-.095 4.425-2.138 4.649-5.108.095-1.262 1.13-2.555 2.444-3.055 2.406-.915 3.155-3.842 1.029-4.022-.687-.059-2.142-.171-3.232-.25-3.129-.227-3.076-3.433.081-4.871 2.21-1.007 2.825-1.001 3.169.03.687 2.062 3.232-.635 3.232-3.425 0-1.308.373-2.378.829-2.378.457 0 .794-.935.75-2.078-.134-3.525 11.327-9.063 16.055-7.757 3.68 1.016 6.049-.25 4.664-2.492-1.175-1.901 12.201-.136 16.73 2.207 4.926 2.548 11.88 7.382 15.638 10.87 1.334 1.238 2.801 2.25 3.261 2.25.873 0 2.415 5.506 3.571 12.75.373 2.338 1.026 4.25 1.451 4.25.426 0 .571 1.062.323 2.36-.335 1.749.074 2.497 1.58 2.891 2.49.651 3.148.066 3.148-2.795 0-1.216.694-2.787 1.542-3.491.947-.786 1.185-1.638.616-2.207-.51-.51-.691-1.827-.404-2.927.401-1.532.722-1.688 1.369-.666.6.947.851.647.862-1.032.012-1.852.44-2.255 1.967-1.856 1.074.281 2.126-.004 2.337-.633.274-.811.87-.745 2.048.228 1.081.893 1.663.98 1.663.25 0-.617.464-1.122 1.031-1.122 1.173 0 1.048 6.66-.17 9.132-.673 1.363-.276 1.579 2.417 1.313 1.772-.174 3.559-.346 3.972-.381.413-.035.75-.589.75-1.231 0-.641-.273-.893-.606-.56-.334.334-1.532-.256-2.664-1.31-3.587-3.341-1.234-6.458 4.604-6.099 2.84.175 4.666-.134 4.666-.788 0-.592 1.83-1.076 4.067-1.076 3.613 0 3.997.224 3.433 2-.472 1.487-.168 2.02 1.183 2.079.999.043 1.28.297.623.565-.656.267-1.033 1.019-.836 1.671.196.652.606 2.631.911 4.399.537 3.111.476 3.178-1.913 2.089-1.358-.618-2.468-1.658-2.468-2.311 0-.652-1.012-1.675-2.25-2.272l-2.25-1.085 2.309-.067c1.272-.038 2.032-.517 1.691-1.068-.34-.55.11-1 1-1s1.335-.457.99-1.016c-.346-.559-1.047-.758-1.559-.441-.512.316-.931.098-.931-.484 0-1.561-1.914-1.288-3.734.532-.878.878-1.182 1.886-.678 2.25 1.545 1.116 1.495 3.159-.077 3.159-.98 0-1.417.862-1.28 2.523.122 1.472.701 2.333 1.391 2.068.65-.249 1.451-.185 1.779.143.328.328 1.609.694 2.847.814 15.316 1.481 16.909 1.515 16.188.348-.518-.837-.151-1.055 1.187-.705 4.131 1.081 4.399-1.864.293-3.219-3.934-1.298-5.436-3.041-2.166-2.512.962.156 2.2-.047 2.75-.451.55-.403 2.125-1.007 3.5-1.341 1.375-.335 3.382-1.94 4.46-3.567 1.079-1.627 2.338-2.726 2.799-2.441.461.285.328 1.133-.297 1.885-.624.752-.796 1.914-.383 2.582.518.84.998.544 1.553-.956.921-2.488 3.653-2.895 4.506-.671.317.825 1.203 1.5 1.969 1.5.983 0 .798.595-.63 2.023-1.576 1.576-2.445 1.797-3.934 1-2.642-1.414-3.043-1.301-3.043.855 0 2.516 2.312 4.295 4.623 3.558 1.771-.565 1.778-.518.127.843-.962.793-1.75 1.919-1.75 2.502 0 1.778 2.147 2.002 36.5 3.82 6.6.349 12.9.826 14 1.059 1.1.233 11.225.835 22.5 1.339 17.293.773 34.759 1.988 49.75 3.462 3.646.358 3.367 1.201 3.8-11.461.272-7.934 1.562-35.733 2.088-45 .384-6.752.313-35.254-.16-64-.379-23.053-.578-86.443-.305-96.75.092-3.437.576-6.25 1.076-6.25.501 0 .648-1.237.327-2.75-.32-1.512-.646-6.125-.723-10.25-.138-7.332-1.842-11.743-4.017-10.398-1.617.999-7.828 1.22-8.397.299-.307-.496.257-.908 1.252-.916.995-.009 2.484-.469 3.309-1.023 1.711-1.149-7.819-.957-10.784.218M234.25 236.662c-1.968.794-1.458 2.626.582 2.092 1.008-.263 3.346.304 5.197 1.261l3.364 1.74-3.127.687c-4.319.948-5.73 2.823-4.232 5.621 1.528 2.855.455 3.51-7.156 4.371-4.163.471-5.878 1.088-5.878 2.116 0 .86.967 1.45 2.378 1.45 2.358 0 5.419 2.536 4.35 3.605-.306.306-1.458.074-2.56-.515-2.09-1.119-8.168-.418-8.168.941 0 .43.97.528 2.156.218 1.478-.387 1.932-.2 1.441.593-.393.637-1.277 1.158-1.965 1.158-.687 0-2.123.682-3.191 1.515-1.83 1.429-1.769 1.478 1.059.859l3-.656-2.424 2.641c-2.419 2.635-2.42 2.641-.25 2.641 1.335 0 2.174-.623 2.174-1.617 0-1.214.667-1.489 2.682-1.103 1.476.282 4.851-.05 7.5-.737 4-1.038 4.818-1.02 4.818.103 0 .745-.562 1.361-1.25 1.369-.973.012-.966.196.034.83.715.454.997 1.563.636 2.504-.559 1.457-.29 1.552 1.966.694 2.087-.793 2.614-.696 2.614.482 0 4.95 6.63-2.691 9.38-10.81 1.681-4.965 2.133-12.475.855-14.215-.404-.55-3.078-3.137-5.942-5.75-4.876-4.448-7.004-5.314-10.043-4.088m-68.065 8.088c-2.866 7.454.361 26.885 4.083 24.584.612-.378.741-.157.312.536-.401.649-.358 1.097.096.996.453-.101 1.631.169 2.617.599 2.941 1.283 2.83.14-.364-3.735-4.112-4.989-6.544-13.212-4.846-16.385.689-1.288.957-2.639.594-3.001-.363-.363-.163-1.258.444-1.989 1.183-1.426.532-4.355-.968-4.355-.501 0-1.386 1.238-1.968 2.75m95.056 4.236c-.683 1.093-1.241 3.118-1.241 4.5 0 1.61-.56 2.514-1.559 2.514-.857 0-1.273.463-.923 1.029.35.566.755 2.703.901 4.75.296 4.143 4.558 14.372 5.242 12.577.761-2 3.91-.332 5.043 2.671 1.169 3.097-.479 5.848-2.685 4.485-2.038-1.26-10.1-1.173-11.811.127-1.514 1.15-1.345 1.301 1.483 1.329 1.755.018 3.469.482 3.809 1.032.34.55.066 1-.608 1-.674 0-.947.279-.606.619.928.928-2.113 3.606-3.278 2.886-1.401-.866-1.269 1.834.159 3.262.89.89.83 1.276-.25 1.626-2.192.709-8.118 1.733-11.167 1.93-3 .193-3.835 2.571-1 2.848 3.991.39 4.882.59 7.667 1.721 2.185.888 3.095.898 3.625.04.44-.712 1.607-.861 3.078-.394 1.304.414 3.61.717 5.125.674 1.515-.043 2.755.368 2.755.914s.481.695 1.068.332c.588-.363.752-1.402.365-2.309-.387-.907-.643-2.716-.569-4.02.111-1.968-.114-2.166-1.321-1.164-1.782 1.479-3.663.51-2.895-1.491.309-.805.937-1.23 1.397-.946.459.284 1.425-.185 2.145-1.041.721-.856 1.801-2.113 2.402-2.792 3.59-4.063 4.358-9.351 2.011-13.848-4.051-7.766-4.93-13.344-2.103-13.346 2.544-.001 3.382-4.225 1.019-5.132-1.191-.457-1.458-1.368-1.006-3.426.476-2.17.163-3.046-1.383-3.873-2.779-1.488-3.469-1.359-4.889.916m127.481 23.136c1.168 1.168.738 3.389-1.116 5.768-1.085 1.392-7.496 19.318-7.894 22.073-.149 1.028 1.186 1.671 4.488 2.16 2.585.383 5.102.946 5.594 1.25 2.956 1.826 21.294 5.538 30.206 6.114 5.775.373 11.175.86 12 1.083 1.263.342 1.484-1.131 1.399-9.332-.178-17.226-.351-19.287-1.649-19.658-4.693-1.342-17.623-3.986-24.851-5.083-4.731-.717-10.451-2.248-12.71-3.401-4.584-2.338-7.318-2.825-5.467-.974M332.5 296.765c-1.157.851-.444 21.635.785 22.857.801.797 23.996-3.095 26.23-4.401.93-.544.478-2.989-1.844-9.971l-3.075-9.25-10.548.015c-5.801.009-10.998.346-11.548.75m-73.803 5.985c-.231.413-.724 2.016-1.094 3.564-.466 1.95-1.622 3.145-3.758 3.89l-3.086 1.076 3.171 1.332c2.715 1.142 3.02 1.613 2.128 3.28-.696 1.3-.706 2.059-.031 2.284.556.185-.347 1.823-2.006 3.64-1.66 1.817-3.428 3.05-3.93 2.74-.502-.31-2.752-.635-5.001-.724-2.25-.088-4.09-.467-4.09-.841 0-.82-9.743-.582-10.583.258-.323.324.291 1.06 1.366 1.635 1.075.575 2.238.761 2.586.414.347-.347.631-.179.631.375 0 1.232-4.4 3.327-6.988 3.327-1.042 0-2.172.45-2.512 1-.34.55-.141 1 .441 1s1.059.745 1.059 1.655c0 1.445.222 1.476 1.75.25 6.987-5.609 8.342-4.181 5.32 5.604-3.964 12.834-1.296 16.648 3.895 5.566 2.603-5.558 4.487-6.372 6.174-2.669 1.224 2.687 5.728 4.105 6.516 2.051.672-1.753-2.609-6.604-3.919-5.794-.608.376-.747.164-.331-.508.392-.635.263-1.155-.287-1.155s-1.283.457-1.628 1.016c-.346.559-1.047.758-1.559.441-1.104-.682-1.269-9.401-.181-9.581.412-.068 2.876-.271 5.474-.451 4.828-.334 10.078-3.265 11.334-6.327.36-.879 1.03-4.523 1.489-8.098.458-3.575 1.138-7.512 1.51-8.75.548-1.824.286-2.25-1.381-2.25-1.132 0-2.247.337-2.479.75m118.899 3.095c-.288.465-.81 2.639-1.16 4.832l-.638 3.986 5.851 1.752c3.218.964 7.548 2.39 9.621 3.169 5.012 1.882 6.118 1.811 5.173-.334-.424-.962-.857-3.757-.963-6.209l-.193-4.459-7.894-1.76c-9.31-2.075-9.129-2.057-9.797-.977m-274.321 4.579c-1.038 1.219-.352 1.525 4.5 2.009 12.236 1.219 24.837 2.71 27.225 3.222 1.375.294 7.586.651 13.802.792 6.838.155 11.755.71 12.45 1.405.631.631 2.212 1.148 3.511 1.148 2.052 0 2.322-.416 2.05-3.161-.311-3.139-3.082-4.831-4.405-2.69-.335.542-1.206.171-1.972-.839-1.285-1.695-1.374-1.699-1.404-.06-.031 1.689-3.032 2.601-3.032.921 0-.456-2.363-.821-5.25-.81-5.803.02-24.824-1.244-28.75-1.911-8.147-1.385-17.556-1.397-18.725-.026m267.917 10.371c-1.334.912-1.293 1.461.834 11.205l1.2 5.5 6.637 2.384c6.871 2.468 12.599 3.054 17.443 1.785 2.728-.715 2.785-.868 2.033-5.452-.426-2.594-.741-5.955-.7-7.467.041-1.512-.02-2.75-.136-2.75-.115 0-3.306-1.123-7.092-2.496-7.475-2.712-18.128-4.139-20.219-2.709m-214.966 3.168c-1.25 1.042-2.15 2.34-2 2.883.336 1.213-4.402 9.154-5.462 9.154-.42 0-.764.675-.764 1.5s-.418 1.5-.929 1.5c-1.202 0-4.071 2.869-4.071 4.071 0 1.464 2.169 1.086 4.171-.726 1.702-1.54 1.829-1.54 1.829 0 0 .91.338 1.649.75 1.643 1.448-.025 9.25-7.924 9.25-9.366 0-.802.258-2.131.573-2.953.342-.889-.072-1.631-1.02-1.832-1.325-.28-1.195-.764.769-2.873 1.92-2.061 2.119-2.763 1.062-3.75-1.607-1.501-1.419-1.535-4.158.749M358 323.186c-1.925.436-6.805 1.296-10.844 1.91l-7.345 1.117 11.345 4.007c16.727 5.908 15.987 5.875 14.181.632-.824-2.393-1.557-5.126-1.629-6.075-.167-2.224-1.4-2.567-5.708-1.591m48 .701c0 .647.788 1.425 1.75 1.729 6.708 2.121 17.645 6.682 18.333 7.645.321.449 1.798.355 3.282-.21 4.572-1.738 1.375-6.303-5.543-7.913-8.474-1.974-17.822-2.63-17.822-1.251m-326 3.469c0 .844 2.759 2.28 7 3.644 3.85 1.238 7 2.693 7 3.232 0 .54.653.731 1.452.425.798-.306 4.511.335 8.25 1.426s8.148 2.237 9.798 2.546c1.65.309 6.375 1.638 10.5 2.954 4.125 1.315 8.175 2.4 9 2.41.825.011 2.814.705 4.421 1.542 1.971 1.028 3.25 1.194 3.933.511 1.335-1.335 1.514-1.244-8.854-4.479-24.161-7.539-35.54-10.661-36.562-10.029-.516.319-.938.155-.938-.364 0-.884-6.025-3.135-12.25-4.576-1.989-.46-2.75-.25-2.75.758m253.22 14.392l.28 12.749 8 1.116c4.4.613 11.967 1.644 16.816 2.289 4.848.646 10.136 1.438 11.75 1.761 3.66.732 3.705-.036.562-9.676l-2.371-7.275-7.879-2.749c-4.333-1.511-12.048-4.597-17.144-6.856-5.096-2.259-9.497-4.107-9.78-4.107-.283 0-.388 5.737-.234 12.748m86.965 1.116l-10.316 2.555.691 10.041c.38 5.522.781 10.149.891 10.282.6.726 27.493 5.258 31.202 5.258 4.278 0 4.369-.067 3.723-2.75-.973-4.04-4-11.713-8.087-20.5-4.163-8.95-2.985-8.632-18.104-4.886M377 346.514c0 .832.416 2.295.924 3.25.509.955 1.47 3.885 2.137 6.512.668 2.626 1.575 4.999 2.017 5.272 1.134.701 20.291 3.311 21.037 2.867.339-.202.01-4.09-.73-8.641s-1.354-8.407-1.365-8.569c-.011-.163-1.482-.071-3.27.204-11.946 1.835-17.482 1.724-18.027-.361-.619-2.368-2.723-2.781-2.723-.534M15.015 377.673c-.008.645-1.27 2.445-2.805 4-3.643 3.692-6.441 11.255-6.441 17.413 0 2.703-.398 4.914-.884 4.914-.487 0-.885.675-.885 1.5s.563 1.387 1.25 1.25c.755-.151 1.156.641 1.012 2-.371 3.5 5.05 3.092 8.805-.663 1.603-1.603 3.481-3.15 4.173-3.438.921-.382.78-.913-.519-1.968-1.631-1.324-1.642-1.498-.123-2.08.984-.378 2.144.032 2.858 1.008 1.435 1.962 5.544.354 5.544-2.169 0-.819 1.144-1.925 2.543-2.456 3.789-1.441 16.762-12.091 15.795-12.967-.88-.795-13.324-4.668-17.439-5.426-1.319-.243-2.399-.533-2.399-.644 0-.111-1.03-.309-2.288-.44-1.324-.137-2.13.233-1.913.878.207.613-.293 1.608-1.111 2.211-1.314.968-1.304 1.466.085 4.25.866 1.735 1.211 3.154.767 3.154-.444 0-1.092 1.012-1.44 2.25-.62 2.203-.664 2.21-2.116.309-1.624-2.124-1.977-6.605-.639-8.109.47-.529.255-2.059-.485-3.45-.732-1.375-1.337-1.972-1.345-1.327m261.735 26.358c1.812.728 2.25 1.69 2.25 4.937 0 3.083.389 4.032 1.653 4.032 1.364 0 1.28.324-.482 1.852-2.162 1.875-2.005 3.405.26 2.536.867-.333 1.102.432.789 2.569-.246 1.674.006 3.043.561 3.043.554 0 2.395 1.296 4.09 2.88 3.402 3.177 4.45 2.727 5.536-2.38 1.511-7.104 1.609-8.776.582-10.013-.784-.944-.776-1.501.029-1.998.613-.379 1.746.143 2.517 1.161 1.322 1.745 1.403 1.707 1.433-.659.035-2.713-4.047-6.254-4.756-4.127-.416 1.247-4.207 1.594-4.22.386-.011-1.079-5.111-3.294-6.132-2.663-.473.292-.86-.171-.86-1.028 0-1.049-.899-1.538-2.75-1.496-2.643.061-2.663.099-.5.968M479.027 417.5c-.014 4.021 4.869 17.5 6.34 17.5.483 0 .408.567-.167 1.259-1.227 1.479-.547 12.784.854 14.191 1.222 1.227 1.231 2.844.012 2.091-.521-.322-.772.646-.569 2.191.201 1.522.396 3.357.434 4.077.101 1.912 2.068.379 2.075-1.618.004-.93.706-3.032 1.56-4.671 1.003-1.923 1.178-3.105.494-3.333-1.197-.399-1.468-3.187-.31-3.186 1.143 0 .625-16.376-.531-16.761-.572-.191-.828-2.376-.59-5.039l.421-4.701-1.915 2.225c-1.9 2.208-1.919 2.209-2.452.171-.391-1.494-.148-1.905.89-1.506.785.301 1.427.077 1.427-.497s-1.368-.9-3.04-.725c-1.895.199-3.397-.244-3.985-1.174-.519-.822-.946-1.044-.948-.494m-168.5 27.456c-.943 1.526 2.105 7.777 4.388 8.999 1.147.613 2.085 1.737 2.085 2.497 0 .76.563 1.627 1.25 1.926.858.374.544 1.066-1 2.206-2.762 2.038-2.865 4.148-.311 6.363 1.066.925 1.805 2.553 1.641 3.617-.163 1.065.186 2.247.775 2.627.589.38 1.544 2.374 2.121 4.431 1.075 3.83 5.882 6.685 6.774 4.024.782-2.331.213-6.138-.917-6.142-2.187-.008-2.418-1.248-.334-1.793 1.188-.311 2.597.078 3.29.907.666.798 1.806 2.111 2.532 2.917 1.106 1.226 1.065 1.465-.25 1.465-1.078 0-1.614 1.02-1.708 3.25-.075 1.788-.188 4.375-.25 5.75s-.489 3.082-.949 3.794c-.959 1.483.902 4.206 2.875 4.206 1.838 0 2.093-1.39 1.462-7.984-.575-6.015.53-8.016 4.426-8.016.8 0 1.784-.532 2.186-1.182 1.179-1.908 1.162-6.817-.024-6.833-.748-.011-.735-.246.043-.75.959-.623 1.111-2.64.496-6.544-.071-.445-.485-.589-.92-.319-.436.269-.862-.43-.947-1.553-.084-1.124-.853-2.815-1.707-3.76-.948-1.047-1.615-3.832-1.711-7.138l-.157-5.421-.593 5-.593 5-2.321-2.321c-1.74-1.74-3.251-2.255-6.028-2.054-2.039.147-4.369-.146-5.179-.651-.81-.505-2.044-1.004-2.742-1.11-1.33-.202-5.139-4.318-5.197-5.614-.047-1.072-1.805-.927-2.506.206m121.223 15.733c-2.138.559-2.327 2.311-.25 2.311 1 0 1.5 1 1.5 3 0 3.918-1.577 3.864-2.366-.08-.549-2.747-.78-2.917-2.125-1.572-1.702 1.702-2.031 3.093-.509 2.152.55-.34 1 .272 1 1.359 0 3.121 1.052 5.058 2.454 4.52.708-.271 1.578.261 1.932 1.184.502 1.31.202 1.562-1.371 1.151-1.658-.433-2.015-.041-2.015 2.211 0 3.311 3.259 5.381 7.549 4.793 3.294-.451 3.398-1.08 2.225-13.414-.81-8.51-1.627-9.286-8.024-7.615" fill="#d3d3d3" fill-rule="evenodd"/></svg>