<svg xmlns="http://www.w3.org/2000/svg" width="500" height="503"><path d="M318 123.98c0 .436-2.025 1.097-4.5 1.468-4.159.623-6.426 2.552-3 2.552.825 0 1.5.5 1.5 1.111 0 .723-1.191.888-3.407.472-1.874-.351-3.601-.289-3.836.139-.236.428-.292.216-.124-.472.441-1.81-1.308-1.538-2.019.313-.33.86-1.012 1.309-1.517.997-1.197-.74-4.223.428-3.623 1.399.255.411-.648 1.255-2.005 1.873-1.771.807-2.469.816-2.469.03 0-.603-.899-.86-2-.572-1.11.29-2 .03-2-.584 0-.756-.379-.727-1.2.094-1.626 1.626-4.296 1.512-5.755-.246-.887-1.068-1.842-1.202-3.658-.511-1.835.698-2.594.582-2.992-.456-.643-1.676-3.898-2.673-5.061-1.549-1.358 1.313-8.334 2.306-8.334 1.187 0-1.051-10.76-.799-11.836.278-.333.333.056 1.024.865 1.536.809.512 1.078.937.599.946-.48.008-.361.632.266 1.387.904 1.089.517 1.629-1.878 2.621-1.659.687-3.016 1.549-3.016 1.916 0 .366-.9.733-2 .816-1.143.086-2-.466-2-1.287 0-.791-.501-1.438-1.113-1.438-.672 0-.937-1.207-.667-3.043.341-2.326.113-2.915-.969-2.5-.778.299-2.071.543-2.872.543-1.197 0-1.227.25-.168 1.395.709.767 1.627 1.191 2.039.941 1.107-.67.883 8.911-.25 10.664-.78 1.207-.972 1.049-.985-.809-.01-1.516-.42-2.059-1.193-1.581-.649.401-3.752.837-6.897.969-3.145.132-6.693.762-7.885 1.4-1.608.86-2.518.869-3.523.035-1.018-.845-1.563-.794-2.186.202-1.102 1.759-6.331 4.041-6.331 2.763 0-.539-.675-.979-1.5-.979s-1.5.675-1.5 1.5-.502 1.5-1.117 1.5c-.624 0-.886-.882-.593-2 .589-2.252-.298-2.592-2.09-.8-.933.933-1.218.656-1.279-1.25-.043-1.348-.29-1.935-.548-1.306-.258.629-1.347.914-2.421.633-1.074-.281-1.952-.086-1.952.433 0 1.46-5.796.263-6.405-1.322-.296-.773-.102-2.556.433-3.962 1.21-3.183 1.208-3.426-.028-3.426-.55 0-1 .942-1 2.094 0 1.162-.788 2.299-1.771 2.556-1.393.365-1.693 1.28-1.406 4.29.432 4.526-.461 5.311-4.667 4.105-1.985-.57-3.354-.534-3.744.097-.338.547-1.267.744-2.065.438-.953-.366-1.207-.132-.739.681.392.682.356.917-.079.524-.436-.393-1.605-.279-2.6.253-1.021.546-2.044.585-2.351.088-.299-.484-2.386-.853-4.639-.82-2.252.033-4.44-.499-4.863-1.183-.524-.847-1.287-.19-2.399 2.067-.982 1.993-1.641 2.614-1.654 1.56-.013-.963-.689-1.75-1.504-1.75-.814 0-1.762-1.122-2.107-2.493-.344-1.371-1.035-2.24-1.535-1.931-.5.309-.67.95-.377 1.424 1.071 1.733-1.403 1.98-2.682.267-2.1-2.815-4.582-2.383-5.762 1.003-1.573 4.511-1.337 7.73.566 7.73 1.349 0 1.407.26.343 1.542-.97 1.169-.999 1.824-.123 2.7.877.877 1.158.841 1.158-.15 0-.897.787-1.111 2.5-.681 1.442.361 2.5.196 2.5-.392 0-.56.439-1.019.975-1.019 1.368 0 .076 6.124-1.731 8.21-.815.941-1.766 1.675-2.113 1.632-.347-.043-.969.031-1.381.165-1.223.396-2.683.735-3.75.868-1.286.161-1.316 3.125-.031 3.125.532 0 .686.787.34 1.75-.345.963-.26 1.416.19 1.009.449-.408 1.494-.183 2.322.5 1.198.989 1.59.987 1.925-.009.499-1.482 3.254-1.694 3.254-.25 0 .55.637 1 1.417 1 .779 0 1.578.486 1.776 1.08.396 1.187 5.315-.611 7.582-2.771.701-.669 3.969-1.52 7.263-1.893 5.197-.588 6.068-.991 6.584-3.047.364-1.447 1.331-2.369 2.486-2.369 2.286 0 2.479 2.268.345 4.039-1.114.924-1.223 1.485-.39 2 1.404.868 4.888.072 5.062-1.156.069-.485.238-1.333.375-1.883s.306-1.702.375-2.559c.069-.857.501-1.327.96-1.043.46.284.374 2.774-.192 5.534-.972 4.745-.36 7.663 1.161 5.539 1.232-1.72 5.036-3.449 5.375-2.444.436 1.297 6.717 1.951 7.443.776.319-.517 1.255-.68 2.08-.364.886.34 2.269-.403 3.383-1.819 3.546-4.508 9.915-3.968 9.915.841 0 .882 1.012 2.01 2.25 2.508 2.115.85 2.07.914-.75 1.067-2.988.163-2.99.167-.5 1.045 2.458.867 2.453.876-.308.528-2.13-.268-2.673-.003-2.25 1.1.307.8.558 2.404.558 3.564 0 2.014.061 2.026 1.348.265.742-1.014 1.82-1.552 2.396-1.197 1.128.698 2.702-2.036 2.366-4.109-.337-2.078 10.779-12.4 12.709-11.8 1.832.569 4.364-.625 4.332-2.044-.011-.488.626-.756 1.415-.594.789.161 1.434-.176 1.434-.75 0-.574.338-.945.75-.825s3.589-.397 7.06-1.149c4.69-1.017 7.193-1.098 9.75-.313 1.892.581 3.44.676 3.44.212 0-.465.9-.777 2-.694 1.1.083 2 .73 2 1.438s.9 1.287 2 1.287 2 .45 2 1 .9 1 2 1 2 .498 2 1.107.675.848 1.5.531c.825-.316 1.5-.181 1.5.3s.871.647 1.935.369c1.146-.3 2.854.35 4.19 1.595 1.24 1.155 3.742 3.112 5.559 4.349 2.282 1.553 3.509 3.332 3.966 5.749.365 1.925 1.337 3.995 2.162 4.6.957.703 1.281 1.937.895 3.412-.332 1.271-.167 3.128.367 4.127 1 1.867-.164 3.604-4.635 6.922-1.067.791-3.152 3.063-4.633 5.048-2.566 3.439-8.064 6.895-10.957 6.887-.742-.002.064-.865 1.792-1.919 2.927-1.785 5.149-4.077 3.952-4.077-2.271 0-7.649 3.677-7.305 4.994.835 3.191-7.014 5.876-8.788 3.006-.34-.55.338-1 1.507-1 2.531 0 5.993-1.71 5.993-2.96 0-1.403-6.617-.422-9.158 1.358-1.699 1.19-3.61 1.463-7.32 1.046-3.754-.423-4.602-.297-3.361.496.914.583 1.552 1.81 1.417 2.727-.28 1.913 3.425 6.02 4.922 5.456.55-.208 1.675-.381 2.5-.387.825-.005 2.063-.452 2.75-.995.688-.542 1.25-.593 1.25-.113-.001 1.625 10.268.726 11.537-1.01 1.168-1.597 7.462-2.329 7.464-.868 0 .412 1.125.815 2.5.894 1.374.08 2.499-.314 2.499-.875 0-.612 1.27-.765 3.177-.384 1.747.35 2.876.335 2.509-.033-.368-.367-.201-1.232.371-1.921.721-.868.718-1.452-.008-1.901-1.775-1.097-1.16-3.53.892-3.53 1.068 0 2.191.405 2.497.9.306.495 2.104.9 3.995.9s6.169.945 9.507 2.1c3.337 1.155 6.94 2.1 8.005 2.1 1.065 0 2.176.387 2.469.861.858 1.388 13.386 2.013 17.156.856 2.953-.906 3.653-.795 4.792.764.734 1.003 1.806 1.533 2.382 1.178.575-.356 1.304.025 1.62.847.742 1.935 4.253 1.935 4.995 0 .834-2.172 5.872.19 5.164 2.421-.497 1.565.855 2.44 7.727 4.999 1.512.564 2.75 1.486 2.75 2.049 0 .564.825 1.025 1.833 1.025 1.009 0 2.165.338 2.571.75.406.412 2.815 1.455 5.355 2.316 5.105 1.731 6.721 3.864 3.074 4.059-1.283.068.142.491 3.167.938 3.025.448 6.489.574 7.697.28 2.626-.637 9.544 1.459 8.798 2.666-.551.891.75 1.397 6.505 2.532 1.925.379 4.124 1.2 4.886 1.824.762.624 3.237 1.868 5.5 2.765 3.695 1.464 4.082 1.938 3.799 4.651-.528 5.065 1.313 4.426 4.547-1.577 1.69-3.137 3.454-5.479 3.92-5.204.467.275.761.76.655 1.078-.106.318-.3 2.929-.431 5.803s-.607 5.453-1.057 5.731c-.451.278-.813 2.392-.806 4.697.013 4.288-2.049 14.88-4.805 24.691-.85 3.025-1.703 6.462-1.896 7.638-.193 1.176-1.433 5.755-2.757 10.177-1.323 4.422-2.159 8.985-1.857 10.14.303 1.155-.362 4.675-1.477 7.823-1.115 3.147-2.369 7.972-2.787 10.722-1.12 7.361-1.22 7.745-2.186 8.4-.783.53-4.248 8.378-4.248 9.62 0 .264.886.48 1.969.48 1.132 0 1.79.531 1.548 1.25-.231.688-.653 2.864-.937 4.836-.689 4.782-1.655 7.188-3.412 8.506-1.231.923-1.085 1.353.937 2.769 2.746 1.923 4.89.26 4.9-3.802.004-1.68.707-2.098 3.815-2.272 2.096-.118 5.131-.902 6.745-1.744 1.614-.842 3.99-1.533 5.279-1.537 1.451-.004 2.531-.723 2.836-1.89.321-1.227 1.12-1.72 2.293-1.413 2.389.625 3.531-1.391 1.901-3.355-1.082-1.303-1.013-1.774.414-2.816.941-.689 1.712-1.781 1.712-2.427 0-.776.595-.887 1.75-.327.962.467 2.739.77 3.947.674 1.909-.151 2.122.202 1.625 2.687-.442 2.209-.202 2.861 1.053 2.861.958 0 1.625-.821 1.625-2 0-2.241 2.772-2.758 3.574-.667.682 1.777 3.426 1.713 3.426-.079 0-1.082.762-1.237 3.25-.66 1.788.413 5.791.673 8.898.577 5.254-.164 5.898.075 9.25 3.427 3.082 3.082 3.602 3.311 3.602 1.59 0-1.869 2.07-2.452 3.529-.992.759.759 4.471-.204 4.471-1.16 0-.402 3.262-.62 7.25-.486l7.25.244.51 72.353c.363 51.52.53 30.314.582-73.647.039-80.3-.105-144.312-.32-142.25-.597 5.707-3.351 5.021-5.633-1.404-1.208-3.402-2.1-4.718-2.623-3.872-.436.705-1.293.973-1.904.595-.612-.378-1.112-.193-1.112.411 0 .709-.506.641-1.425-.191-1.209-1.093-.981-1.479 1.5-2.542 3.659-1.567 3.713-2.949.175-4.48-1.512-.654-4.022-2.219-5.577-3.478-3.061-2.479-5.267-3.051-4.01-1.039 1.871 2.995-.327 7.75-3.582 7.75-1.56 0-5.082-4.189-4.421-5.258.349-.565.893-.466 1.331.244 1.268 2.051 4.916-4.069 3.955-6.634-1.071-2.854-2.733-3.774-4.368-2.417-1.032.857-1.472.594-1.947-1.164-.6-2.223-.646-2.209-2.16.667-1.64 3.114-1.088 10.179.583 7.474.461-.745 1.14-1.051 1.511-.681.37.371-.015 1.362-.857 2.204-.841.841-1.682 1.976-1.869 2.522-.664 1.944-4.696-.198-5.916-3.144-1.035-2.497-1.392-2.727-2.144-1.383-1.515 2.707-2.651.788-2.335-3.944.165-2.467-.119-4.486-.631-4.486s-.653-.45-.313-1 .214-1-.28-1c-.495 0-1.412 1.125-2.038 2.5-1.438 3.156-3.05 3.26-2.457.158.256-1.339-.235-3.025-1.146-3.936-.979-.98-1.206-1.835-.587-2.217.555-.343 1.026-.034 1.047.686.058 1.939 2.961-5.119 2.961-7.199 0-3.513-3.028-3.169-4.569.518-2.05 4.907-3.519 4.411-2.785-.941l.607-4.431-3.877-.624c-2.132-.343-4.682-1.064-5.667-1.603-.985-.538-2.242-.7-2.793-.359-1.777 1.098-3.916-1.701-3.916-5.125 0-1.83.638-3.687 1.418-4.127 1.911-1.078-2.08-5.843-4.929-5.885-3.684-.054-16.474-4.565-17.341-6.116-.622-1.11-2.01-1.427-5.004-1.141-2.279.217-4.144.045-4.144-.382s-.337-.723-.75-.658c-.413.066-.975.04-1.25-.057s-2.525-.364-5-.594c-4.246-.395-4.362-.342-2.05.949 1.347.752 3.04 1.142 3.761.865.875-.336 1.106.033.693 1.108-.34.886-1.721 1.611-3.07 1.611-1.38 0-2.182-.437-1.834-1 .34-.55-.272-1-1.359-1-1.088 0-2.762-.301-3.72-.669-1.425-.546-1.634-.255-1.15 1.597.618 2.365 0 5.072-1.16 5.072-.371 0-.771-1.165-.889-2.589-.294-3.548-.975-4.406-3.531-4.443-2.049-.03-2.076-.119-.418-1.377 1.664-1.262 1.633-1.383-.5-1.955-3.376-.904-3.499-.847-4.018 1.864-.263 1.375-.117 2.5.324 2.5s.157 1.238-.632 2.75c-1.65 3.164-1.922 6.662-.447 5.75.55-.34 1 .084 1 .941s-.45 1.559-1 1.559-1-.408-1-.906c0-.499-.814-.694-1.808-.434-2.445.64-2.399-4.554.059-6.66 1.868-1.6 1.168-7.5-.889-7.5-.547 0-2.141-1.238-3.543-2.75-3.315-3.577-4.458-3.063-2.777 1.25.107.275.156.794.108 1.154-.047.36.575 1.202 1.382 1.873.807.67 1.468 2.025 1.468 3.012 0 .987.563 2.021 1.25 2.299.756.305.568.535-.475.583-1.446.066-1.563.506-.722 2.718.552 1.451.778 2.863.503 3.138-.275.275-.935-.643-1.466-2.041-.532-1.398-1.435-2.831-2.008-3.185-.708-.438-.661-1.252.144-2.541.964-1.545.849-2.269-.618-3.891-.992-1.096-1.508-2.471-1.147-3.056s.218-1.063-.319-1.063c-.536 0-1.168.563-1.404 1.25-.236.688-1.838-1.529-3.56-4.925-1.791-3.533-3.997-6.45-5.155-6.818-1.112-.353-2.023-1.061-2.023-1.574 0-.513-1.125-.933-2.5-.933-2.93 0-3.335 1.6-.622 2.461 1.032.328 3.17 1.756 4.75 3.173l2.872 2.576-2.88-.657c-2.18-.497-3.439-.132-5.176 1.5-1.263 1.186-2.779 1.858-3.37 1.493-.591-.365-1.074-.203-1.074.36s.961 1.538 2.135 2.166c1.568.839 1.799 1.35.872 1.924-.695.429-.973 1.25-.619 1.823.355.574.139 1.355-.478 1.737-.798.493-.73.971.233 1.65.911.642.371.72-1.643.24-6.866-1.639-9.289-.61-9.547 4.054-.061 1.1-.338 1.438-.615.75-.999-2.476-3.077-1.338-2.554 1.399.291 1.524.106 2.401-.437 2.066-.518-.321-1.543-.212-2.277.242-1.004.62-.783.999.889 1.53 2.201.699 2.196.72-.482 2.109-3.413 1.771-4.027 1.771-2.558.001 1.692-2.038-.951-2.711-2.91-.74-1.348 1.355-1.543 1.284-1.829-.67-.202-1.384-1.028-2.187-2.25-2.187-1.061 0-1.93-.664-1.93-1.475 0-1.087-.747-1.326-2.84-.907-2.418.484-2.817.26-2.687-1.505.216-2.932.888-3.307 3.888-2.166 2.113.803 2.639.709 2.639-.472 0-.811.477-1.475 1.059-1.475s.776-.458.429-1.019c-.346-.56.726-1.588 2.383-2.285 2.285-.96 2.789-1.62 2.086-2.731-.509-.806-.94-1.015-.957-.465-.062 2.015-1.97-2.071-1.985-4.25-.015-2.315 1.39-3.022 2.485-1.25.96 1.553 2.5 1.179 2.5-.607 0-1.018-.55-1.396-1.5-1.031-2.087.801-1.886-1.038.25-2.282 1.38-.804 1.433-1.029.25-1.065-4.501-.137 2.255-1.883 9.681-2.502 7.038-.586 8.22-.928 7.25-2.097-.923-1.111-.677-1.576 1.205-2.277 3.322-1.238-10.65-.546-14.888.738-2.735.828-3.405.697-4.218-.821-.987-1.844-5.03-3.512-5.03-2.076m-187.985 37.699c-.008.649-2.453 1.685-5.432 2.304-2.979.618-9.167 2.725-13.75 4.682-4.583 1.956-10.748 4.011-13.699 4.565-3.916.736-4.997 1.272-4 1.984 1.095.781 1.056.877-.196.484-.859-.27-3.334.347-5.5 1.372-2.166 1.024-4.838 1.886-5.938 1.915-2.943.079-12.342 2.821-10.027 2.926 1.867.084 1.854.172-.25 1.646C70 184.413 69 185.71 69 186.44c0 1.284-3.375 2.895-5.58 2.664-.594-.063-1.044.901-1 2.141.065 1.828-.391 2.202-2.411 1.974-1.464-.165-3.01.429-3.75 1.441-.692.947-1.259 1.218-1.259.601 0-.678-1.88-1.104-4.75-1.076-7.59.072-10.998-1.043-11.697-3.83-.784-3.124-4.467-4.649-6.632-2.744-.868.764-2.332 1.389-3.253 1.389-.922 0-3.354.9-5.407 2-2.052 1.1-2.988 2-2.08 2 3.048 0 2.992 6.728-.063 7.655-.89.27-2.399.908-3.354 1.418-.955.51-3.084.927-4.731.927-2.453 0-3.105.497-3.601 2.75a317.81 317.81 0 0 1-.835 3.697c-.125.52-1.774.97-3.663 1L1.5 210.5l-.253 146.25L.993 503h212.046l-.453-2.5c-.297-1.638.004-2.5.873-2.5 1.642 0 2.562-2.236 3.189-7.75.287-2.52.071-4.25-.529-4.25-.557 0-1.023-1.687-1.036-3.75-.012-2.062-.149-4.874-.303-6.248-.202-1.804.358-2.776 2.018-3.5 1.491-.65 2.139-1.616 1.844-2.751-.25-.962-.046-2.001.452-2.309.498-.308.89-2.671.871-5.251-.035-4.572-.072-4.627-1.465-2.191-.786 1.375-1.459 3.4-1.495 4.5-.063 1.905-.117 1.913-1.138.156-.589-1.014-1.183-2.364-1.318-3-.136-.636-.605-1.989-1.044-3.007-.517-1.203-.326-2.142.548-2.681.834-.516 1.505-3.418 1.77-7.65.234-3.75.77-7.043 1.19-7.318.42-.275.927-3.425 1.126-7 .198-3.575.924-7.095 1.611-7.821.687-.727 1.25-1.991 1.25-2.809 0-.819.45-1.21 1-.87.55.34 1-.335 1-1.5s-.45-1.84-1-1.5c-.55.34-1.016-.196-1.035-1.191-.029-1.44-.328-1.299-1.465.691-1.019 1.783-1.439 2.022-1.465.833-.019-.916-.597-1.9-1.285-2.185-.87-.362-.582-1.107.948-2.452 2.164-1.903 2.169-1.962.292-3.976-1.604-1.723-1.686-2.228-.515-3.199 1.179-.979 1.183-1.738.03-5.008-1.198-3.394-1.173-3.926.21-4.457.864-.332 1.309-.865.988-1.186-.55-.551.052-1.501 3.095-4.881.97-1.078 1.024-1.953.215-3.465-.994-1.857-.675-2.432 1.194-2.157.9.133 2.785-6.577 2.772-9.867-.007-1.782-.256-2.11-.869-1.143-.6.946-1.067 1.021-1.544.25-.376-.609-.132-1.107.542-1.107 1.512 0 .569-1.053-1.266-1.414-7.158-1.411-8.934-2.031-10.371-3.618-.912-1.008-2.292-1.59-3.065-1.294-1.02.392-1.406-.304-1.406-2.536 0-2.31-.37-2.933-1.486-2.505-.992.381-1.847-.378-2.57-2.281-.597-1.569-.94-2.872-.764-2.896.176-.024-.516-1.319-1.537-2.878-1.652-2.521-1.787-4.166-1.22-14.851.351-6.609.835-12.336 1.077-12.728.383-.619-.606-15.188-1.968-28.992-.291-2.94.067-5.273 1.035-6.75 1.674-2.554 4.433-3.025 4.433-.757 0 .825.388 1.5.861 1.5.474 0 .647-1.125.384-2.5s-.876-2.5-1.362-2.5c-.485 0-.883-1.95-.883-4.333 0-2.384-.257-4.59-.571-4.904-1.142-1.142-5.884 2.245-7.63 5.45l-1.791 3.287.064-8.5c.087-11.427.158-10.996-1.822-11.032-1.583-.029-1.565-.171.191-1.5 1.826-1.381 1.733-1.468-1.559-1.468-1.925 0-4.373.661-5.441 1.468-1.067.808-2.841 1.468-3.941 1.468-1.973 0-1.974-.019-.059-1.468 1.068-.807 1.379-1.468.691-1.468-.687 0-1.004-.399-.702-.886.301-.488-.347-1.121-1.44-1.406-1.094-.286-2.24-.112-2.548.386-.79 1.279-5.186 1.128-6.011-.206a1.306 1.306 0 0 1 .417-1.794c1.967-1.216-2.75-9.353-5.071-8.746-1.364.357-1.777.095-1.4-.889 1.016-2.647-1.463-2.619-3.555.04-2.893 3.677-5.927 4.67-7.822 2.56-.825-.918-2.963-2.262-4.75-2.985-2.492-1.009-3.257-1.93-3.282-3.945-.017-1.446-.744-3.529-1.615-4.629-1.537-1.941-1.57-1.92-1.114.715.259 1.493-.027 2.9-.634 3.125-.772.287-.729.809.145 1.735 2.173 2.303 1.445 4.12-.765 1.91-1.957-1.957-1.967-2.166-.327-7.177.972-2.972 3.252-6.774 5.374-8.96 2.027-2.089 3.449-4.034 3.16-4.323-1.731-1.731 2.685-.094 5.464 2.026 3.797 2.896 4.266 4.449 1.344 4.449-2.83 0-2.485 1.414 1.077 4.411 2.038 1.715 4.268 2.589 6.607 2.589 2.646 0 3.393.357 2.982 1.427-.718 1.872 1.388 3.555 3.868 3.093 1.081-.202 2.304-.401 2.716-.443.412-.043.75-.915.75-1.938 0-1.477-.55-1.756-2.664-1.352-2.196.419-2.549.211-2.011-1.191.434-1.132.27-1.464-.491-.993-.678.419-.87.265-.472-.379.369-.597.213-1.368-.346-1.714-1.231-.761-1.358-3.51-.162-3.51.47 0 2.015 1.076 3.435 2.392 1.967 1.823 2.706 2.064 3.108 1.015.291-.757-.345-1.844-1.412-2.415-1.653-.885-1.849-1.738-1.322-5.765.34-2.6.277-4.411-.141-4.025-.948.876-3.522-1.596-3.522-3.381 0-.855 1.294-1.321 3.667-1.321 5.294 0 5.4-2.221.143-2.989-2.371-.347-5.322-.699-6.56-.783-2.466-.168-2.964-1.233-1-2.135.688-.316.242-.325-.991-.019-3.067.76-4.694-.345-3.185-2.163.771-.929.808-1.411.107-1.411-.584 0-1.302.386-1.593.858-1.096 1.774-6.43.573-9.036-2.034-2.578-2.577-2.596-2.675-.604-3.307 1.128-.359 2.052-1.302 2.052-2.097 0-1.081-1.002-.813-3.98 1.067-2.189 1.382-4.214 2.513-4.5 2.513-1.286 0-.344-3.003 1.23-3.92 1.187-.691 1.308-1.029.378-1.05-1.074-.023-1.115-.34-.192-1.453.663-.799 2.242-1.231 3.597-.985 1.868.339 2.28.085 1.819-1.118-.77-2.006-5.157-1.376-9.619 1.382-2.101 1.299-3.791 1.726-4.672 1.182-.759-.469-1.926-.643-2.594-.387-.838.322-1.181-.789-1.107-3.593.058-2.232.451-4.058.873-4.058s.767-.9.767-2-.483-2-1.073-2c-.659 0-.977-2.046-.826-5.314.136-2.923-.083-5.848-.486-6.5-.403-.653-.279-1.186.276-1.186s1.506.787 2.113 1.75c.847 1.341.942.583.41-3.25-.75-5.399-.666-11.944.188-14.75.35-1.149-.006-1.75-1.035-1.75-.862 0-1.574.563-1.582 1.25-.011.833-.339.75-.985-.25-.569-.88-.976-1.013-.985-.321m115.229 11.985c-.691.279-.916 1.031-.5 1.671.416.641.756 1.944.756 2.896 0 .951.354 1.723.786 1.714 1.318-.028 3.714 2.82 3.714 4.414 0 .826 1.012 1.656 2.25 1.845 1.238.189 2.142.882 2.01 1.54-.444 2.212 3.595 3.543 5.369 1.77a3.736 3.736 0 0 1 3.726-.952c1.926.565 1.87.365-.556-1.961-1.486-1.425-3.55-4.506-4.587-6.846-2.525-5.693-4.804-7.617-5.695-4.808-.835 2.63-2.517 2.665-2.517.053 0-1.957-1.895-2.489-4.756-1.336M179.27 220.75c.428 1.773.112 2.25-1.489 2.25-1.761 0-1.578.433 1.373 3.25 2.992 2.856 8.103 11.443 8.481 14.25.074.55.186 1.563.25 2.25.063.688.978 1.25 2.032 1.25s2.105.563 2.336 1.25c.644 1.918 5.747-1.145 5.747-3.45 0-1.025.688-2.127 1.53-2.45 1.476-.566 1.169-4.12-.463-5.35-1.574-1.186-5.067-6.939-5.067-8.345 0-2.061-2.035-3.217-2.978-1.691-.587.95-1.233.923-2.918-.122-1.837-1.139-2.304-1.119-3.08.129-.503.809-1.229 1.157-1.612.774s-.128-1.383.568-2.221c1.059-1.275.951-1.524-.658-1.524-1.057 0-2.523-.562-3.258-1.25-1.095-1.025-1.238-.844-.794 1" fill="#d3d3d3" fill-rule="evenodd"/></svg>