<svg xmlns="http://www.w3.org/2000/svg" width="500" height="737"><path d="M0 368.506v367.498l250.25-.252 250.25-.252.251-367.5.252-367.5-250.502.254L0 1.008v367.498m.495-.006c0 202.4.115 285.051.255 183.669.14-101.383.14-266.983 0-368C.61 83.151.495 166.1.495 368.5M81.316 51.37C66.885 55.027 58.851 68.935 63.04 83.007c.572 1.921 1.924 8.31 3.004 14.198 4.328 23.589 12.85 43.031 30.308 69.144 15.478 23.153 19.593 35.78 18.299 56.151-1.096 17.24-6.077 24.636-15.411 22.885-12.302-2.308-23.364-29.15-30.238-73.37C67.253 160.761 62 112.996 62 108.343c0-.804-.45-1.183-1-.843-1.226.758-1.404 140.5-.179 140.5.451 0 3.264-8.549 6.25-18.998 2.986-10.449 5.664-18.999 5.95-19 .287-.001 1.775 4.113 3.306 9.143 12.374 40.648 33.308 47.072 45.144 13.855 7.603-21.339 10.354-48.296 10.665-104.5.182-32.862.118-34.138-1.93-38.124-3.996-7.78-12.273-12.756-32.49-19.535-18.465-6.191-22.147-8.479-20.958-13.023 1.337-5.114 15.502-6.563 25.947-2.655 6.816 2.55 15.338 10.511 19.82 18.515 1.595 2.848 3.254 4.958 3.687 4.691 1.006-.621 1.042-26.369.038-26.369-.412.001-2.718 2.286-5.122 5.078l-4.373 5.077-3.127-3.023c-7.279-7.036-21.6-10.477-32.312-7.762m150.276 39.482c-.29.469-1.845 4.181-3.456 8.25a1441.962 1441.962 0 0 1-6.448 15.924c-3.408 8.258-3.6 9.433-6.123 37.5-4.242 47.186-7.752 77.955-10.662 93.474-1.43 7.629-4.879 18-5.985 18-.505 0-.918 2.025-.918 4.5v4.5h22v-3.933c0-2.99-.457-4.077-1.907-4.537-5.881-1.867-7.626-25.93-4.633-63.895 2.162-27.434.922-24.77 11.369-24.423l8.671.288.669 10.5c.367 5.775 1.83 25.024 3.25 42.775 1.419 17.751 2.581 32.938 2.581 33.75 0 1.054-1.141 1.475-4 1.475h-4v8h46v-4c0-3.574-.26-4-2.441-4-3.323 0-3.247.261-4.486-15.516-1.398-17.797-4.592-56.385-7.118-85.984-1.079-12.65-2.225-26.375-2.546-30.5-.459-5.898-2.007-11.29-7.246-25.247L247.5 90.007l-7.691-.004c-4.23-.002-7.928.38-8.217.849M357 108c0 9.9.193 18 .428 18s2.773-4.246 5.64-9.436c6.267-11.345 14.771-22.914 17.182-23.376 1.575-.301 1.751.698 1.757 9.989.047 73.511.057 122.466.028 136.516L382 256.885l-4.25.308-4.25.307-.305 4.75-.305 4.75h52.22l-.305-4.75-.305-4.75-4.117-.301-4.117-.301-.529-10.199c-.29-5.609-.408-38.549-.262-73.199.356-84.12.274-80.5 1.838-80.5 2.733 0 10.672 10.601 17.598 23.5 2.362 4.4 4.699 8.427 5.192 8.95.531.563.897-6.473.897-17.25V90h-84v18m-134.822 11.75c-1.826 5.08-5.225 34.894-5.188 45.5L217 168h16.176l-.539-3.75c-.296-2.062-1.051-11.4-1.679-20.75-1.087-16.195-3.756-29.5-5.918-29.5-.438 0-1.726 2.588-2.862 5.75M292.5 121c.34.55 1.663 1 2.941 1h2.322l.691 46.25c.38 25.438.545 54.125.368 63.75l-.322 17.5-2.75.316c-2.303.265-2.75.794-2.75 3.25V256h33v-3c0-2.533-.389-3-2.5-3-2.915 0-2.724 3.441-2.724-49 0-57.979-.141-55 2.607-55 3.608 0 3.739 1.228 4.655 43.5.887 40.921 1.774 52.914 4.494 60.736 4.04 11.621 13.951 12.695 18.998 2.059 2.989-6.298 6.864-38.295 4.639-38.295-.48 0-1.146 3.882-1.481 8.627-.335 4.745-.851 8.87-1.148 9.167-1.576 1.576-2.07-3.12-2.693-25.612-.978-35.319-3.938-51.053-11.074-58.864l-1.993-2.182 3.925-1.057c11.244-3.027 12.524-17.348 1.979-22.136-3.73-1.693-6.768-1.901-27.993-1.921-15.624-.014-23.597.322-23.191.978m27.716 11.75l.284 10.75 2.927-.212c4.872-.354 6.073-2.464 6.073-10.67 0-8.553-1.197-10.618-6.156-10.618h-3.412l.284 10.75m-170.466-1.071c-1.501.401-1.75 1.737-1.75 9.394 0 10.003.66 10.839 3.694 4.677 3.216-6.531 8.347-13.109 9.402-12.054.545.545.815 24.92.662 59.862L161.5 252.5l-2.25.32c-1.629.231-2.25.99-2.25 2.75V258h27v-2.5c0-2-.5-2.5-2.5-2.5H179v-60c0-39.081.346-60 .994-60 1.291 0 6.64 7.324 9.312 12.75 3.095 6.285 3.801 5.271 3.482-5l-.288-9.25-20.5-.144c-11.275-.079-21.287.066-22.25.323m212.94 96.027c-.884 19.95-4.971 32.701-12.727 39.709-9.078 8.201-8.577 11.466 3.537 23.06 10.568 10.114 11.644 12.693 6.865 16.452-1.449 1.14-3.256 2.073-4.015 2.073-1.55 0-5.341-5.684-5.346-8.018-.002-.835-1.145-3.197-2.54-5.25L345.928 292h-7.308c-4.733 0-9.38.713-13.194 2.026-4.484 1.542-6.489 1.787-8.407 1.024-8.66-3.44-30.067-4.018-40.614-1.095-6.554 1.816-7.404 1.846-11.98.421-8.534-2.658-28.54-2.958-37.77-.565-7.374 1.911-8.094 1.937-12 .426-3.202-1.239-9.018-1.699-25.354-2.008l-21.198-.4-.302-4.332-.301-4.333-11.919 8.687c-6.555 4.777-11.775 9.128-11.599 9.667.399 1.23 22.774 17.482 24.068 17.482.523 0 .95-1.8.95-4v-4h17.107c15.889 0 17.058.125 16.415 1.75-.381.962-.887 3.325-1.125 5.25l-.433 3.5 1.516-3.895c2.588-6.651 3.024-6.882 12.079-6.407 13.836.727 20.441 6.259 20.441 17.122 0 9.085-8.65 16.178-18.791 15.41-8.861-.672-14.189-6.493-15.312-16.73l-.603-5.5-.147 6.215c-.272 11.513 4.093 19.624 12.636 23.476 8.533 3.848 19.362-2.162 22.391-12.428 3.759-12.743-.148-28.888-9.093-37.569l-4.11-3.988 3.164-1.103c7.129-2.485 11.79-.015 13.849 7.34 1.613 5.763 2.441 6.386 8.866 6.679 4.822.22 5.236.424 4.695 2.31-1.954 6.815-1.746 8.054.601 3.568l2.354-4.5 7.562-.289c13.569-.518 21.933 5.922 21.936 16.891.004 9.199-7.068 15.356-17.665 15.383-8.945.022-14.388-4.478-16.314-13.487-.936-4.374-.952-4.326-.585 1.752 1.339 22.21 26.102 28.469 33.578 8.487 4.926-13.165 2.385-28.72-6.136-37.56-5.78-5.996-5.58-5.236-1.727-6.579 6.912-2.41 10.709-.054 12.874 7.988 1.484 5.512 3.314 6.914 9.023 6.914h4.904l-.571 3.25-.57 3.25 2.155-3.372 2.155-3.373 8.283.435c14.005.735 20.598 6.218 20.598 17.13 0 8.994-8.657 16.176-18.592 15.426-8.838-.667-14.077-6.142-15.546-16.246-.619-4.255-.687-3.883-.453 2.5.68 18.572 14.8 28.108 27.854 18.812 5.63-4.008 7.239-8.978 7.223-22.312-.015-13.603-.89-16.154-8.507-24.793-4.868-5.523-4.926-5.241 1.257-6.138 5.424-.787 9.137 1.769 10.305 7.095 1.819 8.299 1.869 8.336 11.06 8.336 11.991 0 18.399-2.949 18.399-8.468 0-.879-3.15-6.294-7-12.032-7.839-11.683-8.006-12.314-4.499-16.912 5.763-7.556 9.725-25.813 9.888-45.564.096-11.611-.111-13.521-1.489-13.795-1.381-.274-1.683 1.564-2.21 13.477M252 369c0 .55 1.575 1 3.5 1h3.5v147h-3.5c-3.417 0-3.5.095-3.5 4v4h40v-4c0-3.905-.083-4-3.5-4H285V408.865l2.25.742c6.835 2.254 18.852-.684 23.407-5.721 11.293-12.489 9.057-31.454-4.099-34.767-5.717-1.44-54.558-1.546-54.558-.119m-76 2c0 .55 1.509 1 3.354 1h3.354l.577 51.75c.745 66.757 2.604 81.977 11.761 96.304 7.041 11.016 20.403 12.12 27.243 2.251 9.063-13.079 11.85-35.931 12.11-99.305.201-49.093.187-48.963 5.58-50.843 4.913-1.713 3.567-2.157-6.538-2.157-6.118 0-9.337.36-8.941 1 .34.55 1.481 1 2.536 1s2.716 1.22 3.691 2.712c3.88 5.936 1.964 102.928-2.427 122.788-3.931 17.783-11.696 21.738-15.878 8.086-2.369-7.734-3.331-32.049-3.379-85.336L209 372h3.5c1.925 0 3.5-.45 3.5-1 0-.633-7.333-1-20-1s-20 .367-20 1m109 15c0 17.04.2 17.65 4.739 14.471 2.942-2.061 4.249-7.331 4.255-17.156.008-11.021-.934-13.315-5.469-13.315H285v16m58.593 4.211c-.256 1.259-.703 5.338-.994 9.065-.291 3.727-1.462 8.886-2.602 11.464-4.608 10.417-8.603 12.208-27.292 12.238-18.654.03-18.734.102-18.635 16.727.039 6.487.457 12.695.93 13.795.755 1.756.868 1.656.93-.823.05-2.029 1.265-3.858 4.317-6.5 14.009-12.13 15.837-16.012 9.025-19.177-5.302-2.463-3.849-3 8.123-3 25.796 0 41.965-11.816 43.789-32l.316-3.5-8.721-.289c-8.392-.277-8.739-.201-9.186 2M340 438.893V443h-26.864l-2.021 2.839c-1.112 1.562-2.889 5.049-3.949 7.75-2.224 5.671-3.968 6.4-8.16 3.415-3.697-2.632-4.022-.948-.371 1.923 2.459 1.935 3.923 2.073 22 2.073 21.534 0 19.388-.676 19.814 6.242.059.958.445 1.761.856 1.785 1.28.074 22.609-16.469 22.598-17.527-.01-.98-19.539-15.039-22.433-16.15-1.146-.44-1.47.34-1.47 3.543m32.923 49.03c-2.795 2.795-2.922 3.309-2.893 11.75.023 6.654.289 8.383 1.081 7.023.94-1.617 2.014-1.734 10.332-1.124 6.898.507 9.478.365 10.045-.552.596-.964.94-.945 1.58.089 1.479 2.394 2.933-3.798 2.917-12.424-.013-7.24-.16-7.897-1.275-5.694-1.755 3.47-4.009 3.597-10.684.601-7.221-3.24-7.541-3.231-11.103.331m-63.146-.366c2.74 1.919 2.78 3.431.223 8.443-2.391 4.687-2.655 6.789-.643 5.119.771-.64 2.69-.86 4.445-.509 2.725.545 3.33.222 5.14-2.746 4.316-7.08 1.539-11.864-6.887-11.864-4.358 0-4.43.049-2.278 1.557m18.329 1.344c-3.667 3.426-4.173 10.4-1.626 22.421 4.87 22.981 16.771 16.784 18.257-9.507l.547-9.685-3.065-3.065c-4.213-4.212-9.711-4.276-14.113-.164m26.394-2.25c-1.924.404-1.989 1.106-1.706 18.385.196 11.997-.053 17.964-.75 17.964-.574 0-1.044.45-1.044 1 0 .564 2.833 1 6.5 1s6.5-.436 6.5-1c0-.55-.44-1-.977-1-.591 0-1.086-7.217-1.25-18.25l-.273-18.25-2.5-.134c-1.375-.074-3.4.054-4.5.285m-34.913 15.859c-.647 2.579-.857 2.647-7.1 2.324l-6.433-.334-1.027 4.799c-1.017 4.754-1.332 15.588-.369 12.701.275-.825.722-2.175.992-3 .356-1.083 1.541-.273 4.268 2.916 6.089 7.121 9.384 3.456 10.979-12.207.818-8.035.012-12.465-1.31-7.199m69.892 5.504c-1.617 1.061-4.115 2.186-5.551 2.502C373.923 512.713 370.981 526 380.5 526c4.43 0 5.631-1.765 4.889-7.18-.592-4.318-.466-4.599 3.672-8.14 4.747-4.063 4.999-5.671.418-2.666m-286.812 53.653c-.367.366-.667 3.516-.667 7V575h3.845c7.771 0 10.275-9.269 3.471-12.85-2.424-1.276-5.624-1.508-6.649-.483m50.788 1.788c-5.792 5.791-.57 13.427 7.695 11.254 3.666-.964 5.357-5.827 3.366-9.678-2.447-4.733-7.224-5.414-11.061-1.576M114 599c0 4.667.417 8 1 8 .55 0 1-.9 1-2s.659-2 1.465-2c.805 0 1.946.9 2.535 2 .589 1.1 1.733 2 2.544 2 1.216 0 1.258-.344.24-1.975-.974-1.559-.976-2.233-.009-3.2 3.815-3.815-.069-10.825-5.998-10.825H114v8m79.344.006c-2.384 6.038-2.812 7.994-1.75 7.994.773 0 1.406-.45 1.406-1 0-1.405 7.348-1.252 8.783.183.651.651 1.399.969 1.661.706.601-.601-5.49-15.891-6.327-15.883-.339.004-2.037 3.604-3.773 8m28.974-.256c-3.052 7.732-3.34 9.672-1.101 7.433.651-.65 2.803-1.183 4.783-1.183 1.98 0 4.132.533 4.783 1.183.651.651 1.367.989 1.591.75.521-.553-5.685-15.907-6.435-15.922-.308-.006-1.938 3.476-3.621 7.739" fill="#d3d3d3" fill-rule="evenodd"/></svg>