<svg xmlns="http://www.w3.org/2000/svg" width="500" height="1342"><path d="M87.489 81.616c-1.644 1.325-4.715 2.692-6.825 3.038-2.109.346-4.069 1.238-4.354 1.982-.286.744-.884 1.127-1.33.852-.446-.276-2.151.627-3.79 2.005C69.552 90.872 67.735 92 67.153 92c-1.031 0-3.407 4.434-4.572 8.534-.318 1.118-1.831 2.773-3.363 3.678-2.182 1.289-2.773 2.364-2.732 4.966.029 1.827-.531 5.102-1.245 7.277-.713 2.176-1.074 4.538-.801 5.25.274.712.004 1.295-.599 1.295-.727 0-.872 1.406-.43 4.167.467 2.923.281 4.411-.622 4.985-.97.615-.882.821.354.833.904.008 1.924.747 2.267 1.642.737 1.92-1.029 4.373-3.147 4.373-1.281 0-1.258.359.163 2.527.911 1.39 2.554 6.228 3.652 10.75 2.378 9.793 3.654 13.326 6.097 16.877 1.004 1.46 1.825 3.269 1.825 4.02 0 1.249 1.485 4.269 7.695 15.653 1.207 2.213 3.795 5.67 5.75 7.684C79.4 198.524 81 200.583 81 201.086c0 2.134.221 2.452 2.229 3.194 1.161.43 2.499.392 2.973-.082 1.031-1.031-.065-4.401-1.202-3.698-.435.269-1.068-.234-1.407-1.117-.45-1.174-.187-1.441.977-.994.877.336 2.007.611 2.512.611.505 0 .865.338.8.75-.396 2.505.356 3.301 2.868 3.038 1.761-.184 2.662.155 2.506.944-.134.678.899 1.52 2.296 1.871 1.398.35 2.317.862 2.042 1.136-.812.812 2.305 3.441 3.329 2.808.516-.319 1.221-.122 1.567.437.345.559.082 1.016-.586 1.016-.749 0-.512.776.617 2.024 1.021 1.127 2.098 1.593 2.432 1.052.339-.549 1.186-.608 1.952-.135.743.459 1.042 1.336.664 1.947-.378.612-.241 1.112.305 1.112.545 0 1.281.914 1.636 2.031.354 1.117 1.783 3.087 3.174 4.377 3.294 3.054 2.47 7.046-1.306 6.324-1.334-.255-2.667-.074-2.961.402-.294.476.421.866 1.59.866 1.168 0 2.995.466 4.059 1.035 1.333.714 1.934.714 1.934 0 0-.569.477-1.035 1.059-1.035s.8.419.484.931c-.317.512-.118 1.213.441 1.559.559.345 1.016.151 1.016-.431s.9-1.059 2-1.059 2 .502 2 1.117c0 .658 1.049.916 2.558.627 1.883-.36 2.419-.127 2.031.884-.313.816.132 1.372 1.097 1.372 1.462 0 1.452.19-.104 1.909-1.639 1.812-1.635 1.962.087 2.925.998.559 1.512 1.318 1.144 1.687-.369.369.197 2.216 1.258 4.105 1.061 1.889 1.929 4.173 1.929 5.076 0 .902.769 2.49 1.708 3.528 1.853 2.047.802 5.27-1.719 5.27-.711 0-2.169 1.688-3.239 3.75-1.07 2.063-2.604 3.75-3.407 3.75-.804 0-1.212.403-.908.895.305.493-.183 1.178-1.084 1.524-.9.345-1.361.904-1.024 1.242.338.337-.337 1.948-1.498 3.58-1.743 2.446-1.869 3.12-.721 3.847 1.057.669.878.885-.741.897-1.919.013-3.359 2.12-3.779 5.528-.069.558-1.296 2.583-2.727 4.5-3.013 4.04-3.785 10.217-2.333 18.677.624 3.634 3.472 7.084 3.472 4.205 0-1.323 3.078-.74 3.187.605.045.55.921 1.588 1.947 2.307 1.476 1.034 1.866 2.587 1.866 7.441 0 5.608.126 5.968 1.468 4.193 1.137-1.503 1.491-1.603 1.569-.441.055.825.268 2.85.473 4.5l.371 3-1.83-2.225c-1.776-2.158-1.846-2.165-2.347-.25-.284 1.086-.109 1.975.39 1.975.498 0 .906.661.906 1.469 0 .894.586 1.243 1.5.893.974-.374 1.5.025 1.5 1.138s.526 1.512 1.5 1.138c.825-.316 1.5-.139 1.5.393 0 .533-.45.969-1 .969s-1 .723-1 1.607c0 1.018.55 1.396 1.5 1.031.825-.316 1.5-.139 1.5.393 0 .533-.9.969-2 .969-1.157 0-2 .667-2 1.582 0 1.331.554 1.239 3.5-.582 1.925-1.19 3.5-1.676 3.5-1.082 0 .595-.787 1.089-1.75 1.097-1.496.013-1.532.157-.25.985.825.533 1.01.976.411.985-.6.008-1.612 1.161-2.25 2.562-1.515 3.324-1.428 4.389.184 2.268 1.075-1.414 1.674-1.491 3.718-.477 2.883 1.43 4.064 6.662 1.503 6.662-.861 0-1.566.675-1.566 1.5s-.477 1.5-1.059 1.5-.767.472-.411 1.049c.441.713 1.113.662 2.101-.158 2.209-1.833 3.879.288 2.401 3.05-1.13 2.11-5.026 2.099-5.847-.017-.413-1.067-3.185.013-3.185 1.242 0 .524.45.674 1 .334s1-.141 1 .441-.466 1.059-1.035 1.059c-.691 0-.668.686.069 2.064.815 1.522.801 2.43-.051 3.456-.635.766-.865 1.862-.51 2.436.355.574-.106 1.044-1.023 1.044-1.318 0-1.583-.735-1.26-3.5.225-1.925.022-3.5-.45-3.5-.472 0-.58-.45-.24-1 .34-.55.136-1-.453-1-.686 0-.857 1.525-.475 4.25.852 6.086 1.269 7.025 2.854 6.417.775-.297 1.657.106 1.96.896.303.79.115 1.437-.417 1.437-.533 0-.969.675-.969 1.5s.675 1.5 1.5 1.5c.924 0 1.5.938 1.5 2.441 0 1.343.45 2.719 1 3.059.55.34 1 1.293 1 2.118 0 .831-.488 1.199-1.093.824-.601-.371-3.417-.754-6.258-.85-2.84-.096-5.71-.512-6.378-.924-.667-.413-6.511-.996-12.987-1.297-7.29-.339-12.057-.99-12.514-1.709-.417-.655-.746-.716-.755-.139-.008.562-1.815 1.022-4.015 1.022-2.2 0-4-.347-4-.772 0-.425-.675-.773-1.5-.773s-1.5-.45-1.5-1-.338-.947-.75-.882c-3.002.474-8.265-.285-7.75-1.118.34-.55-.282-1-1.382-1-1.1 0-2.283-.457-2.628-1.016-.346-.559-.981-.799-1.412-.532-.431.266-1.637-.162-2.681-.952-2.562-1.94-4.158-1.855-4.708.25-.435 1.667-.463 1.667-.573 0-.12-1.813-2.116-2.52-2.116-.75 0 1.577-2.999 1.165-3.638-.5-.317-.825-1.203-1.5-1.969-1.5S50 378.675 50 379.5c0 .933-.944 1.5-2.5 1.5-1.375 0-2.5-.477-2.5-1.059s-.412-.805-.915-.494c-.503.311-1.087.048-1.297-.584-.287-.861-.936-.854-2.586.029-1.588.85-2.756.882-4.192.113-1.505-.805-2.56-.691-4.33.469-1.287.843-2.641 1.231-3.01.863-.368-.369-.67-.156-.67.472 0 .804-.738.861-2.501.191-2.86-1.088-18.185.668-20.313 2.327-.748.583-1.074 1.982-.757 3.245.64 2.551-2.24 4.329-3.584 2.212-.448-.706-.821 20.192-.83 46.441L0 482.95l2.614-.993c2.229-.848 2.522-.754 1.989.636-.437 1.138-.197 1.465.794 1.085.923-.354 1.643.345 2.059 2.001.604 2.409.738 2.456 2.492.868 1.217-1.102 2.079-1.312 2.512-.612.362.586.294 1.079-.151 1.095-.445.017.032.519 1.06 1.117 1.388.806 2.066.767 2.633-.151.591-.956.961-.915 1.631.177.583.95 1.85 1.224 3.867.834l3-.579-3.325-1.188c-4.313-1.541-3.289-3.281 1.32-2.241 2.109.476 3.505.411 3.505-.163 0-.525.39-.713.866-.419 1.101.68 4.368-2.85 3.47-3.748-.368-.368-.171-.669.438-.669.61 0 1.386.45 1.726 1 .34.55 1.068 1 1.618 1s.754-.399.452-.886c-.301-.488.375-1.128 1.502-1.423 1.25-.327 2.263.019 2.596.887.3.782.934 1.422 1.408 1.422.473 0 .602-.675.286-1.5-.442-1.151.211-1.5 2.809-1.5 3.356 0 6.747-2.586 6.899-5.261.039-.682.496-.339 1.016.761.754 1.595.828 1.408.366-.925-.462-2.337-.314-2.706.735-1.838C53.715 473.001 64 475.039 64 474.078c0-.357.867-.649 1.927-.649 1.059 0 1.708.353 1.441.785-.468.757 1.782 1.198 4.382.861.688-.09 1.25.334 1.25.94 0 .607-.375.871-.833.588-.459-.283-.834.121-.834.898s.6 1.643 1.334 1.925c.733.281 1.333.075 1.333-.457 0-.533.436-.969.969-.969.532 0 .681.749.33 1.664-.407 1.059-.244 1.42.446.994.596-.369 1.266-.124 1.489.543.27.812 1.176.495 2.737-.959 2.431-2.265 4.951-2.058 3.036.25-.801.964-.747 1.451.201 1.832 1.353.542-2.619 1.072-5.204.694-1.158-.169-1.066.256.405 1.882 1.048 1.157 1.383 2.1.746 2.1-.635 0-1.155.419-1.155.93 0 1.293 6.149-.562 7.164-2.162.609-.958.809-.893.821.268.008.844.802 1.588 1.765 1.653.963.064 2.763.438 4 .831 1.962.622 2.265.347 2.366-2.153.068-1.689.304-2.148.573-1.117.252.963.875 1.75 1.384 1.75.51 0 .927.89.927 1.979 0 1.749.29 1.846 2.511.834l2.511-1.144-2.033-1.894c-1.118-1.042-1.716-2.408-1.328-3.035.492-.797.846-.704 1.172.309.724 2.251 2.456 2.956 4.037 1.644 1.677-1.392 2.098-1.332 3.286.472.706 1.07 1.085.988 1.912-.415.567-.962 1.936-1.75 3.041-1.75s1.76.403 1.456.895c-.305.493.156 1.168 1.023 1.5 2.252.864 2.417.781 1.774-.895-.317-.825-.051-1.5.59-1.5s.959.337.707.75c-.253.412 1.295.772 3.439.799 4.622.057 6.678 1.562 4.55 3.328-1.127.935-1.759.869-2.935-.307-1.331-1.331-1.556-1.279-2.012.466-.283 1.08-.139 1.964.32 1.964.458 0 .656 1.398.44 3.108-.353 2.793-.169 3.047 1.823 2.513 1.219-.326 2.539-.6 2.935-.607.395-.008.472-.656.171-1.441-.4-1.04.012-1.281 1.519-.887 2.132.558 4.085-2.078 2.578-3.479-.419-.389-.963-.142-1.209.549-.247.691-.882.989-1.412.661-.594-.367-.517-1.132.199-1.995.639-.77 1.547-1.162 2.019-.87.472.291 1.162-.685 1.535-2.169.629-2.507.771-2.571 1.992-.9 1.063 1.454 2.174 1.681 5.791 1.185 4.54-.622 11.289 1.499 8.419 2.646-.874.349-.729.555.429.607.963.043 1.75.754 1.75 1.579s.399 1.5.887 1.5c.487 0 1.084 1.35 1.326 3s.097 3-.322 3c-.42 0 .089 3.075 1.13 6.834 1.042 3.759 2.005 8.484 2.141 10.5.136 2.016.631 3.666 1.101 3.666s.596.419.28.931c-.317.512-.118 1.213.441 1.559.559.345 1.016 1.951 1.016 3.569 0 1.618.353 2.941.785 2.941.432 0 1.32 2.587 1.975 5.75 1.837 8.876 2.298 10.607 3.124 11.719.421.567.647 2.268.501 3.781-.186 1.929.197 2.75 1.282 2.75.982 0 1.331.562.956 1.54-.409 1.067-.064 1.451 1.126 1.25 1.115-.188 1.763.41 1.85 1.71.167 2.498 4.264 9.5 5.559 9.5.528 0 .682.45.342 1s-.172 1 .374 1c.545 0 1.312 1.011 1.704 2.246.833 2.625 3.493 4.828 4.831 4.001.516-.319.646.167.292 1.089-.355.925-.154 1.664.453 1.664.729 0 .685.489-.131 1.472-1.234 1.487.961 5.211 2.289 3.883.302-.302 1.139.394 1.859 1.548.721 1.153 1.952 2.097 2.736 2.097.785 0 1.142-.284.795-.631-.347-.348-.177-1.482.379-2.521 1.477-2.759-.029-4.628-1.812-2.249-1.353 1.804-1.41 1.773-1.098-.599.256-1.947.827-2.431 2.579-2.187 1.238.172 2.25-.166 2.25-.75 0-.585 1.012-1.115 2.25-1.179 1.693-.087 1.817-.229.5-.573-2.138-.559-2.327-2.311-.25-2.311.825 0 1.5-.45 1.5-1s-.482-1-1.071-1c-2.212 0-4.087-2.896-3.061-4.728 1.574-2.814 7.44-2.578 8.824.355.649 1.375.738 2.607.211 2.933-.529.327-.542 1.268-.033 2.251.481.929.698 2.779.482 4.112-.389 2.4-.372 2.405 1.705.526 1.169-1.058 1.617-2.058 1.013-2.259-.595-.198-.816-.792-.49-1.319.326-.527-.009-1.698-.744-2.602-1.161-1.428-1.1-1.555.466-.968 1.082.406 1.558.281 1.191-.312-1.034-1.673 2.176-1.093 3.627.655 1.221 1.472 1.103 1.565-1.128.888-2.038-.619-2.264-.518-1.242.556.688.721 1.25 2.476 1.25 3.899 0 1.848.557 2.629 1.95 2.734 1.691.128 1.821-.193.979-2.409-1.022-2.686.434-5.824 2.196-4.735.494.306 1.174-.824 1.512-2.511.337-1.686 1.209-3.066 1.938-3.066.729 0 1.829-.788 2.444-1.75.973-1.522 1.053-1.443.616.604-.438 2.053-.188 2.294 1.955 1.884 1.352-.258 2.75.003 3.106.58.382.617.961.253 1.406-.884.63-1.608.769-1.461.828.875.038 1.545-.327 2.564-.812 2.264-1.856-1.147-.5 5.674 1.405 7.067 1.087.795 1.889 1.764 1.781 2.153-.107.389.915.621 2.273.516 1.358-.106 2.215.218 1.906.719-.319.515 1.226.733 3.552.502 4.998-.498 6.955.153 6.997 2.327.028 1.48.162 1.471 1.349-.091.724-.954 1.513-1.539 1.753-1.299.239.24 2.67-.177 5.401-.926 2.731-.749 4.302-1.402 3.492-1.452-1.008-.061-.758-.589.793-1.676 1.663-1.164 2.614-1.298 3.573-.502 1.593 1.323 10.861-.172 11.417-1.841.35-1.05 1.355-2.103 4.519-4.732 1.759-1.462 10.884-1.417 12.015.06.516.673.625.421.282-.648-.898-2.792.682-2.018 3.079 1.507 1.342 1.973 2.58 5.985 3.163 10.243 1.169 8.533 3.867 20.366 5.191 22.763.536.97 1.225 4.57 1.532 8 .307 3.43 1.176 9.162 1.931 12.737.756 3.575 1.654 9.2 1.996 12.5.343 3.3 1.08 7.8 1.64 10 2.785 10.951 3.22 13.653 2.302 14.311-1.716 1.231-1.522 3.206.53 5.408 2.171 2.331 2.696 6.386.904 6.983-1.679.56.647 7.943 3.081 9.782 1.105.834 2.109 2.743 2.233 4.242.123 1.499.744 2.925 1.379 3.169.636.244 1.474 1.717 1.862 3.274.389 1.557 1.391 3.59 2.227 4.518.836.928 1.224 2.165.863 2.75s.009 1.063.823 1.063c.83 0 1.768 1.315 2.138 3 .362 1.65 1.1 3 1.638 3 .539 0 .702.45.362 1-.34.55-.029 1.012.691 1.026.72.014 2.134 1.814 3.141 4 1.057 2.292 2.539 3.98 3.5 3.989 1.444.014 1.467.148.168 1-1.333.876-1.333 1.096 0 1.985 1.017.678 1.152 1.241.418 1.75-2.145 1.487-1.102 12.083 1.359 13.806 3.101 2.172 2.771 3.368-.805 2.915-2.804-.355-2.996-.182-2.583 2.323.246 1.488.484 3.549.529 4.578.064 1.472.376 1.629 1.455.733 1.384-1.148 4.627-.541 4.627.867 0 .417-.852 1.841-1.893 3.165-1.668 2.121-1.738 2.761-.581 5.385.721 1.638 1.348 2.43 1.393 1.759.044-.67.689-.985 1.433-.7 2.161.83.785 4.857-3.048 8.921-2.602 2.758-3.504 4.598-3.504 7.144 0 3.381-.025 3.401-1.767 1.392-2.162-2.493-2.754-2.544-3.344-.288-.251.962-.509.363-.573-1.333-.176-4.673-1.253-4.881-4.688-.905-1.722 1.992-3.984 3.747-5.029 3.9-1.044.153-1.915.686-1.934 1.183-.068 1.718-2.539 5.405-3.623 5.405-.713 0-.658-.516.158-1.5 1.004-1.21.98-1.486-.128-1.43-1.969.101-5.628 1.776-4.063 1.86.726.039.992.583.597 1.221-1.011 1.637-3.419-1.873-2.743-3.998.453-1.424.375-1.445-.563-.153-.806 1.11-.961-.528-.597-6.307.361-5.739.186-7.619-.66-7.096-.728.45-.879.271-.411-.486.883-1.43-1.109-4.111-3.054-4.111-.758 0-1.307.338-1.219.75.324 1.534-1.459 4.34-3.428 5.394-1.705.912-1.934.827-1.414-.528.341-.889.2-1.616-.313-1.616-1.255 0-3.493 4.161-3.147 5.85.152.743-.203 1.054-.79.691-.587-.362-1.067-1.788-1.067-3.167 0-2.774-3.346-2.628-5.623.244-1.569 1.979-4.28.728-3.65-1.683.282-1.077.001-1.935-.633-1.935-.71 0-.501-.975.554-2.585 2.102-3.208.571-4.651-4.398-4.147-3.154.321-3.25.219-3.25-3.469 0-2.089-.45-3.799-1-3.799s-1-1.07-1-2.378c0-1.307-.675-2.937-1.5-3.622s-1.5-1.752-1.5-2.372c0-.621-1.355-1.128-3.011-1.128-1.998 0-2.85.421-2.531 1.25.263.688.043 1.25-.489 1.25-.533 0-.969-.675-.969-1.5s-.285-1.5-.633-1.5c-.908 0-4.367 4.134-4.367 5.22 0 .503-.862.641-1.916.307-1.054-.335-2.205-.14-2.559.432-1.014 1.641-2.245 1.221-2.815-.959-.287-1.1-1.164-2-1.947-2-.784 0-2.019-1.11-2.745-2.466s-1.702-2.23-2.169-1.941c-.467.289-.849-.194-.849-1.074 0-.879-.9-3.363-2-5.519-2.367-4.64-2.601-10.256-.5-12 .825-.685 1.514-.852 1.53-.372.017.479.393.197.835-.628 1.693-3.158.096-11.061-2.471-12.23-1.317-.6-2.394-1.694-2.394-2.431 0-.736-.661-1.339-1.469-1.339-.847 0-1.241-.592-.931-1.399.628-1.637-1.179-3.092-2.063-1.661-.331.535-1.242.727-2.025.426-.782-.3-2.589.62-4.013 2.044-3.103 3.103-3.951 3.304-2.499.59.828-1.546.76-2-.296-2-.751 0-1.968 1.125-2.704 2.5-1.801 3.366-4.395 3.348-3.75-.025.402-2.105.172-2.426-1.384-1.932-1.291.409-1.866.098-1.866-1.011 0-1.292-.387-1.395-2-.532-1.1.589-2 .774-2 .413 0-.362-.604-.157-1.342.456-1.567 1.3-2.658.512-2.658-1.919 0-1.033-.987-1.905-2.476-2.19-2.88-.551-3.524-.111-3.524 2.407 0 2.145-1.228 2.321-4.074.583-1.743-1.064-2.262-.961-3.487.691-.791 1.068-1.439 1.419-1.439.782 0-.638-.675-.901-1.5-.585-.825.317-1.5 1.203-1.5 1.969 0 2.634-2.051 1.39-2.65-1.607-.33-1.65-.978-3-1.44-3-1.126 0-3.227 4.017-2.488 4.756.322.321-.12 1.66-.981 2.975-.862 1.315-1.38 2.926-1.151 3.58.228.654-.224 3.372-1.006 6.039-.781 2.668-1.185 5.466-.896 6.219.289.753-.127 2.621-.925 4.15-1.695 3.249-1.873 5.281-.463 5.281.55 0 1 .702 1 1.559s-.435 1.29-.967.961c-.599-.37-.913 2.84-.824 8.441.079 4.972.514 9.039.967 9.039.453 0 .824.477.824 1.059s-.418.801-.928.485c-1.25-.772-1.805 1.361-3.084 11.867-.869 7.139-.826 9.075.214 9.735.961.61.836.827-.483.839-.98.008-2.041.69-2.357 1.515-.317.825-1.155 1.5-1.862 1.5-1.937 0-2.577 2.691-.959 4.034 1.228 1.019 1.219 1.47-.059 3.296-.815 1.163-1.441 3.252-1.392 4.643.081 2.262.189 2.187 1.029-.723 1.232-4.266 2.293-4.178 1.594.132-.306 1.887-.062 3.869.552 4.483.606.606.832 1.372.502 1.702-.33.33-1.538-.338-2.684-1.484-1.307-1.307-2.083-1.599-2.083-.783 0 .715.559 1.859 1.242 2.542.988.988.938 1.436-.25 2.2-1.257.807-1.274 1.098-.107 1.851.824.53 1.179 1.848.875 3.25-.281 1.296-.162 3.482.265 4.857.765 2.467.779 2.46.994-.5l.218-3 .673 3c.387 1.722.23 3.352-.368 3.826-.703.558-.636.991.208 1.333.688.279 1.25 1.172 1.25 1.983 0 .812-.45 1.198-1 .858-1.59-.982-1.159 1.198.58 2.938.87.869 1.355 2.138 1.079 2.821-.381.944-.52.927-.58-.068-.138-2.287-2.079-.175-2.079 2.261 0 1.284-.739 2.618-1.643 2.965-.904.346-1.358.916-1.009 1.265.982.981-1.384 3.318-3.359 3.318-1.244 0-1.971 1.09-2.457 3.681-.455 2.423-.963 3.239-1.489 2.389-.439-.71-.556-2.217-.26-3.349.421-1.61.176-1.919-1.122-1.421-1.101.422-1.661.122-1.661-.89 0-.841-.45-1.25-1-.91-.55.34-1 .141-1-.441s-.45-1.059-1-1.059-1 .675-1 1.5.506 1.388 1.125 1.25c.619-.137 1.294.2 1.5.75.206.55-.692 1-1.997 1-3.736 0-4.628-1.36-4.628-7.059 0-2.391-.371-3.33-1.13-2.861-.682.422-.949.156-.673-.671.703-2.108-1.844-9.444-3.171-9.134-.786.184-.942-.464-.47-1.952.389-1.225.623-6.974.52-12.775l-.205-11.548c-.009-.55.266-5.275.611-10.5.572-8.643.491-9.32-.895-7.5-1.982 2.602-2.005 1.209-.043-2.586.85-1.642 1.484-4.882 1.41-7.2-.164-5.117.933-12.573 2.205-14.985.513-.974.661-2.211.328-2.75-.333-.538-.128-.979.454-.979.582 0 1.052-.788 1.044-1.75-.013-1.496-.157-1.532-.985-.25-.758 1.173-.973.914-.985-1.191-.008-1.48.361-2.924.821-3.208.46-.284.899-2.174.975-4.2.076-2.026.357-3.903.624-4.17.267-.267-.171-2.058-.975-3.98-1.729-4.138-1.781-4.568-.46-3.751 1.006.622 1.107.12 1.361-6.749.152-4.112-1.589-5.062-3.326-1.817-1.306 2.441-1.319 3.359-.035 2.566.55-.34 1 .084 1 .941s-.508 1.559-1.129 1.559c-.777 0-.921 1.563-.464 5.012.689 5.194-.168 6.06-3.205 3.238-1.619-1.504-3.853-1.623-4.702-.25-.34.55-1.041 1-1.559 1-1.362 0-1.157-5.384.259-6.8.66-.66.772-1.234.25-1.277-.523-.042-1.737-.267-2.7-.5-.963-.232-2.513-.575-3.446-.76-.932-.186-1.87-.861-2.083-1.5-.213-.64-.974-1.163-1.69-1.163-1.658 0-6.668-2.575-6.59-3.387.208-2.167-.209-2.613-2.441-2.613-2.479 0-3.475 1.508-1.443 2.186.582.194.759 1.131.393 2.083-.777 2.026-6.015 2.397-6.788.481-.338-.837-.53-.743-.583.286-.043.844-.866 1.588-1.829 1.653-.963.064-2.875.417-4.25.783-2.235.595-2.3.539-.612-.53 1.743-1.104 1.607-1.326-1.766-2.886-2.01-.929-3.31-2.069-2.888-2.533.421-.464.127-.473-.654-.019-1.058.614-1.257.4-.781-.84.351-.915.202-1.664-.33-1.664-.533 0-.969.477-.969 1.059s-.519.738-1.154.346c-.635-.393-2.25-.834-3.589-.981-2.119-.233-2.356.047-1.827 2.154.346 1.376.168 2.422-.411 2.422-.56 0-1.019-.735-1.019-1.633s-.787-2.36-1.75-3.25C80.226 705.247 79.544 703 81 703c.55 0 1-.45 1-1s-.702-1-1.559-1c-.904 0-1.266.475-.861 1.13.424.685.152.947-.691.666-.764-.254-1.389-1.1-1.389-1.879 0-1.43-1.368-2.873-2.75-2.902-.412-.008-.697.322-.632.735.365 2.31-.397 2.955-3.118 2.638-3.372-.392-3.901.845-1.2 2.805 1.089.79 1.893 2.808 2.035 5.103l.234 3.795-2.785-1.782c-4.261-2.729-5.531-4.224-4.925-5.803.305-.793.093-1.727-.471-2.075-.563-.348-.783-1.263-.488-2.032.296-.77.075-1.399-.49-1.399-.566 0-.75-.45-.41-1s1.524-1 2.63-1c1.861 0 1.89-.123.382-1.63-1.507-1.508-1.848-1.422-4.513 1.131-1.941 1.86-3.556 2.587-4.941 2.224-1.859-.486-2.528.287-2.179 2.518.157 1.003-2.877.435-5.563-1.042-3.176-1.746-4.885-1.592-3.316.299 1.913 2.306-.616 1.884-3-.5-2.243-2.243-4.983-2.652-5.032-.75-.019.744-.588.517-1.404-.56-.934-1.231-1.595-1.449-2.069-.682-.384.621-1.312.892-2.064.604-.752-.289-1.633-.094-1.958.432-.325.526.365.956 1.534.956 5.462 0 8.067 3.926 4.783 7.21-1.397 1.397-2.305 1.744-2.561.978-.218-.654-1.408-1.188-2.646-1.188-3.326 0-3.672-.911-1.261-3.322 2.113-2.113 2.116-2.162.167-2.532-1.094-.208-2.241-.777-2.55-1.265-.309-.488-3.183-1.073-6.389-1.299-3.355-.237-6.192-.978-6.688-1.747-.708-1.096-1.032-1.071-1.81.139-.673 1.048-.384 2 1 3.289 1.072.998 1.934 2.36 1.916 3.026-.017.666-.692.337-1.5-.73-1.453-1.922-1.469-1.922-1.538 0-.07 1.915-.081 1.915-.828.007-.984-2.513-1.796-1.003-1.928 3.59-.061 2.106.515 4.171 1.36 4.872 2.201 1.827 1.77 2.753-1.034 2.217-1.52-.291-2.5-.017-2.5.697 0 .647.45.898 1 .558.55-.34 1 .084 1 .941S8.298 718 7.441 718s-1.337.359-1.066.798c1.021 1.651-.839 3.019-2.164 1.591-.83-.893-.898-1.389-.191-1.389.604 0 .808-.47.453-1.044-.355-.574-.044-1.785.691-2.692 1.127-1.39 1.116-1.515-.069-.801-.953.574-1.175.475-.69-.308.438-.709.015-1.161-1.096-1.17-1.504-.013-1.561-.172-.338-.946.809-.512 1.2-1.201.869-1.532-1.699-1.699-3.676 2.719-3.241 7.243.252 2.613.439 5.425.416 6.25-.14 5.123.17 7.496 1.05 8.04 1.636 1.011.758 30.51-.959 32.246-.428.432-.38 2.907.107 5.5.486 2.593 1.049 7.414 1.251 10.714.201 3.3.682 7.012 1.068 8.25.439 1.409.284 2.25-.415 2.25-.615 0-1.117.45-1.117 1s.675 1 1.5 1 1.5.45 1.5 1-.45 1-1 1-1 1.117-1 2.481c0 1.365-.536 5.609-1.192 9.432-.938 5.469-.927 7.529.048 9.671.682 1.496.859 3.101.394 3.566-.465.465-.455 4.334.022 8.598.477 4.263 1.023 16.077 1.213 26.252.19 10.175.482 22.55.649 27.5.29 8.595-.829 27.198-1.724 28.645-.853 1.38-1.111 32.922-.274 33.439.475.294.864-.618.864-2.025S3.459 940 4.019 940c.561 0 .777 1.012.48 2.25-.827 3.451-1.409 10.108-2.028 23.171-.31 6.556-.775 12.262-1.034 12.681-.258.418-.005 1.047.563 1.398s.783 1.042.477 1.536c-.305.494-.587 4.742-.626 9.44-.039 4.698-.36 8.721-.714 8.94-1.248.771-.614 25.925.664 26.351 1.67.557 1.695 24.901.027 25.457-1.407.469-2.322 60.071-.96 62.505.975 1.741 6.132-4.139 6.132-6.992 0-3.271 1.144-4.862 2.617-3.64 1.04.863 1.383.863 1.383.001 0-.631 1.089-1.562 2.421-2.068 1.856-.706 2.302-1.458 1.913-3.225-.387-1.76-.268-1.965.505-.866.557.792 2.685 1.524 4.729 1.628 2.418.124 4.073.828 4.739 2.017.99 1.77 1.043 1.77 1.664-.001.591-1.686.767-1.702 2.264-.206.892.893 3.187 1.623 5.1 1.623 3.079 0 3.424-.258 3.009-2.25-.461-2.212-.447-2.215.843-.204.73 1.137 2.09 1.882 3.063 1.676.962-.203 1.75.162 1.75.812 0 .649.646.932 1.436.629.79-.303 2.586.353 3.991 1.458 2.745 2.159 4.564 1.791 4.588-.93.011-1.154.257-1.312.775-.497.549.864 1.9.938 4.879.269 2.266-.509 6.305-1.087 8.976-1.284 3.011-.222 4.76-.799 4.605-1.518-.295-1.369 3.373-1.58 4.2-.242.324.524 1.796.306 3.426-.507 1.615-.806 6.177-1.489 10.491-1.571 4.198-.08 7.633-.557 7.633-1.06 0-.504.902-.629 2.005-.279 1.252.397 2.201.126 2.526-.722.729-1.9 4.579-1.99 6.607-.155 1.328 1.202 2.147 1.293 3.779.42 2.372-1.27 2.836-2.548.615-1.696-2.07.795-2.592-.546-1.039-2.67.846-1.157 1.552-1.415 1.98-.723.366.592 1.084.818 1.596.501.512-.316.931-.136.931.401 0 .536-.562 1.202-1.25 1.48-.747.301-.545.536.5.583.963.043 1.75-.596 1.75-1.421 0-.825.419-1.5.931-1.5 3.567 0 7.866-4.708 8.495-9.304.573-4.188.909-4.725 2.616-4.183 1.162.369 1.958.159 1.958-.517 0-.668.649-.489 1.571.433.865.864 2.665 1.571 4 1.571 1.762 0 2.429.549 2.429 2 0 1.1.45 2 1 2s1 .675 1 1.5.446 1.5.991 1.5c.546 0 2.233 1.281 3.75 2.846 2.549 2.631 2.987 2.752 5.758 1.599 2.057-.857 3.578-.939 4.841-.263 1.262.675 2.786.594 4.843-.258 3.298-1.366 4.771-.303 4.802 3.466.032 3.96 6.361 6.218 7.306 2.606.32-1.225 1.079-1.791 1.95-1.457 1.675.643 2.129-6.223.544-8.237-3.21-4.078-.808-11.079 3.348-9.76 1.3.413 2.551-.143 3.862-1.716 1.066-1.279 1.953-1.778 1.972-1.107.085 3.129 5.942-1.72 6.001-4.969.045-2.456 3.032-2.206 3.032.254 0 2.916 3.639 9.379 4.304 7.645.315-.819 3.347-1.874 7.365-2.563 13.324-2.285 12.329-2.341 12.346.689.012 2.127.228 2.396.985 1.225 2.258-3.494.751 1.105-2.068 6.309-2.858 5.278-3.132 7.691-.873 7.691.518 0 .941-.775.941-1.723 0-1.443.243-1.374 1.501.421.826 1.179 2.963 2.491 4.75 2.916 4.002.952 3.918.928 5.749 1.651 4.593 1.812 13.52 1.435 15.5-.655 2.141-2.258 7.5-3.46 7.5-1.682 0 .59-.45 1.072-1 1.072s-1 .502-1 1.117c0 .712.996.876 2.75.452 1.512-.365 4.438-.624 6.5-.576 2.063.049 3.75-.328 3.75-.837 0-1.138 10.136-2.642 15.25-2.262 2.752.204 3.75-.112 3.75-1.186 0-.805.67-2.019 1.489-2.699.819-.68 1.242-1.635.941-2.122-.83-1.343 3.995-1.062 5.37.313.933.933 1.2.933 1.2 0 0-.729 1.535-1.2 3.906-1.2 3.496 0 3.848.224 3.349 2.134-.402 1.536-.166 2.004.843 1.672.771-.255 1.542-1.411 1.713-2.57.223-1.509.932-2.032 2.5-1.844 3.621.435 5.595 1.69 5.019 3.191-.91 2.371 4.25.355 5.97-2.333.968-1.514 3.7-1.665 3.7-.205 0 .657 1.326.797 3.569.376 2.952-.554 3.826-.302 5.057 1.455.818 1.168 2.137 2.124 2.931 2.124 1.905 0 1.865-3.901-.047-4.635-1.738-.667 1.987-6.21 4.24-6.31.688-.03 1.25-.688 1.25-1.461 0-.909.7-1.224 1.976-.89 1.643.43 1.794.858.893 2.541-.804 1.503-1.286 1.698-1.867.758-.567-.918-1.264-.533-2.528 1.396-1.827 2.789-1.523 3.83 1.236 4.235 2.388.35 5.254-1.427 6.368-3.949.818-1.854.881-1.73.412.815-.304 1.65-.651 3.658-.771 4.462-.121.804.612 1.632 1.628 1.842 1.475.303 1.713-.041 1.182-1.712-.526-1.657-.239-2.092 1.379-2.092 2.445 0 1.516 3.555-1.882 7.203-2.287 2.455-1.891 3.76.531 1.75 1.167-.969 2.064-1.046 3.286-.283 2.133 1.332 5.485.128 7.448-2.675 1.458-2.081 1.572-2.093 3.607-.35 1.156.99 2.102 2.524 2.102 3.411 0 1.821 3.113 2.22 4.235.543.452-.677.74-.427.75.651.008.963.413 1.75.898 1.75.486 0 1.129.939 1.429 2.087.344 1.315 1.193 1.962 2.296 1.75.962-.185 1.624-.787 1.471-1.337-.154-.55-.684-.887-1.179-.75-.495.138-.9-.2-.9-.75s.563-1.007 1.25-1.015c.936-.012.915-.228-.084-.861-1.048-.665-.945-.995.481-1.542 1.01-.388 1.972-.225 2.169.367.195.585.766.809 1.269.498.503-.311.915-.088.915.494s-.45 1.059-1 1.059-1 .723-1 1.607c0 1.154.493 1.392 1.75.845 1.441-.627 12.262-2.151 16.969-2.39.67-.034.959-.737.643-1.562-.317-.825-.109-1.5.461-1.5.571 0 1.182-1.008 1.357-2.24.185-1.296 1.163-2.398 2.32-2.615 1.1-.207 2.331-.887 2.735-1.511.547-.845.738-.844.75.003.013.977 3.179 2.009 7.808 2.546.711.083 1.065.746.785 1.473-.303.791.431 1.559 1.825 1.909 1.283.322 3.264 1.846 4.404 3.387 1.311 1.773 3.399 3.052 5.685 3.48 1.987.373 3.868 1.342 4.179 2.153.351.916 1.279 1.248 2.447.877 1.04-.33 1.882-.119 1.882.471 0 .587.675 1.067 1.5 1.067s1.5-.45 1.5-1 1.125-1 2.5-1 2.5.45 2.5 1c0 1.352 2.741 1.278 3.195-.086.205-.613 3.722-1.239 8.078-1.437 8.392-.383 9.727-.81 9.727-3.118 0-1.188.822-1.404 3.75-.982 2.063.296 7.424.023 11.915-.607 8.1-1.137 13.115-.508 18.571 2.327 2.991 1.555 6.755 1.089 6.849-.847.422-8.678-.266-407.734-.704-408.442-.325-.526-1.334-.256-2.294.613-1.322 1.197-1.986 1.28-2.901.365-.803-.803-1.186-.833-1.186-.091 0 .743-1.171.83-3.644.272-3.84-.866-6.397.409-5.603 2.792.228.683-.21 1.241-.973 1.241-1.353 0-9.986 5.817-10.578 7.128-.164.363-1.188.427-2.276.142-1.248-.326-2.656.266-3.819 1.607-1.834 2.114-3.75 2.972-2.644 1.184.319-.517-.666-2.095-2.189-3.508-2.737-2.537-4.557-1.804-2.293.924.946 1.14.773 1.38-.905 1.254-1.142-.086-2.076-.511-2.076-.944 0-.433-.702-.787-1.559-.787-.997 0-1.278.451-.779 1.25 1.23 1.97 1.424 4.75.332 4.75-.547 0-1.047-1.237-1.112-2.75l-.119-2.75-.763 3c-.738 2.898-.767 2.912-.882.405-.065-1.427-1.078-3.452-2.251-4.5-2.119-1.893-2.128-1.89-1.393.47.483 1.551.38 2.153-.298 1.734-.571-.353-1.32-.184-1.666.375-.794 1.284-4.51 1.339-4.51.066 0-.523.733-1.361 1.628-1.862.988-.553 1.225-1.161.602-1.546-.565-.349-2.085.481-3.379 1.844-2.38 2.51-4.851 3.305-4.851 1.562 0-.943-1.73-.867-9.5.416-3.744.618-3.876.56-2.059-.902 1.068-.859 1.442-1.562.832-1.562s-1.821-.273-2.691-.607c-1.158-.444-1.601.025-1.652 1.75-.066 2.209-.124 2.232-.93.357-.473-1.1-.891-1.411-.93-.691-.038.72-.52 1.031-1.07.691-.55-.34-1-.179-1 .358 0 .536.563 1.202 1.25 1.48.747.301.545.536-.5.583-.962.043-1.75-.446-1.75-1.088 0-.641-.301-.865-.669-.497-.368.367-1.54-.12-2.604-1.083-1.875-1.697-1.924-1.661-1.581 1.133.313 2.554.015 2.921-2.6 3.203-1.624.175-3.588-.209-4.364-.853-1.117-.927-1.786-.708-3.209 1.049-1.153 1.424-2.397 1.99-3.469 1.578-1.336-.512-1.404-.815-.338-1.505.942-.61.713-.777-.778-.57-2.83.393-5.718 3.409-5.017 5.238.312.811.13 1.474-.402 1.474-.533 0-.969-.45-.969-1s-1.298-1-2.883-1c-3.116 0-4.895-3.822-2.768-5.949.735-.735.708-1.051-.09-1.051-.628 0-1.407.43-1.732.956-.325.526-1.206.721-1.958.432-.752-.288-1.668-.036-2.037.56-.369.597-1.137.796-1.708.443-.669-.413-.559-.937.311-1.474 1.074-.664 1.095-1.087.107-2.075-.966-.966-1.509-.975-2.442-.042-1.368 1.368-3.187 1.635-2.394.351.289-.466-.312-1.746-1.334-2.844-1.023-1.097-2.628-3.481-3.567-5.297-1.31-2.534-1.912-2.977-2.591-1.906-1.173 1.853-1.156 7.251.026 8.446.517.522 1.08 3.2 1.25 5.95.277 4.473.574 5.037 2.81 5.346 1.375.191 2.86.978 3.3 1.75.44.772 1.673 1.404 2.741 1.404s2.504.9 3.191 2c.687 1.1 1.816 2 2.509 2 2.043 0 1.609 8.373-.535 10.313-2.564 2.321-7.459 2.404-11.557.197-3.833-2.064-4.968-4.665-4.047-9.27.605-3.023-3.098-8.24-5.847-8.24-.872 0-.873-.282-.002-1.153 1.565-1.565-.273-4.969-2.268-4.203-1.103.424-1.485-.177-1.485-2.337 0-1.599-.518-3.425-1.151-4.058s-1.246-2.719-1.363-4.635c-.291-4.802-3.316-9.532-9.07-14.181-2.677-2.163-6.538-5.664-8.58-7.78-2.041-2.117-4.124-3.593-4.628-3.282-1.41.872-3.277-3.902-2.018-5.161 1.2-1.2.121-3.52-1.244-2.677-.522.323-.664-.694-.33-2.362.336-1.682.117-3.218-.515-3.609-.606-.374-1.101-2.63-1.101-5.014 0-2.93-.486-4.52-1.5-4.91-.825-.316-1.5-1.309-1.5-2.205 0-1.878-3.003-8.659-4.205-9.496-.445-.31-.801-4.36-.79-9 .03-13.2.161-14.338 1.778-15.52 1.252-.916 1.319-1.686.38-4.379-1.214-3.482-.726-5.504 1.062-4.399 1.697 1.049.022-5.934-1.738-7.249-.818-.611-1.487-2.1-1.487-3.309 0-1.21-.437-1.929-.971-1.599-1.361.842-2.307-3.63-1.708-8.078.277-2.054.104-4.785-.384-6.069-.554-1.457-.521-2.335.088-2.335 1.308 0 1.253-3.741-.062-4.179-.617-.206-1.149-5.211-1.316-12.382-.154-6.62-.586-12.531-.959-13.135-.873-1.412.286-7.304 1.437-7.304.481 0 .907 1.013.945 2.25.067 2.14.111 2.152.895.25.512-1.241.355-2.759-.414-4-.681-1.1-1.301-5.15-1.378-9-.076-3.85-.259-7.861-.406-8.913-.199-1.429.618-2.156 3.233-2.879 1.925-.532 2.938-1.171 2.25-1.421-.687-.249-1.243-1.429-1.235-2.62.012-1.605.24-1.813.879-.804.475.75 1.07.975 1.321.5.251-.475.331-.33.177.322-.154.652.205 1.347.798 1.545.701.234.594.882-.306 1.853-3.352 3.618-4.449 9.455-1.57 8.35.653-.251 1.777.875 2.497 2.501 2.161 4.883 4.864 2.408 4.389-4.017-.065-.871.539-1.584 1.341-1.584.803 0 1.459.574 1.459 1.275 0 2.266 2.264 2.752 3.705.795.879-1.194 1.352-4.14 1.269-7.903-.181-8.258-.12-8.708 1.089-7.961.585.361 1.894-.095 2.909-1.014 1.736-1.57 1.886-1.548 2.495.37.559 1.763 1.323 1.993 5.59 1.686 3.419-.246 4.943.02 4.943.865 0 .671.675 1.221 1.5 1.221.942 0 1.506-.961 1.515-2.584.009-1.423.346-2.095.75-1.497.862 1.275 7.338 3.644 8.04 2.942.265-.264-.256-.764-1.156-1.109-1.904-.731-1.228-2.419.969-2.419.825 0 1.245.413.932.919-.623 1.008 5.241 2.623 6.167 1.698.315-.316-.471-.96-1.748-1.433l-2.322-.859 2.177-.569c1.504-.393 2.176-.116 2.176.897 0 .82.489 1.163 1.112.778.611-.378 1.498-.067 1.971.691 1.136 1.82 4.48-.184 4.27-2.559-.081-.914.367-1.49.996-1.28.628.209 1.144 1.205 1.147 2.213.002 1.007.567 2.021 1.255 2.251.767.258 1.03-.153.682-1.062-.576-1.499-.155-1.583 8.067-1.603 1.65-.004 4.248.14 5.774.321 1.526.18 3.045-.11 3.375-.645.384-.621.827-.606 1.227.041.809 1.309 8.262 1.852 10.072.733 1.033-.638 1.23-.439.766.772-.345.898-.193 1.9.337 2.227.53.328 1.233-.108 1.563-.968.357-.929 1.672-1.508 3.243-1.427 2.356.122 2.398.183.393.57-2.707.521-2.815 1.145-.5 2.902 2.47 1.875 2.785 1.738 3.038-1.314.256-3.097 2.199-5.508 2.902-3.6.241.656 1.159.917 2.039.58 1.062-.408 1.356-.221.876.556-.438.709-.086 1.17.895 1.17.89 0 1.369.403 1.065.895-1.229 1.989 2.955 2.181 4.552.209.899-1.111 1.988-1.701 2.419-1.311.432.389.418.075-.03-.698-.524-.902-.433-1.168.254-.743.588.363 1.297.095 1.576-.596.381-.946.526-.956.585-.037.043.67.754.959 1.579.643 1.592-.611 1.895.446.883 3.082-.477 1.244-.929 1.348-2 .459-.823-.683-1.383-.743-1.383-.148 0 .55.615 1.511 1.367 2.135 1.489 1.235 2.747.22 3.971-3.203.356-.998 1.05-1.565 1.542-1.261.491.303 1.445-.113 2.12-.926 1.444-1.74 3.376-.922 2.6 1.101-.657 1.712 1.55 1.849 3.2.199.933-.933 1.2-.933 1.2 0 0 .66.45 1.2 1 1.2s1-.97 1-2.155c0-2.059.085-2.078 1.912-.425 1.816 1.644 1.936 1.639 2.384-.095.428-1.655.483-1.662.588-.075.111 1.676 2.116 2.588 2.116.963 0-1.576 3.892-1.032 4.324.604.401 1.521.455 1.514.56-.067.064-.962.764-1.75 1.557-1.75 1.923 0 2.9 1.707 1.315 2.298-.82.306-.583.745.684 1.265 1.236.508 2.083.369 2.333-.383.217-.649 1.283-1.18 2.369-1.18 1.239 0 1.71.431 1.263 1.155-.422.682-.277.884.355.493.588-.363 1.333-.095 1.655.596.467 1.003.703 1.004 1.168.006.858-1.839 2.412-1.521 2.447.5.029 1.639.094 1.642 1.027.042 1.124-1.929 3.943-1.329 3.943.838 0 1.185.385 1.164 2.359-.13 2.845-1.864 5.412-1.091 5.833 1.756.169 1.148.933 2.293 1.697 2.545.843.278 1.115.014.691-.671-.405-.655-.043-1.13.861-1.13.857 0 1.559-.466 1.559-1.035 0-.71.602-.713 1.912-.012 2.575 1.378 2.602.682 2.665-66.953.029-30.525-.099-46.613-.283-35.75l-.335 19.75h-2.433c-2.935 0-7.526-1.969-7.526-3.228 0-.499-.922-.614-2.048-.257-1.126.358-2.661.141-3.411-.481-.937-.778-1.565-.804-2.011-.083-1 1.619-2.817 1.24-2.168-.451.391-1.02-.054-1.5-1.393-1.5-1.084 0-1.969.675-1.969 1.5s.633 1.5 1.406 1.5c.848 0 1.224.695.947 1.75-.504 1.92-5.866 2.847-6.89 1.191-.33-.536-1.02-.715-1.532-.398-.512.316-.931-.539-.931-1.901 0-1.361.562-2.702 1.25-2.98.747-.301.545-.536-.5-.583-.962-.043-1.782.484-1.82 1.171-.039.688-.457.35-.93-.75-.686-1.596-.874-1.663-.93-.333-.038.916-.633 1.893-1.32 2.171-.687.277-.147.54 1.2.583 1.781.057 2.15.379 1.351 1.178-.671.671-2.017.789-3.45.304-1.293-.437-2.913-.687-3.601-.555-.687.132-1.252-.118-1.254-.554-.003-.437-2.444-.84-5.424-.897-3.692-.07-5.97-.652-7.145-1.827-.949-.949-2.558-1.507-3.576-1.241-1.018.266-1.851.127-1.851-.31 0-1.061-14.093-1.906-16.001-.96-.825.41-2.85.184-4.5-.501-3.273-1.36-7.499-.241-7.499 1.986 0 1.723-3.72 2.498-4.939 1.029-.693-.835-.641-1.593.163-2.397 1.387-1.387-.093-1.545-2.17-.23-1.657 1.048-5.424-.539-4.567-1.924.866-1.402-3.167-2.511-12.308-3.385-2.926-.28-6.639-.799-8.25-1.153-2.089-.459-2.933-.262-2.944.687-.013 1.082-.169 1.087-.84.029-.454-.715-1.785-1.373-2.959-1.461-1.174-.088-2.356-.741-2.629-1.45-1.011-2.636-8.557-.957-8.557 1.905 0 .942 2.951.591 4.817-.573 1.592-.994 2.93.061 1.616 1.274-1.535 1.418-8.214 2.269-8.914 1.136-.35-.567-1.75-1.031-3.109-1.031-1.36 0-2.722-.649-3.026-1.443-.421-1.096-1.152-1.216-3.04-.498-1.367.52-5.266.9-8.665.845-8.67-.141-8.702-.134-7.96 1.846.574 1.532.446 1.579-1.032.378-1.099-.894-1.687-.982-1.687-.25 0 .617.54 1.122 1.2 1.122.911 0 .901.299-.042 1.242-.878.878-1.449.921-1.95.149-1.318-2.031-4.715-3.208-7.719-2.673-2.454.437-2.765.296-1.739-.793 1.909-2.023 1.488-3.445-.5-1.691-.963.849-3.243 1.861-5.067 2.249-2.005.426-3.616 1.512-4.072 2.746-1.019 2.754-3.625-2.604-4.65-9.559-.407-2.759-1.333-5.067-2.161-5.385-.961-.369-1.249-1.353-.855-2.921.327-1.305.145-2.364-.407-2.364-.55 0-1.296-1.238-1.657-2.75s-.99-3.2-1.396-3.75c-.407-.55-1.073-2.125-1.479-3.5-.407-1.375-2.199-4.975-3.982-8-2.265-3.841-3.78-8.365-5.022-15a1191.014 1191.014 0 0 0-3.751-19c-1.084-5.225-2.364-12.2-2.843-15.5-2.798-19.254-8.588-32.767-18.568-43.332-2.383-2.522-6.022-7.022-8.086-9.999-3.942-5.684-13.604-16.146-14.961-16.201-.436-.017-2.351-1.597-4.255-3.51-1.904-1.913-4.717-4.033-6.25-4.712-1.533-.679-2.788-1.799-2.788-2.49 0-.691-.585-1.256-1.301-1.256-1.839 0-6.682-2.352-6.691-3.25-.004-.412-.593-.75-1.309-.75-2.223 0-6.683-2.441-6.691-3.662-.004-.639-1.831-1.47-4.06-1.847-2.337-.395-4.555-1.49-5.24-2.588-.654-1.046-1.668-1.903-2.254-1.903-5.013 0-21.454-21.338-21.454-27.843 0-.582-.784-1.496-1.742-2.032s-1.446-1.27-1.085-1.632c.361-.361.044-2.124-.706-3.917-.749-1.794-1.604-7.777-1.899-13.297-.296-5.519-.741-10.652-.991-11.407-.25-.755-.714-4.488-1.032-8.297-.875-10.485-4.034-23.623-9.036-37.575-2.874-8.018-4.949-11.417-9.769-16-2.602-2.475-4.734-4.987-4.736-5.583-.006-1.685-12.96-14.23-16.153-15.643-1.568-.694-2.851-1.554-2.851-1.91 0-.356-1.125-.93-2.5-1.275-1.375-.345-2.5-1.069-2.5-1.608 0-.54-.675-.981-1.5-.981s-1.5-.36-1.5-.799c0-1.977-8.266-3.527-20.011-3.753-11.905-.23-12.655-.125-15.5 2.168M166 305.136c0 .475.563.865 1.25.865.688.001.012 1.066-1.5 2.367-2.976 2.559-3.473 4.194-1.5 4.934.868.325.65.929-.712 1.975-1.229.944-2.064 2.949-2.234 5.365-.443 6.311.314 6.969 3.942 3.421 2.416-2.361 2.899-3.356 1.923-3.959-.983-.607-1.064-1.64-.326-4.205.67-2.332 1.042-2.771 1.185-1.399.147 1.413.415 1.119.913-1 .388-1.65.318-3.788-.153-4.75-.511-1.042-.473-1.75.093-1.75.524 0 1.162.563 1.419 1.25.298.797.755.525 1.261-.75.436-1.1 1.203-2.276 1.704-2.614.502-.337-.928-.613-3.177-.613-2.248 0-4.088.388-4.088.863m8.5 8.864c-.34.55.309 1 1.441 1 2.651 0 2.672 1.606.03 2.297-1.115.292-1.926.907-1.802 1.367.562 2.069-1.576 5.544-4.005 6.512-1.515.604-2.125 1.263-1.414 1.527.688.255 1.221 1.439 1.187 2.63-.064 2.167-.064 2.167-.968-.083-.498-1.238-1.707-2.218-2.687-2.18-1.547.061-1.519.173.218.852l2 .782-2 .611c-1.1.336-3.202.468-4.672.294-1.942-.23-2.806.2-3.167 1.578-.374 1.432-.08 1.763 1.204 1.356 1.28-.406 1.754.119 1.92 2.134.122 1.47.896 3.418 1.72 4.329.825.911 1.196 1.96.824 2.331-.969.969 5.692 6.663 7.794 6.663.97 0 2.352-.788 3.07-1.75 2.054-2.751 6.807-1.579 6.807 1.679 0 .589.852 1.071 1.893 1.071s2.152.675 2.469 1.5c.68 1.772-1.448 2.014-3.11.352-.863-.863-1.077-.491-.865 1.502.274 2.57 1.613 5.02 1.613 2.951 0-.569 1.166-.805 2.611-.529 2.267.434 2.525.229 1.959-1.554-.358-1.13-.244-2.305.254-2.613 1.322-.817.888-4.873-.573-5.359-.688-.229-1.523.296-1.857 1.167-.335.871-.999 1.583-1.476 1.583-.478 0-.43-1.154.107-2.565 1.289-3.392 1.293-3.381-1.095-2.922-1.852.357-1.997.062-1.374-2.807.382-1.763 1.14-3.489 1.683-3.835.593-.378.476-.799-.293-1.056-.718-.239-1.266-1.937-1.249-3.871.032-3.658-1.34-6.283-2.81-5.374-1.313.811-1.076-.981.313-2.37 1.475-1.475 3.159-1.59 2.273-.156-.815 1.318 1.311 3.956 3.19 3.956 1.056 0 1.343-1.146 1.127-4.499-.179-2.778-.768-4.5-1.54-4.5-.687-.001-1.25-.634-1.25-1.407 0-2.25-3.83-.687-4.308 1.758-.29 1.487-.462 1.18-.556-.995-.08-1.847-.788-3.393-1.718-3.75-2.074-.796-2.193-.78-2.918.393m45.75 15.145c-3.56.999-4.468 3.855-1.225 3.855 1.19 0 2.383.944 2.896 2.291.479 1.26 1.588 2.886 2.464 3.613.876.728 1.346 1.722 1.045 2.209-.301.488-.045.887.57.887s.84.45.5 1c-1.438 2.326-4.411.828-6.947-3.5-3.021-5.155-3.036-5.16-7.053-2.5-1.65 1.093-2.411 1.99-1.691 1.993.72.004 1.013.485.652 1.07-.76 1.229 2.275 4.937 4.041 4.937.655 0 2.734 1.498 4.619 3.329 1.886 1.831 4.626 4.115 6.09 5.074 1.464.959 2.951 3.058 3.304 4.665.353 1.606 1.223 3.26 1.933 3.676 1.672.979 5.111 7.846 6.007 11.994.384 1.781 1.85 4.143 3.257 5.25 1.407 1.107 1.992 2.012 1.3 2.012-1 0-1.004.305-.021 1.489.68.819 1.644 1.236 2.144.928.499-.309.796.9.66 2.685-.136 1.796.276 3.422.923 3.637.643.215.931 1.011.64 1.77-.355.925.158 1.328 1.556 1.222 2.48-.186 2.7-1.288.503-2.518-2.727-1.526-2.132-10.035.883-12.625 2.6-2.235 3.03-8.658.733-10.955-.568-.568-1.033-2.293-1.033-3.833s-.401-2.8-.891-2.8c-.491 0-1.577-1.713-2.415-3.807-.838-2.093-2.263-4.421-3.168-5.172-1.31-1.087-5.526-8.471-5.526-9.677 0-.155.731-.001 1.624.342 1.393.535 1.358.212-.25-2.265-3.088-4.759-5.707-6.902-8.613-7.048-1.513-.076-3.54-1.039-4.506-2.14-1.46-1.665-2.301-1.848-5.005-1.088m-38.977 95.982c-.737.737-.82 1.935-.238 3.465.52 1.368.518 2.566-.005 2.89-.492.303-1.037-.669-1.212-2.161-.314-2.68-.342-2.666-2.318 1.125-1.486 2.852-1.679 3.951-.75 4.279.688.243 1.25 1.844 1.25 3.558 0 2.424.267 2.85 1.2 1.917.66-.66 1.897-1.164 2.75-1.121 1.039.053 1.136.246.294.585-.691.279-.955.995-.586 1.591.426.69.065.853-.994.446-1.871-.718-2.1.076-.664 2.299.646 1 .974 1.083.985.25.008-.687.513-1.25 1.122-1.25.609 0 .829.725.489 1.611-.438 1.141-.188 1.446.856 1.046 1.615-.62 1.946.72 3.178 12.843.391 3.85.892 6.212 1.114 5.25.221-.962.806-1.75 1.298-1.75s.636.675.32 1.5c-.317.825-.078 1.5.531 1.5s1.107 1.323 1.107 2.941c0 1.618.526 3.266 1.17 3.664.787.486.961.178.531-.941-.424-1.104-.125-1.664.889-1.664.841 0 1.269.419.953.931-.317.512-.118 1.213.441 1.559.559.345 1.016-.261 1.016-1.348 0-1.086-.562-2.202-1.25-2.48-1-.403-1-.52 0-.583 1.511-.095 1.697-4.079.191-4.079-.582 0-.781-.45-.441-1s.115-1-.5-1-.821-.48-.458-1.067c.363-.588-.285-1.314-1.441-1.617-1.801-.471-2.101-1.306-2.101-5.849 0-2.915-.449-5.45-.999-5.634-.549-.183-1.222-2.96-1.495-6.171-.273-3.211-.793-6.318-1.156-6.905-.389-.629-.186-.774.495-.352.748.462 1.144-.1 1.123-1.596-.029-2.133-.133-2.175-1.36-.559-2.018 2.658-2.793 2.114-2.462-1.727.341-3.954-1.104-6.165-2.873-4.396M174.5 631c-.34.55-.34 1.45 0 2s.141 1-.441 1-1.059 1.125-1.059 2.5-.48 2.5-1.067 2.5c-.593 0-.8.843-.466 1.895.342 1.078-.046 2.541-.9 3.396-.826.825-1.756 2.945-2.067 4.709-.311 1.764-1.226 3.868-2.033 4.675-.807.808-1.467 2.587-1.467 3.955 0 1.404-.436 2.219-1 1.87-.566-.35-1 .479-1 1.91 0 1.877.401 2.373 1.557 1.93.857-.329 1.321-1.215 1.032-1.969-.315-.821.164-1.403 1.192-1.45 1.044-.048 1.228-.277.469-.583-.687-.278-1.25-1.197-1.25-2.044 0-1.265.271-1.314 1.524-.274.838.696 1.851.914 2.25.486.399-.429.17-.978-.509-1.221-.965-.345-.94-1.026.113-3.113.741-1.47 1.147-3.234.902-3.921-.246-.688.266-1.523 1.137-1.857.871-.335 1.583-1.235 1.583-2.001 0-.766.675-1.393 1.5-1.393 1.532 0 2.107-2.494.75-3.253-.412-.23-.187-.282.5-.114 1.489.362 1.678-1.251.25-2.133-1.408-.87-1.245-2.5.25-2.502.688-.001 1.344-1.351 1.46-3 .208-2.97-1.827-4.236-3.21-1.998m-99.905 86.155c.443.715.275.883-.44.44-.635-.392-1.155-.21-1.155.405s-.412.864-.915.553c-.503-.311-1.104 0-1.337.691-.33.98-.793.95-2.11-.137-2.426-2.002-3.044-.745-1.256 2.555.847 1.562 1.57 2.164 1.61 1.338.105-2.197 3.008 1.848 3.008 4.191 0 1.983 1.663 2.319 4 .809 1-.646 1.083-.974.25-.985-.687-.008-1.25-.492-1.25-1.074 0-.582.526-.734 1.17-.336.782.483.962.182.544-.909-.345-.898-.196-1.898.33-2.223.526-.325 1.012-.114 1.081.468.303 2.568.416 2.933 1.125 3.642.412.413.75 0 .75-.916 0-1 .8-1.667 2-1.667 1.1 0 2-.477 2-1.059s.508-.745 1.13-.361c.685.424.947.152.666-.691-.254-.764-.95-1.389-1.546-1.389-.596 0-1.421-.337-1.833-.75-.413-.413-1.382-.75-2.155-.75-.773 0-2.08-.675-2.905-1.5-1.763-1.764-3.795-2.018-2.762-.345m72.276 339.595c-.415 5.626-.726 7.023-2.149 9.632-1.162 2.131-1.321 3.543-.608 5.417.702 1.847.614 2.757-.325 3.353-.966.612-.871.821.378.833.916.008 1.83.505 2.029 1.104.434 1.302 7.326-1.688 10.04-4.356 1.731-1.701 1.723-1.934-.212-6.181-1.106-2.427-2.914-4.7-4.017-5.05-1.104-.35-2.063-1.056-2.132-1.569a21.648 21.648 0 0 0-.375-1.933c-.137-.55-.306-1.45-.375-2-.215-1.722-2.118-1.089-2.254.75" fill="#d3d3d3" fill-rule="evenodd"/></svg>