<svg xmlns="http://www.w3.org/2000/svg" width="500" height="727"><path d="M391.5 54.591c-7.15 1.323-24.7 4.704-39 7.512l-26 5.106-16.5-.644c-9.075-.355-30.374-1.34-47.331-2.19-16.957-.85-31.038-1.339-31.291-1.086-.517.516 1.228 39.074 2.567 56.711.914 12.047 4.734 36.133 10.547 66.5 4.231 22.103 10.522 58.403 10.514 60.667-.004 1.06 1.54 2.213 4.244 3.171l4.25 1.504-4.25.079L255 252l.009 38.75c.004 21.313.436 43.925.958 50.25 2.83 34.249 5.464 57.767 7.63 68.129 2.12 10.135 9.771 37.572 10.751 38.552 1.557 1.558 27.737 5.606 44.776 6.925l20.624 1.596 18.376-4.544c10.107-2.498 24.799-5.999 32.65-7.778 7.851-1.779 14.133-3.658 13.961-4.175-.173-.518-7.271-5.341-15.774-10.719-43.634-27.597-60.411-39.508-73.711-52.333-8.351-8.052-8.451-8.392-3.706-12.558l3.544-3.112 26.206 17.69c14.413 9.729 30.848 20.826 36.52 24.66 9.956 6.729 10.511 6.965 15.949 6.787 3.099-.101 5.805-.354 6.013-.563.208-.208-2.919-2.28-6.949-4.605-20.068-11.576-30.839-18.277-47.178-29.352-20.971-14.215-36.216-25.37-39.482-28.891l-2.332-2.514 8.436-4.599c37.706-20.553 83.78-36.599 115.54-40.238l14.973-1.716 2.108-7.691c3.228-11.779 4.025-10.953-15.892-16.485-5.225-1.452-14.9-4.369-21.5-6.482C368.203 254.398 350.314 252 295.73 252c-16.901 0-30.73-.258-30.73-.574 0-.967 16.825-54.253 20.658-65.426 5.661-16.499 15.149-39.878 19.076-47 10.957-19.873 21.584-36.923 22.625-36.298 7.516 4.51 11.641 7.604 11.641 8.73 0 .754-4.357 8.953-9.682 18.22-19.377 33.716-32.806 66.6-27.068 66.278 3.891-.219 5.088-2.044 10.145-15.467C318.773 163.532 359.493 87 362.123 87c1.591 0 9.992 12.131 16.672 24.072 15.161 27.104 30.153 72.335 48.782 147.178 2.855 11.473 4.032 14.747 5.297 14.734 2.106-.02 13.073-2.598 13.694-3.219 2.296-2.296-19.894-137.236-32.027-194.765-1.334-6.325-2.933-14.087-3.554-17.25-1.346-6.854-.371-6.696-19.487-3.159m-35.953 141.502c-6.455 5.667-7.04 12.998-1.537 19.265 4.576 5.212 7.83 6.188 13.906 4.17 12.531-4.162 13.447-16.837 1.704-23.573-6.585-3.776-9.649-3.746-14.073.138M136 298.974c-10.725.418-27.713.82-37.75.893-10.037.073-18.256.47-18.263.883-.007.413-.903 6.375-1.992 13.25-1.088 6.875-4.004 28.739-6.481 48.586-2.477 19.847-4.973 38.522-5.546 41.5C64.386 412.297 59 480.049 59 491.733V502h21.622l1.3-5.25c1.546-6.244 13.059-41.017 20.734-62.625 7.197-20.262 34.563-80.497 38.41-84.546.82-.862 14.934 4.083 14.934 5.233 0 .271-4.809 9.762-10.687 21.091-12.858 24.781-10.992 20.979-22.792 46.444-5.313 11.466-9.45 21.058-9.193 21.315.257.257 1.983.183 3.836-.165 2.859-.536 3.654-1.339 5.269-5.314C139.106 397.12 171.556 337 177.046 337c2.009 0 7.286 6.911 16.036 21 4.77 7.682 8.733 14.867 23.993 43.5 10.135 19.017 19.318 43.041 27.039 70.734 2.412 8.654 4.861 15.741 5.443 15.75 2.145.032 17.938-6.691 17.786-7.572-.836-4.853-14.171-63.661-17.326-76.412-2.246-9.075-6.346-26.4-9.111-38.5-2.766-12.1-7.535-31.73-10.6-43.623l-5.572-21.623-6.117-.626c-10.277-1.051-61.951-1.46-82.617-.654m266.726 35.79c-4.838 5.05-7.413 16.78-4.476 20.39 6.607 8.119 19.946 7.475 24.528-1.184 2.106-3.981 1.037-12.212-2.123-16.356-4.547-5.961-13.574-7.396-17.929-2.85m-210.139 87.665c-8.137 3.01-11.467 10.962-7.625 18.206 3.257 6.139 5.349 7.644 11.303 8.132 6.345.521 13.943-3.857 17.178-9.898 5.515-10.296-8.212-21.117-20.856-16.44m32.913 53.598c-3.3.429-12.975 1.527-21.5 2.44-9.499 1.016-22.856 3.385-34.5 6.117-10.45 2.452-24.625 5.785-31.5 7.406-19.367 4.567-29.877 6.802-37.5 7.973-13.129 2.019-39.998 7.221-40.695 7.88-1.336 1.264.374 16.157 1.856 16.157 6.767 0 64.424 18.991 88.839 29.262 26.077 10.97 53.5 24.768 53.5 26.92 0 2.896-28.928 19.924-66.976 39.425-25.277 12.956-27.551 14.334-27.854 16.888-.236 1.993.047 2.633 1 2.261.732-.286 4.93-1.915 9.33-3.619 10.846-4.203 34.793-16.162 53-26.469l15-8.491 2.17 2.577c2.554 3.034 4.843 7.108 4.248 7.563-1.818 1.39-29.501 18.19-37.726 22.894-14.118 8.075-34.84 17.127-52.192 22.799l-14.5 4.739-.301 3.985-.3 3.985 9.3.659c29.352 2.081 39.745 2.594 52.813 2.607 13.044.013 51.258 2.036 96.648 5.115 9.052.614 16.684.89 16.96.613.789-.789-1.472-27.75-3.624-43.213-3.448-24.775-4.926-37.528-7.014-60.5-1.736-19.09-10.362-76.684-14.088-94.057-1.198-5.587-1.31-5.618-14.394-3.916M90.812 562.923c-17.185 2.403-17.978 26.501-.947 28.786 11.245 1.508 20.58-13.036 15.171-23.638-1.721-3.374-6.421-6.497-8.935-5.937-.331.073-2.711.428-5.289.789" fill="#d3d3d3" fill-rule="evenodd"/></svg>