<svg xmlns="http://www.w3.org/2000/svg" width="500" height="500"><path d="M1.75 2.044c-2.535 1.529-2.535 10.942 0 10.986 1.667.029 1.667.079 0 1.05C-.366 15.313-.547 17 1.437 17c1.084 0 1.298.86.869 3.5-.384 2.369-.18 3.5.631 3.5.743 0 .957-.76.563-2-.349-1.1-.232-2 .261-2s.812-2.025.709-4.5c-.104-2.475.199-4.5.671-4.5.472 0 .859.59.859 1.312C6 13.383 11.071 18 12.247 18c1.111 0 .388-4.745-.947-6.221C9.806 10.128 9.839 10 11.762 10c1.139 0 2.23-.476 2.424-1.057.645-1.935 3.814.23 3.814 2.605 0 1.284.43 2.6.956 2.925.526.325.673 1.33.327 2.233-.482 1.256-.218 1.483 1.125.968.966-.371 1.944-.674 2.174-.674.23 0 .454-.788.497-1.75.047-1.045.282-1.247.583-.5.885 2.193 2.172 1.341 1.887-1.25-.285-2.598.908-3.432 1.789-1.25.301.747.536.545.583-.5.043-.963.529-1.75 1.079-1.75.55 0 1-.675 1-1.5s.436-1.5.969-1.5c.532 0 .709.675.393 1.5-.744 1.938.086 1.91 2.067-.071 1.428-1.429 1.572-1.361 1.586.75.013 1.865.206 2.027.985.821.533-.825.991-1.05 1.016-.5.026.55.708.126 1.516-.941C39.339 7.491 40 7.154 40 7.809S40.653 9 41.45 9c.798 0 1.893.787 2.433 1.75.894 1.593 1.039 1.603 1.614.111.374-.969 1.363-1.449 2.419-1.173.982.257 2.419-.166 3.194-.941.774-.774 2.018-1.204 2.765-.955.746.248 1.747-.166 2.225-.92.717-1.131.875-1.108.9.128.025 1.241.181 1.262.904.122.48-.758 1.4-1.052 2.044-.654.835.516.677 1.086-.551 1.983-1.188.869-1.48 1.848-.943 3.154.51 1.242.94 1.464 1.246.645.257-.688 1.035-1.25 1.731-1.25.695 0 1.752-1.013 2.349-2.25l1.085-2.25.067 2.25c.082 2.713 2.068 3.056 2.068.357 0-1.992 2.513-3.526 4.134-2.524.525.324 1.609.045 2.41-.619.842-.699 1.456-.785 1.456-.203 0 1.366 5.264 2.314 6.45 1.162C83.067 5.352 89 5.805 89 7.5c0 .825.45 1.5 1 1.5s1.007-.562 1.015-1.25c.01-.774.295-.869.75-.25C92.872 9.006 95 9.171 95 7.75c0-.762 1.367-1.25 3.5-1.25 2.667 0 3.5.417 3.5 1.75 0 .963.45 1.75 1 1.75s1-.627 1-1.393.675-1.652 1.5-1.969c.825-.316 1.5-.12 1.5.437 0 .557.563.94 1.25.85 2.766-.359 4.684.152 6.179 1.646 1.376 1.377 1.571 1.384 1.571.059 0-.831.465-1.8 1.034-2.151 1.15-.711.63 3.646-.687 5.755-.435.696-.894 1.716-1.019 2.266-.687 3.006-3.936 11.048-4.578 11.333-.412.184-.75 2.112-.75 4.286 0 3.641.157 3.867 2 2.881 1.323-.708 2-2.094 2-4.094 0-1.761.418-2.766 1-2.406.55.34 1-.084 1-.941S115.532 25 114.961 25c-.617 0-.533-.543.206-1.333 1.411-1.511 3.833-1.789 3.833-.441 0 .49.45.614 1 .274 1.505-.93 1.202-2.312-.587-2.677-1.299-.264-1.117-.868.999-3.323l2.586-3 .08 2.5c.047 1.489.297 1.893.616 1 .295-.825 1.175-2.011 1.957-2.636.781-.625 1.586-1.975 1.79-3 .819-4.129 1.1-4.894 2.059-5.599 1.487-1.092 3.713-.918 3 .235-.34.55-.111 1 .508 1s2.657 1.168 4.53 2.597c3.005 2.292 3.361 3.045 3.035 6.429-.308 3.196-.096 3.746 1.279 3.309 1.026-.326 1.233-.205.549.321-1.611 1.238-1.912 5.602-1.034 14.998.455 4.874.269 6.272-.896 6.719-.809.31-1.471.128-1.471-.404 0-.533.436-.969.969-.969.532 0 .672-.773.309-1.717-.529-1.381-.916-1.087-1.971 1.5-.842 2.065-2.007 3.217-3.251 3.217-2.776 0-3.652-2.031-1.157-2.684 2.67-.698 2.74-2.316.101-2.316-1.1 0-2 .45-2 1s-.675 1-1.5 1c-1.938 0-1.901 1.459.115 4.535 1.483 2.263 1.484 2.665.011 4.913-.882 1.346-1.422 3.033-1.2 3.75 1.011 3.258 1.444 10.802.621 10.802-.503 0-1.06-1.237-1.238-2.75-.306-2.603-.385-2.642-1.473-.739-.633 1.105-.912 3.258-.62 4.784.517 2.705.592 2.733 3.011 1.148l2.48-1.625-.591 3.841C130.415 77.46 129.752 80 128.918 80c-.47 0-.596.675-.28 1.5.317.825.109 1.5-.461 1.5-.653 0-.75 1.019-.262 2.75 1.066 3.777.613 10.306-.774 11.163-.824.509-.73 1.243.34 2.646 1.282 1.68 1.616 1.739 2.485.441.828-1.237 1.006-1.128 1.019.625.011 1.589-.806 2.306-3.235 2.843-1.787.396-2.71.932-2.05 1.192.852.336.925 1.197.25 2.972-1.252 3.293-1.223 3.41.666 2.685 1.417-.544 1.458-.324.333 1.779-.773 1.444-1.45 1.902-1.7 1.151-.229-.686-.891-1.247-1.472-1.247s-1.654-.787-2.385-1.75c-1.219-1.606-1.337-1.545-1.428.75-.054 1.375-.29 3.961-.523 5.747-.32 2.454.063 3.551 1.568 4.491 2.48 1.549 2.647 4.792.241 4.683-1.045-.047-1.247-.282-.5-.583 1.741-.703 1.566-2.338-.25-2.338-.861 0-1.5.902-1.5 2.115 0 1.978-.149 2.017-2.303.606-2.171-1.423-2.37-1.356-3.485 1.163-1.299 2.934-.895 6.868.877 8.543.836.79.964.502.483-1.093-.359-1.191-.185-2.455.387-2.809.573-.354 1.041-.08 1.041.607 0 .702.596.435 1.359-.608 1.989-2.72 6.844-2.766 6.017-.057-.998 3.269-2.526 4.62-4.511 3.99-1.447-.459-1.707-.209-1.189 1.142.451 1.176.289 1.498-.506 1.006-.644-.398-1.17-.246-1.17.336 0 .582.338 1.066.75 1.074 2.542.052 3.532 1.846 1.912 3.466-.914.914-1.662 2.08-1.662 2.59 0 1.346 1.752 1.14 2.648-.311.519-.838.965-.434 1.379 1.25.389 1.586 1.257 2.434 2.391 2.335 1.366-.12 1.672.403 1.319 2.25-.253 1.323-.072 2.405.402 2.405.473 0 .861-.627.861-1.393s.675-1.652 1.5-1.969c.825-.316 1.5-1.071 1.5-1.678s.696-1.799 1.548-2.65c.851-.852 1.296-1.799.989-2.106-.307-.307-1.214.309-2.016 1.369-.801 1.06-1.472 1.391-1.489.736-.018-.655.466-1.499 1.075-1.875.772-.477.696-.953-.25-1.573-.881-.577-.059-.759 2.339-.519 3.628.364 3.685.315 3.098-2.62-.458-2.29-.269-2.882.804-2.529 1.819.599 2.523 7.807.762 7.807-.98 0-.993.267-.06 1.2 1.791 1.791 1.453 5.209-.8 8.073-1.1 1.398-2 3.204-2 4.012 0 3.121-2.957 4.276-6.192 2.419-1.642-.942-3.395-1.459-3.897-1.149-.501.31-.918-.251-.926-1.246-.013-1.545-.165-1.59-1.042-.309-.912 1.333-1.009 1.333-.866 0 .474-4.439-2.123-5.652-4.119-1.922-.636 1.189-1.72 1.844-2.535 1.531-2.547-.978-1.498 1.036 1.175 2.254 1.575.717 2.387 1.732 2.063 2.577-.294.767.216 1.682 1.133 2.034.917.352 1.834.141 2.038-.47.553-1.66 3.099 2.125 3.136 4.664.048 3.244 1.107 5.404 2.291 4.672.657-.406.748-.16.241.66-.535.866-.418 1.068.345.595 1.396-.862 1.475-.062.225 2.275-1.114 2.081.055 4.356 2.022 3.933.834-.18 1.423.512 1.445 1.698.021 1.101.427 2.632.903 3.402.561.907.341 1.787-.624 2.499-1.42 1.047-3.816 4.834-3.816 6.032 0 .311.675.566 1.5.566s1.5.705 1.5 1.567c0 1.065-.588 1.381-1.831.987-2.342-.744-6.976 3.039-5.514 4.501.556.556 1.84.692 2.855.303 1.768-.679 1.765-.737-.083-1.418-1.695-.625-1.589-.8.874-1.447 3.505-.92 6.116 1.859 4.531 4.821-.542 1.013-.711 2.559-.375 3.434.336.876.033 1.959-.673 2.407-2.143 1.359-2.952.95-2.284-1.155.517-1.629.18-2-1.816-2-3.472 0-4.292 3.724-1.478 6.719 1.174 1.25 1.833 2.575 1.465 2.944-.369.369-.671.37-.671.004 0-.367-.9.233-2 1.333-4.092 4.092-1.912 6.075 4 3.639 2.52-1.038 4.71.981 3.343 3.083-.636.978-1.649 1.665-2.25 1.528-.601-.138-1.138.312-1.193 1-.055.687-.46.125-.9-1.25-.74-2.31-.808-2.335-.9-.323-.085 1.849-.579 2.117-3.275 1.776-1.746-.221-3.636-.864-4.2-1.428-.564-.564-1.826-1.025-2.806-1.025-1.066 0-2.033-1.004-2.408-2.5-.345-1.375-.999-2.5-1.452-2.5-.453 0-1.11-.9-1.459-2-.831-2.618-2.471-2.605-1.786.015.414 1.583.162 1.875-1.177 1.361-1.342-.515-1.423-.829-.381-1.473.808-.499.159-.666-1.666-.429-1.644.213-3.376.419-3.847.457-.471.038-.598.744-.281 1.569.639 1.666-.888 2.076-1.862.5-.941-1.522-2.511-1.193-1.9.399.295.769.067 1.689-.507 2.043-.65.402.055 2.408 1.873 5.329 1.603 2.576 2.553 4.919 2.109 5.207-2.603 1.687-2.051 8.61.606 7.591.788-.303 1.15-.105.812.442-.336.544.091.989.948.989 2.196 0 1.947-.911-.993-3.635-1.67-1.549-2.053-2.365-1.108-2.365.794 0 1.734-1.157 2.088-2.571 1.006-4.008 2.822-2.8 5.367 3.571l.998 2.5.954-2.463.955-2.463 1.152 2.152c.795 1.487.826 2.354.1 2.802-.721.446-.683 1.094.12 2.061.644.776.778 1.418.298 1.426-.479.009-.21.435.6.947 1.261.797 1.225 1.025-.25 1.591-.947.364-1.734 1.175-1.749 1.804-.015.629-1.794 2.233-3.953 3.564-2.159 1.332-3.696 2.795-3.414 3.25.282.456.05.829-.516.829-.565 0-.745.736-.399 1.636.432 1.126.187 1.49-.782 1.168-.775-.259-1.565-1.273-1.755-2.255-.213-1.097.077-1.525.75-1.108.603.372 1.096.152 1.096-.489s-.675-.907-1.5-.59c-1.011.387-1.5-.048-1.5-1.334 0-1.051-.45-2.188-1-2.528-1.296-.801-1.264-.467.845 9 1.326 5.952 2.305 8.261 3.826 9.021 1.706.853 1.82 1.231.687 2.29-1.594 1.488-1.784 3.189-.358 3.189.55 0 1 .675 1 1.5s.675 1.5 1.5 1.5c.884 0 1.506-.923 1.515-2.25.012-1.708.231-1.91.908-.841.49.775.619 2.125.285 3-.366.96.722.476 2.745-1.222 2.585-2.17 3.541-2.513 4.184-1.5.633.999.836 1.014.848.063.008-.687.465-1.25 1.015-1.25 1.519 0 1.195 2.594-.5 4-1.118.928-1.5.944-1.5.063 0-2.587-1.804.132-2.17 3.271-.41 3.504.85 5.606 2.942 4.909.749-.25 1.197.5 1.149 1.924-.043 1.283-.29 1.818-.548 1.189-.258-.629-1.347-.914-2.421-.633-1.075.281-1.952.009-1.952-.606s-.661-1.117-1.469-1.117c-.899 0-1.243-.586-.888-1.511.415-1.082.121-1.336-1.032-.893-1.069.41-1.611.078-1.611-.989 0-.884-.45-1.607-1-1.607-2.221 0-.36 7.405 2.818 11.217.788.944 1.432 2.83 1.432 4.191 0 1.361.577 2.695 1.282 2.966.802.308 1.159 1.814.953 4.027-.535 5.755.791 9.155 3.422 8.773 1.988-.288 2.118-.089 1.134 1.75-1.283 2.397-2.111 2.568-3.988.826-1.102-1.023-1.23-.917-.7.582.356 1.007.647 2.046.647 2.309 0 .262.52.156 1.155-.236.763-.473.88-.271.345.595-.569.921-.421 1.069.5.5.861-.532 1.067-.418.603.334-.45.728-.169.937.772.576 1.098-.422 1.34-.035.938 1.5-.297 1.137-.939 1.821-1.427 1.52-.487-.302-.886-.12-.886.403 0 .522 1.071 1.219 2.381 1.548 2.426.609 3.514 2.767 4.094 8.119.179 1.65.584 4.09.901 5.421.316 1.332.832 4.672 1.147 7.423.314 2.75.802 5.373 1.083 5.828.282.455.035.828-.547.828-.582 0-1.059.498-1.059 1.107s.661.853 1.468.544c.807-.31 1.753-.103 2.101.46.348.563-.279 1.262-1.392 1.553-2.431.636-2.146 3.829.537 6.024 1.652 1.351 1.598 1.411-.714.798-1.375-.364-3.522-.627-4.771-.583-1.683.058-2.718-.889-4-3.662-.951-2.058-2.031-3.971-2.4-4.251-.369-.281-.98-1.743-1.358-3.25-.378-1.507-1.089-2.74-1.579-2.74-.491 0-.892-.48-.892-1.067 0-.624.935-.81 2.25-.449 2.187.602 2.195.576.309-.932-1.068-.854-1.518-1.559-1-1.567.517-.009.463-.346-.121-.75-1.307-.904-3.996-9.707-5.391-17.648-1.084-6.168-1.602-7.365-2.708-6.259-1.097 1.096 4.855 27.038 7.663 33.401 1.027 2.326 3.874 7.051 6.327 10.5 5.446 7.656 16.671 25.604 16.671 26.655 0 .42 1.598 2.981 3.552 5.69 1.954 2.709 4.15 6.276 4.881 7.926 4.647 10.494 12.256 15.299 19.091 12.056 2.001-.95 3.909-1.456 4.24-1.125 1.29 1.29-12.137 54.572-13.738 54.513-.839-.03-7.601-7.73-15.026-17.11-7.425-9.38-13.962-17.568-14.526-18.195-.565-.626-7.385-9.072-15.157-18.769l-14.13-17.629.117-5.871c.105-5.212-.403-6.822-4.531-14.37-4.453-8.14-4.703-9.031-5.89-21.05-1.357-13.726-1.124-14.92 5.748-29.464 1.303-2.758 2.369-5.492 2.369-6.076 0-.584 1.125-2.118 2.5-3.41 1.375-1.292 2.5-1.876 2.5-1.299s1.125 1.049 2.5 1.049 2.5-.394 2.5-.875.338-.822.75-.757c1.964.311 2.384-.251 1.23-1.642-.696-.838-1.001-1.788-.679-2.11.699-.699-3.786-8.114-6.458-10.676-1.038-.995-1.655-2.185-1.371-2.645.284-.459-.193-1.108-1.06-1.44-2.203-.846-2.625-.759-1.912.395.34.55-.132 1-1.048 1-1.095 0-1.462-.532-1.07-1.552.337-.88.172-1.29-.382-.948-.554.342-.719-.068-.382-.948.378-.984.039-1.552-.928-1.552-.838 0-1.75-.563-2.028-1.25-.301-.747-.536-.545-.583.5a1.817 1.817 0 0 1-1.829 1.735c-1.496-.013-1.532-.157-.25-.985.825-.533 1.147-.976.715-.985-.432-.008-.297-.928.3-2.043.597-1.115 1.454-1.8 1.904-1.522.45.278.765-1.847.7-4.722-.103-4.537-.376-5.205-2.066-5.056-2.409.212-4.44-2.389-3.794-4.859.635-2.428 2.275-3.376 3.214-1.857.551.891.908.797 1.351-.357.378-.986-.173-1.983-1.482-2.684-1.493-.798-1.891-.803-1.404-.015.374.605.166 1.1-.462 1.1-.629 0-.951-.563-.716-1.25s-.471-2.038-1.57-3c-1.098-.962-1.509-1.75-.913-1.75.727 0 .802-.982.227-2.987-.568-1.979-.482-3.217.253-3.672.706-.436.406-.962-.823-1.443-2.805-1.099-4.646-1.051-3.934.102.34.55.156 1-.41 1-.565 0-.768.675-.452 1.5.375.977-.027 1.5-1.153 1.5-1.424 0-1.51.265-.485 1.5.685.825.949 1.5.587 1.5-.361 0-.176.9.413 2 .784 1.465.76 2-.087 2-.874 0-.872.344.006 1.403.894 1.077.867 1.502-.118 1.83-.947.316-.807.903.53 2.241 1.3 1.3 1.722 2.97 1.491 5.904-.312 3.963-2.758 8.042-3.868 6.448-.3-.431-1.278.072-2.174 1.117-1.37 1.601-1.402 1.988-.204 2.448.783.3 1.424.11 1.424-.422 0-.533.45-.969 1-.969 1.47 0 1.222 4.995-.25 5.03-.7.017-.487.475.485 1.042 1.845 1.075 2.101 6.031.297 5.761-.567-.084-2.232.343-3.698.95-2.49 1.031-2.689 1.585-3.019 8.41-.394 8.137-.024 11.054 1.299 10.237.487-.302.886-.102.886.444 0 1.032-3.872 2.693-5.344 2.293-.464-.126-.633.347-.375 1.052.258.704.927 1.185 1.487 1.067.559-.118 1.255.695 1.546 1.807.327 1.249.094 1.876-.608 1.642-1.559-.519-4.903 9.776-4.339 13.357.252 1.594.047 3.152-.455 3.462-.502.31-.932-.025-.956-.745-.024-.72-.665.435-1.425 2.566C53.899 347.953 52 350.279 52 347.7c0-.935-.365-1.7-.811-1.7-.446 0-1.404-2.363-2.129-5.25-.725-2.887-1.625-5.7-2.001-6.25-1.249-1.828-.048-8.332 2.863-15.5 2.338-5.758 3.781-10.518 4.64-15.307.418-2.336 1.562-4.383 2.959-5.299 2.38-1.559 5.15-6.989 4.668-9.151-.154-.692.148-2.023.672-2.959.67-1.197.534-2.009-.46-2.742-.777-.573-1.522-2.842-1.656-5.042-.135-2.2-.999-4.837-1.922-5.86-.922-1.023-1.475-2.382-1.23-3.021.245-.639.569-4.88.719-9.424.26-7.884.168-8.287-2.02-8.836-1.278-.321-2.257-1.302-2.213-2.217.05-1.038.265-1.182.583-.392.781 1.935 2.338 1.475 2.338-.691 0-1.068.45-2.219 1-2.559 1.413-.874 1.245-2.55-.226-2.25-1.547.315-3.181 1.813-4.091 3.75-.388.825-1.593 2.85-2.679 4.5-2.594 3.941-4.185 7.652-3.553 8.284.278.278.892-.538 1.365-1.815l.859-2.322.569 2.177c.313 1.197.169 2.176-.319 2.176s-1.162 1.095-1.498 2.433c-.342 1.363-1.151 2.226-1.839 1.962-1.339-.513-3.588 9.496-3.588 15.97 0 2.591-.438 3.635-1.525 3.635-.893 0-1.772 1.237-2.122 2.984-.345 1.725-1.039 2.71-1.645 2.336-.637-.394-.81-.029-.441.933.349.91-.003 1.815-.83 2.133-.79.303-1.437 1.518-1.437 2.699 0 1.656-.458 2.028-2 1.625-1.11-.29-2-.03-2 .584 0 .779-.343.763-1.158-.052-.876-.876-.847-1.531.123-2.7.704-.848 1.021-1.542.705-1.542-.316 0 .035-2.025.78-4.5s1.118-4.5.83-4.5c-.289 0-.004-.628.633-1.395.636-.767 1.088-1.779 1.004-2.25-.085-.47-.066-1.08.041-1.355.107-.275.342-1.264.522-2.198.18-.934 1.212-3.634 2.293-6C40.442 262.77 42.831 256 41.997 256c-.458 0-1.601 2.016-2.542 4.48-2.448 6.408-3.184 4.947-3.384-6.713-.207-12.137-1.994-15.928-2.223-4.717-.084 4.098-.212 8.125-.285 8.95-.073.825.308 1.805.846 2.178.626.435.562 1.591-.178 3.215-.737 1.617-.801 2.755-.177 3.14.538.333.655 1.129.26 1.769-.396.639-.771 1.846-.834 2.68-.346 4.589-3.002 13.813-3.83 13.301-.57-.352-.723.332-.373 1.668.326 1.245.237 3.228-.196 4.406-1.96 5.331-2.142 7.643-.6 7.643.835 0 1.519.62 1.519 1.378 0 2.511-3.044 8.713-3.99 8.128-.512-.316-1.794 1.213-2.85 3.399-1.552 3.213-1.659 4.073-.557 4.496.75.288 1.098 1.215.773 2.061-.324.846-.243 2.326.181 3.288.423.962.865 2.087.982 2.5.116.413.305.863.419 1 .115.137.328 1.352.473 2.699.145 1.347.812 2.632 1.481 2.855.984.328 2.794 3.689 3.337 6.196.059.275.703 1.095 1.43 1.821 1.778 1.779 1.675 3.252-.179 2.541-.825-.317-1.5-.078-1.5.531S30.633 342 31.406 342c.774 0 3.023 2.25 4.999 5 1.975 2.75 4.069 5 4.652 5 .584 0 .783.45.443 1s-.115 1 .5 1 .858.421.54.935c-.318.515.555 2.069 1.941 3.455 1.385 1.385 2.519 2.097 2.519 1.581s1.531-.208 3.403.684c3.411 1.627 4.597 4.198 4.597 9.97 0 1.306.439 2.375.975 2.375.634 0 .634.898 0 2.565C54.723 378.859 54.733 381 56 381c.55 0 1-.969 1-2.153v-2.153L59 379c1.1 1.268 2 2.604 2 2.969 0 .364 1.912 1.728 4.25 3.029 5.153 2.87 9.75 7.023 9.75 8.808 0 .737.506.999 1.155.599.715-.443.883-.275.44.44-.393.637-.126 1.219.596 1.297 3.212.347 5.558.528 8.923.687 3.521.167 3.631.294 4.265 4.916.398 2.904.256 4.877-.365 5.084-.557.185-1.014.777-1.014 1.313 0 .537.45.698 1 .358.55-.34 1.007.196 1.015 1.191.011 1.404.31 1.249 1.332-.691.849-1.611 1.021-3.323.485-4.815-.458-1.273-.832-2.769-.832-3.323 0-1.583 5.172 2.892 7.205 6.235 1.01 1.66 3.851 5.122 6.315 7.693 2.464 2.571 4.48 5 4.48 5.397 0 .397 1.013 1.789 2.25 3.093 1.238 1.303 2.925 3.238 3.75 4.298 6.368 8.186 8.697 11.101 10 12.512.825.893 3.075 3.75 5 6.348 1.925 2.599 4.25 5.55 5.167 6.56.916 1.009 1.404 2.098 1.083 2.419-.321.321-.073.583.552.583 1.224 0 9.416 10.573 8.968 11.576-.148.333.967 1.255 2.48 2.047 1.512.792 2.75 1.909 2.75 2.48 0 1.359 2.608 3.955 3.289 3.274.29-.29 1.131-.644 1.869-.788.738-.143 4.942-1.948 9.342-4.011 4.4-2.062 10.025-4.562 12.5-5.556 2.475-.993 7.65-3.259 11.5-5.035a795.15 795.15 0 0 1 14.5-6.471c21.104-9.121 32.113-13.956 37.958-16.672 3.552-1.65 7.252-3.059 8.224-3.133.971-.073 1.988-.713 2.261-1.422.276-.721 2.077-1.289 4.085-1.289 1.974 0 3.36-.373 3.078-.828-.673-1.09 7.071-4.49 8.381-3.68.557.344 1.013.204 1.013-.312 0-.758 4.964-3.409 7-3.738.275-.044 3.2-1.357 6.5-2.918 3.3-1.56 6.337-2.766 6.75-2.68.413.086.75-.233.75-.708 0-.675 7.482-4.168 10-4.669.753-.149 8.122-3.524 11.262-5.158 1.558-.81 3.683-1.144 4.875-.765 1.564.496 1.908.338 1.324-.607-.561-.908-.308-1.092.875-.638 1.08.414 1.664.13 1.664-.811 0-.798 1.238-1.755 2.75-2.127 1.512-.373 3.759-1.331 4.992-2.129 1.234-.799 2.921-1.192 3.75-.873.838.321 1.508.034 1.508-.646 0-1.063 2.724-2.363 7.976-3.807.812-.223 2.082-.968 2.822-1.656.74-.688 2.256-1.25 3.369-1.25 1.113 0 3.219-.812 4.679-1.804 1.46-.992 4.679-2.621 7.154-3.62 7.167-2.891 9-3.858 9-4.745 0-.457-.498-.831-1.107-.831s-.865-.631-.569-1.402c.296-.771.252-1.688-.097-2.038-1.2-1.2-1.32-5.744-.187-7.108 1.653-1.991.685-2.924-6.541-6.306-3.574-1.672-6.499-3.59-6.499-4.26 0-.671-.284-.935-.631-.588-.348.347-1.573-.028-2.723-.833-1.15-.806-2.875-1.465-3.833-1.465-.959 0-2.222-.896-2.808-1.99-.585-1.095-1.389-1.941-1.785-1.882-.396.06-.945.025-1.22-.078-.275-.104-1.82-.36-3.433-.57-1.613-.211-3.323-1.079-3.8-1.931-.476-.852-1.533-1.549-2.348-1.549s-1.74-.672-2.055-1.494c-.316-.822-.996-1.233-1.513-.914-.516.319-2.085-.171-3.486-1.089-1.401-.917-3.688-1.875-5.081-2.128-2.809-.509-10.595-4.449-11.117-5.625-.184-.413-.971-.75-1.75-.75-.78 0-1.417-.42-1.417-.933 0-.513-1.012-1.226-2.25-1.586-4.713-1.369-23.158-10.653-24.393-12.279-.711-.936-1.308-1.349-1.325-.917-.018.432-.984.276-2.148-.347-1.686-.903-2.028-.859-1.683.215.237.741 16.902 9.672 37.033 19.846s36.437 18.663 36.236 18.864c-.201.201-8.376-2.8-18.168-6.67-59.336-23.45-79.865-31.163-81.739-30.71-1.135.274-1.437.219-.671-.123 2.059-.919-4.719-3.531-7.299-2.812-1.525.425-1.718.324-.711-.373 1.81-1.253-1.712-2.51-4.491-1.603-1.575.514-1.64.43-.391-.501 1.149-.856.371-.992-3.321-.583-4.644.516-4.795.452-4.115-1.726 1.04-3.334 2.24-3.705 7.336-2.27 13.955 3.931 37.073 8.726 38.737 8.035 2.223-.923-1.653-2.434-7.637-2.977-3.451-.313-13.692-2.588-21.5-4.775-2.2-.616-4.9-1.303-6-1.526a167.42 167.42 0 0 1-3.5-.751c-.825-.19-2.255-.379-3.178-.421-1.221-.056-2.001-1.644-2.861-5.827-.651-3.163-2.319-8.548-3.708-11.967-1.821-4.484-2.378-7.316-1.997-10.158.291-2.167.175-4.319-.258-4.783-1.189-1.272-2.278-7.342-1.318-7.342 1.344 0 3.451-3.978 2.728-5.149-.399-.646-1.54.036-2.888 1.726l-2.228 2.794-.711-3.791c-.391-2.085-1.948-7.006-3.46-10.935-1.512-3.93-3.561-10.52-4.554-14.645-.992-4.125-3.083-10.855-4.646-14.956-1.564-4.101-2.703-7.595-2.533-7.766.171-.17 5.413 5.21 11.649 11.956a5252.111 5252.111 0 0 0 14.82 15.982l3.482 3.715-4.67 7.023c-5.302 7.974-5.324 8.03-2.844 7.382 1.003-.263 2.382-2.021 3.064-3.907.682-1.886 1.886-3.429 2.676-3.429.864 0 1.435-.995 1.435-2.5 0-1.375.45-2.5 1-2.5 2.725 0 .275-4.252-6.392-11.095-6.287-6.452-7.338-8.021-7.036-10.495.196-1.601.122-2.164-.164-1.252-.459 1.465-.777 1.406-2.727-.5-1.418-1.387-1.845-2.46-1.194-3.002.6-.501.338-.63-.643-.318-1.703.542-4.844-2.125-4.844-4.112 0-.614-1.22-1.704-2.71-2.421-3.626-1.746-8.005-9.249-8.64-14.805-.961-8.405-1.91-13.043-2.781-13.581-.478-.295-.869-1.425-.869-2.509 0-1.085-.658-2.225-1.462-2.534-1.413-.542-3.141-4.094-2.736-5.626.109-.412-.491-.75-1.333-.75-.843 0-1.791-.675-2.107-1.5-.317-.825-1.352-1.5-2.3-1.5-.948 0-2.326-1.125-3.062-2.5-.736-1.375-1.951-2.5-2.7-2.5-.75 0-1.621-.672-1.936-1.494-.316-.822-.911-1.286-1.323-1.032-1.23.761-2.953-4.096-2.316-6.53.408-1.56.233-2.036-.567-1.541-.637.393-1.158.238-1.158-.344s.338-1.059.75-1.059c1.687-.001.498-6.88-2.159-12.5-4.57-9.663-4.539-15.077.114-20.082 2.087-2.246 4.695-5.328 5.795-6.85 4.504-6.233 7.747-10.112 9.084-10.868 2.379-1.343 4.748-6.768 3.501-8.015-1.688-1.688-1.27-5.886.915-9.185 1.345-2.031 1.989-2.456 1.993-1.317.004.925 1.019 1.998 2.257 2.384 1.237.387 2.55 1.171 2.918 1.744.367.572 1.66 1.192 2.873 1.377 2.183.334 2.187.309.399-2.425-2.533-3.873-4.142-5.342-5.511-5.031-2.062.469-2.031-1.746.056-3.985 1.108-1.19 2.022-2.745 2.03-3.455.012-1.023.192-1.014.862.043.643 1.014.976.834 1.391-.75.375-1.437 1.351-2.085 3.138-2.085 1.427 0 2.594-.436 2.594-.969 0-.532-.68-.707-1.511-.388-1.136.435-1.342.117-.83-1.282 1.046-2.856 5.372-7.772 7.586-8.621 1.361-.522 1.82-1.384 1.463-2.75-.287-1.094-.086-1.99.445-1.99s.727-.385.437-.855c-.701-1.134 2.553-3.928 10.151-8.714 5.836-3.675 7.137-5.541 6.228-8.931-.761-2.836-.654-6.5.19-6.5.527 0 .712-.4.41-.888-.302-.489 1.162-2.401 3.254-4.25 2.092-1.849 4.098-4.15 4.459-5.112.36-.963 1.344-1.75 2.187-1.75.842 0 1.545-.562 1.563-1.25.078-3.061 2.925-5.258 5.074-3.916 1.923 1.201 2.036 1.086 1.739-1.75-.175-1.669.081-3.016.57-2.994.488.023 1.777-2.014 2.864-4.525 1.977-4.568 4.278-5.884 5.359-3.065.653 1.702 3.362 2.057 3.362.441 0-.582-.337-.855-.75-.605s-1.397-.245-2.187-1.099c-1.288-1.392-.986-1.48 2.918-.856 2.395.383 4.854 1.378 5.463 2.212 1.35 1.846 4.661.844 3.886-1.176-.806-2.101 3.339-1.802 4.62.333.99 1.65 1.109 1.652 2.082.032 1.584-2.638 7.951-2.138 8.02.63.052 2.053.08 2.05 1.622-.162C286.42 2.748 289 2.237 289 4.393c0 .766.675 1.652 1.5 1.969.825.316 1.5.192 1.5-.277 0-.878 3.349-2.274 6-2.501.825-.071 1.806.557 2.18 1.394.564 1.264.691 1.225.75-.228.055-1.368.957-1.75 4.129-1.75 2.451 0 3.814.396 3.441 1-.801 1.295-.167 1.261 2.949-.159 2.093-.953 2.872-.86 4.404.526 1.66 1.503 1.996 1.52 3.126.158.753-.907 2.905-1.525 5.31-1.525 2.224 0 3.828-.216 3.564-.48C326.792 1.459 3.501.987 1.75 2.044M332.562 2c-3.753.477-3.855.582-2.178 2.25 1.678 1.67 1.664 1.75-.313 1.75-2.301 0-2.751 1.457-.821 2.663 1.893 1.183 3.675 1.268 4.33.207.324-.523 1.507-.66 2.629-.304 1.361.432 1.813.279 1.357-.459-.376-.609-.152-1.107.497-1.107.875 0 .893-.348.068-1.342C336.664 3.89 337.684 3 341.18 3c2.878 0 6.705 1.663 8.055 3.5.415.565.741.238.75-.75.008-.963.517-1.75 1.132-1.75.651 0 .917 1.041.638 2.5-.263 1.375-.09 2.5.384 2.5.473 0 .893-1.012.931-2.25.065-2.061.134-2.088.825-.323.654 1.669.838 1.711 1.374.314.34-.886.081-1.804-.575-2.039-.657-.236-.82-.827-.362-1.314.47-.5 1.448-.042 2.25 1.055.78 1.066 1.425 1.516 1.433.998.009-.517.452-.266.985.559.782 1.21.972 1.058.985-.781.008-1.255-.547-2.47-1.235-2.699-2.012-.671-21.886-1.066-26.188-.52m96.165-.393c-.22.219-10.373.415-22.563.435-13.486.022-22.164.412-22.164.997 0 .529-.693.961-1.539.961-1.188 0-1.273.285-.372 1.25 1.753 1.875 5.733 1.806 6.243-.109.24-.903.488-.152.552 1.668.064 1.82.515 3.062 1.003 2.761.487-.301 1.447.128 2.132.953.948 1.142 1.574 1.23 2.614.367 1.025-.851 1.367-.839 1.367.047 0 .649.45.903 1 .563.55-.34 1-.141 1 .441s.375 1.059.833 1.059c1.227 0 1.045-3.365-.234-4.326-.781-.587-.738-.973.151-1.333.688-.279 1.25-1.097 1.25-1.817 0-.721.725-1.588 1.611-1.928 1.182-.454 1.448-.192.997.983-.896 2.335.295 3.746 1.981 2.347 1.137-.944 1.411-.77 1.411.893 0 2.362 1.551 3.716 2.5 2.181.351-.568 1.057-.774 1.569-.457.512.316.931.11.931-.459 0-.675.824-.721 2.373-.132 1.506.572 2.748.527 3.399-.124 1.485-1.485 5.252-.054 4.566 1.735-.388 1.01-.084 1.277.988.866.896-.344 1.324-1.297 1.017-2.262-.458-1.437-.378-1.46.583-.167.966 1.3 1.36 1.209 2.949-.681 1.646-1.958 1.991-2.025 3.364-.651 1.322 1.322 1.851 1.341 3.895.143 1.302-.762 3.266-1.323 4.366-1.246 1.1.076 2.816.206 3.813.287 1.275.104 1.72.815 1.5 2.398-.22 1.58.133 2.147 1.187 1.905a140.56 140.56 0 0 1 3.385-.718c2.132-.423 1.943-.262 3.437-2.937 1.081-1.936 1.118-1.927 1.148.285.025 1.906.336 2.122 1.868 1.302 3.02-1.616 6.308-.293 4.895 1.97-1.339 2.143-.474 3.525 1.45 2.318.725-.454 2.105-.696 3.067-.537.962.158 1.75-.191 1.75-.775 0-.585.477-1.063 1.059-1.063s.781.45.441 1-.141 1 .441 1S469 12.235 469 11.3c0-1.354.253-1.447 1.242-.458.988.988.938 1.433-.25 2.184-.821.519-.992.95-.38.959.672.009.99 1.501.805 3.765l-.308 3.75 1.255-2.774c1.202-2.656 3.02-2.889 2.01-.257-.641 1.668 2.648 2.909 4.035 1.522.766-.766.646-1.345-.417-2.017-1.187-.75-1.019-.947.817-.959 1.298-.008 2.037.426 1.687.992-.343.554.081 1.277.941 1.607.859.33 1.556 1.339 1.548 2.243-.014 1.429-.146 1.448-1.019.143-.873-1.306-1.137-1.271-2.046.271-.573.974-1.465 1.51-1.981 1.191-.517-.319-.939-.055-.939.587 0 .746.903.941 2.5.54 2.913-.731 3.158.026.839 2.588-2.055 2.272-1.015 3.619 1.324 1.716 1.507-1.227 1.633-1.184 1.056.357-.79 2.106.117 2.189 2.684.246 1.717-1.299 1.741-1.503.25-2.075-2.058-.79-2.172-4.285-.164-5.055.819-.314 2.756-2.294 4.304-4.399 1.972-2.682 3.22-3.577 4.17-2.99.746.461 1.959.606 2.696.323.738-.282 1.341-.016 1.341.593S495.902 17 494.559 17c-2.501 0-4 1.226-2.874 2.352.347.347 1.194.163 1.883-.408 1.684-1.398 4.837 2.863 3.4 4.595-1.086 1.308-.182 7.461 1.096 7.461.874 0 2.039-6.897 1.857-11-.252-5.723-1.157-9.972-2.01-9.445-.501.31-.911.086-.911-.496S497.477 9 498.06 9c.614 0 .93-1.579.75-3.75-.253-3.063-.677-3.713-2.31-3.55-1.1.11-12.687.262-25.75.338-21.415.123-23.752.3-23.765 1.799-.012 1.285-.207 1.361-.856.337-.463-.729-2.593-1.501-4.735-1.716-2.142-.215-5.778-.584-8.081-.821-2.303-.236-4.367-.25-4.586-.03M3.065 31.809c-.036.72-.515 1.031-1.065.691-.55-.34-1-.141-1 .441v1.809c0 .413.413.75.917.75 1.893 0 2.162 1.34.383 1.905-1.555.493-1.871 1.718-1.973 7.659-.101 5.883.129 6.975 1.369 6.499.944-.362 1.681.162 2.013 1.433C3.997 54.098 4.646 55 5.151 55c.983 0 .732-3.809-.366-5.557-.988-1.571-.19-4.981 1.098-4.693.614.138 1.117-.477 1.117-1.367 0-1.124.609-1.457 2-1.093 2.205.576 2.466-.022 1-2.29-.646-1-.974-1.083-.985-.25-.035 2.847-1.88.913-3.816-4-1.138-2.888-2.098-4.661-2.134-3.941m494.981 9.105c-.742 1.386-.769 2.086-.081 2.086 1.142 0 1.375 2.95.428 5.418-.334.87-1.234 1.582-2 1.582-.819 0-1.393 1.03-1.393 2.5 0 1.375-.562 2.507-1.25 2.515-.895.011-.854.266.143.898.816.517 1.166 1.753.844 2.984-.302 1.155-.111 2.372.425 2.703.536.331.733 1.232.438 2.001-.296.77-.046 1.399.554 1.399.75 0 .725.441-.08 1.411-.884 1.065-.888 1.586-.016 2.125.852.526.816.924-.137 1.513-1.022.631-1.037 1.107-.072 2.269 1.319 1.589-.757 4.666-3.17 4.697-.713.01-.605.379.273.934.799.506 1.76.729 2.137.496 1.178-.728 1.581 2.75 1.369 11.805-.114 4.813.14 8.75.563 8.75.422 0 .39 1.676-.072 3.725-.498 2.21-.46 3.959.093 4.301.548.338.586 1.793.094 3.525-.882 3.098-.811 4.748.365 8.451.455 1.435.344 2.02-.308 1.617-1.525-.942-1.813.899-1.178 7.539.407 4.261.174 6.555-.81 7.96-.761 1.086-1.138 2.614-.838 3.396.3.782.115 1.688-.411 2.013-1.562.965-1.094 2.204 1.044 2.763 1.1.287 2 .04 2-.55 0-.59.274-.799.609-.464 1.107 1.106-2.063 6.724-3.794 6.724-3.18 0-2.965 2.033.364 3.444 3.259 1.38 3.207 1.507-1.179 2.86-1.17.361-1.06.638.5 1.257 3.084 1.223 3.542 2.668 1.429 4.501-2.37 2.055-2.493 3.092-.265 2.237 1.207-.463 1.44-.276.847.683-.52.841-.147 1.811 1.027 2.67 1.015.741 1.308 1.348.653 1.348-1.342 0-1.702 8.566-.393 9.375 1.869 1.155 3.431-1.079 2.27-3.248-.8-1.495-.831-2.702-.103-4.061 1.446-2.703 1.29-4.066-.465-4.066-.825 0-1.5-.675-1.5-1.5s.419-1.5.93-1.5c.558 0 .586-1.2.07-3-.67-2.336-.544-3 .57-3 1.877 0 1.817-1.471-.141-3.429-.865-.864-1.132-1.571-.594-1.571.538 0 .742-.9.455-2-.288-1.1-.036-2 .559-2 1.092 0 1.264-11.431 1.201-79.905-.015-16.173-.221-29.599-.458-29.836-.236-.237-.932.508-1.546 1.655M86.719 90.683c-.265.45-1.679 4.769-3.143 9.6-1.463 4.831-3.091 8.517-3.618 8.191-.527-.326-.958.028-.958.785 0 3.246-3.212 12.016-3.958 10.808-.504-.815-1.022.015-1.457 2.334-.372 1.979-1.078 3.599-1.569 3.599-.752 0-1.755 4.439-2.48 10.975-.332 2.994-1.859 7.535-2.726 8.106-.484.32-1.097 1.77-1.36 3.224-.264 1.453-.923 3.809-1.465 5.234-1.712 4.503-1.021 6.179 1.015 2.461 1.054-1.925 1.935-4.101 1.958-4.835.023-.735 1.617-4.533 3.542-8.44 1.925-3.908 3.5-7.868 3.5-8.801 0-2.386 4.749-16.724 6.931-20.924 3.094-5.958 8.553-27.004 5.788-22.317m17.868 69.519c-.42.936-.465 2.186-.099 2.778.365.592-.382 1.948-1.662 3.015-1.963 1.636-2.053 1.944-.576 1.972.963.018 1.75.51 1.75 1.092 0 .582-.35.843-.778.578-.428-.264-1.89.374-3.25 1.419l-2.472 1.9 2.25.022c1.237.012 2.264.585 2.28 1.272.017.7.475.487 1.042-.485 1.179-2.023 5.928-2.013 5.928.012 0 .738.446 1.065.992.728.545-.337 2.051.447 3.346 1.742 2.587 2.587 5.51 2.7 3.383.131-3.224-3.894-5.061-5.187-6.581-4.635-1.35.491-1.301.211.278-1.588 1.219-1.388 2.585-1.972 3.75-1.602 2.166.688 2.353-.459.49-3.006-1.286-1.759-1.407-1.743-2.896.382-.876 1.252-1.824 1.78-2.174 1.214a1.192 1.192 0 0 1 .396-1.633c1.307-.808 1.318-2.51.016-2.51-.55 0-1 .661-1 1.469 0 .929-.582 1.245-1.584.86-1.275-.489-1.324-.772-.25-1.453.893-.566.944-.85.154-.861-.65-.008-1.358-1.027-1.575-2.265-.337-1.929-.502-2.007-1.158-.548m-4.975 17.329c.913 1.392 1.408 2.782 1.102 3.089-.307.306-1.261-.72-2.12-2.282-1.492-2.711-1.536-2.481-.968 5.162.326 4.4.63 8.675.675 9.5.045.825-.236 3.525-.624 6-.47 2.998-.385 4.009.254 3.029.528-.809 1.295-1.136 1.704-.727.41.409-.2 1.406-1.355 2.214-1.666 1.167-2.077 2.454-1.991 6.227.059 2.617.283 3.937.497 2.935.376-1.762.437-1.762 1.883 0 1.424 1.736 1.467 1.737.924.02-.333-1.053-.159-1.548.418-1.191.544.336.989-.091.989-.948 0-2.287 1.479-1.901 2.902.757 1.002 1.873 1.848 2.226 4.419 1.842 1.748-.261 2.617-.666 1.929-.899-.687-.234-1.25-.865-1.25-1.401 0-.537.45-.698 1-.358.55.34 1 .115 1-.5 0-.628.548-.789 1.25-.367.72.433.614-.035-.25-1.104-1.333-1.648-1.333-1.796 0-1.334.825.286 1.438 1.254 1.363 2.152-.076.898.331 1.342.904.988.608-.376.743-.16.324.518-.404.654-.016 1.43.889 1.778 2.134.818 2.945-.133 1.993-2.338-1.307-3.029-1.49-5.165-.496-5.779.523-.323.05-1.487-1.05-2.587-1.868-1.868-1.819-4.596.061-3.434.468.289 1.459-.083 2.202-.826.743-.743 2.354-1.888 3.581-2.544 1.286-.689 2.223-2.13 2.214-3.408-.011-1.595-.252-1.841-.861-.881-.689 1.087-.951 1.059-1.416-.152-.356-.928.154-1.674 1.361-1.99 3.399-.889 2.398-3.735-1.069-3.042-3.12.624-3.863-.387-1.8-2.45.933-.933.924-1.476-.042-2.442-1.337-1.337-3.55.799-2.533 2.444.271.439.016.798-.566.798s-1.059-.45-1.059-1-.869-1-1.932-1c-1.761 0-3.76 2.242-6.639 7.445-.59 1.065-1.715 2.148-2.5 2.408-1.228.406-1.232.233-.031-1.222 1.217-1.473 1.152-1.88-.5-3.13-1.044-.791-1.448-1.497-.898-1.569.55-.072-.123-.444-1.495-.826-1.372-.381-2.636-1.426-2.808-2.321-.232-1.204.223-1.488 1.745-1.09 2.393.626 2.403.592.96-3.546-.604-1.732-1.739-3.149-2.523-3.149-1.172 0-1.131.449.233 2.531m396.5 21.121c-.625 1.374-.807 3.027-.404 3.673 1.228 1.966 1.376 4.869.314 6.148-.552.666-.709 1.507-.347 1.869.362.362-.204.665-1.258.673-1.432.012-1.579.23-.583.861 1.069.678 1.013.969-.285 1.467-1.488.571-1.485.825.031 3.139 1.508 2.301 1.514 2.725.073 4.925-1.39 2.121-1.399 2.476-.081 2.982 1.312.504 1.319.857.057 2.843-.969 1.524-1.36 4.481-1.192 9.018.161 4.362-.138 6.755-.844 6.765-.601.009-.439.429.359.934.799.506 1.882.653 2.408.329.562-.348.704.369.345 1.74-.409 1.567-.051 2.756 1.093 3.625 1.062.807 1.232 1.305.452 1.325-.687.018-1.243.819-1.235 1.782.013 1.4.192 1.471.899.355.71-1.122.981-1.024 1.38.5.459 1.749.849-7.919.685-16.942-.045-2.43.313-3.6.975-3.191.602.372 1.046-.253 1.046-1.472 0-1.165-.45-1.84-1-1.5-.55.34-1 .168-1-.382s.45-1.278 1-1.618c1.436-.887 1.236-4.497-.25-4.515-.969-.012-.961-.199.039-.833.933-.592 1.026-1.508.338-3.318-.566-1.49-.588-3.074-.054-3.917 1.22-1.928 1.166-5.183-.073-4.417-1.304.806-1.276-1.645.059-5.155.843-2.217.749-3.012-.457-3.894-1.29-.944-1.31-1.32-.135-2.53 1.13-1.163 1.145-1.634.082-2.593-1.02-.921-1.543-.637-2.437 1.324m-342.861 63.885c-1.207.845-4.904 2.881-8.216 4.524-9.103 4.517-12.174 11.134-10.009 21.565.608 2.926 1.241 6.345 1.407 7.597.166 1.253.566 2.952.887 3.777.322.825.788 2.85 1.035 4.5.248 1.65.694 3.675.991 4.5.297.825.794 4.348 1.104 7.83.87 9.789 3.514 20.028 6.19 23.971 1.335 1.968 2.215 4.135 1.954 4.816-.262.68.128 1.737.865 2.349.737.612 2.338 3.57 3.557 6.573 1.219 3.004 2.665 5.461 3.214 5.461.548 0 .802 1.326.564 2.947-.237 1.621-.12 2.754.262 2.518.382-.236 1.273 1.701 1.981 4.303.708 2.603 2.59 7.53 4.182 10.95 1.593 3.419 3.446 9.2 4.118 12.845l1.224 6.627 2.415-9.845c1.328-5.415 2.592-9.018 2.81-8.007.217 1.011-.535 5.736-1.672 10.5s-3.93 16.537-6.207 26.162a5181.62 5181.62 0 0 1-7.523 31.332c-4.039 16.51-3.973 15.57-.884 12.668 1.375-1.292 2.5-1.875 2.5-1.297 0 .579-.686 1.621-1.524 2.317-2.384 1.979-1.042 2.243 2.94.579 1.998-.834 4.409-1.268 5.359-.964 1.31.421 1.401.322.379-.409-1.597-1.142 4.369-3.639 6.115-2.56.635.393.736.152.26-.619-.58-.939-.172-1.089 1.596-.589 1.908.541 2.08.451.875-.458-1.21-.912-1.017-1.023 1-.575 1.375.306 1.88.279 1.123-.06-1.283-.574 6.331-4.191 33.377-15.85 5.5-2.371 12.475-5.427 15.5-6.792 3.025-1.364 16.975-7.532 31-13.707 40.905-18.009 85.93-38.308 99-44.631l6.5-3.145-3.5-1.58c-1.925-.869-9.575-3.875-17-6.679-14.494-5.475-32.642-12.533-61.78-24.026-17.686-6.976-18.344-7.153-20.25-5.428-1.993 1.804-2.845.748-.937-1.16 1.212-1.212-.376-1.951-21.269-9.89-15.272-5.803-15.537-5.86-22.449-4.876-7.765 1.107-15.62-3.372-21.078-12.017l-2.525-4.001-2.227 9.459c-1.225 5.202-4.84 20.708-8.034 34.458-3.194 13.75-5.952 25.187-6.129 25.417-1.611 2.086-.383-4.491 5.23-27.998 9.989-41.832 10.094-42.393 8.604-46.181-.701-1.781-1.427-3.925-1.614-4.764-.438-1.963-3.622-7.828-8.552-15.756-2.149-3.455-5.338-8.968-7.088-12.25L169.721 261h-7.138c-4.802 0-7.856.503-9.332 1.537m341.386 51.571c-.813 1.16-1.913 1.84-2.445 1.511-.532-.329-1.168.767-1.413 2.435-.245 1.669-.071 3.266.388 3.549.458.283.833-.429.833-1.583 0-1.757.235-1.889 1.439-.809 1.1.985 1.159 1.525.25 2.289-1.779 1.496-1.903 4.077-.262 5.44.8.663 1.208 1.848.907 2.633-.353.918.115 1.432 1.309 1.442 1.4.012 1.529.224.522.862-.735.466-1.297 1.134-1.25 1.485.047.351.033.975-.03 1.388-.063.413-.034 1.547.066 2.522.1.975-.185 1.709-.634 1.632-1.899-.327-3.317.167-3.317 1.155 0 .582.45.781 1 .441 1.749-1.081 3.227.522 1.926 2.089-.923 1.113-.839 1.411.4 1.411 1.228 0 1.472.816 1.117 3.75-.249 2.063-.477 5.849-.506 8.415-.037 3.262-.521 4.845-1.608 5.262-1.256.482-1.317.883-.319 2.085.987 1.189.971 1.488-.079 1.488-.822 0-.624.504.531 1.348 1.014.742 1.552 1.82 1.197 2.396-.994 1.607 1.709 2.191 3.633.785 1.97-1.441 2.228-3.189.552-3.748-.736-.245-1.088-2.633-.969-6.583.134-4.46-.173-6.202-1.095-6.213-.838-.01-.915-.269-.223-.75 1.41-.981 1.622-26.31.234-27.985-.729-.879-.685-1.25.146-1.25.649 0 .873-.498.497-1.106-.376-.609-.644-3.084-.595-5.5.1-4.988-.137-5.234-2.202-2.286m-.191 158.979c-.369.598-.171 1.588.441 2.2 1.376 1.376 1.473 3.053.128 2.222-.611-.377-.753.55-.375 2.441.397 1.986.209 3.05-.541 3.05-.778 0-.649.97.401 3 .983 1.901 1.149 3 .454 3-.603 0-1.772.675-2.597 1.5-1.286 1.286-1.294 1.5-.051 1.5.797 0 2.005-.67 2.685-1.489.68-.819 1.668-1.222 2.196-.896 1.586.981-2.653 3.286-6.519 3.547-3.149.212-6.401 2.838-3.514 2.838.763 0 .747.415-.053 1.378-1.461 1.76 2.072 2.887 5.256 1.676 1.179-.448 2.593-.85 3.143-.895.55-.044 1.169-1.11 1.375-2.369.358-2.188.41-2.201 1.179-.29.532 1.321.829-.291.876-4.75.049-4.763-.298-6.755-1.18-6.765-.86-.011-.909-.245-.155-.75 1.438-.965 1.649-7.966.266-8.821-.724-.447-.632-.944.282-1.524.997-.632.776-.863-.834-.875-1.205-.008-2.493.474-2.863 1.072" fill="#d3d3d3" fill-rule="evenodd"/></svg>