<svg xmlns="http://www.w3.org/2000/svg" width="500" height="376"><path d="M0 188.002v188.002l250.25-.252 250.25-.252.253-187.75L501.005 0H0v188.002m.49.498c0 103.4.117 145.848.26 94.329.143-51.518.143-136.118 0-188C.607 42.948.49 85.1.49 188.5M195.931 8.25c-.038.137-.239 1.554-.447 3.148-.479 3.666-2.236 5.621-3.383 3.765-.535-.866-1.004.074-1.36 2.731-.299 2.228-1.263 4.771-2.142 5.65-.88.879-1.599 2.609-1.599 3.844 0 1.235-1.406 4.916-3.124 8.179-5.71 10.846-6.62 12.892-8.236 18.525-.882 3.076-2.512 6.747-3.622 8.158-1.11 1.411-2.018 2.857-2.018 3.214 0 1.555-6.309 13.176-8.019 14.768-1.036.965-2.311 3.305-2.835 5.2-.523 1.895-2.074 4.936-3.447 6.757-1.372 1.821-2.67 4.211-2.883 5.311-.345 1.782-1.091 1.976-6.851 1.782l-6.465-.219 5.497 1.981c3.023 1.089 6.11 1.745 6.861 1.457.925-.355 1.168-.011.753 1.069-.336.877-.611 1.808-.611 2.071 0 .262-.45.199-1-.141-.55-.34-1-.19-1 .332 0 .523-1.8 1.671-4 2.551-4.21 1.685-4.826 2.687-2.723 4.432 2.5 2.075 1.859 6.312-1.602 10.581-1.829 2.257-4.038 5.454-4.908 7.104-3.404 6.453-7.703 16.134-8.327 18.75-.361 1.512-1.206 2.75-1.877 2.75-.672 0-2.289 2.363-3.595 5.25s-2.825 5.858-3.377 6.601c-.552.743-1.093 1.964-1.203 2.714-.11.749-1.087 2.617-2.17 4.149-1.772 2.505-11.322 20.912-11.173 21.532.034.14-.637 1.927-1.492 3.972-1.823 4.363-1.917 5.125-.528 4.267.563-.349.901-.048.75.667-.151.715.772 1.46 2.051 1.654 1.468.223 2.135.853 1.807 1.708-.309.805.82 2.146 2.779 3.302 3.604 2.126 7.438 5.172 11.878 9.434 1.575 1.513 3.073 2.75 3.329 2.75.255 0 1.443.911 2.638 2.025 1.195 1.113 2.751 1.802 3.458 1.531.707-.271 1.285-.144 1.285.283 0 1.157 8.828 7.161 10.529 7.161.809 0 1.471.612 1.471 1.36 0 .748 1.155 2.21 2.566 3.25 4.389 3.233 8.722 6.778 11.787 9.64 3.614 3.376 3.253 3.41 5.283-.5.927-1.787 1.873-2.699 2.1-2.025.563 1.667 7.264-4.915 7.264-7.135 0-.939.368-1.481.818-1.203.45.279 2.128-.707 3.73-2.191 1.602-1.483 3.259-2.583 3.682-2.446.424.138.77-.132.77-.598 0-2.784 12.193-13.537 15.5-13.67 1.775-.071 13.5-10.239 13.5-11.707 0-.935 1.413-2.703 6.75-8.445 1.238-1.331 2.25-2.608 2.25-2.837 0-.229 1.922-2.394 4.271-4.81 2.349-2.417 5.782-7.495 7.63-11.284 1.847-3.789 4.2-7.62 5.229-8.512 2.419-2.098 2.359-4.572-.213-8.791-3.275-5.372-9.212-12.096-10.68-12.096-.736 0-1.98-1.533-2.763-3.408-.783-1.874-2.476-4.236-3.761-5.25-1.286-1.013-2.76-2.564-3.276-3.446-1.266-2.167-7.1-9.306-11.687-14.301-2.062-2.246-3.75-4.617-3.75-5.267 0-.651-1.8-1.977-4-2.948-2.2-.971-4.001-2.016-4.003-2.322-.001-.307-2.729-.698-6.061-.869-3.332-.171-8.718-1.161-11.969-2.2-3.251-1.038-7.611-2.175-9.689-2.526-8.513-1.437-9.25-2.732-2.195-3.86 2.27-.363 5.407-1.322 6.972-2.132 1.565-.809 5.118-1.471 7.895-1.471 2.778 0 5.05-.416 5.05-.925 0-.508 1.575-.729 3.5-.49s3.5.019 3.5-.488c0-.948 6.19-2.37 11.5-2.642 1.65-.084 4.125-.266 5.5-.404l2.5-.25L208 91c-2.264-.725-2.298-.81-.359-.9 1.177-.055 4.102.79 6.5 1.878 2.397 1.088 5.822 1.988 7.609 2 2.165.015 3.25.507 3.25 1.474 0 1.07.982 1.364 3.724 1.118 2.704-.242 5.143.466 8.898 2.586 2.845 1.606 6.209 3.119 7.475 3.363 1.266.244 2.685 1.127 3.152 1.962.468.835 1.296 1.519 1.841 1.519 1.165 0 5.585 3.025 12.019 8.225 2.535 2.049 6.585 4.587 9 5.639 8.711 3.798 13.129 10.031 8.072 11.391-.945.254-2.465 2.705-3.472 5.598-.985 2.831-2.223 5.147-2.75 5.147-.528 0-.959.873-.959 1.941s-.457 2.224-1.016 2.569c-.559.346-.78 1.011-.491 1.478.289.468-.041 1.458-.734 2.2-1.931 2.069-4.408 6.98-5.201 10.312-.393 1.65-1.27 3.675-1.95 4.5-.679.825-2.527 4.875-4.105 9-1.579 4.125-3.672 8.412-4.651 9.527-1.197 1.362-1.573 2.838-1.147 4.5.884 3.443 8.19 13.156 9.354 12.436.545-.336.27-1.277-.64-2.186-3.742-3.743-8.167-12.475-5.48-10.814.517.319.899-.217.849-1.191-.05-.975 1.049-4.247 2.443-7.272 1.394-3.025 2.871-6.625 3.283-8 .412-1.375 1.694-3.841 2.849-5.48 1.155-1.638 2.112-3.438 2.126-4 .048-1.855 3.619-8.308 5.582-10.084 1.061-.96 1.929-2.156 1.929-2.658 0-.501 1.125-2.386 2.5-4.189s2.5-4.023 2.5-4.933c0-.911.343-1.656.763-1.656.419 0 1.212-1.012 1.761-2.25.548-1.238 1.78-2.188 2.737-2.111.956.076 1.739-.487 1.739-1.252 0-1.713 6.93-8.387 8.708-8.387.711 0 1.292-.605 1.292-1.345 0-2.119 3.732-4.972 5.577-4.264 1.233.473 1.482 1.327.981 3.371-.369 1.506-1.298 5.438-2.064 8.738-2.126 9.154-3.879 14.941-4.712 15.55-1.367.999-2.123 6.95-.882 6.95.633 0 1.422-1.359 1.754-3.021 1.051-5.253 4.312-4.961 6.962.624 1.589 3.349 8.1 10.397 9.605 10.397.428 0 .792.563.807 1.25.015.688 1.325 2.522 2.911 4.077 6.036 5.92 6.345 10.647.855 13.053-1.812.794-5.094 3.261-7.294 5.482-2.2 2.222-4.493 4.062-5.095 4.089-.602.027-1.882.919-2.844 1.982-.962 1.062-2.4 1.682-3.196 1.377-.796-.306-1.357-.163-1.247.317.344 1.506-1.28 4.373-2.477 4.373-.63 0-3.261 1.971-5.847 4.379-2.587 2.409-5.01 4.096-5.385 3.75-.376-.346-.475.046-.222.871.533 1.733 17.954 17.031 18.8 16.508.31-.192 2.577 1.188 5.038 3.067 2.461 1.878 6.057 4.481 7.99 5.784 1.933 1.303 4.125 3.105 4.872 4.005.747.9 1.873 1.636 2.503 1.636.63 0 2.801 1.125 4.825 2.5 2.065 1.403 5.128 2.507 6.982 2.515 2.625.012 2.995.237 1.803 1.095-1.238.89-1.172.972.377.467 1.032-.336 2.382-.248 3 .197 1.524 1.098 7.329 2.901 11.773 3.658 2.007.341 4.199 1.284 4.872 2.094.673.811 2.293 1.474 3.6 1.474 1.308 0 2.378.525 2.378 1.167 0 .641.284.882.631.535.348-.347 1.415-.213 2.371.299 5.102 2.731 10.099 2.898 12.261.411 1.154-1.326 2.457-2.412 2.897-2.412.439 0 2.583-1.936 4.764-4.302 2.181-2.366 6.353-6.075 9.271-8.243 2.918-2.168 7.78-6.714 10.805-10.103 3.025-3.389 6.032-6.204 6.683-6.257 2.769-.223 2.183-8.095-.603-8.095-.467 0-3.681-3.496-7.143-7.77-3.462-4.273-8.027-9.003-10.145-10.511-2.117-1.508-4.261-3.823-4.764-5.145-.502-1.321-1.846-2.699-2.985-3.06-1.14-.362-1.814-1.076-1.499-1.586.316-.51-.121-.928-.971-.928-.849 0-2.789-1.907-4.309-4.237-3.02-4.629-10.15-11.731-11.798-11.751-.569-.006-1.785-1.25-2.703-2.762-1.829-3.015-3.723-5.028-15.409-16.378-4.32-4.196-9.429-9.527-11.354-11.848-1.925-2.321-5.075-5.638-7-7.372-4.419-3.979-13.182-12.901-14.5-14.765a92.01 92.01 0 0 0-2.397-3.179c-1.227-1.552-1.105-2.082 1-4.362l2.397-2.594-2.339.719c-1.775.547-2.704.199-3.854-1.443-.833-1.189-2.099-1.938-2.813-1.664s-1.599.197-1.967-.17c-.367-.368-1.302-.674-2.077-.681-1.711-.016-12.75-10.682-15.467-14.945-1.075-1.687-3.501-4.193-5.39-5.568-1.889-1.375-4.168-3.734-5.066-5.243-.897-1.508-2.498-3.206-3.557-3.773-1.059-.567-2.974-2.079-4.255-3.36-1.281-1.281-2.87-2.509-3.532-2.73-.661-.22-1.398-1.413-1.636-2.651-.635-3.298-1.43-4.225-3.079-3.592-1.004.385-1.468-.102-1.468-1.544 0-1.159-.627-2.107-1.393-2.107-1.488 0-3.05-2.704-2.727-4.722.107-.671-.909-1.498-2.257-1.837-2.301-.577-3.531-2.544-5.123-8.191-.656-2.324-3.5-3.178-3.5-1.05 0 .896-.288.912-1.136.064-.847-.847-.702-1.569.574-2.845 2.339-2.339.266-3.632-4.584-2.859-3.394.54-3.997.214-8.755-4.74-4.607-4.796-4.943-5.443-3.413-6.57.933-.687 1.16-1.25.505-1.25-.655 0-1.205-.788-1.221-1.75-.027-1.524-.175-1.492-1.148.25-.614 1.1-1.244 2.156-1.4 2.347-.581.713-7.894-3.824-11.581-7.185-1.109-1.01-3.448-2.436-5.199-3.167-1.75-.731-4.031-2.267-5.067-3.412-1.548-1.711-9.273-3.179-9.644-1.833M265 204.483c0 1.54.691 2.618 4.044 6.315 2.56 2.822 2.44 7.648-.235 9.451-1.27.855-4.213 3.357-6.541 5.558-13.723 12.98-28.248 21.535-38.579 22.722-3.404.391-6.44 1.106-6.746 1.588-.306.481-3.864 1.096-7.906 1.366-4.042.269-8.067 1.092-8.943 1.829-.877.736-2.494 1.411-3.594 1.498-3.259.26-4.867.713-7.328 2.065-1.281.703-2.968 1.033-3.75.733-.782-.3-1.422-.181-1.422.265s-1.912 1.398-4.25 2.116c-4.227 1.298-4.235 1.309-1.453 2.084 1.538.428 4.577 2.387 6.753 4.353 2.176 1.966 4.404 3.63 4.953 3.699.548.069 1.335.192 1.747.274 1.238.245 12.387 8.953 14.13 11.036 3.352 4.005 11.713 11.72 14.12 13.029 2.327 1.266 18.092 17.727 18.833 19.664.184.48.859.876 1.5.881.642.005 4.317 2.909 8.167 6.453 3.85 3.545 7.563 6.466 8.25 6.492.688.025 1.25.441 1.25.925 0 .483 1.35 1.438 3 2.121s3 1.653 3 2.155c0 1.817 17.963 17.914 19.877 17.812.746-.04 5.123-3.617 5.123-4.186 0-.219 5.288-5.845 11.75-12.502 14.178-14.604 21.25-22.398 21.25-23.42 0-.418.622-1.119 1.382-1.559 2.899-1.677 11.489-10.096 10.901-10.684-.339-.339.081-.616.934-.616.852 0 1.828-.788 2.167-1.75.34-.962.879-2.312 1.2-3 .353-.758-.139-1.247-1.251-1.244-1.957.007-8.333-6.66-8.333-8.714 0-.718-.727-.995-1.75-.666-1.301.418-1.41.319-.423-.388 1.02-.731.351-1.785-2.89-4.56-3.782-3.237-6.15-6.182-9.533-11.854-.602-1.011-2.683-3.553-4.624-5.651-1.94-2.097-4.822-5.759-6.404-8.136a3666.601 3666.601 0 0 1-5.435-8.196c-1.408-2.131-4.221-5.626-6.25-7.768-2.03-2.142-3.691-4.368-3.691-4.946 0-.577-1.913-3.078-4.25-5.556-6.205-6.579-10.745-12.171-13.832-17.039-3.108-4.902-4.918-6.391-4.918-4.049" fill="#d3d3d3" fill-rule="evenodd"/></svg>