<svg xmlns="http://www.w3.org/2000/svg" width="500" height="346"><path d="M.349 8.25c.275 4.537.462 8.7.415 9.25-.047.55-.241 74.687-.431 164.75L-.012 346h80.646c75.589 0 80.736-.11 82.087-1.75 1.373-1.666 1.416-1.666.891.003-.524 1.666 7.768 1.74 168.168 1.5l168.72-.253.221-172.75L500.943 0H-.152l.501 8.25m40.018-5.466C41.314 4.317 38.212 6 34.441 6c-.924 0-1.268.47-.846 1.155.394.637.279.885-.257.554-.534-.33-1.673.95-2.532 2.845L29.244 14h3.353c3.246 0 3.333.104 2.721 3.25-.348 1.788-1.027 3.511-1.509 3.83-.482.319-.588 1.331-.236 2.25.424 1.105.131 1.67-.868 1.67-.83 0-2.003 1.417-2.607 3.149-1.457 4.178-1.478 4.146 1.462 2.22 2.382-1.561 2.675-1.562 4.214-.023 1.511 1.511 1.514 1.654.034 1.654-1.035 0-2.195 1.688-3.214 4.678-1.985 5.825-1.998 5.661.406 5.032 1.269-.332 2-.03 2 .825 0 1.86-1.716 2.758-2.336 1.221-.313-.777-.536-.608-.585.444-.043.935.665 2.117 1.575 2.626 1.447.81 1.32 1.145-1.015 2.675-1.468.962-2.609 2.255-2.536 2.874.495 4.166-1.054 4.793-2.759 1.117-.636-1.371-.753-2.492-.261-2.492s.801-1.125.688-2.5c-.114-1.375-.447-2.494-.739-2.488-1.325.031-4.937 7.072-4.376 8.533.499 1.301.79 1.358 1.468.289.58-.915.85-.471.861 1.416.008 1.513-.49 2.75-1.107 2.75-.776 0-.738.464.122 1.5s.898 1.5.122 1.5c-.617 0-1.122.675-1.122 1.5s.498 1.5 1.107 1.5.884.581.611 1.292c-.272.71.129 2.146.893 3.191S27 72.196 27 73.191c0 .995.45 1.809 1 1.809s1 .9 1 2c0 1.289-.667 2-1.875 2-2.05 0-3.374 4.11-2.607 8.093.239 1.242-.088 2.889-.727 3.659-.895 1.078-.846 1.596.209 2.248 1.143.706 1.15 1.115.043 2.448-.73.88-1.034 1.894-.675 2.253.359.359 1.253-.169 1.988-1.173 1.23-1.683 1.385-1.571 1.986 1.432.481 2.405 1.058 3.1 2.207 2.66 1.007-.387 1.306-.194.848.546-.413.669-.265.871.358.485 1.219-.753 4.245.187 4.245 1.32 0 .416-1.147 1.903-2.548 3.304-1.736 1.736-2.18 2.775-1.393 3.261.859.532.839.909-.08 1.477-.68.42-.921 1.271-.538 1.892.383.62 1.123.864 1.644.542a1.11 1.11 0 0 0 .368-1.523c-1.128-1.825 2.644-2.146 4.584-.39 2.795 2.529 2.452 3.122-1.537 2.656-2.537-.296-3.5-.021-3.5 1 0 .774-1.513 1.955-3.363 2.624-2.471.894-3.333 1.786-3.25 3.368.117 2.224 2.613 3.923 2.613 1.779 0-.889.349-.916 1.328-.103.731.606 2.194 1.269 3.25 1.472 3.347.644 5.43 1.848 4.842 2.8-.313.506-.198.855.256.776.453-.078 1.476-.09 2.274-.024 2.417.197-.238 2.082-3.29 2.334-1.513.125-3.519 1.095-4.456 2.156-1.662 1.879-1.586 1.912 3.046 1.297 3.67-.487 4.75-.318 4.75.744 0 .757 1.306 2.773 2.901 4.481 1.596 1.708 2.383 3.113 1.75 3.121-.732.01-.787.283-.151.75 1.342.986 1.39 7.234.055 7.239-.58.002.408.895 2.195 1.985 4.278 2.608 4.389 5.833.229 6.665-3.545.709-4.803 2.217-2.857 3.426.803.499 1.517.452 1.711-.112.184-.532 1.249-.968 2.367-.968 1.621 0 1.911.457 1.43 2.25-.331 1.238-.609 2.588-.616 3-.008.412-1.027.786-2.264.829-2.041.072-1.995.172.5 1.083 2.691.983 4.097 5.121 1.559 4.588-.654-.137-1.362.535-1.572 1.495-.361 1.649-.22 1.652 2.566.054 2.57-1.476 3.13-1.507 4.378-.245 2.23 2.254 2.964 5.067 1.714 6.573-.926 1.116-.508 1.392 2.233 1.473 3.058.09 3.139.165.872.802-2.329.654-2.372.774-.626 1.759 1.708.964 1.604 1.151-1.182 2.122-1.681.586-4.019.813-5.197.505-1.918-.501-2.108-.206-1.818 2.826.289 3.033.609 3.356 3.073 3.098 1.933-.202 2.75.169 2.75 1.25 0 1.984.6 1.938 4.382-.34 7.029-4.233 22.722-5.199 29.257-1.8 7.74 4.026 13.204 15.401 13.326 27.741.051 5.214-4.155 13.054-9.552 17.805-5.039 4.435-5.369 5.826-.987 4.16 3.418-1.299 4.866-1.309 4.074-.028-1.016 1.644 2.227 1.13 3.99-.633 1.322-1.322 2.102-1.418 4.105-.506 1.978.901 2.582.84 3.021-.304.302-.787 1.142-1.203 1.866-.926.723.278 1.642-.023 2.042-.67.539-.872.947-.825 1.586.182 1.211 1.912 1.093 2.856-.36 2.864-1.385.007-5.75 5.933-5.75 7.805 0 .653.498 1.188 1.107 1.188s.869.62.578 1.378c-.291.758-.024 1.883.593 2.5.829.829.809 1.122-.078 1.122-.66 0-1.2.675-1.2 1.5 0 1.985.684 1.893 3.727-.5 2.434-1.915 2.452-2 .408-2-3.24 0-2.672-3.482.994-6.092 2.546-1.813 3.475-2.012 4.986-1.068 1.022.638 2.582 1.16 3.467 1.16 1.94 0 7.418 3.113 7.418 4.216 0 .431-1.013.791-2.25.799-1.777.012-1.941.211-.779.946.809.512 1.149 1.252.756 1.645s.123 1.301 1.146 2.017c1.186.831 2.102 3.128 2.528 6.34.616 4.649.877 5.037 3.383 5.035l2.716-.001.127-8.498c.12-8.071 1.417-12.208 3.436-10.96 1.751 1.082 2.937-2.567 2.937-9.039 0-3.333.389-4.5 1.5-4.5.825 0 1.447.337 1.382.75-.66 4.177.258 7.026 2.107 6.543 1.094-.286 1.742-.919 1.441-1.407-.302-.487.604-.886 2.011-.886 2.964 0 3.162.54.995 2.707-2.091 2.091-.67 3.193 3.314 2.572 3.894-.606 4.064-1.493.784-4.074-2.675-2.104-2.388-3.169.883-3.268 1.963-.06 1.95-.117-.229-.991l-2.311-.927 2.811-2.494c5.072-4.499 5.14-4.538 5.592-3.246.301.858 1.059.661 2.55-.663 1.168-1.036 1.906-2.235 1.64-2.664-.265-.43.083-1.01.774-1.29.955-.388.904-.754-.216-1.532-1.273-.884-1.246-1.109.202-1.665 2.289-.878 4.462.482 2.627 1.645-1.057.669-.97.863.393.875.963.008 1.75-.66 1.75-1.485 0-.825.45-1.5 1-1.5s1-.498 1-1.107-.675-.848-1.5-.531c-1.96.752-1.921-.799.071-2.791 2.152-2.151 3.429-1.97 3.429.488 0 1.132.45 1.781 1 1.441.55-.34 1-.093 1 .548 0 .647-.696.899-1.565.565-1.202-.461-1.419-.137-.933 1.393.376 1.186.177 1.994-.494 1.994-.619 0-.885.39-.591.866.781 1.263 5.359.161 5.972-1.438.288-.75.113-1.618-.389-1.928-1.851-1.144.28-3.5 3.166-3.5 1.624 0 2.696.414 2.384.919-.313.506.193 1.681 1.123 2.611 1.589 1.589 1.774 1.579 3.049-.164.946-1.295 1.574-1.505 2.074-.696.533.863 1.184.818 2.542-.175 1.727-1.263 1.703-1.352-.444-1.665-2.127-.309-2.163-.435-.581-2.009.928-.923 1.687-2.371 1.687-3.218 0-.921.572-1.321 1.422-.995.782.3 2.357.046 3.5-.566 1.146-.614 2.078-.696 2.078-.184 0 .51-.75 1.216-1.667 1.568-1.227.471-1.373.934-.552 1.755.822.822 2.035.31 4.595-1.938 1.914-1.68 3.244-3.29 2.956-3.577-.287-.288 1.969-.523 5.014-.523 4.387 0 5.423.296 4.988 1.428-1.019 2.655 2.441 1.485 5.158-1.744 2.454-2.916 3.212-3.193 9.339-3.416 3.668-.134 13.107-.771 20.976-1.417 9.451-.775 16.153-.855 19.75-.235 2.993.515 5.443.618 5.443.228s2.813-1.029 6.25-1.42c8.485-.964 7.687-.96 21.75-.126 6.875.408 16.325.94 21 1.181 8.493.439 9.801.58 22 2.365 3.575.523 10.295 1.215 14.934 1.537 4.638.322 8.729.768 9.091.991.361.224 8.491.668 18.066.987 9.575.319 18.309.752 19.409.962 1.1.211 2.616.417 3.368.459 1.1.062 1.234 1.697.685 8.327-.434 5.239-.261 9.892.474 12.75.637 2.475 1.391 5.963 1.675 7.75.538 3.385 1.223 3.925 2.878 2.27.539-.539 4.803-1.724 9.475-2.632l8.495-1.653-.294-5.618c-.162-3.089-.477-7.642-.7-10.117-.884-9.786-.675-24.757.41-29.478 1.215-5.285.459-17.522-1.082-17.522-.486 0-.831-.338-.766-.75.626-3.963-.231-5.25-3.496-5.25-1.857 0-3.937.675-4.622 1.5-1.683 2.028-3.237 1.888-6.365-.573L419 169.855v4.122c0 2.267-.673 5.424-1.496 7.016-.944 1.825-1.129 3.121-.5 3.509 2.362 1.46.792 9.489-1.861 9.513-1.428.014-1.447.145-.143 1.003 1.172.772.958.933-.979.735-1.947-.199-2.507.23-2.613 1.997-.074 1.238.254 2.25.729 2.25.474 0 .863.47.863 1.044 0 .574-.787.911-1.75.75-1.027-.173-1.636.254-1.475 1.031.198.956-.36 1.118-2 .582-1.251-.408-5.499-.648-9.44-.533-3.941.115-7.423-.208-7.739-.718-.338-.548-2.116-.378-4.335.414-4.981 1.778-9.538 1.759-13.884-.057-2.373-.991-4.132-1.179-5.283-.563-1.071.573-3.216.538-5.659-.092-2.164-.558-6.185-.976-8.935-.929-2.75.047-11.525-.028-19.5-.165-15.957-.276-37.205-.229-61 .135-37.986.581-43.419.344-46.068-2.008-1.684-1.496-2.035-2.302-1.14-2.623.992-.355 1.022-.788.127-1.865-.917-1.106-.82-1.403.459-1.403.892 0 1.622-.492 1.622-1.093 0-.686 1.491-.921 4-.631 2.2.254 4 .071 4-.407s-.525-.869-1.167-.869c-.641 0-.88-.286-.531-.635.539-.539 7.314 1.242 17.698 4.65 3.657 1.201 18.091 1.86 21 .959 2.691-.834 2.796-.8-4.5-1.468-8.366-.766-27.211-5.764-34.5-9.15a180.127 180.127 0 0 0-6.5-2.846c-1.65-.671-4.703-1.96-6.784-2.865-2.081-.905-4.683-1.645-5.781-1.645-1.099 0-2.256-.672-2.571-1.494-.316-.822-.92-1.28-1.344-1.018-.424.261-2.66-.894-4.97-2.567-4.118-2.983-4.169-3.091-2.583-5.511 1.563-2.385 1.509-2.56-1.578-5.189-1.757-1.497-3.676-3.034-4.263-3.417-1.555-1.012-.104-2.054 2.86-2.054 2.161 0 2.464-.338 1.907-2.125-.364-1.169-.991-2.35-1.393-2.625-.402-.275-1.035-1.475-1.406-2.668-.77-2.468.006-2.478 5.396-.07 1.92.858 3.854 1.334 4.299 1.06 1.405-.869-1.434-3.322-3.844-3.322-1.477 0-2.553-.766-2.985-2.125-.722-2.275.784-3.833 3.731-3.86.93-.008 1.929-.4 2.219-.87.669-1.081-3.831-5.391-4.71-4.512-.358.359-1.225.198-1.926-.357-2.059-1.632-12.635-5.276-15.31-5.276-2.265 0-21.331-5.832-25.964-7.942-3.409-1.552-24.992-8.058-26.733-8.058-.907 0-1.906-.415-2.219-.923-.314-.508-1.963-1.229-3.664-1.602-2.926-.643-9.683-3.279-14.632-5.708-1.237-.607-2.554-.799-2.926-.426-.373.372-1.638-.225-2.813-1.328-1.174-1.104-4.582-2.898-7.574-3.987L93.5 97.045l5 .604c2.75.332 5.45.925 6 1.318.55.393 4.375 1.294 8.5 2.002 4.125.708 8.625 1.721 10 2.251 1.375.53 4.975 1.356 8 1.834 3.025.479 9.92 1.568 15.322 2.42 5.402.853 11.927 2.023 14.5 2.601 7.281 1.636 22.204 4.025 27.178 4.35 17.936 1.172 67.97 1.685 69.621.713 1.787-1.052 1.769-1.137-.371-1.739-3.308-.93-2.312-12.248 1.098-12.476.634-.042 2.502-.21 4.152-.373 10.095-.994 28.392-2.508 30.556-2.527l2.555-.023-.344-14.75c-.19-8.112-.799-17.9-1.354-21.75-.556-3.85-1.232-11.275-1.504-16.5-.847-16.288-2.671-22-7.023-22-1.303 0-2.917-.877-3.586-1.949-.904-1.448-1.55-1.673-2.509-.878-.914.759-1.666.761-2.575.007-.813-.676-1.82-.726-2.75-.138-1.992 1.26-5.7 1.198-6.507-.109-1.099-1.777 2.713-3.911 4.898-2.742 1.063.569 4.775.761 8.514.44 3.646-.313 6.966-.583 7.379-.6.413-.017.75-.451.75-.964 0-1.621-3.797-2.217-7.54-1.183-4.087 1.128-6.46.57-6.46-1.519 0-1.593-9.498-1.027-11.566.69-1.473 1.223-5.58-3.51-4.803-5.535.392-1.021-.026-1.525-1.274-1.535-1.486-.013-1.573-.195-.438-.914 2.353-1.489-5.151-1.946-41.419-2.524-93.542-1.49-175.804-1.848-175.133-.763M220 14.5c-.685.825-1.764 1.5-2.398 1.5-1.629 0-1.249 7.514.487 9.616 1.092 1.323 1.128 1.804.161 2.13-1.749.589-1.561 2.921.293 3.632 1.236.475 1.32 1.009.423 2.685-.616 1.151-.874 2.733-.574 3.515.3.782.132 1.422-.373 1.422-.541 0-.837 11.49-.719 27.954.199 27.773.214 27.957 2.371 28.499 1.193.3 2.768.358 3.5.13.731-.229 2.511-.673 3.955-.987l2.626-.572-.074-12.262c-.041-6.744.184-21.487.5-32.762.497-17.755.364-20.74-.997-22.294-1.303-1.488-1.383-2.497-.471-5.915.605-2.267.87-4.722.588-5.456-.604-1.575-2.912-1.768-3.808-.319-.346.559-1.054.753-1.575.431a1.106 1.106 0 0 1-.372-1.516c.958-1.55-2.206-1.042-3.543.569M.488 183c0 89.925.118 126.712.262 81.75.144-44.963.144-118.538 0-163.5C.606 56.287.488 93.075.488 183M282.174 26.716c-1.538.293-2.137.937-1.768 1.9.308.801-.057 3.245-.81 5.431s-.984 4.213-.512 4.505c.471.291 1.144-.614 1.495-2.011.84-3.347 2.363-3.276 2.004.093-.163 1.527-1.244 3.149-2.572 3.86-2.732 1.462-7.005 8.189-6.991 11.006.008 1.531.216 1.676.886.618.693-1.095 1.009-.961 1.518.642.353 1.113 1.527 2.256 2.609 2.538 2.133.558 2.892 6.227.922 6.884-1.358.452-2.269 15.818-.938 15.818.541 0 .983-.644.983-1.43 0-.787 1.012-1.575 2.25-1.751 2.418-.344 2.531-1.501.763-7.819-.077-.275-.571.578-1.098 1.895-1.164 2.911-2.375 2.129-1.41-.911.486-1.53 1.259-2.018 2.63-1.659 2.331.61 6.565-2.989 6.878-5.845.335-3.058-.107-6.139-.677-4.724-.279.691-.98.964-1.557.607-.632-.39-.099-1.381 1.335-2.484 1.312-1.009 1.855-1.845 1.206-1.857-.846-.016-.926-.908-.283-3.15.493-1.72.547-3.857.119-4.75-.428-.892-.739-4.997-.691-9.122.048-4.125-.375-7.831-.939-8.235-1.074-.769-1.554-.773-5.352-.049m-31.567 2.001c-2.065.529-2.076-.223.409 28.783.518 6.05 1.245 17.841 1.616 26.202.71 16.014.883 16.496 5.591 15.596 3.312-.634 3.856-2.767 3.262-12.798-.261-4.4-.717-12.95-1.015-19-.941-19.169-2.342-32.422-4.042-38.25-.367-1.256-2.306-1.434-5.821-.533m227.735 9.834c-.306.797-.311 2.087-.012 2.866.299.78-.068 1.652-.816 1.939-.747.287-1.147 1.337-.888 2.333.772 2.974-1.892 5.901-3.551 3.901-1.114-1.342-1.068-1.59.296-1.59 1.342 0 1.249-.421-.544-2.484-1.617-1.859-2.486-2.214-3.457-1.408-.936.777-2.07.693-4.083-.301-2.966-1.464-27.29-1.616-36.287-.227l-4.5.695 3 .985c2.553.839 13.681 1.327 35.877 1.575 4.827.054 4.87.083 4.21 2.86-.828 3.48-.83 3.603-.148 10.227.444 4.306.198 5.821-1.19 7.355-1.446 1.598-1.758 3.94-1.802 13.511l-.052 11.578-10.377.27c-5.706.148-11.533.723-12.947 1.276-1.414.554-3.921 1.183-5.571 1.398-1.676.218-.352.509 3 .659 3.3.147 6.563.195 7.25.106.688-.09 1.25.307 1.25.881 0 .574-.619 1.044-1.375 1.044-.8 0-1.375 1.045-1.375 2.5 0 1.375.394 2.5.875 2.5s.875-.675.875-1.5.45-1.5 1-1.5 1 .45 1 1 .873 1 1.941 1 2.219.45 2.559 1c.367.593-.79 1-2.843 1-2.992 0-3.612.432-4.572 3.187-1.244 3.566-.666 4.584 2.909 5.13 1.639.25 2.432 1.004 2.394 2.278-.082 2.775-2.421 10.706-3.572 12.111-.543.664-.717 1.645-.386 2.181.332.536.118 1.275-.475 1.641-.593.366-1.5 1.775-2.015 3.129-.515 1.355-1.385 2.186-1.934 1.847-1.413-.874-3.416 4.005-2.537 6.182.667 1.654.808 1.616 1.599-.436.82-2.128 3.993-2.959 8.782-2.302.836.115 1.06-.285.586-1.051-.54-.874-.252-1.04.982-.567.96.369 2.127.67 2.594.67.467 0 .993 1.008 1.168 2.24.176 1.232 1.161 2.4 2.188 2.596 1.16.221 1.612-.059 1.191-.74-.417-.675.22-1.096 1.659-1.096 3.07 0 7.421-2.987 5.805-3.985-.862-.534-.62-1.773.899-4.608 1.3-2.426 2.078-3.182 2.078-2.02 0 1.486.282 1.623 1.411.687 1.599-1.327 2.893-.03 2.081 2.086-.683 1.78 4.171 1.733 7.429-.072 2.122-1.176 2.583-1.119 3.74.462.725.992 1.607 1.515 1.96 1.162 1.276-1.275 4.323 1.27 3.655 3.053-.545 1.453-.402 1.533.879.494.841-.683 1.804-.967 2.139-.631.336.335 1.394-.174 2.352-1.131 1.401-1.401 1.851-1.473 2.298-.37.748 1.846 3.056 2.222 3.056.498 0-3.684-1.392-7.625-2.692-7.625-1.684 0-.923-3.526 1.31-6.079 1.642-1.875 1.97-19.44.382-20.421-.55-.34-1-1.54-1-2.667 0-1.735-.422-1.945-2.75-1.365l-2.75.685 2.663-2.827c2.375-2.521 2.657-3.582 2.61-9.826-.029-3.85-.429-7.483-.889-8.074-1.391-1.786-.757-8.73 1.096-11.997 1.702-3.002 1.69-3.118-.561-5.123-1.801-1.604-2.418-1.752-2.83-.679-.289.755-1.553 1.363-2.808 1.351l-2.281-.022 2.087-1.728c3.15-2.607 2.443-7.759-1.581-11.52-1.767-1.651-3.656-4.273-4.197-5.826-1.213-3.479-6.596-6.601-7.467-4.331m-95.975 6.857c-.624.692-.805 1.895-.404 2.675.401.779.146 6.817-.567 13.417-.712 6.6-1.318 14.561-1.346 17.691-.027 3.13-.5 5.969-1.05 6.309-.55.34-1.007 2.729-1.015 5.309-.009 2.58-.346 5.163-.75 5.74-1.03 1.47-8.264 3.451-12.601 3.451-1.999 0-3.634.495-3.634 1.101 0 .724 1.623.91 4.75.544 2.613-.306 10.375-1.02 17.25-1.586 6.875-.566 14.75-1.25 17.5-1.52s5.131-.501 5.292-.515c.762-.063-.93-51.562-1.72-52.352-1.498-1.498-20.386-1.728-21.705-.264m38.212 11.774c-.339 5.125-.496 16.711-.348 25.748l.269 16.43 5.116.385c4.499.338 5.182.135 5.657-1.68.461-1.763.077-2.067-2.617-2.08-5.623-.028-5.564.21-6.081-24.396-.264-12.555-.682-23.029-.929-23.276-.247-.247-.727 3.744-1.067 8.869M460.924 96.5c-.075.55-.201 1.892-.28 2.982-.082 1.131-1.003 2.134-2.144 2.334-5.561.98-6.1 7.489-.803 9.702 3.539 1.479 6.878 1.334 6.025-.261-.223-.416.396-1.516 1.374-2.444 1.271-1.206 1.94-1.349 2.342-.5.425.898.704.882 1.145-.063.321-.687 1.221-1.25 2-1.25.78 0 1.417-.654 1.417-1.453 0-.868.906-1.415 2.25-1.359 5.444.229 6.75-.195 6.75-2.188 0-1.1-.569-2-1.265-2-.695 0-2.993-.926-5.106-2.059-3.493-1.872-3.998-1.917-5.564-.5-2.29 2.072-5.721 1.979-6.985-.191-.561-.963-1.081-1.3-1.156-.75m-36.806 9.75c-.065.963-.793 1.75-1.618 1.75-.865 0-1.534.952-1.581 2.25-.044 1.237-1.146 4.05-2.449 6.25-1.302 2.2-3.339 6.025-4.525 8.5l-3.357 7c-2.707 5.641-7.142 13.54-7.923 14.112-.46.336-.781 1.011-.714 1.5.506 3.699-17.637 16.591-34.094 24.225-4.754 2.205-8.947 4.5-9.318 5.1-.371.601-2.332 1.97-4.357 3.043-2.025 1.074-4.807 2.879-6.182 4.012l-2.5 2.059 3-.609c2.814-.572 12.398-5.089 13.501-6.363 1.058-1.223 7.24-4.079 8.83-4.08.918-.001 3.019-1.18 4.669-2.621 5.431-4.742 13.163-10.378 14.237-10.378 1.078 0 13.299-11.714 18.846-18.065 4.013-4.595 9.231-14.92 10.014-19.816.339-2.123 1.694-5.114 3.01-6.645 1.316-1.532 2.393-3.578 2.393-4.546 0-.969.352-1.911.782-2.095.43-.183.484-1.683.119-3.333-.366-1.65-.718-2.213-.783-1.25m11.575 11.107c-.286.746.336 2.659 1.382 4.25 1.901 2.889 1.9 2.894-.336 3.434a3.4 3.4 0 0 0-2.569 2.826c-.215 1.495-.82 2.097-1.75 1.741-1.731-.665-1.84 1.375-.259 4.845 1.3 2.854 2.839 3.376 2.839.964 0-.871.558-1.398 1.24-1.17 2.014.671 4.906-3.819 4.22-6.552-.385-1.533-.034-2.979.968-3.98 1.832-1.833 2.093-3.155.417-2.12-.67.415-.884.277-.511-.327.354-.572-.31-1.29-1.475-1.595-1.413-.369-1.919-1.073-1.52-2.113.361-.943.059-1.56-.763-1.56-.749 0-1.596.611-1.883 1.357m-263.098 26.256c-.425 1.107-.103 2.083.864 2.624 1.845 1.033 2.063 2.827.291 2.396-.687-.168-.912-.116-.5.114.412.231.75 1.071.75 1.868 0 .796.675 1.707 1.5 2.023.825.317 1.5 1.118 1.5 1.781 0 1.281 5.28 5.581 6.853 5.581.513 0 1.192.675 1.509 1.5.668 1.741 5.196 2.025 6.207.388.378-.611.067-1.504-.691-1.984-1.14-.723-1.119-.879.122-.904 1.245-.025 1.265-.179.117-.907-1.009-.639-.468-1.081 2-1.634l3.383-.759-3-.984c-3.443-1.13-5.5-2.568-5.5-3.847 0-.487.875-.34 1.944.328 1.593.995 2.285.906 3.829-.491 1.036-.938 2.498-1.706 3.247-1.706.887 0 .685-.512-.579-1.468-2.312-1.749-3.832-1.974-2.875-.425.469.759-.218.912-2.191.487-1.581-.342-4.432-.169-6.335.383-2.284.663-3.796.667-4.45.013-.653-.653-.444-.99.616-.99 1.114 0 1.446-.613 1.084-2-.288-1.1-.947-2-1.466-2-.518 0-.664.45-.324 1s.179 1-.358 1c-.536 0-1.125-.417-1.309-.926-.702-1.951-5.529-2.308-6.238-.461m253.804 37.541c-1.866.905-2.201 2.304-3 12.528-.996 12.756-1.134 12.268 3.268 11.598 3.809-.58 4.066-1.366 4.97-15.15.722-11.024.339-11.68-5.238-8.976m31.938 2.259c-4.503 1.176-8.337 4.065-8.337 6.282 0 .763-.981 2.712-2.179 4.333s-1.922 3.204-1.609 3.517c.313.314 1.549-.805 2.745-2.485 4.521-6.349 10.549-9.397 17.208-8.701 6.629.693 9.079 1.714 13.085 5.45 3.021 2.818 3.335 2.57 1.592-1.256-1.447-3.176-7.031-6.553-10.834-6.553-1.583 0-3.92-.377-5.193-.837-1.357-.491-4.037-.388-6.478.25m25.003 21.508c.183 10.225-.794 12.27-8.436 17.646-6.338 4.458-11.144 4.974-17.764 1.907-6.16-2.855-7.929-3.129-6.12-.95.696.838 1.495 1.294 1.776 1.013.281-.281 2.043.436 3.915 1.593 3.789 2.342 11.384 2.717 14.789.73.55-.321 2.15-.857 3.556-1.192 1.406-.335 4.48-2.439 6.832-4.676 4.017-3.821 4.235-4.307 3.604-8.04-.385-2.278-.132-6.076.592-8.901 1.027-4.007 1.02-5.22-.033-6.49-2.397-2.888-2.871-1.602-2.711 7.36m-61.324 6.559c-.881 1.062-1.094 4.807-.755 13.25.526 13.111.632 13.263 8.291 11.826 3.129-.587 3.248-.768 2.413-3.679-.483-1.683-.617-4.367-.298-5.963s.07-4.142-.554-5.658c-.624-1.516-1.242-4.666-1.374-7.001-.227-4.036-.393-4.245-3.367-4.25-1.72-.003-3.68.661-4.356 1.475m-199.751 66.27c1.438 1.598 1.412 1.95-.295 4.049-1.71 2.103-1.948 4.898-1.058 12.451.133 1.133 7.877.9 8.593-.258.343-.555-.418-1.427-1.691-1.937-1.273-.511-1.751-.957-1.064-.992 2.118-.107 1.38-1.905-.922-2.243-5.568-.82-2.228-2.32 5.164-2.32 4.433 0 7.965-.423 7.927-.95-.037-.523.913-1.314 2.111-1.757 1.498-.554 1.98-1.326 1.541-2.469-.351-.915-.16-1.96.425-2.321.585-.362-1.425-1.109-4.466-1.66-4.382-.794-5.53-.733-5.53.296 0 .743-.641 1.052-1.5.723-2.395-.919-5.333.5-3.472 1.676 1.15.728.954.935-.9.947-1.996.013-2.175-.223-1.128-1.485 1.004-1.209.979-1.503-.128-1.515-1.078-.012-1.05-.224.128-.985 1.131-.731.661-.973-1.905-.985-3.176-.014-3.299.102-1.83 1.735M244 279.475c0 .233 2.7.956 6 1.605 6.244 1.228 6.829 1.691 4.757 3.763-.992.992.344 1.207 6.585 1.062 4.725-.109 7.3-.517 6.494-1.028-1.955-1.239.917-1.13 6.957.265 3.818.881 4.847 1.519 4.513 2.797-.483 1.845 3.839 4.707 5.529 3.663.565-.349.833-1.703.596-3.009-.603-3.328 6.14-4.437 8.765-1.441.933 1.065 1.945 1.916 2.25 1.892 1.791-.142 1.81.201.054.956-1.85.795-1.817.865.441.93 2.363.068 2.379.117.5 1.538-1.864 1.41-1.835 1.47.726 1.5 1.466.018 2.893.595 3.171 1.282.277.688.54.238.583-1 .043-1.238.642-2.257 1.329-2.265.85-.011.77-.361-.25-1.095-1.266-.91-1.227-.991.25-.516 1.86.599 2.433-.834.75-1.874-1.657-1.024-1.124-3.501.75-3.485 1.512.014 1.546.162.25 1.087-1.169.835-.949.933 1 .446 1.375-.345 4.75-.716 7.5-.826 4.666-.185 5-.039 5 2.201 0 3.082 2.043 3.782 3.628 1.243.74-1.185 1.853-1.733 2.8-1.379 1.358.508 1.385.358.2-1.1-.755-.928-2.079-1.687-2.942-1.687-1.255 0-1.181-.293.373-1.468 1.581-1.196 1.647-1.474.358-1.5-.871-.018-1.897.281-2.279.664-1.225 1.224-4.065 1.232-4.818.012-.536-.866-1.473-.901-3.525-.131-3.593 1.35-14.273 1.076-15.179-.389-.382-.618-2.702-1.116-5.155-1.106-2.454.01-7.386-.19-10.961-.443-11.243-.797-37-1.608-37-1.164" fill="#d3d3d3" fill-rule="evenodd"/></svg>