<svg xmlns="http://www.w3.org/2000/svg" width="500" height="889"><path d="M30.647 7.651c-.984 11.641-.804 24.564.332 23.862.539-.333 1.801-.166 2.804.371 3.399 1.819 3.926-.065 4.513-16.134L38.872 0h-7.579l-.646 7.651m16.011 5.099c-.827 16.217-.827 21.752 0 20.925.362-.362 1.256-.161 1.987.446.731.606 1.996.847 2.81.535.815-.313 1.747-.138 2.072.388.325.526 1.632.956 2.904.956 2.843 0 3.176-1.743 4.153-21.75L61.281 0H47.309l-.651 12.75M497 32.107c0 .616-.729.827-1.645.476-.904-.347-2.367-.03-3.25.705s-3.63 2.142-6.105 3.127c-2.475.985-5.281 2.194-6.236 2.688-.955.493-2.418.897-3.25.897-3.518 0 1.527 6.47 5.901 7.568 1.422.357 2.585 1.05 2.585 1.54 0 1.2-4.184 1.126-9.307-.163-4.281-1.077-18.416-.909-15.693.187 11.841 4.764 26.16 6.845 27.885 4.054.437-.706 2.441-1.375 4.454-1.485 2.013-.111 3.66-.538 3.661-.951 0-.413.9-.75 2-.75 1.832 0 2-.667 2-7.918 0-4.355-.273-8.63-.607-9.5-.692-1.804-2.393-2.142-2.393-.475m-10.557 76.229c2.47 3.239 2.532 3.629 1.397 8.777-1.516 6.876-2.145 7.643-5.821 7.103-2.686-.394-3.019-.162-3.019 2.111 0 1.405.433 2.822.962 3.149.543.336.622 1.558.181 2.809-.919 2.606-.364 5.969.861 5.213.468-.29 1.15.412 1.514 1.56.42 1.321 1.21 1.877 2.154 1.514.82-.314 1.884-.572 2.364-.572 1.086 0 1.543-3.03 2.994-19.826 1.294-14.993 1.515-13.873-2.882-14.648l-3.291-.58 2.586 3.39m-242.193.884c-1.238.597-2.25 1.607-2.25 2.244 0 .637-.868 2.091-1.93 3.23-3.3 3.542-15.253 26.62-15.696 30.306-.395 3.277-.35 3.34.69 1 4.997-11.24 8.68-18.217 11.787-22.33 3.512-4.649 3.796-4.806 7.566-4.211 2.579.407 4.172.206 4.663-.588.887-1.436 9.267-1.324 9.753.131.512 1.533 3.159 1.183 3.805-.502.317-.825 1.189-1.5 1.938-1.5.797 0 1.124.619.788 1.494-.316.822-1.021 1.218-1.569.88-.553-.343-.491.325.14 1.505 1.616 3.019 3.909 2.756 3.31-.379-.279-1.459-.013-2.5.638-2.5.615 0 1.117.845 1.117 1.878 0 1.032.722 2.476 1.604 3.208.882.733 1.996 2.363 2.475 3.623.48 1.26 1.558 2.291 2.396 2.291.839 0 1.535.563 1.547 1.25.012.688.853 2.33 1.867 3.65 1.015 1.32 1.641 3.181 1.391 4.137-.25.955.035 2.04.633 2.409.598.37 1.087 1.733 1.087 3.03 0 1.296.522 2.531 1.16 2.744 1.722.574 2.761 11.769 2.282 24.583-.273 7.312-.073 11.087.568 10.691 1.323-.818 1.289 6.59-.047 10.104-.682 1.792-.699 3.066-.052 3.713 1.425 1.425 6.089-1.896 6.089-4.334 0-1.087.45-1.977 1-1.977s1 .675 1 1.5c0 2.053 3.352 1.892 5.199-.25 3.577-4.147 5.05-25.081 2.317-32.926-.977-2.803-1.264-6.129-.875-10.113.401-4.107.064-7.715-1.095-11.702-2.104-7.237-9.262-18.832-11.173-18.099-.755.29-1.38-.021-1.388-.691-.011-.878-.251-.848-.855.105-1.067 1.683-4.512-1.387-3.758-3.35.33-.86-1.01-1.493-4.162-1.965-3.057-.459-4.772-.323-5.012.397-.201.602-1.05 1.094-1.888 1.094-.859 0-1.301-.582-1.012-1.334.982-2.56-5.887-4.089-9.873-2.197-3.128 1.484-3.607 1.492-5.013.086-1.776-1.776-7.798-1.957-11.162-.335m160.735 28.53c-.013 1.496-.157 1.532-.985.25-.748-1.157-.973-1.19-.985-.143-.008.78-.639 1.117-1.483.794-1.104-.424-1.464.231-1.453 2.643.03 6.65-1.524 11.706-3.598 11.706-.717 0-1.153.787-.969 1.75.184.963.427 1.75.539 1.75.474 0 .79 5.111.391 6.324-.345 1.047-.766.995-2.007-.246-1.427-1.427-1.794-1.305-4.02 1.34-2.408 2.862-2.422 2.991-.861 7.59 1.661 4.893 1.394 7.49-.773 7.495-.704.001-2.195 1.689-3.311 3.75-1.483 2.736-2.562 3.645-4 3.37-5.515-1.057-5.38-1.372-7.408 17.377-2.556 23.639-.472 42.5 4.696 42.5.748 0 1.082.45.742 1-.547.885 2.434 1.532 4.908 1.066.5-.095 1.287.415 1.75 1.131.676 1.047 1.036 1.008 1.827-.197.796-1.212.987-1.057 1 .809.008 1.288-.427 2.036-.985 1.691-1.644-1.016-1.134 1.06.894 3.638 2.198 2.794 6.887 3.597 7.757 1.328.415-1.079.94-1.221 1.82-.49.956.793 1.229-.079 1.199-3.822-.039-4.72-.115-4.84-2.855-4.521-3.116.363-4.075-2.212-1.231-3.304 1.275-.489 1.324-.772.25-1.453-.996-.631-.849-.849.583-.861 1.054-.008 1.631-.3 1.282-.649-.349-.349 1.376-2.17 3.833-4.046 2.458-1.876 4.509-3.954 4.559-4.616.051-.662.206-2.779.346-4.704.14-1.925.763-4.738 1.384-6.25.729-1.774.771-2.75.119-2.75-.661 0-.64-.692.06-2 .589-1.1.68-2 .203-2-.487 0-.471-2.529.036-5.75.497-3.162.899-6.547.893-7.522-.006-.974.333-1.559.753-1.299 1.104.682.83-10.802-.277-11.587-.553-.392-.411-1.903.35-3.742.703-1.696 1.072-4.165.819-5.486-.299-1.566.172-2.856 1.355-3.709 1.68-1.211 1.694-1.44.186-3.106-1.383-1.528-1.404-1.799-.142-1.799 2.085 0 4.399-4.574 3.145-6.216-.539-.706-1.075-3.035-1.191-5.176-.117-2.141-.599-4.617-1.073-5.502-.474-.885-1.113-4.534-1.421-8.108-.307-3.574-.576-6.611-.598-6.748-.021-.137-.699-.25-1.507-.25-.894 0-1.243-.586-.893-1.5.4-1.041-.069-1.5-1.531-1.5-1.334 0-2.113.642-2.122 1.75m35.665 6.715c-1.018.771-1.62 1.774-1.339 2.229.281.456-.123 1.697-.9 2.758-.776 1.062-1.467 1.394-1.536.739A19.434 19.434 0 0 0 436.5 148a32.552 32.552 0 0 1-.375-1.7c-.069-.385-.665-.16-1.325.5-.66.66-2.011 1.2-3.003 1.2-1.992 0-2.23 5.814-.297 7.235.604.444.463.74-.357.75-.793.009-1.118.638-.781 1.515.316.825.027 1.507-.643 1.515-.855.011-.814.273.138.875.946.6 1.021 1.067.25 1.544-.609.376-1.107.222-1.107-.344 0-.565-.732-.746-1.626-.403-1.441.553-1.531 1.945-.786 12.218 1.418 19.536.664 37.075-2.188 50.929-.271 1.316-.07 2.08.462 1.752.517-.321 1.255-3.283 1.638-6.584.383-3.301 1.129-6.002 1.657-6.002.529 0 .702-.419.386-.931-.317-.512-.111-1.218.457-1.569.568-.351.793-1.026.5-1.5-.293-.474-.048-1.162.545-1.528 2.142-1.324 2.835-5.458 2.087-12.453-.419-3.922-.373-7.37.101-7.663.475-.293.733-1.296.575-2.229-.158-.933.721-2.778 1.953-4.1 1.231-1.322 2.239-2.994 2.239-3.716 0-.721.45-1.311 1-1.311s1 .498 1 1.107.692.841 1.538.517c.848-.326 1.776.03 2.069.794.292.762 1.288 1.273 2.212 1.137 1.967-.29 4.104 2.164 4.149 4.766.036 2.069 2.475 4.902 3.413 3.965.34-.341.653-.207.696.297.25 3.006 1.053 4.997 3.347 8.308 1.417 2.044 2.576 4.077 2.576 4.518 0 .441 1.125 2.139 2.5 3.773 1.375 1.634 2.5 3.57 2.5 4.302 0 .732 2.025 5.665 4.5 10.962 5.07 10.851 5.501 14.743 2.093 18.909-1.965 2.401-2.205 3.433-1.513 6.499 1.091 4.839-.546 6.294-2.028 1.803-.641-1.94-1.503-3.669-1.916-3.842-.414-.173-2.272-2.541-4.128-5.263-1.857-2.721-3.556-4.408-3.775-3.75-.22.659-1.487 1.198-2.816 1.198-1.33 0-2.417.45-2.417 1s-.788.993-1.75.985c-1.401-.013-1.471-.192-.354-.899.767-.486 1.119-1.605.781-2.485-.338-.881-.178-1.601.354-1.601.533 0 .969-.45.969-1s-.828-1-1.839-1c-1.417 0-1.798-.689-1.661-3 .098-1.65-.199-3-.661-3-.461 0-1.739-.9-2.839-2-1.265-1.265-2.04-1.54-2.11-.75-.06.688-.31 2.825-.554 4.75a619.372 619.372 0 0 0-.734 6c-.159 1.375-.36 3.089-.446 3.809-.086.72-.601 1.034-1.145.698-.579-.358-.747.134-.405 1.191.487 1.507.406 1.556-.496.302-.594-.825-1.086-1.076-1.095-.559-.008.518-.622.112-1.363-.903-1.274-1.742-4.269-1.345-3.177.421.279.452-1.176 1.154-3.234 1.559-2.057.406-3.178.943-2.491 1.193.688.251 1.257 1.206 1.265 2.122.014 1.453.154 1.475 1.095.167.902-1.254.983-1.205.496.302-.342 1.057-.174 1.549.405 1.191 2.039-1.26.896 3.437-1.261 5.184-1.265 1.026-2.345 3.12-2.468 4.788-.279 3.801-2.279 8.655-3.305 8.021-.435-.269-.561.387-.281 1.458.365 1.398 1.536 2.033 4.149 2.252 2.76.23 3.936.924 4.863 2.867 1.501 3.148 5.292 6.753 5.292 5.033 0-.668.45-.936 1-.596.55.34 1 .141 1-.441 0-1.646 1.912-1.257 5.148 1.046 3.881 2.764 10.086 3.207 9.278.662-.724-2.28 1.176-2.301 2.449-.027.894 1.598 1.144 1.544 3.049-.653 1.142-1.316 2.09-3.112 2.108-3.99.049-2.445 2.64-5.518 3.288-3.9.422 1.053.537 1.055.601.011.043-.71.991-2.27 2.105-3.466 1.868-2.005 2.321-5.552.86-6.742-.337-.275-.256-1.4.18-2.5.523-1.317.817-1.485.864-.491.102 2.192 4.07 4.571 4.07 2.44 0-.862.412-1.313.915-1.002.503.311 1.142 0 1.421-.691.278-.691.542-.244.585.994.043 1.238.536 2.25 1.095 2.25 1.383 0 .851 5.837-.582 6.387-1.647.632-2.924 17.692-1.395 18.637.887.548.879 1.261-.035 2.968-2.197 4.105-3.913 20.137-2.119 19.792 1.834-.353 5.105-9.004 5.111-13.514.002-1.776.753-5.103 1.67-7.392 1.306-3.265 1.433-4.778.588-7.015-.998-2.646-.761-3.153 3.29-7.013 4.365-4.16 4.812-5.205 6.032-14.1l.651-4.75h-7.23c-7.041 0-7.212-.059-6.522-2.25.389-1.238 1.872-9.494 3.295-18.348 2.529-15.734 2.651-16.122 5.378-17.152 5.981-2.257 7.525-12.075 2.275-14.467-2.023-.922-2.463-1.756-2.223-4.216l.3-3.067 6.25.239 6.25.238v-7.061l-7.75.292c-7.172.27-7.774.46-8.07 2.542-.476 3.354-3.465 2.77-5.111-1-2.199-5.038-6.447-11.115-6.874-9.834-.211.633.097 1.731.686 2.44.588.709 1.153 3.64 1.255 6.512.128 3.632.555 5.081 1.4 4.757.668-.257 1.711.623 2.318 1.954 1.285 2.82.458 3.2-1.462.671-.771-1.015-1.342-1.238-1.36-.531-.018.67-.707.959-1.532.643-.832-.32-1.5-.029-1.5.653 0 .94-.372.921-1.576-.078-1.307-1.084-1.732-1.063-2.485.127-.754 1.192-.911 1.15-.924-.247-.008-.925-.847-1.946-1.863-2.269-1.017-.322-2.357-1.703-2.979-3.067-1.262-2.771-2.682-3.202-3.503-1.064-.299.78.131 1.677.957 1.993.825.317 1.205 1.053.845 1.636-.771 1.247-2.972.729-2.972-.701 0-.543-.788-1.775-1.75-2.738-.962-.962-1.75-2.345-1.75-3.071 0-.727-.675-1.581-1.5-1.898-2-.767-1.912-3.266.143-4.055.904-.346 1.365-.909 1.024-1.249-.34-.34-1.305-.05-2.143.646-.909.755-1.524.846-1.524.226 0-.572.531-1.216 1.18-1.433.672-.224.894-1.138.515-2.126-.55-1.433-1.036-1.535-2.801-.59-1.678.898-1.969.874-1.36-.112.538-.87.369-1.003-.549-.435-.987.609-1.145.35-.621-1.016.387-1.009.267-2.104-.266-2.433-.533-.33-.715-2.494-.405-4.81.311-2.315.952-3.971 1.424-3.678.473.292.59-.173.26-1.032-.44-1.148-.159-1.395 1.055-.929.91.349 1.479.81 1.265 1.025-.215.214 1.004 1.894 2.707 3.732 1.84 1.987 3.369 2.921 3.77 2.301.458-.707 1.128-.664 2.092.136.78.647 1.714.881 2.076.519.362-.362.658.092.658 1.008 0 .917.568 1.667 1.263 1.667.694 0 1.707 1.012 2.25 2.25.634 1.446 1.791 2.207 3.237 2.13 1.238-.066 2.25.272 2.25.75 0 .479.445.87.989.87s.895-1.125.782-2.5c-.194-2.342-1.771-3.678-1.771-1.5 0 2.323-2.099.753-2.646-1.978-.327-1.638-1.86-4.225-3.406-5.75a1149.296 1149.296 0 0 0-7.48-7.272c-2.569-2.475-6.013-6.637-7.655-9.25-3.169-5.043-4.211-5.521-7.163-3.285M480 154c0 .55-.873 1-1.941 1-3.042 0-3.133 1.247-.506 6.918 1.346 2.904 2.447 5.832 2.447 6.507 0 1.803 4.184 5.216 6.527 5.324 1.742.08 5.906-4.879 5.188-6.179-.163-.294 4.438-4.173 6.025-5.079.131-.075.514-1.509.849-3.187l.61-3.05-7.593-.712c-4.176-.391-7.847-1.123-8.158-1.627-.763-1.234-3.448-1.168-3.448.085m-231.985 1.857c-.008.766-.641 1.117-1.45.806-.79-.303-1.581-.115-1.758.417-.178.532-2.119 1.219-4.315 1.527-5.645.791-9.492 2.408-9.492 3.99 0 1.031.596 1.127 2.5.403 1.823-.693 2.502-.619 2.506.275.012 2.33 5.602 4.587 9.925 4.007l4.069-.545-.015-4.619c-.009-2.54-.452-5.293-.985-6.118-.748-1.157-.973-1.19-.985-.143M279.5 214c-.995 1.1-2.415 2-3.155 2-.74 0-1.345.395-1.345.879 0 .805-4.844 3.251-6.707 3.386-.436.031-2.773 1.11-5.192 2.396-2.419 1.286-5.655 2.339-7.191 2.339-1.536 0-3.11.515-3.499 1.144-.888 1.437 13.466.203 15.295-1.315.664-.551 1.64-.733 2.17-.406.529.328 1.715-.157 2.634-1.076 1.72-1.72 3.435-.602 3.475 2.264.016 1.208-6.612 10.396-11.597 16.073-3.018 3.438-3.185 3.495-5.579 1.926-1.358-.889-2.77-1.315-3.139-.947-.368.369-.67-.049-.67-.929s-.787-1.87-1.75-2.201c-3.987-1.372-11.25-9.295-11.25-12.272 0-2.715.223-2.883 3.25-2.461l3.25.454-2.658-2.127c-1.461-1.17-3.094-2.127-3.627-2.127-.534 0-1.53-.675-2.215-1.5-2.13-2.566-3.011-1.666-2.62 2.676.272 3.016-.285 5.42-2.002 8.649-1.308 2.46-2.378 5.016-2.378 5.68 0 .829-2.113 1.188-6.75 1.148-4.337-.037-7.912.523-10 1.568-1.787.894-3.25 1.323-3.25.952 0-.9-5.042-.701-7.294.287-.986.433-3.284.546-5.107.25-7.106-1.153-16.358 10.283-19.245 23.79-.706 3.3-2.19 9.375-3.299 13.5-1.885 7.012-4.245 20.562-6.008 34.5-.417 3.3-.814 12.75-.882 21-.068 8.25-.634 20.063-1.258 26.25-.825 8.176-.843 14.324-.066 22.5.588 6.188 1.093 14.4 1.121 18.25.078 10.579 3.032 37.233 4.629 41.757.891 2.527 1.423 8.266 1.446 15.619.02 6.393.701 14.774 1.514 18.624.847 4.014 1.855 17.236 2.362 31 .486 13.2 1.197 24.773 1.58 25.719.7 1.725 9.065 7.781 10.75 7.781 1.135 0 4.193 2.995 3.078 3.015-.451.009-.275.363.393.787.668.424 1.408 2.333 1.644 4.24.423 3.406 4.42 12.92 5.889 14.015.411.307.915 1.882 1.12 3.5 1.147 9.038 1.985 12.364 3.236 12.844 2.131.818 1.675 4.376-.656 5.116-1.639.52-1.816.936-.877 2.067.74.892.791 1.416.136 1.416-.572 0-1.234-.562-1.473-1.25-.238-.687-.762.216-1.164 2.009-.437 1.944-1.165 2.991-1.805 2.595-.681-.421-.777-.185-.264.646.536.867.418 1.068-.347.594-.699-.431-1.522.245-2.078 1.709-.507 1.333-1.969 2.71-3.248 3.06-1.782.488-2.008.843-.964 1.516 1.09.703 1.104.965.07 1.31-.767.256-1.302 2.074-1.316 4.471-.018 3.087-.504 4.253-2.056 4.94-1.118.495-2.483 2.25-3.034 3.9-.551 1.65-1.232 3.225-1.514 3.5-1.081 1.054-1.167 5.213-.094 4.55.594-.367 1.081-.139 1.081.508 0 .709-.974.989-2.455.706-1.684-.322-2.59.034-2.884 1.133-.236.882-.481.265-.545-1.37-.11-2.821-.186-2.872-1.498-1-.759 1.085-1.396 2.373-1.414 2.861-.018.489-.634 1.319-1.369 1.845-1 .716-.896.814.415.393.963-.31 1.75-.099 1.75.468 0 .568-1.012.891-2.25.719-1.669-.232-2.175.135-1.96 1.421.178 1.065-.208 1.554-1 1.269-.74-.267-2.026 1.016-3.015 3.008-2.48 4.994-9.19 13.744-9.599 12.517-.191-.572-.758-.786-1.261-.475-.503.311-.915.133-.915-.394 0-.528-1.35-.866-3-.752-2.424.168-3.003-.187-3.015-1.85-.022-2.943-1.923-5.792-2.04-3.057-.079 1.846-.141 1.86-.804.176-.396-1.003-1.039-1.791-1.43-1.75-2.097.218-2.632-.101-3.206-1.91-.59-1.859-5.505-2.669-5.505-.907 0 1.337-7.231 1.517-8.535.213-1.023-1.023-1.403-1.036-1.76-.063-.361.986-.727.984-1.78-.009-.729-.688-2.162-1.25-3.184-1.25-1.022 0-1.581-.45-1.241-1 .34-.55.254-1.038-.191-1.083-.445-.046-1.801-.194-3.013-.33-1.212-.135-1.976.122-1.698.572.278.45-.192.55-1.046.223-.854-.328-1.552-.098-1.552.511s-.482 1.107-1.071 1.107c-1.268 0-3.497 2.08-3.75 3.5-.227 1.27-2.472 1.363-3.328.138-.357-.511-1.469-.615-2.472-.23-1.547.594-1.601.84-.351 1.63 1.086.687 1.128.935.163.947-.72.008-1.031.465-.691 1.015.34.55.141 1-.441 1s-1.059.675-1.059 1.5-.702 1.5-1.559 1.5c-.917 0-1.267-.472-.851-1.146.501-.81-.092-.945-2.025-.46-1.789.449-2.511.327-2.09-.354.354-.572.166-1.04-.416-1.04S97 642.477 97 643.059s-.423.797-.94.478c-1.954-1.208-5.727 4.498-5.152 7.791.079.456-.655.654-1.632.441-.977-.213-1.646-.977-1.487-1.697.206-.93-.437-1.126-2.223-.678-1.972.495-2.389.307-1.936-.873.339-.882-.12-1.772-1.11-2.152-1.343-.515-1.415-.82-.354-1.493 1.022-.647.924-.849-.416-.861-1.965-.017-2.455-2.006-.5-2.03.935-.012.913-.229-.085-.862-.735-.466-1.297-1.134-1.25-1.485.047-.351.048-.75.004-.888-.045-.138-.169-1.419-.277-2.848-.253-3.371-2.717-5.767-6.765-6.577-2.97-.594-3.058-.714-1.058-1.454 3.237-1.197 2.641-2.75-1.016-2.646-1.759.05-3.372-.433-3.586-1.073-.213-.641-.869-.867-1.457-.504-.588.364-.818.254-.512-.243.306-.498-.862-.977-2.595-1.065-1.734-.088-2.59.062-1.903.333.688.272 1.236 1.244 1.218 2.16-.027 1.418-.262 1.368-1.57-.333-.847-1.1-1.957-1.888-2.469-1.75-.511.137-.929-.2-.929-.75s.675-1 1.5-1 1.5-.477 1.5-1.059-.461-.774-1.025-.426c-.563.349-.96.263-.881-.191.467-2.689-.121-3.546-1.594-2.324-1.523 1.264-1.978.513-1.601-2.637.075-.626-1.015-1.426-2.422-1.779-1.407-.354-2.308-1.048-2.002-1.544.307-.496.1-1.184-.459-1.53-.559-.345-1.016-.125-1.016.49s-.457.835-1.016.49c-2.872-1.775-5.798-1.493-5.274.507.304 1.165.031 2.003-.652 2.003-.647 0-.896.453-.554 1.007.343.554-.081 1.277-.941 1.607-.859.33-1.563 1.05-1.563 1.6s.675.741 1.5.424c.825-.316 1.5-.139 1.5.393 0 .533-.9.969-2 .969-1.145 0-2-.667-2-1.559 0-.857-.448-1.282-.996-.943-1.666 1.029-5.004 1.437-5.004.611 0-1.213-2.996-.909-3.031.308-.017.595-1.14-.717-2.495-2.917-1.355-2.2-2.466-3.486-2.469-2.857-.007 1.651-3.043 2.57-4.499 1.362-.877-.728-1.609-.586-2.496.483-1.043 1.257-.939 1.517.618 1.544 1.778.03 1.771.111-.128 1.615-1.394 1.103-1.619 1.725-.744 2.053.691.259.995.894.676 1.41-.319.517-.21.816.244.665.453-.151 1.049.175 1.324.725.275.55-1.075 1.127-3 1.282-2.632.212-3.128.03-2-.735 1.009-.684 1.091-1.021.25-1.032-1.612-.019-1.633-2.721-.026-3.256.674-.225.224-.67-1-.99-1.52-.398-2.224-.137-2.224.825 0 .773-.436 1.406-.969 1.406-.532 0-.715.788-.405 1.75.475 1.477.394 1.516-.516.25-.933-1.297-1.081-1.263-1.095.25-.008.962-.409 1.75-.89 1.75-.481 0-.875-1.117-.875-2.482 0-1.365.394-2.238.875-1.941.481.298.875.064.875-.518 0-.582-.436-1.059-.969-1.059-1.469 0-.098-2.76 1.716-3.457.876-.336 1.96-.033 2.408.673.608.958.818.861.83-.383.008-.916-.323-1.855-.735-2.086-.412-.23-.187-.282.5-.114.688.167 1.25-.408 1.25-1.279 0-1.431.242-1.425 2.5.054 2.413 1.581 2.501 1.559 2.515-.635.011-1.656.249-1.905.875-.916.6.946 1.067 1.021 1.544.25.376-.609.181-1.107-.434-1.107s-.914-.337-.664-.75-.174-1.33-.941-2.039c-1.144-1.058-1.395-1.035-1.395.127 0 .779-.675 1.977-1.5 2.662-1.229 1.02-1.5.951-1.5-.378 0-.892-.675-1.622-1.5-1.622s-1.5-.675-1.5-1.5c0-.848.895-1.5 2.059-1.5 1.132 0 1.8.419 1.484.931-.317.512-.169 1.182.327 1.489 1.434.886 2.06-3.233.667-4.389-1.74-1.444-10.217 2.385-11.043 4.989-.346 1.089-1.075 1.98-1.62 1.98-.546 0-.714-.45-.374-1 .34-.55.216-1-.274-1-1.739 0-2.192 1.336-.967 2.85.776.959.815 1.278.103.852-.787-.471-1.12.718-1.077 3.856.033 2.496.503 4.811 1.044 5.145.613.379.742-.598.342-2.597-.4-2.003-.271-2.977.344-2.597.542.335.985 1.257.985 2.05 0 .793.563 1.448 1.25 1.456.847.011.767.357-.25 1.076-1.129.799-1.191 1.187-.25 1.568.688.279 1.25.92 1.25 1.424 0 1.338-2.303.659-3.671-1.083-.942-1.199-1.18-.346-1.183 4.25-.002 3.163.415 5.75.925 5.75.511 0 .929.675.929 1.5s-.45 1.5-1 1.5c-.661 0-1 43.333-1 128v128l207.75-.079c114.262-.043 207.188-.306 206.5-.583-.687-.278-1.243-1.255-1.235-2.171.014-1.442.147-1.464.985-.167.784 1.213.972 1.069.985-.75.009-1.305.632-2.25 1.484-2.25.894 0 1.243.586.893 1.5-.446 1.162.236 1.5 3.031 1.5 2.552 0 3.607.442 3.607 1.512 0 1.327 4.668 1.48 38.25 1.25l38.25-.262v-153c0-84.15-.225-174.6-.5-201l-.5-48-1.844 7.194c-1.014 3.956-1.581 7.619-1.259 8.14.817 1.321-9.698 38.665-21.53 76.464-11.464 36.621-11.654 37.123-13.524 35.572-2.024-1.68-1.847-2.529 5.157-24.795 3.575-11.365 6.5-21.342 6.5-22.17 0-.828.381-1.932.846-2.455.466-.522 1.887-5 3.159-9.95 1.272-4.95 2.657-9.694 3.078-10.542 1.673-3.374 14.941-56.163 17.331-68.958 2.197-11.763 1.852-14.228-.585-4.179-1.43 5.894-2.399 8.174-3.325 7.819-.868-.333-1.539.734-1.997 3.179-1.934 10.32-34.597 121.521-37.138 126.434-1.383 2.675-1.527 2.717-4.336 1.264-1.599-.827-3.186-1.956-3.529-2.51-.342-.554-1.158-.992-1.813-.974-.655.019-.19.869 1.034 1.89 2.158 1.802 2.166 1.872.25 2.373-2.467.645-2.61 4.234-.225 5.624 1.648.96 1.644 1.021-.071 1.05-1.619.027-1.655.197-.322 1.53.825.825 2.117 1.5 2.872 1.5 1.461 0 3.771 1.917 3.771 3.13 0 .402-1.46.312-3.243-.2-4.597-1.318-5.625-1.17-5.691.82-.032.962-.543 5.8-1.134 10.75-.592 4.95-1.118 9.543-1.17 10.206-.053.663-.52.943-1.04.622-.579-.358-.685 1.499-.275 4.794.481 3.861.375 4.955-.373 3.878-.841-1.209-1.046-.99-1.059 1.128-.008 1.445-.649 4.145-1.424 6-.775 1.855-1.45 3.709-1.5 4.122-.05.413-.123 1.087-.161 1.5-.039.413-.457-.15-.93-1.25l-.859-2-.072 2c-.063 1.776-.351 1.675-2.57-.906-1.822-2.118-2.499-2.457-2.499-1.25 0 .911-.45 1.712-1 1.781-.55.069-1.556.181-2.236.25-1.879.19-2.198 3.625-.337 3.625.865 0 1.573.45 1.573 1s-.661 1-1.469 1c-.941 0-1.271.628-.918 1.75.499 1.585.409 1.577-.955-.086-.998-1.219-1.317-2.991-.947-5.27.484-2.986.326-3.345-1.213-2.755-1.256.482-1.635.272-1.304-.721.257-.77-.132-1.999-.864-2.731-1.554-1.554-1.798-3.594-.319-2.68.633.391.945-1.096.836-3.985-.108-2.843-.489-4.114-.995-3.316-.562.886-.857.505-.934-1.206-.686-15.206-1.488-19-4.012-19-.563 0-.763.422-.444.939.319.516-.038 1.303-.794 1.75-.756.446-1.806 2.133-2.334 3.749-.527 1.615-1.556 3.136-2.286 3.379-.87.29-1.053 0-.533-.842.557-.901.399-1.04-.53-.465-.942.582-1.153.371-.73-.731.327-.852-.076-2.506-.894-3.675-.839-1.197-1.213-2.994-.858-4.114.444-1.397.174-1.99-.904-1.99-.955 0-1.318-.568-.961-1.5.317-.825.066-1.5-.556-1.5-.731 0-1.068-1.988-.95-5.594.119-3.659-.263-5.869-1.107-6.39-.95-.588-.746-.97.777-1.453 1.371-.435 1.939-1.312 1.689-2.609-.412-2.138 1.066-2.718 1.795-.704.362 1 .876 1 2.57 0 2.639-1.559 3.472-1.59 2.549-.095-.443.715-.275.883.44.44.635-.392 1.155-.236 1.155.346 0 1.449 1.869 1.333 3.414-.212 1.629-1.629 1.216-4.376-1.032-6.859-3.925-4.337-5.953-13.986-3.68-17.507 1.568-2.428 2.503-9.363 1.262-9.363-.449 0-1.023.788-1.275 1.75-.317 1.215-.492 1.004-.573-.691-.113-2.38-.156-2.392-1.698-.5-1.35 1.657-1.501 1.685-1.031.191.353-1.122.023-1.75-.918-1.75-1.515 0-2.208-7.928-.815-9.321.582-.582.806-7.504.305-9.429-.108-.413-.131-1.121-.053-1.574.079-.454-.387-.497-1.036-.096-.74.458-.913.298-.464-.429.48-.776-.033-1.043-1.558-.81-2.015.307-2.311 1.003-2.604 6.117-.185 3.241-.952 6.393-1.749 7.19-1.013 1.013-1.162 2.096-.521 3.783.494 1.3.59 2.672.212 3.05-.737.737-.868 1.316-1.061 4.719-.097 1.711-.392 1.933-1.325 1-1.447-1.447-4.173-1.613-3.3-.2.963 1.558-1.11 1.174-2.464-.456-.664-.801-.871-2.003-.458-2.67.516-.835.233-1.016-.907-.578-.949.364-2.193-.021-2.914-.901-.691-.844-2.021-2.259-2.956-3.144-.934-.884-1.47-1.977-1.191-2.429.28-.452.031-.822-.551-.822a1.063 1.063 0 0 1-1.059-1.059c0-.582.355-.84.788-.572.433.268.878-.606.989-1.941.133-1.617-.319-2.428-1.356-2.428-1.101 0-1.37-.585-.921-2 .391-1.231.18-2-.549-2-.658 0-.97-.819-.702-1.843.291-1.113-.264-2.31-1.398-3.018-1.366-.853-1.71-1.853-1.257-3.657.342-1.365.22-2.482-.273-2.482-.492 0-.964-.905-1.047-2.01-.371-4.925-6.274-6.913-6.274-2.112 0 1.582-.675 3.437-1.5 4.122-1.242 1.031-1.503.923-1.515-.628-.013-1.578-.17-1.637-1-.372-.867 1.32-1.099 1.323-1.934.023-.656-1.021-.454-2.025.655-3.25 1.49-1.647 1.444-1.773-.65-1.773h-2.254l2.065-3.5c1.873-3.174 1.905-3.501.349-3.515-1.473-.013-1.504-.153-.216-.985 1.29-.834 1.262-.972-.203-.985-1.904-.017-3.913 3.91-5.875 11.485-.712 2.75-1.999 5.548-2.859 6.218-1.048.817-1.151 1.229-.313 1.25.688.018 1.25 1.13 1.25 2.473s.43 2.707.956 3.032c.526.325.689 1.289.361 2.143-.481 1.254-.757 1.296-1.441.218-.601-.949-.85-.66-.861.999-.017 2.705-2.205 2.48-2.608-.268-.615-4.188-1.99-3.218-1.847 1.303.191 5.993 1.046 7.704 3.029 6.058 2.251-1.868 1.637.089-1.191 3.797-1.495 1.96-3.184 3.189-3.968 2.888-.751-.288-1.632-.093-1.957.433-.325.526-.002.963.718.971 1.017.012.998.213-.084.898-.772.488-1.165 1.757-.881 2.843.669 2.557-.903 5.305-2.651 4.634-.755-.289-1.658-.065-2.006.498-.348.564-1.22.799-1.937.524-.876-.336-1.221.254-1.051 1.794.139 1.262.324 2.294.412 2.294 1.044 0 .462 4.412-.904 6.851-.97 1.732-1.581 3.692-1.358 4.355.246.73-.339 1.062-1.481.842-1.514-.291-2.359.896-4.262 5.984-1.306 3.491-2.706 6.142-3.112 5.891-.406-.25-1.02.002-1.366.561-1.153 1.866-2.238 1.045-1.961-1.484.151-1.375-.135-2.5-.637-2.5s-.919 1.013-.927 2.25c-.013 1.819-.201 1.963-.985.75-.755-1.169-.973-.893-.985 1.25-.008 1.513-.352 2.751-.765 2.753-1.175.005-.975 7.992.201 8.036.577.022-.445.688-2.272 1.482-1.826.793-3.061 1.861-2.744 2.374.317.513-.776 1.531-2.429 2.263-2.007.888-3.006 2.05-3.006 3.498 0 2.384-3.056 2.677-3.826.367-.238-.716.032-1.014.601-.662.679.419.85-.741.497-3.37-.296-2.205.159-7.043 1.012-10.75.852-3.708 1.812-10.981 2.134-16.164.387-6.239 1.087-9.978 2.071-11.065.818-.904 1.757-3.189 2.087-5.078.33-1.889 1.205-5.054 1.944-7.034 1.716-4.596 3.072-14.593 5.389-39.705 1.458-15.803 2.216-20.463 3.547-21.794.93-.93 1.321-1.964.868-2.296-2.073-1.522-.735-22.565 1.629-25.605 2.685-3.454 6.665-21 4.998-22.031-.523-.323-.969-2.023-.99-3.778l-.039-3.191-1.461 3.365c-.804 1.85-1.461 5.311-1.461 7.691 0 2.379-.45 4.604-1 4.944-.55.34-1 1.984-1 3.653 0 2.165-.557 3.18-1.946 3.543-1.071.28-2.144 1.251-2.384 2.157-.316 1.187-.47 1.055-.554-.476-.064-1.167-2.221-4.063-4.794-6.435-4.536-4.181-4.697-4.527-5.269-11.377-.325-3.886-1.006-7.723-1.513-8.528-.507-.805-1.084-3.043-1.282-4.973-.198-1.93-.687-3.746-1.086-4.036-.4-.291-1.559-3.228-2.577-6.528-1.017-3.3-3.082-7.8-4.588-10-1.506-2.2-3.973-6.475-5.483-9.5-1.509-3.025-3.646-6.484-4.748-7.686l-2.004-2.185 2.154-3.025c2.898-4.07 8.074-7.78 8.074-5.787 0 4.179 9.106 5.757 16.315 2.827 1.548-.629 3.603-1.144 4.566-1.144 1.013 0 2.739-1.759 4.098-4.176 2.179-3.878 2.404-4.02 3.153-1.996 1.474 3.985 3.241 18.534 3.529 29.062.157 5.714.522 10.626.812 10.916 2.975 2.975 2.774-23.853-.321-42.806-.755-4.622.65-7.666 6.098-13.217.962-.981 1.75-2.362 1.75-3.07 0-.735 1.393-1.394 3.243-1.535 3.622-.276 8.265-4.298 14.973-12.971l4.093-5.293-1.152-8.207a866.768 866.768 0 0 1-2.195-17.207c-1.966-16.983-18.351-71.591-20.038-66.783-.745 2.124.545 9.327 1.819 10.155.532.345 1.519 3.103 2.193 6.128.675 3.025 2.283 8.2 3.575 11.5 1.291 3.3 2.571 8.259 2.844 11.02.273 2.761 1.247 7.036 2.166 9.5 2.222 5.965 2.847 9.581 2.023 11.718-1.034 2.685-2.053.2-3.994-9.738-.913-4.675-3.098-13-4.855-18.5l-3.195-10-.259 5.5c-.369 7.814-1.131 10.787-2.294 8.948-.755-1.192-.919-1.134-.932.333-.008.98-.716 2.051-1.572 2.379-.857.329-1.309 1.248-1.004 2.041.801 2.088-1.329 5.555-3.016 4.908-.783-.3-1.423-.11-1.423.422 0 .533.536.969 1.191.969.718 0 .567.496-.381 1.25-.865.688-1.827 3.275-2.138 5.75-.311 2.475-.327 3.938-.036 3.25.865-2.038 2.222-1.422 1.654.75-.617 2.359-.333 2.423 3.018.684 2.363-1.226 2.437-3.568.126-4.019-1.396-.273-1.213-3.813.226-4.365.737-.283 1.34-1.155 1.34-1.939 0-3.287 3.065-8.872 4.031-7.345.786 1.243.941 1.19.954-.325.022-2.666 1.704-1.158 2.284 2.047.274 1.519 1.402 6.137 2.505 10.262 1.104 4.125 1.643 7.729 1.198 8.009-.445.28-.969 2.08-1.164 4-.327 3.215-.461 3.017-1.689-2.509-1.832-8.246-2.315-9.475-2.847-7.25-.23.962-.822 1.75-1.314 1.75-.492 0-.637.672-.322 1.494.316.822.976 1.246 1.469.941.492-.304.895.204.895 1.128 0 1.382-.268 1.46-1.5.437-1.217-1.01-1.5-.97-1.5.211 0 .801-.562 1.523-1.25 1.606-.687.082-2.717.434-4.509.781-1.793.347-3.818.169-4.5-.396-.879-.728-1.877-.513-3.419.737-2.266 1.836-2.427 4.372-.576 9.061.542 1.375 1.315 5.2 1.716 8.5.402 3.3 1.202 6.573 1.777 7.274 1.304 1.588 1.04 1.825-2.989 2.689-3.732.799-4.365-.62-1-2.243 1.389-.669 1.676-1.108.75-1.146-.825-.033-2.85.833-4.5 1.926s-2.368 1.99-1.595 1.993c1.073.005.977.48-.405 2.007-.995 1.1-2.415 2-3.155 2-.74 0-1.232.542-1.095 1.205.138.662-.278 1.225-.923 1.25-2.121.082-24.274 22.593-24.397 24.792-.039.689-.473.353-.964-.747-.652-1.457-.836-.664-.68 2.922.36 8.279 2.309 7.248 15.523-8.211 4.65-5.441 8.191-7.799 8.191-5.456 0 .415-2.475 4.045-5.5 8.066-3.025 4.021-5.5 7.794-5.5 8.384 0 .59-3.317 4.273-7.371 8.184C281.09 413.697 275 422.473 275 425.587c0 1.181-3.814 5.01-4.308 4.324-4.627-6.433-7.366-15.282-7.652-24.72-.022-.72-.438-1.063-.924-.763-1.532.947-3.538-5.215-2.216-6.807.848-1.022.855-2.12.028-4.249-1.118-2.878-1.273-3.845-2.361-14.733-.323-3.224-.803-6.211-1.067-6.64-.265-.428-.684-3.64-.931-7.139-.327-4.625-.197-5.678.477-3.86.825 2.226.876 2.14.458-.787-.258-1.808.192-5.183.999-7.5.807-2.317 1.474-7.727 1.482-12.022.01-4.948.381-7.583 1.015-7.191 1.166.721 1.166-7.417 0-12-.587-2.308-.8-1.385-.921 4-.15 6.667-.219 6.857-1.453 4-1.702-3.939-2.824-9.74-1.756-9.08.462.285.793-.816.735-2.448-.116-3.271-1.2-3.962-1.916-1.222-.409 1.565-.957-4.029-1.126-11.5-.035-1.512-.513-3.081-1.063-3.485-.619-.455-.524-.74.25-.75.69-.008 1.256-1.247 1.264-2.765.019-3.969 1.071-7.315 2.1-6.68.487.302.886-1.23.886-3.404 0-2.668.51-4.148 1.569-4.554.934-.358 1.356-1.313 1.042-2.357-.575-1.92 2.823-6.723 4.168-5.891.46.283 2.835.764 5.278 1.067 2.444.303 5.568.806 6.943 1.117 10.291 2.331 12.576 1.017 10.461-6.012-1.83-6.081-1.833-7.09-.016-5.582 4.364 3.622 6.98-.075 8.103-11.454.217-2.2.638-5.8.935-8l.54-4-1.401 3c-.77 1.65-1.896 5.679-2.501 8.954-1.565 8.465-3.072 9.692-8.245 6.716-4.838-2.783-5.424-2.43-4.225 2.544 1.463 6.071 1.133 11.86-.651 11.395-1.714-.447-9.457-2.095-12.631-2.689-3.782-.707-3.345-3.785 1.71-12.041 2.653-4.333 5.201-8.329 5.664-8.879 2.914-3.469 7.257-10.608 7.257-11.93 0-.864.45-1.57 1-1.57s1-.675 1-1.5.45-1.5 1-1.5 1-.825 1-1.833c0-4.343 5.216-3.418 6.566 1.164.644 2.186 1.47 3.08 2.661 2.881 1.75-.293 6.773 2.45 6.773 3.698 0 .374 2.25 3.114 5 6.09s5 5.075 5 4.665c0-2.978-20.425-24.665-23.229-24.665-.974 0-1.771-.45-1.771-1s-.599-1-1.331-1c-2.346 0-3.939-4.44-3.188-8.885.789-4.671.556-4.919-1.981-2.115m-48.54 28.548c-.613.739-3.36 2.088-6.105 3-3.945 1.311-4.847 2.002-4.307 3.305 1.372 3.311 2.395 8.808 2.911 15.647.501 6.649.455 6.849-.921 4-.796-1.65-1.468-3.707-1.493-4.571-.105-3.646-3.574-8.996-4.985-7.686-1.117 1.036-1.225.906-.616-.743 2.985-8.079.869-10.913-7.944-10.638-9.415.294-14.093 1.148-12.349 2.253.981.621.741.859-.882.87-4.024.027-4.081 4.251-.216 16.015 2.635 8.019 3.458 28.301 1.386 34.173-1.771 5.02-1.855 9.518-.189 10.087.966.33.996 1.119.131 3.467-1.415 3.842-1.841 23.371-.527 24.182.535.331 1.232 3.3 1.549 6.597.316 3.296 1.01 7.794 1.541 9.994.532 2.2 1.265 5.244 1.631 6.765.365 1.52 1.06 3.009 1.544 3.309.485.299.881 1.911.881 3.581s.739 4.456 1.643 6.191c2.997 5.755 3.357 6.616 3.357 8.031 0 .773.822 3.241 1.827 5.485l1.827 4.08 1.137-6.721c.626-3.696 2.062-11.878 3.191-18.181l2.053-11.459-2.517-2.518c-1.385-1.385-2.518-1.992-2.518-1.349 0 .642.45 1.446 1 1.786 1.456.9 1.223 2.5-.364 2.5-2.569 0-4.667-7.908-3.98-15 .56-5.772 1.007-6.822 3.987-9.377 2.719-2.331 3.357-3.602 3.357-6.691 0-2.098.385-4.052.856-4.343.47-.291.292-3.805-.396-7.809-1.275-7.415-.928-8.726 2.321-8.765 1.745-.021 2.203 1.5 2.725 9.033 1.157 16.691.686 18.81-5.662 25.452-4.05 4.238-4.806 5.807-2.344 4.862 1.662-.638 2.083 1.16.5 2.138-1.976 1.221-.943 3.624 1.999 4.649 1.649.575 2.768 1.418 2.487 1.873-.579.937 1.513 6.15 2.85 7.103.483.344.379.933-.229 1.309-.609.376-1.107 2.406-1.107 4.511 0 2.104-.665 5.108-1.478 6.675-3.214 6.195-5.462 29.38-2.848 29.38.952 0 1.083.509.451 1.75-3.36 6.594-3.824 10.418-1.056 8.707.512-.316.931-.098.931.484s-.502 1.059-1.117 1.059c-.699 0-.854.84-.413 2.25 2.76 8.837 2.418 26.024-.972 48.75-.856 5.742-.94 8.906-.26 9.75.689.856.653 1.25-.116 1.25-.617 0-1.122.9-1.122 2 0 2.403-.094 2.392 3.852.424 3.689-1.84 5.067-4.059 5.716-9.2.259-2.048 1.13-7.549 1.935-12.224.806-4.675 1.422-11.403 1.371-14.951-.08-5.425.241-6.724 2.016-8.161 1.872-1.516 2.11-2.754 2.11-10.965 0-10.801.84-11.567 1.231-1.123.249 6.646.415 7.127 2.269 6.573 4.005-1.197 15.412-14.471 19.882-23.137 2.054-3.981 3.671-12.085 2.551-12.778-.449-.277-1.126-3.644-1.504-7.481-.378-3.837-1.133-6.977-1.676-6.977-1.176 0-.22-13.745 1.755-25.254 1.606-9.353 1.225-20.614-1.04-30.746-2.141-9.579-2.184-25.464-.091-34 2.585-10.544 1.464-13-5.934-13-1.354 0-3.233-.9-4.175-2-2.014-2.352-2.672-2.452-4.447-.681-1.744 1.741-11.639 8.681-12.377 8.681-1.781 0 .256-5.506 2.056-5.555 1.1-.03 3.8-1.171 6-2.535 7.015-4.35 9.001-4.939 10.197-3.023.578.926 3.358 2.311 6.177 3.079 2.819.767 5.126 1.764 5.126 2.215 0 2.247 1.83.365 2.953-3.038 1.731-5.246.91-7.133-6.283-14.433-10.033-10.183-18.316-15.046-20.71-12.162m179.223 18.08c-.889.966-2.611 1.275-5.298.951-2.19-.263-4.634-.229-5.433.078-1.667.639-1.984 3.343-.393 3.343.582 0 .781-.45.441-1s-.19-1 .334-1 1.219.696 1.546 1.547c.326.852 1.949 2.02 3.606 2.598 1.656.577 2.761 1.456 2.454 1.952-.311.504 2.51.903 6.384.903 7.076 0 7.805-.44 8.567-5.175.184-1.138-7.466-5.896-8.476-5.272a1.106 1.106 0 0 0-.372 1.516c.316.512.131.931-.411.931s-1.131-.631-1.309-1.402c-.275-1.193-.519-1.188-1.64.03M329 272.063l-2.5.738 2.365.099c2.281.096 2.308.188.75 2.565-.888 1.355-1.615 3.155-1.615 4 0 .844-.45 1.535-1 1.535s-1 .471-1 1.046c0 1.917-7.147 16.422-9.165 18.6-1.233 1.33-1.864 3.177-1.661 4.859l.326 2.713 3.264-3.131c2.374-2.277 3.121-3.738 2.74-5.359-.574-2.441.946-5.611 2.125-4.432.406.405.205 1.27-.446 1.921-1.879 1.879-1.373 2.918.771 1.58 1.075-.672 2.087-2.363 2.25-3.759.174-1.488 1.227-2.946 2.546-3.525 1.728-.758 2.244-1.802 2.223-4.5l-.026-3.513-1.705 2.75c-.938 1.512-2.051 2.75-2.474 2.75-1.187 0-.908-2.46.432-3.8.66-.66.867-1.2.461-1.2-.406 0 .126-.928 1.182-2.062 1.604-1.722 3.869-9.741 2.94-10.409-.156-.112-1.408.129-2.783.534M184.37 283.79c.334.541-.287 1.217-1.381 1.503-3.659.957-1.438 14.227 2.65 15.835 1.024.402 1.299.763.611.802-1.58.089-1.661 3.07-.083 3.07.641 0 .919.248.616.55-.302.303-.18 2.19.272 4.195.452 2.004.598 4.008.323 4.453-.855 1.383-4.378-1.167-4.378-3.168 0-2.247-1.875-7.488-2.467-6.896-1.143 1.143-3.369 15.046-3.46 21.616-.056 4.032.275 5.25 1.427 5.25.825 0 1.447.337 1.382.75-.601 3.801 2.548 8.22 4.48 6.288.787-.787 1.524-.515 2.65.978 1.501 1.99 1.566 1.915 1.721-1.974.089-2.223-.215-4.042-.675-4.042-1.781 0-3.543-15.582-1.878-16.611.499-.309 1.563-.017 2.364.647 1.211 1.006 1.456.771 1.456-1.395 0-4.39-2.358-16.641-3.204-16.641-.438 0-.796-.9-.796-2s.472-2 1.05-2c2.063 0 .692-11.434-1.418-11.836-1.04-.198-1.599.08-1.262.626m286.535 35.853c-.687 42.389-.663 50.389.158 50.896.515.318.997-.91 1.07-2.73.073-1.82.411-12.084.75-22.809.573-18.103.75-19.5 2.472-19.5s1.854 1.04 1.841 14.5c-.016 16.422.137 16.356 2.31-1 .861-6.875 1.832-14.187 2.157-16.25.488-3.085.294-3.75-1.094-3.75-.928 0-1.409-.45-1.069-1 .34-.55.029-1.007-.691-1.015-.951-.011-.899-.281.191-.985 1.143-.738.745-.973-1.668-.985-1.743-.008-3.88-.288-4.75-.622-1.326-.509-1.597.342-1.677 5.25m25.447 11.607c.347 2.887.635 14.839.639 26.559.006 13.949.354 21.096 1.009 20.691.55-.34 1-.174 1 .368s-.788 1.191-1.75 1.443c-1.317.344-1.193.486.5.573L500 381v-27.5c0-27.43-.005-27.5-2.139-27.5-1.994 0-2.097.356-1.509 5.25m-302.013 44.012c-2.925 3.296-2.903 7.573.045 8.694 2.76 1.049 2.585 5.659-.24 6.327-.904.214.032.735 2.081 1.159 3.31.685 3.792 1.177 4.328 4.415.902 5.449 1.182 6.005 2.895 5.753 4.424-.649 4.372-7.61-.056-7.61-1.316 0-2.392-.436-2.392-.969 0-.532.629-.727 1.399-.431 2.184.838 2.852-1.309 1.595-5.12-1.225-3.709-1.924-4.15-3.724-2.35-1.324 1.324-2.838-4.852-1.987-8.105.845-3.232-1.65-4.347-3.944-1.763m-20.364 2.303c-1.28 3.369-1.286 27.435-.006 27.435.532 0 .707.68.388 1.511-.388 1.012-.118 1.335.817.976 1.606-.617 1.848-1.691 2.287-10.155.176-3.393.548-6.543.825-7 .898-1.478 1.148-10.764.352-13.082-1.035-3.015-3.459-2.851-4.663.315m306.095 12.597c-.066 3.473.125 3.695 3.7 4.299 6.81 1.151 6.767.397 1.267 21.893-2.77 10.829-5.037 20.162-5.037 20.739 0 2.969 2.875-2.45 4.515-8.511 1.03-3.805 2.048-6.393 2.262-5.75.214.642 1.529 1.168 2.922 1.168 2.482 0 2.52.112 1.954 5.75-.476 4.743-.403 5.181.414 2.5.544-1.788 1.652-3.25 2.462-3.25 1.856 0 1.862-.119-.529 11.5-1.1 5.346-2.007 10.008-2.015 10.36-.009.352-.366.089-.793-.584-.457-.719-1.904 3.356-3.511 9.891-1.503 6.113-2.515 11.332-2.25 11.597 1.786 1.786 3.644-1.687 5.735-10.72 2.297-9.925 2.375-10.074 4.941-9.515 2.459.535 2.645.3 3.25-4.12 1.256-9.162.755-54.439-.607-54.837-2.57-.75-15.72-2.873-16.432-2.653-.407.126-1.063-.592-1.459-1.595-.502-1.275-.74-.721-.789 1.838m-301.979 32.504c-.775.875-1.623 3.816-1.885 6.537-.425 4.426-.276 4.912 1.41 4.622 1.478-.255 1.951.374 2.197 2.925.233 2.414-.088 3.25-1.25 3.25-1.939 0-2.03 2.979-.168 5.525 1.303 1.782 1.479 1.629 2.661-2.318 1.156-3.857 1.411-4.094 2.934-2.716.917.83 2.146 1.509 2.732 1.509 1.36 0 2.371 2.593 1.697 4.351-.403 1.049.328 1.213 3.28.733 3.736-.607 3.804-.697 4.104-5.473.292-4.634.201-4.829-2.007-4.275-3.605.905-5.028-.548-4.348-4.44.793-4.533-.681-6.833-3.329-5.193-2.194 1.36-3.119.089-3.119-4.285 0-2.83-2.701-3.244-4.909-.752m87.184 61.648c-2.609 4.048-3.385 6.775-3.409 11.983-.02 4.035.437 6.228 1.463 7.033 1.259.988 1.348 2.729.57 11.17-.508 5.5-1.143 21.925-1.413 36.5-.562 30.368-1.164 43.67-2.041 45.089-.337.546-.762 3.43-.944 6.409-.181 2.979-.58 5.82-.884 6.313-.305.493.548 1.399 1.895 2.013 2.536 1.155 5.417-1.454 3.703-3.353-.393-.435-.203-.499.423-.142 1.358.776 2.202-4.386 2.546-15.579.132-4.263.594-7.75 1.028-7.75.433 0 .79-7.987.792-17.75.001-9.763.688-28.1 1.526-40.75 1.425-21.52 1.435-36.965.025-40.539-.736-1.866-4.22-2.293-5.28-.647M0 761c0 70.583.222 128.112.493 127.841.659-.659.681-255.001.022-255.659C.232 632.898 0 690.417 0 761" fill="#d3d3d3" fill-rule="evenodd"/></svg>