<svg xmlns="http://www.w3.org/2000/svg" width="500" height="886"><path d="M0 50.5C0 94.722.186 101 1.5 101c.825 0 1.5-.482 1.5-1.071C3 98.576 5.532 96 6.861 96c.552 0 1.303-.941 1.668-2.091.472-1.487 1.243-1.941 2.666-1.568 1.594.417 1.9.129 1.498-1.409-.33-1.26.004-1.932.96-1.932.855 0 1.167-.482.75-1.158-.495-.8-.019-.975 1.544-.566 2.057.538 2.219.306 1.795-2.578-.697-4.751 2.135-9.127 6.637-10.257C25.821 74.079 27 73.157 27 72.392c0-.766.9-1.392 2-1.392s2-.45 2-1 .45-1 1-1 1 .961 1 2.135c0 3.443 3.659-1.801 4.543-6.51.508-2.709 1.388-4.029 3.13-4.691 1.352-.514 3.072-2.472 3.889-4.428.806-1.928 1.909-3.506 2.451-3.506 1.412 0 1.22 1.73-.263 2.385-.687.303.1.453 1.75.333 2.462-.179 2.957-.621 2.762-2.468-.136-1.287.31-2.25 1.043-2.25.705 0 1.712-1.456 2.238-3.236.544-1.839 2.036-3.768 3.457-4.469 1.375-.679 2.561-1.811 2.635-2.515a93.23 93.23 0 0 0 .25-3.143c.092-1.486.724-1.775 3.115-1.424 1.65.242 3 .099 3-.319 0-.417.807-1.015 1.794-1.329.986-.313 2.229-2.03 2.76-3.817.532-1.786 1.525-3.135 2.206-2.998.682.138 1.24-.2 1.24-.75s.675-1 1.5-1 1.514-.788 1.531-1.75c.038-2.078 3.372-4.661 7.256-5.619 1.881-.464 2.694-1.243 2.5-2.394-.237-1.41.451-1.673 3.963-1.511 3.15.145 4.25-.182 4.25-1.265 0-.804-.45-1.461-1-1.461-1.762 0-.6-2.165 3.25-6.055C100.313 2.862 102 .897 102 .578 102 .26 79.05 0 51 0H0v50.5m394-49c.685.825 1.865 1.5 2.622 1.5.758 0 1.378.459 1.378 1.019 0 1.104 5.147.193 6-1.062.275-.405 1.08-.11 1.789.654C406.85 4.753 406.805 5 405.539 5c-.846 0-1.539.477-1.539 1.059s.45.781 1 .441 1 .282 1 1.382c0 2.626.568 2.898 7.264 3.472 6.896.591 7.409.882 8.239 4.657.457 2.082 1.252 2.989 2.62 2.989 1.081 0 1.874.563 1.763 1.25-.32 1.984 1.207 4.75 2.621 4.75.822 0 1.217 1.114 1.082 3.058-.116 1.681.153 3.283.6 3.559.446.275.811 1.404.811 2.508 0 1.103.541 2.989 1.202 4.191 1.62 2.943 1.838 4.684.587 4.684-.599 0-.487.66.266 1.567.722.869 1.333 4.205 1.373 7.499.055 4.519.429 5.96 1.572 6.048.825.064 2.169.177 2.987.251 2.071.188 5.187 6.89 3.659 7.87-1.066.683-.188 1.166 1.604.883.413-.065.75.617.75 1.515 0 .898.969 2.473 2.153 3.5 1.184 1.027 1.747 1.881 1.25 1.899-.497.017-.11.633.858 1.368 1.001.76 1.649 2.367 1.5 3.719-.192 1.756.182 2.308 1.428 2.101 1.451-.24 1.556.181.75 2.994-.517 1.8-.939 3.311-.939 3.359 0 .047 1.012.05 2.25.006 1.555-.054 2.207.461 2.111 1.671-.076.963.261 1.75.75 1.75s.926-.562.97-1.25c.045-.687.681.1 1.415 1.75.733 1.65 1.09 4.237.793 5.75-.407 2.075-.148 2.75 1.055 2.75 1.005 0 1.381.553 1.018 1.5-.317.825-.067 1.5.556 1.5.622 0 1.559 1.125 2.082 2.5.523 1.375 1.372 2.5 1.887 2.5.515 0 .785.787.601 1.75-.184.963-.369 2.087-.411 2.5-.043.412-.414.669-.827.571-.413-.099-6.375.135-13.25.519-11.138.622-141.135 3.106-146.75 2.803-1.238-.066-2.25.282-2.25.775 0 .708-11.935 1.435-21 1.279-.825-.014-2.4-.002-3.5.027-29.321.768-125.5.479-125.5-.376 0-.78-.384-.774-1.342.021-.738.612-1.555.901-1.814.641-1.045-1.044-14.487-1.525-60.149-2.153l-47.806-.657 1.806 3.807 1.805 3.808 184.5-.86c242.486-1.13 233.997-1.132 234.018.045.579 32.203-1.357 447.378-2.641 566.388l-.62 57.387-117.128-.64c-142.778-.78-300.085-1.831-300.252-2.006-.067-.071-.394-58.854-.725-130.629-.332-71.775-.647-135.425-.702-141.444-.081-8.987-.398-11.172-1.774-12.218-1.172-.891-1.278-1.284-.351-1.306.827-.02 1.243-1.067 1.107-2.782-.121-1.512.152-3.623.604-4.69.515-1.212.413-2.077-.271-2.305-.702-.234-.811-1.35-.304-3.12.516-1.798.349-3.357-.48-4.491-.698-.955-1.04-2.616-.759-3.69.343-1.311.007-1.954-1.022-1.954-.843 0-1.714-.542-1.935-1.204-.221-.663-.371 77.929-.333 174.648l.068 175.853 18.5.308c10.175.169 31.55.566 47.5.881 15.95.316 87.5.788 159 1.05s139.225.742 150.5 1.068c11.275.326 23.573.533 27.33.46 4.477-.086 6.61.224 6.191.902-.352.569-.189 1.034.361 1.034s1.278-.45 1.618-1c1.036-1.676 4.519-1.213 3.857.513-.669 1.743 1.435 4.733 2.756 3.917 1.662-1.027 3.068.647 1.813 2.159-.908 1.094-.873 1.411.152 1.411.971 0 1.026.296.209 1.113-1.446 1.446-3.364.253-2.638-1.64.687-1.791-3.284.019-5.999 2.734-2.061 2.061-2.085 2.793-.091 2.793.885 0 1.263-.478.875-1.107-.953-1.542 3.62-.104 5.566 1.75 1.942 1.85-.02 3.267-3.579 2.587-2.056-.393-2.337-.169-1.748 1.401.572 1.523.435 1.659-.736.734-2.043-1.613-5.937.078-5.937 2.578 0 1.719.453 1.916 3.155 1.376 2.256-.451 2.952-.302 2.441.525-.393.636-1.561 1.156-2.596 1.156-1.035 0-2.165.457-2.51 1.016-.346.559-1.047.758-1.559.441-.512-.316-.931-.046-.931.601 0 .694.842.955 2.057.637 2.532-.662 2.117 1.221-.602 2.734-1.06.589-2.608 1.798-3.441 2.686-1.12 1.194-2.137 1.384-3.909.728-1.318-.487-2.648-.633-2.957-.325-.308.309.432.821 1.646 1.138 1.213.318 2.206 1.001 2.206 1.52 0 .518.342.73.761.472.419-.259 1.656.217 2.75 1.057 1.857 1.426 1.704 1.493-2.3 1.001-3.979-.488-4.241-.377-3.634 1.535.509 1.606.304 1.927-.93 1.454-.87-.334-1.849-.177-2.174.349-.325.526-.099.956.503.956.779 0 .766.614-.044 2.127-.876 1.637-.845 2.309.137 2.915.834.516-.168 1.177-2.897 1.912-4.697 1.265-5.565 3.046-1.483 3.046h2.688l-2.147 2c-1.18 1.1-2.728 2.007-3.438 2.015-.943.011-.9.264.16.934.799.506 1.86.667 2.357.36 1.525-.943-.485 4.099-2.107 5.285-1.969 1.44-.551 3.731 1.911 3.087 1.156-.303 1.887.025 1.887.846 0 .737-1.238 1.483-2.75 1.657-2.389.274-2.75.755-2.75 3.661 0 1.841.338 3.555.75 3.81 1.297.801.815 4.383-.667 4.952-1.222.469-1.221 1.016.013 3.968.787 1.884 1.051 3.425.586 3.425-.464 0-.836 2.025-.826 4.5l.019 4.5h38.812c30.32 0 38.839-.274 38.932-1.25.192-2.02.192-.88.033-109.035C500 672.263 499.994 671.933 498 673c-2.049 1.096-2.866 6-1 6 .55 0 1 .436 1 .969 0 .532-.753.679-1.674.326-1.282-.492-1.518-.239-1.011 1.083.394 1.027.262 1.478-.326 1.115-.544-.336-.989.053-.989.865 0 .811-.55 1.659-1.222 1.883-.77.256-.159 1.469 1.654 3.282 2.097 2.097 2.495 2.991 1.471 3.306-1.906.587-4.903 3.272-4.903 4.393 0 .502.905.626 2.011.275 1.841-.585 1.912-.421.839 1.932-1.267 2.782-4.499 3.705-3.456.987.385-1.005.151-1.431-.643-1.167-2.273.757-2.085 3.751.235 3.751 1.222 0 1.858.444 1.489 1.041-.354.572-1.618.774-2.809.448-2.042-.559-2.062-.509-.356.863 1.148.924 1.422 1.696.75 2.111-.583.36-1.06.152-1.06-.463s-.45-.84-1-.5c-1.756 1.085-1.074 3.537 1.219 4.385 1.527.565 2.681.358 3.705-.666 1.098-1.099 1.593-1.168 1.894-.265.835 2.504-1.629 3.51-5.846 2.384-3.827-1.021-6.916-.046-3.234 1.021 1.47.427 1.431.503-.238.461-4.415-.111-4.825.084-3.509 1.669.68.819 1.704 1.199 2.277.845.612-.378.741-.157.312.536-.401.649-.358 1.115.096 1.036 1.96-.34 3.399.164 2.877 1.009-.311.503 0 1.172.691 1.487.691.315-.657.314-2.994-.002-4.035-.547-4.25-.447-4.25 1.962 0 1.396-.733 2.949-1.628 3.45-1.205.674-1.313 1.107-.413 1.662.668.414 1.716.251 2.328-.361 1.57-1.57 2.713-1.382 2.713.446 0 .857-.45 1.281-1 .941-.55-.34-1 .022-1 .803 0 1.379-.652 1.403-7.5.28-2.882-.472-2.861-.443-1.5-2.083.685-.825.804-1.5.265-1.5-.634 0-.871-27.958-.671-79.25.438-112.188 1.336-249.065 1.908-290.75.669-48.792 1.742-161.059 1.614-169-.111-6.961 1.513-12.771 3.121-11.163.598.598.513 1.762-.23 3.15-1.052 1.965-.969 2.136.766 1.585 1.097-.348 2.422-.041 3.041.704 1.324 1.596 1.86 7.825.817 9.512-.713 1.154.374 1.628 3.005 1.313.625-.075 1.409.575 1.743 1.445.334.869 1.088 1.283 1.677.919.728-.45.875.647.459 3.437-.403 2.698-.233 4.098.496 4.098.609 0 .848-.419.532-.931-.317-.512-.118-1.213.441-1.559.566-.35 1.016.31 1.016 1.49 0 1.165.45 1.84 1 1.5.55-.34 1-.174 1 .368s-.755 1.131-1.679 1.309c-1.571.302-1.57.431.002 2.003 1.574 1.574 1.542 1.701-.493 2-2.53.373-3.757 2.82-1.413 2.82.871 0 1.583-.477 1.583-1.059s.481-.762 1.068-.399c.588.363.827 1.29.532 2.059-.296.77-.049 1.399.548 1.399.618 0 .88 1.076.607 2.5-.263 1.375-.06 2.5.451 2.5s.655.862.321 1.916c-.335 1.054-.14 2.205.432 2.559.573.354 1.041 1.704 1.041 3.001 0 1.296.563 2.547 1.25 2.778.982.33.963.768-.086 2.04-1.347 1.632-.846 3.706.895 3.706.583 0 .941-44.371.941-116.5V0h-53.622C398.827 0 392.896.17 394 1.5M38.011 131.121l-3.49 2.924.223 28.728c1.411 181.88 1.672 197.818 3.273 199.747.749.903.759 1.5.032 1.95-1.914 1.183-1.368 24.53.573 24.53 1.341 0 1.403.265.358 1.524-1.53 1.844-.868 2.754 1.377 1.893 2.329-.894 2.04-4.08-.429-4.726-1.988-.52-2.004-.645-.386-3.114 1.28-1.955 1.521-3.671 1.001-7.138-.391-2.608-.264-5.073.297-5.751.54-.654.8-3.213.577-5.688-.223-2.475-.368-4.95-.322-5.5.28-3.363.985-225.854.725-228.747l-.32-3.555-3.489 2.923M347 132l-22.5.5-8 4.404c-4.4 2.422-11.062 6.472-14.805 9-11.815 7.98-11.593 7.885-13.251 5.655-1.014-1.363-1.435-1.512-1.412-.5.017.792.644 2.249 1.393 3.235 2.246 2.963.084 8.059-4.254 10.025-2.764 1.253-3.765 1.345-4.364.403-1.272-2.002-.947-6.75.443-6.472 1.813.363 1.711-9.43-.105-10.035-.957-.319-1.171.129-.727 1.526.94 2.963-.335 5.42-2.462 4.745-1.136-.36-2.179.09-2.807 1.212-1.211 2.164-.882 2.541-6.06-6.948-2.326-4.262-4.678-7.75-5.226-7.75s-2.58-1.208-4.516-2.684c-3.336-2.545-3.756-2.621-8.069-1.468-3.898 1.043-4.799.99-6.296-.364-1.599-1.447-2.051-1.411-5.311.42-1.96 1.101-4.488 1.824-5.618 1.606-2.352-.453-2.538.268-.696 2.692.837 1.102 2.07 1.499 3.494 1.127 3.329-.871 6.4 3.026 4.929 6.255-1.506 3.304-2.664 3.034-2.561-.598.12-4.221-.626-4.54-4.411-1.882-4.535 3.184-5.829 5.045-5.143 7.396.528 1.809.333 1.769-2.041-.424-2.617-2.419-2.624-2.419-2.624-.25 0 1.196-.338 2.2-.75 2.232-.412.031-2.55.294-4.75.584s-4.851.512-5.891.494c-1.04-.018-3.609.844-5.71 1.916-5.133 2.618-6.391 2.47-8.899-1.052-1.175-1.65-2.781-3-3.568-3-.8 0-1.432-.952-1.432-2.155 0-2.078-.07-2.092-1.963-.379-1.222 1.106-2.637 1.515-3.75 1.084-1.699-.659-1.7-.757-.037-1.982.963-.709 1.75-1.746 1.75-2.306 0-.559.67-1.573 1.489-2.253 1.777-1.475 1.082-3.009-1.364-3.009-1.008 0-2.715 1.704-4.005 4-1.236 2.2-2.949 4-3.806 4-1.224 0-1.309-.301-.395-1.403.889-1.071.878-1.498-.047-1.806-.903-.301-.806-1.217.382-3.598 1.238-2.482 1.302-3.193.286-3.193-1.281 0-2.877 3.406-2.634 5.622.142 1.3-4.431 2.378-10.09 2.378-2.249 0-3.681.41-3.343.957.681 1.101-3.502.656-7.973-.849-1.65-.555-6.084-1.974-9.854-3.154l-6.853-2.145-3.372 3.268c-3.501 3.393-7.995 4.476-8.891 2.142-.284-.74-.997-1.048-1.586-.684-.588.363-1.829-.006-2.757-.821-.928-.814-3.712-2.493-6.187-3.731-2.475-1.237-6.208-3.594-8.296-5.237-3.806-2.995-6.113-3.149-3.704-.246.707.852 1.067 1.766.801 2.033-.477.477-13.254-5.847-15.408-7.626-1.259-1.04-7.393-.082-7.393 1.155 0 .446 1.463.952 3.25 1.125 2.716.262 3.25.723 3.25 2.813 0 3.319-3.594 3.858-7.138 1.07-4.063-3.196-6.327-2.686-3.088.694C83.365 142.99 86 149.823 86 154.611c0 1.848.536 5.363 1.19 7.81.908 3.394.914 5.055.027 7.002-1.061 2.329-.907 2.686 1.76 4.065 3.89 2.012 4.69 1.907 2.65-.348-1.339-1.479-1.473-2.414-.655-4.565.565-1.488 1.028-3.746 1.028-5.018 0-4.017 2.414-5.056 6.755-2.908 3.771 1.865 7.783 2.03 6.698.275-.314-.508-1.547-.924-2.739-.924-2.113 0-2.101-.067.437-2.606 3.048-3.047 4.15-2.854 11.786 2.065 2.958 1.906 5.757 3.23 6.22 2.944 1.68-1.038 2.988.718 1.695 2.275-.685.826-1.366 3.568-1.512 6.095-.396 6.805-.791 7.434-3.806 6.06-1.394-.635-2.534-1.532-2.534-1.994 0-1.405-4.675-.935-5.948.599-1.265 1.523 2.997 4.562 6.398 4.562 2.127 0 5.366 3.419 6.133 6.475.446 1.776.231 2.518-.725 2.503-2.227-.036-9.142-3.489-12.358-6.171-3.497-2.916-11.024-4.616-10.131-2.287.3.782.003 1.998-.661 2.701-.665.703-1.253 1.842-1.308 2.529-.055.688-.167 2.465-.25 3.95-.117 2.1-.417 2.433-1.35 1.5-.66-.66-1.785-1.2-2.5-1.2-1.781 0-1.641 3.802.209 5.652.83.83 1.286 1.871 1.013 2.313-.273.441.815 1.346 2.418 2.01 1.604.664 3.693 2.067 4.643 3.116.95 1.05 2.243 1.909 2.873 1.909 2.302 0 6.562 2.546 7.114 4.252.415 1.286 1.213 1.59 2.998 1.142 1.782-.448 2.432-.202 2.432.918 0 .897 1.283 1.811 3.104 2.211 10.554 2.318 12.921 4.938 14.535 16.088.556 3.845.409 4.178-2.272 5.135-1.577.562-4.854 2.875-7.283 5.138-2.429 2.264-4.816 4.116-5.303 4.116-.487 0-2.255-2.925-3.928-6.5-2.531-5.409-3.454-6.5-5.497-6.5-2.689 0-7.812 2.324-10.688 4.85-1.688 1.482-1.908 1.472-2.8-.121-.532-.951-1.426-1.729-1.986-1.729-1.024 0 2.033 4.831 5.341 8.439.977 1.066 1.777 2.663 1.777 3.55 0 .886.385 2.038.855 2.561.471.522 1.543 3.2 2.383 5.95 3.158 10.341 3.186 10.056-1.707 17.35-2.637 3.93-4.531 7.902-4.531 9.501 0 3.406 2.746 8.924 4.043 8.123.526-.326.957-.075.957.557 0 .631 1.013 1.993 2.25 3.025 1.766 1.474 1.904 1.885.639 1.911-2.103.043-1.372 4.719 1.178 7.533.997 1.1 1.81 2.225 1.808 2.5-.002.275.236 1.175.529 2 .294.825 1.632 4.875 2.974 9 1.342 4.125 3.112 9.062 3.934 10.971 1.413 3.285 1.37 3.619-.814 6.213-1.269 1.508-2.575 3.321-2.902 4.029-.474 1.024-.716 1.03-1.181.031-.948-2.034-2.473-.322-1.866 2.094.842 3.354-3.38 6.776-9.163 7.428-2.607.294-6.297 1.591-8.202 2.884-1.905 1.292-4.742 2.35-6.304 2.35-3.348 0-4.139 2.095-3.401 9 .728 6.816.778 7 1.888 7 .618 0 .551.482-.167 1.2-1.685 1.685-1.494 6.311.323 7.819.881.731 1.273 2.049.931 3.127-.375 1.181-.017 2.084.977 2.466.863.331 1.569.982 1.569 1.446 0 .464-1.913-.024-4.25-1.085-14.779-6.708-8.991 2.403 6.25 9.839 11.875 5.793 15.288 7.892 14.063 8.649-.579.358-1.557 1.594-2.174 2.747-1.09 2.036-.965 2.08 4.33 1.533 2.998-.309 6.076-.176 6.84.295.84.52 1.659.42 2.074-.251.477-.772 1.142-.653 2.185.39 1.333 1.333.9 1.803-3.892 4.229-2.965 1.502-5.638 3.13-5.94 3.619-.303.49-1.323.642-2.268.339-1.255-.402-1.369-.299-.421.382 1.033.742.943 1.221-.437 2.344-1.536 1.25-1.659 1.212-1.079-.338.409-1.092.179-1.75-.612-1.75-1.832 0-9.919 5.417-8.696 5.824 1.896.632 1.052 1.997-2.65 4.285l-3.677 2.273 2.677.892c3.391 1.131 3.356 1.701-.323 5.226-3.286 3.149-3.762 4.5-1.583 4.5.78 0 2.204 2.138 3.165 4.75.962 2.613 2.52 5.425 3.463 6.25.943.825 1.958 2.175 2.256 3 .304.843.576.309.62-1.221.093-3.214 9.29-12.779 12.288-12.779 1.035 0 3.007-1.125 4.382-2.5 2.602-2.602 4.409-3.217 4.409-1.5 0 .55.563 1.007 1.25 1.015 3.456.043 4.013 1.711 1.641 4.918-2.492 3.371-1.724 5.016 2.359 5.052.963.008 1.75.465 1.75 1.015 0 .55.9 1 2 1s2 .54 2 1.2c0 .909.281.919 1.158.042.83-.83.853-1.523.082-2.452-1.312-1.581.427-4.271 4.494-6.953 3.559-2.347 5.041-2.351 2.921-.008-1.967 2.174-2.39 5.306-.455 3.371.66-.66 1.673-1.184 2.25-1.164.578.02-.107 1.032-1.522 2.25-5.384 4.634-8.379 12.115-6.33 15.812 1.3 2.346 1.332 2.315 1.367-1.348.041-4.377 3.333-5.498 4.405-1.5 1.073 4.004.749 6.01-.87 5.388-2.017-.774-1.915 1.44.25 5.405 1.323 2.423 1.445 3.317.5 3.664-1.359.5-1.756 4.293-.45 4.293.44 0 1.315-.515 1.945-1.145 1.347-1.347 2.854 3.141 1.894 5.643-.678 1.767-4.899 1.981-7.464.379-1.394-.87-2.55-.734-5.14.605-1.911.988-6.714 1.959-11.219 2.268-4.333.297-8.083.873-8.335 1.28-.807 1.307 1.709 7.335 5.02 12.024 5.413 7.669 5.198 10.461-1.127 14.661-2.919 1.938-5.965 3.272-6.768 2.964-.803-.308-1.998.088-2.655.88-.658.793-1.816 1.441-2.573 1.441-.758 0-1.378.41-1.378.912s1.217.778 2.705.615c3.479-.382 6.58 1.062 10.775 5.019 2.341 2.208 5.404 3.684 10.08 4.859 7.077 1.777 11.779 3.818 14.698 6.378 1.646 1.443 1.652 1.709.106 4.13-3.415 5.347-6.671 7.392-7.702 4.837-.277-.687-.546-.35-.597.75-.051 1.1-.364 3.013-.695 4.25-.484 1.807-.192 2.25 1.482 2.25 2.623 0 1.974 2.151-2.062 6.832-1.952 2.264-2.674 3.959-2.252 5.288.403 1.271-.439 3.609-2.401 6.668-1.662 2.592-4.186 7.256-5.609 10.366-1.423 3.11-3.249 5.909-4.058 6.219-.808.31-1.47 1.22-1.47 2.022 0 3.165-8.885 1.512-11.564-2.151-1.734-2.371-3.547-.667-2.427 2.28 1.52 3.999 2.323 14.981 1.248 17.065-1.382 2.676-.5 4.411 2.243 4.411 1.283 0 2.581-.562 2.884-1.25.303-.687.291.433-.026 2.489-.424 2.749-.191 3.888.88 4.299 2.084.799-2.846 18.443-5.17 18.502-.912.023-.38.684 1.27 1.578 3.397 1.841 3.071 2.358-1.873 2.971-5.278.655-5.064.248-6.452 12.301-1.107 9.612-1.509 11.006-3.301 11.475-1.719.449-1.838.779-.754 2.084 1.096 1.321.963 1.551-.895 1.551-1.199 0-1.903.45-1.563 1 .34.55-.309 1-1.441 1-2.509 0-2.733 1.677-.309 2.311 1.233.322 1.04.491-.655.573-2.318.112-2.341.187-.646 2.06.968 1.069 2.725 2.082 3.905 2.25 1.826.26 2.15.976 2.173 4.806.035 5.788-.369 6.998-2.11 6.33-.779-.299-1.417-.083-1.417.48s.469 1.18 1.043 1.371c2.865.955 1.017 10.762-2.043 10.843-1.29.034-1.278.21.084 1.258 1.13.869 1.453 2.326 1.127 5.083-.307 2.6-.007 4.15.916 4.735 2.31 1.463 3.279 1.024 5.752-2.607 1.589-2.334 3.163-3.493 4.741-3.493 1.3 0 2.925-.9 3.612-2 1.49-2.386 2.768-2.596 2.768-.455 0 1.236.729 1.409 3.643.862 3.549-.666 3.626-.615 2.981 1.955-.817 3.257.447 3.388 6.14.638 2.277-1.1 4.626-2 5.221-2 1.768 0 11.338-5.058 13.744-7.265 2.259-2.072 17.032-3.387 18.275-1.627.277.392 2.527.323 5-.154 8.46-1.631 9.091-1.44 7.578 2.296-2.891 7.141-2.833 8.467.423 9.602 3.517 1.226 3.762 2.903.947 6.482l-2.048 2.604 2.298.532c1.264.292 8.598 1.595 16.298 2.895 15.142 2.555 14.332 2.032 13.366 8.635-.318 2.174.026 2.515 2.634 2.613 6.53.246 17.208.203 21-.086 2.2-.167 4.787-.354 5.75-.416.963-.061 1.75-.725 1.75-1.476 0-2.27 3.959-6.588 5.499-5.997 1.108.425 7.742-10.834 9.053-15.363.036-.124 3.263-.523 7.171-.886l7.106-.66 2.585 5.102c1.422 2.806 2.586 5.271 2.586 5.477 0 1.005-8.235 2.671-10.452 2.115-1.915-.481-2.694-.184-3.209 1.221-.374 1.021-1.728 3.128-3.009 4.683-4.656 5.648-4.563 5.673 21.003 5.673 12.834 0 23.673-.337 24.089-.75.415-.413 3.077-.75 5.916-.75h5.162v-7.413c0-8.171.856-9.303 5.254-6.953 4.277 2.285 12.516 13.136 10.732 14.134-3.761 2.105-.658 2.732 13.514 2.732h15v-2.809c0-4.455 2.022-6.513 5.208-5.302 1.472.56 5.788.743 9.72.414 6.715-.563 7.072-.487 7.072 1.517 0 1.17 1.002 2.637 2.25 3.295 1.238.651 2.535 1.622 2.884 2.157.349.534 1.048.804 1.553.6 1.436-.582-.585-8.872-2.163-8.872-2.417 0-1.769-8.715.782-10.502 3.347-2.344 5.322-1.793 7.636 2.128 1.177 1.994 2.407 3.358 2.734 3.031.327-.327-.151-1.734-1.064-3.126-.912-1.392-1.368-2.531-1.013-2.531.355 0 .217-.562-.306-1.25-.524-.687-1.009-4.092-1.077-7.565l-.125-6.314 6.205-6.536c3.412-3.594 7.867-7.387 9.9-8.428 2.033-1.041 4.131-2.668 4.661-3.616.851-1.521 1.588-1.594 6.304-.623 5.665 1.167 6.793.673 6.824-2.989.036-4.286 2.541-4.715 6.015-1.032 5.047 5.351 5.498 2.262.77-5.279-3.275-5.221-3.779-6.652-2.774-7.863 1.834-2.21.428-4.819-2.314-4.295-1.934.37-2.908-.593-6.213-6.136-5.976-10.025-17.39-20.949-26.719-25.573-4.262-2.112-7.738-4.102-7.723-4.421.058-1.259 5.921-7.5 5.946-6.33.015.688 1.136 1.25 2.492 1.25 2.866 0 4.607 2.638 5.61 8.5.601 3.507.684 3.234.675-2.213-.007-4.79-.438-6.6-1.88-7.905-2.5-2.262-2.428-6.07.13-6.882 2.163-.686 2.655-2.115.928-2.691-2.934-.978 16.923-15.809 21.166-15.809 2.138 0 1.246-5.562-1.699-10.588-1.317-2.248-2.395-4.728-2.395-5.51s-1.556-5.003-3.459-9.379c-3.206-7.376-3.341-8.087-1.845-9.74 1.501-1.658 1.463-1.783-.541-1.783-1.687 0-2.155-.6-2.155-2.765 0-1.52-.913-4.467-2.028-6.549-1.203-2.245-1.929-5.259-1.784-7.413.14-2.067-.255-3.795-.915-4.015-.638-.213-1.672-1.937-2.297-3.832-.626-1.894-1.587-3.166-2.137-2.827-.549.34-1.663-.331-2.476-1.491-.812-1.159-2.09-2.108-2.839-2.108-1.078 0-1.158-.741-.383-3.55.713-2.579.603-4.837-.401-8.261-1.251-4.266-1.21-4.993.434-7.7 2.611-4.299 2.272-6.178-1.568-8.696-3.807-2.495-4.484-3.414-9.792-13.293-2.069-3.85-3.773-6.437-3.788-5.75-.042 1.995-1.742 1.445-2.316-.75-.287-1.1-.115-2 .384-2 .498 0 .906.354.906.786 0 .432.788.823 1.75.868.962.046 4.45.776 7.75 1.623 9.71 2.492 12.713 2.862 12.262 1.51-.219-.657-1.942-1.558-3.83-2.001-11.806-2.771-15.9-4.485-16.011-6.705-.052-1.033-.254-1.147-.583-.331-.718 1.779-2.037 1.551-4.338-.75-2.188-2.188-2.609-4-.929-4 1.599 0 4.283-2.988 3.411-3.798-.416-.386-.963-.121-1.216.59-.352.987-.789 1.019-1.852.136-.766-.635-1.102-1.623-.748-2.196.359-.581.163-.745-.442-.37-.597.369-1.331.274-1.631-.212-.742-1.2 5.354-12.301 6.4-11.654 2.148 1.327 18.543 2.311 19.61 1.176.767-.814.88-4.993.372-13.672-.703-11.996-.647-12.57 1.396-14.228 3.25-2.638 3.904-2.218 7 4.5 2.655 5.759 2.88 7.189 2.994 18.978.091 9.502.442 12.75 1.379 12.75.832 0 1.256-1.606 1.256-4.759 0-5.223 3.231-9.062 5.119-6.083.606.956.855.657.866-1.04.009-1.429 1.465-3.749 3.639-5.799 3.41-3.217 3.515-3.497 1.788-4.759-2.294-1.678-3.104-12.378-1.566-20.689.841-4.544 6.497-15.548 9.574-18.624.208-.208 3.169 1.031 6.58 2.753 3.411 1.722 6.324 2.989 6.473 2.815.148-.173.489-2.696.756-5.606.482-5.258-1.456-8.423-4.143-6.762-.48.296-1.182-.695-1.561-2.203-.662-2.638-.742-2.668-2.106-.802-1.38 1.886-1.419 1.878-1.419-.31 0-1.245-.447-1.974-1-1.632-.55.34-1-.009-1-.774 0-2.559 1.381-2.813 2.755-.507 1.225 2.056 1.311 1.713.873-3.486-.416-4.924-.038-6.752 2.579-12.5 2.912-6.393 3.009-7.014 1.93-12.293-.625-3.058-1.144-10.258-1.152-16-.009-5.742-.587-12.351-1.286-14.688l-1.271-4.247-1.964 3.247-1.964 3.248-.322-2.809c-.357-3.109-2.678-3.198-2.678-.103 0 5.665-4.234 5.927-5.131.318-.965-6.036-5.266-9.685-7.257-6.156-.791 1.402-1.239 1.501-2.25.5-.694-.687-.897-1.25-.451-1.25s-.197-.816-1.428-1.812c-1.231-.997-2.326-2.685-2.433-3.75-.269-2.672-5.403-13.587-6.999-14.881-1.864-1.51-8.551-11.811-8.551-13.171 0-.628-.646-1.677-1.436-2.333-.789-.655-1.725-2.51-2.079-4.122-.354-1.612-.946-2.933-1.314-2.935-.369-.002-1.532-2.098-2.585-4.657l-1.915-4.654 2.275-1.843c1.753-1.419 1.905-1.842.665-1.842-.886 0-1.611-.661-1.611-1.469 0-.833-.593-1.241-1.371-.942-2.15.825-4.468-2.228-6.191-8.154-1.675-5.762-3.488-7.425-8.122-7.45-4.158-.023-5.543-1.33-5.795-5.472-.124-2.041-.629-4.005-1.123-4.363-5.216-3.778-5.795-8.607-1.609-13.406 2.131-2.443.668-3.468-1.783-1.25-1.338 1.211-2.006 1.392-2.006.544 0-.821-.786-1.066-2.223-.69-2.06.539-6.777-2.5-6.777-4.365 0-1.304 15.575-7.867 20.25-8.533 5.684-.81 5.837-.343 1.216 3.714-1.943 1.706-3.284 3.351-2.979 3.656.966.967 10.474-4.245 11.073-6.07.316-.963 1.444-1.75 2.507-1.75 1.063 0 1.933-.675 1.933-1.5s.477-1.5 1.059-1.5.781.45.441 1c-1.172 1.896.683.995 2.455-1.192 1.705-2.107 1.995-2.139 7.425-.837 4.899 1.176 5.568 1.617 5.028 3.318-.411 1.295-.246 1.729.485 1.277 2.477-1.531.856 2.103-2.953 6.62-2.232 2.648-3.695 4.81-3.25 4.805.87-.009 24.278-24.343 25.61-26.622.44-.753 1.587-1.369 2.55-1.369 2.411 0 4.15-1.959 4.15-4.676 0-1.252.898-3.749 1.996-5.55 2.006-3.29 2.778-10.774 1.111-10.774-1.055 0-2.107 2.45-2.107 4.907 0 2.87-4.261 6.092-8.064 6.099-2.72.005-3.77.595-5.041 2.829-.883 1.553-3.021 3.83-4.75 5.062-5.114 3.641-4.194-.843 1.103-5.378l4.249-3.636-2.437-1.838c-1.34-1.011-3.027-1.611-3.748-1.334-.722.276-2.048.22-2.948-.125-1.493-.573-1.481-.799.138-2.588 1.485-1.641 1.56-2.218.461-3.542-1.093-1.317-1.012-2.417.48-6.568 1.9-5.283 1.346-7.687-1.025-4.445-1.324 1.81-1.418 1.707-1.418-1.552 0-1.92-.485-3.976-1.078-4.569-.772-.772-.325-2.566 1.567-6.3 2.85-5.625 2.644-7.211-.668-5.142-1.52.949-2.279.997-2.785.178-.472-.763-4.703-1.035-13.116-.842-6.831.156-22.545.509-34.92.784m-77 2.418c0 2.469 1.173 4.593 2.189 3.965.565-.349.828.394.621 1.756-.202 1.336-.941 2.235-1.702 2.072-1.822-.393-.568 4.853 1.547 6.472.85.651 1.249 1.664.886 2.25-.362.587.028 1.067.869 1.067.947 0 1.308-.57.952-1.5-.317-.825-.078-1.5.531-1.5s1.107-.628 1.107-1.395 1.117-2.455 2.483-3.75c3.155-2.993 3.143-4.215-.061-6.314-1.515-.993-2.353-2.278-2.032-3.115.417-1.087-.397-1.426-3.421-1.426-2.76 0-3.969.432-3.969 1.418m-35.015 23.332c-.013 1.498-.157 1.534-1 .25-1.354-2.063-3.215.601-2.514 3.598.358 1.53-.181 2.404-1.99 3.229-3.943 1.796-3.134 4.788 1.157 4.273 4.348-.521 8.701 4.79 5.112 6.238-.747.301-.545.536.5.583 1.068.048 1.75.873 1.75 2.114 0 1.702-.316 1.866-1.934 1-3.377-1.807-6.654-1.234-7.841 1.37-1.082 2.376-1.032 2.405 4.09 2.341 6.053-.076 8.932.405 9.829 1.642.355.489 1.93-1.086 3.5-3.5 1.571-2.413 3.676-5.288 4.677-6.388 1.002-1.1 3.439-4.114 5.417-6.699l3.595-4.699 3.046 2.563c3.461 2.912 4.372 2.011 2.2-2.176-.812-1.565-1.248-3.215-.969-3.667 1.704-2.757-2.433.065-7.651 5.219-3.648 3.603-7.306 6.278-9.064 6.63-2.346.469-2.823.981-2.338 2.507.682 2.15-1.08 4.822-3.179 4.822-.758 0-1.378-.873-1.378-1.941s-.45-2.219-1-2.559c-1.602-.99-1.16-2.314 1-3 1.1-.349 2-1.103 2-1.674 0-.572-.661-.786-1.468-.477-.807.31-1.734.133-2.059-.393-.325-.526.362-.956 1.527-.956 1.287 0 1.851-.432 1.438-1.101-.387-.626-1.922-.852-3.559-.525-2.131.426-2.879.193-2.879-.899 0-.811-.45-1.475-1-1.475s-1-.502-1-1.117.877-.887 1.952-.606c1.074.281 2.12.006 2.326-.611.206-.618 1.465-1.132 2.798-1.144 1.744-.016 2.514-.653 2.744-2.272.355-2.505-1.597-3.026-3.745-1-1.06 1-1.417 1-1.783 0-.682-1.86-2.29-1.511-2.307.5M310.768 188c-1.459 2.337-4.768 2.684-4.768.5 0-.825-.502-1.5-1.117-1.5-.617 0-.887.878-.603 1.963.552 2.109-1.585 4.585-3.132 3.628-2.179-1.346-5.579 3.079-5.32 6.923.245 3.645.17 3.736-2.642 3.173-3.142-.628-5.186.71-5.186 3.396 0 1.002 1.013 1.877 2.5 2.162 1.375.263 2.5.09 2.5-.384 0-.914 3.654-4.861 4.5-4.861h1.607c.609 0 .838-.7.51-1.556-.579-1.509 1.04-3.496 6.458-7.927 1.334-1.091 2.65-2.003 2.925-2.026 1.182-.101 6-3.8 6-4.606 0-1.671-2.983-.885-4.232 1.115m-145.083 29.645c-3.369 1.78-8.809 7.27-16.974 17.132l-6.025 7.277-2.246-2.111c-2.109-1.981-2.308-2.002-3.234-.346-.705 1.259-.589 2.163.403 3.155 2.087 2.087 1.677 3.917-.859 3.827-1.61-.056-2.25.49-2.25 1.921 0 1.197.566 1.878 1.408 1.697 1.46-.314 3.05 1.462 3.077 3.435.011.814-1.039.769-3.735-.16-2.062-.711-3.975-1.047-4.25-.746-.275.301.063.749.75.994 2.663.951 1.061 2.28-2.75 2.28-2.889 0-4 .417-4 1.5 0 .825.338 1.447.75 1.382 2.063-.326 3.25.265 3.25 1.618 0 .825-.45 1.5-1 1.5-1.918 0-.976 2.19 2.316 5.387 1.823 1.771 3.115 3.821 2.87 4.555-.293.879-.005 1.064.839.543.776-.48 1.037-.395.66.215-.343.555.455 2.023 1.774 3.261 1.318 1.239 2.173 2.833 1.901 3.544-.768 2 1.3 2.692 2.991 1.001 1.35-1.35 1.577-1.307 2.119.399.641 2.021 3.53 3.71 3.53 2.064 0-.533.477-.969 1.059-.969s.781.45.441 1-.141 1 .441 1 1.059-.52 1.059-1.155c0-.667.818-.415 1.937.598 2.456 2.222 3.937 1.35 3.307-1.948-.395-2.063-.896-2.429-2.616-1.908-3.428 1.037-3.762.992-4.847-.649-.792-1.197-.414-2.231 1.615-4.42l2.649-2.859 1.119 2.964c.956 2.532 1.645 2.964 4.727 2.963 1.985 0 4.509.402 5.609.894 1.782.797 1.851.711.632-.787-.752-.925-1.136-2.568-.853-3.651.283-1.083-.114-2.49-.882-3.128-.768-.637-1.397-.847-1.397-.465 0 .382-.748-.054-1.663-.969-2.555-2.555-7.337-12.313-7.337-14.972 0-1.449-.736-2.607-1.89-2.973-2.502-.794-3.502-5.535-1.167-5.535.916 0 3.832-1.374 6.48-3.053 4.487-2.846 4.688-3.146 2.952-4.415-1.024-.749-2.102-.974-2.395-.5-.296.479-1.175.465-1.977-.03-1.917-1.185-.949-1.999 3.593-3.024 3.633-.819 8.315.778 6.78 2.313-.337.336.566.907 2.006 1.269 2.775.696 3.442 1.999 1.377 2.687-.892.297-.752.903.5 2.155 2.247 2.247 2.222 3.537-.056 2.941-1.427-.373-1.782.111-1.723 2.343.041 1.548-.348 3.111-.865 3.473-1.207.847-3.615-1.542-3.615-3.588a1.57 1.57 0 0 0-1.559-1.571c-.857 0-1.284.445-.948.989.358.579-.134.747-1.191.405-1.507-.487-1.556-.406-.302.496 1.301.936 1.273 1.081-.215 1.095-.943.008-2.196.915-2.785 2.015-1.191 2.226-1.097 2.269 4.39 2.01 3.301-.155 3.791.076 3.232 1.532-.557 1.453-.203 1.624 2.316 1.12 2.348-.469 2.855-.286 2.411.872-.31.806-1.302 1.473-2.206 1.481-1.434.014-1.453.15-.143 1.076 1.129.799 1.191 1.187.25 1.568-2.009.816-1.43 2.75 1.186 3.963 1.579.732 2.76.782 3.399.143.639-.639 1.372-.248 2.108 1.128.62 1.159 1.787 2.107 2.592 2.107.806 0 1.465.365 1.465.811 0 .447.923 1.803 2.051 3.013 2.161 2.32 1.858 4.176-.681 4.176-1.618 0-4.569 2.467-3.833 3.204.243.243-.903 1.731-2.547 3.306-1.645 1.575-2.99 3.905-2.99 5.177 0 1.561-.585 2.313-1.8 2.313-.99 0-2.396.563-3.125 1.25-1.012.955-1.429.968-1.765.056-.241-.656-1.097-.941-1.9-.633-1.096.421-1.184.894-.353 1.895 2.29 2.759-2.172 11.897-5.397 11.053-2.601-.68-13.884 10.076-13.117 12.505.337 1.069-.216 1.817-1.616 2.183-1.175.307-1.833 1.035-1.469 1.624.398.643-.295 1.067-1.744 1.067-1.322 0-3.225.907-4.228 2.016l-1.824 2.015-2.491-2.265c-2.096-1.906-2.386-1.975-1.831-.434.363 1.007.66 2.674.66 3.704 0 1.378.992 2.052 3.75 2.549 2.063.372 4.339 1.144 5.059 1.717 1.918 1.525 6.828 1.935 5.339.446-1.816-1.816-1.344-2.915 1.102-2.568 1.446.206 2.364 1.124 2.57 2.57.175 1.238.738 2.25 1.25 2.25.511 0 .93.477.93 1.059s-.45.781-1 .441-1 .309-1 1.441c0 3.174.328 3.575 2.75 3.356 1.394-.126 2.25.35 2.25 1.25 0 .799-.54 1.453-1.2 1.453-.837 0-.883.317-.152 1.048 1.524 1.524 6.352-.914 6.352-3.209 0-1.011.434-1.839.965-1.839 1.442 0 3.111 3.639 2.454 5.35-.649 1.691-3.419 3.064-3.419 1.695 0-1.107-5.381 1.504-6.92 3.359-.863 1.039-.773 1.5.378 1.941.892.343 1.258 1.23.896 2.174-.571 1.49 4.571 9.976 7.092 11.703.58.396 1.729 1.184 2.554 1.75 1.165.798 1.221 1.209.25 1.837-.982.636-.935 1.225.218 2.75 1.406 1.859 1.47 1.825 1.5-.809.034-2.942 1.719-3.73 2.67-1.25 1.086 2.828 2.162 1.499 2.012-2.483-.155-4.126-1.925-5.864-4.119-4.043-1.782 1.479-2.538.174-1.492-2.577.557-1.465.542-3.369-.039-4.897-.523-1.375-.624-2.51-.225-2.522.399-.012-.393-.882-1.76-1.932-1.367-1.05-2.147-2.247-1.733-2.661.413-.413 1.284-.219 1.935.432 2.095 2.095 3.878 1.41 3.214-1.236-.469-1.87-.03-2.798 1.937-4.086 3.396-2.226 4.462-1.325 4.453 3.761-.011 6.036.019 6.122 1.673 4.749 1.22-1.012 1.818-.871 3.25.77.966 1.106 3.396 2.248 5.4 2.538l3.644.527-.526-3.92c-.425-3.173-.214-3.92 1.106-3.92.898 0 1.632.45 1.632 1s.604 1 1.342 1c.738 0 1.863 1.74 2.5 3.866 1.597 5.331 1.504 5.591-1.342 3.726-2.864-1.877-3.358-.832-.75 1.586.963.893 3.932 3.918 6.598 6.723 2.667 2.804 5.212 5.099 5.657 5.099 1.131 0-.092 4.225-1.686 5.821-.725.727-1.319 1.907-1.319 2.622 0 .714-1.494 2.323-3.321 3.575-1.826 1.251-3.851 3.475-4.5 4.941-.649 1.466-1.968 3.543-2.93 4.616-4.945 5.515-5.032 5.818-1.459 5.111 2.707-.536 3.238-.361 3 .989-.181 1.026.646 1.914 2.21 2.37 6.412 1.869 8.591 3.141 6.632 3.87-1.573.584-1.104 1.192 2.97 3.842 3.404 2.214 5.054 2.799 5.566 1.972.399-.647.188-1.519-.471-1.937-.851-.541-.763-.757.303-.745 3.017.033 5.432 2.727 3.996 4.458-1.734 2.089-5.166 1.448-12.758-2.385-7.54-3.806-9.639-4.016-8.704-.87.367 1.238 1.41 2.797 2.317 3.466a60.652 60.652 0 0 1 2.929 2.318c.705.606 2.856 1.357 4.781 1.67 1.925.312 3.278.791 3.005 1.063-.273.273-.009 1.405.586 2.516.918 1.716.823 1.921-.629 1.364-.94-.36-2.872-.947-4.293-1.304l-2.584-.649 2.194 3.081c1.206 1.695 3.815 3.616 5.796 4.27 2.752.908 3.28 1.42 2.234 2.166-1.027.733-.9.824.507.366 1.163-.379 2.342.024 3.098 1.058 1.213 1.658 3.525 1.164 3.525-.753 0-.55-.45-.722-1-.382-.55.34-1-.069-1-.91 0-1.672 2.387-1.213 5 .963 1.834 1.526 8.65 3.464 9.433 2.681.312-.312.567-.042.567.599 0 .642.637 1.167 1.417 1.167.779 0 1.592.527 1.807 1.171.437 1.312 4.776 1.945 4.776.697 0-.439-.9-1.279-2-1.868-1.1-.589-2-1.73-2-2.535 0-.806-.542-1.353-1.205-1.215-.662.137-1.281-.312-1.375-1-.355-2.604-.476-2.711-1.42-1.25-.831 1.286-.972 1.254-.985-.227-.008-.95-1.158-2.476-2.554-3.391-1.478-.968-2.418-2.42-2.25-3.475.159-.997-.611-2.494-1.711-3.328-1.852-1.403-1.865-1.518-.178-1.547 1.38-.024 1.743-.676 1.5-2.695-.181-1.494.227-2.847.928-3.083.711-.239 1.25.405 1.25 1.494 0 1.053 1.125 2.516 2.5 3.252 3.335 1.785 3.184 3.208-.25 2.353-2.454-.611-2.606-.51-1.41.942.737.895 2.127 1.877 3.089 2.183 2.225.706 9.35-2.217 8.552-3.508-.776-1.257 3.565-1.233 5.519.03 1.125.727 1.166.973.167.985-2.544.029-.496 2.486 2.248 2.696 2.045.158 2.615-.161 2.203-1.234-.614-1.601.215-1.84 2.142-.617.967.615.834 1.247-.574 2.731-1.78 1.875-1.773 1.96.24 2.964 1.141.569 2.086 1.471 2.1 2.005.072 2.692 3.857 6.47 6.482 6.47 1.633 0 3.033.665 3.397 1.613.501 1.306.902 1.377 2.107.377 1.543-1.28 2.054-3.179.738-2.74-.412.137-.75-.2-.75-.75s.338-.887.75-.75c1.219.406.88-.747-1.428-4.853-1.198-2.131-1.935-4.117-1.639-4.414.918-.918 5.477 1.264 5.597 2.679.062.736.205 2.793.318 4.572.287 4.522 3.995 7.015 7.149 4.805 1.209-.846 3.11-1.507 4.226-1.469 1.795.063 1.825.15.265.768-1.612.637-1.569.862.5 2.634 1.244 1.065 2.487 1.883 2.762 1.817.275-.065 1.041.33 1.702.879.661.548 2.236.679 3.5.29 1.264-.388 1.964-.354 1.557.076-.815.859.963 3.466 2.363 3.466 2.007 0 .565-2.356-4.6-7.522-3.013-3.013-5.938-5.478-6.5-5.478-.562 0-1.022-1.098-1.022-2.441 0-1.343-.45-2.719-1-3.059-.55-.34-1-1.002-1-1.471 0-1.626 3.005-.398 5.965 2.438 2.556 2.448 3.066 2.616 3.612 1.192.962-2.507 2.423-1.988 2.423.86 0 2.188.329 2.437 2.5 1.892 1.54-.387 2.5-.202 2.5.481 0 .609-.45 1.108-1 1.108s-1 .45-1 1 .9 1 2 1 2-.488 2-1.083c0-1.625 2.496-.469 2.526 1.169.015.778.379 1.977.809 2.664.944 1.507-.517 1.668-1.968.217-.711-.711-1.034-.102-1.034 1.956 0 1.644.375 2.757.834 2.474.458-.283.833-.071.833.471 0 .542-.788 1.191-1.75 1.443-1.667.435-1.667.463 0 .573.962.064 1.75.575 1.75 1.135 0 .594 1.068.751 2.561.376 2.066-.518 2.67-.228 3.122 1.502.471 1.799.808 1.94 2.093.874.842-.699 1.8-1.158 2.128-1.021.328.137.596-.275.596-.917 0-.641.563-1.354 1.25-1.583.688-.229 1.25.071 1.25.667 0 .595.702 1.083 1.559 1.083s1.279-.453.937-1.007c-.343-.554.036-1.26.842-1.569 1.854-.712 2.826-4.203 1.31-4.708-1.21-.403-1.585-3.873-.51-4.716.351-.275.332-2.3-.042-4.5-.561-3.297-.788-3.605-1.294-1.75-.598 2.189-2.802 3.208-2.802 1.295 0-.525-1.575-1.25-3.5-1.611-4.124-.774-5.36-5.434-1.441-5.434 1.132 0 1.816.393 1.52.872-.544.881 6.438 2.444 7.257 1.625.243-.243-.746-.892-2.197-1.444-1.452-.552-2.639-1.64-2.639-2.417 0-.827-1.471-1.689-3.546-2.079-2.331-.437-3.905-1.452-4.593-2.963-.736-1.615-1.762-2.22-3.45-2.035-1.321.145-2.656-.146-2.966-.648-.31-.501.562-.911 1.937-.911 3.545 0 4.197-1.779 1.16-3.163-1.917-.873-2.413-1.669-1.949-3.129.428-1.35.257-1.733-.553-1.233-.724.448-1.393-.111-1.745-1.455-.399-1.525-1.13-2.035-2.432-1.694-1.023.267-2.113.078-2.421-.42-.308-.498-.098-.906.468-.906.565 0 .766-.68.447-1.511-.431-1.124-.124-1.337 1.196-.83 1.216.466 1.547.312 1.052-.489-.398-.644-1.541-1.17-2.542-1.17-1.718 0-4.696-2.613-4.449-3.904.198-1.032-4.056-5.061-5.364-5.079-.687-.009-1.25-.467-1.25-1.017 0-.55-1.07-1-2.378-1-3.168 0-5.596-2.771-3.558-4.061 1.06-.67 1.098-.912.144-.924-.71-.008-2.258-.915-3.438-2.015-2.61-2.432-4.957-2.652-4.087-.384.547 1.425.336 1.46-1.781.294-1.896-1.044-2.058-1.395-.77-1.667 1.972-.416.244-5.222-1.882-5.235-1.105-.007-1.436-.731-1.17-2.561.045-.304-.619-1.62-1.474-2.925-.889-1.357-1.131-2.514-.564-2.703.544-.181-2.583-4.718-6.949-10.081C234.182 339.792 231 335.027 231 332.632c0-1.784-2.508-2.236-3.5-.632-.34.55-.162 1 .394 1 .599 0 .457 1.123-.348 2.75-3.187 6.44-3.742 8.124-3.046 9.251.492.795.116 1.064-1.132.81-2.361-.483-2.098-4.531.687-10.572 1.427-3.094 1.792-5.346 1.331-8.227-.58-3.624-.407-4.053 1.99-4.965 1.443-.549 2.624-1.774 2.624-2.722 0-1.364.257-1.468 1.228-.497.681.681 1.238 3.798 1.25 6.994.016 4.126.591 6.572 2.022 8.604 1.1 1.561 2.52 3.736 3.155 4.832 1.283 2.215 4.201 5.964 9.095 11.685 1.787 2.09 3.25 4.075 3.25 4.411 0 .75 4.457 5.891 8.473 9.772 1.635 1.581 3.772 2.874 4.75 2.874.977 0 1.777.428 1.777.952 0 1.354 7.069 8.048 8.5 8.048.656 0 3.707 2.475 6.781 5.5 6.339 6.239 6.614 6.333 9.413 3.25 3.175-3.497 3.87-7.75 1.266-7.75-1.143 0-1.806-.441-1.473-.979.789-1.277-1.112-4.769-4.108-7.545-1.308-1.213-2.379-2.716-2.379-3.341 0-.624-.45-1.135-1-1.135s-1-.477-1-1.059.45-.781 1-.441 1.032.029 1.07-.691c.039-.72.419-.417.845.673s2.519 2.89 4.653 4c2.133 1.11 4.34 2.923 4.905 4.029 1.091 2.137 2.249 2.452 4.277 1.165 1.794-1.139 1.542-5.35-.363-6.081-1.043-.4-1.425-1.343-1.079-2.664.738-2.823-2.375-8.112-4.308-7.319-.825.338-2.4.801-3.5 1.028-1.78.367-1.759.285.192-.741 1.205-.634 2.436-1.79 2.735-2.569.552-1.438-2.886-7.646-5.908-10.669-1.544-1.543-1.482-1.725.911-2.635 3.15-1.197 3.199-1.973.32-5.068-1.238-1.331-2.14-2.757-2.006-3.17.134-.412-.6-2.251-1.631-4.087-3.802-6.769-3.667-9.094.729-12.576 2.17-1.719 4.781-3.118 5.802-3.11 1.423.012 1.539.216.499.875-1.908 1.209-.622 6.301 2.419 9.583 1.341 1.446 2.438 3.255 2.438 4.02 0 2.175 1.778 2.727 2.815.874.645-1.154 1.521-1.439 2.811-.916 1.756.713 1.732.827-.376 1.808-1.238.575-2.25 1.81-2.25 2.743 0 2.152 6.739 15.122 8.644 16.636.787.625 1.365 1.525 1.285 2-.185 1.098 1.172 5.362 1.708 5.362.221 0 2.216-1.144 4.431-2.543 2.216-1.399 5.159-2.973 6.541-3.498 1.381-.526 2.245-1.386 1.919-1.913-.326-.527-1.27-.698-2.1-.38-1.194.458-1.457-.166-1.266-3.008.285-4.224-.22-4.908-3.62-4.908-1.398 0-2.542-.394-2.542-.875s.45-.875 1-.875 1-.45 1-1-.975-1-2.167-1c-3.563 0-1.12-1.329 3.179-1.73 3.127-.291 3.988-.03 3.988 1.211 0 .87.647 1.83 1.437 2.133.79.303 1.2 1.168.911 1.921-.804 2.096.686 3.998 1.819 2.322.747-1.106.887-1.08.756.143-.278 2.606.214 5.55.721 4.306.267-.656 1.131-.946 1.921-.643.815.313 1.435-.039 1.435-.815 0-2.442 3.675-4.03 5.379-2.326 2.103 2.102 2.218 1.94 1.792-2.522-.209-2.2.027-4 .526-4s.95-1.543 1.004-3.43c.07-2.481-.273-3.288-1.243-2.916-.988.38-1.519-1.075-2.025-5.542-.531-4.696-1.109-6.192-2.574-6.657-1.038-.329-1.642-.997-1.341-1.483.3-.487 1.212-.629 2.025-.317 1.543.592 1.125-1.881-.724-4.288-.545-.71-.3-1.352.655-1.719.84-.322 1.526-1.286 1.526-2.142 0-1.405-.3-1.402-3.056.023-2.342 1.211-3.016 1.276-2.882.276.51-3.807-2.889-7.805-6.636-7.805-1.209 0-3.476-.663-5.038-1.474-1.62-.84-3.216-1.098-3.714-.6-.499.499-1.69.058-2.774-1.026-1.045-1.045-2.863-1.9-4.04-1.9s-2.687-.748-3.355-1.662c-1.842-2.519-4.35-.943-6.603 4.15-1.097 2.482-2.425 4.512-2.949 4.512s-.953.958-.953 2.129c0 2.02-.319 2.093-6.24 1.423-3.432-.388-6.807-1.176-7.5-1.751-1.665-1.382-1.61.244.092 2.726 2.12 3.093 2.93 10.151 1.239 10.8-1.676.643-5.729-.288-5.185-1.191.211-.35-.244-1.216-1.011-1.925-.767-.71-1.429-1.16-1.472-1-.696 2.633-.503 3.789.632 3.789 1.039 0 .87.859-.688 3.5-2.104 3.567-4.324 4.854-3.166 1.836.426-1.11.254-1.426-.518-.949-.636.393-2.175-.239-3.42-1.405-2.213-2.073-2.27-2.076-2.569-.152-.388 2.494-6.59 3.916-8.86 2.032-1.349-1.119-1.338-1.386.093-2.432 2.167-1.585 1.175-3.601-2.711-5.51-2.083-1.023-3.99-3.192-5.413-6.158-1.208-2.518-2.67-4.871-3.25-5.229-.579-.358-1.053-1.539-1.053-2.623 0-2.477-2.69-3.585-5.079-2.093-1.498.936-2.155.701-3.762-1.342-1.071-1.361-2.6-2.475-3.398-2.475-1.938 0-5.122-3.607-4.324-4.899.404-.653 1.491-.699 2.996-.127 2.225.846 3.567.493 3.567-.94 0-.348-1.575-1.202-3.5-1.898-3.275-1.184-4.81-4.492-2.949-6.354.726-.726 8.403 2.948 10.949 5.241 3.702 3.333 4.51.219 1.633-6.299-2.021-4.577-2.989-5.724-4.83-5.724-1.79 0-2.303-.557-2.303-2.5 0-2.737 1.721-3.39 2.638-1 1.199 3.123 6.849.692 6.147-2.645-.157-.745.485-1.36 1.427-1.367.941-.006 2.216-.516 2.834-1.134 1.647-1.647 4.954-.432 4.954 1.819 0 1.8.159 1.829 2.202.398 1.807-1.265 2.152-2.354 1.924-6.062-.239-3.894-.025-4.48 1.548-4.235 2.948.459 4.326 1.703 4.326 3.907 0 1.736-.242 1.863-1.524.799-.838-.696-1.811-.979-2.16-.629-.822.822 3.572 4.649 5.337 4.649 1.417 0 1.695.984 1.371 4.862-.131 1.578.246 2.215 1.136 1.918.732-.244 1.377-1.082 1.433-1.862.228-3.169.47-3.838 1.909-5.277 2.27-2.27.371-6.29-3.358-7.109-3.141-.69-4.856-3.22-3.264-4.812 1.149-1.149 3.12-.088 3.12 1.679 0 .704 1.125 1.793 2.5 2.419 2.28 1.039 2.5.932 2.5-1.205 0-3.346-3.827-7.892-6.135-7.288-1.025.268-2.134.049-2.465-.487-.331-.536-1.232-.733-2.001-.438-.77.296-1.399.139-1.399-.348s.531-1.062 1.18-1.279c.768-.256.889-1.07.345-2.333-.759-1.765-.872-1.782-1.253-.19-.586 2.449-1.944 2.18-3.875-.767-1.375-2.098-1.903-2.308-3.168-1.258-1.301 1.08-1.416.941-.808-.975.566-1.784.193-2.469-1.856-3.402-1.895-.864-2.565-1.927-2.565-4.068 0-3.338-1.954-2.843-2.086.529-.069 1.754-.263 1.598-.974-.785-.549-1.84-.516-3.348.086-3.95 1.425-1.425 1.19-2.574-.526-2.574-.825 0-1.5.477-1.5 1.059s-.47.769-1.044.414c-.574-.355-1.649-.143-2.388.471-.896.743-2.635.83-5.207.26-4.172-.924-9.474.061-12.777 2.375-1.116.781-2.716 1.423-3.557 1.426-1.758.005-8.027 5.581-8.027 7.139 0 .574.9 1.279 2 1.566 1.1.288 2 1.146 2 1.907 0 .76.675 1.383 1.5 1.383.833 0 1.5.889 1.5 2 0 1.556-.667 2-3 2-2 0-3-.5-3-1.5 0-.825-.675-1.5-1.5-1.5s-1.529-.562-1.563-1.25c-.035-.687-.508-.136-1.052 1.226-1.525 3.822-.322 7.328 2.074 6.046 2.557-1.369 3.041-1.293 3.041.478 0 .825.787 1.536 1.75 1.579.979.044 1.216.295.539.57-.743.302-.996 1.564-.656 3.268.419 2.092-.083 3.466-2.039 5.576-2.599 2.805-3.492 6.507-1.569 6.507 1.222 0 3.293 5.015 2.428 5.88-.332.332-1.059-.212-1.617-1.208-.955-1.707-1.086-1.712-2.273-.09-1.045 1.43-.945 2.036.589 3.57 1.799 1.799 2.676 8.86 1.098 8.837-.412-.006-2.971-.684-5.686-1.508s-5.73-1.246-6.699-.938c-1.717.545-5.865-2.578-5.865-4.416 0-.479 2.137-1.815 4.75-2.967 2.801-1.235 3.926-2.108 2.741-2.127-1.961-.032-5.155-3.701-4.674-5.369.132-.46-.667-1.074-1.777-1.364-1.11-.29-1.783-.907-1.497-1.37.287-.463 1.182-.589 1.989-.279 1.639.629 2.033-1.184.468-2.151-1.765-1.091-1.069-2.499 1.25-2.53 2.132-.029 2.149-.089.339-1.14-1.519-.882-2.168-.758-3.165.605-2.139 2.925-6.745 1.674-7.867-2.137-.701-2.38-1.601-3.279-3.5-3.5-2.706-.315-3.517-2.811-1.168-3.594.843-.281 1.115-.019.691.666-.449.727.214 1.13 1.861 1.13 2.628 0 3.377-1.782 1.527-3.632-.709-.709-.243-1.82 1.49-3.553 2.494-2.494 2.504-2.571.937-7.168-1.636-4.803-3.243-5.74-5.395-3.147-1.708 2.058-3.282 1.88-4.793-.541-1.704-2.728-.753-3.952 3.102-3.992l3.191-.034-2.334-1.945c-1.885-1.571-2.205-2.534-1.662-5.007.743-3.382-.821-6.18-2.99-5.348-.736.283-1.491-.159-1.677-.98-.298-1.324-.658-1.325-3.152-.008m92.893 14.901c-2.157 1.905-4.632 3.348-5.5 3.208-.972-.156-1.525.418-1.439 1.496.076.963-.279 1.75-.79 1.75-.51 0-.348.637.362 1.416.787.865 1.659 1.06 2.239.5.522-.504 1.787-.916 2.809-.916 1.022 0 1.581-.45 1.241-1-.711-1.15 3.462-1.343 5.057-.235.581.404 1.648 2.198 2.371 3.985.723 1.787 1.661 3.25 2.085 3.25.424 0 1.06 1.155 1.414 2.567l.645 2.566 1.931-2.316c1.062-1.275 1.945-1.754 1.964-1.067.048 1.795 3.033 1.549 3.033-.25 0-.825-.675-1.5-1.5-1.5s-1.5-.45-1.5-1 1.095-1 2.433-1c1.55 0 2.661-.722 3.064-1.991.982-3.094-.332-4.15-4.752-3.816-3.697.279-4.134.057-4.819-2.443-.682-2.492-.503-2.756 1.91-2.813l2.664-.064-2.476-.988c-1.363-.543-3.5-.731-4.75-.418-1.618.406-2.274.133-2.274-.948 0-2.226-1.049-1.834-5.422 2.027M113 269.965c0 .569.45 1.035 1 1.035 1.217 0 1.343 4.67.145 5.41-.47.291-1.898-.583-3.174-1.941-2.359-2.511-4.971-3.283-4.971-1.469 0 .55.45 1 1 1s1 .789 1 1.753c0 .965 1.35 3.028 3 4.585 3.264 3.08 3.952 7.083 1.387 8.067-2.645 1.015.137 3.409 3.268 2.81 1.823-.348 2.423-.15 1.935.64-.39.63-2.643 1.145-5.009 1.145h-4.3l.292 4.099c.299 4.199 1.415 6.766 1.442 3.318.025-3.05 1.78-5.235 2.86-3.56.61.946 1.082 1.022 1.559.25.376-.609 2.007-1.107 3.625-1.107 3.365 0 3.69-.711 1.191-2.608-1.667-1.265-1.667-1.33 0-1.36.963-.018 1.75.466 1.75 1.075s.62.869 1.378.578c.758-.291 1.927-.001 2.597.643.945.908 1.141.736.871-.763-.247-1.373-1.752-2.293-5.182-3.168-2.658-.678-5.133-1.561-5.499-1.963-.366-.401.348-.48 1.585-.175 2.513.618 2.956-.428.902-2.133-.937-.777-1.285-3.265-1.142-8.163.174-5.969-.079-7.197-1.653-8.039-1.253-.671-1.857-.658-1.857.041m254.923 16.926c-2.513 3.398-5.385 4.738-12.173 5.678-3.98.551-6.904 2.431-3.781 2.431.532 0 .709.675.393 1.5-.408 1.063.111 1.52 1.781 1.57 1.296.039 3.257.489 4.357 1.001 1.351.628-1.03.829-7.336.617l-9.336-.312.492 2.562c.271 1.409 1.905 6.497 3.633 11.305 1.727 4.809 3.298 9.989 3.49 11.51.584 4.61 2.582 11.233 3.342 11.076.393-.08 1.478.189 2.412.599.933.41 4.262-.001 7.398-.913 3.136-.911 7.098-1.687 8.804-1.722 5.875-.124 10.333-3.248 11.099-7.779.674-3.994 2.827-6.165 5.252-5.296 1.492.535 1.668 3.906.25 4.782-1.226.758-1.262 2.538-.088 4.392 2.027 3.2 8.98-4.951 8.211-9.626-.112-.679.377-1.012 1.087-.74.709.272 2.508-.635 3.996-2.016 1.489-1.38 3.176-2.51 3.75-2.51.574 0 1.042-.337 1.039-.75-.008-1.351-6.861-8.25-8.194-8.25-1.653 0-8.521-6.336-12.272-11.321-2.995-3.981-9.454-8.912-13.214-10.089-1.7-.532-2.676-.021-4.392 2.301M214 299c0 .55.48 1 1.067 1s.823.788.523 1.75c-.546 1.754.575 4.496 1.772 4.335 2.298-.307 2.884.124 1.368 1.006-.974.567-2.583.773-3.576.458-1.514-.481-1.793-.008-1.73 2.936.081 3.763 1.065 4.615 2.039 1.765.62-1.817 7.743-6.779 13.01-9.063 2.677-1.162 2.824-1.428 1.269-2.304-.967-.545-2.233-.698-2.813-.339-.58.358-1.949-.157-3.042-1.146-1.659-1.502-2.475-1.615-4.937-.685-1.633.616-2.95.706-2.95.2 0-.502-.45-.913-1-.913s-1 .45-1 1m109.7 19.341c-.283.737-.113 1.975.377 2.75.491.775.928.959.971.409.043-.55.514.089 1.046 1.42.576 1.441.602 2.784.063 3.323-.538.538-1.139-.036-1.486-1.42-.458-1.824-1.238-2.304-3.632-2.234-1.676.049-3.046.386-3.044.75.003.364.239.652.525.64 1.683-.068 3.131 2.924 2.896 5.987l-.271 3.534 1.838-2.25c1.011-1.238 2.567-2.25 3.459-2.25 2.026 0 3.265 2.945 1.656 3.939-.909.562-.884.994.108 1.817 1.801 1.495 3.591 1.919 3.609.856.008-.489.516-1.199 1.13-1.578.794-.49.676-1.532-.409-3.612-.838-1.607-1.526-2.359-1.53-1.672-.003.688-.358 1.25-.788 1.25-1.16 0-1.346-4.803-.213-5.503.556-.344.12-1.52-1.015-2.738-1.095-1.175-1.99-2.726-1.99-3.448 0-1.72-2.638-1.697-3.3.03M291.2 386.2c-3.207 3.207 1.756 8.964 5.842 6.777 1.81-.968 1.961-.836 1.435 1.257-.74 2.95 7.225 10.841 8.66 8.579 1.407-2.219.962-3.841-1.282-4.671-1.918-.71-1.981-.943-.598-2.218 1.378-1.269 1.152-1.786-2.077-4.761-1.992-1.836-3.785-2.848-3.984-2.25-.455 1.365-3.196 1.44-3.196.087 0-.55-.661-1-1.469-1-.894 0-1.243-.586-.893-1.5.69-1.798-.761-1.977-2.438-.3m27.793 23.321c-1.303 3.949-.423 5.89 3.19 7.037 1.66.527 1.896 1.205 1.379 3.961-.355 1.895-.182 3.598.404 3.96.675.417.546 1.564-.379 3.352-1.352 2.615-1.255 2.844 2.557 6.045 3.372 2.831 4.472 3.231 7.382 2.685 2.142-.402 4.455-.119 6.196.756 1.528.769 4.295 1.686 6.15 2.04 3.023.575 3.233.475 2.031-.974-2.417-2.912-3.935-8.64-2.688-10.142 1.25-1.506 1.631-1.064-9.798-11.36-3.895-3.51-8.92-7.401-11.166-8.648l-4.085-2.267-1.173 3.555m-91.696 16.271c4.035 4.132 4.601 5.885 2.06 6.385-3.202.63 20.278 18.345 24.643 18.592 1.375.078 3.536.402 4.802.719 2.059.515 2.188.361 1.215-1.456-.694-1.297-2.096-2.032-3.878-2.032-3.071 0-7.139-3.598-7.139-6.314 0-.928-.45-1.686-1-1.686s-1 .477-1 1.059-.457.776-1.016.431c-1.762-1.089.145-2.699 2.633-2.223 2.477.474 3.319-.721 1.133-1.608-.972-.394-.948-.718.107-1.458 2.002-1.403-.374-2.53-2.705-1.282-1.039.556-2.173.726-2.521.379-.347-.347-.631-.106-.631.535a1.17 1.17 0 0 0 1.167 1.167c.641 0 .938.228.659.507-1.039 1.04-6.826-.805-6.826-2.176 0-.78.741-1.286 1.646-1.125 2.474.442 2.901-2.25.459-2.889-1.158-.303-2.105-1.15-2.105-1.882 0-1.827-4.717-6.783-5.169-5.429-.245.736-1.561.587-4.065-.459-5.82-2.432-6.464-1.846-2.469 2.245M381 448.569c0 1.497-.774 1.628-6.299 1.062-4.785-.49-6.768-.291-8.25.83-1.073.811-1.501 1.527-.951 1.591 3.34.384 5.193.772 6.663 1.392 1.114.471 1.773.167 2-.921.306-1.472.523-1.479 2.337-.073 1.911 1.481 1.921 1.612.208 2.941-1.652 1.282-1.453 1.554 2.566 3.5 6.349 3.073 6.513 2.951 6.227-4.641-.227-6.017-.485-6.785-2.378-7.07-1.46-.219-2.123.214-2.123 1.389m-219.75 13.462c-1.911.768-2.25 1.655-2.25 5.887 0 3.679-.458 5.257-1.75 6.032-1.645.985-1.632 1.14.221 2.571 1.085.838 2.659 1.213 3.5.833.841-.38 3.214-.762 5.274-.85 2.059-.088 3.961-.376 4.225-.641.533-.533-1.274-12.738-2.079-14.04-.654-1.057-4.255-.952-7.141.208m26.66 7.481c-1.393 6.223-.445 9.252 3.755 12.004 2.847 1.865 3.246-.298.835-4.516-1.854-3.242-1.858-4.667-.014-4.667.893 0 1.736 1.334 2.113 3.345.821 4.372 2.16 5.087 3.403 1.817 1.502-3.95 1.205-7.275-.752-8.415-1.61-.938-1.59-1.025.25-1.09 1.772-.062 1.715-.221-.5-1.392-6.569-3.472-7.745-3.095-9.09 2.914M310 562.728c0 6.667 1.561 12.272 3.417 12.272.672 0 1.866 1.462 2.653 3.25 1.837 4.175 6.276 5.108 7.391 1.554.695-2.216.751-2.189 1.464.696 1.091 4.418 3.947 9.498 5.351 9.515.868.011.831.265-.129.873-1.442.914.01 5.112 1.767 5.112 1.161 0 3.386-5.601 2.856-7.19-.511-1.534 1.539-3.816 3.409-3.795 1.009.012.98.232-.122.929-1.165.737-1.219 1.405-.28 3.467.64 1.404 2.578 8.749 4.305 16.321 1.728 7.572 3.801 15.049 4.606 16.615 1.532 2.98 1.879 3.002 8.087.51 4.056-1.628 6.338-.466 7.66 3.902.519 1.713 2.019 3.582 3.367 4.197 2.311 1.053 2.397.973 1.748-1.613-.375-1.496-1.258-3.197-1.962-3.781-.704-.584-1.851-2.52-2.551-4.302-1.105-2.816-1.616-3.156-3.904-2.6-2.612.634-2.618.623-.762-1.473 1.848-2.086 1.776-2.332-5.652-19.277-4.626-10.554-7.69-16.442-7.957-15.287-.274 1.185-.709.403-1.182-2.123-.412-2.2-1.227-5.559-1.812-7.464l-1.064-3.464-3.629 4.214c-3.299 3.83-6.04 5.387-6.097 3.464-.012-.413-.87-1.853-1.906-3.201-1.608-2.092-2.117-2.257-3.478-1.127-1.399 1.161-1.594.951-1.594-1.727 0-5.007-6.815-9.217-7.1-4.386-.062 1.053-.402.747-.9-.809-.707-2.207-.824-2.032-1 1.5-.176 3.532-.293 3.707-1 1.5-.44-1.375-.845-4.132-.9-6.128-.055-1.995-.775-4.187-1.6-4.872-1.305-1.083-1.5-.468-1.5 4.728M114 672.5c0 .825-.562 1.388-1.25 1.25-.687-.138-1.129.337-.982 1.054.147.717-.441 2.012-1.308 2.879-.866.866-1.316 2.249-1 3.073 1.094 2.85-.58 11.39-2.001 10.21-.978-.812-1.44-.329-1.964 2.058-.745 3.391.114 5.227 1.441 3.08.472-.765 3.661-1.631 7.447-2.023 8.088-.837 9.903-2.192 6.194-4.623-2.606-1.707-2.613-1.744-.607-3.149 2.501-1.752 2.567-3.702.244-7.155-.982-1.46-2.408-3.891-3.169-5.404-1.508-2.998-3.045-3.629-3.045-1.25" fill="#d3d3d3" fill-rule="evenodd"/></svg>