<svg xmlns="http://www.w3.org/2000/svg" width="500" height="500"><path d="M0 87.825v87.825l13.25 12.874c53.233 51.721 64.671 63.411 63.297 64.692-.758.706-18.291 17.864-38.963 38.129L0 328.19V500h174.586l26.538-26.75c14.596-14.712 31.186-31.587 36.868-37.5 5.682-5.913 10.825-10.75 11.429-10.75.604 0 17.715 16.877 38.024 37.505l36.927 37.506 88.064-.256 88.064-.255.256-85.648c.14-47.106-.085-86.558-.5-87.671-.416-1.112-5.366-6.747-11.001-12.52-6.159-6.312-9.748-10.698-9-11.001.688-.277.398-.537-.647-.581-2.391-.1-12.281-8.475-13.117-11.106-.344-1.085-1.158-1.991-1.808-2.014-2.325-.08-26.826-24.697-26.497-26.623.221-1.291-.215-1.747-1.467-1.535-.99.167-4.209-1.774-7.25-4.372-5.532-4.726-6.612-6.429-4.076-6.429.766 0 1.652-.675 1.969-1.5.316-.825 1.25-1.5 2.075-1.5.825 0 1.274-.589.998-1.308-.632-1.647 7.227-9.036 8.919-8.386.698.267 1.827-.819 2.55-2.452.714-1.613 3.802-5.277 6.862-8.143 3.06-2.866 9.764-9.416 14.899-14.556 5.134-5.14 9.335-9.009 9.335-8.597 0 .411.84-.221 1.867-1.405 1.027-1.184 2.404-2.153 3.059-2.153.656 0 .921-.439.589-.976-.539-.872 8.473-11.088 18.733-21.234l3.752-3.71V0H327.231l-39.268 39.385-39.269 39.386-11.097-11.172a68325.026 68325.026 0 0 1-39.055-39.385L170.583 0H0v87.825m.479.675C.478 136.9.6 156.846.75 132.825c.149-24.021.149-63.621 0-88C.601 20.446.479 40.1.479 88.5M.478 414c0 47.575.122 67.038.272 43.25.149-23.787.149-62.712 0-86.5C.6 346.963.478 366.425.478 414" fill="#d3d3d3" fill-rule="evenodd"/></svg>