<svg xmlns="http://www.w3.org/2000/svg" width="500" height="595"><path d="M498.344 9.096c.086 5.002-.203 9.317-.643 9.589-.439.271-.292 1.103.327 1.848.801.966.953 8.331.527 25.661-.328 13.368-.578 27.681-.555 31.806.024 4.125.29 101.545.593 216.489.303 114.943.744 209.181.979 209.416.235.236.428-113.047.428-251.738C500 102.253 499.633 0 499.094 0c-.498 0-.835 4.093-.75 9.096m-260.018 5.948c-2.295.454-5.535 1.53-7.2 2.391s-3.837 1.594-4.826 1.63c-2.027.074-10.578 9.682-12.519 14.068-.698 1.577-1.609 2.867-2.025 2.867-.416 0-.756.9-.756 2 0 1.145-.667 2-1.559 2-.857 0-1.281.45-.941 1 .34.55.156 1-.41 1-.565 0-.761.693-.436 1.541.371.965.096 1.432-.736 1.25-.73-.16-1.365.159-1.41.709-.046.55-.81 2.575-1.697 4.5-2.87 6.23-2.672 12.268.342 10.405 1.34-.828.061 11.593-1.374 13.345-.563.688-.631 1.257-.151 1.265.479.009.197.493-.628 1.076-1.135.803-1.194 1.185-.244 1.571.691.28.925 1.033.52 1.673-1.1 1.739-.332 17.012 1.14 22.689 1.079 4.159 1.059 5.28-.122 6.966-.774 1.106-1.044 2.017-.601 2.025.444.009.132.501-.693 1.095-1.266.91-1.227.991.25.516.963-.31 1.75-.164 1.75.324 0 .487.273 1.598.607 2.468.435 1.134.01 1.582-1.5 1.582-1.159 0-2.107.45-2.107 1s-1.463 1.007-3.25 1.015c-1.787.009-3.925.481-4.75 1.051-1.102.76-.14.955 3.624.734 3.171-.186 5.568.176 6.289.95.641.687.728 1.25.193 1.25-1.288 0-.304 5.259 1.151 6.159.624.386 1.834.327 2.689-.13 2.914-1.56 7.054-.089 7.054 2.506 0 .806.649 1.465 1.443 1.465s2.088.92 2.876 2.045c1.229 1.755 1.519 1.82 2.04.462.354-.923-.009-1.819-.87-2.15-.813-.311-1.229-.969-.924-1.462.304-.492.05-.895-.565-.895s-.84-.45-.5-1c.34-.55 1.293-1 2.118-1s1.222.45.882 1c-.342.553.387 1 1.632 1 2.203 0 2.21.033.309 1.582-1.536 1.251-1.592 1.473-.268 1.061 1.309-.408 1.579-.005 1.242 1.854-.237 1.306.023 2.655.577 2.998.554.343 1.008.146 1.008-.436 0-1.892 1.847-1.117 2.54 1.066.414 1.306.176 2.433-.618 2.923-.878.543-.19 1.097 2.143 1.728 2.326.63 3.891.574 4.848-.173 1.097-.857 1.298-.768.902.397-.287.844-1.671 1.483-3.163 1.461-3.34-.05-3.412 1.235-.152 2.721 1.375.626 2.5 1.629 2.5 2.229 0 1.375-6.246 1.462-7.235.101-.417-.575-.741-.243-.75.769-.008.98.604 2.019 1.36 2.309 1.908.732 1.727 5.291-.25 6.316-.894.464-2.525.481-3.625.039-1.939-.78-1.934-.807.143-.875 2.288-.075 3.911-2.61 2.306-3.601-.53-.328-1.232.105-1.561.962-.329.857-1.03 1.29-1.559.963-1.267-.783-3.747 2.657-3.111 4.314.279.726-.208 1.292-1.111 1.292-.884 0-1.607-.675-1.607-1.5s-.45-1.5-1-1.5-1 .477-1 1.059-.45.781-1 .441-1 .099-1 .976c0 1.278-.392 1.384-1.975.537-1.662-.889-2.064-.696-2.533 1.215-1.14 4.644.292 15.299 2.87 21.365 1.425 3.351 2.829 8.526 3.12 11.5.29 2.974.809 6.532 1.153 7.907.773 3.098.851 16.281.124 21-.297 1.925-.589 4.273-.649 5.219-.063.987-.67 1.503-1.428 1.212-2.14-.821-6.206 3.089-6.462 6.213-.129 1.571-.946 4.358-1.816 6.193-.869 1.836-1.965 5.886-2.436 9-1.047 6.935-5.393 27.754-7.291 34.93-.766 2.897-1.179 6.387-.917 7.756.261 1.369-.07 3.145-.736 3.948-1.298 1.564-.875 7.159.89 11.804.778 2.046.731 2.733-.189 2.755-.686.017-.494.458.437 1.001.914.534 2.013 2.882 2.441 5.22.89 4.854.863 4.746 1.687 6.749.34.825 1.341 4.2 2.225 7.5.885 3.3 1.981 6.9 2.436 8 .455 1.1 1.572 4.877 2.482 8.394.911 3.517 2.311 7.33 3.111 8.473.801 1.143 1.456 3.521 1.456 5.284s.563 3.801 1.25 4.528c.688.726 1.302 2.221 1.365 3.321.063 1.1.451 2.793.861 3.761.575 1.357.376 1.62-.865 1.143-.886-.34-1.611-1.19-1.611-1.889 0-1.894-3.039-8.809-3.617-8.231-.275.275.15 2.057.945 3.96.796 1.903 1.808 5.439 2.25 7.858.442 2.419.887 4.735.988 5.148.101.413.24 2.577.309 4.809s.512 3.82.984 3.528c.473-.292.738.58.589 1.938-.233 2.119.052 2.387 2.015 1.895 1.939-.487 2.287-.182 2.287 2.003 0 1.417-.281 2.577-.625 2.577s-.661 1.238-.705 2.75c-.044 1.512-.452 4.325-.907 6.25-.454 1.925-.868 8.336-.92 14.246-.051 5.91-.491 10.748-.977 10.75-.495.002-.602 4.503-.242 10.254.353 5.637.796 12.95.983 16.25.53 9.305 1.75 18.483 3.241 24.379.748 2.959 1.106 5.791.795 6.294-.311.503-.138 1.457.385 2.121.892 1.133 1.851 7.342 2.734 17.706.211 2.475.64 6.669.953 9.32.331 2.801.187 4.583-.343 4.255-.502-.31-1.181.137-1.51.994-.329.857-1.051 1.278-1.605.935-.554-.342-1.007.106-1.007.996s.45 1.34 1 1c1.436-.888 1.174 1.687-.381 3.734-.724.954-1.682 1.404-2.128 1-.446-.403-.491-.177-.099.505.432.752.201 1.111-.59.913-.716-.178-.964-.135-.552.095 1.142.639.894 3.253-.309 3.253-.582 0-.813-.399-.511-.886.779-1.262-2.476-1.88-5.43-1.032-2.058.592-2.146.742-.5.849 1.843.12 1.863.21.25 1.149-2.191 1.276-2.251 2.673-.132 3.097.962.192-.45 1.336-3.485 2.823-4.393 2.152-6.771 4.259-4.383 3.882.412-.066 1.988-.066 3.5 0 2.804.12 3.982 2.118 1.25 2.118-.833 0-1.5.889-1.5 2 0 1.1-.419 2-.93 2-.518 0-.695 2.106-.399 4.75.292 2.612.561 5.313.597 6 .036.688.692 1.25 1.458 1.25.765 0 1.131.422.812.939-.319.516.217 1.384 1.191 1.929.974.545 1.771 2.035 1.771 3.312 0 1.791.631 2.393 2.767 2.638 1.522.175 2.508.737 2.191 1.25-.317.513.576.932 1.983.932 2.88 0 3.291 1.411 1.059 3.643-.825.825-1.5 2.341-1.5 3.369 0 2.172-1.927 3.698-2.862 2.266-.351-.538-1.634-1.503-2.851-2.144-1.226-.645-1.981-1.769-1.692-2.52.286-.746-.209-1.636-1.101-1.978-.928-.356-1.31-1.125-.893-1.799.491-.795.187-.969-.937-.538-1.046.401-1.664.136-1.664-.714 0-.743-1.012-1.623-2.25-1.955-3.151-.844-4.75-.772-4.75.214 0 1.459 4.501 6.156 5.898 6.156.885 0 1.174.843.857 2.5-.32 1.676-.029 2.5.884 2.5.748 0 1.308.337 1.243.75-.319 2.019.276 3.141 1.868 3.524 1.442.347 1.31.613-.75 1.51-1.833.798 17.973 1.106 74.183 1.153 74.45.061 76.7.008 77.284-1.834.411-1.292 1.229-1.734 2.568-1.384 2.227.583 2.578 1.867.715 2.619-.687.277 2.661.54 7.441.583 5.358.049 8.953-.346 9.375-1.028.461-.745-.011-.887-1.441-.433-1.505.478-2.125.248-2.125-.786 0-2.875 6.275-3.006 7.37-.153.582 1.519 3.919.931 7.38-1.3 1.454-.938 2.25-1.057 2.25-.336 0 .613-.45 1.115-1 1.115s-1 .436-1 .969c0 .532.749.681 1.664.33 1.119-.43 1.427-.256.941.531-.434.702-.1 1.17.836 1.17.907 0 1.559-.861 1.559-2.059 0-1.317-.421-1.799-1.17-1.336-.798.493-.957.168-.5-1.023.369-.96.67-1.934.67-2.164 0-.23.642-.418 1.427-.418.784 0 1.632-.788 1.884-1.75.422-1.617.466-1.613.573.059.064.995.546 1.543 1.072 1.218.526-.325.675-1.325.33-2.223-.388-1.013-.224-1.384.434-.977 1.261.779 2.231 7.673 1.079 7.673-.439 0-.799.675-.799 1.5 0 1.006 1.007 1.5 3.059 1.5 1.785 0 2.802-.417 2.441-1-.34-.55.084-1 .941-1 .907 0 1.559-.861 1.559-2.059 0-1.132.452-1.78 1.004-1.439.552.341.728 1.718.391 3.059-.537 2.142-.277 2.439 2.136 2.439 1.512 0 3.397-.788 4.19-1.75 1.18-1.432 1.353-1.461.953-.159-.745 2.424 12.96 2.526 15.713.117 1.845-1.615 1.917-1.612 1.309.055-.608 1.666 1.227 1.749 33.08 1.5l33.724-.263-.271-44.438c-.149-24.44-.486-44.653-.75-44.916-.263-.264-.479 8.281-.479 18.987 0 13.808-.349 19.816-1.2 20.667-.785.785-.826 1.2-.12 1.2 1 0 1.052 1.504.473 13.75-.084 1.788-.63 3.25-1.212 3.25s-.774-.461-.426-1.025c.885-1.431-1.498-.778-3.72 1.019-1.621 1.312-1.662 1.63-.336 2.599.83.608 1.217 1.398.859 1.756-.358.358-.126.651.515.651.642 0 1.167.661 1.167 1.469 0 .949.579 1.246 1.636.84 1.081-.414 1.489-.185 1.203.675-.556 1.667-5.828 2.293-5.869.698-.017-.65-.52-.341-1.117.688-.779 1.34-1.297 1.529-1.831.666-.542-.877-.908-.774-1.351.38-.385 1.002-.069 1.584.86 1.584.808 0 1.469.45 1.469 1s-.675 1-1.5 1-1.5.675-1.5 1.5-.498 1.5-1.107 1.5-.848-.675-.531-1.5c.334-.871.016-1.5-.756-1.5-.812 0-1.291 1.074-1.227 2.75.08 2.09-.313 2.679-1.637 2.456-.958-.161-1.742.147-1.742.685 0 3.257-2.087 6.281-3.517 5.095-1.2-.996-1.483-.942-1.483.285 0 .833-.675 1.774-1.5 2.091-1.058.405-1.495-.079-1.485-1.643.011-1.597.253-1.845.861-.885.675 1.064.975.997 1.485-.332.881-2.295.804-2.722-.361-2.002-.55.34-1.007.029-1.015-.691-.028-2.351-1.953 1.501-1.97 3.941-.01 1.464-.626 2.255-1.765 2.265-1.499.013-1.535.158-.25 1.005 1.127.744.692.936-1.75.772-2.31-.154-3.25-.71-3.25-1.921 0-.938-.562-1.933-1.25-2.212-.941-.381-.879-.769.25-1.568 1.102-.779 1.153-1.064.191-1.076-.72-.008-1.05-.434-.734-.946.317-.512.118-1.213-.441-1.559-.559-.345-1.016-.204-1.016.314 0 1.845-4.453 2.208-5.75.469-1.499-2.009-1.646-3.656-.25-2.793 1.743 1.077 1.08-1.037-1.039-3.311-2.392-2.568-3.961-2.819-3.961-.633 0 2.838-6.248 1.327-6.662-1.611-.242-1.722-.079-2.036.55-1.063.712 1.101 1.022.978 1.525-.609.891-2.805-.289-5.273-2.52-5.273-1.441 0-1.926-.776-2.029-3.25-.093-2.22-.271-2.56-.56-1.073-.555 2.85-3.304 5.3-3.304 2.945 0-.892.45-1.622 1-1.622 1.381 0 1.251-1.275-.355-3.471-.973-1.331-1.891-1.621-3.25-1.028-1.042.455-2.307.865-2.812.913-.504.047-1.128.72-1.386 1.495-.323.969.041 1.214 1.167.782.9-.346 1.636-.192 1.636.34 0 1.463-2.95 1.162-4.579-.467-.898-.898-1.059-1.67-.429-2.059.555-.343 1.008-1.304 1.008-2.135 0-1.322-.2-1.313-1.581.068-1.866 1.866-3.592 1.177-2.724-1.086.515-1.342.279-1.408-1.543-.433-1.409.754-2.152.794-2.152.116 0-.569-1.012-1.021-2.25-1.005-2.027.028-2.074.133-.479 1.062 2.165 1.26 1.351 2.908-1.437 2.908-1.463 0-1.873-.455-1.437-1.593 1.365-3.556 1.805-6.964.699-5.407-.783 1.103-1.069 1.153-1.081.191-.008-.72-.513-1.001-1.122-.625-.771.477-.696.944.25 1.544 1.022.647.862.867-.643.89-1.505.023-1.665.243-.643.89.946.6 1.021 1.067.25 1.544-.609.376-1.557.406-2.107.066-.55-.34-1-.09-1 .554 0 .734-1.122 1.008-3 .733-2.047-.301-3-.019-3 .886 0 1.561-1.61 1.767-2.504.32-.366-.592-2.811-.774-5.932-.442-5.064.54-5.331.451-5.788-1.941-.34-1.782.202-3.099 1.872-4.552 1.294-1.125 2.352-1.598 2.352-1.051 0 .546.9.993 2 .993s2-.436 2-.969c0-.532-.629-.727-1.399-.431-.769.295-1.743-.021-2.164-.702-.531-.859-.265-1.046.867-.612.898.345 1.898.196 2.223-.33.325-.526.114-.956-.468-.956-.582 0-1.059-.9-1.059-2s.354-2 .787-2c.433 0 .856-1.462.939-3.25.084-1.788-.083-2.687-.37-2-.727 1.74-2.356 1.567-2.356-.25 0-.859-.961-1.543-2.25-1.6-2.15-.095-2.139-.133.25-.859l2.5-.76-2.75-1.116c-1.512-.613-2.75-1.577-2.75-2.14 0-.564-.727-1.025-1.617-1.025-1.077 0-1.437.584-1.081 1.75.295.962.989 3.206 1.543 4.987.613 1.967.644 3.461.081 3.809-1.864 1.152-.852 2.454 1.907 2.454 3.849 0 4.398.835 2.141 3.258-1.047 1.125-1.669 2.427-1.38 2.893.288.467.047.849-.535.849-.582 0-1.059-.73-1.059-1.622 0-1.329-.271-1.398-1.5-.378-1.37 1.137-1.927.706-1.618-1.25.065-.413-1.034-.75-2.441-.75-1.451 0-2.292-.433-1.941-1 .34-.55-.196-1.032-1.191-1.07-1.615-.063-1.594-.163.191-.93 1.1-.473 1.397-.891.66-.93-2.113-.111-5.214-4.414-3.819-5.302.704-.448.314-.743-.997-.753-1.667-.012-2.038.439-1.634 1.985.386 1.475.034 1.996-1.343 1.985-1.575-.013-1.633-.169-.367-1 1.251-.822 1.127-1.087-.75-1.602-1.238-.339-2.25-1.066-2.25-1.616s-1.125-.785-2.5-.522c-1.676.32-2.5.029-2.5-.884 0-.748.648-1.361 1.441-1.361 2.213 0 2.746-1.67 1.068-3.348-.83-.83-1.509-2.271-1.509-3.203 0-1.304-.309-1.437-1.342-.58-.738.612-1.638.818-2 .456-.362-.362-.658.092-.658 1.008 0 1.983-.414 2.05-2.932.477-1.48-.924-2.236-.916-3.384.037-1.493 1.239-1.181 5.153.411 5.153 2.733 0-3.986 9.208-7.06 9.677-1.081.165-2.319.358-2.75.43-2.708.448-3.506-.136-2.25-1.649 1.725-2.078.269-3.38-4.621-4.133-4.306-.663-6.692-2.067-5.844-3.438.301-.488.071-.887-.511-.887s-1.059-.459-1.059-1.019c0-.588 1.058-.753 2.5-.392 1.597.401 2.5.206 2.5-.54 0-.642.518-.847 1.151-.455.827.51.731 1.021-.337 1.809-1.941 1.43-1.177 3.597 1.269 3.597 2.398 0 2.557-1.971.167-2.079-1.397-.063-1.447-.195-.25-.656 3.081-1.187 5.24-4.551 3.533-5.506-.843-.472-1.569-1.624-1.612-2.559-.048-1.042-.274-1.216-.583-.45-.278.687-1.592 1.25-2.921 1.25-2.537 0-3.39 2.441-1.167 3.338.688.277.274.54-.918.583-3.534.129-5.337-.997-5.253-3.278.043-1.179.306-1.58.583-.893.278.687 1.255 1.243 2.171 1.235 1.442-.014 1.464-.147.167-.985-1.282-.828-1.246-.972.25-.985.962-.008 1.75-.465 1.75-1.015 0-.55-.337-.947-.75-.882-1.993.315-3.306-.219-2.75-1.118.34-.55.127-1-.472-1-.6 0-1.35.675-1.666 1.5-.964 2.512-2.118 1.673-1.578-1.149.349-1.828.151-2.429-.639-1.941-1.513.935-1.472-.683.055-2.21 1.252-1.252 1.087-1.37-2.2-1.575-1.1-.069-2-.462-2-.875V517c0-.55.671-1 1.492-1 1.089 0 1.394-.876 1.132-3.25-.322-2.916-.655-3.22-3.241-2.955-1.612.164-2.399-.056-1.784-.5 1.541-1.115 1.344-4.295-.266-4.295-1.685 0-1.744-1.667-.083-2.338.688-.277.125-.547-1.25-.598-3.167-.12-5.446-1.533-4.622-2.867.349-.564.069-1.254-.622-1.533-.998-.402-.999-.522-.006-.585.688-.043 1.25-.556 1.25-1.138 0-.582-.41-.805-.912-.495-1.055.651-.898-1.36.249-3.196.497-.795.226-1.25-.743-1.25-2.103 0-3.319-2.854-2.927-6.87.282-2.898.118-3.196-1.169-2.128-1.23 1.02-1.498.941-1.498-.439 0-.924.385-1.443.856-1.152.47.291.643-.583.383-1.941-.26-1.359 0-2.47.578-2.47 1.148 0 .55-5.121-.698-5.979-1.318-.906-.616-7.095.914-8.063 1.239-.783 1.204-.93-.224-.943-3.34-.03-3.294-4.912.048-5.115.96-.058.604-.432-.857-.9-2.083-.667-2.165-.817-.493-.9 1.755-.087 1.962-.667 1.648-4.614-.197-2.482-.059-5.295.308-6.25.366-.955.61-1.961.543-2.236-.068-.275.915-.793 2.185-1.15 2.16-.609 2.13-.657-.464-.75-2.693-.097-2.728-.169-1.2-2.5 1.246-1.903 1.303-2.508.273-2.921-.754-.302-.46-.561.7-.615 1.49-.071 1.659-.311.665-.941-.735-.466-1.297-1.134-1.25-1.485.107-.803-.82-.639-3.635.644-2.532 1.154-5.714-.708-4.889-2.859.266-.692-.228-1.53-1.097-1.864-.869-.333-1.306-.88-.971-1.215.335-.335-.432-1.429-1.705-2.43-2.956-2.325-2.823-6.52.287-9.038 1.769-1.433 1.936-1.876.706-1.876-.886 0-1.611-.675-1.611-1.5s-.477-1.5-1.059-1.5-.805-.412-.494-.915c.311-.503 0-1.142-.691-1.421-.758-.305-.562-.537.494-.585.962-.043 1.75.371 1.75.921s.477 1 1.059 1 .8-.419.484-.931c-.317-.512-.118-1.213.441-1.559 1.525-.942 1.223-2.51-.484-2.51-.825 0-1.5.45-1.5 1s-.9 1-2 1c-2.095 0-2.875-3.341-1.044-4.473.526-.325.703-1.253.392-2.061-1.117-2.912.554-6.632 2.676-5.958 1.816.576 1.92.239 1.434-4.643-.288-2.895-.693-5.433-.9-5.64-.206-.206-.011-1.646.435-3.199.481-1.68.406-3.227-.186-3.819-.573-.573-.766-3.695-.454-7.351.769-9.035.801-9.205 2.033-10.769.834-1.057.789-1.522-.178-1.847-.934-.314-.996-.791-.224-1.72.782-.943.66-1.443-.458-1.872-1.684-.646-2.116-3.648-.526-3.648.55 0 1-.675 1-1.5s.45-1.5 1-1.5 1-.761 1-1.691c0-1.518-.137-1.504-1.339.14-1.21 1.655-1.4 1.673-1.969.191-.384-1-.124-1.64.666-1.64.864 0 1.184-1.084.961-3.25-.272-2.645-.16-2.877.603-1.25.848 1.809 1.039 1.622 1.453-1.417.069-.504.462-1.254.875-1.666 1.121-1.121.906-3.631-.25-2.917-.55.34-1 .141-1-.441s.45-1.059 1-1.059c1.31 0 1.3-6.696-.011-7.507-.556-.343-.91-1.945-.787-3.559.232-3.043 1.26-3.854 2.136-1.684.301.747.536.545.583-.5.043-.962-.338-1.75-.848-1.75-1.645 0-1.766-3.446-.186-5.311 1.057-1.249 1.193-2.025.437-2.5-.602-.379-.951-2.48-.774-4.67.183-2.275-.187-4.351-.865-4.844-.77-.561-.572-.666.565-.301.962.31 1.75.127 1.75-.405 0-.533-.45-.969-1-.969-1.416 0-1.239-1.618.35-3.207 1.133-1.133 1.13-1.556-.022-2.631-.755-.705-1.11-1.705-.791-2.222.32-.517-.008-.947-.728-.955-.951-.011-.899-.281.191-.985 1.383-.894-1.263-1.59-4.25-1.118-.704.111-1.135-1.444-.868-3.132.065-.413-.407-.75-1.049-.75-.641 0-.906-.261-.587-.579.318-.319-.116-2.618-.965-5.11-1.288-3.779-1.319-4.669-.19-5.367 1.117-.691 1.096-.935-.119-1.402-1.915-.735-2.002-8.287-.109-9.457 1.151-.712 1.151-.927 0-1.385-.968-.385-1.001-.565-.113-.621.688-.043 1.25-.556 1.25-1.138 0-.582-.45-.781-1-.441s-1-.084-1-.941.466-1.559 1.035-1.559c.711 0 .709-.609-.007-1.947-.573-1.071-1.104-3.208-1.18-4.75-.248-5.017-2.9-13.109-4.497-13.722-.861-.33-1.308-1.251-.998-2.057.308-.803.129-1.726-.397-2.051-.526-.325-.956-1.464-.956-2.532 0-2.408-.889-2.475-2.558-.193-1.428 1.953-1.895 1.725-2.852-1.393-.419-1.367-.076-2.726.947-3.75 1.446-1.445 1.449-1.605.034-1.605-.864 0-1.571-.45-1.571-1a1 1 0 0 1 .994-1c.546 0 .822-1.012.613-2.25-.209-1.238-.882-2.137-1.494-2-1.768.397-1.29-1.745.547-2.45 1.391-.534 1.282-.777-.669-1.499-2.477-.916-5.022.444-3.078 1.645.598.37 1.087 1.151 1.087 1.735 0 .627-.679.5-1.654-.309-.909-.754-1.91-1.147-2.224-.872-1.408 1.233-.945-6.035.475-7.454 1.418-1.418 1.277-1.621-1.517-2.18-3.21-.642-3.502-1.104-2.441-3.868.51-1.329.81-1.396 1.485-.332.654 1.032.849.951.861-.357.019-2.118-1.842-3.352-3.124-2.07-1.176 1.176-6.058.389-5.29-.853.301-.487.07-.886-.512-.886-.582 0-1.095.787-1.138 1.75-.055 1.22-.243 1.337-.621.387-.458-1.151-.677-1.151-1.406 0-.666 1.052-.867.942-.879-.481-.008-1.014.851-2.07 1.909-2.346 1.243-.326 1.794-1.177 1.557-2.407-.293-1.523.222-1.903 2.576-1.903 1.619 0 2.943-.482 2.943-1.071 0-.59.711-.361 1.581.509.869.869 1.994 1.325 2.5 1.012.505-.312.919-.091.919.491s.986 1.059 2.191 1.059c2.022 0 2.057-.098.446-1.276-1.766-1.292-1.319-5.264.468-4.159.492.304.895.091.895-.475 0-.565.713-.754 1.584-.419.905.347 1.156.872.585 1.224-.638.395-.542 1.242.265 2.346.695.95 1.557 1.435 1.915 1.077.358-.358.651.099.651 1.015 0 2.018 2.571 2.227 3.322.27.295-.768.335-2.681.09-4.25-.324-2.073.242-3.592 2.071-5.559 1.384-1.489 2.501-3.739 2.481-5-.035-2.214-.12-2.191-2.456.667-1.331 1.628-2.738 2.643-3.126 2.254-.905-.904 1.255-5.715 2.565-5.715.545 0 .773-.566.508-1.257s.491-1.704 1.682-2.25c2.434-1.117 3.613-7.493 1.385-7.493-.788 0-1.07.916-.767 2.5.279 1.459.013 2.5-.638 2.5-.615 0-1.124-1.012-1.132-2.25-.013-1.819-.201-1.963-.985-.75-.828 1.282-.972 1.246-.985-.25-.008-.962-.352-1.697-.765-1.632-2.011.318-2.597-.258-1.25-1.228 1.278-.919 1.249-.998-.199-.535-1.255.401-1.557.099-1.156-1.156.463-1.448.384-1.477-.535-.199-.734 1.02-1.084 1.1-1.095.25-.008-.687-.942-1.25-2.074-1.25s-1.781-.45-1.441-1c.34-.55 1.716-1 3.059-1 1.343 0 2.441-.45 2.441-1s.642-1 1.427-1 2.794-1.658 4.464-3.684c2.851-3.459 3.378-3.681 8.591-3.627 4.961.052 5.819-.258 8.046-2.904 2.148-2.554 3.353-3.031 8.732-3.459 3.432-.274 6.399-.655 6.593-.848.194-.193 1.393.045 2.665.529 1.724.655 2.459.496 2.89-.627.318-.829 1.053-1.213 1.633-.854.726.448.687 1.097-.127 2.077-.962 1.159-.831 1.348.702 1.013 4.04-.884 6.384-1.887 6.384-2.733 0-.485.477-.883 1.059-.883s.813.399.512.886c-.742 1.2 3.969 2.022 5.614.978.723-.458 2.29-.84 3.482-.849 1.191-.008 2.393-.578 2.671-1.265.392-.973.522-.977.583-.016.058.904 1.615 1.065 5.829.603 3.163-.346 6.65-.704 7.75-.795 1.1-.092 3.016.731 4.257 1.827 2.228 1.967 2.277 1.968 3.718.062 1.303-1.721 1.465-1.744 1.493-.212.045 2.408 3.032 1.102 3.032-1.326 0-1.78 1.979-2.457 5.75-1.968.688.09 1.25-.334 1.25-.94 0-.607.52-.782 1.155-.39.715.443.883.275.44-.44-.392-.635-.236-1.155.346-1.155s1.059.436 1.059.969c0 .532.661.715 1.468.405.808-.31 1.43-.859 1.382-1.219-.231-1.746.217-3.421.769-2.869.341.34 1.21.028 1.933-.695.723-.723 3.144-1.607 5.381-1.964 2.784-.446 4.067-1.154 4.067-2.246 0-.975.558-1.381 1.436-1.044.79.303 2.502-.287 3.803-1.311 1.95-1.533 13.679-4.865 18.511-5.258.688-.056 1.25-.446 1.25-.868 0-.421 1.913-.651 4.25-.509 2.337.141 4.172.682 4.077 1.202-.095.519-.434 2.061-.754 3.426-.387 1.651.082 3.317 1.401 4.981 1.09 1.375 1.992 1.938 2.004 1.25.012-.687.81-1.243 1.772-1.235 1.496.013 1.532.157.25.985-1.207.78-1.049.972.809.985 1.27.008 2.073-.367 1.784-.834-.709-1.147 3.942-3.556 5.275-2.732.583.359 1.938-.225 3.012-1.299 1.074-1.074 2.288-1.653 2.697-1.287.409.367.428.118.042-.554-.456-.795.272-1.434 2.09-1.833 1.535-.337 3.466-.85 4.291-1.139.825-.289 3.054-.638 4.953-.775 1.899-.137 3.625-.765 3.835-1.396.211-.632.758-.917 1.217-.633.458.283 1.545-.196 2.414-1.065.87-.87 1.588-1.211 1.596-.759.009.451.419.184.912-.596.515-.813.528-2.387.03-3.696-.7-1.841-.478-2.404 1.154-2.922 3.246-1.031 8.533-6.185 9.959-9.71.724-1.79 1.792-3.586 2.373-3.99.718-.499.686-.739-.099-.75-.636-.008-.939-.848-.673-1.866.266-1.018-.226-2.561-1.093-3.428-.868-.868-1.578-2.023-1.578-2.566 0-.544-.562-1.215-1.25-1.493-.961-.388-.948-.522.059-.583.72-.043 1.031-.529.691-1.079-.34-.55-.115-1 .5-1s.797-.52.405-1.155c-.4-.645-.279-.885.274-.543.543.335.988-.012.988-.771 0-.76-.713-1.383-1.584-1.384-2.995-.005-4.636-.704-8.409-3.582-2.971-2.266-4.72-2.85-8.152-2.72-3.582.136-4.724-.286-6.339-2.34-1.084-1.378-2.937-2.505-4.117-2.505-4.295 0-13.9 6.318-14.033 9.231-.018.402-1.797 4.496-3.953 9.098-3.301 7.047-4.504 8.644-7.622 10.124-5.155 2.446-9.458 3.587-9.458 2.509 0-.495-.672-.641-1.494-.326-.822.316-1.203 1.046-.846 1.623.379.613.169.753-.505.336-.635-.392-1.155-.184-1.155.463 0 .683-.838.956-2 .652-1.1-.287-2-.066-2 .492 0 .57-1.045.752-2.386.416-1.504-.378-2.838-.052-3.613.881-.675.813-1.695 1.19-2.266.837s-1.533.018-2.137.823c-1.453 1.939-4.382 2.989-4.804 1.722-.199-.597-2.157-.232-4.815.898-2.463 1.047-6.186 1.963-8.272 2.034-2.085.071-4.48.817-5.321 1.658-1.612 1.612-3.875 2.129-2.979.68.288-.467-.805-.886-2.429-.933-1.625-.046-3.297.458-3.716 1.12-1.13 1.786-6.015 3.694-7.75 3.028-.832-.319-1.512-.154-1.512.367s-1.8 1.541-4 2.267-4 1.706-4 2.177c0 .472-3.038.838-6.75.813-3.712-.024-7.425.069-8.25.208-.825.138-3.468-.123-5.874-.582-3.31-.631-4.583-.503-5.234.525-.501.79-.868.889-.877.237-.022-1.634-7.217-2.711-17.513-2.622-4.948.043-9.548-.379-10.221-.938-.673-.559-2.7-1.369-4.503-1.802-1.803-.432-4.117-1.13-5.143-1.552-1.557-.64-1.757-.424-1.209 1.302.546 1.722.312 1.978-1.4 1.53-1.132-.295-2.27-.882-2.53-1.302-.26-.421-3.471-.525-7.136-.231-4.574.367-6.456.202-6.005-.529.362-.585.125-1.241-.526-1.458-.78-.26-.868-.885-.257-1.835 1.213-1.89 1.199-7.253-.022-8.126-.593-.424-.482-1.573.291-3.018.687-1.283 1.324-3.337 1.416-4.565.093-1.227.41-2.233.706-2.234.295-.001.645-3.039.776-6.75.132-3.711.807-7.834 1.5-9.162 1.011-1.936 1.012-2.497.005-2.835-.691-.232-1.025-.797-.741-1.256.283-.458-.068-1.433-.78-2.164-.712-.732-1.368-2.398-1.456-3.703-.089-1.304-1.069-4.303-2.179-6.663-1.156-2.461-1.897-5.819-1.735-7.869.23-2.924-.234-3.972-2.536-5.736-1.549-1.188-2.817-2.786-2.817-3.552 0-1.736-1.06-3.047-8.25-10.206-4.154-4.137-5.75-6.472-5.75-8.414 0-1.768-.534-2.688-1.559-2.688-.857 0-1.281-.45-.941-1 .34-.55.115-1-.5-1s-.869-.403-.565-.895c1.241-2.007-3.046-2.457-10.109-1.061M37 51.5c-1.19 1.925-2.464 3.561-2.832 3.636-.367.074-2.468.216-4.668.315s-6.084.978-8.63 1.954c-4.433 1.7-4.652 1.972-5.151 6.4-.466 4.129 1.127 14.873 2.941 19.842 2.364 6.474 9.126 13.259 11.611 11.649 1.694-1.097 5.083-.999 5.923.172.399.557 1.511.026 2.617-1.25 2.976-3.431 7.197-2.923 10.951 1.317 3.024 3.416 3.167 3.466 4.234 1.472.607-1.135 1.481-1.83 1.941-1.546.46.284 1.431-.2 2.159-1.076 2.327-2.804 5.745-3.536 8.397-1.797 1.321.865 2.763 1.598 3.204 1.628.442.03 1.775.498 2.963 1.039 1.582.721 2.732.584 4.295-.511 1.781-1.247 1.879-1.594.59-2.088-.85-.326-1.545-1.015-1.545-1.531 0-.524 1.097-.428 2.492.219 1.371.636 2.496 1.734 2.5 2.441.006.906.524 1.015 1.758.368 2.235-1.171 6.654.385 5.66 1.993-.48.777-.279.891.605.344.962-.594 1.15-.362.686.846-.351.915-.16 1.664.424 1.664s1.298-.9 1.585-2c.288-1.1 1.258-1.993 2.157-1.985 1.396.013 1.419.151.161.947-1.266.8-1.236 1.021.212 1.577.926.355 1.944 1.465 2.261 2.466.318 1.001 1.904 3.488 3.524 5.526 1.62 2.039 2.654 4.18 2.296 4.758-.411.666.005.8 1.135.366 1.428-.548 1.68-.282 1.258 1.33-.344 1.315-.038 2.015.88 2.015.773 0 1.406.379 1.406.842 0 .463 3.263 2.112 7.25 3.664 3.987 1.553 7.588 3.311 8 3.908.513.744 1.041.633 1.674-.35.752-1.169 1.207-1.2 2.452-.167 1.634 1.356 5.624.631 5.624-1.023 0-.546.45-.714 1-.374.55.34 1.036-.196 1.079-1.191.046-1.049.291-1.284.583-.559.278.688 1.169 1.25 1.98 1.25.812 0 1.198-.45.858-1-.34-.55.035-1 .834-1 1.86 0 2.742-2.269 1.589-4.091-.753-1.189-.897-1.175-.923.091-.024 1.158-.216 1.208-.845.216-.448-.706-1.521-1.013-2.384-.682-.863.331-1.87.114-2.239-.482-.369-.597-1.058-.845-1.532-.552-.474.293-1.144.075-1.49-.484-.345-.559.186-1.023 1.181-1.031 1.448-.013 1.528-.194.4-.908-.775-.49-2.125-.672-3-.403-1.277.393-1.24.2.187-.973 1.648-1.356 1.482-1.58-2.302-3.094-2.243-.897-3.804-2.076-3.468-2.619.335-.544.241-.988-.209-.988-.451 0-2.075-1.164-3.61-2.588-1.535-1.423-3.443-2.337-4.24-2.031-.797.306-1.46.008-1.474-.662-.026-1.324-6.153-4.719-8.516-4.719-.802 0-1.459-.441-1.459-.98 0-1.033-4.281-.754-7.25.472-1.079.445-1.75.275-1.75-.444 0-.641.41-.912.912-.602.502.31.795-.226.651-1.191-.201-1.345-1.155-1.729-4.081-1.645-3.267.094-3.575-.069-2.127-1.127 1.567-1.147 1.55-1.275-.232-1.741-2.51-.656-7.24.259-6.61 1.279.269.436-.38.565-1.442.287-1.15-.3-1.715-1.073-1.395-1.907.296-.771-.072-1.415-.819-1.433-.902-.021-.718-.515.549-1.474 1.861-1.408 1.856-1.462-.213-2.227-1.896-.701-1.985-1.045-.849-3.275.92-1.805 1.007-3.594.316-6.492-1.361-5.713-2.46-6.748-6.604-6.223-5.612.712-11.806-1.92-17.339-7.367-4.19-4.124-5.59-4.91-8.746-4.91-2.417 0-3.962-.535-4.333-1.5-.969-2.527-3.365-1.678-5.638 2m207.97 58.555c-.605 1.131-.881 2.593-.614 3.25.362.889.506.875.565-.055.043-.687.866-1.214 1.829-1.171 1.113.05 1.28.268.458.597-.992.398-1.021.844-.127 1.921.84 1.013.852 1.403.041 1.403-1.529 0-1.426 2.71.128 3.341.963.39.975.702.053 1.359-.659.469-.884 1.324-.5 1.9.93 1.398 10.197 4.363 10.197 3.263 0-.475.675-.863 1.5-.863 2.336 0 1.763-2.776-.75-3.631-1.238-.421-2.523-.698-2.856-.615-.334.083-.48-1.628-.325-3.802.209-2.939-.096-3.952-1.189-3.952-.809 0-2.596-1.125-3.971-2.5-3.02-3.02-3.058-3.024-4.439-.445M296 120.43c0 .934-.575 1.287-1.511.927-1.046-.401-1.335-.12-.939.912.396 1.034-.446 1.848-2.739 2.648-2.653.925-3.013 1.346-1.811 2.119 1.127.724 1.2 1.158.293 1.746-.664.431-1.052 2.118-.864 3.75.189 1.633.394 3.755.457 4.718.109 1.668 3.114 2.6 3.114.966 0-.432 1.35-1.582 3-2.557 1.65-.975 3-2.448 3-3.275 0-.826.45-1.224 1-.884.55.34 1 .186 1-.341 0-1.511 10.314-3.717 10.784-2.307.21.631 1.433 1.148 2.716 1.148 1.283 0 2.56.563 2.838 1.25.403 1 .52 1 .583 0 .05-.787 1.469-1.206 3.829-1.132 3.124.099 3.332.224 1.25.75-3.035.767-3.79 3.132-1 3.132 1.1 0 2-.477 2-1.059s.419-.8.931-.484c.512.317 1.227.096 1.589-.489.458-.742 1.083-.713 2.057.096 1.088.903 1.531.817 1.994-.388.327-.852 1.12-1.384 1.762-1.182 4.058 1.278 11.559 1.23 12.061-.078.299-.779-.005-1.423-.675-1.431-.817-.011-.869-.258-.157-.75.584-.404 1.034-2.085 1-3.735l-.062-3-7 .134c-3.85.073-9.25.363-12 .643-6.05.616-18.036 1.108-21.561.885-1.409-.089-3.547-1.08-4.75-2.201-1.716-1.598-2.189-1.713-2.189-.531m-131.441 6.102c-1.068.807-2.755 1.468-3.75 1.468-.999 0-1.809.724-1.809 1.617 0 1.124.609 1.457 2 1.093 1.1-.287 2-.115 2 .384 0 .498-.436.906-.969.906-.532 0-.699.701-.371 1.557.329.857 1.215 1.321 1.969 1.032.921-.354 1.371.243 1.371 1.817 0 2.652 2.869 3.679 11.5 4.116 12.409.629 16.434 1.648 20.226 5.121 4.047 3.707 4.134 3.74 6.274 2.357 1.282-.828 1.246-.972-.25-.985-.963-.008-1.75-.465-1.75-1.015 0-.55-.536-.887-1.191-.75-.654.138-1.354-.65-1.553-1.75-.299-1.644-.179-1.733.675-.5.809 1.169 1.042 1.2 1.054.139.009-.808.792-.402 1.929 1 1.053 1.299 2.277 1.999 2.721 1.557.444-.443.37-1.118-.164-1.5-.534-.383-1.118-1.549-1.298-2.591-.341-1.977-4.122-7.86-5.423-8.438-.412-.184-.75-.971-.75-1.75 0-1.594.231-1.527-6.344-1.853-3.375-.167-5.004.18-5.374 1.143-.405 1.055-.87.899-1.961-.659-.834-1.191-3.074-2.305-5.376-2.673-2.17-.347-3.945-1.023-3.945-1.503 0-1.436-7.349-.922-9.441.66M275 128.941c0 2.168-.516 4.26-1.146 4.649-.807.499-.948-.08-.476-1.959.635-2.533.512-2.64-2.43-2.122-1.749.308-2.855.15-2.538-.364.31-.501-.893-.798-2.673-.66-2.846.22-3.297.659-3.737 3.633-.299 2.024-1.102 3.436-2 3.517a71.2 71.2 0 0 0-2.372.25c-.48.063-.349.746.291 1.518.894 1.077.865 1.523-.127 1.921-.711.285-.294.554.927.597 1.572.056 2.046.528 1.627 1.62-.325.847-.199 1.469.281 1.381 2.156-.393 3.432.173 2.778 1.233-.443.715-.275.883.44.44.671-.414 1.155-.104 1.155.739 0 1.68-2.038 2.636-5.832 2.736-2.389.063-2.459.16-.668.93 1.1.473 1.452.891.781.93-.67.038-.965.731-.655 1.538.31.808.859 1.392 1.219 1.298 1.996-.521 8.129 1.467 7.528 2.439-.398.644-.226.822.411.428.601-.371 1.458-.03 1.905.759.446.789 2.121 1.586 3.722 1.771 1.91.221 3.001.97 3.174 2.179.306 2.128 1.415 3.559 1.415 1.825 0-.642.505-1.167 1.122-1.167.776 0 .738.464-.122 1.5-1.004 1.209-.979 1.501.128 1.506.754.004.083.679-1.492 1.5-3.64 1.898-5.004 1.896-4.274-.006.405-1.058-.079-1.495-1.643-1.485-2.15.015-5.983 1.812-4.469 2.095l1.5.28c1.768.331 3.236 1.823 2.68 2.723-.331.536-.098 1.583.519 2.326 1.254 1.511 1.06 3.631-.449 4.905-.572.483-.191.581.891.227 1.51-.492 1.664-.342.764.743-.917 1.105-.366 1.389 2.948 1.519 2.242.088 4.455.394 4.917.68.463.286 1.154.014 1.536-.603.492-.796.945-.728 1.554.233.637 1.005.902.774 1.025-.893.091-1.238.21-2.657.265-3.153.055-.497-1.685-2.833-3.866-5.19-2.181-2.358-3.194-3.99-2.25-3.628 1.246.478 1.75.119 1.841-1.31.18-2.837.306-3.312 1.289-4.865.706-1.114.35-1.262-1.765-.731-2.998.753-3.332.167-1.149-2.016 1.764-1.763 2.018-3.795.345-2.762-.679.42-.884.277-.498-.347.412-.667-.088-.867-1.346-.538-1.399.366-2.001.031-2.001-1.112 0-1.73 5.125-1.24 5.833.557.184.465.957.845 1.719.845.881 0 1.153-.606.747-1.664-.428-1.114-.255-1.427.523-.946.639.395 1.953.258 2.92-.305 1.162-.677 1.298-1.034.401-1.055-.833-.018-1.118-.652-.739-1.641.443-1.153.189-1.447-.893-1.032-.831.319-1.511.182-1.511-.305s.379-1.035.841-1.219c.463-.183 1.138-1.85 1.5-3.705.579-2.966.472-3.217-.891-2.087-1.344 1.116-1.485.935-1.065-1.378.265-1.465.062-2.663-.451-2.663-.514 0-.934.675-.934 1.5s-.461 1.5-1.025 1.5c-.563 0-1.456 1.134-1.982 2.519-.848 2.229-1.191 2.374-2.976 1.26-2.401-1.5-2.693-2.976-.416-2.102 1.62.622 3.356-1.136 3.384-3.427.008-.687-.997-1.297-2.235-1.355-1.594-.074-1.084-.489 1.75-1.423 2.2-.725 3.18-1.353 2.179-1.395-2.342-.099-5.054-2.727-3.687-3.572 1.582-.978 1.178-2.508-.492-1.867-.825.317-1.5.115-1.5-.448 0-.563.563-1.25 1.25-1.528.688-.277.238-.54-1-.583-1.966-.069-2.25.418-2.25 3.862M233.5 157c-.34.55-.297 1.52.095 2.155.443.715.275.883-.44.44-1.655-1.022-1.424-.007.416 1.834 1.429 1.428 1.424 1.571-.059 1.571-.896 0-1.382.401-1.08.89.585.946-4.273 10.379-5.637 10.945-.444.185-.553.747-.242 1.25.311.503.088.915-.494.915s-1.059.45-1.059 1 .955 1 2.122 1c1.774 0 1.918.247.878 1.5-1.067 1.285-.738 1.5 2.301 1.5 3.714 0 10.226-4.338 9.143-6.091-.309-.5.365-.909 1.497-.909 1.132 0 1.988-.338 1.9-.75-.087-.412.188-1.543.612-2.513.453-1.036.262-2.375-.464-3.25-.986-1.188-.97-1.487.08-1.487.799 0 .554-.574-.628-1.468-1.067-.808-1.421-1.483-.785-1.5.655-.018.933-.889.64-2.008-.416-1.592-.885-1.779-2.406-.965-1.188.636-1.89.652-1.89.044 0-.533-.877-1.247-1.949-1.587-1.179-.374-1.729-1.191-1.393-2.067.63-1.642-.218-1.971-1.158-.449m6.617 32.781c-.524.98-2.002 1.855-3.285 1.946-5.075.36-8.832 1.419-8.832 2.49 0 .619-.745 1.948-1.655 2.954-1.22 1.348-1.307 1.829-.333 1.829.727 0 1.066.255.754.567-.312.312.818 1.985 2.511 3.717 1.891 1.934 3.235 2.68 3.484 1.932.223-.669 1.14-1.216 2.037-1.216 2.539 0-.862 3.054-3.633 3.263-4.131.311-2.14 1.738 2.585 1.853 2.613.064 3.963.322 3 .573-.963.252-1.75.965-1.75 1.584 0 .795-.353.774-1.2-.073-.66-.66-1.897-1.193-2.75-1.185-1.366.014-1.372.132-.05 1 1.251.822 1.127 1.087-.75 1.602-3.911 1.071-1.203 5.383 3.38 5.383 1.369 0 2.264.362 1.991.804-.273.442-2.325.756-4.559.698-3.604-.095-4.062.153-4.062 2.196 0 1.266-.375 2.302-.833 2.302-.459 0-.834.675-.834 1.5s.327 1.5.726 1.5c.787 0-2.18 6.236-4.023 8.457-.779.938-.806 1.567-.085 2.013 1.71 1.057 1.203 2.532-1.201 3.499-1.724.693-1.841.919-.5.968 1.678.06 2.658 4.063.995 4.063-.936 0-3.132 6.78-2.425 7.487 1.389 1.389 4.92.218 6.693-2.22 1.093-1.503 2.952-3.726 4.131-4.939 1.179-1.214 1.946-2.404 1.705-2.646-.241-.241.961-1.838 2.672-3.549 3.162-3.162 3.223-5.053.17-5.233-1.053-.062-.747-.402.809-.9 2.398-.768 2.409-.805.25-.9-1.238-.055-2.25-.577-2.25-1.159 0-.582.478-.763 1.063-.402s1.935-.132 3-1.096c1.065-.964 1.993-1.458 2.062-1.098.069.36.181 1.206.25 1.879.069.674 1.679 1.351 3.579 1.505 1.9.154 3.911.736 4.469 1.294.686.686-.109.84-2.454.477-2.364-.367-2.856-.269-1.544.305 1.059.465 2.265 1.711 2.68 2.77.66 1.685.763 1.707.825.175.043-1.08.862-1.75 2.14-1.75 1.574 0 1.993-.538 1.749-2.25-.266-1.871-.868-2.207-3.57-1.996-1.787.139-3.249-.225-3.249-.809 0-.585.414-.807.919-.495.506.313 1.577-.089 2.381-.893.804-.804 1.778-1.146 2.164-.759.387.386.553.027.369-.798-.252-1.136.565-1.476 3.368-1.401 3.579.096 5.865-1.822 3.739-3.136-.535-.331-.684-1.068-.331-1.639.413-.669.946-.556 1.501.319.59.931.859.416.859-1.643 0-2.407-.213-2.703-1.079-1.5-.897 1.248-.979 1.192-.484-.332.327-1.007.594-2.92.594-4.25s.585-2.418 1.3-2.418c2.465 0 3.66-2.09 2.378-4.159-.943-1.523-.879-2.092.322-2.856 1.2-.763 1.035-.957-.821-.97-3.498-.023-5.901-2.737-2.931-3.309l2.252-.434-2.25-.136c-2.627-.159-3.089-2.134-.5-2.14 1.156-.002.63-.686-1.549-2.015-1.815-1.107-3.04-2.432-2.722-2.946.633-1.025-2.884-3.296-3.756-2.425-1.865 1.865-7.411.311-6.153-1.723.301-.488-.138-.887-.976-.887s-1.953.801-2.477 1.781m-.683 14.326c-.466.754.032.88 1.559.395 1.657-.526 2.119-.357 1.768.643-.262.745-1.215 1.293-2.119 1.216-.992-.084-1.642.609-1.642 1.75 0 1.36.717 1.889 2.559 1.889 1.68 0 2.314.397 1.846 1.155-.415.67-.278.884.326.511.582-.359 1.25.455 1.516 1.846.326 1.706.029 2.488-.945 2.488-.781 0-1.142-.45-.802-1 .34-.55.141-1-.441-1s-1.059.398-1.059.883c0 .486-1.012 1.192-2.25 1.568-1.373.417-1.761.885-.994 1.202.691.285.979.966.641 1.514-.805 1.303 3.856.662 4.853-.667.5-.667 1-.667 1.5 0 .412.55 2.887 1.135 5.5 1.3 4.694.297 4.75.264 4.75-2.75 0-1.677-.477-3.05-1.059-3.05s-.798-.422-.479-.939c.319-.516-.217-1.402-1.191-1.969-1.405-.818-.737-1.071 3.229-1.222 4.094-.156 4.366-.265 1.5-.601-1.925-.227-3.928-.83-4.45-1.34-1.63-1.594-2.55-1.027-2.55 1.571 0 1.375-.408 2.5-.906 2.5-.499 0-.671-.9-.384-2 .293-1.118.031-2-.593-2-.615 0-1.153-.787-1.196-1.75-.063-1.394-.195-1.445-.65-.25-.807 2.121-2.383 2.983-5.271 2.883-2.275-.079-2.213-.18.692-1.113 2.92-.939 5.444-3.77 3.36-3.77-.487 0-1.112.563-1.39 1.25-.301.747-.536.545-.583-.5-.088-1.951-3.541-2.429-4.645-.643M233.732 248c-1.638 1.914-1.616 2.003.528 2.079 1.232.043 1.659.312.948.597-1.052.422-1.053.805-.008 2.065 1.111 1.339.983 1.452-.949.839-2.746-.872-4.351-.005-3.603 1.946.309.805.913 1.245 1.343.979 1.105-.682 3.306 2.205 2.579 3.382-1.111 1.798 1.547 2.335 2.836.573 1.193-1.632 1.313-1.634 1.926-.037.36.937 1.107 1.424 1.661 1.081.554-.342 1.007-.145 1.007.437s-.45 1.059-1 1.059-1 .462-1 1.026c0 .588 1.259.374 2.95-.5 3.655-1.89 5.147-1.943 4.462-.157-.312.812.311 1.587 1.531 1.906 1.517.397 2.057.062 2.057-1.275 0-1.32.543-1.671 2-1.29 2.109.552 2.772-1.115.904-2.269-.697-.431-.855-2.283-.433-5.095l.662-4.418-2.816.62c-1.55.34-3.379.792-4.067 1.004-.687.212-1.25-.276-1.25-1.083 0-1.78-1.176-1.893-2.8-.269-.933.933-1.2.926-1.2-.031 0-.678.675-1.491 1.5-1.807 2.563-.984 1.656-2.125-2.031-2.555-2.608-.305-3.401-.072-3.032.89.275.717-.147 1.303-.937 1.303-.867 0-1.209-.595-.862-1.5.824-2.147-.893-1.851-2.906.5m-13.554 34.97c-2.715 1.517-2.989 1.942-1.5 2.327 1.459.377 1.374.494-.428.587-1.238.064-2.25-.404-2.25-1.039 0-.655-.866-.371-2 .655-1.851 1.676-2 1.683-2 .096 0-.943-.472-1.422-1.049-1.066-.726.449-.729 1.033-.008 1.901.572.689.762 1.531.422 1.871-1.078 1.078-1.368 6.698-.345 6.698.539 0 .98 1.173.98 2.607 0 1.839.418 2.447 1.417 2.063.78-.299 1.672.12 1.984.932.353.922-.272 1.812-1.668 2.373-2.908 1.17-1.199 1.418 7.826 1.136 2.416-.075 3.33-.482 2.846-1.266-.443-.715-.275-.883.44-.44.685.422 1.155.078 1.155-.846 0-.857-.562-1.611-1.25-1.674-.687-.064-1.7-.22-2.25-.348-.55-.128-1.803-.301-2.785-.385-1.363-.116-1.573-.566-.885-1.902.495-.962.707-2.425.472-3.25-.318-1.114-.065-1.054.984.234.776.954 1.705 1.442 2.063 1.084.358-.358.651-.126.651.515 0 .642.45 1.167 1 1.167s1-.702 1-1.559c0-.917.472-1.267 1.146-.851.802.496.953-.061.502-1.858-.412-1.64-.194-2.748.604-3.07.958-.387.964-.522.024-.583-2.015-.13-4.388-5.567-3.025-6.93 1.695-1.695-.283-1.296-4.073.821M265 446c-1 .646-1.083.974-.25.985.688.008 1.25.535 1.25 1.17 0 .718-.661.565-1.75-.407-1.728-1.542-5.124.044-3.523 1.645.333.334.073.607-.579.607-.793 0-.959.911-.501 2.75.682 2.739 2.951 5.172 4.853 5.203.55.009.325-.42-.5-.953-1.16-.75-.85-.973 1.372-.985 2.498-.013 2.703.19 1.57 1.555-.716.863-2.121 1.355-3.122 1.093-1.388-.363-1.82.096-1.82 1.931 0 1.323.477 2.406 1.059 2.406s.781-.45.441-1c-.609-.985.28-1.283 3.777-1.265 1.331.007 1.628-.523 1.184-2.113-.491-1.759-.394-1.866.568-.622.987 1.277 1.073 1.232.577-.302-.342-1.057-.174-1.549.405-1.191.57.352.989-.687.989-2.448 0-1.682.45-3.059 1-3.059s1-.466 1-1.035c0-.688-.7-.661-2.086.081-1.147.614-2.337.864-2.645.557-.308-.308.518-.991 1.836-1.518 2.353-.942 2.356-.959.176-1.022-1.548-.044-2.044-.516-1.643-1.563.656-1.708-1.344-1.983-3.638-.5m4.795 19.58c-.387.595-2.754 1.045-5.261 1-3.259-.057-4.42.276-4.077 1.17.264.688.018 1.25-.547 1.25-.566 0-.731.48-.368 1.067.362.587-.281 1.313-1.43 1.614-1.149.301-1.862.914-1.584 1.364.648 1.049 5.866.136 6.305-1.104.601-1.695 2.046-.985 1.901.934-.094 1.258-.91 1.875-2.479 1.875-1.286 0-2.527.188-2.757.419-.754.754.708 4.822 1.547 4.303.449-.277 1.099-.047 1.445.512.345.559.125 1.016-.49 1.016s-.809.5-.431 1.112c.378.611.067 1.504-.691 1.984-1.054.668-.907.881.622.904 1.659.025 1.744.196.5 1-1.213.784-1.069.972.75.985 1.238.008 2.25-.463 2.25-1.047 0-.663 1.386-.841 3.692-.475 5.138.817 5.411 1.537.582 1.537-2.686 0-4.255.508-4.636 1.5-.316.825-.139 1.5.393 1.5.533 0 .969-.54.969-1.2 0-.933.267-.933 1.2 0 .66.66 1.935 1.2 2.833 1.2.899 0 1.634.675 1.634 1.5 0 1.71-1.323 2.032-1.85.45-.228-.682-1.572-.52-3.834.461-1.915.831-3.033 1.543-2.483 1.582.55.039.126.731-.941 1.539-1.817 1.374-1.689 1.476 2 1.586 3.831.115 3.857.14.941.882-2.801.713-2.834.773-.5.912 2.243.134 2.314.257.695 1.199-1.441.838-1.564 1.342-.609 2.492 1.04 1.253 1.5 1.243 3.52-.08 1.278-.838 3.127-1.559 4.109-1.602 1.034-.046 1.263-.29.543-.581-.909-.367-.963-1.022-.204-2.441.571-1.067.723-2.451.338-3.074-.459-.743-.25-.855.608-.325.866.535 1.068.418.595-.345-.452-.733.053-1.155 1.381-1.155 1.717 0 1.918.329 1.119 1.823-.537 1.003-.737 3.342-.445 5.197.38 2.411.071 3.711-1.082 4.554-1.436 1.05-1.363 1.256.659 1.862 2.203.66 2.211.707.273 1.552l-2 .871 2 .13c1.806.116 1.839.238.338 1.259-1.492 1.015-1.413 1.26.781 2.398 2.84 1.474 5.736.721 4.964-1.29-.409-1.067.416-1.325 3.585-1.121 2.656.171 4.277-.191 4.57-1.022.318-.904-.319-1.147-2.142-.816-2.801.508-3.306-.287-1.396-2.197.933-.933.839-1.2-.427-1.2-.894 0-1.772.663-1.95 1.474-.193.883-.812 1.167-1.544.709-1.882-1.18-.491-8.201 1.476-7.447 1.011.388 1.354.113 1.028-.827-.27-.775-1.231-1.277-2.137-1.115-1.458.26-2.101-.829-1.776-3.008.058-.393-.676-.463-1.632-.156-1.366.439-1.439.346-.343-.434 1.141-.813 1.05-1.082-.5-1.479-1.533-.392-1.442-.507.477-.601 1.918-.094 2.15-.385 1.209-1.519-.894-1.077-.865-1.523.127-1.921.822-.329.655-.547-.458-.597-.962-.043-1.75.371-1.75.921s-1.125 1-2.5 1c-1.598 0-2.5-.563-2.5-1.559 0-.857.454-1.278 1.009-.935 1.288.796 4.991-.352 4.991-1.548 0-.5-1.35-.638-3-.308-1.911.382-3 .192-3-.525 0-.619.513-1.125 1.14-1.125.627 0 1.788-.788 2.581-1.75 1.374-1.667 1.416-1.667.892 0-.353 1.122-.023 1.75.918 1.75.808 0 1.357-.506 1.219-1.125-.426-1.918 2.054-2.094 2.55-.18.257.993.52.316.584-1.504.064-1.82-.296-3.055-.799-2.744-1.669 1.032-10.15 1.468-9.547.491.319-.516 1.652-.938 2.962-.938 1.31 0 2.703-.52 3.096-1.156.512-.828-.194-.974-2.49-.515-1.815.363-2.964.251-2.649-.259.305-.494-.01-1.165-.701-1.489-.691-.325-.018-.426 1.494-.224 1.512.201 2.75.171 2.75-.067 0-1.164-3.109-3.341-3.992-2.795-.555.343-1.008.146-1.008-.436s.563-1.066 1.25-1.074c.858-.011.794-.304-.202-.934-.799-.506-1.779-.717-2.179-.47-.399.247-.871-.571-1.049-1.816-.185-1.301-.622-1.805-1.025-1.185m83.89 82.798c-.291.758-.001 1.915.643 2.571.905.921.545 1.038-1.578.513-2.075-.512-2.75-.312-2.75.813 0 .821-1.063 1.695-2.363 1.944-1.736.331-2.305.03-2.144-1.134.121-.872.027-1.022-.21-.335-.409 1.19-1.748 1.676-3.656 1.328-.48-.088-.592.57-.25 1.463.343.892.623 1.811.623 2.041 0 .23 1.125.418 2.5.418 1.407 0 2.391-.521 2.25-1.191-.137-.654.597-1.374 1.633-1.599 1.584-.343 1.78.006 1.229 2.198-.359 1.433-.307 2.549.117 2.481 1.921-.313 2.264.256 1.271 2.111-.726 1.356-.737 2-.035 2 .569 0 1.035-.702 1.035-1.559s.48-1.262 1.067-.9c.586.363.838.887.56 1.166-.279.278.029 1.085.683 1.793 1.431 1.547 4.142-7.211 2.773-8.958-.449-.573-.67-2.729-.492-4.792.327-3.773-1.725-5.448-2.906-2.372m-183.121 3.223c-.331 1.319-1.029 2.399-1.552 2.399-.522 0-.665.74-.318 1.645.387 1.007-.11 2.221-1.282 3.134-1.629 1.27-1.653 1.401-.162.887.963-.332 1.75-.176 1.75.346 0 .523-1.238 1.253-2.75 1.623-3.337.817-4.336 2.172-3.642 4.94.361 1.436.048 2.092-.997 2.092-.838 0-1.338-.3-1.111-.667.227-.367-.196-.667-.94-.667-2.186 0-2.889 6.905-.857 8.417.932.694 1.149 1.25.488 1.25-.655 0-1.191.477-1.191 1.059s.423.798.939.478c1.031-.637 1.09 3.36.073 4.963-.349.55-.592 1.675-.54 2.5.052.825-.37 1.831-.939 2.235-.665.473-.587.74.217.75.688.008 1.25.915 1.25 2.015 0 1.904 2.961 2.697 7.75 2.075.688-.09 1.25.307 1.25.881 0 .586 2.193 1.044 5 1.044 3.778 0 5-.367 5-1.5 0-.825.45-1.5 1-1.5s1 .727 1 1.615c0 1.487.196 1.487 2.465 0 3.008-1.971 3.535-2.007 3.535-.239 0 1.056 2.14 1.415 9.211 1.544 5.065.092 8.922-.12 8.57-.473-.353-.352-2.929-.622-5.725-.601-4.541.035-4.923-.122-3.57-1.475 1.873-1.873 1.873-1.894-.101-4.906-1.44-2.197-1.447-2.465-.066-2.465 2.602 0 .976-6.443-1.652-6.545-.642-.025-1.055-.588-.917-1.25.137-.663-.425-1.205-1.25-1.205s-1.5.42-1.5.934c0 1.529-5.291 1.739-8.25.327-2.985-1.424-3.341-2.27-1.663-3.948.783-.783.783-1.275 0-1.759-1.303-.806-1.475-5.662-.187-5.304 1.293.359 1.463-1.629.175-2.058-.591-.197-1.075.129-1.075.725s-.388 1.083-.861 1.083c-1.181 0-.105-5.324 1.26-6.235.747-.498.676-.739-.22-.75-.727-.008-1.997-.69-2.822-1.515-1.333-1.333-1.297-1.502.322-1.515 1.253-.011 1.439-.258.596-.794-.673-.428-1.388-1.846-1.587-3.152-.487-3.195-3.355-3.5-4.124-.438M1.271 570.733c-.077 2.694.373 5.056 1.047 5.484.889.566.873.756-.068.768-.906.011-1.25 2.49-1.25 9.015 0 8.16.806 10.74 2.5 8 .34-.55 1.068-1 1.618-1s.749.406.442.903c-.323.522 5.585.911 13.983.921 13.192.015 14.492-.14 14.006-1.671-.438-1.378.095-1.657 2.91-1.525 3.881.183 8.745-2.436 5.041-2.715-1.1-.082-2.337-.097-2.75-.031-.413.065-.75-1.082-.75-2.549 0-1.466-.338-2.329-.75-1.916-.413.412-.75 1.237-.75 1.833 0 .596-.577 1.276-1.281 1.51-.705.235-1.155-.177-1-.916.159-.763-.584-1.36-1.72-1.381-1.101-.021-2.516-.356-3.145-.744-.636-.393-1.423.018-1.77.923-.569 1.482-.805 1.468-2.605-.161-1.088-.985-1.979-1.324-1.979-.753 0 1.72-3.838 2.172-5.139.604-.765-.922-2.101-1.238-3.621-.856-1.541.387-2.176.23-1.765-.436.354-.572-.059-1.04-.916-1.04S10 582.502 10 581.893s-.675-.848-1.5-.531c-.825.316-1.5.208-1.5-.241 0-.448-1.012-1.304-2.25-1.901l-2.25-1.085 2.5-.12 2.5-.12-2.25-1.569C2.977 574.74 2.124 571 4.035 571c.701 0 .713-.603.035-1.869-.55-1.027-.715-2.152-.368-2.5.347-.347-.027-.631-.832-.631-1.059 0-1.501 1.307-1.599 4.733" fill="#d3d3d3" fill-rule="evenodd"/></svg>