<svg xmlns="http://www.w3.org/2000/svg" width="500" height="812"><path d="M153.389 1.18c-.401.648-1.561 4.586-2.577 8.75-1.017 4.163-2.115 8.47-2.44 9.57-1.161 3.926-1.554 21.062-.562 24.5.77 2.668 1.031 2.948 1.1 1.179.049-1.277.765-2.997 1.59-3.822.825-.825 1.5-3.072 1.5-4.994 0-5.679 4.924-12.238 9.254-12.327.964-.02 3.432-.936 5.485-2.036 2.052-1.1 4.661-2 5.796-2 1.136 0 2.537-.472 3.113-1.048.73-.73 1.841-.686 3.668.146 2.655 1.21 21.646-.793 29.861-3.149C215.983 13.997 221 15.82 221 20.245c0 .874.534 1.766 1.187 1.984.669.223 1.265 2.555 1.363 5.333.233 6.553 1.216 8.877 3.094 7.319 1.161-.964 1.391-.659 1.304 1.724-.116 3.174 1.972 11.599 3.072 12.395 1.144.829 3.165 7.892 2.545 8.895-.318.514-.012 1.162.679 1.441.995.401.991.523-.02.585-.941.058-.811.93.498 3.329l1.773 3.25.307-3.124c.168-1.719-.888-7.273-2.346-12.344-1.634-5.678-2.441-10.432-2.102-12.376.303-1.736.829-4.731 1.169-6.656.413-2.334.304-3.048-.327-2.143-.577.828-1.185.969-1.56.363-.338-.546.056-1.549.875-2.229 1.187-.985 1.489-.976 1.489.042 0 .703 1.027.083 2.282-1.377 2.992-3.483 9.595-3.844 10.45-.571.415 1.584.748 1.764 1.391.75.565-.89.851-.942.862-.156.02 1.579-2.802 4.321-4.449 4.321-.727 0-1.581.675-1.898 1.5-.316.825-1.264 1.5-2.107 1.5-1.979 0-1.967 3.072.021 5.559 1.501 1.878 1.531 1.865.905-.394-.742-2.684 2.757-7.165 5.595-7.165 2.14 0 4.342 2.554 3.448 4-.37.598-.174 1.688.436 2.422.626.755.99 4.103.837 7.707-.15 3.542.173 6.577.729 6.835 1.605.746 1.71-8.22.173-14.872-.899-3.893-1.039-6.092-.386-6.092.561 0 .317-.788-.544-1.75-2.494-2.79-2.628-5.797-.245-5.504 1.1.136 2.62-.152 3.378-.638 1.755-1.126.412-3.433-1.559-2.677-2.664 1.023-6.532-.469-5.243-2.022 1.324-1.595.775-8.383-1.084-13.409-.713-1.925-1.438-4.062-1.612-4.75C245.147.33 241.621 0 232.031 0H219l2.118 2.118c2.329 2.329.974 4.331-2.253 3.328-.899-.279-3.587-.069-5.973.467-5.576 1.253-5.804.885-1.737-2.812L214.5.059l-16.25-.03c-8.937-.016-16.243.308-16.235.721.025 1.2 1.953 3.859 1.97 2.716.013-.901 2.617-1.141 6.765-.622.688.086 1.25.654 1.25 1.263 0 .609-.675.848-1.5.531-1.89-.725-4.666.284-3.954 1.437.648 1.049-6.39 4.139-7.652 3.359-1.332-.822-1.081-2.472.332-2.184.675.138 1.381-.763 1.57-2 .189-1.238-.124-2.25-.695-2.25s-.779-.675-.463-1.5c.752-1.958-25.042-2.273-26.249-.32M494.2 1.2c-1.836 1.836-1.437 2.801 1.05 2.538l2.25-.238.5 58.5c.275 32.175.626 113.826.779 181.446.153 67.62.491 123.157.75 123.416.702.702.543-361.991-.159-364.612-.654-2.441-3.252-2.968-5.17-1.05M334 68.008c0 10.824-.057 11.109-2.086 10.465-1.844-.586-1.96-.427-1 1.367 1.626 3.038 1.339 3.372-1.37 1.597-1.351-.885-2.964-1.295-3.585-.912-.621.384-2.553.023-4.294-.803-7.906-3.749-10.607-4.625-11.216-3.639-.422.682-1.037.674-1.88-.026-.689-.572-1.602-.706-2.028-.298-.426.407-.449-.78-.05-2.638.924-4.309.301-4.217-19.491 2.873-7.975 2.856-18.524 6.36-23.443 7.785-10.847 3.144-9.943 4.162 1.087 1.226 4.321-1.15 8.924-2.36 10.23-2.689l2.375-.597-2.621 4.472c-3.539 6.04-4.508 13.179-2.143 15.792 1.244 1.375 1.567 2.765 1.098 4.732-.365 1.532-.72 3.383-.79 4.114-.069.731-2.244 3.526-4.832 6.211-2.588 2.685-4.463 5.125-4.166 5.421.296.297.013.539-.628.539-1.584 0-1.495 8.789.121 12 1.631 3.24 6.712 4.129 6.712 1.173 0-1.077-.714-2.233-1.588-2.568-1.859-.714-1.164-7.343 1.217-11.605 1.373-2.459 1.395-2.434 1.287 1.5-.06 2.2-.066 4.482-.013 5.072.093 1.031 2.58 2.247 15.597 7.627 9.858 4.075 11.061 4.662 9.691 4.733-.72.038-.998.572-.617 1.187.493.798-.74.945-4.287.513-7.595-.925-7.181.504.908 3.13 4.02 1.305 7.407 1.933 7.583 1.405.175-.526 3.101-.781 6.52-.567 8.202.512 10.94 1.206 10.104 2.559-.408.66-.124.898.709.596.764-.278 1.277-1.011 1.139-1.63-.482-2.169 2.483-1.097 4.855 1.755 4.136 4.972 9.286 3.712 23.145-5.666 5.129-3.471 6.75-5.132 6.75-6.922 0-2.981 2.861-4.202 4.522-1.931 1.134 1.551 1.275 1.524 1.762-.338.291-1.113.151-2.023-.31-2.023-.462 0-1.136-.934-1.498-2.075-.362-1.142-.902-1.833-1.199-1.536-1.619 1.619-5.056-2.757-9.607-12.23-2.815-5.863-5.037-10.941-4.936-11.286.411-1.402-6.966-7.115-7.685-5.952-.529.856-1.073.755-2.01-.374-1.059-1.276-1.029-1.547.172-1.547 2.201 0 1.745-3.135-.832-5.712-2.339-2.339-3.471-2.873-3.261-1.538.365 2.308-.397 2.955-3.108 2.639-3.081-.358-6.902 3.358-5.607 5.454.316.512-.117 1.505-.963 2.207-2.228 1.849-1.295-2.582 1.727-8.208 1.283-2.388 2.333-4.399 2.333-4.468 0-.069 1.012-.437 2.25-.817 1.759-.541 2.253-.295 2.265 1.126.011 1.322.238 1.467.83.533.875-1.379 4.155-.629 4.155.95 0 .524.445.677.988.342.882-.546 3.575 1.625 14.762 11.899 3.811 3.5 4.82 1.163 1.103-2.554-1.681-1.681-2.301-3.906-2.856-10.25-.507-5.793-.751-6.749-.853-3.353-.176 5.814-.886 5.899-5.135.611-3.286-4.089-3.332-4.29-3.804-16.525-.599-15.547-2.205-17.243-2.205-2.328m-89.368 58.322c-1.627 6.481-1.699 11.707-.171 12.293 1.703.654 2.217 7.377.564 7.377-.55 0-.713-1.308-.375-3 .382-1.911.192-3-.525-3-.667 0-1.125 1.833-1.125 4.5 0 2.475.45 4.5 1 4.5s1 .477 1 1.059-.425.797-.944.476c-1.063-.658-.342 12.136.957 16.965l.807 3 .09-3.167c.049-1.741.428-3.316.84-3.5 1.019-.452.309-39.833-.718-39.833-.448 0-1.078 1.049-1.4 2.33m-65.694 130.948c-.859.672-1.882 2.074-2.274 3.115-.391 1.041-.995 1.61-1.341 1.263-.346-.346-2.136.301-3.976 1.439-1.841 1.137-3.347 1.65-3.347 1.14 0-.511-.839-1.896-1.864-3.078-1.938-2.234-2.237-1.316-4.344 13.343-.08.55-.705 3.687-1.39 6.971-.686 3.285-1.038 6.309-.783 6.722.255.413-.268 1.868-1.164 3.235-.895 1.366-1.36 2.917-1.033 3.445 1.364 2.208-18.945 68.459-24.923 81.3-1.364 2.93-2.45 6.227-2.413 7.327.046 1.379.431.995 1.24-1.235 1.14-3.142 2.227-4.046 3.424-2.848.321.321.121.583-.445.583-.565 0-.823 1.072-.572 2.383.25 1.31-.037 2.687-.639 3.059-.602.372-1.094 1.512-1.094 2.534 0 1.021-.465 2.012-1.032 2.201-1.273.425-3.609 9.464-4.319 16.712-.629 6.427-2.595 9.328-2.751 4.061l-.103-3.45-.77 3.244c-.423 1.784-1.314 3.9-1.98 4.702-.666.802-1.056 2.261-.867 3.242.258 1.338.75.944 1.972-1.578l1.628-3.361.683 5.375c.376 2.957.908 6.168 1.182 7.137.474 1.672 5.413 4.905 7.077 4.631 2.176-.359 2.393.281.631 1.858-1.944 1.741-5.189 24.577-5.919 41.652-.138 3.246-.723 11.121-1.3 17.5-1.715 18.98-2.266 33.098-1.291 33.098 1.278 0 2.012-5.493 3.671-27.49.799-10.6 1.678-21.239 1.954-23.641.275-2.403.716-7.198.981-10.656.264-3.458.725-6.682 1.023-7.165.298-.482-.023-1.141-.714-1.463-.969-.451-.979-.715-.045-1.155.775-.365.989-1.68.594-3.656-.44-2.199-.285-2.88.539-2.37.732.452 1.156-.042 1.156-1.345 0-1.132-.562-2.073-1.25-2.089-.694-.017-.471-.484.5-1.05 1.296-.755 1.75-2.312 1.75-6.001 0-6.345 1.482-6.991 8.131-3.541 2.779 1.442 5.857 2.622 6.839 2.622.982 0 3.303.609 5.158 1.352 1.855.744 4.272 1.712 5.372 2.151 1.1.44 2.598.921 3.328 1.071.731.15 2.081.6 3 1 .92.4 2.122.842 2.672.981 3.227.815 20.525 6.813 23.288 8.074 1.809.826 4.195 1.569 5.303 1.653 1.718.129 1.938.671 1.499 3.685-.712 4.887-.73 4.905-1.605 1.533-.561-2.163-.787-.768-.813 5-.019 4.4-.935 13.85-2.035 21-1.101 7.15-2.509 19.525-3.129 27.5-.621 7.975-1.736 16.75-2.479 19.5-.742 2.75-1.881 8.375-2.53 12.5-1.229 7.811-2.386 11.879-5.923 20.823-2.023 5.117-2.009 7.872.033 6.61.596-.369.713.493.302 2.233-.96 4.064 1.048 1.772 2.541-2.9.656-2.054.906-4.754.555-6-.521-1.852-.428-1.992.514-.766.952 1.239 1.067 1.109.659-.751-.271-1.239-.135-2.03.304-1.759 1.035.64 2.322-6.186 1.436-7.619-.372-.602-.163-1.412.465-1.8.627-.387 1.352-2.475 1.611-4.638.259-2.163 1.137-8.208 1.95-13.433.814-5.225 2.203-16.7 3.087-25.5 2.07-20.608 6.12-44.631 7.719-45.787.886-.64.768-.749-.403-.377-1.137.362-1.575.002-1.405-1.155.136-.925.846-1.681 1.579-1.681s1.674-1.275 2.091-2.832c.6-2.245.459-2.718-.678-2.282-2.972 1.141-1.281-.966 2.317-2.886 3.445-1.839 4.041-2.846 7.397-12.5 2.007-5.775 3.694-11.553 3.75-12.84.055-1.287 1.45-3.525 3.1-4.973 1.65-1.448 3-3.237 3-3.977 0-2.724 6.845 1.214 6.968 4.009.018.395-.643.459-1.468.143-2.094-.804-1.896 1.444.581 6.57 6.299 13.038 17.829 53.535 18.382 64.568.111 2.2.452 4.675.759 5.5.307.825 1.08 4.601 1.719 8.39 1.15 6.831 7.112 26.006 8.516 27.39.401.396.402-1.482.002-4.172-.581-3.9-.464-4.729.576-4.086.918.567 1.13.35.715-.73-.324-.845-.901-3.614-1.282-6.154-.38-2.54-.979-4.444-1.33-4.232-.351.213-.696-2.028-.767-4.979-.071-2.951-.903-7.292-1.849-9.646-2.518-6.266-3.505-10.677-5.544-24.781-2.641-18.262-5.97-29.324-8.531-28.341-1.035.397-1.447-.188-1.447-2.052 0-1.434-.45-2.607-1-2.607s-1-1.366-1-3.035c0-2.654.235-2.91 1.869-2.035 1.027.55 2.111.756 2.408.459.298-.297 4.294-.69 8.882-.872 9.528-.38 20.296-1.868 29.793-4.118 7.988-1.892 18.281-2.2 18.827-.562.213.64 1.692 1.163 3.285 1.163 2.201 0 3.009.541 3.361 2.25.255 1.238.911 4.5 1.456 7.25.964 4.856.987 4.769.806-3-.145-6.183.114-7.938 1.137-7.725.729.151 1.06-.154.736-.678-.324-.524.43-1.262 1.675-1.64 1.246-.378 3.277-1.614 4.515-2.746 1.951-1.786 2.25-1.837 2.25-.385 0 .921.45 1.674 1 1.674s1-.45 1-1 .675-1 1.5-1c1.397 0 1.972-1.252 1.566-3.408-.095-.5.382-1.251 1.059-1.669.948-.586.745-2.444-.884-8.092-1.163-4.032-2.403-10.256-2.756-13.831-.353-3.575-1.245-7.85-1.983-9.5-.738-1.65-2.12-6.825-3.071-11.5-.951-4.675-3.008-13-4.571-18.5-1.563-5.5-3.318-13.825-3.9-18.5a1770.213 1770.213 0 0 0-2.077-16c-.561-4.125-1.101-12-1.201-17.5-.146-8.014-.472-10-1.641-10-1.486 0-3.907-8.968-3.997-14.809-.029-1.862-.433-2.568-1.199-2.096-.715.443-.883.275-.44-.44.392-.635.272-1.155-.267-1.155-.538 0-1.276-1.354-1.64-3.009-.397-1.808-1.095-2.74-1.749-2.336-.705.436-.853.057-.418-1.075.443-1.154.251-1.607-.565-1.335-.694.231-1.279 2.241-1.335 4.584-.143 5.986-1.111 6.131-1.915.285-.816-5.928-1.579-6.693-7.516-7.537-2.475-.352-5.4-.802-6.5-1-1.1-.198-3.575-.626-5.5-.95-1.925-.325-4.625-.835-6-1.134-4.359-.948-15.892-2.019-32.5-3.017-4.4-.264-9.35-.692-11-.95-1.65-.258-4.238-.577-5.75-.71-1.512-.133-2.75-.529-2.75-.88s-6.317-.951-14.038-1.333-14.583-.886-15.25-1.121c-.666-.234-1.915.124-2.774.796m9.062 2.746c0 .399-1.257.977-2.794 1.285-2.874.575-3.864 2.953-5.696 13.691-.49 2.873-.394 3.174.537 1.677 1.076-1.73 1.232-1.735 3.044-.095 1.669 1.511 1.909 1.531 1.909.156 0-.864-.562-1.798-1.25-2.076-.687-.277-.061-.54 1.393-.583 1.485-.044 2.895.578 3.219 1.421.316.825.139 1.5-.393 1.5-2.229 0-.746 1.901 1.781 2.284 2.091.317 1.792.458-1.25.588l-4 .172 2.5 1.941c1.375 1.067 3.738 2.217 5.25 2.557 1.512.339 2.75 1.256 2.75 2.037 0 2.37 5.648 1.761 7.443-.802.856-1.222 1.564-1.784 1.572-1.25.046 2.889 1.907 3.962 3.414 1.968 1.268-1.678 1.512-1.733 1.539-.344.026 1.356.879 1.578 4.782 1.244 10.756-.919 15.244-1.576 15.688-2.294.258-.418 3.662-.619 7.565-.446 4.474.197 6.87-.051 6.487-.671-.334-.541-.131-.984.451-.984.582 0 1.059.402 1.059.893s3.488.856 7.75.812c4.555-.048 10.14.614 13.549 1.607 6.706 1.952 6.732 1.954 8.662.733 1.206-.763.968-1.381-1.361-3.54-1.552-1.439-2.55-2.888-2.217-3.221.332-.333 1.479.186 2.548 1.153 1.069.968 2.393 1.481 2.942 1.141 1.158-.715 1.085-4.578-.086-4.578-1.307 0-.886-2.233.766-4.059 1.441-1.592 1.169-1.814-3.75-3.063-2.917-.74-5.753-1.397-6.303-1.459-.55-.062-1.675-.375-2.5-.697-.825-.321-5.55-.911-10.5-1.31-4.95-.4-9.9-.89-11-1.09-1.1-.2-5.825-.548-10.5-.773-4.675-.225-13-1.135-18.5-2.023a5139.966 5139.966 0 0 0-21.25-3.398c-2.887-.456-5.25-.503-5.25-.104M121 527c0 2.2-.436 4-.97 4-.578 0-.983 5.557-1.002 13.75-.048 20.196-.29 25.25-1.206 25.25-.452 0-.822.45-.822 1s.624 1 1.386 1c1.601 0 2.287-4.039 3.058-18l1.119-20.25c.409-7.392.258-10.75-.484-10.75-.593 0-1.079 1.8-1.079 4m206 54.992c-2.838.701-2.77-.07-1.72 19.508l.644 12-1.646-5.063c-1.129-3.473-2.429-5.432-4.139-6.239-3.273-1.545-3.236-1.649-2.271 6.367.893 7.422-.276 9.982-4.041 8.851-.921-.276-3.374.409-5.452 1.523-2.877 1.542-3.966 1.731-4.562.793-.504-.794-.788-.392-.798 1.135-.011 1.772-.454 2.242-1.765 1.872-4.638-1.312-4.755-1.278-4.414 1.261.273 2.022.091 2.261-.95 1.25-2.087-2.028-2.908-1.438-1.854 1.334.54 1.421.685 3.066.321 3.654-.365.591-.196.783.376.429.93-.574 1.921 1.216 3.646 6.583.309.962.196 1.75-.251 1.75-1.216 0-4.124-3.472-4.124-4.924 0-.697-.672-2.462-1.493-3.922-.821-1.46-2.017-4.004-2.658-5.654-.883-2.277-1.264-2.578-1.58-1.25-.228.962-.841 1.75-1.361 1.75-1.154 0-.174 4.417 1.885 8.496.832 1.647 1.494 4.572 1.47 6.5-.034 2.815.087 3.038.613 1.131.94-3.41 7.132 10.83 7.12 16.373-.026 11.264 2.185 19.805 6.73 26 3.455 4.71 4.285 6.591 3.862 8.75-.296 1.513-.099 2.75.437 2.75s.975-.873.975-1.941.485-2.241 1.078-2.607c.692-.428.997.358.85 2.191-.126 1.571-.148 3.982-.048 5.357.172 2.379.234 2.404 1.281.5.605-1.1 2.003-2.723 3.106-3.608 1.96-1.569 1.965-1.716.25-6.21-.967-2.531-2.165-4.507-2.663-4.392-.498.116-1.681-1.14-2.629-2.79-.949-1.65-2.713-3.968-3.921-5.152-3.153-3.091-5.397-9.008-5.819-15.348-.408-6.14.413-14 1.463-14 1.302 0 5.064 7.805 4.487 9.309-.364.949.149 1.742 1.382 2.133 1.913.607 4.309 7.137 3.874 10.558-.105.825.202 1.585.682 1.689.48.104 1.984 2.579 3.342 5.5 1.359 2.921 2.879 6.092 3.378 7.047.499.955.907 2.588.907 3.628s.675 2.451 1.5 3.136c1.277 1.06 1.5.796 1.5-1.771 0-1.757.626-3.255 1.5-3.591.825-.316 1.5-1.659 1.5-2.984s.675-2.969 1.5-3.654c2.026-1.681 1.877-3.911-.5-7.5-2.797-4.224-2.601-5.689.654-4.872 2.529.635 2.625.519 2.033-2.442-.377-1.888-.175-3.385.517-3.812.715-.442.245-1.034-1.265-1.592-1.56-.577-2.526-.52-2.754.164-.194.58-1.177 1.054-2.185 1.054s-2.02.561-2.249 1.248c-.633 1.898-7.751-2.244-7.751-4.511 0-.994.707-2.887 1.572-4.206 1.512-2.309 1.428-2.535-2.208-5.965-2.08-1.961-4.255-3.566-4.835-3.566-1.043 0-1.892-1.325-5.03-7.852-2.638-5.489-1.772-7.049 5.783-10.419 6.429-2.867 6.85-2.931 8.093-1.23 1.533 2.096 4.136 16.526 3.834 21.251-.181 2.837.103 3.25 2.237 3.25 2.351 0 2.429-.215 2.02-5.541-.234-3.048-1.095-8.108-1.915-11.245-1.274-4.879-1.287-5.906-.094-7.099 1.193-1.193 1.497-.35 2.106 5.829.464 4.712 1.195 7.41 2.1 7.757 1.063.408 1.119.857.24 1.916-.808.973-.823 1.383-.05 1.383.745 0 .805.77.186 2.397-.501 1.319-.613 2.696-.248 3.06.364.365.673 2.511.686 4.769.032 5.78 2.5 6.357 2.593.607.054-3.338.268-3.874.93-2.333 1.26 2.933 1.171 8.03-.193 11.025-1.385 3.039.914 5.725 2.49 2.909.454-.812 1.252-1.213 1.772-.891.983.607-1.274 3.452-2.748 3.463-.451.004-1.573 1.328-2.492 2.944-1.902 3.344-1.406 7.773.678 6.044.946-.785 1.422-.415 1.897 1.479.349 1.39 1.076 2.527 1.615 2.527.54 0 .981.675.981 1.5s.484 1.5 1.077 1.5c.618 0 .95-1.468.779-3.446-.163-1.896.028-3.771.424-4.167.396-.396.72-.291.72.234 0 .524.982 1.027 2.183 1.118 1.201.09 2.573.861 3.05 1.713.476.851 1.498 1.548 2.27 1.548 1.41 0 3.273 3.543 8.675 16.5 2.526 6.059 2.84 6.462 2.337 3l-.581-4 2.011 2.5c2.467 3.068 2.597 2.204.37-2.466-.927-1.944-2.277-3.534-3-3.534-.723 0-1.349-.337-1.392-.75-.27-2.647-.908-4.631-1.655-5.15-.476-.33-1.44-2.565-2.142-4.966-.701-2.401-2.542-6.707-4.091-9.569-3.249-6.007-7.121-20.484-7.378-27.59-.13-3.615-.756-5.419-2.416-6.966-1.233-1.148-2.241-3.172-2.241-4.498 0-1.327-.639-2.771-1.419-3.211-1.807-1.018-3.555-16.111-3.651-31.511-.083-13.275-.474-14.65-3.93-13.797M95.842 646.254c-1.556 3.983-3.301 22.762-2.99 32.178.077 2.349-.51 4.638-1.46 5.687-1.203 1.329-1.417 2.773-.882 5.942.514 3.042.336 4.447-.651 5.139-1.02.715-1.057 1.075-.148 1.446 1.241.507.739 5.869-.735 7.854-.409.55-.654 3.025-.546 5.5.109 2.475-.158 5.175-.593 6-.435.825-1.251 3.346-1.813 5.603-.562 2.256-2.126 5.294-3.475 6.75C81.2 729.809 80.311 731 80.573 731c.263 0-.212 1.335-1.055 2.966-1 1.934-2.053 2.766-3.026 2.393-.821-.315-1.492-.048-1.492.593s.45.888 1 .548c.55-.34 1-.194 1 .324 0 .519-.936 1.187-2.079 1.486-1.5.393-1.93.155-1.544-.851.295-.767.093-1.669-.449-2.003-1.374-.85-4.542 3.328-5.865 7.734-.649 2.161-1.926 3.949-3.085 4.317-1.088.345-1.978 1.047-1.978 1.56 0 .513-.567.933-1.259.933-.693 0-1.832.916-2.532 2.037-.699 1.12-1.908 1.907-2.685 1.75-.777-.158-2 .506-2.718 1.475-1.677 2.262-5.485 3.017-6.173 1.223-.289-.753-1.45-1.299-2.579-1.214-2.112.159-2.577.873-1.362 2.088 1.078 1.077 1.428 4.833.392 4.193-.508-.314-1.633.14-2.5 1.007-.961.961-2.361 1.329-3.581.942-2.242-.712-2.579.555-.954 3.591 1.323 2.472-2.194 7.908-5.117 7.908-1.063 0-1.932.45-1.932 1s.337.947.75.882c1.903-.301 2.239.269 1.25 2.118-.784 1.465-.76 2 .087 2 .834 0 .857.362.084 1.293-.773.933-.641 2.768.474 6.571 1.487 5.074 1.151 8.042-.592 5.222-.654-1.059-1.092-.882-1.996.807-.636 1.19-1.538 1.928-2.002 1.641-.465-.287-1.114.178-1.443 1.035-.329.857-1.02 1.297-1.536.978-.516-.319-1.22-.122-1.566.437-.345.559-.118 1.016.504 1.016.623 0 .983.777.8 1.727-.497 2.58-8.813 2.546-8.813-.036-.001-.995.351-1.592.781-1.326.43.266.827-2.07.881-5.191.055-3.121-.117-5.088-.383-4.371-.358.967-.834.839-1.849-.5-.816-1.076-1.38-1.299-1.399-.553-.018.688-.707 1.25-1.532 1.25-.825 0-1.5.627-1.5 1.393s-.725 1.671-1.611 2.011c-1.304.501-1.491.14-.981-1.893.422-1.681.211-2.532-.639-2.574-.698-.035-.257-.471.981-.968 2.213-.89 2.683-2.481 2.398-8.119-.073-1.457.536-3.932 1.354-5.5 1.271-2.437 1.281-2.895.069-3.159-2.431-.529-4.806-4.887-3.033-5.567.804-.309 1.455-1.363 1.447-2.343-.011-1.195-.265-1.388-.775-.587-.417.656-.731-2.269-.698-6.5.034-4.232-.374-7.996-.905-8.364-1.495-1.037-1.586-3.83-.126-3.83 1.44 0 2.728-2.457 1.783-3.402-.995-.996-2.426-.669-1.764.402.34.55.141 1-.441 1S6 743.433 6 742.741c0-.693-.824-1.774-1.831-2.403-1.397-.873-1.803-2.292-1.714-5.991.064-2.666-.222-6.142-.636-7.725-.414-1.582-.371-3.607.094-4.5 1.031-1.973.203-8.312-.989-7.575-1.687 1.043-1.153 96.151.544 96.802 1.715.659 151.132.915 150.467.258-.46-.454-49.282-1.482-74.108-1.561L63.153 810l1.529-3.065c1.729-3.466 3.602-4.383 11.018-5.398 2.86-.391 5.705-1.32 6.323-2.064.618-.745 1.765-1.108 2.55-.807 1.015.39 1.427-.218 1.427-2.107 0-1.605 1.087-3.671 2.75-5.227 1.513-1.415 2.643-2.952 2.512-3.416-.131-.464.319-.709 1-.544.681.165.873.102.427-.14-.935-.507 2.168-4.232 3.525-4.232.497 0 .626.45.286 1s-.155 1 .41 1c.566 0 2.58-2.425 4.476-5.39 3.649-5.703 4.925-6.867 8.062-7.355 2.455-.382 5.059-2.721 7.593-6.822 1.087-1.759 3.317-3.753 4.955-4.431 1.638-.679 2.733-1.632 2.432-2.118-.3-.486-.043-.884.572-.884s.859-.419.543-.931c-.317-.512-.118-1.213.441-1.559.559-.345 1.03-.039 1.047.681.017.72 1.03-.304 2.25-2.274 1.221-1.971 3.006-4.365 3.967-5.32 2.807-2.788 3.258-6.502 1.244-10.242-1.636-3.038-1.667-3.684-.331-7.099.808-2.066 1.567-6.231 1.686-9.256.262-6.676 1.433-13.857 4.726-29 4.634-21.305 5.463-24.499 6.447-24.833 1.647-.561 1.175-6.167-.52-6.167-.825 0-1.5.502-1.5 1.117 0 .614-.787.894-1.75.622a144.82 144.82 0 0 0-3.213-.867c-.805-.205-2.575-1.361-3.934-2.57l-2.47-2.198-2.067 2.23c-1.136 1.226-2.934 4.154-3.994 6.506-2.1 4.658-4.403 5.109-10.822 2.12-3.592-1.673-3.57-1.729 2.797-6.823 5.035-4.028 6.949-7.137 4.394-7.137-.582 0-.811.402-.507.893.304.492-.608 1.185-2.026 1.541-1.418.356-3.525 1.529-4.682 2.606-1.157 1.078-2.468 1.96-2.915 1.96-1.959 0 .312-12.266 2.716-14.67 3.995-3.994 1.184-5.261-9.012-4.062-4.674.55-7.1.476-7.333-.223-.765-2.295-2.77-.812-4.34 3.209m242.857 37.79c-.312 1.194-1.041 1.863-1.632 1.498-.646-.4-1.067.316-1.067 1.816 0 1.361.563 2.665 1.25 2.896.985.332.992.734.031 1.898-.878 1.065-.977 2.998-.354 6.913 1.014 6.367.816 6.93-2.178 6.197-5.152-1.262-7.176-6.283-3.8-9.429 1.128-1.051 2.051-2.37 2.051-2.931 0-.561.45-.742 1-.402.552.341 1-.374 1-1.594 0-2.165-.037-2.172-1.75-.309-1.955 2.126-5.375 2.529-5.983.705-.218-.654-1.053-.938-1.855-.63-1.582.607-1.039 6.707.804 9.034.526.664.648 1.704.272 2.313-.376.609-.022 1.866.787 2.794.81.928 1.78 3.406 2.157 5.508s.919 4.429 1.204 5.173c.285.743-.405 2.275-1.533 3.403-2.237 2.237-3.88 7.103-2.398 7.103.506 0 2.182-1.316 3.723-2.925 1.659-1.731 3.411-2.69 4.296-2.351 1.275.49 1.246.713-.199 1.522-1.184.663-1.51 1.678-1.084 3.377.466 1.854-.047 3.007-2.165 4.871-3.095 2.724-1.54 3.381 2.2.93 2.364-1.549 2.416-1.515 3.076 2 .369 1.967 1.071 3.576 1.559 3.576.489 0 .889 1.125.889 2.5s.337 2.447.75 2.382c2.202-.348 3.25.323 3.25 2.083 0 1.08.942 2.469 2.093 3.085 2.509 1.343 7.305.402 6.293-1.234-.411-.666-.247-.848.402-.447.658.407 1.876-1.081 3.041-3.716 1.07-2.417 2.445-4.705 3.058-5.083.612-.378 1.116-1.899 1.119-3.379.004-1.48.743-4.041 1.644-5.691 1.922-3.52 2.801-16.103 1.194-17.097-.73-.45-.929.977-.625 4.468.245 2.821.107 5.129-.307 5.129s-1.069 1.462-1.454 3.25c-1.249 5.785-3.638 10.75-5.174 10.75-.875 0-1.274.584-.96 1.403.296.771-.091 2.234-.861 3.25s-1.421 1.397-1.447.847c-.025-.55-.413-.422-.861.284-.46.725-1.561.997-2.528.626-1.577-.605-1.586-.798-.105-2.434.977-1.08 1.217-2.019.612-2.393-.548-.339-1.252-.201-1.566.307-.802 1.298-4.568.145-4.568-1.4 0-.702.788-1.581 1.75-1.954 1.638-.636 1.629-.768-.148-2.076-1.468-1.08-1.64-1.709-.759-2.771.627-.755.896-1.617.597-1.915-.298-.299.865-1.033 2.584-1.633 1.764-.615 2.842-1.548 2.475-2.143-.358-.58.395-1.926 1.675-2.993l2.326-1.938-2.191-.034c-1.205-.018-2.469.417-2.809.967-1.347 2.18-2.5.797-2.5-3 0-2.2.45-4 1-4 1.606 0 1.152-2.166-.75-3.579-1.471-1.092-1.551-1.625-.5-3.347 1.796-2.94 1.689-5.683-.161-4.148-1.438 1.194-3.496-.352-2.198-1.651.325-.325.09-1.195-.522-1.933-1.711-2.061-1.888-7.342-.247-7.342.758 0 1.378-.439 1.378-.975 0-.539 1.277-.72 2.856-.404 2.047.41 3.026.128 3.456-.993.713-1.856-.701-2.899-4.235-3.125-1.418-.091-3.305-.492-4.196-.891-1.158-.519-1.779-.112-2.182 1.432M311.988 709.5c-.068 4.4-.309 9.415-.536 11.144-.847 6.459 6.218 17.688 16.243 25.817 12.016 9.744 16.179 11.305 18.216 6.835.834-1.831.747-2.296-.432-2.296-.814 0-1.479-.498-1.479-1.107s-.656-.855-1.459-.547c-1.865.715-11.111-4.376-9.62-5.297.709-.438.207-1.52-1.41-3.039-1.381-1.297-2.511-2.885-2.511-3.529 0-.644-.9-1.986-2-2.981-1.1-.995-2-2.22-2-2.722 0-.502-1.392-2.571-3.094-4.598-3.324-3.96-4.901-7.691-7.891-18.68l-1.905-7-.122 8" fill="#d3d3d3" fill-rule="evenodd"/></svg>