<svg xmlns="http://www.w3.org/2000/svg" width="500" height="585"><path d="M0 21.5C0 39.715.224 43 1.465 43c.805 0 1.944.895 2.529 1.99 1.587 2.965 5.74 4.662 13.006 5.315 5.302.477 11.647 2.461 13.921 4.353.231.192-.633 1.471-1.921 2.842-2.441 2.598-2.209 3.692.882 4.164 1.485.227 1.739-.233 1.349-2.442-.395-2.231-.243-2.497.844-1.472 1.99 1.877 2.675 1.528 2.675-1.364 0-1.437.454-2.9 1.009-3.25.555-.35 1.174-1.501 1.375-2.557.201-1.057 2.191-2.857 4.422-4 2.23-1.144 5.128-3.092 6.438-4.329 1.311-1.237 2.748-2.25 3.195-2.25.446 0 .811-.701.811-1.558C52 36.481 60.507 28 62.474 28c.949 0 1.241-.58.83-1.65-.525-1.367-.174-1.534 2.054-.975 1.937.486 2.849.249 3.271-.85.322-.839 1.41-1.525 2.419-1.525 1.009 0 2.112-.45 2.452-1 .868-1.404 6.5-1.253 6.5.174 0 .646 1.013.253 2.25-.872 1.238-1.126 2.813-1.842 3.5-1.591.687.25 1.25-.209 1.25-1.021 0-.812.726-1.754 1.613-2.095 1.306-.501 1.377-.902.377-2.107-1.023-1.233-.892-1.488.765-1.488 1.1 0 2.56-.675 3.245-1.5s.928-1.5.541-1.5.276-1.586 1.475-3.525C99.197-.291 101.309 0 48.031 0H0v21.5M146.559.845c2.71.862 7.441 4.665 7.441 5.982 0 .571.858 1.311 1.908 1.644 1.049.333 2.16 1.263 2.468 2.067.81 2.11 2.156 1.799 3.404-.788 1.084-2.248 1.085-2.248 1.152.324.051 1.918 1.024 3.086 3.818 4.581 2.871 1.536 3.689 2.546 3.488 4.308-.221 1.95-.03 2.11 1.25 1.047 1.16-.962 1.841-.982 2.922-.085 1.118.928 1.739.701 3-1.1l1.59-2.27.116 2.972c.082 2.092.259 2.38.597.973.558-2.32 2.287-4.466 2.287-2.839 0 2.098 5.012.14 5.595-2.185 1.23-4.899 7.823-3.57 6.889 1.388-.273 1.45-.231 2.074.093 1.386s1.709-1.25 3.078-1.25c2.262 0 2.345-.143.916-1.571-2.108-2.109-1.978-2.693.429-1.929 1.147.364 2 .18 2-.433 0-.587-.436-1.067-.969-1.067-.532 0-.728-.625-.435-1.389.66-1.72 4.404-.907 4.404.956 0 .733-.693 1.722-1.541 2.196-.934.523-1.285 1.526-.893 2.549 1.017 2.65 1.778 2.053 4.25-3.334 2.198-4.792 4.148-5.795 4.216-2.169.029 1.56.135 1.555 1.36-.059.731-.963 1.729-1.753 2.218-1.756.49-.004 2.128-.652 3.64-1.441 2.669-1.392 2.753-1.355 2.852 1.256.095 2.49.161 2.444.884-.61.889-3.753 2.014-5.354 2.014-2.866 0 2.087 1.588 2.182 2.371.143 1.832-4.775 7.532-2.764 7.597 2.68.026 2.161.407 2.559 2.037 2.132 1.103-.288 2.659.018 3.457.68 2.074 1.722 3.354.52 2.759-2.593-.403-2.107-.216-2.487.884-1.799.767.481 2.274.729 3.348.552 1.662-.274 1.761-.091.664 1.231-1.328 1.6-.767 3.641 1.001 3.641.55 0 .736-.427.413-.95-.323-.522.296-1.422 1.375-2 2.648-1.417 3.412-1.321 2.772.347-.366.953.394 1.533 2.393 1.827 2.433.357 2.932.078 2.944-1.647.013-1.742.187-1.835 1.079-.577.83 1.172.967.9.623-1.25-.477-2.986.683-3.756 1.693-1.123.344.894.136 2.216-.462 2.936-.782.942-.782 1.878-.001 3.338.598 1.116 1.432 6.32 1.854 11.564.712 8.852.636 9.535-1.062 9.535-6.673 0-9.159 12.522-3.387 17.062L260 53.145v59.922l-3.614 3.613c-3.3 3.301-3.57 3.994-3.118 8.007.273 2.417 1.268 5.248 2.212 6.291.944 1.043 1.426 2.365 1.072 2.938-.355.574-.142 1.981.471 3.127.806 1.507.813 2.449.026 3.398-1.812 2.183-.936 12.149 1.184 13.472 2.428 1.517 2.674.641 3-10.669.36-12.466 2.216-11.632 2.441 1.096.195 11.044.668 12.245 3.412 8.66 1.052-1.375 2.416-3.1 3.031-3.833.823-.982.823-1.627 0-2.45-.614-.614-1.117-.786-1.117-.382 0 .405-.9.254-2-.335-2.525-1.351-2.554-2.689-.075-3.476 1.831-.581 1.85-.829.387-5.122-.845-2.481-1.281-4.767-.968-5.08 1.403-1.402 3.513.874 4.115 4.437.363 2.144 1.288 5.663 2.056 7.82 1.376 3.863 1.398 3.78 1.441-5.586.024-5.228.47-10.992.991-12.807.52-1.815.697-3.95.393-4.743-.62-1.615-5.34-2.006-5.34-.443 0 1.559-4.61 1.174-6-.5-.685-.825-2.09-1.5-3.122-1.5-1.033 0-1.878-.45-1.878-1s.427-1 .948-1c.578 0 .979-12.814 1.025-32.725.07-29.979.692-38.055 2.495-32.376.367 1.156 1.086 2.101 1.599 2.101.513 0 .933 1.152.933 2.559 0 1.451.433 2.292 1 1.941.55-.34 1-1.89 1-3.444 0-1.872.803-3.352 2.378-4.384 2.788-1.827 4.229-7.669 2.63-10.658-1.29-2.409-3.557-2.631-4.402-.431-.855 2.23-2.916 1.252-3.117-1.48-.145-1.967.225-2.225 2.671-1.866 1.562.229 2.84.093 2.84-.303 0-.931-2.635-1.934-5.082-1.934-2.579 0-3.024-5.666-.568-7.235.837-.534.81-.739-.1-.75-.687-.008-1.25-.942-1.25-2.074s.45-1.781 1-1.441c.603.373 1-.97 1-3.382 0-2.2.45-4.278 1-4.618 2.015-1.246 1.156-4.684-1-4-1.147.364-2 .18-2-.433 0-.587.73-1.067 1.622-1.067 1.378 0 1.421-.243.288-1.608-1.128-1.36-1.07-1.802.378-2.86.941-.689 1.712-1.765 1.712-2.392 0-1.964 1.74-1.242 2.316.961.319 1.218 1.018 1.811 1.665 1.411.778-.481.801-1.07.076-1.943-.572-.689-.734-1.558-.361-1.932.373-.373-7.32-.608-17.096-.521-9.776.087-17.186.522-16.466.967.719.444 1.048 1.068.73 1.386-.776.777-3.864-.459-3.864-1.547 0-.475-20.363-.834-45.25-.797-24.887.036-44.323.36-43.191.72M290 1.059c0 .582.441.787.979.454.539-.333 1.862-.133 2.94.443 1.301.697 2.168.712 2.579.047C297.523.345 299 .871 299 2.893 299 4.461 300.774 6 302.582 6c.23 0 .418-1.2.418-2.667 0-1.466.337-2.329.75-1.916.413.412.751 1.275.753 1.916.001.664 1.494 1.167 3.459 1.167 3.541 0 6.737 3.56 5.294 5.895-.391.632-.771.56-1.022-.194-.679-2.037-1.976-1.331-2.49 1.357-.36 1.883-.127 2.419.884 2.031.876-.336 1.372.185 1.372 1.442 0 2.252-2.687 2.705-3.177.536-.275-1.219-.6-1.229-2.173-.066-2.607 1.925-1.102 3.757 2.445 2.978 2.228-.489 2.905-.278 2.905.906 0 2.765 3.805 4.005 4.181 1.363.175-1.236.994-2.274 1.819-2.305 2.553-.097 5-1.59 5-3.05 0-.766.45-1.393 1-1.393 1.356 0 1.26 1.34-.2 2.8-.933.933-.933 1.2 0 1.2 1.854 0 1.418 1.801-.55 2.272-1.568.375-1.542.503.25 1.228 4.171 1.69 4.667 2.596 2.898 5.296-1.54 2.35-1.536 2.471.059 1.859.939-.36 2.907-.691 4.375-.734 1.467-.043 2.103-.307 1.412-.585-1.793-.723-.499-2.336 1.874-2.336 1.1 0 1.722-.45 1.382-1-.34-.55-1.491-1-2.559-1-1.312 0-1.941-.688-1.941-2.122 0-1.563.33-1.86 1.25-1.126.688.548 2.712 1.2 4.5 1.449 2.865.399 3.25.177 3.25-1.874 0-1.28.45-2.327 1-2.327 1.059 0 1.442 2.007 1.108 5.811-.185 2.113-.007 2.205 2.092 1.082 1.403-.751 1.81-1.39 1.047-1.644-.686-.229-1.247-.855-1.247-1.391 0-.537.453-.696 1.008-.353.554.342 1.791-.162 2.75-1.12 1.502-1.502 1.783-1.531 2.037-.211.201 1.044 1.077 1.382 2.75 1.062 1.35-.258 2.455.002 2.455.578s-.918 1.191-2.04 1.366c-3.167.497-1.826 2.362 1.428 1.988 2.5-.288 2.815-.053 2.344 1.75-.3 1.145-.137 2.082.362 2.082.498 0 .906-.873.906-1.941 0-2.783 1.718-3.455 2.95-1.153 1.434 2.68 1.323 6.091-.2 6.109-.953.012-.939.213.06.846 1.598 1.014 1.571 27.345-.039 39.193l-1.027 7.554-3.62.244c-1.991.134-3.929.56-4.307.946-.522.533-2.817 48.939-2.817 59.413 0 1.627 1.072 1.795 11.25 1.763 16.463-.052 19.988-.669 19.109-3.342-.386-1.173-.617-3.37-.514-4.882.103-1.512-.27-2.75-.829-2.75-.559 0-1.016.75-1.016 1.667 0 2.236-.573 1.438-1.378-1.917-.539-2.246-.321-2.75 1.189-2.75 1.695 0 1.766-.457.851-5.5-.972-5.367-1.077-5.5-4.329-5.5-3.362 0-4.833-1.932-1.583-2.079 1.09-.049.7-.462-1.034-1.094-3.446-1.258-5.311.054-6.268 4.408-.374 1.704-1.093 3.585-1.598 4.181-.505.596-1.541 1.983-2.302 3.082-2.292 3.309-3.007 1.261-2.706-7.748.124-3.732.521-4.75 1.849-4.75 1.475 0 1.443-.188-.25-1.468-1.779-1.346-1.457-1.471 3.868-1.5 3.611-.02 5.575-.41 5.191-1.032-.34-.55.084-1 .941-1s1.559.705 1.559 1.566c0 1.119.786 1.476 2.75 1.25 2.562-.294 3.555-2.006 2.43-4.189-.247-.48-.362-4.867-.255-9.75.178-8.076.027-8.877-1.676-8.877-2.357 0-3.59-4.776-5.774-22.364-1.526-12.301-1.79-33.413-.481-38.579.73-2.881 5.537-4.721 6.408-2.453.294.768.294 2.025-.002 2.795-.295.769-.056 1.696.532 2.059.672.415 1.068-.516 1.068-2.51v-3.17l1.924 2.361c1.059 1.299 1.509 2.511 1 2.694-.508.184-.917 1.084-.909 2 .01 1.038.293 1.254.75.573.404-.601 3.66-1.166 7.235-1.255 5.83-.145 6.309-.013 4.65 1.277-1.745 1.357-1.456 4.188.316 3.093.455-.281 2.336.144 4.181.945 1.844.801 2.903 1.525 2.353 1.61-.55.085-1.45.259-2 .387s-1.589.301-2.309.385c-.72.083-1.012.633-.649 1.22.363.588 1.289.827 2.058.532 1.704-.654 5.911.79 5.87 2.015-.038 1.16 2.843.486 3.679-.861.357-.575 1.436-.744 2.397-.375 1.894.727 1.59 20.501-.59 38.396-.517 4.249-1.229 11.55-1.582 16.225-.823 10.914-1.604 12.508-4.041 8.243-1.4-2.453-2.305-3.067-3.833-2.603-2.306.701-5.5 3.79-5.5 5.318 0 .573-1.012 1.048-2.25 1.056-6.48.039-6.283-.553-5.91 17.783.189 9.284.77 16.962 1.308 17.295.532.329.706 1.68.386 3.003-1.019 4.215-1.311 14.905-.406 14.905.48 0 .872.408.872.906 0 1.558-4.243-.121-4.698-1.857-.281-1.077-1.664-1.732-3.988-1.888-3.06-.207-3.459.01-2.85 1.549 1.169 2.955 1.471 5.296.88 6.835-1.167 3.041-2.344 1.261-2.344-3.545v-5h-9.663l.176 5c.163 4.624.001 5-2.161 5-2.095 0-2.321-.424-2.177-4.088.225-5.766-4.563-7.556-6.526-2.44-.322.84-1.33 1.528-2.24 1.528-1.357 0-1.43.27-.409 1.5 1.02 1.229.951 1.5-.378 1.5-2.202 0-2.077 1.991.128 2.033 1.448.028 1.328.385-.697 2.07-2.079 1.73-2.266 2.327-1.241 3.967 1.15 1.843.864 1.93-6.335 1.93-5.78 0-7.674-.35-8.115-1.5-.689-1.794-2.469-2.025-2.112-.274.137.675-.875 1.342-2.25 1.483-2.244.23-2.295.163-.5-.656 1.851-.845 1.814-.918-.5-.991-1.643-.051-2.896-.932-3.656-2.57L322.188 167h6.284c4.312 0 6.666-.462 7.505-1.472 1.074-1.294 1.405-1.289 2.741.047 1.36 1.36 1.73 1.33 3.511-.278 1.971-1.778 1.962-1.803-.869-2.371-1.573-.316-3.288-.204-3.81.25-.523.453-2.323.788-4 .745-1.678-.043-2.487-.306-1.8-.583.688-.278 1.25-.917 1.25-1.421 0-1.2-2.735-1.191-3.167.009-.387 1.078-12.492 1.748-13.492.748-1.373-1.373-5.202-.643-5.652 1.076-.408 1.561-.47 1.569-.573.07-.064-.925-1.128-1.876-2.366-2.114-1.346-.259-.696-.488 1.617-.57 3.345-.118 3.796-.406 3.343-2.136-.448-1.713.002-2.023 3.134-2.157 3.199-.138 3.032-.237-1.344-.792l-5-.635 4.526-.788c8.31-1.446 11.426-.621 11.787 3.122.639 6.626 2.187 2.967 2.187-5.168 0-8.682-.601-11.947-2.036-11.06-.454.281-1.108.053-1.454-.506-.355-.575.374-1.023 1.681-1.031 1.858-.013 2.016-.205.809-.985-.825-.533-2.662-.976-4.083-.985-3.579-.021-4.074-.858-1.834-3.098C323.1 132.9 327 132.295 327 134c0 .55.563.887 1.25.75.733-.147 1.25.783 1.25 2.25 0 2.622 1.557 3.812 5.141 3.93l2.141.07-.362-29.639c-.308-25.239-.596-29.898-1.939-31.382-.867-.958-2.027-3.372-2.577-5.363-.549-1.991-2.15-4.772-3.558-6.179-2.827-2.827-2.369-4.557.699-2.641 1.837 1.147 1.956.933 1.966-3.538.006-2.617.298-6.494.648-8.617l.638-3.858-8.566.358c-4.711.198-8.908.702-9.327 1.121-.418.419-.646 19.847-.505 43.173.248 41.134.197 42.443-1.691 43.453-2.14 1.146-3.208-3.009-3.208-12.482 0-4.125-.152-4.344-3.435-4.96-5.034-.944-5.565-.153-5.565 8.284 0 5.621-.425 8.082-1.624 9.407-1.143 1.263-1.775 4.465-2.138 10.828-.284 4.969-.903 9.035-1.377 9.035-.473 0-.861-.756-.861-1.679s-.549-3.198-1.221-5.055c-1.019-2.82-.978-3.528.25-4.305 1.163-.736 1.002-.934-.768-.946-2.804-.019-6.261 2.856-6.261 5.207 0 1.093-.748 1.778-1.941 1.778-1.068 0-2.219.45-2.559 1-.351.567.49 1 1.941 1 1.892 0 2.559.521 2.559 2 0 2.394-1.753 2.562-4.76.455-1.653-1.157-2.694-1.282-4.157-.5-3.113 1.667-4.962 1.299-4.394-.873.276-1.056.061-2.706-.477-3.668-.841-1.503-1.075-1.313-1.658 1.342-.498 2.267-1.503 3.379-3.766 4.168-3.001 1.046-8.544 1.424-6.032.412 2.477-.999.045-2.336-4.248-2.336-5.06 0-5.616-.896-5.159-8.316.27-4.377.047-4.945-2.448-6.235-2.638-1.364-2.798-1.302-4.068 1.565-2.745 6.202-3.833 3.643-3.833-9.014 0-10.251-.229-12-1.574-12-1.234 0-1.539-1.026-1.411-4.75.248-7.23.185-7.448-1.934-6.776-1.776.564-1.838.343-.825-2.957.745-2.426 1.354-3.159 1.904-2.292.591.931.814.802.825-.475.008-.963.642-1.75 1.408-1.75.766 0 1.659-.694 1.985-1.543.475-1.238 1.007-1.321 2.693-.419 2.693 1.441 3.397.704 1.934-2.028-2.394-4.473-7.005-7.7-7.005-4.902 0 .673-.95.87-2.417.502-1.982-.497-3.15.227-6.5 4.033-5.227 5.938-5.305 7.617-.333 7.184 3.246-.282 3.793-.024 4.07 1.923.256 1.807-.162 2.25-2.128 2.25-3.224 0-5.687 2.758-3.628 4.061.799.505.933.915.303.924-1.283.017-2.256 2.878-1.621 4.765.231.687 1.985 1.25 3.896 1.25 2.063 0 3.225.407 2.858 1-1.15 1.861-8.496 1.215-8.53-.75-.029-1.625-.107-1.62-1.089.07-1.701 2.924-3.804-.769-3.882-6.82l-.066-5-1.966 2.361c-1.78 2.136-1.967 3.92-1.967 18.75 0 10.259-.374 16.389-1 16.389-.55 0-1.046-2.137-1.102-4.75-.315-14.713-.973-24.255-1.816-26.364-.777-1.941-.967-1.304-1.019 3.423-.034 3.195-.431 5.581-.882 5.303-1.151-.711-1.438-9.814-.52-16.494l.771-5.618.642 4c.482 3.005.658 2.009.705-4 .035-4.4-.164-7.437-.441-6.75-.278.687-1.56 1.25-2.85 1.25-2.743 0-5.495 2.424-5.473 4.821.013 1.345.189 1.405.89.299.608-.961 1.213.202 1.992 3.834.615 2.867.8 5.727.411 6.356-.388.629-.812 5.654-.941 11.166-.396 16.887-.581 20.093-1.056 18.274-.252-.963-.863-1.75-1.359-1.75s-.632-1.35-.302-3c.592-2.961-.951-4.319-1.988-1.75-.277.688-.54-.437-.583-2.5-.055-2.632-.526-3.75-1.579-3.75-1.176 0-1.5 1.373-1.5 6.361 0 6.247-.045 6.353-2.5 5.884-2.491-.476-2.5-.52-2.57-12.112-.039-6.398-.457-12.533-.93-13.633-.473-1.1-.891-1.428-.93-.728-.053.967-1.803 1.118-7.32.632-6.78-.598-9.294-1.715-8.124-3.608.692-1.12-3.537-2.552-7.126-2.412-2.637.102-3.038.517-3.318 3.427-.471 4.907-2.628 3.363-2.987-2.139-.213-3.267-.739-4.672-1.75-4.672-1.019 0-1.445-1.179-1.445-4 0-3.858-.115-3.998-3.25-3.941-5.355.097-12.195 3.985-12.561 7.139-.225 1.945-1.493 3.376-4.608 5.202-6.185 3.624-7.832 6.61-7.421 13.451.303 5.03.121 5.677-1.66 5.905-3.361.429-5.215-1.349-3.795-3.64.85-1.372.924-2.924.25-5.273-.525-1.832-.962-4.908-.97-6.836-.02-4.403-1.561-7.164-2.868-5.137-.746 1.157-1.018 1.153-1.75-.024-1.436-2.309-6.157-4.864-7.815-4.228-.853.328-1.552.098-1.552-.511S108.698 103 107.107 103c-2.925 0-4.107 1.443-4.107 5.012 0 1.156-.843 1.969-2.25 2.168-1.805.257-2.282 1.013-2.414 3.82-.09 1.925-.202 4.287-.25 5.25-.052 1.055-.881 1.75-2.086 1.75-1.899 0-2 .669-2.008 13.25l-.007 13.25-3.993 2.28c-3.659 2.089-4.002 2.131-4.107.5-.064-.979-.22-2.23-.348-2.78-.128-.55-.301-1.802-.385-2.782-.083-.98-1.165-2.189-2.402-2.687-1.238-.497-1.661-.933-.941-.968 2.105-.102.273-2.063-1.927-2.063-1.1 0-1.776.362-1.503.805.274.442-3.267.846-7.868.896-4.601.05-8.849.39-9.438.754-.624.386-1.073 4.127-1.073 8.937v8.273l-6.25.09c-7.972.114-20.381 1.543-21.29 2.452-.384.384-.075 1.321.687 2.083 1.109 1.109 8.915 1.505 39.119 1.989 36.893.59 37.734.56 37.734-1.338 0-1.068.408-1.941.906-1.941.499 0 .701.787.45 1.75-.43 1.649 2.547 1.754 51.844 1.824 28.765.04 51.062-.102 49.55-.317-1.512-.214-2.75-.793-2.75-1.286 0-1.347 13.166.126 15.679 1.754 1.199.777 3.674 1.235 5.5 1.019l3.321-.393-3.319-.814-3.318-.814 3.318-1.569c1.826-.863 3.606-1.984 3.957-2.49.351-.506 1.167-.593 1.813-.194.646.399 2.037-.054 3.091-1.008 1.675-1.516 1.99-1.542 2.501-.21.322.838 2.581 2.083 5.021 2.766 2.485.696 4.436 1.844 4.436 2.612 0 2.307 6.087 1.754 6.705-.61.307-1.174 1.387-1.996 2.656-2.019 1.177-.023 4.736-.165 7.91-.317 3.174-.152 6.324.075 7 .504.966.614.961.785-.021.797-.687.008-1.25.69-1.25 1.515 0 .923.865 1.455 2.25 1.384 1.712-.088 1.829-.226.488-.576-3.012-.785-.821-2.308 3.321-2.308 2.168 0 3.941-.418 3.941-.929 0-.51 2.475-.928 5.5-.928s5.5.418 5.5.928c0 .511 2.673.929 5.941.929 3.416 0 6.245.491 6.655 1.156.526.851-.778.98-4.941.491-3.575-.42-5.655-.293-5.655.344 0 .555 1.462 1.066 3.25 1.137 1.788.07 4.375.265 5.75.433 1.375.168 4.68.408 7.344.534 2.944.139 5.044.753 5.357 1.567.282.736 1.14 1.338 1.906 1.338s1.393.388 1.393.861c0 .474-1.12.648-2.488.386-1.369-.262-2.242-.874-1.941-1.361.301-.487-.38-.886-1.512-.886-1.132 0-2.059.45-2.059 1s-1.012 1.014-2.25 1.032c-1.238.017-3.124.692-4.191 1.5-1.068.807-1.437 1.468-.822 1.468.616 0 1.827.707 2.692 1.571.864.865 1.571 1.202 1.572.75.001-1.038 36.084-1.09 37.68-.055.649.422 1.477.287 1.839-.298.427-.692 1.065-.727 1.82-.101.683.567 13.342 1.005 30.661 1.061 16.225.053 36.249.304 44.499.557 8.25.253 17.475.479 20.5.502l5.5.042-8.659 8.533-8.659 8.532 5.487 5.444c3.285 3.258 5.876 6.852 6.456 8.953.582 2.108 1.595 3.509 2.537 3.509 1.398 0 1.387.276-.1 2.546-1.007 1.537-1.406 3.369-1.008 4.625.407 1.281.276 1.842-.342 1.46-1.634-1.01-2.25 2.188-.717 3.721 1.673 1.673.962 2.654-1.912 2.633-1.711-.013-1.815-.189-.583-.985 1.297-.838 1.275-.971-.167-.985-.916-.008-1.816.429-2 .971-.386 1.141-12.392 1.98-18.492 1.291-4.622-.522-6.305-3.17-3.681-5.795 1.553-1.552-.079-4.482-2.495-4.482-.538 0-.757-.843-.488-1.873.366-1.399-.29-2.145-2.594-2.948-1.695-.591-3.083-1.725-3.083-2.52 0-.795-.712-1.718-1.582-2.052-2.428-.932-10.418-.72-10.418.276 0 .486-.9 1.119-2 1.407-2.029.53-2.834 2.71-1 2.71.55 0 1 .45 1 1s-.627 1-1.393 1c-1.34 0-3.095 2.697-2.766 4.25.088.412-.291.75-.841.75s-1-.36-1-.799c0-.44-1.52-.622-3.377-.405-2.595.303-3.723-.101-4.875-1.746-1.292-1.844-1.585-1.917-2.118-.528-.975 2.541-6.05 1.54-6.45-1.272-.379-2.675-1.845-2.969-2.491-.5-.281 1.077-.502.692-.573-1-.09-2.132-.611-2.75-2.316-2.75-1.672 0-1.921.279-1.037 1.163.884.884.544 1.484-1.414 2.5-3.073 1.594-4.349 1.693-4.349.337 0-.55.675-1 1.5-1 1.805 0 2.03-1.935.25-2.152-3.625-.442-4.331-.437-5.232.039-1.642.866-4.518.832-4.518-.054 0-.458-.75-.833-1.667-.833-.916 0-1.375.292-1.018.648.954.954-3.316 4.352-5.468 4.352-1.016 0-1.847.45-1.847 1s.675 1 1.5 1 1.5.498 1.5 1.107-.672.849-1.493.534c-.832-.319-2.381.381-3.5 1.582-1.874 2.012-2.597 1.511-2.125-1.473.065-.412-.584-.75-1.441-.75-.857 0-1.281-.45-.941-1 .34-.55.179-1-.358-1-.536 0-1.182.562-1.434 1.25-.363.99-.742.982-1.825-.042-1.153-1.09-1.134-1.454.125-2.336 1.183-.829 1.026-.943-.758-.552-1.238.271-2.25.024-2.25-.549 0-.573-1.23-2.181-2.732-3.574-3.311-3.068-13.268-4.255-13.268-1.582 0 .827-.343 1.291-.763 1.032-.419-.259-1.881.192-3.25 1.003-2.358 1.399-2.37 1.451-.237 1.006 1.238-.258 2.25-.103 2.25.344 0 .447 1.012.586 2.25.31 1.479-.331.879.376-1.75 2.062-4.261 2.733-7.312 3.557-4.059 1.096 1.639-1.239 1.686-1.468.3-1.468-.903 0-2.058.744-2.567 1.654-.748 1.336-1.901 1.539-5.999 1.053-4.443-.526-5.151-.359-5.692 1.346-.352 1.109-1.515 1.947-2.703 1.947-2.041 0-2.036-.043.22-2 1.841-1.597 1.973-2 .653-2-2.568 0-3.165.39-2.829 1.85.171.749-.167 1.056-.76.69-.588-.364-3.105-.357-5.592.016-3.828.575-4.335.904-3.304 2.146 1.03 1.241.775 1.416-1.648 1.133-3.003-.351-4.846-2.835-2.103-2.835.871 0 1.583-.498 1.583-1.107s-.675-.848-1.5-.531c-.86.33-1.5.02-1.5-.727 0-1.376-1.061-1.631-7.5-1.799-3.052-.08-3.526-.294-2-.9 1.987-.79 1.987-.796-.027-.866-1.116-.038-3.077-.805-4.359-1.703-1.607-1.125-2.543-1.291-3.01-.535-.373.604-3.083 1.613-6.021 2.244-3.279.703-4.859 1.444-4.091 1.919 2.264 1.399.692 2.831-1.992 1.814-2.43-.92-2.445-.987-.559-2.378 1.568-1.156 1.636-1.431.357-1.431-.871 0-1.843-.675-2.16-1.5-.889-2.318-2.522-1.772-1.893.634.402 1.537.166 2.003-.843 1.667-2.025-.674-2.324-3.677-.561-5.625.834-.922 1.569-2.126 1.634-2.676.064-.55 1.446-.934 3.071-.853 1.909.096 2.954-.338 2.954-1.225 0-1.495-5.994-.871-7.059.735-.307.464-1.414.218-2.458-.546-1.045-.764-2.593-1.15-3.441-.858-1.252.431-1.216.185.19-1.308 2.342-2.485 15.646-2.994 17.35-.663 1.595 2.181 3.298.691 3.198-2.799-.09-3.198-.46-3.471-2.746-2.025-.913.577-1.912.558-2.645-.05-.648-.538-1.563-.909-2.034-.825-2.523.453-4.786-.157-3.532-.952 1.645-1.044-5.616-2.131-14.226-2.131-5.342 0-6.787-.447-11.321-3.5-2.858-1.925-5.665-3.5-6.237-3.5-.58 0-1.039-2.207-1.039-5 0-2.75-.458-5-1.018-5-.575 0-.944 2.112-.847 4.848.189 5.354-.5 7.152-2.744 7.152-.82 0-2.746.649-4.281 1.443-1.535.794-5.619 1.707-9.075 2.03-5.957.557-6.256.482-5.753-1.443.321-1.229.045-2.03-.701-2.03-.678 0-2.295-1.131-3.593-2.513-1.37-1.458-2.733-2.142-3.247-1.628-1.319 1.319-5.724-1.069-5.733-3.109-.009-2.014 1.581-2.355 2.33-.5.318.789.533.645.583-.393.107-2.217 2.762-3.097 5.279-1.75 1.526.817 2.243.794 2.789-.089.404-.654 1.033-1.117 1.398-1.028.365.088 1.214-.063 1.888-.336.674-.273.213-.532-1.025-.575-1.238-.043-2.25-.584-2.25-1.201 0-.775-.387-.807-1.25-.104-1.793 1.462-38.75 1.401-38.75-.064 0-.763-.375-.735-1.2.09-1.583 1.583-8.472 1.545-9.217-.05-.466-1-.7-1-1.166 0-.717 1.536-7.608 1.659-9.104.163-.783-.783-1.275-.783-1.759 0-.871 1.409-6.832 1.409-8.241 0-.783-.783-1.275-.783-1.759 0-.871 1.409-6.832 1.409-8.241 0-.783-.783-1.275-.783-1.759 0-.86 1.391-7.229 1.422-8.084.038-.413-.668-1.069-.705-1.809-.101-1.511 1.232-16.811 1.232-18.322 0-.736-.6-1.386-.582-1.777.049-.856 1.386-16.731 1.174-18.475-.248-1.075-.876-1.513-.852-1.833.099-.24.713-2.089 1.25-4.306 1.25-2.95 0-3.754-.343-3.339-1.423.748-1.948-2.661-3.591-7.293-3.514-3.4.057-3.56.166-1.474 1.002 1.289.517 2.704.716 3.146.443.671-.415 2.012 1.633 2.012 3.074 0 .983-6.707.311-7.8-.782-.933-.933-1.467-.933-2.4 0-1.497 1.497-6.035 1.565-7.487.113-.783-.783-1.275-.783-1.759 0-.871 1.409-6.832 1.409-8.241 0-.783-.783-1.275-.783-1.759 0-.809 1.309-4.554 1.461-4.554.185 0-.496 1.35-1.373 3-1.948s3-1.506 3-2.067c0-1.71-4.141-9.083-5.101-9.083-.494 0-.899-.675-.899-1.5s-.723-1.5-1.607-1.5c-1.018 0-1.396.55-1.031 1.5.441 1.15-.209 1.5-2.785 1.5-2.816 0-3.47-.437-4.037-2.698-1.804-7.184-2.519 2.543-2.493 33.887l.028 33.69 3.213.4 3.212.401-3.25.16L0 228v6.5c0 4.525.38 6.505 1.25 6.515.833.011.75.339-.25.985-1.333.862-1.333.973 0 1 1.167.024 1.213.213.207.851-.93.59-1.211 3.172-1 9.204l.293 8.383 5-.469c21.369-2.005 91.573 1.704 94.882 5.013 1.774 1.774-2.362 2.295-8.269 1.042-5.287-1.122-18.483-.902-27.613.461-1.65.246-7.275.727-12.5 1.069-5.225.342-11.3.768-13.5.946-2.2.178-10.75.613-19 .968-21.633.929-19.5-.446-19.5 12.57 0 10.883.024 10.995 2.25 10.522 1.238-.263 15.75-1.417 32.25-2.565s37.239-2.967 46.086-4.041c8.847-1.075 19.901-1.954 24.564-1.954 16.292 0 56.009-6.339 62.932-10.044 1.055-.564 1.918-1.902 1.918-2.972 0-2.739.562-2.793 36.856-3.484 29.675-.566 32.514-.475 34.25 1.096 2.054 1.859 2.669 8.807.879 9.913-.558.345-1.618 2.071-2.355 3.834-1.237 2.96-4.43 6.516-11.243 12.52-2.375 2.094-2.784 2.179-3.584.75-1.329-2.375-6.485-2.077-7.839.454-1.165 2.177.945 6.933 3.075 6.933 2.109 0 8.961-2.529 8.961-3.307 0-.451 3.304-4.288 7.342-8.528 8.513-8.936 9-9.73 10.713-17.461.706-3.187 1.615-6 2.02-6.251.604-.373 39.951-.869 43.474-.549.595.055.877 1.573.651 3.508-.686 5.88 3.827 7.266 31.3 9.613 7.15.611 13.855 1.357 14.9 1.658 1.749.503 1.722.297-.343-2.603-1.77-2.486-1.995-3.45-1.064-4.571.649-.782.9-1.873.559-2.425-1.24-2.007 2.057-5.178 6.88-6.615 3.145-.937 9.484-1.487 17.5-1.518 6.912-.026 17.068-.472 22.568-.99 20.342-1.916 35.057-2.271 41.753-1.008 6.737 1.272 13.252 4.421 12.308 5.949-1.308 2.115 2.427 3.422 6.221 2.178 4.956-1.626 54.218 1.007 54.218 2.898 0 .809-13.537.426-14.91-.423-1.23-.76-7.161.521-6.602 1.426.251.405 3.506 1.045 7.234 1.422 11.681 1.182 14.278 2.33 14.278 6.314 0 1.871-.362 3.178-.803 2.904-.442-.273-6.405-.81-13.25-1.193-6.846-.383-12.728-1.134-13.072-1.669-.389-.605-.888-.548-1.319.151-.382.617-1.088.879-1.57.581-.482-.298-6.352-.731-13.045-.963-6.692-.232-12.388-.642-12.657-.911-.269-.269-1.552-.085-2.851.409-1.416.538-2.59.529-2.93-.021-.313-.506-1.791-.883-3.286-.838-1.494.045-7.217-.249-12.717-.653-5.5-.404-12.025-.845-14.5-.98-10.737-.584-20.582-1.775-21.592-2.612-.601-.498-1.403-.593-1.784-.213-.381.381-4.839.585-9.908.454-5.069-.131-8.677.128-8.019.576 1.666 1.132-.098 3.705-2.031 2.963-1.733-.665-12.666 2.183-12.666 3.3 0 .397 6.413 1.251 14.25 1.896 31.149 2.566 28.588 1.541 29.385 11.766 1.263 16.19-12.817 28.226-41.49 35.467-15.857 4.005-16.442 3.948-17.97-1.766-1.342-5.017-5.107-10.881-8.752-13.631-2.454-1.851-12.327-4.734-16.213-4.734-2.089 0-2.294-.339-1.737-2.876 1.161-5.288-4.808-8.34-7.841-4.009-.815 1.163-1.286 2.625-1.047 3.25.306.802-2.996 1.173-11.271 1.264-9.534.106-11.39-.1-10.009-1.11 1.963-1.435 2.243-5.571.495-7.319-1.644-1.644-4.301-1.506-5.8.3-1.884 2.27-2.773 1.828-3.519-1.75-1.031-4.948-3.202-7.75-6.004-7.75-1.362 0-2.477.45-2.477 1 0 1.349-3.327 1.273-4.707-.107-.81-.81-1.399-.563-2.192.919-.809 1.512-.775 2.13.137 2.434.915.305.952 1.012.15 2.81l-1.072 2.403-1.193-2.23c-2.665-4.979-10.067-.843-8.039 4.492l.942 2.478-5.763-.598c-5.827-.605-57.222-2.096-62.763-1.821-10.754.534-20.252 1.565-21.75 2.361-1.324.703-1.75.541-1.75-.665 0-.877-.45-1.316-1-.976-.55.34-1 1.349-1 2.243 0 .894-.893 3.471-1.985 5.726-2.174 4.49-4.015 12.855-4.015 18.239 0 4.134 4.659 12.626 6.345 11.567.635-.399 2.055-.58 3.155-.403 1.892.305 1.876.19-.292-2.134-4.824-5.17-4.882-16.361-.135-26.324 2.262-4.748 4.46-6.059 11.657-6.949 4.949-.612 5.294-.507 6.421 1.968 2.111 4.632 7.12 4.615 8.886-.03.877-2.307 1.297-2.403 10.518-2.403h9.604l-.668 3.041c-.838 3.814.817 5.959 4.596 5.959 3.627 0 5.506-3.024 3.827-6.16l-1.156-2.161 12.735.646c17.276.875 50.257 4.226 71.507 7.264 23.387 3.344 23.603 3.408 20.827 6.184-.889.889-.894 1.784-.021 3.7 1.469 3.224 5.474 3.393 7.626.321 1.523-2.175 1.567-2.178 2.978-.25 2.991 4.084 4.023 9.165 2.228 10.961-.901.901-1.638 2.001-1.638 2.445 0 1.846-14.184 4.308-37 6.422-2.475.229-9 1.363-14.5 2.519-12.673 2.664-12.865 2.666-11.266.106 1.572-2.517.043-5.352-3.141-5.824-4.668-.692-6.879 4.463-3.06 7.137 1.921 1.346 1.799 1.462-2.25 2.119-11.834 1.921-19.915 2.351-27.783 1.479-4.675-.518-11.425-1.16-15-1.427-3.575-.266-9.875-.997-14-1.625s-9.975-1.304-13-1.501c-6.888-.45-20.439-2.051-24.792-2.93-3.003-.606-3.393-.396-4.445 2.391-.947 2.511-1.609 2.983-3.708 2.646-1.405-.225-7.505-.901-13.555-1.502-6.05-.6-17.975-1.952-26.5-3.004-14.599-1.8-38.399-3.637-77.5-5.982-22.508-1.35-21.193-1.297-27.75-1.125L0 339v86.837l64.75-.375c35.915-.207 68.535-.836 73.25-1.41 4.675-.57 18.588-1.04 30.917-1.044 20.755-.007 26.222.437 18.074 1.468-1.805.228-3.757.89-4.337 1.47-.58.58-3.551 1.084-6.604 1.12-9.879.117-23.208 2.43-24.545 4.259-.674.921-1.597 1.675-2.051 1.675-.454 0-1.853.966-3.11 2.147-1.714 1.609-2.615 1.873-3.601 1.055-1.269-1.053-12.546-.733-13.667.388-.285.285.144.937.953 1.449.996.63 1.068.935.221.946-.687.008-1.363.037-1.5.064-.137.027-1.992.442-4.121.922-4.392.991-7.705.327-5.463-1.095.734-.465 2.797-.852 4.584-.861 1.787-.008 3.25-.422 3.25-.92 0-1.734-23.269 2.033-25.346 4.104-.79.788-9.26 2.256-21.48 3.722-19.412 2.33-20.112 2.49-18.519 4.25 2.303 2.545 1.186 2.298-5.332-1.18-7.048-3.761-7.73-3.245-2.221 1.681 2.353 2.106 4.968 4.616 5.811 5.578.842.962 2.106 1.75 2.809 1.75.703 0 1.278.576 1.278 1.281 0 .704 2.363 3.607 5.25 6.452 2.888 2.844 5.83 5.868 6.539 6.719.71.851 2.413 1.548 3.786 1.548 3.129 0 2.456-1.445-3.961-8.5-5.597-6.154-5.602-6.261-.364-6.877 3.838-.452 67.829-2.889 108.25-4.123 66.109-2.018 246.14-2.359 285.754-.541 16.365.751 30.09 1.03 30.5.62.859-.858 1.522-288.905.68-295.329-.462-3.529-.928-4.253-2.745-4.265-2.332-.017-6.183-1.942-3.939-1.97 2.291-.028 1.326-5.094-1.5-7.877-2.828-2.785-6.25-3.094-6.25-.565 0 .785-.626 1.427-1.392 1.427-1.677 0-2.936 4.391-2.055 7.167.526 1.657.235 1.94-1.71 1.665-2.111-.299-2.4-.975-2.92-6.832l-.578-6.5-.172 6.82c-.164 6.458-.292 6.802-2.423 6.5-1.518-.216-2.152-.898-1.95-2.099.237-1.4-.229-1.682-2.191-1.327-1.749.318-2.616-.047-2.907-1.221-.228-.92-.757.208-1.175 2.507-.604 3.318-1.023 3.937-2.033 3-.939-.871-.974-1.396-.133-2.006.838-.608.809-.96-.111-1.333-.798-.324-1.25-2.605-1.25-6.31 0-3.191-.625-7.008-1.39-8.481-1.408-2.714-1.111-6.55.507-6.55.485 0 .883-.675.883-1.5s-.436-1.5-.969-1.5c-.532 0-.727-.629-.431-1.399.295-.769.162-1.63-.296-1.913-.458-.283-.668-2.579-.467-5.101l.364-4.587 4.15-.092c9.934-.22 10.153-.278 10.078-2.658-.361-11.364-.391-11.526-1.898-10.276-.859.713-1.329 2.426-1.131 4.123l.338 2.903-6.119-.015c-3.804-.01-5.606-.341-4.762-.875.983-.624 1.041-1.055.209-1.569-.631-.39-.874-1.571-.539-2.625.722-2.275-2.263-2.766-3.128-.515-.295.771-1.406 1.629-2.468 1.907-2.088.546-2.381 2.07-2.008 10.442.259 5.822.406 5.721-7.7 5.292l-4.276-.227.526 3.843c2.225 16.243 2.748 20.918 3.228 28.842 1.013 16.708 1.484 14.958-3.969 14.765-6.514-.231-6.716-.469-6.85-8.074-.109-6.153-1.361-14.032-1.858-11.691-.116.55-.133 5.162-.037 10.25l.176 9.25h-5.582c-5.113 0-5.583-.189-5.608-2.25-.211-17.668-1.379-43.477-2.002-44.253-.443-.551-.505-7.976-.138-16.5.367-8.523.583-33.384.479-55.247-.103-21.863.175-39.75.617-39.75s1.239 7.313 1.771 16.25l.967 16.25.166-16.75C423.937 14.361 424.38 8 425 8c.55 0 1 .9 1 2 0 1.443.667 2 2.393 2 2.895 0 3.541 1.488 4.334 9.985.335 3.58.795 5.948 1.024 5.262.514-1.542 4.249-1.665 4.249-.14 0 .609-.675.848-1.5.531-.825-.316-1.5-.139-1.5.393 0 .533 1.125.969 2.5.969s2.5.45 2.5 1-1.125 1-2.5 1-2.5.45-2.5 1 .653 1 1.45 1c.798 0 1.86.732 2.36 1.626.769 1.372 1.008 1.234 1.541-.89.798-3.178 3.649-4.51 3.649-1.705 0 1.937.866 2.36 4.167 2.035.917-.09 1.878.646 2.134 1.635.431 1.66.476 1.664.583.049.124-1.871.964-2.129 3.618-1.111 1.3.499 1.379.817.361 1.446-.718.443-1.011 1.101-.651 1.461.36.36 1.247.277 1.971-.183 2.797-1.779 8.029-1.281 7.507.715-.343 1.312.5 2.427 2.913 3.851 2.6 1.533 3.397 1.678 3.397.617 0-3.713 12.185-1.834 13.699 2.112.283.738.978 1.342 1.543 1.342.566 0 2.071 1.125 3.346 2.5 2.807 3.029 3.412 3.113 3.412.475 0-2.234 4.004-4.295 6.491-3.34 1.318.506 1.509-2.34 1.509-22.528V0H395c-73.234 0-105 .32-105 1.059m208.667 62.608c-.367.366-.681 1.829-.697 3.25-.024 2.032-.225 2.251-.942 1.027-.634-1.084-1.973-1.432-4.412-1.147-3.884.453-5.33 3.509-4.059 8.575.807 3.213 2.19 3.422 2.623.396.49-3.417 5.82-3.607 5.82-.208 0 1.478.578 2.44 1.467 2.44 1.176 0 1.542 2.138 1.842 10.75.206 5.912.29 2.757.187-7.012-.181-17.197-.413-19.488-1.829-18.071M30.238 75.162c-.681.681-1.238 2.064-1.238 3.073 0 1.01-.727 2.945-1.615 4.3-.992 1.514-1.185 2.465-.5 2.465.613 0 1.119-.338 1.123-.75.004-.412 1.129-1.27 2.5-1.906 2.773-1.286 3.334-.288.95 1.691-.994.825-1.199 1.624-.575 2.248 1.149 1.149 8.117.036 8.117-1.297 0-.508-.675-.664-1.5-.348-1.719.66-2.057-1.176-.404-2.197.603-.373 1.84.067 2.75.977 1.455 1.455 1.473 1.769.154 2.603-2.261 1.429-.386 1.167 3.618-.506 3.359-1.404 3.46-1.579 1.838-3.202-1.623-1.623-1.6-1.769.413-2.668 2.781-1.241 2.768-2.982-.015-2.099-1.821.578-2.063.361-1.594-1.432.696-2.661-.666-2.708-3.26-.114-1.1 1.1-2 1.55-2 1s-.477-1-1.059-1-.781.45-.441 1 .127 1-.472 1c-.6 0-1.36-.701-1.688-1.557-.329-.857-1.186-1.332-1.904-1.057-.719.276-1.454.06-1.634-.48-.191-.572-.842-.466-1.564.256M6 75.802c0 .471-1.012.821-2.25.777-2.194-.077-2.258.216-2.569 11.773-.222 8.231.007 11.65.75 11.191C2.519 99.179 3 97.982 3 96.882s.43-1.734.956-1.409c.526.325.703 1.252.393 2.059-.694 1.81 2.228 2.018 3.068.218.465-.998.701-.997 1.168.006.322.691.997 1.002 1.5.691.503-.311.915-.059.915.56 0 .638 1.192.989 2.75.809 2.688-.309 3.444-2.184.989-2.451-.682-.074-1.914-.205-2.739-.291-.961-.101-.093-1.4 2.413-3.612 2.749-2.428 4.012-4.423 4.245-6.709.185-1.807-.014-2.715-.447-2.043-.573.889-1.07.746-1.874-.541C15.12 82.219 17.7 78 20.11 78c.794 0 .925-.336.34-.874C19.156 75.934 6 74.729 6 75.802m315.895 35.063c-.753 11.677-.333 15.135 1.836 15.135 1.243 0 1.288.273.249 1.524-1.904 2.295-.592 2.804 4.721 1.833l4.799-.878-.346-8.99c-.421-10.909-.031-10.258-6.142-10.258-3.929 0-5.035.353-5.117 1.634M415.767 127c-.403 1.925-.893 7.478-1.087 12.34-.195 4.863-.767 9.138-1.272 9.5-.504.363-1.677 3.135-2.607 6.16-2.842 9.246-2.879 10.036-.505 10.914 2.917 1.079 4.952-1.078 4.125-4.372-.581-2.314-.359-2.542 2.471-2.542 1.709 0 3.108-.45 3.108-1s-.337-.947-.75-.882c-3.662.579-3.903.002-3.035-7.266 1.047-8.767.667-28.174-.448-22.852m-252.998 23.836c1.751 1.111-3.059 3.65-5.292 2.794-.912-.35-2.15-.332-2.753.04-.602.373-3.548.564-6.547.425-4.615-.214-5.359-.011-4.846 1.326.383.997.065 1.579-.862 1.579-.808 0-1.469.635-1.469 1.412 0 1.745 7.54 3.203 9.285 1.795 1.568-1.265 9.321-2.608 13.333-2.309 2.066.154 3.321-.296 3.719-1.333.377-.982.053-1.565-.868-1.565-.808 0-1.469-.408-1.469-.906 0-.499.9-.671 2-.384 1.535.402 2 .031 2-1.593 0-1.782-.593-2.115-3.75-2.102-2.285.01-3.254.33-2.481.821m321.876 5.414c-.324 1.238-.489 2.475-.367 2.75.122.275-1.801.725-4.273 1-4.064.452-4.544.787-5.012 3.5-.531 3.078-.766 3.187-7.302 3.385-2.228.067-3.556.525-3.199 1.102.336.543 2.162.789 4.059.546 2.936-.376 3.449-.142 3.449 1.572 0 1.267.428 1.749 1.155 1.3.715-.443.883-.275.44.44-.422.685-.078 1.155.846 1.155.892 0 1.559-.855 1.559-2 0-1.564.667-2 3.059-2 1.8 0 2.803.415 2.436 1.008-1.073 1.736 2.335 4.378 3.936 3.05 1.041-.865 1.519-.828 1.972.15.477 1.032.723 1.015 1.222-.083.344-.756 1.469-2.219 2.5-3.25 1.833-1.833 1.829-1.875-.196-1.875-2.653 0-4.929-2.276-4.929-4.929 0-1.865.598-2.071 6-2.071 8.15 0 8.509-2.543.5-3.543-3.688-.461-5.5-1.144-5.5-2.072 0-2.223-1.712-1.594-2.355.865m-470.395 53c.162.809-.719 1.149-2.5.962-1.933-.202-2.75.169-2.75 1.25 0 .846-.694 1.538-1.542 1.538-2.101 0-5.88 3.621-4.602 4.411a1.192 1.192 0 0 0 1.634-.395c1.038-1.679 4.533-1.24 3.871.486-1.443 3.759.433 6.247 4.626 6.137 2.207-.058 4.013-.505 4.013-.995 0-.489.563-.426 1.25.139.887.729 2.555.343 5.75-1.333 2.475-1.298 4.093-2.38 3.594-2.405-.498-.025.402-1.173 2-2.552 2.296-1.981 2.974-2.191 3.229-1 .423 1.972.795 1.915 4.453-.69 1.697-1.208 2.781-1.705 2.41-1.104-.693 1.121 1.334 2.301 3.955 2.301.829 0 1.176-.488.79-1.112-.378-.611-.203-1.411.388-1.776.677-.418.74-1.208.17-2.13-.689-1.114-1.185-1.186-2.069-.302-.64.64-1.784.926-2.542.635-.758-.291-1.378-.031-1.378.578s-1.237 1.055-2.75.991c-1.513-.064-2.011-.312-1.107-.553 3.073-.817 1.013-4.337-2.51-4.286l-3.133.045 3 1.374c2.082.953 2.442 1.398 1.179 1.455-1.002.044-2.497.756-3.322 1.581-1.717 1.717-4.357 2.001-4.357.468 0-.568 1.012-1.422 2.25-1.897 2.227-.856 2.221-.876-.565-1.968-4.115-1.612-7.024-1.43-6.323.397.316.825.176 1.5-.312 1.5-.487 0-1.617.28-2.509.623-.893.342-1.551.23-1.463-.25.389-2.133-.191-3.373-1.578-3.373-.825 0-1.387.563-1.25 1.25M257.5 430.078c-1.65.499-12.786 1.023-24.748 1.164-11.961.142-21.748.541-21.75.887-.006 1.735 6.128 2.896 12.539 2.375 3.828-.312 13.034-.799 20.459-1.083 13.789-.527 22.194-2.046 19.783-3.577-1.542-.978-2.374-.947-6.283.234M1 442.954v5.904l5.619 1.167c4.09.849 5.754 1.684 6.116 3.071.274 1.047 1.233 1.951 2.132 2.009 3.153.202-6.414 2.742-10.617 2.818-3.846.07-4.25.315-4.25 2.577 0 2.848-.341 2.8 11 1.537 22.567-2.514 23.55-2.482 28.622.94 6.698 4.521 7.556 3.179 1.262-1.976-2.961-2.425-6.116-5.105-7.011-5.955-.895-.85-2.695-2.394-4-3.431a114.979 114.979 0 0 1-4.676-3.974c-1.702-1.544-2.5-1.769-3.06-.863-.57.923-1.247.793-2.745-.527-2.148-1.892-11.189-6.648-15.642-8.226L1 437.05v5.904m254-4.882c-46.658 2.29-62.172 3.159-80.008 4.479-22.377 1.655-33.869 2.973-34.826 3.993-.366.391 4.959.41 11.834.043 55.263-2.955 81.666-3.763 137.5-4.205 61.315-.486 64.013-.585 64.308-2.36.273-1.635-.554-1.9-7-2.252-13.29-.725-75.017-.522-91.808.302m147.885-.207c-.064.349-.176 1.288-.25 2.087-.147 1.576-4.626 1.603-18.135.11-12.838-1.418-27.916-.82-28.294 1.124-.301 1.549 2.174 1.699 30.483 1.849 16.946.089 38.686.481 48.311.87 29.416 1.189 44.729.794 46.728-1.204 1.601-1.601.723-1.701-14.965-1.701-9.167 0-24.226-.646-33.465-1.437-24.3-2.078-30.284-2.412-30.413-1.698m-62.205 18.789c-.446.445-18.444.91-39.995 1.032-21.552.123-41.435.308-44.185.412-2.75.104-8.15.063-12-.092-14.846-.597-139.532 3.707-159 5.488-2.75.252-5.338.468-5.75.482-1.29.041-.822 1.809.947 3.578 1.823 1.823 4.98 1.779 41.303-.578 22.832-1.481 52.043-2.9 83.5-4.056 15.95-.586 32.375-1.205 36.5-1.374 4.125-.17 21.675-.408 39-.529 21.322-.149 31.718-.571 32.174-1.304.484-.779 1.047-.778 2 .002.881.721 15.42 1.281 43.326 1.668 60.964.846 117.892 2.688 130.25 4.214 4.827.597 5.837-1.043 1.628-2.643-1.838-.699-3.033-.655-4 .147-1.038.862-1.378.853-1.378-.036 0-.766-1.842-1.154-5.25-1.107-2.887.041-14.25-.377-25.25-.928-11-.55-29-1.257-40-1.571-22.643-.646-59.247-2.327-67.505-3.1-3.028-.284-5.87-.151-6.315.295M27.669 472.665c-.123.122-6.399.348-13.946.5L0 473.443v10.592l32-.063c17.6-.035 31.993-.381 31.984-.768-.033-1.513-9.888-10.207-11.634-10.264-8.597-.277-24.502-.454-24.681-.275m77.555 1.435c-1.062.37.125.875 3.113 1.323 2.656.399 6.535 1.326 8.619 2.062 5.857 2.066 43.311.86 66.044-2.126 3.948-.519 4.215-.699 2.176-1.47-1.437-.544-3.068-.482-4.271.162-1.071.573-2.5.683-3.176.245-1.414-.916-69.913-1.102-72.505-.196" fill="#d3d3d3" fill-rule="evenodd"/></svg>