<svg xmlns="http://www.w3.org/2000/svg" width="500" height="349"><path d="M471 4.441c0 2.443.457 4.724 1.016 5.069.559.346.777 1.016.484 1.49-.293.474-.086 1.138.459 1.475.545.337.837 1.943.648 3.569-.19 1.626-.066 2.957.274 2.959.341.002.718 3.229.84 7.173.122 3.957.72 7.479 1.336 7.859.613.379 1.007 1.539.876 2.577-.132 1.039.127 2.74.575 3.782.449 1.041.874 2.982.945 4.312.071 1.33.561 2.728 1.088 3.106 1.548 1.111 1.725 4.404.286 5.316-.999.633-1.018.845-.077.857.711.008 1.25 1.273 1.25 2.932 0 1.604.563 3.143 1.25 3.421.961.388.948.522-.059.583-.72.043-1.009.564-.643 1.157.367.593.86 3.181 1.097 5.75.236 2.57.675 6.022.976 7.672.3 1.65.648 4.35.773 6 .124 1.65.622 5.475 1.106 8.5.885 5.533 1.047 6.373 1.493 7.75.134.412.175 1.135.09 1.605-.084.471.255 1.371.753 2 .499.63.675 2.045.39 3.145-.853 3.302-.788 15.498.083 15.499.445.001.55.42.234.932-.317.512-.135 1.203.403 1.536.628.388.587 1.464-.116 3.008-.864 1.896-.773 2.725.435 3.933.957.956 1.453 3.04 1.324 5.561-.113 2.217.046 4.031.353 4.031s.558 6.863.558 15.25c0 8.388.277 16.652.615 18.366.338 1.714.19 3.875-.329 4.803-.595 1.062-.588 2.129.018 2.883.528.659.808 3.132.622 5.496-.187 2.364.058 5.344.544 6.623.489 1.286.502 2.717.03 3.202-.47.482-.956 3.577-1.081 6.877-.124 3.3-.651 6.55-1.172 7.222-.628.812-.421 1.747.616 2.784 1.145 1.144 1.322 2.193.663 3.925-.494 1.3-.638 2.624-.32 2.942.319.318.043 1.224-.612 2.014-.852 1.027-.879 1.628-.094 2.113.787.487.766 1.076-.074 2.089-.911 1.098-.866 1.414.202 1.426.826.01.974.308.372.75-1.237.909-1.48 5.235-.294 5.235.475 0 .414.841-.136 1.869-.55 1.027-.715 2.152-.368 2.5.347.347.181.631-.369.631s-1 .655-1 1.456c0 .801.445 1.181.988.846.553-.342.674-.102.274.543-.396.643-.132 1.185.596 1.223.72.037.39.514-.733 1.06-1.609.782-1.957 1.722-1.641 4.432.225 1.926-.045 3.44-.614 3.44-.559 0-.762.97-.452 2.156.358 1.369.179 1.919-.489 1.506-.579-.358-1.31.022-1.626.844-.315.822-.19 1.494.279 1.494 1.422 0 2.031 4.083.686 4.6-.741.284-1.073 1.636-.822 3.349.32 2.182-.099 3.152-1.743 4.032-1.736.929-1.93 1.442-.978 2.589.921 1.11.908 1.43-.058 1.43-.977 0-.984.314-.036 1.456.664.801.919 1.924.565 2.496-.353.572-.833 2.032-1.067 3.244-.233 1.212-1.077 2.569-1.875 3.015-.863.483-1.276 1.775-1.019 3.193.277 1.526-.122 2.595-1.111 2.974-1.195.459-1.308 1.033-.5 2.541 1.38 2.579 1.327 4.375-.103 3.491-.806-.499-.949.076-.481 1.941.639 2.544-.333 3.287-3.623 2.767-.413-.065-.75.332-.75.882s.477 1 1.059 1 .781.45.441 1-.141 1 .441 1 1.059.477 1.059 1.059-.45.781-1 .441c-.953-.589-1.396.674-1.1 3.138.075.625-.268 2.2-.762 3.5-.494 1.299-.943 2.704-.998 3.122-.055.419-.816 2.147-1.692 3.841-.876 1.694-1.376 3.644-1.111 4.334.264.69-.354 1.856-1.374 2.592-1.021.735-1.586 1.774-1.257 2.307.33.533-.171 1.533-1.113 2.222-1.075.786-1.322 1.493-.664 1.9.691.427.501 1.484-.555 3.096-.882 1.346-1.258 2.448-.836 2.448.422 0-.27.9-1.538 2s-1.732 2-1.031 2c1.021 0 1.027.3.031 1.5-.685.825-.852 1.51-.372 1.522.479.012-.253.908-1.628 1.99l-2.5 1.968 22-.24 22-.24-.01-23.75c-.005-13.062-.118-91.475-.25-174.25L500 0h-29v4.441m-189 166.5c0 58.055.269 74.115 1.25 74.75.688.445 29.825 1.047 64.75 1.338 34.925.291 63.613.628 63.75.75.943.834-.073 2.221-1.628 2.221-1.032 0-2.462.705-3.177 1.566-.715.861-2.57 2.223-4.122 3.026C397.449 257.37 399.698 258 415 258h15l.25-67.25c.296-79.494.254-85.25-.649-90.066L428.909 97H282v73.941m1.736-69.797c-.293 1.296-.381 12.931-.195 25.856.185 12.925.365 29.814.398 37.532l.061 14.032 22.423-.155c20.457-.142 22.801-.338 26.75-2.232 5.79-2.779 9.352-3.537 15.327-3.259 19.952.928 50.189.408 52.5-.903 1.375-.781 3.086-1.517 3.802-1.636 1.888-.315 6.198-3.281 6.198-4.264 0-.97 5.902-.478 11 .916 1.925.527 3.84.96 4.255.963.416.003.736-12.93.712-28.741-.024-15.811-.403-28.165-.842-27.455-.888 1.436-6.125-5.589-6.125-8.215 0-2.281-4.756-2.537-57-3.063-26.675-.269-55.302-.768-63.615-1.11l-15.115-.621-.534 2.355M73.473 178c0 37.675.124 53.087.277 34.25.152-18.838.152-49.663 0-68.5-.153-18.838-.277-3.425-.277 34.25m27.876-45.75c.343 4.537.63 10.387.637 13 .012 4.079.297 4.75 2.014 4.75 1.1 0 2 .52 2 1.155 0 .691.735.49 1.829-.5 1.006-.91 3.046-1.655 4.535-1.655 1.488 0 3.729-.67 4.978-1.488 1.919-1.258 4.52-1.346 16.772-.57 7.976.506 16.329.674 18.564.374 2.477-.332 4.331-.11 4.751.57.379.613 1.532 1.114 2.563 1.114 2.093 0 3.385 2.853 2.425 5.356-.47 1.225-1.535 1.524-4.23 1.19-1.981-.246-4.136-.003-4.789.539-.653.542-1.572.874-2.043.738-.47-.137-1.755.235-2.855.826-3.438 1.846-11.239 2.474-11.823.951-.655-1.706-5.44-2.66-6.002-1.196-.464 1.21 1.235 3.175 2.825 3.264.55.031 1.552 1.131 2.227 2.444 1.068 2.08.971 2.504-.75 3.291-1.088.496-1.977 1.284-1.977 1.75 0 .466-1.012.815-2.25.777-2.061-.065-2.088-.134-.323-.825 1.781-.698 1.794-.806.177-1.427-.962-.369-2.64-.194-3.73.389-1.922 1.029-1.905 1.12.572 3.069 3.009 2.367 3.364 4.256.638 3.391-1.054-.335-2.183-.176-2.509.352-.538.87 2.655 2.256 7.925 3.44 1.236.277.759.493-1.25.565-1.787.064-3.25.454-3.249.866.001.846-7.697.757-10.001-.115-2.313-.876-34.003-1.234-34.001-.385.001.712 5.481 1.186 9.258.801.966-.098 2.014.637 2.328 1.635.315.998 1.253 3.079 2.086 4.626.859 1.593 1.254 3.85.913 5.21-.727 2.897 2.638 5.369 4.831 3.549.708-.588 2.48-1.167 3.938-1.288 3.879-.321 4.481-3.454 1.242-6.458-1.441-1.336-3.064-2.153-3.607-1.818-.543.336-.988-.342-.988-1.507 0-1.165.45-1.84 1-1.5.55.34 1 .093 1-.549 0-.738-.897-.943-2.439-.556-1.341.337-2.718.161-3.059-.391-.386-.625 1.435-1.004 4.822-1.004 4.603 0 5.523.309 5.966 2.001.288 1.101.115 1.75-.383 1.441-1.083-.669-1.184 1.597-.142 3.158.404.605 1.778 1.65 3.053 2.322 2.184 1.15 2.228 1.359.757 3.604-1.432 2.186-1.417 2.466.182 3.398.959.558 1.371 1.029.916 1.046-.454.016.53 1.171 2.187 2.566 1.658 1.395 3.155 3.711 3.327 5.147.296 2.471.661 2.63 6.813 2.971 10.059.558 10.685.702 13.17 3.018 2.228 2.076 2.702 2.123 10.83 1.067 4.976-.647 8.836-1.66 9.311-2.443.447-.736 1.242-1.073 1.767-.748.525.325.678 1.037.341 1.584-.388.626 1.488.878 5.078.681 3.131-.171 5.902-.65 6.157-1.062.49-.793-.997-1.099-3.904-.803-1.895.193-2.382-1.439-.734-2.458.559-.346.684-1.16.277-1.809-.407-.65-.752-1.856-.767-2.681-.014-.825-.588-1.455-1.276-1.4-.687.055-2.342.167-3.677.25-1.383.085-2.623.903-2.884 1.9-.344 1.317-.486 1.193-.573-.5-.088-1.715.431-2.25 2.184-2.25 1.265 0 2.872-.562 3.571-1.25 1.02-1.003 1.635-.805 3.11 1 1.012 1.238 2.832 2.25 4.046 2.25 1.714 0 2.09.446 1.683 2-.383 1.467-.03 2 1.325 2 1.016 0 2.13.457 2.475 1.016.346.559 1.124.71 1.729.336.713-.441.871-.081.448 1.022-.415 1.08-.075 1.924.931 2.31 1.844.707 3.309-1.182 2.747-3.545-.275-1.156 1.899-3.027 7.373-6.347 4.269-2.59 9.112-5.879 10.762-7.31a1613.61 1613.61 0 0 0 6.208-5.419c1.947-1.71 3.389-2.374 3.671-1.69.255.62.499.34.542-.623.069-1.538 1.228-1.75 9.579-1.75 5.667 0 9.5.404 9.5 1 0 .55-.45 1-1 1s-1 1.125-1 2.5c0 2.793 1.459 3.353 2.393.918 1.738-4.529.761-6.418-3.322-6.418-2.167 0-4.604-.676-5.436-1.508-.934-.934-1.744-1.124-2.13-.5-.344.556-4.656 1.008-9.623 1.008-5.842 0-8.78-.357-8.372-1.016a1.198 1.198 0 0 1 1.644-.389c.801.495 4.646-.966 8.739-3.321.215-.124-.144-.871-.799-1.661-.873-1.051-.891-1.621-.068-2.129 1.89-1.168-3.891-3.484-8.699-3.484-2.833 0-4.211-.379-3.8-1.044.67-1.085-1.185-3.956-2.556-3.956-.431 0-.545.913-.253 2.028.375 1.437-.527 3.055-3.094 5.549-1.993 1.935-3.624 3.127-3.624 2.648 0-.479-2.25-.838-4.999-.798-2.75.04-5 .411-5 .823-.001.412.674.75 1.499.75 3.767 0 .993 1.593-3 1.724-5.565.181-5.629-.662-.366-4.83 3.604-2.854 3.892-3.36 2.25-3.947-1.036-.371-2.165-.238-2.509.296-.343.533-2.016 1.079-3.716 1.213-1.7.134-3.759.797-4.576 1.475-.816.677-2.068 1.32-2.783 1.428-.715.109-1.862.549-2.55.978-.812.508-1.25.197-1.25-.886 0-1.252-.587-1.52-2.352-1.078-1.293.325-2.644.298-3.002-.06-.876-.876 2.319-4.313 4.009-4.313.74 0 1.345-.45 1.345-1 0-1.012-1.385-1.39-3.85-1.052-.743.102-1.054-.294-.691-.881.415-.672-.567-1.081-2.65-1.104l-3.309-.036 4.458-2.088c2.973-1.392 4.584-1.713 4.834-.964.514 1.542 3.335 1.429 3.133-.125-.361-2.786.172-3.75 2.075-3.75 1.1 0 2-.408 2-.906 0-.499-.838-.688-1.862-.42-3.409.892-3.331-2.411.085-3.602 3.685-1.285 4.577-.753 2.67 1.591-1.227 1.507-1.184 1.633.357 1.056 1.182-.443 1.75-.168 1.75.848 0 1.203.407 1.285 2.039.412 1.122-.6 2.809-1.014 3.75-.92 7.959.797 13.614-1.128 7.125-2.426-3.007-.602-3.784-3.401-.804-2.895.772.131 2.975-1.106 4.897-2.748 1.921-1.642 2.904-2.986 2.184-2.988-.72-.001-1.031-.452-.691-1.002.34-.55 1.068-1 1.618-1s.739.422.421.938c-.327.528 1.224.912 3.556.88 2.275-.031 3.714-.341 3.198-.687-3.151-2.117-1.98-3.985 4.633-7.387 3.727-1.916 8.98-4.781 11.675-6.364l4.899-2.88-18-.625c-9.9-.344-37.524-.682-61.387-.75L100.725 124l.624 8.25M223.5 193.773c-1.65.95-3.347 2.267-3.772 2.928-1.655 2.574-3.842 4.192-5.043 3.732-.693-.266-1.324.313-1.406 1.292-.083.976-.45 2.981-.818 4.454-.614 2.468-.403 2.704 2.686 3 8.041.77 11.484-.165 12.961-3.518 1.085-2.465 1.998-3.152 4.142-3.122 2.516.036 2.75-.278 2.75-3.691 0-3.796-.625-4.683-3.746-5.319-.965-.196-2.429-.61-3.254-.92-.825-.31-2.85.214-4.5 1.164m-35.833 21.894C185.639 217.694 189.874 218 220 218c28.667 0 33-.197 33-1.5 0-1.302-4.259-1.5-32.333-1.5-17.784 0-32.634.3-33 .667m-57.471 31.091c-31.517.142-57.067.641-56.778 1.11.669 1.082 192.392.142 195.082-.957 1.1-.449-16.675-.725-39.5-.614-22.825.112-67.287.319-98.804.461M1 327.031V349h23.622c20.885 0 23.479-.174 22.378-1.5-.997-1.201-.988-1.5.044-1.5 1.848 0 .601-.991-1.838-1.46-2.462-.474-6.32-4.093-5.373-5.04.367-.367.003-.517-.809-.333-.901.203-1.611-.55-1.822-1.932-.19-1.245-.766-2.004-1.281-1.686-.514.318-1.194-.097-1.511-.922-.316-.826-1.168-1.273-1.892-.996-1.873.719-3.05-1.661-1.396-2.824.961-.675.52-.781-1.456-.348-1.843.404-2.609.258-2.191-.419.354-.572.134-1.04-.487-1.04-1.761 0-3.699-2.368-3.189-3.898.256-.766.004-1.098-.565-.747-.564.349-2.23.01-3.701-.753-1.77-.919-2.228-1.567-1.354-1.916.874-.349.729-.555-.429-.607-.962-.043-1.75-.702-1.75-1.464s-1.238-2.181-2.75-3.153c-2.85-1.832-9.248-8.476-9.249-9.605-.001-.354-.676-.902-1.501-1.219-1.305-.501-1.5 2.277-1.5 21.393" fill="#d3d3d3" fill-rule="evenodd"/></svg>