<svg xmlns="http://www.w3.org/2000/svg" width="500" height="644"><path d="M11 1.441c0 .793.492 1.745 1.094 2.117.602.372.889 1.749.639 3.059-.324 1.694.01 2.406 1.156 2.462 1.035.051 1.164.259.361.583-.687.278-1.25 2.042-1.25 3.921 0 3.42-1.93 4.967-2.079 1.667-.048-1.056-.28-1.252-.585-.494-.279.691-.922 1-1.428.687-.507-.313-1.192.134-1.522.994C7.056 17.296 5.934 18 4.893 18S3 18.675 3 19.5 2.325 21 1.5 21c-2.062 0-2.062 6.57 0 7.362C3.497 29.128 3.421 31 1.393 31c-1.055 0-1.398.544-1 1.582.334.87.607 1.995.607 2.5 0 .505.675.918 1.5.918s1.507-.562 1.515-1.25c.008-.687.57-.292 1.25.878a301.04 301.04 0 0 0 2.507 4.226c1.152 1.898 1.01 2.166-1.5 2.829-1.525.402-3.423.598-4.218.435-1.211-.247-1.231-.037-.128 1.293.764.92.881 1.589.28 1.589-.572 0-1.266-.562-1.544-1.25-.385-.954-.523-.937-.583.071-.121 2.019 2.631 4.482 3.262 2.92.295-.731.534-.522.58.509.117 2.584-.256 3.21-1.921 3.231-1.871.024-2.682 4.513-.82 4.534.973.012.925.271-.18.985-1.295.837-1.27.971.18.985.96.008 1.818-.906 2-2.133.346-2.321 3.29-4.716 4.415-3.591.379.38.063 1.455-.702 2.388-1.253 1.527-1.155 1.637.969 1.089 2.197-.567 2.32-.386 1.752 2.576-.437 2.276-.33 2.757.372 1.686 1.165-1.777 1.407 3.787.386 8.891-.504 2.52-.9 2.916-2 2.003C7.305 70.008 7 70.116 7 71.378c0 .892-.562 1.629-1.25 1.637-.858.011-.794.304.202.934.799.506 1.811.697 2.25.426 1.463-.904.821 2.459-.773 4.054C6 79.857 6 80 7.429 80 8.354 80 9 80.856 9 82.083c0 1.245-.503 1.899-1.25 1.625-.687-.252-1.152-.922-1.032-1.488.362-1.707-2.485-2.206-3.767-.661-.954 1.15-.88 1.441.368 1.441 2.189 0 2.975 1.665 1.766 3.742-.566.971-1.038 1.198-1.055.508-.047-1.936-2.452-.991-3.18 1.25C-.181 91.669-.098 99 .969 99c.532 0 .709-.675.393-1.5-.317-.825-.076-1.5.534-1.5.726 0 .927 1.528.581 4.413-.49 4.076-.373 4.373 1.524 3.876 1.567-.409 1.895-1.041 1.383-2.655-.59-1.859-.475-1.954.94-.78 2.517 2.089.238 6.959-2.725 5.822-.779-.299-1.817.506-2.453 1.903-1.124 2.466.915 3.75 2.327 1.465.704-1.139 3.527-.241 3.527 1.122 0 .524-.449.674-.999.335-.549-.339-.927.196-.841 1.191.319 3.681-.2 5.308-1.695 5.308-1.17 0-1.305-.43-.57-1.803.722-1.349.532-2.074-.753-2.876-1.53-.956-1.742-.522-1.937 3.964-.217 4.99-.2 5.021 1.794 3.216 2.186-1.978 2.264-1.957 3.705.999 1.149 2.356-.514 6.304-2.487 5.906-.697-.141-.806-.027-.242.252.564.28.989 1.484.946 2.675-.043 1.192-.314 1.581-.601.864C2.7 129.65.084 132.6.032 134.905c-.024 1.064.455.965 1.974-.411 1.104-.998 2.176-1.63 2.384-1.405.637.694-1.269 4.911-2.219 4.911-.492 0-.679 1.125-.416 2.5.263 1.375 1.101 2.5 1.862 2.5.76 0 1.383.675 1.383 1.5s-.45 1.5-1 1.5-1 .477-1 1.059.45.781 1 .441 1-.093 1 .549c0 .743-.9.942-2.473.547-1.973-.495-2.352-.303-1.871.949.331.864 1.219 1.333 1.973 1.044.793-.304 1.371.118 1.371 1.001 0 .841-.45 1.25-1 .91-.55-.34-1 .051-1 .868s.788 1.691 1.75 1.943c1.62.423 1.622.466.031.573-1.102.074-1.51.658-1.138 1.627.415 1.082.121 1.336-1.032.893C.435 157.953 0 158.371 0 159.952c0 1.383.418 1.908 1.155 1.453.717-.444.882-.275.436.448-.402.65-.029 1.425.846 1.761 2.11.81 1.972 2.121-.299 2.842-1.64.521-1.876 1.776-1.984 10.53-.11 9.003.042 9.888 1.612 9.395 1.612-.506 1.616-.447.063.84-1.505 1.246-1.673 5.028-1.691 38.081-.019 32.614.429 39.835 2.2 35.448.301-.747.536-.545.583.5.043.962.556 1.75 1.138 1.75.582 0 .781-.45.441-1-.992-1.606 2.207-1.15 3.915.557 1.156 1.157 2.011 1.294 3.321.531.97-.565 1.416-1.041.991-1.058-.425-.016-.039-1.151.859-2.521.898-1.371 1.931-2.308 2.295-2.083 1.069.661.427 7.498-.849 9.035-.881 1.062-.889 1.938-.032 3.539.796 1.488.824 2.507.093 3.388-.731.881-.709 1.596.075 2.38.828.828.796 1.904-.12 4.116-.682 1.647-.946 3.472-.585 4.056.36.583.178 1.06-.404 1.06-.582 0-1.059-1.125-1.059-2.5s-.477-2.5-1.059-2.5-.781-.45-.441-1 .167-1-.384-1c-.55 0-.82-.941-.598-2.092.304-1.579.014-1.942-1.184-1.482-.873.334-2.108.176-2.744-.352-2.66-2.207-3.83.446-2.222 5.037.845 2.414 1.558 3.796 1.584 3.072.031-.857.747-1.096 2.048-.683 1.192.378 2 .18 2-.492 0-.619.45-.848 1-.508 2.535 1.567-1.06 5.541-4.25 4.698-.412-.109-.75.415-.75 1.163 0 .902.929 1.246 2.75 1.019 2.107-.263 2.279-.172.735.389-2.183.792-2.708 3.323-.82 3.953.641.213 1.459-.537 1.818-1.667.358-1.13 1.071-2.055 1.584-2.055 1.629 0 1.007 2.623-1.067 4.5-1.1.995-2 2.64-2 3.655C9 297.17 8.55 298 8 298s-1 .702-1 1.559-.45 1.281-1 .941c-.55-.34-1-.141-1 .441S5.675 302 6.5 302s1.5.477 1.5 1.059-.45.781-1 .441c-2.141-1.324-.861 3.725 1.5 5.912 2.406 2.231 3.554 5.357 1.5 4.088-1.424-.88-1.237.208.487 2.84 1.234 1.883 1.277 2.826.25 5.545-1.096 2.904-1.02 3.435.667 4.668 1.533 1.122 1.624 1.499.467 1.943-.82.315-1.372 1.719-1.288 3.277.081 1.5-.243 3.487-.72 4.416-.52 1.011-.474 1.933.114 2.297.627.387.571 1.265-.155 2.428-1.246 1.995-.4 5.561 1.099 4.635 1.642-1.015 1.745 3.847.143 6.743-1.032 1.864-1.198 3.028-.502 3.5.574.39 1.02 2.277.991 4.196-.042 2.763.338 3.49 1.83 3.5 2.422.016 4.825 8.782 4.335 15.813-.235 3.374.066 5.063.964 5.407.719.276 1.077.873.796 1.328-.281.454-.053 1.108.506 1.454 1.559.963 1.206 5.5-.478 6.146-.822.316-1.277.925-1.011 1.355.266.431-.187 1.338-1.006 2.018-1.827 1.516-2.135-1.933-.454-5.075.819-1.53.708-1.934-.532-1.934-.862 0-1.974 1.012-2.472 2.25-.623 1.55-.924 1.738-.968.607-.034-.904-.789-1.921-1.676-2.262-1.253-.481-1.355-.929-.458-2.01.882-1.062.849-1.513-.137-1.909-.822-.329-.655-.547.458-.597 2.375-.107 2.217-1.796-.241-2.576-2.821-.895-3.88.082-3.521 3.251.171 1.51-.102 3.251-.606 3.869-1.2 1.471-.054 4.377 1.725 4.377.766 0 1.4.563 1.408 1.25.011.846.355.765 1.066-.25.808-1.155.905-.925.419 1-.424 1.681-.328 2.063.295 1.166.738-1.062 1.069-.963 1.623.481.386 1.006.226 1.972-.361 2.167-.581.194-1.093 1.103-1.136 2.019-.049 1.04-.269 1.197-.583.417-.891-2.208-1.835-1.333-1.947 1.805-.078 2.188.275 2.903 1.25 2.529 2.005-.769 1.651.842-.641 2.916-1.1.995-1.964 2.528-1.921 3.405.051 1.034.256 1.155.583.345.998-2.472 1.928-1.182 1.541 2.136-.472 4.04 1.251 7.761 3.24 6.998 2.555-.981 8.623 6.572 8.364 10.412-.124 1.839-.585 3.567-1.024 3.838-.439.271-.12 1.172.709 2.001.83.829 1.508 2.431 1.508 3.559 0 1.71.25 1.844 1.5.806.862-.715 1.5-.814 1.5-.231 0 .558 1.125 1.297 2.5 1.642 2.564.643 3.492 2.577 1.25 2.604-.935.012-.914.229.085.862 1.014.643.834.976-.75 1.391-1.635.427-2.088.079-2.1-1.612-.012-1.714-.206-1.856-.943-.69-.588.93-.538 1.937.138 2.75.759.916.743 1.284-.058 1.284-.617 0-1.122-.477-1.122-1.059s-.457-.776-1.016-.431c-.559.346-.728 1.095-.375 1.666.413.669-.144.789-1.569.337-2.167-.688-2.177-.651-.51 1.893 1.86 2.838 3.075 3.277 3.721 1.344.23-.687.655-.012.945 1.5.29 1.512.139 2.75-.335 2.75-.473 0-.861.675-.861 1.5s.45 1.5 1 1.5 1 1.827 1 4.059c0 2.451.396 3.814 1 3.441.55-.34 1-.141 1 .441S28.495 472 27.878 472c-.776 0-.738.464.122 1.5.821.989.874 1.5.154 1.5-.6 0-.85.629-.554 1.399.295.769.048 1.7-.548 2.069-.597.369-.751 1.202-.342 1.851.408.65.831 2.684.939 4.521.234 3.95.578 4.393 3.521 4.545 2.22.114 2.455.932 1.972 6.865-.204 2.513-2.777 2.159-3.631-.5-.561-1.745-.822-1.889-1.163-.639-.625 2.282-5.333 4.304-6.742 2.895-.786-.786-.674-1.352.402-2.032.821-.519 1.122-.95.671-.959-.452-.008-.115-.722.75-1.586.864-.865 1.571-2.177 1.571-2.917 0-.74.562-1.572 1.25-1.85.961-.388.948-.522-.059-.583-.72-.043-1.031-.529-.691-1.079.34-.55.184-1-.347-1-.531 0-.744-1.012-.473-2.25.364-1.659.237-1.888-.481-.872-.537.758-1.476 1.069-2.087.691-1.602-.99-1.368-3.534.388-4.207 2.163-.83 1.86-2.124-1.151-4.914-1.804-1.672-2.733-3.654-2.907-6.203-.14-2.06-.297-4.334-.349-5.054-.141-1.984-2.093-.342-2.093 1.761 0 1.009-.675 2.093-1.5 2.41-1.772.68-2.053 6.685-.39 8.348.813.813.618 1.942-.729 4.222-1.601 2.711-1.941 2.884-2.631 1.341-.621-1.392-.699-1.289-.364.478.235 1.239.019 2-.479 1.691-.499-.308-.907.168-.907 1.058s.45 1.34 1 1c.55-.34 1.033-.254 1.074.191.041.445.276 1.902.521 3.237.246 1.336.002 2.703-.542 3.039-.544.337-1.097 2.025-1.228 3.753-.132 1.728-.564 2.941-.96 2.696-.739-.456-2.42 3.484-2.063 4.834.109.413-.365.757-1.052.765-.833.011-.75.339.25.985 1 .646 1.083.974.25.985-.759.009-1.25 1.39-1.25 3.515 0 1.925-.502 3.5-1.117 3.5-.617 0-.887.878-.602 1.965.341 1.304-.081 2.154-1.253 2.526C.035 518.124-.941 535 1.015 535c.542 0 1.021-.788 1.064-1.75.087-1.926.437-1.153 1.344 2.965C4.441 540.838 7 538.604 7 533.093c0-2.581.562-5.289 1.25-6.018 1-1.06 1-1.417 0-1.783-.687-.252-1.243-1.209-1.235-2.125.014-1.442.147-1.464.985-.167.57.883.976 1.014.985.32.008-.65 1.028-1.325 2.265-1.501 1.425-.203 2.199-.962 2.111-2.069-.076-.963.486-1.75 1.25-1.75.877 0 1.389 1.107 1.389 3 0 2-.5 3-1.5 3-1.639 0-2.026 3.623-.623 5.835.645 1.018.972.849 1.38-.711.458-1.751.966-1.92 3.538-1.183 1.929.553 3.385.479 4.071-.207.758-.758 1.195-.657 1.505.349.241.779.68 2.176.977 3.103.488 1.525-2.687 6.826-4.58 7.647-.422.184-.768.998-.768 1.809 0 .812-.485 1.177-1.077.811-.707-.438-.922.316-.626 2.196.475 3.01-1.722 6.443-2.604 4.072-.723-1.943-2.975 4.454-2.799 7.954.087 1.746-.276 3.443-.806 3.771-.531.328-.794 1.487-.584 2.575.21 1.088-.03 1.979-.532 1.979-.503 0-1.743 1.809-2.757 4.02-1.827 3.987-3.215 4.338-3.215.813C5 567.825 4.325 567 3.5 567s-1.5-.675-1.5-1.5-.467-1.5-1.038-1.5c-.662 0-.933 3.342-.75 9.25.21 6.748.626 9.182 1.538 9 .688-.137 1.25.628 1.25 1.7 0 1.073.788 2.398 1.75 2.944 1.614.915 1.624 1.121.13 2.634-1.5 1.519-1.673 1.434-2.319-1.141-1.364-5.434-2.518-.133-2.474 11.363C.13 610.991.132 611 2.565 611c1.339 0 2.435.45 2.435 1s.675 1 1.5 1 1.493.788 1.485 1.75c-.013 1.496-.157 1.532-.985.25-.862-1.333-.975-1.333-1.016 0-.041 1.289-.219 1.276-1.266-.087-3.319-4.326-5.989-.386-3.743 5.522.634 1.667.634 2.565 0 2.565-.536 0-.975.9-.975 2 0 1.111.667 2 1.5 2 1.934 0 1.934 2.395 0 4-1.023.849-1.5 3.119-1.5 7.135v5.889l78.25-.399c43.038-.22 79.15-.514 80.25-.653 1.1-.139 5.262.1 9.25.531 6.377.69 7.25.586 7.25-.859 0-.904.45-1.644 1-1.644s1 .45 1 1 .675 1 1.5 1 1.5-.83 1.5-1.845c0-1.015.823-2.59 1.829-3.5 2.05-1.855 3.635-2.215 2.636-.598-1.042 1.686.43 5.943 2.054 5.943.815 0 1.481-.501 1.481-1.113 0-.669 1.199-.938 3-.674 2.047.301 3 .019 3-.886 0-1.203-1.255-1.76-3.25-1.445-.412.065-.75-.557-.75-1.382 0-1.594 1.185-1.826 4.625-.902 2.575.691 2.955 5.074.5 5.753-.894.248.998.308 4.203.134 4.241-.231 6.194-.816 7.169-2.15.737-1.007 1.669-1.502 2.072-1.099s1.332-.048 2.063-1.002c1.164-1.517 1.455-1.547 2.334-.234.892 1.333 1.008 1.333 1.049 0 .035-1.145.297-1.068 1.107.325.584 1.004.817 2.07.517 2.369-.299.299.085 1.173.854 1.942 1.731 1.73 124.548 1.947 127.765.226 1.255-.672 2.275-.664 3.103.023 1.235 1.025 16.962.651 18.736-.445 1.734-1.072.886-2.57-1.097-1.94-1.419.45-2 .18-2-.933 0-.862.675-1.567 1.5-1.567s1.5-.45 1.5-1 .702-1 1.559-1 1.281-.45.941-1c-.34-.55-.214-1 .28-1 .495 0 1.48-1.237 2.191-2.75.744-1.586 1.483-2.221 1.743-1.5.249.688 1.428 1.286 2.619 1.329 1.192.043 1.586.312.875.597-.992.398-1.021.844-.127 1.921.887 1.069.883 1.403-.018 1.403-.649 0-.898.457-.553 1.016 1.003 1.623 2.713-.054 2.171-2.129-.743-2.839.425-2.302 4.569 2.102 4.532 4.816 4.526 4.779.608 4.203-2.177-.319-2.927-.112-2.441.674.386.624.224 1.134-.358 1.134s-1.059.477-1.059 1.061c0 1.564 14.004.55 15.016-1.087.643-1.04 1.108-.993 2.337.236 2.129 2.129 6.553 1.193 6.362-1.345-.119-1.577-.7-1.834-3.18-1.409-1.669.286-2.472.263-1.785-.051s1.25-1.262 1.25-2.105c0-1.102.633-1.364 2.25-.93 1.238.331 2.869.609 3.625.616.994.01 1.208.848.773 3.022-.582 2.91-.529 2.961 1.625 1.577 1.871-1.202 2.423-1.214 3.452-.076.982 1.085.883 1.446-.5 1.816-.949.254-.021.397 2.062.318 3.126-.118 3.76-.492 3.639-2.143-.304-4.129.074-5.618 1.244-4.895.787.486.961.178.531-.941-.351-.915-.202-1.664.33-1.664.533 0 .969.436.969.969 0 .532.675.709 1.5.393.942-.362 1.5.01 1.5 1 0 .989.558 1.361 1.5 1 .909-.349 1.5-.004 1.5.876 0 3.728 3.655 5.063 14.499 5.299 9.63.208 12.218-.358 9.452-2.067-1.541-.953.582-3.148 3.603-3.725 1.372-.262 2.746-.069 3.054.43.308.498 1.395.641 2.415.318 1.246-.396 2.215.083 2.951 1.459 1.263 2.359 4.026 2.757 4.026.579 0-.957.578-1.247 1.661-.831 1.311.503 1.543.189 1.103-1.495-.32-1.222.038-2.626.839-3.291.768-.637 1.397-.824 1.397-.414s.67.189 1.488-.49c1.202-.998 1.603-.937 2.083.314.365.952 1.238 1.309 2.262.926 1.456-.545 1.492-.409.284 1.075-1.058 1.301-1.703 1.434-2.75.565-1.087-.902-1.367-.678-1.367 1.095 0 1.504.457 2.054 1.406 1.689 1.587-.608 4.981 2.606 3.896 3.691-.386.386 4.675.574 11.248.418l11.95-.283.042-28.5c.024-15.675-.113-26.362-.304-23.75-.374 5.111-.606 5.415-2.668 3.5-1.124-1.043-1.037-1.857.523-4.923 1.357-2.666 1.537-3.784.659-4.076-.894-.298-.805-1.035.344-2.827 1.337-2.087 1.522-7.084 1.331-35.924-.122-18.425-.268-43.336-.324-55.357-.09-18.99-.3-21.781-1.603-21.281-1.541.591-2.043-.485-.804-1.724 1.265-1.266 1.15-3.638-.177-3.638-.718 0-1.564-.675-1.881-1.5-.339-.885-.012-1.5.8-1.5.916 0 1.186-.72.811-2.156-.387-1.478-.2-1.932.593-1.441.644.397 1.202.133 1.258-.594.055-.72.477-.184.938 1.191.702 2.091.809 1.845.651-1.5-.146-3.086-.563-3.939-1.825-3.732-2.703.442-2.798-2.117-.271-7.334 2.308-4.768 3.644-16.937 1.484-13.525-.49.775-.618 2.125-.284 3 .552 1.445.393 1.449-1.737.039-2.16-1.429-4.113-7.719-1.99-6.407.514.317.934-.327.934-1.432s.787-2.468 1.75-3.029c1.567-.913 1.577-1.022.094-1.05-1.716-.031-1.49-4.03.227-4.03.82 0 1.076-16.856 1.004-66-.043-29.749-2.017-37.999-9.825-41.067-1.238-.486-2.25-1.393-2.25-2.015 0-.623.675-.873 1.5-.556.825.316 1.5.125 1.5-.425s-.647-1.248-1.437-1.551a1.534 1.534 0 0 1-.893-1.969c.32-.834-.072-1.417-.955-1.417-.824 0-1.785-1.143-2.136-2.541-.876-3.49-2.351-2.263-1.799 1.497.255 1.733-.002 3.044-.597 3.044-.574 0-1.188-.977-1.363-2.172-.176-1.194-.871-2.353-1.544-2.574-1.769-.583.54 5.738 2.35 6.433.756.29 1.374 1.18 1.374 1.979 0 .799.337 1.248.75.998.412-.25 1.33.174 2.039.941.71.767.957 1.395.55 1.395-.406 0-.199.54.461 1.2.66.66 1.2 2.01 1.2 3 0 .99.824 2.624 1.832 3.632 1.102 1.102 1.87 3.391 1.929 5.75.084 3.421-.053 3.672-1.082 1.977-.649-1.068-2.171-2.98-3.384-4.25-1.212-1.27-1.967-2.309-1.678-2.309.289 0-.149-.675-.974-1.5-2.573-2.573-3.957-1.834-3.276 1.75l.618 3.25-1.971-2.5-1.97-2.5-.022 2.25c-.012 1.238.373 2.25.856 2.25.482 0 .761 1.371.618 3.047-.143 1.676.361 3.667 1.119 4.426.759.758 1.113 2.199.788 3.203-.493 1.519-.411 1.573.487.324.923-1.283 1.082-1.23 1.095.367.01 1.315-.522 1.726-1.802 1.391-1.636-.428-1.823.284-1.867 7.137-.027 4.187-.382 9.13-.789 10.984-.486 2.211-.39 3.154.279 2.741.561-.347 1.323-2.426 1.694-4.62s1.033-4.211 1.472-4.482c.438-.272 1.103-2.533 1.477-5.025.374-2.492 1.04-4.309 1.481-4.036.441.272.586 1.624.323 3.002-.264 1.379-.153 3.303.246 4.274 2.466 6.008.544 24.267-2.555 24.267-.511 0-.487-1.071.056-2.5.758-1.993.64-2.5-.584-2.5-.844 0-1.285.403-.981.895.305.493-.136 1.16-.979 1.483-.868.334-1.778-.054-2.101-.895-.351-.915-1.893-1.483-4.028-1.483-1.902 0-4.365-.485-5.472-1.078-1.777-.95-1.976-.803-1.685 1.25.219 1.544.998 2.328 2.314 2.328 1.093 0 2.136.786 2.323 1.75.253 1.301-.32 1.75-2.234 1.75-1.415 0-2.573.477-2.573 1.059s.399.812.887.511c.487-.301 1.442.122 2.122.941.68.819 1.829 1.489 2.554 1.489.726 0 1.593.443 1.928.985.732 1.185-5.522.179-6.941-1.117-.522-.478-1.837-.868-2.921-.868-1.084 0-2.764-.717-3.732-1.593-3.34-3.022-11.593-2.415-14.075 1.036-.416.578-1.694.481-3.297-.25-3.49-1.59-4.581-1.504-3.887.307.424 1.105-.177 1.531-2.281 1.616-1.713.07-2.151.3-1.095.576.969.253 1.505.875 1.191 1.384-.314.508-.094.924.488.924s1.059-.52 1.059-1.155c0-.733.64-.597 1.75.37.962.838 2.384 1.296 3.159 1.018.956-.343 1.217-.003.81 1.057-.449 1.17.56 1.958 4.019 3.136 6.108 2.082 10.036 2.101 5.762.029-2.984-1.446-2.973-1.452 2-.996 2.75.252 6.35.731 8 1.065 2.853.578 2.905.531 1.059-.958-1.912-1.542-1.91-1.566.127-1.566 1.138 0 2.629.675 3.314 1.5.928 1.118.944 1.5.063 1.5-.649 0-.903.45-.563 1 .34.55 1.64 1 2.89 1 1.468 0 2.773.973 3.689 2.75.78 1.512 2.012 3.127 2.739 3.589 1.435.91-1.123 3.565-3.497 3.629-2.168.059-4.65-3.147-3.153-4.072 1.066-.658 1.073-1.055.041-2.087-1.033-1.033-1.385-.851-1.858.958-.708 2.706-.541 2.697-4.577.237-6.053-3.691-7.727-2.486-2.774 1.996 2.431 2.2 4.045 4 3.588 4-.458 0-.309.631.331 1.403.895 1.077.865 1.505-.127 1.846-.78.268-.006 1.232 1.954 2.434 4.856 2.978 2.778 3.539-2.571.695-2.555-1.358-4.793-2.024-4.974-1.48-.182.544-.972.743-1.757.442-2.515-.965-3 2.791-.611 4.726 1.353 1.095 2.167 2.884 2.167 4.761 0 1.653.562 3.233 1.25 3.511.747.301.545.536-.5.583-1.053.048-1.75.87-1.75 2.067 0 1.439-.591 1.923-2.14 1.75-1.177-.131-2.339.325-2.583 1.012-.244.687.221 1.25 1.033 1.25.812 0 1.718.632 2.015 1.404.736 1.918-.411 6.075-1.286 4.659-.459-.743-1.449-.442-3.014.916-2.307 2-2.309 2.021-.199 2.021 1.903 0 2.011.264 1.006 2.469-.618 1.357-1.418 2.287-1.776 2.066-.358-.222-1.305.01-2.104.516-.887.561-.991.924-.268.934.723.009 1.002 1.014.718 2.583-.365 2.014-.081 2.529 1.316 2.385 5.092-.524 5.64-.148 3.825 2.621-2.857 4.36-2.852 6.542.013 5.822 1.68-.421 2.466-.188 2.514.746.039.747.439.458.89-.642.761-1.856.9-1.796 1.937.834.615 1.559.863 3.246.551 3.75-.311.504-.063.916.552.916s.835.457.49 1.016c-.346.559-1 .787-1.454.506-.455-.281-1.11.229-1.457 1.134-.557 1.449-.914 1.378-3.02-.6l-2.388-2.244-1.235 2.307-1.234 2.307-.965-2.463-.965-2.463-.969 2.75c-.989 2.804-2.791 3.763-2.818 1.5-.011-.883-.278-.835-.91.162-.747 1.182-1.194 1.111-2.734-.428-1.788-1.788-1.851-1.787-2.205.049-.2 1.04.137 2.058.75 2.262.613.205 1.114 1.276 1.114 2.382 0 1.165.836 2.229 1.989 2.53 1.094.286 1.742.919 1.441 1.407-.302.487-.071.886.511.886 1.258 0 1.362 1.975.199 3.808-.539.849-1.759 1.075-3.478.643-1.456-.365-2.419-1.035-2.139-1.489.633-1.023-.197-1.506-4.023-2.339l-3-.654 2.25 1.926c1.238 1.059 2.25 2.443 2.25 3.074 0 .632.399.902.887.601.487-.301 1.442.122 2.122.941 1.012 1.219.929 1.489-.458 1.489-1.204 0-.613 1.019 2.049 3.529 2.875 2.712 3.468 3.803 2.562 4.709-.907.907-1.539.669-2.728-1.029-.851-1.215-2.183-2.209-2.959-2.209-.776 0-2.082-1.238-2.903-2.75-1.064-1.961-1.503-2.248-1.532-1-.022.962-.592 1.637-1.266 1.5-1.566-.319-2.284 4.14-.891 5.533.735.735 1.244.551 1.691-.616.997-2.597 3.426-2.006 3.426.833 0 1.375-.477 2.5-1.059 2.5s-.8.419-.484.931c.317.512.068 1.245-.552 1.628-.621.383-1.521.077-2.001-.681-.481-.758-.88-.985-.889-.506-.008.48-.69.313-1.515-.372-1.234-1.024-1.5-.942-1.5.461 0 2.871-2.184 1.179-4.853-3.759-1.394-2.58-2.797-4.269-3.116-3.752-.645 1.043-2.865.91-4.781-.287-.688-.43-1.25-.331-1.25.219s.481 1.297 1.068 1.66c.588.363.832 1.275.544 2.027-.289.752-.145 1.601.318 1.888.463.286 1.077-.376 1.364-1.472.779-2.979 3.206-1.487 4.996 3.072 1.314 3.345 1.334 3.943.13 3.943-.781 0-1.42-.505-1.42-1.122 0-.772-.473-.73-1.512.132-1.861 1.545-.247 3.99 2.634 3.99 1.428 0 1.878.733 1.878 3.059 0 1.785.417 2.802 1 2.441.55-.34 1 .264 1 1.341 0 2.085-6.376 2.978-7.562 1.059-.306-.495-.094-.9.472-.9.565 0 .768-.675.452-1.5-.317-.825-1.483-1.5-2.591-1.5-1.693 0-1.813.244-.751 1.524 1.534 1.848.432 3.328-1.237 1.659-1.496-1.496-4.133-1.558-3.217-.076.457.739.004.891-1.36.458-1.514-.48-2.213-.119-2.693 1.393-.903 2.847-2.513 2.554-2.513-.458 0-1.375-.499-2.5-1.109-2.5-.679 0-.952 1.355-.703 3.484.224 1.917-.065 3.658-.641 3.87-.703.258-.652 1.055.156 2.426.967 1.641.931 2.147-.183 2.574-1.718.659-1.349 22.228.438 25.567.894 1.671.828 2.224-.316 2.663-1.452.557-1.635 2.757-.338 4.054 1.069 1.068.825 2.56-.304 1.862-.55-.34-1-.168-1 .382s.45 1.278 1 1.618c.55.34 1 1.491 1 2.559s.661 1.941 1.469 1.941c.868 0 1.242.589.915 1.443-.421 1.095-1.152 1.215-3.034.5-3.101-1.179-3.35-1.175-3.35.057 0 .55.707 1 1.571 1 2.869 0 4.815 2.857 3.666 5.38-.566 1.242-.794 3.577-.508 5.189.428 2.406.284 2.707-.804 1.681-1.864-1.758-7.426-1.556-8.988.326-1.084 1.307-1.063 1.732.127 2.485 1.08.683.804.912-1.114.924-1.402.008-2.977-.377-3.5-.856-.522-.479-2.3-1.161-3.95-1.515-2.679-.576-2.813-.497-1.25.731.963.756 1.75 2.046 1.75 2.866 0 1.01 1.046 1.496 3.25 1.509 1.788.011 4.15.079 5.25.151 1.1.072 4.297 2.335 7.105 5.028 4.428 4.248 7.85 5.501 7.48 2.739-.448-3.353.049-4.525 1.665-3.919 1.497.561 1.563.425.451-.943-1.928-2.373.257-3.177 3.271-1.203 3.128 2.05 3.172 1.636-.722 6.93-3.8 5.167-5.011 5.371-11.447 1.927-4.258-2.278-5.227-2.444-8.545-1.462-4.855 1.437-13.959 1.53-16.502.169-1.096-.587-2.282-.778-2.635-.425-1.49 1.491-11.621 1.187-11.621-.347 0-1.045-.607-1.307-2-.865-1.201.381-2 .18-2-.504 0-.626-.675-1.814-1.5-2.639-1.782-1.782-2.049-4.814-.33-3.752.801.495.955.164.489-1.052-.507-1.32-.294-1.627.83-1.196 1.209.464 1.511-.312 1.511-3.888 0-4.913-1.55-5.869-4-2.469-.793 1.1-2.355 1.968-3.471 1.93-2.017-.07-2.017-.076-.029-.923 1.429-.61.495-.838-3.276-.799-3.538.037-5.871-.483-7.079-1.577-2.267-2.052-3.761-2.074-4.531-.067-.33.86-1.391 1.434-2.357 1.275-2.815-.463-4.408 1.009-3.311 3.06.523.978.697 2.75.386 3.939-.632 2.419-3.332 2.981-3.332.693 0-.894-.586-1.243-1.5-.893-.825.317-1.5.078-1.5-.531s.623-1.107 1.383-1.107c3.166 0 2.701-4.253-.763-6.98-1.782-1.403-1.842-1.305-1.143 1.875.566 2.578.445 3.175-.525 2.576-.819-.507-1.011-.376-.547.374.392.635.207 1.155-.412 1.155-2.064 0-4.993-2.053-4.993-3.5 0-1.659-3.608-3.86-4.959-3.025-.505.312-1.283-.082-1.73-.874-.446-.793-2.161-1.739-3.811-2.102-2.372-.523-2.686-.422-1.5.481 1.196.91.891 1.03-1.5.593-1.65-.301-4.687-.645-6.75-.765-2.062-.119-3.787-.687-3.831-1.262-.045-.575-.655.253-1.356 1.841-.79 1.788-1.543 2.454-1.978 1.75-.387-.625-1.576-1.137-2.644-1.137-1.186 0-1.941-.684-1.941-1.759 0-1.881-3.544-4.641-4.89-3.809-.445.275-1.439-.684-2.209-2.13-1.051-1.972-1.103-2.729-.207-3.03.656-.221.945-1.048.642-1.839-1.008-2.626.491-5.994 2.742-6.164 3.022-.228 3.408-.926 1.541-2.793-4.479-4.479 3.498-6.058 11.199-2.217 3.023 1.509 3.182 1.492 3.182-.336 0-2.332 1.849-2.511 3.442-.333 1.063 1.454 1.277 1.454 2.483 0 1.114-1.342 1.067-1.59-.303-1.59-.892 0-1.656-.337-1.699-.75-.042-.413-.227-1.536-.41-2.496-.34-1.771.894-3.032 3.326-3.401.937-.141 1.16.515.742 2.181-.529 2.105-.134 2.509 3.368 3.452 2.182.588 4.294 1.598 4.694 2.245.412.667 1.277-1.184 1.998-4.277 1.295-5.556 2.594-16.477 1.69-14.204-.781 1.961-2.331 1.462-2.331-.75 0-2.942-1.674-2.434-2.473.75-.38 1.513-.638 2.879-.573 3.036.065.157-.574.976-1.418 1.821-.845.845-1.529 2.066-1.521 2.714.009.695.421.563 1.003-.321.755-1.146.887-.91.559 1-.236 1.375-.462 3.063-.503 3.75-.044.746-.955.369-2.261-.937-1.408-1.408-1.765-2.329-1-2.584 2.339-.78 1.118-1.73-2.316-1.804-1.923-.041-3.497.243-3.497.631 0 .389-1.423 2.098-3.162 3.798l-3.161 3.091 2.411 1.053c2.086.911 1.882.987-1.507.563-2.156-.269-4.237-1.004-4.625-1.632-.464-.75-.922-.793-1.335-.124-.937 1.515-5.553.705-7.457-1.308-1.564-1.653-1.529-1.727.586-1.222 1.554.372 2.25.085 2.25-.928 0-.806-.412-1.211-.915-.9-.503.311-1.105 0-1.338-.691-.232-.691.881-2.053 2.475-3.028 2.848-1.741 4.778-1.583 4.778.39 0 .55-.45.722-1 .382-.55-.34-1.498-.31-2.107.066-1.874 1.159 1.282 2.411 3.324 1.318 1.003-.537 2.265-.704 2.804-.371 1.405.868 1.208-.747-.511-4.193-1.678-3.362-4.313-3.713-7.336-.977-1.045.945-2.863 1.905-4.041 2.131-3.532.681-4.365 1.541-3.039 3.139 1.654 1.993.226 3.068-2.126 1.599-2.289-1.43-3.302-1.561-2.541-.329.301.485-.91.768-2.69.628-1.781-.14-3.154-.425-3.052-.633.102-.208.512-1.229.911-2.268.701-1.827.77-1.829 2.065-.059 1.137 1.556 1.339 1.589 1.339.223 0-.884.419-1.757.93-1.941.512-.183.337-1.138-.389-2.122-1.169-1.587-1.489-1.621-2.811-.298-.821.82-1.77 1.213-2.111.873-1.104-1.105-.658-2.129 1.131-2.597 1.667-.435 1.667-.463 0-.573-2.447-.162-2.33-7.665.25-16.116 1.092-3.575 1.988-7.428 1.992-8.561.005-1.134.832-2.946 1.839-4.027 1.148-1.233 1.69-3.011 1.454-4.776-.239-1.778.007-2.573.669-2.164.595.367 1.046-.217 1.046-1.354 0-1.1-.489-2.302-1.087-2.672-.598-.369-.859-1.408-.581-2.309l1.545-4.985c1.007-3.243.963-3.329-1.419-2.731-2.229.56-2.458.318-2.458-2.602 0-2.493.269-2.95 1.193-2.026 1.329 1.329 5.807-2.052 5.807-4.384 0-.683.563-1.469 1.25-1.747.987-.398.983-.521-.019-.583-.847-.053-1.06-.911-.642-2.579.401-1.597.206-2.5-.54-2.5-.642 0-.889-.45-.549-1 .34-.55 1.491-1 2.559-1s1.941-.436 1.941-.969c0-.532-.72-.692-1.601-.354-.88.338-1.999-.014-2.485-.781-.654-1.034-.908-.747-.978 1.104-.061 1.622-.307 1.973-.7 1-.38-.94-1.06.179-1.823 3l-1.217 4.5-.098-4.667c-.06-2.878.381-4.86 1.152-5.171 1-.403 1-.52 0-.583-.687-.043-1.25-.806-1.25-1.696 0-1.152.606-1.458 2.111-1.064 1.521.398 2.251.014 2.614-1.374.374-1.432 1.088-1.779 2.78-1.354 1.252.314 2.577.085 2.945-.51.423-.685-.453-1.081-2.391-1.081-3.369 0-3.634-.643-1.866-4.525.936-2.053.925-2.784-.05-3.387-1.409-.871-1.647-3.526-.613-6.838.572-1.831.321-2.25-1.351-2.25-1.398 0-2.009-.604-1.912-1.89.091-1.217.693-1.718 1.688-1.406 1.359.426 1.365.355.045-.594-.825-.594-1.05-1.093-.5-1.11.55-.017.388-.418-.359-.892-1.476-.935-.417-5.662 2.543-11.358.954-1.836 1.058-2.75.314-2.75-.614 0-.889-.368-.611-.818.279-.45-.609-2.021-1.973-3.491-1.962-2.116-2.457-3.664-2.375-7.432.057-2.617-.459-9.853-1.147-16.079l-1.249-11.32 2.928-2.51c1.809-1.55 2.24-2.293 1.127-1.942-1.193.377-1.563.183-1.095-.574.435-.704.263-.869-.448-.429-.779.481-1.155-.303-1.155-2.405 0-1.715-.416-2.861-.924-2.547-.509.314-1.131-.222-1.384-1.191-.435-1.665-.466-1.665-.576-.012-.127 1.91-1.632 2.342-2.616.75-.34-.55-.104-1 .524-1 .653 0 .297-1.161-.829-2.706-1.696-2.329-1.786-2.992-.648-4.75.728-1.124 1.454-5.072 1.614-8.774.184-4.253.754-6.907 1.55-7.213 1.434-.55 3.592 2.807 2.504 3.895-.393.393-.776 1.915-.85 3.381-.074 1.467-.45 3.792-.836 5.167-.558 1.984-.471 2.191.421 1 .869-1.159.977-.648.476 2.25-.505 2.917-.324 3.75.811 3.75 1.117 0 1.506-1.594 1.658-6.786.153-5.256.861-8.099 3.139-12.616 1.617-3.206 2.652-6.297 2.299-6.868-.353-.572-.197-.764.346-.428.543.335.988-.045.988-.846 0-.801-.436-1.456-.969-1.456-1.209 0-5.698 4.767-5.698 6.052a.962.962 0 0 1-.969.948c-.532 0-.709-.675-.393-1.5.772-2.011-2.033-1.962-4.067.071-.864.865-1.571 2.61-1.571 3.878 0 1.268-.686 2.875-1.524 3.571-.838.696-1.304 1.485-1.035 1.754.269.269.038 1.332-.514 2.362-.975 1.822-1.058 1.82-3.097-.079-2.08-1.939-2.107-1.937-3.887.245-1.754 2.151-1.738 2.209.743 2.698l2.535.5-2.177 1.965c-2.053 1.853-2.077 2.038-.414 3.254 1.368 1 1.495 1.556.566 2.485-.928.928-1.196.927-1.196-.004 0-.66-.505-1.2-1.122-1.2-.818 0-.811.376.025 1.383.888 1.07.787 1.522-.446 1.995-1.105.424-1.387 1.266-.919 2.742.455 1.434.315 1.907-.431 1.446-.609-.376-1.107-.207-1.107.375s.45 1.059 1 1.059 1 .873 1 1.941.45 2.219 1 2.559c.55.34 1 1.12 1 1.733 0 .614-1.042.137-2.314-1.059-2.479-2.329-4.622-3.007-2.884-.912.776.934.419 1.558-1.377 2.406-1.828.862-2.45.859-2.525-.012-.055-.636-.46-.031-.9 1.344-.737 2.3-.81 2.22-.916-1-.131-3.986-2.041-2.315-2.069 1.809-.009 1.347-.45 2.04-1.059 1.664-.574-.355-1.647-.144-2.385.468-1.349 1.12-2.779-1.802-2.989-6.108-.045-.916-.42-2.004-.832-2.416-.412-.413-.75-3.324-.75-6.469 0-3.146-.665-7.001-1.478-8.568l-1.478-2.849-.644 3.218c-.758 3.791-2.4 3.352-2.4-.641 0-1.8-.527-2.775-1.5-2.775-1.128 0-1.517 1.262-1.568 5.084-.059 4.477-.191 4.785-1.103 2.583-.569-1.375-1.47-3.331-2.001-4.347-1.175-2.246-.097-3.692 1.211-1.624.735 1.162.934.998.946-.779.008-1.272-.528-2.141-1.235-2-.78.156-1.129-.619-.927-2.06.178-1.27-.213-2.955-.868-3.744-.655-.79-.94-2.397-.632-3.572.31-1.187-.055-2.749-.823-3.517-1.489-1.489-1.161-5.637.49-6.187 1.684-.561 1.159-2.102-2.096-6.152-1.777-2.211-2.793-4.372-2.375-5.049.547-.884.948-.84 1.591.174.669 1.057.863.97.875-.393.008-.962.69-1.75 1.515-1.75 1.802 0 1.934-1.166.317-2.783-.651-.651-.9-1.467-.554-1.813.676-.676 4.737 5.433 4.718 7.096-.006.55-.435.331-.951-.486-.67-1.06-.881-.414-.735 2.249.121 2.213.715 3.736 1.455 3.737.688 0 1.243.788 1.235 1.75-.013 1.468-.166 1.513-.946.279-.512-.809-1.202-1.199-1.534-.867-.332.332.543 2.294 1.946 4.36 2.924 4.309 3.237 5.956.965 5.084-.978-.375-1.431-.15-1.184.589.219.658 1.606 1.519 3.083 1.914 3.058.818 3.314-.007 1.559-5.04-1.147-3.291.247-8.069 2.354-8.069.49 0 .641.403.337.895-.305.493.169 1.173 1.052 1.512 1.177.451 1.441.187.99-.989-1.646-4.289-1.891-6.712-.598-5.913.857.53 1.057.411.586-.35-.392-.635-.264-1.155.284-1.155s.929-.9.846-2c-.083-1.1-.505-2-.938-2-.433 0-.787-.675-.787-1.5s-.711-1.5-1.579-1.5c-1.224 0-1.436.655-.942 2.905.354 1.612.186 3.184-.377 3.532-.558.345-.761 1.288-.451 2.095.309.807.117 1.468-.427 1.468-.545 0-1.206-1.125-1.469-2.5-.34-1.778-.04-2.5 1.039-2.5 1.304 0 1.285-.255-.139-1.829-1.832-2.024-2.186-4.171-.686-4.171 1.325 0 .01-3.234-1.896-4.661-.853-.639-1.913-.938-2.356-.664-.442.273-1.46-.047-2.261-.711-1.154-.958-1.463-.924-1.488.164-.021.918-.517.73-1.5-.569-1.6-2.116-2.008-5.011-.582-4.129 1.48.914 2.212-3.832.761-4.93-.728-.55-1.138-1.547-.913-2.215.225-.668-.511-2.202-1.635-3.41l-2.045-2.194-.857 2.314c-.805 2.177-.956 2.066-2.526-1.86-2.112-5.279-2.099-6.223.079-5.456 1.192.419 1.431.285.75-.419-2.363-2.445-5.249-2.396-5.875.099-.748 2.978-3.103 4.02-4.938 2.185-1.161-1.161-1.577-1.083-2.722.505-1.006 1.395-1.685 1.598-2.653.795-.716-.594-2.204-.844-3.307-.556-1.103.289-2.005.117-2.005-.382 0-.498-.466-.906-1.035-.906-.701 0-.713.603-.035 1.869.55 1.027.715 2.152.368 2.5-.347.347.05.631.883.631.834 0 2.321 1.788 3.307 3.973.985 2.185 2.18 3.732 2.654 3.439.475-.293.383-1.431-.204-2.528s-.849-2.532-.582-3.189c.362-.889.506-.875.565.055.043.688.93 1.25 1.97 1.25 1.274 0 2.415 1.307 3.492 4 1.661 4.149 2.947 4.946 4.317 2.675 1.734-2.874 4.139-2.683 4.813.382.355 1.619 1.018 2.943 1.473 2.943.455 0 .591-.9.304-2-.364-1.391-.031-2 1.093-2 .89 0 1.617-.477 1.617-1.059s.45-.781 1-.441.993 1.379.985 2.309c-.013 1.455-.149 1.482-.97.191-.685-1.075-.865-.481-.637 2.1.176 1.98.712 4.23 1.192 5 1.358 2.18 1.534 4.9.315 4.9-.669 0-.861.959-.49 2.439.337 1.341.21 2.687-.282 2.991-.77.476-1.309-1.18-2.704-8.311-.717-3.661-2.284-3.15-2.231.728.032 2.269.403 3.912.826 3.651.423-.262 1.039.532 1.369 1.763 1 3.732.717 4.069-1.34 1.6-1.081-1.299-1.981-1.825-2-1.17-.018.655.417 1.469.967 1.809.55.34 1 1.518 1 2.618 0 2.817-1.721 1.429-2.473-1.994-.345-1.57-1.392-3.72-2.327-4.778-.935-1.058-1.828-2.582-1.984-3.385-.507-2.609-2.442-6.961-3.087-6.946-2 .049-3.431 1.918-2.419 3.159 2.252 2.762 4.262 8.826 2.926 8.826-.695 0-1.886-1.589-2.648-3.531-.848-2.161-1.89-3.337-2.687-3.031-.797.306-1.301-.264-1.301-1.469 0-1.809-1.907-2.931-2.072-1.219-.432 4.478-.285 8.251.322 8.251.412-.001.75.504.75 1.121 0 .732-.588.644-1.687-.25-1.485-1.208-1.605-1.153-1 .46.378 1.007.687 2.271.687 2.809 0 .537.498.669 1.107.293.76-.47.878.061.376 1.691-.402 1.306-.374 2.036.063 1.621.437-.414 1.899-.029 3.25.856 1.873 1.227 2.634 1.32 3.209.39.575-.931.859-.899 1.204.136.249.745-.128 1.934-.836 2.642s-1 2.04-.647 2.958c.4 1.042.79 1.223 1.038.48.708-2.123 3.316 1.508 3.967 5.523.579 3.566.523 3.666-1.132 2.01-.958-.957-2.16-1.741-2.67-1.741-.511 0-.929-.702-.929-1.559s.45-1.281 1-.941c.55.34 1 .141 1-.441s-.9-1.059-2-1.059c-2.398 0-2.504 1.125-.474 5.05.874 1.691 1.088 2.95.5 2.95-.564 0-1.033-.562-1.041-1.25-.011-.911-.251-.878-.883.12-.701 1.106-1.078 1.01-1.955-.5-1.046-1.801-1.087-1.802-1.117-.026-.017 1.035.871 2.079 2.027 2.381 1.285.336 1.847 1.082 1.5 1.988-.307.798-.593 2.876-.636 4.619-.043 1.742-.306 2.606-.583 1.918-.657-1.628-2.367-1.628-1.971 0 .168.688.116.91-.116.494-.726-1.302-2.251.282-2.251 2.338 0 1.843-.148 1.867-2.4.391-2.94-1.926-4.227.008-1.834 2.755 1.757 2.018 2.173 5.343 1.067 8.522-.614 1.764-.411 2.253.942 2.265 1.154.011 1.334.264.543.767-.858.546-.952 2.606-.343 7.516.91 7.335.873 8.555-.312 10.452-1.526 2.443-2.832 1.296-2.136-1.875.454-2.067.334-2.907-.355-2.481-.623.385-1.169-.67-1.357-2.625-.173-1.798-.765-3.044-1.315-2.769-.55.275-.939.725-.865 1 .074.275.46 1.569.857 2.875.468 1.538.359 2.151-.309 1.738-.567-.351-1.219.156-1.447 1.125-.314 1.328-.605 1.084-1.184-.988-.503-1.797-1.444-2.75-2.719-2.75-1.073 0-1.729.359-1.458.798.791 1.279-1.043 3.525-2.263 2.771-1.451-.897-1.443-4.569.01-4.569.779 0 .808-.383.098-1.25-.564-.687-1.182-2.6-1.373-4.25-.359-3.105-.444-3.053 5.51-3.394 1.216-.069 1.659-.621 1.284-1.599-.315-.82.008-2.034.717-2.697.709-.662 1.096-2.214.86-3.448-.339-1.774-.699-1.995-1.718-1.053-.71.655-1.142 1.437-.961 1.739.181.301-.021 1.115-.45 1.808-.883 1.428-6.089.543-6.089-1.036 0-.529-.683-.28-1.518.555-.835.835-1.426 1.879-1.314 2.321.112.442-.552 2.539-1.476 4.66-1.807 4.152-1.51 5.895.851 4.989 1.049-.402 1.3-.098.861 1.044-.35.914-.113 1.611.548 1.611.641 0 .888-.45.548-1-.34-.55-.203-1 .303-1 .507 0 1.209 2.448 1.561 5.439.761 6.48 2.18 10.561 3.67 10.561.596 0 .806-.45.466-1s-.157-1 .406-1c.563 0 1.505.9 2.094 2 .802 1.498.76 2-.165 2-.871 0-.922.313-.174 1.061 2.138 2.138.019 7.356-3.448 8.489-2.498.817-2.945 1.318-2.013 2.25.933.933.933 1.2 0 1.2-1.534 0-1.574 4.651-.049 5.594.798.493.586 1.125-.691 2.059-1.013.741-1.306 1.347-.651 1.347s1.191.594 1.191 1.32c0 1.467 4.455 5.68 6.008 5.68.545 0 .992-.689.992-1.531 0-2.1 2.699-2.964 4.525-1.448 1.114.924 1.217 1.585.401 2.568-.604.728-.808 1.793-.453 2.367.355.574-.057 1.044-.914 1.044s-1.566-.562-1.574-1.25c-.011-.905-.256-.87-.889.128-.48.758-1.403 1.05-2.052.649-.724-.447-1.389.077-1.725 1.361-.301 1.149-.94 1.846-1.421 1.549-.481-.298-.573.247-.203 1.21.56 1.461.146 1.376-2.512-.517-2.594-1.847-3.183-1.976-3.183-.698 0 .862.675 1.568 1.5 1.568s1.5.45 1.5 1 .927 1 2.059 1c1.132 0 1.781.45 1.441 1-.34.55-.029 1.007.691 1.015 1.011.012 1.029.194.08.796-.908.577-.701 1.233.793 2.512 2.466 2.111 1.666 4.138-1.059 2.68-1.03-.552-3.141-1.01-4.689-1.018-2.186-.012-2.48-.233-1.316-.985 1.193-.771.999-.973-.95-.985-1.785-.011-2.151.284-1.348 1.087 1.578 1.578-1.377 4.796-3.818 4.157-1.04-.272-1.884.024-1.884.66 0 .851-.535.865-2.05.054-1.992-1.066-2.263-5.039-.535-7.836.335-.542-.184-1.192-1.153-1.445-1.665-.435-1.665-.466-.012-.576.963-.064 1.75-.582 1.75-1.151 0-.691.686-.668 2.064.069 3.04 1.627 5.213-.54 4.725-4.713-.211-1.809.088-3.486.664-3.726.576-.241-.164-.473-1.644-.516-2.926-.086-4.588-1.624-2.565-2.374.702-.261-.006-.968-1.606-1.604-2.116-.84-2.731-1.639-2.358-3.062.306-1.17-.299-2.634-1.541-3.732-2.018-1.783-2.036-1.765-1.426 1.399.521 2.694.358 3.105-1.02 2.576-1.233-.473-1.481-.214-.998 1.044.421 1.097.136 1.674-.826 1.674-1.944 0-1.921 4.38.031 6 1.178.978 1.5.981 1.5.015 0-.676.62-.991 1.378-.7.758.291 1.823.084 2.366-.459.651-.651 1.18-.256 1.549 1.157.414 1.581.186 2.001-.866 1.597-1.01-.387-1.427.21-1.427 2.044 0 2.19-.232 2.398-1.5 1.346-1.833-1.522-2.096 1.303-.509 5.477.845 2.222.734 2.564-.75 2.315-1.124-.189-1.611.239-1.375 1.208 1.256 5.149.651 7.502-1.866 7.247-1.72-.174-2.081.018-1.158.616 1.83 1.184-3.092 2.136-5.135.993-.937-.524-1.92-.304-2.669.598-.976 1.177-.6 1.539 2.139 2.058 5.893 1.117 9.137 5.488 4.073 5.488-1.371 0-1.321.238.309 1.484 1.899 1.451 1.891 1.497-.342 2.125-2.162.607-2.2.769-.715 3.034 1.429 2.182 1.425 2.448-.051 3.014-1.298.498-1.354.789-.285 1.467 1.08.684 1.085.848.025.861-.743.008-.997.521-.586 1.185.492.796.169.957-1.013.504-2.9-1.113-5.817 1.037-4.57 3.368.829 1.549.728 1.958-.487 1.958-.844 0-1.535-.848-1.535-1.883 0-1.103-.917-2.124-2.211-2.462l-2.21-.578 2.385-2.538c1.311-1.397 1.911-2.539 1.333-2.539-.579 0-1.59.648-2.248 1.441-.657.792-1.792 1.211-2.521.931-.729-.279-1.594-.075-1.922.456-.341.552-1.987.65-3.851.23-1.79-.404-3.687-.774-4.216-.822-.528-.049-1.284-.909-1.68-1.912-.395-1.003-.75-1.247-.789-.543-.045.833-1.298 1.199-3.579 1.045-4.843-.326-7.818 2.461-4.946 4.632 1.832 1.385 1.704 1.482-2.045 1.541-3.3.051-3.683.246-2.186 1.117.997.58 2.206 2.029 2.686 3.219.726 1.8.884 1.86.937.356.034-.995.493-1.543 1.019-1.218.526.325.703 1.252.393 2.059-.381.993.092 1.468 1.461 1.468 1.113 0 2.182.476 2.376 1.057.493 1.481 3.814.032 3.814-1.664 0-.766.42-1.393.933-1.393.513 0 1.237-.959 1.609-2.132.532-1.675.864-1.836 1.552-.75.685 1.082.879 1.098.891.073.008-.72.472-1.026 1.031-.681.559.346.777 1.016.484 1.49-.293.474-.075 1.144.484 1.49.559.345 1.016-.059 1.016-.9 0-.947.57-1.308 1.5-.952 2.057.79 1.892 2.359-.25 2.377-1.32.012-1.427.22-.435.849.723.459 2.37.632 3.661.385 1.676-.32 2.682.177 3.518 1.739.833 1.558 1.795 2.035 3.338 1.659 1.192-.291 3.042.119 4.109.912 2.13 1.581 5.002 1.967 4.129.554-.301-.487.098-1.423.888-2.078 1.63-1.353 12.542-.413 12.542 1.08 0 .487-.45.885-1 .885s-1 .645-1 1.432c0 1.071-1.01 1.332-4 1.035-4.315-.429-5.417.845-1.75 2.022 3.417 1.098 11.042 1.324 12.9.383 1.103-.558 1.828-.371 2.187.564.295.769-.138 1.658-.964 1.974-.825.317-1.243.991-.929 1.499.314.508.148 2.033-.367 3.39-1.186 3.117-8.077 4.477-8.077 1.594 0-1.213-.577-1.555-2-1.183-1.1.288-2 .921-2 1.407 0 .485-.9.883-2 .883-1.232 0-2.006.672-2.015 1.75-.013 1.444-.175 1.497-.929.307-.739-1.168-1.402-1.22-3.484-.272-3.118 1.421-3.301 2.791-.471 3.531 1.155.302 1.838.973 1.518 1.491-.32.518.475 2.082 1.767 3.476l2.349 2.534-2.418.463c-2.02.386-2.514-.015-2.997-2.43-.634-3.172-2.32-4.909-2.32-2.39 0 1.21-.622 1.422-2.664.909-2.206-.553-2.556-.384-2.032.981.411 1.072.118 1.65-.835 1.65-.808 0-1.469-.429-1.469-.953s-1.554-1.691-3.454-2.592c-1.9-.902-4.037-2.357-4.75-3.234-1.372-1.689-1.5-1.7 3.454.29 2.694 1.082 2.072-1.001-.75-2.511-2.828-1.514-7.5.149-7.5 2.669 0 .732-1.012 1.338-2.25 1.346-1.819.013-1.963.201-.75.985.949.613 1.052.975.281.985-.67.008-.972.657-.671 1.442.394 1.026-.008 1.282-1.432.909-1.967-.514-3.638-5.006-2.065-5.551.453-.157.387-.96-.145-1.785-.607-.94-1.248-1.127-1.718-.5-1.636 2.181-3.993 1.605-3.521-.86.394-2.061.001-2.454-2.887-2.889-1.838-.277-3.493-.106-3.677.379-.185.485-.716.647-1.181.36-.465-.287-1.128-.065-1.474.494-.345.559-.182 1.016.364 1.016.545 0 1.284.924 1.643 2.053.553 1.743.893 1.856 2.254.75 1.374-1.116 1.51-1.052.948.447-.533 1.421-.098 1.75 2.312 1.75 2.997 0 3.616 1.151 2.368 4.404-.513 1.335-.853 1.256-2.303-.534-1.7-2.1-7.096-3.478-7.096-1.813 0 1.053-3.231-.01-4.138-1.362-.816-1.216-3.088.13-2.319 1.374.685 1.109-.886 1.254-1.96.181-.412-.413-1.237-.75-1.833-.75-.596 0-1.292-.625-1.546-1.389-.279-.836-.018-1.114.655-.698.73.451.916.065.535-1.111-.487-1.507-.406-1.556.496-.302.807 1.121 1.083 1.166 1.095.179.016-1.384-2.346-4.179-3.53-4.179-.379 0-.479.799-.224 1.776.282 1.08-.456 2.47-1.883 3.547-2.296 1.731-2.374 1.714-3.509-.776-.638-1.401-1.548-2.547-2.023-2.547-.474 0-.125-1.125.776-2.5 1.081-1.65 1.239-2.5.464-2.5-.646 0-.877-.48-.514-1.067.363-.588-.285-1.314-1.441-1.617-1.166-.305-2.101-1.361-2.101-2.374 0-1.003-.526-2.149-1.17-2.547-.787-.486-.961-.178-.531.941.417 1.087.129 1.664-.83 1.664-.808 0-1.469-.911-1.469-2.025 0-1.252-.977-2.396-2.56-2.998-1.408-.535-2.327-1.351-2.042-1.812.647-1.047-2.155-5.165-3.514-5.165-.551 0-.741.423-.421.939.319.517-.329.871-1.441.788-1.112-.084-2.054-.844-2.092-1.69-.049-1.073-.33-.933-.93.463-.473 1.1-.891 1.452-.93.781-.04-.694-.823-.981-1.82-.666-1.484.469-1.446.274.25-1.281 3.01-2.76 2.931-6.65-.123-6.066-1.307.25-2.377.067-2.377-.407 0-.473-.884-.861-1.965-.861-1.08 0-2.453-.913-3.05-2.028s-1.475-1.787-1.951-1.493c-1.695 1.048-6.025-1.34-5.397-2.976.527-1.372.764-1.345 1.949.218.743.978 1.365 1.249 1.382.6.018-.648-.643-1.853-1.468-2.678-1.953-1.953-1.906-2.736.116-1.96 1.377.528 1.446.301.465-1.531C58.895 448.936 57 448.227 57 450c0 .55-.466 1-1.035 1-.702 0-.691-.644.035-2 .652-1.218.692-2 .103-2-.533 0-1.254.9-1.603 2-.429 1.351-1.505 1.995-3.317 1.985-1.647-.01-2.214-.314-1.468-.788.884-.561.543-1.553-1.255-3.646-3.229-3.757-2.486-4.267 2.571-1.766 3.212 1.59 3.989 1.711 3.545.553-.394-1.028-.033-1.366 1.178-1.101.96.21 1.622.951 1.471 1.647-.151.695.19.977.759.626.568-.351 1.451.403 1.961 1.676.92 2.293.929 2.294.992.126.067-2.327 3.316-2.9 5.8-1.023.681.514 1.918.674 2.75.354.832-.319 1.513-.118 1.513.447 0 .566.511.712 1.136.326.752-.465.329-1.323-1.25-2.537-1.312-1.009-1.797-1.845-1.077-1.857.72-.012 1.063-.421.761-.908-.767-1.241 2.918-2.053 4.569-1.007 1.143.724 1.144.865.004.878-.835.009-1.119.635-.739 1.626.46 1.197.194 1.449-1.034.977-1.383-.53-1.447-.385-.389.889.695.838 1.996 1.516 2.891 1.508 1.425-.014 1.441-.15.128-1.095-1.203-.865-1.104-.935.5-.356 4.686 1.694 6.5 1.717 6.5.083 0-1.137-.909-1.617-3.063-1.617-2.333 0-3.011-.417-2.846-1.75.313-2.533-1.083-5.25-2.698-5.25-.766 0-1.393-.48-1.393-1.067 0-.597.845-.8 1.915-.46 1.235.392 2.389-.048 3.25-1.238 1.565-2.164 5.835-2.455 5.835-.398 0 1.18.26 1.192 1.608.073 1.721-1.428 4.392.872 4.392 3.781 0 .72.477 1.309 1.059 1.309s.793.43.468.956-1.139.764-1.809.528c-2.438-.856-4.976 2.129-3.636 4.276 1.683 2.695 6.21 2.623 8.806-.141l2.105-2.24-2.414-3.272c-2.259-3.061-2.307-3.384-.747-5.008 1.583-1.647 1.713-1.646 2.545.025 1.127 2.263 3.759 3.275 4.672 1.797.51-.825.883-.765 1.33.216.481 1.055.753 1.081 1.204.113.321-.688 1.199-1.25 1.951-1.25.751 0 1.783-.745 2.293-1.654 1.163-2.079 4.179-1.083 4.158 1.373-.011 1.199-.264 1.39-.777.584-.502-.79-1.263-.88-2.234-.266-1.217.77-1.147.935.398.948 1.551.012 1.659.273.628 1.515-.685.825-1.865 1.5-2.622 1.5-.758 0-1.378.592-1.378 1.316 0 2.11-7.266 8.048-10 8.172-3.281.149-6.929 2.534-6.316 4.13.371.969 1.053 1.003 2.927.149 1.84-.838 2.743-.813 3.658.102 1.422 1.422-.873 3.438-3.019 2.652-.688-.252-1.25.029-1.25.624 0 .702-1.743.894-4.967.547-5.696-.612-7.033-1.23-7.033-3.251 0-.793-.413-1.441-.918-1.441-.505 0-1.63-.273-2.5-.607-1.134-.435-1.582-.01-1.582 1.5 0 1.242-.64 2.107-1.559 2.107-.857 0-1.303-.414-.991-.919.674-1.091-2.416-4.448-3.29-3.574-.331.331-.037.951.653 1.377.69.427.966 1.527.614 2.446-.514 1.339-.026 1.67 2.466 1.67 2.147 0 3.107-.482 3.107-1.559 0-.857.408-1.307.906-.999.498.308.673 1.453.387 2.544-.943 3.608.309 5.153 3.132 3.866 2.006-.914 2.983-.815 4.999.506 3.125 2.048 4.207 2.107 2.576.142-1.592-1.918 5.894-2.206 7.8-.3.933.933 1.2.829 1.2-.469 0-1.137.558-1.489 1.75-1.105 1.5.482 1.536.397.25-.597-1.231-.952-1.096-1.046.75-.527 2.925.823 2.752-3.134-.25-5.715-1.95-1.677-1.906-1.721 1.75-1.754 2.063-.018 3.75.449 3.75 1.038 0 .59.736.336 1.636-.564 1.065-1.065 1.976-1.295 2.613-.658 1.165 1.165.019 3.435-1.318 2.608-.512-.316-.931-.098-.931.484 0 1.601 2.982 1.269 3.624-.403.308-.804 1.453-1.745 2.544-2.091 1.09-.346 1.74-.873 1.443-1.17-.298-.297-.024-1.493.608-2.658.631-1.166 1.314-3.689 1.517-5.609.203-1.919 1.021-3.854 1.817-4.299 1.957-1.096 1.91-4.103-.053-3.349-.825.316-1.5.139-1.5-.393 0-.533-.691-.969-1.535-.969-1.12 0-1.305-.474-.684-1.75.744-1.529.828-2.701.344-4.789-.069-.296-1.11.379-2.314 1.5-2.274 2.119-4.811 2.711-4.811 1.122 0-.504.539-1.096 1.198-1.316 1.383-.461-.778-6.767-2.319-6.767-.839 0-1.303 3.562-.939 7.203.119 1.195-.42 1.59-1.806 1.323-1.087-.209-2.222.262-2.524 1.047-.383.999.194 1.427 1.921 1.427 1.358 0 2.469.506 2.469 1.125 0 .727-1.106.904-3.125.5-1.719-.344-3.588-.625-4.155-.625-.566 0-.215-.9.78-2 1.564-1.728 1.595-2 .228-2-1.979 0-5.728-4.65-5.728-7.103 0-1.288-.488-1.647-1.636-1.206-1.126.432-1.49.187-1.168-.782.778-2.334 3.495-2.198 4.124.207.482 1.843.831 2.004 2.086.962.828-.687 1.976-.96 2.55-.605.574.355 1.044.157 1.044-.439s-1.169-1.528-2.597-2.071c-1.428-.543-2.83-1.882-3.116-2.975-.286-1.093-.918-1.988-1.404-1.988-.485 0-.883-1.575-.883-3.5 0-2.562.435-3.5 1.622-3.5 1.291 0 1.381-.291.441-1.424-.738-.889-.93-2.768-.511-5 .759-4.046 1.188-4.306 3.02-1.826 1.023 1.384 1.553 1.494 2.537.524.99-.977.902-1.604-.433-3.079-.922-1.019-1.676-2.859-1.676-4.089 0-3.923-1.817-6.274-3.961-5.127-1.033.553-2.065.671-2.294.263-.23-.408-.331-.292-.225.258.105.55-.677 1.9-1.737 3-1.916 1.986-1.926 1.972-1.446-2 .671-5.553 1.704-8.5 2.98-8.5.713 0 .673-.41-.117-1.2-1.532-1.532-1.566-5.8-.047-5.8.634 0 .115-.9-1.153-2s-1.787-2-1.153-2c.634 0 1.153-.477 1.153-1.059s-.382-.823-.849-.534c-1.591.983-3.597-4.165-2.253-5.784.816-.984.864-1.652.151-2.093-.577-.356-1.049-1.296-1.049-2.089 0-1.909 3.902-1.859 4.638.059.822 2.142 2.362 1.855 2.362-.441 0-1.068.404-2.19.897-2.495.493-.305.831.906.75 2.691-.103 2.283.298 3.245 1.353 3.245 2.763 0 4.42 6.504 2.034 7.979-.532.329-.778 2.718-.548 5.309.231 2.592.454 5.162.497 5.712.043.55.567.159 1.164-.87.877-1.51 1.254-1.606 1.955-.5.632.998.872 1.031.883.12.008-.687 1.028-1.302 2.265-1.366 1.604-.083 1.764-.244.555-.563-.984-.259-1.463-1.049-1.143-1.884.726-1.891 2.338-1.848 2.338.063 0 2.954 1.922 1.431 2.573-2.04.484-2.577.224-4.027-.954-5.329-1.786-1.973-2.178-3.594-.638-2.643.588.364.888-.912.75-3.191-.204-3.35.058-3.838 2.23-4.144 3.042-.429 5.269-3.171 3.908-4.811-.627-.756-.598-1.391.082-1.812 2.122-1.311 1.163-5.285-1.433-5.936-2.286-.574-6.518-7.416-6.518-10.539 0-1.101-1.245-1.416-4.324-1.095-1.102.115-2.038-.63-2.367-1.885-.991-3.79-2.192-2.145-1.814 2.486.265 3.261.034 4.401-.812 4.001-.651-.309-1.929-.828-2.841-1.154-1.81-.648-3.252-4.408-1.689-4.408.531 0 .699-.43.374-.956-.325-.526-1.194-.725-1.93-.443-.736.283-1.63-.245-1.986-1.172-.546-1.422-.174-1.592 2.371-1.083 1.706.342 3.018.18 3.018-.371 0-.536-.975-.975-2.167-.975-2.011 0-1.804-1.345.25-1.625.504-.069 1.367-.181 1.917-.25s1-.631 1-1.25c0-1.023-1.388-.961-7.003.313-.758.171-1.544-.44-1.746-1.36-.275-1.25.142-1.538 1.655-1.142 2.045.534 5.094-1.629 5.094-3.615 0-1.48-1.721-1.349-2.338.179-.277.688-.54-.368-.583-2.346-.109-4.972-3.129-11.084-4.123-8.347-.388 1.069-.51 2.28-.272 2.693.239.413-.493.75-1.625.75-1.132 0-2.075.563-2.094 1.25-.02.688-.655.131-1.413-1.237-1.427-2.58-1.127-4.486.545-3.453 1.292.798.135-5.576-1.334-7.345-1.315-1.585.665-3.372 2.82-2.545 2.146.824 3.787-3.443 2.007-5.223-1.478-1.478-1.175-4.594.405-4.165.742.201 1.005-.297 1.005-1.904 0-.343-.675-.063-1.5.622-1.226 1.018-1.5.955-1.5-.346 0-.98-.558-1.377-1.451-1.034-1.17.449-1.339-.188-.87-3.282.692-4.565 2.314-6.848 2.336-3.288.016 2.504 1.94 6.608 1.97 4.2.008-.687.615-1.25 1.348-1.25 2.002 0 1.306-4.441-.758-4.841-1.18-.229-1.596-.971-1.261-2.25.274-1.05.166-1.909-.241-1.909-.406 0-.659-1.012-.562-2.25.097-1.238-.511-3.311-1.352-4.607-1.388-2.139-1.373-2.444.156-3.299C84.127 260.83 84.71 255 83 255c-1.828 0-1.032-2.179.989-2.707 1.094-.286 1.742-.919 1.441-1.407-.302-.487.154-.886 1.011-.886 1.685 0 2.237-4.463.672-5.43-1.333-.824-3.422 2.182-2.744 3.949.402 1.047-.288 1.907-2.138 2.667-4.133 1.697-5.231 1.764-5.231.319 0-.829.748-1.122 2.015-.791 1.562.409 1.872.156 1.381-1.123-.411-1.074-1.291-1.442-2.514-1.053-1.285.407-1.882.109-1.882-.939 0-.955.568-1.318 1.5-.961.845.325 1.5.025 1.5-.686 0-.833.679-.647 2 .548 1.799 1.628 2 1.643 2 .155 0-.91-.675-1.655-1.5-1.655s-1.556-.45-1.625-1c-.069-.55-.181-1.466-.25-2.036-.069-.571-.753-1.425-1.521-1.9-1.531-.946-.822-4.064.924-4.064.599 0 .843.399.542.887-.301.487.122 1.442.941 2.122.819.68 1.489.93 1.489.557 0-.374 1 .021 2.223.877C86.789 242.241 88 242.42 88 241c0-.55-.753-1-1.674-1-1.41 0-1.323-.374.554-2.372 2.063-2.196 2.096-2.423.452-3.054-1.371-.526-1.478-.866-.469-1.49.719-.444 1.289-1.207 1.266-1.696-.094-2.006 1.148-5.388 1.979-5.388.491 0 .892-.644.892-1.43 0-.787 1.012-1.575 2.25-1.75 1.446-.206 2.364-1.124 2.57-2.57.226-1.594.955-2.216 2.5-2.134 1.691.09 1.788.219.43.573-1.663.435-2.578 2.442-1 2.193.412-.066 1.65-.052 2.75.03 1.859.138 1.875.222.229 1.18-1.026.597-1.458 1.531-1.028 2.219 1.193 1.909 1.218 3.757.041 3.03-.67-.414-.857-.082-.49.873.325.848.087 2.047-.53 2.664s-.752 1.122-.3 1.122c.453 0 .205.759-.55 1.687-1.208 1.485-1.153 1.605.46 1 1.007-.378 2.695-.687 3.75-.687 1.215 0 1.918-.694 1.918-1.893 0-2.621 2.674-3.46 3.308-1.038.278 1.062.07 1.931-.461 1.931s-.657.498-.281 1.107c.477.771.944.696 1.544-.25.671-1.06.863-.979.875.374.009 1.005 1.063 1.994 2.515 2.358 1.375.345 2.5 1.306 2.5 2.134 0 1.313-.317 1.299-2.465-.108-3.362-2.203-3.59-2.071-2.385 1.385.575 1.65 1.639 3 2.364 3 .726 0 1.546.562 1.824 1.25.277.688.547.35.598-.75.079-1.664.257-1.748 1.064-.5.533.825.983 1.05 1 .5.017-.55.513-.325 1.102.5.861 1.205.975 1.058.579-.749-.271-1.237-.085-2.501.413-2.809.498-.308.936.029.974.749.037.72.549.312 1.137-.907.831-1.719.698-2.783-.591-4.75-.913-1.394-1.2-2.534-.637-2.534s1.03.563 1.038 1.25c.011.858.304.794.934-.202 1.055-1.668.367-3.361-1.018-2.505-.512.316-.931.098-.931-.484s-1.237-1.111-2.75-1.175c-2.095-.088-2.274-.233-.75-.608 1.1-.27 2.501-.897 3.114-1.393.738-.598 1.922.282 3.5 2.6 1.312 1.927 2.724 3.506 3.136 3.51.412.004.757.57.765 1.257.025 1.986 1.308 3.425 3.729 4.181 1.941.605 2.217.363 2.038-1.793-.115-1.393-.665-2.234-1.244-1.906-.571.324-.703.219-.294-.232s-.161-1.454-1.267-2.229c-1.106-.774-1.751-1.827-1.435-2.339.317-.513.114-.932-.452-.932-.565 0-.782-.64-.482-1.422.3-.782.046-2.357-.566-3.5-.902-1.685-.822-2.078.423-2.078.844 0 1.535-.6 1.535-1.333 0-.734.678-1.334 1.506-1.334s1.414.488 1.304 1.084c-.456 2.446 1.373 5.899 2.365 4.465.689-.996.787-.776.35.784-.334 1.191-.138 2.455.434 2.809.573.354 1.041.181 1.041-.385 0-.565.675-.768 1.5-.452.825.317 1.5 1.483 1.5 2.591 0 1.622-.276 1.787-1.411.845-2.319-1.925-2.324.151-.01 4.634 1.965 3.81 4.051 5.096 2.745 1.694-.316-.825.089-1.402.986-1.402.838 0 1.679.466 1.869 1.036.482 1.448 11.821 2.238 11.821.824 0-.635 1.078-.887 2.57-.602 1.798.344 2.921-.071 3.74-1.383.644-1.031 1.539-1.875 1.99-1.875.45 0 .564.412.253.915-.311.503 0 1.127.691 1.388.691.261-.431 1.205-2.494 2.099-3.643 1.579-5.03 3.582-2.5 3.613.973.012.966.196-.034.83-.772.49-1.001 1.551-.575 2.662.681 1.774.739 1.771 1.464-.08.584-1.493.77-1.181.825 1.382.041 1.966-.336 3.058-.93 2.691-.557-.344-1 .409-1 1.7 0 1.288.954 2.914 2.145 3.658 1.879 1.174 2.065 1.142 1.5-.259-2.102-5.211-2.096-5.161-.461-3.834 1.031.838 2.338.978 3.863.413 2.207-.816 2.219-.875.281-1.382-2.46-.643-3.925-6.372-2.17-8.486.847-1.02 1.36-1.09 1.877-.254.524.849 1.251.861 2.772.047 1.134-.607 2.991-1.103 4.127-1.103 1.136 0 2.066-.536 2.066-1.191s.645-.318 1.433.75c1.098 1.487 1.71 1.667 2.622.769.654-.644 1.809-.934 2.567-.643.758.291 1.378.031 1.378-.578s.477-1.107 1.059-1.107.832.368.554.818c-.279.45.707 2.128 2.191 3.73 1.483 1.602 2.583 3.259 2.446 3.682-.138.424.598.77 1.635.77s2.632 1.139 3.544 2.532c.912 1.392 2.089 2.266 2.615 1.941.526-.325.956.309.956 1.409s.478 2.295 1.062 2.656c.956.591 2.857 4.382 3.491 6.962.135.55 1.006 2.35 1.936 4l1.691 3-.52-3c-.286-1.65-.825-3.788-1.197-4.75-.473-1.222-.192-1.75.93-1.75 1.053 0 1.607.873 1.607 2.531 0 1.393.675 2.791 1.5 3.107.825.317 1.5 1.15 1.5 1.852 0 1.35 3.634 2.751 4.288 1.654.211-.354.247-.081.079.606-.167.688.158 1.25.723 1.25.566 0 .782.399.48.886-.301.488.347 1.121 1.441 1.407 1.094.286 1.989.112 1.989-.387 0-.498-.378-.906-.839-.906-1.522 0-3.211-4.813-1.859-5.297 2.125-.761-.368-2.2-4.552-2.626-1.447-.148-.733-3.077.75-3.077.825 0 1.5-.873 1.5-1.941 0-1.774.226-1.823 2.624-.579 1.444.749 3.322 1.094 4.174.767 1.103-.423 1.378-.147.954.958-.328.853-.068 2.08.576 2.726.645.647 1.228 2.164 1.296 3.372.068 1.208.18 2.9.25 3.758.069.859 1.042 2.546 2.163 3.748 1.478 1.587 1.787 2.666 1.125 3.938-.501.964-.549 2.653-.107 3.753.583 1.448.824 1.563.875.417.073-1.657 2.649-1.913 4.949-.492.816.505 1.652.335 2.125-.432.576-.932 1.072-.72 1.889.806 1.511 2.825 1.415 3.094-.893 2.491-1.535-.402-2-.031-2 1.593 0 1.165.637 2.117 1.417 2.117.779 0 1.643.563 1.921 1.25.277.688.54.211.583-1.059.046-1.33.52-2.037 1.119-1.666.675.417.828-.352.437-2.191-.426-2.003-.325-2.394.347-1.334 1.951 3.078 2.425 9.69.742 10.336-.861.331-1.566 1.092-1.566 1.692 0 .599.526.765 1.17.367.799-.494.956-.166.497 1.031-.983 2.562.216 3.911 2.109 2.373 1.374-1.117 1.503-1.043.915.524-.518 1.381-.261 1.741 1.063 1.486 1.281-.247 1.746-1.309 1.746-3.988 0-2.008.301-3.953.668-4.321.896-.898-1.108-6.5-2.325-6.5-.528 0-.686-.445-.35-.989.35-.566-.051-.734-.941-.393-.856.329-1.552.073-1.552-.57 0-.641.45-.888 1-.548 1.266.782 1.266-.542 0-2.5-.646-1-.974-1.083-.985-.25-.008.688-.517 1.25-1.132 1.25-.651 0-.917-1.041-.638-2.5.263-1.375.162-2.5-.223-2.5-1.006 0-3.143-4.995-2.548-5.957.274-.445-.367-1.909-1.426-3.254-1.058-1.346-2.203-3.761-2.543-5.368l-.619-2.921 1.595 2.5 1.594 2.5-.645-3.5c-.355-1.925-1.497-4.429-2.538-5.564-1.041-1.136-1.892-2.514-1.892-3.063 0-1.351-5.323-6.373-6.755-6.373-.63 0-1.528-.684-1.996-1.519-.467-.835-1.841-1.71-3.053-1.943-1.212-.234-2.721-.745-3.354-1.136-.712-.44-.879-.27-.437.443.392.635.188 1.155-.453 1.155s-.921-.638-.622-1.417c.736-1.918-1.867-2.956-7.624-3.038-3.033-.043-5.12-.597-5.684-1.509-1.333-2.157-.633-2.633 5.903-4.02 5.859-1.243 6.05-1.215 9.106 1.357 3.306 2.782 11.45 3.746 13.586 1.61 2.406-2.406 7.311-2.923 8.716-.919.74 1.057 2.88 2.213 4.756 2.57 1.876.356 4.198 1.05 5.161 1.542 1.067.546 1.75.523 1.75-.057 0-.524-.563-1.201-1.25-1.505-2.141-.947 7.501.146 12.504 1.418 3.319.843 5.583.905 7.5.204 1.51-.552 3.763-1.028 5.006-1.058 1.243-.03 2.963-.758 3.821-1.617 1.97-1.969 4.419-2.021 4.419-.092 0 .857.591 1.242 1.419.924 1.742-.669 6.581 2.357 6.581 4.115 0 1.824 3.004 2.733 4.614 1.397.748-.621 2.154-.811 3.123-.424 7.443 2.977 23.548 5.741 26.628 4.57 1.238-.471 3.8-2.911 5.693-5.422 3.176-4.214 3.79-4.571 7.942-4.615 2.475-.027 7.65-.757 11.5-1.624 3.85-.866 9.921-2.096 13.491-2.732 5.702-1.017 6.671-1.523 7.967-4.158l1.476-3 .598 4.231c.738 5.23.742 5.233 6.092 5.875 2.407.288 5.276 1.368 6.376 2.399 2.078 1.947 2.211 1.995 5.5 1.995 1.226 0 2.012.677 2.032 1.75.075 4.118 4.744 6.63 9.003 4.845.87-.365 2.387.149 3.5 1.187 1.081 1.006 2.415 1.912 2.965 2.011.55.1 1.089.975 1.197 1.944.109.97.319 2.796.467 4.059.351 2.999 11.36 11.204 15.032 11.204 1.513 0 24.558 10.903 28.054 13.272 1.512 1.025 2.75 1.632 2.75 1.347 0-.806 7.31 2.412 9.112 4.011.886.786 2.911 1.603 4.5 1.814 4.096.545 6.386 1.587 6.403 2.913.01.734.311.677.841-.158.662-1.044 1.356-1.059 3.513-.077 1.936.882 2.33 1.452 1.409 2.036-.935.594-.809.815.472.827.962.008 1.78-.547 1.818-1.235.037-.687.556-.238 1.152 1 1.217 2.523 8.181 3.459 7.227.971-.364-.947.583-1.176 3.65-.883 2.386.227 4.433-.077 4.83-.719.537-.87.692-238.831.184-283.375L500-.011 292.504.007C178.382.017 85.06.357 85.123.763c.595 3.841-4.806 5.346-5.746 1.601L78.783 0H44.892C16.049 0 11 .215 11 1.441M319.561 185.75c.069 1.512-.212 3.425-.625 4.25-.413.825-2.436 5.678-4.495 10.785-2.059 5.106-4.126 9.52-4.593 9.809-2.363 1.46.439 12.406 3.177 12.406.437 0 1.335-3.208 1.997-7.128.81-4.803 1.488-6.678 2.08-5.75.637 1 .876.692.871-1.122-.021-7.687.847-15.44 1.763-15.745.579-.193.835-1.342.571-2.553-.401-1.836-.286-1.952.69-.702.937 1.2 1.054.824.587-1.875-.321-1.856-.584-3.769-.584-4.25 0-.481-.352-.875-.783-.875-.431 0-.726 1.238-.656 2.75M35.429 229.822c-6.13 2.704-12.694 7.439-11.874 8.567.245.336.149.39-.213.12-1.096-.818-3.342 1.611-3.342 3.613 0 2.118 1.558 2.533 2.359.628.377-.898.834-.762 1.623.483 1.25 1.972 5.018.445 5.018-2.033 0-.725.419-1.059.931-.743a1.103 1.103 0 0 0 1.512-.365c.32-.517-.212-1.11-1.181-1.316-1.214-.259-.889-.553 1.046-.948 2.188-.446 2.685-.251 2.249.883-.338.883-.066 1.293.692 1.041.688-.229 1.695-1.729 2.238-3.334.543-1.605 1.443-3.249 2-3.653.665-.482.669-.752.013-.786-.55-.028.35-1.158 2-2.51 3.788-3.105 2.58-3.021-5.071.353M328 250.167c0 .641-.243.923-.541.626-.297-.298-1.863.619-3.479 2.037-2.099 1.843-2.587 2.801-1.709 3.359.791.502.388.786-1.128.796-1.476.009-2.177.484-1.875 1.27.265.691-.137 1.833-.893 2.54-.756.706-1.395.929-1.419.494-.025-.434-.935.899-2.024 2.961-1.089 2.063-2.396 3.75-2.904 3.75-1.502 0-5.623 4.265-7.247 7.5-1.602 3.19-1.331 5.958.474 4.842.7-.432.847-.051.415 1.076-.369.96-.67 2.185-.67 2.723 0 .537-.419.718-.931.402-.512-.317-1.218-.111-1.569.457-.351.568-1.057.774-1.569.457-.512-.316-1.429-.267-2.038.109-.787.486-.749.905.132 1.45.872.538.606.966-.893 1.442-2.117.672-3.082 4.542-1.132 4.542.55 0 1-.45 1-1s.9-1 2-1 2-.48 2-1.067c0-.62.856-.796 2.039-.421 1.796.57 1.974.311 1.494-2.182-.3-1.557-.279-2.265.046-1.574.809 1.718 2.471.539 1.78-1.263-1.041-2.713 9.297-14.637 12.206-14.077 3.109.599 5.885-1.798 3.946-3.407-1.925-1.597-1.929-2.676-.011-2.676.825 0 1.507.488 1.515 1.084.009.595.417.449.908-.326.49-.775.671-1.986.401-2.69s.401-1.837 1.493-2.518c1.091-.682 1.753-1.839 1.472-2.572-.45-1.173.868-1.285 4.512-.385.165.041-.864 1.601-2.287 3.467-3.405 4.463-3.909 7.325-1.516 8.606 2.456 1.314 3.674-.509 1.273-1.907-1.08-.629-1.26-1.043-.462-1.062.72-.016 1.064-.427.764-.912-1.011-1.635 3.485-6.234 5.476-5.602 2.286.725 6.811-3.249 4.646-4.079-.742-.285-2.582-.05-4.088.522-3.405 1.295-3.886 1.301-3.107.041.353-.571-.525-1-2.048-1-1.973 0-2.508-.39-2.059-1.5l1.214-3c.425-1.051-.024-1.5-1.5-1.5-1.159 0-2.107.525-2.107 1.167m-36.75 40.507c-1.397.975-2.25 1.145-2.25.448 0-.617-.788-1.086-1.75-1.043-1.045.047-1.247.282-.5.583 1.908.77 1.493 2.126-.882 2.88-1.173.372-1.683.965-1.135 1.317 3.471 2.23 1.61 7.125-3.233 8.504-1.1.313.025.391 2.5.173 3.594-.318 4.198-.16 3 .783-.825.65-1.5 2.756-1.5 4.681 0 2.283-.782 4.298-2.25 5.795-2.703 2.758-2.872 4.205-.491 4.205 2.062 0 4.688-3.597 3.18-4.354-.544-.273-.428-.384.257-.247 1.35.269 4.804-5.43 4.804-7.927 0-2 2.814-3.058 4.267-1.605 1.558 1.558 2.733 1.419 2.733-.322 0-.857-1.371-1.712-3.339-2.081l-3.338-.626 1.089-4.836c.599-2.66 1.427-5.174 1.839-5.586 2.423-2.423.198-2.973-3.001-.742m13.312 11.026c-.275.715.006 1.3.622 1.3.617 0 .153.84-1.031 1.867-1.184 1.027-2.153 2.56-2.153 3.407 0 1.067-.639 1.372-2.085.994-1.542-.404-1.744-.755-.778-1.352.718-.444.956-1.156.53-1.583-.427-.426-1.098-.254-1.492.383-.394.638-2 1.647-3.57 2.244l-2.854 1.085 4.874 2.482c4.104 2.09 5.304 2.307 7.59 1.371 2.518-1.031 2.596-1.23 1.071-2.755-1.479-1.479-1.486-1.673-.063-1.947.868-.168 2.115-1.598 2.77-3.178.654-1.581 1.824-3.118 2.599-3.415 2.583-.991 1.45-2.203-2.062-2.203-1.924 0-3.692.579-3.968 1.3m-83.559 34.293c-.676 1.633-.952 4.074-.613 5.426.34 1.352.166 2.738-.386 3.079-.552.341-1.004.143-1.004-.439s-.675-1.059-1.5-1.059-1.5-.45-1.5-1-.456-1-1.013-1c-.593 0-.385 1.504.5 3.622.832 1.992 1.513 3.769 1.513 3.948 0 .179-1.687-.277-3.75-1.013-2.062-.736-3.643-1.822-3.512-2.412.331-1.49-2.468-.292-3.087 1.323-.277.722.363 2.243 1.422 3.38 1.06 1.138 1.927 2.725 1.927 3.528 0 2.766 1.214 4.897 2.033 3.57.876-1.417 4.205 1.328 5.301 4.369.523 1.455.269 1.694-1.279 1.202-1.979-.628-4.682 2.523-3.327 3.877.361.362.807 1.639.99 2.838.183 1.2.71 2.426 1.172 2.725.462.298 1.158 1.562 1.547 2.808.404 1.293 1.178 1.973 1.805 1.585.705-.435.869-.083.459.986-.438 1.142-.115 1.664 1.03 1.664 1.234 0 1.376.293.547 1.122-.617.617-.969 1.629-.783 2.25.186.62.614 2.384.951 3.919.337 1.535 1.061 2.514 1.608 2.176.548-.339.872-.076.721.584-.151.659.35 1.426 1.114 1.704.865.314 1.12.069.676-.65-.393-.635-.343-1.09.111-1.011 2.063.358 2.339-.222.826-1.735-1.136-1.136-1.498-2.751-1.176-5.25.255-1.985.122-4.509-.296-5.609-.418-1.1-.382-3.012.08-4.25.512-1.37.459-2.25-.135-2.25-.536 0-.975-.93-.975-2.066 0-1.136-.46-2.926-1.023-3.977-.563-1.052-1.236-5.41-1.496-9.685-.452-7.44-.408-7.644 1.034-4.772 1.29 2.567 1.538 1.175.357-2-.205-.55.035-1.225.533-1.5.935-.517 1.037-.209 2.163 6.5.614 3.653.545 3.835-.795 2.099-1.022-1.324-1.685-1.55-2.184-.743-.399.646-.025 1.423.848 1.758.859.33 1.577 1.339 1.593 2.243.025 1.325.251 1.255 1.165-.357.624-1.1 1.623-2.337 2.22-2.75.767-.53.736-.976-.104-1.521-1.335-.866-1.797-2.919-2.83-12.563-.822-7.672-1.73-8.893-3.478-4.673m35.61 4.146c-1.007 1.176-2.463 3.651-3.235 5.5-1.752 4.192-3.378 4.338-3.378.302 0-1.692-.427-2.795-.956-2.468-.526.325-.703 1.252-.393 2.059.309.807.038 1.468-.603 1.468s-.894.441-.561.979c.333.539.103 1.918-.511 3.065s-1.271 2.844-1.46 3.771c-.189.927-.656 2.473-1.037 3.435-.506 1.277-.191 1.771 1.164 1.829 1.053.045 1.316.297.607.583-.687.278-1.235 1.48-1.217 2.671.033 2.159.041 2.158 2-.194 1.498-1.798 1.967-1.977 1.967-.75 0 .886.73 1.611 1.622 1.611 1.338 0 1.402-.267.362-1.519-1.027-1.238-.957-1.853.378-3.328.901-.996 1.645-2.45 1.653-3.232.012-1.126.186-1.152.837-.127.523.825.87-.025.957-2.347.076-2.002 1.274-6.044 2.664-8.982 3.372-7.127 3.027-8.865-.86-4.326M470.5 410.833c-.922.923-.512 5.167.5 5.167 1.624 0 1.143 2.56-.814 4.331-1.384 1.253-2.09 1.365-2.983.472-.643-.643-1.515-.801-1.936-.349-.422.451-.196 1.023.501 1.272.697.249 2.017 1.2 2.933 2.113.915.914 2.338 1.663 3.162 1.665 1.089.003 1.605 1.435 1.892 5.25.367 4.885.24 5.246-1.847 5.246-1.233 0-1.904.337-1.491.75.412.413 1.275.75 1.916.75.642 0 1.122.563 1.067 1.25-.055.688-.167 2.15-.25 3.25-.083 1.1-.852 2-1.709 2-.857 0-1.268.471-.912 1.047s-.293 3.046-1.441 5.489c-2.343 4.984-2.534 5.858-1.088 4.964 1.664-1.029 1.119.692-.623 1.966-1.123.821-1.401 1.884-.903 3.451.719 2.265.719 2.265 2.122-.44.772-1.488 1.404-3.329 1.404-4.091s.627-1.386 1.393-1.386c1.185 0 2.718-2.066 3.021-4.071.047-.315.845-1.331 1.772-2.258 2.335-2.335 3.223-.439 1.805 3.857-1.708 5.175-.631 6.528 1.319 1.656 1.795-4.486 3.443-15.181 2.149-13.943-.842.806-3.459-.959-3.459-2.332 0-.465.608-.613 1.351-.328 1.766.678 3.223-12.608 1.499-13.674-.612-.378-1.166-1.642-1.231-2.81-.066-1.167-.456-2.117-.869-2.11-.413.007-1.2.013-1.75.013s-1 .627-1 1.393c0 2.017-2.728 2.759-3.429.933-.417-1.089-.145-1.377.918-.969.925.355 1.511.011 1.511-.888 0-.808-.525-1.469-1.167-1.469-.641 0-.87-.296-.508-.658.362-.362.099-1.335-.584-2.163-.989-1.198-.987-1.59.009-1.925 1.76-.592 1.561-2.921-.25-2.921-.825 0-1.725.225-2 .5M27.746 421.122c-1.615.904-1.621 1.138-.09 3.475.97 1.482 1.274 2.873.743 3.404-1.768 1.766-.376 11.192 1.734 11.744 1.27.332 1.739 1.083 1.381 2.211-1.265 3.984 5.815 6.997 8.132 3.462.909-1.387 2.257-2.285 3.002-2 2.114.812 1.606-.317-1.571-3.495-2.863-2.863-4.802-3.905-3.577-1.923.915 1.48-.43 1.213-2.051-.408-1.103-1.103-1.176-2.076-.337-4.483 1.213-3.48-.588-9.109-2.915-9.109-.723 0-1.068-.399-.767-.887.965-1.561-1.79-3.05-3.684-1.991M.798 439.75c-.111 3.712-.108 8.1.008 9.75.115 1.65.195 5.137.176 7.75L.949 462h4.134c3.91 0 4.1-.135 3.506-2.5-.619-2.468 1.54-3.718 2.827-1.635.97 1.568 5.045.701 5.4-1.149.273-1.419-.173-1.69-2.178-1.327-1.388.252-2.773-.07-3.08-.716-.416-.875-.706-.855-1.141.077-.815 1.746-2.755 1.573-2.08-.185.303-.79.013-1.654-.643-1.921-.887-.361-.873-.506.056-.565 1.95-.123 1.467-3.081-.5-3.064-1.34.012-1.438.214-.416.861 1.069.678 1.012.969-.288 1.468-2.117.812-2.847-1.228-2.106-5.89.345-2.17.121-4.278-.54-5.074-.621-.749-.931-2.716-.688-4.371.302-2.055.021-3.009-.885-3.009-.952 0-1.384 1.91-1.529 6.75m127.399-.07c-.975.391-.849.866.5 1.889 1.437 1.09 1.499 1.377.303 1.415-1.157.036-1.207.232-.219.86.929.589 1.016 1.478.314 3.234-.719 1.798-.985 1.962-1.032.637-.052-1.472-.414-1.597-2.063-.715-1.596.854-2 .76-2-.465 0-.844-.498-1.535-1.107-1.535s-.857-.652-.551-1.449c.34-.887-.229-1.698-1.468-2.091-2.722-.864-3.507.14-1.785 2.284 3.797 4.727 4.004 6.048 1.125 7.189l-2.714 1.076 2.659-.348c2.061-.27 2.545.01 2.155 1.245-.438 1.388-.363 1.4.576.094.594-.825 1.086-1.015 1.095-.423.009.626 1.271.892 3.015.636 1.65-.242 3-.786 3-1.21 0-.423 1.012-1.047 2.25-1.386 1.732-.475 1.936-.819.887-1.496-1.151-.742-1.151-.963 0-1.421.863-.343.63-.577-.637-.636-1.664-.079-1.748-.257-.5-1.064 1.108-.716 1.155-.973.179-.985-.989-.011-.924-.413.259-1.596 1.884-1.884 1.169-3.589-1.134-2.705-1.091.418-1.392.238-.909-.544.753-1.218.024-1.38-2.198-.49m-82.766 13.432c-.348.563-1.281.776-2.072.472-1.597-.613-5.359 1.372-5.359 2.828 0 .512-.745 1.753-1.655 2.759-1.249 1.38-1.324 1.829-.309 1.829.849 0 .63.524-.593 1.418-1.067.78-1.607 1.751-1.2 2.158.407.407.238 1.344-.374 2.082-.8.963-.809 1.709-.033 2.644 1.17 1.41.433 5.982-.838 5.197-.727-.449-2.116 5.605-1.455 6.342.702.783 4.437-1.064 3.902-1.929a1.104 1.104 0 0 0-1.514-.369c-.512.316-.931-.127-.931-.984A1.57 1.57 0 0 1 34.571 476c2.313 0 3.989-2.155 3.888-5-.114-3.22.583-4.55 1.558-2.973.422.683.397 2.531-.055 4.107-.676 2.354-.522 2.853.858 2.796 2.653-.111 5.359-1.421 5.004-2.423-.178-.503 1.589-.957 3.926-1.008 2.337-.051 4.25.266 4.25.704 0 .438.477.797 1.059.797s.738-.52.346-1.155c-.426-.689-.276-.884.371-.483.597.369 1.351.241 1.676-.284.324-.525 1.368-.807 2.319-.627.951.181 2.309-.297 3.018-1.061.71-.765.935-1.397.5-1.405-.434-.009-.114-.442.711-.964 1.708-1.08-.08-3.588-2.996-4.205-.823-.174-1.948-.872-2.5-1.553-.552-.68-2.354-1.494-4.004-1.809-2.725-.521-3.152-.224-4.654 3.236-1.334 3.074-1.672 3.368-1.75 1.525-.053-1.257.611-3.364 1.475-4.683 1.177-1.797 1.31-2.887.528-4.347-1.261-2.357-3.797-3.483-4.668-2.073m354.831.091c-.762.931-.688 1.641.265 2.518 1.044.961 1.443.961 1.875 0 .302-.672.37 3.504.15 9.279-.219 5.775-.015 11.4.455 12.5.658 1.543.868 1.029.923-2.25.049-2.983.496-4.25 1.498-4.25 1.132 0 1.31 1.136.86 5.5-.39 3.782-.212 5.5.572 5.5.632 0 1.14-1.532 1.14-3.441 0-3.944.69-4.635 3.5-3.504 1.655.665 1.703.817.281.875-1.13.046-1.514.601-1.123 1.622.511 1.332.862 1.267 2.469-.458 2.464-2.644 2.403-4.466-.127-3.804-1.282.335-2 .03-2-.848 0-.755-.939-1.874-2.086-2.488-1.147-.614-1.83-1.371-1.518-1.683.312-.313-.248-1.289-1.245-2.169-1.331-1.176-1.818-3.064-1.831-7.102-.01-3.025-.373-5.349-.807-5.165-.434.185-1.104-.174-1.489-.797-.508-.821-.993-.776-1.762.165m-171.653 6.513c-2.127.545-6.572 4.991-6.679 6.68-.039.607-.416.222-.837-.857-.676-1.729-1.191-1.377-4.35 2.975-3.405 4.694-3.855 6.486-1.625 6.486.55 0 .722-.45.382-1-.34-.55-.122-1 .485-1 .606 0 1.03.563.94 1.25-.406 3.13.024 3.876 1.464 2.539 1.007-.934 1.076-1.491.25-2.024-.675-.435-.231-.741 1.088-.75 1.258-.008 2.937-1.099 3.859-2.506.898-1.371 1.921-2.342 2.273-2.159.353.183 1.428-.496 2.391-1.509 1.637-1.722 1.45-2.297-.623-1.919-.48.088-.592-.57-.25-1.463.343-.892.623-2.036.623-2.541 0-.505.648-.918 1.441-.918s1.719-.45 2.059-1c.646-1.045.237-1.085-2.891-.284M254.265 486c-.087 2.2.267 4 .788 4s.947 1.959.947 4.354c0 4.879 2.418 8.26 7.956 11.123 4.087 2.114 4.544 1.597 4.544-5.149 0-4.657-.383-5.815-2.486-7.518-1.368-1.107-2.536-2.53-2.598-3.162a444.81 444.81 0 0 1-.264-2.873c-.12-1.363-.625-1.546-2.402-.87-2.762 1.05-5.285-.97-3.474-2.781.832-.832.607-1.124-.864-1.124-1.625 0-2.016.729-2.147 4m129.617-.625c-.066 1.719-.032 3.749.075 4.511.121.871-.382 1.165-1.355.792-2.553-.98-4.386 7.275-2.002 9.019 1.681 1.229 1.682 1.303.032 1.303-1.068 0-1.472.45-1.037 1.155.443.715.275.883-.44.44-.635-.392-1.182-.349-1.214.096-.199 2.733-.886 8.106-1.253 9.809-.237 1.1.004 2.547.535 3.216s.787 1.755.567 2.413c-.574 1.722-3.79 1.961-3.79.283 0-.777-.009-1.749-.019-2.162-.032-1.249-5.363-2.268-6.407-1.224-.632.632-.523.974.309.974.706 0 1.098.558.87 1.241-.228.683.218 1.873.991 2.645 1.03 1.031 1.095 1.595.246 2.12-.824.51-.738.877.301 1.275 2.103.808 1.948 5.925-.166 5.459-.894-.197-1.512-.895-1.375-1.549.138-.655-.476-1.191-1.364-1.191-1.34 0-1.501-.746-.952-4.411.427-2.845.266-4.657-.454-5.101-.614-.38-.875-1.32-.58-2.089.324-.844-.106-1.399-1.084-1.399-1.353 0-1.291-.29.374-1.75 1.099-.962 1.8-2.328 1.559-3.034-.241-.706.108-1.941.775-2.745.964-1.161.872-1.981-.447-3.994-.913-1.394-1.378-2.99-1.032-3.549.776-1.256-1.326-3.928-3.09-3.928-.715 0-1.821 1.579-2.458 3.509-.637 1.93-1.603 3.235-2.146 2.899-.543-.336-.735-1.269-.425-2.075.418-1.09.053-1.302-1.432-.831-1.48.47-2.014.164-2.073-1.185-.046-1.05-.292-1.289-.583-.567-.278.688-1.169 1.25-1.98 1.25-.812 0-1.217-.419-.901-.931.317-.512.115-1.215-.448-1.563-.563-.348-1.288.183-1.612 1.181A88.51 88.51 0 0 1 347.24 499c-.916 2.422-.87 3.456.187 4.189 1.184.821-2.123 4.811-3.988 4.811-.708 0-1.049.774-.786 1.78.256.978.007 2.984-.553 4.456l-1.018 2.677-3.387-3.206c-1.863-1.764-4.244-3.743-5.291-4.398-1.727-1.081-1.742-1.197-.154-1.25.962-.033 1.769-.621 1.792-1.309.023-.687.856.278 1.851 2.146.995 1.867 2.071 2.971 2.392 2.452.321-.519.218-1.534-.228-2.256-.447-.723-.603-2.113-.347-3.09.255-.977-.025-2.079-.623-2.448-.598-.37-1.087-1.74-1.087-3.046 0-2.421-.598-2.773-6.875-4.04-1.941-.392-3.138-.298-2.816.223.307.497.246 1.411-.137 2.031-.439.71-1.119.23-1.84-1.298-.676-1.434-.75-2.424-.179-2.424.531 0 .687-.45.347-1-.34-.55.099-1 .976-1 1.306 0 1.392-.377.48-2.083-1.043-1.948-1.197-1.97-2.384-.347-.698.955-1.74 1.444-2.316 1.089-.575-.356-1.32.066-1.654.937-.704 1.832.151 3.674 1.359 2.928.833-.515 2.004 6.178 1.218 6.964-.235.235-1.3-.566-2.367-1.781-1.357-1.543-2.097-1.829-2.462-.951-.286.691-.927 1.005-1.424.698-.497-.307-.182-1.66.7-3.006.988-1.508 1.176-2.448.489-2.448-.613 0-1.115-.78-1.115-1.734 0-1.03-.769-.319-1.894 1.75-1.716 3.157-1.748 3.648-.345 5.234.852.962 1.142 1.757.644 1.765-.498.009-.23.459.595 1 1.174.771 1.226 1.162.237 1.802-2.227 1.441-2.319 9.349-.115 9.925 1.182.309 1.878 1.384 1.878 2.9 0 2.289.138 2.342 2.75 1.06 4.064-1.993 6.618-1.086 6.464 2.298-.012.275.609 1.08 1.382 1.789.772.71 1.411.935 1.419.5.009-.434.434-.127.946.682s1.279 1.122 1.706.696c.426-.427.178-1.145-.553-1.596-.937-.58-1-1.024-.212-1.51.643-.398 1.481.29 1.981 1.625.549 1.468.478 2.56-.195 2.988-.727.462-.673 1.14.175 2.161.77.928.866 1.715.254 2.093-.611.377-.455 1.619.413 3.293 1.481 2.854 1.004 4.738-.569 2.25-.664-1.05-.935-1.104-.946-.186-.01.9-.54 1.015-1.765.385-.962-.495-2.2-.775-2.75-.622-.55.152-2.327.572-3.948.933-2.344.522-2.651.863-1.5 1.664 1.102.766 1.149 1.129.198 1.514-.687.279-1.243 1.258-1.235 2.174.014 1.442.147 1.464.985.167.646-1 .974-1.083.985-.25.008.688.492 1.25 1.074 1.25.582 0 .822-.384.532-.853-1.081-1.749 1.985-4.416 4.25-3.698 1.203.382 1.923 1.124 1.599 1.648-.324.524-.009.829.699.678.708-.151 1.748.738 2.312 1.975.563 1.237 1.352 2.25 1.755 2.25.402 0 .48.654.173 1.454-.306.799.108 2.403.921 3.564.814 1.161 1.233 3.053.932 4.203-.397 1.518-.199 1.876.722 1.307.698-.431 1.557-.346 1.908.19s1.899 1.283 3.44 1.66c2.581.632 2.717.526 1.715-1.346-.999-1.868-.796-2.032 2.507-2.032 2.032 0 3.337-.416 3.003-.956-.325-.526-1.252-.703-2.059-.393-.807.309-1.468.073-1.468-.525s1.125-1.37 2.5-1.715 2.5-1.015 2.5-1.488c0-.473-.68-.599-1.511-.28-1.082.415-1.336.121-.893-1.032.35-.914.113-1.611-.548-1.611-.641 0-.888.45-.548 1 .34.55.168 1-.382 1-1.629 0-2.43-2.088-1.253-3.265 1.483-1.483 8.33-1.782 7.795-.34-.225.608-.916.992-1.535.855-.619-.138-1.125.184-1.125.715 0 1.24 4.117 3.532 5.75 3.201.688-.14 1.25.216 1.25.79 0 .574-1.098 1.044-2.441 1.044-1.343 0-2.76.516-3.149 1.146-.499.806.076.949 1.941.481 1.816-.456 2.66-.266 2.684.604.02.698.672.144 1.45-1.231 1.194-2.11 1.201-2.664.048-3.55-2.491-1.912.094-13.45 3.014-13.45.664 0 1.768.675 2.453 1.5 1.027 1.238.934 1.5-.531 1.5-1.523 0-1.448.284.531 2 1.721 1.492 1.91 2 .747 2-1.067 0-1.395.631-1.037 2 .288 1.1 1.033 2.007 1.657 2.015.623.009.458.442-.367.963-2.179 1.375-2.114 5.179.097 5.758 1.01.264 2.107 1.331 2.437 2.372.331 1.041 1.278 1.892 2.105 1.892 1.31 0 1.301-.203-.068-1.571-1.886-1.886-2.05-2.823-.321-1.828.688.396.912.347.498-.11-1.226-1.351 2.351-4.488 5.157-4.523 2.388-.029 2.453-.139.822-1.377-1.668-1.265-1.642-1.38.423-1.92 2.636-.689 4.938.415 2.608 1.252-1.411.506-1.434.816-.184 2.518 1.387 1.889 1.426 1.88 1.426-.309 0-1.237.446-1.974.992-1.637.546.337 1.783.153 2.75-.41 1.191-.694 1.315-1.034.383-1.055-.991-.022-1.208-.867-.775-3.03.404-2.02.2-3.01-.625-3.032-.687-.018-.412-.648.625-1.433 1.018-.771 1.566-1.862 1.218-2.425-.668-1.081-3.161-.505-5.419 1.251-2.192 1.706-4.106 1.588-5.125-.316-1.213-2.268-.411-3.045 3.143-3.045 1.558 0 2.833-.505 2.833-1.122 0-.801.368-.817 1.284-.057 1.322 1.097 2.962 1.026 5.905-.254.929-.404 2.498-.282 3.486.271 1.601.896 1.495 1.081-.977 1.702-2.64.662-2.701.807-1.262 3.003 1.128 1.722 1.204 2.41.297 2.713-.853.284-.696.924.526 2.146 1.973 1.973 2.195 3.199.741 4.098-.55.34-1 .156-1-.41 0-.565-.667-.771-1.482-.459-1.069.411-1.221 1.055-.546 2.316.618 1.155.544 2.137-.219 2.9-.871.871-.845 1.153.106 1.153.692 0 1 .419.684.931-.317.512-.118 1.213.441 1.559.559.345 1.016-.262 1.016-1.349 0-2.98 1.059-5.141 2.519-5.141.798 0 1.198-.97 1.03-2.5-.221-2.02.167-2.5 2.019-2.5 2.116 0 2.259-.347 1.852-4.5-.269-2.745-.033-4.5.605-4.5.721 0 .727-.596.018-1.919-.586-1.095-.639-2.062-.123-2.25 1.071-.393 1.476-4.445 1.131-11.331-.211-4.205-.385-4.602-1.1-2.5-.576 1.696-.668.891-.283-2.5.585-5.166-1.035-5.582-1.947-.5-.247 1.375-.51-.048-.585-3.162-.138-5.75.472-6.462 3.772-4.404 1.114.696 1.273.378.763-1.528-.354-1.323-.681-3.081-.728-3.906-.057-1.018-.327-.879-.841.434-.477 1.219-1.009 1.526-1.439.83-.375-.606.03-1.814.899-2.683 1.433-1.433 1.434-1.581.009-1.581-.864 0-1.571-.388-1.571-.861 0-.474-1.017-.667-2.26-.43-1.982.379-2.297 1.128-2.57 6.094-.17 3.113-.74 6.179-1.266 6.812-.632.762-.501 1.326.387 1.666.838.322 1.431 2.469 1.579 5.709.157 3.436-.119 4.974-.816 4.543-.58-.358-1.054-.174-1.054.408s-.45 1.059-1 1.059-1-.9-1-2-.562-2.032-1.25-2.07c-.687-.039-.35-.457.75-.93 1.347-.579 1.51-.887.5-.945-1.301-.074-1.307-.208-.046-1.005 1.226-.776 1.248-1.305.137-3.379-1.014-1.896-1.062-3.228-.208-5.815.609-1.846 1.154-3.806 1.211-4.356.057-.55.525-1.788 1.04-2.75.749-1.4.53-1.75-1.099-1.75-1.821 0-2.229-.551-1.95-2.638.047-.351-.515-1.019-1.25-1.485-.83-.526-.903-.852-.192-.862 1.717-.023 2.549-3.079 1.26-4.632-.886-1.068-.619-1.568 1.233-2.31 1.3-.52 1.775-.975 1.055-1.01-.72-.034-1.066-.457-.768-.938.297-.481-.576-.875-1.941-.875-2.088 0-2.501.496-2.6 3.125M193 490.906c0 .499-.9.671-2 .384-1.233-.323-2-.031-2 .76 0 .706-.279 1.005-.619.664-1.508-1.508-3.083 2.327-3.251 7.914-.132 4.406.239 6.433 1.344 7.35 1.043.866 1.526.911 1.526.144 0-.617.675-1.122 1.5-1.122s1.447-.337 1.382-.75c-.382-2.414.31-4.25 1.599-4.25 1.796 0 3.35-5.223 1.716-5.768-.674-.224-.886-1.539-.533-3.302.322-1.612.305-2.93-.039-2.93s-.625.408-.625.906M268.037 537c-.223 3.307-.284 3.362-1.095 1-.656-1.91-.809-1.259-.65 2.762.15 3.79-.133 5.131-1.01 4.793-1.943-.746-2.446 1.138-.755 2.829.849.849 1.528 1.786 1.509 2.08-.14 2.092.09 2.576.964 2.036.55-.34 1-1.466 1-2.503 0-3.084 4.591-7.763 6.13-6.247 1.015.999 1.017 1.25.011 1.25-.692 0-.979.453-.637 1.007.343.554-.052 1.266-.877 1.583-.884.339-1.25 1.229-.89 2.166.453 1.182.179 1.426-1.063.949-1.097-.421-1.674-.136-1.674.826 0 2.041 1.707 1.834 3.657-.443.913-1.066 2.308-1.655 3.154-1.33 1.049.402 1.274.188.728-.695-.583-.943-.243-1.104 1.302-.613 2.585.82 4.14-3.649 2.297-6.601-.958-1.534-.855-1.854.604-1.879 1.677-.029 1.677-.078 0-1.055-.967-.563-2.204-.747-2.75-.41-.546.337-.992.179-.992-.351s-1.77-.793-3.934-.585c-3.418.329-3.99.087-4.364-1.845-.299-1.547-.501-1.158-.665 1.276m216.205 24.543c-1.146.803-2.376 2.789-2.732 4.413-.364 1.657-1.497 3.222-2.579 3.566-1.975.627-2.738 3.478-.931 3.478s2.477.185 4.402 1.215c1.555.832 1.789.726 1.287-.583-.742-1.934 2.197-3.734 6.285-3.85 2.513-.072 3.527-2.782 1.04-2.782-.424 0-1.335-1.36-2.023-3.021-1.612-3.893-2.222-4.206-4.749-2.436M344.188 609.07c-.663 1.062-1.989 1.944-2.946 1.962-2.63.048-5.003 2.25-5.393 5.006-.469 3.311 3.397 3.896 7.193 1.089 1.524-1.127 3.677-1.874 4.785-1.66 3.972.765 3.445-5.181-.653-7.374-1.348-.721-2.073-.484-2.986.977m101.875 1.507c-.036.612-1.315.893-2.964.651-2.199-.323-3.047.034-3.504 1.474-.332 1.044-2.177 2.468-4.1 3.163-4.793 1.734-3.287 5.443 2.024 4.985 1.856-.16 3.698.034 4.094.43 1.363 1.363 3.253.716 3.905-1.337.359-1.132 1.731-2.467 3.048-2.968 1.576-.599 2.195-1.434 1.81-2.437-.322-.84-.992-1.275-1.489-.968-.497.307-1.322-.483-1.832-1.756-.511-1.273-.957-1.829-.992-1.237" fill="#d3d3d3" fill-rule="evenodd"/></svg>