<svg xmlns="http://www.w3.org/2000/svg" width="500" height="698"><path d="M40.525 13.96c-.326.527-.573 2.44-.549 4.25.024 1.809.054 3.965.067 4.79.072 4.825.964 44.5 1 44.5.023 0 .237 15.525.475 34.5.408 32.524 1.195 60.133 1.94 68 .986 10.422 2.459 216 1.547 216-.342 0-3.199-1.551-6.347-3.447-5.354-3.224-7.861-5.315-17.751-14.803-4.186-4.016-5.466-4.649-4.545-2.25.82 2.137-1.617 1.874-4.635-.5-1.398-1.1-2.809-2-3.135-2-.862 0-.697 28.297.173 29.601 2.848 4.267 32.876 2.262 38.717-2.586.94-.78 1.536-.794 1.998-.047.362.585 1.08.804 1.596.485.516-.319 1.25.236 1.631 1.234 1.459 3.822 4.126 5.559 8.983 5.851 2.646.159 4.919.328 5.052.376.134.047-1.329 3.048-3.25 6.669-1.92 3.621-3.492 7.055-3.492 7.633 0 1.678 40.035.335 41.122-1.38.837-1.32 1.071-2.994 1.376-9.836.28-6.297 1.532-25.378 2.034-31 .576-6.457 1.15-17.147 1.96-36.5.532-12.707 1.206-21.398 4.58-59 .592-6.6 1.474-19.2 1.959-28 .486-8.8 1.129-18.25 1.43-21 .3-2.75 1.452-17.375 2.56-32.5 3.488-47.596 3.232-46.57 15.977-64.092 4.595-6.318 4.998-7.362 6.023-15.59.604-4.85 1.746-13.318 2.537-18.818.791-5.5 1.933-14.5 2.537-20 .604-5.5 1.288-10.309 1.521-10.686.232-.377.872-5.432 1.422-11.234 1.316-13.889 1.878-15.238 6.65-15.962 3.425-.52 31.705-1.587 46.633-1.759 8.567-.099 8.435-1.612-.929-10.692-4.341-4.209-9.017-8.44-10.392-9.403-2.326-1.629-7.573-1.751-75.191-1.757-45.349-.005-72.914.354-73.284.953M224 126.5c0 .825-.45 1.5-1 1.5s-1 .45-1 1 .787 1.01 1.75 1.023c1.017.013.288.742-1.741 1.741l-3.491 1.719 2.991.64c2.321.497 2.487.667.741.759-1.238.065-2.25.554-2.25 1.087 0 .532-.675.709-1.5.393-2.316-.889-1.776.633 1 2.817 2.754 2.166 3.358 4.087 1 3.183-.825-.317-1.5-.051-1.5.59s-.472.874-1.049.518c-.726-.449-.729-1.033-.008-1.901 1.081-1.303.452-2.569-1.276-2.569-.55 0-.718.282-.374.627.345.345-.041 1.92-.859 3.5-.817 1.58-1.194 2.873-.837 2.873.356 0 .119.637-.527 1.416-1.858 2.239 2.468 3.189 4.638 1.018 1.09-1.089 1.838-1.297 2.078-.577.552 1.658-2.403 4.227-4.111 3.572-.81-.311-1.77-.085-2.133.503-.363.587-.157 1.068.458 1.068s.859.419.543.931c-.317.512-.133 1.204.408 1.539.541.334 1.557-.31 2.257-1.431 1.606-2.572 2.762-2.639 2.103-.121-.371 1.418.11 2.034 1.844 2.364l2.345.446-2.34.136c-1.287.075-3.147 1.134-4.135 2.354-1.408 1.739-2.096 1.968-3.188 1.062-1.077-.894-2.742-.589-7.364 1.348-3.285 1.377-7.323 2.99-8.973 3.583-1.65.594-3.45 1.412-4 1.819-.55.406-2.575 1.073-4.5 1.48-1.925.408-3.779 1.18-4.121 1.716-.341.536-2.254.974-4.25.974-3.56 0-5.313 1.739-1.879 1.863 1.261.046 1.052.37-.75 1.162-2.779 1.22-8 1.633-8 .632 0-1.059 2.89-1.836 4.511-1.214 1.082.415 1.336.121.893-1.032-.719-1.875-1.359-1.959-4.839-.636-3.654 1.39-3.522 5.014.185 5.057 2.365.027 2.528.202 1.164 1.25-.872.67-2.767 3.093-4.21 5.384-1.442 2.291-3.067 4.44-3.609 4.776-1.454.898-10.618 20.143-13.6 28.558-6.712 18.944-8.87 31.983-6.897 41.678.875 4.302 1.966 9.922 2.423 12.488.829 4.648 10.615 34.432 11.939 36.334 1.278 1.837 3.924 9.953 4.563 14 .348 2.2.891 4.675 1.206 5.5.315.825.686 1.95.823 2.5.138.55 1.18 4.6 2.317 9 2.316 8.964 2.837 11.474 4.111 19.821.869 5.693 3.861 20.212 6.219 30.179 2.403 10.159 1.445 32.891-1.683 39.907-1.543 3.46 1.463 6.757 9.214 10.107 6.762 2.922 7.107 3.221 5.526 4.801-1.58 1.58-1.574 1.685.089 1.685.975 0 1.519.412 1.208.915-.311.503-.072 1.079.531 1.28 1.574.524 1.803 17.806.236 17.805-.836 0-.929.875-.32 3 .473 1.65.538 3 .143 3s-.786.905-.869 2.01c-.083 1.106-.854 2.713-1.713 3.571-2.314 2.315-2.111 2.419 4.74 2.419h6.302l2.767-7.977 2.767-7.977-2.402-3.273c-4.298-5.859-8.296-17.773-5.963-17.773.424 0 3.912.894 7.75 1.988 14.435 4.111 42.478 9.475 55.478 10.61l10.5.919c1.65.145 5.988.313 9.639.373 4.789.079 7.261.613 8.87 1.917l2.232 1.806-3.001 3.285c-1.65 1.807-3.596 4.481-4.324 5.943-.729 1.463-2.094 3.559-3.034 4.659-.939 1.1-2.822 4.11-4.183 6.688-1.361 2.579-3.475 6.093-4.696 7.808-1.222 1.716-2.026 3.315-1.787 3.554.24.239 5.576.666 11.86.949 6.283.283 13.224.734 15.424 1.002 2.2.268 15.14.745 28.756 1.059 22.813.527 24.808.437 25.417-1.15.433-1.129-.094-2.332-1.53-3.495-1.204-.976-2.126-2.143-2.048-2.594.366-2.116-.259-3.238-2.137-3.834-1.456-.462-1.868-1.196-1.435-2.559.86-2.711-.336-4.328-2.112-2.854-1.091.905-1.411.878-1.411-.118 0-.709-.277-1.012-.616-.674-.338.339-.137 1.989.448 3.667.949 2.721.853 3.051-.884 3.051-1.071 0-1.996-.562-2.054-1.25-.059-.687-.171-2.15-.25-3.25-.195-2.704-2.908-2.538-4.133.254-.544 1.239-1.415 2.111-1.937 1.937-1.876-.625-1.576-2.378.902-5.259 2.787-3.241 3.166-4.975 1.274-5.831-.687-.311-.35-.45.75-.309 1.1.142 2.773-.653 3.717-1.767.944-1.114 1.731-1.499 1.75-.857.064 2.246-1.193 4.332-2.609 4.332-1.118 0-1.196.434-.358 2 1.559 2.914 4.647 2.542 5.45-.655.366-1.46.287-2.923-.175-3.25-.463-.327-.803-1.27-.756-2.095.047-.825-.308-2.704-.789-4.176-.921-2.82 1.817-8.769 3.281-7.125.392.44 2.854 6.201 5.47 12.801 2.617 6.6 5.283 12.563 5.925 13.251.951 1.019 25.112 3.14 36.844 3.235 1.501.012 1.75-.98 1.75-6.972 0-18.158-12.115-82.748-17.071-91.014-2.957-4.932-4.24-8.97-4.018-12.643.311-5.129-1.33-8.273-8.109-15.542-4.664-5.001-5.513-5.529-7.052-4.39-.963.713-1.75 1.984-1.75 2.825 0 .842-2.025 4.281-4.5 7.643s-4.5 6.513-4.5 7.003c0 .744-2.274 2.104-3.519 2.104-.195 0-.1-1.575.213-3.5.514-3.166.344-3.5-1.777-3.5-2.266 0-2.283-.059-.511-1.75 1.343-1.282 1.958-1.416 2.297-.5.255.688 1.326 1.25 2.38 1.25 2.78 0 2.7-4.951-.083-5.125-3.907-.244-4.294-.394-5.349-2.066-.818-1.297-.632-2.172.796-3.75 1.407-1.556 1.519-2.063.458-2.074-.884-.01-1.017-.288-.357-.75 1.342-.941 1.616-5.016.388-5.774-.515-.319-.936-1.397-.936-2.398 0-1-.675-2.378-1.5-3.063s-1.485-2.427-1.467-3.872l.034-2.628 1.991 2.392c1.096 1.315 2.27 2.113 2.61 1.774.339-.34.01-1.349-.732-2.243-1.287-1.551-1.564-2.369-2.342-6.923-.188-1.1-.452-2.45-.586-3-.736-3.011.03-3.776 1.998-1.994 2.724 2.465 3.69 1.19 1.077-1.423-1.233-1.233-1.573-2.089-.833-2.098.84-.011.898-.257.177-.75-1.61-1.103-1.354-8.421.273-7.797.85.327 1.3-.355 1.3-1.969 0-1.358-.373-2.469-.828-2.469-1.046 0-3.373-9.865-2.616-11.09.309-.501 1.21-.91 2.003-.91.793 0 1.441-.45 1.441-1s-.477-1-1.059-1-.798-.422-.479-.939c.319-.516-.217-1.402-1.191-1.969-1.424-.829-1.477-1.067-.271-1.214.825-.1 1.95-.287 2.5-.415s1.788-.284 2.75-.348c3.916-.258 1.41-2.123-3-2.233-4.24-.106-4.428-.201-1.75-.882 3.156-.803 2.53-1.344-1.209-1.045-1.605.129-2.639-.729-3.781-3.139-5.767-12.165-8.419-16.343-14.128-22.252-.615-.637-1.433-2.149-1.817-3.361-.424-1.333-1.515-2.203-2.764-2.203-1.135 0-4.022-1.958-6.415-4.351s-4.554-4.148-4.802-3.9c-.248.248-.979.125-1.624-.274-.885-.547-.865-.915.079-1.499 2.35-1.452.197-4.273-2.804-3.675-3.153.628-6.235-1.228-6.235-3.755 0-.953-.9-1.969-2-2.256-1.276-.334-2-1.364-2-2.848 0-3.102-1.721-4.004-3.892-2.04-2.405 2.177-4.524 2.088-3.602-.152 1.944-4.721 2.157-4.281-6.693-13.846-1.478-1.597-3.283-3.354-4.011-3.904-9.345-7.064-13.433-11.447-9.138-9.799 1.059.407 1.42.244.994-.446-.369-.596-.105-1.274.586-1.507 1.577-.531-.791-3.748-2.759-3.748-1.699 0-2.693-2.763-1.179-3.273.868-.292.787-.895-.298-2.209-1.376-1.665-1.317-1.751.75-1.095 1.287.409 2.242.292 2.242-.274 0-.542.303-1.775.674-2.741.504-1.314.283-1.605-.879-1.16-1.935.743-3.795-1.022-3.795-3.601 0-1.856.094-1.845 1.894.231l1.894 2.184 2.188-2.781c1.223-1.555 1.945-2.01 1.637-1.031-.604 1.92-.114 2.046 2.887.738 1.943-.847 1.936-.891-.25-1.546-2.388-.717-2.9-1.922-1.25-2.942 2.659-1.644.969-3.717-2.5-3.066-3.356.63-4.79-.519-2.451-1.964.609-.377.689-1.134.19-1.809-.541-.732-.005-1.978 1.452-3.375 2.195-2.105 2.309-2.119 2.309-.269 0 1.982 3.647 3.601 6.198 2.75.706-.235 1.887.175 2.624.912.736.737 1.723 1.102 2.192.812.469-.29.815.831.767 2.491-.053 1.895-.612 3.018-1.501 3.018-.952 0-1.211-.643-.79-1.968.573-1.806.373-1.88-2.433-.902-3.302 1.151-4.115 2.87-1.357 2.87 1.322 0 1.433.267.5 1.2-2.211 2.211-1.23 2.723 1.924 1.003 2.371-1.293 3.234-1.402 3.583-.453.253.688.947 1.25 1.543 1.25s.773-.311.393-.69c-.38-.38.491-1.173 1.934-1.763l2.624-1.073-2.737-2.737c-1.558-1.559-2.167-2.737-1.413-2.737.748 0 .055-1.323-1.596-3.047-2.231-2.329-2.609-3.24-1.601-3.863.725-.448 1.21-1.664 1.079-2.702-.24-1.887.887-5.444 2.023-6.388.989-.821 7.449-10.219 9.787-14.237 2.539-4.364 1.609-5.425-5.458-6.224-2.082-.235-4.91-.713-6.285-1.062-1.375-.349-3.491-.782-4.702-.963-1.212-.18-3.687-.796-5.5-1.368-8.064-2.545-14.371-3.059-18.801-1.533-3.044 1.049-4.516 1.165-4.992.396-.371-.601-3.111-1.288-6.09-1.528-2.978-.239-6.987-.895-8.908-1.458-4.329-1.268-4.277-1.27-3.412.132.443.715.275.883-.44.44-.635-.392-1.155-.184-1.155.463 0 .683.837.956 1.999.653 1.099-.288 2.243-.129 2.541.354.707 1.144-4.064 2.332-6.152 1.53-1.094-.42-1.463-1.423-1.141-3.107.262-1.369.088-2.488-.386-2.488-.473 0-.861.675-.861 1.5m83.631 75.288c-.829 1.341 3.841 2.13 16.799 2.841 12.158.666 12.358.717 10.721 2.689-1.241 1.496-.571 2.682 1.516 2.682.733 0 1.333-.9 1.333-2 0-2.823 10.981-3.072 11.032-.25.017.963.692 2.624 1.5 3.691.807 1.068 1.468 2.755 1.468 3.75 0 .995.675 1.809 1.5 1.809h2c.275 0 .538-.338.585-.75.047-.412.561-1.323 1.143-2.024 1.238-1.492.33-2.695-2.049-2.713-1.292-.01-1.653-.878-1.565-3.763l.114-3.75-4.614-.11c-2.538-.06-6.189-.234-8.114-.387-1.925-.153-8.675-.574-15-.936-6.325-.362-12.911-.903-14.635-1.202-1.725-.3-3.405-.109-3.734.423M234 242.931c-5.398 1.5-9 3.324-9 4.558 0 .712-1.151 1.583-2.557 1.936-1.938.486-2.412 1.097-1.959 2.524.328 1.036.21 2.122-.264 2.415-.474.293-.829 3.888-.791 7.989.039 4.101-.309 7.222-.773 6.935-.464-.287-.604 1.668-.31 4.345 1.336 12.18 2.044 16.003 3.302 17.84.744 1.084 1.352 2.667 1.352 3.517 0 .85 1.217 3.336 2.704 5.525 1.487 2.188 2.79 4.655 2.897 5.482.272 2.122 5.322 18.997 6.584 22.003 2.583 6.153 3.705 7.5 6.01 7.219 2.161-.263 2.193-.191.507 1.146-1.494 1.184-1.684 2.291-1.121 6.531.623 4.697.886 5.098 3.298 5.025 1.441-.043 2.087-.296 1.434-.562-.808-.329-.569-1.103.75-2.421 2.532-2.533 2.937-2.448 2.937.615 0 2.499.124 2.543 5.75 2.066 3.163-.268 5.898-.517 6.079-.553.182-.036.05-1.341-.292-2.899-.576-2.62-.396-2.834 2.376-2.834 1.65 0 2.824.284 2.609.631-.215.348.023 1.285.529 2.084.765 1.21.921 1.166.934-.267.009-1.041.555-1.511 1.386-1.192 1.468.563 3.007-2.168 2.073-3.679-.817-1.322.95-1.116 2.339.273.651.651 1.522.845 1.935.432 1.057-1.056-3.801-4.582-6.218-4.514-1.1.031-1.435.285-.744.563.691.279 1 .922.686 1.429-.313.507-1.324.168-2.247-.755-1.154-1.154-1.308-1.8-.492-2.072.651-.217.964-.969.695-1.67-.269-.702.206-1.853 1.056-2.558 1.132-.939 1.546-.966 1.546-.101 0 .649.518.861 1.151.469.795-.49.562-1.142-.75-2.1-2.485-1.815-2.633-5.098-.263-5.85 1.144-.363 1.862-1.529 1.862-3.023 0-2.628.662-2.944 3-1.433 1 .646 1.083.974.25.985-.687.008-1.25.465-1.25 1.015 0 .55.675 1 1.5 1s1.5-.62 1.5-1.378c0-.757.721-1.976 1.603-2.707 1.449-1.203 1.382-1.509-.697-3.192-2.799-2.267-1.055-3.946 3.305-3.183 3.153.552 5.029-1.906 4.117-5.393-.438-1.674-.212-2.04.975-1.584.943.362 1.955-.177 2.602-1.385.818-1.529.722-2.107-.423-2.547-.815-.312-1.482-1.342-1.482-2.287 0-1.371-.6-1.144-2.97 1.128-2.699 2.585-3.035 2.679-3.667 1.031-.473-1.231-.014-2.368 1.428-3.535 1.168-.946 1.859-1.984 1.536-2.308-1.178-1.177 6.674.096 8.152 1.322 1.224 1.017 1.521 1.017 1.521.001 0-.695.75-1.811 1.667-2.481 2.799-2.047 2.749-5.502-.079-5.502-2.156 0-2.289-.235-1.308-2.314l1.092-2.314 2.002 2.002c1.296 1.296 2.139 1.588 2.392.828.484-1.452-2.85-9.202-3.958-9.202-.445 0-.81-.562-.812-1.25-.003-.687-1.351-3.275-2.996-5.75s-2.993-5.187-2.996-6.027c-.002-.84-1.329-2.978-2.948-4.75-1.619-1.773-2.66-3.223-2.313-3.223s-2.281-1.756-5.84-3.903c-11.715-7.066-28.126-11.286-29.541-7.597-.317.825-.964 1.5-1.438 1.5-.473 0-.602-.675-.286-1.5.317-.825.126-1.5-.424-1.5s-1.259.675-1.576 1.5c-.316.825-1.025 1.5-1.575 1.5s-.741-.675-.425-1.5c.626-1.631-2.004-1.856-6.638-.569m175.967 75.319c-.019 8.938-.233 23.225-.475 31.75-.243 8.525-.712 27.2-1.041 41.5-.33 14.3-1.163 34.55-1.85 45-.688 10.45-.88 19.428-.426 19.95.454.523.882-1.727.953-5 .07-3.272.25-6.85.401-7.95.15-1.1.545-7.4.876-14 .331-6.6.847-16.275 1.147-21.5.3-5.225.563-12.535.584-16.245.021-3.709.456-7.003.967-7.319.511-.316.649-1.028.306-1.584-.343-.555-.563-18.974-.487-40.931.075-21.956-.102-39.921-.393-39.921-.291 0-.544 7.313-.562 16.25m-305.41 93.973c-3.811 5.44.165 11.658 6.966 10.892.563-.063 1.154-3.04 1.315-6.615l.292-6.5h-3.508c-2.492 0-3.96.644-5.065 2.223M62.311 428.41c-1.635.906-3.751.956-8.349.195-9.846-1.628-16.168 2.733-21.232 14.647-.644 1.514-1.972 3.007-2.951 3.318-4.503 1.429-10.254 13.836-9.585 20.678.257 2.63-.093 3.226-2.194 3.731-3.032.728-3.956 5.208-1.567 7.597.862.862 1.599 2.547 1.637 3.745.039 1.199.481 3.079.983 4.179.731 1.601.866 1.302.68-1.5-.213-3.195-.015-3.475 2.267-3.207 3.396.398 7.034 2.312 6.896 3.628-.3 2.868 1.36 5.612 2.715 4.487.752-.624 1.091-1.582.753-2.128-.376-.609.196-.737 1.473-.332 1.148.365 3.004.172 4.125-.428 3.563-1.906 2.45 1.758-1.212 3.991-3.656 2.229-6.75 2.591-6.75.789 0-.933-.267-.933-1.2 0-1.679 1.679-2.238 1.544-5.723-1.389-2.414-2.031-3.077-2.243-3.077-.985 0 2.313 5.896 5.566 10.095 5.57 3.96.004 6.031 1.755 7.696 6.504 1.045 2.981 1.052 2.984 1.13.389.111-3.677 4.558-2.796 6.689 1.325 1.422 2.748 1.663 2.849 3.291 1.376 2.198-1.989 4.099-2.047 4.099-.125 0 3.682-10.042 4.741-12.443 1.312-1.254-1.79-1.358-1.002-.904 6.85.626 10.831 3.54 21.973 7.652 29.259 3.356 5.947 4.765 5.611 2.202-.524-.879-2.104-2.021-8.26-2.537-13.68-.663-6.958-1.584-11.002-3.133-13.757-2.551-4.54-1.638-6.546 1.324-2.91 1.149 1.41 1.799 1.772 1.503.838-.65-2.05 5.074-3.219 7.273-1.486 1.178.928 1.305.78.703-.822-.698-1.857 1.989-8.545 3.432-8.545 1.302 0 3.964 3.796 5.306 7.566l1.401 3.934 1.06-2.682c1.001-2.534 1.243-2.618 4.36-1.52 1.816.639 3.459 1.254 3.653 1.367.194.113-.369 1.235-1.25 2.493-1.87 2.67-2.151 4.791-.402 3.042 1.618-1.618 6.507-1.525 7.5.143 1.253 2.103 6.1 4.899 7.256 4.184 1.985-1.226 1.022-2.303-4.456-4.983-6.694-3.275-8.065-7.248-2.116-6.132 3.917.735 4.921-.639 3.964-5.423-.775-3.874 2.233-4.221 3.677-.424 1.363 3.586 1.294 3.903-1.614 7.358-1.904 2.263-2.19 3.077-1.082 3.077.829 0 2.219.273 3.089.607 1.11.426 1.582.024 1.582-1.345 0-2.4 2.897-5.14 6.435-6.086 2.49-.666 2.224-.939-4.392-4.513-6.337-3.423-9.898-7.646-5.293-6.278.963.286 2.987.815 4.5 1.176s2.75.996 2.75 1.411c0 .416 1.933 1.021 4.295 1.345 2.363.324 5.063.883 6 1.243 1.447.555 1.705-.01 1.705-3.729 0-2.411.46-8.051 1.022-12.533 1.791-14.287 1.884-16.673.887-22.798-1.142-7.017-2.392-9.98-5.798-13.75L99.626 445h4.58c3.149 0 4.76.469 5.156 1.5.316.825 1.039 1.5 1.607 1.5.567 0 1.031-.675 1.031-1.5 0-2.328 10.537-2.107 11.95.25.999 1.667 1.113 1.667 2.41 0 1.842-2.369 13.397-2.547 14.29-.221.514 1.341.737 1.324 1.809-.142 1.497-2.047 11.171-1.495 12.724.726.748 1.071 1.085 1.102 1.476.137.331-.815 2.712-1.25 6.841-1.25 4.162 0 6.486.429 6.78 1.25.245.688.788.932 1.207.543.418-.389.519-1.335.224-2.103-.437-1.139-7.113-1.527-36.373-2.113l-35.838-.718-4-3.748c-2.2-2.061-5.125-4.509-6.5-5.44-10.127-6.856-9.654-6.675-17.23-6.573-3.999.054-8.255.644-9.459 1.312m-26.614 18.197c-6.849 4.483-14.625 19.465-12.167 23.442.474.767 2.634.887 6.832.379 7.541-.913 12.878-.659 13.687.652.336.543 1.368.697 2.292.343 1.258-.483 1.526-.239 1.063.966-1.115 2.907 5.405 2.124 6.742-.81.655-1.438 1.667-2.204 2.491-1.888.764.293 2.064-.028 2.889-.713 1.052-.873 3.677-1.069 8.773-.658 11.702.946 15.907 1.816 20.951 4.339 5.295 2.647 6.074 1.801 3.292-3.578-.895-1.73-1.241-4.164-.895-6.296.591-3.641-1.765-9.785-3.753-9.785-.58 0-3.381-1.519-6.225-3.377-5.414-3.536-14.903-5.672-16.16-3.637-.417.675-1.392.509-2.797-.475-3.008-2.107-11.302-2.022-12.126.125-.581 1.515-.762 1.515-2.436 0-2.589-2.343-8.039-1.918-12.453.971m103.635 35.643c-2.684 4.267-6.998 14.332-6.323 14.752.946.589 3.991 11.87 3.991 14.785 0 1.1.711 2.272 1.58 2.605 1.178.452 1.412 1.368.92 3.607-.415 1.888-.259 3.001.421 3.001.593 0 1.079.658 1.079 1.461 0 .857 1.641 1.904 3.967 2.53 2.182.588 4.418 1.842 4.969 2.789.691 1.185 1.013 1.293 1.034.348.024-1.082.336-1.119 1.471-.177.792.657 1.207 1.802.923 2.544-.626 1.631 1.299 5.505 2.735 5.505 1.203 0 .806-6.205-.455-7.125-.471-.343-.968-2.04-1.104-3.77-.321-4.073-.709-4.372-4.04-3.105-3.732 1.419-4.099.729-1.489-2.801 2.524-3.414 1.448-7.199-2.046-7.199-1.081 0-1.965-.45-1.965-1s.52-1 1.155-1c.662 0 .397-.837-.621-1.963-.977-1.079-1.532-2.599-1.233-3.378.298-.778.053-1.905-.546-2.504-.786-.786-.627-1.267.568-1.726 2.409-.924 2.265-16.256-.169-18.107-2.128-1.619-3.833-1.645-4.822-.072m23.257 5.827c-3.249 3.861-3.235 4.123.41 7.768 1.673 1.673 2.757 3.628 2.452 4.423-.301.784.143 3.406.986 5.828.844 2.422 1.54 4.937 1.548 5.589.008.652.531 2.452 1.161 4s1.076 3.94.989 5.315c-.243 3.889 2.423 10.798 3.128 8.103.546-2.089 3.737-3.024 3.737-1.095 0 .616.741.546 1.9-.178 1.045-.652 1.694-1.723 1.443-2.379-.252-.656.32-1.491 1.271-1.856 1.471-.565 1.219-1.089-1.693-3.522-3.393-2.835-3.406-2.875-1.516-4.965 1.881-2.081 1.878-2.108-.25-2.108-1.185 0-2.155-.45-2.155-1s.955-1 2.122-1c1.819 0 1.936-.225.815-1.576-.883-1.064-.967-1.796-.257-2.25 3.256-2.088 1.149-12.574-2.403-11.961-.938.161-2.191-.744-2.868-2.072-1.053-2.067-6.934-8.141-7.882-8.141-.192 0-1.514 1.385-2.938 3.077m23.448 9.068c2.496 2.428 5.056 5.751 5.69 7.384 1.607 4.142 6.966 32.288 8.3 43.592 1.395 11.817 2.094 13.527 5.871 14.357 3.873.85 6.439 5.341 4.537 7.941-1.689 2.311-6.833-.187-9.272-4.503-1.905-3.372-4.512-3.453-4.983-.156-.391 2.746-1.266 2.768-9.208.231-7.266-2.321-8.332-2.056-4.154 1.033 2.856 2.111 8.294 3.255 14.696 3.091 4.558-.116 6.139 4.095 4.478 11.923-.686 3.232-1.549 5.784-1.917 5.669-1.457-.451-7.075 5.288-7.075 7.228 0 1.136-.637 2.065-1.417 2.065-.779 0-1.567.452-1.751 1.004-.184.553-2.244 1.115-4.578 1.25-2.4.139-4.246.749-4.249 1.402-.003.636-.792.999-1.755.806-.963-.194-3.437-.622-5.5-.952-3.924-.629-4.997-2.863-2.55-5.31.79-.79.83-1.2.117-1.2-.596 0-1.361-1.013-1.7-2.25-.497-1.812-.797-1.97-1.543-.81-.51.791-2.189 1.608-3.731 1.815-3.342.447-4.305 1.724-4.334 5.745-.012 1.65-.654 4.213-1.428 5.696-1.033 1.98-1.098 2.822-.244 3.171.64.261.376.511-.587.554-.963.043-1.75.473-1.75.954 0 .806-7.866-2.543-9-3.832-.275-.313-1.85-1.021-3.5-1.573-2.948-.988-3.026-1.193-4.5-11.906-.918-6.673-1.985-11.061-2.75-11.315-.844-.281-1.25.742-1.25 3.149 0 2.968-.418 3.669-2.5 4.191-1.375.345-2.5.98-2.5 1.411 0 .431-1.125 1.066-2.5 1.411s-2.5 1.304-2.5 2.131c0 1.332-.266 1.33-2.33-.022-1.281-.84-2.589-1.267-2.907-.95-.317.318-1.947-.131-3.62-.996-1.674-.866-3.97-1.574-5.103-1.574-1.133 0-2.83-.9-3.772-2-.942-1.1-2.497-2-3.455-2-2.291 0-3.539-2.498-4-8.004-.34-4.047-.668-4.55-3.345-5.123l-2.968-.636 2.75-.119c3.09-.133 3.633-2.14 1.138-4.211-1.976-1.64-3.358-5.064-2.574-6.379.318-.535.461-2.599.318-4.586-.232-3.207 0-3.605 2.051-3.528 1.471.055 2.663-.709 3.274-2.099.529-1.201 1.999-2.657 3.267-3.235 2.094-.954 2.254-.842 1.739 1.211-.404 1.609.164 2.949 1.965 4.641 1.837 1.727 2.371 3.02 1.946 4.714-.404 1.61-.087 2.527 1.02 2.952.883.339 1.606 1.188 1.606 1.887 0 1.733 1.951 3.214 5.363 4.07 2.624.659 2.767.556 1.78-1.288-.59-1.102-.771-2.306-.401-2.675.369-.369-.322-.931-1.536-1.248-2.441-.639-2.737-1.413-1.148-3.002.745-.745.003-1.56-2.5-2.747-2.616-1.242-3.558-2.322-3.558-4.083 0-1.317-.498-2.702-1.107-3.078-.772-.477-.786-.882-.044-1.341 1.127-.696-4.156-12.315-5.873-12.918-2.167-.761-2.422-.528-2.566 2.333-.193 3.828-4.465 10.025-13.355 19.374-11.046 11.616-14.048 18.023-8.479 18.103.591.008 2.166 1.2 3.5 2.648 1.333 1.448 3.774 3.472 5.424 4.496 2.127 1.321 2.485 1.865 1.231 1.867-1.381.003-1.633.545-1.15 2.469.902 3.597-2.376 7.525-5.36 6.421-1.331-.492-2.221-.434-2.221.146 0 .533.45.968 1 .968s1 .675 1 1.5.338 1.404.75 1.288c.413-.117 1.875.417 3.25 1.187 1.375.771 5.65 1.538 9.5 1.706 12.54.546 14.952 1.346 15.313 5.079.205 2.114 1.072 3.628 2.5 4.364 6.357 3.274 7.506 7.253 2.937 10.176-.687.44-1.25 1.397-1.25 2.127 0 .731-.611 1.836-1.359 2.456-1.973 1.637-8.028-3.728-6.639-5.883.532-.825.974-1 .983-.389.009.645 1.066.911 2.515.634 1.375-.263 2.5-.703 2.5-.978 0-1.341-7.337-10.26-9.751-11.853-2.698-1.781-12.651-2.848-16.499-1.77-2.006.563-2.372 3.961-.5 4.648.947.347.97.756.096 1.687-.894.952-1.548.397-2.908-2.468-1.362-2.871-1.942-3.362-2.594-2.197-1.013 1.81-4.844 1.074-4.844-.931 0-.76-.45-1.383-1-1.383s-1 .45-1 1c0 2.05-2.556.889-4.128-1.875-1.616-2.842-7.937-5.021-8.705-3.001-.184.482-1.196.876-2.25.876-2.803 0-2.34 1.889.752 3.064 3.459 1.315 5.26 3.757 5.299 7.186.037 3.182 2.851 3.788 5.462 1.177 1.733-1.733 5.07-1.566 5.07.253 0 .634.289 1.442.641 1.795 1.511 1.511-.332 4.288-2.477 3.732-4.631-1.201 6.278 9.459 11.836 11.565 4.157 1.575 10.5 1.386 10.5-.313 0-4.071 4.795-1.69 7.628 3.789 1.36 2.63 1.754 2.752 8.898 2.752 4.111 0 7.474-.337 7.474-.75-.001-.413 3.151-.682 7.002-.6 7.712.166 8.941-.487 5.974-3.171-2.659-2.407-2.488-3.299.524-2.724 1.834.351 2.5 1.113 2.5 2.862 0 1.668.566 2.383 1.885 2.383 1.037 0 2.607 1.102 3.489 2.448 3.424 5.226 18.45 8.618 20.576 4.646.574-1.072.788-2.614.476-3.427-.864-2.251 5.538-3.437 7.091-1.313.666.911 2.406 1.52 4.073 1.426 1.6-.091 5.33.197 8.288.639 3.845.575 5.183.489 4.696-.3-.375-.607-.298-1.789.171-2.628.7-1.25 1.275-.955 3.189 1.634l2.336 3.16-2.809-.706c-2.47-.619-2.653-.515-1.513.858.713.86 2.762 1.563 4.552 1.563 1.79 0 3.847.713 4.571 1.585 1.408 1.697 3.952 1.538 9.929-.62 9.018-3.257 9.542-4.302 6.058-12.085-1.924-4.296-1.924-4.357 0-6.148 1.068-.996 1.942-2.402 1.942-3.125 0-.723 1.093-2.494 2.428-3.935 1.335-1.441 3.206-3.937 4.157-5.546 2.063-3.493 9.737-4.742 19.915-3.243 5.624.828 8.524.69 5.393-.258-16.602-5.023-20.41-6.611-20.723-8.639-.214-1.389-.827-1.937-1.75-1.562l-2.92 1.183c-.963.39-1.5.032-1.5-1 0-.884-.45-1.607-1-1.607s-1-.9-1-2-.47-2-1.044-2c-1.467 0-.753-3.268 1.015-4.648 1.156-.902 1.847-.715 3.224.873 1.135 1.308 2.488 1.83 3.834 1.478 1.162-.304 5.207.745 9.163 2.376 3.896 1.607 7.448 2.921 7.893 2.921 3.213 0 17.968 6.419 17.508 7.617-.652 1.701.586 1.804 2.207.183 1.606-1.606 1.525-4.738-.139-5.377-.909-.349-1.358-2.495-1.397-6.688-.049-5.196.141-5.902 1.199-4.455 2.146 2.935 4.789 1.931 11.934-4.537C284.905 570.327 320 525.388 320 521.068c0-.496.391-1.051.868-1.235 1.761-.676 2.363-4.833.699-4.833-2.319 0-2.006-.676 2.933-6.321 2.475-2.83 4.5-5.432 4.5-5.783 0-.779-9.197-1.713-18-1.828-3.575-.046-11.675-.544-18-1.106a4110.118 4110.118 0 0 0-14.75-1.291c-1.788-.148-3.25.117-3.25.589s-.507.545-1.126.162c-1.056-.653-11.571-1.745-14.874-1.545-4.789.29-24.412-.014-25.016-.387-.929-.574-25.817-2.54-37.484-2.96-4.95-.178-10.35-.656-12-1.062-2.946-.724-2.919-.658 1.537 3.677M66.532 523.102c.367 1.156 1.463 4.868 2.435 8.25 2.746 9.552 6.036 15.897 7.93 15.292.882-.282 3.239-1.119 5.239-1.86l3.636-1.348-1.886-2.329c-2.57-3.173-2.368-6.716.549-9.633 2.239-2.239 1.908-4.422-.449-2.965-2.394 1.479-12.014-1.627-14.201-4.585-2.522-3.412-4.21-3.838-3.253-.822m-9.396 30.648c-.088 1.45-.776 2.25-1.936 2.25-.99 0-2.228.418-2.75.928-.522.511-3.425 1.897-6.45 3.081-3.025 1.183-7.3 3.488-9.5 5.121-2.2 1.634-6.164 4.305-8.809 5.936-4.511 2.781-4.791 3.198-4.5 6.7l.309 3.734 5-.139c2.75-.077 9.344-.189 14.653-.25l9.652-.111 2.183-7.187c1.592-5.242 2.002-8.392 1.515-11.64-.446-2.976-.28-4.693.502-5.176.644-.398.967-1.797.719-3.11-.439-2.323-.455-2.326-.588-.137m2.456 15.559c-2.292 1.676-3.9 9.636-2.086 10.332 2.884 1.106 10.002-.111 9.595-1.641-1.613-6.059-1.407-6.999 1.536-7.03 2.449-.026 2.607-.18 1.093-1.061-.974-.567-2.661-.748-3.75-.403-1.129.359-1.98.17-1.98-.439 0-1.463-2.244-1.34-4.408.242m2.658 12.353c-2.165.874-1.37 2.313 2.225 4.028 2.893 1.379 3.377 2.053 2.884 4.015-.749 2.987 2.778 6.295 6.712 6.295 1.521 0 3.5.282 4.398.626 1.364.524 1.517.154.927-2.25-.388-1.582-1.086-3.026-1.551-3.209-.465-.184-.845-1.21-.845-2.282 0-2.381-2.53-3.52-4.391-1.976-1.07.889-2.032.373-4.456-2.388-3.11-3.542-3.61-3.784-5.903-2.859" fill="#d3d3d3" fill-rule="evenodd"/></svg>