<svg xmlns="http://www.w3.org/2000/svg" width="500" height="695"><path d="M0 38.5C0 64.12.343 77 1.025 77c2.084 0 2.601-5.029 2.81-27.344.228-24.394.665-26.596 5.603-28.258 4.152-1.397 5.225 2.178 5.939 19.787 1.723 42.553 2.758 60.748 3.736 65.639 1.33 6.655-.354 9.176-6.128 9.176-2.038 0-5.794.286-8.345.636l-4.64.636v6.757c0 5.072.373 6.9 1.494 7.33 2.295.881 5.499 6.789 5.499 10.141 0 3.352-3.204 9.26-5.499 10.141-2.485.953-2.233 112.019.256 112.67 1.667.435 1.667.463 0 .573-2.494.165-2.739 133.269-.25 135.759 1.922 1.921 1.922 4.258 0 4.995-2.477.951-1.96 8.151.75 10.452L4.5 418l-2.25 1.91C.083 421.75 0 422.436 0 438.482c0 13.476.287 16.948 1.5 18.161.825.825 1.5 1.932 1.5 2.46s-.675 1.219-1.5 1.535C.179 461.145 0 475.125 0 578.107V695h231.749l3.785-3.467 3.786-3.468 10.623.608c6.211.355 13.31.149 17.09-.496 10.767-1.839 45.861-2.215 59.967-.643 21.503 2.396 131.73 2.521 135.349.154 1.524-.997 4.657-2.157 6.961-2.577l4.19-.764-6.25-1.805c-11.49-3.319-5.142-5.06 10.739-2.945l4.489.597-2.224 1.802c-2.797 2.264-2.302 2.465 10.043 4.08l9.602 1.256.38 3.584c.209 1.971.344-93.391.3-211.916-.043-118.525-.198-200.47-.343-182.1-.222 28.141-.497 33.573-1.746 34.5-2.275 1.688-3.385 16.703-2.435 32.951.766 13.104.688 14.294-1.048 16.148-3.206 3.423-3.768 6.503-2.693 14.744.726 5.558.69 8.803-.125 11.5-1.123 3.715-5.968 54.164-6.315 65.757-.099 3.3.161 13.875.577 23.5.823 19.039.63 20.21-4.477 27.269-6.45 8.913-7.826 11.702-8.522 17.267-.783 6.269-.06 7.421 4.676 7.449 3.209.018 4.668 1.645 5.477 6.11.34 1.873 1.281 5.789 2.091 8.703 1.471 5.289 1.374 22.662-.141 25.113-.37.599-2.194 1.089-4.053 1.089-3.458 0-7.327-2.758-15.915-11.346-2.035-2.035-5.474-4.82-7.643-6.19-2.169-1.369-3.944-2.865-3.944-3.324 0-.744-12.426-11.488-20.978-18.14-1.768-1.375-5.101-4.3-7.407-6.5-6.675-6.369-22.591-19.5-23.636-19.5-2.728 0-10.477-15.698-11.963-24.234-.6-3.446-1.746-9.641-2.547-13.766a31935.3 31935.3 0 0 1-3.462-17.889c-1.104-5.714-2.007-12.299-2.007-14.634 0-2.334-.92-11.138-2.044-19.563-2.983-22.358-2.644-25.527 3.105-29.053 4.524-2.775 4.71-2.799 23.276-3.017 16.147-.189 18.94.005 20.344 1.408 2.16 2.161 3.234 18.925 2.034 31.748-.757 8.074-.598 20.403.86 67 .209 6.68 1.743 14.988 3.855 20.876.864 2.406 1.57 5.381 1.57 6.61s1.147 3.925 2.548 5.99c1.401 2.065 2.81 5.064 3.13 6.664.32 1.6 2.661 5.112 5.202 7.805 5.712 6.052 10.375 7.357 15.254 4.267l3.167-2.005-3.01-1.556c-3.17-1.64-5.204-5.47-5.125-9.651.026-1.375-.9-6.274-2.059-10.887-1.159-4.613-2.107-9.414-2.107-10.669 0-3.699-.982-5.261-2.98-4.739-1.96.513-3.374 4.208-2.492 6.508.859 2.238 1.066 18.787.236 18.787-.42 0-.764-1.136-.764-2.525 0-1.737-.741-2.806-2.375-3.428-1.676-.637-2.579-1.988-3.066-4.586-.476-2.535-1.332-3.85-2.748-4.221-1.874-.49-2.007-1.081-1.5-6.639.305-3.355.023-21.759-.628-40.896-.65-19.137-.877-35.562-.503-36.5.374-.938.731-7.33.793-14.205.216-23.676 1.108-25.099 15.892-25.337 9.604-.154 10.33-.318 13.828-3.11 2.031-1.62 5.943-3.53 8.694-4.243 6.92-1.795 6.993-1.942 5.723-11.379-.61-4.537-1.114-12.34-1.12-17.34-.008-7.576-.425-9.983-2.5-14.44-1.369-2.942-2.49-6.588-2.49-8.101 0-1.514-1.052-4.732-2.337-7.151-1.922-3.618-2.461-6.595-3.035-16.764-.824-14.606-2.242-18.908-6.514-19.762-1.636-.327-3.908-1.589-5.05-2.804l-2.075-2.21 2.255-2.056c1.241-1.131 3.831-2.58 5.756-3.22 1.925-.64 5.036-2.477 6.913-4.083l3.414-2.919.715-13.29c.393-7.31 1.19-15.991 1.772-19.291 2.362-13.392 3.143-26.259 3.097-51.004-.034-18.371.312-26.883 1.18-29 .779-1.899 1.392-10.685 1.675-23.996.472-22.248.755-23.5 5.309-23.5 3.354 0 4.91 4.022 4.919 12.71.007 6.446 4.633 25.393 6.566 26.893 1.187.922 1.471 9.312 1.725 51 .184 30.407.3 21.27.295-23.391-.005-40.308-.25-73.639-.544-74.069-.905-1.319-9.55-5.144-11.602-5.132-1.064.006-4.143.681-6.843 1.5-5.551 1.684-18.153 2.007-19.091.489-.34-.55.253-1 1.319-1 1.065 0 2.547-.736 3.294-1.637.747-.9 3.165-2.482 5.373-3.516 8.926-4.181 14.211-9.247 21.486-20.597 1.851-2.887 3.908-5.25 4.571-5.25 2.139 0 2.457-5.588 2.457-43.125V0h-42c-26.79 0-42 .355-42 .981 0 1.169 4.778 2.218 16 3.513 1.925.222 5.156.697 7.179 1.056 2.22.394 6.212.017 10.064-.949C460.086 2.133 468 2.564 468 5.568c0 1.362-4.073 2.761-11.5 3.951-2.2.352-8.725 2.434-14.5 4.627-11.342 4.305-14.042 6.494-18.485 14.979-1.332 2.544-3.166 4.911-4.075 5.26-1.176.451-1.476 1.335-1.041 3.067 1.049 4.181-1.269 7.521-6.119 8.818-5.216 1.395-5.813 2.942-4.862 12.599.787 7.984.169 10.131-2.918 10.131-2.333 0-3.5-1.683-3.5-5.048 0-1.036-.752-3.462-1.672-5.391-1.379-2.89-1.498-4.471-.677-8.996 1.377-7.599-.603-9.944-4.912-5.815l-2.85 2.731-3.893-2.241c-4.457-2.565-9.784-2.872-14.345-.827-4.575 2.051-24.903 7.587-27.86 7.587-1.387 0-3.665.9-5.064 2-1.845 1.451-4.057 2-8.063 2-4.812 0-7.166.834-18.342 6.497-7.052 3.574-13.386 6.499-14.076 6.5-.689.002-2.932.903-4.985 2.003-2.052 1.1-4.425 2-5.274 2-.848 0-2.542.7-3.764 1.556-3.64 2.55-11.53 4.225-14.312 3.04-3.068-1.308-9.1-5.962-33.821-26.096-2.702-2.2-6.414-5.093-8.251-6.429-11.944-8.689-10.484-16.419 2.378-12.599 8.928 2.651 21.764 1.695 19.762-1.472-2.76-4.365 1.495-4.923 41.499-5.439 38.15-.491 38.522-.542 38.522-5.205 0-3.146-13.111-3.331-32.5-.458-8.932 1.323-18.887 1.338-24 .036-2.2-.56-13.675-1.188-25.5-1.396-16.835-.295-22.317-.724-25.268-1.978-2.518-1.071-6.332-1.549-11.5-1.444-7.824.16-17.343-.542-22.395-1.652-2.893-.635-6.481-5.948-4.743-7.022.513-.317 4.633-.883 9.157-1.259 6.712-.557 8.287-1.005 8.561-2.433C203.127.103 200.318 0 155.073 0 122.267 0 107 .332 107 1.047c0 .575 1.347 1.813 2.994 2.75 1.646.936 2.996 2.052 3 2.478.02 2.481-15.1 3.776-20.429 1.75C90.481 7.232 90 6.388 90 3.525V0H79.5C70.056 0 69 .181 69 1.8c0 .99.501 2.301 1.113 2.913.816.816.617 1.791-.75 3.664-3.577 4.899-23.94 1.913-21.828-3.201C49.492.436 49.351-.001 45.867.018c-3.309.018-3.408.147-5.747 7.537-1.309 4.135-2.126 7.772-1.815 8.083.31.31 3.285.885 6.611 1.278 7.294.86 7.712 1.195 5.567 4.47-2.195 3.35-7.57 4.442-10.952 2.226-3.26-2.136-4.787-2.033-6.323.427-.7 1.121-1.709 1.77-2.241 1.441-1.568-.969-1.099-4.76.978-7.911 1.251-1.897 1.741-3.889 1.39-5.646-.387-1.935.061-3.319 1.561-4.819C36.053 5.947 37 3.875 37 2.5V0H0v38.5m216.75-17.363c-7.379 2.089-2.67 3.651 12.047 3.997 7.41.175 9.744-.64 8.342-2.91-1.043-1.686-15.542-2.459-20.389-1.087m138.75-.672c-.55.204-2.687.653-4.75.998-3.307.554-5.432 2.537-2.718 2.537.568 0 2.705.703 4.75 1.561 3.269 1.373 3.5 1.685 1.915 2.58-2.14 1.208-24.242 1.97-52.697 1.817-20.458-.11-26.541.579-23.838 2.702 2.817 2.211 7.745 3.227 11.053 2.278 4.353-1.248 21.343-1.189 25.95.091 2.429.675 5.134.688 8.028.04 2.889-.648 7.226-.628 12.835.058 4.66.57 10.441 1.274 12.848 1.565 2.443.296 8.195-.246 13.028-1.227 7.563-1.536 9.468-1.593 15.124-.457 3.56.716 8.586 1.381 11.169 1.48 2.583.098 5.395.759 6.25 1.468 2.019 1.676 4.101.056 4.87-3.789.599-2.998 5.683-6.397 5.683-3.801 0 2.256 3.505 4.634 6.829 4.634 2.695 0 3.171-.366 3.171-2.441 0-4.525-6.71-6.146-29.5-7.126-12.707-.546-16.617-1.056-19-2.476-3.014-1.797-9.135-3.184-11-2.492m101 4.95c-2.75.655-6.673 1.955-8.718 2.888-2.045.933-4.127 1.697-4.627 1.697-.501 0-1.509.722-2.241 1.604-.733.882-2.376 2.001-3.653 2.487-5.435 2.066-8.97 22.189-6.044 34.409.395 1.65.998 5.649 1.34 8.887.57 5.401 1.039 6.304 5.69 10.956l5.07 5.069 6.591-.008c9.721-.013 16.227-3.335 25.471-13.008 7.136-7.468 7.454-8.015 10.138-17.457 3.293-11.583 3.189-24.032-.267-31.939-1.934-4.426-2.076-4.521-8.582-5.75-7.885-1.49-13.409-1.445-20.168.165m-324.211 6.497c-.984 1.051-3.483 2.228-5.553 2.614-2.07.386-4.095 1.213-4.5 1.838-1.319 2.036-13.372 11.92-16.595 13.608C101.961 51.9 96 57.06 96 58.318c0 .48-.885 2.116-1.966 3.634-1.79 2.513-2.404 2.719-6.851 2.292-3.582-.345-6.158.093-9.661 1.643-5.546 2.453-18.509 3.057-18.539.863-.009-.687-1.809-3.017-4-5.176-2.191-2.159-3.983-4.44-3.983-5.07C51 54.444 43.89 47 41.922 47c-2.304 0-2.293-.096-.452 4.128.808 1.855 5.196 7.068 9.75 11.586l8.28 8.215 7.868.953c8.699 1.054 9.827 1.654 9.007 4.793-.779 2.976-9.411 4.755-11.925 2.456-.522-.477-3.2-1.678-5.95-2.669-5.418-1.952-8.5-4.101-8.5-5.929C50 69.084 44.574 65 42.649 65c-.788 0-1.719 1.143-2.07 2.541-.351 1.397-1.037 2.294-1.526 1.992-.511-.316-.467-2.071.103-4.135 1.276-4.623.655-5.112-3.098-2.439-3.251 2.315-3.778 3.921-1.9 5.799.876.876.824 1.559-.218 2.814-1.193 1.437-1.081 1.896.842 3.453 2.605 2.109 2.834 4.219.654 6.028-.973.807-1.35 2.152-.998 3.555.679 2.706-2.275 4.085-5.293 2.47-1.701-.911-2.01-.613-2.592 2.491-1.22 6.503.903 14.738 2.947 11.431 1-1.618 4.1-1.151 6.639 1l2.361 2-2.271 1.928c-3.175 2.694-1.462 3.287 7.001 2.424 3.998-.408 8.17-.696 9.27-.641 1.1.056 6.725.301 12.5.544 7.863.332 11.714.983 15.333 2.594 2.658 1.183 5.842 2.151 7.076 2.151 2.109 0 6.591-3.686 6.591-5.421 0-.435 1.35-2.496 3-4.579 1.65-2.083 3-4.517 3-5.409 0-.891 1.237-2.404 2.75-3.361 3.13-1.981 8.095-6.46 19.093-17.226C133.537 65.557 135.723 64 140.099 64c2.436 0 4.472.68 5.612 1.876.984 1.032 2.801 2.187 4.039 2.567 3.159.971 2.808 2.745-.5 2.526-9.017-.594-9.674-.312-19.896 8.531-5.403 4.675-10.114 8.5-10.468 8.5-.354 0-1.196 1.334-1.871 2.964s-2.755 3.865-4.621 4.966c-3.043 1.795-3.394 2.459-3.394 6.414 0 2.666-.583 4.895-1.474 5.634-.81.673-1.767 2.865-2.126 4.872-.359 2.008-1.332 4.427-2.161 5.377-1.855 2.125-2.214 8.899-.503 9.498.679.238 1.778-.841 2.44-2.396.663-1.556 1.974-3.729 2.913-4.829 4.455-5.217 8.99-15.941 8.356-19.759-.6-3.616-.535-3.726 1.716-2.878 2.468.93 6.179.014 7.303-1.805.368-.594 3.114-2.645 6.102-4.557 2.989-1.912 5.434-3.932 5.434-4.489 0-.556 1.688-1.007 3.75-1.001l3.75.011-3.5 2.706c-4.87 3.765-10 9.404-10 10.992 0 1.589 4.058 3.28 7.869 3.28 1.793 0 3.799 1.122 5.81 3.25l3.07 3.25.595 19.754c.361 11.977 1.266 23.253 2.299 28.642 1.681 8.772 1.675 8.967-.47 14.849-2.61 7.16-2.727 10.509-.495 14.286 1.427 2.417 1.499 3.436.478 6.843-.661 2.206-.916 5.774-.568 7.95.606 3.793.453 4.079-3.929 7.312-2.507 1.85-5.008 4.602-5.557 6.114-1.343 3.701-2.671 3.471-6.968-1.207-3.615-3.936-3.646-3.947-6.027-2.138-3.341 2.54-2.24 6.07 2.593 8.318 3.269 1.52 3.894 1.55 5.33.25 2.954-2.673 6.97-1.909 6.97 1.327 0 1.54-.464 3.264-1.031 3.831-.709.709-.55 2.882.508 6.941 1.526 5.861 1.517 5.955-1.219 11.655-1.517 3.161-3.32 5.753-4.008 5.76-.687.007-1.25.463-1.25 1.013 0 .55-1.36 1-3.023 1-2.952 0-2.987-.056-1.467-2.375 1.454-2.219 1.423-2.409-.477-2.906-1.488-.389-2.033-.049-2.033 1.268 0 .989-.562 2.007-1.25 2.262-2.08.77-8.228-1.811-8.576-3.601-.476-2.448 2.44-10.474 5.677-15.625l2.814-4.477-1.931-3.273c-1.063-1.8-2.353-3.273-2.868-3.273-1.984 0-6.038 3.434-7.553 6.398-.872 1.706-3.099 4.791-4.949 6.855-2.698 3.009-3.365 4.594-3.37 8-.004 2.336-.679 5.536-1.5 7.111-3.449 6.613-.259 17.77 5.506 19.259 2.985.771 6 3.222 6 4.877 0 .655.886 1.991 1.968 2.971 1.484 1.343 1.73 2.225 1 3.589-.532.995-.968 2.893-.968 4.219 0 3.757-3.273 6.101-7.55 5.407-3.848-.625-18.316-7.413-22.45-10.534-3.465-2.615-13.571-9.335-16.814-11.18-6.918-3.936-15.103-9.596-19.301-13.348C38.56 241.715 35.534 239.866 33.2 242.2c-3.013 3.013-1.287 5.962 10.94 18.676a9576.182 9576.182 0 0 1 17.25 17.979c2.81 2.946 7.449 7.221 10.308 9.5 2.859 2.28 9.931 7.97 15.714 12.645 5.784 4.675 12.62 10.075 15.191 12 2.571 1.925 6.975 5.405 9.786 7.733 2.811 2.328 7.445 5.792 10.297 7.697 6.104 4.076 8.059 6.967 6.216 9.189-2.582 3.11-4.705 3.487-10.787 1.911-6.651-1.724-14.378-1.995-16.992-.596-1.222.654-3.824.206-8.684-1.496-3.816-1.336-8.106-2.431-9.532-2.434-1.427-.002-5.252-.95-8.5-2.106-5.649-2.009-15.744-4.386-23.57-5.548-5.723-.849-5.95.331-4.432 23.028.724 10.822 1.581 19.941 1.905 20.266.989.989 15.79 4.46 22.69 5.321 3.575.446 16.175 1.122 28 1.503 13.149.423 24.188 1.289 28.421 2.231 6.297 1.4 15.908 1.306 17.385-.172.294-.294-.419-1.551-1.586-2.793-2.04-2.171-2.128-3.264-2.305-28.531-.167-23.967-.347-26.483-2.049-28.646-2.498-3.176-2.592-11.064-.144-12.004 1.087-.417 1.327-.917.651-1.357-2.01-1.307-1.166-4.196 1.226-4.196 2.751 0 3.846-2.816 2.951-7.587-.703-3.747-3.55-4.806-3.55-1.319 0 1.24-.801 2.303-1.967 2.608-1.082.282-2.245 1.39-2.585 2.461-.716 2.258-2.798 1.943-3.271-.496-.184-.944.311-1.667 1.141-1.667.806 0 1.744-1.112 2.085-2.471.342-1.359 1.515-2.95 2.609-3.535 2.338-1.251 2.63-5.21.539-7.301-1.222-1.221-1.238-1.738-.107-3.286.85-1.163 1.052-2.602.55-3.922-.436-1.148-.582-3.19-.324-4.54.387-2.026-.083-2.663-2.7-3.65-3.436-1.297-3.573-3.158-.322-4.361 1.511-.559 2.934.003 5.449 2.153 4.254 3.635 7.635 3.83 8.474.487 1.123-4.473 3.891-6.052 8.298-4.731 2.125.636 4.863 1.157 6.086 1.157 1.32 0 4 1.828 6.597 4.5 2.405 2.475 5.204 4.5 6.22 4.5 1.015 0 2.719.661 3.787 1.468 1.067.808 3.842 1.483 6.165 1.5 5.451.041 7.432-3.139 6.051-9.714-1.429-6.809-6.75-7.952-10.158-2.183-.952 1.611-2.076 2.929-2.499 2.929-2.996 0-7.118-9.699-7.118-16.749 0-1.574-1.094-4.346-2.432-6.159-2.032-2.754-2.253-3.69-1.341-5.69.862-1.893.759-2.761-.492-4.148-1.376-1.525-1.398-2.006-.167-3.684 1.234-1.683 1.206-2.162-.221-3.739-1.39-1.536-1.665-4.93-1.829-22.57-.106-11.418-.648-21.886-1.206-23.261-.557-1.375-.899-8.125-.759-15s-.101-12.95-.536-13.5c-1.327-1.679-2.091-8.833-1.26-11.806l.783-2.807 2.073 2.807c1.14 1.543 2.407 4.59 2.816 6.771.408 2.181 1.449 5.331 2.313 7 1.46 2.821 1.922 12.737 1.131 24.284-.148 2.151.487 4.01 1.878 5.5 2.051 2.198 2.988 4.684 3.675 9.751.552 4.071 2.683 8.995 3.922 9.063.634.035.118.479-1.146.986-2.163.868-2.284 1.398-2.057 9.043.226 7.623.442 8.344 3.531 11.764 1.809 2.004 3.553 4.431 3.874 5.394.322.962 1.181 1.75 1.909 1.75s1.603 1.112 1.944 2.471c.342 1.359 1.515 2.95 2.609 3.535 2.279 1.22 2.515 3.896.767 8.728-1.472 4.071-.284 5.227 5.393 5.251 3.261.013 3.795.384 4.758 3.304.597 1.809 2.334 4.027 3.86 4.928 1.838 1.085 2.855 2.591 3.016 4.461.133 1.552.388 3.722.566 4.822.179 1.1-.17 2.812-.774 3.805-.87 1.431-.734 2.013.652 2.8.963.547 1.75 1.62 1.75 2.386 0 .765.404 1.641.897 1.946 1.591.983 7.103-.641 7.103-2.093 0-.774.675-1.666 1.5-1.982.825-.317 1.5-1.662 1.5-2.989 0-2.027-.399-2.34-2.5-1.959-1.375.25-2.5.059-2.5-.423s1.909-1.014 4.243-1.184c3.406-.246 4.482-.81 5.46-2.86.669-1.404 2.81-4.003 4.757-5.774 2.518-2.292 3.54-4.069 3.54-6.158 0-1.689.886-3.762 2.085-4.879 1.146-1.068 2.517-3.871 3.047-6.228.53-2.358 1.842-4.902 2.916-5.654 1.073-.752 1.952-2.367 1.952-3.588 0-1.222.609-3.109 1.354-4.193.745-1.085 2.626-4.898 4.181-8.473 4.006-9.212 4.842-10.11 5.501-5.913.784 5.002-.422 9.346-3.784 13.625-1.636 2.084-3.547 5.588-4.245 7.788-1.782 5.616-3.925 11.325-6.005 16-.979 2.2-2.066 5.642-2.417 7.65-.351 2.007-1.301 4.199-2.111 4.872-.811.673-1.474 1.973-1.474 2.89 0 .918-1.794 3.651-3.987 6.074-3.701 4.089-3.884 4.562-2.552 6.595 1.657 2.528 1.123 3.419-2.05 3.419-1.724 0-2.543.885-3.474 3.75-1.312 4.037-9.536 12.778-14.35 15.25-3.058 1.571-4.429 5-1.999 5 2.062 0 1.984 12.28-.088 14-.825.685-1.506 2.202-1.514 3.372-.031 4.848-1.133 6.628-4.103 6.628-3.185 0-3.347.264-1.864 3.035.768 1.435.522 2.829-1 5.669-1.189 2.217-2.019 5.663-2.019 8.376 0 3.34-.551 5.109-2 6.42-1.1.995-2.005 2.978-2.011 4.405-.006 1.427-.681 4.804-1.5 7.504-2.085 6.874-2.032 15.013.093 14.198.87-.334 1.77-.607 2-.607.23 0 .418-1.745.418-3.878 0-2.221.639-4.407 1.495-5.118.823-.683 2.027-3.014 2.676-5.182.65-2.167 1.978-4.367 2.953-4.888 1.272-.681 1.857-2.407 2.074-6.113.176-3.009.824-5.336 1.552-5.576 1.945-.641 1.633 9.764-.38 12.637-.896 1.279-2.037 4.142-2.536 6.36-.498 2.219-1.79 5.158-2.87 6.531-1.08 1.373-1.964 3.563-1.964 4.865 0 1.303-.9 4.048-2 6.101-1.1 2.052-2 4.5-2 5.439 0 .94-.892 2.333-1.982 3.097-1.09.763-2.102 2.476-2.25 3.806-.337 3.045 5.007 3.952 8.768 1.488 1.316-.863 3.614-1.569 5.106-1.569 1.491 0 6.431-1.8 10.976-4 4.545-2.2 8.718-4 9.273-4 .555 0 1.369-.562 1.809-1.25 2.143-3.349 5.104-3.79 7.094-1.058 1.42 1.949 2.41 2.44 3.812 1.89 2.561-1.004 11.812-1.666 23.894-1.709 10.576-.037 14.5-1.105 14.5-3.944 0-1.921-4.622-3.929-9.042-3.929-2.817 0-3.958-1.504-3.958-5.218 0-1.864.423-1.996 4.582-1.426 2.521.346 5.731 1.532 7.135 2.636s3.444 2.008 4.534 2.008c1.089 0 4.066.643 6.615 1.43 15.429 4.76 21.897 5.039 31.459 1.354l2.825-1.089-2.825-2.327c-1.554-1.28-4.625-2.829-6.825-3.442-6.411-1.786-15.096-7.536-16.499-10.924-.684-1.651-1.559-3.002-1.945-3.002-1.06 0-5.981-7.854-6.69-10.679-.343-1.365-1.219-2.711-1.946-2.99-.728-.279-1.83-2.043-2.449-3.919-.619-1.877-1.557-3.412-2.084-3.412-.527 0-1.788-1.913-2.803-4.25-1.015-2.338-3.239-5.825-4.943-7.75-4.849-5.481-8.306-11.128-7.73-12.629 1.019-2.655 3.48-1.319 6.686 3.629 1.782 2.75 3.542 5 3.911 5 .369 0 1.191 1.142 1.827 2.538.636 1.395 1.615 3.083 2.175 3.75 2.003 2.385 5.99 8.817 5.99 9.664 0 1.327 5.31 11.315 7 13.167.825.904 2.4 2.84 3.5 4.301 5.541 7.365 11.842 10.914 23.25 13.097 12.131 2.321 16.085 2.072 15.503-.975-.326-1.706-1.49-2.795-3.8-3.558-4.683-1.545-20.345-11.529-24.033-15.319-1.694-1.741-5.642-5.415-8.775-8.165-6.291-5.523-11.645-12.611-11.645-15.415 0-.999-.823-2.888-1.83-4.2-1.006-1.312-2.11-3.153-2.452-4.092-.342-.939-2.331-2.793-4.42-4.121-5.602-3.559-7.638-6.182-6.944-8.948.772-3.073-1.42-6.116-5.564-7.728-9.426-3.665-15.511-6.543-17.428-8.241-1.372-1.215-3.852-1.958-6.919-2.074-2.836-.107-4.951-.697-5.201-1.45-.323-.971.845-1.121 4.969-.636l5.39.633 2.117-4.364c1.165-2.4 3.989-9.539 6.277-15.864 6.402-17.704 6.919-18.991 10.522-26.171 1.854-3.694 3.685-8.429 4.069-10.523.384-2.093 2.257-7.631 4.164-12.306 1.907-4.675 4.955-13 6.775-18.5 1.819-5.5 4.018-11.35 4.885-13 .868-1.65 1.58-3.732 1.584-4.628.003-.895.669-2.177 1.48-2.85.81-.673 1.761-2.758 2.113-4.634.352-1.875 1.039-3.657 1.526-3.958.488-.301.887-1.667.887-3.034 0-1.368 1.156-3.642 2.568-5.055 1.412-1.412 2.958-3.594 3.435-4.849.559-1.47 2.404-2.792 5.182-3.714 5.393-1.79 6.189-5.088 2.562-10.616l-2.403-3.662 2.758-6.087c2.441-5.388 3.255-6.27 7.078-7.67 6.398-2.344 15.654-4.855 21.32-5.784 2.75-.451 10.625-1.756 17.5-2.9 24.428-4.064 26.876-4.306 36.345-3.596l9.37.702 3.744 4.48 3.744 4.479-1.225 6.688c-1.565 8.541-5.453 23.338-6.786 25.83-.565 1.055-1.481 5.194-2.036 9.197-.554 4.003-1.497 7.867-2.095 8.588-.598.72-1.534 6.031-2.081 11.801-.547 5.771-1.619 11.793-2.383 13.382-.764 1.59-1.701 5.59-2.081 8.89-.418 3.62-1.419 6.793-2.525 8-3.278 3.577-2.775 41.296.716 53.756 1.888 6.736 1.644 7.211-3.046 5.916-4.501-1.243-4.655-1.037-4.691 6.245-.024 4.62-.276 5.662-1.05 4.333-.561-.962-1.663-1.75-2.451-1.75-.787 0-1.715-1.132-2.062-2.516-.348-1.384-1.706-3.361-3.019-4.394-2.911-2.289-3.081-4.735-.388-5.59 1.1-.349 2.002-1.392 2.005-2.317.002-.926 1.577-3.396 3.5-5.489 3.94-4.29 4.679-9.075 1.745-11.302-2.487-1.888-2.949-1.729-3.703 1.277-1.493 5.949-2.92 6.719-6.411 3.458-1.959-1.83-3.136-3.905-3.136-5.528 0-2.667-.659-3.051-3.418-1.992-2.423.93-1.842 4.476 1.446 8.821 1.635 2.161 2.972 4.493 2.972 5.183 0 .69.851 1.524 1.892 1.855 2.336.741 3.482 4.453 1.599 5.176-1.345.516-7.491-3.366-7.491-4.731 0-1.263-7.242-5.032-8.638-4.496-1.487.57.14 5.585 1.812 5.585 1.897 0 10.93 10.269 11.488 13.061.676 3.378 6.656 10.354 10.654 12.428 2.619 1.359 2.684 1.321 2.684-1.548 0-2.652.319-2.94 3.25-2.935 7.135.012 13.851 3.577 16.672 8.849.814 1.521 2.098 2.145 4.413 2.145 1.796 0 3.863.563 4.594 1.25 1.093 1.028 1.214.761.681-1.5-.356-1.512-.4-2.75-.097-2.75 1.689 0 7.487 3.058 7.487 3.949 0 1.95 1.671 1.07 2.839-1.496 1.641-3.601 1.486-4.155-1.368-4.871-1.545-.388-3.156-1.951-4.143-4.021-1.036-2.173-2.986-4.005-5.439-5.111-2.765-1.247-4.132-2.656-4.934-5.087-.611-1.85-1.75-3.363-2.533-3.363a1.419 1.419 0 0 1-1.422-1.408c0-.774-1.129-3.586-2.508-6.25-1.416-2.734-2.522-6.583-2.54-8.842-.065-7.857 2.151-29.919 3.122-31.089.544-.655 1.417-4.953 1.941-9.551.675-5.919 1.451-8.725 2.66-9.61 2.171-1.59 3.325-1.59 3.326 0 .001.688 1.081 2.505 2.4 4.038 2.401 2.793 3.778 11.904 3.277 21.687-.122 2.391.29 3.569 1.322 3.775 2.345.469 2.143-35.168-.22-38.75-3.151-4.777-4.941-35.285-2.424-41.309 3.864-9.25 6.469-4.16 7.092 13.857.265 7.674.935 20.252 1.487 27.952 1.547 21.56 1.02 39.276-1.185 39.854-1.877.492-2.405 4.123-.748 5.147.551.341 1.44-.533 1.975-1.941.535-1.408 1.612-2.56 2.392-2.56 3.231 0 3.253 38.409.024 41.089-1.552 1.288-1.913 8.472-.47 9.363.508.314 1.214 1.895 1.569 3.513.356 1.617 1.586 4.136 2.735 5.597 1.268 1.611 2.04 3.966 1.964 5.989-.093 2.469.369 3.492 1.78 3.94 2.008.637 3.458 4.223 4.543 11.236 1.514 9.787 7.875 14.118 11.56 7.872 2.588-4.387 7.191-5.611 12.024-3.2 5.658 2.823 9.902 1.131 9.902-3.947 0-3.159-2.996-5.025-12.114-7.546C433.498 308.375 427 299.289 427 280.903c0-10.961 2.547-17.687 7.229-19.09 3.167-.949 3.706-1.487 3.224-3.226-1.242-4.479-2.824-6.659-4.391-6.048-2.996 1.168-3.455.941-4.138-2.039-1.246-5.438-.95-10.648.771-13.561 1.672-2.83 1.649-2.928-1.677-7.067-3.168-3.941-3.425-4.841-4.222-14.784-.468-5.824-1.517-14.863-2.333-20.088-.817-5.225-1.731-12.425-2.032-16-.626-7.433-2.286-14.913-3.723-16.767-.564-.729-.715-3.911-.353-7.5.551-5.475.206-7.439-2.84-16.154-2.007-5.742-3.231-10.862-2.907-12.155.345-1.372-.34-3.815-1.773-6.33l-2.335-4.096 2.211-4.08 2.212-4.08-2.522-3.995c-2.458-3.893-2.583-3.954-4.941-2.409-1.908 1.25-3.297 1.388-6.574.652-2.286-.514-5.107-.576-6.271-.138-1.163.438-3.099.429-4.301-.02-1.57-.586-2.883-.268-4.659 1.129-2.385 1.875-4.392 1.941-55.814 1.829-53.335-.117-59.841.179-59.841 2.72 0 2.882-5.189 2.875-7.671-.01-1.281-1.489-2.329-3.088-2.329-3.553 0-1.789 9.615-10.216 12.259-10.745 1.531-.306 3.001-.909 3.267-1.341.267-.431 2.587-1.802 5.156-3.045 5.161-2.498 4.334-3.686-2.682-3.856-1.925-.047-5.412-.751-7.748-1.565-4.219-1.47-4.279-1.457-8.516 1.777-5.462 4.17-8.531 5.05-33.736 9.681-7.905 1.453-10.516.486-11.579-4.286-.75-3.361-1.666-4.545-4.921-6.356-2.2-1.225-7.375-5.402-11.5-9.284-4.125-3.882-11.599-9.725-16.609-12.985-5.01-3.261-11.535-8.134-14.5-10.831-6.687-6.082-12.112-9.524-18.345-11.64-4.66-1.582-4.856-1.569-6.239.406-3.152 4.5-11.307 6.712-11.307 3.067 0-3.748 6.928-8.583 8.546-5.965.776 1.255 5.454-2.728 5.454-4.642 0-2.897-7.13-3.28-9.711-.521M158.084 79.5c-.011 2.2.64 4.874 1.448 5.941.807 1.068 1.475 3.093 1.484 4.5.009 1.408 1.022 4.33 2.25 6.495 2.302 4.057 2.462 4.134 15.734 7.602 4.017 1.049 19.238 1.264 23.875.337 2.339-.468 3.125-1.167 3.125-2.777 0-1.184.685-3.132 1.523-4.328 2.478-3.538-.568-4.304-15.981-4.02l-13.588.25-3.727-4.031c-2.05-2.217-4.525-5.255-5.5-6.75-1.245-1.91-2.623-2.719-4.628-2.719-1.829 0-3.419-.809-4.425-2.25-1.54-2.208-1.569-2.175-1.59 1.75m74.389 19.875c-1.085.756-3.855 1.69-6.155 2.076-2.471.415-6.767 2.507-10.5 5.115-3.475 2.427-6.94 4.417-7.7 4.423-.76.006-2.785.854-4.5 1.883-2.175 1.307-6.142 2.091-13.118 2.594-13.219.953-13.715.911-18.443-1.554l-4.068-2.12-2.049 2.354c-5.059 5.813-5.922 12.102-1.808 13.178 1.816.475 1.983 1.035 1.379 4.608-.747 4.423-.225 4.806 3.953 2.903 2.554-1.164 2.554-1.169.547-3.039-2.476-2.308-2.612-5.495-.261-6.145 3.802-1.05 12.163-1.908 20.327-2.087 6.859-.15 9.286-.626 12.118-2.376 1.948-1.203 4.965-2.188 6.704-2.188 1.891 0 3.396-.604 3.74-1.501.317-.826 2.665-2.57 5.219-3.876 12.801-6.546 15.267-8.131 17.061-10.965 2.739-4.326 1.478-6.019-2.446-3.283M291 140.525c0 1.8-.748 2.809-2.605 3.515-2.054.781-2.484 1.47-2.034 3.264.314 1.25-.089 3.545-.895 5.099-.806 1.554-1.466 3.345-1.466 3.979 0 .635-1.102 2.775-2.449 4.757-1.346 1.982-2.759 4.899-3.138 6.482-1.006 4.201-1.325 4.497-3.559 3.301-2.639-1.412-3.135-.791-1.92 2.404.568 1.495.611 2.837.101 3.153-.489.302-1.429 2.23-2.088 4.285-.66 2.055-1.766 4.411-2.457 5.236-.692.825-2.714 4.849-4.494 8.942-1.78 4.093-3.88 8.085-4.666 8.871-.787.786-1.295 2.125-1.13 2.976.401 2.065 2.8 2.791 2.8.846 0-.843 1.125-2.746 2.5-4.23 1.375-1.483 2.5-3.516 2.5-4.516s.9-2.3 2-2.889 2-1.886 2-2.882c0-.997.9-2.85 2-4.118 1.272-1.466 2-3.741 2-6.247 0-3.014.441-4.056 1.878-4.431 1.033-.27 2.373-1.578 2.979-2.907.605-1.328 1.785-2.415 2.622-2.415 1.109 0 1.521-1.089 1.521-4.025 0-3.285.425-4.186 2.31-4.903 1.913-.727 2.243-1.459 1.918-4.245-.29-2.48.156-3.864 1.689-5.252 1.146-1.037 2.083-2.915 2.083-4.173 0-1.259.788-2.882 1.75-3.607 4.421-3.332 4.545-8.795.2-8.795-1.418 0-1.95.688-1.95 2.525M.468 208c0 31.075.126 43.788.281 28.25.155-15.537.155-40.962 0-56.5C.594 164.213.468 176.925.468 208M307 153.752c0 .658-1.365 1.903-3.034 2.765-1.974 1.022-3.236 2.583-3.614 4.475-.32 1.598-1.43 3.674-2.467 4.612-3.243 2.935-1.976 12.396 1.66 12.396.811 0 2.245.9 3.187 2 .942 1.1 2.249 2 2.905 2 .656 0 2.968 2.016 5.137 4.48 3.801 4.319 4.119 4.467 8.802 4.098 2.673-.211 5.017-.856 5.209-1.433.542-1.626-5.93-14.402-8.424-16.628-.626-.56-1.425-2.659-1.776-4.667-.351-2.007-1.257-4.163-2.013-4.791-.757-.627-1.673-2.323-2.035-3.769-.751-2.991-3.537-7.354-3.537-5.538M15.229 186.669c-2.629 1.058-4.287 5.874-2.735 7.948 1.063 1.422 1.286 4.086.913 10.883l-.816 14.836c-.625 11.347 4.512 21.373 9.892 19.309 1.679-.644 1.764-2.256 1.303-24.619-.577-28.012-1.534-31.182-8.557-28.357m297.021 8.993c-2.132.861-1.382 2.062 1.67 2.672 1.664.333 3.183 1.415 3.533 2.517.337 1.063 1.466 2.156 2.508 2.429 1.29.337 1.998 1.566 2.217 3.849.721 7.519 6.822 3.659 6.822-4.315v-5.044l-2.626 1.72c-2.841 1.862-4.327.929-4.359-2.74-.015-1.736-6.397-2.447-9.765-1.088m-27.643 17.92c-1.215 3.165-.561 10.518 1.392 15.657 1.1 2.894 2.014 7.736 2.032 10.761.022 3.77.805 7.073 2.491 10.5 1.353 2.75 2.476 5.675 2.497 6.5.02.825 1.374 3.268 3.009 5.428 1.635 2.161 2.972 4.386 2.972 4.945 0 .559 1.365 2.391 3.034 4.072 1.669 1.68 6.424 6.726 10.568 11.214 4.366 4.728 8.661 8.44 10.216 8.827 1.475.369 3.373 1.293 4.219 2.054.845.761 3.545 2.335 6 3.497 6.021 2.851 8.618 4.35 10.706 6.18 2.549 2.233 11.475 6.783 13.308 6.783.862 0 2.44.661 3.508 1.468 1.11.84 4.162 1.482 7.132 1.5 5.618.035 7.414 1.355 5.053 3.716-3.727 3.727-34.848-5.639-46.985-14.141-1.212-.848-2.891-1.551-3.732-1.561-1.362-.016-9.282-4.711-11.316-6.708-2.912-2.859-14.709-17.976-14.71-18.85 0-.591-1.126-2.132-2.501-3.424-1.375-1.292-2.5-2.729-2.5-3.194 0-.465-1.057-2.524-2.349-4.576-3.245-5.154-7.675-19.153-9.069-28.66-1.323-9.03-2.876-10.488-5.228-4.908-1.912 4.539-1.385 23.339 1.104 39.338.813 5.225 1.222 11.111.909 13.081-.395 2.486.102 5.138 1.625 8.678 2.531 5.884 4.323 7.705 8.508 8.649 1.65.371 4.8 1.535 7 2.586s7.375 3.259 11.5 4.907c4.125 1.648 10.425 4.585 14 6.525 3.575 1.941 7.112 3.539 7.86 3.551 1.705.029 11.14 6.081 11.14 7.146 0 .433 1.688 1.087 3.75 1.453 2.063.367 5.1 1.466 6.75 2.441 1.65.976 5.925 2.097 9.5 2.49 3.575.394 6.95 1.064 7.5 1.49.55.426 4.261 1.316 8.246 1.978 3.986.663 7.48 1.581 7.764 2.042.285.46 2.199 1.385 4.254 2.055 2.055.671 4.757 2.012 6.005 2.982 1.248.97 4.596 2.084 7.441 2.475 2.846.391 5.794 1.332 6.553 2.091.759.759 1.953 1.38 2.653 1.38.701 0 2.065.874 3.033 1.943.967 1.069 3.057 2.229 4.643 2.577 1.587.349 3.142 1.049 3.456 1.557.767 1.242 7.175 1.18 7.952-.077.34-.55.192-1-.328-1-.854 0-5.057-3.508-13.477-11.25-1.646-1.512-3.306-2.75-3.69-2.75-.677 0-2.331-1.45-14.07-12.338a526.237 526.237 0 0 0-11.35-10.162c-3.181-2.75-13.183-12.312-22.225-21.25-9.043-8.937-16.832-16.25-17.309-16.25-1.451 0-9.286-8.115-14.484-15-2.698-3.575-8.092-9.875-11.986-14-3.895-4.125-9.556-10.832-12.581-14.905-3.025-4.073-7.525-9.519-10-12.103-2.475-2.584-5.73-6.115-7.234-7.845-3.148-3.623-3.341-3.696-4.159-1.565M15.52 246.353l-3.98 1.2 4.786 1.827c4.446 1.698 4.764 2.05 4.48 4.967-.219 2.247-1.061 3.499-2.963 4.406l-2.658 1.267 1.403 5.74A745.236 745.236 0 0 1 19.009 276c1.619 7.164 2.556 25.742 1.764 35-.678 7.94-1.883 48.214-2.154 72-.065 5.775-.473 11.204-.905 12.065-1.542 3.071 3.785 7.266 8.435 6.642 2.209-.296 4.198-.721 4.42-.943.222-.222-.028-7.572-.556-16.334-.528-8.761-1.156-29.946-1.396-47.077-.256-18.231-.857-31.933-1.45-33.041-.677-1.264-.686-3.431-.028-6.514 1.17-5.486.528-24.635-1.133-33.798-.649-3.575-1.279-8.767-1.402-11.537-.349-7.886-1.229-8.477-9.084-6.11M.473 332.5c0 37.4.124 52.555.277 33.677.152-18.878.152-49.478-.001-68C.597 279.655.473 295.1.473 332.5m151.383-47.831c-1.918.51-2.838 4.129-1.753 6.9 1.475 3.765.914 7.067-1.603 9.431-1.375 1.292-2.5 2.972-2.5 3.733 0 .762-.419 1.126-.931.81-.512-.317-1.213-.118-1.559.441-.345.559-.125 1.016.49 1.016s.84.45.5 1c-.34.55-.169 1 .38 1 .548 0 1.276 2.137 1.615 4.75.34 2.613 1.363 6.1 2.273 7.75.911 1.65 2.443 8.4 3.406 15 .963 6.6 2.402 16.05 3.197 21 1.174 7.305 2.187 28.822 1.73 36.75-.056.962-1.066 2.715-2.246 3.895-1.982 1.982-2.135 3.098-2.01 14.69.075 6.9.551 12.961 1.058 13.468 1.528 1.528 3.145-.262 2.513-2.782-.442-1.759.191-3.174 2.496-5.587 2.645-2.767 3.088-3.981 3.088-8.46 0-3.428.517-5.658 1.5-6.474.825-.685 1.5-2.704 1.5-4.488 0-1.783.901-4.388 2.002-5.788 2.289-2.909 6.981-16.053 6.991-19.585.007-2.388 8.929-29.979 11.573-35.79.789-1.733 1.434-4.803 1.434-6.822 0-3.449 4.272-12.527 5.895-12.527 3.576 0 4.023 6.352.605 8.592-1.914 1.254-2.496 2.489-2.485 5.273.026 6.215 1.67 7.3 3.61 2.385.998-2.527 2.326-4.25 3.277-4.251 1.291 0 1.577-1.103 1.49-5.75-.154-8.168-.091-7.965-3.392-10.907-1.65-1.47-3-3.514-3-4.542 0-1.591-.314-1.702-2.102-.746-1.766.946-2.532.713-4.804-1.464-1.487-1.425-3.44-2.59-4.34-2.59-.9 0-1.899-.426-2.221-.947-.825-1.334-8.965-6.738-11.237-7.459-1.04-.33-4.57-3.074-7.843-6.097-3.274-3.023-6.178-5.444-6.453-5.381-.275.064-1.24.313-2.144.553M227 303c-1.1 1.1-2 3.074-2 4.388 0 2.062-4.23 12.059-7.029 16.612-.508.825-1.62 3.075-2.474 5-2.044 4.614-3.806 7.579-5.836 9.822-1.799 1.988-2.26 7.69-.699 8.654.529.327 1.907-1.258 3.062-3.523 1.155-2.265 3.42-4.868 5.032-5.785 1.612-.918 2.934-1.954 2.938-2.304.003-.35 1.824-3.358 4.045-6.685 2.832-4.241 4.216-7.533 4.627-11.011.765-6.454 1.387-7.311 5.447-7.506 3.133-.15 3.411.083 3.701 3.101.252 2.615.972 3.539 3.62 4.645 1.817.759 4.002 2.377 4.855 3.595 1.72 2.455 3.711 1.913 3.711-1.012 0-1.041.745-2.308 1.654-2.818 2.379-1.331.946-4.563-1.714-3.868-2.162.566-6.243-2.902-11.451-9.731-3.237-4.244-8.146-4.917-11.489-1.574m223.488 27.943c-1.107.449-3.866 2.671-6.132 4.937-3.638 3.637-4.662 4.12-8.738 4.12-5.523 0-5.701.695-1.026 4 1.945 1.375 5.139 3.957 7.098 5.737 4.198 3.815 13.156 8.263 16.641 8.263 3.26 0 3.921-1.999 3.635-11-.13-4.125-.289-9.075-.352-11-.168-5.139-5.241-7.445-11.126-5.057M233.25 364.662c-1.906.769-1.493 3.054.848 4.694l2.097 1.469-2.057 1.101c-1.22.653-4.209.855-7.347.497-6.533-.746-10.791.702-10.791 3.669 0 1.758.403 2.018 2.25 1.453 4.331-1.326 16.404-1.801 18.415-.724 1.469.786 3.391.651 7.391-.522 4.914-1.441 5.186-1.665 3.003-2.473-1.321-.489-4.356-2.899-6.745-5.357-4.376-4.503-4.788-4.725-7.064-3.807m87.778 32.11c-10.71.15-19.818.618-20.24 1.04-.423.423-6.098.652-12.613.509l-11.845-.259-2.251 3.045c-2.067 2.796-2.122 3.188-.665 4.798.872.964 1.586 2.247 1.586 2.851 0 1.549-10.303 6.244-13.703 6.244-1.555 0-4.506.9-6.558 2-2.053 1.1-4.436 2-5.297 2-1.781 0-9.173 3.254-21.194 9.329-9.706 4.906-21.845 14.712-24.351 19.671-5.206 10.303-4.421 24.002 2.153 37.601 1.623 3.356 2.95 6.617 2.95 7.247 0 .631 1.515 2.835 3.367 4.899s3.713 4.86 4.134 6.213c.801 2.569 2.674 4.776 12.08 14.234 5.243 5.271 5.609 5.938 4.944 9-.395 1.818-.809 6.231-.919 9.806-.131 4.24-.811 7.423-1.956 9.155l-1.756 2.655 3.618 1.194c3.702 1.222 8.743.748 13.082-1.229 3.094-1.409 5.089-7.98 3.49-11.49-1.648-3.616-1.342-5.171 1.797-9.141 1.585-2.004 3.927-5.894 5.205-8.644 2.13-4.584 5.959-10.217 12.234-18 4.062-5.038 7.68-10.71 7.68-12.041 0-1.305-6.261-5.459-8.227-5.459-1.846 0-14.967-6.176-19.696-9.271-2.432-1.592-6.707-3.788-9.5-4.881-9.023-3.532-17.498-8.795-19.076-11.847-3.856-7.456.275-16.404 9.999-21.655 1.65-.891 4.575-2.848 6.5-4.349 1.925-1.502 4.625-3.077 6-3.501 1.375-.424 3.573-1.609 4.885-2.634 1.677-1.309 4.051-1.864 8-1.869 3.921-.004 6.52-.606 8.615-1.993 1.65-1.093 3.777-1.99 4.727-1.993.95-.004 2.422-1.068 3.271-2.364 1.561-2.382 5.76-2.653 7.116-.459 1.071 1.733-.637 7.816-2.194 7.816-1.172 0-1.265.42-.438 1.966.579 1.082.774 3.707.434 5.835-.678 4.238 3.617 19.151 6.111 21.222.74.613 1.639 2.458 2 4.099.36 1.641 1.177 2.813 1.814 2.604 1.916-.629 1.902-5.413-.028-9.442-2.199-4.59-2.115-21.075.126-24.635.744-1.182 1.681-3.274 2.082-4.649.402-1.375 2.694-4.816 5.094-7.647 4.214-4.971 4.489-5.119 8.013-4.324 2.007.452 6.849.847 10.76.877 6.503.049 10.167.687 14.821 2.581 1.257.512 2.248-.188 3.746-2.646 1.121-1.837 2.039-2.635 2.041-1.773.002.863.696 3.901 1.543 6.75 1.401 4.718 1.802 5.182 4.477 5.182 3.25 0 5.336-2.429 7.506-8.741 1.191-3.464 1.071-4.123-1.725-9.496-1.653-3.176-3.296-5.884-3.651-6.018-.355-.135-9.409-.122-20.118.027m42.195 9.785c-2.608 1.826-2.838 5.036-.723 10.097 2.382 5.701 1.883 28.346-.625 28.346-.481 0-.875-.62-.875-1.378 0-2.401-2.979-4.251-4.119-2.558-1.923 2.857 2.315 32.136 5.358 37.014 2.345 3.759 3.914 11.722 3.22 16.346-.475 3.17-.242 4.511.956 5.506.905.75 1.593 2.872 1.604 4.942.011 1.996.622 5.878 1.357 8.628l1.338 5 .747-5.657c.764-5.794-.043-13.843-1.388-13.843-3.149 0-4.241-17.299-1.502-23.782l1.571-3.718 1.921 3.913c1.057 2.152 2.6 4.662 3.429 5.579.851.939 1.522 3.592 1.541 6.087.059 7.948 1.789 18.317 3.234 19.383.775.571 1.706 1.713 2.069 2.538.364.825.412-.075.109-2-.304-1.925-.97-8-1.48-13.5-.509-5.5-1.8-12.7-2.869-16-1.068-3.3-2.447-10.275-3.063-15.5-.617-5.225-1.756-13.55-2.531-18.5-.775-4.95-1.926-12.375-2.557-16.5-.632-4.125-.919-10.097-.639-13.271.688-7.809-1.497-10.385-6.083-7.172m-286.828.856c-1.237 3.224.236 11.566 2.461 13.934 1.179 1.255 2.176 3.378 2.214 4.717.039 1.34.441 3.336.893 4.436 1.637 3.982 2.407-1.41 1.407-9.853-1.101-9.295.029-11.555 5.88-11.762 3.2-.113 3.188-.129-.75-1.006-9.592-2.138-11.436-2.209-12.105-.466m254.414 17.666c-1.039.586-1.93 2.78-2.31 5.688-2.102 16.097-3.059 20.238-6.157 26.648-1.838 3.804-3.342 7.516-3.342 8.25s-.9 2.235-2 3.335-2 2.45-2 3c0 1.729 4.032 1.085 4.7-.75.351-.962 1.912-3.228 3.469-5.035 1.557-1.806 2.831-4.441 2.831-5.855 0-1.414 1.098-3.876 2.439-5.47 1.426-1.694 2.725-4.873 3.127-7.645.377-2.61 1.191-5.375 1.807-6.145 1.391-1.737 1.493-14.633.127-15.985-.642-.636-1.606-.649-2.691-.036M42.55 432.731c-.398 1.038-.141 1.905.643 2.165.719.239 2.5 1.71 3.958 3.269 1.57 1.679 3.691 2.835 5.201 2.835 1.402 0 2.908.607 3.348 1.349 1.216 2.05 6.3 3.049 6.3 1.237 0-.798-.788-1.716-1.75-2.04-.962-.323-2.875-2.152-4.25-4.063-2.046-2.844-9.104-6.483-12.575-6.483-.116 0-.51.779-.875 1.731m100.442 2.615c-1.37 1.292-3.617 4.255-4.992 6.584-3.661 6.2-17.758 20.031-24.533 24.07-6.704 3.997-11.084 8.056-13.967 12.944-10.819 18.344-15.145 27.745-18.512 40.235-3.152 11.692-6.78 20.052-9.904 22.821-3.333 2.954-5.706 7.343-7.773 14.378-.828 2.817-2.08 5.797-2.782 6.622-2.217 2.605-3.549 8.341-4.529 19.504-1.091 12.415-.318 15.295 4.5 16.762 3.798 1.156 9.235 3.427 12.628 5.273 1.445.786 4.992 1.937 7.882 2.557 2.89.619 8.314 2.388 12.053 3.93 3.739 1.542 9.321 3.327 12.405 3.967 3.084.641 6.797 1.782 8.251 2.536 1.455.755 5.025 1.67 7.933 2.033 2.909.364 5.834 1.319 6.501 2.123 3.147 3.792 15.938 7.256 26.98 7.307 2.262.011 3.173 4.13 1.323 5.981-.816.816-4.29 1.796-7.72 2.178-3.43.382-8.284 1.003-10.786 1.379-3.122.47-6.021.186-9.235-.905-5.986-2.033-13.325-1.221-14.858 1.642-.937 1.751-1.726 1.908-6.709 1.335-3.107-.357-6.098-1.241-6.648-1.965-1.135-1.493-26.5-3.104-26.5-1.683 0 1.356 2.828 2.046 8.382 2.046 6.244 0 8.379 1.502 5.949 4.186-1.776 1.963-7.52 2.327-14.831.94-3.152-.599-4.583-.36-6.75 1.125-3.951 2.708-3.687 5.746.5 5.758 1.787.005 5.5 1.116 8.25 2.469 2.75 1.353 5.81 2.474 6.8 2.491.989.017 3.223.767 4.964 1.667 2.591 1.341 4.889 1.516 12.7.968 13.888-.973 17.042-1.525 21.918-3.835 3.717-1.76 4.866-1.9 7.571-.922 4.519 1.634 7.896 1.505 7.213-.276-3.256-8.484-.016-11.327 5.283-4.635 1.658 2.094 4.486 4.352 6.283 5.019 1.797.666 4.049 1.624 5.004 2.128.955.505 2.773.917 4.039.917 1.266 0 4.085.909 6.264 2.02l3.961 2.02 1.431-3.02c1.611-3.398 2.656-3.704 5.1-1.492 1.781 1.612 6.053.763 7.438-1.478.696-1.126-4.143-2.527-8.266-2.394-2.973.096-2.572-2.664.619-4.255 3.095-1.543 2.791-2.685-1.063-3.982-3.825-1.288-6.07-7.419-2.717-7.419 1.027 0 2.356-1.279 3.118-3 1.267-2.861 2.73-3.494 7.069-3.056.951.096 2.301-.295 3-.87 5.078-4.171 7.65-6.074 8.209-6.074 1.124 0 11.236-10.39 12.53-12.875.68-1.307 2.681-4.268 4.447-6.581 1.765-2.313 5.161-8.219 7.547-13.125 3.997-8.219 6.66-12.388 10.543-16.503.822-.871 1.495-2.074 1.495-2.673 0-.599 1.106-2.403 2.457-4.009 1.86-2.211 2.176-3.201 1.3-4.077-3.25-3.25-10.162.309-12.913 6.65a692.443 692.443 0 0 1-2.939 6.693c-1.505 3.337-6.117 10.837-11.654 18.951-2.887 4.231-5.529 8.81-5.872 10.174-1.167 4.652-4.846 2.741-5.052-2.625a549.979 549.979 0 0 0-.258-6c-.047-.825-1.249-2.041-2.673-2.701-2.479-1.151-2.561-1.093-1.943 1.37.355 1.415 1.299 3.225 2.096 4.023 2.952 2.952 1.103 13.326-2.37 13.304-1.438-.01-12.96-11.609-13.603-13.695-.373-1.209-1.555-2.477-2.627-2.817-1.072-.34-1.949-1.162-1.949-1.826 0-1.256-6.47-7.584-11.562-11.306-1.977-1.446-2.611-2.484-1.938-3.173 1.525-1.563 6.691-.164 7.247 1.963.268 1.022.845 1.858 1.283 1.858.438 0 2.748 2.005 5.133 4.457 5.168 5.31 10.119 6.581 10.664 2.738.179-1.268-.186-2.923-.813-3.678-.627-.755-1.774-6.243-2.55-12.195-2.032-15.587 2.461-14.223-46.245-14.038-40.338.154-40.766.134-45.719-2.111-11.197-5.074-11.892-16.586-.88-14.57 3.89.712 6.736-2.798 7.785-9.603.382-2.475 1.347-6.525 2.144-9 1.497-4.651 3.785-15.047 5.611-25.5 1.643-9.41 2.206-10.329 6.54-10.687 3.881-.32 4.382-1.218 2.812-5.041-.496-1.209.187-2.562 2.27-4.5 11.424-10.629 19.196-18.628 19.729-20.306.343-1.081 1.005-1.966 1.47-1.966.466 0 2.482-2.925 4.482-6.499 2.24-4.007 4.761-7.082 6.571-8.019 3.033-1.568 4.378-4.597 3.799-8.552-.463-3.16-1.923-3.336-4.841-.584m-123.417 3.18c-2.234 3.41-1.48 6.409 2.682 10.655 3.775 3.851 8.829 7.819 9.96 7.819 1.351 0 .852-2.862-.646-3.7-2.581-1.446-5.71-10.172-4.474-12.481 2.269-4.24-4.828-6.404-7.522-2.293M238 438.051c0 .578-1.591 1.716-3.535 2.528-5.975 2.497-6.912 9.676-1.724 13.214 1.376.939 3.593 2.719 4.926 3.957 1.333 1.238 3.416 2.198 4.628 2.134 1.693-.089 1.798-.222.455-.573-.963-.252-1.75-1.177-1.75-2.056 0-.878-.661-2.328-1.468-3.22-2.879-3.181-.708-15.035 2.754-15.035.458 0 .554-.45.214-1-.821-1.329-4.5-1.287-4.5.051m-203.724 22.97c.69 5.145-1.076 7.169-5.487 6.287l-3.134-.627 2.827 3.707c1.617 2.119 3.404 3.486 4.173 3.191.833-.32 1.345.2 1.345 1.366 0 1.071 1.832 3.191 4.25 4.92 5.895 4.214 7.593 6.031 7.946 8.503.178 1.251 1.706 2.832 3.699 3.827 1.867.932 3.869 2.169 4.45 2.75 1.371 1.371 3.962 1.348 5.357-.047 1.04-1.04-.842-7.527-3.826-13.189-.519-.985-.663-2.245-.32-2.8.343-.555-.087-2.509-.957-4.341-2.583-5.444-2.472-7.832.396-8.54 4.925-1.215 3.222-7.028-2.058-7.028-1.551 0-3.127-.498-3.503-1.107-.488-.789-.901-.755-1.441.118-.438.709.052 2.034 1.162 3.144 1.055 1.055 1.65 2.352 1.322 2.881-.996 1.612-4.062 1.081-5.977-1.036-.995-1.1-2.232-2-2.747-2-.516 0-2.082-.9-3.48-2-3.755-2.954-4.607-2.524-3.997 2.021M.484 578c0 64.625.119 91.063.266 58.75.146-32.312.146-85.187 0-117.5C.603 486.938.484 513.375.484 578M262 471.869c0 .622.427 1.131.948 1.131.522 0 2.163 1.125 3.647 2.5 1.483 1.375 3.11 2.5 3.614 2.5 1.969 0 12.379 5.503 13.913 7.354 2.245 2.711 4.878 1.496 4.878-2.25 0-4.951-5.996-9.104-13.145-9.104-3.128 0-5.842-.461-6.03-1.024-.496-1.488-7.825-2.525-7.825-1.107m45.864 14.989c-3.305 3.312-5.88 8.338-5.812 11.342l.053 2.3 1.569-2.25c.864-1.238 2.36-2.25 3.326-2.25.965 0 2.274-.625 2.908-1.389 1.874-2.258 5.766-2.466 8.793-.47 1.54 1.015 3.564 1.849 4.499 1.852.935.004 2.092.706 2.57 1.561 1.191 2.127 10.521 6.527 11.595 5.468 1.396-1.376-3.945-7.467-9.111-10.39-6.516-3.688-8.321-4.766-11.464-6.842-3.594-2.374-5.749-2.117-8.926 1.068m154.784-.674c-.814 3.037-.625 30.629.261 38.316l.692 6 .948-6c1.355-8.574 1.232-38.12-.165-39.516-.821-.822-1.28-.505-1.736 1.2m8.943.568c-1.011 3.253-.898 7.73.301 12.014.845 3.021.9 5.327.188 7.906-1.088 3.941-.725 5.328 1.396 5.328.746 0 1.558.563 1.804 1.25 1.133 3.174 1.812-.935 1.839-11.145.029-10.454-.123-11.321-2.477-14.119-2.151-2.556-2.586-2.732-3.051-1.234M22.2 495.2c-2.215 2.215-1.237 3.487 6.212 8.084 7.561 4.666 12.654 5.519 10.954 1.835-.411-.891-.774-3.077-.806-4.858-.067-3.611-1.786-4.898-3.609-2.702-1.754 2.113-3.508 1.767-5.359-1.059-1.755-2.679-5.376-3.316-7.392-1.3m359.922 16.153c-1.73 2.084-1.001 24.485 1.338 41.147.977 6.959 1.759 19.562 1.862 30 .171 17.338.086 18.19-2.322 23.171-2.113 4.371-3.197 5.437-7 6.891-6.339 2.422-7.011 3.133-6.303 6.671.883 4.418 5.323 10.767 7.529 10.767 1.029 0 3.733.9 6.01 2 5.068 2.448 19.052 2.709 25.264.471 2.2-.792 5.101-1.448 6.446-1.456 1.346-.008 4.046-1.068 6-2.355a277.135 277.135 0 0 1 6.306-4.024c4.759-2.913 7.663-8.524 8.903-17.201 1.264-8.851 1.267-8.839-5.912-21.935-6.47-11.8-8.062-14.003-15.814-21.869-2.238-2.272-5.358-6.381-6.931-9.131-2.999-5.24-4.221-6.843-8.764-11.498-3.312-3.394-5.734-8.837-5.734-12.887 0-1.621-.337-3.098-.75-3.282-1.965-.873-6.633-8.522-7.661-12.553-1.002-3.925-1.322-4.306-2.467-2.927m105.519 21.694c-.37 1.848.326 6.669 1.769 12.25 2.123 8.212 2.321 10.67 1.847 22.827-.428 10.973-.216 14.548 1.088 18.375 1.886 5.536 1.695 6.039-3.036 8.016-8.573 3.582-12.785 1.554-34.407-16.575-6.271-5.259-13.877-11.389-16.902-13.625-3.025-2.235-8.203-6.715-11.506-9.957-3.304-3.241-9.154-8.555-13-11.808-3.847-3.253-7.526-6.62-8.177-7.482-.888-1.178-1.471-1.284-2.342-.425-1.313 1.292.271 5.239 2.671 6.657.745.44 1.354 1.329 1.354 1.975 0 .647 1.747 2.762 3.882 4.701 4.881 4.431 14.971 17.152 22.029 27.772 3.844 5.786 6.304 8.47 8.5 9.275 11.801 4.325 13.536 5.985 11.884 11.368-.87 2.834-.649 3.62 1.859 6.624 3.165 3.791 3.529 6.646 1.446 11.334-.77 1.733-2.876 6.526-4.679 10.651-3.301 7.555-8.302 13.942-12.921 16.505-12.106 6.716-13.72 7.115-44.933 11.105-10.043 1.284-13.14 1.356-16.106.377-2.669-.881-4.223-.917-5.685-.135-1.107.593-2.268.823-2.58.511-.701-.702-27.554-1.232-72.313-1.427-36.269-.158-37.833.026-38.979 4.591-1.408 5.609-2.833 5.428 39.3 5.009 35.371-.352 44.601-.875 64.296-3.644 3.575-.502 8.3-1.066 10.5-1.252 2.2-.186 5.65-.653 7.667-1.038 3.201-.61 3.755-.424 4.356 1.47 1.107 3.489-2.434 7.319-7.397 7.998-5.18.709-6.805 2.108-4.79 4.123 1.138 1.138 4 1.425 12.815 1.287 6.712-.106 12.983.326 15.349 1.057 2.541.785 8.924 1.147 17.5.993 16.341-.295 14.645.056 16.437-3.409 2.205-4.264 3.26-4.472 25.661-5.071 12.884-.344 21.124-.969 22-1.67.771-.615 3.054-1.651 5.072-2.301 2.019-.65 4.201-1.821 4.85-2.604.65-.782 2.711-1.709 4.58-2.06l3.4-.638v-6.888c0-7.064-.794-8.238-3.643-5.389-1.968 1.968-3.988 1.905-4.775-.148-.832-2.168-.843-29.509-.012-31.673.865-2.256 3.073-2.119 5.162.321.942 1.1 2.062 2 2.49 2 .428 0 .778-17.515.778-38.922v-38.923l-3.42-1.129c-1.881-.62-3.961-1.78-4.622-2.577-1.93-2.325-3.661-1.683-4.317 1.598M244.917 562.75c-7.371 8.249-9.357 14.295-4.667 14.208 4.497-.083 15.122-12.929 13.229-15.992-1.231-1.992-6.094-.978-8.562 1.784m-49.505 2.015C191.817 567.194 195 574 199.73 574c4.052 0 10.712-7.471 8.123-9.112-1.653-1.048-10.936-1.139-12.441-.123m-122.248 4.537c-1.711 2.062-.287 5.253 3.164 7.091 1.745.929 4.297 2.339 5.672 3.133 1.375.795 4.307 1.451 6.515 1.459 2.208.008 5.583.855 7.5 1.882 1.917 1.026 4.948 2.187 6.735 2.579 5.114 1.122 3.801 2.554-2.342 2.554-4.078 0-6.281-.542-8.135-2-5.208-4.097-10.442-1.65-7.799 3.647 1.322 2.65 2.45 3.179 11.248 5.268 5.945 1.412 11.501 3.445 14.173 5.186 2.417 1.575 6.791 3.76 9.721 4.856 2.929 1.097 7.702 3.329 10.605 4.961 12.152 6.831 32.407 10.747 43.279 8.368 6.014-1.316 5.039-3.335-3.018-6.248-10.061-3.639-12.713-6.038-6.673-6.038 1.545 0 3.618-.592 4.607-1.315 1.684-1.231 1.616-1.437-1.059-3.243-4.655-3.142-13.532-7.464-18.357-8.938-7.999-2.443-13.463-4.635-14.092-5.654-.339-.547-2.144-1.386-4.012-1.865-5.364-1.374-14.036-4.635-18.357-6.905-2.179-1.144-5.206-2.08-6.726-2.08-1.521 0-4.238-.898-6.039-1.996-1.801-1.098-4.298-1.998-5.549-2-1.251-.002-4.836-.904-7.965-2.004-6.554-2.303-11.543-2.569-13.096-.698M109 589.75c0 2.698 18.315 11.25 24.094 11.25 2.002 0 6.304-4.547 5.513-5.828-.332-.536-3.417-1.289-6.855-1.672-3.439-.383-8.222-1.552-10.629-2.598-4.312-1.873-12.123-2.616-12.123-1.152m219 24.944c-1.375.232-4.035 1.127-5.912 1.988-2.434 1.117-5.216 1.421-9.703 1.061-5.154-.414-6.577-.188-7.878 1.25-.874.965-3.405 1.998-5.625 2.296-2.221.298-4.79 1.221-5.71 2.051-.919.83-3.829 2.052-6.464 2.714-2.636.663-6.444 2.047-8.462 3.075-2.018 1.029-4.233 1.871-4.922 1.871-.69 0-1.701.835-2.247 1.856-.708 1.324-2.542 2.015-6.401 2.414-2.974.307-7.381 1.443-9.792 2.525-2.411 1.082-5.396 2.276-6.634 2.653-4.026 1.229-2.377 2.552 3.179 2.552 3.457 0 5.965-.537 6.907-1.479.814-.814 4.01-1.674 7.114-1.913 3.1-.239 6.247-.942 6.993-1.561.746-.619 4.184-1.581 7.639-2.138 3.456-.556 7.438-1.646 8.85-2.422 1.413-.776 5.268-2.097 8.568-2.936 13.273-3.376 19.301-5.449 25.608-8.808 3.634-1.935 8.472-3.834 10.75-4.219 5.449-.921 5.757-3.583.392-3.388-2.062.075-4.875.326-6.25.558" fill="#d3d3d3" fill-rule="evenodd"/></svg>