<svg xmlns="http://www.w3.org/2000/svg" width="500" height="671"><path d="M146 151.747c0 .449-1.012.912-2.25 1.028-1.238.116-3.6.626-5.25 1.132l-3 .921 3 .196c1.65.107 4.456.318 6.236.468 2.042.172 2.999-.111 2.594-.767-.404-.653.16-.83 1.514-.476 1.186.31 2.156.14 2.156-.378 0-.573.685-.589 1.75-.041.963.495 2.313.698 3 .452.833-.299 1.25.619 1.25 2.75 0 3.085.079 3.146 2.25 1.729 1.426-.932 2.982-1.183 4.25-.686 1.693.664 1.732.795.25.855-.963.038-1.75.465-1.75.948 0 2.621 7.557 4.736 8.826 2.469.888-1.587 4.573-2.515 6.719-1.691 1.48.568 2.074 2.442.705 2.226-2.113-.334-3.13.268-2.634 1.56.574 1.497-4.948 1.607-10.542.211-2.56-.64-5.439.947-4.494 2.477.307.496.977.644 1.489.327.512-.316 1.474-.239 2.139.171 2.085 1.289 6.196 1.334 6.995.077.521-.819.771-.637.782.57.008.98 1.172 2.215 2.599 2.757 2.743 1.043 4.832.449 3.873-1.101-.316-.512.089-.931.901-.931.811 0 1.702.563 1.98 1.25.277.688.54.275.583-.917.043-1.191-.483-2.393-1.171-2.671-.687-.277-.012-.54 1.5-.583 2.796-.08 3.997-2.079 1.25-2.079-.825 0-1.5-.702-1.5-1.559s-.45-1.281-1-.941c-.55.34-1-.084-1-.941 0-1.001-.905-1.559-2.531-1.559-1.393 0-2.791-.675-3.107-1.5-.777-2.023-1.975-1.887-4.357.495-1.905 1.905-2.087 1.916-4.048.25l-2.053-1.745 2.05-.32c3.604-.562-.248-3.133-5.643-3.766-2.646-.31-6.049-.716-7.561-.902-1.512-.186-2.75.089-2.75.61 0 .557-.826.506-2-.122-1.1-.589-2-.703-2-.253m-128.459 5.186c-.362.587-1.784 1.067-3.159 1.067-1.439 0-2.233.431-1.872 1.016.346.559 1.046.758 1.557.442 1.302-.804 5.86 4.621 5.917 7.042.027 1.165.353 1.553.781.93.404-.588 1.86-.792 3.235-.454 2.168.534 2.259.709.687 1.313-1.004.386-1.505 1.197-1.122 1.816.38.615.124 1.469-.569 1.897-.926.573-.76.948.622 1.414 2.22.749 5.741 7.519 4.006 7.702-.618.066-1.461.066-1.874 0-.906-.143-.964 1.161-.145 3.294.332.867 1.007 1.328 1.5 1.023.492-.304.866.711.832 2.256-.061 2.665-.11 2.694-.962.576-.561-1.396-1.451-2.021-2.373-1.668-1.447.555-1.213 2.698.545 4.994.523.682-.016 1.482-1.433 2.127-2.587 1.179-3.307 4.839-1.117 5.679 1.027.394 1.647-.369 2.087-2.568.58-2.903.722-2.996 1.971-1.289 1.262 1.727 1.346 1.69 1.36-.601.013-1.943.213-2.135.985-.941.704 1.09.974 1.142.985.191.008-.72.465-1.031 1.015-.691.55.34 1 .141 1-.441s.788-1.052 1.75-1.044c1.282.012 1.408.233.47.828-.993.63-.833 1.379.718 3.35 2.747 3.493 1.326 4.425-1.586 1.039-1.292-1.502-2.384-2.282-2.425-1.732-.227 3-1.085 5.98-1.86 6.459-.486.3-1.195 2.208-1.577 4.241-1.067 5.687-2.902 7.767-4.394 4.98-.641-1.199-1.776-2.18-2.52-2.18-2.132 0-6.315-4.029-4.826-4.648 1.931-.802 1.478-1.923-.777-1.923-1.417 0-2.264.912-2.816 3.035-.518 1.99-1.422 3.038-2.627 3.041-1.721.004-2.19 2.738-1.607 9.37.104 1.182 5.077 1.124 5.077-.059 0-.514.45-.656 1-.316 1.635 1.01 1.192 3.788-.5 3.138-1.748-.67-1.932.687-.465 3.428.714 1.333.714 1.934 0 1.934-.569 0-1.035 1.098-1.035 2.441 0 2.762-1.523 4.216-2.426 2.315-.328-.691-.408-.244-.179.994.23 1.238.072 2.25-.35 2.25s-.576 1.238-.341 2.75c.41 2.64.364 2.672-1.138.809-1.55-1.922-1.567-1.922-1.681 0-.199 3.358.281 5.858 1.625 8.459 1.069 2.069 1.069 2.837-.003 4.303-.968 1.324-1.428 1.449-1.781.482-.343-.94-.798-1.002-1.631-.223-.801.749-.859 1.824-.189 3.5l.967 2.42.134-2.5c.123-2.303.201-2.343.993-.5.473 1.1.891 1.443.93.761.04-.706 1.179-1.147 2.65-1.025 2.462.204 2.55.414 1.919 4.617-.82 5.469-1.446 7.147-2.665 7.147-.524 0-.674-.45-.334-1s.174-1-.368-1-1.191-.788-1.443-1.75c-.347-1.331-.485-1.217-.573.476-.064 1.224-1.014 3.699-2.112 5.5L2.007 270.5l-.003-2.809c-.002-1.545-.395-2.567-.873-2.272-.91.562-1.277 24.456-.398 25.929.964 1.615 1.164 17.598.227 18.176-.582.36-.946 69.362-.955 181.029L-.009 671h122.305c90.059 0 122.604-.3 123.442-1.138.805-.805 2.26-.852 4.984-.161 2.115.537 4.731.631 5.812.208 1.401-.548.674-.797-2.534-.869-3.404-.076-4.096-.336-2.843-1.068 1.024-.598 1.457-1.732 1.133-2.97-.566-2.164-1.799-2.605-2.792-.998-.703 1.137-5.482.263-6.998-1.28-.674-.687-.43-.818.75-.403.963.339 1.75.194 1.75-.321s.788-.655 1.75-.309c.964.346 1.395.238.959-.239-.435-.477 3.84-2.073 9.5-3.547 17.508-4.558 24.186-6.6 23.22-7.098-.511-.264-.318-.324.428-.133 2.235.569 8.636-1.519 12.323-4.021 1.9-1.289 4.661-2.647 6.137-3.018 1.476-.37 2.683-1.115 2.683-1.654 0-.54.702-.981 1.559-.981s1.342.351 1.077.78c-.265.429 3.101.808 7.481.841 4.627.035 8.45.546 9.123 1.219.88.88.58 1.16-1.24 1.16-3.583 0-.838 2.327 3.063 2.597 2.233.155 2.936-.158 2.559-1.141-.295-.768.323-1.621 1.429-1.972 1.072-.34 1.949-1.062 1.949-1.603 0-.542 1.305-1.44 2.9-1.996s3.128-1.882 3.406-2.948c.628-2.401.499-2.398-3.532.059-3.495 2.131-5.245 2.575-4.333 1.099.318-.514-1.167-.673-3.441-.368-2.2.295-4 .119-4-.391 0-.849 8.802-4.253 11.75-4.545.688-.069 1.25-.455 1.25-.86 0-1.136 5.874-2.917 7.528-2.282 1.532.588 2.079 3.351.663 3.351-.445 0-1.649.614-2.676 1.365-1.706 1.248-1.572 1.356 1.559 1.25 3.286-.11 6.12-1.701 5.887-3.304-.269-1.844 2.227-1.309 2.722.584.569 2.177 3.716 2.887 4.827 1.089a1.205 1.205 0 0 1 1.655-.382c.596.368.88-.132.676-1.191-.339-1.76-8.841-5.189-8.841-3.566 0 .396-1.23.821-2.734.945l-2.734.226 2.207-1.546c2.485-1.74 6.721-2.236 9.861-1.154 1.754.604 2.272.185 3.148-2.546 1.027-3.204 1.05-3.166 1.15 1.898.139 7.048.788 8.332 4.209 8.332 1.591 0 2.893-.337 2.893-.75 0-.766 2.253-1.084 9.722-1.371 2.321-.089 4.014-.498 3.76-.908-.433-.701 3.614-1.835 7.937-2.226 1.056-.095 2.631-1.424 3.5-2.953 1.607-2.825 3.081-3.654 3.081-1.733 0 .582.535.728 1.19.324.654-.405 2.792-.872 4.75-1.04 5.398-.461 6.009-.616 5.527-1.396-.506-.818 2.982-1.913 6.161-1.933 1.17-.008 2.683-.684 3.363-1.503.68-.819 1.683-1.213 2.229-.875.606.375.465.983-.363 1.56-.936.652-.335.82 1.937.542 1.812-.223 3.497-.077 3.744.324.76 1.229 8.168-1.139 10.574-3.381 1.25-1.164 3.163-2.253 4.251-2.419 2.554-.389 4.637-2.135 4.637-3.884 0-.758.644-1.378 1.43-1.378.787 0 1.575-.977 1.75-2.172.176-1.194.945-2.377 1.709-2.629.802-.265 1.111-.007.73.608-.86 1.392 7.046 3.039 10.381 2.164 1.692-.444 2.395-1.235 2.175-2.449-.232-1.282.124-1.621 1.25-1.189 2.068.793 4.575-.211 4.575-1.833 0-1.498 2.195-2.5 5.476-2.5 1.272 0 3.776-1.367 5.565-3.038 1.788-1.671 3.974-2.969 4.855-2.885 3.647.349 4.729-.027 3.104-1.077-1.169-.755-.893-.973 1.25-.985 1.512-.008 2.75-.465 2.75-1.015 0-.55.675-1 1.5-1s1.5.702 1.5 1.559.45 1.281 1 .941c.55-.34 1-.138 1 .449 0 .722.606.69 1.868-.098 3.19-1.993 5.132-.388 5.132 4.24 0 3.579-.208 3.982-1.5 2.909-1.808-1.5-2.021.079-.25 1.849.926.926 1.393 9.845 1.804 34.45.305 18.261.548-42.624.541-135.299-.008-92.675-.161-164.098-.341-158.719-.247 7.377-.741 10.265-2.013 11.75-2.208 2.579-3.24 2.49-3.247-.281-.005-1.98-.545-2.265-4.496-2.374-2.469-.068-5.081-.615-5.805-1.216-1.44-1.195-4.373 4.93-3.239 6.765.318.515.091 1.238-.506 1.607-.596.369-.841 1.304-.544 2.078.922 2.403-1.187 6.39-3.379 6.39-1.114 0-2.025-.45-2.025-1s-.607-1-1.348-1c-1.448 0-4.652-8.687-4.652-12.615 0-1.312-.408-2.385-.906-2.385-1.467 0-.041-3.806 1.672-4.464.863-.331 2.033-.137 2.601.431 1.707 1.707 2.383 1.178 1.878-1.467-.457-2.39-2.245-3.585-2.245-1.5 0 .55-.477 1-1.059 1s-.774-.461-.426-1.025c.349-.563.263-.901-.191-.75-2.467.823-1.573-4.189.926-5.194l2.25-.904-2.25-.064c-1.458-.041-2.245-.679-2.235-1.813.01-1.078.298-1.328.75-.651 1.921 2.872 4.235 1.087 4.235-3.266 0-4.016 1.317-5.881 2.227-3.153.628 1.885 3.773.094 3.773-2.149 0-2.615 1.608-2.637 2.29-.031.359 1.374.03 2-1.05 2-.865 0-1.272.302-.903.67.852.852 7.663 1.109 7.663.289 0-.337 1.422-.404 3.16-.149 2.52.37 3.041.157 2.578-1.051-.32-.834-.225-1.908.211-2.387 1.231-1.355 2.203-10.584 1.039-9.865-.543.336-1.055-.428-1.136-1.698-.178-2.778-.462-4.958-.822-6.309-.147-.55-.21-1.347-.141-1.771.068-.424-1.116-.462-2.632-.084-2.376.592-2.586.479-1.516-.821 1.417-1.721.715-2.824-1.799-2.824-2.181 0-3.625-4.96-1.776-6.102.704-.436 1.518-.437 1.808-.002.289.435 1.792.265 3.339-.378 2.477-1.03 2.626-1.324 1.25-2.466-1.176-.975-1.563-.997-1.563-.087 0 .869-1.193 1.009-4.227.497-3.743-.633-4.08-.537-2.944.831 1.081 1.304.999 1.505-.523 1.28-.993-.146-2.354.453-3.024 1.331-1.063 1.392-1.237 1.277-1.366-.904-.097-1.636-.303-1.912-.596-.8-.587 2.23-4.917.449-5.642-2.322-.27-1.033-1.263-1.878-2.207-1.878-1.412 0-1.495.266-.471 1.5.928 1.118.944 1.5.063 1.5-.649 0-.903.45-.563 1 .834 1.35-.826 1.274-2.201-.101-.801-.801-1.278-.542-1.751.949-.406 1.281-1.205 1.837-2.129 1.483-1.243-.477-1.195-.782.302-1.917.978-.743 1.249-1.365.6-1.382-.648-.018-1.832.622-2.631 1.42-.798.799-1.754 1.15-2.124.781-.369-.37-.38.214-.025 1.297.527 1.601.446 1.689-.431.47-.869-1.208-1.082-.932-1.095 1.417-.018 3.495-.92 2.998-1.224-.675-.119-1.429-.639-2.336-1.158-2.015-.518.32-.65.11-.293-.468.357-.577-.052-1.318-.909-1.647-.871-.334-1.241-1.11-.84-1.759.446-.723.281-.892-.436-.448-.635.392-1.155.269-1.155-.273s.788-1.191 1.75-1.443c1.667-.435 1.667-.463 0-.573-.962-.064-1.75-.621-1.75-1.238 0-.78-.455-.746-1.488.112-1.538 1.276-3.566-1.27-2.144-2.691.338-.338.104-1.23-.519-1.981-.624-.752-.852-1.648-.507-1.993.345-.345-.154-1.248-1.108-2.007-1.565-1.245-1.442-1.356 1.266-1.136 1.65.133 3.543.636 4.206 1.116 1.436 1.041 3.577-.032 2.746-1.376-.319-.516.461-1.34 1.734-1.83 2.042-.787 2.108-.975.564-1.599-1.992-.805-2.4-4.485-.5-4.508.9-.011.862-.261-.135-.893-.917-.581-1.164-1.759-.731-3.485.384-1.532.234-2.607-.365-2.607-.56 0-1.019.675-1.019 1.5s-.477 1.5-1.059 1.5-.769-.47-.414-1.044c.355-.574.103-1.697-.559-2.494-.662-.798-.963-2.372-.669-3.498.443-1.694.184-1.935-1.507-1.398-1.362.432-1.815.279-1.358-.459.376-.609.181-1.107-.434-1.107s-.797-.52-.405-1.155c.443-.715.275-.883-.44-.44-.635.392-1.155.332-1.155-.133 0-.466-.831-.909-1.847-.986-1.44-.108-1.745.397-1.384 2.288.342 1.787.023 2.426-1.211 2.426-.922 0-1.397.452-1.055 1.004.404.654-1.46.8-5.332.42-3.799-.374-6.195-.195-6.621.495-.381.616.11 1.111 1.141 1.151 1.634.064 1.619.145-.147.836-1.936.757-1.936.775-.008 1.854 1.071.6 1.589 1.448 1.151 1.886-.438.438-1.165.199-1.616-.532-.537-.868-1.045-.965-1.467-.282-.355.575.141 1.486 1.103 2.024 1.562.874 1.457 1.112-.979 2.222-2.845 1.296-3.486 2.503-1.654 3.113.59.197-.105 1.629-1.545 3.183-1.915 2.067-2.498 3.585-2.172 5.656.29 1.836-.046 3.021-.955 3.369-.81.311-1.402-.081-1.402-.93 0-.808-.412-1.469-.917-1.469-.504 0-1.368-1.238-1.921-2.75-.98-2.684-1.006-2.692-1.083-.333-.043 1.329-.376 2.119-.74 1.756-.363-.364-1.173.349-1.8 1.583-.904 1.78-.84 2.471.31 3.34 1.259.952 1.228 1.544-.24 4.486-1.054 2.112-1.299 3.521-.65 3.738 1.841.613 1.11 3.023-1.134 3.736-1.706.541-2.769-.037-4.923-2.677-1.512-1.851-3.09-3.024-3.508-2.606-.419.418-.228 1.293.423 1.944 1.738 1.738 1.441 2.819-.564 2.05-1.949-.748-6.762-5.267-5.61-5.267.404 0-.232-.9-1.413-2-1.18-1.1-2.615-2-3.188-2s-1.042-.45-1.042-1c0-1.873 2.287-1.006 6.54 2.479 4.23 3.466 4.245 3.47 4.103.99-.089-1.543-.618-2.307-1.393-2.011-.687.264-1.25.075-1.25-.42 0-.494 1.012-1.098 2.25-1.341l2.25-.443-2.239-.741c-1.231-.407-2.014-1.103-1.741-1.546.274-.443-.068-1.405-.761-2.136-.692-.732-1.375-2.391-1.516-3.686-.141-1.296-1.182-3.655-2.313-5.243-1.131-1.589-1.776-3.341-1.434-3.895.342-.554.176-1.007-.37-1.007-1.042 0-2.692 3.88-2.284 5.371.328 1.196-2.958 11.011-3.893 11.629-1.795 1.187-4.933 12.569-4.339 15.736.608 3.241 2.39 5.57 2.39 3.123 0-.938.289-.97 1.133-.126 1.54 1.54.243 4.625-1.641 3.902-1.095-.42-1.496.151-1.507 2.146-.011 1.906-.273 2.313-.875 1.362-1.369-2.161-1.96-.05-1.715 6.126.196 4.949-.02 5.731-1.584 5.731-1.953 0-2.438 1.494-.811 2.5.55.34 1 1.969 1 3.621v3.003l-6-.298c-5.373-.266-6-.521-6-2.439 0-1.178-.709-2.731-1.576-3.45-1.105-.917-1.4-2.251-.986-4.456.501-2.671.214-3.319-1.898-4.281-2.253-1.026-2.739-.805-5.133 2.333-2.846 3.731-8.407 5.032-8.407 1.967 0-.825-.338-1.447-.75-1.382-2.707.428-3.43-.265-2.818-2.702.385-1.536.263-2.346-.302-1.997-2.834 1.752-4.607-2.681-3.168-7.919.151-.55.222-2.673.156-4.718-.109-3.424-.295-3.65-2.368-2.866-1.293.489-2.125 1.539-1.956 2.468.192 1.057-.414 1.616-1.75 1.616-1.302 0-2.044.654-2.044 1.8 0 7.741-10.174 3.229-11.336-5.027-.331-2.35-.905-5.577-1.278-7.172-.479-2.055-.343-2.692.469-2.191.63.39 1.145.28 1.145-.244s-.675-1.211-1.5-1.528c-1.022-.392-1.5-1.992-1.5-5.025 0-5.478-.919-8.362-2.07-6.499-.568.919-1.136.527-2.008-1.385-.668-1.466-1.546-2.461-1.952-2.21-.406.25-.032 2.012.83 3.914.862 1.902 1.888 3.26 2.279 3.018.935-.578 2.088 2.47 1.372 3.629-.306.495-.049 3.491.571 6.66.62 3.168 1.373 8.347 1.673 11.51.53 5.586.476 5.75-1.908 5.75-2.974 0-3.829.727-3.097 2.635.568 1.48 6.31 4.92 6.31 3.78 0-.35.827.385 1.838 1.633 1.713 2.116 4.935 2.012 3.619-.117-.316-.512.153-.931 1.043-.931.89 0 1.335.458.989 1.018-1.171 1.894 3.477 7.982 6.093 7.982 1.4 0 2.418-.586 2.418-1.393 0-1.915 3.152-2.97 4.155-1.391.634 1 .818 1.007.83.034.02-1.687 2.491-1.586 3.941.161.801.965.839 1.616.123 2.059-.577.356-1.049 1.577-1.049 2.711 0 1.746-.237 1.867-1.542.784-1.13-.938-1.84-.983-2.653-.17-.812.812-.396 1.434 1.557 2.324 2.653 1.209 2.726 1.754.894 6.631-.259.688-.011 1.25.549 1.25 1.12 0 2.723-7.35 2.28-10.453-.237-1.652-.043-1.757 1.258-.677.846.702 1.296 1.907 1 2.677-.574 1.497 1.806 4.453 3.586 4.453 1.712 0 1.273 1.672-1.929 7.346-3.466 6.141-3.702 7.654-1.198 7.654 1.257 0 2.347-1.514 3.601-5 1.924-5.351 5.859-7.096 7.328-3.25.367.963 1.467 2.61 2.443 3.661 3.125 3.365.435 12.589-3.671 12.589-1.196 0-4.718 1.687-7.827 3.75-9.405 6.241-6.871 6.698 5.418.978 9.912-4.614 10.957-4.931 12.382-3.748 1.822 1.512 5.117-1.901 4.809-4.98-.225-2.245-.158-2.296.662-.5.765 1.677.926 1.434.998-1.5.122-4.984 1.503-6.899 2.983-4.135.891 1.665.859 2.138-.143 2.15-1.028.013-1.032.176-.023.817.957.607 1.006 1.536.202 3.841-.583 1.672-.949 3.442-.814 3.934.824 2.991-2.264 6.636-3.68 4.344-.444-.717-1.09-.682-2.048.114-.77.639-1.143 1.578-.828 2.087.728 1.178-1.724 11.135-2.955 11.996-.509.356-.673 1.613-.365 2.794.309 1.18-.074 3.364-.85 4.852-.776 1.488-1.414 3.467-1.418 4.397-.003.93-.436 1.957-.962 2.282-.526.325-.706 1.245-.399 2.045.361.94-.383 1.812-2.103 2.466-3.926 1.493-9.542 2.012-9.542.882 0-.541-.457-.701-1.016-.356-.559.346-.775 1.019-.479 1.498.748 1.211-2.428 2.825-4.495 2.284-.938-.245-3.462.333-5.608 1.286-2.146.952-4.252 1.657-4.68 1.567-.428-.09-1.053.553-1.389 1.43-.428 1.114-.827 1.244-1.329.432-.544-.88-1.782-.872-5.111.033-2.416.657-7.093 1.544-10.393 1.971-7.727.999-8.854 1.285-9.696 2.46-.382.534-1.038.628-1.457.21-.418-.419.436-1.79 1.898-3.046 1.906-1.638 2.498-2.901 2.09-4.46-.312-1.196-.162-2.175.334-2.175s.902-.9.902-2-.353-2-.785-2c-.432 0-.786-.702-.786-1.559 0-2.687-1.744-.62-2.392 2.836-.517 2.754-1.096 3.335-3.51 3.519-2.844.216-2.877.159-2.049-3.511.803-3.562 3.118-6.267 5.392-6.3.583-.009.481-.383-.226-.831-2.121-1.346-2.827-8.154-.846-8.154.897 0 1.687-.45 1.756-1 .069-.55.238-1.45.375-2s.306-1.277.375-1.615c.069-.338 1.289.148 2.712 1.08 1.422.932 2.675 1.546 2.783 1.365.108-.182.827-1.581 1.599-3.111 1.098-2.179 1.957-2.694 3.966-2.379 2.841.446 13.509-1.45 14.664-2.606.404-.404 1.614-.734 2.69-.734 1.556 0 1.72-.284.803-1.389-1.835-2.211-5.607-2.439-9.755-.589-8.39 3.741-11.665 3.329-9.26-1.166.592-1.107.822-2.677.51-3.49-1.009-2.629-4.003.18-5.126 4.811-1.171 4.829-5.461 7.102-5.461 2.893 0-1.139-.45-2.07-1-2.07s-1 .436-1 .968-1.237 1.616-2.748 2.408l-2.749 1.44 3.74.702c5.277.99 3.567 2.865-1.926 2.112-3.089-.423-4.215-.275-3.74.494.373.605.059 1.534-.699 2.064-1.066.746-1.095 1.079-.128 1.471.687.279 1.25.975 1.25 1.547 0 .587-.735.442-1.692-.334-.931-.754-1.395-.875-1.031-.268.623 1.04-3.885 3.953-5.527 3.571-.413-.096-.75.275-.75.825 0 1.172 2.657 1.198 5.5.055 2.157-.867 5.5.372 5.5 2.039 0 .563-.45.746-1 .406-.816-.504-1.364 3.778-.915 7.138.047.351-.343.914-.867 1.25-.524.337-1.695 3.182-2.602 6.324-1.233 4.267-2.025 5.568-3.133 5.143-.816-.313-1.483-1.196-1.483-1.962 0-3.254-2.952-1.079-5.234 3.857-.953 2.063-2.243 3.75-2.866 3.75-.663 0-.939 1.016-.665 2.45.53 2.773-1.692 4.246-3.785 2.509-.99-.822-1.373-.531-1.623 1.233-.251 1.772-.966 2.308-3.077 2.308-1.512 0-2.637-.45-2.5-1s.835-.934 1.549-.853c.714.081 1.13-.369.923-1-.461-1.404-5.722-2.16-5.722-.822 0 .527-1.125 1.241-2.5 1.586s-2.5 1.069-2.5 1.608c0 .54-.689.981-1.531.981-.843 0-1.827.788-2.188 1.75-.796 2.119-3.47 4.251-4.52 3.602-.419-.258-.761.007-.761.589s-.9 1.059-2 1.059c-2.415 0-2.51-.633-.411-2.732 1.452-1.452 1.43-1.681-.25-2.656-2.1-1.219-10.525-1.722-9.824-.587.255.411-.443.984-1.549 1.274-2.5.653-3.548.448-3.191-.624.151-.454-.692-.519-1.875-.143-1.378.437-1.92.309-1.509-.356.353-.571.184-1.32-.375-1.666-.559-.345-1.016-.151-1.016.431s-.45 1.059-1 1.059c-1.491 0-1.147-7.222.443-9.32 1.334-1.759 1.414-1.759 2.438 0 .908 1.561 1.063 1.588 1.089.185.016-.899 1.07-2.317 2.342-3.15 2.39-1.566 5.207-8.704 4.819-12.215-.183-1.657-.044-1.743.809-.5.566.825 1.036 1.13 1.045.679.008-.452.735-.102 1.614.777 1.354 1.354 1.392 1.849.25 3.225-.884 1.066-1.361 4.469-1.384 9.882l-.035 8.255 2.535-.34a197.16 197.16 0 0 1 3.191-.409c.361-.038.136-1.194-.5-2.569-.636-1.376-1.718-2.29-2.406-2.032-.688.258-1.25-.019-1.25-.616s.884-.854 1.965-.571c1.736.454 3.107-1.222 3.501-4.281.291-2.255 2.085-3.119 5.247-2.526 2.351.441 3.27.308 2.826-.41-.361-.585-1.47-1.064-2.463-1.064-2.715 0-6.761-3.609-7.544-6.729-.97-3.865-2.503-5.415-4.673-4.726-1.359.431-1.859.087-1.859-1.278 0-1.027-.412-2.295-.915-2.817-.504-.522-1.066-2.075-1.25-3.45-.217-1.618-.894-2.41-1.918-2.244-.871.14-1.677-.422-1.792-1.25-.51-3.689-.392-6.144.381-7.92.636-1.46.519-1.72-.491-1.096-.843.522-1.084.431-.663-.25.363-.588.243-1.22-.266-1.405-.51-.184-.063-2.103.993-4.264 2.123-4.342 2.491-7.571.862-7.571-.582 0-.781.45-.441 1s.141 1-.441 1-.989.337-.903.75c.086.413-.335 1.875-.936 3.25l-1.093 2.5-.064-2.668c-.034-1.468-.304-3.297-.599-4.065-.295-.769.558-2.578 1.895-4.02 1.337-1.443 2.178-2.876 1.869-3.185-.309-.309-.01-.562.664-.562s.948-.45.608-1c-.34-.55.056-1 .88-1 1.525 0 2.037-2.253 3.178-14 .52-5.354 1.603-24.742 1.579-28.25-.007-.962.457-1.75 1.032-1.75s.786-.675.469-1.5c-.316-.825-.139-1.5.393-1.5.533 0 .969.886.969 1.969 0 4.179 2.724.726 4.152-5.263.971-4.075 1.93-6.106 2.792-5.913.864.192 1.134-.388.79-1.702-.287-1.098-.007-2.184.622-2.414.829-.304.849-.921.073-2.239-1.421-2.411-3.97-3.29-3.12-1.076.345.9.22 2.649-.277 3.887-.498 1.238-.934 1.689-.969 1.001-.101-1.997-1.662-1.448-2.843 1-.697 1.446-1.109 1.704-1.152.723-.038-.841.633-2.528 1.489-3.75 1.423-2.032 1.413-2.223-.117-2.223-1.277 0-1.507-.533-.97-2.25 1.044-3.342.793-5.954-.67-6.991-.858-.607-.364-.717 1.45-.321 2.29.5 2.75.262 2.75-1.419 0-1.11-.45-2.019-1-2.019s-1-.948-1-2.107c0-1.407-.471-1.926-1.417-1.563a1.534 1.534 0 0 1-1.969-.893c-.303-.79-1.353-1.444-2.333-1.452-1.332-.012-1.451-.225-.471-.846.852-.541.154-.846-2-.875-1.82-.024-2.747.17-2.06.43 1.909.722 1.491 2.01-.851 2.622-2.703.707-1.684 2.384 1.583 2.604 6.071.409 6.28.5 6.149 2.698-.072 1.205-.437 2.001-.812 1.77-.374-.231-1.015.119-1.422.779-.523.845-.929.666-1.376-.606-.599-1.709-.726-1.713-2.355-.084-1.382 1.381-2.013 1.48-3.194.5-1.366-1.134-2.177 1.555-1.59 5.273.065.413-.332.75-.882.75s-1 .675-1 1.5c0 1.423-1.095 1.905-3.636 1.601-1.773-.213-2.349 2.464-1.311 6.085 1.215 4.237 1.211 7.095-.009 6.341-.526-.325-.721-1.206-.432-1.958.288-.752.044-1.664-.544-2.027-.587-.363-1.068-1.519-1.068-2.57 0-1.374-.469-1.729-1.674-1.267-1.274.489-1.513.243-1-1.031l1.335-3.314c.543-1.349.334-1.457-1.181-.609-1.352.757-2.213.659-3.241-.369-1.864-1.864-3.486-.734-2.664 1.855.649 2.043.611 2.041-2.954-.162l-3.611-2.232-1.012 2.662c-.557 1.465-.758 3.075-.446 3.579.737 1.193-.647 1.147-2.552-.084-1-.646-1.083-.974-.25-.985.688-.008 1.25-.465 1.25-1.015 0-.55-.909-1-2.019-1-1.649 0-1.905.454-1.398 2.474.617 2.459.602 2.465-2.464.935-2.274-1.134-3.034-2.161-2.89-3.902.107-1.299.55-2.144.983-1.876.433.268.788-.257.788-1.166 0-.909-.9-1.888-2-2.175-2.264-.592-2.61-1.839-.75-2.707.751-.35.851-.789.25-1.099-2.651-1.369-3.299-2.218-3.937-5.157-.631-2.909-.398-3.312 2.792-4.825 1.915-.909 4.755-1.55 6.313-1.426 1.558.124 3.957.087 5.332-.083 3.286-.405-10.1-2.043-16.38-2.005-4.175.026-4.704-.181-3.664-1.435 1.652-1.99.52-3.49-2.113-2.802-1.319.345-1.913.171-1.531-.447.344-.556-.486-1.518-1.843-2.136-1.963-.895-2.469-.848-2.469.228 0 .778-1.065 1.354-2.5 1.354-1.375 0-2.5-.394-2.5-.875 0-1.817-1.581-.786-1.725 1.125-.1 1.327.466 2 1.68 2 1.917 0 3.455 2.528 2.489 4.09-.747 1.209-4.444 1.172-4.444-.043 0-.525-1.238-.35-2.75.389-5.253 2.564-9.474 3.589-8.929 2.169.272-.708.101-1.921-.38-2.696-.566-.913-.84.303-.778 3.452.061 3.131-.396 5.172-1.284 5.735-1.088.689-1.007.877.388.889 1.545.013 1.704.76 1.268 5.968-.274 3.273-.076 6.213.44 6.532.516.318.687 1.231.381 2.029-1.102 2.873-4.345-.244-4.472-4.299-.064-2.043-.317-2.952-.563-2.02-.638 2.422-3.321 1.066-3.321-1.68 0-1.248.702-2.852 1.559-3.564 1.171-.971 1.393-2.278.891-5.246-.478-2.83-.282-4.197.691-4.813 1.093-.693 1.101-.864.041-.877-.912-.01-.659-.94.821-3.019 1.769-2.484 1.886-3.101.679-3.565-.864-.331-1.255-1.347-.958-2.484.663-2.534 8.267-2.565 8.291-.033.012 1.252.194 1.305.862.251.466-.735 1.021-1.268 1.235-1.186 1.105.427 3.888-1.367 3.888-2.507 0-1.688-5.857-3.015-7.235-1.637-1.263 1.263-3.765-.905-3.765-3.264 0-.864-.398-1.571-.883-1.571-.486 0-1.119-.9-1.407-2-.347-1.328-.03-2 .943-2 .806 0 1.19.445.854.989-.363.587.086.721 1.105.33 1.164-.447 1.484-.283.993.511-.465.753.033 1.17 1.395 1.17s1.86-.417 1.395-1.17c-.493-.798-.168-.957 1.023-.5.96.369 2.046.702 2.414.74.367.039-.232.456-1.332.927-1.318.565-.045.731 3.731.486 3.887-.252 5.657-.009 5.5.754-.127.619 1.344 1.283 3.269 1.475 7.483.749 10.603 1.021 13.25 1.152 2.106.104 2.777.663 2.866 2.386.087 1.687.23 1.813.573.504.362-1.386.853-1.534 2.376-.719 1.056.565 5.15 1.247 9.099 1.516 7.675.522 11.239 2.084 8.391 3.678-.864.484-2.017.603-2.563.266-.546-.337-.992.118-.992 1.011 0 1.345 1.075 1.593 6.25 1.445 9.045-.259 9.25-.207 9.25 2.383 0 2.262-.23 2.325-7.5 2.057l-7.5-.276 6.615.847c3.637.466 7.999 1.563 9.693 2.439 3.795 1.962 4.821.716 2.733-3.322-1.823-3.526-1.938-4.443-.441-3.517.773.477.762.049-.035-1.441-1.307-2.441-.397-2.687 2.323-.628 1.359 1.029 2.411 1.15 3.75.433 1.259-.673 1.862-.661 1.862.039 0 .569.675 1.035 1.5 1.035s1.5-.395 1.5-.878c0-1.448-2.38-2.885-4.274-2.578-1.177.19-1.682-.269-1.5-1.362.183-1.101-.483-1.691-2.008-1.78-1.255-.072-2.563-.414-2.908-.758-.344-.345-1.273-.089-2.065.567-1.143.949-1.634.844-2.391-.508-.525-.937-1.606-1.703-2.404-1.703-.887 0-1.495-1.067-1.566-2.75-.071-1.692-.292-2.077-.573-1-.485 1.853-2.311 2.446-2.311.75 0-.55-.408-1-.906-1-.499 0-.671.9-.384 2 .562 2.15-.073 2.348-3.21 1-1.71-.735-1.746-.87-.25-.93 1.985-.079 2.326-1.596.598-2.664-1.073-.663-2.781-.897-11.848-1.625-2.242-.18-3.548-.82-3.635-1.781-.074-.825-.186-2.048-.25-2.719-.063-.67-.787-.96-1.609-.645-.822.316-1.265.945-.984 1.4.281.454.053 1.108-.506 1.454-.559.345-1.072.151-1.141-.431-.303-2.568-.416-2.933-1.125-3.642-.412-.413-.75.465-.75 1.952 0 2.425-.212 2.588-2.078 1.589-1.143-.612-2.662-.888-3.376-.614-.713.274-2.591-.173-4.172-.994-1.581-.82-2.949-1.347-3.041-1.17-.091.176-.504-.018-.916-.43-.413-.412.026-.75.975-.75s1.448-.45 1.108-1c-.34-.55-.115-1 .5-1s.821-.48.459-1.067c-.363-.587-.052-.983.691-.881 2.534.347 3.969-.051 3.414-.948-1.073-1.736 2.982-5.496 5.03-4.663 1.852.752 1.849.797-.094 1.596-1.1.452-1.389.854-.642.893.954.049 1.166.838.711 2.65-.555 2.214-.376 2.493 1.268 1.972 1.42-.451 2.076-.019 2.539 1.67.509 1.858.798 2.008 1.567.812.595-.926.583-1.9-.032-2.641-.694-.836-.078-1.488 2.132-2.258 1.709-.596 2.841-1.514 2.516-2.04-.326-.526-.119-1.249.459-1.606.947-.585.738-5.935-.467-11.989-.219-1.1-.439-2.45-.49-3-.05-.55-.569-.325-1.152.5-.799 1.129-1.187 1.191-1.568.25-.279-.687-2.072-1.25-3.983-1.25-2.153 0-3.231-.396-2.833-1.041.354-.572 1.571-.746 2.706-.386 1.728.549 1.972.313 1.509-1.459-.304-1.163-.187-2.114.26-2.114s.569-.933.27-2.074c-.426-1.632-1.067-1.943-3.004-1.457-1.766.444-2.333.253-2.006-.675.25-.712 1.194-1.232 2.098-1.155.903.076 1.642-.261 1.642-.75s-.477-.889-1.059-.889-.781-.45-.441-1-.294-1-1.41-1c-1.309 0-1.84.487-1.5 1.375.363.946-.271 1.375-2.031 1.375-1.407 0-2.559-.42-2.559-.934s.338-.726.75-.472c.412.253.862-1.07.999-2.941.185-2.522-.154-3.403-1.309-3.403-.857 0-1.28.45-.94 1 .34.55-.196 1.036-1.191 1.079-1.049.046-1.284.291-.559.583.687.278 1.25 1.32 1.25 2.316 0 1.549-.5 1.699-3.45 1.033-1.897-.428-3.769-.493-4.159-.144-.39.348-.472-.042-.182-.867.879-2.498-.975-6-3.177-6-1.208 0-2.032-.658-2.032-1.622 0-1.329-.271-1.398-1.5-.378-.906.752-1.5.833-1.5.206 0-.572.499-1.206 1.11-1.409.664-.222.389-.957-.688-1.834-1.613-1.313-1.729-1.284-1.141.287.364.971.19 1.75-.392 1.75-.647 0-.803-1.243-.408-3.25.416-2.112.317-2.783-.282-1.915-.507.735-1.244 1.185-1.636 1-.392-.184-1.564 1.465-2.604 3.665s-1.906 3.227-1.925 2.281c-.021-1.036-.577-1.51-1.403-1.193-.835.321-1.614-.373-2-1.781-.464-1.698-.853-1.963-1.473-1.004-1.009 1.562-6.87 2.472-7.663 1.19-.307-.498-1.293-.624-2.191-.279-1.091.418-1.392.238-.909-.544.999-1.616-.018-1.463-2.922.44-1.352.885-3.122 1.355-3.933 1.044-.812-.312-1.742-.136-2.067.39-.325.526-.066.956.575.956.643 0 .899.696.57 1.552-.354.923-.178 1.294.434.916.672-.416.777.345.302 2.198-.399 1.559-.732 4.258-.74 5.999-.012 2.689-.451 3.252-2.917 3.746-1.596.319-3.306.331-3.8.026-.493-.305-.897.147-.897 1.004 0 2.464-1.952 1.815-3.025-1.006-1.297-3.412-1.231-4.711.195-3.83.83.513.931.167.348-1.191-.452-1.053-.9-2.923-.996-4.157-.284-3.659-1.346-3.713-2.294-.117-.791 2.998-1.218 3.327-3.966 3.058-1.694-.166-3.36.152-3.703.707-.343.554-1.284.754-2.091.444-.929-.356-1.468.049-1.468 1.103 0 .916-.457 1.383-1.016 1.038-.559-.346-.758-1.047-.441-1.559.316-.512.098-.931-.484-.931s-1.059.9-1.059 2 .506 1.887 1.125 1.75c.619-.138 1.313.256 1.542.875.229.619-.657 1.331-1.97 1.582l-2.387.456-.033-10.831c-.018-5.958.362-10.832.845-10.832s.878.505.878 1.122c0 .807.397.794 1.411-.048.798-.662 1.655-.776 1.973-.262.755 1.221-.331 2.188-2.457 2.188-1.253 0-1.592.565-1.211 2.021.389 1.487.859 1.746 1.781.981.946-.785 1.253-.436 1.253 1.426 0 1.356.731 3.196 1.625 4.09 1.5 1.5 1.625 1.444 1.625-.728 0-1.81.598-2.403 2.589-2.568 3.639-.301 4.272-.888 3.966-3.674-.148-1.344.334-2.675 1.071-2.958.737-.283 1.076-1.204.752-2.046-.323-.843-.961-1.302-1.417-1.02-.457.282-.778-3.313-.714-7.99.121-8.79-.433-10.748-2.464-8.717-.911.911-.863 1.183.208 1.183.931 0 .749.472-.55 1.425-1.778 1.306-2.072 1.159-3.504-1.75-.859-1.746-2.097-3.063-2.75-2.925-1.719.362-1.465-.535.857-3.027 1.426-1.531 1.668-2.319.8-2.608-.684-.228-1.409.08-1.611.685-.253.759-1.155.8-2.914.131-2.09-.794-2.444-.7-1.975.524.317.825-.191 1.977-1.136 2.577-1.277.81-1.382 1.22-.416 1.623 1.011.422 1.031.854.092 1.985-.908 1.094-.918 1.726-.042 2.602 1.355 1.355 1.517 2.758.319 2.758-.462 0-1.379-1.183-2.038-2.629-1.646-3.612-2.484-2.337-1.295 1.97.821 2.971.675 3.799-.927 5.248-1.045.947-1.901 2.326-1.901 3.066 0 1.637-2.1 1.344-3.549-.495-.873-1.107-1.284-1.066-2.367.239-1.374 1.655-3.566 1.19-2.502-.531.337-.547-.198-1.891-1.19-2.987-1.351-1.494-1.546-2.417-.778-3.687 1.648-2.723.167-6.645-2.655-7.029-3.725-.507-4.64-1.925-2.405-3.727 1.853-1.495 1.803-1.541-1.054-.972-5.494 1.093-5.921 1.045-6.285-.716-.255-1.233.269-1.75 1.771-1.75 1.281 0 1.864-.434 1.46-1.087-.369-.598-1.492-.873-2.494-.611-1.003.263-2.046-.104-2.318-.814-.273-.71.373-1.518 1.435-1.796S84 159.64 84 158.971c0-.904-.344-.93-1.342-.102-.738.612-1.638.818-2 .456-.362-.362-.658-.229-.658.296 0 .524-.9 1.021-2 1.104-2.205.166-2.725-1.264-.75-2.066.95-.385.901-.75-.203-1.517-1.825-1.27-9.047-1.235-9.047.043 0 .522-.956.646-2.125.275-1.366-.433-1.895-.301-1.479.371.355.576-.096 1.461-1.003 1.969-1.128.631-1.292 1.144-.519 1.622.777.48.823 1.275.147 2.539-.732 1.368-.605 1.985.497 2.408.815.312 1.482.185 1.482-.284 0-.468 1.125-1.067 2.5-1.33 1.942-.371 2.5-.063 2.5 1.384 0 1.023-.466 1.861-1.035 1.861-2.575 0-6.003 3.249-4.869 4.615.622.75 1.499 1.136 1.948.858.45-.278 1.1-.048 1.446.511.345.559-.186 1.023-1.181 1.031-1.534.013-1.581.163-.309.985 1.248.807 1.164.985-.5 1.064-1.1.051-1.466.311-.813.577 1.707.695-1.628 4.359-3.968 4.359-1.01 0-1.578-.419-1.262-.931a1.086 1.086 0 0 0-.336-1.494c-1.131-.699-2.355 2.237-1.506 3.611.357.578-.175.844-1.247.625-1.991-.407-2.195-5.33-.3-7.261.513-.522.932-1.985.932-3.25 0-1.698.588-2.318 2.25-2.368l2.25-.067-2.252-1.086c-1.806-.871-2.646-.728-4.25.722-1.997 1.808-2.536 1.064-1.391-1.919.334-.87 1.218-1.582 1.965-1.582 2.017 0 3.889-3.939 2.521-5.307-.791-.791-1.093-.744-1.093.166 0 .692-.45.981-1 .641-.55-.34-1 .084-1 .941 0 .863-.845 1.559-1.893 1.559-1.041 0-2.139.64-2.439 1.422-.334.871-1.345 1.214-2.607.884-2.598-.68-2.579-1.033.189-3.449l2.25-1.963-2.166.594c-1.191.326-2.469.103-2.839-.496-.417-.675-1.115-.742-1.834-.177-1.442 1.133-4.661 1.145-4.661.018 0-.458-.691-.833-1.535-.833-.845 0-2.71-.77-4.146-1.711-3.15-2.063-6.319-2.673-6.319-1.215 0 .614-.862.787-2.048.411-1.126-.358-2.701-.108-3.5.555-.799.663-1.508.925-1.577.582a30.824 30.824 0 0 1-.25-1.539c-.219-1.602-1.401-2.254-2.084-1.15M59.74 206.75c-.864.963-1.881 3.421-2.26 5.464-.379 2.043-1.317 4.236-2.085 4.873-1.502 1.247-1.907 3.913-.595 3.913.44 0 1.34-.54 2-1.2.933-.933 1.2-.822 1.2.5 0 .935-.45 1.7-1 1.7s-1 .45-1 1 .337.947.75.882c1.855-.293 2.137.284 1.263 2.583-.612 1.612-.58 2.684.093 3.101.567.35.789 1.266.494 2.035-.296.77-.143 1.399.338 1.399s.653 1.012.382 2.25c-.352 1.606-.222 1.868.454.916.76-1.069 1.081-.986 1.621.42.388 1.011.129 2.099-.611 2.569-.944.599-.821.818.466.83.962.008 1.757.578 1.765 1.265.011.834.329.754.959-.242 1.385-2.191 3.108-.046 3.726 4.638.631 4.782.525 4.683 4.192 3.878l3.035-.667-1.571-3.926c-.865-2.16-1.312-4.603-.995-5.429.317-.826.149-1.502-.373-1.502-.551 0-.689-1.899-.33-4.522.524-3.826.381-4.43-.932-3.927-.987.379-1.723-.067-2.023-1.228-.45-1.743-.476-1.744-.587-.014-.137 2.133-2.116 1.266-2.116-.927 0-.825.384-1.263.854-.972 1.02.63 3.493-4.396 2.602-5.288-.341-.34-1.147.055-1.791.88-1.35 1.725-3.665 2.423-3.665 1.105 0-.491.722-1.17 1.604-1.508.915-.352 1.358-1.256 1.031-2.107-.315-.821-.178-1.492.303-1.492s.63-.935.332-2.077c-.479-1.828-.72-1.901-2.014-.608-1.294 1.294-1.698 1.243-3.363-.422-2.3-2.3-2.406-4.716-.336-7.67 1.842-2.63.444-2.994-1.817-.473m24.292 6.5c-.018 2.063.393 3.75.913 3.75.521 0 .795 1.912.609 4.25-.185 2.338.12 4.813.677 5.5.697.86.663 1.25-.109 1.25-.642 0-1.092 1.602-1.052 3.75.058 3.083.233 3.394.984 1.75.822-1.801.89-1.751.68.5-.26 2.774-.225 2.782 6.613 1.651 4.018-.665 4.765-1.115 4.368-2.633-.563-2.154 3.973-3.513 6.035-1.807.893.738 1.284.642 1.368-.339.065-.754.416-.022.78 1.628.515 2.336.268 3.159-1.118 3.718-2.389.963-2.266 2.782.189 2.782 1.275 0 1.779.492 1.431 1.399-.295.769-.025 1.714.599 2.1.672.415 1.36-.156 1.685-1.398.302-1.156 1.002-2.101 1.555-2.101.664 0 .671-.424.019-1.25-.543-.687-.808-2.488-.588-4 .392-2.708-1.116-3.912-1.911-1.526-.225.674-.67.224-.99-1-.32-1.223-.174-2.224.325-2.224.498 0 .906-.675.906-1.5s-.45-1.5-1-1.5-1 .6-1 1.333c0 .734-.675 1.334-1.5 1.334-1.911 0-1.915-1.077-.011-2.658.819-.68 1.262-1.604.984-2.053-.278-.45-.095-1.071.406-1.381.501-.31 1.182.141 1.512 1.002.521 1.359.997 1.283 3.605-.574 1.652-1.177 3.036-1.771 3.074-1.321.039.45.433-.082.877-1.182.459-1.139.376-2.538-.193-3.25-1.45-1.814-2.889-1.532-2.548.5.231 1.376-.339 1.704-2.667 1.533-1.629-.12-3.31.33-3.735 1-.581.914-.777.875-.789-.155-.013-1.164-.27-1.164-1.688 0-1.491 1.222-1.61 1.126-1.094-.879.319-1.239.223-2.031-.213-1.761-.437.27-.732-.244-.657-1.141.075-.898-.488-1.851-1.252-2.119-.848-.297-1.117-.047-.691.642.882 1.428-1.886 1.486-4.486.095-1.413-.757-1.934-.712-1.934.166 0 .662-.296.906-.658.544-.362-.362-1.175-.229-1.807.296-.774.643-1.618.283-2.592-1.105-3.951-5.635-3.877-5.604-3.911-1.616m292.695 24.685c-.365 1.398-1.092 1.782-2.616 1.384-1.505-.394-2.111-.088-2.111 1.064 0 .987.877 1.648 2.25 1.696 1.238.043 1.685.307.994.585-.691.279-1.002.918-.691 1.421.311.503-.099.915-.911.915-.811 0-1.665-.562-1.896-1.25-.619-1.838-3.386.68-4.167 3.791-.339 1.352-1.085 2.459-1.657 2.459-.572 0-.748.472-.392 1.049.418.676 1.06.708 1.809.089 1.382-1.142 8.661-1.092 8.661.06 0 .441.9.802 2 .802 1.333 0 2-.667 2-2 0-1.1.367-2 .815-2 1.288 0 .592-7.375-.925-9.804-1.689-2.705-2.506-2.772-3.163-.261m-291.648 8.374c-.045 1.603-.508 2.544-1.079 2.191-.62-.383-1 1.47-1 4.882 0 3.025.451 5.779 1.003 6.12.663.409.637 1.303-.077 2.637-.594 1.109-.791 2.77-.438 3.689.352.92.65 1.897.662 2.172.011.275.471 1.043 1.021 1.706.551.664.675 1.734.276 2.38-.454.734-.205 1 .664.712 1.672-.556 2.495-21.06.974-24.298-.516-1.1-1.161-2.675-1.433-3.5-.272-.825-.53-.236-.573 1.309m203.521.09c.295.769.095 1.671-.444 2.004-.539.334-.768 1.954-.508 3.602.274 1.74.028 2.995-.588 2.995-.583 0-1.06-1.035-1.06-2.3 0-3.132-1.933-5.001-3.676-3.554-.982.815-1.324.766-1.324-.19 0-.709-.296-.993-.658-.631-.362.362-1.262.156-2-.456-.998-.828-1.342-.802-1.342.102 0 .669.9 1.452 2 1.739 3.038.795 2.389 2.017-1.008 1.896-1.789-.063-2.834-.564-2.579-1.234.452-1.184-1.244-3.372-2.613-3.372-.44 0-.8.886-.8 1.969 0 1.442-.467 1.804-1.75 1.352-1.429-.502-1.52-.368-.5.732 3.142 3.386-.083 6.947-6.29 6.947-2.158 0-2.311.262-1.46 2.5.748 1.966.636 2.5-.525 2.5-.811 0-1.475.702-1.475 1.559 0 .964-.477 1.285-1.25.84-.687-.396-.95-.385-.583.024.366.409-.233 1.643-1.332 2.742-1.902 1.902-1.914 2.09-.261 3.916.955 1.056 2.341 1.919 3.081 1.919.74 0 1.345.45 1.345 1s.675 1 1.5 1 1.5.675 1.5 1.5-.54 1.5-1.2 1.5c-.881 0-.904.296-.087 1.113 1.888 1.888 3.37-.085 3.129-4.167-.126-2.14.082-4.204.464-4.585.382-.382.726-.057.764.722.039.78.714-.337 1.5-2.482 1.008-2.751 1.12-4.27.381-5.161-.66-.794-.691-1.483-.085-1.857.53-.328 1.192-.03 1.472.661.39.959.748.913 1.52-.196.555-.799.788-1.811.517-2.25-.849-1.375 2.077-.87 4.402.759 2.019 1.414 2.223 1.41 2.223-.041 0-2.87 4.845 2.656 5.465 6.234.482 2.781.272 3.25-1.459 3.25-1.773 0-1.868.248-.774 2 .687 1.1 1.842 2 2.568 2 .725 0 1.035.457.69 1.016-.346.559-1.105.722-1.689.361-.616-.381-.849-.073-.556.734.278.764 1.041 1.267 1.697 1.117.655-.15 1.069.525.92 1.5-.15.975.283 2.778.961 4.008 1.595 2.893 3.367 10.692 3.567 15.7.213 5.336-3.794 10.003-7.739 9.013-2.063-.518-2.651-.301-2.651.978 0 .904-.716 2.736-1.591 4.072-1.505 2.296-1.458 2.552.861 4.714 1.349 1.258 2.819 3.412 3.267 4.787l.816 2.5.614-2.5c.386-1.567 1.439-2.619 2.824-2.82 1.215-.175 2.209-.793 2.209-1.372 0-.693.471-.662 1.378.091 1.085.901 1.495.693 1.933-.979.306-1.17 1.033-1.826 1.622-1.462.587.363 1.067.157 1.067-.458s.399-.871.887-.57c.487.301 1.438-.117 2.113-.93.675-.813 1.595-1.251 2.044-.973.45.278 1.1.048 1.446-.511.345-.559 1.915-1.016 3.487-1.016 3.365 0 6.023-.889 6.023-2.013 0-.44-.88-.57-1.955-.289-1.471.385-2.113-.122-2.598-2.053-.378-1.508-1.839-3.093-3.545-3.849-1.596-.706-2.902-1.624-2.902-2.04 0-.416-.927-.756-2.059-.756-1.132 0-1.781-.45-1.441-1 .34-.55.162-1-.396-1-.557 0-1.351-1.687-1.764-3.75a347.014 347.014 0 0 0-.92-4.5c-.093-.413-.233-1.538-.31-2.5-.119-1.475-.287-1.519-1.071-.279-1.21 1.914-2.03 1.004-3.01-3.342-1.107-4.909.198-5.641 1.729-.969l1.258 3.84-.54-4.5c-.297-2.475-1.74-7.988-3.207-12.251-2.15-6.247-2.421-7.993-1.401-9 1.014-1 1.506-.925 2.467.374.659.892 3.127 1.948 5.483 2.346l4.284.724-2.801-2.822c-2.402-2.42-2.552-2.872-1.051-3.17.962-.191 1.75-.855 1.75-1.474 0-.795.353-.774 1.2.073 1.669 1.669 3.8 1.5 3.8-.3 0-.825-.606-1.5-1.347-1.5s-1.836-1.012-2.433-2.25c-.798-1.656-1.102-1.813-1.152-.594-.047 1.134-.679 1.497-2.003 1.151-2.163-.566-5.949-4.307-4.359-4.307.559 0 .802-1.125.539-2.5s-1.087-2.5-1.83-2.5c-.748 0-1.112.625-.815 1.399m-108.043 27.857c-2.435 1.813-2.829 1.894-2.281.468.441-1.15.172-1.724-.807-1.724-.808 0-1.469.54-1.469 1.2 0 .933-.267.933-1.2 0-3.203-3.203-8.998.535-9.608 6.199-.242 2.245.026 2.731 1.25 2.262.857-.329 1.558-.136 1.558.429 0 .566.5.719 1.112.341.611-.378 1.488-.079 1.947.664.502.813.358 1.656-.362 2.113-.823.524-.677.766.47.777 2.494.023 2.779 2.185.683 5.179-1.385 1.98-1.541 2.786-.607 3.136.877.328.652.95-.743 2.053-1.707 1.351-1.756 1.588-.332 1.615 2.567.049 4.883-1.076 4.267-2.073-.304-.492-.114-.895.423-.895.536 0 1.176.563 1.422 1.25.245.688.81.911 1.254.496.444-.415-.194-1.82-1.418-3.122-1.889-2.012-1.99-2.458-.67-2.965 3.095-1.187 5.086.572 4.629 4.091-.09.688.334 1.25.94 1.25.607 0 .825.45.485 1-.34.55.309 1 1.441 1 1.132 0 2.059.45 2.059 1 0 1.657 2.739 1.124 3.426-.667.753-1.964-.863-4.054-1.872-2.42-.37.598-1.347 1.087-2.172 1.087-.825 0-1.222-.45-.882-1 .34-.55.141-1-.441-1-1.314 0-1.329-1.042-.044-3 .857-1.305 1.106-1.312 1.919-.048.514.799.712 1.811.441 2.25-.271.439-.043.798.507.798 4.132 0 .523-5.231-3.715-5.385-1.801-.066-3.163-.653-3.165-1.365-.001-.687-.505-1.137-1.119-1-.615.137-1.25-.538-1.412-1.5-.178-1.061.36-1.781 1.367-1.829 1.374-.065 1.402-.178.162-.65-1.567-.596-2.958-2.238-2.985-3.521-.031-1.544 2.859-.68 3.347 1 .334 1.146.493.887.463-.75-.074-4.002.093-4.313 1.631-3.036.801.664 1.875.949 2.387.633.512-.316 1.482.09 2.157.903.675.813 1.584 1.257 2.02.988.436-.27.579.329.317 1.33-.262 1.002.23 2.408 1.093 3.124 1.835 1.523 2.011.751.482-2.107-1.006-1.88-.865-1.984 1.873-1.382 3.958.869 5.001-1.667 1.942-4.726-1.225-1.225-2.095-2.622-1.934-3.105.161-.483-.627-.637-1.75-.343-1.124.293-2.043.126-2.043-.373 0-1.616-3.425-.898-6.443 1.35m-60.441 30.561c-.072.819-.827 1.092-1.992.722-1.336-.424-2.029-.011-2.406 1.433-.292 1.115-.096 2.028.435 2.028s.711.412.4.915c-.311.503 0 1.178.691 1.5 1.008.469 1.008.701 0 1.17-.691.322-1.043.931-.782 1.353.261.422-.223 1.621-1.076 2.665-1.316 1.612-1.468 1.639-1.011.179.296-.945.107-1.984-.419-2.309-.526-.325-.956.336-.956 1.468s-.392 2.059-.871 2.059-1.164 2.363-1.522 5.25a776.742 776.742 0 0 1-1.264 9.642c-.439 3.149-.291 4.194.522 3.691.624-.385 1.149-2.137 1.167-3.892.03-3.022.109-3.088 1.5-1.25 1.008 1.333 1.128 2.151.384 2.611-.708.437-.563.87.417 1.246 1.522.584 3.046-1.586 1.911-2.721-1.273-1.273-.93-4.67.42-4.152.735.282 1.34-.036 1.345-.706.004-.671 1.574-2.871 3.488-4.89 2.207-2.328 3.027-3.829 2.241-4.104-.898-.314-.757-.976.514-2.41.964-1.088 1.458-2.272 1.098-2.632-.361-.36-.617-2.011-.569-3.669.054-1.916-.41-3.014-1.275-3.014-.747 0-1.565-.788-1.817-1.75-.251-.962-.509-1.157-.573-.433m328.285 18.214c-.372 2.806-1.382 5.807-2.245 6.67-1.02 1.02-1.584 3.442-1.612 6.93-.024 2.95-.381 5.364-.794 5.366-.413.002-.75-.897-.75-1.997s-.562-2.007-1.25-2.015c-.912-.011-.939-.214-.097-.75.86-.548.817-1.498-.169-3.735l-1.322-3-.238 3c-.132 1.65-.218 3.563-.193 4.25.026.688-.691 1.286-1.592 1.329-1.037.05-1.18.264-.389.583.688.278 1.282 1.93 1.32 3.671.06 2.676.204 2.857.93 1.167.785-1.827.866-1.841.93-.156.038 1.014.97 2.079 2.07 2.366 1.1.288 2.014 1.033 2.03 1.657.017.623.489.345 1.05-.617 1.59-2.73 2.913-2.066 2.99 1.5.097 4.489 1.336 7.52 2.382 5.827.646-1.044.965-1.031 1.673.066.736 1.141 1.016 1.139 1.758-.013.715-1.108 1.091-1.013 1.97.5 1.009 1.737 1.088 1.706 1.117-.439.017-1.29-.411-2.036-.97-1.691-.55.34-1 .179-1-.358 0-.536.563-1.202 1.25-1.48.81-.326.688-.532-.346-.583-1.254-.062-1.617-1.31-1.697-5.829-.069-3.906.164-5.109.727-3.75.729 1.758.874 1.637 1.198-1 .27-2.199.835-2.922 2.118-2.706 1.34.225 1.723-.361 1.634-2.5-.064-1.537-.314-2.045-.557-1.129-.242.916-1.14 1.933-1.995 2.261-1.071.411-1.383.149-1.002-.844.304-.792.854-3.047 1.223-5.011.368-1.964 1.07-3.571 1.558-3.571.489 0 .889-.675.889-1.5s-.398-1.5-.883-1.5c-.486 0-1.119-.9-1.407-2-.88-3.367-2.334-2.22-1.9 1.5.262 2.242-.013 3.5-.763 3.5-.645 0-1.093-.788-.995-1.75.375-3.681-.107-5.25-1.611-5.25-.857 0-1.337.359-1.066.798.271.439.08 1.451-.426 2.25-.691 1.093-.922.786-.934-1.239-.028-4.889-1.92-4.004-2.614 1.222M.488 503c0 92.675.118 130.587.262 84.25.144-46.338.144-122.163 0-168.5C.606 372.412.488 410.325.488 503M295 341.823c-1.53 1.027-2.626 2.836-2.825 4.664-.179 1.643-.662 3.218-1.073 3.5-1.24.85-2.108 4.013-1.102 4.013 1.081 0-.092 3.992-2.578 8.778-.08.153-1.332-.173-2.783-.725-3.444-1.31-3.594.966-.353 5.353l2.287 3.094-2.185 2.297-2.184 2.297-2.744-2.544c-2.25-2.085-2.944-2.299-3.852-1.186-1.785 2.185-4.379 2.675-5.041.951-.435-1.136-1.408-1.397-3.582-.962-2.234.447-2.985.226-2.985-.878 0-1.615-.869-1.846-2.66-.707-1.25.796-1.329 6.23-.09 6.231.413.001.757-.561.765-1.249.011-.854.249-.905.75-.162 1.03 1.525 5.235 2.461 5.235 1.165 0-.582.9-.021 2 1.247s2 1.732 2 1.031c0-.954.339-.995 1.342-.162.738.612 1.638.818 2 .456.362-.362.658-.107.658.567 0 .674.43.96.956.635.526-.325.715-1.364.419-2.309-.446-1.423-.267-1.385 1.043.223 1.387 1.702 1.582 1.733 1.582.25 0-.93.723-1.691 1.607-1.691 1.018 0 1.396.55 1.031 1.5-.316.825-.187 1.5.286 1.5.474 0 1.121-.675 1.438-1.5.361-.941 1.89-1.5 4.107-1.5 1.942 0 3.531-.439 3.531-.975 0-.627.893-.636 2.5-.025 1.668.634 2.5.606 2.5-.084 0-.569.402-.785.894-.482.719.445 4.106-6.116 4.106-7.954 0-1.157-2.169-.311-4.067 1.587-1.61 1.61-2.374 1.812-3.456.914-.764-.634-1.799-.9-2.3-.591-.5.31-1.689-.298-2.642-1.351-1.653-1.827-1.608-2.076.985-5.477 1.495-1.959 3.226-3.576 3.849-3.594.622-.017.346-.628-.614-1.357-2.219-1.684-.499-12.394 2.151-13.396.877-.332 2.189-1.191 2.915-1.909 1.981-1.958-.665-1.6-3.821.517m110.842-.073c-.086.962-.136 2.313-.111 3 .026.688-.377 1.25-.894 1.25-.518 0-1.412 1.35-1.987 3-.575 1.65-1.478 3-2.007 3-.528 0-.724.384-.434.853s-.119 1.706-.909 2.75c-.79 1.043-1.451 2.895-1.468 4.116-.02 1.377-.515 2.033-1.305 1.73-.743-.285-1.857.874-2.673 2.781-.77 1.799-1.605 3.67-1.856 4.159-.252.489.01.6.582.247 1.254-.775.653 12.098-.643 13.773-1.496 1.933-2.98 9.477-1.933 9.826.56.186.168 2.697-.927 5.941-1.219 3.609-1.612 6.389-1.101 7.772.439 1.184.442 1.934.007 1.665-.435-.269-.834 1.053-.887 2.938l-.097 3.425 1.81-2.235c.995-1.229 1.47-2.461 1.054-2.738-.415-.277-.126-3.203.643-6.503.769-3.3 1.653-7.497 1.964-9.327.312-1.83 1.144-3.548 1.85-3.819.801-.307 1.11-1.595.822-3.423-.254-1.612-.038-2.931.481-2.931 1.067 0 2.455-3.713 2.256-6.033-.072-.844.798-2.531 1.934-3.75 1.228-1.319 1.563-2.217.826-2.217-.964 0-.972-.267-.039-1.2 1.512-1.512 1.552-2.878.075-2.55-.619.137-1.352-.375-1.63-1.139-.309-.851-.067-1.119.625-.691.622.384 1.187.109 1.258-.611.367-3.764.753-5.538 1.701-7.809.595-1.425 1.102-1.855 1.179-1 .074.825 1.032-1.155 2.129-4.4 1.476-4.365 1.69-6.089.822-6.625-.845-.522-.863-.916-.066-1.409 1.38-.853 1.461-3.566.107-3.566-.55 0-1.071.788-1.158 1.75m-75.271 70.974c-1.061.27-2.556 1.118-3.322 1.884-.765.766-2.035 1.392-2.82 1.392-.786 0-1.429.708-1.429 1.574 0 1.234-1.026 1.539-4.75 1.411-6.651-.228-6.917-.169-6.917 1.535 0 1.101.919 1.458 3.334 1.296 1.833-.124 3.333-.488 3.333-.81 0-.322 3.038-.631 6.75-.687 10.011-.15 10.25-.193 10.25-1.819 0-.825-.788-1.514-1.75-1.53-1.662-.029-1.661-.082.008-1.055.967-.563 2.208-.745 2.758-.405.549.339 1.651-.034 2.447-.83 1.264-1.264 1.056-1.526-1.633-2.064-3.267-.653-3.274-.653-6.259.108M207.13 439.757c-1.185 2.214-9.708 2.744-21.106 1.312-4.112-.516-7.937-.57-8.5-.119-.563.45-2.546 1.145-4.407 1.543-2.463.527-3.007.963-2 1.6 1.008.639.706.885-1.117.907-1.978.024-2.187.231-1 .992.825.53 2.252.729 3.17.443 2.675-.832 5.965-1.493 11.51-2.314 4.562-.676 5.237-.547 5.662 1.078.347 1.327 1.289 1.785 3.349 1.628 1.576-.12 3.528.194 4.338.698.809.505 3.046.984 4.971 1.064 3.708.156 10.617 1.209 12.813 1.952.722.245 2.597-.961 4.166-2.679 1.888-2.067 3.979-3.226 6.187-3.427 4.537-.414 9.183-2.234 6.334-2.482-1.1-.096-3.125-.104-4.5-.019-1.929.12-2.168-.068-1.048-.823.799-.539 1.811-.757 2.25-.486.439.271.798.016.798-.566 0-1.683-6.538-1.228-9.938.691-2.624 1.481-3.237 1.534-3.989.34-.489-.776-1.726-1.472-2.749-1.548-1.022-.075-2.391-.465-3.041-.867-.683-.422-1.593.035-2.153 1.082" fill="#d3d3d3" fill-rule="evenodd"/></svg>