<svg xmlns="http://www.w3.org/2000/svg" width="500" height="735"><path d="M0 367.502v367.502l250.25-.252 250.25-.252.251-367.25L501.003 0H0v367.502m.495.498c0 202.125.115 284.812.255 183.75.14-101.063.14-266.438 0-367.5C.61 83.187.495 165.875.495 368M11.2 11.2c-1.608 1.608-1.764 713.334-.156 714.327 1.217.752 478.737 1.026 479.488.275.693-.693.6-713.78-.094-714.902-.91-1.474-477.763-1.175-479.238.3M250 30.945c-8.621 2.881-13.038 5.638-17.287 10.787-2.163 2.623-4.277 4.993-4.697 5.268-1.055.69-6.432 12.429-8.475 18.5-.926 2.75-3.001 7.144-4.612 9.765-1.611 2.621-2.929 5.052-2.929 5.404 0 1.999-5.856 12.552-9.339 16.831-9.124 11.207-28.486 27.655-42.119 35.779-21.757 12.967-34.726 23.562-48.616 39.721-12.344 14.36-15.109 18.226-23.345 32.641a972.295 972.295 0 0 1-8.106 13.859c-4.335 7.248-11.607 22.126-12.951 26.5-.423 1.375-1.124 2.95-1.558 3.5-1.094 1.387-8.903 21.911-10.654 28-4.619 16.068-7.32 32.752-9.41 58.124-1.985 24.104.724 64.774 5.709 85.707.764 3.207 1.389 6.979 1.389 8.384 0 1.404.428 4.18.952 6.169.524 1.989 1.917 7.666 3.097 12.616 4.696 19.706 11.389 35.126 24.737 57 4.028 6.6 7.861 12.896 8.519 13.991 21.951 36.552 59.483 76.137 93.179 98.276 12.959 8.514 22.812 20.287 29.488 35.233 9.677 21.664 24.856 32.908 37.244 27.59 20.933-8.985 25.123-11.241 28.946-15.586 5.358-6.089 4.773-5.217 12.308-18.34 3.683-6.415 7.098-11.664 7.588-11.664.49 0 1.553-1.281 2.363-2.848.81-1.566 5.209-6.017 9.776-9.892 9.511-8.071 13.849-12.185 18.803-17.833 1.925-2.194 9.8-10.983 17.5-19.529 19.594-21.749 17.938-19.751 25.798-31.122 2.089-3.022 5.918-7.695 8.508-10.385 4.316-4.481 15.076-18.714 17.854-23.615.637-1.125 1.537-2.323 2-2.661 3.126-2.288 18.233-29.612 22.731-41.115 8.168-20.89 13.007-36.14 14.585-45.965 2.445-15.222 4.916-33.289 5.427-39.669.314-3.924.822-7.789 1.129-8.59 1.001-2.607-1.847-3.368-10.532-2.816l-8.5.54-.667 6.5c-2.757 26.842-7.457 47.713-14.921 66.25a4277.465 4277.465 0 0 0-4.005 10c-3.416 8.568-13.88 28.762-18.524 35.75-5.803 8.73-12.387 18.156-15.12 21.644-1.231 1.571-4.236 5.556-6.679 8.856-16.525 22.326-33.137 41.635-58.947 68.516-18.596 19.368-22.78 25.159-31.776 43.984-9.075 18.989-9.055 18.955-13.825 23.061-6.418 5.524-13.593 7.173-16.466 3.784-1.139-1.343-3.299-2.969-4.8-3.613-1.938-.831-2.546-1.652-2.096-2.825.388-1.012-.008-2.014-1.02-2.58-.909-.51-1.654-1.777-1.654-2.818 0-1.04-.492-2.195-1.094-2.567-.602-.372-.884-1.776-.627-3.119.34-1.779-.172-2.862-1.881-3.982-1.291-.846-3.652-3.631-5.245-6.19-6.784-10.889-21.697-26-32.653-33.085-19.891-12.862-56.688-46.484-66.278-60.561-1.497-2.197-4.409-5.775-6.472-7.951-2.063-2.176-3.75-4.358-3.75-4.847 0-.49-.925-2.087-2.056-3.549-3.391-4.383-6.517-9.153-12.554-19.158-3.153-5.225-6.268-10.175-6.921-11-1.443-1.821-6.588-10.998-11.524-20.555-2.004-3.881-4.336-8.156-5.181-9.5-1.505-2.394-5.593-14.509-7.574-22.445-14.072-56.392-13.994-113.679.22-162.5 4.284-14.713 6.01-19.736 9.108-26.5l5.498-12c1.764-3.85 3.611-7.9 4.104-9 3.287-7.334 16.861-28.094 24.76-37.868 11.478-14.203 37.156-38.804 44.396-42.535 1.773-.914 7.21-4.347 12.082-7.63 4.872-3.282 10.047-6.655 11.5-7.497 18.463-10.689 34.369-25.34 40.337-37.155 4.243-8.4 10.517-24.126 11.413-28.607.439-2.192 1.335-3.228 3.199-3.696 1.814-.455 2.204-.887 1.302-1.445-1.971-1.218 1.647-10.635 4.603-11.982 1.258-.573 2.288-1.915 2.288-2.982 0-2.774 1.04-5.103 2.278-5.103.586 0 1.859-.719 2.83-1.598 1.101-.996 2.26-1.279 3.079-.75.722.466 3.113.926 5.313 1.021 12.069.523 15.172 3.526 16.129 15.608 1.274 16.073 8.19 32.576 18.799 44.855 8.688 10.056 25.591 26.319 34.072 32.781 3.85 2.934 7.15 5.728 7.333 6.209.184.481.868.874 1.521.874.652 0 6.577 5.691 13.166 12.647a123356.2 123356.2 0 0 0 15.48 16.34c12.93 13.644 18.336 20.883 26.521 35.513 5.346 9.555 9.551 15.862 11.473 17.208 2.311 1.619 2.16 4.348-.776 14.055-1.081 3.576-1.265 5.59-.572 6.283 1.572 1.572 4.354-.001 4.354-2.462 0-3.139 2.299-5.867 4.566-5.42 1.524.301 1.934 1.226 1.934 4.359 0 3.31.335 3.977 2 3.977 1.675 0 2.244-1.167 3.5-7.172.825-3.944 1.838-7.507 2.25-7.917 1.141-1.132.895-8.26-.37-10.727-7.925-15.454-26.132-42.651-34.019-50.816-5.336-5.523-23.797-25.61-26.476-28.808-1.586-1.892-7.833-7.125-13.884-11.628-11.23-8.358-38.812-35.162-42.726-41.52-3.624-5.888-7.468-17.152-8.16-23.912-1.583-15.467-3.517-21.491-8.809-27.428-5.705-6.401-11.659-9.696-21.612-11.96-8.678-1.973-9.331-1.96-16.194.333m-32.495 195.408c-.825 1.258-2.018 4.956-2.651 8.218-.634 3.261-1.493 6.379-1.909 6.929-.417.55-1.068 3.084-1.447 5.632-1.234 8.291 3.711 7.335 5.602-1.083.523-2.326 2.033-5.822 3.356-7.769l2.405-3.539.693 3.697c.444 2.363.149 5.388-.815 8.38-1.684 5.221-1.485 6.182 1.28 6.182 1.47 0 2.363-1.497 3.941-6.605 3.515-11.381 2.626-14.971-3.424-13.836l-3.756.705.675-4c.828-4.899-1.516-6.626-3.95-2.911m126.945 4.58c-.522.513-2.732 1.076-4.909 1.25-3.894.312-3.99.415-5.831 6.317-1.03 3.3-2.286 6.781-2.791 7.736-.506.955-.919 3.093-.919 4.75 0 4.656 3.531 4.158 4.67-.659 1.028-4.346 2.877-5.366 3.863-2.132.8 2.621 3.349 5.805 4.647 5.805.479 0 .791-2.46.692-5.466-.151-4.615.179-5.754 2.115-7.322 2.025-1.64 2.211-2.405 1.592-6.535-.704-4.692-1.362-5.479-3.129-3.744m-31.135 2.6c-3.941 3.106-6.874 11.978-5.759 17.417.4 1.952 1.012 28.525 1.361 59.05.348 30.525.734 55.571.858 55.659.124.087 6.862.118 14.975.067 8.113-.05 16.664.065 19.003.256 5.496.447 5.647.236 6.09-8.539.33-6.541.154-7.494-1.484-8.023-1.023-.331-2.851-1.076-4.064-1.655-1.702-.814-2.79-.671-4.776.631-4.703 3.081-9.242 1.301-10.849-4.256-1.803-6.23-1.089-30.306.886-29.906.722.146 1.313-.184 1.313-.734s-.646-.868-1.435-.706c-2.306.472-2.099-29.322.213-30.616 1.528-.856 1.528-1.09 0-3.272-1.1-1.57-1.647-4.414-1.647-8.559 0-5.64.206-6.248 2.25-6.65l2.25-.443-2.272-.75c-1.937-.638-2.182-1.23-1.662-4.002.564-3.008.321-3.394-3.228-5.128-3.421-1.67-3.838-2.276-3.838-5.572 0-3.932-1.615-6.467-3.413-5.356-.598.37-1.087 1.715-1.087 2.991 0 2.614-2.373 5.068-3.956 4.09-1.613-.997-1.2-5.587.924-10.266 1.957-4.312 3.288-4.691 6.824-1.948 1.748 1.356 3.476-.451 2.604-2.722-.583-1.522-4.211-3.612-6.211-3.58-.377.006-2.118 1.141-3.87 2.522m72.183-1.155c-.884.646-2.015 2.739-2.512 4.649a558.954 558.954 0 0 1-2.423 8.855c-2.291 8.118-.269 9.781 3.887 3.197 2.409-3.816 3.071-4.231 8.775-5.499 3.099-.689 5.152-5.761 3.582-8.851-.495-.974-.697-2.099-.45-2.5.762-1.236-9.15-1.101-10.859.149m-193.303 1.427c-2.002 2.002-5.776 16.445-4.737 18.127 1.271 2.057 3.389 1.041 4.044-1.94.7-3.186 3.081-4.955 7.998-5.941 2.108-.423 3.513-1.623 4.727-4.037 1.678-3.338 1.666-3.499-.424-5.724-2.706-2.88-8.951-3.142-11.608-.485m51.545.735c-1.507 1.398-2.74 3.396-2.74 4.441 0 1.046-.45 2.179-1 2.519-.55.34-1 2.826-1 5.524 0 5.032 1.99 7.551 5.178 6.556.727-.227 2.551-.682 4.054-1.011 5.002-1.095 9.599-14.888 6.21-18.633-2.501-2.764-7.366-2.489-10.702.604m21.783-1.578c-.358.579.053 1.757.913 2.617 2.016 2.016 1.982 4.782-.129 10.673-1.17 3.263-1.38 5.075-.672 5.783 2.075 2.075 3.975-.242 5.704-6.954 1.71-6.635 3.956-10.081 6.573-10.081.69 0 1.069-.562.842-1.25-.522-1.58-12.307-2.282-13.231-.788m22.811 1.288c-1.108 1.238-2.816 5.304-3.796 9.037-1.706 6.503-1.706 6.87-.004 8.75 2.282 2.522 6.505 2.507 9.737-.035 4.398-3.46 7.402-15.929 4.529-18.802-2.072-2.072-8.223-1.455-10.466 1.05m71.916-1.588c-2.343.946-1.446 3.604 1.008 2.988 3.549-.891 4.885.428 3.421 3.379-.851 1.718-2.201 2.566-4.428 2.783-3.875.377-7.251 4.252-7.251 8.323 0 2.844 1.231 3.565 5 2.926.825-.14 3.519-.324 5.987-.408l4.487-.153 1.47-8.862c1.406-8.472 1.387-8.923-.428-10.25-1.851-1.353-6.758-1.738-9.266-.726m74.68.049c-1.53.357-5.93 12.744-5.93 16.694 0 .997-2.416 4.229-5.37 7.182-5.833 5.833-6.794 7.758-8.528 17.082-1.583 8.512 2.328 23.123 7.293 27.243.883.733 1.605 1.792 1.605 2.353 0 .56 1.955 3.318 4.345 6.127 2.39 2.809 5.521 6.983 6.959 9.274 1.438 2.291 3.082 4.455 3.654 4.808 4.279 2.644 7.664 18.626 5 23.604-1.902 3.555-4.636.759-5.179-5.295-.816-9.094-11.75-23.029-11.794-15.033-.024 4.2-1.094 5.094-6.504 5.436l-4.981.314v8.5c0 17.294 8.2 24.979 26.668 24.994 8.943.008 9.259-.175 14.823-8.577 10.974-16.572 9.123-31.171-6.345-50.043-5.194-6.337-6.857-9.181-7.556-12.922-.552-2.952-1.712-5.413-3.017-6.397-1.419-1.071-2.398-3.351-2.957-6.888-.46-2.908-1.349-5.8-1.976-6.427-3.061-3.061.34-7.267 4.58-5.665 2.395.904 3.105 2.91 3.516 9.925l.264 4.5 7.5.763c6.926.704 7.634.6 9.25-1.361 3.415-4.143 1.282-20.096-3.195-23.902-2.822-2.399-3.234-4.834-1.018-6.02 3.024-1.618 2.341-2.828-1.787-3.17-3.016-.249-3.813-.752-4.07-2.566-.336-2.362 3.024-4.474 5.572-3.505 3.725 1.417 6.248-.692 6.248-5.223 0-4.797-1.673-6.55-6.184-6.48-5.119.079-11.394 9.891-10.68 16.7.412 3.925-.762 5.264-4.613 5.264-7.322 0-7.771-1.312-4.368-12.792 2.161-7.291 1.883-9.221-1.225-8.497m-236.608 25.615c-4.407 1.628-4.135.917-5.806 15.198-1.894 16.198-4.097 32.367-5.991 43.976-.807 4.95-1.652 10.575-1.876 12.5-.787 6.76-2.798 20.585-4.218 29-2.42 14.337-2.726 13.647 6.319 14.274 9.224.639 10.21-.098 10.329-7.715.091-5.823 2.039-17.467 3.231-19.309 1.037-1.604 3.713-1.549 5.915.124 1.261.957 2.205 4.648 3.509 13.718l1.784 12.408 7.491.601c4.12.331 8.054.395 8.741.143 1.757-.644 1.541-6.564-.795-21.744-1.1-7.15-2.695-17.725-3.544-23.5-2.733-18.574-3.293-22.269-5.374-35.5-1.125-7.15-2.514-16.6-3.086-21-1.619-12.448-1.555-12.296-5.709-13.45-4.624-1.284-6.849-1.228-10.92.276m49.178 7.406c-1.1.275-2.331 1.01-2.735 1.634-1.383 2.135-.912 110.272.485 111.384.688.548 4.498 1.217 8.467 1.487l7.218.491 1.004-3.114c.553-1.713 1.093-13.107 1.201-25.321.208-23.57.198-23.525 5.143-22.579 4.974.951 5.182 1.942 5.717 27.187l.5 23.599 6.5-.189c3.575-.105 7.215-.217 8.089-.25 3.258-.125 3.911-4.63 3.911-26.994 0-23.884-.207-24.923-6.013-30.226l-3.157-2.883 3.042-3.465c5.929-6.753 8.202-25.049 4.472-35.997-2.252-6.608-8.57-12.812-14.593-14.328-4.503-1.134-25.221-1.443-29.251-.436m122-.005c-1.65.235-3.381.796-3.848 1.248-1.657 1.605-.789 110.376.891 111.645.948.716 5.899 1.039 13.72.896 6.731-.123 14.373.093 16.983.48 6.348.942 10.362-3.441 9.239-10.087-1.087-6.429-3.218-7.699-12.108-7.217-8.173.444-10.377-.43-10.377-4.114 0-1.198-.498-2.676-1.107-3.285-.81-.81-.519-1.423 1.083-2.28 2.107-1.128 2.123-1.246.415-3.133-1.654-1.829-1.664-2.147-.145-4.719 1.535-2.599 1.519-2.827-.289-3.956-1.647-1.028-1.752-1.561-.743-3.775.922-2.023.892-3.031-.138-4.681-2.118-3.39.947-4.866 9.406-4.529 5.093.203 6.953-.053 6.779-.936-.131-.668-.323-4.381-.427-8.25-.111-4.119-.633-7.091-1.262-7.171-.589-.075-3.9-.187-7.357-.25-4.253-.076-6.57-.572-7.165-1.534-.996-1.609-.521-25.508.541-27.226.476-.771 3.414-.913 9.45-.457 11.282.851 12.168.154 11.752-9.254-.286-6.47-.365-6.644-3.293-7.267-3.329-.708-27.288-.819-32-.148M264.147 284.75c-.507.962-1.037 5.125-1.176 9.25-.595 17.599.296 20.42 5.642 17.856 3.887-1.863 5.355-5.274 5.372-12.481.023-9.423-.856-12.325-4.381-14.475-3.824-2.332-4.299-2.345-5.457-.15M129 292.06c-1.925.456-5.3 1.23-7.5 1.719-6.972 1.551-12.806 5.162-23.5 14.544-3.136 2.751-9.644 15.023-10.435 19.677-.327 1.925-.251 6.348.17 9.83l.765 6.329 5.5 2.095c3.025 1.152 8.471 2.275 12.101 2.496l6.602.402-1.602-5.018c-1.037-3.251-2.394-5.384-3.851-6.055-2.599-1.197-2.98-4.699-.832-7.636 1.394-1.907 1.472-1.901 4.516.35 2.782 2.057 3.163 2.119 3.741.612 1.235-3.219-1.02-4.829-7.023-5.014-3.289-.101-6.718-.86-8.162-1.806-6.354-4.163.492-16.832 7.772-14.384 4.669 1.571 5.738 2.679 5.738 5.953 0 1.897.609 3.097 1.75 3.45.963.298 2.537.963 3.5 1.477 2.26 1.208 2.207.238-.25-4.581-1.1-2.158-2-4.433-2-5.056 0-.624-.9-1.949-2-2.944-4.357-3.943-1.927-6.569 9.819-10.61 6.348-2.184 9.298-2.373 10.967-.704 1.861 1.861-1.442 4.814-5.384 4.814-2.098 0-3.771.688-4.62 1.901-.732 1.045-2.41 2.058-3.728 2.25-2.994.436-3.997 2.849-1.184 2.849 1.12 0 3.181-.522 4.58-1.159 1.937-.883 3.491-.876 6.508.028 4.159 1.246 6.023 4.729 6.036 11.283.005 2.046.692 2.892 3.006 3.698 3.643 1.27 4.037 4.545.75 6.24-1.238.638-3.15 1.97-4.25 2.96s-4.25 2.933-7 4.317c-2.75 1.385-5.577 3.46-6.281 4.612-.705 1.152-2.393 2.517-3.75 3.033-1.358.516-2.469 1.45-2.469 2.075 0 2.769 13.557-2.443 18.548-7.132 1.144-1.075 2.614-1.955 3.266-1.955.653 0 1.186-.338 1.186-.75 0-.413 1.828-2.751 4.063-5.196 6.546-7.161 9.347-14.077 9.765-24.105.414-9.94.526-9.776-9.18-13.429-6.935-2.611-9.705-2.869-15.648-1.46M203.753 305c-3.137 7.577-3.712 24.416-.884 25.93 2.764 1.479 3.142.497 3.022-7.847-.14-9.827-1.343-20.001-2.138-18.083M230 409.5c0 6.161.697 6.612 4.611 2.985 2.238-2.074 3.326-2.4 6.211-1.859 3.972.746 6.342-1.284 5.456-4.672-.612-2.34-1.275-2.423-3.837-.486-2.531 1.915-6.074 1.931-6.803.032-.316-.825-1.714-1.5-3.107-1.5-2.401 0-2.531.282-2.531 5.5m-32.356 47.267c-.32.517.491 1.429 1.801 2.026 1.31.597 2.65 1.932 2.979 2.968 1.411 4.444 12.576 7.348 12.576 3.271 0-1.568 3.589-1.232 5 .468 2.802 3.377 4.299 1.81 3.564-3.732-.382-2.877-.826-5.363-.986-5.523-.769-.769-3.309 1.075-4.748 3.447l-1.605 2.644-1.691-3.269c-1.466-2.836-2.045-3.177-4.362-2.572-3.509.917-7.164.935-9.809.048-1.176-.395-2.399-.294-2.719.224M435.037 613.93c-.568 1.062-1.114 4.87-1.213 8.462-.129 4.689-.593 6.689-1.645 7.093-1.982.76-1.883 1.039-2.835-7.985-.73-6.924-1.102-8-2.761-8-2.221 0-2.852 1.726-4.711 12.872-1.064 6.375-1.724 8.059-3.472 8.855-1.39.634-1.991 1.619-1.69 2.771.35 1.338-.42 2.081-3.055 2.951-5.922 1.954-15.57 14.536-13.066 17.04 1.794 1.794 21.196 3.436 26.29 2.224 4.627-1.1 12.465-2.144 32.121-4.276 12.695-1.378 23.956-6.017 26.488-10.914 2.089-4.04.556-7.689-4.037-9.608-2.794-1.167-3.432-1.901-2.955-3.402.334-1.052-.133-3.343-1.037-5.091-1.549-2.997-1.543-4.478.038-9.523.706-2.254-1.606-5.399-3.97-5.399-2.56 0-5.631 6.228-3.974 8.059 3.455 3.818-.013 12.882-4.397 11.491-3.018-.958-4.517-4.005-2.708-5.506 1.106-.919 1.176-1.824.33-4.252-.786-2.252-.766-3.582.073-4.925 1.702-2.725 1.396-4.867-.696-4.867-3.699 0-5.155 3.169-5.155 11.222 0 8.261-1.066 9.821-4.885 7.146-1.829-1.281-2.115-2.481-2.115-8.866 0-4.061-.399-7.631-.887-7.932-1.896-1.172-3.084 2.248-2.611 7.522.67 7.481-.125 10.819-2.433 10.216-1.549-.405-1.832-1.613-1.904-8.142-.073-6.577-.391-7.915-2.236-9.416-2.745-2.234-3.617-2.202-4.892.18M74.64 696.274c-1.408 1.03-1.752 2.885-1.797 9.686-.065 9.985 1.086 11.579 7.627 10.563 5.37-.835 5.907-2.243 2.452-6.434-3.092-3.751-3.704-6.907-1.722-8.889 2.464-2.464 3.8-1.315 3.8 3.265 0 7.71 7.833 8.819 9.76 1.381l.838-3.232 1.377 3.327c1.317 3.177 1.258 3.414-1.298 5.276-4.484 3.266-3.051 5.783 3.294 5.783 5.245 0 6.883-2.58 7.201-11.346.335-9.216-.743-10.654-7.991-10.654h-4.437l.64 4c.674 4.218.277 4.553-4.027 3.398-1.322-.355-2.355-1.639-2.698-3.351-.764-3.823-9.143-5.608-13.019-2.773m176.509.047c-.818.985-1.135 4.293-.941 9.832l.292 8.347 8.365-.128c5.889-.089 8.623-.534 9.235-1.5 1.366-2.155 1.09-14.473-.35-15.639-2.326-1.882-15.209-2.59-16.601-.912m30.051-.121c-1.695 1.695-1.532 12.881.224 15.387 1.242 1.774 2.34 1.998 8.63 1.759 3.964-.151 7.484-.551 7.822-.889 1.407-1.406 1.675-14.763.324-16.114-1.73-1.73-15.299-1.844-17-.143m-152.95 1.462c-4.523 1.825 1.108 6.505 7.375 6.13 2.778-.166 4.875.138 4.875.708 0 .561-2.777 1-6.331 1-5.444 0-6.599.33-8.25 2.361-2.42 2.977-2.51 7.754-.169 9 3.33 1.771 17.376 2.55 18.347 1.017 1.144-1.807 1.143-8.117-.003-11.131-.726-1.909-.504-2.635 1.118-3.647 2.709-1.692 1.465-2.691-5.672-4.548-6.033-1.571-9.019-1.806-11.29-.89m277.45 9.268c-2.067 3.501-2.07 3.558-.199 5.428 1.061 1.061 2.309 1.274 4.25.726 1.512-.426 6.574-.569 11.25-.317 7.488.403 8.798.214 11-1.59 3.653-2.994.798-6.063-4.215-4.53-1.862.569-4.578.657-6.266.204-1.639-.441-4.688-.528-6.776-.194-2.743.438-4.287.162-5.569-.999-1.65-1.493-1.895-1.403-3.475 1.272" fill="#d3d3d3" fill-rule="evenodd"/></svg>