<svg xmlns="http://www.w3.org/2000/svg" width="500" height="343"><path d="M271.671 23.649c-1.06 3.72-1.85 16.351-1.022 16.367 4.949.094 55.886 4.307 66.714 5.517 35.04 3.917 64.072 11.448 92.137 23.901 13.902 6.169 33.57 17.276 34.261 19.349 1.074 3.223-48.375 26.724-73.901 35.122-6.318 2.079-6.688 2.376-7.643 6.14-.553 2.175-.839 3.955-.636 3.955.399 0 34.885-13.634 50.688-20.04 5.373-2.178 10.193-3.96 10.71-3.96 1.258 0 5.278 13.162 4.293 14.058-1.428 1.301-34.638 14.167-49.266 19.088-20.331 6.838-58.797 14.356-80.994 15.828-11.46.76-34.16-.263-56.605-2.552l-6.093-.621-.667 10.178c-.367 5.599-.467 10.503-.223 10.898.244.395 5.086.167 10.76-.508 14.582-1.733 48.734-5.148 58.816-5.88 17.61-1.28 48.574-5.573 68.675-9.522 25.061-4.923 76.376-17.613 77.951-19.277.62-.655 2.117-7.715 3.327-15.69s3.767-21.925 5.681-31c9.761-46.272 11.198-53.462 10.811-54.089-.231-.374-2.338-.942-4.683-1.262-41.361-5.644-49.368-6.519-74.762-8.169-5.225-.34-20.3-1.693-33.5-3.008-24.218-2.411-59.847-4.833-88.651-6.025-14.679-.608-15.683-.533-16.178 1.202M39.666 33.274l-3.835 3.245 5.775 7.99c8.491 11.75 31.718 40.695 40.611 50.608l7.731 8.617-10.724 11.415c-12.809 13.634-24.438 26.393-41.494 45.527l-12.637 14.175 3.946 3.565 3.946 3.565 5.758-2.591c3.166-1.425 9.132-4.069 13.257-5.875 16.583-7.263 45.259-20.638 58-27.052 7.425-3.739 19.648-9.589 27.161-13.001l13.661-6.203 25.339 6.291c13.937 3.459 29.839 7.489 35.339 8.955 11.366 3.028 40.718 9.61 41.11 9.218.562-.562 8.443-56.506 10.949-77.723a12512.03 12512.03 0 0 1 3.179-26.75c.413-3.365.206-4.25-.998-4.25-3.75 0-21.972 4.337-37.39 8.9-9.268 2.742-26.875 7.939-39.127 11.548-12.252 3.609-27.088 8.337-32.968 10.506l-10.692 3.943-36.727-17.951C76.364 44.075 45.865 29.972 44.109 30.015c-.335.008-2.334 1.475-4.443 3.259M370.5 72.186c-1.65.588-4.51 2.196-6.355 3.573-3.323 2.479-3.352 2.571-2.97 9.34.448 7.915 2.342 11.176 8.285 14.26 3.816 1.98 3.89 1.981 9.402.069 4.119-1.43 6.03-2.747 7.392-5.098 5.682-9.806-5.657-25.744-15.754-22.144M451 173.613c-29.238 15.531-39.772 21.53-63.5 36.168l-17 10.487-5.5-1.513c-3.025-.832-12.7-3.605-21.5-6.161-23.408-6.801-87.632-20.796-89.027-19.4C252.844 194.823 229 304.074 229 309.91c0 1.715.916 1.658 16.25-1.014 47.158-8.217 71.152-15.273 116.808-34.353l6.558-2.74 18.942 8.717c19.059 8.771 87.546 37.48 89.412 37.48.551 0 2.387-2.745 4.08-6.1 2.674-5.296 2.897-6.317 1.693-7.75-.762-.907-4.932-5.925-9.266-11.15-10.596-12.774-25.699-30.067-38.267-43.817-9.068-9.919-10.182-11.522-9.027-12.98.724-.916 6.722-7.748 13.329-15.184 6.606-7.435 19.106-21.947 27.778-32.247l15.766-18.728-2.545-5.022c-1.399-2.762-2.875-5.007-3.278-4.988-.403.018-12.208 6.129-26.233 13.579m-227 3.101c-3.025.19-15.175 1.438-27 2.774-11.825 1.337-27.35 2.698-34.5 3.025-15.564.714-23.51 1.588-55 6.054-31.638 4.486-93.568 15.053-94.389 16.104-.355.456-.351 16.129.01 34.829.645 33.428 1.03 38.299 6.486 82.096l.635 5.095 7.129 1.639c10.853 2.494 43.539 8.406 58.129 10.514 14.935 2.158 45.474 1.674 90-1.427 13.2-.919 28.211-1.951 33.357-2.294l9.358-.623 3.757-10c2.539-6.757 3.396-10.197 2.643-10.608-.613-.334-9.44-1.376-19.615-2.315-45.264-4.18-52.224-5.248-81.517-12.515-23.335-5.788-30.059-7.877-40.483-12.573-15.516-6.99-34-16.537-34-17.56 0-1.19 14.605-12.685 23.524-18.515 10.114-6.612 29.491-16.181 41.362-20.428 10.046-3.593 10.132-3.681 6.753-6.855l-2.361-2.218-6.389 2.418c-10.447 3.953-29.67 13.334-40.725 19.872l-10.337 6.114-3.868-4.409c-2.127-2.424-3.762-4.788-3.632-5.252.32-1.145 28.022-16.764 39.173-22.086 24.864-11.868 47.753-19.243 73.5-23.684 11.147-1.922 15.909-2.142 44-2.029 17.325.07 33.412.407 35.75.748l4.25.622V176l-10.25.185c-5.637.102-12.725.34-15.75.529m-89.124 82.434c-5.924 3.435-8.993 14.028-5.795 20.003 2.595 4.849 14.168 7.323 20.045 4.284 3.121-1.614 7.849-9.996 7.86-13.935.028-9.216-13.305-15.459-22.11-10.352" fill="#d3d3d3" fill-rule="evenodd"/></svg>