<svg xmlns="http://www.w3.org/2000/svg" width="500" height="1029"><path d="M.003 307.528l.009 307.6 2.794-1.99c3.582-2.551 23.05-11.755 30.132-14.247 7.094-2.495 27.667-6.673 36.562-7.423 11.899-1.005 10.861-.008 12.681-12.183 1.694-11.339 2.445-34.158 1.296-39.39-.729-3.32-.485-3.308-8.353-.423-4.045 1.484-4.764 1.477-9.5-.087-6.14-2.027-9.223-3.914-10.124-6.195-.853-2.161 10.143-12.56 16.209-15.327 5.985-2.73 5.92-3.195-.891-6.449-11.564-5.525-11.109-9.829 1.383-13.099 6.679-1.748 6.716-1.747 12 .579 8.384 3.691 11.586 2.299 13.538-5.887 1.047-4.392 3.236-4.862 6.886-1.479 1.563 1.449 3.453 2.976 4.199 3.394 1.081.604 1.137 1.556.273 4.669-2.654 9.555-.732 11.832 10.732 12.716 12.755.984 21.018 5.18 19.795 10.053-1.1 4.386-15.114 7.526-24.419 5.471-8.791-1.941-8.521-2.913-8.869 31.841-.328 32.751-.618 31.274 6.164 31.331 6.329.054 32.428 3.639 40.06 5.503 3.817.932 10.086 3.189 13.931 5.014 5.091 2.418 7.222 3.002 7.844 2.15.582-.797.704-.69.385.335-.258.828.149 2.083.905 2.79.886.827 1.375.893 1.375.185 0-.604.457-.815 1.016-.47.559.346.747 1.065.417 1.599-.37.598.49.709 2.233.29 3.389-.814 4.26-1.399 2.084-1.399-1.821 0-2.625-1.727-1.974-4.239.521-2.007 2.224-1.364 2.224.84 0 2.983 2.253 4.241 4.254 2.377 1.852-1.725.787-6.978-1.415-6.978-.461 0-.839-.569-.839-1.264 0-.695-1.8-2.044-4-2.997-2.2-.953-4-1.984-4-2.292 0-1.182 6.175.217 7.049 1.597.704 1.114.924 1.144.936.127.011-.964.91-1.154 3.265-.69 2.417.476 2.866.373 1.75-.405-1.233-.859-1.089-1.048.809-1.061 1.288-.008 2.036.427 1.691.985-.876 1.417.839 1.242 2.447-.25 1.091-1.012 1.25-.964.839.25-.28.825-.153 2.4.282 3.5.567 1.432.811.65.862-2.75.06-4.107-.201-4.75-1.93-4.75-2.369 0-2.509-.634-.571-2.571 1.619-1.62 4.014-1.954 3.071-.429-.34.55-.141 1 .441 1s1.059-.648 1.059-1.441.479-1.737 1.064-2.098c.72-.446.846.503.388 2.941-.478 2.551-.316 3.598.559 3.598.956 0 .967.322.049 1.428-.924 1.113-.849 2.079.337 4.373.838 1.62 1.241 3.227.896 3.572-.344.345-.16.627.41.627.571 0 1.617 2.072 2.326 4.603 2.371 8.468 13.8 19.475 17.711 17.057 1.366-.843 7.453 2.26 7.018 3.578-.891 2.702-8.576 7.158-10.125 5.872-.89-.738-1.686-.833-2.05-.244-.328.53-.117 1.123.468 1.318 1.443.481.067 3.816-1.575 3.816-.72 0-1.538.563-1.817 1.25-.401.991-.695.984-1.413-.034-.498-.706-1.663-.993-2.589-.638-.925.355-2.239.196-2.92-.354-.68-.55-3.712-1.361-6.737-1.802-6.314-.92-5.881-.818-8.5-2.011-2.294-1.045-2.972-4.411-.889-4.411.815 0 1.389-1.033 1.389-2.5 0-3.216-1.775-3.244-2.579-.041-.589 2.345-.728 2.386-3.009.891-3.004-1.968-2.026-5.137-9.922 32.15-4.832 22.815-6.938 35.225-7.975 47-2.026 22.999-3.553 29.532-8.542 36.539-1.879 2.638-1.979 3.476-1.027 8.625 2.061 11.153 2.303 10.802-7.635 11.066-8.422.223-8.602.181-6.348-1.5 3.254-2.425 11.037-10.495 11.037-11.443 0-1.415-1.121-.84-5.247 2.692-15.587 13.342-44.744 21.745-74.962 21.604-17.686-.082-20.959-.878-26.179-6.37-3.818-4.017-10.18-8.024-11.855-7.465-.681.227-1.853-.201-2.603-.952-1.562-1.561-5.055-.852-6.822 1.384-1.718 2.173-4.407.375-9.625-6.437-5.792-7.56-6.642-9.281-9.247-18.741C5.856 717.786 2.788 707.379 1.469 704 .305 701.018.095 724.828.052 864.75L0 1029h220.941c169.835 0 221.111-.275 221.677-1.191.405-.655.223-1.362-.405-1.571-1.645-.549.817-4.238 2.828-4.238.857 0 2.091-.532 2.742-1.183.651-.651 1.529-.827 1.95-.391.422.436-.245 1.473-1.483 2.305-1.237.832-2.25 2.133-2.25 2.891s-.477 1.378-1.059 1.378-.781.45-.441 1 1.716 1 3.059 1c2.007 0 2.441-.498 2.441-2.8 0-1.54.438-3.238.974-3.774.631-.631.456-1.971-.5-3.814-1.746-3.366-1.779-3.612-.474-3.612.55 0 1.045.788 1.1 1.75.064 1.134.361.87.842-.75.971-3.269.36-4.231-2.177-3.425-1.658.526-1.938.319-1.416-1.041.358-.934.651-2.111.651-2.616 0-.505.675-.918 1.5-.918s1.5-.477 1.5-1.059.45-.781 1-.441 1-.26 1-1.334c0-2.172 2.202-3.409 4.5-2.528.825.317 1.5.078 1.5-.531s-1.35-1.107-3-1.107c-2 0-3-.5-3-1.5 0-.825.627-1.5 1.393-1.5s1.666-.712 2-1.582c.831-2.165.763-2.632-.288-1.983-.493.305-1.168-.156-1.5-1.023-1.046-2.725-.668-3.567 1.316-2.937 1.261.4 2.625-.145 3.966-1.584 2.488-2.671 2.005-3.784-1.363-3.14-2.242.428-2.511.162-2.408-2.384.068-1.689.304-2.148.573-1.117.252.962 1.148 1.75 1.991 1.75.922 0 1.314-.573.983-1.435-.303-.79-.146-1.577.349-1.75.529-.186.516-1.961-.032-4.315-1.232-5.288-1.224-8.769.02-8 .55.34 1 1.702 1 3.028 0 1.731.422 2.247 1.5 1.834.825-.317 1.5-1.293 1.5-2.169 0-1.257.258-1.335 1.225-.368.96.96.963 1.644.016 3.16-.665 1.065-.926 2.673-.58 3.574.489 1.275.986.893 2.234-1.715 1.465-3.061 1.911-3.309 5.105-2.833 3.094.46 3.767.139 5.804-2.771 1.267-1.81 2.729-3.029 3.25-2.707.52.322.946-.105.946-.949 0-1.222-.507-1.342-2.491-.587-1.371.521-3.171.686-4 .368-.83-.318-1.509-.081-1.509.528s-.675 1.107-1.5 1.107-1.5.45-1.5 1 .54 1 1.2 1c.924 0 .928.272.017 1.183-1.714 1.714-2.275.68-2.807-5.168-.26-2.861-.512-5.497-.56-5.858-.247-1.861.269-3.157 1.257-3.157.609 0 .834.711.501 1.579-.78 2.033.342 6.57 1.455 5.882.467-.289.566-1.264.22-2.167-.482-1.256-.218-1.483 1.125-.968.966.371 2.217.674 2.781.674.564 0 .766.675.449 1.5-.738 1.925.092 1.913 2.033-.028 1.29-1.29 1.318-1.78.178-3.154-.742-.894-1.193-2.548-1.002-3.675.314-1.851.175-1.909-1.437-.596-1.623 1.322-1.71 1.272-.964-.547.452-1.1.787-2.9.746-4-.069-1.826.033-1.854 1.174-.322.772 1.037 1.747 1.37 2.552.873.717-.443 2.266-.631 3.443-.417 1.176.213 1.577.121.889-.206-2.81-1.336-1.305-3.586 2.196-3.284 1.896.163 3.771-.028 4.167-.424.396-.396-.241-.72-1.415-.72-1.581 0-1.969-.432-1.497-1.664.401-1.044.242-1.419-.426-1.006-.586.362-1.323-.014-1.639-.836-.667-1.737.69-1.925 3.407-.471 1.503.804 2.377.557 4.092-1.158l2.181-2.181-.564 2.158c-.311 1.187-.235 2.158.168 2.158.404 0 .648 1.237.544 2.75-.119 1.736-.033 1.941.235.555.579-3.004 3.301-1.835 3.301 1.419 0 2.137-.37 2.438-2.5 2.031-1.718-.328-2.5-.033-2.5.943 0 .781-.45 1.142-1 .802-.55-.34-1 .084-1 .941 0 1.984 2.374 2.019 4 .059 1.928-2.323 3-1.787 3 1.5 0 2.653-.34 3-2.941 3-1.618 0-3.238.48-3.6 1.067-1.016 1.643.16 2.207 2.259 1.084 4.088-2.188 4.243-1.013 4.532 34.4.153 18.672.382-37.376.511-124.551.128-87.175-.058-166.17-.414-175.544l-.646-17.044-11.851-3.005c-6.517-1.653-11.85-2.921-11.85-2.818 0 .102 1.38 3.135 3.066 6.738 1.904 4.07 3.237 8.754 3.517 12.363.287 3.708.141 5.1-.404 3.848-1.05-2.412-2.081 6.38-1.609 13.712.169 2.612-.116 4.75-.632 4.75s-.938-1.252-.938-2.782-.702-5.243-1.56-8.25a985.706 985.706 0 0 1-2.915-10.468c-.901-3.325-1.383-4.146-1.44-2.45-.047 1.403-.606 3.071-1.243 3.708-.876.876-.852 1.525.102 2.674.881 1.062 1.057 3.255.585 7.316-.577 4.976-.379 6.174 1.399 8.433 3.431 4.362 2.769 6.487-2.254 7.241-2.38.357-5.08.359-6 .006-1.251-.48-1.674-.089-1.674 1.544 0 1.882-.396 2.1-2.841 1.563-1.946-.427-3.244-.138-4.122.921-1.742 2.098-3.754 1.941-5.002-.39-1.514-2.829-1.285-3.27 1.051-2.02 3.034 1.624 3.115 1.055 1.01-7.131-1.049-4.078-2.062-8.079-2.252-8.891-.21-.903.53-1.61 1.906-1.82 1.238-.189 2.25-.762 2.25-1.274 0-.511.666-.93 1.481-.93 1.719 0 2.585-3.05 2.253-7.935-.281-4.12-7.427-8.93-10.555-7.105-1.229.717-1.303.987-.276 1.01.947.02.701.639-.757 1.903-2.016 1.749-2.06 2.064-.659 4.75.825 1.582 1.538 2.652 1.583 2.377.869-5.252 1.93-6.528 1.93-2.32 0 1.658-.914 4.068-2.032 5.357-2.207 2.544-9.279 5.455-9.772 4.022-.167-.486-1.405-2.071-2.75-3.523-4.421-4.77-2.564-.157 3.013 7.484 3.002 4.114 6.196 9.73 7.097 12.48 3.552 10.836 17.822 35.912 23.214 40.792 1.597 1.445 1.817 3.283 1.756 14.68-.038 7.165.305 13.028.761 13.028.457 0 .561.437.231.971-.33.533.103 2.329.961 3.989.859 1.661 1.558 3.361 1.553 3.78-.02 1.813 1.183 4.26 2.094 4.26.546 0 .776.349.512.776-.659 1.068 1.675 10.773 4.242 17.632 1.166 3.117 2.12 7.25 2.12 9.186 0 1.935 1.35 6.239 3 9.565 1.65 3.325 3 6.702 3 7.503 0 .801.45 1.178 1 .838.55-.34 1-1.506 1-2.59 0-1.085.675-2.232 1.5-2.548.825-.317 1.5-1.653 1.5-2.969 0-1.316.45-2.393 1-2.393s.947.337.882.75c-.309 1.954.24 2.605 1.079 1.279.512-.809 1.273-1.128 1.692-.71 1.168 1.168-2.357 6.22-4.108 5.887-.85-.161-1.545.176-1.545.75 0 1.082 1.243 1.402 4.25 1.096 1.025-.104 1.75.499 1.75 1.457 0 1.184-.734 1.545-2.663 1.313-1.614-.195-2.846.225-3.129 1.067-.284.844-.024 1.115.662.691 1.749-1.081 1.333 1.074-.575 2.982-1.243 1.243-1.819 1.367-2.122.456-.229-.687.201-1.64.955-2.118.849-.538.931-.875.216-.885-.672-.009-.957-.959-.682-2.265.362-1.713.248-1.892-.477-.75-.524.825-1.25 6.45-1.614 12.5-.365 6.05-.903 12.238-1.196 13.75-.401 2.065-.14 2.75 1.046 2.75.868 0 1.579.436 1.579.969 0 .532-.675.709-1.5.393-.825-.317-1.5-.078-1.5.531s.563 1.121 1.25 1.137c.688.017.453.495-.521 1.062-.974.567-1.529 1.422-1.234 1.9.296.479.08 1.152-.479 1.498-.559.345-1.024 2.064-1.033 3.819-.012 2.083-.88 4.009-2.5 5.546-2.425 2.3-3.472 4.874-1.483 3.645.55-.34 1 .335 1 1.5s-.45 1.84-1 1.5c-.55-.34-1.032.196-1.07 1.191-.063 1.608-.161 1.587-.886-.191-.735-1.805-.891-1.708-1.598.99-.431 1.645-1.383 3.59-2.116 4.322-.769.769-1.114 2.465-.816 4.01.435 2.252.366 2.36-.428.678-.766-1.621-.959-1.684-1.016-.332-.038.918-.371 2.493-.74 3.5-.632 1.731-.549 1.727 1.5-.073 1.636-1.436 2.178-1.559 2.202-.5.023 1.042.375.953 1.36-.345 1.6-2.108 3.038-2.312 2.274-.323-.301.785.101 1.965.893 2.622 1.318 1.094 1.865.638 1.559-1.299-.065-.413.505-.75 1.265-.75 1.185 0 2.558 2.769 2.603 5.25.024 1.305-2.691.811-3.963-.722-1.076-1.296-1.398-1.296-2.694 0-1.698 1.698-5.329 1.979-5.329.413 0-.582-.416-.802-.924-.488-.509.314-1.168-.222-1.464-1.191-.297-.969-.397-.54-.221.953.175 1.493.046 2.843-.286 3-.333.157-1.501 2.085-2.595 4.285-1.095 2.2-2.22 4.225-2.5 4.5-.281.275-.96 1.222-1.51 2.105s-3.171 4.483-5.825 8c-2.654 3.517-5.683 8.049-6.732 10.07-1.049 2.021-3.941 5.135-6.426 6.92-5.144 3.695-22.517 11.174-22.517 9.694 0-.537.9-1.212 2-1.499 1.1-.288 2-.921 2-1.407 0-.485.699-.883 1.554-.883.855 0 2.993-1.348 4.75-2.995 1.758-1.648 3.525-2.998 3.927-3 1.363-.009 11.769-7.061 11.769-7.977 0-.5-.417-1.168-.926-1.482-.569-.352-.569-1.821 0-3.803 1.153-4.023 1.191-3.743-.507-3.743-.788 0-1.695.827-2.015 1.838-.601 1.892-5.805 8.162-6.775 8.162-1.095 0-1.569-5.537-.576-6.737.562-.681.754-1.938.426-2.793-.92-2.398-4.979.077-4.311 2.629.316 1.208-.166 2.286-1.291 2.888-.987.528-2.079 2.09-2.425 3.471-.424 1.688-1.527 2.7-3.365 3.087-1.504.317-3.482.977-4.396 1.468-1.952 1.049-2.983-.745-2.185-3.8.339-1.294-.219-2.495-1.613-3.472-2.319-1.624-1.09-2.741 3.017-2.741 2.282 0 7.43-3.1 7.473-4.5.146-4.734 1.819-7.187 6.746-9.895 6.134-3.371 12.723-10.02 12.723-12.838 0-1.35-.478-1.798-1.5-1.405-1.792.687-1.784.751-.402-3.213.604-1.732 1.504-3.149 2-3.149 1.035 0 1.234-4.335.244-5.325-.362-.362-1.262-.156-2 .456-.987.819-1.342.817-1.342-.009 0-.617.39-1.122.867-1.122.918 0 .587-7.457-.403-9.058-.927-1.499-3.464-1.091-3.464.558 0 .825-.41 1.5-.912 1.5-1.289 0-.553-5.345.798-5.795.613-.205 1.114-.954 1.114-1.666s.714-1.887 1.586-2.611c1.083-.898 1.403-2.232 1.009-4.204-.318-1.588-.083-3.813.522-4.943 1.01-1.886.87-2.012-1.695-1.521-3.69.705-5.422-.051-5.422-2.367 0-1.041-.45-1.893-1-1.893s-1-.675-1-1.5.45-1.5 1-1.5 1 .45 1 1 .45 1 1 1c1.416 0 1.247-2.751-.199-3.233-.809-.27-.451-1.45 1.104-3.633 1.266-1.779 2.094-4.03 1.84-5.002-.32-1.224.42-2.159 2.402-3.037 1.575-.697 2.597-1.701 2.27-2.23-.367-.592-1.132-.516-1.993.198-.769.638-2.508.882-3.865.541-2.761-.693-6.559 2.477-6.559 5.474 0 .935-.787 2.653-1.75 3.818-3.175 3.843-10.211.638-9.333-4.251.084-.471-.351-1.463-.968-2.206-.617-.743-.823-1.834-.459-2.423.364-.59-.339-1.883-1.564-2.875-1.457-1.18-2.261-2.978-2.326-5.208-.074-2.523-.6-3.502-2.029-3.777-4.621-.89-4.886-2.508-2.077-12.656 3.212-11.6 3.868-13.5 4.666-13.5.462 0 .84-1.155.84-2.567 0-2.034-.381-2.447-1.832-1.986-3.282 1.041-5.407-2.617-5.015-8.633.393-6.012 1.187-5.663-10.28-4.517-3.975.397-7.352.027-11.5-1.262-6.15-1.911-7.618-1.838-6.784.337.276.719-.193 1.885-1.043 2.59-.851.706-1.546 2.142-1.546 3.192 0 1.05-.672 2.167-1.494 2.482-.822.316-1.246.976-.942 1.467.303.491-.149 1.894-1.006 3.118-.857 1.223-1.558 1.679-1.558 1.013 0-.666-1.736-1.488-3.857-1.827-3.549-.568-3.972-.988-5.295-5.262-1.045-3.374-2.014-4.729-3.541-4.951-1.157-.169-2.332-1.181-2.611-2.25-.321-1.226-1.374-1.945-2.852-1.948-2.182-.003-2.127-.136.797-1.919 4.317-2.632 5.033-4.111 2.785-5.754-1.628-1.191-2.082-1.136-3.402.413-.838.983-2.199 1.722-3.024 1.641a865.66 865.66 0 0 0-2.75-.262c-.687-.063-1.25-.682-1.25-1.374 0-.693-.892-1.817-1.982-2.497-1.749-1.093-2.055-.946-2.608 1.259-.345 1.373-.98 2.497-1.413 2.497-.432 0-2.206 1.327-3.942 2.949-1.736 1.622-4.146 3.252-5.356 3.622-2.872.88-4.8 2.457-4.197 3.433.626 1.013-5.008 3.646-9.631 4.502-2.616.484-4.568.163-7-1.152-1.854-1.002-4.249-1.829-5.321-1.838-1.24-.01-2.177-.926-2.574-2.516l-.623-2.5-.744 2.25c-1.081 3.271-2.406 2.756-1.994-.775.381-3.273-4.586-7.556-7.492-6.46-.757.286-2.017-.012-2.8-.662-1.146-.951-1.534-.761-1.987.971-.31 1.185-.961 1.908-1.446 1.608-.485-.3-.19-1.885.656-3.521.847-1.637 1.875-2.769 2.284-2.516.41.253 1.355-.969 2.1-2.717.745-1.748 2.104-4.078 3.019-5.178 2.495-3.001 2.546-7.742.105-9.951-1.13-1.023-2.054-2.486-2.054-3.252 0-1.676-4.488-6-7.083-6.823-1.462-.464-1.636-.953-.812-2.282 1.757-2.835-.549-7.56-3.04-6.227-1.074.575-2.204 1.451-2.51 1.946-.306.496-1.459.665-2.561.377-1.103-.288-2.672.029-3.487.706-.815.676-2.162.969-2.994.649-.832-.319-1.513-.103-1.513.481 0 .583-.9 2.205-2 3.603-1.1 1.399-2 3.176-2 3.95 0 .773-.9 2.373-2 3.553-1.1 1.181-2 2.737-2 3.459 0 .721-.337 1.311-.75 1.312-.925 0-.769-9.791.205-12.86.462-1.456.103-3.166-1.027-4.891-3.413-5.209.484-26.907 5.614-31.25.324-.275 2.12-2.75 3.99-5.5s8.061-9.553 13.759-15.117l10.36-10.118 11.479-3.743c6.314-2.059 12.758-4.819 14.32-6.133 1.561-1.314 3.417-2.389 4.123-2.389.707 0 4.344-.985 8.083-2.189 3.739-1.205 7.073-1.916 7.408-1.58.814.814 2.362 13.068 2.403 19.019.025 3.548-.343 4.75-1.452 4.75-1.212 0-1.385 1.148-.946 6.25 1.103 12.81.823 12.26 7.463 14.682 4.96 1.808 6.231 2.761 7.395 5.548 2.288 5.474 5.429 6.962 10.456 4.95 2.265-.906 4.117-2.004 4.117-2.441 0-.436 1.4-1.282 3.112-1.878 2.089-.729 2.929-1.563 2.554-2.539-.404-1.052.322-1.539 2.63-1.763 2.256-.219 3.298-.894 3.565-2.309.207-1.1 1.468-3.094 2.802-4.431 2.731-2.736 3.22-13.846.587-13.319-.733.147-1.25-.783-1.25-2.25 0-1.375-.45-2.5-1-2.5s-1 .9-1 2c0 1.176-.667 2-1.619 2-1.428 0-1.535 1.119-.907 9.5.69 9.201.647 9.5-1.381 9.5-1.151 0-2.093-.585-2.093-1.301 0-1.77-2.337-6.682-3.184-6.691-.376-.004-.48 1.117-.23 2.492.249 1.375.056 2.5-.43 2.5-1.138 0-6.156-5.002-6.156-6.136 0-.475-1.467-.864-3.259-.864-4.289 0-6.687-3.297-4.309-5.925 2.203-2.434 1.97-2.979-1.182-2.763-2.476.169-2.727-.111-2.517-2.812.744-9.585.315-24.858-.801-28.541-.576-1.902-1.266-4.526-1.532-5.83-.817-4.01-4.208-9.833-7.007-12.034-2.77-2.179-1.693-2.861 1.673-1.06 1.954 1.046 2.879-.333 1.001-1.493-.513-.317-.896-1.854-.852-3.415.045-1.561-.213-3.315-.573-3.897-.36-.583-.261-1.21.22-1.395 1.57-.602 2.404-4.833.955-4.85-1.075-.013-1.071-.171.019-.863.735-.466 1.527-2.884 1.76-5.374.385-4.12.205-4.581-2.007-5.136-1.337-.336-3.146-.336-4.021 0-1.185.455-1.426.18-.944-1.075.458-1.192 1.339-1.512 3.012-1.092 1.737.436 2.364.175 2.364-.985 0-.868-.419-1.319-.931-1.003-1.074.664-6.069-3.66-6.069-5.254 0-.588-.893-1.352-1.984-1.698-2.383-.756-2.193-3.547.441-6.457 1.748-1.931 2.605-2.008 15.945-1.426 11.292.493 15.321.294 20.242-1.003 7.564-1.993 7.269-2.002 6.693.201-.718 2.746 1.881 4.428 5.006 3.24 1.651-.628 2.801-.636 3.181-.022.327.529-.108.962-.965.962s-1.559.45-1.559 1 .675 1 1.5 1 1.5-.436 1.5-.969c0-.532.675-.709 1.5-.393.825.317 1.5.115 1.5-.448 0-.563-.531-1.2-1.18-1.417-.653-.217-.893-1.14-.538-2.066.407-1.06 1.249-1.44 2.296-1.039 1.406.54 1.487.322.538-1.451-1.524-2.847-1.403-3.541.491-2.814 2.797 1.073 9.42-1.399 13.223-4.936 2.019-1.877 3.152-3.425 2.519-3.44-.633-.015.154-1.425 1.75-3.133 3.482-3.727 3.625-5.274.678-7.337-2.52-1.766-8.777-2.112-8.777-.486 0 .59-.707.365-1.571-.5-2.068-2.067-2.997-1.985-8.96.791-7.266 3.384-9.041 5.349-6.934 7.677 1.523 1.683 1.477 1.822-.703 2.131-1.633.231-2.237.884-2.015 2.18.197 1.15-.103 1.592-.79 1.167-.742-.459-.915.086-.524 1.649.572 2.293.433 2.339-7.96 2.618-5.015.167-8.543-.114-8.543-.68 0-.531 1.013-1.118 2.25-1.305l2.25-.34-2.268-.64c-1.387-.392-2.818-.09-3.686.778-.96.96-1.633 1.071-2.082.345-.365-.591-2.419-2.346-4.565-3.9-3.088-2.237-3.562-2.957-2.274-3.452.896-.343 2.134-.232 2.752.248 1.958 1.522 5.777 2.119 5.326.833-.226-.644-1.236-1.019-2.246-.834-1.555.286-1.463-.054.604-2.233 1.341-1.413 3.136-2.577 3.989-2.587.853-.009 2.039-.506 2.637-1.104.727-.727 1.296-.75 1.716-.069a1.2 1.2 0 0 1-.387 1.646c-1.826 1.129-1.074 3.51 1.109 3.51 1.804 0 2.039-.431 1.553-2.858-.518-2.594-.23-2.968 3.125-4.054 2.034-.658 4.772-1.06 6.087-.892 1.365.174 2.6-.291 2.879-1.085.276-.781.04-1.111-.538-.754-.566.35-2.987-.253-5.38-1.339-2.393-1.086-3.958-1.984-3.479-1.996.48-.012.313-.697-.372-1.522-1.037-1.249-.908-1.5.771-1.5 1.108 0 2.303.75 2.655 1.667.461 1.203.943 1.364 1.729.578.599-.599 1.625-.883 2.28-.632 2.621 1.006 5.567-5.334 5.729-12.33.029-1.219.807-2.457 1.731-2.75 1.827-.58 2.555-4.137 1.038-5.075-.517-.319-.68-1.617-.362-2.884.373-1.488.077-2.495-.837-2.846-2.315-.888-3.339.296-7.946 9.187-2.644 5.102-7.536 10.359-8.872 9.533-.504-.311-.916-.113-.916.441 0 .667-1.012.654-3-.039-1.65-.575-3-1.403-3-1.839 0-.647-7.178-4.039-9-4.254-.275-.032-.994-.734-1.598-1.561-.604-.826-1.617-1.181-2.25-.79-1.545.955-1.472 2.609.098 2.227.688-.168.978-.138.645.066-.332.204-.393 1.475-.135 2.824.258 1.35.867 2.207 1.354 1.906.487-.301.886-.037.886.585 0 .623-.788.971-1.75.773-.963-.198-1.63-1.079-1.482-1.959.147-.88-.416-1.863-1.25-2.183-.835-.32-1.518-.091-1.518.509 0 .728-.416.765-1.25.113-3.96-3.098-5.329-2.184-5.439 3.631-.058 3.081.107 4.814.365 3.852.57-2.121 2.324-2.333 2.324-.281 0 .894.586 1.243 1.5.893.825-.317 1.5-1.497 1.5-2.622 0-1.993.05-1.988 1.947.199 1.071 1.234 2.39 1.971 2.931 1.637.541-.335 1.246-.184 1.566.334.325.525-1.973 1.229-5.18 1.589-7.738.867-8.19 1.067-7.591 3.358.469 1.793 1.168 1.935 7.422 1.502 5.264-.365 6.909-.167 6.92.831.011.929.229.978.75.167.64-.995 6.613-1.903 9.846-1.497 1.447.182.52 5.118-.978 5.207-.623.037-4.845.077-9.383.089-4.538.013-8.25.448-8.25.968 0 .588-.684.58-1.804-.019-2.963-1.586-4.271.232-4.851 6.737l-.55 6.158h3.168c1.743 0 3.993-.441 5.001-.98 1.456-.78 2.165-.472 3.457 1.5 1.358 2.072 1.388 2.48.185 2.48-.791 0-1.605-.497-1.808-1.105-.445-1.337-8.568.822-10.626 2.825-2.296 2.235-4.76 3.191-8.78 3.407-4.137.221-7.421 1.467-8.627 3.273-.458.687-.74.468-.75-.583-.008-.925.862-1.961 1.934-2.301 1.072-.34 2.227-1.495 2.567-2.567.34-1.072 1.065-1.949 1.61-1.949.546 0 .673.516.284 1.146-.505.816.125.94 2.191.429 3.995-.987 4.622-1.838 3.792-5.144-.64-2.552-.799-2.648-1.485-.895-.59 1.511-.784 1.588-.838.336-.038-.895.605-2.187 1.43-2.872 2.171-1.802 1.84-4.678-.612-5.319-1.868-.489-2.046-.223-1.543 2.296.372 1.858.063 3.269-.887 4.058-.802.666-1.458.93-1.458.587 0-.342-.9.278-2 1.378-1.1 1.1-2.498 2-3.107 2s-.853.661-.544 1.468c.692 1.803-.963 3.04-1.724 1.288-.3-.691-.493-.131-.43 1.244.236 5.097-.133 6.643-1.195 5-.765-1.184-.973-.964-.985 1.05-.008 1.402-.477 3.012-1.042 3.577-.564.564-1.303 3.367-1.642 6.229-.606 5.118-2.331 8.228-2.331 4.203 0-1.132-.45-2.059-1-2.059s-1.003-.562-1.006-1.25c-.004-.687-.659-2.501-1.457-4.03-.951-1.825-1.164-3.544-.619-5 .749-1.998.96-1.795 2.117 2.036 1.103 3.652 2.25 4.736 2.551 2.411.048-.367.441-1.474.874-2.46s.51-2.07.172-2.408c-.338-.338-.147-1.179.425-1.868.666-.803.69-1.47.065-1.855-.589-.365-.644-1.755-.14-3.514.459-1.601.639-3.108.399-3.348-.24-.24.014-1.624.566-3.075.814-2.141.714-2.639-.531-2.639-.944 0-1.257-.481-.815-1.25.396-.687.351-.916-.099-.509-.45.408-1.422.24-2.16-.372-1.053-.874-1.342-.644-1.342 1.068 0 1.199.419 1.922.931 1.606.512-.317 1.213-.118 1.559.441.345.559.151 1.016-.431 1.016s-1.059.75-1.059 1.667c0 .916-.296 1.37-.658 1.008-.362-.362-1.311-.116-2.108.546-1.145.95-1.692.896-2.596-.259-1.599-2.042-3.638-2.268-3.638-.403 0 .857.461 1.274 1.025.926.563-.349.96-.263.881.191-.501 2.887.345 5.156 2.094 5.614 3.169.828 2.447 3.393-.983 3.49-1.64.047-3.204-.274-3.476-.713-.271-.439-1.742-.599-3.267-.355-1.954.313-2.373.163-1.417-.509 1.949-1.369-.234-2.526-5.286-2.802-2.688-.146-4.569-.915-5.721-2.339-1.814-2.239-2.183-2.072-5.251 2.366-1.313 1.899-1.382 1.898-4.753-.091-2.695-1.59-3.665-1.757-4.573-.784-.634.679-.88 1.507-.546 1.84.333.334-.133.607-1.037.607-2.925 0-7.822-10.182-5.568-11.576.61-.376.537-1.13-.196-2.013-.896-1.079-.893-1.411.011-1.411.649 0 .873-.498.497-1.107-.489-.791-.898-.76-1.434.107-.54.873-.943.901-1.438.1-.379-.613-.098-1.342.625-1.62 1.834-.707 2.024-6.06.266-7.519-.799-.663-1.453-2.051-1.453-3.083 0-1.033-.388-1.878-.862-1.878-.475 0-.676 1.237-.447 2.75.229 1.513.454 3.425.499 4.25.045.825.446 1.965.889 2.534.444.568.432 1.64-.027 2.382-.96 1.554-2.657-2.32-2.153-4.916.16-.825-.05-1.164-.467-.754-.626.616-4.688-4.563-4.9-6.246-.034-.275-.467-1.139-.961-1.92-.681-1.075-.495-1.265.765-.781 1.824.699 2.22-.343.706-1.857-.531-.531-.589-1.556-.131-2.298.861-1.394 6.053 3.141 6.119 5.346.017.555.507.191 1.089-.81 1.024-1.759 1.107-1.759 2.538 0 1.373 1.69 1.437 1.623.892-.93-.338-1.585-.155-2.75.432-2.75.56 0 .966-.338.901-.75-.315-1.993.219-3.306 1.118-2.75.55.34 1-.084 1-.941s-.41-1.559-.912-1.559c-.501 0-.79-.788-.641-1.75.148-.962-.229-2.081-.839-2.485-.636-.422-.125-.741 1.201-.75 1.493-.01 2.057.393 1.596 1.14-.473.763-.271.88.595.345s1.068-.418.595.345c-.427.691-.063 1.155.905 1.155s1.332-.464.905-1.155c-.473-.763-.271-.88.595-.345.921.569 1.069.421.5-.5-.504-.815-.416-1.066.232-.666.572.354 1.286-.297 1.587-1.446 1.292-4.942 2.778-.516 2.29 6.821-1.09 16.369 4.621 30.306 14.477 35.335 5.929 3.024 7.914 2.652 7.914-1.485 0-1.893.392-3.683.871-3.979.479-.296 1.201-2.01 1.605-3.809l.733-3.271.924 3.25c1.211 4.26 2.445 4.141 2.57-.248.054-1.924-.275-3.266-.733-2.983-.457.282-1.119.049-1.47-.519-.351-.568-1.057-.774-1.569-.457-.512.316-.931.125-.931-.425s.45-1.278 1-1.618c1.545-.955 1.181-3.5-.5-3.5-.825 0-1.5-.477-1.5-1.059s.45-.781 1-.441 1-.084 1-.941.45-1.559 1-1.559 1-.633 1-1.406c0-2.212-3.73-.727-4.394 1.748-.937 3.494-.709 4.484 1.144 4.969 1.38.36 1.297.481-.393.573-2.429.131-3.125 1.407-2.928 5.366.143 2.87-.227 3.148-2.847 2.143-.973-.373-1.588-1.817-1.597-3.75-.012-2.397-.246-2.787-.985-1.643-.835 1.293-.971 1.266-.985-.191-.008-.93.435-1.969.985-2.309.55-.34.948-1.604.884-2.809-.101-1.9-.18-1.939-.601-.296-.39 1.523-.659 1.621-1.369.5-.636-1.005-.888-.626-.899 1.355-.011 1.977-.507 2.728-1.765 2.671-1.045-.047-1.247-.282-.5-.583.687-.278 1.25-1.592 1.25-2.921 0-1.33.48-2.417 1.067-2.417.613 0 .797-.853.433-2-.499-1.572-.18-2 1.492-2 1.169 0 1.848-.45 1.508-1-.34-.55-.141-1 .441-1s1.059-.653 1.059-1.45c0-.798.788-1.909 1.75-2.47 1.648-.96 1.644-1.021-.072-1.05-1.917-.032-2.18-4.244-.417-6.691.474-.659.383-1.441-.212-1.809-.577-.356-1.049-.364-1.049-.018 0 .347-.707-.076-1.571-.941-.865-.864-1.937-1.571-2.384-1.571-1.364 0-2.03 4.313-.881 5.698.779.938.767 1.302-.042 1.302-.617 0-1.122.477-1.122 1.059s.419.8.931.484a1.086 1.086 0 0 1 1.494.336c.31.501-.109 1.169-.931 1.485-.822.315-1.529.025-1.572-.645-.042-.671-.907 1.031-1.922 3.781-1.277 3.46-1.869 7.9-1.922 14.417-.08 9.686-1.439 12.113-1.563 2.792-.048-3.546-.46-5.129-1.292-4.959-.673.137-1.223-.636-1.223-1.719 0-1.25.497-1.778 1.362-1.446 1.043.401 1.479-1.125 1.865-6.516.277-3.872 1.012-7.652 1.632-8.399.661-.797.966-3.7.736-7.015-.216-3.11-.067-5.655.331-5.655s.69-1.574.649-3.497c-.072-3.346-.233-3.497-3.743-3.5-5.131-.004-6.701.78-6.108 3.05.809 3.093-.597 8.614-2.194 8.614-.793 0-1.239-.328-.992-.729.248-.401-.25-.997-1.107-1.326-.857-.329-1.262-1.077-.9-1.662 1.054-1.705 1.276-5.95.312-5.95-.485 0-.615-1.237-.288-2.75.327-1.512.635-3.312.686-4 .051-.687.494-1.25.985-1.25.49 0 .633-.419.317-.931-.317-.512-.116-1.215.445-1.561.614-.38.004-1.963-1.534-3.98-1.774-2.326-2.201-3.566-1.397-4.063.845-.523.792-.946-.2-1.575-1.081-.685-1.091-.862-.048-.875.733-.008.995-.523.596-1.17-.473-.763-.271-.88.595-.345s1.068.418.595-.345c-.422-.685-.078-1.155.846-1.155.857 0 1.559.477 1.559 1.059s.408.807.906.499c1.036-.64.257-4.558-.906-4.558-.422 0-1.002-.9-1.29-2-.322-1.231-1.424-2.045-2.866-2.116-1.715-.085-1.871-.239-.582-.576.969-.253 1.505-.875 1.191-1.384-.314-.508-.094-.98.488-1.049l2.309-.271c.688-.08 1.556.538 1.93 1.375.461 1.032.702.675.75-1.112.048-1.828-.542-2.794-1.93-3.157-1.1-.287-2-1.031-2-1.652 0-.818.549-.835 2-.058 1.604.859 2 .76 2-.496 0-.862.562-1.783 1.25-2.048 1.771-.682 1.879-7.456.119-7.456-.753 0-1.369-.436-1.369-.969 0-.532-.671-.711-1.492-.396-.851.327-1.755-.116-2.107-1.031-.338-.882-1.228-1.604-1.977-1.604-.799 0-1.124-.619-.786-1.5.403-1.049-.076-1.5-1.59-1.5-1.191 0-1.906-.421-1.587-.936.587-.95 1.499-1.11 7.258-1.266 3.653-.1 3.446-1.798-.219-1.798-1.31 0-2.707-.526-3.105-1.17-.494-.799-.166-.956 1.031-.497.965.371 2.247.369 2.848-.002.686-.424.417-.913-.725-1.314-1.519-.533-1.262-.911 1.567-2.304 3.371-1.661 2.404-2.227-1.855-1.086-1.231.33-1.962 1.047-1.625 1.594.376.608-.308.761-1.761.395-1.306-.328-1.812-.339-1.125-.023.687.315 1.25 1.056 1.25 1.645 0 .59-.823.327-1.829-.583-1.006-.91-2.468-1.662-3.25-1.67-1.184-.013-1.193-.16-.058-.879.966-.612 1.022-.978.193-1.254-.681-.227-.883-1.139-.484-2.179.377-.983 1.27-1.564 1.984-1.29 2.072.795 4.167-2.296 2.38-3.511-.978-.664.106-.786 3.397-.384 3.226.394 4.62.245 4.191-.449-.373-.603.327-1.045 1.667-1.054 1.814-.012 1.994-.215.838-.946-.809-.512-1.2-1.201-.869-1.532.331-.331 1.298.094 2.15.945 2.171 2.172 2.406 1.974 1.882-1.594-.293-2-.087-2.911.569-2.506.566.35 1.287-.036 1.603-.858.315-.822.182-1.494-.296-1.494-.479 0-.825-1.575-.771-3.5.055-1.925.366-3.5.692-3.5 1.268 0 5.812-10.732 6.329-14.948.387-3.162.252-4.029-.467-3-.739 1.056-.842.67-.381-1.428.52-2.367.348-2.768-.971-2.262-.92.353-1.346.199-.999-.362.332-.537.018-.759-.698-.493s-2.652.074-4.302-.426c-2.86-.867-2.517-1.113 2-1.437 1.1-.079 1.888-.706 1.75-1.394-.137-.687.425-1.25 1.25-1.25.833 0 1.5-.889 1.5-2 0-1.412-.662-1.995-2.25-1.985-1.859.013-1.989.198-.75 1.066 1.174.822 1.011.913-.75.417-1.509-.424-2.26-.199-2.28.685-.019.824-.413.662-1.05-.433-.561-.962-1.617-1.75-2.347-1.75-.731 0-1.884-.67-2.564-1.489-.68-.819-1.704-1.199-2.277-.845-.604.373-.742.159-.327-.511.468-.758-.166-1.155-1.846-1.155-2.25 0-2.559-.416-2.559-3.441 0-1.893-.403-3.69-.895-3.994-1.414-.874-2.14 2.213-1.14 4.843.742 1.951.559 2.483-.993 2.889-1.263.33-2.102-.131-2.496-1.374-.327-1.029-1.693-2.735-3.035-3.791-1.343-1.056-2.441-2.448-2.441-3.093 0-.646-.788-.945-1.75-.665-2.055.597-7.315.948-8.75.584-.55-.14-1.893-.3-2.985-.356-1.333-.068-2.155-1-2.5-2.834-.283-1.503-1.302-3.645-2.265-4.762-.963-1.116-1.75-2.31-1.75-2.653 0-1.245-5.146-5.355-6.802-5.432-1.041-.048-1.215-.274-.448-.583.688-.278 1.25-.865 1.25-1.305 0-1.186-3.907-1.992-4.558-.939-.942 1.524-2.441 1.009-2.457-.844-.012-1.363-.206-1.45-.875-.393-.6.946-1.067 1.021-1.544.25-.376-.609-.16-1.107.48-1.107s.104-1.102-1.191-2.448c-1.486-1.545-2.706-2.099-3.305-1.5-1.321 1.319-5.55 1.191-5.55-.169 0-.624.882-.886 2-.593 1.349.353 2 .03 2-.991 0-1.064.52-1.287 1.75-.754.963.418 3.305.976 5.205 1.241 3.196.445 3.332.358 1.821-1.153-1.802-1.802-3.247-2.204-2.276-.633.34.55.141 1-.441 1s-1.059-.9-1.059-2-.338-1.947-.75-1.882c-2.282.361-4.285-.252-3.735-1.143.349-.563.038-.901-.691-.75-.728.151-1.188-.359-1.021-1.133.166-.775-.071-1.675-.528-2-.457-.326-1.35-1.717-1.985-3.092-1.091-2.363-1.158-2.381-1.222-.333-.038 1.191-.631 2.429-1.318 2.75-.951.443-.964.718-.056 1.148.656.31.947 1.208.645 1.994-.302.786-.951 1.181-1.444.876-.492-.304-.895.149-.895 1.006s.787 1.573 1.75 1.591c1.583.029 1.565.171-.191 1.5-1.068.807-1.518 1.468-1 1.468.517 0 .941 1.125.941 2.5s-.45 2.341-1 2.146c-.55-.194-.857-1.139-.683-2.1.19-1.046-.116-1.479-.761-1.081-.593.367-.98 1.944-.861 3.506.18 2.369 1.3 3.454 6.76 6.549 3.6 2.04 8.181 5.345 10.18 7.344 4.323 4.325 9.058 7.961 13.285 10.204 4.081 2.165 8.412 8.708 9.453 14.281 1.07 5.726.394 6.719-4.922 7.231-2.382.23-4.638.914-5.014 1.522-.497.805-1.241.806-2.74.003-2.484-1.329-6.769-7.105-5.271-7.105 1.95 0 .456-4.495-1.53-4.602-1.043-.056-2.234-.225-2.646-.375a17.715 17.715 0 0 0-3.917-.898c-1.673-.179-.002-1.597 1.901-1.612 2.301-.019 2.686-2.17.491-2.744-1.021-.267-2.882.344-4.134 1.358-1.734 1.405-2.731 1.601-4.184.823-1.049-.561-1.907-.724-1.907-.363 0 .362-.604.157-1.342-.456-.738-.612-1.638-.818-2-.456-.362.362-.658.133-.658-.508 0-.642.477-1.167 1.059-1.167s.776-.457.431-1.016c-.346-.559-1.117-.715-1.714-.346-.693.429-.793.198-.276-.638.535-.866.418-1.068-.345-.595-.635.392-1.155.236-1.155-.346 0-1.79-3.827-1.171-4.272.691-.375 1.57-.504 1.544-1.25-.25-.458-1.1-1.262-2.288-1.787-2.641-.525-.352.011-.947 1.191-1.322 1.258-.399 1.857-1.15 1.447-1.814-.385-.623-.84-2.503-1.01-4.178-.205-2.013-.015-2.585.56-1.688.616.96.871.578.871-1.305 0-2.586-.132-2.645-4.625-2.058-11.595 1.514-13.341 1.511-12.752-.024.31-.809.128-1.47-.404-1.47-.533 0-.969.398-.969.883 0 .486-.9 1.119-2 1.407-1.1.287-2 .085-2-.451s-.891-.691-1.98-.345c-1.089.345-2.776.177-3.75-.373-1.462-.827-1.033-1.12 2.461-1.686 2.327-.376 4.723-1.277 5.323-2 .601-.724 1.739-1.068 2.53-.764 1.006.386 1.253.067.82-1.06-.744-1.941.051-1.793-10.654-1.98-4.812-.084-8.75.19-8.75.608 0 .419-.477.761-1.059.761s-.781-.45-.441-1 .141-1-.441-1c-1.99 0-1.063-1.934 1.691-3.526 2.643-1.527 2.652-1.561.25-.88-5.415 1.535-12.523 1.044-12.206-.844.195-1.164-.353-1.75-1.636-1.75-1.061 0-3.218-.698-4.794-1.552-2.838-1.537-2.841-1.55-.364-1.389 4.441.288 6.132-.037 5.5-1.059-.34-.55-1.436-1-2.437-1-1 0-2.393-.693-3.096-1.54-1.133-1.364-.575-1.498 4.877-1.173 3.386.203 6.156.032 6.156-.38 0-1.241 5.993-2.156 7.291-1.112 1.157.93 10.503 3.222 13.008 3.19.738-.01.623-.395-.299-1-1.333-.876-1.333-1.093 0-1.953.967-.624 1.618-.624 1.833 0 .184.532.998.968 1.809.968.812 0 1.198-.45.858-1-.34-.55-.141-1 .441-1s1.059.705 1.059 1.567c0 1.09.584 1.382 1.916.96 2.802-.89 3.624 1.325.898 2.418l-2.314.928 2.25.064c1.238.034 2.25.474 2.25.976 0 1.145 5.869-.912 8.235-2.885 2.679-2.235 2.159-2.793-2.346-2.521-4.877.294-8.074-.399-7.337-1.591.291-.472-.621-1.146-2.027-1.499-1.406-.353-3.45-1.777-4.541-3.164-1.091-1.388-1.984-2.012-1.984-1.388 0 .624-.675 1.135-1.5 1.135s-1.5.477-1.5 1.059-.419.8-.931.484c-.512-.317-1.213-.118-1.559.441-.345.559-1.389.98-2.319.937-1.085-.051-1.233-.263-.413-.593.888-.356 1.074-1.598.612-4.065-.453-2.413-.324-3.34.402-2.891.589.363 1.352.203 1.698-.356.345-.559 1.107-1.016 1.691-1.016.701 0 .664.482-.107 1.411-.801.965-.839 1.616-.123 2.059.577.356 1.049-.038 1.049-.876s.87-1.989 1.934-2.559c2.584-1.382 3.066-1.309 3.066.465 0 .825-.536 1.5-1.191 1.5s-.318.661.75 1.468c1.067.808 2.616 1.476 3.441 1.485 1.227.013 1.252-.141.137-.847-1.082-.686-1.098-.952-.079-1.292 1.623-.541 2.038-5.069.555-6.049-1.557-1.028 1.358-.852 3.887.235l2 .859-2 .086c-2.917.125.216 2.019 3.372 2.04 1.996.013 2.175-.223 1.128-1.485-.995-1.199-.991-1.5.017-1.5.695 0 1.822.766 2.507 1.702.758 1.037 2.657 1.721 4.864 1.753 1.99.028 3.631.5 3.647 1.048.047 1.697-5.034 1.728-7.6.047-1.339-.878-2.435-1.136-2.435-.573s-.873 1.023-1.941 1.023c-4.152 0-5.18 7.578-1.059 7.805 1.375.075 3.585.263 4.911.416 1.372.159 2.613-.32 2.88-1.11.309-.915.038-1.124-.791-.611-.808.5-1.104.313-.827-.519.238-.714 1.524-1.464 2.858-1.668 1.335-.204 2.811-.755 3.282-1.226 1.027-1.027 4.687-.222 4.687 1.03 0 .485.375.883.833.883 1.303 0 .985-3.387-.423-4.5-2.265-1.791-2.187-8.012.09-7.138.825.316 1.5.113 1.5-.452 0-.566.45-.75 1-.41s1 .19 1-.334.573-1.172 1.273-1.44c.897-.345 1.272.671 1.272 3.443 0 2.163.507 4.247 1.127 4.632.619.384 1.284 1.824 1.477 3.199.241 1.718 1.074 2.603 2.662 2.828 1.271.18 2.557.967 2.857 1.75.901 2.347 2.215 1.602 1.461-.828-1.128-3.64-4.509-8.664-6.129-9.107-.87-.239-.583-.46.683-.527 1.382-.073 2.42.632 2.83 1.926.48 1.512 1.179 1.873 2.693 1.393 1.344-.427 1.814-.277 1.373.437-.488.79.881 8.002 1.851 9.754.039.069 1.195.466 2.57.883 2.395.725 2.429.677.81-1.139-.93-1.043-2.261-4.028-2.958-6.633-.711-2.658-1.854-4.737-2.605-4.737-1.877 0-6.738-5.061-5.62-5.851 1.657-1.171 3.953-5.567 5.299-10.149a912.449 912.449 0 0 1 2.393-8c.59-1.925 1.161-4.007 1.27-4.626.109-.62.494-2.195.856-3.5.636-2.293.606-2.308-.893-.433-1.424 1.781-1.552 1.794-1.552.167 0-2.686-2.366-1.351-3.5 1.975-.55 1.613-1.562 2.873-2.25 2.8-.687-.073-1.748-.189-2.357-.258-.609-.069-.848-.8-.531-1.625.35-.914.001-1.5-.893-1.5-.808 0-1.356-.546-1.219-1.213.138-.668-.767-1.676-2.009-2.241-4-1.82-4.589-7.182-1.19-10.831 2.025-2.174 1.629-4.19-.652-3.315-.807.31-1.399-.084-1.399-.931 0-.808.505-1.469 1.122-1.469.762 0 .712-.496-.157-1.542-.822-.99-1.625-1.198-2.244-.579-.531.531-1.585.727-2.343.436s-1.378-.004-1.378.637-.412.912-.915.601c-.503-.311-1.065-.154-1.25.349-.53 1.448-4.37 1.775-4.085.348.137-.688-.2-1.25-.75-1.25s-1 1.336-1 2.969c0 2.205.379 2.823 1.474 2.402 2.763-1.059 8.444 6.622 6.246 8.446-1.817 1.508-5.988.325-5.288-1.5.342-.891.119-1.157-.598-.714-.707.436-.869.262-.425-.456.416-.673-.045-1.44-1.096-1.824-.997-.365-2.864-1.47-4.149-2.455-2.56-1.963-11.647-2.458-10.481-.572.398.644.007.799-1.019.405-.915-.351-1.664-.242-1.664.242s-.787.729-1.75.545c-.963-.184-2.114-.369-2.559-.411-.445-.043-.587-.436-.316-.875.816-1.321-1.258-3.872-2.125-2.614-.412.598-1.742 1.338-2.954 1.644-2.822.713-6.413-3.909-4.151-5.342.942-.598.5-.864-1.454-.875-1.615-.008-2.546-.44-2.191-1.015.34-.55.089-1-.558-1-.71 0-.989-.976-.703-2.47.26-1.358.087-2.232-.383-1.941-.471.291-.856-.173-.856-1.03 0-1.975 1.388-2.002 3-.059.86 1.036.898 1.5.122 1.5-.617 0-1.122.525-1.122 1.167 0 .641.247.92.548.618.302-.302 2.493 1.452 4.869 3.897 3.654 3.759 4.424 4.176 4.99 2.7.462-1.205-.194-2.471-2.119-4.088l-2.788-2.343 3 .427c1.65.235 3.84.764 4.866 1.176 1.652.663 1.735.502.719-1.396-.754-1.409-2.509-2.362-5.117-2.779-4.184-.669-5.071-1.742-2.315-2.8 1.493-.572 1.469-.784-.25-2.181-1.82-1.479-1.794-1.522.597-.986 1.375.308 2.886.567 3.357.574.471.008.598.689.281 1.514-.316.825-.139 1.5.393 1.5.533 0 .983-.788 1.001-1.75.03-1.667.095-1.667 1.36 0 1.792 2.361 2.665 2.204 2.266-.408-.383-2.513-4.127-5.842-6.569-5.842-1.965 0-4.089-1.871-4.089-3.601 0-1.678 6.691-5.455 8.461-4.776.969.372 1.672-.306 2.106-2.032.659-2.629 1.904-3.115 4.968-1.939 1.396.536 1.188.878-1.168 1.919-1.577.697-2.278 1.303-1.558 1.348.72.044 1.05.5.734 1.012-.317.512-.118 1.213.441 1.559.913.564 1.451-.735 1.134-2.74-.171-1.083 1.657-.923 2.355.206.325.526 1.249.704 2.053.396.805-.309 1.214-.964.909-1.457-.304-.492.149-.895 1.006-.895s1.566-.788 1.574-1.75c.012-1.287.231-1.41.83-.466.449.708 1.564.996 2.485.643 3.036-1.165 4.904.225 3.445 2.562-.699 1.119-1.834 1.818-2.523 1.554-1.648-.632-1.572.321.314 3.937 1.003 1.923 1.178 3.105.494 3.333-.583.195-1.06.793-1.06 1.329 0 .537.562.652 1.25.257.687-.396.928-.363.535.072-.393.436-.265 1.633.285 2.66.735 1.373.659 1.876-.285 1.896-.707.014-.041.797 1.48 1.74 1.52.943 2.538 2.304 2.261 3.025-.277.722-.063 1.04.474.708.552-.341.721.064.388.931-.5 1.304-.135 1.377 2.431.482 3.072-1.071 5.151-3.913 2.862-3.913-.69 0-1.323-.9-1.406-2-.083-1.1.298-2 .846-2s.719-.45.379-1c-.34-.55-.086-1 .563-1 .901 0 .905-.334.018-1.403-.889-1.071-.879-1.498.044-1.805.665-.222 1.208-1.841 1.208-3.598 0-2.063.493-3.194 1.393-3.194.765 0 1.126-.43.801-.956-.325-.526-1.364-.667-2.309-.313-1.492.559-1.54.425-.366-1.019 1.179-1.45 1.02-1.813-1.25-2.848-1.431-.652-2.602-1.75-2.602-2.441 0-.691-.51-1.426-1.133-1.634-.682-.227-.856-1.247-.439-2.563.382-1.202 1.004-2.082 1.383-1.956 1.245.415 1.495-.731.704-3.223-.915-2.881-3.013-5.215-3.896-4.333-.34.341-.619-.775-.619-2.48 0-2.171.571-3.281 1.908-3.705 2.198-.697 3.63-3.513 1.811-3.561-.766-.02-.626-.485.374-1.25 1.368-1.046 1.454-2.243.607-8.486l-.986-7.268 3.785-7.232c6.588-12.587 16.066-21.673 18.499-17.735.791 1.28 1.126 1.215 2.347-.454 1.266-1.731 2.598-1.935 11.966-1.835 9.193.098 10.763-.132 12.27-1.798.951-1.05 2.752-1.91 4.003-1.91 3.142 0 5.416-2.573 5.416-6.129 0-3.574 1.762-11.682 3.066-14.107 2.015-3.748.116-8.375-3.604-8.78-4.339-.473-5.284-.032-4.848 2.266.285 1.5.17 1.75-.343.75-.741-1.442-7.271-2.233-7.271-.881 0 .351-1.462 1.23-3.25 1.953-1.787.723-3.531 1.725-3.875 2.228-.544.794-4.628-.546-9.887-3.244-.832-.427-2.759-.643-4.283-.481-1.524.163-4.274-.332-6.111-1.1-1.837-.768-3.619-1.116-3.961-.775-.341.342-1.411-.067-2.377-.909-.966-.842-2.431-1.778-3.256-2.082-.85-.312-.308-.585 1.25-.63 1.512-.043 2.75.371 2.75.921s.376 1 .837 1c.46 0 .797-2.428.75-5.395-.089-5.517-2.32-9.605-5.242-9.605-.74 0-1.345-.436-1.345-.969 0-.532.642-.722 1.427-.421 1.042.4 1.28-.013.883-1.531-.433-1.659-.08-2.079 1.748-2.079h2.291l-2.184-2.324c-1.201-1.278-1.899-2.609-1.551-2.957.348-.348.365-1.332.037-2.186-.328-.855-.496-1.766-.374-2.024.538-1.135-4.155-3.261-8.277-3.751-2.475-.294-3.914-.314-3.197-.045 2.258.847-1.95 3.219-5.803 3.271-2.134.028-3.011.357-2.246.843 1.612 1.023 1.218 6.173-.472 6.173-1.2 0-1.732-1.861-1.357-4.75.09-.687-.507-1.25-1.324-1.25-1.398 0-4.601-3.592-4.601-5.16 0-.393 1.688-.494 3.75-.225l3.75.489-3.37-1.555c-2.648-1.22-3.131-1.842-2.254-2.9 1.329-1.601-.803-3.91-5.128-5.555-4.646-1.766-3.164-3.708 2.413-3.161.914.089 1.953-.309 2.309-.885.357-.576.145-1.048-.47-1.048s-.797-.52-.405-1.155c.443-.715.275-.883-.44-.44-.635.392-1.155.263-1.155-.287 0-1.318 1.431-2.147 4.744-2.748 3.408-.618 3.789-1.008 2.535-2.596-.554-.701-.993-2.042-.976-2.981.037-2.086 2.697-3.33 2.697-1.262 0 2.232 2.775 1.754 3.524-.606.362-1.142.914-1.821 1.225-1.509.312.312 1.161.073 1.888-.53 2.246-1.864-.028-4.543-3.644-4.292-3.668.253-4.959 1.191-3.167 2.299 1.02.63 1.014.995-.032 1.863-1.522 1.264-5.383-.994-4.405-2.576.744-1.205-1.983-3.549-3.232-2.777-1.744 1.078-3.107-2.039-3.572-8.163-.493-6.512-2.345-12.89-5.59-19.25-1.097-2.151-1.995-4.522-1.995-5.27 0-.748-1.61-3.241-3.578-5.54-1.968-2.299-3.263-4.18-2.877-4.18.385 0 .111-.709-.608-1.576-1.068-1.287-1.071-1.723-.016-2.375.853-.527 1.036-1.608.539-3.174-.414-1.306-.8-2.586-.857-2.843-.057-.258-1.115-1.561-2.353-2.896-2.289-2.47-2.986-5.136-1.344-5.136.499 0 .671-.9.384-2-.288-1.1-1.146-2-1.907-2-.76 0-1.383-.477-1.383-1.059s.45-.781 1-.441 1 .141 1-.441.675-1.059 1.5-1.059 1.5.765 1.5 1.7c0 1.254.294 1.406 1.119.581.826-.826.78-2.518-.173-6.45-.71-2.932-1.402-6.231-1.536-7.331-.134-1.1-.288-2.225-.342-2.5-.054-.275-.491.12-.972.878-1.021 1.614-3.096.651-3.096-1.437 0-3.177-1.972-1.098-4.906 5.171-4.636 9.909-4.406 18.211.943 33.984 2.22 6.547 5.137 15.729 6.482 20.404 2.657 9.242 4.881 15.732 7.075 20.651.773 1.733 1.406 5.207 1.406 7.719 0 2.726.865 6.229 2.146 8.686 2.475 4.749 3.644 12.705 1.424 9.694-.71-.963-1.846-1.75-2.526-1.75-2.106 0-6.803-3.874-8.993-7.417-3.222-5.214-14.715-14.584-17.881-14.578-5.596.01-8.393 3.793-8.924 12.069-1.151 17.933 2.591 27.801 13.1 34.543 13.59 8.719 15.674 11.776 15.774 23.133.069 7.778-.319 9.265-7.629 29.25-1.991 5.443-4.734 10.086-9.303 15.75l-3.429 4.25h2.68c1.531 0 2.414-.428 2.061-1-.34-.55-.127-1 .473-1s1.498 1.013 1.996 2.25c.62 1.542.924 1.735.968.611.092-2.379 3.334-1.763 4.863.924.715 1.257 2.628 2.551 4.25 2.875 2.719.544 3.444 1.433 3.028 3.713-.088.48.534.606 1.381.281.957-.367 1.541-.035 1.541.877 0 .808.708 1.469 1.573 1.469.962 0 1.441.681 1.234 1.75-.252 1.297-1.307 1.746-4.074 1.736-2.053-.007-3.733.138-3.733.322 0 .794 2.951 3.192 3.929 3.192.589 0 1.071.853 1.071 1.895 0 1.354 1.931 2.823 6.75 5.137 7.329 3.52 8.489 4.577 7.869 7.17-.224.936.108 1.913.737 2.171.629.258.357.505-.606.548-.963.043-1.806-.371-1.875-.921-.069-.55-.181-1.523-.25-2.163-.132-1.225-5.625-1.91-5.625-.701 0 .867-7.07-.994-8.645-2.276-.63-.512-1.441-2.503-1.801-4.423-.36-1.921-1.082-3.229-1.605-2.906-.522.323-.949-.084-.949-.905 0-2.005-3.158-2.89-6.105-1.711-1.832.733-1.97.973-.586 1.022.995.034 1.547.486 1.228 1.003-.718 1.163 3.443 5.19 4.614 4.466.467-.288.851.29.854 1.285.003.995 1.114 3.609 2.469 5.809 2.742 4.452 3.22 6.321 1.184 4.631-.738-.612-1.71-.78-2.159-.372-.45.407-.535-.047-.19-1.009.453-1.261.113-1.75-1.218-1.75-1.015 0-2.406-.675-3.091-1.5s-2.09-1.5-3.122-1.5c-1.033 0-1.878-.45-1.878-1s-.661-1-1.469-1c-.894 0-1.243.586-.893 1.5.317.825 1.222 1.5 2.011 1.5 2.465 0 10.014 9.004 8.673 10.345-.96.96-5.601-.418-7.822-2.323-1.345-1.154-2.818-1.5-4.5-1.057l-2.5.659 2.64.679c2.606.671 4.345 3.103 3.359 4.699-.674 1.09-6.674-1.102-8.217-3.002-.67-.825-1.24-1.05-1.266-.5-.082 1.749-1.985-1.919-2.001-3.858-.012-1.496.484-1.734 2.537-1.218 2.321.582 2.454.456 1.465-1.392-.598-1.118-1.747-2.088-2.552-2.157a60.053 60.053 0 0 1-2.381-.25c-.504-.069-2.417-1.244-4.25-2.611-3.439-2.565-3.695-2.679-6.501-2.889-.916-.069-1.369-.422-1.006-.785.363-.363-.266-1.309-1.398-2.102-2.685-1.881-3.731-.782-1.55 1.629 1.61 1.778 1.591 1.907-.338 2.412-1.121.293-2.296.118-2.609-.389a1.092 1.092 0 0 0-1.501-.347c-.512.316-.931.171-.931-.323 0-1.149-5.065-3.489-5.85-2.703-.326.325.046.986.827 1.469 1.086.671.789 1.035-1.272 1.552-2.943.739-2.727 2.462.309 2.462 1.042 0 3.12 1.225 4.617 2.722 1.745 1.745 2.868 2.281 3.131 1.493.535-1.607 2.238-.531 2.238 1.415 0 .832.675 2.188 1.5 3.013.825.825 1.5 1.113 1.5.641s1.006-.934 2.235-1.027c1.23-.092 2.392-.638 2.584-1.213.456-1.37 4.181-1.357 4.181.015 0 .582.45.781 1 .441.594-.367 1 .803 1 2.882 0 1.925.489 3.802 1.087 4.172.598.369.891 1.422.651 2.338-.41 1.568 1.358 4.108 2.86 4.108.761 0 3.321 3.143 3.37 4.139.018.351-.756.576-1.718.5-1.143-.091-1.649.462-1.46 1.595.202 1.205-.179 1.554-1.25 1.143-.847-.325-1.54-1.041-1.54-1.591s-.631-.758-1.403-.462c-2.402.922-4.93-1.804-4.93-5.315 0-3.032-.103-3.135-1.392-1.391-.766 1.035-1.205 2.882-.977 4.104.337 1.808.022 2.148-1.692 1.824-1.158-.219-2.556-.445-3.106-.503-.55-.059-.205-.71.766-1.447 1.619-1.228 1.517-1.389-1.23-1.939-2.298-.459-2.844-.993-2.346-2.292.42-1.095.261-1.453-.451-1.013-.605.374-1.383.223-1.729-.336-.345-.559-1.501-1.016-2.569-1.016-1.389 0-1.941-.691-1.941-2.433 0-1.565-.723-2.662-2.026-3.075-2.682-.851-2.133-3.66 1.026-5.253 2.319-1.17 2.337-1.231.249-.843-1.413.262-2.008.022-1.596-.644.386-.624.181-.767-.498-.347-.647.399-1.162.137-1.17-.596-.011-.951-.281-.899-.985.191-.789 1.221-.972 1.093-.985-.682-.009-1.271-1.267-3.073-3.015-4.318-2.685-1.912-4.462-5.022-2-3.5.55.34 1 .157 1-.406 0-.904-3.076-3.094-4.346-3.094-.263 0-.354 1.125-.203 2.5.15 1.375-.114 2.5-.589 2.5-.474 0-.862-.54-.862-1.2 0-2.281-1.788.651-3.475 5.7-.919 2.75-2.098 8.752-2.619 13.338-.521 4.586-1.803 9.986-2.849 12-3.118 6.006-5.142 11.526-5.197 14.173-.13 6.228-2.212 21.608-3.072 22.692-.525.661-.955 3.249-.955 5.75S96.463 330 96.01 330c-.452 0-.587.9-.3 2 .288 1.1.035 2-.562 2-.597 0-.827.674-.511 1.498.431 1.121-.08 1.443-2.031 1.281-1.876-.155-2.61-.784-2.621-2.247-.011-1.45-.251-1.66-.839-.735-.657 1.037-1.081.986-2.107-.25-.706-.851-1.829-1.547-2.495-1.547-1.582 0-1.559-3.128.036-4.723 1.24-1.24-.129-6.25-1.714-6.269-.802-.01-.379-5.829.488-6.695.355-.356.646-2.371.646-4.48 0-3.575-.198-3.833-2.941-3.833-1.618 0-3.219-.45-3.559-1-.34-.55-1.829-1.053-3.309-1.118l-2.691-.119 2.942-.631 2.941-.632-3.276-2.757c-1.802-1.516-3.688-2.502-4.192-2.191-.503.311-.915.089-.915-.493S70.593 296 72.539 296h3.539l-2.039-2.189c-1.121-1.203-2.039-2.58-2.039-3.059 0-.478-.45-.592-1-.252-.55.34-1 .141-1-.441s.436-1.059.969-1.059c.532 0 .695-.713.36-1.584-.435-1.135-.815-1.248-1.34-.399-.432.7-.941-.187-1.242-2.166-.626-4.113-.682-4.051 3.686-4.051 4.208 0 4.707-1.297.869-2.26-2.115-.531-2.385-.875-1.25-1.593 1.077-.681.679-.95-1.552-1.048-1.704-.074-2.244-.329-1.25-.588 1.885-.493 2.144-1.233.985-2.811-.774-1.054-1.07-1.111-6.902-1.35-2.016-.083-3.368-.448-3.004-.812.364-.365 2.661-.587 5.104-.495 2.443.093 4.722-.284 5.063-.837.342-.553-.106-1.006-.996-1.006s-1.34-.45-1-1c.34-.55-.196-1.059-1.191-1.132-.995-.072-.234-.463 1.691-.868 3.255-.685 3.133-.746-1.75-.868-2.888-.073-5.25-.582-5.25-1.132 0-.55-.675-1-1.5-1s-1.5.45-1.5 1-.477 1-1.059 1-.738-.52-.346-1.155c.468-.756.272-.881-.57-.36-.857.529-1.129.331-.819-.596.257-.764 1.102-1.45 1.88-1.524a170.28 170.28 0 0 1 2.997-.25c1.922-.14 2.111-2.826.25-3.541-1.807-.693-1.698-3.574.136-3.574.894 0 1.243.586.893 1.5-.403 1.049.076 1.5 1.59 1.5 1.191 0 1.888.45 1.548 1-.34.55.135 1 1.056 1 1.958 0-.173-3.987-3.876-7.25-1.955-1.722-1.942-1.75.834-1.75 1.55 0 2.482-.337 2.069-.75-.412-.412-1.269-.75-1.903-.75-1.945 0-1.935-3.297.013-3.772 1.039-.254-.08-.782-2.632-1.242-3.64-.658-4.063-.941-2.352-1.574 3.996-1.478 5.383-7.454 1.967-8.475-1.197-.357-2.933-1.608-3.858-2.779-.924-1.17-2.017-1.793-2.427-1.383-.41.41.122 1.439 1.182 2.287 1.866 1.493 1.856 1.522-.326.921-2.011-.553-5.391 1.354-5.283 2.981.038.569.002.575-2.714.466-1.496-.06-1.46-.195.25-.93 1.834-.788.709-1.507-1.75-1.118-.413.065-.75-.332-.75-.882s1.237-1.061 2.75-1.136c2.38-.118 2.445-.195.485-.572-1.245-.239-2.006-.853-1.691-1.363.316-.511-.075-.929-.868-.929-.794 0-1.714-1.012-2.046-2.25-.886-3.309-.784-3.75.87-3.75.825 0 1.5-.45 1.5-1s-1.237-1.014-2.75-1.03c-2.423-.027-2.533-.157-.925-1.092 1.004-.584 2.075-.811 2.381-.505.307.306 1.51.029 2.675-.617 2.048-1.134 2.022-1.191-.799-1.715-3.83-.71-4.663-2.939-.872-2.332 2.176.349 2.46.213 1.29-.615-1.075-.762-1.135-1.068-.211-1.079 1.053-.012 1.053-.27 0-1.404-.876-.944-1.505-1.045-1.963-.315-.465.743-1.161.671-2.25-.233-2.014-1.672-2.018-3.063-.009-3.063 1.167 0 1.388-.575.866-2.25-.786-2.519-2.203-3.712-4.433-3.735-1.059-.01-1.449-.971-1.327-3.265.278-5.219.313-5.321 1.289-3.778.797 1.262 1.025 1.227 1.589-.244.362-.944 1.069-1.463 1.57-1.153.501.31.653.982.336 1.494-.316.512.43.931 1.658.931h2.234l-2.184-2.324c-1.201-1.278-1.879-2.628-1.507-3 .371-.372-.187-.712-1.241-.755-1.057-.043-1.356-.305-.667-.583 1.895-.765 1.498-2.04-.824-2.647-1.141-.298-2.319-1.476-2.617-2.617-.298-1.141-.966-2.074-1.485-2.074-.518 0-.664-.45-.324-1s.184-1-.347-1c-2.614 0 .315-3.922 3.199-4.284 2.774-.349 2.672-.415-.861-.556-4.465-.178-8.715-4.16-4.44-4.16 1.308 0 1.805-.424 1.354-1.155-.473-.763-.271-.88.595-.345.815.504 1.066.416.666-.232-.354-.572.251-1.275 1.345-1.561 1.094-.286 1.989-.962 1.989-1.502 0-1.168-3.235-1.067-4.111.129-.336.458-.884.121-1.218-.75-.379-.987-.073-1.584.811-1.584.78 0 1.825-.726 2.322-1.614.731-1.306 1.308-1.396 3.029-.475 2.01 1.076 2.093.959 1.506-2.137-.341-1.801-1.026-3.793-1.521-4.427-.569-.727-.424-1.345.39-1.674 1.006-.405.96-.755-.208-1.582-1.119-.791-1.165-1.064-.179-1.076 2.951-.034 4.393-2.801 2.465-4.729-.982-.982-2.348-1.786-3.036-1.786-.687 0-1.241-.346-1.229-.77.04-1.467-2.508-3.53-3.132-2.535-.336.536-.884.262-1.218-.611-.432-1.124-.02-1.584 1.419-1.584 1.116 0 1.75-.45 1.41-1-.34-.55-1.941-1-3.559-1S30 135.592 30 135.094c0-.499.9-.671 2-.384 1.118.293 2 .031 2-.593 0-.615-1.387-1.117-3.083-1.117-3.792 0-3.499-2.353.35-2.811 1.695-.201 3.42.498 4.914 1.992l2.302 2.302.518-2.991c.285-1.646.852-2.879 1.259-2.742 2.644.893 3.77.174 2.74-1.75-.693-1.294-.716-2-.067-2 .553 0 .745-.675.429-1.5-.317-.825-1.203-1.5-1.969-1.5S40 121.55 40 121s.675-1 1.5-1 1.5-.45 1.5-1-.745-1-1.655-1c-1.462 0-1.433-.25.25-2.145 1.901-2.141 1.899-2.145-.839-1.64-1.648.303-3.194-.038-3.872-.855-.897-1.08-.641-1.373 1.244-1.423l2.372-.064-2.486-.991c-1.367-.546-3.279-.784-4.25-.531-.97.254-1.771-.059-1.779-.695-.009-.656-.454-.508-1.031.344-.747 1.105-.853.71-.401-1.5 1.027-5.019 1.167-5.188 4.104-4.973 1.564.115 2.055.012 1.093-.229-2.345-.586-2.217-2.015.25-2.798 2.115-.671 2.608-2.006 1.089-2.945-.501-.31-.79-1.349-.643-2.309.148-.96-.61-2.871-1.684-4.246-1.812-2.32-1.827-2.525-.212-2.851 1.416-.286 1.481-.516.345-1.235-.998-.632-1.039-.888-.145-.899 1.964-.024 1.46-4.854-.699-6.703-1.072-.918-1.72-2.038-1.441-2.49.28-.452-.098-.822-.838-.822-.741 0-1.416-1.013-1.501-2.25-.134-1.953.002-2.041 1.037-.663 1.348 1.795 4.684 2.147 4.707.496.009-.596.483-.408 1.054.417.855 1.235.978 1.147.699-.5-.205-1.202-.994-1.89-1.979-1.723-.901.152-1.924-.186-2.273-.75-.349-.565.18-1.034 1.175-1.042 1.5-.013 1.559-.174.343-.943-.807-.51-1.932-.577-2.5-.148-.569.429-2.159.185-3.534-.542-2.609-1.38-2.145-1.712 1.915-1.37 2.209.187 2.278.069.821-1.389C30.86 64.717 29.462 64 28.63 64c-2.197 0-2.833-1.587-1.183-2.956 1.652-1.371 6.029.378 5.022 2.006-.323.523-.159.95.365.95 1.413 0 2.244-2.842 1.591-5.444-.388-1.544-.063-2.481 1.001-2.889.866-.332 1.574-1.095 1.574-1.695 0-.599-.493-.785-1.096-.413-.673.416-.963-.01-.75-1.104.394-2.028-4.621-7.902-6.013-7.042-1.12.692-3.384-1.837-2.466-2.755.362-.362 1.596-.69 2.742-.728 2.049-.069 2.05-.085.083-.93-1.1-.473-1.55-.905-1-.962.55-.056.126-.762-.941-1.57-1.825-1.38-1.73-1.468 1.583-1.468 4.142 0 5.267-.802 3.727-2.658-1.5-1.808-2.946-1.705-2.231.158.365.95-.013 1.5-1.031 1.5C28.56 36 28 35.13 28 33.5c0-2-.5-2.5-2.5-2.5-1.375 0-2.5-.45-2.5-1s1.125-1 2.5-1c3.417 0 3.184-1.971-.25-2.116-1.79-.075-2.12-.279-.947-.584 1.431-.371 1.561-.759.628-1.884-.935-1.126-.832-1.416.506-1.416.924 0 1.422.419 1.106.931-.317.512-.118 1.213.441 1.559 1.888 1.167 1.048-4.482-.917-6.165-1.407-1.205-1.817-2.562-1.506-4.99.406-3.171.268-3.338-2.817-3.405-2.68-.058-2.896-.214-1.244-.893 1.836-.755 1.856-.881.25-1.537-2.63-1.073-2.331-4.885.329-4.19 1.479.387 1.928.151 1.557-.817-.339-.883.16-1.309 1.421-1.214 1.069.081 1.943.448 1.943.817 0 .369 1.012.948 2.25 1.287 1.882.516 2.005.781.75 1.617-1.229.819-1.259 1.156-.165 1.862.735.474 1.297 1.149 1.25 1.5-.047.351.252.525.665.388a.792.792 0 0 0 .5-1c-.137-.412.248-.75.857-.75s.848-.675.531-1.5c-.316-.825-.027-1.532.643-1.57.671-.039.319-.422-.781-.851s-2-1.41-2-2.18C30.5.774 27.514.444 15.247.214L-.006-.072l.009 307.6M199.408 54.667c.55 1.768.333 2.078-1.174 1.684-4.844-1.267-9.355 7.928-5.15 10.498 1.938 1.185 2.131 1.155 1.592-.25-.965-2.517.843-1.865 2.281.821 1.398 2.612 4.317 2.456 3.306-.176-.466-1.215-.183-1.427 1.196-.898 1.618.621 1.752.222 1.296-3.827-.28-2.485-.115-4.519.368-4.519.482 0 .877-.75.877-1.667 0-.916-.301-1.365-.669-.997-.368.367-1.553-.12-2.633-1.084-1.893-1.688-1.939-1.673-1.29.415m45.031 47.754c-1.02.746-2.549 1.11-3.397.808-.848-.301-1.225-.197-.838.232.387.429-1.638 1.933-4.5 3.341-2.862 1.408-5.551 3.132-5.976 3.83-.425.698-1.358 1.856-2.075 2.572-1.957 1.957-5.874 14.222-4.67 14.624 1.335.445 1.315 2.172-.025 2.172-1.54 0-4.381 3.109-5.754 6.297-1.524 3.541-1.491 4.634.081 2.703 1.695-2.08 3.715-2.315 3.715-.433 0 1.143.575 1.385 2.125.893 1.333-.423 2.445-.168 2.985.683.684 1.08.863 1.024.875-.271.008-.895-.655-2.183-1.474-2.863-.819-.68-1.199-1.704-.845-2.277.373-.604.159-.742-.511-.327-.635.392-1.155.177-1.155-.478 0-.809 1.265-1.021 3.951-.66 2.494.334 4.124.106 4.421-.619.328-.802.494-.774.549.093.043.683 1.542 2.65 3.329 4.372 1.787 1.722 3.138 3.526 3 4.009-.606 2.128 2.056.544 5.503-3.274 2.308-2.557 6.244-5.269 10.247-7.061 3.575-1.6 8.818-4.501 11.652-6.447 4.8-3.296 5.039-3.651 3.5-5.211-1.545-1.565-1.672-1.561-1.966.057-.173.952-1.86 2.29-3.75 2.973-1.89.684-3.436 1.779-3.436 2.435 0 2.168-7.228 3.464-8.434 1.513-.655-1.06 4.102-2.43 5.48-1.579.525.325.954-.594.954-2.042v-2.631l-2.581 2.03c-3.18 2.501-6.41 1.058-6.434-2.876-.012-1.931-.229-2.172-.943-1.043-.742 1.174-1.138.912-1.985-1.315-1.329-3.496-1.334-4.651-.022-4.651.713 0 .714-.601.002-1.931-.773-1.445-.657-2.307.465-3.428 3.025-3.026 1.256-6.647-2.063-4.22m-3.411 11.092c-1.448 2.356-2.353 5.204-2.212 6.964.183 2.288-.035 2.704-.943 1.796-.649-.649-1.143-2.485-1.098-4.081.071-2.475-.434-3.059-3.446-3.983-3.255-.999-3.49-.933-3.023.854.279 1.065.072 1.937-.459 1.937s-.687.45-.347 1c.34.55.156 1-.41 1-.565 0-.768.675-.452 1.5.569 1.481 2.596 2.201 2.112.75-.137-.412.2-.896.75-1.075.55-.179 1.427 1.171 1.948 3 .522 1.829 1.605 3.82 2.407 4.426.808.61 1.416 2.585 1.363 4.431-.168 5.9 3.592 9.43 3.898 3.659.098-1.851.19-1.903.594-.332.406 1.577.77 1.38 2.4-1.299 1.105-1.818 2.394-2.867 3.035-2.47.674.416.919.139.62-.701-.272-.764-.1-2.158.383-3.097.643-1.252.356-1.987-1.077-2.754-1.283-.687-1.811-1.792-1.536-3.218.459-2.385-1.244-5.118-2.648-4.25-1.185.732-1.119-.267.176-2.688 2.268-4.238.47-5.447-2.035-1.369M154 129.5c0 .825.73 1.5 1.622 1.5 1.343 0 1.404.264.354 1.529-1.048 1.263-.914 1.917.769 3.75 1.122 1.222 2.344 3.662 2.716 5.424.823 3.893 4.124 8.297 6.219 8.297.953 0 1.316.568.958 1.5-.316.825-.242 1.5.166 1.5.408 0 3.205 1.622 6.215 3.605 3.011 1.983 6.265 3.757 7.231 3.943.967.186 2.206.616 2.754.954 2.238 1.384 2.973-.727 1.157-3.322-1.032-1.474-1.657-3.305-1.389-4.069.326-.93.062-1.127-.797-.596-.816.505-1.038.396-.608-.299.371-.601-.122-1.557-1.096-2.124-.974-.567-1.208-1.045-.521-1.062 1.21-.029-2.087-4.03-3.321-4.03-.315 0-1.199-.562-1.966-1.25-3.463-3.106-4.476-3.75-5.898-3.75-.835 0-2.256-1.125-3.157-2.5-.901-1.375-2.209-2.5-2.906-2.5-1.065 0-1.731-1.155-2.883-5-.911-3.042-5.619-4.298-5.619-1.5m-30.202 240.625c-.573.354-.82 1.258-.55 2.009.271.751-.124 2.883-.878 4.738-.753 1.855-1.384 6.13-1.402 9.5-.031 6.102-1.478 9.628-3.951 9.628-1.015 0-1.014-.298.003-1.524 1.412-1.701 1.446-1.647-2.02-3.212-2.443-1.103-2.449-1.13-.25-1.196 3.665-.111 2.588-2.525-2.748-6.161-2.749-1.874-4.999-3.73-5-4.126-.001-.395-.673-.461-1.494-.146-.82.315-1.732-.055-2.026-.821-.515-1.343-7.528-2.253-7.286-.945.064.347-.375 1.756-.976 3.131-1.066 2.438-1.095 2.444-1.157.25-.078-2.777-1.541-2.882-3.777-.271-1.255 1.465-1.897 1.66-2.475.75-.546-.859-.785-.703-.796.521-.012 1.356.83 1.753 3.735 1.765 2.433.01 3.281.313 2.416.861-1.072.68-1.02.966.265 1.459.88.338 2.031 1.75 2.559 3.139.729 1.918 1.675 2.526 3.926 2.526 2.928 0 4.902 1.516 3.63 2.788-.36.36-1.015.071-1.455-.641-.633-1.024-1.152-.943-2.48.385-1.193 1.193-1.381 2.04-.649 2.922.74.892.457 1.762-1.001 3.081-1.117 1.011-1.805 2.43-1.528 3.152.277.722.068 1.313-.464 1.313-.533 0-1.001-.788-1.039-1.75-.061-1.512-.175-1.484-.835.204-.45 1.151-.221 3.001.558 4.5.804 1.549.935 2.677.335 2.879-.544.184-.988.773-.988 1.309 0 .537.461.691 1.025.343.563-.349.901-.106.75.539-.37 1.579 9.705 4.152 13.067 3.338 5.347-1.297 14.238-1.54 15.579-.427 1.022.847 1.493.732 1.957-.478.44-1.145 1.248-1.389 2.867-.865 1.24.401 4.28.822 6.755.935 2.475.112 4.5.301 4.5.42 0 .118 1.238.306 2.75.417 1.512.111 2.75-.205 2.75-.703s.563-.446 1.25.116c.688.562 2.486.882 3.996.711 1.51-.171 2.999.099 3.309.601.31.501 1.48.911 2.6.911s3.346.932 4.946 2.072c1.601 1.14 3.617 1.927 4.48 1.75 1.904-.391-1.601-5.133-8.235-11.143l-4.218-3.82-10.314 1.08c-5.673.594-11.101 1.172-12.064 1.285-.963.112-1.75.585-1.75 1.049 0 .465-.453.565-1.007.223-.554-.343-1.251.014-1.55.792-.318.828-1.456 1.244-2.743 1.003-1.21-.227-4.675-.024-7.7.45-3.025.475-6.625.548-8 .161-1.452-.408-1.794-.744-.815-.802.927-.055 2.952-.582 4.5-1.17 1.548-.589 2.99-1.001 3.203-.915.214.086.664-.244 1-.733 1.21-1.758 9.962-3.115 10.531-1.632.903 2.352 2.324 1.456 1.826-1.15-.263-1.375-.763-2.502-1.112-2.504-1.462-.009-1.112-15.289.455-19.827.887-2.568 1.723-5.119 1.859-5.669.635-2.583 2.535-6.371 3.491-6.962.584-.361 1.061-.967 1.059-1.347-.004-.874-9.799-.931-11.199-.066M297.5 395.176c-.55 1.273-2.238 2.904-3.75 3.624-1.512.72-2.75 1.898-2.75 2.619 0 1.317 7.217 4.581 10.13 4.581.859 0 2.883.659 4.497 1.464 3.454 1.723 7.762.991 6.93-1.177-.307-.798-.557-1.639-.557-1.869 0-.23-.689-.418-1.531-.418-.843 0-1.811-.727-2.152-1.615-.491-1.282-1.518-1.492-4.968-1.019-4.799.657-5.539-.292-2.099-2.692l2.25-1.569-2.18-.053c-1.413-.034-2.293-.781-2.5-2.122-.308-1.991-.358-1.981-1.32.246M35.972 410.25c-3.966 4.538-11.207 12.367-16.091 17.398-4.885 5.031-8.881 9.568-8.881 10.081 0 1.814 4.568 3.138 10 2.899 3.049-.134 6.725.352 8.25 1.091 2.407 1.166 2.75 1.134 2.75-.261 0-1.199.556-1.414 2.25-.871 3.525 1.131 11.931.739 12.755-.595.533-.863.939-.891 1.429-.099.432.7 4.697 1.107 11.59 1.107 9.813 0 11.011.197 11.956 1.963.61 1.139 1.665 1.727 2.517 1.4 1.15-.441 1.23-1.005.371-2.609-.998-1.866-.886-1.973 1.269-1.213 4.436 1.564 22.363 1.154 22.363-.511 0-.809-1.068-2.003-2.373-2.654-1.306-.651-3.781-2.791-5.5-4.756-1.72-1.965-5.224-5.051-7.788-6.858-6.23-4.39-4.986-6.762 3.547-6.762h5.665l-1.535-2.969c-.844-1.633-1.701-4.22-1.903-5.75-1.069-8.085-1.672-8.258-28.772-8.272L43.182 402l-7.21 8.25m206.648 80.775c-.859 12.21-.288 20.94 1.444 22.035.996.631 1.053.914.186.925-1.643.02-1.6 2.522.071 4.194 1.498 1.497 1.679 2.017 1.679 4.821 0 1.1.45 2 1 2 1.477 0 1.215-5.139-.511-10.03-.831-2.355-1.309-4.483-1.064-4.729.246-.246.056-1.477-.423-2.736-.566-1.489-.368-3.96.565-7.063 1.85-6.147 1.577-13.042-.624-15.761-1.674-2.067-1.744-1.876-2.323 6.344m201.867 128.996c-.383.62.18 2.106 1.251 3.303 4.598 5.139 7.479 12.057 7.776 18.676.16 3.575.607 8.17.992 10.21.555 2.935.275 4.254-1.343 6.31-2.032 2.583-2.032 2.611-.081 4.562 1.591 1.591 2.356 1.754 4.029.859 4.9-2.623 6.708-2.188 9.535 2.29 3.435 5.441 4.367 3.157 1.017-2.494-4.257-7.182-5.482-8.455-6.557-6.818-.67 1.019-1.115.032-1.58-3.5-.356-2.705-1.295-6.734-2.087-8.952-.791-2.219-1.439-4.658-1.439-5.421 0-1.308-4.528-11.596-7.491-17.02-1.569-2.872-3.035-3.603-4.022-2.005m-10.889 20.821c-.286.462-1.888.76-3.559.66-1.671-.099-3.039.197-3.039.659 0 .461-.595.839-1.322.839-1.19 0-10.678 9.345-10.678 10.517 0 .266.81.483 1.8.483s2.292.492 2.893 1.093c.79.79 1.707.763 3.312-.096 1.22-.653 3.271-.986 4.557-.74 1.332.254 2.547-.099 2.825-.822.521-1.358-2.01-2.786-3.408-1.922-.463.286-1.132.049-1.487-.527-1.103-1.783 7.828-.649 9.947 1.264 2.375 2.144 5.561 2.288 5.561.25 0-.825-.562-1.507-1.25-1.515-.833-.011-.75-.339.25-.985 1.333-.862 1.333-.971 0-.985-1.674-.017-2.167-4.994-.5-5.047.55-.017.219-.624-.734-1.349-.954-.724-1.442-1.61-1.084-1.968.358-.358-.297-.651-1.456-.651-1.16 0-2.342.379-2.628.842M380 643.071c0 1.27-2.5 3.929-3.692 3.929-1.121 0-5.327 9.01-5.317 11.386.008 1.661.325 1.571 2.645-.75 3.232-3.231 4.74-3.385 3.774-.386-.398 1.237-.729 2.793-.734 3.457-.005.664-.656 1.455-1.446 1.758-.791.304-1.185 1.209-.877 2.011.308.803.129 1.726-.397 2.051-2.592 1.602-.623 2.696 4.044 2.247 5.702-.548 6.035-.09 2.405 3.302-4.723 4.411-8.028 10.996-6.069 12.092.915.512 1.664 1.584 1.664 2.382 0 .797.477 1.45 1.059 1.45s.781-.45.441-1-.188-1 .337-1c1.212 0 7.163 6.725 7.163 8.094 0 .563.408.772.906.464.498-.308.692-1.38.43-2.382-.262-1.003.412-3.365 1.499-5.249 1.086-1.885 2.282-5.34 2.658-7.677.376-2.337 1.031-4.25 1.456-4.25.958 0 4.164-11.009 3.512-12.063-.26-.421.092-1.03.783-1.352 1.003-.467 1.004-.703.006-1.168-.687-.321-1.25-1.221-1.25-2 0-2.506-4.198-2.124-8.232.748-2.97 2.115-3.371 1.83-1.733-1.231.743-1.387.713-1.934-.107-1.934-.628 0-.883-.675-.566-1.5.701-1.828-.268-4.676-1.362-4-.435.269-1.043-.169-1.352-.974-.308-.804-.187-1.693.271-1.976 1.403-.867.944-5.55-.544-5.55-.756 0-1.375.482-1.375 1.071m28.305 15.447c-.652.698-.912 1.542-.578 1.875.333.334.194.641-.31.684-.504.042-1.705.227-2.667.411-.962.184-1.75-.075-1.75-.576 0-.502-.675-.912-1.5-.912-3.132 0-1.805 5.79 1.75 7.636 1.788.927 2.713 1.868 2.056 2.09-.656.222-.939 1.066-.629 1.876.706 1.838-2.416 5.435-4.142 4.773-2.782-1.067-2.356 2.597.589 5.076 3.241 2.727 16.732 9.549 18.884 9.549.715 0 3.747 1.158 6.739 2.573 2.992 1.416 5.683 2.33 5.981 2.032.704-.704-1.737-6.605-2.733-6.605-.969 0-2.258-3.954-2.037-6.25.092-.962-.311-1.75-.895-1.75-.585 0-1.056-.788-1.048-1.75.012-1.363.206-1.45.875-.393.608.959.86.597.86-1.232 0-1.424-.394-2.345-.875-2.048-.481.298-.875.064-.875-.518 0-2.291-4.441-5.491-7.217-5.2-3.358.352-3.522-.928-.701-5.491 2.12-3.431 3.575-4.524 2.584-1.941-.301.785.129 1.988.956 2.675 1.298 1.076 1.415.846.857-1.677-1.227-5.553-1.356-5.7-4.456-5.08-1.62.324-3.18.21-3.466-.253-.794-1.284-4.916-1.003-6.252.426M.488 865c0 90.475.118 127.488.262 82.25.144-45.237.144-119.262 0-164.5C.606 737.513.488 774.525.488 865M94.5 808.519c-3.3 1.428-8.385 3.246-11.301 4.039-6.198 1.687-10.325 3.684-12.144 5.876-.715.861-1.844 1.566-2.508 1.566-1.344 0-7.547 8.182-7.547 9.954 0 .621-1.321 3.697-2.936 6.837-3.416 6.642-4.94 13.209-3.066 13.209 2.027 0-.491 11.5-4.378 20-1.251 2.736-2.158 7.048-2.312 11-.14 3.575-1.258 10.016-2.486 14.314-1.922 6.728-2.03 7.942-.777 8.735 2.283 1.444 2.799 1.148 3.139-1.799.4-3.483 2.126-2.677 2.234 1.044.085 2.889-1.717 3.953-5.829 3.443-3.226-.4-5.885 12.215-3.41 16.178.944 1.511.846 2.398-.488 4.435-2.039 3.111-1.248 5.65 1.761 5.65 2.193 0 4.913 2.276 5.668 4.744C48.76 939.838 67.201 959 68.576 959c.709 0 1.587-.939 1.952-2.087l.662-2.086 2.031 2.179c2.071 2.223 3.444 2.28 12.279.504 3.378-.678 6.962 3.552 8.184 9.658.378 1.891 1.373 3.296 2.553 3.604 1.581.414 1.823 1.093 1.328 3.733-1.068 5.693-.024 6.751 5.821 5.902 6.84-.993 14.616-.65 16.264.718 1.489 1.235 3.342.912 11.253-1.96 2.972-1.079 5.794-2.658 6.27-3.51.731-1.306 1.359-1.068 4.009 1.523 2.442 2.387 2.919 3.434 2.139 4.697-1.996 3.229-.357 4.079 3.48 1.806 5.752-3.409 13.618-5.581 15.832-4.372 4.318 2.359 4.491 5.983.367 7.691-2.836 1.175-4.214 4-1.95 4 4.75 0 18.107-14.397 17.078-18.408-.129-.5.128-1.175.569-1.5 1.641-1.209 9.303-10.984 9.303-11.868 0-.504.738-2.395 1.639-4.203 1.422-2.849 1.446-3.394.182-4.101-1.385-.775-1.794-7.435-.586-9.56 1.424-2.505 1.603-6.869.593-14.438-.617-4.632-1.192-9.997-1.276-11.922-.085-1.925-.737-4.564-1.449-5.865-.713-1.301-1.082-3.776-.821-5.5.32-2.113-.463-5.217-2.403-9.523-1.584-3.514-2.879-7.226-2.879-8.25 0-1.195-.716-1.862-2-1.862-1.467 0-2 .667-2 2.5 0 1.375-.492 2.5-1.094 2.5-1.243 0-.296-9.32 1.244-12.25 1.084-2.06 1.33-2.099 4.067-.634 1.786.956 1.992.872 1.435-.581-.359-.934-.652-1.887-.652-2.117 0-.23-.675-.418-1.5-.418-1.93 0-1.919-1.407.023-3.019 1.665-1.382 1.139-4.462-1.155-6.756-.752-.752-1.402-2.573-1.445-4.046-.042-1.474-.232-3.501-.422-4.506-.236-1.246.107-1.654 1.076-1.282.934.358 1.423-.131 1.423-1.422 0-1.083-.525-1.969-1.167-1.969-.641 0-.882-.285-.534-.633 1.365-1.364-4.727-4.702-9.401-5.151-7.166-.688-10.84 3.122-5.4 5.601 4.982 2.27 11.502 9.248 11.502 12.31 0 3.68-.667 3.613-5.322-.53-5.683-5.058-10.374-5.621-13.905-1.669-1.525 1.707-2.773 3.708-2.773 4.447 0 2.699-7.132 16.69-9.12 17.89-2.619 1.581-6.219 8.407-4.873 9.24 1.867 1.154.988 2.382-5.007 6.995-3.3 2.539-6 5.243-6 6.008 0 2.216-6.441 6.525-11.909 7.968-2.762.729-6.146 2.208-7.518 3.288-3.042 2.393-12.301 5.737-19.066 6.887-4.046.688-5.243 1.371-6.305 3.599-1.499 3.144-3.202 3.628-3.202.911 0-2.498-3.834-4.137-6.965-2.978-3.26 1.206-8.503.641-8.66-.933-.069-.687-.188-2.038-.265-3-.119-1.476-.286-1.519-1.072-.278-.819 1.296-.98 1.296-1.343 0-.227-.81-.963-3.181-1.636-5.27-.881-2.736-.921-4.163-.142-5.102.594-.716 1.184-2.555 1.311-4.086.127-1.531.982-3.253 1.901-3.827.92-.574 1.43-1.672 1.135-2.44-.36-.94.068-1.291 1.307-1.072 1.367.241 1.901-.357 2.068-2.313.184-2.163-.125-2.548-1.707-2.134-1.063.278-1.932 1.128-1.932 1.889 0 .76-.265 1.383-.59 1.383-.982 0-4.341-4.413-4.377-5.75-.056-2.105-1.67-1.413-5.398 2.315l-3.564 3.564-.696-2.77c-.64-2.553 2.906-15.373 5.697-20.595.51-.955.928-2.182.928-2.725 0-1.293 10.901-12.398 13.554-13.808 2.677-1.422 4.518-.221 3.81 2.486-.572 2.185-2.902 3.687-4.341 2.797-.438-.27-1.41.262-2.16 1.184-1.19 1.464-1.141 1.593.387 1.021 2.095-.785 2.577 5.054.582 7.049-1.784 1.784-3.867 8.597-2.919 9.545.462.462.427 2.68-.079 4.928-.689 3.068-.595 4.291.374 4.896.954.596 1.373-.167 1.6-2.915.236-2.852 1.282-4.648 4.478-7.685 2.846-2.705 4.079-4.659 3.883-6.156-.318-2.428 3.272-6.39 5.77-6.366 1.276.013 1.309.175.183.889-.758.48-1.066 1.378-.684 1.995.896 1.451 6.562 1.037 6.562-.48 0-.636 1.954-3.128 4.342-5.537 2.388-2.41 5.139-5.619 6.115-7.132.975-1.513 2.262-2.75 2.86-2.75.598 0 2.539-1.406 4.312-3.125 1.96-1.9 4.261-3.125 5.87-3.125 1.889 0 2.913-.702 3.579-2.456 1.245-3.274 3.302-2.421 3.922 1.626l.5 3.262 2.353-2.515c2.167-2.317 2.255-2.81 1.114-6.268-.869-2.633-1.04-7.091-.571-14.928.802-13.414.135-15.649-5.533-18.541-6.627-3.381-14.164-3.526-21.363-.411m56.056 4.505c-7.241 2.827-12.167 9.76-8.056 11.338 2.237.858 1.812 2.455-.75 2.818-1.952.278-2.21.829-1.945 4.162.18 2.267-.333 4.814-1.25 6.215-2.305 3.517-2.067 6.81.445 6.153 1.921-.502 2.178-.23 2.4 2.54.102 1.278 1.557 2.707 2.784 2.735.376.008.826-1.222 1-2.735.226-1.969.955-2.841 2.566-3.07 1.238-.175 2.25-.786 2.25-1.357 0-.57.708-.765 1.574-.433 1.792.687 3.926-1.156 3.926-3.39 0-.825.983-1.932 2.185-2.459 2.283-1.002 4.815-5.149 4.446-7.282-.16-.925.434-.995 2.327-.275 1.955.743 2.542.651 2.542-.402 0-1.811 1.749-2.398 9.52-3.194 6.967-.714 7.592-2.546 1.337-3.919-1.653-.364-4.435-1.905-6.181-3.426-7.284-6.343-12.585-7.352-21.12-4.019M87.54 838.125c.414 1.306.291 1.889-.32 1.511-1.203-.744-3.794 2.124-2.808 3.109.383.383 1.06.11 1.503-.608.64-1.035.928-.988 1.395.228.384 1-.161 1.77-1.567 2.217-1.222.387-2.306.23-2.504-.364-.224-.673-1.398-.746-3.283-.205-3.637 1.043-10.994 7.969-9.206 8.666.688.268 1.25 1.18 1.25 2.027 0 1.174.318 1.275 1.342.425.738-.612 1.638-.818 2-.456.362.362.658.078.658-.631 0-1.009.313-1.029 1.44-.093.793.657 2.255 1.11 3.25 1.007 4.296-.447 5.453.016 4.843 1.938-.987 3.111 4.173 2.257 5.414-.896 2.523-6.409 1.926-12.276-1.06-10.43-.488.301-.887-.154-.887-1.011 0-.857.402-1.559.893-1.559 1.32 0 2.048-2.51 1.422-4.904-.32-1.224-1.359-2.096-2.499-2.096-1.534 0-1.807.454-1.276 2.125M139 850.5c-.685.825-2.042 1.5-3.015 1.5-3.514 0-4.054 6.233-.838 9.656 1.573 1.674 1.864 2.627 1.088 3.565-1.208 1.46-.478 6.779.93 6.779.512 0 1.49-1.237 2.173-2.75 1.841-4.082 5.764-10.25 6.518-10.25.362 0 .495-2.055.295-4.566-.266-3.349-.726-4.427-1.725-4.044-.749.287-1.628.092-1.953-.434-.846-1.369-2.041-1.182-3.473.544m-20 5.5c0 3.267-.476 3.422-6.329 2.064-5.268-1.223-12.591 2.948-12.639 7.2-.018 1.52-.445 3.545-.95 4.5-.505.955-1.907 3.978-3.114 6.718-2.216 5.026-7.988 11.617-11.218 12.809-.963.356-1.75 1.482-1.75 2.503 0 2.183-3.98 6.199-6.642 6.702-1.022.193-2.083.454-2.358.58-.275.126-1.175.273-2 .326-1.03.067-1.596 1.43-1.807 4.348-.415 5.725 2.252 5.738 9.05.046 4.506-3.772 4.946-3.952 4.287-1.75-.403 1.35-2.507 4.212-4.675 6.361-2.736 2.712-3.622 4.226-2.898 4.95.574.574 1.043 1.826 1.043 2.784 0 2.344 1.77 3.295 3.484 1.872.768-.637 2.211-1.025 3.206-.861.996.164 3.047-.784 4.56-2.107C91.022 912.62 91.9 910 89.941 910c-.582 0-.739-.518-.347-1.151.49-.795 1.143-.562 2.102.75.764 1.045 1.837 1.901 2.384 1.901.546 0 1.314.483 1.706 1.073 1.453 2.184 4.398 2.432 7.055.593 1.462-1.012 3.517-2.152 4.566-2.532 1.839-.667 1.83-.765-.25-2.702-2.568-2.393-2.615-2.768-.629-4.963 1.175-1.299 1.297-2.3.525-4.329-.842-2.214-.725-2.651.722-2.707 6.987-.274 10.155-1.564 10.21-4.157.008-.399-1.335-1.423-2.985-2.276-1.65-.853-3-2.231-3-3.061 0-.83-.703-2.582-1.562-3.893-1.442-2.202-1.399-2.702.57-6.562 1.172-2.298 1.864-4.874 1.538-5.726-.327-.851.166-2.387 1.095-3.414 1.647-1.82 1.736-1.816 3.563.145 2.55 2.737 3.199 2.552 4.595-1.31 1.502-4.154 1.527-6.404.076-6.887-.619-.207-1.125-1.594-1.125-3.084 0-1.489-.394-2.708-.875-2.708s-.875 1.35-.875 3m314.69 49.473c-5.067 4.854-5.603 6.728-3.022 10.554l1.847 2.736c.098.145 1.71-.323 3.581-1.039 1.872-.717 5.038-1.285 7.034-1.264l3.631.04-.072-4.75c-.039-2.612-.405-4.75-.813-4.75-.407 0-1.027-.9-1.376-2s-1.414-2-2.367-2c-.953 0-2.188-.455-2.743-1.01-.681-.681-2.542.457-5.7 3.483m-222.978 1.642c-2.933 3.343-3.282 7.219-1.836 20.385l.66 6 2.136-4.661c3.112-6.789 3.61-8.791 2.52-10.137-.632-.781-.601-3.224.09-6.98 1.347-7.324.159-8.857-3.57-4.607" fill="#d3d3d3" fill-rule="evenodd"/></svg>