<svg xmlns="http://www.w3.org/2000/svg" width="500" height="408"><path d="M112.5 10.492c-5.208 1.822-7.822 3.417-10.21 6.228-7.028 8.275-11.712 22.459-9.467 28.667.629 1.74 1.227 5.402 1.329 8.138.15 4.037.719 5.475 3.016 7.626 1.558 1.458 2.832 3.146 2.832 3.75 0 1.599 5.69 1.349 6.314-.277.317-.825 1.462-1.198 2.858-.932 3.309.633 18.855-6.177 21.534-9.433 2.826-3.435 3.418-2.766 2.06 2.324-2.03 7.606 5.653 13.487 11.773 9.012 1.373-1.004 2.07-3.053 2.441-7.176l.52-5.772 3.663 3.427c6.97 6.519 10.256 4.745 12.713-6.862 1.3-6.142-.005-9.458-8.832-22.442-8.114-11.938-13.282-16.239-21.159-17.615-9.545-1.667-13.511-1.419-21.385 1.337M460.462 26.5c-.406 1.1-2.509 6.275-4.675 11.5-2.165 5.225-4.181 10.288-4.479 11.25-1.212 3.916-3.928-.297-6.932-10.75-2.885-10.039-3.893-10.702-5.831-3.836-2.699 9.566-3.125 10.696-4.154 11.039-.542.181-1.796-1.928-2.787-4.685-2.153-5.985-3.115-5.764-4.001.918-1.146 8.636-3.301 7.404-5.658-3.232-1.743-7.869-2.506-7.859-3.962.056-2.017 10.975-3.299 13.372-6.379 11.932-1.477-.691-2.802-2.347-3.155-3.942-.961-4.348-1.78-3.315-4.366 5.505-1.329 4.535-3.016 9.46-3.75 10.945-.733 1.486-1.333 4.041-1.333 5.679s-.671 3.65-1.492 4.47c-.821.821-2.164 4.071-2.985 7.223-1.757 6.746-2.259 7.488-2.906 4.296C389.135 72.634 386.732 63 386.164 63c-.38 0-1.798 1.79-3.15 3.978-3.004 4.859-3.144 4.719-6.496-6.478-3.258-10.887-3.852-11.644-5.316-6.78-6.374 21.172-8.634 27.337-10.75 29.325-3.505 3.293-4.841 1.995-6.883-6.683C351.703 68.427 349.193 62 347.96 62c-.368 0-1.667 3.487-2.887 7.75-2.512 8.773-5.995 18.308-7.178 19.649-.436.494-1.539-.969-2.452-3.25-2.16-5.399-2.78-5.234-4.14 1.101-.963 4.488-4.164 13.954-6.755 19.974-1.273 2.958-3.312-.293-5.092-8.116-.889-3.909-1.959-7.108-2.378-7.108-.819 0-3.078 6.767-3.078 9.22 0 .818-1.979 5.724-4.399 10.901-2.419 5.177-4.927 11.377-5.574 13.778-.646 2.401-1.559 5.094-2.028 5.983-.469.89-1.116 2.457-1.438 3.482-.647 2.06-.683 2.057-12.039-1.301-3.838-1.135-9.527-2.063-12.642-2.063-5.046 0-5.725-.246-6.23-2.259-1.138-4.534-2.689-25.017-2.127-28.086.318-1.735.15-4.955-.372-7.155-.523-2.2-.995-3.213-1.051-2.25-.066 1.162-.921 1.75-2.543 1.75-4.666 0-5.556 3.029-5.571 18.973-.019 21.087 1.941 19.027-18.103 19.027-11.216 0-16.883.355-16.883 1.059 0 .582-.418.801-.928.485-.51-.315-1.199.28-1.53 1.323-.331 1.042-1.468 2.894-2.527 4.115-1.362 1.572-1.772 3.139-1.403 5.369.449 2.714.358 2.891-.66 1.283-1.478-2.335-20.21-11.368-25.227-12.165-3.515-.559-5.552.981-2.26 1.708 5.576 1.23 28.467 13.555 29 15.614.327 1.26 1.03 2.021 1.564 1.691.534-.33.971-.13.971.445 0 1.39-11.809 7.309-13.052 6.541-.535-.331-3.504.848-6.599 2.618-3.094 1.771-6.801 3.378-8.238 3.572-1.436.193-3.961.52-5.611.725-5.052.628-8.5 1.783-8.5 2.848 0 .586-.627.494-1.487-.22-.818-.679-2.185-.967-3.038-.64-.899.345-1.797-.045-2.136-.93-.322-.839-1.354-1.395-2.295-1.235-.94.159-3.247-.489-5.127-1.441-1.879-.951-5.104-2.39-7.167-3.196-5.02-1.964-4.733-3.541 1.5-8.233 2.888-2.174 9.075-6.828 13.75-10.344 4.675-3.515 8.95-6.92 9.5-7.567.55-.647 1.9-1.669 3-2.27 2.666-1.458-.02-1.474-2.816-.016-4.809 2.506-16.653 10.653-24.823 17.073-8.832 6.94-10.861 7.928-10.861 5.288 0-.825-.413-1.5-.918-1.5-.505 0-1.63-.273-2.5-.607-.87-.334-1.582-.139-1.582.433 0 .571.788 1.29 1.75 1.596 1.554.494 1.788 2.396 2.089 16.999.431 20.882.451 20.815-5.999 20.077-3.332-.381-4.79-.226-4.363.465.353.57 2.204 1.037 4.113 1.037 2.246 0 3.687.559 4.081 1.584.489 1.275.772 1.324 1.453.25.516-.815.857 1.001.876 4.666.068 13.185 1.053 30.953 1.755 31.649.41.406.857-6.976.995-16.405.143-9.823.679-17.573 1.256-18.15.941-.941 9.147.665 25.494 4.992 2.75.727 8.15 2.066 12 2.974 32.633 7.7 55.677 20.863 61.022 34.857.971 2.545 1.566 4.829 1.32 5.074-.84.84-6.339.707-14.342-.347-4.4-.579-12.275-1.016-17.5-.971-6.36.056-15.615-.948-28-3.036-10.175-1.715-23.37-3.792-29.322-4.614-5.953-.822-11.24-1.752-11.75-2.068-.511-.315-.928.143-.928 1.017 0 1.874-.599 1.688 14 4.343 19.458 3.537 23.052 4.046 37 5.234 7.425.633 13.725 1.5 14 1.927.275.426 5 1.031 10.5 1.342 9.203.521 24.18 3.029 25.405 4.254 3.509 3.509-4.21 39.325-11.422 52.995-1.76 3.337-3.975 8.399-4.922 11.25-.947 2.851-2.136 5.183-2.641 5.183-.506 0-.92.936-.92 2.079 0 1.78-.423 1.987-2.93 1.436-2.383-.523-3.155-.224-4.129 1.595l-1.198 2.239-1.232-2.924c-.678-1.609-.979-3.367-.669-3.907.526-.918.703-1.694 1.256-5.518.488-3.371-.15-7.086-1.114-6.49-.559.346-.758 1.047-.441 1.559.316.512-.077.931-.873.931s-1.385.739-1.309 1.642c.076.904-.471 1.857-1.216 2.119-.976.342-1.171-.104-.698-1.594 1.289-4.061.85-18.364-.591-19.277-1.105-.701-1.079-.865.144-.89.883-.018 1.089-.333.5-.765-.55-.404-1.054-3.885-1.121-7.735-.231-13.398-2.431-23.652-4.394-20.476-.615.995-1.459 1.044-3.643.211-5.545-2.114-10.342-2.476-10.342-.78 0 .93-.895 1.552-2.25 1.562-5.13.04-20.999 2.043-22.563 2.849-2.029 1.046-36.865 3.384-47.687 3.201-37.749-.639-45.512-2.365-52.5-11.675-1.925-2.565-4.288-5.378-5.25-6.25-.963-.873-1.75-2.057-1.75-2.632 0-.575-1.126-2.702-2.501-4.727-2.586-3.805-2.811-7.354-.555-8.748 1.006-.622.905-1.02-.45-1.778-1.556-.871-1.479-1.044.709-1.593 1.35-.339 2.972-1.752 3.604-3.14 1.061-2.329.959-2.524-1.328-2.524-1.364 0-2.479-.432-2.479-.961 0-1.237 3.884-4.862 5.926-5.532 5.164-1.692 8.867-14.871 7.11-25.309-.62-3.684-1.202-7.699-1.293-8.922-.09-1.223-.687-2.424-1.325-2.669-.638-.245-1.461-1.642-1.828-3.104-.928-3.698-10.329-12.655-17.338-16.52-2.164-1.193-2.821-2.367-3.075-5.486-.373-4.588-2.241-6.4-3.58-3.472-.496 1.086-1.31 1.975-1.809 1.975-.498 0-.628.45-.288 1s.141 1-.441 1c-.593 0-1.059 2.04-1.059 4.636v4.636l-4.25-.644c-2.337-.355-7.85-1.307-12.25-2.117-10.738-1.975-11.78-1.908-14.885.97l-2.676 2.48 2.416 6.77c1.329 3.723 4.268 11.199 6.531 16.614C17.149 200.76 19 206.078 19 207.161c0 1.084.502 2.908 1.115 4.053 1.1 2.057 1.016 2.073-6.75 1.287-4.326-.438-8.824-.842-9.996-.898l-2.131-.103-.681 98.252-.681 98.252 250.312-.252L500.5 407.5v-43c0-23.65-.165-67.075-.366-96.5-.201-29.425-.328-55.647-.283-58.272.046-2.624-.399-5.999-.987-7.5l-1.07-2.728-.907 2.364c-1.398 3.643-3.58 1.041-4.326-5.159-1.17-9.719-1.114-14.005.189-14.447.725-.246 1.25.416 1.25 1.575 0 1.1-.562 2.197-1.25 2.438-.913.319-.772.976.524 2.438.976 1.101 1.512 2.684 1.193 3.517-.568 1.479 2.297 5.344 3.252 4.388 1.213-1.213.318-7.916-1.295-9.698-1.291-1.426-1.476-2.264-.679-3.061.605-.605.883-1.66.62-2.345-.263-.686.432-1.485 1.545-1.776 2.002-.524 2.02-1.077 1.806-54.382L499.5 71.5l-2.593-5c-1.426-2.75-3.89-8.825-5.474-13.5-1.585-4.675-3.787-10.067-4.893-11.982l-2.012-3.483-.755 3.983a190.823 190.823 0 0 0-1.348 8.391c-.325 2.425-1.454 6.018-2.508 7.985-1.054 1.967-1.917 4.315-1.917 5.219 0 .903-.675 2.202-1.5 2.887-1.124.933-1.5.948-1.5.058 0-.652-1.165-3.733-2.589-6.846-1.423-3.112-4.084-11.071-5.911-17.685-4.45-16.105-5.07-17.649-6.038-15.027M52.72 183.963c-.283 1.08.115 2.485.883 3.123 1.83 1.518 1.78 2.914-.103 2.914-.825 0-1.5.436-1.5.969 0 .532-.603.737-1.34.454-.737-.283-1.873.129-2.525.915-.934 1.124-.861 1.553.339 2.014 2.366.908 1.786 4.02-.989 5.307-2.161 1.003-2.712.868-4.074-1-1.501-2.058-1.555-1.937-1.143 2.591.257 2.834.021 4.75-.585 4.75-.559 0-.72.296-.358.658.362.362.197 1.213-.366 1.891-1.27 1.531-5.68-.249-6.314-2.549-.231-.841-.464-.512-.529.75-.064 1.238-.518 2.25-1.009 2.25-1.199 0-2.165 2.684-1.547 4.296.316.823 1.721 1.153 3.855.904 1.846-.216 4.309.117 5.471.739 1.998 1.069 2.115.897 2.129-3.154.032-8.932 3.87-8.295 4.855.805.557 5.153.918 5.892 3.13 6.415 1.86.441 2.756.087 3.5-1.38.55-1.084 2.309-2.695 3.909-3.579 1.6-.885 3.015-2.269 3.145-3.077.13-.808.354-1.919.5-2.469.145-.55-.068-1.752-.472-2.672-.405-.919-.199-2.675.457-3.901 1.027-1.919.968-2.144-.423-1.61-.889.341-1.616.222-1.616-.265s.563-1.112 1.25-1.39c1-.403 1-.52 0-.583-.687-.043-1.25-.942-1.25-1.996s-.562-2.171-1.25-2.482c-.687-.311-.37-.459.706-.328 1.156.14 2.198 1.258 2.546 2.732.42 1.776.755 2.062 1.163.995.94-2.464-.951-6.296-2.764-5.6-1.047.401-1.759-.055-2.096-1.342-.281-1.073-1.252-2.148-2.158-2.388-1.116-.297-.922-.475.603-.554 1.385-.071 2.25.461 2.25 1.384 0 .825.687 1.5 1.526 1.5 1.362 0 1.359-.322-.026-3-.853-1.65-2.215-3-3.026-3-.811 0-1.474-.45-1.474-1 0-1.838-2.76-1.027-3.28.963m56.707 31.135c-1.06 1.181-4.226 3.449-7.037 5.041-2.81 1.591-5.917 3.786-6.905 4.877-1.761 1.946-1.721 1.984 2.11 1.999 2.973.012 3.547.259 2.405 1.037-1.152.785-.803.955 1.5.735 2.241-.214 3.081-.856 3.32-2.537.332-2.343 2.175-3.186 2.186-1 .004.688.708-.1 1.567-1.75.858-1.65 2.347-3.9 3.309-5 1.94-2.218 2.194-4.641.545-5.191-.59-.197-1.94.608-3 1.789" fill="#d3d3d3" fill-rule="evenodd"/></svg>