<svg xmlns="http://www.w3.org/2000/svg" width="500" height="640"><path d="M267.599 1.604c-.352.915-1.256 1.358-2.107 1.031-.924-.354-1.492.013-1.492.964 0 1.026.6 1.345 1.805.963 2.362-.75 6.195 2.83 6.195 5.786 0 2.518-1.706 5.094-4 6.042-.825.34-.262.455 1.25.253 1.512-.201 2.75.062 2.75.585 0 1.606-4.374 4.704-6.691 4.739-2.49.038-3.966-1.566-2.065-2.245.691-.246.94-.788.554-1.204-.387-.416-1.391-.068-2.233.774-.867.867-2.512 1.32-3.797 1.045-2.202-.471-2.212-.44-.341 1.078 2.108 1.711 2.082 1.789-1.14 3.465-1.283.667-1.985 1.743-1.671 2.561.373.973-.337 1.512-2.287 1.735-3.357.384-4.735 5.458-1.911 7.038 2.265 1.268 1.956 3.117-.418 2.496-1.312-.343-2-.03-2 .909 0 .79-1.343 1.7-3 2.031-1.65.33-3 1.227-3 1.994 0 1.008.732 1.21 2.644.73 2.435-.611 2.604-.454 2.139 1.981-.346 1.812-.077 2.645.856 2.645.748 0 1.361.628 1.361 1.395 0 1.099-.793 1.21-3.75.524-5.039-1.171-5.25-1.147-5.25.581 0 .825.675 1.5 1.5 1.5 2.116 0 1.878 1.983-.25 2.079-.963.043-1.269.279-.682.523 1.07.444 1.046 8.596-.031 10.338-.313.507-.112 1.204.447 1.55 1.499.927 1.258 8.203-.291 8.798-1.851.71-1.543 10.562.367 11.77 1.518.961 1.12 1.136-3.292 1.449-2.437.173-2.677-.086-2.229-2.406l.503-2.601-1.252 2.5c-.689 1.375-1.88 2.986-2.648 3.579-2.362 1.827.296 5.6 3.398 4.822 1.384-.348 2.46-.181 2.46.381 0 .55-1.575 1.183-3.5 1.408-1.925.225-3.5.049-3.5-.391 0-.439-.45-.799-1-.799s-1.014 1.013-1.032 2.25c-.049 3.509-2.761 6.645-4.102 4.745-.883-1.252-.963-1.211-.492.255.357 1.109.043 1.75-.856 1.75-.78 0-1.877.787-2.438 1.75-.971 1.667-1.021 1.667-1.05 0-.046-2.648-3.493-2.122-5.041.77-1 1.87-1.058 2.811-.221 3.648.836.836.474 1.64-1.402 3.116-1.622 1.276-2.353 2.656-2.041 3.852.268 1.025.149 1.864-.266 1.864-.414 0-1.191.981-1.726 2.18l-.973 2.18-2.18-2.18c-2.682-2.682-2.815-2.685-3.496-.079-.303 1.16-1.028 1.804-1.619 1.439-.731-.452-.753-1.255-.068-2.535.552-1.03 1.003-2.137 1.003-2.459 0-.663-4.478.013-5.898.891-.512.317-1.109.042-1.327-.611-.549-1.647-3.775-.244-3.775 1.643 0 .957.916 1.531 2.441 1.531 2.609 0 4.699 2.12 2.736 2.774-2.129.71-1.228 2.226 1.323 2.226 2.111 0 2.5.467 2.5 3 0 1.881-.514 3-1.378 3-3.199 0-3.605 2.579-.678 4.308 2.081 1.229 2.725 2.243 2.345 3.695-.421 1.608.091 2.123 2.61 2.627 4.179.836 2.237 3.669-2.051 2.993-1.757-.277-2.846-.003-2.843.714.007 1.661 9.131 2.052 10.157.435.494-.778.813.185.823 2.478.008 2.063.465 3.75 1.015 3.75.55 0 1-1.388 1-3.083 0-2.036.425-2.933 1.25-2.641.688.243 1.165 1.631 1.062 3.083-.226 3.169.123 3.245 2.924.635 1.443-1.344 2.484-1.674 3.158-1 .554.554 2.884 1.006 5.18 1.006s6.144.696 8.55 1.548c2.407.851 5.143 1.348 6.08 1.105 1.404-.364 1.62.112 1.231 2.703-.371 2.465-.276 2.712.439 1.144.857-1.88.955-1.892 1.648-.193.405.995 1.353 1.571 2.107 1.282 1.412-.542 1.968 1.924.621 2.757-.909.561-.838 6.399.089 7.326.364.364.661 2.114.661 3.89 0 3.061-.217 3.249-4.198 3.628-2.309.22-6.246.155-8.75-.145-2.504-.3-6.802-.308-9.552-.017l-5 .527 5.5.791c5.731.823 15 3.471 15 4.284 0 1.705-3.314 6.37-4.526 6.37-.811 0-1.474.477-1.474 1.059s-.453.779-1.007.437c-.554-.343-1.229.081-1.5.941-.271.859-.786 2.35-1.144 3.313-.89 2.392-1.445 4.509-1.574 6-.06.688-.933 1.25-1.942 1.25-1.008 0-1.833.424-1.833.943 0 1.752 7.285.595 7.936-1.261 1.196-3.41 4.015.434 5.179 7.062.603 3.434 1.444 6.028 1.869 5.766.959-.593 2.016 4.451 2.016 9.615 0 2.131.45 3.875 1 3.875s1-1.152 1-2.559c0-1.514.424-2.297 1.038-1.917.593.366.838 2.641.571 5.309-1.407 14.039-1.95 17.233-2.722 15.991-.496-.799-.778.459-.711 3.176.061 2.475-.144 5.4-.456 6.5-.312 1.1-.601 2.337-.643 2.75-.134 1.31-1.631.814-3.888-1.289-2.013-1.875-2.654-1.773-2.283.363.079.454-.318.54-.881.191-.598-.369-1.025.433-1.025 1.926 0 1.532.564 2.559 1.406 2.559.951 0 1.223.703.84 2.169-.45 1.72-.224 2.037 1.093 1.531.914-.35 1.661-.201 1.661.331 0 .533-.45.969-1 .969s-1 2.052-1 4.559.409 4.306.91 3.997c3.536-2.186 5.606 7.258 3.384 15.444-.615 2.267-.791 2.081-1.888-2-.922-3.431-1.233-3.866-1.308-1.833-.054 1.466-.581 2.827-1.171 3.024-.609.203-1.199 3.803-1.366 8.333-.36 9.775-.77 10.792-5.013 12.457-3.064 1.202-4.032 4.019-1.382 4.019.524 0 .627-.526.229-1.17-.493-.798-.168-.957 1.023-.5.96.369 2.046.671 2.414.671.367.001-.592 1.085-2.133 2.41-1.669 1.436-2.376 2.671-1.75 3.058.578.357 1.051 1.608 1.051 2.781 0 2.092.028 2.096 1.516.191 1.4-1.794 1.478-1.58 1.02 2.809-.289 2.771-.087 4.75.484 4.75.539 0 1.049-1.462 1.132-3.25.084-1.788.257-3.7.385-4.25.128-.55.284-1.779.348-2.731.063-.952 1.202-2.004 2.53-2.337 1.45-.364 2.933-1.858 3.712-3.738l1.297-3.133.688 2.47c.379 1.358.793 1.794.92.969.127-.825.531.075.898 2l.666 3.5 1.202-5.299c.661-2.915 1.202-7.212 1.202-9.55 0-3.949 1.3-6.651 3.2-6.651 1.423 0 .847 2.768-.7 3.362-.825.316-1.5 1.066-1.5 1.666 0 .599.45.812 1 .472.55-.34 1-.141 1 .441s.675 1.059 1.5 1.059c.941 0 1.544 1.025 1.618 2.75l.119 2.75.724-3c1.017-4.209 2.501-.732 1.726 4.044-.678 4.174-.25 4.342 1.798.706 1.501-2.665 1.53-2.572.917 3-.433 3.941-.282 5.75.483 5.75.637 0 1.115-1.74 1.115-4.059 0-2.957.339-3.867 1.25-3.353 1 .564 1 .436 0-.641-1.506-1.622-1.618-2.947-.25-2.947.55 0 1.032.788 1.07 1.75.06 1.496.195 1.46.93-.25.473-1.1.905-1.55.96-1 .357 3.543 1.688-3.032 1.519-7.5-.329-8.65-.264-8.424-2.003-6.98-.838.696-1.835.954-2.215.575-.937-.937 1.279-4.158 2.646-3.845 1.656.379 1.309-.865-.657-2.358-1.619-1.229-1.58-1.331.519-1.36 1.916-.027 2.172-.421 1.642-2.532-.387-1.54-.202-2.5.481-2.5.609 0 1.108-.675 1.108-1.5 0-2.078 1.626-1.874 4 .5 1.1 1.1 2 1.55 2 1s.419-1 .93-1c1.369 0 1.746 3.985.765 8.091-.959 4.016.771 12.357 2.359 11.375.529-.326 1.665.11 2.525.97 1.418 1.419 1.72 1.408 3.242-.115 1.744-1.743 1.847-2.011 2.054-5.321.148-2.367 2.125-2.732 2.125-.393 0 1.018.55 1.396 1.5 1.031 1.02-.391 1.5.054 1.5 1.393 0 2.639 1.295 2.494 2.513-.281.543-1.238 1.999-2.694 3.237-3.237 1.238-.543 2.25-1.556 2.25-2.25 0-.695.45-1.263 1-1.263s1 .708 1 1.573c0 .978.663 1.429 1.75 1.191.962-.211 1.637-.919 1.5-1.573-.138-.655.2-1.191.75-1.191s1-.9 1-2c0-1.348.667-2 2.045-2 1.766 0 1.962-.445 1.438-3.25-.334-1.788-.735-4.418-.891-5.846-.156-1.427-.661-3.207-1.123-3.954-.462-.748-.97-2.547-1.129-3.999-.159-1.451-.722-3.722-1.251-5.045-.956-2.39-.963-2.391-1.026-.156-.034 1.238-.513 2.25-1.063 2.25-.55 0-1.053 1.462-1.118 3.25-.108 2.95-.177 3.019-.751.75-.347-1.375-1.475-4.049-2.507-5.943-1.539-2.826-1.762-4.665-1.243-10.25.629-6.767.618-6.807-1.874-6.807-1.84 0-2.507-.532-2.507-2 0-1.1.45-2 1-2s1 .505 1 1.122c0 .786.442.756 1.471-.098.809-.671 1.412-1.964 1.341-2.872-.361-4.618.093-5.544 1.938-3.948 4.498 3.891 8.535 1.978 4.721-2.236-.842-.93-1.629-3.107-1.75-4.839-.284-4.047-5.449-6.367-7.818-3.512-.652.786-1.984 1.175-2.96.865-.976-.31-2.064-.095-2.418.477-.354.573-.166 1.041.416 1.041s1.023.787.98 1.75c-.048 1.056-.28 1.252-.585.494-.714-1.771-2.336-.511-2.336 1.815 0 1.308-.688 1.941-2.108 1.941-1.767 0-2.004.418-1.462 2.576.495 1.974.108 3-1.658 4.389-2.062 1.621-2.278 2.538-2.046 8.674.251 6.665-1.061 12.361-2.847 12.361-.784 0-1.482-9.975-.876-12.5 1.26-5.241 1.272-5.156-.418-3.073-.861 1.06-1.824 1.668-2.141 1.351-.317-.317.455-1.538 1.716-2.712 2.228-2.076 2.236-2.15.297-2.657-1.532-.4-2.017-1.415-2.095-4.377-.136-5.208-1.175-9.032-2.452-9.032-1.85 0-3.417-2.409-3.578-5.5-.227-4.371 1.175-5.514 6.011-4.902 2.286.29 5.507.628 7.157.751 1.65.124 4.037.584 5.305 1.023 1.267.439 6.442.853 11.5.921 5.065.068 9.54.592 9.963 1.165.495.671 1.128.434 1.777-.666.56-.95 1.668-1.456 2.494-1.139.818.314 2.047.106 2.732-.463.685-.569 4.167-1.303 7.737-1.632 3.571-.329 6.642-1.038 6.825-1.576.183-.538 1.407-.709 2.72-.379 1.565.392 2.982.005 4.111-1.125 1.632-1.631 1.764-1.623 2.472.149.693 1.737.796 1.71 1.419-.366.37-1.231 1.141-1.949 1.713-1.595.604.373.742.159.327-.511-.392-.635-.236-1.155.346-1.155s1.059-.73 1.059-1.622c0-1.284-.295-1.378-1.411-.452-1.868 1.551-2.831-.097-1.756-3.005.551-1.488 1.085-1.862 1.561-1.092 1.243 2.01 2.782 1.3 2.066-.954-.415-1.308-.292-1.889.321-1.51.549.339 1.194-.745 1.44-2.419.245-1.669.071-3.266-.388-3.549-.458-.283-.833.262-.833 1.211 0 .949-.247 1.479-.548 1.177-.302-.302-.691-4.583-.865-9.515l-.316-8.966 3.293-1.191c2.372-.858 3.47-1.991 3.922-4.048.345-1.572 1.502-3.649 2.571-4.616 1.069-.968 1.943-2.229 1.943-2.804 0-.641-.464-.581-1.2.155-1.596 1.596-2.8 1.519-2.8-.178 0-2.365 2.776-4.053 4.422-2.687 1.73 1.436 5.537-.536 5.648-2.926.049-1.04.359-.887.997.491.657 1.42.769.694.384-2.5-.463-3.844-.349-4.261.782-2.862 1.201 1.486 1.597 1.365 4.27-1.308 2.073-2.073 3.547-2.767 4.972-2.343 5.97 1.777 9.525 1.639 9.525-.37 0-3.38 2.74-5.117 8.071-5.117 4.695 0 4.932.131 4.992 2.75l.064 2.75.958-2.395c1.254-3.134 1.799-2.432 2.283 2.938.266 2.955 1.004 4.744 2.241 5.432 2.657 1.476 4.246 3.74 3.673 5.233-.273.711-.07 1.292.451 1.292s1.534-1.779 2.251-3.953c1.344-4.07 6.183-7.204 7.595-4.919.343.555 1.253.767 2.022.472.77-.296 1.413.011 1.431.681.017.671.671.375 1.452-.656.99-1.308 1.964-1.635 3.218-1.079 3.145 1.393 7.052 1.456 8.152.129.64-.771 2.479-1.118 4.606-.869 3.613.421 4.959 2.13 1.79 2.273-1.045.047-1.247.282-.5.583.688.278 1.25 1.337 1.25 2.354 0 1.017.899 2.135 1.998 2.483 1.098.349 2.23 1.617 2.514 2.818 2.223 9.399 2.812 13.002 3.052 18.683.451 10.689 1.034 17.04 2.386 26 1.488 9.865 1.667 16.507.536 19.906-.574 1.724-.473 2.204.356 1.691.637-.393 1.158-.238 1.158.344s-.508 1.059-1.129 1.059c-.793 0-.963 2.5-.571 8.404.307 4.623.299 8.664-.017 8.98-.722.721-1.297 5.556-1.473 12.366-.075 2.887-.4 5.252-.723 5.255-.686.005-1.584 11.978-1.515 20.187.027 3.13-.316 5.466-.762 5.191-.445-.276-.774 1.213-.731 3.308.043 2.095.336 3.134.649 2.309 1.039-2.731 4.267-6.35 4.358-4.885.048.762.16 2.843.25 4.624.3 5.938 2.15 3.434 3.288-4.452.618-4.283 1.233-6.662 1.366-5.287.132 1.375.301 3.174.375 3.997.074.824.81 1.511 1.635 1.527.948.019 1.412.847 1.262 2.253-.151 1.408.307 2.223 1.25 2.223.818 0 1.488.713 1.488 1.583 0 .871 1.575 3.113 3.5 4.983 1.925 1.869 3.5 3.043 3.5 2.607 0-.435.651-1.664 1.446-2.732 1.384-1.859 1.494-1.804 2.597 1.308.634 1.787 1.582 2.983 2.107 2.658.526-.325.778-1.112.561-1.749-.714-2.093 1.473-8.098 3.453-9.485 1.067-.748 1.753-1.88 1.523-2.516-.823-2.284 1.36-4.657 4.285-4.657 2.542 0 2.94.402 3.215 3.25.254 2.64.735 3.235 2.563 3.171 1.238-.044 2.25.231 2.25.611s1.173.466 2.606.192c1.453-.277 2.932.028 3.341.69.566.916 1.344.911 3.394-.023 2.869-1.308 3.605-5.256 1.656-8.896-.67-1.252-.67-2.079 0-2.493.663-.41 1.003-50.087 1.003-146.573V-.024L396.6.014c-102.226.038-103.393.06-102.886 2 .578 2.211-1.732 3.577-4.35 2.572-1.491-.572-1.477-.803.155-2.607C291.276.037 291.232 0 287.155 0c-2.632 0-4.063.426-3.905 1.161.137.639-1.663 1.736-4 2.437-3.491 1.047-4.25 1.04-4.25-.039 0-2.701-2.809-3.87-3.287-1.367l-.441 2.308-.136-2.25c-.156-2.584-2.621-3.035-3.537-.646M316 11.5c0 3.111-1.759 3.259-2.969.25l-.904-2.25-.064 2.191c-.034 1.205-.571 2.505-1.191 2.888-.772.477-.614.986.5 1.609 2.042 1.143 2.118 2.812.128 2.812-.825 0-1.5-.482-1.5-1.071 0-2.784-2.731-3.95-5.664-2.421-1.615.843-2.19 1.532-1.336 1.601.825.067 2.175.182 3 .256.897.081 1.5 1.139 1.5 2.635 0 1.375.327 3.002.726 3.616.4.614-.123 1.885-1.161 2.825-1.301 1.177-1.801 2.789-1.611 5.186.242 3.048-.109 3.646-2.839 4.844l-3.115 1.366 3.191.081c1.755.045 3.47-.37 3.811-.922.341-.552 1.718-.728 3.059-.391 1.487.373 2.439.179 2.439-.497 0-.609.506-.995 1.125-.858 1.682.374 2.262-2.164.637-2.788-1.516-.582-1.241-6.048.353-7.033.487-.301.885-1.42.885-2.488 0-1.513.699-1.941 3.167-1.941 1.741 0 2.865-.301 2.497-.669-.367-.368.077-1.493.989-2.5 1.474-1.628 1.483-1.831.085-1.831-.864 0-1.757.558-1.985 1.241-.293.878-.954.7-2.264-.609-1.714-1.714-1.726-1.92-.17-2.791C319.404 12.674 319.541 9 317.5 9c-.933 0-1.5.944-1.5 2.5M74.772 168.25c-.815 2.01-4.38 2.362-5.065.5-.253-.687-.779-.054-1.169 1.407-.391 1.467-.222 3.565.377 4.684.597 1.115 1.085 3.182 1.085 4.593S70.45 182 71 182s1 .81 1 1.8.384 2.228.853 2.75c2.559 2.852 3.323 10.076 1.43 13.525-1.841 3.354-1.999 7.486-.245 6.402.487-.302 1.313.93 1.834 2.737l.948 3.286.16-3c.14-2.607.273-2.738 1.02-1 1.435 3.34 1.113 4.434-1.5 5.089-1.375.345-2.5 1.104-2.5 1.686 0 .582-.263.795-.585.473-.831-.83-6.415 1.254-6.415 2.395 0 .549 1.539.659 3.661.261 3.199-.6 3.578-.47 3 1.036-.363.948-.661 2.388-.661 3.201 0 .812-.45 1.199-1 .859-.55-.34-1-.141-1 .441s-.787 1.074-1.75 1.092c-3.083.059-5.865 3.226-5.68 6.467.095 1.65.23 4.238.301 5.75.071 1.512.579 2.75 1.129 2.75s.947-.338.882-.75c-.522-3.302 3.81-6.081 6.837-4.387.976.546 2.517.377 4.109-.449 3.181-1.65 5.789 1.119 4.565 4.846-.405 1.232-.647 3.536-.538 5.121.284 4.159-.706 6.613-2.406 5.961-.957-.367-1.449.1-1.449 1.377 0 1.063-1.125 2.989-2.5 4.281-1.496 1.405-2.5 3.458-2.5 5.109 0 1.519-.522 4.028-1.16 5.576l-1.159 2.815-.612-3c-.369-1.808-.902-2.539-1.343-1.84-.403.638-.458 1.875-.122 2.75.335.874.149 1.59-.414 1.59s-1.25-.562-1.528-1.25c-.314-.78-.534-.623-.583.417-.043.916.431 1.836 1.054 2.044 1.381.46 1.449 4.609.185 11.31-.607 3.219-.59 7.605.048 12.219.98 7.089.955 7.234-1.686 9.681-1.474 1.366-2.68 2.917-2.68 3.448 0 .53-.506 1.133-1.125 1.339-.619.207-1.125 1.603-1.125 3.102 0 2.347-.218 2.551-1.562 1.459-1.321-1.073-1.463-1.002-.917.454.835 2.229-2.675 4.753-6.744 4.847-2.596.061-2.742.193-1.027.93 1.1.473 1.55.897 1 .943-.55.047-2.083.374-3.406.728-1.55.415-2.178.274-1.764-.396.394-.637-.48-.994-2.257-.922-1.595.065-2.687.463-2.427.883.827 1.339-.445.822-2.134-.867-1.508-1.508-1.673-1.468-2.195.528-.568 2.169-2.344 2.192-6.264.082-.796-.429-2.522-.371-3.834.128-1.313.499-2.761.676-3.218.394-.456-.282-1.283.727-1.837 2.243-.703 1.927-1.03 2.197-1.085.899-.052-1.225-.589-1.661-1.579-1.281-.939.36-1.5-.009-1.5-.986 0-1.021-1.756.018-5.073 3-3.017 2.712-6.462 4.821-8.5 5.204L0 330.223v18.888C0 364.052.275 368 1.315 368c.723 0 2.073 1.59 3 3.534 2.032 4.262 2.111 5.466.356 5.466-.736 0-1.294-1.005-1.25-2.25.048-1.36-.509-2.25-1.407-2.25-1.942 0-2.601 3.517-.862 4.6 1.093.68 1.111 1.221.098 2.856-1.733 2.796-1.682 69.99.056 74.946.902 2.572 2.415 4.021 6.194 5.931 7.175 3.629 7.534 3.746 12.498 4.066 2.474.159 4.837.499 5.25.754.414.256.752-.023.752-.62 0-1.517 12.091-.961 12.683.583.491 1.279 2.066 1.297 4.067.047.799-.5 1.25-.219 1.25.778 0 2.083 1.957 1.979 3.621-.191.912-1.191 1.587-1.399 2.11-.651.423.604 4.046 1.396 8.051 1.76 4.095.372 9.299 1.609 11.89 2.827l4.608 2.166 4.11-4.55c5.519-6.11 13.563-8.707 16.835-5.434 2.898 2.898 5.775 2.997 5.775.199 0-1.412.527-2.567 1.171-2.567s1.882-.634 2.75-1.409c2.204-1.967 7.107-2.244 10.079-.57 2.375 1.338 5.409 1.899 11 2.035 1.375.033 4.915.948 7.868 2.032 2.952 1.085 6.151 1.723 7.109 1.419 1.972-.625 4.532 1.861 3.55 3.449-.355.574.071 1.044.945 1.044.875 0 1.834.634 2.132 1.41.297.775 1.521 1.658 2.718 1.961 1.402.355 3.006 2.366 4.502 5.643 1.427 3.127 3.229 5.436 4.671 5.984 1.704.648 2.203 1.443 1.821 2.902-.539 2.061 2.523 3.619 5.724 2.912 1.004-.222 1.412.696 1.415 3.188.004 2.775.627 3.914 3.005 5.5 3.563 2.375 10.94 4.639 14.79 4.539 1.822-.047 2.75.441 2.75 1.445 0 .834.845 1.516 1.878 1.516 1.032 0 2.437.675 3.122 1.5 1.595 1.922 3 1.922 3 0 0-.825.257-1.5.571-1.5.982 0 3.429 2.804 3.429 3.929 0 .589.702 1.071 1.559 1.071s1.312.399 1.011.887c-.301.487.137 1.455.975 2.15 1.644 1.365 18.972-1.843 24.705-4.574 1.512-.72 2.75-.936 2.75-.48 0 .456 1.575.346 3.5-.244 1.925-.591 3.5-1.674 3.5-2.407 0-.733.338-1.332.75-1.332s.705-4.178.65-9.286c-.11-10.161-1.463-14.359-4.227-13.117-.92.414-4.148.863-7.173.997-3.025.135-6.266.546-7.202.914-.936.368-2.151.392-2.7.053-.549-.34-1.486.296-2.083 1.411-.597 1.115-1.88 2.028-2.85 2.028-.971 0-2.266.501-2.878 1.113-2.182 2.182-3.349-.162-2.921-5.866.369-4.913.691-5.622 2.619-5.764 1.391-.103 2.508.605 3.043 1.927.465 1.15.881 1.64.924 1.09.043-.55.515-.325 1.048.5.795 1.23.972 1.121.985-.604.008-1.157 1.134-3.311 2.501-4.787 2.011-2.169 2.202-2.791 1-3.253-2.233-.857-1.886-3.694.38-3.101 1.704.445 1.869-.202 1.898-7.448.017-4.365.302-8.207.634-8.538.331-.331.602 1.524.602 4.123 0 3.093.369 4.498 1.067 4.067 1.283-.793 3.381 1.708 5.696 6.791.94 2.063 2.071 3.75 2.513 3.75 2.005 0 6.724 4.573 6.724 6.515 0 1.784.474 2.069 2.859 1.719 2.288-.336 2.974.018 3.433 1.774.372 1.422 1.009 1.924 1.811 1.429.866-.536 1.043-.259.59.922-.757 1.971 2.816 6.043 4.676 5.33 1.686-.647 4.321 1.465 4.777 3.828.208 1.082 1.61 2.558 3.116 3.28 1.508.722 2.738 2.134 2.738 3.141 0 1.042.968 2.101 2.25 2.462 1.946.547 2.048.799.75 1.866-1.962 1.614-1.505 8.734.56 8.734.792 0 1.44-.858 1.44-1.906 0-1.674.303-1.765 2.492-.75 2.613 1.212 3.338 2.656 1.334 2.656-1.709 0 2.991 4.719 5.301 5.323 1.6.418 1.837.138 1.303-1.544-.563-1.773-.305-1.988 1.882-1.57 1.85.354 2.661.002 3.002-1.303.396-1.512-.053-1.72-2.923-1.352-1.871.239-3.391-.012-3.391-.56a1 1 0 0 1 1-.994c1.556 0 1.176-5.303-.557-7.777-1.409-2.012-1.409-2.223 0-2.223.856 0 1.557-.675 1.557-1.5s-.482-1.5-1.071-1.5c-.59 0-.397-.675.428-1.5s2.245-1.5 3.155-1.5c.91 0 1.465-.563 1.234-1.25-.232-.687-1.385-1.263-2.563-1.279-2.675-.036-5.321-2.487-3.433-3.179 2.16-.792 1.374-2.139-2.25-3.859-3.673-1.743-3.746-1.941-3.679-9.933.128-15.17.345-16.69 2.311-16.176 1.22.319 1.868-.04 1.868-1.034 0-1.05.646-1.354 2.078-.98 1.625.425 2.299-.093 3.097-2.383.957-2.744 3.121-4.258 2.575-1.802-.335 1.509 1.421 2.051 3.133.968 1.162-.736 1.131-1.235-.196-3.129-.963-1.375-1.366-3.321-1.032-4.988.697-3.486-1.185-4.711-3.718-2.419-1.859 1.682-1.937 1.666-1.937-.402 0-1.185.45-2.155 1-2.155s1-.675 1-1.5-.506-1.5-1.125-1.5c-.721 0-.906-1.096-.515-3.05.378-1.891.236-2.818-.375-2.441-1.287.796-1.26-1.127.05-3.575 1.355-2.531 3.965-2.488 3.965.066 0 1.1.506 2 1.125 2 .711 0 .909-1.079.539-2.93-.372-1.862-.145-3.078.625-3.337 1.756-.591-1.025-3.733-3.304-3.733-1.631 0-2.985-1.852-2.985-4.082 0-.505.675-.918 1.5-.918.933 0 1.5-.944 1.5-2.5 0-1.482-.573-2.5-1.406-2.5-.774 0-1.288.788-1.144 1.75.145.962.074 1.212-.156.555-.231-.657-1.021-.963-1.755-.681-.735.282-1.634.032-1.997-.556-.943-1.526-3.434-1.318-5.185.432-2.177 2.177-3.079 1.857-3.521-1.25-.598-4.213.121-6.25 2.206-6.25 1.205 0 1.701-.505 1.363-1.386-.517-1.349-.173-1.383 7.345-.724.688.061 1.25.587 1.25 1.169 0 .582-.45.781-1 .441s-1 .072-1 .916c0 1.237.501 1.344 2.584.552 1.421-.54 3.014-.716 3.54-.391.526.325 1.871-.572 2.989-1.993 2.785-3.541 5.287-3.457 4.596.155-.288 1.507-.064 3.598.498 4.647.782 1.461.643 2.119-.593 2.81-.888.497-1.598 2.119-1.579 3.604l.036 2.7 1.429-2.5c1.301-2.276 1.432-2.316 1.465-.45.019 1.128-.486 2.571-1.123 3.208-.859.859-.867 1.506-.032 2.513.625.753 1.425 7.335 1.798 14.793.37 7.39 1.059 13.586 1.532 13.769.473.184.871 2.884.884 6 .014 3.117.432 7.467.93 9.667 1.049 4.64 2.311 15.328 2.45 20.75.053 2.063.508 3.75 1.013 3.75.504 0 .665.252.357.559-.307.307.324 2.895 1.402 5.75 1.078 2.855 2.084 5.855 2.234 6.668.151.812 1.357 1.779 2.682 2.15 2.238.626 2.256.681.252.773-1.934.09-2.037.357-1 2.592 2.276 4.907 3.828 2.633 4.375-6.406.218-3.622.506-8.836.638-11.586.245-5.105 1.947-9.5 3.678-9.5 1.736 0 2.442-.185 4.11-1.078 1.108-.593 2.043-.401 2.864.588 1.066 1.285 1.611 1.251 4.355-.271 1.725-.956 3.286-2.076 3.469-2.489.447-1.006 3.167-.963 3.167.05 0 .44-.511 1.311-1.136 1.936-.847.847-.746 1.525.401 2.672 1.344 1.344 1.688 1.354 2.749.075.667-.803 1.612-1.214 2.099-.913.488.301.887-.577.887-1.952 0-5.329 1.756-3.204 3.032 3.668 1.722 9.272 2.477 6.039 1.056-4.521-.598-4.445-1.095-10.824-1.103-14.174-.011-4.302-.3-5.65-.985-4.591-.533.825-.976 2.512-.985 3.75-.01 1.501-.598 2.224-1.765 2.171-1.045-.047-1.247-.282-.5-.583 1.524-.615 1.677-4.338.179-4.338-.59 0-.397-.675.428-1.5s1.982-1.5 2.572-1.5c1.585 0 1.301-2.698-.351-3.332-.871-.334-1.214-1.345-.884-2.607.307-1.173.058-2.061-.577-2.061-.65 0-1.111-1.778-1.102-4.25.012-3.221.265-3.887 1.044-2.75 1.143 1.667.402-8.025-1.045-13.681-.803-3.134 1.071-5.609 2.498-3.3.316.512 2.018.761 3.782.552 1.763-.209 3.749.066 4.412.611.664.544 1.789.628 2.5.185 2.047-1.274 6.092-.376 8.544 1.896 1.94 1.799 2.25 1.855 2.25.411 0-2.345 2.077-2.095 2.71.326.523 1.997 3.29 2.865 3.29 1.031 0-.532.563-.762 1.25-.51 2.502.917 4.376-1.256 3-3.477-1.627-2.625-1.606-2.718.768-3.338 1.109-.291 2.641.095 3.402.857 1.181 1.181 1.469 1.168 1.951-.089.863-2.247 2.942-1.78 2.339.526-.344 1.315-.03 2 .915 2 2.322 0 2.817-2.955.75-4.481-1.36-1.004-1.575-1.689-.783-2.494.799-.811 1.437-.695 2.373.433 1.762 2.123 3.035 1.931 3.035-.458 0-2.282 4.466-2.91 5.338-.75.403 1 .52 1 .583 0 .046-.728 1.44-1.25 3.339-1.25 3.01 0 3.259.247 3.25 3.239-.009 2.758.349 3.241 2.407 3.25 4.135.019 3.487 2.267-.866 3.002-2.228.377-4.051 1.095-4.051 1.597 0 1.648 13.228 1.48 13.833-.176.184-.502 1.026-.912 1.873-.912 1.265 0 1.314.271.274 1.524-1.68 2.025-.648 2.904 1.844 1.57 1.339-.716 1.822-1.73 1.469-3.081-.47-1.799-.044-2.013 4.019-2.013 2.707 0 5.152.607 6.045 1.5 2.374 2.374 5.512 1.871 6.232-1 .802-3.195 1.727-3.147 4.891.25 2.011 2.161 2.234 2.819 1.04 3.073-2.812.599-1.71 2.936 1.129 2.393 1.456-.278 2.404-.103 2.105.389-.299.492.084 1.475.851 2.184 1.139 1.053 1.401 1.053 1.427 0 .02-.8.563-.588 1.433.561.771 1.018 1.882 1.554 2.468 1.191.628-.387 1.067.214 1.067 1.459 0 1.247.439 1.847 1.068 1.458.588-.363.82-1.307.517-2.097-.701-1.828 2.179-2.997 3.682-1.494.623.623 2.51 1.133 4.192 1.133 3.912 0 5.925 2.859 4.554 6.467-.611 1.606-.614 2.533-.007 2.533 1.133 0 2.016-3.491 1.771-7-.096-1.375.146-3.436.538-4.581.487-1.421.074-2.818-1.301-4.403-1.202-1.385-2.014-1.78-2.014-.978 0 .879-.467.705-1.348-.5-.742-1.014-1.867-1.523-2.5-1.132-.773.478-1.152-.292-1.152-2.339 0-1.876-.706-3.491-1.835-4.196-1.193-.745-1.726-2.061-1.523-3.759l.312-2.612-1.17 2.75c-.644 1.512-1.525 2.75-1.958 2.75-1.175 0-2.11-4.614-1.616-7.974.281-1.917-.054-3.136-.958-3.483-.895-.343-1.156-1.27-.733-2.602.512-1.613.267-2-1.11-1.755-1.441.256-1.998-.881-3.026-6.186-1.586-8.181-1.577-8-.383-8 .55 0 1 .675 1 1.5 0 1.792.476 1.851 3.201.393 1.564-.838 1.753-1.304.772-1.91-1.038-.641-.989-1.11.246-2.345.848-.848 1.789-1.296 2.09-.995.302.301 1.914.247 3.583-.119 2.702-.594 2.903-.879 1.831-2.596-.662-1.06-1.996-1.928-2.964-1.928-1.198 0-1.759-.778-1.759-2.441 0-3.533 1.979-4.231 4.115-1.453 1.515 1.97 1.844 2.084 1.863.644.013-1.076.792-1.75 2.022-1.75 1.1 0 2-.45 2-1s.459-1 1.019-1c.571 0 .759 1.036.428 2.356-.372 1.48-.005 2.943.986 3.935.868.868 1.629 2.845 1.691 4.393.104 2.588 1.67 7.118 2.876 8.316.277.275 1.148 1.75 1.935 3.277.788 1.527 2.418 3.024 3.623 3.327 2.308.579 4.442 4.155 4.442 7.443 0 4.814 10.83 1.487 13.357-4.104.359-.794.488-.205.286 1.307-.455 3.421-.227 3.417 3.169-.058 6.267-6.411 6.125-6.9 6.435 22.096.154 14.416.274-1.463.266-35.288-.007-33.825-.136-53.512-.286-43.75l-.273 17.75h-2.544c-2.046 0-2.426-.373-1.941-1.903.545-1.717.259-1.825-2.932-1.105-1.994.449-3.537.41-3.537-.091 0-.489-1.687-.633-3.75-.32-8.033 1.218-8.769 1.099-8.503-1.382.136-1.266-.876-4.412-2.25-6.992-1.373-2.58-2.512-4.02-2.53-3.199-.024 1.066-.569.85-1.911-.758-1.032-1.238-2.378-2.25-2.991-2.25s-1.542-1.125-2.065-2.5c-.702-1.846-1.684-2.5-3.753-2.5-1.541 0-3.706-.633-4.81-1.406-1.826-1.279-2.153-1.155-3.606 1.378-.957 1.667-1.267 3.323-.772 4.123.468.757.366 1.893-.234 2.616-.583.703-.832 2.47-.554 3.927.279 1.457-.095 4.089-.83 5.848-.735 1.76-1.107 4.282-.826 5.606.488 2.303.453 2.321-.802.408-2.214-3.373-5.292-2.94-5.43.764-.064 1.731-.627 3.317-1.25 3.525-.623.208-1.133.91-1.133 1.561 0 .792-2.152 1.178-6.5 1.167-3.575-.009-6.5.32-6.5.733s-.9.75-2 .75c-1.111 0-2-.667-2-1.5 0-.825-.863-1.5-1.918-1.5s-2.63-.273-3.5-.607c-1.134-.435-1.582-.01-1.582 1.5 0 1.655-.618 2.107-2.879 2.107-3.098 0-5.938 4.427-4.779 7.45.314.817.179 1.728-.3 2.024-.479.296-1.081-.027-1.337-.718-.265-.712-.941-.065-1.561 1.494-.602 1.512-1.608 2.75-2.236 2.75-.642 0-.917.859-.627 1.965.358 1.369-.102 2.161-1.516 2.61-1.44.457-1.67.866-.79 1.409.881.545.919.964.132 1.45-.609.376-1.107.207-1.107-.375s-.758-1.059-1.686-1.059c-.927 0-2.725-.977-3.996-2.171-3.014-2.831-4.093-1.73-1.293 1.32 1.187 1.293 3.138 3.913 4.336 5.822 1.708 2.719 2.889 3.506 5.461 3.635 3.761.189 5.682 1.394 2.222 1.394-1.937 0-2.095.234-1.024 1.524 1.585 1.91.642 2.973-1.727 1.946-.986-.428-2.913-.963-4.281-1.19-4.667-.773-14.274-9.28-10.481-9.28 1.022 0 1.469-1.104 1.469-3.622 0-3.107-.214-3.446-1.5-2.378-1.229 1.02-1.5.951-1.5-.378 0-.892-.461-1.622-1.025-1.622-1.313 0-3.184 4.853-2.376 6.161.759 1.227-2.974 4.839-5 4.839-.817 0-2.171-.979-3.01-2.176l-1.523-2.175-.912 2.425c-1.062 2.829.297 4.016 4.746 4.142 2.109.06 2.726.499 2.409 1.712-.56 2.141 1.34 7.072 2.725 7.072.596 0 .825-.419.509-.931a1.106 1.106 0 0 1 .372-1.516c1.364-.844 2.104.798 1.095 2.43-.722 1.169-1.489 1.179-4.859.067-2.201-.727-4.747-1.035-5.656-.686-2.132.818-6.651-.303-5.929-1.471.304-.491 1.89-.893 3.524-.893 3.106 0 4.952-2.358 3.21-4.1-1.271-1.271-4.3-.069-4.3 1.707 0 2.006-1.787 1.718-2.213-.357-.198-.962.212-2.2.911-2.75.755-.594 1.018-1.948.648-3.335-.474-1.774-.84-2.014-1.525-1-.621.918-.845.398-.72-1.665.215-3.525-.96-7.5-2.218-7.5-.485 0-.883.45-.883 1s-.9 1-2 1c-1.616 0-2-.667-2-3.469 0-2.343-.405-3.325-1.25-3.027-.687.243-2.122-.755-3.188-2.218-1.332-1.829-1.567-2.784-.75-3.057.653-.217 1.188-1.033 1.188-1.812 0-.78.388-1.417.861-1.417.474 0 .647-1.125.384-2.5-.488-2.553-2.227-3.512-2.267-1.25-.012.688-.909 2.375-1.993 3.75-1.67 2.118-2.122 2.271-2.962 1-.86-1.3-.994-1.277-1.008.167-.008.916.548 1.933 1.235 2.259.688.327-.292.36-2.177.073-4.251-.645-4.684-1.058-3.104-2.962.69-.831.987-2.209.66-3.061-.327-.851.217-3.061 1.208-4.91 1.576-2.941 1.942-3.156 2.924-1.714.995 1.463 1.128 1.409 1.18-.479.053-1.924.489-2.079 4.559-1.62 2.978.336 4.5.125 4.5-.623 0-.621-.45-1.13-1-1.13-1.275 0-1.305-3.295-.042-4.558.537-.537.591-1.554.122-2.312-.604-.977-1.341-.21-2.651 2.758-1.621 3.675-3.429 5.43-3.429 3.329 0-1.711-5.536-.481-6.508 1.446-.554 1.099-1.539 1.821-2.189 1.605-.757-.253-1.302 1.158-1.517 3.919l-.335 4.313-1.095-3.5-1.095-3.5-1.106 2.75c-1.337 3.325-2.398 3.594-1.968.5.204-1.464-.211-2.259-1.187-2.276-2.404-.043-4.181-1.56-3.6-3.075.297-.772-.066-1.399-.809-1.399-.74 0-1.964-.745-2.719-1.655-.754-.91-2.834-2.266-4.622-3.013-2.283-.954-3.255-2.025-3.265-3.595-.013-1.819-.2-1.957-1-.737-.777 1.183-1.159 1.231-1.808.227-1.11-1.716-5.168-2.432-5.209-.92-.017.656-.662.36-1.433-.657-.788-1.04-1.918-1.532-2.58-1.122-.648.401-1.541.141-1.985-.576-.443-.717-1.63-1.428-2.638-1.579-4.003-.601-9.958-1.234-12.237-1.302-2.313-.068-2.338-.145-.657-2.003 1.689-1.866 1.614-2.001-2.221-3.957-4.191-2.138-5.217-1.93-5.217 1.056 0 2.499-1.639 2.322-2.311-.25-.422-1.612-1.205-2.014-3.465-1.777-3.692.388-6.34-2.155-7.283-6.993l-.711-3.647-.115 3.809c-.171 5.656-1.816 3.575-2.615-3.307-.784-6.754-2.5-8.129-2.5-2.002 0 2.2-.45 4-1 4s-1-2.55-1-5.667c0-8.86-.964-5.679-1.379 4.553-.299 7.36-.729 9.473-2.138 10.503-1.607 1.175-1.618 1.345-.123 1.919 2.223.853 2.062 2.221-.549 4.653-1.842 1.716-1.921 2.039-.5 2.039 2.091 0 2.176 1.351.189 3-.825.685-1.507 1.977-1.515 2.872-.013 1.301-.189 1.354-.879.265-.729-1.151-.948-1.151-1.406 0-.409 1.028-.562 1.047-.621.078-.043-.707.517-2.282 1.246-3.5.857-1.435 1.08-3.448.631-5.715l-.693-3.5-.21 3c-.116 1.65-.439 2.435-.717 1.744-.279-.691-.94-.989-1.47-.661-.599.37-.542 1.103.15 1.936.854 1.029.632 1.599-.951 2.446-1.722.922-2.08.809-2.155-.68-.05-.982-.508-.341-1.018 1.423-.995 3.441-5.761 5.662-9.856 4.591-1.279-.334-2.234.054-2.623 1.068-.363.945-1.599 1.512-3.035 1.394-1.508-.125-2.238-.684-1.932-1.481.463-1.207-.741-1.755-2.913-1.326-.532.105-3.06.335-5.618.512-2.558.177-5.554.806-6.66 1.397-2.195 1.175-8.25 1.092-8.253-.113-.004-1.587-2.959-.649-4.39 1.393-1.46 2.085-1.709 2.107-9.057.801-4.847-.861-7.555-1.808-7.555-2.643 0-.716-.914-1.301-2.031-1.301-1.118 0-2.315-.738-2.661-1.64-.569-1.482-.759-1.464-1.969.191-1.238 1.693-1.339 1.624-1.339-.919 0-1.579-.426-2.487-1-2.132-1.501.928-1.251 7.5.286 7.5.707 0 1.285.9 1.285 2 0 1.469-.672 2.005-2.535 2.018-2.74.02-11.362 5.323-10.33 6.355.345.345-.348.627-1.539.627-1.26 0-2.167.628-2.167 1.5 0 1.912-1.403 1.924-2.978.026-1.229-1.48-3.21-1.95-12.605-2.988-4.176-.462-5.497-.203-7.403 1.45-1.276 1.106-3.125 2.012-4.108 2.012-.983 0-2.092.492-2.464 1.094-.372.602-1.749.889-3.059.639-1.311-.251-2.383-.068-2.383.406 0 1.871-2.805.725-3.4-1.389-.632-2.249-.634-2.249-2.7.5-1.137 1.512-2.903 2.75-3.924 2.75-1.022 0-2.166.498-2.542 1.107-.461.745.011.887 1.441.433 1.169-.371 2.125-.247 2.125.276s-1.125 1.166-2.5 1.429c-1.942.371-2.5.063-2.5-1.384 0-2.268-.873-2.339-3.777-.304-1.246.872-2.223 1.092-2.223.5 0-1.732-2.465-1.204-4.878 1.044-1.24 1.155-2.561 1.793-2.937 1.418-.375-.375.15-1.291 1.167-2.034 1.016-.744 1.565-1.811 1.218-2.372-.361-.584 1.198-1.49 3.65-2.12 6.176-1.588 6.606-1.826 3.464-1.914-1.548-.043-3.734-.571-4.857-1.172-1.477-.79-2.344-.79-3.134 0-1.318 1.318-5.047 1.475-4.246.178.311-.503 0-1.128-.691-1.389-.691-.262.678-.472 3.042-.467 5.141.01 5.98-.594 3.821-2.753-.89-.89-1.619-2.314-1.619-3.164 0-1.099-.634-1.379-2.198-.97-3.066.801-4.899-1.024-4.224-4.206.51-2.408.435-2.485-.87-.886-1.98 2.426-2.708 2.191-2.708-.872 0-2.121.265-2.403 1.385-1.474 1.109.921 1.522.601 2.076-1.606.533-2.121.214-3.143-1.385-4.437-2.621-2.123-2.653-5.029-.08-7.358 2.433-2.201.895-4.92-2.223-3.931-1.764.56-1.828.399-.695-1.727.687-1.29 1.9-2.825 2.696-3.413 1.25-.921 1.217-1.298-.235-2.75-1.576-1.576-1.551-1.682.39-1.682 1.139 0 2.071-.45 2.071-1s-.712-1-1.583-1c-2.638 0-.958-2.477 1.91-2.816 3.39-.402 3.515-2.184.154-2.184-2.247 0-2.445-.297-1.834-2.75.608-2.441.504-2.601-.922-1.427-.883.728-1.382 1.907-1.108 2.621.274.714-.208 1.569-1.072 1.9-1.259.483-1.444.101-.934-1.932.514-2.045.216-2.645-1.544-3.105-1.316-.344-1.972-1.112-1.655-1.938.289-.753.089-1.369-.443-1.369-.533 0-.969.45-.969 1s-.675 1-1.5 1-1.5-.422-1.5-.938-1.206-.854-2.679-.75c-2.422.17-2.705-.173-2.943-3.562-.27-3.823.384-4.588 2.289-2.683.757.757 1.243.611 1.669-.5.341-.889.074-1.58-.617-1.597-.671-.017-.425-.493.545-1.058 1.502-.874 1.558-1.233.381-2.41-1.1-1.1-1.156-2.111-.273-4.931.805-2.573 1.271-3.09 1.694-1.882.544 1.549.629 1.548 1.228-.012.402-1.049 1.757-1.677 3.616-1.677 1.634 0 3.25-.45 3.59-1 .34-.55 1.491-1 2.559-1S96 289.55 96 289s.532-.887 1.183-.75c.651.138 1.816-1.021 2.59-2.574 1.249-2.507 1.593-2.664 3.067-1.402.913.782 2.447 1.701 3.41 2.043 2.314.82 2.254 3.683-.077 3.683-1.461 0-1.738.601-1.386 3 .47 3.206 1.907 3.962 2.851 1.5.99-2.579 2.015-1.668 3.655 3.25 1.46 4.379 1.588 4.505 1.645 1.607.063-3.216 1.435-4.357 5.237-4.357 1.167 0 2.231-.835 2.532-1.989.286-1.094.868-1.774 1.293-1.511.425.263 1.018-.463 1.319-1.612.351-1.344.988-1.816 1.784-1.325.863.534 1.044.262.598-.899-.732-1.908.869-2.313 1.64-.414.381.941.769.879 1.568-.25.719-1.017 1.065-1.097 1.076-.25.008.688.465 1.25 1.015 1.25.55 0 1-.9 1-2 0-1.232.672-2.006 1.75-2.015 1.437-.013 1.493-.178.314-.924-1.247-.79-1.247-1.14 0-2.672 1.279-1.571 1.246-1.692-.304-1.112-2.982 1.118-3.697-11.238-.85-14.669 1.447-1.744 1.121-6.781-1.205-18.608-1.62-8.239-2.61-14.613-3.573-23-.614-5.343-.714-5.491-3.511-5.192-2.321.248-2.757-.01-2.25-1.332.346-.902.629-2.278.629-3.058 0-2.064 2.985-1.743 3.079.332.05 1.099.271 1.273.594.467.284-.706.179-2.056-.233-3-.412-.944-.902-3.517-1.09-5.717-.188-2.2-1.051-4.523-1.918-5.163-1.416-1.045-1.398-1.197.175-1.5 1.618-.312 1.627-.46.119-1.968-.897-.897-1.352-1.909-1.012-2.25.341-.34-.555-.619-1.991-.619-1.563 0-3.234.891-4.166 2.223-1.502 2.144-1.557 2.055-1.557-2.541 0-3.114-.671-5.701-1.938-7.472-2.214-3.095-2.791-6.643-1.642-10.085 1.057-3.161-.844-4.318-5.794-3.527-2.593.415-4.127.209-4.641-.623-.594-.961-2.771-1.017-9.626-.247-4.964.557-9.277.616-9.809.133-.523-.473-1.954-.861-3.18-.861-1.549 0-2.331-.687-2.559-2.25-.283-1.938-.428-2.007-1.039-.5M48.261 322.484c-.682.775-.989 2.062-.682 2.861.67 1.747-.669 2.686-4.747 3.329-2.163.341-2.835.14-2.32-.693.477-.772.085-1.05-1.144-.813-1.027.197-1.868 1.028-1.868 1.846 0 .817.563 1.373 1.25 1.236.688-.137 1.25.2 1.25.75s-.675 1-1.5 1-1.5.398-1.5.883c0 1.247 3.881 2.118 4.558 1.023.308-.498 2.972-.906 5.919-.906 5.835 0 8.523-.683 8.523-2.166 0-.524-.45-.674-1-.334s-1-.08-1-.933c0-.852-.884-2.102-1.964-2.777-1.382-.862-1.795-1.904-1.392-3.508.641-2.553-.502-2.935-2.383-.798m-20.287 12.553c-1.205.762-1.109.953.526 1.047 1.626.094 1.532.246-.5.811-1.375.382-2.539 1.125-2.586 1.65-.048.525-.442 1.765-.877 2.756-.554 1.263-.103 2.532 1.511 4.25L28.349 348h-2.175c-1.266 0-2.174.627-2.174 1.5 0 .924.938 1.5 2.441 1.5 2.868 0 4.204 1.538 2.053 2.364-.822.315-1.494.137-1.494-.395 0-.533-.886-.969-1.969-.969-2.266 0-1.794 2.249 1.134 5.401.971 1.046 1.53 2.284 1.241 2.75-.288.467-.047.849.535.849.582 0 1.059 1.281 1.059 2.847s.94 3.928 2.088 5.25c2.656 3.056 5.088 8.81 4.277 10.121-.342.553-.195 1.293.326 1.644s2.003 2.888 3.293 5.638c5.048 10.758 9.179 13.001 16.816 9.132 2.454-1.244 3.754-1.356 6.7-.578 1.989.525 11.5-3.65 11.5-5.048 0-.564-.9-1.796-2-2.738-2.342-2.005-2.571-3.268-.594-3.268.912 0 1.224-.7.887-1.989-.286-1.094-.927-1.737-1.423-1.431-.496.307-.644.977-.327 1.489.316.512-.078.931-.877.931-2.182 0-2.872-2.936-1.106-4.703.879-.879 1.271-2.26.901-3.176-.757-1.875-1.275-4.08-1.384-5.886-.057-.93-1.933-1.168-7.077-.898-7.067.37-8.521-.416-5.8-3.137.933-.933.925-1.2-.039-1.2-.962 0-.951-.312.05-1.395.709-.767 1.595-1.21 1.97-.984.374.227.963-.046 1.309-.605.345-.559.151-1.016-.431-1.016S57 359.55 57 359s.675-1 1.5-1 1.5-.445 1.5-.988c0-.544-1.013-.881-2.25-.75-2.092.221-2.226-.096-1.91-4.512l.34-4.75h-3.621c-2.168 0-3.836-.557-4.155-1.389-.423-1.103-1.129-1.164-3.431-.295-3.327 1.256-3.546 4.554-.384 5.794 1.478.58 1.174.765-1.339.82-1.956.042-3.262-.428-3.28-1.18-.018-.714-.457-.518-1.025.456-1.074 1.841-1.714 11.358-.927 13.77.306.936-.289 1.595-1.625 1.801-1.903.293-2.17-.296-2.765-6.104-.362-3.536-.379-7.159-.036-8.051.343-.894.125-1.622-.485-1.622-.609 0-1.107-1.188-1.107-2.64 0-1.452-.788-3.237-1.75-3.968-1.646-1.25-1.635-1.33.191-1.36 1.922-.032 1.922-.047 0-1.559-1.908-1.501-1.903-1.554.309-3.122 1.238-.877 2.243-2.328 2.235-3.223-.014-1.418-.143-1.434-1-.128-.735 1.119-1.182 1.196-1.761.303-.512-.79-1.279-.88-2.25-.266M44 336c-2.475.385-3.968.767-3.317.85.65.082 1.452 1.001 1.783 2.042.709 2.234 4.415 3.452 6.143 2.018 1.494-1.241 2.828.509 2.011 2.638-.83 2.162 2.037 1.78 3.621-.482.962-1.374 1.775-1.663 2.807-1 1.055.678 1.135 1.14.293 1.687-1.464.951-.501 6.477 1.034 5.929.619-.222 1.021-1.348.894-2.504-.165-1.494.196-1.937 1.25-1.532 1.736.666 1.934-1.324.506-5.081-.537-1.411-1.676-2.565-2.532-2.565-.856 0-1.815-.675-2.131-1.5-.617-1.606-4.292-1.755-12.362-.5" fill="#d3d3d3" fill-rule="evenodd"/></svg>