<svg xmlns="http://www.w3.org/2000/svg" width="500" height="500"><path d="M78.604 54.59c-.336.875-.357 2.001-.047 2.502.31.502-.589 1.35-1.997 1.885-3.053 1.161-3.359 3.635-.56 4.523 2.465.782 2.633 2.488.25 2.532-2.161.039-5.25 2.291-5.25 3.828 0 .627-1.013 1.176-2.25 1.219-1.237.043-1.678.309-.98.59 1.559.627-1.599 3.187-7.02 5.692-2.062.953-3.75 2.188-3.75 2.745 0 .557-.461.727-1.025.379-.563-.349-.901-.038-.75.691.181.872-1.004 1.43-3.475 1.634-2.6.216-3.75.79-3.75 1.873 0 1.269-.279 1.331-1.488.327-1.205-1-1.606-.929-2.107.377-.341.887-1.471 1.613-2.512 1.613S40 87.45 40 88s-1.324 1-2.943 1c-1.848 0-3.486.774-4.4 2.08-.868 1.238-2.288 1.946-3.512 1.75-1.13-.182-2.071.115-2.091.659-.02.545.708.995 1.618 1 1.045.007 1.791 1.024 2.026 2.761.265 1.966-.067 2.75-1.164 2.75-.867 0-1.534-.869-1.534-2 0-1.1-.45-2-1-2s-1 .874-1 1.943-.835 2.532-1.857 3.25c-1.021.719-2.197 2.385-2.613 3.703-.671 2.124-.504 2.33 1.468 1.815 2.002-.524 2.169-.294 1.653 2.283-.354 1.771-.11 3.083.638 3.436.936.441.927.702-.039 1.153-.687.321-1.25 1.896-1.25 3.5 0 2.512.382 2.919 2.75 2.932 1.923.011 2.342.274 1.393.875-.851.54-.978 1.094-.34 1.488 1.358.839 4.197-.31 4.197-1.699 0-.609.782-.325 1.739.631.956.957 1.744 2.516 1.75 3.465.008 1.264.679 1.632 2.511 1.378l2.5-.348-2.403 2.098c-1.322 1.153-2.784 2.097-3.25 2.097-.466 0-.847.477-.847 1.059s.45.781 1 .441 1 .294 1 1.41c0 1.391.471 1.847 1.5 1.452 2.092-.803 1.885 1.315-.25 2.558-.962.561-1.263 1.033-.667 1.05 1.624.045 1.259 12.21-.418 13.954-.901.936-1.173 2.649-.796 5 .358 2.231.245 3.048-.301 2.173-.651-1.044-.89-.787-.934 1-.032 1.322-.377 4.203-.767 6.403-.643 3.627-.773 3.767-1.398 1.5l-.688-2.5-1.021 2.5c-1.515 3.711-1.372 4.532.727 4.197 1.341-.214 1.855.256 1.753 1.604-.102 1.349-.742 1.795-2.192 1.524-1.787-.333-1.762-.255.202.615 2.267 1.003 3.107 3.06 1.25 3.06-.55 0-1-.477-1-1.059s-.43-.793-.956-.468c-1.499.926-.032 3.527 1.99 3.527 1 0 2.053-.787 2.338-1.75.285-.963.385.092.222 2.344-.167 2.316.291 4.896 1.055 5.941 1.249 1.707 1.354 1.624 1.396-1.094l.045-2.941 1.374 3c1.111 2.428 1.404 2.618 1.531 1 .117-1.494.454-1.198 1.331 1.172l1.174 3.172 2.5-2.038c2.394-1.952 2.512-1.959 2.775-.172.81 5.499 4.61 18.246 5.31 17.813 1.362-.842 2.617 2.832 2.316 6.78-.312 4.087.161 4.676 4.01 4.995 1.424.118 2.589.566 2.589.996 0 .43 1.462.827 3.25.882 3.038.093 3.087.148.75.843-1.375.409-3.258.364-4.184-.1-4.126-2.065-6.617-.514-4.532 2.822.401.64.163 1.393-.528 1.673-.95.386-.891.768.244 1.571 1.218.861 1.237 1.063.102 1.076-.805.008.002 1.354 1.901 3.168 3.027 2.893 3.403 3.012 4.552 1.44 2.232-3.051 3.352 1.321 3.437 13.407.024 3.375.071 3.419 1.318 1.219.712-1.255 1.527-2.048 1.813-1.763.285.285.367-2.85.182-6.969-.186-4.118.071-7.487.57-7.487 1.259 0 2.335 4.763 1.6 7.079-.46 1.45-.227 1.763.971 1.303 1.188-.456 1.431-.146.984 1.257-.54 1.693-.445 1.68 1.043-.139.942-1.153 1.553-3.483 1.441-5.5-.106-1.925-.131-4.505-.054-5.733l.14-2.233 3.53 1.983c1.942 1.091 4.53 1.99 5.75 1.998 1.693.012 1.885.228.808.91-1.085.686-.854.972 1 1.234 1.65.233 2.319.894 2.118 2.091-.199 1.184.357 1.75 1.719 1.75 1.378 0 1.831.473 1.437 1.5-.317.825-.051 1.5.59 1.5.659 0 .84.527.417 1.212-.412.667-.649 2.695-.527 4.507.179 2.657-.263 3.516-2.279 4.434-3.34 1.522-2.157 3.136 1.68 2.294 2.976-.654 3.036-.594 2.431 2.432-.403 2.017-.236 3.019.478 2.862.604-.133 1.304.322 1.556 1.009.252.687-.039 1.25-.648 1.25-2.104 0 2.01 4.801 4.69 5.474 1.906.478 2.275.893 1.32 1.483-.735.454-.99 1.363-.573 2.038.542.878.158 1.03-1.372.545-1.261-.4-2.125-.241-2.125.393 0 .587 1.18 1.067 2.622 1.067 2.046 0 2.384.288 1.538 1.307-.81.977-.589 1.663.878 2.72 1.079.778 1.962 2.025 1.962 2.77 0 .957 1.104 1.262 3.75 1.038l3.75-.319-.335 9.655-.334 9.655 3.643 1.729c2.73 1.295 3.929 1.442 4.784.587 2.053-2.053 10.742-.42 10.742 2.019 0 1.685 1.782.782 2.29-1.161.287-1.1 1.067-2 1.733-2 .718 0 .998.814.687 2-.34 1.3-.03 2 .884 2 .842 0 1.447 1.102 1.508 2.75.097 2.609.143 2.581.884-.551.43-1.815 1.04-3.558 1.355-3.873 1.052-1.052 3.842.659 4.371 2.679.587 2.245 3.45 2.632 5.509.745 1.472-1.35 4.542-3.407 6.491-4.349.666-.322 2.579.096 4.25.93 1.671.834 3.038 1.133 3.038.666 0-3.238 7.648 1.058 9.335 5.243.279.693.543.022.586-1.49.069-2.394 2.079-4.199 2.079-1.867 0 2.261 5.169 1.841 6.238-.507.596-1.307 1.43-2.376 1.855-2.376.425 0 1.058-.9 1.407-2 .643-2.025 3.5-2.841 3.5-1 0 1.756 1.748 1.071 2.26-.885.37-1.417 1.207-1.794 3.366-1.519 2.779.355 2.791.338.374-.515l-2.5-.882 2.5-.115c1.995-.091 2.197-.31 1-1.084-1.179-.762-.942-.973 1.111-.985 2.25-.013 2.545-.364 2.13-2.536-.45-2.355-.31-2.456 2.13-1.528 1.436.546 3.291.732 4.12.414 1.673-.642 2.094 1.155.501 2.14-1.545.955 1.592 3.592 3.434 2.885.866-.332 1.63-.106 1.699.503.069.609.181 1.535.25 2.057.346 2.631 2.467 3.208 4.463 1.212 1.397-1.397 1.664-2.21.85-2.588-.654-.303.724-.431 3.062-.286 3.394.212 4.25-.068 4.25-1.389 0-.91.675-2.214 1.5-2.899s1.5-1.865 1.5-2.622c0-1.971 1.943-1.704 2.708.372 1.218 3.3 5.292 4.549 5.292 1.622 0-1.328.708-1.514 3.845-1.013 3.476.556 3.975.352 5.192-2.122 1.306-2.656 1.357-2.671 1.724-.487.341 2.031.875 2.433 2.877 2.165.351-.047.992.486 1.424 1.185.635 1.028 1.079 1.028 2.318 0 .843-.7 1.895-1.048 2.337-.775.443.274 1.588-.074 2.544-.774 1.505-1.1 1.003-1.347-3.735-1.836-6.592-.68-7.527-1.181-7.521-4.024.004-1.915.603-2.219 4.75-2.412l4.745-.22-3.824 1.378c-4.863 1.753-5.667 2.563-2.543 2.563 1.357 0 3.026.559 3.709 1.242.988.988 1.43.938 2.169-.25.764-1.229 1.284-1.272 2.945-.242 2.34 1.45 8.044 1.684 8.044.329 0-.506-1.319-1.21-2.931-1.564-1.612-.354-3.457-1.278-4.1-2.053-.644-.775-2.705-1.697-4.581-2.049-1.875-.352-3.657-1.039-3.958-1.526-.301-.488-1.673-.887-3.048-.887s-2.248-.408-1.94-.906c.308-.498 1.572-.69 2.809-.426 2.229.476 2.231.465.249-1.212-1.925-1.628-1.845-1.669 2.109-1.084 4.101.605 9.31-2.095 8.641-4.481-.138-.49.65-.891 1.75-.891 2.422 0 2.676 1.723.321 2.177-1.553.299-1.547.454.072 2.073 2.144 2.144 4.028 2.289 3.245.25-.322-.841-.025-1.5.675-1.5.688 0 1.347 1.158 1.464 2.574.208 2.516 3.223 7.929 3.223 5.787 0-.649 1.102-.862 2.75-.532 2.671.536 2.637.585-1.185 1.684-2.873.826-3.48 1.306-2.25 1.778.927.355 2.247.473 2.935.261 6.22-1.916 9.285-1.08 4.5 1.228-2.122 1.023-2.065 1.088 1 1.152 1.788.038 3.25-.424 3.25-1.024 0-2.05 3.772-6.052 4.41-4.678.466 1.002.712 1.008 1.17.029.713-1.524 3.441.829 3.385 2.92-.06 2.229-2.888 6.641-2.93 4.571-.039-1.956-.832-2.164-3.007-.788-1.258.795-1.218 1.028.276 1.601 2.76 1.059.031 3.494-3.606 3.217-1.703-.13-3.228.309-3.456.994-.488 1.465-3.242 1.657-3.242.226 0-.55.765-1 1.7-1 1.219 0 1.394-.306.618-1.082-.776-.776-1.681-.708-3.2.24-2.426 1.515-2.764 2.842-.725 2.842.766 0 1.652.675 1.969 1.5.73 1.903-.43 1.916-2.921.032-2.511-1.9-3.524-1.911-2.803-.032.317.825 1.153 1.5 1.858 1.5.705 0 1.261.563 1.235 1.25-.184 4.974.281 5.75 3.519 5.868l3.25.119-2.943.631c-1.619.348-2.823 1.071-2.675 1.607.147.536-.216 1.136-.807 1.333-.591.197-1.075-.278-1.075-1.056 0-1.791-4.429-4.223-5.964-3.274-.819.506-.681 1.061.473 1.905 1.334.975.533 1.234-4.44 1.43-3.639.144-6.069-.171-6.069-.787 0-.564-1.238-.989-2.75-.944-2.708.08-2.696.105.75 1.636 2.08.924 2.953 1.75 2.151 2.035-.741.264-2.402-.085-3.69-.774-1.317-.705-3.662-.989-5.362-.649-1.662.333-3.29.169-3.619-.363-.329-.532.441-1.003 1.711-1.046 1.511-.052 1.791-.275.809-.647-.825-.312-1.89-1.23-2.367-2.041-.714-1.213-1.013-1.236-1.697-.129-.474.767-.395 1.612.185 1.971.558.345-1.828.539-5.303.432-3.577-.11-7.836.417-9.818 1.215-8.362 3.368-14 3.094-14-.68 0-1.27-1.995-1.331-3.909-.119-.775.49-2.093.63-2.927.31-1.241-.477-1.167-.713.409-1.298 1.754-.651 1.69-.808-.716-1.759-2.794-1.105-6.857-.547-6.857.941 0 .485.661.883 1.469.883.894 0 1.243.586.893 1.5-.317.825-.051 1.5.59 1.5s.853.506.471 1.125c-.486.786.47.99 3.169.674 2.818-.329 4.397.044 5.826 1.376 1.078 1.004 2.652 1.713 3.497 1.575.949-.154 1.547.516 1.561 1.75.018 1.515.588 1.921 2.35 1.674 2.101-.294 2.214-.116 1.164 1.845-.754 1.408-1.811 2-3.011 1.686-1.038-.272-2.086.132-2.388.918-.406 1.059.067 1.25 1.936.781 2.289-.575 2.473-.352 2.473 2.988 0 2.882.383 3.608 1.906 3.608 1.414 0 1.772.517 1.384 2-.288 1.1-1.172 2-1.966 2-.793 0-1.14.489-.77 1.087.369.598 1.521.865 2.559.594 1.463-.383 1.887.047 1.887 1.913 0 1.323-.45 2.406-1 2.406s-1 .637-1 1.417c0 .779-.558 1.602-1.241 1.83-.892.297-.752.903.5 2.155 2.313 2.313 2.199 3.598-.318 3.598-1.167 0-1.781.449-1.418 1.037.352.57-.296 2.834-1.441 5.031-1.145 2.196-2.082 4.655-2.082 5.463 0 .808-.45 1.469-1 1.469s-1 .645-1 1.433-.884 1.713-1.965 2.056c-1.311.416-2.165 1.853-2.564 4.317-.329 2.032-1.104 4.819-1.721 6.194-.618 1.375-1.264 3.804-1.436 5.397-.173 1.594-.819 3.506-1.436 4.25-.618.744-.757 1.353-.309 1.353.447 0-.016.606-1.029 1.347-1.277.934-1.489 1.566-.691 2.059 1.797 1.111 1.35 2.784-.599 2.241-.963-.269-2.763-.779-4-1.135-1.665-.479-2.25-.231-2.25.952 0 1.547 1.351 2.471 4.228 2.893.761.112 2.456 1.202 3.766 2.423 1.311 1.221 3.166 2.22 4.123 2.22.957 0 2.483.742 3.39 1.65.908.907 2.965 1.613 4.572 1.567 1.606-.046 2.921.304 2.921.777 0 .472.788 1.098 1.75 1.389.963.291-3.088.398-9 .237-10.651-.289-13.998.548-7.25 1.814 1.925.361 3.5 1.044 3.5 1.518 0 .473-.9.625-2 .338-1.118-.293-2-.031-2 .593 0 .652 1.769 1.104 4.25 1.087 3.405-.025 3.898-.236 2.479-1.062-.974-.567-1.524-1.431-1.221-1.921.565-.914 7.816-.709 10.492.297 4.115 1.547 9.02 2.809 10.19 2.62 1.457-.235 9.027 2.9 9.81 4.063.773 1.148 14.204 4.045 20.25 4.368.962.052 1.75.447 1.75.879s1.025.786 2.277.786c1.253 0 3.391.779 4.75 1.732 1.36.952 2.598 1.595 2.751 1.428.99-1.086 9.222 3.356 9.222 4.976 0 1.197.715 1.864 2 1.864 1.1 0 2 .398 2 .883 0 .486.788 1.168 1.75 1.516 3.675 1.329 5.894 3.17 5.444 4.518-.329.989.048 1.204 1.281.731 1.291-.496 1.596-.276 1.168.841-.568 1.479.343 1.91 3.357 1.588 1.333-.143 1.333-.037 0 .947-1.227.906-1.121 1.001.583.527 1.33-.37 2.084-.116 2.084.702 0 .706.308 2.512.685 4.015.553 2.202.343 2.735-1.083 2.747-1.302.012-1.429.231-.48.833.959.609 1.03 1.497.279 3.473-.92 2.42-.768 2.706 1.711 3.229 4.148.873 7.737 3.199 7.582 4.913-.076.845.288 1.537.809 1.537.521 0 .67.45.33 1-.934 1.512-6.21 1.198-6.825-.406-.297-.773-2.033-1.729-3.857-2.125-1.825-.396-3.543-1.057-3.818-1.469-.275-.412-2.075-1.058-4-1.435-2.309-.453-3.034-.365-2.13.257 1.116.77 1.024 1.145-.5 2.031-1.166.677-1.359 1.098-.513 1.117.777.017 1.116.657.794 1.498-.31.807-.133 1.734.393 2.059.526.325.956 1.212.956 1.972 0 1.061-1.789 1.362-7.75 1.304-4.262-.042-9.864.06-12.447.227-2.78.18-5.327-.22-6.242-.98-1.092-.905-3.164-1.08-7.053-.594-3.544.443-5.508.322-5.508-.338 0-.564-1.347-.258-2.994.679-1.646.936-2.996 2.214-3 2.838-.008 1.533-4.817 4.6-6.034 3.848-.535-.331-.972-.124-.972.458 0 .582-1.012 1.104-2.25 1.159l-2.25.099 2.272.651c2.246.643 2.249.664.25 1.908-1.165.725-2.022.837-2.022.264 0-.547-1.623-1.673-3.606-2.502-3.585-1.498-5.951-1.23-4.851.549.868 1.405-1.683 1.106-4.907-.575-3.507-1.829-4.636-1.882-4.636-.216 0 2.027-3.716 4.669-6.909 4.912-2.427.185-3.002.741-3.38 3.266-.251 1.674.049 3.375.666 3.779.618.404-.677.713-2.877.686-3.399-.041-3.662-.184-1.75-.952 3.429-1.378 2.684-2.301-1.331-1.65-2.911.473-3.374.332-2.475-.752.836-1.007.714-1.484-.5-1.95-2.383-.914-2.979-.752-1.751.476.79.79.714 1.821-.274 3.726-1.644 3.169-.444 4.8 2.408 3.274 2.546-1.363 3.476-1.393 2.669-.086-.343.554.134 1.297 1.058 1.652 1.394.535 1.238.832-.918 1.743-3.857 1.63-1.882 3.975 3.18 3.776 3.525-.138 3.93.076 3.471 1.833-.457 1.747-.02 1.989 3.596 1.989 2.536 0 4.117-.461 4.117-1.2 0-.933.267-.933 1.2 0 .848.848 6.711 1.2 20 1.2 17.861 0 18.8-.096 18.8-1.917 0-1.054.563-2.143 1.25-2.421.77-.31.6-.534-.441-.583-.93-.043-1.988-.559-2.35-1.146-.363-.587-.052-.983.691-.881 2.715.372 3.85-.085 3.85-1.552 0-.833.889-1.5 2-1.5 1.1 0 2 .482 2 1.071 0 .621.573.499 1.361-.289.824-.824 4.078-1.459 8.25-1.611 3.789-.137 7.039-.682 7.222-1.211.529-1.522 2.167-1.114 2.167.54 0 .833.889 1.5 2 1.5 1.1 0 2-.45 2-1s1.238-1.007 2.75-1.015c3.469-.02 5.954-1.432 4.308-2.449-1.817-1.123.842-3.703 3.083-2.991 1.023.324 1.859.158 1.859-.369 0-1.209-4.744-2.452-6.117-1.604-.564.349-3.094.324-5.623-.056-2.882-.432-4.119-.985-3.316-1.482 1.027-.634 1.011-.886-.081-1.263-.75-.259.1-.799 1.887-1.2 4.98-1.118 4.411-4.193-1-5.405l-4.25-.952 4.5-.139c2.475-.076 5.374-.799 6.441-1.607 2.374-1.795 5.536-1.918 5.622-.218.035.688.471.238.968-1 1.098-2.732 3.393-2.907 5.162-.393.719 1.021 2.317 2.175 3.551 2.565 1.234.39 2.963 1.428 3.841 2.306 1.239 1.239 1.77 1.315 2.373.34.607-.982 1.507-.879 4.115.47 2.287 1.182 3.458 1.37 3.716.594.546-1.636 2.211-1.393 2.211.323 0 1.583 4.538 6.545 5.986 6.545 1.651 0 2.286 2.214.892 3.112-1.159.747-1.143 1.039.098 1.837 1.209.777 1.028 1.127-1 1.936-2.138.853-2.203 1.001-.476 1.083 1.876.09 1.892.178.25 1.424-2.428 1.843-2.262 3.905.25 3.108 1.419-.45 2-.18 2 .933 0 .862.788 1.574 1.75 1.582 1.496.013 1.532.157.25.985-.825.533-2.175.969-3 .969-1.333 0-1.333-.107 0-.969 1.293-.835 1.266-.971-.191-.985-2.121-.019-2.998 1.33-2.205 3.395.551 1.436 8.953 1.59 87.003 1.59H500V347.75l-3.125.625c-1.719.344-3.519.625-4 .625-2.011 0-.684 2.007 1.375 2.079 1.238.043 1.661.315.94.603-.72.289-2.474 1.603-3.896 2.921-1.422 1.318-3.651 2.397-4.954 2.397-3.761 0-6.437 2.046-4.807 3.676.728.728 1.982 1.324 2.786 1.324 1.49 0 2.553 4.758 1.86 8.323-.298 1.535-.972 1.719-4.266 1.162-3.489-.589-3.913-.44-3.913 1.382 0 1.123-1.059 3.101-2.352 4.394-1.294 1.294-2.608 3.002-2.921 3.796-.377.955-.596.722-.648-.689-.073-1.968-.329-2.044-3.329-.992-1.788.627-3.812 1.501-4.5 1.941-.687.441-1.73.504-2.317.141-.588-.363-1.314.285-1.617 1.441-.673 2.576-4.316 2.872-4.315.351 0-1.48-.772-1.696-5-1.403-3.096.214-5.001-.061-5.001-.722 0-.587-1.462-1.449-3.25-1.914-2.715-.707-3.2-1.262-2.949-3.371.231-1.937-.584-3.19-3.5-5.38-4.523-3.397-5.429-4.554-4.834-6.178.245-.67.008-1.488-.527-1.819-.535-.331-.727-.998-.427-1.483.299-.485-1.381-1.439-3.734-2.119-4.416-1.277-9.894-6.397-9.089-8.495.245-.64-.034-1.461-.622-1.824-.587-.363-1.068-1.728-1.068-3.034 0-1.454-.736-2.607-1.901-2.976-1.955-.621-3.434-4.347-2.661-6.703.24-.731.68-4.254.977-7.829.298-3.575.988-8.027 1.534-9.892.546-1.866.747-3.791.446-4.278-.301-.487.499-1.758 1.779-2.825 1.279-1.066 1.764-1.953 1.076-1.972-1.52-.04-1.623-3.962-.159-6.033.799-1.129 1.187-1.191 1.568-.25.772 1.902 2.044 1.495 2.657-.851.303-1.156 1.029-1.804 1.617-1.441.587.363 1.067.011 1.067-.782 0-1.252 2.414-2.605 5.428-3.041.51-.074 1.23-1.263 1.598-2.641 1.322-4.941 4.039-8.972 6.456-9.579 1.346-.338 2.699-1.41 3.008-2.383.308-.972 1.45-2.572 2.536-3.555 2.592-2.346 2.498-4.908-.276-7.508-2.238-2.098-2.239-2.117-.25-3.626 1.988-1.507 1.986-1.526-.25-3.052-1.238-.844-2.25-2.14-2.25-2.878 0-.739-1.409-2.785-3.131-4.547-2.8-2.864-2.958-3.328-1.5-4.394 1.793-1.311 2.216-5.992.631-6.972-.55-.34-1 .084-1 .941s-.45 1.559-1 1.559-1-1.173-1-2.607c0-1.821.421-2.445 1.397-2.071.901.346 1.56-.319 1.857-1.871.523-2.735-2.897-4.647-4.287-2.397-.516.834-1.145-.039-1.838-2.549-.58-2.1-.831-4.179-.558-4.62.752-1.216-5.605-6.885-7.719-6.885-1.019 0-1.852-.45-1.852-1s-.862-1-1.917-1c-1.054 0-2.813-1.231-3.91-2.736-1.855-2.548-2.12-2.626-3.833-1.135-1.012.881-3.143 1.913-4.735 2.292-1.999.476-2.573 1.011-1.857 1.727.716.716 1.649.71 3.013-.02 1.955-1.046 3.239-.617 3.239 1.083 0 .482-.562.763-1.25.623-.687-.139-2.272.312-3.521 1.002-2.268 1.255-4.229.854-4.229-.864 0-.5.73-.629 1.622-.287 1.398.537 1.378.337-.147-1.443-.973-1.137-2.416-1.818-3.206-1.515-.871.334-1.036.799-.418 1.181.561.346-.276 1.373-1.859 2.282-2.475 1.42-3.044 1.453-4.058.231-.921-1.11-.879-1.424.194-1.436 1.078-.012 1.05-.224-.128-.985-1.282-.828-1.246-.972.25-.985.962-.008 1.75-.44 1.75-.959 0-.52-1.814-.726-4.03-.459-5.626.678-8.418-1.897-3.801-3.506 1.721-.6 4.075-1.098 5.23-1.106 1.686-.013 1.81-.199.629-.947-1.267-.801-1.239-1.02.202-1.573.921-.353 2.146-.351 2.722.005.576.357 1.048.123 1.048-.518s.675-.907 1.5-.59c.825.316 1.5.113 1.5-.452 0-.566.37-.8.822-.52.452.279 1.572-.369 2.49-1.441.918-1.072 1.223-1.949.678-1.949-.544 0-.99-.675-.99-1.5s.45-1.5 1-1.5.984-1.012.965-2.25l-.036-2.25-1.322 2.385c-.912 1.645-1.553 2.012-2.066 1.182-.409-.662-1.373-.962-2.142-.667-.922.354-1.399-.171-1.399-1.538 0-1.435-.464-1.898-1.5-1.5-1 .383-1.5-.041-1.5-1.271 0-1.015-.675-2.406-1.5-3.091s-1.5-1.865-1.5-2.622c0-.758-.45-1.378-1-1.378s-1-.675-1-1.5c0-1-1-1.5-3-1.5-1.65 0-3 .45-3 1s.54 1 1.2 1c1.779 0-.331 1.768-2.586 2.166-2.07.366-2.556-.853-3.26-8.166-.683-7.088-1.285-9-2.838-9-.795 0-1.914-.874-2.485-1.943-.728-1.359-2.315-2.035-5.286-2.25-3.36-.243-4.215-.679-4.1-2.091.109-1.356-.34-1.63-1.876-1.143-1.481.47-1.809.301-1.23-.636.561-.908.308-1.092-.875-.638-.989.379-1.67.144-1.679-.58-.01-.771-.372-.668-.985.281-.736 1.138-1.007.656-1.127-2l-.157-3.5-.716 4-.716 4-.212-4.5c-.154-3.261-.423-3.962-.978-2.544-.682 1.743-.864 1.779-1.679.329-1.165-2.069-6.415-3.519-6.415-1.771 0 .94-.373.921-1.58-.081-.914-.758-1.397-2.275-1.144-3.597.268-1.399-.283-2.938-1.419-3.966-1.756-1.589-1.857-1.56-1.857.534 0 1.221.448 1.937 1 1.596.55-.34 1-.179 1 .358 0 .536-.563 1.238-1.25 1.559-.945.441-.961.72-.062 1.146.817.387.553 1.196-.848 2.597-1.399 1.399-1.878 2.862-1.531 4.677.81 4.238-.84 6.163-5.285 6.163-2.148 0-4.184.45-4.524 1-.34.55-1.524 1-2.63 1-1.107 0-2.723.71-3.591 1.578-.867.867-2.446 1.35-3.507 1.073-1.377-.36-1.773-.096-1.382.922.301.785.111 1.427-.421 1.427-.533 0-.976-.787-.984-1.75-.011-1.272-.236-1.403-.822-.48-.443.698-1.897 1.148-3.231 1-1.855-.207-2.501.259-2.749 1.982-.263 1.838-.768 2.139-2.753 1.641-1.858-.466-2.43-.211-2.43 1.086 0 1.441-.638 1.589-4.227.983-3.733-.631-4.078-.535-2.952.823.86 1.036.934 1.748.228 2.185-.577.356-1.078 1.634-1.112 2.839l-.064 2.191-.853-2.111c-.88-2.177-3.848-3.895-4.905-2.838-.329.33.185 1.038 1.143 1.574.993.555 1.735 2.135 1.727 3.675-.012 2.11-.227 2.373-.985 1.2-.783-1.212-.972-1.065-.985.764-.008 1.245.49 3.071 1.107 4.059.795 1.274.83 3.16.121 6.487-.811 3.803-.74 4.69.378 4.69.759 0 1.379.525 1.379 1.167 0 .641-.273.893-.607.559-1.124-1.124-5.706 4.017-5.066 5.683.7 1.826-.413 2.105-2.014.504-.783-.783-1.275-.783-1.759 0-.979 1.584-2.554 1.329-2.554-.413 0-.825.765-1.5 1.7-1.5 1.377 0 1.457-.237.418-1.25-1.032-1.006-1.818-.615-4.023 2-1.507 1.787-3.383 3.257-4.168 3.265-.785.009-2.102.493-2.927 1.076-1.118.791-.331.95 3.097.625 3.685-.349 4.825-.07 5.747 1.406.982 1.572.791 1.932-1.304 2.457-3.632.912-5.54-.141-2.54-1.402l2.5-1.05-2.75-.064c-1.512-.034-2.75.321-2.75.79 0 1.229-10.358.083-11.235-1.242-.514-.777-.739-.736-.75.139-.008.688-1.167 1.25-2.574 1.25-1.407 0-2.34-.355-2.072-.788.268-.433-.718-1.324-2.191-1.98-1.473-.655-3.896-2.326-5.384-3.712-2.755-2.565-4.413-3.33-3.294-1.52.557.901.001 1.131-2.25.934-.412-.036-.607-.756-.433-1.6.175-.847-.143-1.251-.709-.9-.565.348-1.959.056-3.098-.65-2.379-1.475-4.22.25-3.336 3.125.374 1.216.132 1.154-1.026-.259-1.559-1.904-4.218-1.381-3 .589.444.719.074.868-1.066.431-.96-.369-1.96-.67-2.223-.67-.262 0-.199-.45.141-1 .34-.55-.421-1.052-1.691-1.116-1.694-.085-1.843-.238-.559-.573.963-.252 1.75-.875 1.75-1.384 0-1.236-1.722-1.185-2.5.073-.877 1.419-4.252 1.242-4.754-.25-.335-.996-.727-.998-1.925-.009-.828.683-1.764.983-2.081.666-.878-.878 2.498-4.405 4.232-4.422 1.335-.014 1.341-.134.051-.95-1.014-.641-2.048-.417-3.298.714-2.069 1.872-4.725 2.526-4.725 1.163 0-.502-.477-.912-1.059-.912s-.81.403-.506.895c.305.493-.119 1.153-.941 1.469-.822.315-1.494.137-1.494-.395 0-.533-.675-.969-1.5-.969-2.198 0-1.858-.828 1.5-3.653 1.65-1.389 3-2.967 3-3.507 0-.541.675-1.658 1.5-2.483 2.676-2.675 1.77-3.653-2.75-2.971-3.208.485-3.882.374-2.75-.453 1.174-.856.901-.964-1.25-.495-1.925.42-2.75.2-2.75-.733 0-1.01-1.451-1.228-6-.899-4.31.312-6 .089-6-.793 0-.698-.669-.97-1.552-.631-.854.327-1.347.263-1.096-.143.251-.407-.632-.804-1.962-.884-4.93-.296-7.896-1.423-6.338-2.408 1.109-.702.879-.92-.981-.932-1.336-.008-3.811-.436-5.5-.951-2.595-.791-9.523-2.159-18.071-3.568-1.1-.181-5.6-.42-10-.531-5.729-.144-7.149-.407-5-.926 2.405-.581 2.662-.873 1.298-1.471-.936-.41-2.127-.483-2.646-.162-1.085.671-6.394-1.831-5.59-2.634.292-.293-1.059-.83-3.003-1.195-3.244-.609-5.969-3.325-6.096-6.077-.108-2.348-2.966-10.5-3.681-10.5-.43 0-.782-.48-.782-1.067 0-.633.864-.794 2.118-.395 1.536.487 1.989.299 1.647-.683-.26-.745-1.159-1.235-1.998-1.089-.85.148-1.77-.671-2.079-1.851-.305-1.167-1.032-1.82-1.621-1.457-.655.405-1.094-.425-1.137-2.149-.059-2.354-.194-2.493-.833-.86-.669 1.708-.932 1.523-2.137-1.5l-1.374-3.449-.613 7.5-.613 7.5-.18-7.309c-.127-5.141-.515-7.102-1.31-6.611-.692.428-.934.16-.625-.691.278-.764 1.011-1.277 1.63-1.139.619.137 1.125-.2 1.125-.75s-.787-1.007-1.75-1.015c-1.384-.012-1.462-.198-.372-.889.758-.48 1.093-1.334.744-1.899-.349-.564-.069-1.254.622-1.533.714-.288.448-.54-.616-.585-1.316-.056-1.6-.451-.955-1.329.506-.687.818-3.05.695-5.25a334 334 0 0 1-.296-6.309c-.039-1.27-.494-2.048-1.011-1.729-.516.319-1.402-.217-1.969-1.191-.636-1.093-1.043-1.267-1.062-.455-.04 1.744-5.224 1.146-5.821-.671-.339-1.031.279-1.197 2.577-.692 1.954.429 3.292.23 3.783-.564.532-.861.245-1.032-.957-.57-.944.362-1.475.268-1.18-.209.294-.476-.92-1.16-2.698-1.518-2.372-.478-2.861-.884-1.834-1.524.849-.528 3.347-.293 6.348.598 4.595 1.365 8.085 1.167 4.395-.249-.904-.347-1.643-1.313-1.643-2.146 0-1.297-.24-1.318-1.663-.143-1.296 1.07-1.755 1.097-2.083.122-.231-.687-1.09-1.25-1.909-1.25-1.789 0-4.5-2.512-3.639-3.372.335-.336 1.183-.135 1.882.445 1.445 1.199 3.968-2.364 2.899-4.094-.958-1.55-2.762-1.138-2.138.489.31.807.133 1.734-.393 2.059-.526.325-.956-.336-.956-1.468 0-1.249-.651-2.059-1.655-2.059-1.501 0-1.51-.163-.103-1.75.853-.963 1.804-2.65 2.113-3.75.309-1.1.433-.537.277 1.25-.206 2.343.131 3.25 1.208 3.25.821 0 1.197-.296.835-.658-.362-.362-.114-1.314.551-2.115 1.251-1.507 1.317-1.877 1.603-8.977.122-3.035.6-4.25 1.671-4.25 1.641 0 2.06-2.536.572-3.456-.51-.315-1.218.34-1.572 1.456-.765 2.409-2.5 1.696-2.5-1.028 0-1.232.5-1.717 1.41-1.368.862.331 1.681-.315 2.109-1.664.547-1.723.891-1.902 1.575-.822.849 1.341 1.018 1.171 1.281-1.285.164-1.534 2.625-2.338 2.625-.857 0 .628.424.88.942.56.518-.32.788-2.259.601-4.309-.187-2.05-.386-4.964-.442-6.477-.106-2.879-2.101-3.949-2.101-1.128 0 1.329-.271 1.398-1.5.378-.825-.685-1.5-2.09-1.5-3.122 0-1.412-.731-1.878-2.941-1.878-1.618 0-3.249-.498-3.625-1.107-.488-.79-.876-.796-1.353-.024-.478.774-1.774.778-4.536.016-2.989-.825-3.547-1.296-2.456-2.071 1.098-.78 1.002-.87-.432-.404-1.304.423-1.997.006-2.372-1.429-.502-1.919-.603-1.932-1.876-.254-.813 1.071-1.358 1.279-1.377.523-.042-1.658-2.032-1.621-2.032.037 0 1.66-5.634 2.114-6.611.533-.409-.661-.195-1.385.475-1.608.793-.264.452-1.07-.976-2.309-2.646-2.295-2.528-2.283-3.284-.313m-64.565 64.143c-3.154.591-5.067 3.171-4.394 5.927.374 1.533-.006 2.298-1.309 2.634-1.654.427-1.663.485-.086.59 1.91.127 2.342 1.632.75 2.616-2.035 1.258-1.148 3.649.939 2.532 1.29-.69 2.147-.702 2.559-.035.341.552 1.401 1.003 2.355 1.003 1.881 0 4.584-9.697 3.495-12.536-.309-.805-.064-1.464.545-1.464S20 119.55 20 119c0-1.019-1.569-1.089-5.961-.267m6.211 63.487c-1.238.597-2.25 1.654-2.25 2.349 0 .696-.562 1.493-1.25 1.772-.946.383-.892.755.221 1.528 2.347 1.631.376 2.532-4.921 2.251-4.676-.248-4.919-.133-5.227 2.483C6.428 195.959 4 197.116 4 193.948c0-2.182-.032-2.177-2 .325-2.661 3.383-2.662 6.133-.001 5.438 3.042-.796 3.241.738.482 3.715C1.117 204.898 0 206.192 0 206.302c0 .109 2.025.276 4.5.372 2.475.095 4.5-.242 4.5-.75S8.55 205 8 205s-1-.379-1-.841c0-.463 2.022-.535 4.493-.16 2.471.375 4.721.454 5 .175.967-.967.501-2.173-.743-1.924-.687.138-1.137-.312-1-1 .316-1.582-1.449-1.653-1.974-.079-.215.645-1.397 1.246-2.627 1.336-1.496.111-2.067-.277-1.724-1.171.282-.735.076-1.336-.456-1.336-.533 0-.969-.345-.969-.767 0-.854 4.892-.759 9.5.184 2.344.479 2.562.407 1-.331-1.626-.768-1.218-.959 2.177-1.016l4.176-.07.324-8.502c.336-8.834.122-9.23-3.927-7.278m394.388.28c.388 1.01-.047 1.5-1.331 1.5-3.037 0-4.213 1.841-3.273 5.12 1.021 3.559.966 3.142.966 7.309 0 1.885.675 4.103 1.5 4.928.825.825 1.5 2.031 1.5 2.68 0 1.053 4.701.595 5.868-.572 1.008-1.008-1.18-9.548-2.677-10.446-1.246-.748-.626-.859 2.357-.422 7.93 1.163 8.594-4.096.984-7.793-2.492-1.212-4.532-2.563-4.532-3.003 0-.441-.436-.801-.969-.801-.532 0-.709.675-.393 1.5M249 185c0 1.1-.498 2-1.107 2s-.853.661-.544 1.468c.31.807.051 1.785-.576 2.172-.75.464-.478.964.793 1.462 1.652.647 1.548.768-.709.828-2.927.078-4.319 2.208-2.579 3.948.829.829.809 1.122-.078 1.122-.66 0-1.2.975-1.2 2.167 0 1.191.273 1.893.607 1.56 1.182-1.183 3.252 1.7 2.17 3.023-.741.906-.576 1.25.601 1.25.892 0 1.622.468 1.622 1.039 0 1.086 4.438-2.638 4.584-3.846.046-.381.608-1.96 1.25-3.508 1.617-3.903 1.457-6.423-.476-7.504-1.043-.584-1.483-1.787-1.208-3.3.262-1.441-.274-3.072-1.358-4.131-1.709-1.669-1.792-1.657-1.792.25m-134.07 8.423c-.07 2.046-.084 2.047-.93.077-.601-1.398-.904-1.548-1.006-.5-.081.825-.355 2.4-.609 3.5-1.423 6.16-1.637 9.774-.537 9.094.634-.392 1.219-2.148 1.302-3.903.142-3.024.171-3.047.566-.441.341 2.251.903 2.729 3.1 2.634 1.694-.073 2.038-.285.934-.573-1.506-.394-2.582-2.311-1.297-2.311 3.562 0 6.826 4.092 4.439 5.567-.69.426-.871 2.164-.48 4.611.651 4.067-.755 7.322-3.162 7.322-2.636 0-1.599 2.044 1.5 2.957 2.958.871 3.25 1.312 3.25 4.916 0 4.587.828 4.438 1.374-.247.47-4.041-.1-3.7 8.126-4.864l7-.99-6.872-.136c-5.309-.105-6.662-.421-5.948-1.386 1.506-2.037 1.632-7.939.189-8.831-.721-.446-.979-1.142-.573-1.548.405-.406 1.259-.216 1.897.422 1.615 1.615 3.807-.351 3.807-3.415 0-1.592.578-2.383 1.75-2.393 1.498-.013 1.534-.157.25-1-1.333-.876-1.333-1.094 0-1.97 1.297-.851 1.273-.986-.177-1-.922-.008-1.882.772-2.134 1.735-.344 1.317-.486 1.193-.573-.5-.093-1.808-.706-2.25-3.116-2.25-2.078 0-3-.49-3-1.594 0-.876-.895-1.827-1.989-2.113-1.094-.286-1.773-.869-1.51-1.295.263-.426-.867-.971-2.511-1.213-2.486-.365-3.002-.088-3.06 1.638m271.53 50.748c-6.101 3.726-8 5.868-6.21 7.005.817.518.412.799-1.167.809-1.329.008-2.138.294-1.797.634.34.341-.035 1.273-.834 2.071-.798.799-1.452 1.901-1.452 2.449 0 1.242 4.222.014 5.235-1.524.721-1.095 1.186-.093.831 1.793-.095.5.312 1.208.903 1.573s1.413 2.656 1.827 5.092c.59 3.475 1.214 4.494 2.902 4.737 1.183.17 2.884 1.43 3.782 2.799 1.075 1.642 2.227 2.301 3.378 1.936.961-.305 2.623.108 3.694.919 2.227 1.684 7.232 1.968 9.448.536 1.25-.808 1.166-.989-.5-1.088-1.1-.065-.312-.567 1.75-1.115 3.567-.947 3.751-1.198 3.765-5.146.01-2.721.313-3.681.879-2.788.729 1.151.962 1.151 1.492 0 .346-.75.401.662.123 3.137-.427 3.801-.321 4.189.685 2.5.654-1.1 1.266-4.025 1.358-6.5.092-2.475-.032-3.937-.276-3.25-.656 1.853-4.276 1.537-4.276-.372 0-1.329-.271-1.398-1.5-.378s-1.5.951-1.5-.378c0-2.081-.955-2.065-2.495.04-.799 1.094-1.855 1.418-3.082.947-1.132-.434-1.455-.991-.822-1.413 2.115-1.409 2.377-4.193.506-5.361-1.093-.683-1.644-1.89-1.359-2.979.286-1.094-.169-2.08-1.129-2.449-.884-.339-1.388-.972-1.119-1.407.269-.435-.184-1.048-1.006-1.364-.872-.335-1.494-.01-1.494.78 0 .745-1.109 2.081-2.465 2.969-3.321 2.176-4.227 2.037-2.092-.322.964-1.065 1.478-2.381 1.143-2.924-.336-.543.183-1.194 1.152-1.447 1.015-.265.491-.516-1.238-.591-2.089-.092-2.588-.393-1.643-.991.746-.473.953-1.11.459-1.414-.493-.305-3.129.808-5.856 2.475M72.07 249.25c-.072 2.827-1.511 3.723-2.408 1.5-.314-.779-.534-.621-.583.418-.043.918.225 2.46.596 3.427.626 1.632.729 1.62 1.43-.168.536-1.369.775-.72.825 2.241.09 5.331.872 7.312 2.927 7.411 1.038.05 1.182.265.393.583-.687.278-1.25 1.394-1.25 2.48 0 1.087.418 1.718.929 1.402.51-.315 1.124.446 1.363 1.691.24 1.246.497.326.572-2.044.082-2.589.535-4.062 1.136-3.691.55.34 1-.11 1-1s.455-1.337 1.012-.993c.562.348 1.284-.737 1.625-2.441.422-2.113 1.196-3.066 2.488-3.066 2.446 0 2.368-.838-.294-3.146-1.263-1.096-2.934-1.639-4-1.3-1.458.462-1.865.007-1.999-2.237-.093-1.549-.467-.117-.832 3.183-.631 5.703-.673 5.777-.847 1.5-.18-4.419-2.014-9.402-2.208-6-.058 1.01-.366.847-.945-.5-.762-1.772-.867-1.687-.93.75M322 274.086c2.098.744 1.937.809-1 .402-2.435-.338-3.051-.197-2.024.462 1.208.776 1.027 1.126-1 1.935-2.415.964-2.421.99-.226 1.052 2.137.06 3.351 2.063 1.25 2.063-1.369 0-1.205 1.145.481 3.371 1.533 2.025 6.729 1.599 6.263-.514-.134-.609.319-1.313 1.006-1.565.747-.274 1.25.38 1.25 1.625 0 1.555.633 2.083 2.5 2.083 1.375 0 2.5.477 2.5 1.059s-.486.759-1.079.392c-.594-.367-3.966-.358-7.493.02-7.165.767-7.19 3.213-.038 3.695 2.716.183 3.61.687 3.61 2.038 0 1.255.763 1.796 2.531 1.796 2.946 0 4.237-2.37 2.458-4.513-1.04-1.253-.812-1.487 1.448-1.487 1.712 0 2.433-.402 1.994-1.112-.378-.611-.132-1.455.548-1.875.878-.543.915-.96.128-1.447-.609-.376-1.114-.095-1.122.625-.028 2.351-1.953-1.501-1.97-3.941-.008-1.238-.465-2.25-1.015-2.25-.92 0-1.408 1.417-1.118 3.25.065.413-.332.75-.882.75s-1.006-1.012-1.014-2.25c-.034-5.729-.938-6.756-5.853-6.65-3.966.085-4.273.227-2.133.986m38 9.927c0 .469.983 1.164 2.183 1.545 1.881.597 1.501.953-2.75 2.572-4.073 1.551-5.107 1.644-5.933.536-.55-.738-1.675-1.155-2.5-.928-1.333.368-1.333.296 0-.647 1.247-.882 1.131-1.063-.691-1.076-1.205-.008-2.457.415-2.782.941-.325.526-1.252.703-2.059.393-.807-.309-1.468-.045-1.468.588s-.741 1.018-1.646.857c-.906-.162-1.843.269-2.084.956-.279.798.533 1.25 2.242 1.25 1.474 0 4.099.739 5.834 1.643 7.633 3.976 7.654 3.981 7.654 1.857 0-.868-.948-1.53-2.25-1.57-2.115-.066-2.131-.117-.266-.845 2.197-.858 5.743-.262 5.056.85-.824 1.333 3.48 4.065 6.221 3.949 1.693-.072 2.07-.291.989-.573-1.988-.52-2.285-1.862-.638-2.88.611-.378 1.457-.129 1.879.554.608.983.852.985 1.179.005.226-.679 1.968-1.366 3.871-1.525 7.49-.627 10.971-3.318 7.025-5.43-2.441-1.306-3.359-1.319-2.566-.035.34.55.141 1-.441 1s-1.059-.45-1.059-1-1.012-.948-2.25-.884c-1.809.093-1.892.208-.423.588 1.388.359.706 1.068-2.841 2.956-4.971 2.647-7.496 2.519-7.471-.379.011-1.199.264-1.39.777-.584.502.79 1.263.88 2.234.266.811-.513 1.024-.971.474-1.018-.55-.047-.161-.415.865-.819 1.538-.604 1.143-1.016-2.25-2.349-2.263-.889-4.115-1.233-4.115-.764m-19.712 87.274c.237.667 1.619 1.128 3.071 1.025 1.453-.104 2.641.234 2.641.75s-.45.938-1 .938-.212.828.75 1.839c1.014 1.066 2.202 1.497 2.824 1.024 1.616-1.227 3.426 1.155 3.426 4.508 0 1.634.77 3.822 1.71 4.861 1.476 1.631 1.51 2.017.25 2.814-1.134.717-.935.927.896.939 1.295.008 3.692 1.14 5.326 2.515 3.301 2.777 6.962 3.236 8.739 1.096 1.575-1.899.355-6.29-2.258-8.119-2.033-1.424-1.984-1.478 1.364-1.492 2.611-.012 3.1-.256 1.973-.985-1.169-.755-.893-.973 1.25-.985 1.512-.008 2.75-.465 2.75-1.015 0-.55-.702-1-1.559-1s-1.281-.45-.941-1c.34-.55-.421-1.045-1.691-1.1-2.278-.098-2.275-.11.191-.9 1.375-.44 1.994-.845 1.375-.9-.619-.055-1.398-1.466-1.732-3.135-.577-2.886-.718-2.963-2.875-1.579-2.244 1.441-13.091 1.589-17.403.237-4.334-1.359-9.507-1.55-9.077-.336" fill="#d3d3d3" fill-rule="evenodd"/></svg>