<svg xmlns="http://www.w3.org/2000/svg" width="500" height="500"><path d="M357.303 3.477c.489 3.015.178 3.757-2.324 5.538-2.914 2.075-3.131 4.985-.372 4.985.766 0 1.393.35 1.393.778 0 1.045-3.771 4.222-5.011 4.222-.544 0-.989.484-.989 1.075 0 .614-1.396.936-3.25.75l-3.25-.325.312 5.172c.288 4.798.162 5.134-1.749 4.634-1.133-.296-3.148.175-4.479 1.047-2.265 1.484-2.423 2.183-2.494 11.033-.078 9.665-1.155 14.614-3.182 14.614-.681 0-.947 1.018-.659 2.524.266 1.388.045 2.794-.49 3.125-.573.354-.415.96.384 1.476 1.125.726 1.101 1.043-.143 1.86-1.092.717-1.144.989-.191 1 .721.008.994.525.607 1.151-.627 1.014-.816 1.984-1.288 6.614-.139 1.363-2.243 1.28-3.266-.128-1.026-1.411-2.861.303-2.877 2.687-.01 1.397-.293 1.755-.78.988-.719-1.13-7.474 4.592-13.888 11.763-1.2 1.342-4.012 4.011-6.25 5.931-2.237 1.921-4.067 4.044-4.067 4.72 0 .675-.937 3.025-2.082 5.221-1.145 2.197-1.793 4.461-1.441 5.031.353.57-.123 1.037-1.058 1.037-2.234 0-4.344 2.874-4.403 6-.038 2.043-.241 2.226-1.107 1-.943-1.333-1.015-1.333-.647 0 .24.87-.819 2.254-2.521 3.294-2.368 1.448-2.816 2.27-2.319 4.25.502 2.001.242 2.456-1.403 2.456-1.11 0-2.019.599-2.019 1.331s-1.238 1.909-2.75 2.616c-1.512.707-3.425 1.685-4.25 2.175-.825.49-2.175 1.146-3 1.457-.825.312-2.338 1.02-3.363 1.573-1.025.554-2.758 1.179-3.85 1.389-1.093.21-3.042 1.522-4.332 2.914-2.323 2.506-3.983 2.084-2.9-.737.433-1.129-.057-1.345-2.146-.945-1.874.358-2.489.165-1.999-.628.39-.63.231-1.145-.351-1.145s-1.115.45-1.184 1c-.069.55-.181 1.42-.25 1.933-.069.513-2.248 2.587-4.842 4.608-2.594 2.021-4.972 4.48-5.285 5.464-.378 1.193-1.223 1.618-2.533 1.276-1.163-.304-1.965-.015-1.965.709 0 .677-.67.967-1.5.648-.825-.316-1.551-.027-1.614.643-.063.671-.261 2.457-.44 3.969-.186 1.571.159 2.75.805 2.75.622 0 .258.661-.81 1.468-1.829 1.383-1.741 1.47 1.509 1.5 2.479.023 3.145.337 2.366 1.116-1.227 1.227-.545 5.176.754 4.373.463-.287.589-1.182.279-1.989-.754-1.965.223-1.853 5.308.608l4.289 2.076-1.697 2.674c-.934 1.471-2.497 3.402-3.473 4.291-2.169 1.976-2.298 3.02-.276 2.245.825-.317 1.5-.062 1.5.566 0 .82.547.85 1.934.107 2.441-1.306 3.359-1.319 2.566-.035-.982 1.589.665 1.161 2.732-.71 1.429-1.293 2.075-1.411 2.649-.483.485.785 2.172 1.046 4.689.723 2.161-.277 4.795-.23 5.853.105 1.789.567 1.755.703-.5 1.952l-2.423 1.342 2.75.036c1.52.019 2.778-.524 2.813-1.215.035-.687.554-.125 1.153 1.25.897 2.06 1.163 2.192 1.51.75.514-2.139 1.941-2.323 1.941-.25 0 .825-.402 1.5-.893 1.5-.49 0-.633.419-.317.931.317.512.111 1.218-.457 1.569-.568.351-.732 1.125-.364 1.721.43.695 1.164.405 2.054-.811 1.213-1.66 1.3-1.153.699 4.098-.38 3.319-1.289 6.349-2.037 6.792-.744.44-1.352 1.569-1.352 2.509 0 2.473-3.979 4.831-5.119 3.033-.824-1.3-1.375.028-.999 2.408.065.412-.332.75-.882.75s-1.007.787-1.015 1.75c-.013 1.496-.157 1.532-.985.25-.646-1-.974-1.083-.985-.25-.008.688-.492 1.25-1.074 1.25-.582 0-.738-.52-.346-1.155.441-.713.275-.883-.435-.444-.631.39-2.726-.494-4.654-1.964-1.928-1.471-3.506-2.38-3.506-2.021 0 .36-1.012.093-2.25-.593-1.238-.686-2.621-1.141-3.074-1.011-.454.131-.572-.171-.264-.67.308-.499-.412-2.144-1.602-3.656-1.732-2.203-2.111-3.867-1.902-8.368.299-6.477-.738-6.474-1.51.006-.573 4.803-1.418 6.103-4.247 6.535-1.483.227-2.195-.808-3.397-4.936l-1.521-5.223-.159 9c-.233 13.192-1.994 19.915-5.321 20.309-1.433.171-3.122.931-3.753 1.691-.63.76-1.73 1.157-2.444.883-1.719-.66-2.985 2.734-1.388 3.721.68.42 1.661.502 2.179.181.544-.336.727.549.432 2.09-.281 1.47-.099 2.927.405 3.239.503.311-.007 1.365-1.134 2.343-1.128.978-2.05 2.907-2.05 4.288 0 1.38-.685 3.079-1.523 3.774-.879.729-1.273 2.049-.932 3.122.324 1.023.109 1.859-.478 1.859s-1.099-.787-1.137-1.75c-.039-.963-.69-.064-1.447 1.997-.757 2.061-2.748 5.211-4.425 7-3.695 3.942-3.968 5.579-.558 3.345 2.374-1.556 2.5-1.539 2.5.326 0 2.233-1.57 3.618-2.34 2.063-.28-.567-.38-.457-.22.244.159.701-.115 2.063-.61 3.025-1.118 2.174-4.309 2.406-3.437.25 1.799-4.446 1.669-4.877-.699-2.317-1.366 1.475-2.721 3.275-3.012 4-.421 1.046-.748 1.008-1.591-.183-.779-1.102-1.064-1.153-1.076-.191-.008.72-.371 1.089-.805.82-.435-.268-2.316.251-4.18 1.153-2.518 1.22-3.493 1.33-3.793.43-.222-.667-1.491-1.212-2.82-1.212-1.623 0-2.427-.575-2.449-1.75-.03-1.655-.103-1.656-1.343-.023-1.222 1.608-1.394 1.574-2.511-.5-.951-1.766-2.147-2.254-5.774-2.357-2.516-.072-4.902-.661-5.302-1.308-.794-1.286-5.605-.523-7.843 1.244-2.368 1.869-4.845-2.283-6.099-10.224-.94-5.959-.917-7.579.117-8.235.952-.604.837-.82-.444-.832-1.052-.009-1.996 1.041-2.407 2.677-.668 2.664-.684 2.669-1.51.436-.48-1.297-1.309-1.964-1.95-1.567-.695.429-.749.925-.144 1.314 1.767 1.136 2.404 4.792.837 4.792-.834 0-1.697-1.396-2.06-3.334-.692-3.689-1.905-4.245-3.455-1.583-.561.962-1.033 1.286-1.05.718-.016-.567-1.251-1.133-2.744-1.256-1.493-.124-3.095-.907-3.561-1.74-.467-.833-1.262-1.258-1.767-.946-.506.312-1.233-1.366-1.616-3.729l-.696-4.297-.866 3.5c-1.532 6.193-1.642 6.36-3.275 5.004-1.215-1.008-1.647-.762-2.472 1.409-.676 1.779-1.983 2.827-4.037 3.238-3.344.669-4.85 2.203-3.177 3.237 2.149 1.328-.606 3.18-7.623 5.125-3.944 1.093-8.246 1.987-9.561 1.987-1.315 0-4.093.711-6.173 1.58-3.389 1.416-5.91 1.782-18.419 2.674-4.445.316-6.002-2.454-6.044-10.754-.025-5.029-1.657-11.219-2.109-8-.322 2.291-1.748-8.441-1.816-13.668-.083-6.33-.825-9.104-2.208-8.249-1.606.992-5.876-3.865-4.673-5.316.804-.968.433-1.267-1.571-1.267-1.442 0-2.622-.47-2.622-1.044 0-.574-.562-.971-1.25-.881-.687.089-3.5.055-6.25-.075-4.458-.211-4.675-.319-2-1 2.425-.617 2.569-.786.75-.882-1.336-.07-2.25-.761-2.25-1.701 0-.871-.563-1.385-1.25-1.143-.688.243-1.188 1.175-1.113 2.073.076.898-.331 1.342-.904.988-.573-.354-.752-.175-.399.397.354.573-.051 1.618-.9 2.322-2.568 2.132-4.007 5.38-2.05 4.629.979-.376 1.616-.106 1.616.683 0 .999-1.836 1.197-7.866.848-5.191-.301-8.102-.074-8.559.665-.381.617-1.536 1.121-2.567 1.121-1.03 0-2.159.9-2.508 2-.349 1.1-1.335 2-2.19 2-1.269 0-1.326-.276-.31-1.5.86-1.036.898-1.5.122-1.5-.617 0-1.122-.675-1.122-1.5 0-2.289-1.396-1.806-4.342 1.5-1.471 1.65-3.345 3-4.166 3C.176 223 0 239.375 0 361.513v138.513l60.516-.042c62.362-.042 66.439-.288 64.889-3.912-.37-.865-.64-2.36-.601-3.322.04-.962-.327-1.75-.814-1.75-1.556 0 1.143-6.001 3.193-7.098 1.112-.595 1.734-1.676 1.426-2.479-.3-.783.005-1.423.678-1.423.674 0 1.822-1.35 2.553-3 .73-1.65 1.965-3 2.744-3 .779 0 1.416-.45 1.416-1s.445-1 .989-1c1.294 0 5.011-3.198 5.011-4.312 0-.477.97-1.653 2.155-2.612 1.185-.96 2.273-2.832 2.417-4.161.144-1.328.299-2.692.345-3.03.27-1.997 4.419-5.857 5.435-5.057 2.624 2.065 6.475 1.939 7.071-.231.441-1.601.781-1.781 1.438-.763.717 1.111.947 1.11 1.375-.005.282-.737-.074-1.889-.793-2.56-1.038-.97-1.415-.866-1.839.506-.292.949-.386.487-.207-1.025.203-1.711-.148-2.75-.929-2.75-.69 0-1.513-.675-1.83-1.5-.982-2.56-2.492-1.654-2.915 1.75-.391 3.151-.408 3.134-.563-.559-.109-2.597-.527-3.582-1.315-3.096-.715.443-.883.275-.44-.44.478-.775-.274-1.155-2.287-1.155-1.65 0-3.321-.52-3.714-1.156-.514-.831.243-.977 2.691-.518 3.085.579 3.231.506 1.555-.777-1.018-.779-1.554-1.896-1.191-2.482.362-.587.156-1.067-.459-1.067s-.873-.396-.574-.88c.299-.485-1.137-.802-3.191-.705-2.054.096-4.081-.295-4.503-.87-.767-1.043-3.118 1.866-3.195 3.955-.042 1.138-.816 1.5-3.204 1.5-.916 0-1.388-.279-1.047-.619 1.253-1.254-1.944-3.08-5.067-2.894-1.77.105-3.219-.186-3.219-.648 0-.461-.639-.839-1.421-.839-.781 0-1.717-1.35-2.079-3-.362-1.65-1.186-3.007-1.829-3.015-.679-.009-.54-.43.329-1 1.333-.876 1.333-1.094 0-1.97-2.047-1.344-2.997-1.259-2.633.235.168.688.132.96-.079.606-.724-1.214-4.671.478-6.748 2.892l-2.077 2.415-4.682-2.331c-2.838-1.413-4.702-3.021-4.732-4.082-.027-.962-.526-1.75-1.108-1.75-.582 0-.738-.52-.346-1.155.473-.763.271-.88-.595-.345-.926.572-1.07.422-.49-.515.587-.951.367-1.152-.778-.712-.878.337-3.989-.374-6.914-1.58-5.392-2.224-8.987-4.693-6.83-4.693.621 0 .841-.468.487-1.041-.354-.572-1.562-.749-2.684-.393-1.269.403-1.804.263-1.413-.369 1.019-1.649-.277-3.764-2.404-3.924-1.086-.082-1.974.221-1.974.673 0 .452-1.462.678-3.25.502-1.787-.176-3.839-.349-4.559-.384-.72-.035-1.055-.476-.744-.979.311-.503.225-1.104-.191-1.336-.416-.232-.199-.286.482-.121.681.165 1.134-.021 1.006-.414-.127-.393.833-2.43 2.134-4.528 1.3-2.098 2.471-5.161 2.6-6.807.13-1.646.75-3.507 1.379-4.136S73 387.996 73 387.258c0-.738.911-2.32 2.025-3.515 1.113-1.195 1.808-2.737 1.543-3.426-.264-.689-.05-1.519.476-1.844 1.888-1.167.898-3.056-2.217-4.232-2.279-.861-3.54-.894-4.472-.12-1.349 1.119-4.895-1.248-3.684-2.459.317-.317.233-1.383-.186-2.369-.42-.986-.857-2.67-.971-3.742-.115-1.072-.68-2.106-1.255-2.298-2.526-.842.017-4.298 3.114-4.232 1.72.037 5.265-.142 7.877-.397 3.308-.323 4.75-.096 4.75.748 0 .816 1.784 1.173 5.452 1.094 2.998-.065 5.251.205 5.007.601-.549.888 4.549 2.258 5.365 1.442.324-.324-.404-.848-1.618-1.165-4.334-1.134-2.098-2.142 4.134-1.863 7.296.325 11.503 1.38 9.771 2.45-.678.42 1.239 1.78 4.663 3.308 6.577 2.934 14.436 3.456 17.941 1.192 2.698-1.743 3.361-1.795 3.035-.238-.157.751 1.42 1.31 4.25 1.508 2.475.173 6.75.865 9.5 1.539 6.447 1.578 7 1.559 7-.24 0-.833 1.111-1.666 2.5-1.875 2.32-.347 2.356-.432.5-1.179-1.575-.634-1.228-.82 1.635-.876 3.442-.066 11.949-2.948 8.948-3.031-2.31-.064-.519-1.145 3.588-2.166 8.048-2 9.89-2.902 8.163-3.997-1.084-.687-1.064-.848.107-.861 1.049-.011.913-.445-.5-1.597-1.527-1.244-1.585-1.471-.274-1.063.917.285 1.905-.1 2.195-.855.293-.764-.226-1.578-1.167-1.831-1.456-.393-1.408-.551.342-1.124 2.116-.693 3.327-5.545 1.384-5.545-1.135 0-.214-4.133 1.115-5 1.555-1.014.708-13.455-.966-14.18-1.256-.543-1.17-.697.43-.765 1.691-.072 1.768-.25.5-1.146-.829-.587-1.053-1.25-.5-1.483.565-.238.853-3.035.661-6.424-.254-4.511-.006-6.006 1-6.017.831-.01.952-.294.319-.75-.562-.404-1.544-1.928-2.184-3.386-1.255-2.862.091-3.803 5.488-3.835 1.256-.008 3.633-1.394 5.282-3.081 3.53-3.612 6.607-3.596 6.089.031-.331 2.317-.239 2.29 2.25-.669 1.427-1.696 2.595-3.581 2.595-4.189 0-.608.338-1.053.75-.988 2.218.351 2.756-.533 2.82-4.628.051-3.281.663-5.058 2.25-6.537 1.257-1.171 2.18-3.24 2.18-4.887 0-1.57.864-5.715 1.92-9.211 1.055-3.495 2.128-7.255 2.384-8.355.408-1.757.478-1.72.58.309.064 1.27.546 2.043 1.072 1.718.526-.325.703-1.252.393-2.059-.682-1.778 1.272-1.992 1.992-.218.381.941.769.879 1.568-.25.867-1.226 1.063-1.243 1.076-.095.012 1.117.391 1.065 1.846-.252 1.007-.912 2.121-1.367 2.476-1.013.355.355 1.259.135 2.011-.489.751-.623 1.734-.8 2.184-.392.45.407.521.22.157-.416-.437-.764-.001-.984 1.284-.648 1.319.345 3.141-.651 5.655-3.093 2.04-1.981 3.983-3.602 4.318-3.602.335 0 1.054-1.01 1.597-2.244.543-1.234 1.887-2.352 2.987-2.483 1.1-.131 1.438.017.75.328-.687.311-1.25.903-1.25 1.316 0 .412.563.792 1.25.844.688.052 2.375.391 3.75.753 1.955.516 2.173.423 1-.426-1.153-.834-.691-.973 2-.6 3.026.419 3.161.358 1-.451-1.941-.726-1.381-.838 2.5-.5 4.922.428 4.946.417 1.5-.717-2.423-.797-2.962-1.277-1.75-1.559.962-.224 1.75-.915 1.75-1.534 0-.795.353-.774 1.2.073 1.586 1.586 2.8 1.522 2.8-.147 0-2.279 3.948-6.045 6.728-6.417 1.451-.194 3.216-1.114 3.923-2.045.943-1.24 1.294-1.325 1.317-.319.026 1.107.323 1.132 1.532.128.825-.685 1.5-.913 1.5-.507 0 .405 1.138-.008 2.528-.92 1.391-.911 2.954-1.393 3.474-1.072.519.321 1.712-.312 2.65-1.407.937-1.095 2.074-1.763 2.526-1.484.452.28.822.031.822-.551 0-.582.873-1.059 1.941-1.059s2.219-.45 2.559-1c.71-1.149 9.5-1.336 11-.235.55.404 1.045 1.41 1.1 2.235.055.825.423 2.512.818 3.75.536 1.681.321 2.25-.851 2.25-1.005 0-1.567.897-1.567 2.5 0 1.443.518 2.394 1.226 2.25.675-.137 1.375.717 1.556 1.898.182 1.181 1.205 2.377 2.273 2.656 2.064.54 3.612-.774 2.05-1.739-.51-.316-.803-1.711-.65-3.102.293-2.672 1.545-4.703 1.545-2.507 0 .965.337 1.009 1.342.175.738-.612 1.656-.8 2.04-.416.383.384.939-.226 1.234-1.355.404-1.546 1.136-1.939 2.961-1.59 2.009.384 2.426.059 2.438-1.903.013-1.895.209-2.068.985-.867.723 1.119.973 1.163.985.171.01-.934.847-1.147 2.804-.717 1.534.337 5.922.658 9.75.714 7.107.104 36.077 8.646 37.611 11.09.372.593 2.2.785 4.278.447 4.17-.676 12.572 2 12.572 4.005 0 .908 1.046 1.113 3.608.706 2.225-.354 3.377-.2 3.005.4-.331.536.042 1.221.828 1.523.786.302 1.603.028 1.816-.609.221-.664 1.39-.001 2.744 1.557 1.307 1.503 3.401 2.713 4.695 2.713 3.069 0 10.304 2.278 10.304 3.243 0 .417.427.757.948.757.522 0 2.144 1.108 3.605 2.461 1.46 1.354 4.661 3.432 7.113 4.619 2.956 1.432 4.275 2.632 3.916 3.567-.62 1.616 12.234 8 16.418 8.154 1.375.05 3.962.361 5.75.691 2.666.491 3.264.276 3.329-1.197.046-1.048.289-1.275.583-.545.703 1.741 2.338 1.566 2.338-.25 0-.825.45-1.5 1-1.5s1-.927 1-2.059c0-1.256.434-1.791 1.112-1.372.611.378 1.511.067 2-.691.745-1.156 1.047-1.136 1.873.122.772 1.176.988.906 1-1.25.008-1.512.368-2.75.799-2.75.432 0 1.583-1.352 2.559-3.004 1.938-3.281 5.856-3.387 8.376-.228.996 1.25 1.497 1.297 2.75.258 1.044-.867 1.531-.914 1.531-.148 0 .617.42 1.122.933 1.122.513 0 .895-1.35.848-3-.047-1.65-.414-3-.817-3-.402 0-.982-.959-1.288-2.132-.424-1.622-1.086-1.994-2.766-1.555-1.588.415-2.749-.109-4.132-1.868-1.058-1.345-2.775-2.445-3.815-2.445-1.041 0-2.424-1.013-3.074-2.25-.649-1.238-1.79-2.61-2.535-3.05-.745-.44-1.354-1.376-1.354-2.081 0-.704-1.125-1.883-2.5-2.619-1.736-.929-2.5-2.178-2.5-4.087 0-1.512-.258-3.422-.573-4.244-.335-.873.063-1.634.958-1.832 2.686-.591-.963-6.652-4.232-7.03-1.459-.169-2.654-.757-2.655-1.307-.002-1.811-4.604-7.5-6.066-7.5-.878 0-1.459-1.063-1.502-2.75-.048-1.872-.288-2.251-.75-1.188-.491 1.128-1.376 1.364-3.18.85-2.042-.582-2.133-.734-.5-.828 1.671-.096 1.753-.277.5-1.099-1.082-.71-1.178-1.194-.344-1.736.674-.438 1.2-3.666 1.262-7.75.179-11.872 1.31-23.441 2.475-25.326.399-.645.267-1.173-.294-1.173-.56 0-.924-1.349-.809-2.998.116-1.649.71-2.999 1.321-3 .646-.001.912-1.048.635-2.498-.263-1.373.249-4.028 1.138-5.901 1.852-3.902 2.052-6.215.616-7.103-1.642-1.015-1.266-7.816.397-7.178.951.365 1.532-.387 1.821-2.355.277-1.888-.07-3.08-1.001-3.437-.899-.345-1.167-1.189-.727-2.288.383-.958.871-3.542 1.083-5.742.282-2.934 1.19-4.686 3.406-6.573 3.164-2.695 4.12-5.563 1.521-4.565-.825.316-1.5.139-1.5-.393 0-.533.563-.976 1.25-.984.935-.012.914-.229-.085-.862-1.014-.643-.834-.976.75-1.391 1.2-.313 2.134-.054 2.2.612.064.636.176 1.831.25 2.656.173 1.925 5.667 1.506 7.245-.552 1.657-2.161 4.499-1.748 5.152.748.523 2.002.631 2.033 1.222.35.858-2.448 7.783-3.316 8.64-1.083.464 1.209 1.646 1.396 5.73.905 4.858-.584 7.076-1.863 6.065-3.498-.246-.399.371-.986 1.371-1.303 2.998-.952 2.995-8.315-.004-8.751-2.652-.386-7.786 1.843-7.786 3.38 0 .655-.551.591-1.468-.17-.808-.67-3.668-1.201-6.356-1.181-6.013.047-9.214-3.227-8.423-8.616.473-3.219.336-3.353-3.699-3.635-2.355-.164-4.952-5.757-5.634-12.138-.834-7.799-.834-7.455.009-11.206.463-2.064.347-3.25-.318-3.25-.577 0-.772-.72-.434-1.601.338-.88.211-1.893-.281-2.25-.493-.357-1.922-2.111-3.176-3.899L457.94 53h2.697c3.699 0 2.666-.685-1.953-1.294-4.056-.536-6.249-1.706-3.196-1.706 2.616 0-.664-3.576-4.062-4.429-1.417-.356-2.426-1.34-2.426-2.368 0-.967-.669-2.713-1.486-3.879-.817-1.167-1.997-5.43-2.621-9.473-.625-4.043-1.623-8.393-2.218-9.666-.693-1.481-.733-2.562-.111-3 .534-.377 1.073-4.387 1.198-8.911l.226-8.227-43.625-.025-43.625-.025.565 3.48M455.6 78.82c-.622 5.5-2.859 9.18-5.58 9.18-.526 0-.713.636-.415 1.413.319.83-.209 1.606-1.282 1.884-1.736.449-1.735.477.034.587 1.278.08 1.664.619 1.239 1.727-.443 1.153-.189 1.447.893 1.032 1.095-.421 1.511.095 1.511 1.877 0 2.393 2.663 6.48 4.222 6.48.428 0 .778-1.372.778-3.048 0-2.979.09-3.035 3.919-2.464 2.273.339 4.187.149 4.559-.452.352-.57.163-1.036-.419-1.036-.641 0-1.087-2.858-1.129-7.25-.058-5.943-1.617-14.325-1.86-10-.1 1.789-2.07 1.551-2.07-.25 0-.825-.45-1.5-1-1.5s-1-.648-1-1.441c0-4.201-1.839-1.702-2.4 3.261M439 209.059c0 .582-.526.734-1.17.336-.782-.483-.962-.182-.544.909.345.898.196 1.898-.33 2.223-.526.325-.92 1.352-.877 2.282.043.93.29 1.176.548.547.258-.629 1.289-.929 2.291-.667 1.546.404 1.765 1.308 1.441 5.963-.209 3.018.06 6.243.6 7.167 1.012 1.736 1.36.219 1.221-5.319-.047-1.861-.013-1.868.486-.105.432 1.526.709 1.623 1.42.5.709-1.12.886-1.053.899.335.012 1.337.707 1.65 3.055 1.377 3.186-.371 5.359-1.607 2.825-1.607-1.078 0-1.423-1.074-1.295-4.033.178-4.138-2.728-7.637-3.91-4.709-.296.732-.534.524-.581-.508-.043-.963-.529-1.75-1.079-1.75-.55 0-1-.9-1-2 0-1.333-.667-2-2-2-1.1 0-2 .477-2 1.059M435.177 219c-.577 1.375-1.079 1.869-1.114 1.097-.044-.981-.6-.784-1.85.657-.983 1.133-2.67 2.215-3.75 2.403-1.08.189-2.489.837-3.131 1.44-1.565 1.469-2.346 11.989-.992 13.343.747.747.73 1.06-.057 1.06-.614 0-1.317-.562-1.563-1.25-.245-.687-.772-.948-1.171-.579-.399.37.267 2.014 1.479 3.653l2.205 2.982 6.133-4.586c3.374-2.522 6.316-4.723 6.538-4.89.222-.167.573-4.247.781-9.067.236-5.473.036-8.251-.533-7.4-.768 1.151-.989 1.151-1.417 0-.339-.91-.856-.533-1.558 1.137" fill="#d3d3d3" fill-rule="evenodd"/></svg>