<svg xmlns="http://www.w3.org/2000/svg" width="500" height="500"><path d="M0 19.608v19.609l2.584-.649c1.588-.398 2.35-.27 1.977.333-.351.569 1.192 1.112 3.666 1.29 3.557.257 4.327.686 4.593 2.559.175 1.238.766 2.25 1.312 2.25.547 0 .853-.88.681-1.955-.172-1.075.025-1.975.437-2 2.896-.175 3.137-.032 1.95 1.155-.66.66-1.2 1.65-1.2 2.2 0 .556.533.467 1.2-.2.66-.66 2.037-1.2 3.059-1.2 1.022 0 1.581-.45 1.241-1-.34-.55.294-1 1.41-1 1.118 0 1.891.561 1.723 1.25-.168.688-.138.978.066.645.559-.912 5.301.203 5.301 1.246 0 .5 1.012 1.346 2.25 1.881 1.237.535 2.925 1.378 3.75 1.874.825.495 3.412 1.689 5.75 2.654 2.337.965 4.25 2.123 4.25 2.574 0 .451 2.401 1.518 5.337 2.372 2.935.853 6.291 2.44 7.458 3.527C59.962 60.111 62.042 61 63.418 61c1.673 0 3.757 1.395 6.292 4.212 4.651 5.168 12.143 12.738 18.791 18.986 2.75 2.584 5.751 5.772 6.67 7.084.919 1.311 2.298 2.385 3.065 2.385 2.003 0 7.764 4.468 7.764 6.021 0 1.497 1.603 1.763 2.442.406.308-.498 1.479-.666 2.602-.372 1.393.364 1.948.096 1.749-.844-.182-.855.751-1.498 2.457-1.694 1.512-.174 2.75-.723 2.75-1.219 0-.496.675-.643 1.5-.327.825.317 1.507 1.315 1.515 2.219.013 1.403.151 1.428.948.169.614-.971.524-1.732-.266-2.234-.888-.565-.895-.765-.029-.777 2.086-.027 4.334 1.173 3.804 2.031-.284.459 1.181.6 3.256.312 2.845-.395 3.403-.261 2.272.544-1.899 1.351-.464 1.381 4.007.085 1.921-.557 5.631-1.066 8.243-1.131 2.613-.064 4.75-.509 4.75-.987s.9.031 2 1.131 2.45 2 3 2c.55 0 1 .73 1 1.622 0 1.296.289 1.383 1.433.434 1.159-.962 1.776-.651 3.227 1.627.987 1.549 2.067 3.042 2.4 3.317 2.829 2.333 11.899 14.258 11.426 15.023-.332.537.055.977.861.977.973 0 1.29.672.943 2-.288 1.1-1.221 2-2.073 2-.853 0-1.239.312-.858.692 1.178 1.178 4.841 1.387 6.094.347.851-.706 4.024 1.793 11.119 8.758 5.46 5.361 11.388 10.778 13.173 12.039 5.186 3.665 3.224 12.405-2.575 11.471-1.425-.229-2.082.027-1.691.659.793 1.283.33 1.292-2.914.059-2.519-.958-3.793.313-1.315 1.313.747.301.545.536-.5.583-2.139.097-2.324 2.645-.25 3.441 1.658.636 2.09 4.638.5 4.638-.55 0-1 .689-1 1.531 0 .843-.608 1.765-1.352 2.05-.786.302-1.171 1.465-.919 2.78.247 1.296-.243 2.821-1.149 3.572-.869.722-1.58 2.157-1.58 3.189 0 1.033-.338 1.878-.75 1.879-.412 0-.9 3.462-1.083 7.691-.306 7.07-.199 7.579 1.326 6.314 1.369-1.137 1.802-1.146 2.477-.055.489.792 1.864 1.123 3.424.825 2.911-.557 2.992-.294 2.781 9.016-.067 2.942-.799 6.261-1.648 7.473-2.769 3.954-.273 10.729 4.514 12.248 2.243.712 1.693 2.487-.771 2.487-.887 0-2.435.745-3.441 1.655-1.006.91-1.829 1.174-1.829.587 0-.748-.88-.736-2.938.041-1.616.61-2.714 1.471-2.441 1.913.273.442-.383.804-1.458.804-1.076 0-3.442 1.688-5.258 3.75-1.815 2.063-3.675 3.633-4.131 3.491-.456-.143-1.09.42-1.409 1.25-.62 1.615-6.365 2.155-6.365.597 0-.746-2.836-.776-3.75-.04-.488.393-2.283.704-4.785.827-2.215.109-2.4.378-1.465 2.125.589 1.1 1.842 2.032 2.785 2.07 1.414.058 1.364.212-.285.875-1.1.443-2.338.609-2.75.371-.412-.239-.75.358-.75 1.325 0 1.3-.293 1.466-1.122.637-.617-.617-1.742-.884-2.5-.593-.831.319-1.378-.132-1.378-1.137 0-.916-.427-1.402-.95-1.079-.522.323-1.49-.438-2.15-1.691-1.706-3.239-2.647-3.624-6.647-2.722-2.626.592-4.18.383-5.997-.808-2.02-1.324-2.806-1.386-4.459-.353-1.136.709-1.718.787-1.343.179.862-1.394-.113-1.337-4.759.281-2.093.729-3.668 1.734-3.5 2.235.168.5.69.782 1.16.625.471-.157 1.439.199 2.153.792.851.706 1.417.729 1.645.067.226-.659.868-.674 1.847-.042 1.27.819 1.286 1.106.104 1.867-.767.495-1.119 1.62-.781 2.5.928 2.418-.512 1.934-4.162-1.399-1.806-1.65-4.399-3-5.762-3h-2.477l2.039 2.189c2.97 3.188 2.73 5.083-.461 3.629-1.375-.626-2.5-1.472-2.5-1.879 0-.407-1.237-.569-2.75-.359-7.893 1.091-10.307 1.749-9.984 2.718.196.587-1.021 2.351-2.705 3.919-1.8 1.676-2.443 2.788-1.561 2.698 3.736-.379 6.476.131 5.166.961-1.054.669-.967.986.417 1.518 1.335.512 1.474.949.584 1.839-2.083 2.083-1.242 2.872 2.345 2.199 2.966-.557 3.416-.409 2.895.949-.339.884-1.019 1.359-1.512 1.054-.492-.304-.895.345-.895 1.443 0 1.638.673 1.999 3.75 2.008 2.063.006 6.799.232 10.526.502 6.711.485 14.207-1.088 14.239-2.989.009-.494.334-1.399.723-2.01.956-1.501-.102-2.389-2.846-2.389-1.251 0-2.552-.45-2.892-1-.34-.55-.141-1 .441-1s1.059-.675 1.059-1.5c0-1 1-1.5 3-1.5 1.65 0 3 .441 3 .981 0 .539 1.125 1.263 2.5 1.608 1.375.345 2.5 1.307 2.5 2.136 0 1.016-.653 1.338-2 .985-1.1-.287-2-.115-2 .384 0 1.364 4.772 1.089 5.236-.301.267-.801 1.202-.463 2.772 1 1.608 1.498 1.907 2.212.931 2.222-1.211.013-1.201.169.061.985 1.333.862 1.333.979 0 1.055-.992.057-.822.359.5.892 1.1.443 2.491.415 3.092-.062s1.377-.582 1.726-.234c.348.349 1.207.176 1.908-.384 1.494-1.193 4.17-.998 8.089.592 1.548.627 3.236 1.141 3.75 1.141.514 0 .935.502.935 1.117s.877.887 1.952.606c1.074-.281 2.133.004 2.354.633.268.764 1.038.58 2.316-.551 1.053-.932 3.481-1.685 5.396-1.673 1.915.012 10.682-.094 19.482-.235 10.033-.16 17.305.172 19.5.891 4.616 1.513 24.998 1.37 24.407-.17-.244-.635.763-1.196 2.332-1.299 8.675-.569 16.922-2.319 10.928-2.319-1.467 0-2.667-.436-2.667-.969 0-.532-.629-.727-1.399-.431-.769.295-1.664.107-1.989-.418-.943-1.527 2.516-1.948 8.418-1.023 3.009.471 7.72.855 10.47.852 4.679-.005 27.811 1.904 49.5 4.085 10.199 1.025 24.404.482 33.731-1.291 6.821-1.297 13.235-1.173 18.763.362 4.559 1.265 14.099 1.121 16.666-.252 1.082-.58 1.948-.549 2.338.082.341.552 3.068 1.003 6.061 1.003 4.028 0 5.441.368 5.441 1.417 0 .779-.54 1.596-1.199 1.816-.751.25-.563.644.5 1.052.934.359 1.699.216 1.699-.316 0-.533.675-.969 1.5-.969s1.5-.377 1.5-.838c0-.461 1.575-.897 3.5-.97 1.925-.072 3.5.305 3.5.838 0 .534.9.97 2 .97s2-.337 2-.75c0-1.892 24.828-1.711 27.925.204.639.395 1.705.29 2.369-.233 2.581-2.036 34.037-3.566 45.706-2.223 3.575.412 6.589.68 6.697.595.108-.084.333-61.902.5-137.373L500.5 0H0v19.608m51.334 78.661c-.285.46-1.039.649-1.676.419-.637-.23-1.946-.013-2.908.482-1.177.606-1.75.521-1.75-.257 0-.854-.383-.84-1.456.051-.801.664-1.832.976-2.291.693-.459-.284-2.273.181-4.033 1.033-2.633 1.276-3.093 1.969-2.601 3.93.469 1.867.197 2.38-1.261 2.382-1.188.001-.596.633 1.642 1.753 3.066 1.535 3.584 1.566 4.18.249.374-.827.74-1.054.813-.504.074.55.548-.032 1.054-1.294.762-1.899 1.257-2.114 2.871-1.25 2.92 1.563 6.722 1.261 8.672-.688 1.643-1.644 1.706-1.596 1.223.928-.539 2.824 1.21 3.244 5.538 1.331 2.009-.888 3.967 1.046 3.195 3.157-.252.689.412 1.12 1.592 1.031 2.662-.201 1.885-4.631-1.726-9.842-2.521-3.638-9.628-5.95-11.078-3.604M11.67 253.033c-.644.903-2.52 2.279-4.17 3.059-1.65.779-3.444 2.427-3.987 3.662C2.97 260.989 2.182 262 1.763 262c-.42 0-.763 1.717-.763 3.816 0 3.41.425 4.055 4 6.064 2.2 1.236 4 1.755 4 1.152 0-1.639 4.347-3.014 5.235-1.656.424.649.741.128.75-1.233.011-1.763.425-2.2 1.642-1.733.894.344 2.213.138 2.929-.456 1.026-.852 1.447-.119 1.982 3.449.732 4.885 3.284 6.82 6.01 4.557 1.98-1.643 1.84-.046-.194 2.201-1.553 1.716-1.443 1.904 1.944 3.319 3.72 1.555 6.007 1.24 8.88-1.222 2.075-1.778 5.965-.794 5.16 1.305-.384 1-.084 1.277.952.879.832-.319 1.752-1.494 2.044-2.612.292-1.117.989-1.748 1.549-1.403.559.346 1.489-.254 2.067-1.333 1.531-2.861 1.225-3.91-.482-1.653-1.453 1.922-1.469 1.922-1.531 0-.053-1.619-.248-1.526-1.174.559l-1.11 2.5-.417-2.412c-.322-1.863-.621-2.09-1.311-1-.732 1.155-.897 1.106-.91-.271-.02-2.201-3.973-3.492-5.125-1.674-.666 1.052-.863.957-.875-.424-.008-.98-.662-2.03-1.452-2.333a1.534 1.534 0 0 1-.893-1.969c.299-.779.26-1.417-.088-1.417-.347 0-1.083 1.187-1.635 2.639-1.412 3.715-2.193 2.366-.854-1.476.606-1.738 1.47-2.933 1.919-2.656.449.278.99-.012 1.2-.644.283-.847.924-.861 2.433-.053 1.504.805 2.355.79 3.202-.057.634-.634 1.154-.725 1.155-.203 0 .522 2.707 1.069 6.015 1.215 5.953.263 5.994.246 4.072-1.676-1.143-1.143-2.74-1.731-3.886-1.432-1.462.383-2.105-.132-2.593-2.074-.356-1.421-1.315-2.583-2.129-2.583-.815 0-1.485-.337-1.489-.75-.01-1.015-4.957-3.25-7.191-3.25-.991 0-1.801-.502-1.801-1.117 0-.624-.882-.886-1.999-.594-1.099.288-2.239.135-2.532-.339-.293-.475-1.252-.587-2.131-.249-1.228.471-.815 1.03 1.782 2.414 1.98 1.055 2.685 1.819 1.703 1.843-.923.023-2.611 1.228-3.75 2.677-1.14 1.449-2.08 2.237-2.088 1.75-.008-.487-.57.204-1.25 1.536-.679 1.332-1.861 2.628-2.626 2.88-1.758.581-.864-3.606 1.933-9.051 1.059-2.062 1.596-3.822 1.192-3.91-4.108-.892-10.552-.228-11.564 1.193M207.993 374.25a11.596 11.596 0 0 0-.368 1.718c-.069.532-.984 1.97-2.034 3.197-1.22 1.425-1.5 2.365-.775 2.607 1.743.581 2.672.326 2.809-.772.285-2.281.554-2.401 1.272-.569 1.11 2.834.129 6.793-1.525 6.158-.754-.289-1.404.022-1.442.692-.039.671-.457.319-.93-.781-.735-1.71-.87-1.746-.93-.25-.038.962-.52 1.75-1.07 1.75s-.986 1.012-.968 2.25c.031 2.194.068 2.201 1.5.309 1.28-1.693 1.468-1.725 1.468-.25v2.441c0 .413-.863.75-1.917.75-2.831 0-3.545 1.219-1.158 1.976 5.717 1.815.598 3.83-6.087 2.396-2.801-.601-6.61-.846-8.465-.545-2.398.389-3.373.167-3.373-.767 0-1.648 2.458-3.769 3.342-2.885.362.362.658.133.658-.508 0-.642-.477-1.167-1.059-1.167s-.781-.45-.441-1 .179-1-.358-1c-.536 0-1.15.525-1.364 1.167-.238.713-1.239.254-2.573-1.177-1.201-1.29-2.484-2.044-2.851-1.677s.424 1.684 1.759 2.927c2.299 2.142 2.81 5.76.814 5.76-.51 0-1.817.89-2.904 1.977-2.179 2.179-5.487 1.674-4.576-.699.309-.805.787-2.659 1.063-4.121.497-2.635.49-2.633-.869.25-.835 1.772-1.543 2.386-1.814 1.573-.27-.81-.955-1.019-1.743-.532-1.056.653-1.046.957.051 1.635 1.129.698 1.126 1.044-.018 2.125-.881.832-1.506.919-1.758.245-.215-.576-1.958-.865-3.875-.641-1.916.224-3.484-.023-3.484-.549s-1.563-.852-3.472-.724c-4.127.277-6.319-1.638-4.04-3.529 1.22-1.012 1.512-.999 1.512.068 0 .985.289 1.033 1.133.189.623-.623.824-1.938.446-2.922-.585-1.525-.826-1.572-1.633-.317-.822 1.279-1.068 1.282-1.874.03-.637-.991-.433-1.805.653-2.599 1.626-1.189.875-3.948-.794-2.916-.512.316-.946-.014-.964-.734-.053-2.058-3.967 3.174-3.967 5.302 0 1.039-.603 1.889-1.34 1.889-.737 0-2.425 1.495-3.75 3.323-2.104 2.901-2.981 3.327-6.91 3.355-2.475.018-5.573.098-6.885.178l-2.385.144 2.635 2.073c3.396 2.671 3.319 3.403-.371 3.534-2.419.086-2.783-.157-1.875-1.25.872-1.051.747-1.357-.556-1.357-1.016 0-1.399.457-.968 1.155.443.715.275.883-.44.44-.691-.427-1.155-.063-1.155.905 0 .89-.45 1.34-1 1-.55-.34-1-.093-1 .548s.619.929 1.375.638c.939-.36 1.375.259 1.375 1.952 0 1.761-.422 2.318-1.457 1.921-.801-.307-1.645-.559-1.875-.559-.23 0-.418-.675-.418-1.5s-.477-1.5-1.059-1.5-.8.419-.484.931a1.086 1.086 0 0 1-.336 1.494c-.501.31-1.184-.146-1.516-1.013-.859-2.237-.789-2.412.954-2.412.857 0 1.28-.451.94-1.002-.341-.551-2.888-.834-5.66-.629-2.772.206-4.507.044-3.856-.359.825-.51.636-.942-.623-1.425-1.091-.419-2.214-.142-2.834.698-.564.766-1.588 1.203-2.276.971-.687-.231-1.25.067-1.25.663 0 .595-1.125 1.083-2.5 1.083s-2.5-.45-2.5-1 .469-1 1.042-1c.573 0 2.01-.903 3.194-2.006 1.217-1.133 2.902-1.768 3.874-1.459 2.251.714 3.103-.786 2.055-3.619l-.84-2.269-.619 2.371c-.607 2.32-.663 2.331-2.663.521-1.823-1.65-2.043-1.671-2.043-.194 0 .91-.675 1.655-1.5 1.655s-1.5-.468-1.5-1.039c0-.6-.589-.494-1.393.25-1.177 1.09-1.065 1.413.726 2.09 2.811 1.064.515 2.584-2.912 1.929-1.943-.372-2.321-.133-1.828 1.151.721 1.879.041 2.028-2.659.584-1.064-.57-1.934-1.743-1.934-2.607 0-.955-.563-1.356-1.435-1.021-.79.303-1.654.013-1.921-.643-.291-.715-.518-.561-.565.383-.06 1.189-.852 1.463-3.221 1.115-2.274-.333-2.937-.129-2.399.741.466.755-.053 1.41-1.4 1.762-1.262.33-2.029 1.226-1.867 2.182.271 1.6-.261 2.123-2.161 2.123-.532 0-.742-.589-.466-1.308.658-1.716-2.828-5.692-4.991-5.692-.931 0-1.409.457-1.064 1.016.346.559.996.789 1.445.512.839-.519 2.042 2.797 1.986 5.472-.017.825-.649.15-1.405-1.5-.755-1.65-1.41-2.437-1.455-1.75-.044.688-.694 1.25-1.442 1.25-.913 0-1.204-.824-.884-2.5.266-1.392.009-2.5-.579-2.5-1.759 0-2.525 2.166-1.082 3.058 1.084.67 1.02.961-.324 1.477-.921.353-2.194.321-2.829-.071-.831-.514-.968.232-.487 2.661.43 2.173.339 2.9-.254 2.041-.74-1.071-1.05-.999-1.573.363-.453 1.182-1.026 1.401-1.889.722-2.566-2.02-10.735-2.385-10.77-.482-.03 1.632-.108 1.631-1.36-.019-.731-.962-2.534-1.75-4.008-1.75-2.241 0-2.468.228-1.389 1.395.709.767 1.626 1.191 2.039.941.413-.25.75.071.75.712s.675.907 1.5.59c.825-.316 1.5-.124 1.5.429 0 .629.793.579 2.127-.135 1.628-.871 2.308-.846 2.897.106.515.835 2.288 1.074 5.373.727 3.879-.438 4.603-.25 4.603 1.191 0 2.604.819 2.933 4.661 1.872 4.08-1.126 4.673-.834 3.61 1.777-.853 2.095-3.271 3.04-3.271 1.278 0-.627-.884-.885-2.018-.589-1.109.291-2.684-.139-3.5-.954-1.309-1.31-1.482-1.3-1.482.089 0 1.318-1.53 1.571-9.5 1.571-7.778 0-9.5.272-9.5 1.5 0 .921.936 1.5 2.427 1.5 1.47 0 2.607.69 2.884 1.75.435 1.667.463 1.667.573 0 .067-1.014.918-1.75 2.022-1.75 1.93 0 1.941 3.359.015 4.549-2.666 1.648-10.983 1.382-14.255-.456-3.364-1.889-15.878-3.215-17.264-1.829-1.046 1.047-3.401-.415-3.417-2.121-.014-1.436-.152-1.454-1.095-.143-.91 1.266-.991 1.227-.516-.25.608-1.891-1.783-2.515-2.874-.75-.34.55-1.518 1-2.618 1-1.1 0-1.762-.385-1.471-.856.291-.47-.583-.643-1.941-.383C-.243 422.28-.936 424 1.567 424c1.113 0 1.383.581.933 2-.364 1.147-.18 2 .433 2 .587 0 1.067.675 1.067 1.5 0 1.626 6.547 2.225 7.167.655.183-.464 2.02-1.111 4.083-1.437 3.229-.51 3.75-.327 3.75 1.313 0 1.328.48 1.722 1.584 1.298 1.275-.489 1.324-.772.25-1.453-.921-.584-.508-.85 1.334-.861 1.468-.008 3.38-.288 4.25-.622.87-.334 1.582-.109 1.582.5s-.788 1.121-1.75 1.137c-1.662.029-1.661.082.008 1.055 2.116 1.232 3.736.415 3.757-1.894.012-1.309.207-1.39.862-.356.466.735 1.14 1.258 1.5 1.163.359-.096 3.908.392 7.888 1.083 3.979.692 12.41 1.294 18.735 1.338l11.5.081.1 2.686c.09 2.411-.398 2.806-4.757 3.852-3.006.721-5.598 2.107-6.802 3.637-1.76 2.238-2.397 2.404-6.743 1.758-2.639-.393-7.048-.805-9.798-.917-2.75-.112-5.225-.31-5.5-.442-1.946-.929-6.341-.962-8.025-.061-1.572.842-2.377.727-3.617-.513-1.441-1.44-1.761-1.445-3.306-.047-2.336 2.114-3.312 1.941-2.552-.453.797-2.512-2.554-2.803-4.929-.429C13.143 443 13 443 13 441.571c0-2.261-3.743-1.955-5.232.429-.687 1.1-2.096 2-3.131 2-1.507 0-1.648-.281-.711-1.411 1.422-1.713.042-2.805-1.974-1.561-2.051 1.265-2.764 33.795-.771 35.196 1.035.729 1.05 1.037.069 1.435-.893.363-1.25 3.628-1.25 11.424V500h28.417c21.797 0 28.534-.291 28.921-1.25.403-1 .52-1 .583 0 .167 2.649 2.079 1.094 2.079-1.691 0-1.618.45-3.219 1-3.559 1.053-.651 1.341.526 1.039 4.25-.145 1.797.335 2.25 2.389 2.25 1.415 0 2.579-.337 2.587-.75.059-2.869 4.985-3.94 4.985-1.084 0 .524-.45.674-1 .334s-1-.141-1 .441c0 1.516 1.69 1.308 4.535-.556 3.336-2.186 3.104-3.043-1.035-3.819-4.164-.781-4.644-2.509-.75-2.702 2.358-.117 2.429-.198.5-.57-2.247-.432-2.744-1.726-2.355-6.127.156-1.762-.234-2.248-1.594-1.986-.991.19-1.857.903-1.926 1.583-.069.68-.181 1.686-.25 2.236-.069.55-1.362 1.061-2.875 1.136-2.443.121-2.492.186-.442.577 3.215.615 2.178 2.723-1.521 3.092-2.501.249-3.921-.546-7.793-4.363-4.586-4.522-4.715-4.81-4.114-9.195.341-2.489.62-6.263.62-8.387 0-2.663.439-3.86 1.417-3.86.779 0 1.566-.345 1.75-.767.794-1.83 14.401-6.252 17.333-5.633 1.65.348 3.45.606 4 .573 3.93-.238 10.7-1.257 14.415-2.171 3.182-.783 4.603-.782 5.088.003.454.734 1.091.586 1.955-.454 1.877-2.262 91.588-.904 93.017 1.408 1.684 2.725 6.529 2.959 31.218 1.51 13.86-.814 25.927-1.248 26.816-.966 1.328.421 1.538 1.629 1.174 6.755-.471 6.634-2.412 11.193-3.527 8.287-.383-.997-1.869-1.545-4.19-1.545-1.979 0-4.423-.442-5.432-.982-1.362-.729-1.98-.6-2.403.5-.372.97-1.961 1.482-4.6 1.482-3.865 0-4.034.133-4.108 3.25-.042 1.788-.21 3.925-.374 4.75-.164.825-.626 5.212-1.027 9.75l-.73 8.25h3.493c3.155 0 3.549-.314 4.072-3.25.918-5.142 1.016-17.337.151-18.737-.52-.842-.317-1.118.603-.817.999.327 1.644 3.596 2.296 11.63.788 9.707 1.14 11.174 2.686 11.174 1.625 0 1.743-.965 1.357-11.073-.232-6.09-.66-11.458-.951-11.928-.81-1.311 3.188-2.227 6.523-1.494 1.638.36 2.978 1.293 2.978 2.074 0 .782.511 1.421 1.136 1.421.822 0 .942 2.914.433 10.504l-.703 10.504 126.817-.254L500.5 499.5l.252-28.25.253-28.25h-4.919c-3.024 0-5.096.482-5.378 1.25-.366 1-.723 1-1.783 0-.729-.687-2.472-1.285-3.875-1.327-2.046-.062-1.759-.322 1.45-1.32 2.2-.684 5.125-.963 6.5-.621 1.375.342 3.063.543 3.75.445.688-.097 1.813-.265 2.5-.372.688-.108.35-.582-.75-1.055-1.71-.735-1.746-.87-.25-.93 1.372-.055 1.762-.989 1.807-4.32.031-2.337.096-6.95.144-10.25.048-3.3.022-13.284-.057-22.187L500 386.126l-3.655.593c-2.629.426-3.455.268-2.941-.563.501-.811-.664-1.156-3.904-1.156-2.824 0-4.378-.388-4-1 .348-.562-.451-1-1.824-1-1.582 0-2.623.688-2.953 1.953-.39 1.49-1.138 1.839-3.158 1.473-1.455-.264-3.416-.049-4.356.478-1.328.745-.542 1.113 3.522 1.654 2.877.382 4.983 1.095 4.681 1.585-.303.489-.862.697-1.244.461-.381-.236-1.812.217-3.181 1.006l-2.487 1.435 2.407-.273c1.34-.151 2.612.33 2.869 1.086.366 1.073-.426 1.208-3.776.642-3.348-.566-4.144-.431-3.786.642.32.962 2.761 1.43 8.369 1.605 9.175.285 10.417.617 10.417 2.781 0 .874-.45 1.312-1 .972-.55-.34-1-.141-1 .441s-.675 1.059-1.5 1.059c-2.077 0-1.888-1.752.25-2.311 1.317-.344 1.193-.486-.5-.573-1.318-.068-2.25.464-2.25 1.285 0 1.94-10.744 3.793-13.497 2.327-1.287-.685-1.554-1.211-.75-1.479 1.694-.565 1.584-2.249-.146-2.249-.766 0-1.663-.704-1.994-1.565-.476-1.241-.134-1.421 1.643-.867 2.16.672 2.179.625.508-1.249-1.309-1.467-1.453-2.23-.587-3.096.867-.867.238-1.002-2.553-.549-2.966.481-4.171.161-6.056-1.61-1.756-1.65-2.487-1.875-2.881-.887-.342.855-.557.906-.608.143-.058-.865-.947-.917-3.329-.195-1.788.541-4.011 1.154-4.941 1.361-5.587 1.243-17.433 4.886-18.93 5.821-1.362.851-2.181.736-3.573-.502-2.326-2.069-9.356-3.987-10.74-2.93-.586.448-3.245 1.405-5.908 2.125-2.663.721-6.643 2.816-8.844 4.656-4.795 4.006-5.452 4.062-9.814.844-1.864-1.375-3.783-2.5-4.266-2.5-2.163 0-3.954-3.03-2.691-4.552.683-.823 1.065-1.622.85-1.775-3.171-2.25-6.216-3.673-7.858-3.673-1.307 0-2.035-.656-2.035-1.835 0-2.519-5.025-6.782-9.12-7.737-3.165-.737-4.656-.747-9.21-.062-2.036.306-3.639 2.347-3.639 4.634 0 1.202.167 1.235.845.166.689-1.087.951-1.059 1.416.152.826 2.152-.152 2.686-2.961 1.618-5.953-2.264-21.784 1.903-19.748 5.198.294.476-.335.866-1.399.866-1.341 0-2.115-.903-2.523-2.946-.738-3.69-3.532-5.22-9.875-5.408-5.288-.156-4.931-.411-10.786 7.718-2.594 3.601-7.52 5.516-9.388 3.648-1.306-1.306-7.306-1.315-8.112-.012-.34.55-.141 1 .441 1s1.059.955 1.059 2.122c0 1.774-.247 1.918-1.5.878-1.229-1.02-1.5-.951-1.5.378 0 .892-.205 1.622-.455 1.622-.987 0-5.298-4.914-4.772-5.439.308-.309-.19-.561-1.106-.561-1.447 0-2.181 1.747-1.785 4.25.065.413-.557.75-1.382.75-.825 0-1.5.852-1.5 1.893s-.788 2.198-1.75 2.571c-1.655.642-1.651.751.06 2.011 1.404 1.034 1.52 1.512.517 2.132-1.822 1.126-4.827 1.23-4.827.167 0-.491-.45-.614-1-.274-.55.34-1-.046-1-.858 0-.811.563-1.702 1.25-1.98.829-.334.726-.531-.304-.583-2.108-.107-7.946-6.262-7.946-8.377 0-.936-.45-1.702-1-1.702s-1-.675-1-1.5-.675-1.5-1.5-1.5-1.5-.45-1.5-1-1.129-1-2.51-1c-1.795 0-3.288-1.127-5.25-3.962-2.447-3.539-4.671-4.707-7.74-4.066-.55.115-3.25.375-6 .578-4.249.313-8.623.799-13 1.443-.55.081-.1.534 1 1.007 1.1.473 1.438.891.75.93-.687.038-1.25.835-1.25 1.77 0 1.322-.267 1.433-1.2.5-1.67-1.67-2.852-1.499-2.157.311.4 1.042.119 1.335-.903.943-.815-.313-2.115.064-2.89.838-1.502 1.503-4.489-.275-3.04-1.81.38-.402-.322-.419-1.56-.039-1.764.542-2.247.299-2.236-1.126.026-3.461 1.199-6.212 2.839-6.657 1.304-.355 1.173-.6-.626-1.177-2.135-.684-2.165-.811-.5-2.074 1.653-1.255 1.621-1.348-.477-1.377-1.642-.023-2.282.576-2.368 2.218-.096 1.819-.265 1.675-.882-.75-.42-1.65-.873-2.663-1.007-2.25M294 401.933c0 .553-.749.717-1.664.366-1.066-.409-1.421-.246-.988.455.372.602-.116 1.282-1.086 1.51-1.328.314-1.084.605.988 1.184 2.813.786 3.943 4.696 1.75 6.052-.55.34-1 .141-1-.441s-.388-1.059-.861-1.059c-.474 0-.645 1.131-.381 2.514.365 1.911.129 2.38-.985 1.952-.807-.309-2.548-.686-3.87-.837-4.216-.482-7.906-1.815-7.38-2.667.28-.453.052-1.106-.507-1.452-.559-.345-1.016-.183-1.016.361 0 .545-.965 1.134-2.144 1.309-2.011.3-1.932.532 1.25 3.698 2.181 2.17 2.947 3.54 2.144 3.833-1.208.44-1.815 3.289-.7 3.289.302 0 1.989-.765 3.75-1.7 2.464-1.309 2.798-1.785 1.45-2.073-.962-.206-1.75-.788-1.75-1.294 0-1.013 3.539-.727 4.641.375 1.066 1.066 5.359.819 5.359-.308 0-.55.739-1 1.642-1 .903 0 2.932-1.35 4.508-3 2.11-2.207 2.447-3 1.277-3-1.242 0-1.486-.77-1.116-3.522.37-2.741.055-3.747-1.418-4.535-1.261-.675-1.893-.678-1.893-.01m-190 24.888c-3.65.335-6.781 2.179-3.7 2.179.935 0 1.7.461 1.7 1.025 0 .599 1.872.885 4.5.688 2.475-.187 4.5.05 4.5.526 0 .476 1.374 1.344 3.054 1.93 3.893 1.357 3.855 5.205-.054 5.555-1.375.123-1.937-.027-1.25-.334 1.787-.796 1.552-2.443-.25-1.752-.825.317-1.5.14-1.5-.392 0-.61-1.458-.579-3.941.084-2.168.578-3.767 1.334-3.554 1.679.214.345-.447 1.229-1.468 1.964-2.456 1.771-1.582 3.675 2.599 5.658 2.914 1.384 5.625 1.516 18.398.9 9.784-.472 20.573-.273 31.103.573l16.122 1.294 1.958-2.417c1.775-2.193 2.717-2.422 10.12-2.455 4.621-.021 9.356.518 10.913 1.244 1.512.705 2.75.975 2.75.601 0-.375.787.024 1.75.885 1.4 1.252 4.654 1.596 16.25 1.715 18.012.186 19.553.18 32.556-.133l10.556-.255-.627-2.541c-.933-3.785-1.737-4.221-8.133-4.417-3.219-.099-6.302-.453-6.852-.787-.55-.335-4.6-.689-9-.789-13.933-.314-14.5-.364-14.5-1.287 0-.498-1.012-.789-2.25-.647-1.238.142-3.375-.128-4.75-.6s-3.767-.771-5.316-.665c-1.549.105-4.062-.695-5.585-1.78-1.523-1.084-3.856-2.176-5.184-2.427-1.328-.252-4.461-1.161-6.962-2.021-2.5-.86-5.875-1.342-7.5-1.071-1.785.297-2.452.159-1.685-.349.735-.489-2.624-.87-8-.909-6.131-.044-7.914.155-5.268.589l4 .656-3.492.754c-2.098.454-3.623.362-3.82-.229-.181-.542-1.691-.712-3.36-.379-1.94.388-3.311.153-3.81-.655-.84-1.359-17.671-1.656-22.676-.4-2.505.629-2.552.744-.809 2.019 1.562 1.142 1.6 1.352.241 1.352-.884 0-1.836-.562-2.115-1.25-.399-.984-.702-.972-1.428.058-.614.872-2.698 1.205-6.263 1-5.091-.294-5.26-.39-3.584-2.058 1.677-1.668 1.58-1.754-2.063-1.831-2.101-.045-4.946-.157-6.321-.25s-4.075-.024-6 .152m-79.882 35.546c-1.186 4.603.176 6.633 4.451 6.633 1.203 0 2.868 1.012 3.7 2.25 1.998 2.972 3.031 1.759 3.193-3.748.09-3.09-.275-4.502-1.165-4.502-.713 0-1.297-.382-1.297-.848 0-.467-1.759-1.539-3.908-2.384l-3.908-1.535-1.066 4.134m126.111-.617c-1.617 2.063-3.493 4.805-4.17 6.094-.934 1.781-1.751 2.184-3.395 1.678-1.19-.367-2.834-.709-3.652-.761-.819-.052-2.117-.723-2.886-1.492-2.548-2.548-3.515.303-3.384 9.973.123 9.023.092 9.157-1.231 5.258-1.183-3.486-1.367-3.654-1.434-1.309-.042 1.48-.534 2.974-1.093 3.319-.559.346-.787 1-.506 1.454.445.72-1.618 2.036-3.189 2.036-.301 0-.241-3.109.133-6.909.476-4.831.331-7.125-.482-7.628-1.908-1.179-2.908 1.655-2.925 8.287-.012 5.214-.305 6.278-1.765 6.421-3.731.365-4.843.556-7.532 1.296-2.691.741-6.718-2.029-6.718-4.62 0-2.753-8.556-.353-13 3.648-5.648 5.083-6.556 3.075-6.032-13.332.199-6.2-1.324-12.163-3.106-12.163-.515 0-.626 5.953-.261 14 .599 13.225.531 14.001-1.234 14.015-1.069.009-1.425.33-.834.75 1.462 1.039 1.225 6.235-.283 6.235-.687 0-1.25.45-1.25 1 0 .624 5.833 1 15.5 1 15.389 0 15.5-.016 15.563-2.25l.064-2.25.904 2.25c1.548 3.852 3.299 2.717 2.596-1.682-.692-4.326-.698-4.321 6.873-5.534 2.2-.352 4.703-.845 5.563-1.095 1.211-.353 1.581.39 1.644 3.303.144 6.581.271 7.258 1.364 7.258.59 0 1.827-.755 2.75-1.679 1.572-1.571 1.7-1.571 2.002 0 .246 1.276 1.407 1.679 4.833 1.679h4.509l-.306-4.25c-.169-2.337.067-7.244.523-10.903.827-6.624.845-6.655 4.224-7.049 1.867-.218 3.394-.01 3.394.462 0 .472.419.599.931.283 1.432-.885 2.377 1.38 1.179 2.825-.746.898-.748 1.594-.006 2.336.742.742.741 2.197-.002 4.888-1.636 5.924-.421 11.408 2.526 11.408 2.307 0 2.372-.229 2.372-8.362v-8.361l5.57.08 5.57.081-.666 3.531c-1.575 8.349-1.605 13.031-.083 13.031 1.584 0 2.118-1.256 3.187-7.5 1.045-6.103 2.165-7.665 5.239-7.31 2.934.339 2.878.179 3.058 8.81.131 6.265 2.125 8.612 2.125 2.5 0-3.333.167-3.5 3.5-3.5 3.552 0 4.05.713 3.67 5.25-.109 1.301.603 1.75 2.774 1.75 3.543 0 3.941-1.02 4.292-11 .221-6.276-.058-7.867-1.708-9.75-3.062-3.493-4.526-2.848-4.543 2-.024 6.694-1.289 7.433-3.872 2.262-2.484-4.973-3.6-5.582-4.428-2.415-.541 2.07-.588 2.073-3.669.253-2.402-1.419-2.969-2.304-2.463-3.846 1.64-4.995 1.67-15.074.048-16.42-1.864-1.548-1.97-.857-.6 3.921.694 2.418.649 5.288-.147 9.331-1.193 6.064-2.817 7.77-5.375 5.646-.847-.703-2.902-1.026-4.737-.745-4.332.662-5.742.029-5.742-2.58 0-2.409-3.519-5.245-4.513-3.637-1.302 2.108-7.487.423-7.487-2.039 0-.341 1.787-3.015 3.971-5.942 5.472-7.335 3.841-10.413-1.742-3.289m316.408 10.875c1.069.438.995 7.13-.112 10.125-.254.688-.101 1.25.34 1.25.441 0 .621 2.925.4 6.5-.22 3.575-.033 6.556.417 6.624 9.042 1.37 13.901-1.398 9.747-5.553-1.429-1.428-1.384-1.571.5-1.571 1.174 0 2.071-.649 2.071-1.5 0-.825.702-1.5 1.559-1.5s1.281.45.941 1c-.34.55.11 1 1 1s1.358-.421 1.04-.935c-.318-.515.893-1.118 2.691-1.34 2.419-.3 1.969-.451-1.731-.58-7.318-.257-3.693-1.962 4.301-2.023 3.553-.028 6.701-.291 6.996-.586.295-.295-.716-.536-2.247-.536-2.326 0-2.694-.341-2.24-2.079.409-1.561.168-1.935-.965-1.5-.83.318-2.623.579-3.986.579-1.397 0-2.207.436-1.859 1 .34.55-.309 1-1.441 1-1.132 0-2.066.563-2.074 1.25-.011.865-.242.911-.75.15-.404-.605-1.41-1.357-2.235-1.671-1.002-.382-.753-.597.75-.65 3.709-.13 2.537-2.079-1.25-2.079-2.389 0-3.54-.476-3.625-1.5-.236-2.837-.377-3.335-1.165-4.123-.434-.434-1.041.172-1.348 1.347-.352 1.346-1.094 1.932-2.004 1.583-1.218-.467-1.178-.848.254-2.431 1.63-1.801 1.561-1.873-1.707-1.797-1.873.043-2.893.289-2.268.546m-254.523 6.957c-1.117 1.421-2.32 3.492-2.673 4.604-.858 2.703-4.282 7.536-8.371 11.814-2.649 2.771-3.004 3.567-1.708 3.823 2.412.476 6.579-3.21 10.781-9.538l3.71-5.587.659 3.515c.363 1.934.569 4.364.459 5.401-.623 5.84 1.279 9.09 2.274 3.886.263-1.375.06-2.5-.451-2.5s-.623-.964-.249-2.143c.375-1.179.095-3.917-.62-6.084-.916-2.774-.996-4.435-.271-5.607 2.497-4.04-.539-5.398-3.54-1.584" fill="#d3d3d3" fill-rule="evenodd"/></svg>