<svg xmlns="http://www.w3.org/2000/svg" width="500" height="501"><path d="M.031 91.522c.027 50.337.308 92.199.626 93.026.415 1.081.929 1.21 1.833.46 1.358-1.127 4.51-.359 4.51 1.099 0 .491-.337.781-.75.643-.412-.137-.862.2-1 .75s.2 1.056.75 1.125c2.118.265 2.211.416 1.081 1.778-.894 1.077-.865 1.523.127 1.921.989.396.999.537.042.597-.687.043-1.25.743-1.25 1.554 0 1.106-.751 1.325-3 .875-2.601-.52-3-.309-3 1.584 0 1.201.376 1.952.836 1.668.459-.285 2.147-.125 3.75.355 2.3.687 2.462.889.771.957-1.754.07-3.357 1.797-3.357 3.616 0 .201 1.374-.113 3.054-.699 2.584-.9 3.273-.777 4.469.802 1.844 2.436 1.828 3.367-.058 3.367-.845 0-2.645.727-4 1.615-1.443.946-2.465 1.166-2.465.531 0-.596-.675-.824-1.5-.508-.825.317-1.5 1.231-1.5 2.032 0 1.629 4.008 1.499 5.235-.17.415-.565.741-.238.75.75.008.963.465 1.75 1.015 1.75.55 0 .888-.552.75-1.226-.341-1.671 4.328-2.265 5.311-.676.616.997 1.101 1.012 2.238.069 1.509-1.252 22.927-3.658 25.012-2.809.654.266-.611.579-2.811.695l-4 .21 3.5.663c2.622.496 3.932.23 5.223-1.061 1.183-1.183 4.186-1.938 9.589-2.409 7.57-.66 7.85-.775 7.418-3.035-.38-1.987-.104-2.282 1.796-1.916 3.087.594 3.774 1.495 1.141 1.495-1.192 0-2.167.45-2.167 1s2.475 1 5.5 1c6.969 0 7.105 1.543.25 2.843l-5.25.996 6.5-.003c6.838-.003 8.76.258 10.66 1.445.638.399 1.988.433 3 .075 1.267-.448 1.529-.323.84.4-.55.577-1.9 1.266-3 1.531-1.113.268-.31.532 1.809.597 2.272.069 3.563-.282 3.2-.869-.376-.609.536-.756 2.392-.385 1.65.33 4.48.084 6.289-.546 2.231-.778 3.4-.813 3.635-.109.19.57.757.783 1.26.472.503-.311.915-.088.915.494S98.637 213 99.417 213c.779 0 1.566.425 1.75.945.775 2.198 8.727 2.926 11.15 1.02 1.275-1.002 4.087-1.967 6.25-2.144 3.198-.261 3.993-.741 4.253-2.571.327-2.305 2.565-3.053 3.69-1.234.346.559 1.117.715 1.714.346.629-.389.799-.208.404.431-.434.702.056.961 1.345.712 1.309-.252 2.027.142 2.027 1.111 0 .826-.45 1.224-1 .884-.55-.34-1-.179-1 .358 0 .536.563 1.202 1.25 1.48.688.277.35.547-.75.598-1.664.079-1.748.257-.5 1.064 1.333.862 1.333.972 0 .99-.825.011-.186.819 1.421 1.795 1.843 1.119 4.209 1.623 6.412 1.366l3.49-.408-2.411-1.428-2.412-1.429 2.5.462c1.375.254 3.4.086 4.5-.373 1.1-.459 1.411-.866.691-.905-.72-.038-1.087-.43-.815-.87s-.376-1.344-1.441-2.008c-1.238-.774-1.935-.833-1.935-.165 0 .664-.819.589-2.25-.206-1.238-.688-2.565-1.266-2.95-1.286-1.422-.072-3.308-2.535-1.941-2.535.692 0 .981-.45.641-1-.34-.55.335-1 1.5-1s1.854.427 1.531.95c-.323.522.326 1.438 1.441 2.035 1.628.871 2.028.783 2.028-.45 0-.844-.562-1.542-1.25-1.55-.885-.011-.838-.276.159-.908 1.882-1.191 4.072-.256 4.17 1.78.05 1.038.265 1.182.583.393.278-.687 2.074-1.25 3.993-1.25 3.1 0 3.321-.167 1.988-1.5-.825-.825-2.095-1.507-2.822-1.515-.991-.012-.953-.248.15-.946.809-.512 1.211-1.19.893-1.508-.986-.986-3.864.604-3.864 2.135 0 2.471-1.632.607-4.373-4.996-2.935-5.999-3.198-7.141-1.386-6.021.682.421 3.044.838 5.25.925 6.101.241 6.297.307 6.148 2.068-.077.904.471 1.857 1.216 2.119.983.345 1.17-.106.683-1.643-.451-1.42-.239-2.128.645-2.15.811-.019.549-.626-.683-1.58-1.957-1.514-1.946-1.544.5-1.357 3.91.298 5.164.043 4.565-.926-.811-1.312 1.621-1.952 3.935-1.037l2 .791-2 .141c-1.852.13-1.865.194-.176.859 1.003.396 1.903 1.152 2 1.68.097.529.547.837 1 .686.454-.151.492.263.086.92-.527.854-.192.97 1.176.406 1.053-.434 2.477-.811 3.164-.837.688-.026 1.25-.327 1.25-.668 0-1.311 4.136-.856 4.661.512.304.793.981 1.442 1.505 1.442.524 0 .631-.52.239-1.155-.443-.715-.275-.883.44-.44 1.668 1.03 1.421-.997-.336-2.753-1.123-1.123-1.184-1.599-.25-1.926.899-.314.75-.988-.542-2.445-1.733-1.954-1.699-2.046 1.19-3.242 4.374-1.812 7.345.626 3.118 2.558-1.448.662-1.723 1.303-1.03 2.403.781 1.24 1.295 1.282 2.974.242 1.7-1.054 2.031-1.013 2.031.25 0 .829.45 1.508 1 1.508s1 .702 1 1.559c0 .924-.47 1.268-1.155.846-.704-.436-.883-.275-.459.411.426.688-.374 1.394-2.059 1.817-2.458.617-2.543.768-.791 1.403 1.08.392 2.835.259 3.9-.296 1.566-.817 2.377-.496 4.25 1.681 1.686 1.96 2.314 2.252 2.314 1.076 0-.888.45-1.337 1-.997.55.34 1-.107 1-.994 0-2.258-4.509-8.655-5.463-7.751-.432.41-.475-.265-.096-1.499.546-1.775.363-2.118-.876-1.643-.861.331-1.565.111-1.565-.487s1.125-1.37 2.5-1.715 2.5-.998 2.5-1.45c0-.452 1.238-.492 2.75-.088 2.532.675 3.454.711 7 .279.688-.083 1.257-.939 1.265-1.902.013-1.496.157-1.532.985-.25.811 1.255.972 1.187.985-.417.008-1.054.299-1.632.646-1.285.348.347 1.585.108 2.75-.532 1.166-.641 3.131-1.043 4.369-.894 1.288.155 2.25-.269 2.25-.992 0-.708.644-.411 1.468.679 1.059 1.399 1.477 1.539 1.5.5.023-1.045.415-.918 1.424.462 1.182 1.617 1.633 1.703 3 .569 1.033-.857 1.608-.94 1.608-.231 0 .606 1.168 1.396 2.595 1.754 1.917.481 2.244.874 1.25 1.504-1.108.702-1.095.855.072.868.779.008 1.119.312.756.676-.363.363-1.563-.157-2.667-1.155-1.802-1.631-2.006-1.648-2.006-.161 0 .91.787 1.7 1.75 1.755 1.167.066.917.366-.75.9-1.771.567-1.972.83-.691.9.995.055 1.601.437 1.347.85-.254.412 1.156.807 3.134.878 3.275.116 3.429.005 1.726-1.24-2.398-1.753-1.695-2.411 1.348-1.261 2.067.781 2.193 1.104 1 2.57-1.192 1.465-1.143 1.595.386 1.022.963-.361 1.75-.22 1.75.312 0 .533.436.969.969.969.532 0 .715-.787.405-1.75-.399-1.243-.297-1.381.355-.477.505.701 1.958 1.474 3.23 1.719 3.27.63 3.821 1.505.958 1.523-1.851.012-2.078.23-.971.931.867.548 2.124.551 3.14.008 1.282-.686 1.816-.437 2.198 1.026.456 1.743.021 1.904-4.438 1.65-2.719-.154-5.175.094-5.459.552-.825 1.335 2.316 3.869 3.997 3.224 1.06-.407 1.732.208 2.181 1.996.357 1.421 1.058 2.331 1.558 2.022.5-.309.651-.981.334-1.493-.98-1.586 1.152-1.026 3.687.967 2.042 1.607 2.689 1.698 4.204.589 1.72-1.257 1.719-1.356-.028-2.465-1.514-.961-1.231-1.061 1.68-.596l3.5.559-2.386-1.85c-1.58-1.224-2.002-2.086-1.25-2.551.625-.386 1.136-.297 1.136.198s2.137 2.067 4.75 3.492c2.613 1.426 5.675 3.459 6.806 4.518 1.131 1.059 3.831 2.504 6 3.211 2.169.708 4.169 1.559 4.444 1.892.776.939 11.18 7.577 14.216 9.071 1.494.734 2.482 1.713 2.197 2.174-.285.461 1.933 1.923 4.928 3.247 2.995 1.325 5.831 3.052 6.302 3.839.471.787 2.295 2.265 4.053 3.286 1.757 1.02 2.98 2.203 2.718 2.628-.263.424.74 1.57 2.228 2.545 1.988 1.303 2.815 1.445 3.117.538.227-.68.776-1.01 1.222-.735.445.275 1.062-.157 1.371-.962.308-.804.13-1.728-.396-2.053-1.475-.912-1.131-2.473.544-2.473.825 0 1.5.454 1.5 1.008 0 .605.786.518 1.962-.216 1.645-1.027 2.445-.867 4.959.991 1.649 1.22 3.453 2.217 4.009 2.217.555 0 2.036 1.394 3.29 3.097 1.913 2.599 6.467 5.903 8.137 5.903.251 0 .22-.9-.067-2-.288-1.1-1.146-2-1.907-2-.76 0-1.383-.675-1.383-1.5s.788-1.493 1.75-1.485c1.496.013 1.532.157.25.985s-1.246.972.25.985c.962.008 1.75.368 1.75.799 0 1.358 6.03.782 6.924-.662.489-.791 1.384-1.05 2.099-.608.893.552.569 1.147-1.138 2.093-1.859 1.03-1.999 1.33-.635 1.358 2.016.04 2.35 1.626.5 2.373-.782.315-.594.581.5.708 1.991.232 3.633.607 4 .912 1.073.894 5.037.457 5.443-.6.359-.936 1.026-1.044 2.284-.37 2.017 1.079 8.018.902 8.021-.238.001-.412.452-.75 1.002-.75 1.769 0 .568 2.48-1.5 3.098-1.833.547-1.77.707.764 1.917 2.001.955 2.604 1.825 2.183 3.152-.32 1.008-.101 1.833.486 1.833 1.745 0 2.583-.452 2.317-1.25-.137-.412.388-.75 1.168-.75.78 0 2.105-.264 2.945-.586 1.094-.419 1.481.012 1.367 1.525-.094 1.241-.675 1.912-1.413 1.629-.689-.264-1.495-.089-1.791.39-.296.479.027 1.062.718 1.295.961.325.856 1.269-.446 4.018-1.259 2.661-1.389 3.721-.5 4.083.859.349.825.511-.119.567-1.884.113-4.419 2.881-3.702 4.042.333.538-.651 1.295-2.186 1.681l-2.791.703 3 1.281c3.812 1.629 8.946 1.862 6.236.284-1.575-.917-1.602-1.189-.25-2.541.833-.833 1.514-2.069 1.514-2.748 0-3.699 6.398-8.633 8.125-6.266.344.471.933.358 1.309-.25.376-.609.152-1.107-.497-1.107-.881 0-.865-.382.063-1.5.685-.825 1.808-1.5 2.495-1.5 3.346 0 7.108-6.715 6.983-12.465-.095-4.397.178-5.497 1.261-5.082 1.103.423 1.249-.352.725-3.845l-.656-4.375 5.114.439c4.989.429 6.475-.778 3.578-2.907-.55-.404.736-.741 2.857-.75 3.021-.012 3.732.31 3.281 1.485-.344.896-.008 1.5.834 1.5 1.918 0 2.84-1.73 2.743-5.144-.079-2.783.052-2.856 5.102-2.871 3.293-.01 4.687-.33 3.822-.878-.748-.474-2.281-.621-3.406-.327-1.476.386-1.828.182-1.263-.732.609-.985-.189-1.112-3.593-.572-4.197.665-4.286.628-2.179-.911 2.343-1.711 9.757-1.255 10.949.673.357.577.954.421 1.463-.381.632-.999.863-1.027.875-.107.008.688.803 1.214 1.765 1.171 1.056-.048 1.252-.28.494-.585-.691-.279-.988-.941-.661-1.471.328-.53 1.416-.019 2.417 1.135 1.002 1.155 3.089 2.33 4.639 2.611 1.55.281 3.159 1.046 3.574 1.7.508.798.761.613.772-.561.009-1.061.78-1.75 1.958-1.75 1.901 0 2.167-2.396.555-5.004-.339-.548-.113-.996.502-.996s.84-.45.5-1c-.906-1.466-2.747-1.223-1.899.25.396.688.347.912-.11.498-.456-.414-1.672.011-2.703.944-1.775 1.606-1.904 1.58-2.448-.498-.334-1.279-1.359-2.194-2.457-2.194-1.035 0-1.883-.45-1.883-1s.788-1.007 1.75-1.015c1.363-.012 1.45-.206.393-.875-.946-.6-1.021-1.067-.25-1.544.609-.376 1.107-.303 1.107.162 0 .466.9.914 2 .997 1.143.086 2-.466 2-1.287 0-.791.563-1.452 1.25-1.468.694-.017.471-.484-.5-1.05-.963-.561-1.75-1.502-1.75-2.092 0-.687.539-.625 1.5.172.825.685 1.5.91 1.5.5 0-.41.573-.269 1.274.313 2.019 1.675 9.709.307 8.978-1.598-.434-1.13-.212-1.316.828-.693 3.957 2.368 6.92 4.988 6.92 6.118 0 .72-1.14.208-2.646-1.188-2.99-2.771-4.57-3.178-3.718-.958.316.822 1.046 1.203 1.623.846.613-.379.753-.169.336.505-.438.709-.015 1.161 1.096 1.17 1.488.013 1.551.179.357.934-.799.506-1.811.697-2.25.426-.439-.271-.798-.098-.798.385 0 .482 1.462 1.645 3.25 2.584l3.25 1.707-2.99-.605c-1.644-.332-3.236-1.002-3.536-1.488-.3-.485-1.542-.622-2.76-.304-2.204.577-2.893 1.8-1.464 2.599.412.23.188.282-.5.114-.687-.167-1.25.132-1.25.664 0 .533 1.012.976 2.25.984 1.803.013 1.953.203.755.961-1.284.812-1.214 1.171.5 2.547 1.406 1.129 1.626 1.756.745 2.123-.688.286-1.25.9-1.25 1.364 0 1.498 3.426 1.673 6.193.317 1.532-.751 2.936-.927 3.256-.409.31.501-.002 1.139-.693 1.418-.691.278-.274.542.927.585 1.342.049 2.424-.684 2.811-1.903.506-1.594.89-1.741 1.963-.75.733.678 1.086 1.639.784 2.137-.308.506.022.551.75.1 1.002-.619 1.141-.165.603 1.976-.612 2.438-.451 2.715 1.306 2.255 1.102-.288 2.215-.009 2.473.62s.505.357.548-.606c.052-1.143.946-1.793 2.579-1.875 1.375-.069 2.95-.238 3.5-.375.55-.137 1.563-.313 2.25-.39.87-.098.794-.435-.25-1.11-1.262-.815-1.202-.972.372-.985 1.624-.013 1.692-.233.508-1.659-1.213-1.462-1.115-1.565.878-.933 1.367.434 2.242.295 2.242-.356 0-.587.505-1.067 1.122-1.067.776 0 .738.464-.122 1.5-1.04 1.253-.896 1.5.878 1.5 1.167 0 2.122.498 2.122 1.107s.62.869 1.378.578c.758-.291 1.823-.084 2.367.46.652.652 1.184.482 1.561-.5.426-1.111-.447-1.662-3.435-2.167-5.548-.937-4.038-1.88 1.646-1.028 3.847.577 4.414.928 3.424 2.121-.845 1.019-.864 1.429-.063 1.429.617 0 1.122-.45 1.122-1s.9-1 2-1c2.825 0 2.657-4.399-.25-6.557l-2.25-1.671 2.25.52c2.447.566 2.337 1.028 2.625-11.042.12-5.052.024-5.25-2.542-5.25-1.466 0-2.893.562-3.171 1.25-.398.987-.521.983-.583-.019-.053-.852-.914-1.06-2.618-.632-2.585.649-3.198-1.171-.961-2.849.577-.433.052-1.01-1.239-1.364-1.231-.337-1.949-1.082-1.595-1.654.396-.642.151-.737-.641-.247-.856.529-1.131.33-.823-.596 1.169-3.521 12.264-1.437 13.807 2.593.528 1.379.756.485.722-2.825-.034-3.231-.525-5.024-1.475-5.389-1.17-.449-1.186-.697-.09-1.392.854-.541.918-.851.178-.861-.66-.008-.933-.869-.637-2.004.286-1.094.901-1.753 1.367-1.465.466.288.869-40.667.895-91.011L501.017 0H-.018l.049 91.522M.468 58.5c0 31.9.127 45.095.281 29.321.155-15.773.155-41.873.001-58C.595 13.695.468 26.6.468 58.5m69.974 63.919c-1.219.891-1.398 1.49-.593 1.987.633.392 1.151.203 1.151-.418 0-.677.603-.528 1.5.369.825.825 1.5 2.207 1.5 3.072 0 .99.884 1.571 2.393 1.571 1.316 0 2.652.675 2.969 1.5.363.948 1.897 1.5 4.166 1.5 2.422 0 3.362-.369 2.889-1.134-.486-.786.264-.993 2.441-.674 1.728.254 3.142.09 3.142-.365 0-.455.338-.714.75-.577.412.138.975-.194 1.25-.736.275-.543-.341-1.149-1.368-1.346-1.161-.224-1.612.055-1.191.736.372.603.227 1.096-.323 1.096s-1.278-.45-1.618-1c-.34-.55-.051-1 .641-1 3.277 0-1.423-2.338-4.856-2.415-2.65-.059-3.785-.532-3.785-1.577 0-1.942-8.582-2.4-11.058-.589m34.427 3.923c.612.738.78 1.71.372 2.16-.407.45-.167.488.534.084.78-.45 1.168-.24 1 .541-.151.701 1.119 1.748 2.823 2.326 1.704.577 3.731 1.576 4.506 2.218.774.643 2.685 1.489 4.247 1.881 1.916.481 2.429.966 1.579 1.491-1.986 1.227-5.245.187-7.145-2.281-.957-1.244-1.751-1.699-1.763-1.012-.036 2.036-2.744 1.423-3.312-.75-.287-1.1-1.07-2-1.739-2-.859 0-.912.367-.178 1.25 1.007 1.213 1.207 1.813 1.207 3.611 0 .474 1.072.657 2.383.406 2.782-.532 4.277 1.232 2.678 3.16-.842 1.014-.726 1.488.477 1.949.874.336 1.297 1.083.939 1.661-1.052 1.702 1.55 4.186 3.067 2.927.846-.702 1.488-.722 1.898-.057.342.552 2.182.881 4.089.73 1.908-.15 3.469-.007 3.469.318s1.8.59 4 .59 4-.347 4-.772c0-.425.73-.773 1.622-.773 1.208 0 1.35-.329.558-1.284-.611-.735-.709-1.86-.23-2.635.646-1.046 1.11-.838 2.05.919.983 1.836 1.404 2.005 2.202.885.768-1.078.862-.997.424.365-.37 1.149-.038 1.75.964 1.75.841 0 1.275-.409.966-.91-1.096-1.773.631-4.542 1.858-2.98 1.272 1.618 4.041 2.435 3.101.915-.354-.573.275-1.025 1.426-1.025 1.132 0 2.059.406 2.059.902 0 1.201 5.994 3.521 8.429 3.263 1.06-.113 2.291.367 2.734 1.065.594.935.81.953.822.065.008-.662-1.11-2.329-2.485-3.704-1.375-1.375-2.5-2.263-2.5-1.973 0 .29-1.203-.419-2.673-1.575s-2.932-1.752-3.25-1.323c-.775 1.047-8.112 1.146-7.466.101.483-.783-.052-1.009-2.861-1.211-.687-.049-2.426-1.263-3.863-2.697-2.796-2.791-6.596-4.285-7.095-2.79-.436 1.31-10.792-3.273-10.792-4.776 0-1.514-6.616-.911-8.666.791-1.242 1.031-1.767.493-1.428-1.462.079-.454-.387-.497-1.036-.096-.739.457-.913.298-.465-.425.471-.764-.196-1.155-1.968-1.155-2.13 0-2.453.276-1.568 1.342m-51.741 3.345c1.201 1.478 1.154 1.606-.378 1.032-.962-.361-1.75-.257-1.75.231 0 .487-.257 1.556-.571 2.373-.404 1.053.345 1.688 2.568 2.176 1.726.379 4.287 1.286 5.692 2.014 1.404.729 3.399 1.163 4.432.964 1.034-.199 1.879.089 1.879.639 0 .551.414.746.919.434.506-.313 1.664.176 2.574 1.086 1.336 1.336 1.4 1.816.331 2.494-.936.593-.648.844.985.855 1.282.008 2.034.46 1.691 1.015-.361.583.656 1 2.441 1 1.682 0 3.059-.45 3.059-1s.787-.993 1.75-.985c1.019.009 1.318.323.717.75-.569.404-.998 1.41-.955 2.235.089 1.685 2.572 1.464 3.713-.33.552-.868.748-.872.76-.018.008.634 1.365 1.623 3.015 2.198 3.698 1.289 4.11-.387.5-2.032-1.375-.626-2.5-1.569-2.5-2.095 0-.526 1.125-.741 2.5-.478s2.5.117 2.5-.325c0-1.531-1.846-1.929-4.416-.952-1.476.561-2.584.596-2.584.081 0-.496.563-1.095 1.25-1.33.688-.235.125-.286-1.25-.113s-1.937.07-1.25-.229c.688-.299 1.243-1.294 1.235-2.21-.014-1.442-.147-1.464-.985-.167-.704 1.09-.974 1.142-.985.191-.008-.743-.521-.997-1.185-.586-.801.495-.955.164-.489-1.052.522-1.359.3-1.629-.941-1.153-1.119.429-1.457.192-1.089-.767.293-.764.009-1.913-.631-2.553-.884-.884-.806-1.394.328-2.126 1.102-.712.642-.907-1.758-.746-1.787.12-3.25.722-3.25 1.338 0 .616-.675 1.121-1.5 1.121s-1.5-.408-1.5-.907c0-.499-.787-.729-1.75-.511-.963.217-3.42-.425-5.46-1.427-4.998-2.454-9.615-2.536-7.662-.135m-36.787.615c.378 1.071.235 1.554-.352 1.191-.544-.336-.989-.108-.989.507s-.45.84-1 .5c-.55-.34-1-.141-1 .441S13.477 134 14.059 134s.778.454.435 1.009c-1.327 2.148.504 4.492 3.682 4.715 1.758.124 4.575.861 6.26 1.639 4.806 2.219 7.907 3.002 7.171 1.811-.394-.638.512-1.008 2.341-.956 1.641.046 2.755.453 2.477.904-.279.451.749 1.085 2.284 1.409 1.535.324 3.652 1.062 4.704 1.639 2.177 1.195 5.807-2.433 4.872-4.87-.296-.771.06-1.178.854-.975.748.191 1.021.158.605-.074-.416-.232-.502-.833-.191-1.336.311-.503-.249-.947-1.244-.985-1.624-.063-1.604-.166.191-.998 1.519-.704 1.219-.788-1.249-.35-2.821.5-3.171.335-2.656-1.253.437-1.346.341-1.476-.362-.494-.744 1.038-1.081.854-1.521-.829-.418-1.599-.193-2.021.861-1.616.785.301 1.427.085 1.427-.48 0-.566.508-.714 1.13-.33.67.415.952.165.692-.614-.717-2.151-5.635-2.363-5.464-.236.096 1.198-.449 1.669-1.687 1.458-1.006-.172-2.581.519-3.5 1.534-1.993 2.202-5.24 2.389-6.776.391-.618-.804-1.831-1.16-2.75-.807-2.19.84-2.115-.943.091-2.178 2.602-1.456-2.509-2.545-5.898-1.256-1.819.691-2.961.634-3.858-.195-1.006-.929-1.14-.797-.639.625m80.326 9.365c-.367.366-.667 1.54-.667 2.608 0 1.559-.481 1.821-2.439 1.33-3.624-.91-4.029 1.005-.636 3.01 2.645 1.562 2.784 1.877 1.309 2.956-1.382 1.01-.98 1.185 2.461 1.068 2.262-.076 3.952-.4 3.755-.718-.196-.319.634-.499 1.846-.399 5.398.443 6.572-2.826 1.454-4.048-2.928-.699-3.016-.819-.891-1.209 2.266-.416 2.219-.528-1.197-2.849-3.922-2.665-4.039-2.706-4.995-1.749M16.5 191c-.399.646-.225 1.675.387 2.287.809.809 1.113.811 1.113.007 0-.614.89-.874 2-.584 1.1.288 2 .969 2 1.514 0 .544-.661.736-1.468.427-2.213-.85-2.721.877-.758 2.58 1.779 1.544 6.28 2.574 14.371 3.289 2.555.226 5.03.479 5.5.563.47.085 2.096.101 3.613.035 2.501-.107 2.642-.305 1.51-2.118-.687-1.1-2.292-2-3.568-2-1.332 0-2.048-.437-1.683-1.028.411-.664-.528-.822-2.661-.447-4.092.721-4.983 1.47-1.773 1.49 1.33.009 3.092.485 3.917 1.059 1.086.756.257.858-3 .37-5.498-.824-6.287-1.253-5.6-3.045.296-.77.075-1.399-.49-1.399-.566 0-.778-.405-.472-.9.306-.494-1.355-1.115-3.691-1.378-2.336-.263-5.209-.798-6.384-1.188-1.281-.424-2.428-.238-2.863.466m99.719 25.337c-1.255.697-1.93 1.653-1.5 2.125.429.472.266.564-.363.205-.629-.36-2.879.116-5 1.056-3.707 1.644-3.754 1.723-1.208 2.05 2.75.353 4.589 3.742 2.496 4.6-.629.258-.057.505 1.273.548 1.329.043 2.138.358 1.797.698-.563.563 1.572 3.381 2.562 3.381 1.155 0 4.593-3.798 3.986-4.404-.385-.386.073-.405 1.018-.042.946.363 2.507.327 3.47-.079.963-.407 2.744-.872 3.959-1.035 5.087-.679 5.955-2.378 1.232-2.41-2.507-.016-5.402.586-6.432 1.34-1.619 1.184-2.137 1.123-3.83-.454-1.779-1.658-2.217-1.689-4.818-.344-1.574.814-2.854 1.13-2.846.704.028-1.401 1.65-3.386 2.577-3.154 2.045.512 6.24-2.396 5.655-3.92-.436-1.138-.15-1.379 1.079-.907.921.353 1.674.206 1.674-.326 0-1.363-4.061-1.142-6.781.368m12.825 44.149c-3.398 1.227-3.415 1.262-1 2.029 2.325.739 2.35.823.456 1.563-1.693.661-1.731.792-.25.852.963.038 1.75.745 1.75 1.57 0 .825-.787 1.493-1.75 1.485-1.508-.014-1.542-.16-.25-1.059 1.089-.758.307-.862-2.851-.38-4.007.611-4.301.509-3.727-1.299 1.314-4.141-11.042-3.77-15.27.459-.765.764-1.127 1.652-.806 1.973.321.321.138 1.416-.406 2.432-.885 1.656-.673 1.786 2.036 1.244 1.783-.357 3.024-.187 3.024.415 0 2.183 17.682.202 19.235-2.155.516-.784.739-.743.75.135.008.688.915 1.25 2.015 1.25 2.227 0 2.567-1.033.892-2.708-.812-.812 1.077-1.005 7.046-.721 5.904.28 7.961.074 7.454-.746-.388-.627-.259-.861.287-.523.543.335.988-.045.988-.846 0-.939-1.027-1.456-2.893-1.456-1.673 0-2.632-.421-2.274-1 .559-.905-1.774-1.371-6.75-1.349-.963.004-1.75-.392-1.75-.881 0-.488-.52-.567-1.155-.175-.715.443-.883.275-.44-.44.846-1.371.221-1.323-4.361.331M6.535 307.674c.644.646 3.599 1.148 6.568 1.115 2.968-.033 8.997.046 13.397.175 12.416.365 4.955 1.684-8.75 1.546-6.463-.064-11.75.169-11.75.52 0 .774.845.92 8.5 1.462 10.657.756 11.5.924 11.5 2.285 0 .759.501 1.031 1.155.628.711-.44.883-.275.448.429-.44.711-.181.941.685.609.765-.294 1.965.157 2.665 1 .701.844 1.742 1.245 2.315.891.579-.357.745-.164.374.437-.454.735.854.952 4.095.68 3.57-.299 4.387-.132 3.263.669-1.251.891-1.2.972.302.486 1.207-.391 1.566-.201 1.086.575-.483.781-.157.944 1 .5 1.019-.391 1.468-.257 1.105.33-.336.544.146.989 1.07.989 1.381 0 1.459-.268.438-1.499-1.073-1.292-.829-1.417 1.756-.9 1.766.354 3.285.141 3.691-.517.38-.614 1.087-.872 1.571-.572.484.299 1.369-.369 1.966-1.484s1.857-2.058 2.8-2.095c2.428-.095-6.794-2.899-9.594-2.918-1.488-.01-2.055-.425-1.596-1.17.44-.711.275-.883-.429-.448-.732.453-.935.166-.565-.799.452-1.178-.578-1.659-4.735-2.21-3.853-.511-4.771-.903-3.34-1.427 1.086-.396-5.707-.663-15.094-.591-13.066.1-16.794.405-15.897 1.304m248.598.029c-.667.713-2.432 1.304-3.922 1.312-2.196.013-2.426.219-1.211 1.087 1.202.858 1.047.972-.778.571-2.397-.527-10.194 2.25-10.212 3.636-.005.445.44.531.99.191s1-.141 1 .441-.787 1.115-1.75 1.184c-4.05.29 7.299 1.502 13.493 1.441 4.845-.047 6.686-.42 6.507-1.316-.147-.733.783-1.25 2.25-1.25 1.375 0 2.5-.502 2.5-1.117 0-.656-1.047-.916-2.54-.631-1.612.308-2.394.077-2.142-.633.218-.615 1.136-1.056 2.04-.98.913.077 1.642-.591 1.642-1.505 0-2.295-6.204-4.211-7.867-2.431M94.5 309.969c-16.647.633-17.272.803-22.596 6.127-4.502 4.502-3.876 4.966 6.428 4.762 5.757-.114 6.38-.262 3.168-.75-3.833-.583-3.691-.657 3.397-1.787 4.068-.648 7.668-1.591 8-2.096.557-.848 4.545-2.247 8.103-2.843 4.367-.732 7.762-1.531 10-2.352 1.375-.505 3.4-1.116 4.5-1.358 2.348-.517-.808-.472-21 .297m23.946 1.086l-2.946.555 2.5.884c3.355 1.186 5.297 1.643 6.5 1.528.55-.052 7.975-.349 16.5-.658 18.073-.656 27.917-2.012 17-2.341-16.237-.49-36.873-.473-39.554.032m-19.05 44.357c-.893 2.326.238 9.966 1.539 10.4.586.195 1.058 1.105 1.05 2.021-.009.96-.327 1.24-.75.659-.908-1.245-8.235-1.57-8.235-.365 0 .48 1.527.873 3.393.873 2.172 0 3.612.569 4 1.582.925 2.411.731 2.942-.593 1.618-1.401-1.401-7.194-1.646-6.343-.269.576.932-1.076 2.407-2.957 2.64-.55.069-1.611.193-2.357.277-.822.092-1.111.793-.733 1.779.344.894.058 2.309-.635 3.144-1.667 2.009 2.907.69 5.054-1.457 1.697-1.697 6.779-1.352 6.421.436-.145.727.772 1.25 2.191 1.25 2.499 0 4.735 1.949 2.368 2.063-.72.035-.238.492 1.07 1.016 1.616.647 2.818.587 3.75-.186 1.004-.834 1.371-.838 1.371-.015 0 .617.338 1.069.75 1.004 1.947-.308 3.312.208 2.789 1.054-.318.515-3.457.856-6.977.758-3.519-.097-5.906-.482-5.304-.853.601-.372-.898-.584-3.332-.471-3.302.154-4.341.577-4.093 1.668.184.804.018 1.146-.369.76-.386-.387-1.411.006-2.276.872-1.433 1.432-1.422 1.686.119 2.812 2.388 1.747 2.126 2.201-1.325 2.299-1.66.048-2.758-.334-2.441-.847.317-.514.1-.934-.482-.934s-1.052-.788-1.044-1.75c.012-1.363.206-1.45.875-.393 1.155 1.822 1.972.265 1.6-3.05-.456-4.071-1.248-4.85-3.904-3.84-1.289.491-3.186.733-4.215.539-1.029-.194-2.176-.387-2.549-.429-.372-.043-1.452-1.832-2.398-3.978-1.326-3.005-2.003-3.637-2.947-2.755-.675.63-1.01 1.71-.745 2.401.275.717-.314 1.288-1.375 1.332-1.021.042-2.757.283-3.857.536-1.1.253-2.549.581-3.221.728-2.068.453-2.713 1.659-.887 1.659 1.05 0 1.447.452 1.013 1.155-.417.673-.277.884.334.507.721-.446.754.517.105 3.095-1.695 6.729-2.051 9.629-2.198 17.907-.08 4.49-.483 8.502-.896 8.916-1.279 1.284-.825 3.663.594 3.118 1.051-.403 1.242.559.873 4.393-.425 4.421-.27 4.909 1.558 4.909 1.195 0 2.884 1.335 4.11 3.25 2.046 3.194 2.777 2.526 2.19-2-.097-.743.969-1.244 2.631-1.235 3.509.02 5.471 1.224 4.992 3.065-.204.781-.171 1.051.073.6.243-.451 1.116.141 1.939 1.317.824 1.176 2.097 1.907 2.829 1.626.733-.281 1.498-.011 1.702.6.204.611 1.993 1.148 3.976 1.194 1.983.046 3.442.249 3.242.452-.2.203.258.991 1.017 1.75 1.723 1.723 4.629 1.818 3.981.131-.424-1.106 1.716-1.367 6.762-.827.395.042.445.79.11 1.661-.489 1.275-.772 1.324-1.453.25-.662-1.045-.849-.982-.861.288-.012 1.299-.912 1.562-4.515 1.322-5.573-.373-5.729.148-.47 1.564 2.217.597 3.765 1.514 3.441 2.039-.324.524.188.953 1.137.953 3.703 0 .029 1.458-3.917 1.554-2.305.057-5.052.482-6.105.944-1.363.6-1.706.505-1.191-.328.75-1.214-.648-1.413-11.145-1.584-2.887-.047-5.25-.423-5.25-.836s-.685-.75-1.521-.75c-.837 0-2.034-1.125-2.661-2.5-.626-1.375-1.93-2.5-2.897-2.5-2.83 0-4.921-1.108-4.921-2.607 0-.792-1.005-1.393-2.33-1.393-2.735 0-2.979-2.381-3-29.25-.007-8.663-.385-15.75-.841-15.75-.456 0-1.154.004-1.551.008-.397.005-.77.792-.829 1.75-.287 4.66-.499 5.16-1.949 4.604-1.057-.406-1.5.083-1.5 1.653 0 1.869.243 2.028 1.5.985 1.284-1.066 1.5-.748 1.5 2.211 0 3.173-.245 3.456-3 3.456-2.716 0-3-.307-3-3.24 0-2.741-.306-3.16-1.989-2.72-1.094.286-1.745.914-1.448 1.395.298.481-.125.62-.938.308-1.113-.427-1.339-.032-.913 1.596.402 1.538.791 1.798 1.347.899.43-.696.765 1.854.745 5.665-.063 11.803.117 13.446 1.446 13.18.929-.186 1.219 1.934 1.131 8.25-.065 4.675.085 7.938.333 7.25.249-.687 1.09-1.25 1.869-1.25 1.519 0 1.677-1.178 1.941-14.5.254-12.793 1.856-8.733 1.832 4.642-.02 10.662-.249 12.306-1.88 13.499-1.364.997-1.475 1.365-.417 1.381.906.014.513.748-1.059 1.978-2.476 1.937-2.479 1.956-.281 1.978 1.677.017 2.068.449 1.602 1.772-.502 1.429-.368 1.52.732.5 2.32-2.153 8.625-1.591 9.256.825.469 1.793.839 1.916 2.724.907 1.578-.844 2.484-.865 3.274-.075.601.601.665 1.096.143 1.099-6.902.042-19.424 3.761-17.267 5.128 1.088.69 1.088.838-.004.851-.727.008-1.978-.641-2.779-1.443-.802-.801-2.159-1.188-3.017-.859-1.19.457-1.479.033-1.221-1.792.22-1.553.953-2.342 2.088-2.252.963.076 1.75-.347 1.75-.941s.606-.251 1.347.762c.978 1.337 1.552 1.512 2.092.638.433-.7-.131-1.964-1.347-3.018-1.151-.998-2.092-2.372-2.092-3.054 0-.796-.626-.975-1.75-.499-.962.407-2.65.692-3.75.634-2.265-.12-12.954 1.972-22.268 4.358-3.438.881-7.8 1.355-9.694 1.054-4.036-.641-6.538.109-6.538 1.961 0 .922.982 1.175 3.25.84 6.102-.902 13.246-1.036 16.5-.31 1.917.428 3.25.331 3.25-.237 0-.529 1.012-.677 2.25-.329 1.791.504 1.944.412.75-.451-1.146-.829-.366-1.036 3.308-.876 2.645.115 5.034.573 5.309 1.019.276.445.074.81-.447.81-1.358 0-.906 3.349.58 4.3.688.44 1.25 1.527 1.25 2.416 0 .89-.293 1.324-.651.966-.358-.358-1.231.13-1.939 1.084-1.082 1.456-1.616 1.534-3.336.484-4.522-2.761-15.062.441-15.082 4.582-.014 3.057-4.747 4.348-7.015 1.913-2.348-2.52-1.969-3.078 2.009-2.964 1.931.054 3.014-.408 3.014-1.289 0-2.225-1.913-2.771-5.092-1.454-3.344 1.385-4.169.957-4.408-2.288-.091-1.238-.466-2.137-.833-2-.367.137-1.019.25-1.449.25-.43 0-.874 1.108-.986 2.463-.141 1.711.21 2.305 1.151 1.944.791-.304 1.574.32 1.883 1.502.363 1.39-.052 2.206-1.33 2.611-1.716.545-1.86 1.924-1.884 18.035L.027 501h44.786c33.501 0 45.089-.302 45.987-1.2.933-.933 1.2-.933 1.2 0 0 .66.665 1.2 1.479 1.2 1.214 0 1.274-.447.339-2.5-.626-1.375-1.565-2.5-2.086-2.5-.52 0-.693-.66-.383-1.466.697-1.817-4.013-1.181-9.349 1.262-4.166 1.908-6 2.298-6 1.276 0-.413-3.263-1.346-7.25-2.073-3.987-.726-7.7-1.642-8.25-2.034-.55-.393-2.125-.544-3.5-.336-1.955.294-2.173.154-1-.645 1.11-.756.314-.971-3.059-.826-6.184.266-6.935-.431-6.975-6.467-.035-5.433-3.155-13.812-4.395-11.805-.495.8-1.138.689-2.206-.378-.829-.83-2.402-1.508-3.495-1.508-2.895 0-1.42-1.64 2.109-2.346 2.009-.402 3.016-1.199 3.006-2.379-.013-1.512-.159-1.553-.985-.275-.646 1-.974 1.083-.985.25-.008-.689-1.248-1.257-2.765-1.265-1.513-.009-3.425-.452-4.25-.985-1.272-.822-1.225-.972.309-.985 1.111-.009 1.534-.461 1.096-1.17-.443-.715-.275-.883.44-.44.635.392 1.155.285 1.155-.238 0-.522 1.125-1.233 2.5-1.578s2.5-1.294 2.5-2.108c0-.815.9-1.481 2-1.481s2 .602 2 1.338c0 .837 1.309 1.387 3.5 1.47 1.944.073 3.5-.355 3.5-.961 0-.721.509-.669 1.5.153 1.118.928 1.5.944 1.5.063 0-.649.457-.898 1.016-.553 1.462.904.049 2.729-1.617 2.09-.77-.296-1.399-.101-1.399.431 0 .533-.337.883-.75.779-1.489-.379-7.257 1.37-6.825 2.069.243.394 1.71.64 3.259.547 1.549-.092 4.021-.226 5.495-.297 4.611-.222 7.577-4.436 3.815-5.42-1.95-.51-1.957-.613-.25-3.64 1.619-2.871 6.328-4.265 5.432-1.608-.178.528.497 1.284 1.5 1.68 1.675.66 1.681.724.074.789-2.146.086-2.254 1.407-.25 3.07 3.207 2.662.16 5.958-4.023 4.353-1.14-.438-1.568-.309-1.161.349.737 1.193-4.553 2.27-11.233 2.287-2.429.006-4.158.27-3.842.585 1.149 1.15 25.791.991 47.759-.306 12.375-.731 29.475-1.549 38-1.817 16.312-.513 43.045-2.189 46.966-2.944 1.271-.245 4.25-.572 6.621-.726 3.106-.203 4.437-.768 4.766-2.026.795-3.035 3.527-3.206 5.96-.374 2.947 3.429 3.684 3.304 3.702-.631.012-2.527.243-2.916 1.037-1.75.74 1.086.848.489.389-2.168-.569-3.3-.348-3.822 2.213-5.21 2.53-1.371 1.878-2.299-1.154-1.642-4.479.969-5.594.981-5.021.054.351-.569 1.11-1.034 1.686-1.034 2.436 0 8.896-6.231 8.326-8.03-1.689-5.319-1.326-6.575 1.759-6.088.412.065.75-.332.75-.882s-.627-1-1.393-1-1.671-.726-2.012-1.613c-.515-1.343-.88-1.395-2.183-.314-1.51 1.253-3.345.037-3.397-2.25-.028-1.265-5.676.032-10.038 2.306-2.731 1.423-4.481 1.86-4.709 1.174-.2-.6-1.242-.861-2.316-.58-1.119.292-1.952.008-1.952-.665 0-.647-.45-.898-1-.558-.55.34-1-.084-1-.941 0-.959-.865-1.547-2.25-1.527-2.091.029-2.125.126-.489 1.368 2.375 1.803-.039 3.939-4.314 3.818-1.64-.047-2.793.222-2.562.598.232.376-3.331.758-7.918.849-6.962.137-8.246-.078-7.776-1.303.456-1.187 2.015-1.353 8.186-.867 5.385.424 7.183.297 6.123-.432-.825-.568-4.345-1.039-7.821-1.048-4.128-.01-6.818-.511-7.75-1.444-1.639-1.638-1.914-4.571-.429-4.571.55 0 1-.927 1-2.059 0-1.302.425-1.797 1.155-1.346.715.443.883.275.44-.44-.415-.673-.101-1.155.752-1.155.999 0 1.309-.716.973-2.25-.36-1.641-.232-1.881.472-.887.742 1.048 1.062 1.075 1.381.118.315-.945 1.188-.846 3.621.413 1.763.911 3.206 1.366 3.206 1.009 0-.356.618-.135 1.373.492.756.627 2.106.859 3 .515.895-.343 1.627-.22 1.627.273s2.363.879 5.25.857c3.501-.027 5.173-.436 5.02-1.229-.267-1.384 3.239-2.733 4.721-1.817.555.343 1.009.095 1.009-.552 0-.683.838-.956 2-.652 1.1.287 2 .067 2-.491 0-.583.742-.695 1.75-.264 4.045 1.732 7.255 1.183 12.372-2.114 3.779-2.434 5.58-3.084 6.48-2.337.746.62 2.781.74 5.072.299 2.104-.405 4.72-.676 5.813-.604 1.644.11 1.731-.043.5-.884-1.087-.743-.639-.85 1.668-.397 1.82.357 3.431.171 3.809-.439.383-.621-.302-1.1-1.655-1.159-2.265-.097-2.262-.113.191-.822 1.66-.479 2.769-.278 3.3.6 1.439 2.379 2.7 1.452 1.678-1.235-.656-1.725-.639-2.352.05-1.926.562.347.899.261.75-.193-.149-.453 1.003-2.492 2.561-4.531 3.358-4.394 2.883-5.756-1.851-5.316-3.234.3-4.014-.31-3.582-2.801.079-.454-.224-.597-.674-.32-.449.278-.887-.43-.973-1.574-.26-3.44-2.013-4.27-9.558-4.526-3.961-.134-8.503-.439-10.095-.678-1.723-.258-3.485.158-4.355 1.028-.871.871-2.278 1.203-3.482.821-1.18-.375-1.774-.244-1.428.315.325.526-.519 1.55-1.875 2.276-2.876 1.539-3.219 2.975-.716 2.997 1.464.013 1.51.167.284.943-.807.51-1.932.563-2.5.117-1.277-1.002-10.254 8.265-9.679 9.991.256.767-.067.921-.88.419-.715-.442-1.039-.393-.731.11.305.498-.976.986-2.845 1.084-1.869.098-3.399-.149-3.399-.549 0-.401-1.575-.545-3.5-.32-2.142.25-3.5-.022-3.5-.701 0-.61-1.238-1.154-2.75-1.209l-2.75-.099L165 397c1.667-.534 1.917-.834.75-.9-2.055-.117-2.244-1.206-.508-2.942.988-.988.938-1.433-.25-2.184-1.181-.747-.998-.947.875-.959 1.871-.012 2.257-.434 1.843-2.015-.398-1.524-.009-2.028 1.634-2.116 1.69-.091 1.778-.215.406-.573-2.001-.523-2.383-2.303-.5-2.326.875-.011.823-.286-.174-.917-1.072-.678-.701-1.009 1.5-1.335 2.253-.334 1.943-.468-1.352-.583l-4.275-.15 1.551-3c1.409-2.724 1.406-3-.033-3-.944 0-1.296.467-.872 1.155.415.67.277.884-.327.511-.573-.354-1.597.026-2.277.845-.68.819-.895 1.489-.479 1.489.417 0-.386.9-1.785 2-1.398 1.1-3.034 2-3.635 2-1.289 0-1.023 2.155.408 3.301 1.154.925-5.768.27-7.326-.693a1.22 1.22 0 00-1.674.392c-.351.568-1.054.776-1.561.462-.508-.314-1.63-.175-2.494.309-1.419.794-1.412 1.012.073 2.244 1.258 1.044 2.069 1.099 3.454.235 1.388-.868 2.242-.803 3.669.278 1.776 1.345 1.758 1.41-.391 1.44-1.238.018-2.25.41-2.25.871 0 .462-1.125 1.353-2.5 1.979-2.032.926-2.5.871-2.5-.29 0-.786-.787-1.887-1.75-2.448-1.609-.937-1.589-1.023.25-1.065 1.655-.038 1.741-.21.5-.998-.862-.548-1.632-.572-1.81-.056-.17.493-1.632-.488-3.25-2.181-1.617-1.692-2.94-2.709-2.94-2.259 0 .45-1.687-1.01-3.75-3.244-3.869-4.19-8.913-6.123-9.455-3.622-.21.966-1.163.61-3.295-1.231-2.77-2.392-2.995-3.083-2.937-9.013.034-3.551-.294-5.861-.735-5.167-.439.691-.804.863-.813.384-.008-.48-.613-.376-1.345.231-.761.631-1.189 2.501-1.001 4.372.18 1.798.066 2.707-.254 2.019-.32-.687-1.158-1.25-1.863-1.25-.902 0-1.183-1.331-.946-4.49.185-2.47.012-4.424-.385-4.342-1.138.236-4.557-1.331-6.45-2.956-1.539-1.321-1.8-1.299-2.375.2m106.104 34.79c-7.597 2.645-15.565 11.506-13.409 14.911.81 1.28 1.342.518 1.003-1.437-.079-.454.279-.563.797-.244.517.32 2.215-.48 3.774-1.777 1.559-1.297 4.747-3.556 7.085-5.019 2.338-1.464 4.25-3.33 4.25-4.149 0-.818.477-1.487 1.059-1.487s.781-.45.441-1c-.73-1.18-1.068-1.167-5 .202m-125.257 1.627c-.929.589-.603 1.367 1.25 2.978 1.379 1.199 2.507 2.576 2.507 3.061 0 1.417 6.27 2.313 7.074 1.012.452-.732.953-.37 1.389 1.002.374 1.181 1.099 1.889 1.609 1.574.51-.316.935.015.943.735.012 1.022.208 1.006.893-.076.976-1.542 6.092-.783 6.092.904 0 .54.73.981 1.622.981 1.185 0 1.343-.337.585-1.25-.57-.687-1.075-1.587-1.122-2-.047-.413-.334-.73-.639-.706-.305.024-1.356-.947-2.336-2.157-1.212-1.496-2.955-2.23-5.446-2.293-2.015-.051-3.664-.459-3.664-.906 0-.448-.787-.734-1.75-.636-3.674.374-5.361-.063-4.655-1.207.473-.763.271-.88-.595-.345s-1.068.418-.595-.345c.814-1.318-1.263-1.532-3.162-.326m26.588 6.296c-1.013.643-1.032.878-.081.985.688.077 1.716.196 2.286.265.571.069 1.358.575 1.75 1.125.76 1.064 2.059 1.519 6.464 2.263 1.513.255 2.75.869 2.75 1.365 0 .495 1.463.661 3.25.368 2.294-.375 2.817-.248 1.779.432-.809.53-1.151 1.284-.759 1.676.392.391.245 1.276-.327 1.965-1.276 1.538-.353 2.171 3.557 2.438 5.684.388 7.014.107 5.7-1.207-1.451-1.451-1.6-3.165-.2-2.3.55.34 1 .102 1-.528s-1.35-1.655-3-2.278c-3.438-1.298-3.917-3.268-1.018-4.188 3.527-1.12.184-3.266-3.934-2.526-3.564.641-8.824.546-14.717-.263-1.742-.24-3.767-.056-4.5.408m-79.331.599c-1.1.27-2.45.84-3 1.267-2.68 2.08-14.227 1.995-12.935-.096.304-.492-2.174-.895-5.506-.895-5.45 0-6.059.207-6.059 2.059 0 1.132.359 1.837.798 1.566.439-.271 1.451-.08 2.25.426 1.134.717.959.922-.798.934C.018 404 0 404.119 0 418.905v14.905l4.25 1.381c2.829.92 4.129 1.871 3.887 2.845-.199.805-.746 2.757-1.215 4.336-.85 2.864-.842 2.871 2.863 2.254 8.073-1.344 9.727-1.778 10.03-2.629.173-.486.902-.659 1.621-.383.718.275 1.586-.228 1.928-1.12.342-.891 1.024-1.372 1.516-1.068.491.303 1.445-.113 2.12-.926.675-.813 1.613-1.239 2.084-.948.472.292.798-1.063.725-3.011-.073-1.947-.579-3.541-1.124-3.541-.545 0-.022-.84 1.162-1.867 1.466-1.272 2.153-3.026 2.153-5.5 0-1.998.417-3.633.927-3.633 1.437 0 1.762-3.104.785-7.5-.49-2.2-1.018-5.064-1.176-6.364-.157-1.3-.724-2.65-1.259-3-.536-.35-.892-1.648-.793-2.886.1-1.238-.081-2.198-.401-2.134-.321.064-1.483.337-2.583.608m74.5 9.307c0 .533-.338.916-.75.851-3.115-.492-5.407.267-4.888 1.618.569 1.483-1.281 1.994-5.619 1.551-1.804-.184-4.086 1.654-4.445 3.579-.33 1.767 4.534 3.938 5.857 2.615.819-.819 1.797-.668 3.691.57 1.434.938 2.235 1.13 1.806.435-.447-.726-.281-1.25.396-1.25.641 0 .921.638.622 1.417-.299.78.126 1.675.945 1.989.84.322 1.223.14.878-.417-.336-.544-.161-.989.389-.989s1.297.481 1.66 1.068c.363.588 1.177.89 1.809.672.632-.218 1.936.427 2.899 1.432 1.449 1.514 1.492 1.828.25 1.828-1.827 0-1.929 1.168-.25 2.859 1.003 1.01.871 1.115-.664.53-1.286-.49-1.69-.366-1.23.378.377.609 2.701 1.023 5.164.92 2.464-.103 4.48.15 4.48.563 0 .413.787.736 1.75.718 1.583-.029 1.565-.171-.191-1.5-1.693-1.28-1.725-1.468-.25-1.468.93 0 1.691.48 1.691 1.067 0 .634.864.793 2.125.393 1.43-.454 1.902-.312 1.441.433-.7 1.132.396 1.46 3.934 1.177 1.554-.124 1.689.051.605.784-1.133.766-1.038 1.035.5 1.429 1.058.271.349.527-1.605.581-4.161.114-14.675-1.365-17.5-2.462-1.705-.662-1.817-.551-.759.753.683.841.946 1.825.584 2.187-.362.362-.021.665.758.673 1.217.013 1.218.142.008.908-.775.49-2.125.666-3 .39-1.386-.437-1.398-.363-.091.577 1.297.933 1.263 1.081-.25 1.095-2.66.023-2.09 1.935.918 3.079a7.868 7.868 0 005.39.065c1.851-.645 3.078-.593 3.832.161.813.813 1.11.773 1.11-.149 0-.692.45-.981 1-.641.55.34 1 .167 1-.385 0-1.143 8.165-.427 8.982.787.285.424 3.638.732 7.451.684 4.969-.062 7.519.372 9 1.53 2.04 1.595 8.803 1.981 10.201.583.385-.384.224-.699-.356-.699-.581 0-.993-.788-.917-1.75.079-.992-.448-1.627-1.216-1.465-.746.157-1.943-.202-2.661-.798-.905-.752-1.505-.762-1.954-.036-.96 1.555-1.722 1.316-5.03-1.577l-3-2.623 3.104.43c2.712.375 3.25.043 4.257-2.623.657-1.742.76-3.184.238-3.358-.503-.168-1.932-1.188-3.175-2.266-1.271-1.102-3.027-1.719-4.009-1.407-.961.305-2.041.079-2.4-.503-.359-.581-1.072-.798-1.584-.481-1.815 1.121-2.978-.639-1.439-2.178 2.139-2.138 1.87-3.363-.742-3.38-1.538-.011-1.845-.272-.972-.827 1.548-.982-2.311-3.013-4.959-2.611-1.084.165-1.49-.241-1.143-1.146.296-.77.013-1.401-.628-1.401s-.888.45-.548 1c.34.55.141 1-.441 1s-1.059-.675-1.059-1.5c0-1.444-1.116-1.915-3.739-1.577-.681.088-2.075-.288-3.096-.835-1.235-.661-2.195-.658-2.86.007-.934.934-5.95-.54-7.305-2.148-.99-1.174-4-1.863-4-.916m120.595 2.469c-.458 1.1-.953 3.241-1.099 4.758-.145 1.517-.784 3.384-1.418 4.148-1.418 1.709-2.307 5.854-1.095 5.104.483-.298 1.166-.078 1.517.49s1.057.774 1.569.457c.512-.316.931-.095.931.492 0 .722.604.691 1.865-.097 1.214-.758 1.687-1.896 1.353-3.259-.282-1.151-.134-1.743.329-1.315 1.199 1.107 1.445 6.722.294 6.722-.527 0-.681.45-.341 1s.029 1.007-.691 1.015c-.818.01-.926.291-.289.75.562.404 1.564 1.973 2.229 3.485.664 1.512 1.636 2.75 2.16 2.75.582 0 .617 1.166.091 3-.609 2.123-.515 3.004.32 3.015.843.011.821.244-.079.815-.693.44-1.368 2.68-1.5 4.979-.238 4.12-.295 4.181-3.991 4.186-2.062.003-4.088.118-4.5.255-.412.137-.9-1.066-1.083-2.674-.22-1.931-.602-2.49-1.125-1.644-.559.904-.993.956-1.476.175-.376-.609-.247-1.107.288-1.107.534 0 .743-1.462.465-3.25-.664-4.257-1.318-4.834-1.323-1.167l-.003 2.917-2.006-3.289c-1.342-2.201-1.793-4.135-1.364-5.845.423-1.685.898-2.142 1.394-1.339.413.669 1.314 1.029 2.001.8.912-.304.79-.876-.448-2.114-.934-.934-1.417-2.151-1.075-2.705.343-.555.146-1.008-.436-1.008s-1.059.415-1.059.923c0 2.226-5.29 7.224-6.242 5.897-.692-.965-.79-.836-.364.482.342 1.057.174 1.549-.405 1.191-.544-.336-.989.117-.989 1.007 0 .89.445 1.343.989 1.007.574-.355.729.064.37 1.001-.743 1.936 4.322 7.614 6.604 7.404 3.251-.301 4.237.126 3.675 1.588-.316.825-.113 1.5.452 1.5 2.83 0-.643 1.856-4.578 2.446-2.481.372-4.512 1.099-4.512 1.615 0 .517-.459.939-1.019.939-.588 0-.753-1.058-.392-2.5.536-2.135.283-2.502-1.731-2.515-1.621-.011-1.953-.273-1.061-.839 1.037-.657.986-1.081-.25-2.107-1.339-1.112-1.547-.869-1.547 1.803 0 2.064-.663 3.442-2 4.158-2.163 1.158-2.804 4.19-.75 3.545.688-.216 6.425-.676 12.75-1.022 6.325-.345 12.4-.815 13.5-1.044 1.1-.228 8.525-.664 16.5-.969 17.198-.657 26.226-1.745 31-3.734 3.671-1.529-.346-1.624-24-.567-7.074.317-6.664.701-6.885-6.459-.069-2.271-.608-3.751-1.365-3.752-.899-.001-1.155 1.684-.911 6 .186 3.301.042 6.002-.322 6.002-1.675 0-3.683-3.257-3.184-5.167.306-1.169-.089-2.732-.892-3.535-.793-.793-1.427-2.646-1.409-4.119.03-2.563.095-2.595 1.489-.752.802 1.06 1.787 1.598 2.19 1.196.402-.403.069-1.15-.74-1.662-1.001-.633.506-.935 4.712-.946 5.311-.013 6.272.267 6.817 1.985.349 1.1 1.279 2 2.067 2 .788 0 1.433.45 1.433 1s.675 1 1.5 1 1.507.563 1.515 1.25c.011.833.331.751.961-.245.519-.822 2.197-1.591 3.727-1.709 2.084-.16 2.407.023 1.289.73-1.04.657-1.113.986-.242 1.084.688.077 1.813.211 2.5.298.688.088 1.495-.182 1.793-.599.299-.417 1.424-.895 2.5-1.063 3.74-.581 4.369-1.52 3.162-4.717-.615-1.629-1.813-3.15-2.662-3.379-1.244-.337-1.21-.44.176-.534 1.096-.074 1.51-.659 1.143-1.616-.825-2.149-2.297-1.85-3.224.656-.755 2.04-.955 1.946-3.712-1.75-1.603-2.148-3.461-4.255-4.129-4.682-.667-.427-.982-1.381-.699-2.119.427-1.112-1.48-2.319-3.598-2.277-1.538.031-5-2.605-5-3.806 0-.866-.764-1.26-1.988-1.024-1.094.21-2.56-.189-3.259-.888-.699-.699-1.843-1.08-2.543-.847-.7.234-1.146-.159-.991-.872.192-.884-.912-1.29-3.469-1.276-2.658.014-3.75-.413-3.75-1.464 0-.817-.284-1.2-.631-.853-.348.347-1.473.182-2.5-.368-1.266-.678-1.869-.666-1.869.035 0 2.177-2.659.908-3.592-1.715-.912-2.561-1.036-2.613-1.813-.75m44.155 3.252c-1.847.416-2.458 2.248-.75 2.248.55 0 1 .477 1 1.06 0 .611-1.243.864-2.933.598-3.029-.477-7.542 2.684-5.029 3.521 1.481.494 4.184 6.821 2.914 6.821-1.327 0-1.138 1.17.549 3.398 1.183 1.564 1.705 1.676 2.957.637.836-.694 1.305-1.61 1.042-2.035-.263-.425.187-1.325 1-2s1.231-1.626.93-2.113c-.301-.488-.039-.887.582-.887.667 0 .504-.627-.398-1.529-1.693-1.693-1.231-4.02.963-4.862 3.183-1.222.615-5.633-2.827-4.857M351.207 422c.293.825-.154 2.288-.992 3.25-1.552 1.781-.935 2.253 2.421 1.851.625-.075 1.399.547 1.719 1.381.32.835 1.257 1.518 2.082 1.518.954 0 1.28.573.896 1.574-.423 1.103-1.338 1.391-3.052.96-1.743-.437-2.237-.272-1.716.572.527.851.007 1.003-1.844.539-1.602-.402-3.083-.14-3.917.693-.737.737-2.007 1.602-2.822 1.922-.815.32-.02.618 1.768.661 2.392.058 3.254.541 3.265 1.829.011 1.185.261 1.363.777.553.502-.79 1.263-.88 2.234-.266 1.795 1.135 7.974 1.271 7.974.176 0-.433.9-.855 2-.938 1.1-.083 2 .289 2 .827 0 .537.628.397 1.395-.313 1.769-1.635 1.106-2.76-1.704-2.891-1.502-.071-1.154-.348 1.108-.884 3.5-.829 7.296-.095 20.194 3.903 4.458 1.382 4.326 1.409 3.754-.775-.587-2.245 1.005-5.413 2.314-4.604.517.319.939.051.939-.596 0-.683-.837-.956-1.999-.653-1.099.288-2.251.115-2.559-.383-.308-.498.142-.906.999-.906s1.559-.477 1.559-1.059-.52-.738-1.155-.346c-.645.4-.885.279-.543-.274.335-.543.067-1.039-.596-1.101-.663-.062-3.129-.423-5.478-.801-3.187-.513-4.712-.296-6 .853-1.92 1.714-3.629 2.019-10.228 1.828-2.475-.072-3.999-.461-3.386-.865.677-.447.802-1.518.32-2.735-.673-1.695-.804-1.734-.864-.25-.038.962-.547 1.75-1.129 1.75s-.738-.52-.346-1.155c.443-.715.275-.883-.44-.44-.685.422-1.155.078-1.155-.846 0-.857-.562-1.566-1.25-1.574-.935-.012-.914-.229.085-.862 1.018-.645.852-.972-.703-1.378-1.12-.293-2.21-.018-2.421.611-.267.791-.949.681-2.211-.356-1.622-1.333-1.766-1.333-1.293 0m143.932 9.033c-1.298 1.082-2.016 1.967-1.595 1.967.421 0-.049.9-1.044 2s-1.539 2-1.207 2c1.267 0-1.681 6.625-4.116 9.25-1.403 1.512-2.017 2.75-1.364 2.75.653 0 1.187.505 1.187 1.122 0 .8-.411.782-1.43-.064-1.144-.95-1.652-.774-2.535.877-.738 1.379-.761 2.065-.07 2.065.569 0 1.035-.45 1.035-1s.466-1 1.035-1c.714 0 .714.601 0 1.934-1.388 2.595-1.305 3.513.215 2.377.688-.513 1.813-.85 2.5-.747.688.102 1.727.242 2.309.311.582.069.781.575.441 1.125s-.141 1 .441 1c1.849 0 1.143 1.489-1.191 2.513-1.238.543-2.25 1.527-2.25 2.187 0 .66-.534 1.734-1.186 2.386-.914.914-.866 1.505.208 2.579 1.524 1.524 9.478 4.602 9.478 3.668 0-.318.686-.009 1.524.687 2.248 1.866 2.583.871 1.551-4.604-.567-3.013-.567-5.045 0-5.249.509-.184.925-1.407.925-2.719 0-1.709-.425-2.222-1.5-1.81-1.004.386-1.495-.038-1.485-1.281.012-1.399.224-1.528.861-.523 1.286 2.029 2.211-1.147 1.447-4.968l-.622-3.112-1.269 2.873c-1.805 4.084-1.741 1.049.068-3.281 2.058-4.925 1.883-5.781-.689-3.385-1.203 1.121-2.666 2.023-3.25 2.003-.583-.02.289-1.182 1.939-2.582 2.6-2.207 2.7-2.46.75-1.897-2.351.679-2.799-.071-1.38-2.309.678-1.069 1.156-1.007 2.485.322.919.919 1.645 1.146 1.645.514 0-.621.462-.844 1.028-.495.671.415.8-.519.373-2.691-.36-1.829-.626-4.114-.59-5.076.084-2.281-1.725-2.171-4.672.283m-100.889.713c-1.841.62-1.521 2.254.441 2.254 1.513 0 1.497.142-.153 1.348-2.188 1.601-1.317 3.586 1.482 3.376 1.089-.082 1.98-.407 1.98-.723 0-.315.879-.572 1.954-.572 1.65 0 1.904.587 1.632 3.785-.195 2.308.116 3.792.797 3.801.614.009.477.421-.305.916-1.053.666-.406 1.159 2.5 1.902 9.257 2.367 9.862 2.363 10.924-.058.549-1.251 1.929-2.322 3.067-2.38 2.99-.151 9.431-1.421 9.431-1.859 0-.205.301-1.158.67-2.118.493-1.284.32-1.53-.655-.928-.876.542-1.085.432-.618-.324.472-.763.137-.924-1.009-.485-1.199.46-1.488.29-.96-.565.565-.913-.533-1.164-4.336-.991-4.427.202-7.632 1.875-3.592 1.875 1.87 0 1.901.742.107 2.536-1.19 1.19-1.47 1.096-1.926-.646-.293-1.121-1.504-2.292-2.691-2.603-1.632-.427-1.833-.771-.825-1.41 1.014-.643.899-.85-.474-.862-1.125-.009-1.535-.458-1.086-1.185.486-.787.178-.961-.941-.531-.915.351-1.664.21-1.664-.312 0-.523-2.324-.899-5.165-.835-3.499.079-5.515-.358-6.25-1.355-.597-.81-1.647-1.283-2.335-1.051M155.362 439.5c.316.825.027 1.507-.643 1.515-.861.011-.893.231-.109.75.611.404 1.831 2.14 2.71 3.858 1.662 3.243 4.389 4.618 6.788 3.42.766-.382 2.742-.376 4.392.013 1.65.389 2.434.761 1.742.826-.99.093-1.003.528-.061 2.037.955 1.529.906 2.279-.241 3.692-1.194 1.47-1.2 1.628-.035.926.953-.574 1.175-.475.69.308-.497.806.591 1.151 3.596 1.141 5.345-.017 8.809-.899 8.809-2.242 0-.563.754-1.575 1.675-2.248 1.476-1.079 1.239-1.369-1.98-2.432-2.011-.663-4.151-.9-4.755-.527-.605.374-1.732-.222-2.504-1.325-1.643-2.345-5.792-3.964-9.686-3.777-1.512.072-2.75-.337-2.75-.909 0-.575 1.903-.991 4.25-.93l4.25.11-3.95-.42c-2.88-.307-3.557-.669-2.5-1.338 1.439-.91-1.373-1.484-4.9-1-.743.102-1.083-.247-.756-.776.327-.529-.115-1.235-.982-1.567-2.605-1-3.659-.691-3.05.895m211.091 1.424c.314.509-.222 1.131-1.191 1.384-1.665.435-1.665.466-.012.576 3.162.21 1.826 2.115-1.5 2.14-4.741.036-12.898.868-24.25 2.474-5.5.779-13.301 1.637-17.336 1.908-4.035.271-7.893.954-8.574 1.519-.833.691-3.176.71-7.164.057-7.45-1.22-11.115-1.145-6.676.137 5.275 1.523 3.811 1.843-6 1.312-6.215-.337-10.399-.079-12.75.784l-3.5 1.285-.232 23.25c-.22 22.013-.134 23.25 1.612 23.25 2.028 0 3.621-8.185 2.537-13.037-1.29-5.775-1.685-19.963-.556-19.963.627 0 1.139-1.5 1.139-3.333 0-1.834.337-3.671.75-4.084.413-.412.787-1.05.832-1.416.348-2.849 1.793-6.053 2.525-5.601 1.265.782 1.113 5.434-.178 5.434-1.215 0-1.073 12.18.152 13.007.413.279.405 5.679-.018 12l-.769 11.493-.325-8c-.179-4.4-.321-8.8-.315-9.777.006-.978-.476-1.597-1.072-1.375-.595.221-.883 1.021-.639 1.777s.342 6.197.22 12.091l-.223 10.716 52.03.05 52.03.05.195-5.766c.107-3.171.255-7.116.329-8.766.073-1.65-.222-4.287-.657-5.86-1.078-3.899.486-5.093 7.023-5.362 3.388-.139 6.081-.846 7.25-1.905 1.761-1.594 1.86-1.563 1.86.58 0 1.877.402 2.163 2.352 1.673 5.613-1.408 9.846-1.755 9.228-.755-.371.599.939 1.32 3.142 1.73 3.835.712 7.278 3.585 7.278 6.073 0 1.425 2.593 2.781 7.183 3.759 2.82.601 4.492 3.672 3.163 5.808-.431.692-.798 2.946-.815 5.008l-.031 3.75h32.75L500 501v-24.79l-3.75-.484c-7.965-1.029-9.483-1.709-9.883-4.43-.133-.905-.945-2.04-1.804-2.521-.86-.481-1.563-1.543-1.563-2.36 0-1.886-2.508-5.889-6.638-10.595l-3.23-3.68-4.316 2.799c-4.389 2.846-13.223 3.618-18.077 1.578-1.355-.569-1.619-.368-1.143.872.35.914.113 1.611-.548 1.611-.641 0-.888-.45-.548-1 .34-.55-.132-1-1.048-1-1.07 0-1.46.537-1.09 1.5.316.825.027 1.556-.643 1.624-.671.068-2.85.232-4.844.364-5.039.334-6.273 1.256-4.309 3.221.87.87 1.211 1.854.758 2.186-1.191.874-1.382 6.105-.223 6.105.538 0 .398.629-.312 1.397-1.076 1.166-1.372.794-1.789-2.25-.577-4.21.911-4.022-21.149-2.676-6.956.425-13.124.478-13.706.119-2.322-1.435.042-3.231 4.143-3.146 2.317.047 5.562-.321 7.212-.818 1.65-.497 7.464-1.178 12.921-1.515 6.588-.406 10.059-1.031 10.333-1.861.229-.693-.405-1.257-1.421-1.265-1.008-.009-2.508-.443-3.333-.965-1.018-.644 1.019-.937 6.341-.909 4.313.022 8.101-.219 8.417-.536.316-.316-.373-.575-1.532-.575-1.16 0-2.386-.45-2.726-1-.34-.55-1.941-1-3.559-1-2.015 0-2.941-.498-2.941-1.582 0-1.629-.117-1.626-9.892.213-2.72.511-3.233.363-2.59-.747.442-.761.483-1.099.092-.751-.39.349-2.228.291-4.083-.127s-3.778-.355-4.273.14c-.926.926-11.327-2.132-16.586-4.877-1.557-.814-4.592-1.544-6.744-1.624-2.152-.08-3.915-.482-3.918-.895-.003-.413-.681-.75-1.506-.75-.933 0-1.5.944-1.5 2.5 0 1.375-.45 2.5-1 2.5s-1-.477-1-1.059-.472-.768-1.048-.411c-.576.356-2.212-.518-3.636-1.941-1.469-1.47-2.025-2.589-1.286-2.589 2.013 0 .185-1.355-2.05-1.52-1.089-.08-1.98.299-1.98.842 0 .543-.823.243-1.829-.667-1.972-1.785-3.648-2.236-2.718-.731M247.63 460.79c-.314.507-2.768.711-5.454.453-5.262-.506-9.176.909-9.176 3.317 0 2.215 4.919 3.798 7.769 2.5 1.279-.583 3.487-1.06 4.907-1.06h2.581l-.728 11.25c-.4 6.188-1.041 11.475-1.424 11.75-.384.275-.789 3.087-.9 6.25l-.203 5.75h6.239l-.673-13.75c-1.174-24.006-1.674-28.505-2.938-26.46m-38.982 25.895c-.379.379-3.199.763-6.267.852-3.543.103-5.901.673-6.464 1.563-.685 1.083-.89 1.103-.902.091-.008-.72-.513-1.001-1.122-.625-.791.489-.76.898.107 1.434.867.536.898.945.107 1.434-.609.376-1.107 2.682-1.107 5.125 0 4.03.224 4.441 2.417 4.441 1.329 0 2.643-.562 2.921-1.25.403-1 .52-1 .583 0 .056.883 2.301 1.25 7.646 1.25 7.045 0 7.525-.134 6.949-1.948-.34-1.072-.691-3.789-.781-6.039-.157-3.944-2.635-7.78-4.087-6.328m18.747.053c-.609.419-1.364 2.787-1.679 5.262-.315 2.475-.804 5.512-1.087 6.75-.424 1.856-.09 2.25 1.909 2.25 2.592 0 4.138-3.307 3.208-6.864-.264-1.007.077-2.87.756-4.14 1.08-2.019 1.22-1.475 1.116 4.349-.11 6.191.033 6.656 2.043 6.655 1.943 0 2.201-.632 2.551-6.25.215-3.437.076-6.631-.307-7.096-.968-1.175-7.167-1.843-8.51-.916m-84.009 4.271c-6.731.973-8.627 2.15-8.993 5.584-.415 3.893.775 4.374 10.857 4.392 8.365.014 8.757-.084 8.908-2.235.557-7.899-1.159-9.131-10.772-7.741M165 495.531V501h10.105l-.303-5.099-.302-5.1-4.75-.37-4.75-.369v5.469" fill="#d3d3d3" fill-rule="evenodd"/></svg>