<svg xmlns="http://www.w3.org/2000/svg" width="500" height="667"><path d="M235.309 98.704c-1.205.231-4.092 2.106-6.414 4.167-4.027 3.574-4.172 3.896-3.111 6.939.652 1.869.723 3.19.172 3.19-1.901 0-6.442 6.196-6.154 8.395.326 2.493-3.787 5.328-6.954 4.792-1.19-.201-1.848.287-1.848 1.373 0 1.372-.274 1.457-1.475.461-2.383-1.978-4.103 2.901-2.907 8.241 1.203 5.37.711 8.078-1.326 7.297-1.128-.433-1.402-.087-1.036 1.31 1.006 3.847-2.596 5.253-14.492 5.656-12.278.416-21.764 3.653-21.764 7.426 0 2.892-2.621 4.372-6.6 3.727-6.756-1.097-17.997 4.728-12.9 6.684.825.316 1.5 1.039 1.5 1.607 0 .567-.675 1.031-1.5 1.031s-1.5.502-1.5 1.117-.877.887-1.952.606c-1.074-.281-2.113-.029-2.309.56-.196.589-.893.74-1.548.335-1.718-1.062-1.468-2.662.309-1.98.95.365 1.5-.013 1.5-1.031 0-1.065-.879-1.607-2.607-1.607-1.968 0-2.458.388-1.999 1.584.389 1.014.158 1.418-.643 1.125-.688-.253-1.127-.999-.976-1.659.568-2.476-4.351.183-8.837 4.778-4.403 4.509-4.606 4.987-5.806 13.672-1.628 11.793-3.346 16.318-7.78 20.501-2.009 1.895-4.373 4.599-5.252 6.008-.88 1.41-5.875 6.543-11.1 11.407-14.412 13.416-20.195 22.885-20.535 33.621-.138 4.361-.916 7.927-2.336 10.71-2.288 4.485-2.641 9.375-1.139 15.753.518 2.2 1.211 7.15 1.54 11 .434 5.086 1.264 7.972 3.034 10.554 1.34 1.954 2.436 4.143 2.436 4.863 0 .72 2.481 3.846 5.513 6.946 3.032 3.1 6.969 7.626 8.75 10.057 1.78 2.432 6.057 6.482 9.504 9l6.268 4.58-.764 7c-1.04 9.534-.772 23.173.549 27.877.978 3.484.842 4.199-1.344 7.065-7.017 9.201-9.476 16.096-9.476 26.576 0 9.989 2.762 31.817 5.555 43.894 3.085 13.345 8.43 17.267 20.542 15.07 9.098-1.649 13.042 2.426 18.401 19.018.978 3.025 3.756 9.762 6.174 14.971 2.721 5.859 4.753 11.961 5.329 16 8.082 56.684 13.809 75.887 29.563 99.117 10.9 16.072 17.525 23.12 32.129 34.179 6.693 5.069 10.277 8.476 10.704 10.177l.641 2.556h42.923l5.27-3.406c14.401-9.309 27.434-31.727 30.286-52.094.944-6.746 2.805-9.5 6.418-9.5 5.786 0 18.546-3.037 24.533-5.838 10.825-5.066 21.568-18.361 28.976-35.858 3.747-8.852 7.325-16.568 17.3-37.304 8.675-18.033 12.465-28.947 16.843-48.5 1.572-7.025 1.827-32.119.385-38-3.027-12.346-4.405-30.21-2.479-32.136 1.843-1.843 5.507-17.997 5.507-24.28 0-12.72-3.754-23.85-11.075-32.834-4.842-5.941-5.63-6.274-6.514-2.75-.581 2.313-1.069 2.5-6.519 2.5H375v-3.941c0-2.168-.45-4.219-1-4.559-.55-.34-1-1.443-1-2.452s-.696-2.101-1.547-2.428c-.851-.326-1.443-1.162-1.316-1.857.413-2.257-2.992-8.763-4.586-8.763-1.057 0-1.551-.956-1.551-3 0-1.65-.502-3-1.117-3-.713 0-.874-.992-.446-2.75 1.156-4.741.784-6.101-2.557-9.368-3.442-3.364-8.438-4.216-9.991-1.703-.642 1.039-1.059 1.051-2.047.063-.683-.683-2.502-1.242-4.042-1.242s-2.8-.351-2.8-.781c0-1.056-6.075-3.29-7.147-2.628-.469.29-.853-.455-.853-1.654 0-1.797-.257-1.969-1.456-.973-.801.664-1.888.942-2.415.616-.527-.326-1.148-.252-1.38.164-.232.416-.263.139-.07-.615.242-.947-.288-1.203-1.719-.829-1.561.408-2.309-.088-3.043-2.018-.535-1.408-1.244-2.288-1.576-1.956-.332.332-1.545-.056-2.695-.861-2.946-2.064-3.891-1.824-3.089.785.38 1.238.339 1.916-.091 1.509-.43-.408-1.386-.24-2.124.372-1.032.857-1.342.726-1.342-.568 0-.924-.412-1.426-.916-1.115-.504.312-2.032.142-3.397-.377-1.791-.681-2.995-.553-4.334.461-1.459 1.106-1.534 1.418-.353 1.467 1.21.05 1.17.254-.206 1.057-1.242.724-2.683.472-5.291-.926-4.113-2.205-7.503-1.759-7.503.987 0 2.365-1.569 2.436-2.95.133-.999-1.667-1.113-1.667-2.41 0-.748.962-1.845 1.75-2.438 1.75-.593 0-1.01.9-.927 2 .169 2.243 1.294 2.652 2.066.75.381-.941.762-.881 1.542.243 1.202 1.733-2.098 3.445-5.119 2.656-.97-.254-1.764-.054-1.764.445 0 1.737-1.771.891-2.29-1.094-.403-1.542-.029-2.001 1.634-2.006 1.873-.006 1.772-.207-.774-1.534-2.464-1.285-3.146-1.313-4.284-.175-1.658 1.658-2.824 7.165-1.32 6.236.569-.351 1.034-.258 1.034.207 0 .466 1.006.922 2.235 1.015 1.23.092 2.392.638 2.584 1.213.533 1.6 5.455 1.241 8.067-.589 1.954-1.369 2.473-1.409 3.208-.25.652 1.03.879.809.891-.867.008-1.238.465-2.25 1.015-2.25.55 0 1 .477 1 1.059s.414.803.919.491c.506-.313 1.631.143 2.5 1.012 1.57 1.57 1.716 1.515 1.956-.729.172-1.603 2.625-2.304 2.625-.75 0 .688.284.966.631.619.348-.347 1.473-.182 2.5.368 1.881 1.007 2.352.324 1.944-2.82-.09-.687.585-1.25 1.498-1.25 1.236 0 1.537-.645 1.178-2.524-.266-1.388-.093-2.765.383-3.059.476-.294.911.504.966 1.774.098 2.278.11 2.275.9-.191.44-1.375.845-1.907.9-1.183.065.851.808 1.093 2.1.683 1.419-.45 2-.18 2 .933 0 .862-.45 1.567-1 1.567-2.005 0-.937 1.579 1.175 1.738 1.197.09 2.937-.714 3.867-1.787 1.744-2.011 4.958-2.671 4.958-1.018 0 .513.9 1.218 2 1.567s2 1.081 2 1.626c0 .546-.45.714-1 .374-.55-.34-1 .309-1 1.441 0 1.132.627 2.059 1.393 2.059s1.6.563 1.853 1.25c.811 2.206-.346 3.75-2.81 3.75-1.739 0-2.575.704-3.04 2.56-.408 1.623-1.146 2.366-2.019 2.031-.758-.291-1.377-.092-1.377.44 0 2.432-1.843.619-2.402-2.363-.344-1.832-1.744-4.304-3.112-5.493L311 304.013l-.015 2.244c-.01 1.368-.306 1.786-.76 1.072-.41-.644-2.043-1.496-3.63-1.894-2.776-.697-2.859-.616-2.198 2.17.378 1.592 1.68 3.795 2.895 4.895 1.733 1.57 2.208 3.108 2.208 7.155 0 4.922.113 5.14 2.5 4.819 1.375-.185 3.063-.367 3.75-.405.688-.038 1.257-1.081 1.265-2.319.009-1.238.44-2.921.959-3.742 1.464-2.315 3.42.21 2.434 3.141-1.214 3.609-.511 6.066 2.694 9.417 1.613 1.686 2.663 3.336 2.333 3.666-1.074 1.074-16.897-.333-17.935-1.595-2.235-2.718-9.244-3.454-30.72-3.225l-21.72.231-2.482 2.679c-2.714 2.928-4.172 3.357-4.852 1.428-.342-.968-1.094-.91-3.334.255-1.59.828-4.579 1.489-6.642 1.468-2.062-.02-3.75.323-3.75.762 0 .44-1.65 2.403-3.666 4.361-3.116 3.025-3.801 3.322-4.557 1.971-.529-.947-1.991-1.506-3.612-1.383-1.497.114-3.275-.134-3.951-.552-.733-.453-1.474-.118-1.838.83-.495 1.29-.891 1.355-2.107.346-1.226-1.017-1.799-.872-3.155.803-1.187 1.465-1.965 1.74-2.742.968-.78-.775-.524-1.568.906-2.814 2.026-1.763.775-5.534-1.391-4.195-.488.301-.887.057-.887-.542 0-.6.701-1.36 1.557-1.688.857-.329 1.321-1.215 1.032-1.969-.315-.821.164-1.403 1.192-1.45 1.044-.048 1.228-.277.469-.583-1.926-.777-1.48-2.338.668-2.338 2.981 0 5.082-1.078 5.082-2.607 0-.766.436-1.393.969-1.393.532 0 .698-.705.367-1.567-.864-2.251 1.667-6.433 3.892-6.433 1.04 0 1.612.45 1.272 1-1.386 2.243 3.61.802 6.067-1.75 1.792-1.861 2.804-2.34 3.13-1.482 1.43 3.766 3.197 4.205 7.775 1.932 2.783-1.382 4.448-2.885 4.479-4.044.027-1.014.949-2.079 2.049-2.366 1.1-.288 2-.951 2-1.475 0-.523 1.238-.077 2.75.992 2.116 1.496 3.323 1.73 5.236 1.014 1.367-.512 3.248-.731 4.181-.488 1.819.476 5.783-2.625 5.91-4.622.042-.666.299-2.111.572-3.211.964-3.893.418-6.026-2.101-8.202-1.401-1.211-2.555-3.236-2.563-4.5-.012-1.736-.234-1.953-.908-.889-.49.775-.713 1.9-.495 2.5.218.6-.021 1.749-.532 2.552-.765 1.204-1.306.983-3.062-1.25-2.31-2.936-5.988-3.66-5.988-1.179 0 1.634-3.753 3.489-5.621 2.779-.616-.234-1.39.275-1.719 1.132-.328.856-1.286 1.557-2.129 1.557-.842 0-1.531.675-1.531 1.5s-.675 1.5-1.5 1.5c-.833 0-1.5.889-1.5 2s-.667 2-1.5 2c-1.808 0-1.933-1.167-.3-2.8.933-.933.711-1.2-1-1.2-1.21 0-2.2.477-2.2 1.059s-.548.72-1.219.306c-.67-.415-2.912-.86-4.982-.989-4.992-.313-6.806-1.459-3.97-2.508 1.194-.442 2.171-1.52 2.171-2.395s.342-1.379.761-1.121c.419.259 1.656-.192 2.75-1.003 1.928-1.427 1.932-1.515.136-2.846-1.774-1.316-1.711-1.633 1.485-7.446 1.835-3.339 4.132-6.323 5.103-6.632.971-.308 1.765-1.156 1.765-1.885 0-.729.682-1.588 1.515-1.907.833-.32 1.947-1.718 2.475-3.107.528-1.389 1.422-2.526 1.985-2.526 1.359 0 1.301 1.324-.12 2.745-.859.859-.486 1.309 1.498 1.807 3.451.867 5.771-.064 5.023-2.014-.372-.969-.027-1.538.934-1.538.838 0 1.724.563 1.97 1.25.585 1.64 1.296.845 2.044-2.285.797-3.332-4.167-4.28-5.035-.962-.516 1.974-2.289 2.83-2.289 1.105 0-.49-1.125-1.174-2.5-1.519s-2.5-1.087-2.5-1.65c0-.562-.924-2.015-2.054-3.227l-2.053-2.204 3.761-.781c2.068-.43 4.342-.559 5.053-.286.847.325 1.293-.376 1.293-2.031 0-1.391.403-2.279.895-1.975 1.442.891 2.251-2.554.965-4.104-1.916-2.309.311-3.431 6.869-3.463 3.315-.016 7.258-.667 8.763-1.448 1.505-.781 3.387-1.42 4.181-1.42.795 0 1.186-.419.869-.932-.726-1.175 3.314-4.068 5.681-4.068.977 0 1.777.675 1.777 1.5 0 .833.889 1.5 2 1.5s2-.667 2-1.5c0-.825.638-1.5 1.418-1.5.78 0 2.13-.273 3-.607 1.038-.398 1.582-.055 1.582 1 0 2.029 2.868 2.114 3.638.107.317-.825 1.155-1.5 1.862-1.5.707 0 1.545-.675 1.862-1.5.316-.825 1.516-1.5 2.666-1.5 1.176 0 1.812.449 1.455 1.028-1.817 2.94 6.576 6.081 10.556 3.951 2.159-1.155 10.66 1.284 14.934 4.285 1.359.955 3.272 1.736 4.25 1.736.977 0 1.777.45 1.777 1s.675 1 1.5 1 1.5.45 1.5 1 .879 1 1.953 1c2.703 0 7.042 2.092 7.073 3.411.014.599 1.701 1.88 3.75 2.846 4.006 1.89 20.288 17.249 26.556 25.05l3.832 4.77 2.768-2.788c7.287-7.343 9.123-14.972 7.362-30.593-1.434-12.727-2.644-15.162-7.974-16.043-5.801-.958-12.32-.775-12.32.347 0 1.112-2.98 1.329-5.418.393-1.239-.475-1.581-2.155-1.576-7.75.006-8.757 1.179-13.199 5.186-19.645 6.74-10.842.377-26.979-16.363-41.498-2.359-2.046-4.004-4.764-5.173-8.548-1.136-3.675-3.144-7.052-5.947-10-2.327-2.449-5.351-5.864-6.72-7.589-2.595-3.27-6.989-5.39-6.989-3.371 0 .619-.457.843-1.016.498-.559-.346-.71-1.124-.336-1.729.461-.747.065-.844-1.234-.302-1.053.439-3.003 1.032-4.335 1.319-1.332.286-4.829 2.928-7.772 5.871-2.943 2.943-6.022 5.351-6.843 5.351-2.08 0-7.185-5.846-8.513-9.75-.609-1.787-1.491-3.25-1.961-3.25s-1.126-.855-1.458-1.899c-.858-2.702-5.51-7.16-9.032-8.653-1.65-.7-6.414-4.187-10.586-7.75-4.172-3.562-9.119-7.27-10.994-8.239-1.874-.97-5.783-3.556-8.686-5.747-5.254-3.968-9.956-5.151-15.925-4.008m133.783 198.218c-1.198.758-1.16 1.414.25 4.386 1.873 3.948 2.141 7.276.658 8.192-1.71 1.057-1.099 2.5 1.059 2.5 1.132 0 1.802.416 1.487.925-.314.509-.147 1.971.372 3.25s1.216 3.593 1.549 5.142c.463 2.157 1.123 2.766 2.819 2.601 2.55-.248 5.874.949 6.964 2.509 1.553 2.221 2.816-2.018 2.361-7.927-.693-9.021-4.52-18.5-7.468-18.5-.934 0-1.22.815-.891 2.54.308 1.607.075 2.399-.633 2.157-.615-.211-.968-1.417-.782-2.68.246-1.68-.057-2.147-1.124-1.737-.893.342-1.964-.381-2.756-1.86-1.425-2.663-1.797-2.807-3.865-1.498M213 387.096c-1.375.388-3.963.749-5.75.804-2.265.07-3.25.583-3.25 1.694 0 .876-.885 1.825-1.967 2.108-2.326.608-3.758 4.232-2.082 5.268.711.439.905 1.754.499 3.375-.421 1.677-.259 2.655.442 2.655.609 0 1.108.675 1.108 1.5s.541 1.5 1.202 1.5c.662 0 2.654 1.407 4.428 3.126 2.715 2.632 3.673 3.002 6.048 2.338 1.552-.435 3.419-.689 4.15-.565.73.123 1.561-.672 1.848-1.768.321-1.229 1.075-1.78 1.966-1.438.794.305 1.225.774.957 1.042-1.391 1.39 5.521 5.397 8.268 4.794 1.957-.43 3.382-.137 4.429.91.849.849 1.692 1.135 1.874.636.181-.499 2.13-.277 4.33.494 2.2.77 5.001 1.408 6.225 1.416 1.912.013 2.145.417 1.654 2.871-.42 2.099-.131 3.025 1.088 3.493.913.35 1.378 1.093 1.033 1.651s.074 1.283.931 1.612c.857.329 1.331.964 1.055 1.411-.576.932 3.488 1.837 8.264 1.841 2.27.001 3.25-.465 3.25-1.548 0-1.057.635-1.383 2-1.026 1.1.287 2 .111 2-.392s.959-.349 2.131.344c1.377.813 2.264.895 2.508.232.208-.564 2.206-.851 4.441-.638 4.693.448 7.638-1.869 7.104-5.586-.402-2.798.181-2.805 4.629-.056 2.918 1.803 3.436 1.898 2.913.533-.532-1.385-.149-1.562 2.318-1.068 1.995.399 2.956.19 2.956-.641 0-.678.639-.987 1.419-.687 1.526.585 5.581-2.394 5.581-4.1 0-.57 1.39-1.52 3.088-2.112 1.698-.592 3.326-1.986 3.617-3.098.694-2.656 2.053-2.55 6.563.515 4.309 2.928 4.214 2.631 2.136 6.65-1.194 2.308-1.336 3.619-.563 5.2 2.361 4.829 2.273 6.106-.432 6.263-1.411.082-3.572 1.095-4.802 2.25-1.23 1.156-3.039 2.101-4.021 2.101-1.941 0-8.586 6.114-8.586 7.9 0 .605-.45 1.1-1 1.1s-1 .377-1 .838c0 1.548 9.212 1.279 10.903-.319 4.934-4.66 10.146-8.025 8.628-5.569-2.088 3.378 14.095 1.824 17.61-1.691.754-.754 1.919-.807 3.608-.164 3.098 1.178 5.251-.361 5.251-3.753 0-2.046.284-2.26 1.869-1.412 2.891 1.547 3.311.097 1.036-3.583-1.137-1.841-1.8-3.347-1.473-3.347.327 0-.015-1.462-.761-3.25s-1.922-5.614-2.614-8.503c-.692-2.889-1.663-5.503-2.157-5.809-.495-.306-.9-1.784-.9-3.285 0-1.577-1.249-4.19-2.959-6.191-1.628-1.904-2.978-3.794-3-4.201-.057-1.029-3.334-4.761-4.182-4.761-.383 0-1.667 1.571-2.854 3.491-1.355 2.193-3.297 3.787-5.224 4.286-2.662.69-2.883.991-1.674 2.283 3.223 3.442 2.054 4.712-2.681 2.912-2.163-.822-3.485-.622-6.596 1-2.14 1.115-4.007 2.028-4.148 2.028-.141 0-.364-1.409-.495-3.13-.228-2.996-.106-3.104 2.837-2.515 1.91.382 2.845.242 2.467-.37-.335-.542-1.073-.985-1.64-.985s-1.81-.963-2.763-2.14c-2.463-3.041-7.437-.772-7.769 3.545-.122 1.594-.694 3.37-1.271 3.947-.576.576-1.048 1.771-1.048 2.655 0 2.795-4.891 7.834-7.055 7.268-1.07-.279-1.945-.006-1.945.608 0 .615-.45 1.117-1 1.117s-1-.845-1-1.878c0-2.827-2.6-4.66-3.734-2.632-.991 1.77-6.266.537-6.266-1.465 0-.564-.675-1.025-1.5-1.025s-1.5.408-1.5.906c0 .499-.889.674-1.976.39-1.592-.416-1.779-.885-.965-2.406.858-1.603.664-1.878-1.274-1.811-1.257.043-1.727.305-1.044.58 2.636 1.065-1.482 3.414-4.942 2.82-1.815-.312-4.649-.797-6.299-1.077-4.839-.823-7.612-3.106-6.955-5.725.494-1.97-.12-2.547-4.758-4.47-2.929-1.214-5.667-2.207-6.084-2.207-.417 0-3.842-1.524-7.61-3.386-6.947-3.433-13.008-4.233-19.093-2.518m141.213 20.154c.61 1.788 1.711 3.61 2.448 4.05 2.245 1.341 1.614 3.585-.83 2.946-1.691-.443-2.034-.216-1.556 1.029.337.878.076 1.775-.579 1.993-.814.271-.32 2.121 1.556 5.829 1.511 2.987 2.748 6.004 2.748 6.703 0 .698.696 2.332 1.546 3.63 1.783 2.721 5.454 2.426 5.454-.44 0-2.238 2.647-3.353 3.386-1.427.303.79 1.172 1.437 1.931 1.437 1.409 0 4.067 5.311 5.13 10.25.325 1.512 1.033 2.75 1.572 2.75.54 0 1.856.875 2.925 1.944 1.07 1.07 3.49 2.234 5.378 2.589 3.275.614 3.411.523 2.94-1.945-.315-1.647-.049-2.588.733-2.588.855 0 1.034-1.034.588-3.408-.537-2.863-.17-3.921 2.298-6.623 5.701-6.242 3.655-16.888-3.267-17.004-1.163-.02-3.239-.679-4.614-1.465s-3.471-1.445-4.657-1.465c-1.186-.019-5.189-1.395-8.895-3.058-3.706-1.663-7.798-3.111-9.093-3.218-1.295-.108-2.355-.547-2.355-.977 0-1.103-3.807-4.782-4.948-4.782-.564 0-.499 1.315.161 3.25M117.75 438.392c-2.446 1.856-2.181 4.124.75 6.429 1.375 1.082 2.5 2.395 2.5 2.918 0 .523.875 1.743 1.944 2.71 1.069.968 2.082 2.725 2.25 3.905.532 3.733 3.297 2.574 3.382-1.418.042-1.96.35-4.007.684-4.548 1.506-2.437-4.085-4.869-7.01-3.048-1.547.963-1.566.447-.103-2.763 1.86-4.082-.977-6.781-4.397-4.185m186.395 24.125c-1.295 1.366-2.886 2.483-3.534 2.483-.649 0-1.964 1.328-2.923 2.95-1.697 2.873-1.686 2.981.42 4.108 1.189.636 1.764 1.446 1.277 1.799-1.178.855-1.436 9.143-.285 9.143.495 0 .9-.691.9-1.535 0-1.175.427-1.307 1.819-.562 2.305 1.234 11.042-3.515 13.571-7.376 1.865-2.845 1.353-6.527-.906-6.527-.76 0-2.584-1.575-4.052-3.5-3.168-4.153-3.265-4.168-6.287-.983m6.355 35.628c-4.4 1.684-10.475 3.578-13.5 4.209-3.025.63-5.41 1.596-5.301 2.146.341 1.712 6.636 2.497 8.301 1.035 1.794-1.575 14.138-1.418 18.118.231 2.233.925 8.492.874 15.142-.122 5.406-.811 4.903-6.262-.76-8.239-7.916-2.763-13.323-2.582-22 .74" fill="#d3d3d3" fill-rule="evenodd"/></svg>