<svg xmlns="http://www.w3.org/2000/svg" width="500" height="637"><path d="M187.502.996c-.258.418.986 1.078 2.764 1.467 2.83.618 2.984.805 1.234 1.498-1.121.444-2.547.355-3.245-.203-.854-.682-2.014-.49-3.698.612-1.354.888-3.219 1.313-4.165.95-1.389-.533-1.602-.232-1.126 1.59.451 1.725.237 2.113-.921 1.669-.83-.318-1.922-.579-2.427-.579-.505 0-.918-1.125-.918-2.5 0-3.697-3.755-3.473-4.184.25-.178 1.547-.863 2.641-1.566 2.5-.687-.138-1.25.411-1.25 1.219 0 .894.586 1.243 1.5.893.975-.375 1.5.026 1.5 1.145 0 1.45-.668 1.627-4.25 1.129-2.835-.394-5.082-.111-6.75.851-1.375.793-1.937 1.458-1.25 1.478.759.021 1.208 1.312 1.144 3.285l-.107 3.25-1.097-2.779c-.638-1.618-1.638-2.571-2.393-2.281-.713.273-1.297.124-1.297-.333 0-.456-1.125-.615-2.5-.352-2.234.427-2.5.147-2.5-2.638 0-1.715-.477-3.117-1.059-3.117s-.741.515-.351 1.145c.487.789-.107.989-1.911.644-1.44-.275-2.381-.115-2.09.355.291.471-.12.856-.913.856-.794 0-1.678.9-1.966 2-.313 1.197-1.364 2-2.616 2-1.427 0-2.094.637-2.094 2 0 1.801.672 2.002 6.75 2.015 4.727.011 6.3.306 5.25.985-.825.533-2.738.976-4.25.985-1.512.008-2.75.52-2.75 1.137 0 .811-.363.822-1.307.038-.977-.81-1.663-.589-2.72.878-.976 1.354-2.586 1.962-5.194 1.962-3.092 0-3.779.358-3.779 1.969 0 1.345.478 1.785 1.511 1.388 1.126-.432 1.337-.124.827 1.205-.524 1.364-.306 1.64.925 1.167 2.044-.784 7.429 3.225 5.736 4.272-.643.397-1.131 1.01-1.084 1.361.445 3.329-.007 3.702-3.915 3.231-2.329-.28-4-.063-4 .522 0 .552-.483.704-1.074.339-2.919-1.804-6.926-1.087-6.926 1.239 0 2.308-3.449 3.021-11.5 2.377-1.668-.133-1.751.014-.5.885.942.657 1.128 1.324.5 1.795-1.84 1.38-1.835 4.592.007 3.886.911-.35 1.871-.636 2.134-.636.262 0 .252-.364-.022-.808-.275-.444 1.354-.917 3.619-1.051 2.265-.134 4.457-.452 4.871-.708.414-.256.998-.069 1.298.417.645 1.043 5.383.299 6.167-.969.299-.485-.27-.888-1.265-.896-1.399-.011-1.242-.309.691-1.314 1.884-.978 2.677-1.011 3.218-.131.997 1.622 8.305-.335 12.537-3.358 2.2-1.572 3.255-1.894 3.277-1 .021.877.481.725 1.377-.455 1.264-1.666 1.392-1.635 2.109.5.727 2.162.786 2.13 1.206-.651.303-2.003.698-2.512 1.252-1.615.625 1.011 1.51 1.065 3.89.236 1.694-.591 4.253-.862 5.687-.602 1.64.298 2.37.089 1.968-.561-.359-.581.239-1.034 1.363-1.034 1.102 0 2.675-.96 3.498-2.134 1.534-2.191 8.618-3.624 8.618-1.744 0 .896.988.255 4.535-2.943.977-.881 1.465-.945 1.465-.191 0 .621.45.852 1 .512.55-.34 1-.171 1 .375 0 .545-1.238 1.18-2.75 1.409-2.56.387-2.525.427.5.566 4.273.197 4.312 2.758.057 3.692-2.835.623-3.003.841-1.5 1.941 1.767 1.292-3.977 2.487-12.057 2.508-1.787.005-3.25.459-3.25 1.009 0 .55.477 1 1.059 1s.773.463.424 1.028c-.42.678 2.364.977 8.184.878 9.309-.159 12.336-.764 12.023-2.406-.104-.55 2.285-1.264 5.31-1.587l5.5-.587-5.25-.163c-5.268-.164-6.609-1.404-4.163-3.85.783-.783.783-1.275 0-1.759-.598-.37-1.087-1.572-1.087-2.672 0-1.257.429-1.735 1.155-1.287.704.436.883.275.459-.411-.429-.694.374-1.36 2.095-1.738 1.535-.337 3.466-.874 4.291-1.193 2.054-.794 1.972-.774 6.714-1.644 3.71-.68 4.51-.476 6.693 1.707 2.348 2.349 2.377 2.507.537 2.989-1.202.314-1.944 1.371-1.944 2.768 0 1.243.293 1.967.651 1.609.651-.651 3.257 2.152 3.317 3.568.018.413-2.641.75-5.909.75s-6.181.389-6.475.863c-.785 1.272 11.647 2.19 13.118.969.835-.693 2.126-.695 4.014-.005 1.531.558 2.222 1.051 1.534 1.094-2.108.133-1.39 3.079.75 3.079 1.316 0 2-.667 2-1.95 0-1.673.818-1.993 5.75-2.25 4.851-.253 5.904-.652 6.737-2.55.772-1.76 1.807-2.25 4.75-2.25 2.07 0 3.71-.337 3.645-.75-.487-3.083.221-3.494 4.938-2.868 5.405.717 11.18-.822 11.18-2.98 0-.771-.9-1.402-2-1.402-2.557 0-2.618-2.605-.077-3.27 1.215-.317 2.043-1.555 2.25-3.366.317-2.774.523-2.873 6.577-3.162 3.879-.185 6.25.1 6.25.75 0 .577-1.975 1.048-4.389 1.048-5.234 0-6.18 3.032-1.291 4.138 3.976.9 6.54.043 6.004-2.007-.304-1.161.206-1.745 1.616-1.852 2.243-.168 2.829 1.28.81 2.001-2.141.764-.29 1.681 4.097 2.028 3.698.293 4.275.053 4.787-1.988.51-2.031 1.192-2.32 5.474-2.32 2.691 0 4.892-.436 4.892-.969 0-.532.675-.709 1.5-.393.95.365 1.5-.013 1.5-1.031 0-.884.563-1.614 1.25-1.622.833-.011.75-.339-.25-.985-1.213-.784-1.069-.972.75-.985 1.837-.012 2.25.536 2.25 2.985v3h7.5c4.612 0 7.5-.408 7.5-1.059 0-.582.45-.781 1-.441s1-.084 1-.941c0-1.152 1.044-1.559 4-1.559 3.566 0 4-.263 4-2.423 0-2.386.118-2.418 7.75-2.068 4.262.195 8.762.585 10 .866 1.238.28 2.25.141 2.25-.31 0-.45 2.092-.583 4.65-.295 3.654.412 4.477.245 3.845-.778-.53-.858-.411-1.058.35-.587.635.392 1.155.236 1.155-.346s1.238-1.045 2.75-1.027c2.634.03 2.668.094.809 1.5-1.902 1.439-1.899 1.468.191 1.468 1.173 0 2.373.39 2.667.866.294.476 1.671.649 3.059.383 3.131-.598 3.306.501.274 1.72-2.225.894-2.226.905-.107.968 1.179.034 2.402-.612 2.719-1.437.316-.825 1.094-1.5 1.729-1.5.831 0 .806.419-.091 1.5-1.036 1.249-.909 1.5.761 1.5 1.165 0 2.225.839 2.529 2 .367 1.404 1.371 2.004 3.366 2.014 4.37.021 7.344 1.075 7.344 2.603 0 1.593 4.556 1.911 5.5.383.34-.55.115-1-.5-1s-.84-.45-.5-1c.34-.55 3.502-1 7.028-1 5.286 0 6.308-.263 5.834-1.5-.317-.825-.126-1.5.424-1.5s1.259.675 1.576 1.5c.316.825 1.377 1.493 2.357 1.485 1.516-.013 1.557-.16.281-.985-1.282-.828-1.246-.972.25-.985.962-.008 1.75.483 1.75 1.092 0 .609.689.843 1.53.52.983-.377 1.907.239 2.583 1.722 1.111 2.437 5.884 4.66 9.958 4.637 3.587-.02 6.979-1.096 6.401-2.031-.277-.449-.047-1.099.512-1.445.559-.345 1.016-.151 1.016.431s.337 1.006.75.941c2.092-.331 4.307.216 3.853.951-.713 1.154 2.624 1.109 4.103-.055 1.574-1.24 3.583.026 2.894 1.823-.31.807.084 1.399.931 1.399.808 0 1.476-.562 1.484-1.25.011-.847.316-.775.946.221.512.809 1.279 1.122 1.706.696.426-.427.179-1.144-.549-1.594-1.07-.661-1.086-1.276-.086-3.196 1.724-3.307 1.694-3.294 3.42-1.567 2.076 2.075 1.964 4.689-.202 4.696-1.273.005-1.069.349.75 1.263 3.636 1.828 14 .872 14-1.292 0-.434.9-.554 2-.267 1.171.307 2 .031 2-.665 0-.701 1.093-1.056 2.663-.867 1.464.177 2.839-.201 3.054-.84.269-.8-.951-1.044-3.913-.784-2.367.208-3.436.12-2.375-.196 2.272-.676 4.571-2.798 4.571-4.219 0-.552.851-1.274 1.892-1.605 1.244-.395 1.844-1.445 1.75-3.066-.135-2.352-1.642-3.633-1.642-1.397 0 .59-.674.398-1.497-.425-.824-.824-1.268-2.093-.989-2.822.748-1.947-16.368-1.664-17.606.291-.697 1.101-.881 1.026-.893-.365-.01-1.196-.807-1.75-2.515-1.75-1.779 0-2.5-.541-2.5-1.878 0-1.032-.675-2.437-1.5-3.122-1.242-1.031-1.503-.923-1.515.628-.013 1.574-.17 1.634-.985.372-.794-1.228-.972-1.117-.985.616-.014 1.922-.381 2.049-4.015 1.384-4.192-.767-5.221.142-2.25 1.987 1.6.993 1.578 1.061-.25.79-1.19-.177-2.129-1.205-2.32-2.537-.334-2.346-1.627-2.944-2.68-1.24-.978 1.583-2.776 1.162-2.138-.5.418-1.09-.116-1.5-1.952-1.5-1.391 0-2.269.419-1.953.931.621 1.004-13.112.4-14.813-.651-.572-.354-.722.075-.358 1.024.619 1.613-.61 2.961-3.036 3.329-.687.105-1.25-.64-1.25-1.654 0-1.023-.982-2.156-2.203-2.544-1.212-.384-2.835-1.33-3.606-2.101-1.002-1.002-1.765-1.102-2.67-.351-.697.578-1.954.788-2.793.466-.839-.322-1.811-.124-2.159.439-.665 1.077-3.657.367-4.652-1.104-.321-.474-1.858-.377-3.417.216-1.559.593-3.096.723-3.417.289C379.215.115 377-.14 377 .934c0 .513-1.238 1.076-2.75 1.25-1.976.227-2.667.808-2.456 2.066.161.963-.176 1.75-.75 1.75-.574 0-1.044.675-1.044 1.5s-.45 1.5-1 1.5-1-.613-1-1.361c0-.907-.918-1.24-2.75-.996-1.512.202-2.187.102-1.5-.222.688-.323 1.25-1.188 1.25-1.922 0-1.371-8.229-1.604-9.562-.27-.864.864-3.702-.29-5.014-2.04-1.424-1.897-5.124-.708-5.957 1.915-.527 1.661-.893 1.788-2.152.742-1.983-1.646-3.212-1.779-8.121-.882-2.535.464-4.483.347-5.138-.308-.741-.741-1.056-.698-1.056.144 0 .66-.788 1.193-1.75 1.185-1.386-.012-1.463-.197-.37-.89.937-.593.358-.823-1.799-.714-1.748.088-3.6.826-4.115 1.639-.843 1.333-1.394.688-1.084-1.27.065-.413-.584-.75-1.441-.75-.857 0-1.305.412-.994.915.311.503 0 1.104-.691 1.337-.986.332-.963.778.107 2.074.75.909 1.763 1.405 2.25 1.104.488-.301.887-.123.887.397 0 2.158-5.926 1.843-7.893-.418-1.069-1.231-1.703-2.48-1.407-2.776.296-.296-.212-1.288-1.129-2.204-.916-.917-1.941-1.392-2.277-1.057-.335.336-1.221.104-1.967-.516-1.046-.868-1.8-.617-3.282 1.092-1.525 1.759-2.3 2.001-3.735 1.166-1.661-.966-1.627-1.056.409-1.084 1.537-.021 2.045-.482 1.652-1.504-.498-1.299-.74-1.299-2.04 0-.81.811-2.792 1.474-4.402 1.474-1.937 0-2.929.508-2.929 1.5 0 .825-.408 1.5-.906 1.5-.499 0-.659-.946-.357-2.102 1.036-3.96-6.499-4.923-9.42-1.204-1.39 1.768-3.699.743-2.917-1.295.637-1.66.117-1.746-2.405-.396-1.252.67-2.079.67-2.493 0-.757-1.225-8.636-1.272-13.757-.083-2.188.508-3.987.498-4.309-.024C252.4-.78 250-.008 250 2c0 1.333-.667 2-2 2-1.1 0-2-.562-2-1.25 0-.726-1.364-1.287-3.25-1.338-1.787-.049-5.895-.411-9.128-.804-4.836-.59-5.782-.468-5.339.688.384.999-.302 1.429-2.372 1.487-1.899.054-2.911-.415-2.911-1.35C223 .571 222.004 0 220.5 0c-2.799 0-3.49 1.939-.75 2.107.963.059-.114.526-2.392 1.038-3.552.797-4.204 1.352-4.577 3.892-.239 1.63-.063 2.963.392 2.963s.827 1.125.827 2.5.338 2.387.75 2.25c.412-.138.833.2.934.75.102.55-.491.861-1.316.691-1.22-.251-1.295.077-.4 1.75.846 1.579.803 2.078-.183 2.142-2.834.184-5.38.699-7.185 1.452-1.658.693-1.816.464-1.246-1.809.359-1.432.202-2.883-.35-3.224-1.994-1.232-.941-3.265 1.996-3.852 3.155-.631 4.052-3.032 1.5-4.012-2.36-.905-4.497.376-4.536 2.719-.034 2.018-.168 1.982-2.288-.607-1.238-1.513-3.022-2.75-3.964-2.75C196.386 8 196 7.113 196 4.063V.125l-4.014.056c-2.208.03-4.225.397-4.484.815M400 27.992c0 .589-1.48.971-3.288.849-1.808-.122-3.795.092-4.414.475-.62.383-1.297.187-1.504-.435-.277-.831-2.358-.779-7.836.198-4.102.731-6.439 1.494-5.193 1.696 4.694.762.844 2.225-5.855 2.225-5.276 0-7.113-.365-7.548-1.5-.317-.825-1.026-1.5-1.576-1.5s-.741.675-.424 1.5c.485 1.265-.837 1.5-8.437 1.5-7.898 0-8.976-.208-8.719-1.684.357-2.042-2.856-2.998-8.328-2.476-4.194.4-5.279 2.753-2.378 5.16.825.685 1.5 1.66 1.5 2.166 0 1.174-3.267.658-4.219-.666-.469-.651-1.425-.563-2.737.25-2.67 1.655-12.722 1.655-13.357 0-.331-.863-.939-.631-1.965.75-1.931 2.6-1.697 3.85.778 4.15 8.809 1.066 15.483 1.186 16.038.289.434-.703 1.08-.671 2.007.099.752.624 1.801.866 2.331.539.529-.328 1.642.084 2.472.914C339.052 44.195 342 44.518 342 43c0-.55.9-1 2-1s2-.45 2-1 .852-1 1.893-1 2.149-.667 2.462-1.483c.313-.816 1.222-1.233 2.02-.927.873.335 1.638-.169 1.922-1.267.342-1.323.503-1.135.587.683.157 3.388 5.169 5.746 8.748 4.116 3.097-1.411 3.426-1.403 3.118.079-.168.809 1.019 1.107 3.636.912 2.395-.179 4.254.224 4.845 1.049.719 1.004.817.902.395-.412-.31-.962-.127-1.75.405-1.75.533 0 .969.675.969 1.5 0 2.943 1.879 1.439 2.187-1.75.284-2.953.679-3.305 4.313-3.85 2.2-.329 5.233-.94 6.741-1.356 3.19-.88 4.82 1.473 2.748 3.969-1.034 1.246-.842 1.487 1.188 1.487 2.174 0 2.38-.354 2.017-3.465-.223-1.906-.863-3.368-1.424-3.25-.561.118-1.214-.312-1.452-.956-.282-.765.318-.975 1.727-.607 1.277.334 2.558-.005 3.133-.829.751-1.073 1.091-1.106 1.481-.143.279.688 1.119 1.25 1.865 1.25 2.436 0 2.735-2.11.582-4.116-1.158-1.079-2.106-1.48-2.106-.892m5.498 5.773c-.55.404-1.639 1.972-2.419 3.485-.779 1.513-1.749 2.75-2.154 2.75-.406 0-.502.9-.215 2 .582 2.223 2.845 2.691 3.628.75.403-1 .52-1 .583 0 .043.688 1.211 1.25 2.595 1.25 2.193 0 2.486-.394 2.281-3.076-.129-1.692-.593-3.298-1.032-3.569-1.152-.712.1-2.355 1.794-2.355.793 0 1.328.563 1.191 1.25-.151.755.641 1.156 2 1.012 1.238-.131 2.25.192 2.25.718 0 .527.681.696 1.513.377 1.048-.403 1.846.375 2.598 2.531C421.132 43.818 425 45.489 425 43c0-.55 1.755-1 3.899-1h3.9l.358-4.5c.326-4.11.162-4.5-1.9-4.5-2.016 0-2.734.981-2.375 3.25.096.609-3.593.949-7.632.705-.413-.025-.609-.925-.437-2 .348-2.176-2.317-2.772-3.151-.705-.403 1-.52 1-.583 0-.087-1.374-9.814-1.781-11.581-.485m-114.526 4.173c2.034 1.319-.726 2.374-4.635 1.773-1.56-.24-3.671-.138-4.69.226-1.749.624-1.725.806.435 3.23l2.288 2.569 4.065-1.846c2.236-1.015 5.476-1.856 7.2-1.868 4.153-.029 9.44-2.295 8.557-3.668-.381-.591-3.842-1.141-7.692-1.223-4.76-.1-6.529.158-5.528.807m-29.811 17.901C259.972 57.028 257.875 58 256.5 58c-1.688 0-2.523.569-2.57 1.75-.06 1.496-.195 1.46-.93-.25-.473-1.1-.891-1.437-.93-.75-.04.72-1.402 1.25-3.21 1.25-1.778 0-3.761.759-4.572 1.75-1.297 1.586-1.383 1.459-.915-1.351.486-2.913.355-3.07-2.16-2.589-1.473.282-3.261 1.095-3.974 1.809-1.367 1.366-4.239.835-4.239-.785 0-.524-.536-.621-1.191-.216s-4.691.877-8.968 1.048c-9.196.37-10.111.521-11.076 1.834-.489.667-.741.667-.753 0-.017-.904-5.245-1.165-13.609-.68-1.703.099-4.066 1.02-5.25 2.047-2.058 1.785-3.04 3.799-1.34 2.749.447-.276.722 1.368.611 3.654-.111 2.286-.705 4.324-1.319 4.528-.615.205-.863.784-.552 1.287.311.503-.024.922-.744.93-.953.011-.901.283.191 1 1.333.876 1.333 1.105 0 2.063-1.179.848-.907.984 1.274.634 1.525-.244 2.983-.106 3.238.308.543.877-2.988 1.868-10.012 2.81-4.649.623-4.986.857-4.806 3.335.214 2.939-2.482 4.773-3.849 2.619-.466-.734-.821-.82-.83-.201-.008.596-.69 1.084-1.515 1.084s-1.5-.375-1.5-.834c0-.458-.54-.833-1.2-.833-.933 0-.933.267 0 1.2 1.343 1.343 1.598 2.863.45 2.682-2.825-.447-4.674.198-3.25 1.133 1.974 1.296-.335 2.972-3.099 2.249-1.142-.299-2.118.139-2.494 1.117-.339.884-1.089 1.316-1.666.959-.657-.406-.748-.16-.241.66.512.829.417 1.067-.26.648-.588-.363-1.274-.095-1.524.596-.343.948-.917.985-2.341.15-1.037-.608-2.558-.749-3.38-.314-.822.435-2.95 1.377-4.729 2.092-5.634 2.268-4.692 5.716 1.251 4.58 1.366-.261 2.483-.032 2.483.509 0 .559.605.482 1.403-.18.771-.641 1.559-.789 1.75-.33.191.459 1.992 1.838 4.002 3.065 3.274 1.997 3.815 2.071 5.179.707 1.624-1.624 2.828-2.009 2.416-.773-.268.804.573 1.25 2.357 1.25.609 0 .875-.603.593-1.341-.283-.737-.113-1.975.377-2.75.632-.997.897-1.044.908-.159.008.688.717 1.25 1.574 1.25.857 0 1.313-.399 1.012-.886-.301-.487.517-1.089 1.819-1.338 2.216-.423 2.358-.171 2.219 3.942-.126 3.748.113 4.327 1.622 3.932 1.936-.506 2.583 2.729.769 3.85-.55.34-1.036 2.954-1.079 5.809-.043 2.855-.302 4.641-.574 3.969-.516-1.275-5.347 2.792-5.347 4.502 0 3.595-6.794 5.886-18.25 6.155-2.161.051-2.753.547-2.765 2.315-.013 1.819-.201 1.963-.985.75-.862-1.333-.973-1.333-1 0-.027 1.333-.138 1.333-1 0-.828-1.282-.972-1.246-.985.25-.014 1.599-1.161 2.227-3.358 1.837-1.64-.29-8.177 2.415-9.657 3.997-.825.882-2.077 1.406-2.781 1.166-.705-.241-1.155.157-1 .883.158.744-.794 1.482-2.187 1.691-1.357.205-3.21 1.228-4.117 2.274s-2.722 1.9-4.032 1.898c-1.61-.002-3.92 1.701-7.12 5.25-4.125 4.576-4.738 4.954-4.75 2.931-.009-1.681-.497-2.223-1.763-1.961-1.214.251-1.691 1.199-1.559 3.096.106 1.503-.232 2.472-.75 2.152-.517-.32-.941-1.23-.941-2.023 0-.793-.436-1.441-.969-1.441-1.035 0-.334 2.706 1.223 4.722 1.177 1.523-2.769 8.278-4.836 8.278A1.43 1.43 0 0 0 97 176.433c0 1.783-4.257 3.295-4.789 1.7-.208-.623-1.454-1.133-2.769-1.133-2.083 0-2.32-.36-1.836-2.781.459-2.293.195-2.808-1.505-2.936-1.134-.086-2.322.266-2.64.781-.319.515.123.936.98.936s1.559.45 1.559 1-.675 1-1.5 1c-1.353 0-1.944 1.187-1.618 3.25.065.412-.332.75-.882.75-2.137 0-2.572.145-4.778 1.59-1.253.821-2.716 1.223-3.25.893-.535-.331-.972-.173-.972.351 0 1.741 2.549 1.964 6.547.572 5.302-1.845 7.608-1.808 4.953.08-3.03 2.154-5.546 4.801-5.044 5.304.247.246-.246 1.143-1.094 1.991-1.315 1.315-1.676 1.335-2.437.131-.717-1.132-.897-1.054-.91.397-.008.995-.465 1.531-1.015 1.191-.55-.34-1 .11-1 1s-.437 1.348-.971 1.018c-.534-.33-1.257.54-1.606 1.934-.35 1.394-1.038 2.286-1.53 1.982-.491-.304-.9.262-.908 1.257-.013 1.555-.167 1.598-1.095.309-.916-1.274-.996-1.241-.528.218.303.945.008 2.057-.656 2.47-1.748 1.091-5.706 1.159-5.706.099 0-.498-.359-.683-.798-.412-.438.271-.758 2.21-.711 4.309.048 2.099-.381 4.154-.952 4.566-.677.489-.517 1.093.461 1.735.952.625 1.055.99.281 1-.67.008-.96.687-.645 1.509.316.822 1.046 1.203 1.623.846.613-.379.753-.169.336.505-.392.635-.274 1.155.263 1.155.536 0 1.243-.562 1.57-1.25.327-.687.406-.238.177 1-.23 1.238-.001 2.25.508 2.25s.705 1.219.435 2.709c-.27 1.489-.119 2.952.336 3.25 1.29.843 2.461 8.372 1.18 7.58-.633-.391-1.07.278-1.079 1.652-.017 2.551-1.28 5.034-2.484 4.882-.426-.054-.914 1.453-1.084 3.349-.256 2.852.014 3.421 1.567 3.304 1.033-.078 1.614-.567 1.292-1.088-.322-.521-.097-.645.5-.276s1.373.206 1.724-.362 1.057-.774 1.569-.457c.512.316.931.081.931-.523 0-.707.499-.639 1.4.191.77.709 1.056 1.739.636 2.289-.42.55-.673 2.032-.564 3.292.246 2.825-1.079 3.779-3.016 2.172-1.197-.994-1.456-.831-1.456.914 0 1.466-.628 2.122-2.031 2.122-2.511 0-3.466 2.202-2.079 4.794.657 1.227.719 3.083.167 5.006-.683 2.382-.541 3.184.645 3.639 1.061.407 1.345.127.941-.928-.806-2.099-.308-1.914 3.254 1.212 3.289 2.886 4.103 4.875 1.603 3.915-1.719-.659-1.9.196-.5 2.362.646 1 .974 1.083.985.25.008-.687.492-1.25 1.074-1.25.582 0 .738.52.346 1.155-.443.715-.275.883.44.44.635-.392 1.155-.206 1.155.413 0 .671.808.87 1.994.494 1.53-.486 1.854-.269 1.393.933-.331.861-1.003 1.565-1.494 1.565-.491 0-.893.613-.893 1.361 0 .913.824 1.204 2.5.884 1.891-.362 2.5-.055 2.5 1.261 0 1.449.256 1.527 1.533.466 1.36-1.128 1.282-1.54-.681-3.629-2.17-2.311-2.176-2.385-.289-3.765 1.299-.95 2.137-1.063 2.58-.347.36.583 1.475.746 2.478.361 1.411-.542 1.525-.884.505-1.514-.943-.583-.461-1.114 1.693-1.865 1.656-.577 3.274-.786 3.596-.465.322.322.585-.165.585-1.081 0-.917.498-1.667 1.107-1.667s.869-.62.578-1.378c-.291-.758-.126-1.781.367-2.274.527-.527.316-2.013-.515-3.614-1.824-3.516.212-6.146 3.747-4.84 1.219.45 2.779.621 3.466.379.688-.242 1.25.048 1.25.644 0 .595.99 1.083 2.2 1.083 1.711 0 1.933.267 1 1.2-1.702 1.702-1.488 4.8.331 4.8.843 0 1.798.694 2.124 1.543.526 1.371.798 1.357 2.431-.121 1.012-.916 2.531-1.399 3.377-1.075 1.123.431 1.537-.065 1.537-1.843 0-1.383.835-2.881 1.934-3.469 2.28-1.22 3.359-1.332 2.742-.285-.965 1.639 1.342 5.632 2.554 4.42.644-.644 2-1.17 3.014-1.17 2.335 0 1.975-2.68-.733-5.446-1.825-1.864-1.845-2.059-.25-2.366.957-.184 1.739-.728 1.739-1.21 0-.481 1.125-2.089 2.5-3.573 1.996-2.154 2.5-2.349 2.5-.968 0 .951.484 1.568 1.075 1.371.591-.197 1.008-.779.926-1.294-.082-.515.672-1.227 1.675-1.583 1.437-.511 1.133-.801-1.435-1.371-1.945-.431-2.991-1.155-2.595-1.796.369-.597.198-.786-.387-.424-.577.357-1.307-.024-1.623-.846-.616-1.605.877-2.091 1.806-.588.308.498 1.454.672 2.548.386 1.093-.285 1.76-.887 1.482-1.337-.277-.449-.047-1.099.512-1.445.559-.345 1.016-.099 1.016.548 0 .683.838.956 2 .652 1.1-.287 2-.115 2 .384 0 .498 1.575.906 3.5.906 3.781 0 4.553-1.287 1.75-2.92-1.067-.622-1.242-1.031-.448-1.05.716-.016 1.773-1.38 2.348-3.03 1.194-3.426 1.601-3.563 4.523-1.516 1.973 1.381 2.162 1.31 2.752-1.041.383-1.526 1.079-2.25 1.759-1.829.734.453.844.24.316-.614-.519-.84-.417-1.067.284-.634.618.383 2.673-1.394 4.735-4.095 2.004-2.624 4.057-4.726 4.562-4.671.505.055 1.846.167 2.978.25 1.132.083 1.813.549 1.511 1.036-1.404 2.273 3.583 1.81 5.078-.471 1.734-2.647 3.91-3.313 2.99-.915-.363.946.012 1.5 1.016 1.5 1.235 0 1.336.307.451 1.373-.627.756-.844 2.143-.483 3.084.528 1.377.842 1.451 1.611.377.72-1.005.82-.91.405.384-.303.945-.12 1.984.406 2.309.526.325.956.088.956-.527s.412-.864.915-.553c.503.311 1.104.225 1.336-.191.232-.416.284-.193.116.494-.167.688.582 1.25 1.664 1.25 1.083 0 1.969.477 1.969 1.059s-.52.738-1.155.346c-.715-.443-.883-.275-.44.44.399.647.137 1.162-.596 1.17-1.013.012-1.031.192-.077.798 1.351.859.849 5.493-.649 5.993-1.787.595 1.109 6.242 3.955 7.713 1.551.803 3.126 2.423 3.5 3.602.534 1.682.869 1.846 1.556.761.481-.76.889-.932.906-.382.017.55.467.325 1-.5.533-.825.976-.999.985-.387.008.613 1.027 1.035 2.265.939 1.238-.097 2.7.065 3.25.36.55.294 1.45.591 2 .659 3.463.43 3.59.765.5 1.311-5.467.965-4.613 3.556 1.25 3.792 2.613.105 4.75-.229 4.75-.741 0-.513 1.336-.933 2.969-.933 2.021 0 2.809.414 2.471 1.297-.338.879.397 1.274 2.281 1.227 1.543-.038 3.347.7 4.056 1.661.703.952 1.94 1.477 2.75 1.166 1.908-.732 1.897 1.082-.018 2.997-1.13 1.13-1.191 1.613-.25 1.993.683.275.202.537-1.068.58-2.882.099-1.864 2.079 1.068 2.079 1.665 0 1.874.267.941 1.2-1.339 1.339-1.646 3.194-.402 2.425.439-.271 1.451-.089 2.25.405 1.243.768 1.2 1.15-.298 2.648-1.409 1.409-1.753 1.465-1.765.286-.011-1.003-.247-1.102-.75-.312-1.294 2.027-11.004 2.722-12.81.916-1.434-1.434-4.047-2.041-7.124-1.654-.694.087-1.034-.705-.807-1.882.253-1.314-.139-2.032-1.11-2.032-.826 0-1.222.453-.879 1.008.342.554-.049 1.679-.87 2.5-1.891 1.891-2.635 1.889-2.635-.008 0-1.056-1.067-1.5-3.607-1.5-2.795 0-3.477-.338-3.031-1.5.316-.825.139-1.5-.393-1.5-.533 0-.969.45-.969 1s-1.05 1-2.333 1c-1.284 0-2.671.337-3.084.75-.412.413-1.162.806-1.666.875-.505.069-1.197.181-1.539.25-.343.069-.1.755.539 1.525.959 1.155.543 1.4-2.375 1.4-1.945 0-3.286-.405-2.98-.9.306-.495.102-.9-.453-.9s-1.379.66-1.83 1.466c-.523.935-1.637 1.253-3.071.878-1.744-.456-2-.889-1.141-1.925.867-1.044.537-1.48-1.506-1.993-2.128-.534-2.394-.922-1.43-2.084.897-1.081.903-1.708.027-2.584-.877-.877-1.158-.85-1.158.113s-.343.929-1.411-.139c-2.39-2.39-7.514-1.05-6.992 1.827.295 1.628-.196 2.691-1.585 3.435-1.477.79-2.012.769-2.012-.081 0-.871-.35-.867-1.411.013-.981.814-1.611.847-2.069.106-.362-.585-1.046-.825-1.52-.532-.474.293-1.144.075-1.49-.484-.786-1.272-4.51-1.345-4.51-.088 0 .511-2.475.804-5.5.653-3.025-.152-5.5.132-5.5.631 0 .498-.52.585-1.155.193-.776-.48-.887-.254-.339.69.448.773.464 1.089.035.703-.428-.387-1.433-.049-2.231.75-.799.798-2.565 1.452-3.925 1.452-2.991 0-2.932 2.626.115 5.17 1.734 1.448 2.21 1.481 3.579.25 2.202-1.981 3.246-1.77 2.643.534-.281 1.074.103 2.761.852 3.75 1.295 1.707 1.365 1.697 1.41-.204.039-1.66.211-1.745 1.016-.5.814 1.26.972 1.198.985-.386.012-1.54.526-1.3 2.803 1.308 2.665 3.053 10.212 5.989 10.212 3.973 0-.492-.62-.895-1.378-.895-2.352 0-3.599-2.337-2.022-3.789 1.152-1.062 1.4-1.017 1.4.25 0 .846.45 1.539 1 1.539s1-.675 1-1.5c0-1.837.114-1.841 3.457-.107 1.752.909 2.226 1.568 1.364 1.898-.727.278-.309.455.929.394s2.25-.465 2.25-.898.477-.787 1.059-.787.781.45.441 1-.179 1 .358 1c.536 0 1.125-.421 1.309-.936.382-1.075 7.833.999 7.833 2.181 0 .415 1.463.762 3.25.77 2.466.012 2.888.249 1.75.985-1 .646-1.083.974-.25.985 1.907.023 2.776-.406 2.5-1.235-.138-.413.227-.75.809-.75.582 0 .781-.45.441-1s-.254-1.034.191-1.077c.445-.042 1.694-.241 2.775-.443 1.081-.201 2.544.113 3.25.699s1.284.647 1.284.135 2.475-.995 5.5-1.074c4.78-.124 5.5.105 5.5 1.75 0 1.04.526 2.217 1.17 2.615.787.486.961.178.531-.941-.657-1.714.754-2.354 1.726-.782.818 1.324 7.852.78 8.327-.644.232-.697-.425-1.238-1.504-1.238-2.557 0-3.462-1.04-2.214-2.543.749-.903.299-1.407-1.707-1.911-1.903-.477-2.335-.924-1.432-1.482.9-.556.427-1.027-1.552-1.546-2.565-.674-2.648-.82-.845-1.488 1.397-.517 2.511-.154 3.696 1.205 1.019 1.169 3.297 2.075 5.704 2.268 2.205.178 4.479.613 5.054.969.575.355 1.046.207 1.046-.33 0-.536-.562-1.183-1.25-1.436-.687-.253.775-.53 3.25-.616 5.681-.195 8.272-.535 9.518-1.245.54-.309 3.054-.574 5.585-.589 2.532-.016 5.54-.53 6.685-1.142 2.205-1.181 5.983-1.551 4.914-.483-.347.348-.176 1.483.381 2.524.747 1.396.625 2.28-.464 3.369-1.675 1.675-3.051 1.985-2.119.476.34-.55.164-1-.391-1s-1.374.651-1.82 1.447c-.445.796-2.491 1.62-4.547 1.831-5.163.53-5.918 1.705-1.159 1.803 3.893.081 3.9.089 1.221 1.278-2.027.9-2.465 1.563-1.765 2.669.511.81.937.962.946.339.008-.624 1.14-1.349 2.515-1.612 1.942-.371 2.5-.063 2.5 1.384 0 1.947 1.476 2.518 2.447.946.311-.503 0-1.132-.691-1.399-.691-.267.656-.405 2.994-.307 2.338.098 4.25-.06 4.25-.351 0-1.122 5.004-.461 5.458.722.282.735-.319 1.25-1.458 1.25-1.249 0-1.746.497-1.401 1.399.464 1.207 4.022 2.242 9.401 2.736 4.52.415 3.823 4.865-.762 4.865-2.607 0-3.44 1.051-2.107 2.658.841 1.013.773 1.342-.277 1.342-.765 0-2.158 1.238-3.096 2.75-1.031 1.663-1.715 2.142-1.731 1.213-.015-.846-.961-1.608-2.103-1.694-1.701-.128-1.859.104-.877 1.287.983 1.185.797 1.444-1.041 1.444-1.747 0-2.124-.44-1.716-2 .413-1.581.03-2-1.825-2-2.652 0-4.131-1.561-2.221-2.345.691-.283-.9-.473-3.536-.421-5.271.103-6.465.893-4.197 2.775 1.034.858 1.489.893 1.489.113 0-.617.436-1.122.969-1.122.532 0 .709.675.393 1.5-.317.825-.978 1.5-1.469 1.5-.491 0-1.877.984-3.081 2.188-1.47 1.47-2.321 1.784-2.597.958-.311-.935-.742-.953-1.801-.074-.766.635-1.145 1.554-.844 2.041.301.488-.105.887-.904.887s-1.725-.712-2.059-1.582c-.847-2.206-.762-2.632.385-1.923.546.337 1.783.153 2.75-.41 1.575-.918 1.585-1.027.096-1.055-1.672-.03-1.9-1.541-.557-3.69.853-1.363-.099-4.34-1.388-4.34-.491 0-.896.563-.899 1.25-.008 1.493-5.998 5.102-6.879 4.144-.338-.367-.052-.869.635-1.114 3.041-1.086 1.28-3.537-2-2.784-4.128.949-5.396.97-10 .168-2.257-.393-3.75-.257-3.75.341 0 .547-.737.995-1.638.995-1.092 0-.509.915 1.75 2.75 4.363 3.541 5.105 7.25 1.451 7.25-1.804 0-2.54.518-2.484 1.75.043.962.29 1.235.548.606.908-2.216 4.49-.3 3.757 2.01-.609 1.919-.509 1.983 1.07.672 1.581-1.312 1.723-1.218 1.534 1.008-.327 3.838-.096 4.289 1.512 2.954.825-.685 1.5-2.09 1.5-3.122 0-1.033.477-1.878 1.059-1.878s.781-.45.441-1-.147-1 .429-1 .94-1 .809-2.223c-.251-2.349 2.069-3.192 3.606-1.31.499.61.614.317.282-.717-.352-1.093-.045-1.75.817-1.75.883 0 1.281.91 1.104 2.525-.235 2.139.045 2.434 1.838 1.934 1.685-.47 1.81-.377.615.46-1.244.871-1.126 1.053.691 1.066 2.305.016 4.378 2.004 2.118 2.03-.951.011-.899.281.191.985 2.341 1.513 2.79 1.23 3.562-2.25.483-2.178.922-2.748 1.33-1.729.637 1.592 1.92 1.883 3.608.817.55-.348 1.776.403 2.724 1.668 1.477 1.972 1.513 2.381.25 2.866-.902.346-1.474-.028-1.474-.962 0-.841-.472-1.236-1.049-.88-.716.443-.678 1.094.123 2.059 1.274 1.535 1.445 1.49-6.889 1.799-2.741.102-4.747-.373-5.5-1.301-.972-1.199-.87-1.343.565-.806.962.361 1.75.275 1.75-.19 0-1.594-2.501-2.75-6.407-2.962-3.418-.186-3.747-.02-2.628 1.329 1.25 1.506.478 2.086-2.215 1.66-1.684-.265-.603 1.794 1.25 2.382 1.154.366 2.033 1.558 2.079 2.817.043 1.201.284 1.686.535 1.078.251-.607 1.632-.879 3.07-.605 1.8.344 2.393.144 1.906-.645-.444-.718.059-1.145 1.351-1.145 1.132 0 2.059.45 2.059 1s1.125 1 2.5 1 2.5.391 2.5.87c0 .478-.787.866-1.75.863-4.917-.019-5.806.404-3 1.429 3.569 1.304 3.624 3.838.083 3.838-1.466 0-2.356.311-1.976.69.38.38-.558 1.226-2.083 1.88-2.557 1.097-2.617 1.245-.774 1.884 3.655 1.268 7.003 3.482 6.765 4.475-.137.572 2.572.948 6.5.904 3.704-.042 7.185.032 7.735.164 2.881.691 5.086-.151 5.225-1.997.083-1.1-.271-2-.787-2s-.938-.477-.938-1.059.403-.81.895-.506c.493.305 1.167-.153 1.498-1.016.389-1.014 1.577-1.468 3.355-1.281 1.514.158 3.268-.03 3.898-.419.629-.389 1.413-.007 1.742.85.329.857 1.099 1.248 1.712.869.799-.494.768-.901-.111-1.445-1.277-.789.516-3.039 4.599-5.773 1.352-.906 1.546-1.443.662-1.834-.687-.304-1.25-1.16-1.25-1.902s-.973-1.658-2.163-2.036c-1.938-.615-1.987-.784-.471-1.633 1.546-.865 1.507-1.097-.439-2.673-1.933-1.566-1.983-1.851-.53-3.057.882-.731 1.603-2.448 1.603-3.814 0-1.776.42-2.324 1.471-1.92.809.31 2.127-.092 2.929-.893 2.394-2.395 3.254-1.682 2.929 2.428-.26 3.283.04 3.999 1.932 4.609 2.122.684 2.086.755-.69 1.363-2.791.612-2.847.725-1.179 2.392 2.335 2.334 3.608 2.208 3.608-.357 0-1.379.476-1.924 1.378-1.578.758.291 1.883.024 2.5-.593.829-.829 1.126-.613 1.137.828.013 1.593.186 1.68.947.478.801-1.267 1.02-1.239 1.573.202.353.921.351 2.146-.005 2.722-.357.576-.141 1.048.478 1.048.643 0 .873.798.537 1.859-.334 1.052.04 2.382.863 3.064.842.699 1.229 2.124.921 3.391-1.537 6.324-1.505 7.834.207 9.725 2.245 2.481 3.097 2.472 3.754-.039.304-1.164 1.364-2 2.535-2 1.106 0 2.671-.253 3.476-.562 1.772-.68 1.649 3.919-.197 7.368-.926 1.729-.902 2.197.111 2.209.903.011.84.303-.215.985-1.055.682-1.118.974-.215.985.96.011 1.024.504.25 1.949-.569 1.064-1.035 4.214-1.035 7 0 2.786-.376 5.066-.836 5.066-.46 0-.936 2.786-1.059 6.191-.123 3.406-.483 6.612-.801 7.126-.333.54.951.755 3.044.511 2.011-.235 3.777.043 3.974.625.228.678.897.598 1.899-.229 1.27-1.048 1.65-1.004 2.131.25.7 1.826 2.755 2.062 2.398.276-.138-.687.346-1.126 1.074-.975.729.151 1.04-.187.691-.75-.348-.564.095-1.025.985-1.025s1.34.45 1 1c-.887 1.435 1.113 1.235 2.679-.269 1.647-1.581 6.41-1.542 8.017.065.662.662 2.126 1.172 3.254 1.134 2.03-.07 2.03-.079.05-.93-1.772-.762-1.687-.867.75-.93 1.512-.038 2.75.344 2.75.851 0 .506 1.462 1.237 3.25 1.625 1.788.388 3.537 1.156 3.888 1.708.351.551 1.187.663 1.857.249.822-.508.875-.965.165-1.404-.651-.402-.713-1.204-.164-2.093.735-1.188 1.253-1.025 2.948.929 1.329 1.532 2.069 1.875 2.091.968.021-.806.553-.475 1.25.778.949 1.704 1.6 1.965 2.975 1.194 2.225-1.246 3.779 1.835 1.636 3.245-1.163.765-1.107 1.14.338 2.248.954.731 1.442 1.623 1.084 1.981-.358.358-.014.658.765.666 1.103.012 1.135.194.146.823-.982.623-.832 1.314.66 3.034 1.249 1.44 2.171 1.839 2.61 1.13.391-.633 2.106-.87 4.054-.561 2.89.46 3.288.287 2.764-1.202-.47-1.338-.327-1.477.62-.605 1.639 1.509 5.33.505 4.651-1.265-.294-.767.107-1.369.912-1.369.867 0 1.209.595.862 1.5-.317.825-.078 1.5.531 1.5s1.107.9 1.107 2 .477 2 1.059 2 .735-.562.34-1.25c-.396-.687-.369-.934.06-.548.428.387 1.433.049 2.231-.75 1.89-1.889 4.31-1.863 4.31.048 0 1.808 1.167 1.933 2.8.3 1.893-1.893 1.459-4.8-.717-4.8-1.054 0-2.145.562-2.424 1.25-.385.95-.749.901-1.517-.202-1.528-2.197-.557-2.861 3.854-2.636 4.681.239 6.273-.521 6.462-3.088.075-1.022.479-2.414.898-3.092.421-.68.288-1.232-.297-1.232-.582 0-1.059-.675-1.059-1.5s.702-1.5 1.559-1.5 1.281.45.941 1c-.341.551.419 1.03 1.691 1.068l2.309.067-2.25 1.085c-3.319 1.601-2.739 2.436 1.361 1.957 2.508-.293 3.195-.685 2.25-1.284-.749-.474-.89-.869-.315-.878.575-.008 1.151-1.581 1.28-3.495.241-3.589-1.087-3.944-4.595-1.227-.873.676-1.834.471-3.081-.657-.997-.902-2.113-1.34-2.48-.973-.901.901-5.838 1.424-7.556.799-1.134-.412-1.084-.838.275-2.339 1.484-1.64 1.498-1.972.136-3.102-2.287-1.898-1.847-3.012 1.225-3.1 1.512-.043 2.178-.309 1.48-.59-.875-.352-.546-1.082 1.058-2.343 1.861-1.464 2.244-2.556 1.908-5.439-.344-2.941-.678-3.394-1.809-2.455-1.067.885-1.404.834-1.461-.222-.041-.754-.268-2.412-.503-3.683-.291-1.569-.057-2.081.728-1.595.719.444.887.277.444-.439-.489-.792.425-1.155 2.905-1.155 1.99 0 3.359.419 3.043.931-.317.512-.118 1.213.441 1.559.559.345 1.016-.111 1.016-1.014 0-.904.563-1.444 1.25-1.2.688.243 1.175 1.561 1.083 2.929-.143 2.124.186 2.418 2.265 2.021 3.425-.655 3.607-1.228 3.98-12.578.184-5.582.559-15.225.834-21.429.311-7.046.14-11.06-.457-10.691-.525.324-.955.113-.955-.469s.403-1.059.895-1.059.942-3.038 1.001-6.75c.216-13.761.583-16.067 2.96-18.597 1.679-1.787 1.937-2.563.967-2.908-.728-.259-1.039-.779-.692-1.156.347-.376 1.327.012 2.179.863.89.89 3.277 1.548 5.619 1.548 3.072 0 4.071.394 4.071 1.607 0 1.018-.55 1.396-1.5 1.031-1.02-.391-1.5.054-1.5 1.393 0 1.084.675 1.969 1.5 1.969s1.5.477 1.5 1.059.453.779 1.007.437c.554-.343 1.301.144 1.661 1.081.606 1.579.751 1.57 1.993-.128.736-1.007 1.346-1.408 1.354-.89.009.517.452.266.985-.559.817-1.264.972-1.208.985.357.01 1.28.507 1.668 1.597 1.25.87-.334 1.77-.607 2-.607.23 0 .418-.675.418-1.5s.421-1.5.937-1.5c.515 0 1.118-1.462 1.34-3.25l.403-3.25.16 3.25c.151 3.076 2.262 4.512 3.556 2.419.958-1.551 14.927-3.699 15.372-2.364.219.657.797 1.195 1.284 1.195s.59-.788.229-1.75c-.556-1.483-.417-1.556.91-.479 1.313 1.067 1.65.946 2.093-.75.394-1.506.043-2.021-1.378-2.021-1.048 0-1.906-.519-1.906-1.153s-.9-.115-2 1.153c-1.597 1.841-2 1.973-2 .653 0-.909-.477-1.653-1.059-1.653s-.823-.383-.533-.85c.289-.468-.692-.806-2.179-.75-1.886.07-2.801.705-3.025 2.1-.684 4.261-1.219 5.09-2.242 3.472-.63-.996-.936-1.068-.947-.222-.008.688-.52 1.25-1.137 1.25-.826 0-.828-.355-.009-1.342.612-.738.818-1.638.456-2-.362-.362-.133-.658.508-.658.642 0 1.167-.45 1.167-1s-.506-.888-1.125-.75c-.619.137-1.331-.312-1.583-1-.274-.747.38-1.25 1.625-1.25 1.146 0 2.083-.45 2.083-1s-.441-1-.981-1c-.539 0-1.274-1.168-1.632-2.595-.385-1.532-.935-2.136-1.345-1.474-.46.746-1.607.274-3.419-1.405-2.289-2.121-2.437-2.539-.925-2.605 1.06-.046 1.285-.287.546-.585-.691-.279-1.002-.918-.691-1.421.311-.503.058-.915-.561-.915-.685 0-.869-.813-.469-2.073.447-1.407.067-2.522-1.182-3.469-1.736-1.315-1.698-1.403.659-1.542 1.722-.102 1.956-.29.75-.605-.962-.252-1.75-.875-1.75-1.384 0-.51-.45-.927-1-.927s-.947.338-.882.75c.326 2.063-.265 3.25-1.618 3.25-.825 0-1.5.653-1.5 1.45 0 .798-.788 1.909-1.75 2.47-.962.561-1.357 1.033-.878 1.05.48.016.313.705-.372 1.53-1.02 1.229-.951 1.5.378 1.5 1.91 0 2.223 3.613.372 4.292-1 .366-1 .723 0 1.783 2.309 2.448 1.562 5.041-1.25 4.336-1.597-.401-2.5-.206-2.5.54 0 .642.419.908.931.592.512-.317 1.218-.111 1.569.457.351.568 1.169.705 1.818.304.649-.401 2.08-.746 3.181-.767 1.1-.02 1.888-.599 1.751-1.287-.138-.687.595-1.25 1.628-1.25 1.032 0 2.415-.648 3.073-1.441 1.477-1.779 4.077-.93 3.97 1.298-.05 1.038-.265 1.182-.583.393-.714-1.769-2.338-1.554-2.338.309 0 .857.45 1.281 1 .941.55-.34 1 .324 1 1.476 0 1.79-.293 1.937-2.015 1.016-2.113-1.131-2.336-.895-3.31 3.508-.406 1.835-.453 1.819-.559-.191-.176-3.323-2.104-3.866-2.195-.618-.043 1.545-.307 2.244-.585 1.553-.279-.691-.902-1.012-1.385-.714-.483.299-1.794-.373-2.915-1.494-2.143-2.143-3.584-2.732-2.536-1.036.34.55-.084 1-.941 1-.986 0-1.559-.897-1.559-2.441 0-2.691-1.49-4.193-2.515-2.535-.363.588-1.613.753-2.811.372-1.891-.6-1.994-.486-.83.916 1.522 1.834.763 3.688-1.51 3.688-.941 0-1.33-.568-.992-1.449.317-.827.041-1.327-.643-1.164-.659.157-.862.096-.449-.134.413-.231.75-.859.75-1.395 0-.537-.45-.698-1-.358-.55.34-1.044.029-1.098-.691-.054-.72-.685.716-1.402 3.191-.717 2.475-1.348 3.712-1.402 2.75-.054-.962-.66-1.757-1.348-1.765-.935-.012-.913-.229.085-.862.735-.466 1.185-1.119 1-1.452-.184-.334.448-1.521 1.405-2.639 1.501-1.753 1.528-2.032.191-2.032-.852 0-1.271-.45-.931-1 .34-.55-.282-1-1.382-1-1.1 0-2.278-.45-2.618-1-.34-.55-.115-1 .5-1s.84-.45.5-1c-.876-1.417.839-1.242 2.447.25 1.099 1.019 1.236.933.744-.468-.332-.945-.173-1.984.353-2.309.814-.503 1.401 1.449 1.106 3.681-.047.36.523 1.159 1.267 1.777 1.067.886 1.497.547 2.037-1.602.535-2.134.882-2.411 1.599-1.277.741 1.171.919 1.185.932.076.012-1.117.3-1.137 1.539-.108.838.696 1.626 1.088 1.75.873 2.486-4.32 2.609-4.767 1.44-5.191-.668-.243-1.889.121-2.714.809-.94.783-2.247.947-3.5.44-1.1-.446-1.486-.842-.857-.881.629-.038 1.421-.795 1.761-1.681.443-1.153.189-1.447-.893-1.032-.831.319-1.511.176-1.511-.317s-.707-1.604-1.571-2.469c-.922-.922-1.101-1.571-.433-1.571.684 0 .885-.799.504-2-.364-1.147-.18-2 .433-2 .587 0 1.067.702 1.067 1.559s.408 1.307.906.999c.498-.308.671-1.46.383-2.559-.303-1.162-.03-1.999.653-1.999.647 0 .898.45.558 1-.98 1.586 1.196 1.161 2.929-.571 1.006-1.007 1.571-1.143 1.571-.378 0 .885.347.906 1.342.08.738-.612 1.638-.818 2-.456.362.362.658.107.658-.567 0-.674.457-.943 1.016-.598.559.346.758 1.047.441 1.559-.316.512-.125.931.425.931s1.297-.481 1.66-1.068c.363-.588 1.347-.805 2.186-.483.839.322 2.143.073 2.899-.554 1.05-.872 1.377-.818 1.388.233.013 1.142.159 1.146.868.027.623-.984 1.041-.595 1.553 1.448.548 2.18.902 2.475 1.617 1.345.687-1.085.92-1.12.932-.139.008.731.523.995 1.166.597.795-.491.563-1.148-.75-2.12-1.866-1.384-1.865-1.436.04-2.848 2.271-1.682 3.559-1.841 3.559-.438 0 .55.477 1 1.059 1s.781-.45.441-1-.19-1 .334-1 1.211.675 1.528 1.5c.316.825.027 1.507-.643 1.515-.771.01-.668.372.281.985 1.842 1.19 3.297 1.29 2.611.179-.279-.452 1.718-1.621 4.438-2.6 2.91-1.046 4.678-2.212 4.294-2.833-.395-.639-.17-.757.57-.3.775.479 1.419.001 1.762-1.31.483-1.848.699-1.905 2.061-.543.837.837 2.176 1.271 2.975.965.799-.307 2.177-.558 3.062-.558 1.328 0 1.27-.256-.332-1.468-1.863-1.409-1.83-1.475.809-1.625 3.171-.181 3.474-.24 6.5-1.274 1.238-.422 2.25-1.187 2.25-1.7 0-.513.337-.841.75-.728.413.113 2.456-.378 4.541-1.091 2.085-.713 4.448-1.044 5.25-.737.803.308 1.459.098 1.459-.467 0-.566.419-.769.931-.453.512.317 1.213.118 1.559-.441.345-.559 1.925-1.016 3.51-1.016 1.585 0 3.165-.457 3.51-1.016.346-.559 1.019-.775 1.498-.479.478.295 1.293-.221 1.811-1.147.842-1.504 1.016-1.453 1.629.479.658 2.071 2.552 3.061 2.552 1.334 0-.457 1.012-.794 2.25-.75 1.514.053 2.134-.412 1.895-1.421-.196-.825-.363-2.625-.373-4-.029-4.369-2.59-6.537-5.522-4.676-.687.437-1.306.542-1.375.235a31.292 31.292 0 0 1-.252-1.309c-.069-.412-1.227-2.295-2.573-4.184-1.636-2.295-2.05-3.566-1.249-3.833.659-.22 1.199-1.069 1.199-1.888 0-2.269-2.979.965-3.07 3.334-.063 1.63-.154 1.612-.866-.179-.438-1.1-.406-2.15.07-2.333 1.705-.657.822-1.734-1.584-1.934-3.218-.266-4.155 1.349-1.289 2.221 1.359.413 1.748.883.989 1.197-.687.283-1.25 1.18-1.25 1.991 0 .861.481 1.179 1.155.763.768-.475.88-.271.335.61-.594.962-.362 1.15.846.686 1.076-.413 1.664-.131 1.664.799 0 .867-.595 1.209-1.5.862-.825-.317-1.5-.078-1.5.531s-.45 1.107-1 1.107-1-1.8-1-4-.45-4-1-4-1-.702-1-1.559-.445-1.284-.989-.948c-.552.341-.742-.03-.431-.84.306-.798-.001-1.795-.682-2.216-.828-.512-1.053-.283-.679.69.382.998-.192 1.517-1.831 1.653-1.673.138-2.393-.323-2.403-1.541-.009-.984-.335-1.305-.75-.739-.404.55-1.41 1-2.235 1-.895 0-1.628 1.115-1.818 2.767-.175 1.522-.737 2.508-1.25 2.191-.513-.317-.977.013-1.032.733-.055.72-.46.184-.9-1.191-.768-2.398-.805-2.409-.9-.25-.129 2.898-4.1 3.226-4.1.338 0-1.446-.609-1.845-2.5-1.637-1.87.205-2.5-.195-2.5-1.589 0-1.024.477-1.862 1.059-1.862s.798.423.478.939c-.319.517.298.874 1.372.793 1.074-.081 1.732-.504 1.463-.94-.27-.435.422-.792 1.538-.792 1.391 0 1.847-.471 1.452-1.5-.519-1.351 1.158-2.049 3.888-1.618.413.065.75-.332.75-.882s-.626-1-1.392-1c-.765 0-1.687-1.178-2.048-2.618-.767-3.054.132-4.483 1.479-2.353.814 1.287.934 1.284.961-.029.027-1.299.154-1.305.949-.048.506.799.697 1.811.426 2.25-.271.439-.002.798.597.798.6 0 1.347-.667 1.659-1.482.431-1.121 1.031-1.234 2.469-.465 1.987 1.064 2.234.743 1.97-2.553-.091-1.142.181-1.571.635-1 1.325 1.666 3.295 1.602 3.295-.107 0-1.018-.55-1.396-1.5-1.031-.881.338-1.5.013-1.5-.786 0-1.501 2.694-2.883 4.021-2.063.463.286 1.123.062 1.469-.497.927-1.5 2.51-1.234 2.51.422 0 .84.865 1.373 2.081 1.281 1.678-.126 2.003-.692 1.677-2.914-.222-1.516.079-2.957.669-3.202.59-.245.173-.509-.927-.587-1.737-.124-1.672-.274.5-1.144 2.34-.938 2.38-1.069.63-2.054-1.509-.848-1.605-1.219-.5-1.92 1.077-.682.996-.871-.38-.883-.962-.008-1.75-.492-1.75-1.074 0-.582.526-.734 1.17-.336.787.486.961.178.531-.941-.351-.915-.202-1.664.33-1.664 2.527 0 .534-2.05-3.031-3.118-2.785-.835-4-1.758-4-3.04 0-1.013-.562-1.849-1.25-1.857-.833-.011-.75-.339.25-.985 2.313-1.495 3.998-1.18 4.015.75.018 1.966 1.645 4.945 2.306 4.221 1.515-1.658 1.679-4.971.246-4.971-.862 0-1.567-.45-1.567-1s.723-1 1.607-1c1.055 0 1.398-.544 1-1.582-.334-.87-.607-2.22-.607-3 0-.78-.388-1.418-.861-1.418-.474 0-.707 1.238-.519 2.75.342 2.744.341 2.745-.539.25-.485-1.375-.926-1.937-.981-1.25-.195 2.439-2.1 1.208-2.1-1.357 0-1.886.408-2.451 1.474-2.042.812.312 1.92-.2 2.469-1.143.568-.973 1.009-1.171 1.027-.458.016.688.705 1.25 1.53 1.25 1.816 0 1.991-1.635.25-2.338-.747-.301-.545-.536.5-.583.962-.043 1.75-.487 1.75-.985 0-1.174-4.271-.102-5.25 1.318-.513.744-1.096.613-1.844-.412-.927-1.27-1.008-1.232-.532.25.31.963.079 1.75-.514 1.75-.649 0-.828-.992-.449-2.5.497-1.983.249-2.5-1.198-2.5-1.337 0-1.809.734-1.769 2.748.036 1.781-.472 2.764-1.444 2.795-.825.026-1.369.645-1.209 1.375.188.856-.285 1.106-1.332.705-.892-.343-2.287-.623-3.1-.623-.812 0-1.239-.386-.947-.858.292-.471.125-2.271-.371-4-.695-2.422-.59-3.142.456-3.142.916 0 1.238-.944.99-2.903-.372-2.94 2.381-3.993 3.292-1.26.485 1.454 3.221 1.542 3.221.104 0-.582-.445-.784-.989-.448-.579.358-.747-.134-.405-1.191.435-1.345.339-1.461-.379-.457-.739 1.032-1.114.743-1.612-1.244-.358-1.424-1.184-2.479-1.837-2.345-1.052.216-1.31-1.001-.903-4.256.069-.55.462-.947.875-.882 1.943.307 3.313-.208 2.793-1.049-.317-.512-.118-1.213.441-1.559.57-.352 1.051.386 1.095 1.681.074 2.158.145 2.129 1.081-.433.843-2.309 1.304-2.58 2.921-1.715 1.482.794 1.919.697 1.919-.424 0-.799.563-1.679 1.25-1.957.977-.394.969-.521-.035-.583-1.601-.098.266-4.079 1.912-4.079.582 0 2.114-.831 3.405-1.846 2.203-1.733 2.243-1.95.657-3.536-1.388-1.39-1.446-1.84-.326-2.533.964-.596 1.021-.957.193-1.233-1.599-.533-.278-3.634 1.779-4.179 1.001-.265.645-.487-.894-.557-1.407-.064-3.413-.741-4.458-1.505-1.045-.764-2.554-1.137-3.355-.83-1.016.39-1.208.158-.638-.766.527-.851.431-1.084-.267-.653-.662.409-1.211-.411-1.405-2.095-.286-2.491-.717-2.776-4.318-2.853-4.529-.098-7.736-1.222-6.98-2.447.28-.453-.397-1.111-1.505-1.462-1.108-.352-2.022-1.397-2.03-2.322-.01-1.087-.276-1.279-.75-.544-.533.826-1.09.757-2.024-.25-.744-.801-.85-1.389-.25-1.389.571 0 1.039-.477 1.039-1.059s-.45-.781-1-.441-1 .141-1-.441S451.523 90 450.941 90s-.782.449-.442.998c1.266 2.048-8.28-.276-9.669-2.355-.824-1.232-4.83-1.627-4.83-.476 0 .458-.477.833-1.059.833s-.781-.45-.441-1 .156-1-.41-1c-.565 0-.781-.642-.48-1.427.403-1.05-.016-1.28-1.583-.87-1.902.498-2.063.249-1.498-2.323.352-1.601.264-2.392-.198-1.782-.457.605-1.843 1.017-3.081.918-1.581-.128-2.25.363-2.25 1.651 0 1.263-.739 1.833-2.377 1.833-2.226 0-2.345-.286-1.87-4.5.336-2.978.125-4.5-.623-4.5-.621 0-1.13-.707-1.13-1.572 0-1.306-.888-1.47-5.25-.969-2.887.331-7.911.793-11.163 1.026-5.24.376-6.78 1.099-7.821 3.673-.146.363-1.166.813-2.266 1-1.1.188-2.319.788-2.708 1.334-.458.641-1.112.588-1.85-.15-1.747-1.747-5.218 2.129-4.441 4.959.53 1.933.445 2.005-.703.595-2.237-2.749-5.798-3.341-7.289-1.212-.746 1.064-2.746 1.985-4.622 2.128-1.82.138-3.657.8-4.082 1.47-.567.892-.778.824-.79-.255-.01-.978-.541-.721-1.583.767-.863 1.232-1.967 1.993-2.454 1.692-1.544-.954-5.978.67-5.978 2.19 0 1.004-.624 1.261-2 .824-1.56-.495-2-.18-2 1.433 0 1.137-.562 2.074-1.25 2.082-.833.011-.75.339.25.985 1.21.782 1.058.972-.781.985-1.255.008-2.554.723-2.886 1.589-.391 1.02-1.352 1.387-2.727 1.042-2.576-.647-5.122.739-4.175 2.272.378.612 1.56 1.112 2.628 1.112s1.941.405 1.941.9-1.545.9-3.434.9c-1.888 0-3.997.349-4.687.775-.689.426-3.787.843-6.884.928-3.097.084-6.05.402-6.563.705-.512.304-3.839.854-7.391 1.223-3.552.369-7.006 1.125-7.675 1.681-.67.555-4.063 1.234-7.542 1.509-3.478.275-7.674.94-9.324 1.477-1.65.538-5.925 1.242-9.5 1.564-3.575.322-7.512.969-8.75 1.437-2.605.986-3.01-.969-1.193-5.75.82-2.156 1.255-2.462 1.934-1.363.483.78.685 1.73.45 2.11-.235.38.673.627 2.019.548 2.458-.145 4.294-3.615 3.012-5.69-.325-.525-.151-.954.386-.954.536 0 1.125.436 1.309.968.208.606.894.578 1.833-.076 1.119-.779 1.185-1.172.259-1.548-.988-.402-.988-.755 0-1.73 1.759-1.738 4.741-2.733 4.741-1.583 0 .533.45.969 1 .969 1.701 0 1.112-1.776-1.536-4.633-1.395-1.505-2.309-3.329-2.031-4.052.322-.841-.295-1.321-1.714-1.33-1.281-.009-1.754-.326-1.119-.75.605-.404 1.634-1.748 2.285-2.985 1.044-1.981.944-2.25-.828-2.25-1.809 0-1.893-.267-.823-2.613.655-1.438 1.358-2.11 1.564-1.494.498 1.494 2.202.37 2.202-1.452 0-.793-.857-1.441-1.905-1.441-1.645 0-1.832-.546-1.368-4 .554-4.131-.575-4.841-6.477-4.075-.687.09-1.25-.311-1.25-.889 0-.579-1.8-1.772-4-2.653-2.693-1.077-4-2.218-4-3.492 0-2.227-1.942-2.585-2.125-.391-.198 2.378-.353 2.917-1.24 4.317-.782 1.232 1.688 4.069 3.615 4.151 1.116.048.908 3.816-.25 4.532-.55.34-1 .169-1-.379 0-1.079-5.176-1.046-6.003.038-.277.363-1.564-.2-2.861-1.25-1.297-1.05-1.795-1.909-1.108-1.909.925 0 1.105-1.6.692-6.152-.675-7.444.464-9.126 5.625-8.305 1.96.311 3.761.095 4.126-.495.356-.577 1.547-1.048 2.647-1.048 1.1 0 1.748-.408 1.44-.906-.308-.498-1.458-.671-2.555-.385-1.308.343-2.63-.261-3.838-1.754l-1.844-2.276-2.16 2.16M59.194 62.206c-1.446 1.446-1.591 3.158-.194 2.294.55-.34 1-.168 1 .382 0 1.301-1.04 1.905-4.302 2.496-1.464.266-3.616 1.152-4.783 1.969l-2.123 1.487 2.354.361c2.247.346 2.206.442-.896 2.109-3.07 1.651-4.058 3.555-2.599 5.014.358.358 1.193-.09 1.856-.996 1.371-1.876 5.077-1.075 3.892.841-.491.795-.187.969.937.538.915-.351 1.664-.202 1.664.33 0 .533-.477.969-1.059.969s-.771.466-.418 1.037c.379.614 1.728-.1 3.309-1.75 2.198-2.297 2.404-2.916 1.168-3.521-1.126-.55-1.001-.694.5-.575 1.1.086 3.671-.671 5.712-1.684 3.362-1.668 3.551-1.966 2-3.158-1.581-1.215-1.54-1.365.538-1.949 2.669-.751 2.737-1.056.692-3.1-.856-.857-1.32-2.175-1.031-2.929.373-.972-.339-1.371-2.442-1.371-1.7 0-2.976.534-2.984 1.25-.013.995-.177.996-.806.006-.612-.965-1.059-.976-1.985-.05m377.066 2.279c-.771.876-.87 1.638-.26 2.015.566.35.168 1.477-.942 2.668-1.857 1.993-.877 5.421 1.192 4.168.413-.25.757.135.765.855.011.953.283.901 1-.191.817-1.244 1.134-1.268 1.86-.143.62.961 1.077 1.029 1.569.233.382-.617 1.117-.862 1.633-.543.526.325.279 1.24-.562 2.081-.825.825-2.011 1.183-2.637.797-.693-.429-.959-.161-.681.686.52 1.58 6.803 2.537 6.803 1.036 0-.539-.562-1.209-1.25-1.488-1.934-.784 1.363-2.734 3.5-2.069.962.3 1.75.064 1.75-.523s-1.012-1.103-2.25-1.146c-1.238-.043-1.687-.306-1-.583 1.75-.707 1.567-4.338-.219-4.338-.81 0-1.24-.595-.958-1.329.334-.87-.84-1.734-3.398-2.5-4.701-1.409-4.384-1.426-5.915.314M220 84.406c0 .774-1.082 1.344-2.548 1.344-1.402 0-3.193.844-3.981 1.875-1.155 1.511-1.606 1.613-2.322.527-1.058-1.606-4.596-1.152-4.774.612-.354 3.505-.506 3.647-1.907 1.795-1.453-1.922-1.468-1.922-1.483 0-.013 1.619-.176 1.692-.985.441-.828-1.282-.972-1.246-.985.25-.008.963.393 1.75.891 1.75.499 0 .671.9.384 2-.477 1.822-1.508 2.439-3.54 2.118-.412-.065-.75.332-.75.882s.675 1 1.5 1 1.5.73 1.5 1.622c0 1.329-.271 1.398-1.5.378-1.036-.86-1.5-.898-1.5-.122 0 .617-.675 1.122-1.5 1.122s-1.5.675-1.5 1.5-.675 1.5-1.5 1.5c-1.652 0-1.813 1.445-.5 4.5.762 1.772.867 1.687.93-.75.06-2.342.478-2.735 2.82-2.65l2.75.099-2.5.801c-1.375.44-2.036.845-1.468.9.97.094 1.571 2.649 1.848 7.85.155 2.9 2.082 2.304 2.239-.693.065-1.252.727-2.653 1.471-3.112 1.566-.969 2.832-.18 1.381.859-1.095.785-1.594 4.204-.61 4.18 1.135-.027 10.139-9.745 10.139-10.943 0-.637-.45-.881-1-.541-.55.34-1 .141-1-.441s.563-1.066 1.25-1.074c.833-.011.75-.339-.25-.985-1.186-.767-.971-.973 1.029-.985 1.391-.008 3.178-.915 3.971-2.015.793-1.1 2.176-2 3.075-2 .898 0 2.904-1.178 4.457-2.617s3.868-2.677 5.145-2.75c3.902-.224 2.097-6.663-1.856-6.618-.976.012-.929.269.179.985 1.333.862 1.333.97 0 .971-3.609.004-6.05-1.206-4.996-2.476.756-.911.623-1.424-.478-1.847-.901-.346-1.526-.035-1.526.758m181.75 112.317c1.788.222 3.25.834 3.25 1.359 0 .526-1.125.674-2.5.329-1.54-.387-2.5-.202-2.5.481 0 .609.477 1.108 1.059 1.108s.781.45.441 1-1.716 1-3.059 1c-1.343 0-2.441.436-2.441.969 0 .532.603.737 1.34.454.737-.283 1.917.181 2.622 1.031 1.093 1.317.932 1.571-1.09 1.717-1.304.094-3.047.271-3.872.394-.825.122-1.893.27-2.372.329-.48.058-.358.726.271 1.485.919 1.106.301 1.788-3.127 3.45-2.399 1.163-3.479 2.093-2.463 2.121.995.028 1.55.469 1.234.981-.317.512-.117 1.214.443 1.561 1.465.905-.514 4.223-2.985 5.008-2.336.741-2.688 2.5-.501 2.5.825 0 1.5.45 1.5 1s.788 1.007 1.75 1.015c1.505.013 1.54.159.25 1.042-1.241.849-1.16.976.464.735 1.22-.182 2.1.37 2.323 1.458.226 1.099-.248 1.75-1.273 1.75-.979 0-1.347.462-.919 1.155.426.689.276.884-.371.483-1.246-.77-2.567.98-2.765 3.662-.106 1.445.363 1.71 2.203 1.249 2.634-.661 2.966-.034 1.013 1.919-.871.871-2.844 1.161-5.75.846-3.658-.396-4.633-.134-5.628 1.514-.972 1.612-.927 2.1.235 2.546.834.32 1.909-.329 2.56-1.546.87-1.626 1.309-1.797 1.95-.761.454.736.604 1.696.333 2.135-.271.439.482.798 1.673.798 1.427 0 1.986.469 1.638 1.376-.598 1.559 3.201 3.632 6.611 3.609 1.617-.012 1.842-.244.846-.875-.986-.625-.714-.88 1-.935 7.222-.229 10.373-1.017 10.703-2.676.192-.963-.097-1.462-.65-1.12-.917.567-.911-.718.039-7.879.146-1.1.649-2.28 1.118-2.623 1.043-.761-1.022-4.877-2.447-4.877-.563 0-.703-.52-.311-1.155.434-.701.276-.883-.404-.463-.615.38-1.997-.188-3.071-1.262s-2.216-1.691-2.537-1.37c-.32.321-.583-.167-.583-1.083 0-.917.675-1.667 1.5-1.667s1.387.506 1.25 1.125.327 1.336 1.031 1.594c.705.258 1.155-.136 1-.875-.167-.797.431-1.224 1.469-1.05 1.14.191 1.75-.349 1.75-1.55 0-1.014.54-2.384 1.2-3.044.933-.933.822-1.2-.5-1.2-2.519 0-2.063-1.809.55-2.18 1.238-.176 2.311-.995 2.385-1.82.074-.825.22-1.725.324-2 .964-2.543.743-5.155-.545-6.443-.856-.857-1.089-1.557-.517-1.557 1.223 0 .232-3.169-1.324-4.235-.721-.494-.663-.739.177-.75.688-.008 1.25-.465 1.25-1.015 0-.55-2.137-.928-4.75-.84-3.651.123-3.998.253-1.5.563M224.5 205c.356.576-.575 1-2.198 1-1.548 0-4.305.427-6.126.95-2.02.579-4.247.593-5.71.037-1.72-.654-2.795-.515-3.801.491-.772.772-2.316 1.164-3.432.873-2.688-.703-6.538 1.411-5.847 3.211.365.952-.178 1.406-1.673 1.399-1.217-.006-4.207.338-6.645.764-4.099.717-4.309.897-2.797 2.406.898.897 1.355 1.909 1.015 2.25-.341.34-.031.619.687.619.719 0 1.955-.787 2.748-1.75 1.337-1.622 1.403-1.625.904-.032-.669 2.137.952 3.327 1.739 1.276.334-.871 1.838-1.494 3.605-1.494 1.667 0 2.978-.338 2.913-.75-.295-1.867.206-3.25 1.177-3.25.582 0 .781.45.441 1s-.141 1 .441 1 1.059.67 1.059 1.489c0 .965.855 1.418 2.428 1.288 1.335-.111 2.166-.625 1.845-1.144-.34-.551-.032-.602.742-.123.962.594 1.15.362.686-.846-.351-.915-.202-1.664.33-1.664.533 0 .969.675.969 1.5s.502 1.5 1.117 1.5c.624 0 .886-.882.593-2-.287-1.1-.115-2 .384-2 .498 0 .906.884.906 1.965 0 2.129 2.736 4.039 4.75 3.317.688-.247 1.243-.074 1.235.385-.03 1.589-1.495 3.104-3.485 3.601-1.533.383-1.358.527.75.616 1.512.064 2.75.641 2.75 1.283 0 .641.259.907.575.591.317-.316 1.9-.195 3.52.269 1.797.516 2.718.48 2.365-.091-.64-1.037 1.561-1.249 3.848-.371 1.954.749 1.051 3.985-1.95 6.986-2.054 2.054-2.849 4.167-2.497 6.638.054.379-.792.972-1.881 1.317-4.504 1.43-.729 3.867 4.52 2.919 1.65-.299 3.15-.966 3.333-1.484.184-.517.732-.941 1.219-.941.487 0 .606.727.265 1.615-.487 1.27-.178 1.476 1.448.96 1.169-.371 2.375-.158 2.776.491 1.119 1.812 2.488-1.142 1.439-3.104-.563-1.052-1.983-1.581-3.931-1.465-1.677.1-3.105-.196-3.174-.658-.497-3.338-.158-4.173 1.818-4.474 1.207-.185 2.894.365 3.75 1.221.857.856 1.557 1.075 1.557.485 0-.589.45-1.071 1-1.071s1 1.35 1 3c0 2.303.451 3 1.941 3 1.068 0 2.185.396 2.484.879.299.483 1.901.763 3.559.622 2.019-.171 3.016.199 3.016 1.121 0 .758.47 1.378 1.044 1.378.574 0 .911-.645.75-1.434-.162-.789.156-1.352.706-1.25.55.101.882.538.738.97-.144.432.981.582 2.5.332 1.519-.249 3.325-.491 4.012-.536 1.623-.107 1.626-2.79.003-3.331-.769-.256-.385-.877 1-1.619 1.876-1.004 2.247-.949 2.247.333 0 1.844 1.629 2.043 2.338.285.277-.687.54.423.583 2.469.055 2.583.469 3.569 1.356 3.228 1.541-.591 7.987 3.955 7.003 4.939-.381.382.295.952 1.502 1.267 1.208.316 1.949.973 1.648 1.461-.69 1.116 5.618 1.142 7.37.031.715-.454 1.373-1.797 1.463-2.985.089-1.188.573-2.16 1.075-2.16s.646 1.33.321 2.956c-.475 2.375-.292 2.84.932 2.371.838-.322 1.315-1.13 1.059-1.797-.544-1.418.971-4.242 1.821-3.393.318.319.641 2.235.718 4.258.095 2.539.459 3.357 1.174 2.642.571-.571 1.861-1.037 2.868-1.037 1.008 0 2.09-.672 2.405-1.494.316-.822 1.046-1.203 1.623-.846.61.377.754.169.344-.494-.469-.758-.101-.947 1.095-.56 1.527.494 1.573.409.302-.553-1.267-.96-1.19-1.091.5-.845 1.1.161 2.331.742 2.735 1.292.447.609.74.483.75-.321.019-1.704-2.46-4.183-4.164-4.164-.976.012-.929.269.179.985 1.27.821 1.221.972-.32.985-2.275.019-1.96-4.454.32-4.544 2.851-.113 6-1.58 6-2.796 0-.67-1.012-1.339-2.25-1.485-7.387-.872-10.952-2.191-10.326-3.822.326-.851-.347-1.773-1.691-2.313-1.228-.494-1.581-.927-.783-.962 1.098-.048 1.169-.344.292-1.221-.872-.872-1.498-.874-2.542-.008-1.63 1.353-2.7.561-2.7-2.001 0-1.008-.477-1.833-1.059-1.833s-.806.409-.497.91c1.32 2.135-.567 4.095-2.794 2.903-1.182-.633-2.263-1.075-2.4-.982-1.111.751-2.352-.124-1.888-1.331.316-.825.139-1.5-.393-1.5-.533 0-.969.482-.969 1.071 0 .59-.74.331-1.645-.573-1.24-1.24-1.832-1.345-2.399-.426-.415.671-1.42.964-2.233.652-1.467-.563-3.723.938-3.723 2.476 0 .44.838.8 1.861.8 1.447 0 1.755.558 1.384 2.5-.263 1.375-.862 2.5-1.33 2.5-.469 0-.611-.629-.315-1.399.295-.769.056-1.696-.532-2.059-.587-.363-1.068-.183-1.068.399 0 .582-.878 1.059-1.95 1.059-1.073 0-2.409.787-2.97 1.75-.895 1.537-1.037 1.445-1.168-.75-.082-1.375-.096-2.838-.03-3.25.065-.412-.332-.75-.882-.75s-1 .45-1 1c0 1.865-2.203 1.011-4.314-1.672l-2.102-2.672-1.07 2.618c-.805 1.969-1.435 2.387-2.542 1.687-.996-.63-1.068-.935-.222-.946.688-.008 1.25-.439 1.25-.958 0-.518-.891-.771-1.979-.561-1.088.21-2.251-.06-2.584-.598-.333-.539-1.43-.718-2.437-.398-1.007.32-2.121.113-2.475-.459-.392-.635.552-1.041 2.416-1.041 2.104 0 3.059-.487 3.059-1.559 0-.889-.478-1.264-1.112-.872-.611.378-1.46.123-1.886-.566-.426-.689-1.924-1.253-3.329-1.253-1.405 0-2.797-.63-3.092-1.4-.363-.945-1.359-1.193-3.07-.763-2.055.515-2.417.331-1.915-.976.448-1.167.038-1.611-1.489-1.611-1.159 0-2.054-.338-1.989-.75.327-2.068-.267-3.25-1.632-3.25-1.134 0-1.382-.755-.986-3 .357-2.026.118-3.005-.736-3.015-.862-.011-.786-.324.236-.985 1.207-.78 1.049-.972-.809-.985-1.288-.008-2.036.427-1.691.985m54.958.049c-.499.798-.779 2.238-.62 3.201.196 1.194-.368 1.75-1.775 1.75-1.135 0-2.063.436-2.063.969 0 .532-.629.727-1.399.431-.769-.295-1.696-.056-2.059.532-.386.625.193 1.068 1.399 1.068 1.132 0 2.059.477 2.059 1.059s-.45.781-1 .441-1-.214-1 .28c0 .495 1.125 1.412 2.5 2.038 1.375.627 2.552 1.711 2.615 2.411l.25 2.771c.094 1.044 1.503 1.586 4.635 1.783l4.5.283-2.775-1.487c-2.963-1.587-5.725-4.031-5.725-5.067 0-.346.52-.309 1.155.083.715.443.883.275.44-.44-.392-.635-.274-1.155.263-1.155.536 0 1.202.563 1.48 1.25.301.747.536.545.583-.5.043-.963.496-1.75 1.006-1.75.509 0 1.09.787 1.29 1.75.296 1.423.479 1.33.98-.5.544-1.986.246-2.252-2.541-2.265-2.397-.012-2.795-.247-1.656-.977.825-.53 2.344-.699 3.375-.378 1.222.381 1.637.199 1.191-.523-.376-.609-.207-1.107.375-1.107s1.059-.675 1.059-1.5-.45-1.5-1-1.5-1-.724-1-1.608c0-1.202-.611-1.455-2.417-1.002-1.474.37-2.573.139-2.817-.592-.284-.852-.663-.779-1.308.251m75.944 22.716c-.605.404-1.019 1.723-.922 2.93.224 2.766-3.974 7.436-5.988 6.663-.821-.314-1.492-.047-1.492.594s.45.888 1 .548c1.768-1.093 1.067.36-1.189 2.461-2.225 2.073-1.712 2.514 2.439 2.091.962-.098 1.75.286 1.75.854 0 .567.636.787 1.413.489.83-.319 1.606.209 1.884 1.282.428 1.656.482 1.663.587.073.064-.963.514-1.75.999-1.75 1.698 0 2.026-4.098.379-4.73-1.298-.498-1.194-.751.578-1.406 2.15-.796 3.12-4.864 1.16-4.864-.55 0-1-.477-1-1.059s.45-.781 1-.441 1 .168 1-.382-.457-1.283-1.016-1.628c-.559-.346-.758-1.047-.441-1.559.683-1.106-.589-1.204-2.141-.166M198 232.71c-.825.303-2.317 1.264-3.315 2.135-1.754 1.529-1.754 1.607 0 2.299 1.249.492.646.737-1.935.786-2.363.044-3.756-.392-3.765-1.18-.011-.833-.339-.75-.985.25-1.621 2.509-1.207 2.83 4.578 3.553 5.14.642 6.776.667 12.422.188 2.354-.2 2.639-1.558.5-2.379-2.167-.832-1.843-2.362.5-2.362 1.216 0 2-.667 2-1.7 0-1.322-.267-1.433-1.2-.5-1.451 1.451-3.165 1.6-2.3.2.34-.55-.047-1-.859-1-.813 0-2.077-.189-2.809-.421-.733-.231-2.007-.172-2.832.131m-25.262 13.982c-.969.253-1.514.862-1.209 1.354.78 1.263-4.294 2.37-5.792 1.264-.68-.503-2.812-.991-4.737-1.086-1.925-.094-2.937.079-2.25.386 2.398 1.068 1.228 2.336-1.629 1.764-1.637-.327-3.172-.101-3.559.525-.709 1.148.391 1.448 4.188 1.14 2.798-.227 2.875.982.207 3.265-1.876 1.607-1.878 4.383-.001 3.223 1.167-.721 3.343 2.18 2.571 3.429-.365.591.213 1.044 1.332 1.044 1.088 0 2.689.273 3.559.607 1.193.458 1.582-.034 1.582-2 0-1.434-.477-2.607-1.059-2.607s-.781-.45-.441-1 .029-1.007-.691-1.015c-.964-.012-.921-.261.165-.948.942-.596 1.708-.552 2.125.123.448.724.851.73 1.292.016.353-.571.184-1.32-.375-1.666-2.456-1.518-.724-2.616 3.524-2.237 4.529.405 6.857-.792 4.442-2.284-.7-.433-.997-1.508-.659-2.388.629-1.641.454-1.702-2.585-.909m161.998 11.405c.499 1.909.359 1.98-1.548.788-1.154-.72-2.442-.964-2.864-.543-.421.422-.104 1.185.705 1.697 1.227.776 1.175.933-.314.946-1.464.012-1.596.369-.734 1.98.578 1.08.829 3.736.557 5.901-.368 2.927-.105 4.086 1.024 4.519 1.04.399 1.427.048 1.228-1.115-.175-1.027.487-1.856 1.678-2.099 1.71-.349 1.792-.189.628 1.214-1.141 1.374-1.099 1.615.282 1.615 2.042 0 2.05.715.031 2.734-1.226 1.226-1.767 1.305-2.361.344-.586-.949-.909-.884-1.353.274-.699 1.823.662 2.396 4.394 1.848 2.029-.298 2.629-.846 2.246-2.053-.393-1.237-.29-1.321.417-.337.672.936.965.436 1.027-1.75.054-1.908-.408-3.06-1.229-3.06-.724 0-1.553-.902-1.841-2.004-.374-1.432-1.029-1.811-2.29-1.327-1.446.555-1.618.33-.948-1.245.45-1.058.849-2.712.888-3.674.044-1.113.867-1.75 2.262-1.75 1.699 0 2.074.449 1.669 2-.564 2.154 2.977 2.995 4.21 1 .34-.55.19-1-.334-1s-1.222-.704-1.553-1.565c-.46-1.201-.137-1.419 1.387-.935 1.522.483 1.847.265 1.389-.929-.329-.858-.963-1.334-1.408-1.059-.446.275-.981-.013-1.19-.64-.251-.752-.937-.583-2.017.497-1.516 1.516-1.684 1.489-2.273-.366-.848-2.671-2.466-2.584-1.765.094M286 297.473c0 2.983-1.972 4.796-3.676 3.381-.728-.604-1.358-.931-1.401-.726-.777 3.785-.693 4.045 1.151 3.563 1.059-.277 1.926-.069 1.926.462s.52.644 1.155.252c.715-.443.883-.275.44.44-.392.635-.332 1.155.133 1.155.748 0 1.147 1.527 1.501 5.75.057.688.569 1.25 1.138 1.25.618 0 .551.482-.167 1.2-.66.66-1.2 1.868-1.2 2.686 0 .817-.978 2.527-2.174 3.8-1.196 1.272-1.646 2.314-1 2.314.646 0 1.174.477 1.174 1.059s-.45.781-1 .441c-1.266-.783-1.312.785-.06 2.05.517.522 1.171 2.234 1.453 3.804.435 2.422.226 2.78-1.376 2.361-1.038-.272-2.106.075-2.373.771-.314.818.428 1.264 2.107 1.264 1.426 0 3.141.749 3.81 1.664 1.13 1.546 1.345 1.537 3.009-.125 1.722-1.719 1.769-1.701 1.204.461-.724 2.775.849 3.015 1.722.263.548-1.726 1.476-1.975 7.059-1.891 4.161.062 6.202.462 5.787 1.133-.425.689.333.774 2.259.254 1.594-.431 4.099-.834 5.566-.896 1.467-.062 2.943-.389 3.28-.726.337-.337 2.693-.439 5.237-.227 5.071.422 8.856-2.089 7.698-5.107-.328-.854-.098-1.553.511-1.553s1.107-.9 1.107-2 .354-2 .787-2c.433 0 .851-.85.93-1.888.105-1.404-.356-1.758-1.802-1.379-1.512.395-1.799.129-1.291-1.196.52-1.354.828-1.431 1.5-.371.626.988.858.816.892-.666.047-1.953.081-1.956 1.485-.102 1.249 1.651 1.656 1.717 3.121.5.927-.769 1.841-1.285 2.032-1.148 1.703 1.23 3.298.028 2.339-1.763-1.078-2.014-6.519-2.562-7.628-.768-.822 1.329-2.365.861-2.365-.719 0-.825.447-1.5.994-1.5 1.05 0 .913-2.757-.229-4.583-.372-.596-2.159-.902-3.971-.679-2.521.309-2.942.156-1.794-.652 1.273-.896 1.21-1.058-.417-1.071-1.83-.014-1.414-1.379.5-1.64a20.35 20.35 0 0 0 1.456-.25c.296-.069-.331-1.059-1.394-2.2-2.022-2.17-4.122-1.678-7.967 1.864-1.145 1.055-1.607 1.035-2.539-.11-1.544-1.897-4.44-2.81-5.17-1.628-.328.53-1.958 1.668-3.623 2.529-2.796 1.446-3.179 1.429-4.998-.218-1.671-1.512-2.105-1.565-2.856-.349-.563.91-.449 1.712.311 2.195.823.524.676.766-.471.777-2.692.024-4.87-1.114-4.201-2.197.396-.64-.598-.761-2.756-.334-2.254.446-2.917.352-1.997-.282.758-.521 1.069-1.449.691-2.06-.378-.612-.195-1.112.407-1.112.759 0 .788-.573.094-1.869-.55-1.027-.77-2.098-.488-2.379.281-.281-.86-.713-2.536-.959-2.58-.378-3.046-.121-3.046 1.68m72.301 7.793c-1.921.869-4.058 5.754-3.491 7.984.104.413-.485.75-1.31.75-1.816 0-1.991 1.635-.25 2.338 1 .403 1 .52 0 .583-1.788.113-1.552 2.079.25 2.079.825 0 1.536-.788 1.579-1.75.047-1.045.282-1.247.583-.5.278.688 1.19 1.25 2.028 1.25.944 0 1.305.571.948 1.5-.316.825-.139 1.5.393 1.5.533 0 .969-.75.969-1.667 0-.916.296-1.37.658-1.008.362.362 1.262.156 2-.456.987-.819 1.342-.817 1.342.009 0 .617.45 1.122 1 1.122 1.511 0 1.137-5.234-.532-7.441-1.96-2.592-1.94-5.678.032-4.921.825.317 1.5.078 1.5-.531s-.337-1.054-.75-.989c-.413.066-.975.031-1.25-.076-1.829-.713-3.796-.636-5.699.224m-66.056 4.255c-.015 3.815.217 4.124 4.5 6 2.484 1.089 4.907 1.866 5.385 1.729 1.263-.363 1.066 1.154-.33 2.55-.933.933-.822 1.2.5 1.2.947 0 1.707-.776 1.715-1.75.012-1.376.201-1.457.883-.38.701 1.105 1.071 1.009 1.915-.5.575-1.029 1.383-1.645 1.795-1.37.411.275 1.075-.721 1.474-2.213.581-2.175.343-2.835-1.205-3.326-1.082-.344-1.808-1.348-1.653-2.287.219-1.327-.45-1.635-3.224-1.486-1.925.103-4.962.26-6.75.35-1.788.089-3.295.679-3.35 1.312-.055.633-.446.025-.87-1.35-.649-2.107-.772-1.868-.785 1.521m132.891 31.336c-.078.775-.78 1.11-1.636.781-1.33-.51-1.762.405-1.415 3 .047.351-.515 1.01-1.25 1.464-.734.454-1.391 1.291-1.46 1.862-.288 2.39-.618 2.399-1.375.036-.792-2.474-.803-2.469-1.019.5-.12 1.65-.165 3.337-.099 3.75.065.413-.53.75-1.323.75-.793 0-1.792.563-2.222 1.25-.965 1.546-1.333 11.75-.423 11.75.896 0 1.281 5.809.54 8.145-.329 1.036-1.02 1.623-1.537 1.304-.531-.328-.923 1.293-.904 3.735.04 4.967-1.684 17.598-1.882 13.788-.072-1.39-1.031-3.298-2.131-4.24-1.1-.942-2-2.355-2-3.14 0-2.178 1.108-4.592 2.107-4.592 1.36 0 1.065 2.764-.357 3.338-.747.301-.545.536.5.583 1.912.086 2.232-3.294.75-7.921l-.801-2.5-.099 2.39c-.055 1.314-.795 2.898-1.645 3.519-.849.621-1.62 2.133-1.713 3.36-.248 3.299-1.742 2.711-1.742-.686 0-1.604.563-3.143 1.25-3.421.688-.277.181-.54-1.125-.583-2.124-.071-2.311.243-1.765 2.971.434 2.168.276 2.843-.545 2.336-.801-.496-.927-.128-.411 1.2.839 2.158.88 2.398.714 4.223-.066.734-.632.991-1.288.586-.787-.486-.961-.178-.531.941.351.915.202 1.664-.33 1.664-.533 0-.969-.45-.969-1s-.477-1-1.059-1-.738.52-.346 1.155c.426.689.276.884-.371.483-.597-.369-1.368-.213-1.714.346-.546.883 1.465 1.494 3.74 1.134.413-.065.757.444.765 1.132.012.935.229.913.862-.085.466-.735 1.246-1.185 1.735-1 .488.184 1.038-.981 1.221-2.589.249-2.186.561-2.565 1.235-1.5.697 1.101.905 1.124.917.103.012-1.078.266-1.071 1.373.036.859.859 1.171 2.631.85 4.82-.424 2.891-.634 3.132-1.273 1.463-.664-1.732-.861-1.563-1.478 1.268-.587 2.687-.967 3.056-2.142 2.08-1.374-1.14-1.439-.264-.382 5.154.054.275.534-.175 1.067-1 .804-1.244.975-1.159 1 .5.026 1.681.196 1.761 1.069.5.856-1.237.982-1.149.718.5-.192 1.199-1.114 2.019-2.303 2.047-1.091.025-1.86.621-1.709 1.324.151.703-.187.993-.75.644-.64-.395-1.076 1.176-1.161 4.176-.075 2.645-.331 3.797-.57 2.559-.479-2.49-3.294-3.13-3.294-.75 0 .825.466 1.5 1.035 1.5.691 0 .668.686-.07 2.065-.883 1.651-1.391 1.827-2.535.877-1.136-.943-1.43-.866-1.43.378 0 1.526-2.669 1.621-5.004.178-.57-.353-1.003.585-1.011 2.193-.011 1.919-.283 2.386-.861 1.475-1.234-1.946-1.85.227-1.725 6.084.055 2.613-.263 4.751-.708 4.75-.445 0-.587.359-.316.798.271.439.041 1.451-.512 2.25-.74 1.07-.9.597-.607-1.798.233-1.901-.049-3.25-.679-3.25-.69 0-1.041 2.963-.977 8.25.117 9.77-.144 10.728-2.957 10.82-2.084.069-2.088.094-.143.93 1.759.756 1.662.868-.809.93-1.611.04-2.548-.352-2.198-.919.357-.577-.138-.751-1.191-.418-1.626.514-1.614.417.121-.998 1.806-1.473 1.673-1.547-2.212-1.217-2.416.204-4.326-.113-4.594-.764-.3-.729-.486-.682-.538.136-.093 1.473-3.079 1.716-3.079.25 0-.55-.562-.887-1.25-.75-.687.138-1.138-.312-1-1 .137-.687-.463-1.25-1.333-1.25-1.783 0-1.397-2.431.416-2.625a74.567 74.567 0 0 0 2.05-.25c.486-.069 1.131-1.07 1.433-2.226.35-1.34.993-1.826 1.774-1.343.874.54 1.063.138.661-1.4-.31-1.186-.129-2.156.402-2.156s.718-.399.417-.887c-.301-.487.1-1.425.893-2.082 1.564-1.299 5.537-.513 5.537 1.095 0 .546.457.709 1.016.364.559-.346.715-1.117.346-1.714-.374-.605-.211-.801.37-.442.572.354 1.299-.344 1.615-1.552.731-2.795.111-3.407-1.823-1.802-1.042.865-1.524.91-1.524.142 0-.617-.498-1.122-1.107-1.122-.61 0-.828.728-.485 1.621.502 1.307.184 1.481-1.643.902-1.246-.394-3.053-.77-4.015-.834-1.22-.082-1.75-.962-1.75-2.903 0-1.532-.257-2.786-.571-2.786-.954 0-3.929 3.29-3.929 4.345 0 .544-.562 1.176-1.25 1.405-.687.229-1.25-.381-1.25-1.355 0-1.571-.227-1.529-2 .375-2.124 2.279-2.666 3.76-1 2.73.55-.34 1-.141 1 .441s-.45 1.059-1 1.059-1 .675-1 1.5-.45 1.5-1 1.5-1-.675-1-1.5-.816-1.5-1.813-1.5c-1.461 0-1.861-.919-2.058-4.724-.299-5.777-.909-6.627-1.747-2.436-.348 1.738-1.026 3.16-1.507 3.16-.481 0-.762.506-.625 1.125.138.619-.384 1.355-1.159 1.636-.956.347-1.217.01-.811-1.048.422-1.1-.293-1.871-2.425-2.614l-3.023-1.054 2.152-3.022 2.152-3.023h-2.068c-1.137 0-2.075-.562-2.083-1.25-.012-.915-.247-.885-.879.113-.729 1.151-.941 1.151-1.36 0-.398-1.093-.759-1.115-1.821-.113-.729.688-2.36 1.25-3.625 1.25-1.265 0-2.3.45-2.3 1s-.788.993-1.75.985c-1.496-.013-1.532-.157-.25-.985 1.461-.944 1.354-1.065-1.25-1.42-.687-.094-1.138-.713-1-1.375.137-.663-.425-1.205-1.25-1.205s-1.5-.477-1.5-1.059.409-.806.91-.497c.5.309 1.597.299 2.437-.024 2.141-.821.883-3.404-1.704-3.499-1.179-.043-1.578-.307-.887-.585.691-.279 1.002-.918.691-1.421-.518-.839 1.159-1.3 4.303-1.184.688.026 1.25-.803 1.25-1.842 0-1.222.706-1.889 2-1.889 1.1 0 2-.449 2-.998 0-.551-1.794-.856-4-.682-3.714.294-3.999.133-3.985-2.252.012-2.025.221-2.251.985-1.068.646 1 .974 1.083.985.25.008-.687.492-1.25 1.074-1.25.582 0 .8.419.484.931-.317.512-.115 1.216.448 1.564 1.693 1.046 4.001-2.129 4.125-5.674.064-1.826.324-2.522.578-1.545.565 2.169 3.21 1.871 5.506-.621 1.603-1.741 1.59-1.964-.232-3.92-1.487-1.596-1.67-2.389-.792-3.447.853-1.028.849-1.663-.018-2.53-.637-.637-1.214-.843-1.283-.458-.698 3.909-2.054 5.797-3.375 4.7-.915-.759-1.423-.643-1.83.416-.585 1.526-4.67 1.799-4.67.312 0-.465-.555-.503-1.232-.084-1.127.696-2.919 1.109-6.655 1.532-.763.087-1.595.951-1.849 1.921-.514 1.967-3.264 1.463-3.264-.597 0-1.785-2.521-2.579-3.878-1.222-.829.829-1.122.79-1.122-.149 0-.902-.457-.814-1.571.3-2.097 2.096-6.824 1.522-6.514-.791.129-.969-.189-.926-3.165.43-1.512.689-2.75 1.781-2.75 2.426 0 .645-.675 1.173-1.5 1.173s-1.5-.375-1.5-.834c0-2.432-1.927-.351-2.237 2.417l-.364 3.25-1.489-3.202c-1.456-3.131-1.518-3.156-2.8-1.103-1.04 1.666-1.485 1.817-2.156.731-.465-.753-1.167-1.046-1.56-.653s.003 1.509.882 2.479c1.58 1.746 1.785 7.723.345 10.053-1.352 2.187.463 6.303 2.495 5.658 2.579-.818 2.736 4.996.162 5.984-1.475.566-1.511.794-.25 1.591.81.512.958.938.33.947-.627.008-1.424 1.14-1.769 2.515-.345 1.375-1.054 2.5-1.577 2.5-.522 0-.688.68-.369 1.511.415 1.083.121 1.336-1.035.892-1.317-.505-1.55-.029-1.265 2.578.193 1.762-.45 4.768-1.432 6.694-.981 1.923-1.556 4.087-1.279 4.809.278.723.024 1.611-.564 1.974-.587.363-1.016 1.871-.952 3.351.076 1.756.277 2.071.58.906.763-2.934 5.101-7.007 6.777-6.364.942.362 1.527.024 1.527-.882 0-.808-.45-1.469-1-1.469-1.506 0-1.201-2.656.5-4.357 1.87-1.87 1.901-2.643.107-2.643-.766 0-1.652-.675-1.969-1.5-.316-.825-.172-1.5.32-1.5s1.101-.788 1.353-1.75c.344-1.317.486-1.193.573.5.064 1.238.593 2.25 1.175 2.25.582 0 .781.45.441 1s.069 1 .91 1c.862 0 1.304-.581 1.016-1.333-.487-1.267-.04-1.456 4.501-1.905 1.059-.105 1.665-.614 1.345-1.131-.32-.517-.061-.619.573-.226.635.392 1.155.21 1.155-.405s.45-.84 1-.5c.55.34 1 .164 1-.391s-.788-1.468-1.75-2.029c-.962-.561-1.3-1.062-.75-1.113.55-.052 2.575-.279 4.5-.505 4.233-.495 11 .417 11 1.484 0 .424-1.824.667-4.053.542l-4.052-.229 1.95 2.12c3.02 3.284 2.335 7.172-1.22 6.918-1.559-.111-3.354-.912-3.988-1.779-1.825-2.496-9.356 1.003-10.185 4.732-.336 1.512-1.25 2.75-2.031 2.75-1.669 0-1.851 2.855-.319 5 .861 1.205.975 1.058.578-.75-.376-1.719-.043-2.25 1.414-2.25 1.048 0 1.92.563 1.936 1.25.017.688.539.374 1.16-.697.846-1.457.838-2.044-.03-2.333-.638-.213-1.108-1.362-1.044-2.553.098-1.835.189-1.883.592-.318.345 1.338 1.142 1.722 2.884 1.389 2.456-.47 3.551 1.714 1.245 2.483-.639.213-1.279 1.185-1.423 2.161-.172 1.177.218 1.589 1.163 1.227 1.831-.703 1.835.347.008 1.781-1.162.911-1.216 2.051-.302 6.362.848 4.002.828 5.537-.085 6.45-.931.931-1.198.707-1.198-1.002 0-1.21-.45-2.2-1-2.2s-1 2.475-1 5.5-.45 5.5-1 5.5-1 .45-1 1 .9 1 2 1 2 .436 2 .969c0 .532-.586.743-1.303.468-.957-.367-1.197.408-.904 2.918.22 1.879-.062 4.278-.625 5.331-.563 1.052-1.316 4.591-1.673 7.863-.357 3.273-1.081 7.635-1.608 9.692-1.067 4.16 1.503 9.105 5.239 10.082 1.477.386 1.874 1.431 1.874 4.934 0 2.445.49 5.974 1.088 7.844.599 1.869 1.298 4.061 1.554 4.871.404 1.277.584 1.281 1.357.029 1.412-2.283 2.038-.731 2.237 5.546.177 5.588.069 5.861-2.584 6.571-2.654.709-4.912-1.191-3.315-2.789.322-.321-1.061-1.423-3.072-2.449-2.011-1.025-3.906-1.486-4.211-1.023-.852 1.293-4.054.966-4.054-.415 0-.674 1.125-1.508 2.5-1.853 4.104-1.03 3.518-5.392-.642-4.781-2.177.319-2.927.112-2.441-.674.464-.751-.332-1.134-2.358-1.134-1.682 0-3.059.45-3.059 1s-.801 1-1.779 1c-.979 0-2.428.9-3.221 2-1.004 1.393-2.589 2-5.221 2-3.867 0-5.174-1.489-2.029-2.311 1.335-.349 1.224-.485-.469-.573-1.538-.08-2.042-.576-1.643-1.616.381-.992-.053-1.521-1.281-1.563-1.551-.053-1.487-.213.393-.968 2.786-1.12 2.895-2.629.25-3.469-2.025-.643-2.841-3.5-1-3.5.55 0 1-.675 1-1.5s.45-1.5 1-1.5 1-.45 1-1-.675-1-1.5-1-1.5.675-1.5 1.5-.675 1.5-1.5 1.5c-.943 0-1.5.951-1.5 2.559 0 1.451-.433 2.292-1 1.941-.55-.34-1-.066-1 .608 0 .674-.301.925-.668.557-.368-.367-.168-1.68.443-2.917 1.342-2.715 2.091-10.748 1.001-10.748-.427 0-.776.627-.776 1.393s-.675 1.652-1.5 1.969c-2.056.789-1.892 3.389.25 3.949 1.111.29.777.499-.917.573-1.466.064-2.901-.446-3.187-1.134-.395-.95-.836-.89-1.833.25-.739.845-2.515 1.362-4.063 1.184-1.558-.18-2.75.171-2.75.809 0 .619.338.921.75.671s1.292.133 1.955.851c.948 1.025.894 1.425-.25 1.864-2.421.929-1.64 2.421 1.644 3.143 3.628.797 2.562 2.728-1.506 2.728-1.523 0-2.295.422-1.911 1.045.391.632.027.807-.919.444-1.039-.398-1.747.091-2.103 1.453-.46 1.76-1.047 1.958-4.099 1.386-2.236-.42-3.561-.28-3.561.377 0 .887 2.796 1.524 5.189 1.184.379-.054.972.792 1.317 1.881.406 1.278 1.581 2.021 3.311 2.096 1.694.073 2.038.285.933.573-.963.252-1.75 1.325-1.75 2.384 0 1.581-.717 1.927-4 1.927-2.889 0-4 .417-4 1.5 0 .825.675 1.5 1.5 1.5 1.069 0 1.496 1.077 1.485 3.75-.009 2.063-.346 3.299-.75 2.748-.404-.55-1.973-1.639-3.485-2.419-1.808-.932-2.75-2.215-2.75-3.748 0-1.282-.45-2.331-1-2.331s-1.012.788-1.027 1.75c-.02 1.284-.812.818-2.973-1.75-2.161-2.568-2.953-3.034-2.973-1.75-.015.962-.493 1.75-1.062 1.75-.678 0-.639.74.113 2.147.932 1.74.848 2.315-.44 3.036-1.241.694-1.456 1.868-.978 5.353.445 3.249.269 4.464-.649 4.464-.87 0-1.074.937-.657 3.021.815 4.075-2.235 7.355-5.637 6.062-3.537-1.345-7.342-.201-8.614 2.59-1.561 3.427-3.54 2.416-3.913-2-.24-2.839-.744-3.673-2.219-3.673-1.36 0-1.75.502-1.358 1.75.508 1.616.437 1.612-.93-.053-1.114-1.356-1.61-1.48-2.003-.5-.395.985-.541.998-.601.053-.043-.687-1.173-1.25-2.509-1.25-1.73 0-2.523-.626-2.75-2.172-.176-1.194-.883-2.357-1.571-2.583-.793-.261-1.028.167-.643 1.171.862 2.246-.889 1.966-2.606-.416-1.616-2.242-4.561-2.654-5.354-.75-.379.912-.902.781-1.932-.484-.776-.954-1.684-1.463-2.016-1.13-1.319 1.318-5.501-.713-6.06-2.944-.321-1.279-1.609-2.795-2.861-3.37-6.165-2.829-9.722-4.142-14.547-5.369-2.898-.738-6.161-2.171-7.25-3.186-1.089-1.015-1.98-1.351-1.98-.747s-.48.801-1.066.439c-.587-.362-2.667-.659-4.623-.659-2.213 0-5.297-1.104-8.161-2.92-2.532-1.606-5.234-2.678-6.004-2.382-.77.295-2.004-.259-2.741-1.231-.813-1.071-1.354-1.274-1.373-.517-.018.688-1.157 1.25-2.532 1.25-1.72 0-2.495.546-2.485 1.75.011 1.185.261 1.363.777.553.812-1.278 2.679-.466 2.752 1.197.168 3.809 2.907 6.5 6.617 6.5 2.14 0 3.839.49 3.839 1.107 0 .609.725.829 1.611.489 1.289-.495 1.492-.141 1.012 1.77-.569 2.266-.316 2.412 4.924 2.846 6.596.547 8.778 2.099 5.906 4.199-1.441 1.053-2.131 1.118-2.681.254-.479-.753-.747-.524-.757.644-.008.995-.465 1.531-1.015 1.191-.55-.34-1-1.491-1-2.559s-.45-1.941-1-1.941-1 .45-1 1c0 1.451-4.741 1.229-5.338-.25-.277-.687-.575.1-.662 1.75-.09 1.719-.406 2.367-.74 1.518-.32-.815-1.184-2.085-1.921-2.822-.736-.736-1.339-1.982-1.339-2.767 0-2.023-1.762-1.778-2.311.321-.353 1.353-.483 1.254-.573-.438-.074-1.393-.751-2.17-1.866-2.139-.962.027-3.171-.274-4.908-.669-3.043-.691-3.15-.605-2.944 2.361.117 1.694.592 3.429 1.055 3.857.463.428.593-.235.288-1.472-.65-2.64-.169-2.82 1.928-.724.839.839 1.25 2.243.914 3.119-.485 1.262-.088 1.494 1.903 1.113 1.836-.351 2.524-.046 2.549 1.131.025 1.115.506.842 1.563-.889 1.449-2.372 1.503-2.385 1.058-.249-.258 1.239-.061 2 .437 1.691.499-.308.907.565.907 1.94s.495 2.806 1.101 3.18c.646.4.853 1.972.501 3.809-.43 2.244-.321 2.705.384 1.629.849-1.294.985-1.268.999.191.024 2.697-1.937 3.171-3.874.937-1.356-1.564-2.062-1.777-2.947-.892-.885.885-1.164.623-1.164-1.095 0-1.251-.446-1.983-1-1.641-.556.344-1-.406-1-1.691 0-1.796-.555-2.309-2.5-2.309-1.714 0-2.5.55-2.5 1.75 0 .962.338 1.697.75 1.632 2.323-.367 3.405.272 2.861 1.69-.743 1.936 1.134 5.704 2.439 4.897.523-.323.95.163.95 1.079 0 1.07-.537 1.46-1.5 1.09-.825-.316-1.5-.139-1.5.393 0 1.673-1.831 1.053-2.311-.781-.435-1.667-.463-1.667-.573 0-.092 1.395-1.045 1.75-4.687 1.75-2.731 0-5.176.604-6.072 1.5-.825.825-1.018 1.5-.428 1.5.589 0 1.071.627 1.071 1.393s.775 1.69 1.722 2.054c2.615 1.003-.127 2.294-3.745 1.763-3.277-.481-3.439-.866-1.98-4.701.741-1.951.613-3.362-.5-5.516-1.632-3.154-1.924-5.06-.747-4.875 1.867.295 3.25-.206 3.25-1.177 0-.582-.45-.781-1-.441s-1-.084-1-.941c0-.996-.902-1.559-2.5-1.559-1.813 0-2.5.536-2.5 1.953 0 1.074-.553 3.166-1.229 4.649l-1.228 2.697-.585-2.399c-.54-2.217-.992-2.374-5.91-2.065-3.656.23-5.59-.084-6.171-1-.608-.958-.851-.7-.862.915-.008 1.237-.505 2.25-1.103 2.25-.715 0-.856 1.37-.412 4 .609 3.605.47 4-1.412 4H65.25c-.412 0-.806-.45-.875-1l-.25-2c-.069-.55-1.587-.947-3.375-.882l-3.25.119 3 .763c1.65.42 2.261.817 1.357.882-.904.065-1.869.708-2.146 1.429-.34.886-1.754 1.164-4.357.857-2.964-.35-3.399-.616-1.882-1.153 1.759-.622 1.685-.752-.685-1.205-3.042-.581-5.681.52-3.894 1.624 2.523 1.559 1.096 3.399-2.419 3.12-1.939-.154-3.766.109-4.059.583-.293.475.345.863 1.419.863s2.24.75 2.592 1.667c.487 1.271.917 1.39 1.807.5 1.394-1.394 5.767-1.565 5.767-.224 0 .518.9.769 2 .557 1.1-.212 2 .039 2 .557 0 .519 1.013.995 2.25 1.059 1.693.087 1.817.229.5.573-.963.252-1.75.875-1.75 1.384 0 .51-.675.927-1.5.927s-1.5-.477-1.5-1.059-.48-.762-1.067-.399c-.589.363-1.316-.29-1.621-1.456l-.553-2.114-1.879 2.167c-1.691 1.949-1.88 1.984-1.88.347 0-1.761-1.372-1.257-1.625.597-.303 2.219-.455 2.339-1.289 1.021-.545-.859-1.584-1.127-2.707-.696-1.547.594-1.601.84-.351 1.63.996.63 1.068.936.222.947-.687.008-2.189-.924-3.337-2.072-2.302-2.302-6.744-1.942-8.213.667-.44.781-1.677 1.42-2.75 1.42-1.072 0-1.95.675-1.95 1.5s.563 1.507 1.25 1.515c.833.011.75.339-.25.985-1.536.992-1.326 1.086 3 1.349 3.554.215 3.78 6.969.25 7.471-1.749.248-2.25.972-2.25 3.25 0 3.07-3.266 4.335-4.338 1.68-.388-.961-.522-.948-.583.059-.043.72-.487 1.057-.985.749-.498-.308-.672-1.454-.386-2.548.285-1.093.918-1.741 1.406-1.44.487.302.886-.127.886-.951 0-1.048-.828-1.401-2.75-1.173-3.846.456-3.902.488-2.469 1.398.929.589 1.016 1.478.314 3.234-.713 1.783-.985 1.953-1.032.646-.059-1.65-.275-1.666-3.063-.224-3.146 1.627-4.162 3.16-1.389 2.096 1.323-.508 1.491-.138.937 2.067-.569 2.267-.448 2.499.772 1.486 1.747-1.449 3.01.699 1.678 2.854-.489.791-.247 1.89.602 2.74.78.78 1.163 1.832.85 2.338-.312.505-.106.919.46.919.565 0 .766.681.447 1.513-.32.832-.062 2.138.573 2.902.881 1.062.848 1.502-.138 1.863-1.035.378-1.043.736-.042 1.797 1.816 1.925 1.534 2.865-.729 2.429-1.088-.21-2.217.005-2.509.476-.527.853 1.373 1.382 8.988 2.5 6.965 1.023 27.5 1.362 27.5.454 0-.479.788-.624 1.75-.321 1.494.47 1.466.319-.191-1.031-1.76-1.434-1.777-1.582-.191-1.582.962 0 1.472-.45 1.132-1-.34-.55-.132-1 .462-1 .595 0 1.593-1.125 2.22-2.5.626-1.375 1.854-2.493 2.729-2.485.919.009 1.168.325.589.75-1.622 1.192-1.622 3.235 0 3.235 2.488 0 1.685 1.915-1.095 2.613-3.571.896-1.251 2.084 3.082 1.578 2.355-.275 3.552-.95 3.631-2.05.065-.903.403-.32.75 1.295.615 2.857.821 2.947 7.632 3.34 3.85.222 8.8.329 11 .238 2.2-.091 10.075-.37 17.5-.621 11.7-.395 15.63-.417 21.706-.119.663.033.944.483.624 1-.514.833 8.908.589 20.492-.53 1.827-.177 3.51-.016 3.74.357 1.044 1.689 14.926.622 16.245-1.249.718-1.018 2.181-1.852 3.25-1.852s1.943-.45 1.943-1-.562-1.007-1.25-1.015c-.831-.01-.748-.337.25-.974 1.076-.688 1.924-.437 3 .887 1.554 1.911 8.601 3.883 7.498 2.098-.331-.535 0-.742.735-.46 2.381.914 1.855-3.554-.541-4.599-1.814-.791-1.546-.903 1.558-.647 2.062.17 3.75-.067 3.75-.526 0-1.189 4.028 1.04 7.169 3.967 1.468 1.368 3.117 2.21 3.666 1.871.548-.339 2.085-.203 3.415.303 1.329.505 3.014.55 3.743.099 1.677-1.036 4.202-.129 3.373 1.213-.342.553-.002 1.399.756 1.879 1.865 1.182 12.152 1.157 11.421-.027-.317-.512-.118-1.213.441-1.559.559-.345 1.016.073 1.016.931 0 1.404 13.732 1.556 138.5 1.538l138.5-.02v-19.98c0-15.308-.292-19.983-1.25-19.994-.8-.01-.88-.28-.222-.75 1.005-.719 1.076-2.28.67-14.922l-.198-6.188-4.117.057c-2.265.031-4.427-.445-4.806-1.058-.379-.613-1.826-1.208-3.216-1.323-2.051-.17-2.528-.737-2.528-3.005 0-3.271 2.572-3.877 3.377-.796.56 2.139 8.29 3.071 8.29 1 0-.55-.702-1-1.559-1s-1.276-.457-.931-1.016c.346-.559 1.047-.758 1.559-.441.512.316.931-.189.931-1.124 0-.934.788-2.339 1.75-3.122 1.298-1.055 1.362-1.319.25-1.022-.857.229-2.251-.827-3.25-2.461-2.228-3.645-2.206-3.814.5-3.815 2.146-.001 2.112-.12-.72-2.555-2.445-2.103-2.71-2.719-1.5-3.484 1.238-.783 1.199-.932-.249-.945-.972-.008-1.507-.565-1.232-1.282.267-.696-.35-1.869-1.373-2.606-1.221-.88-1.701-2.16-1.4-3.733.498-2.606-.656-3.114-2.618-1.152-.874.874-1.451.92-1.95.154-.389-.599-1.965-1.396-3.501-1.772-1.536-.376-3.031-1.458-3.323-2.404-.291-.946-.938-2.487-1.437-3.424-.584-1.098-.513-1.946.202-2.388.745-.461.588-.975-.479-1.573-.873-.488-1.333-1.548-1.024-2.356.31-.807.966-1.219 1.459-.914.492.304.895-.149.895-1.006 0-1.066-.95-1.559-3-1.559-1.65 0-3-.45-3-1s-.916-.084-2.036 1.036c-1.121 1.121-1.769 2.471-1.441 3 .327.53.092.964-.523.964s-.84.45-.5 1c.34.55.231 1-.241 1-1.893 0-3.259-2.599-3.259-6.2 0-3.646-.874-4.452-4.25-3.918-.413.065-.75-.587-.75-1.449 0-1.113.581-1.383 2-.933 2.043.648 2.809-.882 1-2-.55-.34-1-1.068-1-1.618s.45-.722 1-.382c.55.34 1 .141 1-.441s-.675-1.059-1.5-1.059-1.5-.675-1.5-1.5-.675-1.5-1.5-1.5-1.5-.488-1.5-1.083c0-.596-.562-.896-1.25-.667-.82.274-1.164 2.087-.999 5.274.157 3.038-.218 5.16-1 5.666-.913.591-.945 1.013-.12 1.56 1.057.7 1.654 6.25.673 6.25-2.176 0-3.665-4.541-4.569-13.936-.273-2.827-3.918-7.035-4.9-5.655-.366.514-1.215-1.055-1.886-3.487-.671-2.432-1.435-3.819-1.698-3.083-.347.973-.789.801-1.614-.628a276.36 276.36 0 0 0-2.422-4.089c-.707-1.167-.888-2.122-.403-2.122s1.325.991 1.865 2.203l.983 2.203.577-2.203c.377-1.444.124-2.203-.737-2.203-.841 0-1.135-.809-.82-2.25.391-1.784.277-1.941-.552-.758-.812 1.159-1.312 1.224-2.244.292-1.37-1.37.631-4.702 2.229-3.714 1.531.946.964-2.35-.687-4.001-1.402-1.403-1.408-1.639-.048-2.16 1.856-.713 3.874.375 3.079 1.66-.316.512.076.931.873.931.863 0 1.713-1.414 2.104-3.5.393-2.095 1.241-3.5 2.111-3.5 1.079 0 1.455-1.291 1.455-5 0-3.986-.336-5-1.655-5-1.477 0-1.457-.219.192-2.041 1.772-1.958 1.776-2.16.08-5.031-2.426-4.105-3.167-13.503-1.127-14.286.83-.318 1.51-1.113 1.51-1.766 0-.716-.775-.485-1.956.584-1.913 1.731-1.943 1.691-1.367-1.854l.588-3.625-2.844 1.476c-2.195 1.138-3.021 1.198-3.618.259-1.347-2.12-.882-6.748.74-7.371 1.366-.524 1.348-.808-.155-2.469-1-1.105-1.223-1.876-.543-1.876.635 0 1.155-.45 1.155-1s-.9-1-2-1c-1.111 0-2 .667-2 1.5 0 .825-.788 1.464-1.75 1.421-1.045-.047-1.247-.282-.5-.583.688-.278 1.25-1.169 1.25-1.98 0-.812-.45-1.198-1-.858-.55.34-1 .168-1-.382s.457-1.283 1.016-1.628c1.143-.706.372-2.49-1.075-2.49-.518 0-.941 2.925-.941 6.5 0 3.599-.439 6.5-.985 6.5-.894 0-.487-10.416.538-13.75.211-.687.023-1.25-.418-1.25s-.802-.675-.802-1.5.375-1.5.834-1.5c1.416 0 .917-2.754-.604-3.338-.835-.32-1.625.159-1.884 1.143-.246.932-.499.206-.563-1.614-.064-1.82.298-3.053.804-2.74.506.312 1.748-.485 2.76-1.771 1.012-1.287 2.511-2.163 3.33-1.947 1.292.341 1.288.218-.03-.92-.836-.722-1.49-2.551-1.453-4.063.036-1.512-.292-2.75-.731-2.75-.438 0-.796 1.152-.796 2.559 0 1.812-.365 2.323-1.25 1.75-.687-.445-2.958-.867-5.046-.938-4.577-.156-5.213-.661-3.826-3.046 1.004-1.726 1.064-1.717 1.107.175.038 1.66.21 1.745 1.015.5 1.442-2.231 1.213-3-.893-3-1.041 0-2.152-.675-2.469-1.5-.35-.914-.001-1.5.893-1.5.808 0 1.469.45 1.469 1s.675 1 1.5 1 1.5-.477 1.5-1.059.45-.781 1-.441 1.059-.196 1.132-1.191c.072-.995.463-.234.868 1.691l.737 3.5.131-3.25c.073-1.788.582-3.25 1.132-3.25.55 0 1-.675 1-1.5s.563-1.507 1.25-1.515c.833-.011.75-.339-.25-.985-1-.646-1.083-.974-.25-.985.688-.008 1.25-.69 1.25-1.515s.689-1.5 1.531-1.5c.843 0 1.805-.713 2.14-1.584.489-1.275.772-1.324 1.453-.25.662 1.044.849.981.861-.291.008-.894.296-3.031.64-4.749.579-2.898.435-3.109-2-2.907-1.444.119-2.625.521-2.625.892s-.704.945-1.565 1.276c-1.223.469-1.436.109-.973-1.643l.593-2.244-1.649 2.25c-1.886 2.572-4.951 3.114-4.03.712.336-.875-.049-1.783-.893-2.107-2.259-.867-1.817-3.305.517-2.855 1.1.212 2-.039 2-.557 0-.519.723-.943 1.607-.943.976 0 1.393.557 1.063 1.417-.299.78.103 1.666.893 1.969.954.366 1.437-.121 1.437-1.449 0-1.1-.675-2.259-1.5-2.575-2.263-.869-1.801-2.592.5-1.862 1.44.457 2 .18 2-.992 0-.894.45-1.348 1-1.008.55.34 1-.028 1-.819 0-.79.695-2.013 1.546-2.719.85-.705 1.314-1.885 1.031-2.622-.33-.861.279-1.368 1.704-1.419 2.125-.076 1.93-.212-2.198-1.533-1.08-.346-1.14-.731-.25-1.621 1.734-1.734 1.486-6.767-.333-6.767-.933 0-1.5.944-1.5 2.5 0 1.375-.498 2.5-1.107 2.5s-.837-.704-.506-1.565c.461-1.202.137-1.419-1.393-.933-1.142.362-1.994.177-1.994-.435 0-.587-.661-1.067-1.469-1.067-.959 0-1.247-.577-.83-1.664.411-1.069.246-1.421-.46-.985-.643.398-1.278-.259-1.533-1.586-.24-1.246-.497-1.654-.572-.908m-115.578 8.918c-1.006 1.006.549 2.124 2.224 1.6 1.423-.446 1.385-.267-.223 1.043-1.702 1.387-1.733 1.582-.25 1.582 1.871 0 2.098.81.801 2.857-1.113 1.756-4.83.624-5.43-1.654-.246-.937-.507-.353-.579 1.297-.079 1.791-.438 2.518-.893 1.803-.486-.765-1.283-.875-2.205-.305-1.901 1.175-.953 1.998 3.442 2.99 4.64 1.046 7.069.372 8.373-2.325.576-1.19 1.077-1.6 1.114-.913.038.688 1.043 1.25 2.235 1.25 1.191 0 1.901-.266 1.576-.59-.325-.325.05-2.407.833-4.626.783-2.22 1.424-4.16 1.424-4.311 0-.502-11.928-.212-12.442.302m83.823 9.674c-.333.867-.093 2.193.533 2.947.871 1.05.781 1.507-.388 1.956-1.096.42-1.497 1.935-1.424 5.367.097 4.525.145 4.604.884 1.48 1.026-4.331 2.455-5.666 1.551-1.449-.468 2.188-.32 3.25.455 3.25.633 0 1.069 1.012.969 2.25-.293 3.615-.016 5.138.789 4.334.413-.412.827-3.074.921-5.917.095-2.842.207-5.745.25-6.452.059-.959.571-1.022 2.013-.25 2.455 1.314 3.359 1.317 2.551.01-.349-.563-.263-.96.191-.881 1.933.336 3.324-.171 3.324-1.211 0-.617-.878-.887-1.965-.602-2.063.539-3.755-2.306-2.541-4.272.355-.574-.372-.975-1.685-.93-1.27.043-1.812.284-1.204.535 1.221.504.639 5.386-.642 5.386-.442 0-1.099-1.345-1.46-2.989-.778-3.541-2.275-4.769-3.122-2.562m-27.349 39.083c-.018.567-1.27 1.129-2.782 1.247-1.512.118-3.875.654-5.25 1.19-1.375.536-3.85 1.176-5.5 1.421-1.65.245-3.128.483-3.285.528-.157.045.229 1.044.859 2.219 1.039 1.944.924 2.096-1.268 1.677-2.646-.506-5.304 1.571-4.232 3.305.465.753.944.671 1.536-.262.721-1.138.862-1.136.875.015.011 1.055.335 1.107 1.398.225 1.066-.885 1.516-.802 1.962.361a1.598 1.598 0 0 0 2.069.937c2.155-.827 4.194.605 2.443 1.715-1.04.659-.923.863.5.875 1.243.01 1.667-.481 1.281-1.485-.384-1.002.042-1.5 1.286-1.5 1.024 0 2.115-.659 2.424-1.464.484-1.263.929-1.274 3.231-.079 2.848 1.477 5.838 1.027 4.761-.716-.379-.613-.169-.753.505-.336.635.392 1.155.188 1.155-.454 0-.738.897-.943 2.439-.556 1.341.337 2.718.161 3.059-.391.341-.552.031-1.018-.689-1.036-.869-.021-.721-.478.441-1.36 1.84-1.396 2.471-3.172.75-2.108-.55.34-1-.084-1-.941s.45-1.559 1-1.559 1 .45 1 1 .436 1 .969 1c.532 0 .709-.675.393-1.5-.889-2.315-5.653-1.992-4.915.333.888 2.797-2.407 2.313-5.107-.75-1.252-1.42-2.291-2.119-2.308-1.551M46 539.617c0 2.124-.376 2.518-2 2.093-1.1-.287-2-.115-2 .384 0 .498.563.936 1.25.974.688.037.237.556-1 1.152-3.918 1.89-2.503 2.289 6.934 1.954 6.01-.213 8.692-.64 7.752-1.234-.996-.631-1.054-.914-.186-.925.743-.009 1.25-1.347 1.25-3.301 0-2.733-.378-3.29-2.25-3.311-1.237-.014-2.581.452-2.985 1.036-.487.704-.74.641-.75-.189-.008-.719-1.29-1.25-3.015-1.25-2.569 0-3 .376-3 2.617m28.088.308c-1.547.979.612 4.075 2.841 4.075.589 0 1.071 1.111 1.071 2.469 0 1.783-.416 2.308-1.5 1.893-.825-.317-1.5-.978-1.5-1.469 0-.491-.927-.893-2.059-.893-1.132 0-1.781.45-1.441 1 1.17 1.893-1.768.997-3.58-1.092-1.888-2.177-3.92-1.839-3.92.651 0 .823-.965 1.448-2.25 1.456-1.819.013-1.963.201-.75.985.825.533 2.962.976 4.75.985 1.787.008 3.25.492 3.25 1.075 0 .617 1.259.862 3.014.585 1.733-.273 3.561.073 4.303.815 1.446 1.446 6.683 1.771 6.683.415 0-.481-.45-.875-1-.875s-1-.45-1-1 .787-1.007 1.75-1.015c1.496-.013 1.532-.157.25-.985s-1.246-.972.25-.985c1.239-.011 1.759.789 1.782 2.735.031 2.67.075 2.692 1.543.75.831-1.1 1.818-1.854 2.193-1.675.375.179.825-.105 1.001-.631.175-.525-.826-1.243-2.225-1.594-3.046-.764-3.31-2.166-.544-2.89 1.1-.287 2-.115 2 .384 0 .498.481.906 1.07.906.588 0 .925-1.013.75-2.25-.349-2.457-5.548-2.75-7.055-.398-.515.805-.739.739-.75-.219-.009-.872-.739-1.177-2.015-.843-1.242.325-2 .03-2-.777 0-.714-.712-1.572-1.582-1.906-1.917-.736-1.622-.764-3.33.318M7.452 611.816c-3.75 2.694-5.666 7.551-5.249 13.31.235 3.247.894 6.371 1.465 6.942 1.699 1.699 11.427 1.521 12.718-.232.613-.831 1.789-1.754 2.614-2.05 1.033-.372.667-.762-1.178-1.253-1.472-.392-2.921-1.348-3.218-2.123-.298-.776-1.178-1.41-1.956-1.41-1.604 0-2.614-2.971-2.634-7.75-.008-1.918-.526-3.256-1.264-3.265-.92-.012-.892-.243.107-.875.746-.473.949-1.112.452-1.419-.497-.307-1.333-.251-1.857.125" fill="#d3d3d3" fill-rule="evenodd"/></svg>