<svg xmlns="http://www.w3.org/2000/svg" width="500" height="357"><path d="M100 30.926c-1.864 1.085-24.137 1.637-50.5 1.252-11-.16-20.547-.266-21.215-.235-2.675.125-3.332 3.781-1.753 9.747 1.328 5.013 1.529 16.994 1.47 87.31-.047 54.843.299 84.444 1.057 90.5 1.07 8.553.948 21.941-.614 67-.305 8.8-.827 16.675-1.159 17.5-.332.825-.526 1.856-.431 2.291.094.434-.331 1.729-.945 2.877-1.778 3.322-.472 3.509 25.897 3.705 13.581.101 32.793.514 42.693.919 9.9.404 20.475.393 23.5-.024 3.025-.418 16.525-.663 30-.546 13.475.118 58.925.061 101-.126 178.499-.792 216.053-.437 217.597 2.061 1.016 1.644 4.285.809 6.157-1.571 1.635-2.079 1.79-3.296 1.116-8.75-.43-3.485-.749-17.361-.708-30.836.047-15.514-.554-31.615-1.637-43.898-1.293-14.655-1.437-19.999-.593-21.853 1.201-2.635 2.986-46.889 2.37-58.749-.2-3.85-.557-30.367-.794-58.926-.354-42.711-.679-52.174-1.829-53.323-2.721-2.722-73.832-1.701-88.81 1.274-4.513.897-7.868 1.027-10.5.407-5.917-1.393-38.962-2.836-67.369-2.941-14.025-.053-32.475-.53-41-1.061-8.525-.532-35.75-1.197-60.5-1.478-56.252-.64-97.541-1.754-99.5-2.685-.825-.392-2.175-.321-3 .159m-50.446 4.987c-.201.325-.626 4.864-.945 10.089-.456 7.455-.357 8.745.46 5.998 2.262-7.609 4.28-12.052 5.33-11.729 1.232.378 8.156 10.538 16.687 24.484 6.69 10.935 7.394 10.743 8.255-2.255.328-4.95.898-12.688 1.267-17.196.66-8.07.634-8.204-1.719-8.699-3.642-.767-28.921-1.363-29.335-.692m-4.273 1.313c-.553.701-1.307 3.299-1.676 5.774-.37 2.475-1.12 6.75-1.669 9.5-.548 2.75-1.431 10.4-1.961 17-.531 6.6-1.388 14.475-1.905 17.5-.517 3.025-1.186 7.75-1.486 10.5l-.547 5 1.988-5.906c1.956-5.807 3.54-16.286 4.55-30.094.534-7.294 1.734-15.312 3.632-24.256 1.152-5.429.819-7.233-.926-5.018m38.922 15.88c-.669 9.567-1.213 20.362-1.209 23.989L83 83.689l15.25.844c18.929 1.048 34.761 1.258 35.25.468.526-.852-14.902-13.962-21.77-18.499-3.941-2.603-5.933-4.634-6.284-6.407-.284-1.427-.963-4.014-1.511-5.749-2.186-6.927 3.13-12.016 8.095-7.749.841.723 6.016 3.38 11.5 5.905 17.803 8.196 20.751 9.88 31.939 18.245 6.067 4.535 11.578 8.248 12.246 8.25.668.001 1.729.964 2.358 2.139 1.059 1.98 1.7 2.094 8.754 1.561 10.382-.785 10.171-.4 10.611-19.4.066-2.89.664-2.605-15.938-7.621-7.905-2.388-20.834-6.817-22.736-7.789-.955-.488-2.53-.889-3.5-.892-.97-.003-6.039-1.633-11.264-3.623-5.225-1.99-11.14-4.22-13.144-4.954-2.126-.779-10.681-1.621-20.54-2.021l-16.897-.686-1.216 17.395M126 36.853c0 .469 5.287 2.575 11.75 4.68 6.463 2.104 12.178 4.195 12.7 4.646.523.452 1.991.821 3.264.821 1.272 0 3.095.409 4.05.91.955.5 7.136 2.574 13.736 4.608 6.6 2.035 13.034 4.1 14.297 4.591 3.581 1.389 4.203 1.1 4.203-1.954 0-2.636-.497-3.002-6.75-4.975-14.18-4.475-30.919-10.315-34.989-12.208C143.836 35.914 126 35.017 126 36.853m28-.037c0 .449 4.162 2.097 9.25 3.662 5.088 1.566 11.05 3.604 13.25 4.53 7.947 3.343 11.643 4.249 12.764 3.128 1.263-1.263-3.905-3.696-18.59-8.752C161.339 36.169 154 35.039 154 36.816m40.564 2.434c-.206.688-.304 9.8-.219 20.25l.155 19 9.5.636c5.225.35 11.3.793 13.5.983 3.895.338 3.994.268 3.755-2.636-.134-1.641-.524-6.384-.867-10.54l-.623-7.557 5.123-6.156c3.933-4.725 6.11-6.445 9.368-7.399 5.95-1.744 5.71-1.859 7.674 3.669.977 2.75 3.643 8.875 5.923 13.611 2.281 4.737 4.147 9.037 4.147 9.556 0 2.391 5.289 7.879 8.179 8.486 2.853.599 3.659.088 9.848-6.25 3.707-3.797 7.459-6.903 8.338-6.903 2.285 0 3.022-3.938 3.082-16.483l.053-10.983-6.5-1.22c-9.345-1.755-79.914-1.811-80.436-.064m90.438 1.498c.001.964-.227 10.622-.507 21.463-.467 18.089-.364 19.787 1.248 20.636 2.357 1.241 21.293 2.524 25.057 1.697l2.995-.658-2.528-2.528c-3.574-3.574-2.667-15.905 1.541-20.96 1.481-1.778 3.473-4.359 4.428-5.735 2.98-4.295 11.992-8.039 17.544-7.288 7.677 1.038 7.588.601 5.353 26.383-.444 5.119-.34 8.635.275 9.25 1.57 1.57 18.592 1.282 18.592-.313C359 81.009 369.711 68 371.099 68c.581 0-.892 2.363-3.272 5.25-4.07 4.938-6.827 9.072-6.827 10.236 0 .283 1.146.514 2.548.514 1.723 0 4.164-1.617 7.547-5 2.75-2.75 5.623-5 6.385-5 1.922 0 2.424-2.334 2.325-10.81-.049-4.251.392-7.787 1.055-8.45 1.365-1.365 1.267-2.209 1.562 13.331.131 6.914.567 13.102.968 13.75.416.674 3.086 1.179 6.236 1.179 5.007 0 5.452-.178 4.89-1.95-1.314-4.139 10.226-17.314 16.316-18.629 2.715-.587 6.221-1.912 9.473-3.58 6.195-3.179 23.376-.877 26.14 3.502 1.296 2.055-4.895 11.253-10.87 16.149C430.083 82.993 429.886 84 434.5 84c1.925 0 3.5-.454 3.5-1.01 0-.555 2.587-4.447 5.75-8.648a9414.16 9414.16 0 0 0 8.926-11.875c1.747-2.33 5.933-6.358 9.303-8.951 5.935-4.567 6.117-4.844 5.824-8.865-.299-4.092-.367-4.161-4.803-4.827-6.708-1.007-29.507-.893-37.5.189-3.85.52-14.65 1.241-24 1.6-12.247.47-17.446 1.039-18.594 2.034-1.354 1.173-2.108 1.174-5 .006-6.235-2.517-21.073-3.588-57.156-4.124-33.596-.5-35.75-.426-35.748 1.219M462.76 56.705c-2.511 2.087-6.747 6.628-9.413 10.089a8535.279 8535.279 0 0 0-8.073 10.5c-4.443 5.794-4.269 6.92.976 6.318 2.337-.268 4.363-.516 4.5-.55.137-.034.25-.89.25-1.901 0-1.012 4.05-5.76 9-10.552 7.665-7.419 8.998-9.186 8.985-11.91-.028-5.784-1.209-6.162-6.225-1.994M45.096 72.281c-1.333 13.643-2.376 19.424-5.094 28.219C36.548 111.678 34 125.108 34 132.132v3.095l4.75-.747c2.612-.41 5.2-.704 5.75-.653.55.052 7.75.36 16 .684 8.25.325 16.125.68 17.5.79 2.393.19 2.513-.068 2.798-6.051l.297-6.25h-3.219c-1.77 0-4.045-.748-5.054-1.661-1.01-.914-2.839-2.162-4.066-2.773-1.415-.706-2.45-2.381-2.832-4.589-.332-1.912-1.349-5.052-2.261-6.977-2.217-4.681-9.286-17.775-11.043-20.457-2.914-4.447-4.83-12.088-4.691-18.713.236-11.291-1.573-8.45-2.833 4.451m415.556 1.778c-7.548 8.152-8.16 9.941-3.402 9.941 6.001-.001 13.764-11.276 10.887-15.813-.607-.956-2.64.639-7.485 5.872M212.888 84.5c-.06.55-.037 1.939.051 3.086.223 2.888-2.47 5.048-4.349 3.489-1.117-.927-1.731-.711-2.959 1.042l-1.549 2.212-4.031-2.915c-6.326-4.573-10.284-6.411-13.811-6.412L182.98 85l3.01 5.641c3.305 6.193 3.886 11.818 1.542 14.918-1.69 2.234-2.004 5.441-.532 5.441.55 0 1 .675 1 1.5s.361 1.5.803 1.5c.442 0 1.904 2.243 3.25 4.984 1.346 2.742 2.785 4.992 3.197 5 .412.009.75.889.75 1.957s.392 2.183.871 2.479c.479.296 1.145 1.908 1.48 3.583.334 1.674 1.405 3.338 2.379 3.698 2.187.807 3.235 2.267 3.255 4.536.019 2.21 5.14 9.675 6.671 9.725.709.023.932-.833.577-2.212-.512-1.987-.388-2.093 1.06-.905.902.739 2.112 1.187 2.69.994.577-.192-1.845-3.192-5.384-6.665-5.286-5.189-6.649-7.213-7.64-11.344-.663-2.766-2.958-8.614-5.1-12.997-3.556-7.277-4.068-9.833-1.969-9.833.425 0 1.251 1.013 1.837 2.25 7.525 15.89 10.602 21.73 12.78 24.25 2.517 2.914 2.573 2.928 1.912.5-.374-1.375-1.559-4.388-2.633-6.694-1.075-2.307-1.796-5.007-1.603-6 .217-1.121 1.79 1.223 4.142 6.171 4.048 8.514 4.906 9.484 8.425 9.508 2.823.019 2.801-.479-.262-5.837-2.839-4.967-3.203-7.359-.988-6.51 3.508 1.347 1.1-3.549-4.988-10.138-6.777-7.336-7.852-9.916-4.496-10.794 1.589-.416 1.96-1.233 1.75-3.866-.375-4.706 3.163-5.207 6.348-.9 1.244 1.683 2.849 3.06 3.566 3.06.716 0 1.865.9 2.552 2 1.713 2.743 2.694 2.511 3.89-.92 1.752-5.025 3.337-4.799 11.933 1.705 5.757 4.356 7.365 3.944 7.747-1.987.298-4.615.357-4.688 4-4.991 3.516-.292 3.69-.475 3.535-3.704-.116-2.392-1.15-4.369-3.5-6.685l-3.337-3.289-17.251-.315c-10.994-.2-17.291.049-17.361.686M167 85.926c-1.375.415-7.667 1.066-13.982 1.446-12.987.782-13.359.953-12.044 5.538 1.184 4.127.221 12.328-1.335 11.367-1.738-1.074-5.311-.79-7.972.633-2.182 1.168-2.868 1.024-6.308-1.322l-3.859-2.633-.296 2.312c-.295 2.305 5.17 15.228 6.89 16.291.498.308.906-1.042.906-2.999 0-4.313 2.44-4.883 4.216-.985.902 1.98.895 3.018-.03 4.5-.729 1.166-.805 1.926-.194 1.926.554 0 1.008.845 1.008 1.878 0 1.032.675 2.437 1.5 3.122 1.891 1.57 2.106-.999.357-4.268-.795-1.484-.818-2.245-.079-2.491.667-.223.882-2.488.576-6.048l-.49-5.693 2.068 4.359c1.137 2.398 2.068 5.912 2.068 7.809 0 2.135.397 3.205 1.041 2.807.572-.354.784-1.45.472-2.435-.391-1.231.048-1.954 1.402-2.307 1.957-.512 1.957-.555-.051-6.138-1.112-3.092-1.812-6.179-1.556-6.859.707-1.877 5.692 9.879 5.692 13.424 0 3.184 3.438 9.84 5.082 9.84.505 0 .918-1.111.918-2.469 0-1.704.433-2.302 1.399-1.931 2.574.987 2.62-1.363.111-5.751-1.367-2.392-2.494-5.474-2.504-6.849-.01-1.375-.691-3.789-1.512-5.364-.822-1.576-1.476-4.726-1.455-7l.039-4.136 1.343 3.085c2.202 5.057 9.579 9.75 9.579 6.094 0-.727-.859-3.087-1.908-5.245-2.027-4.166-1.751-6.823.39-3.757.701 1.002 2.41 3.848 3.798 6.323 1.627 2.901 3.958 5.258 6.56 6.634 5.133 2.714 5.736 1.455 2.586-5.399-2.316-5.037-4.233-11.226-3.172-10.235 1.868 1.744 6.23 11.143 6.693 14.419.304 2.155 1.169 4.123 1.921 4.372 1.04.346 1.132.031.381-1.31-1.253-2.24-.444-5.481 1.368-5.481 2.024 0 1.696-2.07-.955-6.018-2.638-3.927-3.937-7.982-2.558-7.982.505 0 2.15 2.588 3.657 5.75 3.583 7.521 7.239 10.673 7.239 6.239 0-3.135-3.999-11.151-7.354-14.739-3.142-3.361-6.192-3.969-11.646-2.324m90.66 1.324c1.671 4.727.572 10.098-2.62 12.812-1.688 1.435-3.303 4.004-3.67 5.837-1.228 6.139-9.376 6.75-14.707 1.102-2.547-2.699-5.381-4.151-4.39-2.251.215.412 1.153 2.418 2.086 4.458 1.716 3.754 3.641 5.79 3.641 3.851 0-2.061 2.063-1.023 3.032 1.526.541 1.421 2.184 4.634 3.652 7.139 2.436 4.157 2.738 4.367 3.46 2.415 1.158-3.129 3.398-2.623 6.563 1.484 5.012 6.502 8.187 9.377 10.357 9.377 2.017 0 2.095-.326 1.437-5.994-.604-5.204-.462-6.084 1.079-6.675 1.216-.467 2.231.004 3.22 1.494.794 1.196 1.828 2.175 2.298 2.175 1.256 0 .385-13.917-.955-15.257-.629-.629-1.143-1.892-1.143-2.808 0-.916-.931-2.849-2.07-4.297-2.393-3.042-2.225-6.966.32-7.451 1.303-.248 1.75.329 1.75 2.26 0 1.426 1.074 4.294 2.386 6.372 1.312 2.079 3.379 6.088 4.592 8.909 1.214 2.821 3.013 5.859 3.999 6.751 1.678 1.519 1.86 1.427 2.856-1.428 1.116-3.203 3.167-4.164 3.167-1.484 0 2.148 6.943 9.41 7.107 7.433.292-3.536.444-3.985 1.393-4.129.55-.083 2.35 2.472 4 5.678 5.395 10.483 13.5 16.493 13.5 10.01 0-1.343-.45-2.719-1-3.059-1.474-.911-1.216-4.203.378-4.815 2.057-.789 3.622 1.314 3.622 4.867 0 3.301 3.531 9.475 5.855 10.239 1.481.487 1.396-.239-1.592-13.541-1.343-5.98-1.972-7.25-3.589-7.25-1.807 0-8.391-6.171-13.174-12.347-2.763-3.568-7.5-4.672-7.5-1.748 0 1.167.52 3.129 1.156 4.359 2.644 5.114 2.956 5.958 2.403 6.51-.319.319-1.179-.239-1.911-1.241-1.877-2.567-5.106-12.408-4.327-13.187.885-.885-2.412-3.275-4.571-3.314-.962-.018-1.75.418-1.75.968s-.703 1-1.563 1c-.934 0-1.444-.704-1.267-1.75.163-.963-.423-3.325-1.303-5.25-.88-1.925-2.222-4.98-2.983-6.789-1.468-3.49-5.227-5.268-7.124-3.371-1.553 1.553 1.784 8.567 5.941 12.488 3.744 3.532 4.102 4.672 1.466 4.672-2.209 0-7.847-6.763-9.388-11.261-2.312-6.746-3.525-7.739-9.461-7.739-5.224 0-5.419.095-4.658 2.25m-168.16.241c-.55.184-2.237.607-3.75.941-2.722.6-2.75.689-2.75 8.644 0 9.236 1.509 16.541 4.013 19.424.955 1.1 2.28 3.051 2.943 4.336 1.692 3.276 2.313 2.113 2.437-4.562.098-5.315.286-5.768 2.357-5.695 2.685.095 2.88-2.087.721-8.079-.792-2.2-1.448-4.142-1.456-4.316-.008-.174 1.222-.174 2.735 0 2.35.27 2.791.825 3.031 3.816.435 5.43 2.142 8 5.315 8 2.005 0 3.137.751 4.147 2.75.764 1.513 1.917 3.65 2.562 4.75.646 1.1 2.74 5.6 4.655 10 3.154 7.247 3.484 7.669 3.511 4.485.016-1.933-.949-5.308-2.143-7.5-1.195-2.192-2.524-6.235-2.953-8.985-.429-2.75-1.104-6.125-1.501-7.5-.647-2.244-.55-2.36.945-1.134.917.752 2.118 3.043 2.67 5.092 1.25 4.643 5.011 8.606 5.011 5.28 0-3.553-3.759-11.039-6.184-12.317-1.274-.671-2.64-1.716-3.035-2.321-.518-.791-1.266-.762-2.665.105-2.308 1.43-3.129.69-5.832-5.263-4.177-9.2-8.438-12.068-14.784-9.951m14.5.78c0 3.736 3.11 8.933 5.044 8.428 1.079-.282 3.042.367 4.444 1.47l2.512 1.976v-2.104c0-3.411 2.662-3.465 6.7-.137 4.114 3.391 6.3 3.934 6.3 1.565 0-2.338 2.73-2.876 5.473-1.079 3.208 2.102 3.527 2.042 3.527-.667 0-1.876-1.523-5.015-3.747-7.723-.226-.275-6.338-.742-13.582-1.037-7.244-.296-13.958-.907-14.921-1.357-1.249-.585-1.75-.395-1.75.665m225.51-.316c-2.961.404-4.085 1.061-4.358 2.545-.571 3.107-2.243 4.606-4.382 3.927-1.324-.42-2.418.053-3.416 1.477-1.935 2.764-4.083 2.644-8.688-.485-3.803-2.584-9.666-4.08-9.666-2.466 0 1.836 4.56 9.276 6.233 10.172.972.52 1.767 1.918 1.767 3.106 0 2.356 4.309 9.24 7.5 11.983 4.559 3.919 6.058 1.982 6.743-8.714.238-3.706.477-4.004 3.257-4.057 2.628-.049 2.966-.381 2.724-2.675-.351-3.329 1.286-4.385 3.196-2.061.81.986 2.428 2.918 3.597 4.293l2.123 2.5-.57-7.182c-.503-6.317-.356-7.251 1.218-7.751 1.723-.547 7.723 1.952 10.782 4.491 2.042 1.695 2.831.56 1.43-2.058-.639-1.194-.963-2.37-.72-2.613.497-.498 4.785 4.935 6.599 8.363.717 1.354 2.124 2.25 3.534 2.25 1.288 0 2.902.675 3.587 1.5 2.95 3.554 3.539 1.443 1.464-5.25-1.121-3.617 1.031-2.585 2.52 1.208 1.378 3.513 4.016 5.579 4.016 3.145 0-.733-.996-2.599-2.213-4.147-1.507-1.915-1.826-2.943-1-3.218.667-.223 1.213-1.506 1.213-2.853 0-3.179 2.37-4.028 5.508-1.972 2.644 1.733 2.839 1.487 1.826-2.299-.629-2.352-.758-2.376-9.236-1.683-7.877.645-30.667.805-32.023.225-.316-.135-2.371 0-4.565.299m49.011.27c-.239.701-.567 2.622-.728 4.268-.209 2.131-1.094 3.374-3.075 4.32-2.458 1.172-2.71 1.715-2.157 4.661 1.015 5.408-3.306 9.595-8.659 8.393-2.527-.568-4.671-.526-5.869.115-2.832 1.516-4.478.427-8.489-5.614-3.106-4.677-4.046-5.445-6.345-5.179-3.217.371-3.226 2.99-.04 11.507 1.549 4.14 1.719 5.663.821 7.342-1.447 2.702-.59 4.962 1.88 4.962 1.217 0 2.153-.918 2.551-2.5.851-3.394 3.314-3.159 7.291.696 2.512 2.434 3.298 2.792 3.298 1.5 0-.933.45-1.696 1-1.696s1 1.73 1 3.845c0 2.533.661 4.443 1.937 5.598 2.387 2.16 3.942 1.374 3.355-1.697-.281-1.471.301-2.973 1.613-4.16 2.195-1.986 2.858-1.404 3.517 3.086.148 1.005.901 1.828 1.673 1.828 1.501 0 1.642-3.193.507-11.5-.338-2.475-.35-3.937-.025-3.25.852 1.806 2.423 1.536 2.423-.417 0-2.734 1.412-.481 2.503 3.993.848 3.478 1.391 4.134 3.257 3.936 1.626-.173 2.24.289 2.24 1.683 0 1.352-.814 2.016-2.741 2.239-1.811.209-2.865.995-3.104 2.316-.541 2.99-3.171 5.5-5.763 5.5-1.264 0-3.426.514-4.804 1.142-3.434 1.565-6.098-.321-11.213-7.939l-4.047-6.028-1.721 2.913c-1.835 3.107-3.52 3.564-6.756 1.832-1.559-.834-2.414-.721-3.763.5-.96.869-2.498 1.58-3.417 1.58-1.838 0-2.248 1.526-.671 2.5 1.216.751 1.338 7.173.151 7.907-.467.289-1.452-.602-2.189-1.978-1.914-3.576-4.305-2.639-5.317 2.082-2.17 10.129-4.453 11.632-9.246 6.088-2.602-3.01-3.605-3.567-5.071-2.815-3.055 1.566-7.573-1.171-11.856-7.183-3.005-4.218-4.452-5.465-5.945-5.123-1.143.261-2.931-.449-4.25-1.688-2.817-2.646-2.926-.983-.277 4.21 3.718 7.287 2.217 15-2.919 15-1.969 0-3.003.594-3.351 1.923-.317 1.215-1.555 2.043-3.366 2.25-2.281.26-2.928.886-3.18 3.077-.372 3.228-2.584 3.482-14.379 1.652-10.978-1.703-11.967-.927-11.258 8.83.311 4.273.955 9.118 1.432 10.768 1.692 5.85 2.654 13.475 1.859 14.728-.512.807-.813.157-.823-1.778-.008-1.677-.383-3.477-.832-4-1.478-1.717-4.197-16.71-4.612-25.434-.039-.816-.916-1.647-1.949-1.848-1.637-.317-1.791.066-1.2 2.984.373 1.841 1.041 12.123 1.483 22.848.796 19.271 1.393 22.752 6.095 35.5.406 1.1 1.632 4.925 2.725 8.5 1.092 3.575 2.591 8.466 3.33 10.87.739 2.403 2.862 5.932 4.718 7.843 3.58 3.687 3.736 5.165.353 3.355-3.793-2.03-6.878-7.519-9.596-17.068-1.487-5.225-3.504-11.975-4.483-15-4.982-15.399-6.047-21.789-6.047-36.27 0-6.694-.557-14.566-1.237-17.492l-1.237-5.321-6.013.291c-5.942.289-6.011.326-5.808 3.163.113 1.58.872 3.609 1.687 4.51 1.137 1.257 1.444 4.082 1.315 12.129-.097 6.062.399 12.729 1.176 15.794.738 2.917 1.093 5.553.788 5.858-.866.867-3.671-6.584-3.671-9.753 0-4.238-2.715-2.643-4.159 2.444-.648 2.281-1.552 4.575-2.01 5.097-.457.522-.831 1.523-.831 2.224 0 1.609-11.329 25.139-13.397 27.826-3.201 4.159-1.461-1.005 4.5-13.355 10.373-21.49 13.647-31.214 13.938-41.402.28-9.792-3.859-17.103-8.282-14.628-1.127.631-2.351.532-3.679-.297-2.991-1.868-3.125-.934-.959 6.696 3.609 12.711.961 21.443-9.955 32.825-3.776 3.939-9.034 9.861-11.682 13.161-6.256 7.793-10.639 11.113-23.838 18.052-10.267 5.397-12.473 6.246-22.146 8.522-14.767 3.475-13.535 1.995 3.035-3.643 6.919-2.355 13.116-4.702 13.772-5.216.656-.514 5.277-3.054 10.269-5.643 9.609-4.986 12.229-6.944 16.816-12.572 1.569-1.925 6.142-6.945 10.162-11.156 9.667-10.125 11.815-14.356 11.858-23.35.036-7.831-1.788-13.671-4.005-12.82-.774.297-1.407.983-1.407 1.524s-1.751 3.531-3.891 6.643c-3.179 4.623-3.983 6.77-4.389 11.731-1.14 13.9-13.748 26.23-39.22 38.357-18.88 8.988-20.821 9.745-29.995 11.703-10.63 2.268-14.142 2.714-13.005 1.651 1.148-1.074 6.939-2.852 20.5-6.297 5.392-1.37 17.876-7.178 37.445-17.421 5.48-2.868 16.309-13.163 18.628-17.708 2.038-3.995 2.635-11.857.9-11.857-.987 0-3.05 1.691-12.929 10.597-6.684 6.026-20.023 14.99-24.044 16.157-1.925.559-6.2 1.552-9.5 2.206-8.831 1.75-13.575 3.211-17.5 5.389-14.61 8.106-21.09 10.123-29.699 9.241-3.626-.372-7.314-1.046-8.197-1.499-.882-.453-4.004-1.129-6.937-1.502l-5.332-.68.571 12.796c.315 7.037.556 15.158.536 18.045-.041 6.091-.265 6.016 8.118 2.712 7.283-2.87 13.581-4.488 14.377-3.692.781.782-17.013 9.23-19.441 9.23-2.636 0-3.703 2.721-1.81 4.615 1.24 1.24 3.101 1.293 12.387.352 6.01-.609 13.627-1.335 16.927-1.613 3.3-.279 8.915-1.359 12.479-2.402 3.563-1.042 6.853-1.52 7.312-1.061.459.459-.544 1.11-2.228 1.446-1.685.337-3.063 1.049-3.063 1.582 0 .606 9.303.897 24.75.775 13.613-.106 31.387.148 39.5.566 12.355.638 14.75.533 14.75-.643 0-1.885 2.216-2.617 7.927-2.617 5.461 0 6.527-.874 11.039-9.061 2.045-3.71 3.004-4.763 3.016-3.311.022 2.576-2.559 8.992-3.967 9.863-.558.345-1.015 1.275-1.015 2.068 0 1.134 1.694 1.441 7.941 1.441 7.869 0 10.429-1.03 8.172-3.287-.695-.695-1.062-5.071-.977-11.663l.137-10.55 1.134 9.5c1.551 12.998 4.507 17.73 9.841 15.751.688-.255 5.527-.149 10.752.236 8.557.631 9.767.503 12.191-1.288 2.759-2.038 10.944-2.073 23.559-.1 4.646.726 5.738-.699 2.5-3.266-1.53-1.213-1.122-1.302 3.247-.709 4.208.57 4.821.456 3.876-.723-.617-.771-1.376-2.751-1.687-4.401-.311-1.65-.852-4.144-1.202-5.543-.595-2.37-.253-2.665 5.017-4.326 4.363-1.375 5.517-2.142 5.051-3.356-.529-1.38.418-1.507 7.672-1.028 16.414 1.083 27.616-4.039 11.776-5.384-9.393-.798-12.815-1.89-19.323-6.169-2.889-1.9-7.166-3.702-9.677-4.079-8.529-1.277-10.957-2.598-15.561-8.463-5.817-7.412-3.874-7.825 3.54-.753 3.657 3.488 6.749 5.605 8.197 5.612 3.619.017 11.62 2.708 14.815 4.983 4.81 3.425 9.8 5.07 18.328 6.042 9.184 1.048 9.337.979 10.232-4.628l.654-4.092-5.852-2.322c-3.219-1.276-6.338-2.688-6.93-3.137-.593-.448-4.27-1.268-8.172-1.821-10.522-1.493-24.251-6.712-24.251-9.22 0-1.239.629-1.054 7.313 2.151 3.403 1.631 9.559 3.483 13.68 4.114 4.121.632 11.096 2.488 15.5 4.126 8.274 3.077 17.14 3.374 25.217.843 1.535-.481 6.278-1.454 10.54-2.161 4.262-.708 7.75-1.788 7.75-2.4 0-1.064-20.625-4.197-21.549-3.274-.231.232 1.485 1.438 3.814 2.681l4.235 2.261-4.251-.591c-2.338-.324-7.219-1.949-10.847-3.611-4.986-2.284-8.998-3.25-16.445-3.959-11.953-1.139-20.1-3.748-29.755-9.53-4.013-2.404-8.851-4.842-10.75-5.418-1.898-.577-4.946-1.498-6.773-2.048s-3.904-1-4.616-1c-2.578 0-10.654-6.929-12.833-11.011-2.395-4.487-2.835-6.989-1.23-6.989.55 0 1 .584 1 1.298 0 .714 2.363 3.77 5.25 6.791 7.023 7.348 21.56 13.452 16.938 7.113-.682-.936-2.813-5.009-4.734-9.05-1.921-4.042-4.878-9.361-6.57-11.82-1.692-2.46-2.865-4.684-2.607-4.942.682-.682 8.279 8.624 11.113 13.613 6.769 11.918 17.128 20.45 30.11 24.8 11.433 3.832 49.869 9.018 56.031 7.561 4.308-1.019 7.469-5.692 7.469-11.042 0-3.751 2.944-6.322 7.238-6.322 9.522 0 11.765-2.449 13.737-15 .648-4.125 1.586-9.3 2.085-11.5.498-2.2 1.09-6.025 1.315-8.5.225-2.475.941-9.946 1.591-16.602 1.392-14.239 1.155-18.883-.966-18.935-.825-.021-2.776-.885-4.335-1.921-2.11-1.402-3.026-1.576-3.58-.679-1.257 2.034-3.707.246-6.4-4.671-2.899-5.294-5.893-7.578-8.748-6.672-1.477.469-1.937.138-1.937-1.394 0-1.104-.45-2.286-1-2.626-1.52-.939-1.194-2.5.521-2.5.837 0 2.024 1.101 2.637 2.448.918 2.014 1.622 2.346 3.979 1.875 1.819-.364 2.863-.155 2.863.573 0 1.584 5.066 9.104 6.133 9.104.477 0 .867-.648.867-1.441 0-2.914 1.86-2.461 3.868.942 2.324 3.939 6.132 4.882 6.132 1.519 0-1.089.616-3.676 1.368-5.75 2.355-6.491 3.741-15.563 2.556-16.729-1.459-1.434-3.924 2.049-3.924 5.543 0 3.341-2.062 4.261-4.976 2.22-1.872-1.311-2.58-1.345-4.68-.221-1.946 1.042-2.834 1.067-4.159.118-.927-.663-2.756-1.666-4.066-2.228-1.309-.563-3.559-1.846-5-2.852-3.628-2.534-8.048-3.508-8.598-1.896m52.876-.479l-13.103.31-1.126 11.722c-.62 6.447-1.378 16.672-1.685 22.722-.308 6.05-.824 12.688-1.149 14.75-.656 4.175.217 4.582 6.095 2.84 1.689-.501 6.221-1.847 10.071-2.992 4.185-1.244 7.134-1.682 7.333-1.09.184.546 1.234.992 2.334.992 2.883 0 1.694-2.438-1.367-2.804-6.429-.768-10.779-24.104-4.515-24.218.668-.012 2.34-.902 3.715-1.978 3.695-2.89 4.714-2.498 7.429 2.86 4.807 9.486 19.001 21.846 22.561 19.646.628-.388 1.01-8.504 1.01-21.44V88.25l-3.125-.625c-1.719-.344-7.231-.527-12.25-.407-5.019.12-15.021.358-22.228.528m-217.926 16.937l-1.768 3.283 8.28 8.017c9.424 9.125 12.534 10.462 8.559 3.679-1.398-2.386-2.542-4.932-2.542-5.659 0-.727-2.421-3.86-5.38-6.963l-5.38-5.64-1.769 3.283m-57.107 6.811c-.552 1.439 7.844 14.943 14.615 23.506 2.734 3.458 2.831-.054.107-3.879-1.053-1.479-2.179-4.473-2.502-6.655-.323-2.181-.294-3.291.064-2.466.688 1.584 2.347 2.959 3.602 2.985 1.432.029.695-3.499-1.25-5.985-1.076-1.375-1.966-3.287-1.978-4.25-.024-1.887-2.502-2.4-3.533-.732-.393.635-1.637.321-3.309-.836-4.665-3.227-5.169-3.374-5.816-1.688m-58.357 4.399c-2.176.606-2.451 1.17-2.169 4.45.498 5.782-3.695 8.944-6.838 5.157-2.859-3.445-3.796-1.68-4.383 8.25-1.946 32.963-1.868 58.611.189 61.935.457.737 6.507 1.217 17.694 1.403 9.35.155 17.45.523 18 .818 2.019 1.082 43.981.867 47.5-.244 9.411-2.97 33.572-24.935 38.458-34.962 3.103-6.37 2.944-7.397-2.046-13.204-1.326-1.544-2.412-3.187-2.412-3.652 0-.464-1.28-.844-2.845-.844-2.842 0-5.319-1.995-6.451-5.196-.465-1.316-1.377-1.569-4.078-1.131-3.874.629-6.608-1.464-9.867-7.551-2.108-3.938-4.088-3.365-2.648.766.545 1.565.856 5.717.69 9.228l-.301 6.384h-3.447c-3.803 0-4.761 1.662-4.953 8.595-.123 4.411-2.681 7.034-5.726 5.872-1.872-.714-6.374-5.875-6.374-7.306 0-2.655-2.187-5.75-3.37-4.769-1.921 1.595-5.572-2.094-9.191-9.288-1.617-3.213-3.614-6.08-4.439-6.372-2.332-.824-6-4.435-6-5.906 0-1.88-2.662-1.649-3.408.296-.462 1.202-1.396 1.467-3.607 1.025-2.765-.553-2.985-.383-2.985 2.305 0 3.056-4.353 7.566-6.201 6.424-1.421-.878-7.221-10.331-8.82-14.376-1.077-2.723-6.591-9.414-7.335-8.9-.079.055-1.266.412-2.637.793m45.6 12.643c-.894.894-1.484 1.926-1.311 2.295.173.368 1.351 2.919 2.618 5.669 3.518 7.637 3.647 7.854 4.907 8.274.654.218 1.179-.536 1.179-1.691 0-3.586 3.327-2.407 5.302 1.88.991 2.151 2.566 4.112 3.5 4.358 1.553.409 1.548.457-.052.563-2.189.145-2.201 1.012-.058 4.143 3.276 4.787 5.308 5.188 5.308 1.046 0-1.946-.586-3.08-1.75-3.384-1.667-.435-1.667-.463 0-.573 2.312-.153 2.208-1.39-.5-5.924a353.599 353.599 0 0 1-3.345-5.707c-.602-1.067-2.168-2.193-3.48-2.503-1.311-.309-3.907-2.57-5.768-5.022-4.03-5.312-4.445-5.529-6.55-3.424m14.866 2.214c1.129 6.092 8.034 16.699 9.086 13.958.449-1.172 1.263-1.333 3.5-.691 1.699.487 3.153.449 3.487-.091.766-1.239-.452-3.102-1.575-2.408-1.162.718-9.119-6.47-8.417-7.605.761-1.231-3.64-6.913-5.353-6.913-1.102 0-1.266.848-.728 3.75M241 127.946c0 .595.558 1.975 1.241 3.068.911 1.458.951 2.451.153 3.736-1.234 1.988 8.003 18.741 9.741 17.666.516-.318.076-1.987-.987-3.745-1.262-2.086-1.658-3.856-1.158-5.171.418-1.1.538-2.38.267-2.845-.271-.465.074-1.905.767-3.2 1.781-3.328-.268-8.06-3.859-8.915a103.918 103.918 0 0 1-4.415-1.155c-.963-.286-1.75-.033-1.75.561M45.065 139.27c-.481 1.226-1.399 4.93-2.04 8.23-2.531 13.024-4.405 18.756-8.175 25.006-3.776 6.262-3.93 6.858-3.93 15.255 0 4.807-.031 10.314-.067 12.239-.103 5.395-.021 5.602 2.694 6.839 3.481 1.586 6.981 1.456 10.556-.392 2.529-1.308 5.522-1.443 18.95-.853l15.947.701v-3.193c0-3.085-.114-3.171-3.376-2.559-7.407 1.389-18.915-6.317-22.945-15.366-4.612-10.357-4.419-17.307.656-23.604l2.359-2.927 2.903 2.006c3.72 2.571 13.037 6.197 16.868 6.564 2.85.273 2.992.091 3.666-4.716 1.565-11.153 1.584-21.492.041-22.773-2.234-1.855-26.165-2.385-26.192-.58-.146 9.952-5.495 25.983-14.467 43.353-9.009 17.441-9.1 12.81-.126-6.358 3.513-7.503 6.98-15.442 7.704-17.642.725-2.2 1.675-4.428 2.113-4.95 1.555-1.856.936-15.282-.734-15.923-.989-.38-1.84.202-2.405 1.643m220.603 5.856c-1.007.585-2.696.838-3.753.562-2.394-.626-6.439 2.505-5.705 4.416.576 1.502 16.064 4.462 17.784 3.4 1.346-.832-.037-6.778-1.913-8.222-1.948-1.501-4.013-1.551-6.413-.156m144.851 17.843c-.374.606-1.049 3.674-1.498 6.817-.45 3.142-1.138 7.402-1.53 9.464-.671 3.524-.563 3.75 1.787 3.75 1.375 0 3.52-.825 4.766-1.834l2.265-1.834-2.26-8.416c-2.515-9.371-2.572-9.498-3.53-7.947m44.981 10.616c-4.4.737-9.919 2.072-12.264 2.966-2.346.894-6.621 2.007-9.5 2.473-11.573 1.872-12.256 2.214-12.046 6.028.104 1.897.301 5.698.436 8.448s-.31 7.888-.989 11.419c-.892 4.633-1.069 13.812-.637 33 .33 14.619.501 28.606.382 31.081-.119 2.475-.168 5.625-.107 7 .06 1.375.288 8.8.505 16.5l.396 14 5.412.694c18.554 2.378 23.569 2.806 32.857 2.806h10.341l-.628-7.75c-.345-4.262-1.067-11.278-1.604-15.589-.693-5.564-.634-9.917.205-15 .664-4.019 1.041-13.522.86-21.661-.591-26.595-.484-45.35.351-61.75l.829-16.25-3.4.122c-1.869.067-6.999.725-11.399 1.463m-45 12.366c-1.65.423-6.6 1.562-11 2.531-4.4.968-8.515 2.172-9.145 2.675-1.151.918-2.417 5.758-2.967 11.343-.163 1.65-.594 4.238-.959 5.75-.813 3.376-.785 3.378 12.162.702 17.965-3.714 18.392-3.957 19.524-11.119 1.788-11.306.142-13.874-7.615-11.882m29.327 6.793c-9.06 7.472-11.617 14.932-8.32 24.275 2.691 7.629 8.949 9.568 12.426 3.85 2.821-4.638 1.56-6.716-2.004-3.301-3.424 3.28-5.493 2.721-7.474-2.022-1.921-4.597-1.841-6.117.584-11.126 4.72-9.751 9.863-11.878 15.117-6.253 7.538 8.07 9.15 20.945 4.298 34.333-6.689 18.459-8.74 25.529-9.211 31.75-.668 8.808 1.031 8.816 2.653.013 1.161-6.302 5.96-22.277 8.04-26.763 1.398-3.015 2.158-8.042 2.728-18.039.709-12.444-1.311-19.416-7.304-25.211-5.147-4.977-7.027-5.223-11.533-1.506M84.31 200.636c-.315.82-.135 2.475.401 3.678.535 1.202.634 3.421.219 4.931-.95 3.459-.587 3.646 5.836 3.015 4.033-.396 5.025-.807 4.239-1.754-1.114-1.343 18.64-2.566 40.495-2.507 14.489.039 22.673-1.803 17.395-3.914-1.867-.747-.741-.979 5.105-1.052 5.468-.068 7.039-.362 5.8-1.085-.936-.546-5.211-.787-9.5-.537-4.29.25-8.389.485-9.109.522-.72.037-1.031.517-.691 1.067.374.605-1.009 1-3.5 1s-3.874-.395-3.5-1c.738-1.194-.704-1.334-2.05-.199-1.675 1.413-21.45.2-21.45-1.315 0-1.861-3.72-2.366-17.309-2.353-9.538.009-11.919.298-12.381 1.503m327.587 8.801c-.816.816-19.399 4.599-29.897 6.087-24.371 3.454-30.393 5.436-31.474 10.358-1.259 5.734.943 7.388 8.974 6.741 8.977-.724 20.375-2.179 28-3.574 3.3-.604 10.506-1.511 16.013-2.014 14.24-1.302 13.621-.841 13.277-9.907-.259-6.804-.51-7.66-2.331-7.92-1.123-.161-2.276-.058-2.562.229m-339.98.949c-.229.213-9.192.624-19.917.915l-19.5.529.047 6.335c.026 3.484.376 13.31.778 21.835s.359 21.918-.095 29.762c-1.062 18.349-.727 21.614 2.139 20.816 10.136-2.822 32.421-5.924 38.886-5.414l4.245.336.5-10.252c.275-5.639.221-10.252-.121-10.25-.341.001-3.941 3.412-8 7.58-7.485 7.687-12.729 10.922-16.014 9.879-3.901-1.238-7.227-8.559-5.001-11.007.475-.523 2.567-4.1 4.647-7.95 5.839-10.805 12.812-20.672 19.495-27.587l6.087-6.3-.174-9.056c-.104-5.406-.627-9.353-1.297-9.792-1.177-.77-5.989-1.043-6.705-.379m27.999 2.998c-.321.34-3.832.667-7.802.727-6.116.094-7.17.361-6.903 1.75.225 1.166 1.837 1.825 5.594 2.285 2.903.355 6.497 1.105 7.986 1.667 3.867 1.458 11.529 2.225 13.02 1.304.759-.469-1.579-1.291-5.837-2.052-3.906-.698-6.918-1.455-6.691-1.681.226-.226 6.31-.535 13.52-.687 12.214-.256 15.436-.791 13.916-2.311-.835-.835-26.069-1.778-26.803-1.002m158.11 3.175c-.087 10.326 20.067 30.399 27.717 27.606 1.984-.725 2.227-1.029.867-1.086-6.942-.29-20.294-12.543-25.611-23.503-2.647-5.456-2.951-5.764-2.973-3.017m145.326 14.466c-3.931.414-10.681 1.452-15 2.308-4.319.855-11.677 2.039-16.352 2.631-11.719 1.484-21.153 2.984-30 4.769-4.125.833-8.4 1.652-9.5 1.821-17.096 2.624-18.5 3.26-18.5 8.38 0 1.136-.816 2.882-1.812 3.879-2.185 2.184-1.743 4.187.924 4.187 1.07 0 7.445-1.093 14.167-2.429 28.146-5.594 75.951-10.267 86.221-8.429 1.844.33 2.023-.266 2.296-7.622.298-8.029-.841-10.82-4.237-10.384-.583.074-4.276.474-8.207.889M393 251.455c-.825.196-6 .876-11.5 1.513-5.5.636-12.025 1.543-14.5 2.014-2.475.472-9.225 1.384-15 2.026-10.647 1.183-21.809 3.246-26.039 4.811-1.963.726-1.481.98 3.108 1.635 6.208.887 61.047.815 77.181-.101l10.75-.61-.035-3.122c-.046-3.98-1.906-7.051-4.465-7.37-4.597-.573-18.113-1.124-19.5-.796m-107.25 14.212c-1.921.527-2.495 5.754-.75 6.833 2.896 1.79-1.718 11.5-5.464 11.5-.6 0-2.568 1.35-4.375 3-3.959 3.616-8.084 3.903-12.359.859-3.112-2.216-9.788-11.776-9.82-14.061-.01-.714-1.796-2.774-3.969-4.578l-3.95-3.28-12.782.28-12.781.28-.294 7.25c-.263 6.497-.101 7.25 1.559 7.25 1.019 0 2.726.661 3.794 1.468 1.067.808 3.179 1.483 4.691 1.5 1.512.018 2.75.431 2.75.918 0 .487-2.939.782-6.532.654-8.482-.302-8.105 1.556.612 3.016 6.633 1.111 11.867 2.613 17.92 5.143 9.592 4.008 17.851 8.105 21.952 10.889 4.196 2.848 5.409 3.136 15.672 3.719l11.123.632.597-17.72c.857-25.409.827-25.684-2.844-25.875-1.65-.086-3.788.059-4.75.323m11.741 20.762c-.496 14.543-.4 22.062.29 22.752.704.704 7.621.717 21.874.04 11.465-.544 29.153-1.061 39.307-1.15 10.154-.089 18.672-.372 18.93-.63 1.054-1.054 1.082-36.621.03-38.586-1.038-1.941-1.751-2.002-17.252-1.474-8.894.302-18.487.831-21.318 1.174-3.79.46-5.769.218-7.5-.915-1.722-1.127-6.538-1.726-17.986-2.236l-15.635-.696-.74 21.721m-174.107-18.745c-1.914.38-2.177 1.3-2.741 9.618-.343 5.059-.794 10.548-1.002 12.198-.207 1.65-.18 2.212.061 1.25.744-2.977 19.389-2.44 30.298.874 4.675 1.42 9.519 2.814 10.765 3.098 1.245.284 2.509.913 2.809 1.397.299.485 1.236.881 2.083.881 1.666 0 16.663 7.057 22.343 10.514 3.236 1.97 4.444 2.087 16 1.558l12.5-.572-.351-9c-.193-4.95-.956-10.77-1.696-12.933-.74-2.163-1.135-4.273-.878-4.688.894-1.447 1.613-8.995 1.064-11.179-.544-2.167-.806-2.197-17.346-2.018-9.236.1-17.146.213-17.578.25-1.666.144 1.458 4.068 3.238 4.068 4.322 0 5.047 1.002 5.047 6.971 0 5.534-.147 5.859-3.786 8.381-7.931 5.496-13.796 6.404-26.069 4.037-6.079-1.172-13.917-12.01-15.108-20.889l-.537-4-8.5-.118c-4.675-.065-9.452.071-10.616.302m259.674 1.207c-1.1 2.057-1.182 31.997-.098 36.05.647 2.421.765 2.444 11.097 2.179 11.347-.292 13.257-1.01 10.572-3.977-.947-1.047-2.652-3.645-3.787-5.774l-3.5-6.566c-.947-1.778-1.335-4.98-1.139-9.396.404-9.106 1.48-9.712 11.266-6.334 8.084 2.79 8.531 2.635 8.531-2.955 0-4.744-1.254-5.118-17.165-5.118-13.458 0-14.854.167-15.777 1.891m-287.308.159c-5.912.302-11.161.977-11.665 1.5-.503.522-1.066 9.275-1.25 19.45l-.335 18.5 5 .662c2.75.365 10.098.702 16.329.75l11.33.088-.563-2.75c-1.012-4.948-.886-11.555.452-23.804 1.613-14.773 1.374-15.623-4.282-15.237-2.346.16-9.103.538-15.016.841M61 289.613c-10.723 1.198-25.156 4.682-27.792 6.709-2.75 2.114.59 2.826 5.422 1.156 6.125-2.117 22.625-4.405 32.061-4.446 6.553-.029 9.565-1.11 7.855-2.819-.765-.766-12.478-1.166-17.546-.6m69.5 1.831c-.55.219-3.138.687-5.75 1.039-2.612.352-4.75 1.062-4.75 1.578 0 .517 2.138.95 4.75.963 7.327.038 24.96 5.13 39.75 11.479 2.97 1.274 18.629 3.701 19.334 2.996C185.053 308.28 168.261 299 164.836 299c-.79 0-1.863-.372-2.386-.826-.935-.813-3.507-1.631-14.488-4.606-5.856-1.587-15.781-2.794-17.462-2.124m89.68 2.773c.268 1.855 1.463 2.484 7.32 3.853 8.145 1.903 14.488 4.349 19.73 7.61 2.916 1.814 5.166 2.32 10.309 2.32 7.762 0 7.675-.569-.722-4.697-21.293-10.469-37.412-14.467-36.637-9.086M55 296.961c-10.337 1.076-22.668 5.011-23.64 7.543-1.859 4.845 12.214 5.97 23.64 1.89 2.475-.883 8.507-2.437 13.403-3.453 9.479-1.967 11.219-2.878 10.261-5.374-.656-1.709-10.618-1.964-23.664-.606m64.702 2.67c-1.977 1.977 1.558 4.104 7.785 4.686 3.617.337 7.562 1.304 8.767 2.148 2.018 1.413 21.989 2.445 20.609 1.065-.258-.259-5.674-2.284-12.035-4.5-11.044-3.848-23.052-5.472-25.126-3.399" fill="#d3d3d3" fill-rule="evenodd"/></svg>