<svg xmlns="http://www.w3.org/2000/svg" width="500" height="670"><path d="M0 335.002v335.002l250.25-.252 250.25-.252.251-334.75L501.003 0H0v335.002m.494.498c0 184.25.115 259.774.256 167.831.141-91.943.141-242.693 0-335C.609 76.024.494 151.25.494 335.5M286.808 64.967c-14.131.872-25.927 1.819-26.213 2.105-.489.489-1.121 5.149-5.053 37.272-.865 7.064-2.075 13.784-2.69 14.932-1.198 2.238-3.042 24.489-4.801 57.925-.777 14.763-.788 31.769-.039 59.278 1.016 37.314 1.146 38.974 3.967 50.767 1.604 6.706 2.76 12.348 2.57 12.539-.809.808-12.231-18.954-15.246-26.379-4.746-11.687-5.524-20.915-5.826-69.079-.145-23.195-.578-42.682-.962-43.303-.414-.67-3.107 2.4-6.611 7.534-7.719 11.312-8.95 12.878-31.405 39.942-10.496 12.65-20.682 25.025-22.636 27.5-3.258 4.125-8.813 15.448-33.363 68-8.571 18.348-8.655 18.606-10.265 31.38-2.553 20.252-.063 62.564 6.273 106.62.83 5.775 2.142 16.575 2.915 24 2.683 25.77 9.609 79.493 11.796 91.5 1.916 10.513 12.965 52.018 14.169 53.222.519.518 8.16-.824 9.537-1.676 1.363-.842 7.295-24.384 9.5-37.701.806-4.865 2.156-12.67 3.001-17.345.911-5.039 1.545-14.391 1.556-22.966l.018-14.466 5.25 5.115c6.981 6.802 38.663 33.205 41.439 34.534 2.728 1.307 15.483-6.899 24.665-15.868l5.855-5.719-.688-9.565c-1.104-15.375-1.359-79.829-.35-88.565 4.892-42.341 6.391-46.646 36.014-103.5a19648.07 19648.07 0 0 0 14.558-28c3.852-7.425 10.21-19.646 14.131-27.157l7.128-13.657-5.503-45.013c-6.224-50.912-9.358-80.943-12.991-124.465-1.382-16.562-2.849-30.385-3.26-30.719-.412-.333-12.31.107-26.44.978" fill="#d3d3d3" fill-rule="evenodd"/></svg>