<svg xmlns="http://www.w3.org/2000/svg" width="500" height="375"><path d="M0 1c0 .55.563 1.007 1.25 1.015.987.012.983.185-.016.819-.983.624-1.207 6.956-1 28.235L.5 58.5l9.223-8.905 9.224-8.905.276-14.095L19.5 12.5l13-.262c16.295-.328 16.629-.441 12.909-4.365L42.5 4.804l10.5.59c5.775.325 23.1.864 38.5 1.2 15.4.335 30.362.73 33.25.878 3.91.2 5.25-.081 5.25-1.102 0-.753.45-1.37 1-1.37s.887.562.75 1.25c-.188.942 3.075 1.304 13.25 1.471 29.57.483 63.57 1.448 64.793 1.837.95.303 1.022.918.274 2.317-.83 1.552-.635 2.005 1.053 2.446 2.81.735 4.899-.198 5.781-2.582.699-1.891 1.64-1.977 20.166-1.851 26.282.178 41.341 1.104 39.987 2.458-1.816 1.816-1.165 2.654 2.063 2.654 2.624 0 3.034-.316 2.593-2-.483-1.846-.03-2 5.884-2 4.45 0 6.411-.382 6.421-1.25.012-.926.208-.947.758-.083.53.833 11.165 1.357 37.235 1.834 20.07.367 41.667.826 47.992 1.021 6.325.195 23.832.382 38.905.416 26.484.06 27.349.123 25.75 1.891C441.926 17.844 442.483 18 456 18h13l.191 26.25c.118 16.144.407 22.675.75 16.964l.559-9.286 6.459 6.523 6.458 6.524 2.923-2.738 2.923-2.737-.622 21c-.342 11.55-1.128 39.9-1.746 63-.778 29.075-1.473 42.237-2.259 42.77-.625.424-2.883.649-5.018.5-5.288-.368-7.254 2.423-3.739 5.308 1.588 1.303 2.764 1.633 3.534.994.678-.562 1.74-.596 2.573-.081.78.482 1.847.612 2.371.288.602-.372.714 13.194.303 36.816-.357 20.573-.896 55.405-1.196 77.405-.3 22-.771 41.856-1.047 44.124l-.502 4.124-7.707.609c-4.24.335-10.288.897-13.441 1.249l-5.734.639-11.692-11.628-11.693-11.627 8.65-8.84c16.312-16.67 17.774-27.973 6.785-52.466l-2.845-6.339 3.791-5.64c7.779-11.572 7.778-34.095-.002-42.446-1.115-1.196-2.027-3.349-2.027-4.783 0-5.514-1.404-6.476-9.453-6.476-10.874 0-10.547-.325-10.547 10.5 0 10.069-.245 10.5-5.975 10.5-3.411 0-4.025-1.362-4.025-8.931 0-3.172-.295-9.263-.657-13.535-.644-7.618-.72-7.793-3.967-9.15-1.822-.761-3.551-1.384-3.844-1.384-.293 0-.532 7.012-.532 15.583 0 12.022-.286 15.489-1.25 15.168-.687-.229-1.294-1.539-1.349-2.912-.209-5.301-1.568-7.793-6.506-11.927l-5.117-4.284.672-6.814.671-6.814h-5.06c-4.686 0-5.061.179-5.061 2.418 0 5.021-.82 5.621-4.618 3.38-5.969-3.522-12.847-2.18-17.867 3.485l-4.015 4.531-4.454-3.86c-5.034-4.362-5.882-4.155-9.139 2.227-2.499 4.899-1.806 7.638 3.62 14.299l4.241 5.207-2.043 7.657c-2.347 8.796-1.691 8.512-14.998 6.486-9.273-1.411-9.462-1.29-11.236 7.214-1.264 6.059-1.234 6.304 1.058 8.596 2.144 2.144 3.218 2.36 11.714 2.36h9.354l1.613 6.745c.888 3.709 1.473 6.885 1.301 7.057-.172.173-4.525.573-9.672.891-11.087.683-11.423.889-12.875 7.884-1.241 5.977-2.405 6.878-3.451 2.673-.844-3.392-5.809-11.618-9.705-16.081-1.6-1.832-3.601-5.06-4.446-7.173-1.868-4.667-2.912-5.144-7.679-3.505-2.037.7-3.703 1.075-3.703.832 0-.732 14.015-17.317 21.2-25.088 3.694-3.995 9.049-10.745 11.9-15 2.851-4.254 7.088-10.435 9.416-13.735 10.533-14.931 10.511-15.078-4.766-31.129-21.407-22.492-47.15-54.859-59.254-74.501-8.926-14.483-17.029-26.033-20.884-29.765-3.287-3.183-3.821-3.359-8.501-2.805-12.228 1.449-46.249 16.456-70.19 30.963-5.731 3.473-15.976 9.393-22.765 13.155-6.79 3.762-13.516 7.848-14.947 9.079-3.066 2.637-2.915-1.067-1.772 43.419l.859 33.417 8.832 13.02c4.857 7.161 8.728 13.101 8.602 13.2-.127.098-5.405-.393-11.73-1.092-6.325-.7-11.862-.93-12.304-.512-.443.418-.668 3.413-.5 6.655.392 7.595 2.043 8.258 20.804 8.348l13.5.065 3.75 5.822c2.063 3.201 3.75 6.013 3.75 6.248 0 .235-3.643.262-8.096.06-22.02-1-27.426.87-28.638 9.904l-.553 4.127 18.393-.695c14.935-.564 18.981-1.03 21.518-2.481l3.125-1.786 6.117 8.827c5.296 7.642 5.874 8.905 4.303 9.403-2.174.69-8.809 11.564-10.21 16.733l-.998 3.679-15.886-.179c-15.551-.175-15.941-.128-18.481 2.245-3.315 3.099-3.486 7.528-.354 9.205 3.163 1.692 20.366 2.341 25.457.961 2.309-.627 5.524-2.465 7.145-4.085l2.946-2.947.646 3.442c.814 4.338 3.852 6.5 9.134 6.5 5.531 0 7.006-1.875 9.503-12.086 2.946-12.047 2.65-11.476 4.9-9.44 1.061.96 6.441 7.902 11.957 15.427 5.515 7.525 11.406 15.003 13.091 16.617l3.063 2.935 4.709-2.477c5.859-3.081 24.842-21.371 36.602-35.266 8.263-9.763 8.966-10.351 10.521-8.796.916.916 4.348 2.259 7.626 2.985 3.278.725 6.523 1.481 7.21 1.679 1.542.443 1.662 11.922.191 18.303-.711 3.083-.677 5.39.115 7.79 1.07 3.242.929 3.621-2.88 7.754-2.204 2.391-4.673 5.636-5.489 7.213-.815 1.577-2.492 3.766-3.726 4.864-5.507 4.904-7.312 13.51-3.776 18.006l2.184 2.777 12.288-.657c17.698-.946 19.278-1.979 20.851-13.628.472-3.491 1.605-6.526 3.102-8.309 1.939-2.307 2.331-3.835 2.201-8.564-.24-8.685 2.341-11.066 3.654-3.372 1.041 6.092 6.807 13.022 13.315 16.002 3.097 1.418 6.703 3.852 8.014 5.41 2.668 3.171 3.83 3.451 6.127 1.476 1.301-1.118 7.046-1.216 32.579-.555 42.394 1.097 38.668.269 50.325 11.186 5.321 4.983 9.825 9.435 10.008 9.893.184.458-10.166.841-23 .85-12.833.009-63.608.176-112.833.37s-86.324.169-82.442-.057c6.513-.378 7.189-.631 8.75-3.274 3.063-5.186.447-13.058-5.032-15.141-3.358-1.277-9.788.551-11.739 3.336-1.849 2.64-2.085 12.801-.337 14.549.933.933-.09 1.2-4.607 1.2-5.153 0-5.721-.197-5.048-1.75 2.618-6.032.264-13.651-4.987-16.145-6.409-3.045-16.063 5.491-15.253 13.488l.414 4.093-34.11.663c-18.76.365-38.496.952-43.859 1.304-6.924.455-9.75.315-9.75-.482 0-.775 5.192-1.208 16.75-1.397l16.75-.274v-28.168c0-15.492-.257-28.424-.571-28.738-.775-.772-22.121 3.874-64.532 14.048l-15.103 3.623-.695 18.117c-.841 21.901-.982 22.618-4.457 22.619l-2.642.001.66-11.751c.364-6.463.701-15.387.75-19.83l.09-8.08-10.852 2.521-10.852 2.52-1.898 17.059c-1.81 16.265-2.003 17.074-4.148 17.379-2.052.291-2.25-.084-2.25-4.25V351h-8.094c-7.252 0-8.148.208-8.616 2-.288 1.1-.921 2-1.407 2C.398 355 0 359.552 0 365.117v10.116l2.75-.685c1.513-.377 15.8-.885 31.75-1.129 15.95-.245 38.45-.643 50-.885 11.55-.242 23.175-.437 25.833-.434 2.659.004 5.506-.551 6.327-1.232 1.199-.996 1.674-.957 2.416.196.798 1.24 1.06 1.231 1.924-.064.627-.941 1.279-1.127 1.75-.5.413.55 5.025 1.005 10.25 1.012 21.653.028 164.05 1.553 209.5 2.243 26.95.41 73.407.745 103.237.745h54.237l.263-187.255L500.5-.011 252.32.034C59.087.069 4.031.347 3.649 1.29c-.373.92-.51.91-.57-.04C2.986-.223 0-.466 0 1m60 12.059c0 .582-.522.736-1.16.342-.865-.534-.994 1.427-.506 7.691.36 4.624.665 16.508.678 26.408l.024 18 36.732 13.917c20.203 7.655 37.295 14.116 37.982 14.357.986.347 1.25-7.882 1.25-39.009V15.316l-18.16-.658C106.852 14.296 93.153 14 86.399 14c-7.109 0-12.541-.421-12.899-1-.841-1.361-13.5-1.305-13.5.059M27 24.316c0 6.257.292 15.488.649 20.514l.648 9.137 10.102 3.885c5.555 2.137 11.121 4.203 12.369 4.59l2.267.704-.267-24.823L52.5 13.5l-12.75-.28L27 12.94v11.376M447.961 54.75c-1.969 2.48-2.137 3.603-1.702 11.432l.482 8.683-2.832 1.173c-6.956 2.881-16.878 17.453-16.899 24.819-.008 2.802-.299 3.238-1.76 2.64-.962-.395-3.775-.934-6.25-1.197-2.475-.264-6.413-1.176-8.75-2.026-3.915-1.424-4.253-1.831-4.294-5.16-.063-5.223-2.132-10.271-6.284-15.338C396.089 75.402 387.767 70 384.615 70c-1.241 0-1.615-1.015-1.615-4.375 0-2.406-.281-5.781-.625-7.5L381.75 55H359v16.883l-5.75 3.07c-15.005 8.013-21.252 15.992-23.646 30.2-1.455 8.634-2.246 9.046-16.513 8.606l-8.41-.259-1.264 3.5c-2.608 7.217-2.996 7 12.516 7 15.307 0 14.111-.515 15.561 6.701 2.111 10.501 14.268 21.922 30.506 28.656 18.622 7.725 34.317 8.632 55.482 3.209 17.805-4.563 29.556-12.965 35.169-25.147 6.477-14.059 2.234-22.993-14.247-29.997-7.275-3.092-7.439-3.539-4.308-11.722 3.461-9.044 7.329-12.973 11.995-12.185 3.286.556 4.215.27 6.478-1.993 2.817-2.817 2.817-2.749.025-12.522-2.085-7.301-1.995-10.22.406-13.273 2.571-3.268 2.518-3.727-.427-3.727-1.452 0-3.306 1.105-4.612 2.75m19.697 55.5c-.361 20.488-.832 71.225-1.046 112.75l-.39 75.5.741-61.5c.407-33.825 1.103-84.562 1.546-112.75.442-28.187.58-51.25.305-51.25-.275 0-.795 16.762-1.156 37.25M20 170.407V201l34.25.004c18.838.002 39.987.297 47 .654l12.75.651V144l-3.25-.002c-5.588-.004-71.777-2.89-81.5-3.553l-9.25-.632v30.594m264.039-4.657c-4.067 4.91-4.542 7.165-3.02 14.34 2.011 9.475 4.093 8.794 10.436-3.413 4.138-7.963 4.363-10.174 1.295-12.733-3.321-2.771-5.251-2.371-8.711 1.806m-71.896 6.14c-1.639 1.039-.847 4.247 2.166 8.769 1.816 2.726 2.26 2.945 3.242 1.602.855-1.169 1.861-1.35 4.043-.728 2.612.744 2.683.866.703 1.211-2.019.351-4.122 3.765-3.006 4.88 1.279 1.28 8.977.782 9.665-.624a230.33 230.33 0 0 1 1.889-3.736c2.719-5.265 1.496-6.622-9.252-10.263-6.596-2.235-7.507-2.342-9.45-1.111m31.12.948c-1.609.994-1.024 7.351.954 10.37 1.668 2.547 1.659 2.567-1.519 3.207-2.527.51-2.883.848-1.698 1.613 2.355 1.52 13-1.107 13-3.208 0-.516.441-.666.979-.333 1.344.831 9.021-1.563 9.021-2.812 0-.555-.296-.712-.658-.35-.362.362-1.262.156-2-.456-.898-.745-1.342-.766-1.342-.063 0 1.199-14.383 1.144-15.586-.059-.411-.411.34-.754 1.669-.762 1.833-.012 2.071-.235.986-.921-1.051-.665-.388-1.101 2.5-1.641 2.162-.404 5.281-1.364 6.931-2.132l3-1.397-3.5.624c-7.325 1.305-8.474 1.241-10.036-.559-.866-1-2.082-1.504-2.701-1.121m-89.262 1.285C148.38 176.365 142 185.851 142 191.967c0 4.823 2.429 3.7 8.037-3.717 2.807-3.713 6.197-7.327 7.534-8.032 1.739-.918 2.429-2.125 2.429-4.25 0-3.235-1.419-3.671-5.999-1.845m152.859 6.627c-10.62 9.988-26.099 27.412-25.169 28.332.445.441 6.884 3.54 14.309 6.886 7.425 3.347 14.873 6.771 16.552 7.609 5.136 2.566 12.399-2.632 16.884-12.083 2.188-4.612 2.026-15.879-.302-21.004-2.316-5.099-11.747-16.49-13.652-16.49-.794 0-4.674 3.037-8.622 6.75m-118.245 7.716c-2.136 2.983-4.498 5.659-5.248 5.947-3.212 1.232-.74 8.322 6.418 18.402 4.5 6.338 5.832 6.772 6.715 2.185.249-1.294.914-2.638 1.478-2.986.564-.349 1.199-2.438 1.411-4.643.61-6.334 4.063-12.172 7.767-13.132 4.669-1.209 5.499-4.522 2.003-7.988-3.72-3.687-4.684-3.726-7.13-.292l-2.081 2.923-3.008-2.941c-3.884-3.797-3.772-3.831-8.325 2.525M168 191.349c0 1.842-.285 6.724-.634 10.848l-.634 7.498 4.884 1.198c2.686.658 5.716 1.447 6.733 1.751 2.323.695 1.998-.449-4.089-14.394-4.692-10.748-6.26-12.477-6.26-6.901m105.977 25.065c-4.52 5.987-5.498 6.586-10.754 6.586-2.556 0-4.432.784-6.409 2.678l-2.796 2.679 11.093 5.921c6.355 3.392 14.147 6.676 18.241 7.688 3.931.972 7.932 2.099 8.89 2.504 1.221.517 1.943.184 2.416-1.116.919-2.528 11.073-12.902 15.176-15.505l3.334-2.116-8.834-3.713c-4.859-2.042-12.085-5.357-16.059-7.366-9.265-4.686-9.448-4.663-14.298 1.76m-46.696 3.043l-3.219 3.424 2.124 5.111 2.124 5.112 3.845-3.755c4.546-4.439 4.688-5.784 1.068-10.082l-2.723-3.234-3.219 3.424m-32.74 1.477c-.318.514 3.083 7.826 7.557 16.25s10.557 20.145 13.517 26.047l5.382 10.73-2.498 6.639c-1.375 3.651-2.499 7.365-2.499 8.253 0 2.489 13.279 24.061 15.2 24.692 3.379 1.11 15.8-7.35 15.8-10.762 0-1.035.651-3.141 1.446-4.679.796-1.539 1.219-3.671.94-4.738-.551-2.105 10.26-13.098 15.593-15.855 2.478-1.282 4.627-4.238 3.732-5.134-.185-.184-4.583-.98-9.774-1.768-5.19-.787-14.53-2.205-20.756-3.152-8.421-1.279-11.608-1.43-12.45-.588-1.942 1.942-2.398 1.417-8.779-10.119-7.884-14.253-21.04-36.75-21.491-36.75-.189 0-.603.42-.92.934m-14.844 1.702c-1.372 1.373-.712 13.433.912 16.664 1.912 3.804 9.316 11.7 10.971 11.7.641 0 1.45-1.788 1.8-3.973.554-3.464.051-5.032-3.924-12.25-4.729-8.584-8.555-13.344-9.759-12.141m267.134 14.375c.475 11.823-.56 15.158-5.423 17.466-3.955 1.876-4.01 2.09-1.522 5.864l1.873 2.841 2.661-3.488c1.463-1.919 3.109-4.997 3.658-6.841 1.084-3.646 1.413-23.249.417-24.861-1.594-2.579-2.034-.195-1.664 9.019m-197.308-4.036c-1.732 1.913-1.704 2.006.91 3 1.484.564 3.343 1.025 4.132 1.025 2.799 0 1.289 1.753-11.565 13.424-7.15 6.492-13 12.109-13 12.483 0 1.182 10.979 3.043 24.979 4.233 7.437.632 13.849 1.435 14.25 1.784.883.768 13.771-11.192 13.771-12.779 0-.616 1.694-2.189 3.765-3.496 7.368-4.652 7.235-5.101-2.408-8.108-4.776-1.489-13.851-5.145-20.167-8.124-13.186-6.22-12.334-6.02-14.667-3.442M392.67 259.75c-.905 1.801-1.111 3.721-.595 5.564 1.551 5.549 1.982 5.686 17.847 5.686 9.186 0 15.083.405 15.759 1.081 1.084 1.084 6.284-1.023 10.704-4.338 1.787-1.34 1.693-1.532-1.803-3.692-3.813-2.357-4.36-4.073-.668-2.097 2.478 1.326 2.672.327.529-2.731-1.506-2.151-7.246-3.332-5.943-1.223.34.55.168 1-.382 1s-1.278-.45-1.618-1c-.37-.599-7.002-1-16.533-1h-15.916l-1.381 2.75m-256.261 14.621c-.972 3.082-1.524 5.847-1.228 6.144.674.674 19.227 2.232 31.7 2.662l9.382.323 2.011-5.274c1.107-2.9 1.812-5.473 1.567-5.718-.244-.244-7.621-.916-16.392-1.493-8.772-.577-18.047-1.319-20.611-1.649l-4.662-.6-1.767 5.605m296.591.175c-2.475 1.317-4.882 2.535-5.349 2.707-.467.172-.525 2.906-.129 6.076.68 5.445.818 5.673 2.5 4.151 2.312-2.092 3.684-.169 2.054 2.878-.975 1.821-.695 3.019 1.745 7.482 2.397 4.382 3.041 4.993 3.674 3.487 1.118-2.661 1.924-29.341.883-29.251-.483.042-2.903 1.153-5.378 2.47m7.681 6.943c.333 3.569.049 10.566-.632 15.55-1.211 8.858-1.186 9.138 1.106 12.504 2.913 4.277 3.086 4.273 5.184-.128 3.931-8.243 3.344-16.307-2.086-28.665-3.287-7.483-4.32-7.269-3.572.739m-90.181 7.235c-2.99.735-4.396 2.166-7.585 7.727-3.593 6.263-3.821 9.544-.665 9.561 1.238.007 4.208 1.132 6.602 2.5 5.63 3.219 5.526 3.265 4.784-2.154-.741-5.403.55-11.054 3.335-14.594 2.78-3.534.292-4.703-6.471-3.04m55.171 2.526c1.284 5.033.711 15.77-1.106 20.735-1.766 4.822-.404 7.523 3.416 6.775 2.778-.544 1.157-30.76-1.65-30.76-1.184 0-1.32.667-.66 3.25m-135.153 7c-13.8 9.043-11.92 23.939 2.489 19.729 1.921-.561 4.988-1.22 6.816-1.463 7.359-.981 13.19-7.345 11.801-12.88-2.204-8.781-12.079-11.301-21.106-5.386m158.82 7.247c.364 5.948.676 12.432.694 14.409.03 3.377.12 3.477 1.5 1.653 1.035-1.368 1.459-1.516 1.436-.5-.017.792-.692 2.315-1.5 3.382-.807 1.068-1.468 2.624-1.468 3.458 0 1.641 7.711-5.389 11.18-10.193l2.018-2.793-2.317-3.381c-1.274-1.86-2.668-3.163-3.099-2.898-.43.266-.782-.024-.782-.645s-1.35-3.091-3-5.489c-1.65-2.398-3-4.815-3-5.371s-.523-1.334-1.162-1.729c-.87-.538-.995 1.997-.5 10.097m-232.838 6.53c-2.2.472-7.241.884-11.203.915-8.394.068-11.896 1.381-13.872 5.203-2.342 4.528-1.806 9.397 1.431 13.02l2.856 3.197 10.003-1.324c9.786-1.296 10.092-1.275 14.064.958 6.066 3.409 12.492 2.467 17.042-2.497 3.916-4.274 3.869-6.862-.244-13.377-3.397-5.381-11.679-7.895-20.077-6.095m49.857 12.965c-7.929 3.199-6.753 16.389 1.918 21.511 8.499 5.021 20.885-6.407 16.004-14.765-3.756-6.431-11.489-9.342-17.922-6.746" fill="#d3d3d3" fill-rule="evenodd"/></svg>