<svg xmlns="http://www.w3.org/2000/svg" width="500" height="281"><path d="M13.186 4.661c-4.283 5.874-3.487 6.677 1.195 1.207L18 1.64l.081 2.93c.104 3.756.57 6.94 1.746 11.93l.943 4 .115-3.872c.145-4.867 2.059-3.704 4.791 2.909C27.365 23.624 27.834 24 32 24.614c2.475.365 4.831 1.164 5.235 1.775.477.722.74.743.75.059.01-.706 2.236-.805 6.765-.301 3.712.413 7.321.773 8.018.802.996.04 1.173 4.299.822 19.801l-.446 19.75.971-18.5c1.176-22.39.699-20.794 6.006-20.08l4.314.58-.261 5c-.796 15.278-5.367 87.846-6.198 98.395-.537 6.818-.994 13.793-1.015 15.5l-.039 3.105-1.373-3.155c-.755-1.735-2.312-3.452-3.461-3.817-1.49-.473-2.131-1.573-2.238-3.845-.141-2.992-.175-3.019-.564-.455-.236 1.55-1.671 3.622-3.325 4.8-1.71 1.218-3.399 3.701-4.094 6.022-1.369 4.568-3.545 5.197-4.151 1.2-.387-2.56-.427-2.525-.566.5-.116 2.518.255 3.25 1.649 3.25 1.137 0 2.25 1.247 3.025 3.39 2.224 6.151 10.047 5.556 12.774-.97 1.526-3.652 2.05-3.94 4.402-2.42 1.213.784 1.069.972-.75.985-1.577.01-2.25.612-2.25 2.011 0 3.3-4.928 76.01-5.614 82.839l-.637 6.335 8.875-.618c8.201-.571 36.706-1.393 163.117-4.7l47.24-1.236.434-3.058c.4-2.825 1.392-22.946 5.103-103.558 2.865-62.244 2.351-56.39 5.072-57.675 2.145-1.012 2.422-.9 2.52 1.019.12 2.35 1.704-3.627 7.227-27.264 1.982-8.481 4.021-15.838 4.531-16.348C294.919 32.681 303 45.58 303 48.308c0 .931.663 1.692 1.474 1.692 2.491 0 4.93 5.799 3.344 7.949-11.387 15.435-14.303 18.766-18.922 21.615l-5.107 3.15 4.855.622c17.007 2.175 20.992 2.067 25.711-.698 2.476-1.451 5.024-2.638 5.663-2.638 1.427 0 4.903-4.038 4.949-5.75.018-.687.483-1.25 1.033-1.25.575 0 .941-2.656.86-6.25-.077-3.437.404-8.275 1.07-10.75 3.389-12.596 7.265-23.997 8.005-23.54.846.523 12.798 20.628 13.294 22.362.149.522-2.591 5.03-6.089 10.017-5.83 8.31-6.588 9.021-9.084 8.522-2.311-.462-3.373.191-6.995 4.297L322.79 82.5l6.655.873 6.655.873-.708 55.877c-.423 33.33-.342 55.89.2 55.908 21.95.758 119 1.639 121.027 1.098l2.881-.768.645-13.93c.355-7.662.929-20.456 1.275-28.431.594-13.678 1.907-37.743 3.412-62.5l.668-11 9-3.185c4.986-1.765 11.118-3.214 13.75-3.25 4.58-.063 4.75-.171 4.75-3.02 0-2.58.44-3.037 3.469-3.605l3.469-.651.281-11.645c.155-6.404.152-21.432-.006-33.394L499.926 0h-88.559c-86.768 0-88.615.04-91.349 1.987-2.785 1.984-2.792 1.984-3.311 0C316.242.209 315.329 0 308.035 0c-4.777 0-7.915.385-7.578.931 1.018 1.646-1.244 2.139-2.778.605-1.53-1.53-9.008-1.878-8.08-.375.286.461.069.839-.481.839s-1.278-.45-1.618-1c-1.193-1.93-77.508-1.302-79.671.655-1.006.91-1.829 1.188-1.829.617 0-1.622-4.027-2.272-6.09-.984-1.425.89-2.146.876-3.085-.063C195.348-.252 183-.453 183 1c0 .55-1.096 1-2.435 1-4.507 0-7.84 1.842-7.271 4.018.688 2.629-.974 2.564-1.811-.071-.552-1.74-.892-1.854-2.233-.75-1.39 1.145-1.502.984-.925-1.333.54-2.17.26-2.742-1.585-3.236-3.63-.973-6.537-.718-7.078.622-.403 1-.52 1-.583 0-.06-.945-4-1.25-16.138-1.25-10.451 0-15.843.349-15.441 1 .34.55 1.518 1 2.618 1 1.257 0 1.735.429 1.287 1.155-.475.768-.271.88.61.335.975-.602 1.148-.356.655.928-.369.96-.67 1.934-.67 2.164 0 1.165-3.34.179-5.17-1.526-1.754-1.634-2.301-1.728-3.44-.589C122.043 5.814 118 5.464 118 4c0-.422.9-1.002 2-1.29 1.1-.287 2-1.015 2-1.616 0-1.662-2.782-1.306-3.783.483C117.266 3.276 110 2.668 110 .889 110 .4 106.823 0 102.941 0c-3.985 0-6.814.396-6.497.91.906 1.466-.492 4.009-1.906 3.466-.712-.273-1.238-1.257-1.167-2.186C93.469.911 92.528.423 89.5.183c-3.221-.255-3.757-.07-2.75.95.688.697 1.25 1.601 1.25 2.01 0 1.095-4.436.05-4.832-1.139-.186-.559-.82-.719-1.408-.356-.632.391-.777.189-.355-.493C81.92.321 80.018 0 74.559 0c-7.168 0-7.56.116-7.574 2.25-.012 1.651-.245 1.887-.879.887-.729-1.151-.951-1.151-1.422 0-.459 1.121-.791 1.096-1.871-.145-.722-.829-2.326-1.36-3.563-1.18-1.237.18-2.25-.132-2.25-.692C57 .46 49.847.103 36.75.108L16.5.116l-3.314 4.545M484.212 78.14l-6.288 1.954.523 11.203c.288 6.162.768 21.103 1.066 33.203.298 12.1.814 25.42 1.146 29.599.577 7.261.504 7.625-1.628 8.183-1.329.347-1.949 1.041-1.533 1.715.384.622 1.066 5.413 1.514 10.647.449 5.235 1.095 9.797 1.437 10.138.342.342 3.552.925 7.135 1.296 6.371.659 9.899 2.777 9.032 5.422-.18.55.481 2.8 1.469 5 1.77 3.941 1.794 3.533 1.555-27.5-.253-32.818-3.87-89.245-5.881-91.75-1.254-1.562-1.823-1.509-9.547.89m-13.699 18.61c1.818 39.398 3.318 63.409 4.001 64.047.415.387.475-7.172.134-16.797-.342-9.625-.92-27.512-1.285-39.75-.546-18.346-.914-22.25-2.097-22.25-1.211 0-1.328 2.292-.753 14.75" fill="#d3d3d3" fill-rule="evenodd"/></svg>