<svg xmlns="http://www.w3.org/2000/svg" width="500" height="889"><path d="M460.5 195.051c-7.7.388-17.825.812-22.5.943-4.675.131-7.712.444-6.75.695 2.138.559 2.327 2.311.25 2.311-.825 0-1.5.353-1.5.784 0 1.969-6.715 4.566-12.189 4.716-3.191.087-5.962.348-6.157.579-.533.633-2.774 9.203-2.855 10.921-.04.825-.547 2.1-1.127 2.834-1.308 1.652-1.564 7.07-.446 9.406.536 1.119.286 2.574-.7 4.08-.843 1.287-1.231 2.641-.863 3.01.369.368.235.67-.296.67-.532 0-1.507-.54-2.167-1.2-.66-.66-1.256-.885-1.325-.5-.463 2.591-.231 3.348 1.387 4.535 1.165.856 1.601 2.023 1.211 3.25-.334 1.053-.17 1.915.364 1.915.561 0 .74 1.735.423 4.101-.312 2.324-.109 4.383.469 4.75 1.277.813 2.744 7.259 1.607 7.059-2.252-.396-4.388.197-3.849 1.069.332.538-.429 2.393-1.691 4.122-2.089 2.859-2.147 3.239-.644 4.204 1.484.953 1.406 1.255-.759 2.958-1.327 1.044-2.18 2.273-1.896 2.732.283.459.006 1.004-.616 1.211-.622.208-1.131 1.57-1.131 3.027 0 3.109-.972 3.629-6.028 3.228-3.718-.295-7.32 1.763-6.215 3.551.289.467.068 1.132-.491 1.478-.559.345-1.016.103-1.016-.538s-.613-.931-1.363-.643c-1.03.395-1.308-.447-1.139-3.447.17-2.998-.109-3.842-1.137-3.447-.748.287-1.361.086-1.361-.446 0-.533.86-.969 1.912-.969 1.656 0 2.002-1.111 1.165-3.74-.392-1.229-4.077 3.738-4.077 5.494 0 3.26-2.158 3.7-6.904 1.407-2.253-1.089-4.096-1.544-4.096-1.011 0 .532-.486.668-1.08.301-.594-.367-1.744.281-2.557 1.441-.812 1.159-2.126 2.108-2.92 2.108s-1.45.788-1.458 1.75c-.01 1.134-.275 1.342-.753.592-.813-1.279-7.696-2.888-10.542-2.465-1.714.255-1.777-.867-1.204-21.304.412-14.723.272-21.573-.441-21.573a1.055 1.055 0 0 1-1.045-1.059c0-.582.422-.798.938-.48.53.328.912-1.259.879-3.651l-.059-4.23-2.379 2.766c-2.398 2.788-3.232 5.299-1.379 4.154.55-.34 1 .084 1 .941s-.337 1.592-.75 1.633c-.413.041-1.762.263-3 .494-1.547.288-2.25-.065-2.25-1.133 0-.854-.419-1.294-.931-.978-.512.317-1.196.146-1.521-.379-.325-.525.166-1.378 1.091-1.896 2.079-1.163 2.258-10.01.228-11.264-1.506-.931-1.37-1.081 2.483-2.74 1.567-.674 3.082-2.115 3.367-3.202.284-1.087 1.026-1.983 1.65-1.991.623-.009.458-.452-.367-.985-2.037-1.317-9-1.261-9 .071 0 .59-.707.365-1.571-.5-.865-.864-1.877-1.602-2.25-1.64-.374-.038-2.029-.305-3.679-.594-5.173-.907-8.712-.611-9.607.801-.963 1.521-1.267.291-.942-3.81.133-1.686-.259-2.06-1.752-1.67-1.352.354-2.085-.115-2.468-1.577-.339-1.3-1.357-2.081-2.709-2.081-3.85 0-5.437-2.584-2.781-4.525 2.449-1.79 7.519-1.791-71.741.024-11.55.265-35.4.79-53 1.169-17.6.378-31.213.865-30.25 1.083 3.729.843-.18 4.687-4.02 3.953-2.883-.551-7.392 1.309-10.868 4.482-1.177 1.074-2.752 1.868-3.5 1.765-2.312-.319-5.427.18-4.218.676.629.258.915 1.342.636 2.41-.279 1.067-.976 1.651-1.548 1.297-.574-.354-.745-.164-.382.424.724 1.171-3.239 1.047-5.196-.163-.684-.422-1.154-.078-1.154.846 0 .907-.861 1.559-2.059 1.559-1.302 0-1.797.425-1.346 1.155.473.763.271.88-.595.345-.876-.541-1.068-.419-.58.37.401.649.358 1.098-.096.999-2.513-.552-6.807 2.75-6.49 4.992.205 1.446-.069 2.112-.706 1.718-.572-.354-.785-1.309-.473-2.122.418-1.09.099-1.3-1.208-.798-1.164.447-1.541.302-1.095-.42.374-.605.254-1.364-.267-1.686-.521-.322-1.229-.128-1.575.431-1.036 1.677-2.497 1.145-1.805-.658.478-1.246.233-1.516-.958-1.059-.881.338-2.139-.034-2.796-.826-.658-.793-2.866-1.441-4.907-1.441-2.263 0-3.739-.488-3.784-1.25-.489-8.321-2.002-10.761-5.509-8.884-1.859.995-2.984.935-5.988-.321-2.034-.85-5.481-1.545-7.659-1.545-2.359 0-4.633-.672-5.623-1.662-1.3-1.3-1.834-1.384-2.451-.387-.629 1.018-.897 1-1.33-.088-.423-1.064-.559-1.032-.621.146-.103 1.965-4.035 4.435-5.202 3.268-.517-.517-.029-1.81 1.168-3.095 3.185-3.418 1.602-4.182-8.663-4.182h-9.499l.718 204.164.719 204.164-20.16-.651-20.16-.65v278.016l55.204-.069c41.451-.051 55.568-.368 56.663-1.271 1.14-.941 1.55-.93 1.879.047.256.76 2.055 1.205 4.587 1.134 2.292-.064 3.368-.324 2.391-.578-.977-.255-1.711-.99-1.631-1.634.33-2.685-.213-3.773-2.343-4.694-1.237-.535-2.925-1.395-3.75-1.911-.825-.516-2.963-1.527-4.75-2.247-1.788-.719-3.25-2.008-3.25-2.864 0-.856-.54-2.096-1.2-2.756-.66-.66-.869-1.2-.465-1.2.405 0 .254-.9-.335-2s-1.756-2-2.594-2c-.838 0-1.241-.457-.896-1.016.346-.559.981-.799 1.412-.532.431.266 1.637-.162 2.681-.952 2.413-1.827 5.019-2.003 3.705-.25-1.248 1.666-.924 7.303.521 9.044.634.764.82 1.753.412 2.196-.407.443.299.549 1.57.235 1.515-.373 2.505-.065 2.873.895.309.805 1.311 1.337 2.226 1.182.916-.155 2.946.726 4.512 1.958 1.566 1.232 4.095 2.24 5.619 2.24 3.268 0 3.161 3.452-.133 4.314-1.05.274-1.908.991-1.908 1.592 0 .744 4.84 1.094 15.107 1.094 12.897 0 15.024-.216 14.542-1.474-.311-.81.203-1.961 1.143-2.558 1.239-.786 1.363-1.229.452-1.611-.691-.291-1.002-.939-.691-1.442.311-.503-.024-.952-.744-.996-.72-.045 0-.659 1.6-1.365 2.985-1.318 6.591-1.01 6.591.563 0 .485-.337.83-.75.765-1.858-.294-4.63.324-3.5.78 2.111.852 1.442 4.94-1 6.118-1.733.835 1.142 1.1 12.5 1.152 8.598.04 14.75-.324 14.75-.873 0-1.622-1.882-2.192-3.818-1.157-1.022.548-2.842.738-4.044.424-3.585-.938.505-3.258 4.578-2.597 1.797.291 3.833.103 4.526-.419 1.361-1.028 20.389-1.012 21.418.017.345.344-.113.91-1.017 1.256-2.37.91-2.023 3.417.474 3.417 1.595 0 1.993-.473 1.614-1.92-.375-1.435.152-2.085 2.081-2.569 1.837-.461 2.207-.881 1.279-1.455-.992-.613-1.018-.983-.111-1.544.657-.406 1.66-.272 2.229.297 1.171 1.171 4.054.426 3.269-.845-.281-.454-.053-1.108.506-1.454.559-.345 1.016-1.102 1.016-1.68 0-1.446-7.045-.069-9.107 1.78-1.391 1.248-1.765 1.249-2.791.012-.921-1.109-.897-1.543.106-1.946.822-.329.655-.547-.458-.597-.963-.043-1.75.403-1.75.992 0 2.611-2.682 3.79-6.606 2.905-2.142-.483-3.926-.788-3.965-.677-.04.111-.831-.558-1.758-1.485-1.138-1.138-1.33-1.907-.59-2.364.673-.416.195-1.127-1.243-1.843-3.749-1.869-2.96-4.107 1.447-4.107 2.096 0 4.158-.602 4.62-1.348.458-.741 2.13-1.413 3.714-1.494 2.983-.151 5.751-1.954 4.667-3.039-.341-.34-.046-.619.654-.619.712 0 1.024.651.708 1.476-.436 1.136.113 1.396 2.393 1.131 3.101-.361 3.681.271 1.892 2.06-.757.757-.611 1.243.5 1.669 1.073.412 1.567.021 1.567-1.242 0-2.305 4.892-3.466 8.624-2.047 1.442.549 4.255.78 6.249.514 1.995-.266 2.84-.243 1.877.051-.963.294-1.75.952-1.75 1.461 0 1.098 3.968 1.27 4.069.177.038-.413.232-1.987.432-3.5.363-2.75-1.656-3.927-3.001-1.75-.34.55-2.054.97-3.809.932-3.022-.064-3.072-.125-.941-1.152 1.237-.597 2.25-1.497 2.25-2 0-.503 1.012-.63 2.25-.282 1.557.438 1.835.345.901-.303-.987-.684-.383-1.116 2.25-1.61 3.445-.647 4.566-1.869 2.746-2.994-.469-.29-1.7.093-2.735.85-1.394 1.019-2.395 1.103-3.85.325-1.288-.69-2.081-.708-2.299-.055-.183.549-1.493.776-2.912.505-2.573-.492-2.575-.487-.85 2.146 1.497 2.283 1.523 2.638.197 2.638-.842 0-1.738.563-1.99 1.25-.366 1-.723 1-1.783 0-.729-.687-2.023-1.243-2.875-1.235-1.369.014-1.375.14-.05 1.085 1.136.809.681.927-1.875.484-1.856-.321-3.769-.584-4.25-.584-.481 0-.875-.45-.875-1s1.012-1.014 2.25-1.032c2.56-.036 6.442-2.61 5.443-3.609-.364-.364.119-1.254 1.073-1.978 1.602-1.217 1.566-1.32-.466-1.349-1.21-.018-2.56.53-3 1.218-.866 1.354-2.976 1.855-8.048 1.912-2.02.022-3.001.436-2.594 1.093.433.701-.382.85-2.419.443-2.725-.545-3.186-.288-4.078 2.269-.814 2.337-1.827 3.052-5.333 3.768-2.38.486-4.553.588-4.828.228-.854-1.119-6-2.053-6-1.089 0 .502-.704 1.182-1.565 1.513-1.829.702-.999-3.338.95-4.622.784-.516.743-.739-.135-.75-.687-.008-1.25-.78-1.25-1.715 0-1.322.267-1.433 1.2-.5.66.66 2.509 1.2 4.108 1.2 2.648 0 2.849-.238 2.243-2.653-.644-2.567-.591-2.605 1.642-1.175 4.346 2.783 6.009 3.04 5.305.822-.511-1.612-.189-1.979 1.685-1.915 1.274.043 1.755.306 1.067.583-.687.278-1.25.917-1.25 1.421 0 1.308 2.76 1.138 3.205-.197.204-.613 1.637-1.254 3.185-1.423 1.548-.17 3.507-1.299 4.354-2.508 1.362-1.945 1.645-2.012 2.448-.577 1.22 2.181 1.992 2.056 5.402-.877 3.338-2.87 4.895-3.216 4.002-.89-.443 1.153-.189 1.447.893 1.032.925-.355 1.511-.011 1.511.888 0 .808.613 1.469 1.361 1.469.878 0 1.207-.81.926-2.282-.335-1.75.046-2.317 1.638-2.437 2.084-.157 2.917 1.262 1.107 1.886-.606.208-.578.894.076 1.833.785 1.128 1.17 1.19 1.551.25.555-1.366 3.341-1.742 3.341-.45 0 .44-.54 1.34-1.2 2-.864.864-.881 1.2-.059 1.2.628 0 1.432-.472 1.789-1.048.356-.576 1.395-.974 2.309-.885.913.09 2.111.058 2.661-.07 2.527-.589 7.5-.421 7.5.253 0 .413.477.75 1.059.75s.781-.45.441-1-.029-1.006.691-1.014c.72-.007 2.373-.298 3.673-.646 2.067-.553 2.278-.363 1.682 1.514-.421 1.328-.251 2.146.446 2.146.619 0 .843.457.498 1.016-.346.559-1.047.758-1.559.441-.512-.316-.931-.048-.931.595 0 .798 1.123.96 3.522.51 2.487-.467 3.957-.226 5 .817 1.807 1.807 1.907 2.723.226 2.078-.689-.264-1.818.425-2.509 1.531-1.045 1.675-1.009 2.012.221 2.012.907 0 1.253.583.897 1.511-.43 1.12-.098 1.355 1.282.906 1.54-.501 1.602-.419.361.473-1.215.874-.973 1.082 1.271 1.095 1.938.01 3.097.729 3.852 2.387.955 2.095 1.488 2.28 4.565 1.586 2.667-.602 3.893-.396 5.227.878 4.265 4.073 6.772 5.768 7.949 5.376.697-.232 1.516.525 1.819 1.683.782 2.991 1.582 2.646 4.366-1.883 1.348-2.194 3.126-3.942 3.951-3.885 3.179.219 3.163-.222-.114-3.111-3.447-3.038-5.588-3.961-4.281-1.846.491.794.171.958-.993.511-1.019-.391-1.468-.257-1.105.33.963 1.558-.485 1.154-2.272-.633-1.496-1.496-1.475-1.729.263-3 2.179-1.594 4.913-1.852 4.002-.378-.34.55-.141 1 .441 1s1.059-.711 1.059-1.579c0-1.215.655-1.436 2.833-.958 2.156.474 2.834.254 2.834-.92 0-.849-.375-1.543-.834-1.543-.458 0-.833-.723-.833-1.607 0-1.132.517-1.399 1.75-.903.962.387 2.2.785 2.75.885.55.1 1.471.476 2.048.837 2.072 1.297 3.991-.857 2.435-2.733-1.297-1.563-1.428-1.561-1.983.021-.535 1.525-.723 1.539-1.887.137-1.1-1.326-.835-1.836 1.782-3.427 2.813-1.71 2.951-2.033 1.621-3.79-1.234-1.632-1.457-1.674-1.484-.283-.033 1.664-6.032 3.345-6.032 1.69 0-.455.726-.827 1.613-.827 1.679 0 1.62-3.158-.141-7.5-.798-1.967-.776-1.969 1.338-.114 1.913 1.679 2.216 1.711 2.762.288.337-.879 1.471-1.87 2.52-2.203 2.798-.888 2.329-2.274-.58-1.718-1.369.262-2.267.835-1.996 1.274.272.438-.296.646-1.261.462-.965-.185-2.373-.37-3.127-.412-1.095-.061-1.125-.375-.151-1.549.977-1.177.901-1.793-.381-3.074-1.448-1.449-1.659-1.453-2.204-.034-.331.863-1.004 1.32-1.497 1.015-1.558-.963-.973-2.18 1.355-2.818 1.877-.515 2.001-.78.75-1.602-.825-.541-1.05-.997-.5-1.013.55-.016 2.088-.32 3.419-.676 1.974-.529 2.301-.343 1.781 1.013-.554 1.444.358 2.177 1.757 1.411.251-.138 1.039.529 1.75 1.481.926 1.241 1.718 1.458 2.793.766.999-.644 1.083-.971.25-.982-.687-.008-1.25-.615-1.25-1.348 0-1.658 3.294-1.497 5.417.264 1.056.877 1.583.941 1.583.191 0-.617.9-2.022 2-3.122 2.261-2.261 3.851-2.731 2.1-.621-.913 1.101-.63 1.478 1.402 1.866 1.4.268 2.776.114 3.058-.343.282-.456 1.309-.058 2.281.884 1.159 1.123 1.405 1.968.714 2.449-1.535 1.068-2.773.927-2.055-.235.361-.584-.549-.952-2.191-.884-1.825.075-2.171.281-.987.587 1.715.444 1.72.546.097 1.732-1.682 1.23-1.133 4.124.581 3.065.474-.293 1.144-.075 1.49.484.848 1.371 4.51 1.298 4.51-.091 0-.609.675-.848 1.5-.531.825.316 1.5.113 1.5-.452 0-.566.453-.748 1.008-.405.627.388.455 1.175-.458 2.088-.806.806-1.211 2.127-.901 2.936.708 1.844 1.124 1.84 2.994-.029 1.333-1.333 1.317-1.5-.143-1.5-1.499 0-1.494-.149.062-1.705 1.329-1.329 1.411-1.804.372-2.15-.734-.245-3.45-2.651-6.035-5.347-2.883-3.007-5.673-4.979-7.216-5.1-1.384-.109-3.387-1.202-4.451-2.43-1.064-1.227-2.213-1.954-2.552-1.615-.339.339-1.637.669-2.885.732-3.005.152-3.799 3.615-.829 3.615 1.758 0 1.896.235.823 1.399-.709.77-1.473 1.224-1.697 1.009-.224-.215-1.012.111-1.75.723-.738.613-1.373.946-1.41.741-.86-4.702-.47-10.872.687-10.872.759 0 1.381-.436 1.381-.969 0-.532.681-.707 1.513-.388 2.13.818 4.803-1.558 3.508-3.118-.552-.665-.718-1.495-.369-1.843.349-.349-.105-.919-1.009-1.265-2.62-1.006-1.902-2.172 1.107-1.797 2.723.339 2.725.335.25-.495l-2.5-.838 2.75-.752c1.512-.413 2.75-1.183 2.75-1.711 0-.535-.994-.649-2.25-.258-2.171.675-2.189.631-.5-1.262.962-1.079 1.75-2.515 1.75-3.192 0-.676.45-.952 1-.612.55.34 1 .162 1-.396 0-.557-1.571-1.308-3.491-1.668-1.92-.361-3.27-1.014-2.999-1.452.27-.438 1.392-.561 2.491-.273 1.117.292 1.999.03 1.999-.594 0-.615.9-1.117 2-1.117s2 .527 2 1.171.741 1.99 1.647 2.991c1.496 1.654 1.753 1.673 2.817.218 1.071-1.464 1.316-1.457 2.854.081.925.925 1.682 2.19 1.682 2.81 0 .799-.351.778-1.2-.071-2.147-2.147-4.034-1.506-2.732.927.888 1.66.841 2.312-.215 2.968-.775.482-1.495.428-1.686-.127-.184-.532-.821-.968-1.417-.968-.596 0-.79.293-.432.651.358.358-.13 1.295-1.084 2.082-1.643 1.356-1.643 1.402.016.88 2.02-.635 2.292.445.55 2.187-.66.66-.83 1.2-.378 1.2.453 0 .245.696-.461 1.547-1.026 1.236-1.45 1.287-2.107.25-.619-.975-.827-.877-.839.394-.022 2.435 1.582 3.069 3.333 1.318 1.707-1.706 3.652-1.994 3.652-.54 0 .532.713.695 1.584.36 1.275-.489 1.324-.772.25-1.453-.734-.465-.849-.852-.257-.861.626-.009.892-1.271.636-3.015-.243-1.66.016-3 .58-3 .561 0 .789-.882.507-1.961-.468-1.788-.219-1.876 2.837-1 1.842.529 3.437.961 3.544.961.107 0 .127-.9.044-2s-.531-2-.997-2c-.465 0-.568-.45-.228-1 .34-.55-.421-1.036-1.691-1.079-1.27-.043-1.744-.307-1.053-.585.691-.279 1.002-.918.691-1.421-.311-.503.163-.915 1.053-.915.89 0 1.34.45 1 1-.826 1.337.107 1.262 2.439-.194 1.773-1.107 1.79-1.287.237-2.468-1.52-1.156-1.474-1.277.503-1.306 2.297-.034 5.321 2.356 5.321 4.206 0 .602-.279.817-.619.476-1.06-1.06-3.563 2.183-2.724 3.528 1.267 2.029 1.419 4.758.265 4.758-.586 0-.39.675.435 1.5s2.013 1.5 2.639 1.5c.699 0 .883.805.477 2.086-.591 1.862-.437 1.965 1.432.965 1.152-.617 2.111-1.668 2.13-2.336.02-.668.655-.096 1.413 1.272.757 1.369 1.164 2.831.905 3.25-.259.42.118.77.838.778.951.011.899.281-.191.985-1.175.759-.922.973 1.168.985 3.097.017 5.832.922 5.832 1.929 0 .385-1.373.606-3.051.489-1.953-.135-2.898.204-2.625.943.234.635 1.004 1.018 1.709.851.706-.166 1.656.284 2.11 1 .678 1.069.829 1.068.842-.006.008-.72.472-1.026 1.031-.681.559.346.758 1.047.441 1.559-.316.512.078.931.877.931s1.725.712 2.059 1.582c.868 2.262.801 2.409-1.143 2.497-1.045.047-1.247.282-.5.583 1.741.703 1.566 2.338-.25 2.338-1.698 0-2.011 1.566-.5 2.5 1.261.779 1.307 2.5.067 2.5-.513 0-1.218-.9-1.567-2s-1.04-2-1.536-2-.636.692-.311 1.537c.324.846-.169 2.376-1.097 3.401-2.02 2.232-.303 3.927 2.022 1.997 1.185-.983 1.976-.977 3.861.032 1.304.698 2.863.964 3.466.592 1.494-.924 1.387.749-.147 2.283-.988.988-.941 1.427.236 2.154 1.741 1.077 3.489-1.295 2.621-3.557-.304-.791 0-1.439.676-1.439.721 0 1.224 1.342 1.219 3.25-.009 2.92.256 3.219 2.612 2.945 1.662-.193 2.84.265 3.219 1.25.444 1.159-.06 1.555-1.979 1.555-1.958 0-2.428.387-1.958 1.611.439 1.142.188 1.446-.861 1.044-.813-.312-1.731-.16-2.039.338-.308.498 1.028 1.204 2.968 1.568 2.108.395 3.528 1.244 3.528 2.109 0 .797-.45 1.17-1 .83-.55-.34-1-.093-1 .548s.675.907 1.5.59c1.084-.415 1.5.11 1.5 1.893 0 1.967.508 2.469 2.5 2.469 1.375 0 2.5-.45 2.5-1s-1.012-1.007-2.25-1.015c-1.799-.013-1.951-.205-.758-.959.82-.518 2.62-.678 4-.355 3.129.733 5.031 2.329 2.775 2.329-.898 0-1.937.959-2.309 2.132-.532 1.675-.864 1.836-1.552.75-.694-1.096-.879-1.02-.891.368-.019 2.172 2.554 2.314 3.371.187.33-.86 1.082-1.266 1.672-.901.707.437.487 1.309-.648 2.563-2.014 2.226-2.154 2.133 3.522 2.334 2.447.086 4.612.698 4.834 1.365.25.751-.46 1.113-1.878.955-1.837-.204-2.277.233-2.264 2.247.01 1.388.542 2.389 1.197 2.25.648-.138 1.179.473 1.179 1.357 0 1.018-.55 1.396-1.5 1.031-.825-.316-1.5-.176-1.5.313 0 .493-1.639.435-3.691-.131-2.03-.561-5.154-.782-6.941-.492-2.464.4-3.124.2-2.73-.826.285-.744 2.396-1.682 4.69-2.085l4.172-.733-3.286-.88c-1.807-.484-3.024-1.302-2.705-1.818 1.477-2.39 1.366-7.152-.153-6.569-.836.321-1.953.583-2.483.583-.561 0-.688 1.472-.303 3.519.644 3.436.6 3.496-1.87 2.557-1.936-.736-2.66-.623-3.084.481-.622 1.623-3.616 1.99-3.616.443 0-.55-.886-1-1.969-1-1.422 0-1.812-.485-1.405-1.75.475-1.477.394-1.516-.516-.25-.933 1.297-1.081 1.263-1.095-.25-.008-.962.773-1.827 1.735-1.921.962-.094 2.65-.255 3.75-.358 1.1-.104 2.548-.252 3.219-.329.731-.085.953-.841.556-1.892-.937-2.474-3.241-4.617-4.071-3.787-.385.385.166 1.334 1.225 2.108 1.059.775 1.613 1.72 1.231 2.102-.381.382-1.226.161-1.877-.49-1.4-1.4-6.471-1.587-6.95-.257-.183.509-1.683 1.259-3.333 1.666-2.598.641-2.834.538-1.759-.768.683-.829.908-1.876.5-2.326-.407-.45-.178-.495.509-.099.688.395 1.25.242 1.25-.34 0-1.278-1.02-1.333-2.878-.155-.758.48-1.069 1.373-.691 1.984.378.612.25 1.112-.283 1.112-1.715 0-.56 3.248 1.847 5.197 1.679 1.36 2.536 1.561 3.057.718.898-1.452 2.948-.309 2.948 1.644 0 .793-.886 1.441-1.969 1.441-1.345 0-1.785.478-1.388 1.511.415 1.082.121 1.336-1.032.893-.886-.34-1.611-1.02-1.611-1.511a.903.903 0 0 0-.906-.893c-.499 0-.671.9-.384 2 .304 1.162.031 2-.652 2-.647 0-.898-.45-.558-1 .34-.55-.324-1-1.476-1-1.761 0-1.929.308-1.059 1.934 1.588 2.968 1.253 3.323-1.312 1.389-1.956-1.476-2.125-1.993-1.015-3.104 1.297-1.297 1.33-6.584.049-7.865-.351-.352-1.399-.012-2.329.753-1.532 1.263-1.626 1.138-1.012-1.33.543-2.18.377-2.608-.834-2.143-.831.319-1.512 1.432-1.512 2.473s-.562 1.938-1.25 1.993c-.687.055-.158.404 1.176.777 2.878.804 3.993 3.123 1.502 3.123-1.62 0-1.626.124-.083 1.829.91 1.006 1.648 2.243 1.64 2.75-.009.506-.501.246-1.095-.579-.91-1.266-.991-1.227-.516.25.31.963.127 1.75-.405 1.75-.533 0-.969.498-.969 1.107s.638.862 1.417.563a1.52 1.52 0 0 1 1.96.869c.396 1.034 1.627 1.262 4.583.848 2.702-.378 4.04-.185 4.04.583 0 .631-.45.87-1 .53-.55-.34-1-.164-1 .39 0 1.284 34.654 1.478 35.445.198.31-.5.659-2.075.777-3.499s.619-2.589 1.113-2.589.648.959.341 2.131c-1.055 4.033 1.311 4.869 13.784 4.869 9.164 0 11.719-.302 12.154-1.437.303-.79 1.132-1.214 1.841-.942.914.351 1.177-.324.904-2.313-.328-2.382-.244-2.505.557-.808.814 1.726.953 1.76 1.014.25.081-2.018 1.663-2.346 2.408-.5.403 1 .52 1 .583 0 .116-1.837 2.079-1.526 2.079.329 0 1.235.655 1.436 3 .921 2.529-.555 3-.354 3 1.282 0 1.56-.52 1.841-2.649 1.434-1.636-.313-2.41-.121-2.025.502.343.555 4.519 1.095 9.279 1.2 8.284.182 8.633.102 8.119-1.864-.295-1.13-.129-2.054.37-2.054.498 0 .906.9.906 2 0 1.922.667 2 17 2 14.444 0 17-.225 17-1.5 0-.825-.45-1.5-1-1.5s-.964-.788-.921-1.75c.047-1.045.282-1.247.583-.5.278.687 1.116 1.25 1.864 1.25.826 0 1.206.794.969 2.024-.38 1.975.012 2.017 16.308 1.75l16.697-.274.021-139.5c.012-76.725-.109-129.218-.269-116.65-.257 20.233-.469 22.781-1.853 22.25-.859-.33-3.663-.636-6.231-.679-2.567-.043-4.068-.318-3.336-.611.897-.358.392-1.104-1.543-2.281-1.923-1.169-3.309-3.204-4.18-6.139-.717-2.414-1.678-5.12-2.135-6.012-.498-.971-.378-2.074.298-2.75.837-.837.745-1.128-.358-1.128-.817 0-1.617-.788-1.778-1.75-.593-3.545-1.238-27.541-.773-28.753.264-.689.731-12.896 1.037-27.125.306-14.23 1.015-37.572 1.577-51.872.561-14.3 1.713-44.45 2.559-67 .846-22.55 2.428-57.425 3.514-77.5 1.087-20.075 2.648-49.1 3.469-64.5 1.757-32.922 6.177-104.845 7.084-115.25l.632-7.25-11.868.173c-6.527.096-18.167.491-25.867.878M.486 750c0 76.725.119 108.113.264 69.75.145-38.362.145-101.137 0-139.5C.605 641.888.486 673.275.486 750m269.112-91.264c-.996.995-.669 2.426.402 1.764.55-.34 1-.141 1 .441s-.9 1.059-2 1.059-2-.41-2-.912c0-1.201-1.842-.839-5.377 1.057-2.313 1.242-2.558 1.666-1.25 2.168.952.365 1.633.118 1.642-.594.01-.786.346-.697.944.248.684 1.082.219 1.935-1.766 3.244-2.453 1.617-1.754 2.561 1.307 1.766.55-.143 1.788-.224 2.75-.181 1.092.05 1.75-.649 1.75-1.858 0-1.066.423-1.938.941-1.938 1.447 0 2.218 1.784 1.075 2.49-.559.345-1.016.999-1.016 1.452 0 1.262 3.915 2.004 4.614.874.354-.573 2.132-.711 4.19-.325 3.359.63 3.488.56 2.136-1.16-2.224-2.828-3.263-3.308-4.656-2.151-1.442 1.196-1.826-.844-.519-2.753 1.053-1.538 4.235-2.553 4.235-1.352 0 .557.788.88 1.75.719 1.262-.212 1.726.347 1.665 2.004-.069 1.889.685 2.504 4.232 3.453 2.743.733 3.867 1.439 3.084 1.936-.854.543-.677.787.578.798.995.008 1.52.483 1.166 1.055-.812 1.314 4.423.154 6.448-1.428 1.163-.908 1.318-.7.844 1.138-.319 1.237-.172 2.25.327 2.25a.902.902 0 0 0 .906-.892c0-.49 1.012-1.146 2.25-1.457 1.555-.391 2.296-1.371 2.398-3.173.202-3.549.959-4.065 4.183-2.848 3.246 1.225 6.329-.87 4.286-2.913-.823-.823-1.117-.801-1.117.083 0 .66-.675 1.2-1.5 1.2s-1.5-.398-1.5-.883c0-1.42-4.274-2.134-5.698-.953-.944.784-1.302.756-1.302-.101 0-.649-.498-.873-1.107-.497-.608.376-2.873.101-5.032-.612-2.674-.882-3.517-1.555-2.644-2.11.724-.459-2.127-.82-6.538-.829-5.798-.011-8.229.392-9.396 1.559-.865.866-1.846 1.17-2.178.677-.842-1.248-3.785-2.238-4.507-1.515M334.5 664c-.341.552.379 1 1.608 1 1.224 0 1.888.337 1.475.75-1.014 1.015-2.95 1.005-3.674-.019-.326-.46-2.496-1.01-4.823-1.223-3.694-.338-4.071-.195-2.969 1.133.721.869 2.251 1.331 3.572 1.078 2.727-.521 3.051.751.561 2.201-1.667.971-1.667 1.021 0 1.05.962.016 1.75-.42 1.75-.97s.439-1 .975-1c.624 0 .637.889.038 2.465-.591 1.555-.582 2.684.025 3.059.529.327.962-.419.962-1.656 0-2.202.034-2.208 1.563-.309.963 1.196 1.745 1.514 2.038.827.261-.613 1.808-.96 3.437-.77 1.629.19 2.962-.128 2.962-.705 0-1.452 4.247-.703 4.755.839.226.688-.301 1.25-1.172 1.25-1.384 0-1.363.232.167 1.844 1.484 1.563 1.99 1.639 3.329.5.868-.739 2.218-1.337 3-1.329 1.175.013 1.162.183-.079.985-1 .646-1.083.974-.25.985.688.008 1.25.717 1.25 1.574 0 .857.45 1.281 1 .941.55-.34 1.052.421 1.116 1.691.085 1.694.238 1.843.573.559.252-.962 1.086-1.75 1.853-1.75.807 0 1.161-.61.84-1.447-.464-1.209-.144-1.252 1.946-.266 1.376.649 2.302 1.503 2.059 1.896-.244.394.47 1.205 1.585 1.802s2.028 1.47 2.028 1.939c0 1.084-3.293.86-4.125-.281-.344-.471-.933-.358-1.31.252-.85 1.375 3.81 3.282 5.984 2.448.861-.331 1.329-1.218 1.04-1.972-.289-.754.022-1.377.692-1.385.671-.007 2.344-.31 3.719-.673 2.204-.582 2.344-.47 1.185.944-1.121 1.368-.979 1.783.963 2.822l2.278 1.219-2.463.946c-1.355.52-2.913 1.032-3.463 1.139-.55.107-1.9.726-3 1.376-1.713 1.012-1.355 1.141 2.5.903 2.9-.178 5.017.235 5.955 1.164.995.985 1.575 1.083 1.834.308.45-1.351 3.211-1.536 3.211-.216 0 .505.23 1.518.511 2.25.391 1.021-.835 1.308-5.25 1.23-3.169-.057-6.29.308-6.937.811-.647.502-1.772.832-2.5.733-4.197-.568-6.738.118-6.147 1.659.456 1.188.124 1.496-1.281 1.191-1.043-.226-1.827-.834-1.742-1.351.332-2.024-2.413-3.436-3.689-1.899-1.254 1.511-4.055 2.026-3.847.708.309-1.956-.248-2.387-1.618-1.25-.825.685-1.531 1.077-1.569.872-.858-4.639-.62-5.731 1.397-6.403l2.172-.723-2.198-.436c-1.21-.239-3.092.043-4.185.627-2.368 1.268-7.308 1.471-5.336.219.929-.589 1.016-1.478.314-3.234-.533-1.332-1.004-1.972-1.047-1.422-.043.55-.497.338-1.009-.471-.512-.809-1.292-1.11-1.733-.668-.442.441.015 1.401 1.015 2.131 1.729 1.265 1.713 1.362-.337 2.013-1.494.474-2.838.042-4.384-1.411-2.61-2.452-3.767-2.694-2.971-.62.311.811-.209 2.248-1.154 3.194-2.27 2.27.501 3.477 5.018 2.187 4.332-1.237 6.505-1.083 4.137.292-1.448.842-1.575 1.269-.563 1.895 1.679 1.037 2.212 7.064.607 6.866-2.791-.345-4.746.167-4.174 1.092.34.55-.196 1.02-1.191 1.045-1.211.03-.817.499 1.191 1.419 1.65.755 2.463 1.41 1.807 1.455-.658.045-1.012 1.018-.789 2.173.298 1.548.006 1.939-1.123 1.506-1.507-.578-1.096 3.113.49 4.402 1.255 1.02.896 8.362-.477 9.735-2.256 2.256-1.663 2.888 2.342 2.5 2.558-.248 3.317-.064 2.389.578-.748.518-2.16.733-3.137.477-.977-.255-2.126.101-2.553.793-.547.885-.285 1.068.887.618 1.092-.419 1.664-.127 1.664.849 0 1.083.672 1.319 2.47.868 1.613-.405 3.027-.064 4.072.981.88.881 2.27 1.601 3.088 1.601.819 0 1.293.337 1.054.75-.238.413-.072 1.65.371 2.75.615 1.529.821 1.615.875.367.049-1.15.932-1.598 2.983-1.514 1.603.065 2.759.369 2.57.675-.19.306.493.62 1.516.697 1.325.1 1.754-.409 1.492-1.771-.202-1.052.076-2.186.619-2.522.631-.39.578-1.103-.148-1.977-1.361-1.641-.423-3.569 1.398-2.871.712.274 2.56.017 4.106-.571 3.624-1.378 4.099-.791 2.494 3.084-1.581 3.816-5.729 8.164-7.025 7.363-.514-.318-.935-.074-.935.541 0 .682-1.172.934-3 .646-3.269-.515-3.853.4-1.5 2.353.86.714 1.5.813 1.5.232 0-1.576 6.975-2.095 7.125-.531.399 4.148 2.458 6.958 6.003 8.194 4.121 1.436 4.004 1.48 3.319-1.251-.34-1.355-.03-2.949.731-3.75.727-.767 1.322-2.069 1.322-2.894 0-.982.778-1.392 2.25-1.187 1.244.173 2.25-.217 2.25-.873 0-.907.339-.904 1.445.014 1.675 1.39 6.224 1.028 5.705-.454-.192-.55-.766-.884-1.274-.742-.883.247-.701-2.579.604-9.377.555-2.893.42-3.085-1.874-2.646-2.084.398-2.39.155-1.945-1.546.365-1.395-.149-2.38-1.666-3.192-1.592-.852-2.068-1.836-1.733-3.586.572-2.996-.819-3.211-1.595-.247-.478 1.829-.807 1.965-2.116.878-.971-.806-1.551-.886-1.551-.214 0 .59.788 1.531 1.75 2.092 1.497.872 1.355 1.024-.989 1.05-2.331.025-2.707-.349-2.527-2.523.18-2.178.571-2.462 2.663-1.937 2.026.509 2.249.371 1.286-.789-1.651-1.99-.949-2.296 4.313-1.878 3.461.275 4.501.722 4.102 1.763-.656 1.708 1.554 1.842 3.202.194 1.806-1.806 1.453-2.787-1.05-2.916-1.693-.087-1.817-.229-.5-.573 1.834-.48 2.454-2.311.781-2.311-.532 0-.731-.619-.44-1.377.335-.873-.408-1.611-2.031-2.019-1.408-.353-2.56-1.266-2.56-2.029 0-.922-.712-1.201-2.12-.833-2.074.542-2.082.496-.385-2.094 1.683-2.568 1.673-2.648-.321-2.648-1.131 0-2.29-.379-2.577-.843-.287-.464 2.159-.802 5.436-.75 3.276.051 5.959.381 5.962.732.007.86 3.363.551 4.055-.374.302-.404 2.102-.99 4-1.303l3.45-.568-3.5 1.666c-2.002.953-2.951 1.873-2.217 2.148.706.264 2.056.126 3-.307 1.664-.762 2.625-1.028 4.717-1.301.55-.072.354-.539-.436-1.039-1.117-.707-1.174-1.223-.258-2.327.647-.78.881-1.714.519-2.076-.982-.982-3.363-.795-3.075.242.28 1.008-.085 1.106-4 1.085-1.512-.009-2.262-.346-1.665-.75s1.596-1.635 2.22-2.735c.624-1.1 1.148-1.437 1.165-.75.016.688 1.042 1.243 2.28 1.235 1.616-.011 1.874-.254.915-.862-.735-.466-1.264-1.235-1.175-1.71.319-1.717-1.628-1.398-3.797.622-1.628 1.517-2.339 1.72-2.675.765-.252-.715-.921-2.563-1.485-4.107-.565-1.544-.625-2.559-.135-2.256.491.303 1.15-.121 1.466-.943.315-.822.212-1.494-.229-1.494s-.802-.675-.802-1.5c0-2.069 1.419-1.89 1.978.25.339 1.299.487 1.162.573-.531.064-1.255-.556-2.54-1.378-2.855-.822-.316-1.246-.976-.941-1.469.304-.492.114-.895-.423-.895-.536 0-1.202.563-1.48 1.25-.388.961-.522.948-.583-.059-.043-.72-.514-1.04-1.046-.711-.532.329-1.513-.275-2.179-1.341-.678-1.087-1.901-1.722-2.782-1.445-1.375.433-1.384.36-.072-.584 1.27-.914 1.193-1.084-.5-1.11-1.681-.026-1.761-.196-.5-1.069 1.236-.856 1.148-.98-.5-.707-1.442.238-1.989 1.091-1.961 3.053.022 1.498-.315 2.723-.75 2.723-.434 0-.789-.675-.789-1.5s-.562-1.507-1.25-1.515c-.935-.012-.914-.229.085-.862 1-.634.75-1.02-1-1.543-2.249-.671-2.262-.729-.335-1.568 1.1-.479 1.775-.941 1.5-1.025-5.401-1.66-18.065-1.487-19.175.262-.568.894-.799.751-.81-.499-.01-1.148-.789-1.745-2.265-1.735-1.819.013-1.963.201-.75.985 1.09.704 1.142.974.191.985-.72.008-1.031.465-.691 1.015.34.55.141 1-.441 1-.935 0-1.517-2.099-1.177-4.25.223-1.415-1.945-.751-2.53.776-.422 1.098-.937 1.233-1.842.482-.691-.573-1.943-.779-2.782-.457s-1.823.105-2.186-.483c-.832-1.347-3.227-1.387-4.042-.068m-142.255 7.896c.054.882-.228 2.597-.627 3.811-.673 2.048-.453 2.183 3.054 1.868 5.582-.501 6.312.008 4.998 3.489-1.051 2.783-2.952 4.206-2.42 1.811.137-.619-.313-1.331-1.001-1.584-.781-.286-1.034.107-.672 1.049.355.926-.269 1.96-1.62 2.683-1.793.96-2.054.928-1.417-.173.429-.743.412-1.016-.038-.609-.45.408-1.506.183-2.347-.5-1.29-1.046-1.422-.954-.842.591.378 1.007.687 2.02.687 2.25 0 .23 1.336.418 2.969.418 2.228 0 2.825.374 2.393 1.5-.317.825-.051 1.5.59 1.5s.909.416.594.925c-.671 1.087 1.421 6.075 2.548 6.075.426 0 .572-1.113.325-2.474-.344-1.896-.096-2.339 1.06-1.896.83.319 1.286.942 1.012 1.385-2.05 3.316 2.669 4.367 5.249 1.168.681-.845 1.523-1.254 1.869-.908.346.347-.099 1.358-.99 2.249-2.229 2.229-2.035 2.481.873 1.132 1.371-.636 2.496-1.718 2.5-2.406.004-.687.731-1.25 1.615-1.25 1.018 0 1.396-.55 1.031-1.5-1.292-3.368 2.412-1.093 4.072 2.5.635 1.375 1.185 1.938 1.222 1.25.038-.687.843-1.25 1.791-1.25 1.377 0 1.253-.329-.622-1.642-2.238-1.567-2.26-1.693-.473-2.75 2.332-1.381 8.586-1.45 9.709-.108.476.569.624.03.343-1.25-.271-1.237-.175-2.25.214-2.25 1.418 0 2.936 2.281 2.417 3.633-.339.882-.034 1.198.835.865.79-.304 1.788.429 2.361 1.732 1.187 2.699 4.493 3.664 4.493 1.312 0-.883-.675-1.864-1.5-2.18-.825-.317-1.5-1.375-1.5-2.352 0-.977-.787-2.065-1.75-2.418-3.303-1.211-7.25-3.702-7.25-4.575 0-1.614 3.38-4.378 3.803-3.109.298.895.726.898 1.794.011 1.075-.891 1.403-.876 1.403.066 0 .719.668.973 1.611.611 1.269-.487 1.495-.138 1.061 1.643-.921 3.788 6.583 10.543 8.447 7.603.695-1.096.853-1.1.866-.021.008.727.731 2.037 1.605 2.912 1.454 1.454 1.561 1.383 1.25-.821-.273-1.94.051-2.347 1.66-2.078 3.524.587 4.118 2.024 2.212 5.345-2.034 3.543-1.705 4.671.669 2.297.89-.89 1.619-2.963 1.619-4.606 0-1.738.419-2.729 1-2.37.55.34 1 .194 1-.324 0-.519.9-1.178 2-1.466 1.1-.287 2-.115 2 .384 0 .498-.675.906-1.5.906-1.755 0-2.003 3.097-.378 4.722.617.617 1.742.884 2.5.593.818-.314 1.378.124 1.378 1.078 0 1.037.866 1.607 2.443 1.607 1.904 0 2.357-.441 2.057-2-.453-2.352.767-2.59 2.81-.548 1.538 1.539 2.69 1.073 2.69-1.087 0-.716-.64-1.056-1.423-.756-.815.313-1.899-.342-2.535-1.531-.773-1.444-.787-2.078-.046-2.078.587 0 1.315.647 1.618 1.437.303.79 1.209 1.185 2.012.876.803-.308 1.215-.805.915-1.105-.669-.669 2.42-4.208 3.673-4.208.497 0 .65.412.339.915-.311.503 0 1.142.691 1.421.781.314.616.536-.435.585-.93.043-2.016.605-2.414 1.249-.491.794-.171.958.993.511.944-.362 1.47-.26 1.17.226-.301.486.126 1.141.948 1.457.822.315 1.458 1.375 1.415 2.355-.047 1.058-.285 1.271-.585.525-.279-.691-.899-1.014-1.378-.718-.479.296-.618 1.196-.31 2 .309.805 1.041 1.166 1.627.804.668-.413.827-.038.426 1.006-.351.915-.202 1.664.33 1.664.533 0 .969-.355.969-.789 0-.435 1.194-.772 2.652-.75 3.067.045 4.332-2.067 1.653-2.761-1.202-.312-.905-.507.888-.584 2.127-.092 2.611-.536 2.307-2.116-.212-1.1.039-2 .557-2 .519 0 .943.54.943 1.2 0 .911.299.901 1.242-.042.988-.988.938-1.433-.25-2.184-1.98-1.252-4.271-1.234-3.492.026.34.55-.041 1-.847 1-.995 0-1.29-.672-.919-2.092.459-1.755 1.167-2.032 4.407-1.723 2.122.202 3.859.018 3.859-.409s-.675-.776-1.5-.776-1.5-.45-1.5-1 .563-1.007 1.25-1.015c.833-.011.75-.339-.25-.985-1.09-.704-1.142-.974-.191-.985.72-.008 1.03-.466.689-1.018-.412-.667-1.269-.655-2.559.035-2.34 1.253-2.516.263-.374-2.104 1.038-1.147 1.206-1.951.5-2.388-.586-.362-1.065-.181-1.065.401 0 .582-1.012 1.045-2.25 1.027-1.925-.027-2.034-.208-.75-1.253.825-.672 1.612-1.783 1.75-2.469.45-2.246-2.017-1.307-4.821 1.834-1.513 1.694-3.015 3.044-3.34 3-1.891-.256-2.641.027-2.155.814.304.491-.564.829-1.929.75-1.365-.079-2.716-.755-3.003-1.502-.421-1.096-1.043-1.017-3.211.403-1.838 1.205-2.81 1.397-3.073.608-.516-1.548-2.216-1.474-2.226.097-.016 2.542-4.542 3.598-7.111 1.66l-2.366-1.785 4.492.453c3.315.335 3.968.205 2.493-.492-4.406-2.083-9.5-.996-7.369 1.572.819.987.817 1.342-.009 1.342-.617 0-1.123-.337-1.124-.75-.002-.413-1.352-.798-3-.856-1.759-.063-2.998.4-2.998 1.119 0 .675.787 1.223 1.75 1.22 4.116-.016 4.84.241 3.344 1.188-2.51 1.589-9.294-.926-9.13-3.385.136-2.032-.118-2.536-1.275-2.536-.722 0-2.267-.89-3.435-1.978-1.653-1.54-3.449-1.959-8.112-1.893-3.294.046-6.455-.204-7.025-.556-.569-.353-1.968-.063-3.107.643-1.722 1.067-2.224 1.038-2.979-.176-.777-1.248-1.21-1.188-2.98.414-2.03 1.837-2.118 1.832-4.354-.269-1.255-1.179-4-2.364-6.099-2.633-2.099-.269-4.507-1.062-5.351-1.762-2.323-1.928-7.123-1.855-7.002.106m67.217 27.043c.319.516-.217 1.402-1.191 1.969-1.674.974-1.675 1.033-.021 1.062.962.016 2.037-.008 2.388-.055s1.06.515 1.576 1.25c.769 1.094 1.033 1.099 1.466.024.41-1.019.95-.929 2.424.405 2.573 2.329 2.382 3.406-.604 3.406-1.375 0-2.5.375-2.5.833 0 1.613 1.282 2.086 3.065 1.132 1.555-.832 1.79-.554 1.716 2.036-.101 3.534-.657 3.671-4.054.999-1.398-1.1-3.12-2-3.826-2-.737 0-.458-.608.658-1.429 1.845-1.358 1.852-1.463.134-2.129-.995-.385-1.571-1.317-1.282-2.071.289-.754.09-1.371-.442-1.371-.861 0-1.416 2.17-1.087 4.25.065.413-.573.75-1.417.75-1.157 0-1.303-.435-.591-1.764.662-1.238.487-2.357-.59-3.75-1.51-1.955-1.526-1.952-1.019.199.34 1.445-.042 2.399-1.126 2.815-1.657.636-2.752.417-2.504-.5.074-.275.442-1.513.817-2.75.376-1.237.255-2.25-.268-2.25s-1.186.9-1.474 2c-.357 1.366-1.364 2-3.175 2-1.459 0-2.387.43-2.062.956.325.526 1.252.703 2.059.393.807-.309 1.468-.038 1.468.603s-.45.888-1 .548c-.55-.34-1-.19-1 .334 0 1.381 2.251 2.032 5.124 1.483 3.844-.735 6.671 3.492 3.2 4.784-1.584.589-1.465.821.907 1.757 2.703 1.067 2.99 4.017.412 4.242-.629.055-.018.415 1.357.8 1.757.493 2.464 1.355 2.38 2.9-.066 1.21.449 2.2 1.143 2.2.695 0 1.522.675 1.839 1.5.316.825 1.066 1.5 1.666 1.5.622 0 .755-.537.309-1.25-1.114-1.783-1.299-3.75-.354-3.75.444 0 .451-1.575.017-3.5-.622-2.757-.481-3.5.664-3.5.8 0 1.176.45.836 1-.34.55-.168 1 .382 1s1.243-.394 1.541-.875c.535-.865 5.577-1.271 5.577-.449 0 .234-1.593 1.092-3.54 1.905-1.947.814-3.271 1.916-2.941 2.449 1.015 1.644 3.163 1.082 5.617-1.467 2.158-2.242 2.485-2.311 4.096-.853 1.394 1.261 2.415 1.378 5.009.575 3.247-1.005 3.25-1.012.849-1.978-2.1-.845-2.185-1.057-.66-1.642.963-.369 2.16-.418 2.66-.109 1.701 1.051.919-1.238-1.023-2.995-2.227-2.015-1.79-4.139 1.002-4.869 1.062-.278 1.931-.983 1.931-1.567s-.671-.805-1.492-.49a1.594 1.594 0 0 1-2.064-.921c-.363-.945-1.341-1.292-2.665-.946-1.549.405-1.881.207-1.281-.765.537-.869.421-1.071-.343-.598-.635.392-1.155.274-1.155-.263 0-.536.499-1.142 1.11-1.345.671-.224.415-.946-.65-1.83-1.628-1.351-1.724-1.218-1.283 1.786.262 1.786.12 3.247-.315 3.247-1.104 0-2.674-3.272-2.199-4.583.216-.596-.295-1.084-1.135-1.084-.84 0-1.528.307-1.528.681 0 1.197-6.423.912-7.315-.324-.538-.746-.674-.35-.365 1.06.271 1.237.085 2.25-.414 2.25-.498 0-.906-.9-.906-2 0-1.145-.667-2-1.559-2-.857 0-1.298.422-.979.939m163.651 7.478c.293 2.563-.22 3.583-1.804 3.583-1.482 0-1.451.194.25 1.563 1.425 1.147 1.598 1.705.649 2.097-.986.408-1.019.863-.136 1.926.635.766 1.602 1.116 2.148.778 1.394-.862-.187 3.937-1.605 4.871-.696.459-.458.74.635.75.962.008 1.75.465 1.75 1.015 0 .55-.675 1-1.5 1s-1.5-.398-1.5-.883c0-.486-1.012-1.192-2.25-1.568-1.363-.414-1.757-.887-1-1.2.688-.283 1.243-1.716 1.235-3.182-.012-2.011-.242-2.31-.934-1.215-.506.799-.697 1.811-.426 2.25.271.439.053.798-.484.798-.538 0-1.694.275-2.571.611-1.218.468-1.438.174-.934-1.25.457-1.292.333-1.555-.405-.861-.585.55-1.214 1.9-1.397 3-.381 2.282-1.704 3.917-3.852 4.76-.815.32-.954.618-.309.661 2.128.143 7.579 6.306 6.284 7.105-.878.543-.832.872.18 1.274.968.385 1.001.565.113.621-.687.043-1.25.556-1.25 1.138 0 .582.412.805.915.494.503-.311 1.104 0 1.337.691.332.986.778.963 2.074-.107.909-.75 1.358-1.839.999-2.42-.407-.659-.026-.816 1.011-.418 1.087.417 1.664.129 1.664-.83 0-.808-.45-1.469-1-1.469s-1-.675-1-1.5-.675-1.5-1.5-1.5-1.5-.408-1.5-.906c0-.499.9-.671 2-.384 1.118.293 2 .031 2-.593 0-.615.932-1.117 2.071-1.117 1.977 0 1.992.08.311 1.75-1.68 1.67-1.637 1.765.929 2.066 3.477.41 3.862 4.143.439 4.263-1.238.043-1.687.306-1 .583 2.294.926 1.286 2.065-1.5 1.695-1.512-.202-2.213-.11-1.556.203.656.313.961 1.176.676 1.917-.29.758.282 1.555 1.307 1.82 1.224.316.93.509-.896.587-2.126.091-2.576.486-2.066 1.815.403 1.051.804 1.245 1.049.508.288-.864.932-.905 2.345-.149 1.071.573 1.7 1.442 1.398 1.931-.302.488.205 1.31 1.126 1.826.94.525 1.423 1.596 1.101 2.437-.369.96.311 1.903 1.892 2.624 3.159 1.439 5.409 1.468 3.374.043-1.157-.81-.956-.896.875-.377 1.474.417 2.142.295 1.761-.321-.337-.547.394-1.264 1.625-1.594 3.493-.936 4.392-.68 2.545.724-1.579 1.2-1.562 1.384.25 2.689 2.384 1.719 2.553 3.131.27 2.255-1.312-.504-1.521-.244-.966 1.201.425 1.106.194 2.176-.576 2.674-1.019.659-.975 1.033.216 1.815 2.259 1.482 4.725 1.34 3.2-.185-1.451-1.451-1.6-3.165-.2-2.3.55.34 1 .111 1-.509s1.306-.197 2.904.941c1.598 1.137 3.649 2.068 4.559 2.068.91 0 1.375.453 1.033 1.007-.343.554.064 1.271.903 1.592.838.322 1.799 1.451 2.135 2.508.335 1.057 1.027 1.664 1.536 1.35.51-.315 1.848.072 2.973.861 2.761 1.933.251 2.945-2.996 1.207-1.293-.692-3.217-1.032-4.274-.755-1.461.382-1.845.049-1.598-1.384.25-1.452-.308-1.909-2.425-1.987-1.512-.055-2.75.282-2.75.75s.477.851 1.059.851.805.412.494.915c-.311.503 0 1.142.691 1.421.691.278.244.542-.994.585-2.552.09-3.008 1.574-.75 2.441.825.316 1.5.244 1.5-.16 0-.405 1.763-.782 3.919-.839 2.933-.077 3.786.242 3.393 1.267-.289.754-1.04 1.377-1.669 1.385-.629.009-.468.452.357.985 1.302.841 1.283.971-.143.985-2.14.02-3.155 2.687-1.294 3.401.79.303 1.437.063 1.437-.534s.901-.85 2.001-.562c1.101.288 1.75.115 1.441-.383-.308-.499.142-.907.999-.907 2.041 0 1.974.941-.191 2.708-1.582 1.291-1.462 1.367 1.25.786 1.65-.353 3.134-1.011 3.298-1.462.164-.451 1.252-.57 2.419-.265 1.628.426 1.981.192 1.521-1.008-1.11-2.892 3.035-2.823 5.301.088l2.065 2.653-.689-2.5c-.379-1.375-.927-3.13-1.217-3.9-.407-1.081.099-1.242 2.221-.71 1.802.452 2.527.332 2.106-.35-.354-.572-.199-1.04.343-1.04s1.131-.583 1.309-1.296c.245-.983 1.368-1.086 4.651-.425 2.967.596 4.169 1.287 3.819 2.198-.765 1.993.405 2.614 1.972 1.047.76-.76 1.381-2.728 1.381-4.373 0-2.506.483-3.098 2.975-3.646 1.637-.359 2.933-.957 2.882-1.329-.36-2.595.197-3.641 1.158-2.176.876 1.333 1.094 1.333 1.97 0 .799-1.218.987-1.077 1 .75.009 1.34-.592 2.25-1.485 2.25-.825 0-1.5.498-1.5 1.107s-.642.861-1.427.559c-2.043-.784-3.855 1.652-2.349 3.158.901.901.896 1.176-.024 1.176-.66 0-1.2.9-1.2 2 0 1.129.667 2 1.531 2 .843 0 1.791.675 2.107 1.5.831 2.165 3.667 1.843 5.186-.59.898-1.437 1.224-5.182 1.045-12l-.26-9.91h-2.888c-1.877 0-2.735.438-2.451 1.25.241.688 1.178 1.118 2.084.956.905-.161 1.639.064 1.631.5-.065 3.342-7.503 4.388-8.516 1.197-.442-1.394-.995-1.711-1.806-1.038-.77.639-1.764.534-2.916-.308-2.141-1.566-2.288-2.702-.247-1.919 1.726.663 2.054-1.178.392-2.205-.707-.436-.105-1.545 1.662-3.064 1.523-1.308 3.034-2.09 3.358-1.737.323.353.026.843-.662 1.088-.687.246-1.25.907-1.25 1.47s.752.736 1.67.383c.919-.352 1.998-.11 2.399.539 1.189 1.923 4.161.186 3.46-2.022-.868-2.734.429-7.09 2.111-7.09 2.005 0 2.934-3.023 1.256-4.086-1.049-.664-1.077-.887-.111-.899.988-.011 1.03-.492.181-2.079-.708-1.322-.763-2.49-.153-3.25 1.291-1.607 1.448-11.965.17-11.176-.541.335-.983.112-.983-.495 0-.606-.562-1.03-1.25-.94-2.543.33-3.851-.103-3.25-1.075.626-1.012.168-1.158-4.717-1.507-1.495-.107-3.402-.762-4.238-1.455-.836-.694-2.167-1.013-2.959-.709-.792.304-1.995-.117-2.675-.936-.888-1.07-1.434-1.165-1.946-.337-.535.867-1.24.867-2.858.001-2.778-1.486-3.618-.888-3.897 2.776-.194 2.543.069 2.907 1.781 2.459 2.514-.657 2.519-.186.03 2.684-1.089 1.255-1.766 2.627-1.506 3.048.26.422-.26 1.048-1.157 1.392-1.506.578-1.505.764.008 2.436.901.996 1.374 2.075 1.051 2.398-.324.323.314 1.071 1.417 1.661 1.492.799 2.133.755 2.506-.169.296-.732.534-.524.581.508.053 1.167-.67 1.755-2.171 1.765-1.819.013-1.963.201-.75.985 1.282.828 1.246.972-.25.985-.962.008-1.75.676-1.75 1.484 0 .809.596 1.24 1.328.959.73-.28 2.603-.025 4.162.568 1.958.745 3.157.757 3.873.041.716-.716.356-1.037-1.163-1.037-1.21 0-2.2-.408-2.2-.906 0-.499.9-.671 2-.384 1.611.421 2 .031 2-2.005 0-1.458.529-2.447 1.25-2.336 1.89.291 5.718 3.873 5.14 4.809-.28.452.081.829.801.837.951.011.899.281-.191.985-1 .646-1.083.974-.25.985.688.008 1.25.435 1.25.948 0 .513-1.348.895-2.996.848-2.011-.057-2.72-.446-2.155-1.183 1.989-2.597 2.095-4.598.245-4.598-2.539 0-3.802 6.009-1.601 7.619.949.693 1.281 1.807.864 2.894-.644 1.677-.747 1.674-2.018-.064-.933-1.276-1.339-1.409-1.339-.44 0 1.082-.267 1.124-1.2.191-1.451-1.451-3.165-1.6-2.3-.2.877 1.419-.844 1.242-2.425-.25-1.069-1.009-1.238-.961-.872.25.25.825 1.403 1.64 2.563 1.811 1.988.294 2.014.423.449 2.25-.913 1.067-2.065 1.939-2.56 1.939-.495 0-.385-.62.244-1.378.899-1.084.703-1.493-.919-1.917-1.718-.449-1.953-.194-1.406 1.529.517 1.627.312 1.936-.959 1.449-.888-.341-1.615-.226-1.615.255s-.9.639-2 .352c-1.118-.293-2-.031-2 .593 0 .615-.986 1.117-2.191 1.117-2.142 0-2.148-.033-.25-1.474 1.834-1.392 1.774-1.456-1.08-1.158-2.783.291-7.479 2.215-7.479 3.065 0 .199 1.415.296 3.143.214 1.729-.081 3.33.38 3.558 1.024.271.768-.349.972-1.8.593-1.525-.399-1.991-.219-1.498.578.443.719.009 1.158-1.144 1.158-1.022 0-2.369.51-2.992 1.133-1.491 1.491-3.851.513-5.301-2.197-.641-1.198-.722-1.903-.179-1.568.982.607 2.549-3.365 1.673-4.241-.253-.253-.46.12-.46.829 0 1.032-.299 1.041-1.5.044-.825-.685-1.5-1.827-1.5-2.539 0-.712-.562-1.521-1.25-1.799-.687-.277.347-.54 2.3-.583 1.952-.043 4.09.461 4.75 1.121.66.66 1.2.83 1.2.378 0-.453.675-.263 1.5.422s1.538 1.077 1.583.872c.896-4.005.454-4.69-3.425-5.311-2.752-.44-4.238-.24-4.784.642-.52.842-1.119.941-1.749.289-1.518-1.572-1.745-4.742-.374-5.222.797-.279 1.03.137.643 1.146-.405 1.055-.051 1.584 1.058 1.584.916 0 1.386-.454 1.043-1.008-.343-.555.418-1.427 1.691-1.937 2.053-.824 1.891-.935-1.436-.992-2.062-.034-3.75-.513-3.75-1.063 0-.55.45-1 1-1s1-.765 1-1.7c0-1.322-.267-1.433-1.2-.5-.66.66-2.122 1.236-3.25 1.279-1.127.043-1.487.306-.8.583 2.041.824 1.42 2.195-.739 1.631-1.094-.286-1.766-.881-1.494-1.321.273-.441-.07-1.029-.761-1.308-.691-.278-.244-.542.994-.585 2.653-.093 2.8-.672.702-2.769-1.913-1.914-1.276-2.706 1.473-1.834 1.141.362 2.075 1.359 2.075 2.214 0 1.263.279 1.323 1.487.321 1.775-1.473 4.513-.653 4.513 1.351 0 .783.675 1.683 1.5 2 .825.316 1.5.139 1.5-.393 0-.533-.419-.969-.932-.969-.512 0-.791-1.237-.62-2.75.422-3.728-.177-4.435-2.525-2.98-2.463 1.527-3.858-.161-3.158-3.822.309-1.617-.073-2.629-1.151-3.043-.888-.34-1.614-1.497-1.614-2.571s-.451-1.673-1.003-1.332c-.667.412-.655 1.269.035 2.559 1.337 2.497.501 2.472-2.032-.061-1.1-1.1-3.238-2.014-4.75-2.03-2.359-.026-2.5-.176-.992-1.055.967-.563 2.204-.747 2.75-.41.546.337.992.136.992-.446 0-.582-1.077-1.059-2.393-1.059-2.691 0-4.362-2.904-2.391-4.155.839-.532.309-.82-1.525-.83-1.545-.008-2.55-.434-2.234-.946.317-.512.096-1.227-.489-1.589-.735-.454-.745-1.044-.032-1.902.784-.946.314-1.245-1.957-1.245-1.645 0-2.934.488-2.866 1.084m-100.467 69.988c-.751 2.862.701 5.117 2.556 3.97.439-.271.798.209.798 1.066 0 .892-.855 1.559-2 1.559-1.1 0-2 .436-2 .969 0 .532.72.692 1.601.354.88-.338 1.893-.144 2.25.431.357.576 1.549 1.204 2.649 1.396 2.003.35 3.903 4.388 2.86 6.076-.305.494-1.748 1.418-3.207 2.055-2.588 1.129-2.547 1.166 1.68 1.5 3.161.25 4.192.711 3.81 1.706-.379.99.215 1.266 2.167 1.007 1.48-.196 3.504-.387 4.499-.425 2.381-.091 1.13-2.069-1.309-2.069-1.035 0-2.19-.498-2.566-1.107-.461-.746.012-.886 1.446-.431 1.482.47 2.318.185 2.748-.936.797-2.077-.476-3.389-1.571-1.619-.528.855-1.332 1.033-2.195.486-.749-.474-1.812-.879-2.362-.899-.55-.02-.867-1.725-.704-3.79.315-3.986-1.37-6.679-3.694-5.905-.766.256-1.098.004-.747-.564.348-.564-.004-1.27-.783-1.569-.909-.349-1.217-1.372-.858-2.855.458-1.896.318-2.086-.778-1.061-1.828 1.71-2.722 1.569-3.159-.5-.258-1.225-.597-.878-1.131 1.155m164.895-.574c.609 2.2.4 2.322-3.698 2.158-6.319-.254-6.843-.14-6.843 1.477 0 .806-1.379 2.876-3.065 4.6l-3.064 3.135 4.314-.549c2.373-.303 4.396-.573 4.495-.601.099-.028-.197-1.367-.658-2.976-1-3.484-.56-4.075 3.033-4.075 2.309 0 2.82.521 3.365 3.427.354 1.885 1.192 3.629 1.862 3.875.95.349.943.739-.032 1.773-1.855 1.966-1.56 2.403 1.785 2.637 2.626.184 3.109-.183 3.623-2.75.325-1.629.986-2.962 1.467-2.962 1.16 0 1.108 1.695-.121 3.993-1.217 2.274-.31 5.062 1.431 4.394.744-.286 1.075-1.5.8-2.937-.388-2.03-.071-2.45 1.848-2.45 1.802 0 2.05-.267 1.117-1.2-.66-.66-1.2-2.01-1.2-3 0-1.944-1.497-2.423-2.5-.8-1.375 2.224-4.362-2.057-3.664-5.25.09-.413-.349-.75-.976-.75s-1.775-.788-2.552-1.75c-1.295-1.606-1.359-1.558-.767.581M210.557 796.75c-1.069.259-2.792 1.551-3.83 2.87-1.038 1.319-2.261 2.168-2.718 1.885-.458-.282-1.152 1.401-1.543 3.741s-1.218 4.631-1.838 5.091c-.659.488-.109.61 1.32.292 1.346-.3 2.986-.099 3.644.447.818.679 1.681.508 2.731-.541 2.34-2.34 4.331-1.915 2.177.465-1.012 1.118-1.304 2-.663 2 .63 0 1.68-.855 2.333-1.9.652-1.045 1.781-1.672 2.508-1.393 2.171.833 1.495-1.324-.725-2.315l-2.048-.913 2.087-2.24 2.086-2.239-3.789-.15c-2.836-.112-3.123-.252-1.143-.556 2.166-.333 7.15-4.113 5.759-4.368-2.787-.512-4.739-.566-6.348-.176m192.948 10.235c-.352 1.108-1.509 2.015-2.572 2.015-2.321 0-2.56 1.545-.37 2.386.86.33 1.265 1.084.899 1.675-.365.591-1.279.839-2.031.551-.752-.289-1.633-.094-1.958.432-.325.526-1.464.956-2.532.956-2.228 0-2.63-2.869-.691-4.925 1.009-1.069.961-1.238-.25-.872-.825.25-1.658 1.543-1.851 2.875-.193 1.332-.868 2.753-1.5 3.157-.975.623 3.169 1.272 5.613.879.42-.067.479 1.651.133 3.819-.568 3.55-.439 3.891 1.304 3.435 1.497-.391 1.837-1.168 1.504-3.437-.455-3.1 1.4-4.196 1.997-1.181.235 1.187.583 1.374 1.083.581.404-.644.024-1.881-.845-2.75-.93-.93-1.111-1.581-.438-1.581 1.7 0 3.72 2.339 3.247 3.759-.228.683.299 1.241 1.17 1.241.957 0 1.583-.857 1.583-2.167 0-1.191.317-1.85.704-1.462.387.387.725 1.924.75 3.416.025 1.492.609 2.713 1.296 2.713 1.92 0 1.624 1.833-.426 2.641-1.689.665-1.677.729.176.868 1.101.082 1.438.376.75.653-1.697.685-1.586 2.338.156 2.338.918 0 1.224.7.88 2.015-.399 1.524-.146 1.869 1.035 1.415.859-.329 1.701-1.795 1.871-3.256.197-1.704 1.014-2.791 2.276-3.031 1.744-.331 1.808-.181.564 1.318-1.106 1.333-1.138 1.855-.153 2.464 1.625 1.004 6.267.12 5.54-1.056-.306-.496-.976-.643-1.488-.326-.512.316-.935-.464-.939-1.734-.007-2.224-3.573-4.809-6.632-4.809-1.916 0-2.561-1.757-1.425-3.879 1.073-2.004-1.038-3.793-3.025-2.565-1.234.762-1.149-1.241.157-3.681.819-1.531.761-1.952-.25-1.816-2.797.378-3.612-.128-3.136-1.946.675-2.581-1.378-3.644-2.176-1.128m67.057 1.965c-1.615 1.065-3.19 1.784-3.5 1.598-.309-.186-1.142.29-1.851 1.057-.83.897-.898 1.395-.191 1.395.604 0 .773.526.375 1.17-.477.772-.19.965.844.569.862-.331 2.262-.07 3.112.58 1.943 1.485 2.59 6.817.899 7.409-.687.241-1.25-.26-1.25-1.113 0-.986-.561-1.337-1.537-.962-.846.324-2.412-.202-3.481-1.17-1.59-1.438-2.221-1.529-3.463-.499-1.252 1.04-1.519.976-1.519-.362 0-.892-.702-1.622-1.559-1.622s-1.281-.45-.941-1c1.242-2.009-.651-3.174-2.474-1.523-2.142 1.938-2.464 6.628-.401 5.837.756-.291 1.375-.003 1.375.638s-.45.888-1 .548c-.55-.34-1-.141-1 .441s.45 1.059 1 1.059 1 .955 1 2.122c0 1.634-.301 1.873-1.307 1.038-.975-.809-1.655-.601-2.682.824-.756 1.05-1.734 1.687-2.172 1.416-.439-.271-1.718 0-2.842.602-2.013 1.077-5.752-.914-4.349-2.316.304-.304.218-1.094-.19-1.755-.512-.827-1.154-.459-2.065 1.184-1.594 2.876-1.751 4.224-.393 3.385.55-.34 1 .084 1 .941s-.765 1.559-1.7 1.559c-1.322 0-1.433.267-.5 1.2 1.874 1.874 1.412 3.002-.925 2.26-1.333-.423-2.445-.168-2.985.683-.632.998-.863 1.027-.875.107-.021-1.738-1.797-1.572-2.192.205-.26 1.173-.81 1.06-2.823-.579l-2.5-2.034 2.809.613 2.809.613-2.546-3.747c-1.675-2.465-2.208-4.085-1.559-4.734 1.514-1.514 1.173-2.596-.603-1.914-.985.378-1.432 1.432-1.176 2.771.227 1.189-.207 2.742-.966 3.45-1.438 1.343-1.361 4.981.087 4.106.455-.275 1.476.737 2.268 2.25 1.394 2.66 5.377 3.912 5.377 1.691 0-.582.441-.787.979-.454.539.333 1.862.133 2.94-.443 1.078-.577 2.165-.711 2.415-.297.531.876-1.891 3.362-2.592 2.662-.259-.259-1.217.668-2.13 2.06-1.639 2.502-1.626 2.531 1.165 2.531 1.553 0 3.363-.54 4.023-1.2.66-.66 1.207-.772 1.215-.25.009.522.434.288.946-.521.512-.809 1.244-1.157 1.627-.774s.196 1.301-.417 2.039c-.83 1.001-.748 1.866.326 3.398 1.286 1.836 1.229 2.246-.529 3.837-2.228 2.016-2.585 3.559-.718 3.104.688-.168.913-.116.5.114-1.526.854-.683 2.253 1.357 2.253 1.396 0 1.926-.473 1.569-1.401-.328-.855.28-1.616 1.558-1.95 1.529-.4 1.828-.899 1.107-1.848-2.198-2.895-1.392-5.681 1.477-5.106 1.475.296 3.245.561 3.932.588 1.649.066 1.535 1.757-.282 4.158-1.28 1.693-1.468 1.725-1.468.25 0-.93-.771-1.691-1.714-1.691-1.588 0-1.594.121-.077 1.637 1.314 1.314 1.405 2.011.464 3.531-.937 1.512-.871 2.088.327 2.861 2.614 1.688 4.525.637 4.212-2.315-.201-1.9.173-2.714 1.25-2.714.846 0 1.538-.45 1.538-1s.45-1 1-1 .888.542.75 1.205c-.137.662.313 1.281 1 1.375.688.093 1.363.284 1.5.423.75.758 4.75.581 4.75-.211 0-1.993 2.615-3.587 4.319-2.633.943.527 1.681.55 1.681.051 0-.489-1.125-1.402-2.5-2.028-1.375-.627-2.5-1.599-2.5-2.161 0-.561-.648-1.021-1.441-1.021s-1.766-.526-2.164-1.17c-.486-.787-.178-.961.941-.531.915.351 1.664.24 1.664-.247s-.562-1.112-1.25-1.39c-.687-.277-.238-.54 1-.583 1.754-.062 2.25.472 2.25 2.421 0 1.375.45 2.556 1 2.625.55.069 1.563.193 2.25.276.688.082 1.798-.536 2.468-1.375 1.081-1.354 1.222-1.338 1.25.141.018.916-.53 1.867-1.218 2.113-.727.259-.879.817-.363 1.333s1.074.364 1.333-.363c.246-.687 1.084-1.25 1.863-1.25.78 0 1.417-.399 1.417-.887 0-.487 1.35-1.084 3-1.326 3.421-.502 3.638-.15 1.417 2.305-1.454 1.607-1.413 1.84.5 2.864 1.385.741 2.083.767 2.083.079 0-.569.858-1.035 1.906-1.035 1.414 0 1.772-.517 1.384-2-.629-2.405 1.209-2.644 3.41-.442.857.856 2.24 1.295 3.074.975.833-.319 2.35.174 3.371 1.098 1.618 1.464 1.855 1.481 1.855.131 0-.851-.704-1.818-1.563-2.148-.86-.33-1.279-1.06-.931-1.623.348-.563 1.051-.765 1.563-.448.551.34.884-3.022.815-8.234-.064-4.845-.322-8.021-.573-7.059-.252.962-1.052 1.75-1.777 1.75-1.543 0-2.966-3.07-1.818-3.92 2.074-1.534 1.255-3.797-1.203-3.327-1.577.301-2.513.024-2.513-.743 0-.673-.609-.99-1.353-.705-.744.286-2.06-.306-2.924-1.315-1.756-2.051-.829-2.864 4.224-3.704 1.346-.224 3.146-.856 4-1.404 1.119-.718.528-.833-2.111-.41-3.316.531-3.614.394-3.133-1.443.405-1.55.048-2.029-1.515-2.029-1.125 0-2.679-.634-3.454-1.409-.825-.825-1.947-1.078-2.704-.61-.936.579-.636 1.018 1.088 1.586l2.382.786-2.5.665c-1.375.365-3.062.231-3.75-.299-.86-.664-1.255-.536-1.265.409-.01.826-.308.974-.75.372-.404-.55-1.41-1-2.235-1-1.642 0-2.114-2.617-.655-3.638.947-.663.057-2.867-1.154-2.855-.38.003-2.013.878-3.629 1.943M363.5 817c-.34.55-.115 1 .5 1s.833.462.484 1.027c-.349.564-1.163.961-1.809.881-3.215-.397-6.726.201-6.198 1.056.328.529-.236 1.795-1.253 2.812s-1.671 2.383-1.453 3.037c.218.653-.046 1.187-.585 1.187-.54 0-.869 1.678-.732 3.729.2 2.996.72 3.848 2.647 4.338 1.32.336 2.286 1.133 2.149 1.772-.137.638.538 1.147 1.5 1.129 2.152-.039 5.457-2.428 4.576-3.308-.353-.354-1.226-.158-1.94.435-1.392 1.155-3.386.435-3.386-1.221 0-.555.897-.724 1.994-.376 1.53.486 1.854.269 1.393-.933-.331-.861-.103-1.565.506-1.565s1.107-.73 1.107-1.622c0-1.308-.283-1.388-1.456-.414-.801.664-1.894.938-2.428.608-.535-.331-1.26.305-1.611 1.413-.911 2.871-2.977 2.493-3.155-.576-.117-2.03.237-2.489 1.639-2.122.984.257 2.402.08 3.15-.394 1.063-.674.978-.866-.389-.878-2.163-.019-2.366-3.565-.25-4.377 1.453-.557 1.932.429 1.555 3.2-.131.954.48 1.133 2.131.625 3.182-.979 3.293-1.18 1.707-3.101-1.087-1.317-1.117-1.78-.137-2.11.691-.233.955-.911.586-1.507-.412-.667-.091-.863.835-.507 2.775 1.065 4.609-1.058 2.382-2.757-2.279-1.738-3.213-1.849-4.059-.481m-234.355 27.627c-2.555 1.115-3.233 1.93-2.843 3.419.281 1.075.033 1.954-.551 1.954-.583 0-.375.788.464 1.75 1.615 1.855 1.351 4.25-.47 4.25-.598 0-1.87.708-2.826 1.573-1.591 1.441-1.79 1.408-2.362-.392-.343-1.081-1.621-2.239-2.84-2.573-1.703-.467-1.903-.811-.86-1.483.946-.61 1.022-1.082.25-1.559-.609-.376-1.114-.095-1.122.625-.012 1.027-.203 1.013-.889-.069-.48-.758-1.382-1.063-2.006-.678-.756.468-.378 1.33 1.139 2.595 1.934 1.614 2.012 1.899.521 1.928-.963.018-1.75.421-1.75.894 0 .474-1.192.634-2.649.355-1.737-.332-2.419-.136-1.983.57.365.592.207 1.358-.352 1.704-.559.345-1.016 1.141-1.016 1.769 0 .822.336.805 1.2-.059.66-.66 2.46-1.2 4-1.2s2.8-.477 2.8-1.059.412-.805.915-.494c.503.311 1.131 0 1.396-.691.458-1.194 4.164 2.745 4.182 4.444.04 3.871 5.84 1.504 6.652-2.714.288-1.496 1.23-2.011 3.819-2.086 1.89-.055 3.609-.62 3.821-1.256.212-.636.797-.902 1.3-.591.503.311.915-.059.915-.821 0-.971-.898-1.254-3-.945-2.392.351-3 .073-3-1.374 0-1.41-.267-1.546-1.2-.613-1.633 1.633-2.8 1.508-2.8-.3 0-.825.705-1.5 1.567-1.5 1.092 0 1.382-.584.957-1.925-.463-1.458-.074-2.003 1.604-2.25 2.369-.348 3.943-2.88 1.705-2.743-.733.044-2.843.74-4.688 1.545M477 851c0 .55-.675 1-1.5 1s-1.5.73-1.5 1.622c0 1.294-.29 1.382-1.43.436-1.145-.951-1.656-.766-2.561.925-.789 1.475-1.716 1.927-3.07 1.498-1.376-.437-1.939-.144-1.939 1.011 0 .894-.403 1.377-.895 1.073-.493-.305-1.169.161-1.504 1.033-.401 1.046.051 1.76 1.326 2.093 2.296.6 1.654 3.309-.784 3.309-1.086 0-1.643.848-1.643 2.5 0 1.375.337 2.5.75 2.5s.75-.477.75-1.059.45-.781 1-.441 1 .115 1-.5.403-.869.895-.565c.493.305 1.168-.156 1.5-1.023.846-2.203.759-2.625-.395-1.912-.55.34-1 .167-1-.384 0-1.05 3.886-4.116 5.216-4.116 1.204 0 .242 4.347-1.058 4.781-.637.212-1.158 1.234-1.158 2.271 0 1.384.465 1.707 1.75 1.215 2.448-.937 5.277-4.52 4.752-6.017-.242-.687.222-1.25 1.029-1.25.808 0 1.469.482 1.469 1.071 0 1.641 2.366 3.64 3.759 3.176 1.762-.587 1.562-7.735-.259-9.247-1.811-1.503-2.01.05-.25 1.947 1.023 1.102.917 1.23-.582.7-1.007-.356-2.02-.647-2.25-.647-.823 0-.399-4.168.617-6.066.815-1.522.708-1.934-.5-1.934-.844 0-1.535.45-1.535 1m14.856-.523c-.263.263-1.575.643-2.917.844-1.76.265-2.526 1.091-2.75 2.968-.205 1.716-.776 2.423-1.677 2.077-.974-.374-1.21.073-.822 1.555.711 2.719 2.147 2.645 3.279-.171.676-1.682.92-1.815.968-.527.053 1.46.987 1.689 6.103 1.5 5.804-.214 6.029-.321 5.75-2.723-.168-1.452-1.234-2.914-2.54-3.487-1.238-.543-2.25-1.331-2.25-1.75 0-.835-2.378-1.051-3.144-.286m-196.514 23.484c.326 1.629.157 3.23-.375 3.559-.532.329-.967.121-.967-.461 0-.582-.498-1.059-1.107-1.059s-.848.675-.531 1.5c.316.825.139 1.5-.393 1.5-.533 0-.856.506-.719 1.125s-.312 1.331-1 1.583c-.687.252-1.25-.28-1.25-1.184 0-.903-.457-1.359-1.016-1.014-.559.346-.783 1.006-.497 1.469 1.075 1.739-.634 4.144-2.087 2.938-1.079-.895-1.581-.571-2.383 1.539-1.31 3.445-1.297 3.544.483 3.544.825 0 1.5-.45 1.5-1s.477-1 1.059-1 .781.45.441 1c-.998 1.615.47 1.157 3.725-1.16 2.462-1.754 3.383-1.942 4.89-1 1.022.638 2.266 1.16 2.766 1.16 1.407 0 .785-4.913-.695-5.481-.911-.35-.461-1.239 1.468-2.898 2.911-2.503 2.17-5.621-1.335-5.621-.791 0-1.159-.45-.819-1 .34-.55.085-1-.566-1-.779 0-.981 1.013-.592 2.961" fill="#d3d3d3" fill-rule="evenodd"/></svg>