<svg xmlns="http://www.w3.org/2000/svg" width="500" height="500"><path d="M349.439 8.703c-1.611 1.612-8.162 2.554-8.945 1.287-.55-.89-2.418-.795-4.013.204-.561.351-3.598.536-6.75.411-3.152-.125-5.731.139-5.731.587 0 .448 12.658.796 28.13.774 31.619-.044 35.119-.643 14.054-2.402-3.474-.29-6.736-.787-7.25-1.105-.514-.317-.934-.13-.934.416 0 .545 1.238 1.18 2.75 1.409 1.512.229-.288.484-4 .566-6.801.151-9.542-1.449-3.5-2.043l3.25-.319-2.806-.616c-1.822-.4-3.315-.108-4.255.831M68.934 25.912c-.036 8.573.077 52.263.25 97.088.426 110.004-.078 352.71-.741 356.75-.498 3.032-.346 3.245 2.262 3.171 1.537-.043 2.233-.306 1.545-.583-.995-.402-1.25-47.692-1.25-231.761V19.321l2.413-1.1c1.328-.604 2.692-1.978 3.033-3.052.341-1.074 1.618-2.221 2.837-2.547 1.219-.327 38.18-.601 82.134-.608 43.954-.008 79.686-.244 79.405-.525-.281-.281-39.056-.659-86.167-.839L69 10.323l-.066 15.589M247 140.366c0 1.065-.934 1.19-4.25.566-3.628-.682-18.528.525-19.6 1.588-1.084 1.074 1.483 2.614 3.793 2.275 1.488-.218 3.252.188 3.921.904.963 1.031.895 1.301-.325 1.301-2.155 0-1.916 2.251.575 5.418 2.443 3.106 2.551 2.889-2.486 4.977-3.436 1.424-3.718 1.792-2.5 3.259 1.807 2.178 1.935 10.584.15 9.899-.771-.296-1.278.291-1.278 1.478 0 1.083.525 1.969 1.167 1.969.641 0 .835.332.429.737-.405.406-1.454.743-2.33.75-.877.007-1.783.576-2.013 1.263-.231.688.283 1.25 1.142 1.25 1.276 0 1.366.43.494 2.344-.803 1.762-1.667 2.23-3.479 1.884-1.493-.286-2.41.008-2.41.772 0 .771-.923 1.057-2.465.762-1.356-.259-2.619-.009-2.808.556-.188.564-1.773-.031-3.522-1.325-5.103-3.772-4.73-1.705.983 5.447 2.922 3.658 5.557 7.64 5.856 8.85.689 2.786 3.449 3.36 5.637 1.172 1.526-1.526 1.792-1.536 2.836-.108.877 1.2 1.431 1.298 2.318.411s1.165-.64 1.165 1.035c0 3.57-.066 3.713-1.566 3.406-1.63-.334-1.95 1.357-.434 2.294.55.34 1 1.786 1 3.214 0 2.456-.099 2.506-1.838.933-1.719-1.556-1.952-1.536-3.632.319-.986 1.091-2.545 2.221-3.463 2.513-1.094.347-2.081 2.529-2.868 6.335-2.046 9.908-1.675 12.166 2.804 17.066 3.859 4.222 4.172 4.36 8.689 3.851 2.578-.29 5.2-1.231 5.829-2.09.628-.859 2.343-2.019 3.81-2.577 1.468-.558 2.669-1.675 2.669-2.483 0-2.033 3.881-4.561 5.865-3.818 1.353.506 1.423.35.405-.904-.851-1.049-.956-2.467-.341-4.612.489-1.703.629-3.355.313-3.672-.316-.316.169-.575 1.078-.575 2.288 0 9.484-5.115 10.22-7.265.332-.97.98-1.532 1.439-1.248.459.284.6-.497.314-1.736l-.521-2.251 1.671 2.25c1.584 2.134 4.321 3.295 3.097 1.314-.318-.515 1.568-1.247 4.191-1.627 6.225-.903 6.726-1.275 4.713-3.499-.961-1.062-1.412-2.579-1.048-3.528.351-.915.169-2.229-.404-2.92-.75-.904-.622-1.418.456-1.832.825-.316 1.898.139 2.387 1.011.696 1.245 1.293 1.35 2.776.489 1.039-.604 1.496-1.111 1.017-1.128-.48-.016-.331-.683.332-1.482 1.606-1.935.341-5.753-1.77-5.346-.902.174-2.207 1.437-2.9 2.807-1.237 2.445-1.261 2.449-1.275.241-.008-1.238-.492-2.25-1.074-2.25-.582 0-.781-.45-.441-1s.131-1-.464-1c-.628 0-.394-1.049.556-2.5.901-1.375 2.351-2.5 3.223-2.5 1.233 0 1.318-.267.385-1.2-1.435-1.435-1.604-6.494-.232-6.967.546-.188.607-.913.14-1.665-.677-1.09-1.582-1.106-4.974-.09-4.735 1.419-5.756.952-4.215-1.927 2.017-3.768-.457-14.773-4.266-18.982-.909-1.005-1.653-2.305-1.653-2.891 0-1.833-2.817-2.521-14.667-3.584-3.775-.338-3.822-1.694-.059-1.694 1.985 0 3.886-.45 4.226-1 1.207-1.953 7.5-1.192 7.5.906 0 1.403.519 1.771 1.964 1.393 1.081-.282 1.868-1.028 1.75-1.656-.143-.764 2.933-1.309 9.286-1.643 8.556-.45 9.267-.633 7.157-1.835-1.7-.968-4.776-1.181-11.207-.776-5.31.335-9.105.169-9.466-.415-.954-1.544-7.484-1.202-7.484.392m-10.222 14.904c-3.74 2.261-4.741 3.511-4.763 5.949-.01 1.129.506 1.518 1.504 1.135 1.261-.484 1.35-.14.524 2.032-.987 2.598-.535 4.55 2.112 9.114.638 1.1 1.468 2.675 1.845 3.5 2.054 4.502 13.344 5.904 17.337 2.154 1.26-1.185 2.764-2.154 3.342-2.154 1.627 0 4.28-8.175 3.651-11.25-.31-1.512-.911-2.75-1.336-2.75-.425 0-1.363-1.996-2.083-4.435-1.363-4.616-3.968-6.406-5.914-4.062-1.091 1.315-7.997 1.674-7.997.415 0-1.697-5.202-1.474-8.222.352m-76.915 147.98c-.2 21.038-.204 47.587-.01 59l.352 20.75H336V265h-17c-9.35 0-16.998.113-16.997.25.002.137 1.352 3.559 3 7.604 4.718 11.576 4.512 12.146-4.381 12.146-6.228 0-7.592.309-8.75 1.982-1.034 1.494-2.851 2.094-7.372 2.434-3.3.249-6.675.553-7.5.676-3.57.531-9-.181-9-1.182 0-1.951-4.229-4.589-6.623-4.131-2.185.417-2.285.765-1.717 5.972.4 3.67.258 5.316-.424 4.895-1.693-1.047-2.19 1.974-.679 4.131 1.317 1.882 1.172 2.051-2.326 2.702-2.052.381-7.632 2.503-12.4 4.715-8.626 4.001-8.682 4.012-11.225 2.164-1.406-1.022-2.809-2.604-3.119-3.516-.31-.911-1.25-1.921-2.088-2.243-.839-.321-1.215-1.088-.834-1.704.38-.615.154-1.451-.503-1.857-.657-.406-1.29-1.368-1.407-2.138-.116-.77-.563-1.962-.992-2.65-.513-.821-.16-1.277 1.028-1.329 1.06-.046 1.289-.289.553-.585-.691-.279-1.022-.886-.736-1.349.287-.464-.385-1.131-1.493-1.482-1.108-.352-2.015-1.059-2.015-1.572 0-.513-1.139-.933-2.531-.933-1.499 0-2.795-.714-3.177-1.75-.356-.962-1.069-2.034-1.587-2.382-.517-.347-1.124-3.272-1.348-6.5-.359-5.165-.113-6.184 2.058-8.511 1.357-1.453 2.193-2.915 1.859-3.25-.334-.334-13.081-.607-28.328-.607h-27.72l-.363 38.25M199 318.634l-5.5 2.614 3 1.331c1.65.732 3.563 1.351 4.25 1.376 1.775.064 1.56 4.045-.219 4.045-.946 0-1.268.622-.905 1.75.383 1.19.278 1.357-.328.521-.674-.931-1.284-.769-2.514.668-1.506 1.76-1.485 2.022.296 3.634 1.753 1.586 1.92 1.593 1.92.082 0-.91.659-1.655 1.465-1.655 1.974 0 3.779-3.543 4.585-9 .366-2.475 1.002-5.288 1.415-6.25 1.056-2.466-.906-2.234-7.465.884m3.385 20.831c.888 1.355 1.615 3.182 1.615 4.059 0 .877.461 1.309 1.025.961.563-.349.901-.139.75.466-.151.605 1.075 1.876 2.725 2.824 1.65.949 3.225 1.983 3.5 2.298.275.315 1.316.874 2.313 1.243.998.368 1.534 1.123 1.191 1.677-.342.554.102 1.007.987 1.007.884 0 2.936.687 4.559 1.526 3.386 1.751 3.454 1.617 1.519-3.016-.936-2.238-2.582-3.908-4.75-4.816-4.795-2.008-14.819-8.587-14.819-9.725 0-.533-.502-.969-1.115-.969-.685 0-.492.951.5 2.465" fill="#d3d3d3" fill-rule="evenodd"/></svg>