<svg xmlns="http://www.w3.org/2000/svg" width="500" height="317"><path d="M216 15.599c-1.925.823-4.733 3.275-6.24 5.449-2.301 3.317-6.13 5.977-4.267 2.963.356-.576-.066-.728-1.013-.365-.927.356-2.863-.293-4.512-1.511-3.973-2.938-4.384-2.768-5.761 2.379-1.664 6.222-1.594 6.486 1.711 6.486 4.447 0 5.943.904 7.732 4.675 2.166 4.564-.312 8.394-6.246 9.654-12.465 2.648-14.96 4.18-13.946 8.565.395 1.707.293 2.142-.295 1.261-1.044-1.562-2.651 3.247-1.635 4.891.325.525.149.954-.39.954-.538 0-1.277 1.463-1.64 3.25-.364 1.787-2.2 5.793-4.08 8.901-1.88 3.108-3.418 5.969-3.418 6.358 0 1.625-10.199 13.357-13.754 15.821-4.688 3.249-5.245 3.293-5.25.42-.002-1.237-.842-3.626-1.868-5.307-1.025-1.682-2.101-4.607-2.391-6.5-.29-1.894-1.356-5.576-2.37-8.183-1.797-4.619-1.796-4.873.051-10 1.042-2.893 2.227-6.835 2.633-8.76.406-1.925 1.754-5.811 2.994-8.637 2.961-6.742 2.283-8.363-3.5-8.363-5.014 0-4.468-.722-10.156 13.433-1.311 3.263-3.348 6.959-4.527 8.214-2.5 2.661-2.178 8.526.814 14.799 1.381 2.898 1.501 4.042.575 5.524-.642 1.028-1.008 2.694-.814 3.703.974 5.058 2.888 10.894 4.26 12.987.889 1.357 1.087 2.34.47 2.34-1.148 0 .35 5.669 1.969 7.45.475.523.864 1.774.864 2.781 0 1.008.713 2.105 1.584 2.44 1.056.405 1.213.837.47 1.296-.749.463-.371 1.631 1.156 3.573 1.249 1.587 2.133 3.693 1.966 4.68-.167.986.4 2.064 1.26 2.394 2.19.84 1.954 3.226-.883 8.95-2.354 4.746-2.45 4.817-2.5 1.853-.071-4.126-.78-4.61-4.18-2.851-2.187 1.131-2.873 2.195-2.873 4.46 0 2.971-.006 2.974-6.05 2.974-6.85 0-10.086 1.369-14.566 6.165-7.58 8.114-7.106 20.132 1.039 26.344 3.413 2.603 4.055 2.734 10.5 2.135 5.585-.519 6.972-.359 7.44.859.378.985 1.946 1.497 4.587 1.497 3.428 0 4.102.358 4.629 2.459.34 1.352 1.248 2.983 2.019 3.622.771.64 1.402 2 1.402 3.022 0 1.149.955 2.099 2.5 2.486 2.742.689 3.048 2.347 1.588 8.63-.811 3.495.217 29.89 1.542 39.563.937 6.841-.984 10.218-5.81 10.218-2.722 0-3.718.356-3.225 1.155.443.715.275.883-.44.44-.828-.511-1.155 1.143-1.155 5.846 0 5.34-.297 6.559-1.597 6.559-1.63 0-36.073-5.598-40.153-6.526-1.998-.455-2.25-.125-2.25 2.948 0 4.335-.108 4.276 12.24 6.683 14.011 2.732 140.085 25.331 161.76 28.996 9.625 1.628 28.75 5.004 42.5 7.502 30.064 5.462 30.013 5.464 63.092-1.394C407.05 294.516 408 294.13 408 288.651c0-3.506-.211-3.817-2.25-3.323-1.238.3-15.023 2.836-30.633 5.635-25.271 4.531-28.991 4.977-33.913 4.067-6.549-1.211-5.953-.761-6.705-5.06-.334-1.909-1.422-4.855-2.418-6.549-1.789-3.041-1.783-3.106.554-5.355 1.301-1.252 2.439-3.466 2.529-4.921.329-5.294-.404-12.692-1.45-14.645-.602-1.123-1.128-8.36-1.199-16.5-.114-12.941-.384-15.082-2.514-19.911-2.691-6.102-2.996-12.508-.879-18.468 1.219-3.431 1.783-3.902 4.882-4.081 5.889-.34 21.086-11.252 24.001-17.234 3.992-8.194 4.313-9.153 4.703-14.048.763-9.588.656-10.192-2.315-13.11-1.591-1.563-4.902-5.048-7.356-7.745-2.455-2.697-4.818-4.79-5.25-4.653-.433.138-.787-.182-.787-.711 0-2.107-4.356-5.155-5.203-3.641-1.149 2.054-3.379 1.403-5.819-1.699-1.168-1.485-2.698-2.699-3.401-2.699-.702 0-3.257-1.451-5.677-3.225-2.42-1.774-4.754-3.237-5.186-3.25-.433-.014-1.17-.645-1.639-1.403-2.433-3.937-3.633 3.641-1.485 9.378.735 1.962.708 1.964-1.381.131-1.171-1.028-2.072-2.153-2.001-2.5 1.075-5.274-4.375-11.147-9.544-10.283-1.009.169-2.694-.47-3.743-1.42-1.709-1.546-2.612-1.599-8.664-.511-3.716.668-8.187 1.37-9.936 1.56-4.041.439-8.54 2.614-9.127 4.412-.275.842-.008 1.114.676.691 1.504-.929 1.434-.496-.568 3.516-.934 1.872-2.621 4.158-3.75 5.079-1.967 1.605-2.077 1.563-2.642-1l-.591-2.675-1.159 2.815c-1.471 3.569-1.598 8.91-.16 6.685.842-1.303.971-1.286.985.136.008.936-1.589 2.347-3.735 3.298-2.062.913-4.425 2.085-5.25 2.603-.825.518-3.075 1.803-5 2.855-4.654 2.544-11.424 9.093-13.451 13.014-.899 1.738-2.065 2.893-2.592 2.568-.558-.345-.957 1.375-.957 4.126 0 5.391 6.016 14.695 10.637 16.452 9.477 3.603 23.306-5.465 26.832-17.593l1.676-5.765 4.427 8.896c2.436 4.892 4.442 9.574 4.458 10.403.06 3.006 7.568 23.621 10.229 28.085 1.501 2.517 4.042 9.717 5.648 16 1.605 6.282 3.867 14.797 5.027 18.922 1.657 5.894 1.969 8.948 1.457 14.261l-.652 6.761-4.496 1.989c-2.474 1.094-5.291 1.989-6.262 1.989-2.6 0-3.517 4.75-1.375 7.118 1.613 1.782 1.6 1.882-.251 1.882-3.475 0-4.389 1.966-2.016 4.339 1.679 1.679 1.818 2.186.65 2.363-.819.124-24.889-3.696-53.489-8.488l-52-8.714-.322-2.809c-.216-1.884-1.367-3.445-3.5-4.746-2.588-1.578-2.807-1.95-1.178-2.005 1.748-.058 1.696-.188-.408-1.03-2.344-.937-2.291-1.022 2-3.186 3.339-1.685 4.324-2.709 4.06-4.224-1.655-9.501-1.398-12.292 2.608-28.333 1.269-5.082 1.351-6.972.411-9.571-2.451-6.779-1.668-9.269 5.17-16.443 5.578-5.851 8.44-9.741 14.935-20.292.894-1.451 2.827-6.851 4.297-12 1.469-5.148 2.86-9.685 3.09-10.081.229-.395 2.987.445 6.127 1.869 3.141 1.423 7.395 3.277 9.455 4.119l3.745 1.531 5.36-5.068 5.359-5.069-7.104-2.586c-3.908-1.422-7.461-2.583-7.895-2.581-.435.003-2.01-.871-3.5-1.942-1.491-1.071-5.635-2.669-9.21-3.552-3.575-.884-7.314-1.846-8.309-2.14-1.328-.391-.862.708 1.75 4.129 1.957 2.565 3.559 5.754 3.559 7.087 0 2.687-1.465 3.26-2.362.923-.316-.825-.084-1.5.516-1.5.705 0 .638-.546-.192-1.546-.705-.85-1.878-1.316-2.607-1.037-.728.28-1.838-.452-2.467-1.626-.628-1.173-2.521-3.294-4.208-4.712-1.686-1.419-3.434-3.029-3.884-3.579-.449-.55-2.152-2.575-3.783-4.5l-2.965-3.5 4.726-1.362c8.487-2.445 9.686-5.62 3.296-8.727l-3.93-1.911 2.809-5c1.545-2.75 3.932-7.025 5.305-9.5 1.372-2.475 4.352-7.749 6.621-11.719 2.269-3.971 4.125-7.854 4.125-8.628 0-.775.675-3.024 1.5-4.999.825-1.974 1.5-5.395 1.5-7.602 0-4.293-2.733-12.335-3.939-11.59-.4.248-.795-.093-.878-.756-.082-.663-.436-2.686-.786-4.495-1.409-7.292 6.188-10.042 8.871-3.211 1.772 4.51 3.289 4.923 7.097 1.927 3.459-2.72 3.332-5.295-.392-7.947l-3.028-2.155 2.087-3.377c2.859-4.626 4.029-9.157 3.037-11.766-.456-1.2-.845-2.582-.864-3.07-.019-.489-.603-1.24-1.299-1.67-.696-.43-1.386-1.605-1.534-2.611-.699-4.763-6.906-6.496-13.372-3.732m73 138.403c.474 1.651 1.853 4.986 3.064 7.412 1.315 2.633 2.003 5.453 1.708 6.998-.272 1.423-.116 2.588.348 2.588.463 0 1.125 1.238 1.47 2.75 1.135 4.966 7.611 17.25 9.095 17.25 2.185 0 5.315-1.916 5.315-3.254 0-.651 2.276-3.487 5.057-6.304 4.793-4.853 5.082-5.447 5.523-11.369.421-5.637.269-6.3-1.557-6.777-1.113-.291-2.023-.913-2.023-1.381 0-.469-.562-.662-1.25-.43-1.332.451-4.241-.977-12.867-6.318-4.291-2.656-4.82-3.241-2.609-2.884 1.525.247 3.015.059 3.309-.417.294-.476-3.06-.866-7.454-.866h-7.989l.86 3.002m-130.298 3.63c-1.223 1.223-.694 5.632 1.623 13.513l2.247 7.646 3.214-3.828c1.768-2.106 3.211-4.871 3.208-6.146-.007-2.924-1.836-9.609-2.781-10.163-1.635-.96-6.862-1.672-7.511-1.022m11.916 49.618c-4.143 28.522-4.934 37.768-3.363 39.338.326.327 1.865-.015 3.419-.759l2.826-1.354.287-16.987C174.08 210.137 173.613 204 172 204c-.5 0-1.122 1.463-1.382 3.25" fill="#d3d3d3" fill-rule="evenodd"/></svg>