<svg xmlns="http://www.w3.org/2000/svg" width="500" height="373"><path d="M311.327 24.227c.195 1.376 1.616 2.933 3.6 3.947l3.277 1.673-2.775.327c-3.8.447-4.465 2.848-.762 2.756 2.367-.059 2.512-.196.883-.834-1.327-.519-.448-.763 2.75-.763 2.585 0 4.7.393 4.7.873s.628.293 1.395-.417c1.667-1.54 1.13-2.787-1.204-2.795-3.093-.01-9.191-2.073-9.191-3.11 0-1.411 18.373-.439 28.5 1.508 4.4.846 12.298 1.554 17.55 1.573 5.526.02 10.01.495 10.643 1.128.79.79 1.657.79 3.134 0 3.477-1.861 11.167-1.41 11.203.657.029 1.667.079 1.667 1.05 0 .882-1.515 2.862-1.778 14.72-1.957l13.7-.207-14-.586c-7.7-.322-13.647-.679-13.215-.793.432-.114.304-1.107-.285-2.207-1.161-2.17-3.623-2.562-6-.956-1.15.777-.808.948 1.464.735 2.173-.205 3.062.194 3.328 1.491.557 2.72-36.341 1.981-49.292-.987-4.95-1.135-12.711-2.348-17.247-2.696-8.161-.627-8.244-.609-7.926 1.64m129.464-.243c5.306 1.258 9.44 5.889 5.459 6.116-1.167.066-.917.366.75.9 1.375.44 1.947.845 1.271.9-.95.077-.967.673-.076 2.628.664 1.457 1.43 2.079 1.808 1.467 1.372-2.22 3.997.173 3.997 3.644 0 2.623.527 3.633 2.25 4.313 1.785.704 1.278.878-2.459.842-5.609-.055-8.955-2.583-6.316-4.773.839-.696 1.525-1.731 1.525-2.298 0-.568-.892-.226-1.981.76-1.65 1.493-2.243 1.576-3.548.493-1.158-.961-1.255-1.492-.373-2.037 2.525-1.56.083-4.138-3.231-3.41-1.724.379-4.428.778-6.009.888-3.288.227-5.398 1.9-4.412 3.496 1.018 1.646 2.573 1.301 1.911-.424-.417-1.089-.122-1.336 1.057-.884 1.162.446 1.342.984.62 1.854-.559.674-.683 1.583-.275 2.02.825.885-3.202.219-6.173-1.02-1.341-.56-1.7-.453-1.201.355.392.635 2.153 1.527 3.913 1.983 1.759.456 3.345 1.588 3.524 2.516.406 2.107-9.304 2.524-10.181.437-.376-.895-.839-.753-1.633.5-.81 1.28-2.431 1.75-6.033 1.75h-4.925l.6-3c.33-1.65.295-3-.077-3s-1.148 1.35-1.723 3c-.865 2.483-1.589 2.998-4.198 2.986-5.01-.021-7.425-1.011-8.02-3.285-.304-1.162-.811-1.856-1.126-1.54-.5.499.048 3.911 2.021 12.589.29 1.279 1.258 2.243 2.242 2.235 1.142-.01 1.333-.269.56-.76-2.247-1.43-2.769-6.217-.687-6.295 1.722-.065 1.712-.14-.142-1.019-1.555-.738-1.249-.834 1.375-.43 1.856.285 3.945.519 4.642.519.696 0 1.549 1.125 1.894 2.5.379 1.513 1.31 2.469 2.358 2.421 1.044-.048 1.235-.279.481-.583-.687-.278-1.25-1.592-1.25-2.921 0-2.307.295-2.417 6.471-2.417 6.442 0 6.476.015 7.41 3.25l.939 3.25.09-3.25c.086-3.11.262-3.25 4.09-3.25h4v4.941c0 4.599 1.26 7.132 2.788 5.605.36-.36.073-1.014-.636-1.452-.798-.493-1.169-2.285-.971-4.696.285-3.477.635-3.934 3.243-4.231 2.186-.249 2.565-.561 1.5-1.235-1.198-.759-1.176-.904.139-.917.86-.008 2.856 1.335 4.437 2.985 3.215 3.356 5.54 3.892 5.421 1.25-.05-1.113-.268-1.28-.597-.458-.398.992-.844 1.021-1.921.127-3.667-3.043.221-5.261 4.865-2.776 1.399.749 2.253.793 2.475.128.198-.594 2.237-.802 4.909-.501 4.377.493 4.524.427 3.462-1.558-.61-1.14-2.123-2.216-3.362-2.392-3.098-.44-3.557-4.388-.789-6.788 1.53-1.327 1.76-1.982.828-2.356-.739-.297-.436-.558.709-.612 3.207-.152-.374-2.03-3.905-2.049-2.842-.015-2.866.028-1.095 1.985 2.144 2.369.717 2.672-2.059.437-1.336-1.076-1.562-1.721-.724-2.072 2.513-1.052-6.25-8.375-9.889-8.263l-3.328.103 3.291.779M222 30c-1.375.44-9.925.899-19 1.019-9.075.12-15.296.502-13.825.849 2.641.624 2.652.66.839 2.882-2.344 2.874-13.698 3.475-12.621.668.334-.87.607-1.77.607-2 0-.23 1.912-.474 4.25-.541 3.698-.108 3.407-.244-2.243-1.05-4.343-.62-7.255-.579-8.797.123-2.84 1.294-6.21 1.367-6.21.133 0-.504.563-1.171 1.25-1.482.688-.311.35-.455-.75-.32-4.463.549-2.033 3.214 3.719 4.078 4.915.738 5.688 1.144 5.5 2.89-.12 1.117.406 2.251 1.17 2.52.927.328 1.127.065.599-.789-.636-1.029 3.583-1.188 21.611-.813 12.32.257 20.376.132 17.901-.276-2.475-.409-9.416-.776-15.424-.817L189.651 37 192 34.5c2.657-2.828 13.666-3.553 21.388-1.409 2.375.659 4.127.716 4.5.147.337-.513 3.537-1.222 7.112-1.576 4.368-.433 6.008-.324 5 .332-1.021.664 2.01.958 9.5.92 6.633-.033 10.206-.376 9-.863-1.1-.445-5.274-.572-9.275-.284-6.466.467-7.204.342-6.643-1.121.704-1.834-5.66-2.222-10.582-.646m54.054 1.104c-4.074 1.627-5.241 2.966-3.944 4.529.833 1.003.836 1.367.012 1.367-.617 0-1.122-.54-1.122-1.2 0-.897-.315-.88-1.25.067-1.002 1.016-.902 1.525.5 2.561.962.711 1.779 2.143 1.813 3.182.05 1.493.273 1.366 1.058-.602.547-1.371 1.697-2.886 2.556-3.367 1.204-.674 1.274-1.053.304-1.652-.703-.435.236-.632 2.13-.447 1.864.181 4.177.359 5.139.394.962.035 2.538.852 3.5 1.814 1.863 1.863 3.609 2.224 4.833 1 .413-.413.17-.75-.539-.75-1.019 0-1.002-.354.084-1.692 1.168-1.441 1.164-1.566-.033-.845-.897.54-1.172.47-.761-.195.354-.573.031-1.55-.718-2.172-1.545-1.282-4.58-.465-4.686 1.261-.039.629-.457.243-.93-.857-.473-1.1-.891-1.437-.93-.75-.038.688-.547 1.25-1.129 1.25s-.781-.45-.441-1 .141-1-.441-1-1.059.45-1.059 1-.488 1-1.083 1c-2.27 0-.117-2.529 2.665-3.132l2.918-.631-3-.055c-1.65-.031-4.101.384-5.446.922m85.064 13.253c-.095 2.292-.464 2.723-1.868 2.178-.962-.373-3.245-.872-5.071-1.11-1.827-.237-4.223-.914-5.325-1.503-2.297-1.229-8.837-.386-11.369 1.465-1.552 1.135-1.467 1.395.975 2.995 1.724 1.129 3.094 1.424 3.857.83 2.578-2.009 7.947-3.238 9.287-2.125.72.597 1.798.783 2.396.413.598-.37 2.177.041 3.509.914 2.771 1.816 3.886 2.034 2.991.586-.34-.55-.168-1 .382-1s1.283.457 1.628 1.016c.346.559 1.075.74 1.622.402.547-.337 1.821.134 2.832 1.049 1.208 1.094 2.063 1.299 2.496.598.362-.586 4.119-1.126 8.349-1.201 4.23-.075 6.566-.345 5.191-.601s-2.872-.982-3.326-1.614c-.613-.852-.957-.826-1.333.101-.279.688-2.115 1.25-4.079 1.25h-3.572l1.905-2.15c1.902-2.147 1.901-2.149-.818-1.487-2.259.549-2.616.381-2.091-.987.436-1.137.195-1.505-.777-1.184-.775.256-1.556 1.469-1.736 2.696-.51 3.473-4.486 2.432-5.298-1.388l-.638-3-.119 2.857M58.343 84.596c-1.018 2.362-1.862 7.656-2.136 13.404-.256 5.371-.942 9.859-1.58 10.326-.821.602-.787.964.123 1.333 1.593.647 1.628 5.563.05 7.141-1.669 1.669-4.93 1.497-7.642-.402-1.258-.881-2.507-1.382-2.775-1.114-.885.885 4.843 4.717 7.002 4.684 2.642-.039 7.615-4.308 7.615-6.537 0-1.253.555-1.502 2.25-1.009 6.503 1.895 8.75 1.884 8.735-.041-.012-1.41-.227-1.547-.86-.549-1.579 2.491-9.109-.572-9.195-3.74-.061-2.247-.172-2.333-.832-.646-.706 1.803-.81 1.766-1.416-.5-1.346-5.032-.819-11.213.9-10.553.87.334 1.77.607 2 .607.23 0 .418.918.418 2.039 0 1.7.236 1.825 1.416.75.865-.787 1.06-1.659.5-2.239-.504-.522-.968-1.872-1.032-3-.1-1.761-.182-1.796-.584-.247-.371 1.431-.759 1.561-1.884.628-1.834-1.523-1.799-5.08.097-9.617.832-1.991 1.288-3.846 1.013-4.121-.275-.275-1.257 1.257-2.183 3.403m49.869 77.154c.151 44.413.407 91.053.568 103.646l.294 22.895 141.213-.7c77.667-.386 142.001-.932 142.963-1.213 1.652-.484 1.75-6.252 1.75-102.945V81H107.938l.274 80.75M344 125.304c-10.705.939-22.985 5.524-17.952 6.703 2.162.506 2.488 1.191 2.754 5.784.3 5.169-1.249 7.356-2.096 2.959l-.434-2.25-.136 2.25c-.075 1.238-.577 2.25-1.117 2.25-1.06 0-1.821-2.616-2.249-7.723-.167-1.988-.668-2.946-1.309-2.5-.591.411-.869 3.047-.645 6.102l.394 5.379 8.255-.67c4.54-.368 9.33-.837 10.645-1.042 1.314-.205 5.09-.661 8.39-1.012 3.3-.352 7.5-.898 9.333-1.214l3.334-.574-.656-6.123c-.968-9.047-1.26-9.68-4.332-9.398-1.473.135-6.954.621-12.179 1.079m-133 68.137c0 1.042-1.717 1.654-6 2.139l-6 .678v9.918l3.75-.547c13.165-1.92 48.966-1.218 85.25 1.672 2.196.175 2.537-.242 2.803-3.435l.304-3.633-6.122-1.079c-3.368-.593-8.647-2.445-11.731-4.116-7.084-3.837-13.221-4.2-13.317-.788l-.064 2.25-.886-2.202c-.878-2.179-1.127-2.202-24.437-2.259-20.002-.049-23.55.163-23.55 1.402m-1.5 13.234c-2.2.186-5.447.578-7.217.871l-3.216.532-.284 10.684-.283 10.684-8.281 1.975c-5.851 1.397-8.134 2.358-7.781 3.278.275.715.063 1.301-.469 1.301-.533 0-.969.647-.969 1.438 0 .937.925 1.373 2.653 1.25 2.102-.149 2.807.369 3.396 2.499.922 3.33.085 4.357-1.668 2.047-1.249-1.644-1.319-1.643-1.349.016-.044 2.41-2.032 2.223-2.032-.191 0-1.068-.385-2.179-.855-2.469-.47-.291-.839.695-.819 2.191.02 1.495-.304 3.467-.718 4.382-.531 1.168-.213 1.802 1.069 2.134 1.656.428 1.663.482.073.587-.963.064-1.75.566-1.75 1.116 0 1.283-1.107 1.443 13.142-1.893 11.91-2.788 35.165-3.971 80.608-4.101 1.581-.004 2.25-.6 2.25-2.006 0-1.1-.562-2.007-1.25-2.015-.928-.012-.949-.207-.081-.759.642-.409 1.358-2.315 1.59-4.235l.421-3.491.16 3.68c.129 2.958.602 3.766 2.41 4.114l2.25.434-2.25.136c-1.538.093-2.25.769-2.25 2.136 0 1.822.667 2 7.5 2 8.626 0 9.21-.792 4.062-5.507-5.948-5.448-5.946-11.509.006-17.122 2.916-2.75 3.432-3.91 3.432-7.713v-4.476l-6.75-1.072c-11.774-1.868-62.08-3.507-74.75-2.435m-37 29.029c-2.75.861-4.387 1.784-3.637 2.052 1.021.364 1.063.672.168 1.225-.922.57-.9 1.726.099 5.058.891 2.974.962 4.43.227 4.675-1.495.499-.413 5.286 1.194 5.286 3.182 0 6.912-2.095 5.415-3.042-.996-.63-1.065-.932-.216-.943.688-.008 1.25-.915 1.25-2.015s-.398-2-.883-2c-1.016 0-2.107-4.677-1.284-5.5.301-.301 1.1.701 1.776 2.226l1.229 2.774.081-2.668c.044-1.468.354-3.38.688-4.25.416-1.083.022-1.602-1.25-1.645-1.551-.053-1.487-.213.393-.968 1.238-.498 2.25-1.144 2.25-1.437 0-.843-2.119-.512-7.5 1.172m-13.5 3.447a587.668 587.668 0 01-7.25 1.949c-3.453.9-3.75 1.261-3.75 4.555 0 3.242.212 3.516 2.25 2.911 2.974-.881 5.067-1.396 6.059-1.489.445-.043.551-.495.235-1.005-.697-1.128 3.033-2.451 4.447-1.578.555.343 1.009.147 1.009-.435 0-2.047 1.626-1.029 2.701 1.691 1.051 2.661 1.09 2.613 1.193-1.5.069-2.783-.326-4.255-1.144-4.265-.833-.011-.75-.339.25-.985 1.994-1.289-1.089-1.211-6 .151m-24.362 5.852c-5.975 1.552-11.24 3.199-11.701 3.66-.869.869 1.742 13.171 3.122 14.707.43.479 3.376-1.244 6.549-3.828 3.172-2.584 7.479-5.675 9.572-6.87 3.466-1.979 3.805-2.55 3.812-6.422.005-2.338-.105-4.209-.242-4.159-.137.05-5.138 1.36-11.112 2.912M152 249.916c-1.981.568-2.44 1.275-2.212 3.401.305 2.849-1.457 3.708-2.426 1.183-.846-2.204-1.772-1.918-8.365 2.582-9.555 6.522-9.207 6.967 3.161 4.033 8.902-2.111 17.727-8.373 15.267-10.833-1.401-1.401-1.736-1.424-5.425-.366m-91.169 4.248c-.182 1.285-.08 5.261.227 8.836.573 6.674-.396 8.886-3.93 8.968-1.107.026-1.132-.258-.128-1.468 1.501-1.809-.07-2.017-1.881-.25-1.036 1.01-1.237.675-1.05-1.75.128-1.65.095-4.8-.073-7-.198-2.594-.528-1.099-.938 4.25-.347 4.537-.347 11.962 0 16.5.354 4.614.701 6.33.787 3.893.133-3.735.405-4.252 1.905-3.621.962.404 2.763.955 4 1.223 2.029.44 2.25 1.077 2.25 6.488 0 6.417.069 6.364-5.5 4.226-1.716-.658-1.632-.354.589 2.137 4.567 5.123 6.908 9.14 7.027 12.058.076 1.857.281 2.207.591 1.007.442-1.716.636-1.687 2.884.424 3.396 3.191 2.999 1.351-.591-2.738-3.204-3.648-4.256-10.674-1.75-11.685.747-.301.545-.536-.5-.583-1.297-.059-1.75-.933-1.75-3.378 0-3.089.207-3.289 3.25-3.135 1.787.09 2.237-.03 1-.267-1.237-.238-2.25-.879-2.25-1.424 0-.546-.45-.715-1-.375-.603.373-1-.965-1-3.368 0-2.955.453-4.104 1.75-4.443 1.667-.435 1.667-.463 0-.573-2.903-.192-2.017-3.933 1.75-7.39 4.229-3.881 4.433-5.163.703-4.417-4.481.897-5.344-.314-5.097-7.156.221-6.108-.64-9.474-1.275-4.989m-11.745 67.741l-1.234 6.904-5.036.039c-5.417.042-6.387.42-5.357 2.085.834 1.35 4.541 1.404 4.541.067 0-.55 1.462-.993 3.25-.985 2.466.012 2.888.249 1.75.985-1 .646-1.083.974-.25.985.783.009 1.293 1.603 1.366 4.265.064 2.337.318 3.35.565 2.25 1.783-7.939 2.238-8.5 6.897-8.5H60v4.941c0 4.764 1.187 7.184 2.49 5.075.345-.559.151-1.016-.431-1.016S61 337.687 61 336.082c0-5.159.847-6.082 5.582-6.082 4.279 0 4.356.059 3.792 2.879-.349 1.747-.101 3.172.632 3.625.846.523 1.025.169.596-1.181-.336-1.06.051-2.804.862-3.875 1.693-2.24 2.009-5.448.536-5.448-.55 0-1 .675-1 1.5 0 1.131-1.214 1.5-4.93 1.5-4.318 0-4.985-.279-5.364-2.25l-.434-2.25-.136 2.25c-.121 2.007-.662 2.25-5.011 2.25-5.573 0-6.512-1.695-5.426-9.79.911-6.798-.269-4.825-1.613 2.695M449 322c-2.444.514-2.803.776-1.191.868 1.403.08 2.042.563 1.63 1.231-.467.756-3.709.883-10.377.405-6.73-.481-11.053-.307-14.13.57-4.934 1.406-8.139 3.489-3.671 2.386 2.278-.563 2.653-.4 2.143.929-.681 1.775-4.404 2.242-4.404.552 0-.582-.457-.776-1.016-.431-2.606 1.61.628 2.584 6.495 1.955 4.18-.447 6.503-.303 6.957.432 1.235 1.998 4.857 1.332 4.302-.792-.712-2.72 3.023-4.1 10.782-3.983 6.139.092 6.48.223 6.48 2.487 0 3.058.721 3.015 3.246-.194 1.715-2.181 2.597-2.499 5.644-2.034l3.61.551-3-1.372-3-1.372 3-.444c2.389-.354 2.123-.475-1.309-.594-2.651-.092-4.071.235-3.691.85.34.55-.309 1-1.441 1-1.132 0-2.059-.45-2.059-1s.563-1.007 1.25-1.015c.833-.011.75-.339-.25-.985-.825-.533-1.725-.917-2-.853-.275.064-2.075.448-4 .853m-149.25 3.03c2.344 1.041 4.25 2.579 4.25 3.429 0 2.071-1.653 1.954-2.95-.209-.993-1.655-1.106-1.656-2.087-.022-.846 1.408-2.373 1.699-8.25 1.57-4.81-.104-6.38-.397-4.713-.878 2.027-.584 1.685-.739-1.809-.82-2.916-.068-4.088.258-3.625 1.007.459.742-.003.889-1.399.446-1.488-.472-2.449-.075-3.365 1.393-1.399 2.239-3.028 2.818-2.266.804 1.247-3.293-40.641-2.699-50.536.717l-4.5 1.553 4.553-.542 4.553-.541-.413 3.531c-.226 1.943-.025 3.531.448 3.53.472-.001.96-1.429 1.082-3.173.303-4.302.586-4.46 10.186-5.721 10.587-1.39 17.412-1.433 16.591-.104-.386.625 1.676 1 5.5 1 4.416 0 5.917.325 5.395 1.17-.48.777-.186.964.876.556.88-.337 1.818-.076 2.085.58.268.657.522.411.565-.546.075-1.645.189-1.646 2.079-.028 1.638 1.403 2 2.95 2 8.549 0 3.76.376 6.605.836 6.32.459-.284.625-3.055.368-6.157-.586-7.067 1.641-7.295 6.119-.627 1.59 2.367 3.131 4.062 3.426 3.767.295-.294.031-1.144-.585-1.887-.617-.743-1.8-2.975-2.63-4.961-1.395-3.338-1.378-3.614.229-3.66 4.578-.131 5.834-.53 7.044-2.235 1.329-1.873 4.823-2.669 3.693-.841-.839 1.357-.23 1.261 3.136-.494 1.575-.821 3.539-1.465 4.364-1.43.995.043.843.321-.449.827-1.717.672-1.569.895 1.25 1.878 2.076.723 3.199.761 3.199.108 0-.555.561-.657 1.25-.227.688.429 2.15.9 3.25 1.046 1.972.262 1.973.245.059-1.221-1.068-.818-2.305-1.487-2.75-1.487-.445 0-.809-1.148-.809-2.551 0-1.966-.796-2.883-3.468-4-5.133-2.145-6.738-1.621-1.782.581" fill="#d3d3d3" fill-rule="evenodd"/></svg>