<svg xmlns="http://www.w3.org/2000/svg" width="500" height="709"><path d="M94 1.19c-4.878.852-7 2.844-7 6.569 0 1.921.383 2.254 2 1.741 1.752-.556 2-.18 2 3.04 0 2.939-.316 3.553-1.582 3.067-.87-.334-4.456-.607-7.968-.607-5.061 0-6.276-.29-5.85-1.399.295-.769.12-1.656-.388-1.97-.508-.314-.768-2.947-.577-5.851.491-7.455-1.363-1.695-2.271 7.057l-.658 6.336-6.894-.692c-13.929-1.399-24.589 2.692-35.633 13.675-9.312 9.259-15.326 28.153-12.205 38.344 1.195 3.901 1.995 14.967 1.168 16.149-.769 1.099-2.188 1.109-3.892.027-.805-.511-1.25-.239-1.25.765 0 1.855-2.631 2.101-3.3.309-.806-2.156-1.973 2.027-1.306 4.682C9.045 95.026 11.543 98 13.071 98c1.642 0 .989-1.838-.821-2.311-1.241-.324-1.055-.491.64-.573 1.314-.064 2.987-.903 3.718-1.866 1.208-1.591 1.331-1.599 1.36-.083.018.916-.53 1.893-1.218 2.171-.923.372-.891.525.122.583 1.106.064 1.131.37.128 1.579-.86 1.036-.898 1.5-.122 1.5 1.45 0 1.463 3.671.015 4.566-.776.48-.715.926.206 1.495.722.446 1.47 2.19 1.662 3.875.324 2.838.12 3.064-2.768 3.064-2.612 0-3.068-.346-2.806-2.127.215-1.457-.394-2.391-1.937-2.967-1.273-.476-2.25-.457-2.25.044 0 .488-.275 1.603-.611 2.48-.448 1.166-.18 1.427 1 .974.886-.34 1.611-.12 1.611.489S10.235 112 9.3 112c-1.256 0-1.407.293-.578 1.122.617.617.866 1.787.554 2.601-.312.813.061 1.918.828 2.454 1.075.751 1.109 1.092.146 1.482-1.372.557-1.689 3.569-.5 4.758.413.412.75 1.237.75 1.833 0 .596.577 1.276 1.281 1.51.705.235 1.214.048 1.132-.416-.71-4.003.245-6.235 2.837-6.628 2.545-.385 2.506-.428-.519-.566-3.015-.138-3.217-.356-2.604-2.799.503-2.004.354-2.457-.611-1.861-.846.523-1.122.32-.819-.601.615-1.87 5.351-2.319 8.91-.844 2.578 1.067 3.517 3.003 3.011 6.205-.065.412.249.75.698.75.449 0 1.827 1.8 3.064 4 1.236 2.2 2.559 4 2.94 4 .38 0 1.27 1.463 1.978 3.25.707 1.787 2.132 4.854 3.167 6.815 1.879 3.559 1.365 6.875-.853 5.504-.612-.378-1.112-.21-1.112.372S32.073 146 30.941 146c-1.302 0-1.797.425-1.346 1.155.48.776.254.887-.69.339-.773-.448-1.074-.449-.67-.003.404.447-.435 1.419-1.864 2.161C22.943 151.43 23 151.458 23 148c0-2.552-.382-3-2.559-3-1.407 0-2.293.43-1.968.956.325.526 1.252.703 2.059.393 1.664-.638 2.079 2.155.468 3.151-.55.34-1 .141-1-.441S19.592 148 19.094 148c-.499 0-.658.951-.354 2.114.449 1.717.196 2.007-1.344 1.544-1.043-.313-3.471-.185-5.396.284-3.469.846-3.455.855 1.5 1.058 4.946.202 4.965.215 1.774 1.24-1.775.57-3.493 1.874-3.818 2.898-.325 1.024-.996 1.862-1.492 1.862s-.632.701-.304 1.557c.329.857 1.143 1.349 1.81 1.093.666-.256 1.846-.063 2.621.427 1.107.701.981.917-.591 1.007-1.752.101-1.714.196.309.766 3.133.882 2.356 2.694-1.059 2.47-2.955-.194-2.932-.293-2.932 12.68 0 13.186-.044 13 3.099 13 1.604 0 3.143.562 3.421 1.25.403 1 .52 1 .583 0 .1-1.586 8.079-1.72 8.079-.135 0 .687.939.5 2.446-.488 1.775-1.162 3.079-1.349 4.75-.678 2.253.904 2.243.926-.446.988-2.344.054-4.156 1.969-2 2.113.413.028 2.727.221 5.143.429 3.92.337 7.945-1.308 6.568-2.685-.244-.244 1.126-.41 3.045-.369 3.737.08 4.162.507 2.331 2.338-.884.884.016 1.174 3.75 1.208 13.648.126 14.508.796 12.386 9.641-2.382 9.932-3.258 10.209-24.973 7.909-2.475-.262-9-.675-14.5-.918-5.5-.244-13.052-.767-16.782-1.164l-6.781-.722.108 37.653c.065 22.386.478 37.425 1.02 37.09.502-.31.644.134.317.988-1.153 3.005 1.186 1.51 3.048-1.948 1.037-1.925 2.302-3.5 2.811-3.5.509 0 .741-.554.516-1.23-.226-.677 1.086-2.643 2.916-4.369 1.83-1.725 3.327-3.92 3.327-4.876 0-1.171.514-1.542 1.574-1.135.866.332 2.248-.069 3.072-.893.823-.823 1.015-1.497.425-1.497-.589 0-1.071-.45-1.071-1s.942-1 2.094-1c1.252 0 2.303-.803 2.616-2 .288-1.1.883-2 1.323-2 .44 0 2.73-1.8 5.089-4 2.359-2.2 4.872-4 5.584-4 .712 0 1.294-.45 1.294-1 0-.554 2.646-1 5.937-1h5.937l-.559 3.446c-.703 4.33.467 9.726 1.635 7.54.436-.817 1.088-3.128 1.448-5.136 1.311-7.309 8.269-8.5 7.89-1.35-.908 17.16-1.507 25.215-1.97 26.5-.297.825-.459 4.566-.36 8.314.108 4.065-.301 7.394-1.011 8.25-.865 1.042-.88 1.436-.054 1.436 1.87 0 1.295 18.075-.643 20.25-1.483 1.664.843 1.752 47.345 1.781 26.898.017 58.948.179 71.223.361 25.162.371 27.483-.222 24.281-6.208-.495-.926-1.138-3.187-1.427-5.025-.289-1.837-1.234-4.122-2.099-5.078-.865-.956-1.573-2.16-1.573-2.675 0-.514-.864-2.548-1.921-4.519-1.627-3.036-4.274-10.719-4.509-13.087-.039-.385-.632-1.263-1.32-1.95-.687-.687-1.25-2.501-1.25-4.03 0-1.529-.639-4.476-1.42-6.55-2.223-5.903-3.75-24.931-2.174-27.096.654-.898.541-1.589-.348-2.138-.723-.447-1.006-1.312-.628-1.922.377-.611-.015-2.111-.872-3.335-.857-1.223-1.558-2.461-1.557-2.752.001-.29 18.73-.604 41.62-.697 28.248-.116 41.966-.517 42.699-1.25.594-.594 1.697-1.08 2.451-1.08.755 0 2.051-.679 2.881-1.509.83-.83 1.992-1.211 2.583-.846.637.394.783.194.36-.49-.392-.635-.194-1.155.44-1.155s1.388.9 1.675 2c.498 1.903 1.364 2 17.848 2 9.528 0 17.558-.379 17.844-.842.286-.462 1.888-.76 3.559-.66 1.963.116 3.039-.294 3.039-1.159 0-.736-.337-1.286-.75-1.221-.413.066-2.212.066-4 0L305 229v-9c0-5.333.407-9 1-9 .55 0 1 .948 1 2.107 0 1.462.459 1.931 1.5 1.531 1.084-.415 1.5.11 1.5 1.893 0 1.528.572 2.469 1.5 2.469.825 0 1.5.477 1.5 1.059s.45.781 1 .441 1 .084 1 .941-.562 1.566-1.25 1.574c-.836.011-.753.342.25 1 1.317.865 1.321 1.1.028 1.931-1.268.815-1.24 1.035.202 1.589 1.979.759 3.883-.203 3.678-1.86-.269-2.181.088-3.675.878-3.675.432 0 .838.787.903 1.75.064.963.415 2.676.78 3.807.601 1.863.304 2.028-3.153 1.748-2.976-.241-3.376-.104-1.816.623 1.915.892 1.919.934.083 1.002-1.054.038-1.619.367-1.256.731.6.6 13.398.593 38.491-.021 9.741-.239 10.716.101 9.679 3.368-.52 1.641-.982 1.803-2.628.922-1.344-.72-2.393-.74-3.209-.063-.667.554-3.796.84-6.953.638-3.158-.203-5.541-.045-5.296.351.245.396-.672.812-2.038.925-1.431.119-2.223-.215-1.869-.788.372-.602-1.181-.993-3.945-.993-2.507 0-4.559.419-4.559.93 0 .574-1.243.574-3.243 0-4.621-1.325-5.747-1.167-5.827.82-.06 1.496-.195 1.46-.93-.25-.473-1.1-.891-1.473-.93-.829-.049.82-2.688 1.094-8.82.915-4.812-.141-9.595.166-10.627.682-1.033.516-2.158.552-2.5.081-.757-1.043-9.216-1.028-10.909.019-.668.412-1.722.436-2.344.052-.692-.428-.934-.16-.625.691.278.764 1.024 1.272 1.658 1.13.634-.143 1.413.42 1.732 1.25.318.83 1.007 1.509 1.531 1.509s.703-.403.399-.895c-.622-1.007 1.674-2.105 4.4-2.105 2.242 0 3.46 3.9 1.457 4.668-.782.3-2.097.287-2.922-.03-.825-.316-1.5-.139-1.5.393 0 .533.337 1.004.75 1.048 7.842.823 11.122.196 8.25-1.579-.55-.34-1-1.116-1-1.726 0-.609.296-.811.658-.449.362.362 1.281.141 2.042-.491 1.046-.868 1.678-.856 2.584.05.77.77.844 1.453.208 1.908-2.128 1.52-1.581 5.209.77 5.193 1.841-.013 1.972-.198.738-1.045-1.247-.856-1.163-1.003.5-.87 4.441.355 4.905.035 3-2.07-1.554-1.717-1.588-2-.238-2 .864 0 1.798.562 2.076 1.25.403 1 .52 1 .583 0 .051-.802 1.681-1.25 4.548-1.25 3.561 0 4.351-.305 3.893-1.5-.416-1.082.08-1.478 1.781-1.421 1.296.043 1.795.306 1.107.583-.688.278-1.25.944-1.25 1.48 0 .537.5.667 1.112.289.611-.378 1.504-.067 1.984.691.684 1.079.877.983.889-.439.011-1.396.508-1.661 2.139-1.144 1.168.371 2.779.77 3.58.888.801.118 1.863.857 2.361 1.643.686 1.084.908 1.113.92.121.008-.735.522-.995 1.173-.594.794.491.979.034.588-1.46-.518-1.98-.246-2.142 3.043-1.804 1.987.203 3.773.852 3.969 1.44.211.635-.485.85-1.716.528-1.606-.42-1.932-.178-1.45 1.078.342.892.172 1.621-.378 1.621s-1.239.624-1.532 1.387c-.377.983.101 1.268 1.643.979 2.069-.387 2.077-.361.175.543-1.577.75-.89.992 3.25 1.146 2.887.107 6.038.241 7 .298 1.096.064 1.648-.511 1.476-1.538-.2-1.201.268-1.499 1.75-1.111 1.14.298 2.024.041 2.024-.587 0-.615-.643-1.117-1.429-1.117-1.703 0-4.571-2.68-4.571-4.271 0-.799.351-.778 1.2.071.66.66 1.673 1.186 2.25 1.168.577-.017.176-.692-.891-1.5-1.631-1.233-1.68-1.468-.307-1.468 2.361 0 4.748 3.912 4.748 7.782 0 1.835.412 3.081.916 2.77.504-.312 1.999-.155 3.322.348 2.18.829 2.667 2.258 5.201 15.257 4.525 23.216 5.249 27.918 4.382 28.454-.452.279-.821.957-.821 1.507 0 .55.429.735.953.411 1.131-.699 3.414 7.073 2.657 9.044-.287.75-.092 1.629.434 1.954.526.325.956 1.963.956 3.64 0 2.754-.243 2.989-2.5 2.422-1.375-.345-2.5-.225-2.5.267 0 .765 4.541 2.144 7.059 2.144.444 0 .951-1.122 1.125-2.494.311-2.454.355-2.438 2.692.995 2.024 2.973 2.178 3.729 1.038 5.103-3.329 4.011.209 4.403 38.527 4.278 34.958-.115 44.174-.602 40.309-2.128-.962-.38-1.75-1.605-1.75-2.723 0-2.745.54-2.578 3.931 1.219l2.904 3.25 10.481.121c12.53.145 13.708-.319 10.443-4.115l-2.393-2.781 2.382-2.382c2.352-2.352 4.252-2.361 4.252-.021 0 .662 1.012 1.652 2.25 2.2 1.238.548 2.13 1.726 1.984 2.617-.174 1.059.646 1.796 2.361 2.124 2.527.483 2.605.362 2.028-3.13-.331-1.998-.606-5.77-.612-8.383-.011-4.632-.087-4.75-3.078-4.75-2.613 0-2.974-.297-2.433-2 .549-1.729.186-1.996-2.683-1.968-3.173.03-3.231.097-1.322 1.539 2.397 1.812 1.185 2.891-4.428 3.944-1.959.368-3.847 1.129-4.195 1.691-.876 1.419-7.017-4.214-6.653-6.103.159-.827-.725-2.518-1.965-3.758-1.24-1.24-2.255-3.062-2.255-4.05-.001-.987-1.126-3.102-2.5-4.701-1.375-1.598-2.499-3.317-2.499-3.821s-.674-1.59-1.498-2.414c-1.494-1.494-3.087-6.108-2.359-6.835.21-.211 6.553.028 14.095.53 13.426.893 21.496 3.036 24.073 6.39.446.581.555-24.819.242-56.444-.313-31.625-.574-75.643-.58-97.818l-.012-40.319-21.627.549c-11.895.301-21.763.684-21.93.85-.166.166-.51 5.913-.764 12.77-.254 6.857-.542 12.693-.641 12.968-.34.956-3.214-9.52-3.504-12.775-.161-1.802-.826-3.919-1.48-4.706-.653-.787-.916-1.87-.585-2.406.332-.536.145-1.257-.414-1.603-1.296-.801-1.297-7.536-.001-9.51.876-1.333 1.094-1.333 1.97 0 .841 1.282.987 1.244 1-.262.013-1.478.699-1.686 4.265-1.293l4.25.47-3.66-1.112c-4.622-1.404-5.847-4.042-4.323-9.303l1.159-4 9.054-.286c8.932-.282 9.052-.319 8.912-2.76-.093-1.615-.604-2.297-1.474-1.964-.732.28-4.696.51-8.809.51-4.147 0-7.231.399-6.924.895.305.493-.082 1.139-.858 1.437-.776.298-1.645-.068-1.931-.812-.286-.745.174-1.621 1.021-1.946.865-.332 1.29-1.244.968-2.082-.315-.821-.624-8.692-.687-17.492-.113-15.703-.155-16-2.281-16.015-1.726-.013-1.868-.205-.696-.946.809-.512 1.142-1.259.74-1.662-.403-.402-1.425.136-2.273 1.196-1.484 1.855-1.517 1.839-.885-.441.483-1.741.298-2.248-.698-1.915-1.071.359-1.355 4.13-1.355 18.007 0 20.127-.137 20.498-8.606 23.311-2.679.89-5.127 2.034-5.441 2.541-.314.508-1.557.976-2.762 1.04-1.771.094-1.845.206-.388.584 1.431.371 1.561.759.628 1.884-1.255 1.512-5.418 2.013-4.509.542.297-.48-1.599-1.157-4.214-1.504-2.614-.347-6.417-1.522-8.45-2.611-2.771-1.486-4.776-1.833-8.015-1.389-3.277.449-4.643.204-5.654-1.015-.859-1.035-2.916-1.607-5.777-1.607h-4.443l.22-7.531c.121-4.143.762-9.655 1.423-12.25.662-2.596 1.753-9.894 2.424-16.219 1.601-15.069 2.468-17.369 6.262-16.61 2.015.403 3.048.133 3.445-.902.312-.812.918-1.259 1.348-.993 1.667 1.03 3.068-2.209 2.081-4.807-.698-1.835-.634-2.676.228-2.984.66-.237.838-.816.396-1.288-.443-.472-1.223-.196-1.735.613-.63.996-.935 1.068-.946.221C402.972-2.253 347.878.185 304 5.632c-30.591 3.798-33.22 4.081-49.5 5.326-8.25.631-19.275 1.582-24.5 2.113-21.162 2.153-39.22 1.855-67.264-1.107-5.921-.626-14.471-1.13-19-1.12-15.459.033-20.602-2.659-9.014-4.718 3.728-.662 9.909-1.255 13.736-1.316 10.851-.175 4.809-1.426-12.958-2.684C114.046.608 114 .609 114 2.893c0 2.425-2.077 3.205-5.665 2.129l-2.835-.85 3.219-.086c2.29-.061 3.067-.481 2.694-1.453-.67-1.746-10.548-3.032-11.497-1.497-.371.6-.841.68-1.045.179C98.658.79 96.589.737 94 1.19m293.581 19.485c-.331 1.004-2.622 3.976-5.091 6.604-4.285 4.561-4.495 5.064-4.595 11a610.773 610.773 0 0 1-.38 12.721c-.41 9.702.837 13.847 3.986 13.245 1.375-.263 2.499-.912 2.499-1.443 0-.53 1.156-10.422 2.569-21.981 2.34-19.151 2.638-25.079 1.012-20.146M94.512 24.75c.184.962.369 2.73.411 3.929.043 1.198.661 2.773 1.375 3.5 8.045 8.192 11.53 19.579 11.651 38.071.075 11.339.849 11.916 15.604 11.646 10.888-.2 11.446-.313 11.432-2.303-.009-1.151-.433-2.753-.943-3.559-.595-.941-.522-1.955.203-2.829.721-.869 1.168-6.864 1.232-16.534.055-8.344.439-16.296.853-17.671.901-2.997-.627-3.82-12.83-6.912-4.4-1.115-12.701-3.616-18.446-5.557C99.308 24.589 94.51 23 94.392 23c-.118 0-.064.788.12 1.75m270.961 19.294c-.355.574-.116 1.681.531 2.461 2.101 2.531-.559 8.305-4.328 9.396-1.747.505-2.613.959-1.926 1.009.688.049 1.25.972 1.25 2.051 0 2.742 3.858 6.039 7.066 6.039 3.037 0 5.483-2.303 4.366-4.111-.411-.663-.319-.937.205-.614.543.336.841-.98.701-3.095-.135-2.024.003-2.78.306-1.68 1.159 4.213 2.356 3.824 2.356-.767 0-6.561-8.036-14.72-10.527-10.689m-8.833 3.383c-.875 1.335-2.579 2.573-3.787 2.75-1.208.178-2.402.948-2.654 1.712-.278.843-.014 1.115.671.691.655-.405 1.13-.043 1.13.861 0 1.168-1.069 1.559-4.264 1.559-4.021 0-4.363.229-6 4.007-.955 2.204-1.736 5.129-1.736 6.5 0 1.371-.45 2.493-1 2.493s-1 .45-1 1c0 .583 3.333 1 8 1h8l-.25-8.001c-.238-7.619-.146-8.002 1.918-8C357.765 54 362 48.738 362 46.132c0-2.073-3.747-1.167-5.36 1.295m81.157 22.016c-2.083 1.834-2.369 2.507-1.25 2.937 1.035.397 1.453 2.196 1.453 6.255 0 6.468-1.081 6.557-1.722.143-.534-5.336-.273-5.224-4.01-1.731-1.738 1.624-3.829 2.953-4.646 2.953-1.613 0-3.112 3.399-2.17 4.922.319.517.123 1.222-.436 1.568-.609.376-1.022-.697-1.031-2.681-.027-5.665-1.254-6.364-5.064-2.884C415.431 84.112 414 84.716 414 83c0-1.393-3.347-1.253-4.8.2-.933.933-1.222.878-1.3-.25-.055-.798-.46-.325-.9 1.05-1.185 3.701-1.185 26.767 0 27.5.55.34 1-.014 1-.786s.889-2.208 1.974-3.191c1.086-.983 2.274-2.74 2.639-3.905.661-2.104 4.944-6.728 5.614-6.058.192.192 2.132-.261 4.311-1.007 3.766-1.289 3.977-1.584 4.267-5.955.18-2.718.793-4.604 1.5-4.613.737-.01.621-.414-.305-1.055-1.22-.846 3.553-.834 7.75.019 1.134.231-.124 2.051-1.417 2.051-.916 0-1.37.296-1.008.658.362.362.156 1.262-.456 2-.825.994-.807 1.342.068 1.342.649 0 .903.45.563 1-.34.55.11 1 1 1s1.37.402 1.066.893c-.304.492.549 1.17 1.896 1.508 1.346.338 3.683 2.234 5.193 4.213 3.501 4.59 4.066 3.329 4.083-9.114.012-8.117-.049-8.411-.617-3-1.161 11.069-3.724 11.301-3.863.35-.061-4.768.393-7.941 1.325-9.272 1.462-2.087 1.877-7.215.81-9.996-.862-2.246-3.451-1.908-6.596.861m-47.047-.727C388.876 69 388 69.73 388 71.007c0 1.031-.457 2.158-1.016 2.503-.559.346-.758 1.047-.441 1.559.316.512.134.931-.405.931-1.011 0-1.573 2.175-2.615 10.115-.748 5.701-3.666 10.261-3.446 5.385.218-4.84-.03-6.88-.75-6.161-.369.37-.751 7.083-.848 14.917-.097 7.834-.543 16.494-.992 19.244-.804 4.921-1.06 8.12-1.922 24-.69 12.711-2.698 28.892-3.746 30.187-.528.654-1.051 3.769-1.162 6.925-.123 3.484-.684 5.897-1.43 6.146-.675.225-1.227.848-1.227 1.384 0 .537.45.698 1 .358 1.63-1.007 1.215 9.605-.447 11.441-.795.879-1.715 4.29-2.043 7.579-1.777 17.804-2.028 22.589-1.259 23.964.513.918.446 1.516-.17 1.516-.56 0-.815.563-.567 1.25.248.688.683 3.275.966 5.75.544 4.742 1.872 11.807 3.009 16 .789 2.909 2.185 9.032 3.992 17.5.704 3.3 1.334 5.164 1.4 4.143.088-1.367.581-1.663 1.869-1.121.962.404 2.762.955 4 1.223 1.238.269 2.25.886 2.25 1.372 0 2.342 2.976.486 3.949-2.464.608-1.84 2.457-5.478 4.108-8.083 3.353-5.287 5.116-13.57 2.888-13.57-.824 0-.591-.557.614-1.468 1.484-1.123 1.588-1.479.441-1.516-1.185-.037-1.225-.221-.188-.879.721-.457 1.191-1.913 1.043-3.234-.148-1.322.089-4.46.525-6.974.955-5.502-1.715-20.436-4.228-23.651-1.248-1.597-2.996-2.194-7.152-2.446l-5.5-.332-.29 8.25-.291 8.25h-5.459c-6.469 0-6.171 1.529-3.564-18.291 1.499-11.392 2.187-14.138 3.959-15.789 2.706-2.521 2.739-4.531.085-5.225-1.792-.469-1.97-1.036-1.37-4.367.38-2.105 1.021-4.278 1.424-4.828.404-.55 1.03-4.825 1.391-9.5s1.063-11.875 1.56-16c1.511-12.548 3.242-25.488 3.438-25.701.101-.11 5.399-.272 11.771-.36 6.373-.089 12.208-.554 12.967-1.035 1.6-1.013.902-1.149-4.769-.927-4.201.164-6.588-1.289-3.846-2.341 1.945-.746 1.94-3.636-.006-3.636-.825 0-1.504.787-1.508 1.75-.004.963-1.129 2.27-2.5 2.906-2.693 1.249-2.883.905-2.575-4.656.122-2.185.003-2.28-.939-.75-1.128 1.832-3.978 2.422-3.978.823 0-.509.788-1.168 1.75-1.464.962-.295.535-.395-.95-.221-2.571.3-4.437-1.548-3.346-3.314.254-.41.572-2.395.708-4.41.232-3.438 2.23-4.939 4.094-3.075.323.324 2.873.712 5.666.862l5.078.274.088-5.613c.048-3.086.187-10.026.309-15.421.205-9.088-.378-12.148-1.86-9.751-.331.535-1.262.719-2.069.409-1.704-.654-1.661-1.029-1.723 14.901l-.046 11.75h-3.35c-3.635 0-3.614.048-3.434-8 .402-17.884 1.233-23 3.735-23 1.327 0 2.654.628 2.948 1.396.687 1.789 7.467 1.029 12.402-1.39 2.396-1.174 4.366-1.473 6.245-.948 1.51.421 2.999.356 3.309-.146.494-.799-1.629-1.374-3.804-1.03-.413.065-.75-.647-.75-1.582 0-1.322-.267-1.433-1.2-.5-.66.66-1.897 1.193-2.75 1.185-1.366-.014-1.372-.131-.05-.985 1.282-.828 1.246-.972-.25-.985-.962-.008-1.75.66-1.75 1.485 0 .825-.413 1.5-.918 1.5-.505 0-1.618.268-2.473.597-1.197.459-1.705-.345-2.21-3.5-.681-4.26-.718-4.279-6.649-3.381m-282.554 34.582c-4.248 4.383-3.912 14.386.636 18.934.642.642 1.168 1.785 1.168 2.539 0 2.136 2.5 4.156 3.997 3.231.727-.449 1.866-.608 2.531-.353 1.531.588 2.248-2.123 2.093-7.92-.067-2.497.217-4.331.629-4.076 1.147.711.892-11.518-.285-13.719-1.72-3.214-6.977-2.548-10.769 1.364M464 102.8c0 .99-.389 2.227-.863 2.75-.475.523-.645 5.112-.378 10.2l.486 9.25h2.763c3.673 0 8.072 2.371 9.658 5.205 1.233 2.203 1.281 2.155 1.19-1.205-.051-1.925-.009-7.797.095-13.049.286-14.494.07-14.951-7.059-14.951-5.007 0-5.892.27-5.892 1.8m-194 5.547c0 .978-.804 1.653-1.969 1.653-1.422 0-1.812.485-1.405 1.75.413 1.283.312 1.401-.378.44-.679-.946-.965-.529-1.028 1.5-.142 4.562-1.244 9.634-2.394 11.019-1.439 1.735-2.826 1.632-2.826-.209 0-.825-.45-1.5-1-1.5s-1.953-.953-3.118-2.118c-1.731-1.731-2.297-1.868-3.094-.75-.75 1.051-.846.963-.414-.382.653-2.029-.226-2.199-2.414-.468-.847.67-1.669 3.13-1.827 5.468l-.286 4.25h25.889l.123-8.857c.105-7.519-.178-9.204-1.868-11.153-1.592-1.836-1.991-1.965-1.991-.643m38.023 16.153c-.143 2.2-.207 4.338-.141 4.75.065.412-.444.83-1.132.928-.687.098 3.25.436 8.75.75 15.438.883 47.5.17 47.5-1.056 0-.627-2.094-.935-5.25-.77-14.481.755-26.845-.059-26.544-1.748.162-.906-.249-1.837-.912-2.069-.737-.258-1.063.32-.838 1.488.457 2.369-4.037 2.941-15.956 2.032-3.83-.292-4.026-.475-4.608-4.305l-.608-4-.261 4M110 153.901c0 1.365 1.035 2.145 3.673 2.769 6.012 1.422 5.373 3.33-1.114 3.33-4.98 0-5.71.266-6.509 2.369-.955 2.513-5.268 4.013-6.886 2.395-.584-.584-1.192-.528-1.61.149-.37.598-.006 1.087.808 1.087 1.532 0 2.47 2.967 2.843 9 .247 3.988 2.158 5.894 5.54 5.523 1.484-.163 2.715.468 3.397 1.742 1.037 1.937 1.139 1.916 3.409-.726 1.346-1.566 2.834-2.419 3.502-2.006.853.527.801.974-.196 1.686-1.034.739-.94.836.393.407 1.196-.385 1.769-.019 1.809 1.155.055 1.621.126 1.62 1.23-.008 1.075-1.585 1.348-1.507 3.308.951 1.368 1.715 3.138 2.697 4.92 2.728 2.165.037 2.867.59 3.156 2.487.488 3.199.751 3.394 4.577 3.394 1.787 0 2.687.188 2 .417-.687.229-1.214 1.167-1.171 2.083.049 1.04.269 1.197.583.417.742-1.837 1.918-1.544 4.904 1.223 1.599 1.482 2.434 3.086 2.083 4-.403 1.051.028 1.527 1.382 1.527 1.22 0 1.969.676 1.969 1.778 0 1.708 2.635 4.531 4.571 4.898.511.097 1.716.482 2.679.857 1.023.398 1.75.221 1.75-.426 0-.609-1.012-1.143-2.25-1.186-1.238-.043-1.668-.312-.957-.598.711-.285 2.286-.269 3.5.037 2.542.639 3.373 5.253 1.078 5.986-.798.255-.643.375.359.277 2.332-.228 5.417 3.49 4.158 5.01-.619.747-.418 1.333.586 1.719.84.322 1.526 1.724 1.526 3.117 0 1.392.45 2.531 1 2.531s1.045 1.012 1.1 2.25c.095 2.159.132 2.148.9-.25.534-1.667.834-1.917.9-.75.161 2.821 1.668 2.007 1.853-1 .353-5.735.58-6.771 1.648-7.5.767-.523.683-1.018-.276-1.636-.756-.488-1.375-2.071-1.375-3.519 0-1.447-.412-2.886-.916-3.197-.503-.312-.659-1.375-.345-2.364.355-1.116-.033-2.029-1.023-2.409-.876-.336-1.335-1.028-1.02-1.537.315-.51-.005-1.526-.711-2.257-1.605-1.665-1.6-3.366.015-4.981.688-.688 1.25-2.23 1.25-3.428 0-4.334 2.748-4.961 4.401-1.005 1.489 3.564 4.676 4.885 6.125 2.541.693-1.121-2.469-11.065-3.834-12.058-.722-.525-1.37-2.617-1.615-5.209-.043-.445-.557-.512-1.144-.15-.64.396-.94-.08-.75-1.191.219-1.28-.376-1.948-1.933-2.17-1.353-.192-2.256.207-2.265 1-.012.973-.271.925-.985-.18-.984-1.522-1.03-1.355-1.451 5.197-.06.933-.433 2.02-.829 2.416-.396.396-.72 1.744-.72 2.995 0 3.408-1.861 3.888-3.041.784-.571-1.501-1.751-3.251-2.623-3.888-.872-.638-1.586-2.466-1.586-4.063 0-3.12-1.637-4.917-6-6.585-1.512-.578-2.75-1.458-2.75-1.954s-.645-.902-1.433-.902-1.718-.9-2.067-2c-.349-1.1-1.392-2.057-2.317-2.128-.926-.07-2.808-.283-4.183-.474a87.392 87.392 0 0 0-5.25-.525c-2.188-.141-2.75-.668-2.75-2.582 0-2.285.11-2.327 2.223-.848 2.53 1.772 4.777 2.034 4.777.557 0-.55-.727-1-1.617-1-1.097 0-1.456-.612-1.118-1.906.578-2.21-1.976-3.004-6.765-2.103-2.901.545-7.847-1.126-9.039-3.054-1.176-1.903-7.461-1.091-7.461.964M179 176c-.784 1.465-.76 2 .087 2 .853 0 .839.385-.053 1.459-1.378 1.66-.479 7.541 1.152 7.541.566 0 .797.602.515 1.338-.283.736.187 2.784 1.043 4.552 1.322 2.731 2.022 3.169 4.656 2.912 1.705-.166 2.987-.64 2.85-1.052-.137-.412.639-1.639 1.725-2.725s2.238-3.223 2.56-4.75c.322-1.526 1.009-3.556 1.525-4.511.517-.955.94-3.348.94-5.317 0-3.287-.217-3.554-2.654-3.263-2.231.265-2.928 1.16-4.372 5.604-.944 2.909-1.964 5.535-2.265 5.836-.862.863-2.411-2.728-3.181-7.374-.764-4.616-2.737-5.596-4.528-2.25m20.185 2.25c-.59 2.338-1.333 7.254-1.65 10.926-.534 6.194-.421 6.725 1.56 7.354 2.755.874 14.905-.412 14.905-1.578 0-.489-.787-.636-1.75-.326-1.444.464-1.493.381-.279-.477 2.317-1.638.43-2.525-4.859-2.283-3.382.154-5.026-.2-5.396-1.163-.842-2.196.868-4.045 3.182-3.44 1.784.467 2.102.105 2.102-2.392 0-2.562-.241-2.813-1.869-1.941-1.027.55-2.177.691-2.554.314-.377-.377-1.104-.024-1.616.785-.659 1.041-.906.302-.846-2.529.073-3.47.19-3.669.885-1.5.716 2.236 1.546 1.043 1.038-1.491-.109-.545-.258-1.782-.331-2.75-.231-3.07-1.41-1.905-2.522 2.491M220.5 175c.34.55.115 1-.5 1s-.84.45-.5 1c.34.55-.015 1-.789 1-1.057 0-1.459 1.746-1.612 7.002-.269 9.194 2.372 12.077 10.387 11.34 6.16-.566 6.27-.673 7.701-7.5 1.354-6.45-.414-15.728-2.644-13.878-.798.663-1.612.584-2.47-.238-1.035-.992-1.14-.367-.553 3.274.399 2.475 1.218 4.812 1.82 5.194 2.149 1.36-3.136 4.69-6.131 3.863-2.853-.788-2.896-.99-1.783-8.411.643-4.286.532-4.646-1.424-4.646-1.166 0-1.842.45-1.502 1m130.5-.314c-4.854 1.86-6.8 10.449-4.023 17.754 1.547 4.067 7.196 6.332 10.461 4.193 4.11-2.693 2.758-9.456-1.378-6.893-2.544 1.577-4.336-1.217-3.87-6.036.289-2.991.56-3.201 4.06-3.156 3.286.042 3.75-.243 3.75-2.309 0-1.355-.436-2.088-1.025-1.724-.563.349-.901.038-.75-.691.293-1.411-4.53-2.171-7.225-1.138m-112.563 1.616c-.284.742-.386 5.589-.227 10.773l.29 9.425 3.298.317c2.92.281 3.275.051 3.095-2-.499-5.664.084-9.24 1.307-8.017 1.633 1.633 2.8 1.508 2.8-.3 0-1.335 1.152-1.928 3.186-1.64.378.054.676-.68.664-1.631-.012-.951.296-2.748.684-3.994.57-1.825.392-2.144-.913-1.643-.892.342-1.621 1.699-1.621 3.015 0 1.992-.502 2.393-3 2.393-1.65 0-3-.45-3-1s-.705-1-1.567-1c-1.043 0-1.38-.591-1.008-1.764.711-2.24-3.161-5.088-3.988-2.934M341 179.107c0 .609-.675.848-1.5.531-1.225-.47-1.503.475-1.515 5.143-.009 3.146-.346 5.221-.75 4.613-.404-.608-3.575-1.421-7.045-1.807l-6.311-.7.311 4.307.31 4.306 6.255.146c3.44.081 6.507-.26 6.814-.757.307-.498 1.237-.226 2.066.603 4.01 4.01 5.654-2.059 3.723-13.742-.557-3.37-2.358-5.389-2.358-2.643m132.314 38.736c-.552.361-1.064 2.457-1.136 4.657-.209 6.311-1.227 9.64-3.795 12.409-2.903 3.132-2.968 4.251-.383 6.591 2.398 2.171 2.566 3.5.441 3.5-.857 0-1.281.45-.941 1 .34.55-.049 1-.863 1-.815 0-1.923 1.463-2.462 3.25-1.316 4.367-3.654 19.146-3.109 19.657.239.224 5.159.629 10.934.901 11.357.533 13.516.554 22.25.211l5.75-.226v-52.651l-3.25.009c-1.788.005-7.566-.211-12.841-.479-5.275-.268-10.042-.191-10.595.171M371 236.072c0 .628-.692.876-1.538.552-3.892-1.494-2.462 7.115 1.978 11.906 2.004 2.162 3.141 2.47 9.116 2.47 6.217 0 6.653-.131 4.885-1.468-1.484-1.123-1.588-1.479-.441-1.516 1.224-.038 1.251-.205.143-.906-1.006-.638-1.053-1.047-.183-1.585.645-.399 1.407-.492 1.692-.206.891.891 5.348-3.59 5.348-5.377 0-.933-.632-2.222-1.405-2.863-1.681-1.395-15.87-2.333-15.043-.994.744 1.203-.228 1.159-2.618-.12-1.387-.743-1.934-.713-1.934.107m-128.317 2.777c-.864 1.799.046 3.579 1.567 3.067.137-.047 3.063-.159 6.5-.25 5.816-.154 6.25-.014 6.25 2.025 0 1.205.498 2.499 1.107 2.875.772.477.697.957-.25 1.587-.896.596.003.809 2.643.625 3.811-.265 4.024-.457 4.5-4.061.275-2.081.939-3.735 1.475-3.675.536.059 1.102-.272 1.257-.737.155-.465-3.659-.971-8.475-1.125-4.817-.154-10.446-.438-12.509-.631-2.064-.193-3.893-.058-4.065.3M19.5 317.472c-6.434.601-10.474 1.368-9.733 1.847.696.451 2.271.739 3.5.64 5.247-.423 8.274.045 6.733 1.041-1.002.648 3.478.943 13.5.889l15-.08-5-1.525c-2.75-.839-5.9-1.883-7-2.321-3.669-1.46-5.927-1.525-17-.491m328.08 34.057c-4.713 1.294-18.718 9.929-18.34 11.308.099.364-.701 3.363-1.779 6.663-4.084 12.495-1.213 27.984 6.425 34.672 5.456 4.777 8.114 6.87 8.114 6.388 0-.231 1.462.045 3.25.614 6.455 2.056 14.176 2.739 18.75 1.66 2.475-.583 5.516-1.196 6.757-1.36 3.605-.478 11.59-7.861 14.763-13.651 4.131-7.538 4.377-23.546.48-31.293-6.812-13.543-22.052-19.493-38.42-15.001m-195.569.86c-.556.556-1.011 1.437-1.011 1.958 0 .521-3.1 8.193-6.888 17.05-18.031 42.152-17.814 41.282-10.045 40.155 1.962-.284 5.008-.104 6.769.401 3.658 1.049 5.601-.889 6.774-6.755l.64-3.198h11.934c6.883 0 11.697.384 11.374.907-.309.498.291.684 1.331.412 1.528-.4 2.201.435 3.498 4.343l1.607 4.838 7.61-.157c4.185-.086 8.065-.612 8.621-1.168.682-.682-.494-4.384-3.607-11.358-4.506-10.097-4.623-10.612-4.809-21.332l-.192-10.985-.558 9.437-.559 9.437-3.405-8.437c-6.981-17.299-10.587-25.458-11.576-26.195-1.475-1.097-16.312-.549-17.508.647m147.069.061c-.458.577-.47 1.95-.027 3.05.988 2.451 1.17 11.135.322 15.375L298.75 374h-16.635l-.383-4.25-.383-4.25-.174 4.809c-.117 3.221-.54 4.584-1.279 4.126-.732-.452-.985-4.272-.75-11.309l.354-10.626h-9c-7.556 0-8.92.241-8.5 1.5.275.825.5 14.007.5 29.294 0 31.652-1.143 28.258 9.766 28.988 6.494.434 8.006-.548 7.655-4.971-.122-1.546-.155-6.299-.072-10.561L280 389h8.5c5.316 0 8.5.397 8.5 1.059 0 .582.45.781 1 .441.845-.522 1.402 7.639 1.349 19.75-.007 1.485.96 1.75 6.381 1.75 4.39 0 6.175.344 5.708 1.1-.491.795-.108.794 1.386-.006 1.135-.607 2.315-1.51 2.622-2.006.716-1.16.793-58.182.079-58.896-1.023-1.024-15.61-.795-16.445.258m-95.163-.035c-.229.228-.192 13.616.083 29.75l.5 29.335 7 .568c8.694.705 8.88.533 9.341-8.6l.378-7.468 7.14-.195c3.928-.107 8.336-.247 9.798-.311 6.899-.303 16.843-12.412 16.843-20.509 0-9.383-5.929-19.145-13.315-21.925-2.627-.989-36.837-1.573-37.768-.645m145.969 14.584c-5.55 2.932-7.897 9.625-6.84 19.501.347 3.246 4.802 8.41 8.636 10.012 10.901 4.554 20.306-2.443 20.314-15.114.004-5.876-3.029-13.153-5.246-12.589-.413.105-1.65-.709-2.75-1.809-2.591-2.591-9.214-2.591-14.114-.001M221.01 368c-.632 1.204-.286 6.153.824 11.774.377 1.909 10.818 1.287 13.475-.802 4.227-3.325 2.897-13.071-1.42-10.404-.722.447-.936.318-.54-.324.431-.698-1.45-1.183-5.446-1.405-4.661-.259-6.291.016-6.893 1.161m-60.672 4.2c-1.683 2.21-5.373 12.934-4.781 13.893.761 1.23 10.17 1.157 10.938-.085.741-1.199-2.392-11.984-4.012-13.808-.948-1.067-1.332-1.067-2.145 0M246 443.799c0 2.61-.236 2.772-3.5 2.391-2.801-.327-3.5-.066-3.5 1.31 0 1.371.699 1.637 3.453 1.316 3.077-.36 3.486-.127 3.75 2.125.412 3.506 6.887 4.196 9.144.973l1.478-2.109 1.152 2.152c.946 1.768 1.899 2.097 5.337 1.847l4.186-.304v-4.376c0-4.225-.113-4.384-3.28-4.636-1.954-.155-4.141.437-5.411 1.465-2.027 1.642-2.224 1.632-4.062-.206-1.115-1.115-2.738-1.721-3.839-1.433-1.385.362-1.908-.024-1.908-1.408 0-1.048-.675-1.906-1.5-1.906-.976 0-1.5.978-1.5 2.799" fill="#d3d3d3" fill-rule="evenodd"/></svg>