<svg xmlns="http://www.w3.org/2000/svg" width="500" height="682"><path d="M475.99 2.75c-.011 3.013-1.468 39.908-2.971 75.25-.526 12.375-1.652 41.4-2.501 64.5s-2.213 58.46-3.031 78.578c-1.523 37.46-1.788 72.291-.487 63.922.679-4.366.704-4.306.853 2 .202 8.586-1.915 38.429-2.75 38.759-.36.142-.486 2.025-.28 4.185.206 2.159-.112 10.818-.708 19.241-.595 8.423-1.296 22.065-1.556 30.315-.849 26.893 1.756 1.109 3.94-39 1.066-19.578 2.626-40.894 3.042-41.567.676-1.093 2.242-18.686 3.022-33.933.352-6.875.819-12.687 1.038-12.917 2.53-2.642-7.299 149.605-12.034 186.417-2.067 16.067-2.807 27.234-1.843 27.829.464.287 1.864-2.257 3.11-5.653 2.666-7.263 9.342-20.833 9.951-20.225.72.721-5.842 19.392-9.914 28.206C458.194 478.781 457.21 490 461 490c1.543 0 2 .667 2 2.918 0 3.851-.917 6.082-2.5 6.082-2.623 0-3.084 7.232-2.809 44 .274 36.526 1.232 51.361 3.119 48.307.509-.824 1.235-.747 2.637.278 1.887 1.38 1.881 1.419-.256 1.565-1.205.082-2.753.195-3.441.25-.687.055-1.581.55-1.985 1.1-.451.614-.74.504-.75-.285-.01-.904-.534-1.015-1.765-.374-.962.501-10.236 1.208-20.607 1.571-10.371.362-19.371.756-20 .874-.711.133-1.064-1.108-.934-3.286.115-1.925.503-14.187.862-27.25l.653-23.75h3.823c5.873 0 9.22-1.584 8.453-4.001-.385-1.212-.18-1.999.521-1.999.784 0 1.047-1.921.818-5.958-.327-5.75-.26-5.939 1.911-5.392 2.221.56 2.248.448 2.093-8.792-.126-7.47-.278-8.349-.754-4.358l-.597 5-.856-3.5c-2.154-8.798-3.699-51.373-2.225-61.293.344-2.314.786-9.382.983-15.707.197-6.325.682-12.625 1.079-14 .396-1.375.707-7.439.689-13.476-.017-6.037.29-11.437.682-12 .393-.563.476-5.299.185-10.524-.291-5.225.011-15.984.671-23.91.663-7.963.825-15.121.362-16-.46-.874-.651-7.89-.423-15.59.227-7.7.538-27.05.69-43 .269-28.268.964-37.945 2.805-39.083.508-.314.57-2.606.142-5.237-.419-2.574-.673-7.83-.565-11.68.109-3.85.436-17.971.728-31.379.309-14.214.954-24.89 1.547-25.604.559-.673.942-2.303.852-3.621-.09-1.318.118-4.871.464-7.896.345-3.025.28-4.375-.144-3-1.284 4.163-1.688.089-1.656-16.718.024-12.868.281-15.416 1.662-16.5 2.432-1.908 3.141-5.334 1.453-7.022-1.968-1.968-2.545-16.422-.969-24.26.755-3.753.962-21.728.341-29.5-.154-1.925.307-9.627 1.024-17.116.717-7.489 1.051-14.274.743-15.077-.385-1.003-3.493-1.844-9.908-2.681-5.141-.671-10.473-1.38-11.848-1.577-1.375-.196-3.175.197-4 .873-2.185 1.79-5.902 1.746-10.861-.129-4.072-1.54-4.423-1.537-5.305.038-.653 1.168-1.775 1.535-3.639 1.19-8.434-1.558-18.419-1.777-19.277-.423-.677 1.07-.891 1.094-.903.103-.023-1.997-22.424-1.918-24.896.088-1.238 1.004-1.381.912-.838-.539.756-2.016-4.716-2.414-11.508-.837-2.071.481-8.736.494-15 .028-15.939-1.186-22.749-1.327-26.773-.557-3.273.627-3.374.572-1.559-.857 1.869-1.47 1.838-1.527-.809-1.527-1.579 0-2.487.426-2.132 1 .958 1.55-6.67 1.204-11.57-.525-4.12-1.453-22.37-2.702-23.466-1.605-1.744 1.743-21.477 2.727-22.47 1.12-.628-1.016-4.506-1.28-16.841-1.147-9.026.096-16.277-.235-16.602-.76-.316-.512-2.483-.756-4.813-.541-7.956.733-38.738.271-38.738-.582 0-.313-2.137-.42-4.75-.237-9.159.641-27.826.247-35.75-.756-4.4-.556-11.6-1.128-16-1.27-4.4-.142-8.675-.545-9.5-.895-.825-.351-3.525-.924-6-1.275C65.551 16.631 65.981 16.329 65.351 34c-.226 6.325-.457 11.95-.515 12.5-.058.55.187 8.65.543 18 .368 9.659.247 18.38-.28 20.195-.655 2.254-.588 3.309.225 3.58.846.282.799 1.159-.179 3.304-2.082 4.57-2.614 20.246-.755 22.299 1.092 1.207 1.298 2.613.754 5.142-.412 1.914-.576 7.98-.364 13.48.552 14.321.542 16.489-.145 31.5-.968 21.143-.798 61.721.3 71.567.826 7.406 1.533 33.002 1.062 38.433-.196 2.259.974 19.205 1.487 21.539.246 1.121-.176 3.242-.939 4.712-1.043 2.01-1.246 5.23-.819 12.962.312 5.658.511 12.087.441 14.287-.347 10.923-.455 20.675-.3 27 .094 3.85.148 18.25.118 32-.029 13.75.229 33.325.575 43.5.773 22.769.772 16.791.004 59.5-.356 19.8-.605 38.161-.554 40.802.105 5.4 2.076 8.125 6.017 8.321 1.36.068 7.114.675 12.786 1.349 5.672.674 12.085 1.057 14.25.851l3.937-.376V591H82.333c-11.366 0-20.411.255-20.099.567.312.312 9.564.527 20.561.477l19.993-.09 1.118 3.207c1.13 3.241-.466 6.169-2.005 3.679-1.258-2.036-4.639.045-4.349 2.679.149 1.36-.139 2.726-.641 3.036-.501.31-.911.086-.911-.496S95.325 603 94.5 603s-1.5.675-1.5 1.5-.73 1.5-1.622 1.5c-1.284 0-1.378.295-.452 1.411 1.267 1.526-.158 3.182-1.842 2.141-.504-.312-2.142-.1-3.64.469-2.125.808-3.095.7-4.413-.493-2.173-1.966-3.657-1.987-2.031-.028 1.038 1.25.904 1.5-.806 1.5-1.128 0-2.656.563-3.396 1.25-1.72 1.598-3.415 2.052-7.982 2.136-3.103.058-3.497.299-2.5 1.533.962 1.19.902 1.305-.316.613-.825-.469-1.168-.486-.763-.038.841.928-5.593 5.901-8.987 6.947-1.543.476-2.255.28-2.265-.624-.013-1.057-.176-1.065-.826-.04-.466.734-2.268 1.16-4.235 1-3.073-.249-3.456.005-3.74 2.473-.182 1.574-.93 2.75-1.75 2.75-.789 0-1.434.45-1.434 1 0 1.905-2.19.99-2.749-1.148-.478-1.827-.725-1.925-1.656-.654-.602.822-2.67 2.305-4.595 3.296-1.925.991-4.175 2.523-5 3.404-.825.881-2.175 1.748-3 1.927-.825.179-1.642.716-1.815 1.194-.173.478-.96.621-1.75.318-.789-.303-1.435-.026-1.435.615s.399.92.886.619c.487-.301 1.096.556 1.354 1.906.258 1.349-.028 2.632-.635 2.851-.608.219-.743.784-.301 1.256.443.472 1.23.196 1.75-.613.768-1.194 1.106-1.223 1.795-.156 1.102 1.707 9.027.99 10.24-.925.484-.765.887-.997.896-.518.008.48.774.255 1.702-.5 1.485-1.208 1.605-1.153 1 .46-.378 1.007-.687 2.721-.687 3.809 0 1.087-.403 1.728-.895 1.424-.83-.513-1.547.507-2.063 2.935-.117.55-.679 1.563-1.249 2.25-.731.88-.688 1.25.144 1.25.649 0 .927.412.616.915-.311.503-.063 1.082.55 1.286.704.235.522.865-.493 1.708-1.382 1.147-1.612 1.071-1.625-.537-.012-1.409-.225-1.541-.862-.537-.466.735-1.134 1.297-1.485 1.25-1.979-.265-2.638.058-2.638 1.293 0 1.863-2.649 3.999-3.417 2.756-.328-.53-.034-1.15.652-1.379.922-.307.828-.835-.359-2.022-1.475-1.475-1.716-1.401-2.945.896-1.064 1.989-1.082 2.659-.087 3.274 2.027 1.253-3.307 4.289-8.011 4.559-2.008.115-1.786 1.55.25 1.615 1.33.042 3.317.238 4.417.436 1.1.197 3.989.652 6.419 1.01 3.004.442 3.98.922 3.048 1.498-.754.466-1.807.578-2.339.249-.549-.339-.704.091-.357.993.335.875-.038 2.129-.83 2.786-.793.658-1.441 1.784-1.441 2.504 0 .719-1.012 1.503-2.25 1.741-1.238.239.337.495 3.5.57 3.257.077 5.75-.297 5.75-.864 0-.55.477-1 1.059-1s.768.471.412 1.047c-.445.721 6.591.991 22.53.865 13.167-.104 22.599-.55 21.839-1.032-1.031-.653-.936-.853.41-.865.963-.008 1.75.435 1.75.985 0 .619 5.333 1 14 1s14-.381 14-1c0-.55.702-1 1.559-1s1.287.44.955.978c-.393.636 68.315.989 196.441 1.01L500 682.02l.13-14.26c.072-7.843.106-17.86.076-22.26-.03-4.4-.126-40.997-.214-81.327-.133-61.528-.392-73.886-1.608-76.797-.798-1.909-1.344-4.011-1.214-4.673.129-.662-.338-2.882-1.038-4.933-.701-2.052-1.04-4.109-.754-4.572.286-.463-.063-1.964-.775-3.336-.712-1.373-1.602-3.721-1.978-5.22-.885-3.528-2.613-2.447-2.665 1.667-.06 4.766-4.583 14.768-5.553 12.279-.428-1.096.01-4.506 1.027-8 1.748-6.003 2.783-12.179 2.695-16.088-.205-9.18.017-26.661.362-28.451.76-3.947 2.038-66.653 2.455-120.466.03-3.804.298-6.673.595-6.375.298.298.761 23.861 1.03 52.363.269 28.503.668 52.001.885 52.219.837.837 3.544-5.839 3.544-8.74 0-1.765.527-3.056 1.25-3.065.955-.012.942-.211-.058-.845-.752-.477-1.505-3.488-1.775-7.097-.257-3.448-.927-7.127-1.488-8.176-.562-1.05-.728-2.383-.37-2.962.754-1.221 3.332 3.162 4.468 7.595.422 1.65.814-83.287.871-188.75L500 0h-24l-.01 2.75m6.575 271c-.391 3.712-.896 9.45-1.121 12.75-.907 13.256-2.474 37.488-2.942 45.5-.274 4.675-.754 12.325-1.068 17-.315 4.675-.759 11.65-.988 15.5-.228 3.85-.841 11.275-1.36 16.5-.52 5.225-1.211 16.25-1.537 24.5-.325 8.25-.833 18.895-1.128 23.655-.574 9.254.895 13.075 1.951 5.076 3.272-24.782 7.875-96.444 9.248-143.981.67-23.227.287-29.234-1.055-16.5" fill="#d3d3d3" fill-rule="evenodd"/></svg>