<svg xmlns="http://www.w3.org/2000/svg" width="500" height="281"><path d="M0 17.417C0 29.446.349 34.95 1.127 35.209c2.015.672 2.415 10.921.482 12.335-2.253 1.647-2.008 24.146.257 23.667.752-.159 2.552.489 4 1.439 1.449.951 4.434 1.812 6.634 1.915 6.089.284 6.246.324 7.929 2.006C22.699 78.842 22.45 82 20 82c-1.1 0-2 .487-2 1.082 0 .662-1.378.895-3.558.602-4.561-.615-8.942.555-8.942 2.388 0 1.023 1.701 1.57 6 1.928l6 .5 1.154 7c.634 3.85 1.015 7.145.845 7.321-.169.177-4.626.298-9.904.269L0 103.038V281h119.5c69.455 0 119.5-.374 119.5-.893 0-1.218-2.567-2.107-6.082-2.107-1.605 0-2.918-.472-2.918-1.048 0-.989 5.931-.61 10.208.652.939.277 2.964-.177 4.5-1.01l2.792-1.514-3.224-.04c-2.539-.031-3.549-.667-4.75-2.99-3.098-5.99-1.355-7.074 8.698-5.412 3.929.649 4.563 2.504 1.938 5.667-.724.873-.841 1.646-.278 1.848.533.191 1.292 1.652 1.688 3.246.513 2.067.391 2.696-.426 2.191-.63-.389-1.146-.231-1.146.351 0 .671 3.48 1.059 9.5 1.059h9.5v-11.333c0-8.333.331-11.367 1.25-11.46.688-.07 2.535-.431 4.106-.804 1.951-.462 3.135-.237 3.735.71.632.998.883 1.036.894.137.008-.687 1.05-1.25 2.315-1.25s2.896.563 3.625 1.25c1.06 1 1.417 1 1.783 0 .583-1.59 10.583-1.547 30.792.131 25.587 2.125 30.968 1.306 20.347-3.097-4.618-1.915-5.04-2.306-3.097-2.867 1.237-.358 2.264-1.16 2.28-1.784.017-.623.489-.346 1.05.617.561.962 2.067 1.75 3.347 1.75 2.907 0 4.432 1.824 3.956 4.733-.272 1.662.208 2.353 1.876 2.699 2.348.488 28.692 2.568 32.525 2.568 2.124 0 2.216.374 2.216 9v9h25l.014-5.75c.007-3.163.302-6.828.654-8.146l.642-2.396 14.595.66c8.027.363 16.845.866 19.595 1.117 5.359.489 16.407 1.62 20.5 2.099 1.375.161 10.241.347 19.702.415l17.202.122.359 5.69c.197 3.129.334-34.586.305-83.811-.049-80.032-.082-81.911-.318-17.767l-.263 71.732-2.691.676c-1.697.425-2.833.247-3.077-.483-.552-1.656-2.219-1.433-2.219.297 0 3.049-11.128 3.375-11.565.338-.135-.938-.963-3.145-1.84-4.903-1.822-3.652-2.05-6.491-.595-7.39.55-.34 1-1.111 1-1.714s-.9-.281-2 .714c-2.379 2.153-2.501 1.171-.544-4.374.8-2.269 1.056-4.126.567-4.126-.489 0-1.174.901-1.524 2.002-.503 1.585-1.194 1.871-3.317 1.372a154.217 154.217 0 0 0-3.312-.752c-.971-.188-5.71 5.165-8.535 9.64-1.799 2.849-2.773 3.648-3.336 2.736-.592-.958-.921-.802-1.282.607-.436 1.705-.497 1.716-.601.106-.107-1.651-.284-1.632-2.305.25-2.33 2.171-5.811 2.75-5.811.968 0-.59-.707-.365-1.571.5-.865.864-2.18 1.571-2.923 1.571-.743 0-1.872 1.578-2.509 3.508-1.741 5.276-9.004 7.573-12.918 4.085-1.357-1.208-1.76-1.208-2.868 0-1.061 1.157-1.023 1.407.211 1.407 2.076 0 5.578 3.967 5.578 6.319 0 1.708-.538 1.88-4.489 1.435-4.58-.516-9.539-4.501-7.314-5.876.631-.39.655-.851.063-1.217-.525-.324-.993-1.991-1.042-3.703-.059-2.073-.994-3.892-2.797-5.441-3.487-2.997-2.662-5.025 2.179-5.351 4.545-.306 4.125.032 4.553-3.666.34-2.938.254-3-4.125-3h-4.473l-.872 4.5a819.653 819.653 0 0 1-1.593 8l-.722 3.5-.782-3.5c-1.445-6.465-3.074-8-8.487-8-5.681 0-6.614.887-7.521 7.161-.75 5.188-2.166 6.284-5.73 4.435-2.803-1.454-4.848-1.029-4.848 1.006 0 1.865-4.97.825-6.75-1.413-.688-.864-1.25-1.142-1.25-.618 0 1.268-8.271 1.206-9.326-.071-.535-.648-1.005-.56-1.333.25-.279.687-2.072 1.25-3.983 1.25-2.063 0-3.225-.407-2.858-1 .34-.55.179-1-.358-1-.536 0-1.147.515-1.356 1.143-.446 1.336-4.796-.609-6.034-2.696-.736-1.241-4.237-.913-6.252.586-.55.409-5.163.754-10.25.766l-9.25.022-.136-3.16c-.103-2.379-.244-2.601-.572-.896-.251 1.306-.893 1.981-1.518 1.595-.678-.419-.792-.198-.303.593.596.964-.194 1.15-3.345.786-2.656-.307-4.131-.078-4.141.642-.01.723-.276.763-.75.113-.779-1.066-7.69-1.372-8.678-.384-.923.923-7.557-1.475-7.557-2.732 0-.623.67-1.689 1.489-2.369 2.16-1.793 1.156-2.68-5.092-4.496-3.922-1.14-5.937-1.31-6.823-.574-.692.574-1.554.748-1.916.386-.362-.362-.658.107-.658 1.044 0 1.372-.374 1.501-1.934.666-1.064-.569-2.864-1.035-4-1.035-1.452 0-2.089-.668-2.145-2.25-.043-1.238-.306-1.687-.583-1-.278.688-2.074 1.25-3.993 1.25-1.918 0-4.163.675-4.988 1.5-2.029 2.03-3.615 1.895-2.947-.25.299-.963.112-2.425-.418-3.25-.727-1.134-.965-.707-.977 1.75-.008 1.787-.465 3.25-1.015 3.25-.55 0-1-.395-1-.878s-1.575-.164-3.5.708c-2.48 1.124-3.5 2.237-3.5 3.817 0 1.876-.713 2.337-4.49 2.904-2.469.37-4.264 1.039-3.988 1.485.277.447-.291 1.004-1.26 1.237-.969.234.601.776 3.488 1.205 4.185.621 5.25 1.159 5.25 2.651 0 1.029-.45 1.871-1 1.871s-1 .45-1 1 1.238 1.014 2.75 1.03c3.851.043.913 1.681-4.596 2.561-3.18.509-4.158.342-4.169-.713-.013-1.155-.155-1.158-.875-.021-.591.932-1.605 1.107-3.235.558-1.306-.439-3.167-.683-4.134-.542-.968.141-3.827-1.139-6.353-2.844-4.385-2.959-4.667-3.019-6.24-1.314-.906.982-2.294 1.925-3.083 2.097-2.563.556-4.181 3.593-2.277 4.276 1.279.459 1.091.726-.855 1.214-3.287.825-6.933-.184-6.933-1.919 0-1.559-1.586-1.862-2.447-.468-.311.503-.033 1.092.618 1.309 1.545.515.136 2.776-1.73 2.776-.804 0-1.441-.942-1.441-2.133 0-1.173-.892-2.906-1.982-3.851-1.717-1.49-2.056-3.421-2.545-14.487l-.563-12.768 2.496.626 2.496.626-.391-8.256c-.216-4.541-.418-8.517-.451-8.834-.033-.317-1.521-.362-3.307-.1-2.925.429-3.111.313-1.877-1.173.753-.908.976-1.665.496-1.683-.704-.026 9.361-3.821 10.437-3.934.17-.018.031.417-.309.967-1.088 1.76.917 1.01 3.583-1.34 3.903-3.44 3.485-5.989-.848-5.176-2.474.464-3.232.32-2.715-.516.394-.638 2.167-.99 3.941-.783 1.867.218 3.755-.191 4.485-.972.692-.741 1.911-1.098 2.709-.792.799.307 1.178.118.845-.421-.332-.537-.018-.831.698-.652.716.178.962.135.546-.097-1.706-.951.629-2.232 5.169-2.834l4.831-.641.611-7.138c.336-3.926.669-16.813.741-28.638l.131-21.5-27.537-.266c-25.607-.247-27.57-.142-27.998 1.5-.416 1.596-.471 1.602-.576.061-.176-2.584-4.114-2.906-31.616-2.586l-25 .291-1.115 21.037c-.613 11.571-1.453 22.146-1.865 23.5-.891 2.925-4.39 6.963-6.034 6.963-.641 0-1.632 1.012-2.202 2.25-1.536 3.335-25.282 10.697-31.784 9.855-4.334-.562-6.873-4.605-7.322-11.657-.261-4.097.005-7.031.701-7.727.616-.616 1.135-4.068 1.153-7.671.033-6.884 1.212-9.565 4.481-10.195 1.08-.208 2.123-1.204 2.317-2.213.278-1.439-.08-1.697-1.658-1.197-4.492 1.426-7.128 1.672-17.172 1.602-11.661-.081-14-.516-14-2.603 0-1.162 1.601-1.324 8.75-.885 5.969.367 10.339.092 13.75-.865l5-1.403-7.712-.759c-7.417-.731-10.814-.523-17.288 1.058-2.715.663-2.87.575-1.628-.929.755-.913 1.961-1.661 2.681-1.661.719 0 1.503-1.012 1.741-2.25l.434-2.25.136 2.25c.075 1.238.536 2.25 1.025 2.25.506 0 .68-9.789.404-22.75-.445-20.907-.639-22.861-2.389-24.122-1.047-.755-1.904-2.497-1.904-3.872 0-2.04.26-2.285 1.411-1.33.776.644 1.637.805 1.914.358.628-1.017 2.207-44.46 2.082-57.284-.16-16.386-.736-18.171-7.113-22.036-5.694-3.451-7.022-5.525-7.964-12.439C38.43-.081 38.69 0 18.378 0H0v17.417m454-.487c-7.343.558-7.4.583-2.745 1.198 2.615.345 7.34 1.92 10.5 3.5 5.679 2.839 5.742 2.918 5.45 6.872-.351 4.754-6.202 21.806-9.132 26.611-2.494 4.092-2.664 5.623-.416 3.761 1.828-1.513 1.744 2.135-1.006 43.908-1.071 16.272-1.035 18.248.323 17.989 1.234-.236 1.664-2.872 2.25-13.78 2.678-49.924 4.531-65.952 8.032-69.489 1.085-1.096.522 12.504-1.158 28-2.242 20.668-3.769 56.033-2.383 55.176.534-.33 1.272-7.48 1.641-15.888.368-8.408 2.012-28.788 3.653-45.288 1.642-16.5 2.986-33.038 2.988-36.75L472 16l-5.25.18c-2.887.099-8.625.437-12.75.75m22.588.82c-.301.962-1.009 9.85-1.573 19.75-.564 9.9-1.476 23.4-2.027 30-.551 6.6-1.648 22.34-2.437 34.977-1.485 23.795-1.424 24.412 2.449 24.543 2.637.089 6.393 2.619 5.087 3.427-.906.559-.909 1.063-.013 2.142 1.779 2.144-.133 1.749-7.465-1.54-3.617-1.623-10.296-4.194-14.843-5.713-7.691-2.571-9.712-3.725-9.751-5.567-.008-.402 2.122-.528 4.735-.281 2.613.247 3.962.206 3-.093-1.376-.426-1.649-1.329-1.275-4.218.261-2.023.942-12.902 1.514-24.177.572-11.275 1.272-22.975 1.556-26l.516-5.5-3.233 4c-1.779 2.2-4.942 5.618-7.031 7.596L442 74.693v20.653c0 15.84-.291 20.661-1.25 20.686-.826.021-.712.445.337 1.25 2.448 1.88 4.109 5.479 2.879 6.239-1.183.731-7.13-.117-14.466-2.063l-5-1.326 7-.082c4.25-.049 6.474-.414 5.661-.929-.737-.467-3.774-.709-6.75-.537-2.976.172-5.411-.114-5.411-.636 0-.521.394-.948.876-.948.738 0 2.285-9.296 2.081-12.5-1.297-20.366-.837-34.5 1.123-34.5.506 0 .92.886.92 1.969 0 1.355.476 1.786 1.529 1.382 1.274-.49 1.106-1.141-1.016-3.923-3.583-4.698-6.027-10.823-7.983-20.008-.927-4.356-1.841-8.595-2.031-9.42-.19-.825-.38-6.428-.422-12.45-.101-14.434-1.985-12.923-2.785 2.233-.651 12.339.403 19.712 4.389 30.717 2.486 6.862 2.524 7.385 1.931 26.5-.332 10.725-.883 21.58-1.224 24.122l-.619 4.621-5.635.582c-3.099.32-6.682.889-7.963 1.266l-2.33.684.544-15.888c.298-8.738.81-28.262 1.138-43.387.327-15.125.768-30.538.981-34.25.345-6.027.189-6.75-1.454-6.75-2.057 0-1.865-2.819-4.326 63.488-1.153 31.073-1.334 33.008-3.121 33.351-1.817.349-1.872-.284-1.294-14.987.332-8.444 1.064-27.952 1.625-43.352.562-15.4 1.261-30.362 1.553-33.25.502-4.966.406-5.25-1.77-5.25h-2.3l-1.706 33.75c-.938 18.563-1.897 35.1-2.133 36.75-.235 1.65-.484 10.2-.554 19-.153 19.245-.727 24.5-2.675 24.5-.957 0-1.33-.902-1.137-2.75.265-2.531.009-2.75-3.212-2.75-3.075 0-3.538.334-3.816 2.75-.284 2.468-.711 2.75-4.157 2.75h-3.84l.381-12.25c.58-18.674 2.431-59.405 3.488-76.733 1.38-22.625 1.324-24.017-.96-24.017-1.71 0-1.963 1.045-2.49 10.25-1.126 19.692-2.581 54.412-3.131 74.75-.734 27.1-.979 28.981-3.703 28.456-1.169-.225-2.553-.837-3.075-1.359-1.03-1.03-1.346-76.306-.416-98.847.511-12.398.428-13.25-1.294-13.25-1.012 0-2.046.788-2.298 1.75-.435 1.667-.463 1.667-.573 0-.076-1.147-.941-1.75-2.51-1.75h-2.393l-.627 16.75c-1.09 29.093-1.605 40.255-2.712 58.75-.592 9.9-.918 22.164-.725 27.252.343 9.033.298 9.253-1.899 9.25L347 131l.054-20.75c.03-11.412.474-24.35.988-28.75.513-4.4 1.234-19.855 1.603-34.344.671-26.436.521-28.037-2.645-28.142-.275-.009-.359 8.376-.187 18.633.194 11.498-.286 25.275-1.25 35.925-.859 9.501-1.563 24.959-1.563 34.351 0 10.36-.381 17.077-.969 17.077-.617 0-.791-12.819-.479-35.25.27-19.388.594-42.9.72-52.25l.228-17-29.272.105c-16.1.058-29.55.383-29.889.722-.339.34-.552 22.567-.473 49.395.166 56.466-.004 59.278-3.584 59.278h-2.487l.74-44.75c.407-24.612.759-45.65.781-46.75.245-12.102-.392-17.5-2.066-17.5-1.646 0-1.736 2.876-1.518 48.25.255 52.865.159 54.75-2.777 54.75-1.694 0-1.953-.701-1.938-5.25.032-9.576 1.917-73.043 2.539-85.5.586-11.728.528-12.25-1.358-12.25-1.9 0-1.991 1.019-2.578 28.75-.335 15.813-.833 38.875-1.107 51.25-1.628 73.464-1.775 93.708-.693 95.572.616 1.06 1.133 1.366 1.15.678.048-1.986 4.02-1.501 4.1.5.062 1.526.168 1.502.828-.184.481-1.229 1.007-1.529 1.443-.823.459.743 1.696.82 3.74.234 1.758-.504 4.043-.5 5.384.01 1.281.487 2.625.59 2.987.228.361-.361 1.075.005 1.587.814.63.996.935 1.068.946.221.029-2.426 1.888-1.213 2.299 1.5l.416 2.75.15-2.745c.142-2.594.355-2.711 3.9-2.144 5.131.821 13.124.848 13.925.047.362-.362-.092-.658-1.008-.658-.917 0-1.673-.562-1.681-1.25-.007-.687-.277-2.234-.6-3.437-.561-2.093-.43-2.139 3.054-1.07 3.312 1.017 3.584 1.371 3.02 3.937-.551 2.51-.342 2.82 1.894 2.82 1.998 0 2.578-.563 2.83-2.75.266-2.319.848-2.801 3.711-3.074 3.677-.351 5.065.896 5.09 4.574.014 2.083.463 2.25 6.047 2.25 5.321 0 6.139.265 6.937 2.25.716 1.782.917 1.878.968.462.058-1.653 1.028-1.744 12.783-1.204 7.239.333 13.002 1.042 13.375 1.645.418.676.875.705 1.261.08.765-1.237 11.919-.373 12.773.99.394.628.768.643 1 .038.234-.607 4.625-.664 11.871-.152 13.142.929 25.097 1.558 46.5 2.445 8.25.342 15.225.635 15.5.652.275.017 4.386-.022 9.135-.088 8.051-.11 8.746-.288 10.278-2.625 1.906-2.91 2.982-15.687 4.544-53.993 2.162-52.988 4.128-94.522 5.063-107C486.606 21.356 486.4 16 484 16c-1.1 0-2.022.563-2.049 1.25-.027.688-.257 8.675-.51 17.75-.639 22.832-3.372 82.604-4.009 87.644-.457 3.619-.79 4.075-2.628 3.594-2.066-.54-2.093-.855-1.451-16.644.359-8.852 1.737-28.469 3.061-43.594 1.324-15.125 2.439-30.2 2.477-33.5.038-3.3.355-8.362.705-11.25.525-4.346.368-5.25-.913-5.25-.852 0-1.794.788-2.095 1.75M314 22.076c0 .626-.661.884-1.469.574-4.266-1.637-18.015 5.816-21.612 11.716-2.685 4.403-2.695 25.078-.017 34.884 1.767 6.472 1.769 6.75.05 6.75-1.16 0-1.982.971-2.328 2.75-.855 4.392-2.964 50.243-2.34 50.867.311.311 3.299.784 6.641 1.052l6.075.487v-22.578c0-12.418.337-22.571.75-22.563 1.506.031 3.439 1.75 2.57 2.287-.491.304-.838 5.647-.772 11.875.318 29.607.392 30.823 1.893 30.823 2.495 0 2.758-1.707 3.133-20.323.201-9.997.379-18.739.396-19.427.016-.687.93-1.25 2.03-1.25 1.74 0 1.981.617 1.85 4.75l-.15 4.75-.7-4.5c-.418-2.688-.76 3.279-.85 14.817-.145 18.614-.08 19.296 1.766 18.71 1.054-.335 2.169-.199 2.478.301 1.008 1.632 14.778 2.503 15.751.997.696-1.079 1.041-1.046 1.855.175.889 1.333 1.109 1.333 1.985 0 1.221-1.861 1.259-34.808.047-41-.529-2.702-.512-4.88.043-5.45 1.635-1.68 1-2.282-2.325-2.203-1.788.042-3.478.648-3.757 1.347-.398.997-1.15.937-3.491-.278-3.558-1.845-8.468-1.191-13.289 1.772-3.747 2.303-10.213 1.839-10.213-.733 0-.8-.45-1.455-1-1.455-1.89 0-1.021-8.405 1.293-12.5 2.658-4.703 5.584-5.528 9.282-2.619 2.163 1.701 4.18 2.042 12.747 2.158 13.553.184 13.678.199 13.678 1.647 0 .861-1.659 1.234-5.25 1.182-18.431-.268-19.509.007-17.789 4.529l.975 2.565 11.564-.286c10.177-.252 11.474-.099 10.811 1.269-.909 1.879-.887 5.777.18 31.305.454 10.862 1.141 19.75 1.527 19.75 1.038 0 1.796-26.237 1.206-41.706-.339-8.873-.836-12.993-1.463-12.119-.693.967-.789.83-.355-.507.327-1.007.653-5.957.726-11 .096-6.687.331-8.221.868-5.668.454 2.157.787-2.285.868-11.572.145-16.569-.518-18.571-8.087-24.422-3.146-2.432-17.781-4.02-17.781-1.93m44.664 21.421c-.428 12.098-1.204 29.198-1.725 38-.52 8.801-.906 23.766-.858 33.253.082 16.187.203 17.25 1.968 17.25 1.811 0 1.89-1.833 2.166-50.25.315-55.577-.353-72.071-1.551-38.253m90.095 27.559c-2.464 4.288-2.569 5.171-2.994 25.178-.419 19.748-.349 20.763 1.473 21.341 2.66.845 3.056.163 3.39-5.826.161-2.887.801-13.124 1.423-22.749.712-11.038.785-18.403.195-19.944-.916-2.399-.982-2.362-3.487 2M.479 192c0 49.225.122 69.362.271 44.75.149-24.613.149-64.888 0-89.5C.601 122.637.479 142.775.479 192m396.946-65.25c3.265 26.817 3.647 40.071 1.194 41.443-2.267 1.269-6.596 10.422-6.609 13.974-.026 7.051 9.41 20.822 14.271 20.829 3.58.005 4.348-2.106 2.045-5.621-2.485-3.792-2.51-16.102-.047-22.484l1.779-4.61-3.45-13.89c-1.897-7.64-3.977-16.591-4.622-19.891-1.352-6.922-3.975-15.5-4.739-15.5-.287 0-.207 2.588.178 5.75M169.5 217.472c-.55.172-4.262.884-8.25 1.581-8.592 1.503-9.16 2.439-2 3.299 10.118 1.215 14.058.802 18.018-1.888 2.053-1.395 3.732-2.745 3.732-3 0-.507-9.881-.5-11.5.008m-85.419 8.931c-.894 1.077-.865 1.523.127 1.921.711.285.249.554-1.025.597-1.85.063-2.19.483-1.683 2.079.356 1.121.18 2-.401 2-.57 0-.795.629-.499 1.399.295.769.056 1.696-.532 2.059-1.486.919-1.342 4.539.182 4.557.895.011.855.266-.143.897-.813.516-1.549 3.109-1.77 6.235-.207 2.944-.537 6.803-.732 8.575-.394 3.575.218 3.946 6.895 4.169 2.2.074 5.125.353 6.5.62 4.773.927 5.056-.03 4.351-14.732-.522-10.88-.925-13.496-2.014-13.078-1.577.605-4.337-1.391-4.337-3.135 0-.654.918-2.174 2.039-3.377L93.078 225h-3.917c-2.154 0-4.44.631-5.08 1.403m74.56.104c.489 1.274-.477 1.443-6.282 1.094-14.678-.881-16.359.869-16.359 17.035 0 12.391 1.542 15.393 7.655 14.908 1.84-.146 3.345.122 3.345.595 0 .474 1.125.861 2.5.861 1.772 0 2.5.542 2.5 1.863 0 1.58 1.026 1.946 6.749 2.405 3.713.298 7.088.333 7.5.078.413-.255.751-8.762.751-18.905 0-16.271-.189-18.441-1.607-18.441-1.018 0-1.396-.55-1.031-1.5.442-1.154-.218-1.5-2.862-1.5-2.651 0-3.305.345-2.859 1.507m17.438.758c-2.892 1.475-3.413 2.717-1.987 4.735.798 1.129 1.186 1.191 1.567.25.279-.687.868-1.25 1.308-1.25 1.285 0 1.837 4.796.684 5.949-1.338 1.338-3.973 1.381-3.151.051.34-.55.141-1-.441-1-.696 0-1.059 4.941-1.059 14.43v14.43l3.25-1.011c1.787-.556 4.037-1.252 5-1.547.963-.294 1.75-.949 1.75-1.454 0-.518.844-.467 1.934.117 3.22 1.723 5.801 1.233 6.395-1.215.762-3.137.792-18.111.051-24.906l-.617-5.657-4.132-.591c-2.272-.325-4.928-.619-5.903-.654-.974-.035-1.51-.486-1.191-1.003.793-1.282-.555-1.155-3.458.326m-72.918 6.282c-.69 1.514-1.161 7.8-1.161 15.5V262h3.596c1.977 0 4.79-.597 6.25-1.326 1.46-.73 4.153-2.08 5.985-3 1.832-.921 4.42-1.674 5.75-1.674s2.419-.477 2.419-1.059-.45-.781-1-.441-1 .168-1-.382.401-1.248.89-1.55c1.497-.925 1.262-13.197-.277-14.474-1.51-1.253-4.921-.401-4.048 1.011.304.492.076.895-.506.895s-1.059-.723-1.059-1.607c0-1.018-.55-1.396-1.5-1.031-2.057.789-4.5-.28-4.5-1.969 0-.766-1.013-1.445-2.25-1.508-4.699-.241-5.243-.419-5-1.635.448-2.241-1.399-1.315-2.589 1.297M460.882 250c-.062.275-.173 1.154-.247 1.952-.074.799-1.26 1.75-2.635 2.113-1.984.523-2.17.802-.899 1.347 1.94.833 4.139.442 5.134-.912.404-.55.741-.02.75 1.179.029 4.163 2.505 5.321 11.38 5.321h8.222l1.091-4.09 1.092-4.089-3.206.601c-3.633.682-5.049-.133-3.493-2.007.835-1.007-.824-1.337-8.011-1.592-4.986-.178-9.115-.098-9.178.177" fill="#d3d3d3" fill-rule="evenodd"/></svg>