<svg xmlns="http://www.w3.org/2000/svg" width="500" height="500"><path d="M0 250v250h391l-.005-2.25c-.002-1.238-1.328-3.662-2.945-5.388-2.874-3.065-3.13-4.714-.581-3.736.7.269 1.553-.24 1.895-1.132.342-.891 1.044-1.36 1.56-1.041a1.11 1.11 0 0 0 1.523-.368c.766-1.238-.359-1.874-4.531-2.559-7-1.149-8.916-1.709-8.916-2.605 0-.507.408-.921.906-.921.499 0 .676-.884.393-1.964-.521-1.994 1.948-5.456 3.082-4.322.34.341.619.138.619-.45 0-.587-1.363-1.544-3.03-2.125-3.875-1.35-6.39-3.761-4.891-4.688.603-.372.88-1.502.616-2.51-.391-1.495.193-1.889 3.163-2.137 2.092-.175 3.548-.798 3.422-1.464-.121-.638 1.634-2.078 3.899-3.199 3.726-1.843 4.387-1.9 6.921-.589 4.714 2.438 12.968 1.462 8.9-1.052-1.808-1.118-1.171-5.5.8-5.5.99 0 2.236-.436 2.769-.969.532-.532 2.76-1.243 4.95-1.579 6.295-.965 7.004-2.362 3.41-6.722-1.682-2.041-2.788-4.149-2.457-4.684 1.192-1.929-10.202-9.793-15.472-10.678-.825-.139-3.075-.578-5-.977-4.091-.848-6.25-.595-7.138.837-1.022 1.646-2.387.192-4.397-4.682-1.031-2.5-2.395-4.546-3.031-4.546-.704 0-.964-1.01-.663-2.582.342-1.788 1-2.45 2.141-2.151 3.024.791 4.487-2.004 3.199-6.112-1.299-4.142-1.086-13.151.31-13.153.507-.001 1.736-.739 2.731-1.64 1.693-1.532 2.015-1.436 5.019 1.5 1.765 1.726 4.023 3.138 5.019 3.138.995 0 1.814.563 1.818 1.25.004.688 1.129 1.77 2.5 2.406 3.228 1.497 3.17.295-.144-3.02-1.45-1.45-2.215-2.636-1.7-2.636.515 0 1.476.54 2.136 1.2.707.707 1.2.778 1.2.174 0-.564-1.084-2.044-2.409-3.289-2.235-2.099-2.436-2.13-2.765-.424-.436 2.263-11.771-9.116-11.805-11.852-.012-.93-.502-1.988-1.089-2.351-.588-.363-.813-1.326-.5-2.14.312-.814-.107-2.444-.932-3.622-4.804-6.858 2.097-11.925 7.553-5.546 1.576 1.842 2.884 3.913 2.906 4.6.023.688.473 1.25 1.002 1.25s1.823.925 2.876 2.055c1.053 1.13 3.138 2.185 4.634 2.345 1.495.159 3.05.825 3.454 1.479.827 1.338 3.67.593 6.279-1.645 1.365-1.17 2.341-1.24 4.9-.348 5.529 1.928 19.395 1.41 23.908-.892 9.615-4.905 12.238-9.109 9.89-15.845-1.353-3.881-2.681-4.122-2.2-.399.524 4.059-1.036 6.045-3.288 4.186-1.347-1.112-1.835-1.152-2.162-.18-.233.691-.882.972-1.444.625-.645-.398-.521-.948.335-1.491.991-.628.75-.864-.893-.875-1.34-.009-2.25.592-2.25 1.485 0 2.38 3.954 5.745 6.092 5.186 1.05-.274 1.908-.143 1.908.291 0 1.593-5.525 1.861-7.822.38-2.113-1.363-2.473-1.325-4 .416-1.952 2.224-5.077 2.471-6.997.551-.738-.738-1.756-1.087-2.262-.774-.505.312-.919.134-.919-.397s-.827-.75-1.838-.485c-1.536.401-1.767.002-1.41-2.434.326-2.219-.308-3.719-2.662-6.297-1.7-1.86-3.09-3.988-3.09-4.727 0-.856-.676-1.13-1.859-.755-3.409 1.082-4.405-1.626-3.077-8.373 1.443-7.337 1.439-7.343-15.943-25.582-24.472-25.678-29.262-30.5-30.291-30.5-.587 0 .245-1.342 1.848-2.982 1.604-1.64 5.595-6.626 8.869-11.079A2978.54 2978.54 0 0 1 387 255.834c8.045-10.735 13.877-18.81 20.918-28.964 2.429-3.503 5.526-7.495 6.881-8.87 1.354-1.375 4.466-5.532 6.914-9.237 5.003-7.574 4.982-8.625-.367-17.763-1.449-2.475-7.947-15.075-14.441-28-6.493-12.925-15.709-30.475-20.478-39-4.77-8.525-10.306-18.875-12.302-23-3.423-7.072-9.487-17.835-14.79-26.25-2.812-4.462-5.908-4.9-10.681-1.51-6.51 4.625-20.15 15.896-20.937 17.3-.449.803-1.387 1.46-2.085 1.46s-3.038 1.58-5.2 3.51c-2.163 1.931-5.732 4.407-7.932 5.503-3.998 1.991-4.001 1.991-4.903-.01-.496-1.102-1.284-2.003-1.75-2.003-.466 0-.847-.886-.847-1.969 0-1.386.469-1.788 1.587-1.359 1.138.437 1.523.075 1.361-1.282-.124-1.039.331-3.352 1.011-5.14 1.119-2.942 2.098-3.712 4.284-3.371.408.064.673-1.643.589-3.792-.097-2.478.455-4.517 1.508-5.569.913-.914 1.66-2.082 1.66-2.598 0-.515 1.76-1.64 3.91-2.501 4.172-1.669 7.845-7.063 6.039-8.869-1.945-1.946-.812-3.611 4.051-5.957 2.75-1.327 5-2.003 5-1.503 0 1.387 3.775 1.085 4.25-.34.266-.797 2.107-1.187 5.084-1.076 2.566.095 4.666-.147 4.666-.538s1.006-.786 2.235-.879c1.23-.092 2.393-.641 2.586-1.219.192-.578.761-.796 1.264-.485.503.311.915.062.915-.553s.52-.797 1.155-.405c.768.475.88.271.335-.61-.578-.936-.373-1.154.695-.744.833.319 3.626.13 6.208-.42 4.109-.877 4.768-1.377 5.297-4.021.428-2.141 1.505-3.399 3.7-4.322 1.856-.78 3.099-2.036 3.103-3.135.006-1.494.933-1.887 5.007-2.121 6.835-.393 7.383-.671 4.497-2.275-1.373-.764-6.198-1.652-10.721-1.975-4.523-.322-8.525-.887-8.892-1.255-.95-.95 1.565-3.717 3.378-3.717 1.463 0 4.141-2.706 4.206-4.25.018-.413-.621-.75-1.418-.75-.798 0-1.867-.745-2.377-1.654-.557-.996-1.572-1.407-2.549-1.032-.893.343-1.624.201-1.624-.314s-.64-.692-1.422-.392c-1.723.662-5.84-1.376-5.123-2.535.281-.455 2.517-1.332 4.969-1.949 2.451-.618 4.74-1.58 5.086-2.14.345-.559 1.047-.758 1.559-.441.512.316.931-.54.931-1.902 0-2.666 6.056-7.342 7.974-6.157.556.343 1.801.164 2.768-.399C384.946.384 324.719.051 192.75.03L0 0v250M459.461 3.75c-.346 2.063-1.02 5.1-1.497 6.75-.476 1.65-1.366 5.925-1.976 9.5-.609 3.575-2.858 11.9-4.997 18.5-3.773 11.641-9.194 32.859-10.476 41-.347 2.2-.835 5.001-1.085 6.223-.326 1.594-.063 2.073.929 1.693.76-.292 1.629.111 1.93.895.531 1.383 10.3 3.916 39.211 10.165 6.6 1.426 13.462 2.986 15.25 3.465l3.25.872V0h-39.909l-.63 3.75m-38.865 41.987c-.405.406-1.493.743-2.417.75-1.215.009-1.765 1.048-1.989 3.763-.199 2.395.117 3.75.872 3.75.9 0 .905.335.022 1.399-1.22 1.47 5.349 17.514 7.787 19.022 1.112.686 1.714-3.833 1.233-9.257-.114-1.284.317-2.967.957-3.738.909-1.095.811-1.538-.448-2.021-1.989-.763-2.101-4.06-.202-5.959.8-.8 1.178-2.392.872-3.678-.861-3.626-4.748-5.969-6.687-4.031M212 236.992c0 .554-.675 1.008-1.5 1.008s-1.5.637-1.5 1.417c0 .779-.531 1.593-1.18 1.81-.767.255-.889 1.072-.349 2.333.457 1.067.954 2.542 1.104 3.278.151.735.983 2.121 1.849 3.078.867.958 1.576 2.201 1.576 2.763 0 .561 2.25 5.162 5 10.223 2.75 5.061 5 9.374 5 9.585 0 .211.52 1.65 1.156 3.198 1.244 3.028 1.456 3.856 1.692 6.575.083.968 1.029 2.51 2.1 3.428 1.776 1.52 1.805 1.772.322 2.856-1.486 1.087-1.459 1.4.313 3.652 1.065 1.355 2.608 2.281 3.427 2.058 1.209-.33 1.234-.227.133.545-.948.665-1.023 1.157-.25 1.635.609.376 1.107 1.572 1.107 2.656 0 1.085.675 2.232 1.5 2.548.825.317 1.5 1.166 1.5 1.888 0 2.255 3.391 7.343 5.211 7.819 1.781.466 6.501 7.504 6.016 8.97-.149.448.639 2.093 1.751 3.655 1.112 1.561 2.022 3.332 2.022 3.934 0 .603.45 1.096 1 1.096s1 .59 1 1.311c0 .722.918 2.297 2.039 3.5 1.121 1.204 1.811 2.189 1.532 2.189-.279 0-.146.975.295 2.167.852 2.302 4.086 3.452 4.204 1.495.039-.639.457-.262.93.838.797 1.855.865 1.824.93-.424l.07-2.425 2.25 2.022c2.617 2.35 7.038 1.786 7.568-.967.405-2.103-1.387-2.272-2.18-.206-.861 2.246-1.949 1.82-3.841-1.506-.937-1.647-1.297-2.994-.8-2.994.497 0 1.35.788 1.896 1.75.929 1.639 1.087 1.623 2.495-.25 1.372-1.824 1.311-2.152-.692-3.728-1.882-1.48-1.945-1.731-.446-1.75.962-.012 1.75-.541 1.75-1.175s.84-.184 1.867 1c1.027 1.184 2.351 2.153 2.941 2.153 1.792 0 2.54 2.166 1.07 3.096-.998.633-1.033.878-.128.889.688.008 1.25.929 1.25 2.046 0 1.118.675 2.291 1.5 2.607.825.317 1.5 1.207 1.5 1.979 0 .771.9 2.173 2 3.115 2.025 1.734 2.708 4.268 1.151 4.268-2.703 0-.338 7.466 3.344 10.557 3.797 3.188 3.827 3.265 1.441 3.713-2.318.435-2.327.464-.186.594 1.238.075 2.25.634 2.25 1.243 0 .609.631.865 1.403.569 1.823-.7 5.627 2.229 3.855 2.967-.976.407-.984.983-.038 2.688.663 1.193 1.109 2.506.992 2.919-.116.413.651.75 1.706.75 1.144 0 2.844 1.515 4.208 3.75 1.259 2.063 2.645 3.9 3.081 4.083.436.184.793.941.793 1.683 0 .742.788 1.605 1.75 1.917 2.087.678 5.722 8.567 3.948 8.567-.635 0 .482 1.348 2.481 2.996 2.627 2.165 3.49 3.553 3.112 5-.545 2.081-2.291 2.802-2.291.945 0-.582-.451-.78-1.003-.439-2.047 1.265.959 4.315 4.912 4.983 2.164.365 4.192 1.337 4.508 2.159.373.973 1.271 1.272 2.578.858 1.126-.358 2.005-.183 2.005.399 0 .57.563.858 1.25.641 1.693-.535 10.016 9.322 9.346 11.068-.339.884.153 1.39 1.352 1.39 1.037 0 2.062.531 2.279 1.18.231.693 1.137.894 2.196.488 1.47-.564 1.574-.966.567-2.18-.679-.818-.859-1.488-.4-1.488.459 0 1.824 1.238 3.033 2.75 1.209 1.512 2.5 2.451 2.868 2.086.627-.621-1.054-4.722-2.391-5.836-.851-.709-3.1-4.834-3.1-5.686 0-.393.54-.174 1.2.486.66.66 2.01 1.2 3 1.2.99 0 1.8.45 1.8 1s1.125 1 2.5 1c1.67 0 2.538.581 2.615 1.75.064.962.176 2.425.25 3.25.094 1.039 1.42 1.558 4.318 1.688 3.58.16 4.162-.093 4.037-1.75-.08-1.066-.486-1.938-.901-1.938-.416 0-.518-.622-.226-1.382.292-.76-.622-2.626-2.031-4.146-1.409-1.52-2.562-2.233-2.562-1.583 0 .876-.523.901-2.021.1-1.111-.595-2.461-.809-3-.476-.541.335-.979-.539-.979-1.954 0-1.407-.48-2.559-1.067-2.559-.597 0-.8-.845-.46-1.914.677-2.134-3.529-7.086-6.018-7.086-.8 0-1.455-.675-1.455-1.5s-.707-1.5-1.571-1.5c-3.079 0-4.057-2.356-3.943-9.5.125-7.835-.769-11.5-2.806-11.5-.754 0-2.194-.911-3.201-2.024-1.14-1.259-2.077-1.627-2.481-.972-.357.578-1.516-.757-2.574-2.965-1.058-2.209-2.444-4.021-3.08-4.028-1.877-.018-22.595-18.895-25.666-23.385-1.552-2.269-4.362-7.051-6.243-10.626-1.882-3.575-5.834-9.267-8.783-12.648-6.523-7.478-13.003-17.177-18.609-27.852-4.494-8.558-9.403-15.521-15.657-22.209-3.696-3.953-5.619-6.587-14.084-19.291-6.047-9.075-9.597-12.309-13.879-12.646-2.073-.163-4.029-.647-4.346-1.075-1.13-1.526-5.077-3.304-5.077-2.287m284.317 54.758c-2.595 6.864-6.117 25.209-5.127 26.698.171.256-.581 1.117-1.669 1.913-1.953 1.428-1.948 1.472.384 3.361 1.516 1.227 2.405 3.055 2.479 5.094.072 1.962.639 3.18 1.481 3.182 1.086.002 1.035.506-.25 2.467-.888 1.355-1.615 3.515-1.615 4.8 0 1.284-.403 2.763-.896 3.285-.528.561-.48 1.974.118 3.45 1.233 3.041 1.56 8 .528 8-1.013 0-.927 5.173.114 6.815 1.391 2.193.113 6.185-1.981 6.185-3.208 0-2.15 2.382 3.88 8.733 2.148 2.263 2.351 2.296 4 .648 1.588-1.587 1.763-5.549 2.04-46.059.167-24.377-.06-44.322-.505-44.322-.444 0-1.786 2.587-2.981 5.75m-83.418 98.5c-1.187 3.988-2.55 7.678-3.029 8.2-1.743 1.903-.794 4.506 2.582 7.081 3.333 2.542 6.229 2.515 11.322-.104.853-.439-1.215-3.427-2.373-3.427-.761 0-1.946-.9-2.633-2s-1.769-2-2.404-2c-.8 0-1.057-2.309-.834-7.5.176-4.125.142-7.5-.076-7.5-.218 0-1.368 3.262-2.555 7.25m46.441 2.5c-1.904 2.063-5.756 6.086-8.562 8.941l-5.1 5.19 2.799.702c2.369.595 3.253.182 5.764-2.69 1.632-1.866 3.702-3.394 4.6-3.395.899-.001 2.226-1.238 2.951-2.75.88-1.835 2.092-2.748 3.649-2.748 1.828 0 2.427-.65 2.773-3.006.816-5.559-3.851-5.687-8.874-.244" fill="#d3d3d3" fill-rule="evenodd"/></svg>