<svg xmlns="http://www.w3.org/2000/svg" width="500" height="764"><path d="M220.747 215.576c-.413.419-2.438.935-4.5 1.146-2.061.21-4.175.809-4.697 1.33-1.499 1.496-4.275 1.107-4.967-.695-.346-.904-.909-1.365-1.249-1.024-.34.34-.026 1.333.698 2.206 1.165 1.404.98 1.515-1.607.961-2.474-.53-2.644-.449-1.105.526 1.749 1.107 1.75 1.202.023 2.465-1.99 1.455-2.774 7.5-.976 7.524.732.01.682.302-.14.824-1.661 1.053-2.393 4.94-1.085 5.749.561.347.75 1.706.42 3.021-.355 1.414-.16 2.391.478 2.391.593 0 .751.528.352 1.174-.399.646-.807 4.209-.907 7.917l-.181 6.742 3.598 1.526c7.76 3.29 16.726 3.802 21.598 1.234 1.65-.869 4.238-1.583 5.75-1.587 1.512-.003 2.751-.343 2.752-.756.001-.413 1.394-.848 3.095-.967 2.616-.184 2.906.009 1.876 1.25-1.898 2.287 2.855 1.899 6.527-.533 4.035-2.672 6.153-2.519 6.911.5.345 1.375 1.051 2.5 1.569 2.5s1.825.948 2.904 2.106c1.08 1.159 2.419 1.825 2.977 1.48 2.281-1.41 11.941 16.342 11.907 21.882-.01 1.632-.98 4.557-2.157 6.5-2.778 4.587-2.933 27.437-.22 32.532 2.619 4.92 1.907 8.776-4.297 23.28-5.737 13.413-8.665 21.983-7.804 22.843.232.232 1.22-1.726 2.197-4.351.977-2.624 2.167-5.2 2.644-5.722.478-.523.869-1.725.869-2.673s1.055-2.996 2.345-4.55c1.289-1.555 3.202-5.077 4.25-7.827l1.905-5 .324 3.395c.196 2.048-.201 3.72-1 4.214-.728.45-1.362 1.172-1.408 1.605-.046.432-.622 2.136-1.279 3.786-.658 1.65-1.394 3.563-1.635 4.25-.242.688-.839 1.25-1.327 1.25s-.84 1.349-.781 2.998c.117 3.316 1.946 3.965 3.526 1.252.691-1.187 1.029-1.308 1.05-.378.024 1.102.324 1.129 1.518.138 1.2-.996 1.6-.944 2.065.267.706 1.841 4.447 1.089 4.447-.894 0-.76.436-1.383.969-1.383.532 0 .714.662.404 1.471-.474 1.233-.03 1.204 2.743-.179 1.82-.908 2.763-1.832 2.096-2.055-1.606-.535-1.571-3.262.038-2.87.688.168.91.116.494-.116-1.175-.655.194-2.251 1.93-2.251 1.395 0 1.39.253-.048 2.448-.983 1.501-1.221 2.684-.615 3.059.956.591 1.379-.125 1.083-1.831-.079-.454.387-.497 1.036-.096.719.445.913.299.498-.373-.434-.702.056-.961 1.345-.712 1.577.303 2.027-.138 2.027-1.985 0-2.362.028-2.356 5.1 1.058 2.806 1.887 5.618 3.408 6.25 3.38.633-.029.036-.817-1.326-1.75-6.533-4.478-9.018-7.34-8.01-9.224 1.641-3.066 1.257-4.189-1.017-2.973-1.573.842-2.401.689-3.864-.714-4.218-4.048-4.367-5.778-.966-11.249 1.741-2.801 3.166-6.411 3.166-8.022 0-1.61.375-2.696.834-2.413.458.283.833-.637.833-2.044s.376-2.559.835-2.559c1.324 0 5.998 5.643 7.643 9.228l1.502 3.272-.437-4.756c-.463-5.031-3.511-11.184-3.575-7.217-.031 1.95-.049 1.95-1.5.032-.807-1.068-1.468-2.243-1.468-2.611 0-1.347 7.23-.05 9.087 1.631 1.052.952 1.913 1.274 1.913.715s1.238-.852 2.75-.65c2.336.312 2.149.074-1.241-1.577-4.014-1.955-7.509-5.377-7.509-7.352 0-.585 1.042-.085 2.314 1.111 1.273 1.196 2.863 2.174 3.532 2.174s1.476.675 1.792 1.5c.317.825 1.003 1.5 1.526 1.5 2.06 0-2.64-5.739-8.19-10-6.369-4.889-7.625-6.914-6.081-9.801.552-1.031.769-2.961.481-4.287-.51-2.353-.485-2.363 1.006-.412 4.975 6.511 6.812 6.694 3.473.347-1.98-3.764-2.297-5.89-2.363-15.847-.073-10.9-.244-11.827-3.283-17.766-1.764-3.446-3.207-6.628-3.207-7.07 0-.442-1.493-2.573-3.319-4.734-1.825-2.162-4.699-5.955-6.387-8.43-2.673-3.919-8.546-10-9.659-10-.21 0-3.806-2.058-7.99-4.573-5.546-3.333-8.224-4.4-9.877-3.935-1.859.524-1.997.43-.768-.521 1.275-.986 1.228-1.072-.313-.572-.998.323-3.176-.117-4.84-.978-1.665-.861-5.349-1.761-8.187-2-2.838-.24-8.31-.699-12.16-1.022-3.85-.322-7.339-.243-7.753.177M229 230.895c2.876 2.37 2.386 2.542-6.153 2.149-3.17-.145-4.923.245-5.5 1.225-.934 1.586-4.578 3.731-6.34 3.731-.619 0-.847-.45-.507-1 .998-1.614-.49-1.153-3.227 1-2.383 1.874-2.412 2-.467 2 2.916 0 3.703 1.789.959 2.179-3.513.498-2.32 2.201 2.431 3.473l4.304 1.152-3.583.098c-4.056.111-5.318 3.098-1.309 3.098 1.251 0 2.552.45 2.892 1 .944 1.527 4.213 1.191 4.862-.5.316-.825.049-1.5-.593-1.5-.848 0-.826-.343.081-1.25 1.297-1.297 1.658-1.407 5.4-1.64 1.858-.116 1.989-.319.75-1.165-1.115-.761-.42-.96 2.707-.775 2.314.137 4.496-.04 4.848-.392.352-.352 1.272-.398 2.043-.102.771.296 1.402-.013 1.402-.686 0-.721.802-1.014 1.954-.712 1.074.281 2.73-.058 3.68-.752 1.599-1.17 1.556-1.354-.589-2.502-1.794-.96-2.01-1.428-.958-2.078 1.089-.673 1.017-.969-.365-1.499-.966-.371-1.722-1.712-1.722-3.054 0-1.364-.591-2.393-1.375-2.393-.756 0-2.894-.262-4.75-.582l-3.375-.583 2.5 2.06m-36.413 16.137c-4.994 2.492-7.713 4.955-6.909 6.256.388.628.127.71-.678.212-.921-.569-1.069-.421-.5.5.455.737.414 1.065-.095.75-.498-.307-.972.553-1.053 1.911-.185 3.083-1.207 4.192-2.272 2.468-2.237-3.619-9.324 12.339-13.6 30.621-1.255 5.365-2.122 7.251-3.338 7.254-.903.002-3.082.881-4.841 1.954-9.221 5.622-4.729 23.278 8.699 34.191 4.789 3.893 5.713 5.239 7.148 10.411 8.387 30.225 32.702 51.293 51.943 45.007 6.262-2.046 14.517-7.557 11.356-7.582-1.623-.013-1.698-.177-.447-.985 1-.646 1.083-.974.25-.985-.687-.008-1.218-1.027-1.18-2.265.067-2.147.11-2.158.93-.25.795 1.849.874 1.812 1.048-.5.104-1.375.136-2.837.07-3.25-.065-.413.318-.75.851-.75.532 0 .685-.788.339-1.75-.516-1.438-.199-1.365 1.782.412 1.98 1.776 2.626 1.925 3.618.837.949-1.041.896-1.583-.25-2.534-1.026-.852-1.458-.877-1.458-.087 0 .617-.408 1.122-.906 1.122-.499 0-.671-.9-.384-2 .288-1.1.133-2.007-.343-2.016-.477-.009-2.277-1.246-4.001-2.75a1038.337 1038.337 0 0 0-5.555-4.808c-2.485-2.129-2.967-9.652-1.381-21.585.337-2.543.065-3.821-.894-4.189-1.543-.592-.933-4.675.876-5.871.765-.506.69-1.363-.254-2.885-.832-1.341-.971-2.398-.366-2.78.537-.339 1-2.526 1.029-4.86.03-2.334.333-4.697.675-5.25.342-.553.055-1.006-.637-1.006-.979 0-.992-.267-.059-1.2 3.294-3.294 1.463-7.501-5.83-13.394-3.866-3.124-7.354-5.354-7.75-4.957-.396.398.292 1.544 1.53 2.547 1.238 1.004 2.25 2.145 2.25 2.537 0 .391-.675.152-1.5-.533-2.152-1.786-1.848-.258.557 2.799 1.334 1.696 1.854 3.42 1.48 4.908-.41 1.637-.141 2.293.944 2.293 1.054 0 1.509.995 1.486 3.25l-.034 3.25-1.966-2.361c-1.082-1.298-1.967-3.381-1.967-4.627 0-2.309-2.213-4.966-3.262-3.917-1.051 1.051 2.66 9.397 4.427 9.957 1.086.345 1.53 1.185 1.19 2.249-.412 1.286-.311 1.375.412.364.747-1.043 1.075-.879 1.501.75.796 3.047-2.091 2.68-3.268-.415-.523-1.375-1.46-2.5-2.082-2.5-.623 0-.884.646-.581 1.435.303.79.037 1.607-.591 1.816-.829.277-.768 1.319.224 3.815 1.959 4.927 3.064 6.151 4.486 4.97 1.575-1.307 3.582.692 3.428 3.414-.1 1.761-.182 1.796-.584.247-.54-2.084-3.3-.5-3.3 1.894 0 .74-.625 1.106-1.389.813-1.676-.643-5.008-8.952-4.148-10.344.335-.543-.306-1.903-1.427-3.024-2.383-2.383-2.692-4.502-.536-3.674 1.938.743 1.894.331-.457-4.278-1.077-2.11-1.676-4.117-1.333-4.461.344-.344 1.413 1.063 2.377 3.126.963 2.063 1.778 3.076 1.81 2.251.033-.825-.893-3.525-2.057-6-2.024-4.301-2.149-4.39-2.841-2-.671 2.318-.783 2.358-1.541.56-.528-1.251-.399-2.08.362-2.333.649-.217 1.18-.861 1.18-1.433 0-.627-.594-.546-1.5.206-1.232 1.023-1.5.945-1.5-.437 0-1.016.457-1.399 1.155-.968.788.488.879.268.288-.69-.592-.961-.009-.845 1.846.368l2.711 1.773v-2.645c0-2.082-.282-2.412-1.324-1.547-.966.802-1.641.781-2.5-.078-.901-.901-1.176-.894-1.176.032 0 .932-.459.922-2-.04-1.1-.687-2-1.845-2-2.573s-1.351-2.461-3.003-3.851c-1.651-1.389-2.72-2.983-2.375-3.542.394-.636.949-.509 1.488.341.635 1.003.863.797.875-.786.008-1.179-.66-2.402-1.485-2.719-.991-.38-1.5.036-1.5 1.227 0 .991-.655 1.802-1.456 1.802-.801 0-1.224-.375-.941-.834.283-.458.151-.833-.294-.834-.445 0-.871-1.078-.947-2.395-.137-2.389.965-2.78 3.455-1.226.724.452 1.624.491 2 .085.375-.405.064-.956-.692-1.225-3.307-1.174-5.271-4.364-4.807-7.81.254-1.885.062-3.428-.428-3.428-.489 0-.89-.477-.89-1.059s.45-.781 1-.441c.635.392.964-2.05.9-6.691-.07-5.186-.332-6.583-.9-4.809-.902 2.818-1.078 2.657-1.364-1.25-.123-1.676.299-2.75 1.081-2.75.706 0 1.283-.9 1.283-2 0-2.442-.46-2.439-5.413.032M248 392.645c-28.087 1.407-48.571 3.808-58.931 6.909-21.135 6.326-27.904 10.12-36.795 20.623-10.351 12.228-15.534 36.736-17.833 84.323-.68 14.087-1.709 24.042-6.025 58.287-2.67 21.184-2.754 23.072-1.695 38.161 1.368 19.49 1.793 20.514 8.118 19.521 2.563-.403 15.986-.655 29.828-.561 14.48.098 25.408-.221 25.736-.751.313-.507-.307-2.036-1.378-3.398-14.451-18.372-26.053-47.032-26.013-64.259.01-4.217 2.145-14.993 3.175-16.019.935-.933 12.021 14.93 16.389 23.451 10.529 20.54 14.213 32.408 14.501 46.715.286 14.161-.394 13.269 9.77 12.812 4.759-.214 24.853-.676 44.653-1.027 19.8-.35 42.075-1.154 49.5-1.785l13.5-1.147.256-4c.281-4.388 1.322-12.476 4.44-34.5 1.711-12.079 2.099-20.594 2.322-51 .351-47.703 1.247-52.967 10.722-63 4.12-4.362 4.259-4.423 4.559-2 1.452 11.762 8.688 26.606 19.649 40.312 6.288 7.861 8.484 11.327 8.048 12.701-.336 1.057.479 4.246 1.85 7.245 3.019 6.6 2.629 9.057-2.441 15.374-2.148 2.677-4.26 5.318-4.693 5.868-6.33 8.051-1.933 26.929 9.316 40 4.667 5.424 4.559 2.302-.161-4.65-6.12-9.011-9.367-16.775-9.35-22.35.016-5.105.651-6.509 7.738-17.125 1.79-2.681 3.529-5.896 3.863-7.143.36-1.344 1.258-2.159 2.205-2 2.08.349 4.533-4.677 3.769-7.721-.323-1.288-4.462-6.304-9.197-11.147-14.956-15.296-22.778-28.188-26.359-43.438-2.583-11.005-2.737-10.739 8.073-13.958 3.662-1.091 7.102-2.543 7.642-3.226.541-.683 1.248-6.417 1.571-12.742.323-6.325 1.522-16.201 2.664-21.947 1.142-5.746 1.884-10.95 1.648-11.564-.452-1.179-12.482-3.027-42.134-6.471-30.333-3.523-50.634-4.468-72.5-3.373" fill="#d3d3d3" fill-rule="evenodd"/></svg>