<svg xmlns="http://www.w3.org/2000/svg" width="500" height="359"><path d="M268.116 83.339c-.101 1.608-.867 1.796-6.118 1.5-4.316-.244-6.001.012-6 .911.002 1.392-1.889 1.613-4.666.546-1.61-.619-1.53-.788.668-1.4 1.774-.494.903-.721-3-.781-3.352-.051-4.979.246-4.166.761 1.69 1.072-.641 2.163-3.476 1.628-1.022-.193-2.388-.385-3.035-.427-.647-.043-1.382-.864-1.634-1.827-.357-1.368-.482-1.277-.573.414-.108 2.006-.519 2.128-5.681 1.681-3.149-.272-6.111-.029-6.823.562-1.052.873-5.064 1.582-11.362 2.008-.687.047-1.25.746-1.25 1.554 0 .845-.592 1.241-1.395.933-1.8-.691-9.605 1.397-9.605 2.569 0 .492-.9 1.18-1.999 1.529-1.39.441-2.194 1.857-2.641 4.653-.354 2.21-1.254 4.253-2.002 4.54-.747.286-1.358 1.341-1.358 2.343 0 1.001-.777 2.598-1.727 3.548-1.636 1.637-1.763 1.601-2.4-.678-.518-1.849-.697-1.418-.773 1.865-.104 4.445-4.516 12.708-6.222 11.654-.483-.299-.878.807-.878 2.457s-.45 3.278-1 3.618c-.55.34-1.003 1.379-1.006 2.309-.004.93-.679 2.98-1.5 4.555-.822 1.576-1.5 3.826-1.508 5-.043 6.825-1.533 6.568-2.113-.364-.805-9.628.135 36.323 1.094 53.5.52 9.321.778 11.019.91 6 .208-7.907 2.173-7.053 2.464 1.07.088 2.432.485 4.423.883 4.425.399.003 1.423 1.355 2.276 3.005.853 1.65 1.245 3 .871 3-.375 0 .032.787.903 1.75.871.962 1.581 2.095 1.579 2.517-.015 2.538 1.451 6.649 2.303 6.458 1.242-.277 4.706 7.855 4.803 11.275.052 1.794.314 2.117.931 1.143 1.111-1.752 2.339.096 1.506 2.267-.419 1.092-.029 1.61 1.247 1.653 1.551.053 1.487.213-.393.968-3.003 1.207-3.259 7.514-.342 8.44 1.049.333 2.16 1.263 2.468 2.067.781 2.034 2.621 1.833 2.639-.288.013-1.401.192-1.471.899-.354.486.767 1.582 1.128 2.434.801.976-.375 1.767.089 2.137 1.255.567 1.787 4.703 3.591 7.265 3.167.779-.129 1.274 1.035 1.313 3.087.058 3.013.142 3.099.981 1.008.89-2.216.997-2.233 3.522-.579 2.138 1.401 2.754 1.465 3.438.358.692-1.119 1.722-1.062 6.03.329 6.874 2.22 6.786 2.245 7.238-2.072.309-2.957.431-2.586.575 1.75.107 3.204.518 4.973.985 4.238.619-.976 1.528-1.008 4.005-.145 4.752 1.656 6.163.004 6.163-7.215 0-3.233.436-5.878.969-5.878.532 0 .831-.562.664-1.25-.168-.687-.132-.96.079-.606.474.794 4.357-.096 5.994-1.375.664-.517 1.676-.651 2.25-.296.574.355 1.044.224 1.044-.29 0-.541 2.631-.386 6.24.367 3.433.716 6.367 1.177 6.52 1.023.154-.154.563-3.946.908-8.426.346-4.481 1.038-8.147 1.539-8.147.501 0 .59-.52.198-1.155-.443-.715-.275-.883.44-.44.635.392 1.155.236 1.155-.346s.337-.959.75-.837c1.416.42 6.25-3.453 6.35-5.087.057-.945.437-.58.9.865.745 2.327.808 2.349.9.309.133-2.923 1.74-3.795 2.393-1.298.286 1.094 1.038 1.989 1.672 1.989.634 0 .889-.426.567-.948-.326-.528.39-.76 1.618-.523 1.212.233 2.543.974 2.958 1.645.492.797.998.251 1.456-1.571.49-1.953.942-2.403 1.503-1.494.657 1.063 1.251 1.059 3.273-.023 1.358-.727 2.962-1.017 3.565-.645.61.378 1.095.003 1.095-.847 0-.838.925-2.019 2.056-2.624s2.453-2.084 2.937-3.285c.692-1.718.894-1.811.944-.435.113 3.133 1.954 1.846 3.171-2.217.654-2.182 1.521-3.762 1.927-3.511.406.251 1.294-.214 1.974-1.033.68-.819 1.797-1.489 2.483-1.489.685 0 1.502-1.575 1.814-3.499.313-1.925 1.941-6.313 3.62-9.75 2.631-5.389 3.676-8.541 4-12.06.041-.445.456-.573.922-.285 1.063.657 2.212-19.943 1.969-35.313-.184-11.588-.184-11.59-.817-3.593-.639 8.076-.782 8.348-1.635 3.111-.259-1.589-1.115-4.739-1.903-7s-1.453-6.361-1.478-9.111c-.039-4.326-.205-4.73-1.232-3-1.122 1.889-1.225 1.834-1.852-1l-.663-3-.164 3c-.162 2.977-.182 2.966-2.573-1.5-1.325-2.475-2.446-5.85-2.49-7.5l-.081-3-1.429 2.5-1.429 2.5-.152-2.5c-.104-1.725-.293-1.958-.608-.75-.252.963-.645 1.75-.873 1.75-1.104 0-4.273-3.458-3.828-4.178.28-.452-.017-.822-.658-.822-.655 0-.899-.697-.556-1.59.78-2.033-.362-4.084-1.367-2.457-.46.744-1.27.034-2.236-1.961-.833-1.72-1.802-3.097-2.154-3.059-2.732.288-3.827-.252-4.788-2.361-.609-1.336-1.837-2.404-2.729-2.373-.892.03-3.158-.247-5.036-.615-2.317-.455-3.696-.255-4.291.623-.562.83-.772.039-.586-2.207.249-2.992.727-3.59 3.291-4.118 2.929-.604 2.913-.622-.68-.75-2.97-.107-3.765-.567-4.114-2.382-.415-2.154-.439-2.16-.57-.123-.124 1.932-.57 2.078-4.863 1.595-5.218-.589-8.573-2.735-5.521-3.533 1.555-.407 1.563-.47.071-.573-.922-.064-1.882-.903-2.134-1.866-.416-1.593-.467-1.585-.573.089" fill="#d3d3d3" fill-rule="evenodd"/></svg>