<svg xmlns="http://www.w3.org/2000/svg" width="500" height="661"><path d="M221 3.055c-5.533.511-4.225 1.428 1.734 1.216 3.658-.13 3.497 11.271-.239 16.915-1.372 2.074-2.495 4.257-2.495 4.852 0 .594-.453.8-1.007.458-.554-.343-1.277.081-1.607.941-.33.859-1.253 1.563-2.052 1.563-.799 0-1.243-.338-.988-.75.256-.413-11.305-.752-25.691-.755-22.805-.005-59.501-.928-78.155-1.966-3.3-.183-13.2-1.129-22-2.101-8.8-.973-19.272-1.836-23.27-1.919-4.05-.083-7.794-.673-8.45-1.329-1.39-1.39-5.78-1.59-5.78-.263 0 .504.5 1.083 1.111 1.287.611.203-.699 1.625-2.912 3.158-4.679 3.243-18.775 4.147-20.365 1.307-.46-.824-1.757-1.215-3.144-.95l-2.36.451.277 26.165c.152 14.391.303 28.303.335 30.915.044 3.574.437 4.75 1.589 4.75.843 0 1.79.672 2.105 1.494.316.822.978 1.245 1.472.939 1.575-.973.354 3.399-1.531 5.482-1.272 1.405-1.616 2.793-1.152 4.64.363 1.45.257 3.156-.238 3.791-1.888 2.425-3.125 10.694-3.105 20.749.012 5.747-.389 11.561-.891 12.918-.51 1.379-.548 3.744-.085 5.358.456 1.589.775 14.462.709 28.608-.066 14.146.201 26.237.592 26.87.391.633 1.809 1.151 3.152 1.151 1.877 0 2.441.529 2.441 2.29 0 3.976-2.959 13.844-5.019 16.737-1.531 2.15-1.981 4.408-1.981 9.943 0 8.612 1.123 11.288 4.393 10.468 1.741-.438 3.24.293 6.063 2.956 2.063 1.945 4.683 3.833 5.824 4.195 1.141.362 3.227 1.727 4.636 3.034 5.5 5.1 12.985 3.401 13.062-2.965.012-1.014.92-2.985 2.019-4.381 1.098-1.396 2.453-4.236 3.012-6.311 1.006-3.737 1.056-3.767 5.253-3.243 2.331.291 4.629.887 5.107 1.323 1.375 1.253-3.566 9.223-7.093 11.442-3.239 2.037-4.23 5.46-2.411 8.328.979 1.544 5.801 4.184 7.642 4.184.704 0 1.537.672 1.852 1.494.316.822 2.051 2.395 3.857 3.497 3.069 1.87 3.126 2.002.881 2.005l-2.403.004 2.271 1.97c1.334 1.157 2.03 2.602 1.685 3.5-.871 2.269-2.928 1.859-5.084-1.011-1.049-1.398-2.469-2.326-3.154-2.063-.686.263-1.519-.233-1.853-1.102-.333-.869-.854-1.333-1.156-1.03-.303.303.158 1.92 1.023 3.593 2.203 4.26 1.966 4.86-.867 2.199-1.342-1.262-3.68-4.743-5.194-7.736-2.615-5.168-5.474-8.654-4.046-4.932.391 1.019.257 1.468-.33 1.105-.544-.336-.989.068-.989.898 0 .83-.787 1.968-1.75 2.529-1.605.935-1.61 1.022-.059 1.05 2.002.036 2.364.55 3.228 4.584l.654 3.055-7.509-3.555c-4.129-1.955-7.521-4.089-7.536-4.742-.015-.653-.816-1.12-1.778-1.037-1.954.168-5.895 3.725-4.128 3.725.776 0 .738.464-.122 1.5-.685.825-1.891 1.5-2.681 1.5-.791 0-1.18.416-.865.925.314.509.152 1.971-.36 3.25-2.944 7.351-2.946 7.364-1.759 11.825.512 1.925 1.038 4.4 1.17 5.5.132 1.1.297 2.424.367 2.941.071.518.706.15 1.413-.816 1.212-1.658 1.394-1.637 3.21.369 1.914 2.115 1.907 2.141-1.213 4.582-1.726 1.351-3.688 4.124-4.361 6.162-.672 2.039-1.851 4.335-2.62 5.103-.768.769-1.125 1.668-.794 1.999.331.331 1.02-.06 1.532-.869.748-1.182.933-1.062.946.612.028 3.836-2.25 13.417-3.19 13.417-.512 0-.656-.862-.322-1.916.335-1.054.14-2.205-.432-2.559-.573-.354-1.041-1.093-1.041-1.643s.419-.741.93-.425c.517.319.85-.984.75-2.936-.099-1.931-.628-3.364-1.176-3.184-1.303.428-2.458 7.574-1.336 8.267.476.294.527 1.066.114 1.715-1.191 1.872-1.722 18.926-.885 28.415.254 2.879.044 5.493-.467 5.809-1.359.84-1.136 2.499.296 2.207.675-.138 1.381.762 1.57 2 .189 1.238-.138 2.25-.726 2.25-.589 0-1.063.788-1.055 1.75.013 1.496.157 1.532.985.25.822-1.272.972-1.225.985.309.008.995.465 1.531 1.015 1.191 1.271-.786 1.288-7.367.033-12.807-1.249-5.411-1.826-18.693-.812-18.693.428 0 .784 1.012.791 2.25.006 1.238 1.131 7.838 2.5 14.669 3.024 15.096 3.049 13.717-.262 14.881-2.873 1.01-2.684 1.219 2.5 2.765 1.557.464 1.655 6.067.122 7.014-.767.474-.589 1 .555 1.64 1.408.788 1.47 1.201.378 2.524-1.031 1.251-1.043 1.67-.055 2.003.688.231 1.25 1.786 1.25 3.454 0 2.689.255 2.953 2.25 2.323 4.758-1.501 15.457-2.547 20-1.955 4.741.618 4.75.627 4.75 4.486 0 3.649.226 3.934 4.032 5.074 4.962 1.486 7.227.117 5.193-3.139-1.444-2.313-1.609-4.989-.307-4.989.505 0 1.63-.273 2.5-.607 1.344-.516 1.582.386 1.582 6 0 6.209-.137 6.607-2.277 6.607-2.839 0-6.723 2.632-6.723 4.557 0 .794.89 1.443 1.977 1.443 1.761 0 5.879 4.537 4.908 5.408-.212.191-2.298 1.311-4.635 2.489-4.896 2.469-5.182 3.266-1.822 5.064 1.335.715 2.428 2.029 2.429 2.919 0 .891.263 3.42.585 5.62.321 2.2.587 9.625.591 16.5.01 17.043.304 18.259 5.053 20.928 2.153 1.21 3.922 2.509 3.932 2.886.01.377 2.856 3.724 6.323 7.436 3.467 3.712 6.159 6.75 5.981 6.75-.177 0 .479.801 1.458 1.78 1.627 1.627 1.777 4.292 1.75 30.957-.034 33.004.781 29.787-8.827 34.828-5.716 2.999-7.352 6.062-4.704 8.81.994 1.031 2.967 1.875 4.386 1.875 1.418 0 2.335.394 2.038.875-1.016 1.644.853.879 2.135-.873.725-.992 1.639-1.365 2.11-.864.458.487.27 1.087-.418 1.332-.687.246-1.25 1.023-1.25 1.728 0 .705-.9 2.426-2 3.825-2.496 3.173-2.501 3.727-.031 3.727 1.339 0 1.784.48 1.393 1.5-.859 2.238 2.339 1.873 4.37-.5.942-1.1 2.676-2 3.854-2 2.722 0 7.974-5.036 6.318-6.059-.72-.445-.924-1.905-.534-3.83.347-1.711.898-4.409 1.226-5.994.339-1.636 1.571-3.328 2.848-3.91 1.238-.564 3.204-2.641 4.369-4.615l2.119-3.591-2.417-1.583c-1.514-.992-3.243-1.322-4.627-.883l-2.209.702.66-13.777c.364-7.577.661-17.755.661-22.618 0-4.863.364-8.842.809-8.842 2.716 0 4.462 3.06 5.174 9.067 1.958 16.52 4.387 30.392 7.169 40.933 1.669 6.325 3.282 14.761 3.585 18.747.322 4.229 1.111 7.712 1.894 8.362 1.901 1.577 6.071.276 7.858-2.451 1.631-2.49 1.736-1.468-2.541-24.658-1.653-8.962-2.912-18.363-4.524-33.763-.4-3.822.607-3.534 6.834 1.952 3.358 2.958 3.67 3.63 2.932 6.311-2.087 7.58.376 58.068 2.987 61.214 1.904 2.294 10.353 1.037 12.933-1.924 2.233-2.561 2.153-13.906-.278-39.542-.639-6.738-.975-12.434-.747-12.656.228-.223 3.003-.678 6.167-1.013 7.884-.833 18.083-3.075 25.162-5.532 3.253-1.129 5.953-1.939 6-1.8.709 2.083 2.763 4.497 4.636 5.446 2.287 1.159 5.208 10.158 5.129 15.807-.052 3.819 2.267 13.625 3.456 14.612 1.689 1.402 2.674-2.168 1.472-5.33-1.701-4.475-2.554-19.484-1.024-18.032 3.77 3.578.986-3.779-4.083-10.792-2.708-3.746-3.12-12.304-1.507-31.346.648-7.648.605-7.871-1.412-7.343-2.561.669-2.595-.061-.546-11.808 1.609-9.226 1.311-10.408-2.631-10.446-.878-.008-5.378-2.276-10-5.039-4.622-2.764-14.479-8.012-21.904-11.664-7.425-3.651-15.091-7.635-17.036-8.853-1.945-1.217-8.924-5.121-15.51-8.673-15.014-8.1-33.402-19.907-33.432-21.466-.012-.65.991-1.38 2.228-1.623 2.164-.426 2.173-.469.229-1.127-2.449-.828-2.335-8.57.126-8.57.767 0 2.234-.839 3.259-1.864 2.29-2.29 11.77-3.241 34.636-3.473 10.93-.111 16.713-.57 18.25-1.448 2.522-1.44 2.987-3.215.844-3.215-.937 0-1.223-.702-.857-2.102.311-1.189-.015-2.452-.75-2.906-1.33-.822-4.295-15.289-4.149-20.242.045-1.512-.262-2.75-.682-2.75-.421 0-2.912-1.362-5.538-3.027l-4.773-3.027 2.328-1.902c1.867-1.526 2.08-2.153 1.077-3.173-.687-.699-1.25-2.552-1.25-4.118 0-3.532-3.836-25.191-5.007-28.271-.783-2.06-.584-2.25 2.217-2.122 6.203.282 4.853-1.902-6.71-10.86-15.086-11.686-14.745-11.519-21.228-10.457-8.236 1.349-14.28 1.225-14.237-.293.042-1.492 2.439-12.018 3.7-16.25.492-1.65 2.019-3.547 3.393-4.215 3.643-1.772 5.101-3.752 10.333-14.035 2.589-5.088 5.057-9.25 5.485-9.25.428 0 4.102 1.688 8.166 3.751 4.063 2.063 8.724 3.908 10.358 4.1 1.633.193 4.057 1.205 5.385 2.249l2.415 1.9h-2.701c-3.433 0-6.569 1.659-6.569 3.476 0 2.821-2.258 2.687-4.982-.296l-2.792-3.055-6.363 1.467c-7.608 1.753-8.863 3.166-8.863 9.974 0 8.316.932 11.579 3.13 10.96 1.029-.289 2.808-.793 3.954-1.12 1.718-.49 2.05-.183 1.889 1.75-.435 5.239.614 6.088 6.116 4.954 3.332-.687 3.434-.609 4.411 3.344.975 3.944 1.105 4.044 5.184 3.965 3.575-.07 4.269.256 4.766 2.237 1.328 5.29 4.266 5.797 17.498 3.016 16.535-3.474 30.081-10.581 27.654-14.507-.265-.428.593-4.474 1.906-8.991 2.637-9.069 6.15-28.664 7.52-41.945.487-4.723 1.67-11.912 2.627-15.974l1.742-7.387-3.361-9.684c-1.848-5.326-4.862-12.71-6.698-16.409-3.863-7.783-4.337-11.775-1.397-11.775 1.068 0 2.219-.45 2.559-1 .997-1.613 7.5-1.237 7.5.433 0 4.09 7.298 2.349 24.578-5.865 6.443-3.062 12.245-5.568 12.894-5.568 4.975 0 9.457-12.567 13.372-37.5 1.075-6.842.612-7.879-16.497-37-10.596-18.035-11.564-19.227-16.654-20.513-2.306-.583-5.093-1.463-6.193-1.956-1.825-.817-1.774-.902.581-.963 1.42-.038 8.17-1.188 15-2.556 13.937-2.793 17.215-3.002 21.831-1.393 2.185.762 3.031 1.588 2.647 2.589-.465 1.212.18 1.348 3.688.777 5.243-.853 10.743-3.326 10.783-4.849.017-.625.525-.285 1.129.756.928 1.598.537 2.374-2.518 5-4.185 3.596-6.65 8.931-6.62 14.326.02 3.583 4.781 19.417 6.292 20.929 1.044 1.044-.35-5.346-2.542-11.647-3.841-11.042-2.363-19.091 4.119-22.443 3-1.551 3.078-1.532 3.694.922.35 1.395 1.094 2.22 1.677 1.86.656-.406.745-.157.237.664-.825 1.335.686 1.178 4.748-.495 3.237-1.333.258 9.714-4.027 14.936-6.306 7.684-3.718 14.096 3.616 8.959 1.757-1.23 2.9-1.367 4.973-.594 1.481.552 3.547 1.282 4.592 1.623 1.849.604 1.846.68-.111 2.844-2.522 2.789-4.465 11.426-4.289 19.074.145 6.355-.852 6.771-3.581 1.494-.861-1.667-1.785-2.812-2.051-2.545-.267.266.779 2.984 2.324 6.04 3.22 6.37 7.621 7.835 10.502 3.495l1.438-2.166 2.975 2.199c1.635 1.21 3.856 3.872 4.933 5.916 1.078 2.044 2.743 4.584 3.699 5.644 1.892 2.096 1.478 3.69-.456 1.756-1.293-1.293-5.855-1.642-5.665-.433.498 3.15-.335 3.417-2.923.937-5.204-4.986-8.195-2.715-8.195 6.222 0 4.965.064 5.07 4.25 6.947 4.946 2.218 7.126 2.901 11.25 3.528 9.843 1.496 11.5 1.869 11.5 2.587 0 .438-.9 1.031-2 1.319-3.03.792-2.548 2.358 4.5 14.634 3.575 6.227 6.5 11.685 6.5 12.129 0 .444.977.952 2.172 1.127 1.194.176 2.357.883 2.583 1.571.261.793-.167 1.028-1.171.643-2.274-.873-1.976 1.531.45 3.636 1.119.97 1.907 2.163 1.75 2.651-.341 1.065 8.285 14.319 9.32 14.319.996 0-.066-11.358-1.124-12.012-.468-.29-2.616-3.822-4.772-7.849s-4.656-8.181-5.554-9.231c-.899-1.049-1.412-1.908-1.139-1.908.272 0-1.29-3.488-3.472-7.75-5.751-11.236-6.401-13.252-4.268-13.242.949.004 2.238 1.017 2.865 2.25.627 1.233 3.111 6.067 5.52 10.742 2.41 4.675 5.85 11.65 7.646 15.5 1.796 3.85 3.918 8.125 4.715 9.5.797 1.375 1.463 4.75 1.48 7.5.017 2.75.682 7.7 1.479 11 1.885 7.805 1.866 9.5-.102 9.5-1.199 0-1.347-.332-.569-1.27.763-.919.404-2.554-1.299-5.912-1.294-2.553-2.276-4.794-2.181-4.98.094-.186-.009-.233-.228-.106-.623.363-5.058-4.932-6.685-7.982-.807-1.512-1.892-2.75-2.41-2.75-.519 0-.698-.64-.397-1.423.3-.782-.406-2.374-1.568-3.536-1.163-1.163-1.827-2.578-1.477-3.144.369-.598-.141-.898-1.214-.714-1.144.196-1.856-.282-1.867-1.252-.009-.864-.684-2.67-1.5-4.016-.816-1.345-3.058-5.512-4.983-9.261-1.925-3.748-4.501-7.915-5.724-9.259-1.224-1.343-2.232-2.66-2.24-2.925-.038-1.135-5.379-8.47-6.169-8.47-1.415 0-1.111.695 4.512 10.306 2.959 5.057 7.209 12.674 9.446 16.927 6.466 12.294 12.332 22.015 14.739 24.422 1.223 1.223 1.934 2.548 1.58 2.945-.354.396-.012.354.761-.094.879-.511 1.167-.431.768.214-.349.565.515 2.27 1.921 3.787 5.302 5.72 5.329 9.493.069 9.493-6.082 0-7.51 2.011-6.907 9.727.291 3.725.918 6.924 1.393 7.108.475.185.528.86.118 1.5-.411.641-.825 4.315-.922 8.165-.096 3.85-.213 7.286-.26 7.635-.047.349-3.123.41-6.835.135-5.446-.404-8.875-1.508-17.75-5.717-6.05-2.87-15.114-7.159-20.143-9.532-10.725-5.062-10.277-4.03-10.432-24.021-.074-9.498-.327-11.78-1.055-9.5-.53 1.657-.7 7.926-.382 14 .357 6.796.189 11.573-.44 12.5-.904 1.333-1.025 1.333-1.082 0-.474-10.976-2.885-33.319-3.682-34.116-2.063-2.063-8.07-2.58-16.638-1.431-10.965 1.471-11.747 2.216-11.971 11.408-.178 7.277-.328 7.593-3.093 6.532-2.081-.799-2.126-7.275-.061-8.785 1.817-1.328 2.283-8.204.666-9.821-1.218-1.218-9.563-2.564-12.39-1.999-.937.187-2.029 1.324-2.426 2.526-.713 2.153-.734 2.149-1.38-.314-1.212-4.623-.322-5.19 7.624-4.859 4.036.169 7.781-.137 8.322-.678.542-.542 1.115-5.48 1.274-10.974l.289-9.989.867 7.13.868 7.13 4.492.616c2.47.339 6.864.337 9.763-.004l5.272-.619.619-4.516c.34-2.484.619-5.803.619-7.377 0-2.67.266-2.86 4-2.86 3.619 0 4 .242 4 2.545 0 2.331-.274 2.494-3.25 1.934l-3.25-.612.328 6.395.327 6.394-10.077 1.334L234 184.324v3.338c0 3.191.165 3.338 3.75 3.337 3.532-.001 17.573-2.514 19.75-3.536 1.104-.517-9.563.255-16.25 1.178-2.338.322-4.25.185-4.25-.306 0-1.055 12.311-4.355 16.202-4.343 2.617.008 2.712-.19 3-6.227.282-5.899.432-6.235 2.798-6.25 2.164-.013 2.542-.519 2.81-3.765l.311-3.75h-3.979c-2.188 0-4.69-.273-5.56-.607-1.232-.473-1.582.076-1.582 2.486 0 6.317-2.226 12.121-4.648 12.121-1.229 0-2.512-.45-2.852-1-.34-.55-2.14-1-4-1-4.231 0-4.878-1.052-4.705-7.644.158-6.005-.563-6.81-5.304-5.92-4.063.762-4.365 1.559-4.894 12.914-.225 4.837-.564 8.949-.753 9.136-.189.187-2.369-.034-4.844-.491-8.295-1.533-12.587.331-10.912 4.737.502 1.319.912 5.492.912 9.274 0 7.925.159 8.117 5.463 6.591 4.691-1.35 7.048-6.983 3.405-8.139-4.089-1.298-2.073-3.581 2.882-3.263 4.529.291 4.764.453 5.058 3.478.258 2.663-.064 3.225-2 3.5-1.655.235-2.228.894-2.024 2.327.156 1.1.373 3.652.481 5.671.189 3.53.366 3.697 4.587 4.329 5.602.841 6.063.295 7.296-8.613.563-4.063 1.108-7.473 1.212-7.578.104-.105 3.103-.432 6.664-.726 14.672-1.212 16.15.525 15.919 18.712-.202 15.822-.075 15.463-5.743 16.25-4.369.606-8.349 1.359-23.593 4.463-3.242.66-6.945 1.315-8.229 1.456-1.285.141-2.943.76-3.685 1.375-.741.616-4.264 2.02-7.828 3.121-8.94 2.761-10.576 4.808-12.458 15.591-1.497 8.576-11.288 40.35-14.006 45.449-2.926 5.492-11.535 30.209-11.003 31.594.312.814 1.922 2.25 3.578 3.193 1.656.942 3.014 2.029 3.018 2.415.015 1.66 8.8 6.665 10.786 6.145 1.144-.299 3.47.278 5.17 1.283 2.412 1.425 3.485 1.579 4.886.705 1.122-.702 2.396-.785 3.4-.223.967.541 2.631.509 4.184-.082 1.419-.539 3.817-.754 5.33-.478 3.393.62 4.283-.043 6.5-4.836 2.24-4.844 2.198-6.469-.276-10.526-1.541-2.528-2.486-3.162-3.996-2.683-1.649.523-1.981.16-1.993-2.19-.021-3.87-1.203-5.404-4.751-6.167l-3.025-.65 1.988-5.31c1.919-5.126 2.645-5.786 8.305-7.545 1.784-.555 2.422.595 5.889 10.616 3.705 10.712 3.83 11.474 2.667 16.239-.671 2.75-1.686 8.262-2.256 12.25-.646 4.519-1.501 7.25-2.269 7.25-.678 0-3.158 1.395-5.512 3.1-2.353 1.704-7.258 4.434-10.9 6.065-14.259 6.388-32.2 15.532-44.392 22.625-13.204 7.682-18.81 9.772-21.848 8.146-.962-.515-3.264-.936-5.115-.936-8.63 0-7.831 9.959.931 11.603 4.226.793 8.294 3.429 13.56 8.788 2.941 2.992 4.273 3.693 6.135 3.225 1.503-.377 2.835-.048 3.616.894.68.819 2.231 1.49 3.445 1.49 1.471 0 3.286 1.501 5.44 4.5 3.327 4.634 6.083 5.624 9.871 3.548 5.218-2.859 9.477-4.204 11.614-3.668 2.942.738 2.937.745 10.131-12.88 8.828-16.717 7.363-15.307 18.741-18.053 2.284-.551 2.75-.335 2.75 1.278 0 1.068.291 2.233.647 2.589 1.478 1.477 4.29 11.488 4.32 15.377.018 2.305.476 4.465 1.017 4.799.541.335-.577 2.17-2.486 4.078-1.908 1.909-3.763 4.699-4.122 6.201-.359 1.502-.915 3.181-1.236 3.731-.984 1.686-1.017 3.542-.052 2.946.502-.31.926.475.943 1.745.018 1.27 1.108 3.091 2.423 4.048 2.368 1.72 2.399 1.706 3.076-1.375.376-1.713.253-3.395-.273-3.739-2.795-1.825-3.185-4.844-.904-6.987 2.929-2.752 3.291-2.698 4.116.612.377 1.512 1.267 4.1 1.979 5.75 1.495 3.47 2.972 8.712 4.647 16.5.651 3.025 2.042 6.725 3.092 8.221 3.308 4.718 4.713 15.267 3.662 27.495-.552 6.427-1.046 6.966-4.249 4.632-1.902-1.385-2.585-2.85-2.729-5.848-.178-3.729-.218-3.78-.594-.75l-.404 3.25h-6.436c-7.209 0-6.959-.387-5.492 8.5.515 3.122.455 5.233-.16 5.621-1.049.661 3.868 8.879 5.313 8.879.458 0 2.311 1.295 4.117 2.878 3.228 2.828 3.389 2.859 9.285 1.75 3.3-.62 6.618-1.527 7.374-2.014.756-.487 5.256-1.387 10-2l8.626-1.114 3.194-6.5c1.757-3.575 3.372-6.95 3.589-7.5.464-1.176 7.717 1.998 7.717 3.377 0 1.162-2.499 2.123-5.523 2.123-2.694 0-3.949 1.428-2.836 3.228 1.001 1.62.966 4.98-.069 6.656-.739 1.194.145 2.346 2.571 3.35 2.054.85 7.595 12.386 6.728 14.007-.965 1.804-.151 2.301 1.629.994 1.43-1.051 1.84-4.407.63-5.155-.651-.402-.684-1.171-.093-2.106.783-1.238.935-1.194.948.276.008.962.465 1.75 1.015 1.75.55 0 .947-.337.882-.75-.418-2.647.16-3.46 1.607-2.259.819.68 1.242 1.635.941 2.122-.301.488.154.887 1.011.887.892 0 1.559-.855 1.559-2 0-1.1.337-2.004.75-2.008.413-.004.833-2.285.935-5.069.101-2.783.62-5.592 1.153-6.242.533-.649 1.268-3.881 1.634-7.181.976-8.809 3.378-20.141 5.768-27.207 2.248-6.646 1.977-9.722-1.986-22.508-2.055-6.63-.677-16.014 4.817-32.813 2.684-8.206 2.759-8.981 1.97-20.476-.454-6.613-.434-12.962.045-14.221.509-1.341.464-3.328-.111-4.84-2.11-5.551 1.049-11.148 5.643-9.995 1.773.445 2.247-.014 2.783-2.694.379-1.896.223-3.371-.378-3.572-.562-.187-1.023-2.358-1.023-4.823 0-2.465-.475-5.37-1.055-6.455-1.464-2.734-.621-4.656 4.45-10.146 5.309-5.747 5.516-5.765 8.385-.742 3.607 6.317 8.27 4.976 10.305-2.963 1.011-3.944 1.554-4.759 2.597-3.894.725.602 1.318 1.86 1.318 2.796 0 .937 1.125 5.01 2.5 9.053 3.157 9.283 3.165 9.187-.908 11.381-4.162 2.241-9.592 9.551-9.592 12.913 0 3.709-4.773 15.648-7.598 19.004-2.257 2.683-2.343 3.11-.943 4.656.847.937 1.541 2.632 1.541 3.768 0 2.741 1.54 3.195 7.513 2.215 2.743-.45 6.839-.845 9.102-.877 2.527-.037 5.097-.832 6.658-2.06 3.043-2.393 3.727-2.485 3.727-.5 0 1.935 1.962 1.931 3.39-.006.888-1.206 1.809-1.306 4.603-.5 1.922.553 4.542 1.006 5.823 1.006h2.329l-2.101-2.671c-1.292-1.643-1.744-3.029-1.173-3.6 1.528-1.528 5.081.23 5.735 2.838.674 2.686 1.426 3.001 3.12 1.307 2.134-2.134-2.663-7.954-6.226-7.553-1.65.185-4.521-.292-6.38-1.06-4.619-1.908-9.12-.168-9.12 3.527 0 2.878-.636 2.72-1.155-.288-.19-1.1-1.245-2.547-2.345-3.215-2.305-1.399-11.5-1.721-11.5-.402 0 .486-.9 1.119-2 1.407-3.136.82-2.755-.162 4.822-12.434 1.238-2.004 3.472-6.034 4.964-8.956 2.629-5.145 5.191-7.461 5.236-4.733.021 1.216 3.921 6.988 3.943 5.833.005-.275-.829-3.2-1.854-6.5-1.025-3.3-2.437-9.907-3.138-14.682l-1.275-8.683 6.796-9.127c3.738-5.02 8.267-10.249 10.064-11.62 3.112-2.373 3.201-2.623 1.862-5.191-.774-1.483-1.41-3.396-1.414-4.251-.003-.855-1.285-3.571-2.848-6.036-2.358-3.718-2.614-4.695-1.5-5.735.738-.69 1.342-2.999 1.342-5.133 0-7.39.771-7.693 6.137-2.407 5.679 5.593 5.905 6.365 1.863 6.365-2.748 0-3 .287-3 3.418 0 4.729.883 6.582 3.138 6.582 2.263 0 2.569.76 3.147 7.819.321 3.923.027 5.726-1.12 6.873-.927.927-1.729 3.956-1.985 7.494l-.429 5.939-3.11-.313-3.11-.312-1.148 11.5c-.631 6.325-.813 11.865-.404 12.311.683.745 3.021-14.06 3.021-19.129 0-1.515.611-2.182 2-2.182 1.467 0 2 .667 2 2.5 0 1.375.45 2.5 1 2.5s1-.9 1-2c0-4.422 3.651-2.186 5.861 3.589 2.445 6.39 2.584 7.411 1.007 7.411-.623 0-2.68.957-4.573 2.127-4.894 3.024-2.761 4.661 2.546 1.954 5.012-2.557 5.159-2.559 5.159-.084 0 1.099-1.633 3.805-3.629 6.014-3.344 3.702-3.732 3.879-4.929 2.253-1.104-1.499-1.38-1.539-1.839-.264-.887 2.464-.21 5.42 1.542 6.733.905.679 2.924 3.379 4.487 6 1.564 2.622 3.298 5.496 3.855 6.386 4.19 6.7 4.644 8.018 3.326 9.64-1.129 1.389-1.067 1.523.437.96 1.42-.533 1.75-.099 1.75 2.3 0 2.367-.807 3.465-4.048 5.511-2.226 1.406-4.283 3.17-4.571 3.92-.725 1.889-8.099 4.909-20.977 8.59-36.853 10.533-41.553 12.822-36.898 17.967 1.95 2.155 2.166 12.44.702 33.493-.611 8.8-1.219 20.05-1.35 25-.132 4.95-.542 9.45-.913 10-.37.55-.927 4.15-1.237 8-.31 3.85-.855 7.751-1.212 8.67-.646 1.663-17.27 11.83-19.344 11.83-1.336 0-8.691 3.691-12.306 6.176-1.46 1.003-3.148 1.824-3.75 1.824-1.461 0-1.401-3.295.087-4.783 1.988-1.988.322-2.326-3.529-.717-3.937 1.645-5.037 3.074-1.503 1.952 1.699-.539 2.023-.349 1.542.906-.353.92.05 1.959.958 2.467 1.387.776 1.362.956-.212 1.56-.995.382-2.098.168-2.502-.486-.492-.797-1.072-.515-1.822.886-.605 1.13-2.719 2.589-4.698 3.242-1.979.654-8.945 3.616-15.48 6.583-6.536 2.967-12.884 5.547-14.107 5.734-1.223.186-2.399.863-2.613 1.504-.213.64-.783.92-1.266.622-.483-.299-1.794.373-2.915 1.494-1.12 1.12-2.966 2.036-4.102 2.036-3.298 0-5.65 1.733-6.398 4.714-.382 1.521-1.096 3.014-1.586 3.317-.491.303-1.047 4.728-1.236 9.832l-.344 9.281-6.435 4.515c-6.033 4.232-26.622 15.374-29.935 16.2-1.151.287-1.071-.104.348-1.68 1.797-1.997 1.554-4.179-.466-4.179-.55 0-.751.403-.447.895.578.936-1.621 2.105-3.959 2.105-.883 0-1.197-.79-.894-2.25 1.144-5.51 1.558-22.219.514-20.75-.903 1.271-1.068 1.203-1.081-.45-.01-1.317-.344-1.621-1.028-.937-1.178 1.178-3.364 27.623-2.507 30.325.717 2.258-5.568 5.073-11.25 5.04-3.921-.022-21.954-2.392-26.23-3.446-1.375-.339-5.425-.789-9-.999-6.153-.362-41.795-5.116-45-6.002-.825-.228-3.3-.665-5.5-.971-12.185-1.694-23.991-5.198-27.779-8.245-3.172-2.551-8.539-3.829-12.21-2.907-3.17.796-4.082.462-3.668-1.342.519-2.259-.942-10.507-1.68-9.485-1.018 1.411-3.554 1.092-4.611-.581-.775-1.226-1.077-1.043-1.65 1-.954 3.396-1.08 16.489-.168 17.401C21.284 596.95 22.715 607 21.386 607c-2.158 0-2.575 3.708-1.83 16.299.397 6.71.689 12.963.649 13.894-.074 1.732 2.633 1.434 3.89-.428.327-.485 2.013.733 3.747 2.707l3.151 3.589 4.242-1.944c3.614-1.657 4.687-1.764 7.253-.721 3.445 1.4 11.942 1.595 95.512 2.19 145.1 1.034 165.578 1.044 168.423.084 5.869-1.98 7.876-5.373 5.646-9.541-.596-1.114-.416-5.666.502-12.654 1.753-13.349 1.942-13.988 5.591-18.975 9.917-13.554 14.028-19.084 14.655-19.713.975-.98 8.182 1.601 9.27 3.319 1.175 1.856 1.131 12.001-.061 13.886-1.325 2.096-2.811.282-3.205-3.915-.367-3.911-2.503-5.311-2.994-1.963-.18 1.226-.851 2.402-1.492 2.613-2.005.659-2.557-3.575-.9-6.897 1.944-3.896 1.4-4.665-1.352-1.913-3.59 3.59-1.692 12.032 2.724 12.114.931.018 2.502 1.143 3.49 2.5 1.736 2.386 1.733 2.469-.076 2.469-1.03 0-2.963-1.174-4.297-2.609-3.741-4.028-5.896-4.467-10.206-2.081-4.107 2.274-5.369 5.132-4.168 9.44 1.19 4.267 1.167 20.323-.029 19.92-1.012-.341-3.477 6.317-3.506 9.472-.025 2.69 4.428 3.221 24.836 2.959 27.034-.346 35.032-2.306 47.208-11.566 3.28-2.494 6.622-4.535 7.426-4.535.805 0 2.211-1.462 3.125-3.25.914-1.788 4.689-7.075 8.39-11.75 3.701-4.675 7.461-9.934 8.357-11.687 2.062-4.033 3.007-4.59 9.126-5.375 4.896-.628 5.118-.539 11.549 4.657 10.918 8.822 15.117 9.492 21.222 3.387l4.018-4.019-.702-8.65c-.754-9.3-2.704-14.366-7.761-20.162-2.749-3.151-2.828-3.476-1.332-5.5 3.879-5.25 5.507-10.22 4.499-13.734-.537-1.872-.976-4.575-.976-6.007 0-1.431-.674-3.953-1.497-5.603-2.162-4.335-3.717-13.344-2.547-14.755 1.121-1.349.254-5.552-1.144-5.552-.525 0-.824-1.013-.664-2.25.159-1.238-.078-2.842-.529-3.567-.451-.724-.565-1.57-.254-1.881.31-.311.046-1.518-.588-2.683-2.437-4.477-3.54-13.976-2.23-19.193.681-2.709 1.587-6.951 2.015-9.426l.777-4.5.749 3.468c.412 1.908.32 4.27-.205 5.25-1.099 2.054-.567 2.218 2.266.702 1.569-.84 2.421-.714 3.835.565 1.855 1.68 3.772.548 2.516-1.485-.34-.55.323-1 1.473-1 1.25 0 2.433-.905 2.942-2.25 1.28-3.387.266-4.015-2.872-1.781l-2.816 2.006-.719-2.238c-.395-1.23-.634-3.074-.532-4.096.111-1.108-.25-1.59-.895-1.191-.605.374-1.081-.045-1.081-.95 0-.89-.45-1.34-1-1-.55.34-1-.139-1-1.063 0-1.332.292-1.439 1.407-.514 1.144.95 1.823.335 3.634-3.291 2.1-4.205 2.328-4.365 3.998-2.796.974.915 1.977 2.789 2.23 4.164.387 2.11.48 1.992.595-.75.075-1.788.586-3.25 1.136-3.25.55 0 1-.648 1-1.441 0-2.087 2.075-3.051 3.093-1.437.573.908.299 1.804-.803 2.628-1.51 1.129-1.459 1.25.519 1.25H470l.118-47.25c.066-25.988.033-47.684-.071-48.214-.104-.53-.213-4.355-.241-8.5-.029-4.145-.464-7.798-.968-8.119-.547-.349-.511-1.646.09-3.228.601-1.581 1.042-17.426 1.097-39.417.051-20.224.261-45.097.468-55.272.206-10.175.668-48.726 1.026-85.669.626-64.512.579-67.207-1.184-68.119-1.009-.522-4.985-1.504-8.835-2.183-3.85-.678-9.025-1.603-11.5-2.055-2.475-.452-6.525-.425-9 .059-6.034 1.18-6.02 1.181-5.362-.533.696-1.812-.766-1.972-2.468-.27-.851.851-5.452 1.235-14.95 1.25-12.446.018-13.707.183-13.581 1.77.093 1.172-.578 1.75-2.035 1.75-1.353 0-2.84 1.129-3.941 2.993-1.881 3.185-5.663 5.884-5.663 4.042 0-1.598-5.286-1.223-7.825.555-1.53 1.072-1.964 1.968-1.331 2.75 1.722 2.128.151 11.527-2.044 12.223-1.073.341-2.201.369-2.507.063-.306-.305-1.378-.116-2.383.422-1.933 1.035-2.778-.915-4.46-10.298-.625-3.482-.501-3.75 1.739-3.75 1.326 0 2.981-.562 3.677-1.25 1.019-1.006 1.226-.469 1.064 2.75-.316 6.295.1 8.58 1.001 5.5 1.145-3.912.747-11.534-.59-11.28-.731.138-1.468-2.441-2-7l-.841-7.22-5.796-.919-5.797-.919.297-5.081.296-5.081 6.168-.5c7.906-.641 8.056-.852 6.032-8.448-.935-3.509-1.706-8.781-1.714-11.716-.019-7.669-.653-9.13-4.791-11.052-2.032-.944-6.17-3.194-9.195-5-6.02-3.594-4.363-3.412-33.25-3.664-7.562-.066-13.75-.514-13.75-.995 0-1.137 6.178-4.133 7.21-3.496.434.269.79.049.79-.488 0-1.208 18.553-5.535 19.973-4.658.565.349 1.027.27 1.027-.176s3.732-.94 8.294-1.099c7.947-.278 8.479-.156 12.75 2.911 2.451 1.761 4.818 3.692 5.26 4.291.487.661.684.36.5-.764-.167-1.02-2.263-3.27-4.656-5-4.111-2.971-4.832-3.142-13-3.067-8.03.073-27.219 3.423-31.031 5.416-4.204 2.198-13.121 4.889-17.767 5.363l-5.15.524-.647-3.449c-.905-4.826-4.45-7.076-8.25-5.234-2.606 1.263-2.803 1.778-2.803 7.33 0 5.488-.188 5.998-2.325 6.3-2.144.304-2.293.031-1.908-3.5.34-3.126-.03-4.201-2.012-5.854-2.165-1.805-2.32-2.403-1.432-5.5.728-2.538 1.021-2.868 1.087-1.225.111 2.782 1.661 3.015 1.661.25 0-1.1-.353-2-.785-2-.432 0-.786-.675-.786-1.5s-.881-2.381-1.958-3.458c-1.612-1.612-1.855-2.829-1.373-6.894.94-7.94-.048-8.258-25.312-8.145-11.471.051-21.757-.051-22.857-.227-1.1-.177-4.925-.051-8.5.279m20.5 9.837c-4.615.702-8.266 6.404-9.171 14.327-.703 6.153-2.242 9.619-4.605 10.369-2.119.672-23.449.076-57.724-1.614-36.2-1.784-58.785-1.774-56 .026.825.533 3.109.976 5.075.985 1.966.008 6.916 1.157 11 2.552 20.329 6.947 50.028 12.967 57.195 11.595 2.876-.551 9.915-1.297 15.64-1.658 15.685-.99 15.949-1.932.934-3.335-7.339-.687-13.771-1.673-14.294-2.194-.6-.596-.542-.945.156-.945.642 0 .869-.908.542-2.16-.555-2.122-.417-2.149 8.059-1.551 12.002.847 33.077 3.522 39.888 5.063 3.41.772 6.32.94 7.25.419.995-.557 1.555-.471 1.555.238 0 .61.422.848.939.529.516-.319 1.303.039 1.75.795 2.66 4.508 7.712 3.653 5.278-.894-1.575-2.944.095-5.497 3.085-4.715 1.595.417 1.844.155 1.287-1.353-.965-2.616-7.165-8.371-9.017-8.371-.92 0-1.316-.573-.988-1.427.301-.785-.101-1.965-.893-2.622-.83-.688-1.44-2.948-1.439-5.323.002-3.994.115-4.136 3.46-4.374 2.874-.205 3.912.321 6.139 3.113 2.443 3.061 2.989 3.289 6.162 2.574 4.732-1.067 5.212-1.774 4.548-6.691l-.574-4.25-10.619.142c-5.84.078-12.418.415-14.618.75m201 8.153c-2.75.987-5.788 1.831-6.75 1.875-2.687.123-1.296 9.08 1.411 9.08.461 0 .839.627.839 1.393s.712 1.666 1.582 2c2.405.923 2.575.768 1.453-1.327-1.473-2.753-1.331-3.066 1.396-3.066 4.445 0 17.515-9.454 15.649-11.32-.697-.697-1.672-.197-3.061 1.569-4.321 5.493-15.653 10.101-17.972 7.308-2.111-2.544-.606-3.96 6.426-6.046 3.687-1.094 6.916-2.331 7.175-2.75.747-1.21-2.728-.662-8.148 1.284m-19.368 8.205c2.53 2.088 4.256 15.509 2.366 18.393-1.948 2.973-4.257 3.018-5.538.107-.544-1.237-1.868-3.6-2.941-5.25-3.602-5.538-4.093-6.5-3.319-6.5.424 0-.798-.831-2.715-1.846-4.203-2.226-10.029-2.574-12.526-.747-1.585 1.158-1.137 1.269 3.385.834 5.597-.538 9.575 1.504 8.482 4.353-.297.773-.042 1.406.567 1.406 2.619 0 6.913 6.384 5.063 7.527-1.637 1.012-1.063 2.103 1.791 3.403l2.746 1.252-2.357 1.909C413.998 57.442 404 55.528 404 51.385c0-.762-.475-1.385-1.056-1.385-1.178 0-6.531-5.506-8.078-8.308-.908-1.645-.655-1.747 2.818-1.138 3.566.626 3.686.57 1.827-.854-1.094-.837-2.331-1.311-2.75-1.052-.419.258-.761.008-.761-.558 0-.565-.617-.79-1.371-.501-.754.289-2.126-.228-3.048-1.151-2.745-2.745-3.181-.634-.798 3.865 2.622 4.951 2.798 7.272.644 8.478-1.275.713-1.387 1.526-.59 4.299.541 1.881 1.023 2.858 1.073 2.17.235-3.266 7.09 2.106 7.09 5.556 0 2.308 2.166 4.197 2.762 2.409.208-.626 3.789 2.227 7.957 6.341 4.168 4.114 7.747 7.312 7.953 7.105.816-.816-.969-3.625-3.256-5.124-2.619-1.716-3.264-4.537-1.038-4.537.757 0 1.937-.675 2.622-1.5.785-.946.852-1.5.181-1.5-.584 0-1.341.45-1.681 1-.89 1.44-4.135 1.23-5.679-.367-3.389-3.506-5.821-6.747-5.821-7.757 0-.697.836-.841 2.25-.388 5.61 1.797 8.767 1.699 12.292-.38 1.965-1.16 3.997-2.108 4.515-2.108 1.588 0 1.048 4.224-.807 6.317-1.362 1.537-1.419 1.87-.259 1.499 2.658-.85 5.496-6.806 4.218-8.854-.86-1.376-.792-2.063.295-2.965 1.144-.95 1.54-.672 2.075 1.461.364 1.449.431 2.865.15 3.147-.987.986 6.143 14.149 8.794 16.234 2.452 1.929 2.916 1.985 5.483.658C445.503 69.689 448 67.24 448 65.62c0-1.41-8.899-5.801-10.167-5.017-1.037.641-1.104 2.453-.083 2.243.901-.186 8.25 3.009 8.25 3.586 0 .223-1.593 1.39-3.54 2.593l-3.541 2.188-2.057-2.357c-3.194-3.658-5.996-9.655-4.844-10.367.629-.389.44-1.424-.507-2.777-2.356-3.364-2.022-9.712.51-9.712 1.112 0 3.866-1.22 6.12-2.712l4.098-2.712 1.852 2.288c2.42 2.989 4.435 1.869 2.354-1.307-1.5-2.289-1.437-2.372 2.911-3.853 4.843-1.65 16.167-8.515 15.366-9.315-.272-.273-4.552 1.553-9.51 4.058C450.254 34.951 445.028 37 443.599 37c-1.43 0-2.599.39-2.599.867 0 1.245-7.648 6.133-9.595 6.133-1.146 0-1.481-.601-1.115-2 .321-1.23.03-2-.756-2-.725 0-1.564-1.787-1.938-4.125-.851-5.323-2.252-7.875-4.322-7.875-1.466 0-1.482.143-.142 1.25m-371.49 11c6.496 6.956 10.892 11.986 11.658 13.338 1.25 2.208 2.7 1.659 2.7-1.023 0-6.508 4.501-12.302 10.273-13.225 7.578-1.211 1.336-2.309-13.219-2.325L48.608 37l3.034 3.25m41.791.744c7.728 3.6 15.835 14.873 16.905 23.506.455 3.674-1.63 11.06-3.798 13.456-1.498 1.655-1.327 1.841 2.68 2.93 2.354.639 5.63 1.305 7.28 1.48 4.003.423 11.957 2.334 23.5 5.646 10.51 3.015 23.725 5.597 24.529 4.792.285-.285.238-1.145-.105-1.911-1.108-2.475-36.7-34.883-43.924-39.994l-9.212-6.516C108.734 42.578 95.69 39.004 92 39.098c-2.185.056-2.004.295 1.433 1.896M342 43.14c-3.025.491-9.55.639-14.5.331l-9-.561 4.485 2.742c5.087 3.11 12.775 3.421 28.86 1.167l8.345-1.169-3.345-1.783c-3.649-1.945-6.471-2.083-14.845-.727M41.535 50.25c.301 2.888 1.026 9.262 1.612 14.166.652 5.457.789 14.993.353 24.585l-.713 15.669 3.452 7.472c4.509 9.759 10.68 19.351 11.733 18.238 2.467-2.612 7.333-20.394 9.491-34.686 1.312-8.694 2.874-16.395 3.47-17.113 1.111-1.339-2.07-5.677-15.819-21.571-7.178-8.298-7.157-8.276-10.087-10.301-3.709-2.564-4.088-2.18-3.492 3.541m94.965 1.437c1.1 1.081 5.7 5.246 10.221 9.256 9.244 8.196 11.434 8.606 18.91 3.532 1.964-1.332 5.134-2.715 7.044-3.074 5.086-.954 3.053-2.025-8.175-4.308-10.082-2.05-24.885-5.59-28.205-6.746-1.582-.551-1.557-.392.205 1.34M310 56.872c0 .542-.678 1.664-1.508 2.493-1.685 1.685.014 16.059 1.769 14.973.482-.297.646-1.137.367-1.866-.653-1.701.722-2.702 6.797-4.949l4.924-1.822-2.424-1.862a376.777 376.777 0 01-6.175-4.907c-2.062-1.675-3.75-2.602-3.75-2.06M198.274 67.881c1.964 2.174 4.618 5.782 5.898 8.019 1.281 2.236 2.828 4.26 3.439 4.498.61.238 5.039 3.43 9.84 7.093 4.802 3.664 8.91 6.481 9.13 6.261.22-.22-1.255-3.067-3.279-6.326-2.024-3.259-5.282-9.05-7.241-12.868-3.86-7.525-4.582-7.947-16.959-9.926l-4.399-.703 3.571 3.952m130.393-1.214c-1.361 1.36-.576 2.128 2.829 2.766 7.582 1.423 10.961 7.611 4.84 8.863-1.56.319-3.736 1.272-4.836 2.119-1.869 1.438-1.706 1.505 2.5 1.019 2.475-.286 4.981-.163 5.569.273 1.378 1.022 5.429 9.486 5.437 11.359.004.789.66 2.688 1.459 4.22 1.423 2.727 1.379 2.821-2.138 4.498l-3.592 1.713.685 12.324c.737 13.27 1.66 17.179 4.055 17.179 1.74 0 1.938-4.859.666-16.308-.816-7.343.035-8.982 4.113-7.915 1.768.462 1.895.168 1.242-2.881-.4-1.868-1.146-3.917-1.658-4.554-.512-.638-1.282-6.397-1.712-12.8-.904-13.474-.911-13.484-11.518-18.975-7.818-4.046-7.069-3.773-7.941-2.9m6.564 19.878c-1.777.747-3.231 2.09-3.231 2.985 0 2.034-7.305 8.94-11.136 10.526-3.461 1.434-3.481 1.66-.497 5.39l2.358 2.947 7.615-3.197c4.188-1.758 8.23-3.196 8.982-3.196 2.577 0 4.939-3.602 3.707-5.654-.609-1.015-1.886-3.941-2.837-6.503l-1.731-4.656-3.23 1.358m92.351 14.205c-.413.412-6.031.75-12.485.75-13.334 0-15.383.918-15.082 6.755.186 3.62-.863 7.745-1.971 7.745-.702 0-3.407 5.138-2.831 5.379.158.067 1.293.684 2.523 1.371 3.355 1.875 6.373 1.55 6.974-.75.288-1.1 1.108-2 1.823-2 .715 0 1.48-.54 1.701-1.201.268-.804.615-.853 1.052-.146.89 1.44-4.884 10.347-6.707 10.347-.806 0-2.054.817-2.772 1.816-.719.999-2.081 2.104-3.027 2.457-2.464.919.13 6.956 3.382 7.87 6.107 1.717 7.669 1.115 8.541-3.291.927-4.692 3.49-7.059 5.483-5.066.989.989.971 1.901-.09 4.478-.732 1.78-1.375 4.029-1.428 4.999-.057 1.04-1.445 2.25-3.386 2.952-3.636 1.315-3.669 2.614-.211 8.334 5.705 9.436 9.93 19.448 9.951 23.577.046 9.391 5.008 39.034 6.451 38.542 1.849-.631.86-25.923-1.278-32.691-2.281-7.22-6.324-37.768-5.444-41.133.941-3.598 2.249-1.771 2.249 3.14 0 2.741 1.077 10.279 2.393 16.75 4.108 20.197 5.698 31.379 6.08 42.766.367 10.947.34 11.097-5.502 31-3.229 11-5.894 21.414-5.921 23.143-.03 1.909-.671 3.381-1.632 3.75-2.027.778-10.497-6.024-9.791-7.864.28-.73-.038-1.665-.708-2.079-.933-.577-1.058.74-.536 5.649.703 6.609 3.225 24.017 3.608 24.901.623 1.441-.318 16.742-1.122 18.245-1.669 3.118-2.757 1.877-3.067-3.495l-.302-5.25-5.14 8.5c-2.826 4.675-7.478 13.182-10.336 18.903-5.149 10.308-5.19 10.466-4.517 17.166.654 6.51.582 6.826-1.906 8.456-1.973 1.294-2.445 2.249-1.995 4.041.469 1.867-.472 3.469-4.598 7.832l-5.187 5.484 5.646 10.059c5.941 10.585 6.745 11.319 8.775 8.002 1.74-2.845 6.519-5.655 11.534-6.781 4.051-.91 4.482-.761 11.006 3.821 3.735 2.623 9.198 7.412 12.139 10.643 2.942 3.231 6.038 6.131 6.879 6.445.842.314 1.653 1.406 1.802 2.426.15 1.02 1.663 2.942 3.363 4.273 3.349 2.621 7.035 8.966 7.035 12.11 0 1.479 1.287 2.38 5.25 3.675 2.887.944 6.528 2.363 8.09 3.153 4.193 2.121 5.645 1.161 4.685-3.097-.484-2.145-.411-3.649.187-3.848.555-.185.938-4.279.883-9.438-.08-7.449.191-9.221 1.486-9.718 1.249-.479 1.457-1.54.985-5.02-.447-3.298-.198-4.812.989-5.999.873-.874 1.106-1.588.516-1.588-.589 0-1.071-.498-1.071-1.107s.675-.848 1.5-.531c.825.316 1.5.187 1.5-.286 0-1.407-2.833-2.067-3.305-.77-.239.657-.467-1.171-.507-4.061-.065-4.624.13-5.15 1.619-4.385 1.985 1.02 4.193.435 4.193-1.11 0-.596-.273-.81-.607-.477-1.503 1.503-3.102-1.809-2.168-4.49.738-2.114.592-3.109-.634-4.335-1.007-1.007-1.591-3.33-1.591-6.328 0-6.479-1.267-7.627-10-9.055-4.125-.674-8.625-1.424-10-1.666s-5.316-.721-8.758-1.065c-3.441-.343-7.006-1.172-7.922-1.842-2.442-1.786-2.579-10.644-.286-18.492 1.86-6.367 4.047-21.47 8.035-55.5 2.233-19.054 2.67-21.584 6.342-36.692 3.302-13.59 2.565-19.614-6.281-51.308-1.887-6.76-4.809-18.858-5.562-23.022-.201-1.112-1.557-5.571-3.013-9.91l-2.649-7.889 3.047-2.783c1.987-1.815 3.047-3.743 3.047-5.542 0-1.517.951-8.059 2.114-14.537 2.325-12.952 1.837-17.431-1.532-14.067m-146.974 2.075c-1.103 1.786.523 9.175 2.02 9.175.755 0 1.372-.62 1.372-1.378 0-4.813 5.895-3.671 6.263 1.213.089 1.191.549 2.165 1.021 2.165 1.302 0 3.008 2.086 5.218 6.382 2.581 5.016 7.317 9.8 9.32 9.414 2.158-.416 4.943-5.471 5.732-10.407.578-3.613.405-4.166-1.449-4.651-1.839-.481-2.105-.115-2.105 2.888 0 4.579-4.31 6.825-4.793 2.498-.505-4.526-1.077-5.477-2.556-4.249-1.007.835-1.881.509-3.634-1.357-1.269-1.351-2.661-2.238-3.093-1.971-1.518.938-1.885-1.334-.413-2.556 1.186-.984 1.81-.97 3.065.072 1.543 1.281 3.36.047 3.409-2.313.04-1.967 2.877-.437 3.454 1.862.631 2.514.729 2.546 2.589.862 1.637-1.481 2.183-1.544 3.55-.409 1.371 1.137 1.76 1.082 2.568-.362.525-.937 2.056-1.703 3.404-1.703 2.781 0 3.129-1.178.983-3.324-1.1-1.1-4.283-1.494-12.75-1.578-6.205-.062-13.812-.385-16.903-.719-3.51-.38-5.865-.212-6.272.446m48.451 5.383c-5.052 2.134-7.568 2.766-7.834 1.968-.756-2.27-2.225-1.146-2.225 1.702 0 3.824-2.673 6.241-3.242 2.93l-.397-2.308-.623 2.5c-.343 1.375-.886 4.142-1.207 6.149-.321 2.008-1.724 5.33-3.117 7.383-2.358 3.475-2.394 3.696-.522 3.206 1.107-.289 2.259-.011 2.56.618.394.823.714.788 1.137-.124.324-.697 1.148-1.826 1.831-2.509.682-.682 1.055-1.799.827-2.482-.612-1.836 1.57-1.507 4.676.704 2.543 1.811 2.688 2.295 2.086 6.982-.383 2.986-.231 5.451.373 6.055.691.691.521 1.018-.53 1.018-.878 0-2.229 1.732-3.12 4-.91 2.317-2.236 4-3.152 4-2.066 0-1.995.608.48 4.084 1.133 1.591 4.322 7.735 7.087 13.654 2.765 5.919 5.438 10.912 5.94 11.095.502.184.913 1.141.913 2.128 0 1.811 2.92 5.03 3.094 3.411.152-1.41 2.801 12.303 4.468 23.128.847 5.5 1.702 11.012 1.901 12.25.34 2.119-.404 2.678-3.125 2.345-2.22-.272-2.938 14.993-.78 16.571 2.55 1.865 8.557 1.797 7.833-.089-.3-.782.416-2.384 1.591-3.559 2.878-2.878 8.381-2.483 8.825.634.312 2.193 2.742 3.547 9.184 5.119 3.268.797 3.472 1.081 3.182 4.439-.398 4.628 1.542 5.905 2.929 1.927.578-1.657 1.914-4.707 2.97-6.778l1.919-3.764-2.496-3.602c-1.372-1.98-4.07-5.127-5.995-6.993l-3.5-3.392-.015 3.446c-.009 1.895-.408 4.066-.889 4.824-1.797 2.838-3.096-.118-3.096-7.047v-7.051l-5-5.47c-5.263-5.759-5.735-6.738-3.816-7.923.723-.447 2.642.962 4.935 3.624 4.723 5.483 4.563 6.044 5.719-20.118.477-10.783 1.152-20.068 1.502-20.633.364-.59 5.431-1.089 11.897-1.173 6.195-.08 12.767-.631 14.605-1.224 3.978-1.284 7.043.48 3.908 2.249-3.311 1.868-2.416 11.606 1.432 15.575 3.745 3.865 3.026 5.762-.846 2.234-1.484-1.352-2.4-1.759-2.075-.921.319.825 2.195 5.55 4.167 10.5 4.129 10.364 4.044 11.26-1.114 11.686-3.774.312-3.802.346-4.563 5.671-.908 6.358.317 20.318 1.749 19.921.55-.153.915-1.403.81-2.778-1.094-14.398-.076-22 2.946-22 2.056 0 9.842 6.544 10.392 8.734.627 2.499 2.66 2.589 3.136.137.156-.805-2.221-5.205-5.282-9.779-3.187-4.761-5.357-9.016-5.078-9.954.268-.901.781-5.238 1.139-9.638.779-9.559.75-9.5 4.603-9.5 2.03 0 2.886-.418 2.564-1.25-6.751-17.438-6.769-17.47-11.079-19.245-2.283-.941-4.932-2.114-5.887-2.608-.955-.493-3.066-.897-4.691-.897-3.002 0-4.499-1.31-4.547-3.977-.014-.813-1.877-2.5-4.14-3.75-3.141-1.735-4.528-3.358-5.866-6.859-1.49-3.902-2.07-4.496-3.886-3.976a97.698 97.698 0 01-4.884 1.211c-1.679.367-2.719 1.234-2.671 2.226.05 1.036.262 1.172.583.375.278-.687 1.48-1.214 2.671-1.171 1.192.043 1.605.306.917.583-.687.278-1.25 1.142-1.25 1.921 0 2.321-5.092 1.782-5.716-.605-.44-1.683-1.138-1.943-4.156-1.549l-3.628.474 3.662-1.106c4.088-1.235 3.915.15 1.824-14.663-2.16-15.298-4.986-14.49-4.986 1.425V134h-3.933c-4.819 0-4.734.246-5.621-16.25-.454-8.436-1.069-12.739-1.816-12.718-.622.017-4.479 1.447-8.571 3.176M31.637 122.793c.365 6.989 1.097 12.99 1.625 13.335 1.448.946 18.738 1.075 18.738.14 0-.447-1.419-2.534-3.153-4.637-1.734-2.104-4.996-7.209-7.25-11.345-3.137-5.757-4.862-7.834-7.361-8.86l-3.263-1.341.664 12.708M283 135.128v5.372l5.75 1.732c4.872 1.466 11.448 2.736 20.716 4 1.477.201 2.11-.477 2.548-2.732l.583-3 1.341 3.937 1.341 3.937 1.927-2.38c1.059-1.308 1.719-3.171 1.466-4.139-.253-.967-.064-1.893.42-2.057 1.69-.572 2.353-9.798.704-9.798-.811 0-2.015 1.012-2.675 2.25-2.702 5.066-3.703 6.257-5.371 6.389-.962.076-1.75-.313-1.75-.865s-1.155-.247-2.567.678c-2.749 1.801-5.433.776-5.433-2.074 0-.859-1.111-1.378-2.95-1.378-1.75 0-3.342-.699-3.913-1.719-.874-1.562-1.152-1.493-3.049.75-2.079 2.458-2.096 2.46-3.852.469-4.627-5.248-5.236-5.175-5.236.628m107 1.815c0 .518-.957.758-2.127.532-1.17-.225-3.019.068-4.108.651-1.405.752-2.297.742-3.072-.033-.601-.601-1.515-1.093-2.03-1.093-1.778 0 8.843 10.505 12.57 12.432 3.961 2.048 5.876 1.609 3.815-.874-.68-.82-1.052-2.045-.827-2.722.226-.678 1.506.75 2.845 3.173 1.566 2.833 3.326 4.614 4.934 4.99 2.143.502 2.899 1.866 5.29 9.543a1304.745 1304.745 0 005.123 16.059c2.999 9.128 2.392 10.399-4.963 10.399-7.16 0-7.202 1.706-.376 15.341l5.074 10.135-2.824 2.221c-1.553 1.222-3.724 3.061-4.824 4.086-3.646 3.401-4.36 3.402-7.499.011l-3.048-3.294.274 7.5.273 7.5-2.872-.205c-3.756-.268-3.361 1.233-4.175-15.887-.654-13.753-.565-15.151 1.005-15.754.947-.363 2.13-.409 2.628-.101 1.777 1.099 4.914 1.315 4.914.34 0-.546-.716-2.378-1.592-4.071-.876-1.693-2.237-5.251-3.026-7.907-1.608-5.416-2.514-6.325-5.391-5.412-1.884.598-1.991 1.535-1.991 17.493 0 17.955-.522 20.004-5.096 20.004-3.569 0-6.028-14.069-2.808-16.06 1.542-.952-.26-10.674-3.644-19.663-2.903-7.714-1.763-8.603 11.798-9.2.962-.042 1.75-.807 1.75-1.699 0-1.329.271-1.398 1.5-.378 1.277 1.06 1.5.794 1.5-1.796 0-1.672.3-3.822.666-4.777.618-1.609-.236-1.695-11.61-1.171-6.753.311-12.653.943-13.112 1.405-1.118 1.124-1.39 35.298-.301 37.839 1.029 2.401 14.758 20.966 18.118 24.5 2.016 2.119 2.292 3.185 1.816 7-.309 2.475-.847 7.65-1.196 11.5-.507 5.59-1.148 7.552-3.185 9.74-1.403 1.506-2.358 2.873-2.123 3.038.235.164 2.944 2.194 6.019 4.51 3.076 2.317 5.912 4.212 6.303 4.212.39 0 .624-2.812.518-6.25-.269-8.761 1.056-18.037 2.772-19.409 1.655-1.325 8.197 2.162 8.273 4.409.023.688 1.099 1.25 2.392 1.25 1.959 0 2.814-1.123 5.141-6.75 1.534-3.713 4.281-9.486 6.103-12.829 3.486-6.398 5.756-16.679 4.84-21.921-.289-1.65-.724-4.125-.967-5.5-1.7-9.608-3.375-23.196-3.309-26.831.044-2.382-.424-4.835-1.039-5.45-.615-.615-1.119-1.718-1.119-2.451 0-1.733-5.736-13.372-9.766-19.816-2.188-3.499-4.269-5.485-6.778-6.469-3.71-1.456-6.02-4.261-4.943-6.004.333-.538-.097-.979-.954-.979s-1.559.424-1.559.943M56.16 167.548c-1.199 2.631-1.163 2.628-7.16.694-.825-.266-.19.698 1.412 2.142 3.586 3.235 2.559 4.71-1.612 2.316-1.689-.969-3.289-1.544-3.556-1.278-.983.984.842 5.578 2.216 5.578.782 0 1.747.526 2.145 1.17.493.798.167.957-1.025.499-1.162-.446-1.608-.251-1.331.58.66 1.981 3.78 2.094 5.174.187 1.764-2.412 2.91-.349 2.91 5.238 0 4.696 1.263 5.782 2.233 1.921.93-3.709 5.19-7.395 6.026-5.216.834 2.173.801 6.553-.068 9.233-.474 1.461-.198 2.299.895 2.719 1.498.574 1.674.255 1.981-3.581.153-1.909 3.694-5.063 4.603-4.1.442.468.959 1.713 1.15 2.767.431 2.381 2.847 3.344 2.847 1.135 0-2.159 2.967-3.203 4.113-1.448.5.768 1.408 3.308 2.017 5.646s1.617 4.257 2.239 4.265c.622.009.456.452-.369.985-1.235.798-1.136.972.562.985 1.144.008 3.05-1.321 4.28-2.985 2.848-3.853 6.158-4.049 6.158-.365v2.635l2.073-2.635c2.685-3.414 3.927-3.337 3.927.243 0 1.582.67 3.433 1.489 4.113.819.68 1.262 1.604.984 2.053-1.336 2.162 1.905 1.77 5.021-.607 1.928-1.471 3.55-2.283 3.603-1.806.273 2.446-.36 8.8-1.151 11.558-.717 2.498-.55 3.39.829 4.437 2.299 1.747 3.225 1.696 3.225-.176 0-.852.659-2.764 1.463-4.25 3.111-5.739 3.109-5.738 6.423-2.949 3.013 2.535 6.855 3.058 6.364.866-.138-.614.2-1.117.75-1.117 1.822 0 1.037-2.616-1.5-5-3.75-3.523-3.255-4.98 1.5-4.407 4.649.561 4.968-.044 1.472-2.793-2.128-1.674-2.426-2.527-1.888-5.394.676-3.607-.538-4.41-3.584-2.372-1.299.87-1.242 1.201.427 2.475 1.06.809 1.66 1.737 1.333 2.064-.326.327-1.418-.231-2.427-1.24-1.182-1.182-3.169-1.795-5.596-1.727-4.057.115-9.015-2.902-6.411-3.901.816-.313 1.383-2.072 1.408-4.365.023-2.112.348-4.582.722-5.489.604-1.465-1-3.64-1.97-2.671-.408.409-1.601 6.096-1.935 9.225-.241 2.264-5.331 6.583-7.766 6.59-1.935.006-3.751-2.835-3.055-4.779.694-1.94-1.555-4.074-3.703-3.513-1.548.405-2.028-.214-2.597-3.353-.69-3.811-3.264-9.854-3.915-9.193-.185.189-.522 1.918-.747 3.843-.437 3.72-2.642 9-3.76 9-.896 0-2.69-3.796-3.544-7.5-.684-2.973-.7-2.979-1.753-.7-1.595 3.455-7.088 2.762-7.518-.948-.325-2.81-2.319-3.814-7.629-3.838-1.614-.008-3.901-.921-5.082-2.03l-2.146-2.017-1.176 2.581m121.501 28.702c-.711 11.404-2.712 19.825-10.988 46.25-6.22 19.858-6.667 20.506-14.114 20.486-6.972-.018-9.135-.76-10.416-3.571-1.354-2.972-3.72-3.141-4.458-.319-.805 3.08.281 5.036 2.693 4.848 4.583-.357 5.64.164 7.017 3.46 1.259 3.013 1.835 3.392 5.015 3.301 4.043-.114 5.176.688 6.064 4.295 1.314 5.34-6.085 9.344-8.297 4.49-1.589-3.487-4.564-2.958-5.005.89-.533 4.652.679 4.863 12.912 2.249 17.04-3.642 16.126-3.009 19.172-13.285 2.723-9.184 7.744-37.011 7.744-42.92 0-1.861.718-6.947 1.596-11.302l1.595-7.918-2.699-7.852c-2.724-7.923-5.39-13.352-6.557-13.352-.348 0-.922 4.613-1.274 10.25m163.611 0c.738 12.889 2.883 28.75 3.888 28.75 1.003 0 1.09-12.603.188-27.344-.595-9.727-.824-10.656-2.629-10.656-1.864 0-1.946.525-1.447 9.25M331 217.9c-4.414.588-4.511.681-5.065 4.837-.311 2.33-.372 5.255-.134 6.5.238 1.244.384 6.876.325 12.513-.058 5.637.304 10.25.806 10.25 1.315 0 3.139-6.111 3.652-12.231 1.556-18.591 1.712-19.246 4.666-19.585 1.574-.182 2.75-.93 2.75-1.75 0-.789-.562-1.366-1.25-1.284-.687.083-3.275.42-5.75.75m-83.5 17.618c-3.3.742-8.614 1.893-11.808 2.558-6.508 1.353-6.424 1.689 1.191 4.756 6.742 2.715 7.117 2.703 7.117-.224 0-5.289 9.571-4.005 10.658 1.43.465 2.328 1.005 2.91 2.228 2.404 2.748-1.136 14.531-2.201 16.114-1.456 2.316 1.09 19.032 3.316 19.722 2.626.336-.337-.056-.612-.872-.612s-7.88-2.925-15.698-6.5c-15.477-7.077-17.657-7.456-28.652-4.982m-36.487 8.14c-9.155 2.373-9.516 2.836-12.527 16.06-6.868 30.166-12.332 48.356-19.243 64.058-2.488 5.653-4.348 10.396-4.133 10.541.214.145 1.965 1.413 3.89 2.818 7.204 5.256 7.777 5.335 9.46 1.306 1.625-3.889.63-7.462-2.894-10.386-.861-.715-1.566-1.92-1.566-2.677 0-2.301 3.663-1.541 5.408 1.122 1.905 2.907 3.499 3.259 3.396.75-.039-.962.262-2.538.669-3.5.614-1.45.208-1.75-2.366-1.75-1.709 0-3.107-.45-3.107-1s1.047-1 2.326-1c1.279 0 3.382-1.125 4.674-2.5 1.292-1.375 3.058-2.503 3.924-2.506.867-.004 2.302-1.284 3.19-2.845 1.536-2.699 1.511-2.903-.5-4.181-2.113-1.342-2.113-1.343.35-1.942 2.244-.546 2.439-1.023 2.174-5.325-.16-2.599.432-6.9 1.314-9.558.883-2.658 1.406-6.441 1.162-8.407-.636-5.132 1.999-10.409 5.553-11.119 2.48-.496 2.833-1.015 2.833-4.158 0-1.975-.501-4.527-1.114-5.672-1.066-1.993.306-9.123 3.177-16.501 1.181-3.036.301-3.273-6.05-1.628m7.81 10.961c-.178.891-.175 4.186.007 7.322l.33 5.703 6.42 2.087c5.1 1.659 6.42 1.805 6.42.714 0-1.986 3.09-3.342 6.242-2.739 2.264.433 2.894.066 3.747-2.177 1.195-3.143.611-4.529-1.908-4.529-.991 0-5.697-1.8-10.459-4-9.76-4.509-10.348-4.639-10.799-2.381M330 264.174c-2.352.986-2.144 1.154 3.5 2.839 3.3.986 7.86 2.472 10.133 3.304l4.133 1.512.58-3.571c.318-1.964.344-3.95.057-4.414-.737-1.193-15.395-.93-18.403.33m-19.625 4.47c-1.616 6.435 6.249 11.501 14.625 9.421 2.475-.615 5.85-.849 7.5-.52 2.599.518 3.249.175 4.86-2.564 2.47-4.2 2.002-4.485-11.325-6.902-14.615-2.65-14.856-2.642-15.66.565M99.311 288.87c-9.744 1.653-10.263 2.056-10.297 7.996-.014 2.301.16 2.35 6.236 1.772 3.438-.328 10.412-.888 15.5-1.246 5.088-.357 9.25-1.004 9.25-1.436 0-1.227-9.148-8.975-10.391-8.801-.61.086-5.244.857-10.298 1.715m211.789 2.81c-.685 1.503-2.131 3.354-3.213 4.112-1.723 1.207-1.891 2.141-1.354 7.543 1.634 16.436 5.571 32.665 7.925 32.665 3.304 0 3.679-2.659 1.505-10.659-4.399-16.184-4.441-18.404-.411-21.872l3.522-3.031-2.62-4.969c-3.525-6.684-3.911-6.957-5.354-3.789m-92.783 4.936c-1.396 3.639 3.692 19.853 5.59 17.812 1.375-1.479 1.933-15.854.661-17.042-2.018-1.885-5.651-2.333-6.251-.77m128.183.973c-6.494 5.447-19.084 8.309-24.293 5.522-3.711-1.986-7.492 2.197-6.654 7.363.855 5.27 2.171 6.562 2.975 2.921 1.116-5.055 1.359-5.395 3.857-5.395 1.347 0 2.598-.417 2.782-.926.183-.509 1.559-1.23 3.058-1.602 2.259-.561 2.881-.274 3.64 1.676 2.709 6.958 3.202 7.54 2.648 3.123-.497-3.968-.36-4.269 2.229-4.888 1.517-.362 3.208-.991 3.758-1.397.55-.407 3.492-1.04 6.538-1.408l5.537-.669 1.824 4.134c1.338 3.032 1.528 4.43.712 5.246-.611.611-1.111 2.165-1.111 3.454v2.342l3.468-2.767 3.468-2.767-3.567-6.526c-3.553-6.501-6.143-10.057-7.274-9.989-.327.02-1.945 1.168-3.595 2.553m-307.478 3.364c-2.641.668-3.536 3.041-5.888 15.607-1.503 8.033-1.388 11.525.46 13.94 1.512 1.976 1.547 1.977 2.968.059.791-1.068 1.438-2.924 1.438-4.124 0-1.201.628-3.964 1.396-6.141.832-2.357 1.184-5.837.872-8.609-.304-2.7.005-5.931.738-7.7 1.485-3.584 1.302-3.864-1.984-3.032m6.486.362c-.345 1.078-.796 4.249-3.51 24.668-1.042 7.836-1.15 7.747 9.245 7.618 9.517-.119 8.571 1.334 11.261-17.303.937-6.489 2.114-12.569 2.615-13.512.83-1.559.347-1.661-5.353-1.131-3.446.32-7.979.108-10.072-.471-2.844-.788-3.903-.754-4.186.131m30.812-.549c-2.098.341-4.32 6.542-4.32 12.056 0 .948-1.125 6.159-2.5 11.579-1.375 5.421-2.5 10.023-2.5 10.227 0 .205 1.08.372 2.4.372 2.059 0 2.592-.747 3.742-5.25.738-2.887 1.233-6.067 1.1-7.066-.133-.999.304-2.799.972-4 1.151-2.071 5.744-15.46 5.773-16.827.02-.968-2.215-1.49-4.667-1.091m9.21 8.911l-2.688 8.622 2.829 2.351c1.556 1.293 6.092 4.454 10.079 7.025 7.001 4.514 7.25 4.81 7.25 8.652v3.977l10.656-.652c5.86-.359 13.301-.652 16.535-.652 5.42 0 5.802-.145 4.885-1.858-.547-1.022-1.103-3.609-1.236-5.75s-1.051-6.136-2.041-8.878c-.989-2.742-1.806-6.342-1.814-8-.009-1.658-.618-5.03-1.355-7.494-1.684-5.633-2.511-5.835-24.233-5.91l-16.178-.056-2.689 8.623m144.604-4.927c-2.664 4.978-2.421 17.25.342 17.25 1.861 0 7.544-6.724 7.424-8.785-.055-.943-.46-2.84-.9-4.215-.72-2.247-.811-2.285-.9-.372-.124 2.629-2.611 4.972-3.593 3.384-.369-.597-.369-2.869-.001-5.049.706-4.179-.645-5.44-2.372-2.213m116.116-.037c-1.817.344-2.25 1.091-2.25 3.882 0 3.039-.361 3.527-3 4.055-1.65.33-3 .963-3 1.408 0 .444-.9 1.093-2 1.442-1.271.403-2 1.513-2 3.043 0 2.191.238 2.317 2.651 1.4 2.201-.837 3.049-.634 5 1.199 2.574 2.418 2.806 2.191 1.437-1.41-1.468-3.861.104-5.316 4.339-4.016 4.323 1.327 5.287-1.114 1.073-2.716-3.226-1.226-3.191-3.364.079-4.854 4.112-1.874 2.442-4.337-2.329-3.433m-78.358 3.296c-.766.411-4.092 1.065-7.392 1.453-6.002.705-12.5 4.923-12.5 8.112 0 .65-1.012 1.856-2.25 2.679-2.195 1.461-2.243 1.883-1.983 17.211.146 8.642.7 18.71 1.23 22.374.53 3.664.972 6.953.983 7.308.011.355-3.61.967-8.047 1.36-9.527.843-10.289 1.79-9.273 11.513.599 5.733.741 5.981 3.421 5.981 2.579 0 2.847-.37 3.442-4.75 1.106-8.144 1.181-8.25 5.853-8.25 5.245 0 7.858 1.802 8.114 5.594.109 1.598.267 3.918.353 5.156.138 1.977.703 2.25 4.657 2.25h4.5v-11.1l5.646.3c5.424.288 6.136.699 8.006 4.619.084.175 2.784-.164 6-.754 7.502-1.377 8.553-2.735 6.751-8.722-1.632-5.422-1.45-5.842 3.2-7.377 3.033-1.001 3.466-1.504 2.859-3.323-.393-1.179-1.062-8.233-1.487-15.677-1.133-19.841-4.442-30.751-9.381-30.933-.498-.018-2.298-1.084-4-2.368-3.636-2.744-6.761-3.698-8.702-2.656m50.143 8.949c-2.246 1.419 5.131 23.042 7.86 23.042 1.346 0 2.105-5.484 2.105-15.208 0-6.731-.311-8.851-1.25-8.526-.876.304-1.151 2.391-.92 6.975.182 3.598-.087 6.8-.598 7.116-.803.496-2.649-5.768-3.47-11.774-.312-2.285-1.715-2.896-3.727-1.625m-92.668 9.885c-.041 3.661-.426 11.033-.856 16.38l-.781 9.724 2.885 1.086c1.587.597 5.711 2.92 9.165 5.163 3.454 2.243 6.454 3.903 6.667 3.69.213-.213-.038-2.637-.559-5.387-.521-2.749-1.368-10.399-1.884-16.999-1.3-16.659-1.821-18.959-3.886-17.164-4.41 3.835-5.897 3.883-8.353.269l-2.323-3.419-.075 6.657M46.03 339.813c.017 1.478.834 6.796 1.816 11.819 1.907 9.754 1.454 13.804-1.422 12.7-1.67-.64-1.673-.044-.067 11.168.079.55-1.545 1-3.608 1-3.008 0-3.75.373-3.75 1.886.001 1.668.537 1.812 4.641 1.25 2.551-.35 6.992-.636 9.868-.636h5.228l-.457-11.75c-.251-6.462-.889-14.225-1.417-17.25-.528-3.025-1.051-6.49-1.161-7.7-.271-2.971-1.517-3.936-5.951-4.607-3.549-.537-3.748-.423-3.72 2.12m33.368 3.738c-.666 2.654 1.957 31.632 3.14 34.699.372.962 1.303 1.75 2.069 1.75 1.673 0 1.768-4.207.337-15-.547-4.125-1.242-10.861-1.545-14.968-.303-4.107-.768-7.82-1.034-8.25-.96-1.553-2.34-.73-2.967 1.769m15.039 1.528c-1.854 2.037-1.818 3.123.491 14.729 1.061 5.33 2.298 12.392 2.75 15.692l.822 6 6.394.301c3.517.166 10.459-.396 15.427-1.25 4.967-.853 9.515-1.603 10.105-1.666.591-.063-.726-.563-2.926-1.11-4.845-1.204-21.624-.982-22.95.304-1.808 1.753-2.55.904-2.55-2.919 0-2.112-.883-7.294-1.963-11.515-1.079-4.221-1.706-8.343-1.393-9.16.636-1.656.01-1.612 21.193-1.487 16.692.1 16.907-.014 9.591-5.047-2.458-1.692-4.261-3.412-4.007-3.823 1.021-1.653-29.467-.717-30.984.951m-27.805 10.437c-.62 1.616 1.799 23.248 2.7 24.15.363.362 1.731.171 3.04-.426 2.355-1.073 2.709-5.83.539-7.262-.435-.287-.92-4.338-1.078-9.003-.269-7.945-.427-8.489-2.495-8.618-1.215-.075-2.432.446-2.706 1.159m38.961 9.234c.372 4.262.863 7.96 1.091 8.216.913 1.026 33.188.173 35.251-.931 2.274-1.217 2.242-4.143-.128-11.881-.91-2.97-1.322-3.272-3.666-2.689-1.453.361-3.85.901-5.327 1.2-2.422.49-2.589.796-1.705 3.123 2.674 7.032-5.603 13.057-11.888 8.654-1.224-.857-2.636-1.304-3.139-.993-3.942 2.437-10.173-6.048-7.49-10.199 1.374-2.127 1.313-2.25-1.111-2.25h-2.564l.676 7.75M223.5 358c-.34.55-1.711 1-3.046 1-2.694 0-15.953 6.159-52.274 24.282-25.303 12.625-26.522 13.388-23.82 14.899.902.505 1.64 1.591 1.64 2.413 0 .821.563 1.421 1.25 1.331 3.377-.438 5.69.288 7.874 2.472 3.889 3.889 6.787 3.586 11.508-1.204 4.213-4.274 7.368-5.414 7.368-2.663 0 1.22.61 1.079 3.007-.693 5.375-3.974 5.965-.849.96 5.087-5.601 6.642-7.599 6.499-4.992-.359 1.262-3.319.55-3.234-3.628.435-1.879 1.65-3.841 3-4.36 3-.56 0-.515.942.111 2.316.822 1.804 1.675 2.224 3.864 1.903 1.544-.227 3.803.12 5.019.771 1.89 1.011 2.427.872 3.711-.961 1.027-1.465 2.341-2.046 4.155-1.836 2.465.285 2.633.613 2.376 4.636-.487 7.605 2.469 4.841 9.812-9.176 3.702-7.066 7.346-13.462 8.098-14.212.752-.75 5.859-2.444 11.349-3.764 9.392-2.259 10.023-2.571 10.686-5.289a1536.74 1536.74 0 011.822-7.355c.615-2.457.86-5.495.545-6.75-.549-2.186-.32-2.283 5.387-2.283 8.022 0 8.126-.971.569-5.318-6.802-3.912-8.008-4.272-8.991-2.682M85.946 407.843l-2.276 1.843 5.415 3.975a87444 87444 0 0118.415 13.527c7.15 5.254 15.7 11.286 19 13.404 3.3 2.118 7.482 5.105 9.293 6.637 1.812 1.532 6.087 4.192 9.5 5.911 3.414 1.719 8.088 4.416 10.387 5.993 5 3.429 11.665 3.807 21.882 1.241 5.286-1.328 6.264-1.878 5.333-3-.627-.756-1.703-1.374-2.39-1.374-1.884 0-45.482-22.124-49.505-25.122-1.925-1.434-5.75-3.866-8.5-5.404-2.75-1.539-6.35-4.026-8-5.528-1.65-1.502-5.025-3.741-7.5-4.976-2.475-1.235-5.625-3.124-7-4.198-5.905-4.614-10.731-5.62-14.054-2.929m-9.196 4.888c-.963.229-1.75.812-1.75 1.296 0 1.885 17.346 15.547 34.922 27.505 4.168 2.836 15.003 10.296 24.078 16.579 22.937 15.88 23.633 16.288 24.388 14.32 1.532-3.992.623-6.071-3.638-8.321-2.338-1.235-5.652-3.254-7.366-4.488-14.455-10.402-24.94-17.515-29.835-20.239-1.623-.903-3.568-2.259-4.322-3.013-.753-.753-1.794-1.37-2.312-1.37-1.59 0-7.889-4.434-7.903-5.562-.014-1.24-5.428-5.438-7.012-5.438-1.178 0-6.039-3.208-10-6.6-3.985-3.413-7.363-5.118-9.25-4.669m214.947 1.019c-.231.413-.724 2.017-1.094 3.566-1.414 5.908-12.409 7.022-14.182 1.436-.613-1.933-1.159-1.999-11.225-1.348-10.385.671-10.641.747-13.936 4.14-4.378 4.508-9.202 4.764-13.109.694-2.865-2.984-7.151-3.299-7.151-.526 0 .865.86 4.546 1.91 8.18 1.051 3.634 2.223 9.755 2.606 13.602 1.094 11.007 2.634 12.439 17.64 16.418 5.814 1.542 9.256 1.881 14.306 1.409 6.391-.596 6.723-.761 8.506-4.221 2.393-4.643 10.408-16.92 13.014-19.935 1.11-1.284 2.018-2.716 2.018-3.183 0-1.775-4.154-2.111-6.567-.53-2.803 1.836-3.88.664-3.262-3.551.388-2.648 2.829-3.836 2.829-1.377 0 1.13.524 1.489 1.582 1.083.87-.334 2.208-.607 2.974-.607 1.984 0 4.22-4.832 5.018-10.844.613-4.622-.409-7.022-1.877-4.406M366 427.596c-3.025.733-8.359 1.853-11.852 2.489-6.856 1.248-11.392 4.337-15.044 10.246-2.834 4.586-4.273 8.669-3.054 8.669.55 0 1.387-1.012 1.86-2.25 2.219-5.801 13.462-11.597 24.815-12.791 4.826-.508 8.839-.931 8.917-.941.688-.087 1.281-5.476.663-6.031-.443-.398-3.28-.124-6.305.609m-291.448 3.053c-.354 1.412-.536 7.755-.404 14.097.254 12.23.591 13.21 7.352 21.369 2.579 3.112 12.395 11.333 12.89 10.796.209-.226 1.332-2.205 2.496-4.398 2.272-4.281 4.144-5.421 7.763-4.729 3.145.601 3.591 2.787 2.286 11.199-1.212 7.809.002 11.942 1.98 6.741.544-1.431 2.023-3.136 3.287-3.788 1.264-.652 3.334-2.13 4.601-3.285 3.534-3.221 3.787-2.533 5.716 15.529.579 5.411.869 5.895 6.151 10.243 3.049 2.51 5.875 4.358 6.28 4.108.405-.251.634-4.41.507-9.243-.271-10.359.103-12.299 2.36-12.256 3.763.071 10.163 10.053 10.198 15.905.009 1.41.495 3.238 1.081 4.063.789 1.111.907.369.455-2.862-.378-2.699-.172-4.89.541-5.749.83-1 .859-2.155.105-4.138-.575-1.513-1.33-4.462-1.677-6.554-.373-2.253-1.321-4.049-2.325-4.409-.932-.333-4.17-2.921-7.195-5.75-3.025-2.829-7.975-6.952-11-9.162-19.373-14.154-30.254-22.383-35.5-26.849-3.3-2.809-8.543-6.984-11.652-9.276l-5.652-4.168-.644 2.566m23.473 10.101c.044 1.354 18.838 15.557 33.717 25.482 8.025 5.352 15.557 10.64 16.739 11.75 1.181 1.11 2.697 2.018 3.369 2.018.897 0 .946.513.185 1.934-1.377 2.574-1.311 6.69.152 9.382 1.17 2.153 2.625 9.732 3.226 16.808.169 1.993.933 5.066 1.697 6.827 1.544 3.559 3.861 3.664 13.89.632 2.475-.748 7.522-2.131 11.215-3.073 7.827-1.997 7.483-1.322 8.17-16.01l.514-11-1.403 6.5c-.771 3.575-1.424 7.947-1.449 9.715-.031 2.122-.704 3.567-1.981 4.25-2.66 1.423-4.066 1.296-4.066-.367 0-1.189-.723-1.174-4.75.1-2.613.826-7.37 2.236-10.571 3.134l-5.821 1.631-1.864-2.471c-1.679-2.226-1.806-3.812-1.285-16.005l.579-13.535-5.029-1.289c-2.829-.725-6.063-2.398-7.394-3.825-1.301-1.395-4.39-3.572-6.865-4.838-2.475-1.266-5.598-3.479-6.939-4.917-1.342-1.438-4.388-3.757-6.769-5.152-2.392-1.402-4.881-3.83-5.561-5.425-1.896-4.446-8.508-9.214-11.781-8.495-1.981.435-3.468-.076-5.709-1.961-3.115-2.622-4.259-3.11-4.216-1.8m191.358 7.344c2.835 9.78 3.965 19.054 2.735 22.455-1.966 5.439-4.084 22.397-3.101 24.832.744 1.842.865 1.7.92-1.082.146-7.41 3.561-20.622 6.246-24.17 2.123-2.804 1.754-5.005-2.32-13.837-1.575-3.415-2.863-6.876-2.863-7.691 0-.816-.521-1.805-1.158-2.198-.817-.506-.952-.009-.459 1.691m-244.32 5.625c-.048 2.436-.428 3.078-1.563 2.643-.825-.317-1.506-.19-1.514.281-.007.471-.293 1.982-.636 3.357-.496 1.993-.364 2.259.65 1.314.984-.917 1.58-.877 2.633.176 2.027 2.027.723 4.057-2.776 4.324-2.383.182-2.959-.106-2.517-1.257.315-.821.142-1.759-.384-2.084-.529-.327-.956.782-.956 2.484 0 2.817.257 3.055 3.076 2.84 1.692-.129 3.307-.608 3.589-1.064.282-.457 1.197-.263 2.032.431 1.244 1.032 1.744.953 2.76-.436.682-.933 1.534-1.404 1.892-1.046.358.358.651.288.651-.155 0-.444-.743-1.35-1.651-2.014-1.164-.851-1.312-1.418-.5-1.919.633-.392 1.151-.235 1.151.347S51.45 463 52 463s1-.675 1-1.5.436-1.5.969-1.5c.532 0 .731-.617.442-1.371s.175-1.64 1.032-1.969c.856-.328 1.528-1.624 1.494-2.879-.063-2.247-.077-2.249-.917-.17-.469 1.161-1.565 2.384-2.436 2.719-.871.334-1.584 1.296-1.584 2.139 0 .864-.871 1.531-2 1.531-3.098 0-3.52-.341-3.233-2.617.147-1.164-.162-3.189-.687-4.5-.905-2.263-.956-2.221-1.017.836m15.016 3.031C60.036 457.988 59.55 459 59 459c-.55 0-.888.532-.75 1.183s-.99 1.802-2.505 2.557c-3.553 1.772-2.914 5.27 1.88 10.302 1.856 1.948 3.411 4.648 3.454 6 .043 1.352.323 1.845.621 1.095.458-1.151.677-1.151 1.406 0 .688 1.086.866 1.029.879-.28.008-.904.69-1.902 1.515-2.219.825-.316 1.5-.113 1.5.452 0 .566.49.725 1.088.356.669-.414-.341-2.021-2.621-4.172-2.617-2.468-3.932-3.14-4.464-2.28-.537.871-.949.903-1.437.113-.376-.609-.181-1.107.434-1.107s.84-.45.5-1c-.34-.55-1.068-1-1.618-1s-.722.45-.382 1c.978 1.582-1.12 1.162-2.5-.5-.821-.989-.874-1.5-.154-1.5.607 0 .818-.776.475-1.75-.502-1.429-.368-1.52.732-.5.741.688 1.98 1.25 2.753 1.25.773 0 2.291 1.125 3.373 2.5 1.081 1.375 2.635 2.5 3.453 2.5.869 0 1.19.48.773 1.155-.428.692-.276.883.379.478.601-.371 1.557.122 2.124 1.096.567.974 1.045 1.347 1.062.83.016-.518.691-.068 1.498 1 1.329 1.756 1.471 1.774 1.5.191.018-.962.382-1.75.81-1.75.428 0 1.537.788 2.465 1.75 3.724 3.863 5.482 5.25 6.65 5.25.674 0 .947-.45.607-1-.34-.55-.141-1 .441-1 2.443 0 .579-2.809-4.938-7.442-3.236-2.718-5.689-5.257-5.45-5.643.238-.386-.612-.964-1.888-1.284-1.277-.321-2.84-1.719-3.472-3.107-1.204-2.643-2.64-3.227-3.703-1.508-.346.559-1.054.753-1.575.431-.521-.322-.706-.976-.41-1.455.295-.478-.081-1.234-.837-1.681-.756-.446-1.63-1.486-1.942-2.311-.379-.999-.594-.749-.647.75m219.083 4.198c-2.91 3.621-3.591 3.939-9.884 4.613-4.413.472-8.152.307-10.769-.477-2.205-.66-7.271-2.016-11.259-3.014l-7.25-1.813.011 2.621c.025 5.881 1.241 10.239 2.701 9.679 2.681-1.029 5.188 1.451 6.875 6.8 1.831 5.81 4.548 7.643 11.328 7.643 2.431 0 3.407.514 3.795 2 .579 2.213 1.804 2.595 2.858.89 1.112-1.8 9.439.308 17.037 4.313.31.163.6-4.072.645-9.412.044-5.339.412-10.245.818-10.901.405-.655.106-2.981-.666-5.167-.771-2.186-1.402-5.466-1.402-7.29 0-4.776-1.286-4.905-4.838-.485M179 464.161c-1.375.565-5.35.978-8.833.919l-6.334-.108 2.155 2.74c2.367 3.009 1.366 4.083-2.084 2.237-1.965-1.052-2.128-.977-1.485.685 1.328 3.434 1.955 29.799.761 32.03-1.705 3.186-.781 3.225 7.677.327 10.717-3.673 10.143-2.975 10.143-12.326 0-6.614 1.267-20.905 2.3-25.94.302-1.474-1.507-1.711-4.3-.564m151.609 26.984c-.733 3.59-1.816 12.77-2.166 18.355-.171 2.75-.528 6.651-.792 8.669-.546 4.17.067 5.31 1.994 3.71.731-.606 1.962-.86 2.735-.564.772.297 4.2-.59 7.617-1.97 3.814-1.54 7.137-2.277 8.608-1.908 2.19.55 2.395.297 2.395-2.95 0-3.301 1.594-7.93 3.956-11.487.547-.825 1.672-3.075 2.5-5 .827-1.925 2.059-4.266 2.739-5.202 1.836-2.531.963-2.756-6.877-1.772-6.556.823-13.606.261-20.023-1.597-1.762-.511-2.301-.167-2.686 1.716m87.222 41.807c-.233 12.645-.701 18.321-1.581 19.2-.747.746-1.25 3.897-1.25 7.829v6.582l5.899 5.837 5.899 5.838 4.537-6.763 4.537-6.763-3.341-4.375c-1.837-2.407-3.867-6.567-4.509-9.246-1.018-4.243-1.555-4.948-4.166-5.47-2.277-.455-2.868-1.022-2.459-2.36 2.356-7.703 2.868-26.161.687-24.813-.471.291-1.091-.365-1.377-1.459-.286-1.094-.975-1.989-1.532-1.989-.634 0-1.137 6.719-1.344 17.952m-278.309-2.705c.307 12.932 1.182 23.883 3.076 38.503.672 5.187 2.13 6.608 4.103 4 1.282-1.695 1.477-5.812.389-8.25-2.364-5.302-5.046-42.291-3.151-43.462.882-.546.371-1.393-1.755-2.907l-3.001-2.137.339 14.253m62.14 22.289c-.371 1.143.212 4.519 1.328 7.695 2.233 6.353 1.921 8.324-1.452 9.17-1.274.32-5.126 3.751-8.56 7.624-6.65 7.501-7.325 7.748-7.419 2.72-.067-3.617-1.699-4.403-5.86-2.821-3.266 1.242-4.142 4.375-3.24 11.594.609 4.871.852 5.314 2.184 3.982.825-.825 2.491-1.5 3.702-1.5 1.429 0 5.003-2.835 10.178-8.073 4.388-4.44 9.215-8.726 10.727-9.525 2.588-1.368 2.748-1.849 2.724-8.178-.03-7.571-3.069-16.515-4.312-12.688m167.976.964c-.316.825-1.264 1.5-2.107 1.5-.842 0-1.531.393-1.531.873 0 1.002-8.009.858-9.679-.175-.611-.378-1.35-.064-1.643.698-.598 1.559-6.201 4.604-8.471 4.604-1.652 0-4.126 2.814-4.175 4.75-.045 1.757 1.535 1.589 11.606-1.233 17.756-4.974 19.436-5.589 18.666-6.825-.408-.656-.611-2.205-.452-3.442.326-2.518-1.321-3.076-2.214-.75m32.662 19.854c-.44.745-1.812 1.886-3.05 2.535-1.496.786-2.25 2.097-2.25 3.915 0 4.034-4.041 6.227-9.106 4.941-2.984-.757-4.764-.614-7.885.635-2.217.887-4.493 1.502-5.057 1.366-.564-.135-2.198 3.252-3.63 7.527-4.396 13.12-18.187 23.727-30.849 23.727-4.652 0-6.653 1.591-7.084 5.634-.148 1.384-.72 3.06-1.272 3.725-2.712 3.268.278 3.878 15.51 3.164 24.535-1.15 30.417-3.753 44.59-19.739 7.238-8.163 16.134-21.449 14.881-22.224-.45-.278-.839-3.641-.863-7.473-.053-8.542-1.629-11.638-3.935-7.733m40.114 3.01c-.382.995.734 3.159 2.988 5.793 1.979 2.311 3.598 4.621 3.598 5.131 0 1.655-4.857-.236-7.565-2.944-2.123-2.123-2.808-2.365-3.52-1.24-1.597 2.521-.974 3.666 3.902 7.169 9.305 6.685 9.309 6.685 8.556.02-.978-8.666-6.363-18.089-7.959-13.929M313 582.75c0 .413-1.238.828-2.75.923-1.512.095-3.875.375-5.25.623-1.375.247-3.062.506-3.75.576-1.572.161-1.683 7.295-.137 8.841.611.611.899 1.714.639 2.45-.267.754-1.469-.685-2.758-3.302-2.183-4.432-2.419-4.6-5.311-3.77-1.958.561-3.489.485-4.334-.216-1.541-1.28-10.7.579-12.136 2.463-.487.639-1.925 3.782-3.195 6.984-1.27 3.203-3.321 6.486-4.558 7.296-1.434.94-2.073 2.145-1.765 3.326.267 1.018-.038 2.829-.678 4.023l-1.162 2.172-2.019-2.319a108.556 108.556 0 01-3.909-4.82c-1.145-1.515-2.192-2.106-2.658-1.5-.43.558-6.461 1.075-13.661 1.171-8.83.117-13.127.551-13.638 1.378-.411.664-1.247.898-1.858.52-.612-.378-1.112-.155-1.112.494 0 .846-.458.802-1.608-.153-1.367-1.134-1.818-1.048-3 .569-.794 1.085-1.392 1.357-1.392.633 0-2.157-11.866 1.244-13.485 3.864-.314.508-2.879.65-5.699.316-4.115-.488-4.967-.345-4.309.72.589.952.373 1.156-.76.721-.91-.349-1.815.003-2.133.83-.303.79-1.001 1.437-1.551 1.437s-.741-.675-.425-1.5c.368-.957-.017-1.5-1.062-1.5-.902 0-1.898.675-2.214 1.5-.317.825-1.004 1.5-1.528 1.5s-.679-.441-.346-.98c.383-.62-1.522-.775-5.191-.421-3.189.308-6.543.555-7.455.55-.911-.006-2.443.858-3.405 1.92-2.145 2.371-4.217 2.589-2.309.244 1.195-1.47 1.156-1.607-.307-1.059-.923.346-3.322.937-5.33 1.314-2.008.376-3.927 1.415-4.265 2.308-.982 2.598-2.961 4.163-4.512 3.568-.789-.303-2.734.537-4.324 1.866-3.219 2.691-8.83 4.903-6.664 2.626.898-.943.932-1.643.128-2.612-.811-.977-.776-1.324.131-1.324.682 0 .973-.668.653-1.5-.316-.825-.113-1.5.452-1.5.566 0 .779-.403.475-.895-.305-.493.119-1.153.941-1.469 3.068-1.177 1.338-2.636-3.128-2.636-3.7 0-4.406.262-3.535 1.311.845 1.018.312 1.593-2.377 2.565-1.906.689-3.466 1.674-3.466 2.189 0 .514-.436.935-.969.935-1.645 0-.037-2.687 2.277-3.806 2.01-.97 2.03-1.064.251-1.126-1.922-.067-1.922-.083 0-1.536 1.698-1.285 1.729-1.472.25-1.5-.93-.018-1.94.371-2.245.864-.602.975-8.175 5.107-9.345 5.099-.395-.003.631-1.15 2.281-2.55 2.618-2.22 2.713-2.466.75-1.927-1.823.5-2.25.212-2.25-1.518 0-1.648-.436-1.996-1.916-1.527-1.054.335-2.201.147-2.549-.417-.349-.564-1.704-.937-3.012-.829-1.309.109-2.117.621-1.796 1.14.324.525.044.609-.636.19-.684-.423-2.065.015-3.154 1-1.065.964-1.937 1.26-1.937.657s.457-1.379 1.016-1.724c2.044-1.263-.157-2.309-6.264-2.978-3.439-.377-12.087-1.523-19.219-2.548-7.132-1.024-13.154-1.676-13.382-1.449-.228.228-1.222-.018-2.21-.547-1.377-.737-1.902-.554-2.252.786-.411 1.571-.469 1.56-.573-.111-.076-1.218-.632-1.659-1.616-1.281-.825.316-1.5.201-1.5-.255 0-.906-11.048-3.392-11.787-2.653-.25.249-.853 2.612-1.34 5.25-.989 5.353-3.44 9.301-6.695 10.78-1.443.656-1.979 1.569-1.607 2.74.306.965-.147 2.76-1.007 3.988-2.062 2.944-2.022 3.17 1.186 6.638l2.75 2.973 25-.813c13.75-.447 47.5-1.066 75-1.376 27.5-.311 51.125-.807 52.5-1.103 1.375-.296 16.577-.556 33.783-.577 19.657-.025 31.062-.395 30.691-.997-.326-.526-.142-.957.408-.957.55 0 1.278.45 1.618 1 .897 1.451 8.252 1.241 8.754-.25.311-.925.788-.964 1.833-.151 1.273.991 6.245 1.137 20.033.586 4.546-.182 4.638-.253 5.747-4.435 1.635-6.16 3.117-16.537 3.125-21.878.009-5.351 2.201-11.29 5.489-14.872 1.262-1.375 2.602-3.519 2.979-4.765.376-1.245 1.079-2.02 1.562-1.722.483.299 1.366-.37 1.963-1.485.925-1.729.785-2.028-.95-2.028-1.119 0-2.035.337-2.035.75M466.984 611c-.122.825-.15 2.055-.062 2.734.09.699-.478.99-1.309.671-1.084-.416-1.326-.025-.928 1.5.667 2.55-.451 7.358-1.552 6.677-.445-.275-.879 1.307-.966 3.515-.087 2.237.252 3.762.766 3.444 1.354-.836 2.315 3.054 1.581 6.397-.687 3.127 1.111 7.062 3.227 7.062.846 0 1.316-1.886 1.433-5.75.096-3.163.24-7.325.322-9.25.16-3.807-2.151-19.45-2.512-17m-407.793 1.853c-1.033.906-1.669 2.262-1.413 3.013.256.751-.152 1.75-.906 2.22-.971.604-1.551.205-1.984-1.366-.595-2.156-.636-2.163-1.427-.22-.448 1.1-1.298 2.377-1.888 2.837-.627.489-.138.632 1.177.343 1.237-.271 2.25-.085 2.25.414 0 .498-.886.906-1.969.906-2.125 0-1.87 2.639.262 2.703 1.876.057 9.964 1.154 12.368 1.677 2.848.62 5.849-1.607 5.033-3.735-.399-1.039-1.778-1.645-3.746-1.645-2.056 0-2.968-.425-2.682-1.25.267-.772 2.211-1.226 5.083-1.187 5.538.075 6.202-1.71 1.534-4.123-4.459-2.306-9.447-2.557-11.692-.587m-11.13 12.574c-.574.691-.748 1.553-.386 1.915.362.362.133.658-.508.658-.642 0-1.167.647-1.167 1.439 0 1.582 5.393 2.689 14.235 2.922 6.078.16 7.406-2.086 2.265-3.831-1.65-.56-3.599-1.588-4.331-2.283-.731-.696-1.68-1.049-2.107-.785-.428.264-2.168.081-3.868-.406-2.19-.629-3.393-.521-4.133.371" fill="#d3d3d3" fill-rule="evenodd"/></svg>