<svg xmlns="http://www.w3.org/2000/svg" width="500" height="475"><path d="M50.75 11.764L19 12.028V452h7c5.627 0 7 .301 7 1.535 0 1.854 95.89 1.819 97.214-.035.908-1.27 105.364-1.192 115.286.086 6.611.852 86.663 1.081 128 .366 10.45-.18 36.438.004 57.75.411 34.658.66 38.75.575 38.75-.812 0-1.256 1.354-1.551 7.115-1.551h7.115l-.657-18.25c-.783-21.726-.826-22.145-2.494-24.155-1.081-1.302-1.056-1.667.146-2.128 2.265-.869 2.152-8.173-.173-11.127-2.019-2.567-1.848-4.82.431-5.695.993-.381 1.358-3.553 1.448-12.577L483.05 366h-2.525c-1.389 0-2.525-.45-2.525-1s.364-1 .809-1c3.256 0 4.266-2.535 2.737-6.869-1.387-3.933-1.383-4.283.041-3.736 1.312.504 1.451.067.841-2.646-.401-1.787-.636-3.924-.521-4.749.639-4.596.211-7.354-1.27-8.183-.9-.504-1.637-1.596-1.637-2.426 0-.83.45-1.231 1-.891.55.34 1-.047 1-.859 0-.813.273-2.189.607-3.059.426-1.111.024-1.582-1.351-1.582-1.765 0-1.94-.656-1.784-6.691.095-3.68.646-6.848 1.224-7.041.673-.224.88-3.3.575-8.559-.279-4.81.056-10.693.809-14.209 1.439-6.726 2.157-27.5.95-27.5-.429 0-.78-1.202-.78-2.672 0-1.47-.719-3.198-1.598-3.841-.879-.642-1.439-2.028-1.245-3.078.194-1.05-.114-3.034-.685-4.409-.571-1.375-1.135-3.654-1.254-5.064-.118-1.41-.545-3.604-.949-4.875-.416-1.311-.344-2.071.166-1.756 1.426.882 1.717-2.931.749-9.805-.397-2.821-.269-3.573.433-2.552.788 1.145 1.123.832 1.606-1.5.336-1.621 1-4.41 1.475-6.197.475-1.787.499-3.475.052-3.751-.447-.276-.575-1.408-.286-2.516.417-1.594.165-1.875-1.21-1.347-1.508.579-1.585.383-.585-1.485.633-1.184 1.837-2.152 2.675-2.152.838 0 1.329.337 1.09.75-.238.412-.072 1.65.371 2.75.521 1.295.829-.592.875-5.357.059-6.227-.166-7.266-1.468-6.767-1.938.744-2.882-1.567-2.029-4.966.498-1.984.953-2.335 1.951-1.506 1.876 1.556 2.602-34.289 2.334-115.154L483.5 12H447l-.162 3.25c-.089 1.788-.125 4.938-.081 7 .044 2.063-.281 3.75-.722 3.75-.941 0-2.002-3.543-2.021-6.75-.021-3.381-4.606-3.163-5.259.25-.263 1.375-.074 2.5.419 2.5s.336 1.013-.349 2.25c-.684 1.238-1.144 2.752-1.022 3.367.123.614-.458 1.681-1.29 2.372-.832.691-1.513 2.052-1.513 3.025 0 1.079-1.032 2.028-2.645 2.433-1.876.471-2.334.974-1.576 1.732 1.585 1.585-.677 3.563-3.464 3.03-1.261-.241-2.045-.836-1.744-1.323.301-.487-.183-.886-1.075-.886-.946 0-1.548-.729-1.444-1.75.348-3.422-.041-4.191-1.802-3.559-2.068.744-4.715 3.311-5.52 5.355-.362.919-.601.6-.651-.867-.043-1.277-.735-2.978-1.537-3.779-.805-.806-1.176-2.227-.829-3.179.404-1.109-.37-.743-2.179 1.029-3.344 3.277-4.192 3.403-5.034.75-.349-1.1-1.054-2-1.567-2-.513 0-.933-.927-.933-2.059 0-1.132-.45-1.781-1-1.441-.55.34-1-.297-1-1.416 0-1.691.469-1.94 2.781-1.478 2.3.46 2.808.196 2.938-1.525.086-1.144-.251-2.081-.75-2.081-.498 0-.647-.675-.331-1.5.317-.825.093-1.5-.497-1.5-2.201 0-8.141 3.418-8.141 4.685 0 .723-.545 1.203-1.212 1.065-.701-.145-1.247.909-1.296 2.5-.047 1.512.386 2.754.962 2.758.575.004 1.566 1.129 2.202 2.5 1.23 2.651.527 3.275-1.456 1.292-.66-.66-1.2-.773-1.201-.25 0 .522-1.122 1.015-2.493 1.094-1.371.079-2.244-.259-1.94-.75.303-.492 1.313-.908 2.243-.926 1.56-.029 1.555-.135-.059-1.36-.962-.731-1.78-2.179-1.818-3.218-.061-1.726-.156-1.708-1.088.216-.779 1.606-1.887 2.081-4.664 2-3.46-.101-3.643.056-3.661 3.144-.01 1.788.493 3.25 1.12 3.25.626 0 1.118-.562 1.092-1.25-.116-3.123.356-4.75 1.376-4.75.609 0 .875.603.593 1.341-.283.737-.16 1.915.274 2.618 1.431 2.315-2.121 5.031-4.224 3.23-1.596-1.367-1.757-1.287-1.829.906-.043 1.323-.29 1.89-.548 1.261-.737-1.798-4.373-.335-4.373 1.761 0 1.035-.45 1.883-1 1.883s-1 .675-1 1.5-.337 1.537-.75 1.581c-4.93.534-6.25.361-5.818-.765.264-.689.101-1.486-.362-1.773-.463-.286-1.149.487-1.524 1.718-.413 1.359-.883 1.748-1.197.989-.59-1.43-3.349-1.713-3.349-.344 0 .499-.938.661-2.085.362-1.584-.415-1.764-.748-.75-1.391.948-.601.651-.851-1.022-.862-1.735-.011-2.197-.432-1.75-1.597.334-.87.607-2.064.607-2.653s.903-.03 2.006 1.242c1.104 1.273 2.341 1.976 2.75 1.564.409-.413-.606-1.833-2.256-3.156-3.019-2.42-5.099-3.193-4.057-1.507.308.499.156 1.961-.338 3.25l-.899 2.342-1.103-2.815c-.607-1.548-1.103-3.222-1.103-3.719 0-.497-.578-.681-1.285-.41-.77.296-1.348-.34-1.442-1.585-.086-1.143.492-2.327 1.285-2.632.793-.304 1.442-.941 1.442-1.415 0-.473-.727-.582-1.616-.241-1.373.527-1.445.299-.477-1.508 1.178-2.202 4.97-4.779 6.417-4.363.454.131.497-.293.096-.942-.457-.739-.298-.913.425-.465.771.476 1.155-.242 1.155-2.155 0-4.42-8.803-4.461-12.508-.058-2.936 3.489-3.051 4.564-.832 7.733 1.633 2.331 1.617 2.361-1 1.861-1.463-.28-2.66-.085-2.66.432 0 .518-1.292.657-2.871.31-2.645-.581-2.833-.433-2.39 1.885.406 2.126.155 2.452-1.629 2.108-1.296-.249-2.11.109-2.11.929 0 .735-.675 1.595-1.5 1.912-1.666.639-2.076-.888-.5-1.862.55-.34.986-1.604.968-2.809-.031-2.119-.079-2.129-1.468-.294-.79 1.044-1.199 2.281-.909 2.75.29.469.05.853-.532.853-.582 0-1.059-.45-1.059-1s-1.125-1-2.5-1c-2.33 0-3.179 1.702-2.618 5.25.222 1.406-1.058.754-2.944-1.5l-1.883-2.25.191 2.75c.152 2.198.698 2.768 2.722 2.84 2.254.08 2.171.194-.754 1.038-1.807.521-3.049 1.33-2.761 1.797.289.466-.105 1.371-.875 2.01-.958.796-1.604.831-2.048.114-.356-.577-1.521-1.049-2.589-1.049-3.055 0-2.758-6.739.35-7.921 3.544-1.347 5.447-4.005 3.658-5.11-1.207-.746-1.219-1.377-.084-4.174 2.616-6.445 2.557-7.472-.471-8.232-2.178-.547-2.472-.901-1.342-1.616.946-.599-1.417-.922-6.81-.932L295.984 17l-1.556 3.89c-1.272 3.178-1.956 3.802-3.742 3.413-1.599-.349-1.822-.218-.829.485.988.701 1.044 1.155.206 1.673-1.203.743-4.307-1.218-3.68-2.324.199-.35-.55-1.537-1.664-2.637-1.73-1.708-1.935-1.745-1.404-.25.348.977.141 1.75-.469 1.75-.777 0-.77.387.023 1.342.612.738.818 1.638.456 2-.362.362-.196.658.37.658.565 0 .806 1.158.536 2.574-.399 2.084-.142 2.512 1.352 2.25 1.125-.198 1.985.359 2.204 1.426.221 1.078-.245 1.75-1.214 1.75-.865 0-1.573-.477-1.573-1.059s-.481-.762-1.068-.399c-.588.363-.854 1.218-.593 1.9.685 1.783-.907 3.943-2.28 3.094-.641-.395-.992-1.237-.781-1.869.67-2.012-2.279-4.271-3.369-2.579-.778 1.209-1.044 1.201-1.852-.054-.604-.941-.564-1.923.112-2.738 3.033-3.655-2.381-5.118-10.088-2.725-2.038.633-2.313.475-1.745-1.003 1.551-4.043 1.772-6.499.754-8.4-1.03-1.924-2.053-2.019-22.067-2.04-11.544-.013-20.943.291-20.887.674.274 1.895-.262 2.547-1.059 1.288-1.128-1.781-11.531-2.782-12.507-1.203-.378.612-1.614 1.113-2.746 1.113-1.596 0-1.934.469-1.509 2.096.62 2.371-.099 4.904-1.391 4.904-.473 0-.602-.675-.286-1.5.317-.825.127-1.5-.423-1.5-.549 0-1.285 1.141-1.635 2.535-.356 1.421-1.726 2.95-3.115 3.478-1.364.519-2.364 1.299-2.222 1.734.385 1.186-4.04 6.495-4.953 5.942-.434-.264-1.37.149-2.079.916-1.06 1.146-1.025 1.395.191 1.395 3.033 0 2.392 1.682-.693 1.817-6.259.273-8.421.698-9.929 1.95-.84.697-2.277.98-3.194.628-.917-.352-1.596-.248-1.508.232.569 3.121-.193 4.01-3.078 3.586-1.702-.25-3 .013-3 .606 0 .575-.877 1.325-1.949 1.665-1.12.355-1.725 1.202-1.423 1.99.46 1.199-2.772 5.526-4.128 5.526-1.174 0-4.5-4.134-4.5-5.594 0-.876.938-1.839 2.085-2.138 1.146-.3 1.671-.821 1.165-1.157-1.482-.986.586-7.111 2.401-7.111 1.371 0 1.402.236.221 1.687-1.194 1.469-1.156 1.607.295 1.063.993-.371 1.89-.043 2.219.813.303.79 1.07 1.437 1.705 1.437.864 0 .859-.355-.017-1.411-.801-.965-.839-1.616-.123-2.059 1.52-.939 3.277.435 2.649 2.071-.31.807.084 1.399.931 1.399 1.678 0 1.835-.873.529-2.937-.604-.954-.262-2.706 1.015-5.21 3.032-5.944 2.649-7.123-2.134-6.571-3.266.378-3.95.184-3.5-.99.802-2.088-1.571-1.075-2.87 1.225-1.317 2.335-3.234 4.483-4 4.483-1.054 0-.584-3.587.629-4.8.66-.66.869-1.2.465-1.2-.405 0-.31-.794.209-1.764 1.661-3.103-.757-4.859-6.374-4.628-6.615.271-6.5.247-6.5 1.361 0 .532.747.681 1.661.331 1.333-.512 1.543-.189 1.067 1.632-.326 1.248-.066 3.426.578 4.839.89 1.955.892 2.663.005 2.959-.731.243-.963 1.637-.623 3.732.698 4.307-2.467 6.616-5.252 3.831-1.358-1.358-1.427-1.796-.338-2.159 2.095-.698 4.31-3.134 2.851-3.134-.914 0-.92-.33-.023-1.411.801-.965.839-1.616.123-2.059-.577-.356-1.049-1.473-1.049-2.482 0-2.122-2.101-3.221-3.961-2.072-.998.617-.933.984.296 1.672 1.086.608 1.291 1.338.661 2.358-.727 1.177-1.166 1.224-2.154.236-1.677-1.677-5.777-1.576-6.443.159-.295.771-1.465 1.644-2.598 1.941-1.364.357-1.859 1.066-1.462 2.098.329.858.176 1.56-.339 1.56s-.678.675-.362 1.5c.317.825 1.203 1.5 1.969 1.5s1.393.466 1.393 1.035c0 .7.65.687 2.009-.04 1.717-.918 2.155-.695 3 1.53.545 1.433.991 2.77.991 2.972 0 .648-4.538-.093-5.962-.974-1.022-.631-1.213-.421-.739.813.351.915.161 1.664-.423 1.664-.583 0-2.222.913-3.641 2.03-1.921 1.511-2.773 1.717-3.336.807-.578-.935-1.343-.956-3.251-.086-2.605 1.187-3.704.574-4.935-2.751-.305-.825-.635.3-.734 2.5-.151 3.398-.286 3.624-.89 1.5-.684-2.402-.753-2.421-1.759-.5-1.475 2.814-2.328 7.914-1.514 9.047.376.524 2.61.975 4.963 1.003 3.751.043 4.244-.204 4-2-.215-1.579.353-2.123 2.471-2.366 1.513-.174 2.75-.709 2.75-1.188 0-.48.9-.804 2-.721 1.1.083 2 .73 2 1.438 0 1.229-2.404 1.735-6.311 1.329-1-.104-1.73.404-1.631 1.135.559 4.132-.097 5.945-1.94 5.361-1.209-.384-2.1-.026-2.495 1.001-.407 1.061-1.278 1.388-2.589.972-1.861-.591-1.892-.466-.543 2.135.789 1.52 1.257 2.94 1.041 3.156-.872.871-6.537-3.347-6.083-4.529.268-.7.022-1.273-.548-1.273-.57 0-.804-.788-.522-1.75 1.885-6.415 1.807-9.056-.286-9.72-1.151-.366-2.093-1.336-2.093-2.156 0-.821.45-1.214 1-.874 1.538.951 1.186-.637-.573-2.581-1.443-1.594-1.401-1.792.5-2.396 1.14-.362 2.142-1.19 2.225-1.84.084-.651.208-1.633.277-2.183.068-.55.476-1.562.906-2.25.431-.687.497-1.25.147-1.25-.349 0 .702-1.125 2.336-2.5s3.442-2.5 4.017-2.5c.576 0 1.369-.521 1.762-1.158.491-.793.037-.98-1.441-.593-1.186.31-2.156.156-2.156-.343 0-.498.45-.906 1-.906 2.533 0 .648-1.512-2.002-1.606-2.48-.089-3.02.3-3.123 2.25-.184 3.459-.246 3.652-1.972 6.1-1.688 2.393-2.903 2.042-2.903-.837 0-.968.787-1.966 1.75-2.218 1.351-.353 1.251-.483-.441-.573-1.205-.064-2.444-.526-2.754-1.027-.31-.501-1.349-.76-2.309-.576-.96.183-2.084.368-2.496.41-.412.043-.75.677-.75 1.41 0 .734-.675 1.409-1.5 1.5l-3.028.334c-2.183.238-1.211 2.274 1.26 2.64 4.106.607 3.223 11.144-.94 11.215-.711.012-.167.888 1.208 1.946 2.001 1.54 2.251 2.174 1.25 3.178-1.002 1.005-1.25.904-1.25-.505 0-.967-.418-1.501-.928-1.185-.51.315-1.222-.352-1.581-1.483-.479-1.51-1.185-1.888-2.657-1.42-1.776.563-1.877.396-.885-1.458.617-1.152 2.006-2.095 3.086-2.095C92.116 48 93 47.502 93 46.893s-.661-.853-1.468-.544c-.807.31-1.723.151-2.035-.354-.34-.549-1.66-.503-3.282.114-1.493.567-2.94.939-3.215.825-.275-.114-.944.754-1.487 1.929C80.97 50.039 79.99 51 79.334 51c-.655 0-1.899.708-2.764 1.573-2.182 2.182-4.955 1.391-5.562-1.585-.28-1.368-1.104-2.612-1.832-2.763-.793-.164-1.032.199-.596.905.457.739.298.913-.425.465-.685-.422-1.155-.078-1.155.846 0 .857-.45 1.559-1 1.559s-1-.675-1-1.5-.562-1.514-1.25-1.532c-.826-.021-.711-.445.338-1.25.873-.67 1.41-1.745 1.193-2.389-.252-.746.352-.976 1.662-.634 1.131.296 2.057.936 2.057 1.422 0 .485.45.883 1 .883s1-1.139 1-2.531c0-1.393.672-2.79 1.493-3.105 1.011-.387 1.299-1.346.891-2.968-.447-1.784-.19-2.396 1.008-2.396 3.346 0 1.535-2.596-1.976-2.833-2.839-.191-3.691.168-4.098 1.727C67.67 37.371 65 38.54 65 36.346c0-1.337-.252-1.381-1.581-.279-1.41 1.17-1.511.886-.94-2.627l.641-3.94-2.555 3c-1.405 1.65-2.557 2.452-2.56 1.781-.003-.705-.679-.96-1.606-.604-.88.338-1.955.041-2.388-.659C52.935 31.276 51 32.656 51 35.166c0 1.41-.468 1.869-1.5 1.472-.825-.316-1.5-.049-1.5.593 0 .886-.281.888-1.158.011-.876-.876-.858-1.518.076-2.643 1.027-1.237.886-1.46-.842-1.33-1.142.086-2.076.436-2.076.777s-.694.621-1.543.621c-1.174 0-1.394-.678-.92-2.834.383-1.745.207-2.833-.458-2.833-1.188 0-1.252.366-1.25 7.25.001 6.989-1.595 5.786-1.99-1.5-.541-9.984.097-15.22 1.605-13.158 1.136 1.554 1.284 1.558 1.864.048.407-1.061.111-1.64-.839-1.64-3.043 0-1.316-1.849 2.281-2.444 6.498-1.074 18.205-1.375 77.25-1.982 31.625-.326 66.05-.807 76.5-1.069 10.45-.262 48.599-.771 84.776-1.131 36.177-.361 65.571-.861 65.32-1.111-.504-.504-245.533-.917-295.846-.499M375 49.904c-1.925.999-6.535 2.087-10.244 2.418-3.71.331-7.69 1.108-8.846 1.726-1.515.811-3.816.836-8.255.091C340.828 52.992 336 53.56 336 55.51c0 2.591-6.416 3.454-7.362.99-.891-2.323-7.853-1.986-9.377.454-1.739 2.784-.612 3.086 9.887 2.644 10.009-.421 12.675-1.07 14.521-3.536 1.045-1.395 1.419-1.343 3.5.484C349.843 58.892 361 60.092 361 58.033c0-.633.337-.946.75-.696.658.4 8.085-.912 16.538-2.922 1.653-.393 3.395-1.834 4.276-3.539 1.467-2.837 1.45-2.875-1.288-2.832-1.527.025-4.351.862-6.276 1.86m-10.824 11.667c-.914 1.524-6.176 2.759-6.176 1.448 0-.56.525-1.019 1.167-1.019.641 0 .868-.298.504-.663-.806-.806-8.643 2.82-8.66 4.007-.006.464.845 1.067 1.89 1.34 3.103.812 3.655 10.316.599 10.316-.707 0-1.559.712-1.893 1.582-.978 2.549-.709 3.394.887 2.782 1.41-.541 3.772 3.275 2.926 4.73-.458.788 6.471.348 7.282-.463C364.334 84 371 85.006 371 86.883c0 1.984-5.194 3.795-5.833 2.035-.903-2.485-3.086-.762-2.533 2 .79 3.95-2.176 8.008-5.884 8.051-1.512.017-2.75.511-2.75 1.097 0 2.051 2.084 4.934 3.567 4.934.822 0 1.759.686 2.081 1.526.413 1.076.946 1.226 1.811.508.674-.559 1.483-.759 1.797-.444.315.314 1.442.107 2.505-.462 1.37-.733 2.268-.699 3.086.119.644.644 1.153.718 1.153.167 0-.542.9-.985 2-.985 2.359 0 2.655 1.383.474 2.219-1.176.452-1.262.902-.377 1.969.631.761.755 1.398.275 1.416-.479.019.187.916 1.482 1.995 1.295 1.079 2.726 1.731 3.181 1.45.455-.281 1.109-.053 1.455.506 1.153 1.865 2.51 1.046 2.51-1.515 0-1.393-.675-2.791-1.5-3.107-.825-.317-1.5-.964-1.5-1.438 0-.473.621-.623 1.381-.331 2.298.882 3.817-4.967 1.811-6.973-1.131-1.13-1.236-1.62-.347-1.62.7 0 .988-.461.64-1.024-.97-1.57.508-6.956 1.839-6.701.647.124 1.454 1.575 1.794 3.225.571 2.771.628 2.694.735-1 .064-2.2-.32-4.675-.853-5.5-.646-1-.974-1.083-.985-.25-.023 1.89-1.821 1.497-2.202-.481-.208-1.081-1.267-1.738-2.823-1.75-1.814-.014-2.577-.63-2.81-2.269-.175-1.237.162-2.25.75-2.25.589 0 1.07.675 1.07 1.5s.45 1.5 1 1.5c1.786 0 1.106-4.825-.75-5.321-1.544-.412-1.508-.546.306-1.139 4.417-1.443 5.194-12.038.883-12.042-2.661-.002-3.055-3.168-.496-3.98 1.131-.359 2.868-.395 3.859-.081.992.315 2.575.008 3.518-.682 1.413-1.034-.33-1.26-9.876-1.283-7.565-.019-11.827.363-12.268 1.099M156.197 74.643c-1.564 1.662-.38 2.344 2.921 1.683 1.81-.362 2.882-.157 2.882.549 0 .619.952 1.125 2.117 1.125 1.611 0 1.994.469 1.603 1.963-.283 1.08.115 2.485.883 3.123 1.923 1.595 1.751 3.846-.353 4.622-.963.356-2.063 1.116-2.446 1.69-.382.574-1.027.712-1.433.306-.406-.405-.24-1.235.368-1.843.607-.607.849-1.77.537-2.584-.312-.813-.09-1.774.493-2.134.716-.443.606-1.277-.338-2.569-1.361-1.861-1.455-1.863-3.439-.067-1.337 1.21-1.661 2.079-.942 2.524.759.469.653 1.123-.344 2.12-.793.793-1.757 2.434-2.141 3.646-.385 1.211-1.028 2.203-1.429 2.203-.981 0-.83 4.176.21 5.799.682 1.064 1.114 1.064 2.397 0 .86-.715 1.833-1.192 2.161-1.06.328.131.657-.319.731-1 .074-.682.186-1.759.25-2.395.064-.649.993-.927 2.115-.634 1.162.304 2 .031 2-.652 0-.647.409-.923.91-.614 2.048 1.266 4.079-.637 3.52-3.298-.518-2.463-.468-2.508.718-.646.701 1.1 1.356 2.505 1.456 3.121.297 1.836 3.552 6.379 4.57 6.379.519 0 .666-.45.326-1s.271-1 1.358-1c1.086 0 2.182.563 2.434 1.25.366 1 .723 1 1.783 0 .729-.687 2.21-1.25 3.292-1.25 1.081 0 1.672-.294 1.313-.653-.359-.36.277-2.16 1.415-4 1.137-1.841 1.694-3.414 1.237-3.495-.458-.081-1.732-.194-2.832-.25-1.406-.072-2.094-.918-2.316-2.852-.174-1.513-.737-2.75-1.25-2.75-1.276 0-4.934 3.751-4.934 5.059 0 .582-.414.803-.919.491-.506-.313-1.526.038-2.267.778-1.129 1.13-1.78.907-4.029-1.375-1.476-1.497-2.417-2.988-2.091-3.313.325-.326.025-1.274-.667-2.108-1.094-1.317-.727-1.48 2.804-1.243 2.235.149 4.387.595 4.783.991 1.223 1.224 2.352.794 1.786-.679-.573-1.494 8.734-2.755 10.819-1.466.565.349 1.868-.085 2.895-.965 2.731-2.338.118-3.457-5.253-2.25-2.339.526-4.728.646-5.307.268-1.829-1.194-23.18-.794-24.357.455M109 76c-.825.533-2.625.983-4 1-1.983.024-2.19.231-1 1 1.428.923 1.31 1.086-1 1.375-2.084.26-.395 2.116 1.75 1.922 1.777-.16 2.25.313 2.25 2.25 0 2.608-4.412 3.716-5.214 1.31-.286-.856-.927-.852-2.547.015-1.307.7-1.939 1.746-1.595 2.643.314.817.036 1.485-.616 1.485-1.69 0-.203 6.149 1.853 7.664 1.49 1.098 1.488 1.244-.02 1.829-1.875.727-1.416 4.08.667 4.879.915.351 1.107 1.346.615 3.184-1.407 5.261-.222 9.431 2.716 9.56 2.071.091 2.209.22.641.597-3.632.874-4.301 2.608-.75 1.944 1.983-.37 3.25-.199 3.25.439 0 .576.679 1.726 1.509 2.556.83.83 1.248 1.933.928 2.45-.32.518-1.337.035-2.259-1.072-.923-1.107-2.803-2.129-4.178-2.272-2.457-.254-2.502-.13-2.632 7.242-.079 4.435.439 8.894 1.266 10.911 1.42 3.465 1.002 6.918-1.019 8.415-.705.523-.748.982-.115 1.249.55.233.947 2.111.883 4.174-.064 2.063.24 4.706.677 5.874.439 1.174.374 2.543-.146 3.063-1.167 1.167-.009 7.491 1.233 6.723.496-.307.838-.187.759.267-.462 2.661.128 3.433 1.543 2.017 1.595-1.594 1.524-7.307-.087-7.002-1.465.278-1.094-6.573.388-7.145 1.78-.688 1.548-3.218-.363-3.951-1.299-.498-1.374-.905-.388-2.094.674-.812.968-2.144.654-2.962-.317-.826.189-1.934 1.139-2.494 1.157-.683 1.353-1.256.607-1.777-2.061-1.438-2.208-5.906-.234-7.139 1.842-1.151 2.384-.154 1.927 3.546-.08.646.297 1.448.838 1.782.54.334.729 1.268.419 2.075-.351.915.042 1.468 1.044 1.468.884 0 1.607-.499 1.607-1.108 0-.669.946-.871 2.386-.51 1.886.474 2.518.13 3.016-1.642.612-2.177.662-2.185 1.779-.284 1.075 1.831 1.188 1.842 1.774.173.542-1.547.815-1.428 2.058.895 1.281 2.394 1.25 2.81-.29 3.937-2.19 1.601-2.23 2.671-.068 1.841 1.96-.752-.594 4.196-4.191 8.119-1.961 2.139-2.828 6.579-1.285 6.579.413 0 1.282-1.012 1.932-2.25.65-1.238 3.141-4.843 5.535-8.011 2.395-3.169 4.354-6.431 4.354-7.25s.707-1.489 1.571-1.489c.865 0 2.319-.747 3.233-1.661 1.548-1.548 1.476-1.626-1.05-1.143-2.043.391-2.855.062-3.299-1.339-.325-1.021-.914-1.857-1.31-1.857s-.825-1.383-.954-3.072c-.146-1.916.157-2.831.804-2.431.571.353.731 1.137.357 1.742-.431.698-.098.878.911.49.875-.335 2.093-.005 2.708.736 1.521 1.833 4.224 1.281 5.138-1.05 1.072-2.736 1.039-3.624-.109-2.915-.55.34-1-.11-1-1s.45-1.34 1-1c.55.34 1.053-.196 1.118-1.191.153-2.334.164-2.19-.503-6.455-.4-2.554-.128-4.013.907-4.872 1.646-1.367 2.048-3.452.478-2.482-1.242.767-1.256-.12-.07-4.257.574-2 .574-3.243 0-3.243-.511 0-.93-1.527-.93-3.393 0-3.375 2.032-5.323 4.172-4.001.545.337.902-.224.794-1.247-.555-5.249-.028-6.611 2.284-5.912 3.878 1.174 5.259 1.098 4.975-.271-.151-.729.126-1.077.616-.774.49.303.792-1.216.67-3.374-.144-2.547.254-4.108 1.134-4.445 1.797-.69 1.74-2.583-.078-2.583-.788 0-1.729-.934-2.091-2.075-.755-2.379-1.782-1.815-1.996 1.095-.088 1.195.482 1.986 1.437 1.995 1.361.013 1.377.146.117.943-1.626 1.029-4.149-.475-3.929-2.341.441-3.738-.101-4.865-1.702-3.537-1.346 1.117-1.745 1.06-2.541-.363-.992-1.772-2.454-1.896-12.147-1.029-4.791.428-5.695.8-5.263 2.164.382 1.204-.138 1.686-1.929 1.79-1.348.078-2.355-.316-2.237-.875.118-.559-.349-1.223-1.037-1.476-.804-.294-1.032.111-.638 1.137.8 2.086-2.417.991-4.728-1.609-1.828-2.056-2.734-2.208-4.883-.819m-18.191 1.518c-.38.383-4.804.708-9.832.722-6.874.018-9.274.37-9.676 1.418-.401 1.044-.87 1.114-1.874.281-.737-.611-1.728-.871-2.203-.577-.892.551-5.387 1.63-8.49 2.037-.971.128-2.298.765-2.95 1.417C55.133 83.467 54.015 84 53.3 84c-.715 0-1.3.421-1.3.935s-.509 2.202-1.131 3.75c-1.477 3.674-1.782 5.858-2.478 17.706l-.58 9.892 2.344-.692c5.503-1.625 8.07-1.766 7.617-.418-.25.743-1.528 1.197-2.905 1.032-2.428-.291-7.38 2.949-6.244 4.085 1.182 1.182 1.219 12.189.044 13.028-.869.621-.875.955-.023 1.306.629.26.926 1.304.66 2.322-.266 1.017.003 2.759.598 3.871.81 1.513.77 2.127-.16 2.44-.962.324-.933.792.13 2.08 1.164 1.41 1.164 1.665 0 1.678-1.078.012-1.05.224.128.985.863.558 1.003.976.331.985-.855.011-.908.962-.2 3.528.534 1.933.747 3.875.475 4.315-.272.441.197 3.163 1.042 6.048 1.539 5.247 1.151 10.736-.677 9.606-.534-.33-.971-.172-.971.352s.722 1.229 1.604 1.567c.896.345 1.357 1.259 1.043 2.075-.308.803-.129 1.726.397 2.051.526.325.956 1.491.956 2.591s.45 1.722 1 1.382c.905-.559 1.371 1.774 1.349 6.75-.004.963.396 1.75.889 1.75s.623.862.289 1.916c-.335 1.054-.092 2.235.539 2.625.832.514.775.949-.209 1.584-1.04.671-.832 1.019.893 1.492 2.303.631 3.14 2.383 1.139 2.383-.733 0-.884 1.216-.443 3.564l.669 3.564-3.799-.314c-4.108-.34-5.963-3.248-2.623-4.114 1.351-.35 1.204-.497-.583-.584-3.758-.182-5.218-2.923-3.608-6.775.73-1.748 1.165-3.341.966-3.54-.199-.199-.613-1.787-.92-3.53-.307-1.742-.977-4.27-1.489-5.617-.512-1.346-.66-2.72-.328-3.051.331-.332.063-.603-.596-.603s-1.471.713-1.806 1.584c-.489 1.275-.772 1.324-1.453.25-.465-.734-.852-.867-.861-.297-.008.571-1.406 1.144-3.106 1.273-2.133.163-2.958-.159-2.662-1.037.236-.7 1.515-1.325 2.841-1.388 1.327-.063 3.2-.448 4.162-.857.962-.408 2.425-.483 3.25-.166 1.69.648 2.065-.895.459-1.887-.572-.354-.779-1.468-.459-2.475.32-1.007.113-2.121-.459-2.475-.573-.354-1.041-1.479-1.041-2.501 0-1.021-.562-2.086-1.25-2.365-.943-.382-.963-.712-.079-1.343 1.635-1.168 2.696-5.963 1.783-8.064-.773-1.78-1.029-2.763-1.302-5.002-.083-.687-.698-1.137-1.365-1-.668.138-1.674-.762-2.238-2-.563-1.238-1.367-2.25-1.786-2.25-1.313 0-.831-2.998.487-3.03.688-.017.438-.503-.555-1.081-1.427-.83-1.558-1.349-.628-2.47.648-.78.748-1.419.223-1.419-1.467 0-3.281-11.24-2.058-12.75.727-.897.58-1.25-.517-1.25-2.213 0-2.853 10.81-.715 12.061 1.306.765 1.293.882-.096.909-1.32.025-1.616 1.456-1.714 8.28-.231 16.136-1.054 40.319-1.523 44.75-1.458 13.762-3.446 115.685-2.732 140 .041 1.375-.197 4.863-.527 7.75-.402 3.507-.237 5.25.495 5.25 1.372 0 1.451 3.663.097 4.5-.55.34-.968 2.504-.93 4.809.055 3.258.262 3.746.93 2.191.72-1.675.9-1.432 1.112 1.5.486 6.723 1.624-35.76 1.807-67.5.171-29.395.314-31.817 1.755-29.75C36.245 263.002 40 263.883 40 262c0-.55-.505-1-1.122-1-.776 0-.738-.464.122-1.5s.898-1.5.122-1.5c-.617 0-1.122-1.158-1.122-2.573 0-1.902.452-2.487 1.731-2.24 1.081.208 1.738 1.267 1.75 2.823.013 1.737.511 2.41 1.647 2.224 1.731-.282 4.86 5.108 4.887 8.417.012 1.419.216 1.533.875.492.6-.946 1.067-1.021 1.544-.25.376.609.181 1.107-.434 1.107s-.835.457-.49 1.016c.346.559 1.05.756 1.566.437s1.211.132 1.545 1.001c.334.87 1.343 1.461 2.243 1.314 1.357-.222 1.609.627 1.477 4.982-.087 2.887.282 5.25.822 5.25.539 0 .298.681-.535 1.514-1.195 1.196-1.295 2.143-.473 4.5 1.352 3.878 2.267 3.844 1.487-.054l-.608-3.041 5.916.553c3.53.33 6.169.144 6.542-.46.344-.556-.188-1.019-1.183-1.027-1.534-.013-1.581-.163-.309-.985 1.282-.828 1.246-.972-.25-.985-.963-.008-1.75-.465-1.75-1.015 0-.55.645-1 1.433-1 1.843 0 3.093-3.874 1.699-5.268-.755-.755-1.262-.556-1.738.685-.532 1.384-.849 1.471-1.518.417-.647-1.022-.849-.924-.861.416-.008.962-.353 1.743-.765 1.735-1.94-.04-3.199-1.837-3.172-4.529.016-1.626-.182-4.081-.441-5.456s-.508-3.288-.554-4.25c-.046-.962-.758-1.75-1.583-1.75s-1.556-.45-1.625-1c-.249-1.989-.419-2.521-1.199-3.75-.447-.704-.345-1.25.234-1.25.565 0 .743-.788.396-1.75-1.04-2.886 4.299 3.237 5.821 6.675.749 1.691 2.012 3.075 2.808 3.075 1.051 0 .915.425-.494 1.552-1.895 1.515-1.89 1.538.225.959 1.232-.337 2.492-.065 2.922.632.538.87.953.666 1.433-.703.593-1.692.886-1.52 2.401 1.41.949 1.835 1.95 3.111 2.225 2.836.275-.275-.236-1.924-1.136-3.665-1.752-3.388-.799-6.021 2.179-6.021.953 0 1.244-.632.855-1.859-.689-2.17.248-5.141 1.621-5.141.524 0 .683.435.354.967-.329.532.32 1.541 1.441 2.241 1.122.7 2.039 1.802 2.039 2.449 0 .647.563 1.38 1.25 1.629.99.359.977.914-.063 2.671-1.206 2.037-1.145 2.164.75 1.563 1.204-.382 2.063-.211 2.063.413 0 .587.462 1.067 1.028 1.067.642 0 .813-1.873.456-5-.558-4.881-.143-5.62 2.86-5.087.464.082.633-.427.375-1.132-.258-.704-.975-1.168-1.594-1.031-.619.138-1.125-.2-1.125-.75s-.9-1-2-1c-3.807 0-1.782-3.087 2.457-3.746 3.094-.481 3.61-2.46 1.225-4.703-1.381-1.297-2.169-3.223-2.147-5.241.024-2.239-.498-3.329-1.75-3.656-2.442-.639-2.291-3.654.183-3.654 2.494 0 1.301-4.197-1.302-4.578-1.626-.239-1.883.537-2.087 6.309-.104 2.942-1.984 2.988-2.42.059-.188-1.26-.907-2.965-1.598-3.79-.691-.825-1.561-2.352-1.933-3.393-.371-1.041-.932-1.636-1.247-1.322-.92.921.649 6.602 2.272 8.225.819.82 1.008 1.49.418 1.49-.589 0-1.072.787-1.072 1.75-.001 1.359-.56 1.101-2.5-1.156-1.375-1.598-2.499-3.905-2.499-5.127 0-2.669-1.801-4.335-5.08-4.699-1.331-.147-2.751-.718-3.155-1.268-.459-.625-.787-.531-.875.25-.077.688-.252 1.7-.39 2.25s-.306 1.342-.375 1.759c-.069.418-1.025 1.322-2.125 2.009-1.779 1.111-1.998.999-1.985-1.01.013-1.854.2-1.99 1.044-.758.817 1.193.968 1.007.734-.909-.356-2.925-3.739-3.759-5.543-1.366-.706.936-1.25 1.139-1.25.466 0-.655-1.088-1.191-2.417-1.191-1.329 0-2.602-.558-2.83-1.241-.548-1.643-3.391 1.124-3.907 3.8-.203 1.055-1.203 2.079-2.223 2.275-1.214.234-1.688-.107-1.373-.988.264-.741.09-2.104-.385-3.031-.519-1.01-.417-2.811.254-4.5.624-1.569 1.325-2.262 1.584-1.565.653 1.759 4.964 1.56 5.663-.261.319-.831.311-2.856-.018-4.5-.468-2.338-.244-2.989 1.027-2.989 1.024 0 1.625.842 1.625 2.278 0 3.81 3.23 5.569 11.624 6.329 7.321.664 7.668.603 6.913-1.204-.437-1.047-1.013-2.91-1.28-4.141-.267-1.231-.836-2.022-1.265-1.757-.882.545-2.373-4.458-1.568-5.262.287-.287 2.114.692 4.059 2.176l3.538 2.699.84-2.272.841-2.272 1.117 2.088c.615 1.148 1.414 3.944 1.777 6.213.592 3.699.95 4.125 3.473 4.125 1.547 0 3.105-.472 3.461-1.049.443-.716 1.094-.678 2.059.123 1.014.842 1.411.855 1.411.048 0-.617-.408-1.122-.906-1.122-.499 0-.685-.849-.413-1.887.271-1.038.004-2.19-.594-2.559-.598-.37-1.087-1.545-1.087-2.613 0-1.879.058-1.883 1.826-.115 1.005 1.005 2.116 2.58 2.469 3.5.949 2.475 2.881 2.033 2.518-.576-.273-1.96.106-2.231 2.937-2.103 3.375.154 4.594-1.917 1.767-3.002-.907-.348-1.234-1.22-.841-2.244.447-1.163.213-1.53-.767-1.201-.775.26-1.414 1.204-1.421 2.098-.006.894-.63 2.205-1.386 2.914-1.147 1.075-1.28.9-.806-1.058.715-2.957-.096-5.154-1.903-5.154-.766 0-1.393-.477-1.393-1.059s.45-.781 1-.441 1 .156 1-.41c0-.565.736-.745 1.636-.399 1.131.434 1.484.192 1.143-.782-.272-.775-1.233-1.346-2.137-1.27-2.035.172-2.068-.356-.142-2.282 1.333-1.333 1.504-1.297 1.539.322.036 1.646 2.852-3.576 3.333-6.179.101-.55.536-1.562.965-2.25.44-.705.319-1.25-.278-1.25-.582 0-1.059.54-1.059 1.2 0 .881-.296.904-1.113.087-1.516-1.516-.294-3.206 1.902-2.632 2.257.59 2.365-6.296.126-8.048-.778-.609-1.275-2.317-1.104-3.796.196-1.701-.447-3.447-1.75-4.75-1.134-1.134-2.093-1.723-2.131-1.311-.157 1.673-1.793-3.43-1.844-5.75-.044-1.97.15-2.182.914-1 .824 1.275.972 1.232.985-.289.012-1.441.273-1.549 1.339-.553.728.68 1.125 2.272.883 3.539-.495 2.588 1.248 3.166 2.185.724.793-2.066-.378-9.294-1.63-10.068-.577-.357-.425-.943.373-1.436 1.045-.647 1.08-1.102.153-2.029-.808-.808-.886-1.77-.241-2.976.627-1.172.56-2.744-.196-4.597C90.56 143.153 90.102 135 91.214 135c.398 0 .464-.675.148-1.5-.317-.825-.046-1.5.602-1.5.724 0 .553-.625-.44-1.619-1.492-1.492-1.485-1.766.084-3.5.936-1.034 1.231-1.881.655-1.881-.575 0-1.329-1.125-1.674-2.5-.648-2.584-2.01-3.245-3.089-1.5-.971 1.572-3.5 1.168-3.5-.559 0-.857-.45-1.281-1-.941-.55.34-1-.11-1-1s.419-1.359.931-1.043c.512.317 1.23.092 1.595-.5.366-.591 1.85-.936 3.298-.766 2.368.278 2.698-.092 3.287-3.685.359-2.197.285-4.964-.165-6.148-.45-1.184-.664-2.311-.476-2.505.404-.417 1.617-6.49 1.868-9.353.096-1.1.536-2.562.978-3.25.484-.754.32-1.25-.412-1.25-.753 0-.527-.759.596-2 .995-1.1 1.363-2 .816-2s-.914-1.35-.816-3c.098-1.65-.166-3-.587-3-.422 0-.912-.715-1.09-1.59-.178-.874-.634-1.276-1.014-.892m174.224 36.449c-2.907 2.907-2.257 4.109 3.018 5.57 2.447.678 6.864 2.165 9.815 3.304 2.951 1.139 7.451 2.348 10 2.687 6.014.8 9.609 2.21 15.134 5.937 4.634 3.125 10.266 5.493 13.128 5.52.895.008 2.177.678 2.85 1.489.673.81 2.865 1.778 4.872 2.152 2.008.373 4.238 1.51 4.957 2.526.718 1.016 1.901 1.848 2.627 1.848.727 0 1.881.675 2.566 1.5 2.651 3.195 3.727 1.543 1.983-3.044-.823-2.166-1.286-2.449-2.442-1.49-1.14.946-1.873.667-3.663-1.392-1.231-1.416-2.847-2.574-3.59-2.574-1.95 0-2.524-2.249-1.357-5.319 1.558-4.097.116-6.697-1.536-2.769-1.619 3.852-3.906 4.841-6.261 2.709-.985-.891-3.059-1.621-4.608-1.621-2.885 0-15.849-5.743-20.774-9.203-1.743-1.224-4.921-2.063-8.683-2.293-6.488-.396-9.188-1.462-13.223-5.222l-2.655-2.473-2.158 2.158m27.725 82.85c-.604 2.312 1.752 3.692 4.5 2.638.847-.325 1.837-.111 2.2.477.363.587 2.235 1.068 4.16 1.068 1.925 0 3.258.392 2.962.871-1.102 1.782-12.58 3.646-12.58 2.042 0-.502-.45-.913-1-.913s-1 .802-1 1.782c0 1.685 4.495 3.583 10.5 4.435 1.1.155 2.324.733 2.719 1.283.431.6 1.68-.001 3.121-1.5 2.57-2.676 2.182-8.576-.575-8.743-.696-.042-3.628-.726-6.515-1.52-2.887-.794-5.25-1.199-5.25-.899 0 .299-.605-.283-1.345-1.295-1.288-1.762-1.368-1.75-1.897.274M283.71 199c.374 1.429.031 2-1.2 2-1.122 0-1.523-.524-1.148-1.5.316-.825.139-1.5-.393-1.5-.533 0-.969.626-.969 1.392 0 1.891-4.571 2.908-7.067 1.572-2.849-1.525-8.433-.839-8.433 1.036 0 1.115 1.285 1.536 5 1.641 7.457.21 7.498.222 7.532 2.109.03 1.649.107 1.651 1.335.035.724-.954 1.709-1.345 2.218-.88 1.062.969 8.415 2.227 8.415 1.44 0-.291-.856-1.618-1.903-2.949-1.081-1.374-1.679-3.279-1.384-4.408.351-1.341.025-1.988-1.003-1.988-1.03 0-1.354.647-1 2m-178.942 10.28c.377 5.883.156 7.538-1.151 8.623-.889.738-1.61 1.849-1.602 2.469.009.621.434.466.946-.343s1.279-1.122 1.706-.696c.426.427.113 1.24-.696 1.808-1.167.819-1.028.936.668.568 3.996-.867 4.804.99.981 2.252-3.378 1.114-4.981 3.039-2.532 3.039.721 0 .855 1.431.397 4.25-.951 5.849-2.235 6.872-3.712 2.958-1.647-4.362-2.926-4.05-2.221.542.317 2.063.691 5.325.831 7.25.14 1.925 1.011 5.242 1.936 7.372.924 2.13 1.681 4.942 1.681 6.25 0 1.308.398 2.378.883 2.378.486 0 1.109.861 1.384 1.914.912 3.488 6.567 5.615 9.819 3.694 1.509-.891 2.894-1.227 3.079-.746.184.48 1.273 1.165 2.419 1.521 1.714.532 2.054.244 1.915-1.618-.143-1.911-.751-2.27-3.89-2.296-2.046-.017-4.083-.618-4.526-1.335-1.03-1.666-2.108-1.656-3.316.031-.724 1.011-.824.923-.412-.364.356-1.114-.137-1.915-1.432-2.326-5.206-1.652.3-7.015 6.228-6.067 4.448.711 9.836 4.864 7.879 6.073-2.121 1.311 2.861 5.648 5.108 4.445 1.259-.673 1.862-.661 1.862.039 0 .569-.45 1.035-1 1.035s-1 .505-1 1.122c0 .769.394.805 1.25.116.812-.655 2.125-.674 3.75-.054 2.453.936 2.463.98.5 2.351-1.1.768-2.529 1.849-3.176 2.402-.804.686-1.307.618-1.588-.216-.323-.96-.729-.959-1.897.005-.997.822-1.818.895-2.492.221-.674-.674-1.919-.532-3.775.431-2.414 1.253-3.222 1.249-6.288-.033-4.456-1.862-6.527-1.162-5.748 1.942.322 1.282.695 2.979.829 3.772.655 3.866 3.815 8.055 5.848 7.753 3.71-.552 3.22-4.253-.753-5.69-4.497-1.626-2.793-3.703 3.231-3.939 3.378-.132 4.302.219 4.812 1.827.89 2.805 2.338 2.471 3.14-.724.614-2.448.754-2.521 1.431-.75.522 1.366.168 2.47-1.162 3.624-2.633 2.287-2.406 3.435 1.089 5.5 1.651.975 3.267 2.608 3.591 3.629.342 1.077 1.18 1.629 1.998 1.315 1.718-.66 1.843.563.224 2.182-.915.915-1.601.811-3-.455-1.26-1.14-1.814-1.256-1.814-.379 0 .711-.655 1.011-1.5.686-1.78-.683-1.865-.189-.43 2.492.837 1.565 1.37 1.749 2.456.848 1.619-1.343 3.474-.493 3.474 1.593 0 1.11 1.121 1.379 4.75 1.143l4.75-.309.108-3.774c.059-2.075-.503-4.383-1.248-5.128-1.466-1.467-.828-4.503.947-4.503.731 0 .696-.397-.107-1.2-.66-.66-1.2-2.1-1.2-3.2 0-1.6.25-1.75 1.25-.75.688.687 1.287 1.565 1.332 1.95.523 4.497 2.603 7.273 5.704 7.614.433.047 1.26.761 1.837 1.586.815 1.164.922.939.477-1-.315-1.375-.579-2.864-.586-3.309-.008-.445-.576-.485-1.264-.09-.687.396-.96.395-.606-.001.354-.397-.321-1.733-1.5-2.969-1.179-1.236-2.788-3.209-3.576-4.385-.788-1.177-1.753-1.941-2.145-1.698-.603.372-1.923-1.777-1.923-3.13 0-1.389 4.269-.104 4.664 1.404.713 2.728 8.478 7.508 9.624 5.924.623-.862.727-.707.338.504-.38 1.179-.034 1.75 1.061 1.75.893 0 3.099 1.125 4.902 2.5s4.208 2.5 5.344 2.5c1.137 0 2.067.45 2.067 1s1.334 1 2.965 1c1.941 0 3.334.69 4.035 2 .589 1.1 1.955 2 3.035 2 2.178 0 2.674-1.58.715-2.28-2.489-.889.185-1.893 3.249-1.22 2.134.468 2.969 1.141 2.603 2.095-.297.773-.103 1.405.429 1.405.533 0 .969-.975.969-2.167 0-3.387 1.21-1.329 1.389 2.365.144 2.949.506 3.336 3.386 3.615 3.849.374 4.192-.957.725-2.813-1.375-.736-2.5-1.937-2.5-2.669 0-1.852 1.933-1.669 2.671.253.385 1.004.85 1.192 1.269.513.414-.669 1.769-.78 3.611-.294 3.472.915 7.449.449 7.449-.873 0-.511-1.12-.93-2.488-.93-1.984 0-2.44-.456-2.25-2.25.15-1.416-.249-2.149-1.076-1.979-2.934.606-8.966-1.822-9.488-3.819-.424-1.62-1.055-1.9-3.115-1.384-2.615.657-3.731-.938-1.333-1.906.688-.277-.002-.54-1.531-.583-1.53-.043-3.01-.674-3.289-1.4-.325-.848-1.608-1.16-3.579-.87-3.162.464-5.778-1.618-3.67-2.921 1.227-.758.233-2.888-1.347-2.888-.576 0-.789.675-.472 1.5.992 2.587-1.421 1.641-5.037-1.975-1.911-1.911-3.189-3.936-2.841-4.5.349-.564-.068-1.025-.925-1.025-1.993 0-2.038-2.602-.059-3.362.825-.316 1.5-1.714 1.5-3.107 0-1.392.405-2.531.9-2.531s.9 1.545.9 3.434c0 4.256.767 5.566 3.259 5.566 1.068 0 2.797.856 3.842 1.901 1.046 1.046 2.958 2.208 4.25 2.584 2.05.595 1.904.249-1.151-2.72-1.925-1.872-3.764-3.278-4.087-3.125-.323.152-1.562-.406-2.754-1.241-1.799-1.26-1.979-1.868-1.059-3.585.847-1.583.796-2.26-.218-2.887-.728-.45-.975-1.167-.549-1.594.427-.426 1.147-.175 1.6.559.684 1.107.907 1.102 1.309-.029.266-.75.87-1.001 1.342-.559.472.443.196 1.223-.613 1.735-1.234.78-1.189.933.279.946.963.008 1.75-.637 1.75-1.433 0-1.108 1.427-1.441 6.085-1.419 7.962.039 8.611-.799 1.249-1.613-9.081-1.003-11.752-1.644-10.383-2.49.905-.559.827-.901-.305-1.336-.983-.377-1.408-1.576-1.202-3.389.175-1.543-.087-3.313-.584-3.933-.601-.751-.144-1.358 1.369-1.817 1.683-.511 1.883-.827.771-1.222-.825-.293-2.51-1.725-3.745-3.183l-2.245-2.65-.121 3.5c-.067 1.925-.327 2.713-.578 1.75-.505-1.931-1.171-2.125-3.095-.905-.787.5-1.005 1.558-.563 2.735.628 1.672.511 1.749-.902.601-1.229-1-2.124-1.052-3.687-.215-1.628.871-2.064.809-2.064-.293 0-.769-1.349-3.096-2.998-5.171l-2.998-3.772.166 4.231c.096 2.471.72 4.443 1.498 4.742 2.139.821 1.536 4.279-.918 5.266l-2.25.904 2.5.216 3.725.324c.674.06 2.008.892 2.965 1.848 1.652 1.652 1.626 1.739-.508 1.739-3.462 0-9.411-2.813-8.94-4.227.425-1.275-1.614-3.944-2.844-3.723-.371.066-.95-.323-1.286-.865-.337-.542-1.503-1.143-2.591-1.335-1.643-.29-1.975.203-1.953 2.9.015 1.787-.273 3.25-.641 3.25-.758 0-2.257-8.792-2.359-13.83-.041-1.994-.792-3.86-1.871-4.649-1.232-.902-1.414-1.449-.573-1.729 1.968-.656-.13-3.024-2.2-2.482-2.574.673-4.362-1.871-4.096-5.826.123-1.833-.216-3.606-.755-3.939-1.198-.741-5.073 2.423-5.073 4.142 0 .683-.833 1.688-1.85 2.233-2.981 1.595-6.313-3.261-5.992-8.734.23-3.932-.921-6.111-3.258-6.171-.33-.008-.389 3.261-.132 7.265m154.396-.53c-1.004 1.94-.906 16.841.118 17.865.356.356.212 1.461-.32 2.456-.635 1.187-.617 2.024.052 2.437.56.347.796.991.523 1.432-.726 1.175 3.184 5.35 4.341 4.636.541-.335 1.266-.151 1.612.408.345.559.039 1.023-.681 1.031-1.013.012-.993.216.089.901 1.897 1.201 3.935-.839 3.293-3.294-.41-1.568-.106-1.833 1.594-1.389 1.885.494 2.084.151 1.945-3.342-.085-2.14-.461-3.891-.836-3.891-.843 0-2.264 3.132-2.057 4.536.084.569-.745 1.035-1.842 1.035s-1.995-.564-1.995-1.254c0-.704-.658-1.002-1.5-.679-1.025.394-1.5-.057-1.5-1.424 0-2.053 2.47-3.66 4.088-2.659.5.308 1.847-.097 2.994-.9 1.865-1.306 1.913-1.558.455-2.374-.898-.503-2.227-3.471-2.953-6.597L265.263 212h2.44c2.645 0 5.278 2.065 5.329 4.179.058 2.413 2.645 5.105 3.29 3.424.308-.801-.089-1.995-.881-2.652-1.953-1.621-1.818-4.641.259-5.803 1.366-.764.642-1.266-3.681-2.55-7.155-2.124-11.704-2.071-12.855.152m20.384 4.402c.694 2.185.843 8.264.267 10.902-.181.83-2.019 1.705-4.315 2.055-3.464.526-3.696.71-1.734 1.37 1.304.439 2.153 1.445 2 2.369-.146.884.297 1.673.984 1.755.688.081 1.7.203 2.25.272s1 1.115 1 2.325c0 2.552 1.618 1.336 2.153-1.617.609-3.363 2.847-3.054 2.847.393 0 1.728.419 2.883.931 2.567.512-.317 1.213-.118 1.559.441.345.559.151 1.016-.431 1.016s-1.059.48-1.059 1.067c0 .634.864.793 2.125.393 1.43-.454 1.902-.312 1.441.433-.376.609-1.302 1.107-2.058 1.107-1.899 0-2.838 3.515-1.571 5.882.65 1.215.684 2.082.088 2.287-.528.182.151.851 1.508 1.487 2.558 1.199 3.8-.714 1.418-2.186-.729-.451-.723-1.039.018-1.932.586-.707.756-2.09.378-3.075-.447-1.165-.308-1.557.398-1.121.596.369 1.296.105 1.555-.586.33-.88.97-.657 2.137.744 1.644 1.973 1.658 1.969 1.027-.313-.591-2.139-.481-2.214 1.458-1.003 1.154.72 1.656 1.457 1.117 1.636-.579.193-.481.87.24 1.653.851.924 1.6 1.016 2.471.304 1.657-1.355 1.589-2.777-.133-2.777-.761 0-1.571-.787-1.8-1.75-.552-2.319.482-7.688 1.433-7.443.413.106.785-.145.827-.557.083-.808-1.496-1.769-4.39-2.671-1.104-.344-1.522-1.038-1.067-1.773.436-.705.885-.792 1.079-.209.183.549 1.897.815 3.809.592 1.98-.231 3.21-.836 2.859-1.405-.381-.616.196-.74 1.508-.324 1.261.4 2.125.241 2.125-.393 0-.587-.45-1.123-1-1.192-.55-.069-1.45-.238-2-.375s-1.42-.306-1.933-.375c-1.214-.163-2.369-3.827-1.6-5.072.329-.531 1.255-.713 2.059-.405.805.309 1.224.947.933 1.418-1.262 2.042 7.52 5.062 12.353 4.25 2.578-.434 5.476-.687 6.438-.564 2.069.265 2.289-1.06.433-2.6-1.968-1.634-15.788-6.137-18.857-6.145-1.47-.004-5.038-.553-7.929-1.22-4.129-.953-5.342-.952-5.661.006-.224.671-.818.965-1.321.654-1.83-1.13-.86 1.151 1.085 2.553 1.1.793 2 1.696 2 2.008 0 1.031-5.856 1.034-6.493.003-.344-.556.067-1.011.913-1.011 2.327 0-.09-4.676-2.792-5.402-3.415-.916-3.802-.721-3.08 1.554m127.805 15.65c-3.119.228-4.273.786-4.656 2.25-.503 1.921.86 2.474 5.303 2.155.825-.059 5.642-.202 10.705-.318 7.069-.162 9.337-.555 9.773-1.693.313-.815.339-1.713.057-1.994-.583-.584-14.947-.854-21.182-.4m-147.854 9.196c.339.549-.148 2.461-1.083 4.25a753.608 753.608 0 0 0-2.465 4.752c-.421.825-1.227 1.397-1.792 1.272-.564-.125-1.555 2.35-2.201 5.5-.647 3.15-2.027 6.533-3.067 7.517S247 263.528 247 264.078c0 .549-2.25 3.344-4.999 6.211-2.749 2.866-4.999 5.548-5 5.961-.001.413-.607.75-1.348.75-4.261 0-7.901 8.923-4.217 10.337.811.311 1.573 2.21 1.75 4.357.213 2.577.798 3.806 1.814 3.806.876 0 1.377-.731 1.204-1.757-.162-.967.129-2.516.648-3.442.658-1.176.446-2.443-.702-4.195-1.552-2.369-1.544-2.471.155-1.819 1.217.467 1.57.32 1.092-.453-.464-.752-.258-.866.603-.334.815.504 1.066.416.666-.232-.354-.572.251-1.275 1.345-1.561 1.378-.36 2.013-.011 2.068 1.137.065 1.355.185 1.387.661.174.99-2.523 3.041-4.039 4.636-3.427 1.578.605 1.962-4.458.427-5.617-1.551-1.172 1.043-2.973 4.996-3.47 3.529-.443 4.212-.246 4.269 1.234.053 1.398.296 1.288 1.171-.529.607-1.26 1.664-2.076 2.349-1.813.686.263 1.533-.269 1.883-1.181.549-1.43.765-1.456 1.567-.187.728 1.15.935.954.947-.9.011-1.763-.306-2.117-1.235-1.379-1.256.999-4.436.898-5.508-.174-.317-.316.85-.575 2.591-.575 1.742 0 3.167-.469 3.167-1.042 0-.573.867-1.972 1.927-3.11 1.059-1.137 1.684-2.698 1.388-3.469-.371-.967-.039-1.21 1.068-.786.883.339 1.376.988 1.095 1.443-.586.948 1.387 2.432 2.18 1.639.882-.881-.715-4.674-1.975-4.69-2.255-.03-3.751-1.644-3.098-3.345.765-1.995 4.188-1.294 6.129 1.256 1.114 1.462 1.225 1.454 1.254-.087.018-.93-.418-1.969-.968-2.309-1.462-.904-1.221-2.5.378-2.5.757 0 1.927-.662 2.599-1.472 1.047-1.262 1.421-1.272 2.622-.072 1.827 1.827 1.767 2.309-.349 2.818-1.436.346-1.302.609.75 1.469 1.375.577 2.822.75 3.216.386 1.034-.955 1.188-6.301.247-8.543-.568-1.354-.46-1.702.367-1.191 2.328 1.439 1.107-1.206-1.278-2.769-2.346-1.537-4.359-.74-3.135 1.24 1.217 1.969-3.401 4.625-5.625 3.236-1.782-1.113-2.231-1.069-2.994.294-.494.882-1.513 1.604-2.264 1.604-.752 0-1.596.563-1.875 1.25-.382.942-.777.88-1.602-.25-.961-1.316-1.259-1.286-2.436.25-1.651 2.154-2.621 2.238-2.621.229 0-.837 1.125-2.034 2.5-2.661 2.56-1.167 3.478-3.017 1.274-2.568-.675.137-1.381-.762-1.57-2-.189-1.238-.788-2.25-1.333-2.25-.544 0-.711.449-.372.998M72.345 377.543c-1.017 2.651.391 2.944 16.655 3.457 8.711.275 16.053.725 16.317 1 .511.532 1.056 7.326.823 10.25-.077.962-.927 1.757-1.89 1.765-2.987.026-5.031 1.804-3.331 2.898 1.015.654.061 1.117-3.351 1.629-8.868 1.33-2.494 2.421 13.166 2.255 8.379-.089 15.541.145 15.917.52.375.376 8.37.686 17.766.689 9.395.003 20.797.295 25.335.648l8.253.643-.165 4.351c-.09 2.394-.541 4.352-1.002 4.352-.461 0-.838.45-.838 1s.617 1 1.372 1c1.53 0 3.002-6.863 2.02-9.421-.367-.955-.07-1.592.751-1.611.746-.017 12.684-.003 26.529.031 16.265.04 25.398-.303 25.809-.969.4-.646-1.153-1.078-4.172-1.159-2.645-.071-6.159-.295-7.809-.498-1.65-.202-22.125-.512-45.5-.687-23.375-.175-44.851-.401-47.725-.502L122.05 399l.632-3.158c.576-2.883.44-3.107-1.569-2.582-1.211.317-3.419-.06-4.907-.836s-2.143-1.414-1.456-1.418c.688-.003 1.25-.711 1.25-1.573 0-1.113.581-1.383 2-.933 1.861.591 2 .18 2-5.933V376H96.469c-20.287 0-23.613.213-24.124 1.543m89.155.116c14.847.941 17.5 1.448 17.5 3.341 0 1.279-.992 2.036-3.25 2.48-1.787.351-5.5 1.11-8.25 1.685l-5 1.047-.174 5.894-.174 5.894 14.674-.07c9.105-.044 13.915-.396 12.674-.928-1.1-.471-3.575-.594-5.5-.273-3.172.53-3.372.43-2.128-1.072 1.244-1.501.945-1.657-3.168-1.657-5.003 0-7.704-.739-7.704-2.107 0-.491.873-.893 1.941-.893s2.249-.499 2.626-1.108c.655-1.06 5.786-.906 23.683.714l5.75.521.101-3.814c.055-2.097.168-5.163.25-6.813l.149-3-24.5-.079c-13.475-.043-22.25.064-19.5.238m88.534 1.263c7.239 1.419 8.162 4.41 1.882 6.101-3.013.811-3.93 1.498-3.5 2.62.321.836.598 2.946.616 4.689.028 2.848.166 2.991 1.36 1.418 1.628-2.145 3.608-2.282 3.608-.25 0 .825.787 1.545 1.75 1.601.962.055 4 .271 6.75.479 18.764 1.422 17.5 1.505 17.5-1.154 0-2.098.466-2.426 3.44-2.426 3.252 0 3.456-.204 3.75-3.75.194-2.345.778-3.656 1.56-3.5.688.138 1.25-.425 1.25-1.25 0-1.218-1.647-1.503-8.75-1.517-5.437-.011-11.59-.762-16.25-1.983-4.125-1.081-9.975-1.922-13-1.868-4.901.087-5.115.173-1.966.79M295 382.374c0 .206 1.163 2.456 2.585 5 2.377 4.252 2.897 4.626 6.434 4.626 3.443 0 3.881-.286 4.165-2.718.243-2.094 1.062-2.931 3.566-3.645 1.788-.509 3.25-1.536 3.25-2.282 0-1.05-2.252-1.355-10-1.355-5.5 0-10 .168-10 .374m70 5.126c0 4.133.204 4.5 2.5 4.5 2.134 0 2.5.458 2.5 3.129v3.128l11-.529c10.886-.525 12.133-.261 9.8 2.072-.933.933 0 1.2 4.2 1.2 5.158 0 6.059-1.314 1.5-2.19-2.22-.426-2.63-8.08-.545-10.165.575-.575 1.045-2.08 1.045-3.345V383h-32v4.5M61.5 399c-4.4.275-7.502.824-6.894 1.22.609.396 2.184.505 3.5.243 1.317-.263 3.658-.208 5.203.122 2.553.545 2.749.888 2.145 3.757-.366 1.737-1.067 3.586-1.559 4.108-1.825 1.937-.821 2.793 1.166.995 1.637-1.482 2.229-1.594 2.875-.548.571.923 1.018.986 1.498.21 1.485-2.403 5.336-1.206 6.456 2.008.597 1.713.811 3.56.474 4.105-1.278 2.068-1.49 7.923-.338 9.311 2.281 2.749 2.974.31 2.974-10.473 0-9.984-.155-10.865-2-11.348-1.253-.327-2-.03-2 .795 0 .725-.787 1.167-1.75.983-.963-.184-2.088-.369-2.5-.411-.412-.043-.75-.679-.75-1.415 0-.878 1.46-1.401 4.25-1.523 2.338-.101 6.5-.554 9.25-1.006 4.726-.777 4.479-.845-4.5-1.228-5.225-.223-13.1-.18-17.5.095m72 10c.34.55.31 1.498-.066 2.107-.486.786-.907.745-1.454-.14-1.004-1.624-6.675-2.058-7.817-.599-1.559 1.99-2.187 10.208-.88 11.515.934.934.894 1.389-.179 2.053-.899.556.442.976 3.854 1.208 2.878.196 5.453 0 5.722-.435.269-.435 1.299-.533 2.289-.219 3.021.959 9.071-7.54 6.163-8.657-1.549-.595-2.529-5.138-.987-4.576.745.271 1.242.999 1.105 1.618-.137.619.634 1.125 1.715 1.125 5.256 0 4.831 8.216-.675 13.051-3.184 2.795-4.03 3.065-7.811 2.498-3.913-.587-4.288-.445-4.86 1.834-.341 1.359-1.408 2.655-2.37 2.88-.962.225 3.651.494 10.251.598 6.6.104 12.675.248 13.5.321 4.574.405 12.343-.312 11.205-1.034-.712-.452-2.584-.744-4.16-.651-3.029.181-2.816.573-4.674-8.605-.57-2.816-.429-3.052 1.5-2.5 1.171.334 2.996.853 4.055 1.152 1.139.321 2.268-.069 2.764-.955 1.231-2.199 3.82-.319 2.836 2.06-1.444 3.493-1.295 7.25.344 8.712 2.001 1.785 6.129 2.389 8.071 1.181.928-.577 1.58-.48 1.83.272.265.795.914.644 2.031-.473 1.801-1.801 2.785-18.341 1.091-18.341-.491 0-.893.9-.893 2s-.477 2-1.059 2-.787-.441-.454-.979c.333-.539.067-2.776-.591-4.972-1.376-4.595-6.598-7.371-9.435-5.017-.803.667-1.461.82-1.462.34 0-.479-2.25-.905-5-.945-3.159-.046-4.999.353-4.999 1.083 0 .636-1.35 1.157-3 1.157s-3-.323-3-.717c0-1.231-5.459-1.826-6.171-.673-.476.77-1.144.706-2.253-.214-1.339-1.111-1.581-1.026-1.608.565-.03 1.768-.105 1.775-1.36.122-1.384-1.824-4.19-2.501-3.108-.75m65.518.213c-9.107.884-11.094 1.97-11.572 6.327-.164 1.491-.781 3.195-1.372 3.786-1.365 1.365-1.409 6.674-.055 6.674.589 0 .753 1.06.389 2.511-.51 2.033-.323 2.394.981 1.893.886-.34 1.611-.172 1.611.372 0 .545.9 1.226 2 1.514 1.1.287 2 .115 2-.384 0-.498.723-.906 1.607-.906 1.018 0 1.396.55 1.031 1.5-.35.914-.001 1.5.893 1.5.808 0 1.469-.436 1.469-.969 0-.532.727-.689 1.615-.348 1.232.472 1.481.168 1.048-1.282-1.569-5.253-1.81-7.401-.83-7.401.577 0 1.338.468 1.692 1.041.672 1.087 3.403.606 7.223-1.272 2.7-1.327 4.41-.092 2.164 1.563-1.78 1.311-3.494 9.668-1.983 9.668.524 0 1.221-.433 1.548-.962.371-.6 1.563-.521 3.168.21 2.157.983 2.777.895 3.825-.538 1.499-2.05 2.958-2.269 2.215-.332-.664 1.73 1.156 3.622 3.484 3.622 1.226 0 1.576-.501 1.14-1.636-.435-1.135-.195-1.48.782-1.125.775.281 1.297 1.017 1.159 1.636-.271 1.219 2.898 1.46 6.5.495 1.343-.36 2.25-1.377 2.25-2.524 0-1.383-.63-1.868-2.25-1.728-5.516.474-8.75-.146-8.75-1.677 0-.857-.37-1.331-.822-1.051-.873.54-4.178-2.831-4.178-4.263 0-.467 1.238-.652 2.75-.41 2.249.36 2.477.226 1.25-.733-1.288-1.007-1.253-1.093.25-.61.963.31 1.75.127 1.75-.405a.972.972 0 0 0-.969-.969c-.532 0-.709-.675-.393-1.5.317-.825.062-1.5-.566-1.5-.838 0-.853-.541-.055-2.032.598-1.117 1.851-1.905 2.785-1.75.934.155 1.586-.28 1.448-.968-.137-.687.425-1.25 1.25-1.25s1.534.337 1.577.75c.042.413.319 1.65.617 2.75.926 3.426.982 8.948.102 10.129-1.075 1.444 3.409 2.374 7.918 1.642 3.684-.597 3.704-.625 2.209-3.035-.759-1.224-.766-2.547-.024-4.486 1.474-3.855 2.601-3.423 2.601.999 0 3.493.205 3.751 2.97 3.751 2.138 0 3.307-.674 4.169-2.404l1.199-2.403.371 2.903.371 2.904 1.718-3.5 1.718-3.5-.457 5.222c-.428 4.874.632 7.874 1.777 5.034.402-.998.522-.999.585-.006.094 1.486 5.684 1.698 6.579.249.34-.55 2.634-1.508 5.098-2.128 2.463-.62 4.257-1.349 3.986-1.62-.271-.271.612-2.118 1.962-4.104 6.025-8.866.551-13.003-14.046-10.614-6.926 1.134-9.079 1.062-10.795-.363-1.102-.914-2.602-.972-5.844-.224-7.258 1.673-9.861 1.383-9.861-1.101 0-1.966-.153-2.022-1.75-.63-2.642 2.301-4.493 2.634-7.25 1.306-1.375-.662-5.746-1.239-9.713-1.281-3.967-.042-7.567-.251-8-.464-.433-.213-4.604-.016-9.269.437M99 410.02c0 .417-1.575 1.053-3.5 1.414s-3.5 1.113-3.5 1.67c0 .558-.403.765-.895.461-1.008-.623-2.105 1.675-2.105 4.41 0 .996-.575 2.032-1.278 2.302-.704.269-1.39 1.945-1.525 3.723-.28 3.669-2.465 7.36-3.697 6.244-.451-.409-.497-.181-.101.506.462.803.072 1.255-1.09 1.265-1.429.012-1.517.2-.42.895.765.484 9.903.936 20.307 1.004 10.405.068 19.229.164 19.611.213 1.84.237 5.193-1.511 5.193-2.708 0-2.08-3.072-3.226-7.725-2.884-6.567.484-11.074-5.515-8.025-10.679 1-1.694 1-2.208 0-2.57-.687-.249-1.25-1.074-1.25-1.834s-.883-1.854-1.963-2.432c-2.464-1.319-8.037-2.012-8.037-1" fill="#d3d3d3" fill-rule="evenodd"/></svg>