<svg xmlns="http://www.w3.org/2000/svg" width="500" height="353"><path d="M4.62 127.5c-.622 118.59-1.053 157.757-2.208 200.791l-.558 20.79 13.323-.79c7.328-.435 118.328-.791 246.668-.791H495.19l2.4 3c2.268 2.835 2.4 2.876 2.405.75.003-1.238-.397-2.25-.888-2.25-1.125 0-1.991-2.114-3.584-8.75-.909-3.788-.949-5.254-.142-5.265.718-.01.761-.279.119-.75-1.359-.999-1.801-5.539-.458-4.709.69.427.775-.307.252-2.192-.934-3.364-.797-309.153.142-316.664l.645-5.17H5.26l-.64 122M6.899 8.619C6.843 9.654 6.836 37.05 6.884 69.5c.047 32.45-.005 72.5-.117 89-.444 65.915-.435 66.352 1.418 66.838.927.242 1.937-.213 2.243-1.012.307-.799.92-1.229 1.363-.955.442.273 1.458.084 2.257-.422 1.267-.801 1.267-.92.002-.934-1.072-.011-1.157-.308-.328-1.137.617-.617.884-1.742.593-2.5-.291-.758-.031-1.378.578-1.378s1.107.97 1.107 2.155c0 2.054.089 2.074 1.901.435 1.109-1.004 2.151-1.315 2.503-.745.968 1.566-.493 4.215-2.164 3.923-2.062-.361-2.727 1.831-.782 2.577.867.333 1.549.059 1.557-.626.01-.771.372-.668.985.281.646 1 .974 1.083.985.25.008-.687.642-1.25 1.408-1.25.766 0 1.67-.722 2.008-1.604.352-.915 1.256-1.358 2.107-1.031.821.315 1.492.174 1.492-.313s-.511-1.056-1.136-1.264c-.812-.271-.752-.995.212-2.538 1.901-3.043.395-3.96-3.107-1.891-2.602 1.538-2.969 1.562-2.969.198 0-.857.477-1.557 1.059-1.557s.781-.45.441-1-.191-1 .33-1 .927-.562.901-1.25c-.125-3.387.354-4.816 1.399-4.17.621.384.944.298.718-.191-1.999-4.315-3.3-6.389-4.009-6.389-.461 0-.839-.354-.839-.787 0-1.173 4.05-1.257 6.159-.128 1.237.662 1.841.646 1.841-.05 0-.569-.436-1.035-.969-1.035-.532 0-.715-.787-.405-1.75.484-1.507.397-1.541-.626-.25-1.019 1.286-1.106 1.245-.611-.288.362-1.121-.028-2.02-1.046-2.411-1.447-.555-1.417-.775.267-2.024 1.85-1.371 1.849-1.431-.051-2.839-1.068-.791-1.575-1.438-1.128-1.438.448 0 .262-.665-.413-1.478-1.206-1.454-4.302-1.571-5.659-.214-1.281 1.281-2.359.706-2.359-1.258 0-1.073.778-2.386 1.729-2.918 1.634-.915 1.635-1.072.014-2.864-1.323-1.462-1.444-2.167-.529-3.082 2.282-2.282 3.73-1.313 3.59 2.403-.146 3.888 2.069 6.39 3.458 3.907 1.469-2.624 3.639-.639 2.738 2.504-.602 2.098-.45 2.997.574 3.39.821.315 1.132 1.212.758 2.188-.509 1.325-.209 1.518 1.51.972 1.684-.534 2.016-.343 1.544.887-.891 2.321.363 6.253 2.221 6.966 1.326.508 1.543.074 1.185-2.366-.241-1.643.045-3.168.635-3.388.723-.269.665-.831-.177-1.724-.687-.729-1.25-1.996-1.25-2.816 0-1.111.362-.996 1.418.448.78 1.067 1.789 1.569 2.242 1.116.453-.452.04-1.262-.918-1.798-1.798-1.006-2.429-3.875-.853-3.875 1.183 0 .879-3.303-.389-4.235-1.442-1.059-2.5-.929-2.5.306 0 .59-.627 1.699-1.393 2.465-1.19 1.19-1.467 1.107-1.906-.572-.29-1.109-.01-1.977.643-1.994.636-.017.368-.489-.594-1.05-.963-.561-1.743-1.785-1.735-2.72.01-1.051.296-1.283.75-.607.521.775 1.736.679 4.168-.328 3.525-1.458 2.886-3.214-1.183-3.25-.962-.008-1.734-.353-1.715-.765.06-1.255 2.89-5.822 2.945-4.75.028.55.521.325 1.096-.5.772-1.108.871-.619.378 1.875-.511 2.58-.371 3.192.594 2.596.872-.54 1.012-.377.452.529-.504.815-.416 1.066.232.666.573-.354 1.597.026 2.277.845.68.819.793 1.489.252 1.489s-.747 1.238-.457 2.75l.527 2.75.918-2.75c1.088-3.26 2.276-3.483 3.983-.75 1.426 2.283 3.259 2.721 2.438.583-.65-1.695 1.685-2.828 3.039-1.474.523.523 1.816.601 2.871.171 2.399-.975 2.831-5.254.54-5.343-1.086-.043-.879-.362.63-.968 3.204-1.288 2.786-2.891-.64-2.458-2.541.322-2.826.102-2.353-1.822.296-1.204.176-1.855-.267-1.448-.443.408-1.41.24-2.148-.372-.987-.819-1.342-.817-1.342.009 0 .617-.45 1.122-1 1.122s-1.007-.787-1.015-1.75c-.013-1.42-.185-1.483-.912-.333-.525.828-.529 2.385-.01 3.75.717 1.886.557 2.333-.838 2.331-1.236-.001-1.791-.934-1.958-3.291-.215-3.04.097-3.411 4.139-4.909 3.319-1.23 4.652-1.34 5.533-.459.639.639 1.588 1.217 2.111 1.286.522.069 1.4.181 1.95.25s.947.463.882.875c-.338 2.136.267 2.428 1.508.731 2.22-3.036 7.236-.486 5.438 2.765-.686 1.24-1.123 2.864-.97 3.61.489 2.383-2.276.593-2.981-1.93-.691-2.474-.846-2.241-1.303 1.959-.175 1.609.336 2.54 1.572 2.863 1.007.264 1.542.948 1.188 1.52-.373.604-.159.742.511.327 1.696-1.047 1.409.949-.345 2.405-2.071 1.718-1.91 4.982.25 5.079 1.007.045.476.534-1.25 1.15-1.65.589-3.305 1.54-3.678 2.114-.463.712-1.533.654-3.37-.183-2.358-1.074-2.615-1.026-2.072.389.341.888.62 2.118.62 2.733 0 .779.364.754 1.2-.082.66-.66 2.01-1.2 3-1.2.99 0 1.8-.45 1.8-1s.388-1 .863-1c.474 0 .87 1.012.879 2.25.03 4.153.251 4.75 1.758 4.75 1.729 0 1.874.874.5 3-.915 1.416-1.071 1.312-1.375-.917-.069-.504-.529-1.291-1.023-1.75-.52-.483-.665.112-.343 1.417.304 1.237.146 2.25-.353 2.25-.761 0-1.426-4.704-1.024-7.25.232-1.475-1.423-.715-2.621 1.204-.776 1.242-.861 2.175-.233 2.563.602.372.432 1.166-.434 2.032-.782.782-1.27 2.215-1.084 3.186.185.971.371 2.103.413 2.515.043.412.772.75 1.622.75.85 0 2.581 1.036 3.847 2.301 2.417 2.417 4.608 2.489 4.608.151 0-.76.9-1.863 2-2.452 1.356-.726 2-.737 2-.035 0 .569.338.982.75.917 1.993-.315 3.306.219 2.75 1.118-.934 1.511 3.729 1.141 5.847-.463 2.676-2.027 8.877 1.674 7.895 4.713-.133.412.423.75 1.237.75 1.494 0 .476-3.934-1.669-6.45-1.936-2.27-.726-3.55 3.357-3.55 5.196 0 4.719-.624-1.146-1.498-2.463-.367-4.826-.881-5.25-1.143-.424-.263-.771-.072-.771.423 0 .499-1.957.604-4.38.236-2.409-.365-5.399-.59-6.643-.498l-2.263.167.636-13.094c.643-13.225 1.606-23.775 2.234-24.473.681-.756 13.976-.537 16.291.268 1.308.455 2.138.441 1.847-.031-.291-.471 2.69-.911 6.625-.977 7.476-.125 15.841-.86 17.3-1.521.469-.212 3.553-.376 6.853-.364l6 .022-.272 22.446c-.166 13.726-.664 22.688-1.281 23.07-.651.402-.679 1.483-.078 3.045.77 2.005 1.045 2.14 1.595.783.397-.979 1.4-1.448 2.488-1.163 1.002.262 2.114.004 2.471-.573.43-.696 1.485-.73 3.142-.1 1.371.521 3.493.917 4.714.88 6.148-.188 49.656 1.175 52.471 1.644l3.25.542.155-7.796c.085-4.287.28-9.609.433-11.827l.278-4.032-7.683-.105c-8.718-.119-24.541-1.202-27.974-1.914-2.266-.471-2.289-.628-2.207-15.196.046-8.097-.366-21.696-.914-30.221a3238.232 3238.232 0 0 1-1.618-27c-.342-6.325-.804-12.175-1.028-13-.224-.825-.665-7.314-.98-14.419-.735-16.583-.807-16.715-8.745-16.06-3.419.282-8.017.811-10.217 1.175-4.217.698-7.946 1.047-15.75 1.476-2.612.143-4.75.613-4.75 1.044 0 .431-1.35.784-3 .784-2.913 0-3.822-1.65-3.031-5.5.113-.55.278-5.171.368-10.27.133-7.568.438-9.244 1.663-9.134.825.074 1.725.027 2-.105 1.648-.789 9.821-.528 11.5.368 1.1.586 2.371.959 2.824.829.454-.131.54.224.191.787-.371.601.456 1.025 1.997 1.025 2.398 0 2.491-.14 1.05-1.581-.869-.869-1.337-1.974-1.039-2.456.65-1.052 3.477-.122 3.477 1.144 0 .491 1.238.848 2.75.793l2.75-.099L132 43c-2.113-.677-1.832-.816 1.809-.9 2.597-.06 4.063-.497 3.691-1.1-.368-.595.823-1 2.941-1 2.497 0 3.559-.448 3.559-1.5 0-.851.973-1.555 2.25-1.628 4.588-.26 6.322-.682 9.25-2.254 3.689-1.979 5.503-.316 5.308 4.867-.066 1.76.202 3.721.595 4.358.401.65.141 1.164-.594 1.172-1.061.013-1.056.176.023.86.788.5 1.371 2.843 1.427 5.735.084 4.352.968 6.327 2.852 6.375.337.008.407-1.057.156-2.368-.25-1.31.037-2.687.639-3.059.602-.372 1.094-1.549 1.094-2.617S167.45 48 168 48s1.036-1.013 1.079-2.25c.043-1.237.307-1.685.585-.994.279.691.988.959 1.576.596.653-.404.775-.185.314.56-.488.79-.212 1.11.78.905.844-.174 1.452.124 1.35.664-.101.539-.634 1.033-1.184 1.098-5.056.59-5.074.6-2.5 1.327 2.648.748 10.189-1.792 9.35-3.149-.258-.417.234-.757 1.091-.757S182 45.46 182 44.8c0-.887.293-.907 1.122-.078.617.617 1.854.848 2.75.513 1.413-.529 1.447-.387.256 1.078-1.183 1.453-1.148 1.687.25 1.687.892 0 1.622.45 1.622 1s-.675 1-1.5 1-1.559.563-1.632 1.25c-.072.688-.41-.26-.75-2.106l-.618-3.356-3.241 3.106c-1.782 1.708-2.795 3.106-2.25 3.106.545 0 .991.477.991 1.059s-.399.812-.887.511c-.487-.301-1.442.122-2.122.941-.745.898-.825 1.489-.2 1.489.692 0 .66.994-.097 3-.623 1.65-1.735 3-2.472 3-.737 0-1.062.45-.722 1 1.098 1.776-.533 3.217-2.136 1.887-1.175-.975-1.206-1.371-.161-2.033.965-.613.849-.827-.453-.839-.963-.008-1.75-.423-1.75-.921 0-1.34-4.086-.034-4.672 1.494-.887 2.31 4.117 6.778 6.295 5.622 2.389-1.269 4.887.88 3.101 2.666-.618.618-1.736 1.124-2.483 1.124-.747 0-1.081.45-.741 1 1.12 1.813 3.523 1.043 4.682-1.5.626-1.375 1.694-2.5 2.372-2.5.677 0 1.498-.693 1.823-1.54.347-.903.081-1.475-.643-1.382-3.394.437-5.249-.099-3.734-1.078.825-.533 1.05-1.005.5-1.048-.55-.043.114-.523 1.476-1.067 1.848-.737 2.138-1.197 1.143-1.811-2.3-1.422.671-2.389 6.726-2.192 6.644.218 5.833-1.121-1.095-1.808-.412-.041-.75-.599-.75-1.241 0-.641.281-.885.624-.542.343.343 1.506-.369 2.584-1.584 1.273-1.433 1.787-1.649 1.468-.616-.27.875-.089 2.225.401 3 .754 1.191.906 1.177.978-.091.059-1.038.378-.884 1.036.5.913 1.921.934 1.916.552-.139-.219-1.177-.01-2.752.464-3.5.706-1.114.872-1.089.913.139.032.932.548.604 1.363-.867 1.097-1.978 1.415-2.101 1.934-.75.347.904.12 1.617-.515 1.617-.624 0-.851.284-.504.631.347.348.157 1.519-.424 2.604-.993 1.855-.814 1.931 3.036 1.28 3.541-.598 4.099-.444 4.16 1.147.066 1.71.123 1.703.828-.096.484-1.236 1.005-1.531 1.446-.819.379.613.23 1.398-.33 1.745-.684.422-.656 1.309.087 2.696.824 1.54.803 2.254-.083 2.801-1.358.839-1.301 1.965.189 3.761.591.712.633 1.25.098 1.25-.518 0-.817 1.575-.665 3.5.152 1.925-.059 3.5-.468 3.5-.409 0-.787.787-.84 1.75-.053.963-.422 5.575-.82 10.25-.398 4.675-.751 9.063-.785 9.75-.033.688-.323 1.25-.644 1.249-.321 0-.528 2.123-.461 4.718.067 2.595-.262 5.858-.732 7.251-.81 2.404-1.055 4.369-2.306 18.532-.291 3.3-.992 7.572-1.557 9.493-.565 1.922-1.027 3.947-1.027 4.5-.001 1.844 54.354.094 63.871-2.056 2.164-.489 2.31-.294 1.674 2.239-1.252 4.988-2.418 12.692-3.001 19.824-.314 3.85-1.259 11.275-2.1 16.5-.841 5.225-1.961 13.289-2.489 17.92-.529 4.631-1.176 8.634-1.438 8.897-.954.954-17.362.292-32.017-1.292-6.222-.672-3.061.968 3.868 2.007 3.171.476 4.632 1.174 4.632 2.214 0 1.842 3.86 8.331 5.861 9.852.795.604 1.128 1.611.741 2.237-.387.627.219 2.13 1.347 3.341 1.128 1.21 2.051 3.215 2.051 4.454 0 1.238.415 2.509.923 2.822.508.314 1.219 1.916 1.58 3.559.361 1.644 1.07 2.989 1.576 2.989.507 0 .921.906.921 2.014 0 1.107.529 2.86 1.176 3.895 1.9 3.044 3.863.028 4.32-6.638.217-3.174.7-9.277 1.072-13.562.55-6.332.42-7.736-.696-7.5-1.007.214-1.318-.769-1.169-3.691.142-2.808-.074-3.545-.735-2.5-.805 1.272-.94 1.249-.953-.161-.019-2.08 2.83-3.23 4.523-1.826.75.623 1.519.685 1.85.15.326-.528 2.59-.584 5.339-.133 2.625.431 8.642 1.02 13.371 1.308l8.597.525.136-5.69c.237-9.965 1.396-29.667 1.784-30.337.206-.355.623-7.105.927-15 .304-7.895.737-16.154.962-18.354.458-4.479 1.369-20.541 1.909-33.659.418-10.17.699-10.799 4.896-10.973l3.191-.131-3.5-.619c-3.399-.6-3.499-.748-3.456-5.118.077-7.784 1.492-29.249 1.98-30.038.421-.682 1.281-8.616 1.784-16.462.105-1.65.815-3.655 1.576-4.455.961-1.011 1.037-1.571.25-1.834-1.249-.416-1.583-3.211-.384-3.21.413 0 .691-2.7.619-6-.072-3.301.281-6.001.785-6.001.527 0 .494-.789-.078-1.857-1.287-2.405.491-9.143 2.412-9.143.767 0 1.683-.468 2.037-1.04.412-.668-.234-.82-1.805-.426-1.922.482-2.565.169-2.99-1.46-.488-1.864-1.288-2.072-7.886-2.055-6.62.018-20.501 2.677-15.094 2.892 1.238.049 2.257.652 2.265 1.339.011.847.316.775.946-.221 1.702-2.692 1.801-.617.45 9.471-.736 5.5-1.355 11.89-1.375 14.2-.045 5.227-1.746 6.39-7.419 5.07-6.563-1.526-7.02-1.613-8.926-1.693-1.117-.048-1.532-.525-1.086-1.247.462-.748.208-.972-.704-.622-.784.301-3.67.128-6.414-.384-4.555-.849-12.13-2.151-18.487-3.175-1.375-.222-4.3-.74-6.5-1.151-2.2-.412-4.9-.86-6-.996-3.037-.375-3.114-.455-1.5-1.559 1.333-.912 1.333-1.009 0-.866-3.011.321-3.661-.121-3.416-2.327.137-1.238.344-2.25.46-2.25.196 0 .803-3.319 1.144-6.25.08-.687.442-1.25.805-1.25.364 0 .462-1.35.22-3-.353-2.411-.074-3.006 1.424-3.03 1.532-.025 1.596-.18.363-.868-.825-.461-45.825-1.125-100-1.476-54.175-.352-100.187-.92-102.25-1.263-3.206-.534-3.765-.352-3.851 1.256m298.654 2.296c-.311.503 0 1.173.691 1.49.691.317.131.322-1.244.01l-2.5-.567 2.515 1.826c3.084 2.24 2.899 6.001-.326 6.628-1.863.362-1.793.446.473.562 2.535.13 3.299 2.008 1.534 3.774-1.536 1.536-.618 3.499 1.554 3.323 3.646-.295 4.904-.019 4.308.945-.308.498-1.409.684-2.446.413-3.053-.798-3.404 1.077-3.719 19.855-.165 9.827-.544 18.261-.841 18.742-.297.481.095 1.118.871 1.416 1.502.577 2.964-1.897 2.021-3.422-.309-.501-.138-.91.38-.91.519 0 1.178.9 1.466 2 .322 1.231 1.424 2.045 2.866 2.116 1.603.079 1.808.257.649.563-2.245.592-1.16 3.321 1.322 3.321 1.482 0 1.812.55 1.469 2.442-.243 1.343-.042 2.581.449 2.75 1.372.474-.293 2.46-2.69 3.207-1.356.423-2.711.102-3.686-.873-.952-.952-1.78-1.156-2.164-.534-.343.555-.034 1.015.686 1.023.951.011.899.281-.191.985-1.333.862-1.333.973 0 1 .927.019 1.099.311.452.765-1.476 1.035-1.705 6.893-.367 9.394 1.186 2.217-.391 4.254-2.657 3.43-1.773-.645-3.235 2.702-2.292 5.249.639 1.728 1.553 2.268 3.61 2.132 5.351-.353 6.919-.046 5.254 1.03-1.282.828-1.246.972.25.985.962.008 1.75-.708 1.75-1.592 0-1.055.544-1.398 1.582-1 .87.334 2.67.607 4 .607 1.46 0 2.418.582 2.418 1.469 0 .946.622 1.268 1.75.905 1.505-.484 1.54-.397.25.618-1.26.993-1.16 1.108.625.721 1.664-.361 2.169.054 2.326 1.913.412 4.848.346 7.941-.22 10.374-.321 1.375-.623 2.95-.672 3.5-.049.55-.508.338-1.02-.471-.512-.809-1.201-1.2-1.532-.869-.331.331.094 1.298.945 2.15.852.851 1.548 2.104 1.548 2.785 0 3.365 1.209-.744 2.561-8.704.831-4.89 1.782-9.566 2.113-10.391.332-.825.703-2.175.825-3 .122-.825.976-5.046 1.897-9.381.922-4.334 1.438-8.118 1.148-8.408-.289-.29-.058-1.092.515-1.782.573-.691 1.249-2.532 1.502-4.092.253-1.56.717-3.962 1.031-5.337.314-1.375.422-2.565.24-2.645-.183-.08.485-1.048 1.483-2.151 1.046-1.155 1.404-2.26.844-2.606-1.196-.739.731-7.598 2.134-7.598.533 0 .687-1.349.347-3.05-.415-2.076-.261-2.834.482-2.374.736.455.86-.059.378-1.576-.393-1.238-.329-2.016.143-1.73.894.542 3.539-1.754 2.834-2.46-.222-.222.221-2.479.984-5.015.764-2.537 1.122-4.878.797-5.204-.325-.325-.066-.591.575-.591.642 0 1.167-.675 1.167-1.5s.337-1.501.75-1.503c.413-.001.813-1.992.89-4.424.077-2.431.865-5.455 1.75-6.72.886-1.264 1.61-3.577 1.61-5.141 0-6.298 3.158-7.722 10.5-4.737 2.33.948 15.029 3.164 16.202 2.829.439-.126 1.81.333 3.048 1.019 1.238.686 2.25.917 2.25.512 0-.404.505-.23 1.122.387 1.362 1.362 4.134.501 3.208-.997-.419-.678-.023-.821 1.088-.395.96.369 1.96.67 2.223.67.262 0 .199.45-.141 1-.34.55.335 1 1.5 1s1.84-.45 1.5-1c-.34-.55.266-1 1.347-1 1.473 0 1.835-.501 1.443-2-.465-1.775.079-2.218 2.348-1.915.351.047.914-.329 1.25-.835.337-.507 1.512-1.476 2.612-2.154 1.93-1.19 1.921-1.217-.25-.758-1.238.261-2.25.067-2.25-.432 0-1.212-98.698-1.204-99.447.009m101.572 5.166c-.977 2.206-1.67 2.774-2.444 2-1.649-1.649-3.097-1.288-1.681.419.685.825 1.935 1.5 2.777 1.5 1.316 0 1.291.267-.173 1.885-1.63 1.801-1.561 1.934 1.55 3.019 1.79.624 5.525 1.403 8.3 1.731 2.775.328 5.537.99 6.138 1.472.601.481 1.324.644 1.607.361.8-.8-.324-5.468-1.316-5.468-.485 0-.883-1.05-.883-2.333 0-1.408-.595-2.334-1.5-2.334-.825 0-1.5.375-1.5.834 0 .458-.45.833-1 .833s-.887-.562-.75-1.25c.137-.687-.425-1.25-1.25-1.25s-2.533-1.012-3.795-2.25c-2.823-2.767-2.455-2.841-4.08.831M377.552 32.25c-.436 1.415-1.703 6.493-2.184 8.75-.176.825-.426 2.737-.557 4.25-.13 1.513-.495 2.75-.811 2.75-.316 0-.639.86-.718 1.912-.08 1.051-.853 4.764-1.718 8.25-.866 3.486-1.67 7.688-1.786 9.338-.116 1.65-.753 4.068-1.416 5.374-1.22 2.407-.849 5.126.7 5.126.806 0 2.234-5.506 1.917-7.388-.082-.489.293-1.164.833-1.5.541-.337 1.14-1.962 1.332-3.612.192-1.65.8-3.321 1.352-3.714.552-.392 1.004-1.099 1.004-1.571s.788-1.645 1.75-2.608c1.515-1.515 1.75-1.539 1.75-.178 0 .864.45 1.571 1 1.571 1.138 0 1.271-1.13.4-3.4-.477-1.243-1.02-1.339-2.646-.468-1.854.992-1.979.872-1.332-1.269.393-1.299.909-3.713 1.146-5.363.238-1.65.632-3.533.876-4.185.244-.652-.065-1.355-.688-1.563-.705-.235-.402-1.125.807-2.366 1.065-1.095 2.059-3.064 2.209-4.376.382-3.359.884-3.592 4.516-2.1 1.767.725 4.562 1.547 6.212 1.826 1.65.279 3.712 1.129 4.581 1.888.87.759 1.849 1.113 2.175.787.327-.327 1.415-.117 2.419.467 1.079.628 1.29 1.074.516 1.092-.72.016-1.031.48-.691 1.03.34.55.133 1-.46 1-.639 0-.833.978-.476 2.399.331 1.319-.117 4.807-.995 7.75-3.661 12.269-7.859 30.896-8.002 35.506-.037 1.184-.308 2.005-.603 1.823-.294-.182-.578.423-.631 1.345-.218 3.838-3.459 19.544-4.393 21.289-1.049 1.961-7.94 2.808-7.94.976 0-.502-1.168-.784-2.596-.627-2.621.288-7.338-.587-10.769-1.997-1.557-.64-1.757-.424-1.21 1.301.361 1.136.188 2.356-.384 2.71-.573.354-1.041 2.532-1.041 4.841 0 2.308-.455 5.769-1.011 7.691-.556 1.921-1.251 5.743-1.544 8.493-.294 2.75-.735 6.936-.982 9.302-.246 2.365-.839 5.065-1.318 6-.479.934-1.17 3.658-1.537 6.053-1.165 7.624-3.314 10.555-21.537 29.374-7.363 7.605-11.112 10.771-12.75 10.771-2.682 0-3.057 1.489-.705 2.805 1.403.785 1.21 1.35-1.471 4.3-2.606 2.866-3.091 3.088-3.116 1.422-.027-1.859-.118-1.844-1.587.252-.857 1.224-1.28 2.674-.941 3.223.339.549.178.998-.359.998-.536 0-1.204-.562-1.483-1.25-.653-1.611-2.837 1.205-2.228 2.874.225.618-.68 1.706-2.011 2.419-1.331.712-2.427 1.781-2.435 2.376-.021 1.462-15.893 18.006-16.598 17.301-.308-.307-1.831.865-3.386 2.605-1.92 2.149-2.458 3.393-1.676 3.876.775.479.143 1.791-1.928 4.005-3.119 3.336-7.799 9.734-7.215 9.865 3.403.763 7.819.736 8.305-.05.347-.562.154-1.021-.428-1.021s-1.059-.439-1.059-.975c0-.607.876-.642 2.318-.094 2.158.82 5.004-1.446 5.146-4.098.075-1.392 1.537-2.099 1.551-.75.011 1.003.233 1.075.76.247.409-.643 1.414-1.318 2.233-1.5 1.92-.425 6.991-6.023 6.369-7.029-.676-1.094 22.138-24.801 23.867-24.801.416 0 .756-.603.756-1.339 0-.737 1.462-2.695 3.25-4.351 1.788-1.657 4.26-4.204 5.493-5.661 1.972-2.328 2.98-2.649 8.309-2.649 3.337 0 5.846.357 5.576.792-.269.436.379.858 1.441.938 1.062.08 1.989-.164 2.06-.542.071-.378.262-1.813.425-3.188 1.255-10.607 4.848-30.732 5.666-31.739.554-.681 1.456-.961 2.005-.622.549.34 1.391-.003 1.871-.761.622-.981.878-1.021.889-.139.008.681 1.027 1.243 2.265 1.248 4.187.019 25.186.92 36.494 1.567 6.184.353 11.463.486 11.731.294 1.14-.816 3.673 4.425 3.149 6.515-.311 1.239-.846 4.702-1.187 7.695-.342 2.993-2.098 11.292-3.902 18.442-1.803 7.15-3.818 16.825-4.478 21.5-.659 4.675-2.016 10.975-3.016 14-.999 3.025-2.601 9.072-3.559 13.438-2.078 9.471-4.058 14.525-5.745 14.664-4.366.362 7.939 2.025 18.885 2.554l13.121.633 1.568-4.895c1.419-4.429 4.316-19.723 5.352-28.252.224-1.847 1.318-8.597 2.429-15 2.579-14.85 5.897-36.281 6.551-42.303l.506-4.661-11.109-.72c-13.133-.851-13.656-1.282-11.567-9.545 1.428-5.644 2.663-16.132 2.544-21.588-.038-1.746.4-3.464.973-3.819.573-.354.789-1.054.48-1.554-.309-.501-.082-1.808.505-2.904 1.29-2.411 2.816-9.932 4.069-20.048 1.301-10.5 3.256-21.983 6.812-40.009 1.683-8.53 3.297-17.398 3.587-19.706.29-2.308.647-4.731.792-5.384.281-1.26-14.411-6.441-22.235-7.841-5.23-.936-10.906-2.285-23.743-5.642-10.445-2.732-13.152-2.963-13.705-1.168M334 34.177c-1.477.621-1.988 1.243-1.25 1.52.688.258 1.25 1.07 1.25 1.803 0 .733.563 1.599 1.25 1.923.688.324.04.36-1.439.079-1.479-.28-2.968-.058-3.309.494-.341.552-.143 1.004.439 1.004s1.059.879 1.059 1.953c0 2.558 6.561 5.886 8.258 4.189.856-.856.841-1.142-.058-1.142-2.546 0-1.039-1.783 2.05-2.427l3.25-.677-3-2.443c-1.934-1.575-2.467-2.47-1.5-2.518 1.003-.051.838-.36-.5-.935-1.228-.527-1.443-.887-.559-.93 1.052-.051.917-.466-.5-1.538-2.272-1.718-2.206-1.714-5.441-.355m-98.118 8.573c-.066.413-.006 1.2.131 1.75.674 2.692.572 6.5-.174 6.5-.461 0-.839-.45-.839-1s-.787-.964-1.75-.921c-1.056.048-1.252.28-.494.585.691.279 1.002.918.691 1.421-.311.503.249.922 1.244.93 1.422.012 1.513.203.427.891-1.771 1.122-1.049 5.198 3.382 19.094 5.434 17.042 8.621 27.986 10.63 36.5 1.038 4.4 2.292 8.9 2.786 10 .698 1.555 2.814 8.801 3.649 12.5.062.275.571 1.618 1.132 2.984l1.02 2.483.716-2.256c.394-1.241.616-3.709.493-5.484s.12-4.922.54-6.994c.463-2.287.281-5.626-.463-8.5-2.211-8.54-2.401-11.6-.677-10.938.84.322 2.066-.062 2.723-.854.942-1.135.905-1.444-.177-1.456-1.151-.013-1.153-.154-.015-.875.823-.522.966-1.101.364-1.474-.641-.396-.539-1.935.288-4.341 1.119-3.254 1.073-3.887-.364-4.979-1.16-.883-1.256-1.262-.324-1.284 1.595-.039-.377-2.326-2.839-3.292-.815-.32-.02-.618 1.768-.661 2.434-.059 3.25-.531 3.25-1.879 0-.99.489-2.289 1.087-2.887.783-.783.783-1.275 0-1.759-.598-.37-1.094-.083-1.102.637-.011.951-.281.899-.985-.191-.646-1-.974-1.083-.985-.25-.009.789-1.49 1.25-4.015 1.25-3.491 0-3.996-.286-3.968-2.25.03-2.158.089-2.174 1.452-.375 1.634 2.158 5.05 1.459 4.163-.851-.308-.803-.129-1.726.397-2.051.526-.325.956-1.97.956-3.654 0-2.703.19-2.906 1.61-1.728 1.015.843 1.197 1.473.493 1.708-.613.204-.83.834-.481 1.398.349.565.014 1.419-.744 1.899-.988.627-.634.878 1.255.889 1.8.01 2.799-.618 3.157-1.985.287-1.1.115-2-.384-2-1.397 0-1.072-2.979.344-3.157.688-.087-1-.466-3.75-.843l-5-.686 4.133-.157c4.306-.164 6.897-3.565 4.079-5.356-.75-.476-.799-.776-.129-.786 1.424-.02 1.443-3.128.031-4.957-.849-1.099-.817-1.264.136-.691.715.429 1.25.252 1.25-.415 0-.643-.696-.899-1.552-.57-.89.341-1.291.173-.941-.393.336-.544.022-1.021-.698-1.059-.72-.039-.409-.457.691-.93 1.8-.774 1.818-.866.179-.93-1.002-.038-2.497.605-3.322 1.43-1.333 1.333-1.319 1.5.131 1.5.977 0 1.344.462.917 1.155-.417.674-.277.884.336.505 1.447-.894 2.528 2.31 1.285 3.809-.555.668-.675 1.567-.267 1.997.407.43-.159.512-1.259.181-2.329-.7-3.885.145-4.792 2.603-.355.962-1.164 1.75-1.799 1.75-.862 0-.856-.358.021-1.416.937-1.129.77-1.544-.826-2.051-1.221-.388-1.785-1.2-1.446-2.084.306-.797.031-1.449-.61-1.449s-.845.52-.453 1.155c.443.715.275.883-.44.44-.635-.392-1.155-.236-1.155.346s-1.912 1.052-4.25 1.044c-3.112-.012-3.849-.275-2.75-.985 1.207-.78 1.049-.972-.809-.985-1.319-.008-2.038-.454-1.676-1.04.349-.563.263-.96-.191-.881-2.239.389-5.568-.184-4.907-.844.412-.413 1.05-.757 1.416-.765 2.805-.065 4.226-5.562 2.56-9.903-.611-1.593-3.291-2.228-3.511-.832m8.093 19.985c.447 1.521 2.239 7.04 3.983 12.265 1.744 5.225 3.726 11.495 4.404 13.933.679 2.438 1.779 4.614 2.444 4.836.914.304.957-.263.174-2.322-.57-1.498-.802-2.958-.517-3.244.286-.285.116-1.01-.376-1.611-.493-.601-1.168-2.815-1.499-4.921-.331-2.106-1.1-4.76-1.709-5.897-.883-1.651-.781-2.249.507-2.97 2.149-1.203 2.035-2.999-.386-6.077-2.441-3.104-2.492-3.727-.3-3.727 3.107 0-.312-2.233-4.049-2.645-3.391-.373-3.466-.307-2.676 2.38M55.008 76c-.004.275-1.021.554-2.258.62-4.637.247-11.764 1.271-12.647 1.816-.85.526.74 6.393 4.76 17.564.891 2.475 1.673 4.725 1.739 5l.883 3.75c.421 1.787 1.095 3.25 1.499 3.25.404 0 1.677 2.813 2.828 6.25 1.151 3.438 3.053 8.725 4.227 11.75 1.174 3.025 2.493 6.85 2.932 8.5 1.876 7.051 6.951 17.666 8.105 16.953.469-.29.792-5.572.719-11.74-.072-6.167.181-15.713.563-21.213.382-5.5.907-16.3 1.166-24 .259-7.7.738-15.262 1.065-16.804l.594-2.805-8.084.305c-4.446.167-8.087.529-8.091.804m169.484 32.014c-.347.56-1.049.76-1.561.443-.512-.316-.931-.127-.931.421 0 .547 1.463 1.136 3.25 1.309 1.82.175 3.25.879 3.25 1.599 0 .708.6 1.658 1.334 2.111 1.081.668 1.045.935-.186 1.408-.835.32-1.708.045-1.939-.611-.231-.657-.428.035-.439 1.538-.011 1.502.374 2.488.855 2.191.481-.298.875.161.875 1.018s-.675 1.559-1.5 1.559-1.5.498-1.5 1.107.675.848 1.5.531c.825-.316 1.5-.139 1.5.393 0 .533-.45.969-1 .969s-1 .707-1 1.571c0 1.429-.143 1.429-1.571 0-2.108-2.107-2.693-1.979-1.931.423.5 1.576.281 1.858-1.049 1.348-1.448-.556-1.522-.347-.53 1.506.633 1.184 1.923 2.116 2.866 2.073 1.043-.048 1.225-.277.465-.583-.687-.278-1.25-.903-1.25-1.39 0-.487.701-.616 1.557-.288.857.329 1.312 1.238 1.012 2.021-.343.893-.12 1.16.597.716.678-.419.87-.265.472.379-.369.597-.244 1.349.277 1.671.521.322 1.229.128 1.575-.431.935-1.512 2.51-1.228 2.51.453 0 .946-.622 1.268-1.75.905-1.355-.436-1.439-.341-.372.42.809.576 1.051 1.512.586 2.264-.554.897-.322 1.102.774.681 2.168-.832 2.993.278 1.523 2.049-1.043 1.257-.787 1.38 1.759.844 1.639-.346 3.614-.221 4.389.277.775.498 1.985.685 2.687.416 1.275-.49 1.258-1.053-.151-4.825-.411-1.1-.869-2.598-1.019-3.328-.15-.731-.601-2.081-1.003-3-.402-.92-.914-2.774-1.138-4.121-.223-1.346-1.003-3.596-1.731-5-.728-1.403-2.153-4.41-3.166-6.682-1.109-2.487-2.349-3.937-3.115-3.643-.7.268-1.273.006-1.273-.584 0-1.611-3.738-3.375-4.508-2.128M33.937 211.35c-.831.633-1.348 1.937-1.15 2.9.198.963-.123 1.75-.714 1.75A1.07 1.07 0 0 1 31 214.941c0-.582-.45-.781-1-.441-1.598.987-1.202 7.209.5 7.862.825.316 1.5.139 1.5-.393 0-.533.477-.969 1.059-.969s.781.45.441 1c-.341.552.374 1 1.594 1h2.212l-2.153-1.867c-2.599-2.254-2.624-2.56-.431-5.122 2.209-2.579 3.061-2.539 3.458.161.176 1.194.945 2.377 1.709 2.629.843.278 1.115.014.691-.671-.42-.68.023-1.136 1.111-1.145 1.55-.013 1.594-.166.309-1.066-1.174-.822-1.011-.913.75-.417 1.237.348 2.256.265 2.264-.185.007-.449.285-1.829.616-3.067.516-1.923.214-2.25-2.072-2.25-1.789 0-2.436.388-1.953 1.17.507.82.151.944-1.191.414-3.416-1.349-4.94-1.404-6.477-.234M485 233.973a2958.475 2958.475 0 0 1-10 7.182c-13.235 9.448-19.125 14.054-18.619 14.559.311.311 2.152-.646 4.092-2.125 1.94-1.48 3.527-2.487 3.527-2.239 0 .249 1.438-.891 3.197-2.534 1.758-1.642 5.722-4.261 8.809-5.819 3.088-1.559 6.166-3.499 6.841-4.312 1.238-1.493 5.562-1.156 4.625.36-.824 1.334.865 1.782 3.278.87 1.877-.71 2.25-1.601 2.25-5.383 0-5.638-.878-5.699-8-.559M242 253c0 .55-1.687 1.046-3.75 1.102l-3.75.103 3.087.738c4.843 1.157 5.329 1.737 4.46 5.315-1.174 4.83-2.939 15.569-3.492 21.242-.268 2.75-.753 7.7-1.077 11-.535 5.435-.449 5.825.905 4.143 1.368-1.701 2.867-1.827 17.806-1.5l16.311.357.178-7.5c.22-9.281 1.359-27.099 1.831-28.647.441-1.449-4.295-2.423-23.294-4.787-2.357-.293-5.14-.991-6.185-1.55-2.383-1.275-3.03-1.279-3.03-.016m-31.508 2.003c-1.039.364-6.175.55-11.413.413-13.753-.359-13.082-1.225-13.064 16.869.009 8.368.398 15.818.866 16.556.494.78 3.104 1.463 6.234 1.631 2.962.16 6.397.622 7.635 1.026 1.753.573 2.25.351 2.25-1.004 0-1.485.235-1.544 1.611-.402 2.463 2.044 6.324 2.242 7.046.361.499-1.302.791-1.358 1.482-.287.705 1.092 1.04 1.062 1.846-.166.885-1.349 1.446-.731 1.133 1.25-.065.413 2.526.75 5.757.75s7.281.281 9 .625c2.716.543 3.125.347 3.125-1.5 0-1.169-.398-2.125-.883-2.125-.486 0-1.12-1.012-1.409-2.25-.584-2.502-5.264-14.307-6.713-16.934-2.768-5.016-5.086-14.143-3.807-14.989 1.526-1.009-7.754-.856-10.696.176m26.98 45.449c-.786 2.651-1.761 12.823-1.97 20.548-.126 4.675-.564 12.223-.972 16.774l-.742 8.273 17.856-.273 17.856-.274.131-7.5c.072-4.125.404-10.65.737-14.5 1.683-19.414 1.684-21.457.013-20.816-.87.334-5.249.114-9.731-.49-18.201-2.449-22.865-2.799-23.178-1.742m64.349 52.298c16.127.154 42.227.154 58-.001 15.774-.154 2.579-.281-29.321-.281-31.9 0-44.805.127-28.679.282" fill="#d3d3d3" fill-rule="evenodd"/></svg>