<svg xmlns="http://www.w3.org/2000/svg" width="500" height="353"><path d="M0 58.83c0 32.36.282 59.119.627 59.463.345.345 1.96-.062 3.59-.905 3.722-1.925 5.783-1.184 5.783 2.081 0 1.392.45 2.531 1 2.531s1-.942 1-2.094c0-1.252.803-2.303 2-2.616 1.1-.288 2-.866 2-1.285 0-.419 1.34-1.317 2.978-1.996 2.585-1.07 3.44-.96 6.491.84 1.933 1.14 5.249 2.283 7.369 2.538C43.286 118.646 47 120.105 47 122.948c0 2.104 7.395-.467 12.931-4.496 4.474-3.256 11.055-3.112 12.543.272 2.015 4.583 9.252 3.573 12.542-1.749 2.805-4.539 9.187-7.955 11.82-6.327.915.566 2.087 2.898 2.605 5.184.585 2.586 1.629 4.373 2.764 4.733 1.003.318 1.566.997 1.251 1.507-.316.51.128.928.985.928s1.559.477 1.559 1.059.518.739 1.151.347c.827-.51.731-1.021-.337-1.809-1.735-1.278-1.27-3.597.72-3.597.751 0 1.753.691 2.226 1.536.473.844 2.148 1.88 3.723 2.301 3.281.878 5.799 4.136 3.767 4.875-1.901.691-1.492 4.12.65 5.458 1.045.652 1.672 1.781 1.393 2.508-.644 1.679-4.268 1.739-4.367.072-.32-5.378-1.448-7.628-3.03-6.046-.76.76-.756 1.265.017 1.742 1.584.979 1.329 2.554-.413 2.554-.825 0-1.5.45-1.5 1s-.627 1-1.393 1c-1.798 0-2.866 2.73-1.301 3.325.657.25-.253.436-2.022.413-1.768-.022-3.003-.384-2.743-.805.759-1.227-4.071-6.365-7.943-8.45-4.612-2.484-7.099-.837-4.024 2.663 1.942 2.212 1.856 2.221-2.865.327-1.231-.494-1.7-.3-1.5.621.205.941-1.398 1.531-5.391 1.983-3.211.364-6.405 1.368-7.345 2.307-2.142 2.142-7.464 4.902-7.503 3.892-.017-.427-.481-.004-1.031.94-.937 1.607-1.219 1.593-4.461-.229-2.827-1.587-3.967-1.744-6.22-.855-4.174 1.647-16.233 1.556-20.008-.151-4.007-1.811-4.037-2.246-.25-3.675 1.672-.631 3-1.866 3-2.791 0-1.507-.143-1.515-1.571-.086-1.981 1.981-2.811 2.009-2.067.071.347-.905.005-1.5-.862-1.5s-1.209.595-.862 1.5c.43 1.119-.149 1.496-2.281 1.485-2.153-.012-2.494-.245-1.386-.946.809-.512 1.157-1.244.774-1.627s-1.33-.171-2.104.471c-1.597 1.325-3.191-1.185-1.988-3.131.419-.678-.036-.851-1.247-.475a933.3 933.3 0 0 1-4.082 1.255c-1.523.464-2.695.058-3.902-1.352-1.367-1.596-2.227-1.824-4.141-1.097-2.112.803-2.34.677-1.808-.998.888-2.799-1.011-3.428-4.195-1.39C-.051 131.107 0 130.916 0 147.518c0 14.986.097 15.747 2.25 17.648l2.25 1.986-2.25-.482c-2.22-.476-2.25-.344-2.25 9.924 0 5.723.337 10.31.75 10.194.412-.117 1.762.349 3 1.035 2.213 1.227 2.918.3 2.359-3.101-.275-1.676 3.047-1.891 4.23-.273 1.537 2.101 6.867.252 5.975-2.073-.29-.757-.003-1.376.638-1.376s.89.447.552.993c-.356.576.46.905 1.941.782 4.376-.362 2.158-2.775-2.552-2.775-1.152 0-2.329-1.017-2.893-2.5-.523-1.375-1.412-2.5-1.975-2.5-2.113 0-.931-2.003 1.225-2.076 1.955-.066 1.856-.23-.75-1.25-4.209-1.647-5.814-2.841-7.23-5.378-1.413-2.533-.788-3.155 2.73-2.714 10.976 1.377 13.394 1.411 14.265.2.645-.896.741-.721.318.579-.507 1.558-.215 1.763 1.791 1.26 1.532-.384 2.85-.055 3.653.911.705.85 2.049 1.261 3.065.939.995-.316 3.744-.022 6.109.652 2.364.675 4.907 1.118 5.649.985.818-.146 1.06.229.613.952-.544.88-.272.933 1.035.201 1.329-.743 2.238-.525 3.637.874 1.026 1.026 3.242 1.865 4.924 1.865 3.834 0 3.057-1.497-1.288-2.485-3.213-.73-3.227-.757-.771-1.486l2.5-.742-3-.727c-3.83-.928-4.379-1.172-8-3.56-1.65-1.088-3.562-2.256-4.25-2.596-.688-.34-1.25-1.47-1.25-2.511 0-1.048-.696-1.893-1.559-1.893-.857 0-1.281-.45-.941-1 1.114-1.803-.725-1.047-2.537 1.043-1.322 1.523-2.444 1.874-4.414 1.38-1.453-.365-2.382-.923-2.064-1.241.318-.318-.449-1.148-1.704-1.845-2.129-1.182-2.148-1.271-.281-1.342 1.671-.063 1.532-.329-.845-1.617-2.19-1.187-2.712-2.041-2.264-3.71.32-1.192.588-2.459.595-2.814.035-1.653 15.945-2.066 17.555-.455 1.446 1.446 5.937 2.18 10.767 1.761.995-.086 1.56.245 1.256.737-1.646 2.663 8.712 2.827 11.36.179 4.283-4.283 12.647-6.358 13.775-3.418.283.738 1.142 1.342 1.908 1.342 1.619 0 1.859 1.594.377 2.51-.559.346-.753 1.054-.431 1.575a1.12 1.12 0 0 0 1.54.357c1.638-1.012 7.089.642 6.57 1.994-.263.685-.076 1.88.414 2.655.717 1.132.895 1.059.908-.372.019-2.302 2.621-3.291 4.516-1.718 1.176.976 2.297.897 5.508-.388 5.021-2.009 4.991-2.011 4.991.27 0 4.072 14.686 2.56 26-2.677 3.025-1.4 6.436-2.601 7.58-2.67 1.145-.068 3.395-1.17 5-2.447l2.92-2.323-3.375.724c-2.366.507-3.171.393-2.691-.383 1.155-1.869-.494-1.234-3.616 1.393-2.979 2.507-5.476 3.374-4.318 1.5.34-.55-.098-1-.972-1-.875 0-1.845.663-2.157 1.474-.491 1.281-.754 1.286-2 .04-.79-.79-2.965-1.722-4.834-2.073-2.204-.414-3.225-1.091-2.903-1.929.274-.715 1.359-1.065 2.431-.785 1.124.294 1.935.001 1.935-.7 0-.853 1.976-1.116 6.75-.898 3.713.169 7.272-.017 7.91-.414.638-.397 1.921-.429 2.851-.073.959.369 2.045.076 2.51-.676.45-.729 1.643-1.397 2.649-1.485 3.969-.347 8.33-1.687 8.33-2.56 0-.507.338-.868.75-.803 4.229.668 7.378-2.065 4-3.472-2.37-.987 2.324-3.666 5.162-2.946 1.423.361 4.388.624 6.588.584 2.2-.04 4.868.388 5.928.952 1.807.96 1.718 1.196-1.402 3.743-1.832 1.495-3.031 3.203-2.665 3.796 1.011 1.635 5.901-.127 9.027-3.254l2.712-2.712 1.795 2.07 1.795 2.069 1.319-2.464c1.14-2.132 1.081-2.727-.443-4.411-.969-1.071-1.466-2.425-1.105-3.01s.233-1.063-.285-1.063c-.92 0-2.513-3.714-2.271-5.291.254-1.647-2.121-4.856-4.22-5.702-1.306-.526-1.578-.906-.676-.944 1.81-.076 4.303-3.749 3.466-5.104-.329-.532.768-.959 2.466-.959 2.052 0 3.059-.494 3.059-1.5 0-.825.45-1.5 1-1.5 1.041 0 1.355 1.271 1.052 4.25-.098.963.349 1.75.994 1.75.76 0 .943.907.522 2.584-.42 1.675-.283 2.358.392 1.941.572-.354 1.04-1.324 1.04-2.155 0-.832.679-2.192 1.509-3.022.83-.83 1.211-1.992.846-2.583-.399-.645-.193-.783.515-.345.649.401 1.056.358.905-.096-.902-2.706 2.086-.992 3.924 2.25 1.995 3.52 2.056 4.04.652 5.59-1.716 1.896-.904 4.262 1.188 3.46.734-.282 1.517.249 1.738 1.181.289 1.216.62.918 1.171-1.055.423-1.513 1.17-2.75 1.66-2.75.491 0 .892-.707.892-1.572 0-.864 1.216-3.648 2.703-6.185 1.487-2.537 2.257-4.337 1.712-4-.545.337-1.081-.48-1.192-1.815-.11-1.335.165-2.428.611-2.428 1.133 0 5.169-8.313 5.151-10.61-.013-1.586-.171-1.649-.985-.39-.828 1.282-.972 1.246-.985-.25-.008-.963.383-1.75.868-1.75.486 0 1.099-1.125 1.362-2.5.263-1.375.13-2.5-.295-2.5-1.485 0-.27-3.322 1.839-5.03 1.169-.947 1.961-1.89 1.76-2.096-.201-.206 1.168-.455 3.042-.553 3.261-.171 4.055.726 3.514 3.97-.073.434.325 1.644.884 2.689.678 1.267.683 2.105.014 2.518-.552.341-1.003 2.183-1.003 4.092 0 2.164-.565 3.69-1.5 4.048-2.378.913-1.745 2.112 1.114 2.112 1.437 0 3.005.619 3.484 1.375.696 1.098.874 1.109.887.054.012-1.041.322-1.015 1.459.122 1.5 1.5 6.556 1.178 6.556-.418 0-.485.45-.883 1-.883 1.302 0 1.302 4.695 0 5.5-.55.34-1 1.111-1 1.714 0 .635.735.46 1.75-.418 2.654-2.296 6.457-2.917 8.213-1.342.935.839 2.661 1.161 4.408.823l2.87-.556-3.37-1.457c-3.247-1.404-3.289-1.49-1.121-2.329 1.237-.479 2.25-1.362 2.25-1.962 0-.6-.45-.813-1-.473-.55.34-1 .141-1-.441s-.338-1.006-.75-.941c-2.992.473-4.342-.254-3.777-2.034.335-1.054.092-2.235-.539-2.625-.86-.531-.855-.89.019-1.43.784-.485.368-1.244-1.27-2.317-2.162-1.417-2.353-2.046-1.703-5.602.544-2.976.384-4.14-.624-4.527-3.051-1.171-1.297-2.796 2.394-2.218 2.367.371 3.023.286 1.778-.23-1.775-.735-1.695-.87.808-1.348 2.085-.399 2.648-.189 2.253.841-.295.77.104 1.372.911 1.372.837 0 1.208-.599.888-1.432-.348-.907.581-2.018 2.531-3.026 2.936-1.518 3.081-1.501 3.081.37 0 1.324.629 1.916 1.931 1.818 1.062-.08 1.724-.479 1.472-.887-.253-.409.454-1.231 1.569-1.828 2.376-1.272 2.681-3.015.528-3.015-2.164 0-1.844-1.304.712-2.901l2.213-1.381-3.368-2.811c-2.574-2.149-3.786-2.587-5.146-1.859-2.663 1.425-3.32 1.154-1.783-.735 1.201-1.478 1.154-1.606-.378-1.032-2.533.95-4.75-.193-4.75-2.447 0-1.221.432-1.685 1.155-1.239.768.475.88.271.335-.61-.585-.948-.368-1.152.763-.718.91.349 1.815-.003 2.133-.83.303-.79 1.578-1.473 2.833-1.516 1.254-.043 1.719-.306 1.031-.583-.687-.278-1.25-.944-1.25-1.48 0-.537.412-.722.915-.411.503.311 1.101.004 1.33-.682.311-.934.772-.867 1.835.268 2.142 2.285 2.115 3.792-.09 4.972-1.094.586-1.99 1.755-1.99 2.598 0 1.859 4.352-.885 10.25-6.463 2.085-1.971 3.75-2.943 3.75-2.188 0 1.036.434.965 1.829-.297 1.006-.91 2.356-1.655 3-1.655.644 0 1.171-.833 1.171-1.851 0-5.561 4.338-11.186 5.693-7.382 1.344 3.774 2.438 4.377 4.948 2.732 1.298-.85 2.373-1.197 2.389-.772.017.425.491-.018 1.055-.985.563-.967.7-2.281.305-2.92-.504-.815-.147-.928 1.196-.378 3.791 1.551 5.73 1.877 5.1.856-.943-1.525 8.71-6.504 10.037-5.177.75.75 1.712.715 3.272-.12 1.215-.651 3.032-.968 4.038-.705 1.946.509 6.487-3.444 5.309-4.622-.371-.372-.124-.676.55-.676s.905-.52.513-1.155c-.44-.711-.275-.883.429-.448.708.438.942.184.616-.667-.311-.81.479-1.832 1.925-2.491 1.348-.614 2.746-2.045 3.106-3.178C329.84 6.927 330.707 6 331.407 6 332.455 6 335 2.077 335 .462c0-.245-75.375-.45-167.5-.456L0-.006V58.83M355.209 1.238c.892.694 1.773 2.125 1.957 3.179.411 2.359 2.834 3.356 2.834 1.166 0-2.065.815-1.993 4.78.424 2.845 1.735 3.358 1.797 3.868.468.495-1.291 1.082-1.158 3.72.842C376.442 10.405 389 12.03 389 9.469c0-.873.457-1.304 1.016-.959.559.346.758 1.047.441 1.559-.316.512.127.931.984.931s1.559-.445 1.559-.988c0-.544 1.011-.881 2.247-.75 1.658.176 2.331-.351 2.569-2.012.332-2.311-.594-2.692-5.566-2.289-1.238.1-2.243-.188-2.235-.639.04-2.136 1.817-3.124 5.32-2.96 2.106.099 4.03-.144 4.275-.54.245-.396-10.01-.749-22.789-.783-18.885-.051-22.931.174-21.612 1.199m131.749 138.841c-.858 1.603-1.714 1.948-3.636 1.466-3.403-.854-5.471 1.015-4.666 4.219.444 1.77.29 2.321-.51 1.826-.63-.389-1.146-1.356-1.146-2.149 0-1.894-1.43-1.833-3.06.131-.928 1.119-2.453 1.44-5.285 1.113-2.954-.342-4.494.019-5.977 1.4-1.098 1.023-3.837 2.224-6.087 2.669-3.038.6-4.427 1.508-5.396 3.527-.862 1.798-2.087 2.719-3.615 2.719-1.271 0-3.383.824-4.695 1.83-1.312 1.007-4.494 2.408-7.071 3.112-2.577.705-4.927 1.909-5.221 2.676-.663 1.727 2.548 14.625 3.878 15.578.534.382.66 1.006.28 1.387-.381.38.195 1.937 1.279 3.458 2.452 3.444 2.603 5.738.22 3.343-1.669-1.677-1.765-1.655-2.077.487-.18 1.234.421 3.386 1.335 4.781 1.881 2.871 1.325 7.015-.941 7.015-.814 0-1.272-.336-1.018-.746.253-.41-.329-.594-1.294-.41-.965.185-2.101.37-2.524.412-.423.043-.488 1.198-.144 2.568.903 3.596-1.907 4.338-5.171 1.365-4.618-4.206-7.885-7.606-9.416-9.797-1.161-1.661-2.583-2.165-6.289-2.23-5.021-.088-7.016.747-4.904 2.052 1.225.757-3.298 3.703-5.057 3.294-1.687-.393-.599 2.835 1.298 3.851 2.837 1.518 6.048 9.974 3.788 9.974-.578 0-.785.689-.462 1.532.387 1.009-.224 1.841-1.788 2.435-1.307.497-2.556 1.443-2.776 2.102-.281.843-.885.714-2.033-.435-1.779-1.779-4.28-2.258-3.272-.626.934 1.511-1.508 3.418-6.121 4.778-5.204 1.535-6.447 1.528-6.134-.036.138-.687-.353-1.124-1.09-.97-.737.154-2.585.425-4.106.602-3.644.424-5.08 1.386-4.465 2.99.564 1.469-1.317 3.292-3.589 3.479-5.487.451-7.238.909-8.892 2.324-1.026.879-2.033 2.098-2.237 2.71-.475 1.423-6.871 3.327-6.871 2.045 0-.511-.702-.93-1.559-.93s-1.284-.445-.948-.989c.363-.587-.12-.73-1.191-.352-1.473.519-1.574.39-.552-.712 1.951-2.103 1.47-3.135-.877-1.879-1.17.626-2.408.755-2.75.285-.343-.469-2.093-1.379-3.889-2.022-3.089-1.106-3.346-1.014-4.746 1.693-1.041 2.013-2.075 2.748-3.484 2.477-2.135-.411-2.896 2.035-.846 2.718.773.258.898 1.366.377 3.334-.43 1.621-.979 2.413-1.221 1.76-.32-.867-.896-.794-2.126.267-9.519 8.205-10.466 8.441-12.487 3.107-.378-.998-1.102-1.557-1.609-1.244-.506.313-1.15.004-1.43-.687-.33-.813-.801-.903-1.336-.256-1.338 1.62-4.143 1.128-5.76-1.011-.911-1.206-1.515-1.474-1.534-.68-.018.72-.435 1.06-.927.756-.493-.305-1.164.147-1.493 1.004-.329.857-1.004 1.307-1.5 1-1.092-.675-2.408 2.044-2.582 5.334-.07 1.322-1.167 3.122-2.439 4-1.271.878-3.407 2.609-4.747 3.847-2.967 2.741-2.982 2.742-3.644.211-.507-1.938 2.522-5.961 4.489-5.961.446 0 .811-.852.811-1.893 0-1.976-2.509-3.529-4.107-2.541-1.429.883-.018 2.419 1.639 1.783.807-.309 1.468-.113 1.468.437 0 1.425-2.445 2.175-3.986 1.222-.718-.443-1.029-1.527-.691-2.407.433-1.128.042-1.601-1.323-1.601-1.196 0-1.743.506-1.429 1.323.393 1.026-.786 1.246-5.255.977-5.631-.338-16.316 2.105-16.316 3.73 0 1.213-3.283 2.13-3.923 1.095-.931-1.507-6.294-.012-6.792 1.894-.555 2.122-6.042 2-7.7-.171-2.732-3.58-7.597-6.004-10.685-5.326-2.892.635-3.009.549-1.945-1.438.92-1.718.827-2.23-.492-2.737-.987-.378-1.433-1.354-1.137-2.486.268-1.025.079-1.612-.419-1.303-.499.308-.914-.479-.922-1.749-.013-1.857-.205-2.015-.983-.809-.84 1.302-1.482 1.208-4.86-.708-3.677-2.086-5.142-2.105-5.142-.066 0 .49.45.614 1 .274.55-.34 1-.19 1 .334 0 2.646-3.175 1.563-7.079-2.415-5.513-5.617-10.093-6.266-9.721-1.376.128 1.674 1.035 3.905 2.016 4.958 1.966 2.111 2.337 3.999.784 3.999-1.717 0-1.102 1.807 1.5 4.409 1.375 1.375 2.514 3.533 2.53 4.796.026 1.957.173 2.051.998.638.973-1.666 4.972-1.471 4.972.242 0 .469.617.615 1.371.326s1.651.203 1.993 1.095c.342.891 1.028 1.37 1.524 1.063.496-.307 1.149.086 1.451.872.302.786.128 1.571-.387 1.744-.514.173-1.038 1.567-1.164 3.098-.288 3.488-3.583 6.657-7.941 7.636-5.038 1.133-5.903.5-4.141-3.031 1.812-3.633 1.529-4.045-2.11-3.072-1.644.44-3.916 2.391-5.491 4.717-1.83 2.703-3.549 4.068-5.396 4.283-1.49.174-2.709.767-2.709 1.318 0 .564.924.708 2.118.328 1.532-.486 1.994-.297 1.667.683-.248.745-.864 1.362-1.368 1.37-.505.009-1.444.351-2.088.761-3.747 2.383-32.189 2.636-33.896.301-.7-.957-2.322-1.654-3.603-1.548-1.282.106-3.455.106-4.83 0-2.475-.19-2.47-.205.5-1.565 2.948-1.35 2.956-1.376.5-1.489-2.3-.106-2.34-.184-.5-.975 1.898-.816 1.884-.863-.281-.93-1.255-.038-2.557.646-2.893 1.522-.714 1.86-9.077 1.157-10.826-.91-1.008-1.191-2.075-1.346-10.769-1.563-4.567-.114-4.743-.225-4.142-2.619.387-1.54.202-2.5-.481-2.5-.609 0-1.108.477-1.108 1.059s-.419.8-.931.484c-.512-.317-1.213-.118-1.559.441-.345.559.186 1.03 1.181 1.046 1.726.029 1.727.078.03 1.066-2.272 1.323-6.298.737-5.971-.87.137-.674-.2-1.226-.75-1.226s-1-.445-1-.989 1.013-.952 2.25-.908c1.238.045 5.168-.437 8.735-1.071 6.898-1.225 13.33-.317 17.672 2.496 1.838 1.189 2.237 1.191 2.69.01.737-1.921-2.884-4.059-9.156-5.404-7.657-1.642-13.191-1.488-13.191.366 0 .833-.889 1.5-2 1.5-1.1 0-2-.438-2-.974 0-1.352-5.047-3.83-8.574-4.211-3.993-.43-5.175-1.718-4.77-5.197.413-3.544-.39-2.891 6.835-5.558 3.687-1.362 6.992-3.412 8.597-5.334l2.606-3.123 2.699 2.699c2.891 2.891 6.381 3.427 9.923 1.524 6.271-3.369 10.684-1.805 10.684 3.788 0 .762.533 1.386 1.186 1.386.652 0 2.203.956 3.447 2.124 2.013 1.892 2.426 1.96 3.766.62.828-.828 1.264-1.748.968-2.044-.296-.296.364-1.021 1.467-1.611 1.436-.769 2.108-.763 2.369.019.2.601 2.035 1.092 4.078 1.092 2.042 0 3.475.386 3.184.857-.292.472.875 1.585 2.593 2.473 2.842 1.47 3.281 1.474 4.862.043.955-.865 2.152-1.574 2.659-1.575.506-.002.982-2.477 1.057-5.5.075-3.024-.262-5.498-.75-5.498-.487 0-.916.563-.953 1.25-.037.688-.707-.775-1.489-3.25-.782-2.475-1.216-5.062-.964-5.75.251-.687-.005-1.25-.57-1.25-.566 0-.752-.446-.415-.992s.181-1.764-.347-2.708c-.698-1.248-.509-2.089.696-3.082 1.508-1.244 1.477-1.325-.344-.906-1.1.254-2.796.789-3.769 1.189-1.559.641-1.649.412-.755-1.938.857-2.253.644-3.034-1.375-5.053-1.314-1.314-2.137-2.641-1.828-2.949.308-.309.062-.561-.547-.561-.61 0-1.386.45-1.726 1-.34.55-1.232 1-1.983 1-.934 0-.678-.774.809-2.446 1.368-1.539 2.526-2.095 3.124-1.5 1.465 1.459 2.121 1.134 2.121-1.049 0-2.065-2.423-2.387-3.806-.505-.415.565-.741.238-.75-.75-.008-.963-.465-1.75-1.015-1.75-.55 0-1 .661-1 1.469 0 1.779-2.91.912-4.718-1.407-.818-1.048-1.229-1.151-1.25-.312-.055 2.149-2.032 1.362-2.032-.809 0-1.132.338-1.855.75-1.605.413.25 1.401-.249 2.196-1.109 1.285-1.388 1.2-1.499-.75-.989-1.208.316-2.196.145-2.196-.379 0-.525-1.191-2.058-2.646-3.407L142.708 194l2.896-.03c2.689-.029 2.753-.115.896-1.203-1.1-.645-3.238-1.048-4.75-.895-2.558.259-3.31-.604-2.828-3.245.088-.48-.557-.597-1.433-.261-1.04.399-1.347.214-.886-.532.464-.752.258-.866-.603-.334-.921.569-1.069.421-.5-.5.51-.825.417-1.067-.252-.653-.666.412-.906-.182-.644-1.596.23-1.238.151-1.688-.176-1.001-.327.688-1.034 1.25-1.57 1.25-.537 0-.698-.45-.358-1 .357-.577-.57-.994-2.191-.985-2.181.012-2.474.232-1.309.985.825.533 1.13.976.679.985-.452.008-.073.764.843 1.68 1.553 1.553 1.525 1.739-.415 2.778-2.34 1.252-10.107.831-10.107-.548 0-.492-1.463-.954-3.25-1.027l-3.25-.131L117 187c2.218-.467 2.698-.785 1.309-.868-1.205-.073-2.45-.552-2.767-1.065-.317-.513-1.962-.893-3.655-.845-1.692.048-3.478-.544-3.967-1.317-.685-1.083-.893-1.105-.905-.096-.008.72-.494 1.013-1.08.651-.697-.431-.471-1.315.655-2.559 2.026-2.24.749-2.472-2.031-.369-2.106 1.592-6.025 2.031-5.124.573.305-.493-.156-1.168-1.023-1.5-2.377-.913-2.684-.755-2 1.027.538 1.402-.006 1.561-3.852 1.128-2.816-.318-4.651-.088-4.943.617-.333.805-.699.815-1.291.035-.956-1.259-5.324-2.544-5.329-1.568-.002.361-1.758.676-3.903.701-3.226.038-3.841-.265-3.555-1.75.255-1.323-.283-1.795-2.047-1.795-1.316 0-2.752-.596-3.192-1.325-1.19-1.972-4.373-2.859-5.853-1.631-.714.593-1.895.997-2.623.898-4.004-.542-3.758.399.676 2.58 2.75 1.353 5.675 2.509 6.5 2.569.825.059.375.469-1 .909-1.771.567-1.972.83-.691.9.995.055 1.531.55 1.191 1.1-.34.55.084 1 .941 1s1.559.464 1.559 1.031c0 .568.787 1.304 1.75 1.636 6.888 2.377 15.259 6.982 16.33 8.982.691 1.291 1.454 2.151 1.695 1.91.241-.241 1.367.427 2.502 1.484 2.011 1.874 2.016 1.976.217 3.964-2.312 2.554-1.556 3.311 5.747 5.755 3.158 1.057 5.408 2.255 5 2.663-.407.408-.291.651.259.54 2.141-.432 2.695.096 1.549 1.476-.657.792-1.837 1.194-2.622.893-.785-.302-1.427-.019-1.427.629 0 .655-.997 1.024-2.25.833-1.237-.189-2.148-.863-2.024-1.499.236-1.201-4.186-1.17-5.394.038-.366.366-1.689.665-2.94.665s-2.552.45-2.892 1c-.34.55-1.604 1.006-2.809 1.013-1.28.008-4.572 2.294-7.92 5.5-6.213 5.95-7.991 6.45-12.991 3.649-3.942-2.208-7.057-1.745-3.766.56 3.354 2.349.955 3.71-3.361 1.907-2.13-.89-3.847-1.123-4.19-.569-.32.517-1.417.94-2.439.94-1.021 0-2.017.48-2.213 1.067-.212.636-4.059 1.135-9.516 1.234-5.038.092-9.002.325-8.81.518.193.192-.387 1.212-1.289 2.266-2.542 2.968-11.22 2.65-15.981-.585-2.024-1.375-4.197-2.5-4.831-2.5-.633 0-1.386-.9-1.674-2-.287-1.1-1.015-2-1.616-2C.314 228 0 245.934 0 290.502v62.502l250.25-.252 250.25-.252v-77c0-68.247-.665-138.283-1.28-134.724-.175 1.014-.784.991-2.97-.11-5.361-2.701-8.069-2.872-9.292-.587M1 211.319c0 6.937.148 7.427 2.575 8.533 1.416.645 2.953.94 3.415.654.461-.285.99-.135 1.175.333.184.468 1.61 1.164 3.169 1.546 1.862.457 2.613.339 2.191-.345-.354-.572-1.49-1.04-2.525-1.04s-2.19-.498-2.566-1.107c-.476-.77.268-.898 2.441-.42 2.653.582 3.125.396 3.125-1.234 0-1.52-1.199-2.193-5.75-3.226-3.162-.719-5.185-1.504-4.494-1.745.691-.241 1.002-.85.691-1.353-.311-.503.388-.915 1.553-.915s1.864-.412 1.553-.915c-.311-.503 0-1.107.691-1.342.691-.235-.656-1.407-2.994-2.605L1 203.959v7.36m123.559-4.787c-1.392 1.053-1.533 1.472-.5 1.483 1.212.013 1.221.155.056.893-1.107.701-.956 1.107.75 2.02 1.664.89 2.144.859 2.175-.143.022-.707.762.065 1.645 1.715.883 1.65 2.029 3.275 2.546 3.612.517.336.835.786.708 1-.128.213.089 1.4.482 2.638.725 2.284 2.579 3.135 2.579 1.183 0-.613.853-.797 2-.433 1.178.374 2 .18 2-.472 0-.722.485-.658 1.395.183.767.709 1.191 1.627.941 2.039-.25.412.559.75 1.796.75 2.132 0 2.154-.071.407-1.348-1.681-1.229-1.485-1.405 2.229-1.999 2.24-.358 4.784-.378 5.653-.045 1.159.445 1.588-.021 1.614-1.751l.036-2.357 1.316 2.373c1.313 2.37 1.316 2.37 1.879.218.801-3.063-3.356-5.599-10.665-6.506-1.045-.13-2.62-1.102-3.5-2.16-1.138-1.368-2.741-1.88-5.539-1.771-2.165.085-4.978-.242-6.25-.725-1.436-.547-2.312-.51-2.312.096a.975.975 0 0 1-.969.975c-.532 0-.709-.675-.393-1.5.708-1.844.395-1.84-2.079.032M.471 290.5c0 34.65.125 48.68.279 31.178.153-17.503.153-45.853-.001-63C.596 241.53.471 255.85.471 290.5m381.476-33.385c-3.571 2.577-6.707 4.04-8.786 4.099-1.778.051-3.554.633-3.947 1.293-.772 1.298-5.088 3.854-6.714 3.975-1.43.107-12.623 3.581-15 4.655-1.55.701-1.347.775.904.326 1.597-.318 4.244-.023 5.883.656 2.754 1.141 3.128 1.031 4.93-1.442 1.072-1.473 2.602-2.677 3.4-2.677.797 0 3.647-1.114 6.334-2.475 2.686-1.361 6.721-2.769 8.966-3.128 2.246-.359 4.083-1.032 4.083-1.496 0-1.828 8.33-4.726 10.842-3.771 1.339.509 2.663.698 2.942.419.278-.278-.571-.937-1.889-1.464-1.317-.527-1.945-1.018-1.395-1.092 1.142-.153-2.478-1.844-4-1.869-.55-.009-3.499 1.787-6.553 3.991m-78.361.79c-1.043 1.152-1.426 2.095-.851 2.095 2.216 0 .085 7.463-2.893 10.132-1.615 1.447-3.767 4.259-4.782 6.25L293.216 280l3.142.015c4.865.024 6.718 1.626 3.358 2.903-1.494.568-2.716 1.299-2.716 1.625 0 .936 4.42-.691 5.235-1.928.404-.614.741.148.75 1.694.008 1.545-.397 2.554-.901 2.243-1.304-.806-11.084 1.428-11.084 2.531 0 .504.788.952 1.75.996.962.043 3.775.223 6.25.401 3.946.282 4.81-.042 7.013-2.627 2.485-2.915 2.555-2.931 6.19-1.412 3.633 1.517 6.797.432 6.797-2.331 0-2.356 6.643-8.016 8.76-7.463 1.894.496 2.217.228 1.999-1.658-.271-2.354 1.034-3 6.491-3.214 1.512-.06 2.75-.374 2.75-.698 0-2.513-24.232-5.094-28.147-2.998-1.389.743-1.853.645-1.853-.391 0-.76-.91-2.431-2.021-3.713-1.112-1.282-1.643-2.588-1.181-2.903.463-.314.581-1.627.263-2.917l-.578-2.346-1.897 2.096M359.5 277c-1.65.42-5.326.817-8.168.882-6.366.145-8.336.85-8.317 2.975.012 1.245.215 1.329.839.346.656-1.034 1.087-.979 2.127.274.717.864.99 1.885.607 2.268-.383.383-1.01.26-1.392-.274-.383-.534-2.046-.927-3.696-.874-4.549.148-5.124.355-3.622 1.307.822.52 1.055 1.395.578 2.168-.603.975-.978.818-1.518-.638-.663-1.788-.792-1.745-1.7.566-2.618 6.658-2.57 9 .183 9 1.53 0 2.477.508 2.329 1.25-.141.703.953 1.388 2.5 1.566 1.93.223 2.75-.135 2.75-1.2 0-.834.788-1.975 1.75-2.536.971-.566 1.194-1.033.5-1.05-2.134-.052-2.694-.197-4.528-1.179-.978-.523-1.558-1.307-1.289-1.743.831-1.344 6.922-.492 7.932 1.11.818 1.296 2.083.958 8.785-2.352 4.306-2.126 8.262-3.866 8.79-3.866.528 0 1.35-.695 1.826-1.546.7-1.251 1.402-1.341 3.695-.469 3.041 1.156 13.539.993 13.539-.211 0-1.843-5.139-3.787-10.326-3.906-3.121-.072-5.674-.574-5.674-1.116 0-.542-.9-.75-2-.462-1.1.287-2 .115-2-.384 0-1.004-.203-.999-4.5.094" fill="#d3d3d3" fill-rule="evenodd"/></svg>