<svg xmlns="http://www.w3.org/2000/svg" width="500" height="500"><path d="M340 99c-.825.533-1.05 1.021-.5 1.084.55.064-.125.439-1.5.835-1.375.397-2.76.339-3.077-.128-.317-.467-2.567.055-5 1.158-2.977 1.351-3.728 2.014-2.295 2.029 2.877.03 4.717 2.277 3.148 3.846-.901.901-.808 1.176.402 1.176.867 0 2.137-.675 2.822-1.5 1.401-1.689 3.47-2.07 2.473-.456-.355.574-.092 1.71.583 2.524 1.421 1.712 1.501 1.61-2.988 3.792-1.958.952-3.679 1.269-4.007.739-.326-.527-1.409-.318-2.508.486-1.808 1.322-1.816 1.415-.122 1.415 1.499 0 1.598.26.569 1.5-1.372 1.654-4.488 2.099-3.5.5 1.033-1.672-3.883-1.12-6.527.732-1.36.952-2.698 1.558-2.973 1.347-.275-.212-1.493 1.371-2.706 3.518-2.261 3.998-9.883 7.685-11.266 5.449-.36-.583-1.141-.586-2.054-.009-.811.513-1.024.946-.474.963 1.994.061-2.059 1.97-4.215 1.985-3.105.021-5.19 3.966-2.471 4.677 1.88.491 1.895.672.351 4.288-1.5 3.511-1.894 3.767-5.639 3.662-2.214-.061-5.095.274-6.401.745-1.663.6-2.17.525-1.691-.25.376-.609.159-1.107-.482-1.107s-.907.675-.59 1.5c.334.871.016 1.5-.758 1.5-.733 0-2.856 1.343-4.718 2.984-1.863 1.641-3.836 2.994-4.386 3.006-.55.013-1.791 1.413-2.758 3.112-.968 1.699-2.655 3.324-3.75 3.61-1.096.287-1.992 1.144-1.992 1.905 0 1.733-.983 1.711-3.339-.074-1.964-1.488-3.015-1.4-8.943.75-4.062 1.473-7.045 3.707-4.949 3.707.644 0 .902.695.574 1.549-.327.852-1.326 1.402-2.219 1.221-.893-.18-2.394.635-3.336 1.811-2.04 2.548-8.804 4.616-14.895 4.554-2.416-.025-5.612-.06-7.101-.077-2.682-.032-5.052-2.706-4.715-5.319.355-2.755-.13-4.824-1.005-4.283-.51.315-1.216-.333-1.567-1.441-.352-1.108-1.397-2.076-2.322-2.151-.926-.075-3.412-.283-5.526-.463-3.124-.265-3.732-.038-3.252 1.213.468 1.217-.087 1.486-2.657 1.286-1.786-.139-4.26.082-5.498.491-2.861.946-6.25-.102-6.25-1.933 0-1.018.798-1.248 2.879-.832 1.583.316 3.152.133 3.486-.408.846-1.369-14.091-1.887-24.365-.845-5.291.536-8.936-.177-7.004-1.371.693-.428.934-1.306.536-1.95-.513-.83-1.124-.644-2.096.638-1.285 1.695-1.374 1.699-1.404.06-.023-1.269-.788-1.713-2.782-1.614-2.36.117-2.431.198-.498.57 1.797.346 1.999.683 1 1.67-1.747 1.725-4.752 2.752-4.752 1.624 0-.515-.788-.69-1.75-.387-1.654.52-1.655.472-.024-.874 2.316-1.911.199-5.223-2.643-4.133-1.804.693-1.805.759-.032 2.055 1.041.761 1.292 1.339.581 1.339-.687 0-.991.419-.675.931.317.512.118 1.213-.441 1.559-.559.345-1.016.103-1.016-.538 0-.666-.698-.898-1.627-.542-.894.344-2.204.145-2.91-.44-.952-.791-1.684-.493-2.84 1.158-1.365 1.948-1.876 2.078-4.137 1.048-3.422-1.56-4.486-1.483-4.486.324 0 .825-.45 1.5-1 1.5s-1 1.125-1 2.5c0 1.741-.547 2.5-1.8 2.5-.99 0-2.34.54-3 1.2-.933.933-1.2.91-1.2-.107 0-.751-.638-1.062-1.5-.731-1.143.438-1.496-.19-1.485-2.643.02-4.059.703-5.039 4.735-6.793 3.599-1.566 3.933-2.386 1.828-4.49-1.228-1.229-1.688-1.055-3.392 1.283-1.559 2.14-2.261 2.464-3.362 1.55-.765-.635-1.87-.843-2.456-.462-.978.636-2.76 10.682-2.518 14.193.307 4.462 1.841 13.025 2.44 13.624.381.38.208 1.276-.385 1.99-1.167 1.406-.43 3.386 1.261 3.386.576 0 .789-.675.472-1.5-.391-1.02.054-1.5 1.393-1.5 1.083 0 1.969.505 1.969 1.122 0 .776.464.738 1.5-.122.825-.685 1.5-.933 1.5-.551 0 1.159-2.775 3.551-4.12 3.551-.701 0-.4.638.679 1.436 1.71 1.266 2.317 1.217 5.105-.415l3.163-1.852 1.208 2.916c.664 1.603 1.68 2.915 2.258 2.915.577 0 1.857.731 2.843 1.623 1.675 1.516 1.874 1.449 2.99-1 .698-1.533 2.01-2.623 3.157-2.623 1.604 0 1.742-.265.753-1.456-.664-.801-.918-1.926-.563-2.5.355-.574.168-1.044-.414-1.044s-1.059-.661-1.059-1.469c0-.894.586-1.243 1.5-.893.825.317 1.5.108 1.5-.464 0-.571-.9-1.325-2-1.674-5.216-1.655.06-5.5 7.547-5.5 2.449 0 4.453-.466 4.453-1.035 0-.662.632-.711 1.75-.137.963.494 2.762.81 4 .702 1.238-.108 2.25.165 2.25.606 0 .441.661.548 1.468.238.808-.31 1.43-.859 1.382-1.219-.322-2.429.505-3.155 3.591-3.155 1.893 0 3.719.45 4.059 1 .34.55 1.491 1 2.559 1s1.941.45 1.941 1-.702 1-1.559 1-1.281.45-.941 1c.34.55 1.679 1 2.976 1 1.296 0 2.531.522 2.744 1.161.392 1.174 10.483 1.351 14.037.246.967-.3 3.104.126 4.75.947s2.993 1.077 2.993.569c0-1.51 2.001-1.058 5.107 1.153 1.604 1.143 2.617 2.562 2.25 3.155-.424.686-.19.784.643.269.921-.569 1.069-.421.5.5-.517.837-.417 1.067.278.637.743-.459.958.833.679 4.096l-.407 4.767 1.966-3.685c2.623-4.919 4.499-6.073 3.599-2.214-.444 1.903-.359 2.424.245 1.517.734-1.1 1.056-.958 1.582.699.454 1.43 1.192 1.888 2.359 1.462 1.567-.57 1.575-.469.101 1.301-2.974 3.573-3.1 5.42-.371 5.42 1.358 0 2.469.413 2.469.918 0 .505.258 1.59.572 2.41.362.942-.191 1.734-1.5 2.149-1.139.362-2.072 1.329-2.072 2.149 0 .821-.397 1.247-.881.947-.485-.299-2.474.536-4.419 1.856-1.946 1.32-3.799 2.139-4.119 1.819-.319-.32-.581.16-.581 1.066 0 .988 1.102 1.884 2.75 2.238 1.512.325 4.831 1.079 7.374 1.676 4.37 1.026 4.783.936 7.5-1.626 2.181-2.057 3.662-2.627 6.126-2.358 3.692.403 3.89.121 1.652-2.352-1.625-1.795-1.066-4.42.707-3.325.586.363.723-.387.346-1.89-.898-3.576 1.135-6.942 3.7-6.128 3.214 1.02 10.754 6.412 11.862 8.483 1.386 2.589-1.834 4.291-9.767 5.164-.687.075-1.25.862-1.25 1.748s-1.35 3.088-3 4.895c-1.65 1.806-3.052 3.819-3.115 4.473-.369 3.795-1.605 6.317-4.53 9.242-1.295 1.295-2.355 3.025-2.355 3.843 0 1.032-.69 1.328-2.25.965-1.238-.287-2.812-.561-3.5-.609-.687-.047-1.25-.461-1.25-.92 0-.458-.675-.833-1.5-.833s-1.5-.423-1.5-.941c0-.517-1.214-.311-2.697.459-1.755.91-3.1 1.065-3.85.443-.745-.618-2.865-.44-6.006.505-2.669.803-5.053 1.261-5.297 1.017-.759-.758-11.853 5.572-14.264 8.138-1.972 2.099-2.305 3.57-2.417 10.657-.072 4.522-.466 8.974-.877 9.894-.41.919-.241 2.616.377 3.771 1.326 2.477.438 4.639-1.311 3.188-2.675-2.22-4.823 1.387-4.995 8.385-.154 6.288.007 6.804 2.816 9.047 2.248 1.794 2.697 2.661 1.829 3.529-.634.634-.936 1.713-.673 2.398.263.686-.447 1.489-1.578 1.785-1.132.296-2.057 1.303-2.057 2.238 0 1.239-.476 1.497-1.75.952-4.939-2.115-11.732-2.305-13.41-.375-.913 1.051-2.325 1.91-3.136 1.91-2.106 0-6.302-2.323-6.249-3.459.025-.527-1.408-1.256-3.183-1.619-1.776-.363-2.987-.269-2.691.209.295.478-.502.855-1.772.837-2.246-.031-2.256-.072-.368-1.5 1.767-1.336 1.783-1.468.177-1.468-1.146 0-1.643-.614-1.418-1.75.381-1.928 6.273-2.554 8.55-.908.865.625 1.25.375 1.25-.813 0-.944-.895-1.95-1.989-2.236-1.094-.286-1.699-.989-1.345-1.561.354-.573.171-.749-.407-.392-.577.357-1.298.001-1.602-.791-1.686-4.395-17.173 5.76-15.946 10.455.303 1.159.029 1.996-.653 1.996-.647 0-.898.45-.558 1 .34.55-.034 1-.83 1-.796 0-1.427.563-1.401 1.25.158 4.263-.423 6.818-1.519 6.675-2.629-.341-6.056.103-5.452.706 1.373 1.373-1.365 4.558-2.855 3.322-.78-.647-2.145-.897-3.035-.556-2.2.844-9.504-1.433-8.711-2.715.404-.655-.057-.737-1.283-.23-1.053.436-3.939 1.237-6.414 1.781-2.475.544-5.175 1.546-6 2.226-3.367 2.776-7.194 2.684-4.869-.117 1.326-1.598.851-1.666-2.566-.367-2.959 1.125-3.357 2.712-.815 3.245 4.114.863-3.389 3.146-10.25 3.119-8.224-.033-10.339-.473-11.565-2.409-.497-.787-.911-.963-.92-.393-.025 1.694-3.801 1.463-4.467-.272-.732-1.909 1.175-4.252 2.244-2.757 1.002 1.403 7.317 3.543 8.428 2.856 1.261-.779-2.24-3.107-7.42-4.934-3.811-1.345-4.39-1.344-5.379.01-1.63 2.228 2.36 10.547 5.079 10.59l2 .031-2 1.147c-1.1.631-2.45 1.7-3 2.376-1.395 1.714-7.156 2.781-7.964 1.475-.36-.583-1.865-1.066-3.345-1.074-2.791-.016-9.64-2.101-10.839-3.3-1.202-1.202-2.199-.742-2.852 1.315-.349 1.1-1.081 2-1.626 2-.546 0-.671-.52-.279-1.155.417-.674.277-.884-.336-.505-.577.357-1.346-.124-1.708-1.068-.519-1.353-.832-1.435-1.48-.387-.555.898-1.036.98-1.485.255-.374-.606-1.942-.819-3.594-.488-1.612.322-3.732.234-4.711-.197-2.471-1.086-2.926-1.188-5.903-1.33-2.015-.096-2.376-.422-1.558-1.409 1.426-1.718-.181-4.175-2.219-3.393-1.444.554-1.6 6.703-1.586 62.896.009 34.254.346 61.831.75 61.281.986-1.342 13.235-1.81 13.235-.505 0 .553.45 1.005 1 1.005s1-.839 1-1.864c0-1.288 1.391-2.395 4.5-3.583 2.475-.945 4.5-2.321 4.5-3.057 0-.978 1.686-1.334 6.25-1.321 9.22.028 9.545-.019 7.798-1.124-.799-.506-1.811-.697-2.25-.426-.439.271-.798-.041-.798-.693 0-.82 1.534-1.039 4.966-.709 2.732.262 4.743.116 4.471-.325-1.028-1.663 13.956.259 15.247 1.955 1.154 1.517 1.255 1.509 1.284-.103.018-.962.454-1.75.97-1.75 2.249 0 .468 4.311-2.159 5.227-1.527.532-2.526 1.374-2.219 1.87.307.497.081.903-.501.903s-1.059-.562-1.058-1.25c0-1.456-7.135-1.756-8.157-.343-.361.499-3.164.826-6.228.726-4.627-.152-5.473.076-4.987 1.342.322.839 1.013 1.525 1.537 1.525s.674-.45.334-1-.19-1 .334-1 1.222.704 1.552 1.563c.33.86 1.053 1.284 1.607.941.554-.342 1.007-.145 1.007.437s-.562 1.091-1.25 1.129c-.687.039-.35.457.75.93 3.07 1.319 3.869 1.15 2.48-.524-1.762-2.123-1.288-2.327 6.046-2.61 3.561-.137 7.037-.668 7.724-1.18.811-.604 1.25-.536 1.25.192 0 .628 1.652 1.128 3.75 1.136 5.396.019 7.999.918 8.529 2.946.524 2.003 6.888 3.362 15.221 3.25 2.75-.036 4.237.154 3.305.424-.977.284-1.461 1.1-1.143 1.929.339.882-.069 1.437-1.055 1.437-1.905 0-2.137 1.582-.357 2.426.688.325-1.655.36-5.206.077-3.551-.284-6.904-.963-7.45-1.509-1.538-1.538-3.604-1.184-2.956.506.61 1.588.058 1.708-8.81 1.906-2.569.057-4.994.427-5.388.821-.912.911 3.904 2.773 7.172 2.773 2.432 0 2.447.046.73 2.322-1.8 2.387-5.371 2.573-8.092.421-.872-.689-1.259-.573-1.28.385-.021.93-.359.809-1.05-.378-.561-.962-2.032-1.75-3.27-1.75-1.237 0-2.678-.42-3.2-.933-.523-.514-2.75-1.133-4.95-1.377s-4.788-.772-5.75-1.174c-1.016-.424-1.75-.292-1.75.314 0 1.724-7.906 1.128-9.276-.698-.673-.898-2.124-1.757-3.224-1.91-4.59-.638-6.551-1.331-6.053-2.137.292-.471-.701-1.092-2.206-1.379-1.505-.288-3.04-.031-3.412.571-.484.783-1.081.759-2.095-.083-.78-.647-1.682-.913-2.005-.59-.322.322-2.028.27-3.791-.118-2.279-.5-2.813-.945-1.85-1.54.745-.461.993-1.199.551-1.64-.441-.442-1.373-.023-2.07.93-.697.953-1.56 1.44-1.918 1.082-.358-.358-.651 10.9-.651 25.017v25.669l250.25-.252 250.25-.252.009-92c.017-168.587-.415-219.5-1.86-219.5-.712 0-2.303-2.019-3.535-4.486-2.476-4.959-7.813-10.818-9.117-10.012-.46.284-1.435-.053-2.166-.749-3.069-2.917-10.759-6.058-12.102-4.943-.728.604-2.877 1.312-4.776 1.573-9.5 1.306-15.261 4.247-14.473 7.389.403 1.608.051 2.463-1.205 2.927-.976.36-2.147 1.138-2.601 1.728-.573.744-.984.684-1.339-.195-1.128-2.785-3.575-4.46-4.465-3.056-.633.999-.843 1.017-.855.074a1.298 1.298 0 00-1.265-1.271c-.687-.012-2.492-1.778-4.011-3.925-5.741-8.117-21.739-19.88-21.739-15.984 0 1.506-2.012 1.063-2.643-.582-1.084-2.824.645-10.701 2.216-10.098 2.172.833 1.798-4.31-.573-7.89-1.093-1.65-1.99-2.645-1.993-2.211-.004.434-1.019-.178-2.257-1.36-1.238-1.181-4.05-2.947-6.25-3.924-2.2-.976-5.324-3.18-6.943-4.896-1.804-1.913-3.577-2.92-4.582-2.601-.918.291-2.461-.387-3.506-1.542-1.026-1.135-4.364-3.593-7.418-5.464-3.053-1.871-7.943-5.899-10.866-8.952-2.923-3.052-5.848-5.553-6.5-5.556-.652-.004-2.34-.609-3.752-1.346-1.411-.736-3.874-1.667-5.472-2.069-2.803-.703-2.845-.661-1.192 1.166 1.625 1.795 1.608 2.009-.316 4.075-1.117 1.199-2.463 2.236-2.992 2.305-.529.069-1.523.211-2.211.316-.687.105-2.075-.212-3.083-.704-1.64-.802-1.668-1.018-.265-2.066 3.656-2.732-.53-7.173-4.402-4.671m-235 24.735c-.825.317-2.94 1.668-4.701 3.002-2.832 2.146-4.697 2.922-7.656 3.186-.471.043-.579.802-.239 1.688.439 1.142.188 1.446-.861 1.044-.813-.312-1.711-.192-1.995.267-.647 1.047 15.27.645 17.862-.451 1.787-.756 1.754-.874-.5-1.827l-2.41-1.02 2.767-.38c1.522-.209 2.508-.799 2.191-1.312-.317-.513-.084-.932.518-.932.784 0 .791-.566.024-2-1.081-2.02-2.261-2.318-5-1.265M79.065 250.162c-5.598.901-7.863 1.833-4.482 1.845 1.529.005 1.309.409-1.083 1.993l-3 1.987 5 .022c2.75.012 4.461.364 3.803.783-1.971 1.253-.041 2.703 3.697 2.778 1.925.039 8.768.301 15.206.583 6.438.282 11.493.169 11.233-.251-.259-.42-.007-1.051.561-1.402.568-.351.774-1.057.457-1.569-.316-.512.239-.938 1.234-.946 1.549-.013 1.593-.166.309-1.061-1.103-.769-.573-.864 2-.36 3.473.681 3.486.67 1.662-1.365-1.736-1.937-3.292-2.086-7.581-.725-.967.307-3.294-.071-5.17-.84-4.423-1.814-16.925-2.585-23.846-1.472M19 256.5c.941 1.134.954 1.5.051 1.5-2.865 0 2.362 3.282 10.199 6.404 2.063.822 3.757 2.079 3.765 2.795.011.935.288.879.985-.199.711-1.101.973-1.15.985-.184.018 1.614 5.187 1.214 5.73-.443.436-1.329-6.9-5.373-9.746-5.373-1.083 0-2.003-.337-2.046-.75-.462-4.537-1.636-6.332-2.852-4.364-.575.929-1.026.995-1.505.221-.376-.609-2.063-1.107-3.747-1.107-2.61 0-2.879.222-1.819 1.5m-6.185 48.401c-1.248 1.217-1.546 2.686-1.147 5.659.478 3.567.945 4.144 4.185 5.17 4.839 1.533 9.16-2.212 7.289-6.317-.741-1.627-.761-2.413-.062-2.413.571 0 .772-.43.447-.956s-1.364-.709-2.309-.406c-1.294.415-1.389.315-.384-.405 1.091-.781 1.057-1.061-.186-1.538-.835-.32-1.682-.093-1.881.505-.252.755-.959.777-2.315.072-1.474-.767-2.365-.613-3.637.629M.47 383c0 34.375.126 48.438.279 31.25.154-17.188.154-45.313 0-62.5C.596 334.563.47 348.625.47 383M134 403.032c0 .452-.787.988-1.75 1.191-1.26.266-.691.883 2.035 2.203 2.081 1.009 4.234 2.676 4.785 3.704.55 1.029 1.66 1.87 2.465 1.87.806 0 1.465.576 1.465 1.279 0 .704.9 1.928 2 2.721 1.1.793 2 2.017 2 2.721 0 .703.338 1.312.75 1.353.412.041 1.74.26 2.95.486 1.209.227 2.473-.032 2.809-.574.349-.566-.694-.986-2.45-.986-1.682 0-3.059-.459-3.059-1.019 0-.59 1.061-.753 2.518-.387 2.401.602 2.469.502 1.461-2.148-.768-2.021-.744-2.973.089-3.488.83-.513.841-.896.039-1.392-.609-.376-1.121-.32-1.137.125-.017.445-.508-.012-1.092-1.016-1.127-1.939-.254-3.865.926-2.044.848 1.308 9.967 1.548 10.749.284.307-.498 3.571-.657 7.253-.353 4.139.341 6.192.206 5.378-.355-.725-.499-1.439-1.741-1.589-2.76-.277-1.891-.996-2.009-9.774-1.613-2.023.091-4.382.87-5.242 1.73-.86.86-1.979 1.307-2.486.994-.507-.314-1.157-.005-1.445.686-.379.911-.925.759-1.989-.554-.931-1.148-1.706-1.422-2.122-.75-.36.583-1.359 1.06-2.218 1.06-1.277 0-1.335-.275-.319-1.5 1.053-1.268.84-1.5-1.378-1.5-1.442 0-2.629.563-2.637 1.25-.011.833-.339.75-.985-.25-.533-.825-.976-1.21-.985-.855-.008.354-1.59.289-3.515-.145-1.925-.434-3.5-.42-3.5.032m-79.5.9c-1.1.435-2.675.552-3.5.26-1.099-.389-.997.042.384 1.615 1.036 1.18 2.343 1.862 2.904 1.515.632-.39.709-.126.202.693-.594.962-.362 1.15.846.686.915-.351 1.664-.202 1.664.33 0 .533.788.962 1.75.954 1.496-.013 1.532-.157.25-.985-1.09-.704-1.142-.974-.191-.985.72-.008 1.003-.51.629-1.115-.494-.799-.119-.799 1.376 0 1.13.605 3.884 1.1 6.12 1.1s4.066.45 4.066 1-.338.887-.75.75-.75.2-.75.75.385.872.855.715c.471-.157 1.374.145 2.007.67.639.531 5.869.788 11.76.579 11.991-.427 17.34.663 20.618 4.201 1.243 1.341 2.26 1.955 2.26 1.365 0-1.903 4.746-3.486 6.381-2.128.988.819 1.646.863 2.093.141.358-.58 2.535-.998 4.839-.929 2.303.069 4.637.018 5.187-.113 2.359-.562 4.5.101 4.5 1.394 0 .897 1.427 1.531 4 1.776 4.214.402 4.865-.448 2.613-3.415-.9-1.185-2.936-1.813-6.361-1.962-3.587-.156-5.358-.734-6.153-2.007-1.328-2.126.718-2.57 2.701-.587.66.66 1.193.773 1.185.25-.021-1.308-1.569-3.64-2.347-3.535-2.184.292-3.689-.024-3.278-.688.263-.426-2.7-.842-6.585-.925-4.224-.09-7.359-.629-7.798-1.34-.552-.892-.844-.861-1.173.126-.455 1.364-1.7 1.381-27.953.386-9.21-.35-11.759-.157-12.171.918-.515 1.341-5.698 1.105-5.525-.252.265-2.068-.336-2.283-1.623-.581-1.329 1.756-1.471 1.774-1.5.191-.035-1.905-.508-2.015-3.532-.818M66 430.921c0 .593.563 1.086 1.25 1.094.833.011.75.339-.25.985-1.544.998 1.492 1.465 6.75 1.039 1.456-.118 2.25.372 2.25 1.389 0 1.08.939 1.572 3 1.572 1.65 0 3 .398 3 .883 0 1.59-3.816 1.925-6.436.566-1.41-.732-2.563-1.02-2.562-.64.001.38-2.699.539-6 .352-3.329-.188-6.002.081-6.002.603 0 .519 3.284.985 7.298 1.037 4.014.052 8.514.557 10 1.122 1.486.565 2.702.837 2.702.603 0-.675 7.443 2.608 8.033 3.544.293.465 3.668.918 7.5 1.006 8.796.203 10.486.649 10.388 2.741-.049 1.041-.271 1.206-.583.433-.278-.687-.972-1.25-1.544-1.25-.705 0-.697.412.026 1.284 1.774 2.137-.163 3.86-3.648 3.246-2.963-.522-7.172 1.042-7.172 2.665 0 .393 1.688 1.015 3.75 1.383 2.063.367 6.893 1.988 10.735 3.6 3.841 1.613 7.757 2.73 8.702 2.483.944-.247 1.878.035 2.075.625.197.591 1.147.771 2.111.401 1.053-.404 1.464-1.176 1.03-1.93-.398-.691-.373-.941.056-.555.929.838 3.541-1.557 3.541-3.246 0-.786-.865-.619-2.567.496-1.918 1.257-2.904 1.402-3.903.573-.981-.815-1.437-.803-1.719.043-.254.76-.839.604-1.72-.458-1.17-1.41-1.011-1.61 1.287-1.61 1.708 0 2.622-.543 2.622-1.559 0-.857-.445-1.284-.989-.948-.579.358-.747-.134-.405-1.191.487-1.507.406-1.556-.496-.302-.734 1.02-1.084 1.1-1.095.25-.008-.687-.69-1.25-1.515-1.25-2.077 0-1.888-1.752.25-2.311.963-.251-.05-.478-2.25-.503-3.091-.035-3.546.15-2 .814 1.928.829 1.921.862-.191.93-1.205.038-2.469-.38-2.809-.93-.34-.55-.029-1.007.691-1.015 1.059-.013 1.054-.177-.026-.862-3.093-1.961 2.764-1.937 27.583.109 1.786.147 3.256.718 3.265 1.268.01.583.324.543.752-.096.969-1.446 9.064-2.356 12.235-1.376l2.5.773-2.5.199-2.5.199 2.5.801c2.398.768 2.409.805.25.9-2.788.124-2.964 2.101-.25 2.81 1.1.288 2.036 1.258 2.079 2.157.05 1.036.263 1.176.583.383.278-.687 1.367-1.25 2.421-1.25 1.055 0 1.924-.562 1.932-1.25.012-.932.232-.909.865.089.61.964 2.291 1.184 5.984.786 3.057-.33 5.136-.159 5.136.423 0 .575 2.084.771 5.053.475 2.984-.297 4.818-.123 4.479.426-.316.51.223 1.392 1.197 1.959.974.567 1.321 1.052.771 1.077-1.398.064 1.718 1.981 3.25 2 .688.008 1.25-1.148 1.25-2.568 0-3.192 1.925-2.776 3.973.856 2.298 4.075 1.513 4.312-15.211 4.585-8.298.135-8.726.25-8.5 2.282.131 1.177-.387 2.36-1.151 2.629-.779.275-1.111.04-.756-.535.425-.687-6.386-1.076-20.61-1.178-19.606-.141-26.453-.385-27.745-.987-.275-.129-1.815-.447-3.423-.709-1.608-.261-3.715-.899-4.684-1.417-.969-.519-5.354-.943-9.744-.943s-8.132-.395-8.316-.878c-.183-.483-1.852-1.207-3.708-1.607-2.245-.485-3.16-.381-2.734.309.911 1.474-.97 2.376-4.957 2.376-1.889 0-3.434.33-3.434.733 0 .799 1.614 1.063 7 1.145 1.925.029 6.015.692 9.089 1.473 3.075.781 9.013 1.385 13.196 1.342 4.184-.043 8.128.244 8.764.637.637.394 9.401.851 19.477 1.016 12.552.206 19.052.706 20.646 1.587 3.019 1.669 15.718 1.597 22.828-.129 3.025-.734 8.65-1.303 12.5-1.265 6.064.061 66.297.262 78.25.261H273v-6.778c0-8.783 1.371-10.135 10.198-10.059 3.466.029 7.202-.186 8.302-.478 1.1-.293 2.587-.566 3.305-.608.925-.055 1.216-1.459 1-4.827l-.305-4.75-4 .104c-2.2.056-6.475.169-9.5.25-3.025.081-7.3.169-9.5.197-2.2.027-4.15.477-4.333.999-.184.523-1.341.95-2.572.95-2.617 0-11.537 2.846-13.332 4.254-.681.533-1.904.714-2.718.402-.815-.313-1.731-.164-2.036.33-.306.494-2.683 1.18-5.282 1.525-2.6.344-5.627 1.017-6.727 1.495-4.717 2.048-4.575 2.041-35.89 1.837-2.417-.016-4.665-.748-5.938-1.934-1.127-1.05-2.666-1.909-3.42-1.909-.753 0-1.166-.337-.916-.75.609-1.005-1.398-2.675-3.686-3.067-1.111-.19-1.587.11-1.191.75.362.587.182 1.067-.4 1.067a1.064 1.064 0 01-1.059-1.063c0-.584-.787-.983-1.75-.885-4.372.445-7.342-.094-6.655-1.207.443-.715.275-.883-.44-.44-.635.392-1.688.384-2.339-.018-.813-.503-.579-.969.75-1.489 1.466-.574 1.087-.771-1.566-.812-2.612-.041-3.12.19-2 .914 1.282.828 1.246.972-.25.985-.963.008-1.75-.443-1.75-1.002 0-.651-4.134-.886-11.5-.654-6.325.2-11.5.045-11.5-.344 0-.389-1.195-.479-2.656-.2-1.867.357-3.069-.056-4.044-1.389-1.099-1.502-2.781-1.928-8.094-2.052-3.688-.086-8.506-.199-10.706-.252-2.2-.052-7.6-.033-12 .042-16.275.278-20.272-.054-17.719-1.471 2.412-1.339 2.018-2.663-.793-2.663-.923 0-2.493-.9-3.488-2-1.914-2.115-5.5-2.729-5.5-.941 0 .582-.498.751-1.107.375-.771-.477-.696-.944.25-1.544.985-.624.724-.864-.952-.875-1.436-.009-2.05.404-1.625 1.092.442.715.02.919-1.191.575-5.236-1.487-8.375-1.772-8.375-.761m240.75 10.549c-.967 1.33-1.75 4.178-1.75 6.367v3.962l4.587.364c2.522.201 4.813 0 5.089-.447.276-.447 1.108-.31 1.849.305.965.8 1.913.815 3.339.052 1.095-.586 2.699-.794 3.564-.462.864.331 1.572.142 1.572-.421s-.562-1.25-1.25-1.528c-.687-.277 1.311-.54 4.441-.583 5.91-.082 7.242-.76 5.867-2.985-.525-.849-3.349-1.385-8.014-1.522-3.962-.117-7.505-.678-7.874-1.248-.368-.569-2.357-1.346-4.42-1.725-2.062-.379-3.75-1.119-3.75-1.644 0-1.652-1.434-.984-3.25 1.515" fill="#d3d3d3" fill-rule="evenodd"/></svg>