<svg xmlns="http://www.w3.org/2000/svg" width="500" height="355"><path d="M0 177.5V355h214.038l-.468-2.25c-.52-2.502-1.823-14.593-2.075-19.25-.089-1.65-.727-6.297-1.417-10.328-1.151-6.716-.871-11.548.35-6.04 1.219 5.499 5.572 33.265 5.572 35.541v2.479l11.25-.247c11.999-.265 15.014-.669 14.248-1.909-.554-.896 4.609-3.51 9.002-4.557 1.65-.393 3.45-1.019 4-1.391.55-.372 2.8-.8 5-.951 2.2-.151 4.15-.685 4.333-1.186.184-.501.977-.911 1.764-.911s2.212-.395 3.167-.878c4.075-2.06 8.982-3.906 12.24-4.604 1.923-.412 3.946-1.077 4.496-1.479.901-.658 9.599-3.482 31.5-10.228 4.125-1.271 7.65-2.648 7.833-3.061.184-.412.897-.75 1.585-.75 2.21 0 14.03-4.142 15.582-5.46.825-.701 2.175-1.301 3-1.333.825-.032 3.75-.694 6.5-1.471 5.199-1.469 7.218-1.198 14.75 1.984 4.443 1.876 4.401 1.61 1.301 8.409-1.348 2.954-3.438 9.196-4.646 13.871-1.208 4.675-2.334 8.665-2.501 8.867-.168.202-5.165 1.432-11.104 2.734-5.94 1.301-12.15 2.785-13.8 3.297-6.162 1.911 100.989 1.364 109.205-.557 6.77-1.584 7.434-1.583 11 .016 3.25 1.458 6.739 1.662 24.295 1.423l20.5-.28.253-177.25L501.006 0h-44.61c-38.227 0-44.532.204-44.062 1.427.301.785-.045 1.918-.768 2.519-.891.738-1.151 2.561-.804 5.633.433 3.839.181 4.772-1.625 6.038-2.609 1.827-2.764 3.383-.337 3.383.99 0 2.319.519 2.954 1.154.634.634 3.477 1.272 6.317 1.417 6.997.358 7.836 1.426 5.119 6.515-1.205 2.257-1.937 4.515-1.627 5.017.311.502-.139 1.616-.999 2.476-.86.86-1.564 2.357-1.564 3.326 0 .969-.337 2.099-.75 2.512-.703.702-1.123 3.715-1.336 9.583-.05 1.375-.442 2.95-.872 3.5-.43.55-1.098 2.753-1.484 4.896-.387 2.143-1.398 4.956-2.246 6.25-.848 1.295-1.21 2.354-.805 2.354.406 0 .214.631-.426 1.403-.895 1.077-.865 1.502.127 1.833.855.285.343 1.248-1.513 2.847-1.542 1.329-2.904 3.092-3.027 3.917-.124.825-.588 2.082-1.032 2.794-.445.711-.357 1.838.195 2.503.687.827.556 1.82-.414 3.147-.779 1.066-1.417 2.652-1.417 3.525 0 2.151-3.845 5.305-5.632 4.619-.794-.305-1.697.105-2.006.911-1.233 3.213-4.438-.297-4.387-4.804.086-7.55-1.147-13.867-3.084-15.804-1.115-1.115-1.941-3.43-2.012-5.641-.067-2.062-.18-5.325-.25-7.25-.071-1.925-.493-4.062-.938-4.75-.445-.687-.429-1.25.036-1.25.955 0 1.303-3.411.682-6.683-.565-2.981-7.171-5.289-8.619-3.012-.579.912-.763.901-.775-.048-.01-.807-1.417-1.188-4.015-1.086-2.2.086-4 .533-4 .993 0 .46-.436.836-.969.836-.532 0-.757-.562-.499-1.25.258-.687-.56-1.725-1.818-2.305-3.033-1.399-7.463 1.163-6.89 3.984.382 1.88.344 1.882-1.466.072-1.743-1.743-1.879-1.75-2.195-.106-.206 1.068-.91 1.532-1.802 1.19-.812-.312-1.196-.126-.861.415.342.554-.068.719-.948.382-1.1-.423-1.552.018-1.552 1.511 0 1.242-.64 2.107-1.559 2.107-.924 0-1.268-.47-.846-1.155.443-.715.275-.883-.44-.44-.635.392-1.155.236-1.155-.346S346.505 50 347.122 50c.78 0 .745-.455-.113-1.489-.68-.819-1.635-1.242-2.122-.941-.488.301-.887.071-.887-.511S344.675 46 345.5 46s1.5-.477 1.5-1.059-.5-.75-1.112-.372c-.611.378-1.504.067-1.984-.691-.703-1.109-.876-1.058-.889.265-.008.904-.69 1.902-1.515 2.219-.825.316-1.5.191-1.5-.278 0-2.175-5.317-4.008-13.346-4.602-9.977-.738-10.794-.456-9.705 3.341.545 1.901.362 3.399-.573 4.678-.757 1.035-1.376 1.393-1.376.797s-.74-1.368-1.645-1.715c-2.048-.786-5.965 2.422-4.251 3.482 1.947 1.202.02 3.072-2.033 1.973-.995-.532-2.092-.683-2.44-.336-.347.347-.631.106-.631-.535 0-2.094-3.027-1.226-3.921 1.124-.479 1.26-1.588 2.886-2.464 3.613-.876.728-1.382 1.664-1.125 2.08.258.417-.422 1.785-1.511 3.04-1.088 1.255-1.979 1.97-1.979 1.59 0-.678-1.365.288-4.905 3.469-2.176 1.956-5.095 2.066-5.095.191 0-.765-.45-1.114-1-.774-.55.34-1.036-.196-1.079-1.191-.043-.995-.297-1.272-.565-.615-.267.656-1.143.941-1.946.633-1.123-.431-1.195-.881-.313-1.944.895-1.079.798-1.383-.443-1.383-1.004 0-1.379-.554-1.016-1.5.317-.825.078-1.5-.531-1.5S275 60.675 275 61.5s-.423 1.5-.941 1.5c-1.447 0-2.218-1.784-1.075-2.49 2.333-1.442.844-2.568-2.553-1.931-2.958.555-3.825.303-5.068-1.472-.825-1.177-1.893-1.898-2.373-1.601-.48.297-2.715-1.155-4.967-3.225C254.816 49.333 233.177 37 231.211 37c-.235 0-.161 1.061.164 2.358.522 2.08.299 2.302-1.892 1.884-2.055-.393-2.483-.083-2.483 1.796 0 2.15.1 2.182 1.857.592 1.48-1.34 2.063-1.422 2.875-.405 3.205 4.013 8.53 18.375 7.738 20.87-.305.959.12 1.918 1 2.255 1.702.653 2.093 5.184.53 6.15-1.162.718-1.355 2.556-.25 2.382 2.156-.341 3.242.299 3.171 1.868-.047 1.045-.282 1.247-.583.5-.278-.687-1.353-1.25-2.39-1.25-1.265 0-1.696.494-1.31 1.5.365.95-.013 1.5-1.031 1.5-.884 0-1.614-.562-1.622-1.25-.012-.915-.247-.885-.879.113-.729 1.151-.948 1.151-1.406 0-.385-.968-.565-1.001-.621-.113-.043.688-.515 1.25-1.048 1.25-.532 0-.709-.675-.393-1.5.317-.825.078-1.5-.531-1.5S231 75.311 231 74.469c0-.843-.672-1.79-1.494-2.105-.822-.316-1.286-.911-1.032-1.323.255-.411-.648-1.255-2.005-1.873-1.358-.619-2.505-1.922-2.548-2.897-.047-1.046-.285-1.26-.583-.521-.278.688-1.007 1.25-1.621 1.25-.776 0-.751-.366.083-1.2 1.792-1.792 1.452-2.679-.8-2.09-1.118.293-2 .031-2-.593 0-.615-.47-1.117-1.045-1.117s-2.18-1.134-3.565-2.52c-5.442-5.441-10.175-7.343-20.153-8.1-5.022-.381-6.381-.169-6.855 1.067-.325.848-.998 1.29-1.494.983-.497-.306-1.607.146-2.467 1.006-.86.86-2.207 1.564-2.992 1.564-.786 0-1.429.765-1.429 1.7 0 1.322-.267 1.433-1.2.5-1.666-1.666-2.853-1.501-2.162.3.317.825 1.653 1.5 2.969 1.5 2.783 0 3.292 2.618.643 3.311-1.029.269-.566.505 1.122.573 2.523.102 2.71.312 1.537 1.726-.836 1.007-1.474 1.194-1.706.5-.611-1.834-1.929-1.256-2.602 1.14-.605 2.152-.682 2.167-1.75.351-1.089-1.852-1.158-1.848-2.734.143-.889 1.124-2.742 2.345-4.117 2.715-2.011.541-2.206.448-1-.474 1.208-.923.98-1.034-1.167-.568-1.664.362-2.821.12-3.074-.641-.314-.94-1.251-.961-4.083-.091-2.022.62-3.676.751-3.676.291s-1.433-.425-3.184.077c-3.824 1.096-4.038.971-2.33-1.364.841-1.151 1.562-1.421 1.982-.741.438.709 1.176.551 2.195-.468 1.225-1.226 1.289-1.833.314-3.008-.993-1.197-.908-1.472.46-1.472.924 0 1.403-.45 1.063-1-.34-.55-1.616-1-2.837-1-2.698 0-7.259 3.01-5.876 3.878.61.382.456 1.119-.398 1.911-1.134 1.053-1.389 1.053-1.39 0 0-.709-1.184-1.358-2.63-1.441-2.879-.167-4.922-2.388-3.184-3.462.635-.393.182-.952-1.101-1.359-1.278-.406-2.813-.167-3.708.576-1.775 1.473-3.585-.395-2.676-2.762.282-.738.016-1.341-.593-1.341S131 56.502 131 57.115c0 .668-1.044.431-2.607-.593-2.668-1.749-3.933-1.293-4.546 1.637-.282 1.347-.709 1.173-2.276-.926-1.663-2.228-1.698-2.496-.25-1.94.923.354 1.679.208 1.679-.324 0-.871-2.304-1.35-3.457-.719-.251.138-1.083-.606-1.848-1.653-.775-1.059-1.906-1.584-2.553-1.185-1.537.95-5.927-2.557-5.354-4.277.323-.969-.144-1.157-1.67-.673-1.254.399-2.118.238-2.118-.395 0-.587-1.237-1.074-2.75-1.082-2.025-.012-2.374-.253-1.324-.918 1.061-.672-.284-1.711-5.25-4.057-7.4-3.497-7.657-3.967-4.426-8.099 1.237-1.583 3.297-4.235 4.576-5.895C98.105 24.357 99.964 23 100.957 23c.993 0 3.007-1.575 4.475-3.5 1.837-2.408 3.476-3.5 5.253-3.5 1.421 0 4.324-.522 6.452-1.159 3.059-.917 4.444-.88 6.616.173 3.623 1.757 5.304 1.363 7.901-1.85 3.382-4.182 19.397-4.627 23.846-.661 2.779 2.477 2.825 2.623.625 1.978-1.306-.382-4.231-.868-6.5-1.078-2.269-.211-5.35-.646-6.847-.966-3.326-.713-7.844 1.744-9.445 5.137-1.588 3.365-.7 3.687 11.071 4.018 5.553.156 13.481.594 17.618.973 6.275.575 7.744.421 8.863-.926 1.524-1.836 1.583-1.801-5.885-3.422l-4.5-.977 4.719-.12c4.47-.114 12.781 3.008 12.781 4.801 0 .715 12.321 2.845 19 3.285 2.425.16 3.416-.167 3.225-1.063-.183-.861.373-1.088 1.66-.68 1.741.553 1.883.224 1.413-3.274-.4-2.984-.146-4.033 1.09-4.508.887-.34 1.612-.182 1.612.35 0 .533.623.969 1.383.969.761 0 1.619.9 1.907 2 .287 1.1.115 2-.384 2-1.318 0-1.11 3.396.294 4.8 1.557 1.557 5.195 1.499 10.8-.172l4.5-1.341.298-6.173c.203-4.195.653-5.953 1.405-5.489.668.413.823.227.392-.47-.407-.659-.123-1.155.661-1.155.755 0 2.146-1.619 3.089-3.597 1.425-2.989 1.964-3.391 3.185-2.378 1.24 1.029 1.47.731 1.47-1.903V0H0v177.5m280.391-167c-.073 7.005.26 10.551 1 10.653.61.085 4.3.239 8.199.343 3.9.104 7.565.482 8.145.84 2.348 1.451 28.354 2.487 32.763 1.305 1.649-.442 2.654-.459 2.233-.039-.861.862 5.061 3.645 6.225 2.925.412-.255 3.853-.713 7.647-1.019 3.793-.307 9.368-.883 12.388-1.282l5.491-.726.009-5.5.009-5.5 4.333-.959c4.108-.91 4.303-1.111 3.75-3.875-.321-1.604-.59-4.097-.598-5.541-.013-2.128-.216-2.341-1.076-1.125-.799 1.129-1.187 1.191-1.568.25C368.946.277 359.063 0 324.667 0H280.5l-.109 10.5M.489 178c0 97.625.117 137.563.261 88.75.143-48.812.143-128.687 0-177.5C.606 40.438.489 80.375.489 178m265.635-93.019c-.668 2.229-1.176 5.958-1.129 8.286.047 2.328-.216 6.371-.585 8.983-.46 3.26-.316 4.75.46 4.75.621 0 1.13-.707 1.13-1.571 0-1.429.143-1.429 1.571 0 3.487 3.486 10.282.942 9.141-3.423-.651-2.487.893-3.578 2.811-1.987 1.098.911 1.181 1.665.356 3.208-1.421 2.654 2.317 6.977 4.31 4.984.948-.948.917-1.211-.144-1.211-1.071 0-1.033-.367.182-1.75 2.056-2.341 3.207-6.25 1.84-6.25-.587 0-1.067-.727-1.067-1.617 0-1.124.609-1.457 2-1.093 1.711.447 2 .03 2-2.884 0-1.873-.45-3.406-1-3.406s-1 .693-1 1.541c0 1.547-7.833 5.589-9.25 4.773-.413-.238-.75-1.53-.75-2.873 0-1.774-.546-2.441-2-2.441-1.1 0-2-.408-2-.906 0-.499.838-.688 1.862-.42 2.308.604 3.401-1.853 2.214-4.975-.706-1.856-1.59-2.269-4.722-2.204-2.12.044-4.115-.29-4.435-.743-.32-.453-1.127 1-1.795 3.229M379 93.909c-3.305.609-3.382.711-1.386 1.83 1.624.911 2.05 1.99 1.838 4.658-.553 6.965-2.599 9.866-3.952 5.603-.349-1.1-1.103-2-1.674-2-.572 0-.781.675-.464 1.5.316.825.139 1.5-.393 1.5-.533 0-.969-.525-.969-1.167 0-.641-.313-.853-.696-.471-.816.817-1.452 3.419-1.438 5.888.005.963-.664 1.75-1.487 1.75-.823 0-1.222.444-.887.987.336.543.122 1.556-.475 2.25a102.69 102.69 0 00-2.633 3.263c-1.153 1.49-1.415 1.575-1.029.333.297-.955-.14-1.92-1.022-2.259-.865-.332-1.29-1.244-.968-2.082.347-.905-.005-1.492-.896-1.492-.808 0-1.469-.54-1.469-1.2 0-.867-.347-.832-1.25.125-1 1.06-1 1.417 0 1.783.688.252 1.25.898 1.25 1.434 0 .537-.453.696-1.007.354-.554-.343-1.276.078-1.605.935-.329.857-1.077 1.261-1.663.899-.659-.407-.831-.049-.451.941.337.88.076 1.854-.58 2.164-.907.429-.892.706.062 1.15 2.085.972.329 2.415-2.937 2.415-2.653 0-2.892-.208-1.778-1.549 1.119-1.349.925-1.484-1.5-1.044-2.912.528-4.722 1.593-2.708 1.593.642 0 1.167.675 1.167 1.5s.45 1.5 1 1.5 1 .886 1 1.969c0 1.339-.48 1.784-1.5 1.393-.825-.317-1.5-.126-1.5.424s.675 1.259 1.5 1.576c.825.316 1.5 1.313 1.5 2.215 0 2.092-4.629 1.127-6.941-1.447-1.435-1.597-1.684-1.607-3.121-.121-.86.889-1.386 2.146-1.17 2.795.571 1.712-2.45 4.567-3.109 2.937-.275-.683-.537-.255-.58.95-.043 1.205-.529 2.469-1.079 2.809-.55.34-1 1.54-1 2.667 0 2.066-1.485 2.119-6.407.23-.876-.336-1.593-.113-1.593.496s.45 1.107 1 1.107 1 .675 1 1.5c0 2.343-1.559 1.763-2.844-1.056-.732-1.607-1.627-2.29-2.41-1.84-.685.394-.904.34-.487-.119.936-1.031-3.096-5.485-4.965-5.485-.746 0-1.64.738-1.986 1.641-.522 1.359-1.074 1.104-3.219-1.49-2.927-3.539-7.089-3.525-7.089.025 0 1.068-.45 1.664-1 1.324-.55-.34-1 .309-1 1.441 0 1.132-.441 2.059-.981 2.059-.539 0-1.259 1.109-1.599 2.464-.513 2.043-3.359 4.022-5.42 3.768-.275-.034-1.149.462-1.942 1.103-1.066.862-1.262.865-.751.012.424-.708-.466-1.555-2.308-2.198-2.497-.87-2.999-1.585-2.999-4.276 0-4.638-2.051-9.653-4.175-10.209-1.262-.33-1.825-1.415-1.825-3.521 0-1.853-.681-3.425-1.742-4.018-.958-.536-1.383-1.333-.945-1.771.438-.438 1.214-.134 1.726.675.735 1.162.934.998.946-.779.008-1.237-.435-2.306-.985-2.375-.55-.069-1.405-.181-1.899-.25-.495-.069-2.97-2.791-5.5-6.05-5.028-6.475-5.192-6.428-3.272.925.819 3.14 1.011 6.302.514 8.5-.434 1.925-.989 7.325-1.231 12-.243 4.675-.972 13-1.62 18.5-.648 5.5-1.159 10.675-1.136 11.5.023.825-.588 3.75-1.357 6.5s-2.368 9.5-3.554 15c-2.51 11.645-4.494 18.114-6.507 21.215-1.716 2.642-1.852 5.471-.337 6.986 1.193 1.193-.777 8.299-2.302 8.299-.439 0-.799.81-.799 1.8s-.372 2.228-.826 2.75c-.454.523-1.4 2.975-2.101 5.45-2.437 8.604-7.498 21.559-12.271 31.411-2.641 5.452-4.802 11.163-4.802 12.693v2.782l9.75-.351c12.178-.438 16.249-1.313 18.392-3.956.927-1.143 2.049-1.717 2.493-1.275.444.443.145 1.223-.664 1.735-1.166.737-1.011.934.745.946 1.218.008 3.541-1.222 5.161-2.735 7.062-6.591 8.926-7.767 14.123-8.911 3.025-.666 8.247-1.239 11.604-1.275 5.073-.053 6.56-.486 8.801-2.564 1.484-1.375 3.545-2.5 4.579-2.5 1.035 0 2.167-.9 2.516-2 .78-2.457 4.053-2.621 5.369-.27.862 1.54 1.367 1.586 4.589.422 1.991-.721 5.065-1.455 6.831-1.633 7.248-.729 8.711-1.987 8.711-7.494 0-3.345.418-5.03 1.25-5.04.833-.011.75-.339-.25-.985-1.669-1.079-1.647-1.093 2.328-1.56 2.103-.247 2.573-.026 1.835.864-.667.804-.545 2.261.374 4.446 1.521 3.617 4.355 4.298 6.591 1.584 1.237-1.502 1.101-1.598-1.378-.981-2.7.673-4.133-1.021-1.5-1.773 7.015-2.006 16.753-3.58 22.143-3.58 3.634 0 6.607-.408 6.607-.906 0-.499 2.25-1.216 5-1.594 6.172-.849 6.573-2.5.607-2.5-5.029 0-6.905-2.235-3.435-4.092 1.645-.881 1.806-1.304.742-1.961-2.464-1.523-.484-1.789 4.086-.549 6.962 1.889 12 4.739 12 6.787 0 .998.54 1.815 1.2 1.815.807 0 .87.33.191 1.009-.678.678-.672 3.545.017 8.75 1.172 8.853 1.28 23.618.244 33.491-.582 5.552-.451 6.75.741 6.75 2.407 0 3.633-17.221 2.849-40-.142-4.125-.292-8.625-.333-10a241.578 241.578 0 00-.242-5.448c-.148-2.609.233-3.031 3.323-3.673 2.132-.442 4.005-.299 4.81.37 1.002.832 2.001.393 4.164-1.827 2.773-2.847 5.082-9.422 3.308-9.422-.488 0-.775-1.462-.638-3.25.137-1.787.26-5.5.274-8.25.013-2.75.105-7.025.203-9.5.266-6.71.086-11.011-.664-15.837-.424-2.729-.261-4.749.44-5.45 1.644-1.644 1.351-5.818-.504-7.175-1.488-1.088-1.482-1.446.071-4.449.984-1.902 1.904-6.673 2.204-11.422.283-4.486.909-8.399 1.391-8.697 1.073-.663.063-4.97-1.166-4.97-.485 0-.876-1.012-.868-2.25.011-1.614.255-1.873.861-.916.678 1.069.969 1.012 1.468-.288.371-.967.023-1.852-.861-2.191-2.032-.78-1.873-2.164.229-1.994.941.077 1.871-.631 2.065-1.572.286-1.38-.238-1.636-2.711-1.323-2.208.28-3.066-.023-3.066-1.083 0-.809.563-1.398 1.25-1.308 2.99.388 3.458-.227 3.231-4.249-.14-2.471-.897-4.657-1.858-5.36-1.686-1.232-2.177-2.553-.873-2.348 1.904.301 2.239-.27 1.248-2.122-.871-1.628-1.328-1.769-2.431-.75-.746.69-1.209 1.5-1.028 1.802.181.301-.084 1.201-.59 2-.708 1.12-.948.88-1.05-1.048-.096-1.83-.257-2.011-.602-.677-.278 1.073-1.054 1.601-1.884 1.282-.82-.315-1.413.071-1.413.918 0 .803-.855 1.994-1.9 2.647-1.045.652-1.655 1.826-1.355 2.607.464 1.209.224 1.22-1.61.075-1.185-.74-1.7-1.497-1.145-1.682 1.569-.523 1.189-2.887-.572-3.563-2.577-.989-3.417-.71-3.433 1.143-.027 3.054-1.711 4.924-3.143 3.492-1.717-1.717-3.842-1.556-3.842.29 0 .843-1.012 1.917-2.25 2.386-2.11.801-2.032.916 1.25 1.838l3.5.983-3 1.207c-2.185.879-3.476.912-4.75.122-1.373-.851-1.75-.76-1.75.424 0 .829-.675 1.508-1.5 1.508-1.885 0-1.903.165.592-5.475 1.15-2.601 2.117-6.821 2.148-9.377.03-2.556.508-4.943 1.062-5.302.554-.36 1.385-3.285 1.847-6.5 1.621-11.287 1.872-13.345 1.613-13.214-.144.072-1.837.422-3.762.777m-160.416 9.826c-.321 1.011-1.493 1.908-2.605 1.992-1.112.083-1.761-.271-1.442-.788.32-.516.153-.939-.371-.939-1.533 0-2.242 2.989-1.181 4.972.725 1.355.595 1.975-.503 2.397-.815.312-1.482.231-1.482-.182 0-.413-1.173-.848-2.606-.966-1.932-.16-2.46.165-2.042 1.255.311.809-.173 1.884-1.074 2.388-2.026 1.134.309 4.107 2.62 3.337.786-.262 1.1-.007.73.592-.358.579-2 1.349-3.648 1.711-1.649.363-2.784 1.004-2.523 1.427.685 1.108-4.059 3.433-5.362 2.628-.602-.372-1.095-.257-1.095.257s-1.088.934-2.419.934c-1.826 0-2.33-.459-2.057-1.875.218-1.134-.209-1.875-1.081-1.875-.794 0-1.443.45-1.443 1s-.675 1-1.5 1-1.5.796-1.5 1.768c0 .973-1.238 2.536-2.75 3.474-1.512.938-2.187 1.717-1.5 1.731 3.965.085-2.321 6.909-7.452 8.091-2.089.481-4.698.634-5.798.34-1.429-.382-1.619-.271-.666.391 1.06.737.958 1.072-.5 1.637-1.759.682-1.754.77.107 2.139 1.689 1.243 1.722 1.429.25 1.429-.93 0-1.691-.398-1.691-.883 0-.486-.9-1.119-2-1.407-1.3-.34-2-.03-2 .884 0 .785.994 1.416 2.25 1.428 2.25.022 2.25.023-.25 1.97-1.375 1.071-3.287 1.705-4.25 1.41-.963-.295-1.75-.099-1.75.437s-.946.726-2.102.424c-1.232-.322-2.468.027-2.985.844-1.335 2.107-1.097 2.893.874 2.893 1.071 0 1.848.802 1.938 2 .119 1.58-.466 2-2.787 2-2.817 0-3.744 1.896-3.056 6.25.065.412-.332.75-.882.75-1.348 0-1.28 4.709.081 5.55.595.368.832 1.661.527 2.875-.305 1.214.033 3.078.75 4.141.717 1.064 2.092 3.959 3.056 6.434s2.717 6.067 3.895 7.983c1.178 1.916 2.211 3.941 2.296 4.5.084.559 2.011 3.042 4.282 5.517 2.27 2.475 4.373 5.264 4.672 6.199.299.934 1.439 1.983 2.533 2.33 1.152.366 2.233 1.846 2.566 3.513.317 1.585 1.649 3.584 2.959 4.443 1.311.859 2.383 1.966 2.383 2.461 0 .495 1.748 2.622 3.884 4.727 4.556 4.491 11.116 12.929 11.116 14.3 0 .526 1.012 1.496 2.25 2.155 2.804 1.494 4.452 3.473 6.288 7.554.787 1.75 1.889 3.464 2.447 3.809.558.345 1.015 1.553 1.015 2.684 0 1.132 2.748 5.157 6.106 8.945 6.127 6.91 7.819 10.702 7.87 17.63.017 2.278.494 3.25 1.595 3.25 2.956 0 4.028-2.506 5.35-12.5.727-5.5 2.864-17.425 4.748-26.5 1.961-9.441 3.567-20.387 3.756-25.586.181-4.997.827-10.016 1.435-11.153.609-1.137.965-4.799.791-8.137-.194-3.727.102-6.216.767-6.45.692-.244.52-1.065-.478-2.278-.858-1.043-1.481-2.923-1.385-4.178.245-3.194 1.424-4.061 1.545-1.135l.099 2.417.72-2.5c.423-1.469.279-2.803-.349-3.235-.67-.46-.498-.74.458-.75 1.17-.011 1.469-1.013 1.274-4.265-.14-2.338.194-5.636.743-7.329.549-1.694 1.202-8.356 1.451-14.805.25-6.449.645-12.038.88-12.421.234-.382.682-2.27.994-4.195.313-1.925 1.052-5.75 1.643-8.5.592-2.75 1.131-5.562 1.198-6.25.067-.687.497-1.25.956-1.25 1.662 0 .894-7.039-.841-7.705-.92-.353-2.53-1.499-3.577-2.546-1.047-1.047-2.434-1.7-3.082-1.452-.647.249-1.727-.135-2.398-.854-.97-1.039-.867-1.398.506-1.758 1.612-.423 1.611-.461-.025-.569-.963-.064-1.75-.903-1.75-1.866 0-1.368-.853-1.75-3.905-1.75-2.147 0-3.696.338-3.441.75.715 1.155-.464.9-3.797-.824-1.673-.865-3.297-1.319-3.608-1.008-.311.31-1.131.095-1.823-.479-.921-.764-1.414-.551-1.842.796M186.02 235.527c-.011.566.588 1.916 1.331 3 1.433 2.094 3.109 7.404 2.782 8.818-.229.987 3.522 12.354 4.914 14.891.524.955.953 3.12.953 4.809 0 1.794.416 2.816 1 2.455.595-.368 1 .823 1 2.941 0 1.957.378 3.559.839 3.559 1.416 0 3.161 4.886 3.161 8.848 0 3.532 1.857 9.127 3.035 9.144.295.004.629 2.595.744 5.758.115 3.163.721 7.95 1.348 10.638 1.803 7.74 2.859 3.27 1.391-5.888-.865-5.395-.955-8.407-.278-9.25.553-.687.612-1.264.132-1.28-.479-.017-.085-.489.878-1.05s1.75-1.572 1.75-2.247c0-.676.9-1.999 2-2.941 2.278-1.95 2.458-3.422.908-7.417-.601-1.548-1.286-3.94-1.524-5.315-.625-3.621-9.225-20.543-12.817-25.22-4.706-6.128-13.524-15.405-13.547-14.253m187.949 89.534c-3.06 5.998-7.683 21.939-6.362 21.939.355 0 3.678-1.462 7.386-3.25 7.463-3.597 7.973-4.576 7.996-15.339.01-4.489-.29-5.227-2.536-6.25-3.783-1.724-4.226-1.526-6.484 2.9" fill="#d3d3d3" fill-rule="evenodd"/></svg>