<svg xmlns="http://www.w3.org/2000/svg" width="500" height="500"><path d="M350.17 90.804C359.097 92.37 363.857 94 359.5 94c-3.018 0-1.14.941 3.673 1.84 2.48.463 6.943.515 9.918.115 2.975-.4 7.884-.321 10.909.175 3.025.497 6.85 1.118 8.5 1.382l3 .48-.327 6.882-.328 6.881 4.828.883 4.827.882-.364 27.137-.363 27.136 2.363.811c2.21.758 15.7.942 16.33.223.158-.18.609-15.682 1.002-34.45l.716-34.123-5.842-.52c-3.213-.287-12.592-1.663-20.842-3.06-8.25-1.397-16.8-2.781-19-3.075-2.2-.295-7.825-1.211-12.5-2.037-4.675-.826-12.325-1.715-17-1.977l-8.5-.476 9.67 1.695M348 103.802c-3.236.446-3.312.531-1 1.131 2.258.586 2.529 1.214 2.804 6.496.167 3.216-.011 6.572-.395 7.459-.904 2.083-.831 6.094.155 8.526.546 1.347.429 1.7-.394 1.191-.78-.482-1.17.151-1.17 1.895 0 1.491.431 2.352 1 2 .55-.34 1 .084 1 .941s-.45 1.559-1 1.559-.993 1.012-.985 2.25c.013 1.819.201 1.963.985.75.635-.982.975 12.175.985 38.133l.015 39.634-2.25.603c-1.238.331-3.488.609-5 .616L340 217l-.038-16.25c-.112-47.089.117-56.004 1.525-59.372l1.411-3.378h-5.842l-.278-13.75-.278-13.75-5.258.281c-2.892.154-8.967-.394-13.5-1.217-5.778-1.05-9.887-1.246-13.742-.656-3.025.463-4.375.906-3 .983 2.034.114 2.22.331 1 1.168-.928.636-5.315.81-11.5.454-11.866-.681-15.225.524-6.489 2.328l5.989 1.237.125 27.461c.069 15.104.238 27.911.375 28.461.137.55.306 1.498.375 2.107.069.609.8.848 1.625.531 1.228-.471 1.5.486 1.5 5.275v5.85l4.25 1.048c3.897.962 6.217.889 12.5-.391 2.12-.432 2.254-.961 2.313-9.189.138-18.983 1.389-29.808 3.865-33.42 2.192-3.199 2.623-3.375 8.192-3.344l5.878.033.001 38.167c.001 24.303.361 38.287.991 38.5 1.815.611 2.655 151.648.847 152.342-2.21.848-66.292 14.367-66.608 14.052-.378-.376-.461-23.364-.336-92.694.105-58.747.137-59.642 2.107-60.157 1.863-.487 2-.03 2 6.677v7.2l4 1.067 4 1.068v-62.17c0-53.115-.214-62.452-1.468-64.111-.808-1.067-1.483-1.552-1.5-1.076-.018.476-1.141.138-2.497-.75-3.286-2.153-3.114-2.27-4.627 3.135l-1.33 4.75-.343-3.65-.344-3.65-5.698.516c-3.465.314-8.961-.149-14.029-1.183-4.582-.934-8.574-1.456-8.871-1.159-1.122 1.121.727 3.626 2.676 3.626 1.954 0 2.031.587 2.031 15.5V151l-2.75.015c-5.39.03-5.893 1.37-3.745 9.985.688 2.758 2.349 33.283 2.438 44.809.036 4.639.425 7.082 1.064 6.687.554-.343 1.269.061 1.59.896.494 1.289.909 1.214 2.743-.495l2.16-2.014.615 87.809c.338 48.294.491 87.954.341 88.133-.15.179-6.727 1.67-14.614 3.314-7.888 1.644-24.017 5.012-35.842 7.483a37760.662 37760.662 0 0 1-45 9.37 10740.412 10740.412 0 0 0-34.676 7.249l-11.177 2.372-.577-8.057c-.584-8.15-3.107-88.549-4.259-135.724l-.627-25.669 2.908-.331 2.908-.332-.341-10.318c-.449-13.565-.086-14.855 4.332-15.371 1.93-.225 3.509-.023 3.509.449 0 .472.403.609.895.305.493-.305 1.171.166 1.509 1.044.342.893 1.258 1.351 2.072 1.038.803-.308 1.688-.19 1.967.261.279.452 1.531.757 2.782.677 1.251-.079 2.647.32 3.101.886.551.686.995.613 1.333-.221.755-1.861 2.14-1.511 1.98.5-.083 1.05.514 1.702 1.494 1.631 1.453-.107 1.73 2.778 2.5 26 .537 16.168 1.248 26.119 1.867 26.119.55 0 1.847-1.735 2.883-3.856 1.626-3.331 1.903-6.47 2.024-23 .186-25.211-1.012-84.198-1.8-88.644a172.335 172.335 0 0 1-.95-6c-.924-6.989-1.925-11-2.745-11-1.55 0-1.005-7.422.727-9.895 1.572-2.244 1.518-2.452-1.322-5.107-2.833-2.647-3.108-2.705-6.357-1.339-1.867.785-3.741 1.971-4.162 2.634-.422.664-.774.837-.783.386-.008-.452-.803-.034-1.765.929-1.667 1.668-1.774 1.612-2.259-1.179-.699-4.024-13.344-7.625-22.619-6.441-3.23.412-5.283.809-4.563.881 2.864.287-.161 2.136-3.618 2.212l-3.691.081 3 1.374c2.373 1.087 2.582 1.394 1 1.47-1.1.052-3.829.33-6.064.617-3.47.444-37.824-7.469-58.936-13.576a113.763 113.763 0 0 0-5.75-1.476l-2.75-.609v8.132c0 4.567.848 11.7 1.934 16.269 1.063 4.475 2.244 10.31 2.625 12.967.381 2.656 1.261 5.047 1.956 5.314.695.267 1.036 1.356.758 2.421-.279 1.064-.066 1.935.473 1.935.538 0 .855 1.125.705 2.5-.151 1.375.083 2.5.52 2.5.799 0 2.346 3.828 2.13 5.27-.063.424 1.021 3.011 2.409 5.75s2.191 4.98 1.784 4.98c-.406 0 .261.701 1.483 1.557C32 188.413 33 190.002 33 191.088c0 1.086.701 2.244 1.557 2.572.857.329 1.321 1.215 1.032 1.969-.344.896.242 1.398 1.692 1.45 1.221.043 1.682.297 1.025.565-1.558.634-.503 3.356 1.301 3.356.766 0 1.393.389 1.393.863 0 .475 1.012.806 2.25.735 2.418-.139 4.829 1.425 4.086 2.652-.395.653 2.754 1.209 4.914.868.413-.065.75.359.75.941s.45.781 1 .441 1 .069 1 .91c0 1.002.601 1.334 1.75.964 1.463-.47 1.505-.39.258.49-1.188.838-1.238 1.306-.25 2.294.989.989 1.242.919 1.242-.345 0-.998 1.112-1.749 3-2.026 2.399-.352 3-.075 3 1.386 0 1.005.627 1.827 1.393 1.827s1.639.64 1.939 1.422c.338.883 1.345 1.214 2.649.873 1.157-.303 2.032-.156 1.943.327-.492 2.682.125 3.422 2.01 2.413 1.064-.569 2.162-1.035 2.439-1.035 1.357 0 1.55 4.218 6.675 146.367 1.128 31.277 1.881 57.037 1.675 57.244-.207.207-19.353 4.316-42.547 9.132L.006 438.5l-.003 30.752L0 500.004l250.25-.252 250.25-.252-.383-83.5c-.211-45.925-.436-83.568-.5-83.652-.064-.083-6.642 1.361-14.617 3.21-13.792 3.198-104.151 23.11-123.754 27.271l-9.254 1.965.254-122.064c.201-96.58.515-122.15 1.504-122.48.864-.288 1.25.844 1.25 3.667 0 3.358.34 4.083 1.918 4.083 3.187 0 5.082 1.115 5.082 2.99 0 2.002 2.683 2.976 8.25 2.996L374 134v10.617c0 10.037.107 10.588 1.952 10.106 1.074-.281 2.142.004 2.375.633 2.534 6.854 4.817-22.427 3.234-41.485l-.695-8.371-5.723.328c-3.148.181-9.468-.382-14.044-1.25-4.576-.868-8.608-1.506-8.959-1.418-.352.088-2.215.377-4.14.642m-231.549 5.118c.312.505-2.153.657-5.701.35-8.916-.771-7.033.153 7.606 3.734 10.982 2.686 13.779 3.028 19.483 2.381l6.661-.754-11.006-2.642c-15.233-3.656-17.678-4.096-17.043-3.069m99.433 13.441c1.457 1.755-9.404 2.93-14.2 1.536-1.751-.509-7.234-.938-12.184-.952-4.95-.015-10.302-.121-11.893-.236-3.015-.218-4.404 2.211-6.143 10.739-.44 2.157-.83 2.577-1.456 1.566-.597-.967-.966-.351-1.228 2.052-.274 2.518-.595 1.505-1.204-3.796-1.493-13-2.311-6.758-2.475 18.905-.089 13.87-.378 25.435-.642 25.699-.264.264-1.112-.384-1.884-1.441-.773-1.056-1.057-2.148-.631-2.427.425-.278.58-1.406.345-2.506-.235-1.1-.39-3.575-.345-5.5.057-2.452-.193-3.08-.834-2.098-.613.938-.905-.387-.885-4 .024-4.062.223-4.782.803-2.902.721 2.334.779 2.281.872-.809.06-1.972-.304-3.059-.9-2.691-.819.506-1.659-8.324-1.118-11.75.065-.412-.219-.749-.632-.748-.412.001-.595-2.747-.406-6.106.395-7.003-.159-7.856-5.764-8.881-4.043-.74-6.169 1.246-2.742 2.561 1.079.414 1.47 9.811 2.017 48.429.732 51.63.924 54.417 3.697 53.692 1.352-.354 1.915.312 2.386 2.823.652 3.478 3.037 5.291 3.923 2.982.564-1.469 6.639-1.79 6.639-.35 0 .466.927.848 2.059.848 1.305 0 1.797.424 1.344 1.158-.486.786-.052.983 1.354.616 2.849-.745 3.213 1.159 3.229 16.898l.014 13.173 3.589 1.184c2.288.756 5.913.936 10 .498l6.411-.686V229h4.878c3.099 0 5.328-.543 6.113-1.489.68-.819 1.635-1.242 2.122-.941.488.301.887-.18.887-1.07 0-.981.461-1.333 1.17-.895.792.49.959.173.516-.981-.479-1.248-.189-1.627 1.08-1.414 3.898.652 4.431 2.488 4.98 17.157.416 11.124.837 14.3 1.895 14.3.867 0 1.359-1.178 1.359-3.25 0-1.788.457-3.403 1.017-3.589 1.865-.622 2.207-7.05 2.699-50.828.317-28.262.85-43.725 1.519-44.141.567-.353-.379-.951-2.102-1.33-2.964-.651-3.133-.939-3.138-5.358-.003-2.569-.296-9.058-.651-14.421l-.646-9.75h-2.971c-2.393 0-2.752.265-1.843 1.361" fill="#d3d3d3" fill-rule="evenodd"/></svg>