<svg xmlns="http://www.w3.org/2000/svg" width="500" height="553"><path d="M324 140.381c-3.025.668-6.4 1.755-7.5 2.416-1.1.661-5.637 2.704-10.083 4.539-8.873 3.664-15.532 7.851-22.408 14.089-8.989 8.156-24.236 24.208-28.092 29.575-2.173 3.025-5.202 7.128-6.73 9.118-1.529 1.99-3.401 5.59-4.161 8-.76 2.41-2.02 5.141-2.802 6.069-.781.928-1.165 2.1-.853 2.605.312.504-.583 1.995-1.989 3.313-1.406 1.317-3.227 3.97-4.047 5.895-1.481 3.479-3.479 23.361-2.587 25.75.256.688-.032 1.25-.641 1.25S231 254.507 231 256.35c0 5.833-4.917 11.399-10.132 11.471-2.671.037-3.785-.254-2.948-.771 2.194-1.356-2.483-2.354-4.92-1.05-2.623 1.404-5.99.389-6.032-1.817-.028-1.478-.18-1.5-1.25-.183-.67.825-1.991 1.56-2.936 1.634-.945.073-2.857.419-4.25.769-1.992.5-2.535.258-2.547-1.134-.013-1.48-.168-1.529-.947-.297-.797 1.261-1.025 1.224-1.592-.252-.438-1.141.107-2.347 1.608-3.563 1.555-1.259 1.904-2.065 1.108-2.557-.639-.395-1.162-.241-1.162.341 0 1.823-2.83 1.157-5.006-1.178-1.234-1.324-2.371-1.834-2.789-1.25-1.714 2.399-10.114 2.309-11.97-.128-1.314-1.725-1.402-1.564-1.032 1.9.322 3.02.089 3.723-1.15 3.475-1.071-.214-1.582-1.544-1.646-4.285-.141-5.968-.311-6.653-1.475-5.933-.588.363-.844 1.245-.569 1.961.283.738-.41 1.538-1.606 1.85-2.82.738-4.124-.206-2.683-1.942.929-1.12.824-1.411-.511-1.411-.924 0-1.403.45-1.063 1 .34.55.141 1-.441 1S162 255.323 162 256.941c0 1.618-.468 3.23-1.041 3.584-.572.354-.758 1.532-.414 2.618.5 1.575-.313 1.257-4.016-1.569-4.454-3.4-4.744-3.479-7.086-1.944-1.344.88-2.447 1.886-2.451 2.235-.004.349-1.129 1.155-2.5 1.791-3.708 1.72-3.019.102 1.506-3.534 4.136-3.324 7.498-8.511 6.531-10.076-.305-.492.097-1.041.892-1.22 1.212-.274 1.232-.614.121-2.118-1.175-1.59-1.844-1.661-5.954-.626-3.371.849-5.78.876-8.859.1-9.688-2.443-48.396-3.642-48.396-1.499 0 1.266.249 1.415 2.834 1.692.641.069 1.375.751 1.63 1.516.359 1.076-.19 1.227-2.417.669-2.9-.727-7.405-4.56-5.36-4.56.604 0 .82-.45.48-1-.34-.55-3.629-1.016-7.309-1.035-3.68-.019-9.418-.621-12.751-1.337-3.334-.715-6.709-1.173-7.5-1.016-.792.157-3.24.593-5.44.969s-4.9 1.475-6 2.443c-1.1.968-3.399 2.056-5.109 2.417-4.791 1.011-10.324 8.148-11.849 15.282-1.113 5.206-5.872 8.48-11.965 8.234-2.792-.113-8.339-.149-12.327-.081L0 269v284.075l238.07-.288c216.477-.261 238.152-.431 238.961-1.879.578-1.032 2.046-1.519 4.18-1.385 1.809.114 3.62-.295 4.024-.908.416-.632.748-.033.765 1.385.017 1.375.361 2.028.765 1.452 1.12-1.598 5.27-1.523 5.896.106.727 1.895 2.339 1.855 2.339-.058 0-1.816 1.634-1.991 2.341-.25.393.97.72.945 1.462-.113.806-1.151 1.039-1.151 1.497 0 .298.75.47-62.762.382-141.137-.112-99.452-.314-123.166-.671-78.5-.497 62.189-.703 66.202-3.261 63.484-.281-.298-9.296-.743-18-.888L473 394v-3.511c0-1.931-.633-7.668-1.406-12.75-1.424-9.36-4.236-42.473-3.749-44.153.815-2.814-3.107-34.287-5.431-43.586-3.029-12.119-8.232-19.039-11.704-15.567-1.145 1.145-1.529 1.086-2.443-.377-.728-1.166-2.017-1.615-3.926-1.368-4.089.531-6.151-1.007-4.314-3.22 1.21-1.458 1.168-1.853-.315-2.936-1.834-1.342-2.373-5.532-.712-5.532 1.438 0 1.235-2.736-.25-3.354-.9-.375-.738-.935.577-2 1.673-1.354 1.697-1.679.291-3.825-.845-1.29-1.807-5.239-2.137-8.776-.331-3.536-.857-6.844-1.169-7.349-.313-.506-.004-1.268.686-1.695 1.546-.955 2.054-8.351.856-12.461-1.881-6.452-1.922-8.615-.198-10.339 1.56-1.56 1.565-1.727.061-2.017-1.244-.24-1.499-1.022-1.056-3.238.372-1.86.003-3.81-1.015-5.364-2.181-3.327-3.316-10.582-1.657-10.582 1.338 0 1.23-.805-1.389-10.299-1.87-6.777-1.894-7.001-.669-6.244 1.91 1.181 1.947-1.257.045-2.978-1.087-.984-1.976-2.394-1.976-3.134 0-.74-.45-1.345-1-1.345s-1-.9-1-2-.445-2-.989-2-.96-1.012-.926-2.25c.034-1.238-.161-3.15-.435-4.25-.273-1.1-.546-2.225-.605-2.5-.06-.275-.716.301-1.459 1.279-1.423 1.876-2.323.987-3.162-3.121-.417-2.041-1.641-2.817-2.158-1.367-.324.911-1.021.644-2.363-.903-1.318-1.519-1.938-1.763-2.018-.791-.064.772-.176 2.039-.25 2.817-.202 2.114-5.638 3.698-6.719 1.958-.494-.796-.446-1.512.116-1.705.532-.184.968-.801.968-1.373 0-.682-.462-.656-1.342.075-1.745 1.448-2.975.218-1.527-1.527 1.474-1.777-.664-1.853-2.564-.092-1.13 1.048-1.124 1.685.039 3.943.882 1.713 1.024 2.918.39 3.309-.548.339-.996.139-.996-.443 0-1.833-1.854-1.162-5.234 1.893l-3.266 2.953 2.125 1.517c3.523 2.514 3.646 5.311.256 5.809-1.584.232-2.881.112-2.881-.268 0-1.007-7.383-5.963-8.883-5.963-.912 0-1.082.926-.596 3.25.696 3.328 3.479 7.299 3.479 4.964 0-2.049 3.794-1.346 5.443 1.009 2.102 3.001 1.958 4.039-.454 3.274-1.858-.59-1.918-.435-.788 2.046.673 1.476 1.39 2.183 1.595 1.57.54-1.62 1.895-1.362 2.608.498.443 1.153.189 1.447-.893 1.032-1.98-.76-1.915.865.178 4.408.929 1.573 2.617 2.992 3.75 3.154 1.356.194 2.157 1.15 2.341 2.795.584 5.218 1.309 7 2.846 7 1.014 0 1.376.553 1.001 1.53-1.183 3.083 2.617 9.508 9.303 15.731 8.173 7.606 12.803 15.87 15.404 27.489 1.37 6.122 1.165 6.864-1.742 6.316-.5-.095-1.291.415-1.758 1.131-.647.993-1.317.709-2.819-1.197-1.084-1.375-1.981-1.999-1.993-1.386-.012.616-1.697 1.113-3.772 1.113-3.235 0-3.77-.325-3.894-2.364-.114-1.866.359-2.363 2.25-2.363 1.317 0 2.394.45 2.394 1s.45 1 1 1 1-1.077 1-2.393c0-2.439-1.646-3.607-5.082-3.607-1.232 0-1.918-.694-1.918-1.941 0-1.068-.45-2.219-1-2.559-.55-.34-1 .102-1 .981 0 2.659-7.967 1.735-9.025-1.046-.452-1.189-1.531-2.434-2.398-2.767-.868-.333-1.577-1.294-1.577-2.137 0-.842-.675-1.531-1.5-1.531-1.942 0-1.887-.84.297-4.5 2.187-3.665 1.761-6.5-.977-6.5-1.358 0-1.851-.478-1.482-1.438.36-.939-.209-1.546-1.643-1.75-1.745-.248-2.259-1.081-2.505-4.062-.171-2.062-.782-3.75-1.357-3.75-.576 0-.788-.675-.471-1.5.316-.825.139-1.5-.393-1.5-.533 0-.969-.675-.969-1.5s-.477-1.5-1.059-1.5-.781-.45-.441-1 .168-1-.382-1-1.299.484-1.665 1.075c-1.637 2.65-8.453-9.889-8.453-15.553 0-1.322-.43-2.67-.956-2.995-.526-.325-.702-1.255-.39-2.067.311-.811-.177-2.61-1.086-3.996-.908-1.386-1.388-2.946-1.067-3.466.844-1.365-3.108-4.437-5.751-4.47-1.618-.02-2.347-.717-2.596-2.48-.316-2.24-.192-2.327 1.437-1 1.605 1.306 1.715 1.268 1.096-.38-.378-1.007-.687-2.02-.687-2.25 0-.23-.633-.418-1.406-.418-.948 0-1.223-.703-.843-2.156.343-1.313.17-1.913-.442-1.535-1.003.62-3.245-1.156-6.549-5.186-.957-1.168-2.87-2.123-4.25-2.123-1.429 0-2.402-.519-2.26-1.205.137-.662-.275-1.225-.917-1.25-2.249-.087-2.642-1.545-.416-1.545 3.5 0 1.9-2.454-1.839-2.82-1.798-.177-5.035.386-7.193 1.25-4.913 1.965-4.663 1.998-5.179-.68-.239-1.238-.495-.263-.57 2.167-.142 4.601-1.294 4.878-1.887.454-.188-1.405.184-3.188.827-3.963 1.454-1.752-.232-1.758-8.076-.027m126.656 20.59c-.327 1.634-1.733 4.775-3.125 6.98-2.495 3.952-3.262 9.724-1.946 14.627.503 1.872.896 1.973 3.959 1.014 1.87-.585 3.586-1.745 3.812-2.578.315-1.159.439-1.103.528.236.064.963.566 1.75 1.116 1.75.55 0 1 .691 1 1.535 0 1.199-.417 1.312-1.901.518-1.307-.7-2.89-.673-5.062.084l-3.161 1.102 2.236 2.38c1.23 1.31 1.804 2.381 1.275 2.381-.529 0-1.029.9-1.112 2-.083 1.1.271 2 .787 2s.938.659.938 1.465c0 .805.883 1.937 1.963 2.515 1.153.618 1.728 1.663 1.393 2.535-.785 2.045 1.324 1.879 2.485-.196.865-1.544 1.071-1.55 2.55-.071 2.02 2.02 2.071 3.143.109 2.39-.825-.316-1.5-.139-1.5.393 0 .533.955.969 2.122.969 1.745 0 1.908.259.914 1.456-.664.801-.895 1.963-.513 2.582.457.739-.113 1.011-1.664.793-1.895-.266-2.343.111-2.28 1.919.044 1.238-.47 2.25-1.143 2.25-1.455 0-2.436-2.247-2.436-5.582 0-1.33-.506-2.418-1.125-2.418-.744 0-.891 1.1-.435 3.25.988 4.649 1.215 5.799 1.973 10 .596 3.297 2.587 5.414 2.587 2.75 0-.55.886-1 1.969-1 1.289 0 1.78-.49 1.424-1.419-.863-2.249 2.579-6.849 4.149-5.546.968.803 1.452.558 1.941-.982.359-1.129 1.071-2.053 1.584-2.053.513 0 .933-.848.933-1.883 0-2.096 3.636-3.559 4.373-1.761.779 1.899.596-2.567-.293-7.166-.703-3.637-.599-4.219.67-3.732 1.789.686 4.173-2.133 4.218-4.985.018-1.115-1.318-3.212-2.968-4.66s-3-2.237-3-1.754c0 .483-.672.62-1.494.305-.822-.316-1.241-.984-.931-1.485.31-.501.894-.707 1.299-.457 2.021 1.249.872-8.003-1.201-9.665-1.73-1.387-1.897-1.922-.82-2.622 1.086-.707 1.115-1.327.143-3.143-.98-1.83-1.399-1.998-2.198-.877-.789 1.108-.883 1.059-.47-.243.509-1.606-.971-3.872-2.528-3.872-.44 0-.8.779-.8 1.732 0 1.133-.848.485-2.45-1.874-2.223-3.271-4.349-4.858-6.507-4.858-.436 0-1.06 1.337-1.387 2.971M291 164.531c0 .808.031 1.768.069 2.133.038.365-2.324 1.672-5.25 2.905-4.256 1.793-5.382 2.76-5.635 4.836-.323 2.645-.923 2.961-4.989 2.627-2.905-.239-6.508 2.108-11.938 7.776-4.931 5.146-5.004 5.39-2.007 6.705 1.811.794 2.65.561 4.301-1.195 1.336-1.42 2.521-1.891 3.396-1.351 1.902 1.176.549 4.161-1.525 3.365-1.422-.546-1.491-.33-.495 1.532 1.008 1.884.86 2.28-1.133 3.021-3.165 1.176-4.477.464-5.721-3.105l-1.066-3.059-2.902 3.323c-1.595 1.828-2.674 3.916-2.396 4.64.278.724-.11 1.316-.861 1.316-2.238 0-4.246 3.91-2.376 4.627.834.321 1.268.985.963 1.478-1.103 1.785 2.165.843 3.833-1.105 1.907-2.227 3.867-2.663 3.482-.774-.48 2.355 3.799 1.883 6.211-.684 1.313-1.398 3.008-2.542 3.765-2.542.758 0 1.858-1.378 2.445-3.061.684-1.962 1.564-2.871 2.448-2.532.788.303 1.381-.1 1.381-.938 0-.816.915-1.469 2.059-1.469 1.132 0 1.781-.45 1.441-1-.34-.55-.172-1 .374-1 1.425 0 2.488-3.897 2.25-8.25-.231-4.218 1.018-4.814 3.29-1.569 1.461 2.085 1.613 2.104 3.457.435 2.903-2.626 3.534-5.955 1.004-5.294-1.248.327-1.846.084-1.604-.651.212-.644 1.403-1.32 2.645-1.502 1.855-.272 2.149-.773 1.642-2.792-.394-1.573-.065-3.013.912-3.99 1.93-1.929 1.938-3.016.03-3.749-.914-.35-1.5-.001-1.5.893m2.75 26.702c-1.512.514-2.75 1.501-2.75 2.195 0 .693-1.124 2.568-2.499 4.166-1.374 1.599-2.499 3.188-2.5 3.534-.002.951 2.672 2.969 3.644 2.748.829-.188 2.334.277 7.176 2.216 2.044.819 2.245.69 1.682-1.081-.498-1.572-.186-2.011 1.43-2.011 1.355 0 2.067-.646 2.067-1.878 0-2.656 2.867-4.955 3.964-3.18 1.058 1.712 3.119.438 2.385-1.474-.614-1.601.931-1.804 4.151-.546 2.129.833 3.019 8.045 1 8.11-1.162.037 2.483 2.968 3.691 2.968.445 0 .809-1.07.809-2.378s.916-2.995 2.035-3.75c1.58-1.066 1.899-2.042 1.425-4.372-.69-3.395-.572-3.365-14.496-3.75-5.199-.144-9.34-.717-9.75-1.35-.484-.746-1.6-.799-3.464-.167m37.32 26.724c-1.171.723-1.134 1.122.225 2.481 1.638 1.638 1.321 4.562-.496 4.562-2.259 0-11.576 6.419-11.103 7.65.401 1.046 1.057 1.012 3.352-.175 1.569-.811 3.667-1.475 4.662-1.475.995 0 2.391-.931 3.102-2.07.851-1.363 2.214-2.01 3.99-1.894 4.505.294 5.435.024 4.883-1.414-.66-1.72 1.135-3.628 2.808-2.986 1.619.621 2.886-2.657 1.545-3.998-1.307-1.307-11.122-1.822-12.968-.681m34.314 2.58c-1.94 2.961-12.184 9.155-21.17 12.802-4.153 1.685-8.555 4.629-12.97 8.675-3.791 3.473-7.972 6.382-9.661 6.719-2.626.526-11.582 8.34-11.584 10.109 0 .362 4.162.513 9.25.335 8.085-.283 9.947-.013 14.773 2.136 4.645 2.069 6.314 2.338 10.5 1.689 6.629-1.028 48.642-.381 59.948.924 4.933.569 9.326.678 9.761.243.436-.436-1.911-2.564-5.215-4.73-3.303-2.167-6.008-4.255-6.011-4.641-.003-.386-1.918-2.033-4.255-3.659-6.437-4.478-20.316-18.864-23.156-24.001-1.725-3.121-6.766-9.138-7.655-9.138-.491 0-1.641 1.142-2.555 2.537M.486 411c0 78.375.119 110.438.264 71.25.145-39.188.145-103.313 0-142.5S.486 332.625.486 411M372 336.443c0 .243.872 1.931 1.937 3.75 1.066 1.819 2.664 6.457 3.553 10.307.888 3.85 2.285 9.7 3.105 13 .819 3.3 1.65 7.8 1.847 10 .471 5.271 3.534 22.653 4.174 23.688.769 1.244 2.368.97 4.027-.688 1.881-1.881 2.828-1.886 4.691-.023 1.302 1.302 1.551.21 2.11-9.25.348-5.9.864-14.552 1.147-19.227.282-4.675.045-11.2-.526-14.5-.572-3.3-1.274-7.598-1.561-9.552-.468-3.198-.844-3.564-3.762-3.676-1.783-.069-6.113-1.058-9.622-2.198-5.903-1.919-11.12-2.684-11.12-1.631m117.067 86.976c-.923 1.113-.839 1.609.391 2.297 1.39.779 1.348 1.115-.372 2.961-1.923 2.065-1.921 2.092.237 3.135 1.774.858 1.853 1.065.427 1.12-1.58.061-1.552.266.286 2.104 2.15 2.15 1.734 4.473-.637 3.564-.772-.297-1.399.066-1.399.809 0 2.994-2.765 3.902-6.875 2.258-2.144-.858-4.164-1.295-4.487-.971-.324.324-2.063-.857-3.864-2.625-3.043-2.986-3.297-3.066-3.594-1.14-.263 1.704-.795 1.956-3 1.416-1.474-.361-2.83-1.037-3.013-1.502-.518-1.313-7.165-.996-11.634.555-2.218.77-6.058 1.984-8.533 2.698-3.44.992-3.97 1.385-2.25 1.669 2.01.332 2.69 1.306 2.389 3.422-.054.379.792.972 1.881 1.317 1.089.346 1.987 1.161 1.995 1.811.01.72.438.596 1.095-.317.901-1.252.982-1.201.493.31-.521 1.609-.115 1.747 3.655 1.238 10.285-1.388 21.389-1.338 26.742.118 3.025.824 8.875 1.566 13 1.651l7.5.153.165-5.485c.091-3.017-.061-4.664-.338-3.66-.475 1.726-.606 1.732-2.391.117-1.039-.94-1.617-2.149-1.284-2.687.332-.538.024-1.337-.686-1.776-1.007-.622-.885-1.202.553-2.638 1.79-1.788 1.827-1.783 1.313.189-.291 1.116.058 2.578.777 3.25 1.991 1.859 2.305 1.508 1.817-2.03-.714-5.177-1.255-9.192-1.344-9.969-.045-.395-.699-.481-1.453-.192-.754.289-1.626-.14-1.939-.954-.356-.928-1.342-1.277-2.644-.937-1.61.421-1.936.179-1.454-1.077.767-2 .046-2.095-1.525-.202m-61.442 34.783c.408.66.643 2.879.522 4.93-.128 2.166.319 4.071 1.067 4.548.707.451 1.807 1.72 2.443 2.82.636 1.1 1.688 1.875 2.336 1.721.649-.153 1.418.635 1.71 1.75.292 1.116.928 2.029 1.414 2.029.485 0 .883.45.883 1s-1.125 1-2.5 1-2.5-.395-2.5-.878-1.575-.164-3.5.708c-3.801 1.723-4.519 3.003-1.75 3.119 4.573.19 6.25.549 6.25 1.337 0 2.495 3.263 3.944 7.743 3.44 3.152-.356 5.355-.053 6.878.945 1.233.808 4.033 1.596 6.222 1.752 2.19.156 6.013 1.475 8.497 2.93 5.679 3.328 7.025 3.388 3.254.146-1.598-1.375-3.455-2.499-4.127-2.499-.672 0-1.782-.675-2.467-1.5-1.015-1.223-.96-1.5.295-1.5 2.73 0 10.397 3.756 11.029 5.403.337.878 1.415 1.584 2.395 1.568 1.895-.032-2.954-5.183-5.845-6.21-.756-.268-1.078-.807-.717-1.198.916-.99 5.844 1.711 9.146 5.012 1.922 1.922 3.079 2.443 3.807 1.715.728-.728-.523-2.062-4.115-4.39-2.839-1.84-4.635-3.52-3.991-3.735 1.555-.518 8.944 2.718 11.648 5.102 1.184 1.044 3.204 1.748 4.489 1.565 2.054-.292 1.723-.725-2.74-3.582-2.792-1.788-5.599-3.25-6.239-3.25-.639 0-1.162-.441-1.162-.98 0-1.444 5.205-.587 8.147 1.34 1.401.919 4.675 1.763 7.275 1.876 4.336.188 4.691.394 4.291 2.484-.239 1.253.196 3.066.967 4.029 1.344 1.678 1.418-.678.371-11.785-.028-.294-.839-.568-1.801-.609-.962-.04-2.988-.332-4.5-.648s-2.75-.186-2.75.289c0 .485-1.324.485-3.018-.001-1.661-.476-3.255-.848-3.543-.827-2.154.16-6.439-2.716-6.439-4.322 0-2.126 4.238-4.31 4.9-2.524.22.593-.136 1.257-.791 1.475-.75.25-.37 1.11 1.028 2.321 1.714 1.487 2.402 1.636 3.025.653 1.199-1.888 1.006-3.993-.292-3.191-.673.416-.951.163-.687-.628.92-2.761 2.817-2.111 2.817.965 0 1.696.45 3.083 1 3.083s1-.675 1-1.5.643-1.5 1.429-1.5c.785 0 2.103.675 2.928 1.5 2.681 2.681 4.282 1.846 3.833-2-.261-2.236.013-3.5.76-3.5.642 0 .946.359.675.798-.271.439-.08 1.451.426 2.25.604.956.924-1.196.934-6.298L500 459h-2.893c-1.649 0-3.141.645-3.469 1.5-.316.825-1.208 1.5-1.982 1.5-.83 0-1.406 1.016-1.406 2.482 0 1.447.429 2.216 1.03 1.845.636-.393.72-.136.22.673-.558.902-.42 1.069.442.536.863-.533 1.139-.194.89 1.096-.677 3.519-3.235 2.037-4.109-2.382-.772-3.903-3.698-6.252-3.738-3-.011.833-.339.75-.985-.25-.646-1-.974-1.083-.985-.25-.008.688-.69 1.25-1.515 1.25s-1.5.502-1.5 1.117c0 .623-.882.886-1.998.594-1.742-.456-1.93-.141-1.472 2.459.335 1.902.153 2.752-.502 2.347-.566-.349-1.028-.132-1.028.483s-.468.829-1.041.475c-.572-.354-.75-1.559-.395-2.677.462-1.456.261-1.9-.709-1.561-.885.309-1.253 1.738-1.062 4.118.162 2.005-.16 3.645-.715 3.645-1.289 0-3.211-3.534-2.376-4.369.347-.347-.119-.631-1.035-.631-.917 0-1.667.45-1.667 1 0 1.759-5.34 1.055-10.613-1.4-2.812-1.31-6.606-2.709-8.432-3.11-4.039-.887-9.962-4.118-11.563-6.306-.919-1.258-1.484-1.352-2.59-.434-1.118.927-1.712.762-2.829-.788-1.513-2.099-3.592-2.772-2.348-.76" fill="#d3d3d3" fill-rule="evenodd"/></svg>