<svg xmlns="http://www.w3.org/2000/svg" width="500" height="657"><path d="M0 2.387c0 2.3.271 2.388 7.455 2.413 4.1.014 7.829.258 8.287.541.778.48.822 26.621.125 74.546-.205 14.137-.69 21.146-1.582 22.864-1.689 3.256-1.882 2.905 2.965 5.368 2.337 1.188 5.793 3.785 7.679 5.77l3.43 3.611-3.205.315-3.206.316.662 5.184c.859 6.738.758 6.702 5.236 1.852 2.116-2.292 4.289-4.167 4.83-4.167.54 0 .947-1.013.903-2.25-.051-1.451.454-2.178 1.421-2.048 4.17.56 14.916 4.217 18 6.125 1.925 1.191 4.175 2.168 5 2.172.825.003 4.07 1.692 7.212 3.753 3.141 2.062 7.186 4.654 8.989 5.761 3.551 2.182 4.98 5.487 2.372 5.487-2.138 0-1.977 1.325.427 3.5 1.476 1.336 2 3.08 2 6.655 0 2.665.42 4.845.933 4.845 1.302 0 2.24-3.387 1.483-5.359-.347-.903-.169-1.641.394-1.641.563 0 1.173.439 1.357.974.449 1.315 4.833.092 4.833-1.349 0-.627-1.125-3.254-2.5-5.837-3.154-5.926-3.227-8.546-.25-8.968 2.653-.377 2.507 1.27 2.766-31.118.101-12.539.549-24.014.997-25.5 1.038-3.443 1.078-2.762 2.427 41.798.359 11.825.885 22.282 1.169 23.238.285.956-.265 3.064-1.222 4.684-1.21 2.048-1.437 3.348-.744 4.262.548.724 1.606 3.341 2.351 5.816 1.869 6.212 3.386 7.57 2.522 2.258-.809-4.977 1.577-6.596 8.926-6.056l4.058.298-.057 6c-.032 3.3-.369 7.88-.751 10.178-.523 3.154-.309 4.562.871 5.743 1.955 1.954 1.086 3.561-1.553 2.871-1.093-.285-1.773-.867-1.51-1.292.263-.426-.192-1.329-1.011-2.009-.819-.68-1.489-1.856-1.489-2.613 0-.758-.378-1.378-.839-1.378-.462 0-1.421-1.237-2.132-2.75-.776-1.653-1.476-2.238-1.755-1.466-.255.706-.023 1.831.516 2.5.538.669 1.298 2.709 1.689 4.533.433 2.027 1.517 3.616 2.786 4.085 1.387.514 1.688 1.009.906 1.492-.644.398-1.171 1.174-1.171 1.724s.375.768.833.485c.459-.283.88.028.937.691.309 3.617 4.359 19.157 5.283 20.27 1.373 1.655 1.584 11.735.658 31.436-.401 8.525-1 21.8-1.33 29.5-.33 7.7-.9 16.925-1.265 20.5-.366 3.575-.413 8.075-.105 10 .308 1.925.25 9.125-.129 16-.38 6.875-.954 20.15-1.278 29.5-.323 9.35-.886 24.087-1.251 32.75L104.69 387h-2.811c-2.609 0-2.857-.35-3.459-4.892-.85-6.404-6.376-9.61-9.087-5.27-.965 1.546-.438 2.776 3.325 7.75 2.46 3.252 6.01 8.162 7.889 10.912 4.857 7.108 17.936 19.806 16.996 16.5-.392-1.375-1.574-3.719-2.627-5.21-1.054-1.49-1.916-3.163-1.916-3.718 0-1.682 2.881-.023 3.534 2.035.335 1.057.973 1.698 1.416 1.424 1.324-.818 2.167 5.623.931 7.112-1.543 1.859.602 4.357 3.741 4.357 1.711 0 2.378.561 2.378 2 0 1.451-.667 2-2.429 2-2.744 0-2.147.527-13.571-11.984-8.084-8.854-21.324-21.195-27.374-25.516-20.176-14.41-35.956-28.131-35.288-30.684.365-1.397-.102-1.816-2.025-1.816-1.572 0-2.676-.672-2.974-1.81-.26-.995-2.693-3.263-5.406-5.039-2.713-1.776-4.933-3.588-4.933-4.026 0-.437-2.003-2.827-4.45-5.31-2.451-2.485-4.083-4.919-3.632-5.415.45-.495 1.614-3.037 2.586-5.65.972-2.613 2.157-4.75 2.632-4.75 1.234 0 1.067 1.397-.336 2.8-.782.782-.825 1.2-.122 1.2.593 0 1.7-.936 2.459-2.08 1.294-1.948 1.658-1.996 5.734-.75 3.55 1.084 6.487 3.592 15.909 13.58C58.135 341.488 63.718 347 64.187 347c1.041 0 .028-4.517-1.849-8.241-.759-1.508-1.469-4.771-1.577-7.25-.108-2.48-.482-4.509-.832-4.509-.349 0-.923-3.398-1.274-7.552-.351-4.153-1.563-12.088-2.693-17.632-2.633-12.922-2.373-21.186.68-21.621 2.699-.385 2.141-3.364-.888-4.734-3.093-1.4-3.875-10.461-.903-10.461 1.09 0 2.209-.563 2.487-1.25.277-.687.596-.012.708 1.5.234 3.158.333 3.579 1.439 6.11.447 1.022.859 3.272.914 5 .056 1.727.606 3.59 1.223 4.14 1.576 1.404 3.506 7.128 4.342 12.875.621 4.266.42 5.187-1.609 7.375-2.612 2.819-2.117 5.25.573 2.815.951-.861 2.201-1.565 2.778-1.565 1.23 0 .939-3.737-1.873-24-1.107-7.975-2.469-18.325-3.027-23-2.134-17.864-4.458-31.499-5.363-31.467-.519.019-13.655.405-29.193.859L0 225.218v47.808c0 37.268.276 47.936 1.25 48.391 1 .466 1 .7 0 1.166-.688.321-1.25 1.951-1.25 3.623 0 2.608.216 2.86 1.523 1.775.928-.771 1.277-2.037.892-3.247-.417-1.314-.255-1.753.478-1.3 1.787 1.104 1.272 4.446-.893 5.798-1.987 1.241-2 2.332-2 161.902 0 141.879.175 160.719 1.5 161.228.825.316 1.5 1.094 1.5 1.729 0 .831-.419.806-1.5-.091-1.253-1.04-1.5-.896-1.5.878V657h250.059c188.762 0 249.884-.283 249.346-1.155-.442-.714-.275-.883.439-.442 1.317.815 1.675-318.44.504-450.629l-.671-75.725-3.453-1.14c-1.899-.627-5.646-1.14-8.326-1.14-2.681 0-4.627-.398-4.327-.884.301-.487 1.983-.905 3.738-.93 1.755-.025 4.541-.7 6.191-1.5 2.981-1.445 2.966-1.452-2.25-1.101-6.506.437-6.924-.876-.581-1.827 3.316-.497 4.258-.961 3.25-1.598-1.098-.695-.938-.902.709-.914 2.608-.018 4.801 2.424 4.015 4.472-.319.832-.144 1.513.388 1.513.59 0 .969-7.214.969-18.448V87.104l-3 1.046c-2.039.711-3.926.723-5.89.038-1.59-.554-3.277-.647-3.75-.207-.473.441-7.497 1.022-15.61 1.292-16.694.555-15.2 1.437-14.852-8.773.264-7.76 1.367-9.807 6.438-11.954 8.006-3.389 13.184-5.889 15.664-7.563 2.71-1.828 9.028-3.386 8.955-2.208-.024.399-3.512 2.963-7.75 5.698-10.268 6.628-13.449 9.258-12.162 10.054 1.822 1.125 19.234-8.257 26.292-14.167 2.873-2.406 4.665-2.359 4.665.121 0 .75-2.692 4.211-5.981 7.691-5.7 6.03-7.82 9.36-6.683 10.497.285.285 2.494-1.436 4.909-3.825 2.415-2.389 5.362-5.019 6.548-5.844 2.128-1.479 2.161-1.962 2.432-35.251l.275-33.75-89 .039c-75.996.034-88.543.239-85.87 1.402 1.721.75 3.435 1.857 3.809 2.461.373.605 1.552 1.099 2.62 1.099S334 5.45 334 6s.675 1 1.5 1 1.5-.45 1.5-1c0-1.365 2.743-1.272 3.203.11.237.709 4.251 1.16 11.12 1.25 8.349.109 10.966.475 11.714 1.64.856 1.333 1.074 1.333 1.963 0 .832-1.248 1.147-1.271 1.879-.137.742 1.151.977 1.151 1.511 0 .348-.75.444-.351.215.887-.516 2.778-.114 2.806 2.687.181 2.189-2.051 2.211-2.051 2.518-.073.171 1.098 1.023 2.588 1.894 3.312 1.386 1.15 1.495 1.033.873-.928-.581-1.829-.331-2.242 1.356-2.242 1.137 0 2.067.45 2.067 1s.93 1 2.066 1c1.136 0 3.015.508 4.174 1.129 1.16.621 6.643 1.204 12.185 1.297l10.075.169-.201 3.453c-.11 1.898-.497 18.302-.859 36.452s-1.046 33.414-1.52 33.921c-.499.533-15.48.849-35.602.75-19.107-.094-38.695-.171-43.529-.171-6.962 0-8.789-.298-8.789-1.433 0-3.412-4.977-2.86-6.237.693-.515 1.453-9.683 1.541-10.876.104-1.37-1.651-3.325-1.735-6.08-.261-1.252.671-7.272 1.045-15.325.954-13.102-.149-13.288-.12-15.267 2.396-2.022 2.572-5.576 3.39-6.715 1.547-.34-.55-4.529-1.027-9.309-1.06-10.793-.074-18.099-1.224-19.359-3.047-1.477-2.136-.193-28.4 3.124-63.893.54-5.775 1.195-13.762 1.455-17.75l.473-7.25H199l-.155 14.25c-.086 7.838-.112 16.804-.059 19.926.117 6.888.876 6.231-15.786 13.654-7.425 3.308-15.86 7.174-18.745 8.592C161.37 57.84 157.828 59 156.383 59h-2.626l.634-18.75c.349-10.313.903-23.587 1.231-29.5L156.219 0h-10.981l.526 30.354c.571 32.982.433 34.66-2.972 36.146-2.684 1.171-2.676.961-.877 21.853.853 9.916.945 15.187.277 15.855-.551.551-4.8 1.238-9.443 1.528l-8.442.527-.613 20.565c-.444 14.872-.294 20.949.541 21.955 1.135 1.367 3.617 1.296 11.426-.327 4.062-.844 5.781 1.935 5.074 8.206-.271 2.403-.097 4.614.386 4.913.483.299.879 2.29.879 4.425s.428 4.146.95 4.469c.574.355.74-1.132.419-3.751-.394-3.22-.124-4.677 1.05-5.651.869-.721 1.641-.919 1.714-.439.074.479.258 2.222.41 3.872.152 1.65.765 5.7 1.361 9 1.888 10.446 1.051 13.672-3.082 11.88-1.811-.785-3.202-.537-6.322 1.125l-4 2.131.339 6.432c.187 3.538 1.454 15.882 2.817 27.432 1.363 11.55 2.902 28.2 3.42 37 .518 8.8 1.415 18.25 1.994 21 .578 2.75 1.5 7.7 2.047 11 1.736 10.473 3.278 17.5 3.839 17.501.299 0 .408-6.412.242-14.25l-.302-14.251 2.507-1.135c1.87-.846 2.626-.846 2.973 0 .302.735.494.674.545-.174.043-.72.505-1.046 1.025-.724 1.594.985 3.022-6.484 2.392-12.51l-.596-5.699-5.358-1.286c-6.866-1.647-8.006-3.074-8.672-10.856-.973-11.359.438-12.432 13.788-10.48 4.95.724 11.344 1.483 14.21 1.687 4.315.308 5.904.999 9.253 4.024 4.453 4.024 6.676 4.529 8.564 1.947.898-1.229 2.747-1.718 6.61-1.75l5.363-.044.12-5c.066-2.75-.245-7.475-.691-10.5-.446-3.025-1.052-10.225-1.346-16-.295-5.775-.811-13.054-1.149-16.176l-.613-5.677 4.02-2.66c6.274-4.153 7.457-3.345 8.829 6.022 1.075 7.348 1.659 19.802 1.415 30.202-.077 3.297.352 4.452 1.973 5.32 1.677.898 1.841 1.386.86 2.568-1.349 1.626-2.757 18.943-1.836 22.576.325 1.279.248 3.277-.17 4.44-.418 1.164-.32 4.074.218 6.468 1.026 4.567.44 8.946-1.345 10.05-.736.455-.712 1.638.08 3.909 1.277 3.662 1.533 10.958.385 10.958-1.169 0-.633 31.302.601 35.108.604 1.866 1.043 4.292.976 5.392-.068 1.1.145 3.575.472 5.5.328 1.925 1.073 9.35 1.656 16.5s1.269 14.575 1.524 16.5c.254 1.925.746 9.961 1.093 17.857.346 7.897 1.048 15.772 1.559 17.5.512 1.729 1.21 7.55 1.553 12.937.524 8.231.878 9.744 2.22 9.482 1.374-.268 1.596-2.329 1.596-14.794 0-7.965-.283-15.157-.63-15.982-.346-.825-.907-9.375-1.246-19-.339-9.625-1.049-19.525-1.577-22-1.257-5.89-1.31-21.178-.085-24.399.616-1.62.616-2.744 0-3.125-1.803-1.114-.968-2.055 1.788-2.015 2.018.029 2.713-.427 2.611-1.711-.076-.963.261-1.75.75-1.75s.889-1.35.889-3c0-1.898.512-3 1.393-3 2.436 0 2.691-2.904 1.988-22.637l-.686-19.296 2.676-1.018c2.078-.79 2.567-1.522 2.189-3.283-.268-1.246-.712-6.541-.987-11.766-1.034-19.589-2.625-30.342-4.846-32.75l-2.076-2.25h2.24c4.802 0 5.923-1.502 5.014-6.715-.46-2.632-1.77-14.892-2.913-27.245-1.143-12.354-2.445-25.147-2.894-28.431-1.106-8.085-.605-9.752 2.567-8.546 6.335 2.408 24.069-.397 26.406-4.177.324-.525 4.409-1.01 9.078-1.078 8.058-.118 8.841.069 15.42 3.68 10.569 5.8 20.027 6.145 30.887 1.128 7.609-3.516 17.123-4.866 21.756-3.088 1.506.578 1.809 17.011.357 19.36-.417.674-1.153 5.588-1.637 10.919-.507 5.597-1.947 12.797-3.406 17.039-3.219 9.36-3.256 8.986 1.508 15.304 5.812 7.708 5.805 8.024-.472 20.813-6.264 12.762-7.065 17.857-3.517 22.368 2.423 3.08 7.681 4.75 12.495 3.969 3.069-.498 3.46-.313 3.46 1.641 0 1.211-.675 2.877-1.5 3.702-1.573 1.573-2.004 7.016-.717 9.04 1.329 2.089 9.98 4.452 13.728 3.749 3.827-.718 4.195-.076 2.318 4.044-.998 2.191-.85 3.004 1 5.507 1.194 1.615 2.171 3.492 2.171 4.172 0 .679 1.097 2.385 2.438 3.79 2.267 2.377 2.364 2.896 1.386 7.456-.799 3.728-.733 5.881.274 9 .729 2.254 1.342 4.549 1.363 5.099.022.55.566 1.34 1.211 1.756.644.416 1.468 2.103 1.829 3.75.362 1.647 1.072 2.994 1.578 2.994 1.187 0 1.162-.682-.114-3.066-.714-1.333-.714-1.934 0-1.934.569 0 1.035.477 1.035 1.059s.489.757 1.086.388c.719-.444.988.472.796 2.705-.16 1.857.057 3.94.482 4.629 1.141 1.846 2.817.364 2.109-1.865-.368-1.16-.135-1.916.59-1.916.805 0 1.017 1.119.645 3.411-.304 1.876-.251 3.713.119 4.083.37.37.673 1.155.673 1.744s.846 1.196 1.881 1.347c1.034.152 2.362.758 2.95 1.346 1.341 1.341 9.669 1.417 9.669.088 0-.539 1.125-1.263 2.5-1.608 2.577-.647 2.821-1.157 2.58-5.411-.137-2.419-.092-2.437 1.389-.559.924 1.171 1.531 1.427 1.531.644 0-.713 1.125-2.182 2.5-3.264 1.375-1.081 2.5-2.608 2.5-3.394 0-1.752 1.978-1.922 2.056-.177.031.688.625-.325 1.32-2.25.694-1.925 1.206-4.723 1.138-6.218-.123-2.697 1.113-3.781 4.318-3.783 1.449-.001 3.213-1.191 8.9-6.002 2.506-2.12 23.268-4.313 23.268-2.457 0 1.053-4.255 8.985-5.707 10.638-.81.924-1.899 3.573-2.419 5.889-.521 2.315-1.818 5.318-2.884 6.673-1.065 1.354-2.229 4.105-2.585 6.111-.357 2.007-1.494 5.052-2.527 6.767-1.033 1.715-1.888 4.64-1.9 6.5-.024 3.581-2.32 7.186-5.228 8.206-.963.337-1.75 1.55-1.75 2.694 0 3.536-8.38 17.352-14.096 23.242-1.322 1.362-3.819 4.223-5.549 6.358-1.729 2.135-4.218 5.036-5.53 6.446-1.311 1.41-6.321 7.779-11.132 14.152-13.121 17.383-19.091 21.033-36.193 22.134-5.753.37-15.052 1.923-21.895 3.657-6.863 1.738-15.113 3.114-19.5 3.253-4.858.153-7.98.717-8.643 1.561-1.456 1.852-13.565 4.966-22.313 5.737-4.043.357-8.093.793-9 .969-.907.176-2.774.39-4.149.475-1.375.086-1.938.383-1.252.66.778.313 1.035 1.51.682 3.171-.534 2.516-.48 2.561.951.796 1.109-1.368 2.226-1.694 4.152-1.21 1.905.478 2.431.331 1.898-.531-1.461-2.363 7.456-.245 9.55 2.269 1.529 1.835 1.96 1.989 1.986.71.032-1.605 4.033-3.456 4.033-1.867 0 .447.9.577 2 .29 1.118-.293 2-.031 2 .593 0 .615-.45 1.117-1 1.117s-1 1.295-1 2.879c0 3.802-4.278 5.863-8.336 4.014-1.465-.668-2.664-1.592-2.664-2.054 0-.461-.675-.839-1.5-.839s-1.5.45-1.5 1c0 1.499-2.116 1.205-4.072-.565-1.147-1.038-1.951-1.206-2.388-.5-.362.586-.069 1.072.651 1.08 1.013.012.993.216-.089.901-.865.548-1.873.446-2.64-.265-.89-.826-.927-1.347-.13-1.847 1.899-1.189.137-1.848-3.172-1.186-1.738.348-3.16 1.251-3.16 2.007 0 .756-.477 1.375-1.059 1.375s-.781-.45-.441-1-.084-1-.941-1-1.559-.633-1.559-1.406c0-.937-.702-1.223-2.102-.857-1.157.302-2.426.027-2.821-.612-.939-1.519-7.077-3.302-7.077-2.055 0 .511-.408.93-.906.93-.499 0-.671-.9-.384-2 .543-2.076-2.205-3.015-2.882-.984-.511 1.533-10.369 1.935-13.072.532-1.298-.673-3.126-1.111-4.062-.974-.937.138-1.45-.16-1.14-.662.31-.502.087-.912-.495-.912s-1.059-.379-1.059-.842c0-.463 1.991-.871 4.424-.908 6.51-.099 8.326-.922 8.326-3.778 0-1.359-.394-2.472-.875-2.472s-1.831-.956-3-2.125c-1.938-1.938-6.219-2.864-7.468-1.616-.28.281-.608 1.799-.729 3.375-.255 3.308-2.951 3.972-3.511.866-.597-3.307-1.906-3.856-3.238-1.357-.69 1.296-1.938 2.86-2.773 3.475-1.32.974-1.251 1.261.532 2.215 1.127.603 2.314.832 2.637.508.324-.323 1.396-.277 2.382.103 1.705.656 1.706.739.035 1.677-.967.543-2.224.699-2.794.347-.569-.352-1.669-.114-2.444.529-.862.715-2.299.865-3.706.387-1.264-.429-2.617-.697-3.007-.596-.391.102-1.441-1.355-2.334-3.238-1.515-3.192-4.457-4.043-4.457-1.288 0 .576-.788.362-1.75-.477-.963-.838-2.356-1.306-3.097-1.039-1.043.376-1.114.05-.316-1.441.915-1.711.536-2.058-3.403-3.111-2.439-.653-4.434-1.785-4.434-2.516 0-1.47-4.089-5.663-5.564-5.705-1.409-.04-7.436-10.164-7.436-12.489 0-5.105-10.797-13.049-12.966-9.54-.539.873-1.378.856-3.403-.066-1.877-.855-2.311-1.458-1.438-1.997.687-.425.9-1.121.474-1.548-.427-.426-1.194-.113-1.706.696-.512.809-.937.96-.946.335-.008-.626-1.942-1.426-4.298-1.779-2.355-.353-5.655-1.477-7.333-2.498-3.902-2.373-6.922-3.005-17.384-3.64-11.552-.702-12-.764-12-1.661 0-.432.47-.786 1.044-.786.574 0 .942-.562.817-1.25-.125-.687.084-6.2.463-12.25.38-6.05.924-16.85 1.209-24 .285-7.15.936-20.425 1.447-29.5.51-9.075 1.199-24.375 1.529-34 .331-9.625.781-21.325 1-26 .219-4.675.495-15.812.612-24.75.173-13.232.475-16.25 1.625-16.25 1.126 0 1.3-1.269.855-6.25-.53-5.949-1.991-56.597-1.722-59.75.07-.825.134-8.7.143-17.5.015-16.001 1.384-31.079 2.997-33.023.976-1.176 2.2-39.784 2.045-64.509-.082-13.206.196-16.929 1.385-18.5 1.707-2.258 2.092-12.588.576-15.422-.761-1.421-.4-2.398 1.636-4.434L130.273 0H119l.002 4.25c.021 40.807-1.223 99.311-2.135 100.41-1.817 2.19-8.532 1.728-9.148-.628-.576-2.201.677-38.258 2.259-65.032.569-9.625 1.292-22.337 1.607-28.25L112.159 0h-15.58C84.796 0 80.994.305 80.975 1.25c-.014.688-.126 24.29-.25 52.45-.16 36.328-.552 51.527-1.35 52.325-2.033 2.033-42.353 1.302-44.704-.81-2.081-1.869-2.026-10.686.323-51.215.525-9.075 1.261-24.937 1.635-35.25L37.308 0H0v2.387M217.659 41.75c.308 4.813.889 10.328 1.29 12.258.401 1.929.844 6.879.983 11 .516 15.218 3.987 47.992 5.083 47.992.324 0 .239-3.037-.188-6.75-.428-3.713-1.03-12.15-1.339-18.75-.309-6.6-.975-14.925-1.48-18.5-.505-3.575-1.184-11.9-1.51-18.5-.661-13.43-1.249-17.5-2.529-17.5-.479 0-.619 3.938-.31 8.75m249.367-4.609c-6.477 1.073-7.594 1.93-6.116 4.691.723 1.35.754 2.257.093 2.666-1.834 1.134-1.131 4.502.94 4.502 2.574 0 9.057-3.873 9.057-5.41 0-.667.923-2.204 2.051-3.414 1.842-1.978 1.924-4.361.14-4.059-.38.064-3.154.525-6.165 1.024M469.5 50.54c-10.199 2.661-13.047 4.935-9.011 7.194 1.262.706 1.115 1.385-.968 4.449l-2.457 3.616 2.374.596c1.712.43 3.825-.38 7.569-2.899C469.864 61.573 472.606 60 473.1 60c.495 0 .9-.731.9-1.625 0-1.639-1.365-1.601-7.75.218-3.971 1.13-2.438-1.359 2.292-3.721 8.164-4.077 8.665-6.343.958-4.332M164.733 68.75c-1.784 1.98-1.673 4.795 2.399 60.995 2.204 30.429 2.215 31.281.403 32.606-1.967 1.438-1.917 3.203 1.324 46.77.833 11.205.821 11.242-4.299 12.753-4.237 1.251-4.346 1.385-3.509 4.305.847 2.952 5.174 7.821 6.951 7.821.494 0 1.295.708 1.779 1.572 1.027 1.836 9.219 3.274 9.219 1.619 0-.59-.432-1.34-.959-1.666-.554-.342-.708-3.282-.365-6.956.567-6.076.423-6.645-3.198-12.605-2.82-4.642-3.541-6.64-2.814-7.794 1.762-2.792 3.121-2.343 6.134 2.025 1.633 2.368 3.922 5.162 5.086 6.21 2.081 1.873 2.117 1.873 2.165 0 .364-14.059-.36-50.092-1.042-51.888-.514-1.349-1.888-2.504-3.203-2.69-2.073-.294-2.375-1.03-3.014-7.327-1.317-12.978-2.634-30.921-3.229-44-.88-19.334-1.487-26.176-2.578-29.046-.541-1.421-.983-5.255-.983-8.519 0-5.559-.148-5.935-2.345-5.935-1.29 0-3.054.787-3.922 1.75m274.591 26.343c-5.598.417-11.091 1.247-12.208 1.845-1.116.597-4.786 1.302-8.154 1.565-3.367.263-6.472.694-6.899.958-.426.264-2.721.724-5.099 1.023-4.584.575-6.594 1.495-3.381 1.546 3.973.063-1.321 2.002-6.026 2.207-3.93.171-4.357.391-3.131 1.617.891.891 2.099 1.134 3.246.651 1.006-.422 3.137-.938 4.736-1.145 1.6-.208 3.512-.879 4.25-1.491.738-.613 1.342-.818 1.342-.456 0 .361.876.189 1.947-.384 1.07-.573 4.558-1.469 7.75-1.99A534.144 534.144 0 0 0 429 99.044c7.833-1.491 24.046-2.305 21.5-1.08-1.425.686-.128.841 4.507.54 3.578-.233 7.178.002 8 .521 1.055.668.053.949-3.424.96-5.67.017-5.768.727-.183 1.343 2.105.232 4.113.847 4.464 1.366.35.52 1.761.622 3.136.225 1.6-.46 1.87-.756.75-.819-.962-.055-1.75-.598-1.75-1.207 0-.609.712-.834 1.582-.5.87.334 1.995.607 2.5.607.505 0 .805.563.668 1.25-.161.807 1.255 1.359 4 1.557 2.337.17 4.25.732 4.25 1.25 0 .519.337.89.75.825 3.651-.577 7.127.274 6.612 1.618-.317.825-.051 1.5.59 1.5s.888-.45.548-1c-1.221-1.976 1.42-.953 2.864 1.11.813 1.16 2.002 1.935 2.642 1.721 1.871-.623-4.008-5.831-6.583-5.831-1.268 0-2.552-.399-2.853-.887-.301-.487-2.183-1.193-4.182-1.568-1.999-.375-4.591-1.171-5.761-1.77-1.17-.598-2.92-1.474-3.89-1.948-1.508-.736-11.734-3.066-18.237-4.156-1.1-.184-6.579.006-12.176.422m-211.325 49.812c.001 3.173.12 3.298 1.751 1.839 1.4-1.253 5.019-1.634 18.095-1.905 8.99-.186 16.786-.611 17.324-.943 1.417-.876-9.722-1.854-24.42-2.144l-12.75-.252v3.405M271 143.02c-1.459.37 2.081.929 8.5 1.343 13.216.851 58.506 1.344 58.485.637-.08-2.616-2.661-2.829-32.992-2.724-17.321.06-32.618.395-33.993.744M165.589 247.744c-2.299 2.299.406 10.256 3.487 10.256 5.243 0 10.034-6.849 6.174-8.826-2.335-1.195-8.92-2.17-9.661-1.43m31.095 14.638c-.292.761-1.937 1.998-3.655 2.75l-3.123 1.368.573 6.5 1.588 18c.559 6.325 1.455 15.325 1.991 20 .536 4.675 1.178 13.675 1.427 20 .748 19.037 1.728 31 2.538 31 .421 0 .812 1.012.869 2.25.397 8.571 1.488 13.345 3.438 15.036 2.087 1.81 1.673 2.798-1.664 3.976-1.018.359 1.267 20.856 2.474 22.188.473.523.86 1.76.86 2.75s.366 1.8.812 1.8c.447 0 .889-3.569.982-7.93.143-6.765-.086-7.997-1.563-8.384-1.544-.405-1.551-.467-.064-.57 2.037-.142 1.812-5.956-2.633-68.116-2.085-29.153-3.353-56.875-2.779-60.782.468-3.191-1.039-4.526-2.071-1.836M19.096 295.825c.268 6.57-.269 7.91-3.693 9.212-3.311 1.259-3.024 2.708.437 2.2 2.888-.424 3.686 1.485 1.856 4.445-.389.631-.196 1.318.43 1.527.686.228.865 1.244.451 2.549-.566 1.783-1.214 2.065-3.633 1.581-1.823-.365-2.944-.173-2.944.505 0 .601-.675.834-1.5.518-.825-.317-1.5-.148-1.5.376 0 1.286 3.372 4.262 4.829 4.262.644 0 1.171.354 1.171.787 0 .433.9.855 2 .938 1.1.083 2-.185 2-.595 0-.959 8.731-7.13 10.088-7.13.567 0 .771-.419.455-.931-.317-.512-.135-1.203.402-1.535.637-.394.634-1.511-.008-3.201-1.674-4.401-3.201-11.695-3.051-14.568.168-3.209-2.963-6.765-5.957-6.765-1.884 0-2.049.524-1.833 5.825M75.649 323.2c-2.791 1.012-2.837 1.151-2.214 6.667C74.817 342.1 76.321 350 77.269 350c.589 0 .767-1.695.436-4.16-.382-2.853.066-5.825 1.428-9.466 2.028-5.42 2.24-13.505.367-13.963-.55-.134-2.283.221-3.851.789M.488 491c0 88.825.118 125.163.262 80.75.144-44.412.144-117.087 0-161.5C.606 365.838.488 402.175.488 491M14 333c0 .55-.702 1-1.559 1-.936 0-1.27.468-.836 1.17.48.776.187.964-.868.559-.875-.335-2.124.032-2.776.818-1.351 1.628-.497 4.902 1.032 3.957 1.587-.981 1.174 1.113-.493 2.496-2.097 1.74-1.872 2.921.75 3.932 1.999.771 2.055.947.5 1.575-2.416.976-2.23 4.555.271 5.209 1.696.443 1.817.78.75 2.093-1.07 1.317-1.009 1.467.381.947 2.52-.943 3.091.386.842 1.961-1.097.768-1.994 2.326-1.994 3.462 0 1.748.237 1.869 1.542.786 1.193-.99 1.813-1.01 2.733-.09.921.921.684 1.323-1.042 1.774-2.772.725-2.84-.565 1.481 28.351.288 1.925 1.032 4.149 1.655 4.942.867 1.106.84 1.267-.119.691-.715-.429-1.25-.252-1.25.415 0 .641.675.907 1.5.59.825-.316 1.5-.139 1.5.393 0 .533-.394.969-.875.969s-.875 1.111-.875 2.468c0 3.2 2.319 2.091 6.672-3.189 2.09-2.536 3.078-3.191 3.078-2.04 0 .932-2.053 4.006-4.563 6.832-2.509 2.825-4.322 5.377-4.028 5.671.294.294 2.657-1.778 5.252-4.604 2.595-2.826 5.113-5.138 5.597-5.138 1.121 0-2.148 4.553-6.266 8.727-3.236 3.28-3.704 7.183-1.5 12.523.44 1.067.276 1.75-.42 1.75-.776 0-.844.561-.211 1.75.512.962 1.255 5.238 1.652 9.5S22.58 443 23.001 443c.421 0 1.001.9 1.289 2 .287 1.1 1.041 2 1.675 2 .634 0 .875-.45.535-1-.34-.55-.191-1 .331-1 .521 0 1.542 2.012 2.268 4.47.833 2.822 1.606 4.02 2.095 3.25.497-.781.781-.39.791 1.089.019 2.925 2.001 1.846 2.054-1.118.032-1.783.302-1.586 1.452 1.059.777 1.788 1.832 3.25 2.344 3.25.512 0 1.177.937 1.476 2.083.417 1.592 1.21 2.013 3.368 1.787 1.552-.163 3.384.051 4.072.476.791.489 1.249.211 1.249-.756 0-.947.57-1.308 1.5-.952.825.317 1.497.19 1.492-.281-.016-1.879-2.084-13.951-2.63-15.357-.32-.825-.701-4.2-.847-7.5-.249-5.625-2.137-19.258-4.57-33-.584-3.3-1.255-7.575-1.489-9.5a5394.412 5394.412 0 0 1-3.044-26c-1.728-15.215-5.747-22.802-11.404-21.532-2.321.521-2.373.457-.698-.857 1.306-1.024 1.478-1.624.618-2.155-.688-.426-1.608.007-2.177 1.024-1.001 1.788-2.72.537-2.72-1.98 0-.55.436-.325.969.5.796 1.232.972 1.128.985-.583.008-1.146-.273-2.372-.625-2.724-.747-.747-6.36 2.363-6.36 3.523 0 .431-.45.784-1 .784-1.514 0-1.197-2.592.489-3.991 2.085-1.73.831-3.226-1.49-1.776-1.049.655-2.266.809-2.704.342-.71-.758.799-1.876 2.2-1.629 1.184.209 3.226-2.509 2.773-3.691C16.697 331.768 14 331.557 14 333m124.668 5.5c-.352 2.2-.882 10.3-1.179 18-.296 7.7-.745 18.698-.996 24.441-.382 8.705-.186 10.741 1.179 12.25 4.027 4.449 4.444 2.768 3.707-14.941-.384-9.212-.612-21.475-.508-27.25.105-5.775-.205-11.85-.687-13.5l-.877-3-.639 4m-73.296 41.293c.269.435.716 2.573.992 4.75.276 2.176 1.656 11.607 3.066 20.957 1.411 9.35 3.009 20.15 3.551 24 1.683 11.947 5.121 32.603 5.66 34.008.753 1.961 3.359 2.706 3.359.961 0-.808.45-1.469 1-1.469s1-.675 1-1.5.45-1.5 1-1.5 1.003.563 1.006 1.25c.004.688.702 2.584 1.552 4.214.85 1.63 2.005 6.355 2.567 10.5 1.275 9.415 2.724 18.765 3.413 22.036.991 4.704 1.528 10.508 2.255 24.387.767 14.659.275 17.083-3.345 16.452-3.273-.57-2.843 7.771.519 10.053 1.393.946 2.983 1.656 3.533 1.578 2.739-.39 4.331-1.874 4.863-4.534.323-1.615 1.213-2.936 1.978-2.936 1.192 0 7.659-12.515 7.659-14.821 0-.442.844-2.575 1.876-4.741 1.032-2.166 2.653-7.088 3.601-10.938 2.083-8.453 9.258-28.248 14.499-40 .981-2.2 2.817-6.368 4.08-9.261l2.296-5.262-2.615-2.738c-1.439-1.507-3.512-4.764-4.606-7.239-1.361-3.078-2.012-3.828-2.06-2.372-.039 1.17-.766 2.704-1.617 3.41-.85.705-1.311 1.893-1.024 2.64.286.746-.193 3.037-1.065 5.09-3.088 7.264-4.167 9.772-5.757 13.383-.884 2.008-1.608 4.166-1.608 4.795 0 .629-2.207 5.736-4.904 11.349-4.602 9.579-6.124 12.93-10.652 23.455-2.191 5.093-4.369 5.563-4.63 1-.103-1.788-.262-4.667-.354-6.398-.092-1.731-.461-3.913-.82-4.847-.359-.935-1.352-8.043-2.207-15.796-.855-7.753-1.757-14.425-2.005-14.826-.248-.4-1.343-9.201-2.435-19.556-3.224-30.599-6.598-58.266-7.176-58.843-4.111-4.111-17.931-13.096-16.445-10.691m426.853 44.241c-7.06 6.709-19.995 17.511-31.693 26.466-4.311 3.3-11.1 8.7-15.087 12-3.986 3.3-8.724 7.149-10.529 8.554l-3.281 2.554 12.347.239c6.791.131 12.716.467 13.168.746.452.279 8.909.704 18.793.944 15.498.377 18.091.224 18.84-1.113.782-1.399.994-1.398 2.165.013.713.86 1.692 1.563 2.174 1.563.484 0 .878-13.031.878-29 0-15.95-.337-28.984-.75-28.965-.413.019-3.574 2.718-7.025 5.999m-364.946-3.091c-.149 1.984 1.713 1.91 4.418-.177 1.515-1.168 6.335-.702 8.303.803 2.193 1.678 8.081 3.499 9.159 2.833.511-.316 1.471-.149 2.135.371.663.52 3.209 1.009 5.657 1.087 2.448.078 4.9.591 5.45 1.141 1.401 1.401 3.606 1.246 3.566-.251-.093-3.49-3.925-6.015-8.369-5.514-2.405.271-7.461-.105-11.235-.835-10.825-2.094-18.902-1.865-19.084.542m231.471 8.64c-.611.612-1.6.806-6.559 1.289-.72.071-1.009.614-.642 1.208.367.594-.283 1.746-1.446 2.56l-2.113 1.481 2.899 2.439c1.595 1.342 3.445 2.44 4.112 2.44.667 0 .954.675.637 1.5-.378.987.033 1.5 1.202 1.5 1.902 0 6.396-2.915 4.577-2.968-1.54-.045-1.343-3.249.3-4.891 1.5-1.501 1.379-4.325-.178-4.12-.528.07-1.218-.605-1.531-1.499-.314-.894-.88-1.317-1.258-.939m-202.739 38.084c.006.458.664 2.985 1.461 5.614 1.942 6.4 3.383 23.918 4.1 49.851.554 20.02.469 21.56-1.352 24.415l-1.944 3.048-16.388.205c-9.013.113-17.963.369-19.888.569-1.925.199-6.987.701-11.25 1.115-7.521.729-7.749.829-7.73 3.383.029 3.879 2.608 19.094 3.364 19.85 1.168 1.168 21.116-2.108 21.116-3.467 0-.687.45-1.205 1-1.15.55.055.888.505.75 1-.406 1.463 1.488 1.026 2.064-.476.336-.875 1.469-1.197 3.107-.884 1.652.316 2.579.047 2.579-.748 0-.862.972-1.048 3.177-.607 1.747.35 2.868.327 2.491-.05-.377-.378.296-1.733 1.497-3.011 2.074-2.208 2.087-2.326.259-2.368-1.06-.024-.129-.727 2.076-1.566 6.323-2.405 7.501-2.682 7.487-1.757-.026 1.807-5.07 16.611-6.868 20.16-2.04 4.025-6.496 15.191-7.666 19.207-.4 1.375-2.186 5.65-3.968 9.5-3.897 8.418-4.592 10.567-4.705 14.534-.048 1.67-.467 3.273-.933 3.561-.466.288-.847 1.595-.847 2.905 0 3.448-1.669 3.956-2.473.753-.377-1.503-1.02-2.962-1.428-3.243-.408-.28-2.635-3.963-4.949-8.184-4.947-9.026-7.678-12.625-8.761-11.546-.43.429.244 7.629 1.499 16 1.255 8.371 2.53 17.02 2.833 19.22.876 6.346 1.599 6.768 10.279 6 6.296-.557 7.838-.4 8.928.913 1.818 2.191 5.722 2.033 6.32-.254.397-1.519 1.864-1.953 8.367-2.477 4.337-.35 19.81-1.744 34.385-3.099 14.575-1.354 31-2.746 36.5-3.092 9.507-.598 37.865-2.971 47.5-3.975 12.056-1.256 28.715-2.496 30.5-2.269 3.276.415 3.18-3.925-.166-7.441-4.262-4.478-4.958-4.637-16.834-3.827l-11 .75-8.173-8.514-8.172-8.513-.65-8.101c-.358-4.456-.595-11.476-.527-15.601.068-4.125-.161-11.325-.509-16-.347-4.675-.759-13.691-.914-20.035-.339-13.856-1.341-27.473-2.572-34.965-.497-3.025-1.023-8.832-1.169-12.904-.325-9.093-.536-9.309-11.772-12.086-4.986-1.232-9.312-2.638-9.613-3.125-.301-.487-2.072-.885-3.936-.885-3.25 0-3.352.113-2.484 2.75.99 3.006 1.841 36.252.928 36.251-.31-.001-.674-2.139-.809-4.751-.135-2.612-.71-7.9-1.278-11.75-1.857-12.589-2.198-21.667-.846-22.503.804-.496-.022-1.178-2.365-1.951-1.98-.654-4.012-.934-4.515-.623-.503.311-1.187-.144-1.52-1.012-1.041-2.713-2.984-.965-5.104 4.589-2.383 6.246-3.995 7.275-4.832 3.088-.684-3.419.965-9.054 2.68-9.158 3.253-.199-3.56-1.799-7.915-1.86l-5.068-.07-1.734 5.501c-4.78 15.166-6.185 15.51-7.22 1.771-.63-8.366-.929-9.381-3.201-10.87-2.422-1.587-2.487-1.57-1.947.496.721 2.758-1.7 5.252-4.185 4.309-1.025-.389-4.45-2.957-7.61-5.707-6.063-5.276-7.475-6.191-7.457-4.833m34.415 50.667c-.313.814-1.617 4.56-2.897 8.323l-2.328 6.843 2.058 2.233c1.131 1.228 2.886 2.496 3.899 2.817 1.013.322 1.842 1.229 1.842 2.017 0 .788.403 1.433.895 1.433 2.631 0 1.506-24.309-1.148-24.814-.964-.184-2.009.333-2.321 1.148m-9.78 29.416c-.679 2.022-2.817 5.503-3.863 6.289-.394.296-2.112 3.615-3.817 7.376s-4.109 8.469-5.341 10.462c-1.232 1.992-3.063 5.873-4.068 8.623-1.654 4.524-6.509 15.666-8.509 19.533-.437.843-1.112 2.98-1.5 4.75-.389 1.769-1.06 3.217-1.491 3.217-.431 0-1.363 2.813-2.07 6.25-.708 3.438-1.631 6.7-2.051 7.25-.764.999-5.936 14.284-5.936 15.248 0 .526 6.823.127 27.5-1.609 6.6-.554 24.727-1.276 40.282-1.605 15.556-.328 29.731-.837 31.5-1.131 6.527-1.084 7.718-1.463 7.718-2.455 0-1.08-9.219-.677-12.192.533-4.199 1.709-5.23.366-5.37-6.988-.073-3.846-.243-7.218-.377-7.493-.134-.275-.405-2.075-.603-4-.197-1.925-.843-6.425-1.434-10-.592-3.575-1.163-7.513-1.268-8.75-.116-1.353-.854-2.25-1.854-2.25-.913 0-3.272-1.913-5.24-4.25-1.968-2.337-6.521-7.4-10.117-11.25-8.315-8.902-8.973-10.797-4.419-12.734 1.487-.632-.392-6.795-1.992-6.533-.947.155-1.512-.31-1.343-1.106.176-.83-.27-1.157-1.128-.828-.781.3-1.924.04-2.541-.577s-1.122-.721-1.122-.231-.562.14-1.25-.779c-.687-.918-2.825-1.77-4.75-1.893-1.925-.123-3.725-.48-4-.794-.665-.759-5.816-4.025-6.348-4.025-.23 0-.683.788-1.006 1.75M65.727 575.269c-.296.772-.417 3.39-.269 5.817.23 3.749-.565 7.088-2.104 8.841-.206.235-1.045-.44-1.864-1.5-1.406-1.818-1.566-1.829-2.839-.193-.742.954-1.608 1.476-1.925 1.159-1.407-1.407-4.726.851-4.726 3.216 0 3.68 2.979 6.377 6.532 5.915 1.633-.212 4.143-.417 5.579-.455 2.363-.062 2.689-.566 3.442-5.319 1.584-10.001.24-22.866-1.826-17.481m-8.874 66.535c-.906.167-1.877 1.179-2.157 2.25-.583 2.232-.301 2.34 2.37.911 1.493-.799 1.934-.709 1.934.394 0 .786 1.013 1.49 2.25 1.565 10.909.658 13.561.931 15.658 1.611 2.183.708 2.348.556 1.764-1.627-.355-1.324-.651-3.217-.658-4.207-.013-1.628-.938-1.77-9.764-1.5-5.362.165-10.491.436-11.397.603" fill="#d3d3d3" fill-rule="evenodd"/></svg>