<svg xmlns="http://www.w3.org/2000/svg" width="500" height="498"><path d="M356.75 89.392c-3.147 2.389-2.109 4.327 2.706 5.049 4.711.707 10.544 3.182 10.544 4.475 0 .423 2.025 1.811 4.5 3.084 2.475 1.273 4.5 2.969 4.5 3.769 0 1.12.804 1.303 3.5.797 3.384-.635 3.5-.555 3.5 2.42 0 3.612 2.039 4.773 5.564 3.167 2.647-1.206 3.496.387 1.349 2.534-.783.783-.783 1.275 0 1.759 2.134 1.319 1.275 6.379-1.163 6.848l-2.25.434 2.231.136c1.444.088 2.438.963 2.82 2.481.558 2.227.951 2.33 7.769 2.034 10.027-.434 22.149-4.994 21.029-7.911-.845-2.204 1.421-1.767 2.639.509 2.111 3.945 4.384 4.165 8.444.818l3.761-3.1 4.43 2.153c5.486 2.665 5.744 2.664 5.045-.01-.311-1.189-.152-2.934.354-3.878.8-1.495.243-1.789-4.302-2.274-11.593-1.238-14.413-2.393-11.92-4.886.66-.66 1.2-2.374 1.2-3.809s.661-3.482 1.468-4.55c2.271-3.003 1.809-5.246-1.426-6.919-2.737-1.416-3.09-1.388-4.75.381-2.301 2.452-14.529 2.877-13.606.473.569-1.482-4.045-1.398-7.936.144-1.337.53-1.75.19-1.75-1.444 0-2.396-2.602-3.874-4.129-2.347-.659.659-2.406.496-5.183-.486-5.051-1.786-12.808-1.731-14.188.1-1.165 1.546-9.123 2.83-12.334 1.99-1.839-.481-1.999-.829-.957-2.085 1.084-1.306.841-1.418-1.819-.834-2.188.481-3.44.231-4.353-.87-1.553-1.871-2.969-1.911-5.287-.152M72.668 98.126c-1.007.585-2.669.846-3.693.578-1.063-.278-2.595.324-3.573 1.404-2.083 2.302-3.982 2.43-4.791.322-.799-2.082-4.99-1.457-5.422.809-.208 1.09.628 2.176 2.24 2.911 1.709.778 2.571 1.966 2.571 3.542 0 3.141 1.505 3.537 7.5 1.975 3.602-.939 5.002-1.794 5.008-3.06.011-2.681 2.95-3.851 6.921-2.754 1.89.522 3.658.727 3.928.456.908-.907 4.643.811 4.643 2.136 0 .721-1.013 1.992-2.25 2.824-3.06 2.057-1.523 3.294 2.185 1.758 5.975-2.475 5.233-6.191-2.011-10.068-1.432-.766-11.424-4.193-11.424-3.918 0 .011-.824.499-1.832 1.085m386.757 20.358c-2.723 2.723-5.335 3.206-7.208 1.333-1.765-1.765-2.043-.804-1.215 4.183.411 2.475.804 3.487.873 2.25.184-3.318 3.51-2.85 6.451.908 2.428 3.102 2.565 3.141 7.823 2.25 4.382-.744 5.351-1.27 5.351-2.908 0-1.479.78-2.089 2.997-2.34 1.648-.187 3.293-.821 3.656-1.408.834-1.349-1.11-5.739-2.564-5.791-.599-.022-3.915-.254-7.368-.516-5.705-.433-6.51-.246-8.796 2.039M264.5 120c-1.1.473-4.025.907-6.5.965-2.475.058-5.625.749-7 1.535-1.375.786-3.371 1.445-4.436 1.465-1.064.019-3.01 1.045-4.323 2.279-2.252 2.115-2.446 2.141-3.396.444-1.526-2.727-4.034-.315-2.866 2.757.719 1.892.37 2.66-2.014 4.422-1.586 1.173-3.24 2.137-3.675 2.142-.434.006-1.666 2.002-2.736 4.436-1.763 4.012-2.207 4.374-4.734 3.869-2.143-.429-2.93-.124-3.398 1.314-1.938 5.956-2.883 7.45-5.057 7.995-2.79.701-2.821.816-4.927 18.377-.231 1.925-.575 4.372-.765 5.438-.19 1.066.481 5.086 1.491 8.933 1.01 3.846 1.836 8.005 1.836 9.24 0 1.235.675 2.921 1.5 3.746.825.825 1.5 3.107 1.5 5.072 0 2.508-.447 3.571-1.5 3.571-1.856 0-1.934 2.024-.171 4.435 1.15 1.573 1.01 2.135-1.046 4.191-1.306 1.306-2.992 2.374-3.747 2.374-2.529 0-4.536 1.201-4.536 2.714 0 .922.578 1.278 1.5.924 3.194-1.225 1.307 1.416-1.998 2.797-1.924.803-4.021 2.609-4.66 4.013-.64 1.404-1.792 2.552-2.562 2.552-.769 0-1.142.414-.83.919.804 1.301-2.231 4.081-4.454 4.081-1.024 0-2.132.853-2.463 1.895-.947 2.983-7.42 3.402-8.142.526-.744-2.963 2.682-10.158 7.034-14.772 2.419-2.566 3.79-5.14 4.242-7.967.367-2.298.855-3.616 1.084-2.93.917 2.751 1.761.959 1.985-4.209.141-3.269-.555-7.978-1.737-11.749-1.085-3.462-1.979-7.322-1.986-8.579-.007-1.257-.664-3.282-1.46-4.5-.795-1.218-3.307-6.94-5.581-12.715-4.371-11.101-8.982-17.284-13.789-18.49-1.408-.354-3.09-1.368-3.738-2.254-.843-1.153-3.278-1.727-8.561-2.019-4.061-.224-7.733-.74-8.159-1.147-.853-.814-12.143.986-13.267 2.116-.387.388 1.939.673 5.169.633 13.851-.172 24.444 2.928 22.986 6.726-.669 1.744-1.173 1.685-8.113-.955-4.51-1.716-10.231-1.973-15.689-.705-3.019.701-4.061.511-5.733-1.047-1.822-1.697-9.643-3.858-13.966-3.858-1.321 0-6.125 7.1-6.115 9.036.004.752 6.139.367 8.253-.518 1.244-.52 1.75-.268 1.75.875 0 1.034-.864 1.607-2.423 1.607-1.381 0-3.768 1.345-5.55 3.127l-3.127 3.127-2.265-2.127c-1.245-1.17-2.697-2.127-3.227-2.127-1.864 0-6.89 7.185-5.793 8.282.3.299-.176 1.645-1.058 2.99-.881 1.346-1.317 3.19-.968 4.1.349.909.185 2.21-.365 2.891-1.257 1.556-2.39 8.633-2.486 15.525-.044 3.145-.404 4.766-.89 4-.727-1.146-1.184 2.856-1.251 10.962-.01 1.238-.373 2.25-.808 2.25-1.566 0-.914 17.015.676 17.625 1.721.66-2.495 4.642-6.112 5.773-1.524.477-1.998 1.242-1.634 2.637.296 1.13.015 1.965-.661 1.965-.647 0-.898.45-.558 1 .34.55-.271 1-1.358 1-1.086 0-2.208.563-2.491 1.25-.313.757-.786.363-1.2-1-.753-2.476-2.035-2.945-2.732-1-.552 1.538-6.364-1.603-5.969-3.225.138-.564-1.127-1.025-2.809-1.025-1.682 0-2.801-.418-2.485-.928.315-.51-.31-1.208-1.39-1.551-1.08-.343-2.242-1.499-2.581-2.57-.34-1.07-1.682-2.213-2.983-2.54-3.051-.766-2.91-4.092.207-4.874 2.868-.72 2.895-1.896.102-4.498-1.842-1.716-1.921-2.039-.5-2.039 1.264 0 1.689-.882 1.689-3.5 0-3.946.263-3.863-11.25-3.521-7.228.215-6.843.51-7.148-5.479-.089-1.743-.681-1.956-4.602-1.66-2.475.187-4.927.75-5.45 1.25-1.012.969-5.55 1.275-5.55.375 0-1.646 3.489-5.465 4.993-5.465.969 0 2.275-.618 2.902-1.374 1.293-1.557-2.808-4.897-6.348-5.171-1.074-.083-2.424-.947-3-1.921-3.222-5.448-4.228-6.133-6.28-4.275-1.125 1.018-3.518 1.741-5.759 1.741-7.14 0-14.492 3.107-14.501 6.128-.004 1.445.668 3.187 1.493 3.872 1.925 1.597 1.925 3.9 0 4.638-2.056.789-2.304 178.82-.25 179.779 1 .466 1 .7 0 1.166-.835.39-1.25 3.045-1.25 8V403h3c2.103 0 3 .486 3 1.625 0 1.272-.651 1.495-3 1.025l-3-.6v6.006c0 4.417.397 6.159 1.5 6.582.825.317 1.5 1.217 1.5 2 0 .784-.675 1.684-1.5 2-1.747.671-2.181 11.823-.5 12.862.55.34 1 2.357 1 4.482 0 2.715.783 4.795 2.633 6.993l2.632 3.129-2.132 1.987C3.96 452.184 3 452.61 3 452.039S2.325 451 1.5 451C.222 451 0 453.667 0 469c0 19.897-.164 19.476 6.375 16.358 4.642-2.214 6.981-1.256 6.152 2.517-.605 2.757 1.28 6.125 3.428 6.125.446 0 1.047.9 1.335 2 .484 1.852 1.364 2 11.916 2 7.221 0 11.813-.419 12.538-1.144.86-.86 1.891-.836 4.139.096 1.853.767 5.212 1.03 8.806.69 3.196-.303 6.261-.513 6.811-.468 9.794.808 47.991.663 49.015-.186.865-.719 1.517-.745 1.93-.077.934 1.511 66.394 1.468 68.217-.045 1.054-.875 2.016-.878 3.915-.013 1.384.631 5.758 1.133 9.72 1.115 7.469-.033 7.561-.196 2.04-3.6-1.722-1.062-1.665-1.269.913-3.323 1.512-1.205 2.75-2.822 2.75-3.595 0-2.279 4.46-4.624 7.394-3.887 3.793.952 2.495 4.437-1.653 4.437-1.022 0-1.581.45-1.241 1 .34.55 2.365 1 4.5 1 4.353 0 5.712 1.164 3.5 3-.934.775-2.771.984-4.989.568-2.548-.478-3.509-.303-3.503.637.019 3.199 5.067 3.796 31.441 3.716 14.328-.043 25.376-.336 24.551-.65-3.654-1.391-2.759-5.271 1.216-5.271 1.123 0 2.194-.851 2.488-1.977.478-1.827.774-1.735 3.907 1.22 1.864 1.758 3.389 3.998 3.389 4.977 0 1.615 1.201 1.78 12.969 1.78 13.944 0 14.491-.279 10.241-5.231-1.217-1.418-1.254-2.011-.206-3.274 1.645-1.982.701-2.938-1.668-1.692-1.01.531-3.749 1.282-6.086 1.669-3.661.606-6.132 2.528-3.25 2.528.55 0 1 .45 1 1 0 1.62-2.731 1.143-3.397-.593-.496-1.291-1.534-1.467-5.472-.925-3.91.538-4.977.362-5.461-.899-.641-1.67 3.754-4.583 6.916-4.583.926 0 2.716-1.013 3.977-2.25l3.464-3.4c.645-.632 2.042-2.109 3.103-3.28 2.468-2.724 10.477-1.95 16.042 1.548 4.865 3.059 10.316 3.428 12.319.836 1.423-1.84 1.572-1.852 2.561-.2.836 1.394 1.859 1.624 4.994 1.123 2.169-.347 4.508-.183 5.199.365 1.968 1.56 21.103 2.245 25.473.912 3.158-.964 3.727-1.544 3.448-3.515-.213-1.503.06-2.118.75-1.691.596.369 1.084.292 1.084-.17 0-.462 1.34-1.345 2.977-1.963 2.76-1.042 7.863-7.778 7.264-9.587-.141-.425.779-1.165 2.043-1.646 1.264-.48 2.893-1.591 3.62-2.467.728-.876 1.765-1.319 2.307-.985.541.335 2.852.755 5.136.935 2.284.18 5.679.637 7.545 1.015 2.258.458 3.176.34 2.747-.355-.9-1.457.313-4.225 1.851-4.225.702 0 1.527.957 1.833 2.126l.556 2.126 3.005-2.376c1.653-1.307 3.03-2.982 3.061-3.722.03-.74 1.011-2.688 2.18-4.33 1.69-2.372 2.004-3.869 1.533-7.304-.508-3.706-.28-4.527 1.605-5.779 2.028-1.346 2.404-1.238 4.869 1.4 3.366 3.604 4.44 3.588 6.342-.091.839-1.623 2.274-3.369 3.189-3.881 1.473-.825 1.416-1.009-.5-1.617-1.19-.378-2.163-1.301-2.163-2.052 0-1.611 3.09-2.786 5.199-1.977.814.312 2.061-.131 2.771-.986.709-.855 3.041-1.835 5.182-2.177 2.141-.343 4.134-1.014 4.429-1.491.295-.478 1.401-.869 2.457-.869 1.717 0 1.791.281.702 2.671-.832 1.827-.881 2.782-.155 3.024 1.459.486.516 6.411-1.362 8.555-1.38 1.576-1.368 1.932.122 3.579.91 1.006 1.655 2.19 1.655 2.632 0 1.482-4.283 4.539-6.403 4.569-1.892.028-1.927.13-.364 1.041 1.414.823 1.517 1.356.56 2.888-1.6 2.563.362 4.829 4.531 5.233 2.771.269 3.176.68 3.176 3.22 0 3.696 2.055 4.497 2.9 1.132.351-1.399 1.08-2.544 1.619-2.544.54 0 .981-1.775.981-3.944 0-7.449 2.849-9.294 14.929-9.667 11.068-.342 12.597-.955 13.584-5.447.739-3.365 2.48-4.931 2.502-2.251.03 3.537 1.353 4.425 4.801 3.223 3.486-1.215 4.343-3.914 1.243-3.914-2.929 0-3.291-1.512-1.24-5.183 2.179-3.901 5.514-4.494 6.001-1.067.175 1.238.963 2.25 1.75 2.25 1.582 0 1.96 2.554.511 3.45-.518.32-.238 1.932.643 3.699.86 1.723 1.613 4.081 1.675 5.241.105 1.969 3.884 2.595 5.601.929.678-.658 1.183-251.401.51-253.155-.439-1.144-.81-1.16-2.095-.094-.902.749-5.227 1.481-10.238 1.734-4.772.241-9.384.806-10.247 1.256-1.85.964-5.921-4.82-4.17-5.924.555-.35 1.895-2.22 2.978-4.157l1.97-3.521-2.217-1.672c-2.246-1.695-4.019-1.609-17.208.835-3.343.62-4.797 2.875-3.699 5.738.783 2.041 4.018 2.097 7.78.135 6.021-3.14 11.043.018 6.528 4.104-2.859 2.587-2.293 4.096 1.858 4.955 2.67.552 3.174.9 1.75 1.208-2.323.503-7.503 5.118-7.494 6.676.004.585 1.351 1.828 2.995 2.763 2.661 1.515 2.879 1.986 1.993 4.315-.547 1.438-.994 3.684-.994 4.991 0 3.149-1.709 4.068-3.892 2.092-.971-.879-2.518-1.598-3.437-1.598-2.078 0-2.193-1.586-.171-2.362 2.203-.845 1.836-2.12-1.054-3.667-2.371-1.269-2.718-1.163-4.819 1.472l-2.263 2.839-2.172-3.682c-1.845-3.125-2.462-3.526-4.089-2.655-2.629 1.407-7.134-1.998-5.403-4.083.857-1.033.789-1.84-.276-3.297-1.949-2.665 3.439-7.464 8.448-7.524 2.905-.035 3.198-.252 2.109-1.564-.695-.837-2.005-1.287-2.91-.999-.906.287-3.205-.272-5.109-1.242-5.94-3.027-8.46-1.451-5.327 3.33 2.037 3.108 1.473 3.769-1.869 2.192-1.657-.782-2.995-2.578-3.717-4.99-.621-2.072-1.561-3.768-2.089-3.768s-.907-.338-.842-.75c.338-2.14-.296-2.362-1.868-.653-.962 1.047-2.425 1.903-3.25 1.903-1.006 0-1.41.823-1.226 2.5.253 2.305 0 2.188-3.231-1.5-1.927-2.2-3.513-4.386-3.524-4.857-.01-.471-.722-.587-1.582-.257-1.247.478-1.499-.035-1.25-2.542.261-2.62 1.691-4.32 4.587-5.451.973-.38-1.26-3.287-2.843-3.701-2.766-.723-2.399-4.179.704-6.619 1.449-1.14 2.237-2.105 1.75-2.143-.487-.039.915-.762 3.115-1.606 3.916-1.503 11.61-2.575 28.341-3.949 5.798-.476 8.507-1.118 8.886-2.107.3-.781 1.609-1.826 2.909-2.32 3.211-1.221 2.986-2.945-.386-2.963-3.25-.018-4.66-.845-5.549-3.254-.516-1.398-1.338-1.634-3.927-1.128-5.496 1.075-17.044 1.135-21.274.11-6.37-1.543-10.619-1.567-11.195-.064-.669 1.742-2.976 1.74-4.005-.005-1.487-2.521-13.312-2.851-15.275-.427-1.663 2.054-1.668 2.053-3.874-.752-1.596-2.03-1.905-3.107-1.112-3.886.786-.774 1.473-.568 2.432.731 1.619 2.192 2.298 1.213 1.951-2.81-.143-1.65-.296-3.787-.341-4.75-.113-2.441-2.081-2.205-2.081.25 0 1.1-.48 2-1.067 2-.59 0-.801-.842-.47-1.882.78-2.459-5.066-3.65-6.381-1.3-.598 1.068-1.825 1.323-4.378.909-2.553-.414-3.701-.176-4.095.849-.311.81.051 1.424.841 1.424 2.872 0 7.114 3.4 8.871 7.109 1.002 2.114 2.127 3.801 2.5 3.749 2.668-.372 3.211.214 2.107 2.277-.868 1.622-1.338 1.82-1.953.824-.483-.782-2.994-1.375-6.225-1.472-2.978-.089-5.849-.43-6.38-.758-.531-.329-1.619-.184-2.418.322-.798.505-3.027.961-4.952 1.013-1.925.051-2.937.321-2.25.598 4.898 1.977-5.046 5.316-10.104 3.394-1.854-.706-4.192-.664-7.658.136-4.537 1.047-4.988 1.407-4.988 3.98 0 3.252-.256 3.173 5.553 1.71 3.709-.934 4.843-.852 6.897.493 2.117 1.388 2.57 1.411 3.266.168.444-.794 2.827-1.739 5.296-2.1 4.107-.602 4.318-.533 2.488.805-3.722 2.723-8.976 4.585-14.812 5.249-3.548.405-6.02 1.206-6.347 2.057-.572 1.491 1.812 4.446 3.588 4.446.589 0 1.071 1.125 1.071 2.5v3.2c0 .938-4.229.895-5.772-.059-.675-.417-1.228-.318-1.228.221 0 .538-1.324 1.27-2.943 1.625-3.247.714-3.254 3.513-.009 3.513 2.554 0 3.257 1.56 2.506 5.565-.705 3.755-3.012 4.617-3.844 1.435-.553-2.117-3.71-2.822-3.71-.829 0 .644-.737 1.986-1.638 2.982-1.329 1.468-1.402 2.094-.388 3.316 1.588 1.913.514 4.932-1.482 4.166-.821-.315-1.492-.136-1.492.396 0 .533-.886.969-1.969.969-1.339 0-1.784.48-1.393 1.5.336.875.01 1.511-.781 1.526-.746.014-2.199 1.85-3.227 4.079-1.253 2.715-2.203 3.722-2.875 3.05-1.032-1.032-6.126 2.845-6.38 4.854a150.09 150.09 0 01-.25 1.874c-.069.486-1.025 1.119-2.125 1.407-1.1.287-2 1.24-2 2.116 0 1.918-1.278 2.022-4.213.344-4.306-2.463-4.602-3.076-2.381-4.933 1.167-.976 1.541-1.765.844-1.784-.748-.02-1.229-1.338-1.198-3.283.053-3.245.055-3.246 1.622-1 2.037 2.92 3.326 2.86 3.326-.156 0-1.92-.407-2.3-2.015-1.88-2.713.71-1.728-1.903 1.219-3.235 2.648-1.197 3.553-3.479 1.379-3.479-2.415 0-1.888-1.54.973-2.844 1.406-.64 2.28-1.613 1.941-2.16-.338-.548-.112-.996.503-.996s.828-.47.473-1.044c-.355-.574-.216-1.586.309-2.25.525-.663 1.029-2.556 1.121-4.206.091-1.65.263-4.125.381-5.5.163-1.887-.213-2.428-1.534-2.206-1.424.239-1.75-.451-1.75-3.705 0-5.214 4.252-10.037 7.217-8.186 2.787 1.741 4.251.271 2.098-2.107-.998-1.103-1.683-2.187-1.521-2.409 1.321-1.813-4.812-17.387-6.847-17.387-.521 0-.947-.884-.947-1.965 0-1.08-.87-2.43-1.934-2.999-1.063-.57-2.075-2.231-2.25-3.691-.245-2.062-1.164-2.949-4.109-3.963-2.086-.719-5.081-2.224-6.654-3.345-1.574-1.12-3.542-2.037-4.374-2.037-.832 0-1.694-.545-1.916-1.212-.26-.778-2.082-1.109-5.084-.925-4.435.273-4.679.154-4.679-2.287 0-1.417-.562-2.606-1.25-2.642-.687-.037-4.175-.195-7.75-.352-3.575-.156-7.175-.545-8-.863-.825-.319-2.4-.192-3.5.281m230.75 8.166c-2.337.523-4.25 1.417-4.25 1.985 0 .569-.907 2.186-2.015 3.595-1.879 2.388-1.906 2.725-.414 5.002 1.505 2.298 1.467 2.583-.648 4.834-2.357 2.508-2.859 7.774-1.067 11.178 1.163 2.207 1.184 7.564.032 8.295-.481.305-.99 3.672-1.131 7.483l-.257 6.928 4.119 2.017c5.995 2.935 8.27 5.44 6.062 6.676-2.097 1.173-2.286 4.287-.213 3.492.807-.31 1.734-.133 2.059.393 1.966 3.181 2.382-2.095 2.445-31.044.039-17.6-.052-31.952-.201-31.893-.149.059-2.184.535-4.521 1.059m-389.688 10.415c-1.498 1.498-1.246 3.96.307 3 .402-.248 1.266.405 1.92 1.453 1.009 1.615.775 2.289-1.539 4.435-1.501 1.392-3.079 2.531-3.506 2.531-.427 0-1.525 1.57-2.441 3.49-.915 1.919-2.574 3.779-3.687 4.132-1.112.353-2.719 1.337-3.569 2.186-1.801 1.798-2.301 5.463-.662 4.855.613-.227 1.003-.919.865-1.538-.137-.619.65-1.125 1.75-1.125s2-.45 2-1 .405-1 .9-1c1.045 0 8.1-6.867 8.1-7.884 0-1.278 5.796-4.116 8.404-4.116 4.122 0 3.624-4.978-.837-8.381-3.957-3.018-5.788-3.256-8.005-1.038m-26.184 22.856c-3.385 1.473-7.065 5.834-5.394 6.391.559.186 1.016.976 1.016 1.755 0 .78.723 1.417 1.607 1.417 1.123 0 1.402.527.926 1.75-.375.963-.701 1.975-.726 2.25-.334 3.771 4.887 3.935 6.308.197.491-1.291 1.606-3.061 2.478-3.933 1.447-1.447 1.436-1.668-.123-2.541-1.192-.667-1.953-.56-2.517.354-.642 1.037-1.348 1.064-3.402.128l-2.592-1.181 3.021-3.16c1.661-1.738 3.02-3.544 3.02-4.012 0-1.04.179-1.069-3.622.585m304.013 1.387c.28.453-1.752.926-4.515 1.052-5.461.25-9.876 1.566-9.876 2.944 0 .972 3.981 4.81 4.615 4.45 4.113-2.329 6.836-3.311 7.975-2.874.776.298 1.41.105 1.41-.427 0-.533.761-.969 1.691-.969 1.475 0 1.443.188-.25 1.468-1.899 1.437-1.894 1.469.227 1.5 1.193.018 2.88.305 3.75.639 1.081.415 1.607.019 1.661-1.25.045-1.053.297-1.316.583-.607.278.688 1.072 1.25 1.766 1.25s2.119.953 3.167 2.117l1.905 2.116.5-3.866c.396-3.062.968-3.934 2.75-4.187 1.238-.175 2.25-.738 2.25-1.25 0-1.348-3.667-1.141-6.8.385-3.54 1.723-4.274 1.611-6.95-1.065-2.083-2.083-7.006-3.282-5.859-1.426M58.685 180.845c-1.715.687-1.7.831.264 2.609 1.294 1.171 1.861 2.57 1.5 3.706-.413 1.301.156 2.159 1.986 2.992 3.367 1.534 3.249 2.025-1.041 4.335-1.983 1.068-3.108 2.108-2.5 2.311 2.392.797 1.266 6.945-1.394 7.613-1.953.49-2.5 1.266-2.5 3.549 0 3.902 1.64 4.707 3.901 1.915 1.11-1.372 2.978-2.298 4.691-2.327 2.542-.043 2.867-.423 3.03-3.548.101-1.925-.335-4.136-.969-4.913-.878-1.075-.855-1.513.097-1.833.688-.231 1.25-1.494 1.25-2.806 0-1.709.425-2.222 1.5-1.81.957.368 1.5-.017 1.5-1.062 0-.902.675-1.898 1.5-2.214.825-.317 1.5-.978 1.5-1.469 0-1.413-1.995-1.041-3.732.696-1.452 1.452-1.666 1.452-2.478 0-.489-.874-1.571-1.589-2.404-1.589-1.104 0-1.429-.873-1.2-3.22.334-3.428-1.039-4.323-4.501-2.935M399.5 207.141c-3.3.353-8.587.691-11.75.75-4.396.083-5.75.462-5.75 1.609 0 1.887-.988 1.897-3.64.039-1.763-1.234-2.372-1.251-3.935-.108-2.865 2.095-.25 4.402 5.405 4.767 4.234.274 4.67.535 4.67 2.802 0 2.286.386 2.506 4.5 2.571 2.54.041 6.334 1.021 8.71 2.25 8.022 4.151 13.86 2.103 19.632-6.887 3.445-5.367-5.203-9.144-17.842-7.793M.479 296.5c0 49.5.122 69.604.271 44.675.149-24.929.149-65.429 0-90C.601 226.604.479 247 .479 296.5m489.96-72.75c-1.067.963-3.289 1.895-4.939 2.072-1.65.177-3.58 1.075-4.289 1.995-1.111 1.441-1.415 1.47-2.193.212-.851-1.377-3.018 2.179-3.018 4.953 0 .468-.558 1.037-1.241 1.265-.89.297-.743.912.52 2.174 1.469 1.47 2.278 1.58 4.89.67 3.916-1.365 3.831-1.372 3.831.315 0 1.706 3.393 1.03 5.09-1.014.951-1.146.514-1.392-2.468-1.392-2.614 0-3.622-.434-3.622-1.559 0-.857-.45-1.281-1-.941-.55.34-1 .216-1-.274 0-1.787 1.15-1.94 4.891-.652 4.742 1.634 8.748.9 6.944-1.272-.954-1.15-.906-1.645.229-2.363 2.085-1.319 5.688-1.141 6.274.311.277.688.54-.164.583-1.893.115-4.562-5.582-6.128-9.482-2.607m-38.132 3.891c-.663 1.728.629 3.598 2.097 3.034.66-.253 2.652.15 4.427.896 2.76 1.16 3.133 1.722 2.589 3.893-.751 2.993.244 3.167 6.08 1.065 3.495-1.259 3.66-1.447 1.309-1.485-1.48-.024-2.969-.494-3.309-1.044-.34-.55.338-1 1.507-1 3.706 0 2.31-5.247-1.507-5.666-8.922-.979-12.733-.89-13.193.307m-157.744 6.256c-1.013 1.64.649 7.036 2.331 7.569 1.207.384 1.625 1.613 1.541 4.53-.064 2.202.21 4.004.608 4.004.688 0 1.846 2.741 2.535 6 2.149 10.156 2.8 11.104 4.871 7.099 1.425-2.756 1.816-2.954 3.639-1.843 2.351 1.432 5.912-1.821 5.912-5.402 0-1.593.333-1.746 1.934-.889 2.806 1.501 5.038 1.271 5.753-.593.712-1.855-3.127-5.314-5.937-5.35-1.085-.014-1.75-.794-1.75-2.053 0-1.118-.788-2.319-1.75-2.671-.962-.351-2.823-1.462-4.135-2.468-2.63-2.018-4.607-2.436-3.568-.753.988 1.598-5.65.351-6.726-1.264-.481-.722-.649-2.551-.373-4.063.434-2.38.177-2.75-1.914-2.75-1.329 0-2.666.404-2.971.897M476 249.735c-2.844 1.598-6.222 2.577-9.178 2.658-5.816.16-5.714.027-4.881 6.312.666 5.033.596 5.244-2.126 6.372-3.271 1.354-3.362 1.661-1.209 4.04 1.532 1.693 1.778 1.666 5.349-.588 3.716-2.346 3.754-2.349 5.436-.386 3.395 3.965 7.702 2.198 10.932-4.484 2.677-5.539 2.734-5.938 1.113-7.729-1.622-1.793-1.589-1.986.645-3.795 2.019-1.634 2.163-2.136 1.014-3.52-1.64-1.977-1.561-1.989-7.095 1.12m-107.84 3.505c-.777.777-.643 1.826.473 3.715 1.49 2.523 1.425 2.771-1.55 5.956-2.986 3.197-3.227 3.272-6.343 1.978-5.288-2.195-19.74-.61-19.74 2.165 0 1.423 3.955 2.129 8.049 1.438 2.181-.369 7.019-.155 10.75.474 5.111.862 8.379.859 13.243-.011 3.552-.635 7.808-1.257 9.458-1.381 7.102-.535 7.106-.536 5.5-1.574-.825-.533-2.779-.976-4.342-.985-1.564-.008-3.987-.915-5.385-2.015-1.399-1.1-3.247-2-4.108-2-1.091 0-1.248-.317-.517-1.048 2.363-2.363 20.129-2.96 23.546-.792 2.421 1.536 8.17.431 7.543-1.45-.308-.923-7.703-1.94-13.617-1.873-1.859.022-4.334-.58-5.5-1.336-2.731-1.77-15.993-2.728-17.46-1.261m48.299 14.827c-.363.586-.393 1.332-.068 1.658.74.739-1.29 3.275-2.622 3.275-.559 0-.707-1.112-.341-2.57.938-3.735-4.505-3.175-5.539.57-.379 1.375-.734 1.938-.789 1.25-.147-1.844-3.153-1.515-6.874.754-1.801 1.098-3.883 1.996-4.628 1.996-2.129 0-4.114 2.884-2.853 4.145 1.329 1.329 12.329 1.761 13.981.549.674-.495 3.374-.689 6-.432 5.891.578 25.274-1.285 25.274-2.428 0-.459-1.334-.834-2.965-.834-1.924 0-3.334-.69-4.017-1.966-.579-1.081-2.798-2.436-4.932-3.011-2.134-.575-4.138-1.715-4.452-2.534-.658-1.715-4.198-2.004-5.175-.422m38.112 19.818c-5.583 9.033-5.574 23.115.014 23.115 2.168 0 2.246-.283 1.839-6.639-.235-3.652.058-8.439.651-10.639 1.104-4.099-.815-8.57-2.504-5.837M49.5 299c-.34.55-1.89 1-3.445 1-1.554 0-4.115.672-5.691 1.494-1.575.821-3.652 1.496-4.614 1.5-.962.003-1.75.456-1.75 1.006s.675 1 1.5 1 1.5.45 1.5 1-.614 1-1.363 1c-2.359 0-1.296 4.335 1.44 5.87 2.361 1.325 2.842 1.25 5.75-.9 1.745-1.29 3.173-2.936 3.173-3.658 0-1.65 1.446-1.672 4.044-.062 1.937 1.201 4.839-.7 3.347-2.192-.275-.275-.847.062-1.272.749-.544.881-1.107.514-1.908-1.244-1.144-2.51.427-5.563 2.86-5.563.511 0 .929-.45.929-1s-.873-1-1.941-1-2.219.45-2.559 1m344.971 20.046c-1.016 1.645-8.883 3.388-15.736 3.486-7.951.115-9.256.967-7.71 5.035 1.338 3.517 2.984 4.67 4.671 3.271.869-.722 2.176-.73 4.198-.025 1.615.563 3.161.799 3.435.524.275-.274 1.466.018 2.646.65 5.383 2.88 18.732-1.438 24.688-7.987 3.292-3.619 2.966-4-3.42-4-3.166 0-7.21-.417-8.986-.926-1.905-.547-3.458-.558-3.786-.028m-110.067 13.588c-1.525.791-3.28 1.244-3.9 1.006-.62-.238-1.999.879-3.066 2.482-1.195 1.798-3.375 3.306-5.688 3.935-3.041.827-3.75 1.485-3.75 3.482 0 3.671 2.503 2.811 10.5-3.609 1.1-.883 4.565-2.195 7.7-2.915 5.011-1.152 7.853-3.295 6.356-4.792-1.145-1.145-5.583-.921-8.152.411m-170.452 66.508c-1.152.801-1.182 1.119-.149 1.535 1.515.61-1.378 3.237-3.624 3.291-.727.018-2.037.747-2.912 1.622-1.099 1.099-2.543 1.402-4.678.982-7.699-1.516-12.785-1.73-17.257-.729-7.636 1.71-19.332 2.492-19.332 1.293 0-1.131-6.602 1.53-9.031 3.64-.808.702-3.944 2.966-6.969 5.032-3.736 2.551-5.609 4.547-5.84 6.224l-.341 2.468 2.895-2.75c4.458-4.234 9.914-2.661 7.355 2.12-1.531 2.861-1.351 3.309 1.181 2.95 1.588-.226 2.228-.971 2.175-2.53-.106-3.105 2.167-3.617 4.288-.966.983 1.229 2.566 2.077 3.518 1.885.953-.192 2.74.358 3.973 1.221 4.41 3.089 7.624 1.534 3.863-1.869-2.775-2.512-1.531-4.856 2.281-4.297 2.233.328 3.505-.096 4.696-1.566 2.307-2.85 4.315-1.3 3.648 2.814-.508 3.13-.377 3.283 3.322 3.874 2.714.434 4.049 1.236 4.517 2.713.536 1.687 1.183 1.968 3.317 1.438 1.459-.362 3.771-.744 5.138-.848 2.917-.222 3.575-2.41 1.529-5.085-1.105-1.446-2.894-1.944-7.529-2.097-6.899-.227-8.632-1.241-6.682-3.908 1.168-1.597 1.765-1.658 5.429-.561 5.214 1.562 7.258.79 7.299-2.757.03-2.661.095-2.697 1.5-.84.807 1.068 1.468 2.649 1.468 3.513 0 .864 1.013 2.016 2.25 2.559 1.601.702 2.259 1.853 2.281 3.987.027 2.633.42 3.038 3.219 3.311l3.189.311-1.126-3.311c-.619-1.821-1.709-4.168-2.422-5.216-2.16-3.174-.021-5.803 4.407-5.415 4.491.394 5.222-1.591 2.671-7.248-.948-2.104-1.461-4.509-1.14-5.346.754-1.965-.518-2.737-2.377-1.444M141 418c-6.631.566-8.102.963-5.083 1.375 1.659.226 2.45 1.625.919 1.625-.824 0-2.1 1.126-2.837 2.501-.736 1.376-2.837 3.386-4.669 4.467-5.489 3.239-4.256 4.255 4.42 3.642 4.262-.301 8.753-.61 9.978-.686 1.899-.118 2.071-.43 1.169-2.117-.583-1.088-.91-2.072-.728-2.186.182-.115 2.162-1.065 4.4-2.111 2.238-1.047 4.548-2.918 5.133-4.157 1.728-3.663 2.022-3.609-12.702-2.353m42.914 23.894c-1.423.465-3.673 1.544-5 2.398-4.443 2.857-11.675 3.261-14.957.834-3.607-2.666-5.302-2.67-8.887-.02-2.161 1.598-3.833 1.992-6.927 1.635-2.244-.259-4.313-.238-4.597.047-.285.285-5.362.46-11.282.389-12.558-.151-14.915.82-13.93 5.742.33 1.652.186 3.26-.321 3.573-1.69 1.045-5.818-.637-6.325-2.577-.65-2.484-4.155-2.487-9.254-.007-4.056 1.973-5.434 1.896-5.434-.307 0-1.372 3.999-3.543 6.797-3.69.937-.05-.547-.725-3.297-1.501-3.88-1.094-6.042-1.169-9.652-.334-3.807.881-5.206.79-7.701-.5-3.784-1.957-6.567-1.995-9.993-.136-1.46.792-4.328 1.71-6.375 2.04-2.046.33-5.036 1.707-6.644 3.06-1.923 1.618-4.158 2.46-6.529 2.46-1.983 0-3.606.4-3.606.889 0 .488-1.573 1.184-3.496 1.544-2.71.509-4.002 1.548-5.75 4.623-1.977 3.479-2.592 3.894-5.005 3.376-3.328-.715-4.743 1.746-2.797 4.863 1.095 1.753.971 2.254-.91 3.673-2.715 2.049-1.963 7.506.931 6.749.966-.252 2.223.367 2.879 1.418C36.493 483.161 37.909 484 39 484c1.091 0 2.545.9 3.232 2 1.452 2.326 2.768 2.61 2.768.598 0-.771 1.317-1.861 2.927-2.423 2.29-.798 2.808-1.472 2.383-3.097-.299-1.143-.25-2.078.109-2.078 1.137 0 6.035 3.403 7.253 5.041 1.635 2.196 8.479 1.433 8.096-.903-.185-1.128.587-1.736 2.482-1.954 1.512-.174 2.75-.748 2.75-1.275 0-.527 1.112-1.381 2.472-1.898 1.489-.567 2.737-2.048 3.138-3.726 1.005-4.204 2.118-5.098 6.148-4.934 3.384.137 3.778.472 4.885 4.149l1.203 4 .147-3.5c.212-5.032 1.424-7.961 2.325-5.615.611 1.594.852 1.609 2.897.177 3.836-2.687 8.488-2.036 10.285 1.438 1.799 3.479 4.833 3.913 9.712 1.39 2.015-1.042 4.478-1.427 6.982-1.091 3.141.422 4.436.042 6.885-2.019l3.017-2.539 2.452 2.304c1.349 1.267 2.452 3.055 2.452 3.974 0 2.217 3.152 4.981 5.68 4.981 2.609 0 8.646-2.066 9.415-3.222.788-1.184 5.515.047 6.986 1.82 1.322 1.593 7.919 1.928 7.919.402 0-1.446 3.192-1.17 5.347.463 2.449 1.855 4.653.891 4.653-2.035 0-3.088 3.447-5.027 6.375-3.587 6.701 3.295 14.289 6.327 16.073 6.422 1.129.06 2.94.7 4.025 1.423 1.084.723 2.632 1.314 3.438 1.314 2.176 0 8.074 4.289 8.082 5.878.005 1.049.97 1.224 4.041.733 2.305-.369 4.903-.18 6.065.442 4.039 2.162 6.037 2.039 5.706-.35-.229-1.652.503-2.578 2.923-3.703 3.278-1.523 4.528-5 1.798-5-1.393 0-9.722-6.797-19.358-15.798-3.447-3.219-4.264-4.616-4-6.839.24-2.016-.235-3.081-1.705-3.828-3.13-1.591-6.604-4.688-8.747-7.8-1.405-2.04-12.483-3.254-16.802-1.841m313.86 8.173c-1.39.81-1.607 1.873-1.115 5.464l.612 4.459-3.37-1.174c-1.854-.647-4.249-1.994-5.324-2.996-2.179-2.029-3.514-2.325-3.702-.82-.069.55-.181 1.428-.25 1.95-.311 2.367-2.262 2.541-4.32.386l-2.196-2.299 2.054-1.439c1.13-.791 1.791-1.864 1.469-2.384-.673-1.09-5.632-.377-5.632.809 0 .434-.9.554-2 .267-1.326-.347-2-.031-2 .938 0 1.404-3.791 5.537-4.605 5.022-1.228-.777-2.291.084-3.395 2.75-1.535 3.707-2.448 3.748-5.478.25-2.992-3.453-4.431-2.306-4.773 3.801-.211 3.771-.594 4.498-2.514 4.77-2.611.371-2.022 2.179.71 2.179 2.061 0 7.204 2.448 7.114 3.387-.273 2.848.107 3.382 2.043 2.876 1.156-.302 2.524-1.76 3.04-3.24 1.709-4.903 9.744-7.225 9.843-2.844.022.996-2.976 3.821-4.056 3.821-2.281 0-.772 3.822 1.759 4.458 1.479.371 3.264 1.432 3.968 2.358 1.194 1.571 1.283 1.566 1.312-.066.018-.962-.53-1.757-1.218-1.765-.874-.011-.916-.237-.14-.75.611-.404 1.846-2.17 2.745-3.924.898-1.754 2.467-3.779 3.486-4.5 1.019-.721 2.406-2.998 3.083-5.061 1.265-3.852 3.411-4.927 4.447-2.226.73 1.902-.351 10.597-1.5 12.068-1.208 1.545.053 2.465 2.527 1.845 3.836-.961 6.175 1.766 4.658 5.429-1.621 3.912-4.041 4.139-4.096.384l-.04-2.75-1.492 2.75c-1.495 2.755-2.52 3.325-3.756 2.089-.994-.994-7.011-1.087-8.305-.128-.693.514-1.361.247-1.719-.685-.723-1.885-4.247-2.014-4.95-.181-.302.787-1.797 1.268-3.607 1.16-2.964-.176-3.091-.021-3.091 3.764 0 3.685-.162 3.907-2.439 3.336-1.341-.337-2.701-.188-3.022.332-.362.585-1.709.551-3.548-.09-2.219-.774-4.519-.639-9.156.538-11.339 2.878-9.307 3.573 10.412 3.565 13.733-.006 18.723-.327 19.054-1.229.351-.955.738-.948 1.774.029 1.848 1.743 6.554 1.712 5.105-.034-.596-.718-.705-1.866-.248-2.606.573-.927 1.023-.992 1.502-.217.376.609 1.557 1.107 2.625 1.107s1.941.675 1.941 1.5c0 1.167 1.333 1.5 6 1.5h6v-24.5c0-13.475-.113-24.486-.25-24.47-.137.017-1.027.483-1.976 1.037m-84.151 3.538c-1.443 1.809-2.623 3.887-2.623 4.619 0 .732-.652 2.261-1.448 3.398-1.304 1.862-1.204 2.425 1 5.67 5.053 7.435.789 8.012-4.817.651-4.332-5.687-7.331-6.474-8.354-2.193-.362 1.512-.83 3.061-1.041 3.44-.486.874-6.34-1.118-6.34-2.158 0-.424-1.913-1.006-4.25-1.291-2.337-.286-5.15-.879-6.25-1.318-1.779-.709-1.849-.611-.628.89.755.928 1.961 1.687 2.681 1.687.982 0 1.09.759.434 3.046-.774 2.698-.594 3.153 1.57 3.975 2.702 1.028 3.269 3.725.969 4.608-2.052.787-4.526-1.977-4.526-5.058 0-2.336-.368-2.571-4.031-2.571-2.921 0-4.214.482-4.694 1.75-.86 2.269-2.294 3.67-4.775 4.662-1.949.779-1.942.826.25 1.847 2.632 1.224 2.819 2.315.75 4.384-1.333 1.333-1.5 1.319-1.5-.131 0-.896-.45-1.352-1-1.012-.55.34-1 .184-1-.347 0-.531-.909-.728-2.021-.437-1.399.366-1.725.886-1.057 1.69 1.121 1.351.376 2.652-2.399 4.189-1.088.602-2.232 2.174-2.544 3.494-.815 3.452-3.743 3.661-4.999.357-.998-2.623-1.19-2.681-6.853-2.04-3.303.374-6.988.217-8.512-.362-2.078-.791-2.807-.708-3.219.366-.292.763-2.432 1.865-4.753 2.45-2.322.584-5.295 2.205-6.607 3.601L318.651 498h47.375c36.846 0 47.107-.267 46.174-1.2-1.763-1.763-1.467-2.8.8-2.8 1.333 0 2 .667 2 2 0 2.713 6.598 2.937 7.364.25.882-3.096.175-10.896-1.13-12.469-1.816-2.187 4.052-4.708 6.867-2.95 2.596 1.621 6.412 1.461 7.899-.331.685-.825 1.921-1.5 2.747-1.5 1.135 0 1.357-.731.905-2.988-.513-2.565-.254-3.074 1.834-3.598 3.259-.818 5.176-3.152 3.756-4.572-.765-.765-1.737-.608-3.38.542-3.266 2.288-5.1 2.021-8.175-1.189-3.323-3.468-3.421-5.195-.294-5.195 1.316 0 2.652-.675 2.969-1.5.683-1.782-.491-1.971-2.12-.342-1.465 1.465-4.242-.58-4.242-3.125 0-2.724-3.076-4.789-8.627-5.79-5.043-.91-5.169-.871-7.75 2.362m-12.4 25.952c-3.027 2.12-2.796 4.244.503 4.627l2.726.316-2.773 1.25c-2.516 1.134-2.997 1.009-5.175-1.34-2.823-3.046-4.504-2.444-4.504 1.614 0 3.18 2.923 5.491 5.946 4.7.995-.26 2.24.344 2.906 1.411 1.392 2.229 7.687 2.711 6.848.524-.701-1.825.255-3.077 3.8-4.974 1.65-.883 2.438-1.623 1.75-1.645-1.876-.06-1.504-3.785.5-5.013 1.395-.855.89-1.026-2.488-.839-2.332.129-4.784-.31-5.45-.976-1.556-1.556-1.914-1.529-4.589.345" fill="#d3d3d3" fill-rule="evenodd"/></svg>