<svg xmlns="http://www.w3.org/2000/svg" width="500" height="713"><path d="M179.63 85.25c-.331 1.237-.615 4.275-.63 6.75-.037 6.069-.929 9-2.739 9-1.026 0-1.214.398-.591 1.25.544.743.599 9.768.135 22.25-1.005 27.022-1.777 45.781-1.911 46.462-.059.296-.171 1.399-.25 2.45-.218 2.891-2.113 2.949-3.632.111-1.42-2.653-3.574-3.338-4.238-1.346-.226.678-.933.843-1.668.389-3.2-1.978-34.082.441-37.106 2.907-.825.673-2.197 1.467-3.048 1.766-1.874.658-7.064 17.088-9.874 31.261-2.591 13.067-7.078 43.085-7.078 47.354 0 4.825 4.573 8.891 10.085 8.967 2.269.031 4.378.309 4.687.618.309.308-.864.561-2.605.561-1.742 0-3.167.241-3.167.537 0 1.999 14.549 15.311 17.798 16.284 2.067.62 5.298 2.715 7.179 4.655l3.421 3.529 1.22-2.752 1.22-2.753.081 2.75c.044 1.512-.457 2.75-1.114 2.75-.658 0 .58 1.63 2.75 3.621 3.304 3.033 5.245 3.869 11.945 5.141 4.4.836 8.543 1.66 9.207 1.831.862.223 1.095 2.684.812 8.609-1.034 21.682-1.787 91.824-1.898 176.798l-.121 93.5-25.451.5-25.451.5-2.874 12.5c-3.781 16.446-4.367 17.824-8.266 19.453-3.56 1.487-2.959-.025-9.345 23.547-2.584 9.538-3.115 13.339-3.114 22.282.001 7.324-.48 11.934-1.499 14.372-.825 1.975-1.507 4.548-1.515 5.718-.013 1.781-.19 1.883-1.087.628-.866-1.213-.98-1.082-.595.685.293 1.348-.088 2.402-.995 2.75-2.522.968-3.407.63-3.102-1.185.171-1.019-.332-1.75-1.206-1.75-2.198 0-5.036-3.747-3.888-5.133.626-.756.347-1.36-.836-1.815-2.414-.926-2.836-.602-2.421 1.851.352 2.077.335 2.079-1.773.171-1.452-1.314-1.804-2.252-1.106-2.95 1.49-1.49 1.255-2.624-.543-2.624-1.08 0-1.382-.586-.971-1.882.67-2.11-2.339-3.935-3.47-2.105-.943 1.526-3.37-1.585-2.667-3.418.804-2.096-2.098-2.81-3.268-.803-.896 1.535-.999 1.502-1.027-.331-.023-1.553-.676-2.03-2.734-2-1.9.027-3.084-.704-3.982-2.461-.703-1.375-1.961-2.368-2.796-2.206-.835.161-1.518-.401-1.518-1.25S50.523 652 49.941 652c-.597 0-.718-.546-.279-1.25 1.723-2.76 1.281-4.314-1.194-4.205-1.35.059-2.763.416-3.14.794-.378.378-2.294-1.006-4.258-3.076-1.963-2.07-4.132-3.808-4.82-3.863-2.746-.22-3.14-.478-3.774-2.475-.362-1.142-.896-1.838-1.186-1.548-.291.29-1.223-.167-2.071-1.015-1.195-1.195-1.262-1.718-.297-2.314.93-.575.824-.931-.42-1.409-2.62-1.005-6.502-.747-6.502.432 0 .59-.675.397-1.5-.428-1.827-1.827-1.923-3.325-.25-3.923.688-.245.888-.832.446-1.304-.443-.472-1.174-.261-1.625.47-.515.832-1.055.95-1.447.315-.344-.557-1.638-.797-2.875-.533-2.193.468-2.201.441-.308-1.094 1.887-1.53 1.871-1.574-.559-1.574-1.375 0-3.373-.661-4.441-1.468-1.915-1.449-1.915-1.47.059-1.564 1.831-.087 1.808-.172-.272-1.007-1.25-.502-2.536-1.599-2.857-2.437C5.18 614.42 4 616.149 4 621c0 3.778-.367 5-1.5 5-.825 0-1.5.477-1.5 1.059s.418.801.929.485c.881-.545.71 1.765-.663 8.956-.315 1.65-.739 19.538-.943 39.75L-.048 713h249.524c137.238 0 249.524-.364 249.524-.809 0-.445-.625-1.663-1.389-2.708-.764-1.045-1.196-2.4-.961-3.013s-.725-1.639-2.133-2.28c-2.105-.959-2.445-1.628-1.911-3.756.768-3.058-1.403-7.726-3.262-7.013-.704.271-1.597-.021-1.984-.648-.464-.75-.964-.478-1.462.793-.688 1.756-.764 1.721-.828-.375-.038-1.27-.408-2.11-.82-1.867-1.152.678-5.25-1.125-5.25-2.311 0-.646 1.06-.787 2.75-.366 2.479.617 2.615.521 1.378-.981-.755-.916-2.395-1.666-3.643-1.666-1.249 0-2.53-.675-2.847-1.5-.652-1.7-3.638-2.062-3.638-.441 0 .582-.43.793-.956.468s-.696-1.27-.377-2.101c.447-1.166-.004-1.404-1.985-1.045-1.504.273-3.053-.123-3.746-.958-.936-1.128-.856-1.423.383-1.423.859 0 1.878-.51 2.264-1.134.486-.786-.264-.993-2.441-.674-2.128.313-3.142.048-3.142-.82 0-.705-1.575-1.577-3.5-1.938s-3.5-1.042-3.5-1.514c0-.471-.675-.598-1.5-.282-1.356.521-1.832-.349-1.307-2.388.107-.413-1.099-.975-2.679-1.25-2.765-.481-2.805-.567-1.074-2.298.989-.988 1.483-2.113 1.097-2.498-.385-.385-1.276.086-1.979 1.048-1.602 2.19-1.751 2.182-4.558-.252-1.268-1.1-1.787-2-1.153-2 .634 0 1.153-.388 1.153-.861 0-.474-1.125-.647-2.5-.384-1.459.279-2.5.013-2.5-.638 0-.615-.603-1.117-1.339-1.117-.737 0-1.865-1.153-2.507-2.562-.719-1.577-1.837-2.448-2.911-2.267-.959.162-2.856-.485-4.216-1.438-1.359-.953-3.283-1.733-4.274-1.733-.991 0-2.213-1.079-2.714-2.397-1.497-3.939-10.276-4.719-13.534-1.203-1.325 1.43-3.106 2.6-3.957 2.6-.852 0-1.548.45-1.548 1s.927 1 2.059 1c1.132 0 1.781.45 1.441 1-.34.55-1.668 1-2.952 1s-2.593.675-2.91 1.5c-.316.825-.139 1.5.393 1.5.533 0 .969.45.969 1s-.73 1-1.622 1c-1.345 0-1.405.263-.351 1.533.7.843 1.317 2.755 1.373 4.25.059 1.602.613 2.614 1.35 2.467.688-.137 1.25.2 1.25.75s-.675 1-1.5 1-1.5.45-1.5 1-.456 1-1.014 1c-.576 0-.788-1.285-.491-2.972.416-2.363.214-2.854-.986-2.393-.936.359-1.509.004-1.509-.934 0-1.021-.651-1.344-2-.991-1.654.433-2.003.028-2.015-2.343-.013-2.303-.225-2.572-1.081-1.367-.821 1.155-.928.868-.466-1.25.348-1.593.172-2.75-.419-2.75-.56 0-1.019 1.152-1.019 2.559 0 1.451-.433 2.292-1 1.941-.55-.34-1-2.199-1-4.13 0-3.344-2.106-6.93-3.344-5.693-.319.32-1.151-.714-1.848-2.298-.697-1.583-1.523-3.104-1.836-3.379-1.953-1.717-4.996-7.152-4.476-7.993.342-.554.07-1.007-.604-1.007-.674 0-.952-.273-.618-.607.334-.335-.491-1.792-1.833-3.24-1.343-1.448-2.441-3.398-2.441-4.334 0-.935-.457-1.984-1.016-2.329-.559-.346-.787-1-.506-1.454.281-.455-.127-1.071-.905-1.37-.779-.298-3.139-4.058-5.244-8.354-2.106-4.297-4.112-8.037-4.458-8.312-.793-.63-8.589-13.937-11.886-20.286-1.377-2.653-3.376-5.005-4.485-5.277-1.1-.269-27.2-.366-58-.214-55.319.274-55.998.301-55.796 2.277.584 5.707.929 18.533.511 18.951-.756.756-3.97-3.764-7.201-10.126-5.774-11.373-4.525-10.777-23.415-11.16-14.46-.294-16.585-.547-17.056-2.028-.892-2.812-1.305-109.351-.497-128.137.415-9.625.882-43.375 1.039-75 .346-69.45.534-75 2.538-75 5.895 0 11.321-8.588 17.713-28.035 3.608-10.975 11.27-28.199 14.668-32.971 2.247-3.156 2.491-10.195 1.072-30.994-.491-7.207-.42-11.967.192-12.75.687-.879.53-1.25-.531-1.25-.829 0-2.197-1.012-3.041-2.25-.843-1.238-3.826-4.642-6.628-7.565-2.803-2.924-5.717-6.803-6.477-8.622-1.442-3.45-2.784-4.02-12.297-5.225-3.887-.492-4.174-.733-3.792-3.185.319-2.044 1.431-45.324 1.488-57.872.007-1.644.463-2.082 1.76-1.693 1.235.37 1.088.03-.5-1.154-2.076-1.548-2.25-2.465-2.25-11.856 0-9.992-.737-12.578-3.583-12.578-.651 0-1.455 1.013-1.787 2.25m12.929 178.302c1.886 1.508 1.878 1.534-.309.932-1.238-.34-2.25-.193-2.25.327 0 1.313 5.642 3.529 6.94 2.726 1.458-.901 1.275.596-.332 2.713-1.427 1.88-4.608 2.398-4.608.75 0-.55-1.35-1-3-1-3.18 0-3.745.855-1.83 2.77.892.892.596 1.389-1.25 2.099-2.27.873-2.3.979-.48 1.711 1.225.492 2.085.345 2.333-.4.217-.649 1.086-1.18 1.933-1.18 1.191 0 1.282.31.399 1.373-1.422 1.714-.677 3.789 1.952 5.431 1.815 1.133 2.173.929 3.55-2.022a160.543 160.543 0 0 1 2.85-5.782c.725-1.375 1.622-4.637 1.992-7.25l.674-4.75h-5.253c-4.914 0-5.127.1-3.311 1.552" fill="#d3d3d3" fill-rule="evenodd"/></svg>