<svg xmlns="http://www.w3.org/2000/svg" width="500" height="717"><path d="M276.5 109.951c-1.65.447-4.889.866-7.198.931-5.158.145-17.37 3.892-31.302 9.604-5.775 2.367-14.1 5.753-18.5 7.523-4.4 1.77-8.495 3.615-9.099 4.102-.605.486-3.395 1.319-6.202 1.851-2.806.532-9.426 3.016-14.711 5.518-5.285 2.503-14.419 6.191-20.298 8.197-14.891 5.08-21.761 10.658-33.69 27.359-1.1 1.54-4.626 5.199-7.834 8.132-3.209 2.932-8.024 8.105-10.699 11.495-2.675 3.39-6.125 6.923-7.666 7.852-2.793 1.684-8.295 9.397-12.117 16.985-1.108 2.2-3.883 5.8-6.168 8-12.737 12.268-25.301 40.04-23.635 52.244C68.461 287.656 75.456 298 79.726 298c.504 0 2.67.853 4.814 1.895 3.722 1.811 3.95 2.201 5.099 8.75 1.899 10.823 1.774 12.035-1.327 12.813-1.479.371-3.233 1.42-3.899 2.33-1.268 1.734-9.975 2.599-11.913 1.183-1.809-1.321-37.175 3.905-62.25 9.199L0 336.334V717l240.25-.149c132.137-.081 234.625-.482 227.75-.889-6.875-.408-30.725-1.016-53-1.352-48.345-.728-67.567-2.003-70.507-4.677-1.104-1.004-3.77-2.412-5.924-3.129-6.786-2.259-5.915-4.215 1.547-3.474 3.511.348 19.659.913 35.884 1.255 26.932.568 30.666.439 42.896-1.482 7.368-1.156 14.905-2.103 16.75-2.103 2.102 0 3.354-.49 3.354-1.313 0-1.05-4.952-1.3-24.75-1.25-22.819.058-54.876-1.145-53.995-2.026.207-.206 6.196-.634 13.31-.951 26.83-1.197 46.693-2.501 47.717-3.134 3.329-2.058-23.111-4.878-35.552-3.793-4.608.403-8.271.284-9-.291-.676-.533-1.905-1.038-2.73-1.123-7.422-.759-28.295-1.298-45.853-1.184-15.064.098-21.77-.207-22.768-1.036-2.628-2.18-9.431-2.793-13.797-1.241-4.238 1.507-10.582 1.047-10.582-.766 0-.56.788-.888 1.75-.73.962.159 2.32-.069 3.016-.506.697-.437 9.022-.759 18.5-.717 20.666.093 30.701-1.452 34.568-5.319 1.408-1.408 2.23-2.889 1.827-3.293-.404-.403-10.28-1.334-21.947-2.068-27.223-1.712-27.696-1.762-30.99-3.304-3.44-1.61-3.052-3.261.84-3.578 13.77-1.122 24.605-1.08 40.436.156 23.527 1.837 24.681 2.051 26.568 4.93 2.261 3.451 3.229 3.674 22.432 5.181 9.625.755 20.875 1.791 25 2.303 4.125.511 16.05.97 26.5 1.02 16.614.079 39.013 1.37 63.25 3.643l7.25.68v3.355c0 1.96-.52 3.4-1.25 3.463-.687.06-3.275.184-5.75.277-2.475.093-5.329.647-6.341 1.233-2.151 1.242.087 2.408 8.558 4.46l4.718 1.143.32 10.639c.176 5.852.333-75.31.348-180.36.015-105.05-.138-188.637-.34-185.75-.351 5.015-.495 5.25-3.208 5.25-1.603 0-3.092-.654-3.417-1.5-.735-1.917-5.558-1.945-8.267-.047-2.671 1.871-11.993 1.315-14.542-.867-1.018-.872-2.274-1.586-2.791-1.586-.516 0-1.397-.788-1.958-1.75-.566-.971-1.033-1.194-1.05-.5-.037 1.528-3.229 1.651-4.699.181-.588-.588-1.691-1.194-2.45-1.347-.76-.152-2.687-.811-4.282-1.463-1.596-.653-3.392-1.023-3.992-.823-1.269.423-3.607-1.668-3.607-3.227 0-.589-.477-1.071-1.059-1.071s-.823-.382-.535-.849c.725-1.172-3.304-5.332-4.468-4.613-.518.321-.659 2.356-.312 4.522.601 3.758.507 3.94-2.033 3.94-1.465 0-3.749-.711-5.076-1.581-1.328-.87-3.899-1.481-5.715-1.359-1.816.122-4.551-.285-6.078-.904-4.22-1.712-7.569-2.12-7.954-.967-.221.665-2.027.464-5.058-.565-2.592-.88-6.512-1.888-8.712-2.24-2.2-.352-4-1.161-4-1.799 0-.638-1.462-1.256-3.25-1.375-1.788-.118-6.4-.653-10.25-1.188-3.85-.536-10.825-1.264-15.5-1.618-11.413-.866-11.855-.926-12.646-1.717-.378-.378-1.225-.687-1.882-.687-.658 0-7.09-5.755-14.295-12.79-11.647-11.372-13.485-13.636-16.581-20.429-1.914-4.202-4.857-9.539-6.539-11.86-1.681-2.322-3.057-5.249-3.057-6.506 0-1.257-.498-3.552-1.106-5.1-.609-1.548-1.499-6.19-1.978-10.315-.479-4.125-1.134-8.703-1.456-10.173-.721-3.293 5.008-6.784 8.2-4.998 1.541.863 1.311 1.129-1.688 1.951l-3.472.952 2.926.787c1.689.454 4.105.342 5.712-.265 2.103-.794 3.048-.735 3.856.239 3.332 4.014 10.55 1.453 11.595-4.115.648-3.452 8.136-11.931 18.069-20.459 1.013-.87 3.172-3.211 4.797-5.203 1.626-1.992 4.411-4.406 6.189-5.364 1.779-.957 2.967-2.173 2.64-2.701-.349-.566-.056-.628.716-.151.926.572 1.07.422.49-.515-.594-.962-.362-1.15.844-.687 5.057 1.941 8.834-20.768 5.91-35.539-1.709-8.633-4.445-16.673-5.6-16.454-.564.107-1.195-.705-1.403-1.805-.691-3.664-3.339-8.545-5.302-9.77-1.066-.666-1.939-1.593-1.939-2.06 0-3.775-18.988-11.596-28.29-11.653-1.926-.012-3.939-1.222-6.5-3.907-5.665-5.94-16.996-9.293-32.71-9.677-6.6-.161-13.35.072-15 .518m78.132 39.164c-.92 1.313-2.112 1.915-3.068 1.548-1.078-.414-1.564-.014-1.564 1.285 0 1.037.563 2.112 1.25 2.39 1 .403 1 .52 0 .583-2.126.134-1.378 4.191 1.138 6.169 1.313 1.033 2.671 3.01 3.019 4.394.693 2.762 3.593 3.488 3.593.899 0-1.138.608-1.457 2.055-1.079 2.015.527 4.647-3.24 4.033-5.773-.129-.534-.27-2.221-.313-3.75-.044-1.53-.43-2.781-.858-2.781s-.922-1.012-1.097-2.25c-.208-1.461-1.022-2.263-2.321-2.287-1.101-.021-2.533-.366-3.182-.767-.685-.423-1.812.172-2.685 1.419m-60.862 3.633c-1.049.237-2.169 2.037-2.843 4.572-.612 2.299-1.816 4.967-2.675 5.93-.859.963-1.244 1.75-.856 1.75s-.44 1.502-1.84 3.338c-1.401 1.836-2.319 3.566-2.041 3.844.279.278-.211 2.489-1.089 4.912-2.067 5.71-1.237 16.858 1.597 21.443 1.087 1.759 1.977 4.354 1.977 5.766 0 4.542 1.781 7.453 6.155 10.062l4.275 2.549 1.908-4.161c1.638-3.575 2.395-10.554 1.451-13.386-.159-.477.048-.98.461-1.117 1.776-.592 2.75-.149 2.75 1.25 0 .825.45 1.5 1 1.5 1.568 0 1.179-2.621-.954-6.418l-1.954-3.479 3.479.446c3.193.409 7.671 2.089 11.429 4.289 3.145 1.841 7.833 4.162 8.406 4.162 1.217 0-3.012-6.616-6.133-9.593-3.087-2.946-3.152-3.162-1.5-4.993 1.033-1.145 1.607-3.12 1.429-4.914-.67-6.753-1.056-10-1.189-10-.077 0-.285-1.463-.461-3.25-.376-3.82 1.128-4.373 2.037-.75.345 1.375 1.056 2.5 1.578 2.5.523 0 .692-.419.376-.931-.317-.512-.125-1.21.427-1.55 1.311-.811.685-4.801-.832-5.306-.649-.217-2.97.54-5.159 1.681-2.891 1.507-3.979 1.716-3.979.764 0-1.332-4.064-5.658-5.314-5.658-.378 0-.686.675-.686 1.5 0 2.66-2.777 1.597-4.931-1.888-2.607-4.219-4.089-5.363-6.299-4.864M289 169.5c-.685.825-.812 1.5-.283 1.5 1.911 0 3.283 5.243 3.283 12.547 0 6.624.209 7.453 1.878 7.453 3.819 0 5.736-5.897 4.601-14.149-1.024-7.448-6.119-11.399-9.479-7.351m3.848 52c-.231 1.1.199 2.474.956 3.053 1.156.883 1.121 1.264-.214 2.372-1.368 1.136-1.59 1.024-1.59-.803 0-3.069-1.557-2.605-3.008.898-.688 1.661-2.439 4.024-3.891 5.25-5.129 4.332-8.161 11.923-7.989 20.002l.154 7.228 6.85 4.321 6.85 4.321 4.208-3.321c6.521-5.146 11.843-10.984 11.104-12.18-.368-.596-.574-2.334-.458-3.862.26-3.414-1.346-3.581-6.306-.655-4.242 2.503-5.427 1.918-3.149-1.558 2.109-3.219 2.072-4.602-.115-4.304-3.034.413-2.874-1.458.268-3.143 1.66-.891 3.01-2.069 3-2.619-.01-.55.973-1.141 2.185-1.313 3.328-.474 4.004-4.01 1.143-5.979-1.29-.888-3.584-2.92-5.096-4.517-1.512-1.596-2.782-2.517-2.82-2.047-.039.471-.428-.044-.865-1.144l-.795-2-.422 2M.49 526.5c0 105.05.117 148.173.26 95.83.143-52.344.143-138.294 0-191-.143-52.707-.26-9.88-.26 95.17M243 455.54c0 .317 1.322 2.238 2.937 4.269 1.616 2.03 3.262 5.041 3.658 6.691.397 1.65 1.312 3.914 2.035 5.031 1.759 2.72 5 13.014 6.283 19.956 1.876 10.148 3.043 13.254 5.614 14.939 2.334 1.529 2.554 1.526 3.153-.036.402-1.045-.05-2.187-1.195-3.024-1.011-.74-1.599-1.586-1.305-1.879.844-.844 3.818.606 3.835 1.87.033 2.469 1.955-2.027 1.97-4.607.016-2.929-.876-3.459-2.718-1.617-1.586 1.586-4.267.318-4.267-2.018 0-1.072-.562-2.155-1.25-2.407-2.569-.941 1.273-3.174 5.282-3.068 4.401.115 4.799-.288 2.218-2.248-1.557-1.182-1.342-1.332 1.943-1.36 2.579-.022 4.132-.658 5.146-2.105.908-1.297 1.701-1.672 2.116-1 1.1 1.781 3.175 1.212 4.289-1.177l1.049-2.25 1.128 2.5c.996 2.21 1.066 2.012.598-1.707-.638-5.072-5.6-12.767-9.552-14.81-3.757-1.943-4.226-1.874-3.47.508.348 1.095.379 2.401.069 2.903-.796 1.287-9.817-1.592-10.867-3.468-.663-1.183-1.179-1.273-2.244-.388-1.068.886-2.021.703-4.17-.802-1.532-1.073-3.347-1.752-4.035-1.51-.822.29-1.25-.596-1.25-2.584 0-1.663-.338-3.213-.75-3.445-1.498-.84-6.25-1.72-6.25-1.157m183.542 7.838c-3.58 2.052-4.46 3.368-4.854 7.261-.308 3.04-.851 3.929-2.555 4.182-1.189.177-1.892.76-1.562 1.294.757 1.225-1.383 3.885-3.124 3.885-.719 0-1.452-1.012-1.627-2.25-.265-1.865-1.038-2.302-4.518-2.555l-4.199-.305-.301 5.805-.302 5.805-4.25.307c-2.894.21-4.25.768-4.25 1.75 0 1.126-1.614 1.443-7.353 1.443-4.045 0-10.12.289-13.5.642l-6.147.643v3.357c0 3.313.06 3.358 4.5 3.358 4.133 0 4.5-.204 4.5-2.5 0-1.558.566-2.5 1.503-2.5 1.008 0 1.456.906 1.359 2.75-.339 6.456-.64 6.25 9.138 6.25h9v4.5c0 3.333-.389 4.5-1.5 4.5-1.048 0-1.5-1.056-1.5-3.5 0-3.404-.107-3.5-3.918-3.5-2.155 0-4.574-.252-5.376-.559-.801-.308-2.731.536-4.287 1.875l-2.831 2.435 3.206.704c3.23.709 4.208 2.044 2.029 2.771-.712.237-.849.922-.347 1.735.662 1.071 1.102.969 2.182-.508 1.28-1.751 1.552-1.659 5.097 1.715 3.764 3.581 11.023 6.238 13.963 5.11 1.431-.549 13.184.861 24.018 2.881 2.88.538 5.472.937 5.76.889.289-.049 1.758.547 3.264 1.324 1.507.777 6.671 1.739 11.477 2.138 4.805.398 8.491 1.122 8.191 1.607-.301.486 2.904.883 7.12.883 6.403 0 7.571.247 7.09 1.5-.434 1.133.177 1.5 2.5 1.5s2.935-.367 2.5-1.5c-.456-1.19.314-1.5 3.731-1.5 4.569 0 4.836.503 4.796 9.023-.01 2.199 7.123 5.977 11.283 5.977 3.543 0 3.552-.011 3.552-4.5 0-2.833-.444-4.5-1.2-4.5-.933 0-.933-.267 0-1.2.66-.66 1.2-2.685 1.2-4.5 0-3.135-.187-3.303-3.75-3.363-3.454-.059-3.558-.141-1.315-1.036 1.339-.535 3.026-.746 3.75-.468 1.068.409 1.315-4.92 1.315-28.385v-28.889l-6.25-.581c-3.437-.319-10.381-.707-15.431-.862-6.988-.213-9.634-.691-11.078-1.998-2.445-2.212-37.23-2.649-37.256-.468-.011.884-.231.922-.75.128-.543-.829-1.246-.829-2.693 0M493.5 634c-.361 1.136-1.577 2.048-2.817 2.112-1.201.061-3.758.272-5.683.468-1.925.196-5.975.572-9 .835-3.025.263-6.4.567-7.5.674-1.1.107-.2.492 2 .856 8.912 1.473-11.324 2.371-24.924 1.107-13.124-1.221-32.845-.775-39.576.894-1.925.478-6.958.933-11.184 1.012-4.226.079-8.951.501-10.5.939-1.549.437-3.441.581-4.205.319-.929-.318-1.126-.049-.594.812.606.98.223 1.105-1.611.524-4.006-1.27-45.914-1.658-50.906-.471-15.57 3.7-28.73 4.743-32.285 2.558-1.307-.804-3.24-1.092-4.715-.704-2.39.629-2.315.744 1.724 2.612 2.324 1.074 4.236 2.467 4.25 3.095.037 1.618-6.873-2.052-8.656-4.598-1.992-2.845-6.838-2.885-5.318-.044.589 1.1 1.681 2 2.428 2 .747 0 1.617.675 1.934 1.5.316.825 1.102 1.5 1.746 1.5.645 0 1.698.72 2.341 1.599 1.918 2.623 8.973 3.306 29.551 2.862 12.625-.273 25.141.1 35.5 1.056 8.8.812 29.184 2.156 45.297 2.985 29.252 1.506 31.445 1.447 52.703-1.42 5.691-.767 31.541-1.987 43.75-2.065L500 657v-25h-2.933c-2.054 0-3.122.599-3.567 2" fill="#d3d3d3" fill-rule="evenodd"/></svg>