<svg xmlns="http://www.w3.org/2000/svg" width="500" height="375"><path d="M0 187.502v187.502l250.25-.252 250.25-.252.253-187.25L501.005 0H0v187.502m.49.498c0 103.125.117 145.313.26 93.75.143-51.562.143-135.937 0-187.5C.607 42.688.49 84.875.49 188M61.65 84.665c-.348 9.259-.925 27.259-1.282 40-.53 18.925-.898 23.069-2.009 22.643-.747-.287-1.359.062-1.359.776 0 3.053-3.005 53.754-3.389 57.166-.318 2.837.747 5.34 1.49 3.5.467-1.157 2.407-32.672 2.686-43.628l.213-8.378 4.2.672c6.373 1.019 6.419 1.131 5.67 13.766-.369 6.225-1.201 20.768-1.847 32.318-3.356 59.909-3.552 61.962-6.394 67.048-1.884 3.371-2.629 6.156-2.63 9.828l-.001 5.124 6.751-.5c6.061-.449 6.784-.73 7.071-2.75.24-1.693-.178-2.25-1.691-2.25-1.106 0-2.319-.499-2.697-1.109-.669-1.084.823-.978 11.417.805 2.087.351 2.886.85 2.121 1.322-.711.44.825 1.002 3.651 1.336 2.684.318 7.299.868 10.257 1.223 3.829.46 5.18.326 4.691-.466-.378-.611-1.673-1.131-2.878-1.156-1.205-.025-3.541-.703-5.191-1.507l-3-1.462 4.08.492c3.682.443 4.379.152 7.158-2.986 2.044-2.309 2.902-4.152 2.554-5.485-.461-1.76-.038-2.007 3.445-2.007 11.052 0 16.263-1.167 16.263-3.642 0-2.144-.431-2.359-4.75-2.373-6.535-.021-8.882-1.611-3.681-2.493 6.864-1.164 7.045-1.31 8.279-6.656 1.273-5.514-.183-9.836-3.315-9.836-.782 0-2.614-1.026-4.072-2.28l-2.65-2.279 3.617-7.471c4.133-8.536 10.38-14.967 16.991-17.492 5.788-2.211 8.985-1.694 9.416 1.522.493 3.686 2.165 4.953 2.165 1.641 0-1.517.427-2.495.95-2.172.522.323 1.438-.326 2.035-1.441.973-1.818 2.065-2.028 10.55-2.028 9.331 0 9.465.034 9.465 2.406 0 1.92-.407 2.3-2.015 1.88-1.547-.405-1.871-.152-1.395 1.088.341.888 1.022 1.366 1.515 1.061.492-.304.895.134.895.975 0 .947-.57 1.308-1.5.952-.936-.359-1.5.007-1.5.974 0 .852-.944 3.15-2.099 5.107L157.802 230h3.04c1.672 0 3.333.474 3.691 1.053.583.944-.978 28.712-2.058 36.593-.274 1.999.108 3.593 1.047 4.372 1.182.981 1.484.952 1.51-.146.309-13.49 2.034-51.331 2.544-55.843.545-4.813 1.035-6.029 2.431-6.029 2.552 0 4.25-2.343 2.769-3.824-.901-.901-.896-1.176.024-1.176.675 0 1.14-1.202 1.064-2.75-.117-2.358-.198-2.429-.57-.5-.824 4.279-2.295 2.228-2.51-3.5-.477-12.718 1.501-20.631 5.754-23.012 1.246-.696 1.346-1.413.508-3.618-2.496-6.565.806-11.62 7.589-11.62 2.712 0 3.365-.393 3.365-2.025 0-2.086 3.863-4.268 6.241-3.526.693.216 7.409.676 14.926 1.022 12.646.583 13.694.495 14.029-1.171.608-3.018-1.633-8.045-5.035-11.296-3.133-2.994-3.463-3.075-11.383-2.794l-8.156.29-.83 3.211c-.528 2.044-1.307 3.029-2.144 2.707-1.505-.577-1.803-3.418-.359-3.418.526 0 .378-.696-.328-1.547-1.026-1.236-1.45-1.287-2.107-.25-.62.976-.827.882-.839-.383-.008-.954-.954-1.819-2.187-2-2.823-.416-3.651-2.82-.97-2.82 2.986 0 3.367-1.445 1.128-4.29-1.627-2.069-1.986-4.059-1.986-11.001 0-9.798-.227-9.593 10.246-9.23 6.937.241 14.451 4.263 13.345 7.144-.277.722-.073 1.579.453 1.904.526.325.956-.137.956-1.027 0-.89.445-1.343.989-1.007.566.35.734-.051.393-.941-.328-.854-.098-1.552.511-1.552s1.054.338.989.75c-.333 2.105.438 2.068 3.868-.188 2.063-1.357 5.325-2.721 7.25-3.032a183.03 183.03 0 006.25-1.127c1.649-.337 2.75-.13 2.75.518 0 .593-.675 1.135-1.5 1.204-.825.069-2.062.181-2.75.25-2.332.233-4.532 50.625-2.21 50.625.722 0 .997.973.705 2.5-.279 1.459-.013 2.5.638 2.5.743 0 1.117 3.136 1.117 9.365v9.365l12.75.513c7.012.282 13.241.122 13.842-.356.601-.478 1.364-.598 1.696-.266 1.529 1.529 15.177 1.268 16.936-.324 1.633-1.478 1.776-1.474 1.776.048 0 2.295 7.515 2.36 8.393.073.853-2.224.89-2.195-2.042-1.634-1.737.332-2.419.136-1.983-.57.365-.592.207-1.358-.352-1.704-1.661-1.027-1.158-5.04.933-7.452 4.201-4.843-1.033-7.479-14.949-7.53-6.97-.026-7.522.127-7.812 2.167-.21 1.472-.803 2.006-1.801 1.623-1.165-.447-1.35-.02-.853 1.962.946 3.767-1.047 6.72-4.534 6.72-3.23 0-5-2.253-5-6.364 0-2.33-.212-2.436-3.184-1.583-1.751.502-3.285.808-3.409.68-.124-.128.025-5.971.329-12.983l.555-12.75h6.163c7.519 0 10.701 1.702 8.081 4.322-1.582 1.582-1.542 1.744.639 2.619 1.279.513 1.76.961 1.068.996-1.012.051-1.012.505 0 2.313.692 1.238 1.306 2.373 1.365 2.524.419 1.072 3.393-1.35 3.393-2.764 0-.982.971-2.031 2.171-2.345l2.171-.567-2.421-2.029c-2.076-1.739-2.207-2.181-.921-3.097 2.053-1.461 11.233-.373 12.599 1.495.604.826 1.381 1.219 1.726.874.346-.345.904.093 1.242.973.448 1.167 1.401 1.442 3.523 1.018l2.91-.582v7.625c0 6.45-.257 7.625-1.667 7.625-1.807 0-1.047 1.272.946 1.58.672.104 2.121.334 3.221.51s2.988-.225 4.196-.892c2.077-1.145 2.118-1.399.759-4.651-.911-2.182-1.075-3.664-.446-4.053.545-.336.991-.135.991.447 0 .582.498 1.059 1.107 1.059.615 0 .827-.729.477-1.641-1.337-3.485 2.382-6.799 7.416-6.608 3.609.137 12.408 1.383 13.194 1.869.574.355.776 2.179.458 4.137a10.292 10.292 0 001.108 6.623l1.677 3.12.584-4.5c.735-5.668 3.344-10.664 6.01-11.51 4.966-1.576 12.651 1.621 14.31 5.952 1.256 3.28-1.491 15.718-3.312 14.997-5.949-2.355-15.237-2.133-16.174.386-.685 1.843-14.071 7.241-15.341 6.186-1.534-1.273-2.805-.067-1.538 1.46.633.763.269 2.548-1.076 5.266-5.479 11.074-7.086 36.263-2.314 36.263 1.094 0 1.362-.588.914-2-.392-1.235-.18-2 .555-2 .87 0 .838-.424-.118-1.576-.945-1.139-.996-1.769-.185-2.271 1.98-1.224 2.859-5.455 2.79-13.438-.056-6.504.141-7.501 1.196-6.059.694.949 1.262 2.117 1.262 2.594 0 .477.391.626.87.331.478-.296.831 2.265.784 5.691-.047 3.425.124 10.171.38 14.99.544 10.234.856 10.511 9.683 8.598 6.494-1.408 14.82-1.542 23.885-.387l6.102.778.644-4.023c.61-3.819.155-8.941-1.088-12.228-.653-1.727-.627-2.717.249-9.342.846-6.389 1.828-5.142 2.059 2.617.343 11.483.34 11.468 2.432 12.015 1.1.287 2 1.041 2 1.675 0 .634-.45.875-1 .535-.55-.34-1 .084-1 .941s.402 1.559.893 1.559c1.756 0 1.992 2.972.364 4.6-1.543 1.543-1.509 1.777.493 3.398 2.088 1.691 2.094 1.766.225 2.622-1.376.629-1.664 1.296-1.011 2.34.782 1.249 1.211 1.191 2.971-.402 1.606-1.453 1.804-2.167.904-3.252-.872-1.051-.872-1.673.003-2.548.877-.877 1.158-.624 1.158 1.042 0 2.961 1.395 2.773 3.523-.476 2.39-3.648 2.087-17.239-.557-24.922-1.893-5.504-1.893-5.565.097-7.7 1.89-2.029 1.903-2.192.221-2.857-1.516-.599-1.446-.715.466-.775 2.653-.083 2.8-.663.702-2.76-1.728-1.729-1.694-1.745-3.439 1.602l-1.257 2.413-1.378-3.277c-1.858-4.419-1.77-4.912 1.105-6.222 3.516-1.602.559-3.751-5.222-3.794l-4.239-.032.531-9.25c.852-14.826 1.673-20.836 2.368-17.332.808 4.072 2.954 4.458 3.712.668.735-3.676 3.367-4.18 3.367-.645 0 1.343.45 2.719 1 3.059.595.368 1-.823 1-2.941 0-2.497.448-3.559 1.5-3.559 1.144 0 1.5 1.253 1.5 5.276v5.277l3.914-.373 3.914-.374.489-10.653c1.594-34.711 2.768-51.551 3.672-52.64 1.206-1.453 2.241-1.329-46.133-5.531-18.896-1.641-42.681-3.879-52.856-4.972-10.175-1.094-28.214-2.889-40.087-3.99-25.194-2.335-28.533-2.679-77.413-7.959-44.229-4.778-62.778-6.655-79.5-8.046-6.875-.572-13.899-1.297-15.608-1.612l-3.108-.572-.634 16.834M108 143.941c0 1.068.365 2.166.811 2.442.446.276.656 7.21.468 15.41l-.343 14.908 7.683.65c4.226.357 10.357.649 13.627.649h5.943l-.282-11.25c-.155-6.187.078-13.993.517-17.345l.799-6.095-6.861-.648c-14.271-1.347-22.362-.885-22.362 1.279m323.858 3.609c-.47 6.425-.773 9.536-1.408 14.45-.391 3.025-.618 8.401-.505 11.946.275 8.557-1.031 29.99-1.821 29.894-2.005-.246-3.124.338-3.124 1.629 0 .807-.562 1.253-1.25.989-.812-.311-1.19-2.313-1.079-5.718.093-2.882-.045-4.268-.308-3.079-.441 1.991-.685 2.054-3.099.801-1.441-.748-2.994-1.129-3.449-.847-.456.281-1.099-.192-1.429-1.052-2.341-6.1-22.613 3.868-21.552 10.598.144.914-.193 1.943-.748 2.286-2.352 1.453 2.74 8.422 10.952 14.991 1.333 1.065 4.894 2.324 7.913 2.798 3.02.474 5.779 1.328 6.132 1.898.352.57 1.04.984 1.529.92.488-.064 1.033 1.051 1.211 2.478l.322 2.595-9.748-.672c-5.362-.37-16.518-2.189-24.793-4.044-8.274-1.854-15.309-3.043-15.633-2.641-.324.401-1.41 5.005-2.415 10.23-1.004 5.225-2.89 11.623-4.191 14.217-1.301 2.594-2.365 4.956-2.365 5.25 0 1.049 2.841.51 3.214-.61.282-.846.973-.827 2.654.072 1.947 1.042 2.529.92 4.069-.856 2.269-2.616 4.406-2.73 3.601-.191-.38 1.195-.031 2.099.957 2.478 1.098.421 1.368 1.336.921 3.118-.354 1.412-.201 2.522.348 2.522.539 0 1.32-1.913 1.735-4.25.624-3.51.864-3.85 1.378-1.956.563 2.074.81 2.158 2.563.875 2.05-1.501 4.848-1.067 9.649 1.495l2.59 1.382-1.791 8.477c-2.246 10.627-2.281 16.021-.041 6.303.909-3.946 1.897-7.415 2.195-7.709.298-.294 3.898.531 8 1.834 4.591 1.458 7.878 2.022 8.55 1.467.601-.495 1.349-.644 1.663-.33.313.314 1.086-2.053 1.717-5.259 2.201-11.193 4.2-19.846 5.111-22.126.504-1.263.953-3.963.996-6 .043-2.037.306-3.14.583-2.453.895 2.217 2.335 1.33 2.438-1.5l.099-2.75.748 2.5.748 2.5.516-2.5c.284-1.375.578 4.111.653 12.191.079 8.561.553 14.949 1.136 15.309.55.34 1.006.479 1.013.309.007-.17.672-7.284 1.478-15.809 2.077-21.979 4.082-97.827 2.624-99.285-.82-.82-1.153-.599-1.257.835m-14.525 7.501c-4.402 2.193-5.408 3.564-4.837 6.591.193 1.022.385 2.368.427 2.991.099 1.455 4.077 2.535 4.077 1.107 0-.59.304-.769.676-.398.372.372 1.745-.329 3.052-1.557 2.022-1.899 2.523-2.013 3.35-.759.671 1.017.851-.233.579-4.026-.461-6.43-1.366-6.918-7.324-3.949M265.25 192.74c-4.635.264-6.25.731-6.25 1.808 0 1.129 1.534 1.452 6.902 1.452h6.902l.557 5.75c.306 3.162.688 18.8.848 34.75l.291 29-15.5 1.139c-18.949 1.391-22.079 1.871-23.11 3.539-.643 1.04-1.06 1.052-2.048.064-1.82-1.82-2.342-1.539-2.342 1.258 0 1.393.579 2.5 1.309 2.5.72 0 1.031-.45.691-1-.34-.55.11-1 1-1s1.336.456.992 1.013c-.411.665 1.717.835 6.191.494 3.749-.286 14.901-.989 24.782-1.562 9.881-.573 18.073-1.149 18.203-1.28.565-.565-2.463-76.524-3.091-77.54-.673-1.09-2.966-1.144-16.327-.385m-89.815 1.155c.305.493-.119 1.153-.941 1.469-.822.315-1.487 1.375-1.479 2.355.012 1.357.217 1.464.861.447 1.605-2.531 1.867 1.017 2.045 27.67.202 30.245-.218 35.161-2.941 34.449-1.532-.401-1.927.308-2.435 4.368-.334 2.666-1.207 6.014-1.94 7.441-1.637 3.186.415 5.007 4.715 4.185 2.446-.467 2.68-.238 2.68 2.623 0 2.85.229 3.079 2.511 2.506 2.067-.519 2.398-.334 1.867 1.048-1.025 2.673 1.743 6.608 5.786 8.226 2.047.819 3.86 2.133 4.029 2.919.252 1.172.959 1.079 3.929-.519 3.259-1.754 3.836-1.8 5.75-.459 1.922 1.346 2.128 1.325 2.128-.221 0-1.61.112-1.611 1.873-.017 1.775 1.606 1.911 1.575 2.609-.595 1.142-3.552 1.641-12.775.549-10.142-1.359 3.275-2.623 3.544-3.863.821-1.197-2.626-3.075-3.162-4.852-1.385-1.532 1.532-13.316 2.506-13.316 1.1 0-1.046 2.313-1.646 10-2.597 1.925-.238-1.042-.245-6.594-.015l-10.094.418-.656-15.154c-.361-8.335-.656-27.907-.656-43.495 0-19.28-.339-28.341-1.059-28.341-.582 0-.81.403-.506.895m6.712 49.823l-.247 34.428 8.3-.718c16.03-1.388 18.094-1.802 18.369-3.689.375-2.567-2.258-3.459-9.303-3.151-3.429.149-6.461-.095-6.738-.543-.277-.448-.56-10.429-.629-22.18-.095-16.027-.464-21.905-1.476-23.525-.743-1.188-1.175-3.55-.96-5.25.278-2.193-.023-3.09-1.036-3.09-.785 0-1.427-.689-1.427-1.531 0-.843-.713-1.805-1.584-2.14-1.118-.428-1.24-.82-.415-1.329.781-.483.542-.886-.719-1.216-1.819-.476-1.896.748-2.135 33.934m105.582 2.381l.48 26.598-12.855 1.069-12.854 1.068 12.904-.404c7.097-.222 13.136-.637 13.421-.921.284-.285.415-3.035.291-6.113-.165-4.06.194-5.91 1.306-6.745 1.854-1.393 2.606-8.091.911-8.127-1.867-.039-2.841-1.524-1-1.524.917 0 1.667-.436 1.667-.969 0-.532-.675-.709-1.5-.393-1.898.729-1.647 2.249-2.507-15.138-.523-10.557-.601-7.121-.264 11.599M77.677 227.875c-.373 1.856-.677 11.272-.677 20.924v17.55L79.5 264c1.375-1.292 2.5-1.847 2.5-1.233 0 .613-.448 1.392-.995 1.73-.547.338-1.473 1.509-2.058 2.603-.992 1.852-.771 1.974 3.244 1.782 4.839-.231 6.519-.825 4.995-1.767-1.539-.951-2.632-6.115-1.294-6.115.609 0 1.115.563 1.123 1.25.011.848.358.767 1.079-.25.83-1.172.967-.9.623 1.25-.242 1.512-.052 2.75.422 2.75.473 0 .861-.9.861-2s.48-2 1.067-2 .81-.811.496-1.802c-.315-.992.09-2.679.901-3.75.868-1.149 1.485-1.423 1.504-.668.022.878 1.278.565 4.006-1 3.353-1.924 4.288-2.085 5.986-1.03 3.592 2.231 4.443.296 1.139-2.59-1.046-.913-2.899-4.749-4.12-8.525-1.542-4.772-2.482-6.449-3.084-5.5-.658 1.039-.887.888-.959-.635-.051-1.1-.308-1.476-.57-.836-.261.641.487 4.335 1.664 8.209 1.177 3.874 1.876 7.47 1.554 7.991-1.164 1.884-4.472-.077-5.122-3.036-.421-1.919-1.126-2.787-1.992-2.455-.738.283-1.522-.023-1.743-.679-.3-.891-.818-.85-2.044.162-1.847 1.524-1.724 6.883.184 8.062.827.511.494 1.515-1.129 3.403-3.012 3.506-3.432 3.394-4.029-1.071-1.678-12.557-3.823-26.168-4.532-28.75l-.824-3-.676 3.375m243.073 31.883c-1.512.938-2.75 2.051-2.75 2.474 0 .422-.675.768-1.5.768s-1.5.478-1.5 1.063c0 .584-.788.983-1.75.885-3.004-.306-3.533.007-2.374 1.403.617.743 1.22 2.543 1.341 4 .127 1.54.861 2.709 1.751 2.791.843.079 3.107.268 5.032.42 6.333.502 14.957 2.682 16.111 4.072.624.751 1.844 1.366 2.711 1.366 1.91 0 .511 1.637-2.876 3.366-2.728 1.392-2.721 3.025.014 3.454 2.651.415 2.675 3.77.038 5.181-1.101.589-5.826 1.565-10.5 2.169-9.953 1.284-12.01 3.644-3.248 3.726 19.747.184 21.549.313 16.25 1.155-6.621 1.052 23.624.307 42-1.035 18.539-1.354 33.73-2.913 34.34-3.523.869-.868-9.822-.504-29.34 1-19.58 1.509-28.167 1.841-27.384 1.057.4-.399 5.765-1.221 9.884-1.514 2.064-.147-2.955-2.955-5.364-3.001-4.202-.079-21.733-6.338-20.686-7.385.577-.577 1.05-1.83 1.05-2.783 0-1.569 3.399-3.554 5.25-3.065.413.109.75-.646.75-1.677 0-1.031.268-3.216.596-4.856.478-2.391-.011-3.672-2.477-6.481-3.429-3.905-3.202-4.756 1.298-4.858 5.206-.119 7.855-1.776 2.973-1.86-6.11-.104-13.42 1.073-12.808 2.063.295.477-.336.867-1.401.867s-3.639.711-5.721 1.581c-2.395 1.001-5.018 1.349-7.149.949-4.079-.765-3.574-2.071 1.143-2.955 1.912-.359 3.743-1.085 4.07-1.614.999-1.616-4.849-1.016-7.774.797m-180.346 1.007c-.603.404-1.402 1.984-1.775 3.51-.374 1.527-1.568 3.552-2.654 4.5L132 272.25c-1.1.962-2.429 1.75-2.953 1.75s-1.681 1.534-2.571 3.409c-.89 1.875-2.486 4.195-3.547 5.155s-1.929 2.55-1.929 3.532c0 .982-.45 2.064-1 2.404-3.009 1.86-.119 2.04 6.182.386 3.951-1.037 9.964-1.886 13.364-1.886 5.302 0 6.546-.365 8.747-2.566 2.453-2.453 2.611-2.482 3.585-.662.561 1.048.772 2.849.47 4.004-.875 3.347 2.082 6.378 6.358 6.518.663.022 1.013.352.776.735-.367.594 1.287.627 4.887.099.477-.071-.535-1.563-2.25-3.318-4.393-4.493-3.879-5.58.863-1.824 3.591 2.844 6.988 3.393 5.434.878-.341-.551.161-.856 1.12-.681 2.499.456 2.776-3.243.409-5.449-2.409-2.245-2.469-3.467-.195-3.989 1.134-.26-.361-1.36-4.25-3.127-3.3-1.5-7.159-3.836-8.575-5.192-4.906-4.696-12.406-4.983-11.215-.428.831 3.178-.672 2.323-2.167-1.234-.92-2.188-1.052-3.812-.409-5.015.695-1.297.552-1.932-.528-2.347-.814-.312-1.235-1.205-.936-1.985.609-1.586.337-1.726-1.266-.652m-6.951 29.311c-.344.556-.072 1.678.603 2.492 1.864 2.245.57 2.7-3.884 1.366-7.517-2.253-9.196 1.084-2.526 5.02 4.284 2.527 9.354 2.752 9.354.413 0-.898.969-2.473 2.153-3.5 1.184-1.027 1.747-1.874 1.25-1.882-.497-.009-.325-.382.381-.83.706-.448 1.023-1.494.704-2.325-.663-1.728-7.062-2.329-8.035-.754m-24.587 10.391c-.257.257-5.567 1.781-11.799 3.386l-11.333 2.918 6.526 3.115c4.459 2.128 8.223 3.169 11.883 3.287l5.357.172-6.5.655-6.5.655 7.25.172c6.544.156 9.293-.836 6-2.165-.687-.277.1-.538 1.75-.58 3.727-.094 17.5-4.11 17.5-5.102 0-1.412-19.067-7.579-20.134-6.513" fill="#d3d3d3" fill-rule="evenodd"/></svg>