<svg xmlns="http://www.w3.org/2000/svg" width="500" height="739"><path d="M35 195c-4.675.345-7.788.711-6.917.814.871.102 1.584.861 1.584 1.686 0 1.817-1.326 1.987-1.947.25-1.154-3.227-1.839 16.608-1.544 44.759l.324 31.01L31 278.1c2.475 2.52 5.4 5.089 6.5 5.71 2.735 1.544-.692 1.693-3.566.155-1.064-.57-1.934-.639-1.934-.155 0 1.557 3.837 4.409 4.98 3.702.609-.376 2.626.476 4.483 1.892 1.858 1.417 6.001 4.005 9.207 5.751 3.207 1.746 6.055 3.482 6.33 3.858 1.032 1.412 9.698 5.729 15 7.473 3.025.995 5.725 2.087 6 2.427 1.236 1.527 14.14 7.528 21.768 10.122 4.617 1.571 8.994 3.353 9.726 3.96 2.594 2.153 9.655 1.667 11.277-.777 1.486-2.238 7.229-3.238 7.229-1.258 0 .527 1.151 2.026 2.557 3.33 2.273 2.107 2.384 2.514 1 3.663-.856.71-1.589.899-1.627.419-.115-1.425-1.783 2.974-1.86 4.904-.065 1.652.139 1.667 2.93.224 1.65-.853 3.007-2.102 3.015-2.776.01-.808.327-.732.932.224.718 1.135 1.062.865 1.593-1.25.849-3.384 2.227-3.489 2.644-.203.308 2.429.394 2.455 3.25.964 1.614-.842 3.579-1.284 4.366-.982 1.169.448 1.307-.279.753-3.972-.749-4.997 2.178-10.929 4.882-9.892.749.288 1.673.021 2.053-.593.504-.816 1.07-.802 2.101.054 2.134 1.771 1.697 4.556-1.055 6.721-1.356 1.067-2.181 2.224-1.833 2.572.348.348-.028.633-.834.633-1.024 0-1.467 1.113-1.467 3.683 0 2.026-.449 3.833-.997 4.016-.549.183-.816 1.893-.593 3.801.475 4.069-.728 4.825-11.081 6.955-3.261.67-4.11.437-6.274-1.727-1.376-1.376-4.517-3.01-6.979-3.63-2.462-.62-4.483-1.683-4.491-2.362-.012-.906-.241-.88-.861.098-.681 1.074-.964 1.025-1.453-.25-.754-1.964-3.546-1.993-6.096-.064-1.594 1.206-1.734 1.846-.813 3.718 2.344 4.767 2.492 6.762.502 6.762-1.029 0-4.243 1.182-7.141 2.626-3.908 1.947-5.562 2.335-6.397 1.5-1.457-1.457-4.056-1.468-3.157-.014.888 1.437-1.378 2.853-4.596 2.873-1.391.008-3.416.635-4.5 1.393-1.085.758-2.885 1.32-4 1.25-2.915-.184-12.473-6.562-12.473-8.322 0-.817-.92-2.233-2.043-3.146-1.434-1.164-2.315-3.586-2.952-8.107-1.058-7.509-3.102-10.686-8.562-13.312-2.169-1.043-4.618-2.245-5.443-2.671-.825-.426-1.644-1.742-1.82-2.925-.176-1.182-1.976-3.386-4-4.897-2.024-1.511-4.226-3.475-4.893-4.364-.691-.921-2.306-1.497-3.75-1.339-1.395.154-2.537-.131-2.537-.633s.435-.912.966-.912c1.043 0-2.728-7.055-4.374-8.184-.548-.376-1.355-.462-1.794-.191-.439.271-.798-.01-.798-.625s-.437-.848-.971-.518c-2.261 1.398-.375 10.406 2.875 13.731 4.963 5.076 14.335 22 13.455 24.295-.661 1.721 1.555 9.373 5.065 17.492 7.038 16.281 7.866 18.943 6.442 20.716-5.504 6.853-14.109 13.943-20.848 17.177L26.5 392.5l-.297 7.403c-.279 6.963 1.212 11.88 2.519 8.305.352-.961.815-1.007 1.811-.18 1.475 1.224 5.467-.283 5.467-2.063 0-.531.9-.965 2-.965 1.296 0 2-.667 2-1.893 0-1.041.675-2.152 1.5-2.469.825-.316 1.5-1.489 1.5-2.607 0-1.507.654-2.031 2.532-2.031 2.501 0 5.327-4.082 3.346-4.833-1.716-.652-.847-1.972.984-1.493 1.137.297 2.986-.561 4.75-2.204 3.939-3.671 5.84-4.223 13.388-3.893 5.109.224 6.573.641 6.841 1.947.243 1.181.965 1.483 2.5 1.045 6.334-1.81 7.922-1.85 8.835-.219 1.518 2.712 3.265 1.935 8.648-3.85 2.816-3.025 5.77-5.5 6.566-5.5.796 0 2.167-.276 3.047-.614 1.359-.522 1.449-.216.593 2.036-1.294 3.402.307 4.135 5.023 2.298 1.896-.738 5.181-1.219 7.3-1.068 3.038.216 3.955-.115 4.335-1.565.757-2.896 8.482-6.087 14.737-6.087 2.382 0 5.946-.675 7.921-1.5 1.974-.825 4.903-1.5 6.507-1.5 1.605 0 5.261-.757 8.126-1.682 4.19-1.353 5.589-1.445 7.155-.466 2.223 1.388 4.021.716 3.277-1.224-.276-.719.189-1.881 1.032-2.581.844-.701 1.266-1.708.938-2.239-1.052-1.703 1.791-9.707 4.36-12.277 2.01-2.009 2.337-3.018 1.705-5.259-.431-1.524-.82-3.084-.864-3.465-.045-.381-1.12-1.66-2.389-2.842-2.601-2.423-2.584-5.702.038-7.346 1.321-.828 3.384-.523 8.7 1.287 4.561 1.553 8.15 2.18 10.391 1.817 2.388-.388 4.38.026 6.585 1.367 3.716 2.259 9.989 1.742 14.154-1.168 1.409-.984 3.842-2.111 5.408-2.504 2.68-.672 2.738-.794.984-2.076-2.336-1.708-.852-3.303 4.872-5.235 4.53-1.529 5.658-.929 2.821 1.5-2.496 2.137-1.79 3.808.983 2.324 1.66-.889 2.43-.62 4.44 1.549 3.321 3.584 3.123 4.535-2.185 10.438-6.144 6.833-12.354 10.467-16.379 9.583-2.121-.466-4.337-.034-7.375 1.436-2.388 1.156-6.436 2.267-8.996 2.469-2.56.201-5.213.798-5.894 1.325-.682.527-2.027 1.239-2.99 1.582-2.035.726-2.305 3.724-.5 5.554 2.276 2.308-1.882 4.42-4.86 2.469-1.306-.856-3.053-1.296-3.882-.977-1.822.699-2.005 5.204-.258 6.326.805.517.009.982-2.239 1.309-5.849.849-5.169 3.589 1.662 6.699 11.627 5.293 14.628 8.39 10.577 10.918-1.819 1.135-5.497.427-5.265-1.013.161-1.002-4.649-3.598-6.666-3.598-2.344 0-8.172 4.962-8.509 7.245-.171 1.154-.92 2.299-1.665 2.545-1.038.342-1.195-.286-.671-2.672.595-2.711.413-3.118-1.395-3.118-1.475 0-2.079.639-2.079 2.2 0 3.011-1.59 1.084-2.314-2.804-.318-1.707-.113-3.569.455-4.137.711-.711.692-1.244-.061-1.71-.602-.371-1.364.028-1.694.888-.378.985-1.833 1.563-3.934 1.563-1.834 0-3.591.415-3.904.923-.314.508-1.866 1.208-3.449 1.555-1.583.348-4.329 2.227-6.103 4.176-1.773 1.949-4.86 4.225-6.86 5.057-2 .833-3.925 1.974-4.279 2.537-.896 1.427-5.857.019-5.857-1.662 0-1.051-1.919-1.389-8.114-1.43-5.871-.038-8.589-.482-9.829-1.604-2.691-2.436-3.897-1.861-5.046 2.406-1.157 4.298-2.803 5.996-3.975 4.1-.48-.777-1.338.058-2.436 2.371-.931 1.964-2.074 3.571-2.539 3.571-.464 0-1.118 1.09-1.452 2.423-.854 3.4-5.612 8.79-7.216 8.174-1.777-.682-9.913 3.963-8.487 4.845.602.372 1.094 1.561 1.094 2.642 0 2.533-4.754 4.532-7.188 3.023-2.033-1.26-5.335-.302-15.312 4.443-9.152 4.352-14.321 5.432-22.656 4.734L26 434.71v11.52c0 13.212.673 17.77 2.625 17.77 1.777 0 1.74.778-.125 2.643-1.215 1.215-1.5 4.714-1.5 18.428V502h193.865l.7-2.203c.817-2.575 2.838-4.797 4.364-4.797.589 0 1.071-.45 1.071-1s.652-1 1.448-1c.797 0 2.663-1.125 4.147-2.5 1.483-1.375 3.194-2.515 3.801-2.533 3.833-.116 5.559-3.719 6.05-12.626.269-4.881.227-9.874-.092-11.097l-.582-2.224-1.959 2.49c-1.077 1.37-2.798 2.49-3.825 2.49-1.026 0-3.907 1.766-6.4 3.924-2.494 2.158-5.334 4.144-6.311 4.413-2.691.74-9.601 2.056-11.128 2.12-.743.031-2.768 1.477-4.5 3.214-1.732 1.737-4.274 3.309-5.649 3.494-1.719.23-2.502.96-2.505 2.335-.004 1.318-.687 2.013-2.002 2.037-2.519.047-4.682 1.348-4.021 2.418.713 1.154-2.902 1.943-4.585 1.001-2.028-1.134-16.549-3.023-18.245-2.372-.792.304-1.737.072-2.1-.516-.363-.587-1.646-1.075-2.851-1.083-1.205-.009-2.837-.424-3.627-.924-2.185-1.383.491-4.061 4.058-4.061 1.583 0 2.878-.45 2.878-1s-.45-1-1-1-1-.9-1-2c0-1.313.667-2 1.941-2 1.068 0 2.207-.43 2.532-.956.325-.526 1.27-.696 2.1-.378.92.353 1.395.076 1.218-.709-.172-.762 1.128-1.596 3.182-2.042 1.91-.415 3.635-1.24 3.833-1.834.199-.595.792-1.081 1.319-1.081.527 0 1.833-.814 2.901-1.809 1.068-.995 4.536-2.835 7.708-4.088 3.171-1.253 6.666-2.66 7.766-3.128 1.1-.467 3.087-1.157 4.415-1.532 1.329-.375 3.487-1.754 4.796-3.063 1.408-1.408 3.688-2.438 5.584-2.522 7.538-.335 9.958-.769 11.534-2.067.919-.758 2.909-1.996 4.421-2.753 1.513-.757 2.75-1.75 2.75-2.207 0-.457.625-.831 1.389-.831 4.211 0 5.493-3.137 6.192-15.144.373-6.404.371-13.688-.003-16.186l-.681-4.542-3.544 2.091c-4.537 2.677-6.993.472-2.536-2.277 5.597-3.453 6.347-5.135 6.292-14.109-.028-4.583-.059-28.47-.069-53.083-.016-39.246-.204-44.75-1.529-44.75-.831 0-1.511-.488-1.511-1.083 0-.596-.563-.877-1.25-.625s-1.137.964-1 1.583c.138.619-.65 1.125-1.75 1.125-2.368 0-2.705 2.792-.443 3.66.883.339 1.309 1.247.983 2.096-.316.824-.066 2.11.555 2.859.867 1.044.755 1.481-.482 1.873-.887.282-2.317.734-3.176 1.005-.86.271-1.276.959-.924 1.528.904 1.462-3.612 5.005-6.013 4.718-1.509-.18-2.069-1.099-2.282-3.739-.212-2.632-.03-3.128.735-2 .559.825 1.058 1.275 1.108 1 .051-.275.243-1.288.427-2.25.223-1.162-.293-1.75-1.536-1.75-1.029 0-3.003-1.22-4.386-2.712-2.409-2.598-2.488-3.08-1.89-11.5.448-6.317.3-8.788-.526-8.788-.633 0-1.15.45-1.15 1 0 2.72-2.905.668-3.187-2.25-.284-2.948-2.295-3.874-2.326-1.071-.007.649-.344 1.512-.75 1.917-.405.406-.751 1.9-.769 3.321-.017 1.42-.705 3.474-1.529 4.564-.976 1.292-1.274 2.993-.856 4.895.567 2.582.405 2.854-1.415 2.378-2.529-.661-5.326 2.179-5.725 5.812-.157 1.436-.434 2.683-.615 2.772-.18.089-1.903 1.02-3.828 2.068-9.505 5.178-10.59 5.504-16.599 4.997-3.246-.274-6.689-.504-7.653-.512-1.285-.011-1.543-.465-.969-1.703.431-.928.769-3.375.752-5.438-.017-2.062.355-3.75.826-3.75s.603-.661.294-1.468c-.31-.807-.133-1.734.393-2.059.526-.325.956.144.956 1.041 0 1.017.66 1.505 1.75 1.296 1.555-.3 1.822-1.235 1.375-4.81-.069-.55-1.044-1-2.167-1-1.123 0-3.008-.9-4.188-2-1.181-1.1-1.612-2-.959-2 .654 0 1.189-.48 1.189-1.066 0-.657-1.729-.912-4.5-.664-2.475.221-4.5.019-4.5-.449 0-.469-2.363-.765-5.25-.658-4.22.155-5.992-.318-9.033-2.413-2.081-1.433-4.278-2.77-4.882-2.972-1.397-.465 1.49-6.305 3.498-7.076 2.646-1.015 6.664-10.58 5.609-13.354-5.128-13.489-19.043-17.075-30.184-7.778-3.449 2.877-10.776 2.632-14.104-.472-11.84-11.045-12.915-12.405-15.687-19.848-1.16-3.116-1.432-3.25-6.613-3.25-4.735 0-5.513-.288-6.288-2.325-.486-1.279-2.05-3.089-3.475-4.023-4.72-3.093-2.557-11.063 3.409-12.565 8.126-2.046 9.523-2.001 13.549.432 2.173 1.313 5.869 3.361 8.214 4.55 2.344 1.19 4.508 2.561 4.809 3.047.882 1.428 3.428 1.013 3.428-.56 0-1.997-11.77-13.816-13.002-13.055-.549.339-1.034-.197-1.077-1.192-.046-1.049-.291-1.284-.583-.559-.643 1.592-2.338 1.632-2.338.055 0-.658-1.22-2.469-2.71-4.024-2.426-2.532-2.592-3.142-1.587-5.805L87.826 194l-22.163.186c-12.19.103-25.988.469-30.663.814m74.563-.102c-.305.494-.266 4.319.088 8.5.613 7.258 1.049 8.073 4.099 7.677.688-.09 1.25.747 1.25 1.858 0 2.805 3.347 4.723 12.583 7.21 10.459 2.817 27.005 3.141 28.888.566.764-1.046 2.602-1.709 4.733-1.709 3.145 0 13.189-2.889 15.927-4.581 2.064-1.275 12.296-1.529 14.482-.358 1.813.97 2.511.815 4.277-.951 1.16-1.16 2.973-2.11 4.028-2.11 1.055 0 4.291-2.025 7.191-4.5 2.899-2.475 5.625-4.5 6.058-4.5.433 0 1.535-1.142 2.45-2.538 3.508-5.355 3.106-5.395-53.808-5.43-29.5-.018-51.929.353-52.246.866m113.974 2.352c.915 4.268 1.1 4.389 3.457 2.256 1.959-1.774 2.006-1.755 2.006.78 0 2.849-1.469 4.381-2.54 2.649-.395-.638-1.782-.825-3.319-.445-2.129.525-2.399.405-1.391-.619 1.707-1.736 1.573-2.932-.25-2.233-.825.317-1.5 1.338-1.5 2.269s-.532 2.226-1.183 2.876c-1.521 1.521-.276 2.83 1.409 1.483.732-.586 2.124-.676 3.274-.213 1.1.444 1.452.838.781.877-.67.038-.957.751-.638 1.583.32.832.025 2.182-.654 3-1.502 1.811-4.635 1.95-5.327.237-.301-.747-.536-.545-.583.5-.043.963-.824 1.75-1.735 1.75-2.347 0-8.344 4.796-8.344 6.673 0 1.21-.313 1.312-1.356.447-2.048-1.7-7.105-1.988-9.113-.519-2.361 1.727-1.245 4.819 1.481 4.106 3.001-.785 2.384 1.179-.762 2.427-1.512.599-4.884 2.165-7.493 3.478-2.608 1.313-5.844 2.388-7.191 2.388-2.179 0-4.34 1.568-3.416 2.478.192.19 2.747-.092 5.676-.626 3.63-.661 5.73-.636 6.592.08.696.578 1.551.765 1.9.417.348-.349 1.303-.079 2.121.6 1.575 1.307 2.513.983 10.644-3.675 3.147-1.803 4.216-1.927 8.793-1.022 7.64 1.51 10.124.134 10.124-5.608 0-5.059.877-6.03 7.65-8.47 9.631-3.469 9.35-3.057 9.35-13.709V194h-19.159l.696 3.25m-76.535 32.965c-2.515.56-6.084 2.386-8.094 4.143-6.342 5.543-7.9 6.642-9.419 6.642-.819 0-1.489.513-1.489 1.14 0 .627-.787 1.715-1.748 2.418-.962.703-1.423 1.604-1.025 2.003.399.398 1.416.151 2.26-.55 1.254-1.041 2.337-.968 5.91.396 6.032 2.304 11.165 1.85 12.512-1.107.783-1.719.738-2.31-.18-2.34-.676-.022.009-.711 1.521-1.532 1.512-.821 2.757-1.815 2.765-2.21.062-2.911 1.744-3.241 8.874-1.741 3.983.837 7.463 1.523 7.733 1.523 2.084 0-3.16-4.407-5.351-4.497-9.078-.371-9.023-.352-8.516-3.003.263-1.375.088-2.452-.388-2.393-.477.059-2.891.558-5.365 1.108m229.697 9.955c-5.274.701-21.148 6.468-42.199 15.332-4.4 1.852-9.281 3.682-10.848 4.066-3.052.748-6.397 3.843-16.652 15.412-3.575 4.032-7.758 8.479-9.296 9.882-1.538 1.403-3.746 4.145-4.907 6.094-1.161 1.949-3.358 4.894-4.881 6.544-1.524 1.65-4.641 6.316-6.928 10.368-7.086 12.56-6.464 21.78 1.739 25.789 3.174 1.551 3.874 2.477 4.415 5.843.824 5.131.707 5.274-4.915 5.967-12.156 1.5-32.15 4.867-33.369 5.621-1.431.884-2.194 91.677-1.115 132.662l.48 18.25H473l.145-59.75c.164-67.372-.042-90.902-.818-93.614-.43-1.5-1.195-1.757-3.912-1.316-1.858.302-3.643.119-3.967-.405-.324-.524-2.245-.904-4.269-.844-2.023.059-5.704-.149-8.179-.463-2.475-.314-9.9-1.083-16.5-1.709-6.6-.626-13.719-1.311-15.821-1.522C409.098 341.313 395 319.855 395 304.814c0-.287 2.713-.368 6.029-.18 5.568.315 6.099.16 6.928-2.022.862-2.265 12.495-14.139 16.824-17.171 5.05-3.537 4.942-18.135-.21-28.3-3.042-6.004-6.304-8.446-13.571-10.16-3.025-.713-6.645-2.142-8.045-3.175-5.504-4.063-14.091-5.252-26.256-3.636m-144.637 13.411l-3.338 3.414 2.638 2.075c1.451 1.141 2.638 2.717 2.638 3.503 0 .785.433 1.427.961 1.427 1.053 0 3.061 6.597 2.739 9-.212 1.587.366 2 2.8 2 1.247 0 1.5-1.956 1.5-11.607 0-9.479-.254-11.51-1.385-11.075-.762.292-2.247-.072-3.3-.81-1.704-1.193-2.282-.965-5.253 2.073m-18.419 160.93c.415 1.082.121 1.336-1.032.893-1.077-.413-1.611-.075-1.611 1.02 0 .902-.562 1.802-1.25 2.001-.687.199-4.284 1.134-7.992 2.078-3.708.943-6.488 2.125-6.178 2.627.567.916-5.401 3.874-7.798 3.865-.705-.003.068-1.13 1.718-2.505l3-2.501-3 .423c-1.65.233-4.022.461-5.271.506-1.404.051-2.707 1.037-3.411 2.582-1.51 3.313-8.307 3.685-9.315.509-.348-1.095-.371-2.414-.051-2.931.319-.517.17-1.193-.331-1.503-.501-.31-1.169.109-1.485.931-.315.822-1.487 1.494-2.605 1.494-1.139 0-2.031.659-2.031 1.5 0 .825.436 1.5.969 1.5.532 0 .709.675.393 1.5-.317.825-1.203 1.5-1.969 1.5s-1.393-.675-1.393-1.5-.675-1.5-1.5-1.5-1.5.439-1.5.975c0 .561-1.344.706-3.168.341-2.654-.53-3.066-.369-2.544.993.344.895.187 1.897-.348 2.228-.535.331-.732.991-.437 1.467.294.477-.936 1.008-2.734 1.181-2.112.204-3.168.794-2.984 1.669.434 2.064-.815 5.246-1.816 4.627-1.538-.951-4.969 1.907-4.969 4.138v2.138l6.207-2.128c3.414-1.171 7.322-3.158 8.685-4.415 1.363-1.257 3.07-2.059 3.793-1.781.723.277 1.315.099 1.315-.397s1.012-1.21 2.25-1.587 2.925-1.241 3.75-1.919c.899-.74 4.677-1.25 9.434-1.274 5.655-.028 8.241-.448 9-1.461.586-.782 3.316-1.998 6.066-2.701 6.044-1.547 8.229-2.412 16-6.335 8.084-4.081 10.245-6.156 8.545-8.204-1.649-1.988-3.159-2.015-2.402-.044m20.345 24.898c-2.147 1.483-7.908 3.413-14.988 5.021-10.521 2.391-18.879 5.039-24.773 7.849-2.998 1.429-8.894 6.721-7.489 6.721.604 0 1.715.237 2.469.526 1.293.496 10.909-5.089 11.626-6.753.184-.425.859-.776 1.5-.779.642-.004 2.451-.676 4.021-1.495 1.57-.819 3.209-1.269 3.642-1.002.892.552 10.207-2.6 11.059-3.741.306-.409 2.556-1.14 5-1.624 6.121-1.213 9.115-2.536 11.35-5.017 2.542-2.822.89-2.68-3.417.294M126 444.738c-1.925.23-4.175 1.016-5 1.747-.825.731-3.3 1.822-5.5 2.424-5.184 1.418-15.233 8.919-15.995 11.938-.482 1.913-1.049 2.233-3.055 1.73-1.355-.34-2.407-.272-2.339.152.395 2.428-.3 4.271-1.611 4.271-.884 0-1.506-.923-1.515-2.25-.016-2.338-1.837-6.007-2.11-4.25-.973 6.273-.515 8.171 2.273 9.405 3.471 1.537 8.002-.058 9.439-3.322.502-1.141 2.179-2.677 3.727-3.414 1.548-.737 3.094-2.069 3.436-2.96 1.84-4.796 5.669-6.616 6.75-3.209.349 1.1 1.054 2 1.567 2 1.227 0 1.189-.279-.488-3.51-1.516-2.922-1.069-5.833.794-5.179.62.218 1.009 1.077.864 1.909-.145.832.308 1.987 1.005 2.566 1.938 1.608 6.758 2.601 6.758 1.392 0-.678 1.04-.74 3-.178 1.8.516 3 .488 3-.07 0-.511.52-.93 1.155-.93 2.121 0 8.54-7.562 7.357-8.667-.6-.56-1.957-.668-3.047-.242-3.098 1.211-4.465 1.03-4.465-.591 0-.825-.562-1.428-1.25-1.34-.687.088-2.825.348-4.75.578m-67.091 13.339c-.775.491-2.572.899-3.992.908-1.421.008-2.903.334-3.293.724-.39.39-2.54.577-4.778.416-2.745-.198-3.849.061-3.394.798.371.6-.029 1.361-.889 1.691-3.075 1.18-1.482 2.311 3.126 2.219 5.352-.108 11.208 4.526 7.994 6.325-1.783.997-1.08 4.842.884 4.842.733 0 1.762-.766 2.287-1.703.757-1.352 1.248-1.457 2.391-.508.792.656 1.737.896 2.101.532.364-.364 1.805.412 3.203 1.725 2.419 2.272 5.874 2.027 5.462-.387-.079-.463.506-1.363 1.3-2 .982-.788 1.289-2.361.958-4.909-.455-3.498-2.269-5.408-2.269-2.389 0 .909-.822 1.205-2.469.89-3.211-.614-4.416-2.16-4.712-6.041-.26-3.414-1.675-4.548-3.91-3.133m27.643 20.433c-.37 1.127-2.614 2.819-5.106 3.849-2.445 1.012-4.446 2.218-4.446 2.681 0 1.511 2.148 2.212 3.287 1.073 1.837-1.837 5.515-1.312 6.213.887.906 2.854 2.716 2.488 6.971-1.409 2.766-2.535 3.559-3.922 3.087-5.408-.636-2.004-3.558-3.867-3.558-2.268 0 1.69-4.89 1.862-5.349.188-.358-1.308-.561-1.233-1.099.407m44.564 35.24c-.064.688-1.327 1.25-2.807 1.25-2.573 0-2.606.063-.75 1.433 1.479 1.091 1.664 1.713.778 2.613-1.454 1.476-3.66.239-2.937-1.647.296-.77.07-1.399-.501-1.399s-.894 1.013-.719 2.25c.292 2.05.896 2.264 6.82 2.406 4.628.112 5.852-.095 4.25-.717-2.607-1.013-2.92-2.468-.712-3.315.997-.383 1.855.196 2.437 1.643.494 1.228.934 1.783.977 1.233.043-.55.515-.325 1.048.5.772 1.194.985.99 1.048-1 .078-2.49.082-2.491.983-.25.665 1.655 1.724 2.25 4.003 2.25 2.791 0 3.067-.274 2.782-2.75-.266-2.318-.788-2.751-3.316-2.754-1.65-.002-3.5-.327-4.111-.723-.61-.395-1.389-.44-1.729-.1-1.452 1.452-6.568 1.054-6.994-.543-.239-.897-.486-1.067-.55-.38m200.02 3.5c.08 2.503.32 3.282.583 1.896l.447-2.354 1.565 2.234 1.564 2.234 1.83-2.38c1.744-2.267 1.832-2.283 1.853-.326.033 3.042 7.563 3.468 8.511.482.803-2.532 2.511-2.674 2.511-.208 0 1.491.83 1.839 4.5 1.888l4.5.061v-3.889c0-2.138-.45-3.888-1-3.888s-1.001.563-1.002 1.25c-.004 1.952-5.981 1.811-6.077-.144-.051-1.034-.258-1.161-.583-.356-.278.688-1.561 1.25-2.852 1.25-1.644 0-2.443.65-2.666 2.172-.52 3.53-2.542 3.201-3.803-.62-1.448-4.389-2.23-4.448-4.187-.315l-1.533 3.237-1.674-3.237c-2.207-4.267-2.65-4.086-2.487 1.013m38.838-3.213c-.997.63-1.069.937-.224.948 2.815.034 1.227 3.965-2 4.948l-3.25.99 3.5-.211c2.498-.15 3.651-.762 4.028-2.137.771-2.817 2.765-3.06 3.145-.383.458 3.231 8.029 3.637 8.855.476.78-2.988 2.972-3.293 2.972-.413 0 2.081.498 2.44 3.542 2.554 4.164.157 5.369-1.738 3.421-5.378-1.107-2.068-1.54-2.239-2.883-1.135-1.932 1.589-9.001 1.451-10.018-.196-.548-.887-1.067-.799-2.015.343-1.28 1.542-5.926 1.185-7.073-.544-.29-.436-1.19-.374-2 .138M133 556.5v7.5h7.345c6.094 0 7.656-.343 9.169-2.016l1.824-2.015 2.145 2.015c3.355 3.152 5.323 2.466 2.22-.772l-2.672-2.789 2.712-2.711c1.983-1.983 2.289-2.712 1.139-2.712-.864 0-2.393.907-3.396 2.016l-1.824 2.015-2.327-2.186c-3.026-2.843-4.341-1.545-1.5 1.479l2.176 2.317-2.255 1.929c-3.588 3.069-12.756 2.262-12.756-1.122 0-2.235.392-2.448 4.5-2.448 2.475 0 4.5-.45 4.5-1s-2.025-1-4.5-1c-3.833 0-4.5-.296-4.5-2 0-1.733.667-2 5-2 2.75 0 5-.45 5-1 0-.556-2.667-1-6-1h-6v7.5m26 4.164c0 4.224.424 7.336 1 7.336.55 0 1-.855 1-1.901 0-1.536.693-1.881 3.616-1.799 3.97.113 6.384-2.094 6.384-5.836 0-3.387-3.099-5.485-7.828-5.3l-4.172.164v7.336m15.566-6.336c-2.089 1.528-2.398 5.965-.569 8.169 1.738 2.094 7.335 1.899 9.348-.326 4.845-5.354-2.819-12.201-8.779-7.843m42.991.895c-2.05 2.925-1.967 5.096.272 7.122 5.713 5.171 14.583-1.933 9.171-7.345-2.718-2.718-7.462-2.606-9.443.223m55.004-.006c-3.365 4.803-.525 8.783 6.268 8.783H283v-10.676l-4.439-.168c-3.57-.135-4.745.269-6 2.061m28.005-.64c-2.031 2.03-1.877 9.182.25 11.673 4.389 5.141 10.516.293 9.992-7.906l-.308-4.829-4.15-.286c-2.811-.194-4.678.241-5.784 1.348m36.184-.473c-2.038 1.159-2.398 6.848-.55 8.696.66.66 3.36 1.2 6 1.2h4.8v-10.746l-4.25-.073c-2.337-.04-5.038.375-6 .923m18.821.467c-1.859 1.86-2.07 6.53-.371 8.229 3.259 3.259 10.8.135 10.8-4.474 0-4.529-7.098-7.085-10.429-3.755M47 591c0 8.964.27 11 1.456 11 1.114 0 1.525-1.704 1.75-7.25l.294-7.25 3.805 7.25c2.092 3.987 4.342 7.249 5 7.249.657-.001 2.77-2.933 4.695-6.516l3.5-6.513.5 6.256c.393 4.923.873 6.327 2.25 6.588 1.582.301 1.75-.738 1.75-10.814 0-13.966-1.317-14.315-8.092-2.145l-4.641 8.337-4.686-8.596C48.134 576.769 47 577.128 47 591m114.213-9.548c-10.589 4.776-5.885 20.533 6.133 20.544 3.639.004 9.654-2.583 9.654-4.153 0-1.653-2.142-1.857-4.221-.401-2.626 1.84-7.037 2.018-10.095.408-3.027-1.593-3.651-2.788-3.669-7.027-.028-6.696 7.528-9.978 14.071-6.113 4.025 2.378 6.364.286 2.506-2.241-3.583-2.348-10.365-2.828-14.379-1.017M181 591c0 9.111.258 11 1.5 11 1.133 0 1.5-1.222 1.5-5v-5h14v5.073c0 4.294.269 5.022 1.75 4.737 1.534-.296 1.75-1.631 1.75-10.81s-.216-10.514-1.75-10.81c-1.461-.281-1.75.419-1.75 4.237V589h-14v-4.5c0-3.333-.389-4.5-1.5-4.5-1.242 0-1.5 1.889-1.5 11m24.667-10.333c-.367.366-.667 5.316-.667 11V602h9c7.333 0 9-.278 9-1.5 0-1.19-1.444-1.5-7-1.5h-7v-7h6.583c8.813 0 8.463-2.369-.412-2.798-6.101-.294-6.171-.331-6.171-3.25V583h7c5.556 0 7-.31 7-1.5 0-1.567-15.838-2.329-17.333-.833M226 591c0 8.976.269 11 1.46 11 1.136 0 1.523-1.807 1.75-8.163l.29-8.163 6.989 8.163c3.845 4.49 7.557 8.163 8.25 8.163.938 0 1.261-2.817 1.261-11 0-8.976-.269-11-1.46-11-1.133 0-1.524 1.789-1.75 8.019l-.29 8.018-6.866-8.018C226.419 577.255 226 577.385 226 591m24 0v11h9c7.333 0 9-.278 9-1.5 0-1.19-1.444-1.5-7-1.5h-7v-7h6c4.667 0 6-.333 6-1.5 0-1.175-1.37-1.5-6.327-1.5h-6.327l.441-3 .44-3h6.886c5.455 0 6.887-.312 6.887-1.5 0-1.222-1.667-1.5-9-1.5h-9v11m40.389-10.02c-2.877 1.162-3.723 3.862-2.022 6.457 1.275 1.947 1.181 2.361-.978 4.283-5.509 4.908-1.605 10.844 6.613 10.054 2.782-.267 5.3-.094 5.597.386 1.221 1.976 2.401-.589 2.401-5.219 0-5.823-1.734-6.546-4-1.669-1.323 2.847-1.971 3.228-5.486 3.228-6.062 0-5.884-2.675.435-6.564 7.563-4.653 8.86-8.918 3.35-11.013-2.832-1.076-3.113-1.073-5.91.057m28.611-.627C319 582.2 329.356 602 330.322 602c1.092 0 10.704-19.116 10.685-21.25-.027-3.016-3.227.591-6.65 7.496l-4.088 8.245-4.146-8.245c-2.402-4.779-4.771-8.246-5.634-8.246-.819 0-1.489.159-1.489.353M346.5 591c-4.764 9.498-5.259 11-3.63 11 1.154 0 2.37-1.166 3.13-3 1.177-2.842 1.546-3 7-3s5.823.158 7 3c1.166 2.816 4 4.22 4 1.982 0-1.891-10.01-20.982-11.001-20.982-.54 0-3.465 4.95-6.499 11m20.188-10.354c-.379.378-.688 5.337-.688 11.021V602h8.5c6.889 0 8.5-.284 8.5-1.5 0-1.179-1.385-1.5-6.462-1.5h-6.463l-.287-9.169c-.265-8.433-1.17-11.115-3.1-9.185m25.854.041c-6.273 1.73-9.567 7.678-7.582 13.692 3.197 9.685 18.306 10.423 22.746 1.11 4.143-8.687-4.995-17.607-15.164-14.802m17.458.777c0 1.125 1.069 1.536 4 1.536h4v9.5c0 7.453.3 9.5 1.393 9.5 2.066 0 2.607-2.3 2.607-11.082V583h4.083c2.821 0 3.956-.386 3.669-1.25-.673-2.03-19.752-2.307-19.752-.286m25.228 9.048C429.356 602.318 429.46 602 431.474 602c.811 0 2.173-1.35 3.026-3 1.44-2.784 1.949-3 7.078-3 5.241 0 5.58.155 6.572 3 .868 2.491 4.85 4.553 4.85 2.512 0-1.605-10.642-21.512-11.5-21.512-.574 0-3.397 4.73-6.272 10.512M393 583.664c-4.396 1.75-6.7 8.244-4.235 11.936 2.492 3.732 10.653 4.522 14.046 1.361 2.83-2.636 3.003-8.914.313-11.349-2.021-1.829-7.686-2.919-10.124-1.948m-317 8.765c0 8.384 1.19 9.622 9.075 9.444l5.925-.134v-7.87c0-6.328-.294-7.869-1.5-7.869-1.147 0-1.5 1.264-1.5 5.378 0 6.114-1.393 7.937-5.69 7.444-2.709-.31-2.821-.548-3.108-6.572-.222-4.661-.667-6.25-1.75-6.25-1.119 0-1.452 1.475-1.452 6.429m40.455-3.974c-5.338 5.337-1.631 13.545 6.118 13.545 4.309 0 8.427-2.443 8.427-5 0-1.539-2.602-1.185-4.042.551-1.795 2.163-8.324 1.567-8.773-.801-.291-1.535.551-1.75 6.85-1.75h7.182l-.651-2.75c-1.505-6.358-10.332-8.575-15.111-3.795m8.768 26.102c-2.739 1.918-3.148 9.375-.652 11.872 4.273 4.272 10.429.822 10.429-5.845 0-6.718-4.677-9.6-9.777-6.027m225 0c-4.829 3.382-2.081 13.443 3.671 13.443 4.572 0 6.106-1.729 6.106-6.88 0-7.264-4.482-10.272-9.777-6.563m-97.652 1.014c-2.189 2.19-2.034 8.7.258 10.774 2.077 1.88 5.403 2.136 8.214.632 2.084-1.115 2.541-9.244.66-11.727-1.337-1.763-7.255-1.555-9.132.321m121.161 3.679c-.628 6.302.986 8.75 5.768 8.75 3.332 0 6.5-2.522 6.5-5.174 0-2.428-3.393-4.826-6.829-4.826-1.744 0-3.171-.45-3.171-1s2.025-1 4.5-1 4.5-.45 4.5-1-2.418-1-5.373-1h-5.373l-.522 5.25m-224.982-1.17c-1.126.656-1.75 2.237-1.75 4.435 0 4.078 2.035 5.485 7.934 5.485H159v-11l-4.25.03c-2.338.017-5.037.489-6 1.05m126.626.383c-.871 2.27.063 8.862 1.313 9.273.767.252 1.3-1.141 1.5-3.923.256-3.543.668-4.313 2.311-4.313 1.638 0 2.056.769 2.307 4.25.17 2.337.706 4.25 1.193 4.25.487 0 1.023-1.913 1.193-4.25.255-3.533.687-4.304 2.557-4.57 2.057-.292 2.25.081 2.25 4.334 0 5.36 2.292 5.935 2.81.705.587-5.923-.866-7.019-9.35-7.053-5.393-.021-7.722.353-8.084 1.297m20.824-.263c-.66.66-1.2 2.595-1.2 4.3 0 4.275 1.604 5.5 7.2 5.5h4.8v-11h-4.8c-2.64 0-5.34.54-6 1.2" fill="#d3d3d3" fill-rule="evenodd"/></svg>