<svg xmlns="http://www.w3.org/2000/svg" width="500" height="281"><path d="M299.943 41.75a473.522 473.522 0 01-1.699 3.364c-.176.338 2.198 1.846 5.276 3.352 5.166 2.527 5.733 2.615 7.367 1.136.974-.881 2.335-1.602 3.025-1.602 2.679 0 .23-2.408-5.726-5.631-7.449-4.03-6.567-3.964-8.243-.619m126.672 7.715c-2.196 3.351-2.362 3.109 4.419 6.473 5.999 2.977 6.045 2.983 8 1.028 1.081-1.081 2.471-1.966 3.088-1.966 2.328 0-1.398-2.98-6.842-5.472-6.761-3.095-6.679-3.095-8.665-.063M71.85 53c-1.042 2.99-1.072 3-9.198 3.097-4.484.053-13.102.252-19.152.442-6.05.19-12.03.372-13.288.403L27.924 57l.472 58.75c.261 32.313.503 64.488.539 71.5L29 200h5.55c3.052 0 6.86.678 8.462 1.506 2.406 1.244 6.096 1.412 21.201.965 31.734-.939 39.897-1.321 46.175-2.157 3.362-.448 27.037-.765 52.612-.705 39.014.092 45.983-.664 13.719-1.487-6.353-.162-8.358-3.697-2.592-4.569 11.262-1.704 11.094-1.714 13.78.792 2.272 2.119 3.768 2.473 12.093 2.864 5.225.245 8.689.261 7.697.035-3.393-.773.224-3.248 4.675-3.199 4.176.046 11.897 2.713 8.319 2.874-.995.044-1.531.531-1.191 1.081.34.55 3.179.919 6.309.82l5.691-.18-5-.526-5-.525 6.5-.544 6.5-.545-.182-12.156c-.161-10.679.041-12.359 1.659-13.823 1.438-1.302 1.659-2.302 1.009-4.57-1.134-3.953-.409-13.536 1.413-18.68 1.372-3.876 1.356-4.312-.201-5.22-1.483-.865-1.413-.994.552-1.021 2.064-.027 2.25.424 2.25 5.47 0 3.025.338 5.498.75 5.496.412-.003.769-3.571.793-7.931.023-4.36-.266-7.736-.643-7.503-.378.233-.358-1.035.044-2.819.401-1.784.691-8.755.643-15.493-.073-10.254.157-12.252 1.413-12.265.999-.01 1.123-.261.37-.75-.777-.506-1.103-6.481-1.043-19.166.06-13.007-.251-18.544-1.058-18.813-.842-.28-1.155 8.607-1.19 33.751-.026 18.772-.385 34.663-.798 35.312-.413.65-.757 1.594-.766 2.098-.008.504-.538 1.091-1.177 1.304-.813.271-.998-.839-.616-3.687.454-3.382.286-3.974-.986-3.486-.844.324-1.878.031-2.299-.65-.521-.843-.275-1.05.774-.647 1.235.474 1.556-.283 1.627-3.83.066-3.255-.297-4.421-1.374-4.421-.805 0-1.5-.787-1.543-1.75-.047-1.045-.282-1.247-.583-.5-.278.687-1.156 1.25-1.953 1.25-.796 0-1.714.694-2.04 1.543-.534 1.391-.761 1.39-2.3-.002-1.885-1.706-3.045-1.128-3.045 1.519 0 .949-.702 1.996-1.561 2.325-1.348.517-1.469-.184-.887-5.143.371-3.158.698-6.304.728-6.992.062-1.453 2.72-1.728 2.72-.281 0 .532.672.71 1.494.395.822-.316 1.276-.928 1.008-1.36-.44-.713 4.596-1.936 8.602-2.089 1.747-.067 3.742-19.476 2.163-21.042-.422-.419-3.017-.866-5.767-.995-2.75-.129-5.675-.571-6.5-.983-.825-.412-2.287-.992-3.249-1.29-1.737-.538-1.922-2.936-.413-5.355.429-.687.336-1.25-.206-1.25s-1.191-.787-1.443-1.75c-.392-1.502-.473-1.517-.573-.107-.162 2.292-3.098 3.286-3.179 1.076-.048-1.28-.295-1.144-.968.531-1.026 2.552-2.906 3.008-3.094.75-.235-2.824-.376-3.334-1.125-4.083-.412-.413-.788.112-.834 1.166-.046 1.054-.283 4.055-.525 6.667-.267 2.866-.035 4.75.584 4.75.564 0 1.025.477 1.025 1.059s-.445.784-.988.448c-.544-.336-2.987.273-5.429 1.353-6.348 2.808-9.945 10.287-5.734 11.922 1.762.685 1.767.803.095 2.542-1.688 1.757-1.778 1.71-2.428-1.25-.624-2.843-2.914-4.618-2.352-1.824.138.688-.084 2.519-.493 4.07l-.744 2.82-2.446-2.32c-1.346-1.276-2.454-2.882-2.464-3.57-.009-.687-.522-1.25-1.139-1.25-.824 0-.821-.364.012-1.367.853-1.028.821-1.628-.131-2.418-1.609-1.336-4.369.525-4.909 3.31-.21 1.086-1.102 1.982-1.981 1.99-.879.008-2.296.594-3.149 1.302-.983.817-3.685 1.177-7.38.985-5.596-.29-5.851-.421-6.389-3.302l-.561-3-.819 2.5c-1.094 3.339-4.328 6.307-6.123 5.619-.796-.306-1.448-.105-1.448.448 0 .662-.656.652-1.928-.028-1.06-.568-2.635-.76-3.5-.428-.864.331-1.572.105-1.572-.504S146.875 108 145.5 108c-2 0-2.5-.5-2.5-2.5 0-1.598-.563-2.5-1.559-2.5-.936 0-1.27-.468-.836-1.17.477-.772.19-.965-.843-.569-2.002.768-2.378-2.624-2.576-23.261-.082-8.525-.411-16.703-.73-18.172-.483-2.222-.191-2.747 1.732-3.115 1.271-.243-9.838-.476-24.688-.517l-27-.075-5.5-3.042c-6.868-3.799-7.85-3.808-9.15-.079m25.612 25.939c.319.516-.217 1.402-1.191 1.969-.974.567-1.378 1.045-.899 1.062.48.016.284.739-.435 1.606-1.084 1.307-1.063 1.732.127 2.485.804.509.936.915.299.924-1.636.022-2.206 5.509-.776 7.465.906 1.238 1.32 1.329 1.642.362.338-1.014.751-.972 1.907.197 2.434 2.459 2.931 4.854 1.208 5.818-1.328.744-1.232.969.621 1.454 1.626.425 2.051.204 1.645-.854-.711-1.854-.133-1.807 1.823.149 1.434 1.434 1.654 1.367 2.445-.75.539-1.442.487-2.57-.137-2.967-.554-.353.357-.941 2.025-1.308l3.032-.666-2.399-2.588C107.08 91.873 106 90.324 106 89.854c0-.47-1.013-.89-2.25-.933-1.497-.052-1.754-.274-.768-.661 2.568-1.008 4.431-3.26 2.696-3.26-2.152 0-2.886-2.791-.873-3.321.932-.246.184-.499-1.662-.563-2.547-.088-3.218-.478-2.781-1.616.395-1.029-.061-1.5-1.452-1.5-1.116 0-1.767.422-1.448.939M361 196.965c0 .53.805 1.395 1.789 1.922 2.262 1.211 67.275 13.194 72.867 13.431 2.286.097 3.947.515 3.691.929-.256.414 1.11.753 3.035.753s3.778-.45 4.118-1c.778-1.258 2.5-1.309 2.5-.073 0 .509-.788 1.116-1.75 1.348-.962.232.613.378 3.5.325 3.921-.073 5.27-.477 5.329-1.599.054-1.025.239-1.105.583-.251.668 1.654 2.338 1.605 2.338-.068 0-1.255-12.147-3.446-65.5-11.816a2377.652 2377.652 0 01-21.381-3.452c-9.921-1.674-11.119-1.722-11.119-.449" fill="#d3d3d3" fill-rule="evenodd"/></svg>