<svg xmlns="http://www.w3.org/2000/svg" width="500" height="437"><path d="M0 218.502v218.502l250.25-.252 250.25-.252.252-218.25L501.005 0H0v218.502m.491.498c0 120.175.117 169.337.259 109.25.142-60.087.142-158.412 0-218.5C.608 49.662.491 98.825.491 219M43.4 16.4c-7.29 7.29-3.446 14.715 9.633 18.61 23.097 6.879 15.458 26.742-7.937 20.636-7.346-1.918-9.21-1.427-3.555.936 2.784 1.163 6.138 1.512 12.134 1.263 7.822-.326 8.471-.528 11.556-3.615 2.803-2.803 3.255-3.933 3.169-7.921-.132-6.149-3.499-9.179-14.137-12.721C45.501 30.669 42 27.824 42 23.62c0-7.967 10.067-12.126 19.654-8.12 4.18 1.746 4.346 1.772 4.346.661C66 14.397 60.631 13 53.853 13c-6.688 0-7.229.176-10.453 3.4m44.64-1.475c-2.543 4.752-15.684 42.177-14.966 42.621.442.273 1.791-2.213 2.999-5.525L78.268 46h22.317l1.184 4.25c1.308 4.698 2.836 7.479 3.657 6.658C106.166 56.168 90.882 13 89.88 13c-.445 0-1.273.866-1.84 1.925M109 13.754c0 .815 2.186 6.943 10.254 28.746 4.989 13.482 6.465 16.232 7.893 14.708 1.399-1.492 15.525-43.293 14.785-43.75-.887-.548-2.848 4.466-10.225 26.153-2.861 8.412-5.475 14.978-5.808 14.591-.333-.386-2.97-7.227-5.858-15.202-8.425-23.258-9.499-25.97-10.291-25.985a.737.737 0 0 0-.75.739m43.403 1.576l-2.709 2.33.2 17.92c.253 22.683-.36 21.781 15.131 22.258 7.452.23 10.975-.01 10.975-.75 0-.715-3.577-1.088-10.427-1.088C152.168 56 151 54.947 151 42.865V35h10.941c6.215 0 11.208-.432 11.559-1 .399-.645-3.526-1-11.05-1h-11.669l.378-7.47c.503-9.969 1.183-10.457 14.65-10.498 6.61-.021 10.087-.391 9.691-1.032-.345-.558-4.992-1-10.503-1-8.911 0-10.153.23-12.594 2.33M197 14c0 .571 3 1 7 1h7v21c0 13.333.365 21 1 21s1-7.667 1-21V15h7c4 0 7-.429 7-1 0-.622-5.667-1-15-1s-15 .378-15 1m37 21c0 14.491.345 21.905 1 21.5.563-.348 1-5.177 1-11.059V35h27.937l.316 11.75c.174 6.463.319 1.4.321-11.25.002-12.65-.142-18.388-.32-12.75L263.93 33H236v-9.441c0-5.215-.448-9.718-1-10.059-.655-.405-1 7.009-1 21.5m46.321-20.811c-3.82 1.847-4.484 5.479-4.142 22.663.416 20.851.152 20.502 15.846 20.986 6.876.213 10.975-.035 10.975-.661 0-.585-4.545-1.14-10.959-1.339-13.629-.42-13.963-.721-14.009-12.588L278 35h11c6.667 0 11-.394 11-1s-4.333-1-11-1h-11v-7c0-10.145 1.088-11 14-11 6 0 10-.4 10-1 0-1.343-18.849-1.179-21.679.189m46.91 21.061l.269 22.25 8.5-.047c15.776-.087 21.191-5.272 21.741-20.818.612-17.316-5.723-23.547-24.01-23.611L326.962 13l.269 22.25m52.162-18.647C375.733 25.361 365 55.329 365 56.788c0 2.699 1.635.08 3.457-5.538l1.704-5.25h22.474l1.723 5.466c1.533 4.865 3.642 8.188 3.642 5.739 0-.503-2.521-8.067-5.601-16.809a6190.087 6190.087 0 0 1-7.592-21.646c-2.316-6.69-3.346-7.098-5.414-2.147M399 14c0 .571 3 1 7 1h7v20.941c0 12.882.385 21.179 1 21.559.655.405 1-6.823 1-20.941V15h7.559c4.785 0 7.332-.367 6.941-1-.367-.594-6.677-1-15.559-1-9.294 0-14.941.378-14.941 1m41.364.17C436.689 15.949 436 19.315 436 35.5c0 17.065.685 19.846 5.287 21.45C445.168 58.303 463 58.344 463 57c0-.603-4.167-1-10.5-1-13.835 0-14.5-.573-14.5-12.5V35h11c6.667 0 11-.394 11-1s-4.333-1-11-1h-11v-7c0-10.145 1.088-11 14-11 6 0 10-.4 10-1 0-1.332-18.839-1.185-21.636.17M328.229 35.25l.271 20.25 8.604-.02c12.358-.029 16.867-3.545 18.942-14.772 2.96-16.012-4.841-25.638-20.817-25.686l-7.27-.022.27 20.25M84.296 29.668L79.263 43.5l9.497.288c5.224.158 9.725.061 10.002-.217.461-.46-7.091-23.301-8.73-26.403-.418-.792-2.748 4.286-5.736 12.5m292.073.086L371.397 43.5l5.338.301c2.936.166 7.496.166 10.133 0l4.794-.301-4.857-13.442c-2.671-7.394-4.993-13.579-5.16-13.746-.167-.167-2.541 5.882-5.276 13.442M62.194 67.692c-.517.994-1.258 7.573-1.647 14.618l-.707 12.811 3.83-.648c7.37-1.246 6.881-.148 6.33-14.209-.275-7.02-.5-12.989-.5-13.264 0-1.559-6.455-.948-7.306.692m75.401-.537c.443.715.275.883-.44.44-.719-.443-1.155.006-1.155 1.191 0 1.982-2.903 5.214-4.682 5.214C130.189 74 129 85.415 129 96.259v6.958l2.617-.657a141 141 0 0 1 5.5-1.233c1.947-.39 2.883-1.186 2.883-2.452 0-1.031.483-1.875 1.074-1.875 1.827 0 .795-28.844-1.074-30.023-2.063-1.302-3.264-1.213-2.405.178M238.766 80.25c-.272 13.422-.374 14.061-1.747 11C235.306 87.43 231 86.536 231 90c0 1.1-.45 2-1 2s-1-1.35-1-3c0-2.831-.769-3.462-3.75-3.075-.687.09-1.25-.307-1.25-.881 0-.574.45-1.044 1-1.044s.986-.787.968-1.75c-.03-1.667-.095-1.667-1.36 0-1.629 2.146-2.608 2.24-2.608.25 0-1.627-1.552-2.034-2.417-.634-.294.476-1.671.649-3.059.383-4.105-.784-2.9 1.558 1.476 2.869 4.348 1.303 4.969 2.248 2.25 3.426-3.223 1.396-4.735 1.365-7.046-.147-1.262-.827-3.079-1.254-4.037-.95-2.416.767-2.55 4.64-.182 5.259 2.089.547 3.359 2.929 2.393 4.491-.389.629.135.775 1.373.382 1.489-.473 2.141-.101 2.548 1.455.492 1.881.228 2.028-2.626 1.468-2.456-.482-2.834-.374-1.673.48 1.153.848.618.977-2.312.556-2.425-.348-3.586-.181-3.191.458.342.552-.081 1.004-.938 1.004-1.21 0-1.057.502.68 2.239 2.618 2.618.541 3.784-3.187 1.789-1.553-.831-2.052-.799-2.052.133 0 .677-1.575-.295-3.5-2.161s-3.5-4.027-3.5-4.803c0-.872-.6-1.181-1.573-.807-1.113.427-1.475.096-1.238-1.132.501-2.604 3.811-2.892 3.811-.331 0 1.14.45 2.073 1 2.073s1 .675 1 1.5c0 2.269 1.573 1.801 3.419-1.017 1.34-2.044 2.006-2.326 3.549-1.5 1.045.559 2.718 1.003 3.716.987 2.585-.044-.967-2.072-5.15-2.942-2.5-.519-2.982-1.062-2.739-3.079.221-1.836.054-2.093-.666-1.027-.582.863-3.058 1.529-6.295 1.693-2.933.148-5.559.31-5.834.359-.275.049.295.693 1.267 1.431 2.02 1.532 1.409 4.257-1.102 4.922-1.15.305-.97.477.585.557 2.312.119 3.244 2.104 1 2.131-.915.012-.885.247.113.879.962.61 1.02.978.196 1.253-.642.214-1.299 1.281-1.459 2.371-.16 1.09-.81 2.038-1.445 2.107-2.528.274-2.555.546-.155 1.593l2.5 1.091-2.943.596c-1.619.327-2.857.933-2.75 1.345.514 1.996.041 2.637-1.557 2.105-.985-.328-.438.566 1.25 2.045 4.118 3.606 6.5 4.938 6.5 3.635 0-.569.9-1.035 2-1.035 1.111 0 2 .667 2 1.5 0 1.289 3.337 1.51 23.75 1.57 14.194.042 22.945.416 21.75.93-1.1.473-13.363.891-27.25.93L185 127l-.127 3.75c-.103 3.007-.314 2.538-1.07-2.368-.768-4.987-1.404-6.366-3.438-7.454-3.126-1.673-4.253-.28-4.51 5.572l-.175 4-.419-3.456c-.23-1.901-1.283-4.671-2.34-6.155-1.056-1.484-1.921-3.674-1.921-4.867 0-1.537-.509-2.063-1.75-1.804-1.187.247-1.669 1.156-1.497 2.823.174 1.686-.019 2.04-.611 1.125-.69-1.066-.992-1-1.503.332-.968 2.522-.776 3.502.687 3.502 2.397 0 6.206 4.868 4.861 6.213-.716.716-1.187 4.326-1.187 9.093 0 6.973.295 8.256 2.5 10.876 1.575 1.872 2.5 4.208 2.5 6.311 0 1.837.436 3.49.968 3.674.616.212.622.878.015 1.833-.792 1.247-.975 1.162-1.087-.5-.311-4.601-3.043 14.897-3.56 25.404l-.562 11.404 7.007-.651c7.576-.704 8.219-.319 8.219 4.925 0 2.235.378 2.418 5 2.418 3.862 0 5-.355 5-1.559 0-.896-.476-1.265-1.12-.867-.807.499-.952-1.233-.517-6.191.966-11.006 1.776-15.383 2.847-15.383.601 0 .759 1.597.395 4l-1.212 8.022c-.334 2.212-.245 5.7.198 7.75l.806 3.728.651-4.5.652-4.5.15 4.75.15 4.75h3.767c2.072 0 10.855-.472 19.517-1.048 8.663-.577 16.241-.746 16.84-.375 2.539 1.569-2.283 2.394-14.124 2.415-6.875.012-15.597.315-19.382.672l-6.883.65.531 7.593c.31 4.421.185 6.758-.297 5.593-.456-1.1-.866-3.575-.912-5.5-.167-6.939-3.093-11.127-4.368-6.25-.435 1.667-.463 1.667-.573 0-.087-1.308-.992-1.75-3.588-1.75h-3.472l-.308 13.75-.309 13.75-.22-13.798-.219-13.797-6.25.297-6.25.298.173 22.5c.096 12.375.452 25.762.792 29.75.406 4.756.26 7.25-.423 7.25-.641 0-1.078-3.563-1.136-9.25-.052-5.088-.644-18.475-1.316-29.75-1.253-21.024-1.302-21.183-4.088-13.25-.242.688-.919 1.25-1.506 1.25-.739 0-.724-.639.05-2.086 1.44-2.69.842-3.202-2.333-1.995-2.282.868-2.545 1.482-2.389 5.583l.176 4.608 2.245-2.805c3.276-4.093 2.753-1.482-.838 4.18l-3.092 4.876 1.176 18.903c.646 10.397.967 19.111.714 19.365-.544.543-1.409-9.328-2.313-26.379-.516-9.74-.946-12.25-2.1-12.25-1.043 0-1.304.774-.93 2.75.287 1.512.781 7.25 1.098 12.75.317 5.5.839 13.037 1.16 16.75.397 4.601.232 6.75-.519 6.75-.606 0-1.099-1.684-1.097-3.75.003-2.062-.531-10.613-1.187-19-1.118-14.318-1.317-15.254-3.254-15.314-2.074-.064 1.044-1.89 5.687-3.33 1.968-.611 2.66-11.606.731-11.606-.587 0-.754-1.057-.394-2.491.775-3.087-1.113-4.02-5.082-2.511-1.599.608-3.094.694-3.422.198-.321-.486-2.608-.84-5.083-.789l-4.5.093.351 4.5c.193 2.475.418 10.195.5 17.155.082 6.96.431 12.197.777 11.639.831-1.345 1.92 4.875 2.53 14.456.33 5.172.136 7.75-.582 7.75-.592 0-1.076.645-1.076 1.433 0 1.667-5.749 1.899-7.75.313-1.423-1.128-1.727-3.159-.345-2.305.513.318.693-1.28.414-3.691-.27-2.337-.527-4.793-.572-5.456-.044-.663-.45-.977-.902-.698s-.572-.145-.265-.943c.306-.798.076-1.748-.512-2.111-.69-.427-1.068.775-1.068 3.399 0 2.232.45 4.059 1 4.059 1.572 0 1.167 2.722-.5 3.362-.825.316-1.5 1.209-1.5 1.984 0 .775-.675 1.969-1.5 2.654-1.197.993-1.5.993-1.5 0s-.303-.993-1.5 0c-1.908 1.584-1.889.098.032-2.441.807-1.068 1.454-2.418 1.436-3-.017-.583-.692-.185-1.5.882-1.21 1.601-1.468 1.659-1.468.333 0-.884.486-1.769 1.08-1.967 1.245-.415-.836-5.807-2.241-5.807-.461 0-.839-.873-.839-1.941 0-3.902-1.68-2.852-1.837 1.148-.268 6.841-1.154 5.609-1.288-1.79-.134-7.41-.012-7.648-2.349 4.583-.469 2.456-.21 4.096.871 5.5 1.511 1.963 1.542 1.953 1.674-.5.109-2.045.283-1.865.955.993.999 4.253 1.121 4.123-4.477 4.754l-4.549.513-.003-9.88c-.005-18.287-1.536-26.757-6.665-36.88-6.669-13.164-2.431-11.994-38.524-10.63-17.22.652-37.608 1.227-45.308 1.278-14.576.098-17.5.406-17.5 1.846 0 .473.788 1.065 1.75 1.317 1.667.435 1.667.463 0 .573-1.655.11-1.75 6.107-1.75 110.992v110.877l237.25.705c130.488.388 241.75.556 247.25.374l10-.332.253-184.75.252-184.75h-258.95l-.289 14.25M10.75 67.706c3.617.696 3.225 6.294-.441 6.294-2.581 0-2.612.06-.75 1.468 1.85 1.4 1.801 1.475-1.059 1.619-1.65.082-3.267.12-3.594.083-1.037-.116-1.814 33.782-1.896 82.741l-.08 47.41 46.729-.688c25.701-.378 46.923-.881 47.159-1.118.237-.236-1.182-5.061-3.152-10.722-4.911-14.11-9.616-32.428-11.219-43.682-1.335-9.371-1.347-9.398-6.293-14-7.246-6.743-8.979-13.789-4.654-18.929 2.819-3.35 3.119-6.765 1.362-15.515-1.261-6.278-1.176-6.234-11.08-5.762l-4.719.226.613-6.566.613-6.565-5.894.015c-9.532.025-8.734-5.974-8.27 62.132.226 33.194.11 55.403-.257 49.353-.367-6.05-1.002-33.725-1.41-61.5-.683-46.455-.887-50.685-2.545-52.814-1.003-1.288-1.523-3.038-1.174-3.949.405-1.056.771-1.208 1.03-.43.221.663.753.988 1.182.723 1.023-.632.077-5.53-1.068-5.53-.485 0-.883-.725-.883-1.611 0-1.79-6.305-1.197-8.75.823-.911.753-1.25.593-1.25-.59 0-1.409-1.767-2.132-4.25-1.74-.413.065-.75-.332-.75-.882 0-.592-3.159-.944-7.75-.864-4.263.075-6.738.331-5.5.57m104.927 8.044c.563 8.913 1.833 13.28 4.073 14.009.951.31 1.25-2.359 1.25-11.176V67h-5.876l.553 8.75m6.963-5.5c-.819 4.568-1.026 22.697-.268 23.455.627.627 1.01-2.875 1.087-9.943.023-2.056.491-3.631 1.041-3.5.621.148.875 4.787.67 12.238-.475 17.288 1.471 13.525 2.346-4.536.616-12.704.501-14.705-.906-15.873-.885-.735-1.61-2.181-1.61-3.213 0-3.118-1.736-2.108-2.36 1.372m45.705-1.43c-.625 1-.95 3.138-.722 4.75.363 2.559.281 2.676-.647.926-.858-1.618-1.874-1.939-5.284-1.668-3.354.267-4.753-.155-6.797-2.049-1.416-1.313-3.138-2.198-3.828-1.968-1.515.505 6.767 6.179 9.028 6.185 2.028.005 5.299 3.557 4.487 4.872-.338.547-.157 1.276.402 1.622 1.671 1.033 1.149 2.682-.733 2.32-1.344-.259-2.62 1.626-5.5 8.128-4.322 9.754-4.609 11.52-1.751 10.772 1.1-.287 2-.164 2 .275 0 .439 1.083 1.07 2.407 1.402 1.324.333 3.202.91 4.174 1.282 1.365.524 1.62.298 1.124-.995-.353-.921-.206-1.674.326-1.674.533 0 .969-1.07.969-2.378 0-1.307.663-2.927 1.474-3.6 1.45-1.203 1.976-3.355 2.88-11.772.325-3.03.124-4.061-.699-3.59-.635.363-.82.291-.411-.16.409-.451-.154-1.449-1.25-2.217-2.215-1.551-2.72-3.499-.708-2.727 1.579.606 1.827-3.716.275-4.791-.717-.496-.676-.739.127-.75.653-.008 1.12-.915 1.037-2.015-.187-2.483-.908-2.538-2.38-.18M44 75.27v6.27l6.75-.168c3.712-.092 7.087-.214 7.5-.27.413-.056.75-2.802.75-6.102v-6H44v6.27m105.667-1.603C148.409 74.925 149 78 150.5 78c1.167 0 1.5 1.333 1.5 6 0 5.048-.278 6-1.75 5.999-2.024 0-1.969 9.914.062 11.185 2.138 1.338 9.719-13.149 9.666-18.471-.041-4.061-8.167-11.191-10.311-9.046M91.06 78.436c-1.986 2.115-2.169 2.94-1.384 6.25l.905 3.814H103.5l.313-3.25c.21-2.171-.122-3.255-1-3.265-1.051-.013-1.043-.187.044-.875.946-.6 1.021-1.067.25-1.544-.609-.376-1.107-.26-1.107.258 0 1.281-3.954 2.226-6.568 1.57-1.626-.408-2.018-1.108-1.663-2.964.582-3.044.156-3.043-2.709.006m59.445 76.314c.286 14.713.762 29.747 1.059 33.409.296 3.663.132 6.911-.367 7.219-1.068.661-2.183-12.086-2.191-25.074-.008-12.256-1.933-34.565-3.085-35.754-.577-.595-.921-.474-.921.321 0 .7-.643 1.915-1.429 2.7-1.626 1.627-2.993 1.922-2.084.45.333-.539.064-1.991-.598-3.228-1.166-2.18-1.227-2.188-1.976-.271-.66 1.691-.783 1.724-.843.228a1.8 1.8 0 0 0-1.82-1.735c-1.284.012-1.409.232-.469.829.833.528 1.008 1.551.5 2.922-.429 1.159-.462 9.449-.072 18.421.391 8.972.947 23.288 1.237 31.813.29 8.525.608 16.084.707 16.798.125.9 1.586 1.207 4.764 1l4.583-.298-.074-3.75c-.058-2.947.317-3.777 1.75-3.875 1.003-.069 2.274-.238 2.824-.375.55-.137 2.377-.306 4.059-.375 1.76-.072 2.797-.55 2.441-1.125-.34-.55-.141-1 .441-1 .611 0 1.017-2.011.959-4.75-.081-3.871-.247-4.288-.9-2.25-.571 1.782-.791.634-.769-4 .027-5.334.164-5.872.769-3 .724 3.44.739 3.419.868-1.191.149-5.306.621-5.813 5.583-6l3.549-.133-.1-10.588c-.055-5.823-.403-11.672-.773-12.997-1.43-5.112-13.105-11.651-13.142-7.361-.013 1.51-.159 1.55-.995.27-.713-1.093-.449-1.941.973-3.126 1.074-.894 1.671-1.907 1.328-2.25-.343-.343-.137-.624.459-.624.596 0 1.233.338 1.417.75.183.412 2.47 2.203 5.083 3.979l4.75 3.23v-13.833l-3.75.52c-2.52.349-3.31.208-2.408-.429 1.018-.719.716-1.068-1.25-1.444-1.763-.337-2.592-.06-2.592.866 0 .748.675 1.361 1.5 1.361s1.5.623 1.5 1.383c0 1.61-4.339 3.038-4.833 1.591-.184-.535-1.309-1.01-2.5-1.053-2.081-.076-1.869-.222 2.196-1.512 2.162-.686-.627-3.409-3.492-3.409h-2.385l.519 26.75m-46.838-22.083c-.367.366-.667 3.993-.667 8.059 0 7.852-1.902 9.617-2.118 1.965-.065-2.305-.409-5.541-.764-7.191l-.644-3-1.695 2.413c-1.487 2.116-1.674 5.217-1.521 25.25.096 12.56.48 22.837.852 22.837.373 0 .272 1.803-.223 4.006-.706 3.144-.469 5.244 1.099 9.75 2.646 7.599 4.452 9.016 10.585 8.304l4.82-.56.145-5.885c.122-4.946-.149-5.963-1.696-6.367-1.388-.363-1.84-1.434-1.84-4.365 0-3.803-1.345-4.764-3.337-2.383-.476.569-.624.03-.343-1.25.271-1.238.047-2.25-.497-2.25s-.783-.562-.531-1.25c.252-.687.964-1.137 1.583-1 1.437.319 1.494-15.586.076-21.25-.551-2.2-1.235-8.932-1.52-14.96-.535-11.327-.644-11.994-1.764-10.873m248.31 10.375c-3.115 5.821 1.097 12.797 6.823 11.3 3.12-.816 2.729-2.342-.6-2.342-2.699 0-5.2-1.539-5.2-3.2 0-.44 1.998-.8 4.441-.8 5.112 0 5.96-.816 4.591-4.416-1.305-3.433-8.305-3.81-10.055-.542M376 141.945c0 .58 1.575 1.055 3.5 1.055 4.159 0 4.658 1.708.75 2.564-4.948 1.085-5.25 1.34-5.25 4.429 0 3.59 2.633 5.028 7.795 4.258l3.294-.491-.294-6.13-.295-6.13-4.75-.305c-2.857-.183-4.75.116-4.75.75m-212.25 32.771l-2.75.417V196h3.889c3.605 0 3.933-.24 4.506-3.291 1.157-6.171-.361-18.959-2.204-18.559-.38.082-1.929.337-3.441.566m167.425 73.798c-1.031 2.264-1.545 2.45-5.16 1.872l-4.015-.642v4.628c0 3.447.383 4.628 1.5 4.628 1 0 1.5-1 1.5-3 0-1.879.514-3 1.375-3 .756 0 1.645 1.35 1.975 3 .505 2.524 1.07 3 3.566 3 3.62 0 4.983-1.69 1.849-2.292l-2.265-.436 2.25-.136c2.709-.164 3.213-4.552.637-5.541-1.216-.466-1.341-.946-.508-1.949 1.045-1.26.582-2.646-.885-2.646-.37 0-1.188 1.131-1.819 2.514m35.423 1.092c-.448 1.168-1.328 1.428-3.225.952-1.78-.447-3.206-.115-4.491 1.048-3.579 3.24-1.715 7.394 3.318 7.394 3.313 0 3.825-1.955.55-2.1-2.142-.095-2.129-.134.25-.819 1.489-.428 2.444-1.399 2.361-2.4-.076-.925.261-1.681.75-1.681s.889 1.575.889 3.5c0 3.067.31 3.5 2.5 3.5 1.375 0 2.5-.45 2.5-1s-.45-1-1-1-1-1.125-1-2.5.52-2.5 1.155-2.5c.655 0 .371-.866-.655-2-2.19-2.42-3.09-2.511-3.902-.394M153.5 302.965c-15.962 3.38-23.009 5.877-31.352 11.108l-6.443 4.04-5.103-2.05c-14.178-5.697-15.264-3.756-7.585 13.552l1.826 4.115-3.787 1.135c-5.605 1.679-7.447 1.414-10.132-1.46-1.333-1.427-3.749-3.284-5.368-4.126-6.85-3.562-30.867-9.595-45.43-11.411l-10.375-1.294-2.257 2.831c-1.242 1.557-3.239 4.916-4.438 7.463-1.2 2.548-2.563 5.349-3.03 6.226-.466.877-.624 3.258-.35 5.292.291 2.159-.008 4.309-.718 5.165-.729.878-.989 2.873-.647 4.978.345 2.125-.031 4.95-.952 7.155-1.416 3.389-.261 9.551 1.467 7.823.27-.269 1.13.041 1.912.69 3.27 2.714 26.697 2.099 49.721-1.306 7.23-1.069 8.054-1.018 9 .553 2.852 4.737 3.117 4.9 6.212 3.821 2.759-.962 3.055-.828 4.06 1.832 1.245 3.299-1.582 8.125-4.589 7.832-3.428-.333-7.137.1-7.024.821.383 2.425-.507 4.283-3.739 7.805-4.325 4.713-5.536 7.466-4.078 9.271.782.969.686 1.564-.357 2.209-6.506 4.021 22.767 5.744 71.043 4.181 35.418-1.146 43.055-2.142 45.324-5.911.447-.741 1.311-1.039 1.92-.662.703.435.889.112.508-.88-.391-1.021.072-1.742 1.33-2.071 2.362-.617 2.471-2.938.296-6.258-1.941-2.962-1.32-4.015 1.484-2.515 3.209 1.717 4.151 1.29 4.151-1.884 0-1.869.689-3.333 1.863-3.962 1.163-.622 2.068-2.52 2.407-5.05.299-2.229 1.486-5.86 2.637-8.069 1.151-2.208 2.093-5.338 2.093-6.953 0-2.295.354-2.802 1.616-2.318 1.362.523 1.442.294.508-1.451-1.543-2.883-5.702-3.977-19.964-5.251-12.544-1.12-25.16-4.193-25.16-6.128 0-.587-.675-.808-1.5-.491-1.087.417-1.5-.114-1.5-1.929 0-2.165-.261-2.364-1.934-1.468-2.838 1.519-3.066 1.353-3.062-2.215.003-3.215 3.208-9.75 4.781-9.75.447 0 .63 1.575.405 3.5-.5 4.279.788 4.501 3.128.539 1.283-2.172 2.739-3.114 5.465-3.534 9.629-1.484 12.737-2.966 12.414-5.922-.166-1.525.501-3.968 1.483-5.428l1.786-2.655.556 3.5.556 3.5 2.207-3.5c3.2-5.074 3.014-11.226-.42-13.927-3.801-2.991-16.105-2.656-32.865.892m-36.125 26.84c-1.854 5.132-1.96 6.276-.831 8.963 1.09 2.59 1.07 3.166-.124 3.624-1.889.725-1.825 3.608.08 3.608.825 0 1.501-.788 1.503-1.75.001-.962 1.268-2.598 2.815-3.634 3.676-2.462 5.376-6.485 4.992-11.812-.286-3.97-.543-4.326-3.31-4.593-2.826-.272-3.123.052-5.125 5.594m29.28 42.024c-3.291 3.637-2.158 4.171 8.845 4.171 11.428 0 12.142-.373 7.181-3.75-4.327-2.946-13.523-3.187-16.026-.421" fill="#d3d3d3" fill-rule="evenodd"/></svg>