<svg xmlns="http://www.w3.org/2000/svg" width="500" height="1125"><path d="M64 24.953l-14.5.547v378l48.275.267c45.414.252 48.307.163 48.823-1.5.301-.972.965-2.548 1.475-3.503.51-.955.927-3.065.927-4.688 0-1.624.719-6.017 1.598-9.764.879-3.747 1.724-11.987 1.878-18.312.325-13.315 1.147-18.324 3.69-22.5 1.004-1.65 1.828-4.406 1.83-6.124.002-1.719.668-5.007 1.48-7.308.812-2.301 1.911-7.654 2.443-11.896 1.05-8.37 1.834-11.172 3.129-11.172 1.58 0 2.328 2.43 2.065 6.712-.197 3.201.147 4.451 1.354 4.914 2.3.882 2.944-.143 2.918-4.646l-.023-3.946 4.069.62c2.238.34 4.519.946 5.069 1.345.55.399 2.35 1.043 4 1.431 4.406 1.036 7.5 3.344 7.5 5.593 0 1.087.436 1.977.969 1.977.532 0 .762-.562.51-1.25-.984-2.686.994-3.736 5.569-2.955 4.934.843 5.966 3.041 2.202 4.692-2.919 1.281-2.852 2.324.197 3.089 1.346.338 3.157 1.697 4.023 3.019 1.883 2.873 4.644 3.048 11.245.711 2.632-.931 7.935-1.751 11.785-1.822 3.85-.07 7.752-.468 8.672-.883.919-.415 2.645-.234 3.836.403 2.269 1.215 4.031.572 2.425-.884-3.225-2.926-27.261-3.26-26.683-.37.157.784-.902 1.25-2.843 1.25-3.019 0-3.082-.096-2.631-4 .361-3.131.128-4-1.074-4-1.746 0-.691-1.444 1.119-1.531 5.814-.279 15.566-2.001 17.179-3.033 1.1-.704 4.25-1.556 7-1.893 9.343-1.145 16.996-2.832 18.5-4.078.825-.683 3.525-1.709 6-2.28 11.16-2.574 16.421-4.521 22.486-8.324 7.552-4.735 7.528-4.702 3.264-4.508-2.531.114-3.219-.24-3.111-1.603.076-.962-.495-1.75-1.269-1.75-1.024 0-1.227.723-.743 2.649.508 2.027.359 2.46-.636 1.846-.828-.512-1.056-.41-.629.281.369.597.213 1.368-.346 1.714-.559.345-1.016.151-1.016-.431s-.886-1.059-1.969-1.059c-1.339 0-1.784-.48-1.393-1.5.65-1.692-2.128-2.135-3.138-.5-.34.55-3.291 1-6.559 1-3.294 0-5.941.446-5.941 1 0 .55-1.537 1-3.417 1-1.879 0-3.566.396-3.75.88-.284.752-4.382 2.045-17.833 5.628-1.925.512-2.155.422-1-.393 1.284-.906 1.164-1.295-.83-2.7-1.776-1.251-2.182-2.231-1.707-4.123.64-2.551-.834-5.298-2.835-5.284-1.97.013-3.781 5.102-2.406 6.759.655.789 1.293 2.132 1.418 2.984.125.852.819 1.931 1.544 2.399 1.803 1.165-.171 2.418-7.018 4.454-5.231 1.556-5.381 1.543-7.75-.683-2.767-2.6-3.076-3.921-.916-3.921.825 0 1.5-.45 1.5-1s.85-1.85 1.89-2.89c1.853-1.853 1.842-1.911-.554-3.003-2.163-.985-2.781-.743-5.39 2.113-1.62 1.774-2.946 2.883-2.946 2.463 0-.419-.579-.221-1.286.439-1.68 1.57-1.656 4.878.035 4.878 1.018 0 1.072.466.234 2.032-.989 1.848-1.858 1.998-9.576 1.657-7.937-.351-8.7-.581-11.745-3.532-1.792-1.736-3.798-3.157-4.46-3.157-.661 0-1.202-.64-1.202-1.422 0-.783-1.656-1.969-3.68-2.637-4.786-1.58-14.329-7.189-16.713-9.823-1.457-1.61-2.643-1.942-5.377-1.508-1.93.307-3.783.182-4.119-.276-.692-.944-17.212-9.354-18.351-9.342-.407.004-3.899-2.017-7.76-4.492-3.861-2.475-7.304-4.5-7.649-4.5-1.135 0-25.714-12.464-27.555-13.972-.988-.81-1.796-1.978-1.796-2.595 0-.618-.9-1.938-2-2.933-1.258-1.139-2-3.08-2-5.234 0-3.222.164-3.389 2.769-2.817 1.709.376 3.524.058 4.738-.83 1.879-1.374 1.81-1.482-1.52-2.385-1.918-.52-3.367-1.482-3.221-2.137.146-.656-.513-1.058-1.464-.894-.951.163-1.858-.378-2.014-1.203-.589-3.1 1.563-4.409 8.398-5.107 3.748-.383 8.346-1.035 10.219-1.45 2.475-.549 3.211-.439 2.691.401-.416.674-.103 1.156.751 1.156.987 0 1.29-.672.928-2.057-.304-1.161-1.105-1.839-1.84-1.556-.826.317-1.247-.233-1.151-1.504.11-1.458.676-1.865 2.08-1.498 1.164.304 4.458-1.021 8.305-3.341 4.143-2.499 7.104-3.655 8.455-3.301 1.186.31 2.436-.031 2.907-.793.656-1.061 1.355-1.095 3.397-.165 1.415.645 2.572.791 2.572.325s1.897-1.101 4.215-1.412c2.318-.311 4.681-1.197 5.25-1.969.569-.773 1.598-1.215 2.285-.983.688.231 1.25-.067 1.25-.663 0-.595.839-1.083 1.865-1.083s2.938-.838 4.25-1.862c1.312-1.025 3.347-2.164 4.524-2.532 1.176-.369 3.344-1.788 4.819-3.154 1.474-1.367 3.052-2.255 3.506-1.974.455.281 1.084-.162 1.4-.984.34-.886 1.85-1.494 3.712-1.494 2.413 0 3.002.355 2.548 1.538-.36.939.085 1.763 1.143 2.117 6.431 2.147 7.107 2.723 6.54 5.559-.574 2.872.846 3.473 6.97 2.951 1.895-.161 4.169 4.23 3.327 6.425-.708 1.845 2.059 2.52 4.945 1.206 2.011-.917 2.816-.859 3.958.283 1.478 1.477 1.01 5.921-.624 5.921-.485 0-.883.45-.883 1 0 1.637 8.184-.145 17-3.702.825-.333 2.625-.789 4-1.013 1.375-.225 2.928-.831 3.45-1.347.523-.516 1.566-.938 2.32-.938 2.365 0 10.304-6.064 11.272-8.61.599-1.575 1.989-2.646 3.941-3.037 2.644-.528 3.017-1.022 3.017-3.991 0-3.16.388-3.561 5.75-5.96 5.884-2.631 6.748-3.102 11.475-6.241 4.586-3.045 14.775-21.034 14.775-26.086 0-.921.378-2.102.841-2.625 3.804-4.298 6.688-29.2 4.11-35.493-1.63-3.98-3.283-4.967-3.785-2.26-.184.992-1.039 2.351-1.899 3.022-1.119.872-1.269 1.583-.527 2.5 1.138 1.407-1.258 10.469-3.247 12.281-.604.55-2.424 3.025-4.045 5.5s-3.342 4.669-3.823 4.875c-2.35 1.007-4.677 4.387-4.153 6.035.671 2.117-.276 5.09-1.623 5.09-.515 0-.804-.787-.643-1.75.216-1.286-.498-1.84-2.693-2.089-2.501-.284-3.679.436-7.24 4.426-4.827 5.408-6.36 5.408-3.322 0 2.065-3.676 2.76-8.587 1.216-8.587-.459 0-.834.587-.834 1.305 0 3.083-6.743 11.639-9.024 11.45-2.768-.229-4.042-2.755-1.389-2.755 1.129 0 1.803-.66 1.719-1.681-.085-1.023.837-1.92 2.356-2.294 2.724-.669 4.11-4.025 1.662-4.025-.82 0-1.717.563-1.995 1.25-.403 1-.52 1-.583 0-.043-.687-.966-1.25-2.05-1.25-1.352 0-2.217-.944-2.75-3.005-.429-1.652-1.157-2.972-1.62-2.933-.463.039-1.38-.666-2.039-1.568-.659-.901-3.641-2.434-6.626-3.407-5.273-1.719-5.433-1.881-5.634-5.678-.594-11.233-.384-18.675.558-19.811 1.341-1.615 4.243-9.77 3.678-10.335-.576-.576-4.07 1.353-6.069 3.352-1.504 1.505-1.732 1.487-2.989-.232-.748-1.024-1.076-2.316-.728-2.872.974-1.558.977-7.511.003-7.511-.475 0-.174-1.335.669-2.966 1-1.934 2.053-2.766 3.026-2.393 1.073.412 1.492-.117 1.492-1.885 0-1.352.487-3.854 1.082-5.561 1.789-5.133-2.547-7.339-6.082-3.095-.959 1.152-5.507 3.323-6.408 3.06-.5-.146-1.267.314-1.704 1.022-.438.708-2.166 1.342-3.842 1.41-3.006.121-3.993-.889-2.046-2.092 1.794-1.109 1.052-2.482-1.209-2.238-3.723.401-3.134-2.616 1.478-7.568 2.725-2.927 5.536-4.905 7.538-5.305 1.756-.352 3.193-1.258 3.193-2.014 0-.756.432-1.375.961-1.375.529 0 1.879-.985 3-2.189 1.716-1.842 2.039-1.921 2.039-.5 0 1.915 1.631 2.297 2.222.522.244-.73 4.094-1.387 10.254-1.75 7.18-.424 9.991-.964 10.328-1.985.334-1.009-.134-1.245-1.669-.844-1.173.307-2.392.139-2.709-.374-.317-.513-1.305-.809-2.196-.657-2.556.437-4.64-4.39-2.565-5.941.896-.67 1.994-.992 2.44-.717.446.276 3.193.709 6.103.962 10.228.892 11.21 1.256 12.718 4.722.777 1.788 1.9 3.582 2.494 3.986.725.493.658.739-.203.75-.706.008-2.844 1.575-4.75 3.482-3.806 3.805-4.467 7.626-1.906 11.013 1.465 1.94 1.547 1.919 3.932-1 1.339-1.639 2.451-3.318 2.471-3.73.053-1.094 3.036-.921 3.036.177 0 .509-.787 1.132-1.75 1.384-1.077.281-.692.502 1 .573 2.62.111 2.756.364 2.868 5.366.066 2.888.047 5.807-.041 6.489-.255 1.981 1.865 5.261 3.401 5.261 2.287 0 4.519-4.145 4.564-8.473l.041-4.027 3.403 3.852c1.989 2.252 3.53 5.16 3.708 7 .291 2.995.537 3.163 5.051 3.453 3.96.254 4.818.667 5.189 2.5 1.115 5.504 1.234 7.782.432 8.278-1.197.74-1.092 6.159.134 6.917.55.34 1 2.076 1 3.858 0 3.106.143 3.224 3.454 2.837l3.454-.403-.586 3.61c-.897 5.529 6.669 15.305 13.76 17.776 1.605.56 2.918 1.362 2.918 1.783 0 1.299 12.588 7.039 15.438 7.039 3.425 0 6.562 1.661 6.562 3.474 0 .893 1.608 1.645 4.421 2.066 2.593.389 5.23 1.552 6.377 2.812 2.33 2.559 4.614 9.172 3.687 10.672-.361.585-.056 1.803.679 2.707 1.148 1.413 1.105 1.557-.309 1.028-1.407-.527-1.574-.011-1.149 3.563.563 4.733 2.39 9.678 3.576 9.678.437 0 .707 1.013.6 2.25-.73 8.502 1.266 11.602 5.041 7.827 1.59-1.59 1.725-2.077.577-2.077-.825 0-1.5-.675-1.5-1.5 0-2.222 2.759-1.818 4.05.593 1.574 2.942.387 6.907-2.069 6.907-1.161 0-1.981.672-1.981 1.622 0 1.245.313 1.363 1.343.508 1.431-1.187 3.657 2.214 3.657 5.588 0 .894.647 2.339 1.437 3.212.79.873 1.667 2.858 1.948 4.411.785 4.327 3.78 11.659 4.763 11.659 1.222 0 7.407 9.93 8.195 13.157.356 1.462.952 3.448 1.323 4.414.46 1.2.303 1.528-.496 1.034-.702-.434-1.17-.1-1.17.836 0 .857.337 1.506.75 1.441 2.841-.449 4.141.783 6.548 6.205 1.486 3.348 2.702 6.487 2.702 6.975 0 .488 1.35 3.835 3 7.438 1.65 3.603 3 7.516 3 8.696 0 1.181.768 2.995 1.706 4.031 1.392 1.539 1.484 2.239.5 3.815-1.811 2.9-1.499 4.269 1.82 7.987 1.675 1.877 3.827 6.085 4.822 9.43 1.579 5.307 2.092 6.027 4.225 5.924 1.335-.064 2.758.386 3.162 1 1.068 1.623.932 8.838-.154 8.167-.737-.455-2.628 4.695-2.086 5.683.08.147-.305 1.453-.856 2.902-1.956 5.144 3.932 8.358 8.553 4.669.861-.688 1.508.224 2.334 3.292 1.213 4.505 1.05 5.947-1.418 12.594-1.642 4.419-.125 11.31 2.489 11.31.588 0 .869.563.624 1.25-.246.688.223 2.573 1.041 4.191 1.918 3.794-.789 10.003-3.927 9.006-1.009-.32-1.835-.136-1.835.408 0 1.302-6.678 3.482-8.512 2.779-.787-.302-2.152.172-3.033 1.054-2.169 2.168-8.563 5.363-9.534 4.763-.43-.266-1.079-.004-1.441.581-.451.73-1.046.743-1.893.04-.844-.7-3.11-.687-7.161.042-3.259.586-7.051 1.139-8.426 1.228-1.375.088-3.013.494-3.64.901-1.794 1.163-40.255 1.021-46.246-.171-6.606-1.315-14.443-1.38-18.543-.154-1.689.505-6.671 1.714-11.071 2.686-4.4.972-9.568 2.584-11.485 3.582-1.917.997-4.003 1.814-4.636 1.814s-2.397.647-3.92 1.437c-1.523.79-5.962 1.943-9.864 2.561-3.902.619-9.321 1.5-12.041 1.958-3.684.621-5.486.479-7.065-.555-1.165-.764-4.34-1.664-7.054-2-2.714-.336-7.712-1.689-11.106-3.006-3.496-1.357-8.046-2.343-10.5-2.275l-4.329.12 4.5.954c5.645 1.197 7.42 2.116 7.799 4.037.323 1.639-2.765 3.343-3.719 2.053-1.587-2.145-8.596-.989-10.853 1.789l-2.272 2.798 4.272.574c14.208 1.909 89.989.821 101.273-1.455 3.488-.703 6.058-.677 8.5.087 8.359 2.616 12.393 1.735 9.923-2.168-2.432-3.842-.426-4.643 13.327-5.324 4.262-.211 7.75.021 7.75.516 0 .494.67.899 1.488.899.958 0 1.712 1.396 2.114 3.913.396 2.474 1.228 4.037 2.262 4.25.9.185 21.661.112 46.136-.163l44.5-.5v-378l-112 .006c-61.6.003-118.3.079-126 .169-7.7.089-38.3.065-68-.053-29.7-.119-60.525.031-68.5.331m113.067 73.98c-1.137 1.137-2.118 2.854-2.181 3.817-.21 3.229-.767 7.728-1.289 10.43-.299 1.541-.038 2.84.612 3.056.779.26.612 1.417-.539 3.724-1.967 3.943-2.109 5.727-.499 6.264 1.248.416 1.946 4.645 1.026 6.216-.302.517-.621 2.634-.709 4.706-.176 4.149 1.129 5.239 5.082 4.247 1.69-.424 2.596-.125 3.028 1.001.339.883 1.081 1.606 1.649 1.606 1.363 0 3.679 3.105 3.729 5 .046 1.731 4.388 4 7.656 4 1.355 0 2.483.787 2.868 2 .749 2.358 2.291 2.535 5.081.581 1.176-.824 3.617-1.271 5.823-1.066 4.535.422 5.812 1.354 2.898 2.116-1.797.47-1.988.978-1.285 3.428 1.386 4.832 2.159 5.456 3.512 2.834 2.488-4.824 2.807-8.919.816-10.487-2.456-1.936-11.02-6.406-12.272-6.406-.914 0-6.933-6.035-12.617-12.649-4.887-5.688-5.334-19.294-.684-20.784.951-.304 3.261-2.806 5.135-5.56 1.873-2.754 3.786-5.007 4.25-5.007 1.129 0 1.043-2.144-.16-4-.795-1.227-1.717-.635-5.062 3.25-4.555 5.289-7.969 6.376-7.187 2.288.46-2.404-1.886-6.067-3.105-4.848-.327.327-1.25.051-2.052-.614-1.171-.972-1.864-.803-3.524.857m50.255 12.752c-1.713 1.151-2.636 1.217-4.333.309-1.762-.943-2.525-.82-4.186.676-4.716 4.251-8.664 17.062-5.803 18.83.55.34 1.002-.196 1.005-1.191.004-1.424.528-1.171 2.464 1.191 1.352 1.65 2.475 2.438 2.495 1.75.052-1.809 2.036-1.542 2.036.275 0 .838 1.152 1.963 2.56 2.498 1.522.578 2.277 1.432 1.861 2.105-.427.691-.158.943.69.648.764-.266 1.249-1.258 1.078-2.204-.171-.946.093-2.249.586-2.896.493-.647.935-3.732.982-6.856.083-5.503-.012-5.714-3.085-6.809l-3.172-1.13 3-2.435c1.65-1.34 3.563-2.438 4.25-2.441 1.347-.005 1.735-2.597.5-3.335-.412-.246-1.73.211-2.928 1.015M171 222.5c0 .933-.944 1.5-2.5 1.5-1.846 0-2.5.531-2.5 2.031 0 1.992-1.188 2.88-4.502 3.366-.912.134-2.022.832-2.466 1.551-.445.72-1.309.999-1.92.621-.612-.378-1.112-.282-1.112.213s-2.424 1.442-5.387 2.105c-2.963.663-6.183 2.085-7.155 3.159-.972 1.075-2.45 1.954-3.284 1.954-.834 0-2.313.721-3.287 1.602-.974.881-2.921 1.669-4.328 1.75-4.431.256-1.936 5.531 2.656 5.616 1.657.031 4.658 4.001 3.07 4.062-2.165.084 3.639 2.408 6.277 2.513 2.536.101 6.406 1.726 19.632 8.244.781.385 3.308-7.515 3.104-9.706-.557-5.989 4.693-21.226 8.796-25.531.498-.522.906-2.21.906-3.75 0-2.444-.381-2.8-3-2.8-2 0-3 .5-3 1.5m148 14.571c0 10.948-.554 12.281-5.629 13.546-2.527.629-2.716.527-1.58-.853.71-.862 2.51-1.885 4-2.274l2.709-.705-2.395-.914c-2.884-1.1-6.105-.249-6.105 1.613 0 .742-.53 1.526-1.177 1.742-2.488.829.482 2.774 4.236 2.774H317l.012 5.25c.013 5.724 1.841 13.529 4.275 18.25.85 1.65 2.311 7.5 3.246 13 .934 5.5 2.06 11.35 2.502 13 .442 1.65 1.091 5.132 1.444 7.738.352 2.606 1.302 5.4 2.11 6.208 2.693 2.693 4.519 9.299 2.757 9.975-2.222.852-2.311.801-3.346-1.921-1.344-3.535-3.397-3.237-2.672.388.608 3.041-.607 4.705-5.155 7.06-4.26 2.205-11.922 3.772-13.669 2.794-1.04-.582-2.641-.527-4.328.148-3.637 1.456-6.071.901-8.152-1.858-1.345-1.783-2.341-2.169-4.317-1.673-1.412.354-3.748.196-5.191-.353-2.421-.92-2.737-.721-4.128 2.607-1.866 4.467-1.991 4.357 6.282 5.527 14.275 2.018 16.33 2.143 16.33.987 0-.62.705-1.127 1.566-1.127.861 0 2.548-.529 3.75-1.175 1.201-.646 4.884-1.314 8.184-1.483 5.212-.268 13.743-1.028 16.199-1.443 3.353-.567 5.301.277 5.301 2.297 0 1.208 1.221 4.021 2.713 6.25a804.135 804.135 0 0 1 2.934 4.404c.121.193.697.056 1.279-.304 1.125-.696-1.859-7.567-4.681-10.777-1.139-1.297-1.241-2.068-.407-3.074.822-.99.81-1.647-.045-2.502-.638-.638-.917-1.403-.619-1.7.937-.937 3.826.659 3.826 2.114 0 .766.597 1.393 1.326 1.393.729 0 2.382 1.125 3.674 2.5 2.719 2.894 4.549 3.29 3.472.75-.408-.962-1.276-4-1.93-6.75-.846-3.563-1.872-5.343-3.568-6.193-2.835-1.422-5.921-5.211-5.951-7.307-.013-.946.904-.425 2.483 1.412 1.378 1.601 2.751 2.665 3.051 2.364.993-.993-5.731-12.588-7.579-13.072-1.762-.46-6.966-9.99-6.99-12.8-.007-.772-1.595-5.004-3.529-9.404-5.653-12.858-6.93-20.018-8.071-45.25-.633-14-2.388-14.866-2.388-1.179m-12.279 19.214c-.47 1.225-1.464 1.469-4.189 1.027-3.023-.491-3.476-.329-2.945 1.054.345.899 1.113 1.634 1.707 1.634.594 0-.13 1.263-1.609 2.807-2.367 2.471-2.526 3.028-1.327 4.668 1.201 1.642 1.053 2.138-1.248 4.196-2.552 2.282-2.567 2.367-.669 3.831 1.658 1.279 1.7 1.498.285 1.498-.91 0-2.137.9-2.726 2-1.227 2.293-.086 2.652 3.066.965 2.009-1.076 2.714-4.965.899-4.965-.569 0 .56-1.4 2.509-3.111 1.949-1.712 3.816-4.197 4.149-5.524.333-1.326 1.424-2.985 2.423-3.685 2.29-1.604 2.513-2.579 1.279-5.59-.801-1.955-1.105-2.107-1.604-.805M185.5 258c-.34.55-1.886 1-3.437 1-3.03 0-5.643 2.252-4.59 3.956.355.574 2.021 1.044 3.703 1.044 2.449 0 2.964.357 2.588 1.795-.273 1.045.737 3.239 2.417 5.25l2.887 3.455-2.284.556-2.284.557 2.5.68c6.173 1.679 15.882-.203 22.659-4.391 4.702-2.906 3.633-3.385-2.086-.933-5.908 2.532-11.35 2.323-12.205-.469-1.126-3.674-2.678-4.937-3.501-2.847-.582 1.479-.74 1.299-.797-.903-.045-1.758.449-2.75 1.368-2.75 1.9 0 1.612-4.127-.399-5.718-1.876-1.485-5.694-1.65-6.539-.282m103.25 130.227c-.962.975-3.073 1.773-4.691 1.773-1.618 0-3.197.414-3.509.92-.944 1.527 15.594 1.085 18.854-.504 1.597-.779 5.197-1.43 8-1.446 4.426-.027 4.833-.19 3.096-1.239-3.348-2.022-19.63-1.651-21.75.496M267 413.102c0 .494.9 1.798 2 2.898 2.676 2.676 2.711 2.63-2.994 3.999-4.678 1.122-4.959 1.366-4.432 3.849.548 2.586.522 2.602-1.071.652-1.623-1.989-1.644-1.987-3.568.361-2.196 2.679-2.574 5.321-.656 4.586 2.773-1.065 4.588 1.805 3.196 5.053l-1.285 3-1.255-2.75c-1.443-3.16-2.728-3.515-3.615-1-.34.962-1.365 2.65-2.278 3.75-3.025 3.644-4.243 7.501-2.536 8.034l2.994.935c.827.258 1.5 1.631 1.5 3.059 0 1.514-.426 2.327-1.025 1.957-.563-.349-.96-.263-.881.191.336 1.934-.159 3.402-.976 2.897-1.897-1.173-6.118 3.504-6.118 6.777 0 3.067-2.7 6.65-5.011 6.65-.544 0-.989 2.285-.989 5.077 0 4.984-3.713 10.923-6.829 10.923-.541 0-.748.9-.461 2 .293 1.118.031 2-.593 2-.615 0-1.117.637-1.117 1.416 0 .779-1.8 3.347-4 5.706-2.2 2.359-4.001 4.534-4.002 4.834-.002.299-1.315.59-2.919.646-2.715.096-2.851-.072-1.961-2.412 2.105-5.536-1.567-4.791-6.148 1.247-1.31 1.727-1.297 1.873.121 1.343.875-.327 2.225-.193 3 .297 1.128.714 1.048.895-.4.908-.995.008-1.562.414-1.261.902.301.487-.122 1.442-.941 2.122-.819.68-1.489 1.76-1.489 2.401 0 .64-.95 1.236-2.112 1.323-1.161.088-2.884.859-3.829 1.713-.944.855-2.495 1.554-3.447 1.554-.951 0-1.484.399-1.182.886.301.488-.301 1.109-1.339 1.38-1.586.415-1.871-.045-1.79-2.886.076-2.705.505-3.383 2.147-3.395 2.566-.019 5.234-1.637 4.277-2.593-.394-.394-1.806-.221-3.137.386-1.96.893-2.533.807-3.015-.449-.389-1.013-.144-1.378.708-1.052.716.275 2.157-.124 3.202-.888 1.046-.765 1.338-1.389.649-1.389-.687 0-.972-.45-.632-1 .34-.55 1.068-1 1.618-1s.701.483.336 1.074c-.365.59.289.479 1.453-.248 1.164-.727 1.928-1.812 1.698-2.412-.635-1.657 2.461-7.414 3.989-7.414.783 0 1.103-.625.768-1.5-.317-.825-.108-1.5.464-1.5.571 0 1.325-.9 1.674-2s1.507-2 2.574-2 2.949-1.22 4.183-2.71c1.233-1.491 3.481-3.841 4.993-5.223 1.512-1.382 2.75-3.032 2.75-3.667 0-.635.612-1.663 1.36-2.283 1.854-1.539 4.058-15.101 3.262-20.077-.943-5.898-6.267-16.901-10.416-21.525-5.046-5.625-14.21-10.634-14.205-7.765.001.413-2.474.596-5.5.407-3.52-.219-5.501.051-5.501.75 0 .601.54 1.093 1.2 1.093.933 0 .933.267 0 1.2-1.647 1.647-1.504 2.8.348 2.8 1.756 0 6.372 4.853 6.42 6.75.018.688.734 1.25 1.591 1.25s1.289.437.958.972c-.33.534.143 2.106 1.051 3.492.909 1.386 1.395 3.19 1.081 4.009-.329.856.687 2.867 2.39 4.731 1.628 1.783 2.961 3.79 2.961 4.46 0 .67.521 1.54 1.158 1.933.793.491.98.037.593-1.441-.31-1.186-.156-2.156.343-2.156.498 0 .962.675 1.031 1.5.563 6.761.313 7.509-3.907 11.668-2.356 2.321-4.062 4.796-3.792 5.499.747 1.947-12.211 5.757-14.138 4.157-1.132-.94-1.635-.888-2.349.24-.746 1.179-.911 1.123-.924-.314-.009-1.04-.777-1.75-1.893-1.75-1.032 0-2.437-.675-3.122-1.5-1.723-2.076-3.729-1.875-5 .5-.726 1.356-.737 2-.035 2 .569 0 1.035.675 1.035 1.5 0 2.087-1.291 1.872-3-.5-1.838-2.549-4.162-2.55-5.998-.002-.899 1.246-2.11 1.785-3.221 1.432-.988-.313-1.781-.063-1.781.562 0 .619-.424.864-.942.544-.517-.32-.932-4.797-.922-9.95.011-5.152-.298-11.554-.686-14.227-.959-6.601.286-5.1 1.415 1.706l.901 5.435.117-5.327c.101-4.617-.267-5.71-2.761-8.205-2.863-2.863-2.868-2.888-.878-4.673 5.135-4.608 10.726-13.075 9.374-14.197-1.041-.864-1.917-.278-3.954 2.646-1.44 2.066-3.978 5.032-5.641 6.591-1.662 1.559-3.023 3.641-3.023 4.627 0 2.135-2.448 4.368-4.993 4.556-1.005.074-4.129 2.204-6.943 4.735-5.497 4.942-10.207 6.703-12.605 4.713-.802-.666-1.459-.818-1.46-.338-.001 1.185-10.388.97-22.426-.466l-9.928-1.184-13.072 4.099c-7.19 2.255-15.504 5.04-18.475 6.189-2.971 1.149-7.279 2.168-9.574 2.263-3.726.156-9.861 2.365-6.774 2.441 1.757.042 1.562 2.696-.25 3.392-.825.316-1.5.139-1.5-.393 0-1.413-3.747-1.187-4.654.28-1.171 1.895-.391 36.105.84 36.866.657.406.538.811-.323 1.098-2.299.767-1.884 40.323.512 48.787 1.012 3.575 2.299 7.065 2.86 7.756.561.691 1.879 6.049 2.93 11.906 1.695 9.447 3.718 16.142 3.805 12.588.067-2.78 2.846-1.046 3.445 2.15.351 1.869 1.311 3.958 2.134 4.641.857.711 1.244 2.035.906 3.1-.324 1.023-.162 1.859.361 1.859 2.281 0 3.361 9.877 1.345 12.306-1.603 1.931-.405 7.725 1.449 7.013 1.518-.582 1.699 1.03.469 4.18-.534 1.369-.275 2.384.821 3.218 2.441 1.86 3.295 1.515 2.043-.824-.972-1.815.266-5.475 1.294-3.826.148.238 1.204 1.783 2.345 3.433 3.158 4.563 3.77 7.825 1.35 7.193-2.025-.53-2.664.737-.916 1.817.559.346.787 1 .506 1.454-.281.455.19 1.095 1.047 1.424.857.329 1.278 1.051.935 1.605-.342.554-.119 1.007.496 1.007s.809.5.431 1.112c-.378.611-.071 1.493.683 1.958 1.109.686 1.127 1.089.095 2.121-1.033 1.033-1.385.851-1.858-.958-.802-3.065-2.188-2.833-1.596.267.263 1.375 1.091 2.5 1.84 2.5 1.094 0 1.135.498.21 2.528-.798 1.752-1.386 2.151-1.912 1.298-.419-.677-.539-1.589-.268-2.028.271-.439-.434-.798-1.566-.798-1.144 0-2.059-.653-2.059-1.469 0-.981.58-1.251 1.75-.812 1.532.574 1.579.446.378-1.032-.755-.928-.98-1.701-.5-1.717.479-.017.085-.489-.878-1.05-.962-.561-1.75-1.672-1.75-2.47 0-.797-.655-1.45-1.455-1.45-.846 0-1.715-1.359-2.079-3.25-.659-3.432-4.882-7.504-5.965-5.751-.341.55-.157 1.001.409 1.001.565 0 .757.705.426 1.567-.331.863-.001 2.69.733 4.062 1.002 1.872 1.058 2.938.225 4.272-.65 1.04-.757 2.349-.259 3.155.492.797.419 1.897-.174 2.612-.953 1.148-.624 2.905 1.939 10.332.285.825.446 1.837.359 2.25-.088.413.291.75.841.75s1.014-.562 1.032-1.25c.019-.763.549-.569 1.36.5.731.962 2.201 1.75 3.268 1.75 1.067 0 2.48.54 3.14 1.2.933.933 1.2.915 1.2-.083 0-1.433 2.476-.979 2.542.466.065 1.414 3.428 7.417 4.155 7.417.355 0 1.49-.764 2.522-1.698 2.266-2.051 4.993-2.577 5.884-1.136.359.581.842-.569 1.074-2.555.453-3.882-.452-4.685-2.097-1.861-.561.962-1.033 1.22-1.05.573-.016-.647-.693-1.322-1.504-1.5-1.099-.241-1.206-.704-.424-1.823.754-1.076 1.189-1.162 1.54-.301.323.788 1.527.275 3.519-1.5 4.088-3.642 5.414-3.459 5.006.691-.183 1.864.181 3.707.808 4.095 1.65 1.02.188 5.829-1.982 6.517-2.11.67-3.204 2.81-3.577 6.998-.147 1.65-.042 2.207.234 1.238.769-2.702 2.442-.953 1.745 1.823L94.783 683l35.359.106c19.447.058 43.458.209 53.358.334 27.571.351 34.5-.155 34.5-2.516 0-1.058-.36-1.924-.8-1.924-1.036 0-3.427-11.119-3.718-17.288-.123-2.634-.464-5.028-.757-5.321-.293-.293.08-1.714.83-3.159.932-1.796 1.043-3.011.353-3.843-.555-.668-1.238-2.492-1.517-4.052-.28-1.56-2.453-5.762-4.831-9.337-3.825-5.752-4.388-7.335-4.883-13.75-.364-4.708-.196-7.25.479-7.25 1.336 0 12.841 12.025 12.853 13.434.005.586 2.47 3.766 5.478 7.066 3.008 3.3 5.935 7.374 6.504 9.054 1.067 3.148 5.25 5.446 9.915 5.446 2.212 0 2.25-.181 1.64-7.75-.344-4.263-.626-8.987-.626-10.5s-.404-2.75-.898-2.75-.887-.788-.874-1.75c.014-.962-.292-2.763-.678-4-.53-1.695-.305-2.25.913-2.25.89 0 1.617-.436 1.617-.969 0-.532-.675-.709-1.5-.393-.825.317-1.5.078-1.5-.531s.9-1.107 2-1.107 2.056-.45 2.125-1c.069-.55.182-1.562.252-2.25.113-1.116 3.532-1.343 12.432-.826.72.042 1.031.526.691 1.076-.34.55.084 1 .941 1s1.559.45 1.559 1 .675 1 1.5 1 1.5.398 1.5.883c0 1.405-4.147 2.109-6.139 1.043-1.244-.666-2.529-.572-4.088.301-1.25.7-2.427 1.352-2.614 1.448-.188.096-.068 1.035.266 2.088.454 1.433 1.42 1.86 3.841 1.7 3.843-.254 5.466.467 3.62 1.608-1.988 1.228-.683 1.94 4.735 2.583 2.683.318 5.452 1.04 6.153 1.605.701.564 1.548.752 1.883.417.335-.334 1.503.529 2.596 1.919 1.19 1.512 2.59 2.295 3.488 1.951 1.113-.427 1.364-.056.973 1.439-.392 1.5-.039 2.015 1.38 2.015 1.817 0 2.339-.988 1.981-3.75-.251-1.932 1.632-1.481 3.875.927 2.668 2.863 3.438 1.886 2.16-2.739-.569-2.063-.8-4.13-.513-4.594.286-.464.044-.844-.538-.844-.582 0-1.059-.606-1.059-1.346 0-.741-.733-2.816-1.629-4.612-.896-1.795-1.233-3.552-.75-3.903.484-.352.958-1.089 1.055-1.639.097-.55.469-1.754.828-2.676.446-1.144-.165-2.211-1.926-3.365-3.028-1.984-3.336-4.084-.719-4.914 2.321-.737 5.787.438 4.196 1.421-.666.412.303 1.45 2.416 2.588 1.941 1.046 3.529 2.248 3.529 2.673 0 .425.646.773 1.435.773s2.702.511 4.25 1.135c4.396 1.772 7.102 1.852 10.776.317 4.263-1.781 11.862-.574 14.786 2.35l2.017 2.018-2.334 3.34c-1.283 1.837-2.602 3.565-2.93 3.84-.328.275-1.678 2.075-3 4-1.322 1.925-2.846 3.803-3.388 4.174-.621.426-.524 1.227.264 2.176 1.461 1.76-2.805 13.856-5.955 16.885-.993.954-2.22 2.478-2.729 3.386-1.281 2.289-9.429 3.16-8.568.916.45-1.172.137-1.409-1.263-.954-1.547.503-1.608.421-.361-.489 1.333-.972 1.333-1.203 0-2.079-1.284-.843-1.248-.987.25-1 1.048-.009 1.75-.778 1.75-1.917 0-1.84-.155-1.847-4.75-.209-4.197 1.496-4.787 2.07-5.065 4.921-.173 1.775-.735 2.968-1.25 2.65-.514-.318-.935.574-.935 1.981 0 1.892-.521 2.559-2 2.559-2.463 0-2.646-1.685-.25-2.311 1.478-.386 1.44-.477-.25-.588-1.69-.111-1.768-.294-.5-1.181 1.134-.793.585-.96-2.25-.685-3.224.312-3.754.076-3.782-1.686-.028-1.821-.167-1.871-1.251-.449-.772 1.015-1.917 1.356-3.125.932-5.469-1.918-14.936 1.051-15.835 4.968-.706 3.076 2.058 13.179 4.135 15.114 1.159 1.08 2.115 2.734 2.123 3.675.013 1.444.161 1.482.947.239.801-1.267 1.02-1.239 1.573.203.548 1.429 2.315 1.677 12.054 1.692 6.276.01 11.411-.368 11.411-.841s.563-.797 1.25-.721c.688.077 1.343-.311 1.457-.861.617-2.987 13.293-1.94 13.293 1.098 0 1.172 4.922 1.402 29.941 1.402 27.925 0 36.052-.745 27.832-2.55-7.316-1.607-9.863-5.773-5.63-9.21 1.178-.957 2.866-2.602 3.75-3.655 7.69-9.161 14.079-13.577 17.657-12.204.854.328 1.298.182.986-.323-.76-1.23 1.176-2.354 2.571-1.492.774.479.708.93-.221 1.505-.731.451-1.034 1.115-.674 1.475.36.36 1.247.287 1.971-.162 3.028-1.878 9.622-.495 8.247 1.729-.556.901.102 1.085 4.57 1.279 1.507.065 2.5.704 2.5 1.608 0 1.167-1.101 1.441-4.964 1.236-5.33-.283-5.36 1.357-.036 1.937 1.65.18 2.91.777 2.8 1.327-.297 1.478-6.006 2.394-7.239 1.161-.748-.748-1.061-.707-1.061.139 0 .66-.513 1.2-1.14 1.2-.627 0-1.652.702-2.279 1.559-1.739 2.378-6.82.22-6.394-2.715.47-3.238-1.347-3.204-4.957.093-4.075 3.722-4.071 5.289.02 6.923l3.25 1.298-3.998 1.455c-4.552 1.656-8.752 5.126-4.752 3.927 1.736-.521 2.25-.273 2.25 1.084 0 1.595.136 1.578 1.468-.183 1.17-1.547 1.475-1.625 1.5-.386.028 1.361 3.4 1.585 27.071 1.799 26.836.243 27.03.23 25.788-1.759-.688-1.102-.869-2.362-.402-2.8.467-.437 1.05-.232 1.295.455.246.688 1.272 1.25 2.28 1.25 1.008 0 1.983.438 2.167.973.183.534 3.61 1.275 7.616 1.646l7.282.674-.116-42.496c-.111-40.652-.199-42.567-2.044-44.146-2.389-2.046-2.905-2.067-2.905-.116 0 1.206-.413 1.314-1.928.503-1.699-.909-2.253-.368-4.662 4.556-2.125 4.344-2.447 5.765-1.444 6.385.71.439.976 1.305.593 1.926-.383.62-1.084.889-1.556.597-.472-.292-1.147.375-1.498 1.483-.352 1.108-1.172 2.022-1.822 2.03-.699.009-.57.412.317.985.825.533.992.976.371.985-.62.008-1.688 1.365-2.371 3.015-.683 1.65-1.808 3-2.5 3-1.818 0-3.835 5.529-3.094 8.481.57 2.271.338 2.519-2.356 2.519-2.315 0-2.85-.357-2.379-1.584.493-1.285.783-1.332 1.539-.25.634.907.806.302.538-1.892-.217-1.774-.032-3.349.412-3.5.443-.151.97-1.78 1.17-3.621.201-1.84.771-3.64 1.267-4 .497-.359 1.051-1.328 1.232-2.153.18-.825 1.605-4.425 3.166-8s3.151-8.187 3.533-10.25c.382-2.062 1.095-3.75 1.583-3.75.489 0 .889-.9.889-2 0-1.753.973-2.425 3.126-2.16.344.042.924-2.567 1.29-5.798.387-3.422 1.469-6.897 2.591-8.324 1.06-1.348 1.605-2.772 1.212-3.166-.394-.393.17-1.363 1.252-2.155 3.66-2.676 4.498-8.627 4.514-32.064.011-16.767-.289-22.308-1.235-22.75-1-.466-1-.7 0-1.166.976-.456 1.25-11.74 1.25-51.475v-50.891l-87 .077c-50.664.044-87 .452-87 .974m126.235 2.562c-3.446.705-7.129 1.744-8.185 2.309-1.055.565-2.736 1.041-3.734 1.059-3.096.054-6.113 2.852-4.311 3.997.822.522 2.058.744 2.745.492.688-.252 1.25-.08 1.25.383 0 .697-7.339 2.415-9 2.107-.275-.051-.459-1.022-.409-2.157.079-1.805-.342-1.994-3.356-1.505-2.843.462-3.536.218-3.957-1.395-.281-1.075-1.189-1.954-2.017-1.954-1.166 0-1.248-.311-.362-1.378.951-1.146.254-1.34-4.127-1.146-2.9.128-7.641-.077-10.537-.456-3.729-.488-5.569-.323-6.307.567-1.273 1.533-8.408 2.852-10.025 1.853-3.822-2.362-14.566.039-17.842 3.987-.718.865-1.91 1.573-2.649 1.573-.738 0-2.868 1.34-4.733 2.977-1.865 1.638-3.644 2.724-3.954 2.415-.31-.31-1.051.348-1.647 1.462-.716 1.338-.743 2.235-.081 2.644.552.341 1.003.143 1.003-.439s1.238-1.052 2.75-1.044c2.061.012 2.386.246 1.298.934-.799.506-1.811.697-2.25.426-1.542-.953-.779.919.864 2.12 2.049 1.498 1.1 4.735-1.135 3.877-1.119-.43-1.379-.149-.934 1.011.339.883 1.019 1.357 1.512 1.052 1.412-.873 1.045 1.407-.641 3.98-.845 1.289-1.633 4.086-1.75 6.215-.148 2.678-.676 3.87-1.714 3.87-.825 0-2.175.706-3 1.569-.825.864-2.288 1.862-3.25 2.219-.962.357-1.75 1.338-1.75 2.181 0 2.141-.733 1.922-3.476-1.038-2.215-2.39-2.445-2.442-3.317-.75-.515 1.001-.735 2.382-.488 3.07.286.799-.123 1.031-1.135.643-.969-.372-1.584-.077-1.584.758 0 .752-.9 1.929-2 2.616-1.676 1.046-2 .999-2-.295 0-1.246-.395-1.332-2.048-.447-1.418.758-1.859 1.693-1.433 3.035.361 1.135.149 1.939-.511 1.939-.619 0-.848-.45-.508-1 .34-.55.217-1-.274-1-1.531 0-7.226 7.781-7.226 9.874 0 1.113-.882 2.271-2 2.626-1.134.36-2.05 1.58-2.115 2.817-.064 1.201-.22 2.633-.348 3.183-.128.55-.301 1.589-.385 2.309-.083.72-.58 1.044-1.103.721-1.208-.746-3.521 6.797-2.723 8.878.348.905 1.243 1.311 2.136.968 1.888-.724 2.086 1.901.288 3.803-1.666 1.761-3.896 7.602-4.323 11.321-.189 1.65-.105 2.212.188 1.25.316-1.041 1.517-1.75 2.962-1.75 2.128 0 2.399.405 2.177 3.25-.411 5.256-5.754 7.191-5.754 2.083 0-5.039-1.555-1.37-1.917 4.524-.047.768-.719 1.113-1.548.795-1.486-.571-4.021 5.752-2.981 7.435.263.426.045 1.043-.484 1.37-.593.366-.406 2.172.484 4.695.795 2.255 1.446 4.969 1.446 6.033 0 1.063.419 1.674.931 1.358.512-.317 1.183-.168 1.491.331.597.966 16.593 9.106 18.78 9.556 2.788.575 4.761 1.821 4.233 2.675-.304.492-.076.895.506.895s1.059-.45 1.059-1 .637-1 1.417-1c.779 0 1.643-.562 1.921-1.25.403-1 .52-1 .583 0 .043.688 1.204 1.25 2.579 1.25 1.375 0 2.5.482 2.5 1.071 0 .59.718.354 1.595-.523 2.446-2.446 7.117-4.596 8.681-3.995 1.94.744 4.559-2.419 2.868-3.464-.746-.461-1.068-2.209-.82-4.456.43-3.907 1.66-5.943 2.378-3.939.767 2.143 3.018.295 2.56-2.103-.524-2.741 1.669-3.961 3.533-1.966.742.795.845 1.375.244 1.375-.571 0-1.039.675-1.039 1.5s.482 1.5 1.071 1.5c.59 0 .384.688-.457 1.529-1.983 1.983-1 4.471 1.767 4.471 1.906 0 2.164-.544 2.143-4.5-.016-3.054.397-4.5 1.285-4.5.72 0 1.031.45.691 1-1.45 2.347 1.847.72 5.067-2.5 1.925-1.925 3.822-3.545 4.216-3.599 4.042-.56 6.217-.428 6.217.376 0 .532.748.35 1.662-.405 2.189-1.808 5.686-1.751 6.431.106 1.275 3.176 5.171-8.961 6.57-20.464.266-2.193.841-4.443 1.277-5 .435-.558 1.043-4.505 1.349-8.772.522-7.251 3.259-14.456 5.917-15.575.435-.183.516-1.425.181-2.761-.464-1.848.254-3.482 3.002-6.836 4.059-4.954 4.383-5.796 1.861-4.851-1.591.596-1.614.479-.25-1.282 2.242-2.895 3.363-3.464 4.208-2.134.581.914.765.901.777-.053.021-1.721 3.677-5.237 4.592-4.417.409.367.377.035-.071-.738-.529-.911-.434-1.168.27-.733 1.349.833 2.333-.582 1.408-2.025-.999-1.56-5.184-2.693-5.184-1.404 0 .587-.702 1.067-1.559 1.067s-1.31-.403-1.006-.895c1.431-2.315-5.63-2.767-7.891-.506-1.184 1.184-1.941 1.316-2.914.509-1.661-1.379-2.63-.436-2.63 2.559 0 1.283-.45 2.333-1 2.333s-1-.874-1-1.943c0-2.07-4.143-2.128-4.83-.067-.529 1.588-3.17 1.179-3.17-.49 0-1.746-11.219-2.175-15.203-.581-5.09 2.035-6.401 2.437-8.797 2.697-2.422.263-2.437.226-.5-1.159 1.1-.786 3.051-2.336 4.335-3.443 2.376-2.049 4.325-2.298 15.898-2.024 4.243.1 6.949-.354 8.473-1.422 1.231-.862 1.689-1.568 1.017-1.568-.673 0-1.223-.401-1.223-.892 0-1.364 5.036-2.323 6.374-1.213.65.54 3.419 1.197 6.154 1.46 2.735.263 5.803.806 6.819 1.206 1.349.531 2.5-.054 4.263-2.167l2.414-2.894-.62 2.75c-.545 2.413-.325 2.75 1.799 2.75 2.85 0 6.79-3.349 6.812-5.789.01-1.098.279-1.303.75-.572.533.826 1.09.757 2.024-.25.83-.893.898-1.389.191-1.389-.604 0-.82-.45-.48-1 .88-1.423-.856-1.24-2.371.25-1.025 1.008-1.13.67-.546-1.75.399-1.65 1.038-3.225 1.421-3.5.383-.275 1.266-1.581 1.963-2.902 1.092-2.072 1.054-2.32-.278-1.809-2.667 1.023-4.12-1.834-2.689-5.288 1.171-2.827 5-4.359 5-2.001 0 1.634 2.783 1.137 4.205-.75 1.871-2.481 5.579-4.409 6.284-3.267.36.582 1.431.555 2.807-.072 1.435-.654 4.265-.694 7.971-.113 5.154.808 15.2.068 16.483-1.215 2.134-2.134-10.046-7.754-12.936-5.968-.615.38-1.612.033-2.216-.772-.942-1.254-1.99-1.279-7.363-.179M190.25 449.706c-1.238.238-2.25.893-2.25 1.456 0 .562-.9 2.167-2 3.565-2.058 2.616-2.786 9.669-1.105 10.708 1.402.867 2.085-2.055.785-3.355-.884-.884-.806-1.387.328-2.096 1.136-.71 1.569-.402 1.813 1.292.176 1.223.995 2.747 1.82 3.385 1.319 1.022 1.296 1.275-.193 2.108-1.527.855-1.467 1.104.614 2.562 2.54 1.779 5.875 1.365 9.869-1.223 1.336-.866 3.117-1.582 3.956-1.591.839-.009 2.511-1.476 3.715-3.26 2.533-3.752 1.734-9.738-1.715-12.859-2.576-2.331-3.539-1.043-1.522 2.036 3.451 5.268 1.246 7.637-2.376 2.551-2.025-2.844-6.933-6.148-8.689-5.849-.44.075-1.812.331-3.05.57m-65.389 20.767c-.311.31-9.294.812-19.963 1.114-30.123.852-28.262.625-25.148 3.061 1.524 1.193 1.106 1.293-3.25.777-5.258-.623-11.055.869-10.001 2.573.34.551.142 1.002-.44 1.002S65 479.462 65 480.026c0 .577 1.352.326 3.093-.574 1.701-.88 3.274-1.418 3.496-1.196.388.388-.1.907-5.574 5.933l-2.486 2.282 3.932.639c3.893.633 7.801-1.254 6.021-2.908-.416-.386-.958-.137-1.204.554-.247.691-.86 1.002-1.363.691-3.618-2.236 3.916-5.726 9.595-4.445 2.134.482 4.288.623 4.786.315.499-.308 4.349-.946 8.555-1.416 11.546-1.292 12.987-1.748 13.338-4.217.358-2.513 4.37-3.276 5.244-.998.297.774 1.109 1.333 1.804 1.242 3.718-.486 5.369 1.956 4.879 7.223-.135 1.458.233 2.947.819 3.309.586.362 1.065 1.569 1.065 2.682 0 1.19.516 1.842 1.25 1.581.688-.244 1.143-1.406 1.012-2.583-.503-4.521 1.703-1.884 2.321 2.774.632 4.761 3.634 7.758 4.738 4.73.306-.838.921-.852 2.298-.052 2.31 1.341 6.998.79 9.764-1.148 1.134-.794 2.524-1.437 3.09-1.429.565.009.352.452-.473.985-1.232.796-1.128.972.583.985 3.474.025 2.333-2.693-1.686-4.019-3.463-1.143-5.993-4.451-6.473-8.466-.066-.55-.188-1.548-.272-2.219-.083-.67-.777-.978-1.541-.685-.767.294-1.176 1.351-.913 2.356.262 1.002-.016 2.127-.619 2.499-1.34.828-4.079-1.743-4.079-3.83 0-.837-.787-1.962-1.75-2.501-1.553-.869-1.441-1.097 1-2.025 1.512-.575 2.75-1.507 2.75-2.07 0-.564.713-1.025 1.583-1.025.871 0 1.398-.562 1.172-1.25-.412-1.253-8.832-2.339-9.894-1.277M100.5 482.018c-2.2.452-7.346 1.321-11.435 1.931-5.282.787-8.736 1.969-11.922 4.08-2.467 1.634-5.646 3.038-7.064 3.119l-4.333.25c-.964.056-2.645 1.564-3.735 3.352-1.18 1.935-2.796 3.25-3.996 3.25-1.108 0-2.015.388-2.015.862 0 .942 3.47.732 6.25-.377 1.316-.526 1.75-.203 1.75 1.301 0 2.16-2.56 3.735-3.527 2.17-.782-1.265-3.473-1.231-3.473.044 0 .55.702 1 1.559 1 .924 0 1.268.47.846 1.155-.443.715-.275.883.44.44 1.466-.905 1.511.649.062 2.098-.736.736-.773 1.698-.115 2.95.538 1.021 1.283 4.332 1.656 7.357.372 3.025 1.298 8.425 2.056 12 2.047 9.648 3.603 18.208 3.772 20.75.082 1.237.493 2.25.912 2.25.419 0 .492 1.35.162 3-.33 1.65-.206 3.001.275 3.002.481.002.915 2.364.963 5.25.082 4.866 5.557 22.945 9.043 29.858.724 1.435 1.028 2.898.676 3.25-.352.352-.115.64.526.64.642 0 1.167.815 1.167 1.812 0 .997 1.35 2.81 3 4.03 1.65 1.22 3 1.754 3 1.188 0-2.575 2.739-.626 4.526 3.22 2.18 4.694 6.167 5.85 9.712 2.814 2.204-1.887 2.661-18.042.512-18.094-.687-.017-.35-.54.75-1.162 1.1-.622 2.374-1.758 2.831-2.525.987-1.657 3.669.053 3.669 2.339 0 .758.257 1.378.571 1.378 1.15 0 3.429-2.899 3.429-4.361 0-1.521-3.68-3.292-4.707-2.265-.306.305-1.397.106-2.424-.444-1.569-.84-1.869-2.199-1.869-8.465 0-5.969-.301-7.465-1.5-7.465-1.831 0-1.837-.122-.152-3.371.742-1.429 1.684-2.268 2.094-1.864.409.404.607-.886.439-2.867-.183-2.162.372-4.635 1.388-6.186 1.309-1.997 1.519-3.567.924-6.899-.424-2.372-.691-6.563-.593-9.313.098-2.75-.223-5.76-.713-6.689-.549-1.04-.507-1.928.11-2.309.552-.341 1.039-1.606 1.082-2.811.043-1.205.29-1.676.548-1.047.258.629 1.251.939 2.208.689 1.919-.502 2.737-4.862 1.101-5.872-.666-.412-.692-1.052-.073-1.8.528-.639.923-2.286.877-3.661-.045-1.375.216-8.35.581-15.5.924-18.086-.273-19.857-11.821-17.482m89.5 35.809c0 1.069.652 3.201 1.449 4.737s1.22 3.162.941 3.614c-.28.452.28.822 1.242.822 1.597 0 1.608.109.131 1.25-1.698 1.312-2.452 5.201-1.501 7.75.308.825 1.082 3.75 1.72 6.5.638 2.75 1.977 5.9 2.974 7 .998 1.1 2.121 3.013 2.496 4.25.376 1.237 1.129 2.25 1.674 2.25.546 0 .757.38.47.844-1.071 1.733 3.286 10.694 6.507 13.383 2.496 2.084 2.879 2.773 1.54 2.773-1.274 0-1.691.638-1.463 2.237.369 2.579 6.372 4.095 10.776 2.722a76.11 76.11 0 0 1 5.294-1.395c1.512-.331 2.75-1 2.75-1.485 0-1.134-5.947-3.23-7.115-2.508-.487.301-.919.183-.962-.262-.332-3.513-3.853-12.524-5.369-13.741-.732-.587-1.648-2.867-2.034-5.066-.387-2.198-1.217-4.315-1.844-4.702-.627-.388-1.255-3.764-1.395-7.503-.365-9.705-.744-11.945-2.355-13.886-.784-.945-1.313-1.987-1.176-2.315.137-.328-.312-.596-1-.596-.687 0-1.137.563-1 1.25.354 1.772-1.695 1.557-2.388-.25-.317-.825-1.623-1.5-2.902-1.5-1.447 0-2.565-.755-2.96-2-.349-1.1-1.265-2-2.036-2-.79 0-1.167-.611-.864-1.399.295-.769.056-1.696-.532-2.059-.618-.382-1.068.16-1.068 1.285m-14.769 5.971c-1.798.182-3.021.733-2.718 1.223.303.49-.139 2.541-.981 4.557-2.168 5.189-2.028 12.086.272 13.317 2.542 1.36 3.514.447 7.085-6.651 4.437-8.824 3.169-13.139-3.658-12.446m-32.756 168.161c.354.573.181 1.041-.385 1.041-.565 0-.768.675-.452 1.5.602 1.567.43 1.656-3.638 1.869-1.518.079-2.402-.36-2.25-1.119.313-1.566-.797-1.553-2.756.032-1.987 1.608-2.316 6.779-.384 6.037 1.838-.705 1.767.447-.146 2.36-.845.844-2.42 1.304-3.5 1.022-1.7-.445-1.964.002-1.964 3.321 0 3.614-1.963 6.978-4.073 6.978-.511 0-.816-2.362-.678-5.25.238-4.987.126-5.253-2.249-5.309-1.375-.033-3.811 1.013-5.414 2.323-1.74 1.423-3.695 2.179-4.851 1.877-1.305-.341-3.056.613-5.369 2.926-1.888 1.888-4.099 3.433-4.913 3.433-.814 0-2.262.417-3.217.927-1.693.904-4.509 1.905-5.996 2.131-.407.061-1.19.484-1.74.938-1.218 1.007-6.672.091-5.994-1.006.619-1.001-1.165-1.668-6.628-2.479-4.602-.683-8.878 1.711-8.878 4.971 0 .865-.767 1.255-2 1.018-1.164-.224-2 .153-2 .902 0 2.072-3.209 4.293-7.25 5.017-5.273.945-4.372 3.581 1.225 3.581 2.777 0 3.183 2.658.999 6.546-2.556 4.551-2.503 5.095.776 7.915l2.749 2.365 2.672-3.163c2.216-2.625 2.982-2.977 4.5-2.071 2.322 1.386 4.325.728 4.344-1.425.01-1.144.427-.882 1.328.833 2.585 4.921-1.933 7.616-6.226 3.715-1.885-1.713-2.299-1.83-1.828-.516.409 1.142-.03 1.901-1.34 2.317-1.072.34-1.951 1.151-1.953 1.801-.003.651-1.265 3.083-2.805 5.405l-2.801 4.221.291 18.779c.314 20.269-.02 23.278-2.583 23.278-1.003 0-1.669.799-1.669 2 0 1.1.548 2 1.218 2 .67 0 1.522.956 1.893 2.125.762 2.401-.811 3.836-4.231 3.86-1.205.008-2.474.472-2.819 1.031-.346.559-1.047.758-1.559.441-.888-.548-1.323 4.831-1.297 16.043.023 9.873.607 19.967 1.055 18.25.878-3.36 2.93-1.924 2.501 1.75-.226 1.932-.973 3.5-1.669 3.5-1.53 0-2.495 5.323-2.51 13.844-.01 5.507.253 6.412 1.989 6.866 1.202.315 2.008 1.374 2.019 2.657.181 20.117.561 24.641 2.207 26.288 2.262 2.261 3.047 1.311 3.047-3.688 0-6.733 1.94-2.91 3.442 6.783l.504 3.25h8.859c7.093 0 8.754-.273 8.333-1.371-.289-.754.275-1.678 1.254-2.054 1.172-.45 1.395-.92.652-1.379-.62-.383-1.297-2.718-1.504-5.189-.442-5.277-3.174-6.817-4.748-2.677-1.123 2.954-3.065 4.403-3.065 2.288 0-2.807-2.074-2.793-4.29.029-1.216 1.548-2.097 3.16-1.96 3.584.138.423-.149.769-.637.769-1.056 0-1.74-4.389-1.292-8.295.258-2.249.698-2.675 2.25-2.183 1.061.337 1.929.154 1.929-.408 0-1.54 6.731-4.418 8.967-3.833 1.078.282 2.481-.116 3.119-.884.637-.768.795-1.397.349-1.397-.445 0 .445-1.309 1.977-2.909 2.265-2.363 2.663-3.471 2.127-5.913-.544-2.476-.297-3.12 1.401-3.659 1.133-.359 2.06-1.318 2.06-2.131 0-1.602 8.613-1.529 12.372.106 1.166.507 3.645.176 6.572-.877 2.586-.93 5.364-1.436 6.174-1.125 1.532.588 6.184-3.857 5.134-4.906-.322-.322.404-.586 1.613-.586s2.452.663 2.764 1.474c.498 1.299.74 1.299 2.04 0 .81-.811 2.454-1.45 3.652-1.422 2.14.052 2.135.084-.267 1.75-1.345.934-3.37 2.471-4.5 3.415-2.039 1.704-2.034 1.717.696 1.75 1.513.018 2.75-.408 2.75-.948 0-.539 1.237-1.284 2.75-1.654 1.512-.37 3.06-1.148 3.439-1.729.451-.691 1.342-.465 2.579.654 1.039.94 2.304 1.711 2.811 1.712.506.002 2.496 1.351 4.421 2.998 1.925 1.647 3.849 2.996 4.275 2.998.426.001 1.202 1.127 1.725 2.502.523 1.375 1.621 2.5 2.44 2.5 1.294 0 3.669 3.005 4.15 5.25.088.413.216.995.285 1.295.069.3 1.27-.6 2.67-2 3.176-3.175 4.791-3.204 7.21-.129 2.614 3.323 5.095 1.904 3.685-2.107-.544-1.545-1.427-2.75-1.964-2.677-.537.072-1.864-.491-2.949-1.25-1.084-.76-2.798-1.382-3.809-1.382-1.037 0-1.551-.46-1.182-1.059.36-.583 1.85-.92 3.31-.75 2.354.274 2.632-.009 2.456-2.509-.187-2.677-.037-2.782 3-2.1 1.759.395 4.155.83 5.324.966 4.646.543 10.524 5.452 6.528 5.452-1.448 0-1.914.461-1.516 1.5.317.825 1.203 1.5 1.969 1.5s1.393.45 1.393 1 .8 1 1.777 1c.978 0 2.856.755 4.173 1.677 1.317.923 4.455 1.768 6.972 1.879 14.807.652 23.657 1.773 24.744 3.136.641.803 1.766 1.551 2.5 1.662 3.474.526 4.611 3.962 2.462 7.438-.475.769-.107 1.208 1.013 1.208 1.368 0 1.492.267.559 1.2-.66.66-1.193 1.897-1.185 2.75.012 1.141.224 1.222.804.308.609-.958 1.636-.81 4.485.642 3.408 1.737 3.696 1.752 3.696.183 0-.935.644-2.574 1.432-3.642 1.285-1.742 1.174-2.212-1.079-4.578l-2.511-2.638 2.319-2.16c1.563-1.457 3.063-1.975 4.601-1.589 1.519.382 2.477.064 2.867-.951.322-.839 1.662-1.525 2.978-1.525 1.316 0 2.393-.589 2.393-1.309s.636-2.178 1.412-3.24c1.37-1.873 1.494-1.844 4.094.961 1.475 1.592 2.888 4.031 3.14 5.421.663 3.657.947 3.88 4.31 3.387 3.069-.451 3.902-1.572 2.028-2.73-.559-.346-.781-1.01-.492-1.476.748-1.212 8.616-.458 9.459.907.455.737 1.507.845 2.965.306 2.037-.754 2.101-.968.654-2.169-.883-.733-2.385-1.408-3.338-1.5-6.321-.609-15.232-5.353-15.232-8.11 0-.792 4.076-.477 5.816.45.926.493 2.809 1.056 4.184 1.25 1.375.193 2.725.577 3 .852 1.67 1.67 5.458 3 8.545 3 2.128 0 3.323.405 2.955 1-.34.55-.254 1.034.191 1.077.445.042 1.709.315 2.809.606 4.711 1.249 10.751 1.466 11.792.425 1.38-1.38 3.708-1.448 3.708-.108 0 .55-.635 1-1.412 1-1.951 0-1.326 4.74.834 6.319 2.653 1.94 1.045 5.122-1.638 3.242-2.559-1.792-5.047-.98-3.949 1.289.438.907.711 2.213.606 2.9a84.916 84.916 0 0 0-.316 2.309c-.069.582-.575.781-1.125.441s-1 .11-1 1 .45 1.34 1 1c.55-.34 1 .309 1 1.441 0 2.743 5.88 2.774 11.5.059 2.2-1.063 4.563-1.947 5.25-1.966 1.096-.03 1.728-2.008 1.368-4.284-.065-.413.38-.75.989-.75s.848-.675.531-1.5c-.357-.932.006-1.5.961-1.5 1.048 0 1.346.597.939 1.882-.83 2.614 2.144 3.557 5.103 1.618 1.297-.851 2.345-1.198 2.327-.773-.078 1.891-2.815 4.072-6.968 5.554l-4.5 1.605 4 .009c2.2.004 5.913.036 8.25.071 7.877.116 8.836-.117 8.992-2.191.082-1.086.792-2.492 1.578-3.125 1.162-.935 1.27-2.702.577-9.444-.795-7.737-1.132-8.626-5.031-13.25-2.299-2.726-4.96-4.956-5.916-4.956-.955 0-2.02-.739-2.367-1.643-.346-.904-.916-1.358-1.265-1.009-.348.349-1.174.187-1.833-.361-.841-.697-2.331-.096-4.98 2.009-2.079 1.652-4.506 3.007-5.393 3.01-.886.004-2.901.679-4.476 1.5-5.079 2.649-9.758 1.943-14.191-2.14-2.642-2.434-4.859-3.612-6.713-3.566-1.522.037-2.606-.24-2.409-.616.588-1.118-3.189-4.209-3.846-3.148-.994 1.61-3.756 1.134-3.115-.536.316-.825.139-1.5-.393-1.5-.533 0-.969-.45-.969-1s1.125-1 2.5-1 2.5-.45 2.5-1-.873-1-1.941-1c-2.993 0-3.388-1.73-1.122-4.911 1.135-1.594 2.063-3.391 2.063-3.993 0-.603.337-1.103.75-1.111 3.066-.063 3.527-1.98.961-3.997-5.352-4.21-3.612-5.409 5.289-3.645.275.055 5.034-.512 10.575-1.26 5.957-.804 13.314-1.114 18-.757 20.976 1.596 31.224 2.667 34.425 3.597 5.393 1.569 31.009 6.179 35.5 6.389 3.983.187 4 .205 3.924 4.188-.228 11.88-1.631 24.783-3.344 30.75-1.067 3.712-1.69 6.75-1.387 6.75.304 0 .085.563-.486 1.25-.57.688-1.067 1.59-1.104 2.004-.037.415-.364 1.937-.726 3.382-.475 1.889-.199 2.884.982 3.545 2.686 1.503 1.866 2.814-1.359 2.169-3.378-.676-4.125.978-1.158 2.565 1.95 1.044 43.597 1.401 50.837.436 3.031-.404 4.032-.941 3.643-1.954-.615-1.602 2.215-1.955 3.178-.397.955 1.545 2.305 1.185 2.811-.75.334-1.28.488-1.128.573.566.096 1.916.592 2.262 2.866 2l2.75-.316.165-84.5c.09-46.475-.072-85.725-.362-87.223-.516-2.672-.557-2.686-2.164-.743-1.659 2.006-4.274 2.44-9.536 1.582-3.846-.627-6.528-4.616-3.103-4.616.825 0 1.5.368 1.5.817 0 .45 1.912.562 4.25.25 5.135-.685 5.594-2.439.759-2.898-4.003-.38-4.96-1.46-5.024-5.669-.039-2.547-.201-2.733-1.077-1.229-.567.974-1.444 1.516-1.949 1.204-1.253-.775-5.149 1.409-4.471 2.506.3.484.138 1.132-.358 1.439-2.489 1.538-4.591-6.556-4.201-16.17.201-4.955-.052-6.25-1.221-6.25-.811 0-1.709-.897-1.996-1.994-.457-1.746-1.085-1.917-5.06-1.372-3.512.482-4.919.242-6.219-1.058-1.219-1.219-2.54-1.497-4.807-1.011-3.927.84-4.439 1.315-2.626 2.435.793.49 1.23 1.052.971 1.248-1.459 1.106-5.976 3.752-6.404 3.752-.278 0-.263-.629.033-1.399.72-1.878-1.478-3.123-2.937-1.664-.64.64-1.179 1.478-1.198 1.863-.02.385-.598 1.713-1.286 2.95-1.288 2.32-3.372 3.121-2.929 1.125.137-.619-.312-1.331-1-1.583-1.07-.393-1.782 2.109-1.391 4.891.16 1.136-10.111 8.9-11.264 8.515-.591-.197-.939-1.925-.774-3.84.254-2.95-.111-3.669-2.39-4.707-3.612-1.646-4.014-.922-1.064 1.917 1.951 1.878 2.252 2.803 1.531 4.7-.494 1.299-.898 3.517-.898 4.929 0 1.412-1.012 4.173-2.25 6.137-1.238 1.963-2.962 5.612-3.833 8.107-1.531 4.39-1.71 4.533-5.5 4.386-2.154-.084-2.905.065-1.667.33 1.238.265 2.25 1.105 2.25 1.865 0 2.445-2.279 6.478-3.661 6.478-1.38 0-1.662 1.73-1.354 8.319.2 4.282-1.865 9.357-4.938 12.139-1.126 1.018-2.047 2.468-2.047 3.222 0 .753-1.238 1.841-2.75 2.418-3.301 1.259-11.244.265-11.265-1.409-.011-.852-.224-.873-.75-.074-1.149 1.744-5.235 2.744-5.235 1.281 0-.681-.731-2.046-1.625-3.034-1.548-1.711-1.794-1.634-5.262 1.652-2 1.896-4.509 5.144-5.573 7.217-1.065 2.073-2.799 4.753-3.854 5.957-1.055 1.203-2.149 4.24-2.432 6.75-.442 3.921-.832 4.562-2.777 4.562-1.245 0-2.542.726-2.882 1.614-.419 1.091-1.424 1.461-3.101 1.14-1.406-.269-2.97.115-3.61.886-2.741 3.303-4.406-1.236-2.16-5.89 1.222-2.532 1.167-2.75-.698-2.75-3.291 0-2.412-3.167 2.462-8.878 2.469-2.892 4.832-5.852 5.25-6.578.419-.725 2.787-2.45 5.262-3.831 5.177-2.89 11.019-10.657 10.96-14.572-.037-2.45-.179-2.362-1.969 1.224-3.371 6.753-6.875 10.635-9.601 10.635-1.379 0-2.238.437-1.908.971.33.534-.544 1.257-1.941 1.608-1.398.351-2.541 1.049-2.541 1.551s-1.125 1.425-2.5 2.052c-1.375.626-2.5 1.967-2.5 2.979 0 1.011-.406 1.839-.901 1.839-1.396 0-4.728 6.21-5.478 10.207-.675 3.6-3.1 6.647-4.319 5.428-.86-.859-1.049-5.635-.224-5.635.976 0-.179-4.978-1.195-5.15a30.338 30.338 0 0 0-2.133-.25c-1.935-.155-3.822-3.25-3.111-5.103.51-1.328.81-1.395 1.485-.331.52.82.845-.784.845-4.166 0-3.025-.436-6.175-.969-7-.689-1.066-.974.148-.985 4.191-.008 3.13-.453 5.962-.989 6.293-2.002 1.237-.509-12.001 1.794-15.903 1.948-3.301 2.001-3.693.466-3.398-.955.184-2.215 1.295-2.8 2.469-4.254 8.533-8.514 5.627-6.865-4.684.534-3.342.947-3.818 3.25-3.753 3.377.096 7.129-1.088 7.129-2.251 0-.496-.653-.65-1.452-.344-2.3.883-4.14-.709-2.124-1.837 1.11-.622 2.157-.545 3.085.224 1.807 1.501 3.491.445 3.491-2.188 0-1.812-.206-1.896-1.687-.691-1.485 1.208-1.605 1.153-1-.46.378-1.007.687-2.271.687-2.809 0-.537.437-.707.971-.377.954.59 1.323-.506 2.522-7.482l1.164-6.75c.309-1.788.993-3.25 1.52-3.25s.684.862.35 1.916c-.335 1.054-.164 2.19.378 2.525 1.002.619 3.079-5.345 3.089-8.868.003-1.06 1.806-5.646 4.006-10.191 2.2-4.545 4.007-9.078 4.015-10.073.025-2.961 1.375-4.231 4.774-4.49 3.585-.273 4.451-1.819 1.02-1.819-2.139 0-2.145-.034-.25-1.433 1.367-1.009 1.629-1.749.885-2.505-.749-.761-1.694-.478-3.256.977-2.931 2.731-5.599 6.883-4.884 7.599.317.316-.229 1.439-1.213 2.494-1.547 1.661-2.311 3.559-4.763 11.84-.383 1.296-.547 1.296-1.366 0-.778-1.23-.934-1.239-.947-.055-.008.779-.304 1.128-.656.775-.353-.352-.564-3.719-.469-7.481.167-6.59.043-6.974-3.407-10.525-3.713-3.823-5.842-4.784-4.845-2.186.317.825.048 1.5-.598 1.5-1.341 0-.377 4.11 1.202 5.125.616.396.589.862-.074 1.271-.575.355-1.463-.102-1.975-1.015-.511-.914-1.439-1.347-2.061-.962-1.636 1.01-1.391 4.544.361 5.217 2.781 1.067-1.211 9.364-4.505 9.364-.595 0-.807 1.626-.515 3.951.273 2.172.053 4.224-.488 4.559-.582.359-.985-.985-.985-3.284 0-5.123-.672-5.592-4.568-3.184-1.793 1.108-3.637 1.949-4.096 1.868-1.852-.326-2.132.207-1.448 2.763.839 3.138 5.728 4.491 6.736 1.864 1.37-3.569 2.384-1.059 2.209 5.463-.162 6.037-.439 7-2.011 7-1.002 0-1.822.45-1.822 1s.675 1 1.5 1c1.964 0 1.932 1.62-.047 2.38-.851.326-1.413 1.387-1.25 2.357.4 2.375-2.572 2.299-3.03-.078-.195-1.012-1.274-2.76-2.398-3.884-1.79-1.79-1.972-2.883-1.474-8.827.462-5.505.283-6.894-.948-7.366-2.216-.851-2.353-.772-2.353 1.359 0 1.068-.45 2.219-1 2.559-.588.363-1.013-.746-1.03-2.691-.024-2.53-.25-2.933-.964-1.712-.53.906-2.346 1.637-4.2 1.689-1.796.052-3.425.57-3.619 1.154-.618 1.854-2.036 1.142-2.367-1.19-.385-2.707 1.945-5.75 4.402-5.75 2.032 0 2.403-1.606.528-2.288-.999-.363-.998-.832.006-2.333.691-1.034 1.531-2.554 1.867-3.379.336-.825 1.118-2.737 1.738-4.25.62-1.513 1.432-2.75 1.804-2.75.372 0 .962-1.303 1.312-2.896.35-1.593 1.507-3.684 2.57-4.647 1.821-1.647 1.833-1.824.205-3.015-.952-.696-2.072-1.053-2.491-.794-.419.258-.761-.055-.761-.696 0-.641-.646-.918-1.435-.615-.79.303-1.617.013-1.838-.643-.292-.868-.895-.787-2.209.298-1.676 1.385-1.753 1.313-1.068-1 .889-3.001-9.215 6.99-11.797 11.664-3.655 6.617-5.749 12.525-4.847 13.67 2.489 3.158 1.962 6.614-1.401 9.179-6.414 4.892-10.872 4.221-19.905-2.996-2.2-1.757-6.25-4.27-9-5.584-10.695-5.108-29.68-2.032-39.451 6.392-2.059 1.775-3.607 2.51-3.836 1.823-.211-.634-.795-.898-1.298-.587-.503.311-.915-.064-.915-.833 0-.77 1.171-1.932 2.602-2.584 2.821-1.286 1.848-4.136-1.413-4.136-1.216 0-1.076-.457.629-2.045 1.207-1.125 2.887-3.101 3.733-4.392.928-1.417 3.261-2.782 5.881-3.442 2.389-.601 4.592-1.74 4.895-2.532.764-1.989 7.645-5.105 10.461-4.736 2.545.334 5.51-1.561 4.642-2.966-.301-.488-1.646-.887-2.989-.887-2.777 0-3.505-3.378-.941-4.362.825-.316 1.5-1.223 1.5-2.015 0-1.185-2.751-1.463-15.584-1.572-10.573-.09-15.378.202-14.941.908m176.32 5.675c-.866.865-3.086 1.883-4.934 2.261-1.965.401-3.361 1.293-3.361 2.146 0 .802-.562 2.054-1.25 2.78-1.549 1.638-1.667 9.179-.143 9.179.609 0 .863-.635.566-1.411-.579-1.507 5.465-6.088 8.89-6.738 1.298-.247 2.049-1.354 2.277-3.356.187-1.644.771-3.255 1.298-3.58.557-.344.387-1.064-.407-1.723-1.035-.859-1.741-.753-2.936.442m-180.888 15.799c-1.868 3.167-6.907 7.482-6.907 5.916 0-.384-1.125.359-2.5 1.651-3.046 2.862-3.39 7-.582 7 2.94 0 5.082-1.071 5.082-2.542 0-.731 1.575-1.898 3.5-2.594 3.199-1.157 3.95-2.011 3.618-4.114-.065-.413.257-.75.715-.75.459 0 .876-.562.928-1.25.052-.687.388-2.2.747-3.362 1.192-3.854-2.321-3.82-4.601.045m200.708-1.916c-2.176 1.135-3.22 1.226-4.25.371-1.019-.846-1.365-.841-1.365.021 0 .635.675 1.413 1.5 1.729.825.317 1.5 1.402 1.5 2.412s.95 2.502 2.111 3.315l2.112 1.479-2.112 2.267c-2.301 2.47-2.586 3.477-1.225 4.319.488.301 1.148-.452 1.468-1.674.475-1.818.814-1.985 1.863-.921 1.046 1.059.924 1.565-.658 2.732-1.068.788-1.401 1.433-.742 1.433.914 0 .9.491-.059 2.061-1.053 1.726-.989 2.26.394 3.288 1.055.784 1.48 2.127 1.176 3.717-.717 3.751 2.824 6.641 6.232 5.088 2.779-1.266 2.449-3.154-.552-3.154-2.531 0-3.777-3.99-1.622-5.196 2.154-1.205 2.062-2.967-.136-2.598-1.019.171-1.75-.332-1.75-1.206 0-.834.801-1.434 1.804-1.352 1.185.097 1.687-.417 1.463-1.5-.189-.917-1.1-1.518-2.053-1.354-1.005.172-1.714-.345-1.714-1.25 0-.849.45-1.544 1-1.544 1.974 0 .952-2.78-1.25-3.4-2.101-.591-2.134-.722-.5-1.977 2.626-2.016 2.114-2.946-1.25-2.273-3.779.756-4.137-1.511-.5-3.168 1.375-.627 2.5-1.599 2.5-2.161 0-1.29.055-1.298-3.385.496m49.192 1.303c-2.083.836 4.927 7.209 8.201 7.456 2.538.191 3.144 2.202 3.907 12.974.476 6.723.326 8.75-.648 8.75-.697 0-1.267-.45-1.267-1s-.705-1-1.567-1c-1.161 0-1.391-.585-.888-2.25.433-1.433.336-1.887-.269-1.25-2.185 2.304-3.327 13.774-1.629 16.364l1.603 2.447 1.427-3.395c.786-1.867 2.089-3.765 2.897-4.217.807-.452 1.239-1.193.958-1.647-.28-.453.338-1.046 1.373-1.317 1.093-.286 2.162-1.763 2.548-3.52.458-2.087 1.423-3.218 3.106-3.64 2.081-.523 2.441-1.205 2.441-4.625 0-2.644.512-4.209 1.5-4.588.825-.317 1.5-1.277 1.5-2.133 0-2.232-3.223-9.229-4.251-9.229-.477 0-.589.45-.249 1 1.081 1.749-.522 3.227-2.089 1.926-1.116-.926-1.411-.832-1.411.452 0 .892-.45 1.622-1 1.622s-1-.487-1-1.083-.533-.906-1.185-.689c-.652.218-3.153-1.545-5.559-3.916-4.405-4.343-5.353-4.735-8.449-3.492m-13.975 8.649c-.618 1.357-1.458 2.262-1.865 2.011-1.455-.9-3.379 2.508-2.125 3.762.637.637 1.158.825 1.158.419 0-.406.908.107 2.017 1.14 3.541 3.3 7.005 4.781 7.878 3.369.421-.681 1.516-.949 2.435-.597 3.596 1.38 1.133-8.978-2.807-11.808-2.224-1.596-5.576-.743-6.691 1.704m-56.197 1.04c-.318.829-1.716 2.027-3.107 2.66-1.39.634-2.528 1.918-2.528 2.855 0 1.182-1.639 2.218-5.36 3.388-5.885 1.851-10.126 5.584-11.177 9.838-.58 2.345-.37 2.75 1.429 2.75 2.15 0 2.845 1.426 1.193 2.447-.503.311-1.116 0-1.363-.691-.905-2.535-1.961.31-2.736 7.373-.776 7.067-.001 11.871 1.916 11.871.523 0 1.14.788 1.37 1.75.375 1.568.502 1.542 1.225-.25.444-1.1 1.526-2.835 2.405-3.855.879-1.02 1.585-2.145 1.568-2.5-.016-.355.567-.508 1.297-.341 2.538.583 11.359-7.804 10.697-10.172-.49-1.756-.394-1.867.547-.632.938 1.232 1.072 1.243.752.061-.516-1.909 5.299-11.665 9.573-16.061 2.645-2.72 3.376-4.28 3.283-7-.117-3.434-.199-3.5-4.369-3.488-2.337.006-4.25-.331-4.25-.75 0-1.362-1.77-.803-2.365.747m42.682 13.824c-5.566 10.921-8.274 22.011-6.281 25.734.636 1.189.977 3.388.758 4.886-.389 2.65-.276 2.718 4.153 2.511 6.38-.299 7.909-1.178 8.617-4.955.798-4.252-.945-7.509-4.017-7.509-3.419 0-5.547-1-5.547-2.607 0-.766-.54-1.393-1.2-1.393-.909 0-.919-.281-.042-1.158.876-.876 1.558-.824 2.81.215 2.926 2.428 5.988 2.212 7.228-.509.707-1.552.769-2.699.166-3.071-1.695-1.048-1.052-2.063 2.973-4.698 4.118-2.696 5.065-2.63 5.065.352 0 1.741 3.671 4.532 4.659 3.543 1.818-1.817-7.485-12.062-10.057-11.075-.739.284-1.599-.15-1.912-.964-.366-.955-1.339-1.278-2.742-.911-1.943.508-2.056.346-1.059-1.517.614-1.147.769-2.3.344-2.563-.425-.263-2.187 2.298-3.916 5.689m24.933 42.385c-.687.247-1.25 1.536-1.25 2.865 0 2.478-2.303 3.354-3.542 1.349-.363-.588-1.262-.838-1.997-.556-.734.282-1.517-.249-1.739-1.181-.262-1.105-1.326.221-3.053 3.805-1.457 3.025-2.654 5.113-2.659 4.639-.006-.473-.895.202-1.977 1.5-1.081 1.299-1.981 1.968-2 1.489-.018-.48-.708-.313-1.533.372-1.197.993-1.5.993-1.5 0s-.303-.993-1.5 0c-.825.685-1.514.852-1.532.372-.04-1.111-2.968 2.713-2.968 3.878 0 .477.526.543 1.17.145.787-.486.961-.178.531.941-.833 2.172.205 2.127 1.991-.086 1.293-1.603 1.356-1.55.753.625-.448 1.613-.304 2.156.448 1.691.674-.416 1.107.131 1.107 1.4 0 1.519-.819 2.248-3.021 2.688-1.661.332-3.237.954-3.501 1.381-.264.428-1.343.552-2.397.276-1.055-.276-2.681-.074-3.614.448-1.353.757-.854 1.083 2.465 1.614 2.344.375 3.896 1.096 3.553 1.651-.619 1.001 6.11.334 7.935-.787.506-.311.633.184.281 1.099-.52 1.355.006 1.664 2.83 1.664 2.483 0 3.469-.445 3.469-1.567 0-1.144.608-1.399 2.25-.942 3.3.917 9.834 3.459 13.089 5.093 3.619 1.816 4.11 1.456 5.685-4.169 1.007-3.597 1.038-5.355.137-7.847-1.536-4.246-1.466-5.574.4-7.635 3.345-3.697-3.886-17.805-8.311-16.215m-73.8 24.113c-.522.458-2.876 1.38-5.231 2.05-3.218.915-14.114 6.447-16.993 8.626-.785.594 1.164 3.364 3.096 4.398 1.768.946 2.964.873 5.915-.36 2.034-.85 5.057-1.545 6.717-1.545 3.676 0 12.046-2.153 12.046-3.099 0-.376-1.125-.967-2.5-1.312-3.137-.787-3.139-1.64-.012-4.577 3.285-3.086.341-7.138-3.038-4.181M66.5 810c-.34.55-.115 1 .5 1s.869.403.564.896c-.304.493.104 2.163.907 3.711 1.325 2.553 1.3 4.363-.131 9.643-.779 2.873-2.157 1.982-1.933-1.25.114-1.65-.156-3-.6-3-.444 0-.807 1.313-.807 2.917 0 1.604-.562 3.143-1.25 3.421-.757.305-.569.535.474.583.949.043 2.425 1.434 3.282 3.09 1.419 2.744 4.904 3.43 7.319 1.44.179-.148 1.667.117 3.307.587 1.683.482 3.938.47 5.175-.028 1.347-.542 1.602-.908.662-.947-1.12-.046-4.901-6.563-3.808-6.563.098 0-.401-1.081-1.108-2.402-1.172-2.188-1.12-2.332.581-1.621 3.539 1.48 6.366 1.764 6.366.64 0-.615-.927-1.117-2.059-1.117-1.132 0-1.781-.45-1.441-1 .53-.858-1.839-1.365-6.072-1.298-.59.009-2.615-2.149-4.5-4.796-3.558-4.995-4.387-5.591-5.428-3.906m71.006 20.994c-.999 1.103-2.221 2.006-2.716 2.006-1.279 0-10.19 4.111-10.79 4.978-.948 1.37-5.506 3.471-8 3.688-8.947.779-11 1.454-11.079 3.645-.043 1.204-.306 1.627-.583.939-.278-.687-.965-1.25-1.528-1.25-.563 0-.786.619-.496 1.376.31.809-.469 1.829-1.893 2.478-1.332.607-2.421 1.563-2.421 2.125 0 .561-1.125 1.021-2.5 1.021-3.758 0-3.005 1.815 1.07 2.579 2.341.439 4.97.12 7.638-.928 2.237-.879 4.385-1.403 4.772-1.164.386.239 2.237-1.161 4.112-3.112 1.964-2.044 2.772-3.46 1.908-3.342-3.825.521-8.458-.118-7-.965 2.117-1.23 6.042-1.503 9.156-.637 1.82.506 3.455.215 5.198-.927 1.398-.916 3.239-1.768 4.091-1.893.852-.125 2.494-1.241 3.648-2.48 1.154-1.24 3.157-2.656 4.451-3.148 2.345-.891 6.153-5.619 5.252-6.52-.261-.262-1.292.427-2.29 1.531M250.5 846.787c-1.1.231-2.835 1.161-3.855 2.066-1.02.906-2.145 1.495-2.5 1.309-1.113-.583-2.272 8.11-1.788 13.416.255 2.793 1.402 6.618 2.549 8.5 2.298 3.769 2.757 2.398.909-2.714-1.506-4.165 3.457-15.58 5.729-13.177 2.774 2.934 2.653 5.429-.262 5.369-3.601-.074-5.329 4.12-3.277 7.954 1.731 3.234 4.587 2.865 4.258-.551-.217-2.25-.122-2.31 1.11-.709 1.415 1.838 3.627 2.37 3.627.872 0-.482-.675-1.437-1.5-2.122-.825-.685-1.476-2.202-1.448-3.372.053-2.122.058-2.121 1.622.122 1.96 2.809 3.326 2.884 3.326.183 0-1.567.454-1.924 1.876-1.472 1.336.424 2.029.012 2.406-1.432.586-2.24-.812-3.783-1.618-1.785-.278.691-.542.243-.585-.994-.052-1.489-.701-2.25-1.918-2.25-1.012 0-2.35-1.119-2.973-2.486-.998-2.191-1.448-2.366-3.799-1.472-3.55 1.35-3.84.801-1.289-2.442 2.377-3.022 2.292-3.419-.6-2.813m100.681 38.294c-.76 1.218-2.382 1.945-4.439 1.989-2.719.059-2.919.209-1.242.93 1.1.473 1.438.947.75 1.055-.687.107-1.812.272-2.5.365-.687.094-1.137.713-1 1.375.137.663-.227 1.205-.809 1.205-.582 0-.791.434-.464.964.328.529-.337 1.896-1.477 3.036-1.14 1.14-1.829 2.468-1.53 2.951.298.483-.023 1.106-.714 1.385-.998.402-.999.522-.006.585.688.043 1.25 1.009 1.25 2.146 0 1.582-.45 1.925-1.916 1.46-1.054-.335-2.193-.16-2.532.389-.339.548-1.389.727-2.334.398-1.601-.557-1.605-.478-.064 1.162.968 1.03 2.171 1.441 2.9.991.685-.424 2.763-.906 4.617-1.073 1.854-.166 3.924-.65 4.6-1.075.676-.425 3.029-.784 5.229-.796 3.791-.022 3.996-.18 3.92-3.023-.043-1.65.338-3.279.848-3.619.51-.341.996-1.803 1.08-3.25.083-1.446.475-2.63.871-2.63.395-.001.459-.676.143-1.501-.317-.825-.078-1.5.531-1.5 1.82 0 1.165-1.367-1.758-3.669-2.695-2.121-2.782-2.126-3.954-.25M47.833 924.984c-.183.541-.196 7.319-.03 15.063.272 12.606.481 14.045 2 13.756 1.359-.259 1.756-1.665 1.993-7.063l.295-6.74h10.528c9.487 0 10.495-.173 10.193-1.75-.289-1.508-1.752-1.789-10.574-2.035L52 935.93V928l10.75-.118c5.912-.066 11.313-.046 12 .043.688.09 1.25-.757 1.25-1.881 0-1.961-.567-2.044-13.917-2.044-8.232 0-14.052.402-14.25.984M187 939c0 14.333.089 15 2 15 1.665 0 2-.667 2-3.974 0-3.413.428-4.196 3.029-5.541 3.448-1.783 3.342-1.826 11.613 4.682 3.61 2.841 7.169 4.833 8.633 4.833 1.606 0 2.668.675 2.988 1.898 1.803 6.894 22.201 7.71 25.775 1.031.529-.989.962-7.002.962-13.363 0-10.899-.115-11.566-2-11.566-1.811 0-2 .667-2 7.045 0 9.154-2.296 11.955-9.8 11.955-6.977 0-8.2-1.69-8.2-11.329 0-6.625-.239-7.676-1.75-7.709-.963-.021-3.441-.283-5.507-.582-3.175-.461-5.207.237-13.119 4.502-5.149 2.776-9.646 4.763-9.993 4.416-.347-.347-.631-4.156-.631-8.465 0-7.166-.17-7.833-2-7.833-1.911 0-2 .667-2 15m89.5-12.627c-8.208 3.863-11.068 12.736-6.493 20.139 4.608 7.455 20.571 9.994 30.797 4.899 2.858-1.425 5.196-2.951 5.196-3.393 0-1.859-3.383-1.863-7.018-.009-8.364 4.267-22.955 1.735-25.785-4.476-4.154-9.118 2.975-16.009 16.524-15.971 5.893.016 7.779.432 10.254 2.262 2.455 1.814 3.424 2.033 5.083 1.145 2.029-1.086 2.025-1.116-.387-3.013-6.116-4.811-19.691-5.574-28.171-1.583M431 930c0 2.533-.389 3-2.5 3-1.556 0-2.5.567-2.5 1.5s.944 1.5 2.5 1.5c2.481 0 2.5.067 2.5 9 0 8.274.158 9 1.961 9 1.777 0 1.988-.823 2.25-8.75.288-8.721.298-8.751 3.039-9.066 3.845-.443 3.63-3.184-.25-3.184-2.667 0-3-.333-3-3 0-2.333-.444-3-2-3s-2 .667-2 3m-354.511 5.25c-.331 1.788-.464 6.625-.295 10.75.282 6.908.484 7.525 2.556 7.82 2.139.303 2.25-.008 2.25-6.296 0-7.718 2.22-10.912 8.388-12.069 4.749-.891 4.881-3.455.177-3.455-1.889 0-4.589.439-6 .975-1.667.634-2.565.634-2.565 0 0-2.755-3.948-.764-4.511 2.275m22.826-1.786c-7.903 3.437-8.114 15.003-.348 19.019 3.713 1.92 13.66 1.96 17.283.07 2.391-1.247 2.75-1.246 2.75.006 0 .793.9 1.441 2 1.441 1.879 0 2-.667 2-11 0-10.174-.144-11-1.917-11-1.054 0-2.088.515-2.297 1.143-.286.858-.915.858-2.518 0-2.921-1.563-13.064-1.371-16.953.321M127 943c0 10.333.121 11 2 11 1.822 0 2-.667 2-7.477 0-8.888 1.947-11.023 10.052-11.023 6.967 0 7.948 1.311 7.948 10.622 0 7.211.169 7.878 2 7.878 3.085 0 3.022-16.765-.073-19.566-2.512-2.273-14.471-3.284-17.796-1.504-1.401.75-2.131.786-2.131.105 0-.569-.9-1.035-2-1.035-1.879 0-2 .667-2 11m35.378-9.563c-8.446 3.676-8.66 14.78-.367 19.069 6.444 3.332 19.448 1.242 22.006-3.537 2.005-3.747-1.5-5.627-3.756-2.015-4.706 7.535-21.927 2.822-19.855-5.434 1.548-6.169 14.627-8.502 19.024-3.394 2.745 3.189 6.379 2.255 4.547-1.169-2.487-4.648-14.507-6.606-21.599-3.52M309 943c0 10.048.161 11 1.855 11 1.563 0 1.953-1.064 2.472-6.75.703-7.689 3.01-10.66 9.177-11.817 4.652-.872 4.697-3.433.061-3.433-1.889 0-4.692.478-6.229 1.062-1.972.75-2.899.75-3.149 0-.194-.584-1.216-1.062-2.27-1.062-1.773 0-1.917.826-1.917 11m32-10.296c-.825.3-2.738 1.699-4.25 3.108-3.198 2.98-3.847 10.177-1.252 13.882 3.227 4.607 14.534 6.566 21.752 3.77 1.493-.578 1.75-.074 1.75 3.429 0 3.44.325 4.107 2 4.107 1.908 0 2-.667 2-14.5 0-13.623-.116-14.5-1.917-14.5-1.054 0-2.088.515-2.297 1.143-.286.858-.915.858-2.518 0-2.155-1.153-12.489-1.45-15.268-.439m26 7.707c0 8.165.09 8.487 3.077 11 3.351 2.82 12.978 3.7 16.989 1.554 1.333-.714 1.934-.714 1.934 0 0 .569.88 1.035 1.955 1.035 2.485 0 3.267-3.837 2.851-14-.282-6.908-.484-7.525-2.556-7.82-2.16-.306-2.25-.022-2.25 7.095 0 8.395-1.07 10.105-7.01 11.207-3.666.679-8.908-.756-10.204-2.795-.416-.653-.762-4.45-.771-8.437-.014-6.578-.2-7.25-2.015-7.25-1.841 0-2 .667-2 8.411m36-7.707c-8.822 3.21-10.033 15.642-1.931 19.831 5.465 2.827 17.004 1.727 20.883-1.989 1.676-1.606 3.048-3.286 3.048-3.733 0-1.559-4.099-.798-6.188 1.148-3.211 2.991-9.929 3.64-14.458 1.395-7.133-3.535-5.607-4.356 8.094-4.356 13.803 0 14.595-.353 12.819-5.717-1.577-4.764-6.554-7.295-14.165-7.204-3.631.043-7.277.325-8.102.625m-194.25 3.859c-3.713 1.906-6.725 3.796-6.695 4.201.08 1.07 14.063 11.454 16.165 12.004 1.885.493 2.474-1.221.78-2.268-.55-.34-1-4.416-1-9.059 0-9.84.206-9.732-9.25-4.878m-106.508-.121c-6.86 3.091-6.124 10.891 1.268 13.427 7.852 2.695 16.636-2.167 15.084-8.349-1.283-5.114-10.157-7.87-16.352-5.078m242.258-.77c-5.825 1.537-8.245 7.952-4.666 12.371 2.679 3.309 11.418 3.851 15.975.991 8.364-5.249-.84-16.124-11.309-13.362m-95.167 39.753c.317.825-.479 2.096-1.893 3.023-4.798 3.143-2.485 9.917 3.337 9.775 8.691-.211 8.348.028 8.021-5.598-.263-4.526-.539-5.092-2.364-4.843-1.137.155-2.894-.633-3.905-1.75-2.12-2.342-3.999-2.699-3.196-.607m-92.678 3.404c-4.117 4.549-1.022 9.671 5.845 9.671 5.078 0 7.5-1.797 7.5-5.566 0-5.347-9.559-8.288-13.345-4.105m63.862-.204c-2.601 2.601-1.594 7.586 1.866 9.236 7.136 3.404 15.307-4.401 9.539-9.111-2.719-2.22-9.238-2.291-11.405-.125m61.498.36c-4.779 4.779.614 11.211 7.804 9.309 1.475-.39 3.244-.596 3.931-.458.875.176 1.25-1.347 1.25-5.077v-5.33l-5.485-.229c-4.365-.183-5.897.182-7.5 1.785m24.556-.414c-2.466 2.467-1.99 7.108.925 9.018 6.527 4.277 15.838-3.255 10.555-8.538-2.513-2.513-9.168-2.791-11.48-.48m23.337.521c-1.386 1.386-1.897 2.822-1.514 4.25.318 1.187.585 2.441.592 2.787.031 1.39 6.059 3.02 8.879 2.401 3.716-.817 5.385-2.739 5.385-6.205 0-5.295-9.08-7.495-13.342-3.233m30.71 23.198c-1.289.942-1.677 2.356-1.441 5.25.31 3.801.476 3.973 4.143 4.275 4.792.394 6.68-1.132 6.68-5.402 0-4.859-5.232-7.158-9.382-4.123m-264.022 3.016c-1.098.803-1.653 2.248-1.441 3.75.315 2.235.85 2.47 6.241 2.748 3.242.168 6.37-.17 6.95-.75 1.712-1.712 4.184-1.219 7.008 1.398 2.017 1.869 2.646 2.081 2.646.892 0-1.182.632-1.402 2.606-.907 1.683.423 3.492.074 5.107-.984 1.809-1.186 2.803-1.337 3.594-.546 1.716 1.716 8.45 1.35 9.494-.516.828-1.48.951-1.48 1.519 0 .837 2.183 8.223 2.241 9.056.071.344-.895-.065-1.789-.977-2.139-1.153-.442-1.246-.799-.355-1.35 1.892-1.17.131-2.973-2.903-2.973-3.28 0-5.208 1.662-4.393 3.786.389 1.012.19 1.294-.578.819-.644-.398-1.17-1.363-1.17-2.145 0-2.015-4.81-2.97-8.31-1.649-1.891.714-3.584.781-4.695.187-2.337-1.252-11.009-1.006-13.219.374-1.334.833-2.307.778-3.91-.224-1.638-1.023-2.306-1.054-2.875-.133-.531.859-.935.885-1.425.092-.937-1.516-5.79-1.395-7.97.199m209.404 2.73c0 4.481 1.699 5.426 2.184 1.214.476-4.145 5.058-3.95 5.892.25l.595 3 .414-3c.335-2.419.897-3 2.905-3 1.958 0 2.628.642 3.132 3 .353 1.65.695 2.143.76 1.095.11-1.782.236-1.798 1.947-.25 1.086.983 3.522 1.655 6 1.655H334v-8h-4c-2.602 0-4.667.667-5.908 1.908-1.833 1.833-1.926 1.836-2.386.075-.411-1.569-1.572-1.838-8.093-1.872l-7.613-.04v3.965" fill="#d3d3d3" fill-rule="evenodd"/></svg>