<svg xmlns="http://www.w3.org/2000/svg" width="500" height="630"><path d="M237 41.587c0 .543-1.455 1.098-3.234 1.234-1.778.136-3.668.681-4.2 1.213-1.333 1.333-2.84 1.218-1.992-.153.507-.821-4.744-.921-19.691-.375-11.211.41-29.383.856-40.383.992-19.005.236-36.037 1.072-41.5 2.04-1.375.243-4.525.703-7 1.021-2.475.318-5.4.761-6.5.983-6.508 1.313-30.622 2.835-40 2.525-4.688-.156-5.739.065-4.806 1.011 1.537 1.557 16.288 1.548 47.806-.031 13.2-.661 32.1-1.575 42-2.03 9.9-.456 18.945-1.131 20.101-1.501 1.333-.426 2.677-.095 3.678.906.868.868 2.15 1.578 2.85 1.578.988 0 1.004-.267.071-1.2-2.712-2.712-1.352-3.65 3.275-2.257 2.462.74 4.718.954 5.014.475.296-.479 1.802-.508 3.346-.065 3.68 1.055 115.844.479 119.396-.613 4.048-1.245 3.795-2.819-.481-2.99-2.239-.09-3.756.313-3.765 1-.011.832-.219.843-.75.038-.88-1.331-7.235-2.398-7.235-1.215 0 .976-3.378 1.116-4.315.179C297.321 42.988 269 41.994 269 43.311c0 .453-.847.555-1.882.227-1.18-.375-2.097-.035-2.461.912-.614 1.601-8.642 1.824-8.652.241-.003-.445-.525-.488-1.16-.096-.715.443-.883.275-.44-.44.994-1.609-.258-1.445-1.959.256-.776.776-2.319 1.174-3.428.883-1.134-.296-2.018-.038-2.018.589 0 .615-.477 1.117-1.059 1.117s-.781-.45-.441-1 .115-1-.5-1-.84-.45-.5-1c.357-.578-.59-1-2.241-1-1.572 0-3.399-.54-4.059-1.2-.66-.66-1.2-.756-1.2-.213m114.031 5.091c.831 1.331 2.037 1.821 3.84 1.56 3.296-.477 16.281 2.192 20.216 4.155 2.802 1.399 11.687 3.456 14.913 3.455 6.821-.004 14.888 1.599 15.299 3.039 2.133 7.478 9.977 35.411 10.796 38.445.726 2.689 1.463 3.668 2.47 3.282.789-.303 1.435-.101 1.435.449s-.694 1.266-1.543 1.592c-1.337.513-1.354.809-.127 2.219.779.894 1.73 4.514 2.112 8.043.382 3.529 1.395 8.479 2.251 11 .856 2.521 1.638 5.132 1.736 5.804.335 2.276 1.405 2.459 2.493.425.716-1.338.743-2.235.081-2.644-.552-.341-1.003-2.829-1.003-5.53 0-3.939-.295-4.796-1.49-4.337-1.207.463-1.415-.21-1.095-3.532.217-2.257.035-4.103-.404-4.103-.44 0-.797-1.013-.793-2.25.016-5.996-1.124-15.943-1.953-17.03-.511-.671-1.473-3.92-2.138-7.22-2.377-11.8-3.265-14.996-4.583-16.487-.735-.832-1.883-4.213-2.551-7.513-1.521-7.509-1.671-7.743-4.132-6.426-1.523.815-2.983.694-5.951-.493-2.162-.866-4.265-1.492-4.671-1.392-.406.101-2.314-.488-4.239-1.308-2.201-.938-7.396-1.573-14-1.713-9.524-.202-19.658-1.32-25.84-2.851-2.109-.522-2.221-.387-1.129 1.361M118.604 55.59c-.336.875-.409 1.917-.162 2.317.247.399-.876 1.509-2.496 2.466-3.204 1.892-3.405 2.37-1.946 4.627.784 1.213.972 1.069.985-.75.008-1.237.435-2.25.948-2.25 1.841 0 2.155 4.013.573 7.346-1.033 2.178-1.435 4.872-1.118 7.503.273 2.258.05 4.381-.495 4.717-.636.393-.587 1.098.139 1.973.621.748 1.028 2.62.905 4.161-.123 1.54.002 3.475.278 4.3 2.888 8.623 2.914 8.873 1.22 11.459-.916 1.398-1.254 2.541-.751 2.541s.723 1.636.49 3.636c-.295 2.524-.08 3.424.701 2.941.619-.382 1.125-1.808 1.125-3.167 0-2.186 2.373-4.37 3.511-3.232.234.234-.419 3.214-1.45 6.622-1.131 3.735-1.497 6.431-.92 6.787.577.357.466 1.181-.278 2.078-.989 1.192-.949 1.675.201 2.43 1.233.81 1.211 1.117-.151 2.174-2.682 2.081-4.028 5.594-4.419 11.538-.206 3.131-1.306 9.293-2.445 13.693-1.138 4.4-1.989 10.25-1.889 13 .099 2.75-.373 6.947-1.049 9.326-.779 2.744-.885 4.756-.287 5.5 1.098 1.368.354 7.674-.906 7.674-.47 0-1.525 1.237-2.346 2.75l-1.492 2.75-.062-3.5-.062-3.5-1.981 2.5c-2.535 3.199-8.415 15.237-10.136 20.75-.729 2.338-1.666 4.25-2.082 4.25-.417 0-.757 2.452-.757 5.448 0 3.073-1.12 8.993-2.568 13.578-1.412 4.471-2.633 8.994-2.713 10.051-.079 1.058-.459 1.923-.844 1.923-.385 0-1.005 1.809-1.378 4.019l-.679 4.019-1.763-2.269c-2.22-2.856-2.583-8.909-.486-8.104.888.341 1.431-.082 1.431-1.117 0-.916-.41-1.412-.912-1.102-.739.456-.772-2.287-.04-3.196.111-.137.258-.716.327-1.286.069-.571.745-1.42 1.503-1.889.758-.468 1.092-1.314.743-1.879-.349-.566-.193-2.191.347-3.612 2.001-5.263-.798-2.373-3.309 3.416-1.431 3.3-3.002 6-3.492 6-.489 0-.691 1.04-.448 2.311.258 1.348-.217 2.857-1.139 3.622-.869.722-1.616 2.044-1.659 2.939-.05 1.023-.265 1.167-.58.387-.651-1.611-2.774.378-3.776 3.538-.385 1.211-1.312 2.203-2.06 2.203-1.864 0-2.697 7.832-2.314 21.754.318 11.569 1.739 14.914 2.987 7.029 1.159-7.329 1.964-9.602 4.06-11.473 1.974-1.762 2.01-1.753 1.361.336-.367 1.18-.838 3.43-1.046 5-.849 6.398-3.816 17.547-4.413 16.585-.942-1.517-4.367-1.917-4.841-.566-.225.641.431 1.432 1.458 1.758 1.559.495 1.857 1.581 1.805 6.579-.034 3.293-.331 5.989-.659 5.992-.328.003-2.566-2.281-4.973-5.075-2.407-2.795-4.537-4.599-4.733-4.009-.22.658-.962.468-1.923-.493-1.055-1.055-1.783-1.211-2.235-.48-.425.687-1.523.176-3-1.395-2.469-2.629-4.04-2.525-4.038.267.001 1.614 6.089 8.918 16.146 19.371 5.332 5.543 5.486 6.985 1.893 17.82-4.399 13.266-6.929 21.686-8.563 28.5-.923 3.85-2.308 8.517-3.078 10.372-.769 1.855-1.399 4.697-1.399 6.316 0 1.619-.484 3.849-1.077 4.955-1.244 2.325-3.152 8.996-5.821 20.357-1.034 4.4-2.203 8.787-2.598 9.75-.546 1.331-.227 1.75 1.33 1.75 3.024 0 3.437-1.002 4.619-11.218.3-2.595 1.463-6.478 2.584-8.629 2.067-3.966 9.954-34.771 9.96-38.903.002-1.238.416-2.25.92-2.25.986 0 5.083-16.207 5.083-20.11 0-2.227.128-2.178 2.25.863 1.237 1.774 2.818 3.017 3.512 2.763 1.207-.442 1.141.808-.339 6.484-.215.825.013 2.85.507 4.5s.937 2.411.984 1.691c.047-.72.455-1.081.905-.803 1.1.68.918-11.521-.197-13.25-.517-.801-.487-1.624.073-2 1.607-1.078 2.261-3.984.999-4.436-.657-.236-.878-.768-.492-1.184.387-.416 1.287-.124 2 .648.714.773 3.886 4.168 7.048 7.545 4.794 5.12 5.75 6.738 5.75 9.734 0 3.238.225 3.537 2.274 3.022 1.747-.438 2.809.154 4.585 2.556 1.335 1.806 2.895 2.902 3.694 2.595.761-.292 1.653-.093 1.984.442.97 1.569 2.463.022 2.463-2.552 0-3.753 3.341-4.119 7.478-.818 1.937 1.545 3.522 3.387 3.522 4.091 0 .705.788 1.572 1.75 1.926 2.284.84 12.25 8.555 12.25 9.483 0 .394-1.237.625-2.75.513-1.642-.121-2.75.301-2.75 1.047 0 .688.225 1.174.5 1.081.275-.093 1.541.388 2.814 1.069 1.601.858 2.695.922 3.552.211 1.422-1.18 35.263 31.927 33.964 33.226-.408.408.314 1.019 1.605 1.356l2.348.614-.69 12.597c-.584 10.649-2.109 21.968-2.506 18.596-.297-2.523-2.045 2.394-1.956 5.5.056 1.925.308 2.707.561 1.738.711-2.727 2.308-.989 2.308 2.512 0 2.969-.077 3.031-1.468 1.191-1.85-2.445-1.857-1.985-.088 5.747 1.516 6.624.957 12.845-1.22 13.571-.673.224-1.231-.417-1.239-1.426-.012-1.431-.207-1.531-.889-.455-.551.87-1.374 1.064-2.234.525-.749-.469-2.149-.724-3.112-.565-1.286.211-1.75-.391-1.75-2.275 0-1.41-.388-2.563-.862-2.563-.475 0-.734-1.177-.576-2.616.158-1.439-.066-3.573-.498-4.741-.433-1.169-.426-3.382.015-4.919.441-1.537 1.061-5.591 1.379-9.009 1.948-20.963 2.387-23.569 3.635-21.598.942 1.487.995 1.318 1.35-4.367.129-2.063-.143-3.75-.604-3.75-.461 0-.839-1.35-.839-3s-.415-3-.922-3c-1.735 0-3.04 6.495-2.814 14 .234 7.748-.674 13.795-2.319 15.45-.594.597-.945-1.244-.945-4.95 0-4.276-.302-5.598-1.095-4.805-1.379 1.379-1.293 18.675.095 19.138.56.187 1 4.014 1 8.705 0 7.596-.232 8.603-2.5 10.871-1.375 1.375-2.5 3.196-2.5 4.046 0 .85-.6 1.545-1.332 1.545-1.04 0-1.231-1.813-.869-8.25.744-13.247.554-16.911-.929-17.867-1.152-.742-1.142-1.03.062-1.805 1.237-.796 1.219-1.465-.132-4.906-1.134-2.886-1.347-5.182-.772-8.325.436-2.386.432-4.566-.01-4.843-.975-.612-.924-9.004.055-9.004.382 0 .909-1.125 1.172-2.5.263-1.375.168-2.5-.21-2.5-.379 0-.49-1.35-.248-3 .275-1.878.001-3-.733-3-.644 0-.913.419-.597.931.317.512.118 1.213-.441 1.559-.559.345-1.016.022-1.016-.718 0-1.703-4.181-2.086-5.204-.476-1.49 2.345-.768 4.764 1.704 5.704 2.889 1.098 3.428 2.429.624 1.539-2.468-.783-3.32 2.321-1.526 5.559 1.568 2.83 1.849 7.296.402 6.402-.55-.34-1.037.196-1.082 1.191-.045.995-.291 3.088-.547 4.651-.255 1.562-.058 3.362.438 4 1.299 1.668 2.109 5.51 1.235 5.86-.409.164-1.451 2.323-2.315 4.798l-1.571 4.5-.19-4c-.105-2.2-.112-6.993-.015-10.651.1-3.815-.279-6.932-.889-7.309-.585-.362-1.064-2.712-1.064-5.221 0-4.123-.159-4.432-1.646-3.198-1.507 1.251-1.585.882-.928-4.378.504-4.028.38-5.743-.413-5.743-.622 0-.81.52-.418 1.155.42.679.277.884-.347.498-.674-.416-.881.166-.568 1.596.386 1.763.27 1.932-.539.78-.568-.809-1.199-1.259-1.402-1-.527.671-2.739 17.045-2.739 20.273 0 2.767 1.337 3.58 2.579 1.57.466-.753 1.057-.503 1.777.75.98 1.704 1.141 1.601 1.744-1.122.603-2.727.69-2.591.953 1.5.159 2.475.341 5.176.405 6.001.064.826.495 2.114.957 2.862.526.851.325 1.688-.537 2.233-1.08.685-.987.877.431.889.995.008 1.555.427 1.244.93-.311.503-.07 1.079.536 1.281.703.235.37 1.622-.921 3.836-1.112 1.907-2.329 5.156-2.706 7.218-.386 2.113-1.266 3.75-2.016 3.75-2.769 0-8.447-4.21-8.562-6.349-.091-1.69-.214-1.776-.573-.401-.48 1.836-3.311 2.477-3.311.75 0-.55-.477-1-1.059-1s-.781.45-.441 1-.11 1-1 1-1.403-.349-1.139-.775c.263-.426.111-2.338-.339-4.25l-.817-3.475-.103 4.133c-.107 4.349-1.357 5.32-6.89 5.353-1.882.012-2.237-.455-2-2.631.387-3.558-1.786-4.134-2.907-.771-.802 2.406-1.052 2.526-2.42 1.158-.84-.84-2.393-1.693-3.451-1.897-1.553-.299-1.864-1.073-1.611-4.007.175-2.034-.205-3.956-.862-4.362-.818-.506-.979-.107-.527 1.315.614 1.937-.942 4.034-2.121 2.856-1.065-1.066.739-5.647 2.225-5.647 1.056 0 1.333-.666.937-2.25-.31-1.238-.64-3.268-.733-4.512-.093-1.244-.636-2.088-1.206-1.875-.57.213-.906.946-.747 1.629.159.683-.236 2.831-.877 4.774-1.05 3.183-1.271 3.345-2.227 1.636-.583-1.042-.959-3.396-.836-5.231.141-2.094-.161-3.096-.812-2.694-.57.353-1.037 1.688-1.037 2.967 0 3.661-2.319 8.29-3.889 7.763-.794-.266-1.11-.015-.739.586.358.579 1.996 1.349 3.639 1.71 3.022.663 4.039 2.907 1.739 3.835-.747.301-.545.536.5.583 1.799.081 2.422 1.651.892 2.246-.472.183-3.678 3.614-7.125 7.625-3.447 4.01-6.447 7.111-6.667 6.891-.64-.64 3.346-23.927 4.567-26.683.609-1.375 1.898-3.85 2.863-5.5.965-1.65 1.884-4.35 2.042-6 .157-1.65 1.556-7.275 3.107-12.5 1.552-5.225 3.387-11.643 4.079-14.262.874-3.305 1.6-4.479 2.375-3.838.802.663 1.16-1.027 1.269-5.988.084-3.802-.227-6.912-.689-6.912-.992 0-5.963 15.805-5.963 18.959 0 1.877-1.997 7.575-5.096 14.541-3.746 8.418-9.699 29.926-9.742 35.197-.02 2.309-.576 5.207-1.236 6.442-.661 1.234-1.504 3.375-1.873 4.757-.601 2.246-1.168 1.58-5.36-6.299-5.245-9.86-6.073-14.831-4.514-27.097 1.134-8.916 1.091-34.63-.06-35.781-.496-.496-1.131 5.734-1.474 14.455-.332 8.429-1.175 19.562-1.874 24.74l-1.271 9.413-2.438-4.913C40.676 433.591 36 426.342 36 427.917c0 .72 2.263 5.324 5.03 10.231 5.863 10.402 5.905 10.834 3.998 41.352-1.413 22.595-1.872 24.435-6.75 27.008-6.601 3.483-10.047 7.691-10.752 13.131-.347 2.673-.771 5.577-.943 6.452-.172.875.267 5.806.976 10.959 1.274 9.272.787 12.95-1.717 12.95-.728 0-.762.413-.102 1.25.541.688 1.274 2.464 1.628 3.949.355 1.484 2.486 4.184 4.736 6a597.844 597.844 0 0 1 7.576 6.227c2.563 2.152 3.689 2.595 4.257 1.676.447-.723 2.206-1.113 4.168-.926 3.716.355 3.833.817 2.376 9.365-1.118 6.563.944 7.385 9.032 3.6l6.556-3.068 3.465 1.946c2.901 1.629 5.28 1.22 2.587-.444-1.249-.772-2.113-4.575-1.04-4.575 1.164 0 6.231 8.021 5.518 8.735-.936.935 2.733 6.236 4.76 6.879 2.603.826 11.505.855 12.32.04 1.294-1.294 3.046-.59 8.321 3.346 8.333 6.217 17.961 4.653 23.163-3.765 1.136-1.837 2.293-3.112 2.572-2.833.856.855-.818 11.598-1.807 11.598-1.511 0-1.057 2.737.557 3.356.839.322 1.889-.186 2.415-1.17.808-1.509 3.099-15.186 3.101-18.508 0-.648 1.746 1.661 3.881 5.131 5.642 9.173 7.871 11.294 11.024 10.488 1.426-.364 3.494-.592 4.594-.505 6.198.489 11.649-3.92 13.543-10.953 1.549-5.753 2.957-3.704 2.957 4.303 0 5.188.327 6.91 1.25 6.585.844-.298 1.166-2.272.991-6.084-.321-6.993.942-7.291 6.897-1.626 4.054 3.856 5.796 3.973 5.847.394.014-.993 4.96-3.843 5.925-3.414.226.1.841-.587 1.367-1.527.728-1.301 1.143-1.408 1.737-.447.894 1.447 4.953-4.447 8.07-11.719 2.11-4.922 2.411-6.728.974-5.84-.518.32-1.714-1.044-2.658-3.033-.943-1.988-2.319-3.846-3.058-4.13-.738-.283-1.342-1.142-1.342-1.908s-.444-1.393-.987-1.393c-.542 0-1.604-1.462-2.359-3.25-.952-2.254-3.178-4.289-7.264-6.641-7.602-4.376-14.711-13.723-12.541-16.488.484-.617 1.141-3.779 1.459-7.027.319-3.248 1.583-7.973 2.809-10.5 1.226-2.527 2.63-5.517 3.119-6.645.489-1.129 1.439-7.759 2.111-14.735 1.62-16.822 2.002-17.109 10.613-7.955 6.315 6.714 10.04 8.597 10.04 5.075 0-.524.45-.674 1-.334s1 1.791 1 3.226c0 1.434.26 2.347.579 2.029.318-.318 4.947.939 10.288 2.795 5.825 2.024 10.694 3.154 12.171 2.825 2.007-.447 2.185-.335.962.604-1.225.941-1.083 1.035.775.511 1.599-.45 2.194-.247 2 .685-.177.854.522 1.214 1.967 1.013 1.602-.222 2.086.096 1.695 1.114-.368.96.371 1.625 2.258 2.035 5.366 1.165 6.023 2.201 3.531 5.571-1.224 1.656-2.226 3.209-2.226 3.451s-1.575 2.78-3.5 5.641-3.5 6.029-3.5 7.041c0 1.013-.414 2.097-.921 2.41-.506.313-2.343 4.838-4.081 10.055-1.738 5.217-3.911 9.907-4.829 10.422-1.544.868-1.538.988.081 1.612.963.371 1.75 1.317 1.75 2.102 0 1.1.442 1.192 1.927.397 1.89-1.012 4.308-6.465 7.606-17.156 4.134-13.406 16.399-35.311 19.311-34.493.911.256 4.131.754 7.156 1.107 10.082 1.176 11.953 2.143 11.804 6.104-.101 2.687.637 4.264 3.283 7.012 4.354 4.521 20.601 14.637 23.509 14.637 1.663 0 2.317.701 2.627 2.819.371 2.524.044 2.906-3.132 3.657-5.101 1.206-5.95 6.544-2.61 16.415 1.314 3.884 2.531 7.197 2.704 7.362.364.345 17.17.873 20.648.648 1.385-.09 2.16-.659 1.907-1.401-.234-.687-1.344-1.118-2.465-.957-1.813.26-1.963-.074-1.345-3 .581-2.754 1.1-3.251 3.169-3.039 1.804.186 2.513-.253 2.616-1.619.205-2.719-3.85-4.529-8.486-3.788-4.862.778-6.277-.319-9.071-7.032-2.771-6.66-2.75-8.995.092-9.884 1.238-.388 3.522-1.768 5.077-3.068 1.554-1.3 3.16-2.363 3.567-2.363.913 0 4.106 9.906 4.106 12.738 0 1.759.552 2.027 3.75 1.825 6.672-.423 7.25-.548 7.25-1.563 0-.55-.337-.947-.75-.882-5.761.91-7.846-.158-9.043-4.632-1.373-5.135-1.491-7.974-.207-4.986.829 1.928.862 1.921.93-.191.078-2.441-1.532-4.004-2.165-2.103-.224.67-1.169-.309-2.1-2.176-1.179-2.363-1.359-3.601-.594-4.074.605-.374 1.061-.967 1.014-1.318-.246-1.84-.017-2.904.511-2.376.327.328 2.141-.272 4.03-1.333 5.996-3.367 6.991-2.103 7.924 10.071.106 1.375.25 2.779.321 3.121.071.341 2.262.222 4.869-.265 6.608-1.234 7.623-.652 6.816 3.905-1.246 7.03-1.408 7.239-5.623 7.239-2.163 0-3.933.445-3.933.989s1.012.916 2.25.827c1.238-.09 3.235.162 4.439.559 2.859.942 4.311-1.689 4.311-7.809 0-4.507 1.937-6.676 2.068-2.316l.067 2.25 1.061-2.196c.61-1.262 2.176-2.325 3.683-2.5 1.937-.225 2.537-.795 2.297-2.185-.264-1.533.152-1.789 2.25-1.388 1.416.27 2.574.136 2.574-.298 0-1.176-9.71-2.167-17.401-1.776l-6.755.343.692-4.5c.381-2.475.753-6.75.828-9.5l.136-5 5.75-.3c7.316-.382 7.965-2.672 1-3.531-2.613-.322-5.875-.858-7.25-1.191-2.109-.511-2.794-.056-4.378 2.904-1.033 1.929-1.618 4.185-1.301 5.012.36.938-.153 1.735-1.363 2.119-2.737.869-4.365-.318-2.884-2.102.898-1.082.881-1.761-.074-2.911-1.701-2.049-2.295-1.932-7.211 1.42-4.587 3.128-6.153 3.245-3.45.257.914-1.009 1.661-3.011 1.661-4.449 0-1.578.892-3.24 2.25-4.191 2.296-1.608 3.28-7.541 1.25-7.533-3.071.011-20.325 13.868-18.597 14.936.545.337.135 1.664-.95 3.076-1.847 2.405-1.909 2.415-1.931.341-.012-1.179-.697-2.402-1.522-2.719-.825-.316-1.5-1.066-1.5-1.666 0-.599.399-.843.887-.542 1.421.878 3.402-2.237 2.649-4.167-.577-1.481-1.396-.972-5.112 3.174-2.433 2.716-4.424 5.303-4.424 5.75 0 .447-.9.813-2 .813-1.347 0-2 .667-2 2.042 0 1.123.9 3.008 2 4.188 1.1 1.181 2 1.821 2 1.423 0-.398.914-.234 2.032.364 1.117.598 1.905 1.851 1.75 2.785-.377 2.268 4.53 1.781 8.836-.877 4.08-2.519 5.546-2.411 2.435.178-1.775 1.478-2.106 2.246-1.206 2.802.938.58.774 1.341-.673 3.129l-1.913 2.362-6.675-3.523C280.51 519.082 274 513.522 274 510.561c0-1.286.563-2.318 1.25-2.292 4.365.162 7.75-.418 7.75-1.328 0-.582-.403-.81-.895-.506-2.751 1.701-1.515-2.648 1.381-4.856 3.468-2.646 8.172-12.705 6.902-14.76-.408-.661.144-.785 1.535-.344 2.071.658 5.077-.811 5.077-2.481 0-.418-.958-1.011-2.13-1.318-1.448-.378-1.933-1.068-1.517-2.155.412-1.071-.122-1.876-1.62-2.442-2.716-1.027-4.195-.341-2.825 1.31C290.13 480.862 277.292 505 275.286 505c-2.291 0-1.347-2.349 4.217-10.5 3.316-4.858 4.997-8.157 4.279-8.4-.65-.22-1.331.048-1.514.595-.575 1.726-9.35 14.793-10.12 15.07-.821.295-5.145-8.129-5.154-10.042-.015-3.487-2.222-8.974-3.07-7.634-.694 1.096-.897.953-.909-.639-.008-1.127-.504-2.539-1.102-3.137-.783-.783-.783-1.275 0-1.759 1.697-1.049 1.277-2.554-.713-2.554-.99 0-2.289-.489-2.887-1.087-.783-.783-1.316-.718-1.903.232-1.298 2.1-1.215 4.994.129 4.478 1.572-.603 1.618 4.002.052 5.301-1.238 1.028-3.868-.075-3.601-1.511.088-.475-.386-1.045-1.054-1.268-.769-.256-.923.066-.421.88.554.896.398 1.039-.515.475-.921-.569-1.069-.421-.5.5.524.848.418 1.067-.303.622-.644-.398-1.761.567-2.654 2.296-1.957 3.784-1.94 5.191.032 2.582 1.698-2.248 1.675-2.25 4.425.5 2.153 2.153 2.674 3.535.926 2.454-1.41-.871-5.926 3.407-5.926 5.613 0 .946-.722 1.996-1.604 2.334-.882.339-1.363 1.243-1.069 2.01.695 1.81-.337 2.817-1.735 1.693-1.54-1.239-12.192-5.307-25.092-9.582l-11-3.646-2.372-4.787c-1.358-2.741-7.281-9.873-13.86-16.688-15.389-15.942-16.116-18.032-14.553-41.866l.785-11.965 9.5 8.743c8.164 7.514 9.887 8.672 12.25 8.24 1.908-.349 2.75-.083 2.75.869 0 2.899 5.16 7.468 7.45 6.597 5.426-2.063 15.228-2.276 18.101-.394 2.032 1.332 2.908 1.497 3.206.604.442-1.327 10.237-1.785 10.251-.479.004.413 2.302.834 5.105.937 4.516.166 12.887 3.951 12.887 5.827 0 .267-3.792.486-8.427.486-7.184 0-8.494-.258-8.884-1.75-.435-1.667-.463-1.667-.573 0-.064.962-.614 1.75-1.222 1.75s-2.398 1.088-3.978 2.417l-2.872 2.417 26.728.029c31.538.035 34.312.178 36.049 1.859 1.562 1.51 3.57 1.719 2.679.278-.797-1.29 1.123-1.269 5.507.058 1.921.582 6.418 1.905 9.993 2.94 13.125 3.8 19.541 5.756 21.25 6.477 3.444 1.454 1.805-2.245-2-4.513-8.671-5.169-12.338-7.025-13.034-6.596-1.199.741-4.476-2.137-3.757-3.299.935-1.513-2.612-1.335-4.986.25-2.419 1.614-7.542 1.46-17.808-.535-7.755-1.508-13.835-4.782-8.879-4.782 2.868 0 2.847-1.765-.036-3.03-1.238-.544-8.901-1.822-17.03-2.841-14.661-1.838-14.817-1.884-19.351-5.741-2.527-2.149-5.116-5.453-5.79-7.388-4.645-13.332-10.265-18.994-11.573-11.661l-.506 2.84-2.617-2.84c-11.51-12.485-31.091-29.756-37.709-33.259-2.386-1.263-6.174-4.687-6.174-5.58 0-.275.653-.5 1.45-.5.798 0 1.909-.788 2.47-1.75.637-1.095 1.031-1.257 1.05-.433.019.859.726 1.097 2.03.683 1.1-.349 2-.231 2 .262s.787.893 1.75.889c5.936-.026 7.25.4 7.25 2.349 0 2.346 1.718 2.528 4.441.468 2.743-2.074 5.652-1.827 6.269.532.636 2.429 1.106 2.476 3.461.345 1.724-1.56 1.831-1.516 1.859.75.027 2.115.154 2.194 1.05.655 2.381-4.088 7.188-.924 8.336 5.488.723 4.034 2.849 5.762 7.09 5.762 1.45 0 3.332.695 4.182 1.545.849.849 2.054 1.371 2.678 1.16.624-.211 2.086.9 3.25 2.469 1.828 2.463 2.286 2.649 3.356 1.36.818-.985 1.796-1.206 2.883-.648.905.464 2.166.656 2.803.426.637-.23 1.431.023 1.764.562.79 1.278 5.604-.109 10.166-2.928 4.005-2.476 3.998-3.499-.014-1.974-5.1 1.939-18.574.474-18.574-2.019 0-.524-.62-.953-1.378-.953-3.085 0-4.094-2.973-1.79-5.277l2.168-2.167.157 3.472c.126 2.776.276 2.469.75-1.528l.593-5 6-.285 6-.285 6 6.233 6 6.233.618-3.448.619-3.448.131 3.75c.073 2.063.535 3.75 1.028 3.75.492 0 2.313 2.208 4.045 4.907 1.781 2.776 4.541 5.551 6.354 6.389 12.941 5.98 39.705 6.941 39.705 1.427 0-.568-.883-.234-1.962.743-1.785 1.615-2.71 1.668-10.25.584-10.596-1.522-16.653-3.023-17.458-4.325-.837-1.355 7.578-.046 9.393 1.46 1.857 1.541 15.687.436 21.277-1.699 3.907-1.493 6.806-3.914 11.17-9.328 1.827-2.269 3.83-10.225 3.83-15.219 0-4.371.235-4.825 3-5.789 1.65-.575 3-1.596 3-2.269s.734-2.035 1.632-3.027c1.529-1.69 1.451-1.876-1.25-2.959l-2.882-1.156 3.5-.932c3.614-.964 6.649-3.763 5.147-4.748-.469-.307-1.108-11.584-1.42-25.059l-.567-24.5 1.985 3.831c2.896 5.587 3.767 12.753 3.901 32.091.066 9.476.456 17.772.867 18.437.818 1.324 4.087.504 4.087-1.025 0-.524.45-.674 1-.334 1.028.635 1.16.154 1.375-5 .069-1.65.621-3 1.228-3 1.711 0 11.568 12.776 10.409 13.492-1.682 1.04 4.494 4.95 6.846 4.335 2.047-.535 2.02-.669-.964-4.825-1.688-2.351-4.819-6.238-6.957-8.638-2.139-2.4-3.689-4.926-3.444-5.614.244-.687-.104-1.264-.774-1.282-.748-.019-.586-.513.418-1.277 1.759-1.339 1.724-2.808-.277-11.904-.985-4.476-1-6.748-.067-10.5 1.605-6.459.344-15.747-3.536-26.037-.312-.828.549-1.25 2.554-1.25 4.168 0 6.747-1.037 5.104-2.053-.751-.464.717-1.036 3.666-1.429 2.705-.36 5.819-1.033 6.919-1.496 1.1-.462 2.9-1.176 4-1.586 1.786-.666 1.813-.79.25-1.164-.962-.23-1.75-.851-1.75-1.381 0-.603.653-.615 1.75-.033 1.209.642 2.149.498 3.039-.465.71-.766.875-1.393.367-1.393-.507 0-1.158-.9-1.446-2-.287-1.1-.205-2 .184-2 1.949 0 3.108 2.951 3.121 7.95.018 6.477 1.833 10.744 2.148 5.05.106-1.925.103-4.4-.007-5.5-.111-1.1-.179-3.434-.151-5.186.031-2.048-.742-3.923-2.167-5.25-1.856-1.729-1.941-2.064-.527-2.064.929 0 1.689-.408 1.689-.906 0-.499-.9-.671-2-.384-1.134.297-2 1.364-2 2.466 0 1.068-.45 1.664-1 1.324-.55-.34-1 .028-1 .819 0 .79-.675 1.996-1.5 2.681s-1.5 2.588-1.5 4.229c0 2.311-.357 2.848-1.582 2.378-.87-.334-2.731-.607-4.137-.607-2.453 0-2.367-.201 2.172-5.053 4.711-5.036 4.724-5.071 4.196-10.75-.291-3.133-.998-19.197-1.571-35.697-.573-16.5-1.304-37.425-1.625-46.5-.32-9.075-.827-23.686-1.127-32.47-.45-13.179-.83-16.178-2.175-17.161-2.171-1.588-3.033-.898-2.697 2.16.152 1.386-.113 2.76-.589 3.054-.476.294-.865.058-.865-.524 0-.582-.391-1.059-.87-1.059-.478 0-.816.926-.75 2.057.091 1.553-1.472 2.92-6.38 5.581-3.575 1.939-6.65 3.938-6.833 4.444-.184.505-.724.918-1.2.918-.477 0-2.94 1.399-5.474 3.109-5.359 3.617-6.988 3.327-2.503-.447 1.69-1.422 3.03-2.862 2.976-3.2-.157-.989 4.222-4.462 5.626-4.462.708 0 3.451-1.82 6.097-4.044a5013.92 5013.92 0 0 0 8.015-6.75c3.573-3.017 4.061-4.206 1.729-4.206-1.027 0-1.386-.604-1.041-1.75.29-.963-.096-2.576-.856-3.587-1.33-1.765-1.504-1.747-4.517.481-1.724 1.275-2.643 2.481-2.043 2.681.6.2 1.762-.193 2.582-.873.82-.68 1.725-1.002 2.012-.715.287.287-1.411 1.91-3.774 3.606s-4.811 3.523-5.439 4.06c-.629.537-1.444.677-1.811.31-.366-.366.823-1.902 2.644-3.413 5.066-4.203 1.991-3.308-3.851 1.121-7.515 5.699-9.364 6.577-9.174 4.361.358-4.196-.235-6.282-1.787-6.282-1.35 0-1.408-.26-.34-1.546.705-.85 1.921-1.3 2.702-1 1.953.749 6.373-.462 5.694-1.561-.304-.491.487-.9 1.757-.908 1.9-.013 2.043-.202.809-1.066-1.166-.816-.943-.926 1-.494 1.375.306 1.935.297 1.244-.02-1.375-.63-.73-2.405.874-2.405.55 0 .722.45.382 1-.687 1.112.754 1.148 4.474.111 2.352-.655 2.234-.824-2.375-3.4-2.668-1.491-6.174-2.711-7.791-2.711s-3.852-.489-4.968-1.086c-1.636-.875-2.458-.682-4.249 1-1.221 1.147-2.698 2.086-3.283 2.086s-1.623.675-2.308 1.5c-1.04 1.253-.896 1.5.878 1.5 1.167 0 2.122.477 2.122 1.059s.448.782.996.443c1.782-1.101 5.004-1.41 5.004-.481 0 1.332-7.18 5.986-8.232 5.335-.494-.305-.124-1.41.822-2.455 3.254-3.597.118-1.891-6.798 3.697-7.137 5.767-8.297 7.749-2.902 4.959 1.691-.875 5.221-1.865 7.843-2.2l4.767-.609-4.962 5.126c-4.821 4.98-5.498 7.316-.856 2.955 2.731-2.566 4.379-1.747 1.758.873-1.61 1.61-1.628 1.831-.174 2.111.946.182 1.393.912 1.072 1.75-.899 2.34 1.607 1.649 5.662-1.563 5.263-4.169 8.114-3.994 4.263.261-.955 1.056-1.786 2.441-1.847 3.079-.061.638-.18 1.959-.264 2.935-.083.976-1.374 2.239-2.868 2.807-1.494.568-2.281 1.344-1.75 1.725.531.381.966 1.593.966 2.693 0 3.13 3.791 2.659 9.493-1.182 2.782-1.873 5.495-3.134 6.03-2.804.536.331 1.921-.062 3.079-.873l2.106-1.475-2.354-.338c-2.109-.302-1.885-.622 2.146-3.063 4.54-2.75 6.563-2.15 3.641 1.08-2.082 2.299-1.117 6.465 1.219 5.266.902-.462 2.203-.639 2.89-.393.743.267 1.25-.396 1.25-1.635 0-1.145.45-2.083 1-2.083.607 0 .988 4.23.97 10.75-.023 8.139-.291 10.302-1.103 8.906-.589-1.014-1.043-4.261-1.007-7.215.061-5.13-1.011-7.624-2.347-5.462-.344.556-.76 4.276-.925 8.266-.166 3.99-.59 8.268-.944 9.505-1.193 4.17-1.422 5.723-2.098 14.25-.371 4.675-.997 10.055-1.392 11.956l-.718 3.456-2.768-5.659c-1.523-3.112-5.927-9.04-9.787-13.174-6.501-6.961-7.06-7.911-7.573-12.88-.364-3.53-1.01-5.366-1.888-5.366-1.474 0-2.937 5.022-1.935 6.643.783 1.266-.738 1.355-2.035.118-.523-.498-3.425-2.243-6.45-3.877-10.431-5.636-12.002-6.721-11.533-7.967.27-.718-.315-1.25-1.376-1.25-1.015 0-2.365-.626-3-1.391-.968-1.166-.039-1.367 5.769-1.25 3.808.078 6.41.472 5.782.876-.681.438-.257.741 1.049.75 1.205.008 2.461-.422 2.791-.956.78-1.261-3.757-2.394-6.326-1.579-1.093.347-2.277.163-2.631-.409-.354-.573-2.169-1.041-4.035-1.041-1.865 0-5.776-.561-8.691-1.247l-5.299-1.248 7-.541 7-.541-5.368-.856c-4.042-.644-4.963-1.082-3.729-1.772.9-.505 2.475-.651 3.499-.326 1.132.359 2.076.03 2.411-.841.682-1.779-.108-2.628-2.448-2.628-1.059 0-1.598-.531-1.308-1.287.388-1.011-2.887-1.326-15.282-1.468-18.702-.215-27.253-1.024-27.872-2.637-.249-.648-2.016-1.127-3.928-1.063-1.911.063-3.475-.258-3.475-.715 0-.456 2.137-.875 4.75-.929 2.613-.054 7.225-.469 10.25-.922 3.918-.586.609-.773-11.5-.651l-17 .172-.327-2.856c-.179-1.571.046-2.631.5-2.355 2.439 1.481 13.251 1.632 15.954.222 1.58-.824 3.634-1.501 4.564-1.505 2.028-.007 3.239-1.622 1.857-2.476-.542-.335-6.062-1.329-12.267-2.209-13.331-1.891-11.453-1.022-12.327-5.699l-.725-3.879 16.653.446c16.846.45 21.879 1.582 16.538 3.717l-2.42.967 2.75.064c1.512.034 2.75-.391 2.75-.947 0-.574 1.545-.817 3.582-.565 2.814.349 3.464.137 3.031-.99-.302-.789-.088-1.435.477-1.435.566 0 .739-.468.385-1.04-.414-.67.367-.846 2.191-.494 1.559.3 2.269.28 1.578-.045-.691-.326-1.022-.971-.736-1.434.287-.464-.392-1.133-1.508-1.487-2.95-.936-1.427-2.5 2.434-2.5 1.824 0 4.706-.278 6.406-.618 3.05-.61 3.071-.654 1.599-3.5-1.344-2.599-2.004-2.89-6.715-2.959-2.873-.042-6.124-.268-7.224-.502-1.1-.235-10.869-.47-21.71-.523-14.568-.071-19.984-.426-20.759-1.361-.83-1 1.32-1.41 10.298-1.963 10.052-.619 16.787-.454 36.421.893 5.287.363 7.21-.937 2.964-2.003-1.574-.395-2.355-1.396-2.505-3.213-.12-1.451-.554-2.889-.964-3.195-.41-.306-.745-1.212-.745-2.013 0-2.707-9.333-7.629-11.682-6.161-1.549.967-1.848.976-1.268.037.486-.787.345-.972-.395-.514-.635.392-1.155.308-1.155-.188 0-1.561 7.918-3.389 20.285-4.684 2.632-.275 5.64-.958 6.685-1.517 1.044-.559 3.728-1.016 5.964-1.016 2.578 0 4.072-.457 4.081-1.25.011-.913.249-.882.881.116.656 1.036 1.318 1.104 2.735.281 1.341-.78 1.455-1.095.405-1.117-1.251-.026-1.238-.256.085-1.58 1.723-1.723 4.165-1.997 7.798-.875 2.057.635 2.315.477 1.727-1.056-.625-1.628-.222-1.747 4.135-1.231 7.129.844 14.152 3.806 11.64 4.909-1.675.736-1.632.789.33.417 1.416-.269 2.008-.033 1.596.634-.414.669-.172.762.653.252.78-.482 1.066-.415.706.166-.558.903 10.167 6.334 12.507 6.334.572 0 3.696 1.35 6.943 3 3.247 1.65 6.813 3 7.924 3 1.11 0 3.459.768 5.22 1.706 1.76.938 3.585 1.597 4.055 1.465.471-.133 1.494.289 2.274.936 1.922 1.595 3.125.199 1.311-1.521-2.846-2.7-33.335-17.624-40.866-20.003-12.255-3.871-29.344-5.217-45.847-3.611-7.55.734-15.527 1.427-17.727 1.539-2.2.112-4.675.488-5.5.835-.825.347-3.3 1.241-5.5 1.987-4.71 1.598-5.374 3.688-2.959 9.315.909 2.118 1.748 5.488 1.866 7.487.117 2 .95 4.76 1.85 6.135l1.638 2.499-13.988-.026c-11.82-.023-14.118-.276-14.826-1.635-.795-1.528-.94-4.389-1.39-27.392-.188-9.623-1.543-13.264-4.017-10.79-.802.802-4.334 18.217-6.859 33.824-1.175 7.261-1.765 7.987-5.999 7.391-.375-.053-.471 1.581-.211 3.631l.472 3.728-1.544-3.5c-1.524-3.454-1.616-3.496-6.958-3.162-7.995.499-9.081-1.532-8.233-15.39.663-10.841-.586-14.534-1.703-5.033-.808 6.877-1.478 8.584-3.121 7.954-2.396-.92-2.572 1.419-.503 6.67 1.565 3.969 1.775 5.509.898 6.565-1.258 1.517-.566 10.464 1.258 16.26 1.053 3.345 1.085 3.36 5.903 2.721 4.634-.615 4.912-.513 6.386 2.338l1.542 2.982-6.251.297c-5.382.257-6.287.576-6.507 2.298-.472 3.697 1.111 4.513 9.776 5.033 5.044.303 8.696.994 9.167 1.735 1.875 2.953.767 3.371-7.747 2.924-8.174-.429-8.586-.349-9.139 1.764-.435 1.666-.788 1.883-1.424.879-.584-.921-.851-.5-.862 1.356-.008 1.48.435 2.969.985 3.309.55.34 1.014-.196 1.03-1.191.029-1.707.088-1.711 1.05-.059.844 1.45 2.48 1.75 9.529 1.75 5.509 0 8.288.358 7.881 1.016-.346.559-1.016.777-1.49.484a1.022 1.022 0 0 0-1.401.34c-.297.48-2.803.655-5.569.389-3.603-.346-5.03-.131-5.03.76 0 .752.792 1.037 2 .721 1.1-.287 2-.115 2 .384 0 .498 2.738.906 6.083.906 7.746 0 7.82 2.35.088 2.802-4.737.277-5.171.508-5.171 2.75 0 1.347.498 2.448 1.107 2.448s.848.675.531 1.5c-.316.825-.139 1.5.393 1.5.533 0 .969-.623.969-1.383 0-.761 1.125-1.599 2.5-1.862 1.749-.334 2.5-.036 2.5.991 0 .839.593 1.241 1.384.937 1.63-.626 2.185 2.248 3.199 16.567l.691 9.75h-4.078c-4.547 0-5.759-1.193-5.334-5.249.159-1.513-.195-2.751-.787-2.751-.591 0-1.081 1.012-1.089 2.25-.007 1.238-.303 3.333-.657 4.656-.397 1.483-.264 2.172.347 1.794.545-.336 1.043-.069 1.107.594.273 2.815 3.129 12.439 4.512 15.206.826 1.65 1.795 4.125 2.155 5.5.628 2.403.593 2.425-.898.559-1.474-1.843-1.552-1.758-1.552 1.703 0 4.472 1.824 8.743 3.464 8.113 2.331-.894 3.826 2.408 3.112 6.873-.67 4.192-.657 4.216 1.211 2.211 1.038-1.114 2.194-3.248 2.569-4.742.605-2.41 2.08-3.238 4.394-2.467.412.137.58.7.373 1.25-.208.55-.497 3.25-.643 6-.146 2.75-.314 5.563-.373 6.25-.059.688-.772 1.25-1.584 1.25-1.765 0-4.941 4.515-4.115 5.851.457.739-1.405 2.149-2.838 2.149-.761 0-.305-6.627.569-8.259.558-1.044.692-2.65.298-3.569-.845-1.969-3.539 9.399-2.728 11.512.48 1.25 2.286 1.748 5.041 1.391 2.632-.342 1.415 5.736-1.426 7.12-1.472.718-2.872 1.905-3.111 2.638-.332 1.017.304.951 2.676-.276 3.745-1.936 4.158-.596 1.361 4.417-1.422 2.549-2.265 3.064-4.5 2.754-1.579-.219-2.75.092-2.75.73 0 2.617-5.395 4.257-12.4 3.77-6.646-.462-6.879-.402-6.343 1.645.678 2.596-.827 3.729-2.79 2.1-.907-.753-2.768-.951-5.002-.532-3.646.684-8.13-2.556-6.712-4.85.955-1.545 1.07-6.591.15-6.591-.475 0-.653-1.238-.396-2.75s.725-4.325 1.04-6.25l.571-3.5-1.791 2.75c-2.033 3.123-2.872 3.348-4.904 1.316-1.245-1.245-.665-2.199 4.399-7.25 3.208-3.199 6.606-7.006 7.551-8.46 2.469-3.8 6.072-2.829 5.224 1.408-.46 2.302-.312 2.751.654 1.973.687-.553 2.599-1.309 4.249-1.679 6.831-1.531 11.327-8.168 9.554-14.104-.65-2.176-.923-2.427-1.039-.954-.106 1.355-.6.79-1.535-1.754-1.199-3.266-6.401-9.152-7.299-8.259-.175.174-.5 3.518-.722 7.43-.455 8.005-2.092 12.49-3.585 9.821-.487-.869-.691-2.629-.454-3.909.237-1.281.465-5.843.506-10.138.047-4.934.442-7.581 1.074-7.191.595.368 1.032-.923 1.079-3.191.043-2.095.307-3.244.585-2.553.279.691.901 1.013 1.384.715.502-.311.5-1.489-.004-2.757-1.277-3.207-2.356-6.139-2.473-6.714-.056-.275-.349-.95-.652-1.5-1.152-2.093-.403-4.999 1.255-4.874 1.406.106 1.669-.884 1.639-6.164-.02-3.46.256-6.764.613-7.342.357-.578-.271-2.856-1.396-5.062-1.125-2.205-1.971-4.358-1.879-4.784.091-.426-.094-1.449-.413-2.274a36.148 36.148 0 0 1-.962-2.908c-.21-.775-1.321-1.552-2.468-1.727-1.905-.291-2.017-.008-1.284 3.243 1.056 4.682 3.034 9.392 3.944 9.392.4 0 .657 2.052.572 4.56-.084 2.509.209 4.785.653 5.059 1.435.887.858 3.357-1.193 5.113-1.1.942-2 2.512-2 3.49 0 .978-.407 1.778-.904 1.778-.497 0 .451 2.502 2.107 5.559 1.657 3.058 2.775 5.797 2.485 6.086-.289.289-1.061-.473-1.714-1.694-.821-1.533-1.418-1.851-1.928-1.026-.481.779-1.298.044-2.347-2.115-.885-1.821-1.227-3.444-.76-3.608.467-.164.619-1.176.338-2.25-.281-1.074-.019-1.952.582-1.952.739 0 .797-.775.18-2.397-.501-1.319-.656-2.652-.344-2.964.311-.312-.384-2.946-1.545-5.853-2.162-5.411-4.578-17.663-5.709-28.95-.35-3.485-1.247-6.821-1.994-7.414-2.597-2.06-2.721-7.117-.191-7.781 1.234-.325 2.394-.151 2.577.385.184.535 1.675.974 3.314.974 2.759 0 2.957-.24 2.666-3.25-.257-2.669-.739-3.25-2.693-3.25-2.189 0-5.244-4.255-3.338-4.648 1.535-.317 3.837-.562 6.604-.704 2.812-.144 2.871-.259 2.294-4.468-.326-2.375-1.114-5.638-1.752-7.25l-1.161-2.93-1.278 4c-.704 2.2-1.326 3.122-1.384 2.05-.152-2.833-2.041-.596-2.317 2.744-.125 1.502-.828 2.706-1.581 2.706-.869 0-1.277-.991-1.133-2.75.612-7.507-2.941-11.157-5.537-5.686-.897 1.89-2.23 3.436-2.961 3.436-.732 0-1.891.675-2.576 1.5s-2.315 1.5-3.622 1.5c-1.308 0-2.378.498-2.378 1.107s.713.834 1.584.499c.993-.381 1.431-.15 1.175.618-.46 1.378-7.562 1.182-11.505-.318-2.775-1.055-2.452-6.322.531-8.656 1.409-1.102 1.33-1.25-.667-1.25-3.814 0-2.137-3.29 2.313-4.539 2.234-.627 4.241-1.928 4.672-3.03.416-1.062.788-1.342.827-.622.038.72.542 1.017 1.119.661.723-.447.702-1.065-.067-1.991-1.272-1.533-8.726.518-10.176 2.8-.577.908-.779.857-.791-.2-.008-.782.713-2.226 1.602-3.208 1.505-1.663 1.385-2.086-1.724-6.079-1.838-2.361-3.687-4.541-4.109-4.846-1.284-.927-2.12-9.62-.992-10.317 1.582-.978 3.647.174 4.729 2.64.539 1.227 2.034 2.38 3.324 2.563 1.69.239 2.215.832 1.878 2.121-.268 1.024.332 2.366 1.402 3.137 1.208.87 1.656 2.024 1.266 3.254-.416 1.311-.237 1.679.576 1.176.664-.41 2.231.257 3.581 1.525 2.166 2.035 2.464 2.088 3.055.547.36-.939 1.258-1.476 1.994-1.193.736.282 1.605.083 1.93-.443.325-.526.088-.956-.527-.956s-.859-.419-.543-.931c.317-.512.096-1.227-.489-1.589-.741-.458-.708-1.088.106-2.069.932-1.123.814-1.411-.577-1.411-1.423 0-1.631-.579-1.122-3.125.344-1.719.625-4.387.625-5.929 0-1.542.686-3.489 1.524-4.327 1.364-1.365 1.286-1.645-.75-2.689-4.733-2.427-8.466-7.661-7.966-11.169l.464-3.261-2.136 1.905c-1.175 1.048-2.136 1.438-2.136.867 0-1.73-3.544-2.093-6.098-.624-2.287 1.316-2.222 1.352 1.348.756 4.234-.707 5.271.997 1.225 2.013-2.987.75-6.475 3.991-6.475 6.017 0 .985-.786 1.291-2.511.978-2.671-.484-8.833 3.223-7.891 4.747.286.463.076.841-.468.841-1.217 0-4.13 2.827-4.13 4.008 0 .476 1.459 1.006 3.242 1.179 4.329.418 4.605 2.61 1.18 9.379-3.089 6.106-4.384 6.563-8.092 2.854-2.642-2.641-2.782-5.207-.733-13.42.554-2.22.198-2.052-3.174 1.5-2.088 2.2-3.912 5.062-4.054 6.36-.325 2.998-.736 3.377-3.218 2.971-1.977-.324-1.983-.414-.269-4.097.963-2.072 2.115-3.422 2.559-3 .444.421.496-.247.116-1.484-.514-1.67-.288-2.25.876-2.25 1.078 0 1.567-.946 1.567-3.031 0-1.95.617-3.268 1.728-3.695.951-.365 2.771-1.902 4.044-3.415 1.274-1.514 3.097-3 4.052-3.303 1.773-.563 4.41-5.989 3.401-6.998-.307-.307-1.635-.558-2.951-.558-1.34 0-2.12-.44-1.774-1 .34-.55-.11-1-1-1s-1.34.45-1 1c.34.55.179 1-.358 1-.536 0-1.163-.562-1.392-1.25-.29-.868-3.048-1.258-9.027-1.277-4.736-.015-8.936-.353-9.333-.75-1.323-1.323-5.167-.746-5.786.867m96 8.241c-1.756 2.842-.921 11.931 1.684 18.34 1.492 3.668 2.728 7.493 2.747 8.5.02 1.006.634 2.908 1.365 4.228l1.329 2.398.444-3.022c.244-1.662-.579-7.016-1.829-11.898-1.25-4.883-2.556-10.902-2.902-13.377-.666-4.76-1.806-6.837-2.838-5.169M325 80.187l-3.5 2.172 3.336.99c2.524.749 3.533.672 4.143-.315 1.181-1.911 5.674-.47 6.327 2.029.3 1.147 1.479 2.33 2.62 2.628 1.141.298 2.074 1.015 2.074 1.592 0 .578.263.787.585.466 1.7-1.701 4.189 2.599 3.18 5.495-.975 2.798-.053 4.679 2.324 4.741.952.024 2.986-5.054 2.403-5.998-.294-.475.215-1.283 1.131-1.796 2.177-1.218-.685-5.484-4.873-7.265-1.512-.643-2.75-1.564-2.75-2.047 0-.484-.916-.879-2.035-.879-1.12 0-3.145-.727-4.5-1.615-1.514-.992-2.465-1.185-2.465-.5 0 .613-.477 1.115-1.059 1.115s-.734-.526-.336-1.17c.48-.777.186-.964-.876-.556-.88.337-1.741.192-1.914-.322-.173-.515-1.89.041-3.815 1.235M58.596 87.25c-1.768 19.599-3.094 62.685-1.609 52.25.469-3.3 1.365-13.875 1.989-23.5.624-9.625 1.388-20.425 1.696-24 .309-3.575.562-6.725.563-7 .023-6.564-2-4.839-2.639 2.25M356 90.46c0 .252 1.102 1.49 2.449 2.75 5.403 5.053 2.879 16.682-3.64 16.768-.93.012-1.969.472-2.309 1.022-.34.55.121 1 1.024 1 .904 0 1.436.563 1.184 1.25-.252.688-1 1.126-1.661.974-.676-.155-1.056.503-.867 1.5.224 1.181 1.423 1.881 3.578 2.089 1.783.173 3.242.685 3.242 1.139 0 .454 1.542 1.115 3.427 1.468 1.885.354 3.573 1.016 3.75 1.472.178.456 2.348 1.925 4.823 3.265 2.475 1.339 4.624 3.01 4.775 3.713.151.703 1.276 2.639 2.5 4.304l2.225 3.026.5-4.35c.275-2.393.177-4.593-.218-4.889-.394-.297-.674-2.693-.621-5.326.087-4.365.283-4.74 2.226-4.253 1.171.294 2.801.11 3.621-.408 1.252-.792 1.198-.946-.337-.959-2.083-.017-1.785-3.066 1.059-10.811 1.081-2.946 1.254-4.62.548-5.326-1.136-1.136-3.278 3.798-3.278 7.549 0 4.171-2.668 6.526-6.773 5.976-2.05-.275-5.122-.634-6.827-.8-1.705-.165-3.618-.62-4.25-1.01-1.369-.846-1.562-7.593-.217-7.593 2.058 0 2.155-4.122.171-7.331-2.664-4.312-6.104-7.481-6.104-5.624 0 1.054-.267 1.088-1.2.155-1.193-1.193-2.8-1.618-2.8-.74m-14.902 11.942c-1.321.732-3.304 1.095-4.406.807-1.352-.353-1.772-.147-1.289.633 1.007 1.631-7.881 1.453-17.903-.357-9.981-1.804-10.009-1.804-8.5.015 1.018 1.226.955 1.5-.346 1.5-1.004 0-1.379.554-1.016 1.5.731 1.905 2.362 1.956 2.362.075 0-1.807 8.419 3.268 14.71 8.867 4.09 3.64 4.922 3.957 10.853 4.149 6.974.226 12.156-2.274 10.994-5.304-.351-.914.168-1.664 1.37-1.978 2.143-.561 1.729-3.309-.499-3.309-1.826 0-3.458-3.247-2.953-5.873.473-2.452-.056-2.565-3.377-.725m-242.15 10.45c-.82 2.691-2.112 4.648-3.387 5.128-2.512.947-3.074-.152-1.543-3.014.977-1.826.894-2.094-.558-1.805-1.917.381-10.217 16.067-13.113 24.783-1.016 3.056-2.368 6.11-3.006 6.786-.637.677-1.46 3.013-1.828 5.193-.793 4.696-2.923 7.057-3.95 4.381-1.111-2.896-2.53.466-2.548 6.038-.01 3.311-.648 5.647-2.015 7.385l-2 2.543-.119-2.385c-.068-1.374-.614-.296-1.289 2.545-1.617 6.813-4.658 7.109-5.86.57-.344-1.87-.494-1.57-.596 1.193-.099 2.688.42 4.083 1.907 5.125l2.043 1.431-2.573 5.818c-1.415 3.199-2.661 7.843-2.769 10.317-.129 2.957-.905 5.265-2.263 6.731-2.549 2.751-5.137 10.916-5.986 18.885-.931 8.742-3.482 20.114-6.055 27-.411 1.1-.929 3.125-1.151 4.5-.221 1.375-1.079 4.506-1.904 6.957-2.879 8.545-2.863 11.543.061 11.543 2.207 0 2.554-.435 2.554-3.203 0-1.762.392-4.237.871-5.5.478-1.263 1.676-4.884 2.662-8.047 1.662-5.335 3.332-7.441 3.567-4.5.055.688.46.125.9-1.25 1.15-3.591 1.15-5.211 0-4.5-1.266.782-1.266-.542 0-2.5.862-1.333.975-1.333 1.025 0 .03.825 2.019-6.15 4.419-15.5 4.118-16.04 9.12-32.926 11.405-38.5.997-2.433 1.026-2.41 1.088.854.034 1.844-.415 9.719-.999 17.5-.584 7.78-.921 19.546-.75 26.146l.312 12 1.734-3.371c.954-1.855 1.49-3.767 1.191-4.25-.299-.484-.032-.879.592-.879.677 0 1.066-1.517.963-3.75-.401-8.655.235-17.836 1.02-14.75.42 1.65.843 5.025.94 7.5.154 3.895.338 4.248 1.369 2.626.655-1.031 2.19-3.393 3.411-5.25 2.213-3.366 1.87-4.498-.645-2.126-1.087 1.025-1.237.751-.834-1.524.27-1.525.135-2.994-.301-3.263-.435-.269-.602-1.946-.372-3.726.231-1.78.516-4.443.633-5.918.118-1.474.458-2.531.756-2.348.466.285 1.022-9.022 1.433-23.971.06-2.2-.325-4.312-.857-4.693-1.658-1.188 4.415-30.041 6.181-29.363.797.306 3.713.556 6.479.556h5.03l-.587 3.25c-.322 1.787-.865 8.65-1.206 15.25-.341 6.6-.969 17.4-1.397 24-.427 6.6-.474 12.57-.105 13.267.649 1.227 10.583-14.071 10.563-16.267-.005-.55 1.194-4.488 2.664-8.75 1.471-4.262 2.262-7.75 1.76-7.75-.503 0-.883-1.238-.845-2.75.064-2.485.162-2.558 1.016-.75.71 1.502.841.942.525-2.25-.231-2.338-.066-4.25.368-4.25.433 0 1.003-1.125 1.266-2.5.278-1.454.013-2.5-.634-2.499-.713 0-.987-1.791-.764-5 .348-5.032 3.153-7.553 3.153-2.834 0 5.698 1.426-.523 4.549-19.839.507-3.137-1.133-5.58-2.411-3.591-.351.546-1.651 1.309-2.888 1.696-1.924.6-2.25.337-2.25-1.82 0-2.138.571-2.616 3.75-3.14 5.258-.865 8.643-2.611 7.019-3.62-.698-.434-1.42-.351-1.604.185-.185.536-.798.689-1.362.34-.565-.349-1.419-.014-1.899.744-.538.848-.879.933-.889.222-.008-.648-.864-.935-1.944-.652-1.583.414-1.988-.097-2.253-2.844l-.323-3.348-1.906 3.5-1.906 3.5-1.704-4-1.704-4-1.327 4.352m314.434 16.595c-.305.796.347 4.509 1.449 8.25 1.917 6.509 3.292 12.503 5.113 22.303.577 3.104.871 3.647.946 1.75.061-1.512.569-2.75 1.13-2.75.58 0 .779-1.183.461-2.75-.307-1.512-1.132-6.497-1.833-11.076-.701-4.579-1.744-8.629-2.317-9-.572-.371-1.591-2.361-2.264-4.424-1.33-4.081-1.836-4.515-2.685-2.303M87.243 132.25C86.09 133.689 82 141.654 82 142.46c0 .885 9.386.582 10.857-.35.924-.586 1.145-1.826.691-3.89-.39-1.779-.228-3.3.393-3.684.583-.36 1.059-1.302 1.059-2.095 0-1.825-6.322-1.981-7.757-.191m146.447 4.115c-.263.685.33 3.021 1.317 5.19.988 2.17 4.113 9.505 6.945 16.3 5.484 13.158 8.235 18.489 16.715 32.384 2.933 4.807 5.343 9.757 5.355 11 .012 1.244.941 3.386 2.063 4.761l2.04 2.5-.676-2.5-.676-2.5 2.1 2.194c1.77 1.849 2.066 3.265 1.88 9-.122 3.743.103 7.706.499 8.806 1.208 3.356-5.013 3.26-6.289-.097-1.141-3.003-2.963-2.292-2.963 1.156 0 1.774-.546 2.441-2 2.441-1.774 0-2-.667-2-5.893 0-4.316-.401-6.047-1.5-6.469-1.136-.435-1.515.207-1.56 2.643-.033 1.771-.272 5.356-.529 7.969-.46 4.655.051 5.444 3.089 4.763 4.543-1.019 6.641-1.05 6.047-.09-.366.592-.012 1.077.787 1.077s1.711-.675 2.028-1.5c.316-.825 1.087-1.5 1.714-1.5.626 0 .879.675.562 1.5-.754 1.966.259 1.904 2.533-.155 1.729-1.565 1.829-1.507 1.829 1.059 0 1.555-.427 2.45-1 2.096-1.456-.9-1.224 2.029.487 6.122 1.443 3.454 1.611 3.541 5.75 2.974l4.263-.584-4 1.862c-2.434 1.134-4.608 1.551-5.553 1.065-1.054-.542-1.941-.178-2.759 1.131-1.256 2.012-3.779 2.598-4.355 1.011-.183-.505-1.606.103-3.161 1.351-2.551 2.045-2.677 2.42-1.285 3.813.954.953 1.394 2.732 1.152 4.649-.216 1.708-.066 3.106.334 3.106 1.665 0 3.127-2.607 3.127-5.578 0-2.796 1.968-6.015 3.092-5.057 1.52 1.295 7.067 1.491 6.584.232-.397-1.033.338-1.37 2.834-1.3 2.409.069 4.138-.673 6.066-2.601 2.935-2.934 4.677-3.52 3.819-1.283-.319.83.209 1.606 1.282 1.884 1.498.387 1.432.492-.368.587-2.467.131-3.096.886-4.333 5.201-1.001 3.489 1.452 5.418 3.437 2.703.618-.845 2.241-1.454 3.606-1.353 1.364.102 3.271-.477 4.237-1.286 2.526-2.114 3.31-.662 1.3 2.407-.944 1.439-1.567 2.727-1.386 2.86.182.134 3.636 1.265 7.677 2.514 14.069 4.349 27.128 15.125 32.981 27.214 1.16 2.396 3.485 5.931 5.168 7.856l3.06 3.5-.548-9.5c-.301-5.225-.786-11.525-1.077-14-.292-2.475-.516-5.625-.498-7 .053-4.062-1.147-4.896-8.559-5.947-3.872-.549-8.353-1.683-9.957-2.52-1.604-.836-3.416-1.523-4.026-1.527-.61-.003-3.085-1.577-5.5-3.496-2.415-1.92-4.938-3.495-5.606-3.5-1.937-.016-3.762-4.097-2.25-5.032.975-.602.95-1.078-.117-2.221-1.807-1.935-4.73-1.068-5.112 1.517-.168 1.138-.833 2.243-1.477 2.455-.745.245-.976-.365-.634-1.672.716-2.737-.957-2.64-2.208.128-2.044 4.527-3.383 3.203-2.769-2.739.564-5.468.506-5.652-1.566-4.994-2.444.775-2.987-.917-.59-1.837 2.111-.81.01-3.862-5.001-7.268-1.987-1.35-3.386-2.821-3.109-3.269.67-1.085 7.64-2.195 15.048-2.398 5.473-.149 5.973.012 5.689 1.828-.706 4.532-.015 8.902 1.604 10.131 2.306 1.753 2.989 1.676 3.456-.389.311-1.375 1.56-.564 5.823 3.779 5.728 5.835 11.326 8.973 13.008 7.291.625-.625-2.5-3.392-8.806-7.798-5.376-3.755-9.941-6.963-10.144-7.129-.204-.165-.079-1.46.277-2.877l.646-2.577 3.224 2.356c1.773 1.295 6.729 4.948 11.015 8.118 6.12 4.526 8.086 5.518 9.164 4.624 2.824-2.344 5.408-9.799 5.842-16.854.448-7.287.245-7.573-3.298-4.635-4.403 3.651-23.425 3.351-30.963-.489-3.226-1.643-7.629-2.294-6.287-.93.688.699 1.25 1.574 1.25 1.944 0 .741-7.98 1.931-14.983 2.233l-4.484.194-3.591-7c-1.975-3.85-4.162-8.575-4.859-10.5-1.09-3.009-1.37-3.229-2.003-1.566-.937 2.464-1.661 1.222-2.583-4.434-.403-2.475-1.367-5.738-2.141-7.25-1.431-2.796-3.356-3.704-3.356-1.583 0 2.147-1.278-.08-3.051-5.317-.966-2.854-1.575-5.675-1.354-6.269.222-.595-.528-2.431-1.667-4.081l-2.07-3 .627 3.5c.586 3.275.424 3.147-2.527-2-4.916-8.573-7.247-14.254-7.079-17.255.084-1.517-.327-2.641-.916-2.5-.589.14-2.509-1.715-4.267-4.122-2.855-3.91-3.02-4.49-1.549-5.43 1.284-.821 1.425-1.539.639-3.262-1.272-2.792-5.404-4.87-6.096-3.066m-116.084 21.463c-.868 1.404-1.037 11.542-.232 13.922.446 1.319.356 2.25-.218 2.25-1.095 0-1.006 1.85.181 3.75.43.688.394 1.25-.078 1.25-1.259 0-1.401 2.176-1.826 28-.23 14.034.002 24.104.575 25 .855 1.333.963 1.333.979 0 .043-3.647 2.065-27.744 2.517-30 1.945-9.704 2.97-38.724 1.433-40.575-.713-.86-.709-1.448.014-1.895.577-.356 1.049-1.071 1.049-1.589 0-1.16-3.688-1.255-4.394-.113m248.17 5.454c-6.636 5.405-8.724 6.718-10.684 6.718-1.151 0-2.092.45-2.092 1s.9 1 2 1c2.289 0 2.525 1.187.788 3.968-.667 1.068-.891 2.262-.499 2.655 1.111 1.111 4.845-1.289 11.295-7.26 5.942-5.501 5.704-6.354-1.084-3.896-1.298.47-.688-.539 1.735-2.872 4.063-3.91 2.955-4.908-1.459-1.313m-127.285 3.968c.252 2.887.735 9.188 1.073 14l.616 8.75h2.828c1.556 0 3.485.252 4.288.56 1.095.42 1.628-.565 2.135-3.946.836-5.579-.496-10.749-4.328-16.791-1.621-2.555-2.682-4.911-2.358-5.234.562-.563-1.333-.984-3.069-.683-.454.079-.54-.318-.191-.881.348-.564.164-1.025-.409-1.025-.65 0-.87 1.981-.585 5.25m195.505-1.745c-1.129 1.36-.987 3.135.907 11.304 3.444 14.855 3.477 13.657-.383 13.935-1.864.135-9.381 1.807-16.705 3.718-18 4.695-19.073 4.912-15.052 3.04 1.795-.835 8.995-2.916 16-4.624 16.849-4.108 18.252-4.663 15.981-6.324-1.427-1.043-3.922-.851-13.99 1.075-19.94 3.814-21.231 4.322-21.381 8.415-.07 1.901-.443 4.211-.829 5.133-1.534 3.665-.242 6.337 2.956 6.116 2.991-.207 2.989-.203-.622 1.337l-3.622 1.544-.102 7.913c-.115 8.903.098 9.082 8.156 6.844 6.812-1.892 6.379-.325-.549 1.981-10.721 3.569-10.634 6.97.115 4.472 9.683-2.251 10.624-1.191 1.327 1.496-4.511 1.304-8.203 2.764-8.203 3.245 0 1.272 2.824 1.058 8.409-.636 2.7-.819 5.85-1.453 7-1.41 2.466.093 2.279.169-7.28 2.941-4.703 1.363-7.025 2.484-6.413 3.096.592.592 1.88.61 3.371.048 3.178-1.2 16.918-3.493 17.491-2.92.246.246-4.396 1.693-10.315 3.214-5.92 1.522-11.183 3.159-11.696 3.638-1.904 1.776.471 2.043 7.743.87 10.795-1.741 11.445-.724 1.16 1.815-12.651 3.123-12.86 4.281-.638 3.536 5.592-.34 10.168-.363 10.168-.05s-4.275 1.543-9.5 2.733c-6.076 1.384-9.5 2.637-9.5 3.477 0 1.005.879 1.108 3.75.442 6.674-1.55 8.952-.803 2.5.82-9.393 2.362-8.438 5.534 1.005 3.341 2.188-.508 3.987-.498 4.309.024.305.493-.066.896-.823.896-3.41 0-11.741 3.187-11.741 4.492 0 1.115 1.091 1.285 5.157.803 6.43-.761 5.896.889-.881 2.723-2.627.711-5.338 1.728-6.026 2.26-2.118 1.639-1.383 2.723 1.185 1.747 4.18-1.59 11.608-1.569 12.623.034.631.997.916 1.056.927.191.026-2.182 1.862-1.346 2.195 1 .333 2.344 11.758 7.051 14.569 6.003 1.357-.506-2.718-4.253-4.625-4.253-.584 0-.824-.618-.535-1.372.677-1.763-4.568-2.881-6.402-1.365-1.385 1.146-.973-1.839.987-7.152.485-1.313.637-2.634.337-2.934-.3-.3-1.087.888-1.748 2.639-.889 2.356-1.823 3.184-3.593 3.184h-2.392l2.329-1.885c1.996-1.617 2.137-2.116.988-3.5-1.164-1.403-1.052-1.615.859-1.615 1.21 0 3.517-1.317 5.127-2.928 1.611-1.61 3.643-3.072 4.517-3.25.954-.193 2.409-2.824 3.636-6.572 2.337-7.141 2.245-7.093 7.171-3.75 2.026 1.375 4.451 2.536 5.389 2.579 1.043.048 1.22.275.456.583-1.974.797-1.456 2.338.784 2.338 2.338 0 2.37-3.603.058-6.389-1.683-2.029-3.216-2.098-2.454-.111.317.825.078 1.5-.531 1.5s-1.139-1.012-1.177-2.25c-.067-2.147-.11-2.158-.93-.25-.688 1.6-.873 1.245-.93-1.781-.044-2.389-.622-3.994-1.57-4.357-2.8-1.075-.397-12.362 2.632-12.362.542 0 .72-.43.396-.955-.325-.526.488-3.563 1.807-6.75 5.419-13.099 4.891-14.26-5.958-13.097-10.02 1.073-10.071.664-.271-2.167 10.531-3.043 10.603-3.208 8.601-19.716-1.793-14.79-3.584-20.373-5.711-17.81M129.183 180.02c-1.216 3.197-1.491 50.986-.312 54.119 1.532 4.072 3.21-4.197 4.555-22.445.194-2.644.628-5.081.964-5.417.335-.336.61-1.421.61-2.412 0-1.072.529-1.599 1.305-1.301 1.293.496 1.438 4.341.33 8.756-1.234 4.915-1.747 13.68-.801 13.68.538 0 .762 1.012.498 2.25-.468 2.194-.441 2.201 1.094.309.866-1.068 1.574-2.729 1.574-3.691 0-.963.481-2.047 1.068-2.41.588-.363.755-1.402.373-2.309-1.016-2.408-1.36-15.149-.409-15.149.445 0 1.102 1.335 1.461 2.966l.651 2.967 5.178-4.111c2.848-2.26 5.066-4.495 4.928-4.966-.137-.471.377-.856 1.143-.856s1.671-.725 2.011-1.611c.453-1.18.192-1.448-.974-1-.877.336-2.007.611-2.512.611-.505 0-.805.503-.668 1.117.138.615-.605 1.26-1.65 1.434-1.045.174-2.275.908-2.735 1.633-.63.994-.838.888-.85-.434-.009-1.078-.783-1.75-2.015-1.75-1.1 0-2-.477-2-1.059s-.403-.81-.895-.506c-.493.305-1.153-.119-1.469-.941-.556-1.45.435-1.927 3.214-1.546.743.102 1.054-.294.691-.881-.362-.587.005-1.067.817-1.067.811 0 1.661-.558 1.889-1.241.554-1.661-2.213-4.414-3.088-3.072-2.25 3.451-7.985-2.508-6.603-6.862.44-1.389.292-1.849-.449-1.391-.609.376-1.107 1.332-1.107 2.125 0 .793-.498 1.441-1.107 1.441s-.88-.59-.604-1.312c.277-.721-.32-2.403-1.327-3.738l-1.83-2.427-.949 2.497M407 181.125c-10.511 2.723-10.927 2.914-8.5 3.912 1.1.452 1.382.854.628.893-1.107.056-1.131.361-.128 1.57.997 1.201.988 1.5-.044 1.5-.709 0-1.074.215-.811.479.264.263 5.787-.862 12.274-2.5 6.487-1.639 13.295-2.979 15.129-2.979 1.834 0 3.612-.45 3.952-1 .943-1.526-9.1-1.224-18.481.556-4.51.855-8.942 1.413-9.847 1.239-.905-.175 2.511-1.161 7.591-2.192 5.081-1.032 9.237-2.264 9.237-2.739 0-1.233-2.464-.951-11 1.261m-84 4.754c0 .484-3.712 2.973-8.25 5.531-8.587 4.843-15.077 9.468-11.25 8.019 5.761-2.182 20.671-5.55 25.353-5.727l5.353-.202-4.826-4.25c-4.79-4.219-6.38-5.059-6.38-3.371m-78.894 8.672l-3.394 1.474.586 6.737c.657 7.565 2.531 13.812 3.769 12.564.45-.454 1.046-3.526 1.325-6.826.279-3.3.816-8.137 1.193-10.75.378-2.613.513-4.732.301-4.711-.212.022-1.913.702-3.78 1.512m105.629 20.699c-.237.688-.073 2.15.365 3.25s1.29 6.725 1.894 12.5c2.297 21.962 2.077 21.15 5 18.506 3.929-3.556 1.771-20.162-4.127-31.756-2.072-4.073-2.477-4.396-3.132-2.5M120.66 248.162c-.363 13.289-.66 38.714-.66 56.5V337l-2.25.116c-1.709.088-1.827.226-.49.575 1.251.327 1.695 1.313 1.536 3.409-.148 1.934-.668 2.779-1.511 2.456-.888-.341-1.271.501-1.239 2.725.039 2.657 1.436 4.617 7.996 11.219l7.949 8-.12-10.5c-.066-5.775-.404-13.65-.753-17.5l-.633-7-.895 4.5c-1.219 6.132-1.322 7.115-1.465 14-.095 4.576-.476 6-1.606 6-2.391 0-2.51-2.458-2.259-46.75.132-23.238-.034-42.25-.368-42.25-.334 0-.598-1.012-.586-2.25.165-16.925-.493-39.75-1.146-39.75-.462 0-1.137 10.873-1.5 24.162m270.158-16.654c-.33.546-.661 5.151-.737 10.234-.076 5.083-.318 9.808-.539 10.5-.952 2.977-1.591 22.906-.717 22.366 4.041-2.497 6.766-30.002 3.923-39.6-.732-2.47-1.601-4.045-1.93-3.5M246 234.667c0 .733.491 1.333 1.092 1.333.687 0 1.014 2.131.881 5.75-.333 9.036-.147 10.254 1.471 9.633 1.544-.592 1.53-.667 1.642 8.867l.068 5.75 4.173-.022 4.173-.022-2.485-1.91c-1.367-1.05-2.21-2.184-1.874-2.52.875-.876 7.877 2.635 7.257 3.639-.284.459.411.835 1.543.835s2.059-.45 2.059-1c0-1.869 3.862-1.01 4.5 1 .349 1.1 1.279 2 2.067 2 .788 0 1.433.498 1.433 1.107s.662.853 1.471.542c.809-.31 2.127.092 2.929.893 1.885 1.886 2.97 1.865 2.238-.042-.316-.825-.202-1.5.255-1.5.456 0 .615-1.125.352-2.5-.387-2.024-1.075-2.506-3.612-2.532-3.565-.036-7.159-2.307-6.174-3.901.362-.587.182-1.067-.4-1.067-.582 0-1.059.9-1.059 2 0 1.412-.662 1.995-2.25 1.985-1.861-.013-1.991-.198-.75-1.071 1.139-.801.657-.951-2-.621-6.819.847-9.252-1.87-6.993-7.812.554-1.457.678-3.174.277-3.815-.402-.641-.743-1.841-.758-2.666-.015-.862-.944-1.5-2.186-1.5-3.369 0-3.568-.879-1.456-6.436 2.175-5.726 2.017-5.949-4.134-5.813-2.417.053-3.75.556-3.75 1.416M378.732 238c-.411 3.025-.824 9.051-.918 13.39-.141 6.468-.475 7.97-1.857 8.331-2.021.529-3.767 14.16-1.958 15.279 1.646 1.017-1.744 8.312-3.542 7.622-1.567-.601-4.078 1.678-8.599 7.806-3.267 4.428-2.52 5.829 2.595 4.869 3.46-.65 6.78-2.218 4.797-2.267-1.376-.033-1.77-3.03-.399-3.03.469 0 3.585-2.707 6.925-6.017 6.499-6.438 8.18-10.337 6.114-14.174-.779-1.447-1.461-8.843-1.827-19.809-.46-13.783-.743-16.332-1.331-12m-155.184-.053c-1.446 1.598-2.094 1.796-2.709.827-.475-.748-.815-.824-.824-.185-.008.6-1.065 1.568-2.348 2.153-1.284.585-2.365 1.67-2.403 2.411-.038.741-.409 2.879-.823 4.752-.555 2.51-.443 3.214.426 2.677 1.361-.841.529 6.615-1.089 9.761-1.807 3.513-.159 6.457 3.613 6.457 1.872 0 4.35.3 5.506.667 3.352 1.064 2.511-1.487-.917-2.781-1.88-.709-2.824-1.651-2.5-2.495.286-.745.52-4.159.52-7.588 0-6.17.036-6.25 3.596-7.947 3.464-1.652 3.539-1.8 2.065-4.051-1.066-1.627-1.213-2.653-.483-3.383.576-.576.872-1.571.659-2.211-.242-.726-1.104-.373-2.289.936m-15.298 4.759c-1.238.238-2.25.852-2.25 1.364 0 .511-.338.877-.75.812-2.906-.459-3.25.401-3.25 8.118 0 7.98.635 9.349 3.01 6.488.887-1.069 1.619-1.211 2.496-.483 1.536 1.275 4.494.252 4.494-1.553 0-2.034-1.935-2.785-2.614-1.015-.827 2.156-2.46 1.981-1.749-.187.315-.963 1.66-4.142 2.987-7.066 2.192-4.829 2.399-7.409.567-7.048-.38.075-1.703.331-2.941.57M83.207 265.25c-3.625 7.385-5.63 14.756-4.963 18.245.263 1.378.127 2.505-.302 2.505-1.252 0-3.849 8.977-4.484 15.5-.321 3.3-.78 6.976-1.02 8.169-.327 1.631.41 2.692 2.969 4.273 1.872 1.158 5.194 3.894 7.381 6.081 5.72 5.72 6.368 5.324 6.17-3.773-.093-4.262.07-8.425.362-9.25.973-2.749 1.522-43.285.619-45.661-1.469-3.862-3.494-2.685-6.732 3.911m206.88-2.053c-1.698 2.308-3.087 5.197-3.087 6.418 0 1.222-.242 2.852-.538 3.623-.388 1.01.88 1.728 4.547 2.575 5.458 1.26 21.991 9.071 21.991 10.39 0 1.445-1.963.841-9.275-2.855-7.811-3.949-17.843-6.905-26.975-7.949-5.456-.624-5.75-.545-5.75 1.541 0 3.105-4.369 2.479-4.82-.69-.468-3.295-3.127-2.764-3.833.766-.686 3.429-2.982 2.561-3.537-1.339-.473-3.323-9.157-3.257-9.63.073-.307 2.166-3.18 3.295-3.18 1.25 0-.55-2.073-1-4.607-1-3.684 0-4.492-.3-4.031-1.5.69-1.8-.975-2.044-1.703-.25-.392.968-.7.979-1.364.046-.928-1.304-5.295-1.373-5.295-.083 0 .433-2.227.787-4.949.787h-4.949l-1.719 5.455c-.946 3-2.06 5.245-2.476 4.988-.415-.257-.962.326-1.215 1.295-.253.969-.512.045-.576-2.054-.064-2.098.34-4.667.897-5.708 1.26-2.355-1.457-4.14-5.101-3.351-5.466 1.183-24.978 7.642-24.508 8.113.28.279 4.916-.711 10.302-2.2l11.544-3.19c1.102-.304 1.75.071 1.75 1.012 0 1.43-9.442 6.601-12.188 6.675-.722.02-2.437.679-3.812 1.465-3.344 1.912-1 1.775 7.487-.435 3.843-1.001 7.555-1.602 8.25-1.336 1.704.654 1.608 2.271-.135 2.271-.769 0-3.356 1.12-5.75 2.488-2.394 1.368-4.893 2.493-5.554 2.5-2.082.021-22.84 8.331-21.732 8.701.58.193 5.911-1.473 11.846-3.702 5.935-2.229 12.883-4.331 15.44-4.67l4.648-.616-1.919 2.165c-1.797 2.028-1.811 2.245-.214 3.413 1.547 1.132 1.422 1.414-1.348 3.051-1.68.992-2.803 2.211-2.496 2.708.307.497-.135 2.244-.982 3.883-.848 1.639-1.541 3.803-1.541 4.809 0 1.005-.843 2.436-1.873 3.178-1.03.743-1.678 2.093-1.441 3.001.238.908-.077 2.987-.699 4.621-2.073 5.442-1.994 15.154.139 17.084 2.686 2.431 8.853 13.783 8.99 16.548.085 1.715.239 1.868.576.576.665-2.552 2.306-1.088 2.322 2.071.025 4.928 1.006 6.998 3.063 6.461 1.448-.379 1.759-1.077 1.297-2.916-.575-2.292-.471-2.356 2.01-1.225 1.439.656 2.652 1.907 2.695 2.782.051 1.033.255 1.152.583.339.278-.687 2.042-1.25 3.921-1.25 2.051 0 3.429.5 3.447 1.25.017.694.484.471 1.05-.5 1.463-2.512 4.232-2.309 3.42.25-.522 1.645-.18 2 1.933 2 1.412 0 2.568-.562 2.569-1.25.001-.714 1.503-1.357 3.5-1.499 1.951-.14 3.498.218 3.498.809 0 .582.45.78 1 .44 1.915-1.184.981-5.309-1.901-8.394-3.364-3.601-5.584-3.938-7.114-1.078-1.328 2.481-3.36 1.515-2.636-1.253.468-1.79.188-1.923-2.663-1.275-1.752.399-4.182.681-5.399.627-1.568-.07-2.047.335-1.643 1.387.424 1.106-.179 1.486-2.363 1.486-4.246 0-7.031-3.55-8.671-11.054-1.213-5.548-1.423-5.924-1.51-2.696-.103 3.847-1.412 4.985-2.493 2.168-.334-.87-.548-4.807-.475-8.75.106-5.782.274-6.491.868-3.668.658 3.128.751 3.209.868.764.191-3.954-2.108-11.852-3.329-11.437-1.11.378-1.085 9.291.039 13.965.501 2.084.323 2.717-.703 2.5-.974-.207-1.282.568-1.057 2.653l.319 2.946-1.993-2.446c-1.096-1.345-1.577-2.595-1.068-2.778.508-.184.924-4.095.924-8.691 0-4.597.399-8.605.887-8.906.487-.301 1.201-2.225 1.585-4.274 1.574-8.388 5.465-11.597 5.513-4.546.031 4.625 1.895 2.035 2.52-3.5.791-7.017 1.86-10.75 3.078-10.75.505 0 1.005.9 1.112 2 1.104 11.321 1.606 13.873 2.36 12 .731-1.817.812-1.772.89.5.152 4.424 1.741 5.866 3.584 3.25.871-1.238 2.042-2.25 2.6-2.25.559 0 .083 1.186-1.056 2.635-2.675 3.4-2.633 6.765.116 9.326 3.469 3.232 6.511 2.596 3.237-.678-1.238-1.238-1.302-1.742-.3-2.361 1.527-.944 1.517-8.208-.012-8.717-.589-.197.37-1.673 2.13-3.281 3.399-3.105 2.356-3.863-2.679-1.949-2.002.761-2.565.666-2.565-.435 0-.776 1.596-1.988 3.547-2.693 3.253-1.176 3.523-1.577 3.25-4.815-.495-5.881 3.58-9.032 11.678-9.032 3.524 0 6.685.45 7.025 1 .34.55 1.957 1 3.594 1 2.629 0 2.856.225 1.945 1.928-.568 1.06-.755 2.648-.417 3.529.833 2.172 3.3-.928 3.346-4.207.018-1.238.565-2.25 1.216-2.25.652 0 3.014-.824 5.25-1.831 12.418-5.594 11.893-5.442 13.086-3.81 1.32 1.805 21.017 2.19 28.347.555 7.55-1.685 8.219-.992 7.63 7.904-.28 4.225-.981 7.84-1.559 8.034-.577.193-1.574.913-2.214 1.599-1.885 2.017-5.18.73-3.401-1.328 1.685-1.95 3.118-8.513 1.662-7.614-.542.335-.985 1.209-.985 1.943 0 1.791-2.953 2.832-4.469 1.574-.668-.555-1.511-.713-1.873-.351-.362.362-.672-.204-.688-1.258-.03-1.837-.076-1.84-1.096-.085-.585 1.007-.839 2.694-.563 3.75.564 2.154.729 2.074-5.048 2.458-3.941.262-4.164.144-3.184-1.688 1.155-2.157.314-7.852-1.158-7.852-.507 0-.973 1.238-1.037 2.75-.064 1.512-.312 2.016-.551 1.118-.361-1.358-.852-1.442-2.927-.5-2.165.983-2.471 1.724-2.325 5.632.213 5.674-.573 7.536-3.267 7.739-1.174.088-2.4.521-2.724.961-.325.44-1.642 1.391-2.927 2.113-2.16 1.213-2.288 1.156-1.683-.75.949-2.992-2.655-2.732-6.075.437-1.483 1.375-3.194 2.486-3.801 2.468-.607-.017-.302-.64.678-1.383 1.667-1.265 1.626-1.391-.64-1.96-2.554-.641-4.499-3.839-2.699-4.439 1.501-.501 1.309-2.732-.354-4.112-1.99-1.651-2.777.002-2.855 5.995-.071 5.506-.683 5.531-2.379.099-.807-2.586-1.176-3.022-1.25-1.477-.14 2.912-1.215 3.433-3.557 1.72-1.8-1.316-1.808-1.411-.122-1.411 1.416 0 1.655-.487 1.105-2.25-.387-1.238-.657-3.488-.601-5 .096-2.602-.137-2.75-4.331-2.75-2.65 0-4.605.503-4.863 1.25-.702 2.041 1.288 6.599 3.091 7.076 1.498.396 1.49.454-.077.558-1.064.071-1.75.925-1.75 2.182 0 1.136-.405 2.823-.9 3.75-1.434 2.685-2.209 9.184-1.095 9.184.547 0 .995-.712.995-1.583s.563-1.38 1.25-1.131c.688.249 2.037-.233 3-1.071 1.629-1.419 1.75-1.25 1.75 2.439 0 2.18.674 4.837 1.499 5.905 1.381 1.789 1.45 1.609.872-2.309-.518-3.516-.345-4.25 1.001-4.25.97 0 1.628.821 1.628 2.031 0 1.118.686 2.295 1.524 2.616 1.127.433 1.363 1.44.906 3.872-.506 2.702-.265 3.399 1.355 3.913 1.968.624 5.149 8.968 3.896 10.22-1.229 1.229-3.419-.581-4.012-3.316-.976-4.501-2.243-5.935-3.974-4.497-1.213 1.006-1.731.529-3.077-2.835-.89-2.224-1.618-4.743-1.618-5.596 0-1.352-.215-1.336-1.676.125-1.446 1.447-1.49 1.968-.316 3.821.747 1.18 3.371 5.709 5.83 10.065 4.43 7.846 4.486 7.899 6.206 5.775 1.697-2.095 1.748-2.099 2.252-.169.326 1.245.019 1.975-.831 1.975-.741 0-1.604.416-1.919.925-.693 1.123 1.438 6.075 2.615 6.075.461 0 .839.62.839 1.378 0 2.125 2.437 3.785 3.701 2.521.738-.738 1.712-.128 3.253 2.036 1.209 1.699 2.684 2.789 3.277 2.422.686-.424.784-.19.269.643-.551.892-.42 1.068.412.554.791-.489 1.11-.211.905.79-.174.849.531 2.17 1.567 2.935 1.458 1.076 1.872 2.616 1.827 6.806-.056 5.318 1.553 4.512 1.719-.861.068-2.204.164-2.227 3.07-.724 1.65.853 3 1.159 3 .678 0-.48-1.012-1.377-2.25-1.993-1.825-.91-1.21-1.007 3.25-.518 6.467.71 6.224.587 5.397 2.741-.499 1.299-1.351 1.541-3.649 1.037-2.357-.518-2.832-.369-2.221.698 1.871 3.267 4.204 5.073 9.794 7.581 3.283 1.474 5.454 2.851 4.824 3.061-.63.21-1.145.948-1.145 1.64 0 .936 1.216 1.072 4.75.532 2.613-.399 6.438-.666 8.5-.592 2.406.087 3.751-.313 3.75-1.115 0-.687.44-1.25.977-1.25 1.141 0 3.539-3.573 4.448-6.628.69-2.322-3.892-4.204-4.811-1.977-.293.711-.484.659-.535-.145-.162-2.57-3.141-1.189-3.725 1.728-.327 1.637-1.216 3.492-1.975 4.122-.758.63-1.379 1.78-1.379 2.557 0 .922-.853 1.297-2.462 1.082-3.181-.426-4.511-1.739-1.761-1.739 2.452 0 5.223-3.494 5.223-6.585 0-1.772-.472-2.066-2.75-1.709-5.377.843-6.553.78-6.954-.371-.493-1.415 2.72-2.535 7.271-2.535 2.53 0 3.526-.516 4.024-2.087.558-1.759.839-1.86 1.786-.642.618.794 2.135 1.297 3.373 1.117 1.695-.246 2.25.168 2.25 1.68 0 1.399.614 1.961 2.025 1.855 1.202-.09 1.824-.674 1.531-1.438-.271-.707-.057-1.285.475-1.285 1.024 0 1.123.678 1.205 8.25.06 5.525.462 5.718 4.063 1.96 2.649-2.765 2.655-2.805.687-4.49-2.134-1.827-2.455-3.432-1.11-5.554.682-1.076.962-1.031 1.447.233 1.708 4.452 7.677-3.827 7.677-10.648 0-3.96-.418-4.832-3.409-7.114-5.4-4.119-6.063-11.207-1.208-12.915.485-.171.56-1.327.166-2.569-.577-1.818-1.335-2.199-3.883-1.956-2.986.286-3.183.095-3.47-3.345-.219-2.619-.853-3.791-2.25-4.156-2.361-.617-2.548-3.535-.331-5.157 1.448-1.059 1.19-2.061-2.5-9.683-4.613-9.532-4.954-11.693-2.213-14.04 1.809-1.549 1.92-1.464 2.297 1.762.218 1.865-.034 3.534-.559 3.709-1.447.482 6.107 11.713 7.879 11.713.849 0 1.784.627 2.078 1.393.407 1.06 2.316 1.317 7.982 1.074 4.397-.188 7.213.06 6.875.607-.314.509-1.333.938-2.263.952-.93.015-3.333.802-5.34 1.75-3.08 1.455-3.523 2.052-2.836 3.829.865 2.239.134 2.242 12.485-.056l3-.558-2.922 1.375-2.923 1.375 3.563.416c1.96.229 4.029.261 4.597.071 1.722-.574.35-31.373-1.481-33.228-1.309-1.327-1.403-1.076-.81 2.172.368 2.019.345 5.149-.052 6.955l-.721 3.284-1.764-2.179-1.764-2.178-.515 2.692c-.288 1.505.104 3.575.889 4.696.772 1.101 1.403 2.408 1.403 2.903 0 1.93-3.282-1.969-5.709-6.782-1.404-2.785-2.858-5.288-3.23-5.563-.372-.275-2.104-3.49-3.849-7.145-2.473-5.182-3.837-6.877-6.192-7.698-1.661-.579-3.02-1.473-3.02-1.987 0-.918 5.225.529 7.75 2.147 2.14 1.371 1.377-.408-1.656-3.863-1.598-1.82-3.173-3.042-3.5-2.715-.327.327-.608-.043-.625-.822-.043-1.979-7.939-7.719-13.545-9.847l-4.68-1.777 2.35-1.646c1.293-.906 1.748-1.647 1.012-1.647-.856 0-1.147-.737-.806-2.041.446-1.703.175-1.941-1.633-1.435-1.494.419-1.754.32-.837-.317.994-.69.192-1.59-3.178-3.565-5.821-3.411-5.926-3.394-9.565 1.555m56.095 7.053c2.716 34.378 2.408 32.26 5.283 36.374l2.709 3.876-.53-4c-.291-2.2-1.244-12.775-2.119-23.5-1.794-21.996-1.795-22-4.268-22-1.663 0-1.748.729-1.075 9.25M366 262c-.825.533-3.55.976-6.055.985l-4.555.015.841 7.75c1.632 15.025 1.89 16.376 3.062 15.986.633-.211 1.409-1.472 1.723-2.802.314-1.33 1.676-2.977 3.027-3.661 1.351-.684 2.064-1.25 1.585-1.258-.48-.008-.416-.577.141-1.265.803-.989 2.607-16.794 1.91-16.735-.098.009-.854.452-1.679.985m43 21.367c0 .751-.953 3.659-2.118 6.462-2.53 6.088-2.036 8.942 2.074 11.981 3.298 2.438 9.826 4.264 8.693 2.432-1.222-1.978 1.557-1.842 8.728.427 3.918 1.239 9.148 2.801 11.623 3.472 2.475.671 5.051 1.634 5.725 2.141 1.976 1.486 3.669-3.44 2.734-7.955l-.792-3.827-.6 3-.601 3-6.943-.311c-6.283-.281-7.175-.59-9.378-3.25-1.339-1.616-3.053-2.939-3.809-2.939-1.481 0-1.202-2.116 1.242-9.433.723-2.163 1.073-4.322.779-4.798-.861-1.394-3.356 1.281-3.363 3.603-.013 5.252-2.035 9.628-4.447 9.628-1.926 0-2.27-.414-1.87-2.25.427-1.961.083-1.818-2.685 1.119-2.762 2.929-3.48 3.23-5.509 2.305l-2.333-1.063 1.789-4.805c2.587-6.952 3.264-10.306 2.08-10.306-.56 0-1.019.615-1.019 1.367M268.212 295.25c-.568.688-1.366 3.032-1.773 5.209-.651 3.485-.838 3.695-1.557 1.752-.689-1.864-1.387-2.134-4.488-1.737-2.019.258-3.946.746-4.283 1.083-1.087 1.091 4.923 5.443 7.516 5.443 1.384 0 3.247.731 4.14 1.624 1.498 1.498 1.802 1.415 3.942-1.073 1.276-1.482 2.022-3.178 1.657-3.767-.364-.59-.623-2.457-.575-4.149.132-4.641-2.38-7.047-4.579-4.385m91.375 10c.812 7.403 5.242 27.268 5.343 23.96.039-1.259.964-4.043 2.058-6.186l1.987-3.896-2.659-8.814c-3.808-12.619-7.896-15.695-6.729-5.064m31.867-1.857c-.667 3.558 1.27 10.348 3.839 13.455.612.741 1.259 2.296 1.436 3.456.474 3.109 1.981 3.657 10.271 3.74 4.125.042 9.641.428 12.258.858 3.703.61 5.032.454 5.992-.704 1.048-1.262.896-1.379-1.008-.775-1.367.434-2.242.295-2.242-.356 0-.587.81-1.067 1.8-1.067s2.231-.431 2.758-.958c1.465-1.465 3.114.103 3.895 3.703.625 2.88.409 3.357-1.92 4.242-3.147 1.197-5.485 6.21-4.831 10.358.515 3.27 3.247 8.04 4.109 7.177.297-.297 1.528.387 2.734 1.521 1.591 1.494 2.91 1.881 4.798 1.407l2.604-.653-2.592-3.399c-2.332-3.057-2.204-4.715.195-2.535 1.708 1.552 16.011 6.137 19.146 6.137 1.682 0 3.619-.675 4.304-1.5 1.314-1.583.609-1.935-3.141-1.571-1.698.165-13.317-3.663-19.803-6.524-3.356-1.481-3.714-2.02-3.915-5.895-.158-3.066.213-4.432 1.319-4.856.847-.325 1.54-1.457 1.54-2.516 0-2.28 2.308-3.43 3.83-1.908.999.999 1.042.157.284-5.595-.063-.476-1.275-.104-2.695.826-4.361 2.858-5.747 1.41-5.002-5.223l.644-5.738-2.031 2.361c-1.116 1.298-2.03 2.986-2.03 3.75 0 .764-.647 1.389-1.437 1.389-1.067 0-1.3-.849-.902-3.296.781-4.815-1.872-6.838-4.236-3.23-1.39 2.121-1.495 3.078-.562 5.124 1.265 2.776-.149 6.962-1.97 5.836-1.254-.775-3.28-1.159-13.609-2.58l-8.215-1.13-1.7-5.112c-.935-2.812-1.8-6.374-1.923-7.917-.334-4.211-1.233-4.347-1.992-.302m-208.687 6.115C168.35 314.777 158 319.551 158 320.933c0 .583 2.3.12 5.25-1.056 8.927-3.561 12.738-4.813 22.662-7.449 5.273-1.4 10.116-2.717 10.76-2.926 1.469-.475.507-4.542-1.039-4.392-.623.06-6.413 2.039-12.866 4.398m79.134 16.182c-.85 2.184-.749 3.757.454 7.06 1.764 4.839 1.306 5.361-1.534 1.75-2.448-3.112-4.135-3.284-2.459-.25 2.536 4.589 7.957 12.754 8.537 12.86.331.06 2.008.229 3.728.376 1.72.147 4.195 1.336 5.5 2.641l2.373 2.373.312-2.701c.171-1.485-.251-3.735-.939-5-2.899-5.33-1.418-7.723 1.577-2.549 1.035 1.788 3.09 4.652 4.567 6.365 1.476 1.713 2.972 4.912 3.323 7.11.351 2.197 1.301 5.521 2.11 7.385 2.061 4.747 2.091.492.05-7.11-.812-3.025-1.482-5.682-1.488-5.905-.007-.223.948.452 2.121 1.5 2.123 1.897 2.129 1.894 1.381-.595-1.324-4.402-6.979-15.132-8.014-15.205-.55-.039-1.481.871-2.069 2.021-1.06 2.074-1.093 2.068-3.824-.612-2.389-2.345-2.712-2.443-2.431-.74.194 1.176-.314 2.095-1.267 2.293-1.112.229-2.755-1.963-5.454-7.281-4.565-8.994-5.115-9.479-6.554-5.786m-43.173 11.383c-2.473 2.039-3.728 3.906-3.728 5.549 0 3.194 2.47 7.961 4.535 8.753 2.033.78 5.465-1 5.465-2.833 0-2.05 4.954-7.574 7.743-8.634 2.864-1.089 2.539-2.928-.822-4.643-4.322-2.205-9.123-1.547-13.193 1.808m184.98 11.677c-.402 2.593-.468 2.626-1.165.569-.442-1.302-1.299-1.966-2.127-1.648-1.168.448-1.152.867.098 2.653.817 1.167 1.486 2.431 1.486 2.81 0 1.207-3.125.281-4.065-1.204-.759-1.2-.907-1.174-.92.165-.008.877.867 2.393 1.945 3.369 1.078.976 1.925 2.058 1.882 2.405-.043.347.005.856.108 1.131.104.275.357 1.789.563 3.365.206 1.576 1.356 4.951 2.554 7.5 1.198 2.549 2.017 4.635 1.82 4.635-.401 0 4.192 7.715 5.06 8.5.304.275.567.95.584 1.5.082 2.647 1.731 7.5 2.548 7.5.507 0 .921.627.921 1.393s.704 1.663 1.563 1.993c.86.33 1.284 1.053.941 1.607-.342.554.08 1.007.937 1.007.857 0 1.559.59 1.559 1.311 0 .722.9 2.278 2 3.459 1.1 1.18 2 2.601 2 3.157 0 1.734 2.89-.006 3.571-2.15.586-1.847.791-1.739 2.187 1.143 1.579 3.26 2.742 3.118 3.445-.42.345-1.737.616-1.589 2.057 1.123.913 1.718 1.4 3.384 1.081 3.703-.729.728 2.147 3.674 3.588 3.674.589 0 1.071-.927 1.071-2.059 0-1.132-.403-1.81-.895-1.506-.493.305-1.178-.183-1.524-1.084-1.007-2.625-.073-2.57 2.652.155 2.073 2.072 2.644 2.258 3.12 1.015.322-.836.122-1.521-.443-1.521-.566 0-.75-.45-.41-1 1.598-2.586-9.662-18.899-11.303-16.375-1.336 2.056-4.209 1.015-7.743-2.805-3.558-3.846-3.558-3.846-1.256-4.711 1.31-.493 2.446-.487 2.635.013.184.483.721.878 1.195.878 2.404 0-2.041-14.654-5.001-16.483-3.067-1.896-7.049-9.509-5.919-11.318 1.373-2.2-1.68-6.76-3.549-5.299-2.066 1.614-4.7.728-6.145-2.067-1.822-3.522-2.173-3.533-2.706-.083M180.5 355.116c-12.364 1.798-35.5 8.284-35.5 9.953 0 .847 1.556.637 4.44-.598 1.261-.54 2.078-.418 2.333.349.217.649.833 1.18 1.369 1.18.537 0 .685-.471.33-1.046-.423-.684.938-.944 3.94-.75 2.522.163 4.587.66 4.587 1.105.001.445.413.555.916.244.503-.311 1.104 0 1.337.691.32.951.766.979 1.835.115.871-.703 4.482-1.029 9.413-.849 19.67.719 22.57.753 23.053.271 1.102-1.102-2.113-12.263-3.574-12.408-.813-.081-7.329.704-14.479 1.743M138 369.627c0 1.874 4.576 7.14 7.223 8.311 1.611.713 5.315 3.382 8.231 5.929C164.013 393.095 175 401.104 175 399.574c0-.828-3.575-4.334-7.945-7.79-4.369-3.456-7.969-7.019-8-7.918-.03-.898-1.805-3.214-3.944-5.147-3.501-3.162-3.735-3.666-2.349-5.052 1.385-1.386 2.709-.548 13.265 8.397 13.553 11.484 15.728 12.547 7.382 3.608-3.25-3.481-7.307-7.868-9.016-9.75-4.565-5.028-5.363-5.414-11.393-5.506-3.025-.047-7.637-.412-10.25-.812-2.613-.399-4.75-.389-4.75.023m247 1.546c0 .785.557 1.984 1.238 2.665.682.682 1.244 2.009 1.25 2.95.007.942.575 1.599 1.262 1.462 1.24-.248 1.635.867 1.327 3.75-.143 1.333-.034 1.333.976 0 .962-1.271 1.047-1.225.553.302-.338 1.045-.172 1.548.394 1.198.558-.345.717.075.37.978-.354.923.206 2.298 1.344 3.302 1.073.946 2.754 2.958 3.734 4.47 2.567 3.962-.255 3.718-3.865-.334-1.512-1.696-2.918-2.914-3.126-2.706-.764.764.8 4.749 1.657 4.22.487-.302.886.075.886.837 0 1.655 4.874 6.448 5.831 5.733.368-.275.817.794.998 2.376.18 1.582 1.195 3.807 2.255 4.945 1.292 1.386 1.596 2.399.922 3.073-.554.554-.999 1.704-.991 2.556.013 1.236.188 1.279.865.21.664-1.048 1.411-.778 3.429 1.24 3.56 3.56 6.269 2.618 4.166-1.448-.811-1.569-1.457-3.663-1.435-4.652.028-1.265.517-.909 1.645 1.2.883 1.65 2.001 3.258 2.484 3.573.483.316 1.085 1.666 1.338 3 1.389 7.334 1.713 8.188 2.586 6.81.639-1.008.885-.706.907 1.117.043 3.534 1.958 6.407 1.999 3l.03-2.5 1.297 2.5c.714 1.375 1.044 2.725.736 3-.309.275-.676 1.4-.815 2.5-.7 5.526-.385 7.362 1.605 9.352 2.453 2.453 2.54 2.987 1.106 6.76-.574 1.508-1.916 5.999-2.983 9.981-2.461 9.185-7.654 18.061-14.841 25.366-3.099 3.15-6.42 7.036-7.381 8.634-.96 1.599-2.985 4.542-4.5 6.541a2226.345 2226.345 0 0 0-7.506 10c-2.615 3.501-5.107 6.816-5.538 7.366-.431.55-2.476 4.038-4.545 7.75-4.063 7.291-5.089 8.311-4.021 4 .498-2.007-.749-.859-4.614 4.25-2.912 3.85-5.797 7.372-6.412 7.826-.807.597-.77.967.133 1.333 1.699.69 1.585 2.341-.161 2.341-2.04 0-6.797 6.015-6.131 7.751.392 1.023.092 1.29-.985.877-.942-.361-1.807.085-2.208 1.139-.363.953-2.774 4.883-5.359 8.733-7.277 10.839-9.928 16.569-9.751 21.077.085 2.186-.391 4.995-1.058 6.242l-1.214 2.268-2.843-3.044c-3.339-3.575-6.23-3.834-10.916-.977-1.927 1.174-4.628 1.927-6.291 1.753-1.773-.186-3.284.279-3.858 1.187-.654 1.035-.949 1.102-.96.219-.022-1.852-3.835-3.025-13.752-4.232-6.96-.847-11.644-2.281-22.763-6.966-7.7-3.244-15.35-6.229-17-6.632-1.65-.403-4.35-1.556-6-2.56-3.827-2.331-7.333-2.544-5.5-.335.86 1.036.898 1.5.122 1.5-.617 0-1.122-.361-1.122-.802 0-.442-2.202-1.595-4.894-2.563-7.472-2.687-8.628-3.783-7.083-6.714.702-1.332 1.557-2.646 1.9-2.921 1.793-1.438 3.944-5.964 3.087-6.494-1.632-1.008-4.732 1.28-8.111 5.986-3.581 4.985-3.288 5.026-10.149-1.391-5.604-5.241-4.529-2.042 1.199 3.567l4.95 4.846-1.95 7.426c-1.072 4.083-1.949 8.441-1.949 9.683 0 1.243-.433 2.526-.962 2.853-1.153.713.504 5.616 2.275 6.731.653.411 1.911.522 2.796.248.885-.275 2.201.214 2.926 1.087.93 1.121 2.712 1.514 6.063 1.336 4.74-.252 7.902 1.177 7.902 3.57 0 3.531 15.965 11.679 19.077 9.736 1.354-.846 3.012-.451 7.578 1.803 3.215 1.587 6.732 3.163 7.817 3.503 1.366.428 1.601.847.765 1.363-.915.566-.834 1.278.335 2.946 1.315 1.877 2.481 2.201 7.926 2.201 3.511 0 6.667.457 7.012 1.016.346.559 1.117.715 1.714.346.693-.429.793-.198.276.638-.535.866-.418 1.068.345.595.685-.422 1.155-.078 1.155.846 0 .857.661 1.559 1.469 1.559.944 0 1.246-.58.845-1.624-.57-1.486-.407-1.483 1.9.029 1.556 1.019 5.25 1.793 9.633 2.017 6.779.348 7.061.274 6.07-1.577-.72-1.345-1.649-1.747-3.026-1.31-1.093.346-2.528.202-3.189-.322s-2.889-1.496-4.952-2.16c-2.062-.665-3.75-1.623-3.75-2.131 0-.958-3.623-4.922-4.5-4.922H294c-1.1 0-2-.45-2-1 0-1.505 6.274-1.201 10.346.5 2.27.949 3.4 1.998 3.072 2.852-.707 1.844 3.559 4.461 8.579 5.263 4.289.686 7.441 2.867 6.453 4.466-.312.505.021.926.741.934.973.012.934.253-.151.939-1.058.669-.565.899 1.785.832 3.832-.109 5.047-1.374 2.19-2.281-2.274-.722-2.636-2.077-.765-2.864.895-.376.753-.839-.5-1.633-3.546-2.244-2.055-4.001 3.5-4.124 2.887-.064 4.457-.323 3.488-.576-2.239-.584-1.252-2.308 1.321-2.308 2.144 0 2.669 2.539.691 3.338-.987.398-.983.521.019.583.847.053 1.06.911.642 2.579-.483 1.924-.24 2.5 1.052 2.5 3.38 0 4.31-2.498 5.056-13.57.405-6.012 1.173-11.209 1.707-11.55.546-.348.07-1.458-1.09-2.538-1.921-1.79-2.079-6.342-.22-6.342.375 0 1.252-1.575 1.948-3.5s1.713-3.5 2.26-3.5c.547 0 .716-.45.376-1-.34-.55-.151-1 .421-1 .571 0 1.953-1.687 3.071-3.75 1.119-2.062 6.052-9.263 10.964-16 4.912-6.737 8.52-12.25 8.019-12.25-.502 0-.625-.749-.274-1.664.43-1.119.256-1.427-.531-.941-.644.398-1.17.232-1.17-.367 0-.6.672-1.349 1.494-1.664.822-.316 1.2-1.089.84-1.719-.36-.63-.332-.857.063-.504s2.155-.671 3.911-2.275c1.755-1.603 2.967-3.114 2.692-3.356-.275-.243 1.839-2.819 4.698-5.725 2.859-2.907 6.459-7.118 8-9.358 1.541-2.241 6.064-8.624 10.052-14.187 3.988-5.562 7.25-10.346 7.25-10.631 0-.285 1.012-1.577 2.25-2.871 9.125-9.544 15.457-18.989 16.658-24.847.495-2.415 1.462-5.966 2.148-7.891 1.169-3.281 2.06-5.844 2.432-7 .089-.275.517-2.637.95-5.25.434-2.613 1.204-4.75 1.711-4.75.507 0 .405-.965-.226-2.144-.631-1.179-.915-3.879-.631-6 .285-2.121.103-4.112-.403-4.425a1.09 1.09 0 0 1-.346-1.5c.316-.512-.096-.931-.917-.931-1.46 0-1.832-.756-3.033-6.173-.326-1.47-1.633-3.945-2.904-5.5-1.271-1.555-3.577-5.026-5.123-7.715-1.546-2.688-3.994-6.151-5.439-7.695-7.411-7.921-11.181-12.352-20.665-24.294-3.004-3.783-5.462-6.235-5.462-5.45m-208 30.13c0 .79 3.037 3.972 6.75 7.072 3.713 3.099 7.821 7.208 9.129 9.13 1.308 1.922 2.75 3.495 3.204 3.495 1.479 0 5.535 4.664 6.879 7.909 1.479 3.571 3.71 5.091 7.472 5.091 3.194 0 3.195-.486.009-4.663-5.425-7.113-33.443-30.599-33.443-28.034m-9.067 10.412c-.036 2.082-.281 10.018-.544 17.636-.326 9.475-.09 15.005.75 17.5.674 2.007 1.137 4.999 1.027 6.649-.266 4.009 1.4 6.643 2.847 4.5.557-.825.737-2.4.399-3.5-1.703-5.541-2.07-15.87-1.014-28.499 1.277-15.271 1.25-15.584-1.485-17.048-1.723-.922-1.92-.648-1.98 2.762m50.987 9.021c4.822 5.343 6.08 7.412 6.08 10 0 2.716.378 3.265 2.25 3.273 1.238.004 4.725.275 7.75.602l5.5.593-4.848-3.546c-2.666-1.951-7.599-6.159-10.962-9.352-10.876-10.327-14.584-11.336-5.77-1.57m-29.302 36.014c.904 2.063 1.587 4.797 1.518 6.076-.069 1.28.547 2.999 1.369 3.822.968.968 1.495 1.08 1.495.316 0-.648.646-.93 1.435-.627.79.303 1.648.013 1.907-.643.259-.657.796.278 1.194 2.077 1.022 4.629 2.47 5.046 1.739.501-.57-3.537-.496-3.68 1.185-2.295 1.689 1.392 1.751 1.232 1.078-2.75-.476-2.817-.351-4.227.374-4.227.598 0 1.088-.436 1.088-.969 0-.532-.675-.709-1.5-.393-.825.317-1.5.078-1.5-.531s-.689-1.107-1.531-1.107c-.843 0-1.791-.675-2.107-1.5-.392-1.019-1.988-1.5-4.982-1.5h-4.407l1.645 3.75m-138.611 3.066c-.004 2.373-.459 5.161-1.012 6.194-1.507 2.815-2.1 29.19-.646 28.712.633-.209 3.093-3.895 5.466-8.192 4.981-9.019 5.541-13.6 2.302-18.841-1.164-1.884-2.12-4.047-2.124-4.807-.003-.76-.9-2.732-1.993-4.382l-1.987-3-.006 4.316m173.606 15.434c-.788 1.238-2.261 4.05-3.274 6.25-2.448 5.317-7.389 6.255-9.52 1.807-1.101-2.296-5.819-4.429-5.819-2.63 0 2.547 5.006 6.405 9.662 7.447 3.125.699 5.338 1.737 5.338 2.504 0 .743.638 1.064 1.474.743.811-.311 2.193.153 3.072 1.032 2.966 2.966 5.517 2.064 4.913-1.738-.342-2.154.19-5.014 1.506-8.082 3.062-7.144 2.334-7.921-1.043-1.113-3.588 7.233-5.385 9.33-4.326 5.048.405-1.64.632-3.665.504-4.5-.129-.835-.214-3.205-.19-5.268.051-4.346-.327-4.593-2.297-1.5m-83.092 10.5c-.381.962-.874 6.901-1.094 13.196-.221 6.295-.841 12.82-1.38 14.5-1.475 4.605-2.073 15.638-.959 17.718.659 1.232.642 1.836-.053 1.836-.569 0-1.035 1.75-1.035 3.889 0 2.401-.753 4.793-1.967 6.25l-1.966 2.361-.034-7.809c-.037-8.803-1.597-9.836-1.824-1.209-.187 7.131-1.585 10.111-3.045 6.496-1.97-4.876-2.386-6.538-2.711-10.833-.182-2.396-.607-4.633-.946-4.971-1.266-1.266-2.212 2.143-1.849 6.657.472 5.847-.286 9.169-2.089 9.169-1.074 0-1.558-2.751-2.11-12-.394-6.6-1.077-12-1.518-12-.441 0-.383-1.46.129-3.243 1.288-4.493 1.165-7.001-.32-6.513-1.212.398-2.917 9.219-4.368 22.596-.419 3.862-1.215 6.542-2.035 6.857-.741.284-1.347 1.909-1.347 3.61 0 2.291-.292 2.801-1.125 1.968-.619-.619-1.053-2.396-.966-3.95.088-1.554.174-3.587.191-4.518.019-.966.588-1.48 1.324-1.198.981.377 1.339-1.456 1.487-7.614.108-4.46.417-8.687.688-9.392.271-.705-.198-1.855-1.042-2.555-2.139-1.775-2.939.629-2.327 6.995.363 3.771.19 4.721-.719 3.966-.657-.545-1.554-.658-1.994-.25-.439.407-.508-.469-.154-1.948s.252-2.931-.228-3.228c-.48-.296-1.442 4.401-2.138 10.439-1.205 10.464-1.952 12.477-3.627 9.768-1.208-1.955-2.38 4.111-1.266 6.555 2.611 5.731 3.781 6.941 6.947 7.19 2.169.171 2.771-.034 1.838-.625-1.157-.733-1.139-.883.111-.901.825-.012 2.758-.677 4.295-1.479 2.124-1.108 2.908-1.167 3.264-.244.297.769 2.909 1.25 7.125 1.312 5.766.084 6.94.426 8.773 2.557 1.967 2.287 2.857 2.478 12.58 2.708 8.391.198 10.216-.001 9.213-1.008-.687-.69-1.287-2.852-1.332-4.805-.12-5.236-3.654-18.522-3.803-14.3-.09 2.545-.549 3.25-2.115 3.25-1.1 0-2.014.563-2.03 1.25-.017.688-.507.431-1.089-.569-.612-1.053-.81-4.109-.47-7.25 1.284-11.846 1.513-16.971.644-14.431-.845 2.468-.857 2.461-.931-.5-.041-1.65.395-5.025.97-7.5 1.726-7.432 1.983-11 .793-11-.64 0-.817-.732-.422-1.75.373-.962.862-3.325 1.088-5.25.225-1.925.663-4.962.973-6.75.595-3.424-.823-4.484-2.005-1.5m-90.413 26.22c-2.568 5.971-4.022 14.713-2.265 13.627 1.445-.893 1.534 1.83.145 4.426-.899 1.679-.429 2.066 4.181 3.435 6.131 1.82 7.831 1.922 7.831.471 0-.59.675-1.747 1.5-2.572 2.003-2.003 2.118-9.115.121-7.457-1.983 1.645-2.74-3.103-1.46-9.151 1.497-7.077.564-7.692-1.613-1.063-1.05 3.198-2.503 6.524-3.228 7.393-.726.868-1.32 2.781-1.32 4.25 0 1.469-.516 2.671-1.147 2.671-.834 0-.962-2.874-.469-10.5.374-5.775.495-10.5.271-10.5-.225 0-1.371 2.237-2.547 4.97m-13.358-1.75c-1.513.521-2.754 1.247-2.76 1.613-.005.367-.672 6.517-1.48 13.667-1.784 15.765-1.784 15.603-.01 12.5.786-1.375 1.445-3.926 1.465-5.669.019-1.743.661-4.443 1.425-6 1.351-2.75 4.901-16.428 4.373-16.848-.145-.115-1.5.217-3.013.737m44.745 20.813c-.495 3.605-1.506 6.069-3.172 7.735-2.999 2.999-3.255 2.77-3.779-3.37-.283-3.322-.828-4.795-1.692-4.577-.702.176-1.881-.499-2.622-1.5-1.275-1.725-1.398-1.729-2.337-.071-.546.962-1.573 1.75-2.282 1.75-.71 0-1.826 1.175-2.48 2.612-1.373 3.014-.092 5.388 2.908 5.388.987 0 1.944.337 2.128.75.752 1.693 9.97 7.186 13.035 7.767 4.61.875 11.101 5.544 11.822 8.504l.603 2.479 1.01-2.97c.88-2.587.455-4.087-3.297-11.636-2.368-4.767-4.989-8.929-5.823-9.249-.847-.325-1.524-1.811-1.532-3.364-.031-5.568-1.735-5.738-2.49-.248m-47.909 13.044c-1.595 3.616-1.643 4.493-.425 7.75 1.27 3.396 1.976 3.875 9.357 6.358 4.39 1.476 7.42 2.714 6.732 2.75-2.736.143-.885 1.704 5.294 4.464 3.57 1.595 6.635 2.72 6.811 2.5.671-.838 3.632-8.956 3.523-9.66-.063-.406.002-2.314.145-4.239l.261-3.5.716 4c.487 2.72.762 3.191.858 1.473.078-1.391.843-3.528 1.699-4.75 1.673-2.389.698-3.027-1.486-.973-1.093 1.028-1.214.761-.681-1.5.781-3.313-.654-3.643-2.17-.5-1.033 2.143-1.088 2.103-1.152-.863-.067-3.081-.133-3.119-6.318-3.694-3.437-.32-7.19-.865-8.338-1.211-3.489-1.053-2.332 3.472 1.571 6.147 4.243 2.907 8.338 3.805 10.958 2.402 2.251-1.204 2.768-.14.859 1.769-1.445 1.445-12.8 1.622-12.8.2 0-1.908-2.77-.989-3.316 1.101-.744 2.844-2.684 1.443-2.684-1.938 0-1.495-.9-3.489-2-4.431-1.1-.942-2-2.527-2-3.522 0-1.747-1.759-4.21-3.008-4.21-.334 0-1.417 1.835-2.406 4.077m260.639-.969c-2.599.966-2.481 2.445.972 12.142l2.047 5.75H312v-4.393c0-4.38-.796-5.372-4.982-6.204-.815-.162-1.618-.703-1.785-1.203-.166-.5-1.412-.697-2.768-.438-2.178.416-2.465.121-2.465-2.538 0-3.403-1.452-4.351-4.775-3.116m-185.642 13.851c-2.704 1.086-5.339 2.397-5.856 2.914-1.604 1.604 3.367 3.893 10.068 4.636l6.295.698-.653-2.604c-.843-3.355-.267-3.279 3.473.461 3.724 3.724 9.844 4.011 9.267.436-1.171-7.254-12.587-10.559-22.594-6.541m62.583 2.341c-.593.714-1.35 3.077-1.681 5.25-.558 3.65-.352 4.115 2.706 6.123 6.154 4.042 7.268 3.616 7.609-2.911.261-5.01.088-5.656-1.367-5.098-1.418.544-1.5.329-.549-1.447.614-1.147 1.116-2.34 1.116-2.651 0-1.155-6.794-.519-7.834.734m-32.632 1.663c-2.64 2.917-1.359 5.04 2.664 4.414 1.816-.282 5.262.189 7.657 1.048 4.503 1.614 9.156 1.214 9.13-.783-.071-5.291-15.532-9.01-19.451-4.679m44.938 4.241c-.965 7.019 2.401 10.54 7.478 7.823 1.599-.856 1.699-1.552.829-5.75-1.167-5.633-1.699-6.335-5.079-6.706-2.352-.258-2.605.105-3.228 4.633m-97.459 2.245c-1.572.869-4.761 1.264-8.661 1.072l-6.172-.304.996 2.859c.927 2.658 4.526 5.395 14.457 10.992 4.198 2.367 5.367 1.026 5.367-6.157 0-7.412-2.218-10.547-5.987-8.462m-33.327 5.159c-2.217 6.66-1.831 7.349 3.545 6.337 7.178-1.35 7.998-1.896 7.262-4.828-.361-1.437-.731-2.671-.824-2.742-.093-.071-1.973-1.038-4.177-2.149l-4.008-2.02-1.798 5.402m45.595.358c.292 1.119.124 2.034-.375 2.034-4.622 0 5.891 11.496 11.47 12.543 4.318.81 8.56-.303 6.506-1.706-1.05-.718-.901-.865.618-.612 1.1.183 2.45-.033 3-.48.55-.447 1.844-1.396 2.877-2.108 2.507-1.731.901-4.809-4.17-7.995-5.455-3.427-20.72-4.711-19.926-1.676m127.857 3.701c-1.558 7.76-1.433 10.062.612 11.253 1.377.802 1.43 1.027.25 1.056-2.398.059 4.24 4.01 6.75 4.017 2.637.008 2.804-.581.75-2.636-2.499-2.499-1.677-3.872.879-1.47l2.38 2.235 2.12-2.696c1.167-1.483 2.109-2.973 2.095-3.311-.045-1.047-12.798-14.115-13.776-14.115-.507 0-1.434 2.55-2.06 5.667m-75.968-1.947c-2.633.331-3.194.771-2.679 2.099.358.925.907 3.819 1.219 6.431.55 4.591.679 4.75 3.864 4.75 8.335 0 10.521-3.595 6.141-10.095-2.406-3.57-3.182-3.859-8.545-3.185m114.55 10.893c-1.108 1.108-.853 4.854.416 6.123.847.847.708 1.563-.55 2.821-2.442 2.442-1.84 3.53 5.75 10.387l6.836 6.176 2.918-4.601c4.023-6.343 7.91-14.16 7.91-15.906 0-1.509-1.423-1.942-11.5-3.505-3.3-.511-7.139-1.219-8.53-1.572-1.392-.353-2.854-.318-3.25.077M243.801 592l-1.7 2.985 4.281 3.578c7.33 6.127 12.618 8.932 12.618 6.694 0-1.021.42-2.285.933-2.807.802-.816-11.195-12.387-13.678-13.191-.415-.135-1.52 1.098-2.454 2.741m55.622 4.089c.079 3.793.598 5.453 2.032 6.502 1.337.977 1.493 1.409.509 1.409-.912 0-.465.953 1.251 2.67 3.245 3.244 5.785 1.94 5.785-2.971 0-1.682.555-4.593 1.234-6.47 1.551-4.289-.105-5.824-6.543-6.068l-4.374-.165.106 5.093m82.919 13.09c-2.295 1.111-2.697 6.866-.625 8.938 1.858 1.858 9.153-1.233 9.489-4.02.162-1.343.817-2.614 1.456-2.824.811-.266.998.843.618 3.673-.692 5.163 1.229 5.444 2.078.304.99-5.989.869-6.457-1.483-5.71-1.43.454-1.902.312-1.441-.433.376-.609.234-1.107-.316-1.107s-1.279.451-1.62 1.003c-.414.67-1.241.67-2.493 0-2.244-1.201-2.855-1.182-5.663.176" fill="#d3d3d3" fill-rule="evenodd"/></svg>