<svg xmlns="http://www.w3.org/2000/svg" width="500" height="749"><path d="M62.978 11.167c-.031 15.667-.928 28.804-2.193 32.126l-1.064 2.794-2.249-2.113c-1.394-1.31-2.057-2.846-1.744-4.043.347-1.327-.007-1.931-1.13-1.931-1.222 0-1.485.6-1.042 2.368.451 1.797-.056 2.88-2.102 4.49-1.958 1.54-2.827 3.289-3.172 6.382l-.475 4.26 4.597.259c3.813.216 4.599-.04 4.611-1.5.009-.967.412-2.386.897-3.151.554-.874.841 1.174.771 5.5-.061 3.79.072 33.442.297 65.892.224 32.45.123 60.006-.226 61.235-.632 2.23 2.139 5.265 4.806 5.265 3.147 0 3.738-187.734.594-188.782-.826-.275-1.16 2.839-1.176 10.949M266.786 40.36c-2.042.759-3.955 1.138-4.25.843-.295-.295-.592-.011-.661.63-.293 2.732-.425 3.117-1.413 4.105-.717.717-1.564.424-2.74-.95-1.617-1.888-1.603-1.988.288-1.988 1.094 0 1.99-.45 1.99-1s-1.125-1-2.5-1c-1.667 0-2.5.556-2.5 1.667 0 .916-.296 1.37-.658 1.008-.362-.362-1.262-.156-2 .456-.995.826-1.342.805-1.342-.08 0-.765-.565-.629-1.571.378-.865.864-1.99 1.571-2.5 1.571-.511 0-.929.714-.929 1.587s-1.35 2.096-3 2.719c-1.65.623-3 1.709-3 2.413 0 .705-.421 1.281-.935 1.281-3.018 0-6.225 2.102-5.161 3.384.843 1.016.761 1.649-.332 2.556-.799.664-1.226 1.797-.949 2.519.277.722-.425 3.045-1.56 5.162S229 71.067 229 70.574c0-.493-1.407.751-3.127 2.765-2.113 2.473-3.978 3.666-5.75 3.676-1.943.012-2.255.249-1.202.915 1.356.858-5.087 4.654-7.171 4.224-1.881-.387-.498 1.684 1.5 2.247l2.25.634-2.361 1.982c-1.298 1.091-1.857 1.983-1.241 1.983.782 0 .743.602-.13 2-.687 1.1-1.802 2-2.477 2-.676 0-.977.653-.671 1.452.306.799.193 2.036-.253 2.75s-.885 1.748-.977 2.298c-1.832 11.051-4.16 18.626-6.486 21.102-1.162 1.238-1.793 2.768-1.402 3.401s.031 3.029-.801 5.324c-.831 2.295-1.852 5.523-2.268 7.173l-.757 3-.72-3c-.598-2.492-.739-2.102-.838 2.309-.072 3.258-.504 5.07-1.118 4.691-1.25-.772-1.274 1.057-.07 5.257.783 2.73.665 3.255-.75 3.322-.924.043-1.154.294-.512.556 1.806.737.591 10.403-1.706 13.575-2.039 2.815-2.6 5.79-1.092 5.79 1.437 0 4.405 13.388 5.587 25.205.501 5.009 2.292 8.795 4.161 8.795.625 0 1.697.675 2.382 1.5s2.54 1.5 4.122 1.5c3.042 0 3.912 1.666 1.378 2.638-1.946.747-1.91 3.332.087 6.182 1.284 1.834 1.348 2.554.336 3.773-1.634 1.969 1.367 5.517 3.154 3.73 1.417-1.417 4.923-.495 4.923 1.294 0 .8 1.029 1.383 2.441 1.383 4.765 0 3.358 1.641-2.433 2.837-6.696 1.383-9.245 4.282-10.494 11.933-.796 4.878-3.176 7.968-4.85 6.294-1.408-1.408-3.973-1.373-3.098.043.472.764-.236.905-2.287.454l-2.971-.652-.649 9.795c-.894 13.506-.82 19.296.248 19.296 2.417 0 14.402-6.317 21.094-11.118 4.125-2.96 8.759-6.194 10.298-7.187 1.539-.993 4.014-3.563 5.5-5.712 1.485-2.149 3.151-3.932 3.701-3.962 1.71-.094 10.261-8.658 11.997-12.015.908-1.756 1.875-2.967 2.15-2.692.275.275-.195 1.845-1.045 3.488-1.692 3.273-5.657 19.486-7.585 31.016-1.022 6.117-1.614 7.497-3.603 8.403-2.212 1.008-2.257 1.179-.647 2.432 1.575 1.224 1.588 1.461.145 2.597-.873.688-1.398 1.813-1.166 2.5.231.687-.067 1.25-.663 1.25-.595 0-1.083.81-1.083 1.8s-.396 2.228-.879 2.75c-.484.523-1.419 2.638-2.078 4.7-.7 2.19-1.838 3.75-2.737 3.75-1.03 0-1.372.641-1.033 1.935.292 1.119-.08 2.161-.884 2.469-.764.293-1.389 1.421-1.389 2.506 0 1.084-.45 2.25-1 2.59-1.303.805-1.282-2.628.037-6.098.705-1.855.711-3.054.017-3.748-1.508-1.508-1.92-.633-2.451 5.211-.264 2.905-.969 5.871-1.567 6.592-1.419 1.709 1.222 2.885 2.842 1.265.829-.829 1.122-.803 1.122.099 0 .672-1.128 1.736-2.506 2.364-1.379.628-2.391 1.809-2.25 2.625.141.815-.306 1.679-.994 1.92-.687.24-1.25-.228-1.25-1.04 0-2.363-2.658-2.726-4.561-.623-.962 1.063-1.26 1.933-.661 1.933.598 0 1.373.9 1.722 2 .415 1.308 1.513 2 3.174 2 1.648 0 2.368.448 2.05 1.276-.269.701-1.041 3.964-1.715 7.25-.674 3.286-1.589 6.424-2.032 6.974-.444.55-.824 1.344-.845 1.765-.022.42-.811 3.212-1.754 6.203l-1.714 5.439 2.415 1.956c1.721 1.394 2.627 1.623 3.153.796.43-.676.744-.113.753 1.35.017 2.85 3.745 5.977 4.487 3.764.234-.7 1.307-4.198 2.384-7.773 1.076-3.575 1.999-5.461 2.05-4.191.101 2.489 2.094 2.07 2.094-.439 0-2.401 2.201-3.979 6.509-4.668 2.541-.407 4.731-1.558 6.029-3.17 1.12-1.393 2.448-2.532 2.95-2.532.501 0 .372.54-.288 1.2-2.219 2.219-1.23 2.8 4.769 2.8 4.669 0 5.853-.301 5.438-1.382-.433-1.129.328-1.222 4.142-.51 2.57.48 5.08.621 5.578.313 1.181-.729.066-2.516-1.452-2.329-3.371.416-5.178-.121-3.675-1.092 1.885-1.218 1.314-1.237-2.684-.091-2.411.692-3.298.58-3.7-.468-.711-1.853.984-2.758 3.826-2.045 1.445.363 2.795.023 3.557-.895.675-.813 1.675-1.203 2.221-.865.604.373.461.951-.363 1.474-1.097.695-1.104.862-.036.875.727.008 1.997-.66 2.822-1.485.825-.825 2.03-1.486 2.678-1.468.649.017.391.629-.571 1.36-2.44 1.852-2.185 2.414.832 1.837 1.961-.375 2.461-.957 2.078-2.422-.295-1.127.087-2.156.918-2.475 2.766-1.062 1.368-1.882-2.828-1.66-2.337.124-3.421-.017-2.407-.314 1.2-.352 1.674-1.184 1.36-2.385-.511-1.955 1.822-3.55 2.824-1.929.325.526.114.956-.468.956-.582 0-1.059.383-1.059.851 0 .992 2.965.901 8.25-.254 2.063-.451 3.75-1.278 3.75-1.839 0-1.34-7.11-.198-8.03 1.29-.464.752-.892.599-1.299-.464-.335-.871-.204-1.584.289-1.584 1.079 0 4.04-2.843 4.04-3.878 0-1.17-14.357 1.092-15.745 2.481-2.166 2.165-1.383 3.01 2.381 2.571 2.685-.313 3.439-.105 2.882.796-.442.716-2.154 1.058-4.136.826-1.86-.217-3.382-.11-3.382.238s-.655.633-1.456.633c-.801 0-1.248-.337-.994-.748.254-.412-.103-.976-.794-1.255-.842-.339-.745-.532.294-.585 5.578-.284 3.085-4.989-2.675-5.047-6.582-.067-9.375-1.139-9.375-3.598 0-1.274.41-2.569.911-2.879 1.024-.633.92-2.435-.248-4.305-.454-.726-.302-1.25.361-1.25.629 0 .939-.562.69-1.25-.249-.687.213-2.016 1.027-2.951 1.787-2.053-1.328-6.887-5.07-7.869-2.472-.649-2.705-6.772-.309-8.113.711-.398 2.117-3.444 3.124-6.77 1.967-6.497 2.605-6.872 7.92-4.651 1.837.768 5.453 1.263 8.033 1.101 4.741-.299 7.517-1.413 3.978-1.597-1.493-.077-1.364-.276.583-.9 2.466-.79 2.46-.803-.5-.971-1.65-.093-3.9-.597-5-1.118-1.555-.738-1.249-.834 1.375-.43 1.856.285 4.219.519 5.25.519 1.031 0 1.875.675 1.875 1.5 0 1.194 1.277 1.461 6.25 1.311l6.25-.189-5.75-.361c-3.163-.198-5.751-.676-5.751-1.061-.003-1.16 11.444-.08 12.236 1.155.452.705.746.376.765-.855.018-1.189.328-1.554.765-.9.404.605 1.41 1.357 2.235 1.671 1.002.382.753.597-.75.65-1.238.043-2.25.467-2.25.94 0 .474-1.192.634-2.649.355-1.768-.338-2.423-.141-1.969.593.457.74-1.368 1.22-5.602 1.471-5.579.332-5.387.377 1.72.405 8.571.034 10.813-.37 9.935-1.79-.304-.492-.076-.895.506-.895s1.059.45 1.059 1 .4 1 .889 1 .826-.787.75-1.75c-.115-1.451.673-1.736 4.611-1.667 2.613.046 4.75-.217 4.75-.583 0-1.14 2.997-.73 3.045.417.025.595.628-.267 1.34-1.917 1.119-2.593 1.079-3.092-.295-3.68-1.166-.498-.923-.717.91-.82 2.304-.13 2.344-.208.5-1-1.908-.82-1.897-.863.25-.93 1.238-.038 2.25-.556 2.25-1.149 0-.636-1.13-.868-2.75-.565-1.512.284-5 .848-7.75 1.255-2.75.407-5.337.829-5.75.939-.413.11-5.363.336-11 .502l-10.25.301 7 .647 7 .647-7.5.077c-8.195.084-15.636-1.344-9-1.727l3.5-.202-3.5-1.019c-1.925-.56-4.975-1.042-6.778-1.071-1.803-.029-2.767-.368-2.143-.754 1.658-1.024-.489-2.09-2.739-1.36-1.389.451-1.504.358-.47-.38 1.12-.799 1.029-1.175-.5-2.064-1.706-.991-1.716-1.089-.12-1.117 1.512-.026 1.75-1.074 1.75-7.716 0-4.803.798-10.524 2.127-15.25 1.745-6.203 2.029-9.238 1.577-16.87l-.55-9.307-4.514-3.972c-7.7-6.779-11.602-15.588-11.628-26.255-.011-4.493-.371-5.187-5.012-9.66-2.75-2.651-5-5.61-5-6.576 0-.967.263-1.495.583-1.174.321.321 1.515-.348 2.652-1.485 2.026-2.026 2.1-2.03 3.537-.167 2.064 2.676.859-6.986-1.278-10.248-1.869-2.852-1.901-6.44-.097-10.759 1.264-3.025 1.914-9.053 3.083-28.591.725-12.125 4.864-20.322 12.89-25.526 4.062-2.634 22.422-3.107 24.31-.626 2.387 3.138-.062 8.71-3.285 7.473-.994-.381-1.229-.051-.785 1.105.359.936-.111 2.47-1.087 3.548-.945 1.045-1.442 2.347-1.105 2.894.338.547.123 1.297-.477 1.668-1.098.679 2.104 4.464 3.777 4.464 1.546 0 3.069 3.665 2.581 6.214-.36 1.885-1.287 2.734-3.462 3.169-1.633.326-2.692 1.043-2.352 1.592 1.108 1.794-2.874 4.735-8.235 6.083-2.887.726-5.25 1.685-5.25 2.131 0 .446-1.077.811-2.393.811-2.403 0-4.125 2.353-3.024 4.134.324.525-.124 2.043-.997 3.375-2.569 3.922-2.145 6.567.829 5.163 1.328-.626 2.233-1.433 2.011-1.792-.222-.359.214-1.166.968-1.792 1.057-.877 1.514-.769 1.989.468.869 2.263.803 2.444-.883 2.444-2.289 0-1.791 1.763 1.017 3.603 1.798 1.178 2.23 1.996 1.513 2.861-.709.854-.345 1.829 1.232 3.306l2.238 2.096 4.5-1.955c2.643-1.148 5.482-3.39 6.879-5.433 1.308-1.913 2.716-3.478 3.127-3.478.412 0 .525-1.978.253-4.395-.438-3.881-.236-4.478 1.723-5.099 4.472-1.42 4.821.337 3.771 18.994-.217 3.85-.959 8.35-1.649 10-.69 1.65-1.108 5.138-.929 7.751.179 2.612-.039 4.75-.484 4.75-.445-.001-.564.396-.264.88.299.485-.561 2.51-1.911 4.5-2.142 3.156-2.236 3.628-.736 3.689 2.12.087-8.585 3.863-11.061 3.902-.98.015-2.022-.597-2.315-1.361-.396-1.031-4.404-1.247-4.404-.238 0 .077-.41 1.569-.91 3.315-1.387 4.833 1.059 7.861 3.029 3.751 1.075-2.245 2.302-3.062 5.387-3.586 5.57-.948 7.745 1.177 6.556 6.402-.493 2.169-.475 3.99.042 4.309.493.305.896 1.367.896 2.36 0 .994.882 2.927 1.959 4.297 1.945 2.473 1.945 2.505 0 4.593-1.077 1.156-1.959 2.534-1.959 3.061 0 .527-.562 1.146-1.25 1.375-.687.229-1.271 1.609-1.296 3.066-.045 2.542 4.085 5.684 7.47 5.684.744 0 .647.758-.288 2.25-2.31 3.685-2.644 11.26-.662 14.995 1.064 2.004 1.998 6.895 2.429 12.724.386 5.208.792 9.559.902 9.669.109.11 1.348.488 2.752.84 2.388.6 2.865.036 7.423-8.788 5.992-11.598 8.793-14.069 7.86-6.936-.341 2.61-1.377 7.783-2.303 11.496l-1.683 6.75h2.252c2.219 0 5.394-2.345 5.394-3.984 0-1.949 10.873-11.79 11.428-10.344.307.8 1.079 1.133 1.716.739.808-.499.599-1.125-.689-2.067-1.396-1.021-1.565-1.634-.694-2.505.87-.87 1.496-.871 2.539-.005.761.632 1.607.926 1.879.654.777-.777 9.133 3.947 9.632 5.446.252.756-.012 1.06-.603.695-1.07-.662-4.208 4.576-4.208 7.025 0 .74-.73 1.346-1.622 1.346-1.341 0-1.403.265-.358 1.524 1.831 2.206.977 2.468-3.27 1.004-4.301-1.482-5.074-.283-1.074 1.667 4.43 2.16 4.258 4.222-.196 2.361-4.65-1.943-5.48-1.946-5.48-.022 0 .843 1.575 2.463 3.5 3.599 4.83 2.849 4.421 4.377-.5 1.867-2.2-1.122-4-1.612-4-1.088s.859 1.226 1.91 1.559c2.214.703 4.632 3.32 3.819 4.133-.305.306-1.734-.216-3.173-1.16-1.44-.943-2.929-1.404-3.308-1.025-.641.641.914 2.041 3.252 2.928.55.208.702.702.337 1.096-.365.394-1.828-.046-3.25-.978-3.283-2.151-3.55-.089-.337 2.591 1.238 1.033 1.743 1.892 1.122 1.911-.62.018-1.683-.637-2.363-1.456-1.478-1.781-3.155-1.055-2.358 1.021.712 1.856-.62 1.878-3.223.055-1.841-1.289-2.114-1.18-3.129 1.25-4.464 10.691-6.625 30.698-3.888 35.991.916 1.772 1.626 5.123 1.578 7.447-.249 11.949 1.723 49.469 2.691 51.225.607 1.1 1.622 5.375 2.255 9.5 2.189 14.265 6.725 28.27 11.748 36.269 2.484 3.957 1.931 7.731-1.134 7.731-1.782 0-7.091-6.715-10.096-12.769-1.291-2.602-2.371-3.968-2.4-3.035-.029.933 1.706 5.096 3.856 9.25 3.54 6.841 3.673 9.736.291 6.354-1.6-1.6-1.64.509-.065 3.452.624 1.167 1.342 3.655 1.594 5.529.451 3.342.422 3.372-1.476 1.563-1.065-1.014-1.756-2.182-1.535-2.594.22-.413-.077-.75-.659-.75-.582 0-1.073-.788-1.091-1.75-.069-3.815-5.383-6.939-6.564-3.86-.313.816-1.095 1.282-1.737 1.035-.82-.315-1.064 1.04-.82 4.563.19 2.757.753 5.012 1.25 5.012.496 0 .896.788.888 1.75-.014 1.51-.161 1.544-1.075.25-.783-1.109-.889-.473-.404 2.44.585 3.514.485 3.798-.925 2.627-.87-.721-1.581-2.183-1.581-3.248 0-1.066-.45-1.659-1-1.319-.565.349-1-.47-1-1.882 0-1.375-.521-2.822-1.158-3.215-.793-.491-.98-.037-.593 1.441.31 1.186.126 2.156-.41 2.156s-.689 1.012-.341 2.25c.519 1.846.425 1.981-.527.75-.994-1.286-1.079-1.25-.597.25.66 2.05-.246 4.947-1.336 4.273-.414-.255-.615 4.485-.447 10.533.188 6.76-.059 10.773-.642 10.412-.522-.322-.953.228-.959 1.223-.022 4.042-4.742 11.965-8.422 14.137-4.812 2.839-4.134 3.582 4.637 5.087 13.913 2.387 14.794 2.761 14.403 6.117-.19 1.633.045 2.968.523 2.968.478 0 .869-1.35.869-3 0-2.333.444-3 2-3 1.1 0 2 .477 2 1.059s-.45.781-1 .441-1 .084-1 .941c0 1.863 1.624 2.078 2.338.309.277-.687.54-.324.583.809.043 1.132-.582 2.932-1.389 4-.808 1.067-1.483 1.393-1.5.722-.019-.716-.71-.958-1.677-.587-1.007.386-2.17-.088-3-1.223-.745-1.019-1.355-1.372-1.355-.783 0 .588-1.38 1.641-3.067 2.34-2.154.892-2.686 1.507-1.784 2.064 1.241.767-3.166 3.17-4.934 2.691-3.034-.823-10.227 6.01-10.2 9.69.033 4.296 1.349 4.932 6.545 3.161 2.628-.895 4.948-1.459 5.155-1.253.524.524-15.127 9.619-16.553 9.619-.639 0-1.162.498-1.162 1.107s-.675.848-1.5.531c-.825-.316-1.5-.236-1.5.179s-.787.828-1.75.918c-.963.09-4.672.41-8.243.711-6.494.547-9.921 2.711-9.985 6.304-.012.688-.616 1.25-1.342 1.25-1.49 0-6.28 5.085-5.907 6.272.133.425-.843 1.184-2.169 1.688-1.325.504-2.735 1.442-3.132 2.085-1.588 2.57-2.185-1.365-.758-4.998 1.168-2.975 1.906-3.654 3.626-3.338 2.203.405 8.66-4.545 8.66-6.639 0-.574-1.61-1.716-3.577-2.538-4.46-1.863-4.309-4.623.329-5.989 1.786-.526 3.248-1.369 3.248-1.872 0-.504.686-.347 1.524.349s1.748 1.041 2.022.768c1.099-1.1-1.332-4.933-6.635-10.461-7.356-7.669-7.55-8.11-9.84-22.385l-1.968-12.262 2.544-4.34c1.398-2.387 3.005-4.34 3.57-4.34 1.599 0-1.141-2.855-4.095-4.268-2.55-1.22-2.631-1.543-2.932-11.743-.282-9.578.872-17.645 2.718-18.989 2.598-1.892 16.238-18.732 16.716-20.639.326-1.298 1.005-2.361 1.509-2.361s1.351-1.144 1.883-2.542c.531-1.398 2.77-5.198 4.975-8.445 2.205-3.247 4.009-6.308 4.009-6.803 0-.495.903-1.717 2.006-2.716 1.104-.998 1.785-2.037 1.514-2.308-.271-.271.938-1.549 2.688-2.839 2.196-1.621 2.656-2.347 1.486-2.347-2.942 0-1.724-2.895 2.056-4.885 1.238-.652 2.25-1.848 2.25-2.659 0-1.234 9.552-18.757 11.969-21.956.415-.55 1.04-2.196 1.389-3.657.348-1.462.91-3.379 1.249-4.261.452-1.178.187-1.44-.996-.986-.886.34-1.611.12-1.611-.489s.436-1.107.969-1.107c.532 0 .711-.671.396-1.492-.327-.851.116-1.755 1.031-2.107 2.295-.88 1.99-2.658-.329-1.922-1.577.5-1.992.067-2.25-2.354l-.317-2.967-13.5 6.415c-7.425 3.528-14.85 6.424-16.5 6.436-4.527.033-5.889 1.298-5.184 4.819.388 1.94.17 3.208-.605 3.523-.819.332-.75.517.213.57 1.071.059.919.638-.608 2.329-1.118 1.238-2.88 4.725-3.916 7.75-1.036 3.025-2.503 5.89-3.262 6.367-1.165.733-1.167 1.003-.008 1.75 1.073.691.921 1.007-.702 1.453-1.536.423-2.55 2.243-3.924 7.049-1.019 3.563-2.273 6.738-2.786 7.055-.526.326-.662-.276-.31-1.383.5-1.576.179-1.927-1.643-1.796-2.471.178-4.727 3.637-4.75 7.286-.008 1.255-.616 2.513-1.352 2.795-.738.283-1.262 1.765-1.17 3.311.181 3.043-3.033 10.837-5.681 13.777-.91 1.01-1.802 2.493-1.983 3.297-.359 1.596-.729 2.156-4.212 6.384l-2.344 2.845-29.225.314c-28.782.309-29.262.348-31.636 2.579-1.667 1.566-2.417 3.37-2.429 5.841-.018 3.64-.533 6.257-5.918 30.076-1.679 7.425-3.539 15.975-4.133 19-2.03 10.33-3.017 12.791-4.929 12.291-.968-.253-2.237-1.508-2.82-2.789-.938-2.059-1.558-2.265-5.372-1.777-5.667.723-5.447.251-4.203 9.025.459 3.241.274 4.25-.78 4.25-.76 0-2.945 1.428-4.855 3.172-2.836 2.591-3.532 2.866-3.796 1.5C95.834 510.9 93 510.3 93 512c0 .55-.848 1-1.883 1-2.372 0-3.34 3.417-1.877 6.628.822 1.803.805 2.727-.067 3.599-2.399 2.399-.376 3.821 2.68 1.885 1.076-.682 1.11-1.312.169-3.07-.651-1.218-.918-2.479-.593-2.805.902-.901 3.377 2.95 3.03 4.712-.168.853-.34 2.061-.382 2.684-.186 2.75-8.767 3.591-12.231 1.199-2.865-1.977-8.846-2.501-8.846-.775 0 .592-.977.372-2.223-.5-3.411-2.39-4.626-1.893-5.362 2.193-1.374 7.624-3.018 7.858-11.841 1.691C46.293 525.351 43 521.708 43 518.743c0-1.536-.301-1.738-1.324-.889-.964.8-1.632.79-2.457-.035-.846-.846-1.495-.835-2.552.043-.78.647-3.612 1.387-6.293 1.643-12.691 1.215-16.386 1.733-23.124 3.24L0 524.366v12.798c0 15.03-1.991 13.4 17.5 14.327 25.197 1.197 38.098 2.362 47.5 4.287 5.225 1.07 11.525 2.023 14 2.117 2.475.095 5.4.27 6.5.389 2.798.302 3.301-3.785.641-5.208-1.291-.692-2.095-.714-2.312-.063-.183.548-3.466-2.831-7.296-7.508-3.83-4.678-7.429-8.523-7.998-8.544-.569-.022.387-.658 2.125-1.414 1.738-.756 3.373-2.201 3.634-3.211.331-1.281.509-1.038.59.807.119 2.715 1.708 3.857 5.364 3.857 1.147 0 1.784.301 1.416.669-.367.368.08 1.495.994 2.506.915 1.01 1.382 2.119 1.038 2.463-1.288 1.288 1.349 4.125 4.518 4.861 2.229.517 2.723.905 1.536 1.205-.964.244-1.75 1.377-1.75 2.524 0 1.998.078 2.011 1.942.324 1.068-.966 2.526-1.563 3.24-1.325 1.695.565 1.144 7.345-.842 10.377-.813 1.24-1.636 3.967-1.831 6.06-.238 2.557-1.199 4.533-2.931 6.023-2.483 2.135-3.58 4.051-1.631 2.846.537-.332 1.087 1.7 1.27 4.691.339 5.539.979 4.56 2.271-3.474.464-2.886 1.065-3.75 2.607-3.75 1.102 0 3.332-.687 4.955-1.526 1.691-.874 2.95-1.088 2.95-.5 0 .564.563.913 1.25.776.781-.156 1.366 1.154 1.56 3.496.333 4.015 2.919 5.61 6.999 4.315 1.422-.452 3.794.889 8.722 4.928 6.903 5.658 11.539 7.801 12.252 5.663.213-.641.771-.928 1.239-.638 1.193.737-.035 36.753-1.294 37.986-.691.676-.823.433-.407-.75.62-1.76-.529-2.213-4.571-1.802-.962.098-1.75-.454-1.75-1.226 0-.885-2.026-1.857-5.482-2.631-6.884-1.54-11.228-3.681-12.574-6.195-.574-1.074-1.425-1.717-1.889-1.43-1.038.642-2.277-2.298-1.499-3.556.856-1.385-3.969-1.086-5.485.34-1.094 1.029-1.209.741-.649-1.626.537-2.273.375-2.76-.77-2.321-1.056.405-1.559-.384-1.854-2.905-.297-2.547-.06-3.329.899-2.961 2.477.951 1.293-1.104-1.447-2.511-1.512-.777-3.478-2.203-4.367-3.169-.89-.966-2.154-1.757-2.809-1.757-.656 0-.931-.422-.612-.939 1.095-1.772-2.705-2.947-4.904-1.516-1.132.736-5.658 1.629-10.058 1.984-4.4.355-11.15 1.258-15 2.006-8.008 1.558-17.677 1.751-28.5.571-6.813-.743-7.662-.636-9.27 1.173-1.528 1.719-2.65 1.921-8.203 1.475C.489 597.029 0 597.733 0 611.495c0 11.576.77 14 1.176 3.706.227-5.74.417-6.201 2.554-6.201 1.939 0 2.211.385 1.704 2.406-.717 2.859-2.053 2.371 19.066 6.967 38.102 8.293 80.462 16.579 81.912 16.023.885-.34 1.804.002 2.104.784.292.763 1.759 1.483 3.258 1.599 2.43.189 9.837 1.475 15.909 2.763 1.756.372 2.276-.076 2.654-2.29.258-1.513.303.398.099 4.248s-.663 8.8-1.019 11c-1.498 9.243-1.027 17.323 1.136 19.492 2.67 2.677 18.575 4.605 45.144 5.473l19.197.627 1.672-2.553c1.185-1.808 2.449-2.493 4.332-2.35 3.73.284 4.912-.731 4.34-3.726-.352-1.842.229-3.359 2.021-5.274 1.384-1.479 2.822-3.702 3.196-4.939.786-2.603 1.741-2.674 10.545-.786 7.231 1.549 7.21 1.558 13.302-5.229 1.851-2.061 4.553-3.673 7.329-4.372 2.612-.658 5.336-2.224 6.712-3.858 1.273-1.513 3.291-3.274 4.486-3.913 1.194-.639 2.171-1.761 2.171-2.492 0-.732.963-2.555 2.14-4.051 2.282-2.9 1.641-9.802-1.414-15.227-7.755-13.773-10.703-20.394-9.316-20.926.818-.314 2.513.386 3.768 1.556 1.255 1.169 3.265 2.372 4.465 2.673 2.446.614 3.708 4.13 2.791 7.781-.362 1.443.032 3.376.985 4.83.873 1.333 1.286 2.725.918 3.094-.369.368-.033.675.746.681 1.841.013 7.194 5.602 9.282 9.689 2.06 4.033 2.079 7.152.055 9.388-1.254 1.387-1.346 2.182-.444 3.867 1.733 3.239.515 5.403-6.909 12.277-7.914 7.327-23.585 14.632-27.218 12.687-3.443-1.842-8.987.083-13.35 4.636l-4.074 4.251-1.604-2.795c-1.565-2.728-1.531-2.849 1.406-5.021 2.334-1.725 2.703-2.42 1.642-3.092-2.511-1.591-4.995-.926-8.084 2.164-3.056 3.055-2.931 4.417.465 5.091 3.278.65-1.597 6.743-7.335 9.167-6.202 2.621-7.009 4.972-3.738 10.888l2.373 4.292 6.475-.105c7.073-.114 14.341-1.093 17.475-2.352 1.1-.442 4.025-1.578 6.5-2.525 2.475-.947 7.06-2.87 10.189-4.275 8.187-3.673 9.429-2.72 15.978 12.257.481 1.1 1.054 2.9 1.273 4 .219 1.1 1.109 3.673 1.979 5.718 3.103 7.296.808 23.989-3.897 28.349-2.987 2.768-3.522 2.947-3.522 1.174 0-2.402-4.054-4.115-5.742-2.428-1.318 1.318-1.304 1.815.12 4.338.885 1.567 2.05 4.086 2.59 5.599l.982 2.75H315v-10.345c0-9.042.249-10.571 1.981-12.138 1.462-1.323 2.323-1.51 3.283-.713.716.594 2.448 1.516 3.848 2.049 2.47.938 2.545.848 2.468-2.984-.065-3.228.398-4.246 2.526-5.555 3.312-2.037 7.894-1.094 7.894 1.623 0 4.068 1.09 5.063 5.55 5.063 4.033 0 7.45 2.349 7.45 5.122 0 1.308-9.547 1.466-13.75.227-4.788-1.412-5.898-.018-1.5 1.883 1.512.653 4.249 2.462 6.082 4.02 3.441 2.924 5.923 2.989 9.168.241 3.524-2.985 9.229-2.821 25.902.744 4.855 1.038 6.021.924 11.5-1.124 3.354-1.254 8.573-2.644 11.598-3.09 6.188-.911 10.493-2.393 11.449-3.941.875-1.416-1.431-8.822-3.206-10.295-2.347-1.948-15.373-4.853-18.843-4.202-1.754.329-4.048.138-5.098-.423-1.05-.562-7.51-1.533-14.355-2.159-6.846-.625-12.875-1.556-13.397-2.07-.523-.513-2.59-.933-4.595-.933-3.594 0-8.094-3.194-6.602-4.686.37-.371 4.605-.849 9.41-1.063 10.729-.477 12.156-.84 9.937-2.529-.952-.724-1.727-3.054-1.903-5.722-.28-4.235-.481-4.518-3.425-4.804-2.637-.257-3.229.096-3.769 2.25-.796 3.17-4.603 3.628-4.603.554 0-1.842-.667-2-8.429-2-9.537 0-10.929-.762-12.02-6.581-1.087-5.792-.165-5.987 14.637-3.081 7.321 1.437 21.412 4.179 31.312 6.092 9.9 1.913 28.575 5.555 41.5 8.094 12.925 2.539 28.225 5.499 34 6.578 21.947 4.102 48.112 8.898 48.547 8.898.249 0 .453-4.901.453-10.892 0-10.489-.084-10.912-2.27-11.461-1.248-.313-13.395-2.614-26.992-5.113-13.598-2.499-26.414-5.178-28.48-5.954-2.067-.775-7.123-1.686-11.236-2.023-8.414-.69-9.545-1.336-8.642-4.934.597-2.378.79-2.445 3.376-1.179 11.946 5.851 14.815 6.093 12.895 1.088-.31-.807-.09-1.76.488-2.118 1.021-.631-8.347-10.414-9.971-10.414-1.406 0-4.744 2.935-3.376 2.968.71.018 2.258.932 3.438 2.032l2.147 2h-2.254c-1.24 0-3.089.446-4.108.992-1.737.929-1.858.447-1.917-7.623-.035-4.739.146-8.955.402-9.37.257-.415 4.392 1.216 9.189 3.624 9.924 4.98 9.889 4.975 17.297 2.418 6.036-2.083 9.832-1.141 6.275 1.559-1.619 1.229-1.625 1.339-.07 1.368.93.018 1.999-.466 2.376-1.076.424-.686 2.157-.872 4.559-.488 5.123.819 4.955.541-2.376-3.94-7.041-4.304-21.251-17.63-25.433-23.852-1.52-2.262-4.733-6.671-7.139-9.8-4.025-5.232-4.32-6.012-3.689-9.75.843-4.988 4.507-6.053 4.516-1.312.014 7.412 15.543 19.529 26.426 20.62 3.309.332 4.889 1.406 10 6.804 9.554 10.09 20.983 22.948 21.966 24.714.494.887 1.031 1.774 1.194 1.972.163.198 2.731.506 5.706.683l5.41.323.52-27.683c.287-15.226.29-37.222.007-48.88l-.515-21.197-2.609-.347-2.61-.347 2.604-1.3c2.488-1.242 2.632-1.77 3.25-11.861.854-13.964.796-28.505-.119-29.751-.404-.55-1.41-1-2.235-1s-1.944-1.013-2.487-2.25c-1.213-2.764-1.997-2.801-5.24-.25-1.399 1.1-4.057 2-5.908 2s-3.365.45-3.365 1-.492 1-1.092 1c-2.685 0-5.622 3.54-4.794 5.779.566 1.529.442 2.221-.398 2.221-1.926 0-16.716 8.016-16.716 9.06 0 .517.9.94 2 .94 1.779 0 2 .667 2 6.029v6.03l-6.567 6.47c-9.379 9.241-12.463 8.771-15.035-2.291-1.633-7.025-.316-9.433 4.065-7.437 2.747 1.252 3.287 4.025 1.379 7.08-1.163 1.863-.581 5.201.877 5.024.429-.051 3.368-2.964 6.531-6.472 5.905-6.551 7.119-10.052 4.296-12.395-1.728-1.434-11.352.994-15.524 3.917-1.387.972-4.322 2.347-6.522 3.056-2.2.709-7.23 2.756-11.177 4.549l-7.178 3.26-1.572-3.93c-2.344-5.858-2.19-6.15 5.958-11.312 4.142-2.624 9.826-6.729 12.631-9.123 2.805-2.395 6.44-4.648 8.079-5.008 1.638-.36 5.292-1.655 8.119-2.878 2.827-1.224 8.183-3.029 11.902-4.011 13.12-3.466 8.247-4.367-10.165-1.88l-4.403.595.642-3.887c.353-2.137.647-4.898.653-6.136.006-1.238.461-2.25 1.011-2.25.55 0 1 1.38 1 3.066 0 4.67 5.35 3.98 5.808-.75.316-3.256-2.078-5.68-5.017-5.08-1.987.406-2.097-7.249-.344-24.037 2.328-22.3 1.716-38.694-2.34-62.699-.557-3.3-1.082-8.475-1.166-11.5-.622-22.519-4.227-51.731-7.033-56.996-.441-.827-1.557-3.979-2.48-7.004-.923-3.025-2.601-6.512-3.728-7.75-1.512-1.66-1.675-2.254-.624-2.265.896-.01 1.034-.288.372-.75-.579-.404-1.82-2.386-2.759-4.405-.939-2.018-2.265-3.869-2.948-4.113-.682-.244-.934-.774-.559-1.178 1.019-1.1 5.75 2.704 5.787 4.652.017.93.454 1.953.972 2.272 1.171.724.251-5.53-1.594-10.839-.741-2.131-1.347-3.979-1.347-4.105 0-.127 3.36-.484 7.467-.795 4.106-.311 8.041-.92 8.744-1.354 1.942-1.201-4.905-2.312-10.302-1.673-4.257.504-4.761.319-6.755-2.48-1.185-1.664-2.154-3.279-2.154-3.588 0-.309-1.793-3.336-3.985-6.726-2.191-3.391-4.992-9.296-6.225-13.123-2.548-7.912-11.568-19.467-19.404-24.858-2.448-1.684-5.626-4.839-7.063-7.009-2.679-4.05-3.32-4.348-11.72-5.442-3.95-.514-8.435-2.567-13.536-6.196-.239-.17.099-.841.75-1.492.651-.65 1.183-1.988 1.183-2.972 0-2.107 4.457-2.171 6.185-.088 1.408 1.696 2.889 1.633 2.226-.094-.289-.754.175-1.64 1.032-1.969.856-.328 1.557-1.286 1.557-2.129 0-.842.86-1.531 1.911-1.531 1.051 0 3.112-1.427 4.58-3.172 2.509-2.982 2.864-3.102 5.91-2 3.896 1.409 4.599 1.45 4.599.27 0-.496-1.413-1.395-3.139-1.997l-3.14-1.094 2.639-2.076c2.345-1.844 2.472-2.242 1.139-3.575-.824-.824-1.499-3.047-1.499-4.939 0-3.414.029-3.436 3.75-2.852 6.023.946 11.371-5.939 8.359-10.761-.713-1.143-.92-3.294-.521-5.422.504-2.687.334-3.482-.713-3.336-2.383.331-4.233-.021-3.574-.68.349-.349-1.319-2.127-3.707-3.95-5.074-3.874-5.676-5.039-4.349-8.416.574-1.458 1.179-1.979 1.452-1.25.72 1.916 2.303 1.484 2.303-.628 0-1.033-.701-3.555-1.557-5.605-.857-2.05-1.705-5.142-1.885-6.872-.179-1.73-.669-3.978-1.088-4.996-.49-1.19-.263-2.172.634-2.75 1.022-.658 1.085-1.101.237-1.652-1.573-1.022-4.638-8.866-4.088-10.463.243-.706-.614-2.851-1.905-4.766-1.292-1.915-2.348-4.053-2.348-4.75 0-2.008 2.819-1.474 4.015.76 1.08 2.019 2.985 1.857 2.985-.254 0-.609-.297-.81-.66-.447-.838.838-3.695-3.183-4.087-5.752-.163-1.069-1.412-3.406-2.775-5.193-1.363-1.786-2.478-3.98-2.478-4.874 0-3.749-28.55-42.486-31.34-42.523-.876-.012-.875-.197.005-.757 1.701-1.082-.642-3.933-3.904-4.752-1.439-.361-2.86-1.291-3.157-2.066-.298-.776-1.118-1.411-1.823-1.411-.704-.001-3.306-1.801-5.781-3.999-2.475-2.198-4.776-3.998-5.112-3.999-.337 0-2.312-1.351-4.388-3.001-5.264-4.183-2.985-3.74 5.506 1.071 10.654 6.038 9.578 4.063-1.454-2.669-5.254-3.206-9.552-6.183-9.552-6.616 0-.432-1.462-.793-3.25-.801-2.265-.011-2.828-.283-1.858-.897.963-.61-.422-1.235-4.5-2.031a576.39 576.39 0 01-10.416-2.138c-2.488-.543-8.113-.901-12.5-.795-4.387.106-10.001-.108-12.476-.475-2.917-.433-5.807-.182-8.214.711m223.714.75c-2.75.481-9.857 1.038-15.793 1.236-10.066.337-10.978.54-13.554 3.008-1.52 1.455-3.09 2.646-3.491 2.646-.401 0-2.304 1.575-4.229 3.5-4.27 4.27-7.976 4.798-7.022 1 .859-3.422-1.187-3.219-2.509.25-.576 1.513-1.211 5.82-1.411 9.571-.2 3.752-.651 8.129-1.002 9.728-.351 1.598-.769 6.629-.93 11.179-.16 4.549-.603 9.001-.983 9.893-.404.948-.044 2.268.866 3.179 1.952 1.951 1.966 3.116.058 4.7-2.899 2.406-1.878 5.157 1.75 4.717 2.196-.266 3.21-.904 3.126-1.968-.082-1.04 1.037-1.791 3.302-2.216 3.606-.677 5.484-3.197 3.361-4.509-.888-.549-.931-.973-.146-1.458.609-.376 1.107-.444 1.107-.15 0 .294 1.141.101 2.536-.43 3.837-1.459 4.596 1.643 1.131 4.624-1.467 1.262-2.667 2.594-2.667 2.96 0 .674-3.821 5.386-8.915 10.994-6.014 6.622-7.806 11.24-8.511 21.936-.362 5.5-1.536 23.05-2.61 39-1.073 15.95-1.954 32.204-1.958 36.119l-.006 7.119 3.75.62c2.063.341 10.107.625 17.878.631 11.328.009 14.374.308 15.372 1.511 1.782 2.147 8.635 1.973 9.883-.25 1.265-2.254 1.937-.601 2.335 5.75l.282 4.5h11.906l1.927-5.75c1.094-3.263 2.52-5.75 3.297-5.75 2.037 0 1.922-14.591-.13-16.643-1.562-1.562-1.327-6.723.583-12.756.504-1.595.917-5.46.917-8.59 0-5.099-.26-5.808-2.5-6.829-1.845-.841-2.5-1.913-2.5-4.091 0-3.228-1.62-3.909-7.694-3.238-2.76.305-3.236.781-3.5 3.5l-.306 3.147-7-.05c-10.987-.079-26.37-1.577-31.75-3.092-2.147-.605-2.25-3.875-.244-7.722.822-1.576 1.494-3.426 1.494-4.113 0-.686 1.341-2.936 2.981-4.999 1.965-2.473 3.201-5.414 3.628-8.637.357-2.688 1.067-4.887 1.579-4.887.511 0 .633-.481.27-1.068-.363-.588-1.29-.827-2.059-.532-2.258.867-1.606-.964 1.055-2.963 1.828-1.373 2.182-2.17 1.388-3.127-1.718-2.071-.348-3.874 5.481-7.209 5.577-3.191 8.636-6.858 4.671-5.599-2.505.795-2.672-1.286-.246-3.06.962-.703 1.5-1.528 1.195-1.832-.643-.643-15.59 7.01-16.47 8.433-.325.527-1.599.957-2.832.957-1.233 0-2.781.54-3.441 1.2-3.277 3.277-.783-1.697 2.8-5.584 2.2-2.387 4-5.007 4-5.822 0-.815 2.25-3.829 5-6.697s5-5.568 5-6.001c0-1.447 3.473-3.91 6-4.255 1.375-.187 2.5-.967 2.5-1.732 0-2.568 3.182-3.707 5.214-1.868 1.269 1.149 2.285 1.367 3.309.71.812-.521 2.827-.662 4.477-.314 2.661.562 11.947.833 16.75.489 2.736-.197 2.052-1.908-1-2.503-1.512-.294-5.861-.804-9.663-1.131-3.803-.328-7.74-1.039-8.75-1.579-1.011-.541-1.837-.754-1.837-.473s-1.238.032-2.75-.554c-1.512-.585-3.65-1.239-4.75-1.454-1.1-.215-3.125-.913-4.5-1.551-10.234-4.753-10.657-5.425-6.435-10.225 1.608-1.829 3.076-2.624 4.11-2.227.967.371 4.114-.954 7.895-3.325 7.459-4.677 11.783-5.598 12.225-2.604.414 2.808 6.009 6.6 8.087 5.481.89-.48 3.306-1.142 5.368-1.472l3.75-.6V54.955c0-17.016.924-15.669-9.5-13.845m-6.5 5.875c-.825.54-2.911.724-4.635.409-1.804-.33-3.422-.111-3.809.516-.371.6-1.793 1.09-3.16 1.09-1.368 0-3.655 1.168-5.083 2.596-2.265 2.265-2.916 2.45-5.107 1.452-1.75-.797-2.828-.826-3.558-.096-.731.731-.363 1.048 1.213 1.048 2.352 0-.609 3.03-9.837 10.068-2.002 1.526-3.076 3.039-2.649 3.729.627 1.015 8.91-2.616 24.861-10.896.955-.495 2.841-.901 4.191-.901 1.35 0 2.733-.45 3.073-1 .34-.55 1.909-1 3.488-1 3.503 0 6.224-2.511 5.815-5.364-.34-2.374-2.543-3.131-4.803-1.651m-.144 59.819c-5.512.46-7.962 3.911-7.949 11.196.002 1.375-.649 4.192-1.448 6.261-.798 2.069-1.382 4.094-1.297 4.5.086.406-.09 1.414-.389 2.239-2.548 7.019-3.364 13-1.773 13 .55 0 1-.675 1-1.5s.48-1.5 1.067-1.5c.621 0 .796-.857.418-2.048-.358-1.126-.244-2.589.252-3.25.956-1.273 3.013-7.845 3.506-11.202.198-1.346 1.059-2 2.632-2 1.812 0 2.672-.899 3.826-4l2.515-6.75c.837-2.242 1.64-2.75 4.346-2.75 1.826 0 3.569-.403 3.873-.895.636-1.029-5.217-1.748-10.579-1.301M257.25 159.662c-.687.278-1.25 1.126-1.25 1.886s-.9 1.863-2 2.452-2 1.697-2 2.464c0 .766-.562 1.988-1.25 2.715-2.893 3.058-4.095 6.901-3.853 12.321.157 3.521 2.061 1.55 2.088-2.161.019-2.726 5.398-7.339 8.557-7.339 2.96 0 4.765-3.052 5.176-8.75.313-4.353-1.166-5.323-5.468-3.588m208.77 29.622c-2.808 1.421-4.983 5.114-5.005 8.497-.017 2.543.894 3.069 5.979 3.454 3.493.265 3.494.264 4.082-4.735.98-8.33-.023-9.762-5.056-7.216m-413.437 3.361c-.321.835-.583 10.29-.583 21.01 0 17.96.136 19.465 1.735 19.158 1.142-.22 1.976-1.697 2.442-4.324.862-4.859 1.024-31.137.211-34.17-.726-2.705-3.022-3.715-3.805-1.674m14.067 20.509c-.358 5.034-.657 11.447-.665 14.25-.02 6.533-.432 7.056-6.735 8.551-4.939 1.171-6.937 3.316-4 4.295.965.321 1.313 9.286 1.526 39.333.314 44.483.178 43.036 4.126 43.616 4.084.599 4.098.458 4.098-42.762 0-28.451.335-38.812 1.41-43.625C68.164 228.957 69.556 204 68.24 204c-.517 0-1.233 4.119-1.59 9.154m365.084 25.445c-.404.404-.734 3.551-.734 6.993v6.258l6.25-2.626c7.551-3.174 7.503-3.141 5.937-4.108-.69-.427-.98-1.493-.643-2.369.936-2.439-8.788-6.17-10.81-4.148M357 252.617c-3.025 1.429-6.625 2.972-8 3.428-1.375.456-6.949 2.65-12.386 4.875-5.437 2.226-11.062 4.167-12.5 4.313-1.438.147-3.064.612-3.614 1.034-.55.422-2.539 1.772-4.419 3-2.549 1.665-3.97 3.76-5.587 8.233-1.192 3.3-2.426 6.675-2.743 7.5-3.284 8.564-3.561 8.215 7.579 9.551 4.214.506 6.5 1.37 8.25 3.12 1.331 1.331 2.427 2.062 2.435 1.624.009-.437.41-.173.891.587.683 1.079 1.03.894 1.582-.843.616-1.942 1.17-2.142 4.359-1.573 5.628 1.005 15.427 4.583 17.653 6.445 1.1.92 3.646 2.414 5.658 3.321 2.012.906 4.487 2.85 5.5 4.32 1.013 1.47 3.573 4.631 5.688 7.026l3.846 4.353-1.702 4.785c-.936 2.631-2.101 5.684-2.589 6.784-6.842 15.424-7.145 31.52-.923 49 1.566 4.4 3.545 10.475 4.397 13.5a1071.71 1071.71 0 003.032 10.521c.816 2.761 1.747 6.515 2.069 8.341.321 1.826.683 3.841.804 4.479.942 4.97 22.517 4.704 38.944-.481 8.82-2.784 9.199-4.336.947-3.878-1.919.107-4.101-.514-5.151-1.464-1.199-1.085-2.046-1.284-2.48-.583-.967 1.566-2.54 1.296-2.54-.435 0-.825.337-1.427.75-1.339 1.216.262 6-1.947 6.712-3.099.361-.584 2.504-1.062 4.764-1.062 5.098 0 4.425-.984-.951-1.391-2.183-.166-4.507-.634-5.165-1.041-.659-.407-1.864-.187-2.678.488-2.092 1.737-2.863.518-.908-1.437.89-.89 2.685-1.619 3.988-1.619 1.304 0 2.692-.521 3.086-1.159.529-.856-.906-.989-5.494-.51-4.005.419-5.993.298-5.598-.341.337-.544 1.86-.99 3.386-.99s3.102-.337 3.501-.75c.4-.413 3.062-1.493 5.917-2.402l5.19-1.652-4.5-.168c-3.483-.131-4.048-.363-2.5-1.028 1.549-.666.985-.899-2.5-1.033l-4.5-.174 4-1.041c2.2-.572 4.225-1.356 4.5-1.742.275-.386 1.791-1.018 3.368-1.405 1.577-.386 2.603-.968 2.279-1.292-.324-.324-2.515-.102-4.868.493-6.445 1.63-13.206 2.221-12.037 1.052.541-.541 2.499-1.027 4.351-1.08 1.852-.052 4.041-.769 4.863-1.591 1.328-1.329.797-1.417-4.73-.792-7.778.88-7.96.14-.476-1.929 6.899-1.907 10.25-3.465 10.25-4.766 0-.898-2.249-.677-9.25.91-1.73.392-2.75.209-2.75-.493 0-.615.788-1.137 1.75-1.162.962-.025 3.1-.666 4.75-1.424 2.851-1.311 2.678-1.361-3.5-1.007-3.575.204-5.415.129-4.088-.167 1.772-.396 2.057-.758 1.073-1.366-.915-.566.203-1.277 3.535-2.248 2.68-.782 5.035-1.907 5.233-2.501.224-.672-1.455-.488-4.447.487-2.643.862-7.478 1.735-10.744 1.94-6.02.378-7.138-.334-1.991-1.268 1.55-.281 5.317-1.342 8.373-2.357 3.056-1.016 6.456-2.064 7.556-2.33 1.1-.265.142-.534-2.128-.598-2.27-.064-5.68.533-7.578 1.325-2.826 1.182-4.094 1.22-7.022.214l-3.572-1.228 2.42-2.155c1.33-1.186 4.435-2.458 6.899-2.827 4.347-.652 5.864-2.472 3.355-4.023-.675-.417.189-1.249 2.151-2.075 4.326-1.819 3.194-2.779-1.681-1.425-4.819 1.338-6.638 1.362-5.844.078.34-.55 1.491-1 2.559-1s1.941-.455 1.941-1.012c0-.62-1.547-.764-4-.372-4.819.771-5.261-.162-.75-1.581 2.631-.827 1.918-.918-3.75-.476-4.566.356-6.652.206-6-.432 1.249-1.221 10.664-1.762 12.366-.71.734.454 2.043.071 3.134-.917 1.031-.933 2.352-1.4 2.937-1.039s1.063.032 1.063-.732c0-1.09-1.455-1.3-6.75-.971-6.918.428-7.542-.358-1.928-2.432l3.178-1.174-3.917-.076c-5.211-.101-4.257-.776 3.496-2.471l6.421-1.404-5.191-.101c-2.855-.055-5.491-.586-5.858-1.179-.419-.678-2.394-.841-5.31-.44-2.554.351-5.768.19-7.143-.358l-2.498-.996 3-.132c11.59-.507 15.938-1.046 16.899-2.091.831-.905.672-1.047-.649-.583-.962.339-1.75.18-1.75-.352 0-.533.563-1.014 1.25-1.069.688-.055.174-.401-1.141-.769-2.86-.801-3.947-5.872-1.463-6.825 1.155-.444 1.222-.769.28-1.352-.683-.422-2.183-.39-3.334.07-1.151.461-3.419 1.125-5.04 1.476-2.218.479-2.596.855-1.528 1.515 2.008 1.241-1.201 2.408-4.407 1.604-2.428-.61-4.161-4.165-2.523-5.177.498-.308.906-1.01.906-1.56s-.45-.722-1-.382c-.55.34-1 .194-1-.324 0-1.568 4.897-2.006 6.108-.546.872 1.05.596 1.563-1.244 2.311-1.961.798-1.597.925 2.136.744 2.475-.12 5.625-1.02 7-2.001 2.392-1.706 2.42-1.843.65-3.167-1.018-.761-1.554-1.864-1.191-2.45 1.001-1.62-3.766-1.302-6.018.401-2.207 1.669-7.441 2.043-7.441.532 0-.55-2.025-1-4.5-1-4.841 0-5.006-.129-3.521-2.764.538-.955 2.081-4.546 3.427-7.98 1.347-3.434 3.452-7.709 4.679-9.5 6.24-9.112 12.449-16.756 13.611-16.756 2.696 0 1.11-2.744-4.946-8.558-11.108-10.664-17.399-13.416-29.25-12.795l-6 .314 3.5-1.939c5.178-2.867 1.372-2.414-5 .595m97.681 23.27c.271 1.038.004 2.19-.594 2.559-.602.373-1.087 3.572-1.087 7.179 0 3.578-.469 7.384-1.043 8.456-.808 1.508-.695 2.082.5 2.541.849.326 1.543 1.396 1.543 2.378 0 .982.678 2.046 1.506 2.364 2.774 1.064 6.106-6.007 6.809-14.452.613-7.363.55-7.668-2.146-10.25-3.299-3.161-6.22-3.573-5.488-.775M45.214 304.5c-.115 8.25-.957 22.116-1.872 30.813-1.755 16.683-1.339 22.056 1.862 24.055 2.382 1.487 9.683-6.389 10.286-11.096.234-1.829.661-3.708.95-4.174.844-1.366 1.76-10.632.974-9.845-.956.956-3.312-2.243-3.501-4.753-.096-1.284-.377-.926-.786 1-.495 2.333-1.247 3.07-3.382 3.316-1.51.174-2.835.174-2.946 0-.11-.174-.465-10.216-.788-22.316-.556-20.809-.599-21.188-.797-7M187 310.059c-.825.518-2.781 1.397-4.347 1.954-1.565.556-3.079 1.901-3.363 2.988-.285 1.087-.856 1.767-1.27 1.511-1.408-.87-4.373 3.351-3.314 4.719 1.276 1.65 4.294 12.719 4.294 15.751 0 3.577 1.233 1.573 1.474-2.396.117-1.929 1.357-4.987 2.777-6.849 2.167-2.84 2.337-3.509 1.093-4.3-1.268-.807-1.217-1.214.369-2.937 6.512-7.073 8.041-14.053 2.287-10.441M60.213 328.031c-.704 1.128-.951 2.583-.549 3.235.403.652.619 4.908.48 9.459-.144 4.728.155 8.275.697 8.275.942 0 .054 5.743-1.203 7.777-.345.558-.829 10.344-1.077 21.747-.442 20.323-.506 20.839-3.232 26.046-2.901 5.541-2.804 7.235.324 5.607 1.016-.529 3.024-1.423 4.464-1.987l2.616-1.026-.433-13.832c-.239-7.607-.057-18.885.403-25.062.461-6.176.552-12.026.204-13-.349-.973-.161-2.074.418-2.445 1.268-.815 2.187-17.284 1.245-22.306-.369-1.966-1.06-3.334-1.535-3.041-.475.294-1.017.077-1.203-.482-.186-.558-.915-.093-1.619 1.035m133.349 42.592c-1.959 2.566-3.562 5.072-3.562 5.569 0 .497-1.657 3.47-3.681 6.606-2.025 3.136-4.766 7.727-6.091 10.202-1.326 2.475-3.033 5.199-3.795 6.052-.762.854-1.529 2.498-1.706 3.653-.176 1.155-.862 2.753-1.525 3.551-1.174 1.416-1.33 6.744-.196 6.744.313 0 2.53-3.038 4.926-6.75 2.397-3.712 4.888-7.2 5.537-7.75 2.662-2.254 15.808-31.211 14.529-32.001-.481-.297-2.477 1.558-4.436 4.124M8.28 390.85c-1.552.454-1.966 1.057-1.377 2.003.675 1.085 1.29 1.114 3.097.147 2.469-1.322 3.955-.132 3.985 3.191.008.93.493 1.986 1.077 2.347s1.48 1.757 1.991 3.102c.906 2.384 1.124 2.429 8.688 1.822 4.268-.342 8.322-.797 9.009-1.011 2.512-.78 1.239-5.055-2.629-8.832-3.551-3.469-4.068-3.675-6.13-2.453-1.778 1.053-2.348 1.071-2.705.084-.482-1.332-10.879-1.609-15.006-.4m84.72.017c0 .602 1.013 1.322 2.25 1.6s6.975 1.686 12.75 3.129c10.565 2.64 23.246 5.254 25.964 5.351 4.877.176-3.021-2.989-13.464-5.394-6.6-1.52-13.35-3.143-15-3.605-5.882-1.648-12.5-2.22-12.5-1.081m149 44.715c0 1.237-1.334 3.507-2.964 5.046-1.631 1.539-2.546 3.057-2.034 3.373.537.332.311 1.769-.536 3.401-.806 1.555-1.473 3.563-1.481 4.462-.014 1.422-.143 1.439-.985.136-.838-1.297-.971-1.275-.985.167-.008.916-.51 1.831-1.114 2.033-.605.201-1.715 1.831-2.468 3.622-.753 1.791-.934 2.988-.401 2.658.532-.329 1 .666 1.038 2.211.062 2.471.174 2.568.93.809.8-1.861.864-1.87.93-.128.056 1.497.353 1.638 1.481.702.897-.745 1.633-.812 2.021-.184.336.543.038 1.352-.661 1.799-.699.446-1.912 1.627-2.696 2.624-1.319 1.679-1.219 1.761 1.361 1.114 2.51-.63 2.718-.489 2.109 1.431-.529 1.667-.336 1.999.89 1.529 1.108-.426 1.565.001 1.565 1.459 0 7.665 11.168 17.957 19.672 18.13 3.197.065 3.783-10.664.749-13.698-.683-.683-2.032-3.387-2.998-6.01-.966-2.622-2.615-5.733-3.665-6.913-1.248-1.402-1.536-2.374-.833-2.809.591-.365 1.068-1.65 1.06-2.855-.013-1.824-.194-1.94-1.082-.691-.782 1.1-.92-.124-.518-4.583.323-3.571.128-6.504-.471-7.103-.976-.976-2.154-7.498-2.149-11.897.002-1.63-.625-2.084-2.881-2.084-2.324 0-2.884.437-2.884 2.249m-229 7.865c0 .869-.562 2.501-1.25 3.627-1.056 1.73-.968 2.257.566 3.395 1.525 1.132 1.617 1.666.574 3.335-1.028 1.647-.954 2.275.434 3.663.922.922 1.676 2.157 1.676 2.744 0 .588.681 1.568 1.514 2.179 2.26 1.657 2.312 21.569.059 22.829-1.596.893-2.212 3.781-.806 3.781.422 0 3.146-2.081 6.054-4.624 4.8-4.2 5.646-4.577 9.194-4.101 2.607.35 4.279.075 5.027-.825 1.097-1.323 1.05-7.465-.065-8.45-.311-.275-1.481-2.082-2.599-4.015-2.002-3.461-2.004-3.566-.153-6.88 1.034-1.851 1.744-4.315 1.577-5.475-.356-2.485-3.802-3.576-3.802-1.203 0 2.039-.009 2.037-6.428-1.111-4.953-2.429-5.502-3.023-5.773-6.25-.256-3.058-.691-3.611-3.049-3.882-1.973-.227-2.75.129-2.75 1.263m50.361 20.303c.103 1.301-.631 1.76-2.861 1.79-3.347.046-9.5 3.284-9.5 5.001 0 .61.812 1.964 1.805 3.01 1.785 1.88 1.384 5.295-1.072 9.118-.413.644-.051 1.87.806 2.727 1.233 1.233 1.322 1.996.428 3.666-1.394 2.604-.75 3.396 1.686 2.072 4.688-2.549 8.515-3.13 10.673-1.618 1.865 1.306 1.904 1.484.325 1.484-.987 0-2.437.643-3.222 1.429-1.6 1.599-1.931 2.999-.501 2.115.51-.315 1.209.312 1.552 1.394.61 1.92 5.607 5.062 8.051 5.062 2.681 0 4.034-3.113 2-4.601-1.843-1.347-1.833-1.448.342-3.764 2.091-2.225 2.118-2.427.431-3.115-1.459-.594-1.052-1.003 2.13-2.139 2.163-.772 4.8-2.186 5.859-3.142 1.175-1.062 3.537-1.739 6.066-1.739 4.294 0 6.694-1.778 3.095-2.293-1.125-.161-2.87-1.824-3.878-3.696-3.165-5.877-5.595-7.442-12.636-8.14-6.382-.633-9.94-2.432-9.94-5.026 0-.74-.4-1.345-.889-1.345s-.826.788-.75 1.75m-9.662 36.183c-.953 1.613-2.702 3.075-3.887 3.25-3.06.45-3.292 2.281-.616 4.854 1.575 1.514 1.908 2.36 1.054 2.672-2.648.969.17 9.291 3.147 9.291.642 0 1.263 1.165 1.381 2.589.287 3.464.978 4.411 3.222 4.411 3.707 0 2.82-3.802-1.232-5.286-.959-.351-.988-.763-.117-1.69.907-.967 1.91-.951 4.749.076 2.8 1.013 3.865 1.035 4.799.101 1.829-1.829 2.803-1.441 2.539 1.008-.344 3.191 2.446 3.348 6.023.339 1.665-1.402 3.525-2.548 4.133-2.548.608 0 1.106-.477 1.106-1.059s.427-.795.95-.472c.522.323 1.475-.394 2.116-1.593 1.038-1.938.961-2.095-.7-1.412-1.026.422-3.612 1.181-5.746 1.686-2.133.505-4.721 1.369-5.75 1.919-1.511.809-1.87.649-1.87-.833 0-1.209 1.268-2.293 3.723-3.181 3.224-1.165 3.458-1.449 1.75-2.111-1.085-.422-2.873-2.155-3.973-3.852-1.1-1.698-2.836-3.088-3.857-3.089-1.234-.002-1.665-.503-1.285-1.493.391-1.021-.283-1.701-2.143-2.161-1.493-.37-3.303-1.5-4.022-2.511-1.856-2.611-3.499-2.283-5.494 1.095m200.173 16.603c-.338 7.869-1.06 9.676-3.062 7.674-.874-.874-.817-1.831.235-3.933a582.113 582.113 0 001.756-3.527c.882-1.809-2.453-.536-3.661 1.397-1.058 1.694-1.518 1.86-2.183.784-1.022-1.654-2.957 2.762-2.957 6.749 0 2.517.075 2.541 5.657 1.844 8.509-1.063 8.643-1.168 8.067-6.277-.635-5.641-3.653-9.331-3.852-4.711m73.486 4.926c-1.152.807-2.267 1.304-2.477 1.104-.209-.201-.961.265-1.67 1.035-.745.808-.851 1.399-.25 1.399 2.327 0 .743 2.649-2.945 4.924-2.753 1.698-3.869 3.046-3.723 4.5.175 1.759-.387 2.099-3.683 2.229-2.139.084-5.176.41-6.75.725-3.384.677-3.727-.558-.712-2.561 1.182-.784 1.953-2.014 1.713-2.733-.438-1.316-1.901-.067-6.933 5.916-2.015 2.396-2.507 2.487-11.809 2.199-5.339-.166-11.546.111-13.793.616-3.216.723-5.378.495-10.154-1.071-5.599-1.836-6.195-1.864-7.692-.367-2.072 2.072-7.304 2.092-9.575.037-1.61-1.457-2.001-1.403-4.788.658-2.77 2.048-2.985 2.614-2.455 6.477.539 3.935.281 4.558-3.668 8.842-2.337 2.535-4.811 4.609-5.499 4.609-.688 0-1.81.675-2.495 1.5-1.691 2.038-5.671 1.894-6.92-.25-.65-1.115-1.03-1.268-1.05-.421-.021.939-.868 1.146-2.883.703-2.849-.625-2.853-.619-3.5 5.568-1.093 10.463-.839 14.9.853 14.9.825 0 1.5-.477 1.5-1.059s.453-.779 1.007-.437c.554.342 2.311-.306 3.904-1.441 2.179-1.551 4.437-2.063 9.102-2.063 5.93 0 6.18.099 5.654 2.25-.63 2.582 1.227 5.512 4.545 7.172 1.706.853 2.288 2.002 2.288 4.518 0 1.908.576 3.57 1.326 3.826 1.036.353 1.219-.828.837-5.407-.643-7.717-1.255-9.021-4.821-10.264-4.026-1.404-3.566-4.595.662-4.595 2.185 0 3.046-.524 3.287-2 .671-4.115 1.2-4.909 2.442-3.667 1.813 1.813 4.565 1.377 5.267-.833.739-2.328 2.042-2.459 5.484-.554 1.631.902 3.064 1.063 4.176.468.931-.498 3.413-.929 5.516-.958 2.103-.029 4.949-.121 6.324-.205 1.375-.084 3.512.193 4.75.616 1.703.581 2.25.387 2.25-.8 0-.862.675-1.567 1.5-1.567s1.5-.4 1.5-.889c0-.488 1.599-1.188 3.553-1.555 1.953-.366 3.783-1.267 4.064-2.001.289-.753 1.354-1.114 2.448-.828 1.064.279 1.935.004 1.935-.61 0-.615.563-1.005 1.25-.867.755.151 1.156-.641 1.012-2-.253-2.389 1.227-3.102 2.076-1 .277.688.554.35.615-.75.106-1.914.17-1.922 1.49-.18 1.334 1.759 1.414 1.759 2.438 0 .95-1.634 1.064-1.565 1.111.68.05 2.348.154 2.297 1.699-.839.904-1.836 2.706-3.741 4.002-4.235 1.297-.493 2.609-1.549 2.915-2.348.754-1.962 3.032-.945 3.899 1.741.679 2.099.723 2.106 1.183.181.263-1.1 1.157-2.529 1.985-3.177.994-.776 1.268-1.926.806-3.381-.659-2.077-.483-2.165 3.008-1.51 2.039.383 3.478.324 3.198-.129-.28-.454.094-1.651.832-2.66 1.215-1.662 1.785-.927 6.013 7.764 3.883 7.983 8.212 14.555 6.262 9.507-1.913-4.95-6.843-15.621-10.508-22.742-3.893-7.565-6.245-14.431-2.714-7.922.821 1.513 1.711 2.75 1.979 2.75s.23-1.237-.084-2.75l-.571-2.75 1.63 2.838c2.326 4.05 2.984 2.563.773-1.747-1.732-3.375-1.975-3.506-3.941-2.129M50.671 649.75c-3.074 3.712-9.567 11.698-14.428 17.745-8.568 10.657-8.991 11.02-13.791 11.842-7.715 1.321-9.98 1.301-9.702-.087.308-1.538-5.342-1.719-6.28-.201-.443.716-1.094.678-2.059-.123-2.016-1.673-4.721.627-3.475 2.955.544 1.015.499 2.377-.112 3.47-1.437 2.566-1.848 2.493 15.905 2.836l16.189.313 6.291-6.232c3.46-3.428 7.866-8.241 9.791-10.696 1.925-2.455 4.732-4.99 6.237-5.634 1.506-.643 2.509-1.54 2.229-1.993-.279-.452.106-1.187.856-1.634.75-.446 2.156-2.042 3.126-3.546 1.748-2.712 1.74-2.743-.908-3.75-1.469-.558-3.541-1.015-4.605-1.015-2.401 0-2.399-.191.061-4.226 2.075-3.403 2.639-6.774 1.134-6.774-.478 0-3.385 3.038-6.459 6.75M439 663.567c0 .312 1.638 2.112 3.64 4 3.042 2.869 4.397 3.439 8.25 3.468 2.535.019 7.522.659 11.081 1.422 3.56.763 6.822 1.171 7.25.906 1.495-.923.762-2.329-1.471-2.823-10.674-2.361-20.155-4.772-23.723-6.03-4.802-1.695-5.027-1.737-5.027-.943m-213.536 49.492c-.375.607-1.893.786-3.559.42-2.998-.658-4.118.842-1.405 1.883.825.316 1.5 1.706 1.5 3.088 0 2.977-4.167 4.551-7.137 2.696-4.727-2.952-8.201.884-4.761 5.257 3.048 3.875 2.054 4.877-5.297 5.337-5.515.345-6.806.115-7.945-1.414-.748-1.004-1.922-1.871-2.61-1.926-3.648-.292-4.25-.475-4.25-1.292 0-.49 1.095-1.166 2.433-1.502 1.339-.336 2.719-1.51 3.068-2.608.762-2.402 1.673-2.477 5.578-.457 3.497 1.808 4.921 1.232 4.921-1.992 0-1.647-.727-2.515-2.475-2.953-2.562-.643-10.525 1.337-10.525 2.617 0 .399-2.475 2.309-5.5 4.244-8.921 5.707-7.722 7.139 10.946 13.07 8.16 2.593 12.069 3.428 12.334 2.634.452-1.358 4.848-1.572 5.65-.274.301.487-.122 1.442-.941 2.122-4.161 3.453 3.685 6.991 15.503 6.991h8.617l.235-3.991c.318-5.384-1.109-7.649-5.317-8.438-3.651-.685-4.83-3.134-2.027-4.209.825-.317 1.5-1.217 1.5-2 0-.784-.675-1.684-1.5-2-1.931-.741-1.904-2.258.078-4.449 1.396-1.542 1.41-2.014.119-4.078-.802-1.284-1.746-3.572-2.097-5.085-.653-2.813-3.802-3.85-5.136-1.691m246.203 11.608c-.367.366-.667 1.442-.667 2.391 0 1.686-6.273 4.942-9.52 4.942-.824 0-1.48.906-1.48 2.042 0 1.519 1.568 2.785 6.116 4.935 5.798 2.742 6.835 2.896 20 2.961l13.884.068v-6.984c0-8.49-.135-8.558-15.65-7.766-9.89.505-10.387.436-9.816-1.362.592-1.867-1.383-2.712-2.867-1.227M52 732.576c-4.69 3.321-19.979 8.127-31.848 10.012-5.309.843-11.227 1.909-13.152 2.369l-3.5.836 4.651.104c5.867.13 26.144-3.305 34.896-5.911 7.482-2.228 13.276-5.709 13.769-8.271.442-2.292-.635-2.099-4.816.861" fill="#d3d3d3" fill-rule="evenodd"/></svg>