<svg xmlns="http://www.w3.org/2000/svg" width="500" height="500"><path d="M52.051 22.936c-3.878 4.896-3.818 4.048-7.592 107.564-3.647 100.023-5.561 150.126-5.94 155.5-.252 3.575-.722 14.6-1.045 24.5-.542 16.606-1.721 38.876-2.965 56-.28 3.85-.703 11.725-.94 17.5s-.944 15.856-1.571 22.402c-.626 6.546-.873 12.959-.549 14.25.341 1.361.142 2.348-.474 2.348-.584 0-.968.563-.852 1.25.116.688-.096 2.825-.472 4.75-.376 1.925-.814 4.501-.975 5.724-.16 1.224-.603 2.536-.984 2.917-.38.381-.692 2.431-.692 4.557 0 2.462-.529 4.068-1.457 4.424-.995.382-1.282 1.434-.905 3.319.528 2.641.346 2.789-4.182 3.41-2.604.357-7.26.694-10.346.749-3.085.055-6.735.416-8.11.802-1.375.387 4.363.511 12.75.277 9.855-.276 15.25-.07 15.25.581 0 1.974 5.875 2.09 34.5.686 142.145-6.975 164.667-8.042 200.5-9.496 14.575-.592 30.212-1.544 34.75-2.116 9.519-1.201 8.78.409 7.276-15.834-.534-5.775-3.012-35.7-5.505-66.5-9.3-114.861-19.668-235.021-20.333-235.654-.378-.36-10.138-5.148-21.688-10.64-11.55-5.492-40.125-19.313-63.5-30.713C116.218 46.581 58.315 19 56.404 19c-.68 0-2.639 1.771-4.353 3.936m342.168 196.619c-1.869 1.313-2.169 2.196-1.661 4.902.404 2.152.058 4.385-.995 6.422-.888 1.716-1.19 3.121-.672 3.121.518 0 1.206-.562 1.527-1.25.681-1.455-.291 5.755-1.038 7.702-.554 1.443 6.943 5.538 10.186 5.563 1.064.009 2.609.452 3.434.985 1.208.781 1.054.972-.794.985-1.262.008-5.251.758-8.864 1.665-5.842 1.468-6.722 2.014-7.944 4.94-.756 1.81-2.922 4.471-4.813 5.913-3.178 2.424-3.358 2.849-2.391 5.625l1.047 3.003 9.13-.815c5.021-.449 20.036-.816 33.368-.816 23.773 0 24.227-.038 23.635-2-.981-3.247-.938-3.727.376-4.208 1.202-.441 1.718 1.327 1.431 4.898-.143 1.773.917 2.278 7.069 3.368l3.75.665V258h-9.759c-8.603 0-9.905-.232-10.981-1.956-.672-1.075-3.592-2.659-6.49-3.52-4.928-1.463-5.356-1.45-6.638.206-1.24 1.603-1.312 1.522-.762-.857.677-2.932-1.446-3.793-9.745-3.952-2.269-.043-3.45-.333-2.625-.643 9.541-3.585 9.149-7.483-1.53-15.242-5.801-4.215-9.081-7.368-10.252-9.854-1.982-4.21-3.781-4.885-6.999-2.627m1.281 51.033c-1.65.226-7.275.893-12.5 1.481-29.508 3.325-47.842 10.946-41.526 17.262 1.16 1.16 1.2 1.58.186 1.969-.944.362-1.124 1.986-.673 6.08.353 3.205.212 5.72-.33 5.901-.557.186-.475 1.19.2 2.451 1.509 2.82 1.471 8.268-.057 8.268-.933 0-.933.267 0 1.2.66.66 1.2 3.135 1.2 5.5 0 2.678-.453 4.3-1.2 4.3-.933 0-.933.267 0 1.2.66.66 1.2 3.065 1.2 5.345 0 4.385 1.652 6.655 5.75 7.904 1.238.377 2.25 1.091 2.25 1.587s.563.764 1.25.597c.688-.168.992-.143.677.055-.315.199-.426 1.587-.246 3.086.181 1.499 1.248 18.251 2.371 37.226 2.053 34.66 2.503 39.004 4.148 40.088.491.323 1.027 3.52 1.191 7.106.328 7.167 2.648 11.666 6.109 11.849 1.1.058 2.914.279 4.031.492 1.57.298 2.422-.515 3.75-3.582 3.379-7.799.622-13.219-7.203-14.161-1.332-.161-2.627-.917-2.879-1.681-.262-.794-.006-1.11.598-.737 1.879 1.162 2.33-8.885 2.012-44.871l-.309-34.997-4 .197c-3.359.166-3.6.061-1.5-.653 2.124-.723 2.2-.872.5-.994-3.098-.223 5.128-2.875 10.96-3.534 14.437-1.632 17.774-1.524 17.228.561-.566 2.166 5.853 80.074 6.894 83.667.358 1.238 1.075 2.25 1.594 2.25.518 0 .659.457.314 1.016-.346.559-1.073.742-1.616.406-3.432-2.121-8.874 3.416-8.874 9.028 0 2.086-.5 2.572-2.75 2.668l-2.75.119 2.672.631c1.47.348 3.64 1.87 4.823 3.382 2.889 3.695 8.023 3.813 10.826.25 2.149-2.732 4.217-2.988 15.005-1.86 3.366.351 5.88 1.026 5.588 1.5-.293.473.62.86 2.027.86s2.559-.451 2.559-1.003c0-1.622 38.113-.067 40.079 1.636 1.831 1.586 7.514 1.834 8.421.367.34-.55 5.654-1.096 11.809-1.212l11.191-.213-10.545-.319-10.546-.32.371-3.218c.535-4.638-1.231-8.383-4.83-10.244-4.184-2.163-4.923-1.099-1.627 2.341 4.376 4.568 3.164 13.458-1.446 10.609-.84-.519-.515-1.014 1.044-1.59 2.23-.825 2.204-.908-1.829-5.724-4.083-4.876-5.209-8.096-2.842-8.125.833-.011.75-.339-.25-.985-1.198-.774-1.018-.972.895-.985l2.395-.015-.655-14.25c-.361-7.837-1.121-25.703-1.69-39.702-.59-14.49-1.482-25.991-2.073-26.702-1.386-1.671-.201-5.099 2.208-6.389 2.705-1.447.917-4.579-3.119-5.466-3.501-.768-2.473-3.395 1.411-3.607 1.689-.092 1.767-.21.379-.573-2.296-.6-2.458-1.608-3.766-23.311-.613-10.175-1.34-19.288-1.617-20.25-.344-1.196.073-1.772 1.315-1.82 1.631-.063 1.613-.158-.183-.93-1.843-.792-1.803-.87.5-.993l2.5-.134-2.5-1.041c-2.373-.989-2.399-1.081-.5-1.817 1.694-.657 1.464-.874-1.5-1.419a472.093 472.093 0 01-8.5-1.682c-4.999-1.037-48.334-2.101-54-1.326m68 7.45c-1.378.566-1.534.865-.5.962 1.049.098.916.369-.443.901-1.733.679-1.599.913 1.25 2.174 1.756.777 3.227 1.641 3.27 1.919.042.278.205 1.181.362 2.006.157.825.582 7.35.943 14.5s.925 15.813 1.254 19.25c.579 6.062.526 6.252-1.77 6.313l-2.366.064 2.5 1.041c2.307.962 2.352 1.097.579 1.76-1.816.679-1.788.813.5 2.425 2.328 1.64 2.434 1.626 2.748-.378.179-1.147-.271-2.822-1-3.722-.958-1.182-.979-1.428-.077-.886 1.568.942 1.575 1.234-.636-25.167-1.881-22.448-2.56-24.827-6.614-23.162m-57.802 56.661c-1.61.418-1.729 1.234-1.109 7.634.651 6.731 1.756 9.19 3.613 8.042.439-.271.798-1.565.798-2.875 0-3.048 1.602-4.041 3.484-2.159 1.291 1.291 1.91 1.243 5.129-.398 2.72-1.387 4.147-1.607 5.552-.855 1.991 1.066 1.625 2.912-.577 2.912-.927 0-1.194 1.348-.94 4.75.435 5.832 2.352 58.533 2.352 64.667 0 3.358-.408 4.515-1.679 4.76-1.57.302-1.57.431-.003 1.998 2.327 2.327 3.682 6.278 3.682 10.736v3.782l12.157.653c21.879 1.177 24.147 1.023 23.526-1.596-.294-1.238-.845-4.837-1.224-8-.379-3.163-1.07-5.75-1.536-5.75-.465 0-1.276-1.687-1.802-3.75-1.58-6.2-9.304-77.383-8.671-79.909.526-2.095 1.189-2.353 6.319-2.456 5.153-.104 4.722-.25-4.269-1.445-9.387-1.248-40.841-1.768-44.802-.741m.566 19.132c-.933.581-1.301 8.975-1.5 34.21l-.264 33.44-3 .641c-2.728.583-2.773.654-.5.775 1.375.073 2.046.464 1.491.868-2.422 1.763-6.598 9.509-5.971 11.074.581 1.451.858 1.377 2.195-.589 1.974-2.905 3.285-2.864 3.285.101 0 2.242.407 2.381 8.701 2.966 4.786.338 8.81.506 8.942.373.132-.132-.873-4.504-2.234-9.715-1.502-5.749-3.65-20.092-5.465-36.475-4.317-38.984-4.253-38.557-5.68-37.669" fill="#d3d3d3" fill-rule="evenodd"/></svg>