<svg xmlns="http://www.w3.org/2000/svg" width="500" height="503"><path d="M66.473 2.25c.282 1.238.963 4.37 1.515 6.962 1.244 5.844 3.634 10.124 8.522 15.263 2.079 2.186 4.363 5.336 5.076 7 1.413 3.3 5.951 8.525 7.405 8.525.5 0 1.33-.751 1.843-1.668.772-1.379 1.053-1.122 1.627 1.489.961 4.376 2.173 4.75 2.952.913.526-2.588.25-3.508-1.378-4.606C92.916 35.373 92 34.336 92 33.823c0-.513-.944-3.046-2.098-5.628-5.089-11.393-6.189-13.784-6.99-15.195C80.838 9.344 78 2.626 78 1.373 78 .616 76.991 0 75.75.001c-2.505 0-3.49 4.391-1.519 6.773.58.701.805 1.523.502 1.827-.304.304.344 2.58 1.441 5.059 1.096 2.478 1.786 4.713 1.534 4.966-.57.57-3.352-4.178-7.243-12.363-2.969-6.245-4.952-8.239-3.992-4.013m316.194 15.417c-1.185 1.184-.619 9.745.849 12.833 1.397 2.942 1.414 2.903.838-2-.397-3.377-.258-4.675.427-4 1.506 1.485 5.219 8.776 5.219 10.249 0 .703.423 2.06.94 3.015.516.955 1.189 2.932 1.495 4.393.437 2.084.998 2.542 2.603 2.123 1.81-.474 1.969-1.047 1.38-4.98-.586-3.903-.451-4.406 1.104-4.122 2.853.519 2.706-1.427-.488-6.464C394.343 24.472 391 22.414 391 25c0 1.931-1.517.957-3.25-2.087-.962-1.691-1.75-3.714-1.75-4.494 0-1.457-2.144-1.941-3.333-.752M0 70.452c0 1.951.337 3.436.75 3.298.413-.138.75.088.75.502 0 .413 1.97 1.726 4.379 2.918 2.889 1.43 5.353 3.724 7.244 6.748 1.577 2.52 3.656 5.659 4.622 6.975 1.579 2.153 3.14 6.941 7.82 23.986.855 3.115 1.206 6.823.834 8.806-.494 2.637-.183 3.933 1.352 5.621 1.097 1.207 2.259 3.319 2.582 4.694 4.501 19.121 6.385 19.879 5.597 2.252-.313-7.014-.915-13.518-1.338-14.454-.423-.936-.394-2.286.066-3 .459-.714 1.311-3.627 1.893-6.474l1.058-5.176-3.689-2.073c-4.344-2.441-6.026-4.797-8.264-11.576-.908-2.751-2.89-6.17-4.404-7.599-2.641-2.493-4.433-5.406-5.63-9.15-.334-1.044-1.557-1.75-3.032-1.75-1.359 0-2.746-.444-3.082-.987-.336-.543-2.612-2.365-5.059-4.048L0 66.904v3.548M47.341 96.5c.324 1.1.717 4.137.874 6.749.157 2.612.675 4.75 1.152 4.75.476.001.651 1.126.388 2.501s-.062 2.5.447 2.5c.508 0 .803.787.656 1.75-.147.963.309 2.798 1.014 4.078.705 1.281 1.036 2.968.736 3.75-.319.832.065 1.422.923 1.422.808 0 1.469.873 1.469 1.941s.482 2.239 1.07 2.602c.589.364 1.46 1.628 1.937 2.809.76 1.886.874 1.755.93-1.065.079-4.004-3.596-19.74-5.565-23.831-.806-1.675-1.548-3.925-1.65-5-.101-1.076-1.261-3.081-2.576-4.456-2.081-2.175-2.316-2.24-1.805-.5M488 96.285c0 .442 3.708 10.862 5.059 14.215.664 1.65 1.309 7.05 1.431 12 .222 8.94 1.048 14.053 2.591 16.034.442.568.387 1.693-.123 2.5-1.112 1.758-1.269 10.326-.208 11.371.413.406 1.271 2.169 1.907 3.917.935 2.569 1.172-1.42 1.236-20.822.079-23.709.049-24.067-2.473-29.5-2.787-6.007-6.02-10-8.094-10-.729 0-1.326.128-1.326.285m-61.355 165.48c-.787 1.274.192 15.859 1.325 19.735.482 1.65 2.117 8.625 3.633 15.5 2.96 13.422 4.943 18.833 3.849 10.5-.362-2.75-.824-7.619-1.027-10.82-.203-3.201-.796-7.364-1.317-9.25-.521-1.887-.774-3.43-.563-3.43.211 0-.527-2.125-1.64-4.722-1.183-2.76-2.058-7.089-2.105-10.418-.082-5.79-1.031-8.914-2.155-7.095m-309.289 13.937c-.629.217-.896 1.343-.592 2.502.376 1.438.183 1.881-.606 1.393-.637-.393-1.158-.265-1.158.285s.39 1.241.867 1.536c.852.526 1.96 6.582 2.502 13.672.152 1.991 1.665 5.652 3.396 8.217 3.377 5.004 5.441 10.992 4.571 13.259-.299.78.15 1.683.997 2.008.847.325 1.299 1.221 1.004 1.99-.415 1.08-.999 1.152-2.564.314-3.061-1.638-4.244.992-1.675 3.726 1.393 1.483 1.817 2.885 1.389 4.591-.575 2.292-1.008 2.441-6.537 2.25-3.256-.113-5.758.078-5.56.425.198.346-.037 1.53-.523 2.63-.691 1.567-.808 1.286-.541-1.294.187-1.812-.034-3.526-.493-3.809-.458-.283-.833.397-.833 1.513 0 1.344-.48 1.843-1.425 1.48-1.101-.422-1.314.157-.938 2.544.4 2.537-.062 3.553-2.575 5.667-1.857 1.563-3.062 3.526-3.062 4.988 0 1.326-.45 2.467-1 2.536-.55.069-1.787.176-2.75.237-2.187.141-7.25 4.521-7.25 6.272 0 .717-.636 1.059-1.413.761-.83-.319-1.606.209-1.884 1.282-.35 1.356-.501 1.197-.587-.618-.112-2.365-.162-2.38-1.584-.5-1.412 1.866-1.47 1.868-1.5.069-.026-1.526-.302-1.649-1.488-.664-.801.664-1.976.887-2.612.494-.636-.393-1.555-.094-2.044.664-.723 1.122-1.045 1.136-1.73.075-.463-.716-1.25-1.23-1.75-1.142-2.554.453-5.242-1.476-5.776-4.144-.32-1.601-1.013-2.911-1.54-2.911-1.819 0-2.075 3.563-.757 10.519.755 3.98.996 8.194.561 9.803-.419 1.552-.338 5.451.179 8.664.936 5.809.025 11.014-1.928 11.014-1.575 0-3.397-2.919-3.397-5.443 0-1.843-.518-2.417-2.125-2.355-4.333.165-4.625-.132-4.625-4.702 0-4.84-.523-5.135-8-4.513-3.349.278-3.421.441-1.494 3.382.917 1.399 1.376 3.013 1.021 3.587-.356.577.164 1.051 1.164 1.059 1.233.011 1.423.261.595.787-.816.519.086 1.574 2.76 3.226 2.185 1.351 4.19 3.134 4.455 3.964.265.829 3.634 4.785 7.486 8.79 3.853 4.005 7.916 9.067 9.029 11.25C74.13 409.214 75.482 411 76.02 411c1.324 0 1.241 3.644-.143 6.229l-1.122 2.098-1.809-2.399c-2.343-3.106-3.169-2.193-1.929 2.132 1.585 5.528 1.295 8.997-.691 8.235-1.29-.495-1.519-.24-1 1.113.371.966.674 2.605.674 3.642 0 1.267.493 1.698 1.5 1.312.825-.317 1.5-.051 1.5.59s.424.904.943.583c1.16-.716 5.309 8.367 4.63 10.136-.27.702.279 1.724 1.219 2.272.973.568 1.171 1.009.458 1.027-1.486.036-1.685 3.643-.25 4.53.57.352 1-.514 1-2.014v-2.631l2.635 2.072c3.699 2.91 5.743 2.734 4.973-.427l-1.216-5c-.67-2.752 1.259-3.574 2.261-.963.324.845 1.878 2.203 3.453 3.018 1.629.842 2.802 2.228 2.721 3.213C95.557 453.025 96 455 97 455c.55 0 1-.627 1-1.393s.725-1.671 1.611-2.011c1.124-.431 1.446-.186 1.063.81-.301.786.136 1.691.971 2.011 2.461.945 7.355.667 7.355-.417 0-.55-.562-1.007-1.25-1.015-.793-.01-.877-.284-.23-.75.562-.404 1.573-1.991 2.248-3.527 1.022-2.325 1.462-2.576 2.631-1.5 1.158 1.065 1.168 1.347.058 1.605-.74.172-1.098.959-.795 1.75.726 1.891 2.338 1.848 2.338-.063 0-.825.48-1.5 1.067-1.5.607 0 .798-.85.444-1.967-1.01-3.181 3.471-3.656 9.365-.992 3.816 1.725 5.454 3.212 7.135 6.48 1.874 3.643 2.722 4.314 6.015 4.756 2.108.282 5.381 1.694 7.273 3.137 2.316 1.767 4.054 2.397 5.32 1.929 2.085-.769 6.381-4.985 6.381-6.262 0-.965 7.193-.698 8.855.33.803.496.848 1.276.148 2.584-1.724 3.221-.454 4.245 2.176 1.753.726-.689 3.009-2.142 5.071-3.228 2.063-1.086 3.75-2.547 3.75-3.247 0-.7.364-1.273.808-1.273.445 0 2.132-1.801 3.75-4.002 2.876-3.912 3.062-3.994 8.246-3.646 2.917.196 5.771.823 6.343 1.395 1.255 1.255-.546 5.101-3.306 7.06-1.012.718-1.841 2.149-1.841 3.178 0 1.03-.72 2.592-1.601 3.473-.88.88-1.961 4.4-2.401 7.821-1.312 10.181-.092 9.373-17.498 11.585-4.121.524-5 .987-5 2.636 0 1.685.702 2.017 4.452 2.106 2.498.06 4.629.636 4.854 1.311.286.86.916.739 2.198-.421 2.461-2.226 3.429-.447 3.103 5.701l-.255 4.803h9.934c8.966 0 10.297-.246 13.643-2.517 3.385-2.296 6.368-2.581 5.071-.483-.293.474-.075 1.144.484 1.49.559.345 1.016 1.466 1.016 2.49 0 2.455 4.285 3.397 14.25 3.131 4.969-.132 7.75.178 7.75.865 0 .718-4.281.992-13 .834-7.15-.13-13-.625-13-1.1 0-.475-1.463-.783-3.25-.685-4.661.255-5.625-.104-2.75-1.025 1.908-.611 1.138-.824-3.25-.9-3.233-.056-5.75.338-5.75.9 0 .571-3 1-7 1-4.168 0-7 .42-7 1.037 0 .674-4.933.991-14.071.905-7.739-.073-14.34.136-14.67.465-.329.329 79.016.485 176.322.346L500.5 502.5v-77c0-124.591.129-121.959-5.73-116.5-1.181 1.1-3.161 2-4.4 2-1.238 0-2.53.45-2.87 1-.34.55.309 1 1.441 1 1.132 0 2.059.395 2.059.878 0 1.09-3.105 3.74-3.865 3.298-.306-.178-.799.272-1.096 1-.296.728-1.214 1.324-2.039 1.324-.825 0-1.638.97-1.807 2.156-.187 1.312-1.263 2.396-2.75 2.769-1.344.337-2.443 1.31-2.443 2.161 0 1.094.588 1.362 2 .914 1.147-.364 2-.18 2 .433 0 .587.436 1.067.969 1.067.532 0 .709-.675.393-1.5-.452-1.177.254-1.491 3.281-1.458l3.857.042-3.416 1.819c-2.332 1.243-2.966 1.997-2 2.379.858.34.506.591-.893.639-1.27.043-2.073.461-1.784.928.509.824-1.922 2.326-5.8 3.584-1.041.338-1.627.881-1.301 1.206.325.326 1.927.127 3.558-.442 5.142-1.792 4.859-.34-1.114 5.727-1.513 1.536-2.757 3.419-2.765 4.184-.013 1.117-.207 1.095-.985-.108-.555-.859-.976-1.001-.985-.333-.008.642-2.153 1.978-4.765 2.967-2.613.99-5.622 2.603-6.689 3.583-1.066.981-2.241 1.783-2.611 1.783-.37 0-.468 1.07-.218 2.378.413 2.162.712 2.281 3.29 1.308 2.584-.976 2.686-1.192 1.156-2.446-1.494-1.225-1.376-1.312 1.072-.789 2.003.428 2.75.194 2.75-.859 0-.795 1.256-2.072 2.792-2.838 2.905-1.449 5.636-1.255 4.655.331-.311.503.524.915 1.855.915 3.526 0 2.475 3.929-1.842 6.887-1.864 1.278-3.293 2.838-3.175 3.468.118.63-.381 1.021-1.109.87-.793-.164-1.032.199-.596.905.455.736.299.913-.417.471-1.127-.697-6.07 2.218-6.132 3.615-.04.923 11.264-3.32 12.107-4.545.351-.51 1.139-.618 1.75-.24.612.378 1.112.155 1.112-.494 0-.881.382-.865 1.5.063 2.051 1.702 1.882 2.744-.572 3.523-1.16.368-1.851 1.235-1.57 1.969.281.73-.352 1.535-1.427 1.816-1.062.278-1.931.027-1.931-.557 0-.583-.856-.286-1.902.66-1.046.947-2.576 1.579-3.401 1.405-.824-.174-2.832 1.357-4.463 3.402-1.631 2.045-3.24 3.443-3.576 3.107-.336-.336-.895.128-1.241 1.032-.79 2.056-3.417 2.166-3.417.143 0-.825.723-1.5 1.607-1.5 1 0 1.395-.553 1.045-1.463-.329-.859.516-2.31 2.046-3.514 3.019-2.375 2.509-3.543-1.147-2.625-1.398.351-2.7.517-2.893.37-.193-.147-1.075.333-1.961 1.068-2.72 2.258-3.893.367-3.532-5.698.305-5.126.158-5.607-1.611-5.299-1.674.291-1.762.117-.628-1.25 1.131-1.363 1.032-1.589-.697-1.589-1.108 0-2.273-.672-2.588-1.494-.696-1.813-4.709-1.558-6.239.397-.631.806-1.634 1.072-2.357.625-1.001-.619-.986-.946.069-1.599.731-.451 1.034-1.115.674-1.475-1.173-1.172-2.975.724-2.481 2.611.561 2.145-.567 2.697-4.369 2.139-1.887-.277-2.878-1.109-3.175-2.666-.551-2.882 2.671-5.252 4.772-3.509.757.629 1.895.823 2.528.432.837-.517.781-.95-.206-1.586-.927-.598-1.017-1.113-.284-1.625.59-.413 1.376-1.571 1.747-2.574.609-1.648.824-1.675 2.225-.274 1.154 1.154 1.292 2.035.538 3.443-1.622 3.031 1.72 4.342 5.681 2.228.955-.51 2.524-1.171 3.486-1.469.962-.298 1.75-1.043 1.75-1.656s-.563-.917-1.25-.676c-1.181.414-4.309-2.463-9.582-8.816-1.282-1.545-2.632-2.392-3-1.883-.895 1.241-4.215 1.17-3.909-.084.132-.544 1.029-.953 1.991-.91 2.153.098 2.188-.509.193-3.356-1.753-2.504-3.964-3.022-3.081-.723.739 1.928-.719 1.899-4.924-.096-1.851-.879-3.647-2.486-3.992-3.573-.358-1.129-1.209-1.752-1.985-1.454-.782.3-1.631-.336-2-1.5-.373-1.175-1.216-1.801-2.013-1.495-1.056.405-1.364-.672-1.341-4.678.017-2.862-.643-7.004-1.467-9.204l-1.499-4-.071 3.729c-.068 3.607-.151 3.691-2.57 2.589-1.375-.626-2.5-1.768-2.5-2.538 0-.769-.397-1.153-.881-.853-.485.299-2.53-.574-4.545-1.941-4.056-2.753-4.574-2.926-4.574-1.526 0 1.372 5.092 6.033 7.75 7.093 1.321.527 2.25 1.753 2.25 2.971 0 1.381 1.059 2.518 3.174 3.407 1.746.734 3.285 1.95 3.42 2.702 1.454 8.075 1.473 8.868.218 8.899-.935.022-.853.382.284 1.25.878.67 2.352 2.68 3.276 4.468 2.094 4.053 2.755 4.136 1.978.25-.33-1.65-.258-3 .16-3 1.513 0 5.49 5.151 5.49 7.111 0 1.104.403 1.758.895 1.454.493-.305 1.058 1.148 1.257 3.229.525 5.504.031 7.067-2.061 6.52-1.328-.348-2.33.592-3.8 3.562-1.778 3.595-1.821 4.081-.393 4.463 1.346.36 1.322.448-.148.545-.962.064-1.75.563-1.75 1.11 0 .796-3.74.761-4.75-.045-.137-.109-.587-.262-1-.339-.413-.077-1.312-.498-2-.934-1.591-1.011-1.57-.687.235 3.634 1.437 3.438 1.412 3.565-.75 3.876-1.632.234-2.173.916-2.004 2.529.167 1.589-.183 2.049-1.25 1.639-1.03-.395-1.527.149-1.633 1.789-.276 4.265-.366 4.709-1.111 5.453-.405.406-.737 1.562-.737 2.571 0 1.008-.675 1.833-1.5 1.833s-1.5.402-1.5.893.675 1.152 1.5 1.469c.825.316 1.5 1.319 1.5 2.229 0 1.357.27 1.43 1.5.409.825-.685 1.5-2.116 1.5-3.181 0-1.066.417-1.679.926-1.365.558.345.573 1.807.038 3.672-.489 1.705-.799 3.386-.689 3.737.359 1.142-2.494 7.137-3.396 7.137-.484 0-.879-.498-.879-1.107 0-.656-.714-.82-1.75-.403-.963.387-2.2.785-2.75.885-.55.1-1.562.533-2.25.962-.782.489-1.25.244-1.25-.653 0-.793 1.34-1.702 3-2.034 1.65-.33 3-1.077 3-1.66 0-.709-.593-.743-1.792-.102-.985.528-2.652.881-3.704.786-1.548-.141-2.137.872-3.096 5.326-.651 3.025-1.285 5.275-1.41 5-.688-1.522-.762-6-.099-6 .909 0 .725-5.71-.214-6.649-.35-.35-1.363-.034-2.25.703-1.397 1.159-1.567 1.079-1.274-.599.219-1.253-.46-2.291-1.925-2.939-1.245-.551-2.046-1.568-1.781-2.259.789-2.057-.534-4.257-2.562-4.257-1.041 0-1.893-.45-1.893-1s-.338-.947-.75-.882c-2.105.333-3.25-.281-3.25-1.74 0-1.136-.375-1.339-1.25-.677-3.091 2.338-7.075 1.024-4.55-1.501.687-.687.767-1.2.187-1.2-.557 0-2.291 1.334-3.853 2.964-1.562 1.631-3.211 2.736-3.663 2.456-.453-.28-2.039.128-3.524.906l-2.7 1.415 2.177 1.165c4.648 2.487-.365 5.917-7.574 5.181-2.563-.262-3.161 2.349-.75 3.275.825.316 1.5 1.025 1.5 1.574 0 .622-.85.678-2.25.148-1.378-.521-2.126-1.524-1.929-2.585.338-1.829.388-1.829-10.113.011-4.063.712-6.959-.692-6.091-2.954.274-.714-.203-1.567-1.06-1.896-2.211-.848-1.93-3.407.458-4.165 1.108-.351 1.776-1.024 1.485-1.495-.537-.869 2.763-2.349 5.5-2.466 4.088-.176 5.53-4.125 1.75-4.792-1.967-.348-1.765-.615 1.608-2.129 4.686-2.101 4.231-3.304-.501-1.326-1.848.772-4.106 1.294-5.018 1.16-.913-.134-1.867.551-2.121 1.523-.485 1.853-11.331 7.387-12.755 6.507-.454-.28-1.112-.045-1.463.523-.351.568-1.094.751-1.65.407-.602-.372-.878.321-.681 1.709.226 1.593-.225 2.445-1.419 2.683-.962.191-1.75-.135-1.75-.726 0-.59.337-1.073.75-1.072.413 0 .598-2.194.412-4.875-.292-4.217-.63-4.879-2.5-4.902-3.025-.035-7.662-1.972-7.662-3.199 0-.564-.502-1.025-1.117-1.025-.624 0-.886.882-.594 1.999.57 2.179-.76 3.667-1.789 2.001-.351-.568-1.061-.771-1.578-.452-2.006 1.24-5.028-.639-4.369-2.716.99-3.118-.437-9.348-1.823-7.962-1.284 1.284-2.789 1.503-2.612.38.392-2.478-.345-3.04-3.368-2.569-1.788.279-3.435.687-3.66.907-.226.219-1.044-.505-1.819-1.611-.774-1.106-1.818-1.757-2.319-1.447-.501.309-1.827.072-2.946-.527-1.604-.858-2.159-.767-2.618.428-1.051 2.739-3.507-.994-3.568-5.422-.051-3.664-.734-4.537-3.198-4.085-.483.089-.647-.719-.366-1.795.539-2.062-2.722-3.802-3.814-2.035-1.503 2.431-3.587.844-2.915-2.219.452-2.055.332-2.906-.348-2.486-.569.352-1.307-.218-1.64-1.267-.643-2.025-3.804-3.458-6.929-3.141-1.35.137-1.717-.261-1.282-1.394.782-2.036-1.105-2.044-5.162-.02-3.214 1.604-5.166 1.262-5.166-.904 0-1.893-3.791-4.681-5.483-4.031-.834.32-1.517.921-1.517 1.335 0 1.146-7.256 8.565-8.121 8.303-.416-.126-1.04.661-1.385 1.75-.346 1.089-1.048 1.98-1.561 1.98-.513 0-.933.675-.933 1.5s-.45 1.5-1 1.5-1 .627-1 1.393-.675 1.652-1.5 1.969c-1.054.404-1.5 2.048-1.5 5.523 0 2.722-.477 5.107-1.06 5.302-.584.194-1.102 1.821-1.153 3.615-.102 3.578-2.087 3.896-2.6.417-.366-2.478-3.421-3.747-5.807-2.412-1.099.615-2.529.478-4.231-.404-2.384-1.238-2.791-1.102-5.627 1.881-1.682 1.769-4.624 4.608-6.54 6.309-3.403 3.022-9.182 10.412-11.787 15.073-.717 1.284-2.067 2.341-3 2.349-1.332.012-1.405.2-.338.875 1.043.662 1.075 1.034.138 1.613-.68.421-1.604.145-2.091-.625-1.148-1.811-1.129-2.878.049-2.878.525 0 .208-1.3-.705-2.89-1.029-1.794-2.205-2.68-3.101-2.336-1.102.423-1.322-.076-.934-2.11.281-1.465.122-2.664-.352-2.664-.473 0-.861-1.18-.861-2.622 0-2.237.225-2.437 1.524-1.358 2.065 1.714 3.1.462 1.194-1.445-1.647-1.647-.9-7.793 1.204-9.897 1.887-1.887 1.262-4.678-1.047-4.678-1.828 0-2.041-.42-1.525-3 .537-2.687.342-3-1.875-3-1.488 0-2.475-.574-2.475-1.441 0-1.937-2.047-3.101-2.933-1.668-.462.748-1.152.318-1.985-1.238-1.175-2.195-9.149-6.653-11.902-6.653-.649 0-1.18-.398-1.18-.883 0-.74-2.51-1.946-5.167-2.482-1.354-.274-1.989-1.528-2.423-4.791-.391-2.935-1.52-9.432-1.884-10.844-.071-.275-.466-3.008-.877-6.073-.526-3.912-1.754-6.987-4.12-10.315-2.788-3.922-3.487-5.983-4.045-11.936-.719-7.681-5.081-18.68-7.128-17.974m375.723 21.926c-.096 2.58-2.587 4.977-3.551 3.417-.901-1.457-5.565-.202-8.227 2.213-1.217 1.104-2.892 1.729-3.75 1.4-.853-.327-1.551-.159-1.551.373 0 .533.45.969 1 .969s1 .627 1 1.393.725 1.671 1.611 2.011c1.153.443 1.447.189 1.032-.893-.355-.925-.011-1.511.888-1.511.808 0 1.469.81 1.469 1.8 0 1.253.759 1.8 2.5 1.8 1.375 0 2.5-.36 2.5-.8 0-.44 1.125-.8 2.5-.8s2.5-.45 2.5-1c0-1.596 3.977-5.132 5.036-4.477.53.327.964-.295.964-1.382 0-1.088.272-2.686.604-3.552.484-1.262-.005-1.503-2.462-1.217-1.686.196-3.272-.145-3.525-.758-.252-.613-.495-.157-.538 1.014m-126.77 15.883c-2.4 1.01-3.31 1.051-3.671.166-.264-.647-.516-.422-.559.5-.043.922.709 1.882 1.671 2.134 1.317.344 1.193.486-.5.573-1.238.064-2.306.566-2.375 1.116-.164 1.312-.417 2.182-1.164 4-2 4.869-1.49 5.496 4.539 5.585 3.163.046 5.75-.318 5.75-.809 0-.492.453-.614 1.008-.271 1.418.876 3.753-1.72 3.16-3.514-.403-1.22-.219-1.265 1.011-.25 1.743 1.438 2.821.708 2.821-1.908 0-1.184-.729-1.833-2.059-1.833-1.132 0-1.8-.419-1.484-.931.317-.512.118-1.213-.441-1.559-.559-.345-1.016-.247-1.016.218 0 .466-1.007.922-2.237 1.015-1.231.093-1.745-.149-1.142-.537.961-.619 1.1-3.821.204-4.713-.179-.178-1.761.28-3.516 1.018m-23.059 22.038c-2.706 2.6-2.828 3.446-.5 3.466 1.384.012 1.462.198.372.889-.758.48-1.106 1.313-.774 1.851.333.538-.274 1.773-1.348 2.745-1.074.972-1.666 2.27-1.316 2.884.35.614.27.784-.178.379-.448-.406-2.193 1.169-3.878 3.5-1.685 2.33-3.529 4.568-4.096 4.972-.667.474-.597.74.197.75.875.011.731.981-.498 3.368-1.433 2.784-1.91 3.101-2.812 1.868-.867-1.187-1.086-.864-1.086 1.603 0 1.763.421 2.828.981 2.482.612-.378.787 1.105.466 3.951-.282 2.506-.13 5.161.338 5.9.685 1.081.854 1.048.867-.172.008-.833.928-3.218 2.043-5.299 1.116-2.082 1.79-4.172 1.497-4.645-.93-1.505.623-4.041 2.475-4.041.982 0 2.045-.675 2.362-1.5.316-.825 1.264-1.5 2.107-1.5.842 0 1.531.675 1.531 1.5 0 2.178 1.749 1.838 3.05-.593.648-1.21.807-3.214.379-4.75-1.194-4.277-1.292-5.157-.577-5.157.372 0 .67-2.475.662-5.5-.008-3.025-.337-5.5-.733-5.5-.395 0-.459-.675-.143-1.5.317-.825 1.203-1.5 1.969-1.5 1.732 0 1.838-1.639.143-2.2-.687-.227-2.262.56-3.5 1.749M93.624 366.75c-.28.962-.812 3.887-1.181 6.5-.691 4.9-2.174 5.985-4.443 3.25-1.444-1.74-3.675-1.975-4.187-.44-.228.684-1.411.508-3.333-.496-2.738-1.429-3.083-1.416-4.251.16-1.083 1.461-.957 1.832.844 2.499 1.164.43 2.357 1.707 2.653 2.836.351 1.345 1.068 1.85 2.075 1.464.847-.325 1.906-.013 2.354.693.579.913.828.706.863-.716.046-1.909.134-1.897 1.943.271 1.17 1.404 2.145 1.866 2.551 1.21.361-.584 1.455-.809 2.431-.499 2.881.914 4.149-1.563 2.976-5.812-.561-2.033-.705-4.208-.319-4.832 1.057-1.71 1.357-7.838.384-7.838-.467 0-1.079.788-1.36 1.75M40.818 378.5c-.626 1.375-1.79 2.5-2.586 2.5-.874 0-1.219.593-.87 1.5.793 2.068-1.342 1.89-2.988-.25-1.151-1.496-1.255-.691-.714 5.533.55 6.329.396 7.456-1.182 8.61-1.649 1.206-1.698 1.776-.532 6.217 2.243 8.542 3.507 11.838 5.304 13.829.962 1.066 1.75 2.753 1.75 3.75 0 .996.498 1.811 1.107 1.811s.848.675.531 1.5c-.353.92.001 1.5.915 1.5.819 0 2.002 1.125 2.629 2.5.626 1.375 1.484 2.5 1.905 2.5.742 0 3.945 5.698 3.881 6.904-.017.328-.692-.278-1.5-1.345-1.485-1.963-1.958-.998-.883 1.802.447 1.164 1.156 1.308 3 .607 1.328-.505 2.415-.545 2.415-.089 0 .456 1.085 1.999 2.41 3.43 2.051 2.212 2.504 2.358 3.034.976.343-.894.215-1.886-.284-2.205-.5-.319-1.25-2.151-1.667-4.07-.694-3.197-4.954-10.048-6.743-10.843-1.384-.616-.767-4.329 1.117-6.725 1.027-1.306 2.216-2.052 2.641-1.658.425.394.484-.491.131-1.966-.512-2.137-.231-2.813 1.385-3.326 1.116-.354 1.964-1.172 1.884-1.818-.428-3.47.35-5.474 2.592-6.674 1.375-.736 2.5-1.858 2.5-2.495 0-.636-1.125-2.213-2.5-3.505-1.375-1.292-2.5-2.922-2.5-3.623 0-1.306-5.963-6.344-7.594-6.418-2.799-.125-7.635-5.91-7.013-8.387.823-3.283-.093-3.324-1.575-.072m253.065.097c-2.342 1.239-2.547 1.78-1.943 5.144.372 2.067.397 4.884.058 6.259-.588 2.378-.652 2.336-1.308-.875-.38-1.856-.69-4.898-.69-6.758 0-3.095-.165-3.281-1.934-2.176-1.063.664-1.851 1.66-1.75 2.213a1.018 1.018 0 01-.816 1.185c-2.63.473-5.5 1.72-5.5 2.389 0 .409-2.137 1.819-4.75 3.133s-5.11 2.952-5.55 3.639c-.44.688-1.452 1.25-2.25 1.25-1.763 0-1.868 1.182-.25 2.8.933.933.822 1.2-.5 1.2-1.704 0-2.272 2.959-1.99 10.359.077 2.026-.202 2.549-.958 1.793s-.709-3.624.16-9.836c.909-6.502.933-8.868.093-9.148-.624-.208-1.554-1.483-2.068-2.833-.513-1.35-1.364-2.189-1.891-1.863-.527.326-.705 1.253-.395 2.06.309.807.065 1.468-.544 1.468s-1.107.482-1.107 1.071c0 .59-.62 1.691-1.377 2.449-1.816 1.815-3.401 26.721-1.736 27.276.612.204 1.113 1.358 1.113 2.565 0 1.207.68 3.165 1.511 4.351.956 1.365 1.139 2.386.5 2.781-.556.344-1.011 1.118-1.011 1.721s.9.281 2-.714c1.791-1.621 2-1.638 2-.163 0 2.823 6.322 1.522 7.038-1.449l.575-2.388.639 2.399c.351 1.319.393 3.627.093 5.128-.301 1.503-.052 3.036.554 3.411.661.408 1.101-.119 1.101-1.32 0-1.1.415-2.257.923-2.571.508-.313.725-2.171.482-4.129-.28-2.259-.07-3.329.577-2.929.587.363 1.018-.429 1.018-1.871 0-1.375.45-2.778 1-3.118 1.255-.776 1.273-1.163-.44 9.25-1.871 11.364-2.817 30.973-1.534 31.766.536.331.988 1.588 1.006 2.793.027 1.878.206 1.977 1.25.691 1.337-1.646 7.817-2.057 8.892-.564 1.501 2.084 3.826-1.735 3.841-6.308.009-2.546.472-5.303 1.029-6.128.779-1.153.949-.831.735 1.395-.171 1.777.258 3.083 1.113 3.381 1.035.361 1.26-.199.881-2.184-.281-1.469.086-4.34.814-6.381.729-2.041 1.345-5.125 1.369-6.854.026-1.839.666-3.382 1.544-3.719 1.642-.63 2.201 2.811.616 3.791-1.255.775-3.466 13.215-2.704 15.203.575 1.497 2.066 1.167 2.103-.465.009-.367.323-1.149.698-1.737.376-.589.885-2.164 1.133-3.5 1.497-8.077 2.149-10.973 2.911-12.93.322-.825.832-2.175 1.134-3 .303-.825.276 2.721-.06 7.88-.503 7.751-.368 9.298.78 8.912.852-.287 1.479-2.173 1.622-4.88.381-7.207 1.389-11.768 2.872-12.999.767-.637 1.395-2.175 1.395-3.419 0-2.733 3.929-4.307 4.118-1.65.203 2.838 1.639-4.12 1.764-8.544.073-2.608-.401-4.504-1.252-5-.754-.44-1.317-1.925-1.25-3.3.072-1.513-.373-2.401-1.13-2.25-.687.137-1.25-.2-1.25-.75s-.9-1-2-1c-1.755 0-2-.667-2-5.435 0-2.989.384-6.477.854-7.75.469-1.273 1.181-3.665 1.581-5.315l.728-3-2.396 2.25c-1.318 1.238-2.929 2.25-3.581 2.25-.653 0-1.186.54-1.186 1.2 0 .881-.296.904-1.113.087-1.371-1.371-.159-3.605 1.592-2.933 1.558.597 3.521-1.212 3.521-3.245 0-1.111-.362-.996-1.418.448-.78 1.067-1.763 1.596-2.184 1.175-.42-.421-.232-1.298.419-1.949 1.934-1.934 1.382-2.405-2.317-1.973-2.988.349-3.5.111-3.5-1.627 0-1.12-.788-2.242-1.75-2.494-1.449-.378-1.399-.477.287-.573 1.276-.073 2.094-.864 2.188-2.116.083-1.1.066-1.952-.037-1.894-.103.058-1.366.729-2.805 1.491M410 390.345c0 1.29.788 3.058 1.75 3.929 1.179 1.067 1.844 3.401 2.038 7.155l.288 5.571h-4.098c-3.996 0-4.086.075-3.623 3.012.261 1.657-.226 4.796-1.083 6.976-1.232 3.137-1.303 4.27-.341 5.429 1.319 1.589 4.454 1.015 3.438-.63-.691-1.116 2.664-11.787 3.705-11.787.363 0 1.905 1.881 3.426 4.179 2.596 3.923 2.849 4.064 4.133 2.309.752-1.029 1.367-2.422 1.367-3.096 0-.674.563-1.454 1.25-1.733.963-.39.975-.702.053-1.359-.709-.505-.861-1.398-.373-2.187.454-.734.603-2.185.331-3.224-.273-1.045.021-1.889.658-1.889.633 0 2.275-.736 3.648-1.636 2.396-1.57 2.426-1.714.746-3.571-.964-1.064-1.765-2.797-1.782-3.851-.036-2.198-.464-2.335-4.519-1.445-2.279.501-3.725.061-6.327-1.924-4.151-3.166-4.685-3.192-4.685-.228m-238.75 10.618c-1.247 1.582-2.285 4.343-2.329 6.195-.043 1.838-.336 2.667-.65 1.842-.596-1.567-2.238-2.958-3.521-2.985-1.183-.024-.874 14.956.391 18.914.627 1.964 2.042 5.966 3.145 8.893 2.435 6.465 2.932 10.159 1.376 10.234-.639.031.413.61 2.338 1.287 3.938 1.384 5.28.402 4.957-3.625-.35-4.354.064-6.596 1.477-8.009 1.413-1.413 1.861-7.663 1.27-17.709-.21-3.568.207-4.975 2.016-6.795 2.888-2.908 3.007-4.665.215-3.17-5.185 2.775-8.547 1.545-4.946-1.81 1.993-1.857 1.996-1.936.155-4.059-2.408-2.777-3.155-2.676-5.894.797m-147.786 7.469c-1.394 3.336-3.464 5.6-3.464 3.788 0-.495-1.109-1.404-2.464-2.022-2.837-1.292-3.995-.22-3.033 2.811.916 2.887-.379 2.448-1.503-.509-.672-1.768-1.763-2.545-3.725-2.652-1.526-.084-3.45-.197-4.275-.252-.825-.054-1.5-.661-1.5-1.347 0-.687-.45-1.362-1-1.499-.654-.163-1.09 16.462-1.26 48L.981 503h12.926c9.43 0 13.05-.338 13.385-1.25.366-1 .723-1 1.783 0 .943.89 5.807 1.25 16.875 1.249H61.5l.144-2.5c.08-1.374-.258-2.499-.75-2.499S60 496.65 60 495c0-2.333-.444-3-2-3-1.236 0-2.002.668-2.005 1.75-.007 2.373-3.98 6.928-6.745 7.731-2.072.602-2.25.331-2.25-3.414 0-2.237-.45-4.067-1-4.067s-1 .352-1 .783c0 2.22-5.444.384-6.278-2.118-1.078-3.233-2.733-3.569-2.042-.415.36 1.641.232 1.881-.472.887-.816-1.151-1.044-1.151-1.468 0-.309.841-.931.214-1.621-1.637-.616-1.65-1.523-3.707-2.017-4.572-.493-.864-.664-3.638-.379-6.163.323-2.862-.109-6.603-1.145-9.928-3.351-10.758-1.653-15.487 1.806-5.032 1.037 3.132 2.242 6.595 2.677 7.695.436 1.1.964 2.64 1.173 3.422.209.782.959-1.693 1.666-5.5.953-5.132 1.003-7.65.193-9.737-.601-1.548-1.093-4.375-1.093-6.282 0-4.03-2.419-10.403-3.949-10.403-.578 0-1.051-1.387-1.051-3.083 0-3.616 1.892-3.532 3.654.163 3.03 6.356 3.821 8.254 3.873 9.294.03.619.628 3.082 1.329 5.473 1.218 4.16 1.353 4.274 3.141 2.656 1.071-.97 1.61-2.365 1.262-3.271-.441-1.148-.17-1.412.994-.965.881.338 2.068.052 2.638-.636 1.19-1.433.122-6.553-1.391-6.672-.55-.043-1.323-.951-1.718-2.019-.407-1.102-1.704-1.974-3-2.019-1.255-.043-1.719-.306-1.032-.583 2-.807 1.441-2.621-.639-2.077-2.659.695-4.377-.635-5.763-4.461-.658-1.815-1.23-2.737-1.272-2.05-.107 1.758-2.076 1.568-2.076-.2 0-.798-.724-1.856-1.609-2.351-1.48-.828-1.48-.951 0-1.519.885-.339 1.609-1.306 1.609-2.149 0-2.101-1.748-1.936-2.311.219-.275 1.053-.503.631-.573-1.059-.064-1.545-.519-2.56-1.012-2.255-.493.304-1.955-.329-3.25-1.408-1.881-1.567-2.019-1.968-.687-1.995.916-.018 1.893.53 2.171 1.217.318.789.533.645.583-.393.043-.904-.596-1.902-1.421-2.219-1.956-.75-1.938-2.638.025-2.638.838 0 1.952 1.125 2.475 2.5 1.138 2.994 3 3.304 3 .5 0-1.1.45-2 1-2s1 1.125 1 2.5.417 2.5.927 2.5c.509 0 1.167.788 1.461 1.75.294.962.294-.003 0-2.146-.293-2.143-1.205-4.922-2.027-6.175-.821-1.254-1.576-3.886-1.677-5.85-.101-1.963-.698-3.572-1.327-3.575-.629-.002-1.402-.679-1.719-1.504-.954-2.488-2.656-1.7-4.174 1.932m59.786 59.23c-.687.278-1.25 1.142-1.25 1.921 0 .78-.63 1.417-1.401 1.417-.777 0-1.837 1.669-2.382 3.75l-.981 3.75-.743-3.25c-.409-1.788-1.167-3.25-1.685-3.25-.523 0-.624 1.003-.228 2.25.394 1.238.77 2.925.837 3.75.066.825.727 2.581 1.468 3.902 1.173 2.091 1.151 2.326-.177 1.816-2.228-.855-3.091 3.164-3.657 17.032-.113 2.758-4.051 1.326-4.051-1.473v-2.722l-1.692 2.472c-.931 1.36-2.168 2.804-2.75 3.208-.582.404 16.454.741 37.859.75 21.404.008 38.659-.242 38.345-.556-.314-.314-7.001-.565-14.86-.558-16.537.015-19.294-.9-20.921-6.943-.535-1.987-1.847-4.62-2.915-5.852-1.067-1.231-1.724-2.804-1.458-3.497.266-.692-.218-1.84-1.074-2.551-.857-.711-2.444-3.298-3.529-5.749-2.557-5.782-5.999-5.057-3.591.756.442 1.069.011 1.583-1.418 1.69-1.661.125-2-.359-1.774-2.535.216-2.087-.114-2.624-1.472-2.396-1.427.239-1.75-.454-1.75-3.75 0-3.996-.303-4.369-2.75-3.382" fill="#d3d3d3" fill-rule="evenodd"/></svg>