<svg xmlns="http://www.w3.org/2000/svg" width="500" height="710"><path d="M3.666 4.577c.564 4.117.436 4.545-1.269 4.25C.538 8.507.495 15.485.249 358.31c-.168 233.345.082 349.604.75 349.191.55-.341 1.001-.18 1.001.357 0 .536-.563 1.202-1.25 1.48-.688.277 52.804.54 118.869.583l120.119.079.613-3.75c.511-3.122.24-4.035-1.619-5.453-2.2-1.678-2.236-1.653-2.542 1.75-.614 6.832-2.936 3.973-3.69-4.542-.423-4.788-1.099-7.753-1.684-7.391-.554.342-.745 2.967-.442 6.06.468 4.763.32 5.414-1.169 5.132-1.333-.253-1.814-1.739-2.205-6.815l-.5-6.491-1.334 3.771c-.81 2.289-1.077 5.294-.68 7.647.431 2.547.25 4.127-.527 4.607-1.478.914-2.924-1.261-2.944-4.43-.014-2.282-.11-2.319-1.877-.72-3.111 2.816-7.656 3.679-9.526 1.809-1.483-1.483-1.612-1.4-1.612 1.043 0 2.427-1.538 4.568-2.553 3.553-.231-.231-.538-2.075-.683-4.098-.145-2.023-.602-3.679-1.014-3.68-.412-.001-.75-1.561-.75-3.467 0-4.02-2.435-5.99-5.372-4.347-1.257.704-2.157.683-2.908-.068-1.375-1.375-.596-2.163 2.462-2.489 4.018-.428 4.557-1.288 4.059-6.471-.658-6.848 1.37-7.606 2.463-.921.737 4.51 1.141 5.2 2.828 4.831 7.567-1.654 10.092.597 3.286 2.93-4.142 1.42-4.341 1.661-3.706 4.5.633 2.829.712 2.872 1.394.758 1.169-3.624 12.494-5.61 12.494-2.191 0 .513.388.933.861.933.474 0 .647-1.125.384-2.5-.482-2.519.741-3.186 4.755-2.594.825.122 2.747.185 4.271.14 2.31-.068 2.873.422 3.375 2.936.729 3.645 1.239 3.709 4.842.613 3.262-2.803 2.919-5.776-.561-4.866-1.596.418-2.066.192-1.723-.827.26-.771 1.783-1.457 3.384-1.524 1.602-.067 3.719-.46 4.705-.873 2.863-1.2 3.131-.135 3.546 14.051l.393 13.444 37.634-.015c26.854-.011 37.204-.32 36.134-1.079-1.132-.802-.765-.897 1.5-.386 1.65.372 7.275.863 12.5 1.09 9.473.412 9.489.409 5.5-1.149-2.2-.859-4.675-1.729-5.5-1.935-.825-.205-1.725-.461-2-.568-.275-.107-.888-.125-1.363-.039-3.234.585-22.874-6.114-20.958-7.148.452-.244.259-.306-.429-.138-2.038.496-4.29-.753-3.584-1.988.36-.63.35-.875-.022-.546-.744.66-7.392-4.976-14.543-12.329-6.758-6.949-7.768-8.269-7.33-9.582.218-.654-.064-1.188-.625-1.188-1.142 0-4.364-3.296-9.775-10-2.5-3.097-4.25-4.397-5.611-4.169-1.186.199-1.719-.088-1.331-.717.357-.577-.269-1.622-1.39-2.322-1.122-.7-2.039-1.846-2.039-2.547 0-.701-1.348-2.094-2.996-3.097-1.648-1.002-2.675-2.144-2.281-2.538.394-.394-.17-.424-1.253-.069-1.306.429-1.549.343-.72-.256.981-.709.914-1.32-.313-2.844-1.16-1.441-1.702-1.605-2.102-.635-.359.869-1.355.199-2.978-2-3.566-4.834-8.056-4.868-7.432-.056.09.688-.307 1.25-.881 1.25-.574 0-1.044-.381-1.044-.847 0-.466-.9-1.885-2-3.153s-1.99-2.8-1.978-3.403c.012-.603.855-.014 1.873 1.309l1.85 2.407.588-3.907c1.441-9.559 1.475-12.071.205-14.906-2.085-4.652-3.973-13.612-3.725-17.679.124-2.024-.234-3.963-.794-4.309-.56-.347-1.026-.041-1.034.679-.012.964-.261.921-.948-.165-.587-.929-.563-1.701.066-2.09 1.641-1.014-3.684-20.34-8.198-29.754-2.259-4.709-4.295-9.714-4.526-11.122-.231-1.408-.663-3.76-.96-5.226-.298-1.466.023-3.57.713-4.674 1.243-1.991 1.294-1.987 5.811.499 5.634 3.1 7.551 5.446 9.67 11.841.911 2.75 4.03 11.3 6.931 19 2.901 7.7 6.007 16.925 6.901 20.5 2.711 10.839 10.642 29.893 12.715 30.551 1.611.511 2.525 4.108 1.958 7.699-.204 1.293 4.693.816 5.136-.5.329-.976.782-.951 2.072.113 1.671 1.379 1.324 3.657-.395 2.594-.512-.316-.931.078-.931.877 0 1.444 1.589 2.496 3.5 2.318.55-.051.871-.781.712-1.622-.164-.876.575-.461 1.728.97 1.109 1.375 2.026 3.089 2.038 3.809.012.72.425 1.06.917.756.493-.305 1.173.169 1.512 1.052.44 1.147.184 1.44-.896 1.026-3.966-1.522 1.019 4.802 5.138 6.517l2.851 1.187-3.347.577-3.347.576 3.097 2.28c1.703 1.254 3.097 3.115 3.097 4.135 0 1.02 1.012 2.53 2.25 3.355 1.238.825 3.331 2.451 4.653 3.615 1.322 1.163 3.009 2.115 3.75 2.115.741 0 1.347.45 1.347 1s.689 1 1.531 1c.843 0 1.775.634 2.073 1.41.494 1.288 4.9 3.131 6.612 2.765.394-.084 1.744.862 3 2.101 2.274 2.243 11.761 5.637 21.284 7.613 5.521 1.145 5.127 1.388 10.038-6.183 3.081-4.749 3.069-5.075-.159-4.265l-2.622.658.634-5.299c.349-2.915.875-9.688 1.169-15.05.511-9.332.446-9.75-1.513-9.75-2.148 0-2.753 1.445-1.047 2.5.55.34 1 1.097 1 1.681 0 .723-.433.705-1.351-.057-1.988-1.65-10.649-2.675-10.649-1.26 0 .625.648 1.136 1.441 1.136 2.714 0 2.402 1.562-1.169 5.861l-3.573 4.301-2.849-4.578c-3.556-5.712-3.572-5.584.709-5.584 2.118 0 3.309-.405 2.941-1-.34-.55-1.972-1-3.626-1-3.098 0-3.151-.236-1.236-5.5.2-.55-.697-2.323-1.995-3.941l-2.359-2.94-.721 4.811c-.461 3.073-1.068 4.465-1.681 3.852-.611-.611-.615-3.11-.012-6.871.569-3.547.584-6.291.039-6.861-.5-.523-.909-1.776-.909-2.785 0-1.564-.315-1.667-2.135-.693-1.944 1.04-2.086.931-1.578-1.214.306-1.297.871-6.302 1.254-11.123.384-4.821 1.136-9.035 1.671-9.366.619-.382.715 1.803.264 6.015-.756 7.053-.326 7.677 3.776 5.481 1.806-.967 2.454-.745 4.386 1.5 1.246 1.449 3.15 2.635 4.231 2.635 1.288 0 3.334 2.049 5.936 5.946 2.184 3.27 4.185 5.731 4.447 5.468.877-.877 3.908 4.728 3.347 6.189-.305.794.445 2.441 1.665 3.661l2.219 2.219.606-2.491c2.375-9.767 3.831-9.095 3.36 1.549-.25 5.656.074 9.625.959 11.75.734 1.765 1.956 5.234 2.714 7.709 1.438 4.697 3.466 5.319 3.258 1-.067-1.375-.87-6.1-1.786-10.5-1.104-5.3-1.441-9.814-.999-13.374l.666-5.374 5.12.615c2.815.339 5.991.62 7.056.624 1.784.008 1.741.226-.55 2.759-1.368 1.513-3.072 3.525-3.786 4.472-1.555 2.061-3.201 8.778-2.151 8.778.922 0 4.05-3.395 4.05-4.396 0-1.497 7.34-7.604 9.14-7.604 1.023 0 1.86-.45 1.86-1s-.408-1-.906-1c-.499 0-.669-.91-.378-2.023.501-1.915.602-1.929 1.875-.25.885 1.166 1.356 1.325 1.377.464.018-.72.436-1.059.929-.754.494.305.787-1.101.652-3.125-.23-3.449 2.074-9.292 3.67-9.306.395-.003.457-.686.138-1.517-.415-1.082-.121-1.336 1.032-.893.886.34 1.611 1.11 1.611 1.711 0 .779.32.773 1.113-.02 1.266-1.266.242-3.624-1.19-2.74-.516.319-1.683-.164-2.593-1.074-1.271-1.271-1.365-1.833-.406-2.426.687-.424 1.123-1.621.971-2.659-.452-3.068 4.878-18.388 6.397-18.388.454 0 .505-.52.113-1.155-.443-.715-.275-.883.44-.44.685.422 1.155.078 1.155-.846 0-.857.469-1.559 1.042-1.559 3.088 0 5.313-3.938 4.225-7.481-1.287-4.193-.554-11.385 1.389-13.624.766-.883 1.119-2.319.784-3.19-.378-.986.179-2.075 1.476-2.885 1.146-.716 2.084-1.868 2.084-2.561 0-.692.75-1.259 1.667-1.259.916 0 1.426-.24 1.133-.533-.293-.294.869-2.041 2.583-3.884 1.714-1.842 4.987-5.563 7.273-8.269l4.156-4.919-.819-7.448c-.566-5.144-.473-7.865.3-8.798 1.63-1.967 1.736-4.149.202-4.149-.731 0-1.478-.34-1.662-.755-.343-.776-12.807-6.959-18.57-9.212-1.781-.696-3.021-1.616-2.756-2.045.498-.806-7.275-1.887-8.044-1.118-.581.582 3.464 2.629 8.19 4.145 5.135 1.647 19.347 9.109 19.347 10.157 0 .458-1.681-.069-3.735-1.17-2.055-1.101-4.503-2.002-5.441-2.002-.938 0-2.015-.5-2.393-1.112-1.069-1.729-11.549-6.057-13.166-5.436-.795.305-2.867-.186-4.605-1.092a411.92 411.92 0 00-4.973-2.55c-.996-.498-2.651-.639-3.675-.314-1.049.333-2.224.011-2.688-.737-1.406-2.265-11.232-8.934-12.243-8.309-.527.326-1.357-.121-1.844-.992-.488-.871-1.528-1.679-2.312-1.796-2.737-.408-11.483-7.054-18.925-14.379-9.011-8.871-20.735-16.488-25.878-16.814-1.992-.126-5.295-.958-7.34-1.849s-3.937-1.62-4.206-1.62c-.268 0-2.77-1.346-5.56-2.991-2.79-1.644-5.417-2.882-5.838-2.75-1.565.492-9.193-3.821-9.743-5.509-.313-.963-1.022-1.75-1.574-1.75-1.684 0-4.282-3.117-3.2-3.841 1.421-.951 2.448-4.159 1.331-4.159-.52 0-.843-2.43-.718-5.399.124-2.97.622-5.157 1.106-4.861.484.296.68-.059.437-.788-.696-2.089-2.598-2.244-3.156-.257-.279.993-.322-.367-.096-3.022.227-2.655.645-5.204.93-5.665.692-1.119-1.404-1.748-4.105-1.232-1.787.342-2.102.946-1.729 3.314.35 2.216-.178 3.485-2.248 5.403-1.488 1.379-2.163 2.507-1.5 2.507.663 0 .927.45.587 1-1.227 1.986-3.5 1.012-3.5-1.5 0-1.375-.45-2.5-1-2.5s-1-1.152-1-2.559c0-1.451-.433-2.292-1-1.941-.55.34-1 1.69-1 3 0 3.093-1.686 4.078-3.813 2.229-.928-.808-2.812-1.694-4.187-1.97-1.375-.276-3.267-.825-4.204-1.22-1.501-.632-1.746.162-2.052 6.622l-.347 7.339-.205-7.5c-.197-7.231-.314-7.562-3.263-9.241-1.682-.957-2.778-2.195-2.435-2.75.361-.583-.508-1.009-2.057-1.009-2.112 0-2.448.281-1.583 1.324 2.758 3.323-3.416 4.923-6.375 1.652-1.319-1.456-2.132-1.718-2.905-.932-.768.779-.57 1.463.693 2.396 1.156.854 1.535 1.955 1.094 3.183-.919 2.561-8.136 9.145-12.111 11.048-1.787.856-3.25 1.956-3.25 2.443 0 .487-.436.886-.969.886-.532 0-.709-.675-.393-1.5.317-.825.078-1.5-.531-1.5s-1.114.563-1.122 1.25c-.012.973-.196.966-.83-.034-.448-.706-1.544-1.004-2.436-.662-.965.371-2.994-.425-5.014-1.966-4.624-3.527-6.038-3.382-5.179.53.797 3.628-.925 3.673-3.306.088-1.329-2.003-1.265-2.254.77-3.007 1.973-.73 1.5-1.175-4.258-4.01-3.562-1.754-7.097-3.221-7.855-3.259-.76-.039-.481-.456.623-.93 1.957-.841 1.955-.861-.11-.93-1.161-.038-3.712-1.157-5.669-2.485-1.957-1.328-3.82-2.153-4.14-1.833-.319.32-.581.129-.581-.425 0-.553-1.141-1.526-2.536-2.161-1.394-.636-4.994-2.972-8-5.192-3.039-2.246-5.471-3.468-5.479-2.756-.012.968-.23.944-.891-.1-.688-1.086-1.02-.925-1.552.75-.763 2.403-5.184 2.929-8.72 1.037-1.7-.91-1.945-1.733-1.446-4.856.592-3.702-2.28-8.478-4.04-6.718-.359.358-1.162.229-1.785-.289-.623-.517-2.556-1.19-4.295-1.497-1.739-.306-4.679-1.452-6.534-2.546-2.818-1.663-5.082-1.975-13.797-1.901-6.291.053-12.986-.528-16.882-1.465-3.551-.854-6.604-1.405-6.784-1.225-.18.18-.771 3.199-1.312 6.71-.542 3.51-1.539 7.468-2.216 8.796-.876 1.718-.913 2.52-.126 2.785 1.683.565.401 5.227-1.755 6.381-1.048.561-1.666 1.409-1.372 1.885.294.475-.031 1.092-.722 1.371-.998.402-.999.522-.006.585 1.573.099 1.665 3.079.095 3.079-.691 0-.49.735.5 1.829 2.198 2.428 2.099 2.853-.793 3.406-2.023.387-2.5.029-2.75-2.057-.166-1.388-.977-2.744-1.802-3.014-1.294-.422-1.309-.258-.107 1.198 1.911 2.315.548 3.347-1.716 1.299-1.009-.914-2.362-1.661-3.006-1.661-.644 0-1.171-.675-1.171-1.5s-.486-1.5-1.079-1.5c-.659 0-.843 1.078-.472 2.768.512 2.33.13 3.05-2.421 4.556-3.099 1.831-3.797 1.239-3.122-2.648.079-.454-.286-.559-.81-.235-1.482.915-.411-5.03 1.404-7.801 1.52-2.32 1.486-2.536-.636-4.023-2.795-1.957-1.84-3.24 1.069-1.436 1.797 1.114 2.276 1.086 3.082-.181.848-1.333.964-1.333 1.04 0 .095 1.674 1.753-1.611 1.875-3.715.109-1.883-3.908-3.707-5.237-2.378-1.621 1.621-2.249 1.362-3.532-1.454-1.53-3.358-1.464-3.95.279-2.503 2.519 2.091 7.016.901 7.374-1.95.172-1.375 1.747-3.778 3.5-5.341 1.752-1.562 2.453-2.61 1.558-2.328-.896.282-2.082.059-2.637-.496-.679-.679-1.229-.653-1.681.078-.37.598-.105 1.087.587 1.087 2.306 0-.698 2.092-3.242 2.258-1.319.086-3.005.99-3.746 2.008-.994 1.364-2.086 1.688-4.155 1.234-3.465-.762-4.904 1.098-2.348 3.035 1.714 1.298 1.721 1.404.1 1.433-.962.018-1.75.572-1.75 1.232 0 .933-.267.933-1.2 0-1.677-1.677-3.128-1.498-2.438.3.316.825.139 1.5-.393 1.5-.533 0-.969-.927-.969-2.059 0-1.132-.414-1.803-.919-1.491-.506.313-1.654-.166-2.551-1.063-1.137-1.137-2.649-1.467-4.985-1.088-2.834.46-3.443.208-3.935-1.627-.955-3.56-.688-9.506.458-10.214.588-.363.821-1.304.519-2.091-.302-.787.105-4.229.905-7.649.949-4.064 1.099-6.339.431-6.568-.64-.219-.515-1.153.334-2.5.746-1.182 1.912-4.063 2.59-6.4.678-2.337 1.596-4.25 2.04-4.25.444 0 1.338-1.013 1.986-2.25 1.105-2.108 1.155-2.118.788-.157-.239 1.277.336 2.548 1.474 3.259 1.026.641 1.865 1.836 1.865 2.656 0 .821.664 1.492 1.475 1.492 1.052 0 1.345.788 1.021 2.75-.834 5.054-2.496 17.121-2.496 18.123 0 1.149 15.139-4.741 16.235-6.317.404-.581.734-2.181.734-3.556 0-1.737-.256-2.095-.841-1.173-.972 1.533-2.045-3.18-2.693-11.827-.227-3.025-.725-7.075-1.107-9-1.12-5.639-.971-40.992.172-41.029.55-.017.188-.504-.805-1.082-1.264-.735-1.506-1.411-.807-2.254 1.589-1.914.646-5.183-1.387-4.81-1.364.25-1.602-.096-1.033-1.5 2.896-7.143 2.712-10.027-.529-8.293-2.29 1.226-2.605-.234-.439-2.032.971-.806 1.465-2.878 1.4-5.872-.07-3.248-.293-3.94-.75-2.319-.908 3.224-2.498 2.786-3.467-.954-.551-2.124-.437-3.389.349-3.875.709-.438.951-2.044.617-4.1-.303-1.859-1.074-6.625-1.715-10.592-.647-4.009-1.636-7.117-2.227-7-1.519.303-2.662-7.193-2.417-15.859.116-4.086-.065-7.43-.401-7.429-.337 0-.427-1.012-.202-2.25.308-1.691-.347-2.673-2.639-3.953-3.021-1.689-3.048-1.683-3.048.678 0 1.31.708 3.091 1.574 3.956 1.433 1.433 1.43 1.63-.025 2.189-1.177.451-1.318.954-.533 1.9.748.9.751 1.391.01 1.638-.609.203-1.268 4.8-1.555 10.847-.274 5.772-.974 11.949-1.555 13.725-.582 1.777-.775 3.69-.428 4.25.346.561.153 1.02-.429 1.02S42 271.9 42 273s-.562 2.007-1.25 2.015c-.846.011-.774.317.222.947 2.43 1.536-1.573 2.496-5.451 1.306l-3.302-1.014-.705 9.405c-.512 6.826-.371 9.808.513 10.873.978 1.178.925 1.468-.267 1.468-1.639 0-3.953 11.07-2.728 13.052.375.606.096 2.801-.62 4.879-1.302 3.78-.837 9.375.588 7.07.509-.825.901-.703 1.329.415.449 1.17-.009 1.584-1.753 1.584-2.912 0-4.006 2.427-1.999 4.434 1.323 1.323 1.315 2.931-.07 14.17-.86 6.973-1.783 13.033-2.051 13.467-.268.434-.703 6.305-.967 13.047-.295 7.56-.913 12.526-1.612 12.958-.623.385-.824 1.2-.447 1.811.378.611-.01 3.827-.86 7.147-.851 3.32-1.468 6.358-1.373 6.751.431 1.767-1.487 13.276-2.295 13.776-.496.306-.902.05-.902-.569 0-.651-.801-.873-1.895-.525-2.676.849-5.397-2.158-4.796-5.301.272-1.427-.128-3.127-.923-3.923-.772-.772-1.126-1.855-.785-2.406.34-.551.726-2.877.856-5.169.293-5.155.758-6.954 2.043-7.918.642-.481.548-1.042-.262-1.566-.829-.537-1.041-1.92-.618-4.035.354-1.77.863-2.999 1.131-2.731.499.499 1.258-.199 4.749-4.369 1.634-1.951 1.697-2.278.344-1.786-4.265 1.551-5.316-8.821-2.409-23.763.321-1.65 1.035-5.7 1.587-9s1.276-7.48 1.61-9.29c.334-1.809.215-3.218-.263-3.131-2.13.387-3.369-.193-3.369-1.579 0-.825.434-1.5.965-1.5 1.259 0 2.827-2.986 3.471-6.612 1.626-9.159 2.707-14.241 3.62-17.031 1.428-4.365 1.912-17.59.699-19.107-.718-.897-.542-1.25.623-1.25.892 0 1.622-.702 1.622-1.559s-.45-1.281-1-.941c-.62.383-1-1.462-1-4.858 0-3.011.466-5.631 1.036-5.821.57-.19 1.466-4.39 1.991-9.333 1.4-13.183 1.609-14.178 4.967-23.693 1.69-4.788 3.351-11.686 3.692-15.331.34-3.644 1.225-7.232 1.966-7.973 1.689-1.689 1.734-2.576.098-1.948-.946.363-1.218-1.589-1.119-8.017.072-4.68-.265-8.252-.75-7.952-.485.299-.881-.409-.881-1.574s.45-1.84 1-1.5c.563.348 1-.454 1-1.834 0-1.349-.625-2.692-1.389-2.985-1.27-.488-3.408-14.814-2.751-18.431.125-.687-.13-1.251-.566-1.253-.437-.002-.815-1.772-.84-3.933-.027-2.246.362-3.678.906-3.342.573.354.703-.657.327-2.537-.344-1.72-.901-6.177-1.238-9.906-.821-9.082-1.087-9.825-2.961-8.269-1.209 1.004-1.488.942-1.488-.329 0-.859.481-1.86 1.068-2.223.588-.363.832-1.277.543-2.03-.289-.754.13-2.026.931-2.828 1.661-1.66 1.959-3.028.458-2.1-.58.359-1-.619-1-2.33 0-2.117.46-2.909 1.633-2.809 1.713.146 2-.631 3.348-9.055.457-2.856 1.197-5.781 1.644-6.5.447-.718.688-2.276.535-3.46-.153-1.185.198-2.45.781-2.81.582-.359 1.059-.177 1.059.405 0 .582.45 1.059 1 1.059s1-.661 1-1.47c0-.808.823-2.945 1.829-4.75 2.581-4.628 3.27-7.956 1.972-9.52-.776-.935-.798-1.663-.071-2.39.726-.726 1.242-.724 1.694.006.404.654 1.462.238 2.8-1.1 1.39-1.39 1.731-2.291.964-2.547-1.698-.566-1.47-2.229.306-2.229.821 0 2.861-1.888 4.533-4.196 1.672-2.308 3.741-4.299 4.598-4.425 2.219-.326 2.869-1.207 2.921-3.962.026-1.337-.532-2.417-1.25-2.417-1.837 0-1.613-2.665.286-3.393 2.488-.955 5.418-.71 5.418.452 0 .582.45.781 1 .441s1-1.543 1-2.673c0-1.749.482-1.983 3.25-1.573 1.787.265 5.468-.176 8.179-.978 8.095-2.397 18.365-3.779 27.321-3.675 2.888.033 5.25-.346 5.25-.842 0-.514 2.432-.599 5.641-.198 3.493.436 5.418.343 5.054-.245-.364-.59 5.558-.843 15.609-.668 12.718.222 15.511.048 13.004-.811-3.361-1.151-5.305-3.837-2.777-3.837.808 0 1.469-.378 1.469-.839 0-1.097-4.565-3.161-6.988-3.161-1.042 0-2.166-.439-2.497-.976-.332-.537-3.281-.939-6.552-.893-3.272.046-5.699.487-5.394.981.56.905-4.332 1.012-10.319.225-2.368-.312-3.25-.94-3.25-2.315 0-5.522-20.85-3.87-44.034 3.489-1.643.521-1.854-.011-1.864-4.712-.018-7.653 1.251-10.118 6.186-12.014 17.781-6.829 25.648-9.669 28.369-10.24l3.157-.663-.944 4.199c-.519 2.31-.744 4.699-.5 5.309.244.611.762-.329 1.151-2.089 1.334-6.024 3.334-6.85 13.493-5.567 10.573 1.334 17.164 5.053 19.696 11.114l1.51 3.614 2.14-2.659c3.025-3.76 5.725-4.102 17.64-2.234 5.775.905 12.75 1.822 15.5 2.038 2.75.215 11.3.902 19 1.527 7.7.625 15.246 1.105 16.768 1.067 1.676-.041 2.514.342 2.125.972-.609.986 1.066.811 8.357-.871 1.238-.285 2.25-.098 2.25.416 0 .515 1.463.701 3.25.414l3.25-.522-3-.687c-2.973-.68-2.976-.687-.321-.805 1.473-.065 3.273-.7 4-1.41 3.499-3.422 13.658-5.264 19.934-3.613 1.437.377 4.474.346 6.75-.07 2.275-.416 4.137-.367 4.137.109s.707.866 1.571.866c1.982 0 4.567 2.509 3.631 3.525-.386.419.778.48 2.586.136 2.409-.459 3.44-.23 3.857.856.679 1.77 3.355 1.996 3.355.283 0-.887.293-.907 1.122-.078.617.617 1.742.884 2.5.593.87-.334 1.378.165 1.378 1.356 0 3.803 3.198 5.151 11.138 4.696 4.049-.231 8.712.002 10.362.52 2.521.791 1.865.955-4.114 1.027-12.268.148-23.557 3.182-17.619 4.735 1.228.322 2.233.982 2.233 1.468 0 .485 1.784.883 3.965.883 3.039 0 4.234.504 5.121 2.16.974 1.822 1.289 1.921 2.007.638.469-.838 3.002-2.101 5.63-2.808 6.532-1.757 8.037-3.396 2.277-2.48-2.475.394-4.991 1.111-5.592 1.594-.601.483-1.388.583-1.75.221-.362-.362-.658-.101-.658.58 0 .842-.502.736-1.571-.334-.865-.864-2.327-1.585-3.25-1.601-1.432-.026-1.459-.154-.179-.872 5.064-2.841 25.316-3.656 30.011-1.209 2.64 1.376 4.983 1.742 9.027 1.413 6.238-.509 5.231 1.139-1.378 2.255-2.995.506-4.483.213-6.52-1.286-5.805-4.27-8.171-3.839-14.956 2.729-1.465 1.419-1.951 1.605-4.903 1.885-.67.063-1.014.678-.765 1.365.25.688-.979 1.925-2.729 2.75-1.751.825-3.382 2.138-3.624 2.917-.307.985.44.798 2.448-.614 1.589-1.117 4.553-2.624 6.586-3.349 2.033-.724 3.45-1.716 3.149-2.203-.301-.487.393-1.131 1.542-1.432 1.149-.301 1.857-.923 1.573-1.383-.681-1.101 2.823-2.936 5.605-2.936 1.209 0 3.755.962 5.658 2.139 3.124 1.93 3.961 2.029 8.618 1.015 6.065-1.322 18.326-2.488 17.504-1.666-.314.313-2.544.995-4.958 1.515l-4.388.946 5.297-.433c5.874-.48 7.584 1.043 5.292 4.714-.675 1.081-1.031 2.161-.791 2.401.936.937 21.702 1.53 21.702.621 0-1.323-3.4-4.252-4.936-4.252-.705 0-1.029-.649-.722-1.449.592-1.542-.414-2.014-6.667-3.123-2.103-.373-3.453-1.038-3-1.478.454-.439 2.625-.428 4.825.025s6.449 1.323 9.441 1.935c2.993.611 6.517 1.815 7.831 2.676 1.314.861 3.053 1.311 3.865 1 .811-.311 2.988.066 4.837.839 1.85.773 3.614 1.154 3.92.847.307-.306 1.131-.085 1.832.492.701.576 4.199 1.628 7.774 2.336 6.088 1.207 6.291 1.332 3.208 1.976-2.124.445-5.317.058-9.006-1.09-8.344-2.597-10.23-2.61-15.049-.106-2.391 1.243-4.978 2.017-5.75 1.721-.772-.296-1.403-.088-1.403.462 0 1.819 2.801 2.113 5.195.545 2.248-1.473 3.429-1.513 19.055-.649.413.022.75.914.75 1.982 0 2.848 1.484 3.287 3.518 1.039 1.906-2.106 4.482-1.162 4.482 1.642 0 .833 1.087 1.383 2.75 1.392 4.093.02 7.25 1.066 7.25 2.402 0 1.232 4.455 3.134 9.337 3.987 3.865.676 5.83 2.495 5.118 4.737-.439 1.386.119 2.128 2.194 2.917 2.284.868 2.52 1.244 1.317 2.095-1.275.902-1.27.976.039.568.828-.258 2.036.099 2.685.793 2.623 2.809-9.659 2.367-14.603-.524-1.21-.708-.755-.968 1.913-1.095 2.486-.118 2.832-.294 1.193-.607-1.268-.243-2.803-1.531-3.41-2.864-.607-1.333-1.707-2.423-2.444-2.423-.736 0-1.339-.753-1.339-1.674 0-1.386-.431-1.27-2.5.674-1.375 1.292-2.5 2.945-2.5 3.674 0 .729-.436 1.326-.969 1.326-.532 0-.709-.675-.393-1.5.875-2.279-1.013-1.794-3.556.913-2.149 2.288-3.716 2.542-10.391 1.69-.445-.057-.531-.553-.191-1.103.588-.951-2.529-1.428-7-1.07-1.663.133-1.747-.014-.5-.87 1.228-.842 1.081-1.032-.809-1.045-1.288-.008-2.036.427-1.691.985.34.55.093 1-.548 1s-.907-.675-.59-1.5c.622-1.623-1.845-2.145-2.804-.594-.308.499-2.922 1.205-5.809 1.57-6.963.879-11.901 2.468-11.199 3.605.312.505-.107.919-.932.919-.825 0-1.789-.468-2.143-1.041-.354-.572-1.468-.779-2.475-.459-1.007.32-2.122.112-2.477-.462-.416-.673-1.263-.712-2.388-.11-.958.513-2.31.582-3.004.153-1.546-.955-6.131-.181-6.131 1.036 0 1.296-2.122 1.068-5.25-.564-1.671-.871-2.75-1.023-2.75-.387 0 .577-.675.789-1.5.472-.825-.316-1.5-.091-1.5.502 0 .652-.995.827-2.522.444-1.69-.424-2.697-.177-3.052.749-.419 1.092-2.519 1.279-9.978.889-6.123-.321-9.448-.133-9.448.533 0 .566-1.238 1.327-2.75 1.692-9.477 2.288-10.065 2.582-11.105 5.566-.572 1.643-.663 2.987-.201 2.987.461 0 1.143 1.21 1.514 2.689.913 3.636 4.35 8.311 6.11 8.311 1.633 0 2.11 9.463.526 10.442-.498.308-.67 1.462-.382 2.564.288 1.103.044 2.583-.542 3.289-.933 1.124-1.879 14.199-2.099 29.014-.039 2.645-.421 4.593-.849 4.328-.428-.265-.687 2.746-.575 6.691l.203 7.172-1.032-9c-.74-6.452-.719-9.869.075-12.071.609-1.689 1.089-5.064 1.067-7.5l-.04-4.429-1.514 2.792c-.909 1.676-1.235 3.672-.816 4.992.641 2.02.552 2.078-1.09.716-1.647-1.367-1.731-1.303-1.061.807.447 1.409.192 3.138-.663 4.492-.874 1.384-1.369 4.893-1.333 9.451.062 7.909-.064 8.354-1.412 5-.727-1.81-.917-1.283-.968 2.691-.058 4.565-.175 4.793-1.531 3-1.449-1.915-1.47-1.915-1.57.059-.101 1.971-.114 1.971-.87.036-1.336-3.415-2.257 2.691-.966 6.397.608 1.743.767 3.484.353 3.868-.414.384-.964.105-1.223-.621-.348-.98-.791-.852-1.718.5-1.369 1.996-2.061 13.321-.813 13.319.426-.001.618 2.52.427 5.601-.2 3.213.12 6.072.75 6.702.797.797 1.13.291 1.216-1.852l.119-2.95.748 3 .749 3 .758-3.25c.417-1.787 1.207-3.25 1.755-3.25.549 0 .38-.759-.375-1.687-1.199-1.475-1.155-1.606.346-1.044.945.354 1.984.213 2.309-.313.325-.526 1.014-.956 1.532-.956 1.715 0 .975 2.889-1.309 5.109-1.646 1.599-1.794 2.026-.551 1.59 1.138-.4 1.904.051 2.322 1.367.343 1.079 1.111 1.661 1.708 1.292.752-.464.895.719.466 3.85-.836 6.097-4.743 17.792-5.944 17.792-.532 0-.697 1.078-.367 2.396.408 1.622.12 2.581-.891 2.968-.838.322-1.493 1.816-1.493 3.405 0 1.557-.54 3.371-1.2 4.031-.933.933-.618 1.2 1.418 1.2 5.657 0 7.583 3.767 4.689 9.173-1.394 2.605-.072 4.031 4.036 4.354 2.622.206 3.057-.099 3.057-2.143 0-1.737-.557-2.384-2.05-2.384-1.603 0-1.85-.356-1.135-1.635.567-1.013.514-2.942-.14-5.073-1.219-3.971-.089-5.285 3.89-4.524 1.942.371 2.435.049 2.435-1.592 0-2.419 1.605-3.746 2.336-1.932.278.691.542.213.585-1.061.064-1.876-.302-2.197-1.921-1.683-1.581.502-2 .18-2-1.54 0-1.522.45-2.001 1.5-1.598.825.316 1.5.139 1.5-.393 0-.533-1.098-.969-2.441-.969-1.343 0-2.719-.45-3.059-1-1.106-1.789-2.283-1.062-3.382 2.09-1.154 3.31-3.373 3.51-3.983.359-.305-1.574-.118-1.68 1.135-.64 1.258 1.044 1.625.797 2.279-1.532.428-1.527.705-3.115.615-3.527-.09-.413.286-.75.836-.75s.947-.338.882-.75c-.066-.412-.031-.975.076-1.25 1.006-2.573 1.055-18.126.056-17.509-.837.518-1.131-.256-.999-2.629.354-6.345.047-8.509-.977-6.89-1.415 2.238-2.52-1.316-1.138-3.661.995-1.688 1.111-1.659 1.698.428.346 1.231 1.028 1.992 1.516 1.691.487-.302.886.116.886.928 0 .811.562 1.663 1.25 1.893.918.306 1.216 3.643 1.124 12.565-.132 12.683.364 14.037 2.63 7.173.746-2.261 2.175-4.55 3.176-5.085 1.001-.536 1.83-1.971 1.842-3.189.036-3.613 3.466-10.106 6.836-12.942 1.728-1.454 3.142-3.119 3.142-3.701 0-.581 1.647-1.847 3.66-2.814 2.013-.967 4.15-2.658 4.75-3.758.599-1.1 1.456-2.269 1.902-2.598.447-.328 1.591-8.571 2.542-18.316 1.556-15.933 1.574-17.811.188-18.622-1.131-.663-.609-.915 1.958-.949 2.634-.034 3.129-.285 2-1.015-2.508-1.62-10-1.246-10 .5 0 .941 1.025 1.544 2.75 1.618l2.75.119-2.912.631c-2.151.467-3.202 1.496-4.025 3.941-.612 1.819-1.408 3.013-1.769 2.652-.361-.361-.483-1.175-.272-1.809 1.487-4.464 1.233-7.652-.609-7.652-1.433 0-1.913.71-1.913 2.83 0 2.597-7.275 12.456-8.226 11.147-1.574-2.167-3.76-11.185-3.226-13.312.634-2.526-1.171-12.131-2.665-14.181-.407-.559-.351-3.034.126-5.5.476-2.466 1.14-6.509 1.475-8.984.926-6.838 2.712-8.757 6.092-6.542 1.459.956 5.863 2.177 9.788 2.714 3.925.537 7.544 1.373 8.042 1.858.498.485.969 5.289 1.047 10.676.135 9.322.005 9.975-2.703 13.544l-2.844 3.75h4.547c2.658 0 4.547-.46 4.547-1.107 0-.609.674-.848 1.498-.532 3.76 1.443 5.239-4.436 5.752-22.861l.25-9 4.229-.062c2.326-.034 4.517-.35 4.869-.702.352-.353 1.315.034 2.14.859 1.333 1.333 1.709 1.311 3.381-.203 2.256-2.042 2.466-3.554.381-2.754-.825.317-1.5.048-1.5-.597 0-1.94 1.99-5.041 3.235-5.041.861 0 .872.293.043 1.122-.617.617-.876 1.761-.576 2.543.59 1.537 4.298-.957 4.298-2.891 0-1.336 2.659-3.782 3.354-3.086.326.325-.68 2.216-2.236 4.202-3.905 4.984-5.316 7.869-4.19 8.566.514.317 1.221.112 1.572-.456 1.161-1.878 2.56.02 1.489 2.02-.559 1.045-.921 2.255-.804 2.689.116.435-.169 1.916-.635 3.291-.767 2.267-.908 2.322-1.517.59-.589-1.676-.939-1.478-2.852 1.618-2.355 3.809-2.946 7.383-1.026 6.197.711-.44.883-.275.448.429-.462.747-.153.93.893.529 1.308-.502 1.19.231-.647 4.012-1.236 2.544-2.785 4.625-3.441 4.625-.657 0-1.453.675-1.77 1.5-.9 2.347-2.498 1.757-2.033-.75.229-1.238.158-1.713-.159-1.056-.316.656-1.109 1.001-1.761.765-.652-.235-2.452 1.365-4 3.557-1.548 2.191-3.236 3.984-3.75 3.984-.514 0-.935.675-.935 1.5s.702 1.5 1.559 1.5 1.312.399 1.011.887c-.301.487.082 1.409.852 2.048 1.037.861 1.581.869 2.099.031.385-.622 2.655-1.97 5.046-2.995 4.023-1.724 4.697-2.594 9.047-11.667 6.219-12.971 13.356-24.001 14.676-22.681.282.282 2.16-1.968 4.172-5 2.414-3.637 4.15-5.326 5.099-4.961 1.695.65 1.869 1.954.384 2.872-.581.359-.902 1.398-.714 2.309.188.911-.35 2.205-1.195 2.875-1.349 1.07-1.353 1.234-.036 1.35.825.072.375.444-1 .827-2.795.777-3.435 3.598-.821 3.618.924.007 2.012.344 2.417.75.406.405 1.562.737 2.571.737 2.586 0 2.283-2.883-.417-3.969-2.175-.874-2.18-.906-.154-.968 1.153-.034 3.403.569 5 1.341s5.057 2.366 7.688 3.541c2.978 1.329 4.52 2.562 4.086 3.265-.458.741-.125.91.966.491.915-.351 1.664-.202 1.664.33 0 .533.337.88.75.771 1.279-.338 5.25 1.288 5.25 2.15 0 .45 1.807 2.572 4.016 4.715 2.208 2.144 4.208 4.897 4.443 6.119.235 1.222.685 2.639 1.001 3.149.315.51.108 1.214-.46 1.565-1.413.873-.11 2.756 1.484 2.145.77-.296 2.426 1.569 4.149 4.671 3.856 6.944 4.015 7.5 1.513 5.279-1.18-1.048-2.146-2.317-2.146-2.821 0-1.351-3.05-4.164-4.79-4.42-.831-.121-1.842-.759-2.248-1.416-1.003-1.623-2.962-.26-2.962 2.062 0 2.07-1.514 3.335-4.232 3.536-2.309.17-2.231-1.323.482-9.169 2.241-6.482 2.242-6.514.257-7.975-4.145-3.053-5.735-1.532-7.948 7.608l-2.059 8.5-4.25.567c-2.338.312-4.25.173-4.25-.309s-.437-.606-.971-.276c-.533.33-2.311-.094-3.95-.941-3.462-1.79-4.443-1.939-3.579-.541.891 1.441-1.585 1.166-4.5-.5-1.375-.786-3.753-1.445-5.285-1.465-2.479-.031-2.668.185-1.715 1.965.589 1.1 1.537 2 2.107 2 .57 0 1.715.679 2.545 1.509.83.83 1.948 1.238 2.484.907 1.269-.785 11.864 3.512 11.864 4.811 0 .547.907-.068 2.015-1.366l2.016-2.361-.652 2.861c-.588 2.58-.442 2.794 1.485 2.182 1.953-.62 2.583.077 2.307 2.55-.117 1.049 9.668.976 10.319-.077.888-1.437 3.537-1.25 6.864.485 1.57.819 3.328 1.195 3.908.837.669-.413.847.137.488 1.51-.432 1.651-.056 2.264 1.593 2.599 9.282 1.887 13.537 3.014 15.907 4.213 2.406 1.217 2.75 1.201 2.75-.134 0-.844.868-1.526 1.941-1.526 2.326 0 3.586-1.622 1.815-2.336-.792-.319-.643-.535.406-.585 1.143-.054 1.877-1.35 2.35-4.148.652-3.864.48-4.246-3.412-7.578-2.319-1.984-4.1-4.397-4.1-5.553 0-1.704-.25-1.838-1.5-.8-1.036.86-1.5.898-1.5.122 0-.617.45-1.122 1-1.122 1.548 0 1.18-4.677-.5-6.357-1.925-1.925-1.936-4.643-.019-4.643 1.932 0 2.756-3.496 2.004-8.5-.331-2.2-.8-5.315-1.044-6.922-.243-1.607-1.163-3.718-2.044-4.692-.881-.974-1.392-2.359-1.135-3.078.257-.719.063-2.095-.432-3.058-.604-1.175-.522-1.75.251-1.75.749 0 .922-.962.495-2.75-.361-1.513-.713-3.312-.783-4-.069-.687-.528-1.25-1.019-1.25-.49 0-.633-.419-.316-.932.316-.512-.432-1.637-1.664-2.5-2.11-1.477-2.125-1.572-.267-1.631 1.675-.054 1.595-.23-.527-1.162-1.375-.603-2.8-1.137-3.167-1.186-1.614-.215-1.996-1.589-.441-1.589 1.007 0 1.441-.461 1.042-1.107-.738-1.194 3.632-.199 4.566 1.04.275.365 2.075 1.75 4 3.078 1.925 1.329 4.048 3.107 4.718 3.952.894 1.128 1.227 1.189 1.25.228.018-.72.518-1.008 1.113-.641.607.375.813 1.826.47 3.309-.48 2.074-.376 2.319.484 1.141.864-1.183.963-.972.465 1-.371 1.471-.283 2.006.214 1.298.682-.97 7.583 15.964 8.64 21.202.111.55.486 1.454.834 2.008.347.555 1.343 4.605 2.212 9 .87 4.396 2.344 10.619 3.276 13.831 1.257 4.331 1.416 6.284.616 7.565-.715 1.145-.751 2.312-.107 3.463.535.955 1.114 3.4 1.289 5.434.96 11.214 2.876 22.794 3.878 23.449.855.559.84.95-.06 1.533-.841.545-.184 1.601 2.157 3.469l3.366 2.686 1.159-5.219c.637-2.87 1.659-7.34 2.271-9.931.763-3.227.8-5.749.119-8-.546-1.809-.722-5.763-.389-8.788.592-5.382.623-5.427 1.431-2.086.454 1.878 1.898 5.433 3.21 7.899l2.384 4.485-.118-7.399c-.065-4.069-.498-8.749-.962-10.399-.626-2.223-.723-1.575-.376 2.5l.468 5.5-2.912-6.5c-1.602-3.575-4.38-11.781-6.175-18.234-3.13-11.257-3.191-11.814-1.499-13.684 1.49-1.647 1.613-2.661.787-6.53-.537-2.519-.627-4.796-.201-5.06.853-.526 3.941 6.519 4.067 9.278.058 1.278.224 1.362.636.323.38-.961.963-.486 1.839 1.5 2.267 5.136 1.445.14-1.167-7.093-1.39-3.85-2.75-8.125-3.023-9.5-.478-2.414-.441-2.433 1.07-.559 1.322 1.639 1.566 1.687 1.566.309 0-.898-.42-1.891-.933-2.208-1.135-.702-2.841-8.999-3.443-16.74-.477-6.148-1.226-8.166-2.693-7.259-.512.316-.931-.089-.931-.901 0-.811-.562-1.679-1.25-1.928-.989-.358-.975-.918.069-2.681.726-1.225 1.105-2.443.842-2.706-.263-.262-.112-1.755.336-3.315.63-2.197.374-3.31-1.131-4.925-1.069-1.148-1.636-2.087-1.259-2.087s-.531-1.127-2.017-2.504c-2.501-2.318-2.758-4.496-.532-4.496.517 0 2.794 1.8 5.061 4s4.518 4 5.002 4c.483 0 .879.434.879.965 0 .531 1.345 3.086 2.988 5.677 1.643 2.591 3.245 6.319 3.56 8.285 1.758 10.971 6.26 24.718 8.561 26.14.657.406 1.221 4.71 1.385 10.567.168 5.99 1.105 13.029 2.38 17.874 2.632 10.001 4.109 19.428 4.118 26.295.005 2.916.643 8.316 1.418 12 3.293 15.637 4.81 35.016 4.753 60.697-.023 10.194.291 15.999.785 14.5.452-1.375.88 38.515.951 88.645l.128 91.145-2.513-.145c-1.382-.08-2.513-.74-2.513-1.466-.001-1.016-.348-.975-1.501.178-.825.825-1.5 1.93-1.5 2.455 0 .525-.9 1.19-2 1.478-1.1.287-2 .177-2-.245s-1.054-.566-2.341-.32c-1.884.36-2.367 1.124-2.472 3.91-.071 1.905-.469 4.004-.883 4.664-.415.661-.624 1.992-.465 2.958.159.966-.453 2.041-1.359 2.389-1.317.505-1.38.802-.314 1.478 1.071.678 1.038.851-.166.876-1.333.027-1.333.138 0 1 1.282.828 1.246.972-.25.985-1.954.017-2.477 5.317-.787 7.989.589.931.561 1.702-.076 2.096-1.351.835-2.224 11.93-.938 11.93 1.39 0 .016 3.259-1.98 4.699-1.365.985-1.637 2.863-1.516 10.5.08 5.116-.23 9.562-.689 9.882-.459.319-1.03 2.344-1.268 4.5-.238 2.155-.188 3.126.111 2.157 1.241-4.017 2.196-.187 1.874 7.517-.189 4.535-.608 16.12-.93 25.745-.846 25.255-1.617 39.695-2.466 46.216-.41 3.144-.363 6.294.104 7 1.024 1.55-.04 17.908-1.249 19.192-.506.537-1.532.346-2.513-.469-1.671-1.386-1.603-9.358.17-20.122.556-3.376.431-3.637-1.495-3.133-1.874.49-2.102 1.282-2.102 7.293 0 12.14-1.788 19.764-3.29 14.023-.287-1.1-1.041-2-1.675-2-.672 0-.827.521-.372 1.25 2.068 3.311 2.264 18.44.276 21.25-.83 1.173-2.114 6.808-2.46 10.798-.274 3.16-1.525 4.839-2.199 2.952-1.021-2.859-1.797-.834-2.065 5.388-.156 3.643-.792 7.577-1.413 8.742-1.756 3.297-8.939 12.745-12.636 16.62-1.837 1.925-4.94 6.849-6.897 10.942-4.789 10.021-9.443 17.841-13.127 22.06-3.595 4.118-4.831 7.945-2.95 9.138.719.456 17.733.784 37.808.729 20.075-.056 35.6-.317 34.5-.582-1.1-.265-2.45-.919-3-1.455-.651-.633.048-.72 2-.249 1.65.399 3.269 1.133 3.597 1.632.328.499 2.803.767 5.5.596l4.903-.311.254-350.727.254-350.727-2.504.952c-2.331.887-2.504.743-2.504-2.082 0-1.971.389-2.793 1.112-2.347 1.173.725 2.847-1.208 2.873-3.319.022-1.819-6.524-1.568-8.415.323-.865.865-2.36 1.384-3.322 1.152-1.439-.346-1.306-.613.752-1.509C490.813.426 427.247.109 257.833.063 71.788.013 24.064.255 23.662 1.25c-.403 1-.52 1-.583 0C23.021.339 20.295 0 13.019 0H3.038l.628 4.577M.489 358.5c-.001 212.875.197 288.098.505 192 .278-86.9.279-244.4.001-350C.623 59.134.49 100.802.489 358.5M60.761 30.562c-.406.412-2.416 1.022-4.466 1.355-8.226 1.337-6.121 12.875 2.253 12.345 4.922-.311 4.834-.131 3.824-7.812-.479-3.651-1.205-6.301-1.611-5.888m169.737 7.442c-.341.552-1.611.755-2.821.451-4.017-1.008-14.52 4.788-11.763 6.492.773.477 2.086.606 2.919.287 1.13-.434 1.34-.127.826 1.212-.581 1.513-.268 1.712 2.007 1.278 1.482-.284 3.502-.011 4.489.605 1.332.831 2.091.825 2.943-.027.838-.838 1.787-.856 3.525-.064 2.624 1.195 3.042 2.338 1.127 3.079-.687.266.932.382 3.599.258 3.319-.154 5.012.202 5.367 1.128.286.744 1.366 1.806 2.402 2.36 2.645 1.416 2.584-2.361-.082-5.027-1.079-1.079-1.561-2.212-1.069-2.516.492-.304 1.177-.095 1.523.464 1.097 1.774 2.01 1.1 2.01-1.484 0-1.926-.517-2.5-2.25-2.5-1.238 0-2.25-.45-2.25-1s-.45-1-1-1c-1.437 0-1.235 2.732.25 3.372.688.297-.1.371-1.75.166-1.65-.206-3.618-.411-4.372-.456-1.088-.065-1.122-.384-.164-1.538.664-.801.937-1.895.606-2.431-.332-.536-.138-1.262.43-1.613.568-.351.76-1.079.427-1.618-.374-.605-1.207-.483-2.179.319-1.245 1.028-1.661 1.038-1.994.049-.506-1.505-1.902-1.629-2.756-.246m79.491 16.273c-2.732 4.844-4.284 6.497-7 7.461-3.437 1.219-3.399 1.235 2.511 1.077 3.3-.088 6.331-.645 6.735-1.238.444-.651.74-.386.75.673.011 1.274.83 1.75 3.015 1.75 1.65 0 3 .338 3 .75s2.475.689 5.5.613c3.025-.075 5.5.263 5.5.75 0 .488.675.887 1.5.887s1.5.45 1.5 1 .477 1 1.059 1 .785-.443.45-.985c-.626-1.013 18.593-1.731 22.239-.831.649.161 15.929-1.233 18.752-1.71.55-.093 2.125-.245 3.5-.337 1.979-.133 2.189-.364 1.008-1.111-.82-.518-2.484-.694-3.697-.389-1.212.304-3.695.061-5.516-.54-1.821-.601-5.108-1.091-7.303-1.088-2.196.002-4.667.002-5.492 0-3.304-.008-8.756-.784-13.444-1.914-2.719-.655-10.925-1.232-18.234-1.282l-13.29-.092.622-2.611c.343-1.435 1.01-3.368 1.484-4.294 3.418-6.68-1.251-4.449-5.149 2.461M209.015 57.25c-.008.962.339 1.75.772 1.75s.897 1.439 1.031 3.198c.134 1.758.395 3.348.579 3.533.807.806 16.844 1.014 24.603.318 4.957-.444 6.833-.851 4.5-.976-2.835-.151-3.462-.425-2.153-.94 1.721-.677 1.732-.823.167-2.122-.925-.767-2.431-1.506-3.347-1.641-.917-.136-3.841-.769-6.498-1.407-3.566-.856-5.974-.872-9.193-.061-5.736 1.444-6.476 1.391-6.476-.461 0-.889-.478-1.264-1.112-.872-.611.378-1.504.067-1.984-.691-.691-1.09-.877-1.012-.889.372m-23.129 1.197c-.246.246-2.683.648-5.417.893-11.861 1.065-16.693 2.798-11.219 4.025 1.238.278-.675.376-4.25.218-3.575-.157-5.488-.098-4.25.132 1.238.23 2.25.791 2.25 1.246 0 .456-1.687.437-3.75-.042-4.677-1.086-6.381-1.049-3.75.081 1.259.541-3.37.928-12.5 1.045-17.032.218-19.44.061-21.813-1.421-.808-.505-2.049-.153-3.228.913-1.636 1.481-3.393 1.661-12.092 1.242-6.978-.336-11.594-.064-14.681.866-5.651 1.7-8.404 1.824-6.186.279 2.143-1.494-4.65-.142-8.404 1.673-1.597.771-3.439 1.403-4.095 1.403-.655 0-2.006.9-3.001 2-.995 1.1-1.46 2-1.033 2 2.255 0-2.011 2.827-4.997 3.311-5.304.861-13.6 12.242-11.455 15.714 1.058 1.711-.868 5.793-3.061 6.49-1.838.583-3.059 5.281-2.985 11.485.036 3.074-.996 15.07-2.496 29a1442.37 1442.37 0 00-.636 6c-.492 4.861.037 5.284 3.24 2.589 1.692-1.424 4.132-2.589 5.422-2.589 2.572 0 3.786-2.695 4.955-11 .349-2.475 1.702-7.893 3.007-12.041 1.306-4.147 2.946-10.447 3.645-14 .875-4.445 2.458-8.171 5.075-11.949 3.358-4.845 3.6-5.57 2.062-6.179-1.623-.643-1.619-.695.066-.761.995-.038 1.552-.486 1.238-.994-.314-.507.897-1.952 2.691-3.209 1.794-1.257 5.059-3.974 7.254-6.038 3.614-3.396 4.059-3.572 4.694-1.856.616 1.667 1.071 1.756 3.758.742C93.5 78.373 93.95 77 90.833 77c-1.191 0-1.947-.219-1.679-.487.53-.531 16.421-3.742 18.834-3.807.819-.021 2.062-.614 2.764-1.315.78-.78 2.759-1.098 5.089-.817 2.096.253 5.649-.189 7.895-.981 2.246-.792 4.316-1.208 4.601-.923.284.285 9.437.697 20.34.917 11.166.225 19.24.027 18.489-.454-1.065-.683-.998-.983.332-1.494 2.51-.963 3.472-.775 3.135.611-.168.688-.117.913.114.502.23-.412 1.573-.459 2.985-.104 1.426.358 2.323.246 2.018-.252-.306-.5 3.634-.959 8.909-1.038 5.202-.078 9.704-.388 10.004-.688 1.094-1.094-1.382-6.168-2.883-5.907-.832.145-2.078-.418-2.769-1.25-1.27-1.529-2.307-1.883-3.125-1.066m248.566 4.199c-.898 1.423-1.538 1.481-4.726.429-4.057-1.339-5.942-.8-5.078 1.451.309.805.922 1.24 1.362.968.44-.272 2.653 1.053 4.918 2.945 2.264 1.892 5.111 3.756 6.325 4.141 3.447 1.094 7.754 4.589 10.374 8.418l2.394 3.497-.139-6.146c-.145-6.439-1.082-9.452-2.318-7.453-.496.803-1.289.774-2.875-.106-1.204-.668-2.545-1.113-2.98-.989-1.703.487-4.613-1.887-4.065-3.316.349-.91-.016-1.485-.943-1.485-1.021 0-1.344-.651-.991-2 .635-2.429.138-2.569-1.258-.354m-241.545 21.78c-.234.234-2.342.618-4.685.852-4.813.481-6.932 1.722-2.941 1.722 2.452 0 2.552.181 1.603 2.903-.557 1.597-1.854 3.665-2.883 4.596-1.88 1.701-1.024 6.501 1.16 6.501 2.284 0 .668 5.61-2.161 7.5-3.614 2.414-3.807 3.5-.622 3.5 3.187 0 4.239 1.557 5.064 7.5.381 2.75 1.176 6.659 1.765 8.687 1 3.441.868 3.892-1.98 6.74-5.543 5.542-16.227 2.372-16.227-4.814 0-2.505-.24-2.643-3.985-2.286-3.501.334-4.102.075-4.939-2.126-1.215-3.198-2.804-4.172-4.503-2.762-1.568 1.302-3.016-1.089-1.555-2.567 2.323-2.349 1.856-6.522-1.072-9.586-2.921-3.057-2.946-3.063-2.961-.684-.013 1.943-.208 2.113-1.031.898-.772-1.141-.879-.902-.445 1 .316 1.391-.342 5.14-1.485 8.45l-2.054 5.951 2.765 2.21c3.072 2.455 2.612 4.18-.649 2.435-1.147-.614-2.086-.706-2.086-.204 0 1.798 3.007 3.358 6.473 3.358 1.94 0 3.527.405 3.527.9s.675.9 1.5.9c1.447 0 1.916 1.118 1.575 3.75-.09.688.645 1.243 1.631 1.235 1.524-.013 1.568-.161.294-.985-1.293-.835-1.266-.971.191-.985.93-.008 1.969.435 2.309.985.34.55.066 1-.608 1-3.164 0 .945 1.599 5.108 1.987.875.082.503.539-.895 1.098-1.318.527-2.144 1.21-1.836 1.518.308.307 1.52.045 2.694-.583 3.221-1.724 9.671.511 7.84 2.717-1.124 1.354-.97 1.454 1.205.783 1.371-.423 2.167-.425 1.77-.005-.398.42 1.051 1.641 3.22 2.714 2.168 1.073 3.843 2.473 3.722 3.111-.121.638.68 1.178 1.78 1.2 3.208.064 9.086 4.677 9.187 7.21.161 3.997.296 4.378 1.329 3.74.559-.346.758-1.047.441-1.559-1.059-1.713 2.243-.955 4.883 1.122 4.255 3.347 8.45 3.595 5.16.304-.825-.825-1.5-2.847-1.5-4.494 0-1.647-.463-3.859-1.029-4.916-1.059-1.98-4.928-16.524-4.956-18.63-.008-.65.885-1.468 1.985-1.817 2.796-.887 2.53-2.85-.29-2.142-2.003.503-2.317.172-2.511-2.642-.121-1.769-.664-6.591-1.205-10.716-.542-4.125-1.181-12.832-1.421-19.349-.241-6.516-.693-12.104-1.005-12.416-.312-.313-.568-1.618-.568-2.902 0-2.099-2.661-3.339-4.093-1.907m-37.466 4.042c-1.067.808-2.983 1.483-4.257 1.5-1.273.018-3.262.538-4.419 1.158-1.871 1.001-4.1 1.394-10.015 1.764-1.065.067-1.75.916-1.75 2.169 0 1.132-.43 1.793-.956 1.468-.526-.325-2.574.085-4.551.912-3.246 1.356-3.484 1.71-2.446 3.648.918 1.716.835 2.459-.413 3.707-1.414 1.415-1.618 1.38-2.171-.366-.917-2.894-3.059-6.615-3.825-6.643-4.234-.151-16.638 2.709-16.638 3.837 0 1.757.223 1.744 8.272-.488 7.809-2.165 8.393-1.392 2.978 3.947-4.748 4.682-6.251 6.584-5.666 7.17.256.255-.256 1.062-1.136 1.792-1.309 1.086-1.747 1.092-2.403.03-.651-1.053-.891-1.041-1.268.064-.256.75-.779-1.116-1.163-4.146-.769-6.07-1.38-7.375-3.617-7.728-1.894-.299-7.163 7.885-7.453 11.577-.119 1.514-.751 3.632-1.404 4.706-.977 1.608-1.091.98-.648-3.541.47-4.787.37-5.238-.779-3.5-1.621 2.452-3.352 9.579-4.735 19.495-.576 4.125-1.477 9.525-2.003 12-.526 2.475-1.167 6.75-1.424 9.5-.476 5.09-1.048 8.337-1.996 11.33-.29.918-.726 4.595-.968 8.17-.243 3.575-.955 7.85-1.584 9.5-.629 1.65-1.151 3.102-1.161 3.227-.202 2.642-1.297 3.967-2.928 3.54-1.922-.502-2.821 2.493-1.227 4.087.85.849 1.197 3.203 1.791 12.146.783 11.765 1.377 15.864 4.007 27.652 3.505 15.711 3.709 19.599 1.123 21.41-2.049 1.435-2.049 1.438.169 1.438 2.451 0 2.913 1.866.973 3.929-1.028 1.093-.758 1.213 1.522.676 2.94-.694 3.303-.286 4.133 4.645.649 3.861-.984 3.443-1.955-.5l-.801-3.25-.403 3.456c-.277 2.369.098 3.823 1.193 4.623 2.021 1.478.993 4.421-1.546 4.421-2.228 0-2.379.757-.583 2.921.721.869 2.094 4.166 3.051 7.329.958 3.163 2.129 5.75 2.602 5.75.474 0 .741 1.092.595 2.427-.147 1.334.111 3.022.572 3.75.638 1.005.843.902.855-.427.008-.962.517-1.75 1.132-1.75.614 0 .889.871.61 1.935-.302 1.154.088 2.164.965 2.5 2.712 1.041 3.529.581 2.995-1.685-.292-1.238.028-6.75.711-12.25 1.223-9.857 1.251-9.928 1.954-5 1.154 8.091 1.49 17.5.626 17.5-.441 0-.669.788-.507 1.75.162.962.797 1.637 1.412 1.5.614-.138 1.117.2 1.117.75s.63 1 1.399 1c2.595 0 3.562-41.303 1.048-44.742-.688-.94-1.008-3.387-.746-5.702.345-3.052.195-3.685-.606-2.556-1.37 1.93-1.511-2.061-.231-6.524.532-1.857.391-6.262-.37-11.494-.678-4.665-1.036-8.999-.795-9.631.241-.632-.014-1.427-.565-1.768-.559-.345-.741-2.229-.412-4.257.461-2.844.304-3.46-.72-2.827-.838.518-1.069.419-.64-.275.369-.597.165-1.398-.453-1.78-.71-.439-.892-2.151-.493-4.643.413-2.586.278-3.73-.393-3.315-.676.418-.807 6.646-.385 18.323.855 23.646-.302 22.374-2.101-2.309-1.582-21.72-1.674-25.703-.576-25.024.771.476.917-.115.469-1.899-.358-1.424-.301-4.275.126-6.334l.777-3.743.715 3 .715 3 .119-2.809c.065-1.545.512-2.566.993-2.269.481.298 1.101-1.588 1.378-4.191.278-2.602.861-5.592 1.296-6.645.537-1.299.436-1.695-.313-1.232-.723.447-1.003-.255-.813-2.038.159-1.496.804-2.892 1.433-3.101.629-.21 1.144-1.049 1.144-1.866 0-1.007.616-1.288 1.916-.876 1.054.335 2.205.14 2.559-.432.354-.573.178-1.041-.39-1.041-1.636 0-4.313-5.99-3.504-7.84.4-.913.637-2.56.528-3.66-.167-1.68-.025-1.76.889-.5.831 1.146.962.627.558-2.199-.298-2.084-.072-3.982.516-4.346.594-.366.77-1.9.407-3.55-.359-1.634-.217-2.905.323-2.905.528 0 1.455-1.965 2.06-4.366 1.639-6.508 11.927-15.138 16.904-14.179 3.152.607 10.001 4.361 10.525 5.768.786 2.114 4.167-1.999 8.176-9.948 3.892-7.718 5.533-9.614 5.533-6.393 0 3.402 1.799 3.315 2.534-.123.806-3.77 2.521-6.274 3.378-4.931.323.507 3.063-.253 6.088-1.69 5.419-2.574 5.456-2.62 2.5-3.157-2.717-.494-2.822-.647-1.115-1.628 1.84-1.058 1.839-1.129-.063-3.031-1.071-1.071-1.769-2.481-1.551-3.134.55-1.651-1.995-1.486-4.33.28m92.603 12.271c-1.901.23-4.601 1.222-6 2.204-1.399.982-4.247 2.393-6.328 3.135-2.552.909-3.98 2.124-4.383 3.73-.397 1.585-.848 1.976-1.347 1.169-1.135-1.836-4.949 2.435-5.157 5.773-.094 1.513-.22 3.514-.28 4.447-.06.933-.433 2.02-.829 2.416-1.892 1.892.748 18.403 2.78 17.387.55-.275 1.049-1.4 1.108-2.5.27-4.969.318-5.018 2.642-2.696 2.383 2.381 3.134 14.504 1.343 21.696l-.748 3 2.258-3.38c1.472-2.204 2.494-5.684 2.935-10l.678-6.62.213 8c.118 4.4.419 9.688.67 11.75.252 2.063.043 3.75-.463 3.75-1.588 0-2.123 4.463-1.016 8.472.801 2.903 1.294 3.503 2 2.439.67-1.008.858-.561.659 1.568-.17 1.81.211 3.036.971 3.125.688.08 1.656.202 2.152.271 1.146.159 3.098 5.687 3.098 8.774 0 1.293.338 2.353.75 2.355.412.003.834 1.626.936 3.606.103 1.981.894 5.093 1.759 6.916.865 1.823 1.842 4.66 2.171 6.306.825 4.125 5.384 5.306 5.384 1.394 0-.869-.595-1.212-1.5-.864-1.727.662-1.778.223-1.508-12.862.102-4.95.556-9.45 1.008-10 .453-.55 1.02-2.35 1.262-4 .286-1.961.49-1.202.588 2.191.083 2.855.666 5.51 1.296 5.899.838.518.973-.877.503-5.191-.366-3.36-.22-6.544.339-7.399.712-1.089 1.027.009 1.147 4 .09 3.025.352 4.262.581 2.75.436-2.878 1.76-3.635 2.622-1.5.277.688.54-1.308.583-4.435.043-3.127.518-6.839 1.054-8.25.675-1.774.642-2.565-.107-2.565-.595 0-.823-.675-.506-1.5.316-.825.125-1.5-.426-1.5-.55 0-1.407 1.012-1.905 2.25-.62 1.542-.924-1.447-.968-9.5-.048-8.893.241-11.689 1.187-11.5.922.184 1.199-1.652 1.054-7-.158-5.852.093-7.25 1.299-7.25 1.19 0 1.365-.863.861-4.243-.348-2.334-.753-7.103-.899-10.598-.172-4.117-.758-6.668-1.665-7.242-2.134-1.351-3.9-1.087-3.9.583 0 2.121-1.993 1.876-2.032-.25-.017-.963-.692-2.624-1.5-3.691-.807-1.068-1.468-2.755-1.468-3.75 0-.995-.338-1.737-.75-1.649-.412.088-2.305.348-4.206.579m6.323 12.511c.104.688.541 1.813.97 2.5.5.799.219 1.25-.778 1.25-.857 0-1.559.653-1.559 1.45 0 .798-.685 1.834-1.522 2.302-1.315.736-1.388 2.377-.537 12.072 1.005 11.458 2.884 18.202 3.112 11.176.062-1.925.226-4.512.363-5.75.137-1.238-.068-2.25-.455-2.25-1.49 0-.059-9.455 1.616-10.68 1.249-.913 1.525-2.059 1.058-4.394-.56-2.802-.406-3.099 1.367-2.636 2.604.681 2.584-1.284-.041-4.101-2.263-2.43-3.885-2.853-3.594-.939M473 127.278c0 .153 1.164 3.843 2.588 8.2 1.423 4.357 2.728 9.52 2.9 11.472.173 1.953.623 7.486 1.002 12.296.675 8.57 2.097 12.05 3.2 7.831.524-2.002.633-2.022 1.901-.35 1.259 1.66 1.347 1.635 1.377-.394.018-1.191-.53-2.395-1.218-2.674-.896-.363-.936-.741-.141-1.333 1.927-1.436-.132-12.283-3.859-20.326-1.912-4.125-4.078-9.187-4.814-11.25-1.042-2.922-2.936-5.161-2.936-3.472m-354.02 4.246c-.696.838-.994 1.796-.662 2.127.331.331-.055 1.873-.858 3.426-1.726 3.338-1.919 8.521-.353 9.489.753.466.892-.075.435-1.691-.452-1.595-.369-1.937.254-1.04 1.314 1.893 1.751 1.884 3.913-.071 1.44-1.304 2.204-1.451 3.062-.593.859.859 1.545.811 2.752-.19.884-.734 2.695-1.381 4.024-1.44 2.706-.118 5.214-2.113 4.082-3.245-.406-.406-1.206-.076-1.778.733-.872 1.234-.954 1.202-.507-.201.408-1.277-.631-2.09-4.405-3.447-3.435-1.235-4.939-2.325-4.939-3.579 0-2.23-3.251-2.41-5.02-.278m217.344 17.837c.384 1.024.927 4.624 1.206 8 .278 3.377.737 7.172 1.019 8.435l.512 2.297 3.22-2.261c1.77-1.243 3.37-2.616 3.554-3.052.185-.436.711-.561 1.17-.277 1.653 1.022 4.105-2.737 3.799-5.825-.278-2.804-.807-3.22-6.091-4.783-3.183-.942-6.53-2.316-7.437-3.053-1.442-1.173-1.562-1.107-.952.519m-193.869 14.327c-1.176 1.176-1.288 1.797-.422 2.332.856.53.874.919.065 1.419-.641.397-1.47-.27-1.95-1.567-.834-2.254-.835-2.254-1.486.338-.924 3.682.244 8.763 1.872 8.139.722-.277 1.794.394 2.381 1.493.795 1.484.75 2.112-.173 2.446-.818.295-.242 1.515 1.685 3.57 1.61 1.717 2.65 3.399 2.31 3.738-.339.339.256 1.554 1.323 2.699 1.067 1.145 1.94 2.828 1.94 3.739 0 2.677 3.586 5.166 7.442 5.166 4.104 0 5.399 1.226 2.829 2.679-1.453.821-.963 1.132 2.729 1.729 2.475.4 4.707.765 4.96.81 1.033.184 5.038-6.864 5.008-8.816-.031-2.063-.059-2.066-1.5-.161-1.251 1.654-1.468 1.696-1.468.286 0-2.118 7.149-7.104 8.064-5.623.433.7.826.607 1.15-.27.717-1.946-.168-3.834-1.797-3.834-.78 0-1.417-.477-1.417-1.059s-.45-.781-1-.441-1 .121-1-.486c0-.708 1.185-.882 3.298-.486 3.846.722 7.493-1.673 8.001-5.252.174-1.224.606-2.515.961-2.869 1.501-1.501-2.515-3.57-9.26-4.773-3.644-.65-8.94-2.857-10.042-4.185-1.586-1.91-4.958-1.861-4.958.072 0 .837 1.194 3.326 2.653 5.531 3.064 4.63 2.082 8.475-2.456 9.613-3.637.913-17.242-3.614-18.138-6.035-.943-2.549-.195-6.272 1.552-7.722 1.788-1.484 1.762-2.551-.082-3.259-.809-.31-2.192.157-3.074 1.039m74.295 7.427c-2.413 1.801-2.823 1.858-3.357.468-.347-.904-1.74-1.57-3.25-1.553-2.278.027-2.401.172-.893 1.05 2.398 1.397 2.199 2.92-.381 2.92-1.877 0-2.063.417-1.563 3.5.313 1.925.209 3.5-.23 3.5s-.594 1.072-.343 2.383c.25 1.31-.108 2.731-.796 3.156-.906.56-1.096.177-.688-1.382.728-2.783-.824-3.725-2.831-1.718-1.422 1.422-1.421 1.622.008 2.171 2.131.818 2.002 3.371-.176 3.469-1.045.047-1.247.282-.5.583 1.663.671 1.598 3.267-.099 3.919-.742.284-1.386 1.807-1.431 3.384-.091 3.219-2.323 8.046-4.59 9.927-.826.685-1.792 2.569-2.147 4.185-.729 3.32-3.212 4.984-8.42 5.646-1.959.249-4.612 1.122-5.894 1.941-1.282.818-3.026 1.221-3.877.895-2.924-1.123-4.297 1.174-2.839 4.75.715 1.755 1.211 5.779 1.102 8.941-.205 5.92.808 7.174 3.624 4.49.726-.693 3.121-1.756 5.321-2.362 2.2-.607 4.838-1.458 5.863-1.891 1.708-.722 1.806-.421 1.173 3.613-.759 4.838-3.733 8.076-9.286 10.111-1.787.655-3.25 1.55-3.25 1.99 0 2.936-1.902-.065-2.479-3.911-.573-3.82-.894-4.375-1.697-2.939-.545.974-.743 2.418-.439 3.21.304.791.082 1.439-.493 1.439s-.967 1.688-.872 3.75c.246 5.316.193 5.434-1.939 4.293-1.394-.746-2.08-.687-2.506.215-.323.683-.363.054-.089-1.399.522-2.771-2.628-5.859-5.976-5.859-.858 0-1.971-1.081-2.473-2.403-1.4-3.682-2.682-3.867-4.042-.584-.681 1.643-1.872 2.987-2.648 2.987-.775 0-1.679.701-2.007 1.557-.329.857-1.238 1.312-2.021 1.012-.902-.346-1.161-.122-.707.612.488.79.148.941-1.068.474-1.142-.438-2.371-.024-3.414 1.151-.896 1.009-3.5 2.875-5.786 4.146-2.285 1.27-4.617 3.264-5.182 4.429-.965 1.993-1.031 1.951-1.094-.69-.039-1.605-.497-2.544-1.068-2.191-.599.37-1.006-.91-1.015-3.191-.009-2.095-.452-4.484-.985-5.309-.704-1.09-.974-1.142-.985-.191-.008.72-.45 1.04-.982.711-.532-.329-.753-2.043-.49-3.809.262-1.766.209-2.646-.119-1.955-.327.691-1.008 1.001-1.512.69-.534-.331-.428-1.482.254-2.757.645-1.204 1.096-2.302 1.003-2.439-.093-.137-.162-1.488-.154-3 .011-2.005.258-2.368.91-1.338.687 1.086.972.858 1.234-.99.356-2.508 2.752-3.554 5.621-2.453 1.338.514 1.399.802.314 1.473-2.512 1.552-.154 2.875 4.156 2.331 4.459-.562 7.75-2.655 7.75-4.928 0-.74.975-1.345 2.167-1.345 3.333 0 1.406-1.164-3.377-2.04-2.716-.497-4.761-.395-5.574.278-1.661 1.376-6.203-.919-6.248-3.157-.026-1.31-.274-1.26-1.45.292-1.36 1.796-1.441 1.776-1.976-.5-.307-1.305-.472-3.498-.367-4.873.423-5.528-.169-9.557-1.175-8-.533.825-.983 1.05-1 .5-.017-.55-.467-.325-1 .5-.682 1.055-.974 1.118-.985.215-.016-1.361 2.605-5.821 4.722-8.036 1.708-1.787 1.59-2.519-.289-1.797-1.004.385-1.303.192-.845-.548.435-.704.263-.869-.448-.429-.635.392-1.155.267-1.155-.279 0-.545-1.012-1.302-2.25-1.681-3.453-1.059-5.089-2.617-3.669-3.495.646-.399.861-1.234.478-1.855-.383-.62-1.136-.857-1.672-.525-.536.331-1.572.106-2.303-.5-1.03-.855-1.56-.482-2.362 1.664a552.07 552.07 0 01-1.808 4.766c-.425 1.1-.867 2.675-.981 3.5-.115.825-1.338 4.903-2.718 9.062-2.917 8.791-4.346 21.269-2.857 24.938.854 2.103 1.025 1.525 1.079-3.638.036-3.535 1.178-9.896 2.692-15 1.445-4.874 2.843-9.987 3.105-11.362.866-4.536 3.551-9.828 4.753-9.367.745.286 1.094 2.379.943 5.66-.131 2.864-.217 10.607-.191 17.207.025 6.6.023 13.8-.007 16-.029 2.2-.067 7.346-.085 11.437-.018 4.09-.587 10.544-1.266 14.341l-1.234 6.905-1.89-2.341c-1.039-1.288-2.75-4.142-3.801-6.342-1.264-2.644-1.918-3.322-1.93-2-.021 2.259 3.385 8.402 5.634 10.164 1.75 1.37 3.108 17.929 1.383 16.862-.645-.398-.791.482-.403 2.424.391 1.954.206 3.05-.515 3.05-.619 0-1.125.661-1.125 1.469 0 .807.58 1.246 1.289.974 1.368-.525 1.901 17.966.579 20.057-.348.55-.947 2.466-1.332 4.259-.384 1.792-1.039 3.048-1.455 2.791-.417-.257-.718 1.089-.67 2.991.049 1.902.581 3.459 1.183 3.459 1.401 0 4.406-3.294 4.406-4.829 0-2.145 1.481-1.163 3.05 2.022 1.518 3.081 1.708 3.151 9 3.321 7.156.167 13.556 2.425 18.498 6.526 2.324 1.929 7.7 2.999 9.124 1.817 1.053-.874 1.328-.485 1.328 1.882 0 2.614.299 2.927 2.411 2.523 1.707-.327 2.73.133 3.499 1.571.599 1.117 1.965 2.31 3.038 2.65 1.072.341 2.228 1.496 2.568 2.568.361 1.138 1.516 1.949 2.774 1.949 2.151 0 2.151-.003.12-1.425-1.354-.949-1.962-2.37-1.818-4.25.303-3.928 2.379-8.958 3.215-7.791.381.531 2.043 1.057 3.693 1.167 2.835.191 2.893.122 1.059-1.25-1.451-1.085-1.565-1.451-.45-1.451.82 0 1.971.48 2.558 1.067.757.757 1.243.611 1.669-.5.424-1.105.004-1.567-1.426-1.567-1.339 0-1.784-.424-1.309-1.25.396-.687.372-.937-.053-.554-.425.382-2.185-.637-3.91-2.266-2.352-2.219-2.813-3.167-1.841-3.784 1.038-.658.992-1.076-.23-2.09-1.015-.843-1.382-2.407-1.093-4.662.258-2.016 0-3.394-.636-3.394-.589 0-.836-.9-.549-1.999.288-1.099.143-2.234-.321-2.521-.465-.287-.674-1.413-.464-2.501.21-1.088-.043-1.979-.561-1.979-.519 0-.943 1.125-.943 2.5s-.388 2.5-.862 2.5c-.475 0-.692-1.238-.483-2.75.208-1.512.522-3.763.697-5.002.432-3.062 1.329-3.758 3.027-2.349.784.652 1.622.828 1.86.393.238-.436.296-.229.128.458-.167.688.132 1.25.664 1.25.533 0 .962-1.687.954-3.75-.012-2.813-.262-3.375-1-2.25-.82 1.248-1.133 1.271-1.864.137-.555-.861-1.015-.965-1.25-.282-.244.712-.883.756-1.871.128-1.269-.806-1.221-.955.309-.968.995-.008 1.535-.458 1.2-1-.377-.611.55-.753 2.441-.375 1.954.391 3.05.206 3.05-.515 0-.619-.787-1.143-1.75-1.165-2.865-.066 3.095-2.888 7.212-3.415 1.976-.253 3.939-.675 4.363-.937.424-.262 1.424-.063 2.223.443 1.166.737 1.058.924-.548.949-1.513.023-1.668.241-.637.894 1.151.729 1.151.959 0 1.473-1.344.601 3.505-.054 7.887-1.065 2.504-.577 2.87.671 1.142 3.899-.998 1.866-.876 2.014 1.25 1.503 1.297-.312 4.03-.87 6.074-1.241 3.18-.576 3.515-.875 2.322-2.068-.767-.767-2.133-1.395-3.034-1.395-1.217 0-1.479-.58-1.019-2.25l.621-2.25-2.053 2.361c-2.01 2.311-2.053 2.316-2.053.25 0-2.093-3.109-2.805-9.359-2.145-1.053.111-1.584-.249-1.225-.831.35-.565 2.338-.959 4.418-.876 2.081.083 5.51-.669 7.62-1.67 2.742-1.301 5.151-1.666 8.442-1.277 2.532.299 4.042.314 3.354.033-2.235-.915-1.32-2.028 1.5-1.826 1.512.108 4.599.711 6.86 1.34 2.26.628 5.635 1.317 7.5 1.53 1.864.213 3.78.438 4.257.499.476.062.63 1.014.342 2.116-.389 1.489.07 2.153 1.789 2.585 1.272.319 2.647 1.555 3.056 2.746 2.226 6.487 2.127 6.406 3.555 2.915.731-1.788 1.681-3.25 2.11-3.25.43 0 .781-.45.781-1s-.927-1-2.059-1c-1.132 0-1.82-.387-1.528-.859.869-1.406-4.735-5.719-6.881-5.297-1.635.321-1.761.137-.744-1.089.687-.827 1.112-3.576.968-6.257-.151-2.824.199-4.944.855-5.177 1.732-.616 4.788 4.808 4.841 8.593.054 3.861 2.479 5.607 2.666 1.919.101-1.983.233-1.883.882.667l.763 3 .108-3.5c.15-4.887-.972-11.056-1.905-10.479-1.217.752-2.148-8.441-1.462-14.428.351-3.062.104-7.557-.569-10.363-.978-4.078-.945-5.112.188-5.843 1.164-.75 1.158-1.028-.04-1.799-.779-.502-1.555-2.415-1.724-4.25-.569-6.207-1.576-10.854-2.469-11.406-.49-.303-.89-1.627-.89-2.944 0-2.519-.71-4.527-4.769-13.488-1.37-3.025-2.579-6.738-2.686-8.25-.606-8.54-.609-8.547-1.906-4.25-1.293 4.284-1.705 4.084-3.584-1.745-1.005-3.119-.945-4.268.356-6.877 1.67-3.347 1.225-7.419-.943-8.641-2.145-1.208-3.013-6.237-1.076-6.237.884 0 1.608-.675 1.608-1.5 0-1.856.082-1.871-3.25.615m215.058 11.876c1.873 1.561 2.109 2.295 1.254 3.894-.58 1.083-.777 2.694-.437 3.58.343.894-.157 2.465-1.125 3.535-.958 1.059-1.477 2.617-1.153 3.463.325.845.17 1.537-.344 1.537s-.103 2.363.915 5.25c3.119 8.855 5.286 28.399 3.909 35.258-.911 4.534-.869 9.104.192 20.898.747 8.301 1.256 17.344 1.131 20.094l-.227 5 2.419-4.5c2.066-3.844 4.437-13.866 3.844-16.25-.102-.413.326-.75.952-.75.808 0 .933-1.955.429-6.75-.389-3.713-.9-9.45-1.134-12.75-.234-3.3-.66-7.012-.948-8.25-.373-1.604-.07-2.25 1.055-2.25.868 0 1.322.414 1.01.919-.313.506.035 1.523.772 2.26.737.738 1.663 2.627 2.058 4.199.395 1.572.992 2.584 1.327 2.249.335-.335 1.213-.108 1.951.504 1.081.897 1.342.408 1.342-2.509 0-2.783-.406-3.622-1.75-3.623-1.415 0-1.722-.815-1.605-4.25.209-6.139.285-6.405 1.355-4.749.755 1.169.973.893.985-1.25.008-1.513-.322-2.697-.735-2.632-2.227.352-2.859-.471-2.966-3.868-.232-7.33-.627-10.25-1.389-10.25-.424 0-.722-.787-.663-1.75.06-.963-.225-4.338-.634-7.5-.636-4.928-.512-5.75.869-5.75 1.369 0 1.316-.317-.355-2.11-1.081-1.16-1.847-2.623-1.702-3.25.144-.627.073-.8-.159-.384-.79 1.417-2.251-.367-2.251-2.747 0-2.81-4.677-6.525-8.154-6.476l-2.346.034 2.308 1.924M345 187.434c0 .789-1.913 2.718-4.25 4.288-2.651 1.78-4.291 3.659-4.36 4.996-.061 1.179-1.114 3.844-2.341 5.923-1.989 3.372-2.761 6.005-2.98 10.168-.038.72-.453 1.072-.923.781-.989-.611-3.146 3.679-3.146 6.257 0 .964-.396 2.18-.879 2.703-.484.522-1.417 2.75-2.074 4.95-2.083 6.978-3.254 9.49-4.159 8.931-.484-.3-1.782-.718-2.884-.93-2.415-.465-2.862 2.956-.504 3.861 1.974.757 1.903 1.804-.673 9.968-1.742 5.52-1.939 7.261-.992 8.778.98 1.568.9 1.892-.464 1.892-1.072 0-.389.999 1.96 2.865 1.983 1.576 3.407 3.064 3.164 3.307-.243.242.938 1.951 2.623 3.796 3.635 3.98 4.324 3.353 5.277-4.812.808-6.916 3.332-24.098 3.842-26.156 2.609-10.523 8.485-26.797 10.547-29.215.827-.97 1.252-2.816.978-4.25-.267-1.394-.102-2.535.365-2.535.468 0 .816-1.012.773-2.25-.043-1.238.618-4.05 1.467-6.25 1.787-4.626 2.075-8.5.633-8.5-.55 0-1 .645-1 1.434m137.116 17.781c-.064 1.493.595 4.81 1.465 7.371.869 2.561 1.756 5.389 1.971 6.285.216.896.87 3.601 1.454 6.011 1.204 4.96.516 6.552-1.588 3.675-1.318-1.803-1.418-1.68-1.418 1.752 0 3.887-.739 4.503-2.925 2.441-1.053-.993-1.419-.995-1.78-.009-.521 1.419-2.515-.124-3.564-2.759-.812-2.039.04 12.473 1.058 18.018.455 2.475.47 6.075.033 8-1.34 5.918-1.995 15.161-.804 11.357 1.11-3.546 3.917-5.312 4.093-2.576.06.946.68-.614 1.378-3.466.721-2.951 2.324-6.181 3.722-7.5 5.406-5.099 6.47-24.81 2.056-38.092-1.504-4.523-3.027-8.448-3.385-8.723-.358-.275-.875-1.4-1.15-2.5-.388-1.55-.526-1.389-.616.715m-89.167 4.035c-.028.137-.301 2.275-.608 4.75-1.009 8.144-5.341 10.152-5.341 2.475 0-3.969-.324-4.648-2.639-5.528-1.451-.552-2.894-.748-3.206-.435-.312.312.425.827 1.639 1.144 3.708.97 1.311 5.231-2.988 5.312-2.643.05-6.328 4.094-8.229 9.032-.953 2.475-2.611 6.188-3.685 8.25-1.073 2.063-1.526 3.75-1.005 3.75.52 0 1.173-.562 1.451-1.25.277-.687.54-.293.583.878.087 2.353-2.305 4.871-3.768 3.967-1.412-.873-4.153 3.938-4.153 7.288 0 4.137-.923 6.084-2.583 5.447-.999-.383-1.417-2.266-1.417-6.378 0-3.209-.45-6.112-1-6.452-.55-.34-.993-1.379-.985-2.309.014-1.457.15-1.484.985-.191.838 1.297.971 1.274.985-.168.008-.918.305-2.425.66-3.349.574-1.496.397-1.533-1.605-.332-2.154 1.291-2.23 1.785-1.761 11.449.47 9.681 1.876 15.04 3.658 13.939.46-.284 1.446.218 2.192 1.116 1.201 1.448 1.101 1.553-.887.922-3.181-1.01-2.808.884.662 3.355 3.852 2.743 4.681 2.61 2.688-.432-1.87-2.854-1.048-3.208 2.185-.943 2.682 1.878 3.021 4.631.473 3.83-1.653-.52-1.653-.47.014.902 1.064.876 1.61 2.395 1.377 3.831-.633 3.899 2.324 7.267 8.035 9.15.97.32 6.628 5.301 12.756 11.23 2.843 2.75 6.362 5.9 7.822 7 1.459 1.1 2.674 2.514 2.7 3.143.119 2.954 7.275 3.128 10.156.247 1.713-1.713 1.992-2.85 1.483-6.034-.345-2.158-.197-4.727.329-5.71 1.47-2.747 2.152-18.968.715-17.003-.753 1.031-1.815 1.312-3.138.833-1.099-.399-2.406-.488-2.904-.196-.497.291-.601.038-.23-.561.434-.702-1.025-1.318-4.096-1.729-2.623-.351-6.074-1.055-7.668-1.564-1.595-.509-4.769-.926-7.055-.926-3.354 0-4.892-.675-7.976-3.5-3.007-2.754-3.422-3.506-1.946-3.53 1.803-.03 1.805-.072.051-1.092-1.004-.584-1.928-.908-2.053-.72-.126.188-.759 1.467-1.406 2.842-1.617 3.433-.563-3.737 1.395-9.5.748-2.2 1.366-5.675 1.374-7.721.021-5.141 4.434-14.647 8.302-17.882 3.928-3.285 5.748-1.66 2.16 1.929-4.951 4.951-5.917 15.547-1.949 21.385 1.373 2.022 2.644 4.714 2.824 5.982.2 1.411 1.659 3.023 3.753 4.151l3.425 1.843-3.375-.593c-1.856-.327-6.028-1.785-9.271-3.24-3.242-1.455-6.153-2.388-6.468-2.073-1.267 1.267 10.851 5.707 22.864 8.377 8.048 1.789 12.75 3.296 12.75 4.088 0 .69.45 1.254 1 1.254.569 0 1-2.939 1-6.816v-6.816l-5.5-2.28c-3.025-1.253-5.26-2.667-4.968-3.14.293-.473 1.133-.63 1.869-.348.78.3 1.565-.363 1.887-1.593.514-1.964.265-2.062-3.71-1.466-4.058.608-4.322.491-5.541-2.451-.704-1.7-1.675-3.09-2.158-3.09-.484 0-.879-1.602-.879-3.559 0-2.175.398-3.313 1.025-2.926.563.349.901.076.75-.606-.708-3.196 12.28-3.304 14.202-.119.742 1.23.901-.616.567-6.571-.5-8.915-.893-10.219-3.077-10.219-.779 0-2.154-1.463-3.055-3.25-2.281-4.52-6.438-8.75-8.599-8.75-.997 0-1.836.113-1.864.25M160.42 224.347c-.284.74-.611 2.653-.728 4.25-.16 2.205-1.037 3.316-3.644 4.621-4.724 2.365-5.58 4.219-2.578 5.587 2.193.999 2.434.858 2.718-1.59.292-2.511.655-2.696 5.584-2.846 2.899-.088 5.936-.712 6.75-1.387.813-.675 1.485-.834 1.493-.354.037 2.118 1.956-2.388 1.97-4.628.015-2.225-.396-2.5-3.734-2.5-2.468 0-3.665-.428-3.501-1.25.338-1.691-3.678-1.601-4.33.097m264.791 30.897c-2.147 2.59-3.212 12.627-2.955 27.833.243 14.339-.913 21.18-3.488 20.637-.56-.117-1.224.349-1.476 1.036-.292.796.48 1.25 2.125 1.25 1.602 0 2.583-.556 2.583-1.465 0-.805.89-1.941 1.977-2.523 3.562-1.906 5.405-6.9 5.17-14.012-.108-3.267.122-4.089.837-3 .791 1.205 1.012 1.008 1.119-1 .124-2.325.187-2.29.897.5.754 2.964.765 2.954.882-.809.071-2.31-.275-3.566-.882-3.191-.567.351-1-.49-1-1.941 0-1.407.41-2.559.912-2.559.501 0 .76-.788.576-1.75a29.253 29.253 0 01-.411-3.461c-.043-.941-1.041-2.609-2.219-3.707-1.813-1.689-2.045-2.7-1.512-6.59.368-2.683.25-4.36-.282-4.031-.502.31-1.059-.187-1.238-1.104-.293-1.502-.455-1.513-1.615-.113m-144.536 11.473c-.903 1.461-1.908 8.283-1.221 8.283.373 0 1.555-.47 2.627-1.043 2.372-1.27 12.369 4.833 13.215 8.067.6 2.293.341 2.39-2.178.818-1.347-.842-3.261-.881-6.987-.144-3.576.707-5.131.694-5.131-.042 0-1.506-2.328.972-2.59 2.757-.169 1.148 1.271 1.399 7.225 1.26 5.641-.131 7.658.186 8.356 1.314.973 1.572 14.807 3.285 16.292 2.016 1.239-1.059-.233-3.757-2.352-4.311-1.062-.278-1.931-1.045-1.931-1.705 0-.661.661-.947 1.468-.638.807.31 1.705.18 1.994-.288.29-.468-.174-1.12-1.031-1.449-.871-.334-1.241-1.11-.84-1.759.452-.731.281-.892-.461-.433-.698.431-1.067.207-.905-.55.151-.704-.25-1.3-.892-1.325-.641-.025-1.496-.374-1.898-.777-.403-.402-1.79-.466-3.083-.141-2.571.645-3.065-.487-1.102-2.524 1.011-1.049.868-1.225-.75-.921-1.1.206-2.872-.425-3.939-1.403-1.066-.979-2.544-1.779-3.285-1.779-.74 0-2.343-.628-3.561-1.396-3.07-1.935-6.451-2.841-7.04-1.887M198 299.159c-3.025 1.092-5.928 2.403-6.45 2.913-.522.511-1.676.928-2.563.928-2.212 0-7.468 5.585-6.069 6.449 1.824 1.127 1.2 2.723-.814 2.084-1.542-.489-1.869-.128-1.75 1.932.08 1.393.536 2.534 1.013 2.534.476.001.631.901.343 2.001-.287 1.1-.062 2 .5 2 .563 0 .796.871.517 1.935-.278 1.065.145 2.865.94 4 1.858 2.653.345 2.649-3.032-.008-1.449-1.139-2.621-1.702-2.603-1.25.055 1.435 2.641 4.323 3.87 4.323.65 0 2.151.903 3.336 2.007 2.556 2.381 6.919 3.794 15.762 5.105 9.754 1.445 9.848 1.43 19.15-2.996 4.757-2.264 9.093-4.116 9.635-4.116 1.901 0 4.404-5.111 3.76-7.678-.403-1.603-.255-2.261.415-1.847.646.4 1.002-.61.94-2.666-.093-3.111-.147-3.159-.9-.809-.762 2.379-.805 2.344-.9-.719-.078-2.518.237-3.089 1.451-2.623 2.724 1.045.517-4.773-3.331-8.781-2.351-2.449-4.095-3.461-5.382-3.124-1.047.273-2.676-.145-3.621-.929-1.176-.977-4.16-1.411-9.467-1.375-4.262.028-7.749-.286-7.75-.699 0-1.016-.638-.888-7 1.409m79.71-.846c-.756 1.969.411 7.085 1.804 7.913.913.542.981 2.048.272 5.953-.832 4.576-.722 5.396.882 6.577 1.593 1.174 1.857 1.115 2.027-.453.107-.992.484-4.442.836-7.667l.641-5.864 4.164.724c2.29.398 4.614.687 5.164.641.55-.046 3.584-.221 6.743-.389 6.809-.363 10.434-2.78 6.958-4.641-1.118-.598-3.41-.927-5.093-.731-1.683.196-2.856.026-2.607-.378.25-.403-.324-.686-1.274-.627-.95.059-3.95-.533-6.666-1.315-3.465-.997-5.048-1.094-5.305-.324-.25.75-1.375.807-3.554.182-4.127-1.183-4.393-1.162-4.992.399m-188.022 1.409c-2.195.33-2.572.713-1.719 1.741.602.725 1.292 3.505 1.534 6.178.962 10.644 2.403 17.129 3.435 15.459.44-.712.687 4.486.549 11.552-.2 10.204-.043 12.05.761 8.968 1.016-3.893 4.077-7.962 5.169-6.87.321.321.583-2.218.583-5.642 0-4.298-.343-6.014-1.107-5.542-.761.47-.876-.059-.368-1.691.407-1.306 1.133-2.526 1.613-2.71.481-.185.586-.803.233-1.373-.352-.571-1.199-3.12-1.881-5.665-1.197-4.464-1.278-4.539-2.302-2.127-.957 2.253-1.056 2.056-1.009-2 .029-2.475.259-3.712.51-2.75.523 1.999 2.314 2.387 2.305.5-.003-.687-.474-2.937-1.047-5-1.071-3.857-1.248-3.931-7.259-3.028m365.23 25.768c-1.704 3.02-5.085 7.595-7.514 10.166-2.66 2.815-4.845 6.3-5.494 8.759-2.239 8.484-4.131 13.445-5.818 15.256-.96 1.03-1.568 2.4-1.353 3.045.844 2.533-1.764 5.284-5.024 5.299-3.827.019-6.238 1.329-5.284 2.873.387.626.036 1.112-.802 1.112-.82 0-1.634-.974-1.809-2.165-.181-1.22-1.67-2.851-3.416-3.739-1.702-.865-4.567-3.491-6.366-5.835-1.8-2.343-3.782-4.26-4.405-4.258-.623.001-2.933-.86-5.133-1.915-2.2-1.055-5.125-2.395-6.5-2.978-1.375-.584-3.962-2.255-5.75-3.714-5.141-4.195-3.765-1.485 2.845 5.604 3.333 3.575 7.378 9.08 8.989 12.234l2.929 5.734-3.629 1.516c-3.978 1.662-7.417 1.829-17.685.86-4.752-.449-6.484-.959-5.75-1.693.578-.578 1.015-2.199.972-3.601l-.079-2.55-.986 2.694c-.688 1.882-1.493 2.532-2.671 2.155-1.262-.403-1.354-.3-.368.407.997.715.587 1.248-1.682 2.188-1.911.792-2.804 1.754-2.461 2.649.297.774.042 1.407-.567 1.407a1.11 1.11 0 01-1.107-1.108c0-.724-.954-.849-2.75-.361-1.512.411-3.538.713-4.5.671-.978-.044-1.785.667-1.829 1.61-.046.986-.284 1.182-.572.472-.344-.848-1.655-.448-4.326 1.319-3.338 2.209-4.716 2.495-10.678 2.217-3.765-.176-7.089-.646-7.388-1.044-.298-.398-3.759-1.023-7.691-1.388-6.701-.623-7.34-.504-10.199 1.902-2.545 2.142-2.762 2.635-1.309 2.981 1.388.33 1.202.637-.911 1.51-3.832 1.583-4.86 3.646-1.496 3.003 2.71-.518 3.648.58 1.399 1.637-.687.324.075.407 1.693.185 1.686-.23 4.444.402 6.456 1.48l3.511 1.882-3.205.641c-5.174 1.035-3.682 2.115 2.545 1.843 3.163-.139 5.656-.691 5.541-1.228-.129-.603 2.946-.787 8.059-.48 6.761.405 8.564.199 9.895-1.132 1.319-1.319 4.709-1.729 17.941-2.166 8.973-.296 19.936-1.154 24.364-1.907 8.617-1.465 33.761-.986 31.266.596-.724.459-2.355.841-3.625.85-1.282.008-2.034.46-1.691 1.015.34.55 2.954 1.016 5.809 1.035 2.855.02 6.316.679 7.691 1.465 3.585 2.05 4.932 1.787 2.079-.405l-2.42-1.861 3.42-.806c1.882-.443 4.035-.689 4.785-.547 3.297.626 12.136-4.064 12.136-6.438 0-1.279-.45-2.603-1-2.943-.55-.34-.968-1.604-.93-2.809.068-2.112.101-2.119.928-.191.667 1.557.858 1.115.865-2 .004-2.2.031-6.025.06-8.5.029-2.475-.133-7.762-.36-11.75-.231-4.069-.006-7.25.513-7.25.508 0 .924.354.924.787 0 .433.914.856 2.03.94 1.394.105 1.942-.377 1.75-1.537-.187-1.13.3-1.593 1.47-1.396 2.17.364 2.376-2.616.237-3.437-.832-.32-2.125-.073-2.873.548-2.294 1.904-4.306.354-3.822-2.943.239-1.629.82-2.962 1.29-2.962.47 0 .602-.788.292-1.75-.477-1.485-.395-1.523.543-.25.856 1.161 1.047.484.844-3-.184-3.173.108-4.426.989-4.25.688.137 1.267-.312 1.288-1 .021-.687.282-2.937.581-5 .739-5.096-.053-4.723-3.701 1.74m-246.409 21.127c-1.372 1.003-1.496 1.389-.45 1.405 2.049.032 6.56 3.693 5.659 4.593-.894.894-11.564.848-17.218-.074-2.2-.359-7.491-.664-11.758-.679-4.449-.015-7.517-.418-7.191-.944.312-.505-.57-.918-1.961-.918-1.877 0-2.373.401-1.93 1.557.336.874 1.249 1.308 2.08.989 1.012-.388 1.303-.099.915.911-.781 2.035.9 2.852 3.264 1.587 1.209-.648 2.183-.688 2.544-.104.321.519 2.588 1.245 5.038 1.612 2.45.368 6.122 1.242 8.16 1.942 2.138.735 8.209 1.255 14.355 1.228 5.858-.026 11.176.279 11.819.676.721.446 1.551-.282 2.167-1.903 1.339-3.522 1.351-3.495-1.502-3.495-1.502 0-2.5-.571-2.5-1.43 0-.787-1.012-1.575-2.25-1.75-1.238-.176-2.67-1.276-3.183-2.444-1.448-3.296-3.836-4.384-6.058-2.759M136.5 349.32c7.765 1.672 10.78 3.539 9.979 6.18-.334 1.1-.861 3.913-1.173 6.25-.609 4.57-2.762 5.651-5.6 2.813-.79-.79-2.735-1.417-4.322-1.393-1.586.024-6.409-.942-10.717-2.147-8.862-2.478-11.128-2.211-3.939.464 2.624.977 5.199 2.167 5.722 2.644.523.478 1.785.869 2.805.869 2.941 0 10.745 3.914 10.745 5.389 0 2.588 15.403 3.19 15.635.611.294-3.275.482-3.43 1.897-1.559 1.28 1.693 1.468 1.725 1.468.25 0-1.024.788-1.691 2-1.691 2.411 0 2.478.379.429 2.429-1.429 1.428-1.429 1.571 0 1.571.864 0 1.571-.415 1.571-.922 0-1.44 6.83-3.337 9.553-2.654 1.346.338 2.447.198 2.447-.311s-2.25-1.235-5-1.613c-4.344-.597-5-.988-5-2.977 0-1.449-.735-2.482-2-2.813-1.197-.313-2-1.364-2-2.616 0-1.152-.482-2.094-1.071-2.094-.59 0-1.685-.613-2.433-1.361-.749-.749-3.239-1.662-5.534-2.029s-5.436-1.321-6.981-2.12c-1.545-.799-5.435-1.679-8.645-1.957l-5.836-.504 6 1.291m-100.54 6.329c-2.648.717-5.076 6.72-7.48 18.496-1.275 6.245-2.993 14.055-3.818 17.355-1.328 5.308-2.032 11.948-1.755 16.532.071 1.164 1.383 1.551 5.463 1.61 4.766.069 5.315-.132 4.882-1.788-.269-1.025.014-2.47.629-3.21.614-.74 1.054-3.1.977-5.245-.112-3.156.919-15.456 1.669-19.899l.336-2c.092-.55.598-.325 1.125.5.729 1.143.953.786.941-1.5-.009-1.65.459-5.7 1.04-9 1.382-7.85 1.377-9.378-.035-11.08-1.21-1.457-1.343-1.483-3.974-.771m217.587 13.453c-.42 1.319-.715 2.735-.655 3.148.101.704-1.456 1.135-3.142.868-.412-.065-.75.782-.75 1.882 0 1.1-.45 2-1 2s-.916.337-.814.75c.102.413-.614 2.55-1.591 4.75-.976 2.2-1.752 5.896-1.723 8.214.03 2.318-.38 4.482-.909 4.809-.53.327-.963 1.074-.963 1.658 0 .699.486.661 1.416-.111 1.131-.939 1.548-.76 2.072.892.362 1.141 1.141 1.767 1.739 1.398.645-.399.794-.202.368.485-.786 1.273.675 1.457 4.155.525 1.565-.42 2.285-1.405 2.366-3.237.075-1.694.279-2.009.573-.883.561 2.146 1.897 2.271 2.673.25.361-.943-.011-1.5-1.003-1.5-1.214 0-1.484-.806-1.169-3.5.225-1.925.139-3.5-.19-3.5-1.185 0 1.54-12.557 3.25-14.973.962-1.359 1.75-2.855 1.75-3.323 0-.468-.788-.689-1.75-.491-.962.198-2.243-.286-2.845-1.074-.906-1.188-1.226-1.021-1.858.963m22.71 12.152c-.134 4.533-.627 8.369-1.097 8.526-.851.284-.444 8.27.468 9.182.265.264.794.028 1.176-.524.383-.553 1.371-.962 2.196-.91.825.052 2.031-.3 2.681-.782.649-.482 2.562-.915 4.25-.963 2.894-.082 4.153-1.218 2.161-1.95-1.931-.708-1.616-4.256.408-4.601 1.533-.26 1.674-.117.604.613-1.095.748-.711 1.307 1.783 2.597 1.748.904 2.912 2.074 2.587 2.601-.707 1.143 2.508 1.255 4.251.148.673-.428 1.361-1.658 1.529-2.734.167-1.077.671-2.545 1.119-3.264 1.255-2.011-.187-6.161-3.174-9.14-2.553-2.545-10.689-5.487-12.345-4.463-.421.26-2.416-.216-4.432-1.058-2.016-.843-3.724-1.529-3.794-1.526-.07.003-.237 3.715-.371 8.248m26.978-1.413c-1.437.904-1.446 9.91-.011 10.797 1.639 1.013 6.665-1.803 9.238-5.177 3.24-4.248 3.239-4.252-1.212-5.003-2.062-.348-4.425-.808-5.25-1.022-.825-.215-2.069-.032-2.765.405m-194.57 28.191c-1.055 2.287-2.291 3.699-2.905 3.32-.632-.391-.777-.189-.355.493.392.635.309 1.155-.185 1.155-1.355 0-3.22 4.699-3.22 8.114 0 3.347-.275 3.348 8.5-.026 5.426-2.086 5.709-2.831 3.457-9.088-2.079-5.776-2.281-6.468-2.116-7.25.485-2.289-1.602-.133-3.176 3.282m64.887.107c-.434 1.045-1.474 1.478-2.867 1.193-1.682-.344-1.505-.056.769 1.249 2.026 1.164 3.073 1.339 3.333.558.209-.627.875-1.139 1.481-1.139 1.395 0 10.062 4.115 10.741 5.101.281.406 2.979 1.712 5.998 2.902 3.018 1.189 5.994 2.583 6.612 3.096.618.513 3.473 1.63 6.344 2.483 4.904 1.456 5.304 1.44 6.597-.266 2.26-2.982 1.82-7.199-.81-7.748-1.238-.258-9.201-2.096-17.696-4.084-8.495-1.988-16.236-3.408-17.202-3.156-.966.253-1.95-.055-2.188-.684-.264-.7-.695-.508-1.112.495m257.497 47.742c-1.402 3.385-6.062 4.606-11.284 2.957-1.796-.568-3.94-1.151-4.765-1.296-.825-.145-2.175-.546-3-.891-2.065-.863-4.506-1.012-11.5-.701l-6 .266 7.41 1.352c8.431 1.539 11.836 3.496 4.677 2.689-2.523-.284-4.587-.24-4.587.1 0 1.098 6.748 3.472 10.676 3.756 4.045.292 5.725-1.092 2.648-2.18-1.289-.457-.707-.778 1.987-1.096 2.096-.247 4.035-.087 4.309.357.274.443-.091.836-.811.874-.72.037-.297.556.941 1.152 1.238.597 2.25 1.467 2.25 1.933 0 .466.788.849 1.75.852.962.003 3.55 1.114 5.75 2.469 5.058 3.115 6.984 3.299 5.5.526-.82-1.531-.76-2 .252-2 .752 0 1.421-1.294 1.551-3 .126-1.65-.228-3-.787-3s-1.016-.689-1.016-1.531c0-.843-.675-1.791-1.5-2.107-.825-.317-1.5-1.428-1.5-2.469 0-2.821-1.594-2.288-2.951.988m-21.366 13.769c-.358.358.382 1.596 1.644 2.75 3.006 2.751 8.805 4.868 10.017 3.656.874-.874 3.656.961 3.656 2.413 0 .337.951 1.898 2.113 3.469 1.784 2.414 2.535 2.736 4.834 2.077 3.264-.936 6.053.4 6.053 2.9 0 .998 1.001 3.088 2.225 4.643 1.763 2.242 1.873 2.694.532 2.179-.931-.357-1.927-.27-2.214.193-.286.463.376 1.077 1.472 1.364 2.72.711 1.807 2.666-4.112 8.807-5.446 5.65-6.434 5.635-7.405-.11-.371-2.2-1.038-3.775-1.482-3.501-.443.274-1.064-.174-1.38-.996-.937-2.443-3.609-1.705-5.433 1.5-2.221 3.903-3.547 3.784-6.104-.551-2.122-3.596-2.995-7.304-1.047-4.443.785 1.152.955.803.735-1.5-.333-3.485-2.91-4.106-3.742-.901-.468 1.803-1.206 2.066-5.225 1.86-10.434-.533-1.127 6.319 15.68 11.543 2.2.684 4.9 1.715 6 2.292a2426 2426 0 018.264 4.377c7.319 3.889 10.389 4.155 13.197 1.14 2.715-2.914 2.573-5.187-.427-6.793-1.356-.726-2.209-1.735-1.895-2.243.314-.508-.453-2.013-1.705-3.345-1.251-1.332-2.073-2.625-1.825-2.873.8-.799 8.322-.909 10.641-.154 2.109.686 2.771-.049 2.375-2.634-.062-.402 1.01-1.466 2.381-2.365 3.29-2.156 3.709-8.535.506-7.697-1.261.33-2.214-.07-2.607-1.094-.669-1.744-4.913-2.218-5.878-.657-.797 1.29-2.998.363-9.527-4.013-10.268-6.884-28.089-13.521-30.317-11.293m-233.009 9.1c-.98 1.657-1.795 9.292-1.194 11.186.392 1.236 2.071 2.411 4.33 3.03 6.291 1.722 9.122 4.808 10.121 11.034 1.487 9.262 2.837 11.301 7.024 10.609 1.95-.323 5.944-.592 8.877-.598l5.331-.011-2.229-3.75c-1.226-2.062-5.987-7.584-10.581-12.27-4.594-4.686-8.353-8.772-8.353-9.08 0-.309-2.139-2.887-4.753-5.73-4.356-4.739-7.443-6.33-8.573-4.42m292.841 27.56c-1.533 3.67-4.09 5.754-6.146 5.011-.622-.224-1.437.814-1.812 2.307-.879 3.502-7.52 12.061-9.865 12.712-1.387.386-1.59.928-.872 2.331 4.583 8.958 6.307 19.631 4.326 26.778-.914 3.298-.826 4.247.535 5.75 2.739 3.027 3.347 2.078 3.17-4.949-.212-8.429.62-11.079 3.723-11.858 2.907-.73 7.426 1.886 7.426 4.298 0 .904.255 1.388.568 1.076 1.27-1.271 1.462-11.462.35-18.628-1.334-8.592-1.274-16.531.173-23.021 1.239-5.556.395-6.524-1.576-1.807M200.25 516.807c-2.643.192-4.25.795-4.25 1.597 0 1.819 2.903 7.423 4.317 8.334.651.419 2.05 2.337 3.109 4.262l3 5.449c3.287 5.967 4.253 5.949 4.876-.091.94-9.108-.227-18.665-2.091-17.118-1.274 1.057-1.397.922-.821-.894.734-2.311 1.232-2.217-8.14-1.539m157.797 35.11c-.026 1.329-.358 2.106-.737 1.726-1.647-1.646-3.048 4.815-1.648 7.597.758 1.506 1.366 3.081 1.35 3.5-.016.418.646 1.548 1.47 2.51.824.962 1.262 1.75.973 1.75-.289 0-.044.9.545 2 1.104 2.062-.298 2.944-1.525.959-.354-.572-2.454-2.183-4.668-3.581-6.067-3.83-9.676-2.35-8.832 3.622.319 2.258 6.724 8 8.924 8 .495 0 1.837 1.8 2.984 4 2.062 3.955 2.063 4 .101 4-1.185 0-1.984.671-1.984 1.667 0 .916.255 1.411.567 1.099.313-.312 2.121-.139 4.02.386 2.716.75 3.782.622 5.004-.6 2.108-2.108 3.748-1.957 3.16.291-.979 3.743 6.191 5.847 15.898 4.665 6.037-.735 6.925-2.334 5.094-9.178-.82-3.066-1.681-4.33-2.95-4.33-1.562 0-1.774-.871-1.643-6.75.139-6.22.199-6.397.776-2.25.468 3.368.776 1.357 1.225-8 .654-13.639.726-13.444-5.314-14.41-3.375-.54-4.641-.121-9.612 3.181-3.149 2.091-6.271 4.14-6.938 4.552-.801.494-2.058-.876-3.703-4.037-2.016-3.873-2.5-4.325-2.537-2.369m82.63 22.684c.338.88-.014 1.999-.781 2.485-1.083.685-1.102.887-.087.899.72.008 1.051.433.735.943-.315.51.221 1.185 1.191 1.498 4.58 1.481 8.752 13.208 7.855 22.074-.743 7.332-1.8 11.978-3.255 14.296-.852 1.357-1.164 3.196-.764 4.5.373 1.212.324 1.869-.107 1.46-.432-.409-1.413.154-2.181 1.25-2.093 2.988-2.756 2.446-3.04-2.482-.21-3.632.024-4.359 1.25-3.888 1.647.632 2.009-1.297.646-3.446-1.181-1.862-4.488 3.42-4.573 7.306-.057 2.616-.389 2.959-2.566 2.659-1.375-.19-2.65-.753-2.833-1.25-.455-1.233-3.167-1.152-3.167.095 0 .55-.765 1-1.7 1-1.288 0-1.419.281-.542 1.158.845.845 1.515.86 2.483.057 1.687-1.4 3.171-.349 3.571 2.527.234 1.685-.077 2.094-1.25 1.643-1.273-.488-1.562.232-1.562 3.886 0 2.766-.575 4.961-1.5 5.729-.825.685-1.5 1.928-1.5 2.762 0 .835-.654 2.017-1.453 2.628-1.231.94-2.101 6.301-2.493 15.36-.03.688-.954 1.25-2.054 1.25-1.1 0-2 .664-2 1.475 0 1.083-.746 1.326-2.809.913-2.497-.499-3.004-.136-4.565 3.275-.966 2.11-3.341 5.637-5.278 7.837-3.429 3.894-3.51 3.927-3.069 1.226.249-1.525.123-2.977-.279-3.226-1.136-.702-4.279 3.24-3.539 4.437.39.631-.261 1.063-1.602 1.063-1.706 0-1.977.282-1.106 1.153.777.777.841 1.738.194 2.947-.71 1.326-.539 2.029.656 2.698 1.478.827 1.479.957.015 1.518-1.896.728-1.831 5.513.101 7.505 1.053 1.087 1.281.918 1.281-.95 0-1.764.267-2.004 1.198-1.073.659.659 1.154 2.774 1.099 4.7-.162 5.707 5.567 3.757 9.786-3.33 1.925-3.235 2.266-3.438 2.881-1.725.616 1.715.863 1.569 2.111-1.25.777-1.756 1.78-3.193 2.228-3.193.448 0 .623-.337.388-.75s.638-1.778 1.941-3.035c1.421-1.371 2.373-1.771 2.381-1 .007.707 1.793-1.924 3.968-5.846 2.176-3.922 4.637-7.392 5.47-7.712.842-.323 1.262-1.241.945-2.067-.314-.818.256-2.376 1.267-3.462 1.01-1.087 3.187-4.702 4.837-8.035s3.337-6.067 3.75-6.077c.413-.009.763-.578.778-1.266.015-.687 1.365-3.018 3-5.178 1.635-2.161 2.972-4.748 2.972-5.75 0-1.002.563-1.829 1.25-1.837.989-.012.992-.18.013-.801-.893-.568-.981-1.682-.315-4.004.508-1.769.957-3.546.999-3.948.043-.403.289-1.407.549-2.232 1.187-3.776 2.104-14.129 1.295-14.629-.496-.307-.423-1.109.165-1.818 1.225-1.477.35-11.878-1.043-12.386-.502-.184-.92-1.534-.928-3-.024-4.216-2.391-9.938-5.42-13.099-1.691-1.765-2.484-3.391-2.02-4.141.524-.847.352-.981-.545-.427-.866.535-1.068.418-.595-.345.449-.728-.037-1.155-1.315-1.155-1.448 0-1.852.457-1.413 1.601m-23.751 3.81c1.579 1.902-.485 3.2-2.47 1.553-.801-.665-1.462-.816-1.47-.336-.007.479-.303 1.955-.657 3.278-.452 1.69-.298 2.193.515 1.69.704-.435 1.528.252 2.096 1.747.515 1.354 1.414 2.758 1.998 3.119.584.361 1.062 1.578 1.062 2.704 0 1.461.456 1.873 1.59 1.438 2.209-.848 3.764.265 2.5 1.788-1.265 1.524 2.43 8.023 4.007 7.048.627-.387.985.107.869 1.201-.37 3.503.038 4.31 2.939 5.81l2.905 1.502.406-5.226c.48-6.191.457-6.257-1.5-4.3-1.362 1.362-1.584 1.359-2.119-.034-1.026-2.675-.734-3.93.603-2.593 2.261 2.261 3.076 1.228 2.477-3.141-.373-2.72-.162-4.774.564-5.5.879-.879.843-1.159-.148-1.159-.794 0-1.063-.636-.685-1.621.486-1.266.156-1.498-1.511-1.062-1.544.403-2.814-.253-4.603-2.38-1.36-1.615-3.358-2.937-4.442-2.937-1.083 0-1.706-.427-1.383-.95.323-.522-.296-1.422-1.375-2-2.715-1.453-3.557-1.313-2.168.361m27.485 12.839c.453 1.987.239 2.75-.77 2.75-2.705 0-3.978 2.758-1.618 3.507 2.113.671 1.879 1.987-.356 2-1.487.008-1.235 8.804.266 9.304.587.196 1.074 1.106 1.082 2.022.012 1.323.194 1.386.879.304.475-.75 1.07-.975 1.321-.5.251.475.331.33.177-.322-.154-.652.083-1.327.527-1.5 1.69-.66 2.307-9.791.703-10.407-1.187-.455-1.28-1.064-.443-2.902.834-1.829.691-2.827-.667-4.666l-1.728-2.34.627 2.75m-108.724 5.555c-3.492 3.645-3.469 3.757 1.813 8.746 2.475 2.338 4.518 4.858 4.541 5.6.063 2.096 5.415 7.859 7.708 8.301 2.353.453 3.704-2.599 1.935-4.368-1.598-1.598.503-1.257 2.757.448 1.417 1.072 1.552 1.487.5 1.538-.867.043-.644.396.559.887 1.1.449 2.402.442 2.894-.015 1.302-1.209-1.264-6.766-3.443-7.457-1.008-.321-3.643-3.448-5.856-6.951-6.23-9.865-9.049-11.279-13.408-6.729m67.143 6.577c-.862.631-1.887 2.603-2.278 4.382-.391 1.78-1.095 3.236-1.565 3.236s-1.042 1.237-1.271 2.75c-.269 1.775-.516.977-.698-2.25-.281-4.997-.281-4.996-1.142 2-.473 3.85-.63 8.013-.349 9.25.898 3.953 2.47 2.413 2.552-2.5.043-2.612.336-4.075.65-3.25.314.825 1.066 1.831 1.671 2.235.761.508.715.739-.15.75-.687.008-1.25 1.203-1.25 2.655 0 1.452-.732 3.175-1.627 3.829-1.402 1.025-1.442 1.523-.293 3.61 1.13 2.053 1.389 2.153 1.702.659.203-.969.807-1.492 1.342-1.161.605.373.52 1.147-.224 2.043-.955 1.151-.813 1.725.702 2.841 1.044.77 2.049.978 2.233.463.413-1.152 2.165-.185 2.165 1.194 0 .55-.45.722-1 .382-.55-.34-.993-.254-.983.191.024 1.203 8.646 9.309 9.901 9.309 1.425 0 1.406-6.725-.021-7.201-.612-.204.166-1.752 1.75-3.48 1.569-1.711 3.351-3.946 3.961-4.965 1.271-2.128 6.392-2.739 6.392-.764 0 2.228 1.575 2.387 3.332.336 1.62-1.892 1.567-1.996-1.306-2.571-1.646-.329-2.749-.994-2.451-1.477.299-.483-.416-.878-1.587-.878-2.362 0-4.988 2.168-4.988 4.117 0 .71-.89.304-2.039-.928-2.101-2.256-3.554-2.957-2.461-1.189.34.55.168 1-.382 1s-1.278-.45-1.618-1c-.34-.55-.115-1 .5-1s.84-.45.5-1c-.34-.55-1.489-1-2.553-1-1.385 0-1.846-.582-1.622-2.05.29-1.898 1.407-2.732 8.925-6.66 3.209-1.676 3.638-2.707.745-1.788-1.404.445-2.214.091-2.701-1.183-1.306-3.41-5.044-8.235-5.831-7.526-.431.389-.46.145-.064-.543.415-.723.167-1.282-.59-1.327-.72-.042-2.007-.214-2.86-.382-.853-.168-2.256.21-3.119.841M161 616.491V622h11.873l.404-3.25c.397-3.2.405-3.192.563.5.099 2.324.653 3.75 1.457 3.75 1.627 0 9.289-7.748 8.471-8.566-1.388-1.387-8.768-1.703-8.768-.375 0 .964-.339.897-1.25-.249-.738-.929-3.604-1.83-7-2.2l-5.75-.627v5.508m226.529 30.376c-.378 1.723-1.074 3.133-1.546 3.133s-.819.788-.77 1.75c.05.962-.458 3.708-1.127 6.101-1.135 4.056-1.042 4.616 1.362 8.25 1.419 2.145 3.361 3.906 4.316 3.914 1.341.012 1.43.209.394.866-1.734 1.099 3.451 2.201 5.961 1.267 3.24-1.206 8.056-8.952 6.904-11.105-.563-1.051-1.043-2.729-1.068-3.727-.063-2.546-10.563-13.76-11.485-12.267-.54.873-.912.855-1.486-.075-.496-.803-1.009-.136-1.455 1.893m-48.781 6.719c-.36.36-2.081 3.612-3.825 7.227-3.519 7.297-3.303 8.567 1.828 10.724 3.656 1.538 3.441 1.897 4.808-8.037 1.144-8.317 1.049-9.923-.608-10.257-.852-.172-1.843-.018-2.203.343m28.508 21.542c-.242.928-1.246 1.898-2.23 2.155-.984.257-2.333 2.116-2.998 4.131-1.456 4.413-.433 6.119 4.291 7.154 1.9.417 5.082 2.658 7.9 5.565 2.596 2.677 5.042 4.867 5.436 4.867.394 0 1.74.962 2.991 2.138l2.276 2.137-.462-6.286c-.255-3.458-.967-6.895-1.584-7.638-.616-.743-.728-1.365-.248-1.383.479-.017-.007-.696-1.082-1.509-1.376-1.041-1.886-2.487-1.724-4.893.127-1.879-.212-3.689-.752-4.023-.54-.334-.729-1.268-.419-2.075.577-1.504-.167-1.693-7.552-1.921-2.409-.075-3.531.387-3.843 1.581M287.27 690.25c.241.688 1.178 1.118 2.084.956 1.766-.315 2.23 1.781.74 3.344-.498.522-1.822 2.604-2.941 4.626-2.29 4.135-1.056 6.563 2.725 5.363 1.307-.415 2.3-.043 2.941 1.102 1.424 2.544 6.472 2.544 9.338.001 2.193-1.946 2.472-2.819 1.995-6.231-.152-1.092-4.385-3.411-6.224-3.411-.538 0-1.423 1.171-1.967 2.602-.6 1.579-1.525 2.396-2.353 2.078-.75-.288-1.869-.019-2.486.598-1.718 1.718-1.343-.19.979-4.988 1.688-3.485 1.861-4.631.878-5.815-1.512-1.822-6.333-2.011-5.709-.225" fill="#d3d3d3" fill-rule="evenodd"/></svg>