<svg xmlns="http://www.w3.org/2000/svg" width="500" height="400"><path d="M289.101 37.77c-.748 1.799-2.652 4.357-4.231 5.686-1.578 1.328-2.87 2.894-2.87 3.479 0 .586-.45 1.065-1 1.065s-1 .9-1 2c0 1.273.667 2 1.833 2 1.009 0 2.159.325 2.557.723 1.256 1.256 8.011 1.244 8.812-.016.449-.707.774.115.783 1.984.008 1.755-.384 3.438-.872 3.739-.487.301-1.172 2.072-1.522 3.936-.379 2.022-1.695 4.142-3.265 5.261-4.74 3.375-6.194 5.202-7.431 9.329-1.114 3.717-1.032 4.27.943 6.371 1.189 1.266 2.169 2.948 2.177 3.737.013 1.169.173 1.188.862.101.647-1.022.968-.866 1.369.666.287 1.1.042 2.481-.545 3.068-1.502 1.502-.044 2.631 1.617 1.252.751-.623 1.704-.8 2.118-.392.746.736-.297-8.575-1.122-10.009-.85-1.476-2.239-.717-1.623.886.432 1.126.187 1.49-.782 1.167-.775-.258-1.364-.995-1.309-1.636.055-.642.167-2.019.25-3.06.212-2.679 3.117-3.52 4.745-1.374.738.972 1.356 1.252 1.373.622.018-.63 1.829-1.316 4.024-1.526 2.406-.229 3.899.029 3.756.648-.35 1.525 4.182 7.523 5.684 7.523.846 0 1.295 1.397 1.295 4.03 0 4.883.588 5.598 3.519 4.284 2.999-1.345 4.754-.618 4.754 1.969 0 1.599-.282 1.835-1.153.964-1.481-1.481-4.847.187-4.847 2.402 0 1.185.748 1.468 3 1.138 3.581-.526 3.925 1.205 1.325 6.657-1.507 3.16-1.521 3.69-.144 5.284.979 1.133 1.374 3.024 1.094 5.242-.669 5.319.606 12.03 2.286 12.03 1.598 0 1.785.935.735 3.668-.619 1.61-.788 1.53-1.4-.668-.637-2.286-.705-2.216-.796.809-.06 1.972.304 3.059.9 2.691.55-.34 1 .032 1 .826 0 1.693 3.692 4.307 7.396 5.237 2.66.668 3.612 2.408 1.354 2.473-.687.02-2.498 1.681-4.023 3.691l-2.773 3.654 2.773 1.228c1.525.676 2.179 1.265 1.453 1.31-.726.044-3.201 1.36-5.5 2.922-4.878 3.316-9.818 5.159-13.829 5.159-1.568 0-2.851.407-2.851.905 0 .498 1.818.661 4.04.363 4.67-.627 8.213 1.873 10.602 7.482.762 1.787 2.166 3.319 3.121 3.402.956.084 2.187.257 2.737.385.55.128 1.998.284 3.219.348 1.483.077 2.037.587 1.672 1.538-.313.815.342 1.899 1.531 2.535 1.143.612 2.085.759 2.093.327.009-.432.452-.11.985.715.533.825.976 1.036.985.468.008-.567 1.253-1.134 2.765-1.259 1.512-.124 2.9-.672 3.083-1.218.485-1.441 4.156-1.217 4.23.259.035.688.501.157 1.035-1.18.931-2.332 1.04-2.357 2.686-.63 1.281 1.344 1.395 1.919.448 2.269-2.792 1.034-4.349 3.445-3.153 4.886.631.761 1.527 1.149 1.99.862.464-.286 1.548.555 2.41 1.87 1.879 2.869 1.092 5.822-1.312 4.923-1.451-.544-1.489-.406-.295 1.063 1.215 1.493 1.1 1.696-1 1.766-1.304.043-1.807.307-1.116.585 1.901.767.436 2.336-2.18 2.336-2.975 0-7.856 3.827-7.168 5.62.291.759-.019 1.394-.689 1.412-2.638.069-5.081 2.826-3.835 4.328 1.479 1.782 7.06 2.691 9.307 1.517 1.248-.652 2.099-.301 3.25 1.342.857 1.224 1.559 1.649 1.559.944 0-.704.45-1.003 1-.663.55.34 1 1.489 1 2.553 0 1.621-.554 1.864-3.415 1.498-3.658-.469-5.069 1.025-3.884 4.113.464 1.208.276 1.44-.686.846-.891-.551-1.086-.433-.595.36.43.696.21 1.067-.536.905-.696-.151-1.453.593-1.682 1.654-.669 3.092-3.202 5.229-3.202 2.701 0-1.106.45-2.29 1-2.63 1.622-1.002 1.144-2.488-.75-2.33-3.915.328-7.334-.226-6.793-1.101.317-.512.118-1.213-.441-1.559-.559-.345-1.016.059-1.016.9 0 .965-.567 1.309-1.541.936-1.698-.652-1.666 1.635.041 2.889.55.404.043.741-1.128.75-1.17.008-2.69.693-3.378 1.522-1.091 1.315-1.523 1.188-3.404-1-1.184-1.379-2.927-2.507-3.872-2.507-.945 0-1.718-.45-1.718-1s-.337-.947-.75-.882c-2.611.413-4.13-.268-3.612-1.618.317-.825.139-1.5-.394-1.5-.99 0-3.794-11.076-3.607-14.25.056-.963-.237-1.75-.652-1.75-1.318 0-4.096-5.011-3.402-6.135.459-.742.909-.687 1.443.176 1.286 2.081.305-8.329-1.062-11.274-1.172-2.523-1.372-2.599-2.617-1-1.932 2.483-5.31-1.628-5.447-6.628-.09-3.288-.177-3.398-.9-1.139-1.135 3.543-1.067 19.56.108 25.5.544 2.75 1.35 12.2 1.79 21 .87 17.37 1.257 14.96-5.38 33.5-2.402 6.707-2.771 9.563-3.494 27-.879 21.202-4.534 43.942-10.045 62.5-5.285 17.795-5.206 17.315-3.595 21.83.818 2.294 1.745 5.765 2.059 7.714.671 4.172 7.631 10.621 12.518 11.598 3.032.607 3.039.625 3.039 7.483V400h61.2c47.6 0 60.933-.267 60-1.2-2.664-2.664-1.205-8.061 2.491-9.214 1.205-.376 4.667-3.24 7.695-6.366 5.228-5.398 5.539-6.009 6.191-12.201.378-3.586 1.115-7.644 1.638-9.019.523-1.375 1.612-8.8 2.42-16.5.997-9.5 3.03-20.107 6.324-33 5.105-19.983 6.398-28.53 6.429-42.5.028-12.343-2.061-34.627-3.844-41-1.118-3.998-1.372-7.821-.93-14 .775-10.845-1.103-29.559-3.65-36.366-2.146-5.737-7.953-12.496-7.75-9.021.06 1.038-.967 4.137-2.283 6.887-1.316 2.75-2.245 5.879-2.065 6.953.283 1.685.109 1.771-1.269.628-1.351-1.122-1.597-1.076-1.597.297 0 .892-.454 1.622-1.008 1.622-.603 0-.512.796.224 1.975.936 1.498.954 2.255.074 3.135-.879.879-.79 1.724.371 3.495 1.408 2.149 1.362 2.55-.565 5-1.153 1.466-2.096 2.127-2.096 1.471 0-2.23-1.843-.068-2.503 2.935-.361 1.644-1.118 2.989-1.683 2.989-.566 0-.774.661-.465 1.468.31.807.126 1.738-.409 2.069-.535.331-.714 1.02-.397 1.532.316.512-.127.931-.984.931-1.548 0-1.992 1.122-1.582 4 .117.825-.114 1.178-.513.785-.4-.393-1.633-.08-2.741.696-1.259.882-3.177 1.187-5.118.812l-3.105-.598 1.905 2.152c1.048 1.184 2.496 2.153 3.219 2.153.722 0 1.083.6.802 1.332-.281.733-.068 3.306.474 5.717.677 3.015.652 4.786-.08 5.668-.586.706-.733 1.283-.327 1.283.405 0 0 1.125-.901 2.5-1.434 2.189-1.448 2.5-.115 2.5.838 0 1.523.753 1.523 1.674 0 1.392-.417 1.283-2.469-.645-1.358-1.276-2.215-2.731-1.904-3.234.31-.503.717-2.912.903-5.355l.339-4.44h-3.376c-1.856 0-3.641.43-3.966.956-.325.526-1.325.675-2.223.33-1.154-.442-1.401-.252-.843.651.585.946.239 1.103-1.336.603-1.43-.454-2.13-.244-2.14.643-.012.972-.279.924-1.019-.183-.874-1.308-1.135-1.275-2.038.257-1.637 2.778-4.938.529-4.31-2.937.268-1.474.689-3.008.937-3.41.654-1.057-.602-3.91-1.721-3.91-.524 0-.632.518-.24 1.152.391.633-.121 1.76-1.137 2.503-1.363.997-1.556 1.646-.731 2.471.615.615.88 1.738.589 2.496-.291.758-.045 1.378.547 1.378.591 0 .816.675.5 1.5-.317.825-.108 1.5.464 1.5.571 0 1.335.933 1.697 2.072.422 1.33 1.202 1.864 2.179 1.489 1.019-.391 1.345-.125.987.806-.293.764-.028 1.894.589 2.511.829.829.809 1.122-.078 1.122-.66 0-1.2-.477-1.2-1.059s-.451-.78-1.002-.44c-.551.341-1.441-.536-1.978-1.948-.94-2.473-2.827-3.006-4.158-1.175-.838 1.153-3.067-.237-2.319-1.447.878-1.422-.925-1.109-3.102.537-1.067.808-2.714 1.483-3.66 1.5-2.728.051-.932 3.032 1.826 3.032 2.651 0 3.24 1.738.893 2.638-.825.317-1.5 1.004-1.5 1.528s.419.693.931.377c.512-.317 1.218-.111 1.569.457.351.568 1.057.774 1.569.457.512-.316.931-.098.931.484S366.805 250 365.345 250c-2.519 0-2.569.095-.982 1.848 1.865 2.061 7.628 2.69 7.652.835.011-.817.271-.78.842.12.454.716 1.235 1.219 1.735 1.116 9.42-1.935 14.386 13.211 5.962 18.182-1.847 1.089-3.635 3.087-3.975 4.44-.339 1.352-1.119 2.459-1.732 2.459-1.808 0-5.929 5.331-4.705 6.088.755.466.758.856.008 1.319-.584.361-.831 1.26-.549 1.996.283.736-.13 1.586-.918 1.888-1.013.389-1.327 1.776-1.075 4.745.257 3.04-.181 4.877-1.592 6.671-1.838 2.336-2.455 7.431-1.386 11.44.473 1.771 3.685 1.497 6.264-.534 1.145-.901 1.259-.651.638 1.395-.416 1.371-1.072 2.835-1.458 3.255-1.196 1.303-6.957-1.32-7.642-3.479-.461-1.451-.874-1.687-1.416-.809-.545.881-.964.919-1.45.132-.376-.609-.181-1.107.434-1.107s.84-.45.5-1c-.34-.55-1.266-1-2.059-1-1.766 0-1.926 3.638-.191 4.338.747.301.545.536-.5.583-1.025.046-1.756-.646-1.765-1.671-.013-1.479-.161-1.52-.954-.265-.667 1.054-.322 2.14 1.189 3.75 1.761 1.873 1.849 2.265.513 2.265-.888 0-1.893-.45-2.233-1-.34-.55-1.491-1-2.559-1s-1.941-.675-1.941-1.5-.477-1.5-1.059-1.5-.751-.498-.375-1.107c.477-.771.944-.696 1.544.25.632.999.863 1.027.875.107.008-.687.69-1.25 1.515-1.25 1.801 0 2.039-2.626.25-2.761-.687-.052-2.262-.404-3.5-.783-2.047-.627-2.25-.362-2.25 2.951 0 3.56-.076 3.632-3.464 3.258-1.944-.214-3.664.105-3.921.727-.251.609-.493.35-.536-.577-.046-.979-1.534-2.212-3.55-2.941-2.874-1.039-3.375-1.638-2.912-3.482.401-1.598-.031-2.543-1.529-3.345-1.148-.615-2.088-1.725-2.088-2.468 0-.743-.713-2.639-1.584-4.215l-1.584-2.864.445 2.75c.311 1.918.016 2.75-.975 2.75-.781 0-1.142.45-.802 1 .34.55.15 1-.422 1-1.169 0-2.343-3.815-2.044-6.642.363-3.436-.024-3.675-2.09-1.293-2.065 2.381-2.911 2.072-4.291-1.565-.208-.55-.697-.706-1.085-.348-1.086 1.004-1.438 12.848-.382 12.848.513 0 .654-.45.314-1-.35-.566.479-1 1.91-1 1.798 0 2.367-.419 1.97-1.452-.306-.799-.187-2.036.266-2.75s.83-1.598.839-1.965c.058-2.52 1.515-1.502 1.515 1.059 0 1.896-.412 2.971-1 2.608-.55-.34-1-.141-1 .441s.675 1.059 1.5 1.059c1.873 0 1.874.76.007 4.34-1.563 2.996-1.011 5.167 1.938 7.615 1.29 1.07 1.555 1.032 1.555-.226 0-.833.675-1.774 1.5-2.091.825-.316 1.5-.177 1.5.31s-.489 1.048-1.086 1.247c-.607.203-1.134 3.076-1.196 6.522-.066 3.716-.496 5.92-1.084 5.557-.565-.349-.706.097-.335 1.062.721 1.88-3.673 2.485-4.801.661-.412-.667-1.265-.657-2.548.03-3.288 1.759-13.44-5.906-12.355-9.328.357-1.123.071-2.287-.674-2.748-1.054-.651-1.049-1.091.025-2.386.809-.974 1.301-4.134 1.275-8.169-.044-6.579.364-7.608 4.946-12.463.916-.971 1.404-2.029 1.083-2.35-.321-.321-.058-.583.583-.583.642 0 1.167-.863 1.167-1.917s.563-2.106 1.25-2.337c.989-.333.979-.749-.049-1.994-.968-1.174-1.003-1.756-.138-2.291.638-.395 1.553-.097 2.033.661.55.868.879.946.889.21.028-2.133-1.182-4.329-2.079-3.774-1.567.968-8.148-2.716-6.964-3.9.582-.582 1.058-1.898 1.058-2.925 0-1.413.487-1.713 2-1.233 1.407.447 2 .18 2-.901 0-.89-.576-1.315-1.371-1.01-.754.289-1.64-.175-1.969-1.032-.328-.856-.274-1.56.121-1.564.396-.004.813-2.07.929-4.591.183-4.008 4.228-13.088 4.273-9.593.009.72.515 1.001 1.124.625.771-.477.696-.944-.25-1.544-1.391-.881.537-1.321 4.24-.968 2.521.24 4.644-2.814 2.839-4.085-1.106-.779-.93-.9.766-.53 1.211.264 2.36.007 2.553-.571.467-1.403 5.745-.053 5.745 1.469 0 .641.974 2.203 2.165 3.471 1.81 1.926 1.985 2.7 1.067 4.714-.604 1.326-.828 2.68-.498 3.01 1.006 1.007 4.266.668 4.266-.444 0-.574.563-.971 1.25-.881 2.559.332 4.421-.115 6.309-1.513 1.888-1.399 1.89-1.476.08-2.818-1.725-1.279-1.741-1.499-.219-3.021 1.497-1.497 1.505-1.966.097-5.336-1.624-3.887-1.295-5.565.7-3.57 1.767 1.767 3.393 1.449 6.281-1.227 1.603-1.486 2.192-2.664 1.535-3.07-.586-.362-.764-1.147-.395-1.744.401-.647.206-.797-.483-.371-.661.408-1.155.12-1.155-.672 0-.761-1.149-2.463-2.552-3.782-2.834-2.662-2.676-6.325.368-8.568 1.838-1.354 2.147-1.098-3.566-2.95-1.667-.54-1.667-.614 0-1.55.962-.54 1.75-1.635 1.75-2.433 0-.797.915-1.45 2.032-1.45 2.207 0 4.4-4.064 2.758-5.111-.527-.336-.208-.898.708-1.25 2.327-.893 2.502-.832 2.502.861 0 3.027 2.005 1.396 2.151-1.75.083-1.787.298-4.6.477-6.25.18-1.65.434-4.012.564-5.25.196-1.864.843-2.25 3.772-2.252 2.83-.001 4.287-.8 7.298-4 2.069-2.199 4.207-3.998 4.75-3.998.543 0 .988-.675.988-1.5 0-.943-.951-1.5-2.563-1.5h-2.563l3.554-3.75c1.955-2.062 3.559-4.066 3.563-4.453.005-.387 1.6-1.458 3.544-2.38 4.241-2.013 5.55-4.212 6.138-10.316.335-3.479 1.138-5.211 3.293-7.101 1.567-1.375 3.148-3.519 3.514-4.765.365-1.245 1.093-1.999 1.616-1.675 2.13 1.316 6.969-.784 8.462-3.673 1.678-3.245 1.192-5.112-1.103-4.231-.814.312-2.155.008-2.98-.676-.824-.685-2.956-1.973-4.737-2.862-2.952-1.475-3.209-1.972-2.911-5.618.416-5.093 4.482-10.291 9.352-11.957 2.024-.692 4.421-2.001 5.328-2.907.907-.907 2.514-2.112 3.571-2.678 1.057-.565 1.922-1.431 1.922-1.923s-1.912.162-4.25 1.453c-6.814 3.762-14.75 3.406-14.75-.661 0-1.173-.835-2.233-2-2.537-2.313-.605-2.673-3.095-.563-3.904a1.537 1.537 0 00.89-1.976c-.301-.784.132-2.461.961-3.727.862-1.316 1.288-3.453.993-4.992-.586-3.068-.108-3.269 3.004-1.264 2.847 1.834 7.813.913 8.462-1.569.302-1.155 1.388-1.858 2.87-1.858 1.452 0 2.383-.586 2.383-1.5 0-.825.45-1.5 1-1.5s1 .852 1 1.893c0 1.87 1.824 3.107 4.582 3.107.78 0 1.418-.873 1.418-1.941 0-1.951 1.689-3.703 2.647-2.746.282.283-.198 3.289-1.067 6.681-2.587 10.099-1.091 9.516 1.909-.743 1.777-6.079 1.776-6.344-.049-9.732-1.474-2.738-1.615-3.744-.658-4.701 1.375-1.375 1.654-4.818.391-4.818-.455 0-.635-1.308-.4-2.906.371-2.528-.044-3.129-3.189-4.621-4.03-1.913-5.086-3.045-3.66-3.926 1.234-.763-1.513-7.606-3.752-9.346-2.431-1.889-14.025-.563-16.736 1.913-2.614 2.388-3.078 2.365-3.745-.188-.298-1.141-1.445-2.31-2.548-2.599-1.121-.293-1.785-1.097-1.506-1.824.275-.716.019-1.598-.569-1.961-.587-.363-1.068-1.935-1.068-3.494 0-3.635-2.134-4.437-6.717-2.522-1.983.829-4.545 1.251-5.694.938-2.019-.549-2.026-.517-.204.943 1.037.831 3.849 1.806 6.25 2.166 5.472.82 5.767 2.114.365 1.598-2.484-.236-4 .038-4 .724 0 .608.675 1.105 1.5 1.105s1.5.45 1.5 1c0 2.033-2.926.909-5.201-1.998l-2.346-2.998-1.884 3.498c-1.036 1.924-2.268 3.498-2.738 3.498-.47 0-.556 1.869-.191 4.153.454 2.836.326 3.944-.402 3.494-.587-.363-1.295-.094-1.574.597-.305.758-.537.562-.585-.494-.043-.962-.867-1.786-1.829-1.829-.962-.043-1.279-.275-.703-.516.576-.24.865-2.004.641-3.921-.288-2.47-.011-3.484.953-3.484 2.049 0 1.701-4.915-.396-5.581-2.057-.653-7.352 3.088-5.762 4.07.577.357.748 1.138.379 1.735-.401.647-.206.797.483.371.685-.422 1.155-.078 1.155.846 0 .857-.45 1.559-1 1.559s-1 .408-1 .906c0 .499.9.671 2 .384 1.118-.293 2-.031 2 .593 0 .615-.436 1.117-.969 1.117-.532 0-.697.707-.366 1.57.511 1.332.011 1.46-3.281.844-3.454-.647-3.74-.554-2.585.84.872 1.054.954 1.781.25 2.216-.577.356-1.049.132-1.049-.499 0-.766-1.245-.946-3.75-.543-2.062.333-5.886.808-8.497 1.056-2.761.263-6.02 1.393-7.789 2.701l-3.043 2.249-2.438-2.967c-1.774-2.158-2.287-3.717-1.881-5.717.384-1.897.145-2.755-.773-2.765-1.069-.013-1.06-.186.049-.889.758-.48 1.099-1.325.757-1.878-.342-.552.519-1.291 1.913-1.641 1.394-.349 2.259-1.08 1.924-1.623-.336-.542-1.106-.68-1.711-.306-.707.436-.874.089-.468-.97.493-1.284.087-1.604-1.83-1.446-1.355.112-2.463.829-2.463 1.593s-.603 1.157-1.341.875c-2.134-.82-4.524 1.065-2.777 2.191 1.089.701.824 1.255-1.25 2.615-4.134 2.708-3.387 9.494 1.045 9.494 1.982 0 2.399.438 2.139 2.25-.388 2.71-4.095 2.698-7.146-.023-1.868-1.667-1.909-1.64-1.169.773 1.602 5.225 2.482 7 3.474 7 1.633 0 1.186 2.724-.557 3.393-2.012.772-3.931.787-3.168.024.321-.321-1.202-2.369-3.384-4.551-2.956-2.956-3.805-4.483-3.327-5.987.485-1.53.107-2.159-1.557-2.594-1.865-.488-2.115-1.081-1.652-3.93.329-2.028.128-3.355-.51-3.355-.579 0-.818-.9-.531-1.999.288-1.099.115-2.251-.383-2.559-.498-.308-.906-.083-.906.499S298.564 52 298.031 52c-.532 0-.699-.701-.371-1.557.329-.857 1.215-1.321 1.969-1.032.972.373 1.371-.339 1.371-2.442 0-1.633-.45-2.969-1-2.969s-1-.689-1-1.531c0-2.094-2.697-2.965-4.513-1.458-1.589 1.318-1.797.915-1.553-3.011.116-1.86-.086-2.143-.788-1.105-.763 1.128-1.014 1.033-1.314-.5-.291-1.491-.66-1.198-1.731 1.375m-.57 84.651c-2.611 2.431-4.466 4.875-4.123 5.43.344.556.149 1.305-.432 1.664-.582.359-.795 1.479-.475 2.489.387 1.219-.019 2.04-1.209 2.447-2.011.688-7.728 8.446-6.862 9.312.307.307 1.348-.154 2.314-1.025.966-.87 2.975-1.886 4.465-2.258 3.225-.805 4.667-2.37 5.682-6.166.434-1.623 1.569-2.965 2.681-3.171 2.712-.503 8.325-6.856 8.147-9.221-.082-1.087-.688-1.764-1.351-1.51-.661.254-1.451-.185-1.754-.975-.859-2.24-1.982-1.767-7.083 2.984m1.634 133.41c-3.668.519-5.533 6.097-5.604 16.765-.065 9.637.96 12.404 4.593 12.404 2.107 0 3.866-3.16 2.089-3.752-.735-.245-.575-1.005.467-2.222.873-1.019 2.264-1.589 3.098-1.27 1.152.443 1.378.064.947-1.586-.312-1.193-.189-2.402.273-2.687 1.022-.632.194-6.148-1.943-12.943-1.371-4.361-1.9-4.995-3.92-4.709m115.924.268c-.049.329-1.157 5.504-2.463 11.5-3.566 16.376-3.822 20.108-2.145 31.276.836 5.562 1.538 14.502 1.561 19.868.024 5.367.615 12.207 1.314 15.202l1.271 5.446 1.533-3.946c2.134-5.493 2.446-67.453.377-74.995-.747-2.722-1.398-4.681-1.448-4.351m17.479 16.586c-.305.793-.942 1.202-1.417.908-.95-.587-7.151 6.652-7.151 8.348 0 .583.659 1.059 1.465 1.059 3.496 0 3.152 8.265-.437 10.482-1.625 1.005-1.246 7.221.481 7.883.83.319 1.393 1.095 1.25 1.724-.142.63.57 1.284 1.583 1.453 2.478.414 2.562.595 1.535 3.313-.573 1.515-1.422 2.15-2.383 1.781-1.171-.449-1.494.286-1.494 3.395 0 4.407 1.15 4.953 4.899 2.327 2.059-1.442 2.147-1.753.723-2.55-2.037-1.139-2.109-2.808-.122-2.808.825 0 1.5-.675 1.5-1.5 0-1.916-.055-1.667 1.523-6.912.805-2.672.961-4.593.389-4.784-.525-.175.275-2.705 1.778-5.621 2.317-4.497 2.51-5.447 1.271-6.243-1.012-.651-1.122-1.17-.358-1.69 1.306-.888 1.195-8.103-.158-10.25-1.235-1.961-4.173-2.151-4.877-.315m-8.025 50.565c-3.039 7.332-3.543 8.802-3.543 10.328 0 .816-2.181 3.607-4.846 6.203-5.651 5.503-7.259 8.2-7.378 12.377-.098 3.468 1.816 5.131 4.348 3.776 3.326-1.781 4.726-.214 3.738 4.184-.523 2.329-.528 4.657-.011 5.581.488.872.669 2.421.402 3.443-.848 3.24.659 2.005 2.276-1.865.856-2.048 1.438-4.636 1.294-5.75-.144-1.115.167-2.702.689-3.527 1.746-2.754 1.399-6.893-.631-7.538-2.255-.715-2.439-2.754-.401-4.445.813-.675 1.771-3.43 2.128-6.122.357-2.692 1.036-4.895 1.507-4.895 1.032 0 4.125-7.093 3.407-7.812-.278-.277-.049-1.053.508-1.724.908-1.095-.216-6.464-1.353-6.464-.205 0-1.166 1.913-2.134 4.25M499 352.428c0 6.285-.422 14.722-.939 18.75-.729 5.682-1.82 15.68-2.037 18.655-.013.184-.586.13-1.274-.119-.687-.249-2 .199-2.917.996-1.19 1.035-2.191 1.171-3.5.476-2.06-1.093-4.27.504-3.576 2.586.225.675-.104 1.228-.733 1.228-.628 0-.845.48-.483 1.067.368.594.049.926-.72.75-1.364-.313-1.821.235-1.821 2.183 0 .596 3.833 1 9.5 1h9.5v-29.5c0-16.225-.225-29.5-.5-29.5s-.5 5.142-.5 11.428" fill="#d3d3d3" fill-rule="evenodd"/></svg>