<svg xmlns="http://www.w3.org/2000/svg" width="500" height="722"><path d="M89.25 22.556c-1.313 1.428-1.61 5.5-.66 9.041.437 1.627 1.139 1.986 3.135 1.605 1.533-.293 2.328-.097 1.968.486-.333.538.537 2.658 1.933 4.712 1.395 2.053 2.289 4.378 1.987 5.167-.637 1.659-2.613 1.942-2.613.374 0-.582-.518-.739-1.152-.347-.633.391-1.758-.118-2.5-1.132-.741-1.015-1.348-1.308-1.348-.653S89.269 43 88.375 43c-2.199 0-1.174 5.226 1.611 8.215 1.743 1.871 3.991 7.529 4.008 10.09.014 1.923 4.159 9.695 5.171 9.695 1.111 0 3.743-2.891 3.803-4.179.018-.373-.675-1.385-1.539-2.25-.865-.864-1.09-1.571-.5-1.571.589 0 1.071-.9 1.071-2 0-1.145.667-2 1.559-2 .964 0 1.285-.477.84-1.25-.396-.687-.375-.94.047-.56.422.379 1.313.18 1.98-.444.942-.879.466-2.493-2.117-7.19-1.831-3.331-4.049-7.743-4.928-9.806-.879-2.062-1.964-3.75-2.412-3.75-.448 0-1.353-1.687-2.012-3.75-1.41-4.412-2.988-6.346-3.667-4.494-.254.691-.872 1.002-1.375.691-1.305-.806-1.133-4.208.235-4.664.632-.211.97-.879.75-1.484-.268-.74-.811-.655-1.65.257m127.757 11.581c-5.717 3.485-17.527 13.064-17.257 13.997.137.476-.58.866-1.595.866-1.015 0-2.701.946-3.748 2.102-2.795 3.089-7.134 5.149-7.975 3.788-.475-.769-.931-.701-1.504.227-.485.784-.331 1.688.375 2.201.778.566.567.667-.605.288-.991-.321-1.547-.171-1.235.333.458.742-2.067 2.178-4.463 2.538-.275.041-1.625.817-3 1.725-1.375.908-4.285 1.977-6.466 2.376-2.182.399-5.81 1.541-8.062 2.538-4.647 2.055-8.936 1.412-9.111-1.366a150.46 150.46 0 00-.236-3.156c-.08-.895-.944-1.255-2.375-.989-1.238.229-1.687.15-1-.177.688-.327 1.25-1.034 1.25-1.57 0-.537-.392-.734-.871-.438s-1.898-.352-3.153-1.441c-1.255-1.088-3.226-1.965-4.379-1.949-2.074.03-2.075.044-.097 1.186 4.09 2.361 7.22 7.464 5.582 9.102-1.361 1.361-1.423 3.011-.082 2.182.55-.34 1 .084 1 .941S148.675 71 149.5 71s1.5.362 1.5.804c0 2.026 8.099 1.224 11.263-1.115 3.786-2.799 6.226-3.83 9.906-4.186 1.468-.142 5.518-1.603 9-3.246 9.52-4.494 12.633-5.547 14.397-4.87 1.024.393 1.447.164 1.174-.636-.418-1.226 3.185-5.159 3.99-4.355.406.407.065 1.208-3.1 7.279-1.353 2.596-1.438 3.651-.47 5.778.907 1.99.91 2.877.013 3.774-.645.645-1.173 1.941-1.173 2.879 0 2.984 3.844.966 5.176-2.716.674-1.865 1.585-3.39 2.025-3.39.439 0 .799-.787.8-1.75 0-.963 1.363-4.45 3.028-7.75 4.609-9.135 5.7-10.813 6.151-9.46.263.788 1.454.26 3.363-1.49 2.703-2.477 2.764-2.668.707-2.223-1.309.282-2.263.002-2.28-.671-.017-.636-.489-.368-1.05.594-1.183 2.032-2.92 2.323-2.92.491 0-1.766 3.987-4.236 4.033-2.499.019.692.863.265 1.876-.949 1.014-1.215 2.147-1.903 2.52-1.531.372.372.385-.209.03-1.292-.467-1.419-.379-1.595.313-.628.751 1.05 1.424.692 3.088-1.645 1.856-2.606 1.926-3.065.552-3.592-2.284-.877-2.563-.81-6.405 1.532M138.86 61.018c-.901.527-3.376 1.233-5.5 1.57-2.123.337-4.152 1.083-4.509 1.658-.357.575-1.38.765-2.273.422-1.113-.427-3.694 1.336-8.208 5.605-3.621 3.425-6.874 6.243-7.227 6.262-2.018.112-4.89 2.777-6.606 6.129-1.08 2.11-3.161 5.411-4.624 7.336-2.988 3.931-4.768 10-2.933 10 .626 0 .86.45.52 1-2.081 3.367 2.837-.012 8.093-5.56 3.418-3.608 6.483-6.126 6.812-5.594.801 1.297 4.262.323 4.262-1.2 0-1.938 3.467-6.681 4.442-6.078.49.302.891.145.891-.35s1.8-2.736 4-4.98c2.2-2.245 4-4.749 4-5.566 0-.992.663-1.311 2-.962 1.118.293 2 .031 2-.593 0-.615.338-1.008.75-.875s1.863-.542 3.223-1.5c1.359-.958 2.034-1.749 1.5-1.757-.535-.009-.33-.423.457-.92.786-.498 1.498-1.841 1.583-2.985.169-2.305-.242-2.469-2.653-1.062m51.812 33.843c-.647 6.191-2.426 11.426-2.766 8.139-.182-1.757-2.025 8.62-2.018 11.363.003 1.025-.26 1.598-.584 1.275-.323-.324-1.696 1.538-3.049 4.137-1.354 2.599-3.813 6.446-5.466 8.55-1.652 2.104-4.798 7.279-6.991 11.5-2.193 4.221-5.232 9.025-6.753 10.675-1.521 1.65-3.601 4.463-4.621 6.25-1.02 1.787-2.583 3.25-3.473 3.25-2.342 0-3.101 1.114-1.814 2.665.857 1.033.445 2.343-1.759 5.592-1.583 2.334-3.213 5.062-3.621 6.062-.491 1.201-1.369 1.621-2.583 1.236-3.229-1.025-9.014 8.63-5.838 9.744 1.817.638-2.296 4.704-4.741 4.686-1.719-.013-1.826-.19-.595-.985 1.312-.848 1.3-.971-.095-.985-2.669-.025-6.903 6.585-6.906 10.782-.001.937-1.165 3.053-2.587 4.703-2.062 2.392-2.274 3.064-1.048 3.314 1.142.233 1.325.876.708 2.5-1.027 2.708-.145 12.849 1.053 12.108.481-.297.875-1.543.875-2.768 0-1.766.632-2.277 3.046-2.461 2.868-.218 2.975-.101 1.841 2.019-1.326 2.477-5.769 6.288-7.331 6.288-1.126 0-5.556 3.888-5.556 4.876 0 .927 8.258-.458 9.75-1.635.688-.542 1.25-1.831 1.25-2.863 0-1.157.707-1.878 1.839-1.878 1.012 0 2.362-1.146 3-2.547 1.422-3.12 1.457-3.754.161-2.953-1.721 1.064-1.09-.712.75-2.108 1.069-.811 1.263-1.341.5-1.36-.687-.018-1.25-.509-1.25-1.091s.45-.781 1-.441 1.019.029 1.041-.691c.194-6.141 1.43-13.795 2.595-16.059.779-1.512 1.179-2.75.89-2.75-.289 0 .261-.868 1.224-1.928 3.063-3.376 3.998-4.684 5.705-7.984.917-1.774 3.691-5.331 6.166-7.906 2.474-2.575 5.588-6.788 6.92-9.361 1.331-2.574 2.841-4.939 3.353-5.256.513-.317 1.953-2.711 3.201-5.321 1.247-2.609 2.534-4.969 2.859-5.244.326-.275 1.38-1.738 2.342-3.25 2.279-3.582 3.31-3.472 4.091.437.493 2.461.909 2.917 1.826 2 2.05-2.05 2.666-1.331 3.052 3.563.339 4.298.392 4.155.555-1.5.162-5.629-.939-8.251-2.1-5-.245.688-.845.875-1.333.417-1.218-1.144-1.123-10.572.115-11.453.55-.393 1.639-1.952 2.419-3.464.779-1.512 1.791-2.75 2.248-2.75.457 0 .831-.878.831-1.95 0-1.073.766-2.379 1.703-2.904 1.322-.739 1.445-1.263.551-2.34-.899-1.083-.734-1.65.753-2.578 1.646-1.028 2.479-3.002 4.743-11.228 1.436-5.222 2.334-15.496 1.515-17.333-.75-1.68-1.066-.849-1.593 4.194m-22.888 15.788c.353 1.848.155 2.431-.655 1.931-.639-.395-.903-1.137-.586-1.649 1.732-2.803-5.267.999-7.161 3.89-1.47 2.244-1.483 2.632-.119 3.629.84.614 2.105 3.127 2.812 5.583 1.598 5.552 1.564 5.512 3.353 4.027.849-.705 2.399-.932 3.649-.535 1.479.469 1.953.333 1.483-.428-.379-.614.239-2.298 1.375-3.742 1.136-1.443 2.065-3.253 2.065-4.021 0-.768.663-1.651 1.474-1.963 1.659-.636-.291-3.371-2.403-3.371-.589 0-1.071-1.173-1.071-2.607 0-1.906-.403-2.452-1.5-2.031-.825.316-1.5.139-1.5-.393 0-.533-.388-.969-.861-.969-.474 0-.634 1.192-.355 2.649m-62.094.803c-.796.797-1.77 3.609-2.163 6.248-.393 2.64-1.152 5.332-1.686 5.982-.623.757-.631 2.419-.023 4.623.523 1.893.767 7.211.543 11.818-.225 4.607-.424 9.193-.442 10.191-.061 3.29-3.76 16.452-5.72 20.355-2.755 5.483-5.449 14.125-4.86 15.585.319.791.532.653.582-.376.053-1.089 1.354-1.826 3.959-2.243 4.288-.686 9.476-4.409 7.364-5.285-.691-.286-1.002-.932-.691-1.435.311-.503-.128-.915-.974-.915-1.793 0-1.627-4.173.309-7.791.663-1.238.932-2.692.598-3.232-.333-.539.608-1.442 2.093-2.007 1.484-.564 2.429-1.295 2.1-1.625-.33-.329-.027-1.779.672-3.222 1.262-2.603 1.444-6.661.348-7.757-.314-.315-.173-1.62.315-2.902.54-1.421.514-2.455-.066-2.648-.586-.195-.609-1.51-.061-3.422.946-3.298.402-8.394-.897-8.394-1.635 0-1.914-3.247-.51-5.961.806-1.559 1.913-4.829 2.459-7.267.546-2.437 1.268-5.149 1.605-6.025.911-2.376-2.948-4.2-4.854-2.295m76.116 51.298c-.179 14.621-.233 15.033-.75 5.75-.316-5.688-.839-9.03-1.212-7.75-1.591 5.454-4.226.494-3.188-6 .519-3.244.339-3.75-1.328-3.75-3.354 0-4.328 2.095-4.328 9.311v6.912l3.644-.684c3.412-.64 3.537-.577 1.964.996-.945.945-2.538 1.455-3.644 1.166-2.142-.56-2.129-.616-2.48 10.799-.102 3.3-.252 6.76-.334 7.689-.083.929-2.85 4.372-6.15 7.651-6.4 6.36-7.789 10.136-3.75 10.19 2.102.029 2.127.102.38 1.117-1.443.839-1.573 1.27-.568 1.892.857.529 1.221 2.596 1.064 6.039-.132 2.879.194 6.402.724 7.828.529 1.427 1.298 3.494 1.707 4.594.41 1.1.864 2.45 1.009 3l1.976 7.5c.942 3.575 2.467 10.76 3.388 15.967 1.51 8.533 1.918 9.535 4.123 10.151 1.346.375 1.832.727 1.08.782-.847.062-1.172.841-.856 2.052.281 1.074-.004 2.126-.633 2.337-.811.274-.745.87.228 2.048 1.193 1.446 1.128 1.676-.5 1.763-5.262.28 4.098 1.712 11.77 1.8 8.344.097 8.662.017 9.249-2.321.334-1.331.333-3.134-.002-4.007-.335-.873.161-2.763 1.103-4.2 1.293-1.974 1.646-4.355 1.443-9.742-.587-15.569-.078-21.63 1.815-21.631 1.653 0 9.12-2.59 15.75-5.462 6.191-2.682 18.715-5.707 25.733-6.215 6.709-.485 12.981-.021 38.767 2.868 5.225.586 16.25 1.147 24.5 1.249 9.188.112 16.778.71 19.589 1.543l4.589 1.36 1.046 6.579c.575 3.618 1.332 7.704 1.682 9.079.485 1.908.433 2.037-.22.547-.741-1.694-.961-1.496-1.654 1.5-.439 1.899-.709 4.06-.599 4.803.11.742-.509 2.844-1.376 4.671-1.473 3.103-1.987 3.365-7.817 3.976-3.432.36-9.165.174-12.74-.413-11.073-1.821-26.117-.997-19 1.039 1.375.394-1.775.474-7 .178-5.571-.315-12.809-.017-17.5.722-4.4.692-10.025 1.364-12.5 1.493-2.475.128-6.653.965-9.285 1.859-2.632.894-5.894 1.625-7.25 1.625-1.356 0-2.465.406-2.465.903 0 .916-7.832 3.509-20.5 6.786l-7 1.811 7 .628c5.347.48 4.573.552-3.275.305-6.284-.198-10.049.044-9.691.622.321.52-.594.945-2.034.945-1.491 0-2.352-.431-2-1 .397-.643-3.179-1-10.008-1-9.949 0-10.589.12-10.03 1.882.385 1.211.025 2.101-1.009 2.498-2.794 1.072-1.587 7.969 1.531 8.752l2.516.631-2.691.119c-2.677.117-5.115 2.104-2.618 2.133.953.011.901.283-.191 1-1.281.841-1.293 1.118-.088 1.894 1.207.777 1.193 1.129-.099 2.421-.903.903-1.78 4.408-2.18 8.708-.368 3.959-1.744 11.082-3.057 15.83-1.314 4.748-2.709 10.657-3.101 13.132-.941 5.953-2.455 8.696-7.447 13.5-5.219 5.021-8.825 10.508-10.446 15.893-1.258 4.18-.667 9.171.805 6.791.868-1.406 2.613-1.576 2.613-.255 0 .51-.707 1.635-1.571 2.5-.865.864-1.098 1.571-.519 1.571.578 0 1.334 1.125 1.679 2.5s1.061 2.5 1.591 2.5c.529 0 1.59.563 2.357 1.25 3.369 3.022 4.287 3.593 4.856 3.023.334-.333.607-.081.607.56 0 .642.338 1.114.75 1.049 2.129-.337 3.092.352 3.661 2.618.345 1.375 1.294 2.5 2.108 2.5.815 0 1.481.54 1.481 1.2 0 .933.267.933 1.2 0 3.769-3.769 7.388 4.884 5.321 12.721-1.254 4.754-6.682 13.079-8.528 13.079-1.403 0-6.993 6.057-6.993 7.577 0 .783-.395 1.423-.879 1.423-.483 0-1.424 1.318-2.091 2.928-.667 1.611-1.791 3.15-2.496 3.421-1.395.535-1.841 2.357-4.051 16.554-.805 5.171-3.251 16.871-5.436 26-5.595 23.374-5.895 24.858-7.48 36.915-.779 5.933-2.357 14.814-3.507 19.735-1.149 4.921-2.507 10.747-3.018 12.947-.794 3.422-1.76 10.368-2.504 18-.107 1.1-.987 3.516-1.954 5.37-1.68 3.219-2.344 5.282-6.475 20.13-2.446 8.794-5.979 16.736-7.747 17.414-1.781.684-4.665 7.287-3.796 8.693.347.56-.03 1.778-.837 2.706-2.416 2.777-2.735 6.952-.576 7.517 1.053.275 1.847 1.382 1.847 2.574 0 2.901 5.865 8.744 9.561 9.525 3.769.796 5.967-1.297 6.955-6.624.552-2.975.942-3.462 2.001-2.5.803.729.958 1.565.399 2.145-1.671 1.733-.949 3.55 1.411 3.55 2.037 0 2.279.404 1.941 3.25-.368 3.102-.29 3.047 1.708-1.187 1.152-2.441 1.893-4.961 1.648-5.6-.245-.639.007-3.287.561-5.883 1.036-4.859.42-7.15-1.224-4.551-.709 1.121-.934.83-.946-1.22-.008-1.48.435-2.969.985-3.309.55-.34.971-1.604.937-2.809l-.064-2.191-.904 2.25c-.88 2.188-2.969 3.146-2.969 1.362 0-.489 1.132-4.795 2.516-9.57 1.384-4.775 2.257-9.1 1.941-9.612-.316-.511-.148-.93.374-.93 1.041 0 3.285-8.083 8.187-29.5 1.763-7.7 4.055-17.179 5.094-21.064 1.038-3.885 1.888-7.499 1.888-8.031 0-1.158-5.919-3.752-7.894-3.458-4.375.649-3.961-12.914.446-14.606.871-.333 2.635-.044 3.92.644 1.286.688 2.881.915 3.544.505.667-.412 1.587-.133 2.054.624 1.514 2.449 2.551-.226 6.44-16.614 2.088-8.8 4.001-16.562 4.25-17.25.25-.688-.269-1.25-1.153-1.25-2.343 0-1.964-3.245.643-5.51 1.238-1.075 2.554-1.861 2.927-1.747.961.295 4.226-10.305 7.312-23.743 1.453-6.325 3.901-16.225 5.441-22 1.54-5.775 3.571-13.875 4.515-18 2.413-10.552 2.485-10.759 3.914-11.308 1.264-.485 10.712 1.616 12.648 2.812.546.338 1.007.025 1.023-.695.034-1.432 2.058 1.613 2.35 3.535.097.636.46 1.609.807 2.164.979 1.562 2.115 8.492 1.392 8.492-.354 0-1.05-1.012-1.548-2.25-.853-2.123-.908-2.134-.968-.2-.034 1.128.335 2.478.822 3 .953 1.024-.211 27.706-1.83 41.959-.623 5.477-.623 14.541-.001 25.433.702 12.293.636 20.157-.24 28.741-1.334 13.061-1.315 16.436.204 36.817 1.437 19.28 2.014 33.087 1.149 27.5l-.697-4.5-.735 6.397c-.902 7.848-.75 11.924.265 7.103l.737-3.5.131 3.809c.076 2.18.547 3.552 1.103 3.209.534-.33 1.25.656 1.593 2.191 1.327 5.955 1.554 6.291 4.253 6.305 1.476.007 3.768.304 5.094.659l2.412.645-.746-11.909c-.41-6.55-.931-18.884-1.158-27.409-.227-8.525-1.065-22.7-1.862-31.5-3.27-36.106-3.719-46.648-3.236-76 .496-30.174.207-36.892-1.479-34.331-.571.868-.842-.061-.779-2.669.053-2.2-.217-5.012-.6-6.25-.509-1.645-.292-2.25.809-2.25.927 0 1.756-1.336 2.157-3.475l.652-3.476 4.71.56c2.59.307 6.059.996 7.709 1.53 10.79 3.493 23.319 3.056 49-1.71 4.4-.816 12.722-1.602 18.494-1.745 8.982-.224 10.541-.508 10.823-1.973.353-1.83-.578-1.991-10.317-1.781-4.284.093-4.714-.061-3-1.075 1.1-.651 2.225-1.448 2.5-1.77.648-.758 3.809-1.023 12.797-1.074 7.49-.043 14.203 3.022 14.203 6.485 0 .693.629 1.781 1.397 2.418.768.638 1.178 1.997.91 3.021-.268 1.023-.033 2.709.523 3.747.555 1.037 1.293 3.895 1.64 6.352.346 2.456.911 5.366 1.254 6.466.343 1.1 1.116 5.375 1.718 9.5.681 4.668 1.532 7.415 2.253 7.274 1.412-.275 4.3 7.27 4.106 10.726-.077 1.375.424 5.425 1.113 9 .69 3.575 1.727 9.083 2.305 12.239 1.141 6.239 1.982 7.39 5.781 7.915 2.02.28 2.562.99 2.821 3.699.21 2.194-.049 3.124-.75 2.691-.589-.364-1.123-1.648-1.186-2.853-.063-1.205-.476-.391-.917 1.809-.93 4.641.641 12.413 2.666 13.19.745.286 1.119.9.832 1.365-.287.464.278 1.273 1.256 1.796C343.696 499.908 344.12 500 347 500c1.313 0 2 .667 2 1.941 0 1.068.45 2.219 1 2.559 1.511.934 1.198 2.5-.5 2.5-.973 0-1.495.965-1.485 2.75.01 1.705.312 2.283.796 1.521.581-.915 1.193-.747 2.395.656 1.388 1.622 1.422 2.16.239 3.848-.756 1.079-1.09 2.246-.743 2.594.347.347-.119.631-1.035.631-2.109 0-2.188 2.586-.104 3.386.86.33 1.284 1.053.941 1.607-.342.554.192 1.014 1.187 1.022 1.403.012 1.503.21.446.879-.996.631-1.041.971-.165 1.263.69.23 1.366 2.937 1.591 6.371.943 14.355 2.13 17.48 6.527 17.181 3.626-.247 3.627-.94.001-21.209-1.18-6.6-2.368-16.05-2.64-21-1.447-26.318-6.065-51.717-13.455-74-2.189-6.6-5.534-18.837-7.433-27.194-1.9-8.356-4.167-16.573-5.039-18.259-1.25-2.417-1.342-3.518-.438-5.208.977-1.825.908-2.046-.47-1.491l-3.191 1.288c-1.145.462-1.486.129-1.25-1.218.241-1.373-.453-2.004-2.675-2.435-3.972-.771-7.192-.055-5.335 1.186.849.567.242.669-1.665.28-2.4-.489-2.7-.379-1.5.548 1.217.941.967 1.074-1.328.705-1.555-.25-4.48-.087-6.5.363-3.457.769-14.153 1.382-18.755 1.074-1.146-.076-2.084-.814-2.084-1.639 0-1.201 1.609-1.52 8.084-1.6 5.093-.062 7.158-.366 5.583-.82-2.13-.613 6.292-1.715 17-2.223.825-.04 4.569-.742 8.32-1.561 7.201-1.571 9.714-1.18 5.309.827-3.941 1.796-3.507 4.65.621 4.088 3.171-.433 8.75-4.615 8.75-6.559 0-.535 1.431-2.251 3.18-3.813 3.417-3.05 2.739-3.871-1.022-1.237-3.451 2.417-3.443 1.231.017-2.471 2.043-2.186 3.716-3.131 4.964-2.805 3.175.83 9.68-12.17 8.287-16.56-.758-2.386-5.31-1.571-7.51 1.345-2.071 2.747-2.66 1.751-3.824-6.462-.512-3.62-1.643-7.597-2.512-8.838-.869-1.241-1.58-3.705-1.58-5.477 0-2.135-.706-3.715-2.093-4.686-2.052-1.438-2.024-1.499 1.5-3.171 1.976-.938 3.593-2.104 3.593-2.591 0-.487.675-.886 1.5-.886s1.486-.562 1.468-1.25c-.034-1.335-2.968-5.655-2.968-4.37 0 .42-.733.03-1.629-.866s-2.246-1.392-3-1.103c-.754.289-1.371.138-1.371-.337 0-.475-1.8-1.036-4-1.245-3.803-.363-5.428.494-2.75 1.451.688.245.974.746.637 1.113-.916.996-5.509 1.022-13.887.08-14.589-1.641-41.484-1.691-46.702-.087l-4.798 1.475 3.5.176c6.356.319 6.976.454 6.737 1.463-.13.55-2.15.927-4.487.838-2.337-.089-4.25.136-4.25.5 0 .892-6.709.786-7.615-.12-1.255-1.255-7.094-.773-8.304.685-.894 1.077-.865 1.514.127 1.883.916.341.783.691-.458 1.205-2.185.903-5.094-.125-4.244-1.5.348-.563 1.051-.765 1.563-.448.512.316.931.098.931-.484 0-1.492-2.459-1.334-13.681.878-12.753 2.514-14.382 3.103-11.746 4.253 1.374.599 1.066.684-1.073.295-2.339-.426-2.67-.304-1.5.55 1.226.896 1.124.992-.557.524-2.774-.771-25.806 5.627-31.876 8.854-6.464 3.438-8.019 3.401-6.988-.163.438-1.512.902-4.55 1.031-6.75.665-11.297 8.198-26.35 13.246-26.468.746-.018 4.957-2.057 9.358-4.532 4.401-2.475 8.655-4.5 9.453-4.5s1.173-.45.833-1c-.348-.562.451-1 1.826-1 4.153 0 8.271-2.28 7.858-4.35-.283-1.42-1.045-1.751-3.277-1.423-1.599.235-2.907.071-2.907-.365 0-.435 3.262-.778 7.25-.762 4.527.018 8.714-.587 11.148-1.611 19.111-8.038 48.652-12.477 70.102-10.533 17.783 1.611 17.937 1.705 18.253 11.054.306 9.071.965 12.282 2.344 11.43.572-.353.815-1.228.54-1.943-.275-.716-.193-1.609.182-1.985.375-.375.719-2.332.765-4.347.136-5.926 1.379-9.018 3.76-9.358 2.051-.292 2.141-.741 1.845-9.19-.212-6.047-.771-9.342-1.75-10.321-2.006-2.006-1.801-2.953.811-3.747 1.448-.44 1.786-.874.947-1.217-.977-.401-.852-.876.5-1.901 1.704-1.292 1.685-1.369-.347-1.399-1.938-.029-1.79-.397 1.5-3.737 3.832-3.889 7.443-5.127 9.64-3.303.718.596 2.477.872 3.908.612 1.851-.335 2.602-.041 2.602 1.021 0 .821.43 1.227.956.902.526-.325.703-1.252.393-2.059-.309-.807-.029-1.468.623-1.468.79 0 .973-.972.549-2.905-.366-1.666-.187-3.184.42-3.559.583-.36 1.073-.065 1.089.655.018.739.514.477 1.14-.602.876-1.509.765-2.163-.53-3.11-1.723-1.26-2.234-3.479-.801-3.479.462 0 1.385-1.197 2.052-2.659 1.323-2.904.313-4.295-3.141-4.326-2.013-.017-2.356 1.574-.5 2.323.688.277.211.54-1.059.583-1.27.043-2.031.529-1.691 1.079.34.55-.272 1-1.359 1-1.088 0-2.577.22-3.309.489-.733.27-1.967.086-2.744-.409-1.722-1.096.722-4.08 3.341-4.08 2.231 0 1.955-3.087-.33-3.684-2.395-.627-3.387-4.992-1.315-5.787 1.293-.496 1.273-.809-.148-2.379-2.088-2.307-2.095-3.54-.015-2.742 1.299.499 1.487.173.949-1.643-.369-1.246-.79-2.849-.936-3.563-.357-1.748-5.264-4.202-8.401-4.202h-2.539l2.153-1.867c2.53-2.195 2.726-3.133.653-3.133-.825 0-1.5-.703-1.5-1.563 0-1.045-.742-1.459-2.239-1.25-1.232.172-2.251-.137-2.265-.687-.058-2.18-1.751-3.5-4.49-3.5-1.582 0-3.94-.405-5.242-.899-3.242-1.233-8.031-.239-7.353 1.527.289.754.048 1.372-.536 1.372-.584 0-1.277-.822-1.54-1.826-.411-1.571-1.273-1.762-6.156-1.366-3.124.253-5.971.915-6.328 1.472-.376.586-1.427.673-2.5.207-1.018-.443-2.301-.677-2.851-.521-.55.155-10 .414-21 .575-21.05.307-49.572 3.657-71.5 8.399-7.65 1.654-13.822 1.304-16.208-.919-2.018-1.88-2.12-2.87-2.05-19.75.076-18.2-.33-23.271-1.867-23.271-.481 0-.962 7.088-1.069 15.75m166.944 14.553c-4.483 1.255-4.661 2.046-.954 4.235 1.537.909 3.81 3.132 5.05 4.942 2.267 3.309 5.298 4.52 11.311 4.52 2.09 0 3.153.633 3.78 2.25.699 1.802.869 1.354.855-2.25-.025-5.848-2.104-9.808-5.56-10.586-8.004-1.801-10.237-2.597-9.703-3.461.68-1.1.3-1.072-4.779.35M290.5 191.58c-2.046 1.069-4.43 1.391-7.5 1.013-2.849-.351-3.766-.248-2.5.28 2.901 1.211-8.566 2.286-28 2.624-15.721.274-20.016.859-18.953 2.578.294.477-.721 1.139-2.256 1.471-1.535.333-6.616 1.73-11.291 3.106-4.675 1.375-10.075 2.621-12 2.768-5.1.389-9.145 1.624-12.113 3.696-1.437 1.004-2.899 1.538-3.25 1.188-.985-.985-.722 2.013.321 3.662.588.93.538 1.937-.138 2.75-.827.998-.382 1.284 1.999 1.284 1.684 0 3.385-.521 3.778-1.158.494-.798.023-.976-1.52-.572-1.713.447-2.1.232-1.656-.925.318-.83.579-1.683.579-1.895 0-.213.675-.128 1.5.188.825.317 1.5.051 1.5-.59s.45-.888 1-.548c.55.34 1 .115 1-.5s.47-.828 1.044-.473c.574.355 1.699.101 2.5-.563.801-.665 1.456-.767 1.456-.228 0 2.238 20.64-.244 35-4.209 4.236-1.17 10.972-1.508 29.308-1.469 23.641.049 27.19.327 26.127 2.047-.304.492.374.895 1.506.895 1.132 0 2.059-.41 2.059-.91 0-1.491 16.393-2.485 18.894-1.147 1.206.646 1.856 1.652 1.47 2.277-.445.72-.123.902.901.509 3.376-1.296 9.297-1.923 7.735-.819-1.175.83-.736 1.063 2.027 1.075 7.864.034 11.482-10.992 4.123-12.563-8.554-1.825-12.849-2.466-23.65-3.529-6.6-.649-12.428-1.566-12.95-2.037-1.451-1.308-4.725-1.014-8.05.724m-29.208 155.871c-3.163 3.599 8.169 6.327 18.821 4.53 6.583-1.11 6.98-1.317 5.457-2.839-1.365-1.365-1.786-1.409-2.494-.264-.477.771-1.39 1.046-2.071.625-.938-.579-.906-.956.138-1.632 1.197-.774-1.464-.68-11.643.414-1.149.124-1.894-.317-1.75-1.035.343-1.713-4.92-1.55-6.458.201m44.625 6.162c-3.091 1.117-3.179 1.248-.917 1.374l2.5.14-2.409.963c-1.325.53-2.917 1.658-3.538 2.506-1.028 1.406-5.761 2.043-17.425 2.343-1.978.051-2.169.307-1.146 1.539 1.359 1.638 15.965 1.059 17.106-.677.324-.493 1.166-.199 1.873.652.706.851 1.904 1.547 2.661 1.547.758 0 1.378.45 1.378 1 0 2.421 8.923-.201 13.438-3.948 2.591-2.151 2.613-5.034.035-4.82-1.281.106-2.175.441-1.987.745.522.844-6.214.628-7.069-.227-.413-.413.198-.75 1.357-.75 2.373 0 3.434-1.122 2.41-2.548-.967-1.346-4.276-1.282-8.267.161m-5.028 43.106c-.061.429-.04 1.906.045 3.281.124 1.999-.051 2.199-.874 1-.859-1.252-1.032-1.162-1.045.55-.008 1.128.46 2.525 1.04 3.105 1.282 1.282.174 6.366-1.321 6.062-2.019-.411-3.85 14.683-2.248 18.533.4.962.369 2.538-.069 3.5-.438.962-.859 5.575-.935 10.25-.076 4.675-.485 11.313-.908 14.75-.48 3.897-.406 6.25.199 6.25.602 0 .66 1.652.154 4.36-1.078 5.771-1.636 37.26-.677 38.222 1.444 1.447 2.033-.584 1.946-6.716-.059-4.156.424-6.869 1.472-8.274 1.542-2.068 1.553-2.063.96.408-.331 1.375-.614 9.925-.63 19-.019 11.027-.35 16.002-.998 15-.533-.825-.976-2.936-.985-4.691-.008-1.755-.428-3.446-.934-3.759-1.673-1.034-2.109 4.817-2.466 33.097-.092 7.318.225 9.522 1.584 11.023 1.093 1.206 1.394 2.371.843 3.262-.471.763-.643 1.944-.381 2.626.261.682-.005 1.537-.593 1.9-1.313.812-1.454 18.185-.153 18.989.503.311 1.119 0 1.37-.691.251-.691.89.319 1.42 2.244l.963 3.5 7.88-.298c4.334-.163 8.12-.537 8.413-.83.293-.293.505-6.909.47-14.702-.131-29.633-.417-36.797-1.445-36.161-.632.39-.972-1.001-.9-3.691.164-6.217-.863-11.149-2.588-12.428-2.194-1.627-1.819-24.326.38-22.965.342.212.622-13.297.622-30.019 0-16.723-.28-30.405-.621-30.405-.342-.001-.921-5.063-1.287-11.251-.366-6.187-1.157-15.731-1.758-21.207-.809-7.371-.8-10.054.036-10.333.622-.207 1.13-.922 1.13-1.589 0-1.315-6.928-2.194-7.111-.902m57.596 159.305c-.348.564-.289 2.476.133 4.25.421 1.774.816 6.376.878 10.226.062 3.85.493 10.539.957 14.864.836 7.795.824 7.859-1.338 7.172-1.979-.628-2.121-.429-1.519 2.136.365 1.555.717 4.403.784 6.328.066 1.925.674 3.95 1.351 4.5.678.55 1.366 1.9 1.529 3 .164 1.1.649 2.563 1.078 3.25.429.688.381 1.25-.106 1.25-1.759 0 .027 6.068 2.115 7.186 2.904 1.554 4.682 3.452 3.935 4.199-.79.79 3.682 5.615 5.204 5.615 2.732 0 7.514-9.574 7.514-15.043 0-1.51-1.753-7.18-3.895-12.601C372.072 589.617 366 567.858 366 562.557c0-4.941-5.529-9.747-7.515-6.533" fill="#d3d3d3" fill-rule="evenodd"/></svg>