<svg xmlns="http://www.w3.org/2000/svg" width="500" height="375"><path d="M391 66.728c0 4.234.353 5.123 2.489 6.266l2.49 1.333-2.097 1.468c-2.568 1.799-6.859 10.746-6.872 14.33-.016 4.25 1.164 8.886 2.112 8.3.483-.299.878-.082.878.481s-.94 1.526-2.088 2.141c-1.564.837-1.935 1.723-1.481 3.535.334 1.33.197 2.418-.305 2.418-2.327 0-1.817 3.282 1.009 6.501 2.111 2.405 2.604 3.499 1.576 3.499-1.879 0-2.799 2.239-1.671 4.064.963 1.559-.543 2.897-3.29 2.921-2.541.022-2.148-1.769.5-2.279 2.138-.412 2.125-.444-.25-.64-1.976-.163-2.141-.349-.787-.887 1.124-.445 1.429-1.141.886-2.019-.864-1.397-6.099 2.797-6.099 4.885 0 .525-.45.955-1 .955-1.462 0-1.227-1.092.694-3.214 1.603-1.772 1.59-1.838-.25-1.235-1.462.48-1.599.392-.552-.353 1.161-.827 1.061-1.463-.608-3.845-3.228-4.605-3.418-7.971-.526-9.288 2.732-1.245 1.566-4.065-1.68-4.065-.923 0-2.195-.517-2.827-1.149C369.64 99.24 353 98.414 353 99.945c0 .637-1.384 1.642-3.076 2.231-2.195.765-2.767 1.381-2 2.148.768.768 1.42.732 2.276-.124 1.792-1.792 3.8-1.449 3.8.648 0 1.37.78 1.87 3.018 1.933 1.66.048 2.758-.334 2.441-.847-.317-.514-.1-.934.482-.934s1.059.45 1.059 1 .9 1 2 1c1.987 0 2.602 1.065 1.342 2.325-.362.362-1.262.156-2-.456-1.029-.854-1.342-.735-1.342.509 0 .892-.477 1.622-1.059 1.622s-.81.403-.506.895c.674 1.091-1.742 2.105-5.017 2.105-1.727 0-2.418-.555-2.418-1.941 0-3.997-1.802-2.865-2.464 1.548-.559 3.728-1.019 4.5-2.455 4.124-1.025-.268-2.257.322-2.933 1.404-.944 1.511-.878 1.865.344 1.865.829 0 1.508.675 1.508 1.5s-.788 1.504-1.75 1.508c-.962.004-2.289 1.168-2.947 2.586-1.059 2.283-1.002 2.499.5 1.879 3.987-1.645 5.197-1.682 5.197-.159 0 .851-1.012 1.691-2.25 1.866-1.396.199-2.153.921-1.994 1.903.14.871-.31 1.632-1 1.692-4.096.352-7.756 2.188-7.756 3.891 0 .799.399 1.206.886.904.488-.301 1.127.373 1.422 1.498.771 2.95-1.376 1.916-3.969-1.911-1.317-1.944-2.338-2.695-2.613-1.923-.249.696-.776.966-1.172.599-1.405-1.299 3.282-4.726 6.14-4.489 2.394.198 5.306-1.237 5.306-2.614 0-.227-1.941-.118-4.313.242-2.94.446-4.69.25-5.5-.617-1.619-1.733-1.516-2.109.934-3.42 1.166-.624 1.846-.691 1.511-.149-.908 1.469 4.19 2.134 5.379.701.563-.678.714-2.039.336-3.024-.447-1.165-.308-1.557.398-1.121.596.369 1.271.11 1.5-.576.481-1.443-4.021-5.323-5.019-4.326-.367.368-.006 1.131.803 1.695 1.099.767.776.875-1.279.427-1.512-.33-2.75-.381-2.75-.113s1.238 1.158 2.75 1.979l2.75 1.492-2.75.04c-1.512.022-2.75.49-2.75 1.04s-.81 1-1.8 1-2.289.489-2.887 1.087c-.783.783-1.275.783-1.759 0-.951-1.539-5.554-1.355-5.554.222 0 .72.661 2.182 1.468 3.25 1.329 1.756 1.471 1.774 1.5.191.018-.963.74-1.75 1.605-1.75.973 0 1.433.668 1.205 1.75-.209.989.52 2.278 1.676 2.965 1.125.668 1.484 1.23.796 1.25-1.475.041-1.646 4.874-.25 7.035.828 1.282.972 1.246.985-.25.008-.963.423-1.75.921-1.75.499 0 .682.859.408 1.909-.336 1.282.106 2.065 1.343 2.384 1.653.426 1.663.487.093.591-2.48.164-2.184 2.116.321 2.116 1.884 0 1.929.143.5 1.571-2.016 2.017-2.018 1.998.895 10.921 3.385 10.37 5.378 21.531 6.168 34.533.367 6.036 1.076 10.975 1.575 10.975.5 0 .648-.423.328-.94-.319-.517-.003-1.48.704-2.14.77-.72 1.136-2.766.913-5.107-.347-3.631-.207-3.878 1.987-3.505 1.297.22 1.772.203 1.054-.038-.89-.298-.431-1.249 1.441-2.984 2.576-2.387 2.789-2.428 3.431-.666.595 1.635.733 1.554 1.058-.62.249-1.661 1.55-3.087 3.875-4.248 1.925-.962 2.911-1.75 2.191-1.75-.72-.001-1.031-.452-.691-1.002 1.069-1.729-.376-1.103-4.733 2.054-3.699 2.679-4.355 2.863-5.351 1.5-1.239-1.694-2.921-2.18-1.916-.554.34.55-.11 1-1 1s-1.366.408-1.058.906c.308.498 1.572.662 2.809.364 2.924-.705 1.149 1.233-2.001 2.185-2.015.609-2.253.333-2.274-2.638-.022-2.938-.564-6.077-2.547-14.742-.457-1.997-.307-2.219.85-1.258.773.641 1.691.88 2.041.53 1.11-1.11 10.68-1.298 10.68-.21 0 .642 1.207.739 3.25.261 4.464-1.045 11.75-1.081 11.75-.058 0 .462-1.012 1.684-2.25 2.716-1.238 1.033-1.714 1.892-1.059 1.911.655.018 1.474-.424 1.819-.983.82-1.328 2.49-.271 2.49 1.575 0 .793-.648 1.441-1.441 1.441s-1.749.498-2.125 1.107c-.456.737-.007.892 1.344.464 1.854-.589 1.959-.362 1.223 2.642-1.205 4.921-3.261 8.573-5.501 9.77-1.899 1.015-1.887 1.047.25.637 2.12-.408 2.25-.105 2.25 5.251 0 3.636.587 6.523 1.63 8.012.897 1.28 1.785 4.53 1.974 7.222l.343 4.895h-4.915c-2.702 0-5.208-.476-5.567-1.057-1.113-1.801.472-5.939 2.304-6.013 1.443-.059 1.398-.201-.269-.857-1.1-.432-3.913-.612-6.25-.398-2.639.241-4.25-.026-4.25-.703 0-.599-.385-.852-.855-.562-.47.291-.347-2.003.273-5.098.806-4.026 1.689-5.846 3.104-6.399 1.691-.66 1.724-.783.228-.843-1.199-.048-1.782-.936-1.852-2.82-.097-2.609-.143-2.581-.884.551-.941 3.97-1.195 4.262-3.901 4.465-1.162.088-2.113.563-2.113 1.055 0 .493 1.182.599 2.626.237 2.159-.542 2.515-.369 2 .973-.344.898-.626 2.496-.626 3.551 0 1.293-.733 1.95-2.25 2.018-2.14.094-2.127.134.25.811 2.403.684 2.422.753.5 1.765-2.273 1.197-4.489.731-6.106-1.285-.844-1.053-1.245.213-1.698 5.365-.492 5.606-2.985 17.184-5.257 24.419-.367 1.168.167 1.807 1.767 2.114 2.02.386 1.966.455-.456.575-2.009.099-2.75.659-2.75 2.077 0 1.068-.451 2.22-1.002 2.56-1.281.792-.691-3.629 1.871-14.001 6.708-27.168 4.066-56.853-7.288-81.873-2.031-4.477-2.298-5.732-1.123-5.281 2.044.784 1.904-.002-.958-5.346-2.086-3.896-2.421-4.164-2.495-2l-.085 2.5-1.538-2.838c-.846-1.562-1.757-2.62-2.024-2.354-.267.267.692 2.737 2.131 5.489 8.05 15.396 14.071 45.064 13.129 64.703-.561 11.721-1.248 15.7-5.577 32.329-2.254 8.662-2.734 2.837-.521-6.329 1.834-7.595 1.839-7.5-.395-7.5-1.333 0-1.875-.722-1.875-2.5 0-1.929.516-2.5 2.258-2.5 3.172 0 5.133-8.171 2.242-9.338-1-.403-1-.52 0-.583 3.135-.198 1.188-3.577-2-3.471-4.945.165-6.431-.637-4.199-2.269 1.457-1.066 1.52-1.339.307-1.339-2.346 0-1.807-2.986.559-3.1 1.823-.087 1.771-.199-.417-.9-2.434-.779-2.44-.807-.25-1.025a552.39 552.39 0 003.405-.35c2.105-.228 2.451-6.575.851-15.625-.632-3.575-1.276-8.075-1.43-10-.352-4.4-2.372-11.739-3.35-12.173-1.311-.581-4.268-11.306-3.215-11.66 1.544-.521 1.133-2.438-1.107-5.167-1.442-1.757-2.209-2.113-2.579-1.197-.397.981-.893.857-2.008-.5-1.367-1.665-1.438-1.669-.93-.053.702 2.233.078 2.215-2.199-.062-.997-.997-1.635-2.347-1.417-3 .218-.654-.317-1.188-1.188-1.188s-1.583-.765-1.583-1.7c0-1.322-.267-1.433-1.2-.5-1.85 1.85-2.65 1.435-2.358-1.222.186-1.692-.319-2.574-1.678-2.929-1.442-.378-1.774-1.043-1.286-2.579.61-1.924.265-2.07-4.911-2.07-6.161 0-6.789-.881-3.567-5 2.979-3.809 2.487-4.6-2.734-4.392-4.661.185-5.448.743-6.705 4.754-.445 1.417-1.298 1.757-3.573 1.423-2.036-.299-2.988-.016-2.988.888 0 .73.45 1.327 1 1.327s1 .675 1 1.5c0 1.8-9.913 2.152-13.066.465-1.352-.724-1.934-.713-1.934.035 0 .729-.586.757-1.838.087-1.011-.542-2.833-.724-4.048-.406-2.586.676-7.114-3.011-7.114-5.793 0-.97-.787-1.817-1.75-1.882-2.947-.2-22.446.027-27.75.322-2.75.153-6.881.367-9.18.475-3.502.165-4.233.562-4.5 2.447-.27 1.895-1.029 2.299-4.82 2.563-2.475.172-4.927.735-5.45 1.25-1.23 1.213-2.842 1.218-2.093.006.317-.512.047-1.257-.598-1.656-.813-.502-1-.062-.61 1.431.31 1.186.156 2.156-.343 2.156-.498 0-.906-1.058-.906-2.351 0-2.992-1.95-8.649-2.981-8.649-1.654 0-1.958 4.455-.365 5.346 1.31.733 1.348 1.038.216 1.756-1.077.682-.996.871.38.883.963.008 1.75.69 1.75 1.515s-.787 1.532-1.75 1.57c-1.496.06-1.46.195.25.93 1.928.829 1.921.862-.191.93-1.205.038-2.469-.38-2.809-.93-.34-.55-.141-1 .441-1s1.059-.45 1.059-1-.675-1-1.5-1-1.507.563-1.515 1.25c-.011.833-.339.75-.985-.25-.828-1.282-.972-1.246-.985.25-.008 1 .735 1.757 1.735 1.765 3.235.029-.767 1.774-4.397 1.918-5.301.211-5.25.211-17.603.088-8.411-.083-11.754-.458-11.765-1.319-.011-.845-.234-.875-.75-.101-.888 1.331-5.681 2.589-9.587 2.516-1.885-.035-3.004.53-3.301 1.665-.333 1.272-1.72 1.795-5.338 2.015l-4.889.297-.386-4.297c-.373-4.166-.39-4.137-.559.953-.096 2.887-.422 5.25-.725 5.25-1.293 0-7.042-3.433-8.048-4.806-1.24-1.692-3.402-.824-3.402 1.365 0 .793-.498 1.441-1.107 1.441s-.848.675-.531 1.5c.316.825.139 1.5-.393 1.5-.533 0-.969.914-.969 2.031 0 1.118-.675 2.291-1.5 2.607-2.909 1.117-1.454 2.205 2.25 1.683 2.063-.291 4.425-.544 5.25-.561.825-.018 2.034-.453 2.686-.966.75-.589 2-.497 3.397.25 1.82.975 2.37.899 3.113-.43.497-.888 1.386-1.614 1.976-1.614.687 0 .625.539-.172 1.5-.897 1.081-.922 1.5-.091 1.5.635 0 1.376-.58 1.648-1.289.855-2.227 4.28-1.789 4.746.606.422 2.172.425 2.172.561.05.078-1.221.993-2.358 2.137-2.657 1.103-.289 1.743-.105 1.426.408-.317.512-.02.808.66.657.68-.151 1.568.85 1.975 2.225l.739 2.5.099-2.75c.058-1.581.669-2.75 1.439-2.75.848 0 1.277 1.054 1.168 2.875-.142 2.394.22 2.875 2.161 2.875 1.804 0 2.332-.551 2.332-2.434 0-1.339-.419-2.175-.931-1.859-.512.317-1.183.167-1.492-.332-.316-.512 2.927-.959 7.431-1.025l7.992-.117.118 2.759.119 2.758.763-3c.739-2.906.767-2.918.882-.399.099 2.193.549 2.57 2.868 2.406 4.106-.29 4.423-.418 3.75-1.507-.34-.55.084-1 .941-1s1.559-.436 1.559-.969c0-.532.642-.722 1.427-.421 1.045.401 1.28-.014.878-1.552-.433-1.654-.842-1.857-1.927-.957-.758.629-1.407.751-1.441.271-.035-.479-.471.14-.968 1.378-.498 1.238-1.291 2.25-1.764 2.25-.972 0-.326-5.958.658-6.077 2.881-.346 4.562-.998 6.053-2.347 2.182-1.975 3.084-1.997 3.084-.076 0 1.048 1.056 1.5 3.5 1.5 2.833 0 3.5.381 3.5 2 0 2.454-1.972 2.693-2.07.25-.06-1.496-.195-1.46-.93.25l-.859 2-.101-2c-.087-1.731-.227-1.784-1.04-.392-.907 1.551-.623 5.602.469 6.694.292.292.531-.444.531-1.635 0-3.102 3.973-3.02 4.07.083.061 1.956.165 2.011.789.426.396-1.003 1.039-1.791 1.43-1.75 2.151.224 2.472-.125 1.949-2.122-.534-2.042-.621-2.064-1.238-.304-.627 1.787-.695 1.775-1.214-.21-.479-1.831-.048-2.15 3.332-2.473 3.442-.328 3.882-.121 3.882 1.823 0 1.206-.562 2.42-1.25 2.698-.687.277-.238.54 1 .583 1.557.055 2.25.695 2.25 2.079 0 2.804 1.862 2.494 3-.5 1.182-3.108 2.721-3.225 3.294-.25.239 1.238.502-1.8.585-6.75.105-6.222.451-8.537 1.121-7.5.718 1.111.973 1.156.985.177.008-.728.766-1.178 1.683-1 1.4.271 1.631 1.478 1.437 7.474-.236 7.259.697 9.497 2.869 6.88.751-.905 1.074-3.894.863-7.991-.315-6.122.481-8.741 1.456-4.79.237.963.331.737.208-.5-.157-1.584.31-2.25 1.579-2.25 2.078 0 3.396 1.588 2.022 2.437-.512.317-1.159.01-1.438-.681-.278-.691-.478 1.219-.443 4.244.061 5.339.084 5.383.779 1.5.778-4.344.909-3.751 1.328 6 .212 4.929-2.479 5.718-3.446 1.011l-.619-3.011-.131 3.25c-.13 3.199-.649 3.578-4.632 3.382l-2-.099 2 .849 2 .848-2 .519c-1.1.286 1.825.598 6.5.695 4.675.096 10.624.525 13.221.953 3.134.516 4.841.416 5.079-.298.247-.74 1.227-.68 3.144.194 1.532.698 3.631 1 4.665.673 1.415-.45 1.73-.211 1.278.969-.449 1.169.047 1.565 1.957 1.565 4.308 0 12.656 2.105 12.656 3.191 0 .564-1.012.784-2.25.489-7.188-1.714-11.75-1.882-11.75-.432 0 1.078-.739 1.324-2.75.913-1.901-.388-2.21-.677-1-.935.963-.205 1.75-1.24 1.75-2.299 0-1.636-.793-1.953-5.25-2.1-2.887-.095-7.5-.29-10.25-.433-2.75-.142-16.25-.531-30-.862-13.75-.332-27.025-.882-29.5-1.224-2.475-.341-5.803-.509-7.396-.374-1.593.136-3.965-.324-5.27-1.023-1.824-.976-2.648-.997-3.554-.091-1.431 1.431-10.78 1.587-10.78.18 0-.55-1.238-.968-2.75-.93-2.408.062-2.501.172-.75.886 1.331.542-.819.936-6.433 1.179-6.065.263-8.803-.006-9.75-.956-.967-.971-1.317-1.001-1.317-.114 0 .876-1.808 1.064-6.556.683-8.117-.652-13.786.837-13.105 3.44.365 1.396-.136 1.839-2.183 1.928-2.086.091-2.227.221-.656.608 3.15.774 4.755 2.421 3.542 3.634-1.671 1.671-1.222 5.448.708 5.953 1.561.408 1.569.47.07.573-.935.064-1.823 1.115-2 2.366-.211 1.483-1.125 2.364-2.681 2.584-1.503.213-2.118-.06-1.691-.75.369-.596.172-1.084-.437-1.084-1.472 0-5.787 4.718-6.569 7.184-.394 1.239-1.183 1.746-2.144 1.377-1.061-.407-1.345-.127-.941.928.344.894.022 1.511-.788 1.511-.93 0-1.343 1.203-1.286 3.75.046 2.063-.336 6.225-.849 9.25-.512 3.025-.908 8.955-.878 13.178.049 7.072-.129 7.762-2.251 8.729-1.268.578-2.305 1.542-2.305 2.143 0 .601-1.013.99-2.25.863-4.005-.409-9.779 1.272-10.777 3.138-1.688 3.154-1.217 7.701.777 7.496 4.033-.415 7.25-1.862 7.25-3.262 0-.842.587-1.274 1.341-.985.737.283 1.975.113 2.75-.377.997-.632 1.044-.897.159-.908-.687-.008-1.25-.437-1.25-.953s.9-.87 2-.787c1.13.085 2 .867 2 1.798 0 .906 1.088 3.252 2.418 5.212 2.144 3.159 2.232 3.635.77 4.197-.908.348-1.808.157-2.002-.425-.194-.581-.957-1.057-1.696-1.057s-1.489-.663-1.667-1.474c-.212-.967-.788-1.182-1.676-.627-1.076.673-1.111 1.301-.169 3.059.651 1.218.924 2.473.607 2.79-.547.548-1.305.223-7.839-3.353-1.515-.83-3.202-1.231-3.75-.892-1.302.804-1.298 17.192.004 17.997.55.34 1 1.068 1 1.618s-.432.733-.96.407c-.606-.375-.98 11.962-1.013 33.441-.046 29.735.139 34.034 1.46 34.034.832 0 1.52-.562 1.528-1.25.011-.876.235-.917.75-.137.874 1.324 5.96 1.134 5.235-.196-.275-.504-1.062-.855-1.75-.778-1.62.18-1.62-3.417 0-5.016 1.413-1.396 4.2-2.601 7.458-3.224 2.594-.497 4.868 2.625 3.158 4.335-.72.72-.706 1.247.047 1.712.598.37 1.087 1.538 1.087 2.596 0 1.871 1.284 1.923 47.128 1.907 29.534-.01 47.827-.39 49-1.017 1.269-.68 1.872-.669 1.872.033 0 .613 2.799 1.035 6.863 1.035 6.485 0 6.858-.124 6.75-2.25-.065-1.303-1.06-2.665-2.363-3.237-3.288-1.443-2.802-3.248.736-2.728 1.642.241 4.994 2.205 7.448 4.366l4.462 3.927 26.802-.193c24.613-.178 26.394-.305 21.802-1.558-2.75-.75-6.26-1.137-7.8-.86-1.955.351-2.584.154-2.086-.652.48-.777.152-.939-1.002-.496-1.156.443-1.482.28-1-.5.483-.781.157-.944-1-.5-1.111.426-1.477.272-1.039-.438.452-.731-.029-.871-1.448-.421-1.169.371-2.125.287-2.125-.188 0-.474-2.918-2.359-6.484-4.188-7.018-3.6-7.488-5.028-1.707-5.184 3.315-.089 3.437-.181 1.191-.9l-2.5-.801 2.75-.099c1.822-.066 2.75.406 2.75 1.4 0 .998-1.088 1.546-3.25 1.636-2.35.099-2.627.256-1 .57 1.238.238 2.25.852 2.25 1.364 0 .511.819.93 1.821.93 1.651 0 1.78-.78 1.381-8.368-.304-5.793-.074-8.593.746-9.1.708-.438 1.111-.189 1 .618-.453 3.301.223 4.649 2.552 5.095 2.424.463 2.952-.177 2.552-3.095-.114-.828.287-1.058 1.036-.596.752.465.964.339.55-.33-.369-.597-.206-1.373.362-1.724 2.123-1.312-.28-2.5-5.059-2.5H229l-.07-4.25c-.071-4.269-1.712-10.081-1.86-6.583-.038.916-.632 1.893-1.32 2.171-.688.277-.351.571.75.653 1.896.142 1.902.188.127.885-1.759.692-1.77.838-.178 2.43 1.22 1.22 1.324 1.698.372 1.709-1.035.012-1.018.208.082.904.929.588.03.818-2.661.681-2.235-.114-4.779-.801-5.653-1.526-1.367-1.135-1.589-1.022-1.589.804 0 1.348.638 2.128 1.75 2.137.988.009 1.315.335.75.75-.55.404-1 1.854-1 3.221 0 1.627-.641 2.61-1.856 2.844-2.903.559-3.862-1.2-4.09-7.498-.143-3.959-.6-5.747-1.422-5.569-.771.168-1.106-.742-.922-2.5.226-2.151-.094-2.699-1.444-2.473-1.205.202-1.554-.179-1.143-1.25.637-1.659 2.377-2.123 2.377-.634 0 .499.909.669 2.021.378 1.555-.406 1.766-.836.914-1.862-.609-.734-.848-1.753-.532-2.265.822-1.33-2.083-3.473-3.511-2.59-.861.532-.685 1.111.634 2.075 1.005.736 1.526 1.639 1.157 2.008s-1.461-.043-2.427-.916c-1.647-1.489-1.901-1.124-4.107 5.905-2.813 8.969-3.588 9.13-1.802.374 1.192-5.843 1.148-6.518-.524-8.19-2.364-2.364-2.807-2.298-2.899.427-.042 1.238-.672 3.825-1.4 5.75-1.269 3.355-1.311 3.197-1.013-3.828.172-4.03.577-7.593.9-7.917.324-.323.589-1.44.589-2.481 0-2.751 1.738-1.244 2.484 2.154.529 2.406 3.117 4.862 4.055 3.846 2.718-2.948 1.223-13.774-1.903-13.774-.918 0-1.2-.829-.87-2.556.277-1.448-.306-4.032-1.345-5.961-2.472-4.59-1.439-5.151 3.615-1.96 3.289 2.076 4.694 2.455 6.344 1.713 1.97-.886 1.89-1.005-1.13-1.674-1.878-.417-3.25-1.346-3.25-2.2 0-.814.45-1.202 1-.862 1.102.681 1.421-4.746.342-5.825-.362-.362-1.281-.141-2.042.491-1.044.866-1.67.864-2.542-.008-1.81-1.81-3.629-1.379-3.077.729.53 2.029-1.802 4.249-2.443 2.326-.281-.842-.885-.826-2.309.064-2.517 1.572-2.47 2.677.086 2.009 1.547-.405 1.871-.152 1.395 1.088-.341.888-1.052 1.347-1.581 1.02-.529-.327-1.569.235-2.31 1.25-1.007 1.377-1.054 2.031-.184 2.584.768.489.586.747-.535.757-.935.008-2.199.802-2.808 1.765-.794 1.253-1.257 1.395-1.633.5-.915-2.176-2.101-1.35-1.626 1.132.336 1.762.951 2.252 2.361 1.883 2.067-.54 2.755 2.092.853 3.268-1.011.625-4.947-3.033-4.947-4.598 0-1.235-2.357-.524-5.532 1.667-1.632 1.127-4.543 2.653-6.468 3.39-1.925.738-5.437 2.892-7.805 4.787-2.367 1.895-4.541 3.208-4.83 2.919-.596-.596 8.129-7.701 14.113-11.491 6.77-4.288 7.238-5.209 2.404-4.728-2.31.229-4.572 1.003-5.026 1.719-.605.954-.829.977-.841.083-.008-.679-.69-.959-1.541-.633-1.176.452-1.262.902-.377 1.969.836 1.007.843 1.383.025 1.383a1.122 1.122 0 01-1.122-1.117c0-1.16-.826-.999-7.484 1.453-3.643 1.342-4.201 1.313-6.52-.339-1.395-.993-5.003-2.566-8.016-3.495-3.014-.929-6.825-2.112-8.47-2.627-1.987-.624-3.105-.59-3.335.1-.19.57-.757.783-1.26.472-.503-.311-.915.11-.915.936 0 .909 1.874 2.106 4.75 3.034 4.549 1.468 4.587 1.51.893.992-7.275-1.018-8.785-2.004-7.474-4.881.634-1.39 1.642-2.542 2.242-2.558.599-.017.258-.514-.757-1.104-1.324-.769-2.159-.761-2.95.03-.805.805-.788 1.104.062 1.104.717 0 .371 1.348-.899 3.5-1.135 1.925-2.456 3.5-2.934 3.5-.479 0-.611.675-.295 1.5 1.2 3.126-.279 4.462-3.568 3.221-4.668-1.763-6.461.574-2.281 2.973 3.053 1.752 5.037 5.306 2.962 5.306-.583 0-.316.823.594 1.829 1.864 2.06 2.213 3.634.581 2.625-.59-.365-.493.266.216 1.401.924 1.48 1.507 1.722 2.058.855.491-.772.775-.395.785 1.04.02 2.969-1.322 2.857-2.985-.25-.736-1.375-1.738-2.5-2.228-2.5-.49 0-.631-.419-.315-.931.317-.512.118-1.213-.441-1.559-.559-.345-1.016-.182-1.016.364 0 .545-.853 1.262-1.895 1.593-2.323.737-3.537 7.533-1.345 7.533.747 0 1.08-.45.74-1-.34-.55.136-1 1.058-1 1.248 0 1.553-.638 1.197-2.5-.263-1.375-.09-2.5.384-2.5.473 0 .861 1.14.861 2.532 0 1.692.747 2.833 2.25 3.437l2.25.904-2.316.064c-2.771.075-5.89 1.59-8.883 4.314-3.027 2.756-5.567 1.679-4.671-1.979.374-1.525 1.093-2.933 1.598-3.13.505-.196-.088-1.428-1.317-2.737-1.718-1.828-2.549-2.12-3.585-1.26-1.075.892-1.296.635-1.088-1.263.144-1.31.712-2.762 1.262-3.226.578-.488.24-.599-.802-.262-1.082.35-1.552.178-1.176-.43.345-.558.09-.89-.565-.739-1.42.328-2.177-2.971-.868-3.78 1.82-1.125.85-2.156-1.589-1.69-1.375.263-2.5.876-2.5 1.362 0 .485-.45.883-1 .883-2.122 0-.871-2.994 1.5-3.589 1.375-.345 2.5-1.056 2.5-1.578 0-.523.45-.673 1-.333s1 .201 1-.308-2.25-1.86-5-3.003c-4.432-1.842-6.691-4.189-4.031-4.189.532 0 .727-.629.431-1.399-.295-.769-.048-1.7.548-2.069.597-.369.826-1.089.509-1.601-.316-.512-.098-.931.484-.931S96 236.475 96 235.833c0-.641-.263-.904-.583-.583-.321.321-1.373-.167-2.338-1.083-.965-.917-2.615-2.243-3.667-2.947-1.36-.911-1.549-1.441-.656-1.836.691-.305.955-1.043.586-1.639-.416-.673-.084-.86.872-.493.848.325 2.047.087 2.664-.53.829-.829 1.122-.572 1.122.984 0 1.682-.453 1.995-2.25 1.553-1.237-.305-1.907-.183-1.488.272.843.915 10.738 1.748 10.738.904 0-.292-1.238-1.665-2.75-3.051-1.513-1.386-2.075-2.337-1.25-2.114.825.223 2.048-.309 2.718-1.182 1.102-1.436 1.221-1.424 1.25.127.018.943.975 2.219 2.127 2.836 1.869 1 2.023.897 1.432-.965-1.056-3.328.23-5.617 3.982-7.09 2.587-1.015 3.491-1.968 3.491-3.683 0-1.317.538-2.205 1.25-2.063.785.157 1.183-.751 1.07-2.442-.141-2.096.174-2.556 1.423-2.076 1.195.458 1.441.189.962-1.058-.353-.921-.206-1.674.326-1.674.533 0 .969-.9.969-2s.352-2 .782-2c.801 0 3.064-7.305 3.098-10 .011-.825.113-2.175.227-3 .515-3.719-.182-9.072-1.107-8.5-.55.34-1-.11-1-1 0-.928-.472-1.326-1.107-.934-.762.471-.873-.054-.356-1.683.641-2.018.532-2.186-.735-1.134-1.469 1.219-2.802.756-2.802-.975 0-.49.45-.614 1-.274.55.34 1-.084 1-.941 0-1.248 1.265-1.559 6.343-1.559 3.489 0 11.865-.297 18.614-.66l12.271-.66-.595-4.34c-.588-4.292-.561-4.34 2.419-4.34 1.658 0 5.235 1.125 7.948 2.5 5.872 2.976 5.982 2.989 6.063.75.046-1.258.336-1.069 1.032.672.665 1.665.62 2.636-.145 3.109-1.273.787 6.025 3.969 9.102 3.969 1.107 0 3.573.652 5.48 1.449 7.98 3.334.67-4.717-7.706-8.488-1.279-.576-3.438-1.681-4.797-2.456-1.893-1.08-2.649-1.128-3.234-.207-.536.843-.769.725-.78-.395-.008-.879-1.027-2.086-2.265-2.683-1.791-.863-1.893-1.098-.5-1.152.963-.038 1.75-.813 1.75-1.723 0-1.514.15-1.519 1.752-.069 2.205 1.995 15.244 7.892 16.514 7.469.52-.174 2.923 1.634 5.34 4.016 2.417 2.383 4.401 3.749 4.409 3.036.012-.953.259-.912.934.155.506.799.726 1.764.491 2.145-.236.382.28.965 1.145 1.297 1.286.494 1.457.075.937-2.294l-.637-2.898 6.963-1.244c3.902-.697 7.774-.886 8.807-.43 2.883 1.273 7.345 1.552 7.345.46 0-.543.787-.981 1.75-.973 1.496.013 1.532.157.25.985s-1.246.972.25.985c.963.008 1.75-.505 1.75-1.14 0-.655.866-.371 2 .655 1.799 1.628 2 1.643 2 .155 0-.91.45-1.655 1-1.655s1 .45 1 1 .675 1 1.5 1 1.507-.562 1.515-1.25c.011-.833.339-.75.985.25.533.825.976 3.712.985 6.417.008 2.704.339 4.592.735 4.196.396-.396.588-2.261.426-4.144-.484-5.618.432-7.185 3.906-6.675 2.196.323 2.948.069 2.738-.925-.178-.839.753-1.489 2.402-1.68 2.049-.236 2.691.122 2.683 1.5-.046 8.944 1.195 13.308 2.436 8.561.435-1.667.463-1.667.573 0 .128 1.925 3.577 2.431 4.657.683 1.04-1.681-.535-2.545-1.649-.904-.806 1.187-.939 1.084-.687-.529.201-1.291 1.214-2.105 2.857-2.297 2.364-.277 2.542-.01 2.492 3.749-.053 3.995-.451 4.436-3.715 4.115-.914-.089-1.927.267-2.251.791-.325.525-1.49.719-2.589.431-1.39-.363-1.999-.03-1.999 1.094 0 2.508-1.203 1.935-5-2.383-1.925-2.189-3.838-3.985-4.25-3.99-1.139-.015-.896 4.505.411 7.675.639 1.548 1.104 3.11 1.032 3.47-.228 1.15 2.239 1.595 4.307.777 1.774-.702 1.796-.799.191-.862-2.258-.087-1.284-1.914 1.079-2.022 4.904-.226 13.667.055 14.063.451.248.249-.175 1.212-.94 2.139-.881 1.067-1.007 1.818-.342 2.042.664.224.829 2.371.447 5.837-.375 3.411-.223 5.483.403 5.483.553 0-1.786 2.649-5.2 5.887-4.107 3.896-6.417 6.945-6.832 9.016-.575 2.876-.737 2.986-2.006 1.363-1.248-1.597-1.345-1.479-1.013 1.234.292 2.381.809 2.951 2.509 2.762 1.177-.131 2.141.206 2.141.75 0 .543-.787.988-1.75.988-1.278 0-1.75.81-1.75 3 0 1.859.516 3 1.357 3 .76 0 1.118.623.813 1.417-.299.78.132 1.677.959 1.994 1.11.426 1.346.087.907-1.299-.375-1.181-.029-2.093.934-2.462.842-.323 1.53-1.475 1.53-2.56 0-1.084.45-2.25 1-2.59.583-.361 1 .656 1 2.441 0 2.959.147 3.059 4.5 3.059 2.58 0 4.5.465 4.5 1.09 0 .599 1.012 1.91 2.25 2.914 3.293 2.669 1.535 3.445-2.387 1.054-3.463-2.111-7.863-2.755-7.863-1.152 0 .499.9.671 2 .384 1.1-.288 2-.074 2 .476 0 1.342 10.13 6.234 12.909 6.234 1.218 0 1.932-.449 1.591-1-.34-.55-1.604-1.007-2.809-1.015-1.645-.012-1.846-.234-.806-.893.851-.539 2.671-.34 4.718.515 4.346 1.816 4.651 1.769 3.897-.607-.349-1.1-.197-2 .339-2s.738-.9.451-2c-.568-2.172-3.28-2.787-3.305-.75-.011.858-.304.794-.934-.202-1.456-2.302-.491-2.763 5.393-2.576 6.855.217 8.543-.625 6.822-3.402-.678-1.095-.969-2.681-.645-3.525.952-2.48 2.379-.706 2.379 2.957 0 3.265.148 3.394 4.25 3.691 4.198.303 4.257.36 4.83 4.654.417 3.122.205 4.49-.75 4.857-.731.28-1.33.938-1.33 1.462s.45.674 1 .334 1-.141 1 .441-.9 1.059-2 1.059c-1.333 0-2-.667-2-2 0-3.411-3.695-2.534-4.213 1-.414 2.82-.241 3 2.886 3 3.036 0 3.859.8 3.421 3.324-.079.454.318.54.881.191.573-.354 1.025.275 1.025 1.426 0 1.132-.562 2.095-1.25 2.138-.687.043-.012.531 1.5 1.083 2.962 1.082 3.815 3.116 1.104 2.632-.906-.162-1.864.331-2.13 1.095-.295.847-.042 1.117.646.691 1.516-.937 1.449-.629-.838 3.856-1.082 2.123-1.73 4.243-1.441 4.712.29.469.107.852-.407.852s-1.184 1.238-1.489 2.75c-.305 1.512-.86 3.538-1.232 4.5-.508 1.313-.172 1.75 1.347 1.75 1.113 0 2.196-.517 2.407-1.15.264-.794 1.222-.87 3.093-.247l2.71.904-2.522 3.711c-1.387 2.041-2.404 4.219-2.26 4.839.144.621-.619 1.65-1.696 2.286-1.077.636-2.571 1.72-3.321 2.407-.75.688-1.857 1.25-2.459 1.25-.602 0-.832.264-.51.586.322.322-.39 1.708-1.583 3.08s-2.169 2.908-2.169 3.414c0 .506-.45.947-1 .981-1.736.105-5.467 4.184-4.805 5.254.387.626-.027.772-1.063.374-1.191-.457-1.953.026-2.56 1.621-1.161 3.056-3.483 4.853-5.344 4.139-.839-.322-1.823-.105-2.186.483-.363.587-.157 1.068.458 1.068s.84.45.5 1c-1.489 2.409 4.383.732 7-2 2.919-3.047 5.796-4.267 3.48-1.476-.696.838-.977 1.812-.626 2.163.833.833 12.146-7.949 12.146-9.429 0-1.262 6.374-7.258 7.715-7.258.471 0 .399-.853-.159-1.895-.753-1.407-.633-2.211.465-3.122 1.173-.974 1.479-.966 1.479.037 0 .695 2.587-2.154 5.75-6.331 3.163-4.178 6.324-7.617 7.025-7.642.701-.026 1.545-1.397 1.875-3.047.685-3.427 2.325-3.871 4.056-1.099 1.035 1.657.809 2.057-1.759 3.121-3.565 1.476-3.929 3.263-.49 2.399 2.091-.524 2.664-.117 3.842 2.731.761 1.842 1.006 3.498.543 3.681-.463.184-.842.762-.842 1.285 0 1.308 4.977.537 5.872-.911.441-.714 3.051-1.113 6.676-1.02 5.87.149 40.755-1.717 51.452-2.752 4.052-.392 5.964-1.112 7.262-2.734 1.638-2.046 1.836-2.078 2.8-.451 1.193 2.012 3.06 2.359 2.688.5-.177-.887 1.853-1.335 7-1.544 3.988-.161 7.25-.724 7.25-1.25s.788-.949 1.75-.941c1.451.013 1.502.173.299.933-.928.588 3.037.936 11 .967 6.848.026 11.871-.319 11.162-.767-.956-.604-1.03-1.494-.287-3.447 1.198-3.153.96-8.696-.374-8.699-.523-.001-.41-.542.25-1.202 2.063-2.063 1.451-5.612-1.05-6.094l-2.25-.434 2.25-.136c2.145-.13 2.25-.53 2.25-8.597v-8.462l-3.958-1.066c-4.291-1.155-6.338-2.984-3.064-2.738 1.112.084 2.029.619 2.037 1.19.009.57.452.362.985-.463.761-1.178.973-1.206.985-.128.012 1.107.306 1.132 1.515.128 2.465-2.045 2.094-13-.44-13-1.505 0-2.027.84-2.332 3.75l-.392 3.75-.168-3.75c-.179-3.994-1.532-4.696-5.234-2.715-2.286 1.224-2.419.684-.573-2.32a5.769 5.769 0 00.6-4.715l-.762-2.5-.115 2.5c-.143 3.12-1.472 5.293-3.41 5.577-.817.12-2.254.648-3.192 1.173-1.124.629-3.802.505-7.844-.362-3.376-.725-8.388-1.369-11.138-1.432-2.75-.063-4.419-.347-3.708-.632.961-.386 1.007-.861.18-1.857-.796-.96-.808-1.906-.041-3.337 1.331-2.488 1.386-4.168.069-2.13-.693 1.073-.974-.012-.985-3.809-.016-5.685 1.382-6.517 1.797-1.069.36 4.721 1.025 4.749 1.773.073.779-4.873 1.614-5.29 11.415-5.698 10.177-.425 13.698.239 14.343 2.705.445 1.702.743 1.8 1.99.65 1.029-.949 1.161-1.725.444-2.602-.562-.687-.854-1.283-.649-1.324 5.446-1.087 5.535-1.034 3.789 2.229-.919 1.718-.806 1.968.75 1.657 1.235-.247 1.822-1.231 1.799-3.015-.018-1.456.319-2.43.75-2.163.431.266.784-.016.784-.627s-1.367-1.588-3.039-2.17c-2.73-.952-2.866-1.186-1.337-2.304 1.015-.742 1.446-1.907 1.07-2.888-.963-2.509-2.694-1.96-2.694.855 0 1.833-.533 2.5-2 2.5-1.333 0-2 .667-2 2 0 1.232-.672 2.006-1.75 2.015-1.496.013-1.532.157-.25.985s1.246.972-.25.985c-1.067.009-1.75-.738-1.75-1.913 0-1.723-.611-1.888-5.75-1.56-4.986.32-5.219.262-1.75-.43 3.644-.727 3.385-.811-2.917-.94-9.904-.203-7.471-1.262 3.066-1.334 9.404-.064 9.499.068-1.649-2.306-4.034-.859-6-1.853-6-3.035 0-.715-.562-1.567-1.25-1.892-1.656-.785 19.525.21 21.623 1.015.895.343 1.627.158 1.627-.411 0-.998-2.521-1.396-17.404-2.745-6.548-.594-7.788-2.38-1.679-2.419 4.104-.026 1.432-1.247-3.442-1.573-4.13-.276-4.472-.141-3.292 1.298 1.162 1.418 1.023 1.529-1.183.947-1.375-.363-2.864-.666-3.309-.673-.445-.008-.531-.464-.191-1.014s-.084-1-.941-1c-2.272 0-1.919-3.751.423-4.494 1.594-.506 1.741-.89.75-1.964-1.02-1.105-1.349-1.051-1.912.312-.61 1.477-.687 1.466-.75-.104-.038-.963-.52-1.75-1.07-1.75s-1-1.125-1-2.5.45-2.5 1-2.5 1-1.152 1-2.559c0-1.451.433-2.292 1-1.941.55.34 1 .141 1-.441s-.392-1.059-.871-1.059-1.181-2.743-1.56-6.096c-.589-5.204-.425-6.304 1.121-7.527 1.738-1.374 1.734-1.42-.081-1.154-1.35.198-2.207-.645-3-2.947-1.844-5.36-5.006-7.872-8.123-6.452-1.429.652-2.317 1.641-1.972 2.198.345.558-.39 2.659-1.632 4.669-1.243 2.011-3.266 6.39-4.496 9.732-1.231 3.342-2.721 5.965-3.312 5.827-.591-.137-1.074.2-1.074.75s-.705 1-1.567 1c-1.022 0-1.389-.609-1.054-1.75.283-.963.856-3.55 1.273-5.75.417-2.2.834-4.338.928-4.75.093-.412.258-1.537.365-2.5.17-1.523.3-1.491 1.004.25.705 1.743 1.028 1.461 2.52-2.203 1.657-4.073 9.052-11.297 11.563-11.297 2.609 0 8.853 4.406 9.415 6.643.693 2.765 2.553 3.17 2.553.557 0-.99.535-2.335 1.19-2.99 1.73-1.73 1.941-4.474.296-3.843-2.113.811-2.233-2.62-.164-4.689 1.014-1.014 1.587-2.103 1.271-2.418-.315-.315-1.723.667-3.128 2.183-2.16 2.331-3.511 2.809-8.759 3.103-4.143.231-5.541.055-4.206-.53 1.1-.481 3.012-.907 4.25-.946 1.238-.038 2.25-.547 2.25-1.129s.403-.81.895-.506c.493.305 1.149-.107 1.459-.914.309-.808-.197-1.893-1.125-2.413-1.579-.883-1.576-1.067.042-2.855.951-1.051 1.79-3.45 1.865-5.332.108-2.717.231-2.913.598-.952.447 2.384.517 2.35 2.06-1l1.598-3.469.647 5c.542 4.194.675 4.435.819 1.5.298-6.039 2.085-7.207 2.295-1.5.157 4.283.239 4.47.572 1.303.276-2.617.788-3.543 1.755-3.172 2.027.777 3.991-3.359 2.467-5.195-.656-.79-1.838-1.436-2.628-1.436-.791 0-1.137-.485-.771-1.077.457-.739-.859-.91-4.191-.544-3.642.4-4.106.324-1.857-.305 2.82-.787 2.85-.845.5-.969-1.375-.073-3.568-.418-4.873-.768l-2.373-.635 2.373-1.315 2.373-1.316-2.917-.036c-3.772-.045-3.07-.6 1.689-1.334 2.553-.394 3.559-.236 3.111.488-.376.609-.089.88.665.628 2.275-.758 2.247-2.817-.038-2.817-2.336 0-2.566-3.39-.246-3.625.68-.069 1.467-.181 1.749-.25.958-.233-2.568-7.617-4.237-8.875-1.973-1.488-5.66-1.68-4.776-.25.34.55.141 1-.441 1S392 86.151 392 85.114c0-1.664.619-1.836 5.25-1.454 3.492.287 4.783.116 3.855-.513-1.133-.767-1.039-1.036.5-1.43 1.042-.267.095-.59-2.105-.719-3.915-.23-3.936-.251-1-.998 2.425-.617 2.569-.786.75-.882-1.57-.082-2.25-.743-2.25-2.185 0-1.653.426-1.933 2.125-1.393 1.401.444 1.898.307 1.459-.404-.378-.611.326-1.326 1.625-1.652 1.95-.49 2.332-1.313 2.567-5.53.151-2.725.151-4.985 0-5.022-.152-.038-3.314-.309-7.026-.603l-6.75-.534v4.933M65.885 65.75c-.063 1.513-.035 3.537.063 4.5.098.963-.301 1.75-.885 1.75-.585 0-1.063.845-1.063 1.878 0 1.032-.698 2.456-1.551 3.164-3.08 2.556-1.396 6.318 3.237 7.228 2.626.516 4.352 1.457 4.634 2.526.412 1.566.457 1.562.564-.046.137-2.067 2.654-2.212 6.017-.348l2.402 1.33-2.902 1.055c-2.204.802-2.42 1.078-.901 1.149 1.664.079 1.748.257.5 1.064-1.09.704-1.142.974-.191.985.723.008.994.525.605 1.153-.507.821.383.936 3.191.411 4.675-.873 5.308-1.36 3.366-2.588-1.288-.815-1.284-.941.029-1.016 1.038-.059.884-.378-.5-1.034-1.555-.738-1.249-.834 1.375-.43 1.856.285 4.106.578 5 .651.894.072.05.463-1.875.868l-3.5.737 3.059.131c1.682.073 3.906-.487 4.941-1.244 1.722-1.26 1.445-1.47-3.274-2.482-2.836-.608-5.96-.852-6.941-.542-1.599.505-1.621.425-.208-.768 1.541-1.302 2.48-10.833 1.067-10.831-.354 0-.488-2.254-.297-5.009.325-4.689.517-5.004 3-4.935 4.182.117 17.498-1.069 18.036-1.606.267-.267-4.885-.41-11.449-.317-7.377.104-12.215.588-12.669 1.267-.404.604-.741 4.313-.75 8.242-.011 5.302-.388 7.286-1.463 7.699-1.134.435-1.353-.179-1.012-2.842.239-1.869.096-3.607-.317-3.862-.413-.255-.587-2.527-.387-5.048.201-2.521.77-4.334 1.264-4.028.495.306.9.08.9-.502 0-.591-1.547-.949-3.498-.809C70.15 63.49 68.322 66 71.5 66c.825 0 1.5.675 1.5 1.5s-.562 1.507-1.25 1.515c-.92.012-.891.243.107.875 1.452.92.719 5.11-.893 5.11-.496 0-.606.787-.245 1.75.58 1.549.457 1.588-1.077.34-.953-.776-1.507-1.999-1.231-2.718.276-.719.14-1.531-.302-1.804-.441-.273-.493-2.538-.114-5.032.526-3.469.372-4.536-.654-4.536-.768 0-1.39 1.174-1.456 2.75m40.782-2.083c-.367.366-.667 3.086-.667 6.044 0 3.721-.385 5.327-1.25 5.214-3.576-.464-4.057.215-1.396 1.97l2.854 1.881-3.604 1.19C100.622 80.62 99 81.57 99 82.078c0 1.262.623 1.168 4.068-.613 3.232-1.672 3.451-1.481 4.334 3.769.253 1.503-.042 3.043-.655 3.422-.713.441-.419.968.819 1.466 1.093.439-.676.59-4.066.347l-6-.43 4 1.356c3.65 1.238 3.781 1.398 1.5 1.826-1.375.258-.25.374 2.5.257 2.75-.116 3.918-.01 2.596.237l-2.403.447 2.403 1.217c1.322.67 3.529 1 4.904.735l2.5-.483-2.5-.801c-2.897-.929 5.415-.266 9.49.757 2.806.704 4.232-1.357 3.001-4.337-.459-1.11-.888-1.314-1.172-.556-.247.656-1.207.957-2.134.668-1.351-.421-1.3-.212.256 1.056 1.922 1.566 1.922 1.581 0 1.482-2.48-.127-7.35-1.668-5.691-1.8.688-.055 1.25-.802 1.25-1.659s.409-1.306.91-.997c1.396.863 4.09-.488 4.09-2.051 0-.766-.787-1.386-1.75-1.378-1.29.012-1.412.23-.464.832.779.494-.307.784-2.749.734-2.517-.05-4.035-.551-4.036-1.331C114 85.563 113.55 85 113 85c-.55 0-.993-.787-.985-1.75.013-1.496.157-1.532.985-.25s.972 1.246.985-.25c.008-.963-.627-1.75-1.412-1.75-.784 0-1.632.787-1.884 1.75-.386 1.478-.477 1.44-.588-.25-.098-1.494-.346-1.662-.978-.665-.639 1.008-.984.805-1.411-.829-.408-1.558-.185-2.018.794-1.642 1.562.599 2.768-3.568 2.059-7.114-.248-1.237-.026-2.25.492-2.25.519 0 .943 1.773.943 3.941s.45 4.219 1 4.559c1.005.621 1.367-1.153 1.052-5.154-.094-1.185.314-2.454.905-2.82.592-.365.738-1.196.325-1.845-.749-1.177-.92-1.73-1.157-3.74-.23-1.949-2.125.148-2.14 2.368-.013 1.781-.197 1.91-.985.691-.646-1-.974-1.083-.985-.25-.008.688-.465 1.25-1.015 1.25-1.788 0-1.106-4.826.75-5.311 1.418-.37 1.355-.479-.333-.573-1.146-.064-2.384.184-2.75.551m77.326 12.824c1.437 1.732.475 3.626-1.464 2.882-.774-.297-2.222-.066-3.218.513s-1.339 1.067-.762 1.084c.602.017.88 1.485.651 3.442-.305 2.617.056 3.655 1.554 4.456 1.477.791 2.108 2.535 2.593 7.174.786 7.527 1.041 7.958 4.712 7.958 3.426 0 3.395.08 1.414-3.636-1.673-3.137-1.717-11.442-.066-12.557.564-.381 1.688-.156 2.497.5 1.219.989 1.351.875.772-.668-.561-1.494-.351-1.722 1.063-1.153.968.389 4.236 1.642 7.261 2.783 3.025 1.14 6.21 2.672 7.079 3.402 2.01 1.693 2.576 1.671 3.264-.123.349-.908-.454-1.97-2.143-2.836-1.485-.762-4.387-2.351-6.45-3.532-2.517-1.44-3.771-1.741-3.813-.913-.035.678-.537.108-1.114-1.267-.653-1.552-1.234-2.01-1.534-1.208-.395 1.055-.768 1.055-2.04 0-.856-.711-1.825-1.292-2.153-1.292-.328 0-.596-.975-.596-2.166 0-2.939-.916-3.652-5.11-3.983-2.994-.235-3.385-.05-2.397 1.14M77.033 100.46c-1.149 1.384-1.041 2.039.732 4.436l2.079 2.812-3.672-.375c-6.288-.642-10.175-1.528-10.743-2.448-.301-.487-1.42-.885-2.488-.885-3.09 0-2.473 4.622 1.092 8.187l3.033 3.033 2.411-2.6c1.632-1.761 2.976-2.383 4.166-1.927 1.087.417 1.297.827.55 1.076-.663.221-.908.883-.545 1.471.391.632.189.777-.493.355-.734-.453-1.155.059-1.155 1.405 0 1.165.412 1.864.915 1.553.503-.311 1.165 0 1.47.691.377.851.528.772.467-.244-.244-4.109.229-4.411 2.487-1.589 2.161 2.701 4.661 2.953 4.661.471 0-.55-.399-.754-.886-.453s-1.093-.539-1.347-1.867c-.331-1.73-.008-2.424 1.136-2.448.878-.019 3.397-.45 5.597-.959 3.956-.915 3.965-.926.75-1.04-2.984-.106-4.31-1.392-2.5-2.425 1.464-.834 8.734-1.751 7.75-.977-.55.433-1 1.902-1 3.265 0 2.106.602 2.586 4 3.193 4.618.824 9.621.92 7.689.146-1.008-.403-.893-.987.5-2.526.996-1.1 1.703-2.291 1.57-2.646-.132-.355 1.534-.661 3.703-.681 7.195-.067 5.156-1.083-7.721-3.847-17.521-3.761-22.508-4.205-24.208-2.157m-.116 29.26c-.263.769-3.007 1.316-7.417 1.48-7.397.274-8.46.86-8.485 4.675-.013 2.101.327 2.307 2.946 1.783 3.302-.661 4.378.204 2.973 2.39-.81 1.26-1.056 1.262-1.858.016-1.296-2.014-4.076.371-4.076 3.498 0 1.941.608 2.381 3.75 2.71l3.75.392-3.803.168-3.803.168.211 6.5.21 6.5h4.343c4.13 0 4.342-.142 4.342-2.917 0-1.604-.562-3.143-1.25-3.421-.747-.301-.545-.536.5-.583.963-.043 1.75.371 1.75.921s.505 1 1.122 1c.827 0 .826-.358-.006-1.36-1.265-1.524 4.802-2.615 14.634-2.631 2.888-.005 5.25-.459 5.25-1.009 0-.975-9.911-1.516-18.896-1.032-3.845.207-4.311.015-3.716-1.536.393-1.026.139-2.137-.604-2.637-.784-.529.789-.776 4.036-.635 3.441.149 5.598-.219 6.106-1.04.585-.947 2.613-1.089 7.982-.56l7.198.709-.694-2.885c-.381-1.586-.81-3.026-.952-3.2-.142-.174-4.316-.399-9.274-.5-6.844-.14-8.777-.471-8.027-1.375.543-.654 2.157-1.329 3.587-1.5 3.1-.368 4.334-2.809 1.421-2.809-1.1 0-2.188-.562-2.417-1.25-.323-.968-.511-.974-.833-.03M409 141c-1.09.704-1.142.974-.191.985.72.008 1.001.513.625 1.122-.478.773-.972.698-1.64-.25-.653-.927-.762-.407-.345 1.643.478 2.345.369 2.672-.5 1.5-.872-1.177-.977-.891-.49 1.334.369 1.683.236 2.596-.326 2.248-1.138-.703-1.962 10.101-.898 11.767.456.715.74.412.75-.799.012-1.569.259-1.703 1.265-.683 1.002 1.016.902 1.525-.5 2.561-2.146 1.585-2.242 2.572-.25 2.572.825 0 1.507-.562 1.515-1.25.011-.853.249-.905.75-.163.404.598 3.21 1.588 6.235 2.2l5.5 1.112-6-.308c-3.3-.17-6.515-.126-7.144.098-1.617.575-.47 4.156 1.502 4.689 2.961.8 8.65.554 7.246-.314-1.988-1.228.442-2.392 4.803-2.302 2.835.059 3.171-.104 1.593-.773-1.95-.827-1.946-.85.128-.919 2.753-.091 5.024-2.606 3.041-3.367-1.356-.52-2.857-6.603-2.929-11.865-.023-1.722-.481-2.491-1.298-2.178-.694.267-1.55-.425-1.903-1.537-.858-2.704-6.002-8.127-7.69-8.108-.742.009-2.024.452-2.849.985m-120.484 9.813c-.17.173-2.493.456-5.163.63-2.669.173-5.401.37-6.072.436-.67.067-.996.7-.725 1.407.359.934 3.487 1.306 11.399 1.359 12.64.083 13.416.518 13.815 7.744.216 3.933.013 4.676-1.039 3.802-.866-.718-2.99-.805-6.27-.256l-4.961.83 4.25.117c2.337.065 4.25.558 4.25 1.097 0 .598-3.211.793-8.25.502-8.602-.496-12.689.559-9.75 2.519 1.622 1.081-.048 2.95-2.667 2.985-.641.008-1.393.578-1.671 1.265-.277.688-.54.238-.583-1-.071-2.009-.588-2.248-4.829-2.235-3.368.011-4.316.29-3.258.959.82.518 2.575.671 3.899.339 1.667-.419 2.189-.252 1.699.541-.389.63-.205 1.146.41 1.146s.852.43.527.956c-.325.526-1.23.711-2.011.412-.781-.3-2.004-.181-2.718.265s-1.829.892-2.479.99c-1.511.23-2.545-2.365-1.259-3.16 1.108-.685.301-2.463-1.119-2.463-.533 0-.934 4.876-.926 11.25.011 8.148.305 10.836 1.066 9.75.822-1.174.913-1.011.417.75-.372 1.323-.193 2.25.435 2.25.587 0 1.067.9 1.067 2s-.45 2-1 2c-1.338 0-1.283 3.707.068 4.542.588.363.827 1.29.532 2.059-.321.835.1 1.399 1.042 1.399 2.236 0 9.976 8.172 9.586 10.121-.25 1.247.262 1.508 2.224 1.133 1.5-.287 2.548-.028 2.548.629 0 .629 1.637 1.104 3.75 1.087 3.186-.026 3.469-.194 1.88-1.117-1.507-.876-1.604-1.252-.5-1.938 1.604-.997 8.808-.085 10.62 1.344.843.665 1.25.621 1.25-.137 0-.617 1.313-1.122 2.918-1.122 3.927 0 6.082-.924 6.082-2.607 0-1.05-1.662-1.4-6.75-1.423-4.507-.021-6.237-.331-5.206-.935.85-.497 2.759-.771 4.243-.608 1.484.163 3.206-.316 3.828-1.065.621-.749 1.75-1.362 2.507-1.362.758 0 1.378-.684 1.378-1.519 0-1.513-.383-1.504-7.5.177-1.672.396-1.754.288-.5-.658 1.21-.912 1.051-1.004-.823-.475-1.64.463-2.723.115-3.679-1.184-1.219-1.657-1.036-1.959 1.824-3.015l3.178-1.174-3.5-.194c-1.925-.107-4.108-.112-4.85-.01-.796.11-1.054-.294-.629-.982.431-.698 1.895-.933 3.638-.584 2.075.415 3.084.148 3.496-.925.367-.957.993-1.183 1.712-.619.623.489 2.821.913 4.883.942 7.604.108 7.654.123 7.25 2.22-.434 2.256.514 2.586 2.3.8.924-.924 1.2-.926 1.2-.008 0 .655-.9 1.753-2 2.44s-2 1.617-2 2.068c0 .45.5.509 1.112.131.611-.378 1.504-.067 1.984.691.648 1.023.877.798.889-.872.011-1.729.594-2.25 2.515-2.25 1.556 0 2.5-.567 2.5-1.5 0-.825-.45-1.5-1-1.5s-1-.477-1-1.059.48-.762 1.066-.4c.703.434.959-.653.75-3.191-.242-2.947-.727-3.817-2.066-3.711-.962.076-1.75-.261-1.75-.75s.675-.889 1.5-.889 1.5-.45 1.5-1-.45-1-1-1-1-.675-1-1.5.788-1.493 1.75-1.485c1.363.012 1.45.206.393.875-.952.604-1.025 1.065-.243 1.548.613.379 1.384-.015 1.714-.875.866-2.257 2.907-1.921 4.17.687 1.067 2.202 1.087 2.193.94-.439-.163-2.928-3.56-4.669-4.923-2.523-.596.938-.774.93-.786-.038-.008-.687-.642-1.25-1.408-1.25-2.618 0-2.6-2.785.021-3.443 1.865-.468 2.977-.049 4.4 1.658l1.905 2.285.034-3.201c.018-1.76-.454-5.473-1.05-8.25-1.213-5.655-.559-5.421-14.167-5.06-4.132.11-5.778-.219-5.849-1.168-.054-.727-.196-2.221-.315-3.321s-.3-3.687-.401-5.75c-.139-2.82-.619-3.758-1.935-3.782-1.667-.03-1.667-.095 0-1.36.962-.731 1.75-1.579 1.75-1.886 0-.582-13.944-1.457-14.484-.909M61.213 170l-.238 9H70v-18h-8.548l-.239 9M102 189c0 .55.9 1.9 2 3 2.074 2.074 2.693 3.547 1.069 2.543a1.104 1.104 0 00-1.514.369c-.321.519.285 1.22 1.347 1.557 1.86.59 4.47 5.826 3.425 6.871-.28.28-.203 1.474.171 2.654.65 2.047.744 2.062 2.074.325 1.254-1.638 1.342-1.47.884 1.681-.427 2.933-.348 3.135.485 1.25.547-1.238 1.448-2.25 2.002-2.25.585 0 .756-1.255.407-2.998-.341-1.707-.097-3.602.567-4.402.892-1.074.882-1.5-.042-1.808-.665-.222-1.32-1.953-1.456-3.848a2068.63 2068.63 0 01-.333-4.694c-.047-.687-.563-1.25-1.145-1.25-.582 0-.737.521-.344 1.158.491.793.037.98-1.441.593-1.453-.38-2.156-.105-2.156.843 0 .773-.675 1.406-1.5 1.406-1.353 0-1.944-1.187-1.618-3.25.065-.412-.557-.75-1.382-.75-.825 0-1.5.45-1.5 1m76.487 11.75c.024 4.813-.279 9.221-.675 9.797-.396.575.593 2.584 2.197 4.464 2.15 2.519 2.598 3.648 1.704 4.297-.868.63-.786.751.287.426.971-.295 2.733 1.431 5 4.897 1.925 2.944 3.838 5.357 4.25 5.361 1.601.017.589-2.485-3.322-8.215-2.24-3.281-3.815-6.223-3.5-6.538.315-.315.713-.385.886-.156 4.425 5.874 4.686 6.119 4.686 4.41 0-.978-1.983-4.098-4.407-6.935-4.693-5.494-7.875-14.933-3.787-11.233 2.74 2.479 3.52 2.054 2.804-1.527-.581-2.905-4.072-7.798-5.564-7.798-.332 0-.584 3.938-.559 8.75m7.513 1.468c0 2.015.46 3.948 1.022 4.296.562.347 2.889 3.158 5.17 6.246 4.081 5.524 4.171 5.579 5.6 3.427 2.042-3.076 2.94-2.719 2.4.955-.336 2.292-.132 2.939.755 2.391.83-.513 1.11-3.137.884-8.287-.322-7.328-.264-7.547 2.108-7.914 4.758-.736 3.671-3.067-1.722-3.695-4.193-.488-6.162 1.662-3.855 4.21.901.996 1.638 3.338 1.638 5.205v3.394l-7-6.946-7-6.946v3.664m30.015-1.125c-.008.877.887 4.215 1.989 7.42 3.338 9.701 4.477 21.613 3.035 31.737-.685 4.813-1.553 8.75-1.928 8.75s-.711.787-.747 1.75c-.035.963-.405 2.988-.822 4.5-.593 2.15-.418 2.75.803 2.75 4.32 0 7.099-26.709 4.214-40.5-1.673-7.995-6.508-20.118-6.544-16.407m135.6 29.093c.41.664-1.176.899-4.512.669-4.108-.283-5.118-.053-5.009 1.145.279 3.075-.151 3.717-2.344 3.499-1.238-.123-1.462-.029-.5.208 2.033.502 2.31 1.926.5 2.573-3.058 1.092.978 2.107 8.598 2.161l8.299.059-.914 4.294c-.502 2.361-.662 4.949-.355 5.75.728 1.897 3.622 1.89 3.622-.009 0-.805.801-1.894 1.781-2.418 2.076-1.111 2.675-5.208.923-6.321-.79-.502-.517-.776.796-.796 1.436-.022 1.634-.263.703-.854-1.04-.659-.999-1.07.207-2.071 1.009-.838 1.313-2.21.923-4.162-.525-2.625-.324-2.913 2.042-2.913 1.444 0 2.625-.401 2.625-.891 0-.489-4.054-.903-9.009-.919-5.899-.018-8.791.325-8.376.996M373 242.36c0 9.165-1.078 14.638-2.886 14.655-1.407.014-1.422.14-.114.985.825.533 3.668.976 6.317.985 4.36.014 4.757.205 4.183 2.015-.577 1.817-.18 2 4.351 2 2.742 0 5.771.301 6.731.67 1.111.426 1.507.283 1.088-.395-.362-.586.014-1.323.836-1.639.822-.315 1.494-1.262 1.494-2.105 0-1.23-1.388-1.531-7.071-1.531-7.755 0-9.642-1.019-10.643-5.744-1.54-7.276-1.396-7.485 6.714-9.772 10.637-3 11.191-3.354 5-3.202-3.125.076-5.932.686-6.5 1.413-1.662 2.124-7.979 2.996-7.212.996.344-.895.187-1.897-.348-2.228-.535-.331-.714-1.02-.397-1.532.316-.512.098-.931-.484-.931-.614 0-1.059 2.254-1.059 5.36m-134.094-3.025c-2.048 1.508-1.306 3.665 1.261 3.665 1.177 0 1.811.514 1.541 1.25-.252.688-.964 1.137-1.583 1-1.87-.415-1.26 2.568.625 3.061 1.317.344 1.193.486-.5.573-2.183.113-2.777 2.001-2.503 7.958.038.836-.655 1.154-1.843.843-1.38-.361-1.904.027-1.904 1.409 0 2.117 2.546 2.618 3.338.656.277-.687.54-.223.583 1.032.076 2.204-3.4 4.585-5.171 3.542-.412-.243-.75.26-.75 1.117s.338 1.506.75 1.441c2.598-.411 3.732.161 2.25 1.133-1.878 1.233.217 2.945 3.633 2.97 2.403.017 3.816-4.136 2.018-5.934-2.151-2.151 1.065-1.044 3.487 1.202 2.122 1.965 4.155 2.599 5.862 1.825 2.136-.968 5.524-.889 6.794.158 1.221 1.008 1.616 1.011 1.952.014.231-.687 1.085-1.25 1.896-1.25.812 0 1.235-.39.941-.866-.294-.476-1.738-.636-3.208-.355-1.856.355-2.455.159-1.96-.641.395-.639.015-1.419-.852-1.752-2.219-.852-1.938-2.386.437-2.386 2.213 0 2.71-1.547.75-2.338-.687-.277-.238-.54 1-.583 1.457-.051 2.3.538 2.392 1.671.078.962.464-.05.858-2.25.69-3.852.721-3.88.858-.75.117 2.685.533 3.238 2.392 3.18 2.147-.067 2.158-.11.25-.93-1.785-.767-1.806-.867-.191-.93.995-.038 1.531-.52 1.191-1.07-.34-.55-.141-1 .441-1s1.059.675 1.059 1.5.675 1.5 1.5 1.5 1.447-.337 1.382-.75c-.312-1.975.246-2.599 1.118-1.25.814 1.259.972 1.196.985-.39.008-1.039-.773-2.47-1.735-3.18-1.643-1.211-1.613-1.418.5-3.399 2.444-2.291 2.507-2.557 1.294-5.531-.749-1.839-.873-1.779-1.538.75-.865 3.289-.859 3.288-4.337.717-2.329-1.722-3.626-1.931-8.46-1.363-4.871.573-8.248 2.396-4.436 2.396.818 0 1.272 1.429 1.272 4 0 3.456-.299 4-2.203 4-2.028 0-2.174-.4-1.831-5.004.363-4.875.309-4.989-2.069-4.392-2.001.502-2.442.239-2.442-1.46 0-1.141-1.012-2.607-2.25-3.259-1.238-.651-2.478-1.529-2.756-1.949-.279-.421-1.218-.241-2.088.399m171.902 5.057c-1.516 2.088-1.536 2.552-.193 4.469 1.452 2.073 5.129 3.151 3.885 1.139-.34-.55-.108-1 .514-1 .623 0 .981.787.796 1.75-.186.963-.871 1.75-1.524 1.75-2.018 0-3.471 2.158-3.121 4.635.29 2.049.937 2.393 4.835 2.573 2.475.114 3.938-.036 3.25-.334-1.975-.854-1.455-4.087.75-4.664 2.461-.643 2.663-2.54.25-2.349-1.428.113-1.806-.827-2.052-5.111-.286-4.97-.446-5.248-3-5.219-1.649.02-3.356.938-4.39 2.361M292.362 247.5c-.317.825-1.428 1.5-2.469 1.5s-1.893.45-1.893 1-.675 1-1.5 1-1.5.424-1.5.943c0 .518-1.913 1.107-4.25 1.309l-4.25.367 3.22.81c1.867.469 3.485 1.642 3.85 2.791.457 1.442.928 1.682 1.729.881 1.375-1.375 5.701-1.452 5.701-.101 0 .55 1.125 1 2.5 1s2.5-.477 2.5-1.059-.399-.813-.886-.511c-.488.301-1.123-.358-1.413-1.465-.387-1.479-.085-1.94 1.136-1.739 1.056.174 1.522-.274 1.276-1.226-.34-1.319-.775-3.957-1.03-6.25-.148-1.338-2.13-.792-2.721.75M339 255.054c0 .731-1.116 1.009-2.962.738-1.879-.276-3.148.053-3.473.899-.381.993.154 1.167 2.092.68 1.971-.495 2.486-.315 2.12.738-.267.765-1.224 1.259-2.127 1.098-2.783-.496-4.712 2.001-2.767 3.582 1.424 1.158 1.348 1.241-.633.695-1.665-.458-2.25-.196-2.25 1.008 0 .974-.463 1.34-1.155.913-.673-.417-.884-.277-.506.334.36.584-.475 1.329-1.887 1.684-1.428.358-2.249 1.097-1.88 1.693.457.74.981.731 1.741-.029.598-.598 1.897-1.087 2.887-1.087s1.8-.505 1.8-1.122c0-.776.464-.738 1.5.122 1.251 1.038 1.5.902 1.5-.819 0-2.559 1.976-3.986 2.063-1.49.05 1.402.276 1.279 1.008-.548.741-1.851 1.456-2.228 3.332-1.757 1.614.406 2.574.116 2.961-.893.811-2.111 2.309-1.852 2.926.507.645 2.467 2.403 2.612 3.021.25.392-1.502.473-1.517.573-.107.206 2.921 5.116 3.509 5.116.612 0-.619.978-2.168 2.174-3.441l2.175-2.314-2.425-.07c-2.152-.063-2.207-.156-.49-.828 1.458-.571 1.615-.954.638-1.558-.773-.477-1.648-.244-2.168.578-.633.998-.878 1.033-.889.128-.009-.759-1.39-1.25-3.515-1.25-3.582 0-5.212 3.142-2.25 4.338.747.301.545.536-.5.583-1.127.051-1.75-.656-1.75-1.984 0-1.407-.556-1.971-1.75-1.775-.962.159-2.312-.065-3-.496-.735-.461-1.25-.301-1.25.388m-62 4.085c0 .473-.675.861-1.5.861s-1.464.788-1.421 1.75c.047 1.045.282 1.247.583.5.278-.687 1.255-1.214 2.171-1.171 1.207.057 1.29.229.304.621-.942.375-1.02.754-.253 1.228 2.089 1.291-1.033 6.218-3.551 5.604-1.241-.303-2.384.005-2.674.72-.381.938-.77.875-1.568-.252-.859-1.215-1.063-.998-1.076 1.143-.008 1.454-.69 2.902-1.515 3.219-.825.316-1.532 1.377-1.57 2.357-.062 1.559-.178 1.532-.93-.219-.473-1.1-.891-1.411-.93-.691-.038.72-.52 1.031-1.07.691-.55-.34-1 .084-1 .941s-.477 1.559-1.059 1.559-.734.526-.336 1.17c.483.782.182.962-.909.544-.898-.345-1.898-.196-2.223.33-.325.526.143.956 1.039.956.897 0 2.306.675 3.131 1.5.825.825 1.973 1.5 2.551 1.5.648 0 .574-.574-.194-1.5-1.061-1.279-.785-1.5 1.878-1.5 1.717 0 3.122.477 3.122 1.059s.542.724 1.205.314c.662-.409 2.498-.805 4.079-.879 1.582-.073 3.177-.619 3.546-1.212.846-1.359 6.056-2.097 6.141-.869.035.503-1.119 1.04-2.564 1.194-3.825.408-3.987 1.107-.438 1.886 3.449.758 6.235-.797 5.388-3.005-.36-.937.605-1.578 3.07-2.04 3.82-.717 5.531-2.238 3.754-3.336-.598-.37-.722-1.237-.279-1.953.966-1.564.237-5.955-1.129-6.799-.603-.373-.725.214-.315 1.508.527 1.662.332 1.989-.904 1.514-1.193-.457-1.411-.172-.895 1.171.466 1.216.312 1.547-.489 1.052-.644-.398-1.17-.246-1.17.336 0 .582.45 1.059 1 1.059s1 .675 1 1.5-.675 1.5-1.5 1.5c-1.064 0-1.504-1.09-1.515-3.75-.009-2.062-.351-3.223-.76-2.579-1.307 2.054-6.674 2.941-5.921.979.348-.908.171-1.65-.394-1.65-.574 0-.682-.552-.244-1.25.431-.687.664-1.982.517-2.877-.147-.895.427-1.893 1.275-2.219 2.334-.895 1.849-2.362-.958-2.899-1.375-.263-2.5-.09-2.5.384m92 9.054c0 .444 1.012.859 2.25.923 1.594.082 1.758.246.561.561-.928.245-1.879 1.431-2.113 2.634-.366 1.883-.445 1.821-.562-.444-.117-2.269-4.137-5.207-4.136-3.023.001.361-3.655.543-8.123.405-6.703-.206-7.928-.016-7.009 1.092.613.739.781 1.711.373 2.16-.407.45.097.516 1.12.147 1.416-.51 1.718-.296 1.262.893-.345.898-.18 1.303.388.952 1.392-.86 1.234.862-.211 2.307-.933.933.611 1.2 6.95 1.2 6.708 0 8.331-.31 9.17-1.75.566-.971 1.033-1.194 1.05-.5.047 1.932 3.408 1.478 5.841-.789 1.204-1.121 2.189-1.551 2.189-.955 0 .681 1.211.86 3.25.481 1.788-.332 3.925-.707 4.75-.834 2.91-.447 5.308-2.407 4.745-3.875-.746-1.943-8.682-2.02-10.876-.106-1.418 1.237-1.847 1.207-3.28-.226-1.707-1.707-7.589-2.678-7.589-1.253m44.75 8.55l-7.75.341-.122 12.708c-.067 6.989-.144 13.833-.172 15.208a77.38 77.38 0 00.122 5.25L406 313h33v-37l-8.75.201c-4.812.111-12.238.355-16.5.542m-148.296 8.331c-.315.509.467.933 1.737.941 1.858.013 2.016.205.809.985-1.333.862-1.333.98 0 1.066.825.053.15.691-1.5 1.418-2.185.963-3.189 1.016-3.696.198-.382-.618-1.044-.775-1.471-.349-.426.427-.113 1.194.696 1.706.994.629-.8.955-5.529 1.005-3.85.042-9.25.447-12 .901-3.328.549-5.225.467-5.674-.246-.465-.739-1.147-.677-2.206.201-.843.7-2.002.982-2.576.627-.574-.355-1.044.057-1.044.914s-.477 1.559-1.059 1.559-.842.351-.577.781c.72 1.164 52.636 1.342 52.636.181 0-.529-2.441-.962-5.423-.962h-5.424l1.497-3c1.047-2.098 2.226-3 3.923-3 1.335 0 2.427-.45 2.427-1s-.562-1.007-1.25-1.015c-.847-.011-.775-.316.221-.946.809-.512 1.172-1.23.806-1.595-1.062-1.062-14.692-1.391-15.323-.37" fill="#d3d3d3" fill-rule="evenodd"/></svg>