<svg xmlns="http://www.w3.org/2000/svg" width="500" height="664"><path d="M0 332v332h299v-2.536c0-1.394.283-12.982.629-25.75.828-30.522.822-30.212 2.207-117.714.657-41.525 1.459-83.204 1.781-92.62.636-18.532.494-18.07 7.241-23.603 3.365-2.759 3.82-.102 3.036 17.723-.387 8.8-.966 23.2-1.287 32-1.58 43.24-2.404 61.543-3.131 69.5-.276 3.025-.716 12.25-.977 20.5-1.224 38.644-1.718 46.64-3.429 55.476-1.008 5.211-1.614 10.049-1.345 10.75.835 2.176 2.275 1.4 2.275-1.226 0-1.532.569-2.5 1.469-2.5.859 0 1.242.59.922 1.423-.313.815.342 1.899 1.531 2.535C312.04 609.092 312.815 612 311 612c-.55 0-1 .45-1 1 0 1.875 2.062 1.007 2.969-1.25.869-2.163.907-2.143.968.5.049 2.136-.4 2.75-2.01 2.75-3.36 0-1.886 3.245 2.511 5.526l3.912 2.03-.425 6.972c-.783 12.852-.329 20.058 1.423 22.559 2.554 3.646 2.078 4.913-1.848 4.913-1.925 0-3.5.402-3.5.893 0 1.083 2.469 2.107 5.082 2.107 2.4 0 2.537 2.692.168 3.311-.962.251 38.862.509 88.5.573L498 664v-14.34c0-7.887.337-21.95.75-31.25l.75-16.91.522 31c.287 17.05.624-118.288.75-300.75L501 0h-45.393C406.516 0 409-.273 409 5.127c0 2.37-4.608 7.233-6.025 6.358-.554-.343-.742-1.053-.417-1.579.325-.525.704-2.969.843-5.431L403.654 0H0v332m.494.5c0 182.6.115 257.151.256 165.669.141-91.482.141-240.882 0-332S.494 149.9.494 332.5m315.062 156.687c-2.253 6.89-5.255 76.266-3.397 78.505 1.763 2.123 3.107 1.502 2.446-1.131-.337-1.341-.221-2.68.256-2.975.804-.497 1.504-3.664 2.782-12.586.276-1.925.501-3.95.5-4.5-.051-34.89-.375-41.95-1.978-43.13-1.551-1.143-1.549-1.272.025-1.883 1.432-.555 1.51-1.051.512-3.242-.92-2.019-.907-2.677.06-2.999 1.481-.494 1.665-5.864.231-6.75-.554-.343-1.2-.032-1.437.691" fill="#d3d3d3" fill-rule="evenodd"/></svg>