<svg xmlns="http://www.w3.org/2000/svg" width="500" height="375"><path d="M75 50.532c0 .843 1.013 1.939 2.25 2.437 2.163.869 2.143.907-.5.968-1.513.034-2.75-.291-2.75-.724s-.9-.855-2-.938c-2.181-.164-2.655 1.67-.887 3.438 1.334 1.334.341 3.287-1.672 3.287-2.97 0-1.691 5 1.439 5.626 2.219.444 2.766 1.012 2.383 2.475-.696 2.664 2.219 2.457 7.436-.526 3.565-2.039 4.377-2.188 5.373-.988.97 1.168.607 1.413-2.097 1.413h-3.271l3.249 2.25c3.365 2.33 6.885 7.245 5.897 8.233-1.051 1.051-3.903-.708-5.435-3.352L82.891 71.5l.521 3.927c.373 2.818 1.646 5.078 4.507 8 4.645 4.745 9.577 15.234 6.174 13.131-.498-.309-.788.227-.643 1.191.145.963.068 1.183-.169.489-.238-.694-.837-1.012-1.332-.707-1.863 1.152-9.783-8.605-11.074-13.644C80.186 81.199 79.221 79 78.731 79c-.489 0-.593-1.35-.231-3 .445-2.024.271-3-.533-3-.848 0-1.078 2.026-.797 7 .35 6.197.191 7-1.387 7-1.098 0-1.783.746-1.783 1.941 0 2.683 2.057 3.708 3.231 1.61.821-1.466 1.575-.8 4.954 4.37 2.192 3.355 4.83 6.552 5.863 7.105 2.235 1.196 1.526 3.974-1.015 3.974-.965 0-3.412-1.125-5.438-2.5s-3.826-2.5-4-2.5c-.471 0 .132 6.48.95 10.205.652 2.966.566 3.132-.96 1.865-.922-.765-1.425-2.043-1.119-2.842.38-.99.077-1.267-.955-.871-1.192.458-1.511-.258-1.511-3.388 0-6.22-2.44-5.024-4.464 2.188-3.529 12.577-.548 20.062 9.455 23.742 5.242 1.927 6.399 4.535 2.453 5.526-3.292.826-6.819-1.315-8.949-5.434-.85-1.645-2.048-2.991-2.66-2.991-.613 0-1.712-.787-2.443-1.75-1.116-1.471-1.338 2.158-1.39 22.75-.033 13.475-.243 31.7-.466 40.5-.441 17.42.757 15.233 2.037-3.717.411-6.093 1.121-10.472 1.644-10.149.895.553.509 11.839-.542 15.866-.287 1.1-.556 5.514-.598 9.809-.049 4.934-.445 7.581-1.077 7.191-1.238-.765-1.292.176-1.468 25.25-.103 14.772.172 20.25 1.018 20.25.789 0 1.147-2.637 1.119-8.25-.059-12.138.476-18.778 1.465-18.167.48.296.759 5.536.619 11.643-.186 8.18.076 11.215.997 11.523.817.273 1.189 2.208 1.075 5.584-.17 5.023-.185 5.048-.557.917-.211-2.338-.793-4.25-1.294-4.25s-.652.675-.336 1.5c.367.955-.016 1.5-1.052 1.5-1.571 0-4.403 4.516-3.438 5.482.261.26 1.571.64 2.913.844 1.341.204 2.595 1.168 2.785 2.141.212 1.085-.078 1.508-.75 1.092-.704-.435-1.135.507-1.205 2.632-.061 1.82-.281 6.204-.49 9.742-.285 4.837.009 6.862 1.184 8.161 1.726 1.907 1.391 7.025-.618 9.446-1.64 1.975-.426 4.739 1.778 4.047 1.915-.6 4.602 3.603 3.255 5.091-.409.452-1.025 2.692-1.369 4.978-.573 3.814-.459 4.112 1.395 3.627 1.712-.448 1.926-1.08 1.411-4.155l-.608-3.628 2.28 4.5c1.254 2.475 2.651 4.757 3.105 5.071.454.315.704 1.663.556 2.997-.207 1.855.259 2.501 1.98 2.748 1.25.18 2.25-.204 2.25-.863 0-.755 1-.995 2.75-.661 1.54.295 4.068-.156 5.75-1.026 5.787-2.993 6.488-3.266 8.393-3.266 1.374 0 1.783.525 1.437 1.845-.435 1.666.47 1.916 9.344 2.582 5.404.405 11.176.907 12.826 1.115 8.091 1.019 14.246 1.409 26.327 1.666 7.515.16 13.173.691 13.173 1.236 0 .526.54.416 1.2-.244.66-.66 2.235-1.2 3.5-1.2 2.817 0 2.851-.173 1.945-10-.37-4.014-.269-5.722.266-4.465 1.385 3.255 3.837 4.729 7.08 4.253 1.655-.243 3.009-.098 3.009.322 0 .42-1.463.904-3.25 1.077-2.067.199-3.26.859-3.276 1.813-.015.825-.36 2.031-.767 2.681-1.126 1.797.893 2.506 2.302.808.68-.819 1.904-1.489 2.72-1.489.915 0 1.262-.581.905-1.512-.46-1.198-.043-1.378 2-.865 1.699.426 2.88.174 3.458-.738.707-1.116.88-1.061.893.282.008.916-.547 1.893-1.235 2.171-.734.296-.513.537.535.583.982.043 2.782.718 4 1.498 1.218.781 4.915 1.713 8.215 2.071l6 .651-4.464-2.321c-4.862-2.526-7.753-6.508-6.707-9.234.604-1.576.935-1.524 3.755.593 7.634 5.73 11.377 7.361 17.617 7.681 7.316.376 9.356-.432 6.372-2.521-1.14-.799-2.073-2.316-2.073-3.371 0-1.646-.364-1.78-2.565-.943-1.411.536-3.998.929-5.75.873l-3.185-.103 3.365-.795c1.851-.437 4.646-1.741 6.21-2.897 3.722-2.752 4.134-2.663 3.77.813-.356 3.389 2.063 6.516 6.602 8.536 3.51 1.562 13.286 2.789 13.93 1.748.237-.385 3.287-.672 6.777-.638 3.49.034 6.578-.271 6.861-.679.283-.407 5.458-.83 11.5-.94 15.722-.287 16.001-.372 17.45-5.292 2.1-7.132 7.94-15.079 9.75-13.269.236.236-.704 2.224-2.089 4.418-2.476 3.922-2.485 4.017-.595 5.728 1.89 1.71 1.815 3.472-.149 3.472-.55 0-.741-.419-.425-.931.835-1.35-1.449-2.477-2.628-1.298-.663.663-.215 1.546 1.336 2.632 2.15 1.506 2.428 1.507 3.518.016 1.363-1.864 3.494-1.044 2.696 1.036-.922 2.402 2.879 3.601 7.228 2.282l3.893-1.181-3.25-.341c-1.788-.188-3.25-.763-3.25-1.278 0-1.257 4.718-1.202 5.5.063.934 1.511 2.5 1.198 2.5-.5 0-.825.35-1.5.777-1.5 1.376 0 5.223 3.078 5.223 4.179 0 .633-.685.509-1.687-.307-1.478-1.201-1.606-1.154-1.032.378.435 1.159.171 1.75-.781 1.75-.827 0-1.207.6-.895 1.413.319.83-.209 1.606-1.282 1.884-1.462.378-1.377.494.427.587 1.373.071 2.25-.461 2.25-1.365 0-1.608 2.233-2.356 8.601-2.879 2.255-.186 4.558-.62 5.116-.965.559-.345 1.821.262 2.804 1.349.984 1.087 2.357 1.976 3.051 1.976s1.488.563 1.766 1.25c.277.688.54.27.583-.928.074-2.034.44-2.14 5.553-1.613 3.172.328 7.365.036 9.969-.693 3.885-1.088 5.074-1.024 8.776.467 2.486 1.003 7.338 1.791 11.573 1.881 5.187.11 7.553.577 8.196 1.616.777 1.258 1.426 1.272 4.661.102 2.734-.988 3.862-1.048 4.138-.22.704 2.112 1.848 1.159 4.157-3.463l2.298-4.602 2.712 2.852c1.491 1.568 2.675 3.301 2.629 3.851-.046.55 1.267 1.105 2.917 1.234 2.74.214 2.805.152.75-.718-3.424-1.448-2.697-2.161 1.75-1.716 2.2.22 4-.02 4-.533 0-.514.562-.744 1.25-.513.688.232 1.7-.151 2.25-.85 1.373-1.748 9.667-2.277 10.232-.654.287.826-.624 1.25-2.684 1.25-1.715 0-4.266.752-5.669 1.671-1.403.92-4.2 1.993-6.215 2.385-2.92.569-2.242.717 3.336.729 3.85.009 5.978-.277 4.728-.635-2.246-.643-2.249-.664-.25-1.908 1.739-1.083 2.026-1.012 2.054.5.03 1.673.096 1.674 1.36.008 1.714-2.257 3.781-2.257 3.402 0-.196 1.168.454 1.856 1.956 2.07 2.251.319 3.096-1.179 1.294-2.293-.541-.334-.809-4.808-.617-10.309.262-7.516.178-8.358-.371-3.718l-.711 6-.172-8.719c-.131-6.618.128-8.602 1.077-8.237 1.266.486 1.545-22.082.289-23.338-.296-.297-.539.886-.539 2.627 0 2.711-.36 3.167-2.5 3.167-2.2 0-2.5-.429-2.5-3.571 0-1.965.615-4.187 1.366-4.938.824-.824 1.648-4.965 2.075-10.429.517-6.609 1.076-9.062 2.064-9.062 1.056 0 1.147-.719.413-3.25-1.25-4.312-.038-16.307 1.286-12.729.718 1.941 1.078 2.14 1.79.988 1.083-1.752-.749-4.317-2.581-3.614-.697.267-1.805-.162-2.462-.954-.658-.793-1.916-1.441-2.796-1.441-1.2 0-1.045.389.622 1.557 2.719 1.904 2.78 3.362.318 7.636-1.048 1.819-2.198 5.332-2.557 7.807-.358 2.475-1.152 5.513-1.764 6.75-1.219 2.466-3.332 3.147-2.425.782.31-.807.165-1.714-.321-2.015-.487-.301-1.03.473-1.207 1.718-.474 3.341-6.176 3.287-6.651-.063-.296-2.095-.115-2.213 1.809-1.183 1.698.908 2.076.871 1.834-.183-.167-.731 1.494-3.037 3.691-5.125l3.996-3.796-3.5.555c-1.956.31-2.731.22-1.756-.204 1.371-.596.578-1.29-3.71-3.247-5.663-2.584-7.366-4.557-5.523-6.4.768-.768 1.945-.577 4.113.668 7.058 4.05 9.924 1.644 9.151-7.684-.455-5.476-.36-5.886.958-4.171 1.43 1.86 1.511 1.854 3.615-.25 1.663-1.663 2.152-1.804 2.152-.62 0 .843-1.013 1.939-2.25 2.437-1.724.693-1.841.919-.5.968 1.062.038 1.75.849 1.75 2.063 0 1.1.502 2 1.117 2 .624 0 .886-.882.594-1.999-.288-1.099-.115-2.251.383-2.559.498-.308.906-1.883.906-3.501 0-1.948.507-2.941 1.5-2.941.842 0 1.5-.893 1.5-2.035 0-1.772-.278-1.887-2.148-.886-2.017 1.08-2.111.968-1.549-1.842.364-1.82-.114-4.901-1.219-7.864-1.043-2.798-2.042-8.919-2.346-14.373-.29-5.225-.313-8.937-.05-8.25.754 1.969 3.024 1.459 3.618-.811.571-2.184-1.381-3.629-3.3-2.443-.761.471-1.002-1.838-.798-7.661.225-6.413.607-8.268 1.658-8.046.752.159 2.439-.414 3.75-1.273 3.167-2.075 3.249-6.303.134-6.934-8.539-1.732-8.4-1.73-6.309-.097 1.9 1.483 1.895 1.515-.25 1.515-2.384 0-2.89 1.901-1.008 3.783 1.427 1.427.456 2.676-1.498 1.926-.77-.295-1.678-1.926-2.018-3.623-.339-1.697-1.141-3.086-1.782-3.086-.64 0-1.762-.787-2.493-1.75-1.195-1.575-1.332-1.437-1.36 1.378-.018 1.72-.707 3.687-1.532 4.372-1.267 1.052-1.5.847-1.5-1.319 0-4.397-3.745-4.638-5.806-.373-.836 1.73-1.073 1.831-1.126.477-.038-.944 1.342-3.321 3.066-5.284 3.044-3.468 3.19-3.519 5.146-1.785 1.454 1.289 1.885 1.385 1.554.347-.501-1.569.667-2.886 6.923-7.814l4.128-3.251.307 4.149c.606 8.164 7.161 7.946 7.478-.249l.17-4.398-.779 3.854c-.785 3.878-2.674 6.003-4.392 4.942-.509-.315-.193-.983.703-1.484 2.463-1.379 2.152-6.862-.429-7.537-1.285-.336-1.847-1.082-1.5-1.988.307-.798.572-2.201.59-3.119.027-1.333.429-1.194 2 .693 1.351 1.621 1.967 1.894 1.967.872 0-.818-.675-2.048-1.5-2.733-2.273-1.887-1.847-4.013.75-3.738 3.199.338 3.133-7.324-.088-10.326-2.614-2.435-3.226-9.064-.638-6.916 1.965 1.631 2.809.722 2.809-3.024 0-4.692-2.3-8.221-4.929-7.561-1.451.364-2.4.017-2.8-1.024-.842-2.194-.758-2.624.375-1.924 2.46 1.52 5.021-1.529 5.021-5.977 0-4.458-1.866-7.325-6.567-10.087-3.727-2.191-5.506-5.962-6.295-13.347-.964-9.028-4.248-12.282-9.138-9.056-1.14.752-.774.942 1.529.789 4.47-.296 5.266.633 5.96 6.957.851 7.766 3.233 14.025 5.848 15.368 6.357 3.264 9.245 8.815 6.689 12.858-.751 1.188-1.196 1.238-2.184.25-.943-.943-.953-1.242-.042-1.242 1.331 0 1.662-3.597.402-4.375-1.624-1.004-3.417 1.122-2.742 3.25 1.196 3.766-.155 2.267-2.816-3.125-3.77-7.641-11.962-19.093-14.475-20.237-2.665-1.213-2.871-5.063-.419-7.83 1.375-1.552 1.429-1.873.25-1.5-2.385.755-4.029 4.986-3.359 8.643.904 4.931 3.971 12.545 5.221 12.961.601.201.165-1.732-.968-4.294-3.107-7.024-1.674-6.405 2.972 1.285 4.058 6.716 4.958 8.849 3.301 7.825-.458-.283-.796 1.35-.75 3.629.072 3.596-.247 4.237-2.417 4.856l-2.5.713 2.798.099c2.215.079 3.065-.534 4.076-2.938l1.277-3.038 1.75 6.288c2.591 9.31 3.022 15.082 1.621 21.682-2.356 11.102-7.141 14.483-5.742 4.058.341-2.543.168-3.729-.486-3.325-.583.361-.836 3.117-.594 6.466.316 4.365.071 5.973-.97 6.372-2.2.845-2.228.786-1.972-4.146.218-4.217.001-4.74-2.184-5.278-1.334-.328-2.63-1.209-2.88-1.958-.273-.82-.004-1.084.676-.663 2.39 1.477 3-.585 1.097-3.706-2.307-3.783-2.533-5.868-.554-5.109.83.319 1.606-.209 1.884-1.282.295-1.143.514-.735.587 1.094.146 3.672 1.132 2.727 3.377-3.238 1.761-4.679 1.855-2.474.179 4.204-.919 3.661 2.055 3.544 3.398-.133.98-2.684 1.006-2.692 1.083-.333.105 3.223.664 2.411 1.492-2.167.72-3.983-1.669-5.686-2.806-2-.297.963-.373-.162-.168-2.5.494-5.661-1.11-6.368-3.223-1.42l-1.707 3.996-1.004-4.089c-1.475-6.003-3.498-6.043-3.537-.07-.029 4.425-.153 4.672-1.472 2.93-2.545-3.363-2.989.832-.736 6.949 1.105 3 1.58 5.454 1.055 5.454-2.082 0-.273 4.506 1.935 4.82 1.765.25 2.25.969 2.25 3.333 0 4.186-1.776 3.226-4.834-2.612-2.2-4.201-2.639-6.644-3.219-17.952-.774-15.064-4.13-26.473-9.629-32.74-.972-1.108-1.098-1.867-.383-2.309.586-.362 1.065-1.137 1.065-1.721 0-.733-.412-.722-1.326.036-1.015.843-2.089.312-4.587-2.265l-3.261-3.365 2.597-.866c2.525-.842 2.541-.9.587-2.121-1.68-1.049-2.01-1.007-2.01.254 0 2.118-.144 2.069-13.248-4.457-3.135-1.561-3.875-1.638-4.531-.466-.582 1.04-1.265.504-2.659-2.085-1.033-1.916-2.308-3.484-2.834-3.484-.527 0-.31 1.013.482 2.25 2.785 4.353 2.898 5.774.529 6.651-1.831.677-2.585.286-4.233-2.196-5.874-8.844-5.495-8.43-5.501-6.012-.003 1.207-.954 2.858-2.113 3.67-1.253.878-1.806 1.967-1.362 2.685.549.889.988.778 1.658-.42.994-1.775 3.812-2.24 3.812-.628 0 .55.666 1 1.481 1 .814 0 1.761 1.116 2.103 2.48.512 2.037.949 2.305 2.454 1.5 3.827-2.049 5.269-1.261 4.652 2.542-.339 2.09-.189 3.286.369 2.941.518-.319.948-2.242.956-4.272.022-5.12 1.298-6.979 3.107-4.525.758 1.028 2.589 2.642 4.069 3.586 3.892 2.483 8.596 9.798 10.247 15.934 1.411 5.242 1.431 5.262 1.496 1.514.07-4.042-1.648-8.167-5.603-13.45-3.749-5.009-.973-3.851 4.897 2.042 4.97 4.989 8.754 11.194 12.255 20.094 1.886 4.795 3.212 17.614 1.821 17.614-.928 0-3.343 4.279-3.271 5.797.019.387.894-.329 1.946-1.59l1.912-2.294.698 6.172c.427 3.77 1.814 8.263 3.565 11.544 1.576 2.954 2.524 5.385 2.106 5.403-1.836.077 3.348 2.968 5.322 2.968 3.345 0 11.161-3.707 8.804-4.176-1.784-.355-1.769-.477.276-2.247 1.189-1.029 1.927-2.483 1.64-3.232-.287-.748.191-2.448 1.062-3.778.881-1.344 1.151-2.562.608-2.743-.632-.211-.635-1.513-.007-3.702.644-2.246.623-4.024-.065-5.308-.568-1.062-.742-3.255-.387-4.873.403-1.837.241-2.941-.434-2.941-.593 0-1.05-1.237-1.016-2.75l.064-2.75 1.1 2.5c3.234 7.349 3.92 10.37 4.457 19.599 1.001 17.206-1.452 22.543-13.248 28.821-5.738 3.054-10.152 8.953-11.091 14.821-.678 4.244-1.989 4.846-3.28 1.509-.678-1.754-.395-2.642 1.283-4.026l2.152-1.775-2.75.634c-3.606.831-3.972-3.487-.5-5.909 2.051-1.43 2.081-1.574.345-1.622-1.846-.05-1.849-.114-.082-2.066 1.118-1.235 2.523-1.792 3.635-1.439.996.316 2.608.111 3.582-.456 1.565-.911 1.48-1.045-.73-1.158-2.21-.113-2.064-.306 1.25-1.666 3.538-1.451 5.029-3.267 2.683-3.267-.624 0-.81-.935-.449-2.25.565-2.051.497-2.098-.767-.535-1.743 2.156-3.663.57-3.833-3.165-.081-1.79-.256-2.012-.584-.745-.81 3.127-2.805 1.152-2.686-2.659.124-3.97-1.264-5.037-1.816-1.396-.34 2.237-.348 2.238-1.506.185-.767-1.36-.881-3.325-.334-5.75.478-2.12.451-3.685-.063-3.685-.492 0-.895.9-.895 2 0 3.475-1.883 2.163-2.512-1.75-.332-2.062-.82-4.8-1.086-6.084-.265-1.283-.079-2.084.413-1.78.493.304.695-.5.448-1.788-.246-1.288.269-3.727 1.145-5.42 1.831-3.542 2.019-5.178.592-5.178-.55 0-1.032.787-1.07 1.75-.063 1.56-.151 1.545-.811-.136-.407-1.038-.226-3.915.404-6.394 1.213-4.78.785-11.449-.5-7.785-.506 1.443-1.108.631-2.591-3.494-2.301-6.402-3.833-6.927-4.199-1.441-.467 7.013-1.167 8.567-4.518 10.024-2.256.981-2.633 1.409-1.265 1.437 1.517.03 1.683.306.75 1.239-2.082 2.082-1.298 3.199.868 1.238 1.887-1.707 2.303-1.74 4.736-.375 4.105 2.304 5.364 5.587 4.579 11.937-1.437 11.619 1.28 19.793 9.215 27.729l5.291 5.291-3.449 1.441c-1.986.829-4.347 2.963-5.565 5.027-1.164 1.972-3.524 4.301-5.245 5.176-1.722.874-3.885 2.379-4.808 3.344-1.587 1.659-1.414 1.788 3.21 2.402 4.534.601 4.932.882 5.494 3.88.334 1.777.116 4.521-.484 6.099-.992 2.611-1.429 2.822-4.873 2.36-2.083-.279-5.105.076-6.726.791l-2.943 1.298 2.677.081c3.338.101 6.823 4.298 6.823 8.216 0 3.78-1.108 3.626-8.256-1.147-4.566-3.049-6.327-3.749-7.333-2.914-.728.604-1.793.808-2.367.453-.574-.355-1.044.045-1.044.888 0 .844 1.277 2.194 2.838 3.001 6.087 3.148 13.079 17.36 11.504 23.382-.328 1.257-.116 2.202.496 2.202.589 0 1.364-1.56 1.722-3.467.923-4.919-1.706-11.821-7.132-18.728-5.286-6.728-4.997-7.12 1.705-2.305 5.385 3.869 7.013 4.233 8.877 1.988 1.6-1.928 3.983-.212 4.005 2.884.013 1.718.197 1.841.956.641.799-1.264 1.244-1.159 2.984.709 2.697 2.895 2.6 3.868-.205 2.048-2.054-1.333-2.467-1.254-4.747.902l-2.496 2.361 3.246 3.034c4.745 4.434 4.207 6.39-3.079 11.197-2.342 1.545-3.392 2.792-2.706 3.216.616.381 1.746.172 2.512-.463.996-.827 1.951-.857 3.356-.105 1.527.817 2.096.707 2.558-.496.464-1.209.104-1.407-1.65-.906-1.824.521-1.635.145 1.006-2.007 4.333-3.53 4.428-7.528.25-10.503-4.035-2.873-3.86-4.401.422-3.706 3.642.591 4.578-.358 4.578-4.639 0-1.302.906-2.578 2.25-3.168 1.654-.725 2.332-1.981 2.56-4.737.314-3.79-.132-4.183-4.56-4.019-1.385.052-1.495-1.246-.355-4.158.676-1.724.823-1.75 1.399-.25.964 2.512 2.706 2.02 2.706-.764 0-2.697-1.491-4.192-2.52-2.527-.458.741-1.088.708-2.069-.106-1.577-1.308-1.659-.946-1.665 7.324-.002 2.613-.366 4.75-.808 4.75-.442 0-1.138 1.012-1.547 2.25l-.744 2.25-.643-2.5c-.354-1.375-.19-2.804.365-3.176.555-.372-.631-1.458-2.636-2.414-4.147-1.978-5.682-4.41-2.783-4.41 3.445 0 4.942-1.142 6.101-4.654 1.101-3.338 1.223-3.408 3.048-1.756 1.832 1.658 1.902 1.597 1.916-1.685.009-1.873.452-4.08.985-4.905.828-1.282.972-1.246.985.25.025 2.861 1.735 1.992 2.953-1.5.877-2.516 1.336-2.922 2.032-1.798.494.799.676 1.811.405 2.25-.271.439.096.835.816.879.72.045.001.659-1.598 1.365-1.599.705-2.379 1.459-1.734 1.674 2.407.802 4.132 19.516 2.718 29.481-.577 4.067-1.637 6.145-5.228 10.25-2.477 2.832-4.089 5.149-3.582 5.149.508 0 1.738-.9 2.733-2 .995-1.1 2.401-2 3.124-2 .809 0 1.07-.633.681-1.648-.673-1.753-.724-1.756 7.945.473 2.062.53 3.75.593 3.75.139 0-.454-1.013-1.02-2.25-1.258-1.999-.385-1.954-.449.402-.57 2.13-.109 2.869.484 3.75 3.013 1.518 4.354 1.472 6.625-.102 5.051-1.443-1.443-3.167-1.604-2.309-.215.361.584-.53.84-2.191.629-1.54-.196-2.237-.156-1.55.088.688.245 1.198 1.424 1.134 2.621-.085 1.587-.236 1.721-.56.494-.572-2.166-4.324-1.931-4.324.271 0 1.061 1.129 1.888 3.125 2.287 4.52.904 4.742.831 4.165-1.375-.364-1.391-.031-2 1.093-2 .89 0 1.617.45 1.617 1s.73 1 1.622 1c1.329 0 1.398.271.378 1.5-1.022 1.231-.947 1.5.417 1.5 1.371 0 1.436.244.372 1.396-1.098 1.189-1.39 1.152-1.969-.25-.572-1.386-.703-1.33-.829.354-.082 1.101-.376 1.438-.653.75-.278-.688-.933-1.25-1.457-1.25-.573 0-.54.768.084 1.934 1.558 2.912 1.301 5.105-.516 4.408-1.247-.478-1.421-.08-.891 2.032.555 2.213.327 2.626-1.45 2.626-1.837 0-2.118-.61-2.185-4.75l-.077-4.75-1.173 3.5c-1.604 4.785-4.149 5.075-4.248.484-.081-3.77-3.62-8.492-6.349-8.473-1.006.007-.4.938 1.674 2.573 2.536 1.998 3.25 3.314 3.25 5.988 0 3.794-1.83 4.566-4.128 1.741-1.199-1.475-1.155-1.606.346-1.044 2.215.83 3.308-.931 1.746-2.813-1.838-2.215-4.3-1.85-3.674.544.661 2.528.557 2.514-3.885-.5-2.026-1.375-4.777-2.5-6.112-2.5-2.038 0-2.327-.361-1.798-2.25.626-2.236.618-2.235-1.295.144-1.059 1.316-2.425 2.085-3.036 1.708-1.751-1.083-3.222-7.949-2.974-13.884.238-5.685-3.433-15.074-5.999-15.343-.655-.069-1.641-.181-2.191-.25-.55-.069-1-.576-1-1.128 0-.551-1.688-2.534-3.75-4.406-2.062-1.873-4.563-4.797-5.557-6.498L355.887 175l9.806-.208 9.807-.207-9.446-.333c-9.889-.348-12.971-1.442-10.944-3.885.737-.887 3.636-1.428 8.262-1.54l7.128-.172-6.415-.578c-6.988-.628-6.913-2.42.171-4.102 2.681-.637 2.821-.788.807-.873l-2.437-.102 2.874-3c1.581-1.65 3.577-3.032 4.437-3.07 1.122-.051 1.01-.287-.396-.837-1.868-.73-1.836-.889.705-3.429 1.464-1.465 2.276-2.664 1.802-2.664-1.326 0 .012-4.344 1.771-5.75.949-.759 1.095-1.25.372-1.25-1.545 0-1.539-3.252.009-4.8.933-.933.933-1.2 0-1.2-1.771 0-1.457-3.049.55-5.341 1.667-1.903 1.667-1.968 0-1.36-2.274.829-2.41-2.507-.177-4.36 3.159-2.621 5.431-8.711 5.28-14.149l-.147-5.29-.64 5.5c-.664 5.695-2.787 10.694-5.5 12.945-1.647 1.367-2.114.216-1.726-4.253.086-.995-.27-1.544-.791-1.222-.522.322-1.418-.291-1.992-1.364-.574-1.073-1.609-2.549-2.3-3.282-3.082-3.266-3.752-4.674-3.07-6.447.649-1.689.799-1.626 1.498.623.64 2.057.679 1.968.221-.5-.306-1.65-.668-7.275-.806-12.5-.293-11.137-1.15-13.181-8.919-21.267-4.578-4.765-10.246-8.074-8.224-4.802.317.512.115 1.215-.448 1.563-.563.348-1.293-.071-1.623-.931-.33-.86-2.861-3.363-5.624-5.563-6.411-5.105-3.694-5.453 5.434-.695 7.765 4.048 10.355 6.121 19.378 15.515 7.169 7.464 10.985 9.076 12.26 5.18.427-1.305.268-1.315-1.23-.079-1.551 1.281-2.58.578-10.412-7.115-12.407-12.185-19.855-16.869-29.765-18.721-6.011-1.123-5.826.647.52 4.978 2.721 1.857 4.771 3.552 4.556 3.768-.216.215.909 1.486 2.499 2.824 3.552 2.989 4.468 5.598 2.956 8.423-.924 1.727-.886 2.065.195 1.708.741-.245 1.605-1.984 1.921-3.865l.575-3.421.806 2.839c.444 1.562.559 5.612.256 9-.534 5.984-.506 6.078.977 3.267 1.065-2.019 1.404-4.816 1.122-9.255l-.405-6.362 3.671 3.585 3.671 3.585-3.123 5.105C351.66 91.74 346.687 97 344.527 97c-2.103 0-1.635-3.454.486-3.596 3.292-.22 3.987-.441 3.987-1.265 0-.474-1.175-.637-2.611-.363-2.362.452-2.542.272-1.888-1.888.554-1.828.445-2.123-.468-1.259-.655.621-1.44 2.983-1.744 5.25-.304 2.267-.913 4.121-1.353 4.121-1.08 0-2.385-4.054-2.046-6.359.152-1.036-.17-1.586-.727-1.242-.55.34-1.315-.815-1.7-2.567l-.699-3.185-1.307 3.802c-1.883 5.477-3.878 7.081-3.172 2.551.3-1.925.845-4.4 1.212-5.5.654-1.965.638-1.966-.904-.074-.864 1.059-1.86 4.107-2.214 6.772-.704 5.308-1.336 6.14-3.914 5.15-1.447-.555-1.629-1.599-1.168-6.685.343-3.783.209-5.494-.36-4.595-.498.787-.913 2.819-.922 4.515-.02 4.101-.759 4.631-3.736 2.68-2.554-1.673-2.795-5.227-.73-10.763.586-1.572.477-1.752-.509-.843-.69.637-1.561 2.662-1.934 4.5-.721 3.542-4.214 5.135-6.421 2.928-.78-.78-.358-1.085 1.498-1.085 3.524 0 4.155-3.045 1.781-8.584-1.041-2.429-1.515-4.416-1.054-4.416 2.952 0 10.166 3.648 13.34 6.746 2.063 2.013 3.75 3.171 3.75 2.573 0-1.543-7.587-8.202-10.802-9.482-8.119-3.23-11.632-2.722-8.831 1.276.815 1.164 1.215 2.814.888 3.666-.364.948-.182 1.294.47.891.586-.362 1.338.051 1.67.918 1.088 2.834.639 4.412-1.256 4.412-1.443 0-1.788-.618-1.535-2.75.18-1.513-.428-.428-1.35 2.409-2.036 6.265-5.595 9.027-8.703 6.755-2.831-2.07-6.218-1.728-7.994.809-1.28 1.826-1.557 1.915-1.557.5 0-3.3-1.501-1.693-1.571 1.682-.13 6.216-7.144 12.595-13.85 12.595-1.376 0-3.396.96-4.49 2.134-1.755 1.885-2.454 2.017-5.964 1.126-2.77-.703-4.302-.683-5.05.065-1.732 1.732-1.238 2.862.947 2.168 1.113-.353 3.44-.331 5.171.049l3.148.692-2.42 1.861c-1.332 1.023-1.832 1.871-1.112 1.883.72.012 1.001.52.625 1.129-.478.773-.972.698-1.642-.25-.647-.917-.782-.095-.414 2.536.298 2.142 1.403 4.842 2.455 6 1.052 1.159 2.159 2.782 2.461 3.607.433 1.186.565 1.134.627-.25.093-2.056 4.62-2.474 5.417-.5.403 1 .52 1 .583 0 .043-.687.942-1.25 1.997-1.25 3.149 0 5.447-1.156 4.034-2.03-.818-.505-.435-.978 1.166-1.441 1.31-.38 4.182-1.495 6.382-2.479 6.05-2.706 8.872-3.46 8.066-2.157-.376.609-.234 1.107.316 1.107 1.604 0 2.249-1.775.874-2.405-.691-.317-.131-.326 1.244-.02 2.039.453 2.224.342 1-.604-1.271-.983-1.22-1.069.339-.563 1.093.355 2.892-.231 4.437-1.446 2.321-1.826 2.694-1.874 3.491-.449 1.756 3.138-5.312 10.231-9.712 9.746-1.943-.214-1.95-.182-.131.581 2.651 1.113-8.873 5.666-16.424 6.49-3.118.339-4.646.25-3.528-.206 1.782-.728 1.709-.856-.75-1.326-1.497-.286-2.722-.186-2.722.224 0 1.323-3.793 1.782-5.063.612-.947-.872-1.092-.737-.628.584.332.945.173 1.984-.353 2.309-.526.325-.956-.049-.956-.832 0-4.849-11.264-9.031-14.8-5.495-.933.933-1.184.433-1.13-2.25.054-2.638.249-2.995.828-1.516 1.475 3.766 2.045-.201.849-5.904-1.2-5.724-1.195-5.747 1.709-8.246 2.46-2.116 3.577-2.414 7.192-1.919 3.241.444 4.487.217 5.133-.938.469-.838 2.061-1.653 3.538-1.811 3.746-.399 4.262-1.272 1.107-1.875-1.794-.343-3.279.112-4.565 1.398-1.535 1.535-2.308 1.692-3.962.807-1.574-.842-2.998-.723-6.071.506-4.641 1.857-4.88.422-.476-2.866 2.975-2.221 7.262-2.55 17.148-1.316 8.361 1.044 9.919-.272 9.965-8.415l.035-6.109 8.007.614c10.201.783 14.493-1.217 14.493-6.751 0-2.964-.623-3.833-4.671-6.515-2.57-1.702-5.24-3.094-5.935-3.094-.695 0-2.531-.505-4.079-1.123l-2.815-1.122 3-1.333c5.982-2.656 21.594-1.225 22.869 2.098.313.814 1.059 1.48 1.659 1.48.599 0 .812-.45.472-1-1.137-1.84 1.069-1.029 7.059 2.593 9.994 6.044 13.208 7.411 17.151 7.297l3.79-.109-4.47-.876c-2.459-.482-6.734-2.435-9.5-4.34-2.767-1.905-8.047-4.832-11.735-6.504-3.687-1.672-8.09-4.395-9.784-6.05-1.694-1.656-3.852-2.995-4.795-2.975-1.289.027-.969.648 1.284 2.495l3 2.459-5.5.123c-3.025.068-5.89.053-6.367-.034-.477-.086-2.408.352-4.291.973-4.02 1.327-7.345.551-5.509-1.285 2.167-2.167 1.187-2.532-2.414-.9-3.282 1.488-3.393 1.667-1.324 2.155 2.635.622 3.812 2.978 1.488 2.978-2.327 0-1.927 1.937.593 2.869l2.177.806-2.177.569c-3.254.851-3.049 6.925.324 9.577 3.478 2.736 3.126 3.51-1.25 2.753-2.706-.468-3.332-.364-2.25.374 1.01.688 1.092 1.026.25 1.037-1.5.018-1.641 3.416-.25 6.015 2.135 3.988-.382 7.014-5.725 6.884-2.626-.064-3.875-.332-2.775-.597 3.39-.815 3.726-1.954.577-1.954-1.644 0-2.757.375-2.474.834.283.458-1.24.833-3.385.833-9.065 0-15.069 3.239-17.412 9.392l-1.101 2.893-1.501-2.866c-.826-1.576-2.56-3.698-3.853-4.715-5.276-4.15-2.586-9.156 6.806-12.665 12.661-4.73 15.478-9.683 10.897-19.163-2.472-5.118-2.468-4.535-.041-5.169 1.314-.344 2.355.113 2.999 1.315 1.01 1.888 4.708 3.591 5.682 2.617.299-.299-.165-1.253-1.032-2.12-1.766-1.766-1.19-4.519.945-4.519 1.417 0 1.86 1.694 1.509 5.763-.108 1.245.16 2.145.594 2 1.039-.346 1.29.548 1.29 4.599 0 2.994-.275 3.333-2.5 3.089-2.583-.284-2.931.261-1.893 2.967.806 2.102 2.393 2.023 2.393-.118 0-1.341.258-1.442 1.225-.475.967.967.967 1.639 0 3.186-1.889 3.026-1.657 6.593.322 4.95 1.11-.921 1.221-1.486.394-1.998-.835-.516-.848-.902-.048-1.397.609-.376 1.107-1.543 1.107-2.594 0-1.386.479-1.741 1.75-1.293 1.429.502 1.52.368.5-.732-1.517-1.635-1.677-9.947-.191-9.947.582 0 .794-.429.469-.954-.324-.525-.258-2.212.148-3.75l.736-2.796.676 3c.66 2.931.678 2.914.794-.75.065-2.062-.332-3.75-.882-3.75s-1.014.563-1.03 1.25c-.017.688-.547.35-1.178-.75-1.464-2.553-3.882-4.428-5.765-4.468-.881-.019-.479.648 1 1.66 3.309 2.264 3.94 3.309 3.958 6.558.021 3.86-1.791 3.443-2.172-.5-.447-4.643-6.443-5.543-7.047-1.058l-.377 2.808-.846-2.921c-.722-2.493-.449-3.263 1.861-5.25 1.662-1.43 2.154-2.329 1.274-2.329-1.536 0-3.461 1.965-5.139 5.244-1.474 2.882-2.789 2.557-4.698-1.159-1.542-3.001-1.708-3.08-2.331-1.116-.512 1.613-1.186 1.959-2.841 1.46-2.831-.853-4.531-2.544-3.096-3.078.59-.22.882-1.705.648-3.299-.374-2.55-.082-2.951 2.427-3.326 2.797-.418 2.79-.429-.379-.576-2.613-.121-3.343.296-3.817 2.183-.677 2.698-3.175 3.117-3.953.663-.863-2.719-7.318-4.258-8.684-2.071-1.031 1.65-1.482 1.58-6.974-1.08-6.83-3.309-6.841-3.311-6.841-1.345 0 1.941-.904 1.897-3.171-.155-1.813-1.64-2.503-.611-1.947 2.905.223 1.413-1.59.75-4.101-1.5-3.233-2.897-4.781-3.205-4.781-.95 0 1.855-1.787 4.2-3.2 4.2-.44 0-.807-1.013-.815-2.25-.013-1.871-.197-1.997-1.095-.75-.91 1.266-.991 1.227-.516-.25.392-1.219.027-1.75-1.205-1.75-.973 0-2.196-.402-2.719-.893-.522-.491-2.396-.667-4.163-.392-2.746.428-3.011.704-1.822 1.893.766.766 2.324 1.392 3.464 1.392 1.139 0 2.071.417 2.071.927 0 .509.788 1.161 1.75 1.447.963.287-1.625.343-5.75.126-4.125-.217-6.6-.151-5.5.148 2.746.746 6.494 5.204 5.83 6.934-.699 1.821-1.77 1.798-3.321-.071-.68-.819-1.711-1.195-2.292-.836-.652.403-.82.035-.438-.96.402-1.047-.028-1.818-1.225-2.198-1.12-.355-2.1-1.946-2.494-4.051-.721-3.843-1.281-4.122-4.116-2.049-1.233.902-2.346 1.079-3.058.488-.723-.6-1.576-.381-2.403.616-1.143 1.376-1.539 1.305-3.623-.652-2.27-2.133-2.398-2.144-4.354-.375-1.68 1.521-2.436 1.631-4.559.664-2.77-1.262-6.798.15-9.413 3.301-1.559 1.878-5.021-.429-5.049-3.364-.042-4.389-1.787-4.478-5.552-.284l-3.734 4.159-5.808-3.193c-3.195-1.756-6.095-2.907-6.445-2.557-1.096 1.096.56 6.409 2.72 8.727 1.934 2.077 1.947 2.205.2 2.02-4.054-.429-4.305.034-1.922 3.546 2.367 3.487 4.314 11.062 3.145 12.231-1.937 1.937-7.854-13.892-7.367-19.707.356-4.254-1.824-5.138-3.373-1.368-1.025 2.493-1.217 2.593-1.614.831-.87-3.863-2.265-4.5-9.857-4.5-7.421 0-9.03.948-6.277 3.701.801.801.528 1.282-1 1.767-3.053.969-2.576 2.326.649 1.844l2.75-.412-2.879 1.65c-2.972 1.702-4.566.906-4.606-2.3C99.007 58.563 98.55 58 98 58c-.55 0-1-1.773-1-3.941s-.498-4.249-1.107-4.625c-.745-.461-.887.011-.433 1.441.773 2.436.281 2.601-2.776.933-3.13-1.708-9.891-1.791-9.248-.113.699 1.821-.44 1.62-3.936-.695-3.613-2.393-4.5-2.485-4.5-.468m315 4.933c0 2.402-3.089 5.113-4.369 3.833-1.162-1.162-.577 1.173.927 3.702l1.487 2.5-.273-2.407c-.154-1.364.331-2.612 1.119-2.88 1.071-.365 1.229.173.687 2.331-.593 2.364-.478 2.618.731 1.615 1.182-.982 1.545-.639 2.063 1.95.91 4.549.816 4.899-1.122 4.172-1.506-.564-1.566-.43-.434.963.723.891 1.737 4.595 2.252 8.232.515 3.637 1.833 8.37 2.929 10.518 1.902 3.729 2.129 3.858 5 2.857 3.092-1.078 4.625-2.563 3.651-3.537-.304-.303-1.342.237-2.306 1.201-1.168 1.168-1.882 1.364-2.142.586-.716-2.149.715-4.101 3.019-4.116 1.769-.012 1.956-.221.835-.931-2.25-1.423-5.05.631-5.084 3.731-.029 2.545-.103 2.59-1.19.716-3.387-5.845-5.34-28.808-2.53-29.756.95-.321.833-1.302-.484-4.084-2.003-4.231-4.766-4.924-4.766-1.196m-203.965 7.469c-1.605 2.999-1.374 3.631 4.045 11.081 5.628 7.737 5.47 7.601 6.296 5.447.383-.997-.174-1.822-1.582-2.342-1.848-.684-1.547-.904 2.017-1.474 4.934-.789 5.36-2.042 1.189-3.496-1.65-.575-3-1.519-3-2.098S194.325 69 193.5 69s-1.5-.567-1.5-1.259c0-.693-.887-1.814-1.972-2.491-1.156-.723-1.733-1.856-1.393-2.741.848-2.21-1.385-1.845-2.6.425m64.943 3.816c-.012 1.513-.894 4.671-1.959 7.018-1.066 2.348-2.024 4.598-2.129 5-.105.403-.911 1.28-1.791 1.95-1.448 1.103-1.434 1.221.151 1.25.963.018 1.75.509 1.75 1.091s.472.767 1.049.411c.716-.443.678-1.094-.123-2.059-.899-1.083-.888-1.411.045-1.411.669 0 1.452.9 1.739 2 .711 2.717 1.908 2.513 4-.681 3.205-4.89 1.889-17.319-1.832-17.319-.483 0-.888 1.237-.9 2.75m-95.518 1.705c-1.765 1.334-1.786 1.485-.21 1.513 2.175.04 2.219 1.785.149 5.934-1.958 3.925-1.247 8.751 1.876 12.72 1.719 2.185 2.175 3.962 2.015 7.851a302.343 302.343 0 00-.216 9.796c-.006 3.356-.462 4.943-1.541 5.357-2.027.778-1.97 4.992.078 5.778 1.297.498 1.491.14.997-1.831-.339-1.348-.164-2.73.388-3.071.552-.341 1.004.108 1.004.998s.453 1.338 1.007.996c1.939-1.199 2.381 2.747.464 4.149-2.512 1.837-.08 1.721 3.579-.171 3.784-1.957 3.768-4.568-.05-8.474-4.354-4.454-3.217-7.916 3.75-11.418 3.263-1.64 4.335-3.569 2-3.597-.922-.012-.895-.24.103-.873 1.77-1.121-.344-5.518-2.153-4.48-.66.379-.853.307-.429-.159.424-.467-1.343-2.164-3.926-3.772-4.137-2.575-4.482-3.045-2.888-3.937 3.889-2.176 11.919-1.436 16.376 1.51l4.198 2.775 2.173-2.025c1.195-1.113 2.538-2.024 2.985-2.024 1.319 0 .858-5.296-.697-8-1.36-2.366-1.405-2.246-.829 2.25.701 5.472-.527 6.166-4.429 2.5-3.122-2.933-14.87-3.294-17.902-.551-3.113 2.817-4.848.869-3.224-3.62 1.991-5.508-.727-9.089-4.648-6.124m77 32.318c-3.774 2.742-4.015 3.209-3.645 7.081.217 2.28-.04 4.146-.571 4.146-.532 0-.812-1.237-.624-2.75.342-2.744.341-2.745-.539-.25l-.882 2.5-.204-2.5c-.173-2.109-.411-1.874-1.523 1.5-1.474 4.471-1.894 11.5-.688 11.5 1.089 0 4.216 5.468 4.216 7.373 0 .98-.561 1.349-1.5.989-.825-.317-1.5-.051-1.5.59s.461.881 1.025.533c.563-.349.96-.263.881.191-.433 2.492.285 4.324 1.693 4.324 5.566 0 14.187-8.458 12.836-12.593-.528-1.614-.441-1.677.565-.407 1.017 1.284 1.105 1.24.606-.302-.321-.991-.188-1.557.296-1.259.483.299 1.173-1.028 1.534-2.948.694-3.699 1.438-4.217 3.331-2.324 2.016 2.016 2.648-1.885.77-4.751-3.639-5.553-5.804-7.44-7.204-6.278-1.04.863-1.333.64-1.333-1.016 0-1.174-.639-2.122-1.43-2.122-.787 0-1.575-.937-1.75-2.082-.308-2.001-.476-1.968-4.36.855m-159.42 9.828c-.078 2.146 2.345 7.896 4.14 9.822 1.001 1.075 1.82 2.289 1.82 2.698 0 1.498 4.242 2.105 5.143.736.725-1.101 1.09-1.023 1.933.408.572.97 1.721 2.32 2.554 3 3.474 2.835 5.143 4.554 5.52 5.685.262.785 1.361.96 3.172.505 2.644-.663 2.693-.781 1.064-2.581-1.952-2.157-1.467-3.226 1.028-2.268.936.358 1.464 1.269 1.175 2.023-.648 1.69 1.574 1.808 3.211.171 3.635-3.635-1.534-6.187-14.467-7.14-1.191-.088-2.043-.284-1.892-.435.785-.784-8.191-8.586-9.631-8.371-.987.147-2.324-.916-3.21-2.551-.836-1.542-1.538-2.308-1.56-1.702M324 122.535c0 3.904-2.872 9.289-3.99 7.481-.458-.74-1.474-.443-3.096.907-1.328 1.106-1.878 2.025-1.223 2.044.655.018 1.469-.417 1.809-.967.34-.55 1.041-1 1.559-1 2.005 0 .757 1.622-3.452 4.488-2.413 1.643-4.839 4.118-5.391 5.5l-1.003 2.512-.107-2.327c-.061-1.343 1.13-3.563 2.817-5.25 2.989-2.989 2.532-3.772-1.074-1.842-3.089 1.653-3.312.402-.584-3.265 3.107-4.177 4.359-9.816 2.179-9.816-.829 0-1.748.787-2.043 1.75-1.402 4.574-4.582 10.404-7.32 13.42-8.678 9.561-9.973 10.83-11.04 10.83-.637 0-.859-.485-.492-1.079.457-.74-.545-.875-3.191-.43-8.267 1.389-9.79 1.428-10.508.266-.408-.659-1.055-.885-1.438-.502-2.698 2.698 6.414 4.979 10.709 2.68 4.429-2.37 3.708-.161-.928 2.843-4.649 3.012-9.126 9.546-9.225 13.461-.049 1.964-2.184 4.307-5.47 6.005-5.744 2.968-6.983 5.274-7.153 13.307-.085 4.038-.692 8.972-1.35 10.963-1.817 5.507-.325 5.419 2.061-.122 1.268-2.944 1.916-6.09 1.628-7.9-.545-3.42 3.107-7.821 9.316-11.225 2.308-1.266 3.879-3.085 4.612-5.343.806-2.48 2.184-3.935 5-5.278 4.26-2.031 7.388-4.485 7.388-5.796 0-.462-3.375.927-7.5 3.087-4.125 2.159-7.5 3.562-7.5 3.117 0-1.19 2.741-3.262 6.867-5.192 1.998-.935 3.041-1.737 2.317-1.781-.723-.045-2.238.413-3.365 1.016-1.557.833-1.953.805-1.645-.12.223-.669 3.245-2.284 6.715-3.588 3.471-1.305 7.191-3.492 8.268-4.861 1.077-1.37 2.27-2.445 2.651-2.39 1.891.271 3.299-.357 6.115-2.727 1.692-1.424 3.077-2.177 3.077-1.674 0 1.341-4.05 4.795-7.5 6.397-1.65.766-3 1.927-3 2.579 0 .653-.562 1.75-1.25 2.437-.687.688-1.25 1.628-1.25 2.09 0 2.129-4.869 7.111-8.298 8.489-2.884 1.159-4.39 2.694-6.259 6.383-1.709 3.374-3.613 5.444-6.234 6.782-2.076 1.058-4.398 3.09-5.16 4.514-1.516 2.833-.842 4.471 1.177 2.861.701-.559 3.401-1.324 6.001-1.701 5.295-.766 7.413-2.552 3.082-2.598-2.384-.026-2.545-.185-1.066-1.046.958-.558 2.515-.882 3.46-.72 1.272.219 1.873-.617 2.311-3.213.751-4.445 3.502-7.676 7.721-9.068 3.131-1.034 6.941-6.02 5.894-7.715-.25-.403.166-1.852.923-3.221.758-1.368 1.393-2.144 1.413-1.724.019.419 1.826-.369 4.015-1.75 2.189-1.382 4.379-2.513 4.866-2.513.488 0 2.522-2.099 4.52-4.664 4.113-5.279 4.944-4.356 1.134 1.259-1.375 2.026-2.5 4.186-2.5 4.8 0 .614-1.326 1.704-2.946 2.421-1.895.838-2.748 1.817-2.393 2.744.74 1.929 2.537 1.816 4.939-.31 1.088-.963 2.636-1.895 3.439-2.071 2.141-.471 3.015-1.547 6.403-7.875 2.543-4.75 3.647-5.853 6.558-6.552 4.638-1.114 11-7.919 11-11.766 0-2.763 2.192-5.986 4.071-5.986 1.223 0 1.199-2.715-.03-3.475-1.721-1.063-5.04 1.868-5.056 4.466-.011 1.788-.263 2.119-.875 1.152-.6-.946-1.067-1.021-1.544-.25-.376.609-.207 1.107.375 1.107 2.001 0 1.057 4.71-1.496 7.465-2.967 3.201-3.467 3.07-2.74-.715.526-2.739 2.281-3.879 2.31-1.5.015 1.181 1.935-1.014 1.968-2.25.021-.792-5.975-1-6.057-.21-.59 5.636-2.538 9.952-4.818 10.676-1.103.35-2.284 1.513-2.624 2.585-.801 2.524-2.109 2.49-2.779-.071-.388-1.485.203-2.398 2.235-3.449 4.721-2.441 8.113-9.531 4.56-9.531-1.133 0-1.5-1.222-1.5-5 0-2.75-.45-5-1-5s-1 1.591-1 3.535m31.244 9.203c-.691.238-1.002.844-.691 1.347.311.503-.329.915-1.423.915-2.683 0-5.192 2.674-4.414 4.703.475 1.237.217 1.485-1.042 1.002-1.664-.638-1.865-.271-2.072 3.795-.071 1.386-.716 1.927-2.102 1.763-3.919-.465-6.272.694-6.958 3.426-.533 2.122-.877 2.394-1.595 1.259-.597-.943-.922-1.024-.932-.231-.008.669-1.621 2.823-3.585 4.786l-3.57 3.57 2.82-.666c2.062-.486 2.539-.363 1.776.458-.574.618-2.243 1.223-3.709 1.344-1.466.121-3.696 1.029-4.956 2.018l-2.291 1.798 3.354-.545c5.793-.942 10.52-4.021 13.031-8.489 1.697-3.019 3.624-4.771 6.788-6.17 3.397-1.503 4.911-2.97 6.552-6.348 1.565-3.22 2.888-4.559 4.955-5.013 1.551-.34 2.788-.921 2.75-1.289-.215-2.049-1.593-3.81-2.686-3.433m-104.553 4.357c-.356 1.419-1.654 3.86-2.885 5.424-1.23 1.564-2.252 3.775-2.271 4.912-.019 1.138-.597 1.956-1.285 1.819l-2.5-.5c-.687-.137-1.25.425-1.25 1.25 0 .93.942 1.5 2.481 1.5 2.626 0 3.631 2.045 2.143 4.357-1.391 2.16-4.937.431-5.445-2.655-.244-1.486-.385-.452-.312 2.298.099 3.706.521 5.007 1.633 5.026.825.015 2.046.369 2.714.787.809.507 2.026-.838 3.642-4.026 1.335-2.633 3.371-5.64 4.525-6.682 1.518-1.372 1.958-2.683 1.593-4.75-.31-1.761-.067-2.855.634-2.855.77 0 .818-.404.149-1.25-.544-.687-1.423-2.597-1.954-4.242l-.965-2.993-.647 2.58m5.634 12.352c-3.529 1.549-6.174 4.991-6.896 8.974-.262 1.445-1.394 3.544-2.514 4.664-2.249 2.249-2.21 5.415.067 5.415.843 0 1.926-1.681 2.576-4 .617-2.2 1.532-3.788 2.032-3.528.501.259 1.481-.719 2.178-2.175 2.182-4.551 10.232-4.688 10.232-.175 0 .758.45 1.378 1 1.378s1 1.302 1 2.893c0 4.333 6.912 6.008 8.965 2.173 1.589-2.969 1.287-3.719-2.052-5.102-1.697-.703-4.178-3.008-5.512-5.121-1.334-2.114-3.095-3.843-3.914-3.843-.818 0-1.374-.536-1.237-1.191.372-1.773-2.334-1.938-5.925-.362M352 154c1.375.44 1.825.848 1 .906-4.922.345-9.349 2.653-14.136 7.368-2.919 2.874-5.218 5.53-5.11 5.902.186.64-1.941 1.238-7.874 2.214-2.855.469-6.88 2.68-6.88 3.779 0 .379-1.568 2.351-3.483 4.382-3.438 3.645-3.939 6.793-.678 4.252 2.018-1.572 6.743-5.667 9.291-8.053 1.029-.963 2.207-1.763 2.62-1.779 4.597-.176 9.306-2.752 13.75-7.522 4.789-5.14 11.49-9.125 12.927-7.688.778.777 2.535-1.634 2.558-3.511.009-.767-1.241-1.211-3.235-1.15-3.079.094-3.119.141-.75.9m-130.354 16.452c-3.261 3.022-3.384 6.506-.332 9.374 2.868 2.693 4.092 2.801 2.721.24-1.407-2.629-1.334-5.369.12-4.471.715.443.883.275.44-.44-.422-.685-.078-1.155.846-1.155.857 0 1.559-.375 1.559-.833 0-.694 3.943-.798 4.75-.125.137.114.588.271 1 .348 2.002.375 3.25 1.953 3.25 4.11 0 3.23 1.376 3.847 3.457 1.548 2.244-2.48.374-8.348-3.175-9.965-4.444-2.025-11.707-1.346-14.636 1.369M288 183c-3.575 2.199-7.03 3.999-7.677 3.999-1.66.001-5.323 4.903-5.323 7.123 0 2.158-7.641 7.424-10.201 7.03-1.563-.24-1.578-.016-.186 2.774 2.141 4.291 2.765 4.401 5.785 1.011 1.474-1.654 3.099-2.748 3.612-2.431.512.317 1.214-.551 1.56-1.928.445-1.772 2.077-3.16 5.58-4.743 3.399-1.536 6.013-3.714 8.336-6.948 1.861-2.591 4.313-5.006 5.449-5.366 1.136-.361 2.065-1.239 2.065-1.951 0-.745.956-1.197 2.25-1.064 1.238.127 3.15-.128 4.25-.567 1.381-.551.298-.82-3.5-.868-4.731-.06-6.408.489-12 3.929m18-1c-1.165.753-.872.973 1.309.985 1.545.008 2.547.439 2.227.958-.321.518-2.768.925-5.439.905-6.287-.049-9.365 1.65-13.927 7.686-2.567 3.396-5.01 5.39-7.892 6.442-2.478.905-5.37 3.048-7.119 5.277-1.62 2.065-3.908 4.54-5.085 5.5-1.719 1.404-2.008 2.392-1.474 5.032.745 3.688 1.591 3.523 2.008-.392.315-2.955 3.03-6.393 5.047-6.393.74 0 1.345-.505 1.345-1.122 0-.809.364-.821 1.302-.042 2.043 1.695 4.997.367 7.426-3.34 1.225-1.87 4.737-5.254 7.804-7.519 3.067-2.266 6.04-5.138 6.607-6.382.669-1.47 1.963-2.299 3.696-2.37 6.632-.269 9.392-2.14 6.872-4.661-1.807-1.807-2.631-1.905-4.707-.564m-166.205 35.223c-3.795 5.008-5.22 8.056-4.923 10.527.149 1.238-.159 2.25-.684 2.25s-1.19.9-1.478 2c-.67 2.564-2.71 2.608-2.71.059 0-3.291-1.72-3.207-2.385.117-.762 3.809-.476 4.153 3.371 4.043 2.358-.067 3.014.342 3.014 1.879 0 2.256 2.653 3.649 4.132 2.17.662-.662.484-1.509-.533-2.526-2.119-2.119-.586-11.158 3.014-17.773 3.189-5.859 2.724-7.42-.818-2.746M382 221.95c0 .523.596 1.31 1.325 1.75.729.44 1.662 1.7 2.072 2.8l.746 2 1.477-2c1.358-1.839 1.427-1.638.865 2.5-.483 3.555-.376 4.128.513 2.729 1.735-2.731 2.963-1.086 1.696 2.272-.927 2.454-.844 3.277.461 4.582 1.453 1.454 1.647 1.285 2.256-1.961.367-1.954 1.176-3.866 1.798-4.251.742-.459.912-.128.492.965-.489 1.276-.061 1.664 1.839 1.664 2.198 0 2.341-.218 1.269-1.934-.664-1.063-1.455-1.91-1.758-1.881-.303.028-1.676-.022-3.051-.112-2.497-.163-2.497-.165.386-1.396l2.886-1.232-3.386-2.567c-6.058-4.591-11.886-6.517-11.886-3.928m-174.922 10.677c.645 3.537-2.216 4.737-3.942 1.652-.794-1.42-1.082-1.082-1.648 1.933l-.685 3.653-3.963-2.065c-6.001-3.128-10.271-.694-8.209 4.68.541 1.41 1.037 1.254 3.489-1.095 3.562-3.413 4.552-2.57 3.013 2.567-1.502 5.012.586 9.94 6.085 14.358 3.102 2.493 3.972 2.777 5.25 1.717 2.199-1.826 1.903-2.717-1.159-3.486-4.968-1.246-7.88-6.57-5.109-9.341.933-.933.804-1.2-.583-1.2-2.84 0-1.283-2.395 2.334-3.591 1.815-.6 4.082-2.128 5.038-3.394 1.728-2.291 4.011-2.075 4.011.38 0 .802 1.522 1.337 4.09 1.437 2.249.089 4.499.414 5 .723.5.31.91-.526.91-1.857 0-1.994-.925-2.78-5.25-4.462a1028.42 1028.42 0 01-7.041-2.762c-.985-.395-1.719-.327-1.631.153m182.937 15.501c.013 1.955.204 2.108 1.087.872.84-1.176.948-.96.498 1-.315 1.375-.579 3.512-.586 4.75-.008 1.238-.484 2.25-1.059 2.25-.665 0-.791-1.355-.347-3.725.65-3.465.583-3.609-.955-2.071-.909.909-1.687 2.473-1.729 3.475-.044 1.044-.651.327-1.424-1.679-.741-1.925-1.389-3.05-1.439-2.5-.05.55-.528.325-1.061-.5-1.376-2.129-1.262.332.161 3.453.638 1.401 1.538 2.547 2 2.547.461 0 .839.889.839 1.975 0 2.305 7.821 6.334 11.326 5.835 1.745-.249 2.238-1.089 2.496-4.26l.323-3.95-2.039 2.45c-2.318 2.784-2.82 1.478-.574-1.491.807-1.068 1.513-2.868 1.568-4 .086-1.775.21-1.714.9.441l.801 2.5.099-2.576c.133-3.425-3.685-6.964-6.4-5.931-1.1.418-2.562.31-3.25-.239-.93-.743-1.246-.391-1.235 1.374m-22.265 3.264c-1.814 1.377-2.46 6.608-.816 6.608.513 0 1.121-1.238 1.35-2.75.381-2.514.429-2.466.566.559.086 1.895.572 3.048 1.139 2.698.587-.363.721.086.33 1.105-.486 1.265-.306 1.498.681.888.991-.612 1.166-.375.673.91-.392 1.02-.029 2.377.877 3.283 1.821 1.821 1.405 2.611-.907 1.724-.904-.347-1.643-1.272-1.643-2.055 0-.784-.672-1.683-1.494-1.998-.822-.316-1.246-.976-.941-1.469.304-.492-.149-.895-1.006-.895-1.75 0-2.092 1.552-.552 2.504 2.628 1.625 4.005 6.242 2.279 7.645-1.445 1.175-1.575 1.123-1.005-.399.361-.962.22-1.75-.312-1.75-.533 0-.969.952-.969 2.117 0 1.718.47 2.026 2.5 1.638 1.375-.263 2.5-.07 2.5.428 0 .497.788.772 1.75.611 2.128-.357 5.27-10.236 4.514-14.191-.508-2.66-5.326-8.631-6.915-8.571-.467.017-1.637.629-2.599 1.36m38.285 12.542c-1.617 3.022-1.241 4.066 1.465 4.066 1.375 0 2.556.45 2.625 1 .677 5.415-.878 11-3.063 11-3.351 0-3.503 7.457-.18 8.831 1.053.435 1.618 1.885 1.618 4.152 0 3.25.251 3.524 3.75 4.093 2.673.434 3.75.247 3.75-.652 0-2.835-1.359-4.429-3.857-4.524l-2.643-.099L412 291c2.356-.755 2.373-.806.285-.9-2.67-.121-4.534-3.093-3.231-5.154.885-1.398 1.137-1.031 1.353 1.972.056.78.725 1.626 1.486 1.88.923.307 1.12.032.592-.823-.521-.842-.396-1.038.36-.57.688.425 1.155.07 1.155-.878 0-.875-1.012-2.037-2.25-2.581-2.127-.935-2.102-.968.45-.616 2.693.373 4.668-1.675 2.756-2.857-1.735-1.072-1.142-10.269.729-11.317 1.562-.874 1.544-1.152-.245-3.799l-1.93-2.857-.661 9.322c-.363 5.128-.937 9.599-1.275 9.937-.338.338-.309-3.361.065-8.219.607-7.904.484-8.977-1.171-10.187-2.471-1.807-3.207-1.71-4.433.581M278 264.186c0 .652-.934 2.179-2.076 3.395-1.824 1.941-1.946 2.677-1.005 6.064 1.855 6.681 1.377 9.259-2.419 13.055-4.184 4.184-4.209 4.3-.934 4.3 5.468 0 6.677-1.588 5.964-7.833-.461-4.035-.262-6.189.692-7.478 1.162-1.57 1.334-.838 1.292 5.5-.026 4.021-.404 7.874-.84 8.561-1.27 2.003.844 1.44 2.83-.754 1.615-1.785 1.672-2.433.519-5.926-.712-2.157-1.008-4.666-.659-5.577.35-.91-.039-2.619-.864-3.797-1.722-2.458-1.96-4.696-.5-4.696.55 0 1 .644 1 1.432 0 .787 1.3 2.357 2.888 3.488l2.888 2.057.429-2.918c.441-3.004-1.002-4.367-5.705-5.391-1.785-.389-1.758-.448.25-.552 2.761-.142 2.92-1.687.316-3.081-2.553-1.366-4.066-1.31-4.066.151m-23.5 2.53l-3 1.635 3.223.846c4.278 1.123 10.078 7.226 10.868 11.435.347 1.853 1.032 3.368 1.52 3.368 1.592 0 .937 2.514-1.111 4.268-1.808 1.548-2.707 3.732-1.536 3.732 1.173 0 8.607-8.748 9.151-10.769.824-3.058-1.384-8.257-3.208-7.557-1.878.721-1.805 3.326.093 3.326.825 0 1.5.702 1.5 1.559 0 .924-.47 1.268-1.155.846-.715-.443-.883-.275-.44.44.422.685.078 1.155-.846 1.155-.857 0-1.559-.482-1.559-1.071 0-.59-.675-1.747-1.5-2.572s-1.5-2.526-1.5-3.78c0-2.139-5.134-8.625-6.759-8.537-.407.022-2.091.776-3.741 1.676m80.532 2.397c.513 1.786 1.502 3.609 2.2 4.051.933.592.825.809-.405.821-.921.008-3.011 1.14-4.645 2.515-1.634 1.375-3.704 2.5-4.601 2.5-.897 0-2.058-1.125-2.581-2.5-1.42-3.735-3.309-3.182-2.452.717 1.362 6.205 3.743 8.418 4.874 4.533l.655-2.25 1.583 2.25c1.954 2.776 3.934 2.877 5.328.273.901-1.683.794-1.879-.715-1.313-1.575.59-1.615.47-.355-1.077 2.263-2.782 5.545-4.283 4.733-2.166-.43 1.122-.227 1.55.598 1.26 1.838-.647 1.231-6.607-.973-9.559-2.914-3.903-4.354-3.927-3.244-.055m-44.6 7.997c-.408.66-2.098.881-4.166.546-3.351-.544-3.459-.465-2.91 2.14 1.92 9.104 1.94 8.826-.803 10.984-2.004 1.576-3.755 1.993-7.342 1.748-8.637-.59-12.788 1.692-5.361 2.947 7.925 1.339 9.448.978 14.15-3.349 2.475-2.278 5.198-4.365 6.051-4.638 1.696-.543 3.949-5.854 3.949-9.309 0-2.287-2.376-2.998-3.568-1.069m52.059.92c-.267.841-1.837 2.04-3.489 2.663-5.007 1.89-4.015 5.054 3.511 11.197 1.223.999 1.553 2.316 1.171 4.672-.726 4.474 1.644 5.283 4.914 1.678 2.705-2.982 2.81-9.809.28-18.254-1.199-4-5.334-5.267-6.387-1.956m29.259-.253c-2.222.469-2.297 2.223-.095 2.223 1.54 0 1.54.127 0 1.829-2.207 2.438-2.088 5.351.345 8.444 1.1 1.398 2.036 3.821 2.079 5.385.043 1.563.307 2.277.585 1.586.279-.691.806-1.076 1.171-.855.366.221 1.198-.176 1.849-.881.927-1.004.654-1.781-1.25-3.57-1.339-1.258-2.434-2.742-2.434-3.299 0-.557 1.35.28 3 1.861s3.007 2.452 3.015 1.937c.009-.515.501-.262 1.095.563.91 1.266.991 1.227.516-.25-.693-2.153.93-2.349 1.75-.212.33.858-.037 1.778-.83 2.083a1.52 1.52 0 00-.878 1.956c.298.776.917 1.18 1.375.896.459-.283 1.298.282 1.865 1.256 2.026 3.48 1.206-3.585-.894-7.701-2.333-4.574-3.587-5.583-4.378-3.522-.315.822-1.064 1.494-1.664 1.494-.599 0-.781-.5-.403-1.112.378-.611.067-1.504-.691-1.984-1.063-.674-.938-.877.546-.889 1.866-.015 1.863-.083-.113-2.265-1.121-1.238-2.437-2.946-2.924-3.796-.488-.851-1.675-1.381-2.637-1.177m-130.868 4.973a5.707 5.707 0 000 1.5c.065.413-.332.75-.882.75s-1-.439-1-.975c0-1.269-4.889.564-7.283 2.732-.983.889-1.552 2.231-1.264 2.982.288.751.102 1.104-.414.785-1.602-.99-2.988 3.015-2.368 6.838.47 2.892.049 4.463-2.04 7.619-4.158 6.284-2.897 10.039 3.869 11.52l3 .657-2.41-1.954c-3.096-2.51-3.139-8.698-.107-15.481 1.174-2.628 1.865-5.627 1.535-6.666-.33-1.039-.179-2.148.335-2.466 1.838-1.136 2.206 4.394.51 7.668-2.212 4.266-3.383 9.611-2.259 10.305.493.305.896 1.358.896 2.34 0 1.759 2.91 5.096 4.444 5.096.432 0 .018-1.172-.921-2.605-2.087-3.186-1.462-7.523 2.032-14.094 2.87-5.397 3.053-7.987.795-11.212-1.271-1.814-1.328-2.25-.25-1.897 3.024.99 3.837 6.919 1.687 12.308-4.077 10.22-3.724 15.858 1.158 18.47 4.079 2.184 5.221 1.125 2.089-1.936-1.668-1.632-3.068-3.319-3.111-3.75-.042-.431-.251-1.684-.465-2.784-.214-1.1.945-4.626 2.576-7.836 3.372-6.636 3.59-8.557 1.44-12.714-.839-1.622-1.147-2.95-.685-2.95 1.026 0 4.211 6.486 4.211 8.574 0 .828-.9 3.27-2 5.426-2.347 4.6-2.428 5.102-.725 4.448.701-.269 4.078 1.77 7.505 4.531 3.426 2.762 6.832 5.021 7.567 5.021 1.295 0 3.653-6.046 3.653-9.366 0-2.036 1.865-2.149 2.629-.159.547 1.426 6.371 4.927 6.371 3.83 0-.297-1.35-2.079-3-3.958s-3-4.113-3-4.965c0-2.342-2.366-1.066-3 1.618-.676 2.862-2.77 3.762-3.617 1.554-.534-1.389-1.093-1.25-4.05 1.006-4.214 3.214-7.342 2.719-4.895-.775 3.702-5.286.651-17.724-4.699-19.158-2.974-.797-3.716-.773-3.857.123m151.149 9.75c0 3.57 1.883 7.292 2.024 4l.086-2 .859 2c.821 1.911.863 1.915.93.083.09-2.452.608-1.834 1.469 1.751.408 1.695.302 2.599-.264 2.25-.567-.351-.728 1.115-.402 3.666.671 5.256.825 5.445 2.255 2.772.877-1.639.863-2.497-.061-3.61-.667-.803-.987-1.685-.712-1.96.275-.275 1.092.212 1.815 1.084 1.891 2.278.097 6.637-3.428 8.326-2.182 1.046-2.528 1.57-1.476 2.237 4.399 2.787 6.255.226 7.137-9.849.434-4.961.258-6.25-.858-6.25-.773 0-1.405-.661-1.405-1.469 0-.894-.586-1.243-1.5-.893-1.036.398-1.5-.065-1.5-1.5 0-1.492-.45-1.903-1.601-1.461-.88.338-1.999-.014-2.485-.781-.625-.988-.883-.519-.883 1.604m-224.808.057c-2.817 1.973-2.814 3.055.01 3.794 2.941.769.988 2.899-2.658 2.899-3.138 0-3.275.832-.428 2.61 2.603 1.625.985 3.1-3.428 3.125-1.539.008-3.039.685-3.357 1.515-.317.825-1.315 1.515-2.219 1.533-1.291.026-1.138.455.718 2 3.131 2.609 6.139 2.577 6.139-.064 0-2.818 2.773-3.637 4.549-1.344 1.415 1.827 1.485 1.824 2.702-.125.687-1.1 1.273-2.675 1.303-3.5.03-.825.417-3.185.86-5.243.826-3.836.145-8.757-1.211-8.757-.417 0-1.758.701-2.98 1.557m-57.79 5.26c-1.419 5.073-.124 8.849 2.026 5.908 1.229-1.68 1.322-1.671 1.802.166 1.989 7.604 23.871 10.834 30.242 4.464.876-.876 1.868-1.317 2.205-.98.923.922-2.552 4.369-5.032 4.991-1.723.433-2.176 1.285-2.176 4.09 0 4.121.492 4.339 3.095 1.374 1.71-1.947 1.726-2.104.155-1.531-1.162.424-1.75.145-1.75-.83 0-.808.338-1.416.75-1.351.412.066 2.924.066 5.582 0l4.831-.118-2.275-3.681c-1.881-3.044-1.982-3.569-.582-3.032 1.08.415 1.694.157 1.694-.71 0-1.182-2.241-2.225-6.755-3.146-.69-.14-.994.166-.675.682.318.515.208.814-.246.665-.453-.149-2.59 1.077-4.748 2.725-5.363 4.096-11.763 4.093-17.247-.009-6.627-4.957-8.548-7.229-7.883-9.323.384-1.211.076-2.141-.824-2.486-.949-.364-1.694.362-2.189 2.132" fill="#d3d3d3" fill-rule="evenodd"/></svg>