<svg xmlns="http://www.w3.org/2000/svg" width="500" height="678"><path d="M0 339v339h249.2c170.494 0 248.876-.324 248.173-1.027-.653-.653-15.569-1.189-40.95-1.473-72.233-.806-86.998-1.119-88.218-1.873-.663-.41-1.205-.349-1.205.136 0 .484-2.587.721-5.75.527-3.162-.193-9.736-.537-14.609-.763-24.618-1.142-2.444-1.561 69.24-1.308l79.274.281-.573-110c-.315-60.5-.841-210.35-1.168-333-.327-122.65-.667-223.054-.755-223.119-.087-.065-52.584-.402-116.659-.748-99.322-.536-124.981-.894-141.917-1.978-1.329-.085-2.588-.668-2.796-1.295-.278-.833 7.36-1.183 28.382-1.299 15.819-.087 28.965-.362 29.213-.61C289.13.203 224.233 0 144.667 0H0v339M5.911 83.75c-.049 43.313-.227 82.35-.395 86.75-.423 11.049-1.295 422.205-.883 416 .37-5.562.56-45.292 1.731-362.25C6.81 103.662 6.91 5 6.587 5c-.323 0-.627 35.438-.676 78.75M218 13.314c-3.237 1.101-18.897 1.216-96.5.709-20.35-.133-34.073.358-35.25 1.262-.792.608-1.25.61-1.25.004 0-1.28 1.643-1.21-27.25-1.167-.962.001-1.75.385-1.75.852 0 .966-1.928.827-3.674-.264-.7-.438-1.36-.022-1.634 1.028-.435 1.665-.466 1.665-.576.012-.098-1.476-1.212-1.77-7.116-1.875-3.85-.069-8.462-.206-10.25-.305-1.788-.099-4.972.399-7.076 1.107-2.104.708-4.804 1.234-6 1.168-4.577-.254-7.6 1.828-7.056 4.858.403 2.245.253 2.55-.758 1.547-1.629-1.616-2.86-1.594-2.86.051 0 1.839 2.352 6.682 3.25 6.691 1.376.015.773 2.067-1.242 4.23-1.812 1.945-1.852 2.293-.435 3.859 1.033 1.142 1.199 1.942.492 2.379-1.665 1.029-1.285 3.562.435 2.902 2.159-.829 1.846 1.238-.522 3.444-1.733 1.614-1.994 2.99-1.824 9.589.109 4.238.577 7.939 1.039 8.224.462.286.581.938.264 1.45-.316.512-.161.931.345.931.507 0 .705 1.128.442 2.506-.264 1.378.098 3.201.803 4.05 1.08 1.302.945 1.633-.852 2.103-2.118.554-2.132.752-1.809 25.2.351 26.479.385 27.005 1.873 28.891.664.842.623 1.25-.125 1.25-.612 0-1.018 1.125-.905 2.5.114 1.375.591 2.5 1.061 2.5.469 0 .142.711-.728 1.581-.869.869-1.325 1.994-1.012 2.5.312.505.083.919-.51.919-.614 0-.841.968-.528 2.25C9.43 145.999 9.657 160 8.8 160c-.44 0-.8.477-.8 1.059s.52.738 1.155.346c.715-.443.883-.275.44.44-.427.691-.063 1.155.905 1.155.89 0 1.35.434 1.023.964-.328.529.32 1.879 1.441 3 2.498 2.498 2.646 4.204.286 3.311-1.667-.632-1.667-.579 0 1.102 1.958 1.976 2.382 4.132.595 3.028-.715-.443-.883-.275-.44.44.392.635.274 1.155-.263 1.155-.536 0-1.241-.563-1.565-1.25-.324-.687-.353-.013-.064 1.5.37 1.936.112 2.75-.869 2.75-1.038 0-1.362-1.404-1.269-5.501.069-3.025-.223-5.5-.648-5.5-.426.001-.719 4.951-.653 11.001.073 6.655.52 11 1.131 11 .555 0 .777-.603.495-1.341-1.298-3.381 1.063-3.567 4.021-.315 2.831 3.11 2.944 3.495 1.403 4.769-2.267 1.875-5.124 1.996-5.124.217 0-.796-.45-1.17-1-.83-.55.34-1 1.422-1 2.405 0 1.841 5.252 2.293 7.866.678 1.066-.659 1.523-.05 1.252 1.667-.065.412.332.75.882.75s1 .477 1 1.059-.342.847-.761.589c-.419-.259-1.431.052-2.25.691-1.59 1.24-2.237 8.661-.755 8.661.486 0 .576.498.2 1.107-.491.794-.892.771-1.42-.084-.521-.843-.929-.688-1.396.529-.62 1.616-.78 1.612-2.639-.071-1.088-.985-1.979-1.309-1.979-.719 0 .589.562 1.298 1.25 1.576 1 .403 1 .52 0 .583-.687.043-1.25 1.254-1.25 2.69v2.611l1.967-2.361c1.114-1.338 1.981-1.794 2-1.052.018.732.542.994 1.188.596.715-.443.883-.275.44.44-.392.635-.219 1.155.385 1.155.707 0 .639.499-.191 1.4-.709.77-1.739 1.04-2.289.6-.55-.44-1.58-.17-2.289.6-1.055 1.145-1.046 1.4.05 1.4.762 0 1.339 1.078 1.339 2.5 0 2.649-1.082 3.341-1.956 1.25-.287-.687-.459.325-.381 2.25.078 1.925.613 3.831 1.189 4.235.679.476.595.74-.237.75-.903.01-1.015.535-.376 1.765.5.963.548 2.65.106 3.75-.935 2.324-1.217 7.106-.37 6.258.57-.57 1.201-3.133 1.348-5.477.044-.691.762-.955 1.661-.61 1.162.446 1.261.807.372 1.356-1.696 1.048-.255 2.973 2.225 2.973 1.749 0 1.868.236.78 1.547-.921 1.11-1.486 1.221-1.998.394-.532-.862-.904-.845-1.466.064-.416.673-.165 1.582.561 2.031 1.082.669 1.083 1.089.005 2.388-1.082 1.304-1.071 1.588.065 1.646.754.039.472.457-.628.93-1.808.777-1.618.961 1.417 1.375 1.914.261 2.33 1.626.5 1.64-1.06.009-1.47.344-.917.75.55.404 1.607 1.813 2.349 3.13 1.205 2.14 1.17 2.326-.332 1.75-.924-.355-1.895-.645-2.158-.645-.262 0-.156-.52.236-1.155.443-.715.275-.883-.44-.44-.635.392-1.155.21-1.155-.405s-.498-.81-1.107-.434c-.794.491-.771.892.084 1.42.855.528.738.909-.416 1.352-1.318.506-1.391.962-.405 2.54.66 1.057 1.8 1.692 2.534 1.411.877-.337 1.131.013.744 1.022-.327.853.294 2.417 1.397 3.52 1.815 1.815 1.854 2.173.462 4.162-1.122 1.601-1.23 2.47-.409 3.291 1.386 1.386 1.482 4.06.116 3.216-.55-.34-1-.168-1 .382s.451 1.279 1.002 1.619c1.013.626.634 7.197-.479 8.31-.331.331-.855-.366-1.165-1.549-.444-1.7-.833-1.9-1.858-.956-1.047.965-.883 1.427.852 2.409 1.182.668 1.586 1.23.898 1.25-1.601.045-1.601 1.521 0 3.214.688.726 1.25 2.671 1.25 4.321 0 2.243.441 2.965 1.75 2.861.962-.076 1.75.261 1.75.75s.536.776 1.191.639c.654-.138 1.362.536 1.572 1.496.267 1.219-.071 1.573-1.117 1.172-1.133-.435-1.391-.006-1.053 1.753.409 2.126.365 2.154-.502.329-.523-1.1-.982-1.411-1.021-.691-.039.728-.582.992-1.225.596-.763-.473-.88-.271-.345.595.507.82.416 1.066-.241.66-.577-.357-1.322.061-1.654.928-.877 2.284-.79 2.415 1.145 1.721.963-.345 1.428-.272 1.035.163-.393.435-.242 1.674.336 2.754.894 1.67.776 1.877-.785 1.383-1.504-.476-1.865.004-1.996 2.655-.088 1.78.063 2.671.335 1.98.273-.691.977-.959 1.565-.596.632.391.777.189.355-.493-.392-.635-.263-1.155.287-1.155 1.822 0 2.274 2.003.598 2.646-1.331.511-1.391.813-.314 1.569 1.063.747 1.031.855-.157.531-3.137-.855-5.54 4.051-3.448 7.038 1.22 1.741 1.212 2.089-.059 2.577-2.014.773-.75 3.639 1.605 3.639 2.515 0 2.428 2.802-.157 5.043-1.519 1.318-1.728 1.976-.809 2.544.695.43 1.414.249 1.633-.41.216-.647.832-1.177 1.368-1.177.537 0 .655.52.263 1.155-.415.67-.277.884.327.511.573-.354 1.564-.014 2.203.756.716.863.793 1.628.199 1.995-.53.328-1.153.255-1.385-.161-.232-.416-.289-.205-.127.468.162.673-.425 1.626-1.304 2.118s-1.282 1.407-.895 2.034c.503.814 1.135.709 2.212-.368 1.976-1.976 3.365-1.915 3.365.147 0 1.539.128 1.539 1.831-.002 1.007-.912 2.124-1.365 2.482-1.007.358.358-.344 1.514-1.559 2.568-1.239 1.074-2.363 1.459-2.557.877-.416-1.248-5.197 1.647-5.197 3.146 0 .598.576.53 1.416-.167 1.359-1.128 3.382 1.91 2.782 4.18-.109.413.212.75.714.75 1.802 0 .384 3.272-1.989 4.587-2.911 1.612-4.265 1.776-3.423.413.34-.55.168-1-.382-1-1.515 0-2.085 1.435-1.164 2.926.452.732 1.323 1.021 1.934.643.612-.378 1.112-.21 1.112.372S15.325 368 14.5 368s-1.5.675-1.5 1.5-.562 1.507-1.25 1.515c-.883.011-.835.278.162.91 1.561.988 4.361-1.18 4.725-3.657.294-2.005 1.36-2.921 1.378-1.185.013 1.158.17 1.173.861.083.681-1.074.964-1.025 1.453.25.335.871.172 1.584-.36 1.584-.533 0-.933.788-.89 1.75.047 1.045.282 1.247.583.5.278-.688.965-1.25 1.528-1.25.563 0 .743.732.4 1.627-.344.894-.112 2.244.515 3 .872 1.05.818 1.377-.233 1.388-1.078.012-1.05.224.128.985 1.229.794 1.118.972-.611.985-1.688.012-2.02-.463-1.656-2.368.496-2.594-1.507-4.601-2.686-2.692-.402.649-1.308 1.044-2.014.878-.705-.167-1.489.26-1.742.948-.311.85.128 1.03 1.375.562 1.615-.605 1.67-.486.462 1-1.25 1.535-.885 2.122 1.122 1.805.413-.065.75.809.75 1.941 0 1.132-.419 1.8-.931 1.484-.512-.317-1.213-.118-1.559.441-.345.559.256 1.016 1.337 1.016 1.998 0 2.032 3.843.036 4.125-.485.069-1.296.181-1.8.25-2.036.278-2.269 1.625-.281 1.625 1.537 0 1.965.443 1.527 1.584-.437 1.141-.813 1.251-1.343.393-1.015-1.641-2.169.383-1.384 2.427.334.871 1.08 1.293 1.657.936.657-.406.748-.16.241.66-.517.836-.417 1.067.276.638.597-.369 1.373-.206 1.724.362s1.057.774 1.569.457c.512-.316.931.378.931 1.543 0 1.245-.439 1.846-1.067 1.459-1.362-.842-3.875 2.528-3.199 4.29.281.733.119 1.261-.361 1.173-2.024-.369-2.544.167-1.447 1.489.712.858.797 1.642.216 2.001-.525.324-.72 1.484-.434 2.578.285 1.093.918 1.741 1.406 1.44.487-.302.9.041.918.761.019.807.594.565 1.5-.632 1.501-1.985 1.752-1.596 1.735 2.691-.003.962.61 1.75 1.363 1.75.754 0 1.37.886 1.37 1.969 0 2.536-2.671 1.644-3.571-1.194-.481-1.515-.854-1.706-1.449-.742-.746 1.206-.717 2.182.175 5.908.19.792-.407 1.606-1.327 1.808-1.258.277-1.538-.141-1.133-1.691.299-1.144.056-2.058-.547-2.058-.597 0-.826.675-.51 1.5.55 1.432-1.054 2.008-4.388 1.575-2.312-.301-1.681 15.624.669 16.882 1.397.747 2.045.689 2.381-.215.255-.685.964.021 1.581 1.573.788 1.984.81 3.394.073 4.771-.576 1.075-.772 2.399-.437 2.942.335.542-.131 1.271-1.037 1.618-1.231.472-1.333.827-.405 1.401 1.541.951 4.115.069 3.36-1.152-.304-.492-.103-.895.447-.895 1.604 0 2.249 1.775.874 2.405-.691.317-.281.337.91.045 2.231-.547 3.567.706 4.049 3.8.36 2.312-.981 2.218-3.191-.224-1.818-2.009-5.635-2.192-6.266-.3-.191.573.235 1.667.947 2.432 1.72 1.846 2.069 3.842.673 3.842-.776 0-.738.464.122 1.5.997 1.201.988 1.5-.044 1.5-2.176 0 .009 1.444 3.796 2.51 1.973.555 3.795 1.63 4.048 2.389.278.835.014 1.104-.67.681-.655-.405-1.13-.043-1.13.861 0 .946.885 1.565 2.25 1.574 1.297.009 1.782.327 1.145.75-1.411.939-1.603 7.235-.221 7.235.572 0 .781.675.464 1.5-.316.825-.113 1.5.452 1.5.566 0 .748.453.405 1.008-.384.621-1.219.411-2.178-.548-.855-.855-1.806-1.304-2.113-.997-.307.307.188 1.116 1.1 1.797 1.182.884 1.381 1.671.693 2.74-.859 1.333-.978 1.333-1.068 0-.055-.825-.499-.168-.985 1.46-.619 2.076-.519 3.191.336 3.734.888.565.812.775-.28.775-.825 0-2.175-.436-3-.969-1-.646-1.083-.974-.25-.985.688-.008 1.25-.369 1.25-.801 0-.432-.9-.785-2-.785-2.433 0-2.436-.282.05 3.931l2.049 3.474-2.049.65c-1.135.36-2.05 1.513-2.05 2.583 0 2.054 1.469 2.602 2.5.933.989-1.6 2.379-1.156 2.344.75-.031 1.71.194 2.73 1.904 8.637.81 2.798.892 2.83 2.666 1.056 1.773-1.773 1.873-1.771 3.221.073 1.833 2.506 1.317 3.719-1.95 4.593-2.014.538-2.685.354-2.685-.739 0-.834-.749-1.332-1.75-1.164-1.173.197-1.657-.266-1.468-1.404.31-1.866-3.315-4.367-4.216-2.909-.305.493.118 1.155.94 1.471.822.315 1.494 1.487 1.494 2.605 0 1.117.45 2.031 1 2.031s1.007.788 1.015 1.75c.013 1.496.157 1.532.985.25.835-1.293.971-1.266.985.191.021 2.313-1.545 3.091-3.154 1.568-2.632-2.49-4.832-2.057-4.816.947.009 1.664.323 2.31.777 1.597 1.365-2.148 3.573.147 2.346 2.438-.587 1.098-.783 2.28-.436 2.628.347.347-.174.631-1.158.631-1.5 0-1.582.249-.506 1.546.705.85 1.885 1.314 2.622 1.031.737-.283 1.34-.092 1.34.423s.675.678 1.5.362c2.167-.832 1.843-2.362-.5-2.362-2.171 0-2.452-.738-1.096-2.878.48-.758 1.373-1.069 1.984-.691.631.39 1.112.026 1.112-.841 0-.965.567-1.31 1.542-.935 1.138.436 1.399 1.493.996 4.03-.391 2.457-.216 3.234.612 2.722.781-.483.894-.258.344.688-.448.773-.486 1.111-.084.751.402-.36 1.881-.058 3.285.671 1.405.729 3.285 1.093 4.179.81 1.311-.416 1.355-.323.231.477-1.141.813-1.05 1.082.5 1.479 1.606.411 1.552.503-.355.601-1.238.064-2.25.593-2.25 1.175 0 .582.487.758 1.081.391 1.282-.793 7.088 4.467 6.314 5.719-.293.475-1.029.557-1.634.183-.708-.438-.873-.087-.462.984.421 1.097.126 1.664-.866 1.664-1.139 0-1.269-.437-.538-1.803.744-1.391.49-2.1-1.11-3.099-1.72-1.074-1.988-1.065-1.568.053.278.742.189 2.239-.198 3.327-.683 1.916-.742 1.908-1.897-.25-.831-1.554-.861-2.228-.098-2.228.602 0 .816-.45.476-1-.34-.55-.109-1 .512-1 .667 0 .504-.627-.398-1.529-.841-.841-1.304-2.116-1.028-2.833.278-.725-.185-1.305-1.043-1.305-.849 0-1.543.375-1.543.834 0 .458-.45.833-1 .833s-1-.754-1-1.675c0-1.476-.218-1.446-1.838.25-1.791 1.875-1.771 1.954.75 3.024 1.423.604 3.203.873 3.954.598 1.05-.384 1.139-.059.385 1.401-.539 1.046-.758 2.527-.486 3.291.302.849.055 1.118-.635.691-.622-.384-1.137-1.684-1.145-2.889-.012-1.615-.242-1.833-.878-.83-.474.748-.638 2.217-.364 3.265.376 1.439.102 1.752-1.122 1.282-1.906-.731-2.054.444-.339 2.68.67.873 1.811 1.388 2.536 1.144.838-.282 1.202.232 1 1.412-.223 1.3.206 1.768 1.432 1.562 2.171-.364 2.323 1.637.186 2.457-.954.366-2.146-.231-3.056-1.532-.822-1.172-2.008-2.131-2.637-2.131-.826 0-.81.333.057 1.2 1.451 1.451 1.6 3.165.2 2.3-.55-.34-1-.141-1 .441S20.45 557 21 557s1 .675 1 1.5-.45 1.5-1 1.5-1-.675-1-1.5-.501-1.387-1.113-1.25c-.612.138-1.3-.865-1.529-2.229-.228-1.363-.919-2.938-1.534-3.5-.8-.73-.943-.523-.503.729.413 1.172.111 1.75-.911 1.75-.841 0-1.245.457-.9 1.016.346.559 1.047.758 1.559.441.512-.316.931.577.931 1.984 0 2.31 1.266 4.042 5.178 7.088.727.566 2.175.857 3.218.648 1.276-.256 1.726.064 1.375.977-.868 2.263 1.836 4.096 3.536 2.396 1.036-1.036 1.721-1.122 2.525-.318.803.803 1.276.65 1.742-.565.352-.917 1.058-1.667 1.568-1.667.524 0 .462.872-.142 2-.697 1.302-2.094 2-4.004 2-2.169 0-2.786.383-2.369 1.469.364.949 1.593 1.35 3.468 1.132 1.598-.186 2.905.052 2.905.53 0 .478-1.687.876-3.75.884-2.433.01-3.281.313-2.416.861 1.057.67.976.983-.393 1.508-2.177.836-3.164-.061-1.69-1.535 1.367-1.367-1.213-5.849-3.366-5.849-.762 0-1.385-.75-1.385-1.667 0-1.936-1.288-.978-1.607 1.196-.133.904.617 1.477 1.945 1.486 1.763.013 1.885.195.662.985-.825.533-1 .976-.389.985.632.008.914 1.051.653 2.417-.344 1.796.073 2.57 1.653 3.072 1.162.368 1.854 1.088 1.539 1.598-.316.51-.071.928.544.928s.797.52.405 1.155c-.44.711-.275.883.429.448.763-.472.924-.137.485 1.009-.486 1.265-.306 1.498.681.888.951-.588 1.172-.391.761.68-.442 1.153-.008 1.399 1.845 1.045 1.959-.375 2.298-.138 1.769 1.24-.359.936-.928 1.327-1.264.869-.336-.459-1.173-.879-1.861-.934-2.846-.228-3.25-.471-3.25-1.959 0-.857-.368-1.332-.818-1.054-.45.278-1.432-.346-2.182-1.387s-1.809-1.618-2.352-1.282c-.559.345-.737-.043-.41-.895.906-2.361-.965-4.738-2.223-2.823-.541.825-.991 1.107-1 .628-.008-.48-.685-.317-1.504.363-.819.68-1.213 1.683-.875 2.229.379.613.914.508 1.398-.275.611-.988 1.152-.901 2.447.393.914.914 1.18 1.662.59 1.662-.589 0-1.071.45-1.071 1s.338.947.75.882c4.342-.686 7.426 1.996 5.276 4.587-.555.668-.676 1.548-.269 1.955.407.407-.036 1.307-.984 2-1.547 1.131-1.57 1.456-.221 3.168 1.094 1.39 1.452 1.5 1.318.408-.39-3.158 1.195-5.036 3.299-3.909 1.951 1.044 1.95 1.071-.081 2.833-1.129.978-1.722 2.143-1.32 2.588.403.445.1.442-.673-.006-.832-.483-1.164-.427-.815.137.671 1.087-.032 2.271-2.495 4.2-1.466 1.148-2.135 1.044-4.613-.72-2.987-2.128-4.986-1.808-3.077.491.592.714.773 1.79.402 2.391-1.166 1.887-3.497-.974-3.497-4.294 0-4.083-.989-2.892-1.437 1.73-.269 2.769-.024 3.566.977 3.182.809-.311 1.458.316 1.648 1.592.171 1.157 1.102 2.218 2.067 2.357.965.139 1.523-.122 1.241-.579-1.095-1.771 2.49-4.019 4.453-2.793 2.423 1.513 1.486 3.8-1.556 3.8-1.316 0-2.393.436-2.393.969 0 .532.675.709 1.5.393.825-.317 1.5-.078 1.5.531S19.298 612 18.441 612s-1.281.45-.941 1c.34.55-.101 1-.98 1-1.317 0-1.371.245-.309 1.389.709.764 1.514 1.033 1.789.598.275-.436 1.85-.198 3.5.529 1.65.727 2.438 1.358 1.75 1.403-.687.044-1.25.583-1.25 1.198 0 .624.882.886 2.001.593 1.101-.288 1.75-.115 1.441.383-.308.499-.083.907.499.907s1.059.702 1.059 1.559c0 .926-.47 1.269-1.158.844-.793-.491-.98-.037-.593 1.441.31 1.186.198 2.156-.249 2.156s-.559.971-.248 2.158c.48 1.839.233 2.071-1.673 1.573-1.715-.448-2.102-.233-1.658.924.318.83.579 1.683.579 1.895 0 .213.675.128 1.5-.188.825-.317 1.5-.051 1.5.59s.403.917.895.613c.493-.305 1.164.147 1.493 1.004.329.857 1.078 1.261 1.665.898.682-.421.413-1.177-.743-2.094-1.67-1.323-1.577-1.415 1.19-1.193 3.095.249 6.5 2.395 6.5 4.097 0 .533-.67.412-1.488-.267-1.205-1-1.606-.929-2.107.377-.341.887-1.336 1.613-2.212 1.613-1.177 0-1.3.293-.471 1.122.617.617.895 1.854.618 2.75-.444 1.436-.346 1.451.828.128 1.947-2.193 4.096-1.839 6.075 1 1.534 2.199 2.247 2.104 1.875-.25-.065-.413.38-.75.989-.75s.856.654.549 1.454c-.433 1.129.224 1.392 2.944 1.178 1.926-.152 3.693.034 3.927.412.234.378 1.674.458 3.199.176 2.695-.496 2.724-.455 1.024 1.463-2.336 2.635-2.205 3.389.5 2.885 1.237-.231 2.548-.453 2.912-.494 1.163-.13.249-3.202-1.224-4.112-1.132-.7-1.168-1.132-.18-2.12.989-.989 1.245-.845 1.257.708.011 1.308.271 1.549.791.73.489-.77 1.261.425 2.093 3.242.724 2.454 1.719 4.214 2.209 3.911.491-.303.928.713.971 2.258.043 1.545.297 2.272.565 1.615.267-.656 1.131-.946 1.921-.643.789.303 1.435.053 1.435-.556 0-.609-.352-1.107-.782-1.107-.43 0-.879-1.173-.997-2.606-.167-2.008.146-2.467 1.363-2 .869.333 1.88.613 2.248.621.367.009-.007.452-.832.985-1.333.862-1.333.973 0 1 1.224.025 1.25.189.143.89-.946.6-1.021 1.067-.25 1.544.609.376 1.114.095 1.122-.625.012-.962.297-.912 1.079.191.829 1.171.965.891.618-1.274-.244-1.525-.054-3.015.422-3.309.476-.294.866.257.866 1.224 0 1.325.284 1.475 1.149.61.865-.865 1.889-.766 4.146.401 2.731 1.413 2.942 1.408 2.382-.051-.702-1.829.841-2.191 1.917-.449.391.633-.062 1.717-1.008 2.409-2.167 1.584-2.154 1.51-.74 4.152 1.269 2.37 4.676 2.089 3.755-.31-.282-.736-.018-1.645.588-2.02.737-.455.933.196.595 1.968-.717 3.751.821 3.285 2.779-.842 1.724-3.634 3.637-3.991 2.726-.508-.303 1.162-.03 1.999.653 1.999.647 0 .898-.45.558-1-1.062-1.718.709-1.091 2.121.75 1.167 1.523 1.468 1.557 2.318.258.779-1.188 1.231-1.238 2.219-.25 1.706 1.706 2.901 1.56 2.199-.269-.414-1.08-.121-1.336 1.026-.896.883.339 1.43.907 1.216 1.262-.599.993 2.086 3.116 2.955 2.335.422-.38.472-.175.112.455s.06 1.419.932 1.754c1.054.405 1.762-.06 2.108-1.384.287-1.096.928-1.741 1.424-1.435.496.307.675.926.397 1.376-.278.449.165 1.373.984 2.053 1.239 1.029 1.489.88 1.489-.887 0-3.266 1.912-2.268 4.638 2.42.627 1.077 1.864 1.896 2.75 1.819.887-.076 1.612.347 1.612.941s.661.207 1.468-.861c1.123-1.484 1.479-1.588 1.516-.441.041 1.333.154 1.333 1.016 0 .533-.825.976-1.025.985-.446.027 1.881 7.761 1.723 8.826-.181.855-1.527 1.02-1.48 1.637.464.378 1.19 1.092 2.163 1.588 2.163s.635-.693.31-1.541c-.325-.847-.199-1.451.281-1.341.48.11 1.706-.162 2.724-.605 1.185-.515 2.134-.347 2.637.468 1.105 1.787 15.885 1.842 16.985.063.473-.766 1.336-.971 2.099-.5.981.607.826 1.006-.638 1.647-1.348.589-.815.71 1.757.4 3.107-.376 3.606-.181 3.155 1.231-.314.985-.186 1.265.31.678 1.055-1.25 16.344-1.379 16.344-.137 0 .506 2.057.627 4.646.272 2.892-.396 5.158-.213 6 .487.745.617 1.354.718 1.354.222 0-.495 3.825-.891 8.5-.881 4.675.011 8.5.301 8.5.644s1.688.319 3.75-.054c2.063-.373 7.35-.556 11.75-.407 18.224.619 27.728.409 28.991-.638.965-.802 1.452-.749 1.833.2.419 1.044.533 1.041.597-.017.047-.776.581-.999 1.311-.547 1.74 1.075 4.757 1.183 5.369.192.285-.46.967-.836 1.517-.836.55 0 .722.45.382 1-.556.9 6.706 1.52 14.5 1.237a285.1 285.1 0 016.5-.118c2.2-.015 5.76-.043 7.911-.063 2.151-.019 4.513.466 5.25 1.077.869.722 1.339.75 1.339.08 0-.601 2.82-1.061 6.75-1.1 3.712-.038 9-.123 11.75-.191 2.75-.067 10.175-.037 16.5.066 6.325.104 11.95.109 12.5.012.55-.097 5.725-.049 11.5.107 5.775.157 12.3.225 14.5.153 6.038-.198 20.968-.22 65.279-.097 22.154.062 40.597-.206 40.986-.594.388-.389.792-135.113.897-299.388.105-164.274.452-311.407.772-326.96l.582-28.279-2.258-.854c-1.242-.469-2.645-.624-3.117-.344-.697.413-198.305 1.607-205.141 1.24-1.1-.06-2.675-.09-3.5-.068-4.478.119-21.058-.186-24.5-.451-15.25-1.173-25.338-1.227-28.5-.151M193.645 65.02c-3.22 1.01-8.228 1.837-11.128 1.837-2.9 0-7.15.506-9.444 1.123-3.98 1.072-8.073.665-8.073-.802 0-.378-7.088-.82-15.75-.983-35.9-.674-51.248-.358-51.249 1.055-.001.412-1.576.75-3.501.75-2.056 0-3.5.495-3.5 1.2 0 .933-.267.933-1.2 0-2.032-2.032-10.535-1.199-9.235.905.304.492.076.895-.506.895S79 70.55 79 70c0-1.44-4.561-1.233-5.803.262-2.58 3.109-5.09 12.808-5.626 21.738-.314 5.225-1.029 11.975-1.59 15-.561 3.025-.967 7.075-.903 9 .238 7.188-.071 9-1.538 9-3.511 0-5.639 12.144-4.405 25.144 1.049 11.05 1.001 12.036-.644 13.239-2.261 1.653-3.276 14.967-1.32 17.323.683.823 1.365 2.013 1.517 2.645.152.632.56 2.38.908 3.885.374 1.619-.028 4.385-.982 6.771-2.787 6.966-1.537 19.665 2.243 22.785 1.471 1.214 1.403 1.305-.64.867-5.056-1.083-7.539 12.428-5.024 27.341.51 3.025.887 7.223.837 9.328-.049 2.105.412 6.593 1.024 9.972.799 4.403.807 6.246.03 6.505-1.4.467-1.423 8.195-.024 8.195 1.115 0 .881 16.66-.259 18.522-.33.538-.483 5.182-.34 10.319.214 7.705-.039 9.632-1.441 11-2.59 2.527-3.02 4.713-1.388 7.044.815 1.163 1.118 2.122.675 2.13-.444.009-.314.346.289.75 1.972 1.322 2.526 5.97.905 7.591-1.942 1.942-1.937 6.54.009 7.286 1.514.581 1.574 23.608.065 25.117-.32.32.129 1.666.997 2.992.869 1.326 1.34 3.036 1.046 3.801-.293.764.043 1.966.746 2.669.703.703 1.293 1.504 1.311 1.779.107 1.679 1.581 5 2.219 5 .418 0 .57 1.293.338 2.873-.28 1.908-.978 2.832-2.077 2.75-1.179-.088-1.747.841-1.976 3.23-.187 1.954.078 3.106.636 2.762.526-.326 1.173.539 1.437 1.922.269 1.41-.06 2.832-.751 3.238-1.466.863-2.528 7.091-1.334 7.828 1.735 1.072.938 7.183-.917 7.036-2.195-.174-2.934 5.215-1.167 8.517.667 1.245.795 2.385.287 2.554-.504.168-.726 4.014-.494 8.548.232 4.533.467 10.829.523 13.991.055 3.163.328 5.75.606 5.75.885.001.238 11.373-.841 14.775-.743 2.343-.701 4.619.149 8 .653 2.599 1.122 5.401 1.043 6.226-.246 2.546-1.554 6-2.273 6-.375 0-.549 2.363-.385 5.25.679 11.969.677 17.333-.007 18.44-.398.645-.327 1.417.158 1.717 1.376.85.463 5.839-1.244 6.794-1.185.663-1.314 1.434-.569 3.394 1.264 3.324 1.307 3.2-1.286 3.699l-2.25.434 2.25.136c1.561.094 2.25.767 2.25 2.195 0 1.132-.423 1.797-.941 1.478-.557-.345-.727.958-.417 3.191.36 2.591.221 3.342-.444 2.399-1.196-1.697-.789 10.199.583 17.063.636 3.176.596 5.033-.121 5.75-.747.747-.705 1.06.14 1.06.66 0 1.2-.54 1.2-1.2 0-1.942 1.474.351 2.862 4.454.699 2.065.978 4.674.622 5.798-.357 1.124-.214 2.585.319 3.246.532.661 1.206 4.127 1.498 7.702.291 3.575.759 7.4 1.038 8.5.279 1.1.549 2.45.6 3 .05.55.577.325 1.171-.5.912-1.269.992-1.232.52.24-.403 1.251.13 1.913 1.898 2.356 1.363.343 2.17 1.084 1.811 1.665-.399.644-.16.747.618.265.738-.456 1.631-.207 2.139.596.633.998.878 1.033.889.128.008-.687.451-1.25.984-1.25.532 0 .707.68.388 1.511-.564 1.472 1.287 1.286 4.143-.415 1.866-1.112 5.994-.603 7.332.904 1.173 1.321 1.27 1.303.819-.151-.623-2.007 2.655-3.143 4.306-1.492.835.835 1.344.774 1.968-.235.674-1.091 1.057-.99 1.928.508.597 1.029 1.1 1.338 1.117.688.02-.785 1.434-1.043 4.199-.768 2.293.228 4.768-.082 5.5-.69.98-.814 1.331-.794 1.331.077 0 .649.362.957.805.683.443-.273 2.547-.104 4.675.376 2.882.649 4.393.506 5.917-.562 1.127-.789 2.848-1.434 3.826-1.434.977 0 1.777-.473 1.777-1.052 0-1.057 5.822-3.581 7.28-3.156.429.125 2.452.442 4.495.704 2.044.261 3.874.95 4.067 1.531.194.58 2.285-.529 4.647-2.464l4.295-3.52 4.542 2.415c6.378 3.392 16.434 5.747 21.227 4.972 2.171-.352 5.683-.577 7.806-.502 2.122.075 4.43-.338 5.128-.917.843-.7 2.116-.732 3.789-.096 1.385.526 2.779.697 3.097.379.318-.319 1.221-.046 2.006.605 1.099.913 1.517.912 1.822-.001.297-.891 1.003-.854 2.847.147 2.626 1.427 5.242 2.034 8.452 1.963 7.658-.17 13.625-1.019 16.106-2.292 4.902-2.515 8.183-1.954 8.948 1.53.637 2.901.799 2.977 5.07 2.392 2.427-.333 5.777-1.614 7.445-2.847 2.445-1.808 3.197-1.979 3.874-.883.555.897 3.084 1.41 7.428 1.506 5.23.116 6.875.54 7.988 2.063 1.483 2.027 12.575 3.232 13.662 1.483.287-.461 1.637-1.057 3-1.324 1.364-.267 3.829-.933 5.479-1.478 6.615-2.188 14.184-2.253 19.474-.168 2.787 1.098 5.395 1.916 5.796 1.817.713-.176 9.745 1.028 13.73 1.829 2.31.465 8.772 1.2 16.121 1.835 2.816.243 6.876 1.144 9.02 2.002 2.145.858 5.466 1.383 7.379 1.165 1.914-.217 4.605.154 5.98.826 2.977 1.454 28.1 1.174 36.661-.409 7.322-1.354 19.667-7.431 21.303-10.487.706-1.32 2.117-2.617 3.136-2.884 2.004-.524 2.783-2.12 5.336-10.934 1.247-4.302 2.128-5.75 3.498-5.75 3.007 0 4.307-9.812 1.897-14.315-1.488-2.781-3.754-14.685-2.796-14.685 1.768 0 5.566-15.595 4.65-19.096-.273-1.046-.17-2.105.231-2.352.401-.248.582-2.611.402-5.251-.406-5.99 1.548-18.502 2.773-17.745 1.925 1.19.987-11.638-1.061-14.515-1.084-1.521-1.684-3.053-1.334-3.404.351-.35.086-.637-.588-.637-.674 0-.994-.376-.71-.835.284-.459.006-2.496-.616-4.525-.768-2.501-1.394-3.279-1.942-2.415-.504.794-.827-.044-.856-2.225-.043-3.125-.19-3.313-1.376-1.75-2.38 3.135-3.475.533-1.265-3.008 1.008-1.615 3.6.744 3.775 3.437.161 2.473 1.645-3.543 1.648-6.679.001-1.401-.192-1.768-.439-.835-.998 3.769-3.282 2.87-3.051-1.201.243-4.285 1.046-4.958 2.644-2.214.971 1.667 1.021 1.667 1.05 0 .016-.962-.532-1.757-1.22-1.765-.784-.01-.873-.29-.239-.75.555-.404 1.005-3.096 1-5.983-.006-2.886.216-5.248.492-5.25.859-.004.459-20.395-.438-22.341-1.033-2.242.078-19.593 1.493-23.313.762-2.005.694-2.888-.269-3.5-1.047-.664-1.048-.82-.004-.833.921-.011 1.016-.519.335-1.791-.584-1.09-.595-2.411-.03-3.421.575-1.027.528-2.678-.126-4.398-.576-1.514-.765-4.034-.421-5.6.782-3.56-.404-11.009-1.632-10.25-.501.31-.911.086-.911-.496s.45-1.059 1-1.059c1.282 0 1.278-5.261-.009-12.049-.555-2.927-.623-5.576-.152-5.886.472-.311.902-1.24.956-2.065.054-.825.293-3.3.53-5.5.238-2.2.231-3.212-.016-2.25-.712 2.779-1.885 2.058-3.551-2.184-1.306-3.324-1.329-4.017-.152-4.468.918-.353 1.434.223 1.51 1.683.107 2.046.156 2.063.635.219l.519-2 .809 2c.547 1.352.715.541.518-2.5-.16-2.475-.758-5.625-1.328-7-1.075-2.595-.684-4.289.535-2.319.383.618.696-6.932.696-16.779 0-16.32-.423-20.157-1.838-16.652-.277.688-.54-.212-.583-2-.043-1.788.371-3.25.921-3.25s1 .45 1 1 .408 1 .906 1c.499 0 .671-.9.384-2-.293-1.118-.031-2 .593-2 2.051 0 1.149-2.645-1.36-3.988-2.116-1.132-2.257-1.486-.969-2.428.913-.668 1.327-2.083 1.051-3.593-.251-1.37-.497-2.716-.546-2.991-.049-.275-.482.12-.963.878-1.035 1.635-3.096.64-3.096-1.496 0-.825.419-1.241.931-.925.512.317 1.205.132 1.54-.41 1.085-1.755 1.445-20.047.395-20.047-.541 0-.795-.338-.563-.75.231-.412.095-3.45-.303-6.75s-.34-6.491.129-7.092c.47-.601.586-1.359.26-1.686-.327-.327-.534-5.798-.459-12.158.09-7.769-.224-11.564-.957-11.564-.6 0-.837-.412-.526-.915.311-.503 0-1.142-.691-1.421-.82-.33-.701-.534.342-.585 1.294-.064 1.631-1.462 1.77-7.329.102-4.338-.175-6.727-.69-5.947-.474.716-1.495 1.166-2.27 1-.774-.167-1.295.26-1.158.947.138.688-.347 1.25-1.077 1.25-.912 0-1.186-.96-.876-3.072.375-2.557.142-3.019-1.387-2.75-1.082.19-1.977-.355-2.177-1.326-.421-2.037 2.767-1.991 4.375.064 1.239 1.583 3.041-5.057 1.881-6.933-.334-.541-.13-.983.452-.983.582 0 1.059.525 1.059 1.167 0 .641.286.881.635.531 1.167-1.167 1.399-8.952.306-10.269-.64-.771-.744-2.04-.254-3.115 1.724-3.791.982-47.776-.838-49.602-1.263-1.268-1.467-2.474-.867-5.134.432-1.913.591-3.672.353-3.91-2.37-2.37-1.784-30.997.7-34.168.43-.55.54-3.138.244-5.75-.587-5.176-2.094-5.912-7.72-3.772-1.822.692-4.247.549-8.315-.493-6.051-1.548-8.512-1.43-12.381.592-5.817 3.041-6.03 3.082-7.788 1.491-.953-.862-2.769-1.568-4.036-1.568-1.268 0-3.107-.925-4.087-2.056-.981-1.13-2.609-2.018-3.618-1.971-1.009.046-4.984.308-8.834.583-8.159.582-8.164.582-16-.042-3.3-.262-10.725-.437-16.5-.389-5.775.049-12.3.016-14.5-.072-2.2-.088-5.575-.168-7.5-.177-7.912-.037-25.863-.152-31-.198-3.025-.027-12.713.122-21.528.332-8.816.21-16.624.014-17.352-.436-2.414-1.492-15.487-2.437-20.12-1.455-7.921 1.68-12 2.091-12 1.207 0-.473-1.677-.782-3.728-.685-2.05.096-4.952-.459-6.45-1.233-3.545-1.833-7.952-1.655-15.177.612m-42.767 73.73c-.067.963-.158 2.988-.202 4.5-.044 1.512-.397 2.75-.785 2.75-.387 0-.443 1.012-.124 2.25.5 1.941.366 2.075-.977.974-1.262-1.034-1.646-1.034-2.029 0-.794 2.143 1.746 8.072 3.802 8.877 1.065.417 1.375.79.687.829-.687.038-1.25.49-1.25 1.004 0 .513 1.227.711 2.727.439 3.194-.579 4.326-1.373 1.959-1.373-.934 0-1.926-1.109-2.29-2.56-.408-1.623-1.146-2.366-2.019-2.031-.758.291-1.377.14-1.377-.333 0-.474.775-1.159 1.722-1.523 1.475-.566 1.511-.794.25-1.591-1.235-.782-1.191-.934.278-.947 2-.017 2.384-2.592.5-3.353-.961-.388-.948-.522.059-.583.72-.043 1.031-.529.691-1.079-.34-.55-.141-1 .441-1s1.073.563 1.091 1.25c.017.688 1.148-.02 2.514-1.572 2.528-2.875 2.488-4.678-.105-4.678-.793 0-1.441-.45-1.441-1 0-1.811-3.994-1.085-4.122.75" fill="#d3d3d3" fill-rule="evenodd"/></svg>