<svg xmlns="http://www.w3.org/2000/svg" width="500" height="500"><path d="M225.786 137.538c-12.122 3.327-17.746 6.433-22.899 12.647-2.413 2.909-8.009 9.181-12.435 13.937-9.24 9.928-17.215 24.152-24.908 44.428l-4.511 11.889 3.233 3.335c3.069 3.164 3.251 3.779 3.559 12.03.179 4.783-.301 12.601-1.065 17.375-1.2 7.491-1.194 9.064.043 11.5 3.362 6.612 9.772 11.706 18.525 14.721 6.087 2.097 6.101 2.11 8.135 8.1 1.939 5.713 2.023 7.952 1.741 46.75l-.297 40.75 5.797.046c24.194.193 82.269 1.115 84.259 1.338 1.355.152 3.605-.32 5-1.049 2.296-1.2 2.567-1.136 2.857.669.302 1.891 1.104 1.996 15.25 1.996H323v-2.747c0-2.797-4.631-17.933-6.043-19.753-2.336-3.01-11.391-33.39-11.124-37.325.086-1.279-.307-3.191-.873-4.25-.709-1.324-.707-1.925.005-1.925.602 0 1.037-2.612 1.041-6.25.008-8.191 2.414-23.709 4.847-31.25 1.064-3.3 2.924-9.375 4.133-13.5 1.208-4.125 3.226-10.2 4.482-13.5 6-15.757 5.864-15.174 4.609-19.728-1.343-4.874-7.888-30.503-9.136-35.772-.456-1.925-1.791-7.1-2.968-11.5-1.176-4.4-2.38-9.503-2.676-11.339l-.537-3.34-6.734.676-6.735.677-2.895-4.994c-3.008-5.186-17.471-19.133-22.584-21.777-10.862-5.617-29.563-6.834-44.026-2.865m59.964 120.993c-.962 1.29-1.75 2.771-1.75 3.29 0 .52-.945 1.193-2.101 1.495-1.155.302-1.833.983-1.505 1.512.327.529-.078 1.22-.9 1.536-2.368.909-1.771 2.768 2.191 6.825 4.618 4.73 3.535 6.386-1.185 1.811-5.45-5.282-5.45-2.533 0 3 6.07 6.162 5.453 7.472-.889 1.889-6.528-5.746-7.116-3.976-.802 2.417 6.403 6.484 6.921 9.431.614 3.499-4.998-4.702-6.423-5.558-6.423-3.86 0 .611 2.475 3.415 5.5 6.231 3.025 2.815 5.5 5.745 5.5 6.512 0 .799-1.741-.222-4.088-2.398-4.84-4.487-6.82-5.716-7.736-4.799-.646.646 1.394 2.704 8.721 8.8 5.404 4.496 2.908 4.142-2.792-.396-2.858-2.276-5.412-3.921-5.676-3.658-.264.264 1.595 2.181 4.132 4.259 2.989 2.45 4.201 4.033 3.445 4.5-.781.483-.278 1.367 1.523 2.679 1.527 1.113 2.533 2.68 2.33 3.628-.296 1.373-1.136 1.052-4.75-1.817-4.745-3.767-6.109-4.243-6.109-2.131 0 .745 2.7 3.249 6 5.564 5.386 3.778 6 4.566 6 7.704 0 2.523-.348 3.29-1.25 2.756-.687-.406-2.98-1.815-5.094-3.131-2.115-1.316-4.136-2.101-4.492-1.745-.356.356.115 1.074 1.047 1.595 7.761 4.343 10.285 7.416 10.599 12.905l.309 5.415-2.066-1.87c-3.291-2.978-3.257-1.295.045 2.238 1.652 1.768 3.202 3.214 3.445 3.214.587 0-.174-16.585-.811-17.66-.273-.462-.49-3.218-.481-6.123.009-2.906-.265-5.565-.609-5.908-.344-.344-.172-1.171.382-1.838.583-.703.667-2.132.199-3.398-1.006-2.718-.325-9.254.885-8.506 1.482.915 1.002-2.47-.723-5.102-1.345-2.052-1.376-2.465-.184-2.465 1.458 0 5.799-6.753 5.799-9.021 0-1.411-3.443 2.718-4.182 5.016-.265.822-.751-.785-1.081-3.571-.448-3.778-1.388-5.91-3.698-8.382-3.329-3.564-3.364-5.551-.045-2.548 1.553 1.406 2.029 1.499 2.106.411.055-.773.46-.28.9 1.095l.801 2.5.227-2.5c.126-1.375.283-3.953.35-5.728.067-1.776.522-3.2 1.01-3.165 1.113.08 2.576-2.163 2.597-3.979.012-1.065-.3-1.112-1.388-.209-.811.674-1.549.764-1.75.215-.191-.522-1.135.107-2.097 1.397" fill="#d3d3d3" fill-rule="evenodd"/></svg>