<svg xmlns="http://www.w3.org/2000/svg" width="500" height="630"><path d="M.015 254.112C.014 393.873.282 509.91.611 511.971c.544 3.4 1.091 3.952 5.878 5.936 3.598 1.492 6.602 3.758 9.441 7.125l4.164 4.938 8.203-.413c4.512-.227 10.172-1.12 12.579-1.985 2.406-.865 5.503-1.572 6.882-1.572 3.507 0 9.198-3.754 10.372-6.843.586-1.54 1.266-2.147 1.677-1.499 1.142 1.797 4.877-.262 5.584-3.078.402-1.602 1.398-2.637 2.628-2.73 1.09-.083 2.544-.195 3.231-.25.688-.055 1.785-.602 2.438-1.216 3.313-3.114 5.607-1.125 7.476 6.482 1.822 7.411 1.73 9.134-.484 9.134-.812 0-1.198 2.084-1.191 6.432.01 5.879.237 6.566 2.64 7.985 4.101 2.422 7.372 10.537 4.871 12.083-1.589.982-1.167 4.717.986 8.736 1.551 2.893 1.77 4.274 1 6.3-2.045 5.38-.548 9.987 3.459 10.645 1.506.247 2.195-.55 3.047-3.525 1.1-3.841 1.102-3.843 2.243-1.339 1.844 4.048 2.584 9.593 1.461 10.947-.718.865-.641 1.775.254 2.999 2.121 2.901 2.729-4.296.887-10.498-1.053-3.546-1.2-5.311-.463-5.556.705-.235.866-2.406.463-6.262-.545-5.213-.396-5.974 1.273-6.515a52.919 52.919 0 003.89-1.481c1.1-.477 3.125-1.084 4.5-1.347 1.375-.264-1.002-.349-5.283-.19-8.572.319-8.634.282-10.319-6.217-.919-3.544-.876-4.211.243-3.781 1.555.597 1.77-1.218.401-3.382-.535-.847-.556-1.914-.05-2.525 2.693-3.244-4.801-18.133-8.492-16.872-1.102.376-4.651-8.75-4.865-12.51-.074-1.306.54-2.703 1.365-3.106 2.615-1.276 11.394-4.189 14.25-4.729 1.513-.285 2.75-.854 2.75-1.263 0-.694 4.274-1.161 24.551-2.682 9.054-.679 11.908.265 17.404 5.762 2.106 2.106 2.834 3.502 2.171 4.165-1.229 1.229.504 3.156 3.771 4.193 1.578.501 1.98 1.056 1.277 1.759-.68.68-.701 1.887-.062 3.568.678 1.785.619 2.754-.201 3.261-1.728 1.068-.127 2.963 1.871 2.214 1.467-.549 1.528-.41.419.955-.873 1.074-.954 1.81-.25 2.246.577.356 1.049.075 1.049-.625 0-.873.526-.747 1.671.398 1.562 1.561 1.755 1.559 2.938-.036 1.182-1.592 1.367-1.573 2.755.293 1.383 1.86 1.265 2.106-1.689 3.515-2.683 1.281-3.121 1.978-2.828 4.5.43 3.693.307 3.576 4.08 3.864 3.939.301 7.841 3.621 4.256 3.621-2.393 0-4.158 2.766-2.457 3.851.559.357 2.232 2.983 3.717 5.836 1.486 2.853 3.352 5.728 4.148 6.388 2.031 1.686 11.138.586 16.468-1.989 2.374-1.148 4.955-2.086 5.734-2.086.78 0 2.738-1.11 4.351-2.467 3.285-2.765 7.375-2.647 11.856.341 1.375.916 4.188 2.547 6.25 3.624 2.062 1.076 3.75 2.304 3.75 2.729 0 .425.845.773 1.878.773 1.032 0 2.433.67 3.113 1.489.68.819 1.597 1.266 2.038.993.441-.272 2.077.577 3.636 1.888 1.559 1.311 5.76 3.946 9.335 5.856 3.575 1.91 8.201 4.441 10.28 5.624 2.08 1.182 4.394 2.15 5.143 2.15.75 0 1.592.595 1.871 1.323.603 1.572 24.012 7.347 33.263 8.207 8.675.806 44.039 8.539 47.455 10.376.832.448 2.505.447 3.718-.002 1.275-.471 2.456-.412 2.797.14.867 1.402 4.468 1.167 4.505-.294.02-.78.518-.61 1.325.452.834 1.097 2.071 1.499 3.48 1.13 1.593-.416 2.757.153 4.286 2.098 2.024 2.573 2.349 2.645 8.989 1.99 4.851-.478 6.888-.345 6.888.451 0 .621 1.099 1.129 2.443 1.129s3.098.935 3.898 2.077c1.745 2.49 10.312 2.119 12.249-.531 1.392-1.903 2.542-1.92 9.45-.137 3.919 1.011 7.436 1.187 12.46.621 9.732-1.095 11.111-.138 10.653 7.398-.231 3.816-.729 5.555-1.5 5.238-5.082-2.089-5.203-2.101-3.819-.4.734.903 1.942 3.662 2.685 6.131l1.351 4.49-3.685.388c-2.027.214 15.705.464 39.403.557l43.088.168.674-95.75c.371-52.663.666-194.412.655-315L500.986 0H.019L.015 254.112M.483 110c0 60.225.12 84.862.267 54.75.147-30.113.147-79.388 0-109.5C.603 25.137.483 49.775.483 110m355.209-27.641c-.619 1.614.242 5.867 1.345 6.641.391.275 1.021 2.075 1.398 4 .525 2.677.427 3.147-.418 2-1.492-2.028-1.271-.737 2.825 16.5 1.83 7.7 3.523 15.013 3.762 16.25.239 1.238.949 2.25 1.579 2.25 2.191 0 8.741-3.359 9.278-4.758 1.201-3.131 1.84-21.242.748-21.242-.6 0-1.463-1.877-1.916-4.172-.454-2.295-1.444-4.378-2.201-4.631-1.009-.336-1.241.241-.872 2.172.276 1.447.115 2.631-.359 2.631-.473 0-.861-.648-.861-1.441s-.526-1.766-1.17-2.164c-.787-.486-.961-.178-.531.941.793 2.067-.658 2.162-2.647.173-1.13-1.13-1.613-1.191-1.993-.25-.275.683-.537-.42-.58-2.45-.067-3.14-2.079-6.883-2.079-3.868 0 .582-.399 1.059-.887 1.059-1.104 0-2.125-6.316-1.131-7 .399-.275-.052-1.307-1.004-2.294-1.44-1.494-1.823-1.552-2.286-.347M371 130c0 .55-.873 1-1.941 1s-2.167.366-2.444.814c-1.001 1.619 3.196 26.14 4.737 27.681 1.867 1.867 2.324-.965 3.022-18.745.435-11.076.351-11.75-1.456-11.75-1.055 0-1.918.45-1.918 1m-85.062 8.033c-2.509.411-8.311 1.035-12.893 1.387-4.582.351-8.829.951-9.438 1.331-1.303.816-2.439 1.042-9.107 1.819-2.75.321-6.012 1.234-7.25 2.029-1.311.843-2.25 1.01-2.25.401 0-.591-1.014-.381-2.33.48-1.281.84-2.601 1.255-2.933.923-.332-.332-1.176-.25-1.875.182-.699.433-2.619.934-4.266 1.114-1.647.18-3.299.82-3.67 1.421-.45.727-.887.752-1.306.075-.405-.656-2.501-.326-5.875.923-2.885 1.068-11.32 3.99-18.745 6.494-16.025 5.403-19 6.608-19 7.691 0 .448-.45.537-1 .197s-1-.141-1 .441-.562 1.073-1.25 1.091c-1.757.044-6.749 4.606-6.753 6.17-.001.714 1.011 3.271 2.25 5.683 1.654 3.218 1.92 4.504 1.003 4.833-.687.247-1.286 1.199-1.329 2.115-.049 1.04-.269 1.197-.583.417-.599-1.484-3.338-1.689-3.338-.25 0 .55.563.887 1.25.75.688-.138 1.138.313 1 1-.354 1.772 1.695 1.557 2.388-.25.317-.825 1.004-1.5 1.528-1.5s.674.45.334 1-.115 1 .5 1 .825.474.467 1.053c-.357.579-1.168.88-1.8.669-1.596-.532-4.277 2.273-2.981 3.119.556.362.928 1.69.827 2.95-.167 2.071 5.159 8.117 7.272 8.256 6.479.426 11.215.358 11.215-.161 0-.359.9-.888 2-1.176 1.1-.287 2-.214 2 .164s1.391 1.213 3.091 1.854c1.797.679 2.811 1.622 2.42 2.254-.44.713.215.925 1.909.618 1.419-.257 2.58-.026 2.58.514s1.22 2.112 2.711 3.494c2.035 1.886 2.389 2.712 1.42 3.311-.871.539-.207 1.042 2.038 1.546 7.454 1.673 8.486 1.253 7.906-3.215-.09-.687.307-1.25.881-1.25.574 0 1.046.787 1.048 1.75.004 1.298.908 1.796 3.5 1.929 1.923.098 3.496-.036 3.496-.298 0-1.032-5.372-5.381-6.646-5.381-.745 0-1.354-.702-1.354-1.559s-.45-1.281-1-.941c-.55.34-1-.087-1-.949 0-1.271-.348-1.351-1.836-.421-1.459.911-3.357.621-9.25-1.413l-7.414-2.559 6-.123c3.3-.067 7.912-.492 10.25-.944 2.95-.571 4.255-.481 4.265.293.009.614.429.462.934-.336 1.055-1.668.367-3.361-1.018-2.505-.512.316-.931-.352-.931-1.484 0-1.132.45-2.059 1-2.059s1 .477 1 1.059.45.781 1 .441c.593-.366 1 .784 1 2.824 0 2.759.447 3.54 2.25 3.931 1.238.268 3.037.819 4 1.223 1.389.584 1.734.249 1.671-1.621-.043-1.296-.306-1.794-.583-1.107-.703 1.741-2.338 1.566-2.338-.25 0-.825.738-1.5 1.64-1.5.902 0 2.237-.787 2.968-1.75 1.233-1.625 1.331-1.593 1.36.441.018 1.205.482 2.469 1.032 2.809.55.34 1 .141 1-.441s.675-1.059 1.5-1.059 1.5-.45 1.5-1-.927-1-2.059-1c-1.172 0-1.782-.448-1.416-1.041.354-.572 1.468-.779 2.475-.459 1.007.32 2.121.113 2.475-.459.94-1.522 2.525-1.271 2.525.4 0 .793.521 1.763 1.158 2.156.778.481.988.068.639-1.264-.43-1.646.259-2.198 4.093-3.279a407.776 407.776 0 009.363-2.793c2.704-.85 5.937-1.206 7.5-.828 1.511.366 3.502.783 4.424.926 2.923.452 10.822 5.976 10.855 7.59.017.853.692 2.425 1.5 3.492.807 1.068 1.468 3.168 1.468 4.667 0 1.499.563 2.957 1.25 3.241 1.661.684-3.495 5.423-6.805 6.254-1.476.37-3.384.011-4.771-.897-2.124-1.392-2.413-1.354-3.551.468-1.07 1.714-.959 2.056.819 2.521 1.132.296 2.058.945 2.058 1.442 0 .496 1.137 2.703 2.526 4.904 2.306 3.653 2.72 3.896 4.75 2.792 2.602-1.416 5.724-1.824 5.724-.749 0 .412-.476.908-1.058 1.102-.581.194 2.349.344 6.511.333 5.887-.015 7.455-.315 7.058-1.351-.281-.732-.511-1.506-.511-1.718 0-.213-.788-.11-1.75.229-1.429.502-1.52.368-.5-.732 1.85-1.993 1.518-3.25-.704-2.669-1.687.441-1.876.121-1.382-2.348.565-2.825.533-2.847-2.79-1.894-4.887 1.402-5.755 1.225-5.161-1.047.289-1.106 1.597-2.28 2.906-2.608 2.558-.642 3.066-2.296 1.261-4.101-.615-.615-1.456-2.962-1.868-5.214-.688-3.76-.556-4.142 1.617-4.688 1.302-.326 3.043-.334 3.869-.017.916.351 1.502.003 1.502-.892 0-.808.671-1.469 1.492-1.469.82 0 2.053-.9 2.74-2 .687-1.1 1.732-2 2.321-2 .59 0 2.334-1.316 3.875-2.925 1.541-1.608 3.312-2.746 3.937-2.528.624.218 3.334-2.404 6.022-5.825 5.728-7.294 4.862-8.258-4.089-4.552-4.056 1.679-5.743 1.991-6.035 1.116-.269-.806-.969-.915-2.084-.323-4.216 2.238-8.639 3.158-11.444 2.382-2.682-.743-1.204-2.113 5.623-5.208 6.45-2.924 14.142-10.391 13.21-12.821-.267-.695.093-1.613.799-2.04 2.555-1.544 2.625-4.044.127-4.522-2.546-.487-4.917.537-5.119 2.21-.288 2.388-.615 2.398-1.316.036-.408-1.375-.308-3.062.222-3.75.709-.919.336-1.254-1.409-1.265-1.898-.013-2.072-.209-.872-.985 1.178-.761 1.206-.973.128-.985-1.071-.012-1.114-.327-.198-1.431.938-1.13.765-1.546-.857-2.061-1.118-.355-1.929-1.124-1.803-1.709.127-.585-.332-1.27-1.02-1.522-.687-.252-1.25.029-1.25.625 0 1.096-3.849-2.282-4.179-3.667-.71-2.983-5.462-4.269-11.883-3.217M60.669 195.664c-.368.368-.669 1.746-.669 3.062 0 1.34-.44 2.12-1 1.774-1.599-.988-1.154 2.128.5 3.5 1.118.928 1.5.944 1.5.063 0-.649.45-.903 1-.563 1.522.941 1.195 2.315-.638 2.677-1.325.261-1.068.932 1.353 3.521 1.644 1.758 2.644 3.558 2.221 4-.423.441-.131 1.382.648 2.091 1.156 1.053 1.419 1.053 1.431 0 .028-2.297 1.953 1.527 1.97 3.911.008 1.21.64 2.56 1.404 3 1.519.875 6.611 10.877 6.611 12.987 0 .722.398 1.313.883 1.313.486 0 1.13 1.012 1.431 2.25.302 1.238 1.057 4.275 1.68 6.75 1.204 4.789.54 11.448-1.045 10.469-.539-.334-.949 1.165-.949 3.472 0 3.637.254 4.059 2.441 4.059 1.343 0 2.724.457 3.069 1.016.346.559 1.047.758 1.559.441.512-.316.931-.083.931.519 0 .759.573.788 1.869.094 1.027-.55 2.123-.744 2.435-.432.313.312.355-2.05.095-5.249s-.944-6.108-1.52-6.464c-.641-.396-.423-.886.56-1.263 1.348-.517 1.403-.942.345-2.636-1.161-1.859-1.315-1.881-1.952-.272-.57 1.44-.704 1.346-.762-.535-.038-1.255-.745-2.541-1.57-2.857-.825-.317-1.5-1.338-1.5-2.269s-.538-2.231-1.195-2.888c-1.2-1.2-1.463-3.932-2.009-20.903-.25-7.768-.568-9.269-2.046-9.656-2.456-.644-2.266-4.698.25-5.356 2.017-.528 2.857-3.29 1-3.29-.55 0-1.045-1.012-1.1-2.25-.095-2.159-.132-2.148-.9.25-.715 2.231-.811 2.097-.9-1.25-.112-4.187-1.005-4.733-2.868-1.75-1.504 2.408-5.232 2.688-5.232.393 0-.954-.56-1.392-1.378-1.078-.758.291-1.883.024-2.5-.593-.829-.829-1.122-.638-1.122.733 0 1.735-.119 1.747-1.831.198-1.007-.912-2.132-1.356-2.5-.989m191.826 16.344c-.401.649-1.802.975-3.112.725-1.311-.251-2.383-.119-2.383.292s2.025 1.052 4.5 1.423c4.197.629 6.413 2.552 2.941 2.552-.999 0-1.277.449-.775 1.25 1.536 2.451 1.461 5.75-.132 5.75-.844 0-1.534.724-1.534 1.609 0 1.654-3.354 1.606-8.765-.125-1.871-.599-2.15-.426-1.604.996.386 1.007.091 2.074-.711 2.57-1.051.649-.792 1.079 1.104 1.835 1.362.544 2.083 1.017 1.604 1.052-.48.034-.304.749.392 1.587 1.839 2.216.803 2.616-2.43.938-1.55-.804-3.49-1.462-4.311-1.462-.916 0-1.271-.58-.917-1.5.722-1.883-1.051-1.954-2.89-.115-1.161 1.161-2.377 1.178-7.502.109-5.218-1.089-6.197-1.066-6.667.158-.302.789-.269 1.715.073 2.058.343.343.624.098.624-.543 0-1.621 2.947-1.469 3.581.185.317.826 1.473 1.169 2.969.883 2.241-.428 2.937.352 2.602 2.915-.047.357 1.08.942 2.504 1.3 2.488.624 2.516.71.717 2.182-1.551 1.268-1.585 1.441-.196 1.009.922-.287 2.162.062 2.754.776 1.551 1.868 9.306 1.118 10.569-1.022 2.17-3.678 8.008-9.395 9.594-9.395 3.12 0 7.961-2.545 6.885-3.621-.675-.675.56-.985 3.757-.943 4.472.06 4.783-.105 5.08-2.686.255-2.209-.214-2.951-2.388-3.777-1.488-.566-2.944-.79-3.236-.499-.291.292-1.354-.215-2.361-1.127-1.007-.911-1.831-1.324-1.831-.918s-1.75-1.138-3.888-3.431c-2.599-2.787-4.13-3.778-4.617-2.99M21.583 218.75c-.412.412-1.275.751-1.916.752-.711.001-1.043 1.244-.849 3.181.219 2.19-.326 3.825-1.75 5.249-1.137 1.137-1.773 2.068-1.413 2.068.36 0-.085.817-.989 1.816-.904.999-2.211 3.456-2.905 5.46-.693 2.003-1.661 3.623-2.149 3.598-.489-.025-1.178.423-1.531.995-.945 1.528-.026 9.215 1.024 8.566.492-.304.895 1.064.895 3.041 0 3.244.189 3.493 1.934 2.559 2.269-1.214 4.115-1.348 3.948-.285-.458 2.898.199 4.678 1.199 3.25.808-1.155.905-.925.419 1-.486 1.925-.389 2.155.419 1 .825-1.178 1.054-.79 1.066 1.809.008 1.82.418 3.06.91 2.756.493-.305 1.193.223 1.557 1.172.375.975.154 1.894-.508 2.115-.829.276-.773.642.193 1.254 1.114.706 1.088.866-.144.879-1.176.012-1.427 1.025-1.142 4.607.201 2.526-.078 5.035-.62 5.577-.567.567-.67 2.384-.244 4.275.408 1.809.388 3.921-.044 4.694-.433.773-.661 2.971-.507 4.884l.422 5.273c.176 2.229 5.866 1.455 10.622-1.446 1.661-1.013 3.798-1.843 4.749-1.845.951-.002 4.678-.972 8.283-2.155 6.304-2.07 7.93-4.01 3.905-4.658-1.054-.169-2.592-.536-3.417-.814-.825-.278-1.621-.468-1.77-.42-.972.308-2.895-2.718-2.51-3.952.416-1.336.348-1.337-.61-.005-.867 1.205-1.085.91-1.11-1.5-.023-2.273-.259-2.639-.974-1.508-.727 1.15-1.214 1.22-2.129.305s-.608-1.331 1.344-1.821c1.88-.472 2.401-1.129 2.028-2.556-.401-1.532.026-1.92 2.114-1.92 1.44 0 2.617-.436 2.617-.969 0-.532-.642-.722-1.427-.421-1.058.406-1.279-.019-.854-1.645.496-1.896.697-1.973 1.481-.572.661 1.181 1.381 1.366 2.657.683 1.002-.536 2.349-.567 3.149-.072 1.632 1.008 3.289.283 2.451-1.073-.316-.512-.13-.931.414-.931.545 0 1.183 1.012 1.418 2.25.236 1.238.417-1.532.402-6.154-.038-11.801-.274-12.6-3.762-12.743-1.611-.066-2.944.391-2.962 1.014-.019.623-.916.074-1.995-1.221-1.079-1.295-1.669-2.827-1.312-3.405.406-.658.16-.748-.66-.241-.815.504-1.066.416-.666-.232.354-.573-.021-1.593-.834-2.268-.813-.675-1.251-1.595-.973-2.044.278-.45.048-1.1-.511-1.446-.559-.345-1.019.186-1.022 1.181-.011 3.054-2.954-3.5-3.162-7.039-.102-1.734-1.006-4.822-2.008-6.862-2.13-4.334-2.318-6.121-.583-5.543 1.654.551 3.275-1.184 4.071-4.355.587-2.338.363-2.597-2.314-2.673-1.63-.046-3.226.34-3.546.859-.337.544-1.495.305-2.74-.567-2.378-1.665-3.986-1.904-5.129-.761M0 390.627c0 66.389.225 120.481.5 120.206.275-.274.506-35.247.513-77.717.008-50.553.354-77.008 1-76.608.543.335.987-.118.987-1.008s-.462-1.333-1.026-.984c-.693.428-.999-9.292-.945-29.967.052-19.829.427-30.385 1.065-29.991.609.376.753-.475.378-2.224-.581-2.706-.537-2.746.96-.893 1.989 2.462 1.998 1.519.09-9.324-.811-4.611-1.308-8.661-1.104-9 .205-.339-.256-1.197-1.023-1.906C.202 270.108 0 287.42 0 390.627M389.068 279.75c-.038 1.788-.57 3.25-1.185 3.25-.624 0-.886.882-.594 1.999.288 1.099.094 2.265-.431 2.589-.58.358-.493 1.147.222 2.008.799.963.955 3.374.488 7.508-.475 4.195-.359 5.885.371 5.433.635-.392 1.061.306 1.061 1.737 0 3.52 2.784 2.984 3.592-.691.645-2.934.718-2.974 1.511-.833 1.683 4.549 4.5 2.41 3.949-3-.108-1.065.532-1.781 1.635-1.829.997-.043 1.276-.297.619-.565-.656-.267-.931-1.169-.611-2.004.477-1.243.757-1.277 1.538-.186.707.987.804.865.373-.468-.321-.991-.249-1.596.159-1.344.407.253.801-1.637.874-4.198.073-2.561-.078-4.093-.336-3.406-.674 1.795-2.075 1.539-2.734-.5-.551-1.705-4.813-4.25-7.116-4.25-.631 0-1.636-1.012-2.233-2.25-1.023-2.122-1.088-2.065-1.152 1M156 285.118c0 .485.45.882 1 .882s1 .9 1 2 .475 2 1.057 2c.583 0 .262 1.345-.716 3-.975 1.65-2.35 3-3.057 3-2.096 0-1.466 2.481 1.224 4.82 5.124 4.455 7.348 2.066 7.132-7.664l-.14-6.343-3.75-1.289c-2.062-.709-3.75-.891-3.75-.406m41.424 7.822c-1.692.405-4.054.587-5.25.404-1.196-.182-2.174.044-2.174.503 0 .458-1.687 2.076-3.75 3.594-3.592 2.645-3.634 2.741-1 2.298 2.557-.429 4.006 1.392 2 2.514-.412.23-.187.282.5.114.688-.167 1.25.132 1.25.664 0 .533-.6.969-1.333.969-.734 0-1.338.563-1.343 1.25-.005.688-.328 2.239-.718 3.448-1.618 5.025 14.467 7.83 18.465 3.22 1.328-1.531 3.003-1.918 8.296-1.918 3.755 0 6.633-.434 6.633-1 0-.55-.428-1-.952-1-.534 0-.32-2.085.489-4.75 2.132-7.025 2.028-7.288-2.791-7.105-2.34.088-5.602-.504-7.25-1.316-1.648-.812-3.783-1.297-4.746-1.079-.963.218-1.75-.086-1.75-.677 0-1.185-.158-1.189-4.576-.133m243.033 7.439c-.624 3.326-.845 3.491-4.283 3.182-5.01-.449-6.269.212-5.586 2.934.316 1.258.088 2.587-.507 2.955-1.914 1.183-1.153 2.55 1.419 2.55 1.375 0 2.525.563 2.555 1.25.03.688.173 3.187.318 5.553.145 2.367-.007 4.471-.336 4.674-1.057.653-1.096 6.369-.048 7.016 1.467.907 1.243 3.533-.253 2.959-.712-.273-2.089 1.049-3.157 3.032-1.757 3.262-4.579 4.813-4.579 2.516 0-.55-.675-1-1.5-1-2.14 0-1.854-2.303.495-3.997 2.31-1.664 3.616-7.089 2.282-9.473-1.78-3.181-.36-7.413 2.324-6.926 2.781.504 3.41-2.002.758-3.02-3.801-1.458-5.901.684-5.432 5.541.108 1.121-.645 1.625-2.427 1.625-3.086 0-3.559.387-3.762 3.075-.085 1.128-1.073 2.311-2.196 2.629-1.92.544-1.938.659-.292 1.923 2.086 1.601 2.304 2.773.379 2.034-1.863-.715-2.954 2.492-1.461 4.292.893 1.076.909 1.631.063 2.154-1.739 1.075-1.047 4.958.977 5.487 1.607.42 2.297-.823 1.942-3.499-.048-.36.624-.928 1.493-1.261 1.286-.494 1.46-.094.938 2.155-.476 2.046-.379 2.373.373 1.261.591-.873 1.022-1.012 1.031-.332.028 2.144-1.184 4.327-2.09 3.767-.927-.573-.994-.414-1.385 3.287-.129 1.222-.809 4.272-1.51 6.779-1.221 4.361-1.358 4.485-3.138 2.874-1.77-1.602-1.862-1.558-1.862.888 0 1.415-.273 3.285-.607 4.155-1.046 2.727 3.156 1.867 4.419-.904.943-2.07 1.513-2.337 3.41-1.596 5.746 2.244 7.279 3.574 7.007 6.082l-.272 2.5 1.486-2.5c1.145-1.926 1.494-2.098 1.522-.75.043 2.156 1.372 2.254 3.056.225 1.129-1.36 1.474-1.337 3.183.21 1.484 1.343 2.095 1.45 2.699.472.429-.694 1.414-1.126 2.189-.96.991.213 1.324-.507 1.123-2.429-.157-1.503.378-4.014 1.188-5.58 1.813-3.506 1.786-8.781-.063-12.438-.856-1.691-.989-2.75-.347-2.75.631 0 .782-1.05.38-2.649-.468-1.865-.325-2.44.481-1.941.739.456 1.19-.202 1.271-1.851.121-2.468.426-4.287.808-4.809.1-.137.367-1.825.594-3.75.226-1.925.792-6.517 1.258-10.204.499-3.951.47-7.377-.072-8.344-.504-.902-1.029-2.16-1.164-2.796-.136-.636-.518-1.831-.849-2.656-.331-.825-.736-2.59-.901-3.922-.472-3.824-2.604-3.632-3.342.301M87.29 348c.366 1.402.028 2.005-1.134 2.015-1.434.014-1.455.145-.156.985 1.333.862 1.333.972 0 .991-.87.013-.241.897 1.5 2.107l3 2.085-2.75-.611c-4.169-.925-3.29.801 1.5 2.947 2.922 1.309 3.699 2.018 2.486 2.268-1.667.345-1.661.512.107 3.039 1.03 1.471 1.653 3.299 1.385 4.063-.277.789-.038 1.112.552.747.572-.353 1.793-.353 2.714 0 1.334.512 1.403.814.34 1.488-1.019.646-.918.849.43.861 2.286.02 8.708 4.178 8.724 5.648.006.624 1.005 1.393 2.218 1.711 2.599.679 3.8-.104 1.931-1.26-.966-.597-.764-.948.777-1.351 1.146-.3 2.299-.198 2.561.226.262.424 1.61.647 2.996.495 1.386-.152 2.774.133 3.084.635.31.501-.239.911-1.218.911-1.643 0-1.628.151.191 1.931 1.904 1.863 8.125 1.935 6.979.08-.259-.419 1.332-1.049 3.534-1.402 2.203-.352 4.77-1.533 5.704-2.625.935-1.091 2.082-1.984 2.549-1.984.467 0 1.545-.696 2.396-1.547 1.397-1.397 1.717-1.395 3.284.023 2.041 1.848 11.474 2.596 14.776 1.173 2.325-1.002 3.253-4.248.963-3.369-.708.272-2.616-.049-4.24-.713l-2.953-1.207 2.99-1.836a850.547 850.547 0 006.86-4.274c3.479-2.191 4.026-2.282 5.405-.904 1.379 1.379 1.822 1.226 4.38-1.511 1.565-1.676 2.845-3.161 2.845-3.3 0-.139-3.6-.34-8-.446-4.4-.106-8 .168-8 .609-.001 1.156-10.823 1.397-11.528.257-.324-.525-3.433-.955-6.909-.955-4.088 0-6.714-.477-7.44-1.352-.679-.818-4.327-1.599-9.243-1.978-4.467-.344-8.63-1.041-9.251-1.549-1.299-1.062-10.708-2.112-18.369-2.05-4.343.035-5.138-.224-4.643-1.514.43-1.122-.025-1.557-1.627-1.557-1.731 0-2.107.443-1.7 2m173.742 3.638c-1.358.695-4.624 1.11-7.259.922-2.634-.188-5.067.107-5.407.656-.376.609-.95.47-1.476-.359-.473-.746-.866-.884-.875-.305-.008.578-1.592 1.096-3.519 1.151-3.584.102-13.496 3.233-13.496 4.263 0 .638 45.782.172 47.75-.485.688-.23 1.25-1.127 1.25-1.993 0-.867-.562-1.503-1.25-1.413-4.097.532-8.804-.178-8.155-1.23.443-.715.275-.883-.44-.44-.635.392-1.155.289-1.155-.229 0-1.576-3.351-1.878-5.968-.538m74.218 5.498c-2.337 1.635-4.25 2.732-4.25 2.436 0-.296-1.532.323-3.404 1.374-3.56 1.999-4.828 1.823-3.92-.544.296-.771.013-1.402-.628-1.402s-.888-.45-.548-1c.34-.55.306-1-.075-1-.94 0-5.312 5.138-5.956 7-1.043 3.012-5.162 5.164-6.783 3.544-.796-.797-1.726-1.17-2.067-.83-.34.341-.619.169-.619-.381 0-1.802 1.166-2.22 3.603-1.294 1.514.576 2.397.552 2.397-.064 0-.899-1.431-1.381-3.25-1.093-1.285.203-.822-1.577.75-2.882.825-.685 1.5-.933 1.5-.551s.6.094 1.333-.639c1.533-1.533 1.795-4.81.385-4.81-.522 0-2.134 1.387-3.583 3.082-7.059 8.258-16.523 17.255-16.914 16.081-.32-.96-.952-.826-2.494.526-1.921 1.684-2.021 1.688-1.428.061.424-1.162.145-1.75-.83-1.75-.808 0-1.416.337-1.351.75.387 2.45-.17 3.717-1.034 2.352-.695-1.098-1.573-.615-4.085 2.247-1.76 2.004-3.675 3.351-4.254 2.993-.679-.419-.753-.151-.208.753.721 1.197.596 1.201-.845.033-1.499-1.216-1.694-1.103-1.707 1-.01 1.573-.285 1.948-.816 1.111-.598-.941-1.367-.657-3.039 1.122-1.9 2.023-2.003 2.474-.684 2.98 2.027.778 1.966 2.104-.196 4.266-.962.963-1.647 1.9-1.52 2.082 1.126 1.628 3.713 7.119 3.913 8.31.139.824 1.176 2.246 2.305 3.16 1.129.914 2.066 2.264 2.084 3.001.044 1.874 2.81 5.34 4.261 5.34.664 0 1.347 1.213 1.518 2.695.215 1.86.755 2.525 1.743 2.146 1.104-.424 1.344.201 1.049 2.736-.434 3.721 1.576 6.452 4.049 5.503.881-.338 2.219-.102 2.975.525 1.061.881 1.373.796 1.373-.376 0-.833.675-1.774 1.5-2.091 1.943-.745 1.935.756-.012 2.372-1.033.857-1.199 1.633-.524 2.447 1.006 1.212.722 4.623-.556 6.693-.493.797.068.947 1.86.498 1.598-.401 2.715-.2 2.959.534.26.78 1.047.885 2.333.31 1.938-.868 2.989-1.065 7.151-1.344 2.574-.172 6.289-3.799 6.289-6.14 0-2.144 6.289-10.64 6.782-9.161.558 1.674 2.218 1.414 2.218-.347 0-.825.45-1.5 1-1.5s1-.794 1-1.765c0-3.962 11.732-21.497 20.407-30.503 4.1-4.255 5.148-5.963 4.343-7.078-.528-.732 2.519-3.606 3.307-3.119.457.282 2.072-1.635 3.589-4.261 1.517-2.626 3.02-4.999 3.339-5.274.834-.717.655-3-.235-3h-1.817c-.59 0-.801.842-.47 1.882.478 1.509-.004 1.97-2.433 2.327-1.667.244-3.03.073-3.03-.382s.394-.827.875-.827 1.149-1.368 1.483-3.041c.744-3.72-1.145-7.161-3.519-6.408-1.193.379-1.784-.12-2.014-1.698-.546-3.749-9.048-3.584-14.575.283m-250.368 8.63a5.586 5.586 0 000 1.484c.123.781-3.583 1.194-7.882.877-1.375-.102-2.05.166-1.5.594 1.224.954 3.174 4.015 4.478 7.029.535 1.238 1.442 2.25 2.016 2.25.574 0 3.928 2.885 7.454 6.411 5.214 5.214 6.303 6.848 5.834 8.75-.318 1.286-.201 1.992.258 1.568.798-.736 6.46 7.294 6.46 9.161 0 .493.775 1.193 1.722 1.557 1.313.504 1.417.849.44 1.453-1.316.813 1.157 2.947 5.097 4.397.968.356 1.643 1.222 1.5 1.925-.142.703.416 1.278 1.241 1.278 1.09 0 1.671-1.592 2.126-5.826.344-3.204 1.132-6.332 1.75-6.95 2.239-2.239 1.172-12.724-1.294-12.724-.663 0-2.218-.944-3.457-2.098-1.238-1.154-2.821-2.181-3.516-2.283C106.022 384.386 92 370.663 92 369.343c0-1.154-6.946-4.644-7.118-3.577M136.5 418c-.34.55.084 1.056.941 1.125.857.069 2.122.181 2.809.25.688.069 1.396 1.154 1.574 2.413.286 2.013.011 2.209-2.289 1.631-1.923-.482-2.537-.294-2.324.713.327 1.548-4.472 1.326-5.046-.234-.565-1.533-2.165.097-2.165 2.205 0 1.092.563 1.912 1.25 1.822 3.267-.424 3.841.037 2.7 2.169-.929 1.734-.719 2.552 1.214 4.75 1.285 1.461 2.369 2.764 2.409 2.896.422 1.388 5.468-2.963 6.389-5.511.664-1.837 1.692-3.178 2.285-2.98 1.334.445 1.92 3.751.665 3.751-.502 0-.912.45-.912 1 0 1.981 2.07.946 3-1.5.523-1.375 1.637-2.5 2.475-2.5.839 0 1.539-.562 1.555-1.25.018-.737.428-.57.998.407.928 1.589 3.129 1.609 6.972.061 1.801-.725 2.896-.95 5.367-1.103 1.338-.082 1.722-.668 1.356-2.067-.281-1.074.004-2.163.633-2.421 1.699-.697-4.495-.696-7.095 0-1.231.33-2.022.951-1.756 1.38.265.43-.64.716-2.011.637-1.371-.079-2.493-.706-2.493-1.394-.001-.687-1.126-1.25-2.501-1.25s-2.507.563-2.515 1.25c-.011.846-.317.774-.947-.222-.797-1.262-1.025-1.227-1.589.244-.362.944-1.042 1.48-1.51 1.19-.468-.289-.57-1.26-.225-2.158.405-1.056.231-1.388-.492-.941-.72.445-.979-.031-.727-1.336.246-1.28-.142-2.027-1.052-2.027-.794 0-1.443-.45-1.443-1s-1.098-1-2.441-1c-1.343 0-2.719.45-3.059 1m167.045 31.591c-1.873 1.37-1.866 1.409.264 1.409 1.205 0 2.191.494 2.191 1.098 0 .754-1.892.879-6.026.399-4.103-.476-6.479-.323-7.447.48-.781.649-2.496 1.039-3.811.867-1.337-.175-3.194.491-4.217 1.514-1.769 1.77-1.735 1.82 1.087 1.588 1.603-.131 4.214.29 5.803.936 1.588.646 3.11.952 3.381.681.271-.271 1.31-.056 2.308.479.998.534 9.476.989 18.838 1.011 9.363.022 17.246.4 17.518.841.272.44 1.928.84 3.68.89 1.752.05 4.817.367 6.813.704 1.995.337 4.74.168 6.1-.374l2.473-.987-2.417-.064c-1.329-.034-2.176-.303-1.883-.596.293-.293 2.489-.221 4.88.162 3.426.548 3.931.858 2.384 1.463-1.673.654-1.557.778.786.838 2.643.067 2.893-.339 2.73-4.44-.011-.281.664-1.834 1.5-3.451 2.521-4.876 2.065-7.114-1.23-6.034-7.622 2.498-20.81 3.568-23.858 1.937-2.368-1.267-5.915-.598-4.967.937 1.357 2.195-8.12 2.752-15.232.896l-4.693-1.224 3.5-.644 3.5-.644-4.316-.131c-2.373-.073-5.08-.541-6.014-1.041-1.138-.609-2.335-.444-3.625.5m184.689 21.637c-1.604 4.438-1.557 5.772.204 5.772.804 0 1.374.851 1.292 1.931-.08 1.062-.502 1.71-.938 1.441-.435-.27-.792-.176-.792.209 0 1.301 3.487 3.355 5.75 3.387 1.238.018 2.25.611 2.25 1.318 0 .707.9 1.285 2 1.285 1.813 0 2-.666 2-7.13 0-8.098-1.31-10.13-7.142-11.077-3.138-.509-3.481-.296-4.624 2.864m-190.358 106.86l-2.376.619 2.5.506c1.375.278-.087.3-3.25.048-3.681-.293-5.75-.075-5.75.606 0 1.376 3.528 3.272 4.423 2.377.377-.377.999-.206 1.381.38.9 1.38 8.196 2.548 8.196 1.313 0-1.425 1.673-1.121 3.414.62 1.721 1.721 12.082 3.054 11.075 1.425-.334-.54-.13-.982.452-.982.582 0 1.059.588 1.059 1.307 0 .894 1.571 1.324 4.972 1.359 4.505.046 4.942-.147 4.651-2.058-.176-1.159-1.176-2.245-2.222-2.412-1.587-.253-1.653-.132-.401.735 2.037 1.41-1.822 1.477-4 .069-1-.646-1.083-.974-.25-.985 3.591-.044.302-1.806-7-3.751-8.064-2.148-12.074-2.428-16.874-1.176" fill="#d3d3d3" fill-rule="evenodd"/></svg>