<svg xmlns="http://www.w3.org/2000/svg" width="500" height="333"><path d="M0 166.502v166.502l250.25-.252 250.25-.252.253-166.25L501.006 0H0v166.502m.488.498c0 91.575.118 129.038.262 83.25.144-45.787.144-120.712 0-166.5C.606 37.963.488 75.425.488 167M101.354 48.787c-3.051.462-4.937 2.956-6.655 8.803-.823 2.799-4.242 11.649-7.597 19.667L81 91.836l.016 10.832c.009 5.958.454 16.007.989 22.332.535 6.325 1.441 18.925 2.013 28 .572 9.075 1.68 22.8 2.462 30.5l2.54 25c1.625 15.97 3.575 24.692 5.959 26.657 1.522 1.253 4.266 1.687 11.266 1.782 5.09.069 10.605.321 12.255.561 1.65.24 13.82.99 27.045 1.666l24.046 1.23-.046 9.552c-.071 15.059 1.437 16.69 21.812 23.588 6.128 2.075 12.729 4.56 14.666 5.523 1.938.963 5.643 2.068 8.233 2.457 6.71 1.006 6.764.78 8.753-36.684.545-10.268 1.264-19.38 1.598-20.25 1.008-2.628 3.103-1.81 2.994 1.168-.064 1.733.731 3.424 2.149 4.573 1.237 1.002 2.25 2.52 2.25 3.372 0 1.102.361 1.263 1.25.559.688-.545 2.747-1.021 4.577-1.058 4.077-.082 7.664-2.317 9.557-5.955 1.611-3.097 5.033-6.433 8.357-8.147 2.054-1.058 2.224-.941 2.03 1.398-.122 1.473-.704 2.364-1.376 2.106-1.592-.611-5.395 2.18-5.395 3.959 0 2.094 1.755 1.768 3-.557.589-1.1 1.639-2 2.335-2 .995 0 .888 3.029-.502 14.25-2.809 22.676-2.207 34.357 2.016 39.106 3.539 3.981 12.694 7.019 33.651 11.169 4.4.872 11.665 2.685 16.145 4.03 9.847 2.956 11.347 3 16.297.475 4.254-2.171 9.217-10.887 10.545-18.52.381-2.194 2.228-9.052 4.103-15.239 1.876-6.186 3.41-12.443 3.41-13.902 0-4.468 4.056-16.722 6.411-19.369 2.97-3.337 4.119-5.288 12.081-20.5 3.742-7.15 6.964-13.189 7.16-13.421.196-.232.069 1.681-.284 4.25-.449 3.28-.289 4.671.538 4.671 1.151 0 2.415.861 6.009 4.094 2.03 1.825 9.085 3.256 9.085 1.843 0-.515.9-.937 2-.937s2-.45 2-1 .472-1 1.048-1c.576 0 2.124-1.238 3.439-2.75 1.967-2.262 2.713-2.553 4.202-1.643 3.157 1.931 2.523 3.83-3.15 9.434-6.207 6.131-6.577 6.959-3.104 6.959 5.469 0 11.12-4.091 12.124-8.778.321-1.497 1.27-4.966 2.11-7.708 1.873-6.119 3.258-14.54 2.651-16.121-.547-1.428-3.687-.698-8.037 1.868-3.336 1.968-5.283 1.666-5.283-.82 0-1.563-1.207-1.76-4.835-.789-1.685.452-1.973.849-1.035 1.429 1.356.837 1.548 8.013.27 10.081-1.01 1.634-3.314-1.774-2.725-4.028.255-.976-.248-2.364-1.118-3.087-1.178-.978-1.302-1.65-.483-2.636 3.073-3.703-7.857-4.892-14.09-1.533-3.448 1.859-3.551 1.855-9.984-.403-3.575-1.255-10.1-3.022-14.5-3.926-4.4-.905-9.583-2.061-11.518-2.568-1.936-.507-6.809-1.389-10.831-1.96-10.533-1.493-11.79-2.315-9.172-5.991 1.82-2.557 1.878-3.03.531-4.377-2.108-2.108-1.923-2.834 1.431-5.604 1.618-1.337 2.673-2.864 2.346-3.394-.328-.53-.082-.646.547-.258.736.455.934.163.557-.819-.694-1.809 1.784-4.578 4.097-4.578.896 0 1.35-.453 1.008-1.007-.805-1.302 2.497-2.596 3.355-1.316.357.533 1.459 1.268 2.448 1.634 1.672.617 1.617.977-.776 5.06l-2.577 4.396 3.777.778c3.447.709 6.733 1.16 10.027 1.374.688.044 1.25.756 1.25 1.581s.45 1.5 1 1.5.888-.562.75-1.25c-.381-1.907 4.723-2.074 8.213-.269 3.744 1.936 4.927 1.396 4.286-1.957-.312-1.634-1.146-2.524-2.366-2.524-2.684 0-2.342-1.976.367-2.116 1.774-.091 1.869-.215.447-.584-2.34-.606-.36-3.3 2.425-3.3 1.033 0 1.878-.45 1.878-1s.9-1 2-1 2-.637 2-1.417c0-.779.562-1.645 1.25-1.924.941-.381.879-.769-.25-1.568-1.294-.915-1.26-1.062.25-1.076.962-.008 1.75.66 1.75 1.485 0 .848.895 1.5 2.059 1.5 1.132 0 1.781.45 1.441 1-.345.558.403.993 1.691.985 1.858-.013 2.016-.205.809-.985-1.282-.828-1.246-.972.25-.985.962-.008 1.75.373 1.75.846 0 .474 1.069.657 2.375.408 2.006-.384 2.375-.052 2.375 2.138 0 1.643-.552 2.593-1.507 2.593-1.18 0-1.39.866-.97 4 .295 2.2.22 4-.167 4-.388 0-.525 1.534-.307 3.408.287 2.454-.303 4.44-2.106 7.094-2.503 3.683-2.504 3.687-.509 5.682 1.994 1.994 1.997 1.994 4.417-.278 1.811-1.702 2.103-2.48 1.16-3.09-1.928-1.247 1.099-2.893 4.739-2.577 1.882.164 3.624-.415 4.674-1.555.921-.998 2.046-1.898 2.5-2 .454-.101.713-.522.576-.934-.138-.412.186-.75.719-.75 1.238 0 .213-2.819-2.139-5.885-2.484-3.237-2.305-4.115.837-4.115 1.466 0 2.37.296 2.008.658-.362.362-.115 1.312.548 2.111.663.799 1.354 2.64 1.536 4.092.182 1.451 1.099 3.221 2.036 3.932.938.711 1.705 1.715 1.705 2.231 0 .516 1.012 1.647 2.25 2.513 1.504 1.054 2.25 1.185 2.25.397 0-.89.339-.898 1.383-.031 1.071.889 1.523.785 2-.459 1.15-2.998.627-4.444-1.633-4.512-2.243-.067-2.244-.07-.142-1.089 4.036-1.956 6.465-22.709 3.918-33.472-.302-1.279.336-3.198 1.6-4.804 2.188-2.782 2.093-7.394-.212-10.17-.59-.712-1.224-3.763-1.408-6.78-.452-7.407-4.835-17.096-8.401-18.574-4.274-1.77-101.258-.993-103.452.829-1.917 1.592-2.202 7.579-.563 11.813 1.972 5.093 1.236 30.817-1.69 59.065l-.544 5.25h-3.806c-4.382 0-6.351 2.221-18.734 21.137-6.863 10.484-6.995 10.614-9.152 8.987-2.984-2.251-3.447-4.821-3.203-17.779.127-6.686-.234-11.987-.901-13.232-1.602-2.994-2.943-22.87-4.46-66.113-.253-7.229-1.141-15.03-2.104-18.5-.917-3.3-2.545-9.15-3.62-13-1.074-3.85-2.566-9.639-3.315-12.864-2.323-10.011 4.614-9.133-72.347-9.155-37.243-.01-68.68.128-69.86.306M116 121.652c0 1.534.565 2.181 1.82 2.087 1.001-.076 3.567.691 5.703 1.705 2.639 1.252 4.002 1.481 4.258.714.26-.781 1.317-.642 3.436.454 1.831.947 4.211 1.352 5.927 1.009 6.12-1.224 9.846 3.174 6.464 7.629-1.445 1.904-3.608 2.353-3.608.75 0-.55-.45-1-1-1-1.102 0-1.345 3.936-.396 6.411.409 1.065 1.345 1.389 2.893 1.001 1.269-.319 3.713.162 5.488 1.08 3.927 2.031 4.891 1.384 2.098-1.409-2.21-2.21-2.721-4.083-1.114-4.083.532 0 .707-.681.388-1.513-.32-.832-.084-2.111.522-2.842.607-.731.783-1.65.391-2.042-.392-.392 1.299-.616 3.758-.497 2.46.119 5.2-.107 6.09-.501 2.039-.904 5.271 4.241 6.179 9.837.348 2.143 1.198 4.246 1.889 4.673 2.255 1.394.215 1.921-3.041.786-1.749-.61-4.297-.829-5.663-.486-3.164.794-3.378 3.479-.229 2.877 3.429-.656 7.671 1.378 8.74 4.19.527 1.385 1.382 2.518 1.901 2.518.518 0 1.916 1.575 3.106 3.5s2.801 3.5 3.582 3.5c2.251 0 1.666 1.222-2.599 5.426-4.446 4.382-4.938 6.136-1.984 7.074 1.637.519 1.809.991.948 2.598-1.041 1.946-1.078 1.945-3.929-.085-1.773-1.263-3.119-1.659-3.507-1.031-.346.56-.185 1.018.359 1.018.543 0 1.712.725 2.598 1.611 1.481 1.481 1.467 1.72-.179 2.968-1.432 1.087-1.49 1.367-.289 1.405 3.103.097 4.287 1.611 3.058 3.907-1.189 2.223-5.972 2.516-9.136.561-1.848-1.142-10.392-.806-12.842.505-1.072.574-3.358 1.043-5.082 1.043-2.784 0-3.057-.251-2.453-2.25.555-1.836.438-2.02-.633-1-1.741 1.659-2.912 1.582-2.912-.191 0-.793-.526-1.766-1.17-2.164-.795-.492-.957-.17-.506 1.006.537 1.401.266 1.604-1.429 1.066-1.796-.57-1.995-.357-1.404 1.504.53 1.67.218 2.292-1.355 2.704-1.123.293-2.715 1.56-3.537 2.814-.856 1.307-2.903 2.518-4.796 2.838-1.817.307-5.103.982-7.303 1.5l-4 .943 4.5.194c2.475.107 3.825.442 3 .745-.825.304-2.313 1.261-3.306 2.127-1.466 1.279-2.172 1.347-3.75.361-1.731-1.081-1.944-.94-1.944 1.295 0 1.379.413 2.508.918 2.508.505 0 1.649.28 2.541.623.893.342 1.492.23 1.332-.25-.16-.48.159-1.046.709-1.257.55-.212 1.565-1.192 2.257-2.179.849-1.213 3.682-2.185 8.75-3.003 4.121-.664 7.493-1.597 7.493-2.071 0-.475-.477-.863-1.059-.863-1.764 0-.092-1.778 3.233-3.437 5.079-2.534 8.262-1.565 3.87 1.178-2.578 1.61-4.56 8.851-3.193 11.669.849 1.75 1.025 1.355 1.081-2.437.087-5.801 2.252-8.973 6.125-8.973 3.664 0 4.028 2.69.484 3.579-3.076.772-5.572 3.421-3.222 3.421.859 0 1.771-.338 2.024-.75.254-.412 3.154-.6 6.444-.417 4.947.275 5.926.622 5.658 2-1.338 6.872-1.404 6.989-3.691 6.498l-2.254-.483 2.379 2.09c2.306 2.027 2.442 3.219 1.096 9.562-.116.55-.159 3.545-.093 6.656l.118 5.656 2.492-1.156c1.371-.636 2.496-1.52 2.5-1.965.004-.445-.391-.562-.879-.261-.487.301-1.45-.132-2.14-.962-1.503-1.812-.587-13.471 1.143-14.54.608-.375 1.176-2.08 1.262-3.787.086-1.707.873-3.82 1.749-4.697 1.458-1.458 1.649-1.246 2.245 2.481.416 2.604 1.178 4.075 2.108 4.075.838 0 1.229-.595.92-1.399-.712-1.857.73-2.641 3.517-1.912 2.258.59 2.256.598-.577 2.862-1.562 1.248-2.601 2.511-2.31 2.807.684.691 6.97-4.206 6.97-5.43 0-.511-.627-.928-1.393-.928-2.419 0-2.597-2.777-.275-4.298 1.217-.797 4.227-1.789 6.69-2.203 2.463-.415 5.448-1.516 6.633-2.446 2.088-1.639 2.096-1.727.263-2.872-2.194-1.37-5.287-1.587-4.501-.315.757 1.225-2.312 3.648-6.329 4.997-4.547 1.527-5.235.524-1.716-2.505l2.872-2.472-2.767.307c-1.658.184-2.957-.236-3.24-1.048-.35-1 .114-1.168 1.77-.643 1.527.485 2.025.359 1.559-.395-.443-.717.393-1.107 2.375-1.107 2.186 0 3.104-.499 3.217-1.75.315-3.479-.242-5.717-1.614-6.485-1.056-.591-1.179-1.552-.501-3.917.495-1.723.692-3.468.439-3.877-.953-1.542 2.482-3.138 5.382-2.501 1.703.374 3.222.201 3.6-.411.36-.583-.048-1.059-.905-1.059-2.002 0-1.972-.886.11-3.187 1.562-1.726 1.555-1.929-.111-3.147-1.636-1.197-1.65-1.431-.169-2.912.886-.886 1.611-2.111 1.611-2.722 0-.61.98-.197 2.177.918 2.952 2.751 3.544 1.782.937-1.532-2.475-3.147-2.733-5.418-.614-5.418.825 0 1.5-.848 1.5-1.883 0-1.043.893-2.117 2-2.407 1.1-.287 2-1.059 2-1.715 0-.744-1.399-.367-3.718 1.001-2.773 1.636-3.828 1.866-4.148.906-.236-.709-1.589-2.439-3.007-3.845-2.249-2.231-2.622-2.334-2.926-.807-.191.963-.976 1.75-1.743 1.75-.767 0-1.164.603-.881 1.34.627 1.635-2.085 4.082-3.533 3.187-.574-.355-1.044-2.01-1.044-3.678 0-1.669-.913-4.194-2.029-5.613-3.142-3.994-1.013-4.524 7.105-1.769 4.083 1.385 9.126 2.522 11.206 2.526 2.984.006 3.973.482 4.687 2.257.742 1.847.916 1.921.968.417.073-2.121 1.948-1.797 3.458.598.796 1.261.521 2.196-1.178 4.005-3.237 3.444-2.83 6.315 1.271 8.971 3.808 2.467 4.014 2.952 2.477 5.825-.665 1.242-.682 1.934-.047 1.934 1.008 0 3.066-6.142 3.076-9.182.007-1.998 5.554-6.216 6.999-5.322.554.342 1.007 1.72 1.007 3.063 0 1.343.408 2.441.906 2.441.499 0 .671-.9.384-2-.423-1.615-.031-2 2.034-2 3.188 0 4.344-1.592 1.665-2.293-2.951-.771-2.437-2.255 1.851-5.337 3.62-2.603 3.764-2.904 2.525-5.293-1.189-2.291-1.101-2.649.91-3.734 1.701-.917 2.314-.922 2.602-.021.208.648 1.317 2.21 2.464 3.47 1.744 1.915 1.887 2.613.873 4.237-.668 1.069-1.214 2.78-1.214 3.802 0 1.023-.9 2.674-2 3.669-1.1.995-2 2.775-2 3.955 0 1.18-.54 2.685-1.2 3.345-.933.933-.928 1.2.025 1.2.673 0 1.629-1.064 2.123-2.364 1.393-3.662 7.039-5.169 7.067-1.886.018 2.046 2.303 8.901 3.3 9.898.377.377.685-.717.685-2.432 0-1.878.667-3.49 1.678-4.056 1.571-.879 1.571-1.22 0-5.333-.923-2.417-1.678-6.043-1.678-8.059 0-2.529-.779-4.506-2.516-6.379-1.383-1.493-2.302-3.429-2.042-4.302.525-1.76-2.611-6.087-4.411-6.087-.632 0-.871-.45-.531-1 .784-1.269-.787-1.311-2.05-.055-.522.519-2.514 1.218-4.426 1.554-4.178.732-6.763 3.248-6.625 6.448.145 3.38-1.657 3.522-4.8.379-2.889-2.888-4.549-2.168-4.584 1.99-.008.998-.488 2.7-1.067 3.781-1.046 1.954-1.068 1.954-3.562-.008-1.707-1.343-4.007-1.963-7.197-1.942-4.237.029-14.488-3.122-16.487-5.066-.439-.427-.249-1.981.422-3.454 1.117-2.452.937-2.969-2.148-6.152-3.963-4.089-7.209-4.45-12.41-1.381l-3.548 2.093-4.325-2.093c-5.239-2.536-10.501-2.758-11.376-.479-.715 1.866-7.735 1.356-11.607-.842-1.216-.69-2.885-1.304-3.71-1.366-.825-.061-2.287-.178-3.25-.259-.963-.081-1.75-.727-1.75-1.434s-.9-1.285-2-1.285c-1.4 0-2 .666-2 2.223m27.25 48.344c-1.31 1.063-2.25 2.933-2.25 4.48 0 1.461-.466 3.526-1.035 4.59-.714 1.333-.714 1.934 0 1.934.569 0 1.035-.502 1.035-1.115 0-.669 1.041-.433 2.602.59 1.431.938 3.456 1.482 4.5 1.209 1.044-.273 1.898-.12 1.898.34s-1.012 1.032-2.25 1.27c-1.971.38-1.916.451.441.57 1.48.075 2.953-.288 3.274-.807.346-.56 2.346-.29 4.915.662 4.246 1.574 7.62 1.297 7.62-.625 0-.532-1.463-.739-3.25-.46-2.156.338-3.923-.044-5.25-1.133-1.917-1.573-1.84-1.62 1.831-1.121 3.265.444 3.654.306 2.628-.93-.662-.797-2.386-1.474-3.831-1.502l-2.628-.053 2.25-1.569c1.238-.864 2.25-2.02 2.25-2.57 0-.561-.657-.456-1.493.239-1.673 1.387-7.897-.902-8.848-3.254-.275-.682-.537-.003-.58 1.509-.043 1.512.315 2.75.796 2.75.481 0 .875 1.125.875 2.5 0 1.672-.555 2.5-1.675 2.5-3.997 0-5.512-5.755-2.414-9.177 2.275-2.515 1.344-3.06-1.411-.827" fill="#d3d3d3" fill-rule="evenodd"/></svg>