<svg xmlns="http://www.w3.org/2000/svg" width="500" height="889"><path d="M211.479 123.245c1.023 19.337 3.588 87.185 6.53 172.755 2.075 60.336 2.686 71.694 3.899 72.443.407.252 14.881-.197 32.166-.997 17.284-.8 54.775-2.325 83.314-3.388 28.538-1.063 52.242-2.299 52.676-2.746.434-.446.934-55.967 1.112-123.378l.324-122.567-54.5-.199c-29.975-.11-60.125-.42-67-.69-6.875-.27-22.977-.715-35.782-.989l-23.282-.499.543 10.255m56.207-6.458c-3.181.217-4.676.732-4.407 1.52.223.656-.486 2.915-1.577 5.019-2.121 4.092-2.341 5.903-2.864 23.618l-.338 11.443 2.5.669c2.08.556 2.217.79.813 1.389-.928.396-1.442 1.359-1.142 2.14.3.781-.038 4.353-.75 7.937-1.725 8.678 1.155 23.18 6.23 31.363 2.668 4.303-1.086 5.011-11.651 2.199-3.85-1.025-7.053-1.801-7.118-1.724-.065.077.339 3.127.898 6.778l1.017 6.639 3.988.534c5.93.796 8.489-.487 7.974-3.997-.383-2.615-.071-2.951 3.661-3.947 3.702-.988 4.08-.917 4.08.772 0 1.024-.675 1.861-1.5 1.861-.839 0-1.5.891-1.5 2.021 0 2.161 1.16 2.781 10 5.345 5.109 1.481 5.635 1.924 7.395 6.226 1.386 3.387 2.751 4.989 5.08 5.962 1.751.732 3.766 2.031 4.477 2.888.711.857 1.661 1.558 2.112 1.558 1.735 0 13.826-9.618 14.866-11.825 2.014-4.275-1.194-5.751-4.517-2.079-4.929 5.447-13.988 5.277-15.1-.283-.31-1.547-1.069-2.882-1.688-2.965a85.57 85.57 0 00-2.212-.266c-2.698-.282-4.701-3.6-3.247-5.376 2.306-2.816 5.834-9.862 5.834-11.651 0-.92.45-1.395 1-1.055.614.38 1-1.262 1-4.259 0-6.287 2.54-14.877 5.596-18.924 1.322-1.751 2.404-3.81 2.404-4.576 0-.766 1.124-2.449 2.499-3.74 2.341-2.199 2.394-2.462.845-4.174-2.139-2.363-3.948-2.312-6.076.173-2.212 2.583-6.288 2.638-6.954.092-.274-1.049-1.47-2.197-2.656-2.551l-2.158-.643 2.25-.917c2.52-1.026 2.765-2.15 1.135-5.196-1.046-1.955-.907-2.052 2.25-1.568 4.419.677 5.761.102 5.157-2.209-.301-1.15.428-2.839 1.856-4.297 3.187-3.254 6.101-8.499 5.375-9.674-.326-.528-2.185-1.258-4.13-1.623-2.402-.451-3.815-1.395-4.404-2.942-.476-1.253-1.343-2.573-1.927-2.934-1.136-.702-1.46-4.806-.459-5.807.331-.332 1.744-.169 3.139.361 3.971 1.51 3.742.367-.439-2.185-2.092-1.277-3.948-2.664-4.126-3.083-.605-1.426-13.844-2.625-22.491-2.037m128.239 33.963c-.042 15.262-.217 38.55-.389 51.75-.172 13.2-.391 51.225-.487 84.5-.096 33.275-.426 64.387-.732 69.138l-.557 8.637-11.13.639c-6.122.352-22.38 1.08-36.13 1.619-50.557 1.98-74.131 2.997-79.5 3.431-3.025.245-15.076.756-26.781 1.136-11.704.38-21.486 1.023-21.737 1.429-.251.407.876 1.291 2.504 1.965 3.194 1.323 15.469 1.439 78.514.739 21.047-.234 36.501-.018 37.206.519.664.506 1.667.636 2.23.288.563-.348 7.445-.836 15.294-1.084 7.848-.248 16.407-.693 19.02-.988 2.951-.334 4.75-.145 4.75.498 0 .569 1.575 1.034 3.5 1.034 2.321 0 3.5-.468 3.5-1.39 0-.78 1.944-1.963 4.436-2.699 2.439-.72 4.246-1.617 4.014-1.992-.232-.376 1.034-1.401 2.814-2.278 3.094-1.526 3.126-1.599.736-1.686-2.425-.088-2.436-.121-.386-1.115 2.656-1.287 2.914-8.421 3.451-95.34.207-33.55.43-64.375.496-68.5.067-4.125.15-14.025.185-22s.114-15.625.175-17c1.151-25.726.885-31.336-1.667-35.192-1.386-2.094-2.685-3.808-2.887-3.808-.202 0-.401 12.488-.442 27.75m-167.273 49.367c-5.828.896-6.583 1.482-4.176 3.242 1.006.736 1.536 1.812 1.178 2.392-.366.592.772 1.612 2.597 2.327l3.249 1.272-2.81.397c-1.546.219-3.346-.023-4-.537-.655-.514-2.385-1.219-3.845-1.567l-2.655-.633.389 7.745c.213 4.26.395 8.308.405 8.995.031 2.374 2.687 1.234 7.571-3.25 5.405-4.962 5.328-4.938 10.789-3.422 4.953 1.376 5.457.746 1.982-2.477-1.543-1.43-2.303-2.601-1.688-2.601.614 0 1.677.675 2.362 1.5s1.752 1.486 2.372 1.468c.621-.017-.135-1.142-1.678-2.5-1.543-1.357-2.33-2.468-1.75-2.468 1.437 0 1.338-3.318-.144-4.8-.66-.66-2.01-1.2-3-1.2-.99 0-1.8-.45-1.8-1s.45-1 1-1c1.431 0 1.237-1.706-.25-2.207-.687-.232-3.431-.086-6.098.324m120.024 100.709c-.328 3.134-1.288 8.401-2.134 11.704-1.505 5.876-2.997 15.327-4.199 26.612-.669 6.278-1.089 5.855 7.737 7.787 2.519.552 5.331 1.292 6.25 1.644 1.234.474 1.67.091 1.67-1.466 0-1.159.505-2.107 1.122-2.107.75 0 .687-.525-.189-1.581-1.06-1.276-1.071-1.969-.058-3.591.755-1.208 1.243-5.344 1.225-10.362-.027-7.03.24-8.44 1.684-8.899 1.886-.601 2.977-7.979 1.33-8.996-.508-.314-.676-2.417-.374-4.672.386-2.873.141-4.354-.817-4.946-1.104-.683-1.035-.973.355-1.506.947-.364 1.722-1.279 1.722-2.035 0-1.496-1.808-2.02-9.614-2.785l-5.114-.501-.596 5.7M222 334.38c0 1.288.274 4.343.61 6.791.592 4.322.7 4.437 3.747 3.99 2.821-.414 2.999-.295 1.767 1.189-1.176 1.418-1.141 1.65.254 1.65 2.283 0 2.015 1.611-.568 3.42-3.052 2.138-1.4 3.261 2.478 1.684 1.767-.719 4.224-1.539 5.462-1.822 3.312-.758 3.132-4.684-.185-4.05-1.34.256-3.027.091-3.75-.368-1.043-.661-1.005-.851.185-.919.995-.057.827-.36-.5-.901-1.791-.73-1.687-.885 1-1.486 1.65-.369 5.792-1.32 9.206-2.114 7.905-1.84 11.435-1.901 9.294-.162-2.569 2.086-2.173 4.214 1.006 5.414 1.648.622 2.994.72 2.994.217 0-.502.659-.913 1.465-.913 1.264 0 4.279-3.883 3.366-4.336-.182-.09-1.362-.742-2.622-1.448-1.26-.706-2.722-1.017-3.25-.691-.527.326-.959.2-.959-.281 0-1.381 6.768-4.244 10.034-4.244 3.223 0 4.041-1.574 1.216-2.34-.962-.261-10.863-.507-22-.547L222 332.04v2.34m-32.009 133.266c-1.771.745-4.324 1.354-5.672 1.354-3.197 0-6.319 1.707-6.319 3.456 0 .762-1.324 1.676-2.942 2.031-1.618.356-4.722 1.936-6.897 3.511-7.965 5.77-8.327 10.811-4.97 69.207l1.191 20.704 4.059-.451c2.232-.248 9.901-.933 17.042-1.521 7.141-.589 13.112-1.199 13.269-1.355.157-.157-1.104-3.549-2.801-7.537-1.697-3.989-2.824-7.935-2.503-8.769.867-2.262 5.106 6.263 5.966 12 .66 4.4.91 4.724 3.647 4.724 1.617 0 2.939-.499 2.939-1.108 0-.681.958-.868 2.482-.486 1.365.343 8.453.166 15.75-.394a7156.87 7156.87 0 0127.268-2.024c20.01-1.441 18.5-.702 18.5-9.056v-7.03l4.25-1.929c2.337-1.061 5.734-1.939 7.548-1.951 2.676-.018 3.527-.564 4.507-2.895 1.019-2.425 1.412-2.656 2.511-1.478.717.767 1.687 1.158 2.156.868 1.043-.644.214-6.562-1.152-8.223-1.358-1.651-.157-3.278 2.489-3.373 2.635-.095 1.492-.54-3.559-1.384-3.513-.588-3.758-.862-3.882-4.332l-.131-3.705-.63 3.5c-.514 2.863-.871 1.679-1.956-6.5-4.245-31.99-6.491-40.074-11.911-42.875-6.828-3.528-11.015-3.874-31.73-2.623-18.626 1.125-23.553 2.117-20.35 4.097.58.358.763 1.57.406 2.692-.356 1.122-.179 2.33.393 2.684.573.354 1.041 1.093 1.041 1.643s-.419.741-.931.425c-.512-.317-1.213-.118-1.559.441-.345.559-.151 1.016.431 1.016s1.059.9 1.059 2-.43 2-.955 2c-.885 0-1.616-2.89-2.275-9-.189-1.752-.794-2.412-2.02-2.206-1.038.174-1.75-.335-1.75-1.25 0-.849.563-1.558 1.25-1.574.688-.017.453-.495-.521-1.062-.974-.567-1.48-1.501-1.125-2.076.429-.694-.406-.815-2.479-.359-1.941.426-3.125.291-3.125-.357 0-1.504-12.126-1.103-16.009.53M487 522.989c-3.575.371-17.3 1.657-30.5 2.858-13.2 1.2-25.919 2.626-28.264 3.168-2.346.542-8.083.985-12.75.985s-8.486.396-8.486.881c0 .484-4.828 1.209-10.73 1.611-8.366.571-11.066 1.119-12.255 2.491-.839.967-3.436 2.081-5.77 2.476-4.394.742-5.543 2.055-2.495 2.852 1.667.435 1.667.463 0 .573-2.432.161-2.228 3.758.25 4.406 1.1.287 2 1.015 2 1.616 0 .602-.9 1.994-2 3.094-1.556 1.556-1.667 2-.5 2 .825 0 1.5.675 1.5 1.5s-.627 1.5-1.393 1.5c-1.166 0-2.194 1.325-3.104 4-1.094 3.214-2.64 5.995-3.707 6.669-.723.457-2.435 2.519-3.805 4.583-1.37 2.063-3.279 4.006-4.241 4.317-.962.311-1.75 1.155-1.75 1.876 0 .721-.646 1.846-1.435 2.501-3.667 3.044-5.351 8.41-4.279 13.642 1.193 5.822.589 9.097-2.287 12.413-3.697 4.263-2.807 4.564 23.501 7.974 4.4.57 9.575 1.242 11.5 1.493 1.925.251 4.813.473 6.417.494 8.872.115-6.458 2.083-39.34 5.05a3712.87 3712.87 0 00-21 1.971c-5.817.567-15.527 1.5-21.577 2.073-6.05.574-14.825 1.451-19.5 1.949-4.675.499-12.1 1.172-16.5 1.497-4.4.324-11.375.993-15.5 1.487-4.125.493-12.675 1.375-19 1.96-13.996 1.293-39.114 3.743-52 5.071-5.225.539-16.925 1.661-26 2.493-9.075.832-18.3 1.765-20.5 2.072-8.115 1.134-31.267 3.494-39.981 4.076-4.939.33-10.789 1.172-13 1.87l-4.019 1.271 3.5.246c1.925.135 6.425.155 10 .044 6.881-.212 13.863-.821 58.5-5.103 10.14-.973 28.164-2.618 54.5-4.976 5.775-.516 15.225-1.412 21-1.989 5.775-.577 18.375-1.747 28-2.599 9.625-.853 22-1.953 27.5-2.444 5.5-.492 15.175-1.351 21.5-1.91 6.325-.558 16.225-1.45 22-1.981 5.775-.532 21.975-1.9 36-3.041 14.025-1.142 29.775-2.5 35-3.019 22.303-2.215 45.93-3.333 47.251-2.236.839.695 1.848.755 2.783.164 1.142-.722.913-.96-1.034-1.074-1.375-.081.533-.5 4.239-.932 3.707-.431 7.982-.411 9.5.046 2.278.685 1.712.873-3.239 1.076-3.915.161-4.847.388-2.682.655 3.478.428 8.59 4.271 5.682 4.271-.825 0-1.5.392-1.5.871 0 1.005 18.588 2.73 24.426 2.266 2.159-.171 5.872-.02 8.25.337l4.324.649v7.938c0 6.891-.231 7.94-1.75 7.947-.962.004-5.575.448-10.25.987-4.675.539-12.091 1.249-16.481 1.577-4.39.327-8.252.763-8.582.967-.33.204-4.389.64-9.019.968-4.63.328-9.768.793-11.418 1.033-3.066.447-14.656 1.548-36 3.42-21.219 1.86-32.5 3.314-32.5 4.188 0 .468-.477.852-1.059.852s-.754-.493-.382-1.096c.424-.686-.021-.945-1.191-.691-1.027.223-1.755.942-1.618 1.596.138.655-.425 1.191-1.25 1.191s-1.5-.45-1.5-1-1.377-1-3.059-1c-1.682 0-2.851.337-2.596.75.254.413-4.3.858-10.122.99s-11.481.525-12.577.872c-3.278 1.041 2.051 3.423 6.354 2.84 2.709-.366 3.048-.261 1.5.467-1.1.517-1.55 1.017-1 1.11.55.094-.125.505-1.5.914-1.375.409-3.258.364-4.184-.1-2.36-1.181-7.071-1.064-6.316.157.352.569-.504 1-1.985 1-2.654 0-3.272-2.577-1.015-4.235.55-.404-1.345-.741-4.211-.75-6.928-.02-25.724 2.032-26.037 2.843-.136.353-3.286.488-7 .3-3.713-.188-6.489-.075-6.168.251.321.326 2.571.655 5 .732 2.429.077 4.866.484 5.416.904.55.42 2.125.932 3.5 1.138 2.49.373 2.487.381-.684 2.087-4.121 2.217-40.812 3.717-40.119 1.64.457-1.373 1.747-1.707 9.916-2.57 3.657-.386 5.853-.204 6.303.523.467.756 1.38.474 2.825-.873 1.175-1.095 3.026-1.99 4.114-1.99s1.753-.226 1.477-.502c-.276-.276-6.989.193-14.917 1.041-7.928.849-18.352 1.812-23.165 2.141-4.813.328-8.75.929-8.75 1.335 0 .405-3.263.83-7.25.944-3.988.113-8.375.356-9.75.54-1.375.184-4.75.431-7.5.549-4.687.202-4.781.256-1.5.859l3.5.644-4.693 1.224c-2.581.674-6.068 1.225-7.75 1.225-1.681 0-3.057.405-3.057.899 0 .495-1.912 1.101-4.25 1.347-2.337.247-8.525 1.573-13.75 2.949-5.225 1.375-10.4 2.533-11.5 2.573-1.1.04-6.725.75-12.5 1.579-5.775.828-12.788 1.796-15.583 2.15-3.465.44-5.084 1.104-5.084 2.088 0 1.085.89 1.315 3.584.928 1.971-.284 2.908-.223 2.083.135-.825.359-1.725.96-2 1.336-.833 1.141-13 3.859-13 2.904 0-.488-.787-.918-1.75-.956-1.283-.049-1.082-.376.75-1.222 1.375-.635 2.787-1.562 3.138-2.06.351-.499 1.048-.653 1.548-.344 1.129.698 3.989-.964 3.133-1.821-.343-.342-4.268-.09-8.721.561-6.715.982-8.098 1.493-8.098 2.996 0 .996.787 1.99 1.75 2.207 1.11.252.297.82-2.22 1.554-2.593.756-4.31.817-4.95.177-1.227-1.227-2.891-1.293-2.145-.085 1.031 1.668-2.713 2.164-4.453.589-1.577-1.428-1.771-1.398-2.225.338-.379 1.449-1.304 1.859-3.877 1.717-1.859-.102-5.405.405-7.88 1.127-2.475.722-8.242 1.317-12.816 1.323-4.573.006-9.259.516-10.412 1.133-1.153.617-3.936 1.291-6.184 1.497C47.704 703.984 45 704.356 45 705.043c0 .423-2.224 1.075-4.942 1.449-4.046.556-4.997 1.072-5.25 2.844-.169 1.19-.708 2.013-1.196 1.829-.906-.342-2.569 1.675-2.597 3.149-.008.448 1.222.717 2.735.599 6.34-.495 10.032.213 13.163 2.523l3.303 2.436-3.108-.088c-1.709-.049-3.115-.582-3.123-1.186-.009-.604-.442-.423-.964.402-.939 1.486-1.317 1.632-4.832 1.875-.997.069-2.778 1.025-3.959 2.125-2.436 2.27-3.884 2.538-4.456.823-.23-.69-.929-.845-1.69-.375-1.055.652-1.044.963.059 1.662C30.021 726.299 35 726.22 35 725c0-.55.675-1 1.5-1s1.5-.477 1.5-1.059c0-.599.543-.718 1.25-.275.688.431 2.15.69 3.25.575l2-.208-2 .913c-1.506.688-.642.927 3.5.968 3.7.037 5.026-.244 4.052-.861-1.723-1.09 2.997-2.632 5.324-1.739.759.291 1.885.025 2.502-.592.77-.77 1.122-.785 1.122-.048 0 1.834 17.911.352 21.985-1.818 1.917-1.021 5.292-1.824 7.5-1.786 3.296.058 3.657.24 2.015 1.018-1.414.67-.39.799 3.5.439 3.025-.28 6.513-.514 7.75-.518 1.66-.007 2.254-.599 2.265-2.259.012-1.757.217-1.932.934-.798.506.799.697 1.811.426 2.25-.271.439.039.798.688.798.832 0 .875.37.144 1.25-.969 1.168-1.207 1.833-1.207 3.372 0 .343-.578.143-1.284-.443-1.943-1.612-12.28 1.1-11.151 2.926.304.492-.347.895-1.447.895s-2.259-.419-2.576-.932c-1.002-1.622 3.747-4.067 7.931-4.083 2.511-.01 3.536-.327 2.723-.842-2.015-1.279-11.185.548-13.039 2.597-3.564 3.939-7.476 6.362-8.25 5.11-1.178-1.907-4.815-1.814-12.907.328-4.125 1.092-9.3 2.337-11.5 2.767-2.2.429-5.267 1.293-6.815 1.918-3.529 1.425-5.727 1.476-3.685.085 1.082-.738.456-.842-2.25-.374-2.473.428-3.75.27-3.75-.463 0-.611-.886-1.111-1.969-1.111-1.458 0-1.798.454-1.312 1.75.561 1.497.425 1.563-.943.451-.979-.795-1.831-.921-2.199-.325-.331.535.192 1.175 1.161 1.423.969.247-.713.303-3.738.123-4.62-.274-4.94-.195-2 .494l3.5.821-3.75.131c-3.835.135-5.42 2.132-1.691 2.132 1.14 0 1.779.454 1.431 1.016-.346.559-1.009.781-1.474.494-.465-.287-.996-.078-1.181.466-.204.601-1.511.673-3.335.184-1.65-.442-2.861-1.222-2.691-1.732.17-.51-.73-1.221-2-1.578-1.27-.358-1.746-.695-1.059-.75 2.012-.161 1.435-2.1-.625-2.1-1.333 0-1.875.722-1.875 2.5 0 1.873.533 2.508 2.125 2.53 5.063.073-1.737 2.171-7.462 2.302L0 742.468v4.873c0 3.873.301 4.757 1.468 4.31.807-.31 1.716-.163 2.018.327.303.49 2.117.636 4.032.325 2.515-.408 3.482-.195 3.482.766 0 1.035.267 1.064 1.2.131 1.301-1.301 7.81-1.677 7.785-.45-.044 2.127-2.054 3.211-6.75 3.638-2.86.26-5.658.755-6.217 1.101-.56.346-1.018-.024-1.018-.823C6 755.184 3.965 754 1.418 754 .208 754 0 763.897 0 821.5V889h170.781l.54-3.25c.297-1.788 1.029-5.725 1.626-8.75 1.847-9.347 3.268-17.344 3.732-21 .244-1.925 1.059-5.525 1.812-8 1.504-4.948 2.129-8.129 2.981-15.185.847-7.01 5.636-15.093 13.5-22.787 3.865-3.782 7.06-7.473 7.1-8.202.134-2.457 6.97-7.372 7.994-5.748.577.915.445 1.778-.371 2.422-.698.55-2.371 2.569-3.718 4.486-2.822 4.016-5.977 7.343-5.977 6.302 0-.788-3.286 5.254-7.457 13.712-2.771 5.617-6.072 19.952-11.055 48-1.515 8.525-2.967 16.063-3.228 16.75-.375.99 10.161 1.25 50.633 1.25 28.109 0 51.107-.143 51.107-.318 0-.176-.737-2.763-1.637-5.75-1.941-6.439-9.974-37.495-11.363-43.932a456.19 456.19 0 00-1.507-6.757c-.356-1.502-.109-2.171.736-2 1.731.35 2.258-5.952.659-7.878-.687-.827-2.023-1.301-2.97-1.054-1.242.325-2.227-.669-3.533-3.565-3.145-6.975-14.331-17.456-18.021-16.886-.625.096-1.409-.536-1.743-1.406-.334-.869-1.059-1.301-1.612-.959-1.217.751-5.272-1.899-4.336-2.835.363-.363-.18-.66-1.206-.66-1.338 0-1.561-.306-.786-1.081.775-.775 2.237-.491 5.16 1 2.244 1.145 4.717 2.081 5.497 2.081.779 0 1.948.64 2.597 1.422.649.782 2.986 1.727 5.192 2.099 2.207.373 4.254 1.308 4.55 2.079.295.77 1.194 1.4 1.997 1.4 3.864 0 9.847 8.949 12.704 19a1419.33 1419.33 0 003.592 12.355c1.117 3.771 2.03 7.956 2.03 9.3 0 1.344.608 3.659 1.35 5.145.743 1.485 3.044 9.675 5.113 18.2 2.07 8.525 4.087 16.625 4.483 18l.721 2.5H500.5V751c0-167.706.012-166.947-2.572-166.271-2.191.573-2.376-.023-.878-2.823.578-1.079 1.478-1.698 2-1.375.592.366.95-10.562.95-28.972V522l-3.25.157c-1.788.087-6.175.461-9.75.832m-172 11.107a740.851 740.851 0 01-8 2.867c-1.375.476-2.132.904-1.682.951.45.047-.129 1.416-1.286 3.041-1.287 1.808-2.672 2.737-3.568 2.393-1.131-.434-1.461.316-1.449 3.295.011 2.627.298 3.411.9 2.46.599-.946.878-.139.862 2.5-.018 2.975-.214 3.424-.83 1.897-.728-1.805-.813-1.752-.877.537-.087 3.153.944 3.292 14.93 2.017 5.775-.526 17.137-1.502 25.25-2.169 8.113-.666 14.75-1.604 14.75-2.083 0-3.396-8.282-9.875-20.5-16.038-7.206-3.635-11.925-4.06-18.5-1.668m-176.966 17.588c-1.801 2.289-2.069 3.798-1.823 10.25l.289 7.566 3-.25c1.65-.137 6.807-.494 11.46-.793 4.652-.298 8.59-.674 8.75-.833 1.203-1.204-2.415-12.175-4.803-14.563-4.813-4.813-13.606-5.53-16.873-1.377m299.139 6.907c-1.214.85-1.947 1.965-1.631 2.477.32.517-1.23.932-3.483.932-6.177 0-10.087 5.259-7.241 9.74 2.234 3.518 16.228-.571 14.789-4.321-.385-1.005.052-2.489 1.063-3.607 1.635-1.807 1.611-1.926-.497-2.477-1.769-.463-1.981-.862-1.052-1.981 1.727-2.081.577-2.531-1.948-.763M312 575.38c0 1.267-1.239 1.616-11.75 3.314-2.654.429-3.25.98-3.25 3.011 0 3.221-2.995 8.273-4.966 8.374-1.083.056-1.155.231-.246.596.708.284 2.801-.201 4.651-1.079 1.85-.878 4.645-1.628 6.212-1.666 2.494-.062 2.6-.178.849-.93-1.1-.473-1.55-.922-1-.999 13.999-1.948 20.169-2.105 21.463-.546 2.137 2.575 3.185 1.731 1.617-1.301-3.479-6.728-13.58-13.254-13.58-8.774m-127.279 10.148c-2.078.763-4.446 1.131-5.261.818-1.015-.389-1.303-.099-.912.919.384 1-.246 1.693-1.918 2.113-1.37.344-3.084 1.19-3.81 1.88s-8.295 4.766-16.82 9.059c-13.69 6.893-14.975 7.744-11 7.286 2.574-.297 8.569-2.603 14.006-5.387 9.069-4.645 16.753-7.253 15.527-5.27-1.002 1.623 1.257 2.121 2.767.611.804-.804 1.678-1.246 1.942-.982s3.705-1.065 7.647-2.955c3.942-1.889 6.592-3.666 5.889-3.948-.703-.283.522-.593 2.722-.689l4-.175-5-1.208c-2.871-.693-4.894-1.717-4.75-2.404.306-1.464-.233-1.428-5.029.332M20.119 609.222c-2.5 6.682-2.484 6.801.744 5.676 1.637-.571 3.224-1.681 3.525-2.468.732-1.907 4.612-1.848 4.612.07 0 1.007 1.007 1.5 3.066 1.5 6.958 0 7.943 2.482 3.045 7.677-1.402 1.487-1.665 2.308-.831 2.594.671.229-.781 1.389-3.226 2.577-2.876 1.397-4.789 1.817-5.417 1.189-.628-.628-.383-1.197.696-1.611.917-.352 1.667-1.267 1.667-2.033 0-2.004-1.318-1.715-2.768.607-1.385 2.217-3.745 2.516-7.776.983-2.002-.761-2.41-1.334-1.622-2.283 2.288-2.756-.216-3.759-7.403-2.965L1.5 621.5l-.276 15.25c-.323 17.838-1.99 16.4 14.824 12.794 12.682-2.719 24.394-7.311 31.508-12.352l4.668-3.309-.697-7.44c-.587-6.261-.449-7.536.869-8.042 1.201-.461 1.33-1.045.551-2.501-.56-1.045-.664-1.961-.232-2.035 1.6-.274 5.998-.495 13.785-.693 5.589-.142 7.548-.495 6.5-1.172-1.178-.761-.936-.973 1.128-.985 1.445-.008 3.094-.577 3.665-1.265.825-.993-3.008-1.251-18.627-1.253-10.816-.001-23.835-.351-28.93-.778-9.055-.757-9.284-.723-10.117 1.503m59.527 38.465c-.378.379-3.041.824-5.917.991-2.876.167-9.279.714-14.229 1.217-4.95.502-9.366.687-9.814.411-1.159-.716-16.759.768-16.276 1.548.219.355-3.045.659-7.255.674C12.124 652.579 1 654.084 1 655.93c0 1.816 9.976 1.859 19.008.082 2.479-.488 9.104-1.204 14.722-1.591 5.618-.386 10.017-1.021 9.777-1.41-.241-.389 4.609-.762 10.778-.828 6.168-.066 13.639-.584 16.601-1.152 2.963-.567 7.688-1.038 10.5-1.046 3.255-.01 4.619-.329 3.753-.878-.748-.474-2.323-.683-3.5-.464-2.055.382-2.06.361-.139-.552 1.972-.937 1.971-.951-.083-1.021-1.146-.038-2.393.239-2.771.617M77.5 750c-2.364 1.205-5.897 2-8.89 2-2.733 0-6.536.563-8.452 1.25-2.787 1-3.568 1-3.904 0-.232-.687-1.535-1.25-2.896-1.25-1.362 0-2.227.403-1.923.895.834 1.349-1.247 1.806-8.637 1.899-9.493.119-10.976 1.122-10.366 7.006.268 2.585 1.021 10.864 1.674 18.398l1.187 13.698 2.839-.198c2.208-.154 2.717-.587 2.287-1.948-.471-1.488.114-1.75 3.903-1.75 3.63 0 4.43-.324 4.317-1.75-.103-1.302.502-1.679 2.361-1.474 5.6.617 9.532-.324 6.25-1.496-1.937-.692-1.52-4.278.5-4.295 1.511-.014 1.545-.161.25-1.081-1.155-.821-.868-.928 1.25-.466 1.513.33 2.75.19 2.75-.312 0-1.646 2.972-2.096 5.682-.861 2.097.955 2.746.95 3.072-.027.227-.681 1.02-1.238 1.761-1.238 1.859 0 5.804-5.685 4.503-6.489-1.992-1.231-.972-2.511 2.002-2.511 1.661 0 4.878-1.237 7.149-2.75 2.272-1.513 4.85-3.2 5.731-3.75.88-.55 1.938-1.45 2.35-2 .481-.641 1.044-.545 1.57.268 1.046 1.616 12.818-.881 12.43-2.637-.137-.622.2-1.131.75-1.131s1.014.563 1.032 1.25c.018.704.673.402 1.5-.691.99-1.31 1.468-1.489 1.468-.55 0 .85.338 1.021.869.441.478-.522.654-2.637.391-4.7l-.479-3.75h-12.949c-7.368 0-12.712.386-12.397.895.305.493-.156 1.168-1.023 1.5-2.44.937-2.762.732-1.412-.895 1.911-2.303-3.644-1.976-8.5.5M.473 821.5c0 37.4.124 52.555.277 33.677.152-18.878.152-49.478-.001-68C.597 768.655.473 784.1.473 821.5M10.5 758.538c-.55.158-2.277.57-3.838.916-2.739.606-2.818.794-2.252 5.337.322 2.59.812 12.134 1.087 21.209.662 21.833 2.303 50.134 2.944 50.775.68.679 1.112-.981 2.333-8.958.664-4.331 1.763-7.477 3.125-8.939 2.387-2.562 2.583-3.462.969-4.46-.784-.484-.926-3.17-.463-8.728.681-8.165-1.148-45.674-2.283-46.815-.342-.344-1.072-.496-1.622-.337M215 787.5c0 .825-.562 1.504-1.25 1.508-.687.004-1.77 1.129-2.406 2.5-1.05 2.263-.948 2.492 1.112 2.492h2.268l-.448 17.75c-.246 9.763-.369 18.2-.272 18.75.096.55.389 5.568.65 11.15.521 11.138 1.128 12.03 7.109 10.445 4.465-1.183 5.285-5.27 4.711-23.463-.276-8.727-.725-16.229-.998-16.672-.274-.442-.542-3.764-.596-7.382-.054-3.618-.528-6.578-1.053-6.578-.524 0-.813-1.462-.64-3.25.271-2.814.682-3.245 3.063-3.211 1.512.022 2.75-.315 2.75-.75 0-.806-1.513-1.154-3.75-.864-.687.09-1.25-.757-1.25-1.881 0-1.756-.634-2.044-4.5-2.044-3.333 0-4.5.389-4.5 1.5" fill="#d3d3d3" fill-rule="evenodd"/></svg>