<svg xmlns="http://www.w3.org/2000/svg" width="500" height="636"><path d="M267.672 48.413c-.571 1.487-.965 1.588-2.199.564-1.239-1.028-1.866-.83-3.561 1.125-1.132 1.305-2.813 2.378-3.735 2.385-1.008.008-1.567.681-1.4 1.688.152.921-.186 1.96-.75 2.309-.565.349-1.027.157-1.027-.425S254.534 55 253.965 55c-.695 0-.712.604-.052 1.838 1.012 1.891.414 6.162-.863 6.162-.394 0-.717.675-.717 1.5s.375 1.5.834 1.5c.458 0 .833 1.661.833 3.691 0 3.46-.092 3.57-1.468 1.75-1.388-1.835-2.102-1.053-1.65 1.809.065.412-.509.75-1.275.75-.766 0-1.663.704-1.993 1.563-.33.86-1.056 1.282-1.614.937s-1.283.074-1.612.931c-.329.857-.969 1.328-1.424 1.047-.454-.281-1.113-.046-1.464.522-.351.568-1.057.774-1.569.457-.512-.316-.931-.098-.931.484S238.051 81 236.892 81c-1.75 0-2.002.425-1.481 2.5.361 1.442.196 2.5-.392 2.5-.56 0-1.019-.9-1.019-2s-.381-2-.847-2C231.9 82 228 85.578 228 86.728c0 .546-1.129 2.656-2.509 4.69-1.379 2.033-3.403 6.353-4.497 9.599-1.094 3.247-2.632 7.384-3.418 9.193-2.125 4.89-2.912 7.203-2.735 8.04.088.412-.229.75-.702.75-.474 0-.647 1.125-.384 2.5.351 1.833.047 2.5-1.138 2.5-.89 0-1.62.787-1.623 1.75-.004.963-.632 2.95-1.397 4.416-1.865 3.574-2.676 10.825-1.216 10.864.616.017.332.489-.631 1.05-1.871 1.09-2.413 3.92-.75 3.92.55 0 .993.787.985 1.75-.011 1.237-.246 1.386-.803.51-.522-.821-1.227.024-2.087 2.5-.715 2.057-2.398 6.115-3.74 9.017-1.342 2.903-2.169 5.715-1.838 6.25.33.535.076.973-.565.973-.641 0-.907.675-.59 1.5.316.825.124 1.5-.429 1.5-.648 0-.67.623-.061 1.761 1.015 1.897.419 7.028-1.032 8.872-.575.732-.262 1.39.884 1.858 1.647.671 1.631.783-.224 1.546-1.1.452-1.508.854-.907.893.722.046 1.135 4.393 1.219 12.82.078 7.857.714 14.976 1.657 18.549.842 3.189 1.576 7.464 1.631 9.5.089 3.321.182 3.444.9 1.201.44-1.375.845-1.937.9-1.25.055.688.887 1.282 1.85 1.32 1.452.059 1.491.186.229.75-.837.374-1.496 1.355-1.467 2.18.03.825-.253 1.725-.629 2-2.184 1.598-1.265 9 1.117 9 1.111 0 2 .667 2 1.5 0 .825-.477 1.5-1.059 1.5s-.781-.45-.441-1-.084-1-.941-1c-1.915 0-1.961 1.886-.106 4.333 1.01 1.332 2.707 1.834 6.211 1.834 2.651 0 5.155.525 5.563 1.166.55.864.746.843.758-.083.008-.687.39-1.25.848-1.25.459 0 .834.63.834 1.4 0 1.661-10.622 1.761-10.694.1-.024-.55-.632.06-1.35 1.355-.718 1.295-1.088 3.493-.822 4.885l.484 2.531L206.5 256c.668-1.249 1.495-1.817 1.837-1.264.725 1.173-2.542 5.264-4.204 5.264-1.345 0-1.531 3.636-.227 4.442.498.308.671 1.46.383 2.559-.374 1.433-.03 1.999 1.217 1.999 1.456 0 1.53.252.455 1.547-1.026 1.236-1.45 1.287-2.107.25-.453-.713-.837-.847-.854-.297-.017.55-.513.325-1.102-.5-.84-1.176-.948-.96-.498 1 .315 1.375.579 3.111.586 3.857.008.78.638 1.117 1.482.794.807-.31 1.753-.103 2.101.46.348.563-.313 1.271-1.468 1.573-1.197.313-2.101 1.36-2.101 2.433 0 1.035-.45 1.883-1 1.883s-1 1.827-1 4.059c0 2.451.396 3.814 1 3.441 1.421-.878 1.241.859-.242 2.342-.834.834-.901 1.473-.202 1.95.572.389 1.108 1.793 1.192 3.118.083 1.326.737 2.83 1.452 3.344.931.669.783.767-.521.344-1.504-.487-1.767-.112-1.511 2.156.201 1.776-.128 2.658-.929 2.496-.681-.138-1.239.2-1.239.75s.563.999 1.25.998c1.535-.003 1.131 12.816-.465 14.752-.716.869-.689 1.25.091 1.25.698 0 .998 1.546.796 4.097-.238 3.011.095 4.269 1.259 4.75 1.635.675 2.465 6.153.932 6.153-.475 0-.863-1.125-.863-2.5 0-4.91-1.503-2.399-1.646 2.75l-.306 11.024c-.092 3.328-.56 5.527-1.104 5.191-.519-.321-.944-.133-.944.417s.486 1.301 1.081 1.668c.609.376.805 1.77.448 3.189-.546 2.178-.353 2.448 1.419 1.985 2.417-.632 2.659.526.552 2.633-1.842 1.842-1.904 2.643-.204 2.643.792 0 1.38 1.458 1.512 3.75.163 2.807-.038 3.373-.795 2.25-1.59-2.354-2.873.486-2.406 5.326.239 2.484-.078 4.347-.818 4.805-.898.554-.747 1.258.583 2.728 1.213 1.34 1.703 3.227 1.514 5.839-.153 2.122.056 4.398.464 5.059.408.661.288 2.052-.269 3.091-.556 1.039-.741 2.159-.411 2.489.331.33.753 2.299.939 4.376.187 2.077.913 4.228 1.615 4.782.702.553 1.139 2.411.972 4.13-.167 1.718.319 3.747 1.08 4.508.762.762 1.212 1.902 1.002 2.534-.211.632.09 1.443.669 1.8.579.358 1.029 1.412 1.001 2.342-.043 1.368-.353 1.261-1.622-.559-1.805-2.588-3.326-2.931-3.326-.75 0 2.245-1.686 1.808-2.316-.601-.303-1.156-1.029-1.804-1.617-1.441-1.536.95-1.313 4.613.395 6.5.817.903 1.218 2.552.908 3.736-.516 1.971-.846 1.83-4.685-2.009-2.271-2.271-4.264-5.042-4.429-6.157-.164-1.116-1.825-4.278-3.69-7.028s-3.961-7.025-4.659-9.5c-1.555-5.52-1.777-5.819-2.946-3.971-.723 1.143-.949.914-1.016-1.029-.079-2.295-.156-2.336-.945-.5-1.01 2.351-1.094 2.198-1.55-2.83-.275-3.037-.08-3.608.944-2.758.709.589 1.555.806 1.879.482.76-.76-.313-3.679-1.7-4.629-.721-.494-.663-.739.177-.75.688-.008 1.214-.803 1.171-1.765-.047-1.045-.282-1.247-.583-.5-.791 1.96-2.338 1.463-2.338-.75 0-1.1-.45-2-1-2s-1-1.35-1-3c0-2.207-.469-3-1.775-3-1.542 0-1.743-.844-1.529-6.404.188-4.88-.104-6.539-1.225-6.969-1.89-.725-1.958-5.627-.078-5.627 1.486 0 3.043-2.898 2.076-3.864-.318-.318-.947.019-1.398.75-.632 1.021-.994 1.048-1.571.114-.575-.93-.954-.897-1.625.143-.691 1.071-1.046 1.093-1.685.106-.615-.951-1.326-.771-2.958.75-1.182 1.1-2.569 2.001-3.083 2.001-.514 0-1.205.704-1.536 1.565-.47 1.227-.138 1.419 1.54.887 1.828-.581 2.057-.363 1.571 1.495-.419 1.602-.016 2.379 1.53 2.951l2.099.777-2.177.569c-2.615.684-2.858 2.431-.426 3.067 1.38.36 1.297.481-.393.573-2.44.132-3.474-1.721-2.672-4.788.302-1.153.092-2.096-.466-2.096-.557 0-.939 1.575-.849 3.5.091 1.925-.181 3.5-.603 3.5-.736 0-.924-1.657-.994-8.75-.02-2.033-.534-3.25-1.371-3.25-.811 0-1.1-.625-.731-1.584.489-1.275.772-1.324 1.453-.25.562.887.851.94.861.157.008-.647.802-1.382 1.765-1.634.963-.251.269-.509-1.541-.573-3.148-.111-3.282-.278-3.115-3.866.096-2.062.002-4.385-.209-5.161-.226-.83.646-1.717 2.115-2.151 1.617-.478 1.882-.774.75-.838-1.701-.097-2.185-1.163-1.799-3.961.103-.749-.728-2.214-1.848-3.257-2.147-2.001-1.85-4.882.504-4.882.766 0 1.357-.788 1.314-1.75-.047-1.045-.282-1.247-.583-.5-1.17 2.899-2.059.832-2.225-5.171-.148-5.406.105-6.493 1.605-6.884 1.663-.432 1.665-.471.032-.579-.963-.064-1.75-.791-1.75-1.616 0-.877-.91-1.5-2.191-1.5-2.141 0-2.147.033-.25 1.468 1.876 1.42 1.858 1.473-.559 1.6l-2.5.131 2.5.801c2.038.653 1.621.819-2.25.9-4.706.099-6.467 1.921-3.58 3.705.787.486.961.178.531-.941-.489-1.275-.061-1.664 1.83-1.664 1.505 0 2.469.574 2.469 1.469 0 .894.586 1.243 1.5.893.825-.317 1.5-.078 1.5.531s-.675 1.107-1.5 1.107-1.5.675-1.5 1.5.635 1.5 1.412 1.5c1.194 0 1.387 1.299.594 4-.081.275-.489-.376-.908-1.446-.727-1.858-.788-1.847-1.336.25-.421 1.609-.132 2.196 1.082 2.196 1.453 0 1.641 1.416 1.535 11.538-.066 6.345-.374 11.79-.683 12.1-.757.757-2.696-.506-2.696-1.756 0-.55.45-.722 1-.382.55.34 1-.084 1-.941s-.761-1.559-1.691-1.559c-1.56 0-1.564-.097-.053-1.25 1.055-.804 1.569-2.498 1.442-4.75-.181-3.191-.441-3.472-2.948-3.178-2.682.313-3.908-1.269-1.584-2.044 1.489-.496 2.219-8.778.773-8.778-.581 0-.779.45-.439 1s-.046 1-.858 1c-.811 0-1.927 1.238-2.48 2.75-.925 2.533-1.01 2.376-1.083-2-.074-4.453 1.125-6.31 2.259-3.5.301.747.536.545.583-.5.043-.962-.596-1.75-1.421-1.75-.825 0-1.514-.562-1.53-1.25-.02-.819-.328-.733-.892.25-.473.825-.757 4.988-.631 9.25.217 7.317-.487 9.694-1.833 6.187-.33-.86-1.012-1.309-1.517-.997-2.309 1.427-4.097-.739-4.097-4.964 0-2.512-.521-4.52-1.25-4.814-1-.403-1-.52 0-.583.896-.057 1.25-2.5 1.25-8.638 0-5.27.372-8.329.969-7.96.548.339.834 4.491.657 9.559-.172 4.928.062 8.96.52 8.96.457 0 .832-1.013.833-2.25.012-15.914.263-17.752 2.414-17.671 1.159.043 1.545.306.857.583-.687.278-1.243 1.255-1.235 2.171.014 1.442.147 1.464.985.167.976-1.51 1.061-1.354 1.491 2.75.252 2.402-.989 3.08-1.829 1-.301-.747-.536-.545-.583.5-.043.962.563 1.75 1.348 1.75.784 0 1.632.788 1.884 1.75.389 1.492 1.145-7.862.807-10-.065-.413.515-.75 1.288-.75.938 0 1.242.749.914 2.25-.36 1.641-.232 1.881.472.887.816-1.151 1.051-1.151 1.511 0 .451 1.128.719 1.113 1.555-.089.555-.799.788-1.811.517-2.25-.271-.439.434-.798 1.566-.798 1.132 0 2.066-.562 2.074-1.25.011-.865.242-.911.75-.15 1.27 1.901 3.686 2.139 4.953.488 1.099-1.432 1.222-1.416 1.25.162.018.962.759 1.75 1.649 1.75 1.097 0 1.456.612 1.118 1.906-.369 1.41.121 2.025 1.883 2.361 1.31.251 2.367.181 2.349-.156-.065-1.192-3.804-5.111-4.877-5.111-.6 0-1.09-.498-1.09-1.107s.631-.865 1.401-.569c.834.32 1.607-.245 1.907-1.393.278-1.062.097-1.931-.402-1.931-.498 0-.906.45-.906 1s-1.177 1-2.617 1c-2.073 0-2.514-.392-2.122-1.889.715-2.736-.506-4.121-3.047-3.457-2.208.578-3.164 3.346-1.155 3.346.582 0 .781.45.441 1-.941 1.522-4.5 1.193-4.5-.417 0-.779.558-1.602 1.241-1.83.875-.292.689-.966-.634-2.289-1.093-1.093-1.426-2.024-.797-2.234.593-.198.83-1.005.527-1.795-.347-.905.086-1.435 1.173-1.435 1.231 0 1.574-.571 1.201-1.999-.644-2.46 1.06-3.762 1.935-1.481.505 1.317.802 1.38 1.478.314.6-.947.85-.649.861 1.023.011 1.687-.411 2.193-1.485 1.781-1.02-.391-1.5.054-1.5 1.393 0 1.38.673 1.964 2.25 1.954 1.614-.011 1.873-.255.916-.861-1.09-.691-1.066-.948.132-1.408 1.913-.734 2.819-7.716 1.001-7.716-.714 0-1.299.45-1.299 1s-.787.964-1.75.921c-1.045-.047-1.247-.282-.5-.583 1.62-.654 1.62-4.022 0-4.676-.78-.314-.623-.534.417-.583.916-.043 1.931-.641 2.254-1.329.324-.687.419.014.211 1.558-.282 2.099-.021 2.671 1.033 2.267.776-.298 1.667.126 1.98.942.313.816 1.228 1.483 2.033 1.483 1.25 0 1.237-.227-.084-1.549-1.76-1.76-.413-5.047 2.377-5.804.841-.228.441-.467-.888-.531s-2.113-.419-1.742-.79c.37-.37 3.37-.564 6.666-.429 3.745.153 5.993-.157 5.993-.826 0-.589.408-1.071.906-1.071.499 0 .665.925.369 2.057-.319 1.22-1.094 1.843-1.906 1.531-.753-.289-1.369-.137-1.369.336 0 3.763 5.259.424 6.182-3.924.175-.825.768-1.831 1.318-2.235.55-.404.1-.748-1-.765-1.659-.025-1.744-.196-.5-1 .825-.533 1.05-.983.5-1-.55-.017-.372-.428.396-.914.859-.545 1.127-1.584.696-2.707-.533-1.388-.89-1.514-1.5-.528-.555.897-1.918 1.085-4.446.61-3.149-.59-3.646-.426-3.646 1.205 0 2.008 3.431 5.57 4.415 4.585.322-.321.585-.059.585.582 0 .642-.9 1.167-2 1.167s-2.007-.562-2.015-1.25c-.011-.847-.316-.775-.946.221-.512.809-1.279 1.122-1.706.696-.426-.427-.287-1.089.309-1.471.597-.383.783-1.541.413-2.574-.984-2.753-.036-7.622 1.485-7.622.722 0 1.519-.788 1.771-1.75.262-1.005.506-.498.573 1.189l.116 2.938 2.095-2.249c2.007-2.154 2.159-2.173 3.582-.439 1.213 1.478 1.394 1.512.984.185-.277-.894.077-2.743.786-4.11.84-1.618.969-3.056.371-4.124-.676-1.209-.51-1.64.632-1.64.968 0 1.55-.898 1.55-2.393 0-1.329.778-2.724 1.75-3.138 1.509-.642 1.406-.849-.75-1.507-2.101-.641-2.175-.779-.468-.862 1.405-.069 2.095-.86 2.236-2.563.159-1.928-.174-2.342-1.532-1.906-1.469.472-1.506.392-.236-.521 1.311-.943 1.293-1.081-.143-1.095-1.886-.017-3.402-3.06-1.967-3.947.527-.326-.18-1.129-1.571-1.785-2.273-1.073-2.479-1.003-2.034.697.278 1.066-.104 2.12-.879 2.418-.823.316-1.111 1.207-.719 2.228.442 1.152.275 1.468-.517.979-.644-.398-1.17-1.821-1.17-3.164 0-2.568-1.478-3.321-2.338-1.191-.301.747-.536.545-.583-.5-.043-.963.371-1.75.921-1.75s1-1.35 1-3-.45-3-1-3-1-.675-1-1.5-.45-1.5-1-1.5-1 .761-1 1.691c0 1.534-.116 1.543-1.25.102-.873-1.11-1.853-1.339-3.25-.761-1.703.705-1.74.838-.25.898.963.038 1.75.52 1.75 1.07s.81 1 1.799 1c1.468 0 1.724.645 1.391 3.5-.479 4.1-3.504 4.909-4.679 1.25-.654-2.036-.77-2.071-1.215-.37-.271 1.034.05 2.216.712 2.625.755.466.834.975.212 1.359-1.601.989-3.441-2.065-2.751-4.566.593-2.147.539-2.179-.816-.495-1.064 1.322-1.566 1.457-1.882.509-.49-1.469-3.771 1.216-3.771 3.085 0 .572-.738.757-1.64.411-1.521-.584-1.521-.717 0-1.829 2.313-1.692 2.04-2.479-.86-2.479-1.947 0-2.484-.498-2.43-2.25.065-2.067.132-2.093.828-.316.528 1.349.981 1.571 1.499.733.407-.66 1.132-.958 1.611-.662.478.295 1.378-.26 1.999-1.234 1.005-1.574 1.078-1.521.655.479-.328 1.556-.005 2.25 1.048 2.25 1.085 0 1.386-.718 1.045-2.5-.263-1.375-.09-2.5.384-2.5.473 0 .861.675.861 1.5 0 2.367 1.823 1.747 2.204-.75.191-1.253.941-2.121 1.692-1.959.852.184 1.131-.277.758-1.25-.704-1.836.465-2.022 2.146-.341.933.933 1.2.926 1.2-.032 0-2.092-4.388-3.188-5.18-1.293-.534 1.278-.694 1.157-.75-.566-.1-3.141-2.07-3.966-2.07-.868 0 1.407-.388 2.559-.861 2.559-.474 0-.677-1.012-.451-2.25.464-2.535-4.147-5.617-5.064-3.385-.256.624-.502.348-.545-.615-.043-.963.484-1.757 1.171-1.765.845-.011.773-.317-.223-.947-.894-.566-1.54-2.718-1.644-5.478-.093-2.501.232-4.298.723-3.994.492.304.894-.112.894-.924 0-.811-.557-1.661-1.238-1.888-.974-.325-.982-.977-.038-3.048.702-1.54.819-2.87.282-3.202-.505-.313-.678-1.196-.383-1.963.386-1.006-.044-1.244-1.544-.851-1.372.358-2.079 1.354-2.079 2.927 0 1.31-.45 2.383-1 2.383s-1-.45-1-1-.848-1.848-1.884-2.884c-1.253-1.253-1.716-2.759-1.383-4.5.473-2.475 2.267-3.754 2.267-1.616 0 .55.642 1 1.427 1 .784 0 1.632.787 1.884 1.75.281 1.077.502.692.573-1 .119-2.832 1.561-3.713 2.454-1.5.277.688.54.102.583-1.3.043-1.403.619-3.09 1.279-3.75.933-.933.874-1.2-.267-1.2-1.072 0-1.402-1.01-1.225-3.75.346-5.339-.57-9.081-1.761-7.198-.695 1.098-.92.832-.932-1.102-.008-1.402.525-3.09 1.185-3.75.933-.933.933-1.2 0-1.2-.66 0-1.2-.702-1.2-1.559s-.45-1.281-1-.941c-.55.34-1.067-.421-1.148-1.691-.081-1.27-.24-2.984-.352-3.809-.112-.825-.271-2.588-.352-3.917-.255-4.158-1.542-1.251-1.414 3.194l.121 4.223-.971-4c-.534-2.2-.779-4.749-.544-5.664.258-1.003-.29-1.851-1.379-2.136-.993-.26-1.954-1.536-2.134-2.836-.302-2.186-.665-2.322-4.827-1.803l-4.5.562 3.376 1.551c1.857.854 2.95 1.815 2.429 2.138-.522.322-2.154-.04-3.627-.804-2.331-1.209-2.678-1.195-2.678.11 0 .825-.468 1.211-1.041.857-.572-.354-.767-1.505-.432-2.559.34-1.071.137-1.916-.46-1.916-.587 0-1.067.886-1.067 1.969 0 1.339-.48 1.784-1.5 1.393-.825-.317-1.5-.078-1.5.531s.81 1.107 1.799 1.107c1.468 0 1.724.645 1.391 3.5-.261 2.236.013 3.5.76 3.5.642 0 .89-.45.55-1-.34-.55-.141-1 .441-1s1.059.886 1.059 1.969c0 1.339-.48 1.784-1.5 1.393-.825-.317-1.5-.078-1.5.531s.635 1.107 1.412 1.107c.789 0 1.281.771 1.117 1.75-.349 2.076-2.385 1.802-4.182-.562-1.165-1.533-1.286-1.481-1.315.562-.019 1.347.57 2.25 1.468 2.25.825 0 1.5.73 1.5 1.622 0 1.373-.246 1.419-1.597.297-1.397-1.159-1.554-1.021-1.25 1.103.238 1.664-.186 2.535-1.346 2.766-1.186.236-1.646-.281-1.537-1.726.086-1.134.496-2.062.911-2.062.416 0 .527-.597.247-1.328-.28-.73-.052-2.53.506-4 .59-1.55.631-2.672.099-2.672-.505 0-.759-.826-.565-1.835.716-3.715-1.025-4.48-3.974-1.747-1.739 1.612-2.261 2.608-1.39 2.652.796.04.537.44-.604.93-1.369.588-1.527.894-.5.97.878.064.359.729-1.25 1.602-1.854 1.006-2.75 2.296-2.75 3.96 0 1.656-.559 2.468-1.7 2.468-1.322 0-1.433-.267-.5-1.2 1.776-1.776 1.51-5.8-.383-5.8-.871 0-1.382.563-1.135 1.25.246.688.064 1.997-.404 2.91-.536 1.044-.321 2.686.579 4.42 1.43 2.755.845 5.497-1.479 6.933-.556.344-.752 1.044-.435 1.556.316.512-.153.931-1.043.931-.89 0-1.377.39-1.083.866.295.477-.343 1.662-1.417 2.634s-1.712 2.157-1.417 2.634c.294.476-.424.866-1.595.866-1.937 0-1.988.143-.559 1.571.864.865 1.571 2.215 1.571 3 0 .786.378 1.429.839 1.429.727 0 3.161 4.271 3.161 5.547 0 .249-.787.489-1.75.532-1.056.048-1.252.28-.494.585.691.279 1.002.918.691 1.421-.311.503-.121.915.421.915s1.191-.787 1.443-1.75c.251-.963.553.05.671 2.25.384 7.195.291 10.275-.391 12.992-.427 1.704-.304 2.448.341 2.05.65-.402.85.988.557 3.878-.436 4.313-.361 4.468 1.778 3.677 1.228-.454 2.289-1.337 2.358-1.962.069-.624.181-1.837.25-2.694s.537-1.305 1.04-.994c.503.311 1.11 0 1.349-.691.239-.691.441.656.449 2.994.009 2.83-.42 4.25-1.287 4.25-.716 0-1.234.9-1.151 2 .083 1.1.785 2 1.56 2 1.15 0 1.177.281.145 1.524-.696.838-.951 1.838-.568 2.221 1.481 1.481 2.779-2.29 2.924-8.495.029-1.238.609-2.25 1.289-2.25.918 0 .996-.833.305-3.243-1.16-4.046-1.204-3.757.57-3.757.862 0 1.5-.902 1.5-2.122 0-1.79.239-1.924 1.527-.856 1.32 1.096 1.494.841 1.287-1.877-.135-1.774-.801-3.145-1.527-3.145-.708 0-1.287-.675-1.287-1.5s.379-1.5.841-1.5c.463 0 .535-2.025.159-4.5-.649-4.273-.562-4.5 1.718-4.5 1.32 0 2.141.419 1.825.931-.317.512-.118 1.213.441 1.559.566.35 1.016-.31 1.016-1.49 0-1.165.338-1.91.75-1.655.413.255.575 2.869.361 5.809-.213 2.94-.588 4.784-.833 4.096-.245-.688-.843-1.25-1.33-1.25-1.64 0 .249 3 1.909 3.032 1.473.028 1.462.169-.107 1.36-2.149 1.632-2.285 2.751-.239 1.965 1.082-.415 1.336-.121.893 1.032-.34.886-1.245 1.611-2.011 1.611s-1.34.338-1.275.75c.33 2.089-.345 8.578-.78 7.5-.278-.688-.917-1.25-1.421-1.25-1.332 0-.664 2.292 1.083 3.715 1.298 1.057 1.23 1.236-.5 1.332-1.1.061-1.437.338-.75.615 1.588.641 1.617 3.571.05 5.138-.933.933-.822 1.2.5 1.2 2.125 0 2.177 1.38.129 3.429-1.429 1.428-1.403 1.571.287 1.571 1.373 0 1.922-.835 2.102-3.198.134-1.758.439-3.392.678-3.631.238-.239-.016-1.275-.566-2.302-.678-1.266-.666-1.869.035-1.869.569 0 1.035-.631 1.035-1.402 0-.771 1.35-1.873 3-2.448s3-1.519 3-2.098 1.012-1 2.25-.936c1.693.087 1.817.229.5.573-.963.252-1.75.861-1.75 1.353s.709.623 1.575.291c1.001-.384 1.504-.099 1.382.781-.349 2.498.189 6.415.705 5.136.987-2.445 2.1-1.198 1.786 2-.176 1.787-.356 3.7-.399 4.25-.044.55-.543.325-1.109-.5-.856-1.247-1.003-1.163-.87.5.322 4.017-.102 5.5-1.57 5.5-.988 0-1.5.988-1.5 2.893 0 1.739-.643 3.14-1.613 3.512-1.024.393-1.424 1.346-1.094 2.607.286 1.093.112 1.988-.387 1.988-.498 0-.906.927-.906 2.059 0 1.132-.45 1.781-1 1.441-.55-.34-1.037-.254-1.083.191l-.496 4.807c-.226 2.2-.864 4.15-1.416 4.334-.553.184-1.005.999-1.005 1.81 0 .812-.385 1.238-.856.947-.47-.291-.643.583-.383 1.941.366 1.916.054 2.467-1.394 2.455-1.593-.013-1.647-.171-.367-1.079 1.172-.83.9-.967-1.25-.623-1.513.242-2.75.052-2.75-.422 0-.473 1.013-.861 2.25-.862 1.746 0 2.286-.613 2.409-2.735.15-2.589.083-2.632-1.25-.809-.775 1.06-1.409 1.391-1.409.736s-.4-1.191-.889-1.191-.826.788-.75 1.75c.091 1.149-.462 1.649-1.611 1.456-1.307-.219-1.768.414-1.82 2.5-.064 2.516-.165 2.595-1.021.794-.913-1.921-.934-1.916-.552.139.79 4.247-1.116 4.873-2.772.91-1.843-4.411-1.916-4.871-.646-4.086.517.319.876-.273.797-1.316-.095-1.266-.901-1.897-2.421-1.897-1.253 0-2.056.36-1.785.799.272.44-.299 1.006-1.268 1.259-1.396.365-1.315.484.394.576 3.084.166 1.989 3.572-1.208 3.76-1.346.08-2.448-.224-2.448-.674 0-.45-1.103.16-2.452 1.356-1.349 1.196-2.049 2.316-1.556 2.489.493.173.648.96.345 1.75-.618 1.609-5.337 1.994-5.337.435 0-.55.904-1 2.008-1 1.745 0 1.848-.258.785-1.96-.739-1.183-1.48-1.546-1.87-.916-.364.59-.87.186-1.162-.929-.639-2.446.713-5.134 1.539-3.058.378.95.566.833.621-.387.051-1.126-.656-1.75-1.98-1.75-1.132 0-1.781.45-1.441 1 .34.55-.421 1.052-1.691 1.116-1.552.078-1.763.261-.644.557 1.453.385 3.364 3.203 2.609 3.846-1.878 1.597-4.591 1.229-5.546-.752-.865-1.796-1.107-1.903-1.16-.517-.038.962-.518 1.75-1.068 1.75s-1 .702-1 1.559.45 1.281 1 .941c.559-.345.986.4.968 1.691-.029 2.122-.138 2.169-1.349.575-.724-.954-1.597-1.454-1.94-1.112-.343.343-1.086-.593-1.651-2.08C75.662 274.982 75.656 275 78.3 275c3.35 0 4.84-1.803 3.398-4.112-.924-1.48-.825-2.189.488-3.503 1.53-1.53 1.508-1.797-.313-3.752-1.084-1.163-1.494-2.259-.917-2.452 1.45-.483 1.317-2.238-.147-1.931-.654.137-1.356-.502-1.558-1.422-.277-1.258.141-1.538 1.691-1.133 1.451.379 2.058.061 2.058-1.078 0-.89.45-1.617 1-1.617s.993-.787.985-1.75c-.013-1.496-.157-1.532-.985-.25-.838 1.297-.971 1.275-.985-.167-.008-.916.515-1.843 1.162-2.059.762-.254.859-.901.276-1.833-.495-.793-.96-1.891-1.033-2.441-.386-2.911-1.816-5.5-3.037-5.5-1.956 0-1.718-1.721.71-5.131 1.681-2.36 1.854-3.228.878-4.404-.669-.806-.786-1.465-.26-1.465s.956-.675.956-1.5-.341-1.5-.758-1.5c-1.029 0-.057-7.423 1.022-7.798.471-.164.615-1.222.319-2.352-.309-1.183.055-2.429.857-2.937 1.029-.652.741-.907-1.107-.977-1.375-.051-1.937-.321-1.25-.598.688-.278 1.25-2.042 1.25-3.921 0-2.037.505-3.44 1.25-3.473.688-.031-.291-.594-2.175-1.25-1.884-.657-3.609-1.757-3.833-2.445-.261-.797.172-1.027 1.193-.636 1.354.52 1.45.215.622-1.963-1.014-2.668.017-4.34 1.943-3.15.563.348 1-.458 1-1.847 0-1.854-.434-2.354-1.75-2.014-1.433.37-1.792-.298-1.985-3.695-.187-3.313.064-4.032 1.25-3.576.817.313 1.485.133 1.485-.399 0-.533-.707-.969-1.571-.969-1.425 0-1.424-.148.009-1.581 1.802-1.802 1.239-3.382-1.247-3.498-1.107-.052-1.245-.258-.399-.597.923-.371.991-.88.239-1.787-1.589-1.915-1.828-10.46-.327-11.706.7-.582 1.046-1.426.768-1.876-.278-.449.655-2.527 2.073-4.616 1.478-2.179 2.122-3.95 1.51-4.154-.587-.196-.79-.804-.452-1.352.339-.548-.221-.907-1.244-.799-3.92.414-4.208.036-4.032-5.284.152-4.605-.109-5.373-2.125-6.25-1.518-.661-2.14-1.608-1.833-2.791.355-1.368.031-1.653-1.371-1.208-1.545.49-2.032-.294-3.076-4.959-.682-3.048-1.694-5.542-2.248-5.542-.554 0-.734-.273-.401-.606.908-.908-2.451-4.019-5.023-4.652-1.962-.484-2.263-.151-2.35 2.602-.095 3.028-.132 3.055-.9.656l-.801-2.5-.27 2.5a128.782 128.782 0 01-.494 4c-.122.825-.306 2.4-.408 3.5-.103 1.119-.407 1.449-.689.75-.278-.687-.917-1.25-1.421-1.25-1.692 0-.439 2.493 1.583 3.15 1.865.607 1.848.657-.25.75-1.237.055-2.25.582-2.25 1.171 0 .59-.644 1.716-1.432 2.503-1.242 1.243-1.52 1.154-2.099-.672-.455-1.433-.994-1.777-1.69-1.081-.563.563-1.643.785-2.401.494-.898-.345-1.378.194-1.378 1.547 0 1.434.464 1.897 1.5 1.5.942-.362 1.5.01 1.5 1 0 1.048-.586 1.387-1.75 1.012-1.34-.431-1.43-.334-.387.411 1.151.821 1.151 1.057 0 1.515-.95.378-.833.566.387.621.963.043 1.697.417 1.632.829-.315 1.992.338 6.595.78 5.5.798-1.976 2.159-1.459 2.632 1 .372 1.929.453 1.858.57-.5.137-2.76 2.136-3.999 2.136-1.323 0 .784.788 1.632 1.75 1.884 1.667.435 1.667.463 0 .573-.962.064-1.75.791-1.75 1.616 0 .825-.675 1.5-1.5 1.5-1.083 0-1.5 1.111-1.5 4 0 2.525.461 4.006 1.25 4.015.915.012.885.247-.113.879-1.151.729-1.151.948 0 1.406.95.378.833.566-.387.621-1.398.063-1.729.935-1.644 4.329.103 4.083.149 4.143 1.181 1.534.697-1.76 1.707-2.62 2.868-2.443 2.345.358 3.627 1.659 1.634 1.659-.849 0-2.104.675-2.789 1.5-1.064 1.283-.756 1.502 2.128 1.515 1.854.009 2.909.346 2.343.75-.566.404-.965 1.747-.887 2.985.079 1.238-.246 2.25-.721 2.25-.474 0-.863-.675-.863-1.5 0-.905-.926-1.5-2.333-1.5-1.418 0-2.334.595-2.334 1.514 0 1.014.607 1.323 1.834.933 1.008-.32 1.833-.101 1.833.486S52.377 180 51.617 180c-.761 0-1.619.9-1.907 2-.347 1.328-.03 2 .943 2 .806 0 1.182.457.837 1.016-.346.559-1.047.758-1.559.441-.512-.316-.931-.098-.931.484S49.916 187 51.035 187c1.725 0 1.872.305.965 2-.907 1.695-.76 2 .965 2 1.119 0 2.042.563 2.05 1.25.011.846.317.774.947-.222.797-1.262 1.025-1.227 1.589.244.362.944 1.061 1.468 1.554 1.163.492-.304.895-.076.895.506s-.788 1.095-1.75 1.138c-.962.043-1.213.297-.556.565.656.267.941 1.143.633 1.946-.422 1.099-.893 1.185-1.9.349-.737-.611-1.778-.84-2.314-.509-.536.332-1.257.145-1.603-.414-.351-.567.392-1.067 1.681-1.132 1.714-.086 1.855-.235.547-.576-.969-.253-1.505-.875-1.191-1.384.869-1.407-.512-1.102-2.071.457-.759.759-1.065 1.732-.678 2.16.386.429.14.456-.548.06-.773-.445-1.25-.124-1.25.84 0 .857-.423 1.559-.941 1.559-1.42 0-2.227-1.778-1.119-2.463.535-.331.734-1.222.443-1.982-.295-.767.184-1.53 1.077-1.718 1.343-.282 1.273-.544-.426-1.595-1.839-1.138-2.034-1.019-2.034 1.25 0 1.563-.565 2.508-1.5 2.508-2.12 0-1.877 2.985.25 3.07 1.496.06 1.46.195-.25.93-1.1.473-1.55.923-1 1 .55.077.1.527-1 1-1.836.789-1.795.866.5.945 1.921.066 2.163.299 1.048 1.004-.799.506-1.888.65-2.42.321-.564-.348-.693.119-.309 1.118.367.958.248 1.463-.27 1.142-.51-.315-.859.336-.776 1.448.084 1.112.507 2.022.94 2.022.433 0 .787.436.787.969 0 .532-.63.726-1.4.431-1.935-.743-1.55 2.896.4 3.78 1.266.574 1.243.69-.15.75-1.665.071-1.818 2.417-.51 7.82.3 1.238.205 2.25-.212 2.25-.416 0-.71 2.475-.654 5.5.073 3.874-.278 5.5-1.185 5.5-1.85 0-1.588 2.053.461 3.608.962.731 1.269 1.343.682 1.36-.637.019-.935 1.72-.738 4.211.324 4.096 1.306 6.742 1.306 3.519 0-1.043.544-1.427 1.5-1.06.825.317 1.5.078 1.5-.531S43.675 246 44.5 246s1.464-.787 1.421-1.75c-.047-1.045-.282-1.247-.583-.5-.978 2.424-2.337 1.21-2.238-2 .092-3 .153-3.058.796-.75.612 2.198.781 2.278 1.4.668 1.212-3.153.895-6.259-.496-4.868-1.99 1.99-2.828 1.355-1.643-1.245 1.331-2.921 3.612-3.991 5.381-2.524.893.741 1.481.747 1.932.018.356-.577.163-1.049-.431-1.049-.593 0-.887-1.055-.653-2.344.234-1.289.024-2.977-.465-3.75-.49-.773-.897-1.013-.906-.534-.008.48-.69.313-1.515-.372-.961-.797-1.5-.859-1.5-.172 0 .59.784 1.511 1.742 2.047.974.545 1.354 1.339.863 1.8-.483.454-1.08.263-1.325-.425-.246-.688-1.042-1.25-1.77-1.25-2.676 0-.389-3.995 2.357-4.116 1.489-.066 1.92-.306.99-.553-1.064-.283-1.463-1.122-1.133-2.384.383-1.464-.002-1.947-1.548-1.947-2.297 0-3.723-1.544-2.261-2.447.521-.322 1.229-.128 1.575.431.942 1.525 2.51 1.223 2.51-.484 0-.825.498-1.5 1.107-1.5s.848-.675.531-1.5c-.316-.825-.145-1.5.382-1.5 1.514 0 .643-4.426-1.02-5.18-1.249-.566-1.217-.691.193-.75 1.133-.047 1.566-.724 1.311-2.049-.21-1.088.041-2.24.557-2.559.517-.319.939.539.939 1.906 0 1.526.675 2.662 1.75 2.943 1.667.435 1.667.463 0 .573-.962.064-1.75.771-1.75 1.571 0 1.548 6.123 3.205 7.866 2.128.548-.339 1.278-.158 1.624.401.345.559.096 1.016-.553 1.016-.881 0-.865.382.063 1.5.86 1.036.898 1.5.122 1.5-.617 0-1.122.477-1.122 1.059s.52.738 1.155.346c.715-.443.883-.275.44.44-.427.691-.063 1.155.905 1.155.89 0 1.335.457.99 1.016-.346.559-1 .787-1.454.506-.455-.281-1.1.204-1.435 1.076-.405 1.054.06 1.762 1.384 2.108 1.096.287 1.758.901 1.472 1.364-.287.463-1.148.602-1.914.308-2.01-.771-.866 5.65 1.3 7.298 1.485 1.129 1.417 1.264-.652 1.292-1.279.018-2.033.478-1.691 1.032.34.55-.084 1-.941 1S57 234.675 57 235.5s.477 1.5 1.059 1.5.781-.45.441-1 .364-1 1.563-1c1.922 0 2.022.209.842 1.75-.736.963-1.402 1.873-1.479 2.024-.432.845-3.426-1.208-3.426-2.35 0-.766-.622-1.123-1.423-.815-1.929.74 1.325 4.052 4.593 4.675 1.824.347 1.64.473-.847.58-2.258.097-3.309-.37-3.634-1.614-.251-.963-.502-.175-.558 1.75-.075 2.602.148 3.115.869 2 .862-1.333.973-1.333 1 0 .027 1.333.148 1.333 1.091 0 .799-1.129 1.187-1.191 1.568-.25.788 1.94 2.045 1.479 2.724-1 .473-1.723.822-1.933 1.491-.895.515.799.417 2.845-.239 4.984-.695 2.264-1.239 2.977-1.448 1.895-.547-2.84-1.699-1.969-1.836 1.388-.07 1.717-.727 3.492-1.46 3.946-.733.453-1.046 1.11-.695 1.461.35.351 1.537-.262 2.637-1.362s2.281-1.72 2.623-1.377c.343.342.875-.339 1.182-1.514.343-1.311 1.101-1.93 1.961-1.6 1.06.407 1.401-.453 1.401-3.538 0-3.013.352-3.94 1.352-3.557.856.329 1.176 1.51.874 3.219-.392 2.223-.241 2.478.859 1.44 1.096-1.035 1.562-.497 2.597 3 .781 2.638.891 4.387.289 4.593-.534.184-.971 1.898-.971 3.809 0 2.211-.389 3.236-1.068 2.816-.588-.363-.827-1.29-.532-2.059.348-.907-.156-1.399-1.431-1.399-1.083 0-1.969-.436-1.969-.969 0-.532.616-.732 1.369-.443.837.321 1.608-.37 1.986-1.781 1.022-3.818.73-5.807-.855-5.807-.825 0-1.5.45-1.5 1s-.675 1-1.5 1c-.833 0-1.5.889-1.5 2 0 1.1.563 2.007 1.25 2.015.804.01.882.277.217.75-1.376.978-1.255 2.847.283 4.385 1.561 1.561 1.639 4.85.115 4.85-1.888 0-5.833 4.92-5.222 6.512.314.819 1.449 1.488 2.523 1.488s1.724.369 1.445.82c-.279.451-.735 2.081-1.015 3.623-.279 1.541-1.247 3.619-2.15 4.617-.903.998-1.36 2.27-1.016 2.827.344.557-.287 1.501-1.402 2.098S58 287.704 58 288.478c0 .774-.944 3.008-2.099 4.965-1.8 3.051-1.871 3.557-.5 3.557.942 0 1.599-.837 1.599-2.035 0-1.8.26-1.896 2.247-.833 1.236.662 1.752 1.368 1.146 1.57-.606.202-.885 1.503-.62 2.891.293 1.534.988 2.329 1.772 2.028.709-.272 1.538.152 1.841.942.313.816-.037 1.437-.81 1.437-1.672 0-2.85 2.712-1.532 3.527.526.325.956-.111.956-.968 0-1.006.908-1.559 2.559-1.559 1.407 0 2.305-.412 1.994-.915-.311-.503 0-1.142.691-1.421.691-.278.243-.542-.994-.585-1.739-.061-2.276-.704-2.366-2.829-.071-1.692-.292-2.077-.573-1-.844 3.228-2.048 1.791-1.825-2.177.122-2.16-.111-4.466-.518-5.124-.848-1.372 2.888-6.156 4.183-5.356.467.289.849.144.849-.321 0-.466.9-.914 2-.997 1.1-.083 2 .271 2 .787s-.675.938-1.5.938c-1.9 0-1.928 1.4-.059 2.951.792.657 1.165 1.911.83 2.786-.405 1.055-.217 1.348.559.868.644-.398 1.17-1.357 1.17-2.133 0-.836.604-1.177 1.486-.839.982.377 1.89-.396 2.679-2.281 1.132-2.709 1.212-2.739 1.583-.602.215 1.238.828 2.25 1.362 2.25.534 0 .866 1.788.737 3.973-.129 2.185.074 4.281.45 4.658.377.377.184 1.289-.428 2.027-.883 1.063-.582 1.342 1.45 1.342 1.409 0 2.841.45 3.181 1 .34.55 1.604 1.052 2.809 1.116 1.692.09 1.792.22.441.573-.963.252-1.75.923-1.75 1.491 0 .569.586.809 1.303.534 1.245-.478 4.422 4.855 3.911 6.564-.128.428.447 1.038 1.277 1.357.83.318 1.509 1.192 1.509 1.941 0 1.934-3.011.621-5.749-2.507-1.237-1.413-2.286-2.119-2.331-1.569-.045.55-.701-.35-1.456-2-.756-1.65-1.394-2.437-1.419-1.75-.025.688-.469 1.25-.988 1.25-.518 0-.765-.92-.548-2.045.475-2.466-.367-4.955-1.675-4.955-.524 0-.674.45-.334 1s.141 1-.441 1A1.063 1.063 0 0177 301.941c0-.582-.45-.781-1-.441s-1 .141-1-.441.454-1.059 1.008-1.059c.596 0 .494-.831-.25-2.031-1.04-1.678-.998-2.195.242-2.984.825-.525.99-.961.367-.97-.624-.008-1.369-.915-1.657-2.015-.287-1.1-1.041-2-1.675-2-.634 0-.875.45-.535 1 .34.55-.11 1-1 1s-1.364.412-1.053.915c.311.503 0 1.142-.691 1.421-.897.361-.844.529.185.585 1.05.058.915.468-.5 1.512-1.516 1.119-1.677 1.7-.738 2.653.817.829.897 1.794.247 3.007-.618 1.156-.602 2.004.047 2.405 1.577.975 1.171 2.78-.482 2.146-.872-.335-1.917.24-2.535 1.393-.578 1.08-1.635 1.963-2.349 1.963-.713 0-1.298.675-1.298 1.5 0 1.8 1.65 2.042 1.707.25.022-.687.759.079 1.639 1.704 1.12 2.069 1.256 3.068.453 3.335-.629.21-.902.774-.606 1.253.296.479 1.199.617 2.006.307.909-.349 1.468.039 1.468 1.019 0 1.285-.482 1.399-2.565.607-3.54-1.345-3.989-1.248-4.151.902-.089 1.19.474 1.83 1.537 1.75 1.177-.089 1.589.523 1.379 2.047-.22 1.595.312 2.291 2 2.614l2.3.44-2.25.136c-1.237.075-2.25.572-2.25 1.105 0 .532.629.727 1.399.431.769-.295 1.696-.056 2.059.532.954 1.544 2.851 1.315 2.242-.271-.282-.736-.151-2.873.291-4.75.442-1.876.85-2.638.907-1.692.069 1.167.664 1.538 1.852 1.155 1.333-.429 1.427-.332.393.407-1.529 1.092.166 2.764 1.788 1.762a1.106 1.106 0 011.516.372c.322.521.128 1.229-.431 1.575-2.595 1.604 2.515 7.601 5.484 6.436 1.1-.432 1.438-.817.75-.856-.687-.038-1.25-.97-1.25-2.07 0-1.216-.667-2-1.7-2-1.169 0-1.378-.322-.667-1.033 1.602-1.602 4.523-.035 3.856 2.069-.46 1.447-.15 1.688 1.584 1.235 1.861-.487 2.058-.258 1.442 1.681-.629 1.982-.449 2.162 1.533 1.533 1.929-.613 2.167-.416 1.692 1.401-.469 1.794-.113 2.114 2.354 2.114 2.016 0 2.906.498 2.906 1.625 0 1.272-.651 1.495-3 1.025-2.249-.45-3-.231-3 .875 0 .811.675 1.475 1.5 1.475 1.046 0 1.47.983 1.4 3.25-.089 2.914-.169 2.999-.777.824-1.012-3.621-2.869-3.701-2.34-.101.249 1.7 1.052 3.027 1.83 3.027.763 0 1.334.337 1.269.75-.326 2.063.265 3.25 1.618 3.25.825 0 1.5.738 1.5 1.64 0 2.138 2.89 4.288 5.817 4.328 1.857.026 2.192.429 1.683 2.032-.356 1.121-.18 2 .401 2 .57 0 .777.675.461 1.5-.375.976.026 1.5 1.148 1.5 1.196 0 1.572.577 1.231 1.884-.28 1.069.266 2.534 1.262 3.386.965.827 2 2.117 2.3 2.866.452 1.133.703 1.138 1.482.03.765-1.089 1.043-1.055 1.52.186.32.835.151 1.663-.377 1.839-.527.175-.225 1.367.672 2.648 1.094 1.563 1.963 1.998 2.638 1.323.553-.553 1.738-.773 2.634-.49 1.275.405 1.334.306.271-.453-1.431-1.022-.504-1.98 1.607-1.659.688.105 1.813.253 2.5.33.881.099.808.459-.25 1.22-1.266.91-1.227.991.25.516 1.336-.43 1.75.003 1.75 1.832 0 1.44.698 2.578 1.75 2.853 1.667.435 1.667.463 0 .573-.963.064-1.75.791-1.75 1.616v2c0 .275.334.387.743.25s.614-.812.456-1.5c-.474-2.067 1.527-1.406 2.074.685.512 1.958 4.727 1.912 4.727-.052 0-.485.787-.847 1.75-.804 1.045.047 1.247.282.5.583-.687.278-1.25.903-1.25 1.39 0 .487.675.626 1.5.31.934-.359 1.5.007 1.5.969 0 .91.794 1.485 1.931 1.399 1.062-.08 1.667-.571 1.345-1.092-.341-.553-.04-.61.724-.138.866.535 1.068.418.595-.345-.392-.635-.236-1.155.346-1.155s1.059 1.125 1.059 2.5.477 2.5 1.059 2.5.781-.45.441-1c-.35-.566.479-1 1.91-1 1.778 0 2.365.423 1.98 1.427-.398 1.037.011 1.281 1.501.891 1.867-.488 2.01-.169 1.617 3.607-.237 2.278-.7 4.577-1.029 5.109-.328.531-.163.966.368.966s.744.849.472 1.887c-.271 1.038.064 2.232.746 2.653.938.58 1.108-.214.699-3.26-.297-2.214-.147-4.645.333-5.403 1.017-1.605 1.18-.227.906 7.623-.096 2.75.117 4.709.475 4.353.357-.356.69-2.058.739-3.783.051-1.8.556-2.978 1.186-2.766 1.137.383 1.225 10.401.102 11.525-.338.337-1.032-.049-1.544-.858-.686-1.084-.934-.616-.946 1.779-.012 2.609-.421 3.25-2.074 3.25-1.132 0-1.781-.45-1.441-1 .34-.55.029-1.032-.691-1.07-.72-.039-.409-.457.691-.93 1.361-.585 1.52-.892.5-.96-1.197-.08-1.146-.307.25-1.12 2.518-1.467 2.198-3.934-.5-3.85-2.148.067-2.159.11-.25.935 1.726.745 1.623.843-.75.711-2.826-.156-3.102-.599-2.789-4.466.1-1.238-.327-2.25-.948-2.25-.622 0-.855.446-.518.992.337.546.153 1.783-.41 2.75-.928 1.592-1.027 1.6-1.055.081-.016-.922-.817-1.882-1.78-2.134-1.667-.435-1.667-.463 0-.573.963-.064 1.75-.566 1.75-1.116 0-1.451 4.741-1.229 5.338.25.301.747.536.545.583-.5.043-.962-.596-1.75-1.421-1.75-1.061 0-1.509-1.097-1.53-3.75-.025-3.06-.22-3.424-1.061-1.98-.567.974-.748 2.661-.403 3.75.556 1.752.16 1.98-3.439 1.98-4.287 0-4.752-.849-4.102-7.5l.196-2-1.549 2c-1.486 1.92-1.553 1.86-1.659-1.5-.061-1.925-.338-2.937-.615-2.25-.646 1.601-2.419 1.64-2.088.045.138-.662-.2-1.231-.75-1.265-.55-.033-1.562-.418-2.25-.854-.805-.511-1.25-.239-1.25.765 0 .857.675 1.559 1.5 1.559.884 0 1.506.923 1.515 2.25.012 1.675.239 1.897.891.868 1.145-1.808 2.438 1.823 1.51 4.241-.347.903-.169 1.641.394 1.641.563 0 1.25-.563 1.528-1.25.277-.687.54-.211.583 1.059.044 1.3-.358 2.039-.921 1.691-.55-.34-1-.141-1 .441s.675 1.059 1.5 1.059c1.698 0 2.011 1.566.5 2.5-.55.34-1 .167-1-.383 0-.551-1.909-1.14-4.241-1.31-3.316-.24-4.323-.743-4.616-2.307-.206-1.1-.885-2.331-1.509-2.735-.813-.526-.78-.739.116-.75 2.07-.025 1.578-6.003-.5-6.078-1.341-.049-1.224-.275.5-.968 1.237-.498 2.25-1.369 2.25-1.937 0-1.45-1.729-1.289-2.341.218-.381.941-.769.879-1.568-.25-.915-1.294-1.062-1.26-1.076.25-.008.962-.465 1.75-1.015 1.75-.55 0-1-.99-1-2.2 0-1.599-.3-1.9-1.099-1.101-1.215 1.215-.244 5.631 1.061 4.824.45-.278 1.113 1.066 1.474 2.986.36 1.92 1.048 3.491 1.53 3.491.481 0 1.172 1.35 1.534 3 .362 1.65 1.073 3 1.579 3 .507 0 .921.792.921 1.76s1.125 2.974 2.5 4.457c1.375 1.482 2.5 3.165 2.5 3.739 0 .574.927 1.044 2.059 1.044 1.193 0 1.784.445 1.405 1.058-.913 1.477 4.026 8.645 6.498 9.43 1.121.356 2.038 1.242 2.038 1.969 0 2.991 3.678 5.897 7.713 6.092 2.203.107 4.857.73 5.897 1.384 1.667 1.049 1.544 1.135-1.047.731-3.778-.589-5.583.132-5.484 2.193.043.904.286 1.142.538.529.446-1.082 6.153-.949 7.271.168.305.305-.108 1.016-.917 1.579-1.119.779-.813.918 1.279.584 2.637-.422 2.75-.266 2.75 3.808 0 3.817.332 4.405 3.282 5.805 1.805.856 4.168 1.414 5.25 1.238 1.082-.175 2.755.37 3.718 1.212 1.602 1.4 1.75 1.339 1.75-.732 0-1.6-.439-2.093-1.5-1.686-.825.316-1.5.139-1.5-.393 0-.533.675-.969 1.5-.969s1.5-.691 1.5-1.535c0-1.262-.384-1.33-2.152-.384-1.857.994-2.062.92-1.5-.546.359-.934.652-1.873.652-2.085 0-.213.625-.147 1.39.146 1.093.42 1.41-.865 1.488-6.031.056-3.724-.329-6.565-.89-6.565a.997.997 0 00-.988 1c0 1.447-3.739 1.231-4.341-.25-.328-.81-.798-.898-1.333-.25-2.559 3.098-4.326 3.774-4.326 1.654 0-1.448.461-1.914 1.5-1.516.95.365 1.5-.013 1.5-1.031 0-.884.675-1.607 1.5-1.607s1.5-.661 1.5-1.469c0-.894-.586-1.243-1.5-.893-.974.374-1.5-.025-1.5-1.138 0-1.152.519-1.515 1.582-1.107.87.334 1.955.607 2.412.607.456 0 .713 1.069.569 2.375-.208 1.9.209 2.375 2.088 2.375 1.326 0 2.349-.599 2.349-1.375 0-.756.358-1.375.796-1.375.438 0 .696 2.25.573 5-.21 4.719-.083 5 2.263 5 1.403 0 2.217-.436 1.868-1-.34-.55-.141-1 .441-1 1.531 0 1.3 1.902-.441 3.643-1.658 1.657-2.019 4.357-.583 4.357.504 0 1.143-.563 1.421-1.25.277-.687.54 1.113.583 4 .052 3.482.5 5.255 1.329 5.265.935.012.913.229-.085.862-.735.466-1.297 1.134-1.25 1.485.109.817-.644.918-2.19.292-.849-.344-.87-.52-.069-.575.69-.047.925-.965.582-2.275-.548-2.097-.609-2.108-1.336-.25-.66 1.687-.771 1.713-.832.196-.038-.962-.572-1.75-1.187-1.75-.651 0-.917 1.041-.638 2.5.371 1.942.063 2.5-1.384 2.5-2.176 0-2.259.388-.703 3.295 1.802 3.368 3.499 4.702 6.021 4.737 2.256.031 2.267.073.38 1.5-1.068.807-1.489 1.468-.935 1.468 1.493 0 4.699 6.966 5.131 11.15.285 2.762-.145 4.135-1.765 5.644-2.07 1.929-1.257 4.107 1.01 2.706.55-.34 1 .061 1 .891 0 .83-.787 1.951-1.75 2.49-1.77.992-2.644 9.115-.981 9.118.423 0 .499 1.077.169 2.392-.33 1.315-.114 2.691.481 3.059 1.224.756 1.476 2.612.331 2.432-1.97-.312-2.6.244-1.25 1.103 1.245.791 1.284 1.302.232 3-1.044 1.685-.996 2.571.276 5.03.963 1.863 1.136 2.985.459 2.985-.597 0-.831.412-.52.915.311.503.088 1.073-.495 1.268-2.016.672-1.728 4.288.436 5.495 1.922 1.072 1.955 1.238.362 1.857-2.132.827-2.226 2.132-.292 4.065.843.844 1.171 2.183.779 3.179-.637 1.617-.699 1.615-1.031-.029-.194-.962-.8-1.75-1.347-1.75-1.413 0 .097 4.237 2.037 5.714 1.455 1.109 1.442 1.225-.146 1.254-2.222.041-2.403 4.032-.183 4.032 1.753 0 1.068 3.83-.952 5.326-.804.596-.766.968.135 1.333.688.279 1.25 1.145 1.25 1.924 0 .78.468 1.417 1.039 1.417.601 0 .498.58-.244 1.375-.707.756-1.849 1.158-2.54.893-.866-.333-1.255.654-1.255 3.184 0 2.189-.403 3.417-1 3.048-.55-.34-1-.168-1 .382s.45 1.278 1 1.618c.55.34 1 1.395 1 2.345 0 2.338 3.926 2.272 6.5-.11 1.955-1.808 2.015-1.797 2.65.458.739 2.621.734 2.63 1.469-2.443.433-2.982.22-3.75-1.037-3.75-1.092 0-1.54-.852-1.446-2.75.117-2.358.198-2.429.57-.5.537 2.787 2.294 2.978 2.294.25 0-1.1.637-2 1.417-2 .779 0 1.643-.563 1.921-1.25.403-1 .52-1 .583 0 .043.688.866 1.282 1.829 1.32 1.483.06 1.445.191-.25.862-1.1.435-2.562.58-3.25.323-.923-.347-1.25 1.309-1.25 6.338 0 6.4 1.108 7.808 2.287 2.907.341-1.418.524-1.126.629 1 .141 2.86.216 2.909 1.616 1.059 1.453-1.922 1.468-1.922 1.5 0 .031 1.921.046 1.921 1.5 0 .807-1.068 1.468-1.447 1.468-.843 0 .605 2.25 1.676 5 2.381 2.75.704 5.007 1.759 5.015 2.342.009.584.452.386.985-.439.748-1.157.973-1.19.985-.143.008.746.634 1.119 1.391.829.756-.29 2.556.085 4 .834 2.271 1.178 2.624 1.16 2.624-.138 0-.825.39-1.259.866-.965.476.294.649 1.671.383 3.059-.283 1.48-.02 2.524.634 2.524.615 0 1.117-1.602 1.117-3.559 0-2.436-.364-3.334-1.155-2.846-.715.443-.883.275-.44-.44.392-.635.236-1.155-.346-1.155s-1.023-.788-.98-1.75c.047-1.045.282-1.247.583-.5.278.687 1.286 1.25 2.241 1.25 1.431 0 1.689.794 1.469 4.527-.157 2.66.124 4.285.681 3.941.521-.323.947-1.508.947-2.634 0-1.41.468-1.869 1.5-1.472 1.35.518 2.031-1.001 1.618-3.612-.219-1.392 1.663-.763 2.244.75.361.941 1.89 1.5 4.107 1.5 2.155 0 3.534.487 3.538 1.25.003.688.9-.1 1.993-1.75 1.42-2.145 1.989-2.501 1.993-1.25.004.962.457 1.75 1.007 1.75.55 0 1-.487 1-1.083 0-1.169 9.173-.769 12.208.532 1.315.564 1.87.087 2.413-2.075.387-1.544 1.531-3.694 2.542-4.779 1.826-1.96 1.837-1.96 1.837.109 0 2.448 2.976 3.938 4.155 2.08.448-.706.821-2.521.83-4.034.009-1.661.51-2.651 1.265-2.5 1.64.328 2.014-10.211.384-10.838-1.257-.483-1.579-9.791-.38-10.995.414-.417.058-1.818-.791-3.114-1.021-1.558-1.36-3.617-1.002-6.079.298-2.048.279-3.161-.043-2.474-1.06 2.265-2.469 1.302-1.829-1.25.401-1.597.206-2.5-.54-2.5-.642 0-.918-.403-.614-.895.305-.493-.156-1.168-1.023-1.5-2.613-1.003-2.81-.702-.912 1.395.995 1.1 1.321 2 .722 2-.598 0-1.409 1.013-1.803 2.25-.692 2.178-.74 2.186-1.497.25-.661-1.693-.792-1.731-.852-.25-.038.962-.459 1.75-.934 1.75-1.084 0-2.295-8.422-1.507-10.476.39-1.016-.034-1.55-1.272-1.603-1.053-.045-1.316-.297-.607-.583.688-.278 1.25-2.132 1.25-4.121 0-2.433.33-3.287 1.009-2.608.555.555 1.061 4.132 1.124 7.95.09 5.483.31 6.419 1.046 4.455.512-1.367.723-3.279.47-4.25-.254-.97-.087-1.764.371-1.764.458 0 .989.788 1.18 1.75.235 1.187.583 1.374 1.083.581.404-.644.024-1.881-.845-2.75-1.18-1.18-1.246-1.582-.259-1.583.931-.001 1.418-1.989 1.649-6.739.181-3.71.855-7.072 1.5-7.483.834-.53.846-.75.042-.761-.803-.011-1.13-5.963-1.13-20.562 0-11.3-.25-20.797-.556-21.102-.306-.306-.135-1.665.38-3.019 1.347-3.542 1.152-7.035-.425-7.64-1.969-.756-.88-10.466 1.564-13.942 1.063-1.512 1.678-2.806 1.365-2.875-.312-.069-1.13-.183-1.818-.254-1.318-.136-1.554-23.511-.259-25.607.345-.558.27-1.576-.167-2.264-1.113-1.754-1.064-3.127.143-3.985.665-.473.587-.74-.217-.75-1.569-.019-1.616-3.998-.09-7.7 1.406-3.409 2.02-23.086.746-23.873-.498-.308-.906-1.46-.906-2.56 0-1.104.457-1.718 1.02-1.37.56.347 2.54.128 4.399-.485 5.2-1.717 13.581-2.847 13.581-1.832 0 .492 1.58.599 3.512.237 2.824-.53 3.404-.375 2.957.788-.43 1.122.138 1.345 2.537.992 2.845-.417 3.044-.261 2.49 1.948-.332 1.321-.093 4.638.531 7.371 1.771 7.762 2.402 18.469 1.089 18.469-.614 0-1.116.477-1.116 1.059s.45.781 1 .441c.594-.367 1 .812 1 2.91 0 2.724-.341 3.396-1.5 2.952-.825-.317-1.5-.051-1.5.59s.384.929.854.638c.469-.29 1.36.584 1.978 1.941.619 1.358.715 2.469.213 2.469-.501 0-.872 1.371-.825 3.046.082 2.873.262 3.007 3.183 2.367 4.699-1.029 16.597-7.647 16.597-9.231 0-.768.587-1.171 1.304-.895.718.275 3.22-1.468 5.561-3.873 2.34-2.406 4.566-4.33 4.945-4.275 2.169.309 2.864-.396 2.462-2.498-.536-2.805 2.202-4.322 4.444-2.462 1.171.972 1.421.926 1.254-.233-.114-.795-.139-2.346-.057-3.446.149-1.974.17-1.975 1.619-.059 1.086 1.436 1.498 1.566 1.583.5.064-.792.176-2.115.25-2.938.074-.824.81-1.5 1.635-1.503.825-.003 1.511-.904 1.524-2.003.015-1.325.599-1.899 1.736-1.706 1.458.247 8.167-8.364 8.98-11.527.108-.42 1.22-1.712 2.47-2.871 2.977-2.759 7.729-13.369 6.027-13.456-.68-.035-.112-.537 1.263-1.114 1.477-.621 1.988-1.243 1.25-1.52-1.541-.579-1.672-2.399-.147-2.053.606.137 1.251-.987 1.432-2.5.181-1.512 1.29-4.1 2.465-5.75 1.175-1.65 1.78-3 1.346-3-.435 0 .247-.727 1.516-1.616 1.547-1.083 1.975-1.947 1.3-2.622-1.117-1.117-.452-3.762.945-3.762.491 0 .893.75.893 1.667 0 2.411 1.35.7 1.739-2.205.357-2.669-.638-3.163-2.539-1.262-.933.933-1.2.838-1.2-.43 0-.897-1.012-1.826-2.25-2.064-1.916-.369-1.839-.454.519-.57 2.411-.118 2.69-.45 2.16-2.564-.837-3.335.359-6.588 2.388-6.493 1.041.049 1.206.271.433.583-.687.278-1.25 1.128-1.25 1.89 0 .783.615 1.149 1.415.842 1.127-.432 1.304.285.868 3.532-.513 3.825.924 5.866 1.988 2.824.316-.905 1.01-.742 2.515.594 1.207 1.071 1.83 2.494 1.484 3.395-.327.852.041 2.048.818 2.656.776.608 1.558 2.005 1.737 3.105.366 2.251 4.493 5.919 5.008 4.451.184-.523.801-.951 1.373-.951.627 0 .546.594-.206 1.5-1.045 1.259-.877 1.5 1.044 1.5 1.259 0 2.011.279 1.67.619-.928.928 2.113 3.606 3.278 2.886.555-.343 1.008-.146 1.008.436s.637 1.059 1.417 1.059c.779 0 1.643.562 1.921 1.25.403 1 .52 1 .583 0 .043-.687.529-1.25 1.079-1.25.55 0 .888.563.75 1.25-.137.688.346 1.126 1.074.975.729-.151 1.069.139.756.645-.585.947 1.765 2.347 5.042 3.005.343.069.063.8-.622 1.625-1.02 1.229-.951 1.5.378 1.5 1.073 0 1.622.865 1.622 2.559 0 1.796.373 2.327 1.25 1.781.688-.428 2.262-.647 3.5-.488 1.767.229 2.253-.207 2.265-2.03.012-1.711.245-1.96.889-.944.48.758 1.373 1.069 1.984.691.678-.419 1.112.116 1.112 1.372 0 1.132.45 2.059 1 2.059s1 .727 1 1.617c0 1.188.596 1.457 2.25 1.013 1.238-.331 2.839-.609 3.559-.616.72-.008 1.033-.46.696-1.006-.337-.546-.211-1.711.28-2.589.815-1.456 1.04-1.451 2.547.056.909.909 2.078 1.389 2.599 1.068.52-.322 1.41.212 1.977 1.186.908 1.559 1.036 1.471 1.068-.729.02-1.375.689-3.751 1.487-5.281.798-1.529 1.197-3.442.887-4.25-.31-.808-.118-1.469.426-1.469.545 0 1.226.9 1.514 2 .846 3.237 2.71 2.29 2.71-1.378 0-3.979 2.571-6.904 3.634-4.134.369.961.104 2.056-.601 2.492-.97.599-.98.871-.046 1.182.667.223 1.213 2.077 1.213 4.121 0 2.044.405 3.717.9 3.717s.9-.738.9-1.64c0-.902.788-2.288 1.75-3.081 1.667-1.374 1.667-1.416 0-.892-.963.303-1.75.144-1.75-.352 0-.495 1.356-.863 3.014-.816 1.658.048 3.308-.208 3.667-.566.359-.359-.07-.653-.952-.653-.988 0-1.547-.768-1.454-2 .096-1.278.867-2 2.138-2 1.367 0 1.665-.322.954-1.033-1.132-1.132-4.367-.288-4.367 1.14 0 .491-.788.886-1.75.878-1.079-.01-1.328-.297-.65-.75 2.545-1.7 1.618-6.224-1.279-6.239-.451-.003-.906-1.647-1.011-3.654-.104-2.007-.606-3.918-1.115-4.246-.509-.328-1.241-1.608-1.628-2.846-.688-2.207-3.567-3.216-3.567-1.25 0 .55-.752 1-1.671 1s-2.56.788-3.646 1.75c-1.455 1.289-2.091 1.419-2.415.494-.241-.691-.927-.955-1.523-.586-.68.42-.857.077-.474-.921.335-.875-.038-2.129-.83-2.786-1.075-.892-1.441-.901-1.441-.034 0 .822-.409.784-1.395-.128-.767-.709-1.215-1.588-.994-1.954.221-.365-.131-.842-.782-1.059-2.702-.9.439-2.816 3.634-2.217 1.971.37 3.58.18 3.981-.469.371-.6 1.508-1.09 2.528-1.09 1.645 0 1.727-.338.722-3-.742-1.966-1.832-3.005-3.163-3.015-1.69-.013-1.779-.184-.531-1.019 1.296-.867 1.229-1.211-.488-2.519-1.157-.882-2.039-2.81-2.112-4.614-.07-1.726-.851-3.506-1.763-4.016-.9-.504-1.637-1.569-1.637-2.367 0-.797-.351-1.45-.781-1.45-1.311 0-6.042-12.032-5.44-13.836.225-.675-.196-1.1-.935-.945-.894.187-1.378-.814-1.444-2.986-.119-3.885-1.151-5.241-2.439-3.204-.735 1.162-.934.998-.946-.779-.008-1.249-.635-2.25-1.408-2.25-.766 0-1.677-.739-2.024-1.643-.346-.904-.899-1.374-1.228-1.045-1.241 1.241-6.355-5.17-6.37-7.985-.015-2.753-1.937-7.22-1.97-4.577-.009.756-.805.46-2.015-.75-2.757-2.757-2.516-3.272 1.149-2.467l3.149.691-.586-3.612c-.324-1.997-.167-3.612.351-3.612.515 0 .937.9.937 2 0 3.732 4.01.973 5.449-3.75.377-1.238 1.105-2.25 1.618-2.25 1.399 0 1.124-3.756-.317-4.338-.76-.306-.578-.535.465-.583 2.328-.107 3.624-2.846 3.984-8.417.166-2.563.596-4.661.957-4.661.361-.001.409-.947.107-2.103-.323-1.234.026-2.461.844-2.97 1.119-.697 1.155-1.252.179-2.826-.952-1.536-.952-2.066 0-2.452.928-.376.919-.511-.036-.571-1.344-.085-1.784-4.079-.45-4.079.44 0 .862-1.012.938-2.25.077-1.238.411-5.625.743-9.75s.523-12 .425-17.5c-.409-22.972-.209-21.25-2.47-21.25-1.135 0-3.329-1.173-4.875-2.606-1.547-1.434-3.206-2.363-3.687-2.066-.481.297-.874-.354-.874-1.448 0-1.093-.616-2.603-1.368-3.355-.753-.753-1.683-2.36-2.067-3.572-.385-1.211-1.119-2.203-1.632-2.203-.513 0-.851-.338-.751-.75.1-.412-.31-2.55-.912-4.75-1.793-6.56-5.075-21.681-5.732-26.407-.78-5.616-5.664-16.227-7.205-15.654-.642.239-1.428-.243-1.745-1.071-.368-.957-1.278-1.284-2.499-.896-1.056.335-2.21.141-2.564-.431-.354-.573.085-1.041.975-1.041s1.335-.457.99-1.016c-.346-.559-1.097-.727-1.671-.372-.573.354-1.33.19-1.681-.366-.873-1.381-13.948.879-13.455 2.326.201.589-1.221 2.705-3.159 4.7-1.938 1.996-3.524 4.064-3.524 4.595 0 .532-.538 1.146-1.195 1.365-.659.219-1.219 2.271-1.25 4.58-.03 2.3-.344 4.183-.698 4.185-1.609.008-2.156 4.718-2.424 20.9-.2 11.998-.655 17.622-1.468 18.125-.899.555-.891.906.035 1.478.93.575.896.951-.143 1.61-.746.473-.867.866-.269.875 1.255.017 1.565 21.656.38 26.515-.402 1.65-.785 2.411-.85 1.691-.134-1.483-2.118-.614-2.118.927 0 .55.354.782.786.514.432-.267.785.382.785 1.441 0 1.06-.353 1.927-.785 1.927-.432 0-.786.477-.786 1.059s.449.782.998.442c.628-.388.865 1.15.638 4.151-.197 2.622.056 6.269.562 8.104.507 1.836.759 4.779.56 6.541l-.361 3.203-1.182-2.5c-1.055-2.233-1.145-1.967-.841 2.489.369 5.406-4.787 23.173-8.454 29.129-1.056 1.715-1.92 4.302-1.92 5.75 0 1.673-.547 2.632-1.5 2.632-.825 0-1.5.884-1.5 1.965 0 6.491-9.401 22.586-12.498 21.397-.856-.328-1.755.134-2.123 1.092-.35.913-1.254 1.424-2.008 1.135-.754-.289-1.371-.138-1.371.335 0 .474.675 1.121 1.5 1.438 2.214.849 1.822 3.741-.593 4.373-1.65.431-2.004 1.152-1.673 3.406.331 2.255.034 2.859-1.407 2.859-1.005 0-1.715.347-1.577.771.137.425-1.381 2.787-3.375 5.25-4.706 5.813-7.171 10.739-6.555 13.096.298 1.138-.027 1.883-.82 1.883-.852 0-1.115-.757-.749-2.156.387-1.478.2-1.932-.593-1.441-.637.393-1.158 1.363-1.158 2.156 0 .793-.645 1.441-1.433 1.441s-1.72.907-2.072 2.015c-.351 1.108-1.057 1.756-1.567 1.441-.51-.316-.928-.097-.928.485s1.238 1.066 2.75 1.074c1.856.011 2.323.287 1.435.849-.723.459-2.416.623-3.762.366-1.79-.342-3.001.236-4.508 2.151-1.133 1.44-2.496 2.619-3.029 2.619-.533 0-1.963.948-3.178 2.106-1.214 1.158-4.795 3.242-7.958 4.631-3.163 1.388-5.75 2.916-5.75 3.394 0 1.44-3.665.977-5-.631-.685-.825-2.09-1.5-3.122-1.5-1.033 0-1.882-.337-1.886-.75-.005-.413-1.967-2.772-4.361-5.243-3.813-3.937-4.252-4.841-3.548-7.297.688-2.398.45-2.965-1.639-3.918-1.344-.612-2.444-1.517-2.444-2.012 0-.494.45-.62 1-.28 1.054.651 1.084.521 1.457-6.346.129-2.39.832-4.715 1.561-5.165.729-.451 1.435-2.32 1.568-4.154s.281-3.699.328-4.144c.047-.445.536-.531 1.086-.191s1-.046 1-.858c0-.811-.562-1.702-1.25-1.98-.954-.385-.937-.523.071-.583 1.627-.097 4.179-2.551 4.179-4.018 0-.979 5.443-9.344 8.498-13.061.678-.825 1.55-2.827 1.936-4.448.563-2.36.908-2.659 1.729-1.5.818 1.155.905 1.076.427-.395-.422-1.3-.008-1.996 1.406-2.366 2.467-.645 2.646-2.279.254-2.323-1.667-.03-1.667-.095 0-1.36.962-.731 1.75-2.269 1.75-3.419 0-1.149.788-2.548 1.75-3.109 1.384-.806 1.437-1.032.25-1.08-1.187-.048-1.134-.274.25-1.08 2.171-1.264 2.39-4.379.25-3.558-.825.316-1.5.139-1.5-.393 0-.533.675-.969 1.5-.969s1.5-.45 1.5-1 .49-1 1.09-1c1.618 0 4.839-4.219 4.877-6.39.018-1.039.707-2.389 1.531-3 .823-.61 1.597-2.348 1.718-3.86s.604-2.75 1.074-2.75c.469 0 1.528-.675 2.353-1.5.825-.825 1.032-1.5.46-1.5-.572 0-.767-.713-.432-1.584.447-1.166.805-1.263 1.359-.368.509.824.99.464 1.493-1.119.407-1.285 1.356-2.951 2.107-3.702.867-.867 1.357-3.625 1.341-7.547-.014-3.399.155-8.205.374-10.68.466-5.248-.022-7-1.952-7-.766 0-1.393-.45-1.393-1s.561-.887 1.246-.75c.873.175 1.335-1.768 1.546-6.5.223-5.01-.034-6.754-.996-6.765-.898-.011-.954-.241-.181-.75 2.317-1.526 2.561-4.956.394-5.522-1.822-.477-1.915-.826-.845-3.174.943-2.069.931-3.387-.054-6.111-.691-1.911-1.175-4.701-1.077-6.201.309-4.717.001-6.366-1.067-5.706-.67.414-.813-.358-.405-2.191 1.545-6.948 1.631-8.33.517-8.33-.841 0-.86-.539-.07-2.015.681-1.271.764-3.207.227-5.25-.468-1.779-.542-5.017-.166-7.196.377-2.178.323-4.653-.119-5.5-.442-.846-1.11-2.439-1.484-3.539l-.681-2-.822 2c-.653 1.588-.821 1.28-.814-1.5.005-1.925.236-2.937.513-2.25.599 1.484 3.338 1.689 3.338.25 0-.55-.436-1-.969-1-.532 0-.738-.6-.457-1.332.281-.733.03-3.321-.558-5.75-.588-2.43-1.324-7.563-1.635-11.406-.311-3.844-.974-7.751-1.473-8.684-1.187-2.217-1.152-3.097.092-2.328.565.349 1-.473 1-1.891 0-1.38.781-2.947 1.736-3.481 1.515-.848 1.388-1.059-1-1.658-1.505-.378-2.736-1.313-2.736-2.078 0-.766-.477-1.392-1.059-1.392s-.738-.52-.346-1.155c.451-.729.274-.882-.481-.416-.856.529-1.018.038-.573-1.736.368-1.465.136-2.774-.567-3.209-.911-.563-.902-.911.037-1.491.903-.558.681-1.301-.84-2.822-1.135-1.135-2.782-3.451-3.658-5.146-1.507-2.914-1.713-2.999-3.776-1.553-1.2.84-2.644 1.521-3.21 1.513-.565-.009-.352-.452.473-.985 1.213-.784 1.069-.972-.75-.985-1.238-.008-2.257.548-2.265 1.235-.011.84-.256.898-.75.177-1.688-2.465-4.235-2.437-4.235.045 0 1.326-.516 2.729-1.146 3.118-.812.502-.943-.1-.449-2.067.556-2.215.396-2.661-.79-2.206-.817.314-1.657.056-1.867-.573-.21-.629-.694-.328-1.076.669M252.063 95.25c-.034 1.513.387 2.75.937 2.75s1 .477 1 1.059-.45.781-1 .441-1-.141-1 .441-.675 1.059-1.5 1.059c-1.151 0-1.516 1.336-1.569 5.75-.073 6.138-.499 10.369-1.406 14-.472 1.885-.156 2.25 1.947 2.25h2.51l-2.843 2.75c-1.563 1.513-2.647 3.313-2.407 4 .699 2.008 2.1 1.441 2.472-1 .197-1.288.936-2.12 1.728-1.947.762.166 1.739-.271 2.172-.971.433-.701 1.066-.995 1.408-.654.341.342-.389 1.561-1.623 2.711-2.528 2.355-2.048 3.77.764 2.253 2.291-1.235 5.521-2.441 6.847-2.556 1.104-.095 1.194-.56 1.375-7.086.098-3.542.498-4.515 1.875-4.57 1.432-.058 1.478-.194.25-.75-1.388-.629-1.648-2.058-1.912-10.489-.05-1.601-.518-2.543-1.088-2.191-.843.521-1.542-3.07-1.118-5.75.065-.412-.332-.75-.882-.75s-1 2.073-1 4.607c0 3.684-.3 4.492-1.5 4.031-.825-.316-1.5-.153-1.5.362s-.675.678-1.5.362c-1.097-.421-1.5.125-1.5 2.031 0 1.434-.338 2.607-.75 2.607s-.75-1.805-.75-4.011c0-2.752.384-3.864 1.224-3.542.673.259 1.671-.299 2.219-1.239.933-1.6.998-1.597 1.027.042.016.963.48 1.75 1.03 1.75 1.609 0 1.148-4.729-.524-5.371-.838-.321-1.935-1.607-2.437-2.857-.883-2.2-.914-2.184-.976.478m-11.993 7.067c-.058 2.35-.402 2.712-2.07 2.183-1.147-.364-2-.18-2 .433 0 .587.689 1.067 1.531 1.067 2.083 0 2.742 2.128 1.568 5.065l-.972 2.435-.064-2.417c-.113-4.341-1.265-1.339-1.671 4.356-.235 3.31.01 5.561.606 5.561.551 0 1.002-.638 1.002-1.417s.563-1.643 1.25-1.921c1-.403 1-.52 0-.583-1.788-.113-1.552-2.079.25-2.079.833 0 1.5-.889 1.5-2 0-1.1.443-2 .983-2 .545 0 .88 2.231.75 4.998-.128 2.749-.571 4.999-.983 5-.412.001-.75-.448-.75-.998s-.45-1-1-1-1 2.025-1 4.5-.42 4.5-.934 4.5c-.513 0-.73-1.125-.48-2.5.249-1.375-.006-2.5-.566-2.5-.561 0-1.02 1.098-1.02 2.441 0 2.723-1.551 4.261-2.336 2.315-.278-.691-.542-.292-.585.887-.043 1.179-.754 2.402-1.579 2.719-1.694.65-2.073 4.638-.441 4.638.582 0 .781-.45.441-1-.879-1.422.852-1.241 2.386.25 1.038 1.008 1.248.863 1.085-.75-.373-3.705.023-5.622 1.033-4.998.552.341.727 1.723.388 3.071-.505 2.013-.312 2.334 1.081 1.799 1.366-.524 1.436-.836.361-1.605-1.036-.742-.978-.843.257-.454 4.114 1.298 5.744-4.146 5.849-19.532.053-7.734-.128-8.646-1.604-8.08-.915.352-1.422.225-1.125-.281.296-.506.177-1.82-.266-2.92-.696-1.729-.814-1.619-.875.817M372.5 103c-.351.568-1.057.774-1.569.457-.512-.316-.931.127-.931.984 0 1.865 1.604 2.072 2.391.309.307-.687.52-.125.473 1.25-.158 4.619.364 9.517.825 7.75.563-2.155 2.311-2.32 2.311-.219 0 2.094-2.697 2.965-4.513 1.458-1.244-1.032-1.497-.846-1.545 1.139-.119 4.849-.077 22.442.058 24.372l.141 2 .791-2c.435-1.1.697-3.463.583-5.25-.115-1.787.173-3.25.638-3.25.466 0 .847 2.733.847 6.073 0 5.116.261 6.023 1.656 5.75 1.814-.354 2.71-3.479 1.255-4.378-.501-.31-.904-1.549-.896-2.754.013-1.781.197-1.91.985-.691.732 1.132.99.642 1.054-2 .046-1.925.255-4.81.464-6.411.209-1.601-.063-3.739-.604-4.75-.677-1.265-.643-1.839.11-1.839.602 0 .828-.43.503-.956-.325-.526-1.313-.68-2.195-.341-1.018.39-1.454.164-1.193-.619.226-.679.769-1.088 1.206-.909 1.202.491 2.865-3.026 2.053-4.34-.485-.784-.024-.971 1.446-.586 1.186.31 2.156.156 2.156-.343 0-.498-.675-.906-1.5-.906-1.022 0-1.505-1.035-1.515-3.25-.009-1.787-.452-3.925-.985-4.75-.721-1.116-.973-.539-.985 2.25-.008 2.063-.419 3.75-.912 3.75-.494 0-.822-1.612-.729-3.582.172-3.65-.723-5.281-1.874-3.418m-99.41 1.75c-.049.688-.765 1.25-1.59 1.25-.833 0-1.5.889-1.5 2 0 1.1-.436 2-.969 2-.532 0-.688-.787-.346-1.75.53-1.492.326-1.456-1.386.25-1.104 1.1-1.703 2.225-1.332 2.5.372.275.703 2.975.736 6 .095 8.727.153 8.992 1.84 8.345.849-.326 1.32-.815 1.048-1.088-1.218-1.217 2.617-3.422 4.939-2.839 2.251.565 2.469.331 2.455-2.649-.012-2.478-.25-2.906-.985-1.769-.556.861-.976 1.002-.985.332-.008-.643-.324-1.993-.702-3-.605-1.613-.485-1.668 1-.46 1.458 1.187 1.687 1.145 1.687-.309 0-.924-.45-1.403-1-1.063-.55.34-1 .174-1-.368s.788-1.191 1.75-1.443c1.624-.424 1.626-.465.029-.573-1.035-.07-2.096-1.413-2.66-3.366-.516-1.787-.979-2.687-1.029-2m-12.208 27.5c-.066.688-.066 1.588 0 2 .065.412-.332.75-.882.75s-1-.579-1-1.287c0-1.511-3.69-2.024-4.549-.633-.324.524-1.008.694-1.52.377-.512-.316-.931.343-.931 1.465 0 1.316-.847 2.252-2.386 2.639-1.783.447-2.253 1.102-1.863 2.594.376 1.44.085 1.905-1.049 1.67-.864-.179-1.488.125-1.386.675.101.55.747.938 1.434.861 1.634-.181 1.618 1.284-.022 1.913-.7.269-1.377 1.759-1.506 3.313-.255 3.085 1.252 2.292 2.065-1.087.265-1.1.533.588.597 3.75.089 4.393.47 5.75 1.616 5.75.853 0 1.5.898 1.5 2.083 0 1.245.503 1.899 1.25 1.625.688-.252 1.056-1.077.818-1.833-.237-.756-.391-3.738-.342-6.625.091-5.272-1.21-7.204-2.02-3-.372 1.929-.453 1.858-.57-.5-.088-1.782.368-2.75 1.294-2.75.787 0 1.626-1.012 1.864-2.25.307-1.59.474-1.276.57 1.071.116 2.834 1.971 6.179 3.427 6.179.238 0 .729-2.516 1.091-5.591.361-3.075 1.323-6.257 2.137-7.071.815-.815 1.481-2.799 1.481-4.409 0-2.853-.882-4.176-1.118-1.679m12.118-.542c0 .573-1.069 1.042-2.375 1.042-3.201 0-6.208 3.213-7.011 7.492-.599 3.193-.427 3.561 1.863 3.998 1.388.266 2.523.095 2.523-.379 0-.473.48-.861 1.067-.861.634 0 .793.864.393 2.125-.454 1.43-.312 1.902.433 1.441.609-.376 1.107-1.17 1.107-1.765 0-.594.75-1.629 1.667-2.3 1.211-.885 1.618-2.54 1.486-6.042-.152-3.998-1.153-8.126-1.153-4.751m-46.8 8.492c-1.445 1.445-1.619 5.177-.2 4.3.55-.34 1-.141 1 .441s-.675 1.059-1.5 1.059-1.5.48-1.5 1.067c0 .637.866.793 2.146.387 1.836-.583 2.064-.366 1.578 1.493-.36 1.378-.047 2.375.854 2.721.843.324 1.422 1.928 1.422 3.939 0 2.261.473 3.393 1.417 3.393.779 0 1.643.563 1.921 1.25.277.688.54-.043.583-1.622.065-2.356.333-2.662 1.49-1.702 1.798 1.492 2.969-.154 2.086-2.935-.376-1.184-.175-1.991.495-1.991.619 0 .805-.52.413-1.155-.414-.668-.278-.884.323-.513.655.405 1.026-.92 1.008-3.596-.016-2.33-.221-3.449-.455-2.486-.235.963-.871 1.75-1.413 1.75s-.764-.359-.493-.798c.271-.439.08-1.451-.426-2.25-.745-1.179-.921-1.093-.934.453-.014 1.782-.133 1.798-1.844.25-2.733-2.474-4.171-2.01-4.171 1.345 0 1.886.513 3 1.382 3 .937 0 1.4 1.289 1.437 4 .031 2.2-.352 4-.85 4-.499 0-.669-.617-.38-1.371.289-.754-.23-2.127-1.153-3.05-1.119-1.12-1.722-3.496-1.808-7.127-.134-5.691-.445-6.235-2.428-4.252m-2.185 17.741c-.015 2.362-.063 2.378-1.483.5-1.402-1.853-1.47-1.857-1.5-.084-.022 1.272-.527 1.667-1.605 1.253-1.124-.431-1.463-.105-1.19 1.144.21.96.918 1.633 1.572 1.496.655-.137 1.191.473 1.191 1.357 0 1.018-.55 1.396-1.5 1.031-.942-.361-1.5.011-1.5 1 0 .99-.558 1.362-1.5 1-1.681-.645-2.119 1.862-.5 2.862.55.34 1 .141 1-.441 0-1.392 3.69-1.37 4.554.028.369.598.171 1.588-.441 2.2-.817.817-1.113.661-1.113-.587 0-.935-.45-1.7-1-1.7s-1 .45-1 1-.624 1-1.387 1c-1.531 0-2.68 5.273-1.548 7.105.391.633 1.212.842 1.823.464.634-.392 1.112-.017 1.112.872 0 .857-.675 1.559-1.5 1.559-1.353 0-1.944 1.187-1.618 3.25.065.412-.332.75-.882.75s-1-.525-1-1.167c0-.641-.277-.889-.616-.55-1.165 1.165-1.611 19.975-.457 19.262.59-.365 1.125-1.649 1.189-2.854.09-1.692.22-1.792.573-.441.303 1.158 1.436 1.75 3.353 1.75 2.163 0 2.75-.38 2.32-1.5-.337-.877-.012-1.506.781-1.515 1.053-.012 1.02-.247-.143-1.045-1.155-.793-.811-.962 1.5-.735 2.447.241 2.942-.046 2.683-1.555-.175-1.023.124-1.578.669-1.241.543.335 1.698-.102 2.567-.971 1.441-1.441 1.581-1.398 1.581.491 0 1.139.498 2.071 1.107 2.071s.834-.712.5-1.582c-.334-.87-.607-2.246-.607-3.059 0-.812-.45-1.199-1-.859-.55.34-1-.11-1-1s.45-1.34 1-1c1.4.865 1.251-.849-.2-2.3-.66-.66-.853-1.2-.429-1.2.425 0 .097-.675-.728-1.5s-2.432-1.5-3.572-1.5c-1.139 0-2.071-.436-2.071-.969 0-.532.639-.723 1.42-.423.92.353 1.58-.276 1.873-1.782.434-2.226.483-2.238 1.142-.284.379 1.123 1.571 2.108 2.649 2.189 1.077.082 1.781-.162 1.563-.542-.218-.379-.035-1.589.408-2.689l.804-2 .086 2c.17 3.964 2.024-.809 2.04-5.25.011-3.118-.385-4.25-1.485-4.25-.989 0-1.5-.99-1.5-2.906 0-2.414-.339-2.818-2-2.384-1.1.288-2 1.146-2 1.907 0 .76-.487 1.383-1.082 1.383-.652 0-.9-1.345-.624-3.392.251-1.866.07-4.004-.403-4.75-.617-.974-.865-.668-.876 1.083m17.565 1.486c-.354 1.885-1.11 3.583-1.681 3.773-.571.191-1.266 3.196-1.544 6.679-.35 4.376-.174 6.127.57 5.668.591-.366 1.075-1.217 1.075-1.892 0-.674.9-1.226 2-1.226 2.644 0 2.536 1.01-.25 2.339-2.081.993-2.006 1.061.998.903 3.322-.175 4.679-2.905 2.002-4.03-1.086-.456 1.243-2.75 3.25-3.201 3.083-.694 6.492-5.44 3.906-5.44-.498 0-.906.45-.906 1s-.408 1-.906 1c-.499 0-.671-.9-.384-2 .293-1.118.031-2-.593-2-.615 0-1.117.477-1.117 1.059s-.408.807-.906.499c-.498-.308-.652-1.531-.342-2.717.48-1.838.233-2.07-1.673-1.572-1.668.436-2.098.222-1.689-.842.301-.785.161-1.427-.31-1.427-.472 0-1.147 1.542-1.5 3.427M62.885 157.75c-.063.412-.035 1.537.063 2.5.203 1.997-1.552 2.391-2.228.5-.245-.687-.754-.966-1.131-.619-.376.347.037 1.352.917 2.233 1.936 1.935 2.729 5.373 1.425 6.178-.52.322-1.219-.13-1.555-1.004-.471-1.229-.923-1.329-1.993-.441-1.723 1.43-1.802 2.987-.133 2.653.721-.144 1.216.703 1.171 2-.055 1.534.496 2.25 1.731 2.25 1.162 0 2.026.985 2.412 2.75.332 1.512.776 3.313.988 4 .221.716-.482 1.25-1.642 1.25-1.116 0-1.75-.45-1.41-1 .34-.55-.084-1-.941-1-2.005 0-2.026 1.884-.03 2.65 1.322.507 1.288.77-.25 1.936-1.68 1.275-1.682 1.352-.029 1.382.962.018 1.75-.445 1.75-1.027 0-.582.457-.776 1.016-.431.559.346.841.935.625 1.309-.215.375-.029 1.581.414 2.681.627 1.558.82 1.172.875-1.75.038-2.062.52-3.75 1.07-3.75 1.466 0 1.223-2.987-.25-3.07-.687-.039-.407-.402.623-.806 1.727-.679 1.746-.862.25-2.359-1.943-1.942-2.072-3.389-.373-4.182 1-.466 1-.7 0-1.166-.687-.321-1.25-1.248-1.25-2.059 0-.812.45-1.198 1-.858.55.34 1-.084 1-.941S66.55 166 66 166s-.993-.787-.985-1.75c.012-1.363.206-1.45.875-.393.681 1.074 1.022 1.095 1.638.098.463-.749.109-1.747-.875-2.467-.909-.665-1.653-1.946-1.653-2.848 0-1.596-1.885-2.388-2.115-.89m319.13 7.5c.009.688.435 1.913.948 2.724.611.967.53 1.721-.237 2.195-.642.397-.819 1.071-.393 1.498.427.426 1.194.113 1.706-.696.788-1.246.933-1.214.946.213.009 1.074-.98 1.834-2.735 2.1l-2.75.416 2.75.15c3.933.214 3.7 3.15-.25 3.15-2.368 0-3 .437-3 2.071 0 2.084-2.35 5.246-3.238 4.357-.263-.262-1.046.21-1.742 1.048-.696.838-1.885 1.524-2.642 1.524-.758 0-1.43.787-1.493 1.75-.064.963-.22 2.2-.348 2.75-.128.55-.301 1.589-.385 2.309-.083.72-.602 1.031-1.152.691-.55-.34-1.056.084-1.125.941-.069.857-.238 2.009-.375 2.559-.137.55-.306 1.45-.375 2s-.8 1-1.625 1c-1.056 0-1.5 1.067-1.5 3.607 0 2.795.338 3.477 1.5 3.031.93-.356 1.5.005 1.5.952 0 .956-.468 1.247-1.25.777-.962-.578-.987-.419-.108.691.629.793 1.304 2.218 1.5 3.166.273 1.315.713 1.475 1.858.674 1.134-.794 1.194-1.174.244-1.56-.691-.28-1.055-.834-.81-1.232.246-.398.548-3.509.671-6.915.21-5.827 1.09-7.773 2.233-4.941.403 1 .52 1 .583 0 .113-1.786 1.746-1.552 1.746.25 0 .825-.6 1.5-1.334 1.5-.733 0-1.333.702-1.333 1.559s.45 1.281 1 .941c.611-.378 1 1.156 1 3.941 0 2.552.468 4.559 1.063 4.559.584 0 .983-.787.885-1.75-.499-4.903.131-8.25 1.552-8.25.825 0 1.5-.863 1.5-1.917s.563-2.143 1.25-2.421c1-.403 1-.52 0-.583-.751-.047-1.25-1.5-1.25-3.638 0-2.156.401-3.311 1.016-2.931.559.346.755 1.051.436 1.568-1.144 1.85.552 4.734 2.486 4.228 1.953-.511 3.333-7.25 1.945-9.495-.373-.604-.216-2.427.351-4.051.714-2.05 1.27-2.562 1.818-1.676.963 1.559 2.215-4.577 1.565-7.669-.241-1.147-.036-2.722.457-3.5.732-1.158.898-1.107.911.276.008.93.541 2.016 1.185 2.414.787.486.961.178.531-.941-.351-.915-.216-1.664.299-1.664s.662-.717.326-1.593c-.421-1.098-1.498-1.462-3.469-1.173-1.918.282-2.857-.016-2.857-.907 0-.73-.45-1.327-1-1.327s-.993.563-.985 1.25M137 183.333c0 1.016-.804 1.667-2.059 1.667-1.132 0-1.781.45-1.441 1 .34.55.115 1-.5 1s-.84.45-.5 1c.34.55-.084 1-.941 1-1.25 0-1.559 1.272-1.559 6.418 0 7.379-.792 10.517-2.124 8.416-.653-1.03-.849-.947-.861.366-.008.935.772 2.207 1.735 2.826 1.667 1.071 1.667 1.099 0 .581-2.032-.632-2.529 2.794-.58 3.998.787.486.961.178.531-.941-.351-.915-.255-1.664.214-1.664 1.038 0 2.188 4.024 1.478 5.174-.859 1.388-2.221.923-2.704-.924-.344-1.317-.486-1.193-.573.5-.084 1.622.442 2.25 1.884 2.25 1.1 0 2-.45 2-1s.375-1 .833-1c.459 0 .834.675.834 1.5 0 1.042-1.093 1.519-3.584 1.563-3.153.056-3.313.172-1.333.968 2.379.957 2.914 2.44 1.25 3.469-.55.34-1-.084-1-.941s-.498-1.559-1.107-1.559-.848.675-.531 1.5c.316.825.139 1.5-.393 1.5-.533 0-.976-.787-.984-1.75-.013-1.496-.157-1.532-.985-.25-1.489 2.304-1.202 2.999 1.25 3.015 1.643.011 1.884.247.893.875-.946.6-1.021 1.067-.25 1.544 1.333.824 3.346-.238 2.635-1.389-.695-1.124 3.724-1.863 6.063-1.013 2.613.95 6.679-.502 4.222-1.507-.928-.38-1.443-1.326-1.145-2.102.298-.776.944-1.163 1.437-.858.492.304.895-.149.895-1.006s-.398-1.559-.883-1.559c-.486 0-1.119-.9-1.407-2-.34-1.3-.03-2 .884-2 .773 0 1.399-.787 1.391-1.75-.013-1.496-.157-1.532-.985-.25-.872 1.349-1.43.725-1.118-1.25.065-.412-1.184-.75-2.775-.75-2.866 0-4.928-2.375-3.063-3.527.526-.325.956.111.956.968 0 2.201 3.219 1.936 5.811-.48 2.864-2.668 2.768-3.783-.31-3.605-1.375.079-2.5.707-2.5 1.394-.001.688-.409 1.25-.907 1.25-.499 0-.671-.9-.384-2 .288-1.1 1.146-2 1.907-2 .76 0 1.383-.9 1.383-2s-.498-2-1.107-2-.848.675-.531 1.5c.334.873.016 1.5-.762 1.5-.915 0-1.22-1.008-.966-3.189.214-1.841-.159-3.526-.881-3.985-.901-.572-.77-.8.466-.811 1.172-.01 1.52-.531 1.095-1.639-.552-1.438-.314-1.422 2.062.135 2.949 1.932 4.477 1.527 2.422-.642-.714-.753-1.455-2.494-1.646-3.869-.412-2.966-1.152-4.036-1.152-1.667m249.75 13.059c-.962.731-1.75 2.052-1.75 2.937 0 1.015-.55 1.397-1.492 1.036-.851-.327-1.755.116-2.107 1.031-.338.882-1.167 1.604-1.841 1.604-.675 0-1.227.675-1.227 1.5 0 1.817 1.326 1.988 1.947.25.864-2.419 1.304-.21.647 3.25-.422 2.225-.712 2.68-.795 1.25-.196-3.351-2.132-2.723-2.132.691 0 1.618.45 3.219 1 3.559.55.34 1 .115 1-.5s.457-.835 1.016-.49c.559.346.758 1.047.441 1.559-.316.512.014.938.734.946.889.011.956.251.21.75-2.061 1.379-1.208 4.235 1.266 4.235 1.889 0 2.333-.533 2.333-2.8 0-1.54.54-3.34 1.2-4 .933-.933.829-1.2-.469-1.2-1.072 0-1.463-.536-1.093-1.5.317-.825 1.417-1.5 2.444-1.5 1.58 0 1.722-.386.918-2.5-.523-1.375-.574-2.5-.113-2.5 1.313 0 .41-5.196-1.065-6.131-1.003-.636-.9-.842.428-.854.962-.008 1.75-.465 1.75-1.015 0-1.348-1.139-1.21-3.25.392m6.761 12.108c-.482 1.65-.814 3.894-.738 4.987.098 1.409-.099 1.604-.676.67-.932-1.508-2.474 3.884-2.157 7.544.112 1.291-.663 2.734-1.875 3.49-2.425 1.515-2.686 2.809-.565 2.809.825 0 1.5-.45 1.5-1s.436-1 .969-1c.532 0 .709.675.393 1.5-.317.825-1.373 1.5-2.347 1.5-2.838 0-4.585 3.219-4.13 7.611.171 1.652 5.115.408 5.115-1.287 0-.793.402-1.194.893-.89 1.091.674 2.419-4.121 1.537-5.547-.347-.562.314-1.269 1.469-1.571 2.073-.542 2.492-1.373 2.178-4.316-.143-1.333-.034-1.333.976 0 .997 1.317 1.075 1.308.641-.072-.277-.881.358-2.104 1.445-2.782 2.331-1.456 1.579-3.122-1.448-3.209-2.069-.06-2.052-.119.306-1.06l2.497-.995-2.179-1.691c-1.199-.93-2.347-3.041-2.553-4.691l-.373-3-.878 3m-18.375 25.25c-.075.688-1.022 1.25-2.105 1.25-1.345 0-1.785.478-1.388 1.511.415 1.082.121 1.336-1.032.893-1.031-.395-1.611-.089-1.611.85 0 1.014.851 1.368 2.75 1.143 1.512-.179 1.962-.083 1 .212-.962.296-1.75.955-1.75 1.464 0 .51-.788.934-1.75.942-1.115.01-1.337.282-.611.75.826.533.757 1.09-.25 2.024-1.159 1.076-1.389.879-1.389-1.191 0-1.364-.403-2.729-.895-3.033-1.42-.877-2.261 2.542-1 4.062.834 1.005.839 1.373.017 1.373-.617 0-1.129-.562-1.137-1.25-.011-.833-.339-.75-.985.25-1.374 2.126-1.229 3 .5 3 .825 0 1.5.498 1.5 1.107s-.638.862-1.417.563a1.534 1.534 0 00-1.969.893c-.303.79-.157 1.437.324 1.437s.639.9.352 2c-.288 1.1-1.146 2-1.907 2-.76 0-1.383.45-1.383 1 0 2.407 3.564.319 4.268-2.5.394-1.574.525-1.432.616.667.064 1.466-.221 2.855-.634 3.086-.413.23-.187.282.5.114.688-.167 1.25.158 1.25.723 0 .566.408.776.906.468.498-.308.685-1.406.415-2.44-.296-1.131.379-2.692 1.693-3.917 1.497-1.394 2.196-3.244 2.218-5.868.017-2.108.234-3.27.483-2.583.793 2.195 2.285 1.341 2.285-1.309 0-1.463.431-2.293 1.007-1.937.554.343 1.277-.081 1.607-.941.33-.859 1.227-1.563 1.993-1.563s1.393-.45 1.393-1-.644-1-1.43-1c-.787 0-1.626-1.012-1.864-2.25-.239-1.238-.495-1.687-.57-1m14.899 12.75c-.146 1.1-.185 2.787-.087 3.75.098.963-.301 1.75-.885 1.75-.585 0-1.092-1.012-1.126-2.25l-.064-2.25-.904 2.25c-.498 1.238-1.707 2.257-2.687 2.265-1.002.009-1.344.337-.782.75 1.378 1.012 1.721 3.235.5 3.235-.55 0-1 .642-1 1.427 0 .784-.788 1.632-1.75 1.884-1.469.384-1.428.476.257.573 1.759.102 1.969.704 1.696 4.866-.23 3.497-.04 4.354.72 3.25.567-.825.768-2.344.447-3.375-.381-1.222-.199-1.637.523-1.191.609.376 1.114 1.445 1.122 2.375.014 1.457.15 1.484.985.191 1.299-2.01 1.241-2.768-.25-3.298-.687-.244-.103-.306 1.3-.138 2.298.276 2.55-.034 2.55-3.129 0-1.994-.501-3.435-1.193-3.435-.656 0-1.463-.704-1.794-1.565-.789-2.056 3.319-.88 5.101 1.461 1.082 1.419 1.226 1.354 1.254-.563.018-1.191.595-2.393 1.282-2.671 1-.403 1-.52 0-.583-.687-.043-1.25-.74-1.25-1.548 0-.86-.59-1.242-1.426-.921-.981.376-1.558-.336-1.85-2.281-.297-1.981-.504-2.229-.689-.829M40.93 252.25c-.061 2.81-.199 2.979-1.021 1.25-.921-1.938-.938-1.935-.56.108.214 1.159-.024 2.847-.529 3.75-.585 1.045-.552 1.642.09 1.642 1.045 0 1.241 1.823 1.157 10.75-.027 2.887.324 5.25.781 5.25 1.164 0 3.152-4.642 3.152-7.358 0-1.246.918-3.25 2.039-4.453L48.078 261h-2.539c-2.897 0-3.385-1.462-.817-2.447 1.477-.566 1.512-.795.25-1.607-1.293-.831-1.289-1.066.028-1.931 1.092-.717 1.144-.989.191-1-.72-.008-1.031-.465-.691-1.015.34-.55.141-1-.441-1S43 251.564 43 251.031c0-.532.675-.709 1.5-.393.825.317 1.5.078 1.5-.531S44.875 249 43.5 249c-2.139 0-2.51.469-2.57 3.25m1.322 24.529c-1.892.303-2.082.669-1.204 2.311.575 1.073.828 2.301.564 2.728-.264.428-.085 1.416.397 2.196.512.83.485 1.891-.066 2.554-1.382 1.665.917 7.7 2.676 7.025 1.91-.733 1.732 1.199-.298 3.228-1.569 1.569-1.569 1.7-.003 2.002 1.238.238 1.439.763.769 2.014-.594 1.109-.461 2.299.386 3.457 1.585 2.168 2.518.472 2.542-4.626.011-2.157.29-2.735.875-1.811.625.986 1.054 1.043 1.571.206.391-.633-.013-2.256-.898-3.607-.885-1.351-1.186-2.456-.669-2.456.516 0 1.166.563 1.444 1.25.277.688.54.238.583-1 .043-1.238.556-2.25 1.138-2.25.582 0 .781-.45.441-1-.351-.567.49-1 1.941-1 1.879 0 2.559-.523 2.559-1.969 0-1.112-.544-1.802-1.25-1.586-4.485 1.371-7.633 1.414-7.128.098.298-.776-.385-1.881-1.544-2.501-1.684-.902-2.078-.822-2.078.423 0 .844.45 1.535 1 1.535s1 .675 1 1.5.45 1.5 1 1.5.993.788.985 1.75c-.012 1.34-.214 1.438-.861.416-.677-1.068-.971-1.008-1.473.301-.518 1.351-.872 1.409-2.039.334-.988-.911-1.105-1.676-.389-2.551.706-.864.643-1.707-.206-2.729-.931-1.123-.96-2.246-.118-4.662 1.273-3.65 1.324-3.554-1.647-3.08m352.11 22.721c.354.922-.002 1.5-.925 1.5-.825 0-1.768.699-2.096 1.554-.511 1.332-.918 1.252-2.839-.552-2.2-2.067-2.251-2.07-2.756-.14-.353 1.353.074 2.119 1.37 2.458 1.125.294 1.884 1.379 1.884 2.693 0 1.554.445 2.03 1.512 1.621 1.815-.697.973 4.023-1.084 6.08-1.207 1.207-3.028-.88-2.587-2.964.088-.413-.291-.75-.841-.75s-1 .838-1 1.861c0 1.48-.564 1.764-2.75 1.384l-2.75-.477 2.587 2.681c1.423 1.474 3.448 2.807 4.5 2.961 1.052.154 1.913.763 1.913 1.352 0 .589.337 1.409.75 1.821.413.413.75.199.75-.475 0-.674.481-.929 1.068-.566.588.363.827 1.29.532 2.059-.296.77-.101 1.399.431 1.399.533 0 .969-1.111.969-2.469 0-1.783.416-2.308 1.5-1.893 1.055.405 1.5-.081 1.5-1.638s.445-2.043 1.5-1.638c1.103.423 1.508-.145 1.532-2.143.029-2.474.151-2.561 1.36-.969 1.869 2.463 2.606 2.182 2.623-1 .01-1.794.297-2.306.827-1.472.588.928 1.127.585 1.963-1.25.697-1.53.766-2.528.174-2.528a.992.992 0 00-.979 1c0 .55-.702 1-1.559 1s-1.281-.45-.941-1c.34-.55.171-1-.375-1-.545 0-1.18 1.238-1.409 2.75l-.416 2.75-.15-2.794c-.085-1.59-.689-2.724-1.4-2.631-2.992.388-5.822-.15-5.293-1.006.317-.512.111-1.218-.457-1.569-1.155-.714-.398-2.5 1.059-2.5.518 0 .941.975.941 2.167 0 3.693 1.306 1.074 1.576-3.161.193-3.032-.115-4.006-1.268-4.006-.942 0-1.303.571-.946 1.5M116 314.5c0 .825.675 1.5 1.5 1.5s1.5.675 1.5 1.5.675 1.5 1.5 1.5 1.5.675 1.5 1.5-.675 1.5-1.5 1.5c-1.812 0-2.008 2.628-.25 3.338 1 .403 1 .52 0 .583-.687.043-1.25.781-1.25 1.638 0 .857.45 1.281 1 .941.55-.34 1 .084 1 .941 0 2.432-3.548 1.905-3.734-.554-.206-2.742-.439-2.916-3.002-2.246-1.831.479-2.142 1.275-2.11 5.401.02 2.662-.257 5.316-.617 5.899-.36.582-.163 1.059.439 1.059.79 0 .792.565.009 2.028-.597 1.115-1.513 1.764-2.035 1.441-1.07-.661-1.262 1.554-.343 3.949.719 1.874 3.38 2.131 3.423.332.017-.699.477-.484 1.043.488.557.955 1.863 2.193 2.903 2.749 1.764.944 1.871.629 1.608-4.738-.155-3.162-.616-6.72-1.025-7.908-.565-1.638-.3-2.273 1.098-2.634 1.653-.426 1.663-.487.093-.591-2.435-.161-2.207-2.116.246-2.116 1.807 0 1.988.641 1.909 6.75-.118 9.025.145 13.018.757 11.5.75-1.858 2.338-1.512 2.338.509 0 .968.887 2.314 1.972 2.991 1.156.723 1.733 1.856 1.393 2.741-.322.839-.035 1.509.645 1.509.766 0 1.044-.935.745-2.5-.346-1.814-.035-2.519 1.134-2.57 1.377-.06 1.394-.169.111-.75-.825-.374-1.61-1.805-1.744-3.18-.698-7.157-.995-8.413-2.077-8.774-1.694-.564-1.454-2.226.321-2.226.825 0 1.5-.45 1.5-1s-.45-1-1-1c-1.439 0-1.234-2.739.25-3.338 1-.403 1-.52 0-.583-.687-.043-1.25-.979-1.25-2.079s.563-2 1.25-2c.688 0 1.25-1.125 1.25-2.5 0-3.108-1.47-3.341-1.579-.25-.053 1.499-.268 1.749-.647.75-.312-.825-1.186-1.865-1.942-2.311-.756-.447-1.109-1.242-.784-1.767.325-.525 1.009-.696 1.521-.379.512.316.931.098.931-.484s-.787-1.091-1.75-1.129c-1.496-.06-1.46-.195.25-.93 1.71-.735 1.746-.87.25-.93-2.127-.085-2.367-2.07-.25-2.07 1.91 0 1.954-1.612.065-2.337-.79-.303-1.656-.013-1.924.643-.35.854-.795.767-1.565-.306-.956-1.333-1.185-1.333-2.061 0-.658 1.003-.989 1.086-1 .25-.008-.687-.465-1.25-1.015-1.25-.55 0-1 .675-1 1.5M212.059 437c-.117.825-.29 3.525-.386 6-.141 3.68-.492 4.446-1.923 4.206-1.43-.24-1.75.456-1.75 3.809 0 2.356.407 3.851.956 3.512.526-.325.721-1.206.432-1.958-.288-.752-.044-1.664.544-2.027.651-.402 1.068.339 1.068 1.899 0 1.407.374 2.559.83 2.559.457 0 .777-1.591.713-3.535-.065-1.945.23-4.082.654-4.75.425-.668.779 1.148.788 4.035.015 5.17-.031 5.25-2.985 5.25-2.506 0-3 .398-3 2.417 0 1.329-.562 2.643-1.25 2.921-.747.301-.545.536.5.583 1.233.056 1.75-.68 1.75-2.491 0-3.763 4.369-3.068 4.811.765.207 1.794.768 2.52 1.676 2.172.908-.349 1.507.424 1.789 2.304.338 2.256.461 2.018.606-1.171.17-3.745.275-3.876 1.65-2.059 1.435 1.897 1.468 1.891 1.468-.25 0-1.724-.587-2.191-2.75-2.191-2.632 0-2.75-.213-2.75-4.986 0-3.714.356-4.927 1.396-4.75.768.13 1.617-.398 1.887-1.173.338-.973-.017-1.215-1.147-.782-1.057.406-1.636.109-1.636-.84 0-.808-.675-1.469-1.5-1.469-.848 0-1.5-.895-1.5-2.059 0-1.132.45-1.781 1-1.441.55.34 1 .141 1-.441s-.419-1.059-.93-1.059c-.512 0-1.126-1.012-1.364-2.25-.239-1.238-.529-1.575-.647-.75M187 448.5c0 3.333-.389 4.5-1.5 4.5-.833 0-1.5.889-1.5 2 0 1.145.667 2 1.559 2 .857 0 1.295.427.972.95-.323.522.338 1.445 1.469 2.05 1.131.605 1.787 1.535 1.459 2.066-.328.532-.965.739-1.414.462-.922-.57-2.011 2.798-2.031 6.281-.008 1.287.429 2.036.986 1.691.55-.34 1-1.941 1-3.559 0-3.72 1.96-3.897 2.116-.191.071 1.692.292 2.077.573 1 .252-.962 1.1-1.75 1.884-1.75.785 0 1.427-.9 1.427-2 0-1.111-.667-2-1.5-2-.825 0-1.5-.627-1.5-1.393s-.675-1.652-1.5-1.969c-2.534-.972-2.038-8.638.559-8.638 1.132 0 1.8-.419 1.484-.931-.317-.512-.118-1.213.441-1.559.562-.348 1.016.291 1.016 1.431 0 1.132-.623 2.059-1.383 2.059-1.489 0-2.557 2.712-1.871 4.75.231.688.863 1.25 1.405 1.25.541 0 .71-.862.376-1.916-.335-1.054-.14-2.205.432-2.559.573-.354 1.041.085 1.041.975s.422 1.357.939 1.038c.516-.319.767-1.471.557-2.559-.408-2.119 1.07-2.782 1.737-.78.275.825.57.747.945-.25.3-.797.189-2.349-.246-3.449-.671-1.695-.802-1.733-.862-.25-.085 2.127-2.07 2.367-2.07.25 0-.825-.702-1.5-1.559-1.5s-1.281-.45-.941-1c.351-.567-.49-1-1.941-1-2.366 0-2.559.339-2.559 4.5m36.913 48c-.082.55-.111 1.294-.063 1.654.047.36-.575 1.202-1.382 1.873-1.124.932-1.468.938-1.468.024 0-.79-.506-.688-1.497.303-.83.83-1.234 2.311-.906 3.322.493 1.519.411 1.573-.487.324-.596-.827-1.086-.992-1.095-.367-.019 1.442-3.824 2.485-4.583 1.257-.314-.508-.996-.659-1.517-.337a1.116 1.116 0 00-.362 1.532 1.106 1.106 0 001.516.372c.512-.316.931.787.931 2.453 0 2.28.37 2.885 1.5 2.452.825-.317 1.5-.078 1.5.531s.477 1.107 1.059 1.107.781-.45.441-1-.289-1.533.113-2.184c.503-.813.969-.579 1.489.75.66 1.686.766 1.71.828.184.038-.962.772-1.75 1.629-1.75s1.281.45.941 1c-.782 1.266.542 1.266 2.5 0 1.322-.854 1.316-.971-.049-.985-1.209-.012-1.442-.84-1.063-3.765.267-2.062.655-2.987.862-2.055.22.995.968 1.467 1.813 1.143.914-.351 1.479.124 1.552 1.305.063 1.021.46.064.881-2.128s.398-4.892-.052-6c-.689-1.699-.827-1.741-.881-.265-.034.962-.351 1.75-.703 1.75s-1.237-.788-1.968-1.75c-.731-.962-1.396-1.3-1.479-.75m-35.25 4.935c-.303.79-.013 1.654.643 1.921.657.268-.156.553-1.806.635-2.604.13-2.736.263-1 1.009 1.71.735 1.746.87.25.93-.963.038-1.75.572-1.75 1.187 0 .642.893.883 2.102.567 1.883-.493 2.06-.194 1.7 2.883-.266 2.281.016 3.433.84 3.433.682 0 1.537.48 1.899 1.067.363.587.052.983-.691.881-4.53-.622-5.35-.001-5.35 4.052 0 2.2.338 4 .75 4s.75-1.575.75-3.5.381-3.5.847-3.5c.465 0 .719 1.688.564 3.75-.589 7.834-.653 19.341-.11 19.884.874.874 2.806-.652 2.156-1.703-.491-.796 2.396-1.428 4.793-1.049 1.07.169.931-2.652-.165-3.329-.503-.311-1.183 0-1.511.691-.328.691-.408.243-.179-.994.23-1.237.106-2.25-.274-2.25-.381 0-.692-.9-.692-1.999 0-1.465.477-1.848 1.785-1.433.982.312 1.786.086 1.786-.501s.36-1.067.799-1.067c.44 0 .616 1.575.391 3.5-.225 1.925.031 3.5.569 3.5.538 0 1.035-2.475 1.105-5.5.115-5.014-1.051-7.334-2.138-4.25-.242.688-.478-.766-.524-3.23-.046-2.464-.556-4.638-1.134-4.831-1.246-.415 1.242-3.189 2.861-3.189.615 0 1.013-1.81.935-4.25-.075-2.337-.331-3.238-.57-2-.479 2.488-2.294 3.106-2.294.781 0-.959-.577-1.247-1.664-.83-1.161.446-1.433.265-.899-.599.421-.681 1.424-.986 2.23-.676 1.09.418 1.302.053.831-1.432-.362-1.142-.177-1.994.435-1.994.587 0 1.067-.45 1.067-1s-.675-1-1.5-1c-.833 0-1.5.889-1.5 2 0 1.333-.667 2-2 2s-2-.667-2-2c0-2.31-1.526-2.679-2.337-.565M122.25 625.747c-1.493.501-1.676 4.872-.242 5.758.555.343 1.382-.385 1.838-1.617l.829-2.241.583 2.232c.453 1.734.032 2.44-1.89 3.171-3.348 1.273-9.363.759-9.366-.8-.002-1.554-1.701-1.652-2.21-.127-.205.617-2.1 1.259-4.21 1.427-2.11.167-4.307.775-4.883 1.351-.729.729 17.741 1.048 60.877 1.049 37.304.001 61.315-.358 60.393-.902-1.457-.859-10.621-1.396-15.969-.935-7.247.623-14-.154-14-1.613 0-.825-.436-1.5-.969-1.5-.532 0-.734.611-.447 1.357.4 1.043-.767 1.357-5.032 1.357-3.054 0-5.552-.283-5.552-.629 0-.346-1.687-.678-3.75-.738l-12.25-.345c-4.675-.13-9.4-.475-10.5-.767l-2-.531 2-.782c1.539-.601 1.079-.827-2-.981-2.2-.109-5.238-.274-6.75-.366-1.512-.093-2.75.202-2.75.654s-1.328.136-2.95-.703c-1.623-.839-3.903-1.526-5.066-1.526-1.164 0-2.986-.466-4.05-1.035-1.116-.598-1.934-.642-1.934-.105 0 .532-1.39.617-3.25.199-1.787-.402-3.812-.542-4.5-.312m136.07 4.333c-.64.64-.897 1.858-.572 2.706.398 1.038.195 1.297-.622.792-.667-.413-1.756-.305-2.42.24-.663.545-2.331 1.197-3.706 1.45-1.375.253 6.5.514 17.5.581 13.235.079 19.493-.208 18.5-.849-1.155-.747-.822-.973 1.45-.985 2.328-.012 2.692-.273 1.725-1.24-.967-.967-1.67-.947-3.334.092-1.369.855-2.329.962-2.735.304-.344-.557-1.926-1.339-3.515-1.738-2.238-.561-2.708-.431-2.086.576.53.857.411 1.057-.35.586-.635-.392-1.155-.251-1.155.315 0 .565-.681.766-1.513.447-.832-.32-2.102-.091-2.823.507-1.681 1.395-8.621 1.168-8.361-.274.109-.6-.52-.974-1.397-.832-.876.142-2.005-.664-2.508-1.792-.695-1.558-1.193-1.771-2.078-.886m51.68.979c0 .582-.419.8-.931.484-.512-.317-1.197-.145-1.523.382-.326.527-3.732.783-7.569.568-5.452-.305-6.977-.089-6.977.989 0 .758-1.012 1.574-2.25 1.812-1.238.239 9.566.495 24.008.57 25.915.134 26.243.11 25.026-1.839-.802-1.283-1.576-1.633-2.209-1-1.308 1.308-6.291 1.244-7.116-.092-.377-.609-3.201-.963-6.584-.824-3.521.143-6.401-.235-7.1-.934-1.463-1.463-6.775-1.554-6.775-.116m60.876.603c-5.655 1.692-22.472 2.326-23.958.903-.803-.769-1.012-.51-.752.935.35 1.944 1.259 2.008 32.295 2.281 29.926.264 40.067-.372 23.353-1.463-4.023-.263-9.564-.624-12.314-.802-5.789-.375-7.438-.722-9.482-1.997-2.173-1.355-4.245-1.322-9.142.143" fill="#d3d3d3" fill-rule="evenodd"/></svg>