<svg xmlns="http://www.w3.org/2000/svg" width="500" height="621"><path d="M0 310.502v310.502l250.25-.252 250.25-.252.252-310.25L501.003 0H0v310.502m.494.498c0 170.775.115 240.638.256 155.25.141-85.387.141-225.112 0-310.5C.609 70.363.494 140.225.494 311m96.094-158.75c.048 47.988.161 88.488.25 90 .188 3.194 1.822 3.494 6.327 1.165 2.061-1.066 3.395-1.255 4.074-.576 1.241 1.241 3.725-.769 3.068-2.483-.244-.634.037-1.451.625-1.814.587-.363 1.068.042 1.068.899 0 1.444 5.131 2.257 11 1.743 9.783-.857 14.978-1.007 11.966-.345-5.889 1.293-6.53 2.113-3.611 4.621 2.207 1.897 2.611 3.148 2.858 8.862.277 6.43 1.753 9.139 3.479 6.384.825-1.318.911-1.766 1.195-6.206l.191-3 1.464 3.37c1.147 2.643 1.752 3.131 2.802 2.259.737-.611 1.636-.816 1.998-.454 1.599 1.6.345 5.135-3.16 8.908-2.086 2.246-3.628 4.578-3.427 5.183.202.605-.785 3.536-2.194 6.513-2.537 5.364-3.521 12.432-1.561 11.221.55-.34 1 .057 1 .882 0 1.987-1.686 2.967-2.363 1.374-.294-.691-.272 1.894.049 5.744.321 3.85 1.016 7.837 1.543 8.86 1.078 2.09.042 17.529-1.287 19.179-.46.571-.95 2.962-1.088 5.314-.251 4.25-1.854 7.08-1.854 3.273 0-1.566-.642-1.974-3-1.907-2.114.06-3 .584-3 1.773 0 1.976 4.301 4.213 6.488 3.374.832-.319 1.512-.082 1.512.527s-.45 1.107-1 1.107-1 .73-1 1.622c0 1.329.271 1.398 1.5.378 1.036-.86 1.5-.898 1.5-.122 0 .617.8 1.122 1.778 1.122.977 0 4.379 1.35 7.559 3 3.181 1.65 5.981 3 6.223 3s.44-2.7.44-6v-6h-3c-1.65 0-3 .45-3 1 0 2.019-2.875.929-3.294-1.25l-.434-2.25-.136 2.309c-.075 1.27-.586 2.031-1.136 1.691-1.496-.925-1.205-12.667.429-17.298 2.421-6.862 1.636-18.353-.966-14.142-1.137 1.839-3.397-2.318-3.431-6.31-.044-5.149 2.723-5.217 3.158-.077.381 4.515 2.81 5.842 2.81 1.535 0-5.663 1.167-9.358 2.763-8.745.82.314 2.069-.219 2.776-1.186 1.186-1.622 1.381-1.547 2.534.983 1.654 3.632 2.927 3.472 2.927-.367 0-2.262.383-2.96 1.409-2.566.986.378 1.803-.791 2.718-3.893 2.122-7.184 3.866-5.208 3.882 4.398.006 3.117.906 10.099 2 15.515 2.136 10.565 2.561 18.183 1.065 19.107-.569.352-.569 1.821 0 3.803 1.429 4.984 1.33 5.07-5.068 4.401l-5.993-.626.225 7.532c.163 5.411-.151 7.764-1.113 8.359-.736.455-.953 1.059-.482 1.342 6.891 4.144 8.228 4.596 9.406 3.176 1.896-2.285 2.607-1.706 2.526 2.056-.043 2.015-.585 3.498-1.278 3.5-1.174.003-2.563 2.515-5.735 10.375-1.807 4.479-1.974 6-.562 5.128.55-.34 1-.093 1 .548s.675.907 1.5.59c1.768-.678 1.976.486.373 2.089-2.827 2.827.874 7.675 5.031 6.588 1.983-.519 3.089-4.315 1.257-4.315-.462 0-1.353-1.125-1.979-2.5-.627-1.375-.747-2.5-.268-2.5.48 0 1.131.675 1.448 1.5.316.825 1.264 1.5 2.107 1.5 1.042 0 1.531.979 1.531 3.066 0 4.668 1.636 6.934 5.007 6.934 2.465 0 3.077-.521 3.818-3.25 1.225-4.513-.048-6.352-5.039-7.28-3.155-.587-3.683-.906-2.001-1.208 2.142-.385 10.215-9.356 10.215-11.352 0-2.066-2.832-.716-3.421 1.631-.352 1.401-1.103 2.253-1.676 1.899-.572-.353-.776-1.329-.454-2.168.322-.839.073-2.143-.554-2.899-.863-1.039-.806-1.773.233-3.019.754-.906 1.957-3.944 2.673-6.75 2.715-10.655 2.687-9.894.337-9.148-1.272.404-2.138.247-2.138-.389 0-.587.9-1.067 2-1.067s2-.422 2-.938.787-.932 1.75-.925c.963.008 3.55-.509 5.75-1.147 2.2-.639 5.782-1.46 7.96-1.826 4.26-.714 4.628-1.425 6.031-11.632.634-4.614 1.13-5.241 4.509-5.696 1.375-.185 2.872-.786 3.326-1.336.533-.645 1.011-.542 1.347.292.398.987.85 1.019 1.913.136.766-.635 1.145-1.554.844-2.041-.301-.488.409-.887 1.579-.887h2.127l-2.068 2.904c-2.361 3.316-2.538 4.096-.928 4.096 1.681 0 3.792 3.171 3.828 5.75.04 2.808 2.587 2.92 14.262.623 8.722-1.715 13.222-3.912 6.52-3.183-2.696.294-3.75.026-3.75-.953 0-1.619 16.249-1.634 19.357-.018 1.196.622 2.203.621 2.826-.002.625-.625-.124-1.349-2.107-2.041-2.795-.974-4.321-3.176-2.202-3.176 4.355 0 12.287 4.571 20.626 11.887 4.76 4.176 5.016 4.276 5.341 2.088.23-1.551-.637-3.213-2.666-5.109-3.039-2.841-3.587-5.895-1.198-6.692.825-.275 1.022.019.537.803-.545.882-.206 1.06 1.178.621 1.324-.42 2.697.188 4.316 1.911 1.306 1.39 4.439 3.14 6.963 3.89 2.523.749 6.15 2.314 8.059 3.478 4.225 2.576 5.845 2.656 7.578.373 1.265-1.667 1.33-1.667 1.36 0 .034 1.853.874 2.132 3.45 1.143 1.701-.653 2.27-6.393.634-6.393-.592 0-.6-1.032-.02-2.75.51-1.512 1.349-7.475 1.865-13.25.881-9.852.908-9.528.447 5.25-.453 14.519.193 19.006 2.042 14.187.33-.86 1.073-1.272 1.651-.914 1.565.967 3.924-1.418 3.309-3.346-.464-1.456-.378-1.48.654-.177 1.042 1.315 1.126 1.302.682-.103-.533-1.687.592-2.901 6.318-6.822 1.925-1.318 4.733-3.529 6.24-4.913 5.665-5.203 3.721-1.026-2.13 4.576-7.322 7.01-7.844 8.497-1.36 3.867 2.613-1.865 5.65-3.568 6.75-3.784 1.326-.261 1.902-1.056 1.708-2.357-.228-1.536-.083-1.655.664-.545 1.067 1.586 1.636-1.752 2.647-15.54.499-6.798.342-8.218-.962-8.719-.856-.328-1.557-1.286-1.557-2.129 0-.842-.675-1.531-1.5-1.531-1.718 0-2.14 5.486-.5 6.5 1.487.919 1.21 3.5-.375 3.5-1.667 0-2.331-3.052-3.218-14.805-.708-9.378.038-15.711 1.561-13.247 1.382 2.236 3.822-3.861 3.281-8.198-.294-2.361-.057-3.75.642-3.75 1.975 0 2.601.475 2.308 1.75-.325 1.416 3.574 1.68 5.624.381.926-.588 1.117-1.931.638-4.485-.611-3.259-.46-3.646 1.428-3.646 1.802 0 2.111-.595 2.111-4.067 0-3.616-.223-3.997-2.005-3.431-2.187.694-2.469.221-3.481-5.85-.435-2.607-.298-3.637.422-3.191.585.361 1.064.207 1.064-.343 0-1.575-1.783-2.268-2.25-.874-.477 1.427-3.265-6.84-4.212-12.494-1.347-8.039-6.058-2.983-5.357 5.75.568 7.086.078 13.914-1.026 14.282-.642.214-.988.688-.769 1.053.219.366.048 2.465-.381 4.665-.579 2.974-.787 1.271-.81-6.633-.032-10.657-1.223-15.177-3.744-14.21-.656.252-1.473-.271-1.815-1.163-.342-.891-1.075-1.341-1.629-.998-1.406.868-1.262-.841.193-2.296.933-.933.656-1.215-1.25-1.268l-2.45-.067 2.319-1.116c1.462-.704 2.154-1.746 1.872-2.822-.704-2.694.953-4.625 1.767-2.059.696 2.193 2.542 2.967 2.542 1.066 0-.586-.466-1.936-1.035-3-.747-1.394-.712-1.934.122-1.934.871 0 .867-.35-.014-1.412-.942-1.135-.476-1.942 2.378-4.118 4.281-3.265 4.437-5.296.944-12.304-1.874-3.761-3.522-5.61-5.877-6.594-3.941-1.646-5.998-4.177-2.492-3.064 1.79.568 2.152.399 1.694-.794-.363-.948.103-1.696 1.243-1.994 1.027-.269 2.113-1.787 2.483-3.474.362-1.648 1.982-7.15 3.6-12.226 1.619-5.076 2.723-9.585 2.454-10.02-.269-.435.184-1.048 1.006-1.364.822-.315 1.494-1.68 1.494-3.033 0-3.065 2.109-5.248 5.869-6.074 1.589-.349 4.391-1.976 6.227-3.615 3.202-2.859 3.329-3.248 3.14-9.625-.108-3.656-.671-6.94-1.25-7.298-.58-.358-.763-1.408-.408-2.334.482-1.255-.145-1.959-2.466-2.768-2.108-.735-3.112-1.741-3.112-3.12 0-1.861-3.375-5.769-4.982-5.769-.372 0-.73-2.316-.794-5.147-.065-2.83-.591-5.62-1.171-6.2-.579-.579-1.039-1.976-1.023-3.103.028-1.872.119-1.898 1.05-.3 1.506 2.586 6.993-.254 6.218-3.218-.336-1.286.059-2.232 1.101-2.632 2.187-.839 4.601 1.32 4.601 4.115 0 1.249.675 2.53 1.5 2.847.867.332 1.5 1.827 1.5 3.542 0 1.631.527 4.233 1.17 5.781.644 1.548 1.432 5.29 1.75 8.315.481 4.556.932 5.55 2.634 5.794 2.817.403 4.669 7.325 3.411 12.75-.505 2.176-.928 5.478-.941 7.338-.013 1.86-.956 4.889-2.094 6.732-2.521 4.079-2.047 5.022 2.954 5.866l3.873.655.762 6.182c.937 7.6.744 11.219-1.076 20.132-1.005 4.927-1.102 7.143-.333 7.619.597.369 1.095 1.742 1.107 3.051.076 8.329-.653 16.101-1.948 20.775-1.689 6.095-1.075 15.647 1.302 20.243.786 1.52 1.429 5.224 1.429 8.232 0 5.873.676 8.631 2.115 8.631.527 0 .889-37.884.874-91.5l-.025-91.5h-24.92c-23.025 0-24.928.133-25.028 1.75-.566 9.108-.697 9.734-1.978 9.448-1.911-.428-11.024 2.016-10.526 2.822.227.367-1.239 1.175-3.259 1.794-2.179.669-3.902.754-4.239.209-.312-.504-1.146-.56-1.854-.122-.987.61-.738 1.472 1.066 3.697 2.862 3.531 5.072 8.402 3.812 8.402-.506 0-1.203-.457-1.548-1.016-.775-1.255-2.49-.312-2.49 1.368 0 1.759 8.112 3.8 9.738 2.45 1.541-1.278 1.693.367.175 1.885-.783.783-.783 1.275 0 1.759 1.799 1.112 1.352 4.87-.495 4.161-.87-.334-1.77-.607-2-.607-.23 0-.418-.675-.418-1.5s-.477-1.5-1.059-1.5-.822.383-.533.852c.663 1.072-6.111 3.148-10.274 3.148-1.974 0-3.041.463-2.884 1.25.137.688-.477 1.257-1.364 1.265-.888.008-2.28.567-3.092 1.241-.813.675-1.74.964-2.061.644-.321-.321-1.404-.122-2.408.441-1.757.986-1.755 1.051.057 1.75 1.036.398 2.702.213 3.704-.413 2.577-1.609 3.263.196.89 2.343-1.087.984-1.962 2.282-1.944 2.884.017.602 1.117-.138 2.443-1.645 1.985-2.255 5.525-3.015 5.525-1.187 0 1.298-3.542 7.427-4.292 7.427-.507 0-.677.638-.378 1.417a1.534 1.534 0 01-.893 1.969c-.79.303-1.437 1.337-1.437 2.297 0 2.565 2.587-.222 5.908-6.365 2.536-4.69 7.248-7.743 5.664-3.669-1.247 3.205-1.122 3.859.678 3.557.962-.161 1.75.246 1.75.905 0 .771.645.615 1.806-.436 1.633-1.477 2.018-1.487 4-.098 2.726 1.909 2.866 3.832.229 3.142-1.357-.354-2.159.098-2.592 1.459-.679 2.141.544 4.125 1.277 2.072.407-1.138 4.28-1.859 4.28-.797 0 1.179-2.406 5.547-3.056 5.547-1.143 0-4.806 7.967-3.916 8.517.435.269 1.53.206 2.433-.14 1.351-.519 1.524-.166.981 1.997-.531 2.118-.3 2.638 1.2 2.689 1.617.056 1.58.176-.282.928-1.178.475-2.782 2.134-3.567 3.686a934.288 934.288 0 01-4.637 9.059c-1.591 3.078-1.448 5.264.344 5.264.825 0 1.5.45 1.5 1s-1.125 1-2.5 1c-1.811 0-2.5.537-2.5 1.948 0 1.072-1.125 3.163-2.5 4.647-2.627 2.834-2.766 2.723-2.623-2.095.076-2.575-.041-2.717-.824-1-.502 1.1-.947 3.35-.989 5-.042 1.65-.753 4.297-1.58 5.882-.826 1.586-1.794 4.736-2.15 7-.356 2.265-1.813 5.656-3.237 7.536-1.779 2.347-2.2 3.548-1.344 3.833 1.674.558 1.579 3.06-.182 4.82-2.108 2.109-2.311 1.828-1.869-2.588.292-2.925.048-3.945-.9-3.75-.716.147-1.35-.633-1.408-1.733-.059-1.1-.429-2.747-.822-3.659-.657-1.523.148-5.741 1.927-10.091.509-1.246.243-1.75-.923-1.75-.902 0-1.898.675-2.214 1.5-.376.978-1.931 1.5-4.469 1.5-3.011 0-3.911.397-3.972 1.75-.047 1.045-.282 1.247-.583.5-.724-1.793-2.765-1.541-4.682.577-1.548 1.711-1.5 1.971.756 4.091 2.861 2.687 6.217 2.425 5.811-.454-.261-1.845-.193-1.858 1.11-.214.763.963 1.9 1.75 2.527 1.75 1.435 0 1.468 1.272.069 2.671-1.53 1.53-2.296 9.329-.915 9.329.607 0 .826.45.486 1-.34.55-2.954.948-5.809.884-2.855-.064-4.398-.323-3.429-.576.969-.253 1.505-.875 1.191-1.384-.314-.508.581-.924 1.988-.924 2.04 0 2.559-.491 2.559-2.418 0-1.33.273-3.13.607-4 .472-1.229-.072-1.582-2.441-1.582-3.646 0-4.67 1.368-4.294 5.736.209 2.424-.124 3.264-1.295 3.264-.868 0-1.577-.352-1.577-.782 0-.776-5.54-2.544-11.739-3.744-1.781-.346-3.513-1.072-3.848-1.615-.731-1.183 5.27-.202 10.993 1.798 4.661 1.628 4.243 1.947 5.114-3.907.803-5.391.218-5.992-1.948-2l-1.492 2.75-.04-2.527c-.022-1.391-.735-3.52-1.585-4.733-1.589-2.269-.59-6.24 1.57-6.24.526 0 .185-.9-.757-2-2.182-2.548-3.891-2.548-4.558 0-.287 1.1-1.352 1.993-2.366 1.985-1.263-.011-1.458-.261-.62-.793 1.878-1.193 2.954-15.186 1.17-15.214-.767-.012-2.519-.902-3.894-1.978s-2.772-1.966-3.104-1.978c-1.253-.046-1.02 14.784.245 15.565.695.43 1.414.249 1.633-.41.72-2.158 2.206-1.212 2.001 1.273-.15 1.809-.736 2.398-2.239 2.25-1.758-.173-2.078.459-2.344 4.628-.169 2.655.206 5.447.834 6.203 1.262 1.521-1.668 7.808-3.198 6.862-.443-.273-.168-1.486.611-2.695 1.189-1.844 1.214-3.164.157-8.198l-1.259-6-.458 4.389c-.303 2.905.003 4.85.906 5.753 1.152 1.152 1.08 1.454-.461 1.942a73.107 73.107 0 00-4.074 1.476c-1.682.671-2.25.548-2.25-.488 0-1.471-3.583-1.056-4.562.528-.748 1.211 1.476 5.071 2.543 4.412.484-.3 1.163-.087 1.509.472.345.559.264 1.067-.181 1.13-5.784.815-5.806.806-5.926-2.401-.064-1.718-.683-3.313-1.375-3.544-.692-.23-2.102-1.263-3.133-2.294-3.464-3.464-4.731-2.257-2.844 2.707.861 2.264.69 3.029-1.033 4.635-2.041 1.901-2.086 1.897-3.998-.397l-1.933-2.32-.049 3c-.062 3.819-1.979 1.346-2.003-2.583-.008-1.421-.322-2.891-.698-3.267-1.015-1.015-3.322 5.105-3.285 8.715.03 3.011.091 3.056 1.539 1.14 1.292-1.71 1.641-1.781 2.438-.5.651 1.046 2.66 1.495 6.69 1.495 4.971 0 5.81.274 6.128 2 .298 1.625.122 1.764-.94.74-1.057-1.019-1.545-.829-2.561 1-.69 1.243-1.271 1.698-1.291 1.01-.019-.687-1.12-1.25-2.447-1.25-2.048 0-2.518.624-3.11 4.131-.384 2.272-1.007 3.631-1.385 3.02-1.491-2.414-18.942-.736-25.093 2.412-1.375.704-3.287 1.526-4.25 1.827-3.126.977-1.95 3.353 2 4.039 4.901.852 9.25 2.588 9.25 3.692 0 1.308 4.416 1.063 5.8-.321.761-.761 1.2-.811 1.2-.138 0 .602 1.193.868 2.75.613 1.512-.247 7.137-.682 12.5-.966 9.408-.499 9.75-.443 9.75 1.587 0 2.386 2.784 2.867 4.936.854 1.095-1.024 1.24-.85.803.963-.304 1.266.065 2.71.864 3.373 1.079.895 1.42.847 1.497-.214.055-.754.46-.247.9 1.128.59 1.841.831.788.916-4 .074-4.188.429-6.004.998-5.104.486.767 1.605 1.119 2.485.781 1.02-.391 1.601-.081 1.601.854 0 .808.509 1.469 1.132 1.469 1.116 0 .906-3.428-.651-10.608-.744-3.429 2.381-5.468 4.489-2.929.573.692 2.277 1.086 3.786.876 2.645-.368 2.66-.345.42.635-2.669 1.167-2.613 4.318.085 4.838 1.288.248 1.739-.333 1.739-2.239 0-2.561 1.862-3.706 2.152-1.323.084.688.208 1.7.277 2.25.068.55.476 1.563.906 2.25.448.714.315 1.25-.308 1.25-.6 0-1.414.803-1.809 1.784-1.17 2.907-10.651 11.114-10.035 8.686.283-1.116-.037-2.544-.71-3.173-2.063-1.927-3.473.629-3.473 6.296 0 3.694-.433 5.359-1.5 5.769-1.131.434-1.5-.175-1.5-2.477 0-1.983-.434-2.907-1.24-2.638-.682.227-2.064-.636-3.072-1.917-1.814-2.305-5.688-3.232-5.688-1.361 0 .532-.619.731-1.377.44-.882-.339-1.618.434-2.048 2.149-.826 3.291-1.674 2.66-1.788-1.33-.12-4.245-4.609-4.366-5.453-.148-.482 2.411-.772 2.625-1.95 1.447-.761-.761-1.384-2-1.384-2.752 0-1.284-1.53-1.433-9.25-.897-.986.069-1.75.922-1.75 1.955 0 3.218-1.111 3.111-4.198-.405-1.655-1.886-3.863-3.428-4.906-3.428-2.498 0-2.409 1.527.195 3.351 1.15.806 1.938 2.184 1.75 3.064-.262 1.229-1.382.671-4.841-2.414-4.482-3.997-7.652-5.683-8.705-4.63-.304.305.63 1.093 2.076 1.752 2.281 1.04 3.628 2.877 2.109 2.877-.885 0-8.279-4.865-8.885-5.846-.972-1.574 2.206-3.564 3.705-2.32 1.934 1.605 10.196 2.777 9.294 1.318-.392-.633-1.698-1.159-2.903-1.167-3.561-.024-7.228-2.385-6.867-4.421.294-1.66.077-1.631-2.403.319-3.558 2.799-4.162 2.038-1.374-1.732 1.222-1.654 1.967-3.672 1.655-4.485-.907-2.365 9.269-8.97 12.187-7.911.855.311 1.119.067.687-.632-.387-.626.001-1.407.861-1.737.859-.33 1.563-1.05 1.563-1.6s-.661-.746-1.468-.437c-.807.31-1.751.106-2.096-.453-.378-.611-1.126-.334-1.879.696-.877 1.199-1.465 1.366-1.963.559-1.053-1.703-2.594-1.396-2.594.516 0 2.786-1.105.756-1.533-2.816-1.947-16.26-2.05-19.125-.732-20.443 2.139-2.139 2.42-7.217.437-7.892-3.89-1.325-5.384-3.251-4.216-5.434.613-1.145 1.886-2.15 2.829-2.232.943-.083-.31-.423-2.785-.756l-4.5-.605 3-1.495c1.784-.888 3.834-3.231 5.058-5.779 1.131-2.356 3.255-5.649 4.719-7.318 2.631-2.997 2.645-3.097 1.246-8.47-.779-2.99-2.115-6.434-2.969-7.654-2.069-2.954-1.96-3.773.505-3.773 1.132 0 1.831.37 1.551.822-.279.452.095 1.983.832 3.403.736 1.42 1.873 4.2 2.526 6.178 1.37 4.151 2.16 4.354 6.083 1.56 1.573-1.12 4.343-2.507 6.155-3.082 1.812-.575 4.257-1.509 5.435-2.074 1.466-.704 2.72-.704 3.978 0 1.703.953 1.657 1.099-.641 2.001-11.773 4.624-15.978 7.387-15.978 10.498 0 .867-.39 1.817-.866 2.111-1.127.697-.219 5.535 1.512 8.056.744 1.084 1.354 2.719 1.354 3.633 0 .913.9 1.896 2 2.184 1.145.299 2.006.029 2.014-.634.007-.636.259-2.069.559-3.185.333-1.243-.253-2.949-1.514-4.403-2.17-2.502-2.722-5.068-1.09-5.068.532 0 .744-.584.47-1.298-.662-1.725 3.347-5.27 6.917-6.116 3.7-.877 9.9 3.051 10.125 6.414.019.275.781 1.56 1.694 2.855 1.654 2.346 1.673 2.348 4.817.5 3.089-1.815 3.187-1.813 4.582.086.784 1.068 1.426 3.548 1.426 5.513 0 2.642.65 4.06 2.5 5.449 1.375 1.032 2.5 2.714 2.5 3.737 0 1.215.719 1.86 2.071 1.86 1.14 0 2.747.675 3.572 1.5 1.697 1.697 4.822 2.062 3.824.446-.359-.58-.618-4.384-.576-8.455.067-6.483-.19-7.587-2.07-8.904-2.868-2.009-3.45-1.457-4.378 4.151l-.788 4.762-.814-5.931c-.468-3.408-1.825-7.458-3.191-9.522-3.636-5.494-6.418-11.418-5.962-12.694.689-1.927-5.707-5.934-6.776-4.245-.485.766-.888 1.73-.897 2.142-.026 1.301-1.63.818-3.943-1.188-1.229-1.065-2.828-1.709-3.553-1.431-.82.315-1.263-.182-1.169-1.312.116-1.407-.757-1.934-3.85-2.325-3.475-.44-3.754-.651-2.126-1.61 3.301-1.942-5.822-8.085-11.242-7.568-2.668.254-4.132.886-4.132 1.781 0 1.41 5.441 6.8 7.095 7.028.498.069 1.425.181 2.06.25.692.075.421.936-.677 2.149-1.83 2.022-1.836 2.021-4.953-1-1.716-1.663-3.606-3.024-4.2-3.024-.594 0-1.64-.675-2.325-1.5-.83-1-.879-1.5-.147-1.5.745 0 .805-.77.187-2.396-.861-2.262-.659-2.434 3.603-3.073 3.711-.557 4.391-.976 3.817-2.354-.384-.922-.72-2.239-.746-2.927-.026-.687-.85-1.25-1.831-1.25s-2.143-.596-2.583-1.325c-.44-.729-1.58-1.612-2.533-1.963-2.21-.811-1.218-3.712 1.269-3.712 1.001 0 2.427.563 3.167 1.25 2.589 2.404 9.316 7.435 11.481 8.588 3.263 1.736 4.09 1.429 3.563-1.326-.322-1.683.047-2.687 1.139-3.107.888-.34 1.634-1.358 1.658-2.262.025-.904.935.045 2.024 2.107 1.089 2.063 2.311 3.75 2.715 3.75.405 0 1.29.888 1.968 1.973 1.14 1.825 1.017 1.931-1.638 1.4-4.057-.812-4.834 1.23-1.606 4.221 3.325 3.082 10.493 4.428 10.493 1.972 0-1.454.259-1.442 2.637.115 1.45.951 2.237 1.822 1.75 1.936-.488.114-2.175.494-3.749.843-2.757.611-2.798.705-1.117 2.564.961 1.061 2.136 1.688 2.613 1.393.476-.294.866-.047.866.549 0 .596 1.152 1.522 2.56 2.057 1.408.535 2.311 1.377 2.006 1.87-.305.494.135 1.162.978 1.485 1.862.715 3.164-2.07 1.667-3.567-.58-.58-.817-1.675-.526-2.433.291-.758.031-1.378-.578-1.378s-1.091-1.013-1.071-2.25c.035-2.173.116-2.153 2.35.578 1.273 1.556 2.349 4.053 2.391 5.55.103 3.595 5.089 11.122 7.369 11.122 1.012 0 3.559 2.393 5.854 5.5 4.238 5.737 5.653 6.569 6.668 3.922.382-.994-.471-2.568-2.302-4.25-1.678-1.541-2.759-3.435-2.554-4.475.447-2.272-6.3-8.831-8.297-8.064-.92.353-1.642-.292-2.022-1.804-.749-2.984-.008-16.717 1.037-19.217.733-1.752.439-1.835-4.12-1.152-6.476.969-6.505.997-5.844 5.85.544 3.991.493 4.095-1.06 2.19-.897-1.1-1.89-3.268-2.207-4.818-.317-1.549-1.639-3.514-2.938-4.365-2.477-1.623-3.137-4.719-1.254-5.883.745-.461.887.011.433 1.441-.384 1.208-.24 2.125.334 2.125 1.656 0 2.376-1.994 1.221-3.386-.593-.714-.744-1.657-.336-2.097.407-.439-.384-.514-1.759-.165-7.716 1.953-7.692 1.952-5.5.179 1.1-.89 3.012-1.872 4.25-2.183 1.238-.311 2.25-1.231 2.25-2.046 0-.815-1.012-2.326-2.25-3.358-1.238-1.033-1.687-1.892-1-1.911.688-.018 1.25-.686 1.25-1.485 0-1.239-.654-1.21-4.464.202-2.456.91-4.785 1.334-5.177.942-.976-.976 2.539-3.417 5.891-4.09 3.198-.642 3.601-3.004 1.002-5.876-1.713-1.893-1.611-1.923 5.275-1.527 7.659.441 9.891 1.269 9.085 3.37-.289.752-.087 1.637.448 1.968.535.331.728.998.428 1.482-.826 1.337 3.26 3.145 6.311 2.793l2.701-.312-2.25-2.25c-2.527-2.527-2.966-6.038-.856-6.848 1.516-.582 8.606 5.37 8.606 7.224 0 .628 1.012 1.466 2.25 1.863 1.906.612 1.982.795.5 1.19-2.414.645-2.246 1.137 1.7 4.97 5.301 5.147 6.909 4.323 12.005-6.149 1.07-2.2 2.585-4.771 3.367-5.713.781-.942 1.16-2.392.841-3.223-.324-.845.138-1.913 1.05-2.423 1.2-.672.331-1.017-3.292-1.31-4.103-.331-5.302-.018-7.216 1.886-2.785 2.77-3.205 2.823-3.205.408 0-1.308-.964-2.068-3.189-2.513-1.754-.351-7.127-2.657-11.941-5.125-5.579-2.86-10.056-4.487-12.347-4.487-1.976 0-4.634-.682-5.905-1.515-2.097-1.374-2.534-1.344-4.715.318-1.321 1.008-3.851 2.412-5.62 3.122-1.769.71-3.737 1.917-4.372 2.683-.636.765-1.551 1.392-2.033 1.392-1.733 0-.827-1.568 1.872-3.242l2.75-1.705-3.5-.071-3.5-.07 3.843-2.028c5.493-2.898 2.754-4.809-6.953-4.852-12.323-.055-16.186.81-16.027 3.588.075 1.308.362 2.41.637 2.448.275.038 1.85.303 3.5.588 4.061.701 5.594.666 8.309-.191 1.846-.583 2.421-.301 2.867 1.403.306 1.173 1.18 2.132 1.941 2.132 1.966 0 1.712 1.273-.66 3.304-1.123.962-1.814 2.118-1.535 2.57.995 1.61-5.316 6.632-6.654 5.294-.951-.951-.955-1.64-.013-3.147 1.427-2.286 1.057-2.573-4.505-3.494-2.338-.386-4.282-1.226-4.32-1.865-.039-.639-.457-.262-.93.838-.473 1.1-.891 1.449-.93.775-.051-.891-.752-.966-2.57-.275-1.607.611-2.5.602-2.5-.025 0-1.574-2.821-1.118-3.79.614-.799 1.428-1.074 1.404-2.711-.232-1.762-1.762-1.804-1.733-1.299.911.379 1.979.115 2.732-.955 2.732-.986 0-1.304-.666-.955-2 .655-2.505-3.732-2.897-4.683-.418-.888 2.313-.82 2.415 1.643 2.45 2.194.031 2.201.068.309 1.5-2.738 2.07-8.282 2.044-6.559-.032 1.685-2.03-.576-2.067-2.6-.042-.802.801-2.007 1.263-2.679 1.026-1.388-.489-5.26 4.31-4.274 5.297.354.354 1.498.11 2.541-.542 1.996-1.246 2.012-1.198 3.249 9.551.382 3.32 2.179 2.807 2.763-.79.671-4.134 2.424-4.29 2.813-.25.173 1.787.709 3.25 1.191 3.25.483 0 .232 1.237-.557 2.75s-1.437 3.961-1.441 5.441c-.003 1.48-.47 2.978-1.037 3.328-.587.363-.764 2.059-.41 3.944.35 1.864.177 3.582-.396 3.936-.662.41-.693 1.751-.089 3.858.509 1.776.926 3.289.926 3.361 0 .073-1.335.399-2.966.725-1.631.326-5.96 2.413-9.62 4.636-3.661 2.224-7.726 4.312-9.035 4.641-2.431.61-3.327 2.38-1.205 2.38.646 0 .17 1.07-1.059 2.377-2.132 2.27-2.209 2.94-1.687 14.75.3 6.805.741 13.645.98 15.199.337 2.204.102 2.7-1.069 2.25-.827-.317-2.196-.576-3.043-.576-1.228 0-1.298-.293-.346-1.44 1.489-1.793.993-6.76-.731-7.327-.705-.231-1.155.184-1 .923.154.739-.311 1.222-1.034 1.072-1.349-.278-1.114 11.224.349 17.05.352 1.403.153 2.797-.453 3.172-.703.435-1.081-.68-1.081-3.191 0-2.122-.453-4.312-1.007-4.866-.554-.554-1.18-3.906-1.391-7.45-.24-4.032-.799-6.349-1.493-6.193-.61.137-1.109-.823-1.109-2.133 0-1.499-.704-2.568-1.896-2.88-1.895-.495-2.095-1.834-3.137-20.967-.119-2.186-1.967-3.435-1.967-1.329 0 .857-.45 1.559-1 1.559s-1.017-1.238-1.038-2.75c-.071-5.193-1.185-10.751-2.294-11.445-.8-.502-.738-1.721.222-4.379.733-2.025 1.332-6.981 1.332-11.012 0-6.651.224-7.476 2.421-8.916 1.331-.872 2.155-2.016 1.83-2.542-.958-1.55 1.169-1.092 2.527.544 1.748 2.106 2.79 1.869 3.294-.75.428-2.222.435-2.221.57.122.116 2.024.364 2.184 1.683 1.089 1.236-1.026 1.287-1.45.25-2.107-1.001-.636-.943-.827.253-.839.852-.008 2.09.525 2.75 1.185.933.933 1.225.878 1.314-.25.325-4.138.857-7.424 1.433-8.853.353-.879.729-3.481.835-5.784.107-2.302.896-5.002 1.755-6 .952-1.104 1.65-4.081 1.787-7.613l.226-5.799-8.075.239c-5.969.177-8.075.59-8.075 1.581 0 .738-.647 1.59-1.437 1.893-.797.306-1.177 1.228-.854 2.07.417 1.088.044 1.417-1.313 1.159-1.311-.248-1.993-1.36-2.209-3.601-.282-2.912-.638-3.242-3.5-3.242l-3.187.001.088 87.249m42.113-85.586c.43 1.119.256 1.427-.531.941-1.308-.808-1.614 2.196-.405 3.977.404.596 3.435 1.615 6.735 2.266 3.3.65 6.15 1.625 6.333 2.167.509 1.503 2.167 1.173 2.167-.432 0-.779.439-1.566.974-1.75 2.438-.833-.208-4.734-3.076-4.535-1.592.111-2.895.54-2.896.952-.001.412-.452.75-1.002.75-1.393 0-1.253-3.347.2-4.8.933-.933.051-1.2-3.969-1.2-4.41 0-5.075.244-4.53 1.664M240 66.5c0 .825.477 1.5 1.059 1.5s.781-.45.441-1c-.359-.58.617-1 2.324-1 2.068 0 3.093.575 3.448 1.934.334 1.274 1.743 2.166 4.128 2.613 1.992.374 3.887 1.108 4.21 1.632.334.54 1.371.243 2.398-.687 1.679-1.519 2.052-1.508 5.151.154 4.089 2.192 13.744 4.319 14.447 3.182.282-.455 1.385-.828 2.453-.828 3.087 0 2.248-2.774-1.059-3.5-1.65-.362-3-1.227-3-1.921 0-2.333-7.614-3.579-21.866-3.579-11.897 0-14.134.237-14.134 1.5m-26.711 7.88c-.666.798-2.214 2.154-3.439 3.013-4.41 3.088 2.255 3.983 15.997 2.149 4.758-.635 6.54-.534 7.12.404.425.688 1.603 1.091 2.618.895 1.224-.235-.399-1.459-4.829-3.64-7.705-3.793-15.594-5.067-17.467-2.821m47.829 24.37c.408 2.58-.209 4.655-1.008 3.393-1.099-1.734-2.546.278-1.73 2.405.372.969-.104 1.452-1.43 1.452-1.621 0-1.872-.461-1.361-2.5.883-3.515-1.083-3.135-2.589.5-.683 1.65-1.638 3-2.121 3-.484 0-.879.45-.879 1s1.05 1 2.333 1c3.429 0 3.655.68 1.918 5.775-1.145 3.364-1.257 4.723-.412 5.005.639.213 1.161 1.051 1.161 1.862 0 .812.45 1.198 1 .858.598-.37 1.013.913 1.032 3.191.03 3.566.125 3.685 1.5 1.868.807-1.068 1.468-2.634 1.468-3.48 0-.847 1.602-4.135 3.56-7.307 1.958-3.173 3.268-6.241 2.911-6.819-1.064-1.721-3.462.97-6.021 6.757-1.287 2.909-2.578 5.29-2.87 5.29-1.019 0 .777-6.539 3.011-10.961 1.734-3.433 2.014-4.908 1.215-6.402-.863-1.613-.759-1.833.616-1.305 2.132.818 3.221-1.852 1.567-3.845-1.296-1.561-3.073-2.018-2.871-.737m52.577 4.361c-2.339 1.36-3.854 5.407-3.12 8.33.491 1.957 1.768 2.56 8.501 4.015 4.358.941 7.927 2.011 7.931 2.378.009.918 6.932 5.56 7.478 5.014 1.059-1.058-3.501-6.779-4.958-6.22-1.819.698-1.837.56-.444-3.435 2.571-7.377-8.062-14.344-15.388-10.082M271 110.765c-2.329 2.328-4.254 5.506-5.006 8.26-.671 2.461-2.067 6.725-3.101 9.475-4.106 10.918-3.248 12.19 1.685 2.5 2.66-5.225 4.931-10.084 5.048-10.798.116-.713 1.742-3.188 3.613-5.5 4.709-5.816 4.971-6.407 3.148-7.107-1.047-.402-2.914.697-5.387 3.17m-162.175 73.598c-.664 2.485-1.62 4.264-2.124 3.952-.503-.311-.657.278-.341 1.31.316 1.031.212 4.478-.23 7.658-1.043 7.503-.21 12.117 2.267 12.544 1.703.295 1.833-.134 1.274-4.213-.457-3.329-.254-4.752.757-5.328 1.576-.897 2.227-5.927 1.107-8.541-.695-1.62-.422-6.342.555-9.62.225-.756-.145-1.579-.823-1.828-.77-.282-1.687 1.245-2.442 4.066m33.181 3.635c-2.076 1.06-3.496 2.53-3.5 3.626-.003 1.014-.847 2.006-1.874 2.206-1.258.244-1.625-.033-1.122-.846.41-.664.167-1.566-.541-2.003-1.652-1.021-4.153-.088-3.331 1.242 1.676 2.712 2.131 7.777.698 7.777-.8 0-1.176.45-.836 1 .826 1.337 7.207 1.282 8.042-.068.363-.588 1.233-.848 1.934-.58.7.269 2.996-1.275 5.102-3.431 2.105-2.157 3.287-3.921 2.625-3.921-.662 0-1.21-1.238-1.218-2.75-.013-2.208-.222-2.455-1.066-1.25-.822 1.174-.913 1.011-.417-.75.738-2.624.213-2.653-4.496-.252m122.317 18.722c-5.225 1.089-7.036 1.863-6.659 2.846.334.87-.492 1.573-2.323 1.976-4.779 1.052-6.003 1.63-4.575 2.163.696.26 3.305-.223 5.798-1.072 4.017-1.369 4.598-1.374 5.108-.046.508 1.324.775 1.319 2.283-.046.939-.85 2.008-1.244 2.376-.877.368.368.669-.306.669-1.497 0-1.563.61-2.167 2.191-2.167 2.148 0 2.153.031.25 1.552-1.864 1.49-1.842 1.524.559.863 1.375-.379 3.114-.921 3.865-1.203 1.003-.378 1.185.054.686 1.628-.374 1.178-.399 2.597-.055 3.154.864 1.397 4.504-.632 4.504-2.51 0-1.805 5.231-3.291 5.781-1.642.471 1.415 9.219 1.565 9.219.158 0-.55-.562-1.007-1.25-1.015-.845-.011-.773-.318.224-.948.971-.614 1.732-.524 2.234.266.527.829.766.695.777-.436.016-1.764-5.24-3.376-5.818-1.785-.461 1.269-3.167 1.16-3.167-.127 0-1.24-7.321-.129-7.833 1.188-.56 1.439-4.193.953-4.805-.643-.669-1.741-.628-1.742-10.039.22m58.268 37.613c.37 1.192 1.064 2.317 1.541 2.5.477.184.868 1.121.868 2.084 0 .962.305 2.055.678 2.428.373.373.761 2.698.863 5.166.153 3.727-.122 4.489-1.619 4.489-.992 0-2.082.45-2.422 1-.34.55.084 1 .941 1 1.94 0 2.048 1.598.158 2.324-.855.328-1.616-.279-1.949-1.555-.517-1.976-.7-1.917-3.321 1.07-2.529 2.881-3.3 3.161-8.706 3.161-5.682 0-6.075-.168-9.355-4-2.488-2.907-4.192-4-6.237-4-1.547 0-4.774-.89-7.172-1.978C280.641 255.2 280 255.385 280 260v4h4.418c2.43 0 5.128.272 5.994.605 2.925 1.122.504 2.394-4.721 2.481-13.663.226 8.946 2.995 26.931 3.298 6.766.114 6.883.162 7.201 2.931.177 1.548-.401 3.918-1.284 5.266-1.488 2.271-1.475 2.631.177 4.866 3.59 4.856 4.826 3.96 6.668-4.832.935-4.463 2.091-9.465 2.568-11.115 1.223-4.231.628-16.303-1.019-20.693-1.533-4.083-5.554-6.374-4.342-2.474M229 251.231c0 2.465-.267 2.902-1.2 1.969-1.985-1.985-6.85-1.551-6.174.55.37 1.152.265 1.341-.308.553-.513-.706-1.417-.86-2.201-.375-.931.575-.998 1.027-.224 1.506 1.613.997 1.355 3.461-.563 5.379-1.214 1.214-1.782 1.331-2.083.428-.267-.8-2.498-1.241-6.281-1.241-4.528 0-6.102-.399-6.898-1.75-.707-1.2-1.273-1.398-1.8-.629-.422.617-3.58 1.32-7.018 1.564-5.517.391-6.25.231-6.25-1.358 0-1.631-.708-1.742-7.473-1.17-4.986.422-7.929.254-8.842-.504-1.638-1.359-2.765-.526-1.997 1.476.442 1.153 2.041 1.305 8.181.778 5.457-.468 7.343-.346 6.622.429-.573.614-6.1 1.239-12.771 1.444-13.168.405-13.936.749-12.756 5.72.457 1.925.877 2.938.934 2.25.056-.687.519-1.25 1.029-1.25.51 0 .801 2.137.647 4.75-.155 2.613.308 6.438 1.029 8.501 1.634 4.682 2.395 11.175 2.96 25.249.242 6.05.494 11.916.558 13.036.074 1.284.811 2.035 1.998 2.035 2.133 0 2.333-1.552.85-6.578-.567-1.921-1.032-7.557-1.033-12.525-.001-4.967-.657-11.492-1.457-14.5-1.794-6.74-1.939-11.37-.324-10.373.764.473.88.271.343-.598-.881-1.426.132-1.247 6.502 1.147 4.673 1.757 4.555 1.585 2.578 3.77-1.67 1.845-1.648 1.939.511 2.256 1.24.181 2.46.955 2.712 1.719.278.843.014 1.115-.671.691-.622-.384-1.13-.27-1.13.254 0 1.213 2.892 2.351 4.09 1.61.501-.309.91-.085.91.497s.45 1.059 1 1.059 1-.675 1-1.5c0-1.674 1.647-2.056 2.167-.502.385 1.152 8.488 1.68 9.547.622.389-.39-.625-1.797-2.253-3.128-1.629-1.331-2.398-2.436-1.711-2.456.688-.02 1.25-.486 1.25-1.036s-2.475-1-5.5-1-5.5-.45-5.5-1c0-1.71 9.697-1.652 11.45.068.522.513 1.872.977 3 1.032 1.783.086 1.725.215-.45.986-1.899.673-1.39.778 2.12.437 2.541-.247 4.874-.196 5.184.114.31.31 2.922.642 5.804.738 2.883.096 5.404.661 5.602 1.254.198.594 1.496.863 2.885.598 1.977-.378 2.65-.005 3.101 1.719.476 1.818 1.032 2.08 3.19 1.503 1.438-.385 3.064-.642 3.614-.571.55.071 4.743.569 9.318 1.106 8.575 1.006 13.4 2.071 21.182 4.673 4.807 1.608 17.279 3.744 28.149 4.822 7.107.704 9.735-.496 5.088-2.324-2.358-.928-5.482-1.561-17.899-3.63-1.19-.199-2.99-.791-4-1.318-1.011-.526-4.538-1.251-7.838-1.611-11.782-1.285-13.661-1.733-13.126-3.129.305-.793-.175-1.324-1.181-1.308-1.706.026-6.89-.51-15.193-1.571-2.475-.316-8.1-.969-12.5-1.452-9.097-.998-15.5-3.305-15.5-5.585 0-.853.45-1.551 1-1.551s.905-.337.788-.75c-.117-.413.442-1.762 1.24-3 1.25-1.935 2.321-2.25 7.654-2.25 9.839 0 8.765-2.804-1.182-3.086-7.949-.225-9.408-1.709-1.784-1.814 4.598-.064 8.535-.729 10.851-1.833l3.635-1.734 2.351 2.734c2.764 3.213 3.447 3.39 3.447.894 0-1.035 1.199-2.386 2.74-3.088 2.676-1.22 2.693-1.283.755-2.7-1.616-1.182-1.726-1.612-.593-2.312 1.117-.691.968-1.125-.755-2.201-1.181-.738-2.147-1.86-2.147-2.494 0-.633-.675-1.411-1.5-1.728-1.139-.437-1.5.188-1.5 2.593m6.651 11.525c-.257.415-.247 1.907.022 3.316.458 2.395 1.208 2.701 11.658 4.755 6.143 1.207 12.38 2.19 13.86 2.184 1.48-.006 2.988.47 3.351 1.057.363.588 1.29.827 2.059.532.77-.296 1.399-.101 1.399.431 0 .533 1.04.969 2.312.969 3.166 0 17.965 3.92 19.138 5.069 1.199 1.175 2.55 1.203 2.55.052 0-.973-2.601-2.021-11.4-4.593-4.207-1.23-5.498-1.979-4.5-2.611 1.492-.944 1.424-.966-4.367-1.36-4.72-.322-5.574-1.144-3.423-3.295 1.587-1.587 1.69-1.586 1.69.024 0 2.267 2.209 2.167 6.226-.282l3.274-1.997-5.191-.003c-2.855-.002-5.471-.457-5.813-1.011-1.915-3.099-6.139-3.932-9.848-1.944-4.499 2.411-4.581 2.41-3.938-.049.496-1.897.031-2-9.034-2-5.257 0-9.768.34-10.025.756m74.465 10.494c-.087 1.317-.996 1.75-3.675 1.75-2.118 0-3.309-.405-2.941-1 .34-.55.141-1-.441-1s-1.059.384-1.059.853c0 .782-2.87.732-14.794-.26-2.886-.24-4.169.014-3.912.775.43 1.272.5 1.28 13.956 1.484 10.517.16 10.587.208 8.28 5.731-1.31 3.135-1.698 3.397-3.556 2.403-1.147-.614-2.622-.907-3.279-.652s.267 1.003 2.055 1.663c2.014.743 3.25 1.881 3.25 2.994 0 2.156-2.14 3.167-4.091 1.932-.775-.491-4.559-.861-8.409-.822l-7 .07 7.5 1.947c4.125 1.071 8.39 2.088 9.478 2.261 1.087.172 2.212 1.191 2.5 2.265.717 2.68 9.225 3.296 11.676.845.942-.942 2.643-1.474 3.927-1.229 1.59.304 2.41-.117 2.749-1.412.539-2.063-.838-3.453-1.83-1.848a1.223 1.223 0 01-1.681.388c-.573-.354-1.398-.069-1.832.633-.759 1.229-9.987 2.177-9.987 1.027 0-.309.406-1.975.901-3.703.583-2.034.536-3.508-.136-4.18-.715-.715-.53-1.543.599-2.672.9-.9 1.636-2.954 1.636-4.564 0-2.689.307-2.942 3.75-3.089 3.603-.154 3.625-.176.562-.559-1.917-.24-3.366-1.073-3.634-2.09-.406-1.538-.456-1.533-.562.059M354 284.752c0 .51 1.854 1.54 4.119 2.287l4.119 1.36-2.632 2.264c-1.448 1.245-3.189 2.093-3.869 1.884-6.327-1.944-9.321-1.045-4.237 1.271 3.568 1.626 3.376 4.609-.25 3.877-1.512-.305-3.462-.831-4.333-1.168-1.283-.497-1.498-.034-1.135 2.439.246 1.679.003 3.611-.541 4.293-.977 1.227-.932 6.147.244 26.904.396 6.976.244 10.887-.44 11.309-.575.355-1.045 1.096-1.045 1.646 0 .55.398.754.884.454.93-.575 2.503 2.878 3.613 7.928.362 1.65 1.242 3.675 1.954 4.5.713.825 1.598 3.188 1.968 5.25.369 2.063 1.13 3.75 1.689 3.75.56 0 .92.788.801 1.75s.159 2.623.617 3.69c.499 1.161.434 2.073-.162 2.272-.548.183-.866 1.987-.707 4.01.208 2.639-.268 4.198-1.683 5.517-2.342 2.182-2.785 8.761-.591 8.761 1.604 0 2.701 3.245 1.664 4.923-.389.63-1.458.856-2.377.504-1.261-.484-1.67-.079-1.67 1.657 0 2.236-.04 2.245-1.468.357-1.425-1.884-1.469-1.872-1.5.417-.026 1.941-.43 2.259-2.282 1.795-3.041-.761-5.094 3.157-3.089 5.897 2.266 3.1 1.745 6.363-.911 5.708-2.311-.569-6.561-4.258-4.906-4.258 1.07 0 2.204-3.619 1.389-4.433-.302-.302-1.147-.053-1.878.553-1.562 1.297-6.717.275-5.833-1.156.333-.538-.099-1.248-.959-1.578-.919-.353-1.563-1.792-1.563-3.493 0-2.52-.371-2.893-2.878-2.893-1.583 0-4.492-.674-6.464-1.498-2.107-.881-5.148-1.291-7.372-.995-4.911.653-10.736-.453-7.823-1.486 1.83-.649 1.778-.817-.768-2.485-1.907-1.249-2.436-2.143-1.754-2.965 1.517-1.828.138-5.453-2.013-5.291-2.632.199-3.289 2.664-1.297 4.865.996 1.1 1.209 1.855.524 1.855-.635 0-1.155.687-1.155 1.526 0 1.34-.39 1.324-3.206-.132-1.958-1.013-3.339-1.259-3.548-.632-.188.564-1.22.796-2.294.515-1.075-.281-1.952-.009-1.952.606s.92 1.117 2.044 1.117 1.971.563 1.881 1.25c-.345 2.659.15 3.639 2.16 4.277 2.218.704 1.997 5.186-.326 6.622-.596.368.002.823 1.329 1.01 3.501.495 3.645 8.166.162 8.661-1.238.175-2.25-.162-2.25-.75 0-.589.788-1.084 1.75-1.102 1.604-.029 1.614-.135.117-1.275-.899-.683-1.837-2.132-2.086-3.218-.323-1.409-.675-.9-1.228 1.775-.427 2.063-1.228 3.75-1.781 3.75-.582 0-.712-.946-.308-2.25 1.99-6.421 1.99-6.422-2.595-7.155-2.37-.379-4.604-1.167-4.965-1.751-.361-.584-2.737-1.296-5.28-1.583-2.543-.287-4.624-.838-4.624-1.224 0-.387-.675-.704-1.5-.704s-1.5.6-1.5 1.334c0 .733-.896 1.333-1.992 1.333-1.095 0-2.553.9-3.24 2-.687 1.1-1.968 2-2.847 2-1.132 0-1.635 1.014-1.728 3.488-.191 5.077-2.696 8.434-6.009 8.052-2.121-.245-2.629-.782-2.422-2.557.221-1.901.029-2.054-1.25-.993-.832.69-1.512 2.1-1.512 3.132 0 1.033-.486 1.878-1.079 1.878-.669 0-.84-1.094-.449-2.873.452-2.055.207-3.036-.859-3.445-1.047-.402-1.613.23-1.902 2.123-.359 2.355-.43 2.27-.561-.672-.141-3.155.022-3.333 2.589-2.842 1.507.288 3.487.123 4.4-.366 1.158-.619 1.831-.445 2.223.576.327.851 1.226 1.211 2.144.858 1.408-.54 1.384-.8-.212-2.355-.987-.962-2.132-1.554-2.544-1.317-.412.237-.75-.013-.75-.555s.787-1.168 1.75-1.392c.963-.223-.343-.751-2.901-1.172-4.552-.749-8.905-.128-8.71 1.243.303 2.13-.352 2.148-2.047.055-2.466-3.047-1.75-4.043 2.76-3.838 7.728.351 8.148.195 8.148-3.028 0-3.247-2.935-4.438-3.079-1.25-.047 1.045-.282 1.247-.583.5-.621-1.539-3.554-1.634-5.025-.163-.705.705-1.303.738-1.701.094-.338-.546-1.552-.748-2.698-.448-1.608.42-1.779.75-.749 1.447 1.071.725 1.039.872-.165.743-4.614-.492-6.229.095-5.71 2.077.391 1.495.03 2-1.427 2-1.263 0-1.847-.58-1.657-1.646.162-.906-.268-1.843-.956-2.084-.717-.25-1.25.379-1.25 1.476 0 1.607-.681 1.891-4.25 1.771-3.824-.129-4.282-.412-4.566-2.83-.352-2.984-1.35-3.397-3.103-1.284-.797.96-.828 1.515-.099 1.758.648.216.809 1.633.411 3.623-.516 2.582-1.036 3.147-2.478 2.689-1.003-.318-2.969.172-4.369 1.089-1.669 1.093-2.546 1.263-2.546.494 0-3.609-1.804.76-2.301 5.571-.323 3.127-.995 5.953-1.493 6.279-.498.327-1.163 1.269-1.477 2.094-.314.825-.607-.601-.65-3.168-.12-7.078-.653-7.933-3.899-6.257-2.877 1.486-3.959 4.759-3.344 10.107l.367 3.182 69.398.091c55.557.073 69.402-.163 69.414-1.182.012-1.002.192-.995.846.036.649 1.023 5.059 1.242 20.184 1l19.354-.309.357-68.656c.246-47.338.029-68.859-.696-69.307-.579-.358-1.842-.797-2.806-.976-7.614-1.413-10.254-1.621-10.254-.809m-38.914 52.829c-3.647 3.069-2.401 5.419 2.874 5.419 1.836 0 3.338.613 3.678 1.5.317.825 1.487 1.5 2.601 1.5 2.503 0 9.557 4.235 7.948 4.771-.752.251-.319 1.515 1.221 3.559 1.314 1.743 2.552 4.065 2.752 5.159.199 1.093 1.091 2.128 1.98 2.299 2.933.565 3.447-9.552.799-15.708-1.91-4.44-4.939-6.942-4.939-4.08 0 .55-.47 1-1.044 1-.574 0-.911-.759-.75-1.688.473-2.714-5.881-3.637-8.311-1.207-1.86 1.86-1.896 1.844-1.958-.855-.061-2.643-.099-2.663-.968-.5-.498 1.238-1.294 2.25-1.77 2.25-1.838 0-2.032-1.325-.532-3.615 2.056-3.137.263-3.039-3.581.196m-179.472 6.982c-.33.86-1.053 1.284-1.607.941-.554-.342-1.012.192-1.018 1.187-.006.995-.29 3.497-.631 5.559-.604 3.654-.541 3.75 2.452 3.75 1.69 0 3.38.498 3.756 1.107.441.713.017.922-1.191.587-1.031-.285-3.542-.8-5.58-1.143-2.887-.487-3.566-.983-3.08-2.252.389-1.013.223-1.379-.44-.969-.586.362-1.31.021-1.609-.758-.35-.912-1.367-1.215-2.855-.85-3.973.975-4.811 2.315-4.811 7.7 0 2.848-.395 5.605-.879 6.128-.483.522-1.184 3.792-1.557 7.266-.654 6.095-.608 6.278 1.318 5.247 1.423-.761 2.189-.757 2.666.015.369.596 1.722.82 3.008.497 1.578-.396 2.635-.056 3.251 1.045 1.385 2.475 10.919 3.003 11.403.631.33-1.619 4.666 3.239 7.81 8.749.688 1.207 1.104 1.254 2.128.24 1.028-1.019.946-1.811-.433-4.145-1.583-2.681-1.586-2.93-.042-3.523 1.299-.498 1.398-.901.453-1.846-.946-.946-1.395-.909-2.06.167-1.31 2.119-2.933-1.696-2.35-5.525.262-1.722-.017-3.436-.62-3.809-1.556-.961-1.415-5.833.154-5.306.688.23 1.255 1.151 1.262 2.045.033 4.728 8.007 1.756 8.848-3.298.137-.825 1.045-3.003 2.017-4.84 2.45-4.63 1.892-5.381-7.555-10.158-4.577-2.313-8.75-4.611-9.272-5.104-1.381-1.305-2.256-1.107-2.936.665m80.886 4.161c1.1.27 2.45.853 3 1.294.55.442 2.8 1.131 5 1.533 4.62.843 22.661 6.964 26.737 9.072 2.65 1.37 2.763 1.329 2.763-.993 0-3.394-7.056-6.883-19.273-9.53-7.96-1.725-24.824-2.998-18.227-1.376M125 359.281c0 1.044-1.013 2.743-2.25 3.775-1.527 1.274-1.788 1.888-.813 1.911.966.022.555.953-1.25 2.838-1.478 1.542-2.687 3.022-2.687 3.287 0 .915 3.962.779 4.539-.156 1.023-1.655 2.461-.999 2.461 1.123 0 1.132.45 1.781 1 1.441.55-.34 1-.141 1 .441 0 2.331 2.51.88 2.65-1.532.121-2.102-.216-2.494-1.791-2.082-1.609.42-1.825.136-1.265-1.66 1.494-4.792 4.004-4.527 6.723.711 1.451 2.798 1.66 4.045.816 4.889-1.631 1.631-1.402 2.304.785 2.304 2.339 0 3.475-4.406 2.082-8.071-.611-1.607-.602-2.5.025-2.5.536 0 .975.54.975 1.2 0 .868.302.898 1.093.107.79-.79.78-1.676-.036-3.2-1.051-1.964-.87-2.115 2.658-2.223 2.082-.064 2.885-.315 1.785-.559-1.1-.243-2.675-.724-3.5-1.069-.825-.345-4.537-1.132-8.25-1.75-6.357-1.057-6.75-1.012-6.75.775m165.438-1.18c-.387.626-1.922.852-3.559.525-3.127-.626-4.282 1.898-1.379 3.012 1.863.715 1.986 3.362.157 3.362-.739 0-3.923-.887-7.074-1.972-3.897-1.34-5.601-1.58-5.324-.75.224.672 1.197 1.375 2.163 1.562.966.188 3.364 1.432 5.33 2.766 3.496 2.373 6.899 2.444 8.36.174.336-.523.904-.903 1.26-.845.357.058 2.035-.611 3.729-1.487 3.085-1.595 6.538-1.291 5.443.48-.34.551 1.519.866 4.475.757 4.536-.166 5.027.021 4.769 1.815-.358 2.487-6.284 2.536-11.985.099-2.033-.87-3.929-1.204-4.214-.743-.656 1.061 6.136 7.144 7.976 7.144.78 0 1.135.618.823 1.432-.353.92.642 2.044 2.781 3.14 1.832.939 3.567 2.069 3.856 2.512.464.712 9.215 3.102 9.554 2.61.815-1.184 1.141-6.694.396-6.694-.536 0-.975.675-.975 1.5 0 1.842.482 1.873-5.935-.387-2.948-1.038-5.765-2.613-6.262-3.5-1.055-1.886-.805-1.945 2.66-.627 2.273.864 2.737.67 3.758-1.572.912-2.001.888-2.729-.112-3.346-.986-.61-.917-.928.307-1.397.963-.37 1.584-1.796 1.584-3.64 0-2.797-.27-3.031-3.5-3.031-1.925 0-3.5.372-3.5.827 0 .454-2.251.365-5.002-.198-3.342-.685-4.67-1.357-4-2.027.551-.551 1.002-1.362 1.002-1.802 0-1.222-6.788-.952-7.562.301M98.837 383.328c-1.433 1.091-1.702 4.008-1.951 21.218l-.289 19.954 45.201.155 45.202.154v-2.404c0-1.323-.478-2.405-1.063-2.405-.584 0-.965-.788-.846-1.75s-.044-2.425-.363-3.25c-.318-.825-.865-3.637-1.215-6.25-.692-5.175-.746-5.231-3.579-3.715-1.439.771-1.972.707-2.082-.25-.081-.707-.24-1.96-.352-2.785-.112-.825-.271-2.812-.352-4.417-.081-1.604-.396-2.668-.699-2.366-1.017 1.018-9.945-2.992-10.272-4.614-.188-.928.338-1.603 1.25-1.603 2.073 0 1.941-.978-.532-3.95-2.59-3.111-5.569-1.753-5.073 2.313.356 2.921-1.409 3.655-2.133.887-.435-1.667-.463-1.667-.573 0-.064.962-.903 1.757-1.866 1.765-1.307.012-1.42.225-.448.841 1.553.985 1.291 13.952-.265 13.144-.53-.275-.841-1.661-.693-3.08.325-3.094-2.207-5.778-3.513-3.725-.457.718-1.492 1.305-2.299 1.305-.808 0-2.44 1.733-3.629 3.851-1.27 2.264-2.44 3.398-2.84 2.75-1.86-3.009-2.817-.807-2.203 5.068.754 7.211-.414 6.945-1.86-.425-.55-2.802-1.507-5.26-2.127-5.462-1.66-.54-2.664 2.9-1.157 3.966.855.605.366.762-1.466.469-1.869-.299-2.75-.003-2.75.922 0 1.898-3.029 1.704-4.485-.288-1.428-1.953-6.508-2.757-6.53-1.033-.008.65-.57.093-1.25-1.239-1.77-3.469-3.381-3.603-4.556-.379-1.017 2.788-1.021 2.785-1.1-.95-.053-2.518-.541-3.75-1.485-3.75-.863 0-1.225-.697-.936-1.802.381-1.454-.553-2.08-4.843-3.249-2.923-.796-5.619-1.347-5.991-1.223-2.199.731-1.838-9.588.436-12.476 1.268-1.609-.269-1.56-2.423.078m235.413 121.46l-9.25.287v4.963c0 4.626-.169 4.962-2.5 4.962-1.375 0-2.5.42-2.5.934 0 .513-1.238 1.157-2.75 1.431-3.615.654 14.28-.272 18.5-.957 3.746-.609 3.372-2.632 3.736 20.252.162 10.164-.075 13.051-1.037 12.682-.686-.263-1.544.002-1.907.59-.386.625.193 1.068 1.399 1.068 1.164 0 2.059.652 2.059 1.5 0 1.114 1.173 1.5 4.559 1.5 2.785 0 4.319-.389 3.941-1-.34-.55.309-1 1.441-1 1.132 0 2.059.45 2.059 1 0 1.616 22.25 1.271 25.46-.395 1.479-.767 2.258-1.661 1.731-1.987-.537-.332-.87-5.432-.759-11.605.182-10.075-.655-14.324-1.726-8.763-.428 2.222-.435 2.221-.57-.122-.187-3.255-3.136-.908-3.136 2.494 0 3.937-1.839 2.685-3.487-2.372-1.463-4.489-1.523-4.545-1.096-1.018.248 2.052.031 3.991-.483 4.309-.514.317-.934-.275-.934-1.315 0-2.596-1.054-3.426-2.658-2.095-.982.815-1.342.816-1.342.003 0-1.652 3.226-5.112 4.203-4.508.466.287.782.152.703-.302-.403-2.323.213-5.324 1.094-5.324.55 0 1 1.875 1 4.167 0 4.587.815 4.694 1.573.206.991-5.871 3.482-8.11 2.64-2.373-.264 1.801.005 3 .674 3 .612 0 1.174-1.237 1.249-2.75.134-2.694.145-2.699.585-.25.848 4.727 2.279 4.539 2.279-.3 0-2.585-.441-4.7-.981-4.7-.539 0-1.263-1.125-1.608-2.5-.651-2.592-5.411-3.765-5.411-1.333 0 .641-.286.881-.635.532-.784-.784 1.576-6.699 2.673-6.699.437 0 1.022.563 1.3 1.25.318.789.533.645.583-.393.101-2.093-2.997-3.34-4.076-1.641-.545.859-.819.901-.83.128-.011-.874-.632-.874-2.55 0-1.671.762-2.384 1.752-2.093 2.906.281 1.115-.133 1.75-1.14 1.75-1.228 0-1.039.589.844 2.637l2.424 2.637-10.914-.679c-13.098-.815-12.943-.737-12.322-6.241.593-5.263 1.345-4.92-10.014-4.566M304 532.654v8.653l-14.25-.846c-30.229-1.795-47.873-.777-48.562 2.8-.285 1.483.524 1.754 5.489 1.839 3.203.055 6.948.488 8.323.962 1.663.575-.758.792-7.236.651-5.934-.13-9.762.178-9.8.787-.107 1.691 5.893 2.395 21.536 2.528 19.435.165 19.728.149 19-1.028-.34-.55.084-1 .941-1 1.967 0 1.959.457-.041 2.457-1.466 1.467-.415 1.588 12.615 1.451 7.818-.081 13.665-.488 12.993-.903-.86-.531-.898-.955-.128-1.431.636-.393.864-2.119.545-4.125l-.548-3.449 8.311-.015c4.92-.009 7.768-.361 6.978-.861-1.074-.681-1.025-.964.25-1.453 2.385-.916 1.94-4.332-.666-5.11l-2.25-.671 2.25-1.098c1.753-.855 2.25-1.947 2.25-4.945V524h-18v8.654m-181.5-6.51c-12.666 1.231-17.04 3.559-11 5.856 2.823 1.073 3.233 3.41.99 5.653-1.347 1.347-1.27 1.853.713 4.678 2.521 3.593 4.787 5.591 6.394 5.637 1.276.037 8.403-6.664 8.403-7.901 0-.46 1.125-1.574 2.5-2.475s2.5-2.058 2.5-2.571c0-.513 1.158-2.638 2.573-4.723l2.573-3.792-2.323-.653c-2.781-.782-2.131-.797-13.323.291m16.5.734c0 .482.626 1.396 1.39 2.031 2.185 1.813 5.192 9.915 6.622 17.841 1.735 9.614 2.998 9.185 2.944-1-.064-12.139-3.383-19.75-8.611-19.75-1.29 0-2.345.395-2.345.878m-19.5 39.838c-1.1.266-2.9 1.281-4 2.257-1.1.975-2.675 2.019-3.5 2.321-1.157.423-1.086.566.309.627.995.043 1.575.457 1.289.92-.286.463.825 1.835 2.469 3.05 1.644 1.216 2.749 2.597 2.457 3.071-.897 1.451 7.364 2.376 9.011 1.009 1.805-1.498 2.003-11.033.265-12.771-1.2-1.2-4.536-1.395-8.3-.484" fill="#d3d3d3" fill-rule="evenodd"/></svg>