<svg xmlns="http://www.w3.org/2000/svg" width="500" height="375"><path d="M0 128.487C0 253.912.045 257 1.893 257c1.041 0 2.181.752 2.534 1.67.648 1.69-.882 3.287-3.177 3.315-.712.008-1.25 1.276-1.25 2.945 0 2.817.123 2.895 3.18 2.018 1.749-.501 3.542-1.482 3.984-2.18.549-.864.81-.571.821.923.008 1.205.542 2.517 1.186 2.915.776.479.438.994-1 1.526-1.194.442-2.171 1.295-2.171 1.895 0 .6.419.832.931.516a1.086 1.086 0 011.494.336c.6.971-1.611 2.121-4.078 2.121C.029 275 0 275.343 0 326.424v48.566l174.559.004c96.007.003 174.354-.333 174.104-.745s-.082-9.524.374-20.249c.455-10.725.922-22.65 1.037-26.5.116-3.85.627-7.816 1.137-8.814.603-1.179.54-2.281-.179-3.148-.609-.734-1.301-2.341-1.538-3.571-.555-2.879-1.494-3.829-1.494-1.511 0 1.423-.288 1.55-1.404.623-.8-.663-2.522-.885-3.998-.514-1.426.358-3.382.304-4.346-.121-1.987-.875-2.837-1.14-4.221-1.319-.532-.069-.685-.913-.339-1.875.501-1.395.126-1.293-1.846.5-1.361 1.238-3.571 2.264-4.91 2.28-2.137.027-2.221.156-.686 1.05.962.561 1.75 1.451 1.75 1.978 0 .527-.9.397-2-.29-2.337-1.459-2.684-4.768-.5-4.768.825 0 1.5-.459 1.5-1.02 0-.56-1.18-.805-2.623-.544-2.782.505-4.505 1.564-2.544 1.564.642 0 1.16.788 1.152 1.75-.01 1.076-.299 1.328-.75.654-1.016-1.516-6.235-2.707-6.235-1.423 0 .56.675 1.019 1.5 1.019s1.5.45 1.5 1-.689 1-1.531 1c-.843 0-1.772.625-2.065 1.389-.323.843-1.348 1.177-2.602.849-1.477-.386-1.935-.14-1.599.86.308.916 2.174 1.458 5.384 1.563 2.702.089 6.763.436 9.023.771 3.028.449 4.443.209 5.373-.911 1.067-1.286.895-1.541-1.111-1.653-1.672-.092-1.34-.328 1.128-.799 4.868-.929 6.378-.302 4.286 1.778-1.547 1.539-1.344 1.674 2.928 1.954l4.59.301-.45 8.199c-1.225 22.354-2.465 40.144-2.824 40.502-.22.22-1.734-.966-3.365-2.634-1.631-1.669-3.308-2.727-3.726-2.352-.418.376-.436.121-.04-.567.891-1.549.386-1.565-2.852-.089-2.367 1.078-3.004 2.087-2.637 4.175.081.46-.766 1.075-1.881 1.367-1.116.292-2.029.954-2.029 1.473 0 .518-.458.659-1.018.313-.559-.346-3.372-.814-6.25-1.04-12.758-1.002-15.732-1.584-15.732-3.08 0-.869.48-1.191 1.155-.774.776.48.887.254.339-.69-.448-.773-.449-1.074-.003-.671 1.156 1.047 3.439-2.297 3.477-5.091.024-1.746-.379-2.199-1.552-1.749-1.013.389-1.42.157-1.13-.643.249-.688-.185-1.986-.965-2.883-1.499-1.726-.883-6.868.823-6.868.509 0 .398-.986-.247-2.192-1.069-1.999-1.344-15.371-.417-20.341.202-1.082.401-2.892.443-4.022.062-1.644.721-2.044 3.29-2 3.009.051 3.269-.224 4.085-4.325.692-3.477.55-4.701-.69-5.94-2.032-2.033-3.386-.656-1.82 1.852 1.565 2.507 1.548 3.492-.038 2.175-1.168-.969-1.833-1.207-3.372-1.207-.343 0-.063-.675.622-1.5 1.021-1.23.948-1.5-.409-1.5-.91 0-1.897.634-2.195 1.41-.297.775-1.56 1.665-2.806 1.978-1.246.313-2.776 1.591-3.4 2.84-1.087 2.174-1.126 2.142-.913-.721.199-2.675-.07-2.983-2.527-2.888-1.512.059-2.75-.267-2.75-.725 0-2.904-2.552.885-2.774 4.119-.266 3.871-.182 3.987 2.904 3.987h3.178l-.678 16.75c-.842 20.795-1.261 23.214-3.748 21.677-.626-.387-.592-1.072.096-1.901 1.42-1.71-3.317-3.012-5.766-1.585-.942.549-1.319 1.012-.84 1.029.48.016.276.749-.452 1.627-1.204 1.45-1.393 1.427-2.053-.25-.655-1.666-.733-1.638-.797.292-.1 3.043 2.979 6.433 6.161 6.782 1.492.164 2.503-.042 2.247-.457-.257-.415.162-.995.929-1.29.856-.328 1.622.308 1.981 1.645 1.094 4.08.798 4.851-1.409 3.67-1.111-.595-2.531-.766-3.154-.381-1.504.929-5.415 1.596-10.325 1.759-3.43.114-4.045-.186-4.318-2.107-.305-2.146-.443-2.176-3.25-.725-1.613.834-2.932 1.225-2.932.868 0-.356-.675-.088-1.5.597-1.251 1.038-1.5.903-1.5-.81 0-1.144-.846-2.324-1.908-2.661-1.049-.333-2.16-1.263-2.468-2.067-.945-2.462-5.972-1.9-5.319.595.345 1.32.118 1.902-.634 1.625-.644-.238-1.047-.972-.896-1.631.151-.66-.117-.957-.596-.661-1.131.698-.262-8.593.92-9.84.559-.589.901-.444.901.383 0 1.697 4.166 5.365 4.928 4.338.651-.877 5.128-.951 6.597-.107 4.016 2.306 10.475 1.855 10.475-.731 0-.788.436-1.433.969-1.433.532 0 .679-.755.325-1.677-.576-1.5-.723-1.474-1.399.25-.415 1.06-.786 1.365-.825.677-.038-.687-.97-1.25-2.07-1.25-1.1 0-2-.502-2-1.117 0-.624-.882-.886-1.999-.594-1.099.288-2.251.115-2.559-.383-.308-.498-1.433-.906-2.501-.906-1.068 0-1.941-.477-1.941-1.059s-.45-.781-1-.441-1 .201-1-.31c0-.51-1.834-.716-4.076-.457-3.917.453-4.064.368-3.75-2.162.179-1.448.726-2.581 1.214-2.517.489.064 1.276-.484 1.75-1.219.652-1.009 1.013-.786 1.479.915.5 1.826 1.3 2.237 4.25 2.18 2.942-.057 3.252-.234 1.633-.93l-2-.859 2-.084c1.1-.047 3.125-.342 4.5-.657 1.452-.333 2.022-.223 1.361.263-.847.622-.829 1.125.068 1.957.895.83 1.692.765 3.08-.25 1.03-.754 1.337-1.37.682-1.37-.655 0-1.078-.506-.941-1.125.138-.619-.375-1.352-1.139-1.63-.764-.277-1.126-.078-.803.444.339.549-.651.767-2.351.518-1.707-.251-2.667-.867-2.292-1.474.374-.605.161-.743-.51-.328-.635.392-1.155.236-1.155-.346S258.65 334 257 334c-1.725 0-3.007.531-3.015 1.25-.011.833-.339.75-.985-.25-.646-1-.974-1.083-.985-.25-.008.688-.465 1.25-1.015 1.25-.607 0-1-4.363-1-11.088v-11.088l3.75.557c3.33.495 26.695 1.076 30.057.747.906-.089 1.213-1.434 1-4.378-.26-3.604-.649-4.269-2.557-4.375-3.56-.198-3.889-.456-1.75-1.375 1.692-.727 1.514-.87-1.156-.93-2.679-.059-3.078.233-2.634 1.93.423 1.615.031 2-2.034 2-1.407 0-2.818-.421-3.137-.936-.318-.515-1.357-.899-2.309-.854-.951.046-3.791-.247-6.31-.651-4.539-.729-4.59-.705-5.648 2.603l-1.068 3.338-.102-3.25c-.107-3.417-1.47-4.34-2.488-1.687-.33.86-1.06 1.279-1.623.931-.563-.348-.765-1.051-.448-1.563.591-.957.44-1.025-3.157-1.416-1.163-.126-2.594-.526-3.181-.888-.587-.363-1.349-.202-1.695.357-.345.559-.039 1.046.681 1.084.72.037.297.556-.941 1.152-1.238.597-2.243 1.804-2.235 2.683.014 1.396.137 1.408.985.097.835-1.293.971-1.266.985.191.008.93-.435 1.969-.985 2.309-1.659 1.026-1.125 2.5.905 2.5 1.758 0 1.87.64 1.44 8.25-.574 10.179-1.123 13.005-2.374 12.232-.534-.33-.971.128-.971 1.018s.45 1.34 1 1c.55-.34 1.033-.254 1.074.191.041.445.259 1.796.485 3.002.379 2.022.024 2.189-4.574 2.154-2.742-.022-4.985-.454-4.985-.962s-1.238-.652-2.75-.321c-5.323 1.167-5.478 1.275-4.051 2.819.716.774 1.639 1.203 2.051.953.412-.25.75.217.75 1.038 0 .942 1.013 1.521 2.75 1.57 1.513.043 3.425.105 4.25.139.825.034 2.572-.264 3.883-.662 2.368-.719 2.38-.685 1.86 5.484-.591 7.014-.939 7.727-2.874 5.893-.753-.714-2.261-1.454-3.351-1.645-1.09-.191-3.185-1.204-4.654-2.25-1.47-1.047-3.166-1.903-3.768-1.903-.603 0-1.096-.45-1.096-1s-.689-1-1.531-1c-.843 0-1.784-.658-2.093-1.462-.308-.804-1.426-1.736-2.483-2.072-1.057-.335-1.657-1.039-1.333-1.563.324-.524.218-.888-.236-.809-2.13.37-3.376-.2-2.729-1.249.443-.715.275-.883-.44-.44-.635.392-1.155.21-1.155-.405s-.364-.893-.808-.619c-.444.275-4.366-1.915-8.716-4.866-4.35-2.951-8.269-5.143-8.71-4.87-1.602.99-7.769-3.806-8.328-6.478a396.962 396.962 0 01-.882-4.331c-.193-.989.48-1.874 1.661-2.182 1.251-.328 1.705-.971 1.229-1.741-.456-.738-.339-.965.295-.573.577.357 1.302-.009 1.611-.814.308-.804.13-1.728-.396-2.053-.526-.325-.956-.129-.956.437 0 .565-.647.779-1.437.476-1.999-.767-.782-3.382 1.27-2.729 1.43.456 1.453.378.167-.547-.825-.594-1.009-1.086-.409-1.095.723-.01.867-1.494.427-4.395-.365-2.409-.594-5.334-.508-6.5.085-1.166-.205-2.12-.646-2.12-.441 0-.558-.634-.26-1.41.593-1.547-2.909-3.138-4.604-2.09-.559.346-1.435-.413-1.945-1.686-.73-1.821-.942-1.928-.992-.505-.034.995-.471 1.557-.969 1.249-.498-.308-.671-1.46-.383-2.559.303-1.162.03-1.999-.653-1.999-.647 0-.874-.489-.504-1.087.369-.598 1.52-.865 2.558-.594 1.037.271 2.138.085 2.446-.413.308-.498-.099-.906-.905-.906-.973 0-1.29-.672-.943-2 .304-1.162.031-2-.652-2-.647 0-.898.45-.558 1 .34.55.141 1-.441 1s-1.095-.788-1.138-1.75c-.048-1.056-.28-1.252-.585-.494-.558 1.383-2.336.717-2.336-.874 0-.55.45-.722 1-.382.55.34 1-.084 1-.941s-.45-1.559-1-1.559-1-.45-1-1 .338-.888.75-.75c.412.137.824-.15.915-.638.09-.489.765-1.269 1.5-1.735 1.014-.643.9-.85-.474-.862-.995-.008-1.531-.465-1.191-1.015.34-.55.21-1-.289-1-1.783 0-1.186-5.995.606-6.079 1.04-.049 1.206-.271.433-.583-.687-.278-1.25-1.169-1.25-1.98 0-.812-.48-1.179-1.067-.817-.587.363-.945.052-.797-.691.149-.742-.529-2.853-1.505-4.69-.977-1.837-1.532-3.975-1.235-4.75.298-.776.119-1.41-.396-1.41s-.678-.675-.362-1.5c.317-.825.051-1.5-.59-1.5s-.888-.45-.548-1c.34-.55-.196-1.007-1.191-1.015-1.037-.009-1.371-.329-.783-.75 1.126-.808 1.166-4.821.071-7.336-.383-.88-.621-2.005-.528-2.5.481-2.571-.19-4.29-1.482-3.794-.776.298-1.612-.054-1.856-.782-.244-.727-.326-.535-.181.428.145.964-.144 1.5-.642 1.192-.499-.308-1.851 1.041-3.006 2.998-1.752 2.969-2.663 3.559-5.501 3.559-4.065 0-4.148-.591-.901-6.407 2.699-4.834 3.061-6.058 1.508-5.098-.546.337-1.722.205-2.614-.294-1.413-.791-1.35-.979.491-1.461 1.162-.304 2.387-.108 2.722.434.336.542 2.102-1.491 3.926-4.518 4.168-6.92 6.505-9.272 8.777-8.835 1.858.358 4.69-1.419 4.69-2.943 0-.483-.675-.878-1.5-.878s-2.468-.968-3.651-2.151c-2.684-2.684-9.849-3.522-9.849-1.152 0 3.154-2.79-.712-3.237-4.485-.242-2.042-.791-4.513-1.22-5.493-.703-1.605-.349-1.716 3.588-1.122 4.692.707 4.58-.96-.131-1.957-1.375-.291.282-.374 3.682-.185 4.265.236 6.329-.041 6.657-.897.672-1.75-.895-3.95-2.227-3.127-.759.469-1.112-.899-1.112-4.313 0-5.307-.529-6.008-5.413-7.175-2.922-.699-2.86-.744 1.163-.841 6.152-.148 6.011-3.553-.304-7.367-2.794-1.688-4.28-3.194-3.846-3.898.438-.707.267-.873-.445-.432-.635.392-1.155.329-1.155-.141 0-.469 3.863-2.858 8.584-5.308 8.695-4.511 11.933-6.942 9.288-6.971-1.1-.013-1.082-.199.091-.941 1.613-1.02 2.447-14.044.899-14.044-.474 0-.862-1.152-.862-2.559 0-1.451-.433-2.292-1-1.941-.55.34-1 .066-1-.608 0-1.205-1.42-.361-1.584.941-.046.367-.596 1.9-1.221 3.407-.75 1.805-.849 4.287-.292 7.269.477 2.554.464 4.764-.029 5.069-.481.297-.922 1.526-.98 2.731-.096 1.964-.219 1.906-1.193-.559-.598-1.512-1.477-2.75-1.953-2.75s-.545-.52-.153-1.155c.443-.715.275-.883-.44-.44-.635.392-1.184.349-1.219-.096-.583-7.396-1.83-11.208-2.036-6.226l-.099 2.417L160 138c-1.423-4.444-1.225-6.431.5-5 1.274 1.058 1.5.811 1.5-1.642 0-1.588.852-4.478 1.894-6.421 1.041-1.943 2.643-7.931 3.558-13.306 1.82-10.685 3.804-17.026 3.265-10.437-.53 6.474 6.689 6.49 7.903.017.371-1.978 1.518-5.025 2.547-6.77 2.011-3.408 1.511-6.915-.856-6.007-1.168.448-1.307-.277-.757-3.942.636-4.248.18-5.104-2.262-4.242-.39.138-.796 1.6-.902 3.25-.545 8.456-.795 9.345-2.597 9.209-1.171-.088-1.614-.696-1.279-1.754.628-1.976-3.569-6.134-4.243-4.205-.241.687-.898 1.25-1.461 1.25-.563 0-.765-.675-.448-1.5.316-.825.216-1.5-.223-1.5s-.762-1.013-.718-2.25c.054-1.555-.461-2.207-1.671-2.111-2.049.163-2.031.232-.775-3.074 1.103-2.9-.808-3.677-2.885-1.173-1.53 1.843-4.928 2.68-5.714 1.407-.391-.632-.949-.503-1.486.344-.616.972-.864.662-.875-1.093-.011-1.856-.296-2.169-1.173-1.292-.876.876-.874 1.499.011 2.565.899 1.083.836 2.047-.273 4.186l-1.442 2.779-.319-3.894c-.176-2.148-.767-3.683-1.319-3.424-.55.259-.868 1.047-.706 1.75.161.704-.176 1.28-.75 1.28-.574 0-1.044-.45-1.044-1s-1.098-1-2.441-1c-2.76 0-4.218-1.525-2.315-2.421.691-.325-.094-.317-1.744.019-4.274.869-4.801 1.013-6.701 1.839-1.131.492-2.856-.141-5.147-1.889-6.127-4.673-8.917-4.879-13.301-.979l-3.804 3.385-17.365-.213c-15.437-.189-17.469-.408-18.308-1.977-.519-.97-1.716-1.757-2.659-1.749-1.487.014-1.515.158-.215 1.087 1.205.861 1.057.974-.751.578-1.239-.271-2-.085-1.691.413.308.499.083.907-.499.907A1.063 1.063 0 0167 76.941c0-.582-.432-.792-.959-.466-1.442.891-4.916-1.637-4.334-3.153.279-.727.105-1.322-.387-1.322s-.965-.934-1.051-2.076c-.128-1.701.104-1.859 1.287-.877.897.744 1.444.804 1.444.159 0-.572-.563-1.248-1.25-1.503-.899-.333-.724-.989.62-2.333 1.344-1.344 2-1.519 2.333-.62.255.688.903 1.25 1.439 1.25.537 0 .69-.463.34-1.029-.429-.694 3.539-.871 12.191-.544 12.014.455 17.044.825 28.456 2.095 5.554.618 5.837.049 5.857-11.772.01-5.477.381-7.777 1.264-7.841 3.758-.272 25.596.197 34 .73 10.728.681 11.368.282 6.778-4.222-1.635-1.605-2.988-3.592-3.007-4.417-.018-.825-1.342-2.244-2.941-3.154-1.598-.909-3.411-2.597-4.028-3.75-1.109-2.072-.989-2.096 10.413-2.096 9.587 0 11.535.253 11.535 1.5 0 2.037 1.671 1.894 2.92-.25.901-1.546 1.023-1.476 1.05.607.022 1.733.449 2.196 1.612 1.75.87-.334 1.796-.607 2.059-.607.262 0 .175-.489-.195-1.087-.433-.7.348-1.019 2.191-.894 1.575.106 3.088.118 3.363.026.714-.238 25.091-.266 56.738-.066 15.05.096 27.489.58 27.8 1.082.321.521-.848.64-2.738.28-1.815-.345-2.951-.252-2.524.208.81.873 1.783 1.089 7.974 1.765 2.699.295 3.75.028 3.75-.952 0-1.494 1.576-1.622 17.25-1.403l9.75.136v-3.048c0-2.38.438-3.047 2-3.047 1.1 0 2-.657 2-1.46 0-.944-.972-1.433-2.75-1.385-7.908.214-83.228-1.318-86.028-1.75-2.052-.317-3.022-.919-2.595-1.61.403-.653.225-.822-.436-.413-.615.38-2.019-.21-3.12-1.311-1.546-1.546-3.586-2.066-8.955-2.285-7.775-.316-8.772.119-7.162 3.128.894 1.67.826 2.086-.337 2.086-2.419 0-4.64-1.154-4.052-2.105.304-.492.091-.895-.475-.895-.565 0-.78-.787-.477-1.75.521-1.656.472-1.655-.9.011-1.313 1.595-1.573 1.612-2.757.186-.832-1.003-2.152-1.364-3.632-.992-1.278.321-2.323.237-2.322-.186.001-.423-2.137-.769-4.75-.769-3.503 0-4.676-.361-4.461-1.373.185-.873-.269-1.157-1.25-.781-.848.325-1.541.208-1.541-.261 0-1.179-3.879-2.09-4.515-1.06-.285.46.048 1.186.739 1.613.861.532.473.964-1.234 1.374-3.134.751-7.145.047-6.419-1.126.301-.487-.38-.886-1.512-.886-1.98 0-2.507-.961-2.111-3.85.102-.743-.261-1.075-.806-.738C146.72 8.291 142 5.93 142 4.339c0-.736-.689-1.339-1.531-1.339-.843 0-1.786-.663-2.097-1.474C137.881.249 128.653.048 68.903.014L0-.026v128.513M384.333 1.405c0 1.364-11.231 15.394-12.43 15.528-.328.037-1.606-.808-2.84-1.878l-2.243-1.946 2.129-2.284c1.171-1.257 2.398-3.419 2.728-4.805.329-1.386 1.042-3.082 1.583-3.77.72-.913.435-1.25-1.055-1.25-1.498 0-2.499 1.202-3.767 4.523-.95 2.487-3.118 5.882-4.818 7.545-2.571 2.513-2.842 3.181-1.606 3.962 1.654 1.045.722 1.341-3.679 1.167-2.497-.098-4.022 2.75-2.119 3.958.706.448.834.853.284.9-5.283.451-17.419 1.139-19 1.077-1.1-.044-3.99-.224-6.422-.4-2.432-.177-6.22-.076-8.418.224-4.543.618-6.33 3.044-2.243 3.044 2.089 0 2.583.478 2.583 2.5 0 2.392.27 2.503 6.25 2.576 5.879.071 13.784.444 16.433.776.65.081 1.468 1.048 1.817 2.148.448 1.413 1.513 2 3.626 2 1.74 0 2.733.418 2.374 1-.397.643 3.776 1.054 11.691 1.151 30.852.378 41.957.664 42.383 1.09.253.253.743 4.769 1.089 10.035l.629 9.576 7.604.352c4.182.194 7.925.108 8.318-.19.706-.536 3.963-14.027 4.129-17.102.047-.874.664-2.129 1.371-2.79 1.039-.97 1.289.008 1.301 5.089.011 4.429.302 5.845.985 4.789.862-1.333.984-1.333 1.1 0 .221 2.549 1.78-6.264 1.858-10.5.054-2.99.321-3.621 1.057-2.5.822 1.251 1.087 1.127 1.602-.75.498-1.819 1.328-2.25 4.331-2.25 2.975 0 3.991-.517 5.104-2.597C450.771 26.323 459 21.51 459 25c0 .55-.886 1-1.969 1-1.202 0-1.774.505-1.47 1.298.274.714-.64 2.367-2.032 3.674-2.475 2.326-2.529 2.679-2.529 16.573v14.197l7 .689c7.812.77 7.114-.238 7.199 10.395.021 2.726.544 4.522 1.412 4.855.758.291 1.129.931.824 1.424-.304.492-.125.895.399.895s1.224-.708 1.556-1.574c.55-1.433.746-1.433 2.179 0 .865.866 1.992 1.574 2.502 1.574.511 0 .929.9.929 2s.506 1.887 1.125 1.75c2.677-.595 1.148 10.875-1.875 14.071-.687.727-1.25 1.755-1.25 2.284 0 .529-1.687.834-3.75.678-2.581-.195-3.672.107-3.5.967.137.687-.2 1.25-.75 1.25s-1 .477-1 1.059.422.798.939.479c2.073-1.281 2.783 2.805 1.451 8.352-.74 3.086-1.831 7.622-2.423 10.081-1.254 5.204-3.029 33.705-2.863 45.959.164 12.046 1.899 8.384 3.142-6.63.105-1.265.542-2.3.972-2.3.43 0 .818-1.012.861-2.25.043-1.238.302-1.698.576-1.023.487 1.205-1.409 13.943-4.136 27.773-.758 3.85-1.643 9.475-1.965 12.5-.321 3.025-1.006 8.2-1.52 11.5-1.23 7.896-2.192 21.53-2.04 28.905.08 3.889-.325 6.189-1.186 6.735-.719.456-.858.836-.308.844.654.009.762 5.643.313 16.265-.734 17.393-1.813 46.777-1.813 49.402 0 1.265-.294 1.35-1.422.413-.796-.66-3.548-1.044-6.247-.872l-4.825.308-1.176 6.5c-1.87 10.331-2.797 37.407-1.248 36.45.928-.574 1.049-.276.463 1.136-1.403 3.375-2.457 9.766-2.501 15.164L437 375h4.393c2.982 0 4.578-.482 4.969-1.5.316-.825 1.025-1.5 1.575-1.5s.732.699.404 1.553c-.493 1.286.209 1.511 4.099 1.309 4.033-.208 4.625-.505 4.206-2.109-.301-1.149-.038-1.709.683-1.456.644.226 1.061 1.053.927 1.839-.15.881.713 1.508 2.25 1.635 1.372.114 2.494-.265 2.494-.841 0-.577.52-.727 1.155-.335.715.443.883.275.44-.44-.392-.635-.188-1.155.453-1.155s.907.675.59 1.5c-.433 1.13.172 1.5 2.452 1.5 1.89 0 2.78-.401 2.369-1.067-.363-.586-.921-.805-1.24-.486-.319.32-1.849-.634-3.4-2.12-1.868-1.79-2.821-2.217-2.824-1.264-.002.868-1.164.2-2.933-1.687-2.281-2.434-3.55-3.024-5.745-2.672-1.987.319-2.416.171-1.454-.505.75-.526.975-1.163.5-1.414-.475-.251-.202-.282.607-.068.808.214 1.152.072.765-.315-.387-.387.077-1.348 1.031-2.135 1.643-1.356 1.643-1.402-.016-.88-2.219.698-2.415-2.59-.261-4.378.819-.68 1.195-1.711.836-2.292-.411-.665-.017-.813 1.063-.398.952.365 1.462.248 1.146-.264-.314-.507.804-.883 2.484-.835 1.679.047 3.28.453 3.556.9.277.448 1.836.548 3.465.222 1.878-.375 2.961-.18 2.961.533 0 .619.52 1.125 1.155 1.125.659 0 .348-.966-.723-2.25-1.034-1.238-1.238-1.687-.455-1 .782.688 1.879 1.25 2.435 1.25.557 0-.546-1.333-2.45-2.962-1.904-1.63-4.048-2.76-4.764-2.512-.78.27-1.019-.007-.595-.692.435-.704.263-.869-.448-.429-.635.392-1.155.21-1.155-.405s-.419-.859-.931-.543c-.512.317-1.286.006-1.72-.691-1.007-1.617-1.166-6.771-.19-6.167.405.25.558-.47.341-1.599-.252-1.311.003-1.807.707-1.372.664.41.818.222.388-.473-.392-.635-.209-1.155.406-1.155.681 0 .934-1.171.647-2.995-.26-1.648-.054-3.254.456-3.569.511-.316.627-1.063.258-1.66-.431-.697-.198-.793.653-.266.97.599 1.149.358.666-.898-.439-1.146-.278-1.481.485-1.009.704.435.869.263.429-.448-.392-.635-.159-1.155.517-1.155.677 0 2.036-.729 3.021-1.621 1.718-1.554 1.711-1.686-.165-3.25-1.426-1.187-1.691-2.036-.978-3.129.832-1.273.982-1.227.995.309.008 1.005.481 1.521 1.064 1.161.726-.449.729-1.033.008-1.901-1.248-1.504-.385-2.632 1.468-1.921.951.365 1.164-.12.75-1.703-.783-2.996 1.734-2.154 2.888.967.694 1.875.561 2.196-.706 1.71-.859-.33-1.305-.185-.992.321.313.506-.336 1.554-1.442 2.328-1.106.775-1.713 1.706-1.35 2.069 1.045 1.044 1.802.798 4.086-1.33 2.811-2.619 3.164-1.797 3.634 8.452.451 9.865 1.607 12.811 1.607 4.098 0-4.854.252-5.677 1.582-5.167.87.334 1.77.607 2 .607.23 0 .418.563.418 1.25 0 1.795 9.236 2.542 9.819.794.191-.574.946-1.044 1.676-1.044 2.082 0 3.511-8.94 1.989-12.44-.57-1.311-.429-2.078.434-2.366.79-.263.191-1.142-1.57-2.303-1.567-1.033-2.259-1.881-1.539-1.884.734-.004.996-.514.596-1.162-.473-.763-.271-.88.595-.345.926.572 1.07.422.49-.515-.592-.959-.364-1.151.825-.695 1.373.528 1.605-.018 1.414-3.329-.126-2.178-.679-3.967-1.229-3.976-.667-.01-.667-.261 0-.75 1.641-1.206 1.651-1.819 1.566-95.324l-.066-72.59-2.5-1.139c-1.375-.627-2.5-.732-2.5-.234s.788 1.111 1.75 1.363c.962.251-.361.509-2.941.573-2.58.064-4.974-.341-5.319-.9-.346-.559-1-.787-1.454-.506-.933.576-2.044-1.794-2.021-4.31.013-1.337.189-1.395.889-.29.48.758 1.356 1.08 1.946.714 1.47-.908-.751-5.753-2.246-4.9-.607.346-.782.272-.389-.163.393-.436.265-1.633-.285-2.66-.735-1.374-.66-1.873.285-1.884.903-.011.84-.303-.215-.985-.904-.584-1.026-.975-.307-.985.727-.009.983-.893.656-2.265-.586-2.459-.52-7.912.104-8.536.215-.215 1.036.84 1.824 2.345l1.433 2.736.507-2.648c.278-1.456.118-2.647-.356-2.647-3.37 0 .973-5.906 4.389-5.968.962-.018 1.75-.41 1.75-.871 0-.462 1.125-1.353 2.5-1.979 3.276-1.493 3.792-9.182.617-9.182-1.036 0-2.099-.823-2.362-1.829-.533-2.04 1.347-5.171 3.105-5.171.627 0 1.14-.675 1.14-1.5s-.466-1.5-1.035-1.5c-.714 0-.714-.601 0-1.934.655-1.225 1.035-14.43 1.035-36V0h-57.833c-49.005 0-57.834.214-57.834 1.405M397.5 2c1.785.767 1.806.867.191.93-.995.038-1.571.455-1.281.925.291.469-.845 2.382-2.524 4.25-4.883 5.431-5.35 6.786-2.68 7.785 1.489.557 2.552.464 3.029-.266.404-.618.741-.708.75-.2.008.509 1.027.013 2.265-1.101 4.105-3.695 5.117-3.92 4.377-.972-.766 3.049 1.219 3.66 3.73 1.149.825-.825 1.87-1.516 2.322-1.536 1.343-.059 5.965-4.335 6.59-6.097.318-.898 2.3-2.088 4.405-2.646l3.826-1.014-4.75-.104c-2.613-.056-4.75.316-4.75.827 0 .512-1.012 1.075-2.25 1.25-1.238.176-2.176.77-2.085 1.32.277 1.68-1.794 3.5-3.984 3.5-1.847 0-1.703-.382 1.319-3.5 1.866-1.925 4.092-3.556 4.946-3.625 2.708-.218-7.269-1.727-11.446-1.731-3.113-.003-3.557.187-2 .856M292 54.393c0 .278 2.918 1.898 6.485 3.6 3.567 1.702 6.38 3.61 6.25 4.239-.287 1.398 7.181 2.845 9.265 1.794.825-.415 2.077-.549 2.781-.297.705.252 1.214.079 1.132-.385-.402-2.266.472-3.161 5.146-5.274 2.782-1.257 4.873-2.471 4.646-2.698-.608-.609-35.705-1.571-35.705-.979M102.333 82.5c.183.55 1.196.985 2.25.967 1.055-.018 2.626.998 3.492 2.258.867 1.26 1.951 1.95 2.411 1.533.459-.417.468-.126.02.647-.529.911-.434 1.168.27.733.597-.369 1.322-.288 1.611.179.289.467 1.899.648 3.578.401 5.037-.739 7.839 2.623 3.785 4.541-1.72.814-.531.933 5.05.504 4.147-.319 7.173-.173 7.008.338-.503 1.547 2.914 5.719 3.455 4.219.311-.862 2.082.334 5.106 3.448 7.349 7.566 5.681-.082-1.843-8.45-2.433-2.706-4.193-5.522-3.911-6.257.31-.807-.702-1.874-2.551-2.693-1.685-.746-3.064-1.696-3.064-2.112 0-.416-.787-.749-1.75-.74-1.306.012-.888.776 1.652 3.014 4.668 4.115 3.494 4.529-2.981 1.05-6.52-3.502-24.472-6.227-23.588-3.58m-47.767 1.607c.466.754-.033.88-1.566.393-1.533-.487-2.032-.361-1.566.393.376.609.095 1.114-.625 1.122-1.059.013-1.053.178.026.862.735.466 1.264 1.235 1.175 1.71-.088.475.288 1.012.836 1.195.548.183.798-.706.555-1.975-.399-2.08-.355-2.11.444-.307l.885 2 .503-2c.277-1.1.504.183.506 2.851.002 2.667-.29 4.375-.649 3.795-.919-1.488-5.09-.995-5.09.602 0 1.038.457 1.078 2.121.187 1.49-.797 1.918-.808 1.441-.035-.374.605-.246 1.1.285 1.1.531 0 .73.9.443 2-.288 1.1-.035 2 .562 2 .597 0 .826.676.509 1.502-.339.883.396 2.291 1.781 3.414 1.297 1.052 2.031 2.24 1.632 2.64-.399.401-1.412.16-2.25-.536-1.255-1.042-1.524-.989-1.524.299 0 .859-.526 1.888-1.17 2.286-.802.496-.955.163-.485-1.061.572-1.491.312-1.669-1.58-1.078-1.246.388-3.012.699-3.924.689-1.673-.017-3.378 4.167-2.365 5.806.295.477-.029 1.128-.72 1.447-.691.318.446.445 2.525.282 2.705-.211 3.645.061 3.301.956-.31.807.123 1.059 1.219.709 1.309-.419 1.387-.321.342.426-1.056.754-1.084 1.138-.123 1.731.826.511.12 1.267-2.144 2.294l-3.376 1.532 3.421.581c3.447.586 5.604 3.081 2.662 3.081-.871 0-1.583-.45-1.583-1s-.675-1-1.5-1-1.5.45-1.5 1-.405.888-.9.75c-.495-.137-.945.2-1 .75-.055.55.313 1 .817 1s1.254.338 1.666.75c.413.412-.225.75-1.416.75-1.192 0-2.167.338-2.166.75.001 1.431 8.079.738 9.035-.775.819-1.294.939-1.291.983.025.027.825 2.327-3 5.11-8.5 2.783-5.5 5.047-10.778 5.03-11.729-.018-.951.277-1.638.655-1.527.377.111 3.611-2.736 7.186-6.327 3.575-3.591 10.223-8.931 14.773-11.867 4.549-2.936 8.144-5.466 7.988-5.623-.157-.156-8.91-.538-19.451-.848-17.657-.519-19.202-.426-19.622 1.179-.432 1.649-.462 1.649-.572-.008-.064-.963-.593-1.75-1.175-1.75-.582 0-.751.498-.375 1.107m263.415 83.416c-.767.924-2.092 1.291-3.372.934-1.502-.419-1.719-.317-.752.352.948.658 1.023 1.147.25 1.625-.609.376-1.107.247-1.107-.286 0-.534-.788-.85-1.75-.701-.962.148-2.081-.229-2.485-.839-.456-.688-.74-.445-.75.642-.008.963-.352 1.697-.765 1.632-2.151-.34-4.25.242-4.25 1.177 0 .582.45.781 1 .441s1-.179 1 .358c0 .536-.562 1.204-1.25 1.483-.991.401-.984.695.034 1.413 2.182 1.54.366 3.737-3.241 3.921-2.459.125-3.55-.298-3.868-1.5-.372-1.408-.461-1.377-.559.197-.096 1.549-.376 1.657-1.616.628-1.225-1.016-1.5-.958-1.5.319 0 2.065-1.186 2.707-3.757 2.034-1.193-.312-1.889-1.112-1.607-1.848.274-.714-.429-1.947-1.562-2.741-1.134-.794-1.764-1.741-1.401-2.104s.135-.66-.506-.66c-.642 0-1.196 1.238-1.23 2.75-.058 2.514-.137 2.569-.916.642-.791-1.958-3.449-3.028-9.771-3.933-1.839-.264-2.264.167-2.329 2.359-.043 1.475-.307 2.117-.585 1.426-.371-.919-1.184-.722-3.039.737-1.393 1.095-2.929 1.746-3.415 1.446-.485-.3-.882-.054-.882.546 0 1.811 4.269 2.829 7.352 1.754 2.092-.729 3.066-.669 3.617.223.415.672 1.042 1.182 1.393 1.135 3.516-.47 5.638.121 5.638 1.57 0 1.499.186 1.487 1.964-.122 2.376-2.151 12.038-2.779 12.037-.783-.001.688.787 1.243 1.749 1.235 1.384-.012 1.462-.198.372-.889-.758-.48-1.069-1.373-.691-1.984 1.011-1.636 6.534-1.367 7.193.35.48 1.252.938 1.216 3.18-.25 1.733-1.133 2.336-1.253 1.782-.355-.622 1.009-.355 1.216 1.039.807 1.031-.303 4.058-.859 6.726-1.236 3.498-.494 4.474-.955 3.5-1.651-1.039-.743-.962-.841.334-.428.927.296 1.906.001 2.174-.655.354-.865.764-.799 1.489.242.828 1.189 1.27 1.211 2.576.127.867-.719 1.576-.973 1.576-.563 0 .41.719.148 1.598-.581 2.029-1.684 5.402-2.229 5.402-.873 0 .598.567.503 1.349-.227.742-.693 1.158-2.173.926-3.289-.397-1.902-.333-1.92 1.011-.28 1.761 2.149 2.714 2.234 2.714.242 0-1.242.343-1.295 1.935-.3 1.065.664 1.713 1.568 1.441 2.008-.589.953 1.01 1.08 1.937.154.355-.355 2.118-.817 3.916-1.026 1.799-.209 4.171-.536 5.271-.727 1.1-.19 2.735-.403 3.633-.473 2.077-.163 3.116-3.819 1.285-4.521-.748-.287-1.936.047-2.639.741-2.09 2.065-5.095 2.919-4.462 1.268.403-1.05-.393-1.414-3.138-1.431-2.024-.014-4.354-.076-5.179-.14-2.631-.203-7.626.606-9.005 1.458-.973.602-1.162.374-.696-.839.436-1.137.094-1.701-1.08-1.779-2.646-.178-3.535-.361-6.017-1.238-1.419-.502-2.819-.379-3.661.319-.937.778-1.565.804-2.011.083-.905-1.464-2.07-1.308-3.549.474m-181.22 116.281c-3.909.251-4.521.54-3.5 1.65.777.844 1.656 1.005 2.356.433.715-.583 1.616-.299 2.5.788 1.215 1.493 1.17 1.62-.367 1.044-.963-.361-1.784-.333-1.827.062-.042.396-.227 1.507-.411 2.469-.184.962.091 1.75.612 1.75.533 0 .444.938-.202 2.146-1.03 1.924-.929 2.089.964 1.594 2.733-.715 3.78.914 1.129 1.755-2.451.778-2.668 2.505-.315 2.505 1.322 0 1.433.267.5 1.2-1.532 1.532-1.566 3.144-.045 2.205.715-.443.883-.275.44.44-.43.697-.052 1.155.953 1.155 1.055 0 1.459.539 1.101 1.471-.31.809.165 2.2 1.056 3.091 1.201 1.201 1.31 1.811.423 2.359-.658.406-.94 1.406-.627 2.221.575 1.5-1.714 3.09-6.306 4.38-4.769 1.34-.547 4.161 6.555 4.378 3.904.12 3.946.314.76 3.499-1.481 1.481-2.248 3.12-1.893 4.045.402 1.049-.008 1.588-1.26 1.656-1.346.072-1.169.303.643.841 1.375.408 3.063.308 3.75-.222 1.848-1.425 1.584.804-.321 2.71-.865.864-1.202 1.585-.75 1.601.451.017.034.489-.929 1.05-.963.561-1.75 1.639-1.75 2.396 0 .758-.787 1.583-1.75 1.835-1.304.341-1.171.487.522.573 3.008.154 10.395-6.711 12.684-11.786.978-2.17 2.288-3.828 2.911-3.685.623.142.795.07.383-.16-.412-.231-.743-1.17-.735-2.086.009-.953.33-1.239.75-.667.904 1.23 4.247 1.312 4.141.101-.042-.482.524-1.308 1.259-1.834 1-.716.896-.814-.415-.393-1.354.436-1.75-.009-1.75-1.964 0-1.458.43-2.262 1.016-1.9.559.346.758 1.047.441 1.559-.316.512-.098.931.484.931s1.066-.562 1.074-1.25c.011-.833.339-.75.985.25.78 1.207.972 1.049.985-.809.008-1.282.46-2.034 1.015-1.691.55.34 1 .141 1-.441s-.45-1.115-1-1.184l-2-.25c-.55-.069-.887-.572-.75-1.118.137-.546.925-.865 1.75-.709 1.222.233 1.247.115.137-.635-1.151-.778-1.151-.992 0-1.379.75-.252-.074-.501-1.829-.553-2.382-.07-3.053.27-2.643 1.338.626 1.632-2.186 2.015-3.165.431-.34-.55-.141-1 .441-1s1.023-.788.98-1.75c-.048-1.056-.28-1.252-.585-.494-.279.691-.918 1.002-1.421.691-.503-.311-.925.024-.937.744-.012.72-.83-.491-1.817-2.691-1.631-3.633-3.031-8.248-6.106-20.135-1.187-4.585-2.08-5.024-9.294-4.561m278.709 25.679c-.693 2.447-2.461 59.377-1.89 60.865.689 1.797.277 1.895-7.83 1.862-3.421-.014-4.75.374-4.75 1.385 0 1.123 2.256 1.405 11.25 1.405l11.25-.001.135-18.499c.074-10.175-.241-18.5-.7-18.5-.46 0-1.012 2.587-1.227 5.75-.216 3.163-.381 1.229-.366-4.298.014-5.526-.242-10.482-.57-11.012-.328-.531-.025-2.033.673-3.338.819-1.529 1.519-1.969 1.972-1.237.385.624.423 1.585.083 2.135-.34.55-.141 1 .441 1s1.052-1.012 1.044-2.25c-.017-2.381-1.277-4.979-2.347-4.835-1.689.226-1.785-.033-.558-1.512 1.204-1.45 1.393-1.427 2.053.25.443 1.126.754-.359.797-3.802l.07-5.65-4.621-.367c-2.597-.207-4.747.078-4.909.649M145.5 341.836c-1.101.915-2.799 2.902-3.773 4.414-.975 1.512-2.528 2.75-3.45 2.75-1.213 0-1.375.302-.584 1.093.79.79 1.676.78 3.2-.036 1.564-.837 2.107-.837 2.107.001 0 .621-.9 1.365-2 1.652-1.1.288-2 1.146-2 1.907 0 1.286-1.288 1.842-3.378 1.459-.483-.089-.637.758-.343 1.881.35 1.342.051 2.043-.873 2.043-.773 0-1.406.536-1.406 1.191s-.643.318-1.429-.75c-1.328-1.805-1.475-1.819-2.104-.197-.372.96-1.079 1.496-1.572 1.191-.492-.304-.895-.076-.895.506s.338 1.09.75 1.128c.412.038 1.958.229 3.434.425 1.521.201 3.538-.37 4.657-1.319a68.728 68.728 0 014.1-3.17c2.584-1.817 7.059-8.112 7.059-9.931 0-1.068-.29-1.078-1.524-.054-2.765 2.295-2.727.176.062-3.482 3.045-3.991 3.027-5.251-.038-2.702m47.167-.169c-1.31 1.309-.636 4.194 1.083 4.644 1.213.317.999.493-.696.573-3.444.163-10.541 5.19-8.846 6.266 1.004.637.958.826-.208.85-.982.02-1.117.285-.392.765.61.404.987 1.523.839 2.485-.149.962.206 1.75.788 1.75 1.229 0-3.482 4.568-5.425 5.26-2.451.872.034 1.931 5.41 2.304 2.948.205 12.768.628 21.82.939 9.053.312 17.94.705 19.749.874 1.809.168 3.497-.03 3.751-.442.254-.411 1.352-.514 2.44-.23 3.17.829 8.565-3.035 6.71-4.806-4.086-3.898-6.408-5.138-9.867-5.266-.922-.034-1.415-.485-1.095-1.002.32-.517.107-.647-.472-.289-.579.358-2.111-.465-3.405-1.828-1.293-1.364-3.337-2.487-4.542-2.497-1.205-.009-2.433-.409-2.729-.888-.444-.719-3.485-1.626-7.335-2.19-.41-.06-1.302-.571-1.982-1.136-.681-.565-1.885-.778-2.677-.474-.792.304-1.978-.096-2.635-.888-.658-.793-1.632-1.441-2.166-1.441-.533 0-2.114-.9-3.512-2-2.724-2.142-3.556-2.383-4.606-1.333" fill="#d3d3d3" fill-rule="evenodd"/></svg>