<svg xmlns="http://www.w3.org/2000/svg" width="500" height="673"><path d="M73.764 109.25c-.164 14.988-.41 52.015-.547 82.284-.137 30.269-.438 56.018-.67 57.22-.231 1.202-.745 67.071-1.142 146.376l-.721 144.19 7.809-.66c4.295-.363 29.678-.731 56.408-.817 26.729-.087 45.583-.424 41.897-.75s-7.161-1.053-7.721-1.614c-.975-.977-1.429-12.531-1.189-30.204l.112-8.225 2.75 1.064c4.255 1.646 6.25 1.871 6.25.704 0-.653 1.165-.835 3-.468 1.692.338 3 .175 3-.375 0-.536 1.575-.975 3.5-.975 2.444 0 3.5.452 3.5 1.5 0 .825-.45 1.5-1 1.5-1.173 0-1.36 3.66-.222 4.363.427.264.723 2.333.658 4.597-.066 2.265.24 4.34.679 4.611 1.297.802-.189 3.425-1.972 3.481-1.285.041-1.153.395.607 1.622 2.026 1.414 2.25 2.394 2.25 9.865 0 5.7-.391 8.452-1.25 8.799-.687.277 54.438.54 122.5.583L436 538l.016-29.25c.02-34.246-2.767-311.281-3.804-378.247l-.712-45.996-24.838-.27c-22.196-.241-24.676-.108-23.321 1.247.834.834 1.948 1.516 2.476 1.516 2.184 0 2.594 12.04 3.754 110.18l.599 50.681-3.335.409-3.335.41 3.25.16 3.25.16v20c0 16.588-.242 20-1.417 20-.779 0-1.643-.562-1.921-1.25-.403-1-.52-1-.583 0-.043.688-1.231 1.25-2.638 1.25-1.407 0-2.293.43-1.968.956.325.526 1.297.686 2.16.355.863-.332 1.967.026 2.453.793.631.998.888 1.039.899.146.008-.687.69-1.25 1.515-1.25 1.176 0 1.52 1.457 1.591 6.75.05 3.712.223 12.493.385 19.512.286 12.416-.241 14.89-2.77 13.016-1.141-.845-14.326.436-13.454 1.308.216.215 4.072.446 8.57.511l8.178.12v39.589l-12.701.131c-6.986.073-12.911.342-13.167.598-.256.256 4.56.465 10.701.465H387l.177 7.25.176 7.25.574-6.915c1.417-17.092 3.868 3.597 3.218 27.165-.14 5.074-2.128 7.357-3.483 4-.277-.687-.441 5.5-.365 13.75l.14 15 .31-13.25c.255-10.854.577-13.25 1.782-13.25 1.871 0 2.535 13.683 1.25 25.75-.322 3.024-.159 5.25.386 5.25.519 0 .807 2.137.64 4.75l-.305 4.75-12.906.307c-9.802.233-13.105-.008-13.735-1-1.389-2.19-1.053-15.805.391-15.822.949-.012.963-.198.058-.773-.812-.517-1.17-4.31-1.125-11.931l.067-11.172 2.625-.405 2.625-.404-2.75-.15L364 412l-.042-13.25c-.023-7.288-.251-25.85-.506-41.25-.256-15.4-.702-58.15-.991-95-.29-36.85-.728-73.525-.975-81.5-.246-7.975-.457-33.062-.467-55.75L361 84h-4.5c-2.475 0-4.5.417-4.5.927 0 .509-.788 1.132-1.75 1.384-1.667.435-1.667.463 0 .573 1.579.105 1.751 1.51 1.762 14.366.007 7.838.299 25.863.649 40.056l.637 25.807-2.54-.638c-1.437-.36-2.83-.168-3.208.444-.578.936 2.077 1.614 4.7 1.199.413-.065.755 6.519.762 14.632.007 8.112.299 53.787.65 101.5l.637 86.75H347l-.001-10.25c-.001-5.637-.19-17.249-.421-25.803-.23-8.554-.71-59.854-1.067-114-.356-54.146-.779-106.434-.939-116.197-.287-17.464-.257-17.751 1.818-17.82 2.065-.069 2.067-.089.11-.93l-2-.859 2-.259c1.1-.142-13.525-.522-32.5-.844-18.975-.321-34.725-.304-35 .039-.275.343-1.175.88-2 1.194-1.278.487-1.264.583.092.65 1.99.099 2.633 17.973 2.852 79.329l.15 41.75h-7.547c-6.377 0-7.547-.258-7.547-1.667 0-2.088-.696-1.453-1.155 1.054-.318 1.737.31 1.87 7.926 1.686l8.272-.201-.272 19.814-.271 19.814-3.5.618-3.5.619 3.75.131L280 249v81.114l-6.25-.48a979.51 979.51 0 00-7.5-.557c-1.724-.106-1.77-22.157-.05-23.877.933-.933.933-1.2 0-1.2-1.287 0-1.637-6.765-.559-10.79.628-2.346 1.086-2.392 8.109-.827 2.359.526 3.158-.85 1-1.721-.687-.277.1-.589 1.75-.693 2.57-.161 2.37-.312-1.391-1.05-2.415-.475-4.781-.621-5.259-.326-.477.295-1.764.252-2.859-.096-1.888-.599-1.991-1.536-1.991-18.064 0-12.892.313-17.433 1.2-17.433.933 0 .933-.267 0-1.2-.824-.824-1.27-6.701-1.423-18.75l-.222-17.55-.303 15.75c-.25 13.02-.556 15.75-1.766 15.75-1.259 0-1.463-5.303-1.461-37.942l.003-37.942 2.89-2.058c1.59-1.132 4.134-2.058 5.653-2.058 4.942 0 1.883-1.026-3.415-1.145l-5.149-.116.064-38.669c.035-21.268.371-39.097.746-39.62.734-1.021 1.024-1.072 7.35-1.3 5.661-.204 4.481-.976-1.941-1.269-2.874-.131-5.226-.608-5.226-1.06 0-.451-14.4-.821-32-.821-21.856 0-32 .336-32 1.059 0 .582.386.82.858.529.472-.292 1.688 1.01 2.702 2.893 1.57 2.917 2.443 3.468 5.892 3.721l4.048.298.303 16.667c.279 15.363.162 16.703-1.5 17.134-1.659.43-1.664.476-.053.583 1.401.093 1.754 1.062 1.773 4.866.012 2.613.081 8.575.154 13.25.072 4.675.062 11.51-.023 15.19l-.154 6.69-14.164.057c-7.79.032-14.39.284-14.667.561-.584.583 15.881 1.005 23.581.604l5.25-.274v20.003c0 15.066-.308 20.127-1.25 20.507-1 .403-1 .52 0 .583.955.06 1.25 4.688 1.25 19.579V247h-4.441c-2.443 0-4.718.448-5.056.995-.393.636 1.207.792 4.441.432l5.056-.563V288h-19.895l-.368-5.25-.367-5.25-.185 5.25L191 288h-6.393c-5.165 0-6.523-.336-7.067-1.75-.642-1.667-.721-1.667-1.657 0-.639 1.139-2.188 1.75-4.433 1.75H168v-19.059c0-12.451.347-18.845 1-18.441.55.34 1 .179 1-.358 0-.536-.562-1.172-1.25-1.412-.687-.24 3.007-.523 8.211-.627 12.49-.252 13.048-1.103.722-1.103h-9.65l.003-39.93c.003-37.016.129-39.964 1.733-40.384 1.575-.413 1.568-.464-.079-.57-1.719-.11-1.801-2.183-1.618-41.15.107-22.569.006-41.222-.224-41.451-1.1-1.101-25.848-1.718-25.848-.645 0 .765-3.234 1.13-10 1.13-6 0-10-.4-10-1 0-.639-8.656-1-23.969-1H74.063l-.299 27.25M116 104.27c0 13.701.349 19.679 1.2 20.53.866.866.882 1.2.058 1.2s-1.089 5.501-.95 19.75l.192 19.75 10.25-.06c5.637-.033 10.246.192 10.242.5-.015 1.102-4.994 2.865-5.55 1.966-.308-.498-3.874-.906-7.925-.906h-7.365l-.062 19.457-.063 19.456 12.737-.206 12.736-.207v-120l-12.75-.28-12.75-.28v19.33m35.652-11.52c-.351 3.713-.641 12.487-.645 19.5L151 125h8V86h-6.711l-.637 6.75m136.846-.5c-.364 3.438-.424 14.35-.134 24.25.291 9.9.553 34.281.582 54.18l.054 36.181 2.25.433 2.25.434-2.25.136L289 208v40h4.667c2.566 0 4.414.253 4.105.561-.309.309-2.409.587-4.667.618l-4.105.057v12.35c0 10.052.255 12.253 1.371 11.825 1.304-.5 4.646 1.971 4.614 3.41-.045 1.986-1.991 3.411-3.957 2.897l-2.176-.569.525 40.675c.289 22.372.547 43.039.574 45.926L290 371h7.5c5.288 0 7.525-.369 7.585-1.25.097-1.436.099 2.806-.044-90.5l-.11-71.25h-3.882c-2.135 0-4.049.499-4.252 1.11-.232.694-.87.507-1.706-.5-1.2-1.447-.78-1.61 4.141-1.61h5.478l-.341-50.75c-.486-72.437-.181-70.25-9.812-70.25h-5.398l-.661 6.25m-137.269 53.5l.271 19.75 3.75.31 3.75.311V126h-8.042l.271 19.75m-.193 61.188v39.938l3.232.402 3.232.402-3.25.16-3.25.16v40h6.76l.522-11.25c1.38-29.739.929-65.859-.847-67.821-1.569-1.734-1.574-1.938-.071-2.515 1.437-.552 1.636-2.988 1.636-20.021V167h-7.964v39.938m-35.103.456c-.036.058-.321 8.159-.633 18.001l-.568 17.895 2.384 1.833c1.311 1.008 3.487 1.843 4.834 1.855 4.088.037.645 2.451-4.2 2.945-.412.043-.75.784-.75 1.648 0 .865-.675 2.247-1.5 3.072-1.207 1.207-1.5 4.598-1.5 17.381v15.882l13.5.028 13.5.027-.032-12.73c-.026-10.528-.252-12.441-1.306-11.055-1.181 1.553-1.361 1.536-2.468-.237-1.642-2.63-1.5-5.939.256-5.939.798 0 1.923.788 2.501 1.75.791 1.32.988.151.799-4.75l-.25-6.5-5.36.332c-3.661.227-5.148-.011-4.691-.75.368-.595 2.892-1.082 5.61-1.082H141l.167-10.25c.092-5.637.204-14.525.25-19.75l.083-9.5-12.75-.106c-7.013-.058-12.78-.058-12.817 0m-1.704 101.844l.271 20.238 13.25.18 13.25.18v-13.918c0-12.736-.153-13.918-1.8-13.918-.99 0-2.325.525-2.967 1.167-.89.89-1.32.771-1.807-.5-.352-.917-1.211-1.667-1.908-1.667-.697 0-1.268-1.144-1.268-2.542 0-2.331.141-2.414 1.704-1 2.57 2.326 4.365 2.026 2.807-.47-.691-1.106-1.862-1.78-2.601-1.496-.777.298-1.565-.326-1.866-1.477-.287-1.096-.869-1.778-1.294-1.515-.425.263-1.007-.417-1.293-1.511-.457-1.75-1.374-1.989-7.634-1.989h-7.114l.27 20.238m36.585-9.879c-.65 21.446.04 29.633 2.505 29.704l2.181.064-2.18.878c-2.682 1.081-3.24 5.009-2.916 20.495.456 21.818.106 20.09 4.096 20.203l3.5.099V289h-6.871l-.315 10.359m16.965 18.891c-.447 46.852-.179 52.53 2.502 53.048l2.219.43-2.25.136c-2.235.135-2.25.248-2.271 16.386-.012 8.938-.246 23.675-.52 32.75s-.213 20.191.136 24.702l.634 8.201 5.135.364 5.136.363-5.5.186-5.5.185.104 18.75c.058 10.312.17 19.537.25 20.499.13 1.556 1.412 1.75 11.573 1.75h11.427l.079-20.452.079-20.452-6.256-.355-6.256-.356 6.25-.192L191 454v-40.867l-2.75-.417-2.75-.416 2.75-.15c2.607-.142 2.759-.423 2.93-5.4l.18-5.25.375 4.75c.26 3.303.815 4.75 1.82 4.75.795 0 1.445-.45 1.445-1s.93-1 2.066-1c1.136 0 2.848-.419 3.804-.93 2.601-1.392 4.897.301 3.193 2.354-1.159 1.396-.779 1.576 3.326 1.576h4.633l-.195-20-.194-20h-9.747c-9.313 0-9.766.1-10.18 2.25l-.434 2.25-.136-2.25c-.131-2.16-.504-2.25-9.303-2.25-11.322 0-11.287-.803.05-1.139 7.339-.217 8.423-.49 9.157-2.304.809-1.998.835-1.992.897.193.061 2.179.378 2.25 10.063 2.25h10v-17.43c0-17.315-.015-17.433-2.25-17.75-2.865-.407-2.706-1.968.362-3.555 2.196-1.136 1.986-1.238-2.612-1.266-3.601-.021-4.58-.301-3.5-.999.825-.533 2.963-.976 4.75-.985L212 329v-38.032l-3.092 3.266c-1.792 1.893-2.856 2.531-2.531 1.516.537-1.677-.337-2.187-3.127-1.825-.687.09-1.25-.484-1.25-1.274 0-1.782-2.144-2.651-6.536-2.651h-3.373l-.349 6.75-.35 6.75-.196-6.611-.196-6.61-5.25-.631c-2.887-.347-8.049-.635-11.471-.639l-6.221-.009-.279 29.25m93.269-8.369c-.041 16.865.141 19.119 1.55 19.119 2.136 0 1.322-35.413-.863-37.599-.352-.351-.661 7.965-.687 18.48m-146.755 22.456c-.285.461-.083 1.273.45 1.806.583.583.645 2.638.156 5.163-.446 2.307-.831 10.351-.855 17.875L114 370.862l13.5.013 13.5.013v-40.035l-13.094.324c-7.202.178-13.328.7-13.613 1.16M261 351c0 17.159.214 20 1.508 20 1.296 0 1.5-2.814 1.447-20-.052-16.756-.296-20-1.508-20-1.214 0-1.447 3.216-1.447 20m10.185-19.136c-.723.459-2.41.624-3.75.368l-2.435-.465v39.317l7.624-.292 7.625-.292-.028-8.5c-.092-27.84-.164-29-1.78-29-.857 0-1.281-.45-.941-1 .75-1.213-4.439-1.325-6.315-.136M114 392v20h9.667c5.316 0 9.474.192 9.239.427-.434.434-7.598 1.356-11.627 1.496-4.57.158-7.302 8.922-7.959 25.534L112.745 454h28.232l-.001-41v-41h-4.047c-2.443 0-3.802.396-3.429 1 .361.583-.656 1-2.441 1-1.682 0-3.059-.45-3.059-1 0-.571-3-1-7-1h-7v20m36.88-18.25c-.066.962-.215 9.962-.331 20-.187 16.052-.022 18.254 1.369 18.28 1.43.028 1.428.121-.018.966-1.377.805-1.615 3.732-1.703 20.97L150.094 454h3.421c2.521 0 3.281-.368 2.885-1.399-.295-.769-.065-1.69.511-2.046.7-.432 1.048-13.553 1.052-39.601l.006-38.954h-3.485c-2.606 0-3.514.441-3.604 1.75m139.57-.867c-.247.248-.45 9.15-.45 19.784 0 17.734.145 19.336 1.75 19.363 1.667.029 1.667.079 0 1.05-1.574.917-1.75 3.024-1.75 20.97V454l7.75-.001 7.75-.001-.105-18.249c-.058-10.037-.17-19.238-.25-20.447-.126-1.915-.821-2.245-5.395-2.565l-5.25-.367 5.539-.185 5.539-.185-.203-17.75c-.185-16.129-.361-17.735-1.928-17.588-.948.089-2.894-.922-4.323-2.248-2.324-2.155-7.191-3.014-8.674-1.531M347 391.94V412h3.383c4.333 0 4.377-.236 4.097-22.192l-.22-17.308-3.63-.31-3.63-.311v20.061m-68.334-10.149c-.459.71-3.722 2.655-7.25 4.323L265 389.145v9.927c0 9.074.163 9.928 1.893 9.928 1.041 0 2.152.675 2.469 1.5.606 1.58 10.157 2.238 10.889.75.781-1.587-.786-30.696-1.585-29.459M203.5 414c-.34.55-1.679 1-2.976 1-1.296 0-2.584.563-2.862 1.25-.291.721-.537.481-.583-.57-.056-1.298-.723-1.728-2.329-1.5-2.236.318-2.252.443-2.521 20.07l-.271 19.75H212v-5.599c0-3.079-.722-7.12-1.605-8.98-1.31-2.761-1.392-3.982-.448-6.651.636-1.799 1.425-6.982 1.753-11.52l.597-8.25h-4.089c-2.25 0-4.368.45-4.708 1m58.75-.252c-.944.316-1.25 5.27-1.25 20.226v19.807l10.075.141 10.076.141-.548-10.781c-.301-5.93-.56-15.169-.575-20.532-.03-10.54-.467-11.233-5.055-8.017-1.36.953-3.261 1.6-4.223 1.437-.996-.168-1.75.327-1.75 1.151 0 .795-.889 1.678-1.976 1.962-1.678.439-1.957 1.323-1.852 5.867.067 2.943-.038 8.05-.234 11.35-.208 3.508-.581-.057-.897-8.585-.41-11.041-.845-14.484-1.791-14.167m85.082.83c-.333.867-.331 9.755.005 19.75l.637 18.985c.014.448 1.488.673 3.276.5l3.25-.313.31-10.5c.17-5.775-.218-14.887-.863-20.25-1.121-9.323-1.278-9.75-3.591-9.75-1.33 0-2.691.71-3.024 1.578M113.46 456.064c-.566.917-.402 35.837.18 38.077.681 2.627 12.467 2.504 14.873-.155 2.308-2.551 5.175-2.544 5.987.014.391 1.232 1.513 2 2.923 2 2.804 0 3.559-5.743 3.57-27.168l.007-13.668-13.543.083c-7.449.046-13.747.414-13.997.817m36.63 19.436l-.063 20.5h7.741l.048-17.23c.027-9.862-.372-17.735-.933-18.411-.645-.777-.622-1.402.068-1.829 2.563-1.584.978-3.53-2.874-3.53h-3.924l-.063 20.5m41.91-1.393c0 17.299.155 19.047 1.64 18.478 1.031-.396 2.167.122 3.057 1.393 1.817 2.594 12.303 3.039 12.303.522 0-.825.45-1.5.999-1.5.55 0 .952-1.462.893-3.25-.059-1.788.219-10.337.617-19l.723-15.75H192v19.107m69-17.94c0 .458.45.833 1 .833s1 .477 1 1.059-.475.765-1.056.407c-.729-.451-.981 4.958-.814 17.496.237 17.916.668 20.28 3.297 18.099 1.015-.843 1.489-.721 1.958.501.488 1.272 1.444 1.474 4.515.955 2.216-.374 4.155-.237 4.498.318.344.557-1.515 1.268-4.324 1.655l-4.927.677-.323 7.761c-.178 4.269-.099 12.894.176 19.167l.5 11.405 6.237.35c8.128.456 8.263.089 8.263-22.415 0-16.935-.059-17.435-2.059-17.435-1.132 0-1.793-.43-1.468-.956.325-.526 1.285-.69 2.134-.365 1.739.668 1.65-2.612-.107-3.929-.644-.483-.562-1.034.231-1.547.91-.59 1.17-5.214 1-17.75L280.5 455.5h-14.844l-.152 3.24c-.223 4.765-1.504 5.27-1.504.593 0-2.889-.417-4-1.5-4-.825 0-1.5.375-1.5.834m29.229 19.083l.271 20.25 6 .582 6 .582-6.25.168L290 497v6.342c0 3.488.297 12.538.66 20.111l.661 13.769 6.089-.68c3.35-.373 6.404-.986 6.788-1.361 1.373-1.341 1.283-37.266-.095-38.117-.971-.6-.884-.934.365-1.414 1.447-.555 1.609-2.802 1.397-19.389-.132-10.318-.429-19.323-.66-20.011-.285-.85-2.792-1.25-7.833-1.25h-7.413l.27 20.25M348 467.311c0 10.892.229 12.557 1.982 14.439 1.977 2.122 1.977 2.128-.122 2.794-1.865.592-2.032 1.185-1.477 5.233.732 5.343.458 4.936 3.617 5.375l2.5.348.27-20.25.271-20.25H348v12.311m17 8.12v20.495l11.5-.041 11.5-.041.217-13.172.218-13.172.312 12.75c.255 10.41.583 12.75 1.783 12.75 1.244 0 1.47-3.058 1.47-19.907v-19.907l-13.5-.126-13.5-.125v20.496m-251.719 31.198c.532 8.92 2.71 15.502 4.033 12.191.645-1.612.706-1.035.983 9.167.17 6.282.489 7.542 1.979 7.828 1.037.2 1.661-.186 1.5-.927-.152-.698.54-1.447 1.537-1.664 1.309-.285 1.727.116 1.5 1.44-.283 1.659.458 1.829 7.687 1.763 5.487-.05 7.969-.443 7.9-1.25-.055-.647-.167-7.547-.25-15.332-.145-13.645-.216-14.095-1.979-12.5-1.006.91-2.325 1.655-2.932 1.655-1.428 0-4.682-4.665-5.93-8.5-.97-2.983-1.02-3-8.779-3.085l-7.804-.085.555 9.299m36.848 9.385c.149 10.458.519 19.416.823 19.909.304.492 1.789.658 3.301.369 2.395-.458 2.747-.99 2.748-4.159.001-1.998.185-10.72.409-19.383l.407-15.75h-7.958l.27 19.014M261 499.8c0 1.54.526 3.326 1.168 3.968.883.883.89 2.096.029 4.97-1.775 5.924-1.48 26.939.388 27.656 2.141.822 2.858-1.924 1.763-6.744-.519-2.283-.599-5.725-.18-7.65.42-1.925.572-4.052.338-4.726-.233-.674-.497-5.512-.586-10.75-.124-7.352-.475-9.524-1.54-9.524-.845 0-1.38 1.086-1.38 2.8m88 4.7c0 6.252.27 7.5 1.622 7.5 1.244 0 1.363.313.509 1.342-1.568 1.89-.286 2.772 1.977 1.359 1.608-1.005 1.892-2.422 1.892-9.442V497h-6v7.5m16.189 11.419c.171 10.406.69 19.293 1.154 19.75 1.186 1.17 18.858.53 20.118-.729.572-.57 1.193-5.22 1.38-10.334l.342-9.297-4.763-3.154c-2.62-1.735-5.106-3.155-5.526-3.155-.42 0-1.977-.461-3.461-1.025-2.525-.96-2.593-1.141-1.065-2.829 2.069-2.287 2.11-5.146.073-5.146-.936 0-1.27-.468-.836-1.17.491-.794.171-.958-.993-.511-1.019.391-1.468.257-1.105-.33.353-.571-.708-.989-2.509-.989h-3.119l.31 18.919M192 526.878V537h5.953c7.856 0 13.347-2.461 10.044-4.502-.668-.413-.669-1.241-.005-2.484.549-1.025.922-2.91.83-4.189-.093-1.279.16-3.45.561-4.825.729-2.497.726-2.496-1.863.348-1.788 1.964-2.41 3.516-2.005 5 .545 1.994.485 2.024-.823.402-.777-.962-1.87-1.75-2.43-1.75-.559 0-1.565-.661-2.235-1.468-.671-.807-1.718-1.37-2.327-1.25-.61.12-1.13-.402-1.155-1.16-.025-.758-1.057-2.05-2.295-2.872l-2.25-1.494v10.122" fill="#d3d3d3" fill-rule="evenodd"/></svg>