<svg xmlns="http://www.w3.org/2000/svg" width="500" height="333"><path d="M81.391 6.25c.303 3.438.795 13 1.094 21.25.762 21.019 1.7 38.938 2.06 39.341.167.188 6.751.576 14.63.863 15.61.568 16.825 1.037 16.825 6.487 0 1.545.351 2.809.781 2.809.429 0 1.408 1.463 2.174 3.25l1.393 3.25.39-3.25c.38-3.174 1.566-4.185 2.719-2.319.317.512.118 1.213-.441 1.559-1.519.939-1.225 4.492.424 5.125 2.387.916 4.902 5.443 3.695 6.65-.734.734-1.522.659-2.617-.25-2.823-2.343-2.978-.02-.184 2.765 2.29 2.283 2.877 2.48 3.655 1.228 1.357-2.181 3.027-.096 3.595 4.488.258 2.08.782 4.282 1.165 4.893.382.611.797 1.786.921 2.61.124.825 2.724 3.9 5.777 6.833 5.1 4.902 5.437 5.495 4.157 7.323-1.344 1.919-1.493 1.855-4.248-1.821-1.571-2.095-4.543-5.484-6.606-7.532-3.665-3.638-4.432-6.145-3.763-12.302.19-1.754-.097-1.662-2.337.75-1.681 1.81-3.57 2.75-5.526 2.75-1.634 0-4.243 1.04-5.797 2.311-6.345 5.188-11.943 7.579-20.162 8.609-16.914 2.121-19.329 5.758-21.041 31.684-1.195 18.095-.355 23.961 4.929 34.396 4.107 8.11 5.535 9.774 7.08 8.25 3.675-3.626 13.188-.235 18.071 6.44 1.813 2.479 4.759 6.205 6.546 8.28 1.787 2.075 3.25 4.548 3.25 5.497 0 .948.783 3.05 1.741 4.671 1.528 2.587 1.558 3.073.25 3.985-1.131.788-.837.896 1.219.449 2.136-.465 2.966-.112 3.92 1.669 1.402 2.619 2.999 17.904 1.984 18.994-1.19 1.279-10.457-4.195-14.475-8.551-2.124-2.301-5.365-7.109-7.203-10.684-1.838-3.575-5.321-9.588-7.74-13.362l-4.398-6.863-.57 5.863c-.313 3.224-2.206 11.199-4.207 17.721-2 6.522-3.444 12.052-3.208 12.287.236.236 6.449 1.59 13.808 3.009 7.358 1.419 13.567 2.752 13.796 2.963 1.3 1.193-1.436 1.125-8.956-.223-16.36-2.932-18.467-3.21-19.187-2.53-2.851 2.696-7.228 43.169-6.503 60.135.65 15.213.754 15.492 6.567 17.561a289.8 289.8 0 019.543 3.633c3.552 1.437 6.622 1.885 11.268 1.646 5.904-.303 6.555-.125 8.619 2.36 1.228 1.478 4.187 4.288 6.577 6.244l4.344 3.556h22.406c12.71 0 22.405-.392 22.405-.905 0-1.565 17.188-7.307 18.361-6.134.719.719.669 1.409-.161 2.239-.66.66-1.2 2.01-1.2 3 0 1.726 6.537 1.8 158.5 1.8H500V0h-60.531c-47.567 0-60.609.268-60.892 1.25-.198.687-.858 11.6-1.468 24.25-.609 12.65-2.071 39.481-3.249 59.624-1.177 20.143-1.869 37.705-1.537 39.028 1.249 4.974 20.218 27.001 24.936 28.955 2.832 1.173 3.132 1.033 7.158-3.351 3.461-3.77 5.03-4.7 8.906-5.282 4.695-.704 10.677.779 10.677 2.647 0 .484.9.879 2 .879 2.326 0 2.643 2.221.564 3.947-.789.655-1.725 2.51-2.079 4.122-.653 2.974-2.902 3.963-3.823 1.681-.277-.687-.54.186-.583 1.941-.084 3.411-1.534 4.931-4.274 4.481-1.231-.203-1.875.684-2.355 3.245l-.661 3.524-5.145-4.221c-2.829-2.321-5.369-4.488-5.644-4.816-.275-.327-3.352-2.577-6.839-5a1093.357 1093.357 0 01-8.284-5.799c-1.709-1.225-2.118-1.164-3.368.5-1.286 1.712-1.184 1.987 1.063 2.848 1.415.543 2.272 1.512 1.988 2.25-.273.713-.061 1.297.471 1.297.533 0 .969.675.969 1.5 0 1.808-1.167 1.933-2.8.3-2.217-2.217-1.227.18 1.8 4.359 1.65 2.277 3.007 5.086 3.015 6.241.009 1.155.417 2.734.908 3.509 1.094 1.729.304 4.091-1.369 4.091-2.014 0-7.029-11.589-5.44-12.57 1.347-.833 1.058-2.43-.441-2.43-.905 0-1.187-.953-.886-3 .345-2.35.064-3-1.296-3-1.503 0-1.552.224-.363 1.673 1.219 1.488 1.129 1.611-.813 1.111-2.178-.561-3.912 1.442-2.802 3.237.286.463.012 1.155-.608 1.538-.621.383-1.428.213-1.793-.378-.428-.692-1.191-.743-2.138-.144-1.297.821-1.297.934-.001.948.956.01.658.585-.852 1.643-1.822 1.276-2.032 1.814-.973 2.485 1.278.809.958.975-1.668.865-.286-.012-1.744 1.113-3.24 2.5-1.496 1.387-3.05 2.522-3.454 2.522-.404 0-1.454 1.392-2.334 3.093-.88 1.701-1.771 2.921-1.981 2.712-.469-.47 1.898-7.508 2.844-8.453 1.394-1.394.61-3.069-2.065-4.409-4.423-2.217-4.562-2.257-3.837-1.084.454.735.103.892-1.025.46-1.256-.483-1.497-.304-.898.666.536.865.432 1.085-.299.633-2.723-1.683-9.104 8.798-9.362 15.377-.12 3.059.45 4.72 2.324 6.778 5.814 6.386 6.902 10.418 1.709 6.333-2.308-1.815-2.497-1.82-4.592-.124-1.202.973-1.904 2.051-1.561 2.394.343.343.099.624-.542.624-1.657 0-1.447-2.523.333-4 2.04-1.693 1.985-1.874-2.144-7-3.309-4.108-3.581-4.261-3.129-1.75.53 2.938-.884 3.807-1.898 1.166-.489-1.275-.772-1.324-1.453-.25-1.189 1.876-1.096 7.088.113 6.341.563-.348.736.046.402.917-.396 1.031.584 2.219 3.011 3.651 1.979 1.167 3.598 2.351 3.598 2.631 0 .532-.143.483-6.379-2.183l-3.88-1.658.484 2.533c.266 1.393.063 2.673-.451 2.844-1.503.501-1.99 12.765-.746 18.764 1.351 6.517 2.368 8.034 6.797 10.141 2.494 1.187 2.931 1.733 1.75 2.186-.866.332-1.575 1.185-1.575 1.895s-.9 1.853-2 2.54c-3.838 2.397-2.472 4.714 3.73 6.33 5.681 1.48 5.737 1.53 6.53 5.947.439 2.45.623 5.467.408 6.705-.215 1.238.023 2.25.53 2.25.506 0 .654.43.329.956-2.082 3.369-8.108-5.483-8.481-12.456-.097-1.812-.2-1.84-1.103-.291-.548.94-.792 2.841-.541 4.224.496 2.735 5.292 9.567 6.717 9.567.484 0 .881.408.881.906 0 1.939-4.144-.323-7.601-4.149-3.287-3.638-3.583-4.435-3.132-8.431.486-4.317.45-4.383-1.635-3.006-6.341 4.184 3.472 19.535 12.559 19.647 1.48.018 3.031.583 3.446 1.254 1.031 1.669.547 6.852-.789 8.463-.601.724-.797 1.316-.435 1.316.361 0 .112 1.012-.556 2.25-.667 1.238-1.259 3.255-1.317 4.482-.271 5.788-9.45 8.203-17.938 4.72-1.644-.675-1.829-.42-1.384 1.908.283 1.478.124 2.929-.352 3.223-.476.294-.866.032-.866-.583s-.43-.852-.956-.527c-.526.325-.703 1.252-.393 2.059.309.807.051 1.468-.575 1.468-.627 0-1.384-.64-1.685-1.423-1.109-2.889-3.672-2.832-2.944.067.436 1.737.213 2.955-.639 3.496-1.945 1.234-2.808 1.037-2.808-.64 0-.833-.889-1.5-2-1.5-1.145 0-2 .667-2 1.559 0 .857-.45 1.281-1 .941-.55-.34-1-.141-1 .441 0 2.103-1.856.997-2.838-1.691-.919-2.516-1.016-2.325-1.146 2.25-.111 3.892-.335 4.524-1.009 2.852-1.247-3.089-3.007-3.88-3.007-1.352 0 1.18-.45 1.84-1.016 1.49-.559-.346-.758-1.047-.441-1.559.316-.512.098-.931-.484-.931s-1.059.505-1.059 1.122c0 .776-.464.738-1.5-.122-.825-.685-1.556-.965-1.625-.622A47.166 47.166 0 01292.5 303c-.137.55-.342 2.012-.454 3.25-.112 1.238-.415 1.735-.673 1.106-.258-.629-1.347-.914-2.421-.633-1.075.281-1.952.009-1.952-.606s-.45-1.117-1-1.117-1.007.788-1.015 1.75c-.01 1.078-.298 1.328-.75.651-.756-1.13-4.454-1.565-3.76-.442.213.344-.932.727-2.544.849-3.855.294-3.699-.927.604-4.704 1.959-1.721 2.895-3.104 2.1-3.104-.789 0-2.995 1.56-4.902 3.467-3.569 3.569-4.733 3.632-4.733.256 0-1.785-.162-1.75-1.967.416-1.081 1.299-1.981 1.799-2 1.111-.049-1.862-2.033-1.514-2.033.357 0 1.055-.544 1.398-1.582 1-.87-.334-1.923-.607-2.34-.607-.417 0-1.358-1.818-2.091-4.04-1.474-4.464.266-17.024 5.677-40.978l2.601-11.517 5.429-1.807c5.684-1.893 10.235-.742 10.347 2.615.23 6.871.865 14.913 1.835 23.227.642 5.5.894 11.247.561 12.772-.961 4.398.454 10.727 2.401 10.734.914.004 2.868.635 4.342 1.404 2.297 1.199 2.756 1.198 3.218-.006.297-.772 1.298-1.404 2.226-1.404.928 0 3.162-1.125 4.965-2.5 3.423-2.611 4.963-3.202 3.911-1.5-.34.55-.141 1 .441 1 .593 0 1.071-2.09 1.086-4.75l.027-4.75 2.723 3.259c3.489 4.175 5.509 4.359 4.12.375-.55-1.577-1.876-3.808-2.948-4.959-1.072-1.15-1.949-2.92-1.949-3.933s-.495-2.337-1.1-2.942c-.801-.801-.393-1.06 1.499-.95 1.734.1 2.6.723 2.6 1.871.003 5.483 6.054 14.393 8.27 12.177.585-.585-2.156-7.396-3.379-8.398-.757-.62-3.89-6.675-3.89-7.518 0-.339.862-.343 1.915-.009 2.13.676 5.085-2.633 5.085-5.696 0-.977.396-1.777.879-1.777 1.185 0 8.051 6.73 11.561 11.333 1.562 2.047 3.034 3.526 3.273 3.287.847-.847-2.586-6.668-12.874-21.83-1.012-1.49-1.839-4.347-1.839-6.348 0-4.556-2.217-9.318-6.046-12.986-2.227-2.134-2.954-3.738-2.954-6.521 0-2.398-.637-4.172-1.818-5.063-1.702-1.284-1.765-2.652-.99-21.278.456-10.949.712-20.003.569-20.122-.144-.118-5.514-.528-11.935-.911-11.538-.688-11.668-.672-11.123 1.411.524 2.004.645 2.023 2.448.392 1.203-1.089 2.245-1.368 2.85-.763 1.684 1.684 1.444 19.467-.318 23.649-.87 2.063-1.266 3.75-.882 3.75s.651 2.813.593 6.25c-.061 3.575.367 6.564 1 6.985.77.511.726.739-.144.75-.722.009-1.25 1.297-1.25 3.049 0 2.407-.723 3.46-3.5 5.099-3.253 1.919-3.99 3.002-3.572 5.255.09.489-1.388.637-3.286.329-2.831-.46-3.54-.215-3.952 1.361-.702 2.683-2.753 2.416-2.338-.304.367-2.404-1.404-4.788-3.531-4.752-2.914.049-6.093 3.678-6.207 7.085-.12 3.571-.47 4.221-4.83 8.948-3.612 3.916-3.357 4.006-12.469-4.385-4.378-4.031-10.035-8.757-12.571-10.502-5.763-3.965-5.641-3.449-5.342-22.668.137-8.8-.159-16.827-.658-17.838-.5-1.01-1.125-3.035-1.389-4.5-.265-1.464-1.291-3.562-2.28-4.662-1.832-2.037-4.065-9.517-4.088-13.693-.007-1.269-1.357-4.958-3-8.198S216 160.458 216 158.918c0-1.54-.36-3.023-.801-3.295-.44-.272-.907-2.303-1.038-4.513-.471-7.983-10.95-29.505-15.711-32.269-1.623-.942-7-2.256-11.95-2.922-4.955-.666-9.786-1.888-10.75-2.719-2.604-2.247-2.119.104.535 2.598 2.89 2.715 3.284 7.278.884 10.242-2.351 2.903-4.511 1.742-3.944-2.12.249-1.698-.088-3.037-.838-3.325-.981-.377-1.003-1.151-.101-3.541 1.017-2.695.89-3.322-1.066-5.278-1.221-1.221-2.22-1.67-2.22-.998 0 .672-.45 1.222-1 1.222s-1-.722-1-1.605c0-1.355-1.001-1.533-6.421-1.143-8.389.605-9.944-.507-3.581-2.562 6.349-2.051 14.162-1.353 13.275 1.185-.44 1.261-.287 1.366.687.468 2.125-1.961 2.717-7.548 1.498-14.146-1.512-8.182-1.992-8.564-10.419-8.291-6.758.219-7.039.136-7.044-2.089-.004-2.258-.076-2.24-2.834.701-2.359 2.517-3.955 6.361-6.684 16.1-.579 2.067-5.581 2.278-7.54.319-4.829-4.829-8.478-23.981-5.643-29.614 1.923-3.821 2.849-9.117 1.717-9.816-.508-.314-.688-1.186-.399-1.938.288-.752.063-1.652-.5-2-1.858-1.148.05-3.569 2.815-3.569 2.086 0 3.042-.738 4.143-3.2 1.564-3.499 6.718-5.761 8.086-3.548.54.874.887.799 1.302-.28.74-1.925 5.486-2.171 7.28-.377.773.773 2.022 1.405 2.777 1.405.754 0 1.96.817 2.678 1.816 1.974 2.743 4.593 3.377 5.75 1.392.833-1.427 1.001-1.247 1.027 1.101.016 1.545-.373 2.56-.865 2.256-.966-.597-2.105 1.644-2.105 4.139 0 1.199.307 1.286 1.383.393 1.07-.888 1.522-.788 1.993.441.336.874 1.063 1.309 1.617.966.554-.342 1.007.278 1.007 1.378 0 1.1.45 2.278 1 2.618 2.783 1.72.849 3.16-3.381 2.518-5.699-.865-8.149.734-7.161 4.671.385 1.535 1.002 3.02 1.371 3.301.369.28 1.166 1.41 1.772 2.51 1.476 2.683 6.254 3.32 6.047.807-.081-.994.415-1.695 1.102-1.557.688.137 1.257-.313 1.265-1 .029-2.32 1.954 1.648 1.97 4.059.021 3.245 1.814 1.771 2.547-2.094 1.196-6.304 2.435-7.01 11.437-6.508 5.939.33 8.363.098 9.174-.879.606-.73 2.172-1.328 3.479-1.328H205l-.23-34.75-.23-34.75-.52 34-.52 34-2.25-.071c-1.238-.04-6.525-.152-11.75-.25-8.415-.159-9.5-.385-9.5-1.979 0-.99.54-2.34 1.2-3 .933-.933.91-1.2-.107-1.2-.738 0-1.062-.639-.744-1.468.31-.807.162-1.716-.33-2.02-.491-.304-.731-2.533-.534-4.955.266-3.263-.036-4.555-1.167-4.988-.839-.322-1.305-1.159-1.037-1.86.639-1.664-2.141-5.04-5.841-7.092-1.617-.896-4.089-2.549-5.493-3.672-2.259-1.806-8.36-3.281-18.447-4.458-1.65-.193-4.575.023-6.5.479-3.258.772-3.306.836-.691.932 1.545.056 2.542.535 2.215 1.064-.381.616-1.505.616-3.125 0-3.624-1.378-6.027-1.191-7.828.609-.864.865-1.578 1.202-1.586.75-.009-.451-.391-.229-.85.495-1.078 1.699-4.283 2.207-5.885.933-.899-.714-1.25-.521-1.25.688 0 .924.45 1.403 1 1.063 1.277-.789 1.272.654-.015 4.04-.826 2.171-1.464 2.557-3.421 2.066-4.691-1.178-6.886.929-3.988 3.827 1.601 1.601.662 7.169-1.717 10.183-.485.613-.67 2.761-.413 4.773l.468 3.657-13.707-.66c-7.539-.364-13.857-.787-14.041-.941-.184-.154-.752-11.904-1.263-26.112C83.801 7.718 83.185 0 81.841 0c-.619 0-.79 2.383-.45 6.25m343.598 15.528c-2.194 2.151-3.989 4.58-3.989 5.399s-.33 1.82-.733 2.223c-1.973 1.973-2.962 8.366-1.658 10.718 1.248 2.251 1.322 2.127 1.356-2.265l.035-4.646 8.575-1.218c6.077-.862 8.751-1.676 9.18-2.793.333-.867.074-1.753-.575-1.969-.649-.217-1.18-1.178-1.18-2.136 0-1.626-2.872-4.871-5.761-6.508-.769-.436-2.818.81-5.25 3.195M288.512 31.876c-1.707.365-3.131 1.386-3.323 2.382-.363 1.884 2.252 2.456 3.321.726 1.145-1.852 2.549.038 1.493 2.01-.854 1.595-.6 1.92 1.708 2.19 1.936.226 2.876 1.028 3.293 2.811.682 2.915 3.996 4.082 3.996 1.407 0-.959.697-2.515 1.549-3.456 1.856-2.051.967-7.358-1.099-6.565-.717.275-1.842-.148-2.499-.94-1.246-1.502-3.392-1.645-8.439-.565m-23.501 3.611c-.748.902-.966 2.554-.554 4.198.519 2.067.888 2.375 1.554 1.297.673-1.089 1.127-.75 1.971 1.47.603 1.587 1.82 3.414 2.705 4.061 1.118.817 1.409 1.967.957 3.77-.358 1.427-.2 2.874.352 3.215.552.341 1.004-.032 1.004-.83 0-1.07.984-1.36 3.75-1.108l3.75.341-2.508-2.2c-1.38-1.211-3.542-3.655-4.805-5.432l-2.297-3.232 3.305-2.015c3.086-1.881 5.555-2.486 8.555-2.097.688.09 1.25-.532 1.25-1.381 0-2.214-17.157-2.265-18.989-.057m46.47 12.783c-.881.494-2.178.676-2.882.406-.704-.27-1.915-.089-2.69.401-1.025.65-.66.897 1.341.908 1.512.008 2.75.486 2.75 1.061 0 1.216 8.855.998 9.617-.236.995-1.609 2.184-.764 1.673 1.19-.501 1.917.717 2.519 4.28 2.116 1.001-.113 12.43 12.097 12.43 13.28 0 .297-.675.282-1.5-.034-1.033-.397-1.5.063-1.5 1.479 0 1.853-.298 1.951-3.025 1-3.364-1.172-9.22-.415-11.193 1.448-1.974 1.864-4.782 2.014-4.782.255 0-1.838-2.115-2.029-3.8-.344-.803.803-1.2.838-1.2.107 0-3.777-6.358-1.664-12.543 4.168-2.055 1.939-4.461 3.489-5.347 3.446-.945-.046-1.117-.279-.416-.565 1.365-.555.698-3.045-1.501-5.606-1.344-1.565-1.332-1.75.117-1.75.891 0 2.101-.9 2.69-2 .864-1.614.76-2-.536-2-1.475 0-1.475-.132-.001-1.605.897-.898 1.352-2.404 1.03-3.416-.316-.996-.135-2.083.403-2.415 1.258-.777 4.166-6.574 3.277-6.532-1.396.066-3.673 2.526-3.673 3.968 0 .825-1.086 1.653-2.412 1.841-2.345.331-5.088 2.323-5.088 3.694 0 .372 1.185 1.61 2.634 2.749l2.635 2.072-2.385.978c-1.311.538-2.721.908-3.134.822-.413-.086-.75.294-.75.844s-1.35 1-3 1-3 .168-3 .374.694 2.342 1.542 4.746c1.405 3.981 1.395 4.757-.11 8.698-.96 2.513-1.407 5.555-1.067 7.255.327 1.635.155 2.927-.39 2.927-.536 0-.975-.627-.975-1.393s-.675-1.652-1.5-1.969c-2.514-.964-1.706 2.055 1.153 4.303 1.459 1.148 2.471 2.251 2.25 2.451-.222.2-2.653 1.523-5.403 2.94l-5 2.575 7.25.046c6.599.043 7.25-.133 7.25-1.953 0-1.1.627-2 1.393-2s1.7-.787 2.075-1.75c.896-2.302 3.532 3.616 3.532 7.931 0 3.119 1.386 6.347 3.732 8.694 1.145 1.145 1.168 1.569.12 2.217-1.589.982.562 1.971 3.54 1.627 1.041-.121 2.114.412 2.384 1.183.382 1.087-.211 1.261-2.642.775-4.415-.883-4.086 1.248.861 5.584 3.499 3.067 3.803 3.662 2.45 4.785-1.304 1.082-1.635.944-2.112-.882-.312-1.19-1.204-2.164-1.983-2.164-.78 0-2.752-1.366-4.384-3.034-3.207-3.282-3.958-2.41-1.351 1.569 1.487 2.269 1.487 2.465 0 2.465-1.773 0-2.25 3.49-.615 4.5.55.34 1 .205 1-.299 0-1.407 5.388-.877 6.342.624 1.294 2.038.074 2.516-3.366 1.317-3.627-1.265-3.825.6-.254 2.397 4.057 2.042 5.494 3.699 4.075 4.699-1.014.715-.981.829.155.521 1.951-.529 5.002 2.197 4.353 3.888-.285.744-1.221 1.353-2.079 1.353-2.29 0-.714 1.188 3.543 2.67 6.02 2.097 7.076 1.585 3.481-1.685-3.179-2.892-4.307-5.985-2.183-5.985.611 0 .797-.852.437-1.988-.885-2.789 2.47-8.281 4.473-7.324 2.107 1.007 9.03.978 11.898-.051 1.61-.577 2.164-.509 1.72.21-.889 1.438.454 6.512 1.449 5.476.435-.453 1.009-2.258 1.276-4.012.268-1.753.781-3.666 1.142-4.25.733-1.185 3.91-1.493 3.214-.311-.867 1.472 1.291 5.25 2.999 5.25.956 0 4.233 2.746 7.282 6.101 5.387 5.93 5.65 6.081 9.337 5.381 2.178-.414 3.615-1.202 3.375-1.851-.231-.622-.925-1.019-1.544-.881-.619.137-1.125-.223-1.125-.802 0-.579-1.349-1.522-2.999-2.097-1.649-.575-2.748-1.452-2.441-1.948.963-1.558 4.055-.986 5.94 1.097 2.654 2.932 3.827 2.438 1.781-.75-2.463-3.838-5.281-6.826-5.281-5.601 0 .565-1.654 1.089-3.676 1.165-2.818.106-3.402-.136-2.5-1.038 1.493-1.493 1.509-2.776.036-2.776-2.102 0-3.673-3.375-3.13-6.724.292-1.802.281-3.276-.026-3.276-.971 0-3.696 6.204-3.129 7.121.299.484-.132.879-.957.879-2.475 0-2.638-1.387-1.057-8.969 1.137-5.456 1.228-7.58.369-8.615-1.364-1.644.611-11.3 2.642-12.916.763-.608 1.456-4.532 1.764-10 .279-4.95.927-10.125 1.439-11.5 1.195-3.212.418-10.191-1.287-11.547-.724-.576-1.467-2.376-1.652-4-.206-1.811-.916-2.951-1.836-2.949-.825.002-2.276-1.573-3.224-3.5-.948-1.927-1.735-2.969-1.75-2.315-.043 1.97-8.415-1.397-9.546-3.839-1.072-2.317-7.923-3.301-10.999-1.58M142.376 67.533c-3.122 1.369-4.569 3.362-4.922 6.78-.155 1.5.436 1.759 3.43 1.5 2.982-.258 3.564-.006 3.322 1.437-.161.963.289 1.783 1 1.824.712.041 2.327.266 3.589.501 1.515.281 3.144-.423 4.795-2.074 1.376-1.376 2.93-2.501 3.455-2.501.525 0 .955-1.744.955-3.875 0-3.54-.27-3.929-3.125-4.5-4.682-.936-9.01-.622-12.499.908m174.104 8.434c.329.532-.32 1.541-1.441 2.241-1.122.7-2.039 2.065-2.039 3.033 0 .967-.638 1.759-1.418 1.759-.78 0-2.13.273-3 .607-.87.334-1.582.109-1.582-.5S308.125 82 309.5 82s2.5-.4 2.5-.889c0-1.215-9.371-.499-9.786.747-.218.654-1.382.631-3.381-.066-2.335-.814-3.235-.76-3.848.232-1.05 1.698-.272 3.6 1.558 3.809.801.092 2.132.242 2.957.334.825.091 1.5.589 1.5 1.107 0 .517.675.681 1.5.364.825-.316 1.5-.139 1.5.393 0 1.012-1.292 1.322-4.25 1.021-2.125-.216-2.29 1.117-1.44 11.63.279 3.441 3.141 7.318 5.404 7.318.772 0 3.071 1.34 5.109 2.978 4.389 3.527 8.947 4.647 13.068 3.21 2.095-.73 3.097-.725 3.345.019.205.615 1.093.321 2.116-.702 1.075-1.075 1.489-2.395 1.061-3.384-.386-.892-.726-2.521-.755-3.621-.114-4.251-3.269-4.902-13.908-2.867-2.234.427-2.75.163-2.75-1.41 0-1.451.689-1.93 2.75-1.914 5.14.041 10.122-.706 9.663-1.45-.252-.407 1.188-.473 3.2-.147 3.288.534 3.557.414 2.664-1.181-.769-1.375-2.49-1.833-7.635-2.031-3.653-.14-7.292-.794-8.086-1.454-1.16-.962-1.699-.79-2.741.878-.713 1.142-1.975 2.069-2.806 2.061-.916-.01-1.103-.304-.475-.75.569-.404 2.032-2.033 3.25-3.62 1.219-1.587 2.216-2.374 2.216-1.75 0 1.237 3.239 1.563 4.362.439C318.731 89.935 328 88.893 328 90.108c0 .456.675.57 1.5.254.825-.317 1.5-1.004 1.5-1.528s-.419-.693-.931-.377c-.512.317-1.184.166-1.493-.334-.309-.5.56-1.191 1.931-1.535 2.872-.721 3.318-2.097.743-2.291-4.904-.369-9.144-3.297-4.774-3.297.903 0 1.376-.43 1.051-.956-.325-.526-1.202-.722-1.949-.436-.747.287-2.512-.633-3.922-2.043-2.426-2.426-6.457-3.67-5.176-1.598m-147.861 52.188c-1.291 6.454-5.012 7.895-6.053 2.345-.802-4.272-1.396-4.338-4.566-.5-1.363 1.65-3.158 3.002-3.989 3.005-1.019.003-.656.736 1.116 2.25 3.041 2.599 4.433 5.745 2.542 5.745-.698 0-1.809-.54-2.469-1.2-.933-.933-1.2-.68-1.2 1.138 0 2.047-.462 1.768-3.719-2.248-2.045-2.522-3.849-4.455-4.008-4.296-.16.159 1.535 4.24 3.765 9.068 5.275 11.415 4.327 12.365-1.152 1.156-2.317-4.74-4.589-8.618-5.049-8.618-1.218 0-1.061.909 1.176 6.794 2.384 6.271 6.523 25.508 7.862 36.536.523 4.306 1.193 8.072 1.489 8.368.296.296 2.432-1.543 4.747-4.087 2.314-2.543 5.442-5.239 6.949-5.991 2.637-1.316 2.762-1.259 3.315 1.506.51 2.548 1.004 2.878 4.35 2.909 2.076.02 4.9.679 6.275 1.465 3.238 1.851 4 1.842 4-.05 0-3.721-8.3-14.45-11.179-14.45-.495 0-.32-.636.39-1.414 1.423-1.562 5.216 1.788 8.942 7.897 1.012 1.659 1.841 2.508 1.843 1.886.009-2.549-8.082-31.697-10.099-36.387-1.931-4.488-2.004-5.194-.651-6.27 2.592-2.062 2.453-3.859-.53-6.842-3.525-3.525-3.332-3.538-4.097.285m130.705 29.458l.487 3.614-5.656-.522c-3.11-.287-6.78-.827-8.155-1.2-1.918-.521-2.151-.433-1 .378 1.265.891 1.294 1.388.183 3.181-1.257 2.027-1.177 2.094 1.75 1.451 5.214-1.145 3.375 1.028-2.046 2.417-3.676.943-4.73 1.569-3.75 2.231 1.116.753 1.091.891-.137.76-5.383-.575-10.921.274-12.882 1.974-1.401 1.216-2.983 1.685-4.403 1.307l-2.215-.591 2.272-.557c2.159-.528 2.179-.614.4-1.721-1.535-.955-2.18-.806-3.578.826-1.435 1.676-1.955 1.784-3.282.683-1.41-1.17-1.354-1.364.525-1.827 1.511-.371 1.856-.914 1.226-1.926-.483-.775-.646-2.013-.363-2.75.282-.738.016-1.341-.593-1.341s-1.107.675-1.107 1.5c0 1.746-1.657 2.028-2.208.375-.207-.619-1.621-1.125-3.143-1.125-1.954 0-2.61-.409-2.233-1.392.705-1.837-2.336-5.326-4.063-4.663-1.868.717-1.696 2.092.31 2.482 1.057.205 1.728 1.417 1.841 3.323.24 4.073-.426 4.972-2.081 2.81-1.207-1.577-1.514-1.617-2.385-.31-.775 1.163-.387 1.771 1.731 2.705 1.502.663 2.056 1.239 1.231 1.28-1.144.058-1.061.331.349 1.151 1.017.591 3.155.813 4.75.494 1.596-.319 2.901-.194 2.901.278 0 1.333 13.772 2.118 21 1.195l6.5-.829-5.45-.137c-3.874-.097-5.14-.447-4.379-1.208 1.117-1.117 28.527-1.543 30.261-.471.512.316 1.217.11 1.568-.458.979-1.584 2.496-.152 1.789 1.689-.856 2.231 21.913 1.053 25.548-1.322 2.72-1.777 2.583-2.108-1.067-2.597-2.635-.353-5.103-1.77-3.083-1.77.562 0 2.268-1.156 3.793-2.569l2.772-2.569-3.626.68c-4.011.753-4.855-.568-1.752-2.741 1.515-1.062 1.628-1.543.587-2.515-1.007-.941-1.564-.867-2.568.342-.859 1.036-2.221 1.356-4.137.973-1.752-.35-2.62-.19-2.247.414.335.542.132.985-.45.985-3.032 0-.5 2.022 2.691 2.15 3.383.135 3.456.191.75.577-3.96.564-5.135 1.803-3.535 3.731 1.085 1.307.957 1.542-.843 1.542-1.167 0-2.122.403-2.122.895 0 .98-7.744 2.04-9.744 1.334-.685-.241-.992-.847-.684-1.346.308-.498-.819-1.182-2.506-1.52-3.471-.694-3.486-.718-1.917-3.23.851-1.363.862-2.664.04-5.021-.634-1.818-.698-2.926-.149-2.587.528.326.96-.109.96-.966s-.712-1.559-1.582-1.559c-1.24 0-1.476.78-1.094 3.613m-137.773 32.33c-.967 1.069-3.062 2.23-4.655 2.58-2.821.62-4.093 2.477-1.696 2.477.933 0 .933.267 0 1.2-.66.66-1.2 2.46-1.2 4 0 2.472.381 2.812 3.25 2.9 1.787.055 4.375.498 5.75.986 2.099.744 1.91.82-1.177.475-6.341-.71-7.823.154-7.823 4.556V213l5.75.006c6.4.006 13.25 1.578 13.25 3.041 0 1.165.575 1.218-6-.547-6.316-1.695-12.608-1.944-13.48-.532-.329.532.657 2.269 2.191 3.86 2.494 2.586 3.671 2.96 11.139 3.549l8.35.658-.669-6.268c-.368-3.447-1.133-7.76-1.699-9.584-1.621-5.215-.325-4.757 2.03.719 1.205 2.8 2.988 5.233 4.093 5.584 1.076.341 3.114 1.996 4.529 3.677 2.908 3.456 5.349 3.08 10.766-1.66 3.37-2.949 3.388-2.436-.307-8.441-2.807-4.561-3.263-4.891-5.565-4.016-1.38.525-3.266.92-4.193.878-.927-.042-.255-.604 1.493-1.25 4.461-1.648 4.678-2.067 3.271-6.329-1.732-5.249-3.427-6.699-6.994-5.986-1.626.325-4.184.124-5.685-.446-1.679-.639-2.85-.674-3.044-.091-.185.556-1.742.626-3.764.169-1.985-.447-3.214-.398-2.896.116.304.491.027.893-.614.893s-.907-.675-.59-1.5c.829-2.162-1.722-1.865-3.811.443m184.549 16.97c-1.213 1.052-3.194 2.604-4.403 3.448l-2.197 1.534 2.781.053c1.589.03 3.029-.591 3.357-1.448.722-1.88 2.094-1.911 3.917-.088 1.216 1.216.928 2.115-2.072 6.476-4.966 7.22-4.304 8.072 1.481 1.904l4.964-5.292 1.256 3.252c1.336 3.458 2.029 3.847 8.316 4.657 3.747.483 3.668.408-1.25-1.184-4.486-1.452-5.251-2.065-5.256-4.212-.004-1.382-.679-3.802-1.5-5.377-.822-1.576-1.494-3.488-1.494-4.25 0-2.071-5.313-1.716-7.9.527m-138.767 27.184c-3.058.885-8.333 5.993-8.333 8.069 0 .556 1.407-.172 3.126-1.618 4.011-3.376 4.263-2.982 2.194 3.424-1.336 4.138-1.865 4.875-2.442 3.404-.659-1.676-.745-1.636-.808.374-.09 2.903-.457 2.852-6.245-.862-5.609-3.599-6.745-3.192-8.845 3.174-1.522 4.61.422 9.725 3.475 9.144.853-.162 1.545.398 1.545 1.25 0 .849.825 1.544 1.833 1.544 1.009 0 2.142.308 2.519.685 2.658 2.658 14.889 4.515 12.748 1.936-.914-1.102-.622-1.479 1.45-1.875 2.052-.393 2.783 0 3.497 1.879 1.028 2.702 5.373 3.33 6.301.911.492-1.284.906-1.285 3.357-.006 1.537.802 3.305 1.46 3.928 1.464.624.003 1.379.945 1.679 2.093.651 2.489 3.997 2.262 4.491-.304.211-1.093-1.468-2.982-4.738-5.332-3.105-2.23-5.065-4.392-5.065-5.585 0-2.222-3.463-9.416-4.986-10.357-1.386-.857-1.29-7.509.108-7.509.732 0 .648-.572-.242-1.644-1.222-1.473-1.105-1.562 1.12-.856 2.215.703 2.338.612 1.134-.839-1.135-1.367-7.482-3.845-9.134-3.565-.275.046-1.925.497-3.667 1.001m150.56 54.969c-1.972 1.219-.728 2.067 10.107 6.895l12.651 5.636c3.621 1.612 4.364 1.68 6.133.558 1.737-1.102.438-4.155-1.769-4.155-.973 0-2.355-.705-3.07-1.566-2.313-2.788-7.101-4.67-10.482-4.122-1.775.288-3.618.153-4.095-.301-1.923-1.828-8.15-3.764-9.475-2.945" fill="#d3d3d3" fill-rule="evenodd"/></svg>