<svg xmlns="http://www.w3.org/2000/svg" width="500" height="750"><path d="M211.79 59.543c-.311.311-40.408.658-89.105.772-48.697.114-88.693.427-88.88.696-.187.269-.114 29.964.161 65.989.275 36.025.76 61.45 1.078 56.5l.578-9 .189 9.667c.104 5.316-.198 9.816-.671 10-.473.183-1.174 9.227-1.557 20.097-.478 13.559-1.149 20.848-2.14 23.218-1.771 4.24-1.821 5.594-.193 5.268.929-.186 1.236 2.06 1.194 8.75-.031 4.95-.163 26.873-.293 48.717-.13 21.845-.609 39.948-1.064 40.229-.713.441-.582 49.976.241 90.915.197 9.786-.05 12.979-1.035 13.357-.711.273-1.257 1.235-1.214 2.139.05 1.047.263 1.187.585.387.987-2.448 2.336-.066 2.336 4.124 0 5.419-1.899 8.277-4.579 6.894-2.444-1.262-4.473-.562-3.76 1.297.302.786.939 1.188 1.416.894.476-.295 1.928.159 3.225 1.009 1.297.85 2.659 1.243 3.028.875 1.005-1.005.808 1.113-.206 2.213-1.171 1.27-2.163 13.45-1.096 13.45.462 0 1.027-1.237 1.256-2.75.229-1.512.501 1.3.604 6.25.19 9.133.95 16.612 1.775 17.475 2.64 2.764 21.511-2.266 19.671-5.243-.353-.572-.191-.761.362-.42.553.342 1.5-1.051 2.103-3.095 1.699-5.752 2.285-13.047 1.108-13.775-.574-.354-.725-1.386-.336-2.293.389-.907.836-3.449.994-5.649.159-2.2.6-5.575.98-7.5.38-1.925.907-5.637 1.17-8.25 1.008-10.019 2.093-3.963 2.791 15.583.852 23.858-.202 34.332-4.557 45.295-4.808 12.105-3.806 16.107 4.551 18.176 5.897 1.461 11.328 1.336 14.556-.333l2.854-1.476-.378 8.752c-.209 4.814-.706 9.878-1.105 11.253-1.132 3.901-1.249 16-.154 16 .538 0 .452.626-.192 1.403-.894 1.077-.865 1.523.127 1.924 1.006.405.959.751-.208 1.56-1.01.7-1.543 2.93-1.631 6.826-.072 3.183-.375 6.462-.672 7.287-.297.825-.79 4.425-1.095 8-.305 3.575-.825 7.85-1.156 9.5-.459 2.284-.349 2.642.46 1.5.585-.825 1.07-2.486 1.079-3.691.008-1.205.513-2.499 1.122-2.875.78-.482.878.313.333 2.691-.425 1.856-.703 4.388-.618 5.625.086 1.238-.201 2.25-.637 2.25-1.055 0-.917 8.141.166 9.818.468.725 1.496 1.071 2.285.768.788-.302 4.461.994 8.163 2.88 3.701 1.886 8.523 3.646 10.715 3.91 2.192.265 4.211.567 4.486.671.275.104.837.137 1.25.071.412-.065.75.332.75.882s.675 1 1.5 1 1.5.48 1.5 1.067c0 .59.842.801 1.882.471 1.168-.371 2.096-.039 2.447.877.984 2.565 6.715 2.907 11.698.697 4.768-2.115 7.689-4.855 9.897-9.286.733-1.47 2.287-2.919 3.454-3.22 1.167-.301 4.969-3.04 8.449-6.088 3.48-3.047 6.63-5.386 7-5.198 5.762 2.94 9.416 4.111 12.923 4.142 2.338.021 4.25.424 4.25.896 0 1.643 17.175-4.885 19-7.221.275-.352 1.85-1.314 3.5-2.139 5.937-2.965 6.723-4.498 6.774-13.214.029-5.109.038-5.11 5.682-.928 8.629 6.393 24.807.574 27.404-9.856 1.139-4.576 1.814-4.973 6.619-3.893 10.794 2.425 16.002 1.766 22.403-2.835 3.235-2.325 6.32-3.956 6.856-3.625.536.332 2.615.117 4.619-.478 2.003-.594 5.218-1.325 7.143-1.624 2.018-.314 5.164-2.026 7.432-4.045 2.162-1.925 4.425-3.5 5.027-3.5 2.931 0 4.541-4.062 4.541-11.452 0-4.087-.422-7.691-.939-8.01-.516-.319-.76-1.507-.541-2.641.218-1.133-.434-3.61-1.45-5.504-2.369-4.422-1.41-9.172 3.697-18.304 2.027-3.624 3.615-6.814 3.53-7.089-.085-.275.448-1.175 1.184-2 2.796-3.133 7.519-12.925 7.519-15.589 0-5.257-3.699-10.929-9.642-14.786-6.004-3.897-8.775-4.421-11.885-2.245-1.085.758-3.856 1.329-6.158 1.268-2.301-.061-3.704-.407-3.118-.77 1.118-.691-1.512-1.801-5.451-2.3-1.235-.157-3.371-.776-4.746-1.376a794.946 794.946 0 0 0-7.148-3.045c-5.479-2.304-6.433-4.841-5.346-14.213.719-6.193 1.219-6.696 4.765-4.799 1.177.63 4.635 1.354 7.684 1.61 3.05.255 5.876.977 6.28 1.605.529.822.739.791.75-.11.019-1.55 1.967-1.219 3.991.679 1.324 1.241 1.563 1.224 1.824-.13.266-1.379 1.012-1.335 6.5.387 4.544 1.425 6.654 1.666 7.901.901 1.266-.776 2.097-.646 3.25.507 1.399 1.399 1.549 1.396 1.549-.023 0-1.782 5.455-2.262 6.5-.571 1.187 1.921 3.764 1.119 3.211-.999-.288-1.099-.072-2.278.479-2.618 1.974-1.22 3.656 2.227 4.205 8.617.586 6.824.759 7.928 3.126 20 .809 4.125 1.693 9.525 1.964 12 1.202 10.986 2.895 21 3.551 21 .393 0 .714 1.047.714 2.326 0 1.279 1.021 5.56 2.268 9.513 2.023 6.408 2.107 7.375.779 8.924-2.955 3.446-12.038 20.278-15.871 29.409-2.153 5.131-4.64 10.678-5.525 12.328-.886 1.65-3.364 6.244-5.506 10.209-5.793 10.721-5.365 13.344 3.105 19.037 2.475 1.664 6.75 5.128 9.5 7.697 2.75 2.57 6.125 5.711 7.5 6.979 4.754 4.386 7.6 4.674 14.857 1.501 4.454-1.948 11.143-8.301 11.143-10.583 0-.698.9-1.751 2-2.34s2-1.537 2-2.107c0-.57.675-1.711 1.5-2.536s1.5-1.232 1.5-.905c0 .952 5.373-2.746 6.807-4.685.718-.972 2.181-1.767 3.25-1.767s1.943-.42 1.943-.933c0-.875 2.252-1.939 4.5-2.126.55-.046 1.788-.796 2.75-1.667 1.562-1.414 1.75-1.418 1.75-.038 0 6.008 9.233 17.343 15 18.415 1.925.358 4.4 1.23 5.5 1.939 1.675 1.079 2.941.968 7.799-.68 3.19-1.082 6.227-1.703 6.75-1.38.523.324.951-.339.951-1.471 0-1.164-.652-2.059-1.5-2.059-.928 0-1.5-.941-1.5-2.469 0-1.783-.416-2.308-1.5-1.893-.825.317-1.5.078-1.5-.531 0-2.383 4.483-.885 11.541 3.857 7.382 4.958 7.393 4.962 10.964 3.469 2.082-.869 3.296-1.945 2.907-2.575-.367-.595-.067-1.453.668-1.908.806-.498 1.24-2.274 1.092-4.47-.187-2.767.064-3.446 1.041-2.82 4.777 3.057 21.787 4.767 23.287 2.34.34-.55 1.491-1 2.559-1 1.617 0 1.941-.709 1.938-4.25l-.002-4.25-7.676-.229c-4.222-.125-8.011-.575-8.419-1-2.872-2.981-2.463-15.136.612-18.212 1.017-1.016 1.488-1.103 1.488-.273 0 1.564 3.241 1.573 4.8.014.864-.864 1.2-.881 1.2-.059 0 .628-.45 1.419-1 1.759-.55.34-.993 1.379-.985 2.309.012 1.309.207 1.39.862.356.466-.735 1.134-1.297 1.485-1.25 2.206.295 2.378-.292 1.03-3.519-1.652-3.955-1.013-9.848.986-9.081.653.25 2.218-.379 3.478-1.399l2.291-1.855-.278-40.281c-.304-44.132.578-105.56 1.529-106.512.331-.331.61-7.164.619-15.185.01-8.021.424-18.633.92-23.583.496-4.95.556-13.95.133-20-.422-6.05-.888-9.425-1.035-7.5-.147 1.925-.473 2.712-.724 1.75-.252-.963-.844-1.75-1.317-1.75s-1.129-.851-1.46-1.892c-.33-1.041-1.485-2.124-2.567-2.406-1.894-.496-1.967-1.505-1.967-27.167 0-16.688.357-26.432.956-26.062.555.343.917-1.203.863-3.691-.164-7.682 1.2-27.215 2.115-30.285.853-2.858.901-2.788 1.043 1.503.129 3.871.281 4.173 1.088 2.158.517-1.289.656-2.8.311-3.359-.421-.682 6.17-.871 19.998-.575l20.626.441v-8.898l-6.75.69c-4.386.449-7.188 1.257-8 2.308-1.09 1.411-1.25 1.421-1.25.08 0-1.328-1.711-1.472-12.5-1.057l-12.5.482-.077-5.885c-.042-3.237-.256-6.785-.476-7.885-.219-1.1-.493-6.275-.608-11.5-.115-5.225-.384-8.713-.597-7.75-.611 2.75-2.266 2.045-2.348-1-.04-1.512-.284-8.6-.541-15.75-.313-8.703-.135-12.669.537-12 .552.55 1.194 3.925 1.427 7.5.232 3.575.43-2.5.44-13.5.01-11 .359-26.479.776-34.399.618-11.757.517-14.25-.552-13.589-1.075.664-1.188-5.319-.63-33.351.542-27.246.424-34.157-.586-34.143-.696.01-16.76.899-35.697 1.974-29.816 1.694-39.134 1.832-69.5 1.027-19.288-.512-56.218-1.189-82.068-1.505-25.85-.317-49.058-.792-51.572-1.056-2.515-.264-4.827-.225-5.138.085m234.939 16.145c-.423.653-.684 2.453-.578 4 .231 3.392-.177 4.736-5.723 18.86-4.888 12.45-5.664 17.442-7.449 47.952-.611 10.45-1.364 19.675-1.674 20.5-1.176 3.131-.039 10.69 2.331 15.5 2.038 4.135 2.635 7.421 3.45 19 .542 7.7 1.641 20.075 2.442 27.5.801 7.425 1.75 17.222 2.11 21.771.693 8.78 1.079 9.657 1.824 4.146 1.635-12.107 1.694-23.884.16-31.997-1.242-6.568-1.501-12.198-1.105-24 .339-10.073.19-14.726-.429-13.42-.851 1.797-.955 1.716-1.018-.809-.04-1.62.351-2.549.923-2.195.561.347.928-.39.842-1.691-.083-1.268.367-4.105 1.001-6.305 1.38-4.79 1.52-14.155.164-11-1.307 3.041-1.283-3.052.029-7.507 1.078-3.659 3.161-28.542 3.181-37.993.01-4.948.089-5.149.781-2 .568 2.579.656 1.975.335-2.294-.511-6.802.515-14.922 1.786-14.137 1.58.977 1.031-11.205-.565-12.53-.876-.727-1.57-3.454-1.75-6.872-.163-3.117-.644-5.132-1.068-4.479m-374.901.989C67.885 77.144 66 80.158 66 85.996c0 1.483-.734 4.167-1.63 5.964-.897 1.797-1.721 5.129-1.832 7.404-.111 2.275-.469 4.811-.795 5.636-3.116 7.881-3.144 31.81-.072 62 1.052 10.341 1.372 19.494.96 27.5-1.974 38.418-1.945 44.513.283 60 1.186 8.25 2.812 25.575 3.613 38.5.801 12.925 1.963 27.325 2.584 32 1.389 10.478 1.343 8.314.476 22.25L68.856 359h9.013c4.957 0 9.265.408 9.573.906.308.498 1.498.661 2.644.361 1.612-.421 1.781-.751.749-1.458-.829-.567 3.141-.795 10.479-.602 10.957.289 11.939.477 13.541 2.601 1.66 2.2 5.145 2.258 5.145.085 0-1.046 7.34-1.219 8.362-.197 1.561 1.561 6.415 1.916 12.138.888 10.764-1.933 13.366-2.178 15.351-1.443 1.182.437 2.149.472 2.149.077 0-1.546 5.588-.641 7.062 1.144 1.493 1.809 6.649 1.597 5.522-.226-.723-1.171 7.667-.634 10.788.689 1.592.675 3.374.848 4 .389.62-.457 2.14-.753 3.378-.659 1.238.095 2.25-.377 2.25-1.049 0-1.93 14.952-2.601 21.207-.951 2.85.751 5.657.995 6.238.541 1.358-1.063 9.242-2.076 10.03-1.288.33.331 1.821.762 3.313.958 1.492.197 3.14.78 3.662 1.296 1.454 1.436 2.266 1.132 2.84-1.062.505-1.932 3.71-2.903 3.71-1.123 0 .96 12.371.63 13.995-.374.553-.341 1.526-.299 2.163.094.793.491.98.037.593-1.441-.31-1.186-.156-2.156.343-2.156.498 0 .906-1.575.906-3.5 0-2.94-.36-3.513-2.25-3.579-2.041-.072-1.995-.172.5-1.083 3.292-1.203 3.71-3.292.5-2.498-8.649 2.141-29.609 3.828-43.63 3.512-14.702-.331-15.826-.497-19.12-2.819-6.284-4.43-9.005-8.573-6.222-9.473 2.214-.716 4.043-4.687 3.68-7.99-.178-1.627.111-2.336.784-1.92.657.405.772.181.299-.583-.731-1.183 6.806-9.067 8.669-9.067 1.605 0 .721-1.714-1.46-2.833-8.124-4.168-21.461-13.097-24.579-16.456-1.892-2.037-2.281-3.439-2.068-7.449.204-3.849-.252-5.663-2.067-8.211-2.157-3.03-2.243-3.641-1.168-8.301 1.604-6.946 10.669-29.385 13.836-34.25 7.31-11.224 26.431-27.819 38.657-33.548 4.751-2.226 8.639-4.371 8.639-4.765 0-.395 2.198-1.498 4.884-2.452 9.307-3.306 20-1.662 28.866 4.437l4.25 2.924v-4.838c0-2.661.642-9.77 1.427-15.798 2.278-17.493 2.577-21.58 1.53-20.933-1.815 1.121-.951-.624 1.543-3.118l2.5-2.5.142 2.796c.109 2.149.288 1.87.775-1.205.348-2.2.309-5.564-.087-7.475-.444-2.139-.314-3.726.338-4.129.685-.423.577-.816-.305-1.112-1.049-.353-1.096-.784-.206-1.871.637-.777 1.312-2.988 1.5-4.913.189-1.925.701-3.764 1.137-4.087.437-.322 1.071-3.877 1.408-7.899l.613-7.313-3.306 1.899c-5.126 2.945-19.479 17.907-24.493 25.533-2.484 3.777-6.622 10.066-9.196 13.975-6.609 10.037-23.272 28.005-32.454 34.994-9.164 6.976-13.556 11.539-21.631 22.47-3.724 5.041-7.047 8.474-8.849 9.142-1.587.588-5.136 1.828-7.886 2.755-2.75.928-5.9 2.06-7 2.517-15.956 6.625-18.471 7.085-47.142 8.612-12.768.681-13.376.619-21.355-2.158-11.21-3.902-11.395-4.407-9.916-26.94 1.899-28.905 4.491-59.142 5.506-64.217.858-4.287 3.581-5.841 11.675-6.659 3.723-.376 7.918-1.207 9.324-1.848 1.95-.888 3.003-.885 4.443.014 1.95 1.217 4.965.673 4.965-.897 0-.491.787-.9 1.75-.908 1.384-.012 1.462-.198.372-.888-.918-.582 1.085-1.25 6-2.003 4.058-.622 9.668-1.797 12.466-2.612 2.798-.815 5.836-1.482 6.75-1.482.914 0 1.662-.607 1.662-1.35 0-.997 2.56-1.517 9.811-1.992 5.397-.354 13.205-1.511 17.352-2.572 4.148-1.061 11.545-2.625 16.439-3.476 11.366-1.977 17.059-4.21 17.787-6.978.308-1.173.119-2.283-.421-2.467-.539-.185-.763-.687-.498-1.117.741-1.198-2.666-3.862-7.036-5.501l-3.934-1.476 5.5.486c3.781.334 4.864.202 3.465-.424-1.119-.5-2.675-1.681-3.459-2.625-2.488-2.998-5.541-3.52-11.508-1.965-6.936 1.806-8.997 1.813-4.868.017 3.896-1.696 5.202-3.56 2.494-3.56-3.221 0-7.303 1.901-9.75 4.541-1.253 1.353-3.353 2.459-4.666 2.459-1.576 0-2.774.85-3.526 2.5-.627 1.375-1.936 2.495-2.911 2.49-.974-.006-4.605.985-8.068 2.201-5.531 1.943-6.687 2.054-9.5.914-1.762-.714-6.128-2.357-9.703-3.651-3.575-1.295-8.975-4.319-12-6.721-8.506-6.755-17.881-12.257-32.291-18.955-13.783-6.406-19.717-7.541-31.881-6.101M289.5 92.742c-11.285 1.822-11.438 1.904-14.686 7.823-2.877 5.244-2.902 6.72-.07 4.183 2.192-1.964 14.514-8.101 19.426-9.674 3.199-1.025 7.56-4.319 5.202-3.93-.479.079-4.922.798-9.872 1.598m124-.254c-6.847 1.244-17.811 2.379-44 4.552-15.743 1.307-24.106 2.78-25.531 4.498-1.529 1.841.499 2.811 2.831 1.355 2.393-1.495 8.211-.459 11.367 2.024 1.304 1.025 4.387 2.462 6.852 3.192 2.464.731 5.997 2.349 7.85 3.596 1.852 1.246 3.733 2.041 4.179 1.765.446-.275 2.823 2.093 5.282 5.264 2.459 3.172 6.127 7.341 8.152 9.266 4.152 3.948 10.518 14.178 10.518 16.904 0 2.757 2.098 8.153 2.962 7.619.423-.261 1.001 2.425 1.285 5.969.319 3.976 1.329 7.819 2.635 10.033 1.165 1.974 2.118 4.769 2.118 6.211 0 2.353 2.244 10.766 5.383 20.184.627 1.882 1.757 3.627 2.513 3.879 1.506.502 1.161-5.988-.787-14.799-1-4.521-.795-18.734.794-55 .739-16.858 1.208-20.584 3.463-27.5 3.865-11.854 4.4-11.241-7.866-9.012m-95.836 17.592c-3.141 1.909-12.801 2.808-17.382 1.618-3.909-1.015-7.644-.064-4.282 1.091 2.295.789 8.093 7.251 7.446 8.299-.315.509.084 1.178.886 1.486 1.181.453 1.377 2.379 1.029 10.099-.298 6.604-.055 9.991.79 11.009.84 1.012.89 1.681.16 2.144-.583.371-1.378 2.14-1.767 3.933-.389 1.792-1.12 3.003-1.625 2.691-.53-.327-.919 2.868-.919 7.541 0 5.046-.536 9.145-1.419 10.853-1.324 2.559-3.455 18.255-2.329 17.156.281-.275 2.409-3.65 4.728-7.5 2.32-3.85 5.185-7.96 6.369-9.133 1.183-1.173 3.705-3.819 5.604-5.879 1.899-2.06 6.736-6.217 10.75-9.238 4.013-3.021 7.297-5.839 7.297-6.262 0-3.723 29.557-.417 49.637 5.551 1.176.349 2.414.188 2.751-.358.338-.546 1.575-.742 2.749-.435 2.033.532 2.101.322 1.421-4.344-.84-5.767-2.592-8.843-7.28-12.788-1.887-1.587-3.846-3.976-4.352-5.31-.585-1.538-1.38-2.161-2.174-1.704-.689.396-.936.37-.55-.059 1.118-1.24-7.119-7.528-10.047-7.669-7.863-.378-18.282-3.618-28.655-8.911-8.386-4.28-15.701-5.787-18.836-3.881m-83.219 7.717c-.402.937-.644 2.839-.537 4.226.107 1.388-.249 3.638-.793 5-.866 2.171-.996 1.89-1.052-2.273-.07-5.284-1.533-6.201-3.192-2-.597 1.513-1.488 3.531-1.979 4.486-.49.955-.892 2.37-.892 3.143 0 .774-.626 1.647-1.39 1.94-.765.294-2.08 1.917-2.923 3.607-1.475 2.956-1.45 3.077.64 3.155 1.939.073 1.873.214-.609 1.313-3.041 1.347-9.581 13.454-7.846 14.527 1.478.913.074 6.096-2.003 7.393-1.028.642-1.869 1.861-1.869 2.71 0 1.849-4.151 1.926-6.33.117-.804-.667-1.753-2.771-2.111-4.677-.357-1.905-1.043-3.464-1.525-3.464-1.174 0-2.356-5.597-2.182-10.332.097-2.658-.242-3.706-1.106-3.421-1.32.435-2.455 8.245-2.637 18.143-.137 7.406-3.372 14.615-6.224 13.87-1.037-.271-1.885-.946-1.885-1.499 0-.561-.674-.447-1.524.259-.838.696-1.626 1.088-1.75.873-3.757-6.531-4.097-7.852-4.532-17.646-.379-8.51-.719-10.259-1.909-9.803-.797.306-2.129.556-2.961.556-1.227 0-1.391.894-.869 4.75.397 2.928.049 7.555-.906 12.065-.852 4.024-1.549 10.259-1.549 13.857 0 5.174-.291 6.43-1.39 6.009-.931-.358-1.585.446-1.984 2.437-.498 2.493-.884 2.814-2.401 2.002-.995-.532-2.602-.889-3.571-.794-1.849.182-5.179-7.124-6.531-14.326-.903-4.809-2.318-4.079-4.269 2.201-.905 2.914-2.593 7.082-3.75 9.26-1.157 2.179-2.104 5.147-2.104 6.595 0 3.07-4.381 8.755-5.433 7.052-.377-.61-1.775-1.108-3.107-1.108-1.709 0-2.557-.662-2.88-2.25-.252-1.238-.743-3.6-1.091-5.25-1.622-7.7-1.52-10.092.912-21.417 3.249-15.127 3.321-14.263-1.151-13.893l-3.75.31-.644 5.5c-.353 3.025-1.186 8.875-1.849 13s-1.017 11.213-.786 15.75c.298 5.856.082 8.25-.745 8.25-.641 0-1.981.9-2.976 2-2.737 3.025-3.245 2.573-5.459-4.863-2.051-6.886-1.825-20.131.604-35.319l.66-4.129-3.776.613c-2.077.337-3.968.804-4.203 1.038-.84.841-.292 67.094.562 67.948.887.887 25.131-.785 32.612-2.249 2.2-.431 9.314-2.416 15.808-4.411 6.495-1.995 12.57-3.665 13.5-3.709.931-.045 3.717-2.484 6.192-5.419 2.475-2.935 4.978-5.374 5.563-5.419 1.544-.118 6.107-5.231 6.839-7.663.69-2.293 13.177-12.751 15.225-12.751.707 0 1.01-.445.675-.988-.336-.543-.123-.686.474-.317 2.06 1.273 18.673-19.049 25.231-30.862 4.194-7.555 14.094-22.124 17.506-25.762 2.54-2.709 1.475-5.085-1.465-3.268-.576.357-1.048.274-1.048-.184 0-.457-1.687-1.658-3.75-2.669a667.965 667.965 0 0 1-5.411-2.681c-1.169-.592-1.878-.337-2.394.861m112.176 69.06c.422 2.11.081 3.949-1.055 5.682-1.608 2.455-1.582 2.668.628 5.07 3.032 3.297 6.447 4.653 8.692 3.452 1.388-.743 2.104-.349 3.422 1.883.916 1.552 3.935 4.551 6.707 6.665 7.108 5.421 8.844 12.1 4.64 17.849-1.208 1.651-2.699 1.971-9.489 2.037-6.46.063-7.845-.177-6.989-1.208.763-.919.747-1.287-.055-1.287-.617 0-1.122.45-1.122 1 0 1.327-4.703 1.29-5.527-.044-.355-.574-.135-1.659.489-2.41.883-1.064.431-2.168-2.041-4.983-3.097-3.527-3.149-3.746-2.12-8.84 1.222-6.046.332-7.542-6.071-10.201l-3.769-1.565-4.981 4.658c-5.901 5.52-6.773 4.542-.988-1.108 4.117-4.019 3.957-5.459-.608-5.492-2.4-.017-8.902 12.896-8.079 16.044.248.946.062 2.332-.412 3.08-.685 1.081-.866 1.092-.878.052-.008-.72-.465-1.031-1.015-.691-.55.34-1 1.068-1 1.618s.45.722 1 .382c1.291-.798 1.261-.167-.137 2.902-1.939 4.256 6.54 16.476 13.654 19.677 9.5 4.276 16.519 4.361 28.305.341 14.4-4.912 20.484-8.498 18.863-11.12-.28-.454-.791-3.52-1.134-6.813-1.121-10.745-2.756-18.91-4.621-23.074-2.34-5.221-10.482-12.664-13.061-11.939-1.028.289-2.808.794-3.955 1.121-1.877.535-1.969.376-.919-1.586 1.431-2.673 1.183-2.944-3.372-3.683-3.612-.586-3.623-.576-3.002 2.531M263 236.607c-.825.146-3.637.547-6.25.891-6.083.8-6.127 2.322-.25 8.605 5.235 5.597 5.65 8.377 1.911 12.82-3.402 4.044-7.286 4.075-12.234.099-2.038-1.638-5.274-3.257-7.191-3.598-5.881-1.046-11.986-4.242-11.986-6.274 0-4.268-7.994-6.829-12.982-4.16-3.211 1.719-5.244 9.946-4.45 18.008.685 6.949.784 7.148 4.996 10.046 2.363 1.626 4.847 2.956 5.52 2.956.673 0 3.708 1.175 6.745 2.612 5.334 2.524 5.619 2.555 8.399.913 2.586-1.528 3.251-1.553 6.575-.247 7.919 3.112 10.78 3.06 17.474-.316 3.423-1.726 6.657-3.555 7.188-4.065 1.943-1.866 4.392-34.318 2.768-36.67-.927-1.342-3.713-2.066-6.233-1.62m126.25 29.161c-5.658 2.851-6.065 3.755-3.724 8.282 3.72 7.195 12.125.277 10.691-8.8-.436-2.755-.48-2.752-6.967.518m-91.2 15.851c-1.127 2.549-2.05 4.83-2.05 5.068 0 .238-1.834 4.275-4.076 8.972-4.781 10.018-6.502 18.068-4.339 20.305.972 1.007 1.415 1.085 1.415.25 0-.668.659-1.214 1.465-1.214 1.984 0 3.196-2.531 4.07-8.5.402-2.75 1.572-7.154 2.598-9.787 1.027-2.633 1.867-5.743 1.867-6.912 0-1.169 1.132-4.058 2.516-6.419 2.464-4.203 2.475-4.316.551-5.346-1.738-.93-2.204-.514-4.017 3.583m109.149 6.902c-2.647 3.755-3.587 4.42-5.549 3.927-1.533-.385-2.963.008-4.074 1.119-1.424 1.424-2.962 1.617-9.144 1.149-5.758-.435-7.432-.266-7.432.753 0 3.463-8.122 2.772-14.162-1.206-4.201-2.767-10.032-2.497-17.423.809-2.246 1.005-4.959 1.598-6.029 1.319-2.998-.784-6.366.913-13.081 6.592C321.546 310.39 311.045 331 316.03 331c.449 0 2.913 1.6 5.475 3.556 2.563 1.956 5.181 3.382 5.818 3.17.638-.213 1.758.212 2.489.944 3.77 3.769 16.385-.475 32.136-10.813 5.746-3.771 10.99-6.857 11.654-6.857.663 0 3.938-1.544 7.277-3.431 3.339-1.888 10.469-5.342 15.846-7.677 16.841-7.315 23.906-17.193 16.961-23.718-3.005-2.822-2.789-2.901-6.487 2.347m-2.699 42.637c-1.1.63-4.032 3.021-6.515 5.313-8.245 7.614-18.362 11.887-33.32 14.074-2.985.437-5.832 1.632-7.442 3.124-2.602 2.411-2.609 2.412-3.715.346-1.1-2.055-1.125-2.052-3.482.458-1.306 1.39-3.084 2.534-3.95 2.542-.969.009-.612.51.924 1.301 2.106 1.084 2.591 1.054 3.075-.191.473-1.215.697-1.162 1.259.302.405 1.056 1.29 1.548 2.174 1.208.937-.359 1.492.019 1.492 1.019 0 1.301.274 1.364 1.5.346 1.1-.913 1.5-.933 1.5-.077 0 1.173 13.011.994 17.5-.242 6.161-1.695 8.5-1.884 8.5-.684 0 .961.325.979 1.411.077.776-.644 1.639-.802 1.918-.351.278.451 2.22.739 4.314.64 2.424-.114 4.815.539 6.582 1.797 1.97 1.403 2.779 1.594 2.79.658.012-1.034.206-1.017.899.078.597.942 1.485 1.121 2.735.551 2.835-1.294 10.351-1.223 10.351.097 0 .786 1.41.925 4.558.447 2.507-.38 5.657-.481 7-.225 1.589.304 2.442.007 2.442-.849 0-.995.282-1.035 1.153-.164.812.812 1.719.85 3.064.131 1.207-.646 2.347-.675 3.097-.078.652.519 2.311.813 3.686.652 1.375-.16 2.864-.329 3.309-.375.445-.045.512-.563.15-1.15-.363-.586-3.202-.999-6.309-.918-11.049.291-10.617.457-10.938-4.21-.214-3.103-1.254-5.363-4-8.694-2.042-2.476-5.317-7.452-7.279-11.057-3.777-6.94-6.209-8.314-10.433-5.896m-125.946 9.755c-1.143 1.849-1.78 13.675-.651 12.087.861-1.211 1.069-.97 1.082 1.25.009 1.662.56 2.75 1.393 2.75.757 0 1.929.666 2.605 1.479.817.985 1.777 1.192 2.872.62.905-.473 4.487-.779 7.961-.681 3.473.098 6.491-.105 6.705-.453.215-.347 1.825-.421 3.577-.164 2.211.325 2.972.121 2.485-.667-.386-.624-1.687-1.148-2.892-1.166-2.034-.029-2.066-.127-.441-1.36 2.575-1.955 2.158-2.608-1.668-2.608-5.013 0-6.907-.904-5.485-2.617.756-.911.788-1.383.093-1.383-.58 0-1.308-.796-1.617-1.769-1.067-3.364-14.476-7.815-16.019-5.318M242.5 385c-1.1.412-2.338.554-2.75.316-.412-.239-.75.057-.75.656 0 .6.675 1.35 1.5 1.666.867.333 1.5 1.828 1.5 3.54 0 2.635-.167 2.798-1.5 1.465-.825-.825-1.5-2.234-1.5-3.131 0-.896-.43-1.364-.956-1.039-.526.325-.709 1.364-.406 2.309.424 1.324.328 1.406-.423.355-.821-1.151-1.052-1.151-1.479 0-.385 1.036-.886.883-2.089-.637-.983-1.241-1.595-1.5-1.615-.683-.021.859-.729 1.097-2.032.683-1.226-.389-2-.18-2 .541 0 .792-.898.939-2.75.451-4.159-1.096-6.633-1.194-7.84-.311-2.074 1.518-16.329 5.768-22.83 6.806-8.247 1.318-11.902 2.683-11.016 4.117.376.609.835 2.972 1.019 5.251.371 4.586.895 7.262 1.938 9.895.416 1.05.236 1.75-.449 1.75-.763 0-.844.581-.244 1.75.494.962.808 2.782.699 4.042-.109 1.261.177 2.525.637 2.809 1.397.864.938 2.226-.914 2.71-1.614.422-1.609.466.063.573 1.282.082 1.721.775 1.5 2.366-.245 1.759.178 2.25 1.934 2.25 2.519 0 7.002 4.653 7.89 8.188.319 1.272.923 2.312 1.341 2.312.419 0 1.322 2.137 2.005 4.75.684 2.613 2.082 7.102 3.108 9.977 1.025 2.875 1.588 5.946 1.251 6.824-.499 1.301.013 1.536 2.773 1.272 3.371-.322 3.388-.35 4.187-6.823.44-3.575.882-8.187.98-10.25.099-2.062.542-3.75.984-3.75.442 0 .323-.9-.266-2-.726-1.356-.737-2-.035-2 .569 0 1.035-1.425 1.035-3.167 0-1.741-.273-2.893-.607-2.56-.333.334-1.177.074-1.874-.578-1.249-1.166-1.161-2.241.505-6.195.464-1.1 1.131-4.587 1.482-7.75.351-3.163.993-5.75 1.427-5.75.434 0 .573-1.131.309-2.514-.35-1.832-.109-2.38.889-2.019 1.522.551 5.279-5.995 4.325-7.538-.316-.511-.137-.929.397-.929 1.162 0 2.597 7.328 2.229 11.386-.143 1.587.2 3.17.763 3.518.835.516 1.655 6.37 2.089 14.905.036.72.441 1.077.899.794.459-.283.834.855.834 2.529s.561 3.391 1.246 3.814c2.445 1.512.843 6.354-2.385 7.211-2.592.688-3.392.344-6.25-2.686-1.803-1.912-3.285-4.037-3.293-4.723-.011-.853-.307-.788-.935.205-.505.799-.653 2.781-.328 4.405.444 2.224.278 2.76-.673 2.172-.919-.568-1.089-.233-.625 1.23.351 1.106.811 4.721 1.023 8.034.212 3.313.924 7.03 1.583 8.261.997 1.863.919 2.394-.466 3.169-1.306.731-1.617 2.223-1.446 6.941.154 4.291-.189 6.262-1.201 6.89-1.452.901-1.664.318-3.309-9.091-.461-2.635-1.118-3.535-2.579-3.535-1.752 0-1.917.563-1.551 5.309.244 3.175.029 5.075-.535 4.727-.519-.321-.943.344-.943 1.476 0 1.132.338 2.058.75 2.057.412-.001.598 2.699.411 6-.2 3.542.069 6.002.657 6.002.547 0 .787.794.533 1.764-.253.971-.015 2.883.531 4.25.545 1.367 1.02 1.924 1.055 1.236.034-.687.738-1.25 1.563-1.25 1.743 0 1.997-1.575.412-2.555-1.089-.672 1.647-2.722 5.435-4.071 1.811-.645 1.775-7.821-.068-13.281-.295-.876.755-.257 2.334 1.375 2.577 2.663 2.91 2.772 3.24 1.059.698-3.625 2.915 3.798 2.468 8.265-.367 3.665-.196 4.112 1.38 3.614 1.574-.498 1.552-.369-.176 1.037-1.663 1.353-1.781 1.918-.746 3.575.677 1.083 1.481 3.547 1.787 5.475.541 3.407.463 3.509-2.754 3.567-4.618.084-13.167.962-13.602 1.396-.198.199-1.677-.016-3.285-.478-1.609-.461-2.925-.476-2.925-.033 0 .443-1.352 1.075-3.005 1.406-4.339.868-4.352.874-5.995 2.842-1.031 1.235-2.232 1.598-3.842 1.161-2.426-.658-2.503-2.545-.505-12.354.354-1.739.223-2.095-.431-1.169-1.176 1.665-2.291-4.766-1.67-9.632.231-1.815.052-3.072-.399-2.794-1.316.814-1.536-6.117-.59-18.566l.582-7.66-5.823.535c-8.999.828-11.322 2.408-11.322 7.705 0 3.096.47 4.547 1.613 4.986 1.054.405 1.425 1.341 1.07 2.7-.299 1.144.53 5.301 1.843 9.238 1.312 3.936 2.858 10.982 3.435 15.657.576 4.675 1.483 11.152 2.014 14.393.532 3.241.649 6.391.261 7-.77 1.208-.923 1.79-1.111 4.224-.084 1.085-.762 1.45-2.06 1.11-1.089-.284-2.158.074-2.444.818-1.189 3.099-4.142 3.402-9.399.966l-5.124-2.374.357-13.318c.197-7.326.884-16.207 1.526-19.738 1.023-5.623.97-6.529-.427-7.311-.878-.491-1.335-1.315-1.016-1.831.729-1.179-.204-1.182-4.281-.013-1.994.572-3.451.569-3.807-.008-.318-.513-1.562-.711-2.764-.437-8.918 2.025-10.962 2.202-13.24 1.146-2.536-1.176-3.472-2.958-1.068-2.036 1.176.452 3.098-5.277 2.138-6.373-.251-.286-5.355.803-13.516 2.884-2.475.631-5.737 1.156-7.25 1.166-2.584.018-2.756.296-2.851 4.626-.177 8.051.19 11.477 1.788 16.664 2.056 6.679.008 11.188-6.687 14.722l-4.5 2.376-.323 9.422c-.399 11.608.759 33.922 1.76 33.922.404 0 3.621-2.258 7.149-5.019 3.528-2.76 6.864-5.364 7.414-5.787 9.54-7.337 22.396-9.624 37.238-6.625 1.78.36 4.03.292 5-.15.969-.443 2.212-.857 2.762-.921 2.436-.284 5.5-1.713 5.5-2.565 0-.513.477-.933 1.059-.933s.753.495.379 1.1c-1.307 2.116 2.96-.845 7.932-5.502 2.678-2.51 7.213-6.118 10.076-8.018 2.863-1.901 5.74-4.099 6.393-4.885 1.209-1.458 2.321-1.441 12.161.186 5.941.982 7.609.49 11.935-3.522 1.403-1.3 4.016-2.848 5.807-3.439 1.792-.591 3.258-1.58 3.258-2.198 0-.822.303-.819 1.135.013.846.846 1.722.749 3.447-.381 1.272-.833 2.561-1.479 2.865-1.434 5.183.754 9.54-2.155 9.852-6.58.114-1.608 1.069-3.367 2.201-4.055 1.443-.876 1.582-1.228.5-1.265-1.315-.044-1.318-.166-.026-.983.971-.614 1.732-.524 2.234.266.536.843.766.86.777.058.036-2.668 7.081-2.564 12.706.189 3.045 1.489 5.848 2.296 6.309 1.815 5.446-5.676 12.366-18.388 10.816-19.868-.381-.364-12.7-1.494-22.199-2.035-6.936-.396-11.211-2.472-10.25-4.977.241-.628-.892-3.123-2.519-5.545-1.633-2.433-2.485-4.561-1.903-4.755 1.996-.665 1.106-5.105-1.344-6.711-4.378-2.868-7.394-17.34-5.647-27.099 2.557-14.287 3.289-17.579 5.639-25.375 1.409-4.675 2.639-9.4 2.734-10.5.095-1.1.556-2.28 1.024-2.622.469-.342 1.434-3.125 2.145-6.186l1.294-5.564-3.802.053c-2.091.029-4.181-.169-4.645-.439-.464-.271-1.743-.154-2.843.258m152.75 54.568c-.687.741-1.25 1.779-1.25 2.306 0 .528-.445 1.109-.989 1.293-.647.218-.618 2.411.083 6.333 1.172 6.548 1.951 36.5.95 36.5-1.012 0-.996 3.912.02 4.539.515.319.936 1.029.936 1.579s-.45.722-1 .382c-.55-.34-1-.179-1 .358 0 .536.47 1.132 1.044 1.323.574.192.106 1.354-1.039 2.584-1.525 1.636-1.7 2.235-.651 2.235 1.845 0 3.064 3.123 1.578 4.042-.753.465-.383 1.229 1.098 2.266 1.378.965 2.003 2.163 1.633 3.128-.33.86-.164 1.564.368 1.564.533 0 .969.9.969 2s-.113 1.995-.25 1.988c-.137-.006-2.641-.648-5.563-1.426-5.069-1.349-11.187-.641-11.187 1.295 0 .364-.905 1.227-2.012 1.918-2.632 1.644-6.988.545-6.988-1.762 0-2.876-7.653-4.414-10.193-2.048-1.071.998-3.905 2.362-6.297 3.032-4.137 1.159-4.324 1.371-3.839 4.366.385 2.371-.067 3.787-1.83 5.735-8.162 9.017-9.882 11.613-11.861 17.902-.778 2.475-1.989 5.625-2.691 7-.702 1.375-1.279 2.87-1.283 3.321-.003.452-.741 1.557-1.64 2.456-2.795 2.795.15 2.555 8.587-.699 9.096-3.507 10.047-3.657 10.047-1.578 0 .833.889 1.5 2 1.5 1.467 0 2-.667 2-2.5 0-2.378.323-2.666 3.25-2.9.688-.055 1.528-.48 1.867-.944.34-.465 2.14-.915 4-1 2.572-.119 3.921-.92 5.626-3.343 6.2-8.808 8.408-10.372 12.757-9.039 5.066 1.553 10.451 5.529 11.626 8.585.672 1.747 1.233 2.088 2.165 1.314 3.218-2.67 13.066-4.872 25.209-5.636 3.85-.242 8.648-.708 10.662-1.036 2.167-.353 3.931-.159 4.323.474.939 1.52 8.724-2.988 8.076-4.676-.274-.714.163-1.299.97-1.299 1.93 0 1.904-3.896-.031-4.638-.825-.317-1.5-1.004-1.5-1.528s.45-.674 1-.334 1 .154 1-.412c0-.567-1.462-1.453-3.25-1.969s-2.462-.979-1.5-1.029c.962-.049 1.75-.792 1.75-1.649 0-.889-.478-1.264-1.112-.872-1.583.978-2.919-1.642-1.853-3.634.492-.919.636-1.931.32-2.247-.317-.316-.489-4.088-.384-8.382.203-8.253.2-24.806-.004-24.806-.692 0-.627-4.268.087-5.601.636-1.188.537-1.921-.312-2.318-.985-.461-.982-.702.014-1.166.691-.322.929-1.11.528-1.75-.92-1.473-1.454-5.381-2.615-19.165-.144-1.706-3.669-6.476-3.669-4.965 0 .295-.9.054-2-.535-1.722-.922-2.013-.753-2.093 1.215a285.466 285.466 0 0 1-.35 6.035c-.14 2.063.074 3.75.477 3.75.892 0 2.038 3.223 2.933 8.25.367 2.063.27 3.75-.216 3.75s-.697 2.082-.47 4.626c.228 2.544.025 6.706-.45 9.25-.476 2.543-.931 6.331-1.013 8.417-.082 2.087-.525 4.026-.984 4.309-.459.284-.834 1.869-.834 3.523 0 1.653-.481 3.906-1.069 5.005-.779 1.454-.746 2.388.122 3.434.79.951.829 1.436.117 1.436-.591 0 .046 1.209 1.416 2.687 1.873 2.022 2.343 3.361 1.894 5.405-.329 1.498-.122 3.011.461 3.372 2.214 1.368.919 2.589-2.503 2.359-2.071-.14-3.897.302-4.362 1.054-.44.712-1.199 1.261-1.688 1.22-.488-.04-1.709.187-2.712.506-1.003.318-3.113.044-4.689-.608l-2.865-1.187.488-8.154c.269-4.485.81-11.304 1.203-15.154.393-3.85.708-8.687.7-10.75-.009-2.506.439-3.75 1.351-3.75 1.042 0 1.209-1.025.71-4.353-.382-2.548-.046-7.419.811-11.75.804-4.068 1.769-11.447 2.144-16.397.737-9.733 1.817-12.965 4.048-12.109.833.32 1.423-.063 1.423-.922 0-1.527-1.844-1.755-16.25-2.01-4.233-.075-6.756.284-6.765.961-.009.594-.459.405-1-.42-.807-1.229-1.141-1.259-1.847-.165-1.018 1.578-2.176 1.716-3.026.361-.37-.589-1.107-.441-1.862.372m79.215 12.489c-.86 1.391.307 5.943 1.523 5.943.522 0 .663.745.314 1.655-.559 1.458-.259 1.433 2.532-.216 1.741-1.029 3.166-2.523 3.166-3.321s.298-1.153.662-.789c.365.364.638 2.802.607 5.417-.03 2.615.171 3.886.446 2.825 1.253-4.829 4.561-5.469 5.533-1.071.425 1.922.474 1.927 1.255.118.495-1.147.325-2.663-.434-3.878-1.172-1.877-1.047-1.959 2.093-1.384 1.836.336 4.013.175 4.838-.357 1.282-.827 1.245-.971-.25-.984-.962-.008-1.75-.465-1.75-1.015 0-.55-1.202-1-2.671-1-1.469 0-3.494-.745-4.5-1.655-1.192-1.079-1.829-1.232-1.829-.441 0 .668-.5.905-1.112.527-.611-.378-1.504-.067-1.984.691-.691 1.09-.877 1.012-.889-.372-.017-1.991-6.386-2.576-7.55-.693m-7.495 8.533c-1.232 3.735-1.71 8.579-2.384 24.16-.22 5.087-.033 9.25.415 9.25.448 0 1.391 2.25 2.096 5 .704 2.75 1.671 5 2.148 5 .477 0 .729-10.572.561-23.494-.168-12.922-.609-23.497-.978-23.5-.37-.003-1.206 1.609-1.858 3.584m-333.286 33.511c-.302 1.155-1.007 1.817-1.567 1.472-.559-.346-1.404.171-1.877 1.149-1.294 2.672-.347 34.504 1.068 35.919.266.267.262 2.147-.01 4.178-.567 4.222.968 6.141 6.891 8.616 3.489 1.457 3.671 1.427 5.165-.852 2.08-3.175 2.715-13.174 1.084-17.078-.71-1.699-1.544-6.671-1.852-11.048-1.356-19.269-1.836-22.575-3.2-22.052-.73.281-1.984-.146-2.786-.947-1.923-1.924-2.265-1.848-2.916.643m122.78 31.956c-1.08 1.203-4.214 3.465-6.964 5.027-10.039 5.7-15.154 12.051-16.055 19.936-.872 7.636.438 10.388 5.946 12.491 6.202 2.369 8.833 1.431 13.565-4.836 5.536-7.332 7.058-12.254 6.974-22.551-.091-11.148-.758-13.084-3.466-10.067M350 531.726c-.825.313-3.173 2.176-5.217 4.142l-3.717 3.573 2.15 2.289c1.305 1.389 2.833 2.072 3.887 1.737 4.405-1.398 6.022-1.25 7.857.72l1.935 2.078.647-2.576c.355-1.416.352-3.051-.007-3.632-.375-.607.19-1.057 1.324-1.057 5.32 0 6.957-3.615 2.918-6.443-2.16-1.514-8.748-1.978-11.777-.831m-139.5 20.127c-11.122 6.199-11.548 6.834-9.509 14.175 1.42 5.111 9.536 12.907 11.381 10.933 2.423-2.593 3.628-8.069 3.628-16.488 0-9.64-.962-11.148-5.5-8.62m200.906 8.651c-4.001 6.105-1.653 19.139 4.13 22.927 3.515 2.304 3.519 2.291 2.478-7.795-1.497-14.512-3.704-19.565-6.608-15.132m-28.374 1.269l-2.19 1.774 2.129 8.476c3.991 15.888 7.186 21.977 11.532 21.977 2.68 0 2.494-1.42-1.333-10.189-1.126-2.579-2.524-8.12-3.107-12.313-1.569-11.278-2.878-13.088-7.031-9.725m-219.362 11.17c-3.398 3.762-4.743 7.06-6.204 15.222-1.273 7.105 8.537 9.398 22.034 5.15 7.935-2.498 8.028-3.864.939-13.857-8.663-12.211-10.854-13.062-16.769-6.515m162.212 4.172c-.066.762-.042 1.794.052 2.293.095.5-.329 1.218-.942 1.597-1.954 1.208-1.305 11.995.722 11.995.707 0 1.286.45 1.286 1s.346.888.77.75c.423-.138 2.106.987 3.74 2.5 4.061 3.76 4.576 3.629 14.375-3.65 4.738-3.52 11.208-7.666 14.377-9.214 3.169-1.548 5.607-3.28 5.418-3.85-.917-2.763-39.571-6.085-39.798-3.421m-199.033 5.902c-6.412 3.388-13.712 11.053-14.409 15.13l-.624 3.648 5.141 1.102c7.219 1.549 8.476 1.424 14.027-1.389 5.384-2.728 6.999-5.968 7.01-14.058.01-6.691-3.916-8.252-11.145-4.433m209.793 58.674c-.371.371-5.504.555-11.408.408-5.904-.147-10.504-.037-10.223.245.823.824 43.269 2.758 71.989 3.281 14.575.265 29.795.908 33.822 1.428 10.586 1.369 16.178 1.231 16.178-.399 0-1.629-13.409-2.321-63.5-3.275-18.7-.357-34.491-1.034-35.092-1.505-.601-.471-1.395-.553-1.766-.183M176.5 643.556c-23.1.691-46.05 1.358-51 1.482l-9 .225 6.54.765c3.597.422 16.422 1.273 28.5 1.892s24.724 1.381 28.101 1.693c25.956 2.396 68.287.384 88.459-4.204 3.816-.868 9.967-1.931 13.669-2.362 10.637-1.239-57.955-.908-105.269.509" fill="#d3d3d3" fill-rule="evenodd"/></svg>