<svg xmlns="http://www.w3.org/2000/svg" width="500" height="500"><path d="M3 1.607c0 1.018-.55 1.396-1.5 1.031C.48 2.247 0 2.692 0 4.031c0 1.325.737 2.025 2.25 2.14 1.238.094 2.925.271 3.75.394l2.5.369c.55.08-.256.827-1.792 1.66-1.563.848-3.694 1.228-4.841.864C-.137 8.822-.174 9.089.152 21.904c.334 13.095.971 15.062 3.785 11.672.926-1.116.749-2.272-.824-5.354C.817 23.721 1.645 22 6.106 22c2.296 0 2.627.341 2.181 2.25-.496 2.126-.379 2.099 2.143-.509 2.046-2.116 3.077-2.54 4.423-1.82 1.016.544 2.349.572 3.167.067 2.378-1.47-3.901-3.363-6.789-2.048-3.064 1.397-2.981 1.437-2.981-1.458 0-2.943 1.45-4.182 3.037-2.595.612.612 2.508 1.113 4.213 1.113s3.589.489 4.187 1.087c.783.783 1.275.783 1.759 0 1.186-1.919 4.019-1.147 5.21 1.421.938 2.022.891 2.492-.25 2.492-1.622 0-1.88 1.589-.406 2.5.55.34 1 1.041 1 1.559 0 1.254-3.716 1.21-4.497-.054-.338-.547-1.558-1.499-2.71-2.116-1.807-.967-2.004-.882-1.43.615.537 1.398.249 1.628-1.471 1.178-1.592-.416-3.32.568-6.765 3.856-3.186 3.04-4.097 4.423-2.927 4.439.935.013 2.149-.765 2.697-1.727.792-1.391 1.366-1.523 2.8-.641 3.76 2.313 2.107 3.898-3.928 3.767-3.152-.068-5.499.253-5.214.713.285.461-.425 1.781-1.577 2.933-1.879 1.879-1.96 2.397-.787 5.047.719 1.625 1.772 2.775 2.341 2.557 1.261-.484 5.824 3.05 4.739 3.67-.424.243-2.443.743-4.487 1.112l-3.716.67-.007 38.601c-.004 21.23.262 38.331.593 38.001C1.691 127.643 7 130.973 7 132.661c0 .885-1.012 2.585-2.25 3.778-3.221 3.104-3.327 4.744-.257 3.973 1.444-.362 4.26.072 6.641 1.025 3.946 1.579 4.214 1.567 5.923-.268 1.094-1.174 1.431-2.281.867-2.845-.564-.564.622-1.876 3.05-3.373 2.185-1.348 3.984-2.789 3.999-3.201.036-1.012 4.027-.964 4.027.049 0 .44 1.574.616 3.498.391l3.497-.408-1.408 3.359c-1.81 4.315-4.587 5.089-4.587 1.277 0-2.7-.021-2.709-2.082-.844l-2.081 1.884 2.811 2.241c3.485 2.779 2.45 4.058-3.648 4.505l-4.5.33 2.82 1.425c3.473 1.756 7.323 9.007 5.431 10.231-.974.631-.925 1.02.223 1.757.94.605 1.696.587 2.088-.047.369-.597 1.128-.375 1.899.553 1.324 1.595 7.039 2.186 7.039.727 0-1.569 5.689-7.18 7.28-7.18 2.931 0 2.736 1.751-.336 3.023l-3.031 1.256 2.218 2.36L48.349 161h-3.525c-1.939 0-4.952.497-6.696 1.105-2.377.829-3.529.808-4.605-.086-.79-.655-1.905-.901-2.479-.546-.574.355-1.607.294-2.294-.136-2.013-1.257-3.872-1.575-10.581-1.81-4.179-.146-6.987-.783-8.262-1.874-2.24-1.919-4.574-2.151-5.121-.51-.284.852-.943.843-2.584-.035C.001 155.93 0 155.933 0 165.93c0 9.686.094 10.108 3 13.417 1.65 1.879 3 4.156 3 5.06 0 1.026-1.127 1.868-3 2.243-2.714.543-3 .969-3 4.475C0 193.256.45 195 1 195s1-.723 1-1.607c0-1.005.552-1.395 1.474-1.042.81.311 1.823-.012 2.25-.718 1.125-1.861 4.068-2.723 6.882-2.017 1.821.457 2.181.935 1.409 1.866-.738.889-.624 1.598.392 2.441 1.134.941 1.63.832 2.388-.522.583-1.04 1.593-1.466 2.581-1.087 1.766.678 2.246 3.608.624 3.811-.55.069-1.466.181-2.036.25-1.424.172-2.957 2.827-2.273 3.934.308.498-.337.621-1.432.273-1.697-.539-1.92-.261-1.51 1.883.397 2.078.895 2.411 2.866 1.917 1.773-.445 2.385-.186 2.385 1.01 0 .884.45 1.608 1 1.608s1.326.113 1.724.25c.399.137.851-1.304 1.005-3.204.355-4.383 1.736-5.881 4.049-4.391 1.936 1.248 1.762 4.038-.402 6.461-1.172 1.313-1.242 2.521-.368 6.42.592 2.641.846 5.401.566 6.133-.734 1.912-3.518 1.641-4.307-.419-.715-1.869-4.235-5.162-5.576-5.217-.445-.018-.531.417-.191.967s-.196 1.036-1.191 1.079c-1.049.046-1.284.291-.559.583.687.278 1.25.877 1.25 1.333 0 1.073-1.91.733-4.797-.853-2.582-1.419-7.151 1.751-7.186 4.986-.009.895-.692 2.187-1.517 2.872-1.674 1.39-2.059 6-.5 6 .55 0 1.004-.338 1.008-.75.004-.412 1.127-1.269 2.495-1.903 2.368-1.099 2.456-1.027 1.854 1.5C5.505 232.42 4.132 234 1.878 234 .065 234 0 235.793 0 285.8c0 39.542.29 52.09 1.225 53.025.967.967.967 1.639 0 3.186C.286 343.516 0 362.16 0 421.984v78.012l212.5-.001c116.875 0 212.5-.29 212.5-.645 0-.354-.954-3.262-2.121-6.461-2.298-6.302-1.996-10.061.633-7.879.818.679 1.498 2.192 1.51 3.362.04 3.899 3.712 10.524 6.163 11.122 1.273.31 17.39.439 35.815.285l33.5-.279V.5L469.25.271C440.785.063 438 .19 438 1.693c0 5.466-6.658 5.925-11.979.827L423.391 0h-30.137C374.242 0 362.89.369 362.5 1c-.802 1.298-6.198 1.298-7 0-.849-1.374-5.245-1.264-5.714.143-.285.853-.918.857-2.489.016-3.321-1.778-51.935-1.544-52.625.253-.381.994.341 1.329 2.652 1.227 2.726-.119 3.219.232 3.48 2.482.175 1.507 1.238 3.073 2.5 3.683l2.196 1.061-2.264.067c-1.245.038-3.045-.329-4-.815-.955-.486-3.086-1.441-4.736-2.122-1.65-.681-4.194-1.859-5.654-2.617-3.821-1.983-5.533-1.807-3.619.372 2.647 3.015 3.367 6.695 1.138 5.821-1.026-.403-5.161-1.312-9.19-2.02-7.311-1.286-7.326-1.284-8.225 1.08-1.596 4.199-6.199 1.715-5.278-2.849.61-3.022 3.702-4.546 5.759-2.839 1.006.834 1.48.731 1.921-.417.322-.84 1.274-1.526 2.117-1.526.842 0 1.531-.45 1.531-1 0-1.368-57.655-1.368-58.5 0-.806 1.304-8.5 1.304-8.5 0 0-1.759-18.68-1.276-19.362.5-.693 1.808-3.308 1.989-3.881.27-.305-.914-1.476-.749-4.556.64-2.281 1.028-3.904 2.262-3.607 2.741.296.48-.841 1.148-2.528 1.486C172.248 7 171 7.873 171 8.78c0 1.32-.255 1.299-1.855-.149-1.075-.973-2.568-1.406-3.548-1.03-2.047.786-4.519-2.112-4.565-5.351C161.001.039 160.785 0 148.559 0c-8.017 0-12.684.394-13.125 1.107-.476.77.268.898 2.441.42 2.158-.473 3.125-.311 3.125.525 0 .868 1.204 1.013 4.25.512 8.652-1.424 12.589-1.462 13.693-.132C160.415 4.205 159.214 7 156.98 7c-1.592 0-1.672.356-.674 3 .623 1.65 1.484 3 1.913 3 1.648 0 .678 4.481-1.463 6.759-2.082 2.217-2.118 2.459-.5 3.365 2.015 1.127 2.308 4.912.519 6.701-.673.673-1.461 3.564-1.75 6.424-.389 3.857-1.042 5.465-2.525 6.226-1.431.733-1.908 1.824-1.678 3.835.177 1.546-.134 3.361-.693 4.034-.563.678-.649 1.814-.194 2.55 1.26 2.04.049 5.106-2.016 5.106-2.113 0-4.334 3.476-3.542 5.541.742 1.932-4.229 5.641-6.566 4.899-1.032-.327-2.998-1.636-4.371-2.908-1.372-1.271-3.832-2.866-5.467-3.543-1.635-.678-2.973-1.577-2.973-1.999 0-.422-1.575-1.063-3.5-1.424s-3.5-1.134-3.5-1.718c0-.584-.675-.803-1.5-.486-.825.316-1.5.139-1.5-.393 0-2.309-2.105-.696-2.65 2.031-.697 3.485-1.838 3.825-3.35 1-.748-1.397-2.039-1.976-4.285-1.919l-3.215.081 2.696 1.197c3.773 1.675 2.108 4.074-2.733 3.937-4.329-.123-6.739-1.889-4.481-3.285 1.236-.764 1.117-1.277-.758-3.273-4.316-4.594-1.017-6.723 4.136-2.669 2.986 2.348 6.054 1.894 7.676-1.137 1.392-2.599 2.831-2.434 6.106.704l2.752 2.636.661-2.636c.364-1.45 1.063-2.636 1.553-2.636.491 0 .892-.372.892-.827 0-.455-1.297-.636-2.882-.404-3.736.549-4.581-.972-2.633-4.74 1.689-3.267 3.253-3.877 4.123-1.608.449 1.17 1.151 1.064 3.967-.598 1.882-1.11 3.153-2.454 2.824-2.986-.35-.567-1.314-.319-2.327.598-2.39 2.163-3.072 1.966-3.072-.885 0-1.348.784-2.889 1.742-3.425 2.635-1.475.775-2.476-2.429-1.308-1.547.564-2.25 1.061-1.563 1.104 1.766.112 1.559 4.023-.25 4.717-.825.317-2.236.293-3.136-.052-1.499-.575-1.491-.788.098-2.544 3.531-3.901.088-5.156-5.675-2.068l-3.683 1.974-2.052-2.609c-1.129-1.435-2.052-3.421-2.052-4.415 0-2.404-1.857-3.46-2.614-1.487-.782 2.036-2.874 1.979-6.529-.18-2.657-1.57-2.889-2.11-2.329-5.422.881-5.214-1.799-9.231-5.646-8.461-3.574.714-4.955-2.531-2.317-5.446C83.256 7.059 83.204 7 79.877 7c-3.465 0-6.854-2.569-6.155-4.665.455-1.366-4.41-2.339-11.597-2.32C56.904.028 56.679.122 59 1.319c1.375.709 2.635.973 2.8.586.483-1.133 6.049 2.041 7.692 4.387C71.397 9.011 71.399 10 69.5 10c-.825 0-1.5.45-1.5 1s.417 1 .927 1c.509 0 1.097.787 1.306 1.75.294 1.357.872.964 2.57-1.75 1.204-1.925 2.226-3.275 2.27-3 .044.275.256 1.4.471 2.5.616 3.155-.505 5.5-2.63 5.5-1.613 0-1.836.461-1.287 2.651.656 2.614.608 2.642-3.42 1.998-2.389-.382-4.344-.237-4.706.349C62.273 23.986 60 23.013 60 20.5c0-1.375-.434-2.5-.965-2.5-1.868 0-3.275-4.006-1.962-5.588 1.647-1.984.428-2.912-3.823-2.912-1.959 0-3.754-.562-3.989-1.25-.288-.842.705-1.25 3.042-1.25 3.092 0 3.518-.327 3.911-3.006.541-3.685.25-4.002-3.631-3.962C48.344.076 46 2.119 46 5.772c0 4.819-3.27 3.617-4.392-1.614L40.716 0H21.858C5.204 0 3 .188 3 1.607m408.699 5.027c-.348.349-1.795.761-3.214.917-5.963.655-7.581 5.701-2.235 6.971 1.788.425 4.261.84 5.496.922 1.236.082 2.788.69 3.45 1.352 1.672 1.672 3.804 1.506 3.804-.296 0-.825.585-1.5 1.3-1.5.715 0 1.819-.519 2.453-1.153 1.633-1.633-.381-5.204-2.481-4.398-.915.351-2.364-.244-3.462-1.422-1.89-2.029-3.921-2.583-5.111-1.393m30.801 5.599c-1.1.645-2.878 1.194-3.951 1.22-1.16.028-2.173.946-2.5 2.267-.417 1.687-.909 1.991-2.049 1.265-4.233-2.694-11.821.29-12.115 4.765-.331 5.03 1.841 9.25 4.762 9.25.735 0 1.898.9 2.585 2 1.467 2.348 3.768 2.654 3.768.5 0-.825.745-1.5 1.656-1.5.91 0 3.13-1.125 4.933-2.5 3.959-3.019 5.831-3.215 5.131-.537-.283 1.08.11 2.481.871 3.113 1.914 1.588 3.038-1.457 1.623-4.393-2.215-4.596-2.292-8.618-.19-9.93 2.912-1.818 2.71-6.763-.274-6.723-1.238.017-3.15.558-4.25 1.203M29.75 30.303C27.688 30.88 26 31.9 26 32.569c0 1.858-3.062 2.624-4.789 1.198-1.2-.99-1.626-.999-1.949-.042-.653 1.942-.358 2.774.988 2.786.822.007 1.145 1.23.942 3.57-.269 3.115.257 4.079 4.228 7.739 5.014 4.622 4.657 4.507 13.08 4.201 7.644-.278 8.667-1.113 7.831-6.388-.687-4.324-2.778-7.933-7.755-13.383-3.201-3.505-3.236-3.513-8.826-1.947M82.29 40c-.341 1.304-1.364 2-2.939 2-1.57 0-2.732.787-3.32 2.25-.853 2.123-.908 2.134-.968.2C74.932 40.2 70 38.922 70 43.138c0 1.059-.675 2.184-1.5 2.5-1.95.749-1.932 3.259.029 4.012 1.33.51 1.304.752-.201 1.852-2.269 1.659-2.119 7.966.251 10.586 1.265 1.397 1.465 2.268.699 3.034-.766.766-1.465.257-2.436-1.774-1.538-3.218-5.502-4.397-6.453-1.918-.332.863-1.455 1.57-2.496 1.57S56 63.45 56 64s.627 1 1.393 1 1.653.678 1.972 1.508c.383.998 1.673 1.42 3.818 1.25 2.403-.191 3.332.191 3.599 1.481.298 1.435-.152 1.637-2.567 1.154-3.876-.775-5.189 2.078-2.289 4.977 1.924 1.924 2.081 1.933 3.967.227 1.295-1.172 2.694-1.545 4.109-1.096 2.367.751 4.91-1.682 4.966-4.751.034-1.864 1.695-2.25 3.836-.892 1 .634.723 1.387-1.187 3.225-2.346 2.259-2.394 2.506-.817 4.248 1.571 1.736 1.552 1.939-.308 3.299-1.71 1.25-1.777 1.588-.487 2.463 1.236.839 1.163.962-.423.711-1.166-.185-1.982-1.185-2.082-2.554-.23-3.129-.565-3.264-4.25-1.714C63.938 80.771 66.576 87 72.833 87c1.474 0 2.028.93 2.456 4.121.567 4.223 2.131 6.792 3.378 5.546.385-.385.197-1.203-.418-1.818-.825-.825-.706-1.749.452-3.515.863-1.318 1.287-2.68.941-3.026-.346-.346.268-1.257 1.364-2.025C83.295 84.68 83.671 82 81.607 82 80.162 82 79 79.926 79 77.347c0-1.285.216-1.274 1.571.082 2.424 2.423 4.293 1.881 5.791-1.679 1.156-2.748 1.156-3.494 0-4.831-.751-.87-1.035-1.913-.629-2.319.405-.405-.381-1.603-1.748-2.661-2.106-1.631-2.256-2.076-.985-2.916 2.264-1.498 2.936-1.257 4.194 1.503 1.232 2.704 2.567 2.801 4.144.3 1.375-2.181.111-4.826-2.307-4.826C87.892 60 87 59.341 87 58.5c0-.825.499-1.388 1.109-1.25 1.596.36 4.189-7.352 2.904-8.637-.684-.684-1.013-.664-1.013.059 0 .59-1.912 1.378-4.25 1.751s-5.29 1.359-6.561 2.191c-3.42 2.238-4.215 1.326-2.281-2.614 1.037-2.113 2.287-3.342 3.155-3.101 5.207 1.447 6.448 1.191 7.709-1.589 1.075-2.369 1.037-2.977-.25-3.917C86.685 40.78 86 39.767 86 39.14c0-1.97-3.162-1.237-3.71.86m368.961-.598c-1.119 1.807-1.146 10.003-.037 11.348.567.688 2.299 1.25 3.849 1.25 1.551 0 3.099.453 3.441 1.007.343.554 1.914 1.675 3.491 2.49 2.796 1.447 2.907 1.405 4.437-1.66 2.11-4.23 1.993-4.837-.932-4.837-2.868 0-3.105-.818-1.032-3.559 2.017-2.667 1.915-3.144-1.097-5.118-2.991-1.959-11.096-2.576-12.12-.921m-46.721 8.397c-.389.385-1.365 2.275-2.171 4.199-1.387 3.313-1.345 3.595.785 5.32 2.111 1.709 1.45 3.601-1.281 3.667-.746.018-1.978 5.627-1.87 8.515.301 8.015.581 9.029 2.761 9.987 1.235.543 2.246 1.5 2.246 2.128 0 2.574 2.813 3.602 3.965 1.45.608-1.136 1.716-2.065 2.463-2.065.747 0 1.594-.615 1.883-1.367.288-.752 2.602-2.214 5.142-3.25 3.981-1.623 4.54-2.199 4.054-4.172-.469-1.9.036-2.54 2.964-3.763 4.588-1.917 4.921-6.58.829-11.621-1.485-1.83-2.774-3.454-2.864-3.608-.091-.155-1.074-.457-2.184-.67-1.11-.214-3.758-1.26-5.885-2.325-4.483-2.244-9.818-3.438-10.837-2.425M92.25 79.706c-1.237.238-2.25 1.093-2.25 1.899C90 83.834 86.956 88 85.326 88c-.794 0-1.166.45-.826 1 .34.55 1.604 1.014 2.809 1.032 1.205.017 3.065.692 4.132 1.5 2.511 1.899 6.97 1.882 8.559-.032.685-.825 2.09-1.5 3.122-1.5 2.134 0 2.249-.333.951-2.764-.51-.955-1.171-2.523-1.469-3.486-.32-1.037-1.53-1.75-2.966-1.75-1.333 0-2.683-.675-3-1.5-.316-.825-.927-1.439-1.357-1.364-.429.075-1.794.331-3.031.57m303.723 4.044c-1.471 1.041-4.296 1.75-6.973 1.75h-4.5v4.578c0 2.519-.563 5.265-1.251 6.104-1.028 1.254-.851 1.978 1 4.075a137.788 137.788 0 014.251 5.1c2.284 2.913 4.162 3.213 6.941 1.111 1.068-.807 2.902-1.468 4.076-1.468 2.834 0 6.928-4.398 6.101-6.553-.36-.939-1.268-1.412-2.099-1.093-.844.324-2.121-.373-3.014-1.646-1.453-2.071-1.408-2.243.723-2.777 2.297-.576 2.379-1.031 1.154-6.431-1.063-4.687-2.688-5.384-6.409-2.75m33.413 2.688c-.333.867.114 2.676.993 4.018.981 1.496 1.216 2.676.61 3.051-.544.336-.989 1.694-.989 3.017 0 3.221-3.606 5.292-4.471 2.568-.333-1.049-1.376-2.208-2.317-2.577-1.48-.578-1.325-.98 1.142-2.963 3.656-2.937 2.31-6.88-2.171-6.362-2.44.282-2.67.673-2.543 4.31.137 3.914-.829 5.454-3.44 5.485-.897.01-1.023-.479-.407-1.58 1.353-2.418.251-6.405-1.771-6.405-1.322 0-1.629.606-1.267 2.5.394 2.06.087 2.5-1.745 2.5-1.643 0-2.061.425-1.6 1.627.356.928-.035 2.11-.909 2.75-.844.618-1.717 2.57-1.94 4.338-.43 3.404-3.456 9.285-4.777 9.285-1.308 0-.885 1.654 1.027 4.015 1.618 1.998 2.046 2.091 4 .871 1.204-.752 2.189-2.159 2.189-3.127 0-2.225 2.771-2.276 5.181-.095 1.585 1.434 2.182 1.48 4.329.331 2.537-1.358 3.514-3.308 1.24-2.474-1.376.504-4.492-1.112-3.69-1.914.276-.277 3.526.015 7.221.648 6.746 1.156 8.878 3.287 5.448 5.445-1.891 1.191-4.793 11.142-3.485 11.951.583.36 1.6-.085 2.26-.988 1.989-2.72 10.726.355 13.426 4.724 1.563 2.53 2.991 3.504 5.821 3.971 6.196 1.025 6.695.818 9.234-3.831l2.444-4.473 2.178 2.046c2.619 2.461 3.605.907 2.136-3.368-.523-1.522-.682-3.841-.352-5.152 1.07-4.265-4.064-13.273-9.589-16.824-1.484-.953-3.428-3.273-4.321-5.154-2.288-4.822-4.386-6.406-8.977-6.778-3.562-.289-4.05-.649-4.506-3.324-.579-3.4-4.541-4.855-5.612-2.062m-131.596.691c-.193.581-2.023 1.104-4.066 1.162-2.641.075-3.88.626-4.287 1.907-.314.991-1.272 1.802-2.127 1.802-1.253 0-1.319-.285-.338-1.466 2.095-2.524.652-4.158-1.644-1.862-1.126 1.126-4.114 3.08-6.64 4.341-5.24 2.617-6.799 4.939-3.407 5.077 1.734.071 1.537.288-.899.995-3.373.978-4.194 3.33-4.507 12.915-.165 5.044-.47 3.667-1.417-6.395l-.648-6.896-3.244 3.646c-3.642 4.094-5.232 4.757-3.458 1.443.878-1.641.887-2.3.035-2.584-1.629-.543-1.417-2.214.28-2.214 1.215 0 1.204-.439-.073-3-1.746-3.5-1.684-3.483-4.885-1.385-2.302 1.508-2.465 1.497-2.465-.167 0-1.734-1.375-1.196-1.625.635-.069.504-.181 1.367-.25 1.917s-.605 1-1.192 1c-.634 0-.793-.864-.393-2.125.454-1.43.312-1.902-.433-1.441C249.498 94.81 249 95.965 249 97s-.431 2.148-.957 2.474c-.527.325-1.712 3.28-2.634 6.567-1.4 4.989-1.87 5.711-2.846 4.377-1.048-1.435-1.299-1.441-2.443-.063-.885 1.067-1.94 1.291-3.447.734-1.195-.441-2.678-.623-3.296-.405-.617.219-1.366-.534-1.664-1.672-.297-1.138-.917-2.003-1.377-1.922-2.191.385-3.336-.242-3.336-1.83 0-1.36-.592-1.101-2.719 1.192l-2.718 2.932-.682-2.442c-.6-2.149-.694-2.191-.781-.353-.055 1.15-1.91 3.764-4.122 5.811-3.659 3.385-4.883 7.426-1.365 4.506 2.085-1.731 2.551-.675 1.294 2.931-.688 1.974-2.305 3.733-4.305 4.682-1.937.919-3.857 2.962-4.857 5.169-1.806 3.984-1.387 6.089.844 4.238.776-.644 1.397-.778 1.379-.298-.062 1.697-3.022 4.795-5.727 5.994-1.508.669-2.178 1.252-1.491 1.297 1.943.126 1.476 2.077-.971 4.059-2.049 1.659-2.319 1.671-3.469.16-.685-.901-1.261-1.15-1.278-.555-.018.596.306 1.421.718 1.834.412.412.75 1.237.75 1.833 0 .596.634 1.295 1.409 1.553.969.323 1.214-.041.782-1.167-.795-2.072 1.873-2.214 3.88-.207 1.886 1.886 1.803 2.564-.321 2.603-1.589.029-1.573.166.177 1.489 1.06.802 1.625 1.76 1.256 2.129s-1.573-.146-2.677-1.144c-1.949-1.764-2.006-1.755-2.006.339 0 2.048 1.14 2.599 4.947 2.391 2.806-.154 4.086 3.053 1.845 4.622-1.575 1.103-2.175 1.14-2.776.168-.52-.842-.977-.898-1.424-.175-.362.585.722 1.777 2.408 2.649 1.686.872 2.818 1.985 2.516 2.473-.302.489-.1 1.166.447 1.504 1.736 1.073-1.063 4.292-3.37 3.877-1.151-.207-1.576-.124-.944.184 1.469.718-.715 5.331-3.811 8.05-1.95 1.712-2.11 1.729-1.539.162.424-1.162.145-1.75-.83-1.75-1.673 0-1.968-1.574-.469-2.5.55-.34 1-1.068 1-1.618s-.45-.722-1-.382c-1.701 1.051-1.103-.761.985-2.984 2.656-2.827 3.835-8.516 1.765-8.516-.886 0-1.761-1.304-2.137-3.187-.661-3.303-2.018-2.982-2.9.687-.306 1.273-.523.798-.597-1.309-.068-1.928-.533-3.051-1.116-2.691-.55.34-1-.084-1-.941s-.351-1.559-.781-1.559c-1.138 0-3.39 6.443-2.371 6.783.474.158.636 1.463.362 2.901-.344 1.8-.144 2.393.645 1.906.63-.39 1.145-.524 1.145-.298 0 1.259-2.458 7.429-3.469 8.708-.652.825-1.755 3.492-2.451 5.926-1.188 4.153-1.13 4.528.94 6.089 1.228.926 3.265 1.462 4.593 1.208 1.72-.329 2.387-.004 2.387 1.16 0 1.909-1.612 2.161-2.342.367-.28-.687-.445-.012-.366 1.5.079 1.512.466 2.75.86 2.75.393 0 .858 1.234 1.032 2.741.349 3.031 3.488 4.368 4.946 2.107.72-1.115 1.033-1.094 1.816.123.52.809 1.307 1.085 1.75.613.442-.472.21-1.069-.517-1.328-.84-.299-.322-.988 1.423-1.893 2.94-1.526 5.585.144 3.095 1.955-.819.596-.694.712.398.367.877-.277 2.196.332 2.932 1.352.735 1.021 1.665 1.654 2.065 1.406 1.692-1.046 3.985.759 2.791 2.198-1.466 1.766-.272 3.148 1.334 1.542 1.675-1.675 4.783-1.469 4.783.317 0 .825.45 1.5 1 1.5s1-.399 1-.887c0-1.256 6.272-2.061 7.623-.979 1.333 1.069 4.377.099 4.377-1.394 0-.575.866-.048 1.924 1.173 1.059 1.22 2.184 2.189 2.5 2.153 1.811-.207 1.885.142.287 1.355-2.007 1.522-1.928 7.762.124 9.814.641.641 1.165 1.736 1.165 2.434 0 .776.679 1.029 1.75.652 1.429-.502 1.52-.368.5.732-1.613 1.739-1.593 2.947.051 2.947 1.839 0 6.682 2.352 6.691 3.25.004.412-.948.75-2.117.75-1.847 0-2.043.409-1.5 3.125.344 1.719.625 4.419.625 6 0 1.581.45 2.875 1 2.875s1-.873 1-1.941c0-4.315 3.901-2.389 5.449 2.691.555 1.821.298 2.25-1.35 2.25-1.399 0-1.856.469-1.461 1.5.317.825.13 1.5-.414 1.5-.545 0-1.226.9-1.514 2-.63 2.41-.091 2.524 2.007.426 1.806-1.806 3.61-.133 2.774 2.574-.342 1.107.45 1.565 3.023 1.749 2.755.197 3.486-.119 3.486-1.509 0-.967.9-2.321 2-3.008 2.403-1.501 2.57-.491.425 2.571-.955 1.365-1.462 3.806-1.288 6.211.157 2.18-.259 4.508-.925 5.174-1.465 1.465-1.616 3.18-.204 2.307 1.455-.899 3.972 1.97 4.108 4.684.085 1.694.24 1.848.573.571.546-2.087 2.311-2.349 2.311-.344 0 .914.7 1.224 2 .884 1.434-.375 2-.031 2 1.216 0 1.384-.288 1.5-1.411.568-1.029-.854-1.597-.869-2.1-.056-1.014 1.64.273 2.479 3.836 2.503 2.185.015 3.258.553 3.489 1.75.193 1.003-.282 1.729-1.132 1.729-1.455 0-3.281 4.735-2.231 5.785.302.301.549.023.549-.618 0-.642.675-1.167 1.5-1.167 2.359 0 1.753 1.927-1 3.182-2.652 1.208-3.584 4.171-1 3.18.825-.317 1.5-.978 1.5-1.469 0-.491.9-.893 2-.893s2 .536 2 1.191.661.318 1.468-.75c.808-1.067 1.516-1.716 1.575-1.441.908 4.28.774 5.432-.779 6.704-1.65 1.351-1.626 1.415.375.993 1.177-.249 2.752-.064 3.5.41.999.633 1.028.866.111.878-.687.008-1.25.492-1.25 1.074 0 .582.47.769 1.044.414.574-.355 1.699-.101 2.5.563.842.699 1.456.785 1.456.203 0-2.219 3.996-2.118 4.126.105.07 1.186.185 3.056.257 4.156.211 3.252 2.492 6.485 4.132 5.856.817-.314 1.485-.045 1.485.596s.45.888 1 .548c.55-.34 1 .084 1 .941s-.337 1.447-.75 1.309c-.797-.266-1.25.572-1.25 2.309 0 .582.422.798.939.479.516-.319 1.402.217 1.969 1.191.567.974 1.045 1.209 1.062.521.016-.687.768-1.25 1.67-1.25.902 0 2.191-.754 2.865-1.676 1.546-2.114 5.495-2.509 5.495-.55 0 .869.595 1.212 1.5.864.825-.316 1.5-.07 1.5.548 0 .632.812.389 1.855-.555 1.021-.924 2.538-1.418 3.371-1.098.85.326 1.765-.068 2.083-.896.312-.813 1.383-1.347 2.379-1.187 3.16.507 5.092-1.151 4.564-3.915-.688-3.595 1.611-3.228 2.897.464.575 1.649 1.384 2.79 1.798 2.534.708-.438 2.297 2.117 3.401 5.467.305.925.524.637.573-.75.053-1.513.699-2.25 1.972-2.25 1.041 0 2.131-.619 2.421-1.376.936-2.438 7.686.33 7.686 3.152 0 3.031 2.592 3.903 5.034 1.693 1.353-1.225 1.654-2.14.971-2.963-1.502-1.81-.195-2.408 2.493-1.139 2.865 1.352 3.806 4.173 2.232 6.693-1.688 2.704 4.192 8.249 7.792 7.345 1.408-.353 3.135-.104 3.947.569 1.642 1.363 3.531.579 3.531-1.466 0-.755.926-1.667 2.058-2.027 4.003-1.27 2.068-4.964-2.666-5.09-4.992-.133-10.392-3.11-10.392-5.729 0-1.574.259-1.692 1.487-.673 1.816 1.507 4.513.636 4.513-1.458 0-2.317 1.568-1.839 3.466 1.057 1.318 2.011 2.237 2.452 4.122 1.979 1.334-.335 2.369-.262 2.301.162-.299 1.836.282 2.082 3.042 1.291 4.263-1.223 7.506 1.156 4.569 3.351-1.524 1.139-1.723 1.775-.837 2.675 1.372 1.392 3.337.447 3.337-1.605 0-.793.337-1.448.75-1.457.413-.009 2.273-1.359 4.136-3 1.862-1.641 3.978-2.984 4.703-2.984.724 0 2.065-1.575 2.978-3.5.913-1.925 2.285-3.5 3.047-3.5.817 0 1.386-1.041 1.386-2.535 0-1.395.624-3.532 1.388-4.75 2.588-4.131 2.851-9.141.628-11.967-1.109-1.41-2.016-3.039-2.016-3.62s-1.48-2.085-3.289-3.342c-1.808-1.257-3.147-2.961-2.974-3.786.254-1.214-1.144-1.545-7.341-1.737l-7.653-.236.551 3.397c.502 3.095.269 3.508-2.621 4.643-3.698 1.451-10.673 7.749-10.673 9.636 0 2.504-1.871 1.267-2.184-1.444-.411-3.563-3.487-4.265-4.743-1.083-.73 1.849-.476 2.703 1.244 4.178l2.161 1.853-2.989 2.387-2.989 2.386-.783-3.723c-1.147-5.457-1.776-5.703-9.643-3.775-6.087 1.492-7.074 2.039-7.074 3.926 0 3.185-1.916 4.819-3.636 3.099-.75-.75-1.364-2.071-1.364-2.936a1.57 1.57 0 00-1.559-1.571c-.857 0-1.281.45-.941 1 .34.55-.035 1-.834 1-.799 0-1.711-.675-2.028-1.5-.35-.914-.001-1.5.893-1.5.808 0 1.469-.73 1.469-1.622 0-1.249.311-1.365 1.349-.503 1.807 1.499 4.449-5.173 3.69-9.318-.71-3.877-2.515-3.383-2.627.719-.166 6.111-.386 6.724-2.412 6.724-1.1 0-2-.392-2-.871 0-.48-2.93-.777-6.511-.661-6.483.21-9.473-1.067-8.016-3.424.355-.574.184-1.044-.379-1.044s-1.525.937-2.138 2.083c-.989 1.847-1.304 1.918-2.786.63-.918-.798-2.232-1.248-2.92-.999-.687.249-1.25-.26-1.25-1.131 0-1.052-.903-1.583-2.691-1.583-2.502 0-2.562-.095-.849-1.347 1.277-.934 1.489-1.566.691-2.059-.633-.392-1.137-1.248-1.119-1.903.017-.655.692-.317 1.5.75 1.365 1.805 1.98 1.421 1.503-.941-.111-.55.133-.665.542-.256.409.409 1.359-.135 2.111-1.208 1.546-2.207 4.295-1.688 4.344.821.028 1.48.162 1.471 1.349-.091.724-.954 1.682-1.404 2.128-1 .446.403.451.111.009-.65-.632-1.092-.126-1.285 2.393-.916 2.306.339 3.445.003 4.092-1.206.919-1.717 6.333-2.162 8.657-.712 1.587.991 4.34-.191 4.34-1.863 0-3.553-5.704-4.658-20.908-4.049-8.025.322-18.477.566-23.225.543-6.868-.034-9.421.38-12.485 2.022-4.535 2.431-5.798 2.59-5.048.638.301-.785-.092-1.957-.872-2.605-1.12-.929-1.177-1.632-.272-3.323.631-1.18 1.076-2.365.988-2.634-.089-.27.398-.539 1.081-.598 3.294-.287 3.741-.519 3.741-1.934 0-2.191 4.703-4.142 6.824-2.832 1.738 1.073 4.056 1.019 7.941-.186 1.891-.586 2.152-.407 1.58 1.083-.446 1.163-.306 1.55.404 1.111.6-.37 1.769.006 2.599.836 2.078 2.078 2.985 1.889 2.362-.491-.287-1.1-.123-2 .365-2s1.16 1.086 1.493 2.414c.572 2.279 1.014 2.413 7.875 2.387 3.999-.016 9.697.224 12.664.533 2.966.309 4.605.327 3.643.04-.962-.286-1.75-1.163-1.75-1.947 0-.785-.482-1.427-1.071-1.427-.59 0-1.776-.704-2.636-1.564-1.106-1.106-1.876-1.253-2.629-.5-2.122 2.122-4.142 1.249-2.164-.936.995-1.1 1.403-2.029.905-2.063-.498-.035.22-.538 1.595-1.118l2.5-1.054-3.296-1.404c-1.812-.772-3.019-1.852-2.681-2.399.339-.547.986-.765 1.44-.485.453.28.76-.617.681-1.994-.094-1.628-.606-2.326-1.465-1.997-3.807 1.458-16.179-7.874-16.179-12.204 0-1.64 4.226-.258 6.257 2.046 2.326 2.64 6.059 2.759 19.243.614 10.804-1.758 11.049-1.755 13.751.165 2.797 1.987 8.491 2.788 10.592 1.49.636-.393 1.157-.265 1.157.285s-.45 1.278-1 1.618c-1.582.978-1.163 2.5.511 1.857 1.082-.415 1.336-.121.893 1.032-1.004 2.617 2.393 1.933 5.144-1.035 2.133-2.302 2.452-3.587 2.452-9.885 0-6.593.22-7.383 2.468-8.856 2.994-1.962 2.381-4.375-1.22-4.805-2.198-.262-2.917-1.274-4.823-6.791-2.548-7.372-4.033-8.681-10.597-9.336-2.569-.256-5.164-.771-5.766-1.143-1.5-.927-.327-2.577 1.369-1.926.752.288 1.641.08 1.977-.462.335-.543-.766-1.289-2.447-1.659-2.504-.549-2.843-.929-1.874-2.095 1.556-1.875 1.984-8.634.512-8.082-6.323 2.369-7.347 1.37-7.707-7.518-.205-5.071.094-5.943 3.442-10.028 2.016-2.461 3.666-4.99 3.666-5.621 0-.631.45-1.147 1-1.147s1 .505 1 1.122c0 .77.477.727 1.518-.137 1.534-1.273 7.884-2.95 12.482-3.297 7.058-.531-3.689-18.688-11.062-18.688-1.616 0-2.938-.45-2.938-1s.675-1 1.5-1 1.493-.787 1.485-1.75c-.013-1.496-.157-1.532-.985-.25-.755 1.169-.973.893-.985-1.25-.008-1.513-.465-2.75-1.015-2.75-.55 0-1-.477-1-1.059s.45-.781 1-.441 1 .232 1-.24-1.687-1.462-3.75-2.2c-4.624-1.654-5.252-2.567-4.227-6.142.942-3.283-.701-5.366-3.057-3.876-1.942 1.228-3.237 1.206-2.466-.042.34-.55.156-1-.41-1-.565 0-.768-.675-.452-1.5.317-.826.03-1.5-.638-1.5s-.964-.652-.658-1.449c.33-.86-.191-1.686-1.285-2.033-1.013-.321-2.163-1.582-2.557-2.801-.673-2.082-.762-2.034-1.451.783-.653 2.666-.819 2.777-1.488 1-1.416-3.76-1.448-4.371-.255-4.873 2.028-.852-2.082-3.413-5.085-3.169-4.346.353-6.221 1.585-6.221 4.09 0 1.284-.52 2.655-1.156 3.048-.831.514-.989-.312-.563-2.939.76-4.683-2.206-6.94-5.364-4.082-1.054.954-1.917 1.242-1.917.639s.45-1.374 1-1.714c.55-.34 1-1.068 1-1.618s-.45-.722-1-.382c-.856.529-1.371-.579-1.185-2.551.111-1.177-3.669-2.887-4.025-1.82M65.643 107.5c-.825.825-1.94 1.5-2.478 1.5-.538 0-.742.9-.455 2 .288 1.1.921 2 1.407 2 .485 0 .883.907.883 2.016 0 2.336-5.84 2.564-6.723.262-.633-1.648-3.416-1.673-3.202-.028.414 3.194-.041 4.023-1.531 2.786-2.194-1.821-3.204-.566-2.741 3.403.477 4.081 2.235 4.591 4.523 1.311 1.317-1.889 1.578-1.969 1.622-.5.067 2.249 1.872 2.239 3.935-.023 4.447-4.876 10.117-4.692 10.117.328 0 1.432.76 2.552 2 2.945 1.1.349 2 1.279 2 2.067 0 1.953 3.637 1.822 4.396-.157.759-1.978-.062-3.41-1.955-3.41-.793 0-1.441-.675-1.441-1.5 0-.904.926-1.5 2.331-1.5 2.549 0 4.688-3.187 4.364-6.503-.168-1.722-4.695-7.457-4.695-5.947 0 .302-.758.125-1.685-.393-1.103-.618-2.33-.549-3.555.2-1.513.924-2.061.808-2.865-.607-1.218-2.144-2.295-2.207-4.252-.25m422.855 12.504c-.339.548-2.566.996-4.95.996-4.232 0-6.834 2.087-4.443 3.565.56.346 1.429 1.711 1.932 3.032 1.035 2.723 5.898 3.391 7.822 1.073.672-.809 2.343-1.147 4.274-.864 2.933.431 3.123.287 2.533-1.92-.351-1.312-.645-2.712-.652-3.11-.026-1.338-5.867-3.823-6.516-2.772M52.362 130.5c-.317.825-.231 2.287.19 3.25.421.963.694 2.088.607 2.5-.088.412.714.75 1.782.75 3.287 0 3.382 1.985.125 2.637-1.686.337-3.066.998-3.066 1.469 0 1.14 4.617 2.255 6.44 1.555.795-.305 2.916-.133 4.712.383 3.723 1.067 5.691-.099 3.39-2.009-.848-.704-1.542-1.988-1.542-2.854 0-3.738-5.138-9.181-8.667-9.181-2.096 0-3.616.574-3.971 1.5m424.388 2.892c-2.407 1.827-2.191 4.983.559 8.18 2.59 3.012 6.137 2.75 7.178-.531.324-1.021 1.247-2.109 2.051-2.417 2.102-.807 1.801-4.372-.472-5.589-2.653-1.42-7.205-1.245-9.316.357M299.5 158.073c-2.75.972-6.462 1.803-8.25 1.847-2.306.057-3.25.554-3.25 1.712 0 1.32-.747 1.531-3.908 1.107-2.149-.288-4.286-.184-4.75.23-1.336 1.197-9.437 2.932-10.96 2.348-.76-.292-1.382-.003-1.382.643 0 .72-.775.929-2 .54s-2-.18-2 .54c0 .646-.675.915-1.5.598-.825-.316-1.5-.109-1.5.461 0 .57-.872.759-1.937.421-1.066-.338-2.855-.042-3.975.657-2.85 1.78-5.109-.313-3.36-3.113.955-1.53.879-2.001-.402-2.492-2.069-.794-3.987.873-4.581 3.983-.414 2.163-.196 2.406 1.631 1.826 1.865-.592 1.951-.48.744.975-.751.904-2.265 1.644-3.365 1.644-1.664 0-1.791.252-.755 1.5 1.046 1.26.865 1.511-1.128 1.57-2.192.065-2.22.13-.372.851 1.1.429 2.056 1.298 2.125 1.93.069.632.181 1.629.25 2.216.069.587.987.794 2.041.46 1.054-.335 2.173-.192 2.488.317.314.509 2.591 1.228 5.06 1.598 9.068 1.36 6.286 2.861-4.352 2.349-5.599-.269-10.416-.108-10.705.36-.289.467.064.877.784.912.72.035 5.013.417 9.541.85 7.695.736 12.132.198 18.518-2.244 5.727-2.19 7.893-2.646 14-2.949 4.21-.209 4.885-1.165 1.5-2.125l-2.25-.638 2.498-1.397c2.959-1.653 3.042-1.598 3.897 2.583.523 2.554 1.325 3.417 3.767 4.049 1.84.477 3.317 1.62 3.627 2.806.288 1.101.968 2.002 1.51 2.002 1.417 0 2.523-3.393 1.246-3.818-.588-.196.347-1.68 2.077-3.296 2.972-2.776 3.279-2.854 5.513-1.39 2.709 1.776 2.748 1.919 1.272 4.677-.765 1.429-.777 2.357-.04 3.094 1.238 1.238 5.171-3.004 4.473-4.824-.237-.617.264-1.7 1.114-2.405.851-.706 1.546-2.073 1.546-3.038 0-.965.675-2.315 1.5-3s1.5-2.041 1.5-3.014c0-1.074 1.028-2.027 2.618-2.426 1.44-.362 2.344-.932 2.009-1.267-.335-.335-.051-1.286.632-2.114.839-1.017.893-1.621.168-1.866-.59-.199-.876-1.707-.635-3.35.367-2.5.158-2.881-1.278-2.33-.944.362-2.041.133-2.438-.509-1.229-1.99-12.998-2.021-18.576-.051m-201.492.024c-1.371.56-2.87 1.692-3.331 2.516-.651 1.164-1.152 1.237-2.245.331-.774-.642-2.093-.904-2.931-.583-.839.322-2.626.084-3.972-.53-1.963-.894-2.963-.777-5.055.594-2.012 1.318-2.927 1.444-4.003.551-1.082-.898-2.618-.598-6.86 1.345-4.58 2.096-5.557 2.262-6.032 1.023-.358-.932-1.586-1.361-3.323-1.161-3.181.366-3.466 3.823-.578 7.014C60.875 170.52 60.961 171 60 171c-.954 0-.86.497.345 1.829.91 1.006 1.655 2.581 1.655 3.5 0 2.334 1.732 2.091 2.508-.353.553-1.743 10.415-9.976 11.949-9.976 1.032 0 .539 3.604-.657 4.8-.66.66-2.024 1.2-3.031 1.2-2.363 0-3.22 2.288-1.831 4.885 1.118 2.088 4.048 1.914 4.077-.242.04-2.984 1.866-4.188 3.324-2.194 1.334 1.824 1.567 1.842 3.912.306 1.378-.902 3.447-1.385 4.622-1.078 1.279.334 2.127.087 2.127-.619 0-.647-.359-.954-.798-.683-.439.271-1.451.073-2.25-.441-2.004-1.289.754-3.136 3.436-2.3 1.591.496 1.809.178 1.388-2.023-.548-2.869-.152-3.026 6.749-2.674 2.829.144 4.834-.432 6.75-1.939 2.832-2.227 3.645-4.988 1.475-5.012-.687-.007-2.15-.215-3.25-.46-1.1-.246-3.122.011-4.492.571M400 166.918c0 1.217 5.465 6.663 7.451 7.425 1.035.397 1.549 1.898 1.549 4.519 0 2.565.519 4.123 1.5 4.5.825.316 1.5 1.463 1.5 2.548 0 1.084.49 2.275 1.088 2.645.667.412.214 1.112-1.171 1.809-3.619 1.82-3.399 3.455.565 4.199 4.279.802 5.38.047 3.746-2.569-1.402-2.245-.697-4.673 1.736-5.975 3.068-1.642 2.423-6.988-.987-8.177-2.49-.868-2.816-1.399-2.334-3.806 1.037-5.188-1.776-7.755-8.673-7.911-3.283-.074-5.97.283-5.97.793m73.469 9.582c-1.515 4.847-1.446 4.764-2.937 3.527-.794-.66-2.014-.847-2.71-.417-.695.43-2.568.682-4.16.561-2.325-.177-2.77.105-2.261 1.431.348.908.125 2.264-.496 3.012-1.709 2.06-.402 4.329 2.114 3.671 1.519-.397 1.996-1.12 1.639-2.484-.745-2.848 2.072-3.403 4.707-.928 1.245 1.17 3.247 2.127 4.449 2.127 1.203 0 2.186.605 2.186 1.345 0 3.189 3.594 4.916 6.791 3.263 2.947-1.524 2.978-1.511 3.566 1.427.788 3.942 2.897 3.778 7.24-.565 4.722-4.722 4.544-8.812-.404-9.288-1.819-.174-3.555-.962-3.857-1.75-.347-.904-1.988-1.432-4.45-1.432-2.913 0-4.449-.632-6.073-2.5-2.452-2.82-4.647-3.231-5.344-1m-416.936 1.447c-.358.579-2.087 1.067-3.842 1.085-1.917.019-4.289.998-5.941 2.452-2.886 2.54-3.725 5.104-1.374 4.202.756-.29 2.463.037 3.794.727 4.669 2.422 8.726 2.691 10.707.71 2.42-2.42 7.11-3.321 7.809-1.499.614 1.601 3.905 1.846 4.824.36.346-.559 1.016-.777 1.49-.484 1.242.767 2.112-1.046 1.396-2.91-.837-2.182-2.057-1.994-2.687.414-.59 2.258-3.709 1.744-3.709-.611 0-.766-.675-1.393-1.5-1.393s-1.5.45-1.5 1-.45 1-1 1-1-.691-1-1.535c0-1.207-.413-1.314-1.931-.502-1.609.861-1.983.672-2.25-1.137-.354-2.41-2.278-3.51-3.286-1.879m83.004 6.601c-1.135 9.087 4.853 32.169 10.594 40.837 3.447 5.203 9.277 10.164 13.797 11.74 1.69.589 3.072 1.477 3.072 1.973 0 .994 9.243 1.212 12.651.298 3.69-.99 3.65-10.238-.042-9.585-4.512.798-6.069-4.434-2.187-7.35 1.333-1 2.705-3.326 3.051-5.168.345-1.842 1.073-3.073 1.618-2.737.618.382.742-.452.33-2.222-.64-2.755-.612-2.778 1.002-.834 2.656 3.198 1.803-11.997-.901-16.059l-1.958-2.941-.532 2.5c-.293 1.375-1.14 2.5-1.882 2.5-.743 0-2.214 2.25-3.27 5-1.888 4.919-1.888 5.057-.014 8.5 3.456 6.35 3.612 8 .758 8-3.156 0-5.624-3.389-5.624-7.723 0-1.802-.45-3.277-1-3.277s-1.036-1.463-1.079-3.25c-.043-1.787-.306-2.687-.583-2-.764 1.892-3.05 1.499-4.66-.8-1.297-1.851-1.586-1.899-2.985-.5-1.697 1.696-3.693 2.06-3.693.672 0-2.273 3.238-8.206 5.968-10.936 1.668-1.668 3.018-3.854 3-4.859-.03-1.731-.101-1.735-1.36-.077-2.038 2.684-3.608 2.087-3.608-1.372 0-2.691-.212-2.947-1.531-1.852-1.264 1.049-1.763.954-2.856-.54-1.765-2.414-4.217-1.335-4.961 2.185-3.336 15.773-2.743 23.179 2.31 28.829 4.869 5.446 4.399 9.872-.507 4.772-4.532-4.713-6.764-10.947-7.257-20.272-.305-5.767-.891-8.757-1.823-9.3-.794-.461-1.375-2.444-1.375-4.691 0-6.012-1.69-5.642-2.463.539m-112.692 1.233c-4.039.804-2.906 11.684 1.226 11.771 1.363.029 2.994.37 3.622.758.629.389 3.768.678 6.975.643 12.037-.131 16.332.89 16.332 3.884 0 2.784 2.937 6.163 5.357 6.163 1.234 0 2.775.532 3.426 1.183.651.651 1.528.839 1.949.419.421-.421-.089-1.39-1.132-2.153-3.342-2.444-.501-4.378 4.687-3.19 3.839.878 4.669.711 8.134-1.641 2.122-1.44 4.245-2.618 4.719-2.618.473 0 .86-.724.86-1.608 0-1.206-.611-1.456-2.44-.996-1.736.435-2.819.072-3.75-1.257-1.597-2.28-2.934-2.351-4.479-.239-1.014 1.387-1.259 1.236-1.858-1.151-.379-1.512-.754-2.744-.831-2.738-.078.006-2.332.675-5.008 1.487-5.228 1.586-6.878 1.302-5.983-1.03.341-.889-.029-1.468-.937-1.468-.825 0-1.728.593-2.006 1.319-.383.998-2.968 1.249-10.651 1.033-11.902-.335-15.345-1.597-16.057-5.887-.354-2.132-.984-2.918-2.155-2.684m338.905 5.331c-4.451 2.298-4.756 4.08-1 5.836a199.96 199.96 0 014.46 2.152c.941.477 2.404.602 3.25.277.847-.325 1.54-.171 1.54.343 0 1.146 5.809.399 6.578-.846.676-1.095-4.934-6.874-6.672-6.874-.687 0-1.959-.635-2.827-1.412-1.368-1.222-2.081-1.152-5.329.524m20.5 7.054c-3.945.883-4.25 1.187-4.25 4.24 0 3.192 2.732 7.594 4.712 7.594.538 0 1.793-.9 2.788-2 2.558-2.827 3.498-2.493 3.515 1.25.024 4.956.89 5.682 5.727 4.797 2.329-.426 5.301-.57 6.605-.321 5.062.968 4.508-5.799-.63-7.702-1.769-.655-3.998-1.603-4.953-2.107-.955-.505-2.406-.917-3.225-.917-.818 0-2.186-1.35-3.039-3-.853-1.65-1.877-2.952-2.276-2.893-.398.059-2.637.535-4.974 1.059M46.456 217.049c-1.28 1.414-2.161 1.644-3.516.919-2.937-1.572-3.721-1.162-4.963 2.601-.824 2.497-1.622 3.398-2.659 3-.815-.313-1.67-.569-1.9-.569-.23 0-.418-.675-.418-1.5 0-1.841-.779-1.841-4 0-1.375.786-3.486 1.445-4.691 1.465-2.828.045-3.826 1.707-2.201 3.665.85 1.024 2.223 1.354 4.086.981 2.267-.453 2.806-.205 2.806 1.292 0 2.89 2.465 4.454 4.936 3.131 1.135-.607 2.064-1.715 2.064-2.461 0-.746 1.801-2.076 4.002-2.957 2.202-.881 3.948-1.942 3.882-2.359-.36-2.259.309-3.019 2.218-2.52 1.161.304 2.448-.009 2.875-.699.424-.687 2.929-1.652 5.565-2.145 7.822-1.461 7.623-2.355-.71-3.174-4.733-.466-5.95-.246-7.376 1.33M80 225.194c0 .749.677 2.327 1.504 3.508 1.26 1.8 1.286 2.365.158 3.493-1.894 1.894-3.662 5.39-3.662 7.239 0 2.678 3.888 1.862 4.597-.965.63-2.508 3.312-2.719 5.758-.452.47.436 2.368.161 4.218-.612 4.428-1.85 5.096-1.78 5.717.595.834 3.191 2.454 2.318 2.908-1.566.352-3.024.146-3.496-1.354-3.103-.974.254-2.328-.209-3.009-1.03-.892-1.075-2.308-1.321-5.062-.881-2.814.45-3.968.235-4.371-.814-.301-.784-1.656-1.704-3.012-2.044-1.545-.388-2.357-1.222-2.177-2.237.158-.889-.275-1.814-.963-2.055-.687-.24-1.25.176-1.25.924m304.42 7.343c-.962 2.303-2.05 3.437-3.117 3.25-1.297-.227-1.676.65-1.819 4.213-.099 2.475-.55 5.361-1.002 6.414-.58 1.35-.48 1.703.337 1.198.78-.482.943-.156.5 1-.428 1.115-.273 1.478.442 1.036.605-.374 1.383-.223 1.729.336.815 1.319 4.209 1.313 5.026-.01.349-.564-.75-1.508-2.441-2.098-4.457-1.554-3.772-2.876 1.491-2.876 2.511 0 5.484-.492 6.607-1.093 1.477-.79 2.344-.79 3.134 0 1.492 1.492 5.923 1.377 8.092-.21 2.876-2.102-.328-3.864-7.631-4.197-3.822-.175-6.229-.718-6.168-1.393.055-.609.167-1.609.25-2.224.085-.633 1.231-.909 2.65-.638 2.91.556 3.125-.362.885-3.78-2.584-3.943-7.095-3.404-8.965 1.072M.465 286c0 28.875.128 40.688.284 26.25.156-14.438.156-38.063 0-52.5C.593 245.312.465 257.125.465 286m448.985-36.73c-.316.823.136 3.197 1.004 5.274 2.024 4.844 1.236 7.456-2.249 7.456h-2.66l2.606 2.606c3.043 3.043 6.996 2.673 6.147-.575-.415-1.587.134-1.95 3.353-2.215 3.355-.275 3.849-.637 3.849-2.816 0-1.375.382-3.091.848-3.813 1.132-1.754-1.686-4.79-5.149-5.548a100.71 100.71 0 01-4.937-1.228c-1.509-.43-2.425-.151-2.812.859m-16.221 2.846c.283 1.311.845 3.171 1.249 4.134.592 1.407.225 1.75-1.871 1.75-2.443 0-3.295 1.642-2.725 5.25.227 1.441-1.899.733-3.944-1.312-2.256-2.256-4.269-2.143-4.736.266-.169.866.596 1.771 1.75 2.073 1.241.325 2.048 1.36 2.048 2.629 0 2.613 1.659 2.745 2.467.197.411-1.292 1.229-1.734 2.568-1.384 1.452.38 1.965.011 1.965-1.415 0-1.644.703-1.92 4.75-1.867 5.532.073 7.431-3.133 3.047-5.143l-2.297-1.052 2.75-1.282c3.075-1.432 3.692-3.818 1-3.868-.962-.017-3.277-.331-5.142-.696-3.181-.623-3.36-.516-2.879 1.72m-5.885 31.64c-1.279.213-2.402 1.34-2.762 2.772-.333 1.328-1.5 2.893-2.594 3.478-2.101 1.125-2.507 4.148-1.342 9.976.613 3.061.834 3.202 4.187 2.658 1.961-.319 4.122-.093 4.843.506.939.78 2.524.72 5.683-.212l4.381-1.294.05-5.528c.046-5.167-2.958-12.277-4.526-10.709-.285.284-1.698-.05-3.141-.744s-3.593-1.101-4.779-.903m22.406 2.324c-1.911 1.113-2.375 6.384-.784 8.9 1.101 1.74 6.984 2.277 8.784.8 1.843-1.512 1.524-4.587-.818-7.876-2.156-3.027-4.218-3.551-7.182-1.824m-58.129 31.208c-.969.709-1.618 1.909-1.442 2.668.177.759-.688 1.907-1.922 2.551-1.234.644-3.034 1.857-4 2.696-1.974 1.714-8.857 2.253-9.777.765-1.16-1.878-2.48-.935-2.495 1.782-.009 1.512-.417 3.384-.907 4.158-.975 1.541.629 6.092 2.148 6.092.498 0 1.776-.466 2.84-1.035 1.273-.682 1.934-.692 1.934-.032 0 .553.675.745 1.5.429.825-.317 1.5-.062 1.5.566 0 1.98 4-.798 5.023-3.489.645-1.696 1.696-2.439 3.452-2.439 1.578 0 2.525-.563 2.525-1.5 0-1.447 1.118-1.916 3.75-1.575.688.09 1.25-.595 1.25-1.521 0-.926.788-2.296 1.75-3.044 1.66-1.29 1.661-1.429.016-2.709-.954-.742-1.453-1.631-1.108-1.976.826-.825-1.57-3.675-3.089-3.675-.653 0-1.98.58-2.948 1.288m-177.93 17.349c.52 1.354.082 1.557-2.531 1.173-3.467-.509-3.959.248-1.66 2.547.825.825 1.5 2.037 1.5 2.694 0 .903-.366.89-1.5-.051-.999-.829-1.5-.879-1.5-.147 0 .603 2.025 2.02 4.5 3.147 4.382 1.996 5.592 3.469 3.44 4.187-.687.229-.524 1.386.462 3.287 1.769 3.409 1.474 4.132-1.077 2.648-1.191-.692-1.348-1.072-.453-1.092 1.126-.025 1.141-.309.089-1.577-.921-1.11-1.486-1.221-1.998-.394-.516.835-.902.848-1.397.048-1.078-1.745-2.573-1.29-1.861.567.487 1.268.237 1.518-1.031 1.031-2.081-.798-2.188.623-.174 2.295 1.65 1.369 2.034 4 .583 4-.504 0-1.153-.562-1.442-1.25-.382-.91-.812-.8-1.581.407-.663 1.041-1.892 1.478-3.308 1.176-2.161-.462-2.176-.419-.377 1.045 1.032.839 1.62 2.193 1.307 3.009-.313.816-.156 1.625.349 1.798.505.173.649 1.34.32 2.593-.595 2.264-4.327 2.324-5.186.084-.185-.481-.751-.618-1.258-.304-1.059.654-3.907-1.887-3.907-3.487 0-.589-.689-1.071-1.531-1.071-.843 0-1.791-.675-2.107-1.5-.317-.825-1.142-1.5-1.833-1.5-.691 0-2.504-1.8-4.029-4-2.741-3.956-4.975-5.402-3.862-2.5.756 1.97-1.356 1.924-3.353-.072-.978-.978-2.453-1.352-3.902-.988-1.911.48-2.216.268-1.697-1.178.348-.969.26-1.424-.196-1.01-.455.414-1.728-.036-2.828-1-1.904-1.667-1.97-1.667-1.363-.002.351.962.233 1.75-.263 1.75s-1.187-.9-1.536-2c-.752-2.371-2.5-2.673-2.5-.433 0 1.113-.581 1.383-2 .933-1.147-.364-2-.18-2 .433 0 .587-.564 1.067-1.253 1.067-1.767 0-6.747 5.493-6.747 7.442 0 .891-.675 1.88-1.5 2.196-.825.317-1.5 1.148-1.5 1.847 0 .698-.618 1.783-1.373 2.41-1.556 1.291-4.056 12.602-3.12 14.116.336.544 3.228.989 6.427.989 10.186 0 11.285.522 15.867 7.54 3.402 5.211 4.762 6.475 7.525 6.993 1.856.348 4.572 1.744 6.036 3.102 1.464 1.357 3.1 2.197 3.636 1.866 1.024-.633 10.002 4.192 10.002 5.375 0 .378 6.992 9.447 15.538 20.155 8.545 10.708 16.881 21.494 18.523 23.969 3.498 5.272 14.82 17 16.411 17 .603 0 1.951-1.462 2.994-3.25 1.58-2.706 9.379-13.635 12.311-17.25.446-.55 2.655-3.475 4.909-6.5 6.116-8.209 18.377-19 21.587-19 1.325 0 4.889-1.989 15.473-8.635 1.786-1.121 2.971-2.315 2.634-2.652-.337-.337.689-2.773 2.281-5.413 5.841-9.688 8.026-17.214 6.033-20.786-.618-1.108-1.142-2.239-1.166-2.514-.132-1.545-3.333-4.816-5.038-5.149-1.72-.336-1.943-1.046-1.642-5.219.329-4.558.227-4.791-1.811-4.144-1.987.631-2.113.418-1.571-2.651.324-1.835.231-5.334-.206-7.775l-.794-4.437-3.983 4.796c-2.191 2.637-5.028 5.925-6.306 7.306l-2.323 2.51-1.52-2.171c-1.4-1.999-1.343-2.323.726-4.118 1.235-1.071 1.748-1.948 1.139-1.948-.686 0-.935-1.344-.655-3.534.419-3.276.306-3.456-1.546-2.465-1.803.965-2.373.672-2.163-1.111.136-1.157-12.784-.341-14.01.885-.967.967-.708 1.238 1.225 1.288l2.45.064-2.435.972c-1.339.535-2.984.762-3.656.505-.671-.258-2.008.401-2.97 1.463-.962 1.063-2.64 1.933-3.729 1.933-1.09 0-3.023 1.125-4.298 2.5-2.405 2.596-8.651 3.541-9.912 1.5-.361-.583.656-1 2.441-1 4.229 0 3.864-1.456-.424-1.691-1.916-.105-4.278-.698-5.25-1.319-1.568-1.001-1.514-1.074.483-.652 1.517.32 2.25.003 2.25-.975 0-.798.645-1.318 1.434-1.157 1.35.277 1.566-.005 1.566-2.033 0-.455-1.35-.628-3-.386-1.801.264-3-.005-3-.674 0-.612.675-1.113 1.5-1.113 1.743 0 2.021-2.56.388-3.569-.611-.378-1.466-.114-1.899.587-.509.823-1.442.984-2.638.455-3.362-1.486-6.57-1.487-6.001-.002.711 1.851-2.255 2.853-4.046 1.366-.794-.658-1.225-2.03-.959-3.048.326-1.246-1.07-3.47-4.278-6.817-4.555-4.75-4.834-4.887-6.415-3.14-2.146 2.372-2.086 3.168.241 3.168 1.041 0 2.152.675 2.469 1.5.316.825 1.234 1.5 2.039 1.5 1.5 0 3.181 3.512 2.751 5.75-.132.688.455 1.25 1.304 1.25 2.471 0 1.78 1.996-.706 2.04-2.044.036-1.976.191.75 1.686 1.65.905 3.781 1.711 4.735 1.792 2.135.179 5.765 3.347 5.765 5.03 0 .681.675 1.497 1.5 1.814 3.112 1.194 1.348 2.292-2 1.244-1.925-.602-3.5-1.651-3.5-2.33 0-.68-1.782-2.144-3.96-3.256-4.8-2.448-5.153-2.477-4.339-.356.43 1.119.256 1.427-.531.941-.644-.398-1.17-1.341-1.17-2.096 0-.755-1.35-2.334-3-3.509-3.834-2.73-3.783-3.522.225-3.51 4.337.013 4.853-2.645.808-4.171-2.073-.783-3.226-.815-3.667-.102-.385.623-1.064.288-1.695-.839-1.423-2.538-1.742-6.216-.601-6.921 1.476-.912 1.079-3.457-.539-3.457-.949 0-1.246.579-.84 1.637m220.47 2.91c-.639 1.401-1.161 3.201-1.161 4 0 .799-.648 1.453-1.441 1.453s-1.69.402-1.993.894c-.864 1.397 2.24 7.958 3.662 7.743 2.161-.328 3.833-1.729 3.229-2.706-.316-.512-.215-1.493.226-2.181 1.272-1.985 3.285-8.084 3.302-10 .024-2.846-4.443-2.235-5.824.797M.468 421.5c.012 57.706.088 62.977.282 19.554.206-46.025.546-59.624 1.508-60.235.97-.616.973-.792.014-.804-.916-.011-1.303-4.782-1.523-18.765-.163-10.312-.289 16.8-.281 60.25M474 417.409c-3.576 1.94-6.816 3.269-12.328 5.055-2.655.861-6.255 2.335-8 3.277l-3.172 1.711 5.5.614c6.172.689 7.424.315 4.492-1.341-1.837-1.038-1.719-1.195 1.508-2.016 4.141-1.053 3.817-1.051 20.883-.132 16.149.87 17.735-.753 4.095-4.191-4.613-1.163-8.558-2.625-8.766-3.25-.481-1.443-1.126-1.401-4.212.273m-75 4.3c-2.448.901-5 3.494-5 5.081 0 .935.763.51 2.073-1.155 1.139-1.449 3.079-2.635 4.31-2.635 2.822 0 8.192 5.169 9.091 8.751.375 1.495 1.728 5.004 3.006 7.799 3.526 7.708 4.466 12.109 3.798 17.785-.556 4.736-.469 5.051 1.058 3.793.915-.755 1.664-2.261 1.664-3.346 0-4.333 5.729-10.61 10.314-11.302 1.202-.181 3.536-.759 5.186-1.284l3-.954-2.5-.994-2.5-.994 3.828-3.519c2.455-2.258 3.422-3.771 2.697-4.22-.632-.39-2.458.687-4.132 2.439-3.773 3.949-13.893 10.488-13.893 8.978 0-.621-1.35-2.391-3-3.932-3.615-3.377-3.751-5.067-.647-8.055 3.985-3.835.804-13.335-4.267-12.746-2.824.329-4.168 4.119-2.171 6.116.597.597 1.085 1.774 1.085 2.617s-1.138-.142-2.529-2.189c-2.04-3.003-7.281-7.03-8.671-6.664-.165.043-.975.327-1.8.63m-8.32 13.319c-1.538 2.736-2.537 5.394-2.22 5.908.318.514.072 3.101-.547 5.749-.618 2.648-1.193 5.49-1.277 6.315-.084.825-.883 2.625-1.776 4-2.097 3.232-3.529 9.019-1.815 7.334.653-.641 1.706-2.207 2.341-3.48.634-1.273 2.239-2.856 3.565-3.517 1.327-.661 2.527-2.02 2.667-3.02 1.223-8.734 1.705-10.504 2.995-10.999 1.147-.44 1.322-1.586.791-5.191-1.223-8.306-1.643-8.581-4.724-3.099" fill="#d3d3d3" fill-rule="evenodd"/></svg>