<svg xmlns="http://www.w3.org/2000/svg" width="500" height="375"><path d="M75.816 30.24c-.388.548-2.3 256.937-2.01 269.519l.305 13.26 58.133-.036c51.931-.031 57.971-.197 56.617-1.55-1.187-1.187-2.108-1.289-4.257-.472-2.145.815-3.071.715-4.245-.459-1.822-1.822-2.588-1.873-4.184-.277-.967.967-1.639.967-3.186 0-1.079-.674-2.545-1.225-3.257-1.225-.713 0-1.383-1.052-1.489-2.338-.107-1.286-.783-3.475-1.504-4.864-.721-1.389-1.214-4.82-1.097-7.625.255-6.116 2.463-8.94 8.01-10.244 5.65-1.328 109.934-1.023 112.014.328.641.417 2.216.382 3.5-.077 1.284-.459 3.909-.8 5.834-.757l3.5.077.237 13.5c.177 10.095-.037 13.036-.85 11.66-.598-1.013-.863-3.263-.588-5 .6-3.796-1.033-12.378-2.532-13.304-.589-.364-1.609.075-2.268.976-.658.9-1.453 1.38-1.767 1.067-1.238-1.238-3.496 6.004-2.759 8.851.496 1.919.29 7.515-.313 8.49-.37.599-.107 1.32.584 1.602 1.116.456-8.005.068-9.244-.393-.275-.102-.837-.133-1.25-.067-.413.065-.75-.332-.75-.882s.454-1 1.008-1c.623 0 .563-.714-.156-1.865-.837-1.341-.881-2.98-.155-5.84 1.098-4.325-.097-7.295-2.935-7.295-.834 0-2.025-.612-2.646-1.36-1.925-2.32-6.098-.828-6.227 2.227-.172 4.097.235 7.502 1.078 9.025 1.171 2.114.021 5.108-1.961 5.108-2.968 0-4.079-2.259-2.986-6.071 1.811-6.312 1.272-10.475-1.52-11.747-1.521-.693-2.5-.756-2.5-.161 0 .539-.45.979-1 .979s-1-.75-1-1.667c0-.916-.284-1.382-.631-1.035-.348.347-1.48.178-2.517-.377-1.534-.821-2.055-.582-2.805 1.285-.843 2.102-.932 2.126-1.063.294-.078-1.1-.347-1.503-.598-.895-.251.607-1.565.892-2.921.633-1.43-.273-2.465-.002-2.465.645 0 .615-.45 1.117-1 1.117s-1-.661-1-1.469c0-.894-.586-1.243-1.5-.893-.844.324-1.5 1.813-1.5 3.406 0 2.401.45 2.877 2.973 3.143 2.351.247 2.778.625 2.042 1.805-.691 1.105-1.223 1.2-2.058.365-1.383-1.383-4.957-.583-4.957 1.11 0 .679.491 2.643 1.091 4.364.963 2.764 1.264 2.957 2.571 1.649 1.666-1.665 3.338-1.947 3.338-.562 0 .505.273 1.63.607 2.5.398 1.038.055 1.582-1 1.582-.884 0-1.607-.45-1.607-1s-.45-1-1-1-1 .9-1 2-.408 2-.906 2c-.499 0-.658-1.012-.355-2.25.512-2.085.392-2.052-1.63.454-1.952 2.42-5.992 3.034-4.544.691.304-.492.128-.895-.391-.895s-.883-2.137-.809-4.75c.099-3.465-.223-4.676-1.189-4.475-.729.151-1.04-.187-.691-.75.348-.564-.124-1.025-1.048-1.025-1.294 0-1.425.31-.568 1.342 1.448 1.745.218 2.975-1.527 1.527-.831-.69-1.342-.73-1.342-.106 0 .554 1.111 1.735 2.468 2.624 5.442 3.566-.233 6.666-13.202 7.212-36.37 1.532 30.015 3.173 100.255 2.479 7.161-.07 14.285-.467 15.831-.88l2.81-.752.169-13.973.169-13.973 14.5-.13c8.095-.073 15.035.299 15.712.841.893.715 1.072 4.636.679 14.88L362.857 313h43.296l-.312-4.25-.312-4.25 4.31-.311c2.37-.171 4.896.176 5.613.771.987.819 1.432.592 1.832-.939.291-1.112.233-2.018-.128-2.013-4.379.05-17.678 2.18-18.649 2.986-1.895 1.573-2.175-.221-1.719-10.994.401-9.469.361-138.894-.064-207.75-.123-19.938.113-36.25.526-36.25.413 0 .75-.9.75-2 0-1.79 1.604-2.566 4.324-2.094.454.079.497-.387.096-1.036-.441-.712-.3-.914.356-.508.597.369 1.368.213 1.714-.346.345-.559.214-1.016-.292-1.016-.507 0-.706-1.125-.443-2.5.279-1.459.013-2.5-.638-2.5-.615 0-1.149-1.237-1.187-2.75-.063-2.437-.168-2.522-.93-.75-.82 1.908-.863 1.897-.93-.25-.12-3.85-1.778-2.467-2.374 1.981-.367 2.738-.149 4.496.618 4.984.793.505.606.759-.564.77-1.474.013-1.75-.932-1.75-5.985v-6h-33l-.015 13.25c-.009 7.288-.443 13.925-.964 14.75-.928 1.467-27.956 1.776-30.269.347-1.522-.941-.657-15.524.885-14.933.75.288 1.363.135 1.363-.338 0-.474-.667-1.118-1.483-1.431-1.966-.755-.836-3.571 1.872-4.665 2.091-.845 2.09-.854-.139-.917-1.819-.051-2.25-.637-2.25-3.063v-3h-33v14.5c0 11.958-.253 14.5-1.441 14.5-.793 0-1.749-.498-2.125-1.107-.494-.799-.872-.802-1.36-.012-.472.763-19.862 1.286-64.009 1.728-43.585.436-63.133.311-62.693-.402.352-.57.134-1.205-.485-1.411-.75-.25-1.168-4.861-1.256-13.836L165.5 30.5l-44.75-.26c-24.612-.143-44.833-.143-44.934 0M350.5 31c.34.55-.144 1-1.075 1-4.205 0-9.487 2.397-10.027 4.551-.4 1.593-1.099 2.078-2.478 1.718-1.056-.276-1.92-.014-1.92.583s.693.819 1.541.494c.981-.376 1.435-.092 1.25.781-.183.864.554 1.342 1.986 1.291 2.858-.104 2.335 1.969-.605 2.402-2.602.382-2.884 2.98-.422 3.888.962.356 2.081 1.129 2.485 1.719.478.698.74.593.75-.299.012-1.102.309-1.129 1.502-.139.818.679 2.185.967 3.038.64.889-.341 1.794.038 2.12.888.313.816.997 1.483 1.521 1.483.524 0 .674-.45.334-1s-.115-1 .5-1 .793-.526.395-1.17c-.486-.787-.178-.961.941-.531.915.351 1.664.244 1.664-.237s.9-.639 2-.352c1.412.37 2 .031 2-1.152 0-.922-.47-1.386-1.044-1.031-.574.355-1.679.118-2.456-.527-.777-.645-1.959-.835-2.626-.422-.848.524-1.012.224-.544-.996.369-.96.67-2.207.67-2.771 0-.564.675-.766 1.5-.449.825.316 1.5.139 1.5-.393 0-.533.408-.969.906-.969.499 0 .671.9.384 2-.402 1.535-.031 2 1.593 2 1.45 0 2.117-.63 2.117-2 0-1.1-.398-2-.885-2-2 0-4.203-4.966-3.11-7.01.972-1.815.749-1.99-2.529-1.99-2.141 0-3.344.404-2.976 1M165.424 62.338c-.265.69-.356 7.758-.203 15.708L165.5 92.5l2.5.403 2.5.402-2.5.644c-2.489.641-2.501.699-2.671 13.293-.217 16.153-.064 16.723 4.538 16.89l3.633.131-3.5.619c-3.448.609-3.51.707-4.141 6.618-.353 3.3-.691 10.43-.75 15.844-.1 9.05.052 9.885 1.891 10.366 1.107.29 2 1.364 2 2.407 0 1.216-.708 1.883-2 1.883-1.755 0-2 .667-2 5.441 0 2.993.498 5.749 1.107 6.125.771.477.695.938-.25 1.522-1.392.86-2.176 28.476-1.058 37.253.482 3.788.543 3.837 4.354 3.473 2.349-.224 3.733.035 3.529.659-.185.565-1.989 1.167-4.009 1.337l-3.673.311v14.372c0 12.841.186 14.423 1.75 14.845 5.052 1.365 67.423.884 68.758-.53.16-.169.449-16.283.642-35.808l.35-35.5h-2.99c-2.524 0-3.083.468-3.586 3l-.595 3-.414-3-.415-3-11.25-.283-11.25-.283-.064 11.283c-.079 13.873.125 30.236.377 30.263.103.011 5.007-.121 10.899-.294l10.712-.313.332-8.687.333-8.686.205 9.781.206 9.781-12.25-.281-12.25-.281v-21.168c0-11.643.32-21.487.71-21.877.391-.39 4.666-.819 9.5-.954 4.835-.134 9.577-.302 10.54-.373 1.436-.105 1.75-1.102 1.75-5.557 0-5.779 2.127-9.537 4.356-7.694.629.52 2.494 1.143 4.144 1.385 2.154.315 1.66.481-1.75.588L229 162v12.007l10.25-.244 10.25-.245.264 32.741c.227 28.184.47 32.741 1.75 32.741.817 0 1.491-.787 1.498-1.75.178-25.941 1.197-62.859 1.751-63.411.406-.403 3.662-.87 7.237-1.036l6.5-.303.545-24.5c.299-13.475.637-24.512.75-24.528.113-.015 2.568.21 5.455.5l5.25.528.272 18.728c.259 17.867.179 18.786-1.75 19.99-2.01 1.256-2.652 4.976-1.415 8.2.895 2.332 18.891 2.332 19.786 0 2.108-5.492.913-7.202-5.643-8.081l-6.25-.837-.297-7.997c-.459-12.38-.386-12.503 7.382-12.503h6.548l-.317-2.75c-.303-2.636-.576-2.762-6.566-3.048-4.034-.192-6.251-.724-6.252-1.5-.002-.847 1.916-1.103 6.5-.867l6.502.336v-4.586c0-4.39-.123-4.585-2.893-4.585-1.832 0-3.14.642-3.567 1.75-.642 1.667-.721 1.667-1.657 0-1.697-3.023-3.732-2.043-4.155 2l-.392 3.75-.168-4.25L286 124h6c5.874 0 6-.058 6.018-2.75.01-1.513.258-7.7.552-13.75.326-6.713.138-11.585-.482-12.5-.874-1.291-7.087-1.52-44.612-1.644-23.978-.079-43.87-.416-44.203-.75-.333-.333 10.719-.606 24.56-.606 23.29 0 25.169-.131 25.199-1.75.03-1.667.095-1.667 1.36 0 1.182 1.556 3.388 1.75 19.944 1.75h18.616l-.052-13.576c-.045-11.965-.277-13.801-1.952-15.476-1.829-1.829-4.342-1.901-66.472-1.883-50.839.014-64.673.285-65.052 1.273M332.085 76.93l.142 14.774 14.576.59c8.016.325 14.94.365 15.386.089.446-.275.811-7.235.811-15.465V61.955l-15.529.1-15.528.1.142 14.775m-.711 40.32c.38 12.787.933 37.425 1.227 54.75.294 17.325.715 32.063.935 32.75.297.924 4.188 1.25 14.933 1.25H363v-28.804l-3-1.046-3-1.046.079-25.302c.043-13.916.262-24.852.485-24.302.223.55.525 11.8.671 25l.265 24h2.5c2.258 0 2.514-.418 2.645-4.312.196-5.821 1.355-6.683 1.355-1.007 0 3.692.409 4.711 2.25 5.599 2.243 1.081 2.244 1.085.101 1.152-2.517.08-3.773 7.623-2.01 12.068 1.363 3.438 1.422 4.311.384 5.706-.493.664-.674 1.567-.401 2.009.273.441.165 2.61-.239 4.819-1 5.468-.471 6.466 3.425 6.466 2.343 0 3.48-.523 3.801-1.75.435-1.667.463-1.667.573 0 .102 1.542 1.303 1.75 10.116 1.75h10l.082-4.75c.11-6.345.738-10.307 2.038-12.866.704-1.387.781-3.973.223-7.5l-.852-5.384-4.496-.6-4.495-.6 4.75-.15c2.991-.094 4.787-.613 4.85-1.4.55-6.838.427-18.578-.208-19.847-.452-.903-.341-2.054.254-2.649 1.383-1.383.121-5.254-1.713-5.254-.788 0-1.433-.398-1.433-.883 0-.486-.959-1.135-2.132-1.441-1.682-.44-1.99-1.045-1.46-2.867.369-1.27.859-3.557 1.087-5.082.229-1.526.688-3.213 1.019-3.75.332-.538.109-.977-.497-.977-.605 0-2.067-.9-3.247-2-3.241-3.019-12.338-3.198-14.52-.286-1.135 1.515-1.25 1.479-1.25-.393 0-1.767-.571-2.037-4-1.889-2.2.094-4-.189-4-.63s-1.238-.847-2.75-.902l-2.75-.099 2.5-.695 2.5-.694.277-14.706.276-14.706h-32.371l.692 23.25m-60.593 13.5c-.401 4.642-.313 39.471.108 42.57.061.45 1.123.675 2.361.5 2.201-.313 2.256-.636 2.505-14.741.276-15.633 1.245-20.882 1.245-6.746 0 7.096.276 8.667 1.523 8.667 1.317 0 1.486-2.4 1.25-17.75-.263-17.108-1.427-22.577-2.881-13.533-.559 3.48-.62 3.539-.75.733-.078-1.677-.682-3.59-1.342-4.25-2.425-2.425-3.524-1.182-4.019 4.55m32.391 6.382c-2.604.963-2.649 1.248-.538 3.359 1.343 1.343 3.563 1.593 12.458 1.402 10.702-.229 12.743-.923 11-3.744-.86-1.392-19.652-2.226-22.92-1.017m-16.403 8.118c-.374 1.052-.301 11.56.107 15.418.081.763 2.118 1.11 5.874 1l5.75-.168.289-8.75.289-8.75h-5.932c-3.842 0-6.089.44-6.377 1.25m15.846 2.964c-2.377 4.056-2.615 5.431-2.615 15.124V174h3.5c2.125 0 3.506-.491 3.515-1.25.012-.923.209-.945.756-.086.459.721 4.629 1.291 10.978 1.5l10.237.336.093 16c.06 10.295.392 15.006.931 13.211 1.48-4.926.315-49.719-1.336-51.37-.371-.371-.674-2.399-.674-4.508V144h-10.5c-7.725 0-10.504.33-10.515 1.25-.011.908-.254.874-.886-.124-.65-1.026-1.531-.245-3.484 3.088M238 190.117c0 14 .131 15.082 1.78 14.651 2.52-.659 4.285 1.448 2.561 3.059-.74.69-1.341.8-1.341.244 0-.555-.675-.749-1.5-.433-1.86.714-2.068 7.966-.25 8.7 1 .403 1 .52 0 .583-1.853.117-1.803 32.079.05 32.079.715 0 1.84-.54 2.5-1.2.933-.933 1.2-.933 1.2 0 0 .829 2.009 1.145 6.488 1.021 3.568-.098 6.793.127 7.167.5.373.374-2.547.679-6.488.679-5.059 0-7.172.368-7.182 1.25-.011.893-.268.852-.899-.146-2.053-3.241-3.987-.302-4.343 6.597l-.351 6.799-.196-7.273-.196-7.274-32.25-.099c-39.404-.121-38.806-.131-39.603.665-.356.356-.702 6.942-.77 14.637-.123 13.957-.117 13.992 2.315 14.917 3.559 1.353 4.273 1.174 5.277-1.323l.904-2.25.064 2.207.063 2.208 32-.031 32-.031v-8.093c0-4.451.25-7.843.556-7.538.305.306.555 3.981.555 8.167 0 6.872.189 7.611 1.945 7.611 1.173 0 1.956-.694 1.974-1.75.029-1.653.088-1.652 1.062.022.908 1.559 2.527 1.754 13.488 1.625 6.851-.08 12.689-.523 12.973-.983.285-.461 1.514-.47 2.732-.02 1.218.45 7.713.911 14.434 1.025l12.218.207-.037-36.563-.037-36.563h-12.014l.281 4.75c.281 4.739.274 4.75-2.924 4.74l-3.206-.009v15.759c0 12.265.288 15.76 1.3 15.76 1.889 0 3.682-2.089 3.818-4.45.078-1.339.341-1.012.759.942.49 2.292 1.339 3.141 3.631 3.631 2.18.467 1.228.7-3.508.859-10.072.339-28.334.017-28.861-.509-.26-.26 2.314-.473 5.72-.473h6.192l-.276-15.74-.275-15.74-7.282-.326-7.283-.327.283 11.816.282 11.817 4 .608c3.19.485 2.532.637-3.25.75L249 242l-.037-12.75c-.02-7.012-.004-22.088.036-33.5l.072-20.75H238v15.117m17.044 5.445l.067 20.562 7.807-.206c4.293-.114 8.386.152 9.096.59.803.497 1.841.08 2.752-1.105 1.025-1.332 1.604-1.528 1.932-.653.258.688 1.106 1.25 1.885 1.25 1.156 0 1.417-2.621 1.415-14.25l-.002-14.25 9.515.319 9.516.319-.14-6.454-.14-6.455-8.873-.012c-5.784-.008-8.874.37-8.874 1.085 0 .741-.391.707-1.2-.102-2.492-2.492-2.8-.755-2.8 15.8 0 10.667-.373 17-1 17-.579 0-1.063-3.683-1.149-8.75-.375-22.074-.627-24.734-2.374-25.092-1.356-.277-1.623.376-1.432 3.5.129 2.113.127 5.192-.005 6.842-.236 2.963-.249 2.969-1.012.5-.425-1.375-.544-4.412-.264-6.75l.508-4.25h-15.295l.067 20.562M300 180.921c0 5.817.054 5.932 3.125 6.606 2.159.475 3.391.267 3.985-.67.632-.998.863-1.027.875-.107.009.77 1.423 1.25 3.682 1.25 2.016 0 3.435.232 3.152.515-.283.283-2.946.542-5.917.577-9.085.105-8.902-.089-8.902 9.392 0 5.744.39 8.507 1.25 8.854 1 .403 1 .52 0 .583-.774.049-1.25 1.573-1.25 4.005v3.927l11.572.072c6.364.04 12.664.347 14 .682 1.586.398 2.428.183 2.428-.621 0-.968.32-.965 1.5.014 1.209 1.004 1.503.979 1.515-.128.011-.971.231-1.033.753-.213.535.841 7.013 1.056 23.65.785 16.876-.275 22.618-.08 21.795.743-.615.615-3.614 1.093-6.665 1.062l-5.548-.055v11.344c0 6.484.428 11.609 1 11.962.55.34 1 1.491 1 2.559s.563 1.948 1.25 1.956c.833.011.75.339-.25.985-1.167.754-.882.973 1.281.985 1.667.009 3.034-.643 3.411-1.625.582-1.517.721-1.516 1.841.015.922 1.262 3.149 1.721 9.339 1.927l8.128.27v-3.227c0-1.775.451-3.506 1.003-3.847.67-.414.67-1.241 0-2.493-1.352-2.525-1.327-2.625 1.234-5.011 1.554-1.448 1.88-2.304 1.069-2.805-.642-.397-1.395-3.189-1.672-6.205-.278-3.016-.587-5.709-.688-5.984-.1-.275-.118-.871-.039-1.325.079-.454-.656-.588-1.632-.297-.976.291-4.25.156-7.275-.3l-5.5-.828 7.857-.125c6.747-.107 7.771-.35 7.246-1.718-.336-.876-.883-2.676-1.216-4-.648-2.585-3.212-3.182-5.187-1.207-.933.933-1.2.933-1.2 0 0-2.12-12.751-1.593-13.311.55-.435 1.667-.463 1.667-.573 0-.087-1.311-.994-1.75-3.616-1.75-2.655 0-3.507.422-3.53 1.75-.029 1.667-.079 1.667-1.05 0-.901-1.547-2.81-1.75-16.47-1.75H332l-.118 3.25-.119 3.25-.645-3c-.623-2.9-.839-3.004-6.473-3.106l-5.829-.106.134-16.646.134-16.646-5.292.202c-2.911.11-5.623.674-6.027 1.252-.482.689-.74.62-.75-.2-.009-.759-1.39-1.25-3.515-1.25H300v5.921m20.553-1.671c-.747 4.517-.151 22.978.791 24.5.426.688 1.872 1.25 3.215 1.25 2.349 0 2.447-.273 2.596-7.25.426-19.864.423-19.905-1.333-20.845-3.17-1.697-4.714-1.01-5.269 2.345m-35.801 10.566c-3.514.405-3.914 2.06-3.544 14.672.251 8.581.539 10.036 2.042 10.324 1.428.273 1.75-.393 1.75-3.616 0-4.924 1.253-5.986 7.525-6.382l4.975-.314.292-7.155.292-7.155-5.292-.345c-2.911-.19-6.528-.203-8.04-.029m-11.001 28.873c-2.468.645-2.871 3.233-2.541 16.311.283 11.235.345 11.508 2.655 11.835 1.301.184 2.834-.134 3.405-.705 1.046-1.046 1.165-25.617.132-27.288-.545-.883-.815-.894-3.651-.153m29.92.134c-2.067.4-2.08 1.049-.101 5.016 1.604 3.217 1.176 6.983-.955 8.405-.72.48.036 1.656 2.135 3.322 1.788 1.419 3.257 3.334 3.265 4.256.014 1.449.148 1.473.985.178.807-1.248.985-1.164 1.064.5.051 1.1.312 1.463.58.806 1.03-2.533 3.281-.239 2.299 2.344-1.287 3.386-1.218 3.567.926 2.42 1.027-.55 2.152-.715 2.5-.368.347.347.631.133.631-.476 0-.61-.45-1.386-1-1.726-1.781-1.101-1.059-2.397 1.103-1.98 1.455.28 2.262-.2 2.617-1.557.632-2.415 1.156-2.453 3.001-.213 1.342 1.629 1.405 1.631.903.027-.325-1.035.237-2.266 1.406-3.085 1.208-.846 2.045-2.751 2.208-5.026.144-2.014.604-3.663 1.021-3.664 1.55-.004.302-8.989-1.259-9.067-6.002-.298-21.97-.375-23.329-.112m28.603.542c-.72 1.165-.511 26.442.228 27.639.738 1.193 24.795 1.214 27.924.024l2.574-.978v-13.458c0-12.434-.147-13.504-1.937-14.072-3.033-.963-28.127-.226-28.789.845m-.168 46.096l.113 15.332 15.641-.146 15.64-.147.221-15.259.221-15.259-15.975.073-15.974.073.113 15.333m44.644-14.381c-3.011 1.754-2.237 5.873 1.234 6.567 1.641.328 2.819.879 2.617 1.225-.931 1.597 1.676 5.341 4.566 6.556 4.439 1.867 6.341-.094 6.146-6.335-.314-10.044.373-9.096-6.574-9.063-3.432.017-7.027.489-7.989 1.05" fill="#d3d3d3" fill-rule="evenodd"/></svg>