<svg xmlns="http://www.w3.org/2000/svg" width="500" height="625"><path d="M215.5 32.108c-46.75.334-107.685.672-135.412.75L29.676 33l.842 40.25c.463 22.138.914 147.125 1.001 277.75.088 130.625.506 239.024.93 240.887l.77 3.386 192.765-.689c106.021-.38 194.03-1.028 195.575-1.441 3.74-1 4.392-3.143.958-3.143-2.301 0-2.608-.362-2.333-2.75l.316-2.75 13.5-.636c7.425-.35 18.057-.741 23.628-.868l10.127-.231.801-15.133c.901-17.023.677-534.445-.231-535.915-.589-.954-82.566-.827-252.825.391" fill="#d3d3d3" fill-rule="evenodd"/></svg>