<svg xmlns="http://www.w3.org/2000/svg" width="500" height="718"><path d="M251.582 1.515c-1.197.905-2.331 1.108-3.016.54-.67-.556-4.017-.361-8.582.5C232.011 4.06 229 6.227 229 10.463c0 2.484-1.607 2.351 50.25 4.176l18.75.659v-3.077c0-5.191-5.479-8.234-15.801-8.777-2.365-.124-5.1-.95-6.078-1.835-2.431-2.2-21.658-2.274-24.539-.094M443.41 48.948c-.5.477-3.16 1.107-5.91 1.4-2.75.293-9.275 1.057-14.5 1.698-5.225.64-12.2 1.23-15.5 1.309-3.3.08-6.331.595-6.735 1.145-.468.637-.74.584-.75-.145-.01-.769-1.082-.912-3.265-.437-4.005.871-8.966.511-24.272-1.763-3.862-.574-7.799-1.341-8.748-1.705-1.403-.539-1.683-.148-1.497 2.098.138 1.669.928 2.943 1.998 3.223.973.254 1.769.83 1.769 1.279 0 .738 1.347.905 8.815 1.095 1.273.032 2.018.35 1.656.707-.362.356 1.521 1.122 4.185 1.702 4.688 1.019 6.296 2.961 3.877 4.681-.802.57 2.618 1.166 3.717.647.137-.065 1.992.61 4.122 1.5S397.02 69 397.968 69c3.411 0 7.97 2.992 7.313 4.798-.537 1.474-.329 1.446 1.556-.209 2.948-2.588 4.049-1.161 1.334 1.729-1.194 1.271-2.171 2.807-2.171 3.413 0 .606-.562 1.329-1.25 1.607-.747.301-.545.536.5.583.962.043 1.75.477 1.75.962 0 .486.788 1.09 1.75 1.341 1.082.283 2.289 2.333 3.16 5.367l1.625 5.659c.118.412.306.862.417 1 .21.261.589 1.715 1.428 5.479 1.072 4.806 2.027 5.385 4.011 2.434 2.445-3.639 9.221-7.599 10.224-5.976.499.806.953.568 1.434-.753.387-1.064.354-2.384-.074-2.934-.427-.55-.934-3.583-1.126-6.741-.33-5.424-.205-5.791 2.257-6.648 3.462-1.204 4.192-.518 5.72 5.376 1.466 5.653 3.609 8.513 6.379 8.513 4.268 0 7.863 2.886 7.203 5.783-.341 1.494-.842 4.148-1.115 5.897-.314 2.016-.956 3.003-1.755 2.696-.82-.315-1.478.842-1.887 3.321-1.114 6.738-.702 11.084 1.766 18.645 2.65 8.119 2.604 19.169-.088 21.158-.889.657-1.572 4.337-1.99 10.717-.35 5.345-.956 9.52-1.347 9.278-.626-.387-.285 6.545.354 7.184.138.139 1.467-1.622 2.953-3.914 1.486-2.291 2.708-3.513 2.716-2.715.013 1.237.147 1.243.909.039.54-.853.485-2.062-.139-3.061-.749-1.2-.59-2.504.581-4.769 2.299-4.445 4.889-4.929 9.119-1.703 3.796 2.896 4.415 5.669 1.983 8.885-1.941 2.567-1.858 3.812.613 9.237 1.145 2.513 2.238 5.301 2.429 6.195 3.292 15.413 3.573 19.859 1.169 18.482-.649-.372-.863-.325-.477.104.718.796-1.959 4.117-2.712 3.365-.227-.228-.616-5.569-.864-11.869-.474-12.076-1.261-16.955-2.734-16.955-.491 0-.892-.675-.892-1.5s-.477-1.5-1.059-1.5-.837-.359-.566-.798c.271-.439.153-1.347-.262-2.019-.513-.83-1.164-.334-2.031 1.548-.703 1.523-2.384 4.906-3.737 7.519-1.353 2.613-2.14 4.75-1.748 4.75.392 0 .044.787-.774 1.75-3.499 4.117-7.02 15.25-4.823 15.25.55 0 1 .675 1 1.5s.466 1.5 1.035 1.5c.702 0 .691.644-.035 2-.726 1.356-.737 2-.035 2 .569 0 1.035-.702 1.035-1.559s.45-1.281 1-.941c.55.34 1-.338 1-1.507 0-2.961 1.789-5.993 3.535-5.993 2.249 0 1.896 7.183-.502 10.231-1.082 1.376-1.662 2.807-1.289 3.18.374.374 1.45-.343 2.392-1.591l1.713-2.271.662 2.638c.653 2.603.712 2.619 4.326 1.201 2.014-.791 4.393-1.845 5.285-2.342 1.021-.568 2.022-.502 2.702.178 2.723 2.723 3.448-3.638 2.043-17.925-.897-9.117-1.077-16.112-.523-20.347 1.302-9.954-2.969-53.38-6.295-64.003-1.11-3.547-2.742-10.724-3.626-15.949-1.971-11.649-3.235-14.603-6.08-14.207-1.725.24-2.231-.392-2.808-3.5-.387-2.086-1.277-4.468-1.977-5.293-.701-.825-1.29-3.68-1.311-6.345-.021-2.665-.514-5.322-1.096-5.904-.738-.738-.742-1.647-.012-3.012.737-1.376.723-2.277-.046-3.046-.601-.601-1.093-1.876-1.093-2.834 0-2.108-1.344-3.1-2.59-1.911m-11.757 18.261c-.331 1.26-.163 2.441.373 2.624 1.734.593 1.032 2.167-.967 2.167-3.881 0-2.766 3.78 1.29 4.375.797.117 2.081.737 2.852 1.377.772.64 2.28.916 3.351.612 2.645-.749 7.289-6.584 5.67-7.123-.672-.224-1.222-1.422-1.222-2.662 0-1.885-.574-2.277-3.5-2.387-1.925-.072-3.5.305-3.5.838 0 .534-.45.97-1 .97s-.887-.506-.75-1.125c.495-2.226-2.009-1.904-2.597.334m-220.707 7.663C205.206 78.58 200 83.853 200 85.958c0 .573-.45 1.042-1 1.042s-1 .675-1 1.5c0 1.344.633 1.683 2.638 1.415.351-.047 1.01.515 1.464 1.25 1.138 1.842 3.04 1.701 5.337-.395 2.467-2.253 3.48-2.202 6.561.326 1.678 1.378 2.089 2.219 1.25 2.561-1.706.696-1.579 2.01.194 2.01 2.159 0 8.833 6.226 12.131 11.316 2.156 3.329 2.992 4.025 3.247 2.702.189-.979-.208-2.445-.882-3.257-.674-.812-.973-1.728-.665-2.037.527-.527-.999-2.752-4.161-6.067-1.034-1.084-1.097-1.741-.25-2.588.625-.625 1.136-.832 1.136-.461 0 .372 1.166.232 2.591-.31 2.256-.857 2.671-.693 3.212 1.275.573 2.09.663 2.034 1.189-.74.344-1.809.061-3.525-.711-4.321-1.437-1.483-1.714-9.948-.394-12.031 1.373-2.166 4.101 2.612 4.183 7.325.052 2.981.271 3.513.843 2.049C238.726 83.883 234.031 75 229.767 75c-1.037 0-1.605.453-1.263 1.007.652 1.054-5.472 7.383-8.128 8.402-2.08.798-6.504-.392-5.785-1.556.318-.514 1.496-.643 2.618-.287 1.361.432 1.813.279 1.357-.459-.379-.613-.043-1.107.753-1.107.79 0 1.996-.675 2.681-1.5 1.031-1.242.923-1.505-.628-1.532-1.799-.03-1.797-.088.069-1.5 1.904-1.439 1.9-1.468-.178-1.468-1.166 0-2.795-.675-3.62-1.5-1.906-1.906-1.493-1.99-6.697 1.372M106.65 86c.65 3.252.242 3.548-2.716 1.965-1.364-.73-1.934-.713-1.934.059 0 .602-.498.786-1.107.41-.791-.489-.76-.898.107-1.434 2.002-1.237-.403-1.971-4.357-1.329-2.018.327-3.615 1.098-3.548 1.712.234 2.141-1.337 5.617-2.537 5.617C89.243 93 85 97.138 85 98.42c0 .435-1.125 2.128-2.5 3.762-5.564 6.612-1.991 4.406 5.461-3.373 6.642-6.933 7.967-7.927 8-6 .021 1.277.486 2.033 1.039 1.691 2.029-1.254.924 1.439-1.201 2.928-1.486 1.041-2.415 1.193-2.862.47-.384-.621-2.277.962-4.505 3.766-5.63 7.084-5.667 7.147-4.893 8.399.411.666.974.76 1.336.224C85.973 108.658 97 100.904 97 101.76c0 .453-1.912 2.65-4.25 4.881-7.506 7.167-15.855 12.546-11.155 7.187 1.048-1.194 1.348-1.846.666-1.448-.871.509-1.043.19-.58-1.078.603-1.65.472-1.638-1.554.142-2.202 1.934-2.216 1.933-2.805-.321-.577-2.206-.691-2.168-4.367 1.421-2.076 2.027-4.265 3.382-4.865 3.012-.599-.371-1.09-.24-1.09.291 0 .531-.843.745-1.873.476-1.879-.491-6.719 4.751-5.506 5.965 1.242 1.242-.911 4.747-3.283 5.342-1.849.464-2.169.857-1.191 1.461 1.064.658 1.083 1.079.095 2.067-1.972 1.972-1.44 3.331.587 1.497 6.053-5.479 2.786 3.312-5.579 15.008-1.237 1.73-2.25 3.639-2.25 4.241 0 .603-.457 1.096-1.015 1.096-1.189 0-4.976 5.915-4.981 7.781-.008 2.76 2.969 2.283 5.906-.947 2.459-2.705 3.037-2.981 3.061-1.462.023 1.494.313 1.637 1.433.707.803-.666 2.522-.885 4.013-.51 2.836.711 5.987-1.106 4.917-2.837-.371-.601-.16-.742.5-.335.74.458.933.159.548-.845-.328-.854-.098-1.552.511-1.552s1.114-.787 1.122-1.75c.013-1.493.156-1.53.97-.25.75 1.178 1.096.802 1.61-1.75.622-3.085 2.405-4.605 2.405-2.05 0 .933.267.933 1.2 0 1.906-1.906 2.995-1.398 2.252 1.05-.585 1.929-.166 1.758 2.933-1.196 3.944-3.76 4.41-4.573 2.115-3.692-2.581.99-1.728-3.038 1.118-5.276 2.93-2.305 4.81-1.829 4.063 1.027-.344 1.315.033 1.887 1.244 1.887.955 0 2.375 1.238 3.154 2.75 1.869 3.625 3.209 4.487 4.206 2.705 1.498-2.676 2.798-1.494 2.572 2.338-.253 4.287 4.294 12.119 5.002 8.616.197-.977-.336-2.284-1.184-2.905-1.941-1.419-3.335-6.504-1.783-6.504.609 0 1.144 1.012 1.187 2.25.053 1.503.268 1.752.649.75.314-.825 2.587-3.525 5.052-6 2.464-2.475 5.642-6.075 7.062-8 1.419-1.925 4.519-5.412 6.887-7.75 2.368-2.338 3.793-4.25 3.166-4.25-.791 0-.747-.473.144-1.547.727-.876 1.541-1.133 1.876-.591.666 1.079 5.085-2.118 5.085-3.679 0-.548-.97-.742-2.156-.432-1.408.368-1.923.186-1.484-.524 1.1-1.781-.917-2.275-2.963-.727-2.585 1.957-4.206 1.88-2.221-.105 1.281-1.281 1.411-2.309.642-5.094-1.228-4.446-.617-4.993 2.874-2.574 4.902 3.396 5.308 3.511 5.308 1.501 0-1.04-1.124-2.492-2.498-3.227-1.375-.736-2.288-1.548-2.031-1.806.258-.257-1.431-2.581-3.754-5.165-6.32-7.03-8.511-11.53-6.881-14.139 1.571-2.516.797-3.661-1.3-1.921-1.236 1.026-1.625.961-2.131-.357-1.07-2.789-2.383-1.752-1.755 1.387m40.377-.447c-.037 1.456 5.956 9.55 8.72 11.777 1.25 1.007 2.047 2.194 1.773 2.638-.275.445 1.321 2.405 3.547 4.356 2.225 1.951 4.021 3.801 3.99 4.111-.167 1.662.286 2.414 3.805 6.315 2.109 2.338 4.385 4.25 5.059 4.25 1.943 0 .782-3.405-1.505-4.413-1.14-.502-2.653-2.226-3.364-3.831-1.144-2.585-5.544-7.907-18.275-22.104-2.048-2.284-3.736-3.678-3.75-3.099m147.297 7.102c-1.746.253-3.714 1.11-4.372 1.903-.658.793-2 1.442-2.981 1.442-3.551 0-11.38 9.15-16.255 19-5.499 11.108-6.866 17.239-6.199 27.804l.485 7.696-3.588-3.83c-1.973-2.106-3.886-3.525-4.251-3.153-.974.994 31.027 31.413 33.087 31.451 2.229.041 2.229-.897.002-2.526-2.205-1.612-1.052-2.939 1.412-1.626 3.004 1.601 20.343.771 24.036-1.151 1.761-.916 4.461-1.667 6-1.669 1.54-.002 4.339-1.014 6.22-2.25 1.88-1.235 4.285-2.759 5.344-3.385 9.507-5.627 20.736-26.389 20.736-38.338 0-3.798-.45-7.183-1-7.523-.55-.34-1-2.181-1-4.09 0-2.164-.565-3.69-1.5-4.048-.825-.317-1.5-.996-1.5-1.509 0-5.262-14.986-12.094-29-13.222-13.284-1.069-22.59-1.423-25.676-.976M107 101c0 .55-.45 1-1 1s-1.868.787-2.928 1.75c-3.862 3.504-5.018 4.25-6.589 4.25-.88 0-1.323.45-.983 1 .34.55.207 1-.295 1s-2.127 1.125-3.61 2.5c-1.484 1.375-2.225 2.5-1.647 2.5 1.242 0-2.081 3.505-4.073 4.296-.964.383-1.002.57-.125.625.688.043 1.25.584 1.25 1.201 0 .807-.397.794-1.411-.048-.833-.692-1.648-.788-1.989-.236-.318.515.113 1.509.957 2.209 1.309 1.086 2.903-.159 10.848-8.474 7.28-7.618 9.454-9.383 9.955-8.078 1.027 2.676.758 5.696-.441 4.955-2.502-1.546-7.867 5.748-11.99 16.3-1.846 4.723.831 2.863 7.571-5.26 4.391-5.291 5.552-6.46 10-10.07 4.226-3.429 4.782-.365.714 3.936-3.675 3.886-5.741 7.644-4.201 7.644.596 0 2.172-1.237 3.503-2.75 1.939-2.203 2.427-2.402 2.452-1 .019 1.019.763 1.717 1.782 1.671 1.056-.048 1.252-.28.494-.585-.691-.279-1.002-.918-.691-1.421.311-.503.01-.915-.668-.915-.707 0-.305-.988.941-2.314 2.629-2.799 2.675-3.456.424-6.027-1.667-1.903-1.667-1.968 0-1.36 3.325 1.212 1.812-2.008-2.668-5.679C107.927 99.806 107 99.371 107 101m187 1.272c-3.961 1.699-11 8.97-11 11.363 0 .395-1.596 3.036-3.546 5.868-5.828 8.462-5.388 26.451.839 34.294.844 1.063 1.176 1.063 1.836 0 .594-.958 1.777-.297 4.525 2.528 6.495 6.679 12.203 8.498 22.124 7.052 2.182-.318 3.048-.879 2.589-1.678-.378-.659-.31-.856.152-.436 4.006 3.638 15.475-23.685 15.48-36.878.001-1.163-.899-3.259-1.999-4.658-1.1-1.398-2-3.691-2-5.096 0-2.792-3.449-6.631-5.956-6.631-.869 0-3.171-1.081-5.116-2.403-6.514-4.427-12.69-5.572-17.928-3.325m-122 41.961c-9.918.97-11.857 1.29-12.659 2.093-.371.371-1.624.674-2.785.674s-3.052.659-4.202 1.465c-1.15.805-2.375 1.18-2.723.833-.347-.347-.631.07-.631.927s-1.143 1.845-2.541 2.196c-1.397.351-2.271 1.074-1.941 1.608.33.534-.341.971-1.491.971-1.157 0-2.412.867-2.809 1.94-.395 1.068-1.105 1.915-1.578 1.884-1.61-.106-7.916 6.592-9.28 9.857-1.76 4.212-1.721 13.557.08 19.494 1.359 4.476 1.327 4.74-.76 6.211-2.127 1.498-2.104 1.522.937.976 2.73-.489 3.198-.236 3.769 2.04.359 1.429 1.094 2.598 1.633 2.598.54 0 .981.597.981 1.326 0 1.934 4.07 5.419 7.25 6.208 1.512.376 2.75 1.298 2.75 2.05 0 1.029.592 1.141 2.397.455 3.204-1.218 4.264.025 1.384 1.624-3.177 1.763-.317 1.665 3.111-.107 1.535-.794 5.226-1.402 8.2-1.35 4.059.071 4.784.281 2.908.844-2.808.843-2.716.936 1.5 1.518 12.099 1.669 13.275 1.626 18.152-.666 2.667-1.253 5.281-2.306 5.81-2.34.528-.034 1.878-.962 3-2.062 2.116-2.077 2.306-4.411.994-12.25-.426-2.545-.326-4.25.25-4.25.917 0 1.2 1.669 1.611 9.5.106 2.036.706 3.5 1.433 3.5.688 0 1.25.513 1.25 1.14 0 1.155 3.058-3.17 6.25-8.84.963-1.71 1.75-4.291 1.75-5.736 0-1.445.667-2.883 1.482-3.195 1.128-.433 1.236-1.027.453-2.49-.565-1.056-.787-2.31-.492-2.786.294-.477-.135-1.422-.954-2.102-2.055-1.705-1.935-4.099.165-3.293 1.435.55 1.567.083.991-3.518-.78-4.874-3.643-11.299-4.735-10.624-.418.258-1.46-1.899-2.314-4.793-2.579-8.734-8.212-15.811-10.124-12.717-.441.713-1.134.649-2.155-.198-1.765-1.464-5.994-1.624-16.317-.615m-3 16.19c-2.475.709-5.287 1.627-6.25 2.04-1.081.464-1.75.316-1.75-.386 0-.625-1.35-.139-3 1.081s-3 2.673-3 3.23c0 .578.514.498 1.2-.188.66-.66 1.785-1.2 2.5-1.2.83 0 .572.728-.715 2.015-3.308 3.308-.146 12.816 5.178 15.569 3.731 1.93 14.798 3.021 20.254 1.998 3.226-.606 3.551-.953 3.168-3.378-.235-1.487-.719-5.629-1.075-9.204-1.167-11.707-1.907-13.011-7.338-12.933-2.569.038-6.697.648-9.172 1.356M379.5 184c2.149.547 2.433.819 1 .961-1.499.147-1.624.343-.5.78 2.384.927 3.934 3.523 3.968 6.645.032 2.848-.027 2.878-4.468 2.269-2.864-.392-4.5-.236-4.5.432 0 .577-.86.775-1.916.44-1.054-.335-2.245-.075-2.648.577-.55.889 1.055 1.058 6.415.675 7.574-.542 7.949-.363 5.764 2.748-1.564 2.228-14.741 11.473-16.352 11.473-.992 0-2.648 2.948-2.013 3.583.163.163 2.311-1.019 4.773-2.626 11.438-7.467 17.985-12.509 18.074-13.918.634-10.065-1.679-15.086-6.873-14.921-3.719.118-3.72.12-.724.882m-283 30.492c-9.675 6.151-30.44 20.874-38.394 27.223-3.633 2.901-7.168 5.276-7.856 5.279-.88.004-1.25 2.065-1.25 6.955 0 3.822-.875 11.585-1.945 17.25-2.48 13.135-3.052 23.402-1.284 23.044.904-.183 1.08.538.609 2.5-.927 3.866-1.361 4.061-1.495.674-.181-4.596-1.791 4.079-1.685 9.083l.084 4 .678-4c.373-2.2.722 14 .776 36 .12 48.962.862 78.935 2.163 87.376.541 3.507 1.068 13.955 1.171 23.217.215 19.129 1.783 31.907 3.916 31.907.522 0 .768-.563.546-1.25-1.367-4.243-2.535-24.259-2.497-42.802.007-3.054-.436-8.71-.983-12.568-2.039-14.377-3.33-124.572-1.496-127.662.755-1.273 1.041 9.742 1 38.5-.059 41.011.785 65.19 3.028 86.782.257 2.475.498 7.424.534 10.999.038 3.759.554 6.808 1.223 7.234.652.415.712.743.137.752-.67.01-.796 3.538-.367 10.265.907 14.236 1.749 41.787 1.183 38.75-.534-2.869-2.32-5.208-2.252-2.95.024.798.481 3.475 1.015 5.95.535 2.475 1.207 5.85 1.495 7.5.84 4.828 1.728 62.241 1.006 65.116-1.024 4.081-1.968 1.89-1.675-3.889.209-4.116.004-4.972-.961-4.026-1.426 1.397-1.362 12.016.095 15.85.527 1.385.91 2.84.851 3.234-.292 1.955.265 2.554 1.13 1.215.78-1.207.972-1.049.985.809.008 1.288-.427 2.036-.985 1.691-1.392-.86-1.248.972.384 4.877.998 2.388 2.54 3.776 5.52 4.968 5.914 2.366 6.916 2.133 7.65-1.78.915-4.878 3.553-6.826 9.961-7.358 5.356-.444 7.833-2.207 3.102-2.207-2.47 0-4.327-3.443-2.475-4.588.602-.372.589-1.031-.034-1.781-.546-.659-.882-5.763-.751-11.411.153-6.597-.134-10.225-.81-10.235-.687-.01-.703-.268-.047-.75.55-.404 1.079-1.185 1.176-1.735.097-.55.482-1.788.857-2.75.443-1.139.207-1.755-.676-1.765-1.047-.012-1.014-.237.143-.985 1.22-.789 1.238-.972.095-.985-1.098-.012-1.03-.43.315-1.916.946-1.045 1.311-2.154.81-2.463-.51-.315-.739-7.066-.519-15.349.496-18.733.401-17.57 1.558-19.037.542-.687.587-1.25.099-1.25-.907 0-1.142-3.018-1.597-20.5l-.261-10 3 .084c1.65.046 3.9.42 5 .831 1.963.734 1.964.719.076-.821-1.058-.863-3.42-1.849-5.25-2.193-3.268-.613-3.33-.722-3.535-6.262-.397-10.711-.532-12.656-1.189-17.139-.362-2.475-.759-7.987-.881-12.248-.121-4.262-.456-7.749-.743-7.75-.288-.001-.582-1.689-.654-3.752-.148-4.221-.994-13.228-1.385-14.75-.646-2.516 1.39-4.5 4.618-4.5 2.129 0 3.714.636 4.363 1.75.561.962 1.033 1.218 1.05.567.047-1.827 4.134-2.761 5.14-1.174.621.981.864 1.014.875.119.008-.681 1.815-1.526 4.015-1.878 2.2-.352 4.003-.92 4.007-1.262.012-1.188 16.179-1.212 17.608-.026 1.052.873 1.385.853 1.385-.081 0-.682.668-.973 1.5-.653.825.316 1.507.027 1.515-.643.011-.868.26-.834.864.119.466.735 2.371 1.41 4.234 1.5 1.863.089 3.63.485 3.927.881.296.395 3.231.867 6.52 1.049 3.289.181 6.47.632 7.067 1.002 2.377 1.469 3.236 18.314 1.127 22.109-.648 1.166-1.061 2.525-.917 3.019.144.494-.436 2.641-1.288 4.77-.852 2.13-1.549 4.778-1.549 5.884 0 2.498 4.034 4.345 5.5 2.518.55-.685 1.532-1.066 2.182-.847.651.219 1.679-.529 2.285-1.662 1.345-2.512 3.02-2.73 2.39-.311-.539 2.069 4.134 4.819 9.893 5.82 2.063.359 3.75 1.108 3.75 1.664 0 .577.643.477 1.5-.234 1.621-1.345 2.1-3.489.568-2.542-.512.316-1.637-.432-2.5-1.664-.862-1.231-1.582-1.801-1.6-1.267-.082 2.528-2.968-3.294-2.968-5.988 0-3.584 3.688-17.458 5.089-19.146.526-.634 2.33-1.427 4.009-1.763l3.052-.61-1.911-2.76c-3.424-4.944-3.417-5.015.525-5.204 2.055-.099 5.065-.265 6.69-.368 2.24-.143 3.254.407 4.196 2.27l1.242 2.457 1.029-2.707c1.156-3.042 1.803-3.233 4.363-1.291 1.45 1.1 1.673 2.264 1.188 6.218-.328 2.676-.681 10.481-.784 17.346-.174 11.552-.046 12.508 1.715 12.853 1.046.204 2.306-.35 2.799-1.231 1.839-3.286 4.066-1.897 3.442 2.147-.318 2.063-.331 3.188-.028 2.5.303-.687 2.056-1.25 3.895-1.25 2.922 0 3.56-.488 5.052-3.87 1.652-3.746 1.792-3.827 4.322-2.507 1.438.751 3.155 1.367 3.815 1.371.66.003 1.621.757 2.135 1.675.87 1.555 1.179 1.552 4.549-.047 1.989-.944 3.616-2.37 3.616-3.169 0-.799.45-1.453 1-1.453s1-.707 1-1.571c0-1.4-.165-1.407-1.506-.066-2.313 2.313-5.61 3.056-6.629 1.494-1.229-1.882 1.236-17.813 3.149-20.357 1.376-1.83-.21-7.509-2.629-9.412-2.003-1.575-2.13-1.972-.794-2.485.874-.335 1.968-.376 2.43-.09.463.286 1.123.062 1.469-.497 1.734-2.805 3.21-.75 3.389 4.717.212 6.483 2.121 9.994 2.121 3.901 0-2.071.502-4.704 1.116-5.851.943-1.761.865-1.99-.5-1.466-.889.341-1.616.211-1.616-.289 0-1.672 2.039-2.197 5.958-1.535 4.73.799 6.046 3.175 2.505 4.521-3.923 1.492-6.285 11.764-3.375 14.674.599.599 1.311 3.871 1.584 7.272.451 5.638.311 6.232-1.588 6.728-2.534.663-2.747 3.167-.334 3.922.963.301 2.912 1.167 4.332 1.926 2.294 1.225 3.065 1.14 6.898-.756l4.316-2.135-.674-17.256-.674-17.257 3.117.089c3.226.092 5.133 2.421 3.04 3.714-.908.562-.916 1.767-.03 5.149.958 3.661.819 6.243-.811 15.098-1.128 6.126-1.61 11.244-1.13 12 .459.725.842 2.57.851 4.099.009 1.727.679 3.027 1.765 3.427.963.356 2.007 1.025 2.321 1.488.314.463 1.177-.291 1.919-1.677.741-1.385 1.704-2.519 2.14-2.519 2.48 0 4.667-4.564 5.309-11.076.386-3.918 1.096-6.711 1.624-6.385.515.318.937.102.937-.48s-.562-1.066-1.25-1.074c-.833-.011-.75-.339.25-.985 1.055-.682 1.118-.974.215-.985-.96-.011-1.024-.504-.25-1.949.569-1.064 1.035-4.425 1.035-7.469 0-4.508.278-5.428 1.5-4.959.995.382 1.505 1.97 1.515 4.719.009 2.279.447 4.818.975 5.643.652 1.021.817-.258.516-4-.244-3.025-.182-4.6.137-3.5.319 1.1 1.163 2.336 1.875 2.748 1.439.83.821 4.804-.93 5.987-.664.448-.406.74.662.75 2.349.02 2.97 15.995.655 16.848-.498.184-.905.801-.905 1.373 0 .627.594.546 1.5-.206.865-.718 1.5-.815 1.5-.229 0 .558-.707 1.286-1.57 1.618-3.082 1.182-1.274 4.952 2.57 5.357 1.925.203 4.063 1.104 4.75 2.003 1.151 1.504 1.25 1.5 1.25-.058 0-.93.675-1.691 1.5-1.691.843 0 1.5-.893 1.5-2.038 0-1.62.556-1.979 2.71-1.75 3.024.321 2.931.916 1.939-12.486-.403-5.447-1.3-8.254-4.575-14.327-2.241-4.154-4.126-8.531-4.19-9.726-.077-1.446-.259-1.638-.544-.574-.277 1.032-1.566 1.614-3.634 1.64-1.763.022-2.643-.173-1.956-.433.688-.26 1.25-1.534 1.25-2.83 0-3.128 1.451-3.882 3.51-1.823 1.322 1.322 1.839 1.4 2.471.377.557-.9 1.92-1.084 4.483-.603 3.061.575 3.481.934 2.487 2.132-1.838 2.215.497 1.708 2.542-.552 1.144-1.263 2.664-1.836 4.155-1.566 1.294.235 2.352-.049 2.352-.63 0-.72.421-.706 1.324.043.966.802 1.641.781 2.5-.078.901-.901 1.172-.837 1.161.274-.021 1.951-1.146 3.471-3.101 4.19-1.864.686-1.814 7.154.083 10.699.843 1.574.824 4.194-.076 10.335-1.343 9.171-2.891 12.376-2.891 5.985 0-2.278.45-4.419 1-4.759.55-.34 1-1.266 1-2.059 0-.793-.45-1.441-1-1.441s-1 .702-1 1.559-.45 1.281-1 .941c-.55-.34-1-1.491-1-2.559s-.373-1.941-.828-1.941c-1.302 0-.629 16.348.691 16.788.625.208 1.137 1.466 1.137 2.795 0 3.438 5.473 3.389 9.217-.083 3.297-3.057 5.783-3.242 5.783-.429 0 7.23 10.469 7.376 23.262.324 3.254-1.793 6.386-1.078 7.254 1.656.612 1.926 3.484 2.79 3.484 1.048 0-.496 1.546-1.814 3.435-2.928 2.813-1.66 3.496-2.72 3.768-5.849.301-3.475.498-3.117 2.165 3.932 2.149 9.082 2.761 9.708 6.169 6.3 2.953-2.953 3.757-3.11 5.454-1.065 1.812 2.184 3.031.873 2.351-2.528-.325-1.628-.251-2.961.166-2.961 1.2 0 4.492 4.165 4.492 5.684 0 .759.675 1.638 1.5 1.954.825.317 1.5 1.203 1.5 1.969s.675 1.393 1.5 1.393 1.5-.702 1.5-1.559.402-1.311.893-1.007c.492.304 1.175-.57 1.519-1.941.345-1.371 1.339-2.493 2.209-2.493 1.329 0 1.49-.926 1.002-5.75-1.387-13.706-1.976-16.952-3.693-20.352-1.001-1.982-1.583-4.507-1.294-5.613.582-2.225-3.512-4.104-4.712-2.162-.356.576-.935 1.009-1.286.962-3.066-.41-3.751.105-3.551 2.665.118 1.512.097 4.775-.046 7.25l-.26 4.5-.815-4c-1.69-8.296-3.57-11.177-8.357-12.808-2.448-.834-4.711-1.256-5.03-.938-.318.319-.579.15-.579-.375 0-.524-.845-1.017-1.877-1.095-1.18-.089-1.83.473-1.75 1.512.139 1.812-3.029 2.336-5.123.847-.785-.558-1.25-.47-1.25.235 0 .617.54 1.122 1.2 1.122.896 0 .879.316-.07 1.25-1.018 1.003-1.749.696-3.7-1.556-1.336-1.543-2.43-2.403-2.43-1.91 0 1.21-4.193 3.019-5.75 2.481-.687-.237-1.25-1.949-1.25-3.803 0-3.081.311-3.43 3.61-4.049 2.427-.455 3.859-.272 4.372.558.574.929 1.276.961 2.825.132 3.088-1.652 3.499-1.385 2.852 1.853-.461 2.305-.276 2.834.843 2.405.789-.303 1.36-.846 1.268-1.206-.091-.36.15-1.58.537-2.71.973-2.84 12.286-3.42 13.009-.667.424 1.614.459 1.613.568-.017.075-1.128.906-1.711 2.366-1.659 1.238.044 4.613-.137 7.5-.401 4.231-.388 5.25-.188 5.25 1.031 0 1.272.254 1.302 1.598.187 2.65-2.2 5.525-2.165 6.11.073.306 1.169 1.364 2.008 2.531 2.008 1.608 0 1.775.278.842 1.403-.893 1.075-.87 1.501.096 1.823.852.284.541 1.035-.959 2.319-2.746 2.352-2.874 5.471-.251 6.157 4.182 1.093 4.927 17.245 1.038 22.505-1.61 2.177-1.91 3.288-1.107 4.091.606.606 1.102 2.336 1.102 3.845 0 2.928 3.107 5.857 6.214 5.857.973 0 2.302.853 2.953 1.896 1.357 2.172 2.594 1.327 4.557-3.109.66-1.493 3.034-3.872 5.277-5.287 2.242-1.416 4.509-3.712 5.038-5.102 2.691-7.078-.526-28.069-3.974-25.938-1.699 1.05-4.387-3.513-4.253-7.217.132-3.67.109-3.694-1.176-1.243-.805 1.537-.964 2.954-.41 3.678.668.875-.446 1.11-4.338.913l-5.237-.265-.39-4.657c-.376-4.477-.292-4.649 2.174-4.445 1.411.117 2.565.492 2.565.833 0 .836 6.206.569 7.643-.329.705-.44 1.384.243 1.769 1.779.345 1.371 1.116 2.493 1.714 2.493.598 0 .846-.629.551-1.399-.513-1.337 6.031-3.014 7.323-1.877 1.314 1.155.038 57.276-1.302 57.276-.518 0-.442.604.171 1.342.612.738.858 1.598.545 1.911-.313.313-.092 4.772.491 9.908.583 5.136 1.18 13.726 1.326 19.089.154 5.654.687 9.756 1.267 9.765.551.009.327.452-.498.985-1.333.862-1.333.973 0 1 1.224.025 1.25.189.143.89-.961.609-1.029 1.062-.233 1.554a1.33 1.33 0 0 1 .424 1.825c-.888 1.436-1.1 5.731-.284 5.731.339 0 .617.675.617 1.5s-.43 1.5-.956 1.5c-.574 0-.549.499.063 1.25.561.688.89 3.05.731 5.25-.465 6.467-1.577 14.906-2.023 15.351-.226.227.038 1.253.588 2.28.706 1.318.664 1.869-.142 1.869-.656 0-.869.711-.501 1.67.353.921.065 2.036-.643 2.485-.784.497-.851.82-.173.83.808.011.819 1.108.043 4.015-1.11 4.162-1.679 4.446-8.017 4.019-1.652-.112-2.607.22-2.259.784.333.538-.979 1.275-2.915 1.638-1.935.363-3.258 1.082-2.939 1.598.327.53-.167.651-1.136.28-1.265-.486-1.498-.306-.888.681.606.981.379 1.168-.845.698-.92-.353-2.736-.237-4.037.257-1.389.528-2.733.53-3.258.005-.492-.492-2.012-.597-3.377-.234l-2.483.661 2.5.792c1.489.472-.332.599-4.5.314-3.85-.263-9.363-.482-12.25-.486-3.997-.005-5.25-.365-5.25-1.507 0-1.111 1.167-1.5 4.5-1.5 3.849 0 4.5-.292 4.5-2.021 0-1.192 1.038-2.495 2.528-3.174 1.554-.708 2.1-1.417 1.417-1.839-.735-.454-.556-.901.526-1.317 1.205-.462 2.026.297 3.098 2.861 1.559 3.731 2.862 4.415 3.793 1.99.316-.825.091-1.5-.5-1.5-.592 0-.822-.662-.511-1.471.31-.809-.092-2.127-.893-2.929-.802-.801-1.458-2.191-1.458-3.088 0-.98-.462-1.345-1.158-.915-.8.495-.975.02-.568-1.537.801-3.064-.115-5.06-2.322-5.06-2.175 0-3.419 1.593-1.952 2.5.568.351.797 1.02.508 1.486-.691 1.12-7.198-.686-11.139-3.091-3.046-1.859-3.145-1.861-3.619-.045-.269 1.026-.051 2.648.484 3.604.648 1.158.615 2.097-.098 2.81-.761.761-1.255.588-1.71-.597-.352-.917-1.379-1.681-2.283-1.697-1.392-.026-1.357-.197.227-1.117 1.51-.877 1.606-1.254.5-1.955-2.155-1.365-3.864-1.046-3.232.602.377.981-.066 1.547-1.281 1.636-1.021.075-3.56.282-5.642.46-3.03.259-3.727.003-3.5-1.283.157-.883-.277-1.802-.965-2.043-.687-.24-1.25.051-1.25.647s-.655 1.083-1.455 1.083c-1.001 0-.689.765 1 2.455 2.568 2.567 3.152 4.996 1.455 6.045-.55.34-1 1.131-1 1.759 0 .822.336.805 1.2-.059 2.415-2.415 5.559-1.47 5.157 1.55-.202 1.513-.102 2.188.222 1.5.323-.687 1.338-1.257 2.254-1.265 1.311-.012 1.378-.198.316-.871-1.098-.697-1.01-1.253.473-2.985 1.975-2.307 3.528-2.805 3.128-1.004-.138.619.277 1.319.921 1.557.772.285.973-.327.59-1.794-.474-1.812-.259-2.101 1.16-1.557.958.368 2.412.669 3.23.669.971 0 1.377.782 1.169 2.25-.26 1.825-.957 2.25-3.69 2.25-3.104 0-3.392.265-3.643 3.356-.282 3.485-2.884 7.08-4.184 5.78-.41-.41-.148-1.114.583-1.565 1.021-.632 1.048-.994.114-1.571-.93-.575-.896-.951.143-1.61 1.054-.668.963-.863-.409-.875-1.033-.009-2.44 1.398-3.389 3.388-2.354 4.936-11.111 6.784-9.934 2.097.345-1.375.259-2.5-.191-2.5s-1.405-1.623-2.122-3.606c-.758-2.095-2.529-4.294-4.229-5.25-4.681-2.631-5.468-10.346-1.119-10.964 2.556-.363 2.869-1.421.902-3.054-2.036-1.69-1.913-7.108.165-7.205 1.04-.049 1.206-.271.433-.583-1.609-.65-1.609-4.786 0-7.382 1.029-1.661.985-2.205-.25-3.081-1.262-.895-1.222-.974.25-.501 1.884.606 2.424-.839.709-1.899-.572-.354-.779-1.468-.459-2.475.32-1.007.188-2.075-.293-2.372-1.397-.863-.137-6.562 1.748-7.903 2.377-1.692 3.398-8.375 1.397-9.143-.858-.33-1.372-1.535-1.205-2.828.16-1.24-.078-2.847-.528-3.571-.562-.903-.132-1.498 1.365-1.889 1.675-.438 1.874-.782.851-1.474-.995-.673-.859-.829.532-.612 3.186.498 4.05-2.303 2.079-6.737-.971-2.184-1.822-4.196-1.891-4.471-.069-.275-.655-1.45-1.302-2.612-.671-1.205-1.018-4.639-.808-8 .359-5.732.335-5.795-.878-2.388l-1.247 3.5-1.285-5.358-1.286-5.357-2.289 2.664c-2.207 2.568-2.313 2.59-2.939.616-.358-1.126-.369-2.501-.027-3.056.343-.555-.078-1.009-.935-1.009-.857 0-1.559.675-1.559 1.5s-.505 1.5-1.122 1.5c-.812 0-.822.362-.036 1.31 1.233 1.485.211 6.609-1.342 6.73-.55.043-1.293-.961-1.65-2.231-.527-1.871-.67-1.636-.75 1.241-.097 3.435-1.537 5.95-3.407 5.95-.499 0-.648-.675-.331-1.5.316-.825.143-1.5-.386-1.5s-.891 1.801-.805 4.003c.086 2.201-.142 4.301-.507 4.666-.365.366-.664-1.613-.664-4.395 0-3.55.443-5.23 1.483-5.629 1.461-.561 1.35-1.825-.539-6.145-.48-1.1-1.248-3.543-1.704-5.43l-.831-3.43-1.841 4.93c-1.013 2.712-2.423 5.605-3.134 6.431-.9 1.045-.995 2.031-.314 3.25.654 1.167.637 1.749-.051 1.749-1.544 0-2.392-4.578-1.677-9.047.633-3.961-.814-5.623-2.063-2.369-.365.951-.862 1.172-1.245.553-.41-.665-1.161-.694-2.11-.084-1.276.82-1.281 1.071-.038 1.871 1.185.763 1.209 1.197.136 2.489-1.846 2.225-7.072-.826-7.072-4.129 0-1.256-.45-2.284-1-2.284s-1 1.594-1 3.542c0 1.948-.456 4.086-1.014 4.75-2.595 3.091-5.757 8.604-5.234 9.127.32.319.008.581-.692.581-.741 0-1.025-.65-.678-1.552.344-.897.174-1.292-.402-.935-1.159.715-.675-11.899.572-14.927.518-1.258.426-1.69-.269-1.261-.581.359-1.355 2.245-1.72 4.192-.709 3.78-2.563 3.863-2.563.115 0-1.237-.618-3.095-1.373-4.128-1.326-1.813-1.397-1.802-2.068.309-.381 1.203-1.146 2.187-1.698 2.187s-.329.675.496 1.5 1.982 1.5 2.572 1.5c.589 0 1.071.48 1.071 1.067s-.788.823-1.75.523c-.962-.299-2.425-.112-3.25.418-1.089.698-1.141.966-.191.977.72.008 1.043.445.718.971-.785 1.271-3.524.173-3.245-1.301.12-.635-.562-1.024-1.516-.865-1.263.211-1.58-.196-1.168-1.5.5-1.583.383-1.566-1.016.151-1.501 1.841-1.582 1.728-1.582-2.191 0-2.273-.394-4.375-.875-4.673-.481-.297-.648 1.476-.37 3.941.412 3.66.21 4.482-1.102 4.482-.884 0-2.381 1.238-3.327 2.75-.947 1.512-1.881 2.962-2.078 3.221-.718.948-2.221-2.553-2.349-5.471-.079-1.814-.316-2.286-.599-1.195-.679 2.621-2.746 1.501-3.122-1.691-.187-1.583-.818-2.55-1.5-2.298-.648.239-1.011 1.053-.806 1.809.204.756.613 2.233.907 3.281.408 1.452.2 1.696-.871 1.025-.775-.484-2.241-.744-3.259-.576-1.647.271-1.773-.16-1.141-3.902.503-2.978.387-4.006-.399-3.521-.61.378-1.109 1.297-1.109 2.044 0 .746-.563 1.584-1.25 1.862-1 .403-1 .52 0 .583 2.755.174 1.205 3.079-1.643 3.079-3.182 0-4.237 1.569-3.464 5.154.489 2.27.455 2.284-1.058.419-.861-1.06-1.906-1.584-2.325-1.164-.418.42.31 1.631 1.619 2.691 2.364 1.918 2.624 8.179.406 9.819-.432.32-.72 1.481-.641 2.581.079 1.1.191 2.788.25 3.75.164 2.713 1.889 2.071 3.665-1.365 1.851-3.578 3.652-2.741 3.932 1.825.094 1.535.533 3.611.976 4.615.628 1.426.414 1.754-.977 1.5-.981-.179-2 .3-2.266 1.064-.295.847-.042 1.117.646.691.666-.411 1.13-.019 1.13.957 0 1.964 3.734 7.463 5.068 7.463.513 0 .932-.675.932-1.5s-.675-1.5-1.5-1.5-1.5-.45-1.5-1 .62-1 1.378-1c2.361 0 4.146-2.862 2.24-3.593-1.984-.762-1.171-2.246 1.864-3.4 1.258-.479 3.127-2.689 4.153-4.913 3.119-6.76 4.321-5.359 4.846 5.65.31 6.514.071 8.076-1.495 9.756-1.803 1.934-1.986 2.348-1.986 4.5 0 .55-.9 1-2 1s-2 .45-2 1 .45 1 1 1 1 .414 1 .921c0 .984-5.669 2.611-7.75 2.224-1.507-.28-1.61 1.313-.251 3.854.803 1.5.592 1.996-1.075 2.525-1.141.362-1.82.914-1.508 1.225.312.312.109 1.118-.45 1.792-.717.864-.576 1.395.476 1.799.822.315 1.748.162 2.058-.34 2.147-3.475 5.288 3.682 3.505 7.987-1.142 2.758-4.005 3.72-4.005 1.346 0-.733-.45-1.333-1-1.333-1.615 0-1.153 1.847 1 4 1.1 1.1 1.611 2 1.137 2-.475 0-.813 1.012-.75 2.249.077 1.544.74 2.249 2.113 2.25 1.276.001 1.952.623 1.866 1.72-.131 1.685 3.225 3.523 4.36 2.388.317-.317 1.108.152 1.758 1.041 1.085 1.483 1.403 1.472 3.849-.131 2.659-1.742 2.667-1.739 2.667.918 0 2.533-2.496 8.565-3.545 8.565-.271 0-.211-1.125.134-2.5.357-1.42.195-2.5-.374-2.5-1.237 0-2.215 2.412-2.215 5.462 0 1.561-1.926 3.981-6 7.538-3.3 2.882-6 5.86-6 6.62 0 1.476-.164 1.548-4 1.749-2.305.121-2.5-.209-2.5-4.241 0-4.137.228-4.487 4.222-6.5 2.387-1.203 4.234-2.853 4.25-3.796.045-2.711-1.087-4.832-2.579-4.832-1.633 0-1.721.519-.477 2.842 1.106 2.069-6.259 7.03-7.487 5.043-.377-.61-.078-1.484.664-1.942.742-.459 1.078-1.105.747-1.436-1.008-1.008-3.793 2.451-3.206 3.981.765 1.993-5.559 10.512-7.804 10.512-4.252 0-.632-9.311 4.485-11.536l3.185-1.386-3.095-.039c-1.864-.023-3.815.757-4.905 1.961-.995 1.1-2.415 2-3.155 2-.74 0-1.345.468-1.345 1.04 0 1.723-4.28 6.96-5.688 6.96-1.735 0-1.687-.245.917-4.693 2.422-4.135 5.583-7.221 7.45-7.274 1.425-.04 4.611-3.076 3.936-3.751-1.648-1.648-10.699 5.346-13.268 10.253-2.742 5.238-2.797 5.277-7.555 5.313-2.635.021-4.792-.387-4.792-.905 0-.519.787-.951 1.75-.961 3.629-.037 12.634-13.499 10.094-15.089-.939-.588-1.443-.229-1.672 1.194-.18 1.119-.965 2.28-1.744 2.579-.779.299-1.155.966-.836 1.483.672 1.088-1.363 3.851-2.837 3.851-.568 0-.474-.633.217-1.466.669-.807 1.062-1.931.873-2.498-.518-1.548-5.046 2.924-7.558 7.464-1.979 3.577-2.56 3.964-5.5 3.657-4.239-.442-4.223-.413-2.287-4.157.906-1.752 1.421-3.413 1.143-3.69-.277-.277-1.495 1.452-2.708 3.843-1.212 2.391-2.57 4.584-3.018 4.874-.448.291-.353 3.86.211 7.932 1.116 8.05.508 13.86-1.532 14.643-.8.306-1.302 2.291-1.315 5.197-.024 5.267-1.184 17.437-1.712 17.966-.189.188-1.857-.58-3.706-1.707-1.85-1.128-3.727-2.052-4.172-2.054-1.532-.007.486 2.083 4.393 4.549 3.045 1.922 3.916 3.1 3.916 5.293 0 1.551.533 5.473 1.184 8.715 1.054 5.25 1.265 5.593 1.921 3.137.406-1.517.323-4.204-.183-5.971-1.178-4.106-1.175-6.727.006-6.727.511 0 1.442 2.587 2.069 5.75s1.578 7.44 2.113 9.505c.799 3.081.517 5.201-1.568 11.802-2.98 9.431-2.997 9.566-1.042 7.943.825-.685 1.5-1.656 1.5-2.158s.764-2.078 1.697-3.502c1.751-2.673 2.625-8.602 2.738-18.59.036-3.163.209-5.75.385-5.75.568 0 8.987 5.95 10.355 7.318.729.729 1.66 1.409 2.069 1.512 2.531.637 16.503 10.797 15.741 11.446-.267.227-4.085 3.071-8.485 6.319-4.4 3.248-12.53 9.73-18.067 14.405-17.949 15.154-26.617 22.15-26.987 21.78-.199-.2 1.888-2.819 4.638-5.821 2.749-3.003 6.203-7.259 7.674-9.459 17.849-26.693 27.193-41.756 23.572-38-2.898 3.006-14.783 20.282-19.607 28.5-3.067 5.225-8.276 12.381-11.575 15.902-5.88 6.274-6.06 6.377-9.007 5.157-1.915-.794-2.811-1.756-2.467-2.652.297-.774.015-1.407-.626-1.407s-.889.449-.55.997c.404.653-.306.646-2.055-.019-2.288-.869-2.582-.781-2.046.615.525 1.367.182 1.501-2.136.827-4.103-1.191-10.383-1.326-15.685-.335-3.783.706-5.206.549-7.276-.808-1.426-.934-2.051-1.86-1.403-2.076.644-.215 1.805.136 2.58.78 1.149.953 1.382.739 1.259-1.155-.083-1.279-.958-2.914-1.943-3.633-.986-.718-1.793-2.207-1.793-3.309 0-1.101-.427-1.738-.95-1.415-1.586.98-3.262-3.449-2.868-7.58.204-2.139.021-3.889-.406-3.889-.87 0-1.093 1.365-.797 4.886.11 1.312-.403 2.774-1.14 3.25-.946.61-1.014 1.084-.231 1.614.61.413.987 1.538.839 2.5-.149.968.361 1.75 1.141 1.75.777 0 1.299.563 1.162 1.25-.138.688.269 1.152.904 1.032.635-.12 1.702.443 2.373 1.25 1.365 1.645.539 1.788-8.527 1.471-5.792-.203-6.29-.488-4.896-2.798.565-.938 1.135-3.718 1.266-6.179.13-2.461.721-4.773 1.312-5.138.591-.366.76-1.174.375-1.796-.854-1.382 1.236-8.092 2.521-8.092 1.481 0 1.061-3.64-.578-5-.979-.812-1.538-3.201-1.61-6.872l-.109-5.628-.862 4.388c-.474 2.414-1.078 4.604-1.342 4.869-.452.451-14.223-11.095-15.812-13.257-.418-.569-.741-.271-.75.693-.008.932 2.46 4.035 5.485 6.895 3.025 2.861 5.5 5.838 5.5 6.616 0 .778.402 1.166.893.862.961-.594 2.552 4.322 1.681 5.193-.727.727-9.547-6.622-9.692-8.076-.066-.651-.046-1.745.043-2.433.09-.687-.532-1.25-1.381-1.25-2.07 0-1.958 2.879.206 5.304 1.689 1.893 1.671 1.937-.5 1.262-2.821-.878-3.073 1.38-.421 3.779 2.528 2.288 2.97 2.087 2.407-1.095-.541-3.058-.062-2.713 4.069 2.933 1.54 2.105 2.695 4.998 2.695 6.75 0 3.09 1.367 4.134 2.38 1.817.301-.687.433 2.575.295 7.25-.139 4.675-.648 9.36-1.132 10.411-.925 2.007-.963 2.008 5.707-.093 2.859-.901 1.988 1.624-1 2.897-1.513.644-3.495 1.791-4.405 2.548-1.469 1.22-1.732 1.029-2.33-1.694-.862-3.926-2.03-3.899-3.417.08-1.515 4.345-1.374 5.598.37 3.292 1.267-1.674 1.473-1.712 1.5-.273.079 4.139-2.395 6.464-3.279 3.082-.281-1.077-.502-.692-.573 1-.122 2.885-1.536 3.704-2.419 1.402-.285-.741-2.548-2.302-5.03-3.468-5.546-2.608-6.511-5.088-3.779-9.719 2.044-3.464 1.454-4.787-.88-1.975-.72.868-2.129 1.268-3.372.957-2.048-.512-2.136-.203-2.136 7.461 0 4.398-.468 8.463-1.04 9.034-1.485 1.483-7.389-.395-9.151-2.911-.782-1.117-2.089-2.031-2.903-2.031-1.141 0-1.371-.915-1.002-3.977.544-4.518-.906-6.45-1.699-2.263-.285 1.507-.826 3.709-1.203 4.894-.527 1.656-.193 2.309 1.444 2.829 1.171.372 3.243 2.44 4.604 4.596 1.361 2.157 3.257 3.955 4.213 3.998 20.527.903 25.802-.213 28.365-6.003l1.314-2.97 1.283 2.698 1.284 2.698-.402-2.937c-.526-3.854.204-5.563 2.378-5.563.973 0 2.33-.675 3.015-1.5s2.366-1.5 3.736-1.5c2.399 0 2.466.175 1.821 4.75-1.218 8.628-3.077 10.183-8.623 7.215-1.064-.57-1.934-.732-1.934-.36 0 1.28 3.506 3.331 5.75 3.363 1.237.018 2.25.482 2.25 1.032 0 1.429-3.075 1.172-6-.5-4.575-2.615-5.511-1.545-1.523 1.741 2.162 1.783 4.852 3.14 5.977 3.017 2.023-.223 2.024-.215.046.706-1.632.761-1.357.899 1.497.752 2.315-.118 4.263-1.031 5.763-2.698l2.265-2.518 2.811 3.25c3.418 3.953 5.679 4.089 9.359.563 1.89-1.81 2.818-2.218 2.845-1.25.022.79.703.216 1.513-1.277 1.781-3.281 4.908-2.812 3.833.575-.572 1.801-.447 1.935.823.88.97-.805 3.048-1.033 5.895-.647 3.895.528 4.681.286 6.896-2.123l2.5-2.719-2.5.748-2.5.748 2.434-2.634c1.838-1.99 2.653-2.327 3.326-1.375.664.939.779.878.447-.239-.507-1.708 3.744-5.971 16.793-16.837 4.95-4.122 10.35-8.729 12-10.237 2.727-2.491 11.551-9.881 14-11.724.55-.414 3.832-2.92 7.294-5.57l6.294-4.817 13.69 9.007c7.529 4.954 14.079 8.767 14.555 8.472.476-.294-1.615-2.168-4.647-4.165a2621.995 2621.995 0 0 1-13.695-9.108l-8.182-5.478 2.345-1.836c2.573-2.014 13.132-8.95 18.853-12.385l3.628-2.177 3.699 3.811 3.699 3.811-3.517 3.517c-5.433 5.433-4.514 10.299 2.475 13.096 5.314 2.126 6.74 2.044 7.526-.433.815-2.57 2.599-1.307 6.191 4.383 1.34 2.122 2.69 3.605 3 3.296.309-.31-.259-1.815-1.263-3.345-1.004-1.529-5.045-9.081-8.98-16.781-3.935-7.7-7.976-15.575-8.979-17.5-1.004-1.925-2.174-4.242-2.601-5.15-.995-2.113-1.424-11.17-.592-12.515.367-.594 7.652-1.274 17.307-1.617 9.629-.341 17.122-1.04 17.736-1.654 1.235-1.235-2.975-1.278-16.836-.171-9.396.75-12.5.493-12.5-1.035 0-.5 2.025-.757 4.5-.571 2.475.187 4.5.082 4.5-.232 0-.313 4.613-.67 10.25-.792 5.637-.123 15.988-.378 23-.568 7.465-.203 12.75.041 12.75.586 0 .513.675.674 1.5.357.972-.373 1.505.029 1.515 1.143.013 1.449.162 1.488.946.248.512-.809 1.225-1.177 1.585-.817 1.649 1.649-1.111 2.425-9.363 2.631-4.914.123-9.778.386-10.809.583-1.031.198-5.298.68-9.484 1.071-4.185.392-8.235 1.108-9 1.592-1.841 1.166 12.364 1.152 17.398-.016 4.128-.958 8.811-.167 8.443 1.427-.127.55-1.581.903-3.231.785-4.722-.339-5.96.398-3.985 2.373 1.262 1.262 1.51 2.652 1.028 5.753-.35 2.249-.728 4.989-.84 6.089-.111 1.1-.529 2.245-.928 2.543-.398.299-.874 1.525-1.057 2.725-.382 2.499-1.718 4.236-1.718 2.232 0-2.606-1.33.046-1.629 3.246a166.08 166.08 0 0 1-.863 7.091c-.476 3.267-.258 3.915 1.466 4.367 2.771.724 2.789 5.817.026 7.296-2.877 1.54-2.485 3.113 1.587 6.362 2.491 1.988 3.437 3.439 3.094 4.75-.272 1.039-.198 1.945.163 2.016.361.07 1.587.229 2.725.354 5.932.652 9.337 1.757 10.97 3.561 1.387 1.533 2.004 1.704 2.622.731.584-.92.813-.771.824.535.008.995.427 1.554.931 1.243 1.71-1.057 6.085 1.281 5.458 2.916-.775 2.019 1.339 1.962 3.391-.091 1.403-1.403 1.698-1.422 2.179-.142 1.626 4.327 16.7-3.084 15.804-7.771-.456-2.388 3.283-4.102 10.597-4.859 1.565-.162 3.234-.923 3.708-1.691.475-.768 1.619-1.4 2.543-1.405 1.665-.009 2.753-1.374 3.806-4.774.301-.971 1.645-2.182 2.987-2.693 2.855-1.085 4.265-4.55 2.645-6.501-.778-.937-.804-1.565-.083-2.011.577-.356 1.049-1.473 1.049-2.481 0-1.767.134-1.765 3.711.059 2.042 1.041 4.629 1.899 5.75 1.907 2.679.019 10.025 2.602 13.065 4.594 1.326.869 2.987 1.377 3.692 1.13.705-.247 3.307.155 5.782.895 2.475.739 7.2 1.306 10.5 1.26l6-.084-8.218-1.655c-4.52-.91-8.773-2.217-9.45-2.905-.678-.687-2.07-1.25-3.094-1.25s-5.096-1.566-9.05-3.479c-3.953-1.913-9.487-4.057-12.297-4.764-4.737-1.192-5.048-1.453-4.257-3.591.913-2.466 5.611-2.806 5.109-.37-.338 1.638 1.96 2.449 18.979 6.699 15.011 3.748 21.984 5.753 27.778 7.986 1.925.742 4.363 1.627 5.417 1.967 3.099.998.235 2.9-4.13 2.743-2.653-.095-3.348.138-2.321.779 5.354 3.342-19.553 5.384-26.401 2.166-2.499-1.175-5.561-2.1-6.804-2.055-1.84.066-1.563.407 1.49 1.832 2.063.964 3.45 2.052 3.083 2.42-.367.367.478.667 1.877.667 1.4 0 4.195.689 6.211 1.532 2.016.842 3.984 1.346 4.372 1.12.388-.227 3.509-.703 6.935-1.058 3.426-.356 8.3-1.535 10.833-2.62 7.864-3.372 9.557-2.379 4.388 2.573-2.246 2.153-2.899 3.518-2.48 5.188.338 1.349.113 2.265-.558 2.265-.619 0-.878.647-.574 1.438.355.925-.23 1.589-1.643 1.864-2.147.416-2.145.429.122.562 1.923.113 2.2.52 1.626 2.386-.939 3.055-.985 3.082-4.009 2.323-2.568-.645-2.598-.734-.891-2.62.972-1.074 1.273-1.953.669-1.953-.604 0-1.687.829-2.405 1.842-.719 1.013-2.657 2.367-4.307 3.01l-3 1.168 3-.43c3.815-.546 7.5 2.296 7.5 5.785 0 1.502.797 2.981 1.934 3.59 3.447 1.844 4.176 1.102 1.917-1.953-2.431-3.288-1.819-5.098 1.106-3.271 1.484.927 1.979.868 2.423-.288.306-.799 1.021-1.453 1.589-1.453 1.523 0 1.252 2.922-.427 4.6-.801.802-1.194 2.143-.873 2.98.33.859-.418 2.588-1.717 3.971-1.265 1.347-1.842 2.449-1.281 2.449 1.647 0 4.035-3.182 5.899-7.864l1.738-4.364 7.096.672c4.773.452 7.505 1.207 8.346 2.305.688.898 1.25 1.109 1.25.468s1.35-1.864 3-2.717 3-2.045 3-2.648c0-.745-.468-.709-1.456.112-.801.664-1.895.937-2.431.606-.536-.332-1.289-.094-1.674.528-.473.766-2.673.913-6.819.455-9.254-1.022-10.606-1.514-10.736-3.911-.092-1.691-.212-1.773-.573-.392-.63 2.411-4.933 2.303-5.572-.139-.81-3.1.76-4.766 2.872-3.047 1.568 1.277 1.692 1.246 1.121-.28-.712-1.901 1.548-1.728 10.004.764 4.079 1.201 9.368.742 12.298-1.069.778-.481 1.837-.048 2.736 1.118 1.372 1.78 1.425 1.721.817-.899-.47-2.021-.085-3.52 1.381-5.384 2.391-3.04 2.557-5.814.623-10.442-3.613-8.644-5.794-9.675-21.091-9.962-8.285-.156-12.918-1.046-19.5-3.746-1.375-.564-3.725-1.287-5.222-1.607-1.498-.32-3.523-1.398-4.5-2.395-1.017-1.038-8.523-3.694-17.528-6.203-11.583-3.227-15.751-4.794-15.753-5.924-.002-1.094 5.679-22.908 6.434-24.703.039-.092 3.64.233 8.001.722 5.49.616 8.336.554 9.246-.202.849-.704 4.723-.91 10.934-.582 13.379.708 17.641.071 16.3-2.435-1.257-2.347-.495-4.997 2.114-7.358 2.287-2.07 2.358-1.877.872 2.386-1.874 5.375-.118 7.345 2.11 2.367 1.042-2.326 2.293-4.23 2.78-4.23 1.496 0 7.118-18.113 7.759-25 .333-3.575 1.751-13.25 3.152-21.5 1.4-8.25 2.913-17.925 3.36-21.5.448-3.575 1.457-9.65 2.243-13.5.786-3.85 1.459-8.125 1.497-9.5.037-1.375.383-6.1.768-10.5s.658-9.35.606-11a266.82 266.82 0 0 1-.088-7.25c.004-2.449-.463-4.25-1.102-4.25-.61 0-1.029.788-.931 1.75.419 4.12-.105 18.531-.653 17.982-.331-.331-.691-5.34-.799-11.132-.109-5.792-.482-10.816-.83-11.163-1.411-1.411.495-3.488 2.591-2.823 1.879.597 1.967.486.759-.97-1.114-1.342-1.122-1.644-.042-1.644 1.053 0 1.069-.253.08-1.242-.988-.988-1.433-.938-2.184.25-.801 1.266-.946 1.227-.959-.258-.008-.962.675-1.75 1.518-1.75 2.115 0 1.441-37.767-.697-39.123-.999-.633-1.021-.85-.086-.862.905-.011 1.246-2.432 1.235-8.765-.01-5.33-.354-8.215-.883-7.381-.477.752-.76 3.354-.629 5.78.238 4.423-.884 6.853-1.658 3.59-.227-.957-.475-6.914-.552-13.239-.094-7.762.128-10.427.683-8.199 1.653 6.638 2.223 4.452 1.512-5.801-.401-5.775-1.177-10.788-1.725-11.14-.947-.609-.189-7.86.821-7.86.255 0 2.327 1.35 4.605 3 10.492 7.6 25.203-.09 29.189-15.26 2.861-10.886 3.515-17.82 3.229-34.24-.184-10.536.097-16.479.822-17.404 1.013-1.292 1.781-67.587.82-70.735-.192-.627-1.235-.908-2.32-.624-1.886.493-1.963 1.364-1.773 20.139.11 10.793.464 22.774.787 26.624.684 8.156-.32 19.572-2.363 26.87-.791 2.821-2.156 12.105-3.035 20.63-2.42 23.471-6.347 36.011-13.146 41.981-4.143 3.637-6.669 3.008-13.619-3.391l-4.75-4.373-.112-20.359c-.123-22.188-.105-30.162.092-42.358l.129-8 1.72 4.5c1.17 3.063 2.378 4.595 3.781 4.798 1.445.209 2.334 1.404 2.975 4 1.005 4.066 3.027 4.547 2.727.648-.104-1.345.181-2.446.633-2.446.451 0 .2-1.802-.558-4.003-.759-2.202-1.677-9.877-2.04-17.056-.381-7.532-1.011-12.5-1.489-11.746-.455.718-.87 2.43-.922 3.805-.051 1.375-.321 1.938-.598 1.25-.278-.687-1.403-1.25-2.502-1.25-1.401 0-2.466-1.193-3.568-4-.864-2.2-1.953-4-2.42-4a25.11 25.11 0 0 1-1.598-.059c-1.536-.121-1.866 4.687-.58 8.435 1.663 4.846 1.657 5.141-.072 3.705-.771-.639-1.679-2.27-2.019-3.622-.543-2.163-1.126-2.44-4.848-2.299-3.697.14-3.82.211-.974.564 2.443.303 3.671 1.201 4.91 3.59 2.139 4.125 6.16 18.813 5.597 20.442-.684 1.978-2.264.38-2.264-2.289 0-1.693-.933-2.898-3.119-4.028-2.95-1.526-3.094-1.869-2.663-6.354.433-4.507.303-4.81-2.631-6.136-1.698-.768-3.503-1.269-4.011-1.114-.508.154-3.146-.252-5.863-.904-4.061-.974-5.093-.94-5.81.192-.689 1.088-.876 1.01-.888-.373-.009-1.111.806-1.802 2.235-1.893 1.238-.078-2.003-.489-7.201-.914-7.213-.589-9.752-1.184-10.724-2.513-2.639-3.609-4.525-12.797-4.15-20.217.308-6.101.159-7.022-.903-5.57-.7.957-1.272 3.003-1.272 4.548s-.398 2.809-.883 2.809c-1.357 0-2.073-5.339-.906-6.75.973-1.176-.745-1.763-2.925-1-1.181.414-1.433 12.206-.317 14.819.844 1.974.925 1.585.432-2.069-.864-6.405.878-4.048 3.488 4.717 1.182 3.97 2.413 7.908 2.737 8.75.504 1.314-.835 1.533-9.366 1.533-9.307 0-10.031-.146-11.133-2.25l-1.179-2.25.443 2.292c.416 2.147.149 2.278-4.224 2.084-6.779-.302-6.945-.445-6.596-5.683l.312-4.693-1.109 4.75c-1.094 4.683-1.165 4.75-5.079 4.75h-3.97l.659-5.75c.714-6.232 3.235-14.938 4.952-17.098.589-.741 1.202-2.205 1.362-3.255.252-1.649.03-1.744-1.639-.702-1.061.663-1.732 1.525-1.491 1.915.241.39-.435 2.746-1.502 5.236-1.067 2.49-2.479 7.368-3.138 10.84-.659 3.473-1.478 6.632-1.819 7.02-.342.389-4.894.343-10.115-.102-5.222-.444-9.921-.424-10.444.044-.537.481 1.421.856 4.5.861 10.641.017 15.722 1.056 16.473 3.37.596 1.835.752 1.886 1.154.381.666-2.489 8.041-2.155 9.423.427 1.203 2.247.221 4.298-1.439 3.007-.639-.497-6.223-.856-12.411-.799-6.187.058-11.25-.145-11.25-.45 0-.306-2.475-.434-5.5-.286-3.67.179-5.5-.119-5.5-.895 0-.865-.308-.856-1.2.036-1.633 1.633-2.8 1.508-2.8-.3 0-.825-.45-1.5-1-1.5s-.888.506-.75 1.125c.137.619-.312 1.331-1 1.583-.687.252-1.257-.141-1.265-.875-.012-.998-.256-.956-.973.167-.706 1.106-.899.646-.735-1.748l.223-3.248 6.25-.002c3.438-.001 6.25-.386 6.25-.855 0-.47-4.837-.711-10.75-.536-5.913.175-11.529.334-12.481.354-.962.019-1.991 1.071-2.316 2.367-.516 2.054-1.015 2.262-4.187 1.746-3.938-.64-5.498-2.56-2.278-2.802 1.107-.083 2.012.27 2.012.786s.477.938 1.059.938.774-.461.426-1.025c-.349-.563-.263-.901.191-.75.453.151.824-.105.824-.569 0-.901-8.102-1.684-20.828-2.01-7.303-.188-10.36.508-7.428 1.69.691.278.018.542-1.494.585-1.512.043-2.75.529-2.75 1.079 0 .55-.45 1-1 1s-.993-1.012-.985-2.25c.009-1.329.316-1.784.75-1.111.538.834 1.059.79 1.943-.163.982-1.058.07-1.366-4.847-1.639-3.331-.185-6.264 0-6.518.413-.253.413.803.757 2.348.765 1.563.009 2.306.341 1.675.75-.624.404-1.359 1.635-1.634 2.735-.478 1.912-.505 1.907-.616-.113-.137-2.493-3.634-2.756-5.154-.387-.855 1.333-1.071 1.333-1.947 0-.658-1.003-.989-1.086-1-.25-.018 1.517-4.703 1.685-5.202.188-.249-.747-1.203-.74-3.209.022-5.238 1.992-15.014.185-11.401-2.106.75-.476-1.69-.83-5.786-.839-7.58-.016-9.05.517-7.286 2.643.819.987.817 1.342-.009 1.342a1.134 1.134 0 0 1-1.122-1.14c0-.626-1.183.604-2.628 2.734-1.446 2.13-3.359 4.429-4.25 5.108-1.402 1.067-1.215 1.241 1.378 1.282 5.256.082 6.35 1.715 1.922 2.866-3.257.848-19.113.827-22.069-.028-.469-.136-1.902.334-3.185 1.045-2.753 1.524-4.468-.085-6.094-5.715-.862-2.985-.675-3.618 1.73-5.853l2.696-2.506-22.5.627c-12.375.344-26.55 1.06-31.5 1.589-4.95.53-13.05 1.227-18 1.549-4.95.322-9.675.808-10.5 1.081-.825.273-8.362.737-16.75 1.031l-15.25.535-.158-2.353c-.258-3.853.349-7.376 1.462-8.49.383-.382.696.409.696 1.759 0 2.219 3.843 4.168 4.077 2.067.654-5.884 1.651-6.153 2.997-.81 1.637 6.503 2.609 5.763 3.448-2.628.398-3.988 1.372-8.15 2.164-9.25 1.322-1.838 1.384-1.697.765 1.75-1.018 5.668.663 4.413 4.454-3.325 4.471-9.127 5.292-8.052 1.134 1.486-1.788 4.1-3.077 7.976-2.864 8.613.795 2.386 6.841-14.52 6.833-19.107-.01-5.998-.61-6.392-4.37-2.867-1.726 1.617-3.7 2.943-4.388 2.945-2.237.009-1.317-3.007 1.278-4.19 1.882-.857 2.202-1.38 1.25-2.044-.816-.57-.375-.664 1.222-.261 1.714.433 2.073.335 1.143-.309-.948-.658-1.023-1.147-.25-1.625.609-.376 1.107-.207 1.107.375S97.477 237 98.059 237s.738-.52.346-1.155c-.417-.674-.277-.884.336-.505.577.357 1.346-.124 1.708-1.068.564-1.471.792-1.506 1.589-.244.816 1.289.934 1.285.954-.028.012-.825 1.587-2.566 3.5-3.869 3.44-2.342 4.001-4.97.697-3.264-.929.481-2.475.747-3.435.592-.96-.154-1.999.129-2.309.63-.31.501-.086.911.496.911s1.059.45 1.059 1-.927 1-2.059 1c-1.132 0-1.781-.45-1.441-1 1.271-2.056-.873-.874-5.612 3.094-2.69 2.252-4.638 4.502-4.33 5 .308.498.083.906-.499.906S88 239.73 88 240.622c0 1.297-.288 1.384-1.436.431-1.046-.868-1.98-.901-3.434-.122-1.099.588-3.691 1.069-5.76 1.069h-3.762l3.446-3.566c1.895-1.961 4.932-4.488 6.749-5.614 5.457-3.385 2.66-3.368-3.809.022-6.912 3.624-7.132 3.681-6.356 1.658.317-.825 1.031-1.5 1.587-1.5s2.645-1.366 4.643-3.035c5.133-4.288 5.325-4.43 9.96-7.357 2.295-1.448 4.172-3.023 4.172-3.499s2.475-2.57 5.5-4.653c3.025-2.084 5.5-3.939 5.5-4.122 0-.933-2.129.109-8.5 4.158m203.5 12.74l2.5 1.105-3.5.749-3.5.748 3.514-.121c4.628-.161 6.327.965 5.511 3.65-.963 3.171-1.243 11.793-.337 10.367.553-.87.786-.735.797.461.008.93-.435 1.969-.985 2.309-.55.34-1 .141-1-.441s-.675-1.059-1.5-1.059c-1.133 0-1.5-1.222-1.5-5 0-4.556-.205-5-2.309-5-3.905 0-6.427 2.492-4.957 4.9 1.619 2.652.613 5.633-1.351 4.003-1.093-.907-1.39-.755-1.414.725-.034 2.025-3.088 4.645-6.774 5.812-3.019.956-2.362 2.643 1.878 4.818 4.7 2.412 11.428 1.739 18.526-1.853 3.154-1.595 6.672-2.769 7.817-2.608 1.653.232 1.782.089.624-.691-1.263-.851-1.229-1.24.25-2.874 2.637-2.914 2.022-3.874-.79-1.232-3.019 2.836-3.174 2.153-.504-2.226 1.098-1.801 1.998-4.763 2-6.583.003-2.183.384-3.074 1.122-2.618.711.439.901 2.372.522 5.309-.431 3.344-.318 4.146.411 2.905 3.082-5.244.291-12.911-5.597-15.371-4.264-1.781-13.473-1.961-9.454-.184m65.695 45.416c.352.917 1.346 1.313 2.522 1.006 1.387-.363 1.785-.101 1.393.919-.301.785-.111 1.427.421 1.427.533 0 .969-.389.969-.864s3.367-.942 7.483-1.037c6.205-.144 7.387.076 6.921 1.291-.421 1.096-.018 1.322 1.602.898 1.634-.427 1.837-.772.829-1.411-.885-.561-.219-.852 1.974-.862 1.99-.009 3.059.39 2.681 1.001-.346.559-1.047.758-1.559.441-.512-.316-.931-.098-.931.484 0 1.306 1.469 1.357 3.764.132.955-.51 2.524-1.171 3.486-1.469.962-.298 1.75-1.212 1.75-2.032 0-1.264-2.583-1.487-16.943-1.464-14.708.023-16.866.226-16.362 1.54m-136.579 27.077c-.097 1.869-.476 2.095-2.366 1.41-1.238-.449-6.075-.916-10.75-1.037-4.675-.121-14.08-.373-20.899-.56-8.114-.223-11.916-.009-11 .618 1.404.962-21.709.238-25.351-.795-.963-.273-1.75-.08-1.75.429 0 1.074-4.949 1.025-6.669-.067-1.411-.894-4.603 2.029-3.74 3.425.335.542-.203.843-1.198.669-1.334-.234-1.867.389-2.036 2.377-.168 1.979.151 2.548 1.201 2.145.787-.302 1.182-.951.877-1.444-.304-.492-.076-.895.506-.895s1.059.45 1.059 1 2.025 1 4.5 1c2.925 0 4.505-.437 4.515-1.25.011-.855.307-.789.937.207.612.967 2.879 1.513 6.735 1.623 17.275.494 21.225.753 20.844 1.37-.231.373-6.857.531-14.725.351-13.087-.3-20.459-.366-25.036-.227-2.608.08-2.965 1.325-2.871 10.033.084 7.853 1.169 11.893 3.195 11.893.563 0 .765-.419.449-.931-.317-.512-.088-1.232.508-1.601.611-.377 1.33.271 1.647 1.485.77 2.945 5.474 2.483 5.934-.583.382-2.549-4.551-4.019-7.746-2.309-1.771.948-1.889.786-1.289-1.759.88-3.728 2.403-5.322 2.403-2.513 0 1.737.528 2.145 2.563 1.976 3.304-.273 4.312-1.572 5.361-6.908.779-3.963.867-4.063.966-1.107.128 3.785 1.468 3.996 13.61 2.141 7.608-1.163 32.133-1.249 33.906-.119.601.383 1.394.704 1.761.713 1.727.039 1.922 1.515.2 1.515-1.082 0-2.413-.446-2.957-.99-.632-.632-2.154-.657-4.2-.07-2.319.665-3.214.593-3.225-.26-.01-.75-.338-.671-.899.215-.874 1.38-3.775 1.248-11.485-.52-2.052-.471-2.692-.331-2.191.48.416.673.065 1.145-.851 1.145-.857 0-1.559-.417-1.559-.927 0-.87-1.215-.799-10 .586-1.925.304-5.381.772-7.679 1.042-4.861.569-6.838 3.23-2.54 3.417 1.496.066 3.057.066 3.469 0 .412-.065.75.332.75.882s-1.302 1-2.893 1c-1.716 0-3.14.644-3.5 1.582-.918 2.392-.791 2.576 1.643 2.379 5.147-.417 6.095-.082 4.659 1.649-.735.885-1.476 1.19-1.647.676-.362-1.085-6.262-.428-6.262.697 0 .416.787.703 1.75.637.963-.066 1.75.301 1.75.815s-1.014.978-2.254 1.033c-1.24.054-2.953 1.096-3.807 2.315-2.026 2.894-8.014 3.132-8.895.355-.531-1.671-1.792-1.947-5.794-1.266-.412.071-.75.998-.75 2.061 0 2.349 2.309 3.095 14 4.523 2.475.302 7.2.996 10.5 1.541 8.8 1.454 9.175 1.376 9.863-2.063.564-2.821 2.887-3.376 2.545-.609-.339 2.746.234 3.778 2.592 4.675 2.654 1.009 3.417 3 1.15 3-2.229 0-1.553 6.395.723 6.833 1.706.329 1.836-.211 1.463-6.073-.282-4.417-.006-6.811.877-7.637.708-.661 1.318-.847 1.356-.412.277 3.17.649 12.045.778 18.539.097 4.907.559 7.75 1.26 7.75.609 0 .874-.607.589-1.35-.787-2.05 1.174-23.92 2.241-24.987.578-.578.983 3.212 1.063 9.952.115 9.662.277 13.175.843 18.302.479 4.329 1.201-1.182 1.702-12.988.313-7.386.793-14.091 1.066-14.901.914-2.71 2.357 1.073 2.374 6.222.008 2.613.41 4.75.893 4.75 1.776 0 3.329-3.04 2.743-5.373-.659-2.625 1.523-5.274 3.392-4.119 1.29.797 37.779 1.033 38.563.249.292-.292.525-1.369.517-2.394-.007-1.025-.034-5.074-.058-8.998-.04-6.267-.288-7.198-2.04-7.656-1.097-.287-1.995-.114-1.995.385 0 .498-.675.906-1.5.906s-1.5-.66-1.5-1.466c0-1.004-1.58-1.675-5.022-2.131-2.763-.367-5.26-1.051-5.55-1.52-.464-.75 1.908-.572 7.821.587.962.188 2.004-.07 2.315-.573 1.044-1.689-.679-4.897-2.631-4.897-1.063 0-1.933-.413-1.933-.917s-1.238-1.408-2.75-2.009l-2.75-1.094 3.239.483c4.666.695 6.475-.195 5.208-2.563-.695-1.298-.689-1.9.018-1.9.569 0 1.035.477 1.035 1.059s.369.831.82.553c.45-.279.902-3.512 1.003-7.185.156-5.668-.031-6.5-1.236-5.499-1.129.937-1.516.809-1.887-.625-.373-1.437-.492-1.351-.584.422m83.899-.892c-.008.734-.577 1.136-1.265.894-.687-.242-2.296-.053-3.575.42-1.862.689-22.273 1.719-36.311 1.832-2.817.022-2.822.06-1.983 15.74.172 3.209 3.098 1.767 3.198-1.576l.079-2.643 1.004 2.75c.934 2.555 1.406 2.751 6.671 2.765 4.124.011 5.259.289 4.167 1.019-.825.552-3.266.893-5.425.759-2.399-.148-4.084.233-4.333.982-.225.674.191 1.251.925 1.283.733.032 4.258.241 7.833.464 15.61.974 28.291 1.655 39 2.094 6.325.26 13.525.565 16 .678 3.977.182 4.537-.055 4.819-2.039.237-1.666-.074-2.095-1.202-1.661-2.024.776-4.3-.554-2.671-1.56.637-.394 1.33-2.589 1.54-4.877.506-5.532 1.451-8.314 2.586-7.613.51.316.928-.128.928-.985s-.45-1.559-1-1.559-1-.852-1-1.893c0-2.631-1.187-2.911-15.698-3.702-7.459-.406-13.109-1.158-13.537-1.801-.498-.749-.739-.675-.75.229m87.33 3.709c-.325.849-.318 3.661.017 6.25.335 2.59.172 5.383-.361 6.208-.729 1.127-1.005.567-1.111-2.25-.077-2.062-.253-4.2-.39-4.75-.137-.55-.32-2.238-.405-3.75-.147-2.591-.224-2.634-1.333-.75-1.346 2.287-2.364 26.41-1.572 37.25.17 2.338-.018 4.251-.419 4.25-1.534 0 1.57 4.856 3.412 5.338 2.365.618 3.268-1.333 2.469-5.33-.362-1.807-.082-3.435.731-4.248 1.01-1.01 1.042-1.574.135-2.421-.692-.646-1.021-2.913-.795-5.471.213-2.403.474-5.606.582-7.118.107-1.512.72-2.75 1.362-2.75.641 0 1.393-.562 1.671-1.25.277-.687.533.1.568 1.75.042 1.993-.219 2.554-.779 1.672-.491-.776-.67.89-.428 4 .227 2.93.417 6.107.421 7.058.004.952.429 1.991.944 2.309 1.315.813 1.17 2.513-.189 2.211-.619-.137-1.352.375-1.63 1.139-.309.851-.067 1.119.625.691 1.441-.89 1.435-.833-.464 4.742-.877 2.573-2.176 4.678-2.887 4.678-1.88 0-4.813 17.009-3.104 18 .475.275 2.389-4.337 4.256-10.25 2.048-6.489 3.913-10.75 4.706-10.75 1.328 0 .182 6.836-1.613 9.62-.723 1.122-3.764 12.102-3.764 13.59 0 2.442 2.815.219 3.749-2.96.82-2.789 1.093-3.109 1.066-1.25-.061 4.186.141 5 1.244 5 .582 0 .82-.387.527-.861-.292-.473.755-5.985 2.327-12.25 1.572-6.264 2.601-11.819 2.287-12.344-1.14-1.906-1.195-6.93-.084-7.617.691-.426.803-1.242.286-2.066-1.366-2.178-1.434-7.853-.095-7.932.656-.039.293-.457-.807-.93-1.749-.752-1.641-.868.857-.93 2.186-.053 2.717.294 2.261 1.482-.385 1.004-.192 1.303.548.845.671-.415.87-.265.482.363-.363.588-.133 1.245.513 1.46.741.247.394 1.117-.942 2.361-1.351 1.259-1.819 2.448-1.297 3.293 1.391 2.251.149 21.174-1.637 24.938-.89 1.876-1.618 4.71-1.618 6.299 0 1.589-.364 2.889-.809 2.889-.445 0-.381 1.125.142 2.5.886 2.331.609 2.912-1.25 2.618-.413-.065-.743.219-.735.632.039 1.898 1.789 3.069 5.289 3.536 4.685.626 4.878-1.953.309-4.143-1.722-.825-2.421-1.644-1.756-2.055.608-.376.915-1.674.682-2.886-.233-1.211 0-2.202.518-2.202.519 0 .95 1.012.958 2.25.009 1.238.396 2.851.862 3.585 1.359 2.144 2.09-2.23 2.144-12.835.027-5.225.755-13.1 1.617-17.5 2.973-15.16 2.72-28.5-.541-28.5-.363 0-1.264-2.045-2.002-4.543-1.96-6.64-2.526-5.378-3.546 7.905-.452 5.894-1.435 7.014-3.974 4.525-1.728-1.693-1.75-1.887-.218-1.887 1.397 0 1.67-.861 1.506-4.75-.11-2.613.133-7.337.541-10.5 1.385-10.757-2.224-5.165-4.026 6.237-.39 2.468-1.386 5.164-2.212 5.99-1.338 1.338-1.419 1.174-.738-1.487.421-1.644.956-4.115 1.189-5.49.233-1.375.716-3.85 1.073-5.5 1.299-6 1.154-6.5-1.889-6.5-1.658 0-3.113.649-3.456 1.542m-278.506 5.556c-.187 3.353.056 6.341.539 6.638.484.297.146.951-.75 1.452-2.437 1.364-2.053 2.334 2.872 7.259 4.143 4.144 4.49 4.879 4.375 9.277l-.125 4.776-.68-4c-.786-4.628-2.11-7.321-4.79-9.747-1.857-1.68-1.895-1.575-1.483 4.113.288 3.984-.059 6.755-1.092 8.727-1.455 2.778-1.493 2.633-.976-3.811.695-8.657-1.2-13.122-6.282-14.8-3.734-1.232-6.995-.678-5.951 1.011.342.554-.112 1.007-1.01 1.007-1.397 0-1.333.378.441 2.635 2.521 3.204 2.791 10.712.576 16.013-1.439 3.444-1.42 3.564.5 3.062 1.239-.325 1.997-.03 1.997.777 0 1.719-2.758 2.736-3.273 1.207-.296-.879-.857-.818-2.127.231-1.584 1.307-1.666 1.185-.994-1.49.402-1.604 1.33-3.514 2.063-4.247.805-.805 1.318-3.576 1.299-7.009-.035-6.214-1.815-9.932-3.803-7.944-.887.887-1.165.759-1.165-.535 0-.935-.675-1.7-1.5-1.7-1.629 0-1.854.915-.861 3.502.51 1.329.81 1.396 1.485.332.524-.827.851.636.861 3.851.008 2.852.454 6.339.99 7.75.616 1.618.623 2.565.019 2.565-.526 0-1.229-1.238-1.562-2.75-.334-1.512-.72-3.2-.858-3.75-.139-.55-1.032.504-1.987 2.343-.954 1.839-1.963 3.115-2.242 2.836-.279-.279-.021-1.417.574-2.528 1.553-2.902 1.429-12.434-.155-11.906-.679.227-1.569 2.402-1.976 4.834-.407 2.431-1.474 6.363-2.371 8.736l-1.632 4.315 3.288 2.935c1.808 1.614 2.938 2.935 2.511 2.935-1.353 0-6.584-3.396-6.584-4.275 0-.463-.498-.535-1.107-.159-.771.477-.696.944.25 1.544.999.632 1.027.863.107.875-2.053.025-1.421 1.857 1.243 3.602 2.601 1.704 8.122 1.217 6.989-.616-.33-.534.214-1.008 1.209-1.054a659.55 659.55 0 0 0 7.239-.42c3.509-.218 4.924-.018 4 .567-.786.498-2.472.912-3.746.921-1.273.008-3.128.45-4.12.981-4.294 2.298-12.712 2.769-16.206.908-1.847-.985-4.708-1.87-6.358-1.968-2.487-.148-2.606-.254-.692-.619 1.269-.243 2.132-.969 1.917-1.614-.573-1.72-3.725-2.065-3.725-.407 0 1.49-4.005 3.734-6.664 3.734-1.139 0-1.404.616-.966 2.25.331 1.238.609 3.289.616 4.559.008 1.282.459 2.034 1.014 1.691.55-.34 1.007-1.604 1.015-2.809.038-5.405 1.951-5.545 6.734-.492.884.934 1.955 1.484 2.379 1.222 1.484-.917 2.87 3.507 4.53 14.456.969 6.385 2.077 10.787 2.631 10.444.893-.552.759-3.901-.835-20.821-.52-5.525-.443-5.848.978-4.076 1.657 2.066 2.152 4.411 3.084 14.608.573 6.273 1.79 9.996 2.903 8.883.29-.291.13-4.07-.355-8.398-.486-4.329-.635-10.278-.331-13.22.519-5.025.658-5.253 2.308-3.76 1.687 1.526 3.159 7.783 4.521 19.213.433 3.635 1.072 5.25 2.077 5.25 1.142 0 1.294-.799.711-3.75-.931-4.716-.939-21.995-.01-22.924 1.937-1.936 3.067 2.587 3.6 14.406l.575 12.768.67-12.5c.768-14.308 2.064-19.409 4.191-16.5 1.231 1.683 1.353 1.645 1.939-.596.931-3.561 3.689-.423 3.87 4.405.152 4.042 1.815 5.193 1.815 1.256 0-4.369 1.812-7.903 3.275-6.385.906.941 1.264 5.312 1.248 15.234-.015 8.933.357 14.042 1.037 14.27.711.239 1.041-3.687 1-11.914-.067-13.706.501-16.817 3.598-19.703 1.987-1.851 2.069-2.473 1.181-9.03-.524-3.874-.597-7.604-.162-8.29.482-.759.826.124.878 2.253.047 1.925.472 4.4.945 5.5.874 2.034.881 1.967 1.345-13 .086-2.77-.291-5-.845-5-.55 0-.878.366-.729.814.15.448-.258 2.698-.905 5-1.103 3.92-1.225 4.027-1.922 1.686-.41-1.375-.789-3.962-.844-5.75-.09-2.937-.395-3.25-3.159-3.25-2.154 0-2.836-.361-2.304-1.221.415-.672.694-2.585.62-4.25-.075-1.666.128-2.354.45-1.529.323.825 1.205 1.865 1.961 2.311.756.447 1.113 1.234.794 1.75-.319.517-.112.939.46.939 1.297 0 2.419-4.221 1.773-6.671-.427-1.615-.568-1.566-1.206.421-.397 1.238-1.109 2.25-1.581 2.25s-.484-1.012-.027-2.25c.458-1.238.61-2.884.339-3.659-.34-.974.013-1.215 1.144-.782.979.376 1.636.124 1.636-.628 0-2.757-3.998-1.646-4.07 1.131-.062 2.368-.166 2.45-.875.688-.443-1.1-.609-2.337-.371-2.75.239-.413-.228-.75-1.036-.75-1.096 0-1.557 1.553-1.809 6.098m266.513-3.291c-.612.981-.962 3.464-.777 5.519.197 2.194-.059 3.493-.618 3.147-.574-.354-.75 1.026-.443 3.469.35 2.792.131 4.058-.702 4.058-.943 0-.945.267-.012 1.2.66.66 1.193 1.897 1.185 2.75-.011 1.042-.256 1.172-.75.397-.404-.635-.87 1.165-1.036 4-.566 9.719-1.896 15.323-3.811 16.058-1.991.763-1.715 3.576.362 3.695 1.138.064.875.361-.75.848-3.381 1.013-3.928.304-4.236-5.484-.145-2.73-.631-5.234-1.08-5.564-.45-.33-.912-1.23-1.029-2-.116-.77-.484-1.85-.818-2.4-.333-.55-.924-2.921-1.313-5.27-.389-2.348-1.34-4.904-2.115-5.678-.775-.775-1.409-1.891-1.409-2.481 0-1.381-1.282-1.355-4.453.09-3.36 1.531-3.296 3.074.075 1.793 3.251-1.237 6.672.742 3.933 2.275-.864.484-2.088.56-2.72.169-.784-.485-.97-.024-.586 1.448.368 1.406-.013 2.496-1.092 3.126-1.397.816-1.265.991.843 1.116 1.375.082 2.862.088 3.304.013 1.351-.23 3.786 2.726 2.765 3.356-.52.322-1.389-.206-1.929-1.172-.852-1.521-1.072-1.356-1.645 1.229-1.137 5.128-1.3 5.35-3.524 4.768-1.878-.491-2.113-.195-1.848 2.328.167 1.59-.047 3.457-.474 4.149-.502.813-.016 1.54 1.375 2.054 4.45 1.646-.115 3.308-6.015 2.189-2.905-.551-8.933-1.009-13.395-1.017-4.695-.009-7.562-.366-6.805-.846 1.126-.714-16.485-3.043-24.809-3.282-5.265-.151-29.339 1.235-30.149 1.735-.468.289-.851.124-.851-.366 0-.491-.655-.893-1.456-.893-.801 0-1.224.375-.941.834.283.458-.862.833-2.544.833s-3.059-.47-3.059-1.044c0-.574.563-.971 1.25-.881 2.786.361 3.75-.172 3.75-2.075 0-1.428-.643-1.98-2.25-1.93-2.154.068-2.164.109-.25.965 1.79.8 1.738.869-.5.654-1.375-.132-3.062-.592-3.75-1.023-.879-.551-1.25-.024-1.25 1.775 0 1.407.505 2.559 1.122 2.559.795 0 .773.422-.076 1.445-.66.795-1.052 2.482-.873 3.75.296 2.087.866 2.313 6.034 2.39 3.139.047 5.475-.29 5.191-.75-.284-.459-.077-.835.46-.835.536 0 1.139.49 1.338 1.088.252.757 2.936.837 8.833.261l8.471-.827-5.5-.637-5.5-.637 7 .044c3.85.024 7.756.237 8.681.474 1.846.473 1.323 3.406-.545 3.058-2.612-.486-32.526 2.034-33.902 2.856-2.476 1.48 1.194 2.43 7.13 1.846 25.779-2.534 33.652-3.574 33.956-4.485.483-1.451 2.919-1.304 3.46.209.245.688.832.888 1.304.446.472-.443.196-1.269-.613-1.837-1.152-.809-.983-.926.779-.539 1.242.272 2.25.012 2.25-.58 0-.59.296-.777.658-.415.362.362 1.262.156 2-.456 1.049-.871 1.342-.663 1.342.95 0 1.134.45 2.341 1 2.681 1.428.882 1.236 2.5-.296 2.5-.917 0-1.232 1.451-1.075 4.958.121 2.727-.157 6.214-.618 7.75-.757 2.519-.848 2.566-.925.483-.128-3.436-1.803-1.743-2.275 2.3-.282 2.422-.007 3.509.89 3.509.714 0 1.299-.73 1.299-1.622 0-1.353.258-1.409 1.551-.336 1.31 1.088 1.639.948 2.122-.901.538-2.058.652-2.082 1.918-.414 1.768 2.329 1.795.825.037-2.012-1.488-2.401-.456-8.715 1.424-8.715.547 0 .332-1.012-.476-2.25-1.323-2.025-1.278-2.5.455-4.75 1.663-2.161 1.928-2.246 1.947-.628.018 1.551.28 1.659 1.522.628 1.213-1.006 1.5-.975 1.5.165 0 .775 1.007 1.485 2.237 1.578 1.529.115 1.819-.09.917-.648-1.042-.644-.967-.953.352-1.459 2.334-.896 3.399.01 2.783 2.365-.634 2.427.57 2.519 7.279.556 5.369-1.57 21.532-4.052 33.432-5.134 4.125-.375 8.326-1.11 9.336-1.634 2.24-1.161 3.693-.051 1.635 1.25-.809.512-1.021.944-.471.961.55.017.394.415-.348.885-.741.469-2.766.719-4.5.554-6.552-.623-39.213 3.836-33.652 4.594.825.112-1.638.713-5.473 1.336-6.924 1.123-6.975 1.154-7.134 4.394-.22 4.478-.228 4.477 12.663 1.262 6.294-1.57 15.621-3.408 20.725-4.086 5.105-.677 9.543-1.655 9.863-2.172.319-.517-.482-.851-1.782-.743-6.083.508-14.932-.102-14.383-.99.799-1.293 16.794-.062 17.771 1.368.527.772 1.001.71 1.595-.21 1.133-1.754 5.927-.521 6.423 1.653.218.954.953-.177 1.737-2.674 1.092-3.478 1.11-4.482.091-5.111-.697-.431-1.228-1.071-1.181-1.422.423-3.167-.095-6.645-.915-6.138-1.245.769-1.271-.523-.051-2.452.506-.799.685-1.831.4-2.293-.286-.462-.677-8.359-.87-17.548-.372-17.808-1.141-22.579-3.127-19.4M376.409 311c-.051 3.3.273 6 .718 6 .446 0 .551.675.235 1.5-.32.832-.029 1.5.653 1.5.865 0 .925.371.202 1.25-1.008 1.227-.88 9.42.164 10.465.293.293 1.327.227 2.298-.145 1.002-.385 1.345-.978.793-1.374-.535-.383-1.128-1.8-1.319-3.149-.304-2.147-.148-2.288 1.25-1.128 1.351 1.122 1.597 1.076 1.597-.297 0-2.708-.163-3.132-1.1-2.872-.495.137-.9-.452-.9-1.309 0-.924.47-1.268 1.155-.846.682.422.884.277.493-.355-.363-.588-.147-1.24.48-1.449.742-.248.541-.979-.575-2.095-.943-.943-2.056-1.503-2.473-1.245-.417.258-.82-1.152-.894-3.133-.075-1.98-.368-3.833-.652-4.118-.284-.284-.015-1.12.597-1.858.864-1.041.694-1.342-.759-1.342-1.611 0-1.885.836-1.963 6m105.176 10.5c-2.626 27.501-5.849 38.776-13.367 46.75-3.04 3.225-2.027 3.541 2.502.779 8.513-5.19 11.166-13.119 12.151-36.315.667-15.707-.164-22.961-1.286-11.214m-394.899-1.705c-.894.987-1.92 4.216-2.28 7.176-.361 2.96-1.307 6.941-2.104 8.847-1.588 3.801-1.101 7.661 1.071 8.495 1.031.396 1.561-.802 2.052-4.64.417-3.253 1.947-7.273 4.123-10.83 3.391-5.545 3.668-8.268 1.025-10.078-1.584-1.084-2.097-.949-3.887 1.03M303 329.167c0 .641-.296.87-.658.508-.362-.362-1.262-.156-2 .456-.989.821-1.713.806-2.753-.057-.858-.712-1.642-.797-2.001-.216-.324.525-1.492.718-2.594.43-3.956-1.034-18.994.788-18.994 2.302 0 .775.725 1.41 1.611 1.41 1.221 0 1.04.466-.75 1.926-2.539 2.07-2.367 2.246 3.473 3.531 1.699.373 2.597.241 2.243-.333-.603-.975 28.907-1.952 38.537-1.275 4.124.29 4.769.587 3.804 1.75-.64.771-2.12 1.433-3.29 1.471-2.074.069-2.078.092-.128.919 1.1.466 4.407.592 7.349.28 3.914-.415 5.573-.204 6.187.789.882 1.427 22.858 4.203 24.139 3.05 1.17-1.053 1.304-11.448.153-11.832-.59-.197-1.314.561-1.607 1.683-.294 1.123-1.052 2.041-1.686 2.041-.634 0-.894-.419-.578-.931.317-.512.138-1.201-.397-1.532-.535-.331-.719-1.262-.409-2.069.42-1.095-.219-1.468-2.513-1.468-2.457 0-2.947.334-2.437 1.664.401 1.044.242 1.419-.426 1.006-.586-.362-1.358.104-1.716 1.037-.564 1.47-.958 1.336-2.971-1.006-1.736-2.021-3.299-2.726-6.204-2.801-3.418-.087-3.584-.195-1.384-.9 2.14-.685 1.9-.815-1.667-.9-2.291-.055-4.33.39-4.529.988-.368 1.104-5.844 2.437-15.804 3.847-3.025.428-6.34 1.136-7.366 1.573-1.657.706-1.738.554-.715-1.356 1.175-2.196.626-2.654-2.669-2.227-.687.09-1.25-.307-1.25-.881 0-.574.675-1.044 1.5-1.044s1.5-.675 1.5-1.5-.225-1.5-.5-1.5-.5.525-.5 1.167m-104.423 35.171c-.936 6.239.668 9.882 4.173 9.478 2.226-.256 2.769-.84 2.851-3.066.114-3.122-1.032-3.589-2.476-1.008-.536.958-1.244 1.472-1.574 1.143-.971-.972.546-3.885 2.024-3.885.749 0 2.032-1.238 2.853-2.75 1.064-1.961 1.503-2.248 1.532-1 .057 2.484 2.04 2.184 2.04-.309 0-1.132-.45-1.781-1-1.441-.55.34-1 .141-1-.441 0-.584-1.966-1.059-4.386-1.059h-4.387l-.65 4.338m38.923-2.492c-1.1.212-2.331.896-2.735 1.52-.526.813-.739.78-.75-.116-.008-.719-1.29-1.25-3.015-1.25-2.421 0-3 .423-3 2.191 0 2.048-.085 2.075-1.306.405-2.225-3.043-6.133-1.728-6.51 2.19-.303 3.145-.196 3.256 2.5 2.596 1.549-.38 3.097-1.119 3.441-1.643.38-.578.894-.518 1.309.154.854 1.382 5.08 1.438 7.578.1 1.452-.776 2.105-.607 2.86.742 1.43 2.556 2.298 1.034 1.941-3.401-.264-3.261-.629-3.813-2.313-3.488m35.691.004c-3.246.914-3.213 2.59.059 2.966 1.574.182 2.75-.17 2.75-.821 0-.708.546-.591 1.447.309 1.123 1.124 3.525 1.35 10.75 1.014 5.117-.238 10.483-.404 11.925-.369 1.443.035 3.242-.682 3.998-1.594 1.272-1.533.473-1.613-10.622-1.061-6.986.347-10.954.243-9.498-.249 3.093-1.046-7.133-1.231-10.809-.195m102.346 9.09c-.331.535-1.335.691-2.233.346-1.009-.387-1.383-.223-.98.429.431.698-1.206.999-4.836.89-3.018-.091-5.488.171-5.488.583 0 .412-.749.462-1.664.111-1.044-.401-1.419-.242-1.006.426.362.586.015 1.312-.771 1.614-.786.302-1.581.095-1.766-.459-.211-.634-3.107-.347-7.814.777-10.465 2.497-5.832 2.896 15.521 1.337 18.105-1.322 22.149-1.177 21.75.78-.137.674.151 1.226.642 1.226.828 0 2.569-4.976 1.907-5.45-4.853-3.47-7.54-4.558-6.299-2.55.34.55.141 1-.441 1a1.063 1.063 0 0 1-1.059-1.059c0-.582-.457-.776-1.016-.431-.559.346-.758 1.047-.441 1.559.316.512-.153.931-1.043.931-.89 0-1.359-.419-1.043-.931a1.106 1.106 0 0 0-.372-1.516c-.521-.322-1.217-.148-1.548.387m-69.59 36.51c-.521.522-.947 1.508-.947 2.191 0 2.081 1.925 2.577 3.579.923 2.222-2.222 4.98-1.937 7.098.733 1.003 1.263 2.315 2.597 2.917 2.963 1.905 1.159 8.25-1.192 8.92-3.306.347-1.091 1.048-1.725 1.558-1.41.51.316.928.147.928-.376 0-1.272-6.579-1.983-8.486-.916-.833.466-1.521 1.838-1.529 3.048-.012 1.62-.243 1.841-.878.839-.474-.748-.651-2.169-.392-3.156.407-1.559-.342-1.841-5.676-2.14-3.38-.188-6.572.085-7.092.607m-105.636 1.181c-.286.747-1.036 1.03-1.666.631-1.635-1.038-6.606-1.134-7.221-.14-.285.462 1.295 1.129 3.51 1.483 4.012.642 6.393 2.325 5.851 4.137-.157.524 1.119 2.272 2.835 3.885 3.124 2.936 5.191 9.179 5.521 16.672.211 4.804 1.641-6.547 1.76-13.972.081-5.036.559-6.72 2.595-9.14l2.496-2.966-3.746-.73c-6.898-1.345-11.385-1.292-11.935.14m-54.472 1.538c-.988 3.005.639 7.329 2.842 7.557 1.201.125 2.325-.404 2.5-1.177.647-2.847 4.972 2.174 5.544 6.437.785 5.849 1.629 4.989 3.916-3.986 1.122-4.4 1.698-8 1.281-8-.417 0-1.47-.273-2.34-.607-1.204-.462-1.606.076-1.682 2.25-.091 2.625-.152 2.67-.75.548-.795-2.823-2.22-2.778-3.957.125-1.259 2.104-1.286 2.083-.731-.566.389-1.855.163-2.754-.693-2.764-.698-.007-2.219-.268-3.381-.58-1.291-.347-2.282-.05-2.549.763m-28.064 3.527c-.869 3.948-4.094 5.935-7.279 4.484-1.585-.722-2.583-.693-3.373.097-.831.831-1.141.615-1.193-.827-.066-1.822-.118-1.831-.789-.126-.396 1.003-.927 1.717-1.18 1.587-.254-.13-1.811.526-3.461 1.459l-3 1.695 3.071-.573c3.96-.738 5.429 2.146 5.429 10.662 0 5.395-.192 5.976-1.75 5.299-2.642-1.149-12.25-1.451-12.25-.386 0 .513.873.933 1.941.933s2.22.452 2.561 1.004c.341.552 1.718.728 3.059.391 2.008-.504 2.439-.239 2.439 1.497 0 2.343 1.011 2.697 2.746.962.861-.861 1.009.382.597 5-.597 6.694-.142 7.161 5.056 5.184 1.62-.616 2.744-.616 3.125 0 1.261 2.04 6.305.995 8.468-1.754 2.383-3.031 2.113-9.94-.592-15.125-1.633-3.129-1.979-9.755-.365-6.99.536.918 1.067 2.798 1.182 4.178.114 1.38.51 2.322.88 2.093.938-.579 2.9 7.658 2.918 12.253.023 5.691 1.317 7.222 4.029 4.767 1.191-1.078 2.231-1.781 2.311-1.563.268.734 5.138-1.155 5.88-2.282 1.241-1.883.847-8.136-.803-12.739-.904-2.524-1.339-5.847-1.026-7.852 1.291-8.282-10.249-15.333-15.128-9.243-1.418 1.77-1.981.806-2.496-4.281l-.304-3-.703 3.196m59.345 3.896c-3.256 1.369-3.31 1.483-1.73 3.66 2.806 3.868 3.686 6.738 2.657 8.661-.525.98-1.418 4.661-1.984 8.179-.567 3.519-1.488 6.55-2.047 6.736-.559.186-1.016.949-1.016 1.694 0 1.092.995 1.018 5.104-.379 4.87-1.655 5.193-1.993 7.051-7.361 1.845-5.332 1.862-5.916.33-11.185-.889-3.058-2.037-5.82-2.551-6.138-.514-.317-.934-1.424-.934-2.459 0-2.701-1.071-3.01-4.88-1.408m31.116 32.487c-4.247 5.198-8.421 14.248-7.861 17.044.3 1.501-.083 3.435-.893 4.504-1.623 2.143-1.985 5.802-.482 4.873.55-.34 1.045-1.604 1.1-2.809.092-2.04.155-2.018.9.309 1.756 5.484.133 10.029-2.401 6.721-1.256-1.641-1.413-1.649-2.004-.107-.845 2.201-.783 2.238 4.962 2.921 2.719.322 5.093 1.009 5.276 1.526.184.516 1.148.939 2.143.939 2.204 0 3.024 1.921 3.024 7.082 0 3.487.268 3.918 2.441 3.918 1.343 0 2.73.468 3.084 1.04.414.671-.248.817-1.866.411-3.783-.95-2.832 2.067 1.601 5.08 4.269 2.9 7.258 3.153 8.615.727.536-.958 1.286-1.43 1.666-1.05.38.38-1.206 4.375-3.525 8.879-2.319 4.503-4.791 9.814-5.493 11.8l-1.277 3.613-.725-4.67c-.398-2.568-.414-6.505-.035-8.75.456-2.695.321-4.08-.398-4.08-.598 0-1.088 1.548-1.088 3.441 0 3.049-1.417 5.475-2.541 4.351-.225-.225-.491-2.727-.591-5.562-.22-6.22-1.15-5.94-3.424 1.032-2.557 7.839-4.809 10.065-5.1 5.042-.086-1.481-.84-3.194-1.676-3.805-1.331-.973-1.281-1.26.406-2.313 1.231-.769 1.926-2.326 1.926-4.317 0-2.655-.221-2.93-1.5-1.869-.825.685-1.5 1.865-1.5 2.622 0 .758-.4 1.378-.889 1.378-.488 0-1.199 1.656-1.579 3.681-.461 2.46-.959 3.247-1.499 2.372-.503-.813-1.325-.989-2.171-.464-.749.465-2.712.916-4.362 1.003-1.65.087-4.092.428-5.426.759-1.334.331-3.065.071-3.847-.577-2.313-1.92-4.936 3.552-5.143 10.726-.077 2.696-.399 3.551-.988 2.622-.48-.758-1.403-1.051-2.051-.65-2.158 1.334-4.141-2.626-2.546-5.087 1.002-1.547 1.073-2.413.263-3.223-.81-.81-.784-1.817.096-3.75 1.476-3.239.832-5.375-2.306-7.651-2.368-1.717-2.406-1.701-3.049 1.226-.358 1.63-.364 3.428-.014 3.996.351.567-.066 1.301-.926 1.631-.859.33-1.563 1.397-1.563 2.371 0 2.355-2.4 4.238-4.893 3.838-1.132-.182-2.685.552-3.55 1.677-1.417 1.841-1.502 1.413-1.078-5.394.254-4.066.207-7.806-.105-8.31-.819-1.325-3.305 2.315-3.342 4.895-.038 2.635-2.025 4.206-2.047 1.618-.012-1.435-.198-1.52-.899-.414-.709 1.119-.971 1.02-1.327-.5-.587-2.504-2.838 2.559-3.344 7.522-.39 3.814-2.415 6.789-2.415 3.548 0-1.264-.73-.552-2.102 2.05-2.936 5.564-3.304 5.799-5.42 3.461-2.174-2.402-2.555-3.744-2.914-10.242-.303-5.493-1.564-7.708-1.564-2.748v3.32L126 521c-1.837-2.118-2.007-2.151-2.081-.403-.059 1.388-.439 1.09-1.402-1.097-.727-1.65-1.628-2.85-2.003-2.667-.374.184-.943.071-1.264-.25-.321-.321-.116-.583.456-.583 1.396 0 2.379-6.35 2.921-18.872.389-8.962.244-10.293-1.062-9.791-.857.328-1.944-.161-2.508-1.129-.874-1.499-1-1.432-1.027.542-.016 1.238.495 2.25 1.137 2.25 1.567 0 .159 1.335-1.696 1.607-.857.126-1.471-.582-1.471-1.695 0-3.818-4.3-1.682-5.212 2.588-.343 1.61-.784 1.219-2.26-2l-1.834-4-.729 3-.728 3-.119-2.729c-.109-2.516-.307-2.642-2.548-1.621-1.998.91-2.597 2.195-3.372 7.229l-.943 6.121-.128-6.25c-.078-3.826-.556-6.25-1.234-6.25-.609 0-.853.661-.544 1.468.659 1.717-.915 3.043-1.839 1.548-2.291-3.706-3.698 5.895-1.473 10.052.57 1.066 1.077 3.961 1.126 6.435.082 4.08.607 4.981 2.472 4.247 1.148-.452 2.499 4.549 1.411 5.221-1.595.986-1.44 7.135.29 11.529 1.15 2.919 1.588 3.392 1.62 1.75.052-2.651 3.005-3.124 3.123-.5.047 1.045.282 1.247.583.5.278-.687 1.33-1.25 2.338-1.25s2.06-.562 2.338-1.25c.277-.687.486 1 .465 3.75-.034 4.26-.15 4.556-.788 2l-.749-3-.762 3.271c-.974 4.181-2.504 5.171-2.504 1.621 0-4.012-.861-2.454-1.471 2.662-.291 2.445-.82 6.651-1.176 9.346-.471 3.564-.334 4.706.5 4.191.631-.39 1.147-.184 1.147.457 0 .661.697.898 1.611.548 1.622-.623 1.58.577-.23 6.668-.478 1.608.092 1.706 6.46 1.114 6.096-.566 7.429-.374 10.48 1.511 1.923 1.189 3.649 1.714 3.837 1.168.22-.637.879-.652 1.842-.04 1.269.806 1.221.955-.309.968-.995.008-1.555.426-1.245.927.779 1.262 6.113-.37 5.804-1.775-.359-1.634 2.499-1.405 3.45.276.995 1.758 6.3.943 6.3-.967 0-.727.787-1.339 1.75-1.361 6.396-.145 7.798-1.515 4.999-4.887-.864-1.041-1.554-.736-3.381 1.497-1.803 2.202-2.304 2.429-2.332 1.055-.048-2.337-1.266-2.213-2.828.289-.7 1.121-1.675 1.791-2.165 1.488-.49-.304-1.092.242-1.337 1.211-.306 1.212-.68.748-1.2-1.488-.416-1.788-1.136-3.25-1.6-3.25-.464 0-.584.675-.268 1.5.318.827.03 1.5-.642 1.5-.851 0-1.02-1.056-.562-3.5.854-4.554.082-4.432-2.37.375-1.488 2.917-2.586 3.875-4.441 3.875-2.995 0-2.508-2.245.696-3.21 2.131-.641 2.135-.675.181-1.473-1.1-.449-2.286-.653-2.636-.453-.805.46-1.974-3.838-1.243-4.569.299-.298 1.181.331 1.961 1.398 1.385 1.894 1.418 1.889 1.418-.22 0-1.327 1.06-2.734 2.75-3.651 1.513-.821 2.188-1.51 1.5-1.532a1.275 1.275 0 0 1-1.227-1.29c.013-.687 1.588.487 3.5 2.61 1.912 2.124 3.477 3.419 3.477 2.88 0-.54 2.767-1.295 6.15-1.677 6.82-.772 7.7-.228 7.985 4.937l.165 3 .418-2.767c.23-1.522.837-2.508 1.35-2.191.513.317.932-.152.932-1.042s.407-1.366.905-1.059c.498.308.732 2.359.52 4.559-.356 3.695-.196 4 2.095 4 1.364 0 2.636-.112 2.826-.25.191-.138 1.102.377 2.024 1.143 2.196 1.822 2.447 1.465 3.686-5.241 1.046-5.654.642-8.202-1.125-7.109-.512.316-.931-.352-.931-1.484 0-1.132.338-2.059.75-2.059s.75-1.945.75-4.321c0-2.72.625-4.947 1.686-6.008 2.068-2.068 2.603-1.281 2.44 3.591-.081 2.418.276 3.607 1 3.329 2.205-.848 3.48 4.184 1.947 7.687-1.206 2.756-1.422 2.896-1.491.972-.045-1.237-.559-2.25-1.141-2.25s-.844.348-.581.773c.262.425-.181 3.623-.986 7.107-1.365 5.91-1.343 6.423.331 7.66.987.729 2.098 1.018 2.469.643 1.469-1.488 4.608-11.299 4.162-13.007-.527-2.015 2.118-4.869 3.076-3.318.324.525 1.421.737 2.436.472 2.165-.567 1.836-4.744-.594-7.536-1.317-1.513-1.302-1.889.131-3.322 1.487-1.487 1.615-1.406 1.615 1.016 0 1.446.412 2.376.915 2.065.503-.311 1.116 0 1.363.691.246.691.817.911 1.268.489.452-.421.288-1.299-.363-1.95-1.655-1.655-1.475-4.734.317-5.421.825-.317 1.5-1.361 1.5-2.32 0-3.182 2.174-8.042 3.598-8.042.837 0 1.402 1.03 1.402 2.559 0 1.451-.433 2.292-1 1.941-.55-.34-1-.141-1 .441s.484 1.059 1.077 1.059c.618 0 .95 1.468.779 3.446-.163 1.896.028 3.771.424 4.167.396.396.72 1.947.72 3.447 0 2.601 1.516 3.94 4.459 3.94.712 0 2.25-2.221 3.418-4.935 2.296-5.337 2.686-8.065 1.154-8.065-1.174 0-.141-2.996 1.663-4.821 1.082-1.096 1.319-1.096 1.38 0 .041.726.272 2.392.514 3.702s-.013 2.926-.566 3.592c-.552.666-.778 1.438-.5 1.715.277.278-.203 2.198-1.067 4.267-2.023 4.84-1.328 5.43 2.214 1.881 3.179-3.185 3.602-4.264 3.736-9.543.127-4.954 4.87-9.005 5.906-5.043.435 1.667.463 1.667.573 0 .267-4.025 3.116-.867 3.116 3.454 0 1.715.243 1.839 1.524.776.838-.696 1.294-1.495 1.013-1.776-.281-.281.344-1.904 1.388-3.607 1.044-1.704 2.109-4.447 2.366-6.097.506-3.255 4.157-10.962 6.496-13.713.831-.977 1.166-2.468.78-3.472-.529-1.38-.851-1.473-1.496-.43-.938 1.518-1.517.778-2.452-3.135-.374-1.564-.238-2.75.314-2.75.535 0 .801-1.35.592-3-.209-1.65.038-3 .548-3 1.783 0 .909-2.771-1.034-3.28-4.353-1.138.007-12.72 4.788-12.72 1.26 0 1.145-.331-.517-1.495-2.266-1.588-2.477-4.166-.442-5.423 1.701-1.052-.447-2.682-4.368-3.315-1.65-.266-3.743-.804-4.65-1.194-1.067-.459-1.63-.244-1.593.608.426 9.693-.404 14.69-3.007 18.122-1.512 1.993-3.08 3.641-3.483 3.661-1.211.06-.069-10.842 1.387-13.238.744-1.224 1.204-3.771 1.022-5.66-.234-2.435-.583-3.026-1.199-2.029-1.174 1.899-1.816 1.045-2.514-3.345-.366-2.306-.188-3.692.475-3.692.584 0 1.062-.481 1.062-1.07 0-2.161-4.495-.464-4.82 1.82-.175 1.238-.726 2.25-1.224 2.25-1.401 0-3.956 5.586-3.956 8.65 0 1.958-.309 2.441-1.073 1.677-1.305-1.305.504-8.98 2.697-11.44.791-.887 1.635-2.636 1.876-3.887.241-1.251 1.173-3.086 2.072-4.079.898-.993 1.475-2.212 1.281-2.71-.194-.497-1.372.343-2.617 1.868m140.125.613c.077.93-.841 2.193-2.04 2.806-1.548.793-1.922 1.53-1.291 2.55.488.79.644 2.403.347 3.585-.296 1.182-.053 2.449.542 2.817.595.367 1.126 2.104 1.181 3.859.086 2.754.189 2.874.751.878.586-2.084.942-1.775 3.585 3.11 2.593 4.794 2.808 5.818 1.851 8.813-.841 2.632-1.106 2.887-1.185 1.14-.107-2.351-2.403-2.979-4.964-1.356-1.598 1.012-3.033 7.648-3.094 14.309-.054 5.827-1.735 9.853-3.785 9.066-1.241-.476-1.298-.21-.34 1.579.633 1.184 1.676 2.152 2.316 2.152.867 0 .858.307-.035 1.2-1.795 1.795-1.448 3.013.667 2.342 1.601-.508 1.945.089 2.414 4.183.301 2.626.136 4.925-.367 5.108-.503.184-.914.971-.914 1.75s-.477 1.417-1.059 1.417-.781.45-.441 1 1.491 1 2.559 1 1.941-.45 1.941-1 .788-1.007 1.75-1.015c1.081-.01 1.329-.296.648-.75-.606-.404-1.146-2.535-1.2-4.735-.054-2.2-.277-6.611-.496-9.803-.378-5.499-.255-5.877 2.361-7.23 5.35-2.766 9.307-10.467 5.378-10.467-.857 0-1.312.399-1.011.887.301.487-.122 1.442-.941 2.122-1.757 1.458-1.883-.047-.546-6.509.602-2.911.858-3.297.942-1.417.212 4.766 2.786 2.885 3.815-2.788.741-4.09.654-5.986-.363-7.947-.736-1.417-1.337-3.624-1.337-4.903 0-1.28-.45-2.605-1-2.945-.55-.34-1-1.488-1-2.551 0-1.062-.9-2.494-2-3.181-1.545-.965-2-2.332-2-6.009 0-2.617-.4-4.759-.889-4.759s-.826.761-.75 1.692m-183.479 8.558c-.066 1.238-.054 2.621.024 3.074.079.454-.318.54-.881.191-1.42-.877-1.283.085.501 3.535 1.018 1.969 1.148 2.95.391 2.95-.71 0-.899.934-.506 2.5.463 1.845.229 2.5-.892 2.5-.835 0-1.519.337-1.519.75 0 1.142 5.401.961 6.208-.208.39-.564 1.01-3.437 1.378-6.385.444-3.55.959-4.904 1.527-4.009.844 1.332 1.399-.066.981-2.472-.079-.454.318-.54.881-.191.564.348 1.025.205 1.025-.317 0-.787-6.912-4.168-8.52-4.168-.264 0-.533 1.012-.598 2.25m124.655 8.301c-.375 2.998-1.436 6.205-2.359 7.128s-1.693 2.748-1.712 4.057c-.019 1.308-.694 2.796-1.5 3.306-.996.63-1.066.932-.216.943 1.42.017 1.257 2.143-.25 3.25-.551.404-.124.741.95.75 1.371.01 1.636.329.892 1.073-.744.744-2.349-.183-5.409-3.123-2.393-2.299-4.518-3.679-4.723-3.066-.271.815-.925.819-2.428.014-1.976-1.057-2.038-.899-1.566 4.008.27 2.81.141 5.109-.286 5.109-.427 0-.095 1.367.738 3.037 1.152 2.308 1.241 3.368.371 4.416-.893 1.076-.738 1.508.707 1.966 1.469.467 1.764 1.338 1.427 4.221-.277 2.379-.06 3.408.629 2.982.694-.428.976 1.06.829 4.364-.253 5.689-.301 5.622 2.297 3.264 6.681-6.063 8.739-6.826 8.739-3.24 0 1.686-.421 2.642-1.004 2.282-.586-.362-.752.033-.4.951.418 1.088-.377 2.055-2.58 3.142-1.751.863-2.733 1.587-2.183 1.608.667.025.667.283 0 .772-1.47 1.08-3.5 4.979-3.5 6.721 0 .833.563 1.544 1.25 1.582.688.037.125.587-1.25 1.222-3.118 1.44-3.965 2.601-3.985 5.46-.008 1.237-.465 2.25-1.015 2.25-.55 0-1 1.103-1 2.45 0 1.348-.788 2.909-1.75 3.47-.971.566-1.194 1.033-.5 1.05.688.016 1.25.916 1.25 1.999 0 1.3-.488 1.781-1.437 1.417-.79-.303-1.229-1.093-.975-1.754.254-.662-.337-1.231-1.313-1.265-.976-.035-2.45-.244-3.275-.465-.948-.254-1.538.334-1.602 1.598-.056 1.1-.169 3.4-.25 5.11-.081 1.711-1.273 4.769-2.648 6.795-3.22 4.745-3.533 11.058-.5 10.095 1.147-.364 2-.18 2 .433 0 .587-.408 1.067-.906 1.067-.499 0-.694.814-.434 1.808.349 1.335 1.57 1.863 4.657 2.016 2.3.113 6.77.453 9.933.755 3.163.301 5.75.182 5.749-.266-.001-.964-3.877-11.041-3.967-10.313-.034.275-.695 2.3-1.468 4.5-1.167 3.319-1.514 3.659-2.04 2-2.335-7.368-4.32-8.515-6.524-3.772-.825 1.776-2.089 3.238-2.809 3.25-.72.012-1.031-.428-.691-.978.34-.55.141-1-.441-1a1.063 1.063 0 0 1-1.059-1.059c0-.582.461-.774 1.025-.426.563.349.953.263.866-.191-.502-2.611 1.502-7.387 2.879-6.859.823.316 3.012-.319 4.864-1.411 3.783-2.232 4.531-.923 1.385 2.426-1.948 2.074-1.949 2.135-.069 3.745 1.792 1.535 2.008 1.487 3.48-.759.864-1.318 1.57-2.939 1.57-3.602 0-.664.704-1.984 1.564-2.935.86-.95 1.604-3.123 1.652-4.828.049-1.706.421-3.101.827-3.101.843 0 1.847 6.994 1.006 7.011-.302.007-1.402 1.793-2.445 3.969-1.871 3.906-1.869 4.026.134 9.239l2.029 5.281 4.703-.169c5.917-.213 5.74.05 4.411-6.572-.944-4.696-.865-6.085.5-8.82.89-1.785 1.619-3.852 1.619-4.593 0-.74.675-1.346 1.5-1.346 1.152 0 1.5 1.278 1.5 5.5 0 3.725.403 5.505 1.25 5.515.935.012.913.229-.085.862-.735.466-1.297 1.134-1.25 1.485.047.351.056.75.021.888s-.211 1.759-.392 3.603c-.317 3.246-.231 3.334 2.689 2.75 1.659-.331 4.311-.603 5.892-.603 3.78 0 3.695-1.586-.125-2.35-1.65-.33-3-1.114-3-1.742 0-.649.863-.916 2-.618 2.643.691 2.536-.845-.253-3.634-1.239-1.239-2.245-3.131-2.234-4.205.01-1.073-.35-2.476-.8-3.117-.45-.641-.682-3.791-.516-7l.303-5.834-4.5-.6c-3.714-.495-3.933-.626-1.25-.75 1.788-.082 3.25-.628 3.25-1.212s.77-2.082 1.71-3.329l1.711-2.268 1.539 3.02c2.208 4.329 4.433 4.773 3.845.766-.252-1.72-.087-3.127.368-3.127 1.355 0 .938-4.032-.574-5.544-1.201-1.2-1.577-1.187-2.642.096-.683.823-1.439 1.299-1.681 1.058-.241-.242 1.623-2.97 4.143-6.063 4.446-5.459 6.27-11.547 3.459-11.547-.78 0-.746-.454.111-1.487 1.672-2.014.491-6.635-1.499-5.871-.869.334-1.49.006-1.49-.785 0-2.136 2.942-16.954 3.566-17.964.309-.499-.106-1.576-.922-2.392-1.118-1.118-1.59-1.178-1.918-.242-.662 1.893-4.159-1.625-6.003-6.039-2.64-6.321-3.038-7.661-2.814-9.47.119-.962-.247-1.75-.815-1.75-.567 0-.808-.581-.535-1.292.272-.71-.818-2.263-2.423-3.449l-2.918-2.158-.681 5.45m-140.787 1.781c-1.843 4.5-.406 12.668 2.229 12.668 1.479 0 1.708.841 1.5 5.513-.134 3.033.133 5.747.595 6.032.461.286.599 1.144.305 1.909-.651 1.697 1.279 5.546 2.781 5.546.69 0 .858-1.16.457-3.163-.419-2.095-.152-3.699.791-4.75.782-.873 1.749-3.387 2.149-5.587.72-3.968.709-3.985-1.312-2.189-2.66 2.365-2.972 1.241-2.12-7.652.555-5.792.391-7.445-.861-8.659-1.381-1.338-1.482-1.311-.937.25.45 1.292.08 1.75-1.417 1.75-1.116 0-1.75.45-1.41 1 .34.55.171 1-.375 1-.545 0-1.135-1.238-1.309-2.75-.263-2.29-.442-2.443-1.066-.918m-118 11.473c-1.512.18-2.75.696-2.75 1.147 0 1.737 2.924 7.462 2.961 5.798.078-3.475 2.042-1.658 2.163 2 .279 8.465.009 22.853-.508 27.155-.304 2.527-1.032 8.847-1.617 14.044-.585 5.197-1.274 9.659-1.531 9.917-.465.465-.845-5.238-.647-9.707.087-1.946-.143-2.136-1.358-1.128-.805.668-1.477 2.396-1.493 3.841-.025 2.153-.204 2.332-.987.991-.596-1.02-.619-4.327-.061-8.769.492-3.922.558-8.36.146-9.862-.581-2.115-.923-.924-1.513 5.268-.83 8.699-1.826 11.5-4.09 11.5-.806 0-1.465.45-1.465 1s.666 1 1.48 1c.813 0 2.45 1.903 3.637 4.23 2.02 3.96 2.114 5.116 1.47 18.126-.378 7.643-.946 15.19-1.262 16.77-.6 3.001.146 3.519 2.675 1.859 1.119-.735 1.196-1.182.303-1.761-.659-.427-.884-1.254-.5-1.838.974-1.483 5.076-2.391 5.765-1.276 1.008 1.631 2.35-.085 3.442-4.402 3.118-12.332 4.337-15.512 5.738-14.974.977.374 1.324-.048 1.105-1.344-.534-3.151 1.6-2.995 2.279.167.347 1.619.692 2.493.765 1.943.361-2.703 2.074 2.563 2.088 6.417.008 2.429.283 4.149.61 3.821.327-.327.554-4.419.503-9.093-.115-10.691.738-13.483 2.534-8.293.706 2.038 1.077 4.255.825 4.927-1.428 3.81-1.108 7.579.683 8.047 3.702.968 1.371-27.761-3.434-42.326-.817-2.475-1.754-6.657-2.082-9.294-.329-2.637-1.716-8.037-3.082-12-1.366-3.963-2.635-8.207-2.821-9.43-.477-3.154-1.721-4.067-1.721-1.263 0 2.319-.033 2.311-2.75-.594-2.012-2.152-3.488-2.853-5.5-2.614m233.5 1.555c-2.493 1.235-2.762 2.873-1.205 7.339 1.068 3.064-1.799 12.913-4.189 14.39-1.067.66-1.967 8.931-.966 8.879 1.007-.052 4.564-2.968 3.621-2.968-.479 0 .641-1.35 2.489-3 1.848-1.65 3.981-3 4.739-3 .759 0 1.101-.45.761-1-.34-.55-.176-1 .364-1 .542 0 .35-1.267-.428-2.828-.776-1.556-1.529-6.279-1.674-10.497-.144-4.218-.487-7.615-.762-7.549-.275.066-1.512.621-2.75 1.234m30.014 26.82c-1.611 2.376-3.792 6.456-4.846 9.066-1.055 2.611-2.432 4.748-3.061 4.75-.629.002-1.402.679-1.719 1.504-.316.825-.139 1.5.393 1.5.533 0 .969.436.969.969 0 .532-.675.709-1.5.393-2.018-.775-1.907.62.169 2.138 2.672 1.954-1.852 6.491-4.7 4.713-1.243-.776-1.969-.846-1.969-.189 0 .572 1.012 1.447 2.25 1.945 1.724.693 1.841.919.5.968-.962.034-1.75.499-1.75 1.032 0 .532.657.716 1.46.408.972-.373 1.947.556 2.918 2.781 1.358 3.111 1.466 3.169 1.555.842.054-1.375.746-4.3 1.538-6.5l1.441-4 .059 3.5c.062 3.648 1.417 6.839 2.274 5.357.523-.903.399-2.147-.718-7.233-.417-1.9-.288-3.124.331-3.124.604 0 .785-1.425.447-3.509-.576-3.55 1.701-11.295 4.046-13.759 1.528-1.606 3.851-6.864 3.283-7.432-.243-.242-1.759 1.504-3.37 3.88m70.709 1.07c-1.061 2.337-1.939 5.038-1.951 6-.012.962-.472 1.75-1.022 1.75s-1-1.215-1-2.7c0-3.22-1.165-2.169-2.994 2.7-.723 1.925-1.808 3.95-2.41 4.5-.603.55-1.215 1.9-1.361 3-1.317 9.941-1.386 12.289-.376 12.913.76.47.93-.219.538-2.179-.698-3.49 1.09-10.578 3.201-12.689 2.767-2.767 4.178-1.81 4.882 3.313.723 5.252 3.603 10.853 6.069 11.799 2.386.916 2.751-.216 1.069-3.319-1.287-2.374-1.55-2.511-1.613-.838-.068 1.789-.226 1.737-1.505-.5-.786-1.375-1.429-3.175-1.429-4 0-.885.61-.475 1.487 1l1.487 2.5-.235-3c-.129-1.65-.537-3.45-.907-4-2.509-3.732-.935-13.5 2.176-13.5.356 0 .542-1.012.412-2.25-.13-1.238-.293-2.812-.363-3.5-.263-2.572-2.29-1.109-4.155 3m-40.908 3.417c-1.205.844-2.065 1.006-2.065.39 0-2.283-2.105-.854-4.704 3.193-8.028 12.499-8.957 14.76-9.798 23.84-.674 7.279-.617 7.585 1.379 7.437 1.145-.084 2.391-.462 2.769-.84.378-.378 1.549-.687 2.602-.687 1.883 0 1.882-.055-.02-3.25-2.291-3.847-2.116-10.077.435-15.452 1.927-4.062 10.586-13.085 13.64-14.214 2.046-.757 2.046-.759-.062-1.311-1.161-.303-3.041.099-4.176.894m-179.08 10.083c-.011 3.435-.284 4.335-.985 3.25-.788-1.219-.972-1.09-.985.691-.008 1.205.435 2.469.985 2.809.55.34 1-.035 1-.834 0-.799.675-1.711 1.5-2.028.825-.316 1.5-.161 1.5.346 0 1.614-2.29 6.016-3.129 6.016-.445 0-.549.675-.233 1.5.337.877.012 1.506-.781 1.515-1.048.012-1.017.231.138.961 1.284.812 1.214 1.174-.5 2.566-1.654 1.344-1.696 1.527-.245 1.071 1.237-.389 1.75-.005 1.75 1.311 0 1.54 2.759 3.782 3.505 2.85.121-.151.937-3.899 1.814-8.329.877-4.431 1.915-8.892 2.308-9.914.494-1.289.354-1.637-.457-1.136-.736.455-1.17.019-1.17-1.175 0-1.066-1.121-2.41-2.556-3.064-1.406-.64-2.28-1.613-1.941-2.16.338-.548.138-.996-.444-.996-.595 0-1.066 2.083-1.074 4.75M89.575 558c-1.728 5.078-5.584 12.837-6.542 13.163-1.359.463-2.555 6.837-1.283 6.837.55 0 1.721-1.462 2.602-3.25l1.602-3.25.023 2.75c.013 1.513-.427 2.75-.977 2.75s-1 .45-1 1c0 2.621 3.107.507 5.511-3.75 2.461-4.357 2.564-4.962 1.243-7.308-.995-1.767-1.167-3.298-.554-4.953.487-1.317.737-3.316.556-4.442-.299-1.86-.407-1.819-1.181.453m231.925-1.287c3.229.777 3.905 2.025 2.082 3.848-1.048 1.048-1.574 2.878-1.386 4.814.28 2.875.691 3.2 5.149 4.06 6.084 1.175 8.053.065 8.465-4.772.492-5.786-3.087-8.696-10.515-8.547-3.187.064-4.895.332-3.795.597M156.069 575.5c-.049.55-2.536 2.088-5.527 3.418-5.384 2.393-7.713 5.36-8.076 10.289-.507 6.882-12.832 6.649-19.048-.359-4.207-4.742-8.273-7.776-8.776-6.547-.352.861-.789.776-1.551-.301-.793-1.122-1.064-1.166-1.076-.177-.021 1.81-3.481 1.014-3.65-.839-.5-5.51-.683-4.986-3.863 11.016-2.085 10.499-4.043 13-10.176 13-2.379 0-4.326.443-4.326.985 0 .606 2.304.743 6 .357l6-.627v5.584c0 3.07.45 5.861 1 6.201.614.379 1-1.24 1-4.191l.001-4.809 22.249-.188c24.868-.21 31.012-.499 31.766-1.493.284-.374 1.634.178 3 1.228 2.464 1.893 2.466 1.909.265 1.931-1.504.015-2.042.481-1.672 1.446.383.998 1.533 1.265 3.837.891 2.183-.354 4.176.046 5.922 1.191 1.448.948 2.632 1.27 2.632.716s-.775-1.305-1.722-1.669c-1.475-.566-1.511-.794-.25-1.591 1.993-1.261 5.972-1.209 5.972.077 0 .601.592.495 1.4-.25 1.871-1.724.054-4.08-2.255-2.923-3.051 1.527-10.747 1.319-12.113-.328-1.33-1.602-1.311-1.609 5.302-1.984 3.212-.182 3.968-3.292 3.396-13.958-.298-5.553-.814-10.771-1.148-11.596-.793-1.96-11.794-5.275-12.691-3.824-.418.676-.842.564-1.191-.313-.298-.75-.582-.913-.631-.363M381.5 594.909c-8.742 4.047-21.785 5.068-40 3.133-8.532-.906-18.512.36-18.485 2.346.033 2.349 1.63 3.387 5.485 3.563 12.201.557 13.801 1.656 9.017 6.194-3.068 2.91-3.444 5.422-.583 3.89 3.089-1.653 4.482-1.197 2.182.715l-2.105 1.75 2.913 3.293 2.914 3.293 7.742-6.753 7.742-6.752-3.197-.828c-1.758-.456-2.929-1.262-2.602-1.791.327-.529.063-.962-.586-.962-.901 0-.905-.334-.018-1.403.895-1.077.865-1.506-.127-1.85-2.925-1.013 8.48-2.234 19.208-2.057 19.017.314 25.462.758 26.235 1.81.478.651.74.626.75-.071.01-.69 1.704-.867 4.765-.5 2.613.314 8.35.571 12.75.571 7.984 0 8.001-.006 8.316-2.75.22-1.906-.138-2.75-1.166-2.75-.816 0-1.633-.423-1.817-.94-.45-1.271-36.779-2.333-39.333-1.151M27.105 600c-.153 2.274-.286 2.345-1.473.783-1.151-1.515-1.44-1.126-2.468 3.327-.64 2.773-1.164 6.133-1.164 7.466 0 1.488-.579 2.424-1.5 2.424-.825 0-1.5.45-1.5 1s.675 1 1.5 1c2.647 0 2.971.116 4.709 1.689.939.85 2.468 3.856 3.395 6.679.928 2.822 1.931 5.807 2.229 6.632.465 1.288.303 1.306-1.146.128-.928-.755-1.687-1.075-1.687-.71s-1.238-.489-2.75-1.898c-2.433-2.265-2.792-2.356-3.116-.79-.201.973-.844 2.071-1.429 2.44-1.414.89-2.097 12.83-.734 12.83.566 0 1.029-.45 1.029-1s1.064-1 2.365-1c2.027 0 2.69.961 4.64 6.734 2.201 6.516 2.234 7.141 1.021 19.386-.873 8.816-.939 13.213-.218 14.502.946 1.689 1.093 1.619 1.704-.813.367-1.464 1.517-3.43 2.554-4.369 1.038-.939 1.646-2.097 1.351-2.574-.294-.476-.191-1.422.229-2.102.42-.679.646-2.597.503-4.261-.144-1.664.208-4.146.781-5.514.803-1.921.957-.549.672 6.011-.342 7.854-.278 8.201.836 4.565.925-3.019 1.363-3.526 1.881-2.176.805 2.098 2.955.475 4.084-3.085.367-1.156 1.777-3.211 3.132-4.567 2.297-2.297 2.398-2.815 1.486-7.628-1.167-6.154-2.741-9.4-4.139-8.536-.56.346-.825 1.146-.589 1.778.237.632.113 2.039-.274 3.127-.683 1.916-.742 1.908-1.897-.25-.945-1.767-.926-2.231.093-2.243 1.039-.013 1.038-.173-.01-.837-.807-.512-1.508-3.988-1.863-9.235-.313-4.627-.727-8.585-.92-8.794-.194-.21.098-1.223.648-2.25.861-1.608.611-1.888-1.785-2.005-2.38-.117-2.456-.2-.52-.572 1.245-.239 2.006-.854 1.689-1.366-.345-.559-1.397-.492-2.631.169-1.613.863-2.401.756-3.654-.497-1.463-1.464-1.412-1.598.617-1.598 2.759 0 2.901-1.647.214-2.5-1.297-.412-2-1.513-2-3.133 0-1.374-.528-3.481-1.172-4.683-.645-1.201-1.484-4.884-1.864-8.184-.38-3.3-.766-4.875-.859-3.5m-16.394 16.376c-.965 6.257-2.036 15.032-2.381 19.5L7.704 644l3.398-.271c2.875-.229 3.447-.69 3.714-3 .351-3.02-.892-3.548-2.836-1.205-.696.838-1.503 1.287-1.793.996-.291-.29.561-1.688 1.892-3.106 2.338-2.49 2.421-3.091 2.421-17.496 0-18.152-1.341-19.406-3.789-3.542M61 605.849c0 .542.399 1.134.886 1.318.487.183 5.041 6.183 10.121 13.333s10.096 13.944 11.147 15.099c1.766 1.939 1.834 2.85.906 12-1.799 17.738-2.045 19.874-2.52 21.933-.298 1.291.236 2.471 1.463 3.238 2.659 1.66 6.997-.041 6.997-2.745 0-1.114.45-2.025 1-2.025s1 1.575 1 3.5.45 3.5 1 3.5 1.014-1.237 1.03-2.75c.026-2.351.179-2.496 1.05-1 .561.962 1.382 1.75 1.826 1.75 1.171 0-.939-10.251-2.442-11.868C92.91 659.46 91 660.46 91 662.944c0 1.004-1.164 2.589-2.587 3.521-3.33 2.182-3.973 1.514-1.302-1.354 2.36-2.532 1.974-4.053-.421-1.659-.851.852-1.72 1.548-1.932 1.548-.212 0 .18-5.062.87-11.25.691-6.187 1.282-11.643 1.314-12.122.121-1.809 3.061 1.711 3.128 3.744.039 1.171.495 3.028 1.014 4.128.814 1.724.893 1.625.575-.715-.202-1.493.129-2.882.736-3.086.803-.27.796-1.033-.025-2.785A162.542 162.542 0 0 1 90.188 638c-.911-2.163-1.066-2.23-1.151-.5-.094 1.922-.14 1.927-1.184.131-.789-1.359-.777-2.06.047-2.569 1.647-1.018-5.384-10.951-14.657-20.71C66.186 606.926 61 603.325 61 605.849m133.559 3.792c-.406 1.022-.973 5.234-1.261 9.359l-.522 7.5 12.328 8.5c6.78 4.675 13.749 9.344 15.486 10.375l3.158 1.874 5.376-3.892c2.957-2.14 7.259-5.162 9.56-6.714 2.888-1.949 4.02-3.338 3.656-4.483-.375-1.178-.266-1.297.375-.41.708.981 1.321.912 2.844-.32 1.833-1.483 1.736-1.543-1.723-1.077-4.669.629-6.351-1.178-7.309-7.853-1.472-10.259-4.587-13.706-10.944-12.11-1.33.334-2.567.203-2.75-.29-.183-.494-6.454-1.217-13.934-1.608-12.694-.663-13.651-.586-14.34 1.149M60.686 620.75c-1.324 2.301-1.624 11.092-.653 19.085 1.127 9.269.611 14.791-1.127 12.047-.481-.76-.889-2.732-.906-4.382-.017-1.65-.511-3.675-1.097-4.5-1.088-1.53-.69 5.372.634 11l.588 2.5-1.527-2.5c-1.489-2.437-1.528-2.361-1.563 3.009-.028 4.489-.423 5.753-2.132 6.82-1.154.72-2.367 1.04-2.696.711-.624-.624-3.086 7.689-3.163 10.679-.029 1.125.474 1.519 1.456 1.143 1.711-.657 1.919.442.5 2.638-.646 1-.974 1.083-.985.25-.008-.687-.69-1.25-1.515-1.25s-1.5.702-1.5 1.559.47 1.269 1.044.914c.574-.355 1.697-.103 2.494.559.798.662 2.354.968 3.457.68 1.252-.328 2.005-.034 2.005.784 0 .719 1.35 1.779 3 2.354 2.021.705 3 .713 3 .027 0-1.55 2.659-3.877 4.429-3.877.864 0 1.571-.45 1.571-1s-.401-1-.892-1c-1.488 0-2.285-5.081-1.033-6.59.639-.77.898-2.405.576-3.635-.414-1.584.189-3.042 2.07-5.005 2.748-2.869 2.499-3.493-.709-1.777-2.812 1.506-3.223-2.199-2.597-23.432.461-15.636.323-18.561-.875-18.561-.782 0-1.616.337-1.854.75m311.926 32.819c-.401 1.044-1.274 1.356-2.612.931-1.413-.448-2.209-.097-2.681 1.181-1.711 4.635-7.742 11.447-11.61 13.112l-2.792 1.202 2.111 2.252 2.11 2.253-2.069.32c-1.138.175-2.069.926-2.069 1.668 0 .742-.238 1.97-.53 2.729-.727 1.896 6.895 6.119 9.534 5.282 1.098-.349 1.996-1.362 1.996-2.252 0-.89.897-2.573 1.993-3.739 3.131-3.333 3.899-11.462 1.151-12.181-1.179-.308-2.144-.765-2.144-1.015 0-1.043 2.967-3.312 4.33-3.312.81 0 2.33-1.462 3.378-3.25 2.932-4.999 3.416-6.75 1.868-6.75-.749 0-1.633.706-1.964 1.569m63.519 5.516c-5.921 4.714-6.933 7.212-1.399 3.451 5.415-3.679 6.413-3.081 1.768 1.059-2.229 1.987-3.115 3.235-2 2.818 1.1-.412 4.403-1.011 7.341-1.331l5.34-.582-2.34-2.123c-1.288-1.167-3.016-2.369-3.841-2.671-.982-.359-.725-.575.747-.627 1.247-.044 3.972 1.479 6.121 3.421 3.592 3.245 7.132 4.583 7.132 2.696 0-1.955-10.765-10.196-13.32-10.196-.23 0-2.728 1.838-5.549 4.085M274 672.596c0 1.628 8.147 8.992 13.5 12.202 4.876 2.924 21.442 8.489 34.5 11.59 8.949 2.124 24.315 2.654 52 1.79 12.925-.403 23.724-.571 23.998-.374.275.198-.374.998-1.441 1.778-1.891 1.383-1.885 1.418.252 1.418 1.205 0 2.191.402 2.191.893s.725 1.171 1.611 1.511c1.194.459 1.448.193.982-1.023-.866-2.257 7.355-1.046 9.161 1.349 2.121 2.813-.184 3.797-4.719 2.016-2.219-.872-4.035-1.157-4.035-.634s.788 1.194 1.75 1.492c.962.298 2.586.993 3.609 1.545 4.26 2.3 10.68-4.153 6.625-6.659a1.188 1.188 0 0 1-.4-1.626c.34-.549-.328-1.246-1.483-1.548-1.418-.371-2.101-1.351-2.101-3.016 0-1.357.337-2.302.75-2.101 5.08 2.475 6.252 3.357 6.265 4.712.01.975.299 1.179.75.528.404-.584 2.31-1.551 4.235-2.148l3.5-1.087-3-.181c-1.65-.099-2.437-.408-1.75-.685.688-.278 1.25-.921 1.25-1.43 0-.509-.867-.384-1.926.278-3.291 2.055-7.406-.473-6.857-4.214.391-2.66.158-2.972-2.224-2.972-3.076 0-3.639-2.452-1.205-5.25 2.11-2.427-.059-2.213-2.263.223-.982 1.085-1.945 3.853-2.14 6.151-.43 5.074-.263 4.895-4.743 5.063-3.618.136-4.785 1.185-2.392 2.151 1.348.544-35.921 1.221-58.75 1.068-21.927-.148-47.347-7.621-55.244-16.242-1.791-1.955-3.256-2.929-3.256-2.163 0 .807-1.469-.032-3.5-2.001-1.925-1.866-3.5-2.948-3.5-2.404m-137.671 20.179c-.644.41-1.481 1.982-1.86 3.494-.961 3.828-2.576 4.517-1.829.781.863-4.317-1.106-3.847-2.933.7-1.518 3.776-.489 5.914 1.503 3.122.759-1.064.854-.985.426.35-.425 1.327.36 1.996 3.419 2.913 5.563 1.666 8.945-.149 8.945-4.804 0-5.014-4.308-8.695-7.671-6.556m151.672.724c-.979 1.18-.988 2.119-.039 4.408.997 2.409.931 3.326-.385 5.335-2.206 3.367-.382 9.016 2.765 8.562 2.778-.401 4.867-4.545 3.54-7.024-.677-1.265-.594-2.935.263-5.304 1.814-5.018-3.03-9.73-6.144-5.977m-86.695 3.069c-1.878 1.718-2.392 2.738-1.556 3.083.7.289 1.25 2.241 1.25 4.432 0 2.154.464 3.917 1.032 3.917 2.28 0 7.829-2.924 8.835-4.656.987-1.698 1.075-1.705 1.103-.094.016.962.48 1.75 1.03 1.75s1-2.025 1-4.5c0-4.758 1.424-6.033 2.512-2.25 1.244 4.326 3.591 8.75 4.642 8.75.606 0 .764-.749.368-1.75-.381-.962-.943-3.246-1.25-5.074-.546-3.256-.49-3.317 2.763-3 3.186.311 3.381.578 4.798 6.574.813 3.438 1.745 6.251 2.072 6.251 1.286.003-.16-11.575-1.654-13.251-1.69-1.895-7.727-2.407-8.756-.742-.386.624-1.196.434-2.13-.5-2.61-2.61-6.365-1.945-6.365 1.127v2.635l-2.073-2.635c-2.592-3.296-4.079-3.309-7.621-.067" fill="#d3d3d3" fill-rule="evenodd"/></svg>