<svg xmlns="http://www.w3.org/2000/svg" width="500" height="642"><path d="M152.566 94.893c-.376.609-1.445 1.122-2.375 1.14-2.389.047-5.979 3.28-7.195 6.478-.729 1.916-1.564 2.574-2.843 2.239-.996-.26-2.609.111-3.585.824-1.252.915-2.506 1.02-4.255.355-3.067-1.166-4.644-.304-3.994 2.184.329 1.259-.03 1.887-1.079 1.887-.865 0-1.291.282-.947.627 1.07 1.069-2.327 6.725-5.928 9.873l-3.432 3 1.19 5.844c.755 3.705.838 6.084.227 6.5-.53.361-1.553 2.114-2.274 3.896-1.138 2.813-1.654 3.153-3.925 2.583-1.438-.361-3.973-.649-5.633-.641-1.66.009-3.339-.479-3.731-1.083-.914-1.408-5.763-1.528-5.861-.145-.041.575-.256 2.013-.479 3.195-.276 1.473.391 2.67 2.119 3.802 3.541 2.321 4.937 6.335 2.962 8.518-1.799 1.988-2.024 3.456-.373 2.436.715-.443.883-.275.44.44-.392.635-.21 1.155.405 1.155s.81.498.434 1.107c-.477.771-.944.696-1.544-.25-.7-1.105-.856-1.079-.843.143.009.825.655 2.342 1.434 3.372 1.226 1.618 1.221 2.068-.032 3.321-1.639 1.64-1.977 3.751-.449 2.807.55-.34 1-.141 1 .441 0 1.003-1.445 1.489-3.376 1.135-.482-.088-1.52.759-2.307 1.882-1.029 1.469-2.537 2.042-5.374 2.042-2.48 0-3.949.464-3.958 1.25-.012.92-.243.892-.875-.107-.6-.946-1.067-1.021-1.544-.25-.376.609-.207 1.107.375 1.107s1.059.675 1.059 1.5-.552 1.387-1.226 1.25c-.675-.138-1.391.835-1.591 2.162-.247 1.637-.615 2.007-1.143 1.152-.428-.692-1.962-1.328-3.409-1.412-2.738-.158-3.389-1.065-1.571-2.189.669-.413.396-1.14-.739-1.97-.989-.724-2.094-1.133-2.455-.91-.361.223-.897-.223-1.192-.99-.491-1.279 2.516-3.017 4.637-2.681 2.025.321 6.699-3.437 6.08-4.889-.356-.838-.868-2.535-1.136-3.773C81.804 163.17 80 162 80 163.787c0 .433-.934.858-2.076.944-1.701.128-1.859-.104-.877-1.287.96-1.158.876-1.444-.425-1.444-1.499 0-2.096 1.672-1.697 4.75.09.688-.559 1.25-1.44 1.25-.969 0-1.317-.463-.88-1.17.486-.787.178-.961-.941-.531-1.057.405-1.664.135-1.664-.742 0-2.035-2.817-1.263-4.581 1.255-1.512 2.159-4.156 3.189-2.878 1.121.363-.586-.148-1.656-1.134-2.378-1.723-1.259-1.721-1.384.04-3.145 1.009-1.009 2.487-1.93 3.285-2.047 2.032-.298 2.403-.849 1.738-2.58-.827-2.157-10.311-1.382-12.041.983-.696.952-1.053 1.944-.793 2.203.26.26.891-.189 1.403-.998.803-1.27.932-1.273.946-.021.012 1.128.282 1.183 1.215.25.66-.66 2.348-1.163 3.75-1.119l2.55.081-2.687 1.194c-1.478.656-3.615 2.263-4.75 3.571-1.135 1.309-2.063 1.834-2.063 1.167s-.403-.963-.895-.659c-1.075.664-2.348-2.233-1.549-3.525.309-.501.085-.91-.497-.91-1.816 0-1.159-1.834.89-2.484 1.253-.398 1.735-1.175 1.351-2.177-.534-1.391-.696-1.384-1.51.073-.502.896-1.335 1.369-1.851 1.05-1.66-1.026-1.006-2.228 1.561-2.873 2.509-.629 3.518-2.589 1.333-2.589-.641 0-.875-.292-.518-.648.712-.713-3.074-4.352-4.527-4.352-.498 0-.657-.403-.353-.895.305-.493-.119-1.153-.941-1.469-.822-.315-1.494-.137-1.494.395 0 .533-.724.969-1.608.969-1.206 0-1.455.611-.997 2.439.781 3.109-1.095 4.333-2.93 1.911-1.32-1.742-1.403-1.702-1.433.7-.018 1.403.508 3.09 1.168 3.75.933.933.933 1.2 0 1.2-.667 0-1.2 1.333-1.2 3 0 1.725.531 3.007 1.25 3.015.977.012.971.193-.029.827-2.068 1.312-1.17 7.158 1.099 7.158 1.273 0 1.705.492 1.318 1.5-.69 1.8.496 1.966 2.16.302.931-.931 1.063-.229.591 3.149-.522 3.726-.378 4.259 1.001 3.729.886-.339 1.61-.181 1.61.351 0 1.461 2.404.682 3.18-1.031.49-1.082.699-.874.75.75.053 1.714-.489 2.25-2.277 2.25-1.446 0-2.764.864-3.433 2.25-1.011 2.098-1.09 2.114-1.168.25-.07-1.691-.247-1.768-1.143-.5-.788 1.115-.944.28-.608-3.25.249-2.613.352-4.75.229-4.75-.123 0-1.262.9-2.53 2-1.496 1.297-1.813 2.005-.903 2.015.905.01 1.022.277.331.75-.619.425-1.126 4.761-1.2 10.277l-.129 9.542 6.7 1.236c6.702 1.236 10.359 1.37 34.701 1.268 15.014-.062 16.341-.225 17.565-2.158.74-1.17.907-1.112.92.32.008.963-.462 1.75-1.044 1.75-.582 0-.781.45-.441 1s1.829 1.005 3.309 1.012c1.48.007 4.6 1.104 6.933 2.438s6.383 2.739 9 3.122 5.883 1.477 7.258 2.431c4.57 3.17 6.608 3.27 10.942.533 2.232-1.408 4.058-2.079 4.058-1.49 0 .59.498.764 1.107.388.771-.477.696-.944-.25-1.544-1.213-.768-.529-1.295 1.335-1.028.381.055 1.263-1.479 1.961-3.408.697-1.928 1.754-3.32 2.349-3.092.595.229 2.089-1.334 3.32-3.473 1.231-2.139 1.812-3.889 1.291-3.889-.52 0-1.173.562-1.451 1.25-.31.769-.534.599-.583-.443-.058-1.252-.664-1.539-2.329-1.101-1.238.325-3.955.533-6.039.463-2.183-.074-3.989.392-4.26 1.101-.394 1.026-3.455 1.308-8.701.802-.412-.039-.75-.972-.75-2.072s-.562-2.007-1.25-2.015c-.836-.011-.753-.342.25-1 1.008-.662 1.148-1.231.429-1.735-1.335-.934-1.282-6.491.071-7.485.56-.411.204-.741-.809-.75-.995-.008-1.56-.418-1.256-.91.305-.493-.147-1.164-1.004-1.493-.857-.329-1.301-1.013-.988-1.52.313-.506.004-1.149-.687-1.428-.791-.318-.639-.535.411-.585.916-.043 1.825.398 2.02.981.235.707 1.204.619 2.91-.266l2.557-1.327-2.317-1.983c-1.274-1.091-2.328-2.659-2.342-3.484-.023-1.333-.133-1.333-.995 0-.828 1.282-.972 1.246-.985-.25-.008-.963.591-1.75 1.332-1.75.741 0 1.836-1.012 2.433-2.25.97-2.013 1.092-1.808 1.152 1.941.067 4.122 1.459 6.528 2.353 4.065.251-.691.873.288 1.382 2.176.509 1.888 1.467 3.613 2.13 3.834.773.257.971-.206.553-1.296-.576-1.501-.145-1.61 3.75-.942 2.42.415 5.075.804 5.9.863.825.06 1.831.559 2.235 1.109.458.624.74.542.75-.219.008-.685.69-.959 1.558-.626.849.326 1.32.815 1.048 1.088-.666.665 1.989 3.257 3.338 3.257.589 0 1.078.787 1.086 1.75.012 1.34.214 1.438.861.416.681-1.074.964-1.025 1.453.25.335.871 1.376 1.584 2.314 1.584 1.473 0 1.409.316-.469 2.314-2.72 2.896-2.806 4.097-.174 2.454 1.1-.687 2-1.741 2-2.342s.632-1.093 1.405-1.093c.825 0 1.198.654.905 1.584-.424 1.346-.344 1.364.535.123.887-1.255 1.332-1.19 3.155.46 1.647 1.49 2.3 1.633 2.916.636.848-1.373 3.403.44 4.364 3.096.369 1.021.874 1.022 2.589.01 1.885-1.114 2.131-1.027 2.131.75 0 1.118.665 2.008 1.5 2.008.825 0 1.556.45 1.625 1 .069.55.21 1.563.315 2.25.104.688-.035 1.68-.311 2.205-.275.525-.641 2.244-.814 3.821-.285 2.604-.171 2.722 1.257 1.295 2.191-2.192 2.439-2.015 2.349 1.679-.043 1.787-.306 2.688-.583 2-.278-.687-.944-1.25-1.48-1.25-.537 0-.748.37-.468.822.279.452-.375 1.577-1.453 2.5-2.434 2.084-3.608 2.192-1.937.178.685-.825.839-1.5.343-1.5-.496 0-1.555.907-2.354 2.015-1.224 1.698-1.538 1.771-1.996.466-.463-1.322-.869-1.245-2.768.524-2.29 2.134-2.596 1.931-2.26-1.505.195-1.997.193-1.997-1.299-.006-1.103 1.47-1.19 2.188-.331 2.734.737.469.431.773-.835.827l-2 .086 2 .859c1.989.855.721 1.46-2.25 1.075-1.396-.182-1.708 1.524-.424 2.318 1.265.782 5.225-.502 4.611-1.495-.298-.481.163-.605 1.022-.275 1.139.437 1.394.159.941-1.023-.459-1.197-.2-1.46.989-1.004.886.34 1.618 1.132 1.626 1.761.009.642.485.486 1.087-.357.861-1.205.975-1.058.578.75-.328 1.501-.024 2.25.914 2.25.773 0 1.406.45 1.406 1s.505 1 1.122 1c.776 0 .738-.464-.122-1.5-.978-1.178-.981-1.5-.015-1.5.676 0 .984-.638.685-1.417-.693-1.805 1.725-2.788 3.208-1.305.829.829 1.139.744 1.185-.328.035-.797.516-.325 1.069 1.05.978 2.43 1.046 2.446 2.437.559 1.245-1.689 1.431-1.722 1.431-.25 0 .93.408 1.691.906 1.691.499 0 .671-.9.384-2-.288-1.1-1.006-2-1.595-2-.59 0-.106-.9 1.075-2 2.238-2.086 3.765-2.674 2.773-1.069a1.103 1.103 0 00.365 1.512c.517.32 1.147-.212 1.4-1.181.435-1.665.466-1.665.576-.012.064.963.846 1.75 1.738 1.75 1.244 0 1.363.313.509 1.342-.612.738-.78 1.703-.372 2.144.407.441-.794.508-2.671.15-3.306-.631-3.358-.592-1.684 1.257 1.129 1.249 1.358 2.136.661 2.567-1.844 1.139-1.156 2.797.935 2.25 2.303-.602 2.741.792.517 1.645-.884.339-1.232 1.224-.861 2.191.437 1.138.838 1.273 1.344.453.473-.764.911-.446 1.268.916.299 1.147.151 2.085-.33 2.085s-.632.634-.334 1.41c.675 1.761-2.883 3.038-7.466 2.68-2.212-.173-3.133.108-2.693.821.474.766-.097.792-1.953.086-3.347-1.272-3.768-1.253-2.912.133.424.685.152.949-.691.671-.764-.253-1.945-1.548-2.624-2.88l-1.236-2.421-.017 3c-.014 2.592-.397 3.013-2.819 3.097-2.549.087-2.763-.17-2.369-2.852.261-1.777.724-2.477 1.165-1.762.791 1.278 2.011-.89 2.011-3.573 0-1.161-.361-1.201-1.935-.218-1.065.664-1.706 1.579-1.426 2.033.28.453-.066.701-.769.55-.704-.151-1.356.288-1.45.975-.093.688-.226 1.7-.295 2.25-.069.55-.912 1.007-1.875 1.015-1.019.009-1.318.323-.717.75 1.569 1.115 1.183 2.991-.934 4.539-1.312.959-1.545 1.612-.75 2.102.633.392 1.151 1.516 1.151 2.498 0 .982.96 2.643 2.133 3.691 2.119 1.893 2.128 1.89 1.393-.47-.509-1.632-.394-2.161.367-1.691.609.376 1.107.207 1.107-.375s.408-1.059.906-1.059c.499 0 .719 1.012.489 2.25-.229 1.238-.158 1.713.159 1.056.316-.656 1.226-.944 2.022-.638.894.343 1.314.035 1.099-.807-.191-.748-.158-1.021.074-.605.232.416.903.459 1.491.096.614-.38.779-.192.388.441-.444.719.11.95 1.592.665 1.25-.241 2.425-.893 2.61-1.448.185-.556 1.199-1.01 2.253-1.01 1.055 0 1.917-.403 1.917-.896s1.722-.808 3.826-.7c3.917.2 7.293-1.732 4.895-2.801-.77-.344-.667-.497.279-.416 2.24.192 5.067-1.269 4.435-2.292-.304-.492-.076-.895.506-.895s1.059.723 1.059 1.607c0 1.018.55 1.396 1.5 1.031.825-.316 1.5-.139 1.5.393 0 .533.73.969 1.622.969 1.329 0 1.398.271.378 1.5-2.016 2.429.37 1.714 2.502-.75 1.739-2.01 1.984-2.062 2.298-.488.193.969.767 1.505 1.276 1.191.508-.314.924-.08.924.519 0 .6-.672 1.349-1.494 1.664-.822.316-1.246.976-.941 1.469.304.492-.175.895-1.065.895-.89 0-1.34-.45-1-1 .34-.55-.309-1-1.441-1-1.132 0-2.059.45-2.059 1s.45 1 1 1 1 1.125 1 2.5-.423 2.5-.941 2.5c-1.486 0-2.199-1.787-.888-2.224.651-.217.864-.91.474-1.541-1.319-2.135-3.844-.163-3.179 2.484.394 1.572.242 2.218-.426 1.806-.591-.366-1.04.245-1.04 1.416 0 1.132-.562 2.111-1.25 2.174-.687.064-1.7.22-2.25.348-.55.128-1.49.301-2.089.385-1.272.177-3.74 5.157-2.948 5.948.295.295.537.009.537-.638 0-.9.441-.899 1.884.001 1.06.663 1.825 2.196 1.75 3.508-.166 2.883-1.633 3.055-2.359.276-.3-1.146-1.107-1.838-1.824-1.563-1.794.689-2.741-2.326-1.283-4.083.946-1.14.913-1.629-.155-2.289-1.514-.936-5.93 1.748-5.982 3.635-.017.629-.698 1.399-1.514 1.712-.816.313-1.24 1.203-.943 1.978.298.775-.16 1.678-1.017 2.007-2.341.898-1.872 2.831.6 2.473 1.186-.172 2.37.312 2.63 1.076.289.849.031 1.116-.664.687-.626-.387-1.407.001-1.737.861-.33.859-1.227 1.563-1.993 1.563s-1.393.675-1.393 1.5-.45 1.5-1 1.5-1-.48-1-1.067c0-1.234-4.163-.187-5.111 1.286-.336.522-.884.236-1.218-.635-.428-1.115-.025-1.584 1.36-1.584 2.238 0 2.525-1.044.769-2.8-.933-.933-.933-1.2 0-1.2.66 0 1.088-.561.95-1.246-.332-1.655-3.018-3.706-4.033-3.079-.442.273-1.481-.064-2.308-.751-1.182-.98-1.232-1.415-.235-2.031.697-.431 1.002-1.051.676-1.376-.81-.811-5.85 1.572-5.85 2.766 0 .529-.67.406-1.489-.274-.819-.68-1.253-1.618-.964-2.086.685-1.107-7.093-8.885-9.047-9.048a109.35 109.35 0 01-2.75-.268c-.687-.078-2.733 1.778-4.546 4.125-3.464 4.486-7.314 5.681-8.94 2.775-.46-.822-2.17-1.577-3.8-1.679-1.63-.102-3.414-.435-3.964-.741-.55-.306-1.225-.585-1.5-.621-.275-.035-1.569-.428-2.875-.872-1.637-.557-2.642-.387-3.235.549-.684 1.081-.862 1.091-.875.048-.008-.733-.523-.995-1.17-.596-.634.393-.889.285-.564-.24 1.091-1.766-2.613-3.06-6.112-2.136-2.761.73-3.125 1.129-2.128 2.331.79.951.835 1.45.131 1.45-.59 0-1.531-.788-2.092-1.75-.962-1.652-1.021-1.648-1.05.059-.017 1.023-.494 1.522-1.097 1.149-.587-.362-1.312.275-1.611 1.417-.436 1.668-.906 1.883-2.39 1.088-1.447-.774-2.082-.552-2.925 1.024-1.223 2.286-4.007 2.723-4.007.63 0-.761-.918-1.624-2.041-1.917-1.654-.433-1.926-.17-1.433 1.383.354 1.115.137 1.917-.518 1.917-.619 0-.848-.45-.508-1 .34-.55-.046-1-.858-1-.811 0-1.644-.506-1.85-1.125-.246-.737-1.529-.872-3.717-.392-2.196.483-2.907 1.002-2.076 1.516.905.56.64.981-.932 1.48-1.208.383-2.534 1.609-2.946 2.723-.731 1.977-.795 1.981-2.614.162-1.025-1.025-2.153-1.864-2.507-1.864-.354 0-1.434-.792-2.402-1.759-.968-.968-2.06-1.577-2.429-1.355-.368.222-1.218-.191-1.89-.917-.671-.727-.844-1.467-.384-1.645.46-.178.479-1.224.041-2.324-.744-1.872-.8-1.851-.866.317-.056 1.851-.473 2.19-2.07 1.683-1.419-.45-2-.18-2 .933 0 1.124-1.061 1.6-3.75 1.682l-3.75.115 3.849.744c2.117.409 4.817.688 6 .62 1.237-.07 3.469 1.257 5.252 3.124 1.706 1.785 3.393 2.954 3.75 2.597.357-.356.649.346.649 1.562 0 1.524.524 2.119 1.688 1.917 1.226-.214 2.92 2.101 6.193 8.462 3.023 5.874 4.838 8.425 5.513 7.75 1.266-1.266 3.924-1.33 3.149-.075-.317.512-.111 1.218.457 1.569.568.351.731 1.127.362 1.724-.401.647-.206.797.483.371.635-.392 1.155-.263 1.155.287s-.408 1.252-.906 1.56c-1.422.879-.039 4.558 1.714 4.558 1.3 0 1.253.235-.268 1.347-1.296.948-1.496 1.562-.675 2.069.642.397.909 1.141.592 1.653-.316.512.502.931 1.817.931 1.46 0 2.393.585 2.393 1.5 0 .825-.465 1.5-1.034 1.5-.699 0-.692.341.019 1.052 1.506 1.506 6.713 1.896 7.583.569.512-.782.739-.729.75.174.011.937.981 1.114 3.504.641 2.693-.505 3.63-.288 4.105.949.339.882.987 1.374 1.442 1.093.454-.281 1.113-.046 1.464.522.351.568 1.061.772 1.577.453s1.63.111 2.476.957c.845.845 3.298 2.011 5.45 2.591 2.559.689 3.739 1.508 3.41 2.366-.285.741 1.037 2.363 3.035 3.723 1.946 1.325 3.541 2.958 3.545 3.629.004.671.681.96 1.507.643.825-.317 1.507-1.315 1.515-2.219.014-1.426.144-1.445.985-.143.857 1.327.971 1.324.985-.028.008-.84.915-2.298 2.015-3.24 1.673-1.432 2-1.468 2-.222 0 .819.702 1.49 1.559 1.49s1.281.45.941 1c-.34.55.057 1 .882 1s1.778-.45 2.118-1c.34-.55.126-1-.476-1-.718 0-.785-.602-.196-1.75.494-.962.802-2.874.684-4.249-.269-3.133 2.169-5.039 5.686-4.446 1.813.306 2.998-.082 3.614-1.184.717-1.281 2.479-1.638 8.074-1.634 3.935.003 7.398-.387 7.694-.866.296-.479.061-.871-.521-.871-.582 0-1.059-.99-1.059-2.2 0-1.711.267-1.933 1.2-1 .66.66 2.46 1.2 4 1.2 2.133 0 2.8.476 2.8 2 0 2.008 1.067 2.599 2.359 1.308 1.476-1.477 4.582-1.318 3.998.204-.413 1.077.132 1.488 1.977 1.488 2.995 0 4.337-1.529 2.097-2.388-.857-.329-1.264-1.073-.905-1.653.449-.728 1.091-.692 2.063.115 1.098.911 1.414.866 1.426-.202.011-.983.227-1.04.76-.201 1.08 1.697 6.225 2.837 6.225 1.378 0-.642-.451-.888-1.002-.548-.551.341-1.45-.56-1.998-2.001-.548-1.441-1.381-2.383-1.851-2.092-1.107.684-4.853-2.038-3.99-2.9.36-.36 2.159.141 3.998 1.114 4.085 2.161 5.662 2.479 6.398 1.289.31-.501.117-.911-.428-.911-.812 0-.869-1.911-.181-6 .047-.275.564.175 1.15 1 .816 1.148.92.836.445-1.334-.404-1.843-.258-2.609.419-2.191.572.354 1.047.054 1.055-.666.012-.969.257-.928.943.157.583.922.547 1.925-.096 2.701-.699.842-.695 2.916.014 6.533 1.858 9.484 2.481 17.139 1.337 16.432-.578-.358-1.731.029-2.561.859-.83.83-2.216 1.509-3.081 1.509-.864 0-1.571.675-1.571 1.5 0 1.707 1.568 2.009 2.51.484.346-.559 1.05-.756 1.566-.437s1.208-.124 1.538-.984c.33-.859 1.028-1.563 1.552-1.563s.631.52.239 1.155c-.393.634-.288.891.233.569.521-.322 1.009.242 1.085 1.254.089 1.176-.737 2.06-2.289 2.449-2.074.521-2.26.879-1.273 2.459.686 1.098.825 2.613.343 3.732-.446 1.035-.721 2.63-.61 3.543.111.914-.27 1.953-.846 2.309-.576.357-1.048.171-1.048-.411s-.45-1.059-1-1.059c-1.57 0-1.17 3.154.655 5.171.91 1.006 1.162 1.829.559 1.829-.603 0-1.371-.446-1.708-.99-.385-.623-1.107-.531-1.948.25-.981.91-1.034 1.461-.197 2.073.641.469-.499.606-2.611.313-3.487-.484-3.75-.342-3.75 2.024 0 1.903.396 2.392 1.572 1.941.865-.332 2.44-.14 3.5.428 2.467 1.32 2.634-.528.178-1.959-1.605-.935-1.61-1.022-.059-1.05.93-.016 1.974.427 2.319.986.346.559 1.05.756 1.566.437s1.196.091 1.51.911c.315.82 1.437 1.324 2.493 1.121 2.615-.504 2.54 2.54-.079 3.225-1.868.489-2.008 1.42-2.128 14.157-.161 17.275-.271 18.217-2.242 19.32-.994.556-1.63 2.202-1.63 4.218v3.305l7.25.721c3.988.396 12.579 1.042 19.093 1.435 9.648.581 12.02 1.031 12.799 2.424.527.94 1.561 1.71 2.299 1.71s1.625 1.125 1.97 2.5c.584 2.329 1.054 2.502 6.858 2.522l6.231.022 8.5 7.48c5.166 4.546 9.284 7.415 10.5 7.315 2.85-.236 7.5 2.214 7.5 3.952 0 1.114.825 1.337 3.397.919 2.235-.362 8.303.736 17.75 3.214l14.353 3.764 27.485-.435 27.485-.435 3.09 3.68c2.528 3.012 3.802 3.705 7.015 3.817 6.558.229 28.649-2.352 33.21-3.88 2.357-.789 6.783-1.435 9.837-1.435 5.203 0 5.62.181 6.642 2.889 1.18 3.124 5.295 5.984 7.776 5.405.848-.198 2.367-1.894 3.377-3.769 1.844-3.424 7.376-6.525 11.641-6.525 1.109 0 3.989-2.029 6.399-4.509 2.566-2.64 5.664-4.765 7.475-5.127l3.094-.619-.263-34.123c-.246-31.86-.379-34.103-2.013-33.828-2.241.376-2.201-.542.194-4.471 1.991-3.265 1.692-4.143-1.944-5.695-.825-.352-.225-.394 1.334-.094 2.15.414 2.639.235 2.028-.744-1.182-1.892-1.319-3.79-.274-3.79 1.601 0 1.057-7.73-.588-8.362-.825-.316-1.5-.212-1.5.233 0 .444-1.125 1.321-2.5 1.947-2.232 1.017-2.5.915-2.5-.946 0-1.443-.462-1.909-1.5-1.51-1.091.418-1.537-.167-1.636-2.143-.118-2.358-.194-2.42-.57-.469-.583 3.029-2.944 2.862-3.539-.25-.263-1.375-.09-2.5.384-2.5.473 0 .893 1.012.931 2.25.067 2.147.11 2.158.93.25 1.305-3.036 1.172-3.5-1-3.5-1.997 0-2.493-1.322-2.129-5.675.259-3.102-3.454-5.181-5.106-2.858-1.211 1.704-.709-4.67.707-8.967.845-2.564 1.384-3.282 1.502-2 .103 1.118.406 1.449.688.75.278-.688 1.367-1.25 2.421-1.25 1.055 0 1.917-.414 1.917-.92 0-1.295 9.753-4.389 11.601-3.68.839.322 1.246 1.039.903 1.593-.342.554-.145 1.007.437 1.007s1.059-1.35 1.059-3-.466-3-1.035-3c-.713 0-.712-.604.003-1.939.628-1.175.67-2.166.107-2.515-.512-.316-1.219.331-1.57 1.439-.787 2.478-3.19 2.644-3.826.265-.401-1.502-.567-1.441-1.172.433-.695 2.152-.746 2.141-3.606-.784-1.596-1.633-2.901-2.658-2.901-2.278 0 .379-.9-.126-2-1.121-1.529-1.384-2.004-1.479-2.015-.405-.013 1.147-.206 1.13-1.054-.095-.856-1.237-.982-1.149-.716.5.219 1.353 1.045 1.961 2.554 1.88 6.057-.325.398 3.066-7.013 4.202l-3.256.5 3.321-1.523c1.826-.837 3.033-1.986 2.683-2.553-.351-.567.054-2.419.9-4.115 1.391-2.788 1.389-3.025-.025-2.483-1.028.395-1.743-.083-2.085-1.393-.287-1.096-.903-1.757-1.369-1.468-.467.288-.416 1.662.113 3.054 1.61 4.233 1.236 6.283-1.038 5.689-2.043-.534-2.809-2.29-1-2.29 1.469 0 1.218-3.574-.342-4.869-.738-.612-1.638-.818-2-.456-.362.362-.658-.06-.658-.937 0-1.75-2.584-4.738-4.097-4.738-.533 0-.759 2.094-.512 4.75.242 2.613.486 6.1.54 7.75.07 2.097.36 2.589.965 1.634.567-.895.886.13.925 2.978.033 2.389-.476 4.684-1.131 5.1-2.337 1.486-3.69.764-3.675-1.962.012-2.143.23-2.419.985-1.25.692 1.071.944.069.88-3.5l-.09-5-1.318 4c-.725 2.2-1.353 5.189-1.395 6.643-.042 1.454-.752 2.902-1.577 3.219-.825.316-1.5 1.291-1.5 2.166 0 .874.361 1.367.803 1.094.943-.583.738 4.097-.326 7.451-2.136 6.728-8.527 6.333-9.585-.593-.335-2.189-.672-2.95-.75-1.691-.118 1.906-.376 2.074-1.537 1-.767-.709-1.148-1.696-.846-2.194.303-.497.062-.602-.535-.233s-1.382.191-1.744-.394c-.929-1.503-3.514.779-2.849 2.514.282.734 1.779 1.86 3.328 2.501 2.09.866 2.683 1.672 2.301 3.131-.283 1.081-.753 1.726-1.045 1.434-.817-.816-3.267 1.56-2.645 2.565.565.914-2.295 1.355-6.411.99-1.422-.126-2.086.206-1.691.845.382.619-.301 1.058-1.659 1.067-1.369.009-1.839.315-1.154.751.836.532.641 1.699-.708 4.234-1.214 2.281-1.878 2.87-1.905 1.691-.023-.995-.472-1.543-.998-1.218-.526.325-.703 1.252-.393 2.059.309.807.065 1.468-.544 1.468s-1.107.675-1.107 1.5c0 .884.923 1.506 2.25 1.515 1.819.013 1.963.201.75.985-2.553 1.65-5.016 1.223-4.321-.75.504-1.435.371-1.523-.741-.49-1.106 1.026-1.589.842-2.612-1-.69-1.243-1.271-1.671-1.291-.951-.019.72-.372 1.105-.785.855-.413-.25-1.33.174-2.039.941-1.058 1.144-1.035 1.395.127 1.395 1.997 0 4.057 2.638 2.711 3.47-.577.356-1.049.16-1.049-.436s-1.222-1.548-2.716-2.116c-2.18-.829-2.427-1.216-1.25-1.96.996-.63 1.065-.932.216-.943-1.944-.023-1.471-2.005.5-2.094 1.394-.063 1.445-.195.25-.65-.825-.314-1.831-1.066-2.235-1.671-.404-.605-.741.19-.75 1.767-.012 2.312-.379 2.771-1.899 2.374-1.124-.294-2.579.318-3.607 1.519-1.281 1.497-1.919 1.694-2.491.769-.571-.924-.951-.946-1.482-.087-.539.872-1.06.868-2.125-.016-2.149-1.783-1.684-3.136.839-2.442 2.171.598 2.182.566.338-.911-1.145-.916-2.853-1.293-4.261-.94-1.87.469-2.224.262-1.733-1.018.513-1.335.091-1.502-2.489-.986-1.772.354-3.105.203-3.105-.352 0-.536-1.8-1.681-4-2.545-2.317-.91-4-2.236-4-3.152 0-.869-.408-1.58-.906-1.58-.499 0-.67.905-.381 2.012.36 1.375-.288 2.652-2.048 4.037-1.507 1.185-2.341 2.631-2.013 3.488.309.805.064 1.463-.545 1.463a1.118 1.118 0 01-1.107-1.122c0-.825-.362-.822-1.365.01-1.684 1.398-5.498-.369-9.034-4.185-1.315-1.419-2.688-2.283-3.05-1.92-.363.362-1.078-.003-1.59-.812-.78-1.234-.933-1.189-.946.279-.008.962-.465 1.75-1.015 1.75-1.221 0-.878-2.223.5-3.235.55-.404.025-.741-1.167-.75-1.191-.008-2.393.547-2.671 1.235-.277.688-.54-.137-.583-1.833-.081-3.167-2.72-4.399-4.314-2.016-.439.657-.741.318-.75-.842-.015-1.922-.031-1.922-1.567 0-1.508 1.887-1.534 1.879-.934-.303.483-1.758.278-2.113-.949-1.643-1.045.401-1.565.032-1.565-1.113 0-1.169.515-1.516 1.621-1.092 1.245.478 1.498.156 1.093-1.392-.289-1.108-.118-2.266.38-2.574.498-.308.906.242.906 1.221 0 1.52.229 1.455 1.558-.442.857-1.224 1.28-2.674.941-3.223-.339-.549-.178-.998.359-.998.536 0 1.202.563 1.48 1.25.403 1 .52 1 .583 0 .043-.687.577-1.25 1.186-1.25s.861.642.559 1.427c-.301.785.101 1.965.893 2.622.793.658 1.441.898 1.441.534s.605-.097 1.344.594c.859.802 1.181 2.664.892 5.165-.311 2.697-.108 3.697.656 3.225.636-.393 1.108.004 1.108.933 0 2.408 1.977.738 2.142-1.809.078-1.205.464-.391.858 1.809l.716 4 .142-4.191c.078-2.305-.308-4.469-.858-4.809-.55-.34-1-.141-1 .441s-.459 1.059-1.019 1.059c-.588 0-.753-1.058-.392-2.5.438-1.745.217-2.504-.731-2.515-.747-.008-.233-.598 1.142-1.311 1.73-.898 2.726-.97 3.235-.236.404.584.741.655.75.157.008-.498.859-.141 1.891.793 1.706 1.544 1.933 1.552 2.493.092.339-.884 1.07-1.327 1.624-.984.554.342 1.007.172 1.007-.378s-.489-1.302-1.087-1.672c-.598-.369-.873-1.492-.611-2.494.263-1.003-.12-2.052-.85-2.332-.73-.28-1.528.253-1.773 1.185-.323 1.226-.479 1.081-.563-.524-.08-1.538-.576-2.042-1.616-1.643-.986.379-1.5-.032-1.5-1.198 0-.975-.279-1.495-.619-1.154-.928.928-3.606-2.113-2.886-3.278.343-.555.169-1.008-.386-1.008s-1.468.788-2.029 1.75c-.731 1.256-1.028 1.35-1.05.333-.016-.779-.291-1.155-.61-.836-.319.319.183 1.744 1.115 3.166.932 1.423 1.386 2.587 1.009 2.587-.996 0-3.843-2.997-2.865-3.015.451-.009.146-.493-.679-1.076-1.129-.799-1.191-1.187-.25-1.568.806-.328 1.19-2.342 1.082-5.674-.135-4.142-.245-4.444-.554-1.525-.332 3.135-.679 3.566-2.488 3.093-1.423-.372-1.874-.179-1.394.596.469.76.146.931-.96.506-1.421-.545-1.503-.331-.552 1.446.614 1.147 1.1 2.678 1.081 3.401-.02.724-.631.243-1.358-1.069-.77-1.389-1.593-1.947-1.971-1.336-.357.578-.083 1.278.608 1.557.791.318.639.535-.411.585-.916.043-1.893-.483-2.171-1.171-.277-.687-.54.625-.583 2.917-.047 2.491.424 4.346 1.171 4.613.688.245.888.832.446 1.304-.443.472-1.273.196-1.845-.613-.849-1.201-.933-1.14-.457.331.342 1.057.174 1.549-.405 1.191-.544-.336-.989.064-.989.889s-.432 1.767-.959 2.093c-1.444.892-5.041-1.717-5.041-3.657 0-2.136-1.658-3.254-2.336-1.574-.402.998-.522.999-.585.006-.043-.687-.91-1.25-1.926-1.25s-2.766-.788-3.889-1.75a797.408 797.408 0 00-6.153-5.178c-4.298-3.584-5.139-5.74-2.617-6.708.822-.316 1.246-.976.941-1.469-.838-1.357 1.979-1.07 3.49.355 1.088 1.026 1.232.724.803-1.687-.682-3.836.152-6.295 1.492-4.397.629.892.731.339.306-1.666-.349-1.65-1.279-3.494-2.065-4.099-.787-.604-1.099-1.453-.695-1.885.403-.433-.278-.26-1.516.384-1.865.97-2.25.907-2.25-.365 0-.844-.477-1.535-1.059-1.535s-.823.382-.534.849c.289.467-.62 1.462-2.019 2.211-2.694 1.442-5.177 4.94-3.507 4.94.524 0 1.114-.485 1.311-1.077.198-.592 1.235-.108 2.306 1.075l1.948 2.152-2.596-.651c-2.193-.551-2.693-.26-3.229 1.874-.628 2.503-.662 2.511-3.677.827-2.919-1.631-3.104-1.619-4.533.295-1.939 2.596-3.543.415-2.72-3.698.347-1.737.133-2.797-.566-2.797-.619 0-1.125.661-1.125 1.469 0 .894-.586 1.243-1.5.893-1.96-.753-1.911.526.106 2.755 1.491 1.647 1.455 1.763-.5 1.616-1.69-.127-2.106-.819-2.106-3.505 0-1.976-.409-3.093-1-2.728-1.4.865-1.251-.849.2-2.3.933-.933.878-1.203-.25-1.215-1.233-.013-1.226-.161.05-.985 1.826-1.18 3.299-1.293 2.625-.202-.271.439-.08 1.451.426 2.25.737 1.166.924 1.058.949-.548.025-1.659.196-1.744 1-.5.828 1.282.972 1.246.985-.25a1.872 1.872 0 011.765-1.829c1.347-.061 1.415-.211.293-.652-1.775-.699 6.219-3.232 10.266-3.254 1.797-.01 2.562-.414 2.125-1.122-.461-.746.013-.886 1.456-.428 1.257.399 4.614-.176 8.13-1.393 7.146-2.473 7.068-2.466 6.344-.578-.316.822-.973 1.248-1.461.946-.488-.301-1.538-.184-2.333.261-1.146.641-.94 1.048.992 1.96 1.974.932 2.438.883 2.438-.255 0-.773.477-1.406 1.059-1.406s.738-.52.346-1.155c-.414-.668-.278-.884.323-.513.57.352 2.103-.198 3.407-1.223 2.338-1.84 5.876-.579 4.055 1.445-.38.422-.127.443.56.047 1.75-1.007 1.557-.051-.381 1.887-1.508 1.508-1.475 1.671.431 2.17 1.352.354 1.885 1.107 1.549 2.191-.455 1.468-.365 1.482.819.124 1.525-1.747 7.966-2.128 9.067-.536.454.657.74.469.75-.494.028-2.882-4.891-7.772-7.29-7.248-1.773.387-1.907.273-.695-.593 1.188-.849.772-1.097-2-1.196-2.911-.103-2.49-.337 2.5-1.387 3.3-.694 5.535-1.32 4.967-1.391-1.134-.141-1.234-4.078-.148-5.835 1.055-1.708 4.681-.296 4.681 1.824 0 1.32.672 1.848 2.25 1.767 1.693-.087 1.817-.229.5-.573-.962-.252-1.75-1.169-1.75-2.039 0-1.393.228-1.376 1.905.142 1.596 1.444 2.527 1.552 5.75.667 2.115-.58 4.97-1.185 6.345-1.342 1.375-.158 2.387-.838 2.25-1.513-.138-.674.2-1.226.75-1.226s1 .45 1 1 .9 1 2 1 1.888-.506 1.75-1.125c-.137-.619.313-1.331 1.001-1.584.766-.281 1.035.104.693.994-.679 1.77 3.398 3.091 5.123 1.659.977-.81 2.316-.814 6.305-.018.205.041-.241.814-.992 1.718-1.222 1.473-1.104 1.563 1.128.863 5.847-1.834 5.632-1.806 3.992-.515-1.232.97-1.053 1.079 1 .608 1.375-.315 2.864-.579 3.309-.586.445-.008.55-.433.234-.945-.856-1.385.837-2.073 2.505-1.018 1.009.638 1.069.923.194.934-1 .012-1.007.418-.035 1.975.883 1.414 1.438 1.623 1.993.75.528-.83.774-.661.785.54.008.963.352 1.681.765 1.596 1.682-.347 8.221 3.275 9.683 5.362 1.334 1.905 1.567 1.972 1.567.453 0-2.231 8.811-1.301 10.579 1.117.864 1.181 1.513 1.243 3.25.313 1.703-.911 2.186-.884 2.241.124.039.707.457.385.93-.715.812-1.889.863-1.872.93.309.111 3.646 1.625 1.734 1.903-2.404.139-2.054-.232-4.034-.824-4.4-.592-.366-.774-1.454-.404-2.419.447-1.164.908-1.373 1.372-.623.384.621 2.234 1.232 4.111 1.357 4.179.279 6.214 1.452 5.544 3.197-.277.722-.161 2.589.258 4.148l.762 2.835 1.209-2.25c.884-1.644.902-2.25.069-2.25-.627 0-.08-1.115 1.215-2.477 1.846-1.941 2.571-2.198 3.355-1.188 1.311 1.69 4.5 2.866 4.5 1.659 0-.518 1.328-1.629 2.95-2.468 3.309-1.711 10.528-2.109 9.55-.526-1.137 1.839.258 1.028 3.599-2.092 3.037-2.838 3.377-2.941 4.126-1.25.675 1.524.742 1.453.389-.408-.235-1.238-.019-2.25.48-2.25.498 0 .909.563.913 1.25.003.688.864-.052 1.913-1.643s1.795-3.391 1.658-4c-.138-.609-.077-.817.134-.463.211.354 1.15.491 2.086.305.936-.186 3.369-.605 5.407-.931 2.47-.394 3.538-1.023 3.206-1.888-.654-1.706-3.411-1.676-3.411.037 0 .758-1.087 1.333-2.52 1.333-3.836 0-2.331-6.747 1.639-7.347.76-.115 1.994-.592 2.743-1.059.858-.536 1.685-.34 2.234.528.602.95.878.369.889-1.872.012-2.666-.372-3.25-2.14-3.25-2.092 0-2.102-.059-.345-2 1.873-2.069 1.565-2.348-2.25-2.039-1.589.129-2.25-.362-2.25-1.669 0-1.018-.9-2.499-2-3.292-1.1-.793-2-1.937-2-2.542 0-.64-1.781-1.071-4.25-1.029-2.337.039-4.534-.32-4.882-.797-.348-.477-1.585.085-2.75 1.25S441.44 225 441.979 225c.598 0 .541.959-.147 2.469-.618 1.357-1.509 2.231-1.978 1.941-.47-.291-.886.061-.924.781-.039.72-.457.409-.93-.691-.849-1.977-.86-1.976-.93.059-.038 1.132-.775 2.932-1.636 4-1.513 1.876-1.551 1.857-1.128-.559.24-1.375.762-3.4 1.16-4.5.506-1.401.436-1.6-.233-.666-.771 1.077-1.078 1.014-1.594-.332-.905-2.358-.807-2.725.602-2.255 1.4.467 3.759-1.538 3.759-3.195 0-.618 1.084-.895 2.5-.638 2.686.487 3.783-2.771 1.25-3.711-.703-.261-.046-.944 1.5-1.559 1.512-.602 2.75-1.571 2.75-2.154 0-.733.638-.719 2.064.044 1.458.781 2.439.793 3.342.044.703-.583 1.523-.816 1.822-.517.299.299.476-.799.393-2.44-.199-3.968-.812-4.398-4.232-2.975-1.589.66-4.914 1.139-7.389 1.063-2.475-.076-3.937.109-3.25.41 1.737.761 1.567 2.381-.25 2.381-1.619 0-1.873.865-1.616 5.5.16 2.887.112 2.923-1.28.944-.795-1.132-1.411-2.707-1.368-3.5.29-5.314-.143-5.988-3.486-5.422-5.705.965-6.685 1.484-6.029 3.193.394 1.028.219 1.366-.482.933-.605-.374-1.388-.216-1.739.352-.351.568-1.035.788-1.519.488-1.739-1.074-3.061 3.201-1.413 4.569 1.222 1.013 1.267 1.431.229 2.089-2.197 1.394-3.782.98-3.096-.81.43-1.119.256-1.427-.531-.941-.644.398-1.17 1.173-1.17 1.723 0 .549-1.406 2.749-3.125 4.887-3.292 4.097-2.624 6.995 1.613 6.995.896 0 1.347.457 1.002 1.016-.346.559-1.047.758-1.559.441-.512-.316-.931.127-.931.984s-.73 1.559-1.622 1.559c-1.259 0-1.368.307-.489 1.367 1.301 1.566-6.48 3.164-8.365 1.717-.563-.433-4.062-.576-7.774-.319-6.243.433-7.292.978-6.844 3.559.079.454-.387.497-1.036.096-.739-.457-.913-.298-.465.425.392.635.236 1.155-.346 1.155s-1.059-.466-1.059-1.035c0-.694-.676-.674-2.049.061-1.127.603-4.164.917-6.75.698-3.222-.273-5.021.036-5.719.982-1.378 1.868-7.485 2.536-9.317 1.019-.935-.775-4.73-1.202-10.322-1.164-4.864.034-8.843-.327-8.843-.802 0-.475-3.842-.552-8.537-.171-7.673.623-8.682.502-9.968-1.197-1.312-1.733-1.434-1.745-1.463-.141-.018.963-.482 1.75-1.032 1.75-1.438 0-1.235-2.736.25-3.354.882-.367.661-1.002-.75-2.154-1.1-.898-1.887-2.051-1.75-2.563.138-.511-.2-.929-.75-.929s-1 .675-1 1.5-.436 1.5-.969 1.5c-.532 0-.681-.787-.33-1.75.573-1.571.416-1.555-1.531.155-2.16 1.896-2.17 1.893-2.17-.75 0-2.908-.877-3.326-2.947-1.405-1.099 1.019-1.236.933-.744-.468.332-.945.111-2.022-.491-2.395-.762-.471-.89.507-.419 3.218.436 2.514.346 3.405-.253 2.513-.741-1.104-1.058-.97-1.578.666-.601 1.896-6.549 4.98-6.583 3.414-.009-.384-.424-.052-.924.738-.707 1.117-1.223 1.174-2.327.258-2.193-1.819-2.816-.254-1.168 2.933.86 1.664 1.054 2.873.46 2.873-.564 0-1.026.498-1.026 1.107s.675.848 1.5.531c.825-.316 1.5-.174 1.5.316 0 1.381-6.875 3.319-8.791 2.478-.94-.412-2.046-.678-2.459-.591-.413.088-.75-.291-.75-.841s.675-1 1.5-1 1.5-.477 1.5-1.059.45-.781 1-.441 1 .089 1-.558c0-.757-.801-.93-2.25-.485-4.571 1.402-22.555 1.495-23.082.119-.603-1.571-5.885-2.861-10.743-2.623-2.191.107-4.073-.426-4.863-1.378-1.692-2.039-2.985-1.154-2.448 1.676.398 2.096.363 2.113-.523.249-.922-1.94-.953-1.934-1.021.191-.038 1.205.38 2.469.93 2.809.55.34 1 1.111 1 1.714s-.9.281-2-.714c-1.801-1.63-2.458-1.398-2.118.75.065.412-.359.75-.941.75s-.832.367-.554.816c.277.449-1.834.731-4.691.625-6.857-.253-6.921-.269-6.146-1.522.399-.646-.081-1.003-1.191-.885-3.845.406-5.025.043-3.359-1.034 1.282-.828 1.246-.972-.25-.985-.963-.008-1.75-.465-1.75-1.015 0-.55-.466-1-1.035-1-.713 0-.712.604.003 1.939.69 1.29.702 2.147.035 2.559-.556.344-1.003-.373-1.003-1.606 0-1.224-.263-1.962-.585-1.641-.321.322-1.409-.121-2.417-.985-2.262-1.937-1.874-9.141.591-10.95 1.712-1.257 1.626-1.454-2.756-6.304-.916-1.015-1.404-2.108-1.083-2.429.321-.321.058-.583-.583-.583-.642 0-1.167-.868-1.167-1.929 0-1.06-.675-2.603-1.5-3.428-.825-.825-1.5-1.982-1.5-2.572 0-.589-.927-1.071-2.059-1.071-1.132 0-1.8-.419-1.484-.931.317-.512.118-1.213-.441-1.559-.559-.345-1.016-2.121-1.016-3.947 0-1.825-.675-3.878-1.5-4.563-1.246-1.034-1.5-.914-1.5.711 0 2.644-.614 3.085-3.524 2.529-3.594-.687-3.062-2.676 2.003-7.486 4.185-3.974 5.263-6.213 5.447-11.313.041-1.132.772-2.932 1.626-4 1.498-1.875 1.529-1.86.893.434-.479 1.727-.326 2.17.56 1.622.676-.418 1.65-.14 2.188.625.68.967.79.558.369-1.372-.444-2.034-.214-2.75.884-2.75 2.681 0 3.902-3.819 2.101-6.569-1.469-2.242-1.459-2.694.134-5.683.952-1.787 1.638-3.586 1.525-3.998-.113-.412.292-.75.901-.75s.853-.661.544-1.468c-.31-.807-.164-1.715.324-2.016.487-.302.682-1.676.432-3.054-.25-1.378-.041-3.283.463-4.234 1.194-2.25-1.043-4.655-2.746-2.952-.832.832-1.124.803-1.124-.111 0-.919-.504-.965-1.968-.182-3.673 1.966-8.022.922-8.111-1.946-.043-1.395-.306-1.974-.583-1.287-.278.688-1.007 1.25-1.621 1.25-.776 0-.751-.366.083-1.2.66-.66 1.2-2.016 1.2-3.014 0-.997.548-2.69 1.217-3.761.959-1.536.948-2.857-.052-6.237-.697-2.358-1.32-4.87-1.383-5.581-.063-.711-.715-1.063-1.449-.781-1.515.581-1.692-.213-1.377-6.176.175-3.312-.127-4.25-1.366-4.25-.874 0-1.59-.45-1.59-1s.45-1 1-1 1-.695 1-1.545c0-1.217-.799-1.429-3.75-.999-2.062.301-3.187.284-2.5-.038 1.746-.817 1.568-4.418-.219-4.418-.807 0-1.246-.578-.975-1.284.742-1.936-4.588-1.393-6.057.617-.671.917-1.526 1.667-1.901 1.667-1.48 0-10.598-8.678-10.598-10.086 0-.503-1.37-.914-3.044-.914-1.855 0-2.98-.488-2.881-1.25.304-2.34-.073-3.442-1.898-5.545-1.654-1.908-2.069-1.973-4.502-.711-2.904 1.506-6.61 1.23-7.727-.577-.507-.822-.885-.829-1.382-.024m-86.512 77.865c.38 3.752.011 4.89-1.054 3.242-.533-.825-.976-.988-.985-.361-.008.626-.771 1.076-1.696 1-1.001-.083-1.972.872-2.4 2.361l-.72 2.5-.099-2.75c-.062-1.706-.657-2.75-1.569-2.75-.836 0-1.241-.593-.94-1.377.339-.882-.434-1.618-2.149-2.048-3.316-.833-3.995-.271-2.037 1.687.825.825 1.184 1.851.797 2.279-.386.429-.091.426.655-.006 1.045-.605 1.193-.267.643 1.465-.487 1.533-.361 2.032.393 1.566.621-.384 1.107-.026 1.107.816 0 .825-.45 1.778-1 2.118-.55.34-1 1.068-1 1.618 0 1.581 2.052-.105 3.007-2.47l.866-2.148.064 2.167c.034 1.191-.499 2.393-1.187 2.671-.747.301-.545.536.5.583 1.047.047 1.75.869 1.75 2.048 0 1.32.484 1.783 1.468 1.405 1.507-.579 1.641-2.423.251-3.452-.43-.318-.346-1.668.186-3 .533-1.332.997-1.865 1.032-1.183.034.681.818 2.12 1.741 3.198 1.565 1.828 1.764 1.845 2.968.261 1.521-2.001 1.742-4.198.424-4.198-.512 0-1.126 1.012-1.364 2.25-.32 1.659-.469 1.411-.57-.941-.147-3.453 1.509-5.398 2.468-2.898.465 1.211.847 1.278 1.799.313 1.724-1.745 2.711-4.724 1.566-4.724-.533 0-.969.675-.969 1.5s-.388 1.5-.861 1.5c-.474 0-.659-1.061-.411-2.359.3-1.567-.103-2.571-1.2-2.992-1.173-.45-1.6-.129-1.474 1.109m89.487 19.308c.317.514-.237.948-1.232.966-1.625.028-1.647.156-.221 1.25.873.67 1.374 1.852 1.113 2.627-.293.873.054 1.232.913.944.762-.257 2.47.572 3.794 1.84 1.325 1.269 1.888 2.307 1.25 2.307-.637 0-1.165.787-1.173 1.75-.012 1.373-.202 1.455-.881.384-.656-1.036-1.318-1.104-2.735-.281-1.408.818-1.499 1.101-.369 1.147 1.151.047 1.076.307-.322 1.121-1.003.583-2.864.798-4.136.479-1.428-.359-2.783-.015-3.541.899-.675.813-1.576 1.264-2.001 1.001-.425-.263-1.329.192-2.009 1.011-1.008 1.215-.937 1.489.387 1.489.892 0 1.622.477 1.622 1.059s-.45.781-1 .441-1-.093-1 .548.668.91 1.485.596c.872-.335 1.917.24 2.535 1.393.578 1.08 1.99 1.963 3.138 1.963 1.779 0 1.896.231.79 1.563-1.137 1.369-.966 1.48 1.377.891 2.324-.583 2.683-.361 2.738 1.688l.064 2.358.975-2.441c.536-1.342.89-3.592.786-5-.104-1.407-.077-3.909.061-5.559.237-2.839.287-2.871.923-.598.576 2.058.861 1.665 1.992-2.75 1.469-5.731 2.173-6.19 4.449-2.902 1.528 2.208 1.555 2.179 1.458-1.542-.06-2.323-.713-4.151-1.685-4.719-.872-.511-1.27-.942-.884-.959.386-.016-.41-1.23-1.77-2.697-2.272-2.452-8.213-4.406-6.891-2.267M49.974 204.037c-1.228.777-1.172.935.335.948.995.008 1.529.468 1.187 1.022-.343.554.081 1.277.941 1.607.859.33 1.563 1.142 1.563 1.805 0 1.422 5.349 5.574 7.21 5.596.914.011.853.298-.21.985-1.162.751-.86.973 1.344.985 2.01.011 2.997-.571 3.366-1.985.29-1.107 1.364-2 2.407-2 1.132 0 1.877-.697 1.868-1.75-.009-.988-.335-1.315-.75-.75-.404.55-1.255 1.098-1.89 1.218-1.474.279-2.572-2.46-1.301-3.245.526-.325.956-.082.956.539 0 .677.603.528 1.5-.369 1.658-1.658 2.03-3.089.569-2.186-.512.317-1.218.111-1.569-.457-.351-.568-1.057-.774-1.569-.457-.512.316-.931.09-.931-.503 0-1.225-4.747-.358-6.769 1.236-.888.7-1.863.462-3.25-.793-1.089-.986-1.988-1.386-1.996-.888-.009.498-.358.366-.777-.292-.502-.79-1.263-.88-2.234-.266m204.53 51.275a152.542 152.542 0 00-4.743 3.001c-1.511.998-3.27 1.49-3.909 1.096-.784-.485-.896-.261-.346.686.448.773.464 1.089.035.703-.428-.387-1.392-.089-2.142.66-.75.75-1.93 1.552-2.622 1.783-.92.307-.79.889.482 2.161 2.323 2.323 2.244 4.363-.088 2.253-2.704-2.448-3.159-2.089-3.289 2.595-.092 3.303-.259 3.69-.75 1.737-.671-2.668-1.259-2.856-4.973-1.591-1.661.565-2.197 1.35-1.844 2.7.274 1.047.063 1.904-.468 1.904s-.709.414-.397.919c.313.506-.143 1.631-1.012 2.5-1.441 1.441-1.437 1.581.051 1.581 1.262 0 1.521.7 1.143 3.098-.443 2.811-.287 3.033 1.69 2.403 1.198-.382 2.965-.748 3.928-.812.963-.065 1.75-.374 1.75-.688 0-.313 1.312-1.345 2.915-2.291 2.9-1.714 2.919-1.709 3.921 1.034.573 1.569 1.04 2.038 1.085 1.088.163-3.441-1.11-4.832-4.421-4.832-2.099 0-3.509-.582-3.904-1.611-.443-1.153-.189-1.447.893-1.032.982.377 1.522-.022 1.543-1.138.056-3.017 2.871-5.988 3.992-4.214 1.36 2.15 1.198 2.792-.666 2.634-.904-.076-1.841.424-2.084 1.112-.243.688.159 1.099.892.914.734-.186.994-.148.578.084-1.271.708.259 2.251 2.232 2.251 1.021 0 2.058-.562 2.304-1.25.245-.687.832-.888 1.304-.446.472.443.196 1.223-.613 1.735-1.678 1.062-.104 1.314 6.026.964 3.863-.22 10.671-2.785 7.753-2.921-.962-.045-1.75-.532-1.75-1.082s-.477-1-1.059-1-.837.36-.565.8c.756 1.223-6.771.998-7.611-.227-.404-.59-.778-2.648-.831-4.573l-.096-3.5-1.338 3c-1.108 2.484-1.455 2.703-2.016 1.276-.729-1.854 1.89-5.281 3.347-4.38.466.287 1.848-1.259 3.072-3.437 1.395-2.482 2.947-3.959 4.161-3.959 1.065 0 1.936-.675 1.936-1.5s.034-1.826.075-2.225c.127-1.226-1.476-1.209-3.571.037m-56.138 2.923c.334 1.246.613 2.629.62 3.074.008.445.399.571.87.28.47-.291.689.695.486 2.191-.3 2.208-.21 2.352.48.762.753-1.733 1.156-1.436 3.514 2.588 1.465 2.5 2.664 4.87 2.664 5.267 0 1.576-2.136-.731-3.447-3.724-.856-1.955-1.421-2.501-1.471-1.423-.089 1.908-1.596 2.346-2.582.75-.34-.55-1.017-1-1.505-1-.832 0 1.472 9.317 2.844 11.5.346.55.482 3.363.302 6.25-.186 2.997.096 5.25.658 5.25 1.041 0 2.663 4.666 2.33 6.705-.108.663.944 1.952 2.337 2.865 1.394.913 2.534 2.344 2.534 3.18 0 1.019.659.682 2-1.023 1.1-1.398 2-3.104 2-3.79 0-.847.586-.717 1.829.408 2.299 2.08 3.566 2.127 2.789.103-.327-.854-.19-1.301.306-.995.495.306.779-.233.63-1.198-.149-.965.055-1.98.453-2.255 1.2-.829 2.239-5.077 1.168-4.775-2.774.782-1.367-6.057 1.575-7.653 2.532-1.374 2.576-1.495.559-1.532-1.205-.022-2.474-.497-2.819-1.056-.346-.559-1.047-.758-1.559-.441-.512.316-.931.098-.931-.484s.675-1.059 1.5-1.059c1.571 0 2.038-2.129.75-3.417-.412-.412-.806-1.162-.875-1.666-.069-.504-.181-1.356-.25-1.892-.08-.628-1.065-.618-2.764.028-3.106 1.181-2.732 1.456-4.803-3.537-1.065-2.569-1.277-4.11-.599-4.336.58-.193.799-.762.488-1.265-.311-.503.437-.915 1.661-.915 2.64 0 2.052-.891-.973-1.474-1.212-.233-2.142.104-2.15.781-.01.736-.421.619-1.075-.307-.797-1.129-.921-.634-.501 2 .307 1.925.122 4.175-.41 5-.533.825-1.001 1.275-1.041 1-.885-6.088-.79-9.002.294-9.015.829-.01.745-.341-.252-.985-2.384-1.541-3.996-1.183-3.374.75.339 1.053.227 1.323-.282.677-.464-.59-1.686-1.384-2.715-1.765-1.567-.58-1.772-.324-1.263 1.573m161.7 2.142C358.661 263.002 357 263.881 357 262c0-.55-.45-1-1-1s-1 1.275-1 2.833c0 1.767.529 2.834 1.405 2.834.772 0 1.296-.488 1.164-1.084-.133-.595-.052-.746.178-.333.231.413.957.75 1.614.75.657 0 2.302.776 3.657 1.725 3.299 2.311 6.086 2.709 5.339.763-.351-.915.014-1.488.949-1.488 1.126 0 1.42-.841 1.136-3.25l-.383-3.25 1.321 2.874c1.209 2.629 1.368 2.699 1.859.819.328-1.251-.216-2.865-1.39-4.124-2.284-2.452-3.293-2.667-2.472-.528.455 1.185.216 1.331-1.035.631-1.97-1.103-5.304-.371-5.442 1.195-.055.623-.399.065-.765-1.24l-.665-2.373-1.404 2.623M407 281.417c0 1.329.53 2.593 1.177 2.809.772.257.861.888.257 1.833-1.019 1.595-1.504 4.648-1.581 9.941-.041 2.82-.212 3.112-.882 1.5-.703-1.692-.841-1.529-.901 1.059-.087 3.799 2.102 7.071 3.962 5.921 1.038-.641.905-1.007-.598-1.644-1.868-.791-1.865-.81.066-.549 1.115.151 2.786-.712 3.778-1.951 1.109-1.386 3.394-2.464 6.076-2.866 4.157-.624 5.604-2.845 3.333-5.116-.378-.378-.694-1.625-.702-2.771-.012-1.522-.243-1.724-.861-.749-1.091 1.72-2.124-.7-2.124-4.975 0-1.68-.425-2.714-.975-2.374-.537.331-.823 1.916-.636 3.521.339 2.912-.798 4.1-3.113 3.25-.886-.326-.768-.907.428-2.103 1.537-1.537 1.535-1.676-.038-1.979-.93-.179-1.436-.738-1.124-1.242.311-.504.106-1.707-.457-2.674-.848-1.456-1.029-1.187-1.055 1.563-.027 2.953-.197 3.155-1.53 1.822-.825-.825-1.493-2.095-1.485-2.822.012-.976.269-.929.985.179.828 1.282.972 1.246.985-.25.008-.962-.66-1.75-1.485-1.75-.92 0-1.5.935-1.5 2.417m31.393 14.165c.334.87.607 1.796.607 2.059 0 .262.394.234.875-.064.481-.297.875.624.875 2.048 0 1.829-.252 2.191-.86 1.232-.685-1.081-.862-1.091-.875-.048-.008.72-.423 1.057-.921.749-.498-.308-.684-1.409-.413-2.446.271-1.038.004-2.189-.594-2.558-.605-.374-1.087.019-1.087.887 0 .857-.49 1.446-1.088 1.309-1.385-.318-5.09 6.337-4.453 8 .263.688-.086 1.25-.776 1.25-.69 0-1.254.9-1.254 2 0 2.236 1.115 2.665 1.948.75.299-.687.294-.038-.011 1.443s-.258 3.172.104 3.758c1.092 1.768 4.034-2.012 3.678-4.727-.176-1.347.077-2.203.563-1.902 1.431.884 3.3-.783 3.803-3.392.432-2.248 1.781-3.521 2.918-2.755.545.367 3.487-3.289 3.536-4.394.018-.395-.756-.423-1.718-.062-1.532.574-1.579.446-.378-1.032.755-.928 1.093-1.743.75-1.812a31.017 31.017 0 00-1.539-.25c-.504-.069-1.254-.462-1.666-.875-1.335-1.335-2.648-.795-2.024.832m-15.185 21.861c-.88 1.931-.615 2.476 1.937 3.984 2.277 1.345 2.704 2.05 1.857 3.07-.76.916-.776 1.525-.051 1.973.578.357 1.081-.164 1.119-1.161.058-1.477.196-1.529.75-.287.627 1.403 1.313 1.558 4.989 1.13.721-.084.988-.671.596-1.307-.443-.715-.275-.883.44-.44.685.422 1.155.078 1.155-.846 0-.857.354-1.559.787-1.559.433 0 .852-.864.932-1.919.149-1.975-2.604-3.763-3.639-2.365-.319.431-1.705.898-3.08 1.037-1.95.197-2.17.036-1-.735.825-.543 1.272-.994.993-1.003-.278-.008-1.915-.419-3.636-.913-2.726-.781-3.261-.609-4.149 1.341M129 328.961c0 1.671-.338 2.986-.75 2.921-2.198-.347-3.058.409-3.612 3.176-.336 1.682-1.273 3.72-2.082 4.529-.809.809-1.217 2.133-.907 2.942.311.809.067 1.471-.542 1.471s-1.107-.648-1.107-1.441-.429-1.706-.953-2.03c-1.224-.757-5.122 2.54-4.395 3.717.302.489-.396 1.136-1.551 1.438-2.048.535-2.982 2.316-1.215 2.316.487 0 1.638 1.585 2.558 3.523.92 1.938 2.099 3.259 2.621 2.937.522-.323 1.216.109 1.542.958.471 1.227 1.016 1.319 2.645.447 1.723-.922 1.952-.839 1.431.519-.374.975-.107 1.616.675 1.616.871 0 1.151.984.855 3-.357 2.436-.09 2.985 1.424 2.921 1.024-.043 1.343-.292.708-.552-.831-.34-.881-1.465-.177-4.014.538-1.949.72-3.8.405-4.115-.315-.316-.58.289-.588 1.343-.013 1.604-.174 1.672-.985.417-1.12-1.733-1.346-6.03-.235-4.467.85 1.196 2.733 1.303 3.818.217.63-.63-.618-1.09-2.583-.952-.275.02-.5-1.96-.5-4.4 0-3.793.181-4.187 1.25-2.725.971 1.327 1.257 1.387 1.282.268.023-1.044.434-.91 1.489.486 1.561 2.063 2.163 1.96 2.502-.427.449-3.148-.133-4.57-1.023-2.5-.832 1.936-.862 1.931-.93-.168-.038-1.193-.333-2.993-.654-4-.47-1.476-.192-1.39 1.428.439 2.5 2.824 2.984 2.043 2.574-4.153-.399-6.014-4.418-11.16-4.418-5.657m-82.39 15.614c-.388 1.009-1.281 1.347-2.521.953-2.073-.658-3.777.929-2.105 1.962 1.437.888 1.264 2.56-.234 2.26-.791-.158-1.181.759-1.062 2.5.228 3.333-.457 3.549-1.585.5-.669-1.808-1.083-.845-2.111 4.906-1.467 8.208-1.026 10.427 1.916 9.658 4.382-1.146 21.415 8.776 23.221 13.526 1.167 3.068 2.333 2.134 1.266-1.015-.433-1.279-.679-2.887-.547-3.575.132-.687-.23-1.25-.804-1.25-.574 0-1.044-.45-1.044-1 0-1.436 4.51-1.232 8.367.38 1.816.759 5.006 3.459 7.088 6s4.257 4.62 4.832 4.62c.576 0 .75-.296.388-.658-1.14-1.14 1.393-3.251 3.148-2.623.922.33 1.361.249.975-.179-1.785-1.977 2.126-3.637 6.069-2.576 2.155.581 4.72.748 5.7.372 1.379-.529 1.636-.306 1.138.99-.421 1.097-.136 1.674.826 1.674.808 0 1.469.488 1.469 1.083 0 .596.562.882 1.25.635.688-.246 2.092-.014 3.121.517 1.029.53 1.634.582 1.346.115-.289-.468.532-.913 1.823-.991 1.827-.109 2.49.502 2.984 2.75.349 1.59 1.076 2.891 1.614 2.891.539 0 .723-.416.409-.924-.314-.509.222-1.131 1.191-1.384 1.644-.429 1.64-.468-.047-.576-.995-.064-1.526-.573-1.181-1.132.346-.559 1.047-.758 1.559-.441.512.316.961-.239.999-1.234.056-1.503.251-1.429 1.152.441.597 1.238 1.467 2.25 1.933 2.25.466 0 .847.436.847.969 0 .532-.675.709-1.5.393-.825-.317-1.5-.115-1.5.449 0 .564-.262 1.85-.582 2.857-.55 1.734-.504 1.738.861.082.793-.962 1.784-1.75 2.204-1.75.419 0 .215.659-.454 1.465-1.041 1.254-.538 1.452 3.478 1.372 3.017-.061 4.212-.4 3.344-.951-1.092-.691-1.098-.858-.034-.871.887-.01 1.097-.71.643-2.14-.454-1.43-.312-1.902.433-1.441.715.442 1.107-.375 1.107-2.308 0-2.133-.585-3.177-2.042-3.639-1.46-.464-1.868-1.195-1.432-2.568.714-2.25-.293-2.41-2.873-.456-1.016.77-2.552 1.129-3.414.798-.875-.335-1.305-.178-.975.357.325.527-.501 1.048-1.836 1.159-1.335.11-2.428-.244-2.428-.788s-.482-.989-1.071-.989c-.59 0-1.747-.675-2.572-1.5-1.56-1.56-3.845-2.098-2.982-.702.271.439.08 1.451-.426 2.25-.762 1.204-.921 1.154-.934-.298-.011-1.288-.835-1.75-3.122-1.75-2.075 0-2.948.415-2.627 1.25.3.784-.406 1.25-1.893 1.25-1.381 0-2.373-.592-2.373-1.417 0-.779.263-1.154.583-.833.321.321 1.334-.071 2.25-.87 5.622-4.902 8.015-6.35 8.5-5.145.28.696.545.204.588-1.092.056-1.668.517-2.189 1.579-1.781.825.316 1.5.187 1.5-.286 0-.474-.775-1.159-1.722-1.523-1.379-.529-1.452-.827-.368-1.497 1.038-.642.854-.996-.792-1.519-1.181-.374-1.889-1.099-1.574-1.609.521-.842-2.259-1.385-5.218-1.02-.646.08-1.439-.688-1.762-1.705-1.276-4.021-4.332-6.115-8.047-5.512-2.795.453-3.517.242-3.517-1.029 0-.879-.566-1.382-1.257-1.117-.691.265-1.704-.507-2.25-1.717-1.457-3.226-3.386-3.454-3.046-.36.156 1.419-.106 2.821-.582 3.115-.476.294-.917 1.521-.981 2.726-.091 1.71-.217 1.804-.576.429-.253-.969-.875-1.505-1.384-1.191-.508.314-.924.094-.924-.488S75.55 352 75 352s-1 .812-1 1.804c0 2.05-7.491 2.832-9.706 1.014-.664-.545-1.676-.7-2.25-.345-.574.355-1.051.056-1.059-.664-.011-.951-.281-.899-.985.191-.533.825-.976 1.13-.985.679-.022-1.224-3.015 2.001-3.015 3.25 0 .589-.408 1.071-.906 1.071-.499 0-.668-1.012-.375-2.25.491-2.082.428-2.118-.85-.474-1.258 1.619-1.535 1.342-3.117-3.112-1.587-4.468-1.975-4.853-4.494-4.46l-2.758.429 2.75-1.798c2.878-1.882 3.352-2.845 1.855-3.77-.493-.305-1.165.15-1.495 1.01m290.399.914c-.68.819-1.604 1.262-2.053.984-.45-.278-1.1-.048-1.446.511-.345.559-1.078 1.016-1.628 1.016-.55 0-.751-.403-.447-.895.613-.991-1.679-2.113-4.267-2.09-1.442.014-1.465.147-.168.985 1.579 1.02.404 1.483-2.739 1.077-.681-.088-2.116.31-3.189.884-1.296.694-2.159.708-2.57.042-1.028-1.662-2.487-1.127-1.801.661.43 1.119.256 1.427-.531.941-.702-.434-1.17-.1-1.17.836 0 .955.872 1.553 2.25 1.544 1.344-.009 1.785-.311 1.094-.75-.635-.404 4.284-.668 10.932-.586 6.648.082 12.68-.079 13.406-.357 1.873-.719 1.634-2.292-.349-2.292-.916 0-1.387-.279-1.046-.62.341-.341 2.328-.274 4.416.148 3.545.717 3.631.816 1.297 1.484-1.739.497-.691.735 3.443.78 3.952.043 5.46-.241 4.5-.848-.793-.502-2.231-.92-3.193-.929-.962-.008-1.75-.69-1.75-1.515 0-1.349-2.748-2.11-5.5-1.524-3.829.817-4.487.812-3.968-.028.962-1.556-2.184-1.072-3.523.541" fill="#d3d3d3" fill-rule="evenodd"/></svg>