<svg xmlns="http://www.w3.org/2000/svg" width="500" height="326"><path d="M238 2.676C266.293 13.719 333.144 38 335.256 38c1.745 0-.316-1.798-2.767-2.413-1.391-.35-3.533-1.49-4.759-2.535a218.784 218.784 0 00-4.705-3.867l-2.474-1.967 3.974-1.103c2.186-.607 4.65-1.16 5.475-1.228.825-.068.15-.427-1.5-.797-1.65-.371-3.226-.359-3.502.026-.277.385-2.189 1.017-4.25 1.404-4.28.802-4.99-.537-1.558-2.94 2.625-1.839 2.61-1.856-3.629-3.939-5.029-1.678-6.504-1.21-6.546 2.078-.009.726-.69.959-1.689.576-1.286-.493-1.519-.239-1.006 1.097.544 1.416.274 1.614-1.451 1.066-1.165-.369-2.401-.216-2.745.342-.38.614-12.902-3.581-31.774-10.643C253.087 6.696 239.715 1.173 240.351.765c.632-.404-1.101-.71-3.851-.68l-5 .054 6.5 2.537M9.665 10.184c-1.204 2.865-1.195 3.546.068 5.003.805.928 1.161 2.176.792 2.773s-.352 5.166.038 10.152c.437 5.596 1.034 8.554 1.558 7.727.794-1.253 1.42 3.414.937 6.985-.099.728.236 1.853.744 2.5s1.21 4.055 1.561 7.574c.761 7.636 1.635 8.894 6.463 9.296 3.056.255 3.733.727 4.025 2.806.193 1.375.855 2.813 1.472 3.196.712.442.401.924-.851 1.319-1.085.342-5.122 1.916-8.972 3.497a1832.36 1832.36 0 01-10.628 4.329c-1.995.8-3.894 1.885-4.218 2.41-.811 1.312 1.46 7.289 3.596 9.465.963.981 1.75 2.273 1.75 2.871 0 .597 1.303 2.96 2.896 5.25 1.593 2.289 4.483 6.703 6.421 9.808 3.414 5.469 3.691 5.666 8.854 6.314 14.193 1.782 17.035 2.656 15.206 4.677-2.136 2.36-4.521 2.341-22.698-.178-8.103-1.123-15.171-1.772-15.706-1.441-1.159.716-1.136 23.85.027 27.483.604 1.887.825 2.039.9.621.089-1.68.656-1.806 5.35-1.193 7.951 1.038 7.717.185 6.741 24.572-1.236 30.87-1.495 45.829-.806 46.518.999.999 33.887.544 35.664-.493.908-.53 1.189-.978.624-.995-.674-.02-.784-2.693-.321-7.78.388-4.263.738-10.97.777-14.906l.071-7.156 4.625-1.576c5.557-1.893 5.943-1.713 6.717 3.124.332 2.08 2.183 8.727 4.113 14.772 4.018 12.588 4.209 14.168 1.795 14.812-.963.257 9.05.402 22.25.324l24-.144-.117-2.5c-.065-1.375-1.185-5.295-2.489-8.711-2.363-6.188-2.365-6.223-.456-9.5a233.818 233.818 0 002.988-5.282c4.211-7.816 4.79-7.653 8.021 2.243.943 2.887 2.016 5.25 2.386 5.25.37 0 .811-19.012.981-42.25.303-41.352.264-42.353-1.831-47.073-2.202-4.961-2.085-7.677.331-7.677 1.264 0 3.442-25.577 2.277-26.742-.199-.199-4.344 1.244-9.212 3.207-8.802 3.549-12.823 3.98-10.451 1.121.635-.764 2.279-1.672 3.654-2.017 1.662-.417 2.235-1.037 1.709-1.848-.435-.672-1.024-7.111-1.309-14.311-.608-15.344-.958-15.969-9.881-17.628-4.748-.883-6.148-1.589-7.04-3.548-1.078-2.366-1.399-2.435-9.838-2.09L76.5 35.5l-.291-6.007-.292-6.006-17.708-4.767c-23.103-6.219-21.639-6.385-20.905 2.367.444 5.291.29 6.976-.605 6.648-.659-.242-5.719-1.457-11.244-2.699-10.901-2.452-11.71-3.293-8.575-8.913 1.102-1.975 1.102-2.516-.001-3.198-.73-.451-1.338-1.856-1.353-3.122-.044-3.921-4.165-3.652-5.861.381m485.085 6.119c-2.062.577-3.75 1.406-3.75 1.842 0 .436-.592.565-1.315.288-.724-.278-2.411-.062-3.75.48l-2.435.985 2.25.668c1.238.367 2.25 1.091 2.25 1.61 0 .518.399.696.886.394.488-.301 1.132.393 1.433 1.542.301 1.149.996 1.812 1.545 1.472a1.188 1.188 0 011.626.4c.345.559.083 1.016-.584 1.016-.667 0-.131.892 1.191 1.981 1.322 1.09 2.947 2.44 3.611 3C499.672 33.638 500 33.211 500 29c0-2.2-.45-4-1-4s-1-.477-1-1.059.45-.781 1-.441c.611.378 1-1.156 1-3.941 0-2.507-.337-4.502-.75-4.433-.413.07-2.437.599-4.5 1.177M180.265 46.321c-.421.648-.916 27.978-1.101 60.732l-.336 59.554 35.336 2.288c19.435 1.258 43.178 2.859 52.762 3.557 9.584.698 18.256 1.052 19.271.786 1.754-.459 1.841-2.355 1.767-38.61-.043-20.97-.34-43.339-.661-49.707l-.583-11.579-16.61-4.326c-22.416-5.837-69.567-18.414-80.345-21.43-6.495-1.817-8.931-2.142-9.5-1.265M465.532 87.25c-.372 7.838-.531 40.238-.354 72 .177 31.763.011 57.751-.369 57.75-.38 0-.974-.457-1.319-1.016-.346-.559-1.117-.715-1.714-.346-.647.401-.797.206-.371-.483.414-.671.104-1.155-.739-1.155-.799 0-1.754-.787-2.124-1.75-.369-.963-.58-1.75-.469-1.75.111 0-.727-1.528-1.863-3.395l-2.064-3.394 3.05-5.405c2.942-5.212 2.984-5.456 1.177-6.824-1.03-.78-2.413-1.433-3.073-1.45-.66-.018-2.893-2.057-4.962-4.532s-4.229-4.508-4.8-4.517c-3.209-.054-6.998-7.325-7.936-15.233-.784-6.605 2.068-6.667 5.252-.114l2.252 4.636 2.866-2.745c3.425-3.281 5.421-2.69 3.953 1.171-1.252 3.292.043 4.778 3.421 3.93 2.636-.662 4.568-6.675 6.226-19.378.64-4.904.545-5.25-1.443-5.25-1.599 0-2.129-.617-2.129-2.477 0-1.539-.947-3.097-2.5-4.115-1.375-.901-2.5-2.459-2.5-3.462 0-2.461-8.198-3.852-10.675-1.811-1.5 1.236-1.579 1.081-.841-1.635.449-1.65 1.087-4.781 1.416-6.959l.6-3.958 7.585-1.172c13.423-2.073 12.615-.769 11.26-18.174l-.643-8.262-6.518.668c-6.135.628-6.473.556-5.768-1.238.412-1.048 1.632-5.919 2.712-10.824 1.08-4.906 2.194-9.293 2.477-9.75.673-1.089 1.429-1.189-12.542 1.656C428.155 79.32 428 79.383 428 82.194 428 85.753 425.69 97 424.959 97c-.382 0-.774-3.695-.871-8.21-.096-4.516-.268-8.296-.381-8.401-.114-.105-3.357.388-7.207 1.096-3.85.708-8.687 1.584-10.75 1.947-3.261.573-3.75 1.016-3.75 3.399 0 1.888-.544 2.786-1.75 2.886-.962.08-5.012.726-9 1.435-8.235 1.466-8.677 2.253-5.25 9.348 2.549 5.278 2.549 9.136 0 10.5-2.951 1.579-3.034 21.755-.1 24.41 3.778 3.418 3.297 5.333-1.519 6.056l-4.381.657v10.938c0 8.771.281 10.939 1.417 10.939.779 0 1.623-.562 1.876-1.25.253-.687.809.063 1.234 1.669.629 2.372.356 3.258-1.461 4.728-2.055 1.665-2.137 2.115-1.019 5.582 1.695 5.256 1.835 5.405 4.014 4.239 2.427-1.3 2.727 2.407.439 5.429-.79 1.044-1.185 2.303-.879 2.799.307.496.739 4.593.96 9.103.799 16.258 1.067 19.323 1.796 20.503.487.786 3.813 1.198 9.682 1.198H407l.015-11.25c.011-7.633.327-10.768.985-9.75.533.825.976 6.113.985 11.75L409 219h11.5c11.247 0 11.501-.049 11.54-2.25.038-2.121.126-2.092 1.532.5 1.399 2.578 1.912 2.75 8.21 2.755 3.695.003 11.105.296 16.468.651l9.75.646v-74.151c0-43.032-.376-74.151-.896-74.151-.493 0-1.2 6.412-1.572 14.25M97.424 130.446c.702 3.743-1.067 5.554-5.426 5.554-1.753 0-2.008.401-1.432 2.25 1.697 5.448 2.541 6.922 3.698 6.461 9.26-3.685 9.827-4.029 9.206-5.592a746.358 746.358 0 01-2.628-6.869c-2.266-5.99-4.416-7.125-3.418-1.804m7.274 31.82c-6.4 3.508-6.404 3.524-2.894 11.788l1.829 4.307 4.75-7.622c4.012-6.436 4.579-7.941 3.649-9.68-.606-1.132-1.199-2.04-1.317-2.016-.118.023-2.826 1.474-6.017 3.223m50.319 21.213c-.924 1.114-.958 2.251-.138 4.604.863 2.475.781 3.565-.395 5.243-1.977 2.823-1.84 6.664.563 15.674 1.737 6.519 1.839 8.128.775 12.298-.985 3.86-.969 5.423.083 8 4.08 9.995 7.8 40.915 5.348 44.447-.476.685-3.682 1.54-7.126 1.9-3.444.359-5.743.974-5.11 1.366 1.167.721-2.013 1.963-5.017 1.96-1.333-.001-1.333-.121 0-1.073 1.176-.84.96-.948-1-.498-1.375.315-3.089.579-3.809.586-1.045.011-1.247 3.948-1 19.469l.309 19.455-2.306 1.049c-1.269.577-2.03 1.498-1.691 2.045.338.548.026 1.004-.694 1.013-.72.01-2.369 1.135-3.664 2.5L127.79 326h27.248l-.6-2.75c-.462-2.118-.355-2.405.466-1.25.723 1.018 1.07 1.098 1.081.25.008-.687.465-1.25 1.015-1.25.55 0 1 1.152 1 2.559 0 1.451.433 2.292 1 1.941.55-.34 1-1.465 1-2.5 0-2.745 2.093-3.594 3.641-1.476.736 1.007 1.68 1.489 2.097 1.071.417-.417-.114-1.397-1.181-2.177-1.066-.78-1.377-1.418-.689-1.418.7 0 .932-.515.527-1.17-.482-.779-.184-.963.89-.551 1.056.405 1.82-.036 2.215-1.279.34-1.071 1.195-1.671 1.961-1.377.788.303 1.634-.348 2.016-1.551.769-2.424 4.041-2.771 4.905-.52.385 1.004.192 1.303-.548.845-.704-.435-.869-.263-.429.448.392.635.21 1.155-.405 1.155s-.813.493-.441 1.095c1.001 1.62-1.573 5.837-3.185 5.218-.756-.29-1.374-.029-1.374.58s.436 1.107.969 1.107c.532 0 .709.675.393 1.5-.507 1.321 5.238 1.5 48.056 1.5h48.633l-.276-15.75c-.274-15.666-.287-15.749-2.525-15.512-2.731.289-3.009-1.306-.35-2.002 1.602-.419 2.007-1.809 2.579-8.866 1.135-13.99.494-19.158-2.479-19.98-2.181-.602-2.231-.703-.39-.79 1.81-.086 2.192-.896 2.688-5.703.592-5.73 2.757-9.397 5.548-9.397 1.323 0 1.308.174-.11 1.25-3.38 2.567-3.736 6.554-3.736 41.815V326h231v-5.5c0-3.732-.402-5.501-1.25-5.502-.687-.001-15.2-2.037-32.25-4.524s-35.5-5.157-41-5.934c-15.416-2.178-41.91-6.356-53-8.359l-10-1.805-.033-4.277c-.024-3.087-.544-4.563-1.87-5.305-1.48-.828-1.571-1.192-.469-1.873 1.129-.698 1.043-1.447-.495-4.304-2.118-3.933-3.472-4.429-12.904-4.723-7.953-.247-7.344.948-8.163-16.025-.356-7.379-1.108-12.68-2.057-14.5-.823-1.578-1.499-2.419-1.503-1.869-.003.55-1.356 1-3.006 1-1.65 0-3-.355-3-.789 0-.434-.985.129-2.189 1.25-3.667 3.416-4.367 2.932-2.694-1.866.922-2.645.842-3.412-.457-4.399-.95-.722-1.717-3.176-1.936-6.196l-.364-5-.18 5.113-.18 5.114-5.216-.948c-2.868-.521-6.928-.785-9.022-.585-2.524.241-3.661-.015-3.376-.759.237-.617.681-3.78.987-7.028.548-5.829.533-5.804-1.159 1.861-1.898 8.602-2.582 9.279-12.283 12.16l-4.883 1.45-2.066-6.939c-1.137-3.816-2.202-6.939-2.368-6.939-.166 0-6.821 1.32-14.789 2.934-7.967 1.614-18.334 3.246-23.037 3.628-9.545.774-28.335-1.161-30.152-3.107-2.349-2.514-3.45 1.433-1.887 6.765 1.311 4.473 1.29 5.031-.238 6.148-.989.723-2.006 3.473-2.471 6.681l-.79 5.451-.125-4.417c-.139-4.904-.899-4.781-2.692.436-.988 2.873-.956 3.481.185 3.481 1.549 0 1.643 1.031 1.406 15.432l-.163 9.932-3.931 3.702c-2.584 2.433-3.93 4.577-3.93 6.259 0 1.406-.402 2.806-.894 3.11-.492.304-1.059-3.064-1.26-7.483-.424-9.338-.33-9.239-10.357-10.954l-7.289-1.247-3.528-10.634c-3.525-10.624-3.526-10.64-2.2-18.125.73-4.121 1.871-8.842 2.535-10.492 1.343-3.335 1.717-28.207.494-32.805-.575-2.164-.26-3.323 1.377-5.065 2.727-2.903 2.68-4.757-.192-7.456-3.125-2.935-4.008-2.773-8.152 1.494-2.531 2.606-3.384 4.229-2.947 5.605.631 1.988-1.471 11.176-2.355 10.293-.27-.271-.649-2.357-.843-4.638-.193-2.28-1.053-5.552-1.91-7.271-1.403-2.812-1.405-3.238-.019-4.251 1.776-1.299 2.003-4.671.505-7.472-1.226-2.29-5.208-2.551-6.948-.455m86.483 41.572c-7.7.388-17.713.76-22.25.827-5.42.08-8.25.512-8.25 1.258 0 .817 3.158.963 11.25.52 6.188-.339 20.351-.911 31.475-1.272 11.123-.361 19.984-1.045 19.691-1.52-.587-.949-10.48-.891-31.916.187m-25.193 27.199c.455 3.01.251 3.75-1.037 3.75-.882 0-1.266.337-.853.75.412.413 1.237.75 1.833.75.596 0 1.287.611 1.536 1.358.356 1.068-.426 1.21-3.667.662l-4.119-.696v10.088c0 10.744.223 11.142 4.846 8.666 1.46-.781 3.488-1.685 4.508-2.008 1.186-.376 1.635-1.155 1.248-2.166-1.261-3.286-1.817-9.979-.698-8.404 1.538 2.165 1.397.145-.542-7.794-1.845-7.557-3.97-11.003-3.055-4.956m91.193 21.812a553.62 553.62 0 00-8.25 1.428l-3.25.601v6.395c0 3.576.485 6.696 1.101 7.076.623.386.853 1.92.529 3.54-.561 2.803 2.121 5.814 3.739 4.196 1.293-1.294.58-6.227-1.032-7.129-2.117-1.185-1.379-1.411 12.163-3.723 11-1.879 16.073-3.765 8.25-3.068-2.613.233-4.75.029-4.75-.453 0-.481-1.163-.433-2.584.107-2.919 1.11-5.438.231-3.273-1.142 1.057-.669.97-.863-.393-.875-.962-.008-1.75-.465-1.75-1.015 0-.55.45-1 1-1s1-.858 1-1.906c0-1.403.519-1.771 1.964-1.393 1.085.284 2.684-.206 3.572-1.094 1.886-1.886.604-1.974-8.036-.545m-157.87 9.188c-.842 3.142-.653 8.868.37 11.25.659 1.533.876.969.93-2.417.089-5.632.996-4.82 1.455 1.302.508 6.785.928 6.544 4.811-2.767l3.505-8.405-3.601-.595c-5.819-.963-6.834-.741-7.47 1.632" fill="#d3d3d3" fill-rule="evenodd"/></svg>