<svg xmlns="http://www.w3.org/2000/svg" width="500" height="376"><path d="M0 188.002v188.002l250.25-.252 250.25-.252.253-187.75L501.005 0H0v188.002m.49.498c0 103.4.117 145.848.26 94.329.143-51.518.143-136.118 0-188C.607 42.948.49 85.1.49 188.5m8.175-75.334C8.299 171.007 8 252.007 8 293.166V368h484.33l-.664-113.25c-.366-62.287-.665-143.287-.666-180V8H9.33l-.665 105.166M275.882 68.19c-.066 2.37-.047 4.703.04 5.183.088.48-.597.582-1.522.227-2.244-.861-6.4 1.964-6.4 4.352 0 1.048-.708 2.614-1.574 3.479-1.635 1.635-1.693 1.569 2.574 2.866.963.293.516.718-1.25 1.188-1.512.403-2.75 1.133-2.75 1.623 0 1.515-4.017 5-5.036 4.369-.53-.327-.972-.006-.981.714-.033 2.509-4.499 5.52-9.233 6.225-3.731.555-4.75 1.11-4.75 2.586 0 1.034-.45 2.158-1 2.498-.55.34-1 .181-1-.353s-1.14-.846-2.533-.693c-2.871.315-4.636 1.546-2.217 1.546.871 0 1.742.475 1.935 1.054.193.58 1.193 1.178 2.221 1.329 1.029.151 2.483 1.113 3.232 2.137 1.594 2.179 1.799 3.868.362 2.98-.55-.34-1 .309-1 1.441 0 1.132.45 2.059 1 2.059s1-.54 1-1.2c0-.933.267-.933 1.2 0 1.844 1.844 2.8 1.437 2.8-1.193 0-2.671 1.945-3.88 4.091-2.545 1.188.739 1.198 1.217.067 3.042-1.089 1.755-1.099 2.314-.057 2.958 1.01.625 1.034 1.346.114 3.366-1.145 2.513-1.087 2.572 2.556 2.554 2.051-.01 11.379.293 20.729.673 22.363.909 32.135.603 35.365-1.106 2.286-1.21 2.403-1.485.885-2.079-1.25-.488-1.75-1.797-1.75-4.577 0-3.701.16-3.899 3.25-4.011 1.788-.066 3.587-.066 4 0 1.684.265.603-1.794-1.25-2.382-1.1-.349-2-1.054-2-1.567 0-.513-.9-.933-2-.933-2.173 0-2.742 1.586-.801 2.233.751.25.563.644-.5 1.052-1.4.537-1.699.034-1.699-2.86 0-3.443.073-3.506 3.75-3.218 3.04.237 3.698-.024 3.474-1.379-.152-.921.522-1.879 1.5-2.134 1.097-.285.698-.506-1.041-.578-2.326-.096-2.709-.459-2.194-2.083.485-1.525.051-2.11-1.932-2.608-3.271-.821-3.305-3.199-.057-4.014 3.589-.901 2.628-7.411-1.094-7.411-.838 0-1.246-.45-.906-1 .34-.55-.084-1-.941-1S311 80.325 311 79.5s-.863-1.5-1.917-1.5-2.123-.562-2.375-1.25c-.346-.945-.757-.969-1.684-.099-.954.895-.76 1.298.875 1.817 2.745.871 2.652 2.066-.365 4.689-1.356 1.18-2.23 2.527-1.941 2.994.289.467.085.849-.452.849-.538 0-1.802.309-2.809.687-1.613.605-1.668.485-.46-1 1.223-1.503 1.086-1.687-1.25-1.687-1.442 0-2.622-.44-2.622-.979 0-.592-.998-.523-2.528.174-1.78.811-2.159 1.381-1.279 1.924.687.425.946 1.075.576 1.446-.371.37-.006 1.341.811 2.158 1.313 1.313 1.19 1.779-1.063 4.032-1.401 1.402-2.674 2.367-2.83 2.147-1.328-1.889-2.582-6.263-2.044-7.133.455-.737-.495-.892-2.988-.488-3.153.512-3.655.327-3.655-1.344 0-1.5.7-1.937 3.107-1.937 2.351 0 2.967-.365 2.531-1.5-.316-.825-.225-1.5.202-1.5.428 0 1.651-.708 2.719-1.574 1.892-1.535 1.885-1.562-.309-1.094-2.119.453-2.254.151-2.32-5.176-.051-4.084-.309-5.1-.93-3.656-.735 1.71-.87 1.746-.93.25-.038-.963-.548-1.75-1.133-1.75-.584 0-.922-1.013-.75-2.25.271-1.946-.194-2.292-3.437-2.56l-3.75-.311-.118 4.311M377 67c0 1.725-.531 3.007-1.25 3.015-.895.011-.854.267.144.898.993.629 1.217 1.993.778 4.735-.693 4.335.099 8.611 1.442 7.782.487-.302.886-.08.886.492s-1.125 1.322-2.5 1.667c-3.642.914-3.058 2.411.941 2.411 1.893 0 3.719.45 4.059 1 .347.562-.449 1-1.819 1-3.458 0-4.717 2-4.009 6.366.593 3.656.542 3.731-2.283 3.359-3.217-.425-4.775-5.231-2.219-6.851.853-.541-.105-.854-2.67-.874-2.222-.017-3.468-.369-2.803-.792.79-.502.88-1.263.266-2.234-.768-1.215-.935-1.142-.948.412-.013 1.683-.287 1.615-2.537-.635-1.387-1.388-3.79-3.137-5.339-3.887-1.549-.75-2.947-1.814-3.105-2.364-.861-2.985-1.542-3.5-4.622-3.5-3.838 0-5.207 3.246-4.427 10.5.192 1.795.281 1.764.865-.309.858-3.047 2.455-2.89 2.88.283.386 2.881.125 2.941-11.323 2.579-5.486-.174-7.468.15-8.75 1.432-2.038 2.039-2.168 3.925-.219 3.177.925-.355 1.589.23 1.864 1.643.271 1.398.474.924.559-1.305l.134-3.5 8.253.29c4.538.159 8.89.511 9.669.782 2.653.923-.582 2.668-4.836 2.61-2.245-.031-4.081.31-4.081.758 0 1.329 2.835 3.28 3.851 2.652 1.213-.75 2.373 2.237 1.45 3.731-.389.628-.792 1.825-.897 2.659-.105.835-.52 2.981-.922 4.768-.507 2.249-.367 3.25.452 3.25.651 0 .859.526.461 1.17-.486.787-.178.961.941.531 2.177-.835 2.129.838-.086 3.034-1.666 1.651-1.645 1.847.438 4.079 1.255 1.345 3.175 2.264 4.5 2.155 4.951-.408 7.397.008 5.84.993-3.095 1.957 2.016 2.298 7.691.513 5.886-1.852 16.051-2.105 17.714-.442 1.435 1.435 2.567 1.174 2.567-.592 0-.857.45-1.281 1-.941 1.781 1.101 1.163 4.347-.75 3.944-4.374-.921-10.25-1.101-10.25-.313 0 .478-1.012.883-2.25.899-2.058.028-2.095.121-.439 1.084.996.579 2.458.805 3.25.501 1.183-.454 1.439.966 1.439 7.975 0 5.431-.363 8.304-1 7.91-.55-.34-1-1.491-1-2.559s-.48-1.941-1.067-1.941c-.633 0-.793.864-.394 2.124.371 1.168.77 2.779.888 3.58.118.801.731 1.776 1.364 2.167.754.466 1.246 5.486 1.429 14.584l.28 13.873 3 .167c1.65.091 3.563-.031 4.25-.271 1.525-.534 1.729-10.81.234-11.734-.559-.346-.715-1.117-.346-1.714.401-.647.206-.797-.483-.371-.635.392-1.155.265-1.155-.283 0-.547 1.459-1.136 3.242-1.309 3.501-.338 5.086-3.344 2.606-4.943-1.112-.718-1.086-1.039.152-1.839 1.236-.799 1.28-1.325.25-2.987-1.84-2.969-1.524-3.602.764-1.531 1.288 1.165 1.796 2.509 1.41 3.725-.436 1.375-.028 2.053 1.475 2.446 1.143.299 1.844.922 1.558 1.386-.583.942 4.318 4.488 5.109 3.697.278-.277-.455-3.069-1.628-6.204-3.198-8.545-1.771-7.661 2.321 1.439 1.979 4.399 4.048 7.998 4.6 7.998 1.494 0 1.828-4.177.542-6.763-.62-1.244-1.021-3.269-.891-4.5.129-1.23.292-3.062.362-4.07.071-1.009.691-1.637 1.378-1.397.688.241 1.097 1.267.911 2.28-.275 1.496-.07 1.619 1.092.655.787-.653 1.727-.892 2.089-.53.362.362.658.17.658-.427 0-.596.273-1.796.607-2.666.398-1.038.055-1.582-1-1.582-.884 0-1.607-.45-1.607-1s.45-1 1-1c2.081 0 .897-2.005-1.25-2.118-1.819-.096-1.675-.265.75-.882 2.937-.747 2.916-.768-1-1-3.954-.234-3.966-.246-1-1.051l3-.814-3 .039c-5.798.074-7.613-.182-7.107-1 .28-.454 2.736-.649 5.457-.432 2.861.228 5.226-.056 5.608-.674.363-.587 1.56-1.068 2.66-1.068s1.722.45 1.382 1c-.367.594.725.971 2.691.93 2.757-.059 2.975-.214 1.309-.93-1.772-.762-1.687-.867.75-.93 1.958-.05 2.727-.574 2.671-1.82-.047-1.045-.282-1.247-.583-.5-.624 1.546-11.338 1.739-11.338.205 0-.575-1.06-2.106-2.355-3.401-4.075-4.075-3.96-5.248.577-5.857 4.719-.633 8.42-4.697 4.278-4.697-.833 0-1.5-.889-1.5-2 0-1.77.662-1.998 5.75-1.985 4.821.013 10.941 1.662 7.75 2.088-.55.073.313.418 1.918.765 2.99.648 4.86 3.132 2.356 3.132-.765 0-2.265.661-3.333 1.468-1.78 1.347-1.465 1.471 3.809 1.5L435 126v-6.5c0-5.111-.321-6.5-1.5-6.5-.825 0-1.5-.45-1.5-1s.675-1 1.5-1c1 0 1.5-1 1.5-3 0-2.921-1.452-4.144-2.212-1.863-.209.625-1.184-.093-2.168-1.595-1.75-2.67-1.745-2.717.211-2.096 1.1.35 2.258.218 2.574-.292.617-.998-2.56-2.118-6.072-2.14-1.191-.008-2.393-.576-2.671-1.264-.301-.747-.536-.545-.583.5-.113 2.493-3.079 2.195-3.079-.309 0-1.14-.454-1.779-1.016-1.431-.559.346-.71 1.124-.336 1.729.462.748.066.843-1.234.298-1.053-.442-3.122-.739-4.598-.659-1.477.079-3.013-.388-3.414-1.037-.504-.816-.176-.968 1.061-.494.985.378 2.296.29 2.914-.196 1.836-1.443 6.621-1.993 6.638-.762.011.772.24.786.75.048 1.105-1.599 12.077-3.347 12.631-2.012.688 1.659.685-8.049-.003-9.843-.857-2.235-2.393-1.966-2.393.418 0 1.125-.667 2-1.523 2-1.328 0-1.311.324.135 2.531 2.11 3.219 2.073 3.245-5.643 3.985-3.558.341-7.089.822-7.846 1.069-.757.247-1.982-.053-2.722-.667-1.013-.841-1.74-.722-2.945.483-2.23 2.23-3.965 1.997-5.784-.778-1.781-2.718-1.421-8.583.621-10.123.814-.614 1.094-1.965.726-3.5-.784-3.263-4.325-3.829-6.301-1.007-1.333 1.902-1.626 1.956-3.025.557-2.154-2.154-2.827-1.937-2.172.7.391 1.573-.315 3.294-2.345 5.719l-2.905 3.469-.119-5.288c-.148-6.576-.503-7.146-4.461-7.165-2.545-.013-2.887-.234-1.691-1.095 1.266-.91 1.227-.991-.25-.516-.962.31-1.75.158-1.75-.338s.9-1.187 2-1.536c1.604-.509 2-1.513 2-5.067V64h-4.5c-4.333 0-4.5.111-4.5 3M124.105 81.14c-26.367 4.833-49.139 32.18-54.268 65.172-.658 4.228-1.677 7.695-2.266 7.703-.608.009-.525.362.191.817 1.678 1.065.474 7.168-1.414 7.168-1.165 0-1.386 3.996-1.31 23.705.057 14.856.434 23.161 1.011 22.25.56-.885.926-.992.936-.272.008.65.915 1.468 2.015 1.817s2 1.073 2 1.609.9 1.941 2 3.121c2.033 2.182 2.609 3.866 1.25 3.652-2.097-.331-3.292.242-2.655 1.273.422.682.277.884-.355.493-.588-.363-1.297-.095-1.576.596-.305.758-.537.562-.585-.494-.118-2.606-1.99-2.115-3.104.815-1.229 3.234-1.282 5.469-.085 3.578.555-.875 1.088-.988 1.501-.319.353.571.136 1.35-.481 1.732-.798.493-.731.975.233 1.663 1.034.739.941.836-.392.407-1.523-.49-1.721.078-1.532 4.417.125 2.863.652 4.833 1.24 4.637.563-.187 1.622.258 2.353.99 1.521 1.52 3.604 1.812 2.719.38-1.688-2.731 5.898-3.85 8.81-1.3 1.903 1.667 1.968 1.667 1.36 0-.67-1.837.083-2.154 2.717-1.143.87.334 1.575 1.571 1.567 2.75-.013 1.75-.193 1.868-.985.643-1.252-1.937-1.263-.822-.025 2.435.801 2.106 1.65 2.578 4.75 2.635 6.848.128 8.075 1.312 3.302 3.187-2.311.908-3.935 2.083-3.608 2.612.326.528.028 1.162-.663 1.409-.691.246-.894.834-.452 1.306.443.472 1.223.196 1.735-.613.598-.945.936-1.035.946-.252.008.67.578 1.081 1.265.914.688-.168.91-.116.494.116-.416.232-.525.797-.242 1.255.284.458-.951 1.147-2.743 1.53-1.793.383-3.795 1.128-4.45 1.655-1.5 1.207-.574 3.811 1.357 3.811.799 0 1.174.45.834 1-.34.55-.141 1 .441 1 .644 0 1.059 2.74 1.059 7 0 6.736-.091 7-2.417 7-1.329 0-2.645-.562-2.924-1.25-.39-.963-.731-.929-1.482.146-1.452 2.078-3.974.614-4.455-2.587-.408-2.712-.428-2.698-.572.411-.141 3.023-.367 3.211-3.715 3.085l-3.566-.134.246-4.638c.136-2.552-.086-5.178-.493-5.836-.454-.734-.137-1.197.819-1.197.857 0 1.559.477 1.559 1.059s.457.776 1.016.431c.559-.346.758-1.047.441-1.559-.316-.512.262-.931 1.284-.931 1.818 0 4.259-1.752 4.259-3.056 0-1.031-6.187-.446-9.5.898-1.65.67-3.594 1.427-4.319 1.683-1.411.498-.772 4.16 1.044 5.975.666.667.773.25.32-1.25-.409-1.353-.254-2.25.388-2.25.587 0 1.067 1.575 1.067 3.5 0 3.496-1.894 5.061-2.118 1.75-.397-5.873-1.665 6.345-1.764 17L64 301h7.5c6 0 7.5.3 7.5 1.5 0 .825-.562 1.516-1.25 1.535-.687.02-.169.635 1.151 1.367 1.757.973 2.026 1.479 1 1.885-.958.38-.768.617.599.752 1.433.142 1.149.414-1 .961-2.008.511.408.802 7.309.882 6.647.076 10.089-.237 9.691-.882-.34-.55-.141-1 .441-1s1.059.45 1.059 1 .477 1 1.059 1 .781-.45.441-1 .309-1 1.441-1c1.56 0 2.078-.666 2.138-2.75.083-2.902.363-2.489 1.352 1.997l.606 2.747 29.981-.026c25.712-.022 29.982-.235 29.982-1.497 0-1.906 2.439-1.889 4.357.029.825.825 2.545 1.468 3.822 1.43 2.188-.067 2.207-.12.321-.93-1.1-.473-1.437-.891-.75-.93.688-.038 1.25-.697 1.25-1.464 0-.859.96-1.339 2.499-1.25 2.699.155 3.217 1.528 1.301 3.444-.933.933.178 1.2 5 1.2 5.947 0 6.2-.102 6.2-2.5 0-1.503.571-2.5 1.433-2.5.788 0 1.718-.9 2.067-2 .349-1.1 1.167-2.007 1.817-2.015.838-.011.812-.251-.09-.824-1.713-1.087-2.436-5.157-.92-5.176.719-.01.597-.401-.307-.985-.825-.533-1.05-.991-.5-1.016.55-.026.21-.647-.756-1.38-1.206-.916-2.985-1.108-5.679-.616-5.37.982-6.276.184-5.476-4.821.561-3.506.399-4.167-1.02-4.167-.928 0-1.409-.45-1.069-1 .34-.55-.084-1-.941-1s-1.559-.459-1.559-1.019c0-.588 1.058-.753 2.5-.392 2.868.72 3.42-.975.796-2.443-1.449-.811-1.524-1.35-.5-3.597 1.566-3.437 1.56-3.455-.877-2.818-1.498.392-1.933 1.107-1.555 2.554.289 1.106-.349 3.726-1.419 5.823-1.07 2.097-1.945 4.489-1.945 5.317 0 1.66 3.367 3.875 4.369 2.873.347-.347.631.119.631 1.035 0 .917-.477 1.667-1.059 1.667s-.771.467-.418 1.037c.407.658-.693.947-3.011.791-2.009-.136-3.872-.602-4.141-1.037-.269-.435-1.311-.791-2.315-.791-1.523 0-1.825-.825-1.825-4.988 0-2.743.398-4.741.884-4.441.487.301.885 1.195.885 1.988 0 .793.505 1.441 1.122 1.441.826 0 .828.355.009 1.342-.612.738-.818 1.638-.456 2 1.26 1.26 2.325.645 2.325-1.342 0-1.1.454-2 1.008-2 1.097 0-.816-3.992-2.508-5.235-.55-.404.238-.741 1.75-.75 1.512-.008 2.75-.474 2.75-1.034 0-.571-1.036-.759-2.356-.428-1.504.378-2.951-.003-4-1.052-1.888-1.888-2.267-5.004-.474-3.896.831.514.93.169.34-1.191-1.775-4.094-1.865-16.414-.119-16.414.885 0 1.609.477 1.609 1.059s.45.781 1 .441c1.165-.72 1.182.201.053 3-.801 1.989.353 4.5 2.069 4.5.483 0 .878-.927.878-2.059 0-1.132.45-1.781 1-1.441.55.34 1 .19 1-.334s-.63-1.194-1.4-1.489c-.845-.325-1.4-1.98-1.4-4.176 0-2.795.342-3.507 1.474-3.072 1.667.639 4.342-1.608 4.294-3.608-.021-.881-.481-.728-1.382.458-1.281 1.69-1.383 1.691-2.022.028-.412-1.074-.941-1.347-1.368-.706-.383.575-1.515 1.347-2.515 1.717-1.277.472-1.629 1.27-1.183 2.677.497 1.565.183 2.005-1.431 2.005-2.866 0-2.584-2.448.568-4.927 2.492-1.961 2.519-2.073.5-2.073-1.174 0-2.135-.45-2.135-1s.642-1 1.427-1c1.868 0 5.784-5.007 5.17-6.609-.619-1.611 2.057-3.817 4.68-3.859 1.126-.017 2.26-.663 2.519-1.434.334-.993-.118-1.247-1.551-.872-2.73.714-5.11-.761-3.626-2.245.719-.719 5.33-.995 13.244-.792 11.986.307 15.453-.344 8.637-1.623-1.925-.361-3.514-1.199-3.53-1.861-.017-.663-.489-.418-1.05.545-.841 1.444-2.454 1.747-9.22 1.735-5.735-.011-7.749-.312-6.7-1 1.333-.876 1.333-1.094 0-1.97-1.296-.851-1.272-.986.18-1 .976-.009 1.815-.959 2-2.265.267-1.88.941-2.25 4.098-2.25 2.225 0 4.208-.616 4.826-1.5.693-.991 1.206-1.119 1.513-.377.529 1.277 9.298.675 10.833-.745.576-.532.281-.878-.75-.878-.935 0-1.7-.675-1.7-1.5s.45-1.5 1-1.5 1-1.152 1-2.559c0-1.407.412-2.305.915-1.994.503.311 1.142 0 1.421-.691.278-.691.542.207.585 1.994.069 2.83.434 3.265 2.829 3.366 1.512.064 2.011.312 1.107.553-1.064.283-1.463 1.122-1.133 2.384.696 2.662 7.269 2.84 7.29.197.007-.963.272-2.715.589-3.894.517-1.929.065-2.214-4.514-2.844-3.918-.539-5.089-1.103-5.089-2.453 0-.964-1.012-2.242-2.25-2.839-1.238-.596-1.73-1.115-1.094-1.152.666-.039.929-.94.619-2.125-.336-1.285-1.082-1.847-1.988-1.5-.798.307-1.665.557-1.928.557-.262 0-.199.45.141 1 .391.632-2.117 1-6.824 1-8.239 0-10.016-1.801-7.053-7.145 1.718-3.097 1.694-3.914-.091-3.229-.808.31-1.43.859-1.382 1.219.561 4.234-2.482 5.371-9.737 3.638-7.613-1.818-8.756-1.82-8.064-.015.31.807.246 1.664-.143 1.904-1.302.805-.105 10.628 1.295 10.628.955 0 1.16-1.11.757-4.112l-.551-4.111 3.396.739c6.436 1.4 7.897 2.312 7.897 4.928 0 1.922-.401 2.364-1.75 1.93-1.477-.475-1.516-.394-.25.516 1.59 1.144.457 1.612-2.824 1.168-2.136-.29-4.176 1.992-4.176 4.671 0 1.88.394 2.334 1.621 1.863 1.215-.466 1.498-.157 1.134 1.237-.505 1.933 2.598 4.689 4.179 3.711.47-.289.789.552.71 1.871-.079 1.318-.482 2.189-.894 1.934-.412-.255-.75.55-.75 1.787 0 2.19-.038 2.199-1.439.309-1.228-1.657-1.741-1.757-3.5-.683-1.823 1.113-2.061 1.02-2.061-.809 0-1.137-.408-1.815-.906-1.507-.498.308-.689 1.392-.422 2.41.266 1.017-.227 2.56-1.094 3.427-.868.868-1.578 2.312-1.578 3.209 0 .896-.45 1.352-1 1.012-.55-.34-1-.141-1 .441s-.927 1.059-2.059 1.059c-1.132 0-1.802.416-1.488.924.314.509-.222 1.087-1.191 1.285-1.213.248-2.095-.567-2.831-2.614-1.035-2.88-4.16-5.282-3.226-2.479.617 1.85-1.802 4.108-3.957 3.693-2.891-.557-2.513-10.2.417-10.617 1.191-.17 2.415-.958 2.719-1.75.715-1.863-.738-1.827-4.484.11-1.65.853-3.872 1.274-4.938.936-1.074-.341-3.204.133-4.779 1.063-2.661 1.572-3.047 1.571-6.126-.022-2.363-1.222-3.592-1.394-4.372-.614-.597.597-1.782 1.049-2.635 1.006-1.06-.054-1.148-.241-.28-.59.868-.349.5-1.117-1.157-2.421-2.999-2.358-3.497-2.384-3.163-.16.145.963.07 1.188-.167.5-.585-1.703-1.945-1.574-2.645.25-.367.956.017 1.5 1.06 1.5.899 0 1.348.287.997.638-.813.813-9.695-1.637-9.695-2.674 0-.427 1.013-.563 2.25-.302 1.839.389 1.959.287.653-.557-1.859-1.203-2.345-7.098-.586-7.12.836-.011.809-.253-.093-.826-.702-.445-1.556-3.17-1.898-6.055-.342-2.884-.923-4.756-1.292-4.159-.369.598-.381 3.347-.027 6.11.546 4.258.404 4.971-.931 4.675-.867-.192-1.464-.885-1.326-1.539.137-.655-.313-1.216-1-1.246-2.089-.093-6.011-5.837-5.451-7.982.283-1.08.106-1.963-.393-1.963-.498 0-.906-.9-.906-2 0-2.213 1.547-2.71 2.338-.75.388.961.522.948.583-.059.043-.72.566-1.008 1.16-.641.687.425.961-.193.75-1.691-.32-2.284-.084-2.368 7.419-2.651 6.314-.238 7.75-.017 7.75 1.191 0 .816-.45 1.761-1 2.101-1.759 1.087-1.073 2.498 1.25 2.57 2.067.065 2.093.132.316.828-1.499.587-1.634.942-.598 1.582 1.692 1.046 4.315-2.31 3.48-4.451-1.184-3.037-.897-3.534 2.217-3.836 2.464-.239 3.308.146 3.814 1.741.784 2.469-.21 4.383-1.933 3.722-1.755-.673-4.844 3.042-3.316 3.986.634.392 1.329.182 1.544-.465.565-1.693 2.226-1.452 2.226.323 0 .825.646 1.5 1.435 1.5 2.557 0 6.565-1.918 6.565-3.142 0-.655-.279-.913-.619-.572-.612.612-3.381-1.611-3.381-2.715 0-.314.9-.571 2-.571s2-.45 2-1-.45-1-1-1-1.053-1.463-1.118-3.25l-.119-3.25-.673 3c-.66 2.941-.697 2.957-1.881.816-.665-1.202-1.209-4.014-1.209-6.25 0-3.778-.195-4.063-2.75-4.031l-2.75.036 2.5 1.429c1.375.786 1.911 1.445 1.191 1.465-.72.019-1.089.391-.821.825.269.435-1.392.843-3.691.907-3.097.087-3.661-.1-2.179-.72l2-.836-2-.226c-1.1-.124-3.072-.13-4.382-.012-1.961.176-2.286-.154-1.837-1.868.361-1.38.109-1.99-.747-1.809-.711.151-2.232-.851-3.38-2.226l-2.087-2.5-.034 4.25c-.03 3.824-.276 4.25-2.462 4.25-1.335 0-3.135-.707-4-1.571-.864-.865-1.571-1.138-1.571-.607 0 .53-.682 1.226-1.515 1.545-1.151.442-1.412.012-1.085-1.791.237-1.305-.189-3.258-.947-4.34-1.304-1.861-1.109-1.998 3.63-2.559 2.753-.327 6.065-.191 7.359.301 1.294.492 2.593.654 2.886.36.801-.8-.415-3.402-1.326-2.839-.434.268-2.673-.177-4.976-.99-3.696-1.304-4.523-1.303-7.057.007-3.566 1.844-3.969 1.846-3.969.019 0-.805-.87-1.93-1.934-2.5-2.68-1.434-2.954-1.322-2.356.965.364 1.391.031 2-1.093 2-.969 0-1.617.83-1.617 2.071 0 1.842-.167 1.905-1.5.572-.825-.825-1.5-2.432-1.5-3.572 0-1.139-.436-2.071-.969-2.071-.532 0-.741.592-.464 1.315.278.724.067 2.411-.468 3.75-.733 1.837-.988 1.991-1.036.626-.034-.995-.481-1.551-.991-1.235-.51.315-1.208-.311-1.551-1.39-.378-1.191-1.194-1.745-2.072-1.408-1.134.435-1.449-.43-1.449-3.978 0-3.477.408-4.64 1.75-4.991 1.569-.41 1.556-.469-.12-.573-5.63-.349 2.817-34.773 12.167-49.586 3.88-6.147 12.171-14.48 13.79-13.858 1.024.393.051 2.037-3.515 5.94-10.24 11.203-21.049 34.43-17.147 36.842.509.314 1.673-2.022 2.586-5.191 3.849-13.36 16.376-33.709 19.084-31.001.418.417-.387 1.992-1.789 3.498-6.683 7.187-16.874 29.078-15.341 32.954.507 1.284 1.643-.821 4.036-7.481 1.831-5.097 4.55-11.35 6.041-13.896C94.122 115.936 109.53 100 111.207 100c.436 0 .793-.388.793-.861 0-.474-1.237-.665-2.75-.424l-2.75.438 2.5-2.154c5.883-5.067 17.074-9.295 26.5-10.013l9-.685-8.556-.15c-10.351-.183-18.695 2.302-26.931 8.02C103.656 97.889 100 99.037 100 97c0-.55.481-1 1.07-1 .588 0 2.951-1.251 5.25-2.781 7.726-5.139 15.643-8.14 22.056-8.361l4.124-.142-4-.716-4-.716 5.25-.142c3.283-.089 5.25.276 5.25.975 0 .671 1.067.912 2.674.605 4.164-.796 11.683 1.924 18.814 6.807 6.394 4.377 8.695 4.798 4.262.78-9.882-8.956-24.466-13.402-36.645-11.169M149 113.469c0 1.704.433 2.302 1.399 1.931 1.593-.611 2.059-.011 2.977 3.831.614 2.571.508 2.675-1.826 1.788-1.627-.618-2.698-.588-3.116.087-.35.567-1.194.816-1.876.555-.682-.262-1.874-.074-2.649.416-1.022.648-.586.934 1.591 1.044 2.397.121 2.545.239.735.587-1.245.239-2.006.853-1.691 1.363.316.511-.578.985-1.985 1.054-5.477.268-5.94.781-3.391 3.758 1.936 2.261 1.432 3.117-1.835 3.117-1.283 0-2.333.419-2.333.93 0 .512-1.012 1.126-2.25 1.364-1.855.357-1.747.458.611.57 2.749.131 2.834.284 2.167 3.886-.382 2.063-1.108 3.9-1.612 4.083-.504.184-.916 1.816-.916 3.627v3.294l4.37-.492c2.651-.299 4.64-.054 5.059.623.437.707-.227 1.115-1.811 1.115-1.375 0-2.825.526-3.223 1.17-.486.787-.178.961.941.531.922-.354 1.664-.154 1.664.447 0 .597-.9.85-2 .562-1.183-.309-2-.03-2 .683 0 .776 1.182 1.067 3.322.818 3.227-.377 3.321-.285 3.261 3.2-.051 3.026-.41 3.589-2.288 3.589-1.239 0-3.883 1.655-5.956 3.728-2.05 2.05-3.44 2.977-3.088 2.061.481-1.255-.026-1.77-2.056-2.087-2.56-.399-2.585-.457-.514-1.159 1.315-.446 1.967-1.296 1.643-2.142-.413-1.077.529-1.401 4.069-1.401 3.94 0 4.607-.289 4.607-2 0-1.1-.45-2-1-2s-1 .675-1 1.5c0 1.208-1.556 1.5-8 1.5-7.217 0-8-.187-8-1.917 0-1.054.563-2.106 1.25-2.337.989-.333.979-.749-.049-1.994-.916-1.111-.976-1.773-.201-2.252.781-.482.741-1.107-.137-2.165-.989-1.192-.949-1.686.201-2.487 1.095-.763 1.14-1.121.186-1.507-.687-.279-1.25-1.145-1.25-1.924 0-1.909-.631-1.786-3 .583-2.392 2.392-2.494 3-.5 3 2.037 0 1.894 1.671-.25 2.92-1.667.971-1.667 1.021 0 1.05.963.016 1.75.672 1.75 1.457 0 .784-.787 1.637-1.75 1.894-1.468.392-1.38.585.548 1.202 3.195 1.022 2.374 3.837-1.31 4.497-4.29.768-.935 1.864 4.031 1.316 2.173-.239 4.947-.185 6.164.121l2.214.555-2.199 2.399c-1.209 1.319-2.848 3.191-3.643 4.16-.939 1.145-1.58 1.353-1.833.595-.66-1.981-6.629-1.376-8.222.834-1.984 2.753-3.165 2.507-2.411-.5.657-2.617-.866-3.479-2.235-1.264-.978 1.582-.473 7.971.728 9.214.576.596.918.524.918-.193 0-.628.9-.969 2-.757 1.462.282 2-.153 2-1.616 0-1.101-.45-1.724-1-1.384-.55.34-1 .141-1-.441s1.125-1.059 2.5-1.059 2.5.417 2.5.927c0 .509.787 1.132 1.75 1.384 1.667.435 1.667.463 0 .573-.963.064-1.75.593-1.75 1.175 0 .582.45.781 1 .441.899-.556 1.433.757 1.118 2.75-.249 1.578 1.758.663 2.193-1 .435-1.667.463-1.667.573 0 .104 1.575.324 1.542 2.193-.327 1.143-1.143 2.718-1.832 3.5-1.532.783.301 1.423.124 1.423-.391s.675-.678 1.5-.362c.942.362 1.5-.01 1.5-.997 0-4.82 6.048-11.641 10.321-11.641.832 0 1.7-.562 1.93-1.25 1.48-4.436 11.46 6.662 10.341 11.5-.223.963-.03 1.75.428 1.75.458 0 1.075.787 1.371 1.75.295.963.391.512.212-1-.349-2.948 1.992-3.969 3.011-1.313a1.534 1.534 0 001.969.893c.873-.335 1.417.095 1.417 1.122 0 .916.45 1.388 1 1.048.55-.34 1.007-.029 1.015.691.012.983.243.949.93-.135.95-1.503-3.236-6.052-5.573-6.055-1.475-.001-3.535-2.505-2.726-3.313.345-.346 1.804.184 3.241 1.178 4.747 3.282 5.113 3.367 5.113 1.193 0-1.392-.648-2.059-2-2.059-2.285 0-2.404-.377-.965-3.066.944-1.764.658-1.948-3.25-2.094-3.435-.128-3.67-.238-1.184-.552 2.688-.34 3.039-.722 2.63-2.862-.31-1.618.431-3.774 2.148-6.252 2.677-3.862 3.592-10.456 1.621-11.674-2.109-1.304-1.153-7.647 1.25-8.287 2.237-.597 2.236-.603-.25-1.206-2.551-.618-2.691-1.023-2.894-8.351-.08-2.904-.578-3.967-2.037-4.348-1.062-.278-2.192-1.186-2.512-2.019-.468-1.221-.869-1.275-2.069-.279-.904.75-1.488.827-1.488.196 0-.572.338-1.228.75-1.459.412-.23.188-.282-.5-.114-.687.167-1.265-.244-1.283-.914-.036-1.314-3.408-5.719-4.377-5.719-.325 0-.59 1.111-.59 2.469m118.211 14.005c-1.114 1.318-.841 1.545 2 1.662 2.602.108 2.767.217.789.524-6.274.972-11.676 2.861-13.623 4.765-1.168 1.141-3.418 3.19-5 4.553l-2.877 2.479 2.5.321c1.375.176 3.175.594 4 .93.825.335 1.804.549 2.176.475.372-.073.97 1.205 1.329 2.842.457 2.078 1.251 2.975 2.633 2.975 1.089 0 1.734.399 1.432.886-.477.772 2.063 2.071 4.847 2.479 2.005.295 1.614 2.692-.583 3.573-1.3.521-1.669.97-.834 1.014 1.333.07 1.333.193 0 1.105-1.25.856-1.184.978.396.735 1.043-.161 2.093.271 2.334.958.758 2.168-14.671 1.696-16.338-.5-1.211-1.596-1.331-1.516-1.36.905l-.032 2.656 7.933-.544c6.516-.446 8.226-.251 9.572 1.095.901.901 2.763 1.638 4.139 1.638 2.37 0 2.493.274 2.343 5.25-.278 9.257-.595 8.75 5.478 8.75 6.131 0 7.517-1.303 6.916-6.5-.191-1.65-.569-4.898-.841-7.219l-.493-4.218 4.976-.66c4.72-.627 6.097-1.593 4.062-2.85-.503-.311-1.065-.177-1.25.297-.184.475-1.991 1.167-4.016 1.539l-3.681.676.309-4.61c.169-2.535.813-5.115 1.43-5.732.618-.618 1.152-2.046 1.186-3.173.06-1.921.121-1.907.976.222.502 1.25 1.599 2.536 2.437 2.857 2.096.804 1.925 3.368-.226 3.386-1.291.011-1.094.355.75 1.312 2.594 1.347 6 1.095 6-.444 0-.485.9-.883 2-.883 2.465 0 2.627 2.535.25 3.92-.962.561-1.3 1.064-.75 1.12.55.055.1.506-1 1.001-1.359.612-.125.762 3.852.468 3.218-.238 6.565-1.012 7.437-1.721 1.355-1.101 1.488-1.028.915.5-.857 2.286 1.75 3.41 3.856 1.662 1.098-.911 1.208-1.476.384-1.985-.862-.532-.845-1.281.066-2.984 1.113-2.079 1.032-2.225-.938-1.71-1.746.457-2.044.216-1.571-1.273.406-1.279-.037-2.033-1.459-2.485-2.691-.854-2.604-4.006.164-5.945 2.112-1.479 2.129-1.603.378-2.883-1.383-1.011-1.631-1.929-1.018-3.761 1.526-4.558 1.396-4.857-1.911-4.394-2.84.399-2.905.354-.655-.444 2.119-.751 2.195-.904.5-1.002-1.691-.097-1.768-.278-.5-1.17 1.152-.811.751-.964-1.726-.662-1.774.217-3.402-.089-3.619-.679-.267-.727-1.105-.652-2.603.234-1.445.856-2.614.975-3.38.346-1.14-.936-6.273-1.569-21.672-2.67-5.972-.426-7.763-.225-8.789.991m-85.096 17.287c-.144 12.813-2.701 29.428-4.703 30.548-.8.448-1.15 1.306-.779 1.907.379.613.219.81-.365.45-1.363-.843-2.492 3.51-1.235 4.767 1.506 1.506 1.16 7.279-.475 7.906-.794.305-3.156.324-5.25.042-2.749-.369-3.381-.235-2.272.484.845.547 3.32 1.139 5.5 1.315 2.18.176 4.271.747 4.645 1.268 1.082 1.505 3.178-4.1 2.293-6.134-.665-1.532-.901-1.347-1.513 1.186-.664 2.75-.733 2.792-.83.5-.058-1.375.994-5.943 2.338-10.151 3.965-12.413 5.589-30.676 3.588-40.349-.659-3.187-.85-1.915-.942 6.261m181.685-6.227c-.294.293-4.419.548-9.167.565-7.858.029-8.633.206-8.633 1.967 0 1.064-.525 1.934-1.167 1.934-1.145 0-.307 1.371 1 1.635 4.984 1.005 5.86 2.62 3.177 5.852-.771.929-1.358 3.225-1.305 5.101.054 1.877-.308 3.412-.804 3.412-.496 0-.901.637-.901 1.417 0 .779-.562 1.643-1.25 1.921-.687.277.865.54 3.45.583 2.908.049 5.006-.426 5.5-1.246.44-.729 1.687-1.654 2.772-2.054 1.236-.457 1.563-.988.876-1.425-1.576-1.001.212-5.196 2.215-5.196 2.932 0 7.437-3.979 7.437-6.568 0-1.338.45-2.432 1-2.432s1-1.125 1-2.5-.45-2.5-1-2.5-1 .45-1 1-.436 1-.969 1c-.532 0-.709-.675-.393-1.5.549-1.43-.712-2.093-1.838-.966m-60.471 31.4c-1.292 1.047-2.207 3.288-2.537 6.22-.51 4.524-.467 4.604 3.332 6.281 3.398 1.499 4.092 1.527 5.927.242 1.143-.801 3.062-1.229 4.264-.952l2.185.503-2.156-1.605c-1.735-1.291-2.062-2.339-1.676-5.364.459-3.586.302-3.833-3.418-5.36-3.59-1.474-4.061-1.471-5.921.035m126.921 7.841c-1.238.2-2.25.977-2.25 1.727 0 .75-.809 1.62-1.799 1.934-1.346.428-1.716 1.387-1.469 3.818.522 5.144-.636 6.016-5.471 4.116-2.391-.939-5.198-1.352-6.675-.981-3.13.786-9.788 6.475-9.024 7.712.306.494.128.899-.396.899-1.483 0-2.314 3.116-1.192 4.469.555.668.713 1.511.351 1.873-.362.362-.144.658.484.658.794 0 .862.736.223 2.415-.688 1.811-.557 2.553.525 2.969.794.304 1.443 1.242 1.443 2.085 0 .842.675 1.531 1.5 1.531s1.5.408 1.5.906c0 .499 2.185 1.207 4.855 1.574 5.93.816 11.202-1.112 13.773-5.036 2.53-3.86 2.273-12.943-.442-15.658-1.658-1.658-1.479-2.836.327-2.143.832.32 2.111.084 2.842-.522.731-.607 1.614-.818 1.963-.47.348.349 1.273.103 2.055-.545 1.461-1.213 1.088-5.106-.49-5.106-1.445 0-1.002-4.738.591-6.331 1.717-1.717.413-2.483-3.224-1.894m-78.5 7.187c-.962.938-1.75 2.441-1.75 3.341 0 1.127-.527 1.432-1.699.982-1.063-.408-1.251-.802-.5-1.052.659-.22 1.199-1.3 1.199-2.4 0-1.177-.514-1.811-1.25-1.541-.687.252-1.137.964-1 1.583s-.227 1.125-.809 1.125c-.582 0-.738.52-.346 1.155.42.679.277.884-.347.498-.651-.402-.877.049-.585 1.165.694 2.656-2.015 4.599-4.533 3.251-2.681-1.434-3.175-1.349-2.492.431.562 1.463-.479 1.914-3.638 1.577-1.333-.143-1.333-.046 0 .866 1.115.763.087 1.048-4 1.112-3.785.059-4.877.332-3.5.877 1.1.435 2.497.605 3.105.378.753-.281 1.072 2.059 1 7.342l-.105 7.754 5.232 3.047 5.233 3.047.237 12c.131 6.6.16 14.025.065 16.5-.331 8.64-.25 9.361 1.236 11.004 1.82 2.01 1.961 5.641.247 6.337-.981.398-.966.706.069 1.435 1.669 1.173 1.186 8.673-.569 8.849a158.9 158.9 0 00-2.309.25c-.582.069-.813.524-.511 1.011.301.488-.46 1.157-1.691 1.487-3.745 1.003-4.739.715-4.739-1.373 0-1.467-.667-2-2.5-2s-2.5.533-2.5 2c0 3.748-1.884 2.015-2.193-2.018-.169-2.209-.757-3.996-1.307-3.97-.55.026-.849 1.832-.664 4.018.317 3.746-1.063 5.473-2.174 2.72-.277-.687-.575 2.125-.662 6.25-.087 4.125-.385 6.938-.662 6.25-.278-.687-1.48-1.218-2.671-1.18-2.091.068-2.097.099-.167.876 1.867.751 1.833.837-.5 1.293-2.321.454-2.339.498-.25.625 2.097.127 2.239.56 2.09 6.386-.088 3.451-.341 4.794-.563 3-.684-5.512-2.277-3.589-2.277 2.75 0 5.856 1.882 8.743 2.118 3.25l.119-2.75.763 3c.721 2.834.77 2.768.882-1.191.132-4.678 1.43-6.125 3.76-4.191 1.064.882 1.388 2.311 1.028 4.528l-.525 3.238 4.927-.038c2.827-.022 4.679-.44 4.344-.982-.345-.558.474-.679 2-.296 3.119.783 3.488-.987.584-2.8-2.682-1.675-2.544-4.593.251-5.295 1.991-.5 2.225-1.128 2.032-5.462-.176-3.959.128-5.007 1.587-5.47 2.219-.704 4.489-7.201 2.772-7.933-.678-.289.002-1.461 1.673-2.887 2.798-2.385 2.811-2.453 2.126-10.894-.871-10.741.179-13.313 5.111-12.512 2.774.45 3.471.187 4.01-1.51.685-2.159-1.008-3.955-3.006-3.188-1.38.529-2.023-6.673-2.042-22.868-.008-6.463-.425-11.75-.926-11.75-.502.001-3.019-1.35-5.593-3.002l-4.68-3.003-.21-6.497c-.236-7.287.033-7.488 5.969-4.459 5.77 2.944 6.961 1.43 4.311-5.478-.545-1.419-.291-1.474 1.995-.433 1.441.657 2.676 1.797 2.745 2.534.069.736.181 1.864.25 2.506.177 1.655 2.626 2.278 2.619.666-.004-.733-.706-2.674-1.56-4.313-1.003-1.923-1.178-3.105-.494-3.333.583-.195 1.06-1.066 1.06-1.937s-.296-1.287-.658-.925c-.362.362-1.267.152-2.011-.465-1.124-.933-1.072-1.329.309-2.339.915-.669 1.257-1.452.761-1.74-.495-.289-1.689.242-2.651 1.181M87 197.417c0 .779.563 1.645 1.25 1.924.941.381.879.769-.25 1.568-1.969 1.392-3.297 1.381-2.431-.021.378-.611.067-1.504-.691-1.984-1.811-1.148-3.143-1.142-2.431.011.311.503 0 1.142-.691 1.421-.758.305-.562.537.494.585 1.968.089 2.45 3.07.5 3.094-.833.011-.75.339.25.985.887.573 1.016.976.317.985-.65.008-1.468.915-1.817 2.015s-.959 2-1.355 2c-.395 0-.787-.9-.87-2-.083-1.1.271-2 .787-2s.938-1.125.938-2.5c0-2.896-.549-3.094-2.679-.964-.906.907-1.304 2.421-.97 3.698.311 1.189.084 2.742-.505 3.451-1.537 1.853-.305 4.225 2.1 4.044 1.822-.137 2.433-.909 2.228-2.812-.035-.321.542-.584 1.282-.584.857 0 1.344 1.209 1.344 3.334 0 1.833-.405 3.333-.9 3.333s-.9.691-.9 1.535c0 1.206-.413 1.314-1.928.504-2.03-1.087-5.072-.446-5.072 1.068 0 .491-.886.893-1.969.893-1.339 0-1.784.48-1.393 1.5.317.826.03 1.5-.638 1.5s-.98.609-.695 1.353c.286.744-.411 2.15-1.548 3.123-1.946 1.667-1.964 1.829-.292 2.764 1.442.807 1.518 1.156.405 1.862-1.077.682-.996.871.38.883.963.008 1.75-.451 1.75-1.02 0-.66.635-.711 1.75-.142.963.492 3.325.753 5.25.581 1.925-.172 5.638-.404 8.25-.517 3.41-.147 4.75-.617 4.75-1.668 0-1.206.272-1.238 1.542-.184 1.169.97 1.824.999 2.7.123 1.594-1.594 2.758-1.45 2.758.342 0 .825.338 1.447.75 1.382 3.263-.516 5.25.311 5.25 2.184 0 2.933-1.807 5.934-3.575 5.934-1.218 0-1.264.256-.244 1.349 2.408 2.577 15.098-3.306 15.342-7.114.116-1.819-.241-2.142-1.814-1.643-1.126.358-1.71.219-1.373-.326.322-.521-.793-1.967-2.478-3.213l-3.063-2.265.645 2.939c.497 2.262.29 2.94-.897 2.94-.849 0-1.599-.825-1.668-1.834-.241-3.536-.387-3.913-1.875-4.854-.825-.522-1.05-.976-.5-1.009.55-.033-.35-.639-2-1.346-2.57-1.102-3.175-1.06-4.218.295-1.07 1.389-1.222 1.317-1.25-.587-.048-3.287-1.083-5.332-2.698-5.332-.807 0-1.148-.492-.768-1.107.467-.756-.038-.878-1.592-.385-1.837.583-2.157.411-1.657-.893.45-1.172.012-1.647-1.598-1.731-1.904-.1-1.95-.185-.324-.601 1.523-.39 1.621-.659.5-1.369-.846-.536-.94-.889-.239-.899 1.677-.022.45-3.76-1.477-4.5-1.369-.525-1.4-.76-.199-1.503 1.768-1.092 3.02-.393 3.02 1.685 0 .869 2.138 3.532 4.75 5.919 4.384 4.005 6.25 5.162 6.25 3.874 0-1.189-8.428-9.344-9.177-8.88-1.083.669-1.042-1.358.107-5.365.694-2.42.579-3.593-.453-4.625-.76-.76-1.103-1.66-.763-2.001.341-.34.094-.619-.547-.619-.642 0-1.167.637-1.167 1.417M369.35 204c.33 1.65.407 3 .172 3-1.1 0-5.522-2.397-5.522-2.994 0-.37-.562-.694-1.25-.72-.687-.026-2.038-.375-3-.774-1.505-.624-1.75-.135-1.75 3.488 0 3.375.305 4.097 1.533 3.626.854-.328 8.264 2.658 16.75 6.75 8.369 4.035 16.207 7.65 17.416 8.032 1.378.435 1.991 1.235 1.643 2.143-.398 1.037.185 1.449 2.051 1.449 1.434 0 2.607-.45 2.607-1s-.725-1-1.611-1c-1.241 0-1.069-.478.75-2.084 1.709-1.508 1.877-1.931.611-1.531-.962.304-1.75.09-1.75-.475 0-.566-.382-.792-.849-.504-.466.289-1.768-.333-2.893-1.38-1.125-1.048-2.318-1.633-2.652-1.299-.333.333-.606.055-.606-.619s-.461-.941-1.025-.593c-.563.349-.96.263-.881-.191.351-2.021-.207-2.697-1.094-1.324-.804 1.244-.975 1.159-1-.5-.026-1.693-.196-1.77-1.11-.5-.902 1.254-.983 1.205-.496-.302.338-1.045.172-1.548-.394-1.198-.537.332-.731-.036-.431-.819.3-.783-.155-1.692-1.012-2.021-1.827-.701-1.93-.226-.522 2.406 1.248 2.331.403 2.514-1.735.376-.857-.856-2.198-1.311-2.981-1.011-.783.3-1.172.14-.865-.356.306-.496-.795-1.501-2.448-2.233-1.653-.732-3.006-1.697-3.006-2.145 0-.448-.353-.597-.784-.331-.431.267-.732-1.057-.67-2.941.063-1.884-.316-3.425-.841-3.425-.528 0-.687 1.342-.355 3m-132.492.75a76.311 76.311 0 00-.061 5.25c.045 1.375.137 5.313.205 8.75l.123 6.25h3.938c3.927 0 3.937-.011 3.937-4 0-2.525-.461-4.006-1.25-4.015-.833-.011-.75-.339.25-.985 1.213-.784 1.069-.972-.75-.985-1.238-.008-2.25-.465-2.25-1.015 0-.55.9-1 2-1 1.111 0 2-.667 2-1.5 0-1.812-2.628-2.008-3.338-.25-.277.688-.54-.014-.583-1.559-.045-1.603-.508-2.544-1.079-2.191-.583.361-1-.656-1-2.441 0-3.802-1.947-4.083-2.142-.309m179.834 26.613c-.555 1.444-1.023 1.607-2.083.727-1.139-.944-1.394.446-1.527 8.305-.16 9.482.388 11.129 3.328 10.001 1.147-.44 1.59-1.944 1.59-5.399 0-4.652.143-4.88 5-7.997 5.789-3.715 5.953-4.005 2.25-3.985-1.959.011-2.353.267-1.37.89.928.587.285.819-1.961.706-2.664-.134-3.461-.67-3.927-2.64-.519-2.194-.664-2.262-1.3-.608m-173.442 1.376c-.713.244-1.25 2.102-1.25 4.325 0 3.343-.363 3.989-2.547 4.537-3.111.781-4.152-.054-2.519-2.022 2.11-2.541.915-6.039-2.184-6.395-2.409-.278-2.75.024-2.75 2.429 0 3.368-1.629 8.636-4.237 13.703-1.081 2.098-1.705 4.075-1.387 4.393.317.317.861-.162 1.207-1.066 1.153-3.003 4.9-1.95 6.732 1.891 2.196 4.606 2.126 6.117-.315 6.756-1.197.313-2 1.364-2 2.616 0 1.152-.45 2.094-1 2.094s-1 .675-1 1.5.45 1.5 1 1.5c.578 0 1 3.167 1 7.5 0 6.438.248 7.514 1.75 7.6 1.135.064.871.361-.75.844-1.674.498-3.071.255-4.229-.736-1.545-1.323-1.804-1.279-2.427.406-.384 1.037-1.093 2.153-1.576 2.479-.483.326-.114 2.5.818 4.831 1.027 2.565 1.98 3.778 2.416 3.073.516-.835.879-.75 1.281.297.308.804.056 1.967-.561 2.584-.617.617-.721 1.122-.231 1.122s.018.668-1.05 1.484c-1.908 1.458-1.905 1.493.189 2.085 1.281.362 2.489 1.862 3.033 3.766.635 2.224 1.604 3.265 3.257 3.502 2.91.418 4.182-1.439 3.041-4.44-.717-1.885-.502-2.324 1.259-2.584 1.417-.209 2.18-1.102 2.293-2.685.094-1.304.926-2.794 1.85-3.311.923-.517 1.418-1.362 1.099-1.878-.321-.519 1.039-.939 3.038-.939 2.157 0 3.369.404 3 1-.34.55.11 1 1 1s1.34-.45 1-1c-.34-.55.196-1.003 1.191-1.007 1.027-.004 2.991-1.842 4.543-4.25l2.734-4.243.016 6.179c.01 3.879-.487 6.682-1.337 7.531-1.659 1.66-.407 5.79 1.756 5.79 5.819 0 8.726-4.324 3.597-5.35l-3-.6v-7.466c0-4.106.45-7.744 1-8.084.55-.34 1-1.068 1-1.618s-.45-.722-1-.382c-.55.34-1 .141-1-.441s-.45-1.059-1-1.059-1 .884-1 1.965c0 1.08-.9 2.446-2 3.035-1.828.978-2 .76-2-2.531 0-4.425 1.468-7.337 4.211-8.351 2.071-.766 2.07-.778-.254-2.944L256.623 269l3.438-.082 3.439-.081-3.5-1.516c-4.199-1.817-3.626-1.167-4.462-5.07-.861-4.016 2.081-3.617 3.094.419.405 1.613 1.112 2.258 2.073 1.89.802-.308 2.097-.56 2.877-.56 2.158 0 1.693-1.405-.832-2.513-1.238-.543-3.825-3.39-5.75-6.327l-3.5-5.341-4.52.595-4.519.594.368-7.285c.447-8.864.062-11.546-1.579-10.984m136.852 7.288c-.056 1.391-.776 3.491-1.601 4.668-.824 1.176-1.08 2.289-.569 2.472 1.161.416 2.538 25.833 1.399 25.832-.457 0-.748 1.912-.648 4.25l.406 9.425c.176 4.074.615 5.277 2.066 5.656 1.014.265 2.098.07 2.41-.435 1.137-1.84 11.435.007 11.435 2.05 0 .335-1.8.436-4 .226-2.2-.209-4-.794-4-1.299 0-.505-1.012-.282-2.25.494-1.238.777-3.006 1.282-3.931 1.122-1.599-.277-3.417 2.248-2.371 3.293.272.273 2.353.628 4.623.79 5.792.412 6.216 1.429.596 1.429H379v10h28.775l.16-11.599c.126-9.118-.117-11.506-1.137-11.165-.803.269-1.349 2.312-1.43 5.35-.073 2.703-.186 5.477-.25 6.164-.167 1.767-9.535 1.658-11.017-.128-.898-1.082-.71-1.491.878-1.906 1.112-.291 2.021-1.196 2.021-2.011 0-.902 1.369-1.739 3.5-2.139 3.981-.747 3.898-.599 2.311-4.081-1.076-2.361-.909-2.837 1.75-5.011 5.29-4.324 6.43-3.487 6.504 4.776.035 3.988.28 9.574.543 12.414.282 3.035.049 5.43-.564 5.809-.574.355-1.044 1.293-1.044 2.086 0 1.182 2.368 1.441 13.156 1.441h13.155l-.584-28.096c-.322-15.452-.781-28.291-1.021-28.531-.239-.239-8.709-.053-18.821.415-12.824.593-18.607.527-19.12-.219-.491-.715-.739-.656-.75.181-.01.831-1.69 1.25-5.015 1.25-2.75 0-5-.45-5-1s-.477-1-1.059-1-.781.45-.441 1-.087 1-.948 1c-1.237 0-1.544-1.105-1.458-5.25.113-5.496-1.787-14.773-1.992-9.723M158 247.5c0 .825.477 1.5 1.059 1.5s.844.347.582.772c-.262.424-4.226.484-8.809.134-4.583-.351-8.487-.506-8.676-.345-.807.688 7.754 2.435 12.344 2.519 4.625.085 4.775.162 2 1.024-1.919.597-4.535.56-7.259-.103-2.343-.569-5.491-.725-6.996-.348-2.47.62-2.151.85 3.259 2.355 3.298.917 7.684 1.575 9.746 1.462 2.063-.113 3.75.089 3.75.448s.853.653 1.896.653c2.221 0 2.561-8.079.433-10.321-1.616-1.703-3.329-1.574-3.329.25m-19.696 11.554c.318 1.215.004 1.946-.835 1.946-1.013 0-1.31 1.787-1.21 7.279.073 4.003-.209 7.831-.627 8.507-1.063 1.72 1.248 2.389 6.995 2.024l4.873-.31.232-10.202c.133-5.865-.185-10.46-.75-10.809-.54-.334-.982.095-.982.952 0 .892-.855 1.559-2 1.559-1.1 0-2-.579-2-1.287s-.946-1.359-2.102-1.446c-1.622-.122-1.986.287-1.594 1.787m57.605 2.29c-4.758 2.856-3.719 6.603 1.841 6.641 1.256.008 2.25.634 2.25 1.417 0 .771 1.35 1.873 3 2.448 2.84.99 3.006.902 3.112-1.652.061-1.484.288-4.246.503-6.137.628-5.516-4.061-6.706-10.706-2.717M103 262.868c0 .687-.45.972-1 .632-.565-.349-1 .47-1 1.882 0 1.375-.45 2.778-1 3.118-1.86 1.149-1.135 5.652 1 6.21 2.912.762 2.447 2.267-.75 2.432-2.066.107-1.755.301 1.25.782 4.08.652 8.365-2.22 8.464-5.674.02-.687.572-1.25 1.227-1.25.655 0 .33-.63-.723-1.4-1.053-.769-2.762-1.236-3.798-1.036-1.398.269-1.763-.1-1.415-1.43.257-.985-.144-2.63-.893-3.654-.763-1.044-1.362-1.313-1.362-.612m-23.857 19.865c-.526.983-.731 2.971-.455 4.416.276 1.445.01 3.547-.592 4.672-1.158 2.163 1.63 4.085 3.895 2.685.555-.343 1.009-.24 1.009.228 0 .469 1.8 1.333 4 1.92l4 1.068v-7.468c0-6.227.249-7.372 1.5-6.892 1.483.569 2.059-.47.902-1.626-1.847-1.848-3.402.835-3.402 5.871 0 3.342-.43 5.393-1.13 5.393-.748 0-.959-1.522-.623-4.5.5-4.439-.048-5.163-3.497-4.618-.412.065-.823-.444-.913-1.132-.09-.687-.466 1.225-.837 4.25l-.674 5.5-.163-5.191c-.174-5.547-1.459-7.494-3.02-4.576m58.101 3.017c-.004 1.512.502 3.081 1.125 3.485.664.431.203.741-1.119.75-2.852.019-2.927 1.665-.118 2.557 1.681.533 1.84.865.75 1.567-1.162.749-1.143 1.05.118 1.891 1.333.889 1.333 1.109 0 1.985-1.003.658-1.086.989-.25 1 .688.008 1.257.803 1.265 1.765.013 1.496.157 1.532.985.25.862-1.333.973-1.333 1 0 .027 1.332.137 1.332.977.002.521-.824.762-2.948.535-4.721-.227-1.773.015-3.488.537-3.812.555-.342.951 1.591.951 4.639 0 2.874.267 4.958.593 4.632.567-.567.767-5.935.521-13.99-.062-2.062-.612-3.75-1.221-3.75-.609 0-.853.661-.544 1.468.31.807.133 1.734-.393 2.059-.526.325-.956-.561-.956-1.968 0-2.027-.494-2.559-2.375-2.559-1.923 0-2.376.524-2.381 2.75" fill="#d3d3d3" fill-rule="evenodd"/></svg>