<svg xmlns="http://www.w3.org/2000/svg" width="500" height="712"><path d="M0 185.5c0 147.67.255 185.524 1.25 185.618.688.066 1.813.046 2.5-.043 1.528-.199 1.627 1.148.19 2.585-.713.713-.776 3.189-.192 7.546.888 6.625.099 10.487-2.469 12.094C.249 393.944 0 424.873 0 551.977v157.878l5.339-.551c3.804-.392 6.324-.083 8.764 1.075 3.137 1.488 23.727 1.604 244.911 1.373L500.5 711.5l.241-355.75c.228-337.525.151-355.749-1.5-355.735-1.49.013-1.525.156-.241.985 1.293.835 1.266.971-.191.985-.93.008-1.969-.435-2.309-.985-.409-.662-84.344-1-248.559-1H0v185.5m.247.963L.495 371.5.75 187.608C.991 13.915 1.102 3.644 2.753 2.416c1.606-1.195 1.566-1.287-.503-1.145L0 1.426l.247 185.037M136 6c-1.667.534-1.917.834-.75.9.963.055 1.75.613 1.75 1.24s-.787 1.737-1.75 2.468c-1.616 1.227-1.573 1.331.566 1.36 3.478.048 6.184 1.853 6.184 4.126 0 1.113.412 1.77.915 1.459.503-.311 1.076-.079 1.275.516.198.595 3.903 1.697 8.233 2.448 5.161.897 9.493 2.375 12.578 4.293 4.057 2.522 5.414 2.857 9.852 2.43 2.832-.272 5.154-.999 5.162-1.617.009-.618.497-.448 1.085.377.809 1.136.927.681.484-1.875-.321-1.856-.584-4.894-.584-6.75 0-3.015-.293-3.375-2.75-3.376-4.929-.001-16.909-2.923-24.578-5.994C146.247 5.032 140.913 4.427 136 6m-31 .709c-.825.304-2.287 1.238-3.25 2.076-.963.839-1.75 1.22-1.75.847s-1.169.088-2.598 1.024C94.215 12.744 73 14.024 73 12.128c0-.62-.927-1.128-2.059-1.128-1.132 0-1.815-.395-1.516-.878.897-1.452-5.669-2.32-6.685-.884-.715 1.012-.996 1.006-1.413-.03-.338-.836-.928-.962-1.674-.358-.634.513-3.853 1.461-7.153 2.106-3.3.645-8.925 2.15-12.5 3.345-3.575 1.195-7.625 2.179-9 2.186-1.652.009-2.505.576-2.513 1.673-.008.913-.708 2.488-1.557 3.5s-2.071 3.078-2.715 4.59C23.57 27.762 22.43 29 21.682 29c-1.882 0-3.726 4.443-4.339 10.453-.284 2.776-1.131 6.691-1.883 8.701-.752 2.01-1.5 5.722-1.663 8.249-.164 2.528-.572 4.596-.908 4.596-.337.001-.385 1.185-.109 2.632.342 1.788-.023 2.925-1.138 3.55-.903.505-1.642 1.598-1.642 2.428 0 .83.45 1.231 1 .891.55-.34 1-.115 1 .5s.453.838 1.007.496c1.863-1.152 2.306 2.555.466 3.9-.978.715-1.477 1.788-1.109 2.383.368.596.231 1.353-.304 1.684-.535.331-.805 1.149-.6 1.819 1.204 3.931 1.496 9.809.456 9.166-.773-.477-.917-.026-.456 1.427.392 1.233.24 2.125-.361 2.125-.57 0-.81.589-.534 1.308.276.72-.413 2.364-1.532 3.653-1.118 1.29-2.075 2.839-2.126 3.442-.138 1.635.171 8.705.519 11.871.167 1.526-.07 3.006-.528 3.289-.458.283-.566 1.847-.24 3.476.4 1.999.192 2.961-.64 2.961-.678 0-.99.631-.694 1.402.296.771.255 1.686-.092 2.033-.347.346-.51 2.595-.362 4.996.148 2.401-.193 4.651-.757 4.999-.564.349-.772 1.295-.462 2.102.309.807.088 1.468-.492 1.468-.707 0-.752.906-.134 2.75.506 1.513 1.37 5.641 1.92 9.174.55 3.533 1.35 6.683 1.777 7 .428.317.811 2.376.851 4.576.296 16.173 3.847 10.888 6.478-9.642 1.072-8.362.912-18.447-.475-29.858-.412-3.393-.321-4.989.239-4.165 1.014 1.49 2.09-1.311 2.242-5.835.077-2.295.154-2.336.943-.5.789 1.836.866 1.795.945-.5.061-1.772.333-2.11.934-1.161.504.795.701-.829.484-4-.201-2.936-.393-6.118-.428-7.069-.034-.952-.423-1.954-.865-2.226-1.416-.876.151-5.789 2-6.273 1.91-.499 2.393-2.584 3.422-14.771 1.302-15.417 1.156-15.036 7.776-20.245C41.819 49.952 43.828 47 38.925 47c-5.29 0-5.781-10.964-.579-12.941C40.92 33.08 42 31.154 42 27.541c0-3.999 6.525-7.01 9.621-4.44 1.351 1.121 1.826 1.023 3.103-.639 1.44-1.875 1.486-1.84 1.03.788-.262 1.512-.089 2.75.385 2.75.473 0 .861-.627.861-1.393 0-2.119 3.086-2.871 4.401-1.073.889 1.215 1.705 1.346 3.623.581l2.476-.988-2.809-.064c-3.964-.089-2.456-1.758 2.318-2.565 2.2-.371 3.775-1.038 3.501-1.482-.949-1.535 3.032-2.187 12.99-2.127 5.5.033 13.375-.542 17.5-1.278 4.125-.735 8.084-1.117 8.798-.849.714.269 1.903-.338 2.642-1.349 1.136-1.554 1.59-1.633 2.943-.51 1.787 1.483 10.617.681 10.617-.964 0-.517 1.254-.939 2.787-.939 1.986 0 2.827-.527 2.925-1.833.128-1.694-.639-1.798-10.15-1.375-6.999.312-10.512.098-10.985-.667-.728-1.178-3.035-1.35-5.577-.416m-3.515 13.385c-2.192 1.151-6.46 4.506-9.485 7.455-3.025 2.95-7.3 6.131-9.5 7.07-3.876 1.655-3.922 1.731-1.5 2.445l2.5.737-2.623.099c-5.635.214-11.55 3.9-15.283 9.525C63.617 50.403 62 53.495 62 54.297c0 .802-.662 3.044-1.472 4.982-1.436 3.436-.143 7.003 1.824 5.035.636-.636 3.549 2.459 3.616 3.842.018.361-.861.423-1.953.138-2.488-.651-5.904.529-4.372 1.51.598.383 1.485 4.296 1.972 8.696.487 4.4 1.335 8.007 1.885 8.015 2.165.033 3.355 1.667 4.001 5.49.512 3.032 1.136 3.995 2.587 3.995C71.14 96 72 95.518 72 94.929c0-.59.675-1.747 1.5-2.572s1.516-2.93 1.536-4.678c.048-4.326 2.327-13.546 4.281-17.326.882-1.704 1.321-3.381.976-3.726-.634-.634 1.164-.999 3.457-.702 1.89.246 1.497-2.633-.561-4.118-3.577-2.581-3.375-3.688 1.513-8.272 2.639-2.476 5.376-4.509 6.083-4.518.707-.009 2.365-.724 3.684-1.588 4.152-2.721 12.658-2.852 17.609-.271 3.002 1.565 4.41 1.877 4.69 1.039.219-.658 1.036-1.197 1.815-1.197.779 0 1.417-.477 1.417-1.059s.45-.781 1-.441 1 .237 1-.228c0-.466 1.869-.922 4.153-1.013 2.284-.091 4.624-.636 5.2-1.212.576-.576 1.992-1.047 3.148-1.047 2.839 0 7.482-2.238 7.491-3.611.01-1.361-8.94-4.869-17.468-6.847-7.924-1.838-16.813-.643-22.148 2.977-2.01 1.365-4.68 2.481-5.934 2.481-1.253 0-3.103.309-4.11.687-1.613.605-1.668.485-.46-1 .755-.928 1.003-1.687.55-1.687-.452 0-.254-.562.44-1.25 1.011-1.001 1.455-.909 2.23.464 1.069 1.895 4.151 1.211 8.258-1.835 2.127-1.578 2.121-1.588-.6-.968-1.513.345-3.782.368-5.044.051-2.26-.567-2.241-.633 1.25-4.397C102.51 23.233 111 20.283 111 22.881c0 .581-.675.797-1.5.481-.825-.317-1.5-.078-1.5.531S108.659 25 109.465 25c.805 0 1.946.9 2.535 2 .689 1.287 2.038 1.972 3.785 1.921 1.493-.043 2.153-.306 1.465-.583-.687-.278-1.25-1.314-1.25-2.303 0-2.441-5.886-8.035-8.455-8.035-1.141 0-3.868.942-6.06 2.094m233.288 9.336c-4.25.655-7.958 1.422-8.24 1.704-1.757 1.757 14.409 6.705 22.159 6.782 8.873.089 10.762-.906 7.644-4.025-1.662-1.662-11.908-6.1-13.322-5.771-.283.065-3.991.655-8.241 1.31m-67.229 11.128c-15.025 3.272-14.812 3.14-9.794 6.121 2.337 1.388 4.25 2.961 4.25 3.494 0 .533.635 1.605 1.411 2.381.776.775 1.596 1.967 1.823 2.647.47 1.412 18.766-4.95 18.766-6.526 0-.499-.941-.662-2.091-.361-1.841.481-2.011.227-1.421-2.124.369-1.468.972-2.899 1.341-3.18.369-.28 1.237-1.523 1.929-2.76 1.195-2.135 1.093-2.246-2-2.164-1.792.047-8.188 1.16-14.214 2.472m181.568-1.65c-2.292.604-2.217.747 1.861 3.574 2.337 1.619 3.718 3.121 3.068 3.338-.724.241-.379.955.889 1.843 2.698 1.89 2.745 4.326.07 3.627-2.323-.608-2.563.558-.653 3.17.983 1.345 1.55 1.515 2.096.632 1.387-2.244 3.542 2.073 2.949 5.908-.408 2.638-.281 3.131.518 2 .583-.825 1.066-1.202 1.075-.838.008.364.683 4.152 1.499 8.418.816 4.265 1.494 12.518 1.506 18.338.013 5.82.456 12.382.986 14.582.861 3.576.92 3.312.558-2.5-.243-3.909-.08-5.703.408-4.5.646 1.59.964 1.019 1.553-2.78.811-5.233.252-15.109-1.026-18.134-.603-1.427-.484-1.713.468-1.125.914.565 1.126.256.745-1.086-.293-1.031-.773-3.45-1.068-5.375-.523-3.422-.509-3.439.619-.75.634 1.513 1.796 2.75 2.582 2.75 1.115 0 1.173-.31.263-1.406-1.17-1.409-.922-13.35.423-20.373.571-2.982.354-3.376-2.395-4.334-1.664-.58-3.298-1.917-3.633-2.971-.334-1.054-1.238-1.916-2.009-1.916-.839 0-1.169.606-.821 1.511.578 1.508-2.442 1.068-3.643-.531-.816-1.086-6.315-1.75-8.888-1.072M349.29 46c.316 1.21.03 2-.723 2-1.324 0-3.567 4.117-3.567 6.547 0 .799.9 1.453 2 1.453s2 .478 2 1.061c0 .693 1.58.825 4.552.379l4.553-.683-.24 4.622c-.175 3.391-.655 4.637-1.802 4.681-10.997.424-16.878 2.253-14.901 4.635.881 1.062 3.131 1.233 9.988.759 8.492-.587 8.85-.528 8.85 1.467 0 1.143.482 2.079 1.071 2.079.59 0 .397.675-.428 1.5s-3.134 1.5-5.131 1.5c-2.165 0-3.381.403-3.012 1 .351.567-.49 1-1.941 1-1.407 0-2.559.45-2.559 1s2.115 1 4.7 1c3.76 0 4.45.25 3.451 1.25-.795.795-4.601 1.303-10.45 1.395-10.897.171-14.359 1.312-16.029 5.284-.681 1.62-2.812 4.211-4.736 5.758-2.138 1.72-3.36 3.493-3.143 4.563.194.963-.115 1.75-.688 1.75s-.76-.787-.414-1.75c1.388-3.87-2.265 1.313-4.758 6.75-2.222 4.846-2.589 5.385-3.971 5.846-1.055.352-.976-.175.321-2.155.944-1.441 1.717-3.092 1.717-3.668 0-1.172-7.342-.343-10.269 1.159-1.601.823-1.705.506-1.092-3.327 1.077-6.732 2.637-9.105 4.899-7.451 1.751 1.281 1.76 1.492.164 3.928l-1.687 2.575 3.743-.473c7.454-.941 9.642-2.794 4.749-4.022-1.371-.344-2.275-.978-2.009-1.409.267-.431-1.106-1.082-3.051-1.447l-3.535-.663 2.7-3.197 2.699-3.196-2.799-.33c-2.629-.31-9.258 2.297-10.635 4.183-.342.47-1.597.332-2.788-.305-3.605-1.929-5.847-.508-5.906 3.743-.028 2.053-.531 4.993-1.117 6.535-1.902 5.002-1.415 8.001 1.184 7.304 1.238-.331 2.53-.609 2.872-.616.342-.008.901-1.756 1.241-3.884.341-2.129 1.382-4.491 2.315-5.25 1.511-1.229 1.612-1.162.925.62-3.145 8.153-4.351 27.835-2.358 38.5 1.998 10.695 3.021 14 4.334 14 1.143 0 1.204.375.295 1.83-1.289 2.064 1.288 7.17 3.619 7.17 2.014 0 4.119 3.004 2.714 3.872-1.325.819.577 2.724 5.023 5.029 1.486.77 2.466 1.783 2.177 2.25-.903 1.46-3.356.931-5.095-1.1-2.235-2.61-3.315-1.706-3.297 2.758.023 5.465 1.049 6.402 7.368 6.722 6.831.346 7.51-.493 4.062-5.014-2.292-3.005-2.44-3.582-1.055-4.113.967-.371 1.61-1.774 1.61-3.511 0-1.905.512-2.893 1.5-2.893.825 0 1.387-.55 1.25-1.221-.156-.76 1.47-1.43 4.303-1.774l4.553-.553-.103 4.546c-.056 2.5-.447 5.102-.867 5.781-1.146 1.856 1.284 3.624 6.864 4.995 6.798 1.67 22.5.355 22.5-1.885 0-.489.637-.889 1.415-.889s3.253-2.088 5.5-4.641c4.625-5.254 5.693-3.619 1.585 2.426-3.023 4.448-3.105 5.186-.5 4.505 1.1-.288 2-.073 2 .477 0 1.485 3.664 2.169 4.916.917 1.543-1.543 1.341-2.684-.475-2.684-3.078 0-.44-1.696 2.773-1.782 2.653-.072 2.949.101 1.536.896-.962.542-1.75 1.461-1.75 2.043 0 .622.72.752 1.75.316.962-.407 2.538-.708 3.5-.669 2.177.089 2.331-2.538.175-2.981-2.189-.449 2.915-6.982 7.325-9.375 3.056-1.658 3.25-2.089 3.25-7.239 0-7.082-1.89-13.368-4.202-13.972-.989-.259-1.798-1.344-1.798-2.413 0-1.068-.45-1.664-1-1.324-1.266.782-1.266-.542 0-2.5.646-1 .974-1.083.985-.25.008.688.492 1.25 1.074 1.25.582 0 .739-.517.348-1.15-.993-1.607-1.711-7.548-1.53-12.668.109-3.1-.182-4.111-1.033-3.586-.825.51-.97.176-.48-1.102.421-1.097.188-2.161-.58-2.649-2.212-1.403-3.784-.923-3.784 1.155 0 1.1.45 2 1 2s.959 1.463.91 3.25l-.09 3.25-.987-3.435c-.755-2.629-1.203-3.098-1.91-2-.745 1.158-1.038 1.014-1.522-.746-.329-1.199-1.139-1.973-1.799-1.72-1.42.545-1.622-6.721-.216-7.742.487-.354 3.158.13 5.935 1.074 4.158 1.413 5.283 2.321 6.366 5.143l1.316 3.426-.481-3.5c-1.583-11.522-1.584-12.61-.011-10.559.819 1.068 1.491 2.643 1.493 3.5.002.858.981 3.134 2.175 5.059 1.315 2.119 2.072 4.782 1.92 6.75-.175 2.258.181 3.25 1.166 3.25 1.441 0 3.735 6.024 3.735 9.807 0 2.395-1.553 3.726-2.52 2.161-.461-.747-1.06-.732-2.003.051-1.091.906-.604 2.092 2.585 6.298 2.161 2.851 3.931 5.886 3.934 6.744.002.859.877 2.499 1.944 3.644s1.735 2.286 1.486 2.536c-.25.25.873.492 2.495.538 1.621.046 3.483-.561 4.136-1.348.929-1.119.899-1.431-.135-1.431-1.028 0-1.055-.267-.122-1.2 1.696-1.696 1.495-5.275-.735-13.072-1.064-3.721-1.935-6.869-1.935-6.997-.001-.373-1.218-3.942-2.728-8.001-2.431-6.536-.934-9.71 5.128-10.878 3.044-.586 3.07-3.683.036-4.316-1.411-.295-3.595-.745-4.853-1.002-2.355-.479-4.713-5.131-4.713-9.296 0-1.166-.45-2.398-1-2.738-1.635-1.011-1.135-2.489.615-1.817 1.308.501 1.477.181.884-1.685-.712-2.244-.6-2.289 4.269-1.712l4.999.592-1.793-3.686c-1.159-2.382-1.429-3.911-.763-4.322.637-.394.453-.966-.483-1.503-1.488-.853-4.805-5.839-6.638-9.979-.515-1.162-4.57-5.41-9.013-9.441-4.442-4.031-8.08-7.805-8.084-8.388-.008-1.208-6.051-5.559-7.722-5.559-.607 0-1.254-.354-1.438-.786-1.384-3.266-6.935-5.214-14.854-5.214-7.72 0-8.181.12-7.689 2M232.5 47.859c-5.005 1.027-7.963 2.109-7.9 2.891l.25 3.118c.112 1.394 1.187 2.008 4.228 2.416 2.242.3 4.865 1.26 5.828 2.131 1.001.905 3.514 1.585 5.861 1.585h4.11l.616-4.75c.339-2.612.825-5.763 1.081-7 .573-2.778-2.072-2.852-14.074-.391m158.34.846c1.287.987 3.537 3.107 5 4.711s5.174 5.429 8.246 8.5c3.428 3.427 6.905 8.285 9 12.575l3.414 6.99.817-11.49c.449-6.32.534-13.402.189-15.737-.702-4.751-.713-4.756-11.506-5.714-3.575-.318-8.975-.814-12-1.103-5.454-.522-5.48-.511-3.16 1.268M322 50.66c-2.475.839-9 2.721-14.5 4.183l-10 2.657-.842 5c-.463 2.75-1.501 6.237-2.306 7.75L292.887 73h6.994c3.847 0 10.013.7 13.702 1.555 4.705 1.092 7.021 1.241 7.762.5.58-.58.714-1.055.298-1.055s-.056-1 .8-2.223c.856-1.222 1.557-3.197 1.557-4.389 0-1.191.885-3.229 1.967-4.527 1.959-2.352 1.967-2.353 2-.194.043 2.82 1.865 3.396 5.283 1.67 1.512-.764 2.764-1.039 2.78-.613.017.427.491-.015 1.055-.982 1.338-2.299.522-3.461-3.653-5.206-2.996-1.252-3.432-1.885-3.432-4.985 0-4.092-.889-4.303-8-1.891m-179 .718c0 1.072-.864 1.622-2.55 1.622-1.402 0-3.989.768-5.75 1.706-1.76.938-3.538 1.613-3.95 1.5-.412-.113-.75.185-.75.663 0 .478-1.282.719-2.849.537-3.136-.365-8.06 3.784-8.57 7.222-.217 1.458-1.152 1.881-4.231 1.912-2.547.026-5.178.915-7.401 2.5L103.5 71.5l2.9.331c1.595.182 4.832-.156 7.193-.75 2.361-.595 4.67-1.081 5.132-1.081.461 0 .936 3.265 1.055 7.257.215 7.184.187 7.269-2.787 8.586-1.682.744-2.714 1.8-2.344 2.398.381.617.19.777-.454.38-.675-.417-1.909 1.001-3.129 3.595-3.976 8.453-7.435 10.875-14.316 10.027-3.343-.412-5.477-2.243-2.614-2.243.625 0-.079-1.216-1.566-2.702-2.736-2.736-4.512-2.147-4.555 1.511-.008.743-.521.997-1.185.586-.819-.506-.946-.149-.423 1.191.41 1.053.934 3.865 1.163 6.249.229 2.384.651 4.714.938 5.178.287.464-.37 1.126-1.459 1.471-2.106.669-3.542 5.559-3.234 11.016.31 5.488 1.007 12.98 1.348 14.5.185.825-.225 1.388-.913 1.25-.687-.137-1.25.329-1.25 1.037 0 1.987 3.791 1.811 7.319-.34 1.75-1.067 2.592-1.941 1.872-1.943-.72-.002-1.055-.416-.744-.919.311-.503.018-1.097-.65-1.319-.669-.223.187-1.234 1.901-2.246 3.665-2.166 3.357-4.059-.797-4.89-2.87-.574-2.925-.688-1.613-3.362.748-1.522 1.172-3.599.943-4.615-.328-1.46.005-1.713 1.593-1.209 1.104.351 2.297.169 2.651-.403.354-.573.14-1.041-.475-1.041s-.899-.354-.632-.786c.267-.433 1.756-.715 3.309-.627 1.64.092 3.833-.731 5.233-1.964 2.013-1.773 2.307-1.835 1.782-.373-.962 2.676 7.337 2.928 10.255.311.894-.802 2.67-1.177 4.186-.883 1.448.281 2.937.018 3.309-.584.372-.602.087-1.101-.633-1.109-1.005-.012-.982-.223.102-.909.859-.543 2.079-.475 3.12.175 1.334.833 2.22.593 4.028-1.091 1.275-1.188 2.571-2.191 2.88-2.229.308-.038 1.911-.309 3.561-.603 1.65-.293 3.927-.54 5.06-.548 1.595-.012 3.359-2.47 7.822-10.898C151.552 90.897 153.693 86 153.14 86c-2.56 0-2.254-4.316.592-8.349 3.876-5.492 6.343-11.912 5.254-13.674-.47-.761-.614-2.589-.319-4.064.604-3.018-2.235-9.913-4.081-9.913-.652 0-1.707.521-2.344 1.158-.876.876-1.577.816-2.887-.25-1.517-1.235-1.654-1.208-1.12.22.612 1.638-.854 3.872-2.542 3.872-.499 0-.661-.642-.359-1.427.301-.785-.101-1.965-.893-2.622-1.154-.958-1.441-.872-1.441.427m282.676 7.372c1.458 5.932 2.537 28.867 1.561 33.192-.548 2.434-.553 2.435-1.361.25-.447-1.205-1.229-2.192-1.739-2.192-1.163 0-2.07 8.38-.956 8.833.451.184.819 1.17.819 2.191 0 1.022.498 2.166 1.107 2.542.745.461.887-.011.433-1.441-1.15-3.622.975-2.359 5.437 3.233 4.296 5.385 9.904 21.904 8.594 25.317-.279.729-.072 1.325.46 1.325.533 0 .969.927.969 2.059 0 1.279.429 1.794 1.133 1.359.76-.47.945-2.951.56-7.537-.324-3.867-.165-7.09.367-7.418 1.396-.863 1.148-11.855-.301-13.304-.911-.911-1.243-7.046-1.25-23.116-.005-12.032-.287-22.154-.626-22.493-1.862-1.863-2.088 26.355-.316 39.45.417 3.075.328 3.257-.732 1.5-2.839-4.71-3.835-4.867-3.835-.603 0 6.997-3.821 3.205-5.439-5.397-.586-3.114.907-30.344 2.002-36.52.584-3.295.392-3.631-3.003-5.25-5.254-2.506-5.441-2.313-3.884 4.02M233.688 81.946c-1.375 3.154-1.246 23.86.188 30.054 1.456 6.292-3.713 23.83-6.27 21.273-.393-.393-1.133-.053-1.645.756-1.271 2.009-1.196 3.235.146 2.405.761-.47.876.059.368 1.691-.407 1.306-1.133 2.526-1.613 2.71-.481.185-.62.747-.309 1.25s-.587.915-1.994.915c-2.645 0-3.675 3.377-1.692 5.55 1.741 1.908 4.133 10.93 4.133 15.591 0 2.632.941 7.164 2.09 10.072 1.15 2.908 2.344 8.596 2.653 12.641.372 4.877.852 6.835 1.423 5.814 1.728-3.088 2.57-11.313 1.756-17.168-.458-3.3-1.091-8.475-1.407-11.5-.315-3.025-1.007-7.075-1.538-9-.531-1.925-.948-4.175-.927-5 .061-2.381 4.279 6.222 4.428 9.032.074 1.392.454 3.05.846 3.683.391.633.547 2.644.346 4.468-.694 6.295 2.379 36.047 4.364 42.265.679 2.125.596 3.178-.296 3.769-.941.624-.831 1.134.462 2.125.985.756 2.118 3.798 2.694 7.231.547 3.26 1.928 10.202 3.07 15.427 1.141 5.225 2.12 11.75 2.175 14.5.054 2.75.362 5.442.683 5.982 1.611 2.714.643 11.84-1.191 11.228-.622-.207-1.131-.864-1.131-1.46s-.338-1.421-.75-1.833c-.412-.413-.764.112-.78 1.166-.029 1.781-.103 1.793-1.05.167-1.249-2.144-2.92-2.287-2.92-.25 0 1.167-.444 1.056-2-.5-1.1-1.1-2.45-2-3-2-.55 0-1-.489-1-1.087 0-2.827-6.331-9.702-10.072-10.937-2.364-.78-3.934-1.929-3.943-2.886-.014-1.392-.136-1.403-.985-.09-.533.825-.976 1.034-.985.464-.009-.596-2.967-1.11-6.977-1.212-7.777-.197-15.724 2.655-19.959 7.164-1.261 1.342-2.919 2.199-3.685 1.905-.828-.318-1.394.104-1.394 1.037 0 .864-.87 2.037-1.934 2.607-2.635 1.41-3.107 1.305-2.401-.534.533-1.39.159-1.376-3.281.124-2.136.931-4.896 1.915-6.134 2.186-2.677.586-2.69.657-.679 3.728 1.532 2.338 1.426 2.538-4.25 7.944-3.201 3.05-6.314 5.554-6.916 5.566-1.987.038-4.572 3.814-4.235 6.189.302 2.134.824 2.334 6.158 2.36 3.206.015 6.045-.322 6.309-.75.265-.428 2.285-.778 4.489-.778 3.696 0 3.955.175 3.315 2.25-1.113 3.609-3.179 7.285-5.93 10.555-2.521 2.995-2.529 3.055-.488 3.702 1.168.371 2.747.099 3.616-.623.849-.704 3.078-1.177 4.952-1.051l3.409.23.015-5.282c.009-2.904.452-5.956.985-6.781.758-1.172.973-.909.985 1.204.014 2.5.276 2.671 3.464 2.263 4.771-.611 5.238.945 1.057 3.529-3.651 2.257-4.193 4.066-2.531 8.439 1.13 2.971 3.521 3.344 5.112.798 1.122-1.797 8.323-1.997 9.396-.261 1.028 1.664-10.896 7.553-14.088 6.958-2.244-.418-3.744.121-2.844 1.021 2.286 2.286 19.538 5.312 34.949 6.132 8.8.467 17.35.978 19 1.133 1.65.156 3.225.059 3.5-.216 1.601-1.601 7.097-5 8.085-5 .831 0 1.038 2.439.72 8.5-.246 4.675-.077 8.5.374 8.5.452 0 .821.9.821 2 0 1.18.717 2.063 1.75 2.152.963.084-1.175.482-4.75.884-14.704 1.652-45.835.897-63.25-1.536-4.29-.599-5.27 1.815-1.954 4.815 1.876 1.698 9.204 1.343 9.204-.446 0-.478.424-.869.943-.869.518 0 .761.942.539 2.094-.372 1.933-.021 2.067 4.558 1.75 2.729-.189 4.961-.007 4.961.406-.002 1.492 3.926.708 5.007-1 .798-1.26 1.256-1.398 1.635-.494.291.691.852 1.056 1.248.811 2.809-1.736 12.697-1.328 11.581.479-.552.892 4.449.41 11.068-1.067 2.221-.496 5.034-.642 6.25-.324 1.215.318 2.21.188 2.21-.288.001-.477 3.664-.979 8.141-1.116 4.478-.138 9.99-.749 12.25-1.359s5.11-1.292 6.333-1.516c1.223-.223 3.473-.899 5-1.501 2.565-1.012 2.624-1.152.776-1.844-1.722-.644-1.538-.85 1.319-1.484 3.191-.708 3.253-.81 1.595-2.642-1.961-2.167-1.623-2.315 2.078-.908 1.743.663 2.416.663 2.006 0-.339-.548.033-.997.826-.997.794 0 1.674-.884 1.957-1.965.579-2.215-.711-2.843-6.601-3.213-2.101-.132-4.04-.596-4.309-1.031-.269-.435-2.15-.789-4.18-.787l-3.691.003 3.5 2.112c4.762 2.873 4.753 2.857 2.557 4.463-1.813 1.326-1.716 1.42 1.502 1.448 3.08.028 3.231.15 1.441 1.165-1.1.624-2.225 1.398-2.5 1.72-.275.322-.966.665-1.535.763-.569.098-4.122.895-7.897 1.77-3.774.875-7.019 1.434-7.212 1.241-.192-.192.072-3.688.588-7.769.517-4.081 1.047-9.817 1.18-12.747.228-5.048.465-5.482 4.526-8.276 5.887-4.051 7.162-8.388 5.452-18.562-.694-4.13-1.046-7.725-.781-7.989.264-.264 3.787-.959 7.829-1.544 4.043-.584 7.918-1.514 8.612-2.065.694-.551 2.719-1.171 4.5-1.378 3.585-.416 12.393-8.49 11.261-10.321-.352-.571-.216-1.038.304-1.038.521 0 1.158-1.238 1.418-2.75s.775-3.45 1.146-4.305c.403-.932-.325-2.934-1.819-5-5.915-8.178-10.945-22.408-12-33.945-.226-2.475-1.106-8.55-1.955-13.5-2.427-14.145-3.89-30.909-2.731-31.295.551-.184.771-.935.49-1.668-.282-.734-.059-1.615.496-1.958.646-.399.436-1.962-.583-4.351-.875-2.05-1.937-5.303-2.36-7.228-.424-1.925-1.484-5.975-2.357-9-.873-3.025-1.788-6.964-2.034-8.753-.246-1.79-1.152-4.739-2.014-6.555-1.63-3.436-1.553-13.083.118-14.712.472-.461 2.433-1.022 4.358-1.249l3.5-.411-3.857-.16c-3.072-.127-3.733-.482-3.25-1.742.334-.87.607-2.445.607-3.5 0-1.184.692-1.918 1.809-1.918 2.796 0 5.277-2.289 5.731-5.286.815-5.389 1.207-7.283 2.397-11.591 1.314-4.759.905-5.65-3.04-6.624-2.504-.618-2.627-.442-3.265 4.68-1.909 15.344-4.244 19.908-4.769 9.321-.225-4.538-1.158-6.795-3.975-9.612-1.079-1.079-1.693-2.395-1.365-2.924.327-.53-.162-.964-1.086-.964-1.357 0-1.449-.281-.477-1.452 1.721-2.074.331-5.527-2.277-5.656-9.954-.492-11.182-.346-10.906 1.302.152.91-.186 1.941-.75 2.29-.577.356-1.027-.279-1.027-1.45 0-2.669-2.69-3.667-11.349-4.211-6.57-.413-6.895-.326-7.963 2.123m26.528 20.797c.061 2.066-.708 5.557-1.709 7.757-2.87 6.307-3.765 20.203-2.157 33.5.299 2.475.489 13.5.421 24.5-.176 28.785.469 41.879 2.163 43.92.503.607 1.498 4.81 2.211 9.341.842 5.349 1.745 8.239 2.576 8.239.703 0 1.306.563 1.338 1.25.032.688.272 3.05.533 5.25s.572 8.39.691 13.755c.183 8.234.451 9.656 1.717 9.122.825-.348 3.637-1.473 6.25-2.501l4.75-1.868v2.996c0 2.185-.474 2.997-1.75 3-2.615.006-11.548 3.39-11.922 4.516-.28.841 8.562 1.091 20.805.588 3.601-.148 3.911-2.254 1.601-10.858-1.748-6.508-2.199-7.25-4.408-7.25-1.97 0-2.339-.382-1.853-1.916.335-1.054.14-2.205-.432-2.559-.573-.354-1.041-2.641-1.041-5.084 0-2.443-.472-4.441-1.049-4.441-.623 0-.957-2.026-.823-4.979.189-4.133-.168-5.321-2.103-7-1.282-1.111-1.823-2.021-1.203-2.021 1.081 0 .782-4.382-.546-8-.535-1.457-.813-6.026-1.25-20.5-.231-7.663-1.787-18.849-3.061-22-.444-1.1-.806-2.675-.804-3.5.002-.825-.515-6-1.149-11.5-.635-5.5-1.115-11.238-1.067-12.75.048-1.512-.329-2.75-.837-2.75-1.549 0-.511-12.937 1.857-23.157 1.574-6.789 1.947-10.178 1.258-11.41-.907-1.619-1.07-1.588-2.14.411-.937 1.752-1.413 1.927-2.495.916-1.107-1.034-1.012-1.475.555-2.573 1.951-1.366 1.572-3.616-.485-2.875-.637.23-1.922.025-2.855-.454-1.458-.749-1.682-.341-1.587 2.885m93.438 1.798c.325.847.199 1.469-.281 1.381-2.497-.455-3.756.269-1.873 1.078 1.908.82 1.897.863-.25.93-1.238.038-2.25-.431-2.25-1.043 0-.691-1.235-.927-3.25-.622-1.788.27-4.402-.096-5.809-.814-2.918-1.488-5.534-.438-4.65 1.865.323.842-.057 1.764-.854 2.07-.79.303-1.437 1.031-1.437 1.618 0 .712.748.663 2.25-.147 2.838-1.529 6.702-1.748 6.902-.39.633 4.293 1.832 6.533 3.497 6.533 3.277 0 4.038 2.234 1.643 4.819l-2.298 2.48-1.988-2.293-1.989-2.292-1.553 3.893c-2.556 6.404-3.718 8.354-4.639 7.785-.481-.298-.751-.001-.6.659.151.659-.175 1.366-.725 1.57-.597.221-1.083-2.512-1.205-6.78-.19-6.66-1.368-10.102-2.923-8.546-1.242 1.242-1.616 10.566-.547 13.633 1.076 3.088-.44 4.99-4.529 5.679-1.21.203-3.682-5.527-4.171-9.666-.069-.582-.528-.81-1.021-.505-1.093.675-.008 5.673 2.402 11.064.983 2.2 1.92 4.675 2.083 5.5.162.825 1.971 2.913 4.02 4.64 3.246 2.736 4.088 3.013 6.558 2.152 3.212-1.12 3.839-3.792.889-3.792-1.07 0-3.192-1.073-4.716-2.384l-2.771-2.383 3.346-2.035c1.84-1.119 3.915-1.817 4.609-1.55.695.266 4.124-1.471 7.62-3.862 3.496-2.39 7.818-4.949 9.606-5.687 1.788-.738 3.25-1.737 3.25-2.22 0-.484 1.098-.879 2.441-.879 1.343 0 2.71-.435 3.039-.967.329-.532 2-.687 3.714-.344 2.046.409 2.896.265 2.473-.42-.355-.573.025-1.598.844-2.278 2.944-2.444 1.771-5.838-3.201-9.262-2.58-1.776-6.142-4.692-7.917-6.479-3.539-3.565-4.645-4.071-3.739-1.709M311.661 136.5c.343 7.15.588 13.779.545 14.73-.116 2.548 1.32 3.023 6.849 2.262l4.963-.682-2.876-3.655c-4.337-5.512-7.163-11.688-8.711-19.036-1.385-6.571-1.39-6.524-.77 6.381m-76.806 1.171c-3.404 3.897-4.052 6.209-2.4 8.569.85 1.213 1.552 1.767 1.56 1.233.034-2.153 2.068 2.437 4.111 9.277 1.191 3.988 2.523 7.25 2.961 7.25 1.827 0 1.958-2.316.365-6.486-.932-2.441-1.4-5.207-1.04-6.146.361-.94.193-1.994-.373-2.344-1.223-.756-1.588-4.874-.631-7.109.395-.922-.081-2.525-1.138-3.829-1.751-2.163-1.875-2.178-3.415-.415m152.704 6.579c.382 1.238 1.343 3.524 2.135 5.081.902 1.771 1.347 5.138 1.189 8.996-.267 6.544.732 7.557 5.344 5.426 1.927-.891 1.715-7.559-.421-13.253-2.268-6.046-9.989-11.898-8.247-6.25m-249.769 8.148c-4.79 1.204-8.913 2.394-9.161 2.645-.249.251-.632 9.066-.851 19.589l-.399 19.131 5.06 2.255c2.784 1.24 6.598 2.306 8.477 2.369 1.879.062 3.596.65 3.815 1.307.219.656 1.09.928 1.935.604.845-.324 1.828-.142 2.185.406.834 1.279 14.975 4.104 24.461 4.888 5.969.493 7.647.306 8.946-.993.879-.879 2.081-1.599 2.671-1.599.589 0 1.071-.675 1.071-1.5s-.515-1.388-1.144-1.25c-.63.137-1.543-1.213-2.029-3s-1.321-3.25-1.856-3.25c-.534 0-.971-.981-.971-2.179s-.503-3.57-1.118-5.27c-.867-2.4-.769-4.766.438-10.571 1.773-8.521 1.595-8.974-7.644-19.457-4.665-5.292-5.256-5.367-10.808-1.36-1.632 1.178-3.117.716-11.868-3.693-2.103-1.059-3.884-.912-11.21.928m224.42 3.244c-1.259 1.178-3.284 2.188-4.5 2.245-7.265.339-9.271.764-9.797 2.074-.421 1.046-2.335 1.484-6.742 1.542-3.673.048-6.661.609-7.413 1.391-1.033 1.077-.517 1.191 2.889.638 2.281-.37 4.393-.276 4.693.209.66 1.068 5.232.802 8.66-.502 1.375-.524 3.125-.733 3.889-.466.809.283 1.113.04.729-.583-.369-.596.122-1.113 1.11-1.168l5.557-.31c2.082-.117 4.195-.874 4.695-1.683.501-.809 1.26-1.122 1.687-.696.426.427.113 1.194-.696 1.706-1.234.78-1.189.933.279.946 2.179.019 2.207.701.116 2.792-2.388 2.387.081 2.822 3.416.602 2.265-1.509 2.424-1.87.956-2.17-.969-.198-1.551-.703-1.292-1.121.258-.418-.974-2.297-2.738-4.174L364.5 153.5l-2.29 2.142m-240.71 1.042c-1.1.249-3.418 1.096-5.151 1.884-1.733.788-3.598 1.432-4.143 1.432-1.984 0-2.121 3.251-.641 15.258 1.702 13.816 3.108 16.328 9.739 17.404l3.696.6v-18.631c0-10.247-.338-18.579-.75-18.515-.412.064-1.65.319-2.75.568M41 159.481c0 .814-1.125 1.763-2.5 2.108-2.809.705-2.934 1.307-1.415 6.777 1.214 4.375.468 9.094-1.269 8.02-.686-.424-.847-.245-.411.459.392.635.214 1.155-.396 1.155-.695 0-.997 1.722-.809 4.614.262 4.027.009 4.723-1.988 5.482-2.502.949-2.67.714-3.641-5.096-.65-3.892-3.791-6-8.942-6-1.634 0-3.86-.787-4.946-1.75-1.455-1.289-2.091-1.419-2.415-.494-.241.691-.85 1.002-1.353.691-1.576-.974-.235 10.566 1.42 12.221 1.318 1.318 8.871 2.292 10.6 1.367 1.555-.833 2.116-.447 3.456 2.377 2.664 5.613 7.889 5.505 9.222-.191.351-1.496 1.962-7.377 3.58-13.067 2.796-9.829 2.857-10.442 1.22-12.25-1.642-1.814-1.624-1.904.365-1.904 1.673 0 2.071-.597 2.003-3-.084-2.954-1.781-4.402-1.781-1.519m98.75 3.684c-2.062 1.117-3.75 2.662-3.75 3.433 0 .771-.405 1.402-.9 1.402s-.871 2.25-.835 5c.036 2.75.516 5 1.067 5 .551 0 .747.254.436.565-1.223 1.223 3.708 5.079 5.429 4.245 1.134-.551 1.97-.333 2.524.657.707 1.263 1.207 1.283 3.415.137 2.053-1.065 3.291-1.099 6.004-.167 8.819 3.032 15.644-4.269 13.343-14.273-.806-3.503-2.941-5.106-4.595-3.452-.637.637-2.966-.012-6.683-1.863-6.668-3.321-10.291-3.481-15.455-.684m-84.689 4.252c-2.886 5.068-7.095 16.382-7.349 19.754-.073.977-.714 1.999-1.423 2.272-1.468.563-1.773 3.557-.362 3.557.509 0 1.132-.787 1.384-1.75.353-1.351.483-1.251.573.441.256 4.827 2.742 3.274 8.43-5.264 1.763-2.648 2.666-5.272 2.581-7.5-.176-4.555.683-13.033 1.521-15.01 1.695-4.003-2.729-1.111-5.355 3.5M334.362 183.5c.391 1.02-.054 1.5-1.393 1.5-1.321 0-1.969.678-1.969 2.059 0 1.158.451 1.78 1.03 1.423.647-.4.973.787.877 3.191-.139 3.468.56 8.127 1.336 8.903.168.168 2.311-.592 4.763-1.69 2.781-1.245 4.59-1.599 4.809-.941.533 1.598 2.185 1.262 2.185-.445 0-.825.45-1.5 1-1.5s1-1.379 1-3.065c0-2.177.868-3.795 3-5.588 3.654-3.075 3.857-4.744.5-4.102-1.375.263-2.5.09-2.5-.384 0-.473-.477-.861-1.059-.861s-.827.375-.544.833c.283.459-.028.876-.691.927-.663.051-3.343.282-5.956.513-3.524.312-4.75.073-4.75-.926 0-.741-.498-1.347-1.107-1.347s-.848.675-.531 1.5M74.101 223c-.102 13.75.149 25 .559 25 .41 0 2.172-1.383 3.916-3.074 2.529-2.451 4.622-3.318 10.32-4.279 4.597-.774 6.808-1.551 6.197-2.175-.523-.535-1.095-1.61-1.272-2.389-.176-.779-1.061-2.194-1.966-3.144-.904-.95-2.118-3.936-2.697-6.636-1.31-6.111-8.552-21.557-9.633-20.548-.44.41-.576.07-.304-.755.506-1.538-2.728-7-4.146-7-.433 0-.872 11.25-.974 25m269.525-21.25c.399 1.242.296 1.38-.355.477-.735-1.02-1.647-.968-4.594.264-3.58 1.495-4.872 3.944-2.5 4.735.69.23.845.929.375 1.69-.654 1.059-.953 1.053-1.623-.03-1.259-2.038-1.884-.705-2.169 4.629-.225 4.219.049 5.027 2.053 6.051 1.272.65 2.285 1.463 2.25 1.808-.405 4.023.155 7.632 1.187 7.658 2.856.072 4.823 2.647 3.892 5.094-.496 1.306-.932 2.599-.969 2.874-.036.275-.765 2.173-1.62 4.218-1.903 4.554-1.914 4.858-.152 4.181.771-.295 1.641-1.451 1.933-2.569.292-1.117.997-1.744 1.566-1.392 1.107.684.454 5.821-1.133 8.919-.583 1.137-.594 2.216-.028 2.782 1.227 1.227 6.109-3.686 6.936-6.979.348-1.39 1.237-3.682 1.973-5.093 1.868-3.579 1.681-8.593-.398-10.686-1.506-1.517-1.714-3.457-1.491-13.909.227-10.671.031-12.408-1.617-14.309-2.258-2.603-4.298-2.843-3.516-.413M163 251.826c0 3.783.512 5.306 2.369 7.051l2.368 2.225 4.436-2.156c4.208-2.044 4.434-2.368 4.382-6.3-.055-4.136-.066-4.148-4.555-4.822-9.058-1.36-9-1.386-9 4.002m-75.863 3.347c-.075.92-1.6 3.14-3.387 4.933l-3.25 3.26-.345-4.433c-.343-4.416-.352-4.402-2.371 3.567-1.115 4.4-2.391 8.232-2.836 8.516-.445.284-.992 2.796-1.216 5.582-.223 2.786-.731 5.591-1.128 6.234-.397.642-.245 1.168.337 1.168.582 0 1.059.792 1.059 1.76s1.237 3.101 2.75 4.739l2.75 2.978.918-4.738c.546-2.822 1.456-4.739 2.25-4.739.732 0 1.332-.675 1.332-1.5 0-3.337 3.587-.992 4.589 3 1.227 4.886 3.128 6.065 3.925 2.434.594-2.701.983-2.984 3.384-2.456l2.713.596-.754-6.787c-.415-3.733-.777-9.15-.806-12.037-.029-2.996-.506-5.25-1.11-5.25-.582 0-.806.409-.497.91.799 1.292-.474 4.189-1.549 3.525-.492-.304-.902.036-.91.756-.011.951-.281.899-.985-.191-.772-1.194-.985-.99-1.048 1l-.079 2.5-1.057-2.5c-.582-1.375-1.392-5.2-1.8-8.5-.408-3.3-.804-5.247-.879-4.327M108 260.05c0 2.227.655 5.316 1.456 6.865.801 1.549 1.687 3.889 1.969 5.2 2.795 13.004 5.526 15.147 13.625 10.694 5.636-3.098 5.95-3.47 5.95-7.04 0-2.684-.432-3.769-1.5-3.769-.825 0-1.5-.873-1.5-1.941 0-2.416-1.692-3.559-3.297-2.228-2.15 1.785-4.699-1.138-4.743-5.441l-.04-3.89-1.492 2.75c-2.73 5.032-8.048 3.305-7.608-2.471.146-1.91-.263-2.779-1.304-2.779-1.105 0-1.516 1.098-1.516 4.05m93.66-.139c-2.661 1.518-5.136 3.217-5.5 3.775-.363.558-1.672 1.548-2.91 2.199-2.223 1.171-3.187 5.115-1.25 5.115.55 0 1 .675 1 1.5s.675 1.5 1.5 1.5 1.5.45 1.5 1 .436 1 .969 1c.532 0 .709-.675.393-1.5-.437-1.139.187-1.5 2.59-1.5 1.741 0 2.917-.403 2.613-.895-.305-.493.09-1.142.876-1.444.786-.302 1.648-.011 1.915.645.351.861.508.872.565.038.043-.636.866-.975 1.829-.753 5.361 1.236 6.801-10.108 1.585-12.484-1.336-.609-2.52-1.073-2.632-1.032-.112.041-2.381 1.317-5.043 2.836m38.59 20.751c-1.55.626-1.744 17.909-.245 21.851.892 2.347 1.369 2.566 4.25 1.95 5.491-1.174 5.745-1.774 5.745-13.585V280l-4.25.079c-2.338.043-4.812.306-5.5.583m-23.75 1.923c-1.1.171-5.982.604-10.848.961-9.694.712-9.263.276-7.116 7.204.488 1.576.288 2.25-.669 2.251-.881.001-1.464 1.419-1.64 3.988-.264 3.841-.092 4.086 4.735 6.748 5.163 2.848 6.552 4.472 3.038 3.553-1.615-.423-2-.031-2 2.034 0 1.407-.45 2.836-1 3.176-3.924 2.425 1.82 4.737 6.091 2.451 1.349-.722 4.206-.735 9.184-.042 4.58.637 7.347.655 7.558.048.53-1.52 2.167-1.11 2.167.543 0 .825.727 1.5 1.617 1.5 1.083 0 1.456-.613 1.13-1.858-.267-1.022-.092-2.562.39-3.422.595-1.063.312-2.133-.881-3.336-1.667-1.682-1.667-1.739-.006-1.109.963.364 1.75.388 1.75.054 0-.335-.787-1.185-1.75-1.889-1.495-1.094-1.737-2.895-1.658-12.36l.093-11.08-4.093.136c-2.25.075-4.992.277-6.092.449m65.75.056c-.743.312-1.25 2.395-1.25 5.133 0 4.157.135 4.424 1.376 2.727 1.304-1.784 1.462-1.715 3.026 1.309.907 1.754 1.225 3.19.707 3.19-.518 0-1.115-.517-1.326-1.15-.211-.633-.952-.96-1.648-.728-.916.305-.726 1.043.685 2.67 1.66 1.914 2.041 2.013 2.558.665.705-1.836 2.458-1.052 3.442 1.538.544 1.432.915 1.536 1.855.52.911-.985.635-2.066-1.229-4.81-1.681-2.473-2.336-4.694-2.176-7.372.206-3.439-.027-3.853-2.27-4.026-1.375-.106-3.062.044-3.75.334M294 300.417c0 .779-.41 1.566-.911 1.75-.501.183-1.058 2.092-1.238 4.242-.308 3.67-.039 4.109 4.398 7.167 2.6 1.791 6.645 3.69 8.989 4.218 2.344.529 5.05 1.29 6.012 1.691 1.243.518 1.75.264 1.75-.878 0-.891-.816-1.607-1.831-1.607-1.007 0-2.407-1.075-3.11-2.39-.704-1.314-2.355-2.965-3.669-3.669-1.315-.703-2.39-2.013-2.39-2.91 0-2.144-1.917-4-3.503-3.392-.736.283-1.701-.787-2.326-2.578-1.126-3.23-2.171-4.022-2.171-1.644m-182.481 7.553c-1.278 2.067.617 7.135 3.089 8.261 1.672.762 2.247 1.651 1.858 2.876-.439 1.383.26 1.999 3.18 2.806 4.856 1.341 5.506.613 1.22-1.368-3.017-1.394-3.081-1.501-.616-1.031 3.228.615 3.229.606.876-6.514-1.712-5.179-2.027-5.518-5.379-5.805-1.959-.167-3.861.181-4.228.775m-24.582 10.228c-1.93 5.838 1.725 22.584 4.094 18.753.523-.848 1.025-.674 1.741.606.842 1.505 1.55 1.641 4.367.837 3.151-.899 3.38-1.261 3.67-5.782.228-3.557-.166-5.36-1.5-6.864-1.316-1.484-1.468-2.159-.559-2.477.688-.241 1.25-1.102 1.25-1.913 0-.812-.403-1.227-.895-.923-.493.305-1.178-.183-1.524-1.084-.345-.9-.902-1.364-1.236-1.029-1.252 1.252-4.531-1.393-3.406-2.748.832-1.002.421-1.264-1.856-1.181-2.447.09-3.123.71-4.146 3.805M29.16 325.24c-1.692 1.692-1.453 4.086.34 3.398 2.05-.786 1.914-.251-1.182 4.632-1.475 2.326-3.388 6.078-4.25 8.336-.862 2.258-2.018 4.177-2.568 4.265-.55.087-1.468 1.549-2.04 3.249-.891 2.646-1.22 2.874-2.287 1.588-1.365-1.644-5.164-1.162-5.188.659-.009.623-.452.458-.985-.367-.533-.825-1.033-1.163-1.11-.75l-.28 1.5c-.077.413-.473 1.272-.879 1.91-.983 1.545.156 4.34 1.769 4.34.707 0 1.542.667 1.855 1.483.324.844 1.232 1.229 2.107.893.883-.339 1.538-.053 1.538.672 0 .848.635.687 1.934-.488 1.876-1.698 1.943-1.64 2.25 1.954l.316 3.705 7-7.136 7-7.136-.288-6.223c-.366-7.926-2.282-20.649-3.194-21.213-.384-.237-1.22.091-1.858.729m26.879 11.463c-2.222 1.994-4.039 4.226-4.039 4.961 0 .735-.45 1.336-1 1.336s-.968 1.238-.93 2.75c.064 2.473.163 2.549.993.75.668-1.448.825-.619.567 3-.254 3.556.456 7.454 2.458 13.5 3.078 9.299 4.595 22.373 4.124 35.568-.326 9.151-3.612 14.696-8.404 14.18-2.287-.246-2.307-.152-2.219 10.461.057 6.968-.264 10.492-.92 10.086-.614-.379-.746.061-.339 1.123.369.96.706 2.721.749 3.914.054 1.486.258 1.696.65.668.314-.825.883-1.725 1.264-2 .381-.275 1.636-3.2 2.79-6.5 5.822-16.655 6.112-17.179 9.717-17.534 4.158-.409 5.332.113 6.263 2.784 1.027 2.947.705 4.536-4.308 21.25-2.405 8.02-2.874 11.447-3.01 22-.187 14.586-1.646 20.761-5.11 21.631-1.284.322-2.335 1.014-2.335 1.536 0 .523-.521.629-1.158.236-.793-.49-.98-.037-.593 1.44.31 1.185.148 2.412-.359 2.725-.508.314-.606 1.083-.218 1.71s.592 2.969.455 5.204c-.325 5.274 1.27 9.341 4.108 10.481 1.915.77 1.975.92.384.974-1.629.055-1.784.566-1.163 3.813.395 2.063.707 4.529.695 5.48-.033 2.41 1.385 3.034 2.858 1.259.68-.819.806-1.489.28-1.489s-.956-.682-.956-1.514c0-1.054.634-1.338 2.084-.935 1.387.386 1.656.282.806-.311-.923-.644-.21-1.411 2.569-2.763 5.095-2.478 8.088-8.542 4.832-9.791-1.444-.554-3.613 3.088-3.639 6.111-.01 1.224-.398 1-1.38-.797-1.259-2.306-1.14-2.714 1.531-5.25 1.592-1.512 3.515-2.75 4.273-2.75.757 0 1.648-.706 1.979-1.569.39-1.017 1.28-1.354 2.53-.957 1.698.539 1.991-.018 2.462-4.681 1.43-14.15 1.493-15.833.577-15.266-.526.325-.957 1.195-.957 1.934 0 1.3-5.206 3.861-7.75 3.813-4.67-.089-4.495.52-3.745-13.024.423-7.625 1.669-16.769 3.1-22.75 1.316-5.5 2.393-11.137 2.394-12.528 0-1.39.788-3.271 1.751-4.179 3.157-2.981 4.078-4.488 5.363-8.776.771-2.572 2.124-4.623 3.448-5.227 1.902-.866 2.269-2.086 2.874-9.543.432-5.32.321-8.78-.293-9.159-.543-.336-.831-2.293-.64-4.349.191-2.057-.042-3.739-.517-3.739-1.349 0-.633-4.982.847-5.896 1.05-.649 1.093-1.67.207-4.961-1.042-3.867-2.995-5.705-3.074-2.893-.02.688-.675.125-1.457-1.25-.781-1.375-1.202-3.234-.934-4.132.612-2.056-2.349-3.3-4.201-1.763-1.344 1.116-1.956-.937-1.448-4.855.09-.687-.307-1.25-.881-1.25-.574 0-1.044-.689-1.044-1.531 0-.843-.688-1.796-1.53-2.119-1.008-.387-1.326-1.314-.934-2.718.414-1.484.313-1.726-.331-.798-.746 1.074-1.051 1.009-1.566-.332-.905-2.359-.792-3.715.256-3.067 1.761 1.088 1.924-2.252.201-4.102-1.05-1.126-1.612-2.97-1.396-4.579.231-1.727-.354-3.408-1.631-4.685-1.989-1.989-1.998-1.987-6.03 1.634m379.682 9.547c-.246.688.194 2.518.977 4.068 2.111 4.179.935 5.713-1.427 1.861-2.189-3.571-3.511-4.152-3.871-1.702-.24 1.639 5.884 8.523 7.582 8.523.56 0 1.018.691 1.018 1.535 0 1.225-.404 1.319-2 .465-2.908-1.556-2.459.469.54 2.434 1.396.915 3.28 3.217 4.185 5.115.905 1.898 2.012 3.451 2.46 3.451 1.413 0 .889-2.091-1.185-4.727-1.1-1.399-1.993-3.27-1.985-4.158.012-1.182.229-1.28.809-.365.623.981 1.211.934 2.735-.218 1.738-1.315 1.76-1.472.21-1.5-1.006-.019-1.998-1.097-2.369-2.574-.632-2.518-6.234-13.458-6.892-13.458-.188 0-.542.563-.787 1.25M207 354.598c0 .549-1.425.976-3.167.95-1.741-.026-3.354.515-3.583 1.203-.265.794.161 1.028 1.166.643.871-.335 1.584-.115 1.584.487 0 .603.787 1.029 1.75.949 3.144-.264 5.25.153 5.25 1.039 0 .478-1.35.711-3 .519-1.65-.192-3 .092-3 .632 0 .539 1.77.98 3.933.98 2.907 0 4.081.469 4.503 1.799.443 1.396 1.356 1.707 4.081 1.389 1.931-.226 4.179.145 4.997.823 1.205 1 1.486.944 1.486-.295 0-1.561 9.447-3.603 10.731-2.319.331.332-.571.603-2.005.603-1.435 0-2.908.485-3.275 1.079-.747 1.209 4.519.632 8.62-.945 3.871-1.488-.032-2.506-7.138-1.862-3.263.296-6.184.131-6.492-.367-.517-.837.884-1.098 7.605-1.415 3.168-.149 4.954-1.206 4.954-2.932 0-1.603-5.116-2.777-6.45-1.481-1.199 1.165-4.55 1.21-4.55.062 0-.474-1.773-.388-3.941.191-2.168.578-3.712 1.423-3.431 1.877a.969.969 0 0 0 1.328.32c.449-.278 1.34.125 1.979.895 1.579 1.902-.152 2.821-3.093 1.643-1.288-.516-1.989-.967-1.557-1.002 2.262-.182-1.673-4.063-4.12-4.063-1.521 0-3.305-.54-3.965-1.2-.663-.663-1.2-.754-1.2-.202m255.183 37.619c-.722.722-1.183 4.439-1.183 9.542 0 4.798-.39 8.118-.915 7.794-.503-.311-1.178 0-1.5.691-.467 1.003-.703 1.004-1.168.006-1.127-2.415-2.417-1.214-2.417 2.25 0 1.925-.498 3.5-1.107 3.5s-.848-.675-.531-1.5c1.097-2.86-1.201-1.485-2.527 1.512-.734 1.656-2.009 3.226-2.834 3.489-.826.262-2.834 1.719-4.464 3.238-1.63 1.519-4.551 3.918-6.492 5.332l-3.528 2.571-.083 9.429c-.046 5.186-.458 10.753-.915 12.371l-.832 2.943-.945-2.443c-.882-2.282-1.026-2.13-2.193 2.324-1.324 5.055-2.549 7.17-2.549 4.401 0-2.56-1.513-1.995-4.237 1.583-3.501 4.598-4.465 7.918-2.078 7.163 3.925-1.242-8.758 8.819-18.631 14.78-12.498 7.545-16.054 9.214-16.054 7.536 0-.646-1.306.256-2.903 2.004-2.89 3.164-2.902 3.229-2.525 13.973 1.302 37.145 1.313 50.301.045 55.19-1.623 6.257-1.792 6.104 6.734 6.104 27.261 0 37.383 20.201 30.565 61-.605 3.625-.799 9.904-.437 14.196.437 5.182.261 8.449-.54 10-1.824 3.535-5.113 6.802-6.863 6.819-.867.008-2.701.664-4.076 1.457-1.375.793-3.472 1.885-4.659 2.426-2.03.924-2.127 1.484-1.615 9.293.299 4.57 1.127 9.463 1.838 10.873 1.828 3.62 2.691 13.616 1.635 18.936l-.893 4.5-.782-7.25c-.614-5.686-1.132-7.253-2.403-7.265-1.069-.01-1.23-.266-.471-.75 1.39-.889 2.074-6.254 1.016-7.967-.418-.676-1.031-5.064-1.362-9.75-.331-4.686-1.118-8.949-1.75-9.473-1.371-1.138-11.817-3.225-16.054-3.208-1.65.007-7.849-1.121-13.776-2.506-9.502-2.22-11.359-2.378-15.706-1.335-5.256 1.261-8.161.907-17.236-2.101-8.23-2.727-9.782-2.552-9.782 1.105 0 2-.5 3-1.5 3-1.006 0-1.5-1.006-1.5-3.052v-3.053l-5.239.303-5.239.302-.307 8.75c-.343 9.759-.502 9.582 7.04 7.83 5.929-1.377 5.381.617-.696 2.533-5.435 1.713-5.494 1.774-6.087 6.308-.983 7.512-1.228 7.855-1.484 2.079-.134-3.025-.462-6.625-.729-8-.268-1.375-.691-6.663-.941-11.75-.251-5.087-.874-9.25-1.387-9.25-.512 0-.931-.675-.931-1.5s-.589-1.5-1.31-1.5c-1.947 0-1.761 25.053.198 26.587 1.533 1.202.746 10.413-.889 10.413-1.97 0 .595 8.942 2.618 9.125 1.374.124 2.696.402 4.133.868.413.134 1.096.188 1.518.119.422-.068 2.414.564 4.427 1.405 2.575 1.076 3.86 1.204 4.337.432.464-.751 1.158-.616 2.204.429.839.84 1.818 1.235 2.174.879.933-.933 3.59-1.209 3.59-.372 0 .389 1.238.667 2.75.617 1.512-.05 4.135.267 5.828.703 1.693.437 4.393.982 6 1.211 1.607.229 4.497.911 6.422 1.515 1.925.604 6.087 1.14 9.25 1.191 3.163.051 5.75.398 5.75.77s3.387.614 7.526.538c7.233-.133 15.474 1.272 15.474 2.638 0 .36 1.238.457 2.75.215 2.221-.355 2.462-.221 1.25.699-1.166.886-.722.976 2 .404 1.925-.405 4.753-.77 6.286-.811 1.532-.041 3.212-.75 3.734-1.575.797-1.26.952-1.203.965.357.01 1.284.506 1.669 1.605 1.247.875-.336 2.019-.346 2.543-.022 2.132 1.318 11.717 1.251 12.23-.085.281-.732-.248-1.642-1.176-2.022-1.286-.526-.742-1.027 2.291-2.109 3.134-1.118 4.574-1.173 6.782-.258 2.815 1.166 4.24.695 4.24-1.4 0-1.21 8.57-3.295 17.5-4.257 3.025-.326 6.175-.839 7-1.14 4.084-1.487 10.245-1.392 9.654.149-.672 1.75 2.798 2.236 3.846.54.34-.55-.084-1-.941-1s-1.559-.477-1.559-1.059.449-.781.998-.442c.549.339 2.012-.539 3.25-1.953 1.4-1.597 4.174-3.017 7.332-3.754l5.08-1.185-1.31-8.053c-1.697-10.43-1.68-14.721.067-17.11 1.001-1.368 1.112-2.307.378-3.191-.725-.874-.691-1.673.112-2.641 1.203-1.45.57-8.644-1.036-11.781-.548-1.071-.435-1.81.317-2.06.762-.254.879-1.069.333-2.331-.461-1.067-.731-2.386-.599-2.931.955-3.959-.958-30.911-2.252-31.734-.838-.533-.781-.749.202-.76 1.068-.012 1.113-.328.202-1.426-.884-1.065-.888-1.586-.016-2.125.844-.521.789-.946-.201-1.574-1.138-.721-1.136-.862.015-.875.95-.01 1.073-.4.4-1.265-.535-.687-.912-3.871-.837-7.074.074-3.203-.266-6.071-.756-6.375-.491-.303-.282-.945.464-1.426 1.125-.726 1.101-1.043-.143-1.86-.825-.541-1.05-.998-.5-1.015.55-.017.325-.467-.5-1-.825-.533-1.05-.977-.5-.985.55-.009 1.065-1.141 1.144-2.516.08-1.374-.285-2.499-.809-2.499s-.61-.555-.191-1.232c.987-1.598 1.218-4.768.347-4.768-.372 0-.765-10.013-.874-22.25-.11-12.237-.884-28.1-1.721-35.25-.837-7.15-1.947-17.007-2.466-21.904-2.775-26.14-3.967-34.004-5.513-36.363-1.383-2.111-1.463-3.136-.494-6.369.841-2.809.857-4.406.06-5.896-1.163-2.173-.474-5.968 1.084-5.968.513 0 .933-.477.933-1.059s-.45-.781-1-.441-1.007.029-1.015-.691c-.013-1.059-.177-1.054-.862.026-.631.996-1.004.743-1.471-1-.961-3.591-.783-4.188.848-2.835 2.144 1.78 2.038-3.063-.169-7.714-1.402-2.955-1.46-3.85-.363-5.606.992-1.589 1.018-2.185.107-2.488-.879-.293-.814-.837.244-2.046 1.456-1.663 1.437-2.002-.856-15.646-.806-4.796-.79-4.773-2.28-3.283M.488 552c0 87.175.118 122.837.262 79.25.144-43.588.144-114.913 0-158.5C.606 429.162.488 464.825.488 552M385.5 420.104c-4.504 2.632-6.5 5.264-6.5 8.57 0 2.203.478 3.326 1.417 3.326.779 0 1.602.558 1.83 1.241.297.892.903.752 2.155-.5 1.953-1.953 3.724-2.215 5.172-.767 2.277 2.277 17.331.678 23.46-2.492 3.925-2.029 5.138-3.949 4.387-6.942-.625-2.489-1.012-2.647-6.293-2.574-3.096.042-9.678-.172-14.628-.477-6.005-.369-9.665-.164-11 .615m5.5 21.691c-3.745.561-4.025 1.188-4.346 9.721-.344 9.145-1.314 10.026-5.071 4.604-2.38-3.434-2.643-4.535-2.044-8.531l.688-4.589h-3.17c-3.142 0-3.157.024-1.724 2.75 1.803 3.428 3.667 15.313 3.667 23.377v6.09l2.75-.677c1.512-.373 7.741-3.089 13.842-6.036 12.235-5.91 18.937-11.941 21.284-19.152.69-2.119 1.508-4.478 1.819-5.243.77-1.895-3.028-.894-11.122 2.93-3.447 1.629-7.209 2.961-8.361 2.961-1.152 0-2.335.39-2.629.866-.568.919-5.359.33-5.98-.735-1.332-2.285-1.644-7.086-.432-6.641 1.313.483 4.711-1.06 3.8-1.725-.259-.19-1.596-.176-2.971.03M96 453.622c0 1.329-.271 1.398-1.5.378-1.26-1.046-1.509-.866-1.557 1.128-.032 1.304-.363 5.297-.736 8.872-.971 9.308-.863 23.002.181 22.909.489-.044 1.252.509 1.696 1.228 1.348 2.179 1.734-.588 2.18-15.637.229-7.7.083-12.875-.324-11.5-.686 2.315-.748 2.255-.84-.809-.06-1.972.304-3.059.9-2.691.583.361 1-.656 1-2.441 0-1.682-.225-3.059-.5-3.059s-.5.73-.5 1.622m173.605 3.964c-.334.872-.226 2.269.241 3.104.569 1.015-.125 3.316-2.098 6.958-2.56 4.728-4.579 13.323-5.072 21.602-.058.962-.514 1.75-1.015 1.75-.501 0-.637 1.372-.301 3.05.405 2.027.254 2.83-.452 2.393-.678-.419-.943.375-.735 2.201.52 4.543 2.213 3.005 3.655-3.32.73-3.203 2.193-8.822 3.252-12.486 1.058-3.665 1.622-7.451 1.252-8.415-.433-1.129-.288-1.514.41-1.083.673.417 1.904-1.882 3.26-6.085 1.199-3.715 2.61-7.277 3.137-7.916 1.118-1.355-.572-2.808-2.139-1.839-.55.34-1 .141-1-.441 0-1.63-1.711-1.254-2.395.527m-82.035 3.995c-2.162.791-4.637 1.228-5.5.97-.864-.258-2.275.074-3.136.74-1.926 1.487-5.119 11.012-4.89 14.586.092 1.443.064 2.848-.063 3.123-.863 1.871-.437 26.136.588 33.5.69 4.95 1.515 11.25 1.834 14 .32 2.75 1.015 7.025 1.545 9.5 1.419 6.62 1.21 9.173-.409 5-1.391-3.584-5.192-20.837-7.931-36-2.452-13.574-6.608-38.655-6.608-39.879 0-.617-.702-1.121-1.559-1.121s-1.335.362-1.061.806c1.179 1.907-16.335 8.582-20.257 7.721-2.252-.495-3.247-.188-4.308 1.327-1.184 1.69-2.443 1.947-8.848 1.808l-7.467-.162-.964-3.275c-.547-1.859-1.477-3.078-2.151-2.819-.653.251-1.491-.526-1.861-1.725-1.672-5.414-2.622 5.198-2.716 30.319-.054 14.575-.416 25.602-.803 24.504-.786-2.228-1.726 3.352-1.955 11.602-.118 4.268.114 4.724 3.161 6.208l3.289 1.601.5-3.708c.705-5.227 2.554-4.964 4.069.58.973 3.564 1.383 4.161 1.681 2.448.216-1.245.847-1.984 1.403-1.641.572.354.877-.181.703-1.235-.168-1.022.1-2.507.596-3.3.496-.792.844-3.492.773-6-.071-2.507.142-3.884.473-3.059.331.825 1.087 1.815 1.679 2.199.623.405 1.087 4.191 1.1 8.985l.023 8.286 4.5 2.206c5.935 2.91 7.998 2.929 8.009.074.004-1.237.3-4.679.656-7.648l.649-5.398-2.596.652c-1.427.358-2.875.2-3.216-.352-.376-.608.966-1.004 3.404-1.004 4.688 0 6.088 1.762 6.105 7.684.025 8.541 1.067 11.451 4.638 12.943 1.843.77 3.351 1.87 3.351 2.445 0 .576.45.768 1 .428s1-.115 1 .5.485.819 1.077.453c1.11-.687 10.026 2.27 10.932 3.625 1.785 2.668 3.426 1.043 4.621-4.578l1.276-6-.346 6.114c-.19 3.363.049 6.738.532 7.5.482.762.884 1.033.893.601.008-.432 1.027-.223 2.265.464 2.561 1.423 2.198 1.294 6.5 2.306 1.787.421 3.25 1.159 3.25 1.64 0 2.481 2 .389 2.579-2.696.369-1.965 1.81-4.926 3.202-6.58l2.531-3.009-.678-44.67c-.657-43.234-1.204-55.247-2.511-55.1-.343.039-2.392.719-4.553 1.511m92.131 4.919c-.918 1.925-2.084 3.5-2.591 3.5-.508 0-.704.835-.437 1.856.398 1.522-4.495 11.224-6.628 13.144-2.354 2.119-6.111 18.697-4.937 21.784.863 2.269.687 2.964-1.119 4.426-1.48 1.198-1.943 2.361-1.498 3.762.791 2.492 2.188 2.627 2.871.278.334-1.146.493-.887.463.75-.077 4.131.127 5 1.175 5 .55 0 1.059-1.462 1.132-3.25l.131-3.25.698 3.5c.557 2.798.855 3.143 1.486 1.72.522-1.176 1.428-1.577 2.672-1.182 1.671.53 1.77.3.882-2.035-1.491-3.921-1.252-7.503.499-7.503 1.109 0 1.5-1.161 1.5-4.451 0-2.448.647-6.836 1.437-9.75 1.702-6.275 5.409-19.503 6.221-22.2.449-1.492.2-1.759-1.158-1.237-1.539.59-1.656.164-1.054-3.849.814-5.428.459-5.634-1.745-1.013M93.508 499.963c-.358 1.63-.656 5.568-.663 8.75-.011 5.175-.135 5.523-1.179 3.287-.641-1.375-1.999-2.643-3.016-2.817-1.018-.174-1.579.123-1.247.66.332.537.314 1.73-.039 2.651-.512 1.334-.814 1.403-1.488.34-.59-.93-.84-.578-.829 1.166.016 2.452 2.223 6.397 3.092 5.527.243-.243.542.866.664 2.464.227 2.981 4.05 9.891 5.514 9.967.45.023.48-.971.068-2.208s-.647-2.925-.521-3.75c.494-3.25 1.146-29 .734-29-.242 0-.732 1.334-1.09 2.963m-36.869 23.731c-.351.352-.639 2.161-.639 4.02 0 2.371-.79 4.113-2.644 5.832-2.597 2.407-2.631 2.607-1.961 11.488.375 4.972 1.114 10.175 1.642 11.562.527 1.388 1.146 3.959 1.374 5.713.62 4.761 1.454 6.308 4.033 7.484 2.119.965 2.39.788 2.929-1.91.327-1.635 2.14-6.215 4.028-10.178 3.833-8.045 5.688-23.539 2.744-22.92-.746.157-1.963-.219-2.706-.836-.743-.617-1.841-.819-2.439-.449-1.949 1.205-4-1.647-4-5.563 0-3.692-1.041-5.563-2.361-4.243M84.638 539.5c-.316.825-.027 1.514.643 1.53.671.017.431.489-.531 1.05-1.766 1.029-3.952 4.65-5.144 8.523-.761 2.473 6.447 7.974 9.11 6.953.845-.325 2.155-.078 2.911.549 1.107.919 1.401.583 1.519-1.733l.433-8.64c.169-3.39-.097-5.53-.645-5.191-.514.317-.934.1-.934-.482S92.536 541 93.191 541s.321-.637-.744-1.415c-1.436-1.05-2.125-1.115-2.675-.25-.548.861-.745.839-.757-.085-.021-1.768-3.683-1.559-4.377.25m23.446 21.75c.13 9.572.084 9.972-1.084 9.25-.604-.374-1 1-1 3.472 0 2.993.47 4.257 1.75 4.711.963.342 2.537 1.297 3.5 2.124.963.827 1.791 1.321 1.842 1.098.05-.223.263-5.783.472-12.357.319-10.001.115-12.245-1.247-13.75-3.287-3.633-4.339-2.278-4.233 5.452m-36.842 2.5c-4.012 14.001-1.966 20.741 7.552 24.881 4.072 1.771 4.264 1.651 7.135-4.48l2.332-4.979-2.21-4.567C83.562 569.464 75.472 560 73.566 560c-.687 0-1.733 1.688-2.324 3.75m56.682-3.564c-.042.173-.273 7.289-.513 15.814s-.616 16.735-.836 18.245c-.219 1.51.011 2.999.513 3.309.502.31.912 1.858.912 3.44 0 4.105 1.693 8.006 3.475 8.006 1.816 0 2.085-1.986.275-2.032-.741-.019-.509-.594.569-1.411 1.741-1.319 1.73-1.407-.25-2.035-1.138-.361-2.069-1.076-2.069-1.589 0-1.684 3.652-.975 5.5 1.067 1.026 1.134 1.31 2 .655 2-.635 0-1.148.788-1.14 1.75.013 1.493.156 1.53.97.25.757-1.19 1.34-1.261 2.824-.342 4.063 2.517 4.857-.175 4.099-13.908-.231-4.194-.243-4.178-.908 1.25l-.674 5.5-.163-5.191c-.09-2.855-.536-5.422-.992-5.703-.456-.282-.764-2.446-.685-4.809.08-2.364-.103-4.747-.405-5.297-.738-1.341-.811-1.841-.956-6.559-.075-2.425-.528-3.81-1.125-3.441-.559.346-1-.428-1-1.757 0-1.729-1.087-2.986-4-4.623-2.2-1.236-4.034-2.107-4.076-1.934m19.444 9.027c-.361.584-.615 6.625-.566 13.424.05 6.8-.303 12.363-.785 12.363-.89 0-.571 5.08.94 15 .884 5.8.456 7.5-1.885 7.5-1.918 0-3.431 5.653-1.792 6.694 1.883 1.197 3.931.957 3.115-.364-.483-.782-.182-.962.909-.544.898.345 1.886.216 2.196-.286.31-.502 1.262-.645 2.116-.317.937.36 1.143.848.521 1.233-.656.405-.692 1.173-.1 2.11.771 1.22.935 1.153.948-.383.01-1.237.516-1.665 1.515-1.281.914.35 1.5.001 1.5-.893 0-1.743.491-1.812 3.066-.434 1.422.761 1.934.712 1.934-.187 0-.672 1.262-.013 2.805 1.465 1.542 1.478 3.399 2.687 4.126 2.687 1.491 0 16.1-8.797 20.338-12.246l2.77-2.254-1.222-12.609-1.222-12.609-4.302-2.283c-3.415-1.811-4.07-2.563-3.175-3.641 1.415-1.705-.256-1.794-2.043-.108-1.06 1-1.417 1-1.783 0-.252-.687-1.546-1.25-2.875-1.25-2.31 0-2.417.29-2.417 6.559 0 4.426-.35 6.343-1.076 5.894-.591-.365-.978-2.304-.86-4.309.469-7.939.029-9.98-2.314-10.72-1.238-.391-6.182-2.637-10.988-4.991-5.569-2.729-8.976-3.896-9.394-3.22m73.664 8.537c-.018 1.237-.432 2.25-.922 2.25-2.392 0-3.026 39.418-.672 41.772 3.042 3.041 6.116-40.336 3.139-44.272-1.496-1.977-1.514-1.974-1.545.25m127.436 9.795c-.826 9.918-1.028 9.528 5.214 10.075 21.532 1.887 20.295 2.081 18.407-2.885-.598-1.575-2.543-3.018-5.677-4.215-2.621-1.002-6.324-2.878-8.229-4.17-1.904-1.293-3.777-2.35-4.162-2.35-.385 0-1.213-1.125-1.839-2.5-1.987-4.362-2.982-2.743-3.714 6.045M57.996 585.25c-.002 1.237-.895 3.712-1.985 5.5-1.129 1.852-1.505 3.25-.874 3.25.75 0 .705.485-.137 1.5-.795.958-3.007 1.5-6.122 1.5-3.669 0-4.878.372-4.878 1.5 0 2.195-3.774 1.835-5.232-.5-1.441-2.308-6.276-2.725-7.087-.612-.293.763-.825 6.276-1.183 12.25-.358 5.974-.909 11.537-1.225 12.362-1.496 3.912-1.128 5.027 2.466 7.469 3.628 2.465 3.736 2.478 4.458.529.874-2.365 2.358-2.599 3.164-.5.316.825 3.042 2.59 6.057 3.924 3.016 1.333 8.269 4.057 11.675 6.053 4.035 2.365 6.752 3.37 7.8 2.884 1.805-.837 2.834-1.077 5.332-1.244 1.359-.091 1.627-.804 1.265-3.365l-.46-3.25 1.104 3.162c1.009 2.887 1.527 3.19 5.986 3.5 2.685.186 4.881.001 4.881-.412-.001-.413-.382-.75-.849-.75-.466 0-3.053-1.999-5.75-4.442-4.129-3.742-5.009-4.175-5.582-2.75-.565 1.407-.691 1.336-.75-.421-.039-1.187-2.275-4.176-5.102-6.821-8.762-8.195-12.753-16.902-6.895-15.043 6.541 2.076 9.1-7.724 4.423-16.942-1.373-2.706-2.496-6.194-2.496-7.75 0-1.557-.45-2.831-1-2.831s-1.002 1.013-1.004 2.25M392 584.282c1.167.948 1.436 3.12 1.212 9.784-.252 7.472-.018 8.911 1.83 11.26 3.469 4.411 4.246 2.434 3.753-9.546-.482-11.679-.976-12.765-5.795-12.733-2.12.014-2.272.202-1 1.235M88.597 596.455c-2.764 5.266-3.931 8.763-4 11.989-.094 4.435-.914 5.836-1.935 3.306-.277-.687-.508-.35-.513.75-.005 1.1.378 2.9.851 4 .832 1.935.862 1.937.93.061.067-1.842.171-1.829 2.109.25 4.059 4.357 9.865.996 15.219-8.811 2.771-5.076 4.21-10 2.922-10-.473 0-1.436-1.237-2.141-2.75-1.203-2.579-1.333-2.625-2.091-.75-.766 1.899-.811 1.886-.878-.25-.038-1.237-.552-2.25-1.141-2.25-.59 0-1.747-.675-2.572-1.5-2.281-2.281-2.568-2.029-6.76 5.955m-15.061 11.553c-2.18 1.015-4.318 1.627-4.75 1.36-1.835-1.135-.591 5.54 1.464 7.853C73.506 620.885 82 625.41 82 623.48c0-.814-.498-1.48-1.107-1.48s-.829-.724-.49-1.609c.708-1.844-1.277-14.432-2.256-14.31-.356.044-2.431.911-4.611 1.927m36.013 9.242c-.965 2.337-2.158 5.031-2.652 5.986-1.37 2.653-1.069 5.764.559 5.764.8 0 3.113 1.125 5.139 2.5 2.026 1.375 4.767 2.5 6.09 2.5 2.22 0 2.359-.289 1.803-3.75-.479-2.978-.375-3.39.504-2 1.359 2.147 2.606 2.239 3.371.247.356-.929-.75-2.71-2.893-4.661-1.909-1.736-3.47-3.699-3.47-4.36 0-1.286-4.796-6.476-5.984-6.476-.392 0-1.502 1.913-2.467 4.25m233.555 10.402c-.767.867-2.283 3.412-3.367 5.657l-1.973 4.082 2.229 1.804c1.319 1.069 3.863 1.805 6.234 1.805 3.667 0 3.955-.191 3.403-2.25-.331-1.237-.609-4.612-.616-7.5-.013-4.785-.213-5.247-2.264-5.212-1.238.021-2.878.747-3.646 1.614M28 633.514c0 .832.536 2.372 1.192 3.421.886 1.419.914 2.813.11 5.434-1.445 4.706-.172 16.394 2.877 26.416.936 3.077 1.231 3.254 4.66 2.789 3.76-.509 13.691 1.562 12.621 2.633-.628.627 8.293 2.793 11.506 2.793 1.027 0 2.029.485 2.226 1.077.198.593 3.273 1.702 6.834 2.465 7.161 1.535 9.622 1.773 8.688.839-2.804-2.805 8.399-3.996 13.236-1.408 2.095 1.121 11.869 2.842 20.05 3.53l6.5.546-12-6.3c-6.6-3.465-14.3-7.751-17.111-9.524-2.81-1.774-5.623-3.225-6.25-3.225-.626 0-1.139-.47-1.139-1.044 0-.574.645-.911 1.434-.75.789.162 1.426-.106 1.415-.594-.044-1.976 2.657-2.394 5.096-.789 1.405.925 4.693 2.797 7.305 4.159 2.613 1.362 4.75 2.789 4.75 3.172 0 1.031 13.762 9.169 19.29 11.407 3.614 1.463 4.681 2.369 4.344 3.689-.38 1.49.283 1.75 4.46 1.75 4.205 0 4.906-.28 4.906-1.959 0-3.544-3.438-8.802-6.989-10.688-5.277-2.803-9.093-6.855-9.327-9.904-.18-2.343-.853-2.901-4.697-3.898-5.665-1.469-12.11-4.544-11.521-5.496.247-.399-.995-1.493-2.759-2.431-5.08-2.702-7.369-4.099-9.177-5.599-1.362-1.13-1.835-1.15-2.481-.104-.563.91-1.001.965-1.483.186-.376-.609-.32-1.121.125-1.137.445-.017-.053-.531-1.107-1.143-3.241-1.881-10.851-1.417-11.596.707-.581 1.655-.696 1.668-1.282.143-.406-1.059-1.76-1.677-3.675-1.677-3.937 0-3.812.978.481 3.759 1.919 1.243 3.488 2.93 3.488 3.75 0 .82.648 1.491 1.441 1.491s1.719.45 2.059 1c.352.569-.509 1-2 1-1.44 0-2.391-.367-2.113-.817.277-.449-.821-1.599-2.441-2.556-2.601-1.536-4.48-.693-1.946.873.55.34 1 1.27 1 2.067 0 1.197-.347 1.233-1.988.208-2.132-1.331-5.158-6.73-4.431-7.906.557-.902-9.612-7.108-17.004-10.378-6.483-2.866-7.259-3.018-5.672-1.105 1.665 2.006-3.999 1.437-7.313-.734-3.137-2.055-4.592-2.099-4.592-.138M136.578 636c-1.281 1.375-2.122 3.063-1.87 3.75.252.688-.029 1.25-.625 1.25-.595 0-1.083.375-1.083.833 0 .458 1.012.741 2.25.629 1.238-.112 2.126-.747 1.974-1.411-.154-.674.493-1.06 1.464-.873 1.067.206 2.081 1.775 2.621 4.06.75 3.173 1.254 3.693 3.405 3.515 2.855-.236 4.246-2.542 2.27-3.763-1.045-.646-.975-1.142.346-2.463.91-.91 2.061-1.403 2.558-1.097 1.397.864 2.147-2.161.803-3.234-.655-.523-2.21-1.264-3.456-1.646-1.245-.382-2.055-1.032-1.8-1.445 1.306-2.113-6.724-.395-8.857 1.895M183 640.039c-6.182 3.328-8.506 3.666-9.761 1.423-.665-1.187-1.416-1.315-3.3-.563-1.341.536-1.951 1.003-1.356 1.038 2.504.146.799 3.338-2.75 5.148-2.108 1.076-3.833 2.569-3.833 3.319 0 .749-.945 1.61-2.101 1.912-1.156.303-1.804 1.029-1.441 1.617.363.587.183 1.067-.399 1.067-2.869 0-.494 1.767 3.883 2.888 4.47 1.146 8.971 4.112 6.239 4.112-.584 0-1.36-.481-1.724-1.069-.363-.588-2.546-.954-4.85-.812-2.304.142-4.763-.097-5.464-.531-.702-.433-1.542-.522-1.868-.197-.325.325-1.149.128-1.832-.438-2.227-1.849-8.901-.532-9.253 1.826-.171 1.142-.938 2.597-1.706 3.234-1.593 1.322-3.848.384-2.872-1.194.354-.573.024-1.435-.734-1.915-2.108-1.336-2.737-1.079-2.218.905.533 2.037-4.123 4.869-5.183 3.153-.327-.529-1.242-.962-2.032-.962s2.643 3.938 7.63 8.75c9.31 8.985 11.726 10.779 10.616 7.886-.346-.9-.217-1.636.286-1.636 1.395 0 .455-8.32-1.498-13.25-.827-2.088 1.088-2.276 6.865-.672 4.496 1.249 5.226.856 3.702-1.992-1.541-2.879-.253-2.619 2.148.434 2.206 2.805 6.801 5.48 9.411 5.48 1.588 0 1.592-.125.05-1.829-2.184-2.413-2.088-3.171.404-3.171 1.302 0 1.797-.425 1.346-1.155-.464-.75-.272-.881.547-.374.961.594 1.098.035.575-2.346-.631-2.873-.477-3.125 1.907-3.125 1.426 0 3.419.516 4.429 1.146 4.834 3.019 9.369-1.775 7.164-7.574-1.811-4.765-.213-4.172 1.873.695 1.073 2.502 2.71 4.975 3.639 5.495 2.063 1.154.708 4.413-3.323 7.993-2.939 2.61-2.396 3.608 2.12 3.897 1.773.113 5.236.907 7.694 1.763 6.203 2.159 6.97 2.017 6.97-1.293 0-4.251-2.619-9.766-5.613-11.819-6.601-4.525-7.639-6.134-6.946-10.757.646-4.311-.074-9.582-1.299-9.506-.353.022-3.117 1.371-6.142 2.999m44.217 14.688c-.044 3.7-.525 6.876-1.069 7.057-.567.189-.287 1.554.657 3.2 1.701 2.963 5.858 4.53 7.787 2.936.601-.496 1.377-.617 1.726-.269.348.349 1.222.146 1.941-.451.933-.774 2.586-.781 5.774-.022 6.818 1.622 12.107 1.621 15.967-.004 1.925-.81 4.349-1.367 5.388-1.237 1.038.129 2.241-.337 2.673-1.037.625-1.011 1.091-1.018 2.274-.037 1.069.887 1.679.923 2.172.126.457-.74 1.142-.506 2.057.701.816 1.077 1.385 1.304 1.404.56.045-1.743 2.578-1.561 4.461.321.864.865 1.608 1.427 1.653 1.25.045-.176.3-1.663.566-3.303.741-4.58 1.351-4.327 1.366.565.017 5.692.903 8.917 2.448 8.917.675 0 2.029.886 3.009 1.968 1.354 1.497 2.22 1.733 3.614.986 1.009-.539 2.415-.862 3.124-.718.814.167 1.228-.661 1.119-2.236-.094-1.375-.329-6.635-.521-11.688-.193-5.054-.657-9.495-1.031-9.869-.982-.983-3.334 1.661-4.064 4.567-.646 2.574-1.559 2.732-11.712 2.024-2.31-.161-2.348-.24-.5-1.034 1.8-.774 1.818-.866.179-.93-1.002-.038-2.557.665-3.456 1.564-1.071 1.071-1.764 1.243-2.012.5-.208-.624-1.015-1.134-1.794-1.134-.78 0-1.417-.41-1.417-.911 0-.519-6.044-.776-14.064-.597-16.264.363-23.194-1.228-25.634-5.886-2.49-4.751-3.999-3.228-4.085 4.121M106.282 691.25c-.028.688-.395 4.798-.816 9.133-.636 6.549-.529 7.805.634 7.419.829-.276 1.656-2.532 2.028-5.533 1.084-8.733 3.617-9.079 3.802-.519.113 5.261 3.06 4.314 3.11-1l.04-4.25 1.456 2.681c.8 1.474 1.611 3.701 1.801 4.947.495 3.24 2.705 3.651 2.44.454-.117-1.42-.565-2.582-.995-2.582-.43 0-.729-.337-.664-.75.604-3.823-3.536-10.81-5.001-8.439-.892 1.443-6.117.224-6.117-1.428 0-1.722-1.648-1.85-1.718-.133" fill="#d3d3d3" fill-rule="evenodd"/></svg>