<svg xmlns="http://www.w3.org/2000/svg" width="500" height="496"><path d="M0 248.002v248.002l250.25-.252 250.25-.252.252-247.75L501.004 0H0v248.002m.492.498c0 136.4.116 192.051.258 123.67.142-68.382.142-179.982 0-248C.608 56.151.492 112.1.492 248.5M260.225 58.428c-1.801.654-2.963 1.5-2.583 1.881.38.38-.534.691-2.033.691C249.05 61 236 66.243 236 68.879c0 .469-2.136 2.518-4.747 4.552-3.964 3.088-5.28 3.599-7.973 3.094-3.382-.635-7.876 1.079-10.213 3.894-.707.852-3.239 2.525-5.625 3.717-3.544 1.77-4.393 2.734-4.64 5.265-.255 2.619-.767 3.151-3.302 3.433-1.65.183-3.675.925-4.5 1.647-.825.723-4.478 2.655-8.117 4.294-3.64 1.639-8.346 4.61-10.459 6.602-2.112 1.993-4.094 3.623-4.403 3.623-.31 0-1.675 2.138-3.035 4.75s-2.965 5.425-3.568 6.25c-.603.825-1.872 4.047-2.822 7.161-1.602 5.255-2.223 5.993-8.672 10.32-7.244 4.861-8.532 6.59-11.365 15.257-1.42 4.344-3.047 6.443-9.536 12.302-4.303 3.886-8.4 8.504-9.105 10.263-.705 1.758-3.337 5.222-5.85 7.697-3.052 3.006-5.203 6.325-6.481 10-1.052 3.025-2.74 7.068-3.75 8.985-1.01 1.917-1.837 4.046-1.837 4.731 0 .685-1.552 3.671-3.449 6.637-1.897 2.965-3.77 6.673-4.164 8.239-.393 1.567-1.579 4.314-2.635 6.104-1.316 2.23-1.721 4.171-1.284 6.158.741 3.375-3.478 10.576-6.298 10.748-.919.056-2.637.169-3.82.25-1.182.081-4.42 1.676-7.196 3.544-4.245 2.857-5.117 3.135-5.485 1.75-.24-.905-.489-.394-.553 1.135-.064 1.53-.796 3.043-1.627 3.362-2.944 1.129-8.035 7.137-8.25 9.735-.12 1.449-.843 4.133-1.608 5.963-1.279 3.06-1.232 3.427.587 4.563 1.087.679 2.27.917 2.629.528.359-.388.091-.907-.597-1.152-1.516-.542-1.682-4.28-.191-4.28.582 0 .751.498.375 1.107-.462.747.015.885 1.466.425 1.511-.48 2.068-.289 1.875.643-.151.729.288 1.212.975 1.075.688-.138 1.25.2 1.25.75s.62 1 1.378 1c.758 0 2.084 1.013 2.948 2.25.863 1.238 1.593 1.72 1.622 1.071.028-.648-.735-1.973-1.698-2.944-1.667-1.681-1.667-1.734 0-1.102.963.364 1.75.226 1.75-.306 0-.533.388-.969.861-.969.474 0 .664 1.238.422 2.75-.259 1.621-.098 2.274.392 1.59 1.693-2.361 6.429-1.06 7.028 1.931.756 3.77 1.948 4.256 2.736 1.114.532-2.118 1.113-2.513 3.131-2.127 1.363.261 2.706.104 2.986-.348.279-.453 1.108-.592 1.841-.311 1.724.662 8.18-3.024 7.853-4.483-.236-1.052 1.685-1.558 4.513-1.188.695.091 1.502-.456 1.794-1.216.382-.995 2.171-1.32 6.394-1.163 6.505.242 8.438.995 7.673 2.988-.281.733.026 1.552.682 1.819.908.37.902.505-.025.565-.67.043-.959.754-.643 1.579.319.83.029 1.5-.648 1.5-.768 0-1.009.818-.648 2.198.316 1.209.088 2.784-.506 3.5-.595.716-.746 1.302-.336 1.302s.185.675-.5 1.5-.896 1.5-.469 1.5c.426 0-.081.788-1.128 1.75-3.226 2.966-5.313 8.481-5.301 14.003.007 2.889-.215 5.621-.494 6.072-.278.45.146 2.075.943 3.611 1.941 3.741 1.831 5.089-.245 3.013-1.864-1.864-3.076-.382-3.236 3.956-.065 1.766.06 1.787 1.717.288 1.724-1.56 6.213-1.354 6.213.285 0 .41 1.125.53 2.5.267 1.459-.279 2.5-.013 2.5.638 0 .615-.398 1.117-.885 1.117s-1.639 1.151-2.561 2.558c-1.587 2.422-1.58 2.541.135 2.25 1.254-.213 1.721.23 1.517 1.442-.161.963.176 1.75.75 1.75.574 0 1.044-.75 1.044-1.667 0-.916.284-1.382.631-1.035.989.989 4.369-1.203 4.369-2.833 0-.806-.562-1.479-1.25-1.497-.723-.018-.46-.63.625-1.451 1.031-.781 1.875-2.581 1.875-4 0-4.734 3.529-5.262 5.465-.818.911 2.091 1.522 4.251 1.357 4.801-.165.55-.415 3.131-.556 5.736-.25 4.644-.204 4.725 2.364 4.122 1.441-.338 2.845-.61 3.12-.605 2.312.046 3 .461 3 1.81 0 1.047.743 1.459 2.25 1.25 2.589-.36 3.466 4.328 3.776 20.187.248 12.719 7.033 27.285 21.829 46.864 7.453 9.863 12.449 13.012 20.452 12.891 3.406-.051 7.176.433 8.377 1.076 3.219 1.723 6.381 1.427 10.306-.966 3.428-2.09 6.151-2.492 22.51-3.326 3.85-.197 8.35-.555 10-.797 1.65-.241 5.792-.774 9.205-1.183 3.412-.41 6.687-1.327 7.278-2.038.675-.813 1.096-8.209 1.134-19.912.033-10.239.41-18.401.837-18.137.725.448 3.548 12.276 3.259 13.655-.072.345.237 2.957.687 5.803.617 3.904.521 5.062-.39 4.712-.786-.301-1.541 1.375-2.162 4.801l-.954 5.264 5.309-.236c8.341-.371 9.232-2.246 9.967-20.971.194-4.95.708-11.025 1.144-13.5l.791-4.5.777 6.75c.553 4.8 1.187 6.75 2.198 6.75.886 0 1.414 1.034 1.405 2.75-.013 2.213-.222 2.457-1.072 1.25-.781-1.108-.947-.138-.635 3.716.232 2.869.039 4.98-.428 4.691-.468-.289-.856.064-.864.784-.007.72-.285 2.321-.616 3.559-.725 2.703 3.522 3.29 5.609.776.933-1.125 2.569-1.334 6.9-.881 9.157.957 11.141-4.61 7.178-20.145-2.441-9.571-2.254-13.131.368-7 2.478 5.796 3.865 14.287 3.225 19.75-.657 5.618.684 6.214 3.01 1.337.895-1.878 2.126-3.223 2.734-2.991 2.05.785 7.937-3.224 9.779-6.658 2.334-4.352 2.308-8.748-.104-17.445-2.245-8.095-2.091-8.882.817-4.178 1.663 2.692 2.114 5.031 2.114 10.973v7.552l6.014-3.005c8.87-4.432 11.352-8.2 11.427-17.343.061-7.58 1.649-9.795 2.559-3.57.675 4.617 2.215 4.83 6.472.893 2.886-2.67 3.854-4.58 4.976-9.815l1.393-6.5.1 5 .1 5 4.427-5c2.434-2.75 4.938-6.198 5.564-7.663.626-1.465 2.225-2.936 3.553-3.269 1.328-.333 2.415-1.232 2.415-1.997 0-.765 1.913-3.794 4.25-6.731 2.337-2.937 4.733-6.24 5.323-7.34 2.574-4.8 4.044-7.137 5.746-9.138 1.001-1.177 1.695-2.752 1.543-3.5-.444-2.186 1.104-6.97 2.805-8.672 2.238-2.237 8.001-5.189 8.723-4.466.336.335.61-.141.61-1.057 0-.917.413-1.667.918-1.667.505 0 1.63-.273 2.5-.607 1.193-.458 1.582.034 1.582 2 0 1.434.436 2.607.969 2.607 1.425 0-.05 3.293-2.153 4.807-.999.718-1.816 1.94-1.816 2.715 0 1.587 3.398 3.747 4.369 2.776 2.393-2.394-2.989 13.609-5.605 16.665-.885 1.033-2.072 2.743-2.637 3.8-1.156 2.16-10.895 6.229-14.966 6.252-1.464.009-3.254.391-3.978.851-1.838 1.165 12.734 2.168 17.122 1.178 1.92-.433 4.021-.461 4.668-.061 1.283.793-3.988 3.542-12.703 6.623-4.389 1.552-7.166 3.831-6.04 4.957.265.266 21.088.694 25.303.521 2.227-.092 17.603-11.007 23.967-17.013 4.451-4.201 12.976-10.729 14.812-11.342.786-.262.304-1.723-1.422-4.313-5.27-7.908-6.646-11.034-7.225-16.416-.701-6.513-4.101-10.117-11.237-11.914-3.11-.783-4.782-1.884-5.794-3.815-1.383-2.639-1.424-2.555-1.491 3.043-.037 3.166-.348 6.208-.689 6.761-.391.631.336.765 1.953.359 3.172-.796 4.669 1.918 2.341 4.246-2.153 2.153-6.048.84-5.222-1.761.335-1.055.238-1.919-.215-1.919-1.013 0-3.311-7.123-3.311-10.262 0-4.615 5.116-9.987 6.15-6.458.518 1.766.675 1.504.769-1.28.068-2.044 1.309-5.258 2.982-7.726 7.298-10.766 2.796-32.142-8.052-38.239-5.227-2.938-4.891-4.19 2.55-9.5 3.52-2.512 6.67-5.271 7-6.133 1.293-3.369.561-14.633-1.249-19.217-3.132-7.931-5.3-14.409-7.032-21.014-1.841-7.021-5.44-11.589-12.124-15.388-2.528-1.437-4.446-3.454-5.174-5.444-1.213-3.312-7.001-7.339-10.551-7.339-2.614 0-5.481-3.284-4.683-5.363.717-1.87-1.849-6.265-5.2-8.903-1.234-.972-3.146-3.222-4.249-5-1.103-1.779-3.498-3.978-5.321-4.888-5.341-2.663-11.929-5.578-17.615-7.792-13.427-5.229-15.339-7.243-13.017-13.713.966-2.693 1.012-3.77.172-4.052-.629-.212-.935-1.183-.68-2.158.32-1.224-.718-2.555-3.356-4.303-2.101-1.392-6.105-4.77-8.899-7.506-7.672-7.518-9.557-7.892-19.485-3.869-6.192 2.51-11.913 2.352-12.619-.348-.234-.897-1.864-2.476-3.622-3.508l-3.195-1.876 3.4-1.425c3.007-1.259 3.228-1.596 1.916-2.909-1.234-1.234-2.566-1.308-7.9-.439-5.976.974-6.748.875-11.258-1.451-5.253-2.708-7.408-2.894-12.433-1.069m-95.343 156.524c-1.802 1.987-1.742 9.307.096 11.521.793.956.651 1.455-.545 1.914-1.092.419-1.789-.031-2.142-1.383-.288-1.102-1.034-2.057-1.658-2.122-2.117-.222-4.131.315-4.716 1.257-.36.579-1.604.55-3.25-.075-2.252-.857-2.665-.746-2.652.711.06 6.758 17.836 6.998 23.581.319 1.868-2.172 2.403-2.34 3.789-1.189 3.261 2.706 1.689-1.131-1.885-4.602-1.925-1.87-3.5-4.079-3.5-4.91 0-.888-.476-1.217-1.155-.798-.715.443-.883.275-.44-.44.392-.635.273-1.155-.264-1.155-.538 0-1.577-.187-2.309-.416-.733-.229-2.06.387-2.95 1.368M413 231c0 .55-.675 1-1.5 1-1.707 0-2.009 1.568-.484 2.51.559.346.741 1.074.404 1.619-.337.546-.162 2.202.389 3.681.551 1.48 1.832 6.402 2.847 10.938 1.986 8.881 1.967 8.854 4.626 6.837 1.983-1.505.453-7.081-1.714-6.249-2.087.8-1.62-8.186.502-9.673 2.022-1.416 1.633-2.87-.544-2.034-.758.29-1.541-.554-1.922-2.069-.353-1.408-1.326-2.56-2.162-2.56-1.251 0-1.292-.248-.231-1.395.709-.767 1.626-1.191 2.039-.941.413.25.75-.248.75-1.105s-.675-1.559-1.5-1.559-1.5.45-1.5 1M122.214 381.814c.057 2.002.906 3.292 2.933 4.456 1.675.961 2.853 2.482 2.853 3.683 0 1.391.651 2.047 2.032 2.047 1.173 0 2.415.951 2.937 2.25.497 1.238.933 1.857.968 1.378.034-.48.772-.284 1.639.435 2.167 1.799 3.714-.619 2.082-3.254-.919-1.484-.848-2.067.342-2.824 1.285-.818 1.254-.957-.219-.97-1.041-.009-1.511-.555-1.192-1.386.289-.754-.275-1.678-1.254-2.054-1.369-.525-1.479-.868-.476-1.488 1.426-.881-4.458-3.635-9.765-4.57-2.716-.479-2.954-.29-2.88 2.297" fill="#d3d3d3" fill-rule="evenodd"/></svg>