<svg xmlns="http://www.w3.org/2000/svg" width="500" height="658"><path d="M490.453 71.398L489.777 75l-10.138.128c-5.577.07-21.614.276-35.639.457-85.701 1.107-282.364.57-373.751-1.019L8.998 73.5 8.749 91c-.137 9.625-.166 24.475-.064 33 .102 8.525.176 35.75.164 60.5-.011 24.75.13 50.85.314 58 .185 7.15.255 25.6.157 41-.098 15.4-.123 41.275-.054 57.5.214 51.056.164 57.713-.693 91.5-1.327 52.354-.318 88.803 2.507 90.549.57.352 4.047.526 7.728.385 69.525-2.654 397.697-2.358 457.866.413l14.173.653-.64-32c-.696-34.745-.673-37.94.319-44.133.384-2.402.247-4.389-.328-4.745-.597-.368-.679-1.99-.207-4.082 1.246-5.525 1.573-36.938.605-58.04-.828-18.038-.698-46.758.247-54.24.639-5.067.603-37.26-.099-87.26-.079-5.668-.026-16.276.16-32 .201-16.924.06-92.083-.204-108.5-.176-11 .075-22.407.558-25.348.98-5.959.259-8.425-.805-2.754" fill="#d3d3d3" fill-rule="evenodd"/></svg>