<svg xmlns="http://www.w3.org/2000/svg" width="500" height="956"><path d="M174.381 6.034c1.584.475 3.945 1.863 5.246 3.085 2.699 2.536 4.406 1.765 2.577-1.164-1.569-2.512 1.211-2.753 4.573-.398 2.759 1.932 2.794 3.207.164 6.005l-2.058 2.192 2.631.66c1.563.392 3.792.081 5.493-.768 1.575-.785 5.255-1.995 8.178-2.688 2.923-.692 7.145-2.091 9.381-3.109C212.802 8.832 215.444 8 216.438 8c1.493 0 1.59-.261.562-1.5-1.042-1.256-4.85-1.486-23.372-1.414-14.094.055-21.082.399-19.247.948M222.5 6c.34.55 1.968 1 3.618 1s2.756.396 2.457.879c-.747 1.208 4.32 6.121 6.311 6.12 1.14-.001.759-.737-1.298-2.505-3.028-2.605-2.821-4.745.273-2.813 1.168.73 2.353.779 3.486.145 2.315-1.296 5.153-.641 5.153 1.188 0 .841 1.085 1.613 2.5 1.778 1.375.16 3.507.796 4.739 1.412 1.231.617 4.156 1.161 6.5 1.209 3.817.078 4.261-.155 4.261-2.237 0-1.279.781-2.898 1.734-3.599.954-.701 1.442-1.568 1.084-1.926-1.03-1.029-7.134-.757-7.818.349-.34.55-1.097 1-1.681 1-.671 0-.604-.554.181-1.5 1.098-1.323-.722-1.5-15.437-1.5-10.866 0-16.466.349-16.063 1m-120 8.002c-2.2 1.118-5.211 3.406-6.69 5.083-2.342 2.655-2.971 2.899-4.856 1.891-2.004-1.073-8.954-.58-8.954.635 0 .286.442 1.347.983 2.357 1.889 3.53-6.911 1.37-10.618-2.605-1.724-1.85-4.06-3.363-5.191-3.363-1.131 0-2.348-.472-2.704-1.049-.439-.711-1.125-.653-2.128.18-1.215 1.008-1.871.745-3.661-1.468L56.5 12.966l-4.25 2.122C49.912 16.254 48 17.642 48 18.172c0 .529-.9.677-2 .328-1.431-.454-2-.18-2 .964 0 .879-.788 1.889-1.75 2.244-.962.356-2.087 1.129-2.5 1.719-.512.733-1.027.643-1.625-.284-.639-.991-1.068-1.045-1.589-.201-.535.865-1.088.845-2.201-.079-1.185-.983-1.652-.969-2.294.071-.624 1.01-1.044.884-1.849-.556-.573-1.024-1.356-1.547-1.741-1.163-1.032 1.033.366 4.016 1.542 3.289.554-.342 1.007-.254 1.007.196 0 .451-.874 1.365-1.942 2.031-1.65 1.031-2.035.917-2.567-.759-.773-2.437-3.062-2.561-4.363-.236-.846 1.511-1.062 1.375-1.671-1.05-.842-3.356-3.796-3.294-4.278.089C15.798 27.44 14 26.751 14 23.941c0-2.338-2.536-2.592-3.4-.341-.841 2.191 1.702 6.985 3.467 6.534 2.157-.55 6.775-.35 7.897.344.588.363-.201 2.93-1.942 6.317-1.613 3.138-3.183 6.93-3.489 8.427-.307 1.498-1.392 3.523-2.412 4.5-1.021.978-2.327 3.353-2.904 5.278-1.322 4.411-1.647 93.908-.349 95.878 2.593 3.935 3.132-.592 3.132-26.33 0-22.035.236-26.425 1.444-26.888 1.084-.416 1.445-2.45 1.445-8.145 0-4.175.294-9.555.654-11.954.732-4.882 1.586-5.294 12.457-6.014 3.025-.2 5.837-.405 6.25-.456.413-.05.75-.818.75-1.708 0-1.106.611-1.456 1.935-1.11 1.978.517 3.079-.964 3.05-4.105-.013-1.366-.177-1.413-.909-.257-.59.933-2.874 1.441-6.735 1.5-5.264.08-5.873.311-6.161 2.339-.175 1.237-1.018 2.25-1.872 2.25-1.227 0-1.306-.297-.376-1.419.648-.78 1.206-3.817 1.241-6.75.06-5.021 3.36-14.694 5.046-14.79.395-.023.47.606.166 1.397-.303.792.386 2.242 1.532 3.223 1.145.981 2.083 2.8 2.083 4.042 0 1.655.735 2.416 2.75 2.847 1.513.324 3.682.961 4.82 1.416 1.483.593 2.36.368 3.091-.791.693-1.098 2.492-1.627 5.597-1.647 2.516-.015 4.913-.365 5.325-.778 1.291-1.29 3.641-.823 5.025 1 1.179 1.553 1.332 1.567 1.36.122.068-3.448 3.044-4.492 5.2-1.823 1.138 1.409 2.176 1.98 2.442 1.343 2.205-5.287 5.127-5.198 8.344.254 2.79 4.728 2.619 5.719-.867 5.021-1.951-.39-3.324-.086-4.16.921-.686.827-1.836 1.277-2.555 1.001-.719-.276-1.574-.071-1.899.455-.967 1.564-2.471 1.087-2.503-.794-.029-1.667-.079-1.667-1.05 0-.699 1.199-2.262 1.75-4.97 1.75-2.172 0-3.95.45-3.95 1s-.9 1-2 1c-1.111 0-2-.667-2-1.5 0-2.248-3.107-1.807-3.718.528-.377 1.444-1.07 1.857-2.406 1.433-1.853-.588-2.81 1.856-1.126 2.875.999.604 12.218-1.123 14.75-2.271 2.083-.944 9.672-2.224 15.216-2.566 1.769-.109 3.91-.774 4.758-1.478.979-.812 3.163-1.097 5.977-.779 3.194.36 4.581.116 4.96-.871.29-.754 1.665-1.371 3.058-1.371C96.861 62 98 61.536 98 60.969c0-1.696-2.913-2.286-4.555-.923-1.838 1.525-3.145.426-3.61-3.036-.2-1.484-1.1-2.635-2.229-2.851-1.687-.322-1.823.081-1.248 3.68.885 5.53-1.036 6.391-3.015 1.352-.861-2.192-2.51-4.406-3.666-4.922-1.866-.832-1.555-1.123 2.79-2.603C85.156 50.75 88.626 50 90.178 50 91.73 50 93 49.618 93 49.15c0-1.723-6.1-9.206-7.034-8.629-.531.328-.966.12-.966-.462 0-.582.614-1.059 1.365-1.059s2.44-.846 3.754-1.879c2.45-1.927 12.029-4.878 17.381-5.354 2.849-.254 2.984-.468 2.678-4.25-.294-3.624.066-4.316 4-7.69 4.022-3.449 4.208-3.823 2.675-5.378-2.576-2.614-9.657-2.835-14.353-.447m283 .984c-1.65.444-4.256 1.091-5.791 1.44-5.889 1.335-1.306 2.194 11.396 2.135 8.931-.041 13.345-.43 13.603-1.197.502-1.491-5.033-3.399-6.76-2.332-.737.456-2.122.41-3.078-.102-2.035-1.089-5.179-1.07-9.37.056m79.043.755c-2.429.248-4.478 1.148-5.306 2.332-.743 1.06-2.03 1.927-2.861 1.927-1.01 0-1.318.608-.929 1.833.562 1.772-3.941 5.006-5.208 3.74-1.176-1.176-4.239 1.687-4.239 3.962 0 2.198.422 2.465 3.893 2.465 4.793 0 6.112 2.301 3.135 5.47-2.741 2.918-2.551 4.193.722 4.841 4.121.816 5.917-1.363 3.794-4.603-1.156-1.765-1.318-2.729-.539-3.211.612-.378.974-1.883.804-3.343-.306-2.631-.253-2.654 6.191-2.657 8.282-.004 9-.524 9-6.521 0-3.827-.425-5.133-1.934-5.941-1.064-.569-2.077-.959-2.25-.867-.174.093-2.097.35-4.273.573m-205.61 3.839c-1.007 1.215-1.057 2.254-.213 4.49 2.419 6.407-2.265 9.25-14.888 9.037-12.116-.205-24.248-.025-24.638.366-1.169 1.168-.518 8.53 1.039 11.762 2.645 5.49 9.454 6.144 24.595 2.363 3.12-.779 9.047-1.68 13.172-2.002l7.5-.586 4.5 5.538c5.982 7.361 5.993 7.123-.488 9.989-7.388 3.267-6.821 4.914 1.76 5.115 9.462.222 10.757 1.697 2.228 2.538-3.85.38-9.025 1.13-11.5 1.668-3.532.767-4.84.672-6.079-.44-2.584-2.321-6.457-1.658-10.325 1.766-1.978 1.751-3.596 3.551-3.596 4 0 1.522 10.687.826 18.971-1.236 9.697-2.414 11.24-2.278 12.039 1.057.672 2.808-.809 2.736 21.49 1.047 6.6-.5 13.462-1.217 15.25-1.594 2.858-.602 3.25-.43 3.25 1.429 0 1.162.563 2.163 1.25 2.224 3.4.301 6.366-.405 7.421-1.766 1.019-1.315 1.316-1.238 2.296.593 1.448 2.706.567 4.062-2.641 4.062-3.047 0-18.691 14.608-17.887 16.702.779 2.028-.478 4.298-2.379 4.298-2.646 0-3.218 1.159-1.294 2.619 1.598 1.214 1.558 1.32-.516 1.349-1.238.018-2.25.482-2.25 1.032 0 1.349 6.322 1.278 7.687-.087.783-.783 1.275-.783 1.759 0 .912 1.475 10.857 1.384 12.354-.113.66-.66 1.2-2.265 1.2-3.566 0-6.15 6.293-9.192 6.709-3.243.419 5.994 3.407 8.486 7.257 6.051.904-.572 1.9-.568 2.596.01.621.515 3.111.759 5.534.542 2.422-.217 5.546-.44 6.942-.495 2.271-.089 2.555-.541 2.705-4.319.243-6.091-1.595-7.681-8.841-7.647-3.236.016-6.139.442-6.452.948-.312.505-1.329.905-2.259.887-1.567-.029-1.564-.128.043-1.349 2.264-1.719 1.247-2.619-2.96-2.619-1.865 0-3.137-.412-2.826-.915.957-1.55 13.229-5.085 17.651-5.085 2.299 0 4.68-.588 5.291-1.307.866-1.02 3.855-1.15 13.61-.595 6.875.392 16.861.755 22.191.807 8.383.082 12.218 1.02 10.637 2.601-.842.841-6.63 1.635-11.078 1.519l-4.75-.124.015 7.3c.009 4.014.413 7.927.899 8.695 1.211 1.911 4.086.624 4.086-1.829 0-1.098.9-2.478 2-3.067s2-1.547 2-2.129c0-.582-.9-1.294-2-1.581-2.54-.664-2.571-1.907-.065-2.563 2.408-.63 3.065.955 3.065 7.395v4.959l8.208-.291c7.795-.275 8.242-.416 8.9-2.79.594-2.143.707-2.202.792-.417.055 1.146.377 2.36.715 2.698 1.046 1.047 5.385-2.409 5.385-4.289 0-.978.675-2.037 1.5-2.354.981-.376 1.5-1.934 1.5-4.498 0-4.085-2.629-5.987-6.319-4.571-.813.312-1.776.087-2.139-.501-.363-.587-1.758-1.068-3.101-1.068-2.745 0-3.271-1.467-.859-2.393 2.742-1.052 16.635-.658 20.026.568 1.788.647 3.474 2.03 3.747 3.075.409 1.563.853 1.709 2.505.825 2.986-1.598 5.14-1.304 5.14.702 0 2.267-5.645 8.508-7.221 7.983-.656-.219-2.387 2.105-3.853 5.171-3.599 7.527-7.575 11.27-9.367 8.819-1.781-2.436-4.559-2.24-4.559.322 0 2.161-4.697 10.928-5.854 10.928-1.146 0-3.243-4.034-2.621-5.041.326-.527 1.389-.959 2.361-.959 1.401 0 1.675-.631 1.321-3.041l-.446-3.042-7.131.292-7.13.291-.072 7c-.102 9.911.098 9.507-4.678 9.442-4.761-.064-13.477-1.648-10.059-1.827 2.954-.155 3.26-.917 2.353-5.874-.426-2.332-.386-4.241.09-4.241s.866-1.104.866-2.453c0-2.441-.046-2.452-9.925-2.417-11.256.04-10.903-.247-10.435 8.48.455 8.485-1.096 9.917-8.419 7.77-3.136-.919-5.221-2.1-5.221-2.955 0-3.422-1.688-1.029-1.83 2.594-.138 3.535.233 4.256 3.086 5.996 5.734 3.496 17.379 1.984 19.091-2.478.949-2.471 2.355-1.777 3.007 1.483l.604 3.019 8.952-.34c5.849-.222 9.553-.836 10.684-1.77 1.335-1.102 1.827-1.143 2.152-.179.582 1.729 4.743 1.57 6.245-.239 1.824-2.198 2.675-1.092 2.212 2.873-.37 3.174-.591 3.392-2.336 2.31-2.676-1.658-3.832.424-3.852 6.934-.008 2.918-.564 5.583-1.29 6.186-1.812 1.503-18.677 4.876-28.725 5.745-4.675.404-9.508 1.392-10.74 2.196-1.88 1.227-3.248 1.27-8.5.269-3.443-.657-10.979-1.268-16.747-1.359l-10.486-.165-1.236 3.744c-2.092 6.338-5.476 13.168-7.174 14.477-1.449 1.116-1.383 1.312.633 1.879 1.238.348 2.25.975 2.25 1.393 0 1.827 11.581 1.756 17.218-.105 3.146-1.038 6.352-1.888 7.125-1.888.774 0 1.683-1.38 2.02-3.066.338-1.687 1.005-2.825 1.483-2.529.478.295 2.343.114 4.144-.402 1.884-.54 5.781-.596 9.182-.131 3.43.469 6.143.427 6.469-.1.309-.5 1.267-.637 2.13-.306s1.83.225 2.149-.236c1.305-1.885 8.899-4.988 11.158-4.559 1.752.333 3.594-.545 6.656-3.17 5.872-5.034 10.334-4.748 11.692.749 1.004 4.061 2.464 4.886 3.26 1.842.981-3.749 8.334-4.153 11.121-.611 1.505 1.914 1.837 3.502 1.449 6.938-.624 5.534.51 13.581 1.914 13.581.629 0 .786-1.041.393-2.605-.797-3.174.322-11.395 1.551-11.395.487 0 .886.587.886 1.305 0 .717 1.575 3.024 3.5 5.125 1.925 2.102 3.485 4.327 3.467 4.946-.09 3.114-4.011 12.163-5.394 12.447-.865.178-1.587.853-1.605 1.5-.047 1.759-2.847 5.132-3.618 4.36-.369-.369.119-1.543 1.084-2.61 2.842-3.141 1.322-7.674-2.73-8.139-9.225-1.059-28.838-.337-29.762 1.095-2.967 4.597-6.027 21.971-3.87 21.971.511 0 .928-.845.928-1.878 0-2.399 2.525-4.518 4.487-3.765 2.027.777 1.968 4.643-.07 4.643-2.478 0-1.045 2.459 1.661 2.851 4.208.609 5.228 3.783 1.516 4.715-2.136.536-4.42 4.294-2.75 4.525.361.05 4.594.272 9.406.495l8.75.404.036-3.245c.019-1.785.735-5.945 1.59-9.245.856-3.3 1.784-7.192 2.063-8.648.436-2.272.992-2.635 3.91-2.552 4.208.119 4.276 1.039.799 10.854-1.432 4.04-2.829 8.696-3.106 10.346-.277 1.65-1.019 3.45-1.648 4-1.027.898-3.644 7.196-3.644 8.77 0 .346 1.519 1.786 3.374 3.202 2.896 2.208 3.772 2.423 6.168 1.512 2.086-.793 2.983-.752 3.549.163 1.002 1.622 8.909-.869 8.909-2.807 0-1.367 1.091-1.717 4.31-1.382 2.185.227 4.69-1.685 4.69-3.58 0-.771-1.013-1.378-2.3-1.378-3.583 0-4.7-1.93-4.7-8.123 0-5.058.358-6.081 3.077-8.8 3.677-3.677 3.678-3.677 4.18-.827.395 2.242.4 2.241 1.452-.25 1.359-3.217.83-4-2.698-4-2.183 0-2.976.54-3.305 2.25-.239 1.238-.495.113-.57-2.5-.102-3.567.229-4.75 1.329-4.75 2.521 0 3.47-3.204 2.274-7.684-.95-3.558-.837-4.505.831-6.967l1.93-2.849.532 5c.293 2.75 1.333 6.738 2.311 8.863 1.655 3.595 1.999 3.816 4.968 3.193 1.754-.369 11.739-.715 22.189-.769 12.541-.065 19.25-.47 19.735-1.193 1.306-1.946.788-17.948-.746-23.003-1.702-5.61-1.925-8.979-.54-8.122 1.189.734 2.313-4.972 1.878-9.536-.213-2.24-.848-3.433-1.827-3.433-.978 0-1.614-1.192-1.826-3.423-.296-3.108.262-5.059 2.963-10.345 1.076-2.108 1.114-117.732.038-117.732-.405 0-1.244 1.345-1.864 2.988-1.099 2.911-1.202 2.95-3.97 1.506-1.562-.815-3.373-1.484-4.024-1.488-1.786-.009-2.652 3.885-1.242 5.584 1.009 1.216.838 2.037-.918 4.411-2.841 3.844-3.125 12.951-.407 13.085.962.047.4.489-1.25.982-1.893.566-3.123.534-3.333-.086-.184-.542-4.237-.982-9.05-.982-4.795 0-9.145-.418-9.667-.929-.523-.51-2.525-1.073-4.45-1.25-2.987-.274-3.642-.805-4.472-3.625-2.249-7.645-8.4-11.326-10.08-6.031-.434 1.366-1.143 1.768-2.288 1.297-3.045-1.253-10.16-1.758-10.16-.721 0 .551 1.541 2.057 3.425 3.348 4.115 2.82 3.743 3.911-1.335 3.911-2.085 0-5.096.417-6.691.927-18.144 5.8-19.608 6.144-21.042 4.954-.802-.665-1.336-2.148-1.188-3.295.148-1.147-.134-2.734-.627-3.527-.579-.931-.477-1.581.287-1.835 2.4-.8-.067-2.224-3.853-2.224-4.768 0-6.45 2.433-5.675 8.209.39 2.903.14 4.068-.962 4.491-.974.374-1.292 1.351-.921 2.831.38 1.511.052 2.459-.988 2.858-2.684 1.03-.486 2.611 3.629 2.611 4.237 0 4.629.509 2.526 3.282-1.11 1.463-1.784 1.585-3.767.681-1.759-.801-4.305-.799-9.367.008-3.823.61-7.851 1.083-8.951 1.052-8.34-.237-14.028.17-15.126 1.081-.847.704-2.776.782-5.584.227-2.36-.467-7.215-.559-10.79-.206-3.575.352-8.525.694-11 .758l-4.5.117-.111-3.75c-.061-2.062-.581-5.459-1.155-7.549-1.226-4.456-1.19-4.5 7.266-9.108 8.746-4.765 12.637-11.462 7.591-13.064-1.712-.544-12.358 2.651-14.482 4.345-.61.487-4.484 2.324-8.609 4.083-4.125 1.759-9.426 4.072-11.78 5.14-3.243 1.471-4.752 1.688-6.231.897C284.16 52.016 279 45.3 279 43.899c0-.35 4.613-.883 10.25-1.185 11.439-.611 16.678-1.992 20.302-5.35 1.347-1.248 2.448-1.975 2.448-1.616 0 .358.54.112 1.2-.548.66-.66 2.235-1.2 3.5-1.2 1.265 0 2.3-.509 2.3-1.13 0-.747-1.519-.959-4.481-.625-3.211.362-4.827.088-5.702-.965-.86-1.037-2.308-1.297-4.902-.882-2.613.417-4.041.155-4.921-.905-1.726-2.08-4.084-1.863-4.684.431-.427 1.632-1.593 1.974-7.657 2.25-14.207.647-16.488-.417-18.139-8.467-.316-1.536-1.348-3.031-2.294-3.323-.946-.291-2.501-.947-3.456-1.457-2.258-1.205-2.293-1.199-3.831.653M62 25.059c-.825.438-2.28 1.037-3.233 1.331-1.065.328-1.506 1.128-1.143 2.072C58.035 29.534 57.6 30 56.19 30c-1.113 0-2.22-.562-2.461-1.25-.32-.916-.964-.783-2.412.5-1.086.962-2.71 1.75-3.608 1.75-1.407 0-1.549.905-1.026 6.51.516 5.526.321 6.828-1.287 8.611L43.5 48.222l5-.474c2.75-.261 9.876-1.311 15.835-2.335l10.835-1.86 4.665-5.773c2.566-3.175 5.003-5.774 5.415-5.776.412-.002.75-.426.75-.943 0-.516-2.138-1.252-4.75-1.636-2.612-.384-5.875-1.142-7.25-1.684-6.113-2.413-10.614-3.419-12-2.682m138 11.002c-4.125.422-8.943.534-10.707.25-4.046-.653-12.92 1.481-16.601 3.992-3.594 2.452-2.755 3.197 3.603 3.197 4.452 0 5.285.325 6.397 2.5 1.265 2.474 1.279 2.476 1.293.225.022-3.286 3.485-4.225 15.58-4.225 9.62 0 10.435-.15 10.435-1.918 0-1.055.273-2.63.607-3.5.671-1.748 1.149-1.724-10.607-.521m210.91 20.458c-.836.835-3.519 1.911-5.964 2.39-4.419.867-3.536 1.304 3.054 1.512 1.561.049 2.392.592 2.211 1.445-.547 2.59 2.696 6.134 5.612 6.134 1.527 0 3.336.559 4.019 1.242.981.981 1.401.983 2.001.011 1.305-2.111 15.621-2.048 17.971.078 1.795 1.625 2.075 1.637 3.567.145 2.254-2.254 2.071-2.783-1.631-4.732-2.098-1.105-6.084-1.806-11.25-1.978l-8-.266-.31-3.75-.311-3.75h-4.725c-2.893 0-5.314.589-6.244 1.519m53.34 6.187c-2.577.496-2.951 1.811-.755 2.654 2.002.768 1.021 33.235-1.077 35.663-.874 1.01-1.003 2.02-.383 3 1.183 1.871 1.253 11.264.093 12.527-.48.523-1.16 2.863-1.512 5.2-.572 3.804-.428 4.25 1.372 4.25 1.899 0 2.012.644 2.012 11.5 0 10.935.564 13.078 2.699 10.25 1.187-1.574 1.829-85.802.652-85.614-.468.075-1.863.331-3.101.57M24.747 80.587c-1.341 1.34-.883 14.415.503 14.398 1.957-.024 3.76-1.461 5.577-4.447 1.334-2.191 2.537-2.812 5.931-3.062C42.21 87.075 43 88.463 43 98.434c0 4.161.414 7.566.921 7.566 1.817 0 2.389-10.175.72-12.807-.456-.719-.549-2.424-.206-3.79.613-2.444 3.279-2.706 9.191-.904 1.947.593.384 5.466-1.674 5.22-1.004-.121-1.967.231-2.139.781-.481 1.538 11.941 1.788 18.377.369 7.022-1.549 6.571-2.859-.999-2.901-5.164-.029-5.515-.165-3.793-1.468 2.12-1.605 2.298-1.494-8.762-5.492-2.675-.968-5.246-2.378-5.712-3.133-.932-1.512-22.789-2.677-24.177-1.288m89.481 4.252C107.951 91.262 103.801 94 100.341 94c-2.968 0-13.703 3.584-19.113 6.382-1.721.89-4.114 1.618-5.318 1.618-1.204 0-4.362 1.337-7.018 2.972-11.737 7.221-29.791 11.307-37.275 8.434-.748-.286-2.06.18-2.917 1.036-1.912 1.913-3.091 2.019-2.4.217.283-.737.113-1.975-.377-2.75-.535-.844-.899 10.788-.908 29.008-.008 16.729.323 30.079.735 29.666.413-.412.75-9.914.75-21.116 0-12.677.39-20.756 1.033-21.399.711-.712 1.075 5.03 1.168 18.403.075 10.691.442 20.403.816 21.582.71 2.239.563 2.234 9.643.31 1.462-.31 2.883-1.418 3.156-2.463.409-1.566 1.431-1.9 5.811-1.9 7.238 0 15.767-2.09 16.377-4.012.688-2.168 5.979-5.108 11.955-6.642 2.772-.712 9.091-2.469 14.041-3.904 4.95-1.434 10.575-2.824 12.5-3.087 1.925-.264 4.4-.866 5.5-1.34 1.1-.473 4.501-1.079 7.558-1.346l5.558-.485.236 7.408c.215 6.743.063 7.408-1.701 7.408-2.252 0-3.689 2.862-2.19 4.361.701.701 1.974.118 4.022-1.845 1.648-1.578 3.338-2.524 3.757-2.101.418.423.76 13.215.76 28.427V214.5l2.5.017c3.845.025 6.854 2.198 8.5 6.136 1.206 2.887 1.906 3.474 3.608 3.029 1.527-.399 2.253-.016 2.619 1.383.279 1.064.835 1.935 1.237 1.935 1.87 0 5.036 4.003 5.036 6.367 0 1.966-.506 2.633-2 2.633-1.1 0-2.9.9-4 2s-2.728 2-3.618 2c-.89 0-3.156 1.35-5.035 3-4.183 3.673-6.911 3.872-7.741.567-.693-2.762-4.437-4.458-5.619-2.546-.42.679-1.151.999-1.625.71-.474-.289-1.671.554-2.659 1.872-1.737 2.318-1.734 2.397.095 2.397 1.041 0 2.697-.889 3.681-1.976.983-1.087 2.179-1.735 2.657-1.44 1.453.898-.876 4.065-4.61 6.268-2.803 1.654-3.526 2.703-3.526 5.114 0 3.152.849 3.785 2.655 1.979.58-.58 4.148-1.493 7.929-2.028 5.679-.805 7.347-1.491 9.589-3.945 1.832-2.006 3.67-2.972 5.652-2.972 2.182 0 3.624-.9 5.607-3.5 2.607-3.418 8.568-5.139 8.568-2.473 0 2.228-6.34 7.855-9.763 8.664-1.971.466-3.768 1.401-3.993 2.078-.554 1.66 1.636 1.542 5.12-.275 1.576-.822 3.393-1.494 4.038-1.494.645 0 2.732-1.332 4.636-2.959 1.904-1.628 3.912-2.978 4.462-3.001.828-.035 1.208-53.902.568-80.54-.066-2.75-.109-8.375-.095-12.5.014-4.125-.228-8.706-.538-10.18-.628-2.987 2.131-5.308 5-4.206.869.333 2.679-.114 4.021-.993 1.351-.885 2.693-1.188 3.008-.679.313.506.131 1.19-.404 1.521-.535.331-.73 1.234-.433 2.008.299.779-.39 1.989-1.543 2.709-1.146.716-2.084 1.882-2.084 2.592 0 .71-.607 1.524-1.349 1.808-1.502.577-1.126 10.156.466 11.87.486.522.883 1.575.883 2.34 0 .764 1.012 2.278 2.25 3.364 1.559 1.368 1.866 2.134 1 2.494-.772.32-1.25 2.497-1.25 5.691 0 4.776.228 5.274 2.975 6.49 5.535 2.45 7.508 1.356 7.176-3.977-.163-2.615.192-4.946.81-5.328.656-.406.853-1.999.487-3.947l-.613-3.268 7.833-.623c4.307-.343 10.441-1.313 13.631-2.155 9.73-2.569 21.312-2.072 25.906 1.111 6.651 4.609 12.255 1.311 10.391-6.114-.441-1.759-1.525-2.418-4.832-2.937-2.46-.386-4.907-1.508-5.785-2.652-1.464-1.909-2.066-1.942-16.19-.893-10.961.813-15.212.798-16.816-.061-1.279-.684-4.034-.906-6.81-.548-4.863.626-8.816-.589-5.747-1.766.871-.335 1.584-1.297 1.584-2.14 0-1.11 1.168-1.574 4.25-1.688 8.698-.321 19.54-.819 29.25-1.344 5.5-.298 15.362-.737 21.915-.977 12.613-.462 14.924-1.385 11.879-4.749-.937-1.036-3.019-1.773-5.008-1.773-2.015 0-3.152-.408-2.786-1 .34-.55 1.765-1 3.166-1 1.796 0 2.386-.421 2-1.427-.882-2.3 1.414-3.353 8.12-3.725 4.778-.264 6.508.011 7.211 1.147 1.664 2.692 3.7-1.527 3.058-6.338-.543-4.064-.634-4.149-4.055-3.812-1.925.19-3.968.73-4.541 1.199-1.841 1.51-19.065 4.695-28.604 5.291-1.455.091-3.548.982-4.651 1.98-1.304 1.18-2.236 1.443-2.664.75-1.264-2.045-6.54-1.274-6.54.956 0 2.61-4.736 5.024-5.962 3.04-.617-.997-.987-.798-1.496.807-.851 2.681-2.149 2.741-2.832.132-.428-1.638-1.364-2-5.175-2-3.02 0-4.423-.372-3.999-1.059.36-.583 1.625-.934 2.81-.781 1.184.153 2.643-.027 3.241-.399 1.598-.996 9.494-2.946 12.613-3.115 1.485-.08 3.262-.708 3.95-1.396.688-.687 3.493-1.25 6.233-1.25 2.741 0 7.568-.917 10.726-2.039 3.157-1.121 9.037-2.67 13.066-3.443 12.807-2.455 14.325-2.97 14.325-4.862 0-.969-6.3-8.036-14-15.703l-14-13.941-58.272-.006L118.955 80l-4.727 4.839m245.329 7.384c-2.031 2.899-1.965 3.513.457 4.281 1.927.612 1.942.762.35 3.456-2.474 4.19-1.268 6.04 3.938 6.04 2.401 0 4.634-.269 4.962-.598.974-.973-.363-3.402-1.871-3.402-.766 0-1.393-.381-1.393-.847 0-1.455 3.428-4.653 4.986-4.653 2.915 0 2.192-3.265-1.086-4.9-4.566-2.278-8.477-2.043-10.343.623m-13.933 21.295c-.893.894-1.624 2.112-1.624 2.708 0 .596-.907.263-2.015-.74-2.383-2.156-10.394-3.04-18.443-2.035l-5.54.693.126 9.678c.077 5.923.561 9.963 1.249 10.413 2.184 1.428 17.578.84 20.735-.793 3.358-1.737 3.516-4.103.388-5.835-1.1-.609-2.177-1.209-2.393-1.333-.215-.124.177-.912.873-1.75 1.038-1.25.995-1.524-.235-1.524-1.655 0-4.033 2.379-3.205 3.207.287.287-.653 1.292-2.089 2.233-2.431 1.593-2.85 1.599-6.055.078-1.91-.907-3.153-2.103-2.791-2.688.358-.579.031-1.446-.727-1.926-1.032-.654-.834-.877.789-.889 1.191-.008 2.353-.576 2.582-1.262.255-.766 2.701-1.351 6.333-1.514 3.255-.147 9.266-.407 13.357-.58 8.138-.342 10.63-1.936 8.455-5.409-1.489-2.377-7.662-2.839-9.77-.732m-70.138 1.75c-2.312 1.294-1.825 4.826.764 5.537 2.07.569 2.01.662-.75 1.171-2.251.414-3.007 1.105-3.029 2.767-.016 1.218-.578 2.764-1.25 3.436-1.567 1.567-1.581 7.061-.021 8.621.66.66 3.36 1.2 6 1.2 4.797 0 4.8-.002 4.8-3.418 0-4.858.892-6.582 3.407-6.582 1.206 0 2.685-.492 3.286-1.093.79-.79 1.676-.78 3.2.036 2.322 1.243 2.809 4.955.9 6.864-2.659 2.659 1.4 4.532 7.148 3.299 2.837-.608 7.16-1.106 9.608-1.106 2.448 0 4.451-.45 4.451-1s-1.425-1-3.167-1c-1.741 0-2.849-.317-2.462-.704.387-.388 1.925-.725 3.417-.75 2.258-.038 2.712-.491 2.712-2.707 0-1.464.337-3.001.75-3.417 2.053-2.068.569-3.422-3.75-3.422-2.806 0-4.5.447-4.5 1.187 0 .653-1.258-.018-2.795-1.491-1.875-1.796-4.371-2.894-7.581-3.334-3.767-.516-4.974-1.152-5.671-2.985-.814-2.142-1.411-2.313-7.433-2.135-3.601.107-7.217.568-8.034 1.026m8.833 48.622c-.647 2.471-7.415 6.14-8.044 4.36-.243-.687-.881-1.25-1.417-1.25-.537 0-.71.431-.384.957.325.527-.719 1.635-2.32 2.463-1.601.829-3.159 2.151-3.462 2.939-.535 1.395-10.731 5.379-11.655 4.554-.255-.227-.333-1.651-.175-3.163.332-3.167-2.111-3.76-5.421-1.317-1.556 1.148-1.693 1.684-.691 2.7 1.498 1.518 1.65 3.867.25 3.867-.55 0-1-.62-1-1.378 0-3.736-3.119-4.087-6.09-.684-3.361 3.85-3.219 3.024-1.822 10.578 1.469 7.947.658 8.484-12.811 8.484-10.812 0-12.385.671-10.863 4.636.581 1.515.762 1.515 2.436 0 2.307-2.088 2.562-2.07 7.847.569 3.63 1.813 4.759 1.991 6.346 1 1.061-.663 3.736-1.205 5.943-1.205H245v9.374l2.786-2.669c3.94-3.775 8.516-4.539 10.47-1.749 1.502 2.144 1.515 2.139 2.627-1.05.614-1.762 1.117-4.487 1.117-6.055 0-2.785-.125-2.851-5.441-2.851-2.993 0-5.708-.433-6.035-.962-1.231-1.991 12.662-7.708 25.642-10.553l8.666-1.899.6-4.543c.331-2.499.613-5.766.627-7.261.015-1.495.659-3.938 1.433-5.428.773-1.491 1.177-3.08.898-3.532-.943-1.526-3.574-.836-4.071 1.068M60 165.5c-1.375.786-4.987 1.445-8.027 1.465-3.041.019-6.416.646-7.5 1.393-1.085.746-3.773 1.9-5.973 2.564-6.145 1.854-11.5 4.289-11.5 5.23 0 1.488 4.763.909 5.362-.652.316-.825 1.685-1.5 3.042-1.5 1.356 0 3.733-.504 5.281-1.119 2.175-.864 13.437-1.8 22.565-1.875.413-.003.75-1.581.75-3.506 0-3.881-.378-4.07-4-2m122 8.378c0 4.904-1.823 7.968-3.956 6.649-.574-.355-1.044-.168-1.044.414S175.848 182 174.441 182c-1.407 0-2.295.428-1.972.951.879 1.421 10.086.716 9.781-.748-.332-1.595.341-1.517 3.227.374 2.981 1.953 6.89 1.513 7.336-.827.239-1.254-.325-1.759-1.99-1.78-1.981-.026-2.078-.174-.66-1.001 2.308-1.348.43-6.188-3.245-8.358-4.239-2.504-4.918-2.053-4.918 3.267m273.18-1.291c-1.734 1.214-2.591 1.317-3.649.438-1.811-1.502-12.374-.919-13.768.76-1.762 2.123-2.352 16.582-.653 15.995 1.047-.361 1.306-2.119 1.051-7.13-.308-6.045-.161-6.65 1.613-6.65 1.685 0 2.025.901 2.481 6.592.853 10.624 4.745 11.759 4.745 1.384 0-4.882.347-6.091 2-6.976 1.854-.992 2.002-.757 2.033 3.215.076 9.766 9.835 14.117 16.567 7.385 8.522-8.522-2.561-21.919-12.42-15.013M20.5 180.761c-2.75.144-6.012.49-7.25.769l-2.25.508V230h4.3c2.365 0 4.727-.426 5.25-.947.522-.521 3.875-1.084 7.45-1.25 6.012-.28 6.494-.472 6.421-2.553-.054-1.529.497-2.25 1.718-2.25 1.26 0 1.609.494 1.166 1.649-.555 1.444-.024 1.566 4.281.989 2.703-.362 9.048-1.059 14.1-1.55 5.052-.49 9.645-1.175 10.206-1.521 1.562-.966.477-40.707-1.141-41.77-1.101-.724-30.627-.748-44.251-.036m62.5.623c-8.281 3.171-9 3.611-9 5.51 0 1.069.787 3.328 1.75 5.019 1.599 2.809 2.196 3.075 6.923 3.081 4.054.005 5.817.547 8.145 2.506 4.143 3.487 6.183 3.101 9.932-1.879 4.538-6.028 4.346-8.422-.74-9.235-2.195-.351-5.139-1.703-6.543-3.004-3.341-3.097-6.182-3.639-10.467-1.998m115 13.725c-1.25 1.696-1.941 1.867-4.147 1.027-4.44-1.691-6.875.83-4.65 4.814 1.485 2.658 1.508 3.05.177 3.05-.916 0-1.392.7-1.19 1.75.244 1.268 1.298 1.75 3.824 1.75 3.639 0 3.719-.172 2.801-6-.348-2.209 2.949-2.318 4.516-.15.468.648.56-.086.21-1.684-.404-1.843-.258-2.609.419-2.191.617.381 1.04-.399 1.04-1.916 0-3.063-.967-3.207-3-.45m-27.333.558c-.367.366-.667 3.256-.667 6.421v5.754l7.589.329c5.069.22 7.92-.072 8.586-.877 1.238-1.497.229-3.294-1.849-3.294-1.392 0-1.386-.26.059-2.465 2.501-3.817 2.071-5.535-1.385-5.535-2.972 0-3 .052-3 5.53v5.53l-3-2.218c-2.421-1.79-3-2.954-3-6.03 0-3.591-1.486-4.993-3.333-3.145m167.938 4.921c-1.045 2.722-.686 36.244.395 36.912.55.34 1 .141 1-.441s.45-1.059 1-1.059 1 .691 1 1.535c0 .845.788 2.739 1.75 4.211 1.242 1.899 1.75 4.692 1.75 9.63 0 7.338 1.338 9.47 3.276 5.217.801-1.758 2.06-2.549 4.422-2.776l3.302-.317v-6.534c0-4.931.491-7.223 2-9.342 3.576-5.021 5.497-9.073 5.508-11.624.006-1.375 1.12-4.881 2.475-7.792 2.258-4.849 2.32-5.342.74-5.903-6.627-2.351-20.822-8.586-23.04-10.12-4.475-3.097-4.95-3.233-5.578-1.597m-40.13 8.492c-.363 1.144-.103 4.883.578 8.309 1.229 6.186 1.219 6.248-1.518 8.985-2.989 2.989-5.535 2.858-5.535-.284 0-2.852-1.732-3.496-4.509-1.676-3.458 2.265-4.223 2.047-8.147-2.324-2.795-3.113-4.155-3.877-6.677-3.75l-3.167.16-.277 14.25-.278 14.25 2.778-.015c4.372-.024 6.046-1.49 4.519-3.954-1.026-1.655-1.012-2.031.075-2.031 1.79 0 5.396 4.013 5.842 6.5.243 1.358 1.294 2.107 3.276 2.333 1.605.184 4.083 1.534 5.507 3 3.628 3.738 10.734 9.167 11.999 9.167.717 0 1.059-8.169 1.059-25.311 0-24.091-.098-25.417-2.039-27.5-2.507-2.691-2.665-2.696-3.486-.109m43.533 6.411c-1.565 1.885-2.346 11.182-1.009 12.008.55.341 1.001 1.894 1.001 3.453 0 3.498 2.861 4.959 4.724 2.411.702-.96 1.283-4.247 1.291-7.304.009-3.058.452-6.234.985-7.059.828-1.282.972-1.246.985.25.018 2.13 1.346 2.261 2.979.294 1.684-2.03.273-3.82-2.469-3.132-1.51.379-2.481.067-2.859-.919-.738-1.923-4.033-1.924-5.628-.002m138.181 4.285c-3.151.517-3.715 2.596-1.799 6.633 1.959 4.129 1.996 5.026.262 6.465-1.549 1.285-3.957-.867-5.072-4.532-.361-1.186-1.314-2.41-2.118-2.718-2.19-.84-1.776-3.624.538-3.624 1.1 0 2-.45 2-1 0-.591-3.611-1-8.833-1h-8.834v4.326c0 5.792-.733 6.674-5.546 6.674-4.528 0-14.565-4.259-15.446-6.554-.305-.795-1.455-1.446-2.555-1.446-1.413 0-1.822.464-1.393 1.582.334.87.607 2.445.607 3.5 0 1.568.723 1.918 3.965 1.918 3.093 0 4.226.495 5.152 2.25 3.529 6.688 7.792 7.761 10.446 2.629 1.477-2.858 3.776-3.758 4.91-1.923.325.526 1.257.701 2.07.389 1.01-.388 1.299-.097.911.915-.324.844.128 1.749 1.052 2.104.891.342 1.329 1.095.971 1.673-.357.578-.139 1.666.485 2.418.78.94.807 1.57.087 2.015-1.552.959-3.271-.449-2.62-2.145.311-.811-.078-2.117-.864-2.902-1.986-1.986-2.753.717-2.503 8.821.294 9.552-.857 48.024-1.497 50.006-1.286 3.983-1.351 4.474-.722 5.414.361.54 2.47.799 4.686.575 3.598-.363 4.018-.684 3.917-2.989-.074-1.672-.877-2.865-2.28-3.384-2.669-.988-2.8-2.467-.277-3.127 2.882-.753 4.176.569 4.701 4.806.566 4.556.409 4.34 3.4 4.683 1.73.199 2.52-.325 2.938-1.948.422-1.639.952-1.983 2.025-1.316.799.498 2.712.653 4.25.345 2.361-.472 2.797-.228 2.797 1.566 0 1.458.627 2.125 2 2.125 2.392 0 2.653-2.621.497-5.003-1.335-1.475-1.336-2.211-.011-6.579 1.61-5.306 2.309-70.918.764-71.66-.413-.198-1.79-.19-3.061.018m-305.695 11.233c-.342.555-.351 1.867-.018 2.916.333 1.049.222 2.144-.247 2.433-1.112.688-.728 5.353.754 9.142 1.101 2.816.953 3.191-2.405 6.106-3.481 3.022-3.578 3.3-3.578 10.258 0 7.124.009 7.148 2.25 5.894 3.355-1.876 3.718-2.741 3.735-8.886.017-6.238 1.784-9.06 4.001-6.389 1.012 1.22.942 1.978-.368 3.977-1.989 3.036-2.06 4.54-.216 4.54.771 0 1.885 1.384 2.474 3.075 1.148 3.293 3.124 3.14 3.124-.242 0-1.127 2.069-6.246 4.599-11.377 4.615-9.36 4.875-11.456 1.424-11.456-1.023 0-2.767-1.463-3.875-3.25-4.271-6.887-9.643-9.995-11.654-6.741m-143.483 3.743c-2.279 1.141-3.794 2.789-4.368 4.748-.483 1.65-1.234 3.715-1.669 4.59-.435.874-1.112 6.274-1.503 12-.811 11.845-2.402 16.91-5.313 16.91-2.403 0-3.287 2.103-2.513 5.976.455 2.274-.012 3.671-2.027 6.066-1.69 2.009-2.59 4.236-2.539 6.285.043 1.745.306 2.611.583 1.923.6-1.487 7.945-1.694 8.838-.25.34.55 1.69 1 3 1s2.66-.45 3-1c.34-.55 1.691-1 3.002-1 2.874 0 5.498-3.419 5.498-7.163 0-3.565 1.167-4.152 4.646-2.338 3.648 1.903 4.328 1.861 7.336-.451 1.795-1.379 2.834-1.616 3.75-.855 1.232 1.022 1.38.914 1.643-1.193.069-.55.511-1.001.982-1.003.472-.002.975 3.968 1.119 8.821.145 4.854.771 9.776 1.393 10.938.622 1.162 1.131 3.717 1.131 5.678 0 2.539.442 3.566 1.535 3.566.845 0 2.645.727 4.002 1.616 1.525 1 3.324 1.361 4.715.948 1.236-.367 5.055-1.05 8.487-1.518 4.425-.602 7.144-1.611 9.351-3.469 2.728-2.294 3.699-2.541 7.841-1.992l4.728.627 1.669-5.356c3.592-11.528 5.053-21.808 3.344-23.518-.404-.403-1.957-.039-3.453.81-1.771 1.005-3.59 1.282-5.219.797-1.375-.41-4.807-.79-7.628-.845-3.155-.062-5.59-.658-6.331-1.551-.663-.798-3.305-1.764-5.873-2.147-2.567-.382-5.628-1.322-6.802-2.088-1.173-.765-2.523-1.303-3-1.194-.476.109-1.541-.035-2.366-.32-8.719-3.008-13.461-3.233-19.315-.915-1.548.613-3.011 1.115-3.25 1.115-1.25 0-.157-5.723 1.736-9.091 1.747-3.108 1.962-4.321 1.103-6.207-.588-1.29-.829-4.469-.536-7.066.429-3.812.145-5.145-1.478-6.928-1.106-1.214-2.532-3.22-3.17-4.458-1.395-2.704-1.637-2.724-6.079-.498m181.212 8.805c-1.71 1.197-2.223 2.547-2.223 5.845 0 3.004-.593 4.825-1.98 6.08-3.104 2.809-3.523 7.573-1.107 12.575 2.456 5.082 2.682 8.777.587 9.581-.944.363-1.512 1.926-1.532 4.219-.017 2.004-.685 4.507-1.484 5.562-1.401 1.852-1.523 1.856-3.443.118-1.094-.99-2.226-2.544-2.514-3.453-.701-2.206-5.72-5.084-8.868-5.084-2.337 0-2.489.272-1.965 3.5.515 3.177.348 3.501-1.813 3.514-1.31.007-3.385.283-4.613.612-1.78.477-2.443.043-3.274-2.141-.929-2.445-1.415-2.678-4.528-2.173-1.917.311-4.189 1.268-5.048 2.127-2.266 2.266-9.572 1.993-13.825-.517-3.469-2.046-3.671-2.052-13.308-.405-5.382.92-12.485 1.748-15.785 1.839-3.3.09-6.499.485-7.109.876-.684.439-1.708-.81-2.67-3.26-1.995-5.079-3.408-5.053-3.897.072-.284 2.987.09 4.473 1.433 5.689 1.244 1.125 1.64 2.461 1.253 4.224-.4 1.819.179 3.589 1.969 6.015 2.187 2.964 2.448 4.096 1.9 8.232-.587 4.425-.472 4.796 1.492 4.796 1.171 0 2.129-.451 2.129-1.002 0-1.045 9.836-.71 15.704.536 2.868.608 3.273.406 3.859-1.927.759-3.026 5.493-3.657 9-1.2 1.105.773 4.152 1.728 6.772 2.121 4.451.667 4.632.807 2.754 2.122-1.217.852-3.017 1.155-4.562.767-1.408-.353-3.163-.134-3.913.489-.748.62-2.093.848-2.987.504-.895-.343-2.387-.332-3.316.024-2.35.902 7.06 7.566 10.684 7.566 1.453 0 4.861.627 7.573 1.393 6.104 1.723 13.432 1.991 13.432.491 0-1.045.605-.98 6.76.728 1.866.517 2.445.099 3.313-2.392 1.169-3.353 3.463-4.332 8.312-3.545 2.918.474 3.197.813 2.814 3.425-.253 1.719.028 2.9.688 2.9.612 0 1.113.675 1.113 1.5 0 .993-.993 1.5-2.941 1.5-1.618 0-3.219.45-3.559 1-.34.55-2.365 1-4.5 1s-4.16.45-4.5 1c-.34.55-1.7 1-3.022 1-3.16 0-13.478 3.882-13.478 5.072 0 1.879 17.121-.041 20.635-2.314.89-.575 12.569-2.643 15.468-2.738 1.03-.034-.181 10.317-1.576 13.48-.728 1.65-1.817 5.7-2.42 9-2.116 11.588-8.571 17.092-23.652 20.168-9.041 1.843-14.301.052-15.912-5.418-.526-1.788-1.539-3.25-2.25-3.25-1.286 0-1.765-1.789-1.44-5.383.094-1.036-.288-2.436-.848-3.111-.56-.675-1.202-3.827-1.427-7.005-.517-7.326-2.844-9.422-3.578-3.224-.403 3.402-.928 4.284-2.703 4.536-1.211.173-2.472 1.164-2.802 2.203-.674 2.125 1.165 13.48 2.625 16.208.764 1.428.556 1.776-1.059 1.776-2.2 0-4.385-3.481-5.535-8.818-.954-4.427-2.558-4.818-7.349-1.794-5.573 3.518-5.664 3.974-1.669 8.29 1.946 2.102 3.801 4.834 4.123 6.072.693 2.661.306 2.586 4.497.865 1.855-.761 4.835-1.16 6.622-.886 3.167.485 4.595-1.002 2-2.083-.887-.369-.686-.975.691-2.083 2.683-2.161 2.658-2.178 6.383 4.224 3.086 5.303 3.243 5.989 2.181 9.56-1.319 4.438-1.214 4.641 2.629 5.09 4.014.469 4.038.485 2.371 1.539-1.287.813-1.227 1.141.43 2.353 1.882 1.376 1.876 1.434-.283 2.59-2.726 1.459-1.913 3.081 1.545 3.081 1.619 0 4.195-1.489 6.919-4 4.775-4.401 7.938-5.32 6.884-2-.588 1.852-.18 2 5.516 2 6.982 0 7.904 1.853 1.657 3.33-4.142.98-4.628 2.088-1.621 3.698 3.021 1.617 10.829-1.279 14.97-5.55 1.854-1.913 4.154-3.478 5.112-3.478 1.248 0 1.689-.72 1.554-2.534-.249-3.349 4.782-6.875 6.37-4.466.544.825.804 2.577.577 3.894-.227 1.317.159 3.792.859 5.5.699 1.708 2.015 7.528 2.923 12.932 1.621 9.645 1.614 9.888-.403 13.151-2.459 3.978-3.798 4.595-8.37 3.853-2.342-.38-4.224-.037-5.781 1.053-1.269.889-3.238 1.617-4.375 1.617-1.598 0-2.058.624-2.027 2.75.036 2.548-.254 2.75-3.961 2.75-3.388 0-4.049.345-4.32 2.252-.399 2.808-3.6 4.61-6.773 3.814-2.196-.551-2.407-.3-2.407 2.858 0 2.787-.585 3.809-3 5.235-1.65.975-3 2.361-3 3.081 0 .72-1.131 1.739-2.512 2.265-1.382.525-3.025 2.08-3.652 3.456-.893 1.959-1.648 2.373-3.488 1.912-2.716-.682-3.142.976-.841 3.276 1.032 1.032 2.449 1.3 4.5.85 3.577-.786 4.089 1.118 1.009 3.755-1.647 1.411-1.81 2.158-.959 4.396 1.07 2.814.447 7.571-1.374 10.486-.767 1.229-.727 2.106.144 3.156.664.8.927 2.187.583 3.081-.455 1.185-.052 1.627 1.483 1.627 1.159 0 2.107-.45 2.107-1s1.328-1 2.95-1c1.657 0 3.341-.697 3.84-1.589.804-1.437 1.054-1.424 2.617.138 1.636 1.637 1.879 1.616 4.62-.411 3.593-2.656 3.626-2.655 4.35.226.804 3.207 5.371 2.488 6.242-.983.694-2.762.758-2.784 3.425-1.131 1.661 1.029 2.205.985 3.081-.25.895-1.262.974-1.222.501.25-.31.963-.312 1.75-.005 1.75 1.142 0 4.314-4.562 4.346-6.25.018-.962.757-1.75 1.641-1.75 1.196 0 1.455.612 1.01 2.385-.495 1.974-.162 2.469 1.931 2.869 3.553.679 9.703-1.652 10.791-4.09.936-2.098 3.521-3.637 4.486-2.671.298.297.043 1.038-.565 1.646-.607.607-.867 1.725-.576 2.483.797 2.077 4.097 1.654 5.35-.687.878-1.642 1.395-1.823 2.522-.888.78.647 2.065.928 2.857.624.792-.304 1.978.096 2.635.888.658.793 2.266 1.441 3.573 1.441 1.308 0 2.378.48 2.378 1.067s.787.823 1.75.523c2.828-.88 4.915.904 3.313 2.834-1.644 1.981-2.947 1.991-5.107.036-1.865-1.687-12.956-2.924-12.956-1.445 0 .503 1.012 1.454 2.25 2.113s3.9 3.038 5.916 5.285c2.825 3.149 3.943 3.818 4.872 2.915.663-.644 1.847-.925 2.632-.624.784.301 2.052-.297 2.816-1.329 1.357-1.83 1.425-1.828 2.825.062 1.403 1.893 1.452 1.885 2.152-.322.475-1.494.179-2.853-.873-4.015-1.648-1.821-1.987-3.901-1.04-6.37.573-1.494 5.018-1.238 5.997.346.284.46 1.178.583 1.985.273.915-.351 1.468.042 1.468 1.044 0 2.281 1.665 1.995 2.29-.393.353-1.351 1.364-2 3.116-2 1.427 0 2.594-.45 2.594-1s-1.139-1-2.531-1c-2.727 0-4.52-2.732-2.581-3.931.649-.401.891-1.48.539-2.399-.435-1.133-.124-1.67.966-1.67.884 0 1.607.45 1.607 1s2.025 1 4.5 1c3.833 0 4.5-.296 4.5-2 0-2.881 3.192-2.535 6.424.696l2.696 2.697-3.31 1.753c-1.82.964-3.889 2.055-4.597 2.425-.708.369-2.161-.119-3.229-1.086-2.467-2.232-3.803.116-1.992 3.501 1.383 2.583-.159 5.014-3.18 5.014-4.062 0-6.07 1.959-5.407 5.275.499 2.496.086 3.656-2.143 6.023l-2.762 2.932 3.722-.411c3.397-.375 3.705-.206 3.527 1.938-.156 1.892-.624 2.24-2.41 1.792-2.896-.727-3.323.15-2.622 5.379.413 3.075 1.12 4.478 2.432 4.821 1.018.266 1.851 1.107 1.851 1.868 0 1.591 2.579 1.874 3.5.383.34-.55 1.491-1 2.559-1s1.941.45 1.941 1-.486 1-1.079 1c-.663 0-.842 1.084-.463 2.811.443 2.014.105 3.275-1.193 4.449-2.199 1.99-3.732 1.158-4.63-2.51-.921-3.761-2.635-3.471-2.635.445 0 3.877 4.302 8.805 7.687 8.805 2.521 0 2.944.969 1.191 2.722-1.186 1.186-2.325.976-7.733-1.426-2.033-.903-4.396-1.219-6-.804-7.547 1.955-10.575 1.744-13.069-.911-1.334-1.42-3.035-2.581-3.782-2.581-.746 0-1.615-.672-1.93-1.494-.741-1.932-2.364-.933-2.364 1.455 0 1.897-5.399 4.529-7.115 3.468-.487-.301-.885-.07-.885.512 0 .582 1.688 1.079 3.75 1.103 7.757.091 16.619 3.594 16.041 6.339-.129.615 1.007 2.439 2.526 4.054 2.068 2.202 2.617 3.586 2.191 5.525-.448 2.04.126 3.233 2.712 5.642 4.841 4.508 11.952 9.391 13.727 9.428 1.999.041 5.053 2.355 5.053 3.828 0 .627.659 1.14 1.465 1.14 1.687 0 3.904 3.594 3.059 4.961-1.093 1.769-7.939-1.48-8.541-4.054-.483-2.063-1.487-2.579-7.023-3.606-11.977-2.223-16.373-3.314-17.369-4.31-1.39-1.39-8.944-1.238-10.391.209-1.443 1.443-1.601 6.497-.218 6.967 1.34.454-.292 6.298-1.804 6.458a96.82 96.82 0 0 1-3.107.25c-1.06.069-2.635.831-3.498 1.695-2.774 2.774-5.764 1.39-7.357-3.408-2.012-6.055-3.679-4.024-2.757 3.358l.709 5.671 3.416-.641c3.032-.569 3.416-.398 3.416 1.521 0 1.779.452 2.076 2.553 1.674 2.149-.411 2.505-.152 2.25 1.634-.169 1.184.58 2.879 1.697 3.838 1.989 1.707 1.988 1.717-.22 1.75-1.22.018-3.822-.867-5.78-1.967-7.733-4.343-10.738-2.48-10.689 6.629.032 6.069-.124 6.652-1.339 4.996-1.753-2.39-4.462-1.431-4.502 1.594-.028 2.08-.124 2.121-1.084.47-.579-.996-.841-2.364-.581-3.042.26-.677-.143-2.072-.895-3.101-1.606-2.197-.828-6.47 1.506-8.264 1.439-1.107 1.433-1.221-.058-1.25-.902-.018-1.924-1.157-2.269-2.532-.345-1.375-1.212-2.5-1.928-2.5-.715 0-1.944-1.462-2.731-3.25-.97-2.204-2.235-3.358-3.93-3.585-1.375-.184-2.927-.746-3.45-1.25-.522-.503-2.125-.915-3.562-.915-1.736 0-3.347-.995-4.805-2.966-1.734-2.345-3.226-3.104-7.127-3.621-2.761-.366-5.168-1.262-5.464-2.034-.762-1.986-3.58-1.7-3.66.371-.055 1.419-.268 1.336-1.126-.442-1.2-2.483-4.088-3.961-4.62-2.365-.589 1.767-2.294 1.179-1.98-.682.49-2.898-8.051-5.194-9.902-2.662-1.221 1.669-1.136 1.997.733 2.831 1.449.646 2.341.576 2.835-.222.507-.821 1.2-.605 2.342.729 2.086 2.436 1.368 3.063-3.509 3.063h-3.963l.64 4.822c.352 2.653.339 5.124-.029 5.492-1.147 1.147-3.353-1.443-3.353-3.936 0-1.308-.427-2.378-.948-2.378-1.785 0-6.052-4.727-6.052-6.704 0-1.126 1.054-2.455 2.452-3.092 1.348-.615 3.115-2.4 3.926-3.968 1.378-2.666 1.312-3.058-1.024-6.043-2.19-2.799-6.432-4.746-4.885-2.243.323.522-.365 1.459-1.529 2.082-1.564.837-1.963 1.742-1.529 3.471.689 2.742-.229 5.728-1.516 4.932-.492-.304-.895-1.954-.895-3.665 0-1.712-.64-3.823-1.421-4.691-.782-.869-1.569-2.216-1.75-2.996-.181-.779-1.116-2.241-2.079-3.25-.963-1.008-1.77-2.396-1.794-3.083-.025-.687-3.737-3.09-8.25-5.338-4.513-2.249-8.11-4.563-7.992-5.143.21-1.034-15.376-9.269-17.543-9.269-1.614 0-3.417-3.73-2.174-4.498.552-.341 1.003-1.866 1.003-3.39 0-3.704 4.773-10.639 10.956-15.917 2.774-2.368 5.044-4.731 5.044-5.25 0-1.474-2.618-1.11-4 .555-.685.825-2.09 1.5-3.122 1.5-1.052 0-1.878.701-1.878 1.594 0 .876-.801 1.803-1.78 2.059-1.648.431-5.205 5.663-9.478 13.941-2.033 3.94-1.844 3.904-9.443 1.804-3.19-.882-8.274-2.014-11.299-2.517a610.445 610.445 0 0 1-8.5-1.469c-1.65-.306-5.925-.91-9.5-1.342l-6.5-.786 5.691-.142c6.558-.164 8.128-1.602 4.703-4.307-3.912-3.089-8.848-4.835-13.67-4.835-4.004 0-4.961.465-8.224 4-2.031 2.2-4.437 4-5.346 4-2.275 0-2.085 3.16.346 5.77 3.219 3.455 2.644 5.18-1.066 3.195-2.958-1.584-2.442.692 1.063 4.685l2.997 3.413-.377 31.906c-.359 30.413-.476 32.066-2.497 35.337-2.01 3.252-2.12 4.709-2.12 28.123v24.694l-4.382-.658c-3.033-.454-4.619-.273-5.153.591-.897 1.452-.737 35.695.175 37.17.337.546.74 8.177.894 16.958.155 8.781.584 16.269.953 16.641.369.371 6.373 1.003 13.342 1.404 14.663.845 13.875.84 30.04.166 11.106-.464 12.544-.329 14.078 1.318 1.495 1.604 3.266 1.817 14.131 1.701l28.878-.305c13.469-.14 16.774-.46 18.212-1.761 2.645-2.394 4.832-.997 4.832 3.085 0 2.326.595 3.815 1.776 4.447 2.333 1.249 5.224-.373 5.224-2.93 0-1.072.45-1.95 1-1.95 1.586 0 1.161 5.165-.585 7.094-.871.963-1.831 3.586-2.131 5.828-.536 3.99-.482 4.078 2.468 4.078 2.174 0 3.161.558 3.538 2 .306 1.17 1.364 2 2.549 2 1.166 0 2.303.872 2.678 2.055.63 1.985.71 1.993 2.318.227 5.601-6.15 17.673-5.037 22.155 2.043 1.636 2.587 3.023 10.549 1.952 11.211-.414.255-4.732.749-9.597 1.096-10.255.733-10.237.725-7.851 3.362 2.318 2.561 5.691 2.564 8.006.006 2.195-2.425 8.274-2.753 9.141-.492.319.829-.15 2.62-1.04 3.979-3.751 5.724-13.563 7.503-20.103 3.645-3.437-2.028-3.483-2.029-4.52-.091-.768 1.435-2.099 1.959-4.974 1.959-4.927 0-8.004-2.967-8.004-7.72 0-4.306-1.113-4.674-11.524-3.806-6.183.515-8.476 1.078-8.476 2.081 0 3.09 6.825 4.566 9 1.945 1.417-1.708 8.539-2.055 9.522-.464.353.57-1.143 2.82-3.323 5-4.956 4.957-12.416 5.639-18.301 1.675-4.676-3.15-7.685-11.311-6.209-16.841.786-2.945.741-3.87-.189-3.87-1.573 0-2.549 8.122-1.822 15.167.641 6.213-.742 8.186-5.368 7.655l-2.81-.322-.285-10.853c-.258-9.819-.472-10.901-2.25-11.366-2.577-.674-2.557-4.329.035-6.549 1.1-.942 2-2.871 2-4.288 0-3.661 1.743-6.444 4.035-6.444 1.511 0 1.965-.684 1.965-2.965 0-3.795-2.722-5.314-8.288-4.624-2.317.287-18.387.785-35.712 1.107-33.983.631-43.006 1.137-44.385 2.486-.513.502-.414 2.738.235 5.316.648 2.574 1.159 14.041 1.211 27.204.08 20.396.248 22.596 1.615 21.228 1.282-1.281 1.511-5.061 1.43-23.639-.062-14.072.265-22.113.899-22.113.626 0 .995 7.199.995 19.418 0 19.853.295 22.582 2.442 22.582 1.519 0 6.546-5.523 6.591-7.241.054-2.038 4.19-6.45 4.695-5.009.681 1.94 2.272 1.472 2.272-.668 0-2.812 1.051-5.081 2.357-5.088.629-.004 1.91-1.354 2.846-3 .966-1.698 2.537-2.994 3.628-2.994 2.572 0 4.528-2.518 3.881-4.995-.324-1.238-.034-2.005.759-2.005.706 0 1.883-.722 2.615-1.604.733-.882 2.404-2.012 3.716-2.511l2.383-.906-2.092-3.547c-1.151-1.95-2.093-4.033-2.093-4.629 0-.595-.788-1.68-1.75-2.411-2.292-1.74-.201-1.767 3.127-.04 2.207 1.145 8.623 8.08 8.623 9.321 0 .218-.736 1.521-1.635 2.893-2.312 3.528-1.272 3.875 3.756 1.254 4.763-2.483 10.124-2.789 14.813-.848 4.985 2.066 5.93 4.627 6.143 16.655l.192 10.873-3.634.31c-2.294.196-3.635-.123-3.635-.865 0-.781-.826-.634-2.465.44-4.122 2.701-13.212 1.16-15.676-2.656-.352-.546-1.316.529-2.142 2.389-2.692 6.06-2.758 6.839-.689 8.132 3.89 2.429.353 6.564-4.56 5.331-1.29-.323-2.625-.137-2.966.415-.349.566.43 1.004 1.784 1.004 5.086 0 7.443 6.126 3.67 9.54-1.742 1.576-2.622 1.695-5.952.807-2.775-.741-4.224-.727-4.997.046-1.441 1.441-2.971-.935-2.992-4.643-.029-5.302-3.924-2.2-4.232 3.37-.103 1.859-.096 5.118.015 7.243l.202 3.863 23.25-.629c12.787-.346 31.575-.834 41.75-1.084 34.736-.855 54.496-1.563 60.75-2.176 5.909-.58 6.25-.497 6.25 1.525 0 1.176.338 2.175.75 2.219.412.045 1.98.172 3.482.282 4.251.313 5.67 2.317 2.977 4.203-3.581 2.508-1.973 11.26 1.657 9.017 2.26-1.397 4.134.685 4.134 4.594 0 3.537-.241 3.928-2.25 3.643-1.42-.202-2.364-1.123-2.56-2.497-.387-2.719-3.056-5.14-4.016-3.643-.371.578-1.686 1.366-2.924 1.753-1.238.386-2.25 1.358-2.25 2.159 0 3.919-9.697 3.583-11.487-.398-1.327-2.95-2.513-2.773-2.513.376 0 3.214-4.25 3.153-4.855-.07-.575-3.059-2.089-3.527-9.129-2.824-5.145.514-6.863 1.131-8.322 2.986-2.464 3.133-6.79 3.069-9.839-.145-2.924-3.082-3.272-3.092-4.621-.13-.876 1.922-1.735 2.332-4.411 2.109a162.933 162.933 0 0 0-6.456-.386c-2.238-.079-3.283-.681-3.657-2.11-.526-2.014-2.71-2.84-2.71-1.026 0 2.336-5.879 4.153-8.682 2.685-2.45-1.284-4.113-5.659-2.151-5.659.458 0 .833-.9.833-2 0-1.259-.667-2-1.8-2-2.776 0-4.15 2-3.524 5.13.585 2.925-2.563 5.708-3.449 3.05-.552-1.654-2.857-1.468-5.812.468-2.37 1.553-2.784 1.523-7.215-.527-3.744-1.731-5.348-1.983-7.884-1.236-3.618 1.065-15.316.284-15.316-1.024 0-.473.792-.861 1.76-.861 1.894 0 7.24-4.46 7.24-6.04 0-1.502 2.157-1.128 4.207.728 1.582 1.431 2.365 1.507 5.15.5 1.807-.653 4.66-1.188 6.342-1.188 1.681 0 3.567-.615 4.19-1.367 2.457-2.959-14.726-3.865-39.389-2.076-12.076.876-13.07 1.103-13.987 3.193-1.307 2.978-2.513 2.858-2.513-.25 0-2.084-.476-2.5-2.862-2.5-2.735 0-2.892.252-3.529 5.671-.408 3.467-.267 6.071.362 6.7.638.638 1.031 8.837 1.035 21.579l.007 20.55 15.883 16.25L56.778 900l38.861.001c46.237.001 64.956 1.284 63.771 4.372-.887 2.312 4.481 3.928 7.178 2.162 1.288-.844 2.975-1.535 3.75-1.535 2.227 0 10.662 3.992 10.662 5.047 0 1.85 3.773.929 4.29-1.047.34-1.3.03-2-.884-2-2.237 0-1.629-1.707.844-2.37 1.238-.331 4.613-.609 7.5-.616 2.887-.008 5.25-.464 5.25-1.014s.008-1.337.017-1.75c.009-.413-2.803-1.01-6.25-1.327l-6.267-.578 8.191-.172c4.505-.095 8.469-.623 8.809-1.173.34-.55 1.647-1 2.904-1 5.142 0 8.603-7.534 8.32-18.111-.212-7.95-.109-8.405 1.966-8.701 1.522-.216 2.284-1.119 2.5-2.961.254-2.173 1.12-2.901 4.81-4.041 4.914-1.518 24.248-3.392 35.75-3.464l7.25-.045v-19.01c0-15.651-.27-19.308-1.528-20.698-1.148-1.268-1.29-2.317-.571-4.208.696-1.832.572-3.069-.458-4.538-1.798-2.567-.014-3.516 4.222-2.245 1.559.468 2.273.889 1.585.936-.687.047-1.25.931-1.25 1.964 0 2.27 1.581 3.627 5.25 4.503 2.251.538 2.75.319 2.75-1.207 0-1.025.9-2.679 2-3.674 1.86-1.684 2-1.69 2-.085 0 1.216.663 1.63 2.25 1.405 1.477-.21 2.25-1.007 2.25-2.32 0-1.54.982-2.218 4.268-2.946 8.029-1.779 4.09-3.055-9.351-3.029-33.534.066-55.799 1.277-57.137 3.107-1.215 1.661-1.28 1.659-1.28-.042 0-1.51-.708-1.735-4.5-1.433-4.091.325-4.5.155-4.5-1.865 0-3.458 3.484-4.808 5.977-2.315 2.173 2.173 4.998 2.576 7.787 1.111.955-.501 4.436-1.441 7.736-2.088s6.711-1.543 7.58-1.99c2.433-1.254 14.598-2.327 16.07-1.418 1.397.864 43.107.599 71.601-.454l17.251-.638-.001 2.333c-.001 2.995 2.377 2.341 2.834-.778.294-2.01.755-2.221 3.775-1.731 3.156.512 3.644.235 5.919-3.37 1.364-2.16 2.382-4.271 2.263-4.691-.119-.42.365-1.814 1.077-3.099 1.823-3.292.76-3.748-2.811-1.205-6.135 4.368-1.178-3.744 6.196-10.142 3.199-2.775 3.964-3.969 3.103-4.843-.866-.879-1.714-.808-3.5.296-1.296.8-5.732 2.517-9.857 3.814-4.535 1.427-6.709 2.507-5.5 2.735 5.137.964 3.173 2.109-3.585 2.089-5.635-.017-9.628.712-16.636 3.035-5.072 1.681-10.247 3.028-11.5 2.994l-2.279-.064 2.294-.92c1.899-.762 2.114-1.257 1.25-2.871-1.462-2.732-1.341-17.385.156-18.882.66-.66 2.46-1.2 4-1.2 3.144 0 4.06-3.302 1.218-4.393-2.457-.943-3.418-.727-3.418.768 0 .756-1.406 1.656-3.125 2-5.14 1.028-5.875.786-5.875-1.934 0-1.407-.408-2.307-.906-1.999-.498.308-.685 1.407-.414 2.442.656 2.507-3.152 5.116-7.468 5.116-6.747 0-7.212.83-7.212 12.869 0 5.938.229 11.026.508 11.306.28.28 3.542-.079 7.25-.797 8.19-1.585 11.242-1.693 11.242-.397 0 .539-1.238 1.277-2.75 1.638s-3.235 1.036-3.829 1.499c-.593.463-3.518 1.043-6.5 1.287-2.981.245-7.446.975-9.921 1.622-3.837 1.004-7.061 1.395-17 2.066-.825.056-2.512-.22-3.75-.613-1.849-.586-2.25-.336-2.25 1.403 0 1.349-.635 2.117-1.75 2.118-1.578.001-1.75-1.293-1.75-13.172v-13.174l-4.5-.077-4.5-.078-.506-10.5c-.939-19.492.468-23.499 7.02-19.992 1.592.851 2.503.875 3.293.085.601-.601 3.301-1.093 6-1.093 4.281 0 4.815-.223 4.187-1.75a40.476 40.476 0 0 1-1.224-3.5c-.277-.962-1.299-1.75-2.272-1.75-.972 0-2.505-1.125-3.406-2.5-2.117-3.23-7.505-3.548-8.305-.489-.763 2.917-4.941 3.581-10.379 1.65-4.908-1.743-27.394-1.575-29.188.219-.445.445-.677 4.275-.515 8.511l.295 7.702 4.334-4.046c6.472-6.044 12.434-5.906 18.591.429 3.117 3.207 4.471 5.509 4.776 8.116.641 5.494-.913 6.408-10.894 6.408h-8.551l1.487 2.25c2.025 3.066 5.455 3.383 8.245.761 3.079-2.893 8.87-2.506 9.316.622.559 3.92-6.238 8.368-12.782 8.363-5.504-.003-12.022-2.704-12.022-4.981 0-2.305-1.892-.801-2.184 1.735-.293 2.548-.684 2.77-5.316 3.022-2.75.15-7.283.526-10.073.835-6.507.721-10.483-2.248-12.948-9.67-3.782-11.387 2.333-20.615 13.071-19.724l5.537.459-.294-6.086-.293-6.086-5.5-.683c-3.63-.451-6.35-.267-8 .543-3.183 1.563-10.046 1.937-12 .655-1.149-.754-.753-.988 1.696-1l3.197-.015-.197-5.75c-.188-5.519-.096-5.75 2.304-5.75 2.076 0 2.527.509 2.658 3 .087 1.65.2 3.563.25 4.25.119 1.623 12.989 1.71 16.499.11 2.066-.941 2.465-1.767 2.297-4.75-.184-3.254.067-3.641 2.546-3.926 2.589-.298 2.75-.085 2.75 3.627 0 4.954 1.754 6.513 6.355 5.65 4.396-.824 5.516-3.179 2.126-4.468-4.022-1.53-3.329-4.993 1-4.993 3.579 0 3.798.3 4.747 6.5.275 1.793 1.131 2.015 8.289 2.141 4.391.077 12.258.218 17.483.312 5.225.095 11.525-.032 14-.282 2.475-.25 5.034-.022 5.686.507 2.611 2.115 5.523-.982 4.822-5.128-.588-3.483-.427-3.854 1.939-4.447 2.06-.517 2.468-1.096 2.023-2.875-.417-1.668.02-2.482 1.737-3.239 1.674-.739 2.242-1.751 2.105-3.75-.164-2.387.177-2.739 2.652-2.739 2.236 0 3.056-.618 3.853-2.906 1.672-4.795 5.342-4.798 14.419-.01 2.726 1.438 18.515 1.161 19.018-.334.336-1 1.117-1 3.904 0 5.662 2.031 10.842 1.383 10.842-1.357 0-1.8.214-1.781 8.176.732 8.969 2.831 9.642 2.469 9.337-5.022-.197-4.84.078-6.156 1.37-6.566 1.468-.466 2.237-11.824 1.086-16.037-.151-.55-.361-1.45-.468-2-.107-.55-.563-1.857-1.014-2.904-.463-1.078-.339-3.699.286-6.038.608-2.274.996-6.527.862-9.452-.188-4.09.114-5.426 1.31-5.785.855-.257 2.336-.884 3.291-1.394 4.251-2.269 4.543-1.559 5.079 12.323 1.054 27.302 1.78 32.746 4.108 30.814.974-.809 1.599-.838 2.057-.096.362.585 1.025.838 1.474.561.448-.278 8.292-.552 17.431-.609l16.615-.105.175-2.907c.096-1.6.254-4.177.35-5.729.096-1.551.6-3.58 1.12-4.509.52-.929.681-3.822.359-6.429-.892-7.219 2.476-20.51 4.405-17.387.41.661 1.702.426 3.632-.663 2.643-1.491 3.113-1.514 3.974-.191 1.75 2.685 3.235 8.358 4.057 15.5.444 3.85 1.114 9.578 1.489 12.728.659 5.527.591 5.764-1.93 6.722-3.684 1.401-5.631.344-5.631-3.057 0-1.591-.506-2.893-1.125-2.893-.728 0-.903 1.109-.496 3.143.374 1.87.147 3.723-.561 4.576-1.021 1.231.071 1.366 7.747.964 11.4-.598 15.251-1.471 16.461-3.731.794-1.485 1.53-1.653 4.058-.928 4.684 1.344 10.106-2.136 9.667-6.203-.188-1.738.252-2.321 1.749-2.321 1.1 0 2.572-.37 3.271-.822 1.56-1.009 4.229 4.817 4.229 9.231 0 3.635.835 4.23 4.546 3.237 1.853-.495 2.444-1.034 1.664-1.516-2.109-1.304-1.498-8.405.83-9.652 2.001-1.07 2.038-1.807 1.91-37.535-.075-21.126-.513-36.443-1.04-36.443-.501 0-.91 1.082-.91 2.405 0 2.238-.295 2.371-4.25 1.923-2.337-.265-5.259-.971-6.491-1.569-1.638-.795-2.931-.774-4.798.077-3.85 1.754-9.401 1.483-10.161-.496-.545-1.422-.752-1.35-1.436.5-.686 1.853-1.577 2.16-6.273 2.16-3.01 0-5.751-.451-6.092-1.001-.373-.603-3.723-.798-8.428-.491-5.988.392-8.083.182-8.982-.901-.986-1.187-1.603-1.202-3.881-.09-4.924 2.403-8.664 2.293-9.028-.267-.343-2.42-2.18-3.155-2.18-.872 0 1.87-2.255 3.601-6.667 5.118-4.08 1.403-5.097 4.388-2.73 8.014 1.8 2.757.702 4.09-6.188 7.512-6.195 3.077-6.344 3.166-15.718 9.318-6.622 4.345-8.577 4.173-3.855-.34 1.737-1.659 3.158-4.009 3.158-5.221 0-1.212 1.765-4.02 3.921-6.241 6.986-7.194 6.375-7.991-6.382-8.324-8.046-.21-11.404-.687-12.626-1.793-2.596-2.349-8.27-2.921-10.168-1.024-1.674 1.675-8.745 2.255-8.745.718 0-2.009 5.366-4.15 12.696-5.067 4.292-.536 9.829-1.487 12.304-2.113a858.67 858.67 0 0 1 8-1.977c1.925-.463 6.65-1.731 10.5-2.819 3.85-1.087 9.925-2.503 13.5-3.147 3.575-.643 6.95-1.51 7.5-1.925 1.434-1.085 14.123-3.974 24-5.465 5.04-.761 10.5-3.021 10.5-4.347 0-.973-5.622-1.255-25.059-1.255-16.451 0-24.847-.343-24.441-1 .34-.55 1.604-1.014 2.809-1.03 2.09-.029 2.103-.082.277-1.142-1.408-.817-2.746-.81-5.058.026-1.729.625-7.605 1.101-13.058 1.057-6.301-.05-10.046.316-10.275 1.005-.219.656-3.463 1.084-8.219 1.084-7.673 0-11.043 1.209-6.972 2.501 1.119.355 3.488.5 5.265.322 3.061-.306 3.247-.132 3.534 3.299l.302 3.622-5.802.694c-3.192.382-7.041.633-8.553.559-16.863-.832-32.9.324-38.947 2.806-1.685.692-5.873.883-11.158.51-4.654-.328-9.291-.24-10.304.198-10.087 4.353-18.341 5.127-18.341 1.718 0-1.702 2.816-4.149 4.83-4.197 1.279-.031 6.273-3.916 13.859-10.782 1.975-1.787 4.126-3.25 4.78-3.25.655 0 1.154-.981 1.11-2.18-.088-2.44 3.821-4.77 11.421-6.808 2.475-.664 5.197-1.561 6.05-1.993.852-.432 4.227-1.327 7.5-1.989 3.272-.661 6.731-1.614 7.686-2.116.955-.503 2.232-.914 2.838-.914.606 0 5.351-2.11 10.545-4.688 7.757-3.851 10.733-4.789 16.663-5.25 8.32-.648 8.498-.958 7.248-12.623l-.65-6.069-4.69-1.065c-2.579-.587-7.165-2.057-10.19-3.269-3.025-1.211-7.525-2.792-10-3.513-2.475-.721-10.441-3.159-17.703-5.417-7.262-2.258-13.972-4.106-14.912-4.106-.94 0-4.126-.762-7.079-1.693l-5.371-1.693.663-4.417c.486-3.24.294-4.651-.718-5.292-2.389-1.514-3.88-.986-3.88 1.372 0 3.345-2.759 6.723-5.489 6.723-1.526 0-2.612.742-3.034 2.073-.627 1.974-.749 1.991-2.568.345-2.579-2.335-2.406-3.278.827-4.508 2.965-1.127 6.264-4.208 6.264-5.849 0-1.805-5.196-2.512-6.406-.872-1.466 1.988-5.594 4.141-5.594 2.918 0-.53.675-1.639 1.5-2.464 1.928-1.928 1.896-2.643-.117-2.643-1.205 0-1.489-.667-1.115-2.624.379-1.982.041-2.744-1.383-3.116-2.14-.56-2.335-1.551-.85-4.326 1.167-2.18 3.963-2.536 5.765-.734.933.933 1.2.794 1.2-.625 0-1.454.558-1.716 2.75-1.288 2.057.401 3.594-.173 6.099-2.281 3.262-2.744 3.315-2.91 2.049-6.411-1.011-2.796-1.033-3.86-.099-4.794 2.08-2.08 1.319-4.473-2.299-7.233-3.994-3.046-4.351-4.555-1.5-6.336 1.1-.687 2-1.92 2-2.74a1.5 1.5 0 0 1 1.5-1.492c.825 0 1.5-.483 1.5-1.073 0-.591.788-.917 1.75-.725 3.643.727 13.022-10.489 10.22-12.22-.919-.569-.758-1.536.656-3.942 1.839-3.128 1.837-3.215-.067-4.614-1.068-.784-2.54-1.426-3.272-1.426-3.097 0-9.287-5.245-9.302-7.883-.025-4.286-1.159-5.319-4.241-3.864-3.766 1.777-4.757 6.747-1.345 6.747 1.432 0 3.803 4.465 2.867 5.4-1.243 1.244-2.995.523-3.954-1.628-.547-1.225-1.853-2.273-2.903-2.329l-5.182-.272c-3.219-.168-3.247-.211-1.697-2.576 1.544-2.357 1.5-2.431-2.227-3.698-2.092-.711-4.551-1.183-5.464-1.047-2.505.371-3.251-1.737-1.357-3.83 1.258-1.39 1.425-2.325.667-3.741-1.477-2.76.094-4.893 2.116-2.871.856.856 1.748 2.127 1.982 2.824.336 1.002.988.968 3.104-.159 2.431-1.295 2.944-1.231 5.541.689 2.861 2.115 6.125 2.109 8.845-.018 1.152-.901 3.881-.595 7.67.859 1.001.384 1.593.078 1.593-.822 0-.788 1.125-2.489 2.5-3.781 3.099-2.911 3.095-3.217-.059-4.68-2.291-1.063-2.635-.939-3.468 1.25-1.578 4.151-2.973 2.711-2.973-3.07 0-3.025-.34-5.5-.756-5.5-1.292 0-3.47-5.968-2.808-7.693.524-1.367 1.2-1.083 4.096 1.724 1.907 1.849 3.468 2.78 3.468 2.07 0-2.22-4.051-7.101-5.894-7.101-.966 0-2.837-1.149-4.156-2.553-2.162-2.301-2.517-2.392-3.592-.921-.972 1.329-1.597 1.417-3.362.472-2.959-1.584-3.605-.571-2.17 3.398.666 1.84.919 4.104.564 5.031-.407 1.058.145 2.422 1.482 3.668 2.163 2.016 2.929 7.292 1.212 8.353-.504.312-2.126.106-3.605-.456-2.228-.847-2.581-1.451-2.059-3.529.681-2.715.381-2.926-5.554-3.909-4.022-.665-6.463 1.973-3.407 3.683 1.897 1.061 2.037 3.763.196 3.763-4.018 0-5.874-6.033-2.569-8.348 2.242-1.57 1.744-3.679-1.677-7.1-.9-.9-1.327-2.324-.973-3.245.48-1.251.907-1.364 1.797-.474 1.866 1.866 2.397 1.382 2.164-1.974-.132-1.91-1.185-3.967-2.686-5.25-3.901-3.332-7.469-17.405-4.827-19.037.486-.301 1.386.798 2 2.441l2.237 5.987c.617 1.65 1.517 3 2 3 1.197 0 1.113-1.737-.121-2.5-1.237-.765-1.326-6.181-.114-6.93.488-.301 1.132.393 1.433 1.542.301 1.149 1.027 1.792 1.614 1.43 1.561-.965 1.302-4.311-.408-5.268-1.188-.665-1.528-4.026-1.75-17.3L263.5 324.5l-3.311-.318c-3.845-.369-3.804-2.066.096-3.968 2.666-1.3 4.257-5.697 3.546-9.802-.25-1.441.257-1.912 2.058-1.912 2.756 0 3.462 2.959 3.936 16.5.187 5.333 2.407 6.835 5.175 3.5 1.327-1.599 3.495-2.11 2.565-.605-.305.493.119 1.153.941 1.469 1.075.413 1.494 2.117 1.494 6.084 0 5.414.07 5.547 3.96 7.532 2.178 1.111 5.066 2.02 6.417 2.02s2.683.563 2.961 1.25c.403 1 .52 1 .583 0 .043-.687.74-1.25 1.548-1.25.894 0 1.243.586.893 1.5-.356.928.004 1.5.945 1.5 3.96 0-1.864-8.779-7.307-11.013-5.042-2.069-8.206-5.034-6.967-6.527.551-.664.721-1.939.377-2.833-.478-1.246-.014-1.627 1.983-1.627 6.182 0 .067-5.36-8.571-7.513-3.213-.801-3.665-1.807-3.054-6.806.351-2.87 1.059-4.045 2.85-4.726 2.958-1.124 2.954-1.292-.108-4.354-1.493-1.493-2.249-3.118-1.888-4.058.331-.863.086-2.19-.544-2.949-.63-.76-1.314-2.666-1.519-4.237-.769-5.903-1.737-7.922-4.572-9.55-3.54-2.031-9.228-.341-14.772 4.39-5.039 4.3-8.496 3.072-8.044-2.858.271-3.56-.676-5.2-3.656-6.333-3.479-1.323-2.11-7.37 1.771-7.822 1.901-.222 2.714-.893 2.714-2.239 0-2.502 2.977-5.945 5.14-5.945 3.313 0 4.867-1.114 3.977-2.85-1.203-2.347-2.08-10.15-1.141-10.15.433 0 2.21 1.456 3.95 3.236 3.148 3.219 5.01 2.874 5.059-.936.008-.66.803-1.659 1.765-2.22 1.607-.936-8.54-1.719-17.75-1.369l-9.5.357c-9.256.347-10.896 2.924-5.97 9.383 2.128 2.79 2.426 3.972 1.873 7.433-.813 5.084-2.966 5.407-4.917.737-1.435-3.434-3.122-4.621-6.568-4.621-2.405 0-2.388-.842.082-4 2.621-3.351 2.53-5.785-.23-6.18-1.442-.207-2.585-1.379-3.237-3.32-1.575-4.691-2.92-5.318-6.31-2.943m176.254 1.208c-.563.404-1.836 2.012-2.83 3.572-1.713 2.69-2.13 2.82-7.976 2.5-3.664-.2-6.176.069-6.185.663-.009.55-.394 1.596-.856 2.324-.54.852-.089 2.123 1.265 3.564 3.426 3.647 2.831 6.681-.655 3.342-2.005-1.921-3.168-2.387-4.25-1.703-.82.518-2.502.949-3.74.958-1.302.009-2.25.632-2.25 1.48 0 2.156 3.979 3.937 8.148 3.649 2.007-.139 3.958.249 4.336.861.855 1.382-1.409 4.268-2.9 3.696-1.499-.576-4.89 4.022-3.569 4.838.56.346.754 1.055.432 1.576a1.106 1.106 0 0 1-1.516.372c-1.347-.832-1.145.929.269 2.343 2.196 2.196 3.551 1.244 4.696-3.3 1.191-4.732 1.67-5.13 4.104-3.409 1.129.799 1.191 1.187.25 1.568-.687.279-1.25 1.42-1.25 2.536 0 1.776.435 1.946 3.5 1.371 5.532-1.038 4.328 1.466-2.512 5.223L369 286.078v12.556l-4.241-.567c-3.758-.502-4.3-.908-4.765-3.567-.506-2.899-.684-2.989-5.259-2.66-3.65.262-4.735.004-4.735-1.127 0-2.994-2.431-3.727-5.546-1.673-1.625 1.071-3.561 1.95-4.303 1.953-.742.004-2.767.619-4.5 1.366-7.355 3.173-8.917 3.641-12.168 3.641-1.883 0-6.08 1.35-9.327 3s-6.834 3-7.971 3c-1.137 0-2.345.45-2.685 1-.385.624 1.605 1 5.286 1 6.013 0 8.069 1.117 9.497 5.164.463 1.31 1.441 1.549 4.609 1.124 2.986-.401 4.835-.024 7.186 1.464 3.097 1.961 3.206 1.964 5.044.126 2.023-2.023 5.846-2.444 8.642-.951.955.51 2.591 1.197 3.636 1.526 1.806.57 1.785.721-.425 3.073-1.278 1.361-3.145 2.474-4.149 2.474-2.496 0-2.291 1.215.674 4 6.415 6.027-1.111 14.463-8.368 9.38-1.942-1.36-2.696-1.416-4.693-.347-3.6 1.926-8.576 1.437-10.434-1.026l-1.596-2.116-1.86 2.054c-1.467 1.622-3.078 2.055-7.637 2.055-7.049 0-6.88.386-6.736-15.353.134-14.685-.194-14.998-10.176-9.728-2.695 1.423-2.608 16.339.117 20.025 1.873 2.534 1.999 3.211.854 4.59-1.292 1.557-.135 3.396 2.172 3.451.354.008 3.716 2.94 7.471 6.515 3.755 3.575 7.325 6.5 7.933 6.5 1.456 0 5.962 4.824 5.209 5.577-.321.322-1.572.057-2.778-.589-1.586-.848-2.495-.871-3.285-.081-1.313 1.313-6.046 1.434-8.457.216-2.334-1.18-8.593-3.123-10.057-3.123-1.707 0-1.638 16.941.071 17.395 15.028 3.993 19.219 4.396 21.765 2.092 1.32-1.195 2.72-1.519 4.562-1.057 1.802.452 3.233.147 4.441-.947 1.178-1.065 2.007-1.251 2.442-.548.362.586 3.383 1.065 6.714 1.065 4.627 0 7.18.612 10.824 2.596 2.624 1.427 5.604 2.435 6.624 2.238 2.38-.458 2.972-3.5 1.101-5.658-1.905-2.198-2.859-8.64-1.483-10.016.767-.767.698-1.529-.24-2.66-.996-1.2-1.034-1.866-.158-2.742.637-.637 1.158-2.179 1.158-3.427 0-1.508.458-2.092 1.369-1.743 1.551.595 2.979-3.255 1.537-4.146-.498-.308-.906-1.278-.906-2.156 0-1.39.258-1.362 2 .214 3.126 2.829 2.388 8.5-1.107 8.5-2.245 0-2.548 2.811-.393 3.638 1.82.699 1.959 3.503.258 5.204-1.839 1.839.857 3.239 5.621 2.919 3.458-.233 4.108-.718 6-4.483 1.166-2.322 2.684-4.235 3.371-4.25 2.114-.047 1.381-2.028-.75-2.028-1.617 0-2-.667-2-3.477 0-2.61-.627-3.887-2.512-5.123-1.381-.905-2.784-2.731-3.117-4.058-.333-1.326-1.922-3.093-3.532-3.925-4.623-2.391-5.509-5.485-3.014-10.528 1.878-3.796 1.932-4.346.525-5.375-2.386-1.744-1.246-4.761 2.15-5.694 4.723-1.297 14.733-1.536 17.712-.423 2.982 1.114 5.1.032 2.764-1.412-1.245-.769-1.178-1.117.441-2.301 1.178-.861 1.666-2.024 1.277-3.039-.409-1.066-.115-1.645.837-1.645.808 0 1.469.364 1.469.809 0 .445.634 1.676 1.41 2.737 1.354 1.851 1.487 1.857 3.376.148 1.598-1.447 2.067-1.519 2.502-.386.404 1.054 2.086 1.294 6.874.983 11.208-.73 14.258-.611 18.338.714 2.2.715 6.025 1.396 8.5 1.514 2.475.118 5.738.274 7.25.348 4.151.201 3.913 4.133-.25 4.133-1.65 0-3 .247-3 .548 0 .961 5.454 5.388 6.679 5.42.648.018 1.897.751 2.775 1.629 2.089 2.089 5.347 1.073 3.54-1.104-1.576-1.899 1.152-6.493 3.855-6.493 2.216 0 5.669 3.635 6.65 7 .401 1.375 1.578 3.903 2.615 5.618 2.537 4.195 2.401 5.302-1.187 9.654C445.552 340.366 443 341.11 443 338c0-1.1-.536-2-1.191-2s-.357-.61.662-1.355c1.135-.83 1.609-1.993 1.223-3-.662-1.726-4.193-2.265-5.111-.78-1.003 1.624-7.901 2.154-9.537.732-.85-.739-3.233-1.646-5.296-2.016-3.736-.669-3.751-.658-3.9 2.874-.083 1.95-.195 4.091-.25 4.759-.055.668 2.22 2.58 5.056 4.25a633.766 633.766 0 0 1 9.814 5.919c3.832 2.371 5.844 2.903 11.344 3 6.681.117 6.686.119 6.364 2.867-.259 2.218.079 2.75 1.75 2.75 2.31 0 2.73-1.942.83-3.842-.988-.988-.938-1.433.25-2.184 3.454-2.184 4.814-1.173 4.743 3.526-.055 3.68-.403 4.5-1.909 4.5-1.013 0-1.842.649-1.842 1.443 0 3.17-4.163 8.557-6.612 8.557-1.328 0-3.309.558-4.402 1.241-1.581.987-2.391.987-3.972 0-1.093-.683-4.223-1.241-6.955-1.241-7.037 0-10.356-3.315-9.888-9.875l.329-4.625-4 .284c-5.648.402-6.5.852-6.5 3.435 0 2.117-.408 2.275-5.694 2.199-3.387-.048-5.851-.554-6.083-1.25-.562-1.686-2.223-1.438-2.223.332 0 2.516-4.644 1.768-6.91-1.112l-2.054-2.612-1.036 2.723c-.873 2.296-1.502 2.654-4.017 2.285-1.641-.241-2.983-.081-2.983.354 0 1.461 6.191 7.862 7.604 7.862.768 0 1.396.45 1.396 1 0 .94-7.386 1.382-24.5 1.466l-7 .034.347 3c.392 3.389 1.946 5.746 3.255 4.937.481-.297 2.883.347 5.337 1.433 2.454 1.086 7.072 2.291 10.261 2.679 3.19.387 8.572 1.804 11.959 3.148 8.188 3.248 12.916 2.894 12.653-.947-.185-2.697.141-2.942 4.188-3.148 1.1-.056 1.888-.664 1.75-1.352-.192-.962 4.525-1.3 20.5-1.469 27.21-.286 30.947-.337 42.5-.578L483 378v-7.566c0-8.196-.995-11.127-4.177-12.304-2.929-1.083-5.342-6.994-3.192-7.819.864-.331 1.941-.003 2.394.729 1.669 2.702 3.975-.91 3.975-6.228 0-2.719.484-5.848 1.075-6.953 1.514-2.827.203-9.859-1.837-9.859-1.279 0-1.166-.448.588-2.314 1.293-1.377 2.174-3.606 2.174-5.5 0-3.903-1.715-4.232-2.268-.436l-.402 2.75-.79-3.25c-.434-1.788-1.296-3.264-1.915-3.282-.619-.017-.271-.678.772-1.468 1.044-.79 2.281-1.199 2.75-.909.469.29.853-.878.853-2.595 0-2.921-.21-3.102-3.25-2.809-2.788.268-3.295.739-3.568 3.313-.175 1.65-1.3 3.777-2.5 4.728-2.384 1.887-4.742 2.432-3.003.693.771-.771.693-2.359-.275-5.575-.745-2.473-1.253-5.019-1.129-5.657.165-.852-6.319-1.18-24.504-1.236-13.601-.043-25.038-.387-25.416-.765-.379-.378 2.312-.688 5.978-.688 5.26 0 6.667-.317 6.667-1.5 0-1.19-1.444-1.5-7-1.5-4 0-7 .429-7 1 0 .55-.436 1-.969 1-.532 0-.709-.675-.393-1.5.317-.825 1.176-1.5 1.91-1.5 2.016 0 2.777-1.904 1.416-3.544-1.562-1.881-3.869-1.852-5.999.076-1.538 1.392-1.845 1.3-3.352-1-.913-1.393-2.393-2.532-3.291-2.532-1.45 0-1.43-.223.178-2 .995-1.1 2.55-2 3.455-2 .905 0 2.17-.525 2.812-1.167.89-.89 1.32-.771 1.807.5.538 1.401 2.222 1.667 10.554 1.667 9.634 0 9.948-.072 11.066-2.527 1.521-3.338-.093-4.973-4.91-4.973-2.002 0-3.801-.558-4.033-1.25-.275-.822.649-1.25 2.697-1.25 1.968 0 3.347-.606 3.746-1.645.746-1.944-2.21-4.478-4.291-3.679-.772.296-1.403.067-1.403-.508s2.025-1.349 4.5-1.72c4.123-.619 4.5-.914 4.5-3.526 0-1.91-.723-3.238-2.189-4.023-2.183-1.168-2.18-1.181 1.035-4.053 2.48-2.215 2.881-3.013 1.737-3.452-.818-.314-1.899-.317-2.401-.006-.503.311-1.724-.329-2.713-1.422-1.737-1.92-1.722-2.068.442-4.371 2.693-2.867 2.012-3.428-4.163-3.428-2.592 0-6.289-.52-8.215-1.156-3.847-1.27-7.533-.59-7.533 1.39 0 1.984 1.194 2.683 2.598 1.518 1.98-1.644 6.83-.708 7.229 1.394.204 1.074-.201 1.74-.991 1.632-3.054-.416-4.935.149-5.513 1.656-.725 1.888 1.24 3.362 4.51 3.384 3.17.02 2.249 2.269-1.113 2.719-1.854.249-3.051-.261-3.933-1.673-1.751-2.803-2.781-2.54-2.818.719-.044 3.802-4.511 7.27-5.47 4.247-.684-2.155-2.009-2.598-2.996-1.002-.338.547-1.537 1.488-2.665 2.092-1.972 1.055-2.026.911-1.388-3.745l.663-4.842-3.807-1.168c-2.093-.642-5.044-.927-6.556-.633-2.211.43-2.747.169-2.736-1.332.025-3.513 1.219-6.367 2.662-6.367.793 0 1.164-.45.824-1-.723-1.17-2.57-1.278-4.023-.235m-7.977 10.208c-2.586.509-2.958.979-2.696 3.409.195 1.816-.339 3.306-1.5 4.187-.992.752-1.287 1.382-.654 1.399.646.018 1.15 1.596 1.15 3.599 0 1.961.27 3.836.6 4.166.33.33.6-.202.6-1.183 0-1.298.551-1.639 2.024-1.254 1.208.316 1.966.061 1.881-.633-.372-3.044.198-3.406 4.595-2.91 4.248.479 6.047-.679 3.5-2.253-.55-.34-1-2.122-1-3.961 0-3.858-3.242-5.599-8.5-4.566m42 10.027c-.34.55-1.706 1-3.036 1-3.131 0-5.566 3.726-6.219 9.514-.602 5.349-.105 5.5 4.077 1.236 1.754-1.788 4.536-4.277 6.183-5.532 2.195-1.672 2.652-2.495 1.711-3.08-.709-.441-.997-1.546-.643-2.468.685-1.785-1.039-2.343-2.073-.67M15.873 304.135c-5.947 3.135-6.028 4.084-5.055 58.865.673 37.889.896 42.999 1.022 23.357.18-28.29-.429-26.357 8.308-26.357 2.741 0 5.741-.392 6.668-.872.926-.48 3.934-1.167 6.684-1.527 4.608-.604 4.848-.535 3.059.872-2.914 2.292 9.389 2.115 15.547-.224 4.612-1.752 6.153-3.989 2.394-3.476-15.392 2.099-18.894 1.216-9.495-2.392 9.186-3.528 11.449-4.939 11.823-7.371.18-1.173.967-2.378 1.75-2.678 2.135-.82 1.71-4.106-.627-4.848-1.201-.381-3.049.006-4.465.933-1.328.871-3.958 1.583-5.844 1.583-2.313 0-3.671.569-4.175 1.75-.834 1.953-2.362-2.621-2.757-8.25-.195-2.782-.523-3.023-4.515-3.31l-4.304-.31.304-4.19.305-4.19 4.484-.319c4.992-.355 5.985-1.297 5.987-5.681.004-6.865-.409-7.217-9.369-7.963-8.851-.737-10.878-1.44-10.405-3.605.453-2.071-3.202-1.97-7.324.203m210.019 16.307c-.266.266-2.404.724-4.751 1.019-2.348.295-5.11.987-6.139 1.538-1.029.55-3.899 1.001-6.377 1.001-2.479 0-4.809.489-5.179 1.087-1.1 1.781 1.232 3.237 4.758 2.971 5.378-.405 7.18-.327 9.417.409 1.745.575 2.251.197 2.858-2.134.721-2.772.755-2.784 1.596-.583 1.176 3.075 5.677 3.095 6.811.029l.821-2.22 1.387 2.22c1.675 2.682 3.906 2.914 3.906.406 0-1.091-1.496-2.576-3.75-3.724a736.25 736.25 0 0 1-4.312-2.206c-.31-.163-.781-.079-1.046.187M210.5 331c-2.75.377-4.078.756-2.95.843 2.167.166 4.45 1.943 4.45 3.464 0 .499-.738.624-1.641.277-2.109-.809-1.336 11.182.809 12.541 2.196 1.392 3.096.993 2.542-1.125-.34-1.3-.03-2 .884-2 .773 0 1.406.816 1.406 1.813 0 2.23 4.604 12.008 6.852 14.552 2.248 2.544 5.34 3.675 14.148 5.174 9.896 1.685 13.816.122 15.856-6.323 1.103-3.486 1.706-4.172 3.241-3.685 3.118.989 4.484-.644 1.788-2.138-4.909-2.721-6.885-1.874-6.885 2.952 0 2.889-.594 4.882-1.773 5.949-3.089 2.796-4.707.576-4.894-6.718-.195-7.597-.397-8.036-4.625-10.051-1.765-.841-6.769-4.903-11.121-9.027-8.442-8-8.082-7.87-18.087-6.498m179.5.069c-.825.446-2.749 1.075-4.275 1.397-1.527.322-3.664 1.473-4.75 2.559-1.086 1.086-2.987 1.943-4.225 1.905-2.147-.067-2.158-.11-.25-.93 1.71-.735 1.746-.87.25-.93-.962-.038-1.75-.52-1.75-1.07 0-2.463-2.929-.647-4.435 2.75-.914 2.063-2.121 4.581-2.683 5.597-1.172 2.121-1.348 1.877 2.803 3.89 2.602 1.262 3.279 1.3 3.697.209.582-1.515 10.365-1.748 12.235-.291.683.531 1.606.281 2.373-.643 2.661-3.207 8.277-1.895 12.796 2.988 4.612 4.984 5.784 5.43 6.698 2.551.41-1.292 1.165-1.739 2.241-1.326 1.236.474 1.462.204.949-1.133-.371-.966-.674-2.094-.674-2.507 0-.413-.626-.752-1.391-.752-3.433 0-7.604-4.724-7.067-8.005.612-3.739-.351-4.545-5.803-4.852-2.181-.123-4.252-.673-4.602-1.222-.36-.563-1.29-.644-2.137-.185m-268 4.603c-1.925.194-6.378.822-9.895 1.395-4.471.729-6.713.725-7.45-.012-1.754-1.754-5.975-1.331-5.262.527.334.87.607 1.952.607 2.405 0 .452 1.773.585 3.94.294 5.648-.757 9.605.357 8.026 2.26-.666.803-2.168 1.466-3.338 1.474-3.155.023-5.015 1.535-4.272 3.472.884 2.302 7.847 1.286 17.144-2.504l5.25-2.143c1.787-.731 3.25-1.668 3.25-2.084 0-1.134 7.786-.911 8.5.244.911 1.475 5.825 1.215 8.059-.425 1.868-1.372 1.832-1.467-.973-2.538-1.603-.612-4.753-1.054-7-.983-2.247.07-5.658-.363-7.579-.963-1.922-.6-3.947-1.019-4.5-.931-.554.088-2.582.319-4.507.512m38.75 7.408c-1.947 1.134-2.536 9.316-.75 10.42.55.34 1 2.841 1 5.559 0 3.419.385 4.864 1.25 4.691.808-.162 1.203.856 1.116 2.876-.201 4.697 5.119 6.121 12.623 3.378 7.499-2.741 7.925-3.497 3.299-5.857-2.173-1.108-5.174-3.62-6.67-5.581-1.803-2.364-3.539-3.566-5.15-3.566-3.604 0-4.526-5.215-1.99-11.25.848-2.017-1.776-2.389-4.728-.67m43.65 21.32c-1.87 1.87-3.4 4.312-3.4 5.427 0 2.444 4.386 6.1 8.244 6.872 1.539.308 3.04.951 3.336 1.43.706 1.143 3.996 1.112 6.184-.058.955-.511 3.872-1.748 6.482-2.75 5.199-1.995 5.809-2.851 2.725-3.83-1.116-.355-4.79-2.86-8.164-5.568-7.578-6.081-10.554-6.376-15.407-1.523m-87.821 12.109c-1.35 1.457-2.745 3.968-3.099 5.58-.851 3.875-3.282 6.32-4.927 4.955-.903-.75-2.093.045-4.441 2.966-2.167 2.697-4.001 3.99-5.659 3.99-2.785 0-3.157-1.171-.953-3 .825-.685 1.5-1.64 1.5-2.122 0-1.497-1.908-.97-3.975 1.097-1.086 1.086-3.111 2.259-4.5 2.608-1.389.349-2.525 1.188-2.525 1.865 0 1.289-4.906 3.979-5.738 3.147-.264-.264.469-1.813 1.629-3.442 1.16-1.629 2.109-3.23 2.109-3.557 0-.968-4.83-.679-5.452.326-.313.506-3.714.723-7.559.48-7.479-.472-8.365.193-5.431 4.074 1.36 1.8 1.29 2.136-.782 3.764l-2.276 1.787 2.25 1.897c1.238 1.043 2.25 2.412 2.25 3.043 0 .63 1.425 2.447 3.166 4.037 2.543 2.323 2.933 3.172 1.984 4.316-3.263 3.931 12.97 5.795 17.054 1.958 1.851-1.739 3.124-2.099 5.852-1.656 3.313.537 3.652.309 6.837-4.607 3.894-6.009 5.471-6.901 8.061-4.557 1.495 1.354 2.306 1.473 3.963.587 2.16-1.157 2.832-3.045 1.083-3.045-.55 0-1-.9-1-2s-.45-2-1-2-1 .45-1 1-.675 1-1.5 1c-2.297 0-1.01-6.613 2.676-13.75 1.787-3.46 4.211-2.937 3.474.75-.831 4.157.6 3.752 4.783-1.353 4.46-5.442 4.445-5.784-.416-9.633l-3.982-3.155-2.456 2.65M475 393.941c0 7.239-.188 7.367-10.347 7.017-4.484-.155-9.953-.321-12.153-.37-3.556-.078-4.034-.382-4.307-2.736-.175-1.512-1.063-2.846-2.07-3.11-3.053-.798-31.577.373-32.573 1.338-1.286 1.245-4.826 1.176-4.05-.08.784-1.269-10.483-1.297-16-.04-2.2.501-7.712 1.032-12.25 1.18l-8.25.269.136 3.546c.09 2.335.284 2.777.57 1.295.508-2.639 1.159-2.816 2.684-.731.982 1.343 1.572 1.285 5.072-.5 2.179-1.11 4.541-2.019 5.249-2.019 2.052 0 1.492 2.134-.711 2.71-3.305.865-2.901 9.997.5 11.29 2.489.946 3.468 3 1.43 3-.588 0-3.063 1.372-5.5 3.048-2.436 1.676-4.43 2.736-4.43 2.354 0-.382-1.15.547-2.556 2.064-2.17 2.341-2.533 3.612-2.399 8.396.087 3.101-.155 6.612-.538 7.802-.529 1.646-.15 2.457 1.579 3.382 2.198 1.176 2.211 1.264.392 2.594-1.722 1.259-1.859 2.67-1.615 16.569.299 17.032.242 16.789 3.946 16.797l2.691.006-2.5 1.277c-4.307 2.198-10.79 4.006-12.296 3.428-1.103-.423-1.592.669-2.066 4.614-1.029 8.568-.745 42.485.362 43.169 1.142.706 1.186.351 1.057-8.5-.115-7.911.369-8.725 5.701-9.577l4.198-.672.272 19.375c.261 18.617.35 19.374 2.272 19.374 1.285 0 2.051-.715 2.144-2 .079-1.1.191-2.649.25-3.441.08-1.091.431-.997 1.445.39 1.21 1.655 1.4 1.673 1.969.191.346-.902 1.093-1.64 1.661-1.64 1.63 0 1.202 2.15-.719 3.608-3.875 2.941 1.736 1.414 5.909-1.608 2.277-1.65 4.7-3 5.383-3 .682 0 1.524-1.125 1.869-2.5.364-1.452 1.347-2.5 2.344-2.5 2.521 0 12.045-5.036 12.687-6.708.303-.79.067-2.342-.525-3.448-.831-1.551-.715-2.409.503-3.756 2.111-2.332 1.991-3.088-.49-3.088-1.574 0-1.993-.539-1.75-2.25.482-3.392 9.717-3.85 12.717-.63 1.581 1.697 1.802 2.537.942 3.573-1.841 2.22-.327 2.507 3.527.669 3.996-1.905 5.441-4.684 3.594-6.91-1.009-1.216-.706-1.452 1.859-1.452 3.561 0 5.201 1.849 2.821 3.181-.902.505-1.64 1.571-1.64 2.369 0 .797-.382 1.45-.848 1.45-.467 0-1.66 1.8-2.652 4-.992 2.2-2.201 4-2.687 4-.486 0-2.019.744-3.408 1.654-3.204 2.1-1.627 3.309 4.345 3.331 3.795.013 4.25.268 4.25 2.375 0 1.299.296 4.519.657 7.157l.658 4.796-3.158-.632-3.157-.631v6.975c0 7.483.707 8.273 5.237 5.848 2.381-1.274 11.705-1.331 12.957-.079.451.451-2.22 1.831-5.937 3.065-3.716 1.234-7.657 2.626-8.757 3.092-1.1.467-4.56 1.602-7.689 2.523-6.35 1.868-10.661 5.273-5.291 4.179 1.639-.335 12.205-.723 23.48-.864 17.882-.223 20.915-.494 23.75-2.121 2.867-1.646 3.25-1.677 3.25-.267 0 .932.834 1.599 2 1.599 1.1 0 2-.37 2-.823 0-.453 2.25-.79 4.999-.75 2.75.04 5 .41 5 .823.001.413.451.75 1.001.75.55 0 1-.833 1-1.851 0-1.623-.868-1.855-7.052-1.885-7.775-.038-9.069-.571-6.828-2.812 1.946-1.946 11.88-3.227 11.88-1.532 0 .659.45.92 1 .58.62-.383 1-9.385 1-23.684V517.75l-3.25.807c-1.788.443-4.937.815-7 .826-3.558.019-3.75.186-3.75 3.259 0 1.782.457 3.523 1.016 3.868 1.354.837.256 2.49-1.654 2.49-1.149 0-1.369-.692-.9-2.826.405-1.845-.261-5.271-1.921-9.871-1.737-4.817-2.564-9.221-2.613-13.924l-.073-6.879-2.624 5.75c-3.411 7.471-6.231 8.005-6.231 1.179 0-4.156.143-4.429 1.571-3 2.203 2.202 3.435 1.956 3.394-.679-.081-5.113-2.788-19.526-4.363-23.23-1.527-3.59-1.54-4.092-.136-5.119 1.386-1.013 1.391-1.275.045-2.392-.831-.69-1.525-1.986-1.543-2.881-.017-.896-.656-2.452-1.419-3.459-1.39-1.833-.6-6.438 1.587-9.261 1.135-1.465.037-2.408-2.803-2.408-3.718 0-3.084-3.6.77-4.371 1.706-.341 3.526-.358 4.044-.038.517.319 1.596.037 2.397-.627 1.025-.851 1.456-.877 1.456-.086 0 .619 1.595 1.122 3.563 1.122 2.794 0 3.524-.377 3.385-1.75-.372-3.65.102-5.25 1.552-5.25.825 0 1.5-.45 1.5-1s.45-1 1-1c1.86 0 1.015 2.183-1.054 2.724-3.829 1.002-2.187 5.743 2.054 5.931 1.925.086 3.95.252 4.5.369.55.117 2.462.16 4.25.094 3.025-.11 3.25-.36 3.25-3.618 0-1.925-.45-3.5-1-3.5s-1 .675-1 1.5-.821 1.5-1.825 1.5c-1.433 0-1.809-.751-1.75-3.497.045-2.089.578-3.498 1.325-3.5.772-.002 1.25-1.405 1.25-3.674 0-2.019.626-4.382 1.391-5.25 1.171-1.33 1.185-2.524.084-7.579-.719-3.3-1.352-6.225-1.407-6.5-.054-.275-.491.12-.972.878-.48.758-1.373 1.069-1.984.691-1.707-1.055-1.326-2.28.888-2.859 2.014-.526 2.93-4.71 1.031-4.71-.532 0-.711-.671-.396-1.492.315-.82-.087-1.744-.894-2.054-1.163-.446-1.363-1.999-.969-7.508.426-5.964.266-6.946-1.138-6.946-1.329 0-1.634 1.11-1.634 5.941m-253.385-.413c-3.914 3.914.759 26.084 6.518 30.931 6.926 5.828 10.402 4.409 15.876-6.477 5.475-10.888 5.424-14.688-.124-9.372-3.865 3.704-5.515 2.632-2.416-1.569 3.47-4.703 2.237-5.37-7.469-4.041-5.393.738-8.608.792-9.247.153-1.768-1.768.289-3.153 4.684-3.153 2.392 0 4.815-.598 5.432-1.342 1.549-1.866.613-2.456-3.151-1.986-6.194.773-13.35-1.806-7.968-2.872 1.187-.235 1.374-.583.581-1.083-.644-.404-1.866-.039-2.716.811m-109.827 16.227c-.938 1.131-.883 1.626.259 2.313 3.67 2.21 4.343 2.875 3.629 3.59-.422.421-1.64.221-2.708-.446-2.634-1.645-2.968-1.546-2.968.882 0 1.252.803 2.303 2 2.616 2.526.661 2.554 2.479.073 4.724-1.06.959-2.207 3.401-2.549 5.426-.946 5.595-2.212 7.098-4.006 4.75-1.279-1.675-1.22-2.174.519-4.385 2.504-3.183 2.618-5.704.213-4.73a158.32 158.32 0 0 1-4.42 1.677c-3.344 1.212-4.573 3.828-1.799 3.828 2.43 0 2.516 1.31.235 3.591-.954.954-1.741 2.448-1.75 3.322-.012 1.152-1.001 1.587-3.611 1.587-1.977 0-4.32.601-5.206 1.336-1.802 1.494-3.699.79-3.699-1.374 0-1.142-.477-1.202-2.445-.305-2.617 1.192-4.341 4.029-2.289 3.765 3.29-.423 4.734.211 4.734 2.078 0 2.07-2.413 2.76-3.5 1-1.149-1.859-5.329-1.113-6.024 1.075-1.066 3.358 2.655 4.711 7.244 2.635 1.608-.727 2.655-.643 3.795.302 1.329 1.104 1.809.971 3.086-.853.832-1.187 1.884-2.159 2.339-2.159 1.152 0 .734 5.097-.61 7.431-.852 1.479-.786 2.256.279 3.321.765.765 1.398 3.271 1.406 5.569.021 5.536 1.019 6.96 4.3 6.136 3.992-1.002 6.279 1.694 4.691 5.527-.663 1.603-1.035 3.429-.826 4.057.591 1.771 8.523-5.126 9.824-8.541.629-1.65 1.843-4.438 2.698-6.195 1.416-2.912 1.123-7.464-.384-5.957-.748.749-3.318-1.188-3.318-2.502 0-.5 1.463-.819 3.25-.709 4.314.264 7.75-.935 7.75-2.704 0-.788-.9-1.433-2-1.433-1.507 0-2.008-.677-2.032-2.75l-.031-2.75-2.052 2.75c-1.129 1.512-2.483 2.75-3.009 2.75-1.646 0-6.876-4.312-6.876-5.669 0-1.764 4.707-2.819 6.38-1.43 1.023.849 1.66.756 2.6-.377.724-.873 2.559-1.401 4.383-1.262 2.964.225 3.137.045 3.137-3.262v-3.5l5.661-.297c4.03-.212 5.835-.751 6.265-1.871.456-1.187.118-1.446-1.374-1.056-2.467.645-4.459-1.612-3.765-4.266.443-1.695.156-1.908-1.882-1.397-3.212.806-3.069.366 1.505-4.638 4.275-4.677 4.371-7.264.252-6.779-1.782.21-2.759 1.056-3.15 2.73-.827 3.535-2.976 3.865-2.519.387.203-1.547.4-3.375.438-4.063.038-.687.844-1.25 1.792-1.25 1.342 0 1.176-.384-.75-1.738-3.123-2.196-11.516-2.518-13.185-.507m286.738 5.332c-7.853 2.578-8.2 3.085-4.584 6.701 2.695 2.695 2.94 3.392 2.033 5.777-1.109 2.918-.751 4.032.958 2.976.587-.362 1.067-2.406 1.067-4.541 0-4.245 1.366-5.955 2.764-3.458.803 1.436 1.008 1.438 2.184.021 2.116-2.55 2.85-1.854 4.028 3.821 1.004 4.834 1.424 5.446 4.112 5.984 1.647.329 4.256 1.98 5.797 3.668 2.041 2.234 4.468 3.457 8.923 4.496 6.231 1.454 14.177 1.576 14.187.218.003-.413 1.747-.75 3.877-.75 3.769 0 3.89-.111 4.537-4.157.574-3.588.318-4.519-1.872-6.804-1.395-1.457-2.537-3.354-2.537-4.216 0-1.16-1.368-1.703-5.25-2.085-6.449-.633-6.75-.463-6.75 3.821 0 3.318-.136 3.441-3.8 3.441-6.289 0-8.422-5.006-4.095-9.612 2.292-2.44 1.83-4.388-1.042-4.388-1 0-3.434-.675-5.409-1.5-4.813-2.011-11.873-1.795-19.128.587m-4.248 25.163c-.532.688-1.267 2.085-1.632 3.106-.5 1.398-1.28 1.702-3.155 1.231-3.554-.892-3.085.307 2.066 5.282 4.38 4.231 4.585 4.313 6.483 2.595 1.411-1.277 1.96-3.076 1.96-6.419 0-6.064-3.092-9.195-5.722-5.795m12.722-.549c0 .65.45 1.459 1 1.799.55.34 1 1.454 1 2.476 0 1.021.531 2.034 1.179 2.25.706.236 1.208 2.641 1.25 6.001.039 3.084.41 5.946.825 6.361.941.94 5.746-3.46 5.746-5.262 0-1.985 1.399-1.612 4.405 1.174 3.425 3.174 3.188 3.246 5.572-1.688 2.274-4.708 2.469-5.812 1.023-5.812-.55 0-1 .675-1 1.5 0 1.826-.941 1.861-3.234.119-1.952-1.482-1.344-2.619 1.401-2.619 3.697 0 .781-3.427-3.724-4.376-3.535-.745-5.966.572-5.12 2.775.478 1.246-.043 1.601-2.354 1.601-1.633 0-2.969-.47-2.969-1.044 0-.574-1.125-2.257-2.5-3.739-1.375-1.483-2.5-2.165-2.5-1.516m12.039 20.488c-1.121 1.203-2.071 3.341-2.109 4.75-.039 1.408-.405 3.414-.815 4.457-.409 1.044-.378 4.575.07 7.847.447 3.273.476 6.469.064 7.104-.65 1-1.124 9.646-.529 9.651.931.008 8.016-4.459 8.929-5.63.905-1.161 1.246-1.197 1.604-.171.348.996.921.89 2.43-.447 1.086-.962 3.177-1.75 4.646-1.75 1.708 0 2.671-.541 2.671-1.5 0-.825-.627-1.5-1.393-1.5-1.951 0-2.607-2.254-2.607-8.96 0-12.052-7.335-19.891-12.961-13.851m-37.789 62.302c-3.654 1.588-3.733 1.763-2.025 4.498 1.027 1.643.921 2.184-.653 3.334-2.177 1.593-1.335 3.677 1.487 3.677 1.116 0 1.941.683 1.941 1.607 0 1.051-.545 1.398-1.573 1.003-1.115-.428-1.476-.095-1.239 1.144.552 2.896 4.359 2.622 7.932-.57 3.26-2.913 3.274-2.963 1.977-7.309-2.913-9.763-2.743-9.603-7.847-7.384M409 542.128c-2.397.961-2.419 1.047-.544 2.102 1.941 1.091 1.941 1.105 0 1.864-1.076.421-3.194.797-4.706.836-2.031.052-2.75.577-2.75 2.011 0 2.568 1.844 3.63 2.651 1.526.468-1.219 1.394-1.508 3.493-1.088 1.609.322 2.856.137 2.856-.423 0-.578 1.152-.718 2.75-.334 3.73.895 3.895 1.162 1.924 3.132-1.408 1.409-2.049 1.493-3.672.479-1.732-1.082-2.041-.926-2.604 1.317-.759 3.023-.63 3.195 2.602 3.463 4.53.377 6 .006 6-1.513 0-.825.459-1.5 1.019-1.5.561 0 .771-1.013.469-2.25-.422-1.725.156-2.717 2.478-4.25 3.892-2.57 3.825-3.812-.287-5.299-3.943-1.426-8.235-1.453-11.679-.073m-73 20.834c-.825.465-3.525 1.369-6 2.009-2.475.641-5.882 1.584-7.571 2.097-1.689.512-4.036.932-5.215.932-2.466 0-9.938 4.517-14.82 8.96-1.837 1.672-3.77 3.04-4.295 3.04-.525 0-1.999 1.302-3.277 2.894-1.277 1.592-5.102 4.282-8.499 5.978-6.153 3.071-8.622 5.133-6.132 5.122 2.597-.011 13.401-1.973 17.559-3.189 3.832-1.12 5.785-2.805 3.25-2.805-2.36 0-.737-2.803 1.932-3.336 5.471-1.095 18.355-7.998 26.768-14.343 4.61-3.477 8.813-6.321 9.34-6.321.528 0 .96-.45.96-1 0-1.193-1.916-1.211-4-.038m-234.766 24.36c-1.089 1.198-1.774 2.741-1.523 3.428.302.828-.584 1.25-2.628 1.25-4.817 0-3.333 2.516 2.917 4.944 4.631 1.8 13.992 6.932 16.5 9.046 3.78 3.187 9.342 6.074 9.916 5.146.315-.51-3.249-3.724-7.921-7.14-4.672-3.416-8.495-6.613-8.495-7.104 0-1.143 2.525-1.148 4.764-.009.955.486 2.989 1.471 4.521 2.188 4.843 2.268 13.828 10.999 13.236 12.862-.818 2.579 10.977 8.726 13.21 6.883 1.257-1.038 1.683-1.052 2.015-.066.381 1.133 4.254 1.863 4.254.802 0-1.462-5.335-5.618-10.5-8.181-6.465-3.208-22.394-14.93-23.223-17.091-.474-1.236-9.794-7.15-13.421-8.516-1.009-.381-2.406.22-3.622 1.558m341.61 33.526c-2.804 2.506-3.528 2.72-6.016 1.781-1.555-.587-2.828-1.371-2.828-1.743 0-1.339-7.535 1.058-9 2.863-.825 1.017-2.316 2.161-3.313 2.543-5.141 1.968 3.339 4.002 15.813 3.793 14.729-.247 15.5-.534 15.5-5.784 0-6.444-4.932-8.121-10.156-3.453M422 633.531c0 2.088-2.413 2.854-4.861 1.543-2.051-1.097-4.098.215-2.182 1.399.545.337.801 3.064.571 6.069-.364 4.735-.182 5.458 1.371 5.458 2.16 0 5.101-3.038 5.101-5.27 0-.886.45-1.89 1-2.23.55-.34 1 .035 1 .834 0 2.749 6.643 3.761 7.639 1.164.742-1.933-3.701-5.687-5.231-4.42-1.863 1.544-2.334-.142-.604-2.163 1.881-2.196 3.826-2.485 4.476-.665.245.688.797.923 1.226.524 1.594-1.485-1.82-3.774-5.628-3.774-2.816 0-3.878.419-3.878 1.531m-115 4.96c0 .271 1.462 1.894 3.25 3.608 1.788 1.714 3.102 3.814 2.92 4.665-.181.852 1.731 3.468 4.25 5.814 7.293 6.792 6.682 7.395-7.67 7.58-25.065.323-39.764-.095-41.81-1.19-2.241-1.2-14.626-.372-16.479 1.101-1.075.854-68.282 2.516-142.461 3.522-23.375.317-43.175.813-44 1.102-.825.289 3 2.034 8.5 3.878 11.248 3.771 27.291 5.677 29.857 3.548 1.112-.923 3.059-.63 8.958 1.351 8.991 3.018 10 3.097 9.246.723-.531-1.674-.078-1.746 6.183-.973 15.049 1.856 25.256 5.02 25.256 7.827 0 2.031 5.769 3.306 7.75 1.713.855-.687 1.25-.65 1.25.118 0 1.516 4.294 1.428 5.842-.12.819-.819 1.482-.894 1.95-.22.389.562 2.845 1.072 5.458 1.134 4.032.094 4.75-.175 4.75-1.78 0-2.451 1.23-2.4 3.534.146 1.64 1.811 1.943 1.86 2.739.439.782-1.397 1.166-1.421 3.06-.189 1.192.774 5.092 1.905 8.667 2.514 14.051 2.391 13.44 2.393 14.513-.045 1.15-2.617 4.378-3.551 5.576-1.614.629 1.019 1.107 1.061 1.991.177.64-.64 1.753-.938 2.473-.661.884.339 1.412-.577 1.628-2.829.293-3.058.625-3.355 4.069-3.64 2.063-.171 3.75-.703 3.75-1.182s4.162-1.078 9.25-1.331c24.248-1.208 25.75-1.484 25.75-4.736 0-2.389 1.878-2.463 8.978-.355 2.937.872 6.507 1.355 7.931 1.072 1.558-.31 4.584.404 7.591 1.791 2.75 1.268 7.925 3.233 11.5 4.367 10.509 3.333 15.29 5.209 18.823 7.388 2.645 1.631 3.564 1.794 4.5.798.905-.962.884-1.359-.091-1.716-2.459-.901-4.048-3.274-3.526-5.268.603-2.307.703-2.343 3.058-1.105 6.111 3.214 13.453 6.203 13.969 5.687.335-.334-.369-1.648-1.562-2.918-2.679-2.851-2.73-3.682-.23-3.682 3.259 0 3.302-1.801.125-5.231C327.665 658.541 326.107 656 329.622 656c2.407 0-.066-2.676-4.62-4.999-1.997-1.019-6.18-4.361-9.295-7.427-4.784-4.708-8.707-6.998-8.707-5.083m145.432 49.399c.545.882-5.216 4.11-7.333 4.11-1.771 0-1.261-1.811.651-2.311 1.317-.344 1.193-.486-.5-.573-1.238-.064-2.25.334-2.25.884s-.9 1-2 1c-1.344 0-2 .667-2 2.031 0 2.292-.603 2.573-7.204 3.359-3.445.409-5.108.155-6.214-.951-1.102-1.102-3.344-1.45-8.296-1.287-8.799.289-13.032 2.043-14.812 6.139-1.061 2.438-1.405 2.714-1.435 1.148-.021-1.134-.939-3.028-2.039-4.209-1.1-1.18-2-2.583-2-3.116 0-4.559-13.892-7.1-17.433-3.188-2.128 2.352-1.674 5.69.719 5.28 2.32-.398 2.167 1.03-.274 2.554-1.093.683-1.922 2.029-1.842 2.991.081.962.076 3.662-.012 5.999L378 712h-4.5c-4.104 0-4.5-.215-4.5-2.441 0-1.343-.488-2.743-1.085-3.112-1.277-.789-23.326-.61-25.456.207-1.776.682-1.963 3.447-.209 3.096 1.219-.244 1.282.789.532 8.75-.264 2.804-.037 3.02 3.468 3.31 6.142.509 4.253 2.187-2.5 2.222-3.855.019-6.981.585-8.158 1.475-1.67 1.265-2.047 1.254-3.028-.089-.949-1.298-2.109-1.374-7.563-.496-3.635.586-6.819.66-7.308.171-1.647-1.647 1.672-2.428 9.502-2.236 4.313.106 8.734-.284 9.824-.867 1.981-1.06 2.644-3.98 1.231-5.422-.413-.421-.75-2.858-.75-5.417V706.5l-10.5.283a1717.3 1717.3 0 0 0-16 .5l-5.5.217-.699 5c-1.539 11.014-2.02 9.936 4.699 10.538 5.942.532 5.971.55 3 1.835-1.65.713-4.724 1.072-6.832.796-2.934-.383-4.209-.06-5.441 1.379-1.731 2.021-4.227 1.035-4.227-1.67 0-1.65-.516-1.708-3.067-.342-1.946 1.041-4 5.027-5.311 10.303l-.705 2.84 10.102-.489c7.737-.374 10.555-.9 12.041-2.244 1.865-1.688 1.94-1.67 1.94.476 0 1.934.459 2.192 3.446 1.934 1.896-.163 3.771.028 4.167.424 2.563 2.563 10.387-.648 10.387-4.264 0-.955.542-.835 1.937.427 1.065.964 2.368 1.486 2.895 1.161.527-.326 1.216.08 1.532.902.635 1.655 9.636 2.198 9.636.581 0-.505 1.327-.412 2.966.206 2.575.972 3.276.829 5.314-1.087 2.422-2.274 5.191-2.872 6.146-1.325.878 1.42 5.962 2.035 7.348.888 2.52-2.084 2.381.167-.168 2.716-1.588 1.588-2.606 3.719-2.606 5.453 0 2.676-2.363 4.901-3.409 3.209-.26-.421-3.087-.439-6.282-.041-3.195.399-6.821.763-8.059.81-1.555.058-2.25.702-2.25 2.084 0 1.556-.667 2-3 2-1.65 0-3-.45-3-1s-.889-1-1.975-1c-1.727 0-1.848-.336-.961-2.667 1.277-3.359-.056-4.339-4.978-3.658-5.682.785-6.086 1.08-6.086 4.433v3.171l5-.593c2.916-.345 5-.195 5 .361 0 .524-.723.953-1.607.953-1.055 0-1.398.544-1 1.582.334.87.607 2.64.607 3.933 0 1.823.619 2.423 2.75 2.669 2.686.309 2.757.484 3.044 7.566.161 3.987.704 7.25 1.206 7.25s1.045-3.263 1.206-7.25c.283-6.988.384-7.25 2.794-7.25 2.342 0 2.519.363 2.8 5.75.322 6.168 1.156 6.87 4.977 4.193 1.815-1.27 2.223-2.516 2.223-6.777 0-6.936 1.93-9.666 6.834-9.666 4.413 0 7.905 2.172 8.348 5.192.271 1.85.988 2.184 4.818 2.241 2.475.037 4.996.39 5.603.785 1.428.93 4.15-1.087 5.714-4.235.678-1.366 2.234-2.627 3.458-2.803 2.413-.346 2.889.756 1.098 2.547-.836.836-.214 2.243 2.407 5.45 2.449 2.996 3.754 5.805 4.252 9.152.781 5.244 4.237 8.302 6.654 5.885.688-.688 2.783-.906 5.341-.555 5.625.771 6.53-.933 2.527-4.758l-3.131-2.992 2.289-2.899c2.863-3.627 2.822-3.627 6.287-.011 3.18 3.319 3.352 2.303-2.065 12.169-.805 1.467-1.685 5.509-1.955 8.982-.73 9.384-2.311 12.85-5.861 12.85-2.513 0-6.75 2.286-9.695 5.23-3.305 3.306-4.489 3.45-5.949.722-.602-1.126-2.198-2.467-3.546-2.979-2.719-1.034-2.895-6.027-.447-12.67 1.824-4.95-.199-7.819-2.265-3.211-1.926 4.299-3.056 15.58-1.647 16.45.677.419.693 1.04.044 1.822-1.11 1.337-3.732 8.849-4.411 12.636-.447 2.495-.449 2.496-1.192.25-.409-1.237-1.553-2.25-2.543-2.25-.99 0-1.955-.463-2.144-1.03-.444-1.333-13.384.421-15.391 2.087-2.103 1.745-1.782 8.228.554 11.198 1.66 2.111 1.76 2.711.61 3.665-1.74 1.444-2.662 6.088-1.602 8.069.548 1.025 2.166 1.462 5.026 1.359 3.379-.122 4.317.226 4.716 1.75.273 1.046.932 1.902 1.464 1.902 1.224 0 .455 2.488-.783 2.535-3.15.122-12.417 10.857-12.417 14.384 0 1.6 3.72 1.311 6.491-.505 1.332-.873 2.911-1.284 3.509-.914.598.37 1.743.128 2.544-.536 1.446-1.201 1.591-1.1 1.831 1.272.069.68.993 1.404 2.054 1.608 1.061.205 2.556.998 3.322 1.764 3.051 3.051 5.387 1.187 3.101-2.473-1.618-2.591 1.621-5.753 5.443-5.314 2.211.254 2.671.709 2.204 2.182-.437 1.378.393 2.531 3.191 4.432 4.442 3.019 5.547 1.893 4.596-4.685-.426-2.949-.212-3.75 1.003-3.75.849 0 1.701.471 1.893 1.047.192.576 3.042 1.199 6.334 1.384 3.291.186 6.659.617 7.484.958 1.882.778 16.92.126 19.172-.832.919-.391 2.494-.287 3.5.231 2.297 1.183 4.328.504 4.328-1.448 0-1.077-.91-1.415-3.264-1.212-1.796.155-3.78-.037-4.41-.427-.63-.389-1.861-.433-2.736-.097-.874.335-1.59.112-1.59-.497 0-1.371-3.657-1.471-4.49-.123-.683 1.105-12.781.585-14.752-.634-.691-.427-2.495-.646-4.007-.488-1.513.159-2.751-.163-2.751-.715 0-2.287 3.361-4.03 10.084-5.231 7.82-1.398 10.74-3.218 8.839-5.509-1.696-2.043-.344-4.407 2.521-4.407 2.251 0 2.445.305 1.906 3-.762 3.811-.173 3.77 3.595-.25 3.842-4.099 3.849-5.641.029-6.405-2.448-.49-2.907-.981-2.403-2.569.43-1.354-.242-2.866-2.161-4.87-3.113-3.249-6.448-3.725-8.903-1.27-3.274 3.274-4.007-.108-1.099-5.07 2.576-4.394 5.007-5.652 7.142-3.695 2.135 1.957 6.324 2.176 7.367.385.562-.966 1.036-1.196 1.053-.511.02.855 1.754 1.206 5.53 1.119 5.36-.124 7.268-1.38 3.75-2.468-.962-.298-2.543-.966-3.512-1.485-.969-.519-2.994-.658-4.5-.31-2.727.631-2.725.622.669-2.297 2.677-2.302 3.388-3.647 3.313-6.272-.069-2.423.576-3.87 2.342-5.26 5.083-3.997 2.778-5.772-7.498-5.772h-6.772l2.413-5.043c1.328-2.774 2.771-6.936 3.207-9.25.593-3.148.983-3.766 1.547-2.457 1.013 2.348 2.188 2.208 2.854-.34.414-1.582 1.049-1.93 2.617-1.432 2.337.741 3.138-2.93.82-3.758-.687-.245-.923-.797-.524-1.226.399-.428 1.412-.21 2.25.486.838.696 1.524.906 1.524.468s1.125.26 2.5 1.552c2.831 2.659 3.209 4.791 1 5.638-1.802.692-1.879 2.366-.342 7.496 1.371 4.576 4.356 5.274 5.842 1.366.569-1.496 1.74-2.5 2.916-2.5 2.928 0 3.378-1.579 1.548-5.434-2.283-4.812.306-8.892 5.119-8.067 2.545.437 3.272.115 4.164-1.843.795-1.745 2.205-2.553 5.329-3.052 3.228-.516 3.969-.959 3.086-1.842-.639-.639-1.162-1.936-1.162-2.881 0-2.014 3.158-7.865 4.25-7.875.413-.003.75-.671.75-1.483 0-2.256 4.857-4.941 8.494-4.696 2.907.195 3.313-.111 3.876-2.929 1.077-5.385.734-45.716-.395-46.413-.564-.349-2.239.75-3.723 2.441-1.529 1.742-3.684 3.074-4.975 3.074-2.568 0-3.057-1.487-.777-2.362 2.309-.886 1.777-2.638-.801-2.638-1.419 0-3.915-1.692-6.508-4.413-3.088-3.24-5.268-4.593-8.199-5.088-2.195-.371-3.992-1.085-3.992-1.587s-.477-.912-1.059-.912-.811.401-.509.89m-4.861 8.681c-1.778 1.779-1.953 3.276-.629 5.37.589.93.406 2.418-.515 4.2-1.934 3.74-1.835 4 1.222 3.232 1.72-.432 2.425-.301 2.009.372-.353.57.425 1.735 1.729 2.589 1.44.944 2.638 2.985 3.055 5.207.667 3.556.738 3.606 2.645 1.88 1.561-1.412 2.21-1.52 3.187-.53 1.504 1.526-1 3.663-5.866 5.007-1.752.484-4.135 1.717-5.297 2.741-6.176 5.445-5.712 5.23-6.963 3.226-1.515-2.426-1.448-2.917.306-2.244.799.306 2.474-.158 3.722-1.032 2.247-1.574 2.233-1.589-1.453-1.589-2.048 0-3.723.441-3.723.981 0 2.154-4.916 2.23-7.6.119-3.252-2.558-5.615-2.715-5.271-.35.44 3.027-1.178 6.25-3.137 6.25-1.031 0-2.152.45-2.492 1-.902 1.459-2.5 1.222-2.5-.371 0-1.547-9.832-3.278-10.975-1.933-.376.442-.488 4.516-.248 9.054.417 7.915.532 8.25 2.829 8.25 1.727 0 2.394-.557 2.394-2 0-1.1.45-2 1-2s1 .706 1 1.57c0 1.055.737 1.464 2.25 1.25 1.994-.284 2.212-.803 1.914-4.57l-.336-4.25h4.086c3.855 0 4.086-.166 4.086-2.941 0-1.618.45-3.219 1-3.559.617-.381 1 1.349 1 4.52v5.139l-2.93-.644c-2.331-.512-3.157-.221-4.036 1.421-1.174 2.194 1.148 3.196 2.466 1.064 1.206-1.952 4.459-.98 5.857 1.75 1.26 2.461 1.2 3.118-.569 6.25-1.779 3.148-1.934 3.235-1.543.862.406-2.463.142-2.671-3.991-3.137-5.874-.662-14.017 1.583-17.167 4.733-2.027 2.027-2.203 2.542-.871 2.542.919 0 2.323.932 3.121 2.071l1.45 2.071 1.418-2.024c3.153-4.502 11.795-4.519 11.795-.024 0 1.191.903 1.877 2.75 2.09 1.901.218 2.707.856 2.611 2.066-.076.962.261 1.75.75 1.75s.889-.45.889-1 .945-1.945 2.1-3.1c2.2-2.2 1.748-3.382-1.6-4.187-1.772-.426-1.738-.494.301-.597 2.207-.111 3.029-1.372 5.619-8.616.664-1.859.784-1.877 1.697-.25 1.204 2.145 4.345 2.396 3.534.282-.783-2.039.419-2.547 6.336-2.68 3.895-.088 5-.444 4.601-1.484-.354-.922.253-1.368 1.862-1.368 1.312 0 3.098-.273 3.968-.607 1.134-.435 1.582-.01 1.582 1.5 0 1.159.45 2.107 1 2.107s1-.9 1-2c0-1.333.667-2 2-2 2.321 0 2.421.353.824 2.909-.946 1.517-.849 2.209.503 3.561 1.887 1.887 2.374 1.216 2.88-3.97.269-2.755.566-2.973 3.633-2.665 2.789.279 3.282.032 2.989-1.5-.289-1.519-1.473-1.885-6.867-2.126l-6.517-.29.027-4.708c.027-4.469.228-4.809 3.983-6.709 2.175-1.101 4.847-2.79 5.938-3.752 1.091-.962 3.008-1.75 4.26-1.75 2.572 0 4.347-2.628 4.347-6.434 0-2.802-.925-3.241-2.825-1.341-.928.928-1.667.949-3.05.085-1.466-.916-2.651-.671-6.017 1.241-6.201 3.522-7.087 3.448-8.537-.715-2.263-6.498-8.708-12.755-7.797-7.57.355 2.023-3.392 1.173-4.208-.955-.844-2.199.219-3.311 3.167-3.311h2.616L453 697.5c-2.752-2.93-3.329-3.028-5.429-.929m-32.203 6.212c-1.705 2.729-2.82 8.614-1.475 7.783.609-.376 1.579-.392 2.156-.036 1.962 1.213-1.078 3.352-5.764 4.055l-4.552.682 2.633 1.598c1.449.879 2.634 1.832 2.634 2.117 0 .748 5.887.465 6.672-.321.842-.842 5.792-.864 6.626-.03.347.348.182 1.473-.368 2.5-.814 1.52-.646 1.869.899 1.869 1.501 0 2.032-.972 2.535-4.64 1.288-9.393 1.084-10.005-4.601-13.833-6.086-4.099-5.945-4.066-7.395-1.744m-16.747 28.93c-.154.153-3.844.529-8.2.835-10.57.742-10.421.657-10.421 5.921 0 2.492-.45 4.531-1 4.531s-1-1.548-1-3.441c0-4.024-1.17-5.073-3.979-3.57-2.08 1.113-2.911 8.135-1.256 10.61 1.039 1.554 10.432 1.347 12.045-.266 1.719-1.719 2.656-1.682 4.19.167 1.976 2.381 7.703 1.923 9.123-.729l1.193-2.23 1.016 2.276c.671 1.505 1.72 2.176 3.092 1.98 1.904-.272 2.076-.961 2.076-8.297v-8l-3.3-.033c-1.815-.019-3.426.092-3.579.246m-131.343 14.409c-.617.617-.901 1.696-.632 2.399.27.702.01 1.574-.578 1.937-3.206 1.981.461 9.542 4.628 9.542 3.488 0 5.234-2.613 5.272-7.89.043-5.941-5.155-9.523-8.69-5.988m-64.292 2.395c-3.401 4.098-.667 13.483 3.927 13.483 3.816 0 5.42-2.219 5.42-7.5 0-2.416-.58-5.092-1.289-5.947-1.648-1.986-6.422-2.008-8.058-.036m33.746 27.573c-.972.566-2.772.89-4 .72-1.786-.248-2.295.24-2.548 2.44-.363 3.147-2.184 3.773-2.184.75 0-2.314-1.713-2.533-4.327-.551-1.73 1.31-1.737 1.524-.135 3.968 1.98 3.022 8.32 3.664 10.48 1.061 1.116-1.344 1.428-1.286 2.679.5C239.72 789.293 242 787.583 242 781c0-6.372-1.06-7.36-5.268-4.91m-19.253 5.934c-1.379 1.523-3.081 1.976-7.434 1.976-3.105 0-6.166.521-6.803 1.158-.876.876-1.516.86-2.634-.069-.813-.674-2.969-1.082-4.793-.907-3.195.307-3.315.475-3.315 4.659 0 4.196-.181 4.446-5.426 7.527-6.103 3.584-7.143 5.119-4.018 5.936 2.912.762 5.035-.198 4.712-2.132-.156-.93.569-1.766 1.732-1.997 1.1-.219 2.36-1.023 2.8-1.786.44-.764 1.571-1.389 2.515-1.389 2.458 0 13.94-5.766 14.44-7.252.231-.686 1.506-1.284 2.833-1.327 8.097-.265 9.912-.525 9.912-1.421 0-.55-.675-1-1.5-1-1.788 0-2.01-1.663-.299-2.234.817-.272.86-.61.133-1.059-.587-.363-1.872.23-2.855 1.317m-81.479.908c0 .533.787 1.427 1.75 1.988 1.496.871 1.351 1.024-1 1.05-1.929.021-2.759.553-2.78 1.78-.029 1.667-.079 1.667-1.05 0-.561-.962-1.897-1.75-2.97-1.75-2.068 0-2.625 1.465-.95 2.5.55.34 1 1.436 1 2.437 0 2.723 2.644 4.604 4.411 3.137.988-.82 1.61-.85 2.073-.1.659 1.067 9.031.844 10.145-.27.317-.317 1.543-.221 2.724.213 2.773 1.019 23.759.831 25.397-.227 1.736-1.122 1.568-7.181-.241-8.682-.82-.681-2.853-1.038-4.519-.793-1.795.263-3.477-.097-4.131-.885-1.344-1.619-3.859-1.755-3.859-.208 0 .78-.454.746-1.487-.111-1.717-1.425-4.513-.676-4.513 1.208-.001 2.088-8.738 1.889-9.288-.211-.487-1.864-10.712-2.891-10.712-1.076m-39.279 1.4c-.397 1.007-.721 2.795-.721 3.972v2.141l-1.557-2.222c-1.721-2.457-4.385-2.881-6.268-.998-.922.922-1.671.946-3.03.097-1.926-1.202-10.779-.088-12.432 1.565-1.127 1.127-.514 6.109.787 6.394.55.12 1.444-.794 1.987-2.031 1.307-2.978 2.513-2.858 2.513.25 0 1.556.567 2.5 1.5 2.5s1.5-.944 1.5-2.5c0-3.249 1.601-3.226 2.42.035.611 2.438.91 2.529 7.694 2.358 8.079-.204 8.237-.38 7.13-7.925-.56-3.814-1.021-4.914-1.523-3.636m17.946-.665c-.987.986-.809 8.199.25 10.178.648 1.211 2.375 1.776 5.895 1.929 5.634.246 6.381-.58 5.309-5.863-.608-2.998-1.111-3.451-4.156-3.741-1.906-.181-3.825-.969-4.265-1.75-.864-1.535-1.975-1.811-3.033-.753m-87.018 15.46c-2.349 6.611-1.809 7.016 8.885 6.664l8.852-.291-3.33-3.788c-4.175-4.749-6.87-6.298-8.363-4.805-1.611 1.611-2.666 1.34-3.494-.898-.604-1.634-1.061-1.075-2.55 3.118m274.851 3.364c-.55.184-2.18.593-3.622.909l-2.623.574-.172 21.331c-.103 12.705.246 22.429.861 24.048.844 2.219.734 2.833-.6 3.345-2.119.813-4.551-2.397-3.473-4.586.636-1.293.73-12.361.205-24.362-.042-.962-.526-1.75-1.076-1.75-.624 0-1 5.865-1 15.594 0 14.777-.105 15.621-2.01 16.119-1.105.289-2.74 2.066-3.634 3.95l-1.625 3.424-1.851-3.044c-2.148-3.532-1.914-3.473-6.412-1.594-4.853 2.028-4.49 3.738.62 2.921 3.886-.621 4.072-.535 3.75 1.738-.227 1.608-1.095 2.499-2.646 2.719-1.269.18-2.134.855-1.921 1.5.473 1.438 4.273 2.087 6.552 1.118.922-.392 3.324-.621 5.338-.509 2.612.146 3.945-.304 4.653-1.569.724-1.292 1.357-1.495 2.339-.747 1.601 1.22 5.847 1.58 5.847.496 0-.417-.866-2.527-1.925-4.687l-1.924-3.929 2.674-2.169c1.471-1.192 2.825-1.755 3.008-1.25.184.506 1.646.919 3.25.919 3.943 0 3.881 2.882-.149 6.912-3.121 3.121-3.167 5.032-.125 5.158 1.416.059 1.379.193-.224.821-2.864 1.123-2.854 4.003.016 4.724 1.333.334 2.868 1.346 3.411 2.247.899 1.492 1.117 1.47 2.449-.251 1.497-1.933 4.716-4.096 7.733-5.197.993-.362 1.821-1.921 2-3.766.369-3.795 4.099-4.956 6.355-1.978.818 1.079 1.4 1.317 1.419.58.057-2.251 4.032-1.447 4.032.816 0 4.295-1.805 5.934-6.535 5.934-4.47 0-4.992.463-3.858 3.418.715 1.865 5.181 2.091 8.791.446 1.782-.812 3.649-.841 6.553-.104 2.357.598 4.293.655 4.614.135.304-.492-.514-.895-1.817-.895-2.389 0-6.748-3.255-6.748-5.039 0-.529.906-.961 2.014-.961 1.107 0 2.795-.423 3.75-.94.955-.516 2.993-1.205 4.529-1.529 3.702-.783 4.445-3.117 1.866-5.862-2.073-2.206-2.074-2.241-.126-3.457 2.582-1.613 2.562-5.244-.033-5.922-2.185-.572-2.493-1.376-1.088-2.84.502-.522 1.156-3.425 1.455-6.45.299-3.025.83-7.354 1.181-9.62.452-2.924.15-5.063-1.04-7.365-1.207-2.333-1.373-3.55-.593-4.33.597-.597 1.085-2.388 1.085-3.981 0-1.592.908-4.171 2.018-5.729 2.419-3.398 1.347-4.454-3.583-3.529-2.317.435-3.435 1.199-3.436 2.349-.001 1.418-1.04 1.711-6.18 1.743-3.92.024-6.325.481-6.582 1.25-.784 2.352-5.919 1.235-10.538-2.292-6.344-4.844-11.043-6.391-15.199-5.005m-46.948 7.759c-.212.688-.664 2.52-1.005 4.071-.526 2.389-1.057 2.776-3.459 2.524-1.561-.163-3.55.293-4.419 1.015-.87.722-2.081 1.003-2.692.626-.61-.377-2.699-.686-4.641-.686-3.427 0-3.52-.1-3.135-3.4.301-2.574.021-3.4-1.152-3.401-1.123 0-1.549 1.03-1.549 3.75v3.751h-12.87l-.992-3.5-.992-3.5-.999 3.75c-.953 3.574-1.196 3.75-5.168 3.75-5.095 0-7.551 2.264-6.779 6.25.794 4.096 4.079 3.73 4.487-.5l.313-3.25 25.081-1 25.082-1-1.789-2.949c-1.275-2.104-1.489-3.31-.745-4.207 1.115-1.343.386-3.344-1.219-3.344-.535 0-1.146.563-1.358 1.25m209.129 18.14c-.398 1.035-1.713 1.148-5.822.499-2.92-.462-5.618-.513-5.996-.114-.598.631 1.433 6.168 4.183 11.404.583 1.109.47 1.817-.332 2.087-2.03.683 1.311 3.873 3.698 3.532 1.149-.164 2.532-1.311 3.075-2.548 1.343-3.061 2.753-2.853 11.955 1.765 4.368 2.192 8.08 3.985 8.25 3.985.169 0 .308-1.974.308-4.387 0-4.775.45-4.481-9.551-6.247-2.392-.422-3.43-1.411-4.8-4.573-2.22-5.125-4.234-7.316-4.968-5.403M10.844 852.75c-.215.962-.226 14.688-.025 30.5l.366 28.75h4.741c6.179 0 6.187-.018 2.991-6.743-2.69-5.66-2.742-6.136-3.077-28.328-.294-19.503-.568-22.8-2.019-24.25-2.109-2.11-2.494-2.101-2.977.071m413.588 16.156c-.226.223-5.928.448-12.671.5l-12.261.094-.335 2.5c-.519 3.878-1.966 4.654-3.103 1.663-.888-2.335-1.562-2.663-5.478-2.663-5.264 0-5.704.487-4.902 5.43.408 2.513 1.299 4.021 2.713 4.592 2.344.948 2.632.871-4.895 1.305-1.65.095-4.664 1.505-6.699 3.132-4.831 3.866-3.587 5.748 3.625 5.484 2.791-.102 5.806.121 6.701.496.895.374 3.82.541 6.5.371l4.873-.31.308-4.259c.343-4.743-2.059-6.986-4.258-3.978-1.044 1.428-1.283 1.394-2.364-.337-1.142-1.828-.868-1.926 5.371-1.926 8.129 0 10.026-.965 10.884-5.535.682-3.635 4.395-4.9 3.791-1.291-.575 3.437 1.565 6.566 4.946 7.232 8.301 1.634 13.047-.138 9.072-3.387-3.635-2.972-2.993-6.019 1.269-6.019 3.119 0 3.467.256 3.058 2.25-.254 1.237-.749 4.05-1.1 6.25-.352 2.2-1.435 4.9-2.409 6-4.4 4.972-2.992 7.337 5.138 8.622 6.463 1.021 7.734 2.182 5.315 4.854-1.813 2.004-1.786 2.024 2.765 2.024 2.528 0 4.852.414 5.164.919.726 1.174-2.066 3.985-5.105 5.14-4.644 1.766-2.384 2.941 5.655 2.941 4.556 0 8-.422 8-.98 0-1.503 7.785-5.177 8.505-4.013.953 1.543 5.297 1.169 6.253-.539.731-1.306 1.29-1.155 3.8 1.03 1.785 1.554 3.926 2.466 5.443 2.319 1.375-.134 3.009.071 3.632.456 1.32.816 2.548-13.137 2.249-25.558-.258-10.722-2.83-11.076-2.868-.395-.012 3.336-.286 3.779-2.162 3.5-1.181-.176-2.644-1.22-3.25-2.32-1.75-3.176-2.638-3.455-11.102-3.488-18.666-.072-19.383-.248-28.27-6.952-3.75-2.828-2.86-4.021 3.02-4.045 2.063-.008 3.75-.503 3.75-1.099 0-1.02-17.538-1.03-18.568-.01M253.75 882.572c-2.062 1.955-3.75 4.414-3.75 5.465 0 1.133-1.323 2.62-3.25 3.651-4.631 2.478-9.75 4.211-9.75 3.301 0-1.395-3.222-2.049-4.573-.929-.881.732-1.045 1.815-.493 3.267.455 1.195.88 2.623.946 3.173.187 1.557 4.62 1.182 4.62-.391 0-2.627 3.291-3.777 4.82-1.685.95 1.298 1.595 1.523 2.086.727.877-1.418 5.247-1.521 6.098-.144.343.554-.053 1.267-.88 1.584-.826.317-1.813 1.995-2.194 3.728-.381 1.734-1.42 3.685-2.31 4.335-.889.65-1.294 1.505-.9 1.899.79.791 45.687.873 46.475.086.27-.27-.943-1.233-2.695-2.139-1.752-.906-3.437-1.396-3.744-1.089-.307.307-1.053-.054-1.657-.803-1.385-1.715-7.321-2.867-8.119-1.575-1.065 1.722-8.998 1.026-14.602-1.283-5.314-2.189-5.427-2.318-4.184-4.75 2.03-3.974 1.692-6.334-.812-5.679-3.387.885-1.804-6.946 2.134-10.557 1.641-1.505 2.984-2.967 2.984-3.25 0-1.514-2.948-.072-6.25 3.058M46 882.689c0 .514 2.817 3.764 6.26 7.224 5.824 5.852 6.608 6.311 11.25 6.59 10.377.624 58.348.703 59.328.097a1.203 1.203 0 0 1 1.652.384c.39.631 7.871 1.016 19.736 1.016 21.863 0 24.405-.864 4.643-1.578-7.353-.266-15.619-.678-18.369-.916s-19.93-.475-38.178-.526l-33.178-.092-4.845-5.194c-5.688-6.097-8.299-8.301-8.299-7.005m360.25 2.645c-4.685.762-6.25 1.424-6.25 2.642 0 3.746 5.536 5.493 8 2.524 1.577-1.9 3-1.928 3-.059 0 2.828 2.222 2.737 5.336-.218 1.74-1.651 4.183-3.309 5.429-3.685 1.245-.375 2.006-1.1 1.691-1.61-.707-1.144-8.859-.951-17.206.406m-89.21 13.62c-1.257.795-1.215 1.195.297 2.866 2.082 2.3.15 5.18-3.474 5.18-2.485 0-5.863 1.749-5.863 3.035 0 .531 2.7.965 6 .965 5.753 0 6-.104 6-2.531 0-1.53.692-2.754 1.75-3.094 7.042-2.263 9.669-4.375 5.441-4.375-.995 0-2.682-.661-3.75-1.468-2.246-1.699-4.331-1.887-6.401-.578M82 911.024c1.809 1.199 66.524 1.129 69.5-.075 1.1-.444-14.425-.833-34.5-.863-24.502-.037-36.007.271-35 .938" fill="#d3d3d3" fill-rule="evenodd"/></svg>