<svg xmlns="http://www.w3.org/2000/svg" width="500" height="860"><path d="M0 13.671c0 11.318.285 13.986 1.655 15.5 1.54 1.702 1.54 1.829 0 1.829C.745 31 0 31.695 0 32.544c0 .909.71 1.423 1.728 1.25 1.692-.288 1.893.11 2.147 4.241.122 1.984.184 1.978 2.472-.25 1.551-1.509 1.975-2.534 1.25-3.02-.675-.452-.424-.74.653-.75.963-.008 1.75-.413 1.75-.898 0-.486.9-1.119 2-1.407 1.1-.287 2-1.21 2-2.049s.788-1.733 1.75-1.987c.963-.253 4-1.04 6.75-1.749 2.75-.708 6.125-2.096 7.5-3.083 2.487-1.786 5.503-2.423 16-3.38 3.025-.276 7.619-1.198 10.208-2.048 2.59-.851 6.112-1.405 7.827-1.23 3.003.304 2.884.438-3.208 3.606-7.308 3.799-9.738 5.25-11.526 6.879-.705.644-2.815 1.675-4.687 2.293-2.592.856-3.288 1.568-2.918 2.985.331 1.265-.182 2.073-1.605 2.524-1.15.365-2.091 1.011-2.091 1.436 0 .425-1.15 1.296-2.556 1.937-1.406.64-2.28 1.612-1.942 2.159.338.548-.961 1.925-2.887 3.062-2.224 1.312-3.301 2.589-2.952 3.5.303.789.043 1.435-.577 1.435-.621 0-1.641 1.125-2.268 2.5-.626 1.375-1.544 2.5-2.039 2.5-2.315 0-10.551 6.429-10.018 7.82.44 1.147.025 1.335-1.847.837A1652.72 1652.72 0 006 60.362l-2.5-.653 2.5 1.96c1.375 1.077 4.188 2.739 6.25 3.692 2.517 1.163 3.75 2.395 3.75 3.745 0 1.107.45 1.734 1 1.394.55-.34 1 .11 1 1s.43 1.352.956 1.027c.526-.325.754-1.139.507-1.809-.269-.731 2.542-2.618 7.03-4.718 4.113-1.925 7.485-3.803 7.493-4.172.008-.37 1.589-1.193 3.514-1.828 1.925-.635 3.5-1.645 3.5-2.244 0-.599.271-.818.603-.487.331.332 1.794.129 3.25-.451 1.456-.58 3.9-1.219 5.432-1.421 1.532-.201 8.957-2.878 16.5-5.948 7.543-3.07 14.39-5.853 15.215-6.185 1.153-.463 1.095-.141-.25 1.395-1.892 2.161-2.293 4.887-.85 5.779.494.306 1.465 2.92 2.157 5.809 1.438 6.006 3.182 7.799 7.443 7.653 4.72-.161 4.92-.022 3 2.1-1.762 1.947-1.746 2.002.595 2.063l2.405.064-2.355.943c-1.462.585-2.144 1.49-1.801 2.385.339.882-.24 1.695-1.486 2.09-1.38.438-1.883 1.252-1.553 2.515.269 1.026-.14 2.388-.908 3.026-1.689 1.402-1.825 3.605-.254 4.128 4.317 1.439-6.923 9.259-14.656 10.197-3.465.42-4.377.319-2.987-.333 4.188-1.963-7.249-1.627-11.988.352-2.821 1.179-3.059 1.633-2.72 5.189.425 4.45-.565 4.942-15.792 7.849-4.125.787-8.85 1.87-10.5 2.407-2.947.959-16.602 2.848-21.487 2.973-1.93.049-2.154-.147-1-.877 1.162-.735.941-.947-1.013-.971-1.983-.024-2.19-.231-1-1 1.09-.704 1.142-.974.191-.985-.72-.008-1.016-.489-.658-1.068C5.062 106.09 1.601 102 .347 102 .156 102 0 106.936 0 112.969c0 9.989.156 10.919 1.75 10.418 1.667-.524 1.667-.482 0 .892C.235 125.527 0 127.606 0 139.79v14.07l2.75-.873c1.513-.48 4.563-1.537 6.778-2.349C15.239 148.546 22 147.649 22 148.983c0 .594-.675 1.339-1.5 1.655-.844.324-1.5 1.813-1.5 3.403 0 2.318-.481 2.883-2.673 3.143-2.868.339-4.548 2.816-1.91 2.816.871 0 1.583.266 1.583.591C16 161.697 6.761 172 5.769 172c-2.544 0-5.735 4.61-5.752 8.309-.01 2.288.382 3.562.983 3.191.55-.34 1-.168 1 .382s-.45 1.278-1 1.618c-.55.34-1 3.516-1 7.059 0 5.485.26 6.434 1.75 6.396 2.539-.066 8.19-2.772 6-2.874-.963-.044-1.75-.804-1.75-1.688 0-1.055.544-1.398 1.582-1 .87.334 1.796.607 2.059.607.262 0 .199.45-.141 1-.576.932 1.721 1.516 4 1.018.55-.12 2.082-.344 3.405-.498 1.322-.153 3.122-1.183 4-2.287 2.755-3.468 16.185-10.034 23.721-11.596 12.322-2.555 21.62-8.441 19.523-12.359-1.199-2.239-.345-10.039 1.204-10.996.595-.368 2.954-.78 5.241-.914 2.414-.142 8.72-2.321 15.032-5.192l20.874-9.497c5.5-2.503 11.286-4.865 12.858-5.25 2.701-.661 2.793-.579 1.68 1.499-.695 1.299-.82 2.686-.305 3.386 2.678 3.646 1.491 7.47-3.166 10.2-2.612 1.531-4.567 3.411-4.567 4.394 0 1.036-1.391 2.264-3.5 3.092-1.925.755-3.5 1.766-3.5 2.246 0 .479-.422.611-.939.292-.516-.319-1.333.126-1.817.99-.483.863-1.973 1.694-3.311 1.845-4.077.462-8.931 3.468-8.292 5.135.367.955-.027 1.492-1.093 1.492-1.05 0-1.4.462-.947 1.25.396.688.354.919-.092.516-.446-.404-1.306-.103-1.91.67-.605.773-3.799 2.841-7.099 4.595-3.3 1.753-6.386 3.42-6.857 3.704-.471.283-.246.945.5 1.471.939.661.517.773-1.371.361-2.309-.503-2.824-.209-3.358 1.92-.385 1.533-1.341 2.513-2.451 2.513-1.001 0-2.549.729-3.439 1.619-.891.891-1.868 1.37-2.172 1.066-.304-.304-2.375.768-4.602 2.381-5.102 3.696-7.75 3.844-7.75.434 0-2.594-2.481-3.547-3.254-1.25-.335.995-.735.99-1.963-.022-1.307-1.079-1.614-.893-2.019 1.226-.555 2.902-.118 3.546 2.403 3.546 1.008 0 1.833.459 1.833 1.019 0 .588-1.058.753-2.5.392-2.67-.67-3.265.424-1.3 2.389 1.66 1.66-.283 1.557-3.657-.193-1.849-.96-2.274-1.584-1.364-2.006.727-.337-.024-.35-1.669-.028-4.075.798-4.729 2.31-2.408 5.57 1.939 2.723 1.939 2.765.019 3.792-1.068.572-3.282 2.283-4.92 3.802-4.514 4.188-6.199 5.422-6.216 4.552-.009-.434-.391-.197-.85.527-.46.725-1.614 1.431-2.565 1.571-.951.139-2.071.806-2.488 1.481-.584.945-1.029.9-1.938-.194-.943-1.137-.691-1.741 1.264-3.022 1.83-1.199 2.567-1.293 2.938-.376.284.701.53.476.575-.526.043-.963.529-1.75 1.079-1.75.55 0 1.036-.787 1.079-1.75.043-.963.289-1.239.545-.615.347.846 1.088.846 2.913 0 3.058-1.418 3.297-3.666.307-2.884-1.493.39-1.933.203-1.431-.61.399-.645 1.102-.941 1.563-.656.461.285.602-.383.314-1.484-.63-2.409-1.111-2.473-3.353-.444-.946.856-2.8 1.671-4.121 1.812-1.32.141-2.906.568-3.523.95-.617.381-1.35.128-1.629-.563-.278-.691-.542-.339-.585.781-.053 1.364-.817 2.093-2.311 2.206-1.228.092-3.141.597-4.25 1.122-1.11.524-2.806 1.205-3.768 1.513-1.558.498-1.75 2.113-1.75 14.713 0 12.161.201 13.987 1.43 12.967 1.142-.948 1.646-.784 2.5.812 1.657 3.095 1.288 4.675-1.43 6.13L0 250.338v31.831C0 299.676.204 314 .453 314c1.471 0 5.552-2.495 5.577-3.411.017-.599.468-.34 1.002.575 1.557 2.667.143 4.918-2.648 4.218-1.929-.485-2.284-.285-1.788 1.007.35.914.113 1.611-.548 1.611-.641 0-.888-.45-.548-1 .34-.55.141-1-.441-1S0 317.793 0 319.985v3.986l3.25-1.982c5.183-3.16 11.321-2.367 7.328.947-.783.649-1.884 2.504-2.448 4.122-.924 2.651-.817 2.942 1.085 2.942 1.798 0 1.489.591-2.094 4-2.313 2.2-4.861 4-5.663 4-1.267 0-1.457 12.532-1.452 95.75l.007 95.75 3.068 1.746c3.024 1.721 5.944.768 6.009-1.96.01-.432 1.029-.714 2.263-.625 1.7.121 2.8-.886 4.529-4.145 2.128-4.01 2.553-4.296 6.196-4.161 3.469.129 3.91.427 3.901 2.645-.005 1.375-.423 3.154-.928 3.952-.506.799-.667 1.86-.36 2.357.307.497.917.326 1.354-.382.839-1.357 3.96-2.218 3.948-1.089-.011 1.099-3.905 6.656-4.727 6.746-.421.046-2.033.608-3.581 1.25-4.237 1.755-5.495 1.364-2.685-.834 3.069-2.401 2.365-2.452-4.846-.358-7.894 2.294-10.432 4.122-9.862 7.106.347 1.815-.125 2.674-1.916 3.49L0 546.321V860h161.46c149.631 0 161.869-.126 167.025-1.714 3.476-1.07 5.39-2.168 5.099-2.926-.256-.668.096-1.679.781-2.248 1.006-.835 19.542-7.604 26.885-9.818.962-.29 1.75-.869 1.75-1.286 0-.678 1.229-1.07 8.5-2.713 4.58-1.035 6.579-1.767 13.272-4.859 2.9-1.34 5.712-2.436 6.25-2.436 1.285 0 4.932-3.665 4.395-4.417-.229-.321-.135-.376.21-.123s1.807-.137 3.25-.866c1.443-.73 4.265-1.624 6.273-1.987 5.389-.975 7.236-3.607 2.531-3.607-1.959 0-3.871-.498-4.247-1.107-.461-.745.011-.887 1.441-.433 1.349.428 2.125.243 2.125-.508 0-.795.802-.657 2.448.422 2.388 1.565 5.427 1.307 5.677-.481.418-2.984 1.992-5.939 2.873-5.394.434.268 1.07-.635 1.414-2.006.571-2.274 2.652-3.173 5.956-2.572.478.087.598-.92.268-2.237-.521-2.073-.069-2.603 3.374-3.956 4.391-1.725 5.687-1.028 3.49 1.875-3.503 4.628-.595 4.557 4.203-.103 1.982-1.925 3.993-3.5 4.469-3.5.477 0 .619-1.013.317-2.25-.713-2.921 3.967-5.604 5.019-2.878.353.917.009 2.021-.788 2.527-2.644 1.679 2.979 13.549 6.459 13.633.89.021.75.465-.432 1.362-.964.732-2.876 1.207-4.25 1.056-2.449-.269-2.689.063-2.895 4-.056 1.073-1.987 3.323-4.291 5-2.304 1.678-4.216 3.904-4.25 4.948-.051 1.576-.612 1.322-3.309-1.5-1.786-1.869-3.602-3.398-4.036-3.398-.434 0-1.153-.589-1.597-1.308-1.787-2.89-13.119 4.125-13.119 8.121 0 2.21 2.796 4.702 4.529 4.038.809-.311 1.471-.04 1.471.601s.45.888 1 .548c.55-.34 1 .069 1 .91 0 .883.578 1.305 1.371 1.001.754-.289 1.658.223 2.009 1.138.461 1.2 1.332 1.489 3.129 1.038 2.843-.713 3.321.896 1.148 3.868-1.29 1.763-1.472 1.742-4.545-.53-2.824-2.088-2.99-2.458-1.407-3.138 1.583-.679 1.559-.733-.205-.457-1.1.173-3.703-.523-5.784-1.546-4.479-2.201-7.106-1.336-3.375 1.111 2.481 1.628 2.499 1.726.905 5.017-1.355 2.797-1.732 3.055-2.261 1.545-.6-1.711-.672-1.714-1.31-.052-.917 2.39-.851 2.822.325 2.095.55-.34 1-.168 1 .382s-.45 1.278-1 1.618c-.55.34-1 .115-1-.5s-.45-.84-1-.5c-.55.34-1 1.068-1 1.618s.45.722 1 .382c.55-.34 1-.168 1 .382 0 1.46-1.767 2.316-2.186 1.059-.206-.618-1.365-.198-2.739.994-1.309 1.136-2.69 2.065-3.067 2.065-.378 0-1.195 1.116-1.817 2.479l-1.129 2.48 49.796.022 49.796.022-.283-3.252-.283-3.251.869 3c.494 1.706.803-182.303.718-426.75L500.525 0H358.417C217.58 0 216.294.018 214.5 2c-2.301 2.543-4.699 2.543-7 0-1.788-1.975-3.08-2-104.655-2H0v13.671M163.182 36.5c-1.839 1.547-4.212 2.5-6.23 2.5-3.265 0-14.458 4.712-17.064 7.184-.763.724-3.188 2.558-5.388 4.075-6.16 4.249-11.152 9.069-11.93 11.521-.388 1.221-1.02 2.22-1.405 2.22s-.625 1.577-.535 3.504c.091 1.928-.239 3.754-.733 4.059-.493.305-.885 2.441-.871 4.746.024 3.905.298 4.317 4.018 6.032 2.196 1.013 4.547 1.926 5.225 2.028.677.103 1.794.539 2.481.968.688.43 1.306.529 1.375.222.486-2.172.38-3.217-.436-4.309-.645-.863-.457-1.25.605-1.25.847 0 1.713.521 1.925 1.158.602 1.806 4.781 2.099 4.781.336 0-1.777.481-1.842 3.13-.425 1.44.771 2.381.752 3.37-.069 1.027-.852 1.914-.849 3.527.014 2.534 1.357 10.973-.655 10.973-2.616 0-1.419 4.373-2.717 4.815-1.429.173.505 1.073.629 2 .275 2.421-.924 5.811-4.244 4.334-4.244-.941 0-.927-.326.062-1.395.709-.767 1.579-1.22 1.934-1.006.355.214.868-.189 1.139-.897.52-1.354-1.636-5.017-2.465-4.188-.265.266-1.058-.592-1.761-1.905-.703-1.313-2.353-2.878-3.668-3.477C163.994 59.04 162.852 54 165 54c.55 0 1-.675 1-1.5s.382-1.5.848-1.5c.467 0 1.645-1.913 2.62-4.25.974-2.337 2.241-5.258 2.815-6.49.826-1.772.664-2.661-.774-4.25-2.417-2.671-4.732-2.534-8.327.49M234.5 47.131c-5.415 3.84-26.267 11.986-26.878 10.499-.255-.621-.5-.342-.543.62-.043.962-.738 1.75-1.544 1.75-1.434 0-3.535 2.891-3.535 4.864 0 1.352 4.638-.048 12.317-3.718 3.401-1.625 7.308-3.284 8.683-3.688 1.375-.403 3.573-1.571 4.885-2.596 1.312-1.024 2.837-1.862 3.39-1.862.552 0 1.602-.788 2.333-1.75 1.265-1.667 1.33-1.667 1.36 0 .037 2.018.316 2.037 5.028.336 3.416-1.233 3.447-1.293 1.35-2.602-1.181-.737-1.936-1.89-1.678-2.561.914-2.383-1.223-2.09-5.168.708m190.643 36.012c-1.517.561-2.149 1.4-1.779 2.363.408 1.064-.103 1.494-1.773 1.494-2.941 0-5.159 2.577-4.77 5.544.164 1.246-.207 2.577-.824 2.958-1.169.722-3.057 4.738-3.644 7.748-.219 1.124.283 1.755 1.403 1.765 1.492.013 1.527.156.244.985-1.09.704-1.142.974-.191.985.72.008 1.031.465.691 1.015-.34.55-1.941 1-3.559 1-3.092 0-3.998 1.657-1.441 2.638.825.317 1.5 1.621 1.5 2.899 0 1.992.464 2.298 3.25 2.143 2.855-.158 3.288.154 3.566 2.57.182 1.574.93 2.75 1.75 2.75.789 0 1.434.62 1.434 1.378 0 2.516 2.784 4.046 4.608 2.532 1.348-1.119 1.793-1.098 2.75.128.628.804 2.267 1.567 3.642 1.696 2.251.21 2.301.142.5-.68-1.589-.726-1.113-.928 2.316-.984 7.646-.124 8.668-1.317 5.694-6.646-1.381-2.472-2.51-5.379-2.51-6.459 0-1.081-.46-1.965-1.021-1.965-1.89 0-3.412-4.773-2.047-6.418 1.487-1.792 10.753-4.64 12.683-3.899.81.31 1.385-.108 1.385-1.009 0-.846.86-1.812 1.911-2.146 1.05-.333 2.636-1.713 3.523-3.067 1.522-2.323 1.503-2.461-.329-2.461-3.536 0-4.826-1.007-4.367-3.41.458-2.398-1.183-3.423-6.67-4.168-1.338-.182-3.588-.771-5-1.311-3.095-1.182-9.688-1.165-12.925.032m49.357 18.548c-2.2 1.255-7.15 3.495-11 4.977-3.85 1.482-7.599 3.292-8.331 4.023-.731.73-1.713 1.091-2.181.802-.467-.289-1.132-.068-1.478.491-.345.559-1.475 1.016-2.51 1.016-2.606 0-3.309 1.541-2.549 5.593.406 2.163 1.064 3.207 1.754 2.78.666-.411.821-.224.39.472-.414.671-.104 1.155.739 1.155.799 0 1.723-.706 2.054-1.569.415-1.081 1.265-1.358 2.732-.893 1.434.455 1.907.315 1.446-.431-.431-.698.249-1.107 1.841-1.107 2.546 0 9.598-2.831 10.673-4.284.319-.431 1.331-.495 2.25-.143.922.354 1.67.159 1.67-.435 0-.591.675-.816 1.5-.5.825.317 1.5.078 1.5-.531s.9-1.107 2-1.107 1.887-.526 1.75-1.168c-.337-1.575 4.49-4.062 5.309-2.737.375.607 1.107.41 1.864-.503 1.025-1.234.774-2.122-1.405-4.98-3.032-3.974-4.439-4.104-10.018-.921M335.643 121.25c-1.247 1.237-3.461 2.88-4.921 3.651-1.459.77-2.437 1.752-2.172 2.181.266.429.024 1.063-.536 1.41-.676.417-.688 1.248-.038 2.462 1.413 2.642 10.272 2.101 13.378-.817 2.236-2.1 2.238-2.101 4.234-.104 2.288 2.288 18.778 3.707 18.16 1.563-.496-1.719-12.69-7.41-18.498-8.632-3.369-.71-5.25-1.618-5.25-2.535 0-2.083-1.767-1.75-4.357.821M259 129c-.825.533-2.512.976-3.75.985-1.238.008-2.25.465-2.25 1.015 0 .55-1.238 1.019-2.75 1.042-3.151.048-9.993 3.381-8.646 4.212.493.304 2.696.692 4.896.863 2.2.17 4.331.777 4.735 1.347.474.669.74.593.75-.214.009-.747 1.357-1.25 3.348-1.25 1.834 0 3.665-.332 4.071-.737.405-.406 1.268-.787 1.917-.848 4.776-.447 4.555-.14 2.803-3.882-1.709-3.649-2.666-4.122-5.124-2.533m165.477 10.037c-1.36 2.201.677 8.615 3.62 11.393 1.643 1.55 2.765 3.042 2.493 3.314-.272.272 1.087 3.637 3.022 7.478 1.934 3.84 3.75 6.749 4.036 6.464.534-.535 1.83.425 7.323 5.42 3.608 3.28 4.571 3.53 5.391 1.394.316-.825 1.29-1.5 2.163-1.5 2.11 0 4.937-6.646 6.896-16.208 2.056-10.035 2.062-11.438.047-9.766-1.197.994-2.368 1.021-5.366.123-5.227-1.566-8.633-1.443-12.284.445-1.72.89-4.57 1.42-6.45 1.201-1.852-.216-3.368-.007-3.368.465 0 .472-.457.575-1.016.23-.559-.346-.758-1.047-.441-1.559.316-.512.218-1.493-.219-2.181-.436-.687-.838-1.475-.892-1.75-.882-4.449-3.594-7.165-4.955-4.963m-380.977.631c-1.1.239-2.9.798-4 1.242-1.1.443-4.025 1.474-6.5 2.291-3.107 1.024-4.549 2.074-4.659 3.391-.373 4.46-2.378 16.177-3.32 19.401-.562 1.922-1.021 3.625-1.021 3.786 0 .16.87-.174 1.934-.744 2.595-1.388 7.21-1.421 5.066-.035-.949.613-1.052.975-.281.985.693.008.959.69.617 1.582-.397 1.034-.938 1.231-1.591.578-1.118-1.118-7.967 5.687-7.113 7.068a.969.969 0 001.332.309c.455-.281 1.104.212 1.443 1.095.446 1.164.186 1.441-.948 1.006-.888-.341-1.302-.179-.959.377.332.537.018.831-.698.652-.716-.178-.896-.113-.401.146.496.258-.179 1.068-1.5 1.8-1.912 1.06-2.037 1.338-.616 1.367 2.615.051 12.739-5.924 10.215-6.03-1.34-.056-.682-.665 1.993-1.845 2.587-1.141 3.467-1.938 2.5-2.263-1.207-.406-1.256-.79-.252-2.006.683-.828.946-1.801.584-2.163-.362-.362.74-.658 2.449-.658 3.215 0 5.024-1.389 3.242-2.49-.559-.345-1.009-1.389-1.001-2.319.014-1.457.15-1.484.985-.191.646 1 .974 1.083.985.25.029-2.407 4.247-5.548 7.333-5.46 3.533.1 7.917-2.412 5.605-3.213C50.451 156.029 40.736 154 37.797 154c-6.252 0-7.204-1.89-3.233-6.417 1.89-2.154 3.436-3.361 3.436-2.682 0 .755 1.249.335 3.216-1.083 1.768-1.275 4.356-2.844 5.75-3.487 2.724-1.256.879-1.61-3.466-.663m380.088 12.189c-.333.54.051 1.639.855 2.443.804.804 1.252 1.671.996 1.927-.423.424.188 2.143 4.006 11.273.691 1.65 2.138 5.25 3.217 8 2.178 5.552 3.659 6.017 10.371 3.258l3.467-1.425-3.187-1.66c-1.752-.912-3.844-1.406-4.649-1.098-.804.309-1.759.081-2.122-.507-.363-.587.042-1.068.899-1.068 1.958 0 2.006-1.384.104-2.962-.8-.664-2.619-3.195-4.042-5.623-1.423-2.428-3.018-4.415-3.545-4.415-.527 0-.958-.588-.958-1.306 0-1.991-4.721-7.955-5.412-6.837M248.5 165.688c-1.1.29-2.45.89-3 1.333-1.128.908-12.926 7.296-19 10.287-4.821 2.374-15.867 9.727-16.333 10.873-.184.45-.905.819-1.604.819-.699 0-2.413 1.058-3.808 2.351s-3.231 2.618-4.08 2.944c-1.289.494-1.353 1.097-.39 3.648 1.487 3.94 1.975 3.861 5.835-.943 1.768-2.2 3.814-4 4.547-4 .733 0 1.221-.476 1.083-1.058-.137-.583 1.55-1.691 3.75-2.463s4.747-2.321 5.66-3.441c.913-1.121 2.058-2.038 2.545-2.038.486 0 2.849-1.833 5.252-4.074 2.907-2.71 4.999-3.909 6.25-3.582 1.035.27 3.099-.144 4.587-.92 1.488-.776 3.692-1.414 4.897-1.418 1.205-.003 2.469-.456 2.809-1.006.978-1.583 2.776-1.162 2.138.5-.642 1.674 3.231 2.17 4.912.629.522-.479 2.3-1.161 3.95-1.515 2.819-.606 2.883-.554 1.073.86-2.486 1.942-1.414 3.046 1.462 1.507 1.443-.772 1.974-.805 1.536-.096-.458.742.373.878 2.629.431 2.996-.593 3.173-.499 1.928 1.015-.755.918-1.061 1.669-.679 1.669 1.137 0-1.799 2.555-3.812 3.318-1.479.56-1.62.998-.685 2.124.942 1.135.714 1.661-1.137 2.632-3.578 1.876-7.542 6.734-7.508 9.201.052 3.88-1.492 9.729-2.417 9.157-1.315-.813-1.081.977.31 2.368 1.068 1.068-.284 1.912-1.521.95-.548-.426-3.255 2.656-3.954 4.5-.429 1.134-.183 1.75.699 1.75 2.236 0 2.892 3.296.939 4.724-1.116.816-1.278 1.276-.447 1.276.743 0 1.052.641.722 1.5-.316.825-.113 1.5.452 1.5.566 0 .769.419.453.931-1.019 1.649 1.186 2.1 2.504.512.7-.843 1.839-1.317 2.53-1.052 1.215.466 2.932-2.03 2.557-3.716-.101-.454.652-.56 1.674-.236 1.253.398 1.859.096 1.859-.925 0-.832-.475-1.514-1.056-1.514-.581 0-.01-.733 1.268-1.628 1.822-1.276 2.032-1.814.973-2.485-1.097-.695-1.103-.859-.031-.872.727-.008 1.997-.69 2.822-1.515s1.164-1.5.754-1.5c-.41 0 .316-1.13 1.613-2.511 1.754-1.866 2.564-2.187 3.159-1.25.55.867.805.617.816-.8.008-1.134.803-2.951 1.765-4.038.962-1.087 2.712-3.335 3.887-4.996 2.524-3.565 13.587-25.514 13.104-25.997-.183-.183-1.662.37-3.287 1.228-8.238 4.353-14.326 4.755-17.783 1.173-1.205-1.249-2.525-1.673-3.875-1.244-1.283.407-1.81.266-1.412-.377.847-1.37-2.067-4.188-4.33-4.188-.992 0-3.098-.189-4.679-.419-1.581-.231-3.775-.182-4.875.107m41.902 6.077c-1.873 1.254-2.618 14.215-.856 14.891.814.312 2.16.003 2.991-.687 2.683-2.226 2.707-.241.051 4.29-1.423 2.429-2.588 5.399-2.588 6.6 0 1.366-.948 2.616-2.528 3.336-1.802.821-2.165 1.377-1.264 1.933 1.003.62 1.015 1.442.06 3.974-1.453 3.848-.949 4.898 2.35 4.898 1.517 0 2.241-.42 1.841-1.067-.363-.587-.052-.959.691-.828.742.131 4.05-.092 7.35-.496 15.518-1.9 16.5-2.148 16.5-4.165 0-.886 1.518-1.663 4.035-2.066 4.007-.64 9.33-3.898 8.762-5.361-.163-.421-3.785-3.527-8.047-6.903-4.262-3.376-7.75-6.535-7.75-7.019 0-1.58-2.967-2.067-5.516-.906-2.636 1.201-3.504.881-3.841-1.416-.284-1.934-8.172-9.777-9.815-9.758-.73.009-1.822.346-2.426.75m-128.111 8.149c-5.923 5.495-6.139 5.858-4.692 7.924.834 1.191 1.258 2.584.943 3.095-1.654 2.675 1.57 1.516 4.048-1.457 1.825-2.188 3.481-3.271 4.505-2.946 2.009.638 14.905-5.034 14.905-6.556 0-.667-.826-.847-2.074-.451-2.486.789-7.842-1.156-9.926-3.605-1.402-1.648-1.904-1.387-7.709 3.996M125.5 186c-.34.55-1.941 1-3.559 1s-2.941.37-2.941.822c0 .452-2.211 1.821-4.912 3.042-4.932 2.228-8.447 5.136-6.21 5.136.617 0 1.122.675 1.122 1.5 0 1.938 2.707 1.847 11.5-.388 6.34-1.612 7.057-1.63 7.605-.196.582 1.522-.686 3.069-4.77 5.82-1.605 1.08-1.459 1.164 1.165.666 4.929-.935 5.5-1.259 5.506-3.121.004-.979 1.347-2.544 2.985-3.476l2.979-1.695-1.735-3.049c-.954-1.676-2.099-3.051-2.544-3.055-.445-.003-.531-.456-.191-1.006s-.084-1-.941-1-1.559-.45-1.559-1-.648-1-1.441-1-1.719.45-2.059 1m27 14.008c-2.2.436-7.262 1.36-11.25 2.053-8.014 1.393-10.238 3.915-3.5 3.969 2.975.025 3.397.237 2.042 1.027-.991.577-1.459 1.647-1.115 2.544.818 2.132 5.162.973 8.113-2.166 1.26-1.339 3.06-2.467 4-2.505 1.406-.058 1.355-.215-.29-.886-1.837-.748-1.774-.874.766-1.542 1.521-.4 3.595-.51 4.608-.245 2.056.538 5.126-.844 5.126-2.307 0-1.094-2.79-1.075-8.5.058m116.925 28.436c-.691 2.75-5.67 6.06-7.856 5.221-.688-.264-1.885-.078-2.66.412-.997.632-1.044.897-.159.908.688.008 1.25.513 1.25 1.122 0 .611-.728.828-1.627.483-2.319-.89-4.216 1.057-4.976 5.109-.457 2.435-.911 3.089-1.493 2.15-.906-1.464-6.784 4.445-6.863 6.901-.023.688-.379 1.263-.791 1.279-1.547.061-7.313 6.061-6.73 7.004.364.588 1.212.378 2.115-.525 2.015-2.015 3.029-1.9 3.634.412.368 1.406-.137 2.081-1.883 2.519-1.313.33-2.386.996-2.386 1.482s2.097.252 4.659-.519c6.332-1.906 10.053-1.768 5.536.205-1.817.794-3.617 1.254-4 1.023-1.314-.794-3.028 2.024-2.111 3.472.504.795.892.911.901.269.008-.62 1.365-1.633 3.015-2.25 1.65-.616 4.449-1.666 6.219-2.333l3.22-1.212-2.47-.77c-2.4-.747-2.393-.759.251-.432 1.496.185 2.482-.048 2.191-.518-.291-.471.51-.859 1.78-.862 3.626-.008 9.442-1.876 11.807-3.792 3.091-2.502 4.379-13.838 1.911-16.811-.898-1.083-.821-1.391.346-1.391 3.571 0 6.351-8.312 3.092-9.245a40.396 40.396 0 01-3.555-1.232c-1.291-.533-1.869-.063-2.367 1.921M158 251.003c-.825.513-3.075.695-5 .403-3.822-.58-17.865 3.976-22.786 7.393-4.337 3.012-9.333 5.201-11.868 5.201-1.29 0-3.168.822-4.172 1.826-2.241 2.241-5.174 3.456-5.174 2.143a.977.977 0 00-.979-.969c-.598 0-.541.959.147 2.469.618 1.357 1.509 2.231 1.978 1.941.47-.291.854.067.854.794 0 .727.983 1.766 2.185 2.309 3.125 1.411 3.252 2.912.499 5.883-1.611 1.738-3.455 2.604-5.549 2.604-3.263 0-4.107 1.628-1.959 3.776.902.902.738 1.662-.705 3.256-1.497 1.654-1.651 2.45-.754 3.887.874 1.399.797 2.139-.344 3.28-1.922 1.921-.29 3.306 4.818 4.09 3.102.476 3.593.311 3.076-1.035-.46-1.199-.194-1.432 1.059-.928l3.234 1.304c1.054.426 1.739-.057 2.113-1.489.305-1.165 1.023-1.829 1.595-1.475.573.354.752.175.398-.397-1.051-1.701 4.666-2.363 5.957-.69.7.908 1.829 1.191 3 .751 1.639-.615 1.707-.496.541.939-.735.904-1.013 2.166-.618 2.805 2.717 4.396 39.596-12.551 50.673-23.286 11.403-11.05 12.879-18.176 4.82-23.263-2.222-1.403-4.039-3.039-4.039-3.636 0-.598-1.562-.165-3.472.962-2.113 1.246-3.713 1.658-4.089 1.051-.339-.549-1.364-.875-2.278-.725-.913.15-2.336-.154-3.161-.677-2.084-1.319-8.192-1.623-10-.497m49.446 43.098C198.56 299.672 197 301.685 197 307.58c0 5.317.848 6.441 4.832 6.405 1.344-.013 1.399-.186.283-.893-1.765-1.117-.89-4.837 2.002-8.514 1.658-2.108 2.357-2.436 3.007-1.412.625.987.852.813.871-.666.015-1.1 1.597-3.526 3.516-5.39 6.433-6.252 3.99-8.06-4.065-3.009m81.124 4.276c-2.513 2.514-4.57 4.287-4.57 3.942 0-.346-.835.127-1.857 1.051-1.249 1.131-1.692 2.538-1.355 4.304.391 2.042.193 2.444-.893 1.814-.767-.445-1.1-.479-.739-.076.361.404-.989 2.319-3 4.256-2.011 1.938-2.868 3.269-1.906 2.959 2.583-.833 2.106.432-1.709 4.534-3.696 3.974-9.403 6.836-6.533 3.277a62.846 62.846 0 013.278-3.681c.983-1.007 1.522-2.258 1.199-2.782-.333-.538.196-.698 1.213-.369 1.292.418 1.435.319.505-.35-1.041-.748-.982-1.194.296-2.255 2.899-2.406 5.756-7.005 4.319-6.952-1.591.058-10.432 10.725-10.043 12.117.151.54-.256.655-.905.254-.802-.496-.919-.281-.364.675.448.773.471 1.096.051.719-.419-.378-1.878.522-3.241 2-1.362 1.477-2.189 2.124-1.838 1.436.847-1.654-.517-1.535-2.876.251-1.515 1.146-1.657 1.728-.702 2.879.815.982.863 1.649.149 2.09-.991.612-1.433-.039-1.167-1.72.197-1.25-1.562-.84-2.801.653-.894 1.077-.865 1.517.127 1.896 1.409.538-.804 2.479-7.42 6.508-5.452 3.32-4.579 1.323 1.226-2.807 2.707-1.925 4.483-3.651 3.947-3.835-.535-.185-.719-.747-.408-1.25s.137-.915-.385-.915c-1.578 0-10.689 8.02-10.387 9.143.155.574-.295.841-1 .593-1.862-.655-7.003 3.243-6.388 4.845.286.745.089 1.621-.437 1.946-.526.325-.956.104-.956-.491 0-.624-1.075-.378-2.537.58-1.395.914-2.38 2.134-2.187 2.711.33.992-2.67 4.673-3.809 4.673-1.297 0-7.339 6.961-6.495 7.483.517.319.757 1.129.532 1.799-.225.67-.612 2.568-.859 4.218-.248 1.65-.725 3.678-1.062 4.508-.472 1.163 1.066 2.017 6.743 3.743 7.905 2.404 15.267 1.513 19.091-2.311 1.623-1.623 13.975-2.884 13.014-1.329-.302.489-1.197.889-1.99.889-.793 0-1.441.436-1.441.969 0 .532.68.707 1.511.388 1.055-.404 1.335-.12.928.941-.321.837-1.676 1.796-3.011 2.131-1.336.335-2.428 1.051-2.428 1.59 0 .54-1.125.981-2.5.981s-2.5.516-2.5 1.147c0 3.63 40.95-3.437 57.197-9.871 9.668-3.828 13.959-7.107 7.803-5.962-3.165.588-3.323.515-1.65-.765 1.018-.779 1.552-1.899 1.187-2.49-.365-.59.011-1.332.836-1.649.826-.316 1.278-1.155 1.006-1.864-.568-1.481 2.278-2.876 3.866-1.895.627.388.771.184.35-.496-.392-.635-.236-1.155.346-1.155 1.397 0 5.059-3.697 5.059-5.107 0-.609-.675-.848-1.5-.531-2.159.828-1.85-1.127.4-2.532 1.085-.677 1.656-1.824 1.33-2.672-.4-1.043-.175-1.242.755-.668.937.58 1.087.436.515-.49-.56-.906-.42-1.069.453-.529.928.573 1.083.217.587-1.346-.708-2.228.952-3.057 1.752-.875.366 1 .723 1 1.783 0 1.094-1.032 1.056-1.25-.221-1.25-1.821 0-1.923-4.721-.126-5.832 1.953-1.207.667-6.265-2.225-8.75-2.481-2.132-2.948-2.22-4.819-.909-1.828 1.28-2.283 1.259-3.878-.184-1.672-1.514-1.806-1.513-1.806.02 0 2.201-2.612 2.127-3.341-.095-1.103-3.363-5.262-9.595-6.953-10.419l-3.456-1.685c-1.332-.65-1.884-2.556-2.313-7.979-.309-3.919-.84-7.403-1.179-7.743-.34-.339-2.674 1.44-5.188 3.953m-32.07-1.415c-1.65.43-5.588 1.361-8.75 2.069-3.162.709-5.75 1.693-5.75 2.188 0 .494-.47.609-1.044.254-1.392-.86-4.11 1.468-3.281 2.81.407.659.026.816-1.011.418-.915-.351-1.664-.202-1.664.33 0 .533.505.969 1.122.969.776 0 .738.464-.122 1.5-.694.837-.803 1.5-.245 1.5.55 0 1.535-.645 2.189-1.433.654-.788 1.947-1.404 2.873-1.37.926.035 2.808-.206 4.183-.535 10.796-2.583 12.758-3.429 16.933-7.3L264.48 296l-2.49.09c-1.37.05-3.84.442-5.49.872m-12.292 16.002c-2.414 1.749-5.243 2.922-6.9 2.86-3.872-.145-13.319 1.94-14.959 3.301-.742.616-1.349.749-1.349.296s-1.823 1.073-4.05 3.391c-2.228 2.319-3.796 4.628-3.484 5.133.312.504.102 1.204-.466 1.555-.568.351-.774 1.057-.457 1.569 1.071 1.733 5.045.944 9.511-1.888 2.445-1.55 5.346-3.074 6.446-3.386 1.1-.313 2.787-.892 3.75-1.289 1.446-.595 1.75-.18 1.75 2.387 0 1.709.52 3.107 1.155 3.107.691 0 .49.735-.5 1.829-2.065 2.282-2.177 3.849-.155 2.171 1.036-.86 1.5-.898 1.5-.122 0 .617-.45 1.122-1 1.122s-1 .691-1 1.535c0 1.5 3.514.454 5-1.488.275-.359 2.2-1.929 4.277-3.489 2.078-1.56 3.551-3.063 3.274-3.34-.276-.277-1.189.066-2.027.762-1.042.865-1.524.91-1.524.142 0-.617-.9-1.122-2-1.122-1.111 0-2-.667-2-1.5 0-.825.408-1.5.906-1.5.499 0 3.241-2.25 6.094-5s4.695-5 4.094-5c-1.515 0-1.381-3.718.156-4.338.808-.326.684-.532-.35-.583-.88-.043-3.441 1.255-5.692 2.885M.48 434c0 53.075.122 74.788.27 48.25.148-26.537.148-69.962 0-96.5C.602 359.213.48 380.925.48 434m349.88-83.831c.805 7.699.403 7.418 7.538 5.28 7.261-2.175 7.028-3.607-1.36-8.341-7.127-4.022-6.929-4.12-6.178 3.061m-12.451 18.584c-6.352 4.257-11.909 8.81-11.909 9.758 0 .352 1.238.558 2.75.458 4.433-.292 5.413-.042 4.655 1.186-.44.711-.275.883.429.448.741-.459.932-.158.543.856-1.07 2.789 2.569.546 4.186-2.58.818-1.584 1.927-2.879 2.463-2.879s.974-.614.974-1.365.823-2.438 1.83-3.75c5.212-6.794 2.496-7.772-5.921-2.132m-136.449 5.845c-1.628.841-4.257 2.738-5.842 4.215-1.95 1.819-3.028 2.281-3.335 1.431-.25-.691-.927-.964-1.504-.607-.578.357-1.815.697-2.749.756-.934.059-3.46 1.563-5.614 3.341a9214.732 9214.732 0 00-6.916 5.719c-3.439 2.847-2.066 3.235 4 1.129 2.2-.764 6.381-1.643 9.291-1.954 2.909-.312 5.901-1.143 6.649-1.847 1.565-1.476 6.988-5.934 10.389-8.542 2.266-1.737 2.278-1.832.46-3.477-1.701-1.54-2.135-1.555-4.829-.164m19.23 12.499c-5.417 1.275-7.936 2.82-7.299 4.48.3.783.11 1.423-.422 1.423-.533 0-.969.675-.969 1.5s.563 1.507 1.25 1.515c.847.011.767.357-.25 1.076-1.129.799-1.191 1.187-.25 1.568 5.033 2.043-4.622 8.829-11 7.732-2.475-.426-2.892-.305-1.75.509 1.018.726 1.099 1.074.25 1.085-1.704.021-1.582 3.826.179 5.586.785.786 2.103 1.429 2.928 1.429 2.143 0 4.856 3.002 4.217 4.667-1.01 2.632 2.528 2.721 4.771.12 1.185-1.376 3.191-2.828 4.458-3.228 1.889-.597 2.084-.991 1.085-2.194-.996-1.201-.827-1.568.936-2.029 1.185-.31 1.977-.85 1.76-1.2-.216-.35 1.027-.625 2.761-.612 5.217.039 5.718-1.177 4.587-11.137-1.134-9.975-1.86-13.432-2.79-13.287-.353.056-2.356.504-4.452.997m266.444 6.565c-3.006 6.187-6.213 7.332-20.87 7.453-9.351.077-12.882.526-17.26 2.194-3.374 1.285-4.822 2.24-3.742 2.469 2.611.553 1.042 2.224-2.071 2.207-2.105-.012-2.364-.227-1.191-.985 1.193-.771.999-.973-.95-.985-1.93-.012-2.191.244-1.228 1.207.962.962-.217 1.467-5.55 2.378-3.725.636-9.472 2.457-12.772 4.047-5.972 2.876-6.001 2.911-6.304 7.612l-.305 4.722 6.805-3.682c18.356-9.934 24.835-12.586 22.832-9.344-.278.45.447 1.067 1.61 1.371 1.452.379 4.95-1.155 11.139-4.886 8.104-4.886 13.795-6.984 12.276-4.525-.311.503 0 1.104.691 1.336.98.329.999.953.089 2.835-1.987 4.113-2.287 6.914-.739 6.914 2.187 0 1.66 2.012-1.093 4.178-2.684 2.111-1.601 4.822 1.928 4.822.864 0 1.571.202 1.571.448 0 1.017-5.28 6.052-6.346 6.052-.635 0-1.154.9-1.154 2 0 2.349.724 2.358 12 .162 12.055-2.348 12.614-2.489 18-4.548l5-1.911.287-14.851c.329-17.064.145-18.178-3.429-20.755-4.699-3.388-6.804-2.916-9.224 2.065M30.5 396.554c-8.465 2.907-18.5 7.541-18.5 8.541 0 1.217 6.054 5.905 7.625 5.905.809 0 2.56 1.238 3.891 2.75 2.187 2.485 2.427 2.557 2.484.75.035-1.1.724-2.874 1.532-3.941.807-1.068 1.468-2.928 1.468-4.135 0-1.271 1.117-2.926 2.655-3.934 2.874-1.883 7.262-6.527 7.313-7.74.044-1.044-.546-.918-8.468 1.804m357.227 24.447l.537 4.002-3.13-.626c-1.987-.398-3.72-.136-4.748.718-.891.739-3.255 2.091-5.253 3.004-2.393 1.094-3.121 1.823-2.133 2.137 16.533 5.243 17.738 5.493 20.616 4.284 6.68-2.809 6.569-7.002-.372-13.943-4.776-4.776-6.2-4.667-5.517.424M214.5 436.535c-1.65.773-4.704 2.078-6.786 2.9l-3.786 1.493 2.013 2.013c3.033 3.033.414 6.597-5.484 7.462-1.076.158-1.957.92-1.957 1.692 0 1.74-4.38 4.165-6.236 3.453-.752-.289-1.119-.122-.815.37.305.493-.347.66-1.448.372-1.119-.293-2.001-.031-2.001.593 0 .615-.338 1.025-.75.912-.412-.113-2.945.787-5.627 2-2.683 1.213-5.318 2.205-5.857 2.205-.539 0-.726.661-.417 1.468.31.807.133 1.734-.393 2.059-.526.325-.988-.223-1.026-1.218-.062-1.598-.15-1.616-.75-.159-.832 2.02-11.437 10.85-13.031 10.85-.632 0-1.149.575-1.149 1.278 0 1.586-3.557 4.722-5.356 4.722-1.942 0-5.403 3.976-3.549 4.077.773.042 2.305.273 3.405.515 4.186.918 5.288.611 15.922-4.434 6.007-2.85 12.004-5.378 13.326-5.617 5.77-1.047 9.511-2.761 8.122-3.724-.963-.666-.626-.783 1.13-.392 1.375.306 1.935.297 1.244-.02-1.892-.867-.45-2.405 2.256-2.405 1.31 0 2.686-.492 3.058-1.094.372-.602 1.749-.889 3.059-.639 1.311.251 2.383.079 2.383-.381s1.036-.443 2.303.039c1.367.52 2.992.49 4-.074 1.41-.79 1.717-.477 1.813 1.849.081 1.953.263 2.226.601.905.39-1.523.659-1.621 1.369-.5.707 1.116.886 1.045.899-.355.008-.962-.505-1.75-1.14-1.75-.644 0-.329-.913.71-2.061 1.364-1.508 1.544-2.26.67-2.8-.738-.456-1.037-2.34-.78-4.923.229-2.301-.002-4.442-.514-4.759-2.307-1.425.169-11.595 3.824-15.707 1.843-2.074.85-2.14-3.255-.215m116.539 18.918c-.706.851-1.908 1.547-2.671 1.547-.763 0-2.171.94-3.128 2.089-2.097 2.517-11.392 7.22-12.18 6.162-.905-1.213-4.36-.852-4.811.503-.251.752.509 1.259 1.918 1.278 2.188.03 2.221.117.528 1.4-.992.753-1.829 2.201-1.859 3.218-.066 2.26 1.996 12.516 2.648 13.168.796.795 11.475-2.926 12.269-4.275.411-.699 1.981-2.794 3.49-4.656C333.449 468.225 341 458.1 341 457.441c0-.387-1.8-.463-4-.168-2.2.295-3.805.221-3.566-.166 1.054-1.706-1.111-3.202-2.395-1.654m-65.434 6.352c-1.517.318-1.617.574-.5 1.281 1.082.685 1.102.887.086.899-.72.008-1.031.465-.691 1.015.988 1.599-.358 1.165-3.43-1.107-4.56-3.371-10.785-1.928-11.654 2.702-.354 1.886-.409 4.323-.123 5.417.337 1.288.025 1.988-.887 1.988-1.646 0-1.893 2.581-.338 3.542.588.363.827 1.29.532 2.059-.799 2.08.369 4.348 1.93 3.749.859-.329 1.354-2.069 1.334-4.687-.043-5.772 1.176-12.02 2.515-12.898 2.276-1.492 3.776-.83 3.081 1.36-.418 1.317-.293 1.89.328 1.506 1.264-.781 2.212 1.622 2.212 5.606 0 2.915.094 2.988 1.831 1.416 1.007-.912 2.204-1.319 2.66-.905.457.414.463.12.015-.653-.567-.976-.441-1.173.414-.645 2.328 1.439 6.001-3.237 5.077-6.462-1.248-4.351-2.321-5.618-4.392-5.183M233.29 486c-.288 1.1-.89 2-1.339 2-1.231 0-2.085 3.486-1.335 5.443.525 1.367.838 1.448 1.508.391.647-1.022.849-.924.861.416.014 1.593 1.154 2.223 3.339 1.844.454-.079.54.318.191.881-.38.616.611 1.025 2.485 1.025 1.824 0 2.862-.415 2.5-1-.34-.55.335-1 1.5-1s1.84-.45 1.5-1c-.34-.55.196-1.007 1.191-1.015 2.052-.018 4.994-1.633 4.278-2.349-1.177-1.177-6.243-1.889-5.559-.782.389.63.189 1.146-.445 1.146s-1.386-.895-1.672-1.989c-.286-1.094-.917-1.743-1.402-1.443-.486.299-1.407-.606-2.047-2.012-1.398-3.067-4.808-3.408-5.554-.556m-26.04.22c-1.238.597-2.25 1.497-2.25 2 0 .503-.862.641-1.916.307-3.333-1.058-3.289 1.316.057 3.046l3.206 1.658-9.933 4.715c-10.207 4.846-18.609 11.197-16.52 12.489.624.385 4.615.908 8.87 1.163 4.255.254 8.971.634 10.481.844 1.51.21 2.996-.023 3.302-.519.307-.495 1.661-.178 3.01.706 1.717 1.126 2.826 1.301 3.698.585.685-.562 2.37-1.229 3.745-1.482 1.878-.345 1.505-.534-1.5-.759-3.744-.28-3.649-.337 1.493-.886 5.304-.567 5.562-.735 7.539-4.921 1.446-3.059 2.036-6.294 2.008-11l-.04-6.666-3-.166c-1.65-.091-4.267-.653-5.815-1.25-3.318-1.278-3.511-1.274-6.435.136m77.4-.438c-1.39.303-1.749 1.092-1.443 3.174.33 2.249-.229 3.206-2.972 5.085-4.534 3.107-11.671 11.314-10.25 11.787.623.208 4.594-.992 8.824-2.666 4.23-1.674 8.939-3.347 10.464-3.717 4.65-1.129 6.063-4.165 3.711-7.972-1.077-1.741-1.715-3.408-1.42-3.704.823-.823-4.817-2.443-6.914-1.987m-128.005 28.523c-2.121 7.521-3.924 19.435-3.133 20.714.817 1.322 6.018.399 9.238-1.64 2.322-1.471 3.295-7.379 1.215-7.379-.699 0-.712-.604-.041-1.858 1.724-3.222-.104-9.322-3.945-13.163-1.825-1.825-1.903-1.748-3.334 3.326m55.855 12.648c-6.423 1.635-24.637 3.66-21.75 2.418.688-.296 1.25-1.04 1.25-1.654 0-.776-.366-.751-1.2.083-.66.66-2.46 1.2-4 1.2-3.715 0-3.674 2.497.073 4.434 1.58.817 3.155 2.516 3.5 3.776.444 1.623.863 1.925 1.438 1.037.446-.689 4.383-2.298 8.75-3.577 8.51-2.492 20.411-7.688 20.429-8.92.013-.949-.093-.934-8.49 1.203m60 19.121c-2.35 2.29-10.137 6.891-11.691 6.908-.93.01-1.969.468-2.309 1.018-.34.55-1.551 1-2.691 1-4.76 0-11.105 6.068-7.575 7.245.679.226-1.009 1.204-3.75 2.174-14.905 5.272-16.484 6.038-16.484 8.005 0 1.937.016 1.937 1.468.017 1.329-1.756 1.471-1.774 1.5-.191.018.962-.436 1.75-1.007 1.75-.6 0-.494.59.25 1.395.709.767 1.677 1.16 2.15.872.474-.287 3.399-.629 6.5-.758 3.102-.13 7.551-.562 9.887-.96 3.409-.581 4.368-.411 4.857.863.605 1.576 2.503 2.275 2.277.838-.35-2.211.328-3.25 2.118-3.25 1.1 0 2 .62 2 1.378 0 .757.675 1.937 1.5 2.622 1.289 1.07 1.502.7 1.515-2.628.01-2.55.309-3.409.875-2.515.561.885 1.645 1.108 3.117.641 1.735-.551 1.94-.913.888-1.563-.978-.604-.729-.798.868-.678 1.447.109 2.237.82 2.237 2.015 0 1.015-.408 1.594-.908 1.285-.499-.308-1.961-.1-3.25.462-2.259.988-2.244 1.01.433.636 2.43-.339 2.695-.124 2.131 1.729-.557 1.833-.225 1.722 2.48-.826 2.385-2.246 4.226-3.006 7.787-3.212 4.434-.258 6.807-1.76 5.675-3.592-.606-.98 1.471-3.754 2.81-3.754.502 0 .431.9-.158 2-1.249 2.334-1.253 2.333 2.851.902 1.732-.604 3.149-1.703 3.149-2.443s1.012-2.084 2.25-2.986c2.143-1.562 1.941-1.607-4.25-.936-3.575.387-6.837 1.212-7.25 1.833-.54.814-.991.757-1.611-.204-.685-1.062-.994-.986-1.515.372-.489 1.274-1.387 1.559-3.549 1.127-2.148-.43-3.06-.146-3.538 1.1-.555 1.446-.776 1.474-1.591.207-.601-.936-1.219-1.104-1.696-.46-.413.556-2.1 1.06-3.75 1.119-1.65.058-5.475.404-8.5.767-3.101.373 1.917-1.281 11.5-3.789 9.35-2.447 18.418-4.892 20.152-5.432 3.706-1.154 8.25-5.177 5.848-5.177-.825 0-1.5-.477-1.5-1.059s-.478-.763-1.063-.402-1.935-.132-3-1.096c-1.679-1.52-1.937-1.545-1.937-.186 0 2.136-4.67 1.576-6.382-.764-1.18-1.614-1.353-1.626-1.926-.133-.938 2.444-2.368 1.997-4.351-1.36-1.906-3.226-2.302-3.425-3.841-1.926M.488 703c0 86.625.118 122.063.262 78.75.144-43.312.144-114.187 0-157.5C.606 580.938.488 616.375.488 703M217.5 564.091c-3.85 1.556-7.82 2.848-8.821 2.869-2.677.059-4.641 2.468-4.003 4.909.307 1.172.842 2.168 1.191 2.213.348.045 1.862.285 3.364.532 2.253.371 2.637.137 2.194-1.332-.393-1.303-.086-1.177 1.141.468 1.834 2.459 3.677 3.048 2.859.914-.345-.899.235-1.281 1.772-1.168 4.675.345 8.515-1.55 8.052-3.971-.299-1.568.395-2.887 2.314-4.396 1.508-1.186 2.561-2.312 2.34-2.502-1.774-1.521-6.358-.98-12.403 1.464m-90 78.992c-13.981 2.24-17.75 2.978-19.303 3.78-.933.482-5.297 1.663-9.697 2.625-4.4.961-10.925 2.771-14.5 4.021-3.575 1.25-7.85 2.622-9.5 3.05-3.754.973-3.306.812-7.718 2.781-2.045.913-4.381 1.66-5.191 1.66-.81 0-1.751.45-2.091 1-.34.55-1.436 1-2.437 1-3.419 0-4.582 2.688-2.79 6.447.879 1.844 1.903 4.972 2.274 6.952.655 3.491 2.453 5.074 2.453 2.16 0-.793.425-1.703.944-2.024.548-.339.896 1.491.831 4.368-.089 3.902-.501 5.054-1.944 5.431-1.007.263-1.831 1.061-1.831 1.772 0 1.007.267 1.027 1.2.094.66-.66 1.988-1.2 2.95-1.2.963 0 2.209-.788 2.77-1.75.561-.962 1.033-1.38 1.05-.929.016.452.759.093 1.649-.797.891-.891 1.347-1.891 1.015-2.224-.333-.332 2.48-2.078 6.25-3.879 3.77-1.801 7.989-4.32 9.376-5.598 1.386-1.278 5.925-4.022 10.087-6.099s7.817-4.18 8.121-4.673c.305-.493 6.415-3.851 13.579-7.462 13.35-6.73 21.568-11.698 18.935-11.448-.815.077-3.732.501-6.482.942m204.713 16.16c-2.517 3.034-1.259 18.121 1.465 17.562 2.242-.461 9.889-14.078 8.85-15.76-.268-.433-1.733-1.038-3.257-1.346-1.524-.307-3.486-.836-4.361-1.174-.874-.339-2.088-.016-2.697.718m-169.634 16.579c-7.467 2.415-10.336 3.737-9.073 4.18 1.646.577 1.668.717.203 1.279-.905.348-1.9.219-2.212-.286-.335-.542-1.513-.559-2.874-.042-1.269.483-2.941.803-3.715.712-.774-.091-1.588.285-1.809.835-.982 2.452-3.512 3.316-4.816 1.645-1.178-1.51-1.411-1.481-2.839.355-.855 1.1-2.251 1.857-3.1 1.683-.909-.186-1.267.132-.87.775.371.6.304 1.027-.15.948-2.024-.351-3.39.178-2.824 1.094.34.55-.06 1-.889 1-1.875 0-7.163 4.782-6.273 5.672 1.057 1.056 8.662-1.869 8.662-3.332 0-.737.675-1.34 1.5-1.34s1.5.436 1.5.969c0 1.224 2.908.22 5.42-1.871 1.781-1.483 1.871-1.468 1.256.217-.54 1.479-.286 1.696 1.372 1.17 1.119-.355 3.64-.845 5.602-1.089 1.962-.243 4.484-.933 5.604-1.532 1.12-.6 3.434-1.226 5.141-1.392 4.466-.434 8.828-2.301 8.106-3.47-.34-.551.277-1.002 1.373-1.002 1.115 0 2.271-.883 2.628-2.005.35-1.103 1.742-3.32 3.093-4.925 3.516-4.179 2.237-4.211-10.016-.248M147.5 699.738c-1.1.209-2.675.645-3.5.971-.825.325-2.329.752-3.342.949-1.013.197-2.73.979-3.815 1.739-1.085.76-2.889 1.142-4.01.849-1.165-.305-2.416.064-2.92.861-.738 1.164-.887 1.147-.913-.107-.02-.962-.294-1.11-.765-.413-.721 1.067-9.554 3.384-13.985 3.669-1.424.091-2.25.788-2.25 1.899 0 1.214-1.081 1.957-3.511 2.413-1.931.362-3.775 1.086-4.098 1.608-.702 1.136 2.546 4.981 3.638 4.306 1.772-1.095 1.667 2.483-.12 4.1-1.332 1.206-1.596 1.994-.826 2.469.822.508.828.886.024 1.383-.609.376-1.107.121-1.107-.566 0-.688-.661-.377-1.468.691-.808 1.067-1.483 1.534-1.5 1.036-.018-.498-.932-.09-2.032.905s-2.014 1.403-2.032.905c-.017-.498-.58-.21-1.25.64s-3.375 2.549-6.011 3.776c-2.639 1.228-4.509 2.69-4.161 3.253.396.642 1.065.675 1.793.09.639-.513 2.736-1.26 4.661-1.66 1.925-.4 4.29-1.424 5.256-2.276.966-.852 2.019-1.286 2.341-.965.321.322 2.353-.04 4.514-.802 4.072-1.437 5.908-2.218 16.947-7.21 3.607-1.632 8.67-3.283 11.25-3.67 3-.45 4.692-1.205 4.692-2.093 0-.764.565-1.748 1.256-2.188.691-.44 2.436-2.375 3.879-4.3 1.443-1.925 3.945-4.871 5.56-6.548 5.352-5.556 4.784-7.036-2.195-5.714m-72.281 1.599c-1.255.697-1.968 1.581-1.584 1.965.626.626-3.387 1.141-6.252.803-.614-.072-1.681.55-2.372 1.382-.691.832-1.876 1.513-2.633 1.513-.758 0-1.378.45-1.378 1 0 1.435-2.723 1.236-3.417-.25-.466-1-.7-1-1.166 0-.321.688-1.221 1.25-2 1.25-.78 0-1.417.633-1.417 1.406 0 .852-.696 1.225-1.764.945-.971-.253-2.883-.033-4.25.491l-2.486.952 2.799 1.097c3.162 1.239 10.512.032 11.721-1.924.472-.763.951-.822 1.356-.168.344.557 1.543.773 2.665.48 1.121-.293 1.815-.756 1.543-1.029-.273-.272 3.159-2.354 7.627-4.625 7.961-4.047 10.785-6.66 7.122-6.59-1.008.02-2.86.606-4.114 1.302m221.852 9.711c-2.328 2.128-5.097 4.143-6.153 4.478-2.528.802-4.449 4.343-3.092 5.7 1.166 1.166 12.408-2.272 14.433-4.413 1.849-1.957 2.174-8.433.456-9.092-.794-.305-3.265 1.152-5.644 3.327m80.117 27.733c-2.796.453-9.65 10.574-8.749 12.921.34.886-.162 2.106-1.17 2.843-.971.71-1.459 1.598-1.084 1.973 1.031 1.031 2.828-.423 3.852-3.115 1.103-2.902 3.004-3.213 2.463-.403-.212 1.1.039 2 .557 2 .519 0 .943-.525.943-1.167 0-.641.296-.87.658-.508.747.747 3.342-1.129 3.342-2.416 0-.465-.675-.587-1.5-.271-2.582.991-1.64-1.232 1.693-3.993 1.756-1.455 3.514-2.645 3.906-2.645 1.042 0-.118-3.791-1.457-4.764-.628-.456-2.182-.661-3.454-.455m-52.827 29.494c-4.69 4.879-11.331 13.095-14.04 17.366-1.035 1.632-1.157 1.462-1-1.389.098-1.786.516-3.249.929-3.25.413-.001.75-.95.75-2.109 0-1.462-.459-1.931-1.5-1.531-1.852.71-1.856.426-.06-3.872 1.313-3.144.565-5.925-.94-3.49-.351.568-1.127.731-1.724.362-.693-.429-.793-.198-.276.638.504.815.416 1.066-.231.666-.572-.353-1.259.365-1.526 1.596-.267 1.231-.845 3.099-1.284 4.152-.529 1.268-.439 1.692.266 1.256.586-.362 1.322.009 1.635.826.382.994-.251 1.69-1.919 2.108-3.3.828-5.441 4.065-5.441 8.227 0 3.096.21 3.333 2.456 2.769 4.603-1.155 7.544-2.549 7.544-3.575 0-.564.93-1.025 2.066-1.025 3.594 0 5.549-1.74 9.79-8.712 2.27-3.733 5.56-8.697 7.31-11.031 4.569-6.094 3.06-6.084-2.805.018M424 776.883c0 .486-1.012 1.103-2.25 1.372-1.238.268-3.15.855-4.25 1.304-1.841.751-1.881.668-.5-1.038 1.413-1.745 1.326-1.809-1.49-1.108-1.644.41-3.239 1.149-3.543 1.641-.546.883-3.799 1.727-7.217 1.872-.962.041-1.75.749-1.75 1.574 0 1.98-5.855 2.042-6.611.071-.447-1.165-1.395-.98-5.118 1-2.513 1.336-5.107 2.429-5.765 2.429-.658 0-2.042.935-3.076 2.078-1.034 1.142-3.756 2.932-6.049 3.976-2.292 1.044-5.866 3.891-7.943 6.326-2.076 2.436-4.316 4.22-4.977 3.967-1.34-.515-2.784 2.322-1.905 3.743.309.501.059.91-.556.91s-.838.453-.496 1.007c.343.554-.081 1.229-.941 1.5-.859.271-2.351.785-3.313 1.142-.962.356-2.738.552-3.945.435-3.076-.298-6.576 1.768-5.914 3.493.337.878-.112 1.453-1.172 1.502-1.044.048-1.228.277-.469.583.688.278 1.25.992 1.25 1.588 0 .596-.293.79-.651.432-.645-.644-3.256 2.145-3.317 3.543-.018.399 1.093.298 2.468-.225 3.253-1.237 3.433 1.053.311 3.961-1.902 1.773-1.96 2.039-.441 2.039.962 0 1.484.427 1.161.95-.323.522.428 1.493 1.669 2.157 2.127 1.138 2.147 1.245.352 1.875-1.216.426-2.561.009-3.727-1.157-2.177-2.177-4.679-2.369-5.429-.415-.54 1.408-5.006 3.138-6.896 2.671-.55-.136-.67.083-.266.486.403.404-.488 1.866-1.981 3.25l-2.715 2.516 2.67-.67c2.656-.667 4.937.915 3.17 2.199-1.508 1.096-1.677 6.463-.186 5.917.719-.263 4.008-1.26 7.308-2.214 8.787-2.541 26.841-8.701 28-9.554.936-.688 5.758-2.224 8-2.549 3.228-.467 6.5-1.816 6.5-2.679 0-.604-1.088-.706-2.75-.256-1.512.409-3.425.823-4.25.919-.825.097-2.535.739-3.799 1.427-3.124 1.699-7.458 1.072-7.773-1.123-.145-1.009.392-1.75 1.267-1.75.979 0 1.302-.567.908-1.593-.408-1.062.056-1.767 1.393-2.116 1.102-.288 2.004-.88 2.004-1.314 0-.434.9-.554 2-.267 1.1.288 2 .859 2 1.269 0 .41 1.125.622 2.5.472 1.469-.162 2.5.236 2.5.964 0 .812 1.118 1.102 3.25.841 2.208-.27 2.822-.099 1.916.534-1.082.756-1.035 1.046.25 1.539.871.335 1.584.135 1.584-.444 0-.578.563-.862 1.25-.631.688.232 1.7-.161 2.25-.873.55-.713 2.257-1.513 3.792-1.78 2.423-.42 7.116-4.516 6.215-5.425-.177-.178-1.755.418-3.507 1.324-4.604 2.381-4.914 1.046-.344-1.48 2.355-1.303 2.973-1.948 1.594-1.666-1.238.252-2.25.021-2.25-.515 0-.538-.951-.672-2.125-.299-1.52.482-1.913.331-1.38-.533.58-.938.255-.943-1.46-.026-1.213.65-2.505.858-2.871.463-.365-.395-.101-.919.586-1.164 1.451-.519 1.669-2.903.34-3.724-.5-.309-2.973.322-5.495 1.403-3.772 1.617-4.804 1.733-5.813.653-1.007-1.079-2.127-.895-6.255 1.027-2.765 1.288-5.965 2.346-7.11 2.351-1.146.006-2.421.347-2.834.76-1.106 1.107-6.502.912-6.928-.25-.201-.55.469-1.866 1.489-2.925 1.021-1.059 1.856-1.509 1.857-1 0 .509 1.122.99 2.493 1.069 1.371.079 2.244-.259 1.94-.75-.303-.492.037-.929.757-.971 5.292-.311 8.076-.856 13.515-2.645 3.796-1.248 6.338-1.647 6.545-1.026.189.568 1.038.316 1.925-.57.872-.873 1.845-1.328 2.162-1.011.317.317 1.37.271 2.341-.101 1.411-.542 1.492-.846.407-1.517-.968-.598.044-1.441 3.528-2.935 6.511-2.793 7.687-3.521 8.206-5.079.247-.74-.025-1.03-.621-.662-.584.361-1.309.254-1.612-.236-.47-.761 6.915-3.464 9.913-3.627 2.56-.14 5.5-1.787 5.5-3.081 0-.788.599-1.433 1.331-1.433s1.961-1.176 2.73-2.614c.77-1.438 3.546-4.544 6.169-6.903 5.312-4.776 5.669-5.483 2.77-5.483-1.1 0-2 .398-2 .883" fill="#d3d3d3" fill-rule="evenodd"/></svg>