<svg xmlns="http://www.w3.org/2000/svg" width="500" height="583"><path d="M62.596 58.611c-1.204 3.138-.62 172.522.593 171.772.795-.491.882.012.297 1.711-1.332 3.865-1.665 40.906-.367 40.906.602 0 .851.637.552 1.416-.378.984.557 1.676 3.066 2.269 4.481 1.06 5.04 2.446 1.626 4.031-1.853.861-3.183.916-4.543.188-1.807-.968-1.905-.685-1.622 4.676.289 5.458.426 5.718 3.162 6.006 1.573.166 3.148.605 3.5.978.352.372-1.047.487-3.11.257l-3.75-.419V324h5.86c8.994 0 15.14 1.07 15.14 2.636 0 .75-.525 1.364-1.167 1.364-.641 0-.951.216-.687.479.263.263 4.501.726 9.416 1.029 4.916.302 10.288.822 11.938 1.156 1.65.333 6.6.728 11 .877 4.4.149 10.7.796 14 1.437 3.3.642 8.16 1.405 10.8 1.695 5.625.617 5.728 2.028.336 4.605-2.046.977-3.436 2.237-3.089 2.798.428.692 1.035.686 1.884-.019.689-.572 1.549-.744 1.911-.382.362.362.658.118.658-.544 0-.879.52-.923 1.939-.163 1.29.69 2.147.702 2.559.035.341-.552-.194-1.017-1.189-1.035-1.41-.024-1.155-.518 1.157-2.241 3.516-2.618 13.534-3.583 13.534-1.303 0 .733 1.344 1.89 2.987 2.571 3.025 1.253 3.328 3.447.317 2.291-1.091-.418-1.392-.238-.909.544 1.014 1.641 5.952 1.562 4.992-.08-.402-.687.169-.462 1.27.5 1.1.962 3.401 1.75 5.113 1.75 1.711 0 3.392.454 3.735 1.008.39.631-1.177.95-4.191.854-8.826-.282-13.314.127-13.314 1.215 0 .626 1.567.96 3.75.799 2.625-.195 3.667.105 3.475.998-.372 1.726 4.917 1.083 6.372-.775.797-1.018 1.293-1.087 1.809-.25.392.633.209 1.151-.406 1.151s-.84.45-.5 1c.34.55 1.068 1 1.618 1s.722-.45.382-1c-.34-.55.11-1 1-1s1.34.45 1 1c-.34.55.282 1 1.382 1 1.1 0 2.278.45 2.618 1 .34.55-.084 1-.941 1-3.101 0-1.469 1.926 2.191 2.585 2.063.372 4.381 1.18 5.152 1.795.772.616 2.797 1.166 4.5 1.222 1.704.056 6.023.37 9.598.697 3.575.328 5.6.351 4.5.051-3.136-.853-4.2-2.296-2.492-3.376 1.784-1.128 8.349-1.284 9.408-.224.949.949 5.584 1.076 5.584.153 0-.379-.739-.973-1.643-1.32-2.816-1.08-.771-1.756 6.539-2.16l7.042-.39-1.039 2.731c-1.255 3.302-3.783 6.236-5.374 6.236-.64 0-1.808 1.463-2.595 3.25-.97 2.204-2.235 3.358-3.93 3.585-1.375.184-2.911.73-3.414 1.214-.526.506 16.562.724 40.25.515 36.27-.32 45.72.099 39.414 1.747-1.923.502 5.34.996 10.5.714 4.685-.257 4.005 1.672-.881 2.497-2.808.475-3.698.966-2.778 1.534 1.8 1.112-1.29 2.387-4.041 1.667-1.133-.296-2.15.096-2.48.956-.389 1.012-1.252 1.236-2.815.733-1.24-.4-2.817-.731-3.505-.736-.687-.005-1.25-.562-1.25-1.237 0-.892-.977-1.008-3.562-.425-1.959.442-10.846.456-19.75.031-9.955-.475-16.652-.407-17.394.177-.664.523-1.582.718-2.042.434-.459-.284-7.341-.999-15.294-1.588-21.194-1.572-26.016-2.165-25.421-3.128.294-.475-3.645-.906-8.752-.957L182 371.864a57.658 57.658 0 00-5 .215c-1.375.132-6.506-.125-11.402-.57-6.627-.602-8.72-.515-8.191.341.427.691.046 1.15-.955 1.15-1.108 0-1.463.529-1.059 1.582.334.87.607 3.247.607 5.282 0 3.199.33 3.727 2.438 3.902 2.765.228 4.124-2.42 3.022-5.891-.925-2.914 1.454-4.263 3.791-2.148 1.39 1.258 1.508 1.809.523 2.434-.964.612-.897.812.276.824.852.008 2.09-.525 2.75-1.185.933-.933 1.228-.711 1.325 1 .069 1.21.183 2.763.255 3.45.071.688 1.252 1.294 2.625 1.347 1.372.053 4.295.583 6.495 1.177 2.2.594 5.575 1.316 7.5 1.606 1.925.289 11.362 2.122 20.972 4.073 18.133 3.681 20.976 4.058 21.105 2.797.238-2.334.856-4.515 1.443-5.092.369-.362.515.879.325 2.758-.392 3.88 1.122 4.974 3.539 2.557 1.356-1.356 2.393-9.555 1.734-13.723-.065-.413.557-.75 1.382-.75.825 0 1.5.675 1.5 1.5s-.505 1.5-1.122 1.5c-.776 0-.738.464.122 1.5.685.825.852 1.515.372 1.533-.479.019.19.919 1.489 2 1.417 1.181 1.817 1.973 1 1.982-.935.011-1.009.246-.237.75.619.404 1.436 2.168 1.816 3.92.693 3.199 1.809 3.804 8.888 4.82 1.195.172 4.422.832 7.172 1.468s6.35 1.372 8 1.634c19.081 3.041 17.443 2.295 25.981 11.836 6.5 7.262 6.685 7.615 6.025 11.524-.725 4.29-2.028 5.069-3.99 2.386-1.239-1.695-13.319-4.228-23.016-4.827-2.75-.17-9.459-1.257-14.909-2.417-5.45-1.16-11.379-2.109-13.174-2.109-3.778 0-12.998-1.807-15.917-3.12-1.1-.495-6.5-1.544-12-2.332-15.74-2.254-39.328-6.229-60-10.109-27.78-5.215-30.621-5.848-30.621-6.825 0-.488 3.934-2.638 8.743-4.78 4.809-2.141 9.327-4.377 10.041-4.969 1.398-1.16 1.446-5.865.06-5.865-.463 0-.582-.419-.266-.931.317-.512.092-1.23-.499-1.595-.604-.373-.835-2.048-.528-3.819.3-1.735.289-2.592-.025-1.905-.789 1.726-2.747 1.584-2.081-.151.768-2.003-3.039-2.741-4.842-.939-.815.816-1.482 1.901-1.482 2.411 0 .511-.661.929-1.469.929-.981 0-1.251-.58-.812-1.75.589-1.573.473-1.601-1.147-.282-1.725 1.405-1.715 1.525.254 2.832 1.738 1.155 1.886 1.739.954 3.783-.605 1.329-1.465 2.417-1.909 2.417-.445 0-.521.749-.17 1.664.452 1.176.268 1.435-.625.883-.695-.43-1.059-1.854-.809-3.164.533-2.787-.721-3.15-2.187-.633-.971 1.667-1.021 1.667-1.05 0-.016-.962.447-1.75 1.029-1.75.582 0 .781-.45.441-1s-.156-1 .41-1c.565 0 .768-.675.452-1.5-.712-1.854-8.993-2.108-9.597-.295-.299.896-1.547.768-4.867-.5-5.171-1.975-7.898-2.176-7.898-.583 0 .769-.394.805-1.25.116-.704-.568-10.052-1.193-21.402-1.432l-20.151-.424-.055 50.277c-.039 36.839.253 50.467 1.095 50.988.632.39 5.841.593 11.575.451l10.426-.26-.641 3.831c-1.01 6.035-.723 18.875.491 21.994.608 1.56 1.437 5.206 1.843 8.102l.738 5.264-6.084 1.88c-6.491 2.005-8.092 1.913-5.075-.293 2.173-1.588 1.506-1.924-6.218-3.124-6.997-1.087-7.917-.349-8 6.422-.067 5.447.109 5.929 2.318 6.352 1.314.251 2.39.069 2.39-.405 0-.473.45-.861 1-.861 1.452 0 1.229 4.742-.25 5.331-.687.274 42.175.424 95.25.333l96.5-.164.041-2.86c.022-1.574.81-3.423 1.75-4.111 2.135-1.561 2.219-3.529.15-3.529-.924 0-1.268-.47-.846-1.155.393-.634.291-.892-.227-.573-.545.337-.977-2.014-1.029-5.595-.049-3.397.117-5.614.369-4.927.252.687.898 1.25 1.434 1.25.537 0 .655-.52.263-1.155-.473-.763-.271-.88.595-.345.921.569 1.069.421.5-.5-.535-.866-.418-1.068.345-.595 1.696 1.047 1.409-.949-.345-2.405-1.682-1.396-2.043-5-.5-5 .55 0 1 .45 1 1s.388 1 .861 1c.474 0 .634-1.192.355-2.649-.349-1.828-.151-2.429.639-1.941.693.429 1.173-.006 1.215-1.101.065-1.654.135-1.644.825.118.701 1.788.804 1.8 1.43.168.94-2.449.85-2.821-.48-2-.715.443-.883.275-.44-.44.392-.635.236-1.155-.346-1.155s-1.105.563-1.161 1.25c-.259 3.164-1.944-6.859-2.892-17.209-1.272-13.867-2.613-18.953-4.882-18.511-.893.175-5.201.351-9.574.393-6.183.06-7.683.344-6.75 1.277 1.654 1.654 1.506 2.855-.268 2.174-.808-.31-1.37-1.084-1.25-1.719.279-1.477-6.016-2.121-7.631-.78-.675.56-1.81.645-2.545.19-3.747-2.316-6.799 1.87-3.356 4.604 1.605 1.275 1.544 1.365-.75 1.087-1.375-.167-2.391-.845-2.257-1.508.347-1.722-4.937-4.194-10.316-4.827-4.44-.522-4.575-.461-3.88 1.769.696 2.237.656 2.254-1.256.548-1.09-.972-3.502-1.747-5.383-1.73-1.874.018-7.008-.185-11.408-.451-13.658-.823-47.669-1.093-48.109-.381-.23.372-1.871.26-3.648-.25-4.368-1.252-13.471-1.174-14.273.123-.443.717-1.092.68-2.054-.118-.773-.642-2.308-.931-3.411-.643-1.103.289-2.005.125-2.005-.362 0-.488-1.912-.686-4.25-.439-10.769 1.137-20.75 1.484-20.75.722 0-1.061 3.668-2.813 23.526-11.238l16.026-6.799 7.974.878c4.386.483 14.499 1.339 22.474 1.902 7.975.562 16.3 1.24 18.5 1.506 4.031.486 34.047 3.164 71 6.334l20 1.716.5 4.996c.37 3.692.891 4.939 2 4.777 4.494-.654 7.721-1.831 10.853-3.956 2.388-1.62 3.823-2.049 4.523-1.349.563.563 1.946 1.027 3.074 1.03 3.75.01 9.951 2.128 8.626 2.947-.862.533-.543.953 1.037 1.366 1.256.329 2.842.134 3.524-.433 2.034-1.688 6.913-.684 6.572 1.353-.16.956.193 2.643.785 3.75.592 1.106.948 2.011.791 2.011-.157 0-3.812-.675-8.123-1.5s-8.023-1.5-8.25-1.5c-.227 0-.412 1.854-.412 4.12v4.12l7.5-.46c4.181-.256 7.5-.056 7.5.452 0 1.811-2.783 3.638-4.756 3.121-2.019-.527-4.017 1.207-2.797 2.427.356.356 3.213.734 6.35.839 7.502.253 7.203.181 7.203 1.742 0 .913.824 1.204 2.5.884 1.459-.279 2.5-.013 2.5.638 0 .615-.488 1.117-1.083 1.117-.596 0-.88.562-.63 1.25.249.688-.153 2.742-.894 4.567-1.295 3.189-1.261 3.304.88 3 1.225-.175 2.227-.992 2.227-1.817 0-1.438.633-2.001 2.25-1.999.413 0 .815 1.125.894 2.5.133 2.308-.191 2.499-4.25 2.499-2.681 0-4.394-.455-4.394-1.167 0-.641-.284-.882-.631-.535-.989.989-4.369-1.203-4.369-2.833 0-.806-.364-1.465-.809-1.465-1.263 0-4.815 2.924-3.691 3.038 2.494.255-3.428 1.825-7 1.856-3.962.035-3.976.022-1.5-1.394 1.375-.786 1.868-1.445 1.094-1.465-2.179-.055 4.111-5.028 6.406-5.064 1.81-.029 1.837-.127.288-1.03-1.881-1.096-6.788-.252-6.788 1.167 0 .491-.788.856-1.75.813-1.045-.047-1.247-.282-.5-.583.687-.278 1.25-1.19 1.25-2.028 0-.944-.571-1.305-1.5-.948-1.02.391-1.5-.054-1.5-1.393 0-2.936-1.451-2.381-3.07 1.173-.786 1.728-1.759 2.966-2.16 2.75-.942-.505-4.77 6.975-4.77 9.319 0 2.172 2.739 2.301 5.441.257 1.847-1.396 6.579-2.155 5.268-.844-.343.343.369 1.492 1.584 2.553 2.119 1.852 2.126 1.907.155 1.371-1.129-.306-2.929.105-4 .916-2.202 1.664-5.893 2.065-4.948.536 1.002-1.621-1.041-1.146-3.615.841-2.596 2.004-6.885 3.407-6.885 2.252 0-.395 1.35-2.012 3-3.593 2.968-2.844 3.934-5.5 2-5.5-.55 0-1 .503-1 1.118 0 .615-1.35 2.656-3 4.535-2.82 3.212-4.074 6.129-2.114 4.917.488-.301 1.113.318 1.39 1.377.639 2.443 4.762 1.624 5.471-1.087.562-2.151 9.771-1.807 15.438.576 3.072 1.291 3.093 1.345.977 2.477-1.189.637-2.163.804-2.164.372-.001-.432-1.464-.861-3.25-.954-2.505-.13-2.791.011-1.248.616 2.777 1.09-7.208 1.985-10.215.917-1.296-.461-2.473-.369-2.839.223-.408.661-1.112.606-2.035-.161-1.575-1.307-1.574-1.309-1.902 1.824-.13 1.238.153 2.25.628 2.25.474 0 .831 1.462.793 3.25-.058 2.683-.214 2.901-.893 1.25-.747-1.816-.887-1.842-1.527-.276-.695 1.701.833 4.033 3.188 4.865 2.709.957-1.46 4.189-4.397 3.409-1.541-.41-2.236-.953-1.545-1.207.691-.254 1.002-.873.691-1.376-1-1.618-2.46-.981-3.629 1.585-.626 1.375-1.58 2.5-2.118 2.5-.539 0-1.577.788-2.308 1.75-.811 1.069-1.341 1.263-1.36.5-.044-1.741-2.032-1.578-2.032.167 0 .779-.562 1.643-1.25 1.921-.687.277.725.54 3.14.583 3.076.055 4.787-.445 5.718-1.671 1.265-1.666 1.33-1.666 1.36.005.029 1.594 1.358 1.748 14.532 1.684 10.456-.051 14.504-.4 14.515-1.255.009-.705.414-.578 1 .316.876 1.333 1.094 1.333 1.97 0 .658-1.003.989-1.086 1-.25.01.824 1.632 1.245 4.765 1.236 6.253-.018 9.888-.966 8.085-2.109-1.023-.649-.926-.85.415-.862.962-.008 1.863.077 2 .189.137.113 1.259-.659 2.492-1.715 1.882-1.612 2.002-2.053.75-2.754-2.299-1.286-1.768-2.633.954-2.423 3.557.274 3.609-1.752.054-2.139-4.041-.44-5.617-2.068-2.733-2.822 1.228-.322 2.233-.982 2.233-1.468 0-.485.477-.883 1.059-.883s.781.45.441 1c-1.285 2.08.681 3.146 2.599 1.41 1.18-1.068 1.901-1.267 1.901-.526 0 .881.365.856 1.389-.095.835-.774 1-1.533.415-1.901-1.355-.85-1.217-2.008.361-3.026 1.609-1.039-.529-2.821-3.415-2.847-.962-.008-1.75-.592-1.75-1.297s-2.025-1.879-4.5-2.61c-5.113-1.51-5.495-2.237-2.125-4.041 1.734-.928 2.911-.984 4.362-.208 1.49.798 2.459.706 3.875-.366 1.038-.786 2.73-1.444 3.758-1.461 2.358-.04 10.545-5.161 10.593-6.627.06-1.795 3.535-4.405 5.866-4.405 1.758 0 2.193.618 2.289 3.25l.119 3.25.651-3 .652-3 2.45 3.293c1.795 2.413 3.102 3.214 4.892 3 1.41-.169 2.641.295 2.91 1.096.273.81.019 1.112-.609.724-.702-.434-1.205 1.171-1.445 4.611l-.368 5.276-.185-5.25c-.102-2.887-.591-5.25-1.087-5.25-1.337 0-3.098 5.75-3.098 10.114 0 2.816-.534 4.101-2.038 4.906-2.247 1.203-6.327.38-5.418-1.092.316-.51.146-.928-.378-.928-1.554 0-2.159 2.739-2.284 10.332-.117 7.13-.122 7.142-.931 2.32-.447-2.666-1.058-5.093-1.358-5.392-1.225-1.226-3.477 2.122-4.068 6.048-.348 2.305-.865 5.412-1.149 6.903l-.518 2.711 39.071.054 39.071.054v-9.015c0-7.347-.278-9.015-1.5-9.015-1.614 0-1.853-.916-.893-3.418.351-.915 1.773-1.582 3.372-1.582 2.448 0 2.838.454 3.398 3.956.693 4.337.357 4.188 12.513 5.547 2.965.332 6.64.853 8.168 1.159l2.778.555-.027-229.608L445.782 57h-53.391C344.205 57 339 57.155 339 58.594c0 .876.9 1.829 2 2.116 3.033.793 2.392 3.006-1.016 3.506-2.827.415-3.053.203-3.627-3.387L335.744 57l-11.622.03c-8.686.023-11.161.299-9.797 1.092 1.004.584 2.095.791 2.426.461 1.191-1.192 5.249 3.803 5.249 6.461 0 2.503-.438 2.782-6.116 3.899l-6.116 1.203.663 4.147c.365 2.281 1.058 4.391 1.54 4.689.483.299.244 3.233-.531 6.53-1.821 7.741-1.806 11.94.049 13.479.819.68 1.2 1.703.847 2.274-.396.642-1.125.376-1.909-.696-1.184-1.619-1.344-1.592-2.412.403-.629 1.175-1.065 3.125-.969 4.333.293 3.673.011 4.156-1.345 2.3-.865-1.182-2.287-1.664-4.25-1.441-2.7.307-3.049.803-4.105 5.836-1.091 5.203-1.158 4.754-1.25-8.321-.073-10.503.235-14.152 1.28-15.198.757-.757 2.192-4.1 3.19-7.429 1.537-5.134 2.163-6.052 4.123-6.052 1.783 0 2.311-.557 2.311-2.441 0-2.694-1.841-4.434-2.893-2.733-.707 1.146-5.107 1.217-5.107.083 0-1.303-7.879-2.752-8.382-1.541-.258.622-.405-.105-.326-1.618.112-2.143.641-2.75 2.395-2.75 1.661 0 2.088.423 1.63 1.616-.524 1.367-.296 1.443 1.476.495 1.152-.617 2.372-1.569 2.71-2.116 1.076-1.741 6.304-1.163 6.832.755.265.963.428.015.362-2.105-.159-5.103-1.811-5.661-16.507-5.566-9.767.063-11.402.287-9.94 1.359 2.391 1.753 2.2 2.312-.792 2.312-3.35 0-3.404.085-4.073 6.353-.317 2.968-.658 5.484-.758 5.591-1.841 1.964-30.209 2.898-32.415 1.067-1.513-1.256-26.518-1.938-29.639-.808-1.772.641-1.787.751-.187 1.365.958.367 1.461 1.121 1.118 1.675-.342.554-.119 1.007.496 1.007s.835.457.49 1.016c-.346.559-1.01.78-1.478.492-.97-.6-2.51 5.327-1.616 6.221.323.323.109 1.162-.474 1.865-1.487 1.792.594 5.406 3.113 5.406 1.081 0 1.965.45 1.965 1 0 1.558-3.682 1.175-5.421-.564-.86-.86-2.005-1.291-2.544-.958-1.176.727-4.331 10.698-6.019 19.022-.67 3.3-2.014 6.9-2.988 8-1.365 1.543-8.028 21.454-8.028 23.992 0 .28 1.548.508 3.441.508 1.893 0 3.749.498 4.125 1.107.461.745-.011.887-1.441.433-1.261-.4-2.125-.241-2.125.393 0 .587.955 1.067 2.122 1.067 1.774 0 1.918.247.878 1.5-1.535 1.85-1.527 1.85 5.899-.053 4.465-1.144 6.987-1.296 9.581-.58 1.936.534 3.52.728 3.52.43s.617-.03 1.37.595c1.425 1.183 15.174 2.23 16.173 1.232.313-.313-2.044-1.333-5.237-2.265-7.062-2.063-4.145-2.42 3.628-.445 14.475 3.679 19.066 4.221 19.066 2.253 0-1.494 1.936-1.798 6.778-1.063 1.803.273 3.014.924 2.691 1.447-.338.546 1.349.949 3.972.949 2.507 0 4.559-.359 4.559-.799 0-.439 1.688-.856 3.75-.926 2.063-.069 7.365-.272 11.783-.451 8.469-.341 16.467 1.979 16.467 4.778 0 .714.788 1.757 1.75 2.318 2.679 1.56-1.179 1.461-4.066-.105-2.72-1.475-6.947-1.644-7.903-.315-.47.653-1.399.579-2.675-.211-1.802-1.117-2.122-.726-4.095 5-1.178 3.416-2.389 7.223-2.693 8.461-.303 1.238-.931 2.25-1.396 2.25-.465 0-1.399 1.912-2.076 4.25-1.663 5.741-2.501 1.408-.932-4.821 2.129-8.457 2.563-8.043-9.164-8.752-1.065-.064-1.744-.903-1.735-2.141.012-1.552.224-1.707.891-.654 1.267 2 15.094 2.582 15.094.635 0-1.879-2.051-3.052-2.909-1.664-.844 1.366-5.165.645-6.203-1.035-.464-.749-2.501-1.121-5.226-.954-2.457.151-5.41-.314-6.564-1.035-1.672-1.044-2.498-1.061-4.064-.082-2.538 1.585-14.813 1.874-16.304.383-1.419-1.419-8.392-1.487-9.255-.089-.354.572-1.505.767-2.559.432-3.179-1.009-2.149 1.25 1.084 2.377 3.903 1.361 3.785 1.75-.53 1.75-2.486 0-3.383-.385-3.032-1.3.275-.715.063-1.3-.469-1.3-.533 0-.969.955-.969 2.122 0 1.827-.222 1.939-1.59.803-1.446-1.2-1.429-1.438.191-2.622 1.401-1.025 1.463-1.303.29-1.303-.82 0-1.953.462-2.518 1.027-1.321 1.321-4.678 1.433-16.373.549-5.225-.394-14.338-.968-20.25-1.275-5.912-.307-10.75-.986-10.75-1.509 0-.545-1.335-.658-3.125-.265-2.243.493-2.924.361-2.412-.468.583-.942 23.372-.71 29.912.305.481.075 1.06-.362 1.286-.971.277-.747-3.135-1.274-10.518-1.624-6.011-.285-11.427-.826-12.036-1.203-.771-.477-1.107-10.17-1.107-31.966V86.317l-5.192-.184c-5.759-.203-7.365-.913-4.037-1.783 1.552-.406 2.082-1.189 1.833-2.711-.192-1.176.026-2.863.484-3.749.728-1.408-.417-1.696-9.147-2.297-10.766-.741-11.941-.499-11.941 2.466 0 1.274-.687 1.941-2 1.941-1.111 0-2 .667-2 1.5 0 1-1 1.5-3 1.5-1.65 0-3 .45-3 1 0 1.809-1.756 1.043-2.29-1-.491-1.879-1.364-2-14.416-2-9.086 0-14.289.395-15.037 1.143-.628.628-4.222 1.288-7.985 1.466-6.247.295-6.843.152-6.843-1.643 0-1.081.605-1.966 1.344-1.966.74 0 1.067.45.727 1-.813 1.316.974 1.262 9.185-.278 3.748-.703 10.045-1.219 13.994-1.147 7.595.139 11.203-.843 7.462-2.03-1.168-.371-2.53-.423-3.027-.115-1.082.668-11.232-1.146-12.275-2.195-.403-.404 3.969-.794 9.715-.866 9.436-.118 10.446.043 10.446 1.667 0 .988-.562 2.024-1.25 2.302-.687.277-.26.54.95.583 1.21.043 2.577-.593 3.036-1.414.46-.822 2.057-1.595 3.55-1.719 2.493-.206 2.727-.593 2.874-4.756.13-3.668.237-3.913.563-1.282.393 3.165 3.3 4.64 4.695 2.383.295-.477 2.594-1.1 5.108-1.383 5.746-.648 5.925-.853 4.507-5.15-.986-2.989-1.735-3.629-4.85-4.149-5.918-.988-6.018-1.288-.456-1.372 5.64-.085 9.06 2.708 7.689 6.28-.527 1.372.111 1.641 3.895 1.641 6.56 0 8.36-.842 5.734-2.681-1.125-.788-2.045-2.217-2.045-3.176 0-.959-.54-2.283-1.2-2.943-1.446-1.446-.35-1.565 2.142-.231.996.533 7.154 1.095 13.684 1.25l11.874.281.316 2.75c.248 2.151-.099 2.75-1.595 2.75-1.051 0-2.695.866-3.653 1.925-1.679 1.855-1.639 1.937 1.095 2.25 5.377.616 17.967-.355 15.837-1.221-1.736-.706-1.629-.823.809-.884 1.632-.041 2.55.349 2.191.93-.362.585.676 1 2.5 1 1.824 0 2.862.415 2.5 1-.348.563.391.965 1.691.921 1.54-.053 1.81-.275.809-.667-.936-.368.368-1.184 3.466-2.171 4.427-1.412 5.043-1.962 5.682-5.083.409-2.003.309-3.645-.234-3.839-.522-.187-1.585-.974-2.36-1.75-1.834-1.834-2.639-1.796-1.916.089 1.027 2.675-.305 4.286-3.101 3.752-2.82-.539-2.936-2.849-.13-2.605.93.081 1.519-.369 1.309-1C214.211 57.13 88 56.434 88 57.948c0 .619-.862.685-2.25.173-4.506-1.66-22.475-1.28-23.154.49m161.154-.954c.688.28 1.25 1.147 1.25 1.926 0 1.097 1.696 1.417 7.5 1.417 6.96 0 7.5.152 7.5 2.107 0 1.456.461 1.93 1.49 1.535 1.028-.394 1.677.27 2.093 2.143 1.358 6.114.595 5.768 11.154 5.065 5.37-.357 10.356-.695 11.08-.75.912-.069 1.089-.794.575-2.35-.409-1.237-.68-4.5-.603-7.25.099-3.501-.144-4.55-.809-3.5-.574.907-.955 1.027-.965.303-.011-.892-5.316-1.192-20.765-1.176-11.412.011-20.187.25-19.5.53m120.825 4.073c.164 1.501-.235 3.069-.888 3.485-.801.509-.826.759-.076.77.627.008.915 1.044.661 2.374-.398 2.081.082 2.493 4.081 3.5 5.966 1.502 7.89 1.319 4.147-.395-1.65-.756-2.411-1.394-1.691-1.419.72-.025 1.054-.457.743-.96-.311-.504.603-2.304 2.03-4 1.849-2.198 2.174-3.085 1.129-3.085-.806 0-2.026-.675-2.711-1.5s-2.703-1.5-4.485-1.5c-2.935 0-3.212.257-2.94 2.73M225.472 97.015c-4.475 2.353-6.037 2.761-7.126 1.857-2.952-2.45-2.548.324.506 3.475 4.246 4.381 3.512 6.646-1.919 5.917-4.452-.597-4.782-.091-1.932 2.968 1.915 2.055 2.058 2.069 3.329.332 1.252-1.713 1.45-1.659 3.513.963 2.196 2.793 2.15 4.866-.06 2.656-1.392-1.392-5.166-1.612-4.326-.252.317.512.141 1.2-.391 1.528-.531.328-1.445-.299-2.031-1.394-.629-1.175-1.674-1.757-2.55-1.421-.817.314-1.485.072-1.485-.537s-.675-1.107-1.5-1.107-1.5.383-1.5.851c0 1.102 9.919 14.276 11.947 15.867 1.579 1.239.437 1.713-3.726 1.546-1.616-.065-4.54 5.463-3.846 7.27.65 1.694 7.924 3.949 10.074 3.124 1.12-.43 1.418-1.338.995-3.026-.5-1.992-.126-2.571 2.149-3.33l2.755-.918-3.174-2.26c-3.408-2.427-4.097-4.124-1.674-4.124.825 0 1.5-.477 1.5-1.059s-.45-.781-1-.441c-1.115.689-1.429-6.738-.331-7.836.368-.367 1.504.088 2.525 1.011 1.832 1.659 6.575 1.903 15.283.788 2.611-.334 3.486-.035 3.818 1.302.237.955.334.751.217-.456-.153-1.584.604-2.528 2.734-3.411l2.945-1.22-2.845-1.326-2.846-1.327 3.25.567c3.833.669 4.055-.088 1-3.41l-2.25-2.448 3.821.692c2.102.38 4.464.938 5.25 1.24 2.649 1.016 1.456-1.333-1.321-2.601-3.914-1.788-13.776-2.725-12.846-1.221.393.636 1.377 1.156 2.186 1.156 2.372 0 2.742 2.727.673 4.948-1.051 1.128-5.107 3.139-9.013 4.467l-7.103 2.416-.676-4.005c-.522-3.086-1.062-3.905-2.354-3.567-2.979.779-4.484-1.964-2.165-3.95 1.314-1.125 1.627-1.951.907-2.396-.613-.379.467-1.196 2.441-1.847 3.701-1.221 7.025-4.066 4.751-4.066-.765 0-.629-.565.378-1.571 4.235-4.236.708-4.446-6.957-.414m96.238 7.235c2.09 11.235 3.236 14.75 4.809 14.75 1.172 0 1.227-.464.297-2.504-1.414-3.103-.461-4.284 1.708-2.115.89.89 1.151 1.619.579 1.619-.572 0-.782.672-.467 1.494.316.822.996 1.233 1.513.914.516-.319 1.568-.058 2.338.581 1.17.971 1.393.294 1.359-4.131-.024-2.989.436-5.452 1.056-5.659 3.05-1.016-.905-6.199-4.731-6.199-1.251 0-2.171-.628-2.171-1.481 0-.814-1.125-1.763-2.5-2.108-1.375-.345-2.5-1.029-2.5-1.519 0-.491-.594-.892-1.32-.892-1.09 0-1.085 1.26.03 7.25m-8.434 13.404c-.928.375-.861 1.05.276 2.786 1.152 1.757 1.26 2.923.467 5.009-1.149 3.023-.632 4.551 1.54 4.551.793 0 1.441.675 1.441 1.5 0 .866.951 1.532 2.25 1.577 3.895.132 6.202.779 6.555 1.837.187.562 1.774 1.292 3.525 1.62 3.118.585 6.463 4.858 4.669 5.966-1.341.829.025 4.177 2.719 6.664l2.53 2.336-.731-2.375c-.548-1.78-.415-2.18.53-1.596.82.507 1.012.376.548-.374-.427-.691-.063-1.155.905-1.155.89 0 1.34-.45 1-1-.34-.55-1.506-1-2.59-1-2.367 0-2.909-1.204-3.194-7.098l-.216-4.481-5.5.157c-3.025.086-4.038-.035-2.25-.271 1.788-.235 3.25-.851 3.25-1.367 0-.517.788-.941 1.75-.941 1.424-.001 1.272-.42-.819-2.25-1.413-1.237-2.862-3.036-3.219-3.999-.467-1.258-1.75-1.75-4.566-1.75-3.074 0-4.268-.538-5.554-2.5-1.596-2.436-2.815-2.859-5.316-1.846m-17.111 14.67c-1.201 1.278-1.879 2.628-1.507 3 .977.977 2.556.832 1.932-.178-.29-.469.568-1.352 1.906-1.962 1.519-.692 2.655-.749 3.025-.151.325.527-.484 1.448-1.798 2.047-3.539 1.613-2.924 3.632 1.311 4.31 2.036.325 4.998 1.268 6.584 2.094 1.585.827 3.557 1.513 4.382 1.525 1.296.019 1.303.146.052.938-1.7 1.075 3.057 2.668 6.448 2.158 2.564-.385 2.862-.71 1.975-2.145-.55-.89-.908-.878-1.481.05-.56.905-1.241.941-2.625.137-1.079-.627-1.316-1.099-.56-1.117 2.013-.046.32-2.03-1.733-2.03-.994 0-2.881-.846-4.196-1.879-1.314-1.034-3.287-2.111-4.384-2.394-1.898-.49-1.885-.551.254-1.238 3.208-1.03 2.791-2.236-1.372-3.976-4.806-2.007-5.642-1.925-8.213.811M267 136.889c0 .646.788 1.47 1.75 1.832.962.362 3.907 1.922 6.544 3.468 4.638 2.72 12.555 3.994 11.201 1.803-.342-.554.159-1.789 1.114-2.744 1.648-1.648 1.461-1.799-3.687-2.987-8.962-2.069-16.922-2.715-16.922-1.372m46.136 14.478c-.096 1.321-.695 1.72-2.05 1.366-1.282-.335-2.071.103-2.392 1.327-.365 1.4.26 1.988 2.664 2.506 1.728.373 4.812 1.523 6.852 2.556 2.041 1.033 5.727 1.878 8.191 1.878 2.465 0 4.747.43 5.072.956.325.526 1.312.68 2.194.342 1.07-.411-.684-1.541-5.282-3.404-6.58-2.666-6.722-2.792-3.194-2.842 2.03-.028 4.004-.558 4.386-1.177.483-.781-.417-.996-2.941-.701-2 .233-3.636.038-3.636-.434s-.457-.575-1.016-.23c-.559.346-.758 1.047-.441 1.559.316.512.098.931-.484.931s-1.059-.45-1.059-1-.337-.947-.75-.882c-3.15.498-5.157-.36-5.544-2.368-.331-1.718-.466-1.809-.57-.383m3.854 61.883c-.005.688-1.484 3.105-3.287 5.372l-3.277 4.122-4.213-1.983c-4.196-1.975-5.513-3.761-2.772-3.761.793 0 1.739-.482 2.103-1.071.452-.732-1.583-.979-6.441-.781-3.907.16-7.103.642-7.103 1.071 0 .43.949.781 2.108.781 1.674 0 2.002.464 1.59 2.25-1.815 7.865-1.795 8.352.41 10.311 1.351 1.2 2.333 1.516 2.574.831.215-.61 1.068-1.96 1.897-3 1.384-1.737 1.477-1.465 1.135 3.317-.238 3.34.044 5.368.788 5.653 2.04.783 8.49-1.757 8.236-3.243-.131-.77 1.337-2.285 3.262-3.367 1.925-1.082 3.874-2.619 4.331-3.415.647-1.129 1.143-1.188 2.25-.27.78.648 1.419.785 1.42.305 0-.479 1.154-.939 2.565-1.02 3.513-.203 3.674-.564 1.865-4.19-1.516-3.039-3.431-4.246-3.431-2.162 0 2.442-1.797.645-3-3-1.26-3.819-2.989-5.399-3.01-2.75m-235.725 5.059c-2.5 3.379 3.293 13.314 7.158 12.276 1.142-.307 4.215-.564 6.827-.571 6.364-.019 6.023-.934-2.5-6.708-8.61-5.833-10.316-6.575-11.485-4.997m245.754 10.156c-1.17 2.186-2.056 2.544-6.438 2.598-4.553.057-4.821.177-2.581 1.153 2.305 1.004 2.344 1.124.5 1.54-4.083.92-5.701 3.289-4.008 5.871 2.063 3.149 1.915 3.478-1.057 2.348-3.618-1.375-4.741-1.215-4.053.577.327.854.225 1.323-.227 1.044-.452-.279-.822.128-.822.905s.629 1.654 1.397 1.949c.768.295 1.19.877.938 1.293-.252.416.17 1.337.937 2.046 1.139 1.053 1.401 1.053 1.427 0 .02-.834.501-.671 1.36.461 1.624 2.139 3.764 2.32 2.97.25-.317-.825-1.229-1.5-2.028-1.5-.843 0-1.153-.484-.739-1.155.443-.715.275-.883-.44-.44-1.521.939-1.487-.673.045-2.205 1.7-1.7 5.475-1.488 6.18.347.326.851 1.163 1.416 1.86 1.256.697-.16 2.795 1.169 4.662 2.953 1.867 1.784 3.789 3.244 4.272 3.244 1.147 0-1.809-5.725-4.815-9.327-2.885-3.457-2.993-4.652-.359-3.963 1.1.288 2 .858 2 1.268 0 .41 1.144.526 2.542.259 4.025-.77 1.958-1.879-4.925-2.643-1.586-.176-3.305-1.073-3.821-1.993-.805-1.44-.542-1.588 1.884-1.057 2.161.473 2.469.369 1.32-.448-1.295-.92-1.261-1.067.25-1.081.962-.008 1.75-.72 1.75-1.582 0-1.09.584-1.382 1.916-.96 2.782.883 3.646-1.356 1.393-3.609-1.912-1.911-1.949-1.904-3.29.601m-77.269 15.172c-1.27.37-1.75 1.551-1.75 4.31v3.8l7.471-.123c5.716-.095 7.568-.476 7.884-1.624.29-1.052.448-.943.529.367.089 1.431.641 1.726 2.366 1.263 1.238-.331 2.587-.609 3-.616.413-.008.75-.491.75-1.073s-.408-.807-.907-.499c-.498.309-.788-.227-.643-1.191.145-.963.07-1.188-.167-.501-.236.688-.873 1.25-1.415 1.25s-.708-.45-.368-1c.34-.55-.061-1-.891-1-.83 0-1.927-.746-2.437-1.658-.945-1.689-9.669-2.797-13.422-1.705M138.5 258.633c-4.95.813-11.25 1.99-14 2.615-2.75.625-8.375 1.24-12.5 1.367s-8.311.265-9.302.308c-1.516.065-1.375.472.897 2.577l2.697 2.5-2.896-.015c-2.237-.012-2.555-.236-1.396-.985 2.119-1.369-.325-1.265-3.422.146-1.383.631-2.247 1.581-1.919 2.112.329.531-.023 1.365-.781 1.854-1.687 1.087.653 3.055 3.12 2.623 1.546-.27 2.09-3.798.741-4.801-.419-.311 1.156-.487 3.5-.391 3.739.154 4.471.583 5.973 3.497 1.51 2.928 1.794 3.092 2.404 1.39.381-1.061.918-2.337 1.193-2.835.28-.506-.076-.548-.809-.095-.815.504-1.066.416-.666-.232.354-.572-.364-1.34-1.595-1.705l-2.239-.665 2.435-.985c1.339-.542 3.026-.758 3.75-.48.723.277 1.315.11 1.315-.372 0-1.033 10.731-.741 13.202.358.936.417 2.174.467 2.75.111.576-.357 1.048.08 1.048.97s.45 1.34 1 1c.55-.34 1-.141 1 .441s-.694 1.059-1.542 1.059c-.848 0-2.532.923-3.743 2.051l-2.201 2.05 4.493-.598c2.471-.328 5.713-.786 7.204-1.017 1.491-.231 2.971 0 3.289.514.318.514 2.023.686 3.789.383 2.45-.421 2.856-.298 1.711.517-.825.588-2.963 1.076-4.75 1.085-3.361.016-4.37 1.371-1.766 2.371 2.93 1.124 21.486 1.914 22.75.968 1.156-.864 2.52-.967 4.516-.338 1.735.547 8.249.464 8.249-.105.001-.733-6.263-1.854-10.449-1.87-2.17-.008-2.655-.306-1.835-1.126.821-.821 3.379-.794 9.674.099 9.093 1.291 23.882.694 24.444-.987.184-.548.732-.997 1.219-.997.487 0 .648.619.357 1.377-.423 1.103.296 1.225 3.623.617 9.923-1.814 10.333 2.013.468 4.372-1.1.263 3.85.355 11 .204s15.193.158 17.873.687c3.825.755 5.059.669 5.735-.398.633-.998.865-1.027.877-.109.018 1.535 11.578 1.766 12.515.25.34-.55 1.941-1 3.559-1s2.941-.45 2.941-1 .873-1 1.941-1c3.481 0 3.075-1.675-.437-1.807-2.479-.094-3.275.239-2.902 1.212.373.972-.187 1.206-2.044.851-1.598-.306-2.558-.037-2.558.714 0 .873-2.059 1.073-7.5.729-4.125-.261-7.5-.075-7.5.413 0 .489-.477.888-1.059.888s-.805-.412-.494-.915c.311-.503 0-1.116-.691-1.363-1.84-.657-.679-1.494 2.744-1.98 1.65-.234 3.867-.8 4.927-1.258 1.892-.819 1.893-.846.016-1.504-1.713-.601-1.609-.829.994-2.193l2.905-1.522-6.503-1.133c-3.576-.622-8.27-1.132-10.43-1.132-2.875 0-4.271-.549-5.207-2.048-1.002-1.605-2.296-2.038-5.99-2.004-11.789.109-44.624-1.914-53.212-3.278-15.847-2.517-17.18-2.569-26.5-1.037m126.516 16.858c-1.705.913-1.948 1.388-.917 1.796.77.305.131.591-1.42.634-1.552.043-3.384.642-4.072 1.329-1 1 1.464 1.178 12.321.889 22.762-.605 34.057.185 35.373 2.473.603 1.048 2.114 1.239 6.097.771 6.632-.779 11.86 1.412 13.644 5.719.675 1.629.905 3.285.511 3.68-1.437 1.439-18.512 1.497-20.241.068-1.456-1.203-1.578-1.053-1.118 1.37.285 1.496.202 2.525-.182 2.287-.385-.237-.796 2.546-.913 6.186-.265 8.169-.11 8.281 11.401 8.26 11.213-.021 15.284-1.978 7.72-3.712-3.766-.863-4.872-.812-5.474.256-.621 1.104-1.462 1.061-4.789-.246-2.787-1.095-3.636-1.838-2.746-2.403.816-.517.052-.823-2.083-.833-2.743-.012-3.16-.271-2.235-1.386.748-.902 2.748-1.264 5.84-1.057 2.785.186 4.153-.024 3.356-.517-.74-.457-1.036-1.332-.658-1.943.462-.747-.664-1.112-3.431-1.112-2.265 0-3.909-.338-3.654-.75.255-.413 1.969-.672 3.809-.577 8.064.417 7.526.282 5.6 1.405-1.365.794-1.486 1.295-.553 2.293 1.521 1.628 5.798.856 5.798-1.047 0-.793-.45-1.164-1-.824-.55.34-1 .158-1-.405 0-.617 2.279-.889 5.75-.687 3.163.185 6.313-.111 7-.658.848-.675 1.25-.634 1.25.128 0 .617 1.398 1.122 3.107 1.122 2.229 0 2.958-.39 2.578-1.378-.638-1.662 1.127-3.621 3.265-3.624 1.302-.002 12.539-5.36 14.021-6.685 1.438-1.287-3.568-2.282-11.471-2.282-6.175 0-8.529.304-7.5.969 1.138.736.716.973-1.75.985-2.229.01-3.25-.456-3.25-1.485 0-1.133-1.222-1.5-5-1.5-5.464 0-5.833-.314-3.313-2.821 1.838-1.829-1.903-2.181-40.067-3.778-8.184-.342-14.324-.966-13.644-1.386 2.124-1.313-3.449-.867-5.96.476m-182.543.553c-.325.526-.129.956.437.956.565 0 .769.672.454 1.494-.316.822-1.089 1.2-1.719.84-.63-.36-.814-.289-.411.157.977 1.079-2.215 3.433-4.734 3.493-1.666.039-1.749.211-.5 1.031 1.211.795 1.248 1.148.189 1.832-.852.55-1.202 2.452-1 5.434l.311 4.587 4.362-3.958c3.466-3.145 4.264-4.471 3.884-6.458-.263-1.375-.108-2.728.344-3.008.453-.279.569-1.169.259-1.976-.309-.807-.065-1.468.544-1.468S86 278.373 86 277.607c0-1.696-2.704-2.894-3.527-1.563m122.304 57.888c-5.04.355-9.263 1.162-10 1.909-1.041 1.055-.814 1.253 1.223 1.071 1.375-.123 3.625-.138 5-.034l2.5.189-2.354 1.961c-1.295 1.079-2.757 1.712-3.25 1.408-.493-.305-.896-.021-.896.63 0 1.593 5.629.448 7.629-1.553.833-.832 2.269-1.497 3.192-1.478 1.21.026.981.435-.821 1.465-2.837 1.622-.908 2.056 2.066.465 1.644-.88 1.934-.7 1.934 1.2 0 1.738.267 1.968 1.2 1.035 1.663-1.663 2.575-1.501 3.111.55.435 1.667.463 1.667.573 0 .142-2.145 1.48-2.243 3.47-.253.824.824 2.206 1.225 3.072.893.883-.339 1.574-.087 1.574.574 0 1.949 2.743 4.072 4.426 3.426.866-.332 1.574-.165 1.574.372 0 .983 5.857.715 6.888-.316.305-.305-.043-.924-.774-1.375-1.025-.634-1.05-.992-.109-1.574.679-.42 1.615-.143 2.114.625.714 1.098 1.287.873 2.82-1.107 1.058-1.367 1.837-2.573 1.729-2.68-.107-.107-5.884-.746-12.837-1.42l-12.643-1.226-.569-2.845c-.313-1.564-1.143-2.773-1.844-2.686-.701.088-5.201.436-9.998.774m-77.571 10.889c-5.113 3.268-5.269 4.079-.706 3.655 1.925-.179 3.5.091 3.5.599 0 .509-.477.925-1.059.925s-.781.45-.441 1c.95 1.537 3.662 1.197 7.694-.964 2.671-1.432 3.797-1.635 4.156-.75.293.724.524.55.571-.429.043-.904.818-1.927 1.722-2.274 2.461-.944.756-1.989-3.737-2.289-2.193-.147-4.78-.691-5.748-1.21-1.306-.698-2.843-.25-5.952 1.737m-61.531 4.583c-.296.771-.279 2.393.037 3.602.328 1.255.04 2.529-.672 2.969-.975.603-.987 1.256-.057 2.993 1.017 1.901.885 2.436-.913 3.696-1.157.81-1.844 1.892-1.528 2.404.921 1.49 9.96 1.077 15.173-.693 2.632-.894 5.235-1.726 5.785-1.849.55-.123 1.9-.583 3-1.023 1.1-.439 3.463-1.384 5.25-2.1 1.787-.715 3.25-1.774 3.25-2.352 0-1.455-1.59-1.314-4.985.441-2.695 1.394-2.927 1.36-3.523-.517-.864-2.722-6.921-5.636-12.949-6.228-2.726-.268-5.126-.996-5.333-1.617-.521-1.563-1.887-1.415-2.535.274" fill="#d3d3d3" fill-rule="evenodd"/></svg>