<svg xmlns="http://www.w3.org/2000/svg" width="500" height="704"><path d="M178.926 3.75c.004 2.063.05 6.562.102 10 .082 5.363-.161 6.266-1.716 6.365-.997.064-2.262.208-2.812.321-.55.112-2.904.566-5.231 1.009-2.327.443-4.745 1.423-5.373 2.18-.627.756-2.323 1.389-3.768 1.407-1.446.017-3.502.692-4.569 1.5-1.068.807-2.723 1.468-3.679 1.468-.955 0-2.466.729-3.356 1.619-.891.891-1.853 1.385-2.139 1.099-.286-.285-3.077.386-6.202 1.493-3.126 1.107-6.808 2.012-8.183 2.011-1.375-.001-3.057.449-3.737 1-.681.551-1.906.745-2.724.431-.817-.313-1.889.15-2.382 1.03-.601 1.075-1.758 1.435-3.526 1.097-1.447-.276-2.631-.151-2.631.279 0 .43-1.463 1.095-3.25 1.477-1.788.382-3.823 1.157-4.524 1.722-.701.565-1.542.759-1.869.432-.327-.327-1.275.085-2.105.915-.83.831-2.127 1.273-2.881.984-.754-.289-1.371-.064-1.371.501 0 .566-.403.779-.895.475-.493-.305-1.173.17-1.512 1.053-.499 1.301-.9 1.372-2.105.372-.818-.679-1.488-.79-1.488-.246 0 .543-2.813 1.993-6.25 3.222-11.541 4.124-24.927 12.168-32.039 19.252-2.147 2.139-1.517 2.115-6.765.263-4.577-1.615-5.897-1.006-5.931 2.734-.008.943-.944 2.212-2.08 2.82-1.596.854-1.809 1.412-.937 2.462.842 1.015.622 5.353-.874 17.181-1.101 8.702-2.548 21.447-3.216 28.322-1.027 10.572-1.594 13.013-3.671 15.827-1.891 2.562-2.311 4.051-1.827 6.474.449 2.246-.001 4.336-1.571 7.296-2.117 3.992-2.15 4.474-.867 12.726 2.105 13.53-.214 38.314-4.347 46.445-2.795 5.5-2.427 9.232.91 9.232 1.265 0 1.447 5.443 1.33 39.75-.139 40.917.611 58.938 2.325 55.875.511-.914.851-2.44.755-3.393-.334-3.304.064-4.232 1.814-4.232.968 0 2.322.9 3.009 2 .962 1.541.972 2 .04 2-.939 0-.941.267-.008 1.2 1.65 1.65 1.513 3.857-.199 3.2-.769-.295-1.683-.077-2.03.485-.359.581 1.106 1.489 3.399 2.107 4.62 1.244 5.34 2.976 1.28 3.076-3.156.077-1.388 1.132 4.25 2.536l3 .747-3.5.702c-3.159.634-3.281.774-1.25 1.441 2.537.834 3.038 2.506.75 2.506-.825 0-1.5.465-1.5 1.032 0 .568-1.013 1.427-2.25 1.909-1.995.777-1.774.957 1.951 1.588 3.93.665 4.166.888 3.653 3.452-.581 2.906-.72 2.866 7.396 2.132.688-.062 1.25-.746 1.25-1.519 0-.956-.721-1.229-2.25-.853-1.305.322-1.9.177-1.417-.343.459-.494 1.246-.954 1.75-1.023 2.352-.321 2.177-.617-1.083-1.831l-3.5-1.303 2.72-.722c3.733-.989 6.221 1.526 5.429 5.487-.328 1.64-.113 3.207.491 3.58.763.472.761.857-.008 1.332-.595.368-1.25 1.774-1.455 3.125-.22 1.444-1.158 2.6-2.276 2.804-1.536.281-1.661.098-.651-.95 1.694-1.758 1.572-2.897-.309-2.897-.857 0-1.305.412-.994.915.311.503.044 1.088-.594 1.301-.808.269-.657 1.154.497 2.915.911 1.391 1.398 2.787 1.082 3.104-.316.316.713.857 2.286 1.203 3.125.686 3.841 2.961 2.251 7.144-.595 1.565-.564 2.418.087 2.418.554 0 .901 1.575.771 3.5s-.481 3.501-.781 3.503c-.3.002-.579 1.554-.619 3.45-.04 1.895.185 3.288.5 3.094.315-.194.7 3.129.855 7.384l.283 7.736h-2.989c-1.713 0-2.727-.422-2.378-.988.368-.594.089-.666-.698-.179-.921.569-1.069.421-.5-.5.535-.865.418-1.068-.343-.597-.634.392-2.495-.08-4.135-1.049-1.639-.969-2.555-2.025-2.034-2.346.52-.322-.905-.659-3.169-.75l-4.116-.164 8.899 5.771c10.751 6.972 11.138 7.446 10.727 13.135-.179 2.475-.508 8.002-.732 12.282-.224 4.28-.689 8.516-1.034 9.414-1.238 3.226-2.036 8.894-1.94 13.764.055 2.729-.456 5.515-1.134 6.193-2.358 2.359-4.852 20.163-4.652 33.214.206 13.478.355 14.133 3.222 14.133 1.894 0 2.579 2.673 2.111 8.25-.214 2.556 2.38 2.138 4.651-.749 1.563-1.987 2.084-2.192 2.541-1 .688 1.792 2.746 2.028 2.388.273-.138-.675.763-1.381 2-1.57 1.238-.189 2.25.138 2.25.726 0 .589-.45 1.07-1 1.07s-.993 1.238-.985 2.75c.011 1.911.276 2.338.87 1.401.6-.946 1.057-.274 1.53 2.25.372 1.979 1.105 3.599 1.63 3.599 1.749 0 .984 1.999-.795 2.079-1.045.047-1.247.282-.5.583 1.514.611 1.687 6.338.191 6.338-.582 0-.793.43-.468.956s1.252.703 2.059.393c.807-.309 1.468-.065 1.468.544 0 1.527-4.715 1.401-5.338-.143-.277-.687-.54-.211-.583 1.059-.051 1.503.324 2.06 1.076 1.596.763-.473.88-.271.345.595s-.418 1.068.345.595c.73-.451 1.155.044 1.155 1.346 0 1.132-.505 2.059-1.122 2.059-.776 0-.738.464.122 1.5 1.02 1.229.951 1.5-.378 1.5-1.639 0-2.142 1.147-1.003 2.286.341.34 1.306-.068 2.145-.908 1.826-1.825 3.8.238 2.141 2.237-.54.65-.769 2.352-.509 3.783.259 1.431.064 2.602-.434 2.602-.497 0-1.327 1.462-1.843 3.25-.751 2.599-.957 2.787-1.029.941-.119-3.061-2.09-1.771-2.09 1.368 0 2.929 3.976 3.61 4.035.691.028-1.358.334-1.213 1.366.651.787 1.42 2.414 2.516 3.983 2.684 1.459.155 2.392-.138 2.075-.651-.317-.514-.1-.934.482-.934S73 549.1 73 548c0-1.129.667-2 1.531-2 .843 0 1.79-.672 2.105-1.494.934-2.434 2.405-.621 2.155 2.657-.13 1.701-1.122 3.668-2.261 4.481-1.901 1.357-1.919 1.513-.274 2.455 1.132.649 1.586 1.788 1.278 3.204-.263 1.208-.723 5.122-1.023 8.697-1.047 12.488-1.148 13.507-1.447 14.5-.596 1.983-.047 9.497.686 9.382 2.509-.397 3.485.351 1.5 1.149-1.237.498-2.25 1.5-2.25 2.229 0 .728-4.844 3.87-10.765 6.982s-12.026 6.974-13.567 8.583l-2.802 2.925 2.652.665c2.733.686 6.48-.026 6.484-1.232.001-.376 1.435-.784 3.186-.907 2.99-.211 3.063-.14 1.191 1.171-1.096.768-3.542 1.796-5.436 2.285-3.108.803-3.511 1.322-4.145 5.329-.385 2.441-1.046 6.014-1.468 7.939l-.766 3.5-.64-4c-.599-3.744-.649-3.632-.782 1.75-.137 5.534-2.059 8.02-3.48 4.5-.277-.687-.504.1-.504 1.75s.227 2.438.504 1.75c1.409-3.492 2.352-.254 2.474 8.5.075 5.362.333 8.723.574 7.469.442-2.305 2.706-2.439 9.54-.564.962.264 1.75-.056 1.75-.71 0-.895.371-.882 1.5.055.825.685 1.5 1.703 1.5 2.262 0 .56.788 1.615 1.75 2.346 1.473 1.118 1.504 1.333.2 1.36-.852.018-1.989-.407-2.525-.943-.634-.634-2.249-.585-4.612.14-2 .614-4.464.76-5.475.325-3.681-1.586-4.447-1.415-3.767.842.516 1.71.39 1.918-.594.982-1.413-1.342-3.965.489-3.992 2.865-.013 1.068-.18 1.061-.875-.036-.523-.824-1.101-.967-1.474-.363-.338.546.056 1.549.875 2.229.819.68 1.489.81 1.489.289 0-1.03 4.936-1.074 6.579-.058.559.345 1.67.215 2.469-.291.798-.505 2.497-.925 3.773-.934 1.277-.008 3.012-.705 3.856-1.549.961-.961 2.318-1.285 3.636-.867 1.156.367 4.372.653 7.145.636 7.673-.049 20.73 2.651 22.205 4.591 1.158 1.522 1.276 1.526 1.305.046.05-2.531 2.414-4.075 3.981-2.598.915.863 1.423.899 1.711.121.225-.607 1.466-.902 2.758-.655 1.291.246 2.653-.045 3.025-.649 1.021-1.651 4.621.579 3.913 2.424-.314.817-.072 1.485.537 1.485 1.767 0 2.626-.444 2.366-1.223-.275-.824 5.515.116 7.657 1.243.779.41 2.801.348 4.493-.137 4.677-1.342 6.307-1.077 6.881 1.117.462 1.768 3.607 2.642 7.806 2.17.327-.037 2.69.563 5.25 1.334 2.56.77 4.654 1.111 4.654.757s.661.23 1.468 1.298c.827 1.093 1.482 1.395 1.5.691.018-.687 1.139-1.25 2.492-1.25 2.922 0 7.095-4.168 8.76-8.75 1.415-3.893 1.433-3.894 10.28-.767 4.312 1.525 9.23 2.483 12.807 2.496 6.677.024 14.504 1.711 16.703 3.6 2.415 2.074 17.115 9.136 21.49 10.324 5.494 1.492 11.912 1.37 15.914-.303 3.584-1.497 20.024-16.222 26.249-23.51 7.002-8.198 6.195-16.355-2.496-25.222l-3.301-3.368 4.634-.871 4.635-.87-.716-4.13c-.394-2.271-.724-4.672-.734-5.336-.01-.664-.665-1.455-1.455-1.758-.791-.304-1.18-1.223-.865-2.043.384-1.002-.056-1.492-1.337-1.492-2.023 0-3.649-1.712-2.611-2.75.339-.339 1.149-.084 1.8.567.65.65 1.88 1.168 2.733 1.15 1.138-.025.922-.557-.811-2L263.778 604h5.151l-2.215-2.315c-1.218-1.272-2.52-2.165-2.895-1.983-.374.182-.963-.127-1.309-.686-.345-.559.272-1.016 1.372-1.016s2.278-.45 2.618-1c.34-.55.141-1-.441-1s-1.059-.884-1.059-1.965c0-1.08-.801-2.394-1.781-2.918-.98-.524-1.854-1.924-1.944-3.111-.134-1.789.089-1.949 1.306-.939 2.425 2.013 2.612.463.587-4.868-1.237-3.256-1.575-5.392-.95-6.017.624-.624.401-1.833-.628-3.405-1.765-2.693-1.274-3.913 1.258-3.124 1.154.359.987-.076-.555-1.445-2.428-2.155-2.068-3.192 1.124-3.238 1.911-.028 1.937-.116.312-1.062-.974-.567-1.479-1.504-1.122-2.081.357-.578.029-1.45-.729-1.939-1.146-.739-1.153-1.033-.038-1.752.812-.525 1.209-2.197 1.007-4.25-.276-2.827-.028-3.334 1.509-3.07 2.116.364 30.519 20.385 35.409 24.96l3.265 3.055-.558-6.666c-.307-3.666-.937-8.465-1.4-10.665-.834-3.961-.843-3.943-.957 1.789-.09 4.507-.392 5.561-1.365 4.757-.687-.568-4.85-3.35-9.25-6.182-4.4-2.833-11.717-7.606-16.26-10.607l-8.261-5.456.412-4.403c.226-2.421-.043-4.683-.597-5.025-.642-.397-.567-.895.206-1.373.753-.465.942-1.607.498-3.007-.499-1.571-.949-1.881-1.482-1.018-.545.881-.964.919-1.45.132-.376-.609-.152-1.107.497-1.107.846 0 .802-.458-.153-1.608-1.134-1.367-1.048-1.818.569-3 1.808-1.323 1.815-1.456.14-2.681-1.883-1.377-1.397-6.711.612-6.711.653 0 .63-.463-.064-1.298-1.237-1.492-1.9-8.302-.904-9.298.367-.367.217-1.508-.333-2.535-.678-1.266-.666-1.869.035-1.869 1.54 0 1.253-2.738-.58-5.535-1.487-2.269-1.487-2.465 0-2.465 2.152 0 2.071-2.611-.107-3.447-1.419-.544-1.475-.813-.32-1.527 1.445-.893 2.38-4.026 1.201-4.026-.365 0-.756-5.474-.868-12.164-.14-8.316-.591-12.403-1.427-12.92-1.619-1.001-2.001-3.897-.526-3.986.639-.039.262-.457-.838-.93-1.71-.735-1.746-.87-.25-.93.962-.038 1.637-.581 1.5-1.207-.369-1.68 4.404-2.713 9.75-2.11 6.761.762 10.601 6.031 9.883 13.562-.271 2.852-.425 5.86-.341 6.685.084.825.142 3.75.13 6.5l-.023 5 1.93-3.712c1.613-3.102 2.421-6.227 2.854-11.038.295-3.287 3.085 1.581 3.604 6.291.093.847.745 3.285 1.449 5.416 1.13 3.423 1.079 4.022-.433 5.128-1.377 1.007-1.494 1.658-.597 3.333 1.694 3.165 3.395 2.586 2.694-.918-.817-4.083.001-3.772 1.875.713.853 2.043 2.279 4.518 3.168 5.5 1.599 1.767 5.293 2.487 5.322 1.037.049-2.36 1.866-3.594 3.409-2.313 1.331 1.105 1.576 1.04 1.576-.422 0-1.145.519-1.53 1.538-1.139.875.336 1.783-.049 2.107-.893.313-.816.971-1.483 1.462-1.483 1.222 0 1.127 4.693-.142 7.066-.649 1.211-.693 2.588-.118 3.684.567 1.082.536 2.705-.079 4.25-.587 1.473-1.19 1.984-1.467 1.244-.26-.691-.905-.989-1.435-.661-.609.376-.587 1.048.06 1.828.562.677 1.126 5.841 1.253 11.475.147 6.587.65 10.488 1.408 10.929.863.502.685 1.598-.666 4.099l-1.846 3.414-1.029-2.708c-.567-1.489-1.312-3.833-1.657-5.208-.856-3.408-2.978-2.402-2.524 1.197 1.149 9.101-.358 11.293-2.706 3.936-1.921-6.02-2.621-5.096-1.232 1.626 1.541 7.459 1.743 8.619 2.58 14.829.408 3.025 1.206 6.625 1.774 8 .567 1.375.933 3.288.812 4.25-.12.962.325 1.75.989 1.75.885 0 1.042 1.801.586 6.75-.341 3.712-.259 6.175.182 5.472 1.182-1.881 3.308 3.3 2.567 6.253-.438 1.745-.051 2.651 1.485 3.473 2.355 1.26.972 5.052-1.843 5.052-1.105 0-1.178.281-.301 1.158.876.876 1.563.821 2.83-.231 1.891-1.569 1.51 1.588-1.155 9.573-.735 2.2-1.649 6.025-2.032 8.5-.383 2.475-1.305 5.388-2.049 6.473-.743 1.084-1.352 2.942-1.352 4.127 0 1.185-.675 2.715-1.5 3.4s-1.5 2.54-1.5 4.122c0 2.531-.362 2.878-3 2.878-1.65 0-3-.52-3-1.155 0-2.154-3.869 2.318-7.953 9.192-2.226 3.747-4.054 7.634-4.062 8.638-.009 1.004-.418 2.46-.91 3.237-.58.917-.399 1.907.516 2.822 1.043 1.043 1.244 2.821.772 6.838-.543 4.621-.395 5.428.999 5.428.901 0 1.638-.337 1.638-.75s1.125-.75 2.5-.75 2.5.563 2.5 1.25c0 4.897 6.962-3.711 10.547-13.042 2.988-7.773 4.449-9.562 4.458-5.458.005 2.131.135 2.091 2.464-.75l2.459-3 .036 4.25c.025 3.003-.573 4.859-2.041 6.327-1.967 1.967-1.98 5.694-.015 4.48.506-.313 1.953 1.121 3.214 3.187s2.649 3.906 3.085 4.089c.436.184.806.859.822 1.5.045 1.798 5.754 7.667 7.457 7.667 2.149 0 1.898-.741-1.236-3.64-1.965-1.819-3.112-4.304-4.019-8.703-2.248-10.908-2.53-12.648-3.074-18.974-.116-1.34-.683-1.651-2.157-1.183-2.846.903-2.481-.248 1.154-3.644 3.603-3.365 2.92-5.067-2.104-5.247-2.028-.072-3.266-.728-3.651-1.934-.886-2.781.139-3.077 4.542-1.315l4.023 1.61 1.666-3.221c1.849-3.577 9.465-12.748 10.586-12.749.394 0-.215 1.579-1.353 3.508-1.139 1.93-1.813 4.181-1.498 5.002.315.821-.538 3.13-1.896 5.131-3.283 4.838-3.146 5.359 1.417 5.359 3.497 0 4.07-.376 5.725-3.75 1.589-3.24 1.885-3.452 2.176-1.555.238 1.549.812 2.013 1.949 1.576 1.265-.485 1.451-.205.864 1.305-.412 1.058-.827 2.354-.924 2.879-.267 1.446 2.683 1.278 3.839-.218.83-1.075 1.897-.989 5.845.474l4.829 1.789 2.308-2.894c1.967-2.467 2.783-2.8 5.514-2.254 2.649.53 3.545.211 5.155-1.836 1.072-1.363 2.466-2.374 3.098-2.247.65.131 1.413-1.612 1.759-4.019.625-4.344-.081-5.131-2.965-3.307-1.006.637-2.312.179-4.326-1.515-1.587-1.336-3.257-2.428-3.71-2.428-.757 0-2.235-17.08-2.437-28.167-.077-4.223-1.461-8.154-1.673-4.75-.048.78-.287 4.792-.53 8.917-.355 6.018-.831 7.771-2.412 8.872-1.217.848-1.97 2.518-1.97 4.372 0 3.549-2.378 2.371-3.395-1.682-.536-2.135-6.671-6.862-9.091-7.004-1.233-.073-1.989-3.558-.771-3.558.489 0 1.911-1.818 3.16-4.041l2.271-4.041-2.837.676c-1.56.372-3.742 1.771-4.848 3.11l-2.011 2.434-2.256-3.052c-2.25-3.043-2.262-3.046-4.239-1.069-2.336 2.336-4.739 2.482-7.424.451-1.693-1.28-1.725-1.468-.25-1.468.93 0 1.703-.337 1.718-.75.015-.413.437-4.989.938-10.171.833-8.606.744-9.634-1.027-11.885-1.917-2.437-2.638-6.194-1.188-6.195.672 0 .737-1.79.361-9.902l-.111-2.403-1.88 2.167c-1.854 2.139-1.886 2.141-2.406.154-.289-1.107-.175-2.23.255-2.496 1.073-.663.991-5.519-.094-5.519-.481 0-.875-.477-.875-1.059s.45-.781 1-.441c.595.368 1-.823 1-2.941 0-1.965.503-3.559 1.122-3.559.776 0 .738-.464-.122-1.5-1.04-1.253-.896-1.5.878-1.5 1.759 0 2.122-.599 2.122-3.5 0-1.925.48-3.5 1.067-3.5s.825-.788.528-1.75c-.297-.962.022-4.45.709-7.75 1.236-5.936.479-11.5-1.564-11.5-.481 0-.622-.798-.312-1.773.309-.975.156-3.19-.341-4.923-.776-2.707-.526-3.572 1.779-6.154l2.682-3.003 1.679 2.926c1.893 3.297 4.28 3.974 3.5.992-.553-2.117 1.833-3.712 2.632-1.759.859 2.098 2.38-1.176 1.915-4.121l-.424-2.685 1.35 2.5c.743 1.375 2.351 2.644 3.575 2.82 1.224.175 2.225.738 2.225 1.25 0 1.44 1.973 1.1 3.714-.641 3.597-3.597 4.236-.26 5.291 27.608.551 14.555 1.189 27.877 1.418 29.605.246 1.858-.227 4.061-1.157 5.389-1.288 1.839-1.349 2.607-.333 4.233.682 1.093 1.395 3.393 1.583 5.112.189 1.718.829 7.591 1.424 13.052.595 5.46 1.302 10.147 1.571 10.416 1.389 1.389 1.869-1.952 1.702-11.846l-.184-10.937 2.236.866c1.229.477 6.036 2.713 10.682 4.97 8.683 4.218 14.527 5.685 10.494 2.635-2.585-1.955-1.094-1.921 2.741.062 2.55 1.319 3.235 1.362 3.96.25 1.508-2.315 2.105-5.768 1.311-7.592-.42-.963-.869-4.002-.998-6.752s-.337-5.45-.463-6c-.126-.55-.139-1.225-.029-1.5 1.284-3.217 1.276-20.361-.013-25.334-3.168-12.229-4.922-15.666-7.992-15.666-2.196 0-2.021 2.485.598 8.5 2.838 6.515 4.323 24.539 3.519 42.703-.114 2.582-14.378-2.66-18.607-6.839-1.745-1.724-4.139-3.442-5.32-3.817-1.182-.375-2.199-.989-2.262-1.364-.521-3.119-.898-9.065-1.822-28.708-1.5-31.923-1.579-30.296 1.436-29.72 1.758.336 2.5.038 2.5-1.006 0-2.267 7.888-7.204 8.59-5.376.623 1.624 2.878 1.559 4.569-.132 2.325-2.325 1.14-13.771-2.164-20.91-1.693-3.658-3.217-8.281-3.386-10.274-.169-1.993-.825-4.592-1.458-5.775-.633-1.183-1.151-3.058-1.151-4.167 0-1.108-.726-2.422-1.614-2.919-.888-.497-1.783-2.357-1.99-4.133-.207-1.777-1.306-5.33-2.442-7.897-2.642-5.968-2.523-28.323.127-24.034.586.948 1.064.631 1.761-1.166.527-1.356 3.418-7.683 6.425-14.059l5.468-11.593 6.883-.65c3.785-.357 9.656-.653 13.047-.657l6.164-.007.57 7.25c.313 3.987 1.273 17.375 2.133 29.75.86 12.375 1.746 23.175 1.968 24 .542 2.013 8.059 71.256 9.445 87 .605 6.875 1.53 16.55 2.056 21.5.526 4.95 1.447 13.661 2.047 19.358.956 9.074.428 20.856-.779 17.392-.68-1.951-2.269-1.467-2.269.691 0 1.068-.449 2.219-.999 2.558-.571.353-.892-.323-.75-1.581.375-3.31-2.079-3.522-2.775-.239-.329 1.552-1.695 6.204-3.037 10.339-2.715 8.369-2.886 9.376-1.439 8.482.608-.376 1.045 1.265 1.116 4.191.064 2.645.323 4.016.576 3.047.253-.969.827-1.535 1.277-1.257 1.048.647 4.138-5.981 7.102-15.231 1.277-3.987 2.616-7.25 2.974-7.25.932 0 1.955 18.827 1.955 35.984v14.672l-8.682 3.422c-4.775 1.882-10.063 3.94-11.75 4.572l-3.068 1.15 2.538.655c1.577.407 4.229-.058 7-1.227 5.663-2.389 13.868-4.656 14.514-4.009 1.041 1.041-.851 3.781-2.61 3.781-8.069 0-14.415 3.52-11.871 6.586.866 1.043.49 1.467-1.733 1.956-5.678 1.25-5.704 1.274-4.087 3.72.961 1.455 2.838 2.42 5.364 2.758 3.745.502 3.786.548 1.135 1.269-2.341.638-2.75 1.275-2.75 4.289 0 1.947.401 3.292.892 2.989 2.516-1.555 33.387-5.229 62.495-7.437 8.787-.666 10.105-1.02 11.854-3.179l1.967-2.43-2.354-.556c-2.014-.477-2.101-.654-.604-1.23 3.756-1.443 1.952-3.732-3-3.805-2.613-.039-5.65-.47-6.75-.958-1.298-.575.283-.709 4.5-.38 7.011.547 8.607.008 9.15-3.087.383-2.186-3.666-3.126-15.15-3.517-6.956-.237-3.236-1.736 4.685-1.888 7.34-.141 12.237-2.271 12.3-5.35.008-.413-1.447-.772-3.235-.798l-3.25-.048 3.487-1.705c6.435-3.147 5.23-5.222-2.67-4.597l-6.817.54 2.235-1.969c1.794-1.581 2.93-1.812 5.755-1.175 4.56 1.028 4.564 1.021 6.645-13.973.956-6.889 2.393-16.125 3.193-20.525.8-4.4 2.711-18.576 4.247-31.502l2.793-23.502 3.309-2.198 3.31-2.197.263 70.699c.145 38.885.262-75.55.26-254.3-.003-297.412-.046-306.121-.507-102.599-.444 196.494-.674 222.082-1.974 219.654-2.692-5.031-18.03-17.888-19.538-16.379-.178.178-1.255 2.687-2.393 5.574-2.568 6.518-.298 7.643 2.522 1.25.971-2.2 2.031-4 2.357-4 1.824 0 13.015 13.216 13.548 16 .903 4.713 1.466 12.907 1.582 23 .191 16.543-.258 20.469-1.141 10-.395-4.675-1.437-13.557-2.316-19.737-.878-6.18-1.353-11.872-1.055-12.65.639-1.665-1.811-2.526-16.095-5.658-5.5-1.205-10.454-2.554-11.01-2.996-.555-.443-2.58-.484-4.5-.092-3.162.645-3.735 1.32-6.094 7.173-2.76 6.848-3.104 7.05-9.507 5.578-2.995-.689-3.135-.574-3.739 3.083-.345 2.089-.633 5.51-.639 7.601-.01 3.341-.384 3.932-3.082 4.873-3.812 1.328-5.014 4.314-4.269 10.601l.576 4.867-5.16 3.707c-2.839 2.039-5.439 4.432-5.778 5.317-1.002 2.61 4.924 19.413 6.625 18.787.783-.288 3.886-.013 6.897.612l5.474 1.137-.676 12.642c-.457 8.558-1.116 13.081-2.037 14.003-.976.975-1.123 2.254-.519 4.507.464 1.73 1.068 6.52 1.344 10.645.7 10.484 2.403 29.994 3.449 39.5.772 7.014.668 8.185-.842 9.5-2.721 2.369-3.429 5.267-1.107 4.53 1.321-.42 2.549.233 4.065 2.161l2.173 2.761-2.322.651c-3.037.851-18.662 2.897-22.124 2.897-3.067 0-3.045.044-1.698-3.5.587-1.544.641-3.327.131-4.315-1.564-3.032-2.401-41.779-.952-44.099 1.068-1.711 1.006-2.24-.386-3.311-1.749-1.346-1.705-.982-7.364-60.275-.89-9.326-6.967-62.873-7.972-70.25-.444-3.253-.251-4.25.821-4.25.771 0 1.922-1.145 2.56-2.543 1.011-2.219.936-2.506-.59-2.25-2.896.486-4.917-8.034-6.693-28.207a5345.294 5345.294 0 00-2.483-27.5c-.976-10.26-.915-10.495 2.737-10.515 4.203-.024 5.176-1.135 10.055-11.485 1.555-3.3 3.572-6.618 4.482-7.372 2.332-1.935 2.125-5.772-.346-6.418-1.438-.376-2-.03-2 1.23 0 .964-.611 3.059-1.359 4.656-.747 1.597-2.885 6.189-4.75 10.203-3.377 7.269-3.406 7.298-7.098 7.041-2.039-.142-4.027.061-4.417.451-.865.865-23.376.958-23.376.096 0-.337 2.275-4.649 5.056-9.582 2.781-4.933 4.882-9.49 4.67-10.127-.423-1.27-5.826 6.663-10.437 15.322l-2.928 5.5-9.931 1.165c-5.461.641-13.08 1.871-16.93 2.733-3.85.862-8.462 1.575-10.25 1.585-3.334.017-4.414 1.633-1.77 2.648.813.312 5.876-.339 11.25-1.446 10.715-2.209 25.27-3.681 25.27-2.556 0 1.996-6.427 14.299-6.992 13.384-1.073-1.736-6.008 3.553-6.008 6.439 0 1.402-.499 2.548-1.108 2.548-.683 0-.868.96-.481 2.5.345 1.375.2 2.5-.322 2.5-.523 0-1.104 1.012-1.293 2.25-.216 1.414-.892 2.098-1.82 1.841-3.776-1.046-32.132-1.847-34.976-.988-.825.249-2.057.801-2.739 1.227-.681.426-3.199 1.014-5.596 1.308l-4.357.533.833-5.835c.459-3.21 2.17-11.424 3.802-18.253 1.633-6.829 2.756-12.761 2.497-13.181-.26-.42-.015-1.046.544-1.392 1.507-.932 1.231-2.177-.484-2.177-.825 0-1.5.128-1.5.285 0 .156-.702 2.894-1.559 6.083-.857 3.19-3.122 11.866-5.033 19.282-1.911 7.416-3.831 13.84-4.267 14.276-1.657 1.657-24.433 1.724-25.638.076-1.189-1.626.995-13.258 2.707-14.415.472-.319.571-1.328.219-2.243-.351-.915.22-3.354 1.269-5.42 1.048-2.067 2.483-5.782 3.187-8.257.705-2.475 1.975-6.975 2.822-10 .848-3.025 1.936-6.281 2.417-7.236.482-.955.876-2.279.876-2.942 0-1.734-2.929 2.383-2.972 4.178-.02.825-1.103 3.602-2.406 6.17-1.303 2.569-2.663 6.236-3.022 8.149-.359 1.914-1.315 4.806-2.123 6.427-.809 1.621-1.967 5.379-2.575 8.351-1.018 4.984-2.579 12.009-3.199 14.403-.662 2.552-1.905 3.202-5.392 2.818-2.056-.227-3.853-.527-3.994-.668-.548-.548-.389-6.292.246-8.9.369-1.512.28-2.755-.196-2.76-.477-.006-.964-4.168-1.082-9.25-.119-5.082-.697-12.354-1.286-16.159-.804-5.2-.779-7.099.101-7.643.869-.537.892-1.523.087-3.831-.596-1.709-.818-3.107-.495-3.107 1.388 0 3.247 3.742 3.276 6.595.019 1.793.874 3.857 2.032 4.905 1.1.995 2 1.429 2 .964 0-.466.712.027 1.582 1.095 1.35 1.657 1.501 1.685 1.031.191-.669-2.129 1.215-2.362 2.025-.25.537 1.399 3.362 2.184 3.362.934 0-2.109-2.214-4.191-3.969-3.732-1.508.394-2.258-.169-3.071-2.306-.877-2.308-1.262-2.559-2.092-1.362-.737 1.062-.857.489-.436-2.081.506-3.083.148-3.968-2.741-6.767-1.827-1.772-3.628-2.915-4.002-2.541-.374.373-1.176-.744-1.782-2.483-.607-1.739-1.478-3.162-1.937-3.162-.46 0-1.121-.9-1.47-2s-1.04-2-1.536-2-.622.727-.281 1.615c.493 1.285.179 1.476-1.532.933-1.429-.454-2.151-.257-2.151.585 0 .936-.293.974-1.122.145-.617-.617-1.738-.885-2.491-.596-.754.289-1.647-.196-1.986-1.078-.66-1.721-5.401-2.262-5.401-.617 0 .921 7.243 6.013 8.552 6.013 1.492 0 3.579 3.216 3.024 4.662-.552 1.438-.802 1.45-2.347.105-2.057-1.792-3.826-1.304-6.759 1.86-1.193 1.287-2.462 2.048-2.82 1.69-.357-.358-.702.437-.766 1.766-.084 1.751-.244 1.925-.58.634-.418-1.608-.64-1.559-2.252.5-2.534 3.235-4.072 11.466-4.63 24.783-.265 6.325-.724 12.287-1.019 13.25-.304.987-.019 1.75.652 1.75.887 0 .868.388-.075 1.524-.696.838-.98 1.81-.631 2.158.348.349.132 1.238-.48 1.976-.613.738-.834 1.342-.491 1.342.342 0-.301.923-1.429 2.051-1.324 1.324-2.742 1.832-4 1.433-2.394-.76-2.573-2.484-.258-2.484 1.475 0 1.443-.188-.25-1.468-1.345-1.018-1.51-1.478-.538-1.5.917-.021.605-.724-.903-2.032-2.636-2.286-4.832-2.707-3.074-.589 1.579 1.902-.485 3.2-2.47 1.553-1.944-1.614-1.911-4.352.044-3.602 3.028 1.162 1.347-.955-3.464-4.362-2.718-1.925-4.963-3.822-4.989-4.215-.107-1.626-4.159-2.937-5.539-1.792-1.511 1.255-6.095-.586-8.411-3.376-1.071-1.291-.883-1.486 1.268-1.316 3.169.25 3.951-1.685.859-2.124-1.252-.178-5.527-3.465-9.5-7.306l-7.224-6.982 5 .595c8.738 1.042 12.155.871 14.427-.721 1.611-1.127 1.854-1.707.893-2.127-.77-.337-.564-.486.494-.357 2.144.261 12.889-14.303 17.644-23.915 2.89-5.843 3.238-6.162 7.289-6.682 5.219-.67 15.998-.267 17.488.654.602.372 1.327.111 1.612-.58.317-.767.785-.379 1.202.994.768 2.525 1.978 2.925 2.751.911.294-.767-.728-2.074-2.393-3.057-1.779-1.051-2.907-1.284-2.907-.602 0 .614-.498.808-1.107.432-.684-.423-.738-.923-.141-1.309.53-.344.843-1.413.695-2.375-.155-1.003.365-1.75 1.217-1.75 3.215 0 18.336-9.816 18.336-11.903 0-2.083-11.912-6.227-15.25-5.304-.413.114-.75-.201-.75-.699 0-.499-.869-.68-1.931-.402-1.148.3-1.713 1.073-1.393 1.907.377.981-.244 1.401-2.069 1.401-1.434 0-2.607.477-2.607 1.059s.526.734 1.17.336c.787-.486.961-.178.531.941-.442 1.152-.109 1.669 1.08 1.679 1.192.01.493 1.071-2.281 3.462-2.2 1.896-3.528 3.465-2.95 3.485.577.021 1.514-.426 2.08-.992.637-.637 1.921-.702 3.357-.171 2.301.852 2.287.89-1.304 3.629-3.185 2.429-3.809 2.589-5.092 1.306-1.129-1.129-1.192-1.738-.277-2.669.923-.939.588-1.059-1.51-.541-1.77.437-3.477.118-4.972-.929-1.74-1.219-4.803-1.595-12.995-1.595-5.896 0-10.983-.427-11.306-.95-.681-1.102 2.895-3.291 3.838-2.348.347.347.631.08.631-.594 0-.674.36-1.004.8-.732.439.272 4.602-2.427 9.25-5.998 4.647-3.57 12.451-8.756 17.341-11.524l8.89-5.032 9.688 9.839c5.328 5.411 12.457 12.314 15.842 15.339 3.385 3.025 9.349 8.466 13.254 12.092l7.1 6.591-3.083 2.594c-5.424 4.565-4.27 5.85 2.037 2.268 5.05-2.869 8.401-1.464 7.269 3.047-.509 2.027-.241 2.286 2.191 2.109 2.116-.153 3.291.557 4.967 3.004 1.917 2.8 2.418 3.042 3.966 1.91 1.644-1.202 1.501-1.595-1.987-5.455-2.067-2.288-3.157-4.16-2.423-4.16s2.254-1.012 3.378-2.25 6.863-6.936 12.754-12.662c10.365-10.077 10.741-10.335 11.675-8l.964 2.412.064-2.349c.049-1.847 2.358-8.167 3.643-9.972.126-.176 3.358.611 7.182 1.75 10.606 3.159 10.557 3.177 14.701-5.554 3.934-8.288 5.622-9.339 3.109-1.935-2.138 6.298-2.138 10.251 0 6.31 1.994-3.675 3.77-3.537 3.215.25-.242 1.65-.098 3 .32 3 .418 0 .903-1.238 1.077-2.75.186-1.621.932-2.761 1.816-2.776.825-.015 2.031-.36 2.681-.767.649-.407 1.482-.253 1.849.342.446.722 1.292.517 2.544-.616 1.831-1.657 1.827-1.764-.169-4.566-1.52-2.135-2.605-2.729-4.234-2.321-2.569.645-7.098-3.002-6.029-4.856 3.402-5.903 4.276-6.51 8.608-5.978 2.338.287 5.247 1.144 6.465 1.905 1.256.785 4.856 1.383 8.321 1.383 4.095 0 6.601.494 7.607 1.5 3.634 3.634 7.837 1.067 8.28-5.057.043-.581 1.215-1.481 2.606-2l2.528-.943-2.778-2.791c-5.076-5.098-14.351-9.952-20.012-10.473-10.182-.936-5.5-1.96 21.983-4.812l4.75-.493.037 6.785c.044 8.003 2.646 40.582 3.555 44.503.346 1.496 1.255 3.239 2.019 3.873 2.387 1.981 2.017-4.93-2.517-47.092-.444-4.125-.62-7.837-.391-8.25.906-1.637 1.998-.573 3.078 3l1.134 3.75-.404-4c-.222-2.2-.714-8.387-1.094-13.75l-.691-9.75h4.259c3.595 0 4.073-.225 3.064-1.441-.657-.792-2.384-1.579-3.837-1.75-2.104-.246-2.78-.996-3.327-3.69-.729-3.595-.251-22.087.594-22.931.718-.718 8.721 2.908 10.629 4.816 3.271 3.27 2.694 15.367-.797 16.707-1.59.61-1.756 3.289-.204 3.289.612 0 .828.728.483 1.627-1.351 3.52 4.343 5.338 10.261 3.275 3.698-1.289 3.87-2.568 1.081-8.036-1.138-2.23-1.946-5.481-1.796-7.225.15-1.743-.072-3.729-.495-4.412-.462-.748-.145-1.482.796-1.843 1.114-.428 1.596-2.078 1.679-5.743.064-2.829.322-4.356.573-3.393.252.963.875 1.75 1.384 1.75 1.379 0 1.121-1.594-.47-2.914-1.412-1.173-1.051-5.071.571-6.152 1.525-1.017-1.643-7.985-4.205-9.25-1.358-.671-2.916-2.232-3.463-3.469-.707-1.597-2.671-2.719-6.778-3.871-3.18-.893-5.947-1.898-6.148-2.233-.454-.757 5.968-57.571 6.935-61.361.445-1.742.304-2.75-.384-2.75-1.625 0-3.903 4.043-4.505 8-1.035 6.786-3.745 27.555-4.176 32-1.015 10.46-2.48 22.363-2.791 22.674-.184.184-1.758-.161-3.497-.767-3.157-1.101-3.162-1.114-3.126-8.255.032-6.52.783-15.976 2.552-32.152.611-5.583.54-5.89-1.015-4.415-2.239 2.123-5.109 20.564-3.502 22.5.81.977.813 2.238.009 4.674-.606 1.834-1.434 5.865-1.841 8.956l-.739 5.621-8.5-3.377c-4.675-1.858-10.214-3.396-12.309-3.419-2.383-.025-3.568-.431-3.164-1.084.355-.574.095-1.707-.578-2.518-.673-.811-1.306-2.253-1.407-3.206-.101-.953-.441-2.407-.757-3.232-4.548-11.898-5.224-16.881-3.29-24.25.671-2.557.507-2.75-2.328-2.75-3.651 0-4.594-1.272-4.636-6.249-.026-3.198.29-3.75 2.154-3.75 3.851-.001 7.315-1.845 7.315-3.894 0-3.743-.96-4.766-4.048-4.313-4.621.678-9.337-4.958-9.166-10.955.061-2.146-.319-2.622-1.855-2.326-1.373.265-1.931-.189-1.931-1.57 0-1.069.45-1.943 1-1.943s1-.666 1-1.481c0-.814 1.125-1.763 2.5-2.108 1.375-.345 2.5-1.077 2.5-1.626 0-.55.706-.728 1.569-.397 1.174.451 1.489.057 1.25-1.565-.467-3.17-2.414-3.319-5.324-.409-2.98 2.98-6.653 1.906-5.717-1.673.28-1.07.098-2.237-.405-2.593-1.441-1.022-3.373-6.002-3.373-8.695 0-1.349-.337-2.487-.75-2.53-.413-.042-1.56-.23-2.549-.418-1.193-.227-1.744.22-1.635 1.326.661 6.715-.095 9.957-2.316 9.929-1.238-.016-3.741.591-5.563 1.348-3.132 1.303-3.414 1.242-5.193-1.115-3.1-4.108-4.086-9.904-2.864-16.843 1.185-6.726 1.871-7.171 7.219-4.685 1.733.805 6.976 2.658 11.651 4.116 10.935 3.412 15.925 5.976 24.984 12.839 4.051 3.069 7.784 5.58 8.297 5.58.512 0 1.734 1.012 2.716 2.25.982 1.237 5.875 4.95 10.873 8.25 4.999 3.3 9.098 6.301 9.109 6.668.012.367-3.691 1.896-8.229 3.397-4.538 1.5-8.846 2.948-9.575 3.217-.755.279-1.208-.106-1.054-.896.378-1.931-1.069-5.886-2.153-5.886-.494 0-1.416.968-2.049 2.152-.988 1.846-.916 2.061.507 1.515 1.43-.549 1.564-.122.972 3.098-.739 4.02-1.93 5.352-4.057 4.535-.86-.329-1.341.242-1.341 1.593 0 3.04 2.123 2.745 17.219-2.393 7.271-2.475 13.402-4.5 13.623-4.5 1.64 0-3.463 3.838-9.527 7.166-4.023 2.208-7.315 4.656-7.315 5.439 0 2.21-6.08 5.387-10.317 5.391-3.493.004-3.76.195-3.138 2.254.374 1.238.967 2.557 1.317 2.932.766.818 12.119-4.858 15.366-7.682 1.265-1.1 3.531-2.639 5.036-3.419 1.505-.78 2.736-1.715 2.736-2.078 0-.362 2.036-.686 4.524-.72 7.776-.104 15.023-3.983 13.923-7.451-.399-1.258-.078-1.832 1.026-1.832 1.613 0 7.736-3.845 8.36-5.25.184-.412 1.534-.75 3-.75 2.194 0 2.667-.454 2.667-2.556v-2.555l-8.702.681c-8.64.676-8.722.66-11.58-2.195C407.805 98.967 401.636 95 399.196 95c-2.858 0-2.775 1.107.3 3.996 3.536 3.322 2.402 3.596-2.382.576-2.241-1.415-4.496-2.572-5.011-2.572-.515 0-1.086-.359-1.27-.797-.183-.439-3.708-3.146-7.833-6.015-11.407-7.937-11.536-8.052-10.309-9.279.778-.778 1.273-.777 1.755.004 2.121 3.431 5.411-1.942 3.443-5.621-1.603-2.995 1.109-8.999 4.919-10.889 2.05-1.017 2.14-1.312.809-2.643-1.395-1.395-1.217-5.474.295-6.76 1.184-1.007 3.088-5.015 3.088-6.5 0-.84.563-2.48 1.25-3.644.962-1.63.974-2.217.052-2.553-1.351-.491.336-5.303 1.859-5.303.461 0 .839-.444.839-.987 0-1.102-8.849-.842-10.722.315-1.329.821-19.253.48-19.268-.367-.006-.297-1.204-.522-2.662-.5-1.459.021-2.868-.586-3.13-1.35-.291-.846-.036-1.116.652-.691.622.384 1.13.221 1.13-.361 0-1.388-2.728-1.374-3.192.016-.224.673-1.458.8-3.297.338-2.571-.645-2.693-.825-.975-1.44 1.258-.451.42-.668-2.332-.604-4.525.105-6.463-1.413-5.464-4.278.45-1.292.301-1.356-.793-.341-1.874 1.739-2.631 1.567-3.233-.734-.425-1.625-1.26-1.942-4.611-1.75-2.251.129-4.095.571-4.098.984-.012 1.753-2.821.563-3.338-1.414-.417-1.596-.907-1.901-1.866-1.159-.721.557-2.415.675-3.801.264-1.375-.408-1.825-.8-1-.872 2.835-.246-1.691-2.118-5.463-2.26-2.194-.083-3.537-.634-3.537-1.452 0-2.383-9.577-3.114-11.235-.857-.404.55-.741-.021-.75-1.269-.013-1.919-.401-2.172-2.515-1.642-1.436.361-2.5.196-2.5-.387 0-.558-.97-.761-2.156-.451-1.478.387-1.932.2-1.441-.593.44-.713.02-1.164-1.094-1.173-.995-.008-3.609-.699-5.809-1.536-2.2-.836-4.788-1.782-5.75-2.102-.962-.319-1.75-.964-1.75-1.432 0-.469-.693-.586-1.541-.261-.974.374-1.434.094-1.25-.762.197-.914-1.332-1.633-4.709-2.216-2.75-.475-6.125-1.345-7.5-1.933-4.305-1.841-31.333-2.052-30.637-.239 1.071 2.791-.38 4.542-3.22 3.886-3.851-.89-11.595-.847-13.083.073-.758.469-1.641.229-2.156-.585-.566-.893-.879-.962-.889-.195-.019 1.496-6.009 1.411-6.03-.085-.009-.633-.367-.544-.846.212-1.497 2.359-15.533.129-20.33-3.231-3.306-2.316-3.891-1.988-3.883 2.171M1.191 331.083c.104 167.43.479 277.867.831 245.417.699-64.34.213-548.598-.551-549.363-.259-.259-.385 136.517-.28 303.946M346.154 45.68c-.764.818-2.723 1.109-5.425.805-13.462-1.512-14.34-1.537-11.729-.337 1.375.632 3.118 1.276 3.873 1.43 2.958.605 7.127 2.713 7.127 3.602 0 .516.5.629 1.112.251.611-.378 1.469-.108 1.907.599.927 1.501 13.839 4.962 15.76 4.225.718-.276 1.151-.965.962-1.532-.189-.566.719-2.092 2.016-3.389 2.089-2.089 2.189-2.531.873-3.847-2.165-2.165-3.51-1.821-2.986.763l.456 2.25-1.672-2.25c-.92-1.237-2.292-2.25-3.05-2.25S354 45.64 354 45.2c0-1.308-6.549-.908-7.846.48m-88.654 1.9c-31.935 4.405-34.112 4.962-49.179 12.582-7.586 3.837-13.923 7.107-14.084 7.268-.161.161 4.961.37 11.383.464 6.422.094 12.064.411 12.538.703 2.106 1.302 51.996.206 71.342-1.567 5.5-.504 14.883-.925 20.851-.935 10.873-.018 14.047-.895 13.011-3.595-.365-.95.079-1.197 1.49-.829 1.125.295 1.79 1.099 1.511 1.826-.782 2.038.931 2.544 10.353 3.058 8.351.456 8.641.404 5.885-1.056-1.594-.844-3.114-1.32-3.377-1.057-.262.263-1.748-.179-3.301-.982-1.553-.803-3.859-1.467-5.123-1.475-1.265-.009-2.975-.485-3.8-1.059-1.088-.758-.3-.861 2.869-.377 3.25.496 4.264.351 3.958-.567-.5-1.501-10.648-4.819-16.827-5.501-2.475-.274-6.075-.764-8-1.091l-6-1.017c-1.375-.232-4.75-.854-7.5-1.381l-10.287-1.973c-6.054-1.161-23.253-2.054-27.713-1.439m50 22.945a703.45 703.45 0 00-10.5 2.957c-3.025.881-6.823 1.654-8.439 1.718-1.617.063-4.092.716-5.5 1.451-1.409.735-3.113 1.339-3.787 1.343-1.921.009-7.345 3.602-6.585 4.361.374.375-1.09 2.505-3.254 4.734-3.864 3.978-3.885 4.039-1.153 3.365 10.056-2.483 7.989.492-3.829 5.512-6.53 2.773-12.777 6.296-16.484 9.295-6.418 5.193-7.262 6.726-3.719 6.761 4.226.041 11.008 3.993 15.855 9.238 5.555 6.013 6.36 5.607 1.713-.864-2.412-3.359-2.902-4.712-2.024-5.59.878-.878 1.588-.8 2.932.322.976.814 4.474 3.758 7.774 6.541 5.558 4.687 11.656 8.011 10.111 5.51-.958-1.55 3.263-2.528 4.932-1.143.796.661 1.976 3.06 2.621 5.333.645 2.272 1.547 4.558 2.005 5.081.457.522.831 2.38.831 4.128 0 1.747.675 3.737 1.5 4.422.825.685 1.507 1.977 1.515 2.872.014 1.421.146 1.438 1.042.128.912-1.333 1-1.333.792 0-.13.825 2.366 4.059 5.546 7.186 4.264 4.194 5.624 6.179 5.184 7.567-.399 1.255.256 2.683 1.969 4.292 1.411 1.326 3.976 4.896 5.7 7.933 1.724 3.037 3.498 5.672 3.943 5.855.445.184.809.934.809 1.667s.563 1.568 1.25 1.854c.902.375.746.929-.559 1.987-3.594 2.912 2.246 20.17 6.033 17.83 1.752-1.083 2.788-20.849 1.193-22.771-.895-1.078-.959-1.758-.21-2.226 1.398-.874 2.622-13.053 1.46-14.538-1.309-1.671-2.199-8.636-1.104-8.636.515 0 .937-3.177.937-7.059 0-7.312-1.88-9.193-2.131-2.132-.097 2.738-.328 2.143-.893-2.3-.682-5.359-1.205-6.385-4.95-9.708-3.188-2.829-4.035-4.197-3.548-5.731.808-2.547 4.274-.793 4.731 2.395.198 1.388 1.007 2.01 2.541 1.956 1.696-.06 2.25.479 2.25 2.191 0 1.248.447 2.546.993 2.884 2.092 1.292.374-23.211-1.877-26.772-1.121-1.773-2.973-4.927-4.116-7.009-2.381-4.339-3.647-4.115-4.571.811-.357 1.901-1.049 3.209-1.539 2.906-1.561-.964-.963-6.784 1.589-15.483 1.363-4.647 2.488-9.529 2.5-10.849.021-2.385-4.903-13.178-5.938-13.015-.298.047-2.791.695-5.541 1.44m-148.115 4.921c-5.013 2.37-9.427 4.814-9.809 5.431-.834 1.35-4.576 1.51-4.576.196 0-.511 1.194-1.867 2.653-3.014 1.459-1.148 2.393-2.347 2.075-2.664-.859-.859-4.84.614-4.248 1.572.28.453-.201 1.096-1.068 1.428-2.405.923-2.935.728-1.612-.595 1.664-1.664 1.502-2.853-.294-2.164-.822.316-1.246.976-.941 1.469.304.492.076.895-.506.895S140 77.55 140 77s-.45-1-1-1-1 1.125-1 2.5c0 1.556-.567 2.5-1.5 2.5-.825 0-1.5.45-1.5 1s-.502 1-1.115 1c-.681 0-.477-.974.523-2.5 1.829-2.792 1.081-3.184-1.849-.968-1.068.807-2.755 1.468-3.75 1.468-2.008 0-2.419 1.505-.702 2.566 1.82 1.125-1.009 2.275-4.316 1.754-2.348-.37-3.05-.046-3.482 1.608-.411 1.57-1.345 2.072-3.856 2.072-2.583 0-3.384.457-3.633 2.071-.176 1.14-1.664 2.827-3.307 3.75-1.643.924-3.547 2.354-4.231 3.179-1.093 1.318-1.361 1.321-2.209.028-.829-1.264-1.059-1.229-1.626.25-.364.947-1.052 1.722-1.529 1.722-.478 0-.441-1.125.082-2.5 1.111-2.923.099-3.264-2.092-.706-2.453 2.865-2.936 4.981-1.281 5.616 2.368.909.693 2.374-2.103 1.839-1.388-.265-2.525-.092-2.526.384-.002.477-1.292.912-2.867.967-2.209.077-2.765-.283-2.429-1.57.508-1.94-2.126-4.504-3.655-3.559-.684.423-.49 1.705.569 3.754 2.042 3.949 1.31 10.004-2.063 17.05-1.358 2.837-2.135 5.399-1.726 5.692.408.293.715 1.433.682 2.533-.033 1.1.268 2.719.669 3.597.401.878.375 2.003-.056 2.5C80.241 136.61 78 144.06 78 145.973c0 .692.663.986 1.5.665 1.15-.441 1.5.209 1.5 2.786 0 2.066-.578 3.584-1.5 3.938-.825.316-1.5 1.264-1.5 2.107 0 1.797.477 1.881 3.005.528 1.336-.715 2.094-.646 2.642.24.524.848.988.452 1.461-1.247.643-2.312.7-2.262.792.701.099 3.149-1.913 5.771-2.674 3.486-.752-2.255-3.226-1.223-3.226 1.347 0 2.29.323 2.488 3.5 2.137 3.883-.427 3.946-.363 2.439 2.454-.759 1.416-.731 2.984.095 5.487 1.629 4.936.577 8.398-2.553 8.398-1.365 0-2.481.45-2.481 1s.402 1 .893 1c1.452 0 2.227 3.15 1.107 4.5-.569.686-.767 1.944-.44 2.797.37.963-.191 1.97-1.482 2.661-1.143.612-2.064 1.884-2.048 2.827.029 1.598.1 1.596 1.05-.035 1.746-2.997 3.229-2.041 2.623 1.691-.43 2.654-.245 3.32.812 2.915 1.119-.43 1.181.159.34 3.208-.567 2.053-.827 4.803-.577 6.11.373 1.952.122 2.27-1.412 1.783-2.049-.65-2.631 1.09-.616 1.845.866.325.636.955-.75 2.051-1.968 1.558-1.961 1.584.45 1.615 1.906.025 2.183.299 1.25 1.232-.66.66-1.2 2.208-1.2 3.441 0 1.233-.45 2.519-1 2.859-1.793 1.108-1.052 2.747 1 2.21 1.265-.331 2-.03 2 .817 0 .884-.851 1.186-2.5.887-1.402-.254-2.5.021-2.5.625 0 .594.45.801 1 .461.974-.602 1.262 1.12 1.423 8.5.057 2.587.468 3.403 1.577 3.128 5.001-1.24 5.233-1.123 2 1.011-1.925 1.271-3.642 2.634-3.815 3.03-.173.395-.848.514-1.5.263-1.461-.56-4.09 5.071-3.313 7.096.311.81.129 1.472-.403 1.472-.533 0-.969-.45-.969-1s-.9-.1-2 1c-3.036 3.036-3.728 2.471-3.855-3.152-.064-2.834-.344-5.38-.622-5.658-.278-.278-.009-1.104.598-1.835 1.398-1.685.423-4.355-1.59-4.355-1.73 0-2.09 1.647-.477 2.185.718.239.738 1.141.063 2.833-.545 1.365-1.022 1.807-1.06.982-.04-.873-.626-.433-1.4 1.05-1.691 3.24-2.898 12.95-1.61 12.95.524 0 .953.675.953 1.5s.45 1.5 1 1.5 1-.34 1-.756 1.463-1.375 3.25-2.132c1.787-.757 3.796-2.054 4.462-2.884 1.077-1.338 1.498-1.321 3.75.155C79.023 256.061 79.847 258 78 258c-1.608 0-1.149 2.729.569 3.388 1.043.4 1.355 1.275.933 2.607-.366 1.152-.183 2.005.431 2.005.587 0 1.067.661 1.067 1.469 0 .892-.587 1.243-1.494.895-.822-.316-1.202-1.047-.844-1.626.41-.664-.123-.851-1.441-.506-2.541.664-3.199-.75-3.284-7.064-.051-3.712-.244-4.221-.944-2.484-.484 1.201-.862 4.504-.84 7.341.035 4.482.278 5.095 1.857 4.683 1.241-.325 1.999.201 2.39 1.658.887 3.304.709 4.143-.6 2.834-1.888-1.888-2.399-1.482-3.731 2.964-.923 3.08-1.481 3.796-2.143 2.75-.738-1.166-.898-1.126-.911.229-.008.904.693 1.915 1.559 2.247 1.433.55 1.433.746 0 2.179-1.889 1.888-1.956 2.649-.374 4.231.765.765.814 1.2.134 1.2-.697 0-.814 1.373-.339 3.973.4 2.185.489 4.21.199 4.5-1.102 1.101-3.194.464-3.194-.973 0-.825-.73-1.5-1.622-1.5-1.343 0-1.404.264-.353 1.53 1.027 1.238 1.018 2.048-.051 4.25-.726 1.496-1.23 3.249-1.12 3.895.109.646-.263 1.46-.827 1.809-.565.349-1.027 1.71-1.027 3.025 0 1.316-.788 2.891-1.75 3.502-1.483.941-1.33 1.046 1 .689 1.513-.233 2.75-.049 2.75.407 0 .456-1.237 1.5-2.75 2.321-1.512.821-2.213 1.51-1.556 1.532 2.723.091-.395 12.04-3.141 12.04-.771 0-1.229.769-1.041 1.75.184.963.38 1.75.436 1.75.055 0 .334 3.375.62 7.5.424 6.124.983 12.235 1.368 14.95.301 2.12 2.286-2.692 2.704-6.555.291-2.692.893-5.029 1.338-5.193.446-.164.581-1.171.302-2.238-.316-1.21.1-2.173 1.107-2.559.887-.34 1.613-1.641 1.613-2.89s.703-3.954 1.563-6.011l1.562-3.739 1.808 3.367c.995 1.853 1.593 3.932 1.33 4.62-.263.689-.154 2.489.244 4 .671 2.554.785 2.607 1.617.748.619-1.384.778-.331.516 3.418-.259 3.702-.938 5.827-2.145 6.709-1.648 1.205-1.603 1.367.661 2.398 2.254 1.027 3.754 4.975 1.89 4.975-.823 0-2.525 4.812-2.21 6.25.09.413-.376.75-1.036.75-.933 0-.933.267 0 1.2 1.451 1.451 1.6 3.165.2 2.3-1.183-.731-1.183.248 0 3 .473 1.1.891 1.438.93.75.038-.687.717-1.25 1.507-1.25 1.086 0 1.297.861.866 3.52-.492 3.034-.334 3.429 1.145 2.862 1.521-.584 1.639-.146 1.038 3.861-.4 2.67-.273 4.771.312 5.132 1.128.697 2.57-3.971 1.674-5.421-.325-.525-.146-.954.397-.954s1.222-2.363 1.509-5.25c1.332-13.399 2.714-28.918 3.184-35.75.284-4.125.703-9.075.93-11 1.243-10.504 2.621-27.619 3.543-44 .573-10.175 1.832-24.603 2.798-32.063 1.694-13.079 1.691-13.703-.075-17.5-2.956-6.355-.461-21.648 4.41-27.037 1.686-1.864 1.728-2.242.376-3.363-2.088-1.733-1.295-2.627 5.279-5.958 6.736-3.413 18.068-12.056 18.132-13.829.025-.687.586-1.137 1.248-1 .662.138 1.225-.432 1.25-1.266.059-1.916 6.46-11.984 7.62-11.984.475 0 .597-.697.27-1.548-.34-.887.176-2.111 1.209-2.866 1.723-1.261 1.705-1.486-.426-5.097-1.226-2.078-1.995-4.388-1.709-5.134.317-.825-.171-1.355-1.249-1.355-1.616 0-6.168-7.4-6.168-10.027 0-2.545 4.704-.819 6.207 2.277.868 1.787 3.04 5.246 4.827 7.686l3.249 4.437 2.31-2.687c1.271-1.477 2.783-2.686 3.359-2.686 1.302 0 1.377-1.679.109-2.462-.516-.319-1.402.217-1.969 1.191-.567.974-1.082 1.321-1.145.771-.621-5.463-.61-5.5 1.72-5.5 1.283 0 2.333.402 2.333.893 0 3.903 9.633-.579 20.261-9.427.969-.806 2.001-1.466 2.293-1.466 1.36 0 11.446-8.209 11.446-9.315 0-.757 1.288-1.234 3.25-1.205 3.467.052 9.75-2.311 9.75-3.665 0-.448.563-.831 1.25-.851 1.701-.049 7.585-4.953 5.95-4.959-.714-.003-2.739.767-4.5 1.71-2.789 1.496-10.783 4.113-12.95 4.241-4.222.248 9.226-8.325 22.666-14.449 4.279-1.95 9.785-4.925 12.235-6.611 8.327-5.729 19.925-10.815 40.45-17.737 11.265-3.8 22.713-8.069 25.441-9.487l4.958-2.579-3.5-.041c-1.925-.022-6.2.441-9.5 1.03-6.612 1.179-43.407 2.082-45 1.105-.55-.338-10.225-.688-21.5-.779-20.247-.163-20.556-.134-25 2.374-6.207 3.502-20.471 12.836-26.5 17.342C149.037 95.459 132.725 105 131.486 105c-1.894 0 .288-3.899 4.264-7.62C140.449 92.982 163.19 77 164.748 77c.444 0 1.578-.9 2.52-2s2.392-2 3.222-2c.831 0 1.51-.45 1.51-1 0-1.834-3.419-.9-12.615 3.446m228.916.212c-.312.812-.081 1.962.512 2.555 1.775 1.775 11.475 4.83 13.399 4.22 1.156-.367 1.788-.055 1.788.883 0 2.156-3.915 2.779-7.104 1.13-1.538-.795-3.671-1.446-4.739-1.446-1.069 0-2.202-.675-2.519-1.5-.673-1.756-3.217-1.99-4.207-.388-.731 1.183 1.475 3.064 2.703 2.305.401-.248 1.322.392 2.048 1.422.725 1.03 3.343 2.889 5.818 4.131 2.475 1.242 5.932 3.332 7.683 4.644 3.973 2.978 4.317 2.97 4.317-.091 0-1.529-.943-3.095-2.463-4.091l-2.463-1.613 2.163-2.926 2.163-2.925-2.418-1.734c-5.443-3.903-15.844-6.757-16.681-4.576M237.364 99.454c-5.575 1.881-11.868 4.348-13.985 5.483-2.117 1.135-4.363 2.063-4.992 2.063-.628 0-1.646.607-2.262 1.349-.615.742-3.933 2.79-7.372 4.551-16.315 8.355-13.578 9.793 3.342 1.756 7.373-3.502 15.205-6.944 17.405-7.65 4.67-1.497 16.109-7.152 19-9.392 3.184-2.468.143-1.965-11.136 1.84m-27.066 21.663c-9.789 5.014-18.8 9.626-20.024 10.25-4.007 2.039-4.72 5.727-2.226 11.522 1.209 2.811 2.426 5.111 2.704 5.111.563 0 6.159-4.815 13.776-11.853 2.766-2.556 8.15-7.347 11.966-10.647 19.163-16.574 18.508-17.037-6.196-4.383m31.016 4.258c.366.953-.126 1.748-1.314 2.125-2.423.769-3.524 4.164-1.96 6.048.85 1.025.874 1.452.082 1.452-.617 0-1.122.675-1.122 1.5 0 1.719 1.15 1.95 2.581.519 1.518-1.518 8.347 2.063 8.386 4.398.055 3.201.962 1.232 2.032-4.41.858-4.525.748-5.735-.717-7.924-.952-1.421-1.742-3.033-1.756-3.583-.014-.55-1.549-1.146-3.411-1.323-2.695-.258-3.266-.014-2.801 1.198M77.515 133.25c-.403 1.512-1.153 2.75-1.667 2.75-.515 0-.803.763-.642 1.695.172.988-.747 2.232-2.206 2.985-1.375.71-1.994 1.297-1.375 1.305.619.008 1.125 1.14 1.125 2.515 0 1.426-.577 2.5-1.344 2.5-1.449 0-.792 3.003.906 4.143.545.365.632 1.875.2 3.5-.417 1.571-.975 2.267-1.239 1.546-.371-1.014-.911-.922-2.377.405-1.945 1.761-2.692 5.016-.896 3.906.55-.34 1-.141 1 .441S68.46 162 67.8 162c-.897 0-.88.315.067 1.25 1.016 1.002 1.525.902 2.561-.5.711-.963 1.978-1.75 2.816-1.75 1.621 0 3.557-11.895 2.274-13.972-.35-.565-.159-1.028.423-1.028s1.062-1.238 1.065-2.75c.003-1.512.481-4.464 1.063-6.56.582-2.095.86-4.345.618-5-.242-.654-.77.048-1.172 1.56m134.835 3.583a1167.736 1167.736 0 01-12.801 11.58c-5.903 5.246-6.484 6.081-5.157 7.407 1.326 1.327 1.98 1.321 5.801-.053 2.369-.852 6.404-2.095 8.968-2.763 5.002-1.303 5.781-2.502 5.847-9.004.02-1.925.934-5.48 2.032-7.899 1.097-2.419 1.875-4.52 1.727-4.667-.148-.148-3.035 2.282-6.417 5.399m122.97 3.475c-.93 3.032-.88 4.308.255 6.484.777 1.489 1.415 3.93 1.419 5.423.004 1.787.774 3.126 2.253 3.917 1.236.662 1.724 1.378 1.083 1.591-2.02.674 2.859 7.186 5.42 7.235 1.238.023 2.236-.296 2.219-.708-.063-1.501-4.764-10.366-5.598-10.555-.472-.107-.721-.791-.553-1.519.167-.728-.115-1.853-.627-2.5-1.079-1.364-2.622-8.477-2.316-10.676.174-1.253.053-1.27-.732-.105-.761 1.129-1.009 1.037-1.302-.483-.25-1.297-.721-.71-1.521 1.896m-165.778-1.376c-.595.963 4.937 15.878 6.477 17.463.502.515 1.144-.332 1.515-2 .355-1.592 1.1-4.387 1.655-6.21 1.692-5.557-.129-11.736-2.739-9.297-2.053 1.917-5.793 2.448-5.133.727.656-1.709-.796-2.268-1.775-.683m-8.4 6.418c-1.926.859-2.25 1.597-1.833 4.169.608 3.744 11.636 26.481 12.844 26.481 1.268 0 1.02-5.817-.355-8.316-.661-1.201-2.802-6.953-4.759-12.781-3.458-10.3-3.623-10.568-5.897-9.553m117.429 4.221c-1.831 1.832-2.096 8.58-.456 11.643.658 1.231 1.065 6.816.993 13.649-.126 12.036 1.041 18.137 3.47 18.137 1.331 0 2.063 4.769 1.582 10.31-.131 1.502.481 1.758 3.591 1.5 3.73-.308 3.751-.335 4.059-5.2.171-2.689-.166-5.366-.75-5.95-.583-.583-1.06-1.731-1.06-2.551 0-1.111.362-.996 1.418.448.78 1.067 1.744 1.614 2.143 1.216.398-.399.262-1.298-.303-1.999-.565-.701-1.341-2.741-1.724-4.534-.384-1.793-1.423-3.987-2.311-4.874-1.289-1.289-1.642-4.051-1.756-13.74-.151-12.774-1.1-16.824-4.353-18.565-2.555-1.367-2.679-1.353-4.543.51m-56.361 4.195c.19 1.139-.225 1.586-1.21 1.303-5.295-1.52-24.685 3.267-24.296 5.999.112.787.952 4.62 1.867 8.515l1.663 7.084 6.491-2.356c3.571-1.296 7.273-2.775 8.229-3.286.955-.511 2.819-1.153 4.141-1.426 1.323-.272 5.736-1.683 9.807-3.135 4.071-1.451 8.494-2.43 9.829-2.175 1.509.288 2.631-.068 2.966-.942.342-.892 1.32-1.189 2.671-.811 1.695.473 1.825.38.632-.455-1.266-.887-1.194-1.053.467-1.066 3.745-.029 10.417-3.155 9.855-4.617-.292-.763-.954-1.125-1.471-.806-.516.319-1.546.076-2.289-.54-1.018-.845-1.731-.74-2.898.427-.851.851-3.037 1.831-4.856 2.177-1.819.346-4.523 1.24-6.008 1.987-3.633 1.826-8.187 1.809-7.482-.028.567-1.48-3.64-5.907-6.608-6.952-1.323-.467-1.715-.179-1.5 1.103M72 163.14c0 .627-.787 1.743-1.75 2.481-1.457 1.116-1.516 1.495-.354 2.259.927.61 1.121 1.54.577 2.769-1.253 2.834-1.456 6.243-.411 6.889.516.319.938 1.255.938 2.08 0 .825-.45 1.222-1 .882-.55-.34-1 .126-1 1.035 0 .909.9 1.888 2 2.175 1.1.288 1.993 1.258 1.985 2.157-.009.938-.328 1.207-.75.633-.962-1.309-3.235-1.747-3.235-.622 0 .482.675 1.437 1.5 2.122.825.685 1.5.875 1.5.422 0-.452.501-.321 1.113.291 1.601 1.601.11 3.717-1.613 2.287-2.228-1.849-2.606.572-.473 3.031 2.536 2.924 2.969 2.404 3.672-4.4.316-3.069.964-5.339 1.438-5.046.475.293.863-.138.863-.959 0-.82-.851-1.761-1.892-2.092-1.883-.597-3.686-4.534-2.077-4.534.464 0 .612-1.463.33-3.25s-.076-5.162.457-7.5c.783-3.431.701-4.25-.424-4.25-.767 0-1.394.513-1.394 1.14m111.814 1.106c-4.274 1.07-4.211 1.717.881 9.004 4.118 5.893 2.724 6.225-2.163.516-3.879-4.531-6.331-3.998-4.444.966 1.141 3.001 1.145 3.53.019 2.834-1.42-.878-2.33 4.46-1.028 6.03.92 1.107.823 1.404-.457 1.404-1.187 0-1.622.938-1.622 3.5 0 4.05.02 4.063 2.79 1.75 1.152-.963 4.824-3.974 8.159-6.693 3.861-3.147 5.905-5.508 5.626-6.5-.24-.856-.949-4.137-1.573-7.29-1.326-6.688-1.369-6.727-6.188-5.521m-120.441 2.557c-.591.383-1.375 2.047-1.742 3.697s-.803 3.598-.969 4.33c-.167.731-.883 1.689-1.593 2.127-.71.439-1.362 2.091-1.448 3.671-.087 1.579-.514 3.435-.948 4.122-.45.711-.334 1.25.268 1.25 1.299 0 1.388 5.004.147 8.268-.514 1.353-.537 3.005-.053 3.789.531.859.402 1.675-.338 2.136-.914.569-.923 1.189-.038 2.618.885 1.428.858 3.314-.111 7.96-.699 3.35-1.221 7.921-1.16 10.16.062 2.239-.119 4.07-.402 4.07-.283-.001-.444 3.02-.359 6.713.183 7.862 2.373 10.256 2.373 2.593 0-2.673.462-8.673 1.026-13.333.564-4.661 1.21-10.049 1.435-11.974 1.475-12.612 2.811-22.045 3.611-25.5.96-4.144 1.907-9.406 2.37-13.177.335-2.734-.663-4.433-2.069-3.52M240 168.936c-4.675 1.593-13 4.782-18.5 7.087-5.5 2.305-10.981 4.414-12.179 4.687-1.243.283-1.969 1.045-1.689 1.773.269.702-.663 2.183-2.071 3.291-3.212 2.526-3.225 3.076-.061 2.471 4.063-.777 2.901 1.262-3.75 6.581-6.622 5.296-13.635 12.174-12.413 12.174 2.131 0 14.855-7.41 18.457-10.75.742-.687 1.885-1.25 2.541-1.25.655 0 3.496-1.552 6.313-3.449 2.817-1.897 5.362-3.208 5.657-2.913.294.295 1.298-.629 2.23-2.051.933-1.424 2.655-2.598 3.83-2.611 1.31-.014 3.264-1.549 5.055-3.97 1.605-2.171 5.753-5.78 9.218-8.02 10.389-6.719 9.876-7.312-2.638-3.05m-89.423.306c.602 1.897.484 2.054-.765 1.017-1.167-.969-1.841-.958-3.22.05-1.602 1.172-1.227 2.085 4.606 11.233 3.492 5.477 7.773 11.9 9.514 14.273 1.74 2.373 3.363 4.848 3.606 5.5 1.184 3.175 3.529-2.132 3.848-8.706l.334-6.891-4-2.216c-3.687-2.041-7.08-6.669-10.451-14.252-1.366-3.076-4.448-3.083-3.472-.008M48.076 177.25c-2.878 5.329-5.173 11.417-5.665 15.026-.344 2.526-.193 2.678 1.669 1.681 1.478-.791 2.413-.792 3.36-.007 1.033.857 1.555.125 2.451-3.43.71-2.821 1.696-4.52 2.623-4.52.817 0 1.486-.619 1.486-1.375s.295-2.851.656-4.655c.472-2.36.331-3.08-.502-2.565-.705.436-1.538-.285-2.131-1.845-1.256-3.304-1.248-3.307-3.947 1.69m85.56 2.024l-5.863 4.19 2.863 1.223 2.864 1.223-3.412.045c-3.277.043-9.235 2.934-15.588 7.563-1.65 1.203-3.9 2.569-5 3.037-1.299.553 3.081 1.084 12.5 1.516 7.975.366 15.85.978 17.5 1.36 1.65.382 4.012.9 5.25 1.151 2.096.425 3.304 3.418 1.38 3.418-1.407 0-2.903 9.606-6.618 42.5-4.18 37.003-4.096 33.913-.965 35.339 3.903 1.779 4.314 1.461 3.352-2.589-2.352-9.9.147-25.381 5.081-31.474 1.727-2.132 1.934-2.164 3.695-.57 1.784 1.614 1.989 1.453 4.667-3.661 1.54-2.942 3.61-5.561 4.599-5.819 2.041-.534 3.606-6.257 4.639-16.957.635-6.592.595-6.752-1.966-7.725-3.107-1.182-3.168-1.632-.746-5.544 2.324-3.752.454-9.054-2.825-8.014-1.862.591-6.043-3.866-6.043-6.441 0-1.534-5.955-3.938-13.963-5.637l-6.537-1.387 5.5.428c3.025.235 6.984.74 8.798 1.124l3.299.696-4.317-6.307c-2.374-3.469-4.758-6.436-5.298-6.593-.54-.157-3.621 1.6-6.846 3.905m139.926 11.676c-1.615 1.065-3.269 1.731-3.675 1.48-.862-.533-12.05 5.857-13.669 7.807-2.089 2.517-.031 3.685 4.033 2.287 4.274-1.469 4.677-1.063 1.596 1.609-1.64 1.422-1.785 1.867-.607 1.867.85 0 1.817-.706 2.148-1.569.415-1.081 1.265-1.358 2.732-.893 1.568.498 1.925.343 1.351-.585-.483-.782-.375-1.012.284-.604 1.78 1.1 4.048-.349 6.165-3.938 1.107-1.876 2.676-3.411 3.487-3.411 2.225 0 2.812-1.677 1.386-3.959-1.555-2.491-1.589-2.492-5.231-.091m25.773 9.755c-.855 1.803-1.955 3.03-2.445 2.727-.811-.501-1.313.919-1.002 2.837.068.422-1.116 1.301-2.632 1.952-3.797 1.631-3.895 1.757-2.227 2.864 1.057.701.627.822-1.529.43-1.845-.336-2.328-.247-1.254.231 1.619.721 1.6.869-.25 2.024-1.679 1.049-1.996.996-1.996-.335 0-.968-.679-1.451-1.75-1.245-1.844.355-2.464 2.749-.75 2.895.55.047 1.541.534 2.202 1.083.661.548 2.121.706 3.244.349 1.533-.486 1.901-.282 1.479.819-.31.807-1.432 1.694-2.494 1.972-3.783.989-1.909 2.444 2.508 1.946 4.132-.466 4.4-.354 3.885 1.615-.624 2.386-2.773 3.082-17.324 5.61-17.452 3.033-26.923 5.704-27.582 7.779-.554 1.745-.734 1.766-2.381.275-1.65-1.493-1.821-1.467-2.294.343-.627 2.396 1.416 4.368 18.757 18.114 7.15 5.668 15.925 12.858 19.5 15.978 3.575 3.121 7.827 6.767 9.45 8.103 1.622 1.336 4.997 4.25 7.5 6.476 2.502 2.226 6.085 5.295 7.961 6.821l3.41 2.773 1.24-2.948c1.715-4.079 8.854-12.381 11.632-13.528.992-.409.879-.887-.466-1.979-1.684-1.367-1.671-1.467.25-1.97 1.607-.42 2.053-1.423 2.171-4.872.173-5.066.205-5.445 1.13-13.344.387-3.3.963-9.58 1.281-13.955.317-4.375.6-8.2.628-8.5.027-.3-.047-2.57-.166-5.045-.177-3.7-.57-2.544-2.214 6.5-2.305 12.681-4.32 18.211-6.94 19.042-2.814.893-3.867-.293-3.864-4.351.001-2.03-.646-6.616-1.439-10.191-.793-3.575-1.811-8.525-2.262-11-.632-3.471-1.275-4.533-2.811-4.644a307.292 307.292 0 01-3.241-.25c-2.347-.199-1.455-4.936 1-5.31 1.238-.189 2.137-.895 2-1.57-.137-.674.2-1.226.75-1.226s1.021-2.588 1.047-5.75l.046-5.75 2.438 4.681c3.225 6.194 4.965 7.279 4.077 2.542-.396-2.11-.248-3.827.361-4.204 1.322-.817 1.346-6.207.031-7.019-.55-.34-1-.141-1 .441s-.9 1.059-2 1.059-2 .422-2 .938-.9.87-2 .787c-1.1-.083-2-.521-2-.973 0-.452-.9-.341-2 .248-1.294.693-2 .716-2 .067 0-.553-.675-.745-1.5-.429-1.055.405-1.5-.081-1.5-1.638s.445-2.043 1.5-1.638c.842.323 1.5.025 1.5-.679 0-2.705-4.119-1.235-5.665 2.022m40.682 5.345c.01 4.997.789 11.423 1.907 15.724 2.29 8.818 2.076 7.705 2.076 10.805 0 3.419 2.76 2.832 13.86-2.948 6.985-3.637 8.018-4.487 6.739-5.549-.831-.69-1.926-.998-2.434-.684-.507.313-2.214-.052-3.794-.812-5.308-2.554-7.182-2.804-7.54-1.002-.565 2.842-4.903-6.119-6.974-14.405-2.722-10.896-3.86-11.23-3.84-1.129m-234.648-3.531c1.819 4.741 1.717 11.221-.26 16.483-1.137 3.025-2.008 7.077-1.935 9.004.144 3.822-2.721 10.392-4.147 9.51-.489-.302-1.149-.128-1.467.387-.965 1.562-4.365 35.684-5.042 50.597-.645 14.222-2.848 42.657-4.571 59-3.116 29.566-3.977 47.069-2.802 57 .238 2.009-.058 2.917-.895 2.75-3.132-.626.928 6.067 5.213 8.596L93 417.933v-3.408c0-1.874.477-3.702 1.059-4.061.583-.36.983-1.625.889-2.81-.296-3.757.012-4.654 1.597-4.654 1.225 0 1.409-.727.889-3.5-.634-3.381.768-5.029 1.915-2.25.314.759.784.37 1.197-.989.375-1.231 1.079-1.992 1.566-1.692.486.301 1.885-.154 3.109-1.011 2.184-1.53 2.157-1.558-1.498-1.558-3.605 0-3.723-.114-3.723-3.583 0-2.433.401-3.443 1.25-3.147.688.241 1.105 1.235.927 2.21-.266 1.46.147 1.655 2.334 1.107 1.624-.408 2.423-.29 2.056.304-.33.534-.142 1.253.417 1.599.559.345 1.016-.25 1.016-1.324s-.675-2.211-1.5-2.528c-.825-.316-1.5-1.296-1.5-2.178 0-1.54-2.244-4.46-3.429-4.46-.314 0-.571.653-.571 1.45 0 .798-.72 1.854-1.6 2.346-1.011.566-1.6 2.24-1.6 4.55 0 4.201-1.77 5.063-1.858.904-.031-1.512-.235-4.437-.452-6.5-.251-2.392.023-3.75.758-3.75.843 0 .83-.322-.048-1.2-.66-.66-1.2-1.84-1.2-2.622 0-2.091 2.987.556 3.042 2.694.022.896.81-.534 1.75-3.176.939-2.643 2.773-5.91 4.074-7.262l2.366-2.457-2.366.361c-1.301.199-2.366.879-2.366 1.512 0 2.306-2.01 1.579-2.351-.85-.193-1.375-.778-2.765-1.3-3.09-1.57-.976-1.262-4.064 1.085-10.867 1.498-4.345 2.119-8.15 1.897-11.628-.311-4.851-.162-5.233 2.419-6.205 2.191-.826 2.75-.749 2.75.377 0 .777.45 1.413 1 1.413s1-.675 1-1.5.45-1.5 1-1.5 1-1.35 1-3-.338-3-.75-3-.854-1.125-.982-2.5c-.517-5.567-.73-6.5-1.482-6.5-.432 0-.786.627-.786 1.393 0 1.307-2.029 2.607-4.07 2.607-1.353 0-.641-4.278.999-6 1.241-1.303 1.215-1.541-.195-1.813-.907-.174-1.391-.918-1.096-1.687.29-.755 1.165-1.129 1.945-.83.835.32 1.417-.072 1.417-.956 0-.825.675-1.759 1.5-2.076.825-.316 1.5-1.624 1.5-2.907 0-1.282.492-2.823 1.094-3.425.601-.601.924-1.929.717-2.95-.274-1.353-1.018-.583-2.745 2.843-2.434 4.826-3.651 5.416-5.781 2.801-1.818-2.232-1.537-3.215.715-2.5 1.56.495 2 .18 2-1.433 0-2.515 1.676-2.746 2.311-.317.344 1.317.486 1.193.573-.5.181-3.515.224-3.675 1.323-5 .717-.864.717-1.25-.001-1.25-.572 0-1.266.563-1.544 1.25-.388.961-.522.948-.583-.059-.043-.72-.482-1.06-.974-.756-.493.305-1.136-.075-1.431-.842-.317-.827.251-1.602 1.395-1.901 2.795-.731 2.379-2.5-.46-1.958-2.183.418-2.363.166-2.064-2.888.18-1.84.405-3.346.501-3.346.095 0 .301-1.559.457-3.465.157-1.905.782-3.63 1.391-3.833.608-.203 1.099-1.344 1.091-2.535-.01-1.397-.289-1.737-.785-.957-.555.873-1.11.664-1.993-.75-1.044-1.672-.962-1.96.562-1.96.982 0 3-1.383 4.483-3.074 1.484-1.691 3.159-2.79 3.723-2.441.615.38.979-.49.909-2.176-.07-1.69-.298-2.112-.573-1.059-.567 2.167-1.698 2.221-3.74.179-.864-.865-1.585-1.202-1.601-.75-.017.451-.524-.029-1.128-1.068-.865-1.489-.752-2.082.531-2.8 1.82-1.018 2.248-5.811.519-5.811-.716 0-.856-.976-.396-2.75 1.229-4.748 1.273-5.717.313-6.928-.602-.759-.369-2.272.654-4.25C108.994 234.11 111 232.936 111 235c0 .55.483 1 1.073 1 2.094 0 .378-3.421-1.997-3.982-1.662-.393-2.478-1.34-2.619-3.044-.273-3.302.432-4.311 2.065-2.956 1.041.865 1.749.498 3.14-1.625 1.132-1.728 1.395-2.874.712-3.102-.596-.198-.879-1.429-.63-2.734.326-1.705-.066-2.506-1.395-2.849-1.312-.338-1.399-.51-.299-.592 1.077-.081 1.55-1.165 1.55-3.551 0-1.89-.357-3.215-.793-2.946-.437.27-.699-.659-.582-2.064.189-2.292.635-2.555 4.326-2.555 2.264 0 4.41.294 4.769.653.359.359 2.797.814 5.417 1.011 6.513.489 11.688 6.994 5.37 6.752-1.493-.057-2.086.42-1.863 1.5.217 1.05 1.208 1.492 2.941 1.312 2.493-.26 2.578-.112 1.837 3.173-.486 2.158-.374 3.847.301 4.522.769.769.592 1.077-.623 1.077-1.169 0-1.725.859-1.779 2.75-.043 1.512-.306 2.188-.583 1.5-.278-.687-1.08-1.25-1.783-1.25-.827 0-1.107-.89-.796-2.522.385-2.012.762-2.291 1.862-1.378 1.076.893 1.379.788 1.379-.478 0-.955-.822-1.622-2-1.622-1.1 0-2-.45-2-1s.45-1 1-1 1-.613 1-1.361c0-.915-.825-1.204-2.515-.881-2.899.554-4.393 2.242-1.985 2.242.89 0 1.328.47.973 1.044-.355.574-.209 1.586.324 2.25.533.663.739 2.714.458 4.557-.36 2.356-.766 2.95-1.368 2-.592-.933-.861-.468-.872 1.506-.011 2.132.366 2.711 1.485 2.281 1.393-.534 1.992.548 1.554 2.807-.101.519.363 1.966 1.032 3.215.957 1.789.953 2.588-.021 3.762-.681.82-.928 1.99-.551 2.601.377.61.012 1.643-.813 2.294-2.3 1.816-3.18 5.683-1.293 5.683 1.214 0 1.349.51.631 2.397-.501 1.319-.682 2.627-.401 2.907.28.281-.199 1.88-1.064 3.553-2.011 3.889-1.984 4.143.434 4.143 1.766 0 1.856.246.75 2.031-1.025 1.655-1.005 2.187.11 2.881 1.097.683.925 1.295-.868 3.088-1.743 1.743-1.945 2.416-.916 3.052 1.57.97 3.192.203 2.373-1.121-.316-.512-.147-.931.377-.931 1.684 0 2.204 3.048.624 3.655-1.163.446-1.246.896-.361 1.962.857 1.032.859 1.383.006 1.383-.718 0-.908.927-.514 2.5.521 2.075.269 2.5-1.481 2.5-1.595 0-2.108.623-2.108 2.559 0 1.451.433 2.292 1 1.941.55-.34 1.052.196 1.115 1.191.166 2.596.397 3.585 1.299 5.559.44.962.459 2.538.043 3.5-1.294 2.99-1.488 5.25-.451 5.25 1.252 0 1.245 1.072-.021 3-.808 1.231-1.14 1.26-1.849.162-.562-.872-.863.077-.863 2.724 0 2.235.356 3.843.791 3.574 1.142-.705 2.18 3.195 1.458 5.472-.338 1.062-1.83 2.377-3.318 2.921-2.408.881-2.464.998-.513 1.068 3.275.118 3.69 1.783.901 3.611-1.538 1.008-2.25 2.195-1.886 3.144.322.839.004 1.885-.706 2.324-.71.439-1.018 1.511-.684 2.382.811 2.111 3.684.95 3.684-1.489 0-1.041.501-1.893 1.114-1.893 1.739 0 .01 9.209-2.1 11.19-.991.929-2.074 1.417-2.408 1.083-.333-.333-.606.144-.606 1.06 0 .917.45 1.667 1 1.667s1 .675 1 1.5c0 1.353-1.187 1.944-3.25 1.618-1.012-.159-.925 3.057.127 4.717 1.076 1.698 2.17 1.698 3.246 0 .655-1.034.85-.953.862.356.008.93-.442 1.974-1.001 2.319a1.188 1.188 0 00-.4 1.626c.339.548-.199 1.593-1.196 2.322-1.32.965-1.533 1.695-.786 2.684 1.429 1.891 1.76 8.516.466 9.316-.587.363-1.068 1.519-1.068 2.57 0 1.286-.489 1.721-1.5 1.334-1.716-.659-1.92.451-.485 2.638.876 1.333 1.094 1.333 1.97 0 .812-1.237.987-1.134 1 .583.008 1.146-.323 2.421-.735 2.834-.719.719-.845 1.14-1.125 3.75-.069.641-.418.873-.777.515-.358-.359-1.266.533-2.017 1.982-1.173 2.26-1.152 2.961.151 4.949 1.916 2.924 1.921 3.755.018 3.025-1.824-.7-1.952.475-.25 2.309 1.024 1.104.91 1.227-.629.682-1.642-.581-1.802-.285-1.275 2.353.546 2.728.358 3.018-1.954 3.018-1.625 0-2.391.456-2.1 1.25.252.688 1.02 1.119 1.708.958.834-.194 1.09.541.77 2.216-.264 1.378.018 2.747.625 3.041.765.37.72.715-.145 1.118-1.483.692-1.693 4.417-.25 4.417.55 0 1 .47 1 1.044 0 1.258-3.164.86-4.331-.544-.457-.55-.564.225-.238 1.723.471 2.159.28 2.603-.919 2.143-.904-.347-1.512-.019-1.512.814 0 .767.9 1.462 2 1.545 1.143.086 2-.466 2-1.287 0-.791.502-1.438 1.117-1.438.644 0 .882.894.563 2.115-.574 2.196 3.638 7.035 7.82 8.983 1.894.883 3.255 1.739 10.101 6.358 1.594 1.076 4.388 3.223 6.209 4.772 3.533 3.006 5.19 2.893 5.19-.353 0-1.103.43-2.81.955-3.791 1.106-2.066 1.697-7.241 2.58-22.584.348-6.05.794-12.125.991-13.5.197-1.375.638-6.1.98-10.5.341-4.4 1.038-12.95 1.549-19 1.325-15.708 1.604-14.571-4.507-18.407-2.984-1.874-7.708-5.717-10.497-8.541-4.993-5.057-5.06-5.206-4.421-9.87.461-3.36 1.552-5.69 3.76-8.023 3.386-3.581 7.16-3.968 6.1-.627-1.026 3.233 1.309 9.281 5.586 14.468 5.473 6.637 5.661 6.616 6.328-.695 1.352-14.811 1.185-24.863-.404-24.247-.825.32-2.85.772-4.5 1.004-2.064.291-1.553-.087 1.636-1.21l4.636-1.632 1.189-11.11c.654-6.111 1.805-15.027 2.558-19.816 2.183-13.875 2.9-25.417 1.628-26.203-1.704-1.053-.205-12.625 2.004-15.476 1.975-2.547 2.485-6.115.875-6.115-1.472 0-4.027 5.528-4.021 8.7.004 2.601-3.592 23.056-4.606 26.201-.547 1.694-6.399-4.445-6.399-6.712 0-.799 1.373-5.449 3.05-10.335 1.678-4.886 2.776-9.326 2.441-9.868-1.106-1.789-2.443-1.028-3.1 1.764-.356 1.512-1.561 4.925-2.678 7.583-1.893 4.506-1.958 5.654-.962 17 .587 6.692.953 12.285.813 12.429-.406.418-8.878-3.616-10.925-5.203-1.429-1.107-1.745-2.324-1.364-5.25.273-2.095 1.696-12.584 3.161-23.309 1.465-10.725 2.476-20.523 2.248-21.774-.229-1.25-.026-2.515.45-2.809.476-.294.866-2.269.866-4.388 0-2.119.675-7.38 1.5-11.691.825-4.311 1.5-8.135 1.5-8.498 0-1.066-12.579-2.678-25.345-3.248-10.104-.451-11.763-.315-11.286.927m288.869 12.739l-4.179 4.258 4.97 6.422c5.521 7.133 5.681 7.565 3.307 8.894-1.333.746-2.519-.187-5.977-4.701-7.785-10.164-7.489-9.925-11.609-9.395-4.147.534-5.158 2.264-1.323 2.264 1.453 0 3.29 1.096 4.574 2.728 1.18 1.501 3.269 3.465 4.643 4.366 2.035 1.336 2.207 1.749.926 2.241-.863.331-1.57 1.346-1.57 2.256 0 1.421.231 1.462 1.644.289 1.446-1.2 1.574-1.124 1.056.628-.324 1.096-1.049 4.581-1.611 7.746-1.253 7.053-2.248 9.013-7.48 14.746-3.818 4.183-4.846 4.692-14.608 7.226-12.119 3.146-10.602 3.126 16.999-.216 9.075-1.099 18.245-2 20.379-2.004l3.879-.006-.651-5.25c-1.784-14.386-1.432-13.504-5.953-14.938-2.633-.835-4.268-2.001-4.497-3.208-.286-1.509.018-1.735 1.492-1.108 1.018.433 3.089.999 4.601 1.259l2.75.472v-27.031l-3.149-1.098c-4.278-1.491-3.919-1.623-8.613 3.16m-224.321 1.992c-.046.137-.243 1.15-.437 2.25-.195 1.1-.624 3.35-.953 5-.329 1.65-.747 5.925-.929 9.5-.182 3.575-.841 7.767-1.464 9.315-1.919 4.764-1.475 7.685 1.166 7.685 3.752 0 4.837 1.834 3.088 5.216-2.272 4.395-1.502 7.262 1.985 7.387 3.701.132 8.214-8.6 7.313-14.151-.442-2.722-.178-3.478 1.384-3.974 2.737-.869 2.393-3.324-.57-4.067-1.375-.345-2.5-1.029-2.5-1.519 0-.491-.73-.892-1.622-.892-1.157 0-1.34.359-.638 1.25 2.119 2.69 2.475 6.938.551 6.568-4.736-.912-3.612-13.985 1.365-15.877 1.432-.545 2.344-1.709 2.344-2.993 0-2.571-5.547-8.346-7.096-7.389-.758.469-.901.007-.444-1.434.492-1.55.25-2.125-.893-2.125-.862 0-1.604.113-1.65.25m51.992 10.827c-.997.632-1.044.897-.159.908.713.008 1.25 1.278 1.25 2.957 0 2.324-1.154 3.939-5.487 7.68-6.503 5.614-6.526 6.362-.082 2.761 4.142-2.315 4.916-2.464 6.188-1.192 2.211 2.21.736 4.493-5.744 8.894-4.524 3.072-5.875 4.562-5.875 6.478 0 2.432.066 2.454 2.943.966 2.907-1.503 4.889-.684 3.557 1.471-.964 1.56 1.189 1.189 6.595-1.136 5.595-2.407 6.754-2.023 5.067 1.679-.639 1.403-1.162 3.655-1.162 5.004 0 1.349-.388 2.453-.861 2.453-.474 0-.679 1.012-.456 2.25.309 1.711-.485 2.848-3.316 4.75-2.048 1.375-4.205 2.969-4.795 3.542-.59.573-2.502 1.627-4.25 2.342-3.46 1.414-7.002 4.77-6.045 5.727.329.329 4.114-1.359 8.411-3.75 4.296-2.391 9.97-5.43 12.607-6.754 2.637-1.323 5.157-3.126 5.601-4.007 1.261-2.505-3.547-34.325-5.338-35.328-.811-.454-1.234-1.453-.939-2.221 1.051-2.738-5.115-7.116-7.71-5.474m148.39 4.048c-3.132.887-5.454 2.875-3.358 2.875 1.463 0 1.332 4.27-.191 6.21-.687.876-4.055 2.595-7.484 3.819-12.044 4.303-11.313 7.47 1.899 8.219 5.134.291 10.047.823 10.917 1.183 1.508.623 8.173-9.201 12.006-17.698 1.441-3.194-.661-5.643-4.895-5.701-2.185-.03-2.224.085-.75 2.191 1.755 2.505 2.07 5.777.557 5.777-.55 0-1-.65-1-1.444 0-3.356-4.305-6.392-7.701-5.431m-16.723 3.538c-7.502 4.062-11.582 10.164-11.554 17.281.042 10.331 2.626 11.471 22.258 9.817 5.499-.464 9.247-1.761 5.087-1.761-1.082 0-2.404-.437-2.939-.972-.534-.534-3.94-1.392-7.567-1.906-6.293-.891-10.266-2.429-14.111-5.462-2.407-1.898-2.196-3.083.835-4.706 1.422-.761 3.22-2.609 3.995-4.108.775-1.498 2.199-3.319 3.164-4.045 2.581-1.941 5.709-5.807 4.661-5.761-.498.022-2.221.752-3.829 1.623m-117.925 1.093c-.257.415.358 5.478 1.367 11.25s2.128 13.109 2.488 16.306l.653 5.812 3.171-.67 3.17-.67-3.183 3.358c-3.176 3.35-3.182 3.377-2.605 11.636l.578 8.278 7.105 7.135c3.908 3.925 10.705 10.281 15.105 14.126 4.4 3.844 10.733 9.545 14.073 12.668 3.34 3.123 6.581 5.992 7.202 6.376.657.406 4.174-2.382 8.427-6.681 4.014-4.058 8.478-8.009 9.92-8.779 6.974-3.725 15.878-9.414 15.878-10.145 0-.45-.788-1.097-1.75-1.436-1.938-.684-6.25-5.151-6.25-6.476 0-.464-.562-.853-1.25-.863-1.229-.019-5.693-3.76-20.683-17.334-4.162-3.769-10.899-9.619-14.973-13-19.303-16.023-28.211-23.91-31.187-27.613-2.984-3.713-6.113-5.127-7.256-3.278M182 250.786c0 1.533-1.037 5.47-2.304 8.75-2.253 5.832-2.395 5.971-6.407 6.267-3.333.246-4.4-.124-5.695-1.973L166 261.555v2.5c0 3.481 2.689 6.96 5.307 6.866 1.206-.043 1.631-.306.943-.583-2.028-.819-1.429-2.338.922-2.338 3.752 0 9.683-3.365 10.872-6.169.845-1.993.838-4.082-.027-8.25-1.266-6.098-2.017-7.138-2.017-2.795m-21.876 39.938c-.721 5.377-1.505 11.748-1.741 14.159-.236 2.411-.645 4.732-.908 5.158-.264.426-.141 1.639.273 2.696.66 1.686 1.212 1.331 4.517-2.908 3.323-4.262 3.529-4.829 1.75-4.829-2.121 0-2.711-1.452-1.015-2.5 1.511-.934 1.198-2.5-.5-2.5-1.94 0-1.916-1.41.051-3.043 1.231-1.021 1.41-2.442.864-6.872-1.188-9.652-1.929-9.508-3.291.639m52.376.34c-3.3 2.157-6.648 4.232-7.44 4.609-1.563.746-11.636 7.233-19.439 12.521-2.684 1.818-6.284 4.53-8 6.027l-3.121 2.72 2.672.03c1.496.016 5.532-1.841 9.172-4.221a2561.265 2561.265 0 0115.078-9.75c4.718-3.025 8.578-5.837 8.578-6.25 0-.413.627-.75 1.393-.75s1.66-.695 1.986-1.545c.326-.85 2.16-2.2 4.075-3 2.398-1.002 3.304-1.923 2.908-2.955-.772-2.01-.961-1.949-7.862 2.564m184.963 7.686c1.288 3.329 1.784 7.25.912 7.212-.481-.021-2.108-1.821-3.615-4-3.267-4.723-4.45-4.929-6.078-1.057-1.111 2.641-1.396 2.777-3.143 1.5-2.891-2.114-3.022-1.995-6.968 6.345-2.017 4.262-4.3 8.988-5.073 10.5-.773 1.512-1.171 2.75-.886 2.75 2.179 0 4.945-3.011 6.968-7.585 2.922-6.607 3.322-6.729 2.655-.812-.541 4.8.425 6.35 3.976 6.382 1.945.017 3.335-4.17 4.393-13.235.808-6.922 1.546-7.137 4.383-1.277 2.001 4.134 2.046 4.642.589 6.722-2.207 3.151-2.01 6.458.423 7.094 2.35.615 2.717.16 3.51-4.343.793-4.496 1.066-4.619 2.873-1.284 1.995 3.681 2.015 1.578.052-5.508-2.225-8.033-3.53-11.154-4.662-11.154-.542 0-.681.788-.309 1.75m-219.49 30.384c-2.46 1.782-7.803 5.886-11.873 9.12-5.534 4.398-7.606 5.548-8.218 4.563-.456-.735-.39-1.464.15-1.65.532-.184.97-.859.972-1.5.002-.642 2.719-3.362 6.039-6.045 7.97-6.441 6.769-7.198-1.918-1.208l-6.879 4.743-1.108 8.587c-1.66 12.855 1.772 15.28 8.501 6.006 6.265-8.636 12.604-14.97 13.527-13.516.636 1.003.833 1.006.944.016.307-2.74.418-3.111 1.14-3.833.412-.413.75-.147.75.591 0 .852.91.485 2.5-1.008 1.507-1.416 2.5-1.834 2.5-1.052 0 1.058.291 1.056 1.576-.011 1.306-1.084 1.751-1.062 2.595.127.823 1.161.911 1.103.459-.302-.307-.956-.237-1.654.156-1.552 1.245.325 5.214-1.311 5.214-2.15 0-.442-1.912-1.108-4.25-1.48-2.338-.372-5.162-.903-6.277-1.18-1.289-.321-3.657.675-6.5 2.734m181.433 4.089c-2.479 1.494-2.966 1.527-3.681.25-1.515-2.707-2.725-1.515-2.725 2.682 0 3.926.098 4.066 1.787 2.538.982-.889 3.457-2.315 5.5-3.168l3.713-1.552v2.948c0 1.622-.439 4.103-.975 5.514-.644 1.693-.636 2.565.025 2.565 1.334 0 2.95-4.418 2.95-8.065 0-2.805.196-2.935 4.43-2.935h4.43l-1.011 3.25c-.556 1.788-1.239 3.987-1.517 4.887-1.153 3.728 1.697 2.586 3.453-1.384 2.691-6.083 4.691-7.753 9.286-7.753 4.436 0 4.757.677 1.991 4.194-2.4 3.052-3.722 7.806-2.17 7.806.609 0 1.11-.562 1.112-1.25.003-.687 1.351-3.275 2.996-5.75 4.727-7.111 4.888-7.019-11.868-6.744-11.99.197-15.421.577-17.726 1.967m-33.056 2.666c-1.115 1.039-2.603 4.076-3.305 6.75-1.765 6.714-5.096 18.33-5.732 19.989-.821 2.137 2.474 1.639 3.646-.552.567-1.059 2.577-7.021 4.467-13.25 1.89-6.229 3.741-12.114 4.112-13.076.887-2.296-.647-2.229-3.188.139m-173.767 32.339c-.698 3.404-1.601 11.465-2.103 18.772-1.243 18.086-3.886 43.696-5.508 53.383-1.426 8.516-1.567 11.296-.647 12.781.94 1.517.874 2.088-.325 2.851-1.286.818-1.256.957.215.97 1.662.015 3.785 2.787 3.785 4.942 0 .582-5.963-3.372-13.25-8.785-19.674-14.615-24.592-17.7-25.985-16.307-.887.887-.745 1.165.594 1.165.967 0 1.505.412 1.194.915-.311.503-.032 1.092.621 1.31.714.238.902 1.134.473 2.252-.514 1.34-1.016 1.554-1.802.768-.599-.599-1.722-.846-2.496-.549-1.162.446-1.124.748.214 1.727 1.706 1.247 3.734 9.64 2.872 11.887-.278.722-2.064 1.877-3.97 2.566-4.171 1.509-4.786 3.714-.715 2.564 2.527-.714 5.989-.887 11.323-.565 2.761.166 2.173 3.194-.92 4.736-1.42.708-1.905 1.425-1.241 1.834 1.496.925 1.374 2.705-.162 2.373-1.465-.317-7.75 3.25-7.75 4.398 0 .431.645.784 1.433.784 1.606 0 3.033 3.437 2.073 4.991-.343.555-1.524 1.009-2.624 1.009s-1.733.433-1.406.962c.372.602 1.504.616 3.024.038s2.652-.564 3.024.038c.327.529.132.962-.434.962-.565 0-.791.616-.502 1.369.32.833-.376 1.621-1.781 2.016-2.15.604-2.188.739-.557 1.992 2.145 1.646 2.286 2.766.25 1.985-.825-.317-1.5-.078-1.5.531s.886 1.107 1.969 1.107c1.269 0 1.779.493 1.435 1.389-.333.869-1.353 1.179-2.719.827-1.856-.478-1.998-.335-.944.953.683.833.985 1.771.672 2.085-1.104 1.103-1.124 5.746-.025 5.776.611.017.325.489-.638 1.05-2.273 1.324-2.273 3.048 0 2.219 1.665-.607 1.665-.541-.002 1.363-.964 1.1-1.439 2.314-1.056 2.697s.792 2.597.909 4.919c.291 5.79.275 5.722 1.399 5.722.55 0 1-.99 1-2.2 0-1.513.322-1.878 1.033-1.167 1.132 1.132.288 4.367-1.14 4.367-.491 0-.893.477-.893 1.059s.399.813.886.511c1.333-.823 2.264 3.121 2.58 10.93.259 6.383 2.817 16.3 9.028 35 3.343 10.064 8.837 25.027 9.546 26 .401.55 1.039 2.451 1.418 4.224 1.528 7.147 14.067 13.733 25.542 13.416 8.765-.242 19.981-1.971 21.703-3.346.662-.529 5.173-1.036 10.026-1.127 8.812-.167 8.828-.163 13.4 3.583 4.426 3.626 8.137 4.747 9.329 2.817.317-.512.66-3.661.761-6.997.142-4.668.517-6.008 1.629-5.818.794.137 1.657-.362 1.917-1.107.342-.982-.111-1.17-1.647-.683-2.209.702-2.968-.819-1.011-2.028.787-.487.75-.904-.128-1.447-.758-.469-.908-1.289-.388-2.125.466-.749.716-2.376.556-3.616-.172-1.333.351-2.5 1.281-2.857.865-.332 1.572-1.031 1.572-1.555s-.454-.672-1.008-.329c-1.526.943-2.979-3.736-1.665-5.363.603-.746 1.172-5.421 1.265-10.389.159-8.569.756-21.167 2.038-43.007l.572-9.755-3.351-3.136c-1.843-1.725-6.501-5.489-10.351-8.365-3.85-2.876-11.05-8.348-16-12.161C163.218 474.854 153.987 468 153.041 468c-1.622 0-1.223-1.993.534-2.667 2.701-1.037 8.942 1.496 12.713 5.159 1.987 1.929 3.985 3.508 4.44 3.508.454 0 2.197 1.252 3.873 2.783 1.676 1.53 5.361 4.268 8.19 6.083 5.662 3.633 12.824 9.134 11.892 9.134-1.118 0 4.4 4.991 7.108 6.43 3.177 1.688 8.209 6.281 8.209 7.494 0 .463 1.012 1.12 2.25 1.459 1.699.466 1.923.828.916 1.478-1.066.688-.999.989.332 1.5 2.295.881 2.722.804 2.002-.361-.34-.55.11-1 1-1s1.328-.47.973-1.044c-.355-.574-.135-1.659.489-2.411.819-.986.83-1.556.038-2.045-.787-.487-.766-1.076.074-2.089.664-.8.745-1.411.186-1.411-.542 0-.861-1.125-.711-2.5.151-1.375-.168-2.5-.708-2.5-.541 0-.261-.723.622-1.606 1.177-1.177 1.319-1.952.53-2.903-.783-.943-.724-1.438.215-1.815 1.005-.403.987-.536-.08-.597-1.106-.064-1.131-.37-.128-1.579.928-1.118.944-1.5.063-1.5-.649 0-.903-.45-.563-1 .34-.55.121-1-.486-1-.699 0-.936-1.471-.645-4 .282-2.455.047-4-.608-4-.587 0-.211-.788.836-1.75 2.001-1.84 2.698-9.521 1.09-12.007-.505-.78-.242-1.477.693-1.835 1.131-.434 1.284-1.163.613-2.926-.615-1.619-.52-2.5.307-2.836.667-.271.433-.523-.525-.567-1.425-.065-1.559-.518-.769-2.596 1.17-3.075 1.066-12.483-.137-12.483-.478 0-.869-.477-.869-1.059s.45-.781 1-.441 1-.309 1-1.441c0-1.132-.562-2.075-1.25-2.094-.687-.02-.213-.611 1.055-1.315l2.305-1.279-2.653-1.209c-1.773-.808-2.456-1.722-2.059-2.758.819-2.134-1.102-5.402-3.183-5.414-4.897-.027-26.017-19.435-34.268-31.49-3.855-5.632-7.988-10.021-13.961-14.828-11.132-8.957-11.815-9.312-12.403-6.444M83.781 421.75c-.2.962-.069 3.438.293 5.5.362 2.063.268 3.75-.208 3.75-1.161 0-1.101 5.251.096 8.399.638 1.678.615 2.745-.068 3.167-.567.35-.734 1.378-.373 2.285 1.258 3.156 1.623 6.8.516 5.149-.87-1.297-1.008-1.271-1.022.191-.008.93.474 1.993 1.072 2.363.598.369.865 1.52.594 2.558-.271 1.037-.105 2.126.369 2.419.475.293.592 1.239.261 2.102-.332.863.026 1.967.793 2.453 1.061.672.882.887-.747.899-1.179.008-2.409.708-2.734 1.555-.347.903-.081 1.475.643 1.382 2.764-.356 3.524.166 3.024 2.078-.314 1.202-.031 2 .71 2 .773 0 1.056-.924.759-2.478-.343-1.798.037-2.64 1.384-3.067 1.021-.325 1.857-1.234 1.857-2.022 0-.788.429-1.433.953-1.433 1.166 0 .108-10.355-1.106-10.833-1.458-.574-.924-4.947.815-6.686 1.294-1.295 1.381-1.836.393-2.447-.899-.556-.946-.983-.159-1.47.766-.473.799-1.265.107-2.559-1.439-2.689-1.26-3.748 1.02-6.028 1.714-1.714 1.79-2.112.5-2.607-.838-.321-1.523-1.442-1.523-2.492 0-1.079-1.412-2.768-3.25-3.889-3.985-2.429-4.506-2.454-4.969-.239m372.575 38.368c-2.475 7.065-3.263 6.532 10.759 7.28 16.031.855 14.998-.098 17.015 15.702 1.555 12.179 1.567 13.491.135 14.4-3.228 2.048-10.53 9.457-11.874 12.047-1.076 2.075-1.39 8.146-1.385 26.817.003 13.275-.74 34.155-1.652 46.401-.912 12.245-1.367 22.555-1.012 22.91.355.355 1.459-.09 2.452-.989 1.524-1.379 1.86-3.635 2.145-14.41.186-7.027.464-14.126.618-15.776.154-1.65.331-12.225.392-23.5.113-20.726 1.281-25.132 2.678-10.1.89 9.574 1.496 8.35 2.961-5.988 1.269-12.425 1.848-14.418 3.451-11.883 1.278 2.02 1.172 8.844-.531 34.411-.804 12.067-1.247 22.154-.985 22.416.482.483.846-1.626.556-3.223-.086-.477.286-2.277.827-4 .541-1.723 1.253-6.696 1.583-11.05.329-4.354.852-8.325 1.161-8.825.308-.5.956-4.362 1.438-8.583 1.809-15.835 1.849-15.965 6.061-19.57l3.936-3.369-.293-8.368c-.385-11.03-1.209-10.99-13.978.678-4.936 4.51-6.859 2.265-2.032-2.373 1.53-1.47 4.482-4.171 6.559-6.001l3.778-3.329-.54-7.171c-.297-3.945-1.083-13.178-1.748-20.518-1.399-15.464.124-13.828-15.876-17.061-5.75-1.162-11.362-2.315-12.469-2.563-1.691-.378-2.355.52-4.13 5.588m-12.645 7.28c-.214.606-.479 3.352-.589 6.102l-.199 5 11.813-.594c6.497-.327 12.814-1.13 14.038-1.785L471 474.93v29.329l5.25-4.522c5.893-5.077 5.825-4.755 4.278-20.447l-.809-8.21-4.109-.484c-16.284-1.921-22.285-2.305-23.754-1.519-1.127.603-1.821.456-2.174-.463-.656-1.71-5.452-2.686-5.971-1.216M139.348 478.25c-.536 1.238-1.1 4.275-1.255 6.749-.155 2.475-.695 4.755-1.201 5.068-1.008.623-4.233 29.73-4.092 36.933.286 14.573.432 15.875 1.841 16.416 1.052.404 1.185 1.041.487 2.345-.622 1.163-.597 2.437.073 3.634.754 1.347.681 2.06-.27 2.648-.959.592-1.013 1.155-.207 2.131.603.729 1.328 4.645 1.612 8.702.454 6.475 1.769 10.386 3.047 9.057.23-.238-.03-4.033-.577-8.433-2.363-19.016-1.571-48.069 1.391-51.03 1.031-1.031.798 13.445-.284 17.673-1.135 4.435-.301 7.424 1.626 5.825 1.585-1.316 2.295-5.505 3.044-17.968.751-12.49.719-13.196-.646-14.039-.64-.395-.753-.886-.252-1.09.501-.204 1.607-5.321 2.457-11.371.85-6.05 1.912-11.849 2.361-12.887.722-1.67.449-1.833-2.388-1.417-1.761.259-3.435.096-3.718-.363-.893-1.445-2.042-.911-3.049 1.417m326.775 1.653c-.758.48-3.081.644-5.163.365-5.186-.696-18.96 2.428-18.96 4.3 0 1.594-1.573 1.932-2.442.526-1.378-2.229-4.349.196-4.966 4.054-.778 4.869-.116 6.203 2.408 4.852 1.033-.553 2.117-.62 2.408-.149.291.471-.582 1.363-1.939 1.981-1.416.645-2.469 1.97-2.469 3.106 0 1.791.791 2.009 8.25 2.272l8.25.29v3.25c0 3.99-1.879 4.801-2.316 1-.311-2.702-.437-2.75-7.167-2.75-4.583 0-6.994.414-7.284 1.25-.238.688-.761-.212-1.162-2-.866-3.858-.885-3.862-4.917-1.048-4.677 3.265-4.71 3.495-1.692 11.714l2.785 7.584 5.376.595c6.853.758 6.877.74 6.877-5.237 0-3.585.358-4.9 1.25-4.589.848.295 1.142 2.136.915 5.722-.211 3.336.103 5.557.853 6.02.832.514.891 1.298.199 2.612-.976 1.851-2.81 26.629-2.618 35.377.299 13.663 3.712 50.644 4.771 51.704 1.197 1.196 19.972-5.342 19.151-6.67-.277-.447-.016-9.076.578-19.174 1.099-18.658 1.856-107.873.915-107.845-.283.009-1.134.408-1.891.888m-95.307 3.347c-.524 3.644.989 15.81 2.139 17.195 1.808 2.18 5.843.732 5.683-2.04-.076-1.322-.363-2.404-.638-2.404-.275-.001-.637-2.288-.805-5.082-.168-2.794-.72-6.169-1.226-7.5-1.196-3.147-4.709-3.262-5.153-.169M153 495.059c0 .582-.399.812-.887.511-2.224-1.374-3.724 4.622-3.11 12.43l.196 2.5.801-2.5c.715-2.231.811-2.097.9 1.25.055 2.063-.238 3.697-.65 3.632-2.455-.388-3.544.328-1.66 1.09 1.679.679 1.997 1.482 1.616 4.079-.364 2.48-.171 3.045.83 2.427.983-.608 1.104-.335.492 1.108-1.458 3.44-1.864 13.078-.494 11.747.729-.709 1.315-5.029 1.491-11 .16-5.408.585-13.996.945-19.083.36-5.087.401-9.25.092-9.25-.309 0-.562.477-.562 1.059m292.199 46.055c.285.762 1.573 4.986 2.863 9.386 3.502 11.948 11.327 31.796 12.719 32.26 2.162.721 1.335-4.284-1.969-11.905-1.753-4.045-5.016-12.497-7.25-18.781-2.234-6.285-4.696-11.634-5.471-11.887-.884-.288-1.217.057-.892.927m-334.907 8.177c-.043 4.448-1.235 13.54-2.304 17.576-1.967 7.428.607 11.615 7.744 12.596l5.195.715-.379-2.997c-.208-1.648-.89-3.952-1.515-5.12-1.727-3.226-5.923-16.523-6.651-21.073-.799-4.997-2.047-6.011-2.09-1.697m9.718 35.28c-.694 2.161-1.925 4.688-2.734 5.616-.81.928-1.145 2.216-.746 2.862.399.646.106 1.609-.652 2.139-1.066.746-1.095 1.079-.128 1.471.688.279 1.25 1.505 1.25 2.724 0 3.269 1.898 4.617 6.5 4.617 2.255 0 4.691.563 5.412 1.25 1.073 1.022 1.177.802.568-1.205-.41-1.35-.843-3.697-.962-5.216-.119-1.519-.793-3.455-1.496-4.303-.704-.847-2.285-4.318-3.514-7.713l-2.235-6.171-1.263 3.929m266.709 9.929c-1.319 3.841-2.336 14.187-2.143 21.814.125 4.977-.189 7.686-.891 7.686-.716 0-.677.408.115 1.2.66.66 1.2 2.235 1.2 3.5 0 1.452.596 2.3 1.617 2.3 1.124 0 1.457.609 1.093 2-.326 1.248-.03 2 .786 2 .719 0 1.779 1.35 2.354 3 1.386 3.977 1.885 3.783 1.933-.75.045-4.277.423-6.189 1.595-8.067.524-.838.151-1.825-1.028-2.718-1.763-1.335-1.744-1.403.4-1.433 1.238-.018 2.25-.531 2.25-1.14 0-1.049-2.544-.772-6.36.693-1.35.518-1.482-.654-1.045-9.246.542-10.629-.688-24.295-1.876-20.839M83.5 609.111c-11.552 1.67-15.185 5.119-14.238 13.517.4 3.555.126 4.534-1.587 5.672-3.369 2.237-4.145 19.39-.925 20.454.688.227 1.25-.286 1.25-1.139 0-2.239 2.671-.92 3.453 1.704.643 2.162.658 2.159 1.649-.295.833-2.061 1.174-2.228 2.036-1 .818 1.166.934 1.013.555-.726-.264-1.211.034-2.414.663-2.674.749-.309.799-.757.144-1.298-1.866-1.542-3.582-7.657-2.36-8.413.614-.379.807-1.19.429-1.801-.378-.612-.184-1.112.431-1.112s.864-.412.553-.915c-.311-.503-.088-1.073.495-1.268.584-.194 1.162-1.02 1.285-1.835s.654-2.157 1.18-2.982c.526-.825.963-1.939.972-2.476.008-.537 1.365-1.372 3.015-1.857 5.231-1.536 9.5-3.935 9.5-5.339 0-.747 1.463-2.249 3.25-3.339 1.787-1.09 2.8-1.99 2.25-2.001-.55-.01-.325-.455.5-.988 1.867-1.207-5.79-1.148-14.5.111m32.417 10.287c-.229.22-3.251.679-6.715 1.022-3.464.343-7.157 1.159-8.205 1.814-2.676 1.671-5.997 10.2-5.997 15.399 0 7.537 6.024 10.997 7.376 4.237.654-3.27 2.624-3.036 2.624.311 0 1.604.297 1.818 1.33.96 1.46-1.212 1.038-7.487-.442-6.572-1.942 1.201-.737-5.385 1.553-8.489 2.725-3.693 6.559-6.73 6.559-5.196 0 .549-.45 1.276-1 1.616-1.268.783-1.316 4.5-.059 4.5.518 0 1.298-.562 1.735-1.25.78-1.229.95-1.761 1.199-3.75.069-.55 1.025-1.9 2.125-3 1.879-1.879 1.889-2 .167-2-1.009 0-2.021.179-2.25.398m72.583 3.487c-12.035 3.081-13.798 10.709-4.476 19.365 7.442 6.91 10.218 6.051 12.122-3.75.427-2.2 1.331-6.351 2.008-9.224.677-2.874.975-5.481.662-5.793-1.022-1.022-7.249-1.384-10.316-.598M234 629c-2.217.71-2.069.812 1.309.9 3.557.093 4.57 2.1 1.061 2.1-1.929 0-3.911 1.979-4.805 4.797-.385 1.211-1.146 2.203-1.691 2.203-.546 0-.714.45-.374 1 .34.55.173 1-.37 1-1.085 0-3.639 8.022-4.723 14.837-.616 3.869-.486 4.315 1.201 4.135 4.164-.445 6.392.088 6.392 1.528 0 1.932.301 1.896 4.226-.496 1.801-1.098 2.867-1.998 2.369-2-.498-.002-.09-.904.905-2.004 1.757-1.941 1.747-2-.345-2-3.092 0-2.712-1.184 2.242-6.987 6.446-7.552 6.678-12.564.825-17.763-2.653-2.356-4.087-2.574-8.222-1.25m139.157 40.239c-2.143 6.983-1.811 6.814-13.942 7.108-3.621.088-6.588-.311-7-.942-1.074-1.646-8.354-2.535-9.944-1.215-1.006.835-1.654.827-2.513-.032-1.679-1.679-6.715-1.434-7.403.36-.32.834-1.094 1.437-1.719 1.339-.625-.098-2.423.352-3.996 1-2.604 1.072-3.201.885-6.691-2.09-2.107-1.797-4.114-4.207-4.458-5.356-.542-1.805-1.435-2.097-6.553-2.146-3.26-.03-5.709.296-5.443.726.265.43-.412 1.016-1.505 1.301-1.094.286-2.241.111-2.55-.389-.327-.529-1.398-.461-2.565.164-2.41 1.29-.683 4.295 2.016 3.511.885-.257 3.602-.594 6.037-.748 4.992-.316 7.606 2.628 8.252 9.292.28 2.889.756 3.383 3.82 3.968 10.321 1.968 10.235 1.965 9.637.406-.785-2.046 4.959-2.043 7.006.004.946.946 3.413 1.501 6.678 1.504 2.849.002 10.917.297 17.929.654 7.416.379 12.745.272 12.739-.254-.016-1.253-7.755-4.847-10.062-4.673-1.038.078-2.148-.28-2.466-.795-.331-.534 1.913-1.003 5.23-1.092 7.811-.209 10.744.114 11.142 1.226.184.511 1.629.93 3.212.93 2.602 0 3.025-.496 4.416-5.182 1.93-6.498 1.936-8.452.03-9.183-.829-.318-2.027-1.716-2.66-3.107-2.079-4.563-4.557-3.186-6.674 3.711" fill="#d3d3d3" fill-rule="evenodd"/></svg>