<svg xmlns="http://www.w3.org/2000/svg" width="500" height="500"><path d="M0 36.25V72.5l17.25.032c19.166.035 25.555 1.523 31.013 7.221C50.936 82.544 54.614 90 53.317 90c-.39 0 .817 1.575 2.683 3.5 4.356 4.494 6.328 4.407 11.234-.498 3.886-3.887 3.953-4.068 2.382-6.465-2.357-3.597-2.02-5.002 1.829-7.64 4.22-2.891 5.384-5.312 6.1-12.683.305-3.143.964-6.123 1.464-6.623s.643-2.854.317-5.23c-.472-3.439-.259-4.449 1.041-4.948 2.362-.907 2.262-7.37-.117-7.532-7.752-.529-13.891.481-16.558 2.724-3.53 2.971-6.36 3.016-12.165.196-5.931-2.882-5.811-4.858.473-7.801 2.75-1.288 5-2.646 5-3.018 0-.372.9-1.714 2-2.982 5.224-6.024-1.284-21.673-6.9-16.59-.967.874-2.249 1.59-2.851 1.59-.601 0-4.373 1.543-8.382 3.429-7.384 3.473-9.239 3.705-8.211 1.026.312-.814.029-2.13-.63-2.924C30.641 15.863 31.457 14 33.573 14c.8 0 2.236-.428 3.191-.952.955-.523 3.536-1.75 5.736-2.727 3.485-1.548 5.81-2.929 15.168-9.012C59.108.372 53.142.105 29.75.059L0 0v36.25M25.468 78.9c.726 2.287-2.139 5.627-9.771 11.393-4.051 3.06-5.12 8.42-2.319 11.628 3.109 3.561 10.38 18.9 11.029 23.266.883 5.94-.55 6.868-11.256 7.292C1.542 132.939 0 133.541 0 137.608c0 2.048.495 3.391 1.25 3.391 3.742-.004 17.967-3.09 19.364-4.201 5.084-4.042 8.386-7.847 8.386-9.663 0-3.227-3.011-11.424-5.008-13.635C20.674 109.828 15 99.195 15 96.65c0-1.825 1.643-3.941 6-7.731 6-5.219 7.882-9.638 4.893-11.485-.747-.462-.885.015-.425 1.466M53.5 167.572c-5.5 1.294-12.7 2.638-16 2.988-3.3.35-8.902 1.281-12.45 2.07-13.593 3.022-19.903 3.513-22.583 1.756L0 172.77l.021 19.865.02 19.865 9.73 8.776c5.351 4.827 10.845 9.617 12.209 10.645 2.178 1.642 2.353 2.217 1.438 4.724-1.085 2.975.604 7.355 2.837 7.355.563 0 1.628.787 2.366 1.75 1.599 2.086 3.337.32 3.364-3.417.008-1.191.418-2.316.91-2.5.493-.183 1.122-2.05 1.399-4.149.643-4.87 1.076-5.238 3.864-3.286 3.149 2.206 3.842 2.022 3.842-1.02 0-1.959.317-2.373 1.25-1.635.688.544 2.517 1.217 4.065 1.497l2.815.508-.625-4.612c-.344-2.537-1.274-5.328-2.065-6.203-1.772-1.958-1.86-4.565-.19-5.633.688-.44 1.73-1.67 2.317-2.733 1.777-3.221 4.145-4.228 6.492-2.762 3.003 1.875 5.895.669 5.367-2.238-.361-1.994.08-2.439 2.954-2.979 2.755-.516 3.491-1.192 3.984-3.656.577-2.885-.673-10.165-2.477-14.432a120.44 120.44 0 01-1.842-4.75c-.547-1.512-1.569-2.757-2.27-2.765-.701-.008.429-1.471 2.512-3.25 2.714-2.318 3.956-4.298 4.381-6.985.731-4.62-.215-4.694-15.168-1.178M15.732 287.25c-5.507 11.302-7.219 21.116-6.345 36.365.343 5.987.9 21.164 1.238 33.728.592 22.035.541 22.942-1.456 25.642-1.971 2.666-2.023 3.413-1.102 15.657C9.233 414.127 9.605 416 11.519 416c.913 0 1.481.959 1.481 2.5 0 3.009 2.581 3.396 3.492.524.345-1.087.138-6.599-.459-12.25-.598-5.651-1.233-11.849-1.412-13.774-.178-1.925.319-5.525 1.106-8 .787-2.475 1.581-7.075 1.765-10.222.183-3.146 1.048-7.153 1.921-8.903 1.701-3.411 2.053-5.875.837-5.874-1.138.001-.72-6.048.721-10.413.863-2.614 1.05-6.029.575-10.483-1.611-15.11-1.177-21.188 1.68-23.498l2.606-2.107-1.996-5c-3.184-7.976-4.811-14.638-4.824-19.75-.014-5.554-1.07-6.037-3.28-1.5m1.912 159.778c-.387 1.936.245 4.673 1.928 8.349 1.628 3.555 2.287 6.335 1.884 7.942-.543 2.162-.167 2.621 3.001 3.667 4.238 1.398 8.315-.415 5.045-2.245-1.186-.664-1.452-1.694-.984-3.825 1.078-4.905-.292-9.107-2.571-7.887-1.59.85-2.001.605-2.531-1.507-.348-1.387-1.034-2.522-1.524-2.522-.491 0-.892-.852-.892-1.893 0-3.235-2.712-3.299-3.356-.079" fill="#d3d3d3" fill-rule="evenodd"/></svg>