<svg xmlns="http://www.w3.org/2000/svg" width="500" height="500"><path d="M0 250.002v250.002l250.25-.252 250.25-.252.252-249.75L501.004 0H0v250.002m.492.498c0 137.5.116 193.601.258 124.67.142-68.932.142-181.432 0-250C.608 56.601.492 113 .492 250.5M267.75 124.08c-2.553 1.487-2.139 2.717.732 2.168 4.867-.93 7.376.466 8.106 4.51.842 4.663 2.243 7.465 3.382 6.761 1.133-.701 4.03 2.212 4.03 4.052 0 .786-.45 1.429-1 1.429-2.381 0-.678 1.912 3.02 3.391 6.683 2.674 6.666 1.834-.187-9.273-6.651-10.779-13.492-15.712-18.083-13.038m-54.584 4.765c-1.741 1.627-3.166 3.417-3.166 3.979 0 .561-1.579 1.542-3.509 2.179-5.309 1.752-9.178 6.997-5.162 6.997.736 0 1.294 1.005 1.25 2.25-.06 1.709.402 2.173 1.921 1.931 13.632-2.176 33.879-.843 49.247 3.242 8.761 2.328 6.904-2.219-2-4.899-2.443-.735-5.69-2.494-7.216-3.908-4.122-3.82-14.783-5.279-23.741-3.249l-3.711.841 1.632-4.155c1.564-3.98 1.548-4.239-.373-6.16l-2.006-2.006-3.166 2.958m-31.131 3.089c-1.456 2.721-1.288 9.677.517 21.447 1.935 12.611 2.227 13.583 3.486 11.591.742-1.173.934-1.032.947.695.008 1.191-.495 2.336-1.118 2.544-.744.248-.849 1.219-.305 2.833l.828 2.456.61-3 .61-3 .52 3.238c.493 3.067.332 3.268-3.055 3.821-16.808 2.748-23.075 4.523-23.075 6.535 0 .563.52.703 1.155.311.732-.453.882-.274.41.49-.865 1.399 8.532.838 24.861-1.484 5.46-.776 11.661-1.411 13.782-1.411 4.927 0 11.832-2.739 9.906-3.93-1.082-.668-.978-1.069.516-1.994 1.454-.9-.372-1.016-8.218-.52l-10.087.636-1.163-7.038c-.639-3.872-1.162-7.468-1.162-7.992 0-.525 2.25-2.397 5-4.162 2.75-1.765 5-3.851 5-4.636 0-2.586-2.806-2.568-6.65.044-4.749 3.227-5.192 2.593-6.015-8.62-.335-4.558-1.052-8.85-1.594-9.538-1.477-1.873-4.533-1.506-5.706.684M409 137.668c0 3.118.512 8.606 1.137 12.196.871 5.002.843 8.831-.119 16.38-1.388 10.892-.914 12.601 2.359 8.506 2.543-3.181 4.108-3.464 5.543-1 .561.963 1.033 1.397 1.05.965.016-.432.897-.321 1.958.246 2.32 1.242 5.072.372 5.072-1.603 0-1.102.442-1.192 1.934-.393 4.3 2.301 6.989.215 3.316-2.573-1.637-1.243-1.619-1.33.287-1.36 1.538-.024 2.094-.768 2.266-3.032.126-1.65-.255-3-.846-3s-.797-.45-.457-1-.11-1-1-1-1.34.45-1 1c.34.55.168 1-.382 1-1.76 0-2.39-2.102-2.661-8.88-.489-12.258-1.936-15.328-8.936-18.957-8.791-4.558-9.521-4.366-9.521 2.505m-89 10.502c0 3.935-8.372 16.86-15.442 23.839-4.157 4.103-7.558 8.03-7.558 8.726 0 .696-.565 1.265-1.256 1.265-1.54 0-11.841 11.344-13.304 14.652-.583 1.317-1.308 2.146-1.613 1.842-.914-.915-6.827 4.821-6.827 6.622 0 .918-.722 1.947-1.604 2.285-.882.339-1.367 1.232-1.078 1.986.289.753.021 1.874-.596 2.491-.829.829-.678 1.122.578 1.122 1.033 0 1.7-.784 1.7-2 0-1.1.645-2 1.433-2s1.725-.924 2.084-2.053c.52-1.639.936-1.816 2.067-.877 1.085.901 1.416.899 1.416-.007 0-.649.45-.903 1-.563.55.34 1-.035 1-.834 0-.799.675-1.711 1.5-2.028.825-.316 1.512-1.826 1.526-3.357.025-2.627.132-2.56 1.931 1.219 1.756 3.686 1.959 3.824 2.591 1.75 1.155-3.791 3.075-2.564 2.504 1.6-.102.743.235 1.091.749.773.515-.318 1.297-3.401 1.739-6.851.752-5.875.847-6.051 1.5-2.772.383 1.925.756 2.938.828 2.25.073-.687.859-1.25 1.749-1.25 1.124 0 1.457.609 1.093 2-.287 1.1-.06 2 .506 2 .663 0 .633.477-.085 1.342-1.692 2.039-.219 2.713 1.923.879 1.269-1.086 1.697-2.367 1.307-3.917-.318-1.267-.192-2.297.281-2.289 1.405.025 3.849 1.834 3.983 2.949.069.57.237 1.149.373 1.286.246.248.971 7.647 1.075 10.98.058 1.845 1.927 3.618 1.927 1.829 0-.582.424-1.059.943-1.059.518 0 .765.922.547 2.05-.521 2.709 2.393 3.831 4.054 1.559.949-1.297 1.381-1.398 1.776-.412.287.717.602-.272.701-2.197.098-1.925.539-4.625.979-6l.801-2.5.215 2.5c.118 1.375.319 2.95.447 3.5.128.55.301 2.511.385 4.357.115 2.539.517 3.217 1.652 2.781 1.039-.398 1.539.107 1.626 1.643.07 1.221.519-.831.999-4.56.525-4.078.497-8.261-.07-10.5-.518-2.046-1.406-5.521-1.974-7.721-1.2-4.644-1.254-21.837-.081-25.5.44-1.375.852-2.05.916-1.5.063.55.486.414.94-.301.819-1.291 6.144.192 6.144 1.712 0 .324 1.35.589 3 .589 2.322 0 3.008-.452 3.035-2 .033-1.857.127-1.836 1.305.287.698 1.257 1.177 3.62 1.064 5.25-.115 1.672.296 2.976.946 2.993.632.017.381.479-.558 1.027-.943.549-1.455 1.657-1.143 2.469.311.811.227 2.261-.186 3.224-.412.963-.645 3.049-.517 4.636.128 1.587-.145 3.162-.606 3.5-2.455 1.796-10.34 21.238-10.34 25.495 0 2.253 5.148 8.137 6.199 7.086.309-.308.891.698 1.295 2.236.67 2.548.804 2.619 1.513.797.764-1.964.793-1.965 1.566-.06.497 1.226.356 2.084-.385 2.331-.864.288-.886.924-.087 2.417 1.437 2.685 3.164.28 11.482-15.993 1.21-2.367 2.483-4.27 2.828-4.229 1.928.233 3.318-2.799 2.912-6.348-.422-3.691-.358-3.796 1.299-2.139s1.806 1.651 3.026-.118c.706-1.024 1.749-2.405 2.318-3.069.569-.664 1.066-4.489 1.104-8.5.049-5.002.34-6.664.93-5.292.766 1.783.867 1.707.93-.703.167-6.449-6.285-15.091-15.195-20.351-13.81-8.153-18.735-11.867-18.735-14.129 0-2.641-1.755-3.962-3.261-2.456-.783.783-2.018.511-4.413-.969-2.41-1.489-3.326-1.688-3.326-.722m-168.217 19.58c-3.421 3.922-6.961 18.25-4.509 18.25.519 0 .668 1.094.332 2.432-.468 1.867-.145 2.579 1.392 3.067 1.101.35 2.002 1.225 2.002 1.946 0 .721.661 1.858 1.468 2.528.807.671 1.434 1.513 1.392 1.873-.151 1.295 1.388 5.154 2.056 5.154.375 0 1.228 1.463 1.896 3.25 1.046 2.803 11.268 14.279 15.364 17.25 2.387 1.731 8.215 4.406 11.038 5.065 1.493.349 2.986 1.489 3.318 2.534.749 2.361 2.069 2.436 3.327.189.827-1.479 1.257-1.206 3.147 1.998 1.205 2.041 2.596 3.46 3.092 3.153.496-.306.902-.032.902.609s.675.907 1.5.59c.825-.316 1.5-.113 1.5.452 0 .566.45.75 1 .41s1-.141 1 .441c0 1.54 2.391.82 3.128-.941.475-1.134.941-.83 1.911 1.25.705 1.512 1.616 2.75 2.024 2.75.408 0 1.227 1.394 1.821 3.098.961 2.756.855 3.158-.958 3.632-1.207.315-1.825 1.092-1.514 1.901.289.753.089 1.369-.443 1.369-.533 0-.969-.369-.969-.821 0-.451-3.713-.635-8.25-.409-8.177.408-24.446-3.066-27.186-5.806-2.495-2.495-3.568.254-1.155 2.957.776.869 1.677 3.292 2.004 5.385.82 5.253 2.71 8.518 7.637 13.194l4.215 4-.632-3.372c-.515-2.749-.384-3.166.71-2.259 2.021 1.678 2.789.157 1.122-2.223-3.051-4.356-1.303-4.999 2.207-.812 4.209 5.021 14.108 11.855 11.828 8.166-.907-1.467.596-1.219 2.421.401 4.227 3.749 10.866 6.598 11.503 4.935.342-.89.006-2.567-.747-3.727-1.194-1.84-1.133-2.354.477-4.034 2.384-2.486 2.337-3.575-.154-3.575-1.1 0-2-.445-2-.989 0-.995-2.011-3.737-5.25-7.161-1.958-2.07-2.187-2.85-.835-2.85 1.976 0 12.999 10.435 11.803 11.174-.93.575-.921 1.023.04 1.984.989.989 1.242.896 1.242-.458 0-.935.45-1.7 1-1.7s1 .45 1 1 .477 1 1.059 1 .751-.498.375-1.107c-.47-.76.061-.878 1.691-.376l2.375.731-2.424-2.624c-1.992-2.155-2.126-2.624-.75-2.624.921 0 1.674-.52 1.674-1.155 0-.655.866-.371 2 .655 2.358 2.134 2.628 3.678.5 2.862-1.775-.682-2.032 1.191-.309 2.256.655.405 1.368.204 1.585-.447.447-1.34 2.224-.583 2.224.947 0 .55-.385.762-.856.471-.47-.291-.643.583-.383 1.941.26 1.359 1.095 2.47 1.856 2.47.76 0 1.383.603 1.383 1.339 0 1.59 6.896 8.098 7.714 7.28.311-.31-.56-2.039-1.935-3.842-2.582-3.386-3.246-4.839-2.141-4.692.351.047 1.003-.503 1.448-1.223.624-1.011 1.392-.762 3.361 1.089 1.404 1.318 2.553 1.938 2.553 1.377 0-1.752-3.099-7.328-4.073-7.328-.51 0-.927-.436-.927-.969 0-.532.675-.709 1.5-.393 1.971.757 1.935.553-1.063-5.994-1.409-3.078-3.659-6.46-5-7.515-1.34-1.054-2.437-2.913-2.437-4.13 0-1.483-.461-2.036-1.396-1.677-.768.294-3.288 1.102-5.601 1.795l-4.205 1.26-5.649-6.051c-6.834-7.321-11.045-10.422-18.777-13.827-3.229-1.423-7.071-3.244-8.537-4.049-2.085-1.144-2.775-1.189-3.173-.206-.367.904-.741.944-1.336.141-.454-.613-3.526-2.629-6.826-4.481-7.539-4.23-8.857-5.34-13.012-10.956C158.086 199.646 153 183.72 153 174.106c0-6.048 1.395-6.568 6.721-2.505 4.871 3.715 5.08 2.356.303-1.961-4.518-4.081-6.027-4.427-8.241-1.89m87.262-.95c-.025.714.628 2.6 1.449 4.189 1.464 2.83 1.442 2.886-1.039 2.696-1.394-.108-2.96-.868-3.479-1.69-.812-1.285-.948-1.259-.961.184-.01 1.18-1.723 2.172-5.765 3.339-6.262 1.808-12.25 5.734-12.25 8.033 0 1.705 1.588 1.924 2.559.353 1.003-1.623 14.542-7.904 17.038-7.904 1.533 0 2.33.792 2.769 2.75.776 3.464 10.845 17.117 11.399 15.455.528-1.583-3.777-8.787-7.71-12.901-3.298-3.45-4.031-5.893-1.473-4.911.87.334 1.927.607 2.35.607.423 0 2.239 2.897 4.037 6.438 5.573 10.981 8.42 9.322 3.081-1.795-2.973-6.192-11.922-17.256-12.005-14.843m125.071 53.932c-.111 1.179-6.129 13.929-10.03 21.249-1.02 1.915-1.771 4.698-1.668 6.185.13 1.865-.372 2.85-1.615 3.175-1.415.37-1.803 1.484-1.803 5.172 0 3.768-.298 4.587-1.5 4.125-1.344-.515-2.021.975-1.628 3.582.059.396-.751 1.18-1.801 1.742-1.049.562-2.228 2.488-2.617 4.28-.39 1.792-1.327 4.146-2.082 5.231-.754 1.084-1.375 3.334-1.378 5-.007 4.149-1.882 10.558-3.586 12.262-.774.774-1.408 2.474-1.408 3.777 0 2.451-1.452 3.916-3.925 3.962-1.374.025-3.589 5.511-2.239 5.541.365.008-.45.578-1.811 1.267-1.82.92-2.672 2.402-3.216 5.592-.408 2.387-1.145 4.854-1.638 5.483-.494.628-.966 3.484-1.051 6.344-.084 2.861-.622 7.586-1.195 10.5-.573 2.915-1.455 10.924-1.961 17.799-1.037 14.099-1.702 18-3.068 18-.521 0-1.219-1.366-1.553-3.036-.714-3.569-3.712-5.964-7.465-5.964H301.2l.15 8.219.15 8.218 3.5 1.032c6.23 1.835 9 4.358 9 8.196 0 1.889.655 4.702 1.456 6.251 1.138 2.199 1.228 3.646.41 6.607-.576 2.085-.839 5.183-.585 6.884.354 2.373-.197 3.846-2.366 6.328l-2.828 3.235-.293-7.235c-.229-5.634-.626-7.235-1.794-7.235-1.142 0-1.521 1.321-1.588 5.538-.151 9.441-2.221 14.111-3.863 8.712-1.15-3.784-1.75-.139-.64 3.884 1.299 4.702.915 5.066-3.622 3.425-3.495-1.264-3.768-1.201-5.975 1.364-2.965 3.448-2.928 3.805.843 8.101 3.614 4.115 10.329 7.888 12.534 7.042.921-.353 1.678.12 1.968 1.229.259.992 1.286 2.313 2.282 2.935 1.678 1.048 1.811.656 1.811-5.318 0-3.547-.394-6.692-.875-6.989-1.233-.762-1.088-5.144.257-7.739 2.97-5.733 7.343-11.684 8.586-11.684 2.865 0 7.024-3.012 9.661-6.997 1.502-2.27 6.047-7.362 10.1-11.315 4.052-3.953 10.363-11.238 14.023-16.188 8.145-11.015 9.765-11.904 5.212-2.861-1.9 3.773-4.511 9.561-5.802 12.861-2.644 6.76-16.963 22.834-19.838 22.27-1.945-.381-4.549 4.155-3.175 5.529.611.611 1.842.005 3.394-1.67 1.34-1.446 2.756-2.629 3.147-2.629 2.284 0 12.317-9.586 17.72-16.931C366.007 378.967 383.101 359 385.04 359c.528 0 .924-.788.881-1.75-.047-1.045-.282-1.247-.583-.5-.278.688-.903 1.25-1.39 1.25-.487 0-.598-.747-.248-1.661.509-1.327.189-1.543-1.594-1.077-3.991 1.044-1.063-6.948 5.071-13.841 2.473-2.779 3.306-18.991 1.278-24.877-.97-2.815-1.052-4.175-.281-4.651.761-.471.598-2.113-.543-5.461-.897-2.634-1.631-5.679-1.631-6.769 0-1.749-.262-1.661-2.25.757-1.238 1.505-3.937 4.466-6 6.58-2.062 2.114-3.75 4.553-3.75 5.422 0 .868-.45 1.578-1 1.578s-1 .649-1 1.443-.889 2.066-1.976 2.827c-1.086.761-2.566 2.699-3.289 4.307-5.272 11.732-10.463 13.931-6.358 2.693 2.793-7.644 4.827-19.087 3.728-20.975-.574-.987-1.058-1.263-1.075-.612-.016.65-.818 1.435-1.78 1.744-.962.309-3.051 3.152-4.64 6.317-1.59 3.166-3.279 6.431-3.755 7.256-2.906 5.039-7.855 16.429-7.855 18.08 0 2.119-2.345 7.92-3.201 7.92-.439 0-.799.788-.8 1.75 0 2.175-3.55 11.633-5.468 14.569-.783 1.2-3.264 6.906-5.512 12.681-5.683 14.598-7.208 18-8.069 18-.933 0 2.717-14.456 4.54-17.981.741-1.433 2.554-8.661 4.028-16.062 3.432-17.226 9.313-37.514 13.467-46.457 1.788-3.85 3.838-9.475 4.557-12.5 1.322-5.57 3.73-12.848 5.459-16.5.521-1.1 3.426-9.541 6.457-18.758 5.155-15.679 5.541-17.532 5.98-28.75.258-6.599.074-11.992-.411-11.992-.484 0-1.086-.787-1.338-1.75-.251-.963-.509-1.196-.573-.518M243 241.151c5.678 1.183 8.247 2.413 14.558 6.974 2.782 2.01 5.932 3.843 7 4.074 1.068.231 1.81 1.013 1.649 1.738-.195.88.387 1.141 1.749.785 1.123-.294 2.264-.176 2.535.263.27.438 2.746 1.975 5.5 3.415 4.477 2.341 5.017 2.432 5.088.86.047-1.046.283-1.253.583-.51.278.688 1.105 1.25 1.838 1.25.733 0 1.49.47 1.681 1.044.192.575 1.355 1.121 2.584 1.213 1.229.093 2.491.973 2.803 1.956.312.983.972 1.787 1.468 1.787s.614-.788.263-1.75c-.554-1.519-.339-1.487 1.636.25 1.251 1.1 2.453 1.887 2.67 1.75 1.173-.742 2.395-.05 2.395 1.357 0 .987.555 1.394 1.439 1.055.844-.324 2.912.964 5 3.114 2.249 2.314 3.561 3.105 3.561 2.144 0-1.49-7.931-10.137-9.47-10.325-.429-.052-2.238-1.47-4.019-3.15-7.639-7.204-41.78-20.556-52.002-20.338l-5.009.107 4.5.937m13 170.127c0 1.381 3.468 4.722 4.9 4.722.483 0 .848.563.812 1.25-.132 2.477 3.623 9.75 5.033 9.75 3.224 0 11.988 6.488 16.255 12.032 2.475 3.216 4.837 5.874 5.25 5.908.413.033.75.542.75 1.131 0 .59.674 1.746 1.498 2.57 2.069 2.069 2.944 6.122 1.656 7.673-.841 1.014-11.762 1.334-51.361 1.504-50.162.215-67.42.77-68.302 2.197-.58.938 7.408 3.012 11.202 2.908 2.534-.069 2.419-.205-1.193-1.395-5.575-1.837-1.265-1.917 6.169-.114 8.469 2.054 17.235 2.929 15.331 1.531-1.963-1.442.809-.873 11.5 2.359 8.481 2.564 19.021 4.335 16.604 2.79-.864-.552 1.807-.782 7-.602 8.58.297 17.703 2.914 27.896 8.002 6.056 3.024 9.455 4.052 8.55 2.586-.869-1.405-14.63-8.34-20.05-10.105-2.2-.716-3.529-1.46-2.953-1.654.577-.194 3.628.535 6.781 1.62 3.154 1.085 6.354 1.734 7.113 1.443.758-.291 2.769.19 4.469 1.069 4.048 2.094 4.003.574-.052-1.734-4.56-2.596-2.796-3.219 2.233-.789 5.111 2.469 5.537 2.531 3.909.57-1.808-2.179.023-1.907 6.53.971 5.299 2.343 5.554 2.369 4.961.5-.598-1.885.866-2.629 3.971-2.019.529.104 1.553-.62 2.277-1.609.928-1.269 1.707-1.511 2.648-.821 6.703 4.919 6.343 4.807 8.634 2.673 1.167-1.087 2.941-1.756 3.955-1.491 2.252.589 5.733-2.697 6.625-6.252.846-3.368-.572-4.708-3.047-2.881-1.511 1.115-1.679 1.704-.75 2.633 1.863 1.863 1.452 2.488-2.054 3.126-1.788.326-4.262.887-5.5 1.248-1.862.542-2.25.266-2.25-1.601 0-1.241-.788-2.843-1.75-3.559-1.642-1.223-1.581-1.608 1-6.258 4.341-7.821 3.361-9.391-2.597-4.16-4.36 3.828-3.951 3.971-7.776-2.714C286.545 436.966 260.4 410 256.696 410c-.383 0-.696.575-.696 1.278m194 37.873c-1.925.401-5.2 1.004-7.278 1.34-2.078.335-3.514 1.037-3.191 1.56.538.87-1.711 1.44-3.967 1.006-.514-.1-1.995.085-3.29.41-3.142.789-1.913 2.533 1.785 2.533 1.711 0 2.836.486 2.691 1.162-.137.639 1.55 1.546 3.75 2.014 2.2.468 4.675 1.133 5.5 1.477 4.715 1.965 10.302 2.316 11.469.721.873-1.195 1.66-1.275 3.949-.405 3.302 1.255 4.387.706 2.676-1.356-1.88-2.265.266-2.75 4.915-1.11 4.023 1.42 4.199 1.401 3.729-.396-1.03-3.941.743-4.234 6.626-1.094 6.315 3.37 9.2 3.139 4.89-.392-5.967-4.887-25.845-9.223-34.254-7.47m-63.548 12.942c-.88 1.701-1.454 3.198-1.276 3.327 4.311 3.117 15.824 6.462 15.824 4.597 0-.83.899-1.03 2.75-.61 2.514.57 2.596.503.947-.791-1.353-1.061-1.478-1.545-.5-1.941.916-.37.56-1.137-1.197-2.579-2.042-1.676-2.18-2.056-.75-2.074.962-.012 1.75-.415 1.75-.895 0-.934-8.196-.742-9.767.229-.516.319-1.792-.066-2.836-.856-2.685-2.033-3.147-1.884-4.945 1.593m87.048 5.406c-11.759 3.126-17.062 4.733-18 5.455-.55.424-2.238 1.066-3.75 1.427s-2.75 1.053-2.75 1.537c0 1.232 6.93 1.673 25.5 1.624 14.554-.038 16.298-.233 19.3-2.161l3.299-2.12-3.02-2.541c-1.661-1.398-5.306-3.032-8.099-3.631-6.025-1.292-6.084-1.29-12.48.41" fill="#d3d3d3" fill-rule="evenodd"/></svg>