<svg xmlns="http://www.w3.org/2000/svg" width="500" height="700"><path d="M0 350.002v350.002l250.25-.252 250.25-.252.251-349.75L501.003 0H0v350.002m.494.498c0 192.5.115 271.399.256 175.331.141-96.068.141-253.568 0-350C.609 79.399.494 158 .494 350.5M40.882 12.75a5.707 5.707 0 000 1.5c.187 1.184-3.688.873-4.448-.357-1.296-2.097-2.403 1.47-2.419 7.798-.008 3.405-.465 6.469-1.015 6.809-1.378.852-1.263 6.246.143 6.714.858.286.857.917-.002 2.523-.836 1.562-.846 2.327-.037 2.827 1.886 1.166-1.317 2.493-4.433 1.837-2.362-.496-2.778-.29-2.517 1.252.172 1.016-.017 1.959-.42 2.097-1.903.648-2.436.038-2.16-2.474.367-3.339-1.456-6.067-2.72-4.073-.621.979-.827.888-.839-.371-.041-4.491 2.965-6.476 4.812-3.178 1.371 2.452 3.796.981 4.543-2.756 1.051-5.255-1.555-6.311-8.847-3.586-3.793 1.418-4.043 1.387-5.418-.663-2.144-3.195-2.148-3.197-3.041-1.752C11.208 28.282 14.076 32 16 32c.55 0 1 .498 1 1.107s-.661.853-1.468.544c-.807-.31-1.734-.133-2.059.393-.832 1.346-4.21 1.191-5.091-.235-.405-.655-.22-1.363.411-1.573 1.348-.45-1.391-3.594-3.918-4.496-3.107-1.111-2.377 8.265.859 11.046 2.66 2.285 2.662 2.298.469 2.871-1.532.401-2.23 1.378-2.292 3.21-.049 1.448-.293 4.995-.544 7.883-.356 4.109-.142 5.25.982 5.25.79 0 1.71.712 2.044 1.582C7.273 61.876 7.202 62 5 62c-1.619 0-2 .667-2 3.5 0 1.925.48 3.5 1.067 3.5.621 0 .796.857.418 2.048-.358 1.126-.136 2.667.492 3.424 1.236 1.489.437 8.154-1.09 9.098-1.572.971-.944 2.43 1.046 2.43 1.063 0 2.218-.9 2.567-2 .406-1.278 1.513-2 3.067-2 3.055 0 3.164-1.771.183-2.969-1.92-.771-1.667-.914 1.723-.968 3.89-.062 3.926-.095 1.742-1.625-1.226-.859-3.238-1.421-4.472-1.25-1.878.261-2.294-.216-2.556-2.938-.173-1.787.102-3.25.611-3.25s.71 1.125.447 2.5c-.411 2.149-.113 2.5 2.127 2.5 3.476 0 3.364-4.707-.15-6.309-2.698-1.229-2.908-7.191-.254-7.191.814 0 1.927-1.558 2.5-3.5.568-1.925 1.707-3.584 2.532-3.686.825-.102 2.522-.495 3.772-.872 2.118-.64 2.202-.505 1.25 2.001-1.386 3.645-1.367 3.682 1.478 2.968 2.188-.55 2.5-.302 2.5 1.981C24 60.826 23.55 62 23 62c-2.784 0-.638 2.706 2.21 2.787 1.766.05 2.728-.219 2.139-.598C25.276 62.857 25.133 57 27.173 57 28.189 57 29 56.282 29 55.383c0-1.124-.609-1.457-2-1.093-1.1.287-2 .115-2-.384 0-.498.563-.963 1.25-1.034.688-.07 2.375-.244 3.75-.387 3.442-.358 4.453.464 2.408 1.958-1.086.795-1.325 1.49-.653 1.905.581.36.84 1.484.575 2.499-.389 1.486.116 1.861 2.594 1.932 2.404.068 3.076-.335 3.076-1.846C38 57.87 38.675 57 39.5 57c.851 0 1.5-.897 1.5-2.071 0-1.899.134-1.938 1.599-.473 1.273 1.273 1.352 1.898.388 3.06-.981 1.182-.857 1.572.65 2.046 4.684 1.473 6.861 3.398 6.675 5.904-.104 1.394.26 2.534.809 2.534.548 0 .679.515.289 1.145-.487.789.106.989 1.906.645 1.438-.274 2.742-.213 2.899.136.639 1.426 7.294 3.957 7.657 2.913.204-.589-.198-1.422-.894-1.852-.718-.444-1.021-1.714-.701-2.94.425-1.623-.01-2.375-1.759-3.04-2.79-1.061-3.93-2.634-2.534-3.497.559-.345 1.016-.151 1.016.431S59.695 63 60.544 63c.849 0 1.471-.562 1.381-1.25-.419-3.232.051-4.325 1.185-2.75.91 1.266.991 1.227.516-.25-.324-1.005-.044-1.777.655-1.813.671-.035.2-.473-1.046-.974C60.887 55.02 59 51.385 59 47.802c0-1.137-.819-2.795-1.819-3.685-2.634-2.341-3.148-4.442-1.602-6.556C56.918 35.73 56.664 34 55.058 34c-.454 0-1.06.9-1.348 2-.287 1.1-.966 2-1.508 2-1.247 0-2.482-4.738-1.604-6.158.362-.586.038-1.458-.72-1.938-.998-.633-1.033-.878-.128-.889.688-.008 1.25-.614 1.25-1.346 0-2.088 4.926-4.406 5.926-2.789.62 1.003.93.937 1.403-.296.492-1.281-.15-1.584-3.36-1.584-4.011 0-6.103-2.904-2.219-3.079.962-.043 1.235-.29.606-.548-.629-.258-.93-1.285-.669-2.283.572-2.19-3.089-3.48-5.783-2.039-2.708 1.45-6.613 1.258-5.104-.251.66-.66 1.2-1.56 1.2-2 0-1.013-1.959-1.059-2.118-.05m262.568.153c-.522.497-1.841 1.064-2.931 1.26-1.34.242-1.987 1.161-2 2.843-.01 1.367-.48 2.488-1.043 2.49-1.037.004-6.476 3.949-6.476 4.697 0 .223 1.575.222 3.5-.003s3.5-.922 3.501-1.549c0-.628 1.013-1.258 2.25-1.402 6.138-.711 7.079-.647 7.481.511.286.822-.706 1.295-2.899 1.382l-3.333.131 3.421.619c6.163 1.114 4.824 2.996-2.362 3.321-3.618.163-6.568.747-6.557 1.297.011.55.766 1.002 1.677 1.004.912.003 1.844.565 2.073 1.251.263.79-.165 1.024-1.168.639-.871-.335-1.584-.11-1.584.499 0 .975.541 1.135 3.722 1.099.397-.005.734-1.017.75-2.25.028-2.249.401-2.411 6.028-2.626 2.766-.106 3-.4 3-3.772 0-2.243.542-3.842 1.402-4.135 1.011-.344 1.246.117.843 1.657-.307 1.174-.193 2.134.252 2.134.446 0 .966-2.25 1.156-5.001.354-5.107-.771-6.007-6.403-5.117-.413.065-.75-.332-.75-.882 0-1.246-2.276-1.308-3.55-.097m27.8.917c-1.238.175-2.25.94-2.25 1.7 0 .759-.788 1.839-1.75 2.4-1.667.971-1.667 1.021 0 1.05 2.201.038 2.21.864.038 3.265-1.661 1.835-1.563 1.882 3.25 1.578 4.078-.257 4.91-.625 4.668-2.063-.428-2.549 1.457-2.147 2.138.456.769 2.943.351 3.204-4.709 2.942-2.894-.15-4.749.285-5.603 1.314-1.11 1.337-.77 1.553 2.596 1.656 3.586.11 3.657.165.954.75-3.639.788-4.469 2.83-1.39 3.419l2.308.441-2.25.136c-1.238.075-2.25.634-2.25 1.243 0 .609-.675.848-1.5.531-.825-.316-1.5-.139-1.5.393 0 .54 3.358.969 7.583.969 5.625 0 7.475-.323 7.162-1.25-.232-.687-1.282-1.296-2.333-1.352-4.489-.239-4.624-.696-.412-1.397 4.838-.804 7.052-.292 4.857 1.124-1.802 1.162.839 3.094 3.392 2.482 3.18-.762 4.741 4.901 1.579 5.728-1.006.263-1.828.956-1.828 1.54 0 .584.675.803 1.5.487.825-.317 1.5-.135 1.5.404s-2.137 1.016-4.75 1.059c-3.644.06-4.343-.155-3-.923.962-.551 1.75-1.396 1.75-1.878 0-.483-.788-1.083-1.75-1.335-1.111-.29-.775-.499.918-.573 3.452-.15 5.832-1.082 5.832-2.283 0-.525-1.669-.814-3.708-.643-3.167.265-4.006.881-5.75 4.222-1.802 3.453-2.081 3.645-2.376 1.642-.289-1.971-.747-2.188-3.468-1.644-4.275.855-5.847 2.57-2.108 2.3 2.229-.161 2.845.182 2.634 1.464-.159.961.587 1.949 1.75 2.318 1.114.353 2.026 1.287 2.026 2.075 0 .788.45 1.433 1 1.433s1 .471 1 1.048c0 1.498 5.024 5.952 6.713 5.952.967 0 1.219.64.787 2-.57 1.797-.18 2 3.851 2 2.467 0 5.271.301 6.231.67 1.191.457 1.516.298 1.023-.5-.432-.698-.107-1.17.805-1.17.947 0 1.308.57.952 1.5-.541 1.41 1.42 1.953 6.388 1.769.688-.026 1.25 1.028 1.25 2.342 0 3.241 1.801 3.03 2.639-.308.431-1.719.25-2.84-.499-3.09-2.366-.788-4.196-3.461-3.618-5.283.539-1.698-.042-1.856-6.716-1.827-6.554.028-15.9-1.835-10.306-2.055 1.45-.057 1.641-.306.697-.905-.716-.454-1.166-1.46-1-2.235.212-.984-1.053-1.589-4.197-2.008-4.009-.534-2.999-1.375 1.161-.967.914.089 1.954-.31 2.311-.888.431-.697 1.258-.725 2.457-.083.995.532 2.092.683 2.44.336.347-.347.631.119.631 1.035 0 .927.777 1.66 1.75 1.652 1.384-.012 1.462-.198.372-.889-2.077-1.315-.388-3.096 2.937-3.096 1.618 0 2.941-.513 2.941-1.139 0-.782-1.592-.951-5.07-.539-3.738.443-4.963.282-4.662-.611.225-.666 1.269-1.257 2.32-1.313l4.721-.25c1.545-.081 2.565-.544 2.266-1.027-.299-.483-2.635-.643-5.191-.355-3.681.415-4.551.235-4.184-.867.255-.765 1.209-1.392 2.121-1.395.911-.002 1.641-.454 1.622-1.004-.02-.55-1.231-.843-2.693-.652-2.369.311-2.509.169-1.29-1.3 1.169-1.408 1.125-1.891-.296-3.312-1.058-1.059-1.664-1.222-1.664-.45 0 1.943-2.806 1.4-3.463-.67-.329-1.036-1.147-1.865-1.818-1.842-.67.022-2.757-.03-4.636-.116-5.938-.274-2.44-1.426 4.859-1.6 7.818-.186 9.322-.89 6.485-3.037-1.816-1.374-1.741-1.459 1.323-1.489 1.788-.018 3.25-.482 3.25-1.032s-1.773-1-3.941-1-4.219.45-4.559 1c-.34.55-.141 1 .441 1s1.059.585 1.059 1.299c0 .887-1.071 1.174-3.375.905-2.789-.325-3.375-.811-3.375-2.799 0-1.646.566-2.405 1.793-2.405 2.478 0 4.957-1.041 4.957-2.08 0-.477-2.137-.739-4.75-.583-2.613.156-6.1-.028-7.75-.408-2.914-.673-2.886-.701 1-.994 2.2-.166 5.012-.247 6.25-.18 1.238.067 2.25-.417 2.25-1.074 0-1.15-6.409-1.62-11.75-.861m-214.908 4.629c.679 1.768-1.28 2.463-7.608 2.699-4.05.151-4.682.441-4.208 1.934.712 2.245-2.451 3.342-7.113 2.468-3.006-.564-3.413-.389-3.413 1.464 0 1.157-.43 1.838-.956 1.513-.526-.325-.703-1.252-.393-2.059.888-2.314-2.334-1.758-4.056.7-1.735 2.476.029 4.675 3.905 4.868 1.868.093 1.851.171-.25 1.184C89.106 34.737 89.447 36 93 36c1.65 0 3 .423 3 .941 0 1.383-1.77 2.24-2.428 1.175-.312-.504-2.173-.916-4.136-.916s-3.839-.27-4.169-.6c-.33-.33.375-.6 1.566-.6C88.025 36 89 35.55 89 35c0-1.842-3.476-.991-5.75 1.408-2.753 2.905-2.774 3.222-.25 3.882 1.1.287 2 1.295 2 2.239 0 1.389-.277 1.486-1.456.507-1.496-1.241-3.544-.65-3.544 1.023 0 .518 2.053.941 4.563.941 4.158 0 4.535-.2 4.25-2.25-.248-1.779.231-2.313 2.289-2.552 2.274-.264 2.588.05 2.5 2.5-.099 2.711-.297 2.812-6.102 3.107-7.535.383-7.962.848-6.27 6.821.76 2.681 1.305 5.897 1.211 7.147-.115 1.532.735 2.808 2.601 3.911 1.661.981 2.555 2.202 2.231 3.047-.432 1.124.195 1.272 3.093.728 2.957-.555 3.634-.381 3.634.93 0 .886-.75 1.611-1.667 1.611-.916 0-1.368.298-1.004.662.364.365 2.662.587 5.106.495 3.344-.127 4.769.297 5.761 1.712 1.389 1.983 6.454 2.597 8.408 1.019.608-.49 3.076-.968 5.487-1.063 2.41-.094 5.856-1.041 7.657-2.104 2.114-1.247 4.157-1.711 5.763-1.307 1.834.46 2.489.224 2.489-.895 0-.835.675-1.519 1.5-1.519s1.5.45 1.5 1 .9 1 2 1c2.407 0 2.456-.375.446-3.443-1.662-2.535-1.6-2.635 3.233-5.206 1.199-.637 2.436-.902 2.75-.588 1.1 1.1.557 3.237-.822 3.237-.766 0-1.671.725-2.011 1.611-.429 1.118-.185 1.445.795 1.069.778-.298 2.246.101 3.262.889 1.754 1.359 1.759 1.5.097 2.791-2.36 1.835-2.218 3.575.239 2.933 1.094-.286 1.742-.919 1.441-1.407-.302-.487.111-.886.917-.886.944 0 1.29.672.972 1.887-.644 2.463.695 3.204 4.128 2.286 2.479-.663 2.603-.886 1.165-2.08-.887-.736-1.612-.989-1.612-.562 0 1.517-4.065-3.94-4.639-6.228-.321-1.281-.387-3.673-.146-5.316.241-1.643.119-2.987-.272-2.987-.39 0-.945-.9-1.233-2-.34-1.3-.03-2 .884-2 .773 0 1.406-.675 1.406-1.5 0-.88-.93-1.513-2.25-1.53-2.009-.028-2.063-.14-.5-1.05.963-.561 1.75-1.635 1.75-2.386 0-.752.51-1.537 1.134-1.745.766-.256.652-.861-.353-1.865-1.822-1.822-.622-5.924 1.733-5.924 2.646 0-1.545-4.816-4.514-5.187-1.665-.209-2.454-.898-2.361-2.063.098-1.233-.593-1.75-2.339-1.75h-2.478l2.589 3.077c3.1 3.684 3.256 4.923.62 4.923-1.234 0-1.776-.5-1.454-1.34.714-1.86-1.799-3.759-3.546-2.679-1.161.717-1.177 1.138-.094 2.443 1.099 1.325 1.049 1.576-.315 1.576-.892 0-1.622.402-1.622.893 0 1.387 2.642 2.065 3.745.962.652-.652 1.182-.487 1.556.486.375.979-.252 1.681-1.868 2.086-1.378.346-2.433 1.345-2.433 2.303 0 .931-.881-.036-1.958-2.149-1.783-3.496-1.826-4.099-.475-6.711.816-1.578 2.013-2.87 2.659-2.87 2.862 0-1.176-2.081-4.555-2.347-3.564-.28-5.084 1.355-2.655 2.857 2.153 1.33-.172 2.257-2.992 1.193-1.723-.65-2.506-1.405-1.868-1.8 1.766-1.091.039-2.767-2.238-2.171-1.433.374-1.928 1.122-1.592 2.406.426 1.629-.127 1.862-4.42 1.862-3.51 0-4.906-.394-4.906-1.383 0-.761-1.013-1.669-2.25-2.018l-2.25-.634 2.361-1.982c2.308-1.939 2.313-1.983.25-1.983-1.161 0-2.111-.478-2.111-1.063 0-.584.787-.983 1.75-.885.963.098 3.775.126 6.25.061 4.257-.111 4.511-.279 4.71-3.115.15-2.144-.237-2.998-1.357-2.998-.957 0-1.351.564-1.011 1.449M130.5 22c.411 1.294.169 2.031-.683 2.089-.724.049-3.792.194-6.817.322-3.707.158-5.5.655-5.5 1.525 0 1.83 25.428 1.535 27.296-.316 2.208-2.187-1.943-6.57-4.344-4.588-1.362 1.125-1.876 1.176-2.198.218-.242-.72-2.109-1.25-4.405-1.25-3.529 0-3.911.228-3.349 2m178.698 12.739c-3.435.239-5.498.878-5.857 1.815-.305.795-1.182 1.446-1.948 1.446S300 38.48 300 39.067c0 .613-.853.797-2 .433-1.147-.364-2-.18-2 .433 0 .587-.675 1.067-1.5 1.067s-1.5.45-1.5 1 .648 1 1.441 1 1.719-.45 2.059-1c.34-.55 1.336-1 2.214-1 1.428 0 1.418.197-.094 1.868-1.632 1.802-1.489 1.869 4.095 1.921 3.182.03 5.223-.173 4.535-.451-1.814-.732-1.535-3.338.357-3.338 1.018 0 1.396.55 1.031 1.5-.716 1.866.972 1.989 2.062.151 1.336-2.254 6.3-3.025 6.3-.979 0 1.509.173 1.482 1.468-.231 2.172-2.871 1.936-3.133-2.718-3.033-2.337.051-4.354-.358-4.481-.908-.126-.55.734-1 1.912-1s2.332-.562 2.564-1.25c.232-.687.047-1.167-.412-1.065-.458.102-3.219.351-6.135.554m168.644 13.215c-.088.85-.093 2.334-.012 3.296.217 2.589-1.637 2.128-2.01-.5-.585-4.118-2.32-1.325-2.329 3.75-.006 3.309-.429 5-1.25 5-1.526 0-1.589-.483-.722-5.61.421-2.496.273-4.498-.382-5.153-1.243-1.243-2.114.41-2.439 4.629-.113 1.469-.653 2.551-1.202 2.403-.548-.148-.886-1.731-.753-3.519.134-1.788-.203-3.25-.75-3.25-.963 0-1.41 2.669-1.045 6.25.106 1.043-.501 1.75-1.502 1.75-1.187 0-1.526-.586-1.156-2 .287-1.1.115-2-.384-2-.498 0-.906.942-.906 2.094 0 1.218-.797 2.302-1.908 2.592-3.071.803-4.689 12.314-1.731 12.314.931 0 1.203-.832.859-2.631-.347-1.814.024-2.926 1.194-3.581.933-.522 2.111-2.038 2.617-3.369 1.109-2.917 3.427-3.28 2.679-.419-.287 1.1-.207 2 .18 2 1.413 0-.382 9.337-1.89 9.833-1.238.406-1.279.225-.238-1.038 1.025-1.241.994-1.752-.161-2.711-.782-.65-1.618-.822-1.856-.383-.721 1.332-.299 6.817.505 6.549.413-.138 2.1-.25 3.75-.25 2.424 0 3.013-.432 3.068-2.25l.067-2.25 1.085 2.25c.597 1.237 1.692 2.25 2.433 2.25 1.697 0 1.775-2.661.097-3.338-.687-.277.325-.504 2.25-.504s2.938.227 2.25.504c-1.992.804-1.446 3.338.719 3.338 1.339 0 1.784.48 1.393 1.5-.405 1.055.081 1.5 1.638 1.5s2.043-.445 1.638-1.5c-.391-1.02.054-1.5 1.393-1.5 1.084 0 1.969-.675 1.969-1.5s-.675-1.5-1.5-1.5-1.5.505-1.5 1.122c0 .742-.546.67-1.61-.213-1.044-.867-1.21-1.469-.472-1.715.727-.242.908-1.605.502-3.77-.564-3.005-.34-3.504 1.972-4.383 1.434-.545 2.608-1.426 2.608-1.957 0-1.476-2.331-2.59-2.756-1.317-.205.616-.921.91-1.591.653-2.081-.798-1.108-5.757 1.687-8.593 1.973-2.003 2.34-2.914 1.413-3.51-2.168-1.391-5.743-1.006-5.911.637m-159.95 1.713c-.059.458-.187 2.408-.284 4.333-.16 3.174-.453 3.5-3.142 3.5-2.27 0-2.897-.411-2.672-1.75.248-1.476-.504-1.75-4.809-1.75-3.202 0-4.869.379-4.475 1.016.346.559.996.789 1.446.511 1.083-.669 3.226 1.958 2.329 2.855-.384.383.29.956 1.497 1.271 1.208.316 1.963.951 1.679 1.411-.623 1.007 3.018 3.124 3.883 2.258.334-.334 1.294-.038 2.132.658 1.551 1.287 2.006.553 1.623-2.622-.075-.628.655-1.078 1.622-1 2.18.176 2.683-10.39.529-11.108-.687-.229-1.299-.042-1.358.417M358.179 68.5c-1.082 1.375-2.719 2.5-3.639 2.5-3.542 0-9.987 5.133-10.022 7.982-.011.922-.746 1.393-1.874 1.2-1.052-.181-1.691.177-1.475.825.21.629.707 1.109 1.106 1.068.399-.041 1.677-.075 2.842-.075 1.624 0 1.995-.465 1.593-2-.328-1.257-.03-2 .802-2 .728 0 2.036-.273 2.906-.607 1.244-.477 1.582.092 1.582 2.667 0 1.8-.293 2.98-.651 2.622-.358-.358-1.25.13-1.981 1.084-1.032 1.345-1.519 1.449-2.171.463-.595-.899-1.934-1.045-4.57-.497-4.114.855-4.956 2.879-1.073 2.58 1.345-.104 2.446.234 2.446.75 0 .814-2.984 1.414-5.25 1.056a.718.718 0 00-.833.632l-.336 3.042c-.139 1.261.09 2.505.509 2.764.42.259.365 1.856-.12 3.55-.965 3.363-.214 9.163 1.083 8.361.445-.275 1.072-.073 1.394.448.322.521.128 1.229-.431 1.575-1.499.927-1.235 4.212.39 4.835.773.297 1.723 1.988 2.112 3.757 1.247 5.678 12.198 14.602 14.767 12.033.527-.527 1.579-.721 2.337-.43.791.304 1.378-.106 1.378-.961 0-.82-.945-1.738-2.101-2.04-1.155-.302-1.812-1.016-1.459-1.587.354-.572-.499-1.325-1.899-1.676-1.526-.383-2.591-1.393-2.666-2.529a117.451 117.451 0 00-.25-3.142c-.073-.729-1.895-1.378-4.375-1.557-3.778-.274-4.25-.584-4.25-2.794 0-1.506.504-2.371 1.28-2.193.703.162 1.491-.156 1.75-.706.258-.55-.542-1.144-1.78-1.32-4.003-.568-2.383-2.18 2.191-2.18 4.338 0 6.607-1.234 4.575-2.49-2.07-1.28-.913-2.309 2.488-2.213 2.9.082 3.406.41 2.933 1.901-.462 1.456-.009 1.802 2.357 1.802 2.568 0 2.871.301 2.461 2.448-.671 3.509 1.794 8.756 3.463 7.371.915-.76 1.282-.737 1.282.078 0 .718.927.908 2.5.514 2.033-.511 2.5-.26 2.5 1.342 0 1.561-.518 1.871-2.498 1.492-2.356-.45-2.462-.285-1.857 2.889.773 4.052.914 4.257 2.329 3.382.609-.376.834-1.546.499-2.6-.34-1.071-.137-1.916.46-1.916.587 0 1.067.9 1.067 2 0 1.111.667 2 1.5 2 1.824 0 1.93-1.17.258-2.842-.988-.988-.962-1.414.128-2.088.754-.465 1.061-1.347.683-1.958-.467-.756.933-1.141 4.372-1.203 2.782-.05 6.409-.132 8.059-.182 1.65-.05 2.931.329 2.847.841-.085.513-.929.801-1.877.64-.948-.161-1.99.402-2.316 1.25-.472 1.232.218 1.542 3.436 1.542 2.242 0 3.772.414 3.451.934-.318.514-2.205.67-4.194.348-2.827-.459-3.515-.282-3.153.815.254.772 2.227 1.659 4.384 1.971 3.882.562 2.974 2.106-.97 1.651-1.041-.121-2.1.369-2.353 1.088-.356 1.011.811 1.199 5.143.828 5.751-.494 5.779-.476 6 3.865.056 1.1.777 2 1.602 2 2.28 0 2.346-3.877.1-5.909-1.4-1.268-1.73-2.285-1.117-3.445.479-.905 1.101-2.399 1.383-3.318.343-1.12 1.193-1.495 2.573-1.134 1.891.495 2.576-.431 2.179-2.944-.065-.412.332-.75.882-.75s1 .75 1 1.667c0 .916.337 1.328.75.915.413-.413.75-2.138.75-3.832 0-1.695.563-3.27 1.25-3.499.744-.249 1.25.46 1.25 1.749 0 2.866 2.277 2.063 3.015-1.064.387-1.639.817-2.017 1.337-1.176.421.682.488 1.69.148 2.24-.344.556.518 1.067 1.941 1.15 1.407.083 3.122.195 3.809.25 1.265.101 1.882-6.865.788-8.9-.296-.55-.538-1.86-.538-2.912 0-1.051-.546-2.096-1.214-2.321-.848-.286-1.149.893-1 3.912.118 2.376-.236 4.433-.786 4.571-.569.142-1.009-2.011-1.021-5-.024-6.058-1.016-8.379-2.91-6.807-1.631 1.353-2.569.34-2.569-2.776 0-2.983-1.264-2.115-1.496 1.026-.234 3.174-2.504 3.527-2.504.39 0-1.42-.018-2.921-.04-3.333-.021-.412.879-.894 2-1.07 1.511-.236 2.04-1.071 2.04-3.218 0-2.234-.363-2.76-1.584-2.291-1.248.479-1.307.778-.279 1.414 2.271 1.403-.126 2.415-5.723 2.415h-5.411l.029-3.5c.024-2.862.215-3.181 1.048-1.75 1.249 2.144 2.92 2.287 2.92.25 0-.833.889-1.5 2-1.5 1.1 0 2-.349 2-.776 0-.427-1.742-.611-3.871-.408-3.746.358-3.894.253-4.546-3.223C396.737 74.081 394 73.629 394 78c0 3.053-.601 3.474-3.418 2.393-2.191-.841-1.978-2.247.668-4.42 3.035-2.493 1.363-5.364-3.351-5.755-2.488-.207-3.005-.02-1.928.696 2.534 1.684.157 2.552-7.757 2.832-5.791.205-7.862.661-8.546 1.882-.685 1.225-1.087 1.313-1.673.364-1.284-2.077-2.995-.087-2.995 3.484 0 2.483-.693 3.862-2.662 5.297-3.671 2.674-2.619 5.667 1.661 4.727 1.888-.415 3.001-.259 3.001.421 0 .593-1.167 1.079-2.594 1.079-1.752 0-2.763.649-3.116 2-.433 1.653-1.364 2-5.375 2-3.902 0-4.74-.294-4.277-1.5.317-.825 1.465-1.5 2.552-1.5 1.137 0 1.8-.531 1.56-1.25-.586-1.762-3.75-2.188-3.75-.505 0 .995-1.067 1.304-3.75 1.085-2.615-.214-4.128.202-5 1.373-1.16 1.559-1.25 1.551-1.25-.105 0-.982.9-2.021 2-2.308 1.107-.29 2-1.364 2-2.407 0-2.498 1.628-2.415 2.29.117.722 2.761 2.71 2.519 2.71-.329 0-1.773.538-2.311 2.25-2.25 2.241.079 2.457-.568 1.627-4.885-.242-1.262.247-2.092 1.369-2.322 1.137-.234 1.567.111 1.231.987-.605 1.574 5.186 4.154 6.079 2.709.31-.503-.588-1.352-1.996-1.887-2.78-1.057-3.475-3.023-1.068-3.023.82 0 2.053-.9 2.74-2 .687-1.1 2.078-2 3.092-2 1.039 0 1.653-.545 1.408-1.25-.261-.752-2.099-1.215-4.613-1.162-4.347.093-5.366-1.808-1.291-2.408 2.687-.395 2.887-2.18.245-2.18-1.061 0-2.813 1.125-3.894 2.5M14.236 84.75c.211.963.974 1.619 1.696 1.459.843-.187 1.09.29.691 1.332-.343.892-.623 2.036-.623 2.541 0 .505-2.137.947-4.75.981-3.976.053-4.37.216-2.417.999 1.283.514 3.533.636 5 .27 2.343-.583 2.509-.472 1.368.913-.761.925-.908 1.818-.355 2.16.95.587 11.096-1.014 11.97-1.888.903-.903-1.976-3.393-3.325-2.875-.978.375-1.337-.347-1.274-2.56.053-1.875.615-3.082 1.435-3.082.741 0 1.348-.45 1.348-1 0-1.393-3.347-1.253-4.8.2-.933.933-1.2.933-1.2 0 0-.66-1.158-1.2-2.573-1.2-1.93 0-2.478.438-2.191 1.75M153 84c0 .55-.625 1-1.389 1-.796 0-1.728 1.599-2.184 3.75-.621 2.928-.88 3.257-1.181 1.5-.264-1.546-1.083-2.25-2.616-2.25-1.226 0-2.722-.492-3.323-1.093-.767-.767-1.672-.782-3.038-.051-1.07.573-2.964.775-4.21.449-2.261-.591-4.012.89-4.044 3.42-.011.903.661.969 2.553.249 2.344-.891 2.508-.789 1.886 1.171-.578 1.823-.362 2.064 1.432 1.595 2.303-.602 3.07 1.706.864 2.601-.952.386-.906.746.192 1.511 1.042.725 1.802.538 2.734-.674 1.172-1.523 1.357-1.447 2.001.822l.71 2.5.707-2.5c.608-2.151.721-1.977.806 1.25.115 4.301.386 4.464 3.026 1.824 1.163-1.163 2.72-1.718 3.932-1.401 1.642.429 1.907.143 1.458-1.574-.606-2.317.622-2.761 2.484-.899.933.933 1.2.84 1.2-.418 0-.89.273-2.33.607-3.2.423-1.102.028-1.582-1.3-1.582-1.944 0-4.307-1.756-4.307-3.2 0-.44.577-.8 1.282-.8.705 0 1.375-1.125 1.489-2.5.113-1.375-.238-2.5-.782-2.5a.997.997 0 00-.989 1m303.249 2.817c.301 2.246.125 4.225-.392 4.397-1.1.367 1.88 6.786 3.149 6.786 1.114 0 .957-5.905-.176-6.605-1.023-.632-.119-2.395 1.229-2.395.518 0 .941 1.098.941 2.441 0 1.343.451 2.72 1.003 3.061.612.378.659 1.277.119 2.309-.485.929-.651 3.215-.368 5.081.36 2.376.175 3.182-.62 2.691-.71-.439-1.134.096-1.134 1.43 0 1.596.564 2.084 2.25 1.948 5.963-.483 7.75.015 7.75 2.161 0 1.765.25 1.915 1.487.889.853-.708 2.559-.965 4-.604 2.268.57 2.513.337 2.513-2.388 0-2.867.214-3.025 4.25-3.135 2.337-.064 3.462-.322 2.5-.573-.962-.252-1.75-.889-1.75-1.416 0-1.393 2.72-2.216 4.75-1.437.962.369 1.975.755 2.25.857.275.102.548-1.509.606-3.58l.107-3.764-4.419.332c-4.185.315-4.388.21-3.838-1.985.468-1.863.177-2.318-1.481-2.318-1.134 0-1.99.563-1.9 1.25.315 2.426-.087 3.75-1.138 3.75-.584 0-.922-1.001-.75-2.225.216-1.535-.275-2.342-1.58-2.601-1.51-.3-1.779.061-1.329 1.782.354 1.354.146 2.019-.558 1.784-.617-.206-1.192-2.594-1.276-5.307-.085-2.713-.22-5.226-.299-5.583-.228-1.023-7.084-.758-7.737.299-.353.571-1.147.483-1.997-.223-1.116-.926-1.411-.832-1.411.452 0 .892.563 1.636 1.25 1.652.69.017.463.489-.508 1.055-2.132 1.241-3.896.336-3.519-1.807.153-.864-.353-1.79-1.123-2.057-1.104-.385-1.284.374-.851 3.596m-168.724 3.997c-.175.172-3.29.378-6.922.458-6.174.135-6.603.293-6.603 2.436 0 1.667-.577 2.292-2.117 2.292-1.624 0-1.995.465-1.593 2 .396 1.515.03 2-1.506 2-1.704 0-1.827-.244-.764-1.524.696-.838.987-1.803.647-2.143-.842-.841-3.773 1.687-3.141 2.709.277.448-.516.96-1.761 1.137-1.485.21-2.266 1.006-2.267 2.308-.001 1.092-.759 2.132-1.684 2.31-1.5.289-3.181 4.459-2.743 6.809.59 3.173-.212 5.458-1.821 5.188-1.138-.191-1.703.307-1.616 1.425.073.946-.714 1.989-1.75 2.318-2.357.748-2.409 2.058-.134 3.383 1.482.863 1.508 1.024.167 1.05-1.081.02-1.584.969-1.584 2.987 0 2.924 2.051 4.849 3.194 2.999.758-1.226 2.473-1.242 2.473-.023 0 .513-.945 1.232-2.101 1.599-1.528.485-1.801.966-1 1.767 1.511 1.511 1.396 6.694-.149 6.731-.712.018-.514.46.46 1.028.94.548 2.003 2.559 2.361 4.469.372 1.984 1.247 3.473 2.04 3.473.764 0 1.389.717 1.389 1.594 0 .876.858 1.818 1.908 2.092 1.049.274 2.132 1.357 2.406 2.406.813 3.108 3.47 2.372 3.043-.842l-.366-2.75 1.408 3c.844 1.8 1.027 3.235.456 3.588-1.256.778 1.535 3.066 3.29 2.697.745-.157 1.355.39 1.355 1.215 0 1.965 1.763 3.193 2.612 1.819.992-1.605 2.879-.014 2.951 2.49l.064 2.191.904-2.25c1.212-3.015 1.808-2.843 3.478 1 .777 1.787 1.43 2.688 1.452 2 .064-2.038 1.761-1.423 2.356.855.715 2.733 3.281 1.885 2.87-.948-.172-1.186.166-2.157.75-2.157 1.016 0 1.534 2.576 1.244 6.187-.224 2.797 7.576 2.266 8.129-.554.23-1.173.479-.221.554 2.117.134 4.173 1.647 5.687 2.767 2.768.431-1.121 1.031-1.234 2.469-.465 1.45.777 1.9.683 1.9-.396 0-.777 1.012-2.168 2.25-3.091 1.528-1.14 1.699-1.514.532-1.166-1.906.569-3.374-.916-1.842-1.863.535-.331.719-1.262.409-2.069-.423-1.103.236-1.468 2.652-1.468 2.874 0 3.153.249 2.627 2.345-.568 2.263-.468 2.307 2.892 1.255 1.914-.599 3.48-1.668 3.48-2.376s.675-1.546 1.5-1.862c.825-.317 1.5-1.004 1.5-1.528s-.419-.693-.931-.377c-1.799 1.112-2.224-1.572-.632-4.001 1.111-1.696 2.607-2.498 4.836-2.592 2.253-.095 2.565-.265 1.032-.562-2.397-.466-2.138-3.302.302-3.302.766 0 1.393-.675 1.393-1.5s.642-1.5 1.427-1.5c2.217 0 4.791-5.703 2.9-6.428-.799-.307-1.169-1.018-.821-1.581.348-.563 1.02-.784 1.494-.491.474.293 1.144.075 1.49-.484.345-.559-.074-1.016-.931-1.016-1.116 0-1.526-.923-1.443-3.25.064-1.787.301-2.575.527-1.75.225.825 1.669 2.221 3.207 3.102 2.592 1.485 2.956 1.473 4.973-.16 3.071-2.486 2.709-3.29-1.194-2.657l-3.372.547.184-5.666c.1-3.116-.23-7.241-.733-9.166-.504-1.925-.982-4.83-1.062-6.455-.1-2.032-.77-3.125-2.146-3.5-1.1-.3-2.045-1.107-2.1-1.795-.055-.687-.167-2.375-.25-3.75-.106-1.763-.726-2.5-2.105-2.5-1.483 0-2.102-.904-2.565-3.75-.337-2.062-.985-4.65-1.442-5.75-.828-1.993-.834-1.993-1.685.03-.691 1.644-1.423 1.904-3.853 1.368-2.34-.516-2.505-.687-.75-.78 1.238-.065 2.25-.526 2.25-1.024 0-.499-.966-.654-2.147-.345-1.903.497-2.072.259-1.481-2.094.712-2.836-.571-3.465-3.372-1.655-1.245.805-1.16.977.5 1.015 1.876.043 1.889.111.198 1.094-1.279.744-2.2.719-3.17-.085-1.053-.875-1.607-.721-2.417.671-.972 1.671-1.052 1.648-1.081-.314-.037-2.616-5.814-3.892-9.669-2.136-1.766.805-2.704.826-3.183.071-.593-.936-6.799-1.344-7.653-.502m-181.761 8.755c-.381.382-.281 1.465.224 2.408 1.21 2.261-1.389 6.023-4.161 6.023-1.658 0-1.967.488-1.582 2.5.376 1.969.067 2.5-1.455 2.5-1.52 0-1.864.588-1.612 2.75.253 2.157-.055 2.687-1.428 2.456-.963-.161-1.75.208-1.75.822 0 1.42-2.524 3.972-3.929 3.972-.589 0-1.071.45-1.071 1 0 1.308 1.629 1.269 4.187-.1 1.13-.605 3.527-1.1 5.326-1.1 3.175 0 3.257-.106 2.837-3.65-.237-2.008.012-4.312.555-5.121 1.573-2.346 2.54-.301 1.223 2.59-.979 2.148-.913 3.06.361 5.004 1.823 2.783 2.461 2.893 5.07.877 1.838-1.42 1.848-1.572.191-2.86-1.969-1.531-2.333-3.64-.628-3.64.776 0 .738-.464-.122-1.5-1.163-1.401-.683-1.953 1.373-1.578.48.088.539-.646.131-1.631-.901-2.176-.899-2.888.024-7.041.572-2.574.401-3.25-.82-3.25-.848 0-1.701-.478-1.895-1.062-.195-.585-.667-.751-1.049-.369m45.749 4.41c-.333.539-.126 1.876.46 2.971.907 1.694.624 7.787-.41 8.821-.183.182-.897-1.154-1.587-2.97-.926-2.436-1.369-2.843-1.689-1.551-.684 2.759-4.287 2.227-4.287-.633 0-2.246-4.414-4.483-5.392-2.733-.398.714 4.969 8.244 5.821 8.167.314-.028.684.287.821.699.357 1.07-4.078 1.55-6.073.658-.922-.413-3.027-.865-4.677-1.004-1.65-.14-2.437-.025-1.75.254.688.28 1.25 1.146 1.25 1.925 0 .779.45 1.417 1 1.417s1-.761 1-1.691c0-2.358 2.923 1.464 2.968 3.882.039 2.037-2.188 3.65-2.742 1.986-.457-1.37-5.226-1.617-5.226-.271 0 .499.849.685 1.887.413 1.038-.271 2.19-.004 2.559.594.401.648-.159 1.087-1.387 1.087-1.132 0-2.059.45-2.059 1s.838 1 1.861 1c1.447 0 1.755.558 1.384 2.5-.595 3.111-3.234 3.312-3.277.25-.029-2.084-.13-2.121-1.36-.5-.731.963-1.841 1.75-2.468 1.75-1.559 0-1.453 1.984.11 2.063.688.035.19.488-1.107 1.008-2.53 1.013-2.53 1.001.233 9.964 1.467 4.756-.009 12.459-2.713 14.161-.608.382-.785 1.016-.393 1.407.392.392-.859 2.238-2.779 4.103-1.92 1.865-3.491 4.254-3.491 5.311 0 1.296-.488 1.733-1.5 1.345-.825-.317-1.5-.078-1.5.531s.642 1.107 1.427 1.107c1.819 0 2.459 2.803 1.351 5.922-1.237 3.486-.263 5.078 3.107 5.078 1.622 0 3.145.563 3.386 1.25.328.939.909.852 2.333-.348 1.043-.879 2.724-1.893 3.736-2.253 2.383-.849 4.355.296 2.517 1.461-.999.632-1.027.863-.107.875.688.008 1.25.717 1.25 1.574 0 .857.453 1.279 1.008.936.554-.342 1.744.114 2.643 1.014 1.043 1.042 2.492 1.421 3.993 1.044 2.83-.71 3.343 1.813.606 2.978-1.504.64-1.402.836.724 1.396 1.668.439 2.773 1.696 3.394 3.862 1.069 3.727 2.114 4.048 3.677 1.128.889-1.662.764-2.471-.62-4-.954-1.054-1.29-1.917-.745-1.917.544 0 2.213 1.373 3.708 3.051 1.679 1.884 3.366 2.864 4.415 2.563 5.031-1.444 10.696-1.103 10.558.636-.107 1.35.636 1.75 3.25 1.75 1.864 0 3.389-.408 3.389-.906 0-.499-.9-.671-2-.384-1.391.364-2 .031-2-1.093 0-.89.787-1.631 1.75-1.647 1.667-.029 1.667-.079 0-1.05-1.866-1.087-2.499-6.92-.75-6.92.55 0 1 1.063 1 2.361 0 2.001.395 2.286 2.585 1.867 2.084-.398 2.547-.128 2.385 1.389-.388 3.642.039 6.495.893 5.968.474-.293.737-2.12.583-4.059-.199-2.507.129-3.526 1.137-3.526.779 0 1.417.825 1.417 1.833 0 2.585 5.733 2.585 6.553 0 .32-1.008 1.226-1.833 2.014-1.833.862 0 1.433-.997 1.433-2.5 0-1.833.533-2.5 2-2.5 1.1 0 2-.48 2-1.067 0-.613-.853-.797-2-.433-1.216.386-2 .18-2-.526 0-.639.9-1.397 2-1.684 1.107-.29 2-1.364 2-2.407 0-1.177.706-1.883 1.883-1.883 1.22 0 2.054-.89 2.366-2.524.588-3.074-.852-4.304-1.744-1.491-1.046 3.295-2.78 2.345-2.254-1.235.802-5.462-2.705-10.553-3.961-5.75-.29 1.107-1.364 2-2.407 2-2.511 0-2.418-2.627.117-3.29 1.1-.287 2-1.187 2-2 0-2.32 3.52-2.708 4.876-.537.654 1.048 1.625 1.636 2.157 1.307 1.615-.998 1.086-4.063-1.033-5.98-2.444-2.212-2.814-8.5-.5-8.5.825 0 1.529.338 1.564.75.639 7.505 1.221 9.298 2.578 7.941.353-.353.057-3.395-.657-6.76-.87-4.103-.962-6.335-.278-6.775.594-.382.689-1.49.227-2.656-.528-1.331-.827-1.498-.894-.5-.08 1.197-.307 1.146-1.12-.25-.561-.963-1.621-1.75-2.356-1.75-.735 0-1.535-1.35-1.777-3-.386-2.625-.14-3 1.97-3 1.486 0 2.248-.479 1.989-1.25-.232-.687-1.473-1.26-2.758-1.272-2.889-.027-3.582-1.741-1.533-3.79 1.6-1.6 2.112-3.845.795-3.481-.952.263-7.25-5.715-7.25-6.881 0-.479-1.575-1.719-3.5-2.756-1.925-1.037-3.5-2.489-3.5-3.227 0-1.674-2.687-1.781-3.238-.13-.277.832-1.258.542-3.117-.92-2.91-2.289-2.761-2.595 1.855-3.798l3-.782-2.5-.701c-3.224-.903-6.284 1.519-5.407 4.281.459 1.445.279 1.746-.685 1.15-1.693-1.046-6.263-1.287-6.908-.363-.508.727-4.064 1.232-7.258 1.031-1.518-.096-1.587-.403-.5-2.242.999-1.692 1.003-2.223.016-2.58-.877-.318-.956-.985-.268-2.27.728-1.361.58-1.97-.59-2.419-2.05-.787-2.177-.77-2.887.379m-22.617 7.521c-1.361 5.402-2.443 5.728-3.33 1-.567-3.022-3.566-5.255-3.566-2.655 0 .464-2.203 3.008-4.897 5.653-5.089 4.997-5.067 4.841-1.272 9.046 1.79 1.984 3.465.773 2.769-2.001-.881-3.51 6.751-6.399 8.038-3.043.945 2.462 3.69 1.862 3.03-.662-.623-2.381.79-5.671 3.245-7.556 1.049-.805 1.163-1.229.337-1.25-.687-.018-1.25-.707-1.25-1.532 0-3.226-2.031-1.264-3.104 3M67 164.827c0 1.489-.6 1.741-3.25 1.364-3.151-.449-3.198-.404-1.525 1.475 1.603 1.799 2.122 8.327.664 8.332-.337.001-.397 1.127-.134 2.502.28 1.461 1.157 2.494 2.112 2.485 1.967-.019 5.279-1.946 3.383-1.97-.687-.008-1.25-.69-1.25-1.515 0-2.187 1.759-1.835 2.5.5.738 2.326 4 2.643 6.054.589.775-.776 1.981-1.641 2.678-1.924.82-.331.915-.805.268-1.339-.55-.454-1.868-2.531-2.928-4.615-1.077-2.115-2.472-3.58-3.159-3.316-.689.265-1.498-.597-1.84-1.962-.709-2.824-3.573-3.31-3.573-.606m90.975 18.738c-.536 1.411-.975 2.986-.975 3.5 0 .514-.45.935-1 .935s-1 .9-1 2 .45 2 1 2 1 .832 1 1.848c0 1.367.78 1.87 3 1.933 1.906.054 3-.411 3-1.276 0-.749.704-2.066 1.564-2.926.86-.86 1.283-2.017.941-2.571-.343-.555-.114-1.008.507-1.008.622 0-.54-1.575-2.581-3.5-4.432-4.181-4.235-4.147-5.456-.935m-51.611 5.929c-.316.822-.976 1.246-1.469.941-.492-.304-.962.036-1.043.756-.428 3.78-.256 5.378.648 6.031 1.468 1.059-.908 4.343-2.883 3.984-.918-.167-1.617.374-1.617 1.25 0 .98-.913 1.544-2.5 1.544-1.375 0-2.5.439-2.5.975 0 .542 1.445.74 3.25.447l3.25-.528-3.25 1.505c-3.719 1.722-4.325 3.693-1.027 3.339 1.256-.134 2.235.32 2.25 1.045.015.706 1.152 1.841 2.527 2.523 1.787.886 2.592 2.198 2.823 4.602l.324 3.363 1.42-2.737c.781-1.506 1.169-3.738.862-4.96-.715-2.852 1.755-4.963 5.065-4.33 1.728.33 2.506.035 2.506-.948 0-2.374-2.03-5.395-3.157-4.699-.7.433-.608.93.271 1.474.731.451.967 1.182.525 1.623-.763.763-3.639-2.252-3.639-3.816 0-.406 1.013-.883 2.25-1.058 2.729-.388 3.824-5.471 1.38-6.408-.827-.318-1.259-1.215-.96-1.995.299-.779.098-1.417-.446-1.417-.545 0-1.226-.9-1.514-2-.615-2.351-2.527-2.64-3.346-.506M349 265.833c0 2.553-1.592 3.672-2.364 1.661-.982-2.559-2.354-1.639-2.242 1.504.093 2.62.473 2.998 3.023 3 3.878.003 2.978.727-1.417 1.139-4.302.404-6.181 2.706-5.399 6.616.494 2.47.974 2.86 3.037 2.465 2.373-.453 2.389-.511.498-1.836-2.326-1.629-1.793-5.848.622-4.921.823.315 2.148.032 2.945-.629 1.137-.944 1.625-.919 2.267.119.462.748 2.597 1.322 4.923 1.322 2.259 0 4.107.388 4.107.863s.788.878 1.75.894c1.667.029 1.667.079 0 1.05-.962.561-1.75 1.686-1.75 2.501 0 2.646-2.717 2.611-5.398-.07-3.132-3.132-4.425-2.668-3.832 1.376l.437 2.975 8.568-.063c7.703-.057 8.315-.196 6.06-1.378-4.125-2.161-3.138-5.799 1.743-6.421 3.089-.394 3.922-.925 3.922-2.5 0-2.165-5.621-2.636-6.324-.529-.441 1.323-3.176 1.348-3.176.029 0-.55.675-1 1.5-1 1.048 0 1.5-1.056 1.5-3.5 0-2.923.357-3.5 2.167-3.5 4.792 0 .653-1.117-5.298-1.429-3.503-.184-7.607-.662-9.119-1.061-2.342-.619-2.75-.423-2.75 1.323M2.463 334.248c-.262.689-.361 82.702-.22 182.252l.257 181h495v-364l-247.281-.252c-197.299-.201-247.376.001-247.756 1" fill="#d3d3d3" fill-rule="evenodd"/></svg>