<svg xmlns="http://www.w3.org/2000/svg" width="500" height="667"><path d="M311.5 11.765c-.55.404-1.605 1.809-2.344 3.122-.739 1.313-2.269 4.013-3.4 6-2.95 5.184-7.756 14.886-7.756 15.656 0 2.102-8.297 18.452-9.365 18.455-.842.002-.011-9.709 1.104-12.905.451-1.294.302-1.358-.792-.343-2.246 2.084-2.678 1.511-4.046-5.369-1.098-5.528-1.471-6.27-2.261-4.5-.52 1.165-1.375 2.119-1.9 2.119-.525 0-.716.62-.425 1.379.291.758.079 3.12-.472 5.25-.551 2.129-1.194 5.615-1.43 7.746-.432 3.899-6.029 15.625-7.458 15.625-3.009 0-1.971-16.28 1.418-22.242 2.298-4.043 3.364-4.607 4.265-2.258.909 2.368 2.165 1.749 2.006-.988-.171-2.947-2.291-4.05-4.407-2.294-2.382 1.977-6.237 8.553-6.237 10.64 0 1.044-.911 2.515-2.025 3.27-1.572 1.065-2.049 2.543-2.13 6.608-.127 6.283-1.677 8.117-5.422 6.411-3.026-1.379-3.423-1.41-3.423-.264 0 .486.9 1.119 2 1.407 4.817 1.259 1.511 2.249-4.508 1.35-4.291-.642-8.005-.631-10.901.032-3.306.757-4.973.683-6.741-.298-3.377-1.873-5.528-1.672-8.912.83-3.735 2.761-6.928 8.077-6.971 11.603-.043 3.575-3.525 13.546-4.889 14-.593.198-1.078 1.171-1.078 2.162 0 2.915-2.211 6.191-7.95 11.781-6.567 6.397-6.605 6.399-6.397.5.092-2.612-.048-3.503-.311-1.978-.742 4.292-7.342 7.553-7.342 3.627 0-1.1-1.411-2.988-4.75-6.358-2.583-2.606-2.81-4.227-.905-6.462 2.04-2.395 4.655-9.748 4.655-13.089 0-1.632.9-5.336 1.999-8.229 2.343-6.165 2.567-9.761.608-9.761-.766 0-1.628-.614-1.916-1.363-.802-2.091 4.977-13.374 7.797-15.221C202.306 44.914 205.764 32 202.615 32c-.762 0-2.148-1.164-3.08-2.587-2.185-3.335-3.101-2.455-1.294 1.244.763 1.564 1.314 3.293 1.222 3.843-.432 2.605-2.756 7.5-3.561 7.5-.496 0-.902.573-.902 1.273 0 .699-2.443 3.897-5.428 7.105-3.007 3.231-5.198 6.434-4.911 7.182.788 2.053-9.431 23.548-12.745 26.809-1.604 1.577-2.916 3.382-2.916 4.009 0 .628-.917 1.714-2.039 2.414-1.121.7-1.775 1.699-1.454 2.22.322.521.084 1.884-.529 3.03-.614 1.146-1.153 3.405-1.199 5.021-.046 1.615-.451 2.937-.9 2.937s-.574.631-.278 1.401c.721 1.881 3.96 2.638 5.347 1.251.823-.823 1.273-.524 1.707 1.136.496 1.898.833 2.053 2.131.983 1.974-1.628.926 6.487-1.272 9.846-2.04 3.116-5.518 3.802-5.234 1.032.187-1.83-.225-2.101-2.78-1.827-1.65.177-3.457.907-4.016 1.622-.798 1.019-1.86.57-4.935-2.088-2.155-1.863-4.292-3.013-4.75-2.555-1.294 1.294-2.566 14.162-1.742 17.61.62 2.595.756 2.21.852-2.411.163-7.91 1.168-13 2.567-13 1.797 0 4.293 3.156 4.683 5.922.501 3.554 2.435 3.616 3.98.126.742-1.676 1.963-3.048 2.712-3.048.925 0 1.115.562.592 1.75-.955 2.168-.87 4.277.445 11.128.81 4.222.727 6.108-.387 8.774-1.401 3.352-1.121 6.348.593 6.348.483 0 1.548-1.601 2.366-3.558.818-1.958 2.399-4.718 3.513-6.135 1.115-1.417 2.027-3.909 2.027-5.538 0-3.486 2.774-13.511 3.938-14.231 1.296-.801 2.048 6.307 1.361 12.871-.432 4.139-1.953 8.748-4.809 14.572-6.546 13.353-11.045 32.893-8.223 35.714 1.358 1.359 1.741 1.297 3.626-.588L169 179v2.777c0 1.528-.701 3.778-1.557 5-4.122 5.886-8.472-1.248-6.742-11.055.604-3.422 1.44-7.071 1.858-8.108 1.744-4.332-2.194-.761-4.809 4.36-3.084 6.039-3.442 9.191-1.289 11.344.804.804 1.571 3.086 1.705 5.072.133 1.985.719 3.61 1.301 3.61s1.503 1.012 2.046 2.25c.609 1.388 2.352 2.587 4.55 3.131 3.688.911 6.474-.372 14.075-6.483l2.638-2.122 2.3 2.3c2.599 2.599 3.481 1.521 1.982-2.425-1.572-4.134-4.307-3.501-12.76 2.951-4.592 3.505-6.709 4.056-9.298 2.418-1.198-.757-.839-1.179 1.783-2.094 2.704-.943 3.49-1.919 4.457-5.535.646-2.415 1.72-4.391 2.386-4.391 1.932 0 5.512-6.651 5.823-10.818.157-2.099.865-4.901 1.575-6.227 1.86-3.476 2.815-.554 2.906 8.889.062 6.47.308 7.405 2.07 7.866 1.1.288 2 1.189 2 2.002 0 .814.931 2.786 2.068 4.384 1.138 1.597 1.588 2.904 1 2.904-.587 0-1.032 1.463-.989 3.25.043 1.787.304 2.575.579 1.75 1.4-4.197 1.683-4.257 2.384-.5.41 2.2.396 5.8-.033 8l-.779 4-.115-5.309c-.071-3.266-.501-5.071-1.117-4.69-.551.341-.832 3.067-.624 6.059.208 2.992-.043 5.44-.557 5.44s-.657.45-.317 1c.934 1.511 2.5 1.198 2.5-.5 0-.825.45-1.5 1-1.5s1 .62 1 1.378c0 4.434 8.281 4.431 12.718-.005 3.241-3.241 2.239-4.191-1.565-1.482-3.326 2.369-6.168 2.694-7.953.909-1.452-1.452-1.596-7.437-.2-8.3.55-.34 1 .068 1 .906 0 .838.952 2.033 2.117 2.656 3.27 1.751 4.786-.63 5.471-8.592.329-3.834.941-10.12 1.358-13.97.418-3.85.56-7.544.316-8.208-.245-.667.716-1.499 2.147-1.859 1.964-.492 2.595-1.289 2.606-3.291.011-1.796.282-2.221.848-1.329.459.723 2.364 1.552 4.235 1.843 1.871.292 4.083 1.276 4.916 2.187 1.41 1.544 5.118 11.784 5.488 15.157.384 3.506 1.746 6.006 3.315 6.082.928.045.183.736-1.659 1.54-2.067.902-3.144 1.972-2.824 2.805.766 1.996-5.144 7.573-8.026 7.573-1.746 0-2.361.477-2.131 1.651.633 3.234 4.375 2.343 11.271-2.685 3.746-2.731 7.403-4.966 8.125-4.966.723 0 1.902-.827 2.62-1.838.719-1.011 2.657-2.167 4.307-2.568 5.464-1.329 7.702-3.398 7.022-6.495-.435-1.979-.025-3.46 1.434-5.185 2.003-2.367 2.072-2.376 3.543-.473 1.989 2.572 1.906 3.231-.749 5.976-1.238 1.279-2.339 2.764-2.448 3.299-.109.536-2.414 4.189-5.121 8.119-2.973 4.317-5.179 8.752-5.571 11.202-.362 2.266-1.082 3.79-1.629 3.451-1.527-.944-1.147.74.851 3.77 1 1.517 2.076 2.5 2.391 2.186 1.408-1.408 7.951.883 8.785 3.076.474 1.249 1.419 2.456 2.1 2.683 1.428.476-2.15 7.673-5.858 11.783-1.949 2.16-3.381 5.479-1.592 3.689.362-.362 1.174-.23 1.804.293.769.639 2.046.116 3.888-1.592 2.349-2.178 2.977-2.352 4.37-1.21 1.432 1.174 1.557 1.064 1.047-.915-.841-3.265.489-3.513 4.19-.783l3.255 2.402-3.606.676c-3.002.563-3.606 1.096-3.606 3.182 0 2.142.367 2.435 2.535 2.02 1.789-.341 2.831.066 3.536 1.386.551 1.028 2.56 2.521 4.465 3.317 1.905.796 3.464 2.09 3.464 2.876 0 .785.675 1.988 1.5 2.673s1.5 1.71 1.5 2.277c0 .569-.787.401-1.75-.372-4.306-3.457-9.146-5.151-7.587-2.655.429.688.874 1.868.988 2.623.395 2.609 2.595 7.127 3.47 7.127.484 0 .879 1.098.879 2.441 0 1.343.45 2.719 1 3.059.55.34 1 1.491 1 2.559s.36 1.941.8 1.941c3.418 0 4.499-7.847 1.2-8.71-1.1-.288-2-.947-2-1.466 0-.518.45-.664 1-.324.58.358 1-.615 1-2.316 0-2.396.504-3.039 2.75-3.504 1.71-.354 3.223-1.612 4-3.324 1.523-3.357 1.652-10.356.191-10.356-.582 0-.847-.343-.588-.763.259-.419-.173-1.881-.96-3.25-1.421-2.468-1.43-2.459-1.192 1.209.132 2.033-.085 4.021-.481 4.417-.396.396-.72-1.117-.72-3.363 0-3.542-.365-4.218-2.75-5.099-2.647-.978-2.668-1.041-.569-1.682 2.449-.748 3.342-2.364 2.823-5.111-.193-1.022-.385-2.447-.427-3.167-.043-.72-.558-1.012-1.145-.649-.588.363-.825 1.295-.527 2.072.418 1.088-.081 1.262-2.182.76-3.808-.91-4.212-1.238-3.572-2.906.309-.807.113-1.468-.437-1.468s-1.259.675-1.576 1.5c-.316.825-1.264 1.5-2.107 1.5-1.723 0-2.055-1.558-.531-2.5.55-.34 1-1.968 1-3.618 0-1.654-.429-2.735-.956-2.409-.526.325-.721 1.206-.432 1.958.288.752.098 1.63-.422 1.952-.946.584-2.562-4.549-2.324-7.383.074-.886-2.023-2.524-5.12-4-3.052-1.454-5.389-3.27-5.587-4.341-.328-1.774 6.452-16.52 8.171-17.771.463-.336.794-.901.737-1.254-.056-.354.13-1.766.415-3.138l1.037-4.996c.286-1.375 1.186-2.5 2-2.5.815 0 1.481-.888 1.481-1.973 0-2.693 4.462-12.629 13-28.948 5.261-10.056 6.969-12.224 9.098-11.548 1.403.445 1.994-.079 2.507-2.224 1.127-4.709 1.697-4.853 2.967-.747l1.218 3.94.105-5.55c.104-5.489 1.282-7.95 3.805-7.95.715 0 1.3.9 1.3 2s.45 2 1 2c1.232 0 1.236-.248.056-3.353-.631-1.659-.559-3.505.217-5.56 1.028-2.722.831-3.689-1.698-8.365l-2.861-5.288 2.154-4.467c3.35-6.946 8.692-15.579 11.542-18.653 1.425-1.537 2.59-3.361 2.59-4.054 0-.75.842-.418 2.081.821 1.912 1.912 2.225 1.952 3.835.495 1.599-1.447 2.033-1.448 4.919-.008 1.741.868 3.202 1.883 3.247 2.255.045.372.291 1.954.546 3.514.297 1.817.088 2.605-.582 2.191-.575-.355-1.046-.169-1.046.413S324.45 88 325 88c1.495 0 1.206 5.728-.363 7.194-.979.915-1.076 1.732-.342 2.907 1.32 2.113.203 5.027-1.653 4.315-1.847-.709-2.82-5.682-1.301-6.648.851-.542.827-.741-.091-.753-.687-.008-1.25-.717-1.25-1.574 0-.857-.45-1.281-1-.941-.55.34-1 2.166-1 4.059 0 1.893.45 3.441 1 3.441s1 .723 1 1.607c0 .965-.558 1.393-1.397 1.071-.967-.371-1.544.443-1.876 2.643-.264 1.748-.085 3.329.397 3.512.482.184.876 1.054.876 1.934 0 .88.958 4.298 2.129 7.596 1.476 4.158 1.834 6.476 1.168 7.566-.528.864-1.589 3.722-2.356 6.351-1.325 4.539-1.547 4.755-4.418 4.289l-3.023-.49 2.659 1.122c2.98 1.256 4.251 6.388 2.655 10.716-.539 1.461-.521 2.648.046 3 .516.321 1.152 1.708 1.412 3.083l.474 2.5.75-2.273c.704-2.135.831-2.166 2.095-.5 1.271 1.674 1.349 1.662 1.409-.227.035-1.1.671-2.801 1.414-3.779 1.745-2.301 2.586-.464 2.586 5.648 0 3.429.354 4.232 1.919 4.35 2.843.214 3.039-1.053 3.642-23.56.305-11.363.739-21.221.965-21.909.226-.688-.253-1.25-1.066-1.25-1.096 0-1.236-.451-.541-1.75.514-.963 1.179-2.538 1.477-3.5.618-1.997 3.543-2.39 3.722-.5.065.688.407-.096.759-1.742.467-2.184.146-3.485-1.188-4.819-1.693-1.693-1.71-2.008-.235-4.258 1.406-2.147 1.414-2.431.069-2.431-1.92 0-1.926-1.705-.017-5.364.822-1.576 1.494-4.088 1.494-5.584 0-1.775 1.218-3.936 3.509-6.228 3.192-3.192 3.525-4.065 3.679-9.656.14-5.07.502-6.252 2.066-6.749 2.696-.855 3.291.194 1.746 3.081-.735 1.373-1.081 2.752-.769 3.064.311.312 1.368-1.251 2.349-3.472 1.567-3.552 2.092-3.967 4.351-3.442 4.882 1.137 5.29 2.298 3.373 9.606-2.175 8.292-1.704 8.746 4.467 4.313C370.824 67.784 376 69.69 376 78.441c0 3.943.283 4.651 1.75 4.369 1.074-.207 1.722-1.202 1.679-2.574-.382-11.944-.37-11.888-2.868-13.026-3.771-1.718-7.435-17.434-4.49-19.254 1.16-.717 1.163-1.593.02-5.652-.745-2.642-1.659-6.62-2.031-8.841-.373-2.22-.994-4.548-1.381-5.173-1.169-1.892-6.358-2.539-8.87-1.107-1.27.725-4.738 1.317-7.706 1.317h-5.396l-1.136 4c-.831 2.927-1.663 4-3.103 4-1.082 0-2.287.446-2.676.992-1.47 2.057-2.749-1.194-3.347-8.514-.765-9.347-1.208-10.98-2.439-8.988-.716 1.159-1.294.914-3.018-1.279-1.173-1.491-2.775-2.711-3.561-2.711-2.148 0-1.714 1.692.59 2.294 4.901 1.282 8.982 20.818 4.483 21.462-7.656 1.096-7.875 1.006-10.385-4.254-2.426-5.085-4.403-19.64-2.245-16.531.562.809 1.383 1.11 1.824.668.442-.441.089-1.328-.783-1.971-.873-.642-1.392-1.746-1.154-2.452 1.037-3.079-5.209-5.69-8.257-3.451m-.218 4.485c-2.939 3.071-6.963 10.287-10.736 19.25-.926 2.2-3.109 6.925-4.85 10.5-1.742 3.575-3.644 7.85-4.226 9.5-1.118 3.165-.495 15.808.844 17.148.844.843 4.501-2.783 9.221-9.142 4.204-5.662 9.971-11.597 11.589-11.925 2.788-.565 4.876-1.826 4.867-2.938-.005-.629 1.405-2.305 3.133-3.726l3.141-2.582-1.882-2.873c-3.125-4.77-4.456-9.545-5.075-18.212-.665-9.303-1.358-9.878-6.026-5m49.746 13.217c-.7.843-1.897 1.533-2.661 1.533C356.798 31 342 44.767 342 46.227c0 .521 1.315 1.443 2.923 2.05 1.655.625 3.825 2.709 5.005 4.808C352.117 56.98 353.68 58 357.459 58c4.435 0 5.691 5.115 2.65 10.796-2.462 4.6-1.321 5.294 3.587 2.182 2.582-1.638 5.507-2.978 6.5-2.978 2.175 0 2.201-.412.378-6.072-.785-2.435-2.164-9.603-3.064-15.928-2.541-17.837-3.458-20.177-6.482-16.533M132.015 58.693c-.008.656-.858 1.03-1.888.832-2.086-.402-5.501 3.593-7.504 8.782C119.479 76.449 114.435 86 113.279 86c-.704 0-1.279.418-1.279.93 0 .511-2.038 1.948-4.529 3.192-2.887 1.442-4.743 3.115-5.12 4.616-.83 3.308-.068 3.614 2.996 1.203 2.921-2.297 4.025-.325 1.153 2.059-.825.685-1.5 1.92-1.5 2.745 0 1.178-.303 1.248-1.411.329-.965-.801-1.616-.839-2.059-.123-.356.577-1.473 1.049-2.481 1.049-1.891 0-3.367 3.285-3.594 8-.066 1.375-.195 4.188-.287 6.25-.113 2.521-.64 3.75-1.609 3.75-1.793 0-2.892 1.652-2.028 3.05.398.645 1.368.22 2.514-1.102l1.866-2.151.653 2.601c.755 3.009 1.935 3.365 2.817.852 1.882-5.362 3.476-8.541 3.543-7.065.042.927-.363 2.839-.899 4.25-1.74 4.576.488 2.711 3.207-2.685 1.923-3.816 2.663-4.635 2.707-3 .059 2.183 2.061 3.328 2.061 1.179 0-2.298 2.876-4.066 4.873-2.997 3.032 1.623 4.063-3.756 1.169-6.099-1.513-1.225-1.941-2.386-1.512-4.095.387-1.542.045-2.846-.966-3.685-1.597-1.325-2.229-3.582-.746-2.666.45.279 1.976-.568 3.392-1.881 1.416-1.313 2.772-2.191 3.013-1.95.241.241 1.491-1.81 2.778-4.558 1.287-2.749 3.164-5.742 4.17-6.652 1.006-.911 1.829-2.486 1.829-3.501 0-1.015.675-1.845 1.5-1.845s1.5-.839 1.5-1.864c0-1.858 4.52-7.136 6.111-7.136 1.147 0 3.896-5.487 3.857-7.7-.03-1.708-.099-1.711-1.36-.05-.731.962-1.841 1.75-2.468 1.75s-1.14.477-1.14 1.059.45.781 1 .441 1-.196 1 .319c0 1.104-10.855 9.66-11.472 9.042-.232-.231 1.049-1.982 2.847-3.891 3.602-3.825 4.838-7.025 3.518-9.109-.577-.91-.867-.966-.878-.168m17.589 2.897c-.336.875-.36 1.996-.053 2.492.306.496.113 1.693-.43 2.66-.92 1.639-1.037 1.623-1.731-.242-.755-2.028-2.257-3.457-3.663-3.485-.425-.008.025 1.203 1 2.691.975 1.488 1.614 2.858 1.419 3.043-.194.185.095 1.555.643 3.044s1.547 5.407 2.219 8.707c.672 3.3 1.673 7.516 2.224 9.369.738 2.483.682 3.566-.214 4.12-1.638 1.012-.866 4.511.996 4.511.957 0 1.398-.821 1.237-2.308-.136-1.27.141-2.068.617-1.774 2.019 1.248 4.369-3.498 4.879-9.855.688-8.572-3.404-24.511-5.898-22.97-.467.289-.849.048-.849-.534 0-1.632-1.712-1.253-2.396.531m237.782 3.66c.34 1.237 1.543 6.722 2.674 12.188 1.13 5.466 2.3 10.335 2.6 10.821 1.316 2.13 3.34 14.816 3.34 20.939 0 5.76.351 7.077 2.5 9.397 2.775 2.994 3.375 2.1.932-1.388-.862-1.231-1.389-3.243-1.172-4.472.353-1.993.564-1.857 1.948 1.265 2.456 5.538 3.166 8.349 1.913 7.575-.728-.45-.971.378-.726 2.481.202 1.737-.191 5.275-.874 7.864-1.57 5.951-.498 14.382 2.881 22.669 2.679 6.569 4.898 30.49 2.941 31.699-1.61.995-9.327-4.609-9.349-6.788-.011-1.1-.939-4.925-2.062-8.5-2.223-7.078-2.783-16.216-1.03-16.801.604-.201 1.098-1.933 1.098-3.848 0-1.915.466-4.353 1.035-5.417.73-1.364.713-1.934-.059-1.934-.602 0-.835-.419-.519-.931.922-1.492-.835-1.999-2.53-.73-.853.638-1.821 1.882-2.151 2.762-.329.881-2.802 2.663-5.495 3.961-4.269 2.058-4.908 2.762-4.985 5.494-.091 3.187-4.158 12.19-4.267 9.444-.053-1.333-.167-1.333-1.029 0-.738 1.141-.973.737-.985-1.691-.008-1.755.375-3.432.851-3.726.476-.294.647-1.678.38-3.074l-.485-2.539-1.851 2.134c-1.018 1.173-2.13 3.013-2.471 4.088-.601 1.895-.682 1.899-2.662.131-2-1.785-2.028-1.774-1.327.475.405 1.302.235 2.876-.392 3.632-.61.736-1.209 5.861-1.333 11.417-.186 8.358-.545 10.389-2.095 11.868-1.363 1.301-1.995 1.446-2.333.535-.631-1.7-2.956-1.581-3.634.186-.313.816.773 2.73 2.515 4.434 2.919 2.854 3.069 3.392 3.108 11.183.033 6.758-.263 8.354-1.696 9.157-1.645.92-1.646 1.071-.008 2.881 1.007 1.113 1.246 1.909.573 1.909-.635 0-1.155.852-1.155 1.893s-.675 2.152-1.5 2.469c-.825.316-1.516 1.377-1.535 2.357-.076 3.785-2.893-3.234-2.897-7.219-.003-2.2-.26-6.025-.571-8.5-.312-2.475-.632-5.963-.711-7.75-.087-1.953-.672-3.25-1.465-3.25-.727 0-1.321-.713-1.321-1.583 0-.871-.52-1.41-1.156-1.198-.687.229-1.137 2.52-1.111 5.652.049 5.788-2.046 11.129-4.365 11.129-.817 0-1.227-.419-.911-.931.317-.512.118-1.213-.441-1.559-.562-.348-1.016.291-1.016 1.431 0 1.132.362 2.059.803 2.059.442 0 .671 2.723.509 6.051-.237 4.858.084 6.458 1.628 8.115 1.979 2.124 1.739 4.172-1.001 8.56-.934 1.495-.769 2.505.839 5.15 2.629 4.322 3.688 2.612 3.39-5.467-.221-5.977-.163-6.131 2.151-5.688 1.916.366 2.602 1.423 3.529 5.443 1.416 6.132 1.462 8.836.152 8.836-.55 0-1 1.773-1 3.941s-.45 4.219-1 4.559c-.55.34-1 1.956-1 3.59 0 1.715-.632 3.215-1.494 3.546-.822.316-1.254.963-.959 1.439.294.477-.159 2.207-1.006 3.846-.848 1.639-1.541 4.172-1.541 5.628 0 3.85-3.06 9.956-4.146 8.272-.468-.727-.597-2.527-.288-4.001.424-2.021.069-2.945-1.441-3.753-2.674-1.431-3.373.034-1.877 3.933 1.973 5.142 2.542 8.012 1.692 8.537-.517.32-.94-.176-.94-1.1 0-1.222-.342-1.403-1.25-.663-2.145 1.748-8.944 3.289-8.437 1.913.24-.653.943-1.074 1.562-.937 1.799.4 1.298-3.898-.625-5.358-1.162-.882-1.31-1.339-.441-1.36.72-.018 1.031-.482.691-1.032-.942-1.524-2.5-1.192-2.5.532 0 .843-1.012 1.912-2.25 2.375-1.921.72-2.33.459-2.8-1.782-.811-3.874-.018-6.427 1.583-5.098 1.742 1.446 2.308.202 1.941-4.27-.374-4.557 1.113-5.915 2.009-1.835.728 3.313 2.789 5.395 5.541 5.598 4.639.342 2.478-12.116-3.116-17.97-1.265-1.324-1.135-7.957.214-10.918.842-1.848.794-4.795-.19-11.797-.721-5.134-1.339-12.935-1.372-17.335-.033-4.4-.379-8.24-.769-8.533-.389-.294-1.011-4.168-1.382-8.61-.715-8.579.169-10.778 3.294-8.193 1.467 1.212 1.55.832.896-4.111-.763-5.773-1.989-8.879-3.179-8.053-.396.275-.887-.59-1.09-1.922-.542-3.547-2.291-5.355-3.896-4.023-.964.8-1.812.567-3.281-.902-1.581-1.581-3.191-1.948-7.972-1.817-3.295.09-5.782-.174-5.527-.586.255-.412-.013-.75-.595-.75s-1.059.723-1.059 1.607c0 1.055-.544 1.398-1.582 1-.87-.334-1.944-.607-2.387-.607-.443 0-.982-3.126-1.198-6.946-.353-6.252-1.153-9.132-2.213-7.971-.21.23-.609 3.567-.887 7.417-.75 10.384-6.075 20.493-8.033 15.25-.257-.687-.487 1.267-.512 4.344-.025 3.076-.705 7.801-1.512 10.5-2.314 7.737-3.765 17.241-3.925 25.715-.144 7.594-.21 7.793-2.423 7.237-1.763-.442-2.142-.224-1.683.971.356.927 1.291 1.321 2.343.987 1.341-.426 1.897.17 2.371 2.541.498 2.492.996 2.977 2.546 2.485 1.06-.336 2.235-.113 2.611.497.395.637-.206 1.341-1.415 1.657-1.487.389-2.101 1.347-2.101 3.278 0 4.123 3.033 6.232 9.199 6.397 5.733.153 5.906-.101 4.358-6.359-.486-1.965-.251-1.801 1.103.77 2.017 3.83 3.118 3.725 5.84-.558 1.1-1.731 2.698-3.389 3.552-3.684 1.641-.568 1.336-9.506-.42-12.325-.946-1.518 1-10.754 2.908-13.807.723-1.157 1.642-3.849 2.042-5.983.563-3.001.88-3.445 1.401-1.963 1.036 2.956 2.291.073 1.512-3.474-.36-1.637-1.293-2.976-2.074-2.976-.782 0-1.421-.675-1.421-1.5s.619-1.5 1.375-1.5c1.473 0 2.625-4.189 2.625-9.543 0-4.276.876-6.457 2.594-6.457 1.797 0 4.407 6.282 3.712 8.937-.297 1.135-.117 2.063.4 2.063 1.055 0 .811 7.462-.44 13.42-.704 3.356-1.249 3.976-3.794 4.311-3.921.518-5.113 1.792-3.497 3.739 1.062 1.28.983 2.534-.447 7.081-1.359 4.32-1.501 6.118-.648 8.238 1.461 3.632 2.284 10.991 1.298 11.601-1.578.976-.029 7.522 1.927 8.143 1.821.578 2.691 2.459 1.145 2.475-2.076.021-3.097 5.182-1.847 9.334.698 2.323.942 5.108.54 6.19-.402 1.083-1.305 3.993-2.007 6.468-.701 2.475-1.794 4.95-2.428 5.5-.634.55-1.617 1.838-2.183 2.862-.917 1.658-1.099 1.52-1.653-1.25-.743-3.715-2.22-4.05-3.062-.695-.697 2.779.688 7.327 2.005 6.583 1.268-.716 2.191 12.072 1.06 14.695-1.165 2.704-3.734 3.815-4.83 2.089-1.219-1.922-1.016-2.784.655-2.784.825 0 1.5-.679 1.5-1.508 0-1.252-.336-1.299-1.975-.276-2.718 1.698-4.551-.256-4.213-4.489.23-2.885-.172-3.43-3.789-5.144-2.226-1.054-4.829-1.901-5.785-1.882-.956.018-2.448-.582-3.316-1.333-1.629-1.411-7.907-2.586-7.941-1.487-.011.341-1.586 2.414-3.5 4.608-1.915 2.194-3.481 4.235-3.481 4.534 0 .3-1.462 1.389-3.25 2.42s-3.925 2.509-4.75 3.285c-.825.775-3.717 2.954-6.426 4.841s-4.57 3.431-4.135 3.431c.435 0 .149 1.012-.635 2.25-1.839 2.902-1.239 11.75.797 11.75.769 0 1.406.563 1.414 1.25.011.85.361.77 1.095-.25.877-1.219.958-1.131.431.47-.355 1.083-.33 1.652.058 1.265 1.124-1.125 3.401 4.171 3.401 7.911 0 2.027.577 3.638 1.418 3.961.781.299 1.976 2.873 2.658 5.719.681 2.846 1.782 5.624 2.447 6.174 1.963 1.624 5.319 21.138 3.436 19.974-.528-.325-.959-1.24-.959-2.033 0-.793-.507-1.329-1.128-1.191-.62.137-1.32-1.065-1.557-2.673-.236-1.608-.854-3.715-1.372-4.684-.519-.969-.943-2.426-.943-3.238 0-.812-1.8-4.652-4-8.535-3.954-6.977-4.944-9.821-3-8.62.55.34 1-.057 1-.882s-.45-1.778-1-2.118c-.55-.34-1-1.491-1-2.559s-.675-1.941-1.5-1.941c-.907 0-1.5-.927-1.5-2.345 0-1.29-.913-3.172-2.03-4.182-1.465-1.326-1.967-2.891-1.806-5.628.284-4.805-.29-5.338-3.113-2.889-2.086 1.809-2.139 2.098-.66 3.578 1.741 1.741 1.99 2.752.934 3.807-.371.371-1.493-.566-2.493-2.083-1.743-2.642-2.569-1.778-1.939 2.027.344 2.075.977 5.268 1.133 5.715.682 1.953.034 16.229-.783 17.24-.56.693-.888 4.748-.728 9.011.16 4.263-.019 7.942-.398 8.176-.378.235-.805 3.947-.949 8.25-.143 4.302-.496 8.614-.784 9.58-.288.967.19 3.187 1.062 4.935 1.073 2.15 1.257 3.505.569 4.193-1.992 1.992-1.149 4.615 1.485 4.615 1.375 0 2.5-.45 2.5-1 0-1.297 3.703-5 5-5 .55 0 1-.675 1-1.5 0-1.712 1.798-1.93 4-.485 1.333.876 1.333 1.096 0 1.985-2.413 1.609.619 2.967 6.667 2.985 4.732.014 5.251-.216 6.171-2.735.835-2.287 1.042-2.413 1.231-.75.125 1.1.319 2.675.431 3.5.112.825.277 2.85.367 4.5.127 2.33.38 2.665 1.133 1.5 1.297-2.007 1.264-7.719-.049-8.53-.684-.423-.711-1.055-.077-1.818.534-.643.949-3.866.923-7.161-.092-11.537.286-16.135 1.148-13.991.443 1.1.609 2.337.371 2.75-.239.413.155.775.875.805 2.359.1 6.339 5.999 4.722 6.999-.808.499-1.8.459-2.355-.096-2.118-2.118-2.566-.564-2.352 8.147.123 5.007.39 8.607.592 8 .908-2.724 3.202-.965 3.202 2.454 0 2.463.36 3.336 1.17 2.836.768-.475.967-.193.578.819-.325.848-.074 2.06.56 2.694.633.633 1.887 3.034 2.787 5.336 1.778 4.548 4.466 6.997 5.683 5.178.728-1.088 6.932-4.422 8.229-4.422.385 0 .082 3.488-.673 7.75-3.197 18.038-2.921 22.965.857 15.328 2.022-4.085 4.277-3.986 3.736.165-.332 2.548.099 3.859 1.073 3.257.55-.34 1.018.196 1.04 1.191.03 1.342.429 1.091 1.548-.971.85-1.568 1.986-2.483 2.606-2.1.769.475.933-.794.546-4.22-.354-3.131-.046-6.117.853-8.272.774-1.855 1.407-4.862 1.407-6.683 0-2.558.511-3.47 2.25-4.012 1.238-.387 2.548-1.167 2.913-1.736.716-1.116 4.827 4.938 4.833 7.119.002.723.539 2.298 1.193 3.5l1.188 2.184.638-2.5c.373-1.462-.148-4.785-1.255-8-2.345-6.815-1.892-15.694 1.434-28.105 2.451-9.145 4.126-12.087 6.709-11.778.878.105 2.272-.061 3.097-.367a96.145 96.145 0 013.25-1.123c.962-.31 1.75-1.392 1.75-2.404 0-1.013.661-2.714 1.468-3.782.808-1.067 1.483-2.761 1.5-3.762.03-1.691.15-1.704 1.677-.177 1.329 1.329 1.807 1.391 2.485.322 1.011-1.594 1.08-1.417 1.428 3.676.151 2.2.332 4.225.402 4.5.071.275 1.027-1.203 2.125-3.284 1.203-2.278 2.446-3.506 3.126-3.086.752.465.904.112.455-1.057-.37-.966.076-3.334.992-5.264l1.665-3.509 1.393 2.35 1.394 2.35-.427-2.5c-.234-1.375-.759-3.293-1.166-4.261-.569-1.355-.368-1.619.872-1.143 1.069.41 1.611.078 1.611-.989 0-.884-.482-1.607-1.072-1.607-.589 0-.958-1.013-.82-2.25.138-1.238-.095-3.735-.519-5.55-.542-2.325-.283-4.326.88-6.776.907-1.911 1.388-4.301 1.068-5.309-.751-2.364.201-4.8 2.169-5.556 1.259-.483 1.439-.034.955 2.384-.639 3.199.724 5.102 1.746 2.438.377-.982 1.352-1.416 2.504-1.114 1.433.374 2.019-.165 2.434-2.242.301-1.504 2.596-5.136 5.101-8.07 2.505-2.935 4.59-6.262 4.633-7.395.043-1.133.306-1.497.583-.81.278.688 1.007 1.25 1.621 1.25.776 0 .751-.366-.083-1.2-1.836-1.836-1.43-3.008.799-2.3 1.493.474 2.226.047 2.894-1.683.492-1.274 2.068-3.408 3.501-4.741 1.433-1.334 2.606-3.021 2.606-3.75 0-1.317 1.555-1.699 5.624-1.382 1.168.091 2.823-.534 3.678-1.389S401.803 275 402.96 275s2.362-.675 2.678-1.5c.317-.825.915-1.5 1.329-1.5 1.405 0 8.033-6.857 8.033-8.31 0-2.086 1.945-3.329 6.498-4.151 2.198-.398 4.329-1.244 4.734-1.881 1.12-1.759.917-13.658-.232-13.658-.55 0-1-.48-1-1.067 0-.602.847-.799 1.939-.452 2.878.913 4.297-2.625 4.457-11.115.128-6.797.003-7.257-1.879-6.898-1.11.211-2.302.417-2.65.458-.349.041-.942 1.086-1.318 2.324-.449 1.479-.869 1.796-1.224.927-.297-.728.258-3.415 1.234-5.97.976-2.556 1.774-6.553 1.774-8.883 0-2.33.263-4.078.584-3.885 1.157.697 2.589-2.01 2.869-5.425.281-3.425 2.083-6.672 2.339-4.214.069.66.238 1.65.375 2.2.137.55.306 2.125.375 3.5.075 1.5.725 2.5 1.625 2.5 1.361 0 1.95 1.201 1.609 3.278-.07.428.552 1.038 1.382 1.357.83.318 1.509 1.688 1.509 3.043 0 2.285-.12 2.345-1.64.824-.903-.902-1.982-3.071-2.398-4.821l-.757-3.181-.103 3.124c-.056 1.719.573 5.038 1.398 7.376s1.5 5.32 1.5 6.626.421 2.374.937 2.374c.515 0 1.127 1.238 1.36 2.75.233 1.512.326.162.205-3-.254-6.658.683-7.413 2.34-1.884 1.422 4.748 1.513 11.134.158 11.134-.55 0-1-.45-1-1s-.436-1-.969-1c-.532 0-.715.659-.406 1.465.309.805-.409 2.827-1.595 4.493-1.186 1.665-1.911 3.425-1.612 3.909.3.485-.572 2.086-1.937 3.559-1.364 1.472-2.481 3.104-2.481 3.626 0 .521-.45.948-1 .948s-1 .389-1 .863c0 .719 2.295.837 5.133.265.349-.071.879-1.067 1.179-2.215 1.143-4.369 4.139-1.822 4.819 4.097 1.425 12.41 3.533 20.99 5.157 20.99.575 0 .698-1.687.303-4.156-.557-3.486.37-11.127 2.028-16.707 1.027-3.457 3.099.988 2.737 5.872l-.369 4.991h3.26c2.327 0 4.071-.859 6.095-3.004 1.559-1.652 3.209-2.774 3.665-2.491.457.282 1.134-.872 1.506-2.564.372-1.692 1.308-3.319 2.081-3.616 2.673-1.025 1.521-3.134-1.594-2.918-3.309.229-3.791-.759-1.491-3.059.83-.83 1.246-1.935.925-2.454-.321-.52.8-1.428 2.491-2.018 3.852-1.343 4.436-6.545.977-8.705-1.363-.851-1.922-1.988-1.594-3.241.334-1.279-.006-1.93-1.009-1.93-1.041 0-1.294-.545-.812-1.75 1.933-4.821 5.53-16.566 5.182-16.915-.219-.219-1.42-.594-2.669-.835-2.522-.486-3.987-1.5-2.167-1.5.642 0 1.167-.454 1.167-1.008 0-.6-.809-.504-1.993.235-1.323.827-1.791 1.879-1.392 3.134.344 1.084.192 1.638-.357 1.298-.975-.602-2.433 1.677-4.205 6.572-.544 1.502-1.566 2.588-2.271 2.414-.705-.175-.942-.128-.526.104.416.232.5.837.186 1.344-.316.512-1.18.312-1.94-.448-1.488-1.488-.006-14.494 1.796-15.757.48-.336.834-.899.787-1.25-.621-4.644.087-8.786 1.415-8.276 4.366 1.675 5.673-2.311 2.919-8.902-.976-2.335-1.347-5.029-.97-7.038.623-3.324-.295-3.899-3.266-2.044-.724.452-1.57.568-1.881.257-.938-.938-4.302 1.33-4.302 2.9 0 .806-.666 1.465-1.481 1.465-.814 0-1.763 1.125-2.108 2.5-.632 2.518-2.411 3.502-2.411 1.333 0-2.027-1.327.067-1.496 2.36-.195 2.645-2.024 3.501-2.854 1.337-.328-.855-.886-5.475-1.241-10.268-.389-5.265-1.159-9.119-1.946-9.738-1.242-.977-3.594-5.704-6.818-13.702-1.893-4.695-4.606-4.239-8.741 1.47-3.401 4.694-3.69 6.199-.904 4.708 1.1-.589 2-1.66 2-2.38 0-1.457 3.139-4.62 4.585-4.62 1.038 0 3.415 6.903 3.415 9.917 0 2.301-2.033 3.095-7.5 2.927-5.11-.157-7.027-1.491-5.262-3.664 1.074-1.323.985-1.45-.599-.856-1.406.528-1.719.327-1.278-.821.32-.836.163-2.626-.351-3.976-.601-1.582-.577-2.677.069-3.076.551-.341.741-1.443.421-2.45-.366-1.155.277-2.691 1.745-4.165 1.396-1.402 2.851-4.735 3.639-8.336 2.627-12.002 8.399-21.895 12.431-21.303 1.2.176 4.834 3.857 8.692 8.803 3.646 4.675 6.978 8.344 7.405 8.152.989-.443 6.581 4.873 6.61 6.285.03 1.404 3.927 6.365 3.956 5.036.012-.566-.661-2.003-1.496-3.196-.835-1.192-1.398-2.54-1.25-2.995.147-.455-1.645-2.557-3.982-4.671-2.337-2.114-4.25-4.718-4.25-5.786 0-1.069-.457-1.661-1.015-1.316-.558.345-2.021-.607-3.25-2.116-7.159-8.785-10.666-11.641-13.472-10.972-1.52.363-3.325.716-4.013.786-.687.069-1.25.656-1.25 1.304s-1.124 2.485-2.499 4.083c-1.374 1.599-2.499 3.232-2.5 3.63 0 .399-1.306 1.399-2.9 2.224-2.553 1.32-3.046 1.323-4.123.026-.673-.811-.932-1.474-.577-1.474.355 0-.092-1.125-.993-2.5s-1.292-2.5-.868-2.5c.423 0-.078-.937-1.115-2.083-1.352-1.493-2.786-1.977-5.072-1.71-3.288.384-3.603-.075-4.944-7.207-.156-.825-.966-3.3-1.802-5.5-1.904-5.013-1.981-9.624-.269-16.222 1.183-4.563 1.126-5.993-.496-12.381-1.009-3.973-2.09-7.479-2.403-7.792-.563-.562.368 9.248 1.102 11.624.209.676-.2 2.608-.909 4.294l-1.289 3.066-1.227-4.295C391.923 75.617 387.778 63 387.299 63c-.293 0-.254 1.013.087 2.25M376 91.024c0 .654-.675.931-1.5.614-.825-.316-1.5-.177-1.5.31s.426 1.035.947 1.219c.521.183 1.221 1.9 1.555 3.815.335 1.915 1.218 4.165 1.964 5s1.899 4.303 2.563 7.706c1.637 8.391 4.014 9.335 3.853 1.531-.108-5.226-1.43-13.086-1.803-10.719-.228 1.451-3.341-5.647-3.47-7.912-.117-2.055-2.609-3.549-2.609-1.564m-49.306 35.434c-.919 3.724-1.423 7.172-1.119 7.663.303.491-.152 1.163-1.012 1.493-.859.33-1.563 1.253-1.563 2.052 0 .799.45 1.174 1 .834.55-.34 1.056-.141 1.125.441.236 2.002.467 2.57 2.67 6.559l2.208 4-.198-13.135c-.25-16.578-.93-18.745-3.111-9.907M147.246 140.28c-.022 2.321-.087 10.408-.143 17.97-.085 11.378-.356 13.75-1.572 13.75-.892 0-1.243.587-.895 1.494.316.822.976 1.246 1.469.941.492-.304.895 1.533.895 4.083 0 3.826-.528 5.164-3.025 7.661-4.081 4.081-5.918 2.641-5.595-4.385.181-3.943-.124-5.176-1.362-5.5-2.719-.711-1.751-7.794 1.065-7.794 1.295 0 1.288-1.876-.008-2.308-.591-.197-1.075.155-1.075.784 0 .628-.414.886-.919.574-.506-.313-1.707.219-2.67 1.182-1.264 1.264-1.866 1.403-2.166.503-.714-2.142-2.245-.257-2.245 2.765 0 1.585-.45 3.16-1 3.5-.55.34-1 1.941-1 3.559 0 3.402-1.214 3.727-3.895 1.046-1.861-1.861-1.927-1.826-3.613 1.913-.945 2.094-1.471 4.206-1.171 4.693.301.486.134 1.538-.372 2.337-.63.996-.923 1.06-.934.202-.025-2.06-2.02-1.412-2.889.94-.924 2.495.641 6.189 3.509 8.284 3.001 2.193 2.763 16.898-.281 17.332-1.18.168-2.946 1.191-3.926 2.273-2.238 2.474-5.608 20.826-4.162 22.671.664.848.596 1.25-.211 1.25-.709 0-.949.759-.593 1.879.378 1.194-.783 4.194-3.183 8.22-3.54 5.939-3.801 6.938-4.131 15.794-.239 6.394-.808 9.91-1.76 10.862-.773.773-1.18 1.772-.904 2.219.733 1.186-4.603 2.307-5.711 1.199-.583-.583-.448-1.72.357-3.01 1.955-3.13.275-3.793-4.899-1.932-2.562.921-4.78 1.553-4.929 1.404-.643-.643-.554-14.341.106-16.385.97-3.002-2.842-3.177-4.433-.204-2.497 4.666-4.854 21.217-3.25 22.822 1.793 1.793 1.267 10.901-.699 12.116-2.072 1.281-5.011-.074-5.645-2.603-.329-1.31-1.224-2.381-1.989-2.381-.766 0-1.392-.45-1.392-1 0-1.908-2.049-.987-3.142 1.412-.916 2.011-.746 2.791 1.021 4.689 1.185 1.271 2.121 3.601 2.121 5.279 0 2.76.109 2.854 1.345 1.163 1.28-1.75 1.373-1.729 1.94.44.358 1.368.017 2.858-.854 3.728-.797.798-1.194 1.864-.881 2.37.312.505-.116.919-.952.919-1.403 0-2.02 1.551-3.941 9.912-.305 1.326-.178 3.126.283 4 .469.891.362 3.882-.244 6.812-1.551 7.502-.506 7.453 6.711-.314 7.274-7.827 8.712-7.802 6.218.111-.953 3.023-1.443 5.964-1.09 6.535.353.572-.523 2.204-1.946 3.628-1.424 1.424-2.589 2.029-2.589 1.345 0-.694-.662-.989-1.5-.667-.825.316-1.5.225-1.5-.202 0-1.193 2.931-4.799 2.974-3.66.021.55.622-.125 1.336-1.5 2.173-4.187 2.674-6 1.659-6-.533 0-.969.494-.969 1.099 0 1.691-6.073 6.974-7.209 6.272-.656-.406-.882 2.418-.648 8.098.333 8.114.549 8.874 3.107 10.914 3.328 2.653 3.447 4.461.538 8.159-1.677 2.133-2.341 4.64-2.75 10.385-.404 5.686-.879 7.501-1.906 7.284-.965-.204-1.2.386-.798 2 1.507 6.05 1.82 10.576.774 11.222-.63.389-1.108.012-1.108-.874 0-2.436-.124-2.925-1.286-5.059-.976-1.793-1.214-1.534-2.303 2.5-.668 2.475-1.259 3.712-1.313 2.75-.217-3.867-2.098-1.444-2.098 2.703 0 2.449-.5 5.55-1.111 6.891-.743 1.63-.786 3.018-.131 4.189 1.275 2.278.424 5.474-1.284 4.819-1.873-.719-.606 4.498 2.643 10.884.486.955.883 2.363.883 3.128 0 .765.609 1.897 1.353 2.514 1.116.927 1.269.247.873-3.877-.286-2.977-.077-5.001.516-5.001.548 0 1.057 2.665 1.13 5.921.074 3.257.554 6.97 1.068 8.25 1.071 2.673 1.314 1.554 1.186-5.468-.049-2.714.316-4.548.84-4.224.51.315 1.064-1.694 1.231-4.466.385-6.398 1.752-6.515 4.236-.361 1.077 2.667 2.284 5.077 2.682 5.357.399.281 1.691 2.981 2.872 6 1.182 3.02 2.986 6.925 4.01 8.678 1.719 2.943 2.376 5.865 3.461 15.395.496 4.363 4.018 15.02 6.563 19.864l1.867 3.554-.194-3.248c-.107-1.786-.519-3.249-.915-3.25-1.326-.004-4.639-13.355-6.825-27.502-1.189-7.7-2.566-14.781-3.058-15.736-.493-.955-.903-2.53-.911-3.5-.008-.97-.664-3.564-1.456-5.764-.793-2.2-1.461-5.687-1.485-7.75-.04-3.405.308-3.88 2.706-3.691 1.056.083 2.033-3.837 2.15-8.631.14-5.717 2.887-13.226 5.095-13.926 4.113-1.306 10.465 2.136 9.342 5.063-.243.632.932 1.718 2.611 2.413 1.679.696 3.052 1.656 3.052 2.135 0 .478 1.535 2.881 3.412 5.34 1.877 2.458 3.702 5.788 4.056 7.4.501 2.283 1.073 2.818 2.588 2.422 1.46-.382 1.944.004 1.944 1.549 0 1.132.451 2.337 1.002 2.677.551.341.751 2.28.444 4.309-.868 5.741-.441 14.07 1.086 21.19.997 4.65 1.289 5.291 1.026 2.25-.202-2.337.004-4.25.458-4.25 1.138 0 2.375 5.81 2.077 9.75-.145 1.916.223 3.25.898 3.25.689 0 .891.796.509 2-.436 1.373-.18 2 .816 2 2.11 0 2.854 5.155.945 6.551-1.379 1.009-1.369 1.194.099 1.757.944.362 1.673 1.81 1.719 3.411.043 1.529 1.384 4.806 2.98 7.281 1.595 2.475 3.455 5.625 4.133 7 1.208 2.45 1.24 2.419 1.596-1.5.199-2.2-.399-7.924-1.331-12.72-.931-4.797-1.441-9.38-1.131-10.186.309-.806.113-1.614-.436-1.797-.623-.208-.668-1.223-.12-2.705.801-2.165 1.195-1.724 4.484 5.018 1.984 4.064 3.873 8.242 4.2 9.283 1.121 3.577 1.691.793.624-3.049-1.524-5.49-1.331-8.949.609-10.888 1.583-1.583 1.552-1.943-.488-5.822-4.207-7.995-6.199-25.338-3.663-31.884.484-1.25.188-1.75-1.036-1.75-1.152 0-1.515-.519-1.107-1.582.334-.87.607-1.995.607-2.5 0-.505.498-.918 1.107-.918s.861.642.559 1.427c-.301.785.038 1.913.754 2.507.716.594 1.563 3.616 1.883 6.715.633 6.129 2.171 8.82 3.662 6.407.666-1.077 1.215-1.152 2.238-.302 1.301 1.079 1.516-10.655.266-14.504-.647-1.991-3.271-1.448-3.993.825-1.313 4.138-1.956.566-1.626-9.042.224-6.501-.081-10.597-.903-12.132-.682-1.274-1.287-3.199-1.344-4.276-.161-3.067-2.288-3.017-3.063.071-.384 1.531-1.175 3.078-1.757 3.438-.672.415-.314 1.453.98 2.842 1.52 1.631 1.961 3.25 1.731 6.356-.401 5.434-.464 5.558-1.501 2.983-1.284-3.186-4.993-5.023-4.993-2.473 0 1.052-.675 2.473-1.5 3.158-1.265 1.049-1.5.857-1.5-1.228 0-1.361-.518-3.96-1.151-5.776-1.046-2.999-1.269-3.142-2.432-1.552-.704.963-1.051 2.346-.771 3.075.704 1.836-1.509 5.684-2.808 4.881-.665-.411-.819-2.487-.411-5.561.485-3.656.277-5.278-.817-6.372-1.984-1.984-2.291-1.875-3.031 1.074-.387 1.541-1.081 2.267-1.766 1.844-.782-.484-.914.041-.431 1.709 1.371 4.732 1.483 5.871.629 6.399-.477.295-1.153-.483-1.502-1.728-.349-1.246-1.148-3.307-1.776-4.58-.91-1.847-.846-2.501.313-3.235 1.449-.916.16-1.484-2.371-1.043-.454.079-.555-.709-.225-1.75.422-1.329-.152-2.387-1.924-3.548-1.389-.91-2.526-2.32-2.526-3.132 0-.812-.484-1.477-1.077-1.477-.63 0-.945 1.52-.76 3.67.204 2.372-.148 3.825-.995 4.107-1.558.52-6.168-3.555-6.168-5.451 0-.798-1.161-1.326-2.917-1.326-3.411 0-4.43-1.801-2.363-4.178 1.099-1.263 1.194-2.129.386-3.5-1.009-1.711-1.111-1.689-1.689.359-.343 1.219-1.177 1.965-1.891 1.691-1.577-.605-1.798 4.806-.236 5.793 1.777 1.122-2.076 6.038-4.204 5.362-3.205-1.017-4.444 1.81-3.155 7.202.627 2.624.933 5.896.679 7.271s-.495 3.063-.536 3.75c-.22 3.708-2.547.584-3.587-4.817-.236-1.224-.934-3.757-1.552-5.629-.918-2.782-.63-6.357 1.578-19.603 2.783-16.695 4.658-22.876 5.296-17.451.33 2.8 2.611 3.769 3.532 1.5.383-.944.79-.883 1.664.25.943 1.223 1.057 1.037.617-1.008-.296-1.38-.147-3.142.332-3.917.478-.774.513-2.346.078-3.492-.478-1.256-.344-2.561.338-3.285 2.583-2.748 3.144-3.978 3.417-7.5.158-2.036 1.171-6.269 2.25-9.406 1.08-3.138 1.963-6.577 1.963-7.642 0-1.066.787-2.157 1.75-2.426 2.903-.811 11.765-20.27 10.299-22.617-.967-1.548-.852-2.139.635-3.267 1.497-1.134 1.543-1.382.266-1.408-.853-.018-2.09.508-2.75 1.168-1.335 1.335-1.488.822-1.215-4.067l.188-3.367-3.336 2.469c-1.835 1.358-4.124 2.747-5.087 3.086-1.043.367-1.75 1.638-1.75 3.148 0 1.392-.45 2.531-1 2.531s-1-.45-1-1c0-2.054-1.869-.902-2.838 1.75-.993 2.721-1.005 2.711-1.083-.941-.043-2.03-.547-3.98-1.12-4.334-.572-.354-.754-1.545-.405-2.646.858-2.702-.374-8.859-1.713-8.565-1.384.304-2.079-10.514-.869-13.524.66-1.641.918-.249.965 5.21.049 5.794.33 7.183 1.263 6.25 1.667-1.667 2.8-1.498 2.8.417 0 1.124.609 1.457 2 1.093 1.1-.287 2-.115 2 .384 0 1.209 8.203 1.159 11.435-.069 2.019-.768 2.565-.668 2.565.468 0 .873.593 1.216 1.5.869.825-.317 1.5-.115 1.5.448 0 .563-.562 1.25-1.25 1.528-.747.301-.545.536.5.583.963.043 1.75.533 1.75 1.087 0 .598.814.5 2-.24 1.1-.687 2-2.266 2-3.509 0-1.592-.59-2.259-2-2.259-1.1 0-2-.418-2-.929 0-.51-.746-1.674-1.657-2.585-1.254-1.254-1.68-3.645-1.75-9.822-.112-9.828 1.571-14.546 4.958-13.899 1.218.233 2.566-.146 2.996-.841.552-.893.293-1.077-.883-.625-1.267.486-1.664.066-1.664-1.764 0-1.877.601-2.471 2.75-2.719 1.928-.221 3.228-1.272 4.349-3.517 1.267-2.535 1.865-2.951 2.875-2 .994.936 1.377.925 1.734-.049.801-2.183 2.717-1.346 5.171 2.257 2.423 3.558 5.189 4.402 8.121 2.478 1.252-.822 1.13-1.086-.739-1.599-1.231-.337-1.99-1.016-1.686-1.507.612-.991-2.045-4.076-2.832-3.288-.952.951-1.402-2.111-.675-4.591.403-1.375.777-1.937.832-1.25.139 1.735 2.1 1.579 2.1-.167 0-.779.563-1.62 1.25-1.869.993-.359.997-.882.02-2.537-.833-1.413-.893-2.292-.187-2.729 1.71-1.056 4.468 2.24 4.728 5.65.308 4.052.791 4.784 2.943 4.467 1.542-.227 1.707-1.31 1.415-9.272-.309-8.396-.165-9.194 2.099-11.637 1.337-1.443 2.724-2.331 3.082-1.973.357.358.651-.212.651-1.266.002-2.471 4.246-7.417 6.365-7.417 2.711 0 1.846-1.528-1.866-3.299-3.049-1.454-3.5-2.135-3.5-5.293 0-3.325.198-3.575 2.396-3.024 1.617.406 2.58.12 2.964-.881.381-.991-.248-1.688-1.895-2.101-2.861-.718-3.341-3.852-.743-4.849 1.424-.546 1.478-.811.314-1.531-1.018-.629-1.115-1.237-.352-2.196 1.787-2.246 2.562-8.824 1.229-10.431-1.472-1.773-1.407-23.187.087-28.394 1.216-4.24 1.216-4.253.114-3.571-.488.301-1.132-.393-1.433-1.542-.301-1.149-1.027-1.792-1.614-1.43-.587.363-1.067-.015-1.067-.84s-.386-1.738-.857-2.029c-.471-.292-.875 1.369-.897 3.691m319.799 16.933c-.025.393 2.606 4.218 5.846 8.5 6.376 8.429 15.565 25.749 16.507 31.117.321 1.831 1.241 4.756 2.043 6.5.803 1.743 2.887 7.445 4.632 12.67 3.877 11.61 4.379 12.219 3.594 4.366-.38-3.813-1.942-9.053-4.125-13.843-1.932-4.239-4.445-10.841-5.586-14.671-2.908-9.765-9.378-20.477-18.333-30.352-2.493-2.75-4.554-4.679-4.578-4.287m-219.923 5.559c-.656 1.226-1.852 2.228-2.657 2.228-.907 0-1.503 1.047-1.565 2.75-.868 23.957-.959 22.304 1.151 20.986 1.428-.892 1.949-2.336 1.949-5.404 0-3.413.534-4.616 2.887-6.51 3.531-2.84 4.819-6.337 2.643-7.172-.842-.323-1.562-1.614-1.6-2.869-.039-1.254-.418-3.171-.843-4.259-.751-1.921-.807-1.914-1.965.25M218.45 178.75c-.323 1.512-1.842 6.476-3.375 11.03-1.533 4.554-2.412 8.512-1.953 8.796 1.432.884-2.526 9.63-8.124 17.951-6.012 8.936-7.22 10.096-11.498 11.041-1.65.365-3.579 1.13-4.286 1.7-.708.57-3.612 1.224-6.455 1.451-6.738.541-17.466 5.126-18.203 7.781-.475 1.709-.708 1.781-1.601.5-.867-1.244-1.001-1.159-.79.5.14 1.1-1.448 4.541-3.529 7.647-2.08 3.106-3.902 6.457-4.047 7.446-.559 3.812-8.589 3.857-8.589.048 0-.774-.928-1.65-2.062-1.947-1.848-.483-1.998-.209-1.442 2.633 1.197 6.12 2.629 7.898 5.842 7.255 1.602-.32 3.981-.582 5.287-.582s2.375-.53 2.375-1.177c0-.648 1.463-2.429 3.25-3.96 2.239-1.916 2.749-2.794 1.639-2.822-1.176-.03-1.482-.72-1.131-2.556.491-2.568 2.242-4.509 2.242-2.485 0 .615.498.81 1.107.434.738-.456.891-.004.459 1.357-.356 1.122-.188 2.325.374 2.672.6.37 1.289-1.04 1.668-3.416.356-2.226 1.04-4.047 1.52-4.047s.872-.9.872-2-.427-2-.949-2c-1.389 0 5.042-6.574 7.813-7.987 1.455-.742 4.018-.958 6.662-.561 2.615.392 4.55.234 4.944-.404.357-.576 1.548-1.048 2.648-1.048s1.741.419 1.425.931c-.317.512-.118 1.213.441 1.559.559.345 1.016-.219 1.016-1.255 0-1.343 1.072-2.148 3.741-2.809 3.115-.771 4.53-2.097 8.457-7.926 2.594-3.85 5.45-7.75 6.347-8.667.897-.917 2.039-3.488 2.539-5.714.501-2.225 1.989-6.425 3.308-9.332 2.306-5.084 6.608-19.146 6.608-21.601 0-2.562-3.959-1.201-4.55 1.564M82 186.732c-3.212.591-5 2.081-5 4.168 0 1.873 3.361 5.1 5.311 5.1 1.884 0 3.689 2.115 3.689 4.322 0 1.596.255 1.711 1.5.678 3.024-2.51 1.198-15.37-2.11-14.864-.49.075-2.015.343-3.39.596m-6.274 10.019c-1.141 1.26-1.312 2.237-.612 3.489 1.148 2.051-.813 9.708-2.522 9.852-.601.05-2.411.163-4.024.25-2.383.128-3.06.719-3.621 3.158-3.52 15.304-3.465 14.593-1.277 16.356 1.122.904 2.409 2.544 2.861 3.644.769 1.873.848 1.844 1.242-.462.287-1.678-.276-3.027-1.771-4.237l-2.193-1.776 2.096-4.328c1.152-2.381 2.095-4.861 2.095-5.513 0-.651.675-1.184 1.5-1.184s1.5.45 1.5 1c0 1.498 2.259 1.207 4.879-.628 1.655-1.159 1.973-1.845 1.104-2.382-.932-.577-.747-2.139.785-6.622 1.874-5.485 2.026-12.368.273-12.368-.402 0-1.444.788-2.315 1.751m309.072 13.171c-.857 1.001-2.097 3.453-2.755 5.449-.659 1.996-1.748 3.629-2.421 3.629-2.589 0-3.459 2.086-2.021 4.843.763 1.461 1.389 3.684 1.393 4.938.007 2.609 2.59 4.035 4.269 2.356.62-.62 1.174-2.951 1.23-5.179.075-3.004.846-4.84 2.983-7.104 2.429-2.574 2.696-3.349 1.703-4.94-.649-1.038-1.179-2.541-1.179-3.341 0-2.319-1.511-2.625-3.202-.651m-167.656 24.156c-1.435 1.541-1.796 2.634-1.133 3.433.536.645.693 1.454.35 1.797-.343.343-.568 3.029-.5 5.968.116 5.044-.15 5.652-4.711 10.785-2.658 2.991-4.683 5.889-4.499 6.439.184.55-.787 1.52-2.158 2.156-2.022.938-2.491.891-2.491-.25 0-.773-.502-1.406-1.117-1.406-.624 0-.886.882-.593 2 .388 1.483.03 2-1.384 2-1.382 0-1.941-.756-2.034-2.75a93.843 93.843 0 00-.414-5.25c-.451-3.927.611-7.187 2.15-6.597 2.048.786 3.701-2.902 1.952-4.353-1.071-.889-1.593-.855-2.229.145-.457.718-1.488 1.305-2.29 1.305-.812 0-1.743 1.331-2.1 3-.353 1.65-1.649 4.68-2.88 6.733-1.231 2.054-2.004 4.304-1.717 5 .326.792.772.444 1.19-.925l.669-2.192 2.398 2.588c2.719 2.933 3.038 4.296 1.006 4.296-.766 0-1.698.788-2.071 1.75-.633 1.631-.776 1.618-2.107-.191-1.263-1.715-1.429-1.741-1.429-.225 0 .943-1.055 2.117-2.344 2.607-2.951 1.121-5.601 6.857-3.709 8.027 1.634 1.009.423 5.032-1.514 5.032-1.764 0-1.892 1.648-.183 2.338 1 .403 1 .52 0 .583-.687.043-1.25.584-1.25 1.201 0 .752.521.69 1.576-.185 1.674-1.389 3.374.015 3.409 2.813.008.688.465 1.25 1.015 1.25.55 0 1 .9 1 2s-.623 2-1.383 2c-1.758 0-2.855 4.008-1.533 5.601.551.665.601 1.36.11 1.552-.489.191-1.183 3.904-1.542 8.252-.65 7.868-.643 7.897 1.354 6.09 2.675-2.421 3.442-1.384 2.065 2.79-1.473 4.462-1.979 8.577-2.169 17.629-.142 6.767-.273 7.203-1.494 5-.735-1.328-1.369-3.314-1.408-4.414-.063-1.782-.222-1.727-1.454.5-.761 1.375-1.758 2.387-2.215 2.25-.957-.288-.947.076.133 4.521 1.25 5.149 2.57 4.833 1.959-.469-.443-3.848-.326-4.444.591-2.999.63.992 1.327 3.24 1.549 4.995.222 1.755.861 3.343 1.42 3.53 1.31.436 1.322 3.865.017 4.672-1.436.887-1.236 4.497.25 4.515.774.01.869.295.25.75-1.568 1.152-1.734 3.472-.311 4.352.984.608 1.015 1.079.131 1.963-1.3 1.3-.617 4.222.785 3.355.492-.304.895.149.895 1.006s.675 1.559 1.5 1.559c2.19 0 1.786 1.246-1.079 3.333-2.768 2.015-5.391.954-5.453-2.205-.028-1.419-.208-1.396-1.404.182-1.3 1.715-3.324.729-2.208-1.076.26-.422.032-3.009-.508-5.75-1.742-8.848-2.246-18.301-1.967-36.856.098-6.464.359-7.674 1.461-6.759.738.612 1.607.849 1.931.525.84-.84-.322-3.482-1.273-2.894-.435.269-1.048-.184-1.364-1.006-.689-1.796.5-1.958 2.164-.294.933.933 1.2.489 1.2-2 0-3.184-1.377-4.334-2.336-1.95-.277.688-.33-1.113-.119-4 .212-2.888.852-6.123 1.423-7.19.577-1.078.648-2.18.16-2.481-.824-.509-2.335 4.065-3.608 10.921-.307 1.65-.751 7.459-.987 12.909-.242 5.579-.904 10.202-1.515 10.58-.597.369-.774 1.484-.393 2.477.497 1.295.294 1.675-.716 1.341-1.366-.452-2.276-8.121-2.972-25.057-.13-3.163-.674-5.75-1.209-5.75-.584 0-.548-.512.09-1.281.584-.704 1.037-3.137 1.006-5.406-.032-2.27.242-4.611.608-5.203.933-1.51-.436-8.11-1.683-8.11-.566 0-1.626.788-2.357 1.75-1.265 1.667-1.33 1.667-1.36 0-.018-.962-.677-1.75-1.465-1.75-1.741 0-2.258 1.874-2.427 8.806-.081 3.294.247 5.073.865 4.691.547-.338.995.113.995 1.003 0 .89-.45 1.34-1 1-.567-.351-1 .49-1 1.941 0 2.646 1.5 3.511 2.271 1.309.24-.687.741 1.45 1.113 4.75 1.566 13.902 1.645 16.5.507 16.5-.775 0-.818.397-.137 1.25.569.712.652 2.111.193 3.25-.774 1.92-.809 1.913-.877-.191-.08-2.508-1.905-4.095-2.441-2.122-1.849 6.801-2.201 9.826-1.327 11.388.659 1.178.606 2.342-.162 3.573-.627 1.003-1.172 3.068-1.21 4.588-.064 2.494-.163 2.569-1.016.764-.826-1.749-.885-1.685-.471.508.545 2.886-.21 4.368-2.693 5.284-.963.355-1.75 1.109-1.75 1.677 0 1.19 1.631 1.393 2.253.281.23-.413.282-.187.114.5-.167.688.118 1.25.633 1.25s.7.617.411 1.371.228 2.126 1.151 3.048c.922.922 1.398 1.955 1.057 2.295-.34.341-.619.264-.619-.17 0-.434-.675-.229-1.5.456-1.229 1.02-1.5.951-1.5-.378 0-.892-.383-1.622-.852-1.622-.963 0-.78 10.701.2 11.681.349.349.133 1.239-.479 1.977-.821.989-.815 1.342.023 1.342 1.742 0 5.262-6.287 3.969-7.086-.76-.47-.75-.864.032-1.348.609-.376 1.126-.32 1.149.125.141 2.732 3.888-6.931 3.952-10.191.076-3.977.085-3.985 1.506-1.5 1.852 3.24 1.863 6.138.032 8.559-.808 1.067-1.483 2.953-1.5 4.191-.018 1.238-.425 2.25-.905 2.25-1.253 0-5.022 9.11-4.419 10.681.278.726 1.448 1.319 2.599 1.319 1.628 0 1.826.267.893 1.2-3.06 3.06-.205 3.814 3.03.8 3.087-2.875 4.28-2.464 1.843.635-1.14 1.449-2.073 3.374-2.073 4.278 0 .903-.912 2.424-2.028 3.379-1.748 1.497-1.854 2.044-.772 3.972l1.256 2.236.349-2.308c.561-3.706 3.195-.662 3.195 3.691 0 2.351.796 4.538 2.25 6.184 2.716 3.075 5.75 8.587 5.75 10.447 0 .743.892 1.634 1.982 1.98 1.091.346 2.729 2.203 3.642 4.126 2.101 4.428 3.197 3.328 3.998-4.017.614-5.64.573-5.778-1.429-4.706-2.558 1.369-3.193 1.384-3.193.078 0-.563 1.125-1.452 2.5-1.975 3.327-1.265 3.183-2.996-.25-3.015-1.797-.01-2.306-.297-1.47-.828.989-.628.803-1.418-.823-3.484-2.859-3.635-.755-3.386 3.082.365l3.108 3.038-.465-8.788c-.256-4.833-.135-10.588.268-12.788.722-3.943.744-3.96 1.515-1.19.502 1.803 1.275 2.62 2.158 2.281.799-.306 1.377.113 1.377.999 0 .841-.45 1.25-1 .91-.577-.357-.994.57-.985 2.191.012 2.15.237 2.459.959 1.317 1.777-2.811 3.452.331 2.157 4.047-1.187 3.404-.477 13.613 1.01 14.532 1.205.745 1.078 7.413-.141 7.413-.55 0-1.007 1.462-1.015 3.25-.021 4.387-1.695 1.78-2.569-4-.668-4.415-2.416-5.899-2.416-2.052 0 3.007 4.883 18.802 5.813 18.802.412 0 1.338-1.462 2.059-3.25l1.31-3.25 1.265 2.887c1.482 3.382 2.258 2.516 3.447-3.848.79-4.231.71-4.548-1.017-4-1.39.441-2.134-.086-2.876-2.037-1.993-5.241-.401-7.871 1.817-3.002.627 1.375 1.527 2.5 2 2.5 1.461 0 3.182-4.892 3.182-9.047 0-2.174.45-3.953 1-3.953 1.284 0 1.259 1.378-.151 8.397-1.003 4.994-.938 5.943.505 7.385 1.54 1.54 1.739 1.432 2.87-1.563.668-1.771 1.703-3.219 2.3-3.219 1.548 0 3.71-14.076 3.031-19.738-.403-3.36-.295-4.173.367-2.762.515 1.1.969 3.661 1.008 5.691.059 3.109 2.07 6.906 2.07 3.908 0-.56 1.19-2.122 2.645-3.471 3.24-3.004 4.4-9.168 3.648-19.378-.356-4.832-.176-7.25.54-7.25 1.196 0 .976-9.882-.265-11.89-.895-1.448-3.568.346-3.568 2.396 0 .693-.955 1.511-2.123 1.816-1.867.488-2.037 1.013-1.408 4.364.393 2.095 1.027 4.035 1.409 4.312.382.276.782 2.302.89 4.502.147 3.033-.017 3.517-.679 2-.802-1.834-.933-1.855-1.586-.256-1.219 2.984-2.406.906-1.429-2.501 1.292-4.505 1.163-5.743-.599-5.743-2.203 0-3.726 4.544-4.019 12-.241 6.098-2.687 17.571-4.03 18.901-.672.666.266-5.5 1.66-10.901 2.161-8.378.621-11.359-2.971-5.75-2.796 4.366-2.657 1.458.228-4.75 3.025-6.51 3.917-10.221 2.644-11.008-.561-.347-.749-1.069-.417-1.605.331-.536.075-1.61-.57-2.387-.645-.777-.853-1.928-.464-2.559.444-.718 1.257-.014 2.176 1.884 1.951 4.028 4.288 4.924 4.288 1.644 0-1.358.916-3.385 2.036-4.505 1.121-1.121 1.726-2.54 1.346-3.155-.42-.68-.238-.838.463-.404.635.392 1.155.263 1.155-.287s-.472-1.291-1.048-1.648c-1.443-.891-.058-9.749 1.683-10.77.751-.44 1.365-1.677 1.365-2.75 0-1.072.338-1.95.75-1.951.412 0 .79-5.646.84-12.545.07-9.795-.19-12.438-1.188-12.055-.702.27-1.459-.272-1.682-1.204-.301-1.261-.732-.927-1.682 1.305-.714 1.677-1.482 2.446-1.743 1.744-.256-.691-.877-1.002-1.38-.691-1.522.94-1.026-1.401.732-3.454.906-1.058 2.259-1.688 3.008-1.401.947.363 1.282-.195 1.103-1.838-.206-1.884.271-2.421 2.361-2.664 3.525-.409 3.851 1.159 3.867 18.613.009 9.435.36 14.095 1.03 13.681.559-.346.783-1.006.498-1.467-.285-.461-.096-1.892.421-3.181.84-2.097.945-1.95 1.002 1.408.065 3.84.831 4.582 2.75 2.663.783-.783 1.275-.783 1.759 0 .37.598.195 1.087-.387 1.087-.582 0-1.052 1.012-1.044 2.25.011 1.624.252 1.877.866.908.614-.968 1.01-.551 1.423 1.5.369 1.833.074 3.227-.83 3.926-1.605 1.241-.916 8.402.931 9.666.781.535.786.965.016 1.5-.594.413-1.102 3.45-1.129 6.75-.028 3.3-.572 7.313-1.21 8.917-.912 2.293-.884 3.09.129 3.724.86.539 1.391.182 1.596-1.073.169-1.034 1.413-2.157 2.764-2.496 2.102-.528 2.356-1.01 1.76-3.344-.777-3.043-.747-4.701.207-11.221.362-2.471.743-14.622.848-27.002.105-12.381.508-23.025.896-23.653.744-1.203-1.887-2.812-4.032-2.466-2.014.325-1.436-2.99.871-4.991 1.857-1.611 2.142-3.02 2.284-11.318.09-5.213.392-9.708.673-9.988 1.145-1.145 4.922.754 4.922 2.476 0 2.303 4.707.99 9.683-2.703 1.751-1.299 3.664-2.362 4.25-2.362.587 0 1.067-.406 1.067-.901 0-.496 2.035-2.907 4.522-5.359 3.926-3.871 4.321-4.625 3-5.722-.837-.694-1.522-1.607-1.522-2.027 0-1.187 6.421-1.86 7.131-.747.41.642 1.285.608 2.5-.097 1.516-.881 1.569-1.092.28-1.117-1.887-.036-7.401-5.849-8.333-8.785-.994-3.131-3.574-5.011-3.593-2.617-.01 1.132-.306 1.437-.75.772-1.73-2.591-5.082-3.492-6.163-1.657-.876 1.486-1.181 1.535-1.977.321-.757-1.153-1.236-1.192-2.435-.197-1.229 1.02-1.607.876-2.143-.814-.359-1.129-1.184-2.087-1.834-2.13-3.586-.231-7.85-1.923-4.85-1.923.642 0 1.167-.675 1.167-1.5s-.88-1.5-1.955-1.5c-1.075 0-3.079-1.125-4.454-2.5-1.375-1.375-2.217-2.5-1.871-2.5.346 0-.381-1.075-1.615-2.388-1.414-1.505-2.958-2.202-4.174-1.884-1.396.365-1.935-.012-1.946-1.361-.013-1.54-.178-1.61-.946-.396-.512.809-1.216 1.186-1.565.837-.348-.349.181-1.878 1.177-3.398 1.8-2.748 1.798-2.761-.42-2.181-2.516.658-3.164-1.896-1.024-4.036.943-.943.861-1.554-.376-2.791-1.445-1.445-1.768-1.385-3.689.676M91.27 241.102c.309 4.521.105 9.394-.464 11.025-.846 2.426-.581 3.812 1.554 8.148 1.415 2.874 2.7 6.575 2.856 8.225.178 1.874.847 3 1.784 3 2.151 0 2.457-5.71.578-10.792-1.092-2.952-1.485-7.085-1.317-13.847.205-8.284-.029-9.937-1.666-11.75-3.313-3.671-3.914-2.589-3.325 5.991m380.798 5.648c-.038 1.238-.518 2.25-1.068 2.25s-1 .505-1 1.122c0 .82.373.814 1.379-.022 1.1-.913 1.477-.634 1.862 1.378.281 1.472.019 2.522-.63 2.522-.733 0-1.111 3.091-1.111 9.095 0 5.002-.337 9.303-.75 9.559-.413.255-.75.914-.75 1.464 0 .55.437.73.971.4.534-.33 1.251.52 1.595 1.888.705 2.81 5.385 6.523 5.504 4.367.039-.7.457-.373.93.727.728 1.694.87 1.519.93-1.143.04-1.82.702-3.385 1.57-3.719.825-.316 1.5-1.573 1.5-2.792 0-1.219.864-3.146 1.92-4.282 3.031-3.259 1.769-7.652-1.983-6.901-3.784.756-5.328-.951-7.446-8.234-2.56-8.803-3.337-10.546-3.423-7.679m-11.29 32.151c-6.025 2.815-7.247 4.441-7.582 10.093-.295 4.972-.237 5.098 1.835 3.989 1.177-.63 2.398-.887 2.713-.573.314.315 1.17.076 1.901-.531.731-.606 1.975-.855 2.765-.552 1.041.399 1.618-.531 2.1-3.388.366-2.167 1.066-3.939 1.555-3.939.489 0 1.651-1.163 2.583-2.585 2.885-4.403-1.101-5.677-7.87-2.514m-314.295 2.177c-1.309 5.957-1.686 8.453-1.761 11.633-.042 1.809-.701 3.451-1.51 3.761-1.032.396-1.248.065-.77-1.18.365-.952.347-1.414-.04-1.027-.387.387-1.297-.077-2.021-1.031-1.923-2.531-1.666-3.457.619-2.234 2.263 1.211 2.715-.101.75-2.179-.687-.726-2.03-3.008-2.984-5.071-1.96-4.24-4.145-5.108-3.18-1.264.343 1.367.689 3.622.769 5.01.082 1.432.637 2.336 1.282 2.089.712-.273.939.322.606 1.592-.301 1.152.072 2.415.864 2.925 1.172.756 1.177 1.037.03 1.777-.861.555-.965 1.015-.282 1.25.644.221.741.918.239 1.726-.693 1.116-1.307 1.052-3.468-.365-1.569-1.028-2.626-1.271-2.626-.605 0 .613.477 1.115 1.059 1.115s.766.474.408 1.053c-.358.579.313 1.889 1.491 2.91 1.285 1.115 1.729 2.112 1.111 2.495-.567.35-.983 2.781-.923 5.403.059 2.622-.205 5.751-.587 6.953-.538 1.696-.286 2.193 1.124 2.218 2.842.05 5.506 2.588 5.669 5.402.081 1.41.598 2.407 1.148 2.214.55-.193.936-1.43.857-2.749-.079-1.32-.375-5.661-.658-9.649-.288-4.054-.115-7.25.393-7.25.499 0 .908.371.908.824 0 .453.726 5.065 1.614 10.25 1.616 9.44 3.232 12.574 4.591 8.902.783-2.117 3.795-1.701 3.795.524 0 1.426 2.463 2.703 3.402 1.764.949-.949.695-5.215-.437-7.33-1.395-2.607-2.949-2.445-3.035.316-.067 2.133-.112 2.146-.866.25-.437-1.1-.396-3.067.092-4.372.581-1.552.492-2.847-.257-3.75-.835-1.006-.841-1.378-.021-1.378 1.504 0 1.367-1.091-.435-3.475-1.302-1.723-1.764-1.806-3.613-.651-1.916 1.196-2.042 1.146-1.314-.525.444-1.017.699-2.974.567-4.349s-.317-8.011-.411-14.747c-.17-12.132-.883-15.12-2.189-9.175m65.453 1.263c-.627 2.487-1.768 4.764-2.538 5.06-.769.295-1.366 1.563-1.328 2.818.067 2.156.116 2.171.892.281.488-1.189.611.48.303 4.113-.519 6.126.901 9.355 2.778 6.317.847-1.369 1.57.647 2.177 6.07.196 1.749.805 2.412 2.03 2.206.963-.161 1.75.203 1.75.809 0 .607.52.782 1.155.39.715-.443.883-.275.44.44-.414.671-.103 1.155.743 1.155 1.541 0 3.662-9.379 3.662-16.195 0-1.943.447-5.891.994-8.774.547-2.883.757-5.624.468-6.092-.986-1.596-3.248.162-2.735 2.126.366 1.4-.01 1.939-1.36 1.95-1.566.013-1.625.169-.367.965 1.2.759.859 1.172-1.709 2.068-3.39 1.182-5.344 4.683-3.314 5.938.858.53.748.906-.393 1.343-.892.343-1.636.076-1.702-.61-.065-.671-.471.131-.902 1.781-.575 2.2-.69 1.534-.434-2.5.455-7.161 1.502-12.352 2.639-13.088.501-.324.23-1.152-.6-1.842-1.292-1.072-1.675-.599-2.649 3.271m242.065 16.764c0 .93-1.368 2.044-3.251 2.648-3.219 1.033-3.224 1.044-.5 1.145 3.356.125 3.463 1.084.436 3.928-3.472 3.261-11.296 2.819-8.555-.484 2.492-3.002-1.222-1.176-5.089 2.503-6.378 6.067-5.44 7.444 3.024 4.438 5.616-1.994 6.663-1.458 4.999 2.56-2.08 5.022-.946 9.473 2.678 10.512 4.733 1.358 9.938.051 10.62-2.666.681-2.712 4.634-3.459 4.644-.877.003.928.9 3.038 1.993 4.688s1.99 2.363 1.993 1.583c.004-.779.331-1.092.727-.696.396.396.587 2.271.424 4.167-.37 4.296.926 4.443 2.755.312l1.387-3.134 1.321 2.384c.726 1.311 2.018 4.725 2.871 7.586 1.111 3.729 2.287 5.57 4.15 6.5 1.789.893 3.111 2.859 4.236 6.298l1.636 5 5.979-.279c5.766-.27 8.648-1.427 7.188-2.888-.385-.385-1.233-.167-1.884.484-.651.651-3.046 1.183-5.322 1.183-4.206 0-6.461-2.302-6.461-6.595 0-.825-1.196-2.609-2.657-3.963-2.594-2.404-7.329-12.401-7.338-15.492-.003-.853-.541-2.086-1.196-2.741-.655-.655-1.156-3.528-1.113-6.384.048-3.189-.457-5.729-1.309-6.581-.763-.763-1.394-1.017-1.402-.565-.009.451-.467.146-1.018-.679-.848-1.269-1.378-1.076-3.437 1.25-1.339 1.512-2.59 2.75-2.781 2.75-.972 0 .656-7.091 1.856-8.087.767-.637 1.395-1.504 1.395-1.927 0-.886-4.893-2.412-6.75-2.105-.687.114-1.25-.193-1.25-.682 0-.488-1.124-2.195-2.499-3.793-1.755-2.041-2.499-2.428-2.5-1.301m-331.509 36.634c-.396 1.231-1.118 1.992-1.606 1.691-.894-.553-1.347 2.913-.998 7.635.194 2.611-3.603 8.553-4.739 7.417-1.167-1.167-.654-3.98.851-4.662 1.082-.49.874-.699-.75-.75-1.714-.053-2.286.525-2.4 2.43a259.131 259.131 0 01-.25 3.75c-.055.688.463 1.137 1.15 1 1.41-.282 1.739 2.4.358 2.917-.491.183-1.053 3.258-1.25 6.833-.197 3.575-.654 6.726-1.016 7.002-.362.277-.975 2.189-1.362 4.25-.59 3.149-.428 3.748 1.016 3.748 1.116 0 1.516-.525 1.142-1.5-.35-.914-.001-1.5.893-1.5.808 0 1.398-.337 1.31-.75-.087-.413.107-1.425.43-2.25.324-.825.884-4.984 1.244-9.243s1.095-8.016 1.633-8.349c.614-.379.73.724.312 2.954-.522 2.782-.209 4.142 1.436 6.233L122 367.27l.08-3.385c.043-1.862.056-6.629.027-10.593-.028-3.965.408-7.492.969-7.839.64-.396.673-1.064.088-1.792-1.096-1.363.273-5.661 1.804-5.661.567 0 1.032-.477 1.032-1.059s-.416-.802-.924-.488c-.509.314-1.136-.222-1.394-1.191-.402-1.506-.575-1.436-1.19.477M108 339.948c0 1.037-.542 2.066-1.203 2.286-.694.232-1.155 2.066-1.09 4.334.063 2.163-.334 4.475-.882 5.138-.549.664-.676 1.726-.283 2.362.393.636.149 1.505-.542 1.932-.691.427-1.406 2.447-1.589 4.489-.184 2.042-.775 4.245-1.315 4.895-.631.761-.638 1.707-.02 2.65.819 1.249 1.182 1.178 2.443-.475.815-1.068 1.481-1.405 1.481-.75s.45 1.191 1 1.191 1-.738 1-1.64c0-.902.745-2.185 1.656-2.851 1.43-1.045 1.501-1.829.52-5.725-.908-3.605-.839-5.659.344-10.198 1.851-7.109 1.849-8.231-.02-8.948-1.006-.386-1.5.045-1.5 1.31m353.821 2.601c-.299.523-.814 2.085-1.144 3.471-.33 1.386-1.63 3.62-2.888 4.964-7.268 7.762-9.618 18.71-4.039 18.82 2.847.056 9.151-2.364 9.38-3.601.595-3.217.288-10.831-.457-11.342-.528-.362.17-2.957 1.61-5.987 2.56-5.386 2.656-7.898.225-5.881-.961.798-1.425.757-1.728-.152-.229-.689-.657-.819-.959-.292m-104.27 2.291c-.321 1.012-1.686 2.43-3.033 3.151-1.348.721-2.214 1.693-1.925 2.16.289.467.091.849-.44.849s-.73.9-.443 2c.288 1.1.035 2-.562 2-.597 0-.826-.675-.51-1.5.958-2.496-.366-1.691-2.768 1.683-1.79 2.514-1.917 3.049-.601 2.544.917-.352 1.923-.226 2.235.28.313.506 1.455.034 2.538-1.049 3.387-3.387 6.243-.731 5.689 5.291-.29 3.148.002 5.114.865 5.83 1.324 1.1 2.404 3.98 4.413 11.772.618 2.393 1.347 4.126 1.622 3.851.275-.275-.029-2.458-.676-4.851s-1.319-7.641-1.494-11.662c-.174-4.021-.827-7.925-1.45-8.676-.623-.75-1.052-1.961-.953-2.689.455-3.361-.145-8.888-.914-8.413-.47.291-.643-.583-.383-1.941.549-2.87-.351-3.338-1.21-.63m-68.472 30.969c-.043.72-.505 1.046-1.026.724-.548-.339-.851 1.109-.721 3.441.124 2.214-.125 4.026-.554 4.026-.428 0-.778-.765-.778-1.7 0-1.042-.347-1.332-.896-.75-1.087 1.152.495 13.449 1.912 14.866.645.645.984.563.984-.241 0-.673 1.125-1.652 2.5-2.175 1.375-.523 2.5-1.47 2.5-2.105 0-.774 1.455-.991 4.407-.658 4.868.548 5.523.283 7.343-2.973 1.711-3.062 1.567-4.407-.434-4.058-1.091.191-1.902-.585-2.305-2.206-.51-2.049-1.244-2.508-4.067-2.546-4.243-.057-7.15-1.312-6.284-2.713.361-.583.174-.756-.42-.389-.588.363-1.297.095-1.576-.596-.392-.973-.524-.962-.585.053m-92.673 71.711c-.359 1.43-.335 4.486.055 6.79 1.871 11.07 1.93 10.453-1.318 13.701l-3.069 3.069-.029-2.79a743.47 743.47 0 01.028-9.54c.037-4.363-.341-6.75-1.067-6.75-.618 0-.857.432-.531.959.65 1.053-1.498 5.041-2.716 5.041-.417 0-.759-1.523-.759-3.383 0-3.571-3.015-5.626-4.786-3.264-1.3 1.734-1.276 5.991.039 6.803 1.5.928 2.677 12.701 1.314 13.155-.552.184-.022 1.175 1.178 2.203 1.675 1.434 1.922 2.182 1.061 3.22-1.349 1.626.117 3.479 3.116 3.936 1.472.225 2.025-.371 2.263-2.436.226-1.962.879-2.734 2.315-2.734 1.446 0 2.022-.693 2.079-2.5.043-1.375.156-3.062.25-3.75.259-1.893 2.97-1.496 3.41.5.212.962.359-2.863.326-8.5-.032-5.637-.446-10.25-.92-10.25-.474 0-.586-1.097-.25-2.439.337-1.341.174-2.709-.362-3.041-.536-.331-1.268.569-1.627 2M92 487.7c0 1.045.391 2.328.869 2.85.477.522 1.67 3.2 2.65 5.95s3.103 6.71 4.719 8.8c1.615 2.091 2.714 4.381 2.442 5.091-.272.71-.093 1.925.397 2.7.632.997.897 1.044.908.159.04-3.322 7.447.449 14.015 7.137 3.309 3.369 9.489 14.974 10.977 20.613.653 2.475 3.767 9.9 6.919 16.5 7.726 16.175 12.077 29.821 13.175 41.314.489 5.122 1.16 9.75 1.49 10.284.33.534 1.019 3.932 1.532 7.552 1.11 7.84 1.602 8.848 3.534 7.244 1.708-1.417 1.194-6.554-1.737-17.374-1.039-3.839-1.902-9.239-1.917-12-.018-3.286-1.052-7.422-2.993-11.975-1.632-3.825-3.261-8.527-3.622-10.448-.36-1.922-2.358-6.667-4.44-10.546-4.673-8.707-7.8-16.412-9.482-23.366-2.028-8.382-12.254-23.409-16.862-24.778-2.986-.887-13.574-11.516-13.574-13.626 0-.979-.45-1.781-1-1.781s-1-.405-1-.9c0-.494-1.575-3.239-3.5-6.1-2.281-3.39-3.5-4.539-3.5-3.3m133 .362c0 1.847 3.237 13.335 3.927 13.938.315.275.605 1.625.645 3 .04 1.375.397 4.586.794 7.135.527 3.383.351 5.005-.652 6.009-.756.755-1.189 1.932-.961 2.615.627 1.881-1.504 1.484-2.73-.509-.932-1.514-1.04-1.413-.8.75.152 1.375.727 2.507 1.277 2.515 2.121.033 3.252 1.578 3.813 5.211.32 2.076.83 4.674 1.132 5.774.302 1.1-.124 2.873-.947 3.94-1.473 1.909-1.528 1.905-3.536-.25-2.698-2.896-3.309-2.762-2.555.56.592 2.612.548 2.653-.892.809-.833-1.068-1.515-3.179-1.515-4.691 0-1.513-.43-3.016-.956-3.341-.526-.325-.764-1.139-.528-1.809.524-1.491-2.234-5.334-3.162-4.405-.367.367.105 2.377 1.047 4.468 1.885 4.179 2.407 6.342 2.522 10.438.061 2.142.448 2.588 1.827 2.102 1.375-.483 1.499-.343.578.654-1.298 1.406-.641 4.336.777 3.46.492-.304.915-.189.939.256.024.445.413 2.722.865 5.059.644 3.327.526 4.25-.543 4.25-.837 0-1.366-1.11-1.366-2.865 0-1.576-.9-4.009-2-5.408-1.1-1.398-2-3.311-2-4.251 0-1.217-.576-1.559-2-1.186-1.328.347-2 .03-2-.943 0-.806-.457-1.182-1.016-.837-.559.346-.779 1.013-.489 1.483.954 1.542 1.324 12.007.425 12.007-1.382 0 2.432 6.948 3.83 6.975.688.014 1.25.7 1.25 1.525s.439 1.5.975 1.5c.634 0 .634-.898 0-2.565-1.292-3.399-1.23-4.31.275-4.003 7.124 1.454 10.738 3.627 10.765 6.473.013 1.276.187 1.324.875.238.56-.883 1.086-.992 1.506-.311.355.575-.076 1.449-.958 1.943-1.401.784-1.445 1.453-.344 5.311l1.259 4.414.966-4.25c.554-2.439 1.544-4.25 2.323-4.25.747 0 1.358-.408 1.358-.906 0-1.258 4.129-.133 6.25 1.702 1.116.966 1.75 1.096 1.75.359 0-.635.45-1.155 1-1.155 1.118 0 1.33 6.098.378 10.859-.342 1.71-1.065 2.834-1.607 2.5-.572-.354-.764.177-.457 1.266.29 1.031.807 2.85 1.148 4.042.892 3.116-2.841 1.992-4.344-1.308-.62-1.36-1.578-2.193-2.129-1.852-.552.341-1.277-.095-1.613-.969-.471-1.229-.923-1.329-1.993-.441-1.113.924-1.383.674-1.383-1.275 0-2.79-1.7-4.874-3.434-4.209-1.515.581-3.392-3.091-3.891-7.613-.213-1.925-.387 1.653-.387 7.952 0 7.706-.374 11.577-1.144 11.833-.629.21-1.144.971-1.144 1.691 0 2.339-2.8 2.479-4.276.214-3.267-5.012-5.066-9.346-4.896-11.793.26-3.739-4.977-13.008-8.846-15.655-4.348-2.974-5.094-2.049-1.075 1.334 3.944 3.318 7.092 9.688 7.097 14.362.002 1.959.964 5.137 2.139 7.062 4.599 7.539 15.858 30.586 15.871 32.488.022 3.323 1.154 6.526 2.1 5.942 1.888-1.167.735-7.345-2.611-13.987-4.271-8.48-4.333-9.962-.503-11.943 1.65-.853 3-2.045 3-2.648 0-.761.432-.738 1.411.074.968.804 1.615.841 2.061.119.358-.579 1.748-.777 3.089-.44 2.853.716 3.279-1.112.971-4.164-1.7-2.247-1.915-3.441-.621-3.441.501 0 1.891 2.025 3.089 4.5s2.926 4.56 3.839 4.634c6.496.526 9.16.254 9.161-.936 0-.716 1.324-1.764 2.943-2.328 1.776-.619 3.309-2.085 3.868-3.698.873-2.518.969-2.397 1.671 2.078.867 5.529 1.532 5.876 3.358 1.75 1.581-3.573 2.792-3.821 3.666-.75 1.235 4.343 5.809 14.768 6.274 14.303.259-.258-.265-2.307-1.163-4.553-.919-2.296-1.364-5.159-1.017-6.542.377-1.503.186-2.458-.492-2.458-.609 0-1.108-.388-1.108-.861 0-.474 1.238-.715 2.75-.536 1.512.179 1.984.087 1.047-.203-.937-.291-1.985-1.418-2.331-2.506-.406-1.279-1.218-1.79-2.298-1.447-1.278.405-2.375-1.013-4.669-6.041-1.65-3.614-3.561-7.039-4.249-7.611-.687-.572-1.25-2.335-1.25-3.917 0-1.769-.482-2.782-1.25-2.628-.687.137-1.25-.312-1.25-1 0-.687.376-1.138.835-1 .46.138 1.45-1.212 2.202-3 1.307-3.109 3.463-4.452 3.463-2.158 0 .601.959 2.289 2.132 3.75l2.132 2.658-.696-3.848c-.474-2.621-.356-3.639.368-3.191 1.344.83 1.354-.05.029-2.527-.57-1.064-1.721-1.934-2.559-1.934-.838 0-1.244-.453-.901-1.008.855-1.383-1.57-3.493-4.005-3.486-1.586.004-2.034.729-2.164 3.5-.09 1.922-.202 4.083-.25 4.803-.047.72-.543 1.026-1.102.681-.559-.346-.717-1.113-.351-1.705.446-.722-.207-.858-1.984-.412-1.896.476-2.649.277-2.649-.699 0-.75-.946-2.22-2.102-3.267-1.157-1.046-2.765-3.183-3.574-4.748-1.887-3.649-2.888-2.717-1.466 1.365.817 2.342.799 3.028-.071 2.738-1.848-.616-3.261-5.851-1.82-6.742.908-.561.689-1.829-.878-5.072-1.149-2.378-2.089-4.83-2.089-5.448 0-.618-.956-3.104-2.125-5.523-2.376-4.917-2.735-8.827-.915-9.952.815-.504.489-.936-.998-1.325-1.828-.478-2.128-1.118-1.744-3.731.333-2.27.017-3.318-1.128-3.739-1.682-.618-3.049-2.192-3.075-3.539-.008-.445.435-.531.985-.191s1 .147 1-.43c0-.972-.595-1.802-5.204-7.254-.937-1.108-1.998-3.981-2.358-6.383-.616-4.102-3.438-8.512-3.438-5.371m-93 13.871c0 1.072-.45 2.227-1 2.567-.55.34-1 2.193-1 4.118 0 2.305-.378 3.266-1.107 2.816-1.319-.815-.238 3.33 1.401 5.375.577.721.94 3.983.807 7.25-.134 3.273.186 5.941.712 5.941 1.237 0 2.156-3.513 2.173-8.309.008-2.095.381-3.582.831-3.304.449.277 1.625-.866 2.615-2.541 2.051-3.473.806-5.802-3.267-6.109-2.836-.213-2.915-3.989-.123-5.865l2.042-1.372-2.042-1.258c-1.788-1.102-2.042-1.016-2.042.691m19.244-1.269c-.691.279-.978.957-.638 1.507.34.55.601 3.969.58 7.599-.046 7.972 1.528 11.324 9.264 19.73 3.037 3.3 6.538 7.908 7.779 10.24 1.54 2.893 3.371 4.687 5.764 5.649 4.601 1.848 4.976 1.254 1.379-2.184-3.039-2.904-7.372-9.558-7.372-11.321 0-.864-3.806-5.339-10.286-12.095-.983-1.024-1.488-2.346-1.122-2.937a1.266 1.266 0 00-.408-1.738c-.712-.44-.812-2.588-.296-6.385.642-4.731.489-5.983-.885-7.226-1.771-1.603-1.831-1.616-3.759-.839M275.97 546c-.122.825-.197 2.737-.166 4.25s-.362 2.75-.874 2.75c-1.743 0-.936 3.902 1.57 7.595 3.138 4.625 3.441 8.095.385 4.405-1.479-1.785-1.902-1.976-1.478-.668.326 1.007.593 2.438.593 3.178 0 .741.719 2.066 1.597 2.944.972.972 1.322 2.273.894 3.322-.607 1.489-.855 1.383-1.819-.776-.614-1.375-1.387-2.725-1.717-3-.331-.275-.958-1.4-1.394-2.5-.458-1.155-.981-1.503-1.236-.825-.243.647.484 2.991 1.617 5.21 1.132 2.22 2.058 4.884 2.058 5.92 0 1.037.855 2.659 1.901 3.605 1.046.947 2.182 3.221 2.526 5.055.344 1.834 1.289 3.884 2.099 4.557.811.673 1.474 1.773 1.474 2.445 0 .673.9 2.038 2 3.033 1.682 1.522 2 1.566 2 .272 0-.847 1.124-1.754 2.5-2.017 1.375-.263 2.5-.064 2.5.443 0 .506.498.612 1.107.236.791-.489.76-.898-.107-1.434-.667-.413-.806-1.002-.309-1.309 1.45-.896 3.194.656 6.617 5.888 1.762 2.693 4.045 5.058 5.073 5.256 1.605.309 1.486-.143-.842-3.194-1.491-1.955-2.407-4.046-2.036-4.646.371-.6-.46-2.225-1.846-3.611-4.375-4.375-5.599-13.689-3.137-23.884 1.593-6.597 1.92-12.5.693-12.5-.433 0-.898 1.462-1.032 3.25-.135 1.788-.729 5.05-1.322 7.25-.592 2.2-1.077 7.263-1.079 11.25-.001 3.987-.156 7.25-.343 7.25-.757 0-6.474-9.002-5.735-9.03.439-.017-.029-.511-1.039-1.099-1.573-.914-1.757-1.951-1.285-7.219.303-3.384.23-5.113-.163-3.843-.393 1.27-1.165 2.395-1.715 2.5-1.401.268-1.889-5.32-.578-6.631.593-.593 1.071-1.775 1.063-2.628-.012-1.231-.19-1.275-.862-.215-.975 1.539-1.996-1.34-2.246-6.335-.118-2.371-.24-2.529-.583-.75-.616 3.199-1.55 2.792-3.448-1.505-.91-2.06-1.754-3.07-1.876-2.245M365 561.194c0 1.774 5.932 10.566 7.547 11.186.799.306 1.453 1.046 1.453 1.643s1.348 2.524 2.995 4.281c1.648 1.758 2.998 3.783 3 4.5.003.716 3.576 4.908 7.94 9.314 4.365 4.405 8.029 8.319 8.144 8.696.114.377 2.143 2.39 4.508 4.472 3.588 3.158 4.404 4.567 4.921 8.5.342 2.593.851 5.945 1.133 7.449l.511 2.736-4.326-2.474c-5.17-2.956-5.575-3.006-6.039-.747-.4 1.949-4.507-6.225-8.33-16.579-1.285-3.481-4.163-8.749-6.397-11.707-2.233-2.958-4.06-5.815-4.06-6.349 0-.533-1.277-2.015-2.837-3.293-1.56-1.277-4.336-4.684-6.168-7.572-1.833-2.888-3.706-5.25-4.163-5.25-.458 0-.832-.675-.832-1.5s-.675-1.5-1.5-1.5c-1.842 0-1.935 1.413-.207 3.179.711.726 3.45 4.359 6.088 8.071 2.637 3.712 5.219 6.75 5.738 6.75.519 0 1.232.788 1.584 1.75.353.962 2.347 4.289 4.433 7.392 2.086 3.103 4.768 8.503 5.961 12 1.193 3.497 2.497 6.808 2.898 7.358 1.748 2.397 2.059 6.5.493 6.5-2.134 0-2.984 2.697-1.438 4.56.991 1.194 1.446 1.255 2.051.277 2.025-3.276 7.857 8.503 6.264 12.653-.251.654.199 1.734 1 2.398 1.897 1.574 3.112-.217 2.812-4.145l-.214-2.813 2.768 1.719c5.797 3.601 7.269 5.543 7.269 9.591 0 4.458 1.455 7.76 3.419 7.76 1.614 0 2.91-4.179 1.555-5.016-1.144-.707-3.231-11.061-2.397-11.894.582-.582 2.983 2.173 3.75 4.302.22.609.768.763 1.219.341.452-.421.288-1.299-.363-1.95S416 635.822 416 634.87c0-1.523.537-1.429 4.5.786 2.475 1.383 4.5 2.118 4.5 1.632 0-1.846-7.898-8.489-11.615-9.769-2.137-.736-3.923-1.942-3.97-2.679-.046-.737-.438-3.498-.87-6.136s-.528-5.055-.212-5.371c1.024-1.023 7.868 7.042 9.83 11.583 1.724 3.991 4.254 6.968 5.992 7.052.36.018.423-1.881.14-4.218-.518-4.273-4.507-11.75-6.269-11.75-1.026 0-7.32-5.977-10.531-10-1.097-1.375-3.571-3.675-5.496-5.111-5.035-3.755-17.442-16.672-20.71-21.561C373.341 567.439 365 558.153 365 561.194m-110.382 2.883c-1.346 4.244-1.511 7.075-.557 9.583.71 1.868.727 2.911.051 3.136-1.24.413.433 5.294 2.201 6.418 2 1.272 2.43.891 1.932-1.714-.279-1.459-.013-2.5.638-2.5.615 0 1.117 1.152 1.117 2.559 0 3.556 1.784 2.107 2.571-2.088.898-4.787-.192-8.618-2.349-8.258-1.175.196-1.833-.499-2.071-2.185-.485-3.439-2.926-6.861-3.533-4.951m-81.286 4.132c.206 1.49-.252 9.815-1.018 18.5-1.759 19.947-2.684 40.885-1.895 42.939.467 1.22.918 1.317 1.989.429 2.57-2.134 4.133-57.188 1.762-62.077l-1.213-2.5.375 2.709" fill="#d3d3d3" fill-rule="evenodd"/></svg>