<svg xmlns="http://www.w3.org/2000/svg" width="500" height="499"><path d="M1.553 3.263c.176 1.78.348 5.792.383 8.916.042 3.759.595 6.209 1.635 7.25.865.864 1.104 1.571.532 1.571-.572 0-.787.661-.477 1.468.31.808.859 1.37 1.219 1.25.36-.12.8.232.976.782.177.55 1.019 1.771 1.872 2.713.852.942 1.284 2.404.96 3.25-.344.895-.05 1.537.703 1.537 1.247 0 1.827.504 6.91 6 1.272 1.375 2.744 4.664 3.273 7.309.529 2.645 1.229 4.67 1.557 4.5 1.008-.522 3.917 2.361 3.334 3.304-1.124 1.82 2.332.807 4.165-1.22 1.653-1.828 1.905-3.713 1.905-14.25 0-6.679-.228-12.368-.506-12.643-1.379-1.361-4.736-21.584-3.777-22.75C28.763-.846 32 2.674 32 8.541c0 1.326.898 3.884 1.996 5.685 1.098 1.801 1.998 4.71 2 6.465.002 1.755.468 3.478 1.036 3.829 1.216.751 3.858 6.52 6.975 15.23 1.23 3.438 2.819 6.25 3.532 6.25.712 0 1.471.531 1.688 1.18.224.672 1.138.894 2.126.515 1.514-.581 1.656-1.645 1.125-8.43-.56-7.154-.485-7.612.957-5.824.861 1.068 1.615 3.768 1.677 6 .311 11.301 1.166 14.006 4.15 13.127 5.437-1.601 6.703-1.311 9.729 2.232C71.655 57.918 72 58.074 72 56.161c0-2.33.705-2.634 2.896-1.247.796.504 1.121 1.599.757 2.548-.351.916-1.061 1.404-1.577 1.085-.516-.319-1.22-.122-1.566.437-.669 1.081-.338 1.169 4.74 1.25 3.465.055 6.75 2.206 6.75 4.421 0 1.697-1.964 1.785-2.102.095-.057-.687-.488.325-.959 2.25-.816 3.339 1.47 11.986 3.172 11.996.337.002.397 1.129.134 2.504-.338 1.769-.039 2.5 1.024 2.5 2.164 0 6.82-2.577 6.049-3.348-.358-.359-.014-.704.765-.767.78-.064 2.092-.176 2.917-.25.84-.076 1.371-.905 1.206-1.885-.161-.963.176-1.75.75-1.75.574 0 1.044-.51 1.044-1.133 0-3.098 4.013-4.767 8.333-3.467 2.303.693 4.813 1.051 5.577.797 1.092-.364 1.27.422.835 3.67-.305 2.273-.148 4.133.35 4.133s.905-.661.905-1.47c0-1.399 2.065-5.446 6.14-12.03 2.675-4.323 7.86-15.137 7.86-16.392 0-3.194 10.295-16.432 13.594-17.479 1.048-.333 3.324-3.229 5.058-6.434 2.871-5.308 3.005-5.938 1.5-7.054-1.459-1.082-1.396-1.175.533-.794 1.555.307 2.853-.44 4.5-2.591 1.273-1.662 3.327-4.2 4.564-5.639 1.237-1.44 2.249-3.179 2.25-3.867 0-.687.457-1.25 1.014-1.25 1.274 0-.842 5.185-4.447 10.895-2.153 3.41-2.447 4.543-1.484 5.704 1.465 1.765.343 3.226-1.252 1.631-1.405-1.405-6.236 5.774-8.93 13.27-.989 2.75-2.721 6.783-3.849 8.961-2.379 4.595-2.639 7.539-.668 7.539 1.531 0 2.425 2.545 1.845 5.25-.605 2.826-1.796 2.024-2.965-2-1.061-3.648-1.09-3.573-1.098 2.75-.01 8.942-.043 9.194-1.096 8.543-1.331-.823-2.378 1.279-2.284 4.584.044 1.561-.347 3.102-.869 3.425a1.107 1.107 0 00-.373 1.517c.316.512.084.931-.516.931-1.492 0-3.033-4.336-1.817-5.111.532-.339.318-.856-.479-1.162-1.44-.553-4.731 2.428-4.731 4.284 0 .544-.525.989-1.167.989-.641 0-.87.296-.508.658.869.869-1.315 3.466-2.368 2.815-.449-.277-1.38 1.054-2.068 2.958-.689 1.904-1.621 3.235-2.071 2.957-.45-.278-.818.141-.818.931s-.921 2.054-2.047 2.809c-1.823 1.222-2.457 3.26-2.839 9.122-.063.963-.768 1.75-1.567 1.75-2.598 0-6.501 2.264-5.855 3.396.346.607.259.769-.193.359-.847-.767-5.499 5.316-5.499 7.192 0 .579-.45 1.053-1 1.053s-1 .645-1 1.433-.836 1.697-1.857 2.022c-1.344.426-1.727 1.27-1.386 3.055.317 1.657-.056 2.667-1.137 3.082-.885.34-1.36 1.02-1.055 1.513.304.492-.149.895-1.006.895S89 125.643 89 126.429c0 .785-.694 2.122-1.542 2.97-1.389 1.389-1.305 1.601.846 2.141 2.508.63 9.535-5.001 10.97-8.79.365-.962 1.136-1.75 1.714-1.75.578 0 .847-1.125.598-2.5-.323-1.781-.01-2.5 1.087-2.5.942 0 1.323-.569.979-1.463-.329-.858.511-2.306 2.028-3.5 1.425-1.12 2.249-2.037 1.832-2.037-.416 0-.213-.655.452-1.456.664-.801.918-1.926.563-2.5-.384-.621.391-1.044 1.914-1.044 1.407 0 2.473.338 2.369.75-.105.412.155 2.213.579 4 .741 3.129 1.709 3.671 6.305 3.528.657-.02 1.615 1.169 2.129 2.643.634 1.82 2.256 3.2 5.055 4.299l4.122 1.619.162-2.669c.09-1.469.27-4.359.401-6.423.13-2.064-.171-4.005-.671-4.313-.499-.309-.187-1.281.693-2.161 1.046-1.047 1.408-2.558 1.046-4.366-.339-1.695-.084-2.957.658-3.258.666-.27.311-.558-.789-.64-1.991-.149-1.991-.153-.012-.926 1.574-.614 1.923-1.538 1.674-4.43-.249-2.89.039-3.653 1.378-3.653 1.201 0 1.541-.582 1.17-2-.287-1.1-.115-2 .384-2 .498 0 .906-1.8.906-4 0-3.979 2.058-5.63 3.428-2.75.327.688.406.238.177-.999-.229-1.237-.009-2.501.489-2.809.498-.308.924.254.946 1.249.029 1.315.466 1.022 1.601-1.072 1.218-2.249 1.319-3.412.46-5.297C143.537 64.889 143.722 64 146 64c1.1 0 2-.661 2-1.469 0-.891.587-1.243 1.492-.896.851.327 1.755-.116 2.107-1.031.809-2.108 2.573-2.074 2.195.042-.162.906.269 1.843.956 2.084.702.245 1.257-.368 1.265-1.397.013-1.549.166-1.601.985-.333.792 1.226.972 1.11.985-.635.008-1.175.624-3.584 1.369-5.355l1.354-3.221.621 3.106c.574 2.869 2.671 4.469 2.671 2.038 0-.613.853-.797 2-.433 1.653.525 2 .18 2-1.992 0-1.496.43-2.36 1-2.008.55.34 1-.084 1-.941 0-2.942 1.873-1.56 2.187 1.614.172 1.745.832 3.343 1.466 3.551 1.535.503 2.669-6.489 1.803-11.109-.491-2.618-.212-4.338 1.006-6.197 2.277-3.476 2.883-10.348.976-11.08-.875-.336-1.385-1.783-1.302-3.695.103-2.379.242-2.592.572-.878.251 1.306.893 1.981 1.518 1.595.691-.427.79-.195.274.64-.507.82-.416 1.066.241.66.577-.357 1.307.024 1.623.846.904 2.356 2.376 1.771 4.905-1.951 2.262-3.329 2.299-3.706 1.119-11.25-.671-4.293-1.628-9.155-2.126-10.805l-.906-3L92.295.263 1.235.027l.318 3.236M187.717 1.11c2.558.74 3.428 1.694 4.25 4.66 1.915 6.918 2.484 7.098 6.926 2.183 2.214-2.449 4.043-3.96 4.066-3.358.023.602-.859 1.91-1.959 2.905-1.1.995-2 2.267-2 2.826 0 .559-.729 1.822-1.619 2.806-1.242 1.372-1.462 2.844-.943 6.305.777 5.177 1.695 6.098 4.554 4.567 1.905-1.019 2.024-.818 1.887 3.204-.183 5.358.797 16.459 1.562 17.696.314.509.006 1.153-.685 1.432-.691.278-.356.549.744.6 1.475.07 1.653.315.677.933-1.504.954-.628 8.131.993 8.131.522 0 .726-.359.455-.798-.271-.439-.096-1.44.39-2.226.699-1.131 1.087-.914 1.87 1.048.544 1.362 1.017 2.052 1.052 1.535.034-.518.724-.068 1.531 1 1.399 1.849 1.473 1.798 1.562-1.059.19-6.062 1.128-12.025 2.037-12.95.513-.522.933-2.055.933-3.406 0-3.939 4.564-8.847 11.265-12.117 3.413-1.665 6.674-3.027 7.247-3.027 1.118 0 4.984-3.531 10.264-9.375 1.801-1.994 3.886-3.625 4.633-3.625 1.593 0 2.821 3.74 1.497 4.558-.498.308-.922 1.546-.942 2.751-.047 2.863-4.381 8.129-6.136 7.455-.752-.288-3.834 1.356-6.848 3.654-4.833 3.686-5.513 4.646-5.755 8.131-.327 4.694-4.203 20.564-5.337 21.854-1.189 1.352 1.04 4.839 2.689 4.206 1.79-.687 1.782-.205-.051 3.341-1.906 3.686-7.852 6.954-19.305 10.611-5.399 1.724-9.206 3.48-9.211 4.248-.006.72-.46 1.031-1.01.691-.55-.34-1 .084-1 .941S197.635 85 197.189 85c-.447 0-1.803.923-3.013 2.051-1.211 1.128-2.646 1.777-3.189 1.441-.543-.336-.987-.185-.987.335 0 1.143-6.106 4.143-9.795 4.812-1.464.266-2.897.845-3.184 1.287-.286.443-1.533 1.12-2.771 1.507-1.238.386-2.25 1.326-2.25 2.09 0 1.173.638 1.163 4.126-.067 2.269-.801 4.769-1.456 5.556-1.456 2.203 0 13.717-5.965 14.618-7.573.44-.785 1.246-1.427 1.792-1.427s1.536-.458 2.2-1.019c4.805-4.051 6.192-4.928 8.647-5.467 1.525-.336 3.176-.493 3.667-.349.492.143 1.94-.319 3.218-1.027 2.083-1.154 2.382-1.065 2.886.861.528 2.019.648 1.971 1.992-.803 1.474-3.043 6.807-5.935 11.124-6.031 1.688-.038 2.055.275 1.339 1.141-1.574 1.906-2.571 8.694-1.276 8.694.611 0 1.111-.723 1.111-1.607 0-1.018.55-1.396 1.5-1.031.825.316 1.5.139 1.5-.393 0-.533.765-.969 1.7-.969 1.322 0 1.433.267.5 1.2-1.708 1.708-1.491 2.371.775 2.371 2.118 0 3.783-2.524 1.744-2.641-.671-.039-.319-.457.781-.93 1.71-.735 1.746-.87.25-.93a1.856 1.856 0 01-1.765-1.82c-.012-1.352-.21-1.444-.868-.405-.628.991-1.027.65-1.515-1.296-.728-2.899.008-4.908 1.467-4.006.512.316.931.098.931-.484S240.9 70 242 70c2.209 0 2.458-.745 1-3-.828-1.282-.972-1.246-.985.25-.008.963-.523 1.75-1.143 1.75-1.38 0-.272-8.327 1.175-8.833.524-.184.96-1.309.968-2.5.023-3.279 1.731-.13 2.546 4.694.362 2.145.947 3.505 1.299 3.02.931-1.282 3.14-1.55 3.14-.381 0 .55-.42 1-.933 1-.513 0-1.248 1.013-1.634 2.25-.387 1.237-1.182 2.557-1.767 2.932-1.344.861-1.935 14.946-.756 18.02.817 2.129 1.045 1.931 3.106-2.702 1.224-2.75 2.434-4.435 2.69-3.744.514 1.388 2.294.71 2.294-.874 0-.55-.45-.722-1-.382-.558.345-.993-.403-.985-1.691.013-1.91.201-2.05 1.087-.809.861 1.205.975 1.058.578-.75-.271-1.237-.085-2.25.414-2.25.498 0 .906-.873.906-1.941s.403-2.19.895-2.494c1.031-.638 2.363 2.209 1.606 3.433-.278.449-.146 1.789.294 2.976.679 1.836 1.06 1.327 2.553-3.408 1.34-4.25 2.215-5.566 3.703-5.566 1.072 0 1.86.337 1.751.75-.568 2.15 1.422 5.309 2.685 4.261.97-.806 1.455-.754 1.837.197.329.822.547.655.597-.458.079-1.749 3.079-2.564 3.079-.837 0 1.087 6.177-.974 7.235-2.413.455-.619.74-.524.75.25.008.688.535 1.25 1.17 1.25.69 0 .489-.736-.502-1.831-.912-1.007-1.355-2.134-.985-2.504.965-.964 1.134-7.792.254-10.248-.41-1.146-.342-2.721.151-3.5.67-1.059.906-.785.934 1.083.02 1.375.927 4.462 2.015 6.859 1.088 2.398 1.978 5.265 1.978 6.373 0 1.676.251 1.804 1.5.768 1.459-1.211 2.038-.407 1.618 2.25-.065.412.782.806 1.882.875 3.691.231 4.069.369 5.116 1.875.772 1.11.92.413.568-2.678-.339-2.987-.133-4.048.724-3.719.829.318 1.107-.703.902-3.322l-.296-3.781 1.179 3 1.18 3 .613-2.5c.413-1.683 1.304-2.5 2.724-2.5 1.16 0 2.45-.338 2.866-.75 1.481-1.467 2.425-.711 2.494 2 .064 2.484.162 2.557 1.014.75.783-1.66.874-1.501.532.941-.229 1.635.275 3.989 1.135 5.301 1.249 1.907 1.301 2.591.273 3.559-.992.934-1.378.913-1.746-.093-.361-.987-.801-1.019-1.864-.136-.766.635-1.145 1.554-.844 2.041.301.488.071.887-.511.887s-1.095-.787-1.138-1.75c-.053-1.166-.256-1.307-.609-.424-.936 2.345 1.805 10.173 3.568 10.189 1.411.014 1.427.141.12.985-1.295.837-1.271.971.177.985.922.008 1.882-.772 2.134-1.735.3-1.148.497-.861.573.833.165 3.68 1.136 4.199 3.264 1.746 1.851-2.134 1.852-2.133 1.858 1.768l.006 3.903 1.494-2.864c.822-1.576 1.494-3.515 1.494-4.309 0-.795.405-1.195.901-.888.495.306.807 1.907.692 3.559-.132 1.911.267 3.002 1.1 3.002.719 0 1.307.477 1.307 1.059s.413.804.919.491c.505-.312 1.216.786 1.579 2.441.364 1.655 1.075 3.009 1.581 3.009.507 0 .921 1.139.921 2.531 0 1.393.625 2.772 1.389 3.065.804.308 1.176 1.35.884 2.469-.279 1.064-.116 1.973.36 2.018.477.046 1.869.195 3.094.331 1.792.2 2.132-.157 1.744-1.833a86.617 86.617 0 01-.827-4.081c-.189-1.1-.679-2.773-1.088-3.717-.41-.944-.53-2.294-.267-3 .317-.85.748-.608 1.277.717 1.87 4.679 6.742 9.5 9.601 9.5 1.558 0 2.833-.45 2.833-1 0-1.668 1.805-1.126 3.961 1.189 1.121 1.203 2.039 3.453 2.039 5 0 3.108 1.354 3.518 5.453 1.65 2.943-1.34 3.607-6.218.984-7.225-.86-.33-1.284-1.053-.941-1.607.342-.554.198-1.007-.32-1.007-.519 0-1.207-.787-1.53-1.75-.324-.962-1.019-2.425-1.545-3.25-.526-.825-1.219-2.175-1.54-3-.321-.825-1.466-2.85-2.545-4.5-2.236-3.42-7.504-14.301-8.577-17.716-.395-1.256-1.983-3.584-3.529-5.174-3.459-3.554-7.322-11.298-9.285-18.61-.812-3.025-2.208-7.75-3.101-10.5-.922-2.84-1.883-10.33-2.223-17.339-.438-9.004-.965-12.478-1.95-12.857-2.086-.8-1.598-3.091.823-3.859 3.352-1.064 4.467 1.512 5.108 11.794.317 5.094 1.546 13.086 2.729 17.761 1.184 4.675 2.568 10.5 3.077 12.945.508 2.444 1.285 4.694 1.725 5 .44.305 1.409 2.13 2.154 4.055 1.434 3.709 5.233 9.106 16.301 23.152 6.426 8.156 10.203 10.911 12.778 9.32.525-.325.954-.113.954.469S369.702 90 370.559 90s1.281-.45.941-1c-.34-.55.084-1 .941-1 1.404 0 2.006-1.167 1.677-3.25-.143-.907 1.162-.964 3.3-.143.87.334 1.589 1.346 1.597 2.25.012 1.257.211 1.336.846.334.79-1.246-.685-9.137-1.905-10.191-.318-.275-.66-1.4-.759-2.5-.557-6.18-1.507-10.426-2.232-9.978-1.407.869-2.014-1.219-1.07-3.68l.899-2.342 1.103 2.815C376.504 62.863 377 64.972 377 66c0 3.125 1.977 7.373 4.556 9.79C382.9 77.05 384 79.018 384 80.163c0 1.737.248 1.876 1.5.837 1.894-1.572 2.03-8 .169-8-.964 0-1.309-1.588-1.25-5.75.055-3.9-.297-5.678-1.094-5.525-.799.153-1.278-2.327-1.5-7.752-.179-4.388.012-7.977.425-7.975.413.001.806.452.875 1.002.166 1.328.311 1.971 1.232 5.448.578 2.184 1.002 2.589 1.635 1.564.704-1.139 1.132-1.154 2.419-.086.86.714 2.221 1.045 3.025.737.888-.341 1.702.196 2.074 1.368.336 1.06.922 1.889 1.301 1.841 1.969-.251 5.079 1.558 5.955 3.465.936 2.034 1.05 1.959 1.91-1.269 1.276-4.782 3.324-5.183 3.324-.651 0 2.191.485 3.589 1.25 3.598.984.012.988.182.019.797-.923.587-.997 2.216-.296 6.524.514 3.157.705 6.341.423 7.073-.649 1.694 2.295 2.9 3.262 1.336.397-.642 1.561-2.76 2.588-4.706 1.392-2.64 1.722-2.904 1.297-1.039-1.772 7.772-1.824 11-.179 11 .9 0 1.636.4 1.636.889 0 1.39 3.373.774 4.639-.847.626-.802.931-1.999.677-2.66-.57-1.486 2.799-2.659 5.101-1.776.934.359 1.467 1.255 1.184 1.991-.282.736-.083 1.605.443 1.93.526.325.956-.143.956-1.039 0-.897.605-2.236 1.345-2.975 1.595-1.596 5.129 5.087 4.104 7.76-.322.839-.105 1.822.483 2.185.606.374 1.075-.123 1.083-1.149.013-1.505.172-1.562.947-.337.789 1.249 1.037 1.194 1.633-.359.387-1.007 1.761-2.973 3.054-4.368C442.942 81.85 444 79.832 444 78.76c0-1.106.864-2.173 2-2.47 1.41-.369 2-1.364 2-3.375 0-1.778.471-2.737 1.25-2.548.688.168.912.116.5-.114-1.442-.807-.731-2.041 1.5-2.603 1.238-.312 2.7-1.563 3.25-2.782 1.13-2.504 4.5-3.448 4.5-1.26 0 .788-1.125 3.214-2.5 5.392-1.375 2.178-2.5 4.425-2.5 4.994 0 .568-.395 1.815-.878 2.77-3.515 6.951-4.219 9.568-2.924 10.862 2.145 2.146 5.798.583 5.824-2.493.012-1.448.925-4.623 2.028-7.055 1.323-2.916 1.669-4.759 1.017-5.411-1.051-1.051 1.641-6.667 3.197-6.667 1.136 0 5.665-5.237 5.704-6.597.018-.603.932-2.135 2.032-3.403 1.1-1.268 2-2.714 2-3.212 0-.498.45-.628 1-.288s1 .109 1-.512c0-.622.73-1.861 1.622-2.753 1.496-1.496 1.563-1.355.869 1.807-.85 3.867-3.161 7.867-5.586 9.668-.896.666-2.196 2.578-2.889 4.25-.692 1.672-1.654 3.04-2.137 3.04-.484 0-.879.637-.879 1.417 0 .779-.357 1.566-.793 1.75-2.755 1.158-7.686 12.954-6.085 14.555.885.885 1.942 4.381 2.125 7.028.102 1.476 1.753 1.711 1.753.25 0-.55.47-1 1.044-1 .574 0 .971.563.881 1.25-.363 2.797.129 5.214.84 4.126.404-.619 2.186-1.44 3.96-1.824 1.774-.385 3.124-1.219 3-1.852-.124-.634.787-1.307 2.025-1.496 1.238-.189 2.25-.937 2.25-1.662 0-.726 1.55-1.61 3.444-1.965 2.32-.436 3.691-1.369 4.201-2.862.628-1.834.874-1.441 1.431 2.285.386 2.58.248 5.033-.324 5.75-.725.909-.487 1.254.876 1.265 1.06.009 1.429.334.85.75-.561.404-1.062 1.972-1.112 3.485-.09 2.701.62 3.431 1.996 2.054 2.286-2.285 4.594-.718 2.388 1.621-1.025 1.087-.755 1.238 1.5.839 1.892-.335 2.75-.062 2.75.875 0 .748.389 1.361.863 1.361.475 0 .785-1.012.689-2.25-.097-1.237.047-2.677.319-3.2 2.481-4.767 1.846-28.478-.786-29.355-.871-.29-.881-.736-.04-1.749 1.142-1.376 1.567-22.168.475-23.259-.305-.306-1.096.878-1.757 2.629-1.578 4.181-3.237 4.132-2.246-.066.423-1.788.721-4.504.663-6.036-.059-1.566.319-2.523.865-2.186 1.081.668 2.546-2.27 1.603-3.214-.33-.329-1.359.028-2.286.793-1.317 1.087-1.78 1.117-2.11.137-.233-.691-.829-1.005-1.326-.698-.497.307-.633-.146-.303-1.005.428-1.117.157-1.394-.949-.97-.851.327-1.34 1.136-1.086 1.797.267.697-.402 1.203-1.588 1.203-1.323 0-1.863-.485-1.525-1.367.289-.752.525-2.054.525-2.893 0-.945.571-1.306 1.5-.949 1.798.69 1.83.456.373-2.742-.952-2.089-1.499-2.333-3.514-1.566-2.139.813-2.332.675-1.854-1.323.32-1.336-.274-3.434-1.479-5.231-1.445-2.154-2.015-2.507-2.019-1.25a1.744 1.744 0 01-1.757 1.765c-1.492.013-1.529.156-.25.967 1.277.811 1.148 1.291-.872 3.235l-2.372 2.283.476-4.5c.661-6.257-.377-10.534-2.516-10.361-1.181.095-1.716-.606-1.716-2.25 0-1.314-.45-2.389-1-2.389s-1 .9-1 2-.477 2-1.059 2-.765-.476-.406-1.057.355-2.245-.01-3.698c-.434-1.731-.921-2.222-1.415-1.424-.52.842-1.167.441-2.1-1.302C460.269 5.134 459.063 4 458.331 4 457.599 4 457 3.495 457 2.878c0-.807-.398-.792-1.413.05-.778.645-3.714 1.366-6.525 1.603-4.84.407-5.055.324-4.051-1.551.842-1.574.744-1.98-.476-1.98-.844 0-1.535.357-1.535.793 0 .436-2.303.833-5.118.882-2.878.05-4.559-.257-3.84-.701 2.13-1.317-9.613-1.473-110.69-1.473L226.205.5l-4.103 3.297c-4.592 3.691-5.435 3.121-1.562-1.057L223.081 0 203.79.09c-13.659.064-18.351.362-16.073 1.02m251.033 9.055c-1.512 1.697-2.75 3.86-2.75 4.806 0 .945-.906 2.539-2.014 3.542-1.248 1.129-1.793 2.52-1.433 3.655.456 1.435.052 1.832-1.863 1.832-4.241 0-4.834 1.889-3.297 10.5.294 1.65.289 2.189-.012 1.197-.426-1.402-.854-1.55-1.921-.664-.755.627-1.842.849-2.416.494-1.58-.976-1.25-5.234.456-5.889 3.088-1.185 1.46-2.657-2.401-2.171-2.915.366-4.051.1-4.493-1.052-.326-.848-1.045-1.262-1.599-.919-.554.342-1.007.145-1.007-.437S414.45 24 415 24s1-.418 1-.929c0-1.49-3.075-4.143-4.081-3.521-.505.312-.919.172-.919-.313 0-1.229-8.914-4.92-12.281-5.084-3.147-.154-2.724 1.723 1.188 5.263 2.628 2.378 2.672 4.199.117 4.867-2.985.781-4.626 5.099-3.16 8.317.651 1.43 2.073 2.832 3.16 3.117 2.139.559 2.573 1.796.976 2.783-2.167 1.339-1.059 3.744 1.5 3.255 2.745-.525 3.168.177 1.258 2.087-1.486 1.486.671 3.314 2.901 2.458.738-.282 1.341-.016 1.341.593S407.55 48 407 48s-1 .408-1 .906c0 .499.838.688 1.862.42 2.28-.596 3.665 2.334 2.033 4.301-.679.818-.737 1.373-.142 1.373 1.465 0 2.496 6.228 1.167 7.05-.624.385.022.897 1.488 1.177 1.426.273 2.592.078 2.592-.433 0-1.121 4.243.076 5.124 1.446.69 1.072 5.876-1.889 5.876-3.355 0-.487.337-.832.75-.767.413.066.975.031 1.25-.076 2.305-.899 4-.642 4 .606 0 .808.445 1.195.989.859.566-.35.734.051.393.941-.328.854-1.223 1.608-1.989 1.677-.766.069-1.843.237-2.393.375a20.74 20.74 0 01-1.969.375c-.532.069-.699.826-.371 1.682.329.857 1.241 1.311 2.026 1.01.785-.301 2.445.551 3.689 1.893 3.069 3.311 10.625 2.612 10.625-.984 0-1.498-3.375-3.768-4.271-2.872-.678.678-4.729-1.809-4.729-2.904 0-.45.45-.54 1-.2 1.4.865 1.254-1.846-.176-3.276C433.491 57.891 431.965 48 433.092 48c.403 0 .517-1.372.253-3.049-.344-2.185.389-4.59 2.587-8.485 3.192-5.655 4.237-9.844 1.818-7.287-.687.726-2.025 2.896-2.972 4.821-1.46 2.967-1.682 3.119-1.455 1 .147-1.375.831-3.522 1.519-4.771s.957-2.746.598-3.327c-.794-1.284 2.14-9.375 4.762-13.131 2.005-2.874 3.166-6.798 1.991-6.732-.381.021-1.931 1.428-3.443 3.126M140.175 124.917c-.096.779-.448 1.143-.782.81-1.08-1.08-3.105 1.659-2.614 3.536.307 1.176-.006 1.718-.882 1.53-.919-.198-1.695 1.424-2.394 5.003-.569 2.913-1.637 5.669-2.372 6.123-1.074.664-1.097 1.275-.12 3.101 1.366 2.552-1.073 12.96-3.79 16.176-1.278 1.513-1.208 1.679.647 1.539 2.243-.169 3.545-2.258 2.481-3.98-.416-.672-.176-.766.651-.255.837.517 1.067.417.638-.277-.369-.597.124-1.682 1.095-2.41.972-.728 2.442-2.532 3.267-4.01.825-1.478 1.9-2.674 2.388-2.659.489.015 1.269-.574 1.735-1.309.63-.994.87-.825.941.665.051 1.1.321 1.438.598.75.278-.687.977-1.25 1.554-1.25 1.418 0 4.784-3.978 4.784-5.653 0-.741.62-1.347 1.378-1.347 2.625 0 3.688-2.477 1.618-3.771-1.203-.751-2.126-.828-2.509-.209-.333.539-.128.98.454.98 1.86 0 1.134 1.569-.793 1.714-1.621.122-1.763-.349-1.14-3.76.784-4.285.319-5.471-1.539-3.928-2.267 1.882-4.347-.032-4.741-4.363-.208-2.289-.457-3.525-.553-2.746m30.906 10.486c-.894 1.077-.865 1.523.127 1.921 1.005.403.987.536-.08.597-1.106.064-1.131.37-.128 1.579.685.825.93 1.5.546 1.5-.385 0 .756 1.456 2.535 3.235 2.173 2.173 4.005 3.135 5.577 2.929 1.288-.169 2.342.079 2.342.55 0 .472.9.857 2 .857s2-.578 2-1.285.627-1.286 1.393-1.286c2.07 0 2.858-3.056 1.262-4.895-.767-.883-1.19-2.168-.941-2.856.291-.803-.118-1.031-1.142-.638-1.168.448-1.429.18-.976-1 .741-1.932-2.119-2.275-3.013-.361-.363.778-.775.863-1.092.224-.279-.564-2.363-.848-4.631-.632-2.863.273-3.912.052-3.433-.724.999-1.616-.967-1.377-2.346.285m187.217 20.114c-.733.791-.975 2.698-.619 4.89.381 2.35.191 3.593-.548 3.593-1.079 0-1.31-.604-1.535-4-.054-.825-.773-1.5-1.597-1.5-1.191 0-1.517 1.542-1.588 7.5-.049 4.125-.201 9.75-.339 12.5-.429 8.584-.269 9.364 1.804 8.822 4.275-1.118 7.507-13.696 6.414-24.962-.623-6.417-1.044-7.865-1.992-6.843m127.148 22.729c-.819 3.726-3.376 9.526-5.177 11.74-.677.833-1.9 2.414-2.718 3.514-1.307 1.757-1.491 1.79-1.519.275-.025-1.361-.636-1.604-2.894-1.153-1.79.358-4.129-.092-6.25-1.204-1.863-.977-4.749-1.809-6.411-1.847-1.903-.045-4.128-1.135-6-2.94-2.724-2.625-2.785-2.824-.727-2.344 1.238.289 2.25.118 2.25-.381 0-.498-.9-.906-2-.906-1.589 0-2.001-.668-2.004-3.25l-.003-3.25-1.906 3.126c-1.049 1.719-1.876 3.744-1.839 4.5.174 3.56-.467 4.722-3.235 5.869-1.643.68-2.771 1.588-2.506 2.016.265.429-.191 1.037-1.013 1.353-.822.315-1.48 1.375-1.462 2.355.026 1.488.402 1.36 2.284-.774 2.496-2.831 7.924-2.455 10.367.718.651.846 1.664 1.241 2.25.878.587-.362 1.097-.07 1.135.65.037.72.579.245 1.204-1.056 1.016-2.115 1.618-2.307 5.682-1.814 4.889.593 11.046 3.242 11.046 4.752 0 .51 1.35.927 3 .927 2.754 0 3.27-.63 2.934-3.576-.036-.316.792-1.329 1.84-2.25 1.632-1.433 3.478-5.94 3.163-7.722-.054-.307.661-1.715 1.588-3.131 1.391-2.123 1.449-2.723.33-3.431-.998-.633-1.026-.863-.105-.875.688-.008 1.25-.915 1.25-2.015 0-3.182-1.771-2.317-2.554 1.246M492 222c0 .55-1.173 1-2.607 1-1.906 0-2.452.403-2.031 1.5.316.825.139 1.5-.393 1.5-.533 0-.969-.405-.969-.901 0-.495-2.064-.685-4.586-.423-6.966.726-23.2 7.204-21.732 8.672.358.359-.262.652-1.378.652-1.116 0-3.778 1.39-5.916 3.089a6249.16 6249.16 0 01-7.251 5.75c-1.849 1.464-4.549 3.71-6 4.992-1.45 1.282-4.334 3.486-6.407 4.897-6.314 4.295-3.346 3.724 4.443-.855 4.03-2.369 7.552-4.586 7.827-4.927 1.656-2.053 16.433-12 21.344-14.368 5.777-2.785 20.51-5.782 29.406-5.982 4.996-.113 6.037-2.966 1.685-4.621-3.294-1.252-5.435-1.242-5.435.025m-128.205 52.586c-.775 1.349.983 15.73 2.33 19.052 1.851 4.566 2.038 11.362.331 12.017-.801.308-1.456.987-1.456 1.511 0 .524.498.644 1.107.268.738-.457.891-.004.459 1.358-.512 1.613-.271 1.952 1.143 1.614 1.25-.299 2.518.762 4.195 3.509 2.865 4.691 7.65 8.47 9.719 7.676 1.273-.488 1.227-.916-.318-2.978-.993-1.324-2.104-2.225-2.47-2.004-.365.222-1.701-1.287-2.968-3.353-1.267-2.066-3.044-4.562-3.948-5.548-1.776-1.933-1.182-8.48 1.167-12.869 1.02-1.906.918-2.073-.973-1.579-1.162.304-2.113.145-2.113-.354 0-.498.398-.906.883-.906 1.322 0 2.031-4.98.728-5.115-.611-.064-1.768-.176-2.571-.25-.921-.085-2.062-2.504-3.089-6.549-.897-3.528-1.866-6.003-2.156-5.5M419 292.755c0 .55.697 1.578 1.548 2.285 2.51 2.083 1.391 5.365-2.048 6.009-3.174.595-3.591 2.745-.835 4.298 2.084 1.174.949 5.223-2.775 9.903-1.641 2.063-2.591 3.75-2.111 3.75 1.247 0 4.718-3.991 6.485-7.456l1.508-2.956 5.088 7.794c2.798 4.287 6.449 9.345 8.114 11.241 1.664 1.896 3.033 4.218 3.041 5.162.014 1.478.155 1.508 1.022.215.758-1.13.891-.806.539 1.315-.317 1.911-.083 2.674.728 2.375.658-.242 1.083-.946.946-1.565-.427-1.922 1.496-1.244 4.656 1.642 2.324 2.122 2.885 3.317 2.41 5.134-.461 1.761-.26 2.244.782 1.888 1-.341 1.399-2.241 1.392-6.633-.005-3.386.22-6.149.5-6.141 1.288.039 2.802 1.681 3.443 3.735.974 3.121 2.54 2.833 1.961-.361-.495-2.728-2.774-5.676-3.684-4.766-.29.29-.824-.406-1.186-1.548-.773-2.436-2.072-2.695-2.886-.575-.636 1.658-4.638 2.09-4.638.5 0-.55-.535-1-1.188-1-1.254 0-9.8-8.951-9.808-10.271-.005-1.023-4.894-8.658-7.296-11.396-1.477-1.684-1.663-2.576-.835-4 .693-1.191 1.077-1.352 1.097-.461.024 1.107.321 1.132 1.53.128 1.747-1.45 1.969-3 .429-3-1.459 0-3.929-2.574-3.929-4.095 0-.681-.296-.942-.658-.58-.362.362-1.262.156-2-.456-.819-.68-1.342-.724-1.342-.114M464.589 299c.327 3.575.993 8.058 1.481 9.962.487 1.904.602 5.235.256 7.403-.456 2.847-.311 3.744.522 3.229.712-.44 1.152-.002 1.152 1.147 0 1.022.54 2.399 1.2 3.059.933.933.878 1.203-.25 1.215-1.233.013-1.226.161.05.985 1.09.704 1.142.974.191.985-.72.008-1.031.465-.691 1.015.34.55-.084 1-.941 1-2.473 0-1.808 1.992.691 2.07 2.147.067 2.158.11.25.93-1.1.473-1.437.891-.75.93.688.038 1.25.745 1.25 1.57 0 .825.668 1.5 1.485 1.5 1.18 0 1.394-1.076 1.043-5.25-.574-6.839.94-3.354 2.221 5.112.669 4.421.624 6.097-.155 5.841-.602-.198-1.238-1.337-1.414-2.531-.175-1.195-.681-2.172-1.123-2.172-.443 0-.505 1.462-.14 3.25.366 1.788 1.172 3.25 1.791 3.25s1.463.337 1.875.75c2.272 2.272 3.417.532 3.417-5.191 0-3.268.479-6.237 1.065-6.599.586-.362.949-2.076.806-3.809-.34-4.14-.925-5.169-1.996-3.508-.674 1.045-1.013.856-1.474-.824-.329-1.199-1.183-2.405-1.899-2.68-.715-.274-1.831-2.105-2.479-4.069-.648-1.963-1.62-3.57-2.16-3.57-.539 0-.687-.475-.328-1.056.793-1.283-2.274-14.464-4.175-17.944-1.234-2.257-1.309-1.869-.771 4m-69.443 14.578c-1.409 3.094-1.475 5.422-.153 5.422.546 0 .925 1.724.842 3.831-.135 3.462-.378 3.788-2.521 3.378-1.895-.362-2.236-.879-1.698-2.573.549-1.73.416-1.909-.722-.974-.767.631-2.519 1.302-3.894 1.492-1.738.241-2.602 1.066-2.834 2.707-.214 1.512.058 2.118.757 1.687.6-.371 1.357.019 1.683.867.562 1.464 2.71 1.675 4.894.48 1.633-.893 5.468-.475 5.546.605.04.55-.965 1.245-2.232 1.544-1.267.299-2.462 1.365-2.655 2.368-.193 1.004.082 1.557.611 1.23.53-.327 1.768.295 2.751 1.382.984 1.087 1.439 1.976 1.012 1.976-.428 0-.283.596.321 1.324.742.894.77 1.652.085 2.337-.684.684-.677 1.897.022 3.736 1.332 3.505 3.436 2.339 2.672-1.48-.363-1.815-.038-3.369.9-4.307.807-.807 1.467-2.624 1.467-4.039 0-1.414.45-2.571 1-2.571s1-.45 1-1-.675-1-1.5-1-1.537-.562-1.582-1.25c-.279-4.239-1.241-7.351-2.488-8.049-1.033-.578-1.332-2.198-1.067-5.776.418-5.641-.524-7.063-2.217-3.347M346 317.328c-2.475.516-8.436.992-13.246 1.056-4.811.064-8.749.409-8.75.768-.002.359-1.242 1.16-2.754 1.781s-3.87 1.773-5.239 2.559c-1.592.915-2.835 1.084-3.45.469-1.278-1.278-3.85-1.238-3.055.048 1.13 1.83-.485 4.936-2.221 4.27-1.161-.445-1.384-.248-.795.706.545.881.433 1.085-.335.61-.758-.468-1.155.166-1.155 1.846 0 1.407-.45 2.559-1 2.559s-1 .9-1 2-.45 2-1 2-1 .966-1 2.146c0 2.048.115 2.022 2.5-.551 1.375-1.484 2.5-3.173 2.5-3.754 0-.58.725-.777 1.611-.437 1.153.443 1.447.189 1.032-.893-.355-.925-.011-1.511.888-1.511.808 0 1.469.637 1.469 1.417 0 .779.563 1.643 1.25 1.921.74.298.528.536-.519.583-1.307.058-1.636.667-1.258 2.329 2.141 9.427 2.219 10.808.901 15.888-.756 2.917-1.546 6.667-1.754 8.333-.208 1.666-.854 4.22-1.435 5.676-.582 1.456-.797 2.908-.479 3.226.319.318.123 1.152-.435 1.853-.558.701-1.021 3.074-1.028 5.274-.024 7.093-3.265 12.348-4.56 7.395-.801-3.061-3.13-1.773-3.496 1.932-.314 3.174-2.187 4.556-2.187 1.614 0-.857-.45-1.281-1-.941-.55.34-1 .156-1-.41 0-.565-.655-.776-1.455-.469-1.17.449-1.024.98.75 2.719 2.75 2.694 3.174 4.543 1.214 5.295-.83.318-1.509 1.404-1.509 2.413s-.43 2.1-.956 2.425c-.526.325-.716 1.219-.421 1.986.386 1.006-.044 1.244-1.544.851-1.372-.358-2.079-1.354-2.079-2.927 0-1.31-.419-2.383-.93-2.383-.55 0-.592 1.18-.103 2.886.713 2.484.494 3.039-1.569 3.979-1.38.628-2.398 1.951-2.398 3.114 0 1.13-.661 2.021-1.5 2.021-.825 0-1.5.45-1.5 1s-.675 1-1.5 1-1.5-.354-1.5-.786c0-.432-.788-.817-1.75-.855-.962-.039-2.482-.387-3.377-.774-1.199-.52-1.795-.033-2.269 1.855-.738 2.943-2.677 3.534-2.121.647.203-1.052.484-8.726.625-17.053.141-8.328.655-15.387 1.142-15.689.488-.301.65-1.162.362-1.914-.289-.752-.155-1.596.298-1.875.995-.615.177-5.556-.92-5.556-1.533 0-3.166 7.876-5.078 24.5-1.603 13.933-1.974 15.385-4.116 16.065-3.297 1.046-5.796 4.252-5.796 7.435 0 1.65-.498 3-1.107 3s-.848-.675-.531-1.5c.316-.825.139-1.5-.393-1.5-.533 0-.969 1.575-.969 3.5 0 3.357-.154 3.505-3.75 3.618-2.062.066-4.312.046-5-.043-.687-.09-1.25.334-1.25.94 0 .607-.457.82-1.016.475-.559-.346-.777-1.016-.484-1.49.293-.474.095-1.132-.44-1.463-.535-.331-.691-1.335-.346-2.233.47-1.226.272-1.411-.794-.746-2.507 1.564-4.132 1.348-4.646-.619-.276-1.054-.895-1.673-1.376-1.376-.481.298-.579-.27-.217-1.261.611-1.672.502-1.665-1.511.103-2.608 2.289-2.888 7.632-.679 12.919 1.672 4.001.435 6.005-1.323 2.145-.619-1.358-1.513-2.469-1.987-2.469-1.757 0-3.646-8.026-2.369-10.071 1.451-2.323 1.523-3.254.188-2.429-.55.34-1-.116-1-1.012 0-1.487-.14-1.491-1.581-.05-.869.869-1.947 1.354-2.395 1.077-.448-.277-1.112.273-1.476 1.222-.365.949-.212 1.875.339 2.059.55.183.753.979.45 1.769-.303.789-.064 1.435.531 1.435.681 0 .853 1.205.463 3.25-.824 4.332-1.028 4.453-3.335 1.976-1.622-1.741-1.798-2.616-.968-4.799.698-1.836.685-3.068-.042-3.943-.581-.701-.968-1.658-.86-2.129.109-.47-.326-2.122-.965-3.67-.638-1.548-1.161-3.686-1.161-4.75 0-1.212-.687-1.935-1.839-1.935-1.98 0-2.028.793-.636 10.5.394 2.75 1.248 5.45 1.898 6 1.287 1.089 1.637 5.655.374 4.875-.426-.264-.47.332-.098 1.323.585 1.56.457 1.624-.952.479-.895-.728-2.667-1.178-3.937-1-1.742.244-2.387-.217-2.622-1.872-.2-1.401-.817-2.001-1.708-1.659-1.426.547-2.117-1.216-2.802-7.146-.19-1.65-.758-3.007-1.262-3.015-.504-.009-1.458-.36-2.12-.781-1.839-1.169-6.694.298-5.369 1.623.59.59 1.073 3.022 1.073 5.404 0 2.928.486 4.518 1.5 4.907 2.177.836 1.839 4.12-.5 4.862-1.1.349-2 1.04-2 1.536s-.724.623-1.609.284c-1.474-.566-1.472-.695.021-1.53.896-.502 1.369-1.335 1.05-1.851-.97-1.569-2.056-1.066-3.491 1.616-.969 1.81-2.111 2.507-3.919 2.394-4.978-.314-6.771.073-8.899 1.918-1.184 1.027-2.153 2.267-2.153 2.756 0 .489-1.302 1.465-2.894 2.17-1.592.704-3.446 2.614-4.121 4.244-.675 1.63-1.623 2.963-2.106 2.963-.484 0-.879.848-.879 1.883 0 1.043-.893 2.117-2 2.407-1.368.357-2 1.364-2 3.182 0 1.463-.466 3.53-1.035 4.594-1.762 3.292.489 2.126 2.542-1.316 1.5-2.517 2.017-2.856 2.288-1.504.28 1.394.739 1.538 2.278.715 1.326-.71 1.927-.708 1.927.004 0 .569-.45 1.035-1 1.035s-1 .45-1 1-.9 1.9-2 3c-1.749 1.749-2.952 10.973-2.118 16.25.065.413-.295.75-.8.75-.505 0-1.72.307-2.699.683-1.515.582-1.444.211.479-2.49 2.627-3.688 2.715-10.623.138-10.791-3.519-.229-4.085-.455-3.5-1.402.34-.55-.075-1-.922-1-.847 0-1.822 1.125-2.167 2.5-.701 2.793-1.432 3.079-3.244 1.267-.977-.977-1.354-.769-1.816 1-.322 1.228-.982 2.233-1.468 2.233-.485 0-.883.9-.883 2s.627 2 1.393 2c2.361 0 2.637 2.836.609 6.272-1.155 1.958-1.699 4.172-1.351 5.502.91 3.48 2.997 2.702 2.739-1.021-.216-3.119.992-5.753 2.639-5.753.431 0 .53.97.22 2.156-.423 1.618-.232 1.952.763 1.336.974-.601 1.152-.362.669.896-.391 1.019-.257 1.468.33 1.105 1.766-1.091 1.044 1.531-1.036 3.764-1.113 1.195-1.802 2.751-1.531 3.458.271.707-.182 1.285-1.007 1.285s-1.763-.686-2.085-1.526c-.452-1.176-.902-1.262-1.969-.377-1.093.907-1.39.755-1.418-.725-.031-1.595-.229-1.523-1.343.486l-1.308 2.357-2.157-2.742c-1.186-1.509-2.157-2.232-2.157-1.608 0 .624-.675 1.135-1.5 1.135s-1.5.675-1.5 1.5-.45 1.5-1 1.5-1-1.017-1-2.259c0-1.243-.907-2.826-2.015-3.518-2.035-1.271-1.964-5.117.144-7.815.47-.601.556-1.39.192-1.754-.364-.364.375-1.766 1.643-3.115 2.183-2.324 2.225-2.628.795-5.746-2.161-4.716-2.986-8.793-1.778-8.793.56 0 1.019.571 1.019 1.268 0 2 5.313 9.294 5.77 7.922.226-.678 1.66-1.878 3.187-2.668 3.259-1.685 4.151-5.051 3.055-11.522-.419-2.475-.818-3.68-.887-2.679-.162 2.354-3.125-.254-3.125-2.75 0-1.873 1.146-2.025 2.8-.371.933.933 1.2.378 1.2-2.5 0-2.035-.45-3.7-1-3.7s-.947.337-.882.75c.393 2.489-.173 3.595-1.276 2.492-.876-.876-.87-1.503.026-2.583 1.553-1.872-.928-2.942-4.1-1.769l-2.235.827 2.233.709c1.474.468 2.195 1.452 2.118 2.891-.096 1.798-.199 1.862-.587.361-.716-2.769-3.212.878-3.301 4.822l-.067 3-1.443-2.5c-.794-1.375-1.9-4.113-2.459-6.083-.603-2.133-1.642-3.584-2.564-3.584-.88 0-1.328.576-1.037 1.334.281.733.075 1.333-.457 1.333-.533 0-.969.45-.969 1s.852 1 1.893 1 2.165.708 2.496 1.572c.864 2.25-1.121 5.428-3.389 5.428-1.982 0-4.428 3.239-3.298 4.369.347.347.106.631-.535.631-.642 0-1.167-.627-1.167-1.393 0-1.802-2.462-2.745-3.765-1.442-.679.679-1.229.653-1.681-.078-.37-.598-.066-1.087.674-1.087 1.539 0 2.119-3.668.716-4.534-.51-.316-1.719-.114-2.686.449-1.256.732-1.354 1.033-.341 1.055.779.016 1.155.291.836.61-1.084 1.085-5.753-2.801-5.753-4.789 0-1.164-.858-2.203-2.085-2.523-1.584-.415-1.764-.748-.75-1.391.958-.608.7-.851-.915-.862-1.237-.008-2.25-.465-2.25-1.015 0-.55-.562-.888-1.25-.75-.721.144-1.216-.703-1.171-2 .044-1.238-.317-2.25-.802-2.25-.484 0-1.359-1.37-1.942-3.044-.648-1.859-1.698-2.982-2.698-2.885-3.128.304-4.137-.079-4.137-1.571 0-.825-.417-1.5-.927-1.5-.509 0-1.156-.788-1.437-1.75-.281-.962-.426.05-.323 2.25.103 2.2.478 4.225.834 4.5.665.514 1.173 3.531.968 5.75-.063.688-1.015 1.25-2.115 1.25-1.1 0-2 .45-2 1 0 2.174-2.001.837-2.619-1.75-2.278-9.535-8.644-5.309-7.167 4.757.242 1.646.068 2.993-.387 2.993S74 452.098 74 453.441c0 3.243-1.813 4.254-2.421 1.35-.367-1.752-1.367-10.558-1.555-13.696-.013-.223-.9.387-1.97 1.356-1.861 1.685-1.945 1.68-1.933-.095.03-4.25-.978-7.696-2.499-8.548-.892-.499-1.622-1.785-1.622-2.858 0-1.072-.391-1.95-.869-1.95-.908 0 .846 8.469 2.758 13.315 1.731 4.386 1.426 5.468-1.389 4.93-1.854-.355-2.5-1.109-2.5-2.921 0-1.373-.438-2.172-1-1.824-.55.34-1.034.029-1.077-.691-.042-.72-.274-2.209-.517-3.309-.242-1.1-.678-3.8-.969-6-.29-2.2-.89-5.35-1.333-7.001-.443-1.65-.479-3.9-.08-5 .399-1.099.346-2.729-.117-3.622-.463-.892-.653-2.601-.422-3.798.41-2.131-2.468-6.079-4.432-6.079-.543 0-.701 2.022-.37 4.75.819 6.745.795 6.624 1.648 7.99.426.682.924 4.579 1.107 8.66.183 4.08.61 7.869.95 8.419 1.081 1.749-.468 4.051-2.467 3.666-1.543-.297-1.921.209-1.921 2.572 0 2.205-.468 2.943-1.864 2.943-1.889 0-3.136-4.828-3.136-12.14 0-1.573-.525-2.86-1.167-2.86-.641 0-.873.293-.515.651.358.358-.09 1.193-.996 1.856-1.144.836-1.398 1.782-.831 3.098 1.14 2.649 1.191 4.683.152 6.145-.562.792-.463 1.25.27 1.25.774 0 .863.579.269 1.75-.489.962-.705 3.212-.48 5 .426 3.382-.451 4.101-2.502 2.05-.66-.66-1.186-.773-1.168-.25.052 1.571 2.456 4.253 4.012 4.477 3.77.543 4.153.036 3.803-5.028-.542-7.81 4.533-6.596 5.83 1.396.319 1.965 1.197 4.085 1.951 4.711.755.627 1.372 1.984 1.372 3.016 0 1.033.467 1.878 1.038 1.878.632 0 .84 1.637.533 4.187-.281 2.332-.022 4.769.584 5.5.79.951.781 1.313-.033 1.313-.617 0-1.122.48-1.122 1.067 0 .624.859.795 2.064.413 1.419-.451 2.002-.237 1.867.682-.29 1.965 1.199 7.79 1.936 7.576 1.978-.576 7.133 2.958 7.133 4.889 0 2.831 3.321 3.69 4.843 1.252.637-1.019 1.157-2.758 1.157-3.865 0-1.108.405-2.014.9-2.014.813 0 .943 7.043.175 9.5-.171.55-.259 2.012-.193 3.25L75 499h47.917c37.355 0 48.045-.276 48.5-1.25.466-1 .7-1 1.166 0 .421.901 4.028 1.25 12.917 1.25 8.931 0 12.472-.345 12.838-1.25.403-1 .52-1 .583 0 .097 1.531 12.079 1.779 12.079.25 0-1.693 3.893-5 5.886-5 2.784 0 7.558 2.665 5.935 3.314-.851.34-.677.556.488.607.995.043 1.531.529 1.191 1.079-.925 1.497 16.797 1.303 18.3-.2.933-.933 1.2-.933 1.2 0 0 .927 29.085 1.2 127.881 1.2h127.882l.435-19.75c1.035-47.04.415-88.325-1.345-89.613-1.781-1.305-5.2-8.617-4.052-8.667.384-.017-.089-.489-1.051-1.05s-1.75-1.699-1.75-2.529c0-.83-.369-1.281-.82-1.002-.451.278-.243-2.283.461-5.691.704-3.409 1.555-9.348 1.891-13.198.335-3.85 1.085-7.978 1.666-9.173.638-1.311.731-3.294.233-5-1.047-3.589-1.172-4.277-1.331-7.327-.101-1.928-.341-2.168-1.049-1.048-.506.799-.697 1.811-.426 2.25.271.439-.039.798-.688.798-.909 0-.909.329 0 1.424.9 1.085.917 4.232.069 13.25-2.048 21.795-1.995 21.45-3.506 22.561-1.807 1.328-4.072.798-4.211-.985-.288-3.677-2.284-7.25-4.051-7.25-1.137 0-1.873-.801-1.974-2.149-.173-2.289-2.264-5.174-2.264-3.123 0 .62 1.093 5.21 2.428 10.2 2.212 8.267 2.096 11.618-.258 7.412-1.365-2.44-3.554 1.99-2.813 5.695.357 1.783.041 3.22-.873 3.978-.787.653-1.704 2.642-2.037 4.419-.997 5.315-8.363 8.289-13.596 5.489-1.109-.594-4.567-3.51-7.684-6.479-3.117-2.97-6.207-5.409-6.867-5.421-.66-.012-1.639-.805-2.175-1.763-1.11-1.983-1.586-1.703-2.576 1.517-.495 1.608-.318 2.195.602 2 .716-.151 1.456.737 1.645 1.975.442 2.898-.855 2.852-4.088-.145-1.422-1.317-2.855-2.124-3.186-1.794-.331.331-.861-.391-1.178-1.605-.318-1.213-1.139-2.206-1.825-2.206-1.39 0-1.574-7.092-.209-8.096.445-.328-.351-1.356-1.768-2.285-3.282-2.15-4.073-.644-3.092 5.893.37 2.469.487 4.488.26 4.488-2.474 0-6.71-2.534-6.71-4.014 0-1.001-.391-1.969-.869-2.153-.478-.183-1.79-2.358-2.916-4.833-1.956-4.302-2.05-4.369-2.131-1.527-.08 2.816-.156 2.869-1.456 1-.755-1.085-1.692-3.439-2.082-5.232-.423-1.947-1.14-2.992-1.782-2.595-.636.393-.782.193-.359-.491.427-.693.06-1.155-.917-1.155-1.45 0-1.464-.167-.131-1.5.825-.825 1.993-1.5 2.596-1.5s1.524-1.125 2.047-2.5c.523-1.375 1.584-2.5 2.359-2.5 2.138 0 2.749-4.077 1.105-7.373-.826-1.655-1.464-5.717-1.464-9.316 0-5.981-.12-6.317-1.919-5.355-1.055.565-2.23 2.494-2.611 4.286-.381 1.792-1.387 4.046-2.236 5.008-.97 1.099-1.114 1.75-.389 1.75.635 0 1.155.45 1.155 1s-.337.947-.75.882c-2.734-.432-3.45.303-3.037 3.118.378 2.573.121 3-1.803 3-1.234 0-2.432-.337-2.663-.75-.23-.413-.295-.221-.143.425.278 1.183-4.031 1.232-5.203.059-.328-.328-1.246-.347-2.04-.042-.793.304-1.371.161-1.283-.319.368-2.016-.164-2.546-1.469-1.464-1.707 1.417.147 6.371 2.109 5.635.67-.251 1.484-.026 1.809.5.325.526 1.384.956 2.353.956 1.418 0 1.807.978 1.991 5 .245 5.365.078 5.578-3.044 3.907-1.381-.738-2.37-.764-3.056-.078-.558.558-1.709.748-2.557.423-1.012-.389-1.294-.19-.819.578.398.644.246 1.17-.336 1.17-.582 0-1.088-1.913-1.122-4.25-.053-3.557-.211-3.883-.968-2-.498 1.238-1.192 2.25-1.544 2.25-.351 0-.38-.675-.063-1.5.316-.825.181-1.5-.3-1.5s-.614-1.012-.295-2.25c.522-2.027.409-2.11-1.139-.84-.946.776-1.515 1.942-1.266 2.591.653 1.703-.941 3.877-2.25 3.068-.612-.378-1.112-1.421-1.112-2.319 0-1.405-.188-1.375-1.348.212-1.57 2.146-3.86 1.244-2.938-1.158.418-1.091.238-1.392-.544-.909-.777.48-1.17-.137-1.17-1.836 0-1.407.45-2.559 1-2.559s1 .702 1 1.559c0 .863.483 1.261 1.081.891.595-.368.838-1.635.542-2.817-.297-1.182-.115-2.821.403-3.641.519-.821.95-1.068.959-.551.008.518.676.068 1.483-1 1.285-1.698 1.472-1.729 1.5-.25.018.93-.418 1.969-.968 2.309-.55.34-.971 1.604-.937 2.809.061 2.082.118 2.067 1.153-.309.903-2.074 1.161-2.2 1.512-.738.233.969.909 1.462 1.502 1.096.642-.397.79-.199.365.487-.392.635-.263 1.155.287 1.155s1.351-.562 1.78-1.25c1.257-2.013 1.414-4.75.273-4.75-.579 0-.749-.492-.377-1.094.372-.602 1.749-.889 3.059-.639 2.417.462 3.406-1.517 1.383-2.767-.55-.34-1-1.716-1-3.059 0-3.525-2.646-3.096-6.571 1.065-3.301 3.501-3.309 3.503-4.8 1.375-1.074-1.534-2.145-1.968-3.819-1.548-2.261.567-5.068-.405-4.895-1.695.247-1.85-.153-1.911-.915-.138-.825 1.919-.862 1.91-.93-.219-.049-1.564-.52-2.046-1.596-1.633-1.254.481-1.298.861-.25 2.131 1.059 1.283 1.021 1.458-.224 1.028-1.634-.564-1.624-8.034.011-8.622.482-.173.598-1.04.258-1.926-.536-1.397-.72-1.355-1.374.314-.668 1.707-.762 1.652-.825-.49-.135-4.645-1.57-.863-1.57 4.139 0 3.592-.474 5.347-1.644 6.09-2.38 1.512-4.793-1.193-4.134-4.636.307-1.609.066-2.676-.605-2.676-.615 0-1.117.402-1.117.893s-.711 1.166-1.579 1.499c-1.302.499-1.464.078-.921-2.393.415-1.887.259-2.999-.421-2.999-.593 0-1.124.563-1.179 1.25-.055.688-.46.125-.9-1.25l-.801-2.5-.099 2.601c-.055 1.43.397 4.027 1.005 5.771 1.25 3.586-.153 6.353-2.988 5.891-1.222-.199-1.538.41-1.295 2.491.204 1.741-.222 2.962-1.158 3.322-.815.312-2.027 1.885-2.694 3.496-.667 1.61-1.578 2.928-2.024 2.928-.446 0-1.11.941-1.475 2.091-.421 1.327-1.28 1.931-2.347 1.652-.926-.242-2.345.27-3.154 1.139-1.319 1.417-1.521 1.243-1.97-1.691-.275-1.798-.95-3.139-1.5-2.98-.55.159-1.15-1.027-1.333-2.635-.249-2.186-.561-2.565-1.235-1.5-.646 1.021-.906.527-.917-1.744-.028-5.937-3.423-9.214-4.229-4.082-.327 2.081-.521 1.988-2.592-1.25-1.425-2.229-2.034-4.347-1.676-5.834.356-1.478.181-2.098-.478-1.691-.572.354-1.04-.059-1.04-.916s.424-1.559.943-1.559c.518 0 .769-.897.558-1.993-.425-2.208 3.907-8.007 5.981-8.007.717 0 1.555-.653 1.861-1.452.315-.82 1.441-1.282 2.586-1.062 1.116.215 2.278-.012 2.582-.504.304-.492 1.214-.641 2.021-.331.807.309 1.468.177 1.469-.294.001-.724 5.89-1.039 9.597-.513.604.086 1.91 1.956 2.902 4.156 2.834 6.285 4.785 4.29 2.072-2.119-.478-1.128-.062-1.781 1.371-2.156 1.132-.296 2.057-.143 2.057.34s1.913.716 4.25.518c8.327-.707 14.75-1.853 14.75-2.63 0-.434.293-1.554.652-2.488.565-1.474.362-1.543-1.546-.522-2.826 1.513-15.933 1.902-16.887.501-.487-.715-2.169-.753-5.219-.116m89.794 22.6c-4.051 4.731-2.342 10.506 2.364 7.987 2.175-1.163 3.309-.603 3.329 1.644.007.78.413 1.385.901 1.344 1.513-.126 2.581 2.434 2.597 6.225.021 5.045 2.25 6.736 3.726 2.827.837-2.219.825-2.959-.048-2.97-.739-.01-.668-.329.194-.875.874-.555.988-1.088.319-1.501-.571-.353-.861-2.418-.645-4.59.216-2.171-.04-4.215-.569-4.542-.529-.327-.962.133-.962 1.023 0 2.537-1.81.789-4.469-4.319-1.341-2.574-2.459-3.893-2.484-2.931-.026.962-.708 1.75-1.516 1.75-.894 0-1.243-.586-.893-1.5.781-2.035.136-1.885-1.844.428m14.851 19.554c-.382.995-.079 2.743.678 3.909.752 1.16 2.618 5.934 4.147 10.609 1.528 4.675 3.172 8.928 3.654 9.45.482.523.876 2.012.876 3.309 0 1.529.406 2.108 1.155 1.646.682-.422.884-.277.493.355-.363.588-.095 1.333.596 1.655 1.003.467 1.004.703.006 1.168-2.061.962-1.505 4.417.711 4.417 1.471 0 2.234-1.064 3.05-4.25.598-2.337 1.286-4.837 1.528-5.556.256-.758-.773-1.728-2.455-2.314-3.055-1.065-3.409-1.748-6.941-13.38-2.499-8.229-6.38-13.931-7.498-11.018m-134.896.768c.547.688.835 2.15.64 3.25-.481 2.714-.364 13.5.147 13.5 1.556 0 6.993-3.923 6.93-5-.049-.825.332-2.062.845-2.75.65-.87.441-1.25-.689-1.25-.892 0-1.524-.337-1.404-.75.616-2.123-2.289-7.437-3.757-6.873-.9.345-1.305.18-.954-.388.336-.544-.146-.989-1.07-.989-1.209 0-1.402.351-.688 1.25M177.49 463.032c-.355 1.118-1.677 3.064-2.937 4.324-2.111 2.111-3.329 4.379-6.412 11.941-1.374 3.369-1.471 6.381-.231 7.147 1.584.979 4.09-.584 4.09-2.551 0-1.041.9-2.793 2-3.893 1.1-1.1 2-2.466 2-3.035 0-.57.712-2.123 1.583-3.451.948-1.447 1.316-3.258.917-4.514-.399-1.256-.031-3.067.917-4.514 1.95-2.975 1.972-3.486.15-3.486-.788 0-1.722.914-2.077 2.032" fill="#d3d3d3" fill-rule="evenodd"/></svg>