<svg xmlns="http://www.w3.org/2000/svg" width="500" height="329"><path d="M174.75 34.733l-22.75.305v4.621c0 4.775-1.733 7.243-5.133 7.309-2.29.045-2.674 3.059-2.816 22.105-.129 17.156.222 19.927 2.521 19.927 3.066 0 4.77 8.271 1.928 9.362-1.308.502-1.5 7.631-1.5 55.778 0 48.913-.18 55.401-1.58 56.949-.87.96-1.398 2.796-1.174 4.079l.407 2.332 1.045-2.5c.757-1.812 1.011 5.262.923 25.687-.118 27.445-.066 28.238 1.984 30.154 2.725 2.546 3.317 19.159.683 19.159-.959 0-1.282.572-.895 1.582.334.87.607 2.466.607 3.548 0 1.923.643 1.954 29.25 1.401 16.088-.311 30.037-.557 31-.548 1.511.015 1.75-.996 1.75-7.395 0-6.487.218-7.38 1.75-7.16 1.271.183 1.887 1.459 2.25 4.662l.5 4.41 1.375-6.25c1.473-6.699 1.669-6.911 4.433-4.816 1.731 1.313 1.72 1.433-.252 2.814-2.467 1.728-1.228 7.054 2.049 8.808 2.168 1.161 2.272-.594 1.051-17.806-.361-5.088-.318-9.25.094-9.25.412 0 .75-3.119.75-6.93 0-6.426-.164-6.954-2.25-7.25-2.096-.298-2.24-.779-2.098-7.034.133-5.879-.093-6.791-1.822-7.34-1.363-.433-1.762-1.141-1.289-2.286 1.579-3.822 1.465-4.861-.799-7.304-1.309-1.413-3.024-2.8-3.811-3.082-1.177-.422-1.209-.888-.181-2.63.688-1.164 1.25-2.781 1.25-3.593 0-3.836 4.286-12.639 6.825-14.018 1.471-.799 2.074-1.471 1.338-1.493-.735-.022-3.284-1.439-5.665-3.149-2.382-1.71-5.82-3.414-7.642-3.787-4.501-.92-6.215-8.262-2.705-11.588 1.89-1.791 2.057-1.815 1.5-.214-.373 1.069-.226 1.553.36 1.191.597-.369 1.058 1.493 1.164 4.698.165 5.036.194 5.09.558 1.046.353-3.923.756-4.458 5.075-6.725 6.413-3.367 9.529-6.192 8.831-8.01-.845-2.204-1.728-1.921-7.976 2.553-6.9 4.941-7.368 3.808-.913-2.21 6.945-6.474 14.084-11.123 15.97-10.399 1.329.51 1.023 1.224-1.751 4.086L225.608 172h2.762c1.519 0 3.632.466 4.696 1.035 1.474.789 1.934.71 1.934-.333 0-3.348 3.855-.569 14.167 10.215 6.093 6.37 11.534 11.45 12.092 11.287.558-.162 2.078.704 3.378 1.925 2.678 2.516 3.235 1.492.708-1.3-.91-1.006-1.17-1.829-.578-1.829s2.618 1.8 4.501 4c4.081 4.767 5.379 5.153 3.207.951-1.507-2.913-1.474-3.132.724-4.933 2.292-1.877 2.315-1.871 6.033 1.734 2.052 1.99 3.979 3.371 4.281 3.068 1.499-1.499 1.146-4.819-.69-6.48-2.042-1.848-5.249-7.257-4.647-7.838.178-.172 3.179-2.411 6.668-4.975 5.919-4.349 6.237-4.779 4.75-6.423-.877-.969-1.594-2.118-1.594-2.554 0-.436-6.3-7.434-14-15.55s-14-15.258-14-15.87c0-.612.9-1.675 2-2.362s2-1.816 2-2.509c0-1.722-.728-1.589-3.984.73l-2.793 1.989-3.612-4.407c-1.986-2.424-3.611-4.978-3.611-5.675 0-.697-.915-2.241-2.033-3.431-1.614-1.718-1.838-2.675-1.088-4.648.562-1.478.582-3.058.048-3.9-.493-.78-.903-1.047-.912-.596-.008.452-.748.089-1.643-.806-1.504-1.504-1.473-1.772.398-3.515 1.114-1.038 2.206-2.428 2.426-3.087.3-.901.917-.923 2.478-.088 2.018 1.081 2.066.934 1.665-5.106-.228-3.42-.58-7.006-.783-7.969-.268-1.271.268-1.75 1.96-1.75 2.516 0 4.106 3.269 4.866 10 .217 1.925.445 3.886.506 4.358.062.473 1.237.576 2.612.231 1.679-.421 2.507-.21 2.52.642.081 5.2 2.367 15.658 3.999 18.3 1.09 1.763 1.981 4.129 1.981 5.258 0 1.482.861 2.241 3.099 2.733 2.252.494 2.798.981 2 1.779-.605.605-1.099 1.895-1.099 2.868 0 1.161-.515 1.571-1.5 1.193-1.131-.434-1.5.174-1.5 2.472 0 3.926 1.592 4.928 2.443 1.538.361-1.437 1.309-3.266 2.106-4.064.798-.798 1.451-2.266 1.451-3.263 0-.996.9-2.047 2-2.335 1.398-.365 2-1.364 2-3.316 0-2.011.304-2.49 1.087-1.707.782.782 2.533.701 6.25-.288 6.558-1.747 6.643-1.742 6.763.351.066 1.167.366.917.9-.75.553-1.726.878.286 1.05 6.5.137 4.95.44 7.736.672 6.191.232-1.545 1.094-3.067 1.915-3.382 1.106-.424 1.455-2.032 1.346-6.191-.343-13.098-.463-12.717 3.888-12.302 3.755.358 3.892.26 4.555-3.276.377-2.005 1.335-3.895 2.129-4.2 1.702-.653 1.94-2.34.33-2.34-3.575 0-10.494-11.388-7.895-12.994.693-.428 1.26-1.955 1.26-3.392 0-1.74.543-2.619 1.625-2.629 4.961-.045 25.383-1.133 29.875-1.592l5.25-.537V42.132l-2.25.382c-5.345.905-29.047 2.421-29.874 1.909-.5-.308-.706-.889-.458-1.29.247-.401.08-1.327-.372-2.059-1.084-1.753-3.046-.475-3.046 1.985 0 1.254-.686 1.941-1.938 1.941-1.384 0-1.898-.643-1.798-2.25.205-3.293 1.35-3.705 10.736-3.86 7.569-.125 8.007-.228 4-.941-2.475-.44-7.505-.834-11.179-.875-4.521-.05-7.163-.558-8.178-1.574-2.168-2.167-20.173-2.167-21.005 0-.707 1.843-2.071 1.916-3.817.204-2.292-2.249-10.46-2.192-11.053.077-.31 1.182-1.734 2.162-3.721 2.56-4.276.855-3.459 3.069 1.28 3.469 4.916.416 5.469 4.19.614 4.19-1.682 0-2.81-.403-2.506-.895.651-1.054-1.698-2.099-4.767-2.12-1.766-.013-1.89-.195-.668-.985 1.089-.703.237-.974-3.103-.985-6.578-.022-16.91 1.154-16.468 1.875.206.335-6.308.676-14.477.756l-14.851.146-.3-4.646c-.25-3.864-.637-4.652-2.301-4.682-1.1-.02-12.238.101-24.75.269m279.111 24.012c-1.193 2.987-5.945 5.312-9.111 4.457-.413-.111-.75.248-.75.798s-.788.964-1.75.921c-1.045-.047-1.247-.282-.5-.583 1.731-.699 1.568-3.002-.262-3.704-.831-.319-2.603-.083-3.936.524-1.333.608-3.241.767-4.238.353-4.201-1.74-11.314-.684-11.314 1.68 0 .39 2.7 1.015 6 1.389 6.125.693 8.215 2.325 3.25 2.538-1.512.066-3.087.066-3.5 0-.413-.065-.75.545-.75 1.356s-1.462 2.23-3.25 3.154c-5.248 2.712-7.697 8.362-9.262 21.372-.364 3.025-.863 6.887-1.11 8.582-.311 2.141.479 4.844 2.587 8.852 2.336 4.441 3.037 7.07 3.042 11.418.007 6.464 1.976 10.243 6.894 13.234 1.732 1.053 3.634 3.152 4.227 4.664 1.045 2.665 1.103 2.684 1.905.602 1.396-3.626 2.715-3.509 3.43.303.478 2.545.285 3.889-.64 4.476-1.005.636-.902.842.427.854.962.008 1.75.41 1.75.894 0 1.598 5.798 3.324 8.887 2.646 7.382-1.622 12.636-10.68 9.599-16.552-1.86-3.596-1.37-5.971 1.233-5.978 2.704-.008 6.922-4.083 8.169-7.894 2.555-7.812.375-12.101-6.151-12.101-3.381 0-3.574-.169-3.109-2.733.631-3.477 2.952-5.628 7.928-7.345 3.537-1.221 3.686-1.399 1.444-1.727-4.117-.6-4.776-2.185-.95-2.285l3.45-.09-3.205-.927c-8.145-2.355-8.092-14.348.079-17.999 2.087-.933 2.085-.943-.125-.515-1.239.239-2 .026-1.691-.472.308-.499.083-.907-.499-.907S461 70.495 461 68.655c0-3.563-2.476-6.655-5.329-6.655-2.002 0-2.245-1.717-.308-2.177.933-.221 1.116-.955.579-2.323-.707-1.804-.911-1.681-2.081 1.245M58.909 65.09c8.577 3.429 5.318 16.092-3.714 14.433-2.559-.47-3.383-.358-2.679.365 2.264 2.326 10.851 2.398 13.754.115 6.192-4.871.809-16.183-7.585-15.94-2.106.061-2.098.099.224 1.027M470.5 71.795c-3.362.671-7.5 5.301-7.5 8.392 0 6.705 7.909 9.058 13.077 3.89 5.651-5.652 1.958-13.785-5.577-12.282M83.606 118.151c-1.43 22.469-2.051 42.124-1.388 43.913.395 1.065 1.605 1.936 2.691 1.936 2.277 0 3.603-1.566 2.107-2.49-1.727-1.068-1.12-3.51.873-3.51 1.911 0 3.079-3.393 3.597-10.45.119-1.623.733-3.123 1.365-3.334 1.802-.6 1.358-2.293-1.231-4.692-1.862-1.726-2.293-2.986-1.984-5.797.296-2.678-.08-3.926-1.476-4.909-1.548-1.09-1.907-2.789-2.072-9.818-.274-11.695-1.759-12.203-2.482-.849M488 145.525c-3.025 1.896-6.106 3.743-6.846 4.105-.74.361-2.765 1.96-4.5 3.552-1.735 1.591-5.7 4.17-8.811 5.73-3.111 1.559-6.261 3.337-7 3.949-.739.613-3.368 2.602-5.843 4.421-2.475 1.819-4.633 4.214-4.794 5.321-.348 2.379 3.31 7.397 5.392 7.397.799 0 9.204-5.009 18.678-11.132 9.473-6.122 19.12-12.31 21.437-13.75 3.955-2.457 4.216-2.902 4.25-7.251.032-3.975-.283-4.719-2.213-5.237-3.441-.922-3.857-.798-9.75 2.895M39.713 150.25c-.835 1.238-3.38 4.22-5.655 6.627-2.276 2.407-3.899 4.615-3.607 4.908.293.292.078 1.078-.477 1.746-1.36 1.639-.07 4.72 1.693 4.043 2.122-.814 2.803 2.249.954 4.292-2.377 2.626-1.985 4.42 1.385 6.337 2.636 1.501 2.994 2.247 2.994 6.25 0 2.501.45 4.547 1 4.547s1.884.884 2.964 1.964c1.386 1.386 3.24 1.939 6.294 1.878 2.382-.048 6.223.232 8.536.623 4.693.793 4.724.727 4.286-9.052-.1-2.247.463-5.96 1.252-8.25.845-2.453 1.027-4.163.443-4.163-.555 0-.719-1.086-.373-2.465C62.668 164.489 60.9 153 58.856 153c-1.99 0-2.499-1.485-.856-2.5.55-.34.986-1.154.968-1.809-.017-.655-.692-.317-1.5.75-1.28 1.693-1.468 1.725-1.468.25 0-2.526-5.667-2.315-6.478.241-.53 1.668-1.018 1.791-3.568.902-1.625-.566-2.954-1.436-2.954-1.932 0-1.649-1.75-.932-3.287 1.348m355.037 54.765c-1.512 2.742-2.75 5.623-2.75 6.402 0 .779-.352 1.566-.783 1.75-.927.395-5.217 7.59-5.217 8.751 0 .443 1.131.588 2.514.324 1.946-.372 2.383-.137 1.932 1.038-.32.835-.094 1.819.502 2.188.597.369.824 1.092.505 1.608-.319.516.121 1.207.978 1.536.857.329 1.263 1.113.903 1.743-.36.63-.311.836.108.459.42-.378 1.811-.288 3.091.198 3.166 1.204 9.467.09 9.467-1.674 0-.771-.672-1.659-1.494-1.974-.822-.316-1.198-1.053-.836-1.639.413-.668.038-.827-1.006-.426-.915.351-1.664.301-1.664-.111s-1.462-1.333-3.25-2.045c-3.082-1.229-3.142-1.348-1.155-2.303 1.516-.729 1.968-1.676 1.634-3.424-.266-1.388.013-2.416.654-2.416.615 0 1.117-.868 1.117-1.93 0-1.819.257-1.786 4.5.586 5.734 3.205 5.841-.213.201-6.406-1.52-1.668-1.681-2.259-.625-2.286.828-.021.169-1.065-1.576-2.495-4.082-3.346-4.593-3.178-7.75 2.546m-12.159 23.158c-.875 1.25-1.591 3.072-1.591 4.05 0 .977-.401 1.777-.892 1.777-.49 0-1.154 1.045-1.474 2.323-.321 1.278-1.668 3.922-2.994 5.876-1.492 2.198-2.103 4.052-1.602 4.862.564.913 1.49-.094 3.061-3.327 1.238-2.549 2.644-4.393 3.123-4.097.48.297-.049 2.1-1.175 4.008-1.126 1.908-2.047 3.977-2.047 4.598 0 .62-.934 2.122-2.075 3.337-1.35 1.437-1.697 2.443-.993 2.878.595.368 1.352-.035 1.682-.895.716-1.865 4.027-2.087 4.678-.313.366 1 .723 1 1.783 0 .729-.687 2.472-1.311 3.875-1.386 2.353-.126 2.376-.17.3-.57-2.435-.469-2.688-1.055-1.36-3.151.612-.966 1.827-1.144 4.215-.62 2.95.648 3.201.551 2.077-.804-.862-1.038-.937-1.753-.231-2.189.577-.356.997-2.084.933-3.839-.064-1.755-.322-2.404-.573-1.441-.252.963-.875 1.75-1.384 1.75-1.226 0-1.23.017 1.041-4.436 2.103-4.126 1.91-5.564-.745-5.564-.913 0-2.645-1.147-3.85-2.549l-2.19-2.55-1.592 2.272" fill="#d3d3d3" fill-rule="evenodd"/></svg>