<svg xmlns="http://www.w3.org/2000/svg" width="500" height="667"><path d="M349.413 30.756l-79.088.256-.662 42.158c-.849 53.999-.848 140.714.002 161.209l.659 15.879 30.088-.628c16.548-.346 57.257-.915 90.464-1.265l60.375-.637-.612-7.114c-1.489-17.315-4.545-127.043-4.763-171.042-.069-13.79-.406-28.222-.75-32.072l-.626-7h-8c-4.4 0-43.589.115-87.087.256m58.301 62.228c-.332 1.272-.343 3.621-.024 5.218.739 3.695-3.152 8.045-9.296 10.392-2.346.896-4.472 2.167-4.725 2.825-.604 1.576-9.455 2.003-11.217.541-1.031-.856-2.274-.844-4.972.047-4.604 1.519-9.23-.163-10.112-3.677-.821-3.269-2.868-2.374-2.868 1.253 0 2.496.4 2.932 2.768 3.018 3.602.132 4.685 1.286 2.404 2.563-1.64.917-1.66 1.124-.216 2.18 1.439 1.052 1.4 1.335-.395 2.872-1.096.938-2.24 1.304-2.543.814-.303-.491-.093-1.174.466-1.52 1.775-1.097 1.094-2.343-.984-1.8-1.1.288-2 .89-2 1.339 0 .449-.933 1.112-2.072 1.474-1.14.362-1.865 1.198-1.612 1.859.254.661-.21 2.083-1.032 3.16-1.366 1.792-1.456 1.47-1.056-3.792.523-6.893-.772-7.791-1.443-1-.605 6.129-4.681 12.134-9.84 14.5-4.808 2.204-5.236 4.585-.695 3.868.413-.065.75.557.75 1.382 0 .825-.675 1.5-1.5 1.5s-1.5.398-1.5.883c0 .486-1.012 1.182-2.25 1.546-9.199 2.709-13.279 3.538-14.889 3.027-1.472-.467-1.861-.074-1.861 1.881 0 2.327.25 2.441 4.25 1.93 2.337-.298 4.416-.684 4.619-.857.203-.173 1.016.332 1.807 1.124 1.488 1.487 4.694-.075 3.66-1.784-.25-.412.248-.75 1.105-.75s1.559-.436 1.559-.969c0-.532.675-.709 1.5-.393.825.317 1.5.051 1.5-.59s.418-.908.928-.592c.51.315 1.192-.258 1.514-1.275.645-2.032 3.558-2.565 3.558-.651 0 1.758-5.162 6.622-6.488 6.113-.624-.24-2.233.408-3.574 1.438-1.341 1.031-3 1.885-3.688 1.897-3.708.066.04 3.022 3.832 3.022 1.055 0 1.918.45 1.918 1s-.45 1-1 1-1 .616-1 1.369c0 .791-1.483 1.61-3.51 1.939-5.191.842-8.736 5.088-4.9 5.869 1.367.278 1.304.651-.447 2.665-1.174 1.35-2.537 2.032-3.218 1.611-.844-.521-.701-.999.502-1.672 1.333-.746 1.436-1.241.496-2.374-.849-1.022-1.549-1.132-2.45-.384-.695.576-1.647.978-2.118.894-1.919-.345-3.355.144-3.355 1.142 0 .582.52.738 1.155.346.715-.443.883-.275.44.44-.392.635-.236 1.155.346 1.155s1.059.861 1.059 1.914 1.592 3.554 3.538 5.557l3.538 3.643 3.039-2.557c1.671-1.406 3.904-2.557 4.962-2.557 1.058 0 1.923-.415 1.923-.922 0-.508 1.688-1.466 3.75-2.131 2.063-.664 4.255-1.607 4.873-2.095.618-.487 1.798-.628 2.621-.312 1.825.7 5.06-2.305 4.383-4.07-.551-1.436 3.078-2.756 3.904-1.42.293.475 1.081.731 1.751.57.67-.161.856-.095.413.146-.443.24 1 2.207 3.207 4.371 2.864 2.807 3.979 4.71 3.897 6.648-.064 1.493.232 4.29.657 6.215.425 1.925.89 5.026 1.034 6.89.143 1.865.98 3.794 1.861 4.286 1.417.794 1.543.121 1.1-5.89-.975-13.211-1.034-19.286-.189-19.286.471 0 .576-.453.233-1.008-.342-.554.081-1.711.941-2.571.86-.86 1.564-1.907 1.564-2.326 0-1.375-3.475-.804-4.628.761-.999 1.356-1.342 1.317-3-.343-1.83-1.832-1.821-1.861.378-1.287 1.601.417 2.25.15 2.25-.927 0-.934.574-1.293 1.5-.937.825.316 1.5.139 1.5-.393 0-.533-.788-.983-1.75-.999-1.635-.029-1.631-.1.052-1.079 1.27-.739 2.193-.725 3.124.047.726.603 2.09.801 3.031.44 1.356-.52 1.434-.829.377-1.489-1.423-.888-.039-4.343 1.775-4.434 3.478-.173 8.331-3.044 8.276-4.896-.033-1.133.256-3.071.644-4.309.445-1.422.288-2.25-.427-2.25-.622 0 .096-1.853 1.595-4.118 1.609-2.431 2.875-3.557 3.093-2.75 1.073 3.984 1.325 3.998 4.304.237 6.258-7.901 11.906-8.608 11.906-1.49 0 1.999.419 5.094.93 6.878 1.135 3.956-.111 4.273-1.938.493l-1.329-2.75-.721 3.5c-.397 1.925-1.196 5.793-1.777 8.595-.58 2.803-1.068 10.048-1.084 16.1-.029 10.57.072 11.099 2.557 13.404l2.588 2.401-.66-5c-.496-3.766-.154-6.458 1.388-10.907 1.125-3.248 2.046-6.987 2.046-8.309 0-1.579.401-2.154 1.17-1.679.782.483.962.182.544-.909-.93-2.422.691-2.872 2.544-.707.889 1.037 1.215 2.027.726 2.199-.49.171-1.134 2.337-1.431 4.812-.477 3.968-.426 4.135.438 1.417.539-1.695 2.076-3.582 3.416-4.192 1.752-.799 2.289-1.672 1.913-3.111-.288-1.1.124-3.297.915-4.883 1.488-2.983.781-7.231-1.203-7.231-.567 0-1.032-.477-1.032-1.059s.45-.781 1-.441c1.147.709 1.263-.915.318-4.446-.608-2.275-.71-2.31-1.451-.5-.454 1.109-.563-.419-.254-3.554.399-4.039.26-5.101-.52-4-.917 1.295-1.064 1.26-1.078-.25-.008-.963.377-1.75.857-1.75s.734-2.138.565-4.75c-.28-4.329-.18-4.578 1.128-2.809 1.318 1.784 1.424 1.58 1.299-2.5-.075-2.442-.331-3.428-.57-2.191-.685 3.556-1.962 2.621-2.051-1.5-.062-2.916.109-3.305.768-1.75.831 1.96.85 1.958.919-.101.163-4.875-7.556-20.622-8.98-18.318-.552.893-1.451.448-3.199-1.584l-2.431-2.827-.606 2.314m-.119 12.171c.431.696.276.883-.39.472-1.55-.958-3.422 2.756-2.071 4.107.72.72.706 1.247-.047 1.712-.605.374-1.087-.019-1.087-.887 0-.857-.477-1.559-1.059-1.559s-.781.45-.441 1 .115 1-.5 1-.84.45-.5 1c.34.55-.11 1-1 1s-1.34-.45-1-1c.713-1.153-1.513-1.327-3-.235-1.339.984-1.83 3.557-.525 2.75.564-.348 1.025.069 1.025.926 0 1.863-1.624 2.078-2.338.309-.31-.77-.534-.6-.583.441-.108 2.322 1.483 3.101 3.09 1.512 1.927-1.904 4.831-2.836 4.831-1.549 0 .72.511.667 1.5-.154 1.256-1.042 1.5-.888 1.5.949 0 1.95.167 2.027 1.5.694 1.728-1.728 1.963-4.239.484-5.153-.559-.346-.776-1.018-.481-1.495.294-.476 1.655.254 3.024 1.623 3.026 3.026 4.289 2.488 3.693-1.574-.355-2.417-.939-3.044-2.833-3.044-1.313 0-2.387-.45-2.387-1s.45-1 1-1 1-.45 1-1-.702-1-1.559-1c-.924 0-1.268.47-.846 1.155m-23.861 12.974c-.963.539-2.196.703-2.742.366-.546-.337-1.49-.305-2.099.071-.771.477-.696.944.25 1.544.998.632.78.863-.826.875-1.341.009-2.443.837-2.859 2.147-.476 1.5-.904 1.765-1.442.893-.461-.746-1.612-.971-2.891-.565-1.233.392-2.125.24-2.125-.361 0-.57-.675-.777-1.5-.461-.825.317-1.5 1.041-1.5 1.609 0 .568-.654 1.532-1.454 2.143-1.2.916-1.229 1.409-.165 2.826 1.215 1.616 1.575 1.605 6.204-.186 2.703-1.046 4.834-2.287 4.734-2.758-.099-.471.699-.923 1.775-1.004 1.076-.081 3.552-1.792 5.504-3.801 3.704-3.814 4.108-5.001 1.136-3.338m-6.484 21.902c-2.077.835-2.703 2.754-2.519 7.719.026.688-.353 1.25-.842 1.25s-.889 1.111-.889 2.469c0 1.912.383 2.321 1.699 1.816 1.063-.408 1.251-.802.5-1.052-1.875-.625-1.405-2.095.551-1.721.962.184 2.087.369 2.5.411.413.043.75.752.75 1.577s.498 1.5 1.107 1.5.869-.62.578-1.378c-.667-1.739 1.16-3.622 3.515-3.622.99 0 1.8-.49 1.8-1.09 0-.599 1.012-1.937 2.25-2.972l2.25-1.883-3.177.333c-2.64.276-3.276-.066-3.769-2.028-.625-2.49-2.455-2.876-6.304-1.329m-16.864 20.406c-.303.79-1.077 1.314-1.719 1.164-.642-.15-.83-.084-.417.146.413.231.75.859.75 1.395 0 .537-.45.698-1 .358-.55-.34-1-.24-1 .223 0 .462-1.18.938-2.621 1.058-2.226.184-2.434-.01-1.378-1.282 2.355-2.838-.617-1.493-4.442 2.011-2.988 2.737-4.131 3.26-5.195 2.377-.884-.734-1.364-.766-1.364-.093 0 .572.563 1.266 1.25 1.544.7.282.422.539-.632.583-1.513.064-4.312 1.432-9.358 4.576-.131.082-.494 1.691-.805 3.576l-.566 3.427 1.552-2.681c.853-1.475 2.565-2.998 3.805-3.385 1.24-.387 2.483-1.057 2.763-1.489.281-.431 1.17-.933 1.977-1.115.806-.181 2.053-.873 2.769-1.538.717-.664 2.039-.925 2.938-.58 1.181.454 1.408.26.817-.697-.545-.881-.433-1.085.335-.61.635.392 1.155.236 1.155-.346s.849-1.059 1.886-1.059c3.43 0 10.332-4.39 11.398-7.25.44-1.179.164-1.75-.847-1.75-.825 0-1.748.647-2.051 1.437M145.5 224.073c-29.585 1.313-32.712 2.844-33.84 16.573-1.123 13.663.773 29.153 3.978 32.498 2.975 3.105 9.158 5.44 17.051 6.44 3.363.426 5.404 1.215 5.797 2.241 1.353 3.524 1.734 17.528.664 24.379-.627 4.013-1.61 12.467-2.186 18.787-2.029 22.278-5.721 30.009-14.33 30.009-15.277 0-39.446 15.126-45.537 28.5a593.319 593.319 0 01-3.315 7.173c-1.762 3.691.097 7.573 6.747 14.087l6.39 6.259-2.916 4.321c-3.946 5.847-6.542 16.045-8.975 35.257C71.383 479.372 69.852 486 66.851 486c-1.14 0-8.21 1.089-15.712 2.42-7.501 1.332-22.077 3.91-32.389 5.731L0 497.461v169.543l250.25-.252 250.25-.252V485.423l-11.065-16.961a7936.672 7936.672 0 01-16-24.611c-18.666-28.932-16.944-27.568-30.708-24.332-28.357 6.666-43.686 9.899-44.169 9.314-.152-.183 1.472-5.958 3.608-12.833 3.916-12.608 4.25-16.399 1.96-22.25-.7-1.788-1.813-2.75-3.181-2.75-3.008 0-12.788 10.183-17.769 18.5-7.189 12.005-7.172 11.99-12.488 10.652-2.515-.634-6.091-1.152-7.945-1.152h-3.372l-3.703-11.985c-4.187-13.552-7.821-19.015-12.65-19.015-2.107 0-3.027.662-3.821 2.75-2.24 5.888-3.969 12.927-4.114 16.75-.084 2.2-.609 6.897-1.167 10.438-.92 5.836-.823 6.696 1.035 9.209 2.349 3.177 2.557 6.309.648 9.753-1.154 2.083-3.101 2.766-14.715 5.16a12060.65 12060.65 0 00-25.772 5.35c-15.086 3.154-13.617 3.199-15.134-.463-1.815-4.383-6.723-6.413-20.478-8.471-6.6-.987-12.511-2.286-13.135-2.886-.624-.599-3.265-8.515-5.868-17.59s-6.343-20.775-8.312-26c-3.538-9.393-3.578-9.674-3.593-25-.016-15.732 2.16-29.843 7.044-45.689l1.599-5.189 4.735 1.866 4.735 1.867.647-10.583c.357-5.821.648-15.678.648-21.904v-11.321l-5.206-4.116c-2.864-2.263-8.714-6.138-13-8.611-4.287-2.472-7.802-5.018-7.812-5.658-.01-.639-.666-5.718-1.458-11.286-1.625-11.428-3.864-17.952-6.676-19.458-6.865-3.673-28.95-4.593-68.348-2.845m34.5 3.285c0 1.201-.772 1.513-3.075 1.245-2.154-.251-3.696.279-5.147 1.769-1.14 1.171-1.754 1.566-1.366.878.389-.689.183-1.25-.46-1.25-.641 0-.918.646-.615 1.435.303.79.042 1.605-.581 1.813-1.769.59 2.502 4.326 4.505 3.94.957-.184 1.739-1.127 1.739-2.095 0-3.8 4.643-3.365 5.619.526.329 1.31 1.026 2.381 1.548 2.381.523 0 .636.51.25 1.134-.486.786.264.993 2.441.674 3.172-.466 3.887.469 2.288 2.989-.657 1.037-1.081.986-2.107-.25-2.015-2.428-3.202-1.819-2.697 1.384.298 1.891-.018 3.115-.892 3.45-.745.286-1.184 1.402-.977 2.48.592 3.071-1.556 5.099-4.723 4.461-1.512-.306-2.75-1.162-2.75-1.903 0-1.585-2.989-3.333-4.665-2.729-.641.231-1.483-.58-1.87-1.801l-.705-2.222-1.802 2.389c-.991 1.313-1.585 2.738-1.321 3.166.772 1.249-1.12.895-2.479-.464-.988-.988-1.416-.959-2.099.146-.471.763-1.578 1.111-2.458.773-.881-.338-1.601-.277-1.601.136 0 .413-1.18.848-2.621.968-2.226.184-2.434-.01-1.378-1.282.86-1.036.897-1.499.121-1.499-.617 0-1.122-.761-1.122-1.691 0-1.479.192-1.448 1.527.25 1.112 1.413 1.488 1.533 1.382.441-.305-3.134.117-3.927 1.755-3.299 1.053.404 1.42.243.999-.438-.424-.685.062-.886 1.336-.553 2.12.554 2.923-2.022 1.001-3.21-.55-.34-1 .11-1 1s-.461 1.333-1.024.985c-.564-.348-.826-1.837-.583-3.309.244-1.472.48-3.029.525-3.461.045-.432.952-.32 2.016.25 2.707 1.448 2.873 1.356 2.71-1.51-.12-2.114-.524-2.449-2.394-1.981-1.257.315-2.25.103-2.25-.48 0-.574 1.359-1.316 3.021-1.648 3.314-.663 4.577-1.858 2.995-2.836-.559-.345-1.016-.166-1.016.4 0 .565-.74.743-1.645.396-1.007-.386-2.17.088-3 1.223-.745 1.019-1.355 1.517-1.355 1.105 0-.411-1-.047-2.223.809-2.942 2.062-3.777 1.964-3.777-.443 0-1.18-.717-2.062-1.75-2.152-3.259-.284-3.748-.4-5-1.183-.8-.501-1.25-.222-1.25.776 0 1.863-1.624 2.078-2.338.309-.35-.869-.528-.801-.583.223-.054 1.014-.563.78-1.636-.75-.856-1.223-2.318-2.187-3.25-2.144-1.041.048-1.212.273-.443.583.688.278 1.25.972 1.25 1.544 0 .702-.419.691-1.291-.032-2.343-1.945-7.682-2.343-9.329-.697-.881.881-1.052 1.523-.405 1.523 1.684 0-2.159 4.753-4.475 5.536-1.789.605-1.816.725-.25 1.143 1.979.529 2.363 4.308.614 6.057-.847.847-.751 1.52.381 2.652.834.834 1.795 1.238 2.136.898.629-.629.99 1.184.692 3.47-.09.691.262 2.798.782 4.681.736 2.666.635 3.545-.455 3.963-1.854.712-1.791 3.236.1 3.962 1.084.415 1.5-.11 1.5-1.893 0-1.358.45-2.469 1-2.469s1 .702 1 1.559.432 1.292.959.966c1.708-1.055 5.081 1.721 3.868 3.184-.59.71-.679 1.295-.199 1.3.479.005 1.997-1.358 3.372-3.029 1.628-1.978 3.547-3.115 5.5-3.259 2.819-.208 2.981-.025 2.686 3.029-.242 2.506.072 3.25 1.372 3.25 1.208 0 1.407.355.702 1.25-2.226 2.826-2.354 6.585-.247 7.254 1.109.352 1.757 1.058 1.441 1.57-1.097 1.775 4.616 2.882 14.803 2.869 12.997-.017 11.089-.028 26.106.153 7.075.085 13.15-.26 13.5-.768.351-.508 1.654-.987 2.897-1.065 1.243-.077 2.963-.843 3.821-1.702.859-.858 1.881-1.561 2.272-1.561 2.279 0 4.779-19.968 2.753-21.994-.675-.675-.621-1.006.163-1.006.642 0 .91-.672.595-1.494-.316-.822-.945-1.265-1.4-.984-.454.281-1.089.084-1.411-.437-.322-.521-.128-1.229.431-1.575 1.472-.91 1.254-2.129-.734-4.117-1.932-1.932-1.963-2.334-.263-3.385.863-.533.775-1.966-.345-5.612-.826-2.693-1.534-4.109-1.572-3.146-.072 1.807-2.07 2.531-2.07.75 0-.55-.477-1-1.059-1s-.864.338-.625.75c.238.412.072 1.65-.371 2.75l-.804 2-.086-2c-.066-1.54-.287-1.682-.961-.618-.688 1.086-1.02.925-1.552-.75C197.87 229.015 194 228.05 194 230c0 .55-.675 1-1.5 1s-1.5.45-1.5 1c0 1.354 2.713 1.273 3.566-.107.409-.662.935-.728 1.309-.164.344.518 1.525 1.452 2.625 2.076 1.1.624 1.438 1.148.75 1.165-.687.016-1.25.507-1.25 1.089s.403.81.895.506c2.301-1.422 2.925 8.813.73 11.962-2.239 3.214-3.045 10.136-1.295 11.133 2.461 1.402 2.576 9.34.135 9.34-2.254 0-6.465-3.01-6.465-4.622 0-.765-1.091-2.34-2.425-3.499-3.326-2.893-.998-6.593 4.592-7.295 1.726-.217 1.94-1.586.25-1.599-1.604-.013-1.672-.174-.417-.985.825-.533 1.275-1.011 1-1.061a692.91 692.91 0 01-2.25-.427c-.963-.184-1.75.107-1.75.648s-.704.279-1.564-.581c-1.678-1.678-1.025-4.061.803-2.931.682.421.884.115.531-.806-.322-.837.226-1.983 1.255-2.626 1.004-.627 1.983-2.169 2.174-3.428.192-1.258.9-2.175 1.575-2.038.674.138 1.226-.18 1.226-.705 0-.525-1.575-1.25-3.5-1.611s-3.5-1.143-3.5-1.736c0-.594-.661-.207-1.468.861-1.166 1.541-1.475 1.622-1.5.391-.018-.853.367-1.978.856-2.5 1.388-1.486 2.501-5.808 1.305-5.069-.562.347-1.227.066-1.477-.625-.362-1-.905-.99-2.664.051-1.705 1.01-2.533 1.039-3.63.128-1.129-.936-1.422-.849-1.422.423m-48.5 8.178c-1.65.756-2.452 1.394-1.781 1.419.686.025.957.725.621 1.602-.329.857-1.215 1.321-1.969 1.032-1.803-.692-4.511.376-3.813 1.504.3.486-.107.634-.905.327-.798-.306-1.766-.046-2.152.579-.44.712-.051 1.017 1.045.818.961-.174 1.943.246 2.184.933.24.688-.051 1.25-.647 1.25s-1.083.675-1.083 1.5.675 1.5 1.5 1.5 1.5-.498 1.5-1.107.662-.853 1.471-.542c.809.31 2.127-.092 2.929-.893 1.276-1.277 1.643-1.272 2.957.042 1.603 1.603 4.435 1.936 6.259.735 1.31-.862 2.44-12.235 1.216-12.235-.457 0-.868 1.012-.911 2.25-.053 1.503-.268 1.752-.65.75-1.213-3.187-3.194-3.56-7.771-1.464m13.5 69.443c-1.264.799-1.515 4.88-1.594 25.902l-.094 24.954 6.3 1.583c7.615 1.912 17.744 2.088 19.127.332.654-.83.535-3.265-.352-7.25-1.625-7.302-6.808-31.888-8.354-39.627-1.087-5.442-1.245-5.646-4.828-6.238-5.229-.865-8.466-.756-10.205.344m25.107 12.674c.95 7.066 2.211 15.997 2.802 19.847.592 3.85 1.417 9.925 1.834 13.5.706 6.065.935 6.521 3.412 6.807 3.026.35 2.658 1.518 7.345-23.307 1.454-7.7 3.265-17.134 4.024-20.965.759-3.831 1.289-7.043 1.178-7.138-.111-.096-5.179-.493-11.262-.882l-11.059-.709 1.726 12.847m25.964-4.434c-.597 2.905-2.924 13.734-5.172 24.065-2.248 10.331-3.859 19.377-3.581 20.102.352.919 3.866 1.531 11.593 2.02 6.098.386 13.382 1.383 16.187 2.216 2.805.833 5.32 1.293 5.589 1.024.824-.823 2.244-8.08 3.887-19.863.861-6.172 2.373-15.162 3.361-19.978 1.644-8.013 1.659-8.799.181-9.268-1.349-.427-14.69-2.858-27.787-5.064-3.13-.527-3.186-.465-4.258 4.746m-53.391 47.604c-2.851.549-1.856 1.843 1.57 2.043 8.502.498 10.148.916 10.833 2.751.642 1.721.762 1.736 1.399.179.944-2.31 15.018-2.072 15.018.254 0 .86-.755 1.321-1.856 1.132-1.186-.203-1.69.158-1.396 1 .253.725 1.2 1.186 2.106 1.024.905-.161 1.646.176 1.646.75 0 .574.436 1.044.969 1.044.532 0 .749-.573.48-1.272-.269-.7.275-2.214 1.208-3.364l1.697-2.091 3.336 3.036c2.902 2.641 3.267 3.501 2.805 6.613-.438 2.948-.358 3.182.455 1.328.542-1.238 1.661-2.25 2.486-2.25.894 0 1.278-.581.95-1.436-.438-1.141.029-1.274 2.282-.649 2.035.565 3.535.308 5.332-.913 4.889-3.321 6.944-3.187 8.734.567.895 1.876 2.558 3.701 3.696 4.056 1.139.354 2.401 1.146 2.805 1.76.455.691.74.433.75-.679.023-2.693 3.274-1.687 4.872 1.507 1.229 2.457 1.135 2.993-1 5.694-1.296 1.64-3.032 3.021-3.857 3.068-1.168.067-1.1.318.304 1.135 5.359 3.118 13.199-14.958 8.264-19.053-1.185-.984-1.486-.632-1.75 2.05-.445 4.533-2.494 4.791-3.009.379-.276-2.359.047-3.866.934-4.362 4.713-2.637-18.675-5.109-51.422-5.435-10.429-.104-19.717-.044-20.641.134m-39.158 1.09c-1.919.75-1.911.809.263 1.972 2.278 1.219 1.627 5.115-.855 5.115-.648 0-.628-.697.057-1.975 1.839-3.438-3.263-3.873-7.256-.62a633.316 633.316 0 01-7.349 5.864c-5.609 4.401-8.116 8.721-5.971 10.289.857.627 1.265 1.433.907 1.791-.358.358-.126.651.515.651.676 0 1.167 1.533 1.167 3.64 0 3.883 2.045 6.272 5.417 6.328 1.054.018 1.661-.223 1.349-.535-2.121-2.122 2.925-10.335 6.39-10.401 1.192-.023 1.519-.663 1.164-2.282-.35-1.593-.219-1.863.448-.926.768 1.081 1.231 1.035 2.515-.25.866-.866 2.281-1.574 3.146-1.574 1.682 0 2.168-2.513.665-3.442-1.857-1.148 1.271-5.651 3.542-5.098 2.475.604 4.64-1.544 5.112-5.071.286-2.128-.065-2.389-3.214-2.389-1.944 0-3.534.436-3.534.969 0 .532-.705.698-1.567.367-1.806-.693-.836-1.925 2.067-2.623 1.609-.387 1.511-.49-.5-.527-1.375-.025-3.39.302-4.478.727m109.769 40.338c-4.891 9.649-7.813 13.986-13.768 20.431l-7.559 8.181 1.307 5.819 1.307 5.818 6.032-.086c3.318-.048 11.004-.887 17.08-1.864l11.048-1.778-2.237-10.636c-1.23-5.85-3.007-15.361-3.948-21.136-3.133-19.213-2.178-18.723-9.262-4.749m18.103 9.499c.313 2.063 1.062 7.556 1.664 12.208.602 4.652 1.526 9.264 2.053 10.25 1.088 2.032 6.055 2.527 5.437.542-3.687-11.826-8.83-26.75-9.219-26.75-.278 0-.249 1.688.065 3.75m-132.726 7.378c-5.216 8.045-17.522 50.003-18 61.372l-.168 4 4-.253c2.2-.14 10.975-1.174 19.5-2.299s17.204-2.19 19.287-2.367c2.083-.177 3.94-.493 4.127-.701.494-.552-1.967-18.591-4.3-31.516-1.105-6.125-2.315-14.498-2.687-18.607l-.677-7.471-5.196-1.637c-9.785-3.085-14.131-3.227-15.886-.521m29.781 25.728c.417 11.354 1.049 23.119 1.404 26.144l.647 5.5 8.5-.265c14.167-.44 13.195.643 14.471-16.128.476-6.255 1.785-9.363 5.513-13.091 1.017-1.017 3.385-4.965 5.261-8.773l3.41-6.923-10.077-1.195c-5.543-.657-14.535-2.256-19.982-3.554l-9.905-2.359.758 20.644M180.123 432c-4.096.468-4.492.788-6.194 5-3.076 7.616-2.86 8 4.512 8 7.646 0 7.67-.028 6.766-7.586l-.707-5.914-4.377.5M.478 582c0 47.025.122 66.263.272 42.75.149-23.512.149-61.987 0-85.5C.6 515.738.478 534.975.478 582" fill="#d3d3d3" fill-rule="evenodd"/></svg>