<svg xmlns="http://www.w3.org/2000/svg" width="500" height="355"><path d="M0 46.984V94h2.594c1.752 0 2.763-.649 3.116-2 .808-3.088 40.27-3.071 46.33.02L56 94.041l.015-11.771c.023-18.005 1.942-78.549 2.551-80.473C59.065.221 56.912.09 29.552.031L0-.033v47.017M113.359 4.25c.313 2.338.582 8.3.599 13.25l.03 9 2.466-5.926c1.356-3.259 3.863-8.174 5.571-10.921C126.59 2.309 125.717 0 118.376 0h-5.586l.569 4.25m262.098 3.5c1.188 18.272 1.556 32.594 1.593 62 .025 20.043.396 31.25 1.034 31.25 1.513 0 9.155-3.998 11.416-5.972 1.1-.961 10.509-6.109 20.908-11.441 18.708-9.592 19.581-9.855 20.845-6.28.622 1.76 3.79-.694 4.517-3.497C436.812 69.785 457 58.422 457 61.86c0 2.593.95 3.113 3.75 2.055 1.656-.626 2.25-1.656 2.25-3.904 0-2.287.628-3.34 2.5-4.193 3.879-1.767 3.001-3.149-1.609-2.53l-4.109.551.609-3.045c.335-1.674.609-4.083.609-5.353 0-1.75.664-2.409 2.75-2.725l2.75-.416-2.703-.15c-2.608-.145-2.686-.317-2.235-4.9C462.323 29.53 464 5.832 464 2.8V0h-22.5C422.755 0 419 .236 419 1.417c0 .779.563 1.643 1.25 1.921.688.277-.55.478-2.75.447-2.2-.032-2.988-.252-1.75-.491 1.238-.238 2.25-1.077 2.25-1.864C418 .234 414.477 0 396.477 0h-21.524l.504 7.75M313 6c-.825.533-1.05.99-.5 1.015.55.025.175.526-.834 1.112-1.779 1.035-1.667 5.483.173 6.863.906.679 5.161 11.215 5.161 12.779 0 .677.45 1.231 1 1.231.585 0 1.005-3.424 1.011-8.25.006-4.538.29-9.937.631-12 .597-3.611.513-3.749-2.261-3.735-1.585.009-3.556.452-4.381.985m160 25.437v9.436l-3.25.404-3.25.403 3.25.16c3.023.149 3.25.407 3.25 3.691 0 4.452 1.489 5.024 6.471 2.484L483.423 46l-2.962-.079c-1.628-.043-2.398-.306-1.711-.583.688-.278 1.25-1.142 1.25-1.921 0-.78.9-1.417 2-1.417 1.372 0 2 .667 2 2.122 0 1.774.247 1.918 1.5.878 1.267-1.052 1.5-.847 1.5 1.319 0 3.264 1.356 4.091 4.229 2.578 2.863-1.508 3.736-2.816 3.756-5.624.008-1.26 1.1-2.938 2.515-3.865 4.007-2.626 3.073-3.754-2.554-3.088-4.684.555-5.01.456-4.436-1.352.341-1.072.351-2.384.023-2.915-.975-1.578-3.533-.002-3.533 2.176 0 1.679-.251 1.808-1.5.771-1.279-1.061-1.5-.785-1.5 1.878 0 2.881-.261 3.122-3.383 3.122-2.897 0-3.46-.396-3.912-2.75-.29-1.513-.062-3.312.506-4 .754-.911.594-1.25-.589-1.25-1.28 0-1.622-1.055-1.622-5 0-2.75-.45-5-1-5-.596 0-1 3.812-1 9.437M173.806 54c.239 3.3.04 6-.443 6s-.716-2.025-.52-4.5c.382-4.792-.977-5.987-2.843-2.5-.589 1.1-1.73 2-2.535 2-1.091 0-1.465 1.276-1.465 5 0 5.197-.376 5.554-5.303 5.043-1.613-.167-1.795.689-1.726 8.135.043 4.577-.3 14.397-.761 21.822-.462 7.425-.771 18.667-.687 24.981l.152 11.482 3.367.273c1.852.15 3.815.721 4.362 1.268 1.564 1.564 5.596 1.2 5.596-.504 0-.825.698-1.5 1.55-1.5 1.369 0 1.527-3.361 1.351-28.75-.109-15.812-.549-29.983-.978-31.491-.592-2.084-.376-2.966.899-3.683 1.545-.867 1.548-.992.039-1.573-1.682-.648-1.463-4.503.256-4.503.485 0 .883-2.925.883-6.5s-.366-6.5-.814-6.5c-.447 0-.618 2.7-.38 6m85.814 2.06c-1.02 2.045-1.187 3.926-.585 6.595.463 2.054.547 4.209.185 4.79-1.699 2.729-1.767 32.594-.076 33.665 1.812 1.148 2.856 1.108 2.856-.11 0-.55.649-1 1.443-1 1.062 0 1.353.991 1.102 3.75a143.076 143.076 0 00-.444 7.059c-.063 2.073-.5 3.062-1.169 2.649-.588-.363-.814-1.322-.504-2.132.311-.809.07-2.396-.535-3.526-.843-1.575-.784-2.255.254-2.912.744-.471.903-.899.353-.949-.55-.051-1.724-.233-2.608-.406-1.683-.329-2.892 9.543-2.892 23.621V133l4.75.032c2.613.017 5.6.675 6.638 1.461 1.25.946 2.451 1.128 3.554.538 1.74-.931 1.697 1.463 1.118-63.281-.058-6.473-.16-6.75-2.501-6.75-1.343 0-2.707-.43-3.032-.956-.325-.526-1.235-.709-2.023-.407-1.169.448-1.324-.359-.846-4.395.525-4.434.369-5.002-1.513-5.494-1.594-.417-2.441.139-3.525 2.312M73.682 104.412c1.199.883 2.38 2.614 2.623 3.847l.441 2.241.78-2.388.779-2.387 12.598.67c16.568.881 18.647 1.287 18.827 3.677.128 1.699-.591 1.944-6.042 2.064-6.963.153-5.702.47 5.562 1.397 6.573.541 7.75.912 7.75 2.445 0 2.368 2.531 3.292 4.039 1.475 2.079-2.506.358-4.453-3.938-4.453-3.9 0-3.949-.045-3.125-2.915.974-3.398.345-3.66-9.584-3.991-7.324-.244-24.509-1.804-29.392-2.669-3.407-.602-3.442-.576-1.318.987m-2.464 37.825c-.698.841-1.357 11.407-1.81 29.007-.821 31.867-.926 31.382 6.535 30.209 2.506-.394 6.425-.828 8.708-.963 8.243-.489 9.015-1.953 9.744-18.487.351-7.977.902-18.778 1.224-24.003l.585-9.5-10.852-3.467a2181.568 2181.568 0 00-11.944-3.793c-.601-.179-1.586.27-2.19.997m291.565-.554c-1.4.368-1.504.79-.565 2.295.868 1.39.869 2.79.003 5.683-.631 2.111-1.453 6.439-1.825 9.617-1.069 9.113-2.504 8.551-3.871-1.516-.354-2.606-1.18-5.306-1.834-6-2.072-2.195-1.782-5.406.595-6.606 2.083-1.052 2.037-1.105-.786-.887l-3 .231.387 32c.213 17.6.776 32.15 1.25 32.333.475.184.863 1.207.863 2.275 0 2.133 3.249 3.775 9.117 4.607 3.459.49 3.643.365 4.204-2.851.878-5.038 1.064-68.092.207-70.114-.741-1.747-1.504-1.918-4.745-1.067M151.63 160.681c-.333 10.35-.887 30.407-1.231 44.569l-.625 25.75h133.927l.726-43.59c.4-23.974.58-43.715.4-43.868-.18-.153-30.086-.594-66.459-.979l-66.132-.701-.606 18.819M333.182 146c-.108 1.925-.479 6.498-.826 10.163-.611 6.469-.56 6.672 1.758 7 1.755.248 2.47 1.065 2.702 3.087.322 2.795 2.58 3.778 3.445 1.5.94-2.476.834-19.75-.121-19.75-.529 0-2.105 1.358-3.501 3.017l-2.538 3.017-.362-5.767c-.198-3.172-.449-4.192-.557-2.267m-227.231 9.75c-.027 3.713-.44 22.95-.918 42.75-.477 19.8-.615 39.691-.305 44.201l.562 8.201 4.39.299 4.389.299-8.271 5.972c-4.55 3.285-16.597 11.722-26.772 18.75L60.525 289H45v6.296l-22.5-.693L0 293.91v61.095l195.667-.252c143.609-.186 195.766-.552 196.041-1.376.445-1.335-3.897-2.682-4.672-1.45-.295.468-1.116.226-1.825-.538-1.058-1.139-1.03-1.389.156-1.389.958 0 1.268-.681.917-2.021-.376-1.439-.874-1.734-1.73-1.024-1.526 1.267-3.618-.623-2.865-2.588.359-.935.031-1.197-1.003-.8-1.232.473-1.44-.019-1.051-2.489.315-1.997.064-3.078-.715-3.078-2.275 0-3.838-3.225-2.306-4.757.754-.754 1.854-1.072 2.445-.706.642.396.947-.04.758-1.083-.174-.961.246-1.943.934-2.184.797-.279 1.03.137.643 1.146-.335.871-.11 1.584.499 1.584s1.107-.45 1.107-1c0-1.494 1.649-1.208 3.456.599 1.143 1.143 1.958 1.302 2.855.558 1.511-1.254 3.073-.364 4.066 2.315.532 1.436.942 1.63 1.507.716.898-1.453 4.195-.537 5.427 1.508.447.74 1.237 1.083 1.758.762.52-.322 1.189.052 1.488.83.338.88 1.566 1.277 3.243 1.05 2.334-.316 2.429-.238.7.578-1.726.814-1.76.953-.25 1.014.962.038 1.75.49 1.75 1.003 0 .513.824 1.194 1.83 1.513 1.007.32 4.197 2.827 7.09 5.571 5.864 5.564 7.575 6.246 14.539 5.795l4.826-.312-6.392-4.962c-3.516-2.729-19.186-15.104-34.822-27.5l-28.43-22.538 5.43-.243c2.986-.134 7.342-.499 9.679-.811l4.25-.569v-10.164l-7.148.664c-5.439.506-7.532.331-8.75-.731-.881-.768-10.602-7.415-21.602-14.771l-20-13.375 5-.5 5-.5.048-37.859c.051-40.408-.119-41.748-4.634-36.542-1.921 2.215-1.933 2.372-.22 3.048 1.673.66 1.677.718.056.783-1.807.072-2.531 2.07-.75 2.07.55 0 1 .47 1 1.044 0 .574-.562.971-1.25.881-.687-.089-2.15-.094-3.25-.012-1.974.149-1.975.17-.059 1.619 1.892 1.431 1.884 1.468-.309 1.468-1.237 0-1.989-.423-1.669-.939.319-.517-.295-.874-1.364-.794-1.069.081-1.971.841-2.004 1.69-.034.849-.099 3.006-.145 4.793-.046 1.787-.519 3.25-1.052 3.25-.598 0-.924 8.316-.854 21.75l.115 21.75-5.255.308c-4.008.236-5.889-.16-7.93-1.669-2.612-1.931-4.797-1.983-93.26-2.234-68.304-.193-90.935.033-92.004.92-.91.756-3.08.949-6.064.54l-4.646-.637.015-26.614c.009-14.739.39-26.023.855-25.29.676 1.066 1.168.995 2.529-.366 2.137-2.137 1.542-3.982-1.25-3.879-2.065.077-2.149-.324-2.149-10.263 0-5.689-.45-11.237-1-12.33-.55-1.092-1.486-2.937-2.079-4.099-.594-1.163-1.261-3.075-1.483-4.25-1.884-9.963-3.418-10.354-3.487-.887m315.064 59.025c.028 4.974-.576 4.68 17.985 8.738 6.325 1.383 14.2 3.172 17.5 3.977 5.957 1.451 13.866 2.867 22.5 4.028 4.41.592 15.742 2.996 19.3 4.093 1.622.501 1.77-.069 1.5-5.778l-.3-6.333-8.5-1.174a3049.383 3049.383 0 00-20.671-2.751c-12.864-1.667-15.369-2.271-16.579-4.002-.527-.755-.973-.733-1.5.073-.67 1.024-13.97-.418-28.5-3.09-2.453-.451-2.748-.212-2.735 2.219m-89.431 74.089c-.293.475 1.818 1.142 4.691 1.482 2.874.34 5.675 1.207 6.225 1.927.627.821 3.794 1.415 8.49 1.594 4.119.157 8.067.766 8.774 1.352 1.556 1.292 1.889 1.012 2.716-2.283.527-2.102.176-2.772-1.966-3.748-3.028-1.379-28.104-1.661-28.93-.324" fill="#d3d3d3" fill-rule="evenodd"/></svg>