<svg xmlns="http://www.w3.org/2000/svg" width="500" height="500"><path d="M251.5 290.074c-2.2.353-3.186.706-2.191.784.995.078 1.557.549 1.25 1.047-.308.497-2.428.654-4.712.348-3.259-.438-3.979-.276-3.346.749.516.835.416 1.064-.277.636-1.343-.83-2.583.972-1.677 2.437.427.692 1.327.365 2.52-.916 1.282-1.377 2.562-1.799 4.144-1.366 1.858.508 1.957.695.527.992-.969.202-1.462.852-1.096 1.445.371.6.204.793-.374.436-.573-.354-1.572-.004-2.221.778-1.389 1.674-5.047 1.649-5.047-.034 0-.641-.696-1.743-1.547-2.449-1.236-1.026-1.287-1.45-.25-2.107 1.059-.673 1.057-.826-.012-.839-.72-.008-1.031-.465-.691-1.015.34-.55.19-1-.334-1-1.579 0-2.329 3.28-.95 4.155.889.564.612.819-.899.83-1.301.009-2.441.829-2.822 2.03-.351 1.108-1.057 1.756-1.567 1.441-.51-.316-.928.128-.928.985s-.562 1.566-1.25 1.574c-.833.011-.75.339.25.985 1.207.78 1.049.972-.809.985-1.288.008-2.036-.427-1.691-.985.34-.55-.084-1-.941-1s-1.559.436-1.559.969c0 .532-.749.681-1.664.33-1.036-.398-1.418-.241-1.011.417.694 1.123-2.501 2.314-5.825 2.171-1.606-.069-1.509-.223.495-.781 1.372-.381 2.65-1.574 2.84-2.65.337-1.915.314-1.916-1.093-.053-.791 1.046-1.906 1.614-2.477 1.261-.571-.353-1.558-.016-2.193.75-.883 1.063-.851 1.514.136 1.91.935.375.877.542-.208.603-.825.047-.211.758 1.364 1.579 3.613 1.884 3.994 1.871 3.232-.117-.507-1.321-.138-1.491 2.048-.942 1.591.399 2.945.218 3.357-.449.381-.615 2.334-1.204 4.341-1.308 3.144-.164 3.663-.536 3.753-2.69l.104-2.5.801 2.5c.759 2.369.806 2.329.9-.75.055-1.788.577-3.25 1.159-3.25.582 0 .781.45.441 1-.386.624 1.629 1 5.358 1 3.286 0 6.129-.46 6.316-1.022.187-.562 1.656-1.261 3.263-1.552 3.972-.721 5.038-1.511 3.42-2.536-.991-.628-.75-.864.893-.875 1.238-.008 2.251-.352 2.252-.765.001-.413 1.649-.868 3.662-1.012 3.53-.253 6.915-1.992 5.884-3.023-.275-.275-1.108.005-1.852.622-.834.692-2.471.83-4.274.358-1.607-.42-4.722-.474-6.922-.121m-217.956 2.898c-1.941.693-1.941.707 0 1.833 1.482.859 1.58 1.142.406 1.165-.852.016-2.109-.529-2.792-1.212-.988-.988-1.425-.943-2.145.221-.497.805-1.225 1.143-1.617.751-1.084-1.085-3.396 1.264-3.396 3.451 0 1.066-.45 1.659-1 1.319-.567-.351-1 .49-1 1.941 0 1.407-.476 2.446-1.058 2.309-.583-.137-1.661 1.456-2.397 3.541l-1.337 3.79 4.646-.151c6.829-.221 8.02-.697 7.427-2.965-.285-1.087-.015-1.965.602-1.965.615 0 1.064.337.999.75-.359 2.269.277 3.403 1.618 2.888.825-.316 1.5-.153 1.5.362s.675.678 1.5.362c.825-.317 1.5-.051 1.5.59s-.419.907-.932.59c-.513-.317-1.075.665-1.25 2.182-.211 1.833-.989 2.876-2.318 3.107l-2 .349 2-1.558c2.226-1.734 2.16-1.81-1.779-2.048-1.798-.108-2.617.255-2.319 1.031.637 1.661-2.704 2.368-4.105.868-.781-.836-.819-1.551-.121-2.249.699-.699-.12-1.024-2.576-1.024-1.98 0-3.6.405-3.6.9s.489.9 1.086.9c.597 0-.536 1.575-2.518 3.5-1.983 1.925-4.384 3.507-5.336 3.515-.953.009-2.367.417-3.143.909-.861.545-2.086.471-3.145-.191-1.328-.83-2.116-.704-3.354.534-1.491 1.491-1.479 1.699.146 2.645.97.565 1.202 1.041.514 1.058-.687.016-1.25.48-1.25 1.03s.523.888 1.161.75c.639-.137 1.494.875 1.901 2.25l.739 2.5.257-2.5c.141-1.375.236-3.062.211-3.75-.043-1.145 3.189-1.774 6.631-1.29 2.262.318 4.654 3.04 2.671 3.04-.864 0-1.571.408-1.571.906 0 .499.9.671 2 .384 2.296-.601 2.5-1.39.8-3.09-.876-.876-.889-1.2-.05-1.2.633 0 1.609.788 2.17 1.75.904 1.552 1.023 1.564 1.05.107.035-1.891 2.676-3.238 3.557-1.813.325.526.129.956-.437.956-.565 0-.768.675-.452 1.5.317.825 1.278 1.5 2.136 1.5.857 0 1.266.293.908.652-1.008 1.007 4.229 3.362 7.182 3.23 2.553-.115 2.542-.139-.364-.772-1.816-.395-2.542-.941-1.84-1.384.638-.403 1.988-.419 3-.035 2.396.908 4.566 3.07 3.598 3.584-1.51.803-15.733.698-14.48-.107 1.239-.796-2.375-3.168-4.825-3.168-1.506 0-1.109 3.626.547 5 1.242 1.031 1.503.923 1.515-.628.013-1.569.169-1.629.964-.372 1.53 2.421 17.773 2.809 18.68.447.449-1.17-.051-2.346-1.492-3.513-2.112-1.71-3.072-3.611-1.257-2.49 1.169.723 4.09-.385 4.09-1.551 0-.491-.337-.822-.75-.734-1.913.405-4.409-1.443-3.084-2.283 1.08-.684 1.085-.848.025-.861-.72-.008-1.014-.492-.654-1.075.431-.697 1.05-.561 1.809.398.787.994 1.791 1.194 3.154.63 1.835-.759 1.794-.84-.5-.977-1.375-.082-1.935-.377-1.244-.655.691-.279.937-1.024.546-1.657s-.58-2.67-.42-4.527c.19-2.212-.08-3.148-.784-2.712-.664.41-.847.07-.48-.888.328-.854.907-1.552 1.288-1.552.38 0 .67-3.15.643-6.999-.027-3.85.226-7 .562-7 .337-.001.403-1.094.147-2.43-.316-1.656-.941-2.246-1.962-1.854-.824.316-1.79.12-2.147-.435-.357-.555-1.529-.695-2.605-.31m284.599 1.778c-1.339 1.238-2.851 2.25-3.36 2.25-.509 0-1.518.563-2.243 1.25-4.582 4.349-16.187 11.793-24.04 15.419-3.3 1.524-6.337 2.934-6.75 3.134-.413.2-.75-.349-.75-1.22s.689-1.583 1.531-1.583c.843 0 1.78-.647 2.083-1.437.303-.79 1.156-1.205 1.896-.921.938.36 1.186-.088.82-1.487-.453-1.733.115-2.099 4.207-2.713 2.601-.39 5.621-1.6 6.71-2.689 1.974-1.974 1.972-1.988-.383-4.323-2.336-2.316-2.423-2.324-7.364-.706-2.75.901-5.15 2.006-5.333 2.457-.184.45-1.476.819-2.873.819-2.143 0-2.345-.234-1.294-1.5.785-.946.852-1.5.181-1.5-2.396 0-3.728 5.731-1.681 7.235.55.404.014.741-1.191.75-1.205.008-2.469.465-2.809 1.015-.34.55-.181 1 .352 1 1.344 0 .741 3.302-.689 3.779-.64.213-1.163-.155-1.163-.818 0-.909-.338-.925-1.373-.066-.756.627-2.058.877-2.894.556-1.018-.39-2.026.431-3.05 2.483-1.753 3.513-.946 4.022 1.621 1.023 1.644-1.919 4.371-1.858 3.178.073-.303.49 1.062.764 3.034.609 4.748-.374 5.17.663 1.066 2.621-2.322 1.107-3.651 1.271-4.38.542-.73-.73-1.857-.238-3.717 1.622l-2.669 2.669-1.878-2.165c-2.15-2.478-4.852-1.975-5.643 1.052-.505 1.931-.549 1.928-2.216-.131-1.511-1.866-1.947-1.949-3.89-.735-2.684 1.676-2.745 2.522-.291 4.054 2.43 1.518.756 4.816-2.069 4.077-1.413-.37-1.705-.085-1.217 1.186.678 1.768-2.681 1.915-5.362.235-.687-.431-1.25-.345-1.25.192 0 .536.563 1.24 1.25 1.563.688.324-.054.411-1.648.194-1.594-.217-4.294.214-6 .956l-3.102 1.351 2.964.039c2.775.036 2.857.147 1.287 1.716-1.392 1.393-2.116 1.478-4.261.5-1.421-.647-3.8-1.125-5.287-1.061-1.529.066-1.98.308-1.038.557 1.863.493 3.349 3.327 1.745 3.327-.566 0-.75.45-.41 1s.168 1-.382 1c-1.578 0-2.266-1.782-.874-2.265.691-.239-.286-.781-2.171-1.203-2.596-.582-3.702-.393-4.562.783-.624.854-2.457 1.882-4.073 2.284-1.616.402-4.414 1.557-6.218 2.566-1.805 1.009-4.644 1.835-6.309 1.835-1.765 0-2.771.417-2.411 1 .357.577-.57.994-2.191.985-1.545-.009-2.359-.346-1.809-.75 1.621-1.192 1.621-3.225 0-3.36-.825-.069-2.062-.181-2.75-.25-2.019-.202-1.557-2.96.868-5.182 1.727-1.583 3.125-1.94 6.063-1.548l3.819.509-3.5.618-3.5.619 3.5.57c4.934.805 9 .714 9-.2 0-.428 1.012-1.044 2.25-1.37l2.25-.592-2.335-1.64c-1.864-1.311-3.978-1.543-10.5-1.154-4.491.268-7.602.283-6.915.033.688-.25 1.25-.894 1.25-1.43 0-.537-.526-.651-1.17-.253-.787.486-.961.178-.531-.941.417-1.087.129-1.664-.83-1.664-.808 0-1.356.544-1.219 1.209.251 1.214-1.525 1.606-8.5 1.88-3.617.142-5.088 1.966-2.75 3.411 2.418 1.494-2.926 5.639-6.553 5.082-1.071-.164-2.278.2-2.682.81-.424.64-.741.159-.75-1.142-.01-1.578-.612-2.25-2.015-2.25-1.1 0-2-.354-2-.787 0-.433-1.006-.863-2.235-.956-1.23-.092-2.376-.59-2.548-1.106-.172-.516-1.21-.704-2.308-.417-1.336.35-1.898.075-1.702-.832.164-.758-.699-1.506-1.957-1.698-1.238-.189-2.25-.734-2.25-1.212 0-1.319-8.512-2.316-10.636-1.245-1.025.516-2.989.644-4.364.284l-2.5-.655 3-.851c1.65-.468 3.563-.758 4.25-.644.688.114 1.25-.426 1.25-1.198 0-.981.8-1.253 2.649-.899 1.828.349 2.429.151 1.941-.639-.39-.63-1.581-1.145-2.649-1.145s-1.941-.417-1.941-.927c0-.509-.787-1.132-1.75-1.384-1.667-.435-1.667-.463 0-.573 1.354-.09 1.777-1.079 1.868-4.366.107-3.837.182-3.958.772-1.25.433 1.993.917 2.58 1.44 1.75.434-.687.521-1.25.194-1.25s-.129-.869.439-1.931c.823-1.538.678-2.018-.715-2.359-.961-.236.502-.248 3.252-.028 3.656.293 4.566.128 3.386-.614-.888-.559-2.913-1.013-4.5-1.01-7.298.013-19.538.761-19.999 1.222-.858.858-.941 10.704-.093 10.986.437.145.873 1.3.968 2.567.125 1.657.955 2.46 2.956 2.861 1.53.306 2.782 1.175 2.782 1.931s.9 1.375 2 1.375 2 .45 2 1-.498 1-1.107 1-.848.675-.531 1.5c.316.825.139 1.5-.393 1.5-.533 0-.976.788-.984 1.75-.012 1.358-.207 1.447-.872.398-.95-1.499-4.113 2.073-4.113 4.646 0 1.003-.429.92-1.672-.323-1.223-1.223-2.658-1.514-5.346-1.084-2.021.323-3.982.28-4.357-.095-1.071-1.071-3.625-1.214-3.625-.204 0 .502-.787.905-1.75.897-1.496-.013-1.532-.157-.25-.985 1.213-.784 1.069-.972-.75-.985-1.237-.008-2.25.435-2.25.985s-.477 1-1.059 1-.781-.45-.441-1c.771-1.247-2.495-1.289-4.442-.057-.991.627-1.827.387-2.669-.763-.674-.922-1.541-1.361-1.926-.976-.386.385.027 1.429.918 2.32 2.025 2.025 2.072 2.864.119 2.114-.825-.316-1.5-.161-1.5.346 0 .509-2.409.698-5.384.424-3.637-.336-5.827-.078-6.75.797-.751.712-3.391 1.346-5.866 1.408-2.475.063-5.361.477-6.414.92-1.426.601-1.713.481-1.125-.47.588-.951.234-1.101-1.384-.588-1.195.38-2.714.265-3.375-.254-2.297-1.806-6.842-2.349-8.485-1.014-1.365 1.109-1.495 1.035-.911-.522.553-1.474.306-1.697-1.313-1.183-1.809.574-1.899.38-.966-2.073 1.116-2.936.746-4.025-1.001-2.945-.609.376-.834 1.546-.499 2.6.732 2.309-1.32 2.619-2.198.332-.488-1.272-.769-1.321-1.432-.25-.537.87-.247 1.536.835 1.916 1.112.39.105 1.041-3.051 1.972-3.878 1.145-4.354 1.523-2.694 2.137 1.108.41 2.764.458 3.678.107 1.118-.429 1.426-.254.94.532-.398.644-.22 1.17.395 1.17s.869.403.565.895c-.809 1.308 1.288 1.775 6.896 1.535 4.459-.191 4.769-.071 3.059 1.179-1.046.765-2.743 1.391-3.77 1.391-1.027 0-1.59.45-1.25 1 .34.55-.11 1-1 1s-1.34.45-1 1c.361.583-.656 1-2.441 1-1.682 0-3.059.48-3.059 1.067s.788.846 1.75.575c4.775-1.344 8.708-1.734 7.25-.718-.825.575-2.261 1.052-3.191 1.061-.93.008-1.953.438-2.272.956-.341.552.977.755 3.191.491 2.074-.248 3.207-.183 2.516.144-.691.327-1.022.974-.736 1.437.287.464-.385 1.131-1.493 1.482-1.108.352-2.015 1.149-2.015 1.772 0 .806-.346.787-1.2-.067-.66-.66-2.347-1.207-3.75-1.215-1.939-.012-2.202-.236-1.098-.934.799-.506 1.78-.716 2.181-.469.401.248 1.011-.007 1.357-.566.345-.559-.272-1.016-1.372-1.016s-2.245.396-2.544.881c-.744 1.203-5.574 2.053-5.574.98 0-.473.788-.893 1.75-.931 2.967-.119-1.691-1.753-5.75-2.017-3.083-.2-2.904-.31 1.5-.921 4.141-.576 4.604-.829 2.693-1.475-1.295-.438-2.09-1.344-1.813-2.066.616-1.604-.945-2.216-7.618-2.985a971.875 971.875 0 0 1-8.262-.987c-1.65-.21-8.287-.675-14.75-1.035L0 353.79v4.522c0 2.681.509 4.727 1.25 5.026 1 .403 1 .52 0 .583C.563 363.964 0 364.9 0 366c0 1.776.7 2.011 6.25 2.1 4.416.07 5.516.317 3.75.841-1.375.408-4.187.567-6.25.355-2.188-.226-3.75.049-3.75.659C0 370.566 2.493 371 6 371c3.314 0 6 .445 6 .995 0 .556-2.444.939-5.534.868-6.259-.144-6.906.176-6.016 2.98.529 1.666 1.107 1.858 3.516 1.167 1.586-.455 3.142-.568 3.459-.252.316.316.582-.062.59-.841.012-1.038.22-1.095.781-.213.421.662 2.439 1.317 4.485 1.454 3.452.233 5.292 1.693 2.469 1.96-4.011.381-7.747.622-11.497.744L.007 380l.106 7c.069 4.501.514 7.005 1.247 7.015.775.011.744.267-.096.801-.932.591-1.202 6.683-1.097 24.734.137 23.574.426 27.727 1.777 25.54.916-1.481 9.596-2.997 11.229-1.962 1.08.685 1.083.844.018.857-.72.008-1.031.465-.691 1.015.34.55.029 1.007-.691 1.015-.962.012-.912.298.191 1.081 1.116.793.426.916-2.696.482C1.239 446.455 0 447.905 0 458.461c0 5.775.442 9.581 1.2 10.339.933.933.933 1.2 0 1.2-.88 0-1.2 4-1.2 15v15h481.519l1.49-2.25c.82-1.238 1.797-2.925 2.171-3.75.497-1.096.698-.91.75.691.081 2.548 2.242 4.292 2.894 2.337.308-.924 1.012-.598 2.32 1.073l1.878 2.399 2.489-2.806c1.609-1.814 2.489-4.002 2.489-6.191 0-6.197 1.892-4.759 2.259 1.718.196 3.453.442-.61.548-9.03.126-9.999-.154-15.095-.807-14.691-.55.34-1 .169-1-.379 0-1.233-4.05-1.107-5.75.178-.687.52-1.25 1.989-1.25 3.264 0 1.276-.45 2.597-1 2.937-1.718 1.062-1.101 2.258 1.5 2.911 3.041.763 3.224 2.656.426 4.403-1.14.712-2.716 2.831-3.5 4.709-.906 2.169-1.926 3.222-2.797 2.888-.754-.289-1.723.287-2.153 1.282-.613 1.414-.954.937-1.572-2.193-1.161-5.886-1.106-15.367.078-13.5.676 1.067.925.178.861-3.074-.105-5.361.914-9.194 2.229-8.382.51.316.928.141.928-.387 0-1.699 6.246-3.371 7.168-1.919.578.91.806.775.817-.488.008-.962.427-1.75.932-1.75.504 0 1.34-1.238 1.857-2.75.856-2.501 1.038-2.161 2.013 3.75 1.043 6.32 1.067 6.173.881-5.294-.139-8.528-.558-12.02-1.514-12.611-1.068-.66-1.036-.926.163-1.386 1.286-.494 1.473-7.086 1.397-49.39-.048-26.85-.261-48.031-.474-47.069-.213.962-1.141 1.743-2.063 1.735-1.16-.011-1.306-.252-.473-.781 2.002-1.272 1.139-5.191-1.167-5.304-1.731-.084-1.662-.219.463-.9 1.375-.44 1.825-.89 1-1-.825-.11-.375-.56 1-1 2.124-.68 2.199-.826.5-.971l-2-.17 2-.859c1.772-.762 1.687-.867-.75-.93-1.512-.038-2.75-.547-2.75-1.129s.412-.805.915-.494c.503.311 1.142 0 1.421-.691.402-.998.522-.999.585-.006.043.688.487 1.25.985 1.25.499 0 .68-.869.402-1.931-.3-1.148-1.073-1.713-1.907-1.393-.77.296-1.401.04-1.401-.569s.675-1.107 1.5-1.107c1.053 0 1.5-1.063 1.5-3.567 0-3.137-.246-3.49-2.042-2.92-1.123.357-3.936.321-6.25-.08-4.136-.716-4.161-.744-1.458-1.664 4.593-1.563 3.116-2.92-3-2.758-9.743.259-12.397.036-11.764-.988.376-.608-.942-.761-3.492-.404l-4.095.573 2.596-2.596c2.691-2.691 6.714-3.534 6.43-1.346-.314 2.424.087 3.75 1.134 3.75.582 0 .779-.453.437-1.007-.718-1.162 2.25-2.58 3.268-1.562.373.373.016 1.096-.793 1.608-1.151.728-.957.934.886.946 1.687.011 2.193-.411 1.781-1.485-.391-1.02.054-1.5 1.393-1.5 1.083 0 1.969-.436 1.969-.969 0-.532.562-.757 1.25-.499 2.156.808 10.266-1.1 10-2.354-.138-.648.2-1.178.75-1.178s1-.388 1-.861c0-.474-1.125-.647-2.5-.384s-2.5 1.026-2.5 1.695-.655 1.217-1.456 1.217c-.801 0-1.224-.375-.941-.834.283-.458-1.36-.833-3.651-.833-3.184 0-4.038.334-3.622 1.417a1.534 1.534 0 0 1-.893 1.969c-.811.311-1.437-.035-1.437-.794 0-1.901-8.337-1.187-15.695 1.344-4.502 1.549-5.16 2.005-2.933 2.031 2.35.027 2.661.288 1.709 1.436-.894 1.077-.865 1.511.127 1.872.711.258-.416.805-2.505 1.217-2.088.411-4.075.469-4.416.128-.341-.341.328-.62 1.487-.62 5.147 0 2.573-1.927-4.021-3.01a892.858 892.858 0 0 1-14.036-2.443c-3.73-.688-7.019-.867-7.309-.399-.289.469.202.852 1.092.852.89 0 1.369.403 1.065.895-.305.493.183 1.178 1.084 1.524.9.345 1.359.907 1.018 1.247-.34.34-1.289.063-2.108-.617-1.854-1.538-9.559-.434-9.559 1.37 0 1.575-16.53 2.15-17.483.609-.349-.566-1.171-1.021-1.826-1.013-.713.009-.589.4.309.973 1.139.727.777.944-1.5.9-1.65-.032-6.122.189-9.937.491-8.079.639-16.055-1.932-14.948-4.819.469-1.221-.131-1.563-2.758-1.575-5.268-.024-11.609-2.252-11.06-3.887.35-1.04-.137-1.242-1.888-.784-2.363.617-10.946-2.066-19.909-6.224-3.765-1.746-4.01-2.013-1.5-1.629 1.65.252 5.7.762 9 1.134 3.3.372 6.252 1.065 6.559 1.541.308.475 3.12.924 6.25.996 3.13.072 5.691.472 5.691.888 0 .417.563.737 1.25.711 3.934-.146 5.25.3 3.75 1.269-1.293.835-1.266.971.191.985.93.008 1.969-.435 2.309-.985.34-.55 1.743-1 3.118-1 1.573 0 2.246.41 1.816 1.107-.466.754.033.88 1.567.393 3.11-.987 21.958 2.588 19.397 3.679-1.095.467.004.545 2.602.186 6.317-.874 7.839-.882 13.46-.066 7.718 1.121 4.211-.934-4.96-2.905-4.4-.946-10.025-2.036-12.5-2.423-2.475-.387-3.739-.764-2.809-.837 2.791-.221 3.134-2.117.757-4.179-1.58-1.37-3.249-1.813-5.696-1.509-3.667.455-5.732 1.554-2.919 1.554.917 0 1.667.477 1.667 1.059s-.52.738-1.155.346c-.764-.473-.88-.271-.344.596.653 1.058-.331 1.153-5.096.496-3.248-.448-7.143-.856-8.655-.906-1.512-.05-2.75-.653-2.75-1.341 0-.687-.422-1.25-.938-1.25-1.25 0-.939-4.274.39-5.344.618-.498.309-.606-.754-.262-1.057.342-1.549.174-1.191-.405.336-.544.247-.975-.198-.957-1.348.053-3.803 2.387-3.909 3.718a24.076 24.076 0 0 1-.25 2.044c-.175.927-18.064.625-19.009-.32-.351-.351.237-1.277 1.307-2.06 3.749-2.741.363-3.847-5.608-1.832-6.408 2.163-23.334 2.719-21.669.712.551-.664.735-1.638.409-2.165-.326-.527-.027-1.19.664-1.474.691-.284-.526-.435-2.705-.336-2.53.116-4.841.994-6.396 2.431m-271.007 2.917c-.075 1.191-.698 2.395-1.386 2.674-.945.383-.891.756.224 1.53 1.01.702 1.678.692 2.125-.031.439-.711.895-.659 1.401.16.575.931.964.897 1.667-.143.686-1.016.843-.863.625.607-.195 1.314.37 2.076 1.708 2.304 1.647.279 1.735.156.5-.699-1.292-.894-1.257-1.041.25-1.054 1.389-.012 1.75.844 1.75 4.152 0 2.291.301 3.865.669 3.497.368-.367 1.493.077 2.5.989 1.719 1.555 1.831 1.53 1.831-.415 0-1.139-.461-2.225-1.023-2.412-.596-.199-.759-1.667-.39-3.51.449-2.247 1.062-3.004 2.108-2.603 1.084.416 1.308 1.458.845 3.927-.396 2.11-.233 3.36.438 3.36.606 0 .359 1.082-.57 2.5-1.529 2.333-1.523 2.5.084 2.5 1.12 0 1.521.525 1.146 1.5-.316.825-.08 1.5.525 1.5.742 0 .948-2.371.632-7.291-.257-4.01-.123-8.173.298-9.25.599-1.532.798-1.196.911 1.541.139 3.371.318 4.752 1.512 11.677.301 1.748 1.055 3.347 1.675 3.553.838.28.837.878-.001 2.323-1.004 1.731-1.133 1.753-1.16.197-.037-2.165-2.345-2.281-4.068-.204-.705.85-1.885 1.314-2.622 1.031-.958-.368-1.34.457-1.34 2.895 0 4.221 1.712 5.567 2.282 1.795.338-2.235.447-2.042.568 1.002.137 3.449.353 3.718 2.541 3.169 1.315-.33 2.691-.114 3.059.481.367.595.191 1.081-.391 1.081-.582 0-1.059.708-1.059 1.573 0 .961.681 1.441 1.75 1.234.963-.187 1.756-1.088 1.763-2.003.007-.914.344-1.995.75-2.4.405-.406.737-.212.737.429 0 1.408 3.911 1.517 6 .167.825-.533 1.05-.994.5-1.025-.55-.03.251-.733 1.78-1.563 1.528-.829 2.514-1.936 2.191-2.459-.584-.945 1.182-1.358 5.029-1.175 1.1.052 1.419-.145.709-.438-1.348-.558 2.141-4.34 4.003-4.34.498 0 .623-.457.278-1.016-.346-.559-1.095-.728-1.666-.375-.672.415-.786-.153-.324-1.609.487-1.533.361-2.032-.393-1.566-2.227 1.376-1.025-1.538 1.893-4.591 3.458-3.619 3.679-4.525 1.25-5.139-1.189-.301-.702-.686 1.521-1.202 1.799-.418 3.543-1.2 3.875-1.738.377-.61-.573-.719-2.521-.291-1.851.406-3.125.284-3.125-.3 0-.542-.9-.75-2-.463-1.1.288-2 1.093-2 1.79 0 2.01-3.772 2.461-7.022.839-3.63-1.811-3.87-2.78-.478-1.928 1.589.399 2.5.205 2.5-.532 0-.637.771-1.722 1.713-2.411 1.442-1.054.292-1.384-7.25-2.077-10.645-.98-18.834-.709-19.296.638-.184.534-.732.971-1.219.971-.487 0-.608-.788-.269-1.75.502-1.429.368-1.52-.732-.5-.741.688-2.045 1.243-2.897 1.235-1.366-.014-1.372-.131-.05-.985 1.797-1.162-.675-1.446-3.418-.393-2.382.914-1.901 2.289.574 1.642 1.478-.387 1.932-.2 1.441.593-1.251 2.025-4.427 1.316-4.891-1.092-.427-2.214-.436-2.215-.57-.083m97.364 4.125c-1.1.233-2.562.88-3.25 1.438-.873.709-1.25.643-1.25-.216 0-1.66-5.223-.347-6.311 1.587-.447.792-1.234 1.18-1.75.861-1.368-.845-1.151 1.926.261 3.338.933.933.839 1.2-.427 1.2-.894 0-1.832-.788-2.084-1.75-.281-1.077-.502-.692-.573 1-.082 1.953.391 2.787 1.634 2.879 5.976.44 7.25.379 7.25-.352 0-.448 1.064-.548 2.364-.222 1.628.409 2.553.103 2.969-.981.345-.899.082-1.581-.614-1.589-.771-.01-.668-.372.281-.985.825-.533 1.147-.976.715-.985-1.788-.035 1.462-3.902 3.533-4.204 1.595-.233 1.814-.491.752-.885-.825-.306-2.4-.367-3.5-.134m56.532 2.958c-.021 1.458-.648 2.255-1.782 2.265-1.448.013-1.5.174-.302.932 1.548.979.068 1.521-6.637 2.428-1.753.237-3.759.784-4.457 1.215-.698.432-2.373.902-3.721 1.046-1.348.144-2.775.786-3.171 1.426-.53.858-.834.822-1.153-.136-.314-.941-1.017-.718-2.538.803-1.157 1.157-2.439 1.804-2.848 1.438-.409-.367-.423-.11-.031.572.489.851.196 1.04-.941.604-.936-.36-2.036-.029-2.537.761-1.51 2.385-.936 3.505.715 1.396 1.49-1.903 1.533-1.842.889 1.25-.74 3.551.688 4.443 2.402 1.5.937-1.609 1.023-1.589 1.065.25.038 1.66.21 1.745 1.015.5.828-1.282.972-1.246.985.25.008.962.492 1.75 1.074 1.75.582 0 .795-.427.472-.949-.641-1.038 6.193-2.661 7.154-1.699.326.326-.708 1.125-2.296 1.777-2.241.92-2.497 1.279-1.139 1.602 1.747.415 2.496 2.269.917 2.269-.459 0-.834.633-.834 1.407 0 1.821 10.89 1.135 14.035-.884 1.794-1.152 2.326-1.154 3.359-.012.994 1.098.803 1.447-1 1.833-1.225.263-.427.436 1.773.384 2.2-.052 4.924.407 6.054 1.019 1.287.698 2.594.772 3.5.199 1.072-.679.671-.945-1.554-1.03-2.947-.113-2.956-.129-.5-.916 2.12-.679 1.817-.834-2-1.019-4.074-.197-4.216-.283-1.5-.905 1.65-.378 2.888-1.225 2.75-1.882-.157-.749 1.077-1.194 3.309-1.194 2.019 0 3.302-.415 2.966-.96-.379-.613.412-.613 2.191 0 1.705.588 4.528.615 7.284.07l4.5-.891-5-.274c-2.75-.151-6.238-.288-7.75-.304-5.071-.056-2.815-1.64 2.5-1.755 11.485-.249 15.37-1.746 9.338-3.598-2.758-.846-3.569-.78-3.993.325-.293.763-1.559 1.38-2.814 1.372-1.839-.013-1.991-.203-.781-.985 1.213-.784 1.069-.972-.75-.985-1.238-.008-2.257-.577-2.265-1.265-.011-.833-.339-.75-.985.25-.809 1.251-.972 1.178-.985-.441-.015-1.89-.052-1.891-1.386-.066-.754 1.031-2.721 1.968-4.37 2.082-1.65.114-4.014.53-5.254.924-1.241.393-2.014.325-1.719-.153.295-.477-.055-1.678-.779-2.667-.784-1.073-1.568-1.389-1.943-.783-.345.559-1.289.763-2.096.453-.807-.309-2.255-.207-3.218.229-2.89 1.308-8.25 1.258-8.25-.078 0-.738 4.112-2.035 10.533-3.322 9.999-2.004 17.851-5.155 12.94-5.193-1.482-.012-1.637-.229-.622-.872.959-.607.45-.989-1.75-1.311-1.735-.255-3.101-.007-3.101.562 0 .56-.661.145-1.468-.923-1.432-1.892-1.469-1.885-1.5.309m130.821.07c-1.499.619-1.512 1.018-.143 4.43 1.521 3.793 2.001 4.026 8.29 4.034 2.038.002 2.56.18 1.25.426-2.505.471-3.101 2.29-.75 2.29 1.243 0 1.2.316-.25 1.841-.962 1.013-2.087 1.662-2.5 1.441-.413-.22-.75.077-.75.659 0 1.788 4.737 1.188 5.458-.691.369-.962.604-1.925.521-2.138-.359-.93 2.766-2.077 5.521-2.026 2.563.047 2.709.178 1 .9-1.765.745-1.614.929 1.285 1.561 4.157.907 3.396 1.675-2.577 2.597-2.838.439-1.133.522 4.292.21 17.278-.993 19.5-1.025 19.5-.281 0 .413.687.649 1.527.526 3.55-.521.761-3.025-6.277-5.636-1.788-.663-3.25-1.628-3.25-2.143 0-.516-.368-.711-.817-.433-.45.278-2.749-.16-5.109-.974-2.361-.813-5.256-1.183-6.433-.821-1.178.361-1.786.283-1.351-.174.827-.87-12.646-6.47-15.274-6.348-.834.039-2.257.376-3.163.75m-18.603 5.427c-1.788.573-3.25 1.325-3.25 1.671 0 .345-3.034.764-6.742.931-3.709.166-6.841.401-6.961.52-.955.956 1.339 4.58 3.055 4.825 1.345.191 2.267 1.147 2.468 2.556.324 2.287-1.185 3.086-2.33 1.234-.924-1.495-2.498-.169-1.839 1.548.729 1.9 3.791 1.883 5.706-.032.825-.825 2.545-1.455 3.822-1.4 2.303.099 2.301.106-.179.9-2.468.79-2.461.803.5.979 1.65.099 2.414.414 1.697.701-.975.391-.849.866.5 1.889 2.597 1.969 3.537 1.737 2.303-.569-.589-1.1-.717-2.007-.285-2.015.432-.009.11-.473-.715-1.032-1.129-.766-.645-.947 1.961-.735 2.758.225 3.579.789 4.044 2.782.393 1.68 1.308 2.537 2.79 2.613 2.288.118 2.946-1.037 1.205-2.113-.55-.34-1-1.655-1-2.922 0-1.862-.478-2.251-2.496-2.029-1.372.151-2.749-.136-3.059-.638-.31-.501.814-.911 2.496-.911 3.004 0 3.059-.09 3.059-5 0-5.507-.47-5.768-6.75-3.753m92.003 12.964c.265.768 1.67 1.169 3.471.992 2.709-.266 5.337 2.07 3.921 3.485-.411.412-11.144.653-15.645.352l-2.5-.167 2.5-1.075 2.5-1.075-3.355-1.036c-2.424-.749-3.872-.714-5.217.126-1.34.837-2.631.87-4.606.119-3.52-1.338-7.313-.39-7.354 1.837-.025 1.38-.514 1.182-2.411-.972-1.759-1.997-2.518-2.34-2.912-1.314-.293.763.005 1.606.661 1.873.657.268.182.522-1.056.565-3.109.109-2.825 1.718.448 2.539 3.468.871 1.229 2.557-3.198 2.409-1.65-.056-2.261-.297-1.357-.538 2.02-.537 1.303-4.331-.819-4.331-.793 0-1.164.45-.824 1 .34.55-.084 1-.941 1s-1.559-.627-1.559-1.393c0-1.98-2.265-2.607-9.415-2.607-8.046 0-9.122 2.593-1.192 2.874 5.324.188 8.969 2.007 4.557 2.274-1.348.081-3.125.24-3.95.352-.825.112-2.291.271-3.258.352-1.484.125-1.57.451-.548 2.086.905 1.45.93 2.521.099 4.25-.612 1.272-1.363 3.1-1.671 4.062-1.183 3.702-3.622 1.944-3.622-2.611 0-4.12-.139-4.335-2.515-3.881-2.612.499-4.494 2.242-2.422 2.242.881 0 .865.382-.063 1.5-.937 1.129-.963 1.84-.105 2.873.627.756.872 2.071.545 2.924-.367.955.177 1.963 1.417 2.626 2.526 1.353 4.456 1.393 3.643.077-.395-.639 2.676-1 8.5-1s8.895.361 8.5 1c-.978 1.582 1.12 1.162 2.5-.5 1.052-1.268.763-1.597-1.861-2.122-1.709-.342-2.851-1.035-2.539-1.54.313-.506 1.442-.642 2.509-.303 1.286.408 1.848.184 1.666-.664-.151-.704.175-1.339.725-1.412 2.351-.31 4.5-1.774 4.5-3.066 0-.782.986-1.386 2.25-1.378 1.649.012 1.886.246.889.878-.96.608-.371 1.001 2 1.332 1.849.259 4.261.83 5.361 1.27 1.646.658 1.779.561.75-.548-2.007-2.163-1.45-3.214 1.334-2.515 1.531.384 2.345.262 1.998-.299-.336-.543.374-.709 1.667-.389 2.223.55 2.219.526-.249-1.904-2.358-2.323-5-6.194-5-7.326 0-1.545 3.984-.162 5.552 1.926 1.008 1.342 2.149 2.245 2.536 2.006.386-.239.96.238 1.276 1.06.315.822 1.064 1.494 1.664 1.494.599 0 .812-.45.472-1-.34-.55-.19-1 .334-1s1.235.736 1.58 1.636c.561 1.463.811 1.477 2.357.13 1.813-1.578 3.517-1.575 11.729.025 2.75.535 3.988 1.027 2.75 1.091-1.865.098-2.25.695-2.25 3.487 0 3.611-2.727 4.78-10.5 4.502l-3-.108 3-.763c2.515-.64 2.626-.783.691-.882-1.27-.065-2.031-.568-1.691-1.118.34-.55.115-1-.5-1s-.84-.45-.5-1c.34-.55-.084-1-.941-1s-1.559.589-1.559 1.309c0 .853-3.222 1.944-9.25 3.132-5.282 1.041-9.786 2.492-10.5 3.382-.761.95-1.25 1.094-1.25.368 0-.655-1.152-1.191-2.559-1.191-1.451 0-2.292.433-1.941 1 .34.55.141 1-.441 1s-1.059.45-1.059 1c0 .588 2.989.942 7.25.858 5.874-.115 6.491-.261 3.25-.77-3.59-.564-3.744-.698-1.5-1.31 1.375-.376 3.4-.513 4.5-.307 1.1.207 2.9.455 4 .552 1.717.151 1.646.297-.5 1.028-2.245.766-2.144.837 1 .703 1.925-.083 3.95-.446 4.5-.808 1.966-1.292 5.41-1.716 5.747-.706.203.611.932.448 1.798-.402 2.143-2.106 18.946-1.962 18.969.162.014 1.223.175 1.249.876.143.6-.946 1.067-1.021 1.544-.25.376.609.095 1.139-.625 1.177-2 .108 2.41 1.789 4.691 1.789h2l-2-.781c-1.936-.757-1.928-.805.25-1.497 2.979-.947 2.863-1.515-1.186-5.807l-3.436-3.643 3.186-.75c1.752-.412 4.086-.647 5.186-.521 1.656.19 1.742.052.5-.8-1.333-.915-1.333-1.04 0-1.121.825-.051 2.4-.29 3.5-.533 3.491-.769 9.92-1.722 12.25-1.816 1.238-.049 2.25-.447 2.25-.884 0-.436.563-.721 1.25-.631 2.681.348 4.75-.12 4.75-1.075 0-1.612-12.332-1.216-14.559.468-2.189 1.656-5.441 2.014-5.441.598 0-.513 1.238-1.121 2.75-1.35 2.172-.329 1.948-.448-1.066-.566-2.098-.083-4.665.305-5.704.861-2.904 1.554-14.452 2.562-13.602 1.187.381-.616 2.364-1.422 4.407-1.791 5.067-.913 5.392-1.208 4.069-3.681l-1.152-2.152-.819 2.213c-.45 1.217-1.621 2.177-2.601 2.134-1.047-.046-1.267-.287-.532-.583 3.703-1.494.862-3.067-5.846-3.236-5.412-.137-6.991.127-6.651 1.109m68.477 3.039c-.24.688.51 1.797 1.667 2.465 2.001 1.155 1.957 1.22-.897 1.329-1.706.065-2.357.366-1.509.699 1.014.397.373.988-2 1.845l-3.491 1.26 3.309.076c1.96.045 3.054.488 2.684 1.087-.624 1.011 6.876.552 10.908-.667 1.451-.439 1.755-.192 1.282 1.041-.394 1.025-.095 1.615.817 1.615.79 0 1.3-.562 1.133-1.25-.168-.687-.116-.913.114-.5.828 1.481 2.177.715 1.562-.887-.52-1.354-.082-1.557 2.531-1.173 1.738.255 3.16.092 3.16-.363 0-.897-.903-1.061-5.5-.998-1.65.022-2.237-.183-1.305-.457.976-.286 1.46-1.106 1.143-1.935-.493-1.284 1.876-2.035 4.912-1.555.413.065.75-.299.75-.809 0-.509.788-1.132 1.75-1.384.962-.251-3.725-.509-10.417-.573-8.92-.085-12.283.218-12.603 1.134m-204.98 3.45c-.962.246-1.75.882-1.75 1.415s-.861 1.893-1.914 3.023l-1.913 2.054-1.122-2.096c-.662-1.238-2.028-2.049-3.336-1.98-1.605.084-1.748.239-.52.563.984.259 1.463 1.049 1.143 1.884-.304.79-.054 1.437.555 1.437.609 0 1.107.675 1.107 1.5 0 1.053-1.063 1.5-3.571 1.5-4.302 0-6.47 1.895-5.859 5.119.249 1.31.185 1.819-.142 1.131-.327-.687-1.484-1.25-2.57-1.25-1.087 0-1.698.45-1.358 1 .556.9-2.93 1.503-6.234 1.078-.724-.093-.99.479-.643 1.382.325.847 1.78 1.595 3.234 1.662 1.454.066 4.329.2 6.39.296 2.06.097 4.276.705 4.923 1.352.902.902-.088 1.062-4.247.685-3.856-.349-4.845-.217-3.423.457 1.1.521 1.55.986 1 1.033-.55.047-.348.498.448 1.002 1.125.711.803 1.077-1.448 1.642-1.722.433-3.031.317-3.232-.286-.186-.557-1.442-.801-2.791-.543-1.35.258-2.186.902-1.859 1.432.376.608-1.195.666-4.261.159-6.411-1.061-13.576-.606-14.548.923-.61.961-.782.955-.794-.024-.008-.687-.717-1.25-1.574-1.25-.857 0-1.281.45-.941 1 .34.55.141 1-.441 1s-1.066-.562-1.074-1.25c-.011-.84-.256-.898-.75-.177-.404.59-1.635 1.457-2.735 1.926-1.929.823-1.921.867.25 1.246 1.238.217 2.25.865 2.25 1.441 0 .578-1.121.833-2.5.569-1.375-.263-2.5-.12-2.5.317s-1.238.983-2.75 1.212c-1.512.229.175.491 3.75.581 4.607.118 6.063.448 5 1.135-1.333.862-1.333.979 0 1.055 1.031.059.875.375-.5 1.013-1.496.693-1.118.786 1.5.369 2.61-.416 3.118-.292 2 .487-.825.575-2.314 1.052-3.309 1.061-1.111.009-1.534.461-1.096 1.17.393.634.307.907-.19.604-.498-.302-1.446.037-2.107.753-.979 1.06-.096 1.255 4.75 1.051 3.273-.138 5.952-.064 5.952.165 0 1.268-3.265 3.384-4.494 2.913-.793-.305-1.687-.157-1.986.327-.921 1.49 2.83 1.752 5.609.392 3.252-1.591 3.926-3.243 3.187-7.802-.369-2.27-.18-3.558.522-3.558.604 0 .868-.603.585-1.34-.803-2.091 1.585-3.332 7.741-4.022 3.115-.35 8.437-1.346 11.827-2.214 3.389-.869 6.803-1.333 7.586-1.033.783.3 1.423.16 1.423-.313 0-.984 7.04-2.061 8.401-1.286.496.282.073 1.12-.941 1.861-2.22 1.623-.199 1.813 2.713.254 1.415-.757 2.361-.773 3.083-.051.721.721-.387 1.4-3.608 2.211-4.384 1.104-4.648 1.363-4.648 4.552 0 3.344.051 3.383 4.75 3.541 3.651.123 3.998.253 1.5.563-1.788.222-3.25.791-3.25 1.265 0 .474 1.688.68 3.75.458l9.25-.991c3.025-.324 7.075-.989 9-1.477 1.925-.488 9.575-1.779 17-2.868 12.595-1.847 27-5.456 27-6.763 0-.72-9.569.269-10.967 1.133-.568.351-1.04.049-1.048-.671-.011-.895-.248-.96-.75-.203-.713 1.072-3.407 1.744-11.735 2.926-2.2.312-6.794 1.445-10.209 2.518-7.257 2.279-8.942 2.402-9.629.7-.337-.837-.53-.742-.583.287-.052 1.004-1.208 1.613-3.329 1.755-2.442.164-2.877-.028-1.75-.772 1.214-.801 1.06-.992-.809-1.005-1.282-.008-2.034-.46-1.691-1.015.662-1.072-.542-1.346-4.454-1.012-2.142.182-2.286.006-1.128-1.39C272.404 358.809 282 358.291 282 360c0 .55-.788 1.032-1.75 1.07-1.483.06-1.445.191.25.862 1.1.435 2.652.546 3.449.246.985-.37 1.068-.672.259-.942-.826-.275-.682-.905.471-2.057 1.209-1.21 1.773-1.324 2.074-.42.228.683 1.614 1.212 3.08 1.178 2.503-.06 2.535-.117.519-.93-1.181-.477-2.445-1.348-2.809-1.937-.858-1.388.021-1.359 2.32.076 1.12.7 2.966.85 4.736.386 2.666-.7 2.739-.833.901-1.653-1.318-.587-.111-.703 3.539-.339 3.047.303 6.647.109 8-.431l2.461-.982-2.691-.064c-6.691-.157-.028-4.79 7.691-5.347 1.65-.119 3.337-.666 3.75-1.216.47-.627 1.117-.441 1.735.5.72 1.098.988 1.148 1 .187.008-.722.803-1.233 1.765-1.135.962.098 2.875.095 4.25-.007 2.311-.172 2.349-.25.5-1.045l-2-.859 2-.189c1.423-.134 1.134-.409-1-.952l-3-.763 2.75-.119c1.512-.065 2.75-.568 2.75-1.118 0-1.227.464-1.271-5.409.511-5.97 1.811-6.877 1.846-6.344.248.464-1.393-1.535-3.759-3.176-3.759-.589 0-1.078.563-1.086 1.25-.012.936-.228.915-.861-.084-.673-1.061-.978-.989-1.493.354-.42 1.094-1.246 1.458-2.348 1.035-1.114-.427-2.351.141-3.585 1.646-1.341 1.636-1.722 1.794-1.322.549.46-1.434-.054-1.75-2.848-1.75-1.876 0-3.688-.45-4.028-1-.34-.55-1.604-1.014-2.809-1.032-2.142-.031-2.147-.065-.25-1.5 1.068-.807 2.98-1.468 4.25-1.468s2.309-.502 2.309-1.116c0-.761-1.777-.923-5.584-.508-6.154.672-7.739 1.292-6.873 2.693.926 1.498-.731 1.071-2.677-.69-.985-.892-2.493-1.352-3.351-1.023-2.501.96-2.961 3.597-.892 5.11 2.51 1.836 1.41 2.691-2.463 1.916-2.886-.577-4.522-2.382-2.16-2.382.55 0 1-.653 1-1.45 0-.798.788-1.932 1.75-2.521 1.363-.833.942-.934-1.901-.457-5.97 1.003-9.849 1.096-9.849.235 0-.444 2.137-.814 4.75-.822 2.978-.01 4.252-.331 3.416-.861-1.074-.681-1.025-.964.25-1.453.908-.349 1.593-.088 1.606.61.012.671.843.153 1.845-1.151 1.517-1.972 2.52-2.303 5.987-1.973 2.568.245 4.034.004 3.823-.63-.34-1.024-16.522-1.696-19.927-.827M26.401 340.741c-.988.988-1.353.988-1.792 0-.303-.683-.451-.341-.33.759.244 2.205.02 2.226-15.53 1.408L.998 342.5l.001 5 .002 5 8.249.271c7.864.258 28.07.46 30.309.303.582-.041 1.932-.772 3-1.626 1.895-1.515 1.89-1.538-.225-.959-1.191.326-2.425.172-2.743-.342-.654-1.057 4.027-2.501 5.386-1.661.487.301 1.167.089 1.513-.47.345-.559 1.591-1.016 2.769-1.016 1.678 0 1.879-.262.928-1.213-1.739-1.739-6.187-1.792-6.187-.074 0 .773-.457 1.122-1.016.777-.559-.346-.781-1.009-.494-1.474.287-.465-.043-1.073-.734-1.352-.691-.278-.217-.542 1.053-.585 1.368-.047 2.04-.514 1.65-1.146-.363-.586-.91-.815-1.217-.508-.307.307-1.144.072-1.86-.523-1.873-1.554-13.464-1.679-14.981-.161m127.254 11.126c-1.639.645-1.541.864.879 1.967 1.499.682 2.478 1.487 2.176 1.789-.301.301-2.175-.224-4.165-1.168-1.989-.944-3.87-1.463-4.181-1.152-.882.881.596 2.697 2.195 2.697 2.69 0 1.458 1.999-1.309 2.125-1.512.068-.285.482 2.727.918 5.693.825 8.219.33 5.88-1.153-.931-.59-.416-.859 1.643-.859 2.095 0 2.584.263 1.622.873-.758.48-1.075 1.363-.704 1.964.48.776 1.239.739 2.628-.129 1.472-.919 2.402-.94 3.769-.086 1.187.741 2.399.807 3.5.19 1.109-.62 1.685-.583 1.685.107 0 .578.45 1.05 1 1.05s1-.661 1-1.469c0-.867.59-1.242 1.439-.916.792.304 2.254.078 3.25-.501 1.08-.628 1.282-1.065.502-1.084-.72-.016-1.06-.433-.756-.925.725-1.172-1.933-2.181-3.063-1.163-1.705 1.536-7.318 2.954-7.909 1.998-.32-.517-.153-.94.371-.94 1.559 0 2.01-2.422.683-3.662-.941-.879-1.65-.664-2.997.909-1.523 1.78-1.543 1.976-.142 1.438.892-.342 1.622-.234 1.622.239 0 .892-2.39 2.076-4.189 2.076-.564 0-.766-.675-.449-1.5.354-.922-.002-1.5-.925-1.5-.825 0-1.759-.675-2.075-1.5-.612-1.594-2.683-1.824-5.707-.633m-53.067 16.898c1.417.958 2.495 5.235 1.318 5.235-.498 0-.906.693-.906 1.539 0 1.267-.248 1.312-1.401.25-.771-.709-.996-1.439-.5-1.622.495-.184.865-1.084.822-2-.049-1.04-.269-1.197-.583-.417-.278.688-1.142 1.25-1.921 1.25-.914 0-1.417 1.087-1.417 3.059 0 1.682-.338 2.855-.75 2.605s-1.33.174-2.039.941c-1.602 1.733 3.324 1.962 8.744.408 2.549-.731 3.647-.666 4.229.25.512.806.791.431.801-1.079.008-1.273.438-3.106.955-4.072.71-1.327.435-2.106-1.122-3.184-1.135-.786-2.651-1.99-3.369-2.678-.718-.687-1.901-1.243-2.628-1.235-.884.011-.961.259-.233.75m-41.055 34.181c-.394.638-1.238.975-1.875.749-.637-.225-2.283.364-3.658 1.309-2.724 1.872-9.245 4.221-10.633 3.829-.477-.134-2.442.602-4.367 1.636-4.683 2.516-9.426 3.084-8.64 1.034.318-.826.141-1.503-.391-1.503-.533 0-.969.388-.969.861 0 .474-1.013.67-2.25.436-1.238-.235-3.375.065-4.75.665-2.463 1.075-2.456 1.086.5.704 1.65-.213 4.125-.045 5.5.374 1.635.497 1.895.795.75.86-.962.055-1.75.474-1.75.931 0 .456 2.784.256 6.186-.445 3.402-.701 6.552-1.048 7-.771.448.277.814.026.814-.556 0-.582.337-.985.75-.895 1.427.312 6.762-1.51 9.75-3.329 3.209-1.955 4.572-2.292 4.382-1.085-.31 1.962.212 3.31 1.074 2.777.526-.325.703-1.252.393-2.059-.323-.844.014-1.475.794-1.483 1.057-.012 1.025-.254-.143-1.095-1.307-.94-1.295-1.014.091-.577 2.23.704 3.978-.584 2.981-2.196-.605-.979-1.011-1.024-1.539-.171m140.955 10.05c-1.106.42-7.069.636-13.251.481-11.01-.277-15.484.691-8.902 1.926 7.328 1.375 7.332 3.222.006 2.937-6.512-.254-6.669-.209-3.256.946 1.972.668 4.366 2.002 5.321 2.964 1.757 1.77 4.594 2.384 4.594.995 0-.752 6.05-3.153 9.099-3.611.879-.132 2.766-1.408 4.193-2.835 1.427-1.427 3.182-2.804 3.901-3.06.719-.256 1.082-.699.807-.986-.275-.286-1.405-.177-2.512.243M160.5 429c-.34.55-.141 1 .441 1s1.059 1.35 1.059 3-.498 3-1.107 3c-.61 0-.828-.728-.485-1.621.485-1.264.156-1.498-1.5-1.065-1.168.305-3.199.146-4.515-.355-1.36-.517-2.393-.529-2.393-.028 0 .485-1.012.66-2.25.389-1.875-.411-2-.297-.75.688 1.276 1.005 1.225 1.091-.343.582-4.812-1.563-7.061-1.525-3.407.057 2.063.894 3.75 2.013 3.75 2.489 0 .475.787.871 1.75.879 1.37.012 1.454.203.387.879-1.151.729-1.151.957 0 1.459.846.37.604.562-.637.506-3.4-.152-4.058.135-2.529 1.102 2.823 1.785-.001 2.351-5.542 1.11-3.071-.687-5.849-.984-6.173-.66-.324.324.209.589 1.184.589 1.173 0 1.577.513 1.193 1.514-.442 1.151.078 1.464 2.172 1.304 1.514-.115 3.303.131 3.976.547.674.416 3.361 1.142 5.972 1.613 2.611.471 5.647 1.142 6.747 1.49 1.433.454 3.062-.34 5.75-2.802 4.047-3.708 4.787-6.274 2-6.933-1.308-.308-1.055-.607 1-1.181 3.199-.894 3.658-3.502.75-4.262-1.1-.288-2-1.178-2-1.978 0-2.709-3.349-5.174-4.5-3.312m174.371 30.392c-2.246.948-2.422 1.304-1.208 2.438.808.755 1.159 2.156.812 3.249-.689 2.171 3.808 2.891 5.091.814.474-.767.884-.782 1.337-.05.359.58 3.677 1.366 7.375 1.744 6.361.652 6.722.578 6.722-1.39 0-3.054-1.512-3.514-7.128-2.166-3.713.89-5.327.914-6.153.088-.825-.825-.804-1.119.081-1.119 2.154 0 1.263-1.917-1.55-3.333-2.117-1.066-3.355-1.129-5.379-.275M319.08 463.5c-7.49.656-11.561 1.43-11.833 2.25-.227.688-1.614 1.205-3.08 1.15l-2.667-.099L304 466c1.967-.63 1.381-.822-2.75-.9-4.703-.09-5.25.119-5.25 2.006 0 2.035.312 2.085 9.25 1.478 26.638-1.809 27.82-2.023 26.116-4.715-.712-1.125-2.898-1.191-12.286-.369m-77.58 4.646c-1.65 1.014-3.986 1.846-5.191 1.849-1.205.003-2.44.408-2.744.899-.711 1.152 38.476.417 48.257-.905 4.028-.544 7.778-.989 8.334-.989 2.12 0 .112-2.355-2.213-2.595-3.578-.37-9.006.684-8.419 1.634.279.451-1.863.709-4.759.574-2.896-.135-6.08.234-7.076.821-1.386.816-2.09.697-3-.504-.963-1.272-2.883-1.503-10.109-1.216-4.906.194-9.181-.043-9.5-.528-.319-.486-1.93-.053-3.58.96m-230.767 16.03c-1.509 1.099-2.521 2.358-2.249 2.798.272.44-.176 1.355-.995 2.035-.819.68-1.489 2.396-1.489 3.813 0 2.005.267 2.311 1.2 1.378.66-.66 2.037-1.2 3.059-1.2 1.022 0 1.601-.418 1.285-.928-.545-.883 2.226-2.172 5.456-2.537l8.73-.98c3.977-.445 6.988-1.202 6.691-1.682-.296-.48-.062-.873.52-.873.582 0 .946-.562.809-1.25-.138-.687.313-1.137 1-1 .688.137 1.25-.226 1.25-.807 0-.652-2.111-.942-5.5-.756-3.025.166-5.5.58-5.5.921 0 .817-9.21.58-10.511-.27-.557-.364-2.246.238-3.756 1.338" fill="#d3d3d3" fill-rule="evenodd"/></svg>