<svg xmlns="http://www.w3.org/2000/svg" width="500" height="493"><path d="M.22 8.5c-.051 5.838.223 8.297.78 7 .735-1.71.87-1.746.93-.25.11 2.754-.066 3.268-1.03 3-.532-.148-.9 96.992-.9 237.252v237.502l250.25-.252 250.25-.252.252-237.751c.201-189.984.001-237.7-1-237.5-.872.175-1.342-1.647-1.55-5.999-.175-3.69.111-6.25.7-6.25.549 0 1.161 2.588 1.359 5.75.287 4.57.396 4.006.535-2.75.095-4.675-.157-8.001-.561-7.39C499.419 1.842 463 2.181 463 .956c0-.384-1.912-.385-4.25-.003-3.42.558-60.25.655-60.25.102 0-.689-18.05-.85-18.899-.168-.619.496-5.134.542-10.309.103-5.064-.429-11.589-.529-14.5-.222-5.939.625-50.406.841-67.292.327-6.05-.185-23.6-.269-39-.187-15.4.082-75.88.024-134.4-.13L7.7.5l-.336 2.2c-.185 1.209.108 2.473.65 2.809.542.335.979 1.145.971 1.8-.011.798-.299.744-.874-.164-.526-.831-.913 1.688-.999 6.5C6.954 22.523 6.148 28 5.001 28c-.427 0-.544-5.375-.26-11.943C5.277 3.67 4.716-.747 2.962 2.028 2.45 2.838 1.956 4.625 1.865 6c-.094 1.419-.468.553-.865-2C.437.38.285 1.259.22 8.5m.272 247c0 130.9.116 184.599.258 119.33.142-65.268.142-172.368 0-238C.608 71.199.492 124.6.492 255.5M44.499 18.588c-.55.227-5.725.75-11.5 1.162L22.5 20.5 20.322 25c-1.786 3.691-2.276 6.928-2.727 18C16.247 76.151 15.5 175.458 15.5 321.67v158.17l-2.453 1.488c-2.442 1.482-2.434 1.491 2 2.039 2.449.303 10.303.805 17.453 1.117 7.15.311 14.125.727 15.5.925 2.755.395 34.57 1.287 74 2.075 64.156 1.282 82.71 1.73 85.5 2.063 5.405.644 245.549 1.131 263.84.535l17.841-.582-3.153-2.326c-2.531-1.868-3.054-2.854-2.647-5 .278-1.471.804-25.849 1.168-54.174.364-28.325.786-52.625.937-54 .152-1.375.574-25.45.938-53.5s.851-56.4 1.081-63c.231-6.6.716-60.415 1.079-119.589.655-106.962.6-109.658-2.301-112.911-.245-.275-8.397-.822-18.114-1.216-9.718-.394-22.394-.934-28.169-1.201-12.996-.599-128.611-1.527-258.561-2.076-53.933-.227-100.058-.826-102.5-1.331-4.385-.905-32.502-1.385-34.44-.588m46.812 66.056c.398.398 26.254.841 57.457.982 91.584.417 107.831.58 105.982 1.063-.963.252-1.75 1.086-1.75 1.853 0 .807-.61 1.161-1.448.839-1.519-.582-7.552 2.481-7.552 3.835 0 .431-1.093.784-2.429.784-1.335 0-3.135.707-4 1.571-.864.865-1.571 1.09-1.571.5 0-.589-1.463-1.035-3.25-.992-1.787.043-2.687.306-2 .583 1.889.763 1.498 2.499-.5 2.216-3.981-.562-8.25 1.227-8.235 3.451.012 1.599.242 1.814.875.814.604-.953 1.065-1.025 1.549-.242.784 1.268 5.364.696 6.924-.864 1.278-1.278 2.637-1.346 2.637-.132 0 .498-2.038 2.099-4.528 3.559-2.491 1.459-5.046 3.482-5.678 4.495-.633 1.013-1.751 1.611-2.485 1.329-1.674-.642-4.8 1.791-3.406 2.652.563.348-.677 2.738-2.847 5.489-4.35 5.514-7.056 7.51-7.056 5.204 0-.806.563-1.667 1.25-1.913.688-.245.874-.845.415-1.333-.472-.501-1.908.36-3.301 1.978-1.357 1.576-2.751 2.581-3.099 2.234-.347-.348-.099-1.165.552-1.816.651-.65 1.183-2.02 1.183-3.042 0-1.022.45-1.581 1-1.241.55.34 1 .178 1-.359 0-.538.273-1.689.607-2.559.404-1.053.049-1.582-1.059-1.582-.916 0-1.388.45-1.048 1 .34.55.173 1-.371 1-.545 0-1.134-.976-1.309-2.17-.698-4.736-14.229-8.226-18.417-4.749-.941.78-1.866 1.307-2.057 1.169-.19-.138-1.25-.25-2.354-.25-1.748 0-1.849.256-.779 1.969.676 1.083 1.918 2.156 2.758 2.384.889.241.588.464-.721.531-1.238.064-2.25-.361-2.25-.943 0-1.597-2.011-.027-3.09 2.411-.72 1.629-.854 1.001-.553-2.602.386-4.613.318-4.75-2.357-4.75-1.515 0-3.314-.674-3.998-1.498-.951-1.145-2.566-1.362-6.873-.923-3.096.316-6.979.701-8.629.855-5.229.49-7.5 1.673-7.5 3.905 0 2.091-.011 2.091-1.557-.116-1.458-2.082-3.736-3.13-3.201-1.473.418 1.295-3.002 5.447-3.639 4.417-.333-.538-1.617-.735-2.854-.437l-2.249.543 2.208-2.136c1.215-1.176 2.708-2.137 3.318-2.137.675 0 .845-.83.434-2.125-.445-1.402-.307-1.898.405-1.459 1.405.869 6.135-2.239 6.135-4.031 0-.762.45-1.385 1-1.385s1 .45 1 1 .627 1 1.393 1 1.663.704 1.993 1.563c.982 2.56 2.674.54 1.989-2.374-.761-3.232-2.435-5.202-3.038-3.575-.227.613-1.728.962-3.334.775-2.417-.282-2.81-.042-2.275 1.385.585 1.563.469 1.584-1.228.226-1.705-1.364-1.814-1.338-1.203.29.434 1.159.236 1.699-.563 1.531-1.775-.373-6.734 3.157-6.734 4.794 0 .762-.398 1.385-.883 1.385-.963 0-2.175 3.107-2.693 6.902-.18 1.321-.865 2.896-1.523 3.5-.901.827-1.044.667-.58-.652 1.4-3.976-1.236-1.375-3.176 3.135-1.156 2.686-2.815 5.158-3.687 5.493-.871.334-1.305 1.06-.963 1.613.901 1.459-2.216 5.486-4.257 5.498-1.291.008-1.683.742-1.525 2.852.175 2.351-.033 2.638-1.207 1.664-1.572-1.305-3.506-.564-3.506 1.343 0 .676-.871 2.938-1.936 5.026-2.165 4.247-1.791 6.626 1.043 6.626 2.22 0 2.537 1.816.456 2.614-.79.303-1.185 1.208-.877 2.01.333.868.04 1.34-.725 1.167-.706-.16-1.589.834-1.961 2.209-.372 1.375-1.2 2.387-1.839 2.25-.684-.147-1.161 1.014-1.161 2.829 0 2.848-.209 3.034-2.783 2.469-2.237-.492-3.352-.017-5.693 2.426-1.963 2.05-3.509 2.848-4.751 2.454-1.748-.555-1.831.386-1.664 18.744.202 22.202.629 24.77 3.179 19.134.947-2.093 3.943-6.241 6.657-9.217l4.936-5.41.689 2.744c.847 3.374-.338 15.961-1.542 16.385-.481.169-.676 1.402-.434 2.74.243 1.337-.219 4.011-1.025 5.942-1.467 3.51-.973 4.514 1.168 2.373.849-.849 1.114-.343 1.048 2-.049 1.725-.471 3.137-.937 3.137-1.231 0-1.041 4.407.245 5.693 1.246 1.246-.427 5.307-2.187 5.307-.563 0-.746-.45-.406-1 .34-.55.19-1-.334-1-.8 0-2.166 2.235-2.166 3.543 0 .208.98 1.292 2.177 2.407 1.198 1.116 1.877 2.33 1.509 2.697-.368.368-.167 1.273.445 2.011.823.991.799 1.722-.091 2.794-1.189 1.432-.584 5.548.815 5.548.895 0 1.025 1.534 1.416 16.692.341 13.246 1.527 16.308 6.313 16.308 1.25 0 2.948.675 3.773 1.5.825.825 2.207 1.5 3.072 1.5.864 0 1.615.788 1.67 1.75.054.962.166 2.875.25 4.25.085 1.409.696 2.391 1.401 2.25.688-.138 1.25.425 1.25 1.25s.45 1.5 1 1.5c1.367 0 1.263-5.518-.155-8.264a126.006 126.006 0 0 1-1.837-3.7c-.772-1.661-9.077-6.111-10.157-5.444-1.032.638-1.7-2.146-2.54-10.592-1.321-13.276-.823-16.5 2.165-14.02.838.696 1.531.872 1.539.392.009-.479.483-.197 1.054.628.856 1.237.982 1.149.716-.5-.328-2.041 1.921-5.5 3.577-5.5 1.288 0 3.575-3.203 3.57-5-.002-.936-.944-.371-2.503 1.5-2.447 2.937-2.531 2.958-3.993 1.019-1.622-2.151-1.468-5.146.248-4.811.586.115 1.066-.935 1.066-2.332 0-1.397.471-3.516 1.047-4.708.576-1.192 1.302-3.349 1.613-4.792.31-1.443 1.508-3.693 2.661-5 1.738-1.969 1.991-2.047 1.479-.456-.352 1.093-.065 2.271.666 2.735 1.859 1.179 5.784 1.029 5.784-.222 0-.613-.853-.797-2-.433-1.419.45-2 .18-2-.933 0-.905.852-1.567 2.019-1.567 1.629 0 1.903-.461 1.42-2.387-.415-1.654-.037-2.806 1.231-3.75 2.274-1.694 7.33-9.051 7.33-10.667 0-.658-.633-1.196-1.406-1.196-1.431 0-1.149-3.393.457-5.5.419-.55.886-2.8 1.037-5 .151-2.2.666-4.799 1.143-5.776.599-1.227.28-2.62-1.03-4.5-3.229-4.637-3.323-10.243-.221-13.224.286-.275 1.086-1.512 1.778-2.75 1.32-2.358.434-3.042-1.471-1.137-2.118 2.118-3.552-.164-2.934-4.672.478-3.49 1.625-5.339 6.118-9.868 3.041-3.065 5.529-6.433 5.529-7.484 0-1.051 1.257-2.969 2.794-4.262 1.537-1.293 3.138-2.908 3.559-3.589 1.263-2.043-2.144-1.447-4.353.762-2.811 2.811-2.494 1.266 1.107-5.382 3.188-5.885 5.359-7.353 2.393-1.618-1.779 3.44-1.263 5.339.76 2.795 2.16-2.715 12.173-8.997 12.548-7.872.197.592 1.109 1.041 2.025.998 1.04-.049 1.197-.269.417-.583-1.945-.785-1.485-1.91 1.297-3.177 3.717-1.694 5.453-1.427 5.453.839 0 1.1-.55 2-1.223 2-.672 0-.222.701 1 1.557 1.223.856 2.223 2.558 2.223 3.782 0 3.025 4.535 3.548 5.303.612.288-1.105.901-1.9 1.361-1.767.46.132 1.861-.327 3.115-1.022 2.146-1.19 2.251-1.11 1.8 1.374-.263 1.451-.947 3.202-1.52 3.893-.573.69-.767 1.53-.431 1.865.335.336-.082 1.303-.929 2.149-1.157 1.158-1.663 1.232-2.043.298-.376-.927-.772-.861-1.565.259-1.595 2.256-1.323 2.988 1.159 3.116 1.693.087 1.817.229.5.573-1.213.317-1.741 1.433-1.72 3.634.026 2.705.187 2.909 1.081 1.372.878-1.51 1.307-1.593 2.614-.508 1.357 1.126 1.472 1.008.868-.894-.484-1.525-.096-2.79 1.276-4.162 1.084-1.084 2.119-3.015 2.301-4.292.192-1.347 1.483-2.871 3.08-3.634 1.512-.723 2.75-1.74 2.75-2.26 0-.52.498-.945 1.107-.945s.846.68.527 1.512c-.78 2.032 1.34 6.488 3.086 6.488.769 0 1.13-.434.803-.964-.761-1.23 3.245-5.298 4.471-4.54.506.313 1.627-.795 2.489-2.463.863-1.668 1.287-3.033.944-3.033-.344 0 .297-1.562 1.424-3.472 1.922-3.258 1.458-5.455-.851-4.028-1.645 1.017-1.141-.669 1.25-4.181 2.264-3.326 3.75-4.222 3.75-2.26 0 .582.45.781 1 .441s1-.179 1 .358c0 .536-.563 1.204-1.25 1.483-.947.384-.894.754.216 1.526 1.84 1.278 4.367-.556 3.583-2.6-.785-2.045 1.353-5.518 3.007-4.884 1.252.481 6.444-4.947 6.444-6.737 0-.367-2.538.688-5.641 2.344-7.631 4.072-7.682 3.905-.906-2.943 3.24-3.274 6.205-5.758 6.59-5.521.384.238 1.715-.449 2.957-1.526 1.242-1.077 2.654-1.714 3.137-1.415.483.298 1.549-.128 2.369-.948 1.321-1.321 1.292-1.53-.258-1.836-1.182-.234.109-1.412 3.99-3.64 3.156-1.812 6.203-3.006 6.772-2.655.568.351 4.589-1.159 8.934-3.357 6.243-3.158 8.016-3.695 8.451-2.563.302.788.899 1.351 1.327 1.251.428-.1 2.691.619 5.028 1.599 4.346 1.821 5.637 3.535 2.5 3.319-.962-.066-2.988.195-4.5.581-2.154.55-2.75.352-2.75-.912 0-1.307-1.04-1.028-5.458 1.465-3.002 1.694-6.152 2.814-7 2.489-.848-.326-1.542-.19-1.542.302s-.961.967-2.135 1.055c-6.47.488-29.865 22.596-29.865 28.222 0 .574-.45 1.043-1 1.043s-1 .407-1 .904c0 .497-1.537 3.623-3.416 6.947-4.941 8.741-5.41 10.598-2.485 9.833 1.425-.372 2.973-.023 3.993.899 1.518 1.374 1.948 1.008 4.853-4.139 4.069-7.211 4.963-6.479 1.442 1.182-1.485 3.231-2.704 7.092-2.71 8.58-.006 1.488-.434 2.444-.951 2.125-.542-.335-.666.284-.292 1.461.546 1.72.305 1.953-1.527 1.473-1.575-.411-2.047-.182-1.713.833.255.771 1.513 1.555 2.796 1.743 1.805.263 2.014.543.922 1.234-1.083.686-1.107.898-.103.91.72.008 1 .515.622 1.127-.378.611-.079 1.488.664 1.947.808.499 1.642.367 2.071-.328.457-.739 1.096-.172 1.752 1.553 1.152 3.03 6.082 4.016 6.082 1.216 0-.825.477-1.5 1.059-1.5s.807.408.498.908c-.308.499-.139 1.961.378 3.25l.938 2.342.095-2.5c.083-2.173.255-2.292 1.314-.912.67.873 1.893 1.85 2.718 2.171.924.359 1.02.613.25.662-1.722.109-1.586 2.079.143 2.079 1.548 0 2.917 2.689 2.069 4.062-.3.485.146 1.936.99 3.225 2.426 3.702 2.994 10.709 1.214 14.97-.91 2.178-1.159 3.938-.606 4.28 1.495.924 1.096 8.089-.526 9.435-.806.669-1.433 2.637-1.393 4.372.04 1.736-.65 4.829-1.534 6.874-2.73 6.317-1.563 12.371 1.211 6.282 1.376-3.019 2.701-3.237 2.909-.478.083 1.112-.243 1.777-.725 1.479-.961-.594-6.002 8.764-6.002 11.142 0 1.175.879 1.348 4.273.839 3.542-.531 4.591-.289 6.134 1.415 1.023 1.131 2.25 1.815 2.727 1.52.476-.294.866-.111.866.407 0 1.845 4.453 2.208 5.75.469 1.644-2.204 1.58-3.293-.193-3.293-.794 0-2.067-.891-2.83-1.979-1.156-1.651-1.909-1.829-4.543-1.074-3.042.873-5.296-.142-3.198-1.439.685-.423.66-1.3-.076-2.676-.792-1.48-.793-2.349-.003-3.139.601-.601 1.093-1.878 1.093-2.837 0-3.634 4.228-7.1 7.257-5.949 1.508.574 2.743 1.442 2.743 1.93 0 .487 1.125.671 2.5.408 1.613-.309 2.5-1.147 2.5-2.362 0-1.175.705-1.883 1.878-1.883 2.527 0 4.314-2.337 3.469-4.537-.508-1.326-.343-1.579.638-.973.819.507 1.083.43.693-.202-.347-.561.248-1.816 1.322-2.788 1.074-.972 1.743-2.106 1.487-2.52-1.031-1.669 2.601-3.406 4.561-2.182 1.43.893 2.559.9 4.669.028 3.158-1.304 2.999-1.294 6.058-.366 1.251.38 2.211.319 2.132-.135-.372-2.136.294-2.905 2.682-3.103 1.424-.118 2.999-.468 3.5-.777 1.475-.912 1.042-3.445-.589-3.445-1.681 0-2.045-2.545-.5-3.5.55-.34 1-1.483 1-2.54 0-1.216.918-2.152 2.5-2.549 2.468-.62 3.696-4.411 1.429-4.411-1.835 0 1.824-2.996 3.75-3.07 1.639-.064 1.621-.156-.179-.93-1.887-.811-1.869-.863.317-.93 1.872-.056 2.196.313 1.685 1.924-.493 1.554-.275 1.856.99 1.371.893-.343 1.386-1.24 1.097-1.994-.305-.796.12-1.371 1.014-1.371 4.488 0 5.952 7.572 1.671 8.646-2.447.614-2.516.75-.738 1.446 1.08.422 3.629.799 5.664.838 2.392.045 4.038.673 4.654 1.774.82 1.465 1.337 1.53 3.679.463 3.301-1.504 4.138-.981 1.943 1.214-1.418 1.419-3.844 2.111-4.797 1.369-.177-.137-1.131.559-2.119 1.547-1.628 1.628-1.959 1.652-3.508.25-.94-.851-2.372-1.547-3.181-1.547-.809 0-1.91-.439-2.446-.975-1.088-1.088-8.425.751-8.425 2.111 0 .441.675.542 1.5.226 1.892-.726 1.932.349.083 2.198-2.149 2.149.082 7.44 3.136 7.44 1.255 0 2.281.525 2.281 1.167 0 .641-.296.87-.658.508-.362-.362-1.262-.156-2 .456-1.012.84-1.346.776-1.357-.259-.013-1.113-.188-1.1-.928.07-.621.982-.408 1.812.668 2.599.869.635 1.261 1.672.871 2.303-1.515 2.452 4.029 3.583 6.46 1.318 1.751-1.631 2.648-1.856 4.166-1.043 2.479 1.326 6.007.258 3.75-1.135-2.418-1.493-2.104-5.145.412-4.786 1.164.166 2.116.971 2.116 1.788 0 .818.841 1.649 1.868 1.846 1.161.224 1.612-.055 1.191-.736-.372-.603-.236-1.096.303-1.096.538 0 1.27 1.325 1.626 2.945.487 2.22 1.493 3.224 4.089 4.08 1.893.625 3.205 1.518 2.916 1.986-.288.467.945.827 2.741.8 8.413-.127 14.364 2.465 10.766 4.689-.55.34-1 1.941-1 3.559s-.45 2.941-1 2.941-1-.463-1-1.03c0-.566-1.265-.095-2.81 1.048-3.087 2.282-5.511 2.712-8.94 1.586-1.752-.575-2.25-.355-2.25.995 0 .954-.284 1.45-.631 1.103-1.149-1.149-4.369 1.332-4.369 3.365 0 2.021.462 2.324 5.066 3.322 1.411.306 3.606 1.459 4.879 2.563 1.272 1.104 2.817 1.695 3.432 1.315.616-.38 2.825-.779 4.909-.886 3.392-.175 3.722.018 3.145 1.837-.43 1.354-.276 1.804.462 1.348.663-.409 1.157.143 1.232 1.375.069 1.132.22 2.397.336 2.809.426 1.511 1.749 4.809 2.833 7.065.88 1.83.809 2.508-.34 3.235-1.184.748-1.103.922.436.935 1.039.008 2.401.714 3.026 1.569 2.044 2.795 4.172.812 3.76-3.505-.272-2.852-.752-3.765-1.774-3.373-1.875.719-1.773.066.627-4.001 1.756-2.976 1.823-3.518.5-4.025-2.001-.768-1.999-4.65.002-4.65.843 0 1.791-.675 2.107-1.5.317-.825 1.135-1.5 1.819-1.5 1.361 0 1.418 8.126.079 11.25-.449 1.047-.318 1.75.326 1.75.594 0 .788.748.433 1.674-.487 1.268-.237 1.518 1.031 1.031 2.129-.817 2.134.129.013 2.472-.913 1.01-1.388 2.108-1.055 2.44.333.333 1.703-.579 3.045-2.027 2.636-2.844 3.671-2.048 3.671 2.825 0 2.926.984 3.843 2.645 2.464.754-.625 2.093-.767 3.092-.327 2.557 1.125 3.621 1.176 4.895.235.623-.46 2.423-.82 4-.799 1.578.021 3.543-.024 4.368-.101.825-.076 2.805.209 4.399.633 2.079.554 2.699.448 2.191-.374-.866-1.402 5.072-1.8 10.91-.733 2.379.435 5.5 2.775 5.5 4.122 0 .806.337 1.458.75 1.45 2.143-.044 3.346-2.069 3.311-5.575-.021-2.15.198-27.535.487-56.41.306-30.621.156-51.952-.36-51.185-.984 1.46-4.195-10.178-4.191-15.187.003-2.332.263-2.657 1.386-1.725 1.071.889 1.523.785 2-.459.889-2.316.916-2.288-2.556-2.631-2.537-.25-3.355-.914-4.079-3.313-.499-1.65-1.163-3.675-1.477-4.5-.315-.825-.74-2.38-.946-3.455-.206-1.075-1.601-3.936-3.1-6.359-1.499-2.422-3.15-5.21-3.669-6.195-.519-.985-2.769-2.329-5-2.987-2.231-.658-5.602-2.142-7.491-3.296-2.385-1.458-3.556-1.734-3.833-.904-.219.658-1.645 1.196-3.169 1.196s-3.899 1.046-5.278 2.323c-1.944 1.802-3.026 2.132-4.818 1.469-1.572-.581-2.558-.454-3.084.398-.426.689-1.136.891-1.577.449-.442-.441.07-1.441 1.137-2.221 3.685-2.695-2.18-1.681-7.467 1.29l-4.818 2.709-2.046-2.459c-2.297-2.761-2.616-3.958-1.053-3.958.582 0 .781-.45.441-1s-1.604-1.007-2.809-1.015c-1.822-.013-1.938-.194-.691-1.076 1.129-.799 1.191-1.187.25-1.568-.688-.279-1.25-1.28-1.25-2.224 0-2.414-1.983-4.117-4.794-4.117-1.552 0-2.577-.703-2.916-2-.612-2.338-1.149-2.422-3.6-.564-1.166.884-1.427 1.609-.734 2.037 1.696 1.048.255 2.395-1.946 1.819-1.093-.285-1.766-.878-1.496-1.315 1.583-2.561-.776-3.624-3.033-1.367-2.353 2.353-5.188 3.343-3.981 1.39.34-.55-.057-1-.882-1s-1.778.45-2.118 1c-.34.55.187 1 1.172 1 1.426 0 1.14.65-1.409 3.199-3.721 3.72-5.26 3.339-2.204-.546 1.147-1.459 1.603-2.653 1.014-2.653-2.221 0-.952-2.642 2.177-4.534l3.25-1.966-3.176-.308c-1.796-.174-4.93.587-7.211 1.75-4.855 2.477-5.226 2.515-4.436.457 1.061-2.766-4.486.734-10.702 6.752-3.039 2.942-6.751 5.902-8.25 6.578-2.617 1.18-2.725 1.115-2.725-1.628 0-1.844-.798-3.399-2.25-4.384-1.811-1.229-2.006-1.779-1-2.822 3.307-3.427-3.09-10.797-12.25-14.112-1.1-.398 8.8-.526 22-.284 37.694.692 121.711.493 122.913-.291.598-.389-14.213-.933-32.913-1.208-57.167-.841-290.961-1.128-290.189-.356m181.242 14.271c-.311.503 0 1.125.691 1.383.837.313.639.723-.595 1.231-1.193.491-2.161.266-2.724-.633-.91-1.455-1.431-1.226-16.839 7.405-4.908 2.75-5.209 3.109-3.222 3.844 2.096.776 1.994 1.006-2.336 5.275-2.49 2.455-4.528 4.94-4.528 5.522 0 .582-.675 1.058-1.5 1.058s-1.5.477-1.5 1.059-.401.811-.891.509c-.489-.303-1.598.529-2.462 1.848-1.413 2.157-1.416 2.459-.028 2.991 2.152.826 2.381.763 2.381-.657.001-.687 2.258-3.194 5.017-5.569 2.758-2.376 4.788-4.688 4.51-5.137-.278-.45.113-1.33.867-1.956 2.026-1.682 2.946 1.429.998 3.377-.837.837-1.745 2.749-2.016 4.248-.272 1.498-.982 3.312-1.578 4.03-.596.718-.8 1.588-.455 1.934.346.346 1.591-.595 2.766-2.089 2.807-3.567 8.176-8.578 9.2-8.583.445-.003.529-.458.187-1.012-.343-.554.126-1.295 1.042-1.646.917-.352 2.021-.061 2.46.649.617.999 1.478.801 3.841-.881 1.675-1.193 4.646-2.838 6.603-3.655 1.957-.818 3.558-1.931 3.558-2.473 0-1.413-2.051-1.209-5.399.537-1.594.831-3.078 1.332-3.297 1.113-.73-.73 2.814-3.637 4.434-3.637.877 0 1.279-.316.893-.702-.386-.386-2.261-.597-4.166-.469-1.906.129-3.465-.028-3.465-.349 0-1.007 7.146-3.618 10.137-3.703 3.977-.113 4.39-5.777.422-5.777-1.343 0-2.695.412-3.006.915m8.197 25.751c-2.613 1.937-4.75 3.929-4.75 4.428 0 .498-.605.906-1.345.906-1.767 0-4.234 2.871-5.153 6-.594 2.019-6.672 13.085-8.223 14.971-.213.259-.725-.074-1.136-.74-.483-.782-1.142-.063-1.859 2.029-2.386 6.964-2.4 7.311-.283 7.311 1.099 0 1.999-.353 1.999-.785 0-.432.435-.786.968-.786.578 0 .639.889.152 2.206-.449 1.213-.398 3.801.114 5.75.512 1.949 1.006 4.632 1.098 5.961.248 3.57 2.167 3.596 4.683.063 2.08-2.923 5.523-5.012 8.985-5.454.825-.106 2.625-.559 4-1.007 2.358-.769 2.387-.859.5-1.597-1.762-.688-1.785-.79-.199-.852 2.434-.095 5.255-6.695 3.676-8.598-.618-.744-1.765-1.107-2.55-.806-.785.302-1.427.023-1.427-.618s-.45-.888-1-.548c-.55.34-1 .106-1-.519 0-.706-1.423-1.013-3.75-.809-3.053.267-3.735.003-3.667-1.422.366-7.67.44-7.955 1.917-7.388.825.316 1.5.113 1.5-.452 0-.566.39-.787.866-.493.476.294.649 1.784.384 3.309-.466 2.687-.431 2.711 1.103.774.871-1.1 1.598-1.49 1.615-.867.055 1.938 5.032 2.361 5.032.428 0-.913.54-2.201 1.2-2.861 1.605-1.605.632-1.513-2.79.262-3.093 1.605-4.275 1.299-2.659-.688 3.463-4.26 5.016-8.431 3.495-9.39-1.356-.856-1.343-1.144.115-2.602.901-.901 1.639-2.121 1.639-2.711 0-.589.418-1.071.929-1.071 1.202 0 4.071-2.869 4.071-4.071 0-1.89-3.636-.684-8.25 2.737m13.576.648c-4.046 4.102-6.651 9.686-4.518 9.686.564 0 1.232-.562 1.484-1.25.366-1 .723-1 1.783 0 1.097 1.035 1.075 1.255-.125 1.282-1.038.023-.883.46.545 1.539 1.712 1.294 1.783 1.642.5 2.453-2.593 1.64.487 1.054 4.356-.828 2.04-.992 3.422-2.089 3.073-2.439-.35-.35.537-1.809 1.97-3.242 3.99-3.99 2.664-8.128-2.196-6.857-2.214.58-3.086-.991-1.198-2.158.55-.34 1-1.041 1-1.559 0-2.025-2.688-.666-6.674 3.373m-.151 25.414c-5.241 5.884-8.432 18.272-4.707 18.272 1.27 0 1.336.341.365 1.896-.955 1.529-.866 2.214.461 3.541 1.527 1.527 1.766 1.372 3.325-2.146.924-2.085 1.725-4.415 1.78-5.179.056-.763 1.001-1.888 2.101-2.5 1.1-.611 2.36-1.674 2.8-2.362 1.42-2.22 2.95-1.384 2.289 1.25-.345 1.375-.281 2.494.142 2.487 1.107-.018 8.38-11.21 7.716-11.874-.306-.305-.925.042-1.376.773-.501.81-1.06.94-1.435.334-.338-.546.056-1.549.875-2.229.819-.68 1.471-1.743 1.448-2.363-.022-.621-1.322.371-2.89 2.202-1.908 2.231-3.002 2.891-3.314 2-.329-.942-1.107-.6-2.663 1.17-2.141 2.436-2.182 2.442-1.577.25.44-1.599.192-2.25-.86-2.25-.988 0-1.387-.838-1.202-2.524.386-3.517-.61-3.744-3.278-.748m-115.538 15.338c-.338 1.687-1.018 2.817-1.512 2.511-.494-.305-1.418.071-2.053.837-.813.978-.833 1.499-.07 1.753.642.214.299 1.206-.842 2.431-1.061 1.138-2.233 3.459-2.606 5.157-.373 1.698-1.764 4.258-3.09 5.69-1.327 1.431-2.393 2.704-2.368 2.829.025.124-.454 1.539-1.064 3.143-1.243 3.268-.148 4.688 2.984 3.869 1.866-.488 8.078-13.522 7.762-16.286-.095-.825.769-3.525 1.918-6 2.816-6.062 3.63-9 2.496-9-.518 0-1.218 1.38-1.555 3.066m102.397 70.696c-1.357 2.056-2.347 4.142-2.201 4.636.146.494-.432 2.641-1.284 4.77-1.926 4.814-1.94 5.832-.08 5.832.807 0 1.273.563 1.034 1.25-.875 2.52-1.18 9.75-.411 9.75 1.139 0 3.685-9.431 2.66-9.851-.472-.193-.169-.868.673-1.5.889-.667 1.774-3.456 2.109-6.649.318-3.025.776-6.963 1.017-8.75.572-4.245-.479-4.092-3.517.512m-109.116 5.988c-.045.412-.283 1.964-.527 3.448-.539 3.264 2.927 13.583 5.095 15.168.856.626 1.793 2.444 2.083 4.041.289 1.596.994 3.777 1.566 4.845 1.015 1.897 1.076 1.891 2.567-.237 1.383-1.974 1.353-2.575-.31-6.348-1.01-2.292-2.122-4.392-2.469-4.667-1.293-1.021-3.047-8.034-2.467-9.86.425-1.341.028-2.042-1.363-2.405-1.425-.373-1.812-1.093-1.412-2.624.394-1.505.088-2.111-1.064-2.111-.89 0-1.654.338-1.699.75m132.629 9.989c-.266.693-.048 1.317.484 1.386 1.045.135 2.519.479 3.719.868.413.134-.6.53-2.25.88-3.139.666-5.233 5.993-2.307 5.868 5.181-.222 6.172.51 2.307 1.703-4.154 1.282-5.82 4.105-3.348 5.671 1.044.661.953.858-.402.87-1.207.01-1.75.809-1.75 2.574 0 1.451.433 2.292 1 1.941.55-.34 1 .084 1 .941s-.73 1.559-1.622 1.559c-1.329 0-1.398.271-.378 1.5 1.383 1.667 3.477 2.08 2.496.493-.343-.554.081-1.277.941-1.607.859-.33 1.563-1.034 1.563-1.564 0-2.587 4.931-5.089 5.068-2.572.037.688.571.203 1.186-1.076.884-1.837.817-2.516-.317-3.234-1.169-.74-1.098-.912.38-.925 1.921-.016 1.511-3.809-.555-5.138-.608-.391-.532-1.438.204-2.814.859-1.604.877-2.547.068-3.522-.607-.732-1.035-1.715-.951-2.186.424-2.359-.346-3.111-3.068-2.999-1.641.067-3.202.689-3.468 1.383M187.902 270.25c-.588 1.502-.366 9.75.263 9.75 1.405 0 .928 6.423-.644 8.666-1.348 1.926-1.303 2.158.51 2.632 1.681.439 1.838.916 1.017 3.076-.621 1.634-.625 2.77-.01 3.15.529.327.962 2.169.962 4.094 0 2.116.402 3.252 1.016 2.872.559-.346.746-1.067.414-1.603-.331-.536-.063-1.624.596-2.418s.946-2.098.639-2.899c-.307-.8-.137-2.926.379-4.722.602-2.101.583-3.621-.054-4.258-.544-.544-.99-2.896-.99-5.225 0-2.329-.439-5.389-.975-6.8-.637-1.676-.635-2.565.008-2.565.557 0 .442-.869-.265-2-1.067-1.708-2.532-2.603-2.866-1.75" fill="#d3d3d3" fill-rule="evenodd"/></svg>