<svg xmlns="http://www.w3.org/2000/svg" width="500" height="401"><path d="M20 59.615V99.23l2.25-1.419c2.736-1.725 5.861-1.263 5.088.752-.36.936.105 1.437 1.333 1.437 3.887 0 6.268 2.725 5.308 6.074-.524 1.827-.496 4.067.07 5.555.522 1.372 1.239 5.617 1.593 9.433.505 5.427.995 6.941 2.252 6.953 1.245.012 1.31.203.29.85-.725.46-1.478 1.69-1.674 2.735-.196 1.045-.448 2.013-.558 2.15-.111.137-.258.813-.327 1.5-.083.829-2.368 1.349-6.793 1.544-6.144.271-6.628.143-6.168-1.618.275-1.052-.19-3.884-1.034-6.294-1.426-4.073-1.538-1.442-1.582 37.261-.042 36.123.151 41.719 1.452 42.219 1.252.48 1.5 3.39 1.5 17.607 0 15.192-.692 19.861-2.338 15.781-.277-.687-.54 30.363-.583 69L20 381l229.445-.006c126.195-.004 229.668-.368 229.941-.81.273-.441.225-81.663-.106-180.493L478.677 20H20v39.615m2.412 55.754c-.289.753-.388 3.791-.219 6.75.299 5.244.383 5.381 3.307 5.381 2.35 0 3.069-.488 3.32-2.25.175-1.237.625-2.252 1-2.254.374-.003.757-1.522.85-3.376.137-2.701-.32-3.595-2.297-4.496-3.295-1.501-5.323-1.418-5.961.245m349.372 11.278c-2.043 2.119-5.974 5.653-8.735 7.853-4.257 3.392-7.107 6.89-4.098 5.03.523-.323 2.568-.648 4.544-.722 2.553-.096 3.445-.522 3.081-1.472-.285-.741.141-1.336.955-1.336.808 0 1.469.623 1.469 1.383 0 1.54 5.048 2.9 6.295 1.695.437-.422.662-4.259.5-8.526l-.295-7.757-3.716 3.852m-22.143 20.613c-6.103 5.752-6.488 6.355-4.756 7.436 1.577.985 2.26.779 4.174-1.259 3.103-3.303 5.266-3.065 6.701.737 1.188 3.149 1.214 3.159 3.296 1.276 1.157-1.048 1.615-2.06 1.021-2.258-1.478-.492-1.359-2.912.173-3.53.949-.382.956-.523.031-.583-.67-.043-.959-.754-.643-1.579.407-1.061-.086-1.5-1.686-1.5-2.129 0-2.165-.108-.605-1.831 1.517-1.676 1.341-3.169-.373-3.169-.381 0-3.681 2.817-7.333 6.26m-190.174 203.9c.37 2.387 1.057 5.69 1.526 7.34.469 1.65 1.148 6.038 1.509 9.75.546 5.61.963 6.75 2.471 6.75.997 0 2.083-.704 2.413-1.563.33-.86.991-1.322 1.469-1.027.478.296 2.619-.083 4.757-.842 2.138-.758 7.989-2.622 13.001-4.141 7.645-2.317 9.036-3.053 8.639-4.573-.429-1.637-.678-1.669-2.586-.333-2.844 1.993-3.39 1.884-4.884-.968-.705-1.345-1.704-2.458-2.219-2.472-1.341-.037-1.612-3.081-.275-3.081.733 0 .68-.427-.155-1.25-1.016-1.002-1.552-.865-2.701.691-1.427 1.934-3.357 2.712-6.682 2.693-.963-.005-1.75.46-1.75 1.035s-.675.786-1.5.469c-.865-.332-1.5-.018-1.5.74 0 .724-.9 2.354-2 3.622-1.597 1.841-2 1.973-2 .653 0-.909.45-1.653 1-1.653s1-.45 1-1-.338-.947-.75-.882c-3.269.517-4.509-2.459-2.05-4.918.933-.933.85-1.2-.375-1.2-.944 0-1.811-1.181-2.164-2.946-.324-1.62-1.552-3.46-2.728-4.09-2.072-1.109-2.118-1.007-1.466 3.196" fill="#d3d3d3" fill-rule="evenodd"/></svg>