<svg xmlns="http://www.w3.org/2000/svg" width="500" height="500"><path d="M.069 82.004C.139 132.669.543 164 1.127 164c.56 0 .523.786-.092 1.934-1.372 2.564-1.316 5.806.108 6.28.811.271.847.95.122 2.334-1.587 3.031-1.629 26.604-.049 27.606.999.635 1.007.819.034.831-1.828.022-1.828 96.615 0 97.353.991.4.988.52-.013.583C-.321 301.018-.494 392 1.063 392c.516 0 .937.477.937 1.059s-.443.785-.984.451c-.64-.396-.989 18.082-.998 52.941l-.014 53.548 155.091-.021c137.675-.019 155.262-.192 156.617-1.547 1.368-1.368 1.701-1.367 3.218.006 1.172 1.06 3.152 1.416 6.438 1.157 5.837-.46 6.678-1.16 3.261-2.717-2.682-1.222-3.366-2.446-1.701-3.044.511-.183.317-1.458-.431-2.833l-1.359-2.5.079 3.106c.101 3.962-1.107 6.189-2.306 4.251-.461-.746-1.417-1.367-2.125-1.379-.707-.013-1.154-.8-.992-1.75.161-.951-.192-1.728-.785-1.728-.73 0-.767-.583-.114-1.804 1.088-2.033-.129-4.787-1.689-3.823-.56.346-.799 1.466-.532 2.49.3 1.145-.156 2.108-1.184 2.502-2.112.811-3.778-.173-3.134-1.851.271-.707-.208-2.285-1.065-3.509-1.48-2.113-1.451-2.191.575-1.547 2.96.939 2.67-.702-.374-2.114-1.953-.906-2.492-.882-2.492.111 0 .819-.901 1.095-2.542.782-2.443-.467-2.534-1.737-.125-1.737.642 0 1.309-1.238 1.483-2.75.187-1.617-.166-2.75-.857-2.75-.645 0-.919-.661-.61-1.468.31-.807.126-1.738-.409-2.069-.535-.331-.711-1.024-.392-1.541.772-1.249-.434-4.922-1.615-4.922-.513 0-.933.675-.933 1.5s-.375 1.5-.833 1.5c-.458 0-.72-1.012-.583-2.25s.287-3.289.333-4.559c.046-1.27.495-2.055.998-1.744.503.311 1.142 0 1.421-.691.278-.691.549-.131.6 1.244.091 2.396 2.001 6.562 2.064 4.5.017-.55.467-.325 1 .5.828 1.282.972 1.246.985-.25.009-1.078.783-1.75 2.015-1.75 2.343 0 2.667-1.53.5-2.362-.825-.316-1.5-1.291-1.5-2.166 0-.874-.342-1.378-.761-1.12-.419.259-1.581-.129-2.584-.862-1.722-1.26-1.673-1.432.882-3.106 1.488-.975 3.47-1.829 4.404-1.898.934-.069 2.792-1.219 4.129-2.556l2.43-2.43.322 2.812c.254 2.215.606 2.578 1.656 1.706.795-.659 1.145-2.301.868-4.062-.389-2.469-.127-2.956 1.594-2.956 1.372 0 2.06.648 2.06 1.941 0 3.032 1.714 3.336 2.442.434.36-1.436.918-2.349 1.238-2.028.909.909 4.448-1.33 3.789-2.397-.323-.523-.125-.95.441-.95.565 0 .768-.675.452-1.5-.883-2.3-3.625-1.906-2.889.416.335 1.054.14 2.205-.432 2.559-.887.548-1.596-2.958-1.159-5.725.065-.413-.332-.75-.882-.75s-1.052 1.012-1.116 2.25c-.087 1.693-.229 1.817-.573.5-.48-1.834-2.311-2.454-2.311-.781 0 .532-.675.709-1.5.393-.825-.317-1.5-.12-1.5.437 0 .558-.833.796-1.851.53s-2.48.113-3.25.843c-.769.731-2.299 1.407-3.399 1.503-1.1.097-5.825 1.106-10.5 2.243-49.154 11.954-102.509 5.807-148.437-17.102-5.834-2.911-25.534-14.622-26.563-15.791-.275-.313-4.59-3.804-9.59-7.758-29.602-23.411-54.975-59.823-66.036-94.767-1.915-6.05-3.853-11.9-4.307-13-.949-2.302-2.833-13.503-4.163-24.75-3.012-25.476-.451-55.885 6.717-79.75 1.404-4.675 2.61-9.287 2.68-10.25.07-.963.481-1.75.913-1.75.432 0 .786-.638.786-1.417s.884-3.479 1.964-6c1.283-2.992 1.565-4.583.812-4.583-.634 0-.111-.971 1.163-2.158 1.274-1.187 3.467-4.674 4.873-7.75 1.406-3.076 3.164-6.202 3.906-6.947.797-.8 1.085-2.235.704-3.5-1.13-3.75-2.422-4.232-2.422-.904 0 3.486-1.753 5.272-3.08 3.137-.499-.803-.452-1.517.112-1.711.532-.184.932-1.084.889-2-.049-1.04-.269-1.197-.583-.417-.886 2.195-1.835 1.341-1.944-1.752-.103-2.891.905-3.941 2.032-2.117.995 1.61 5.697 1.962 6.27.47.384-1.003.895-1.105 1.794-.359.928.77 1.72.319 3.027-1.725.973-1.522 4.517-6.525 7.876-11.119 3.359-4.593 5.995-8.756 5.857-9.25-.137-.494.452-.898 1.309-.898s1.294-.429.969-.954c-1.039-1.682.592-6.326 1.799-5.119 1.876 1.876 2.79 1.156 1.494-1.177-.688-1.237-1.266-2.55-1.286-2.917-.019-.366-.373-1.004-.785-1.416-1.393-1.394-.762-2.417 1.5-2.432 1.643-.011 1.884-.247.893-.875-1.851-1.173.349-2.521 2.655-1.627 1.558.604 1.538.781-.239 2.088-1.068.786-1.518 1.436-1 1.444.517.009.345.393-.383.855-1.069.678-1.005 1.158.331 2.494 2.04 2.04 3.485 1.322 2.779-1.38-.406-1.552-.153-1.87 1.102-1.389 2.294.881 11.697-8.268 9.755-9.491-1.043-.657-1.075-1.028-.138-1.607.679-.42 1.62-.143 2.126.625.74 1.124 1.18 1.021 2.388-.563 1.695-2.221 1.967-3.977.473-3.054-.554.342-1.667-.037-2.474-.844-1.289-1.289-1.288-1.535.008-2.032.811-.312 1.474-.183 1.474.286 0 1.05 3.052 1.91 4.75 1.339 2.41-.811 1.306-3.253-1.5-3.317-2.586-.06-2.619-.116-.565-.944 1.201-.484 2.686-1.818 3.3-2.965 1.655-3.093 3.019-1.528 1.941 2.229-1.23 4.291-1.219 4.318.975 2.333 1.046-.947 2.187-3.246 2.537-5.11.478-2.551 1.026-3.239 2.215-2.783 1.325.508 1.399.27.463-1.48C120.74 75.646 120.717 75 122 75c.55 0 1.007 1.013 1.015 2.25.013 1.865.198 1.994 1.081.75.812-1.142.913-.806.425 1.412-.635 2.889-.623 2.898 1.669 1.212 1.271-.934 3.545-2.469 5.054-3.411 1.509-.942 2.746-2.5 2.75-3.463.009-2.488-1.89-2.168-2.963.5l-.904 2.25-.064-2.191c-.034-1.205-.493-2.457-1.019-2.782-1.266-.782-.276-3.224 1.599-3.943 1.141-.438 1.341-.049.857 1.672-.494 1.758-.404 1.919.419.744.771-1.101 1.054-1.152 1.066-.191.008.72.465 1.031 1.015.691.55-.34 1 .309 1 1.441 0 1.132.346 2.059.768 2.059 1.715 0 8.232-5.174 8.232-6.536 0-1.787 1.654-1.941 2.303-.214.277.738.858.258 1.418-1.171.622-1.585 1.2-2.016 1.675-1.247.524.848 1.271.882 2.693.121 1.082-.58 1.703-1.481 1.38-2.003-.323-.523.115-1.006.972-1.075 1.914-.153 2.575-.335 4.835-1.328 1.408-.619 1.53-1.075.592-2.206-.841-1.013-.873-1.736-.113-2.496 1.299-1.299 3.245-.271 3.245 1.714 0 1.688.418 1.766 2.764.514 2.527-1.349 5.623-2.414 6.486-2.232.869.184 1.009-.922.77-6.091-.099-2.158.292-3.75.923-3.75.621 0 .901 1.076.646 2.484-.248 1.366-.024 2.747.496 3.069.521.322.641 1.081.267 1.686-.444.719-.074.868 1.066.431.96-.369 1.96-.67 2.223-.67.262 0 .152-.526-.246-1.17-.5-.808-.156-.952 1.111-.466 2.88 1.105 3.546-1.375 1.216-4.527-2.424-3.277-3.392-3.538-4.033-1.087-.349 1.335-.485 1.224-.573-.469-.08-1.538-.576-2.042-1.616-1.643-.95.365-1.5-.013-1.5-1.031 0-.956.835-1.607 2.059-1.607 1.243 0 1.79.436 1.379 1.1-.483.781-.134.807 1.206.091 1.344-.72 2.398-.634 3.673.299 1.338.979 1.461 1.439.486 1.83-.798.32-.58.553.564.601 1.475.062 1.764-.457 1.377-2.479-.358-1.872-.124-2.418.87-2.037 1.055.405 1.251-.419.879-3.692-.375-3.29-.247-3.821.585-2.423 1.814 3.046 1.793 11.696-.028 11.789-1.03.052-1.131.248-.3.583.687.278 1.25 1.142 1.25 1.921 0 1.941 2.641 1.794 3.402-.189.446-1.161 1.33-1.427 3.192-.96 2.919.733 6.406-.095 6.406-1.52 0-.524-1.099-.676-2.443-.339-3.625.91-5.049-.374-2.967-2.674 2.068-2.285 3.41-2.443 3.41-.401 0 .825.627 1.5 1.393 1.5s1.659.694 1.985 1.543c.429 1.118 1.078 1.291 2.357.625 1.925-1.001 12.941-2.658 15.115-2.273.743.131 1.073-.21.734-.759a1.188 1.188 0 0 1 .4-1.626c.559-.345 1.016-.151 1.016.431S222.152 43 223.559 43c1.407 0 2.351-.337 2.096-.75-.471-.764 5.973-1.072 23.845-1.139 25.493-.095 48.159 3.792 72.197 12.384 8.667 3.098 9.735 3.24 9.421 1.255-.275-1.744 3.115-.574 3.589 1.239.286 1.094.918 1.743 1.403 1.443 1.717-1.061 4.89-1.304 4.89-.375 0 .519-.45.943-1 .943s-1 .505-1 1.122c0 .806.4.791 1.416-.052 1.131-.939 1.547-.762 2.067.877.755 2.377 2.517 2.764 2.517.553 0-.825.502-1.5 1.117-1.5.651 0 .917 1.041.638 2.5-.32 1.676-.029 2.5.884 2.5.748 0 1.361.525 1.361 1.167 0 .641.281.886.623.543.343-.343 2.143.535 4 1.952 1.858 1.416 3.384 2.184 3.392 1.707.009-.478.346-.396.75.183.932 1.333 10.069 7.448 11.13 7.448.437 0 1.612.903 2.611 2.007.999 1.104 2.306 1.95 2.905 1.881 2.625-.302 3.589.237 3.589 2.005 0 1.041.675 2.152 1.5 2.469.825.316 1.5.113 1.5-.452 0-.566.498-.72 1.107-.344.791.489.76.898-.107 1.434-.867.536-.898.945-.107 1.434.609.376 1.107.207 1.107-.375S383.73 86 384.622 86c1.392 0 1.429.233.258 1.644-1.214 1.463-1.114 1.565.903.925 1.624-.516 2.189-.344 1.992.606-.153.736.503 1.263 1.475 1.186.962-.076 1.75.518 1.75 1.322 0 3.114 4.283 5.551 5.391 3.067.307-.687.501-.35.432.75s.364 3.125.962 4.5c.599 1.375 1.117 1.977 1.152 1.337.047-.863.901-.889 3.313-.099 1.787.586 3.841 1.219 4.563 1.407.723.187 1.034.794.691 1.348-.342.554.17 1.007 1.137 1.007 1.401 0 1.506.253.517 1.242-.988.988-1.415.961-2.092-.135-.68-1.1-1.068-.973-1.926.632-.861 1.608-.687 2.361.872 3.771 1.87 1.693 2.023 1.668 3.883-.624l1.936-2.386.708 2.81c.48 1.905 1.177 2.629 2.166 2.25.802-.308 1.633-.56 1.845-.56.213 0 .12-.697-.207-1.548-.344-.897.195-2.131 1.282-2.933 1.503-1.109 1.627-1.636.625-2.652-.687-.697-1.25-1.938-1.25-2.758 0-1.143.316-1.059 1.355.362.83 1.135 1.993 1.609 3 1.223.905-.347 1.645-.147 1.645.444 0 .592.675.817 1.5.5.825-.316 1.5-.139 1.5.393 0 .533.372.969.827.969.455 0 .622-1.396.371-3.101-.322-2.2-.704-2.709-1.311-1.75-.585.923-.856.401-.856-1.649 0-1.812.308-2.515.778-1.775.428.673 1.883 1.427 3.234 1.675 1.352.248 2.602.485 2.778.526.177.041-.385.781-1.25 1.645-1.786 1.787-1.994 3.05-.639 3.887.512.316 1.581-.352 2.375-1.486 1.35-1.928 1.49-1.945 2.141-.267.651 1.677.774 1.662 1.874-.239.648-1.118 1.741-1.962 2.428-1.875.688.088 2.225.215 3.417.284 1.191.069 1.829.463 1.416.875-.791.792-1.336.924-4.633 1.125-1.617.099-1.85.481-1.107 1.81.618 1.103.549 2.321-.2 3.53-.889 1.435-.836 2.037.235 2.704.758.471 1.081 1.338.718 1.926-.936 1.515-3.82.181-3.185-1.474.289-.754.128-1.371-.359-1.371s-1.112.563-1.39 1.25c-.277.688-.54-.036-.583-1.607-.059-2.119.3-2.711 1.389-2.294.807.31 1.736.13 2.063-.4 1.277-2.066-2.712-2.128-4.896-.076-2.219 2.084-5.286 2.989-4.205 1.24.301-.487-.044-1.378-.768-1.979-1.007-.836-1.863-.354-3.642 2.052-1.774 2.4-1.933 2.995-.672 2.511 1.84-.707 2.279.797.545 1.869-.789.488-.755.901.119 1.441.853.528.275 1.461-1.904 3.071l-3.129 2.313 2.761 1.223c1.655.734 2.109 1.256 1.132 1.305-3.682.184-4.145 2.819-.914 5.208 3.363 2.486 8.72 3.78 7.504 1.812-.494-.8-.061-.946 1.413-.479 1.233.392 2.125.24 2.125-.361 0-.57.675-.777 1.5-.461.825.317 1.5.063 1.5-.563 0-.627-1.012-1.53-2.25-2.007-1.957-.755-2.028-.957-.548-1.556.936-.379 2.159-.407 2.717-.062.559.345 1.589-.29 2.289-1.411 1.712-2.743 2.611-2.569 2.436.471-.084 1.461-.632 2.324-1.311 2.063-.642-.246-1.435.25-1.762 1.101-.424 1.106-.147 1.377.97.949 1.023-.393 1.316-.2.847.558-.463.749-.184.955.789.581.827-.317 2.139-.175 2.914.315 1.138.721 1.072.895-.341.908-1.572.013-2.207 1.123-1.868 3.265.271 1.716-1.691.587-2.172-1.25-.532-2.034-4.71-2.921-4.71-1 0 .55-.675 1-1.5 1s-1.5.505-1.5 1.122c0 .794-.424.771-1.448-.079-.944-.783-2.018-.882-3.089-.282-1.501.84-1.484 1.075.198 2.757 1.011 1.012 1.839 2.209 1.839 2.661 0 .451.45.795 1 .762.55-.032.937-.707.861-1.5-.231-2.398 1.622-1.616 2.664 1.124 1.289 3.392 1.23 4.09-.225 2.635-1.366-1.366-2.8-1.579-2.8-.416 0 1.16 5.613 4.27 6.36 3.523.352-.352.64-.153.64.443s-.563 1.346-1.25 1.667c-.904.422-.933.735-.106 1.131.629.301.912 1.433.629 2.515-.382 1.462-.122 1.816 1.016 1.38 1.773-.681 3.1 2.379 2.13 4.908-.381.993-.023 1.864.914 2.223.847.325 1.297 1.225 1 2-.297.775.207 1.696 1.121 2.047.913.35 1.424 1.254 1.135 2.008-.289.754-.064 1.371.501 1.371.566 0 .738.47.383 1.044-.355.574-.235 1.586.265 2.25.501.663 1.745 4.047 2.764 7.52 1.75 5.961 1.996 6.278 4.398 5.675 2.482-.623 2.501-.589.753 1.342-1.724 1.905-1.723 2.273.027 9.569 1.239 5.165 2.299 7.616 3.32 7.673.825.047 1.011.287.413.535-.732.303-.821 1.991-.272 5.171a341.195 341.195 0 0 1 1.502 9.721c.377 2.75 1.399 5.591 2.271 6.313 1.185.981 1.27 1.444.336 1.833-1.819.757-1.202 20.37.639 20.346.841-.011 3.111-5.049 3.111-6.906 0-1.316.21-1.305 1.603.088 1.95 1.951 1.027 5.79-1.42 5.905-1.041.049-1.206.271-.433.583.687.278 1.25.903 1.25 1.39 0 .487-.617.648-1.371.359-1.687-.647-4.887 2.363-4.013 3.776.405.655.985.536 1.603-.33.739-1.034.836-.94.407.393-.363 1.128-.041 1.75.905 1.75.808 0 1.469.9 1.469 2s-.498 2-1.107 2-.862-.638-.563-1.417a1.534 1.534 0 0 0-.893-1.969c-1.016-.39-1.437.19-1.437 1.976 0 1.656.398 2.282 1.155 1.815.738-.457.882-.273.399.508-.481.777.009 1.421 1.345 1.771 2.81.735 2.693 2.355-.149 2.054-1.787-.189-2.189.207-1.952 1.923.164 1.189-.256 2.504-.934 2.923-.883.546-.685.975.702 1.518 1.731.678 1.684.765-.447.828-2.154.063-2.327.403-1.813 3.57.313 1.925.239 3.5-.164 3.5s-.834 1.496-.957 3.325c-.123 1.828-.634 4.753-1.135 6.5-.557 1.944-.55 3.175.02 3.175.511 0 .93.675.93 1.5s-.585 1.5-1.3 1.5c-.777 0-1.897 2.584-2.786 6.432-1.532 6.628-1.117 8.581 2.086 9.827 1.172.456 1.105.6-.309.662-.995.043-1.55.498-1.234 1.01.317.512.118 1.213-.441 1.559-.559.345-1.016-.272-1.016-1.372s-.465-2.287-1.032-2.638c-.661-.408-.892.641-.641 2.913.215 1.953.055 3.343-.355 3.09-.41-.254-.684.321-.609 1.278.078.993-.452 1.614-1.236 1.448-.862-.183-1.157.27-.793 1.218.318.83.148 1.775-.378 2.1-1.998 1.235-.83 3.452 2.294 4.354 1.787.516 2.702.979 2.031 1.029-.709.052-.955.777-.587 1.735.387 1.007-.11 2.221-1.282 3.134-1.629 1.27-1.653 1.401-.162.887 1.464-.505 1.745.004 1.718 3.115-.03 3.487-.123 3.598-1.5 1.778-1.035-1.368-1.459-1.516-1.436-.5.017.792.692 2.315 1.5 3.382 1.36 1.799 1.468 1.809 1.468.143 0-1.187.509-1.603 1.5-1.222.825.316 1.5.124 1.5-.429 0-.649.706-.626 2 .067 2.603 1.393 2.603 3.326 0 2.5-1.461-.464-2-.18-2 1.055 0 1.389-.267 1.468-1.5.445-.825-.685-1.5-.802-1.5-.261s-1.151.764-2.558.495c-1.649-.316-2.371-.977-2.031-1.862.614-1.6-.987-1.867-1.941-.323-.448.725-1.056.71-1.97-.049-.961-.797-1.51-.792-2.012.02-.38.614-1.32.875-2.089.58-.77-.296-1.455-.101-1.524.431-.244 1.889-.459 2.493-1.663 4.658-1.262 2.27-.154 4.011 1.788 2.811.55-.34 1-.066 1 .608 0 .674.338.888.75.475.413-.412.75-1.082.75-1.488 0-1.237 3.22-4.042 3.881-3.381.34.341.612 1.332.604 2.203-.012 1.249-.194 1.302-.862.248-.662-1.045-.987-.937-1.5.5-1.976 5.538-6.623 8.61-6.623 4.379 0-2.708-3.584-2.745-4.29-.044-.299 1.145-.028 2.007.634 2.015.657.009.521.417-.315.946-.809.512-1.085 1.292-.613 1.735.472.442 1.065.223 1.318-.487.316-.887 1.214-.478 2.868 1.306 1.324 1.429 2.855 2.321 3.402 1.982.548-.338.996.367.996 1.566 0 1.826-.245 1.979-1.5.937-2.862-2.376-1.493.769 1.69 3.881 3.493 3.415 6.223 4.338 3.31 1.119-1.996-2.206-1.411-2.558 1.586-.954 2.502 1.339 4.328.315 2.654-1.488-.911-.982-1.464-1.035-2.084-.197-.526.709-.632.479-.282-.609.371-1.154-.274-2.296-1.898-3.359-2.981-1.954-2.303-3.546 1.349-3.169 2.917.301 3.336-2.564.686-4.68-.86-.687-1.024-1.728-.479-3.044.787-1.902.831-1.89.898.25.045 1.456.688 2.245 1.82 2.235 1.101-.01 1.333-.288.626-.75-.748-.489-.824-1.537-.229-3.13 1.215-3.249 2.446-1.165 2.779 4.704.041.72.531 1.026 1.09.681.559-.346.81-.963.557-1.371-.618-1 2.914-6.299 3.685-5.528.333.334.384-.45.112-1.742-.494-2.343-.492-2.343 1.032.151l1.527 2.5.036-3.25c.019-1.788.533-3.25 1.142-3.25.609 0 .874.608.588 1.352-.367.957.331 1.322 2.391 1.25 1.742-.061 2.91-.65 2.912-1.469.001-.863.722-1.178 1.956-.855 1.692.442 1.876.122 1.375-2.384-.413-2.062-.184-2.903.796-2.926.923-.021.737-.514-.566-1.5-1.068-.807-1.458-1.468-.867-1.468 1.485 0 2.357-3.817.978-4.277-.615-.205-.09-.641 1.167-.97 2.999-.784 4.764 3.061 2.274 4.956-1.477 1.126-1.475 1.23.032 1.259 2.186.043 3.135 2.711 1.225 3.444-1.021.392-1.288 1.264-.83 2.708.487 1.534.335 1.92-.543 1.377-.676-.418-1.585-.161-2.041.577-.921 1.491-.351 2.926 1.164 2.926.55 0 .715-.461.367-1.025-.349-.563-.263-.924.191-.802 2.795.756 5.23-1.392 4.683-4.13-.718-3.587 1.107-7.579 2.186-4.78.373.969.123 2.432-.556 3.25-.843 1.016-.882 1.487-.123 1.487.611 0 1.003 1.012.872 2.25-.162 1.531.299 2.254 1.441 2.263.924.007 2.012.344 2.417.75.406.405.024.737-.848.737-.871 0-2.315.28-3.207.623-1.015.389-1.514.155-1.332-.625.16-.687-.384-1.478-1.209-1.76-.825-.281-1.184-.172-.798.244 1.182 1.272-1.813 3.433-3.975 2.867-1.459-.381-2.222.059-2.698 1.56-.365 1.15-1.421 2.098-2.346 2.106-1.426.013-1.459.158-.212.946 1.783 1.128 1.382 1.553-2.305 2.438-1.858.447-2.612.323-2.191-.359.354-.572.114-1.04-.533-1.04-.683 0-.956.838-.652 2 .347 1.328.03 2-.943 2-.921 0-1.176.464-.685 1.25 1.438 2.304 1.307 4.531-.345 5.896-1.463 1.208-1.583 1.058-1.117-1.396.288-1.512.083-2.75-.455-2.75s-.743-.9-.456-1.999c.288-1.099.223-2.185-.144-2.411-1.148-.71-4.38 2.221-3.686 3.343.362.587.247 1.067-.256 1.067-.719 0-.916 5.775-.31 9.083.196 1.068 3.107.602 3.122-.5.009-.595.396-.483.861.251.673 1.061.978.989 1.493-.354.386-1.006 1.266-1.45 2.18-1.1.922.354 1.418.095 1.247-.651-.157-.682.725-2.25 1.96-3.485 1.234-1.234 2.244-1.987 2.244-1.673 0 1.075 2.61-2.067 3.36-4.043.448-1.182 1.026-1.554 1.444-.927.383.575 1.596 1.429 2.696 1.898 1.934.825 1.926.866-.233 1.244-2.712.476-2.565 3.835.257 5.898 2.434 1.78 3.553 1.724 2.838-.141-.317-.825-1.203-1.5-1.969-1.5-2.412 0-1.511-1.744 1.165-2.256 1.857-.355 2.417-.121 2.044.852-.283.737-.104 1.594.398 1.904 1.531.946 0 3.283-2.572 3.929-1.336.335-2.428 1.077-2.428 1.649 0 .572-.45.762-1 .422s-1-.141-1 .441.637 1.059 1.417 1.059c.779 0 1.617.562 1.863 1.25.259.727.817.879 1.333.363s.361-1.074-.369-1.335c-.691-.247-1.002-.86-.691-1.363 1-1.618 2.447-.976 2.447 1.085 0 2.515.538 2.508 3.277-.044 2.361-2.199 3.754-.903 1.695 1.578-1.543 1.859 1.066 2.051 4.307.317l2.147-1.149-2.213-.819c-1.217-.45-2.213-1.331-2.213-1.958 0-.626.62-.901 1.378-.61.758.291 1.883.024 2.5-.593.829-.829 1.122-.67 1.122.609 0 .953.675 1.991 1.5 2.307 2.245.862 1.809 2.256-.515 1.648-1.508-.394-1.867-.143-1.429 1 .344.896-.559 2.759-2.187 4.509l-2.774 2.983-2.777-2.973c-2.387-2.555-3.235-2.872-6.033-2.258-5.424 1.192-7.369 5.561-2.224 4.996 1.819-.2 2.401.113 2.027 1.088-.289.753-.089 1.369.443 1.369.533 0 .969-.648.969-1.441s.443-1.715.985-2.05c1.096-.677.155 5.65-.965 6.491-1.023.768-2.359 4.353-2.138 5.734.113.704-.429.993-1.264.673-1.836-.705-6.292 1.558-4.838 2.457.7.433.583 1.287-.355 2.569-.772 1.057-1.722 1.603-2.11 1.215-1.015-1.015-1.278-3.648-.365-3.648.425 0 .534-1.237.241-2.75l-.531-2.75-1.233 3c-.679 1.65-1.023 3.341-.767 3.758.257.416-.236 1.461-1.096 2.321-2.069 2.068-2.211 7.203-.153 5.495.897-.745 1.633-.812 2.021-.184.336.543-.146 1.41-1.071 1.928-1.515.848-1.468 1.055.479 2.096 1.425.763 2.203.804 2.285.121.243-2.01.414-2.548 1.209-3.801.442-.697 1.223-1.008 1.735-.691.512.316.931.136.931-.401 0-.536-.522-1.149-1.16-1.362-.868-.289-.876-.876-.03-2.333.621-1.071 1.143-1.384 1.16-.697.016.688.705 1.25 1.53 1.25 1.915 0 1.965 2.884.063 3.614-.79.303-1.214 1.131-.942 1.84.271.708-.235 1.568-1.127 1.91-.928.356-1.31 1.125-.893 1.799.491.795.187.969-.937.538-.915-.351-1.664-.202-1.664.33 0 .533.9.969 2 .969s2 .45 2 1-1.125 1-2.5 1-2.5-.505-2.5-1.122c0-.806-.4-.791-1.416.052-1.132.94-1.55.754-2.084-.93-.534-1.684-.952-1.87-2.084-.93-1.642 1.362-1.656 1.29-1.427-7.324.11-4.161-.241-5.906-1.27-6.3-.895-.344-1.249-1.454-.954-2.996.282-1.476.001-2.45-.707-2.45-.647 0-.862.508-.478 1.13.426.689.157.939-.691.639-.764-.269-1.271-1.512-1.127-2.761.215-1.866.006-2.061-1.167-1.087-1.139.946-1.522.821-1.895-.618-.258-.992-.52.125-.584 2.482-.108 3.972.029 4.208 1.859 3.228 1.685-.901 2.069-.686 2.609 1.465.348 1.387 1.314 2.522 2.147 2.522 1.227 0 1.28.282.278 1.489-.68.819-1.635 1.242-2.122.941-1.75-1.082-.844 2.239 1.214 4.448 2.366 2.54 1.99 4.071-.411 1.67-2.012-2.013-2.233-1.96-2.424.576-.168 2.222 1.826 4.876 3.663 4.876.589 0 1.078.563 1.086 1.25.012.928.235.903.868-.095.662-1.044 1.563-.652 4.019 1.75 1.742 1.702 2.814 3.109 2.382 3.125-.431.017-.038.466.873.998 1.02.595 1.457 1.733 1.136 2.958-.286 1.096-.914 1.748-1.395 1.451-.481-.298-.615.136-.298.963 1.102 2.872-.771 4.024-2.6 1.6-1.041-1.38-1.97-1.858-2.366-1.217-.359.581.027 1.735.857 2.565.83.83 1.509 1.991 1.509 2.581 0 .589.45 1.071 1 1.071s.993.788.985 1.75c-.013 1.507-.16 1.542-1.054.25-.865-1.25-.988-1.18-.735.417.167 1.055.929 2.125 1.693 2.38.926.308 1.125.034.596-.822-.503-.813-.396-1.038.291-.613.597.369 1.373.206 1.724-.362 1.064-1.722 2.188-.252 2.28 2.982.048 1.68-.333 2.794-.846 2.477-.514-.317-.934-.051-.934.593 0 .643-.828.147-1.841-1.104-1.26-1.556-2.067-1.906-2.559-1.11-.395.639-.241 1.162.341 1.162 1.945 0 1.089 3.831-1.271 5.688-1.281 1.008-2.144 2.39-1.917 3.072.563 1.689-.293 1.558-2.184-.334-1.433-1.433-1.629-1.433-2.179 0-.661 1.722-3.39 2.184-3.39.574 0-1.774-1.997-1.061-2.1.75-.065 1.142-.362.882-.856-.75l-.757-2.5-.779 2.857c-.77 2.825.809 5.183 2.69 4.02.437-.27 1.732-.671 2.878-.892a42.538 42.538 0 0 0 3.998-1.008c1.512-.48 1.793-.227 1.338 1.208-.52 1.639-.422 1.627 1.006-.126.87-1.068 1.582-2.53 1.582-3.25 0-.72.45-1.309 1-1.309s1 .388 1 .862c0 .475 1.151.737 2.559.582 3.148-.345 5.507 3.567 3.562 5.91-1.299 1.565.74 3.054 2.47 1.803 1.199-.867 1.435-4.157.298-4.157-.489 0-.889-.525-.889-1.167 0-.641.293-.873.651-.515.358.358 1.244-.13 1.968-1.084.81-1.066 1.33-1.253 1.349-.484.018.688.702 1.25 1.521 1.25 1.908 0 5.511 3.067 5.511 4.691 0 .701.661.993 1.511.666 1.08-.414 1.336-.121.896 1.026-.339.883-.968 1.388-1.398 1.122-1.158-.715-3.261 2.2-3.437 4.763-.084 1.228-.697 2.119-1.363 1.982-.665-.138-1.209.252-1.209.867 0 .618-.879.887-1.97.601-1.526-.399-1.921-.055-1.75 1.523.121 1.121-.343 2.238-1.031 2.482-.798.284-1.031-.128-.643-1.139.448-1.167-.012-1.588-1.749-1.599-1.889-.013-2.059-.208-.857-.985.825-.533 1.05-.99.5-1.015-.55-.025-.159-.535.87-1.132 1.525-.886 1.617-1.262.5-2.035-.966-.669-.708-.763.874-.318 1.708.48 2.109.281 1.682-.833-.31-.806-.082-1.762.506-2.125.587-.363 1.068-.226 1.068.305 0 .568 1.013.49 2.465-.191 2.931-1.374 3.089-5.278.244-6.022-1.374-.359-2.132.282-2.884 2.439-.562 1.61-1.652 2.927-2.423 2.927-.771 0-1.402.45-1.402 1 0 1.614-2.73 1.146-3.393-.582-.998-2.6-.689-5.418.593-5.418.918 0 .924-.276.027-1.173-.889-.889-1.784-.894-3.7-.021-2.776 1.264-3.396 3.194-1.027 3.194 2.471 0 1.694 1.913-1.057 2.604l-2.557.641 2.125 1.98c1.245 1.16 1.875 2.629 1.523 3.547-.331.863-.103 1.876.506 2.253.768.475.645 1.147-.402 2.194-1.029 1.029-1.184 1.835-.487 2.532.698.698.691 1.229-.02 1.668-.574.355-.795 1.294-.49 2.087.479 1.25.75 1.246 2.028-.032 2.172-2.172 3.554-1.795 2.847.776-.571 2.074-.509 2.113.792.5 1.703-2.11 3.85-2.326 3.076-.309-.481 1.255 1.737 1.513 5.401.628.157-.038-.149-.88-.68-1.872-.738-1.38-.503-2.092 1.004-3.033 1.083-.676 1.657-1.734 1.275-2.351-.42-.68-.242-.843.45-.416.74.458.933.159.548-.845-.386-1.006-.03-1.552 1.011-1.552 1.446 0 2.057-1.15 1.725-3.25-.065-.413.318-.75.851-.75.532 0 .709-.675.393-1.5-.317-.825-.078-1.5.531-1.5s1.107-.661 1.107-1.469c0-2.164 2.688-.776 3.46 1.788.574 1.906.744 1.965 1.349.468.468-1.162 1.141-1.436 2.087-.851.818.505 1.124 1.571.738 2.574-.44 1.147-.24 1.554.605 1.231.821-.314 1.298.519 1.367 2.389.069 1.856-.392 2.87-1.306 2.87-1.133 0-1.057.602.384 3.042 1.422 2.408 1.529 3.209.509 3.839-1.706 1.054.899 3.347 3.497 3.077 3.332-.347 4.31.031 4.31 1.664 0 1.341-.265 1.403-1.524.358-2.147-1.782-2.718-.747-1.442 2.611.771 2.026.777 2.972.022 3.224-1.725.575-.126 2.185 2.17 2.185 2.827 0 1.609 1.084-1.615 1.438-3.17.348-5.68-4.898-3.173-6.634.552-.382.703-.996.336-1.363-.367-.368-2.265 1.07-4.216 3.195-2.199 2.394-3.574 3.293-3.617 2.364-.037-.825-.494-.436-1.014.864-.682 1.702-1.504 2.218-2.937 1.844-2.573-.673-2.521.097.163 2.425 1.184 1.027 1.859 1.923 1.5 1.992-2.327.445-3.227.336-3.786-.461-.348-.497-1.17.723-1.826 2.712-1.031 3.124-1.386 3.422-2.614 2.194-1.757-1.758-.901-4.285 1.734-5.121 1.851-.587 1.866-.709.246-1.894-1.021-.746-1.478-1.928-1.113-2.878.711-1.854-.824-3.246-1.814-1.645-.458.741-1.088.708-2.069-.106-2.166-1.797-1.681-3.82 1.082-4.514 1.371-.344 2.226-1.058 1.899-1.587-.327-.529-1.187-.734-1.91-.456-.724.277-1.605-.247-1.958-1.166-.509-1.327-.973-.986-2.25 1.65-.926 1.912-1.219 3.603-.691 3.985 1.08.78 1.174 4.739.137 5.775-1.612 1.612-.584 2.574 1.111 1.04 1.007-.912 2.132-1.356 2.5-.989.368.368.669.054.669-.697 0-.994.3-1.067 1.1-.267.8.8.55 1.65-.917 3.117-1.109 1.109-2.303 1.73-2.653 1.38-.349-.35-.344.25.011 1.333.544 1.654.458 1.73-.533.47-.985-1.25-1.099-1.126-.689.749.271 1.237.078 2.506-.429 2.819-.508.314-.613 1.072-.234 1.685.441.712.962.417 1.446-.819.596-1.521.772-1.585.828-.299.055 1.285 1.137 1.634 5.058 1.634 2.743 0 4.771-.351 4.505-.78-.265-.429.191-1.037 1.013-1.353.907-.348 1.494.003 1.494.895 0 .829.922 1.469 2.117 1.469 1.624 0 1.995-.465 1.593-2-.287-1.1-.115-2 .384-2 .84 0 1.305 1.474 1.024 3.25-.178 1.127 4.67.902 5.382-.25.826-1.336 5.5-1.286 5.5.059 0 .582.449.782.998.442.646-.399.955-19.534.876-54.309-.067-29.53-.325-52.904-.572-51.942-.49 1.91-1.843 2.301-2.771.8-.323-.522.297-1.423 1.377-2.001 1.907-1.02 1.967-2.389 2.042-46.414l.076-45.363-2.763.369-2.763.368 2.758-1.09 2.758-1.091-.032-58.414c-.021-37.289-.385-58.414-1.008-58.414-.537 0-.976-.675-.976-1.5s-.408-1.5-.906-1.5c-.499 0-.685-.849-.413-1.887.524-2.005-3.69-2.519-6.431-.786-2.001 1.266-1.441-.844.75-2.827 1.134-1.026 2-1.31 2-.655 0 1.571 3.982 1.478 4.07-.095.039-.687.498-.35 1.021.75.885 1.864.921 1.847.523-.25-.235-1.238-.019-2.25.48-2.25.498 0 .906-1.152.906-2.559 0-1.407-.403-2.31-.895-2.006-1.645 1.016-2.175-2.7-.629-4.408 2.105-2.327 2.105-4.754 0-3.007-.838.696-1.782 1.007-2.098.692-.315-.315.371-1.163 1.525-1.883 1.739-1.087 2.097-2.303 2.097-7.129 0-3.624-.377-5.585-1-5.2-.55.34-1 .141-1-.441s.441-1.059.981-1.059c.615 0 .934-8.293.857-22.25-.095-17.127-.353-21.277-1.118-18.024-.628 2.668-1.681 4.444-2.858 4.818-2.69.854-4.154 3.969-2.507 5.336 2.022 1.678 1.327 5.393-1.077 5.76-2.421.369-4.741-1.992-3.959-4.029.535-1.395-2.103-2.648-5.319-2.527-.99.037-.82.349.5.916 1.861.8 1.87.864.128.93-2.187.082-.379 3.07 1.858 3.07.682 0 1.19 1.013 1.127 2.25-.062 1.237-.675 2.205-1.363 2.15-2.924-.234-3.334-.456-2.709-1.467.614-.992-2.13-3.83-3.772-3.901-.402-.018-1.013 1.093-1.358 2.468-.682 2.714-2.411 3.432-2.411 1 0-2.037-1.671-1.894-2.92.25-1.13 1.941-1.148 1.878-1.484-5.25-.165-3.505 1.095-10.944 1.318-7.781.098 1.395 3.086.555 3.086-.868 0-2.469-2.47-3.691-4.25-2.103-1.594 1.423-1.75 1.408-1.75-.16 0-1.268-.528-1.555-2-1.088-2.533.804-2.526-.016.03-3.265 1.543-1.962 1.729-2.766.776-3.355a1.597 1.597 0 0 0-2.11.423c-.512.715-.616.089-.258-1.553.408-1.867.193-2.755-.669-2.765-.975-.012-.959-.212.066-.862.735-.466 1.264-1.235 1.175-1.71-.088-.475.358-1.036.992-1.247.736-.245 1.034.649.825 2.475-.38 3.319 2.514 6.344 5.357 5.601 2.234-.585 2.259-1.164.182-4.129-1.557-2.224-1.541-2.303.359-1.7 1.232.391 2.488.035 3.291-.932 1.145-1.38.911-1.497-1.979-.987-2.736.482-3.176.31-2.658-1.04.342-.89.621-1.806.621-2.036 0-1.259 1.923-.15 2.311 1.332.281 1.077.502.692.573-1 .117-2.778 1.611-3.764 2.349-1.551.259.777.617.635 1.015-.402.338-.882-.066-2.434-.898-3.45-1.362-1.663-1.458-1.672-.963-.097.586 1.865-.136 2.197-2.084.958-1.475-.937-.464-2.609 2.169-3.585 1.181-.437 1.553-1.01.927-1.427-.575-.383-1.363-1.554-1.751-2.603-.692-1.869-.743-1.869-2.526.045-1 1.074-2.02 2.555-2.265 3.292-.347 1.039-.837.947-2.196-.412-1.833-1.833-1.804-3.637.068-4.261.606-.202 1.314.445 1.571 1.438.283 1.091.52.619.599-1.195.09-2.051.399-2.578.977-1.666.681 1.074.964 1.025 1.453-.25.385-1.002.069-1.584-.86-1.584-.967 0-1.509-1.111-1.585-3.25-.064-1.787-.322-2.463-.573-1.5-.658 2.516-2.001 2.154-2.543-.685-.625-3.27.848-5.662 2.195-3.565 1.304 2.031 6.026 2.067 6.072.046.023-.977.562-.626 1.465.954 1.411 2.468 1.43 2.472 1.465.25.021-1.362.654-2.25 1.603-2.25 1.309 0 1.227-.479-.5-2.904C479.826 53.947 479.418 52 481 52c.55 0 1 .675 1 1.5 0 2.354 2.699 1.753 3.37-.75.963-3.595.737-4.75-.929-4.75-.857 0-1.3.419-.984.931.317.512.118 1.213-.441 1.559-.559.345-1.023-.186-1.031-1.181-.012-1.372-.22-1.487-.861-.475-.675 1.064-.975.997-1.485-.332-.98-2.553-.741-4.207.361-2.502.776 1.201 1.003 1.002 1.137-1 .339-5.05.479-5.495 1.66-5.25.662.137 1.203-.229 1.203-.813 0-1.481-6.25-.728-6.757.814-.273.833.177 1.025 1.347.576 1.379-.529 1.612-.296 1.084 1.081-.371.966-.674 2.238-.674 2.827s-.887.048-1.971-1.202c-1.37-1.58-1.704-2.773-1.093-3.913.483-.903.643-2.874.355-4.381-.397-2.072-.13-2.739 1.092-2.739 1.034 0 1.589-.812 1.538-2.25-.043-1.238-.297-1.713-.565-1.056-.267.656-1.127.947-1.912.646-.785-.301-1.704.174-2.043 1.056-.338.882-1.242 1.604-2.008 1.604-1.656 0-1.871 1.674-.283 2.203.694.232.507.87-.5 1.706-1.423 1.18-1.61.965-1.61-1.854 0-2.85-.239-3.114-2.242-2.478-2.077.659-2.133.574-.75-1.151 4.361-5.445 5.256-6.17 7.037-5.704 1.036.271 2.574-.199 3.419-1.043 1.653-1.653 2.151-5.177.597-4.216-.517.319-.871-.329-.788-1.441.179-2.372 1.54-2.672 2.365-.522 1.281 3.338 1.87 1.026 2.031-7.968l.169-9.464-5.419.143C472.543.313 471 .747 471 1.736c0 .76-.399 1.135-.887.834-.487-.301-1.442.122-2.122.941-1.789 2.156-3.247 1.835-2.026-.445 1.608-3.005 1.481-3.067-6.215-3.051-4.521.01-6.731.344-5.872.889.758.48 1.069 1.373.691 1.984-.874 1.415-3.569 1.455-3.569.053 0-.582.445-.784.989-.448.564.349.736-.047.4-.923-.666-1.734-23.298-2.055-26.639-.378-1.105.555-1.75.497-1.75-.157C424 .355 416.83 0 403.067 0c-20.054 0-20.959.084-21.567 2-.638 2.01-4.5 2.869-4.5 1 0-.55.648-1 1.441-1s1.719-.45 2.059-1c.394-.637-2.216-.964-7.191-.9-5.44.069-7.051.342-5.309.9 1.375.44 1.974.845 1.332.9-.643.055-1.88.373-2.75.707-1.038.398-1.582.055-1.582-1 0-2.101-2.605-2.079-3.414.029-.581 1.515-.762 1.515-2.436 0-.994-.9-2.225-1.636-2.735-1.636C355.454 0 353 6.816 353 9.484c0 .834-.4 1.516-.889 1.516s-.826.733-.75 1.628c.086 1.009-.796 1.78-2.318 2.026-2.437.393-4.028 1.924-3.996 3.846.009.55.565.325 1.235-.5 1.28-1.576 5.718-2.238 5.718-.852 0 .443-1.152 1.56-2.559 2.483-1.769 1.159-2.508 2.478-2.394 4.273.283 4.458-.01 6.096-1.092 6.096-.65 0-.816-1.421-.438-3.75.516-3.188.41-3.512-.705-2.162-.722.873-1.874 1.398-2.562 1.166-1.521-.512-1.58.261-.215 2.812.73 1.364.713 1.934-.059 1.934-.602 0-.835.419-.519.931.317.512.146 1.196-.379 1.521-.525.325-1.354-.123-1.842-.994-1.318-2.356-3.623.737-2.996 4.02.42 2.196.199 2.419-1.882 1.897-1.297-.325-2.358-.155-2.358.378s-1.184.743-2.631.467c-1.788-.342-2.925.023-3.55 1.138-1.09 1.949-2.979 2.223-2.251.326.277-.723-.141-2.56-.93-4.081-1.232-2.374-1.238-3.143-.041-5.434 1.461-2.796-.522-5.951-2.84-4.519-.522.323-.789-.254-.593-1.282.196-1.027 1.364-2.012 2.596-2.188 1.232-.175 2.24-.838 2.24-1.472s.687-.172 1.527 1.028c.942 1.344 2.131 1.949 3.099 1.577 1.358-.521 1.396-.32.273 1.477-.715 1.144-1.659 1.858-2.099 1.586-.44-.272-.8.252-.8 1.164 0 1.471.386 1.43 3.44-.372 3.134-1.849 3.479-1.88 3.884-.349.283 1.07.486.782.56-.792l.116-2.472 1.557 2.222c.856 1.223 2.206 2.223 3 2.223 1.637 0 1.962-2.561.443-3.5-.55-.34-1-1.097-1-1.681 0-.715.449-.691 1.371.074.932.773 2.134.833 3.75.186 1.737-.695 1.906-.969.629-1.016-2.038-.073-2.248-1.165-.55-2.863.933-.933.933-1.2 0-1.2-.66 0-1.2-.675-1.2-1.5 0-1.816 1.635-1.991 2.338-.25.386.957.523.942.583-.066.043-.723-.387-2.186-.956-3.25-.584-1.09-.635-1.934-.117-1.934.505 0 1.154-.9 1.442-2 .33-1.263.03-2-.814-2-.735 0-1.481.977-1.656 2.172-.308 2.089-.372 2.073-1.703-.433-.83-1.564-1.068-3.33-.595-4.422.757-1.747.804-1.747 1.217-.012.612 2.575 2.704 1.522 3.069-1.545.304-2.551.219-2.586-6.44-2.637-3.712-.028-7.338.437-8.058 1.035-.948.786-1.31.776-1.31-.036C329 .352 325.076 0 316.5 0c-11.226 0-12.503.178-12.532 1.75-.03 1.667-.095 1.667-1.36 0-1.743-2.296-11.378-2.513-12.237-.276-.481 1.255-.771 1.269-1.947.093-1.691-1.691-40.107-1.989-42.174-.327-.744.598-1.25.622-1.25.059 0-1.448-11.273-1.469-12.192-.022-.597.94-.781.92-.793-.086-.026-2.26-2.014-.187-2.03 2.118-.012 1.673-.227 1.858-.908.782-.49-.775-.7-1.91-.465-2.522.615-1.604-18.813-1.85-19.83-.251-.553.87-.755.877-.767.027-.022-1.646-23.181-1.682-24.226-.037-.577.907-.762.895-.774-.052C183.003.274 163.767.012 91.478.011L-.045.009l.114 81.995M420.558 4.907c-.314.507-.005 1.15.686 1.429.691.278.244.542-.994.585-2.219.078-3.305 2.079-1.128 2.079.776 0 .738.464-.122 1.5-1.036 1.249-.908 1.5.766 1.5 1.255 0 1.96-.618 1.873-1.642-.076-.904.349-1.816.946-2.029 1.593-.566 1.02 3.658-.655 4.838-1.112.782-.964.906.663.554 2.489-.537 5.141 2.707 3.196 3.91-.644.398-1.348.191-1.565-.46-.217-.651-.787-.941-1.266-.645-.479.296-.589 1.272-.244 2.17.39 1.017.224 1.384-.439.974-.586-.362-1.323.014-1.639.836-.315.822-1.214 1.494-1.998 1.494-1.831 0-2.901 2.712-1.332 3.377.81.344.631.863-.556 1.615-1.987 1.257-2.412 4.417-.5 3.716.688-.252 1.119-1.019.959-1.706-.172-.738.313-1.016 1.188-.68.987.379 1.582-.162 1.791-1.627.217-1.527 1.006-2.195 2.593-2.195 1.255 0 2.71-.675 3.235-1.5.633-.997.959-1.081.969-.25.008.688.912 1.25 2.009 1.25 2.022 0 2.319 2.105.668 4.75-.729 1.168-.174 1.647 1.588 1.368.413-.065.75.515.75 1.288 0 .88-.698 1.224-1.862.92-1.306-.342-2.091.21-2.628 1.843-1.035 3.154-1.223 8.772-.275 8.186 1.363-.843.809 1.364-.646 2.571-.965.801-1.616.839-2.059.123-.356-.577-.059-1.056.661-1.064 1.027-.012 1.013-.203-.069-.889-.758-.48-1.098-1.326-.755-1.88.342-.554-.047-2.292-.866-3.862-1.296-2.485-1.489-2.578-1.495-.721-.004 1.36-.822 2.357-2.256 2.75-1.825.5-1.975.794-.798 1.551.799.514 1.811.712 2.25.441.439-.271.798.434.798 1.566 0 1.132.479 2.059 1.064 2.059.585 0 .071 1.768-1.144 3.928-2.262 4.024-4.92 3.8-4.92-.416 0-.896-.45-1.352-1-1.012-.55.34-1-.035-1-.834 0-.799.675-1.711 1.5-2.028.825-.316 1.5-1.066 1.5-1.666 0-.599-.412-.836-.915-.525-.503.311-1.142 0-1.421-.691-.402-.998-.522-.999-.585-.006-.043.688-.781 1.25-1.638 1.25-.857 0-1.31.403-1.006.895.305.493-.119 1.153-.941 1.469-.822.315-1.494 1.085-1.494 1.712 0 .626.675.879 1.5.562 1.719-.659 1.9.196.5 2.362-.862 1.333-.979 1.333-1.055 0-.058-1.01-.366-.847-.945.5l-.859 2-.181-2c-.34-3.756.244-6.999 1.392-7.735.649-.415-.034-.741-1.571-.75-1.969-.011-2.565.385-2.161 1.437.923 2.405-.557 3.754-2.255 2.056C402.679 43.822 398 43.449 398 45c0 1.94-3.076.971-3.969-1.25-.655-1.63-.922-1.784-.968-.559-.034.93-.542 1.987-1.127 2.348-.725.449-.838-.567-.356-3.191.388-2.116 1.064-3.989 1.5-4.16.437-.172.055-1.175-.847-2.229-1.996-2.331-3.626-.561-1.951 2.12 1.214 1.945-.468 4.921-2.782 4.921-.69 0-1.815.675-2.499 1.499-1.077 1.298-.804 1.412 2.033.844 2.354-.471 3.076-.33 2.562.501-.409.663-.121 1.156.676 1.156.765 0 1.987 1.115 2.716 2.477 1.185 2.215 1.451 2.305 2.516.848.888-1.214 1.382-1.319 1.942-.412.991 1.602-.31 8.379-1.788 9.319-.789.503-.68.732.342.721.825-.009 2.373-.677 3.441-1.485 1.494-1.13 2.115-1.186 2.696-.246.543.879.952.71 1.455-.601.397-1.036.2-2.132-.458-2.538-.864-.534-.876-1.525-.049-3.898 1.372-3.934 2.451-3.48 2.307.97-.06 1.84.39 3.676.999 4.08.774.513.732.739-.141.75-.687.008-1.25.676-1.25 1.484 0 .894.586 1.243 1.5.893 1.747-.671 2.194 4.091.484 5.148-1.623 1.003.054 2.713 2.128 2.171 1.037-.271 2.186-.009 2.552.584.395.639.992.195 1.468-1.094 1.106-2.989 2.7-2.74 2.113.329-.263 1.375-1.101 2.5-1.862 2.5-.76 0-1.383.454-1.383 1.008 0 .606-.781.521-1.955-.212-4.064-2.538-3.202 1.756 1.297 6.462 1.033 1.08 1.624 2.763 1.345 3.83-.418 1.6-.101 1.803 1.993 1.278 2.028-.51 2.453-.277 2.29 1.254-.336 3.151.012 3.955 1.03 2.38.828-1.282.972-1.246.985.25.008.963-.66 1.75-1.485 1.75-.825 0-1.5-.45-1.5-1s-.765-1-1.7-1c-1.256 0-1.407.293-.578 1.122.617.617.855 1.816.53 2.664-.332.864-.166 1.279.376.944 1.838-1.136 3.884.949 2.531 2.579-1.001 1.205-.755 1.576 1.402 2.117 2.076.521 2.381.939 1.479 2.026-.626.754-.778 1.579-.339 1.834 1.162.674 4.458-.698 4.385-1.825-.155-2.395 1.119-4.32 2.506-3.787.819.314 1.359.179 1.199-.301-.372-1.117.644-1.334 3.162-.675 1.585.414 1.797.901 1.023 2.347-1.51 2.822-1.281 4.453.427 3.036 1.077-.894 1.523-.865 1.921.127.343.856.545.729.597-.375.043-.916.642-1.893 1.329-2.171.747-.301.545-.536-.5-.583-.962-.043-1.75-.781-1.75-1.638 0-.981.457-1.276 1.232-.797 2.447 1.512 4.768 1.064 4.768-.92 0-1.565-.478-1.821-2.473-1.32-1.915.48-2.367.279-2-.892.26-.831.713-2.262 1.006-3.179.384-1.203.836-1.364 1.622-.578.599.599 1.663.868 2.366.599.702-.27 1.574-.01 1.937.578.386.625-.19 1.068-1.389 1.068-1.936 0-1.957.108-.381 1.949.918 1.072 2.038 1.72 2.49 1.441.452-.28.822.134.822.918 0 2.898 8.469 1.377 12.002-2.156 1.733-1.734 2.837-3.152 2.452-3.152-.384 0-.143-.67.537-1.489.68-.819 1.522-1.316 1.872-1.105 1.914 1.155 2.825-2.228 1.017-3.777-1.696-1.452-2.004-1.47-2.513-.142-1.015 2.645-2.199 1.631-2.03-1.737.139-2.762.678-3.416 3.594-4.359 3.303-1.067 5.888-6.391 3.103-6.391-.569 0-1.034.825-1.034 1.833 0 4.329-3.115 2.83-4.35-2.093-.804-3.201-2.611-3.606-3.357-.751-.286 1.094-.919 1.742-1.407 1.441-.487-.302-.886-.071-.886.511S453.675 69 454.5 69s1.5.638 1.5 1.417.47 1.573 1.044 1.764c.574.192.128 1.33-.99 2.531-1.291 1.386-1.647 2.421-.976 2.836.582.36.817 1.284.522 2.053-.296.77.011 1.413.681 1.431.707.018.484.589-.531 1.36-2.144 1.628-2.287 2.751-.25 1.97 2.305-.885 1.782 1.265-.979 4.026-2.43 2.43-8.521 3.431-8.521 1.401 0-.499-.419-.648-.931-.332-.512.317-1.213.118-1.559-.441-.345-.559-.137-1.016.463-1.016.6 0 1.498-1.012 1.996-2.25l.904-2.25.064 2.25c.078 2.78 1.202 2.859 3.563.25 1.768-1.954 1.747-2-.952-2-2.044 0-2.612-.39-2.186-1.5.355-.926-.004-1.5-.937-1.5-.857 0-1.385.714-1.219 1.646.442 2.474-2.25 2.901-2.889.459-.303-1.158-1.184-2.105-1.959-2.105-.774 0-1.678-1.35-2.008-3-.33-1.65-1.192-3-1.916-3-2.286 0-2.461 1.666-.374 3.555 2.011 1.819 2.01 1.825-.535 4.185-1.402 1.3-2.994 2.088-3.537 1.753-1.276-.789-1.255.14.058 2.593 1.227 2.292.308 4.396-1.385 3.171-3.659-2.647-8.798-3.452-10.202-1.598-.832 1.097-1.408 1.332-1.427.581-.018-.693.845-2.01 1.917-2.928 2.194-1.879 1.817-3.543-.593-2.618-1.321.507-1.464.073-.867-2.643.665-3.028.561-3.202-1.513-2.543-1.608.51-2.019.371-1.48-.502.453-.733 1.878-.981 3.625-.632 1.597.32 2.879.142 2.879-.399 0-.536-.388-.975-.861-.975-.474 0-.67-1.238-.435-2.75.41-2.64.364-2.672-1.138-.809-1.535 1.903-1.566 1.899-1.566-.25 0-1.205.563-2.198 1.25-2.206.833-.011.75-.339-.25-.985-1-.646-1.083-.974-.25-.985 1.944-.023 1.471-2.005-.5-2.094-1.056-.048-1.252-.28-.494-.585 1.771-.714.511-2.336-1.815-2.336-1.068 0-1.941-.55-1.941-1.223 0-.672-.701-.222-1.557 1C412.587 64 411.35 65 410.693 65c-1.284 0-1.499-4.887-.3-6.827.436-.706.104-1.173-.834-1.173-1.868 0-2.061-2.351-.309-3.76 1.971-1.586 7.596-.301 8.292 1.894.554 1.745.872 1.634 3.563-1.246 3.834-4.105 4.433-3.309 1.92 2.553-2.297 5.359-2.474 6.559-.966 6.559.582 0 .781-.45.441-1s-.115-1 .5-1 .859-.419.543-.931a1.094 1.094 0 0 1 .35-1.503c1.305-.806 4.211.457 3.542 1.539-.304.492.1.895.899.895s1.725-.712 2.059-1.582c.844-2.198.866-2.171-1.643-2.038-1.765.094-2.25-.419-2.25-2.38 0-1.826.472-2.421 1.75-2.206 1.857.312 2.406-1.27.788-2.271-.604-.373-.544-1.513.16-3.059 1.403-3.079 2.821-3.193 2.653-.214-.07 1.237.352 3.43.938 4.873.769 1.893.751 2.937-.062 3.75-.836.836-.817 1.437.073 2.327.933.933 1.2.933 1.2 0 0-.66.477-1.2 1.059-1.2s.781.45.441 1-.168 1 .382 1c1.56 0 2.277-1.784 1.028-2.556-.8-.494-.742-.93.2-1.512.744-.46 1.897-.341 2.636.272 1.707 1.417 6.254-.533 6.254-2.683 0-.836.698-1.521 1.552-1.521.854 0 2.023-1.35 2.598-3 .575-1.65 1.426-3 1.89-3 .465 0 .62-1.012.344-2.25a169.098 169.098 0 0 1-.781-3.703c-.393-2.04-7.054-2.083-7.195-.047-.057.825-.172 2.561-.256 3.857-.102 1.59-.613 2.18-1.569 1.813-1.886-.723-2.837 1.987-1.544 4.402.567 1.061.903 1.961.746 2.002-4.115 1.073-4.861.797-5.421-2.003-.391-1.954-1.046-2.747-1.974-2.39-.865.331-1.39-.137-1.39-1.241 0-.975.296-1.477.658-1.115.362.362 1.262.156 2-.456 1.323-1.098 1.757-.054 1.611 3.881-.026.688.353 1.25.842 1.25s.889-.9.889-2 .03-2.337.066-2.75c.177-1.998-3.83-3.344-5.369-1.804-1.156 1.156-1.661 1.229-2.041.295-.376-.927-.772-.861-1.565.259-.92 1.301-1.062 1.275-1.076-.2-.008-.935.769-2.139 1.727-2.675.958-.536 1.383-1.333.945-1.771-.438-.438-1.214-.134-1.726.675-.744 1.177-.933 1.046-.946-.654-.011-1.585.779-2.284 3.11-2.75 4.459-.892 4.881-.804 4.237.875-.317.825-.051 1.5.59 1.5s.891-.445.555-.989c-.358-.579.134-.747 1.191-.405 1.387.448 1.483.355.417-.404-1.128-.804-.994-1.196.718-2.113 3.427-1.834 7.353-5.86 6.116-6.273-.624-.208-2.682 1.082-4.574 2.867-3.036 2.863-3.73 3.112-5.908 2.12-2.616-1.192-3.307-2.793-1.217-2.818.833-.011.751-.331-.245-.961-3.441-2.175-1.718-9.285 2.014-8.309 1.431.375 2.214-.198 2.963-2.168 1.618-4.256 1.199-5.066-1.371-2.652-1.313 1.235-3.901 2.48-5.75 2.769-3.704.577-5.139 1.336-2.528 1.336.917 0 1.667.675 1.667 1.5s-.45 1.5-1 1.5-1-.45-1-1-.654-1-1.453-1c-1.221 0-1.185-.468.223-2.921.922-1.607 2.095-2.662 2.608-2.346.512.317.61.056.217-.578-.398-.646-.136-1.168.596-1.185.78-.019.578-.456-.502-1.084-.996-.579-2.458-.805-3.25-.501-1.287.494-2.022-1.693-1.557-4.635.065-.412-.3-.75-.811-.75-.51 0-1.607-.678-2.436-1.508-.829-.829-1.764-1.092-2.077-.585m-20.766 8.054c-.7 1.122-2.316 2.039-3.592 2.039-1.315 0-2.046.44-1.69 1.016.346.559 1.047.758 1.559.441.512-.316.931.1.931.925 0 .825-.477 1.795-1.06 2.155-.67.414-.394 1.16.75 2.027 2.499 1.894 3.55 1.767 2.878-.35-.415-1.308-.032-1.785 1.433-1.785 1.099 0 1.999.316 1.999.703 0 1.799-1.338 3.868-2.5 3.868-1.442 0-2.894 2.954-1.914 3.893.348.334 1.313-.405 2.145-1.643 1.445-2.149 4.052-3.326 2.769-1.25-.34.55-.086 1 .563 1 .906 0 .908.331.007 1.416-.942 1.134-.742 1.553 1.002 2.107 1.389.441 2.489.199 3.038-.666.719-1.136.862-1.131.875.026.008.76.984 2.223 2.168 3.25 1.77 1.535 1.859 1.867.5 1.867-2.317 0-3.194-.378-2.903-1.25.384-1.153-.374-.925-4.47 1.344-5.328 2.952-5.9 3.727-2.63 3.569 1.567-.076 3.181-.594 3.585-1.151.455-.627.74-.514.75.297.008.72.495 1.012 1.082.65.633-.391.938.052.75 1.089-.315 1.738 3.111 2.762 5.834 1.744 1.208-.451 1.233-2.741.045-3.93-1.177-1.176-.773-2.362.804-2.362 1.939 0 1.891-.569-.25-2.928-4.108-4.527-4.363-5.05-3.326-6.829.955-1.64 1.017-1.637 1.046.066.017 1.044.49 1.525 1.117 1.137.753-.465.767-.992.047-1.712-.696-.696-.713-1.652-.052-2.887.623-1.164.633-1.847.027-1.847-.53 0-1.152.788-1.385 1.75-.26 1.077-.923.002-1.726-2.798l-1.305-4.548-3.314 1.548c-1.823.851-3.329 2.2-3.346 2.998-.027 1.169-.275 1.205-1.283.183-1.002-1.016-.902-1.525.5-2.561 1.937-1.431 2.266-3.135.783-4.052-.532-.329-1.541.32-2.241 1.441M387 16.034c-1.318.882-1.298 1.159.164 2.282 2.517 1.934.243 8.984-2.717 8.425-2.215-.419-5.04 1.775-3.506 2.722.506.313 1.217.09 1.579-.495.455-.736 1.111-.689 2.123.151 1.239 1.028.982 1.419-1.662 2.531-2.469 1.038-2.993 1.738-2.489 3.326.499 1.572.284 1.875-.984 1.389-.893-.343-1.392-1.226-1.109-1.962.282-.736.076-1.609-.459-1.94-.535-.331-.714-1.02-.397-1.532.316-.512.042-.931-.609-.931-.793 0-.977 1.033-.559 3.125.344 1.719.625 3.545.625 4.059 0 .514.403.685.895.381 1.637-1.012 2.284 2.831.675 4.007-.846.619-1.208 1.491-.804 1.937.403.446.246.534-.349.195-.596-.339-1.084.039-1.084.84 0 .801.402 1.456.893 1.456.49 0 .633.419.317.931-.317.512-.118 1.213.441 1.559.559.345 1.016-.074 1.016-.931 0-.857.45-1.559 1-1.559s1-.869 1-1.93c0-1.183.802-2.055 2.069-2.25l2.069-.32-2.108-2.25c-1.159-1.237-1.865-2.306-1.569-2.375a26.736 26.736 0 0 1 1.789-.295c.688-.094 1.129-.737.982-1.429-.599-2.815 3.695-4.582 6.648-2.735.962.602 1.24.445.919-.518-.253-.759.139-1.979.871-2.71 1.683-1.683 1.74-4.491.08-3.938-.687.229-1.25.942-1.25 1.583 0 2.171-1.882.685-2.135-1.685-.201-1.887.133-2.251 1.692-1.843 1.069.279 1.943.1 1.943-.399 0-.498-.378-.906-.839-.906-1.177 0-3.308-4.952-2.615-6.075.752-1.216-.656-1.156-2.546.109M242.468 54.95c-3.486 1.414-9.308 8.741-10.521 13.243-2.091 7.761-1.331 22.047 1.996 37.552 4.111 19.156 3.564 27.066-2.348 33.939l-2.336 2.717-1.879-3.451c-1.703-3.126-1.881-5.938-1.903-29.95-.032-36.51-2.611-45.999-13.309-48.97-14.62-4.061-28.072 4.919-29.849 19.924-.758 6.396 4.467 28.962 8.492 36.68 3.322 6.369 11.254 28.945 12.149 34.577 1.408 8.863.229 13.842-6.007 25.375-16.748 30.977-12.924 48.823 14.047 65.546 2.689 1.668 20.174 8.559 28.738 11.328 6.408 2.071 7.252 3.164 3.143 4.066-8.405 1.846-29.254-1.621-48.881-8.129-22.174-7.352-33.216-15.33-40-28.897-3.481-6.963-3.5-7.071-3.5-20.5 0-7.425.406-18.45.903-24.5.811-9.878.746-10.868-.645-9.714-.851.706-1.932 1.215-2.403 1.131-2.093-.376-3.4.282-6.278 3.16-3.55 3.55-3.621 3.805-1.494 5.36 1.378 1.007.955 1.827-3.25 6.296-4.772 5.074-5.824 5.385-9.157 2.712-.689-.553 4.256-5.445 5.504-5.445.8 0 1.32-1.182 1.32-2.997 0-7.624 10.198-22.743 13.495-20.007 3.164 2.625 4.729-1.756 6.074-16.998 1.82-20.625-7.635-42.166-19.172-43.683-15.582-2.048-36.649 25.638-36.664 48.185-.008 11.004 5.873 31.897 9.882 35.11.762.611 1.385 1.853 1.385 2.76 0 .907 2.025 5.394 4.5 9.972 2.475 4.577 4.5 8.665 4.5 9.083 0 1.229-9.074-6.712-27.029-23.655C73.78 159.604 68.394 155 66.505 155c-2.878 0-18.304 39.908-17.006 43.996 1.193 3.761 9.547 9.735 22.195 15.873 33.962 16.481 44.165 22.52 60.811 35.988 4.515 3.654 11.199 8.778 14.852 11.388 3.654 2.609 6.643 5.158 6.643 5.664 0 1.347-14.117 2.446-21.306 1.658-16.263-1.782-35.366-10.435-49.694-22.51-5.225-4.403-14.225-10.802-20-14.22-5.775-3.417-11.892-7.253-13.594-8.525-1.702-1.272-3.552-2.312-4.111-2.312-1.495 0-2.278 8.617-2.273 25 .007 19.082-.152 18.628 6.814 19.499 12.804 1.6 29.645 9.276 34.467 15.712 3.942 5.26 4.17 7.272 1.098 9.689-6.245 4.911-23.661-1.208-36.324-12.764-1.883-1.718-3.617-2.93-3.853-2.693-1.237 1.237 5.532 27.576 10.038 39.057l2.354 6 11.442.314c18.253.502 43.903-4.609 78.942-15.728 30.267-9.605 52.146-16.033 58-17.04 16.186-2.785 54.769-4.17 69.384-2.492 21.565 2.477 59.045 14.885 71.09 23.535 5.249 3.769 13.748 15.575 15.553 21.604 3.438 11.483-6.609 35.389-27.778 66.097-12.094 17.544-27.958 32.915-40.133 38.884-8.87 4.349 7.162 1.013 22.655-4.713 26.232-9.697 45.609-36.005 63.682-86.461 13.646-38.1 41.613-80.009 65.743-98.519l6.696-5.137-.573-8.672c-.618-9.341-1.368-11.206-3.722-9.253-2.476 2.055-5.874.913-6.717-2.258-.807-3.036 1.416-20.44 3.156-24.708.832-2.04.453-4.326-1.907-11.5-5.732-17.427-8.307-21.577-9.77-15.748-.373 1.488-2.17 5.933-3.992 9.877-5.107 11.054-10.118 25.491-14.402 41.496-5.766 21.542-5.091 20.812-8.936 9.655-5.38-15.608-8.307-19.633-13.356-18.366-4.557 1.144-5.9 5.41-5.513 17.508.681 21.288.252 39.62-1.03 44.013-1.906 6.526-8.83 13.485-13.252 13.319-7.979-.3-26.876-10.478-37.099-19.981-8.657-8.047-10.779-11.652-10.779-18.309 0-8.252 4.303-30.255 8.843-45.22 4.987-16.437 5.936-17.467 20.565-22.307 12.162-4.023 21.802-8.459 19.842-9.129-1.748-.598-1.564-2.261.25-2.261.825 0 1.5.45 1.5 1 0 1.775 1.597 1.095 9.622-4.097 17.526-11.339 33.446-29.713 30.481-35.181-4.04-7.453-27.41-33.124-29.508-32.415-.644.217-.961 2.219-.769 4.863.255 3.513-.576 6.605-3.807 14.166-2.273 5.319-3.855 10.12-3.517 10.668.339.548.252.997-.193.998-.445.002-2.132 2.534-3.749 5.628-1.616 3.095-5.104 7.848-7.75 10.565-2.645 2.716-4.81 5.07-4.81 5.232 0 .161 1.575 1.963 3.5 4.004 4.057 4.302 4.831 8.73 1.367 7.824-1.173-.307-3.31-2.534-4.75-4.951l-2.617-4.393-8.003.614c-14.599 1.119-17.909-2.553-6.247-6.931 11.257-4.227 12.889-5.069 18.448-9.519 8.769-7.022 13.497-20.893 10.361-30.397-2.858-8.658-17.788-17.186-30.059-17.169-12.232.018-20.973 5.694-31.353 20.358-9.17 12.956-10.248 17.235-9.737 38.633 1.464 61.281.24 86.005-4.94 99.851-2.463 6.581-3.875 7.889-8.675 8.037-4.07.124-4.107.078-8.921-11.188-4.524-10.586-12.694-16.497-32.835-23.753-13.589-4.897-18.563-12.349-17.17-25.729.919-8.826 4.119-14.51 16.057-28.522 17.466-20.5 19.315-23.485 24.596-39.696 8.645-26.541 2.205-65.242-12.069-72.524-4.034-2.058-12.62-2.592-16.485-1.026M481.5 85.765c-1.563 1.149-1.416 5.417.166 4.81.734-.282 1.334-.076 1.334.456 0 .533-.562.983-1.25.999-.694.017-.471.484.5 1.05 2.244 1.307 2.209 3.006-.146 7.113-1.293 2.255-1.634 3.943-1.071 5.307.708 1.713.836 1.579.897-.941.064-2.707.177-2.796 1.409-1.11 1.289 1.763 1.365 1.764 2.034.021.382-.995.214-2.107-.373-2.47s-.78-1.409-.429-2.324c.351-.916 1.041-1.416 1.534-1.111.492.304.895.076.895-.506s.788-1.045 1.75-1.027c1.634.029 1.629.123-.07 1.412-1.716 1.3-1.659 1.457.972 2.718 3.286 1.575 3.441 2.959.485 4.325-2.78 1.284-2.695 1.938.438 3.365 2.673 1.218 5.641.518 3.477-.82-1.702-1.052 1.618-8.792 4.111-9.584 1.897-.602 1.903-.681.156-2.005-1.579-1.197-1.604-1.384-.194-1.411 1.058-.021 1.625-.904 1.625-2.532 0-3.278-1.32-3.175-3.178.25-.821 1.513-1.51 2.202-1.532 1.531-.056-1.694-3.04-.392-3.04 1.326 0 .766-.45 1.393-1 1.393s-1.007-1.013-1.015-2.25c-.016-2.372-1.942-6.283-1.97-4-.02 1.629-1.178 1.583-3.536-.142-1.617-1.182-1.703-1.633-.569-3 1.454-1.751-.326-2.374-2.41-.843m-2 36.235c-.34.55-.194 1 .324 1 1.572 0 1.986 3.553.695 5.965-1.063 1.986-1.297 2.057-1.867.571-.99-2.581-.761-4.252.348-2.536.533.825.969 1.05.969.5 0-1.976-1.517-3.066-4.219-3.033-2.859.034-3.667 1.023-1.5 1.835.871.326.643.974-.75 2.135-1.976 1.646-1.973 1.659.275 1.039 1.251-.345 2.211-.255 2.132.199-.436 2.506.134 3.684 1.246 2.572.87-.87 1.783-.656 3.726.872 1.517 1.194 2.72 1.585 2.93.953.197-.59 1.431-1.072 2.743-1.072 1.665 0 2.218-.435 1.833-1.439-.313-.817.349-2.003 1.531-2.741 1.146-.716 2.084-1.718 2.084-2.227 0-.51-.284-.642-.631-.295-.348.347-1.473.182-2.5-.368-1.028-.55-1.869-.63-1.869-.178s-.922.892-2.049.977c-1.639.123-1.918-.259-1.393-1.913.439-1.382.289-1.84-.451-1.382-.629.388-1.107.01-1.107-.875 0-1.746-1.552-2.093-2.5-.559M0 251.5c0 26.858.228 48.605.507 48.327.716-.716.796-95.858.081-96.572C.265 202.931 0 224.642 0 251.5m395.746 19.087c-.41.411-.746 1.927-.746 3.369 0 4.06-10.917 38.823-14.707 46.83-1.829 3.866-1.078 5.234 1.562 2.845 2.616-2.367 4.777-7.974 12.804-33.219 4.127-12.981 4.375-14.342 3.156-17.329-.727-1.783-1.658-2.906-2.069-2.496m97.504 101.08c-.687.275-1.25 1.137-1.25 1.916 0 .78-.788 1.424-1.75 1.432-1.468.013-1.513.166-.279.946.809.512 1.2 1.201.869 1.532-.331.331-1.314-.109-2.184-.979-1.442-1.443-1.656-1.292-2.432 1.702-.468 1.806-1.498 3.284-2.288 3.284-.79 0-1.767.45-2.171 1-.404.551-.741.124-.75-.95-.011-1.432-.311-1.654-1.128-.837-1.885 1.885.081 3.543 3.411 2.877 1.681-.336 2.767-.322 2.414.031-.868.869 1.087 4.379 2.44 4.379.595 0 .856-.861.581-1.914-.348-1.328.152-2.13 1.633-2.622 1.909-.634 1.802-.775-1.014-1.336-2.575-.514-2.903-.854-1.803-1.868.847-.781 1.572-.873 1.957-.25.337.544 1.323.99 2.193.99.869 0 2.216.788 2.993 1.75 1.287 1.595 1.353 1.529.747-.75-.542-2.042-.424-2.271.649-1.25 1.565 1.491 3.29 1.67 2.412.25-.34-.55-.138-1 .449-1 .958 0-.38-3.431-1.949-5-.275-.275-.5-1.137-.5-1.917 0-1.581-1.359-2.173-3.25-1.416M478 390.568c0 .788.927 1.432 2.059 1.432 1.172 0 1.782.448 1.416 1.041-.354.572-1.505.767-2.559.432-2.365-.75-2.421-.086-.212 2.494.937 1.095 1.966 1.567 2.286 1.049.713-1.154 5.01-.152 5.01 1.168 0 .523-.788.706-1.75.406-2.137-.665-5.434 1.285-3.5 2.069 1.795.729 1.549 2.67-.25 1.979-1.911-.733-1.889-.161.115 2.897 1.888 2.881 4.169 3.2 5.11.715.991-2.617 2.624-3.967 4.173-3.451.836.279 1.105.015.682-.669-.384-.622-1.346-1.13-2.139-1.13-.793 0-1.441-.723-1.441-1.607 0-1.073.54-1.4 1.627-.983 1.71.657 4.373-.956 4.373-2.649 0-.547-1.151-.774-2.558-.505-1.883.36-2.419.127-2.031-.884.295-.77-.104-1.372-.911-1.372-.867 0-1.209.595-.862 1.5.317.825.064 1.5-.562 1.5-1.765 0-2.439-2.857-1.065-4.513.99-1.193.962-1.501-.139-1.556-.754-.038-2.61-.232-4.122-.432-1.889-.249-2.75.086-2.75 1.069m1.676 22.291c-1.003.396-1.836 1.152-1.85 1.68-.014.529-.431.848-.926.711-.495-.137-.9.377-.9 1.143s-.675 1.652-1.5 1.969c-.825.316-1.5 1.094-1.5 1.729 0 .831.419.806 1.5-.091 1.574-1.306 1.656-1.168 1.925 3.25.2 3.283-1.165 3.628-2.293.579-.47-1.271-1.076-1.729-1.462-1.104-.363.587-.01 2.319.784 3.849.794 1.531 1.215 3.152.936 3.604-.28.452.081.829.801.837.953.011.901.283-.191 1-1.228.806-1.258 1.141-.166 1.846 1.066.688.999.989-.332 1.5-2.364.907-2.43.862-2.002-1.361.503-2.613-.673-2.554-2.342.118-.948 1.519-1.016 2.424-.24 3.2.776.776 1.082.733 1.082-.153 0-.971.481-.978 2.247-.033l2.248 1.203-2.748.916c-1.511.504-2.747 1.355-2.747 1.891 0 .537.445.701.989.365.566-.35.734.051.393.941-.408 1.062-.009 1.547 1.261 1.537 1.423-.012 1.54-.216.5-.875-.946-.6-1.021-1.067-.25-1.544.609-.376 1.114-.095 1.122.625.012.978.248.942.934-.143.506-.799.726-1.764.491-2.145-.783-1.267 2.675-1.912 4.632-.864 1.346.72 1.928.708 1.928-.039 0-1.412 3.58.459 4.251 2.222.267.703.019 2.403-.551 3.778-1.625 3.916-1.663 9-.068 9 .752 0 1.297-.337 1.209-.75-.306-1.445 1.443-4.408 2.048-3.469.897 1.394 5.538 2.719 4.684 1.338-.428-.693-.091-.871.916-.485.876.336 1.521.219 1.433-.261-.342-1.878.109-4.675.665-4.119 1.106 1.106 1.398 8.746.334 8.746-.571 0-.761.45-.421 1s-.084 1-.941 1-1.559.477-1.559 1.059.45.781 1 .441 1 .084 1 .941c0 2.338 1.665 1.876 2.489-.691.612-1.904.795-1.981 1.19-.502.481 1.802-1.737 4.752-3.572 4.752-.57 0-1.518.9-2.107 2-1.617 3.021.616 2.545 3.516-.75 1.332-1.512 2.435-2.187 2.452-1.5.018.688-.418 1.25-.968 1.25s-1 1.35-1 3-.468 3-1.039 3-.121.985 1 2.189c2.24 2.404 2.784 7.802.789 7.826-.972.012-.964.197.035.831 1.621 1.028 1.45 13.147-.185 13.169-.77.011-.76.236.034.75.624.404 1.359 1.635 1.634 2.735.275 1.1.499-13.3.498-32-.002-18.7-.312-32.65-.689-31-.645 2.816-.733 2.865-1.436.792-.73-2.153-.836-2.167-4.205-.56-2.849 1.359-3.674 1.417-4.696.333-.987-1.047-.985-1.409.01-1.773.688-.252 1.25-1.521 1.25-2.819 0-1.305.993-3.055 2.223-3.916 1.222-.856 1.784-1.609 1.25-1.672-.535-.064-1.648-.176-2.473-.25-.855-.077-1.638-1.337-1.821-2.93-.258-2.251-.697-2.675-2.255-2.181-1.303.414-2.15.049-2.597-1.116-.575-1.498-.779-1.417-1.527.603-.524 1.417-.478 2.57.116 2.937.538.333.648 1.139.245 1.791-.512.829-1.776.289-4.197-1.794-3.462-2.978-3.135-4.883.845-4.93.72-.008 1.019-.485.664-1.059-.355-.574-.101-1.699.563-2.5 1.296-1.561.56-1.748-2.36-.597M422.07 435.75c-.038 1.788.38 3.25.93 3.25s1-.468 1-1.039c0-.601.592-.495 1.4.25 1.193 1.098 1.119 1.554-.5 3.078-2.118 1.995-2.254 2.605-1.012 4.564.653 1.031 1.342 1.094 2.886.268 1.458-.781 2.903-.781 5.14-.001 1.711.596 3.83.808 4.71.471 1.14-.438 1.432-.18 1.019.898-.343.892-.023 1.511.781 1.511 1.927 0 2.741-2.723 1.013-3.386-.79-.303-1.437-1.565-1.437-2.805v-2.254l-1.568 2.239c-1.502 2.144-3.432 2.193-3.432.088 0-.55.45-.722 1-.382.55.34 1-.084 1-.941s.675-1.559 1.5-1.559c.862 0 1.5-.902 1.5-2.122 0-1.714-.272-1.897-1.411-.952-.965.801-1.616.839-2.059.123-.356-.577-.171-1.049.411-1.049s1.059-.54 1.059-1.2c0-.887-.293-.907-1.122-.078-.617.617-1.706.898-2.419.624-.714-.274-2.55.322-4.08 1.325-2.551 1.672-2.728 1.681-2.125.108.774-2.017-.776-3.362-1.857-1.612-.518.838-.971.616-1.499-.733-.593-1.514-.773-1.229-.828 1.316" fill="#d3d3d3" fill-rule="evenodd"/></svg>