<svg xmlns="http://www.w3.org/2000/svg" width="500" height="884"><path d="M0 8.107c0 6.795.243 8.014 1.5 7.531.825-.316 1.5-.153 1.5.362s.644.69 1.43.388c.787-.301 3.033.212 4.992 1.142 6.589 3.127 8.593-.281 4.078-6.935L10.999 6.91l2.501-2.5C14.875 3.034 16 1.48 16 .955c0-1.44-8.735-1.166-9.417.295-.466 1-.7 1-1.166 0C5.096.563 3.746 0 2.417 0 .06 0 0 .201 0 8.107M142.553.915c-.812 1.313-1.529 10.558-2.025 26.085-2.274 71.236-2.797 81.314-4.545 87.5-.466 1.65-1.087 5.925-1.381 9.5-.294 3.575-1.018 12.575-1.61 20-1.742 21.852-2.714 27.246-5.267 29.228-1.224.95-2.595 1.738-3.046 1.75-1.76.047-3.415 2.827-6.138 10.306-1.56 4.286-3.33 7.615-3.938 7.407-.606-.208-1.882.511-2.834 1.597-1.537 1.753-1.801 1.792-2.355.349-.343-.894-1.038-1.369-1.545-1.056-.506.313-1.418-.858-2.026-2.602-.809-2.322-1.335-2.811-1.959-1.825-.639 1.007-.867.843-.908-.654-.041-1.527-.366-1.286-1.37 1.02-.945 2.168-2.078 3.083-4.019 3.244-1.487.123-4.182 1.351-5.99 2.73-1.807 1.378-3.758 2.506-4.334 2.506-.577 0-1.346.775-1.71 1.722-.551 1.437-.806 1.486-1.541.298-.484-.784-.615-1.853-.292-2.377.324-.524.069-.631-.565-.238-1.521.939-1.487-.673.045-2.205.834-.834.859-1.2.083-1.2-.614 0-1.276.48-1.472 1.066-.195.587-2.33-2.676-4.744-7.25-2.413-4.574-8.071-14.841-12.573-22.816-4.501-7.975-9.71-17.425-11.575-21-1.865-3.575-3.962-7.097-4.66-7.827-.699-.73-1.074-2.41-.834-3.734.24-1.323.018-2.665-.494-2.982-1.454-.898-1.093-2.457.569-2.457.825 0 1.5-.771 1.5-1.714 0-2.926 3.09.918 3.893 4.843.416 2.038 1.576 3.795 2.959 4.484 1.251.624 2.214 1.304 2.141 1.511-.494 1.393 2.257 5.821 3.95 6.358 1.131.359 2.057 1.072 2.057 1.585 0 .513.927.933 2.059.933 1.317 0 1.799.421 1.336 1.17-.494.8-.165.956 1.039.494 1.142-.438 2.772.173 4.629 1.736 3.946 3.32 11.247 4.411 14.776 2.208 1.006-.628.383-1.614-2.5-3.955-2.111-1.716-5.986-5.265-8.61-7.886-2.624-2.622-5.423-4.767-6.219-4.767-.876 0-1.22-.592-.872-1.5.339-.882.013-1.5-.79-1.5-.752 0-1.929-.9-2.616-2s-1.92-2-2.74-2c-.821 0-1.492-.48-1.492-1.067 0-.623-.858-.795-2.058-.415-2.187.694-6.404-2.961-5.362-4.647.296-.479-.186-.871-1.072-.871-.886 0-2.289-1.462-3.119-3.25-2.201-4.741-3.851-7.498-5.728-9.572-.913-1.009-1.661-2.181-1.661-2.603 0-.423-1.8-2.813-4-5.312-2.2-2.5-4-5.101-4-5.781 0-.681-.699-1.818-1.554-2.527-1.251-1.038-1.449-2.768-1.016-8.872.295-4.171.781-12.083 1.079-17.583.297-5.5.973-16.525 1.501-24.5 1.504-22.707 1.735-21.191-3.562-23.369-2.499-1.028-4.777-1.636-5.062-1.351-.74.74-2.05 15.925-3.475 40.273l-1.233 21.053-4.037-4.38c-3.939-4.272-8.128-7.032-10.141-6.68-7.799 1.363-9.353 3.42-5.968 7.895 1.97 2.605 1.95 5.958-.032 5.197-1.873-.718-2.246 28.1-.407 31.535.79 1.477.79 2.344 0 3.134-.721.721-1.093 8.216-1.093 22.01v20.916l2.681-.512c4.215-.806 6.433.835 12.163 9.005l5.344 7.619-2.113 12.578c-4.368 25.999-8.353 41.01-7.932 29.881.119-3.163-.351-5.155-1.484-6.288-.913-.912-1.711-2.414-1.774-3.337a53.408 53.408 0 0 0-.25-2.679c-.19-1.409-3.511-5.972-3.96-5.44C.495 199.647-1.107 227.802 1 226.5c1.351-.835 1.258.11-.25 2.544-1.03 1.663-.986 2.185.25 2.971.975.621 1.067.96.263.97-.978.012-1.241 45.746-1.256 218.967l-.02 218.951 3.506-1.465c3.715-1.552 4.569-.643 1.902 2.025-.938.937-2.394 1.355-3.5 1.004-1.31-.416-1.895-.118-1.895.966C0 674.507.943 675 3 675c1.65 0 3 .45 3 1s-.408 1-.906 1c-.499 0-.673.896-.386 1.99.374 1.433-.142 2.255-1.844 2.937-2.3.921-2.305.948-.185 1.01 1.198.034 2.962-.72 3.919-1.678 1.252-1.252 1.858-1.392 2.155-.5.228.683 1.081 1.241 1.898 1.241 1.631 0 .927-3.955-.914-5.138-.546-.351-.682-1.143-.301-1.759.4-.646-.286-1.513-1.622-2.048l-2.314-.928 2.25-.064c1.238-.034 2.257.5 2.265 1.187.01.78.292.872.75.243.953-1.305 6.686-1.299 6.895.007.233 1.458-.941 3.124-2.66 3.774-.999.379-.749.594.75.647 2.796.098 2.944 1.724.235 2.584-1.108.351-1.756 1.057-1.441 1.567.316.51-.788.928-2.454.928-2.28 0-2.885.37-2.452 1.5.365.95-.013 1.5-1.031 1.5-.884 0-1.607.387-1.607.861 0 .473-1.575.735-3.5.583-3.29-.261-3.5-.096-3.5 2.746 0 2.117.402 2.87 1.341 2.51.737-.283 1.975-.113 2.75.377 1.025.65.66.897-1.341.908C.365 693.998 0 694.398 0 697c0 2.05.493 3 1.559 3 .936 0 1.27.468.836 1.17-.483.782-.182.962.909.544 2.024-.777 2.919.591 3.269 4.994.237 2.99.004 3.372-1.891 3.101-1.23-.176-2.315-1.171-2.519-2.309-1.746-9.775-2.19 3.529-2.129 63.783C.072 808.527.337 839 .623 839 1.374 839 4 836.263 4 835.479c0-.365.822-1.709 1.828-2.987 2.29-2.912 4.137-1.92 4.699 2.524.232 1.833.884 3.795 1.448 4.359 1.472 1.472 1.263 3.625-.353 3.625-2.793 0-4.102 2.923-2.02 4.512 2.812 2.148.022 3.646-5.352 2.873L0 849.773v34.233l157.75-.253 157.75-.253-.345-3.484c-.19-1.916-.938-4.63-1.663-6.031-.924-1.787-1.018-3.081-.314-4.338.714-1.277.573-2.678-.494-4.881-1.824-3.766-1.213-5.783 1.662-5.487 2.689.276 2.933-2.474.254-2.867-2.586-.38-3.748-2.395-3.181-5.516.26-1.432-.062-3.139-.715-3.792-.916-.916-.862-1.388.24-2.069 1.208-.747 1.218-1.135.065-2.524-1.767-2.129-1.95-6.596-.297-7.231 2.127-.816 1.551-4.28-.712-4.28-1.333 0-2-.667-2-2 0-1.1.434-2 .965-2 2.175 0 3.167-3.992 1.878-7.558-.944-2.612-.988-4.221-.171-6.385.788-2.086.789-3.196.003-3.982s-.622-1.556.587-2.765c1.568-1.568 1.796-1.568 3.536.007 1.681 1.521 5.202 2.353 5.202 1.228 0-1.359-5.176-5.306-8.033-6.125-4.089-1.173-5.147-3.42-1.609-3.42 3.559 0 4.232-1.774 1.198-3.156-2.897-1.32-3.511-3.282-.754-2.407.992.315 2.645-.043 3.674-.796 1.791-1.309 1.758-1.441-.753-3.087l-2.623-1.719 2.7-2.667c2.603-2.572 3.509-6.171 1.95-7.744-.412-.417-.75-1.596-.75-2.622 0-1.026-.675-2.124-1.5-2.44-3.067-1.177-1.473-2.613 2.25-2.028 2.063.324 5.55.179 7.749-.323 2.485-.567 4.359-.553 4.95.038 1.44 1.44 4.415 1.144 7.636-.758 2.335-1.38 3.621-1.517 6.654-.709 2.44.648 4.933.662 7.097.039 2.233-.642 3.556-.617 4 .075 1.429 2.227 5.138 2.459 7.915.494 2.955-2.092 11.249-3.931 11.249-2.496 0 .479 2.025.752 4.5.607 2.475-.145 4.5.178 4.5.718a.974.974 0 0 1-.961.981c-.529 0-1.852.956-2.941 2.125-1.799 1.931-1.844 2.334-.489 4.4 1.192 1.82 1.23 2.38.191 2.796-.987.396-.999.54-.05.6.688.043 1.25.763 1.25 1.598 0 1.092.656 1.354 2.333.933 1.708-.428 2.334-.161 2.334.996 0 1.078-.584 1.396-1.834.999-1.008-.32-1.833-.101-1.833.486s.827 1.067 1.838 1.067c2.673 0 2.798 6.475.169 8.726-2.228 1.907-1.056 4.274 2.115 4.274 1.033 0 1.878.675 1.878 1.5 0 .833.889 1.5 2 1.5 2.584 0 2.524.735-.25 3.089-2.039 1.73-2.098 2.029-.631 3.175.89.695 1.939 2.724 2.331 4.507.588 2.679 1.568 3.611 5.631 5.359 5.139 2.211 6.495 4.016 2.71 3.608-3.094-.333-3.267 1.964-.587 7.808 1.249 2.725 2.288 5.629 2.309 6.454.021.825.789 1.442 1.707 1.37 1.985-.154 4.321 5.489 2.871 6.939-1.177 1.177-.275 3.691 1.325 3.691 2.827 0 5.078 2.7 3.667 4.399-1.151 1.388-.969 1.987 1.288 4.245 2.641 2.641 3.554 6.356 1.562 6.356-.603 0-.799.848-.449 1.949.406 1.28-.137 2.704-1.583 4.15-1.763 1.763-1.971 2.52-1.045 3.801 1.685 2.331 1.928 3.102 2.631 8.35l.636 4.75h25.97c22.162 0 26.054-.22 26.545-1.5.317-.825 1.251-1.5 2.076-1.5.933 0 1.279.576.915 1.524-.512 1.335 1.496 1.49 16.143 1.25l16.728-.274.27-90.128.27-90.128-2.27-.629-2.27-.628 2.267-1.76c2.116-1.644 2.242-2.364 1.895-10.854-.204-5.001-.656-9.554-1.005-10.118-.348-.564-.128-2.475.49-4.248.899-2.576.846-3.397-.262-4.099-.998-.632-1.035-.882-.135-.893.997-.012 1.205-44.119 1.026-217.765-.123-119.762-.359-210.213-.524-201-.165 9.212-.536 16.75-.824 16.75-1.945 0-9.855-11.439-18.487-26.735-4.107-7.277-6.618-10.8-7.126-10-.527.829-.789.561-.8-.818-.02-2.752-6.022-10.84-7.182-9.68-1.017 1.017-.073 4.233 1.243 4.233.473 0 .602.675.286 1.5-.362.942.01 1.5 1 1.5 1.048 0 1.387.586 1.012 1.75-.475 1.477-.394 1.516.516.25.838-1.165 1.1-.494 1.171 3 .051 2.475.239 5.261.418 6.192.525 2.717-2.178 5.7-3.449 3.808-.555-.825-.744-2.175-.421-3 1.141-2.91 1.643-9 .742-9-.502 0-1.437 1.39-2.079 3.089-.991 2.627-1.381 2.889-2.608 1.75-.931-.864-1.076-1.569-.408-1.988.585-.366.211-.859-.861-1.134-1.645-.421-1.664-.5-.145-.601 1.417-.094 1.735-1.02 1.671-4.866-.043-2.613-.326-4.075-.627-3.25-.828 2.264-4.481 6.003-5.344 5.469-.62-.383-.545-5.225.141-9.136.414-2.364-.302-2.335-2.211.092-2.119 2.694-2.12 2.694-4 .677-1.034-1.11-1.873-2.6-1.865-3.31.012-1.007.205-.993.875.065.6.946 1.067 1.021 1.544.25.376-.609.192-1.107-.41-1.107-.784 0-.791-.566-.024-2 1.487-2.779-.181-2.501-3 .5-1.643 1.749-1.921 2.51-.924 2.532 1.077.024.998.355-.326 1.36-2.146 1.629-2.24 2.608-.25 2.608.825 0 1.5.477 1.5 1.059s.45.781 1 .441 1-.115 1 .5.45.84 1 .5c.55-.34 1-.153 1 .415 0 .569-1.35 1.732-3 2.585-1.708.883-3 1.11-3 .526 0-.564.788-1.04 1.75-1.056 1.597-.028 1.586-.126-.119-1.117-1.282-.744-2.071-.76-2.51-.049-.955 1.546-6.121 2.646-6.121 1.304 0-.609.337-1.055.75-.99 2.01.318 3.25-.247 3.25-1.481 0-.75-.788-1.281-1.75-1.18-3.439.362-5.25 1.794-5.25 4.15 0 3.261-1.51 3.045-1.783-.256-.338-4.085-4.217-7.656-4.217-3.882 0 .816-.595 1.24-1.34.954-1.784-.685-4.194 2.129-2.643 3.087 1.89 1.169-1.738 4.266-4.401 3.757-1.514-.29-2.547.112-2.943 1.143-.689 1.795.841 2.185 1.893.483.477-.771.944-.696 1.544.25 1.011 1.597 1.185 3.485.232 2.532-.362-.362-1.262-.156-2 .456-.987.819-1.342.817-1.342-.009 0-2.341-2.786-.971-5.896 2.898-1.777 2.211-3.652 3.759-4.167 3.441-1.543-.954-1.061-2.456.813-2.531 1.496-.06 1.46-.195-.25-.93-2.855-1.227-3.503-1.172-2.958.25.306.795-.433 1.25-2.031 1.25-2.561 0-3.587-2.717-1.511-4 .55-.34 1-1.116 1-1.726 0-.609-.284-.823-.631-.476-.348.347-1.585.137-2.75-.469-1.166-.605-1.796-.753-1.401-.33 1.525 1.636-7.177 7.139-10.468 6.619-.412-.065-.697.22-.632.632.296 1.871-.207 3.25-1.185 3.25-.648 0-.792-.885-.367-2.25.683-2.197.652-2.208-1.334-.435-2.15 1.92-3.158 1.334-2.691-1.565.4-2.481-3.073-2.257-4.874.315-1.97 2.813-1.083 6.854.924 4.208 1.251-1.649 1.348-1.612 1.377.536.018 1.27-.387 2.05-.899 1.734-.512-.317-1.213-.118-1.559.441-.345.559-.151 1.016.431 1.016s1.059.525 1.059 1.167c0 .641-.276.891-.612.554-.337-.337-2.004.688-3.705 2.278-2.663 2.489-3.055 3.492-2.825 7.234.205 3.341-.209 4.775-1.795 6.21-1.464 1.324-2.063 3.094-2.063 6.09 0 3.858-2.169 7.714-3.239 5.759-.238-.436-.313-.273-.166.36.147.634-.021 1.441-.373 1.793-.352.352-.544 2.534-.426 4.848l.215 4.207-1.354-3c-.745-1.65-1.149-3.562-.899-4.25.251-.687.029-1.25-.493-1.25s-1.488-1.8-2.147-4c-.659-2.2-1.685-4-2.281-4-.77 0-.774-.372-.01-1.291 1.139-1.372-2.383-4.487-3.645-3.224-.343.343.038 1.042.847 1.554 1.25.791 1.22.933-.196.946-.916.008-1.893-.548-2.171-1.235-.403-1-.52-1-.583 0-.043.688-.946 1.25-2.006 1.25-1.059 0-2.155.788-2.434 1.75-.28.963-.49.4-.468-1.25.023-1.65-.007-3.523-.065-4.162-.136-1.49-3.565-1.024-3.731.507-.247 2.284-.395 2.383-1.808 1.211-1.235-1.026-1.201-1.435.25-2.964.926-.976 1.929-1.651 2.231-1.499 1.156.581 3.174-1.425 2.511-2.498-.383-.62-1.152-.846-1.708-.503-.556.344-1.675-.324-2.488-1.484-.812-1.159-1.971-2.108-2.575-2.108-.604 0-.353.823.557 1.829 2.201 2.431 2.088 3.899-.36 4.676-1.108.351-1.756 1.057-1.441 1.567.316.51.135.928-.402.928-.536 0-1.204-.563-1.483-1.25-.381-.941-.769-.879-1.568.25-.943 1.333-1.064 1.333-1.091 0-.022-1.085-.243-1.165-.8-.29-.554.872-1.116.655-2.009-.775-1.137-1.821-1.031-1.933 1.285-1.352 2.177.547 2.513.309 2.445-1.725-.043-1.297-.306-1.795-.583-1.108-.278.688-1.394 1.25-2.48 1.25-1.087 0-1.701-.445-1.365-.989.35-.566-.051-.734-.941-.393-.854.328-1.552.998-1.552 1.489 0 1.005-4.33 1.23-5.286.274-.34-.341.068-1.306.908-2.145 1.132-1.133 1.22-1.716.339-2.26-.902-.557-.885-.835.069-1.153.981-.327.999-.901.083-2.612-1.073-2.004-.955-2.176 1.356-1.984 2.758.228 3.24 1.621 1.281 3.698-1.009 1.069-.961 1.238.25.872.825-.25 1.639-1.393 1.808-2.541.489-3.302 3.41-3.874 3.013-.589-.184 1.526.228 2.843.967 3.092 1.397.47 1.268-5.241-.171-7.57-.796-1.288-4.205-1.21-6.367.145-.687.431-1.25.517-1.25.19s-.929-.097-2.065.511c-1.745.933-1.862 1.348-.757 2.679 1.139 1.373 1.02 1.484-.936.863-1.672-.531-2.242-.313-2.242.856 0 .862-.562 1.455-1.25 1.317-.777-.155-1.165.696-1.025 2.25.123 1.375-.027 1.938-.334 1.25s-1.533-1.264-2.724-1.282c-1.881-.027-1.964-.192-.626-1.25 1.384-1.095 1.378-1.376-.063-2.78-.882-.86-2.137-1.385-2.79-1.167-.654.218-1.188-.118-1.188-.747 0-.628-.453-.862-1.007-.52-.554.343-1.277-.081-1.607-.941-.33-.859-1.339-1.556-2.243-1.548-.986.01-1.224.309-.595.75.576.404 1.137 2.31 1.247 4.235l.199 3.5-1.993-4.351c-1.097-2.393-1.763-4.725-1.481-5.181.282-.456.055-1.112-.504-1.458-.559-.345-1.016-.151-1.016.431s-.675 1.059-1.5 1.059-1.5.45-1.5 1 1.012 1.007 2.25 1.015c1.546.011 1.848.271.966.83-1.35.857-.643 4.155.891 4.155.491 0 .893.375.893.833 0 2.177-2.989.495-3.534-1.988-.69-3.142-1.999-4.409-2.956-2.861-.345.559-.118 1.016.504 1.016 1.826 0 .657 3.286-1.269 3.568-.965.141-1.501-.154-1.191-.656.711-1.15-.622-1.155-2.432-.008-.758.48-1.069 1.373-.691 1.984.407.658-.052 1.118-1.122 1.127-1.534.013-1.581.163-.309.985 1 .646 1.083.974.25.985-.687.008-1.25.69-1.25 1.515s.477 1.5 1.059 1.5.781.45.441 1c-1.095 1.771-7.532 1.247-6.84-.557.336-.874 1.249-1.308 2.08-.989 1.038.398 1.303.1.883-.995-.345-.898-.18-1.303.388-.952.544.336.989.183.989-.341s-.788-1.296-1.75-1.716c-1.462-.638-1.301-.862.972-1.357 2.134-.465 2.512-.918 1.75-2.093-.609-.94-1.252-1.127-1.722-.5-.413.55-1.425 1.146-2.25 1.325-.825.179-1.651.744-1.835 1.256-.185.512-.747.677-1.25.366-.503-.311-.982.924-1.065 2.744-.13 2.871-.204 2.958-.556.661-.24-1.563-1.204-2.857-2.351-3.157-1.068-.279-1.936-1.337-1.928-2.351.012-1.438.208-1.541.889-.466.48.758 1.38 1.064 2.001.681.62-.383.869-1.116.552-1.628-.854-1.383-4.452-1.127-4.489.319-.019.746-.583.523-1.399-.553-1.011-1.334-1.488-1.464-1.831-.5-.255.717-.761 1.03-1.125.696-1.402-1.288.546-4.006 2.004-2.796 1.084.9 1.383.785 1.383-.534 0-.974-.465-1.393-1.107-.997-.752.465-.882-.026-.406-1.527.62-1.953.475-2.089-1.248-1.167-2.21 1.183-1.802 4.412-4.726-37.372-.847-12.1-2.215-29.425-3.039-38.5-1.321-14.54-7.709-105.194-10.535-149.5C250.47-2.547 252.404 0 236.367 0h-13.594l.62 4.25c.341 2.338 2.411 20.225 4.601 39.75 5.329 47.533 10.79 94.795 12.016 104 1.533 11.507 4.99 45.995 4.99 49.776 0 2.916-.299 3.321-2.25 3.044-2.083-.296-2.381-1.245-4.02-12.82-5.372-37.948-14.963-131.192-12.059-117.25.257 1.237 1.148 2.25 1.978 2.25 1.115 0 1.365-.719.956-2.75C228.117 62.87 219 2.772 219 .348c0-.962-2.902-.178-3.338.902-.403 1-.52 1-.583 0C215.028.447 213.391 0 210.5 0c-2.925 0-4.505.437-4.515 1.25-.011.836-.342.753-1-.25-.876-1.333-1.094-1.333-1.97 0-.658 1.003-.989 1.086-1 .25-.008-.687-.679-1.25-1.49-1.25-1.055 0-1.343.784-1.012 2.75.255 1.512 1.38 8.375 2.501 15.25s4.108 22.4 6.638 34.5c5.866 28.053 5.885 28.447 3.42 69.52-2.273 37.866-2.641 56.408-1.072 53.98.654-1.013.915 1.912.801 9l-.168 10.5-.669-7.5c-.441-4.954-.592-1.898-.445 9 .158 11.646-.002 14.588-.543 10-.595-5.042-.704-3.696-.485 6 .21 9.283.955 15.289 2.896 23.339 3.19 13.232 3.198 12.439-.137 12.945l-2.75.416 3 .165c2.33.129 2.665.382 1.5 1.135-1.285.831-1.252.972.231.985 2.037.018 3.755 5.186 1.927 5.796-.637.212-1.158 1.05-1.158 1.861 0 .812-.45 1.198-1 .858-.55-.34-1-.168-1 .382s.45 1.278 1 1.618c.55.34 1 1.068 1 1.618s-.441.728-.979.395c-.539-.333-1.839-.145-2.89.417-2.895 1.549-3.148-.913-2.463-23.928.335-11.276.354-20.271.042-19.99-.312.282-1.077 10.857-1.7 23.5-1.396 28.364-1.553 29.563-3.797 28.861-1.581-.495-1.579-.426.037.906 1.266 1.042 1.75 2.91 1.75 6.748 0 5.807-.792 6.423-1.183.921-.207-2.911-2.787-7.711-2.832-5.269-.009.451-.402.21-.875-.536-.6-.946-1.067-1.021-1.544-.25-.376.609-.222 1.107.344 1.107.565 0 .74.749.389 1.664-.43 1.119-.256 1.427.531.941.702-.434 1.17-.1 1.17.836 0 .857.477 1.559 1.059 1.559s.751.498.375 1.107c-.477.771-.944.696-1.544-.25-.639-1.01-.863-.824-.875.726-.008 1.146.284 2.383.65 2.749.366.366.796 1.895.957 3.398.16 1.503.877 3.191 1.592 3.752.716.56 1.154 2.03.974 3.268-.363 2.495-2.188 3.12-2.188.75 0-.825-.477-1.5-1.059-1.5s-.821-.385-.53-.856c.831-1.345-14.459-46.497-16.219-47.894-1.43-1.136-1.428-1.25.02-1.25 1.568 0 2.799-7.115 1.965-11.357-.721-3.664-2.177-1.307-2.177 3.524 0 2.841-.218 4.948-.485 4.681-.267-.266-.05-12.379.481-26.916.949-25.964 1.551-39.702 4.519-103.182.817-17.463 2.148-46.037 2.957-63.5.81-17.462 1.744-35.687 2.075-40.5L194.15 0h-6.634c-3.876 0-6.393.39-6.054.938.319.516.832 2.879 1.141 5.25.308 2.372 1.254 7.462 2.102 11.312 1.803 8.189 2.856 22.654 1.506 20.693-.495-.719-2.431-9.606-4.302-19.75L178.506 0h-19.415l-.528 3.25c-.29 1.788-1.908 26.425-3.596 54.75-1.687 28.325-4.209 69.5-5.605 91.5-2.471 38.969-3.433 56.636-4.928 90.5-.694 15.725-2.246 26.274-2.355 16-.212-20.172 4.995-128.686 9.406-196 2.482-37.87 3.57-53.355 3.989-56.75.391-3.176.312-3.25-3.47-3.25-3.455 0-3.916.295-4.288 2.75L147.3 5.5l-.15-2.75c-.15-2.748-3.265-3.991-4.597-1.835M268 25.5c0 15.755.37 25.5.967 25.5.59 0 1.077-9.941 1.25-25.501.221-19.885.008-25.5-.967-25.5C268.283 0 268 5.767 268 25.5m-4.152 35.577c-.359.867-.28 7.956.176 15.753.456 7.796 1.144 26.437 1.529 41.423s1.095 27.922 1.579 28.747c.526.897.685-2.517.397-8.5-.266-5.5-.77-21.475-1.12-35.5-.738-29.505-1.634-44.165-2.561-41.923M216.9 68.75l-.099 2.75L216 69c-1.26-3.935-1.241.689.021 5.007.721 2.467.577 10.687-.491 27.993-2.665 43.196-2.777 45.509-2.181 44.949.505-.475 3.005-34.396 4.38-59.442.241-4.396.781-8.221 1.2-8.5.419-.279.529-2.307.245-4.507-.47-3.641-.586-3.776-1.294-1.5-.479 1.539-.562.673-.216-2.25.31-2.612.287-4.75-.05-4.75-.338 0-.659 1.237-.714 2.75M53 106.845c0 1.107-.663 2.675-1.473 3.485-1.298 1.298-1.068 1.783 1.928 4.068 1.959 1.494 4.068 2.338 4.973 1.991 1.388-.532 1.78.06 1.487 2.249-.114.848 2.276 2.327 3.788 2.347 1.74.022 1.005-10.923-.81-12.073-1.864-1.179-3.613-1.132-6.034.164-1.76.941-1.97.797-1.685-1.157.179-1.228-.236-2.425-.924-2.659-.727-.248-1.25.415-1.25 1.585M217.849 142c-.574 11.032-.322 14.379 2.143 28.5l2.793 16 .207-11.5c.133-7.403.491-10.609 1.003-9 .438 1.375.555-2.675.261-9-.64-13.77-1.228-15.502-1.33-3.917-.041 4.63-.396 10.442-.789 12.917l-.714 4.5-.839-5c-.461-2.75-1.119-11.975-1.461-20.5l-.623-15.5-.651 12.5M51.241 160.25c7.711 12.787 19.136 31.991 25.389 42.674C82.884 213.608 88 221.829 88 221.193 88 214.346 42.494 137 38.466 137c-.684 0 5.065 10.463 12.775 23.25m-19.789.033c-.465 1.2.538 3.634 3.068 7.445l3.759 5.662-.586 10.358c-.532 9.382-.403 10.542 1.36 12.305 2.549 2.549 2.68 2.486 2.16-1.053-.242-1.65-.051-2.999.424-2.998.474.001.728-3.036.563-6.75l-.299-6.752 5.799 8.731c3.19 4.802 6.363 8.739 7.05 8.75 1.806.027 1.872.166-5.5-11.639-5.884-9.423-6.791-10.458-7.066-8.075-.481 4.15-1.647 3.264-1.975-1.501-.266-3.864-2.672-9.095-6.562-14.266-1.41-1.875-1.547-1.889-2.195-.217m-10.254 43.573c-1.364.866-3.53 9.091-4.671 17.74l-.672 5.096 3.07.087c3.138.089 5.191-3.165 3.61-5.722-.359-.581-.224-1.057.3-1.057s.922-1.012.883-2.25c-.039-1.238.269-5.062.685-8.5.776-6.422.13-7.509-3.205-5.394M.491 453.5c0 119.9.117 169.098.259 109.33.142-59.769.142-157.869 0-218C.608 284.698.491 333.6.491 453.5m398.911-215.761c-.346 1.231-1.098 1.949-1.67 1.595-.604-.373-.742-.159-.327.511.392.635.21 1.155-.405 1.155s-.87.402-.566.893c.304.492-.52 1.163-1.831 1.492-3 .753-3.964 3.111-2.053 5.022.913.913 1.085 1.7.458 2.088-.555.343-1.008.994-1.008 1.447 0 1.143 3.883 2.056 4.5 1.058.276-.447 1.402-.577 2.501-.289 1.117.292 1.999.03 1.999-.594 0-.615-.436-1.117-.969-1.117-.532 0-.729-.622-.438-1.383.392-1.021-.269-1.315-2.531-1.122-3.781.321-4.043-1.211-.365-2.134 1.709-.429 2.84-.25 3.086.487.213.641.799.91 1.302.599.503-.311.931.249.95 1.244.048 2.438 2.843 7.307 3.048 5.309.085-.825.101-1.838.035-2.25-.065-.412.332-.75.882-.75s1-.498 1-1.107-.661-.853-1.468-.544c-.807.31-1.734.133-2.059-.393-.325-.526.111-.956.968-.956s1.559-.637 1.559-1.417c0-.779.563-1.617 1.25-1.863.688-.245.915-.805.506-1.244-.409-.438-1.646.02-2.75 1.018-1.135 1.028-2.006 1.315-2.006.661 0-.635.468-1.155 1.039-1.155.6 0 .494-.589-.25-1.393-1.092-1.18-1.398-1.104-2.007.5-.749 1.976-2.782 2.628-2.782.893 0-.55.42-1 .933-1 1.514 0 2.275-3.813 1.144-5.73-.961-1.628-1.096-1.59-1.675.469m25.205 14.926c-3.796 3.797-9.438 16.279-10.998 24.335-1.379 7.122-1.927 21.081-3.064 78-.393 19.696.265 23.395 1.844 10.368.257-2.127.552-4.093.655-4.368.547-1.465.678-3.627.972-16 .176-7.425.497-11.812.712-9.75.216 2.063.816 3.75 1.332 3.75.517 0 .94.675.94 1.5s-.461 1.5-1.024 1.5c-.647 0-.948 3.884-.817 10.55l.208 10.549 3.066-.299 3.067-.3.5-30.433.5-30.432 4.793-3.442c2.635-1.893 4.9-3.273 5.033-3.067.132.206-.036 4.199-.374 8.874-.337 4.675-.768 6.925-.956 5-.492-5.038-1.71 17.001-1.864 33.75-.073 7.837.133 14.25.458 14.25.324 0 1.434-1.012 2.466-2.25 1.385-1.66 1.906-1.856 1.987-.75.061.825.265 2.315.454 3.312.189.996-.295 2.057-1.076 2.357-.782.3-1.421 1.417-1.421 2.482 0 1.065-.562 1.844-1.25 1.73-1.858-.307-6.75 1.219-6.75 2.106 0 .424-1.35 1.33-3 2.013-1.65.683-3 1.665-3 2.18 0 .516-.45.66-1 .32s-1 .084-1 .941c0 2.21.472 2.057 10.5-3.398l9-4.897.646-5.823c1.815-16.354 3.458-93.413 2.108-98.874-1.922-7.775-8.758-10.672-13.647-5.784m-.683 6.579c-5.978 6.545-7.159 12.183-5.355 25.556.868 6.435 1.657 12.675 1.754 13.867.259 3.177 1.343 3.768 2.069 1.13.347-1.264 3.337-4.322 6.643-6.797l6.011-4.5-.273-14.147c-.237-12.273-.525-14.425-2.178-16.25-2.679-2.957-5.235-2.621-8.671 1.141m-37.725 25.424c-6.321 2.589-11.777 23.23-12.119 45.848-.092 6.059-.325 12.359-.518 14-.194 1.641-.675 13.677-1.069 26.746-.65 21.515-.567 23.704.876 23.15 1.251-.48 1.367-1.037.537-2.587-.581-1.086-.802-3.629-.492-5.65.708-4.606 1.278-12.151 2.149-28.469.375-7.036.854-12.622 1.064-12.413.423.423 1.249 19.052 1.361 30.707.05 5.109.368 6.995 1 5.915 1.002-1.714 1.492-55.794.543-59.915-1.558-6.765-.955-20.506 1.098-25.021 5.713-12.564 11.381-9.452 11.362 6.239-.016 13.536-.821 17.081-4.279 18.834-3.299 1.674-5.549 4.444-4.479 5.514.364.364 2.307-.355 4.318-1.598l3.657-2.26-.423 18.146c-.324 13.895-.136 18.146.803 18.146 1.408 0 1.931-5.46 2.28-23.82.129-6.776.62-13.332 1.09-14.57 1.689-4.441-.384-31.364-2.648-34.399-2.065-2.769-3.799-3.49-6.111-2.543m37.389 34.124c-.75 14.351-.524 42.225.342 42.176.314-.017 1.358-.629 2.32-1.36 3.068-2.329 2.241-52.74-.874-53.316-.756-.14-1.341 3.95-1.788 12.5m-159.242-5.099c-2.87.561-3.034 2.647-3.234 41.193-.089 17.263-.403 31.775-.696 32.25-.294.475.505.916 1.775.98 1.777.089 1.894.224.506.584-1.431.371-1.561.759-.628 1.884 2.318 2.792 2.729 1.242 2.873-10.834.08-6.738.316-13.15.525-14.25.209-1.1.414-6.382.456-11.738.074-9.337.165-9.729 2.217-9.5 3.084.343 3.424-1.904.404-2.662-1.399-.351-2.544-1.128-2.544-1.726 0-.598.675-.829 1.5-.512 1.02.391 1.5-.054 1.5-1.393 0-1.129-.675-1.969-1.582-1.969-1.473 0-1.605-2.393-.414-7.5.128-.55.144-1.45.036-2-.109-.55-.131-3.812-.05-7.25.081-3.437.004-6.189-.171-6.114-.175.075-1.288.326-2.473.557m-8.253 39.615c-1.973 4.075-2.196 7.766-4.127 68.25-1.123 35.168-2.017 67.317-1.986 71.442.031 4.125.003 8.542-.063 9.815-.118 2.269.68 3.926 1.495 3.102.982-.995 2.521-25.356 3.059-48.417.321-13.75 1-31.3 1.508-39 1.989-30.09 3.556-69.5 2.763-69.5-.31 0-1.502 1.939-2.649 4.308M260 397c0 2.2-.45 4-1 4-.603 0-1 4.167-1 10.5 0 7.725.33 10.504 1.25 10.515.972.012.964.197-.035.831-.707.449-1.532 2.579-1.833 4.735-.378 2.703-.245 3.489.429 2.532.592-.841 2.002-1.191 3.583-.889l2.606.499.113-8.112c.438-31.364.617-28.611-1.863-28.611-1.958 0-2.25.519-2.25 4m183.75-3.429c-.413.419-.75 2.037-.75 3.596 0 3.306-1.518 3.786-2.316.732-.37-1.414-.975-1.837-1.852-1.295-.717.443-2.694.685-4.394.539-4.234-.365-20.835 6.037-25.613 9.878-2.147 1.725-6.541 4.027-9.763 5.115-4.068 1.374-6.021 2.6-6.39 4.011-.668 2.554.183 95.809.928 101.692.491 3.88.688 4.149 1.863 2.542.723-.988 1.109-2.333.858-2.988-.252-.655.023-1.488.611-1.851 1.206-.745 1.474-2.677.318-2.292-.413.138-.833-.2-.934-.75-.102-.55.427-.876 1.174-.723 1.908.388 2.627-1.16 2.691-5.797.03-2.204.424-4.236.876-4.515.451-.279.653-1.377.448-2.44-.237-1.232.315-2.15 1.523-2.534 1.7-.539 1.539-.947-1.567-3.963-1.903-1.849-3.461-4.047-3.461-4.886 0-.838-.45-1.802-1-2.142-.55-.34-1-1.328-1-2.195 0-1.169.683-.895 2.636 1.059 1.45 1.45 3.025 2.636 3.5 2.636 1.411 0 .981-2.018-.555-2.607-1.079-.414-1.412-2.649-1.391-9.341.025-7.739-.573-13.89-4.065-41.848-.433-3.462-.525-6.436-.206-6.607.32-.172 10.593-4.036 22.831-8.587s22.25-8.691 22.25-9.201c0-.51.47-.637 1.044-.282.574.355 1.586.218 2.25-.303.663-.522 2.402-1.233 3.863-1.582 1.462-.348 3.262-.865 4-1.148 1.108-.424 1.362 6.008 1.454 36.746.197 66.186.264 68.968 1.639 68.516 1.545-.507 2.289-5.756.816-5.756a1.066 1.066 0 0 1-1.066-1.059c0-.582.418-.801.928-.485 1.497.925 1.913-2.219 1.98-14.956.043-8.098-.252-11.512-.907-10.5-.829 1.282-.973 1.246-.986-.25-.008-.962.435-1.75.985-1.75 1.447 0 1.231-3.74-.25-4.338-1-.403-1-.52 0-.583.688-.043 1.25-.529 1.25-1.079 0-.55-.562-.888-1.25-.75-1.37.274-1.398-5.535-.029-5.989.429-.143.554-3.297.279-7.01-.275-3.713-.104-18.077.379-31.919.892-25.548.456-33.129-1.645-28.582-1.286 2.782-2.403 2.869-3.234.25-.761-2.398-2.713-2.699-2.294-.354.406 2.277-1.928 2.891-2.506.659-.43-1.659-.477-1.663-.584-.055-.18 2.712-1.945 2.063-2.3-.846-.174-1.428-.653-2.253-1.066-1.833m42.787 23.37c-.277.447-2.509 1.318-4.961 1.935-2.451.618-4.736 1.573-5.076 2.123-.34.551-1.263 1.001-2.051 1.001-.789 0-2.577.994-3.974 2.209l-2.54 2.208.219 20.042c.24 21.831.935 30.203 2.267 27.279.441-.969.629-9.409.417-18.755-.353-15.586-.238-17.039 1.388-17.555.976-.309 1.774-1.234 1.774-2.054 0-.821.416-1.235.925-.92 1.005.621 6.075-1.382 6.075-2.4 0-.344.788-.657 1.75-.695.962-.039 2.469-.382 3.348-.763 1.773-.769 2.884 8.259 2.896 23.529.008 9.602.84 13.875 2.704 13.875 1.243 0 1.358-3.451.81-24.25-.351-13.337-.834-24.942-1.073-25.787-.463-1.636-4.055-2.386-4.898-1.022m-228.87 15.726c-.367.366-.667 5.091-.667 10.5V453h3c2.799 0 3-.252 3.007-3.75.004-2.062.294-6.788.645-10.5l.637-6.75h-2.978c-1.638 0-3.278.3-3.644.667M480 446.059c0 .582-.418.801-.928.485-.51-.315-1.218.34-1.572 1.456-.354 1.116-1.062 1.771-1.572 1.456-1.25-.773-1.182 19.604.072 21.544.792 1.226.972 1.111.985-.633.027-3.739 3.829-3.747 4.3-.009.321 2.554.425 2.335.555-1.167.099-2.654-.224-4.072-.84-3.691-.916.566-1.445-.8-1.094-2.824.079-.454-.318-.54-.881-.191-.564.348-1.025.183-1.025-.367s.45-1.278 1-1.618c.55-.34 1-2.466 1-4.726 0-2.259.196-3.911.436-3.671.709.709 3.563 19.551 3.579 23.636.011 2.559.297 3.316.897 2.37.484-.766.73-2.566.546-4-.185-1.435-.428-7.93-.542-14.433-.151-8.685-.585-12.202-1.633-13.25-1.681-1.682-3.283-1.861-3.283-.367m-223.418 10.374c-1.037 3.864-.624 27.125.502 28.251 3.972 3.972 5.893-3.442 5.91-22.821.006-6.576-.021-6.64-2.925-7.066-2.319-.341-3.048.002-3.487 1.636M123 543c0 .55.45 1 1 1s.902.337.782.75c-.119.413.395 2.325 1.143 4.25.749 1.925 1.306 3.81 1.238 4.189-.067.379.768.972 1.857 1.317 1.089.346 1.98 1.08 1.98 1.631 0 1.358 19.662 20.863 21.031 20.863.598 0 .804.457.459 1.016-.346.559-1.095.728-1.666.375-.663-.41-.795.126-.364 1.484.416 1.308.242 2.125-.452 2.125-.619 0-.872.412-.561.915.311.503 0 1.142-.691 1.421-.984.397-.976.523.036.585 2.188.134 3.932 2.42 3.399 4.456-.308 1.179-.101 1.686.529 1.296.57-.352 3.146.972 5.726 2.942 2.58 1.97 4.985 3.288 5.344 2.929.358-.359-.01-1.071-.819-1.583-4.113-2.601 3.584-.596 9.45 2.462 5.656 2.948 6.686 3.207 7.434 1.872.638-1.141 1.328-1.292 2.616-.571 1.569.878 1.583 1.041.138 1.596-2.407.923-1.94 2.85.641 2.641 4.491-.364 7.75.06 7.75 1.008 0 .532-.749.681-1.664.33-1.119-.43-1.427-.256-.941.531.398.644 1.785 1.17 3.082 1.17 3.643 0 5.523 1.038 5.523 3.048 0 1.009.45 2.112 1 2.452.55.34 1-.135 1-1.056 0-1.549.183-1.554 2.465-.059 1.355.888 2.705 1.615 3 1.615 1.281 0 .377-3.395-1.213-4.558-2.704-1.977-.626-2.955 3.78-1.779 4.954 1.322 5.008.42.218-3.615-10.779-9.08-13.911-10.815-15.913-8.814-1.705 1.705-8.337-.59-8.337-2.885 0-.696-.872-1.066-2-.849-1.1.212-2-.039-2-.557 0-.519-.675-.943-1.5-.943s-1.5-.408-1.5-.906c0-.499 1.012-.719 2.25-.49 1.555.288 1.287-.034-.868-1.043-1.715-.802-6.598-3.956-10.851-7.007-4.253-3.051-8.137-5.298-8.632-4.992-.494.306-.899-.123-.899-.952 0-1.904-5.617-6.234-9.268-7.145-1.802-.45-2.674-1.262-2.5-2.328.205-1.254-.394-1.559-2.562-1.305-1.862.219-3.304-.294-4.218-1.5-1.911-2.522-1.79-3.682.298-2.843 4.411 1.772 4.628 1.697 2.345-.808-2.073-2.276-2.557-2.431-3.512-1.126-.975 1.334-1.343 1.34-3.095.047-1.489-1.099-1.703-1.757-.851-2.622.809-.821 1.331-.841 1.809-.067.37.598 1.135 1.087 1.702 1.087.566 0-.023-1.322-1.309-2.938a143.642 143.642 0 0 1-4.215-5.605c-1.178-1.675-2.13-2.256-2.559-1.562-.479.774-1.264.665-2.624-.363-2.293-1.735-3.441-1.912-3.441-.532m149.543 6.25c.761 3.105.941 3.053-10.458 2.978-4.228-.027-6.894.438-7.821 1.365-.774.774-3.287 1.468-5.585 1.543-2.299.075-3.167.331-1.929.57 1.238.238 2.25.852 2.25 1.364 0 .511-1.012.975-2.25 1.03-2.159.095-2.148.132.25.9 2.348.752 2.299.807-.816.9-1.823.055-4.186-.366-5.25-.935-1.333-.714-1.934-.714-1.934 0 0 .569-1.463 1.067-3.25 1.105-3.081.067-8.372 1.671-6.25 1.895.55.058-.125.749-1.5 1.535-1.375.786-2.275 1.481-2 1.545.275.063 3.65.259 7.5.434 5.884.268 6.283.195 2.5-.458-3.671-.633-2.842-.765 4.5-.716 13.759.092 16.752 1.157 5.596 1.992-5.172.386-13.302.703-18.068.703-5.332 0-10.754.651-14.096 1.692l-5.432 1.692 3.5.591c2.99.506 2.497.693-3.382 1.283-6.527.656-13.62-.225-17.4-2.161-.945-.484-4.193-1.635-7.218-2.557-3.025-.923-6.175-1.905-7-2.183-.825-.278-.436.357.864 1.409 1.3 1.053 4.562 2.478 7.25 3.167 2.687.688 4.886 1.683 4.886 2.21 0 1.852 7.043 4.037 9.86 3.061 1.452-.504 3.54-.562 4.64-.13 3.165 1.243 6.376 1.152 4.5-.128-1.036-.707 2.632-.821 11.867-.367 18.947.931 22.261 2.529 4.133 1.993-10.855-.321-13.934-.157-12.25.653 1.238.594 2.25 1.453 2.25 1.907 0 .455 1.861 1.849 4.136 3.098 6.549 3.595 7.734 4.343 9.686 6.109 1.009.913 2.7 1.655 3.757 1.647 3.248-.023 6.428-1.166 5.849-2.103-.302-.489.479-.732 1.737-.54 2.583.394 3.819-.625 5.575-4.593.67-1.513 1.677-2.75 2.239-2.75.561 0 1.021-.661 1.021-1.469 0-.981.58-1.251 1.75-.812 1.486.557 1.558.419.473-.917-1.086-1.337-.905-1.665 1.215-2.197 1.663-.417 2.303-1.116 1.925-2.101-.369-.962.34-1.821 2.035-2.465 1.431-.544 2.602-1.751 2.602-2.681 0-.93.297-1.394.66-1.031.363.363 1.289-.237 2.057-1.333.768-1.097 1.993-1.994 2.723-1.994 1.222 0 2.942-3.434 2.653-5.297-.068-.438 1.171-1.248 2.754-1.799 3.884-1.355 5.873-5.624 3.64-7.816-1.486-1.458-1.563-1.362-.944 1.162M212 552.915c0 .504-1.687.908-3.75.898-5.843-.028-6.25.085-6.25 1.746 0 .857-.45 1.281-1 .941-.55-.34-1-.181-1 .352 0 1.088-1.855.994-3.75-.189-.799-.5-1.25-.219-1.25.778 0 1.281-1.415 1.559-7.941 1.559-4.368 0-8.219.45-8.559 1-.34.55-.254 1 .191 1.001.445 0 5.759.483 11.809 1.072 6.05.589 13.7 1.081 17 1.094 3.3.012 6.553.477 7.229 1.033 1.445 1.187 6.517-.303 8.8-2.587.809-.808 4.048-2.046 7.199-2.751 6.885-1.541 4.75-2.6-5.57-2.762-4.72-.075-6.993-.612-8.885-2.1-2.74-2.156-4.273-2.545-4.273-1.085m127.123 3.714c-.659 1.446-.945 2.882-.637 3.19.64.641 8.219 1.018 27.335 1.363 12.709.229 20.346 1.818 8.738 1.818-3.772 0-5.564.402-5.574 1.25-.01.774-.295.869-.75.25-.664-.903-7.252-1.278-9.735-.555-.55.161-1.368.228-1.817.151-.666-.115-.373 8.107.352 9.904.111.275.149.837.083 1.25-.189 1.197.902.873 2.525-.75 1.162-1.162 1.202-1.515.178-1.568-.726-.037-.304-.558.939-1.157 1.242-.599 2.592-.732 3-.295.407.437.159 1.001-.552 1.254-.992.354-1.022.786-.127 1.863 1.321 1.592 3.364 1.932 2.419.403-.352-.569.509-1 2-1s2.352-.431 2-1c-.34-.55-.141-1 .441-1 1.486 0 1.326 2.738-.191 3.28-.687.245-.966.754-.619 1.131.347.376 1.327-.012 2.179-.863.851-.852 2.015-1.548 2.587-1.548 1.155 0 .267 3.151-1.158 4.111-.499.336-.194.884.677 1.218 1.17.449 1.584-.009 1.584-1.753 0-1.299.704-2.632 1.565-2.963 1.229-.471 1.43-.118.935 1.643-.494 1.758-.404 1.919.419.744.896-1.279 1.053-1.227 1.066.357.01 1.243-.481 1.667-1.485 1.281-.93-.356-1.5.005-1.5.952 0 .841.45 1.25 1 .91.55-.34 1-.115 1 .5s.412.864.915.553c.503-.311 1.166 0 1.474.691.308.691.459.142.336-1.219-.152-1.673.342-2.588 1.525-2.824 1.158-.23 1.745.269 1.735 1.476-.013 1.562-.168 1.608-1.079.323-.826-1.166-.961-.866-.605 1.343.409 2.546.208 2.796-1.922 2.389-1.308-.25-2.379-.006-2.379.543 0 .61 1.788.752 4.604.366 3.411-.468 5.346-.193 7.469 1.061 1.576.931 3.217 1.317 3.646.859.43-.459.219-1.036-.469-1.281-1.943-.694-1.523-4.282.5-4.265 1.185.011 1.363.261.553.777-1.191.757-.227 3.58 1.083 3.173.364-.113 2.114.087 3.888.445 2.535.511 2.905.854 1.726 1.605-.997.634-1.081.96-.25.97 2.281.028 2.752-.177 2.5-1.085-.384-1.383 1.514-1.067 2.104.35.369.887.975.686 2.083-.691.86-1.068 1.563-1.477 1.563-.911 0 .567 1.125 1.544 2.5 2.17 1.521.693 2.5.756 2.5.161 0-.539.661-.979 1.469-.979.966 0 1.258.598.852 1.75-.502 1.429-.368 1.52.732.5.741-.687 1.819-1.236 2.397-1.218.577.017.193.68-.853 1.472-1.681 1.272-1.716 1.513-.298 2.057.883.339 2.146.282 2.808-.127.762-.471.941-.32.488.411-.392.635-.236 1.155.346 1.155s1.006.337.941.75c-.289 1.83.197 3.25 1.112 3.25 2.027 0-.32-6.302-2.645-7.103-.795-.274-.696-.817.316-1.749 1.251-1.151 1.551-1.037 2.024.771.412 1.574.881 1.853 1.816 1.077.914-.759 1.429-.609 1.871.542.336.874 1.111 1.279 1.724.9.782-.483.709-.944-.243-1.548-1.057-.669-.97-.863.393-.875 1.999-.017 2.387 2.561.5 3.323-1 .403-1 .52 0 .583.688.043 1.25 1.049 1.25 2.234 0 2.083-.066 2.095-1.976.366-1.087-.983-1.736-2.178-1.441-2.655.294-.476.058-.866-.524-.866-1.311 0-1.347 2.001-.071 4 .748 1.173.363 1.617-1.766 2.038-2.624.519-2.64.561-.454 1.161 1.37.377 2.828.062 3.686-.796 1.04-1.04 1.609-1.109 2.135-.259.396.641-.134 1.817-1.186 2.629-1.758 1.359-1.646 1.423 1.472.849 1.856-.342 3.994-.622 4.75-.622.756 0 1.375-.723 1.375-1.607 0-1.073.54-1.4 1.627-.983.894.344 2.267.093 3.05-.557 1.112-.923 1.761-.843 2.969.365 1.056 1.056 1.199 1.76.45 2.223-.603.372-1.096.2-1.096-.382 0-.582-.788-1.052-1.75-1.044-1.496.013-1.532.157-.25.985 1 .646 1.083.974.25.985-.687.008-1.25.492-1.25 1.074 0 .582.403.81.895.506.493-.305 1.176.178 1.519 1.072.554 1.443.818 1.404 2.355-.349.952-1.086 2.357-1.762 3.123-1.501 1.025.349 1.261-.206.898-2.106-.3-1.566.009-2.773.784-3.071 1.37-.526 1.408 2.993.054 5.182-.465.754-.138 1.208.872 1.208.89 0 1.34.45 1 1-.34.55.069 1 .91 1 .997 0 1.336-.607.977-1.75-.496-1.578-.419-1.594.781-.162.733.873 1.895 1.398 2.583 1.166.749-.252 1.032.149.704 1.002-.3.783.149 2.001.999 2.706.851.706 1.553.89 1.561.41.009-.479.452-.197.985.628.542.839.976.99.985.344.009-.691.884-.929 2.171-.593 1.59.416 1.947.225 1.359-.726-.633-1.025.359-1.146 4.826-.588 5.898.737 8.969.008 6.516-1.547-.991-.628-.75-.864.893-.875 1.452-.01 2.25.584 2.25 1.676 0 1.475.188 1.443 1.468-.25.808-1.067 1.483-1.468 1.5-.891.018.578-.457 1.539-1.055 2.137-1.66 1.66.497 2.488 3.503 1.345 3.235-1.23 3.69 1.26.584 3.2-2.301 1.437-2.615 2.768-.653 2.768 1.985 0 5.653 3.483 5.653 5.367 0 1.958 2.818 2.087 5.25.241 1.933-1.468 2.43-3.146.595-2.013-.753.466-.911.226-.453-.69.385-.773-.05-.392-.968.845-1.88 2.536-3.941 3.041-3.062.75.316-.825.027-1.507-.643-1.515-.771-.01-.668-.372.281-.985 1.349-.872.725-1.43-1.25-1.118-.413.065-.75-.332-.75-.882s.505-1 1.122-1c.762 0 .712-.495-.157-1.542-1.116-1.345-.894-1.474 1.733-1.011 3.714.654 7.836-2.865 5.262-4.493-.996-.63-1.063-.928-.21-.939.688-.008 1.25-.69 1.25-1.515s-.45-1.5-1-1.5-1-.477-1-1.059.45-.781 1-.441c.586.362 1-.692 1-2.549 0-2.858-.238-3.108-2.439-2.556-1.341.337-2.718.161-3.059-.391-.363-.588.647-1.004 2.439-1.004H500v-36l-6.75-.095c-3.712-.052-12.375-.288-19.25-.523-6.875-.235-18.575-.474-26-.531-7.425-.057-15.3-.471-17.5-.919-2.2-.448-8.594-1.053-14.209-1.344-9.863-.512-13.185.253-9.664 2.223 1.126.63-1.34.921-7.575.894-6.745-.03-9.382-.401-9.755-1.373-.567-1.478-5.297-1.86-5.297-.428 0 .497-2.363.89-5.25.872-3.688-.023-4.506-.235-2.75-.714 2.432-.664 2.412-.7-.75-1.347-1.788-.366-4.376-.238-5.75.285-1.597.607-2.5.602-2.5-.015 0-1.05-11.115-.65-12.918.464-.595.368-1.082.206-1.082-.36 0-.565-1.557-.97-3.46-.898-1.903.072-3.226.508-2.941.97.286.461.028.839-.571.839-.6 0-1.35-.675-1.666-1.5-.917-2.389-3.932-1.74-5.239 1.129M114 559.34c0 1.217 2.146 4.949 3.792 6.595 1 .999 1.11 1.598.342 1.854-.624.208-1.134.865-1.134 1.461 0 .596.279.805.619.464 1.002-1.002 3.381 1.964 3.381 4.215 0 1.139.46 2.071 1.023 2.071s.277 1.139-.635 2.531c-.913 1.392-1.485 2.63-1.273 2.75 3.263 1.853 8.885 4.444 8.885 4.096 0-.251-.9-2.221-2-4.377-2.476-4.853-2.474-5 .059-5 1.14 0 1.779-.454 1.431-1.016-.346-.559-1.124-.71-1.729-.336-.675.417-.886.121-.545-.767.338-.882-1.938-4.158-5.831-8.39-3.512-3.818-6.385-6.586-6.385-6.151m283.015 1.554c-.012 1.13-1.526 1.268-8.015.726-5.223-.435-8-.312-8 .357 0 1.09 2.149 1.222 16.75 1.028 6.222-.082 9.25.244 9.25.995 0 .615.418.86.93.544.511-.316 10.003-.601 21.094-.632 11.09-.031 19.97-.251 19.732-.49-.452-.451-13.875-1.688-19.506-1.797-1.788-.035-3.25-.37-3.25-.745 0-.897-7.211-.765-8.5.155-1.626 1.162-13.498.765-13.515-.451-.01-.698-.283-.664-.765.094-.878 1.381-4.394 1.266-5.455-.178-.44-.6-.741-.442-.75.394m-95.741 30.866c.273 3.944 1.351 4.373 10.383 4.135 10.099-.265 11.536-.702 10.743-3.261-1.052-3.391-3.32-4.134-12.626-4.134h-8.725l.225 3.26m106.301-2.882a1.154 1.154 0 0 0 .365 1.585c1.441.89.103 3.535-1.797 3.552-1.283.012-1.35.201-.308.862.735.466 1.297 1.134 1.25 1.485-.249 1.861.239 2.142 3.784 2.182 3.995.046 6.419 1.688 6.921 4.69.202 1.205-.179 1.554-1.25 1.143-1.738-.667-2.2 2.097-.524 3.133 1.498.926.169 2.49-2.114 2.49-1.642 0-1.76.237-.691 1.386 1.154 1.24 4.166 1.299 7.466.145.647-.227 1.715.236 2.372 1.028.848 1.022.87 1.441.073 1.441-1.63 0-1.374 1.89.511 3.776 1.511 1.511 1.601 1.356 1.201-2.071-.311-2.667-.052-3.705.926-3.705.747 0 1.08.45.74 1-.865 1.4.849 1.251 2.3-.2.66-.66 1.207-.772 1.215-.25.009.522.418.315.91-.462 1.393-2.202-1.318-4.278-4.532-3.472-1.899.477-2.483.338-1.983-.47.416-.674.066-1.146-.851-1.146-.857 0-1.559-.73-1.559-1.622 0-1.329-.271-1.398-1.5-.378-1.232 1.023-1.5.945-1.5-.437 0-.924.45-1.403 1-1.063.55.34 1 .179 1-.358 0-.536-.562-1.241-1.25-1.565-.687-.324.025-.343 1.584-.043 1.824.352 2.605.176 2.191-.494-.354-.572-1.461-1.04-2.462-1.04-1 0-2.374-.67-3.054-1.489-.68-.819-1.597-1.266-2.038-.993-.442.273-2.078-.011-3.637-.63-1.59-.632-2.282-1.331-1.578-1.593.691-.256.964-.939.607-1.516-.357-.578-.697-1.965-.756-3.082-.117-2.221-2.062-3.388-3.032-1.819M146 598.813c0 .447 1.351 2.107 3.002 3.689 2.192 2.1 2.665 3.092 1.75 3.672-.999.635-1 .798-.002.811.688.008 1.25.975 1.25 2.148 0 2.566 3.404 5.727 6.934 6.439 1.411.285 5.608 1.347 9.326 2.361 3.748 1.022 7.007 1.444 7.314.948.304-.492-.263-1.149-1.261-1.46-2.894-.902-4.473-1.863-4.39-2.671.042-.413-.876-1.703-2.041-2.868-1.673-1.673-1.838-2.291-.784-2.943 1.345-.831-2.59-2.939-5.485-2.939-3.151 0-10.799-3.421-12.509-5.595-1.927-2.45-3.104-3.054-3.104-1.592m171.806 4.27c-.18.54-3.473 1.055-7.317 1.143-3.844.088-6.201.332-5.239.541.962.209 1.75.797 1.75 1.306 0 .51.613.927 1.361.927.939 0 1.207.853.864 2.75-.274 1.513-.14 2.415.299 2.006.439-.409 1.315.266 1.948 1.5.806 1.57.832 2.465.09 2.979-.683.472-.572.74.31.75 1.068.012 1.113.328.202 1.426-1.361 1.64.213 3.148 2.081 1.994.634-.393.903-.307.597.19-.31.502 1.738.836 4.595.75 2.834-.085 6.672-.198 8.528-.25 3.251-.092 3.351-.213 2.735-3.295-.352-1.76-1.134-3.506-1.737-3.879-.603-.372-1.209-1.995-1.346-3.606-.327-3.841-2.356-7.545-3.845-7.019-.65.229-2.165.054-3.365-.389-1.288-.476-2.318-.404-2.511.176m149.427 6.915c-.958 1.534-.859 1.949.55 2.319 1.017.267.595.498-1.033.567-1.512.064-2.75-.334-2.75-.884s-.81-1-1.8-1-2.34-.54-3-1.2c-.933-.933-1.2-.92-1.2.059 0 .692-.45.981-1 .641-.55-.34-1-.192-1 .33 0 .521 1.569 1.242 3.486 1.601 1.917.36 3.439.973 3.381 1.362-.057.389.006 1.044.14 1.457.133.413.299 1.312.368 1.999.069.686.8 1.293 1.625 1.347 3.139.208 3.327.444 1.443 1.822-1.067.78-1.579 1.78-1.137 2.221.441.442 1.263.141 1.825-.668.777-1.119 1.143-1.17 1.531-.215.28.691.889 1.021 1.354.734.465-.287 1.128-.065 1.474.494.345.559.076 1.016-.598 1.016-2.877 0 .528 1.45 3.661 1.558 3.159.11 3.958-.555 3.525-2.931-.088-.48.57-.592 1.463-.25.892.343 1.861.623 2.152.623.291 0-.534.885-1.832 1.967-1.299 1.081-1.854 1.981-1.233 2 .62.018 1.683-.637 2.363-1.456.68-.819 1.635-1.242 2.122-.941.488.301.887.057.887-.543 0-.6-1.012-1.498-2.25-1.996-1.327-.533-1.635-.943-.75-.998 1.191-.075 1.138-.305-.258-1.118-.967-.563-2.204-.747-2.75-.41-.557.344-.992-.508-.992-1.946 0-2.532-.745-2.975-4.359-2.593-1.11.118-1.59-.239-1.191-.885.367-.594.165-1.081-.45-1.081s-.84-.45-.5-1c.34-.55.115-1-.5-1s-.859-.419-.543-.931c.317-.512.208-1.158-.241-1.435-.448-.278-1.341.336-1.983 1.364m-287.79 7.91c.332.537 2.731 1.285 5.33 1.663 9.597 1.393 10.725 1.87 8.198 3.468-1.05.664-1.104.935-.186.946 1.002.012 1.034.485.143 2.15-1.059 1.978-.95 2.087 1.464 1.481 1.953-.49 2.608-.273 2.608.865 0 1.405-1.719 1.985-4.734 1.597-.722-.092-.99.479-.645 1.376.324.844.995 1.284 1.491.977.496-.307 1.179.164 1.518 1.046.712 1.857 2.528-.987 3.757-5.882.575-2.29.949-2.561 2.154-1.561 1.178.978 1.459.895 1.459-.431 0-1.26.592-1.492 2.55-1.001 2.293.576 2.516.379 2.205-1.943-.472-3.526.011-3.359-11.781-4.073-5.789-.35-11.788-.866-13.33-1.146-1.687-.306-2.564-.119-2.201.468m293.995 16.193c-.397.642-1.936.849-3.697.497-3.627-.725-6.978 2.34-3.917 3.582 1.466.594 1.44.688-.214.75-1.039.038-2.487-.718-3.218-1.68-1.265-1.667-1.33-1.667-1.36 0-.018.962-.594 1.757-1.282 1.765-.995.013-.994.178.006.813.69.438 3.227.649 5.636.468 3.214-.242 4.536.074 4.963 1.187.775 2.02 3.645 1.949 3.645-.09 0-1.09.537-1.401 1.67-.966.922.354 2.028.066 2.47-.643.586-.942 1.273-1.004 2.579-.232 2.719 1.605 5.708.732 3.851-1.125-.785-.785-2.022-1.434-2.749-1.442-1.068-.013-1.061-.18.036-.875 1.082-.686 1.1-1.019.088-1.644-.793-.49-1.959.067-3.107 1.486-1.011 1.248-1.838 1.77-1.838 1.159s-.788-1.104-1.75-1.096c-1.496.013-1.532.157-.25.985 1.242.803 1.156.969-.5.969-1.1 0-2.675-.436-3.5-.969-1.227-.793-1.113-.972.628-.985 1.17-.008 2.687-.69 3.372-1.515.785-.946.852-1.5.181-1.5-.584 0-1.369.495-1.743 1.101m-142.884 3.811c-.311.504-.001 1.168.69 1.474.691.307-.206.384-1.994.173-1.793-.212-3.25.073-3.25.635 0 .594-.731.703-1.75.261-.962-.417-2.673-.833-3.8-.924-1.128-.092-2.591-.5-3.25-.908-.66-.407-1.2-.308-1.2.22 0 .529-1.357 1.434-3.015 2.012-2.731.952-2.974 1.388-2.574 4.612.253 2.04.046 3.315-.485 2.987-.509-.314-.926-.144-.926.38s.675 1.211 1.5 1.528c2.004.769 1.917 2.638-.122 2.638-1.172 0-1.341.348-.611 1.25 1.768 2.182 1.174 6.836-.974 7.631-1.81.67-1.76.813.682 1.926 1.659.755 2.362 1.648 1.894 2.405-.409.662-.861 2.307-1.005 3.655-.144 1.348-.637 2.717-1.096 3.042-.722.511-.856 3.403-.393 8.455.14 1.522 7.542 1.961 10.151.601.839-.438 2.266-.381 3.171.125 1.015.568 2.632.545 4.224-.06 1.801-.685 2.579-.649 2.579.117 0 .747.399.777 1.25.094 2.047-1.644 8.907-2.093 8.313-.544-.277.72.183 1.303 1.027 1.303.867 0 1.231-.481.841-1.112-.378-.611-.082-1.485.657-1.942.993-.614.613-1.109-1.456-1.896-1.54-.585-3.181-.829-3.647-.541-.466.288-1.132.063-1.48-.5-.892-1.444 1.809-3.871 4.089-3.674 3.489.302 2.478-4.692-1.106-5.459l-2.988-.639 2.75-.119c2.97-.127 3.445-1.023 1.55-2.918-.933-.933-.933-1.2 0-1.2.66 0 1.2-.505 1.2-1.122 0-.776-.464-.738-1.5.122s-1.5.898-1.5.122c0-.617.455-1.122 1.012-1.122.597 0 .806-1.638.509-4-.339-2.694-.117-4 .679-4 .65 0 .309-.638-.757-1.418-1.067-.78-1.579-1.78-1.137-2.221.441-.442 1.221-.141 1.733.668.743 1.175.933 1.039.946-.672.008-1.179-.707-2.42-1.589-2.758-.915-.352-1.358-1.256-1.031-2.107.347-.905-.005-1.492-.896-1.492-1.318 0-1.904-1.183-1.597-3.22.18-1.2-3.694-2.876-4.318-1.868m-174.682 2.775c-1.187 1.46-1.158 1.607.219 1.093.875-.327 2.225-.193 3 .297 1.106.7.979.912-.591.984-4.101.188-9.217 1.939-5.667 1.939.642 0 1.167.675 1.167 1.5s-.627 1.5-1.393 1.5c-1.687 0-2.758 2.442-1.971 4.493.368.959 1.352 1.297 2.753.946 1.354-.34 3.019.18 4.395 1.374 2.942 2.552 2.794 3.341-.534 2.849-1.512-.224-2.637-.914-2.5-1.534.137-.621-.252-1.128-.867-1.128-.617 0-.887.878-.603 1.963.593 2.267-2.309 5.419-3.026 3.287-.577-1.713-8.049-1.598-9.798.151-1.883 1.883-.153 3.143 4.792 3.489 3.257.229 3.661.024 3.08-1.564-.637-1.744-.578-1.748 1.331-.076 1.099.962 2.488 1.75 3.086 1.75.599 0 1.317.563 1.596 1.25.39.962.731.928 1.483-.147.681-.975 2.088-1.217 4.657-.8 3.186.517 3.515.397 2.443-.895-.887-1.068-.932-1.8-.16-2.572.594-.594.842-1.7.551-2.458-.291-.758-.031-1.378.578-1.378s1.107.702 1.107 1.559.45 1.281 1 .941c.55-.34 1-.219 1 .268s1.336.69 2.969.45c2.883-.423 2.929-.515 1.566-3.15-.772-1.492-2.108-3.298-2.969-4.013-.861-.715-1.559-2.032-1.551-2.927.014-1.411.142-1.429.961-.133.823 1.303 1.111 1.273 2.235-.234 1.492-2.002 5.789-1.367 5.789.856 0 .76.45 1.383 1 1.383s1-.685 1-1.522c0-1.232 1.212-1.471 6.347-1.251 7.281.312 9.623-.932 8.898-4.726-.592-3.098-5.002-4.429-14.27-4.309-3.589.047-7.51-.227-8.713-.609-1.202-.381-3.076-.218-4.164.364-1.311.702-2.185.721-2.596.056-.998-1.614-6.135-1.153-7.63.684M69 667c-2.118.303-3.5 1.06-3.5 1.917 0 1.418-5.167 3.75-6.144 2.773-.285-.285-.016-1.457.598-2.604 1.054-1.97.868-2.086-3.36-2.086-4.855 0-6.462 1.25-4.558 3.544 1.643 1.979-.888 1.963-5.674-.037-1.966-.822-3.977-1.245-4.468-.941-.492.303-.894.126-.894-.395 0-.52-4.275-1.01-9.5-1.088-9.771-.146-10.891.348-7.58 3.345 1.832 1.658 1.972 1.642 3.036-.345C28.091 668.962 31 668.183 31 670c0 .55 1.8 1 4 1 2.889 0 4 .417 4 1.5 0 1.332-1.902 2.024-4.355 1.583-.471-.084-1.477.363-2.237.994-.76.63-2.513.863-3.895.516-1.382-.347-2.513-.202-2.513.322 0 .523-1.203 1.095-2.673 1.269-3.151.373-4.447 2.816-1.494 2.816 1.1 0 2.19.563 2.421 1.25.333.988.751.977 1.999-.053 1.338-1.104 1.678-.989 2.23.75.453 1.427 1.47 2.032 3.334 1.983 2.377-.063 2.455-.164.683-.893-1.791-.736-1.823-.895-.308-1.514 2.311-.946 5.364-.169 5.058 1.286-.137.655.232 1.191.821 1.191.59 0 1.802.73 2.694 1.623 1.497 1.496 1.68 1.477 2.359-.25 1.241-3.16.959-4.373-1.017-4.373-1.041 0-2.152-.675-2.469-1.5-1.02-2.658.45-4.5 3.591-4.5 2.527 0 2.82.236 1.807 1.456-1.42 1.712-.411 3.902 1.467 3.181.73-.28 1.533.392 1.831 1.533.348 1.329.97 1.76 1.799 1.248.961-.594.977-.881.068-1.184-.661-.221-1.201-1.314-1.201-2.431 0-1.86.398-1.968 4.75-1.283 2.612.41 5.42.761 6.238.78 2.72.061 4.489 2.613 2.774 4.001-1.294 1.047-1.243 1.424.4 2.972 1.406 1.323 2.007 1.45 2.372.5.27-.7 1.536-1.333 2.815-1.407 3.795-.219 9.776-4.568 9.243-6.72-.39-1.575-.056-1.748 2.224-1.151 1.476.387 3.912.724 5.413.749 1.672.028 2.939.71 3.273 1.762.55 1.732 6.274 1.487 9.325-.399.706-.436 1.173-.104 1.173.834 0 .857.45 1.559 1 1.559s1.795.788 2.767 1.75c4.427 4.386 7.26 5.536 9.234 3.749 1.337-1.21 2.329-1.397 3.666-.692 1.008.531 4.028.741 6.711.467 3.431-.351 4.675-.169 4.191.614-.441.714.318 1.117 2.122 1.127 3.82.021 4.785.932 4.95 4.675.166 3.759-2.852 5.289-10.54 5.342-4.263.029-4.458.139-2.66 1.5 1.864 1.409 1.835 1.468-.718 1.468-1.914 0-2.504-.407-2.103-1.451.45-1.173-.181-1.335-3.282-.845-2.111.334-3.988.987-4.171 1.451-.184.465-.971.845-1.75.845s-1.417.48-1.417 1.067c0 .618.855.796 2.028.424 2.227-.707 6.475 3.346 5.046 4.814-.972.998-6.074-.19-6.074-1.413 0-1.019-12.323-1.235-13.325-.234-.362.362-.181 1.233.402 1.935.822.99.389 1.258-1.92 1.192-1.948-.055-2.814-.517-2.5-1.334.763-1.988-.912-2.365-4.157-.936-1.65.728-2.437 1.359-1.75 1.404 1.814.118 1.536 1.902-.75 4.808-1.481 1.883-2 2.118-2 .908 0-1.061-.846-1.635-2.412-1.635-2.308 0-2.99 1.931-1.284 3.638 2.126 2.126.629 4.299-2.554 3.706-1.787-.333-3.475-.64-3.75-.682-.275-.042-2.525.283-5 .722-4.281.76-4.379.85-2 1.848 1.375.576 6.009 1.154 10.299 1.284 5.904.178 8.092.637 9.007 1.888 1.983 2.712 7.123 2.58 7.518-.194.227-1.597 1.184-2.462 3.162-2.857 1.731-.346 3.047-1.37 3.375-2.625.451-1.725.786-1.851 2.076-.781.845.702 2.239 1.007 3.097.678.983-.377 2.849.691 5.046 2.888 1.918 1.918 3.879 3.487 4.359 3.487s.353 1.121-.283 2.492c-1.513 3.263-2.645 3.153-5.916-.575-2.28-2.599-3.178-2.98-5.711-2.423-4.487.985-4.492 2.176-.011 2.893 4.213.674 5.139 1.951 2.232 3.077-1.642.637-1.635.764.125 2.059 1.033.761 1.622 2.044 1.31 2.856-.311.811.052 1.988.808 2.615 1.968 1.634 6.847-2.963 8.518-8.026.72-2.182 1.912-3.968 2.649-3.968.737 0 1.34-.45 1.34-1s.675-1 1.5-1 1.5-.48 1.5-1.067-.787-.823-1.75-.523c-.963.299-2.425.112-3.25-.418-1.281-.821-1.244-.964.25-.977.963-.008 1.75-.413 1.75-.898 0-1.187 4.568-2.002 6.058-1.081 1.681 1.039 4.737-1.885 6.014-5.753.596-1.806 1.723-3.283 2.506-3.283.913 0 1.422-1.073 1.422-3 0-2.282.455-3 1.902-3 1.199 0 2.275-1.069 2.91-2.89.554-1.59 2.381-3.702 4.06-4.693 2.315-1.368 2.793-2.116 1.978-3.097-2.158-2.601-.131-4.514 4.402-4.156 4.143.328 4.246.262 4.168-2.664-.043-1.65.233-3.225.616-3.5.382-.275.977-1.408 1.323-2.517 1.232-3.956-6.828-9.768-8.899-6.418-.434.702-1.279.504-2.476-.58-1.266-1.146-2.374-1.377-3.651-.761-2.105 1.014-7.949.993-8.975-.033-.38-.38.149-.691 1.175-.691 1.428 0 1.591-.276.694-1.173-.664-.664-4.675-1.261-9.243-1.376-4.438-.112-7.833.034-7.542.324.29.29-.254 1.12-1.208 1.844-1.566 1.19-1.462 1.32 1.075 1.349 1.612.018 2.546.458 2.191 1.032-.342.554.413 1.016 1.691 1.035l2.309.036-2.5 1.395-2.5 1.396 3.278-.084c2.124-.054 3.785.586 4.718 1.819 1.969 2.601 1.877 2.881-.997 3.047-1.374.08-2.499-.222-2.499-.67 0-.448-1.347-1.111-2.993-1.473-2.567-.563-2.849-.928-1.978-2.555.958-1.79.673-1.868-5.007-1.369-5.564.489-7.153-.112-5.272-1.994.412-.412.75-1.162.75-1.666 0-.505.4-.879.888-.832.874.084 2.567-2 2.597-3.196.026-1.032-7.42-.085-7.778.99-.185.555-1.056.732-1.936.395-.99-.38-1.348-.208-.941.451.768 1.242-1.463 2.275-4.912 2.275-1.483 0-2.418-.58-2.418-1.5 0-.825-.562-1.503-1.25-1.506-.687-.004-2.6-.711-4.25-1.573-3.075-1.606-12.265-2.312-18.5-1.421m-56 27c-1.1 1.1-3.035 2-4.3 2-2.133 0-4.7 1.629-4.7 2.983 0 .914 8.852 1.065 9.412.16.821-1.329 6.588-.042 6.588 1.47 0 .763-.705 1.387-1.567 1.387-1.143 0-1.385.575-.893 2.125.419 1.322.173 2.435-.654 2.945-2.303 1.424-.267 2.061 2.523.789 1.605-.731 2.458-1.763 2.141-2.59-.321-.835.548-1.85 2.211-2.584 3.964-1.75 4.139-4.044.266-3.476-2.673.393-2.975.202-2.425-1.532.517-1.628.298-1.847-1.237-1.232-4.225 1.692-4.907 1.753-3.115.276 2.174-1.791 2.236-3.32.168-4.114-2.192-.841-2.18-.845-4.418 1.393m38.484 46.026c-.395.639-1.757.964-3.026.721-1.462-.279-3.306.418-5.038 1.906-1.502 1.291-3.111 2.347-3.576 2.347-.464 0-.844.349-.844.776 0 .427 1.8.605 4 .395 2.2-.209 4-.784 4-1.276 0-1.432 2.641-1.033 4 .605 1.659 1.999 5 1.927 5-.108 0-1.204.611-1.455 2.431-.999 3.126.785 7.569-.899 7.569-2.868 0-1.046-1.021-1.537-3.25-1.563-1.788-.021-4.892-.276-6.899-.568-2.234-.324-3.928-.079-4.367.632m15.802 3.593c1.353 1.354-2.373 3.381-6.215 3.381-3.404 0-4.071.327-4.071 2 0 1.1-.45 2-1 2-1.929 0-.975 2.054 1.47 3.168 1.876.855 2.829.829 3.957-.107 1.574-1.306 3.573-.671 3.573 1.136 0 .729-2.088.865-6.428.421-6.745-.691-8.781.22-6.536 2.926 1.01 1.217.737 1.461-1.664 1.484-1.603.015-4.608 1.341-6.8 3C41.411 764.663 40.16 766 40.79 766c.678 0 .876.715.485 1.75-.821 2.167-3.205 4.654-3.846 4.012-.762-.761.684-3.762 1.813-3.762.565 0-.182-.951-1.66-2.114-3.066-2.412-4.606-1.755-2.771 1.182 1.031 1.652.961 2.082-.429 2.616-1.523.584-1.512.747.131 1.949 1.637 1.197 1.65 1.367.14 1.946-1.959.752-2.228 3.421-.344 3.421.72 0 2.182.666 3.25 1.481 2.334 1.781.629 3.468-3.559 3.519-1.983.024-2.19.231-1 1 .825.533 1.124.976.664.985-.46.008.773 1.578 2.74 3.488 2.187 2.123 4.167 3.245 5.099 2.888.837-.322 2.158-.058 2.934.587 1.407 1.167 8.476.506 8.645-.809.045-.352.284-1.864.531-3.361.324-1.971-.113-3.073-1.582-3.991-2.243-1.401-2.744-5.331-.781-6.128.941-.381.879-.769-.25-1.568-1.209-.854-.966-1.063 1.25-1.076 2.088-.011 2.75.466 2.75 1.985 0 1.1-.45 2-1 2s-1 .675-1 1.5c0 .833.889 1.5 2 1.5 1.126 0 2-.667 2-1.525 0-2.241 5.023-3.924 7.368-2.47 2.555 1.586 4.183-.107 2.725-2.832-1.797-3.357-1.387-4.235 1.472-3.148 5.581 2.122 10.738-.122 7.568-3.292-1.648-1.648-1.387-7.337.507-11.033 1.955-3.817 3.082-4.664 6.232-4.685 1.995-.013 2.175-.254 1.128-1.515-1.38-1.662-3.478-2.082-2.5-.5.34.55.141 1-.441 1S80 750.395 80 749.655c0-2.041-3.722-4.976-5.463-4.308-.953.366-1.537.032-1.537-.878 0-.983-1.049-1.469-3.167-1.469-1.741 0-2.888.279-2.547.619M31 790.441c0 .793.45 1.719 1 2.059.55.34 1 1.396 1 2.348 0 2.574-3.727 9.403-4.473 8.195-1.093-1.768-4.527-1.211-4.527.734 0 .978-.701 2.779-1.558 4.003-1.478 2.11-1.419 2.278 1.138 3.25 2.696 1.025 2.789 1.88.262 2.391-6.682 1.352-8.981 4.35-9.836 12.829-.551 5.469-.47 5.75 1.672 5.75 1.238 0 2.685-.81 3.215-1.8.529-.989 3.185-2.404 5.9-3.144 2.716-.739 5.999-2.145 7.297-3.124 2.303-1.737 2.315-1.827.513-3.818-2.849-3.149-1.397-5.486 2.908-4.678 1.919.36 3.489.254 3.489-.236 0-1.129-3.354-4.2-4.588-4.2-1.032 0-3.775-3.97-3.165-4.58.212-.212 1.758.008 3.435.489 1.678.481 3.632.515 4.343.075.712-.439 1.785-.61 2.386-.38 1.499.576 3.693-3.17 2.966-5.064-.325-.847-1.134-1.54-1.797-1.54-1.768 0-6.903-5.668-6.186-6.828.337-.546.338-1.707.002-2.582-.769-2.005-5.396-2.133-5.396-.149" fill="#d3d3d3" fill-rule="evenodd"/></svg>