<svg xmlns="http://www.w3.org/2000/svg" width="500" height="375"><path d="M56.401 39.405c-1.705.754-4.068 2.938-5.25 4.851-2.562 4.146-2.743 15.94-1.177 76.744.517 20.075 1.188 47.3 1.492 60.5.303 13.2.772 32.1 1.041 42 .269 9.9.77 38.7 1.113 64 .343 25.3.975 46.9 1.403 48 .486 1.248 3.463 3.085 7.914 4.884l7.135 2.885 17.214-4.213c9.468-2.317 19.939-5.035 23.27-6.042 3.33-1.006 7.605-2.085 9.5-2.398 1.894-.313 6.546-1.466 10.337-2.563 3.792-1.097 7.299-1.743 7.794-1.437.495.306 1.48.076 2.187-.512.708-.587 23.301-6.496 50.207-13.131 26.905-6.635 57.919-14.338 68.919-17.117 11-2.779 22.7-5.433 26-5.897 9.393-1.321 43.868-8.884 77.5-17.002 25.859-6.242 51.726-15.762 52.45-19.302.242-1.185.695-16.33 1.007-33.655.526-29.269.793-39.113 2.038-75 1.397-40.271 1.719-70.749.755-71.346-.851-.525-46.299-6.163-114.516-14.205-7.021-.828-17.596-1.439-23.5-1.359-5.904.08-16.584-.381-23.734-1.025-72.156-6.497-193.197-17.968-195.885-18.563-1.163-.258-3.51.148-5.214.903" fill="#d3d3d3" fill-rule="evenodd"/></svg>