<svg xmlns="http://www.w3.org/2000/svg" width="500" height="500"><path d="M62 31.418c0 17.28-.273 32.13-.607 33-.364.948-1.79 1.582-3.559 1.582-1.624 0-2.717-.381-2.429-.846.514-.831-23.295-.597-24.13.238-1.063 1.063-.633 14.472.508 15.847 1.308 1.576 1.825 168.027.565 181.816l-.599 6.554-5.737-.414-5.736-.415-.009 3.36c-.005 1.848.386 9.885.87 17.86s.926 58.487.982 112.25l.103 97.75H32.94l.313-12.75.312-12.75.218 12.75L34 500h196.591l.035-250 .036-250H62v31.418m224.36 79.832c-.062 61.188-.417 127-.788 146.25-.371 19.25-.572 38.825-.445 43.5.126 4.675.217 9.85.2 11.5-.016 1.65-.027 25.95-.023 54 .003 28.05-.078 67.875-.181 88.5s.092 39.188.433 41.25l.62 3.75H500V0H286.474l-.114 111.25M240.477 85.5c0 45.65.123 64.471.273 41.825.149-22.647.15-59.997 0-83-.15-23.004-.273-4.475-.273 41.175m29.162 171.998C268.573 260.276 268.93 500 270 500c.661 0 1-41.321 1-122 0-67.1-.177-122-.393-122-.216 0-.652.674-.968 1.498m-4.605 31.002c-.061 16.873.256 25.5.937 25.5.678 0 1.029-8.687 1.029-25.5 0-15.193-.379-25.5-.937-25.5-.556 0-.975 10.373-1.029 25.5M261 412.667c0 39.966-.248 72.418-.551 72.115-.622-.622-1.266-41.918-1.376-88.199-.04-17.004-.365-30.625-.721-30.268-1.199 1.198-1.634 133.685-.44 133.685.882 0 1.766-9.706 1.206-13.25-.065-.413.332-.75.882-.75.571 0 1 3 1 7s.429 7 1 7c.658 0 1-27.333 1-80s-.342-80-1-80c-.657 0-1 24.889-1 72.667m4.623-51.128c-1.056 2.752-.694 138.461.369 138.461.633 0 .979-24.847.974-70-.005-38.5-.176-70-.38-70-.205 0-.638.692-.963 1.539" fill="#d3d3d3" fill-rule="evenodd"/></svg>