<svg xmlns="http://www.w3.org/2000/svg" width="500" height="239"><path d="M46.754 5.227C44.582 8.211 41.482 19.034 40.66 26.5l-.33 3-.766-3.13c-.862-3.524-3.283-3.651-5.386-.283-1.007 1.612-.949 2.064.329 2.554 1.387.532 1.379.722-.069 1.781-1.348.986-1.448 1.849-.595 5.131.564 2.171 1.01 5.693.991 7.826-.019 2.201.55 4.249 1.316 4.735 1.984 1.257 4.64 1.069 5.133-.364.237-.687.312-.462.167.501-.145.964.101 1.527.546 1.252 1.58-.977 3.06 5.529 1.784 7.846C42.051 60.49 41.989 62 43.588 62c.777 0 1.419.563 1.427 1.25.012.936.228.915.861-.084.675-1.064.975-.997 1.485.332 1.092 2.846.706 5.539-.881 6.148-.836.321-1.441 1.544-1.344 2.719.336 4.09-.152 5.415-2.576 7.004-3.085 2.021-11.554 2.98-11.575 1.311-.011-.815-.27-.779-.839.117-.452.714-2.133 1.45-3.734 1.636-1.602.187-3.025.447-3.162.578-.603.576-2.789.747-11.083.864-6.21.088-8.896.496-9.042 1.375-.556 3.338-.566 39.036-.012 39.934 1.031 1.667 1.64-.265 2.31-7.335.599-6.314 4.349-19.303 4.504-15.599.123 2.949 1.784 1.943 2.478-1.5.514-2.552.86-2.928 1.61-1.75.814 1.28.957 1.243.97-.25.008-.963.514-1.75 1.123-1.75.738 0 .839.919.303 2.75-.444 1.513-.83 4.734-.859 7.159-.066 5.605 2.155 6.747 2.73 1.403.225-2.097.241 2.213.036 9.577s-.612 13.777-.904 14.25c-.293.474-.055.861.527.861.582 0 1.088-1.238 1.122-2.75.063-2.713.076-2.719.999-.416 1.235 3.081 3.372 2.265 3.695-1.411.409-4.658 2.266-10.527 3.156-9.977.449.278.895-2.897.991-7.054.117-5.018-.174-7.343-.864-6.917-1.3.804-1.321-.493-.04-2.475.811-1.255.972-1.187.985.417.029 3.669.885 1.003 2.291-7.136.874-5.063 1.058-8.547.482-9.123-1.509-1.509.987-2.403 7.615-2.729 9.573-.471 14.469-1.414 16.169-3.113 2.153-2.154 6.496-1.983 7.829.309C64.849 84.889 65.837 89 64.382 89c-.76 0-1.382.814-1.382 1.809s-.661 2.682-1.468 3.75c-1.661 2.196-2.058 5.884-.532 4.941.55-.34 1-.141 1 .441S61.646 101 61.214 101c-.854 0-.974.613-1.836 9.371-.407 4.139-.253 5.67.522 5.191.605-.374 1.1-1.553 1.1-2.621S61.502 111 62.117 111c.67 0 .875.9.513 2.25-.331 1.237-.609 2.839-.616 3.559-.008.72-.459 1.034-1.003.698-.579-.358-.747.134-.405 1.191.365 1.13.265 1.367-.268.637-.636-.871-1.338-.808-2.785.25-1.065.778-1.427 1.415-.806 1.415s1.061.9.978 2c-.083 1.1-.505 2-.938 2-.433 0-.787.498-.787 1.107s.619.869 1.376.579c1.785-.685 4.091 3.95 2.322 4.669-.659.268-.185.523 1.052.566 1.237.043 2.25.556 2.25 1.138 0 .582-.47.769-1.044.414-.574-.355-1.699-.101-2.5.563-1.386 1.15-2.148-1.042-1.534-4.409.088-.48-.534-.606-1.381-.281-1.132.434-1.541-.065-1.541-1.877 0-1.528-.572-2.469-1.5-2.469-1.941 0-1.941-1.617 0-2.362.825-.316 1.5-1.29 1.5-2.163 0-1.43-.283-1.421-2.838.089-2.083 1.23-2.726 2.268-2.414 3.898.578 3.025-2.343 5.982-4.222 4.274-.829-.754-1.002-1.606-.442-2.186 1.213-1.258 1.178-2.83-.046-2.073-.529.327-1.354-.884-1.832-2.691-.573-2.169-.507-3.426.195-3.697 2.258-.872 3.66-2.899 2.34-3.384-.986-.361-.984-.727.009-1.78.688-.729 1.236-2.248 1.22-3.375-.031-2.037-.038-2.037-1.148-.05-1.546 2.768-1.561 2.779-2.735 2.054-1.565-.967 1.003-4.554 3.261-4.554 1.248 0 1.675-.497 1.29-1.5-.316-.825-.139-1.5.393-1.5 1.585 0 1.099-3.736-.569-4.376-1.678-.644-3.04 1.631-1.992 3.328.797 1.289.342 1.307-2.795.115-2.135-.812-2.464-.649-2.526 1.25-.132 4.089-.481 5.596-1.194 5.155-.391-.242-.997.986-1.345 2.728-.407 2.033-.196 3.438.588 3.923.921.568.8 1.222-.49 2.647-.942 1.041-1.374 2.265-.96 2.721.414.457.207.517-.459.134-.849-.487-1.41.804-1.876 4.323-.669 5.041-2.168 7.367-4.408 6.837-1.352-.32-4.836 9.179-4.939 13.465-.047 1.949.443 2.773 1.684 2.829 1.031.046 1.24.285.509.58-.931.376-.852.891.315 2.058 1.102 1.102 1.383 2.609.963 5.169-1.336 8.154-1.319 11.628.064 12.903.808.745 1.399.851 1.399.25 0-.571.45-1.039 1-1.039s1 .675 1 1.5.481 1.5 1.069 1.5c.726 0 .847 2.534.378 7.913l-.69 7.913 5.371.545c21.791 2.214 21.117 2.505 18.393-7.952-1.719-6.6-1.439-7.419 2.538-7.419 3.111 0 3.856 1.685 1.699 3.842-.843.843-.905 1.468-.191 1.95.577.389 2.328 8.808 3.891 18.708 3.014 19.092 4.689 23.585 10.125 27.146 4.15 2.719 9.731.31 13.722-5.924.978-1.528 1.546-3.155 1.261-3.615-.284-.459.529-3.034 1.806-5.721 1.475-3.104 2.399-7.053 2.534-10.827.232-6.493.696-7.923 2.26-6.957.565.35 5.284.564 10.487.476l9.46-.16-.306 21.542-.307 21.542 13.75-.001L143 235l.198-10.25c.109-5.637.221-15.537.25-22 .051-11.452.108-11.749 2.271-11.75 1.39 0 2.035.477 1.728 1.278-.398 1.036 11.016.882 15.335-.207.259-.065-.437-108.984-.725-113.571-.069-1.1.165-9.595.521-18.879.471-12.281.344-16.691-.465-16.191-.612.379-1.113 1.114-1.113 1.634 0 .52-1.125 3.278-2.5 6.128s-2.5 5.785-2.5 6.521c0 1.077-.572 1.042-2.934-.179-2.81-1.453-3.022-1.406-5 1.109-1.136 1.445-2.066 3.724-2.066 5.065 0 1.783-.471 2.349-1.75 2.106-1.366-.26-1.86-1.657-2.25-6.371-.275-3.321-1.216-7.142-2.092-8.491-2.641-4.069-3.709-9.735-1.73-9.176 1.533.433.491-3.054-1.067-3.573-.764-.254-1.125-.034-.801.489.323.523-.247 1.666-1.268 2.54-1.712 1.466-1.895 1.439-2.363-.35-.279-1.067-.892-1.814-1.362-1.661-.471.154-1.944-.734-3.275-1.971-1.637-1.522-1.954-2.26-.981-2.28 1.059-.023.977-.3-.311-1.05-1.972-1.149-2.342-2.92-.61-2.92.627 0 1.697-.762 2.378-1.693 1.399-1.915-.169-4.307-2.824-4.307-1.728 0-3.944-2.416-3.043-3.318.349-.348.093-1.285-.568-2.082-.865-1.042-.947-2.849-.293-6.446.811-4.459.708-5.052-.945-5.484-1.261-.33-1.646-1.026-1.203-2.178 1.19-3.104-1.854-3.394-36.304-3.466l-34.201-.072-2.383 3.273M340 119v116l8.75.06c4.813.032 40.137.014 78.5-.042 53.904-.078 69.75.173 69.75 1.107 0 .665.229.98.508.7.361-.361.718-167.843.496-232.575C498.001 3.261 481.531 3 419 3h-79v116M81.01 11.742c-.82.322-2.707 1.801-4.193 3.287l-2.702 2.702 2.442 1.113c1.344.612 2.443 1.603 2.443 2.202 0 .612.826.827 1.886.49 1.037-.329 3.595-.817 5.684-1.085 2.089-.267 3.871-.591 3.96-.718 2.155-3.093 3.319-7.211 2.234-7.9-1.436-.912-9.502-.974-11.754-.091M150 18.346v2.79L147 19c-1.65-1.175-3.067-1.656-3.15-1.068a46.949 46.949 0 00-.25 2.318c-.055.688-1.338 2.031-2.85 2.985-1.838 1.16-2.75 2.589-2.75 4.309 0 1.416.403 2.325.895 2.021.493-.305 1.168.156 1.501 1.024.333.867 1.167 1.374 1.855 1.125.687-.249 2.036.233 2.999 1.071 1.845 1.608 2.204 1.033 1.823-2.912-.209-2.167 2.829-3.291 3.584-1.325.319.832.321 2.811.004 4.396-.556 2.782 1.567 6.161 2.982 4.746.327-.327 1.249.059 2.047.858.799.798 2.321 1.452 3.381 1.452 1.144 0 1.958.713 1.999 1.75.219 5.457 1.797-3.303 1.846-10.25.085-11.958-.261-12.721-5.42-11.947-3.7.555-4.459.337-5.873-1.68L150 15.555v2.791M405 34.07c-3.025.508-7.168 1.66-9.207 2.559l-3.707 1.636 2.852 4.145c5.373 7.809 10.634 26.595 9.522 34.005-.391 2.613-.24 5.798.35 7.349.572 1.505 2.689 8.136 4.705 14.736 2.016 6.6 4.288 13.668 5.049 15.707l1.385 3.706-7.224.294c-7.069.287-7.217.347-6.877 2.793.191 1.375.698 2.95 1.127 3.5 2.185 2.801 2.167 5.72-.052 8.081-2.03 2.162-2.126 2.671-.923 4.919 1.198 2.238 1.109 2.755-.829 4.818-1.781 1.896-2.171 3.512-2.171 8.996 0 5.311-.404 7.09-1.964 8.65-2.582 2.582-1.544 3.056 6.127 2.794 6.255-.213 6.53-.112 12.864 4.737 11.193 8.567 11.354 8.802 5.473 7.943-10.193-1.487-22.779-7.143-25.939-11.655-2.624-3.746-13.042-3.797-17.421-.085l-3.36 2.849 2.08 6.981c2.421 8.13 4.092 18.766 4.12 26.222.011 2.887.133 5.25.27 5.25.138 0 3.401-.674 7.25-1.498 3.85-.824 13.133-1.791 20.628-2.15l13.628-.652.463-7.205c.292-4.549 1.266-8.866 2.643-11.711 1.2-2.478 1.982-5.131 1.738-5.895-.873-2.733-1.346-25.438-.58-27.889.736-2.358.786-2.316.88.75l.1 3.25h5.5c3.025 0 5.5.45 5.5 1s-2.475 1-5.5 1H428l.014 3.25c.029 7.007.675 7.75 6.739 7.75h5.519l-.586-4.272c-.322-2.35-.225-4.855.215-5.568.901-1.458 2.099 7.997 2.099 16.57 0 3.916.35 5.314 1.25 4.998.688-.241 1.132-1.557.987-2.926-.398-3.761 3.54-11.964 5.582-11.628 2.995.492 4.181-1.172 4.181-5.865 0-2.87.766-5.812 2.057-7.901 1.563-2.53 1.813-3.783 1.04-5.227-.559-1.045-.766-3.446-.459-5.337.397-2.449.098-3.818-1.04-4.763-.879-.729-1.598-2.621-1.598-4.203 0-2.787.158-2.878 5-2.878 2.75 0 5-.171 5-.38 0-.208-2.753-6.621-6.118-14.25-11.489-26.048-10.831-23.968-10.874-34.37-.041-10.045-1.29-14.709-2.572-9.603-.497 1.98-.937 2.41-1.514 1.477-.447-.724-1.162-.967-1.589-.541-.426.427-.294 1.089.295 1.471 1.464.952 1.378 4.373-.156 6.196-1.237 1.472-1.301 10.849-.087 12.814.318.514 2.36 6.279 4.539 12.81 2.179 6.532 4.53 13.321 5.224 15.088.694 1.766.944 3.53.555 3.918-1.008 1.008-5.703-1.708-5.703-3.299 0-.732-.358-1.331-.795-1.331-.437 0-1.639-2.046-2.67-4.546-2.58-6.258-3.672-6.511-3.423-.794.116 2.662-.05 5.515-.369 6.34-1.098 2.837-1.464 7-.616 7 .467 0 1.138 1.807 1.492 4.016l.642 4.016 3.187-3.688c3.793-4.387 5.552-3.834 5.552 1.746 0 2.468.526 4.175 1.389 4.506.818.314 1.177 1.349.872 2.515-.777 2.969-11.695 2.408-11.89-.611-.457-7.054-1.241-8.025-6.173-7.633-2.768.221-5.154 1.031-5.893 2.002-1.088 1.429-1.245 1.304-1.273-1.012-.018-1.454.608-2.889 1.39-3.189.938-.36 1.213-1.333.807-2.857l-.616-2.311-.707 2.5c-.389 1.375-.707-3.35-.707-10.5s.324-11.875.719-10.5c.668 2.32.773 2.223 1.465-1.352.934-4.823.223-5.615-2.28-2.54l-1.948 2.392-1.012-2.643c-.556-1.453-.797-3.478-.534-4.5.263-1.021.054-3.657-.465-5.857-.636-2.698-.976-3.217-1.044-1.595-.097 2.331-.161 2.35-2.076.616-1.087-.983-1.689-2.255-1.336-2.825.368-.596.04-.81-.774-.503a89.6 89.6 0 01-3.783 1.275l-2.368.742 1.868-3.2c1.028-1.761 3.146-4.117 4.707-5.236l2.838-2.035-.328 3.8c-.193 2.25.143 3.958.825 4.185.806.269.979-.906.577-3.92-.527-3.951-.435-4.19 1.112-2.911 1.984 1.638 1.954 1.665 3.34-3.088.994-3.41.912-3.72-1.063-4.024-1.295-.199-1.995-.911-1.773-1.805.201-.812.426-3.001.5-4.866.241-6.096 5.84-7 7.125-1.15.644 2.93.889 3.07 4.601 2.622 5.046-.608 5.834-1.149 5.201-3.568-.285-1.091-.194-2.778.202-3.749.664-1.628.779-1.61 1.489.235.423 1.1.319 2.563-.23 3.25-1.157 1.448.095 1.631 2.171.317 1.205-.762.934-2.875-1.751-13.652-1.747-7.013-3.438-13.013-3.758-13.333-.981-.984-27.578-.993-33.416-.012M88.725 35.842c-3.994 1.579-4.961 5.856-4.217 18.656.393 6.771 1.289 13.142 2.055 14.623.746 1.444 1.124 2.859.839 3.143-.729.73-6.402-1.523-6.402-2.542 0-.462-.498-.532-1.107-.156-.805.498-.8.873.019 1.38.7.432.077 1.221-1.643 2.082-4.236 2.12-6.178 4.016-5.702 5.566 1.445 4.696 1.542 4.847 2.312 3.602.424-.686 3.878-2.374 7.676-3.752 3.798-1.377 7.289-2.888 7.758-3.357.469-.469 4.03-.636 7.914-.371l7.063.482-.645-3.224c-.355-1.773-.645-6.318-.645-10.099 0-5.095-.349-6.875-1.346-6.875-.816 0-2.218-3.002-3.563-7.632-3.35-11.529-5.188-13.572-10.366-11.526m285.301 41.743l-3.473 1.506 4.81 3.13c5.31 3.453 12.567 4.646 18.637 3.063l3.5-.913-2.755-2.555c-2.495-2.314-12.24-5.874-15.811-5.777-.789.022-2.997.717-4.908 1.546M36.884 88.451c-.095 1.687-.197 1.74-.573.299-.252-.963-1.1-1.75-1.884-1.75-1.543 0-1.908 2.112-1.514 8.75.15 2.538-.184 4.25-.83 4.25-.596 0-1.083.873-1.083 1.941s-.45 2.219-1 2.559c-.55.34-1 1.716-1 3.059 0 1.343.45 2.441 1 2.441s1-.477 1-1.059.382-.823.849-.534c.467.288.906-.698.976-2.191.138-2.919 2.997-12.547 3.108-10.466.132 2.474 2.067 1.189 2.067-1.372 0-2.111.268-2.4 1.374-1.483 1.075.893 1.725.602 3-1.342 2.338-3.569 2.055-4.284-1.874-4.743-2.968-.346-3.518-.097-3.616 1.641m87.525 53.848c-.119 5.628-1.234 9.927-2.388 9.214-3.064-1.894-2.373 26.005.702 28.301.977.73 1.679 1.703 1.559 2.162-.386 1.472 15.673.169 18.001-1.461 1.189-.833 1.612-1.515.94-1.515-.687 0-1.223-1.29-1.223-2.941 0-1.618-.498-3.249-1.107-3.625-.728-.45-.898-.025-.495 1.243.336 1.06-.051 2.804-.862 3.875-1.372 1.815-1.475 1.824-1.504.139-.018-.995-.44-1.557-.938-1.249-.498.308-.653 1.53-.343 2.715.438 1.674.249 1.959-.843 1.277-.775-.483-2.038-.973-2.808-1.089-.77-.117-1.732-.75-2.138-1.407-.406-.657-1.239-.885-1.85-.507-1.546.955-1.393-1.576.239-3.958 2.241-3.273 2.964-7.531 1.161-6.839-1.927.739-1.912-.094.057-3.1 1.446-2.206 1.426-2.539-.261-4.226-1.007-1.007-2.613-1.68-3.569-1.496-.957.184-1.749-.261-1.761-.989-.012-.728-.902-.198-1.978 1.177-1.671 2.136-1.959 2.231-1.978.654-.028-2.323 2.333-5.58 9.466-13.058 6.281-6.585 6.091-7.555-1.488-7.58l-4.5-.015-.091 4.298m304.786 29.451l.305 4.75 5.602.295c5.576.295 5.6.283 5.406-2.5l-.351-5.045c-.143-2.045-.664-2.25-5.712-2.25h-5.555l.305 4.75M73 179.836c0 .525-1.082 1.995-2.403 3.267-2.472 2.379-2.643 6.811-.428 11.137 1.171 2.288 4.816.241 4.861-2.731.028-1.812.128-1.842 1.026-.302.548.94.794 5.322.547 9.75-.246 4.424-.258 8.043-.025 8.043 1.847 0 4.203-4.298 4.057-7.402-.094-1.979.176-3.598.598-3.598s.799 1.012.837 2.25c.067 2.147.11 2.158.93.25.82-1.908.863-1.897.93.25.074 2.365 2.07 3.233 2.07.9 0-.743 1.387-2.414 3.082-3.713 2.425-1.858 2.996-2.955 2.675-5.142-.225-1.529-.208-2.58.036-2.335.486.486 3.207-1.965 3.207-2.889 0-1.578-3.838-.3-4.29 1.429-.53 2.029-2.71 2.834-2.71 1 0-.55.382-1 .848-1 .466 0 .889-1.445.939-3.21.064-2.249-.174-2.782-.794-1.779-1.388 2.245-2.292.416-.993-2.011 1.391-2.599.743-3.534-1.707-2.465-.986.43-2.14.708-2.565.616-.425-.091-1.201.963-1.725 2.342-.525 1.379-1.455 2.507-2.068 2.507s-1.959 1.012-2.991 2.25c-2.08 2.493-2.386 1.814-1.985-4.401.094-1.458-.308-2.947-.894-3.309-.586-.362-1.065-.229-1.065.296M7.5 203c-.717 2.259-2.083 2.62-2.838.75-.385-.954-.523-.937-.583.071-.068 1.131 3.15 5.295 3.35 4.337.039-.189 1.196.112 2.571.668 1.375.556 3.28 1.256 4.233 1.555 1.072.336 1.506 1.136 1.137 2.097-.606 1.579-8.95 1.518-11.542-.084-.603-.373-.907-.132-.683.542.223.668.723 1.2 1.112 1.182.389-.017 2.266.62 4.171 1.417 2.202.919 3.689 1.085 4.079.454.341-.553 3.914-.882 8.05-.741 6.856.232 7.437.419 7.44 2.395.004 2.579-1.738 3.357-7.52 3.357-2.397 0-4.642.457-4.987 1.016-.346.559-.967.807-1.38.552-.414-.256-3.421-.747-6.681-1.092-4.916-.52-5.707-.401-4.629.698.904.922 4.512 1.354 11.852 1.418 15.329.133 14.874.328 16.751-7.146.878-3.496 1.597-6.581 1.597-6.855 0-1.274-9.439-4.519-11.58-3.981-1.555.39-3.956-.297-7.018-2.009-5.593-3.126-6.087-3.169-6.902-.601" fill="#d3d3d3" fill-rule="evenodd"/></svg>