<svg xmlns="http://www.w3.org/2000/svg" width="500" height="496"><path d="M498.987 41.75c-.034 105.268-.463 126.532-2.566 127.357-1.328.52-1.458.784-.421.855 1.226.083 1.18.344-.25 1.43-1.899 1.442-2.355 3.608-.759 3.608.545 0-.422 1.35-2.148 3-1.727 1.65-2.735 3.014-2.241 3.03.494.017.101.495-.873 1.062-.974.567-1.51 1.453-1.191 1.969.319.517-.009.946-.729.954-1.007.012-1.026.195-.084.794.673.428 1.361 1.658 1.529 2.734.167 1.077.667 2.539 1.111 3.251.445.713.326 1.873-.264 2.584-1.326 1.598-18.375 1.3-18.918-.33-.195-.583-.842-.759-1.438-.39-.697.43-.849.056-.426-1.046.391-1.019.257-1.468-.33-1.105-.544.336-1.045.134-1.114-.448a362.44 362.44 0 00-.283-2.309c-.088-.687.306-1.581.875-1.985.665-.473.587-.74-.217-.75-.687-.008-1.25-.465-1.25-1.015 0-.55.506-.888 1.125-.75.619.137 1.302-.224 1.518-.803.228-.611-1.369-1.158-3.802-1.301-2.496-.148-4.752-.936-5.57-1.947-1.47-1.817-1.477-2.01.168 4.551 1.23 4.908 1.681 14.442.653 13.807-.601-.371-1.092-1.323-1.092-2.116 0-.793-.9-1.441-2-1.441-1.748 0-2-.667-2-5.3 0-2.915.54-5.84 1.2-6.5.933-.933.878-1.203-.25-1.215-1.233-.013-1.226-.161.05-.985 1.151-.744.802-.969-1.5-.969s-2.651.225-1.5.969c1.304.843 1.287.971-.133.985-.899.008-1.869-.885-2.157-1.985-.611-2.338-3.71-2.723-3.71-.461 0 1.267-.247 1.311-1.396.25-1.189-1.098-1.152-1.398.25-2.023 1.336-.595 1.27-.694-.354-.525-1.1.115-2.562-.144-3.25-.575-.762-.478-1.256-.273-1.265.525-.011.951-.281.899-.985-.191-.533-.825-.976-1.034-.985-.464-.008.569-.915 1.035-2.015 1.035s-2-.344-2-.766c0-.421-1.35-.609-3-.417s-3-.041-3-.519c0-1.37-12.434-1.035-13.842.373-.845.845-1.467.905-1.95.189-.389-.578-4.037-1.555-8.105-2.17-4.068-.615-7.774-1.713-8.235-2.44-.635-1.002-.841-.898-.853.429-.012 1.372-.878 1.75-4.015 1.75-2.2 0-4-.459-4-1.019 0-.575 1.041-.758 2.391-.419 1.315.33 2.691.114 3.059-.481.436-.706-.728-1.081-3.36-1.081-3.191 0-3.906.315-3.444 1.519.484 1.261.14 1.35-2.032.524-1.438-.546-2.614-.694-2.614-.327 0 .366-.666-.207-1.481-1.275-1.282-1.68-1.616-1.739-2.485-.441-.624.933-1.009 1.045-1.019.295-.015-1.227-2.604-1.853-11.515-2.784-6.778-.709-7.762-.917-9.5-2.011-2.034-1.28-2.52-1.347-18.5-2.562-7.7-.586-14.675-1.307-15.5-1.602-4.109-1.472-19.526-.24-22.319 1.783-1.55 1.123-3.477 1.79-4.282 1.481-.959-.368-1.808.379-2.465 2.169-.552 1.502-2.328 5.252-3.949 8.334-1.62 3.082-3.652 8.649-4.515 12.371-1.518 6.544-1.504 6.814.412 8.156 1.281.897 1.837 2.192 1.57 3.661-.267 1.475.507 3.264 2.206 5.096 1.913 2.063 2.285 3.03 1.381 3.589-1.376.85-.955 5.524.971 10.787.657 1.794.938 3.931.624 4.75-.314.818-.105 1.487.465 1.487.575 0 .758.875.412 1.966-.343 1.081-.186 3.552.35 5.492 1.337 4.845.084 5.124-4.483.999C273.838 220.422 274 220.541 274 223.155c0 2.918-1.699 4.845-4.271 4.845-1.702 0-1.729-.143-.3-1.571.864-.865 1.571-2.177 1.571-2.917 0-.74.563-1.572 1.25-1.85.961-.388.948-.522-.059-.583-.72-.043-1.041-.512-.714-1.042 1.154-1.867-13.443-14.857-25.263-22.481-14.187-9.151-18.017-10.276-26.714-7.848-1.918.535-1.929.478-.25-1.404 2.145-2.404 2.284-4.446.25-3.666-2.144.823-1.852-1.009.5-3.138 1.1-.995 2-3.036 2-4.534 0-2.699-.711-3.218-7.384-5.392-2.324-.757-8.775.36-8.127 1.408.259.419-1.657 1.08-4.259 1.469-6.526.975-8.271.998-11.73.154-2.661-.649-2.776-.591-1.014.514 1.902 1.192 1.86 1.298-1 2.518-1.642.7-2.492 1.293-1.889 1.318.603.025 2.175.98 3.493 2.123 1.761 1.527 3.192 1.92 5.403 1.483 5.651-1.117 15.507.151 15.507 1.995 0 .716.675 1.976 1.5 2.801 1.333 1.333 1.325 1.675-.071 3.072-2.099 2.098-7.591 2.156-6.791.071.82-2.136-.632-1.855-3.284.638-2.758 2.59-8.354 1.077-8.354-2.259 0-1.034-.562-1.885-1.25-1.893-.687-.007-2.375-.297-3.75-.644-2.021-.509-1.491.308 2.761 4.264 6.633 6.171 6.064 7.335-3.956 8.092-7.376.558-7.65.492-17.241-4.141-9.512-4.596-12.146-5.168-9.584-2.081 1.064 1.282.937 1.524-.799 1.524-1.134 0-2.315.408-2.623.906-1.093 1.768-4.653-.03-4.019-2.03.657-2.068-1.043-2.489-3.539-.876-1.09.704-1.142.974-.191.985.72.008 1.012.496.649 1.083-.363.588-1.261.838-1.995.556-.735-.282-2.489.395-3.899 1.504L142 198.145l-.014-3.322c-.024-5.989-1.137-7.851-7.116-11.911-6.316-4.289-6.606-4.822-4.466-8.197.772-1.218 1.724-4.24 2.116-6.715.392-2.475 1.133-5.301 1.647-6.28 1.37-2.608 1.829-7.605.759-8.266-.51-.315-.933.017-.941.737-.012.969-.257.928-.943-.157-.597-.945-.516-1.962.227-2.859 1.808-2.178-1.639-4.151-6.011-3.442-2.566.416-3.367.253-2.852-.581.491-.794-.329-1.147-2.594-1.117-1.822.024-6.462-.212-10.312-.524-21.048-1.706-25.877-1.347-41.642 3.093-.904.254-2.158 1.706-2.788 3.226-.629 1.521-3.94 5.692-7.357 9.27-3.417 3.578-9.066 10.841-12.553 16.139l-6.341 9.634-.424 12.496c-.265 7.832-.045 12.729.591 13.122.558.345 1.014 1.92 1.014 3.5 0 2.038.855 3.481 2.941 4.967 1.617 1.152 3.224 2.987 3.571 4.079 1.014 3.196 12.044 6.917 17.792 6.003.442-.07 1.567.743 2.5 1.807 2.688 3.067 7.69 3.542 8.96.851.571-1.209 3.314-4.724 6.096-7.812l5.057-5.614 9.186-1.178c5.051-.648 9.908-1.557 10.791-2.02.883-.463 3.631-1.174 6.106-1.58 4.941-.811 5.96-1.746 5.988-5.494.028-3.754 9.836-8.967 13.341-7.091 2.351 1.258 2.379 1.412 1.043 5.85-1.673 5.558-1.712 6.569-.217 5.646.634-.393.889-.286.565.238-.323.524-.175 1.606.331 2.405.686 1.084.922.74.934-1.357.009-1.622.439-2.547 1.019-2.189.552.341.734 1.692.406 3.002-.749 2.982.444 5.334 1.7 3.353.703-1.11.882-1.084.981.143.067.825.222 2.175.344 3 .123.825.3 2.539.394 3.809.11 1.484.589 2.051 1.341 1.586.787-.486.961-.178.531.941-.401 1.046-.136 1.664.714 1.664.743 0 1.602.958 1.909 2.13.343 1.314 1.098 1.922 1.969 1.588 2.005-.77 3.546 1.381 9.517 13.282 7.046 14.041 15.358 27.908 18.023 30.066 1.192.965 2.181 2.582 2.199 3.594.017 1.012.692 2.714 1.5 3.781.807 1.068 1.468 1.426 1.468.796 0-.631 1.166-2.312 2.592-3.738 3.054-3.054 4.665-2.281 6.437 3.09.631 1.912 1.589 3.147 2.163 2.792.568-.35 1.424-.017 1.904.741.65 1.025.877.807.889-.851.015-2.211.782-2.178 5.748.248.128.062-.151 1.451-.619 3.085-.738 2.572-.534 3.122 1.516 4.089 1.368.646 2.605.736 2.928.213.942-1.524 2.008-1.012 2.163 1.037.095 1.261-.331 1.76-1.214 1.421-.968-.371-1.204.078-.817 1.557.6 2.296 1.814 2.691 2.894.943.876-1.418 4.362 2.854 4.394 5.386.032 2.539-2.491 2.146-5.493-.856-2.983-2.983-4.746-2.444-1.985.606 1.002 1.107 1.599 2.235 1.326 2.507-.824.824-5.95-5.505-6.103-7.535-.101-1.338-.743-1.781-2.183-1.508-1.122.213-2.651.421-3.397.462-.894.049-1.11.671-.633 1.824.398.962.874 4.102 1.059 6.976.349 5.444 1.952 9.688 3.335 8.833.719-.444 2.669 2.707 2.925 4.727.055.432.791 1.476 1.635 2.321 1.778 1.778 2.005 3.393.477 3.393-.582 0-.738.52-.346 1.155.443.715.275.883-.44.44-.635-.392-1.155-.236-1.155.346 0 .857 3.288 1.544 4.25.889.137-.094 2.056.97 4.264 2.363 2.208 1.394 6.483 3.78 9.5 5.302 3.017 1.522 5.792 3.246 6.166 3.831 1.159 1.815 8.617-2.388 8.054-4.538-.257-.983-1.363-1.788-2.458-1.788-1.358 0-1.807.476-1.414 1.5.316.825.139 1.5-.393 1.5h-1.719a.77.77 0 01-.765-.75c-.009-.413-.373-1.312-.809-2-1.225-1.928.012-3.032 2.8-2.499 2.368.452 2.524.228 2.524-3.634 0-2.265.477-4.117 1.059-4.117s.762-.481.399-1.068c-.363-.588-1.29-.827-2.059-.532-1.044.401-1.399-.408-1.399-3.191 0-2.714-.576-4.088-2.118-5.051-1.561-.974-1.824-1.616-1-2.44.615-.615 1.118-1.928 1.118-2.918 0-.99.54-1.8 1.2-1.8.915 0 .922-.278.033-1.167-.89-.89-2.057-.153-4.909 3.101l-3.742 4.268-1.727-2.132c-1.919-2.37-.28-4.701 6.906-9.82 3.879-2.764 4.239-2.78 4.239-.191 0 1.132.419 1.8.931 1.484.512-.317 1.213-.118 1.559.441.979 1.585 2.515 1.193 1.874-.478-.316-.822-.901-1.292-1.302-1.044-.401.247-.768-.093-.815-.756-.048-.663-.32-2.21-.606-3.438-.417-1.792.159-2.554 2.92-3.864 1.891-.897 3.476-1.918 3.521-2.268.765-5.914 3.184-11.487 7.799-17.969 1.929-2.709 9.457-5.029 10.36-3.193.575 1.169 6.772 5.026 8.073 5.026.768 0 2.585 1.436 4.039 3.191l2.643 3.19 2.062-2.213c2.818-3.024 3.546-2.197 3.393 3.853-.12 4.774-1.667 7.581-3.54 6.424-.376-.233-1.24.247-1.92 1.066-.992 1.196-.965 1.492.137 1.504 1.086.012 1.06.24-.128 1.095-1.266.91-1.227.991.25.516.962-.31 1.75-.127 1.75.405 0 .533.45.969 1 .969s1-1.152 1-2.559c0-1.451.433-2.292 1-1.941.55.34 1 2.383 1 4.54 0 3.796 1.284 6.237 9.654 18.344 1.185 1.714 5.305 6.212 9.155 9.995 9.342 9.179 11.322 8.978 19.821-2.021 3.229-4.178 6.812-8.555 7.963-9.727 3.135-3.193 6.499-8.372 7.419-11.422.529-1.756.846-2.064.902-.876.047 1.009.636 1.65 1.308 1.426 1.449-.483 2.575-4.078 2.588-8.259.01-2.991.007-2.99-.978.5-1.006 3.561-2.832 6.351-2.832 4.326 0-.591.711-3.044 1.579-5.45.869-2.407 1.765-5.276 1.992-6.376.227-1.1.613-3.003.859-4.229s.017-2.495-.508-2.819a1.121 1.121 0 01-.369-1.537c.322-.521 1.074-.645 1.672-.276.736.455.893-.3.485-2.338-.347-1.734-.116-3.495.544-4.155 1.619-1.619 2.789-1.422 2.108.354-.519 1.351 1.158 2.049 3.888 1.618.413-.065.75.311.75.835 0 1.948 5.863-2.496 8.127-6.159 1.29-2.087 3.07-3.794 3.955-3.794 2.292 0 7.745-2.869 8.702-4.578.444-.794 2.693-1.604 4.998-1.799 2.305-.195 4.92-.961 5.812-1.701 1.382-1.147 1.819-1.077 2.948.466.729.997 1.718 1.569 2.199 1.272.48-.297 3.216-.769 6.08-1.049 2.864-.281 5.619-.765 6.124-1.077.504-.312 1.179-.142 1.499.376.33.534 1.771.607 3.319.169 1.506-.426 3.974-.715 5.486-.644 2.284.109 2.665-.213 2.259-1.902-.269-1.118-.247-1.518.049-.889.804 1.706 4.417.452 3.745-1.3-.308-.802-1.163-1.228-1.899-.945-.736.282-1.636.033-1.998-.554-.443-.715.863-.946 3.965-.699 2.544.203 4.851-.085 5.128-.639.304-.611.73-.519 1.082.234.436.932.982.84 2.194-.372 1.485-1.485 1.661-1.479 2.209.082.717 2.044 1.996 2.202 3.119.384.454-.734 1.366-1.335 2.028-1.335.662 0 1.391-.562 1.62-1.249.599-1.797-2.505-2.7-4.263-1.24-.818.678-1.487.833-1.487.342 0-.49-1.687-.991-3.75-1.114-2.062-.122-7.35-.424-11.75-.671-12.396-.697-15.659-1.208-16.511-2.585-.574-.929-.884-.764-1.149.61-.338 1.755-.525 1.722-2.72-.473-1.296-1.296-2.64-1.965-2.988-1.488-1.42 1.951-4.086 1.399-4.681-.969-.586-2.338-5.451-5.615-5.451-3.673 0 .521-.747.66-1.661.31-.913-.351-4.591-1.124-8.173-1.719-5.742-.953-9.961-3.581-5.749-3.581 2.176 0 2.013-1.992-.167-2.032-1.629-.029-1.624-.127.081-1.42 1.739-1.317 1.714-1.41-.5-1.832-1.978-.376-1.876-.475.669-.65 2.619-.18 2.746-.316 1-1.066-1.71-.735-1.746-.87-.25-.93.962-.038 1.75-.492 1.75-1.007 0-.516 1.688-.978 3.75-1.026 6.749-.16 7.741-.326 8.447-1.412.384-.59.159-1.415-.5-1.833-.672-.428.434-.768 2.522-.777 2.87-.012 3.589-.353 3.15-1.497-.423-1.102-1.04-1.229-2.408-.497-2.153 1.152-3.545-.31-1.7-1.785 1.394-1.114 13.779-1.506 13.561-.429-.077.381.205 1.48.626 2.443.956 2.183 4.751 2.431 3.916.256-.316-.822-.945-1.265-1.4-.984-.454.281-1.143-.003-1.531-.631-.516-.835 1.145-.976 6.181-.526 3.787.339 7.336.598 7.886.577.55-.021 3.207-.141 5.904-.265 2.909-.134 5.419.289 6.17 1.04.696.696 1.414.837 1.596.313.576-1.663 9.688-1.501 12.441.221.61.382 1.398.407 1.75.055.841-.841 9.136-.735 10.543.135.603.372 1.562.389 2.131.037.57-.352 5.632-.708 11.25-.79 9.859-.146 10.226-.073 10.535 2.08.175 1.228 1.011 2.232 1.857 2.232.955 0 1.319-.568.961-1.5-.554-1.443 1.874-2.085 6.362-1.68 10.176.918 13.596 1.521 14.224 2.508.555.873.749.853.761-.078.008-.687.492-1.25 1.074-1.25.582 0 .781.45.441 1s.044 1 .853 1c1.005 0 1.377.856 1.174 2.705-.36 3.281 1.324 7.295 3.06 7.295 1.459 0 4.413 5.437 4.413 8.122 0 1.2-.507 1.621-1.494 1.242-.822-.316-1.265-.945-.984-1.4.281-.454.1-1.079-.401-1.389-2.366-1.462-1.743 2.54.679 4.359 2.091 1.571 2.398 2.227 1.362 2.911-1.737 1.145-1.88 9.585-.197 11.612.99 1.193 1.001 1.543.05 1.543-.676 0-.981.647-.677 1.437.313.817-.114 1.573-.989 1.75-1.3.264-1.225.713.484 2.88 1.114 1.412 2.206 4.337 2.428 6.5.221 2.163.478-57.379.571-132.317C499.924 61.313 499.775 0 499.5 0s-.506 18.787-.513 41.75m-298.226 3.823c-.39.389-2.632.883-4.984 1.097-5.527.503-6.146.634-13.277 2.8-5.217 1.586-6.783 2.705-12 8.576-3.3 3.714-6.703 6.798-7.563 6.853-2.352.152-6.228 4.729-11.25 13.283-6.165 10.504-6.398 11.658-5.771 28.568.112 3.004 1.851 2.856 3.279-.278.836-1.835 1.375-2.178 1.963-1.25.578.911.816.726.827-.643.008-1.057.76-2.744 1.67-3.75.99-1.094 1.191-1.829.5-1.829-.635 0-1.155-.647-1.155-1.437 0-1.097.888-1.3 3.75-.859 4.706.725 9.245 2.965 9.265 4.572.01.793.274.86.75.191.404-.568 3.006-2.677 5.781-4.685 4.556-3.298 5.155-3.489 6.168-1.967.981 1.474 1.271 1.272 2.319-1.616.659-1.816 1.428-3.071 1.71-2.79.281.282 2.084-.145 4.006-.949 1.922-.803 4.288-1.46 5.256-1.46.969 0 1.997-.9 2.285-2 .516-1.973 2.71-2.856 2.71-1.09 0 .502 2.467.336 5.5-.369 3.025-.703 5.5-.902 5.5-.441 0 .46.787.59 1.75.287 1.494-.47 1.466-.319-.191 1.031C207.765 86.88 208.53 87 219.687 87c16.483 0 18.166.772 22.833 10.475 1.979 4.114 4.021 7.742 4.539 8.061.518.32.941 3.229.941 6.464 0 6.899 1.708 8.989 2.267 2.773.33-3.672.408-3.451.558 1.566.17 5.67.048 5.963-4.204 10.095-4.1 3.985-4.838 4.299-11.577 4.925-3.959.368-8.5 1.343-10.091 2.165-3.034 1.569-5.879 5.476-3.988 5.476.569 0 1.035-.429 1.035-.953 0-2.312 9.447-5.184 16-4.864 5.925.289 6.5.141 6.502-1.67.001-1.095.786-2.137 1.75-2.323.961-.185 1.748-.78 1.748-1.322s.406-.735.903-.428c1.351.835 3.097-5.093 3.097-10.518 0-2.649.594-5.373 1.333-6.112 4.475-4.475 1.642-34.628-3.694-39.31-.626-.55-2.544-3.7-4.261-7s-3.654-5.879-4.304-5.732c-.649.147-1.864-.415-2.699-1.25-.9-.9-1.058-1.518-.387-1.518.621 0 .822-.498.446-1.107-.49-.793-.874-.799-1.356-.019-.44.712-1.975.201-4.453-1.483-3.944-2.68-4.396-4.409-.625-2.391 1.194.639 2.4.934 2.679.655 1.152-1.153-5.471-3.348-9.179-3.043-3.03.249-3.394.143-1.5-.438 2.207-.676 2.285-.849.668-1.47-2.589-.995-3.891-.873-3.168.296.34.55.141 1-.441 1S220 47.663 220 47.25c.001-.413-2.587-.754-5.75-.758-3.162-.004-7.332-.372-9.266-.817-1.934-.446-3.834-.491-4.223-.102m16.244 103.677c-2.908 10.837-2.967 10.894-10.912 10.542-6.33-.28-6.579-.388-6.253-2.704.366-2.589 1.262-3.703 5.133-6.379 2.439-1.686 2.443-1.709.258-1.709-1.218 0-2.776.9-3.463 2-.687 1.1-1.586 2-1.997 2-1.317 0-4.771 3.4-4.771 4.697 0 3.248 16.515 6.49 21.17 4.156 2.357-1.182 4.082-7.129 4.216-14.53.153-8.467-.726-7.966-3.381 1.927M87.5 155.599c-10.048 2.343-10.5 2.579-10.5 5.475 0 4.554-3.874 8.305-7.251 7.021-2.443-.929-2.916-.748-4.39 1.682-3.365 5.549-10.909 16.749-12.431 18.455-1.874 2.102-4.434 19.187-3.507 23.408.351 1.597 2.318 5.126 4.371 7.843 3.359 4.444 4.336 5.075 9.721 6.278 3.293.735 6.965 1.586 8.16 1.89 1.75.445 2.701-.295 4.881-3.799 7.289-11.714 8.254-12.407 21.471-15.44 10.35-2.374 12.204-3.102 13.254-5.201.685-1.37 2.809-2.978 4.839-3.663 1.989-.672 5.295-2.258 7.345-3.525l3.728-2.304-4.271-3.905-4.272-3.904-5.366 3.795c-10.649 7.531-12.704 7.904-15.9 2.882l-2.119-3.329 4.326-4.019c6.304-5.858 16.759-11.456 20.656-11.06 2.926.297 3.251.02 4.306-3.679 2.556-8.963 2.524-11.264-.171-11.941-6.519-1.636-33.331-3.788-36.88-2.96m78 173.356c1.498.61.997.801-2 .761-5.614-.076-9.5.57-9.5 1.579 0 .472 3.488.787 7.75.7 8.041-.164 18.915.516 23.25 1.453 3.368.729 13.853-2.303 11.977-3.462-.76-.47-1.628-.703-1.929-.519-.302.184-2.348.641-4.548 1.014s-4.675.798-5.5.945c-.825.146-5.302-.565-9.949-1.58-8.909-1.946-13.103-2.337-9.551-.891m54.334 16.544c-.274.275-8.543 2.097-18.374 4.051-18.697 3.715-20.68 4.204-50.175 12.393-21.216 5.89-20.285 5.773-20.285 2.557 0-3.049-1.079-3.204-2.827-.406-1.234 1.977-1.412 1.999-3.177.402-2.384-2.157-4.341-1.005-3.562 2.098.718 2.862-1.773 5.685-6.911 7.832L111 375.898l.037 24.301c.038 24.748 1.015 49.996 3.011 77.801a14379 14379 0 011.199 16.788c.064.962 2.126 1.215 8.162 1l8.077-.288.638-3 .639-3 .119 3.25L133 496h5.519c5.196 0 5.492-.132 5.049-2.25-.419-2.003-1.715-11.819-3.069-23.25-.66-5.571-2.436-38.657-3.516-65.5-.498-12.375-1.182-23.64-1.52-25.034-.587-2.424-.336-2.59 5.712-3.798 3.479-.695 14.65-3.486 24.825-6.201 37.743-10.072 61.622-14.627 63.108-12.039.496.865 3.899 6.522 7.562 12.572 3.664 6.05 10.108 17.075 14.321 24.5 4.212 7.425 9.763 16.863 12.334 20.974 2.571 4.111 4.675 8.486 4.675 9.722 0 2.383 3.566 10.481 7.18 16.304 5.89 9.489 14.319 22.556 14.838 23 2.21 1.892 6.835 12 5.491 12-2.554 0-1.706 1.788 3.241 6.841 2.613 2.668 5.2 6.383 5.75 8.255.934 3.178 1.312 3.424 5.697 3.707 4.364.281 4.81.084 6.29-2.778 1.44-2.785 1.445-3.366.053-6.053-.847-1.635-2.29-4.434-3.206-6.222-.916-1.788-2.957-4.825-4.535-6.75a570.478 570.478 0 01-3.774-4.643c-.497-.629-.632-1.417-.298-1.75.333-.334.081-.607-.56-.607-.642 0-1.068-.337-.946-.75.121-.413-1.679-4.626-4.001-9.364-4.353-8.885-8.292-13.834-11.106-13.956-1.225-.054-1.132-.278.386-.93 1.1-.473 1.452-.891.781-.93-.67-.038-.959-.745-.643-1.57.362-.941-.01-1.5-.996-1.5-1.757 0-4.04-3.547-3.179-4.94.305-.494-.06-1.515-.813-2.267-.753-.753-2.33-3.377-3.506-5.831-1.175-2.454-3.545-6.712-5.267-9.462-1.721-2.75-4.815-8.15-6.874-12-2.06-3.85-4.629-8.575-5.709-10.5a2055.87 2055.87 0 01-4.734-8.5c-7.604-13.731-17.607-28.599-22.707-33.75-5.219-5.271-6.06-5.75-10.106-5.75-2.428 0-4.638.225-4.913.499m-6.336 115.849c-7.125 2.051-8.2 4.232-4.654 9.442 4.826 7.094 7.1 11.276 9.765 17.957l2.891 7.246 12.25.004c13.201.003 13.762-.265 11.097-5.313-1.765-3.342-9.116-12.699-13.612-17.327-2.214-2.279-5.24-6.217-6.725-8.75-2.935-5.008-3.921-5.3-11.012-3.259" fill="#d3d3d3" fill-rule="evenodd"/></svg>