<svg xmlns="http://www.w3.org/2000/svg" width="500" height="500"><path d="M0 110.5C0 171.275.231 221 .514 221c.283 0 10.971-1.32 23.75-2.933a9126.822 9126.822 0 0 1 49.236-6.041c25.515-3.051 37.261-4.476 94.5-11.464 27.083-3.306 52.575-6.294 90.5-10.606 9.35-1.064 26.9-3.078 39-4.477 12.1-1.399 45.85-5.229 75-8.512 29.15-3.283 54.575-6.184 56.5-6.447 1.925-.263 13.455-1.385 25.623-2.494 12.167-1.109 26.342-2.46 31.5-3.004 5.157-.543 10.382-.995 11.611-1.005l2.235-.017.282 28.25c.155 15.537.387-21.362.515-82L501 0H0v110.5m.483.5c0 60.775.12 85.637.267 55.25.147-30.388.147-80.113 0-110.5C.603 25.362.483 50.225.483 111" fill="#d3d3d3" fill-rule="evenodd"/></svg>