<svg xmlns="http://www.w3.org/2000/svg" width="500" height="497"><path d="M95 .995c-.825.536-4.875.984-9 .995-9.432.027-14.574 1.431-16.609 4.536-2.816 4.297-9.658 6.826-10.753 3.974-.316-.825-1.489-1.5-2.607-1.5-2.058 0-2.751 1.437-1.165 2.417C56.777 12.598 54.82 17 52.383 17 50.654 17 50 17.558 50 19.031c0 2.824-2.454 3.48-4.851 1.296C41.535 17.034 40.098 16 39.14 16c-.519 0-1.415-1.35-1.99-3-1.385-3.972-5.72-4.26-7.159-.476-2.87 7.549 7 23.463 16.188 26.099l3.321.953.002 16.462c.002 15.661.122 16.672 2.467 20.769 2.095 3.663 2.244 4.446.997 5.235-1.247.789-1.221.93.177.943 2.748.025 2.859 2.619.328 7.698-2.835 5.689-3.111 7.429-2.051 12.932.9 4.674 3.186 6.193 12.58 8.361 8.481 1.957 8.426 1.925 25.5 14.781.55.414 2.963 2.412 5.363 4.44 4.62 3.905 11.186 6.301 19.993 7.295 3.089.349 6.576 1.507 8.238 2.735 1.585 1.172 3.094 1.918 3.355 1.658.425-.425-3.842-16.654-6.43-24.456-.561-1.689-1.019-3.558-1.019-4.152 0-1.717 5.785-3.277 12.149-3.277 9.029 0 7.822-1.046-8.882-7.699-4.649-1.852-7.249-3.696-10.236-7.264-2.702-3.227-5.049-4.991-7.219-5.425-1.769-.353-4.233-1.598-5.476-2.766-2.342-2.2-5.211-4.025-9.086-5.778-2.628-1.19-2.97-3.855-.61-4.76 1.167-.448.23-1.179-3.25-2.537C80.765 72.576 75 67.483 75 64.708c0-1.045-.717-4.365-1.593-7.378-.875-3.013-1.302-5.769-.946-6.124C73.856 49.81 81 50 81 51.433c0 .77.563 1.597 1.25 1.838.898.314.709 1.046-.669 2.599-1.893 2.132-1.893 2.182 0 3.614 1.055.799 1.469 1.469.919 1.49-.872.033 4.155 3.026 5.083 3.026.195 0 .125-.597-.155-1.328-1.156-3.012 1.461-6.926 4.271-6.389C97.224 57.339 104 50.094 104 43.131c0-1.657.498-3.321 1.107-3.697.793-.49.767-.894-.092-1.425-.924-.571-.901-1.219.098-2.819 1.43-2.29-.577-5.568-4.093-6.684-1.475-.468-1.601-1.267-.897-5.719.45-2.846.557-6.213.239-7.481-.533-2.123-.258-2.306 3.464-2.306 2.224 0 5.197-.439 6.607-.974 4.33-1.647 21.345.417 23.998 2.91 3.093 2.905 4.116 2.565 2.06-.686-5.595-8.845-12.813-12.351-26.231-12.741-5.918-.172-11.435-.577-12.26-.9-.825-.324-2.175-.15-3 .386M21.755 4.5c.321 1.676.028 2.505-.888 2.515-1.146.013-1.148.154-.013.873 1.083.687 1.222 3.529.694 14.235C20.49 43.574 20.317 46.472 20.058 47c-.135.275-.453 3.634-.707 7.465-.254 3.83-.937 7.537-1.518 8.237-.581.699-.793 2.32-.472 3.601.333 1.327-.043 3.225-.874 4.412-1.281 1.828-1.277 2.151.026 2.652 1.303.5 1.308.971.042 3.851-.794 1.805-1.715 4.971-2.045 7.036-.331 2.065-1.583 4.668-2.782 5.785l-2.179 2.03 2.225.582c1.307.342 2.226 1.36 2.226 2.466 0 2.114-1.593 2.556-2.28.633-1.14-3.192-1.712.957-1.785 12.935-.085 14.018.595 19.941 2.56 22.315 1.563 1.888 2.621 9.81 1.41 10.559-.498.307-.905-1.268-.905-3.5S12.55 134 12 134c-1.933 0-1.081 7.285 1.127 9.635 1.395 1.485 1.886 2.882 1.428 4.064-.662 1.708-.771 1.701-2.126-.14-1.404-1.907-1.429-1.905-1.429.127 0 1.138.675 2.629 1.5 3.314 2.114 1.755 1.863 2.908-.5 2.29-2.718-.711-2.718 2.781 0 4.478 2.582 1.613 2.582 3.197 0 2.522-1.895-.496-2.006-.006-2.109 9.343-.271 24.583-.426 27.102-1.772 28.723-.889 1.072-.973 1.644-.241 1.644 1.15 0 1.657 11.132.557 12.232-.311.311-.775 7.024-1.031 14.917-.741 22.885-1.112 29.168-1.894 32.114-.463 1.744-.276 3.314.508 4.258.77.929 1.016 2.883.648 5.151-.326 2.011-.214 3.244.251 2.742.464-.503 1.092-8.114 1.397-16.914.623-18.029 2.603-31.885 6.86-48 3.786-14.333 5.278-20.083 8.045-31l2.281-9 .049-82.25L25.598 2h-2.161c-1.764 0-2.072.457-1.682 2.5m298.632 64.416c-21.822 5.902-49.404 27.499-66.387 51.98-1.375 1.982-3.062 3.964-3.75 4.404-.687.44-1.25 1.242-1.25 1.784 0 .541-2.925 6.079-6.5 12.305s-6.5 11.738-6.5 12.249c0 .511-1.463 3.202-3.25 5.981-1.894 2.943-5.705 12.527-9.133 22.966-3.236 9.853-6.44 19.04-7.121 20.415s-1.549 4.228-1.929 6.339c-.88 4.888-2.625 8.743-3.667 8.099-.443-.274-1.317 1.397-1.941 3.713-.623 2.316-2.253 5.679-3.622 7.473l-2.488 3.263 2.653 4.526c3.854 6.576.686 8.725-5.088 3.452-2.075-1.895-2.112-1.876-6.854 3.617-2.623 3.038-7.374 9.01-10.559 13.271-3.185 4.261-7.076 9.089-8.646 10.73-4.294 4.486-4.588 5.282-3.345 9.048 1.242 3.761 2.99 4.655 2.99 1.528 0-2.01 1.699-3.693 2.709-2.683.317.316.062 1.194-.565 1.951-1.825 2.198-2.608 10.408-1.16 12.153.688.83 1.029 2.673.756 4.097-.272 1.424.109 4.592.845 7.04.737 2.449 2.018 8.824 2.845 14.168.828 5.343 2.382 15.17 3.453 21.838 3.382 21.054 3.754 29.966 1.305 31.276-1.729.925-2.159.767-2.72-1-.772-2.432-2.708-1.174-2.935 1.907-.076 1.032-1.127 3.134-2.336 4.67L174 374.27l-.041-2.885c-.023-1.587-.876-6.26-1.896-10.385l-1.855-7.5-.104 10.75c-.096 9.957-.248 10.75-2.054 10.75-1.073 0-2.379.766-2.904 1.703-.711 1.271-1.294 1.429-2.299.623-2.163-1.733-4.383-.244-9.905 6.643-2.853 3.558-6.144 6.943-7.314 7.523-2.812 1.393-3.35 7.58-1.094 12.583 1.982 4.396.602 8.708-3.337 10.425-1.388.605-2.129 1.635-1.876 2.608.23.884-.035 2.416-.587 3.403-1.379 2.464-1.189 42.434.208 43.831.582.582 1.058 2.573 1.058 4.424 0 1.851.449 4.205.999 5.231.549 1.027 1.43 5.16 1.958 9.185s1.255 8.782 1.616 10.571l.655 3.252 177.636-.252L500.5 496.5l.04-89.5c.022-49.225-.125-90.416-.326-91.536-.291-1.624-1.612-2.271-6.54-3.206-7.052-1.337-9.707-3.726-9.566-8.608.118-4.064-1.54-18.415-2.204-19.079-1.323-1.323-8.124.835-8.9 2.824a477.955 477.955 0 0 0-2.034 5.355c-1.878 5.033-4.07 4.256-3.325-1.179 1.129-8.231-2.059-12.426-8.896-11.709-2.517.264-2.92.027-2.373-1.399.887-2.311-1.072-4.463-4.064-4.463-3.801 0-6.312-1.805-6.312-4.535 0-1.798-.541-2.465-2-2.465-1.294 0-2-.667-2-1.889 0-3.226-3.224-6.01-10.5-9.069-8.195-3.444-8.239-3.613-5.034-19.542 4.951-24.613 4.794-61.828-.371-88.008-8.504-43.102-30.622-73.223-58.325-79.431-9.543-2.139-39.67-2.231-47.383-.145m19.113 1.509c-6.536 1.49-13.487 4.054-17.651 6.511-11.109 6.553-16.735 9.723-19.099 10.761-1.512.663-2.75 1.653-2.75 2.2 0 1.395-9.232 10.052-10.75 10.08-.687.013-1.253.81-1.256 1.773-.004.963-2.341 4.225-5.195 7.25-2.854 3.025-6.937 8.425-9.073 12-2.136 3.575-4.523 6.86-5.305 7.3-.781.44-1.421 1.902-1.421 3.25 0 2.186.425 2.45 3.941 2.45 2.168 0 4.235-.476 4.595-1.059.36-.582 1.849-.798 3.309-.479 1.46.318 4.834.17 7.498-.33 3.435-.644 6.487-.515 10.5.444 3.111.744 8.156 1.369 11.211 1.388 5.411.035 14.946 4.398 14.946 6.84 0 4.168-8.546 6.384-16.007 4.15-1.921-.575-7.485-1.477-12.365-2.004-4.941-.534-10.479-1.79-12.5-2.835-3.049-1.577-18.132-4.737-18.552-3.887L256.769 150c-8.023 16.23-8.827 18.085-14.265 32.906-5.964 16.256-6.725 20.915-2.769 16.959.846-.846 2.137-.612 5.08.922 3.3 1.72 4.58 1.893 7.815 1.057 2.129-.549 6.542-1.419 9.807-1.933 4.688-.738 6.476-1.558 8.5-3.899 2.467-2.853 2.958-2.985 13.063-3.497 5.775-.293 12.808-.798 15.629-1.124 3.6-.415 5.362-.214 5.911.674 1.201 1.943 1.512 19.785.357 20.499-.551.34-8.065.76-16.699.932-15.179.304-15.781.239-18.198-1.974-4.037-3.695-23-5.767-23-2.514 0 .481.363 1.098.806 1.372.444.274.614 2.147.379 4.161-.362 3.104-.981 3.891-4.056 5.16-1.996.824-4.425 2.206-5.398 3.07-1.639 1.458-1.749 1.399-1.5-.808.417-3.69-2.386-3.382-5.383.592-2.009 2.663-2.822 5.205-3.352 10.484-.385 3.833-1.104 7.219-1.598 7.524-1.721 1.064-.865 2.949 2.108 4.64l2.994 1.704v-2.954c0-1.958.505-2.953 1.5-2.953 2.161 0 2.027 6.606-.16 7.83-1.484.83-1.432 1.051.5 2.084 2.565 1.373 2.722 2.666.586 4.803-1.872 1.872.162 3.87 2.21 2.17.841-.698 1.499-.468 2.188.763.772 1.379.518 1.993-1.169 2.834-1.185.591-2.207 2.085-2.27 3.32-.18 3.529 1.06 3.382 3.078-.365 1.019-1.892 2.348-3.439 2.954-3.439.606 0 1.664-.9 2.351-2s2.108-2 3.157-2c1.05 0 2.109-.562 2.354-1.25.306-.856 1.277-.486 3.084 1.174l2.637 2.425v-2.616c0-1.438-.511-2.931-1.135-3.316-1.386-.857 2.705-3.323 5.635-3.397 1.46-.037 1.645-.276.685-.884-.723-.459-2.347-.637-3.608-.395-1.475.281-2.512-.13-2.904-1.151-.338-.88-.101-1.59.53-1.59.627 0 1.93-.716 2.897-1.59 2.518-2.279 5.69-.924 6.798 2.904.973 3.364 1.158 2.893 1.5-3.814.066-1.299.803-2 2.102-2 3.706 0 7.043-3.141 5.417-5.1-1.26-1.518-1.174-1.616.848-.975 1.376.437 3.47.105 5.396-.855 3.815-1.903 3.36-1.906 5.295.029 1.205 1.205 1.932 1.324 2.945.483.74-.614 2.099-.827 3.02-.474 1.03.395 2.176-.043 2.978-1.138 1.267-1.733 2.403-1.723 7.101.064 1.645.625 1.778.521.75-.587-1.674-1.804-1.577-2.947.25-2.947.825 0 1.5.675 1.5 1.5s.675 1.5 1.5 1.5 1.5-.675 1.5-1.5-.702-1.5-1.559-1.5-1.298-.423-.978-.94c.776-1.256 6.537.768 6.537 2.297 0 .639-.9 1.724-2 2.411-2.73 1.705-2.66 3.656.078 2.19 1.143-.612 2.672-.884 3.397-.606 1.491.572 2.798-4.065 1.391-4.935-1.724-1.065-.81-2.417 1.634-2.417 2.929 0 3.108.671.845 3.171-1.552 1.715-1.528 1.829.393 1.829 1.126 0 2.307-.675 2.624-1.5.316-.825 1.725-1.5 3.131-1.5 3.06 0 4.353-2.678 5.554-11.5 3.757-27.593 3.948-28.176 10.528-32.074 1.726-1.022 1.708-1.22-.381-4.154-2.593-3.641-2.76-6.018-.637-9.049 2.347-3.351 6.342-2.951 7.749.777.695 1.841 1.846 3 2.979 3 5.494 0 7.42 4.728 3.682 9.039-1.316 1.517-1.757 2.894-1.25 3.903 1.103 2.194.583 18.443-.809 25.269-.872 4.276-.881 6.838-.036 10.193.62 2.465 1.128 6.118 1.128 8.118 0 3.538.083 3.619 3.067 2.963 1.687-.37 4.275-1.303 5.75-2.073 1.476-.77 3.434-1.402 4.351-1.406 3.34-.012 4.543-1.065 4.067-3.556-.594-3.106 2.275-3.432 3.081-.351.902 3.451 12.989.87 14.023-2.994.339-1.268.453-1.214.545.258.119 1.914 1.516 1.943 8.116.166 1.375-.37 4.525-.924 7-1.232 2.475-.307 5.005-.957 5.623-1.445.618-.488 1.81-.623 2.649-.301s1.769.191 2.067-.29c2.406-3.893 2.949-48.344.76-62.261-7.118-45.269-24.903-75.519-51.791-88.09-7.765-3.63-13.026-4.258-20.808-2.485M83 89.717c0 1.035-.458 2.341-1.017 2.9-.56.56-1.429 2.45-1.931 4.2-.803 2.803-.679 3.183 1.043 3.183 1.379 0 2.135.898 2.565 3.05.54 2.699.919 2.982 3.301 2.459 1.48-.326 3.895-.134 5.365.425 3.262 1.24 8.674.305 8.674-1.5 0-1.529-1.178-2.391-4.016-2.937-2.03-.391-5.451-3.942-9.377-9.734C85.081 88.036 83 87.111 83 89.717m411.346 124.094c.408 1.892.104 2.281-1.674 2.14-3.768-.299-4.625.008-4.068 1.459.656 1.711-1.672 6.436-4.378 8.886-1.735 1.569-2.052 1.6-2.571.247-.326-.849-.156-1.543.376-1.543.533 0 .969-.9.969-2s-.642-2-1.427-2c-.784 0-1.586-.787-1.781-1.75-.266-1.314-.77-.927-2.022 1.551-.917 1.816-1.418 3.953-1.112 4.75.306.797.148 1.449-.351 1.449-2.176 0-3.307-2.804-3.307-8.2 0-4.489-.339-5.8-1.5-5.8-1.148 0-1.523 1.35-1.6 5.75-.055 3.162-.404 6.842-.777 8.176-.91 3.256-3.119 3.895-3.138.907-.009-1.283-.346-2.834-.75-3.446-.958-1.45-5.503-1.084-6.026.485-.287.861.397 1.014 2.348.524 2.687-.674 2.739-.605 2.172 2.884-.644 3.969.03 7.72 1.388 7.72.485 0 .883-1.157.883-2.571 0-2.336.144-2.428 1.568-1.003.954.953 1.319 2.353.933 3.571-.365 1.15-.181 2.003.432 2.003 1.468 0 1.344 3.309-.183 4.909-1.022 1.07-.555 1.233 2.568.893 3.861-.421 7.149 2.173 4.685 3.696-1.524.942-1.198 2.502.522 2.502.838 0 1.97-1.172 2.515-2.605.807-2.122 1.443-2.491 3.435-1.991 2.588.65 5.281-2.371 3.985-4.468-.812-1.314 1.464-4.101 2.716-3.327 1.122.693 4.824-2.416 4.824-4.052 0-.623 1.332-2.691 2.959-4.595 2.916-3.41 4.258-9.962 2.041-9.962-.55 0-1-.625-1-1.389s-.934-2.452-2.076-3.75l-2.076-2.361.498 2.311M408 230.787c0 .892-1.42 1.188-13 2.717-4.913.649-11.354 2.236-14.5 3.575-1.1.468-3.343.979-4.984 1.136-4.6.44-4.767 5.513-.204 6.191 1.754.26 6.788.986 11.188 1.612 4.4.626 10.04 1.528 12.534 2.004 8.133 1.551 9.293.845 10.723-6.522 1.195-6.159.953-10.763-.592-11.278-.641-.214-1.165.04-1.165.565m48.638 5.713c.317.825.078 1.5-.531 1.5s-1.107-.477-1.107-1.059-.518-.739-1.151-.348c-.755.467-.056 1.606 2.031 3.309l3.181 2.598-2.455 5.088c-1.35 2.799-2.77 6.767-3.154 8.818l-.7 3.73 3.874-.318c3.429-.281 3.843-.595 3.607-2.728-.155-1.404.576-3.195 1.75-4.289 2.134-1.987 2.755-5.801.946-5.801-.59 0-.365-.707.5-1.571.864-.865 1.571-2.215 1.571-3 0-.786.563-1.474 1.25-1.529.688-.055.125-.424-1.25-.822-1.802-.52-2.433-1.33-2.262-2.9.268-2.449-.695-2.785-2.663-.928-1.06 1-1.417 1-1.783 0-.252-.687-.857-1.25-1.344-1.25-.487 0-.626.675-.31 1.5m37.461 7.543c-2.97 2.743-5.119 5.271-4.774 5.615.345.345 1.323.049 2.175-.658 2.441-2.026 3.014-.302 1.179 3.546-.923 1.937-1.679 4.8-1.679 6.362 0 1.562-.675 4.754-1.5 7.092-2.849 8.074-2.383 9 4.527 9h6.027l-.101-18c-.056-9.9-.181-17.988-.277-17.973-.097.015-2.606 2.272-5.577 5.016M361 240.938c-.825.482-4.425 1.854-8 3.048s-6.928 2.586-7.45 3.093c-.522.506-1.985.921-3.25.921s-2.3.42-2.3.933c0 .513-.9 1.218-2 1.567s-2 1.504-2 2.567c0 1.153-.686 1.933-1.7 1.933-1.256 0-1.407.293-.578 1.122.617.617.884 1.742.593 2.5-.366.954.274 1.378 2.078 1.378 1.434 0 2.607.402 2.607.893 0 1.788 3.166 2.044 5.593.454 2.455-1.609 2.463-1.659.597-3.739-5.243-5.841-1.984-9.736 9.667-11.554 8.687-1.355 10.509-2.088 10.966-4.411.355-1.804-2.283-2.19-4.823-.705M88.75 252.083c-.963 1.054-1.75 2.762-1.75 3.795s-.675 3.493-1.5 5.468C83.747 265.542 83.618 267 85 267c.55 0 1-.948 1-2.107 0-1.51.448-1.935 1.582-1.5.87.334 1.77.607 2 .607.23 0 .418.981.418 2.179s.522 3.622 1.159 5.385c1.084 2.997 1.469 3.205 5.932 3.205 4.764 0 4.773-.007 5.428-3.879.36-2.134 1.066-4.133 1.568-4.444 2.416-1.493-4.093-11.446-7.485-11.446-.448 0-1.699-1.125-2.781-2.5-2.304-2.929-2.744-2.965-5.071-.417m30.857 22.499c-.334.87-.607 3.075-.607 4.9 0 1.826-.934 8.651-2.076 15.169-4.431 25.296-5.82 43.349-3.334 43.349.775 0 1.41.47 1.41 1.044 0 .574-.787.911-1.75.75-1.73-.291-4.426 8.363-3.038 9.752 1.739 1.738 11.024-5.315 12.237-9.296.377-1.238 1.105-2.25 1.618-2.25 1.261 0 1.197-17.719-.067-18.5-.55-.34-1-1.723-1-3.073 0-1.35-.556-3.344-1.235-4.432-1.062-1.7-.909-2.206 1.091-3.607 2.03-1.421 2.258-2.219 1.79-6.259-.295-2.546-.539-9.507-.543-15.468-.003-6.803-.442-11.364-1.177-12.25-1.526-1.839-2.568-1.785-3.319.171M0 312c0 .55.337 1 .75 1s.624 41.4.471 92l-.28 92 47.78-.04c45.233-.038 47.619-.129 44.779-1.716-3.433-1.917-16.755-2.052-41-.416l-14 .945-4.587-4.137c-2.879-2.596-5.051-5.626-5.833-8.136-.685-2.2-2.56-5.664-4.167-7.697-3.934-4.977-4.446-6.611-5.896-18.803-.733-6.169-1.929-11.531-2.899-13-1.955-2.961-3.666-7.97-4.613-13.5-.376-2.2-1.129-4.538-1.672-5.196-.556-.672-1.131-10.298-1.315-22-.18-11.442-.603-21.929-.94-23.304-1.67-6.815-2.982-30.628-3.044-55.25C3.503 312.334 3.33 311 1.75 311c-.962 0-1.75.45-1.75 1m461.431 102.112c-.821 1.329 1.376 2.899 3.119 2.23 1.298-.498 8.45 5.225 8.45 6.762 0 .493-1.913.932-4.25.977l-4.25.081 4 1.893c5.074 2.401 11.368 2.696 9.5.445-.685-.825-1.977-1.507-2.872-1.515-1.321-.013-1.367-.181-.243-.893 2.665-1.688-1.603-10.353-4.606-9.352-.603.201-1.389-.108-1.746-.687-.864-1.397-6.23-1.353-7.102.059M341 453.378c0 .757.675 1.937 1.5 2.622 2.412 2.002 1.745 3.213-1.39 2.524-2.789-.612-2.903-.488-3.292 3.591-.35 3.671.028 4.696 2.885 7.806 1.808 1.968 3.29 4.367 3.292 5.329.003.962.735 1.75 1.627 1.75 1.396 0 1.431-.231.25-1.654-.754-.909-1.218-1.697-1.03-1.75.6-.168-2.26-6.067-3.293-6.792-1.643-1.153-.263-1.547 3.693-1.054 2.058.257 3.504.852 3.214 1.322-.804 1.301 3.277 4.928 5.544 4.928 1.111 0 2-.667 2-1.5 0-.825-.477-1.5-1.059-1.5s-.767-.472-.411-1.049c.935-1.512 3.47.828 3.47 3.203 0 1.05.663 2.163 1.474 2.475 1.265.485 1.276.764.072 1.968-1.774 1.774-2.048 1.758-4.038-.232-2.145-2.145-6.525-.079-6.475 3.054.032 2.005.107 1.993 2.034-.321l2-2.403 2.006 2.153c1.103 1.183 2.42 2.152 2.927 2.152.507 0 1.849.995 2.982 2.211 1.565 1.68 2.99 2.143 5.937 1.931 2.133-.154 4.175.201 4.538.789.364.588-.041 1.069-.898 1.069s-1.559.502-1.559 1.117c0 .67.9.875 2.25.513 1.238-.331 2.587-.609 3-.616 1.352-.025.743-2.466-1.25-5.014-1.076-1.375-1.966-3.048-1.978-3.719-.034-1.883 2.717-.386 3.286 1.788.278 1.062 1.027 1.931 1.666 1.931.722 0 .91-.789.499-2.086-.591-1.862-.437-1.965 1.432-.965 1.152.617 2.095 1.525 2.095 2.019 0 .493.945 1.197 2.101 1.564 1.635.519 1.829.922.875 1.817-.927.87-1.338.846-1.684-.099-.543-1.48-4.292-1.699-4.292-.25 0 .55.477 1 1.059 1s.806.41.496.911c-2.193 3.548 47.072.862 50.698-2.764.863-.863.85-1.147-.053-1.147-.66 0-1.2-.689-1.2-1.531 0-.843-.788-1.808-1.75-2.145-.962-.337-3.1-1.817-4.75-3.289-4.953-4.417-8.5-6.353-8.5-4.641 0 2.128-2.25 2.563-4.25.821-1.576-1.373-1.75-1.36-1.75.13 0 2.216-1.299 2.088-3.5-.345-.995-1.1-2.528-2.003-3.405-2.006-.877-.004-2.859-.666-4.404-1.472-1.545-.806-4.02-1.59-5.5-1.743-1.48-.154-2.971-.663-3.314-1.132-.342-.47-1.544-.361-2.669.242-1.515.811-2.148.791-2.437-.077-.222-.665-1.14-.884-2.124-.507-2.099.806-.534 4.695 1.888 4.695 2.283 0 1.721 1.698-.785 2.37-3.465.928-4.097.754-2.824-.781.801-.965.839-1.616.123-2.059-.577-.356-1.065-1.634-1.084-2.839l-.036-2.191-1.254 2.259c-.69 1.242-2.278 2.975-3.528 3.851-2.162 1.514-2.19 1.686-.555 3.491 1.535 1.696 1.547 1.899.113 1.899-.883 0-1.965-.625-2.405-1.389-.44-.763-1.7-1.611-2.8-1.884-1.814-.449-1.791-.506.25-.611 2.545-.131 3.022-1.883.75-2.754-.825-.317-1.5-1.653-1.5-2.969 0-2.479-3.214-3.474-4.5-1.393-.99 1.601-2.341 1.165-3.584-1.156-.981-1.834-.811-2.414 1.135-3.882 2.266-1.709 2.228-1.733-3.882-2.442-4.284-.498-6.169-1.145-6.169-2.118 0-.771-.45-1.402-1-1.402s-1 .45-1 1c0 1.572-2.722 1.167-3.362-.5-.722-1.881-2.638-1.97-2.638-.122m97 10.283c0 .34.788 1.216 1.75 1.947 1.616 1.227 1.621 1.331.057 1.36-.932.018-2.365.991-3.187 2.163-1.587 2.267-1.603 2.264-8.527-1.644-5.255-2.965-9.104-3.278-9.068-.737.034 2.376 7.606 10.25 9.856 10.25.995 0 2.624.9 3.619 2 1.834 2.027 5.5 2.756 5.5 1.094 0-.499.902-.671 2.005-.382 1.103.288 2.566.073 3.25-.479.685-.551 2.754-1.325 4.599-1.72 3.839-.821 12.4-4.431 13.146-5.542.275-.41 2.045-1.605 3.933-2.656 4.385-2.442 4.894-4.002 1.353-4.142-1.532-.061-4.586-.398-6.786-.749-5.836-.93-21.5-1.486-21.5-.763m-109 10.644c-2.475.496-5.85.968-7.5 1.049-2.485.121-3.054.618-3.316 2.896-.304 2.64-.137 2.75 4.191 2.75 2.479 0 4.816.5 5.193 1.11.465.752 3.285.908 8.745.481 8.61-.672 9.251-.869 8.228-2.524-.909-1.471-4.272-1.343-4.838.183-.333.899-.989.724-2.333-.62-1.344-1.344-1.519-2-.62-2.333 1.934-.717 1.476-2.297-.667-2.297-1.054 0-2.066-.359-2.25-.798-.183-.44-2.358-.393-4.833.103" fill="#d3d3d3" fill-rule="evenodd"/></svg>