<svg xmlns="http://www.w3.org/2000/svg" width="500" height="750"><path d="M472.357 1.5c.825.825 2.631 1.5 4.013 1.5 1.381 0 2.79.45 3.13 1 .34.55 1.915 1 3.5 1s3.12.386 3.412.857c.291.472 2.84 1.131 5.665 1.466 2.824.334 5.762 1.129 6.529 1.765 1.161.964 1.394.301 1.394-3.966V0h-14.571c-12.953 0-14.405.167-13.072 1.5M262.495 89.863c-5.339 2.426-13.607 12.567-18.457 22.637-5.373 11.159-8.153 24.062-8.615 40-.931 32.073-3.636 57.452-8.032 75.349-1.403 5.714-2.918 15.173-3.367 21.02-.959 12.507-2.144 16.32-10.452 33.631-5.882 12.257-15.207 27.198-16.295 26.11-.272-.272.485-1.871 1.682-3.552 3.072-4.315 1.707-3.832-6.39 2.263-3.888 2.926-8.916 6.639-11.173 8.25-9.191 6.56-14.864 12.821-14.887 16.429-.012 1.965-5.808 14.938-6.689 14.973-.374.015-.225-1.436.331-3.223 2.428-7.805 2.428-7.484.006-5.345-1.186 1.048-2.157 2.934-2.157 4.191 0 2.699-1.98 4.359-2.044 1.713-.024-.995-.673-.043-1.442 2.115-.769 2.158-1.371 4.183-1.338 4.5.329 3.132-1.776 4.387-2.353 1.404-.178-.922-2.276 2.334-4.673 7.25-5.908 12.118-5.928 12.18-5.78 18.422.123 5.211.257 5.482 2.542 5.16 2.645-.374 5.088-2.37 5.088-4.16 0-1.316 2.886-4.448 3.517-3.817.232.232.147 2.113-.188 4.179-.424 2.61-.929 3.438-1.654 2.713-2.275-2.275-4.73 9.835-2.62 12.925.761 1.115.96.42.775-2.707-.137-2.314.071-4.527.461-4.917.39-.39.709.041.709.957 0 .917.398 1.667.883 1.667 1.249 0 1.967 3.331 1.381 6.4-.571 2.989-1.871 3.405-2.652.85-.294-.962-.289.05.011 2.25.301 2.2 1.26 4.795 2.132 5.768.873.972 2.399 4.074 3.392 6.893.993 2.819 2.461 5.849 3.263 6.732.802.884 3.473 3.857 5.935 6.607 2.462 2.75 6.313 6.35 8.557 8 2.717 1.998 3.999 3.662 3.839 4.984-.337 2.776 5.025 4.366 18.344 5.436 5.917.476 11.182 1.127 11.699 1.447.905.559 2.477 16.412 2.344 23.633-.336 18.146-1.084 37.831-1.551 40.825-.315 2.021-.786 23.022-1.046 46.667-.4 36.318-.702 43.16-1.946 44.069-1.802 1.318-36.166 4.816-37.743 3.842-1.294-.8-.875-16.312 2.188-80.903 2.853-60.177 3.969-80.727 4.521-83.261.451-2.068-3.661-5.517-4.948-4.151-.641.68-6.337 128.995-6.802 153.24-.173 8.986-.707 15.179-1.357 15.719-.951.789-26.601 3.606-50.444 5.541-12.862 1.043-12.802.987-7.931 7.444 2.269 3.008 7.387 10.418 11.374 16.468 6.012 9.122 13.27 18.994 18.534 25.208.563.664 1.023 1.404 1.023 1.644s1.285 1.812 2.856 3.494c1.571 1.682 4.784 6.248 7.14 10.147 2.355 3.899 5.008 7.633 5.894 8.298.885.665 2.477 2.784 3.537 4.709 3.357 6.097 8.352 12.143 8.903 10.774.282-.701.548-.3.591.891.043 1.191.973 3.216 2.066 4.5 1.093 1.284 5.276 6.703 9.295 12.041 12.672 16.828 11.706 16.091 20.058 15.304 8.149-.768 21.152-2.796 50.859-7.931 11.384-1.969 21.902-3.579 23.372-3.579 2.263 0 2.483-.23 1.429-1.5-.86-1.036-.898-1.5-.122-1.5.617 0 1.122.45 1.122 1 0 1.696 1.826 1.103 2.311-.75.435-1.667.463-1.667.573 0 .119 1.788 3.116 2.54 3.116.781 0-.532.675-.709 1.5-.393.877.337 1.506.012 1.515-.781.013-1.139.155-1.138.879.006.706 1.114 2.116 1.159 7.735.249 16.814-2.723 26.529-4.135 35.371-5.14 34.239-3.893 49.258-6.373 50.952-8.414 2.033-2.45-.215-4.656-22.325-21.907-12.17-9.496-28.427-22.177-36.127-28.181-7.7-6.004-18.725-14.77-24.5-19.48-5.775-4.71-16.575-13.267-24-19.016-7.425-5.749-14.4-11.274-15.5-12.279-6.198-5.663-7.217-5.866-21.153-4.226-7.066.832-14.382 1.517-16.259 1.522l-3.412.009.678-56.75c.372-31.212.958-65.879 1.301-77.037.583-18.905.501-20.379-1.202-21.624-2.106-1.54-1.54-1.827 6.047-3.069 7.446-1.219 22.92-10.86 26.12-16.274 7.978-13.497 12.32-24.63 12.88-33.023.25-3.743 1.319-9.486 2.377-12.764 1.897-5.877 1.925-5.906 2.023-2.126.134 5.147 1.768 4.4 5.538-2.534 2.948-5.423 2.993-5.71 1.794-11.431-.677-3.227-1.643-6.005-2.146-6.173-.552-.184-.549-1.572.009-3.5 2.492-8.619 7.856-36.695 7.323-38.332-.442-1.357-.348-1.502.347-.532.706.986 1.118.502 1.594-1.875.869-4.347.692-5.881-.4-3.456-1.468 3.264-.012-10.485 1.589-15 .78-2.2 2.094-6.925 2.92-10.5l1.501-6.5-.487 6.419c-.268 3.53-.299 6.23-.069 6 1.458-1.462 4.448-17.222 4.159-21.919-.309-4.997-.266-5.134.469-1.5.595 2.946.722 1.759.481-4.5-.243-6.293-.117-7.462.486-4.5.608 2.991.773 1.541.653-5.751-.089-5.363-.073-9.75.034-9.75.108.001 1.867 3.182 3.91 7.069 3.378 6.429 4.593 7.691 13.429 13.956 15.591 11.054 21.924 13.403 38.966 14.455 11.616.717 24.675-1.94 41-8.344 4.125-1.618 9.975-3.915 13-5.105 16.083-6.328 35.364-17.952 48.25-29.087 7.012-6.06 12.75-11.66 12.75-12.445 0-.785.9-1.909 2-2.498 7.962-4.261-2.5-11.877-62.5-45.495-11.55-6.471-25.741-14.578-31.536-18.015-5.794-3.437-13.798-7.892-17.785-9.9-4.212-2.121-7.679-4.593-8.274-5.899-.563-1.237-3.604-4.38-6.756-6.985-3.152-2.604-7.512-7.259-9.69-10.344-14.621-20.714-17.376-23.576-27.459-28.524-14.063-6.902-24.684-8.528-32.505-4.975m23.873 54.416l-2.132 1.873 2.414 2.605c1.328 1.432 2.348 3.311 2.267 4.174-.081.863-.081 2.694 0 4.069.142 2.417.195 2.436 1.615.559.807-1.068 1.507-2.868 1.554-4 .062-1.495.334-1.238.991.941.498 1.65.797 5.545.664 8.655-.136 3.187.154 5.41.665 5.094.519-.321.633.896.268 2.846-.61 3.254-.568 3.316.965 1.405 1.535-1.913 1.577-1.853.983 1.375-.342 1.856-.622 4.02-.622 4.809 0 .789-.45 1.156-1 .816-.55-.34-1 .084-1 .941s-.388 1.559-.861 1.559c-.474 0-.661 1.05-.416 2.333.246 1.284 1.113 2.334 1.928 2.334 1.004 0 1.313-.675.957-2.092-.289-1.15-.156-2.688.294-3.417 1.384-2.239 2.12 1.278 1.049 5.012-.893 3.116-.368 7.581.759 6.453.585-.585 3.718 2.26 3.915 3.556.069.451.217 1.608.329 2.571.127 1.094.393 1.282.708.5.999-2.476 3.077-1.338 2.554 1.399-.322 1.685-.128 2.415.534 2.005.572-.353 1.295.022 1.607.834.851 2.217 5.23.303 4.851-2.122-.221-1.415-.07-1.538.625-.509 1.218 1.802 2.297-.038 1.116-1.905-.505-.798-.94-1.002-.965-.452-.026.55-.708.126-1.516-.941-1.28-1.693-1.468-1.725-1.468-.25 0 .93-.478 1.691-1.062 1.691-.87 0-.543-7.214.337-7.442.124-.032 1.192-.596 2.373-1.253 1.844-1.026 2.22-.92 2.656.75.28 1.07.074 1.945-.457 1.945s-.657.498-.281 1.107c.477.771.944.696 1.544-.25.774-1.222 1.302-.515 1.018 1.365-.06.397.965.313 2.279-.186 1.313-.5 2.731-.6 3.151-.222.419.377.439.124.043-.564-.395-.687-.212-1.25.407-1.25.656 0 .872.802.518 1.919-.423 1.332-.061 2.061 1.182 2.384 1.074.279.611.511-1.158.581-2.108.083-2.642.424-1.873 1.193.673.673.788 2.363.306 4.5-.425 1.883-.439 3.423-.031 3.423.409 0 1.231 1.012 1.828 2.25.901 1.87 1.096 1.944 1.152.441.042-1.104.518-1.531 1.223-1.096.715.443.883.275.44-.44-.392-.635-.299-1.155.207-1.155.507 0 .719-1.054.473-2.342-.264-1.382.251-3.042 1.258-4.048.938-.938 1.402-2.008 1.032-2.379-.371-.37-1.127-.011-1.68.798-.715 1.045-.807.467-.319-1.996.976-4.915 2.538-7.002 5.084-6.791 1.213.1 1.957.585 1.653 1.077-.31.501.437.581 1.697.181 1.674-.531 2.051-.391 1.471.547-.434.703-.374 1.011.136.696.503-.311 1.784.069 2.845.846 1.062.776 1.394 1.411.739 1.411-.655 0-1.191.477-1.191 1.059s.419.8.931.484c1.634-1.01 2.144 1.239.626 2.757-.804.804-1.183 1.74-.843 2.081.927.926-1.011.717-2.584-.279-1.106-.701-1.011-1.069.492-1.91 1.024-.573 1.538-1.365 1.144-1.759-.395-.395-1.375-.173-2.178.494-1.131.939-1.96.944-3.676.026-1.919-1.027-2.13-.962-1.575.483.352.917.308 1.477-.098 1.244-.407-.233-1.605.418-2.664 1.448-1.9 1.848-1.9 1.873 0 1.951 1.059.043 1.363.306.675.583-1.366.552-1.742 3.338-.45 3.338.44 0 1.406-.562 2.147-1.25 1.102-1.022 1.231-.919.706.565-.505 1.432-.249 1.692 1.212 1.228 2.587-.821 4.854 1.951 2.411 2.948-1.661.677-1.652.77.151 1.441 1.722.642 1.749.787.25 1.362-.955.366-1.677.16-1.677-.478 0-.617-.84-.153-1.867 1.031-1.027 1.184-2.49 2.169-3.25 2.188-.761.02-.318.627.984 1.348 2.039 1.131 2.134 1.403.687 1.958-.924.355-1.396 1.105-1.048 1.668.348.563 1.051.765 1.563.448.512-.316.931.141.931 1.015 0 .875.672 1.849 1.494 2.164.822.316 1.239.988.926 1.494-.313.506-.198.83.256.72 1.291-.312 6.324 2.369 6.324 3.37 0 .494-.508.584-1.13.2-.688-.425-.942-.155-.651.691.307.89 1.612 1.276 3.63 1.075 1.757-.175 3.151.157 3.151.75 0 1.678 3.719 1.24 4.393-.518 1.26-3.284.684-5.318-1.393-4.918-3.091.595-2.412-2.168.75-3.054 1.512-.425 3.216-.701 3.786-.614.569.086 1.035-.74 1.035-1.837 0-2.403-.458-2.463-3.348-.438-1.223.856-2.223 1.22-2.223.809 0-.412-.605.079-1.344 1.089-1.229 1.682-1.351 1.564-1.435-1.391-.066-2.326.286-3.083 1.261-2.709 2.214.849 2.486-1.894.321-3.246-1.099-.686-1.787-1.458-1.53-1.716.768-.768 5.726 1.837 5.742 3.018.009.599.418.454.91-.323.58-.916.399-1.907-.516-2.822-.775-.775-1.409-2.277-1.409-3.337 0-1.133-.723-1.97-1.75-2.029-1.167-.066-.917-.366.75-.9 2.154-.69 2.223-.831.5-1.019-1.1-.12-2.324-.169-2.72-.109-.396.059-1.206-.8-1.8-1.91-.594-1.11-1.515-1.749-2.046-1.421-.532.328-.708 1.016-.391 1.528.316.512.104.931-.473.931-.576 0-.954-1.125-.841-2.5.114-1.375.811-2.5 1.548-2.5.738 0 1.061-.453.719-1.007-.791-1.279 2.01-2.397 4.047-1.615 1.18.453 1.304 1.04.524 2.497-1.356 2.533 1.786 3.475 4.512 1.352 1.886-1.469 1.885-1.484-.049-.809-1.083.378-1.641.36-1.24-.041 1.078-1.079-3.337-5.377-5.523-5.377-1.037 0-1.605-.453-1.263-1.007.343-.554-.193-1.309-1.191-1.677-.997-.369-2.144-1.153-2.548-1.743-.486-.71-.74-.63-.75.236-.008.72-.465 1.031-1.015.691-1.865-1.152-1.096-3.338.982-2.794 1.471.384 2.242-.166 2.991-2.134 1.027-2.702 3.756-2.438 5.596.54.475.767.929.7 1.499-.222.45-.727.371-1.86-.174-2.517-1.927-2.322.657-2.156 3.418.219 1.54 1.324 2.437 2.426 1.994 2.448-.443.022.465.729 2.019 1.571 2.775 1.504 2.817 1.662 2.426 9.009-.296 5.58-.053 7.671.958 8.237 1.86 1.041 2.814 9.138 1.079 9.158-.911.011-.851.292.204.959 1.188.751 1.238 1.196.25 2.184-1.762 1.762-1.538 2.893.422 2.141 1.119-.43 1.427-.256.941.531-.452.732-.032 1.17 1.123 1.17 1.913 0 2.901-3.493 1.273-4.499-.48-.297.248-1.659 1.617-3.028 1.372-1.372 2.172-3.004 1.781-3.636-.389-.63-.283-.883.237-.562.524.324 1.015-1.179 1.102-3.373.106-2.659-.203-3.732-.944-3.274-.661.408-.82.223-.397-.462.458-.74.159-.933-.845-.548-.854.328-1.552.998-1.552 1.489 0 .491-.477.893-1.059.893s-.762-.48-.4-1.066c.362-.587.669-2.724.682-4.75.018-2.866.202-3.24.83-1.684l.806 2 .141-2c.116-1.646.261-1.716.82-.393.374.884 1.511 1.48 2.527 1.324 1.414-.216 1.723.193 1.318 1.742-.44 1.684-.162 1.926 1.653 1.44 1.2-.322 2.505-.592 2.901-.599.395-.008.477-.643.181-1.413-.295-.769-.056-1.696.532-2.059.587-.363 1.075-.071 1.083.649.011.95.279.898.977-.191.53-.825.746-2.199.48-3.052-.265-.854.232-2.429 1.105-3.5 1.35-1.657 1.504-1.687 1.036-.198-.303.963-.141 1.75.359 1.75 1.423 0 2.174-1.792 1.044-2.49-.559-.345-1.016-1.694-1.016-2.998 0-2.27-2.3-5.512-3.911-5.512-.422 0-1.307 1.183-1.966 2.629-1.46 3.206-2.515 2.605-1.281-.73.752-2.033.419-2.712-2.229-4.537l-3.113-2.147-1.307 2.142c-1.273 2.086-1.293 2.075-.78-.413.471-2.283-.061-2.845-4.965-5.25-6.163-3.023-8.337-3.47-6.579-1.352.612.738.818 1.638.456 2-.362.362-.133.658.508.658.642 0 1.167.675 1.167 1.5s-.45 1.5-1 1.5-1-.461-1-1.025c0-.563-1.125-1.452-2.5-1.975-1.375-.523-2.5-1.438-2.5-2.034 0-.596.403-.835.895-.531.493.305 1.16-.136 1.483-.979.339-.882-.04-1.728-.895-1.994a63.915 63.915 0 0 1-3.233-1.134c-2.536-.973-6.198-1.054-5.624-.124.733 1.185-.388.971-3.597-.689-1.58-.817-3.059-1.154-3.287-.75-.228.404-.268.149-.09-.567.189-.755-.151-1.008-.808-.601-.767.473-.982-.094-.665-1.751.257-1.349-.127-3.008-.855-3.688-.728-.68-1.338-.882-1.356-.447-.017.434-.589.114-1.27-.711-2.795-3.386-5.32-4.001-7.622-1.856-1.412 1.316-1.95 2.679-1.551 3.935.335 1.056.159 1.921-.391 1.921-.551 0-1.144 1.197-1.318 2.661-.396 3.332-3.448 4.011-4.474.995-.404-1.186-.608-2.831-.454-3.656.212-1.137-.007-1.222-.904-.35-2.617 2.543-8.145-6.962-6.006-10.326 1.053-1.657 1.116-1.617.684.427-.261 1.239-.067 2 .431 1.691.499-.308.939.029.977.749.039.72.457.409.93-.691.735-1.71.87-1.746.93-.25.038.963.487 1.75.997 1.75.509 0 1.132.787 1.384 1.75.357 1.366.482 1.274.573-.417.064-1.191-.446-2.367-1.134-2.613-.727-.259-.879-.817-.363-1.333s1.074-.364 1.333.363c.686 1.922 4.085 1.482 5.241-.678 1.539-2.874.393-4.588-2.972-4.447-6.85.286-6.946.319-6.31 2.125.502 1.429.368 1.52-.732.5-1.504-1.396-5.363-1.733-4.538-.397.291.47.105 2.157-.412 3.75-.517 1.594-1.2 4.188-1.517 5.765-.318 1.577-.855 2.591-1.194 2.252-1.023-1.023-1.225-5.7-.22-5.079.514.317.934.127.934-.423s-.45-1.278-1-1.618c-1.599-.988-1.232-4.803.401-4.176.834.32 1.607-.245 1.907-1.393.315-1.204 1.373-1.931 2.813-1.931 4.14 0-.347-3.174-5.277-3.733-2.389-.27-4.704-1.116-5.144-1.879-1.059-1.839-3.7-1.781-3.7.081 0 .832.593 1.241 1.369.943.812-.312 1.587.312 1.906 1.533.296 1.132.136 1.809-.357 1.504-.492-.304-.659.061-.371.812.288.751-.412 2.211-1.555 3.246l-2.078 1.88.651-4.068c.613-3.832-.644-6.619-1.997-4.429-.752 1.217-4.377.236-4.764-1.289-.203-.797-1.014-.571-2.436.678m-39.464 28.471c-.576 1.512-.821 5.675-.546 9.25 1.538 19.942 4.539 31.944 4.627 18.5.047-7.24 1.175-11.13 2.344-8.084.335.871 1.072 1.584 1.64 1.584 1.648 0 1.194-3.993-.841-7.382-2.767-4.61-3.533-8.618-1.647-8.618 2.733 0 1.906-5.502-1.028-6.839-3.394-1.547-3.35-1.562-4.549 1.589m139.698 21.846c-.335.871-.429 1.881-.21 2.244.392.651-2.363 3.66-3.351 3.66-.28 0-.383.9-.23 2 .213 1.526.056 1.672-.659.615-.752-1.112-1.174-.943-2.137.857-.868 1.622-.898 2.545-.108 3.335.791.791 1.093.758 1.093-.115 0-.944.423-.945 1.93-.004 1.439.899 1.693 1.647 1 2.943-1.207 2.256-1.181 3.142.07 2.369.55-.34 1 .257 1 1.327 0 2.04 5.157 3.612 6.727 2.051.425-.423 1.732.309 2.904 1.628 1.173 1.319 1.885 2.644 1.584 2.946-.302.301.247.548 1.218.548.972 0 3.342-1.575 5.267-3.5 3.959-3.959 4.519-4.235 3.569-1.759-.514 1.339.058 1.166 2.476-.75 3.547-2.81 3.921-3.798 1.755-4.629-1.783-.685-2.022-3.362-.3-3.362.875 0 .901-.299.096-1.104-1.198-1.198-4.157-.073-4.15 1.579.002.536-.551 1.16-1.23 1.386-.731.244-1.005-.154-.671-.975.31-.762.859-2.12 1.22-3.017.486-1.204-.162-1.916-2.479-2.724-1.724-.601-4.486-2.23-6.138-3.619-3.439-2.894-5.35-3.276-4.433-.886.396 1.031-.122 2.167-1.393 3.057-2.111 1.479-2.895 3.961-.852 2.698.825-.51.937-.159.381 1.191-.434 1.053-.811 2.444-.837 3.091-.026.647-.908 1.402-1.96 1.677-1.399.366-1.757.095-1.333-1.009.318-.83.579-1.948.579-2.486 0-.537.385-.739.856-.448.47.291.653-.53.405-1.824-.247-1.294.043-2.657.645-3.029.602-.372 1.094-1.549 1.094-2.617s.525-1.941 1.167-1.941c1.192 0 .21-1.488-1-1.515-.367-.009-1.182-.344-1.812-.745-.645-.41-1.411-.036-1.753.856M243.9 201.75c-.079 3.782-.254 4.24-.859 2.25l-.76-2.5-.998 2.5c-.548 1.375-1.298 7.225-1.667 13-.595 9.339-3.584 23.764-6.445 31.114-.56 1.437-1.301 5.232-1.646 8.432-.346 3.2-2.138 10.799-3.984 16.886-3.041 10.033-3.948 12.644-6.623 19.068-2.287 5.495-1.694 7.024 2.582 6.65 4.355-.381 9.5-2.922 9.5-4.691 0-1.655 4.703-5.761 5.813-5.075 1.998 1.236 5.149-7.814 5.877-16.884.177-2.2.742-6.25 1.256-9s.962-8.623.994-13.05c.033-4.428.517-8.507 1.075-9.065 1.032-1.032-1.415-7.385-2.844-7.385-.824 0-2.711-4.388-3.643-8.473-.642-2.816-.582-2.888 1.147-1.361 1.004.886 3.4 1.943 5.325 2.348 3.366.708 3.436.664 1.838-1.139-1.134-1.279-1.825-4.419-2.175-9.875-.495-7.718-2.387-18.5-3.246-18.5-.229 0-.462 2.137-.517 4.75m175.434 10.677c.301.785-.101 1.965-.893 2.622-1.006.835-1.441.861-1.441.085 0-1.485-4.343-1.063-5.868.57-.666.713-.99 1.296-.721 1.296s-1.114 1.558-3.075 3.462l-3.566 3.463 3.865-.323c2.783-.232 4.141-.921 4.852-2.462 1.354-2.935 2.682-2.715 1.552.257-1.044 2.747-.495 3.715 1.643 2.895 1.219-.468 1.246-.742.152-1.525-.975-.698-.833-.793.527-.35 1.549.504 1.763.212 1.273-1.739-.633-2.52-.03-2.8 6.075-2.817l3.21-.009-3.426-3.426c-3.648-3.648-5.051-4.322-4.159-1.999M259.25 258.662c-.687.278-1.25 1.142-1.25 1.921 0 .78-.9 2.317-2 3.417-1.1 1.1-2 2.906-2 4.014 0 1.107-.45 2.907-1 4l-1.984 3.946c-1.224 2.439-.389 4.77 2.204 6.158 1.671.894 2.435.534 4.842-2.278 1.571-1.837 2.878-3.79 2.904-4.34.025-.55.747-2.343 1.603-3.985 1.416-2.716 1.407-3.461-.099-8.25-.911-2.896-1.727-5.229-1.813-5.186-.086.043-.719.306-1.407.583" fill="#d3d3d3" fill-rule="evenodd"/></svg>