<svg xmlns="http://www.w3.org/2000/svg" width="500" height="333"><path d="M171.681 13.75c-.241.412-.757 4.249-1.147 8.525-.609 6.677-.431 8.31 1.26 11.555 2.893 5.549 4.745 25.134 4.497 47.545-.114 10.382-.426 19.093-.692 19.359-1.082 1.082-6.762-4.165-9.255-8.549-5.941-10.448-12.66-15.226-18.638-13.253-6.141 2.027-8.012 12.026-3.102 16.577 2.978 2.76 10.246 6.491 12.644 6.491 1.869 0 5.343 4.527 6.899 8.992.946 2.713.733 3.574-1.786 7.209-2.772 4.001-2.851 4.456-2.545 14.714.368 12.345.351 12.341-7.074-1.915-3.008-5.775-6.957-13.166-8.775-16.425-3.55-6.361-8.456-25.622-9.561-37.537-.334-3.596-1.478-9.567-2.543-13.27-1.382-4.802-1.75-8.14-1.285-11.645C131.35 46.307 128.75 37 126.354 37c-2.909 0-5.354 2.077-5.354 4.549 0 1.363-.502 3.282-1.115 4.264-.894 1.431-.476 3.054 2.104 8.166 1.954 3.871 3.748 9.553 4.561 14.45.737 4.439 1.842 10.546 2.456 13.571 1.228 6.049 1.584 25.566.527 28.897-.367 1.157-1.224 2.103-1.904 2.103-1.547 0-6.781-5.5-9.085-9.546-4.2-7.377-14.606-10.733-18.385-5.929-5.277 6.709-.299 13.896 11.799 17.034 9.346 2.424 10.665 4.905 8.116 15.268-.721 2.93-1.037 6.98-.702 9 .335 2.02.105 8.623-.51 14.673-1.075 10.566-1.355 11.453-7.101 22.5-4.372 8.404-7.366 12.794-11.122 16.306-2.949 2.758-4.644 5.019-3.976 5.304.855.367.79 1.211-.244 3.194-2.22 4.255-.778 7.196 3.528 7.196 1.255 0 7.411-9.343 8.556-12.986.43-1.367 1.999-4.067 3.486-6 7.563-9.824 13.88-23.285 14.941-31.837.568-4.577 1.523-10.147 2.124-12.376l1.091-4.053 3.317 3.215c6.088 5.901 8.498 11.748 8.934 21.679.215 4.872.71 10.89 1.101 13.373.696 4.425.633 4.565-3.132 7.002-4.075 2.637-8.35 11.975-7.042 15.383 1.09 2.839 5.308 1.871 8.447-1.938l2.916-3.537 2.769 14.025c1.523 7.714 2.526 14.657 2.23 15.428-.296.772-.188 8.54.239 17.263.795 16.211-.112 30.676-2.073 33.038-.85 1.025-6.511 1.335-25.223 1.385l-24.128.063-7.25 8.476c-4.542 5.31-7.25 9.353-7.25 10.827v2.351l19.25.595c46.127 1.426 248.15 4.612 293 4.62L415 304v-2.322c0-1.785-2.485-4.184-10.75-10.382C389.804 280.465 391.394 281 373.673 281c-13.174 0-15.549-.234-16.066-1.582-1.112-2.898-.626-14.147.954-22.08.859-4.311 2.159-13.238 2.889-19.838.731-6.6 2.484-16.95 3.896-23 6.519-27.933 5.539-43.067-4.238-65.461-1.571-3.596-3.543-8.789-4.383-11.539-2.374-7.771-8.257-23.404-11.167-29.673-1.449-3.12-2.861-8.07-3.139-11-.278-2.93-1.149-9.152-1.935-13.827-2.068-12.302-3.854-30.861-3.415-35.5.978-10.344.451-17.271-1.474-19.397-3.592-3.966-7.595-1.715-7.595 4.272 0 1.379-.45 2.785-1 3.125-1.561.965-1.139 5.597.925 10.142 3.531 7.777 3.859 48.912.48 60.179-.568 1.893-6.242-2.318-7.674-5.694-1.888-4.451-8.088-12.231-10.931-13.716-3.885-2.03-6.239-1.754-9.67 1.133l-3.023 2.544-.554-3.294c-.304-1.812-.994-7.794-1.533-13.294-.539-5.5-1.412-11.477-1.939-13.281-.528-1.805-.72-6.305-.428-10 .705-8.923-1.18-14.836-4.606-14.451-3.455.389-5.047 2.078-5.047 5.354 0 1.583-.45 2.878-1 2.878-1.691 0-1.127 2.763 1.947 9.544 5.863 12.93 8.358 53.076 3.742 60.209-1.292 1.996-4.059-.097-8.023-6.069-5.991-9.025-13.685-13.747-18.888-11.592-5.046 2.09-6.439 8.527-2.836 13.107 2.607 3.314 14.036 8.881 16.766 8.167 3.262-.853 5.661 3.474 4.917 8.871-.324 2.345-1.029 10.788-1.569 18.763-1.342 19.85-1.802 22.466-4.895 27.83-1.481 2.569-3.576 6.358-4.654 8.42-2.724 5.207-3.174 4.795-3.964-3.633-.846-9.03-5.156-21.831-9.985-29.653-1.981-3.21-4.208-7.556-4.95-9.657-.741-2.102-5.422-12.143-10.401-22.314S229.854 95.7 229.488 93.5c-.366-2.2-1.707-7.6-2.98-12s-2.822-11.043-3.443-14.761c-.62-3.719-1.976-9.489-3.014-12.822-1.424-4.575-1.754-7.82-1.347-13.239.633-8.413-.98-13.422-5.015-15.579-6.231-3.33-8.619 9.09-3.73 19.401 1.571 3.312 3.133 8.688 3.488 12 .354 3.3 1.369 9.6 2.257 14 1.022 5.066 1.619 13.135 1.627 22 .014 16.137-.786 17.178-7.314 9.517C200.225 90.526 196.319 87 193.38 87c-3.332 0-4.536-4.038-8.453-28.362-1.051-6.524-2.386-13.629-2.968-15.789-.632-2.347-.786-7.272-.382-12.242C182.565 18.424 180.27 13 174.125 13c-1.104 0-2.204.338-2.444.75m128.605 92.627c.302 1.857 1.422 5.12 2.49 7.25 2.808 5.6 8.639 15.292 9.224 15.332.275.018 1.343-2.017 2.374-4.522 3.092-7.52.453-17.428-4.647-17.444-1.225-.003-3.577-.9-5.227-1.993-4.149-2.748-4.846-2.52-4.214 1.377M173.67 137.734c-.793 1.299-2.812 9.402-3.626 14.553-.62 3.921-.387 5.697 1.17 8.919 1.971 4.08 2.642 15.029 1.401 22.865a4916.682 4916.682 0 0 1-3.028 18.429c-1.366 8.25-2.98 21.975-3.587 30.5-.606 8.525-1.497 20.225-1.98 26-.484 5.775-.625 12.413-.314 14.75l.566 4.25h15.305c9.133 0 15.554-.404 15.923-1.001.341-.55.652-11.688.692-24.75.063-20.526-.209-25.038-2.008-33.249-1.144-5.225-2.216-10.625-2.382-12-.258-2.133-.816-2.5-3.802-2.5-3.717 0-5.513-3.387-3.085-5.815.597-.597 1.085-2.197 1.085-3.556s.727-3.275 1.616-4.258c1.486-1.642 1.488-2.656.023-12.578a1493.755 1493.755 0 0 1-2.646-18.782c-1.229-9.332-9.366-24.983-11.323-21.777m43.366 7.131c-.973 3.615-.898 5.022.447 8.384 6.95 17.369 6.972 39.633.071 70.751-.793 3.575-1.703 10.662-2.022 15.75-.608 9.684-2.087 22.751-3.123 27.592-.335 1.563-.311 4.826.053 7.25l.661 4.408h28.689l.709-5.153c1.738-12.637.901-46.021-1.402-55.896-4.768-20.451-6.129-26.682-7.085-32.451-.546-3.3-1.901-10.5-3.011-16-1.109-5.5-2.018-10.935-2.02-12.079-.003-2.05-3.629-8.077-8.368-13.911l-2.429-2.989-1.17 4.344m108.521-2.615c-.21.688-.82 2.633-1.356 4.324-.794 2.506-.617 3.523.959 5.5 1.063 1.334 3.521 5.739 5.461 9.788 5.145 10.738 4.904 18.307-1.577 49.638-1.593 7.7-3.401 18.95-4.018 25-.617 6.05-1.532 14.375-2.032 18.5s-1.127 11.384-1.394 16.131l-.486 8.632 3.693.508c2.031.28 5.974.577 8.762.66l5.068.151 1.28-5.291c.703-2.91 1.64-11.816 2.082-19.791.441-7.975 1.319-16.789 1.95-19.587.851-3.775.861-6.743.037-11.5-.611-3.527-1.543-10.013-2.072-14.413-.528-4.4-1.608-11.825-2.399-16.5-1.271-7.506-2.317-16.35-4.121-34.834-.604-6.19-.925-7.065-4.915-13.384-3.063-4.852-4.259-5.71-4.922-3.532m-36.942 3.5c-.539 1.815-3.052 14.99-4.089 21.436-.326 2.028-2.063 5.853-3.859 8.5-1.796 2.648-4.54 7.064-6.097 9.814-1.557 2.75-4.032 6.35-5.499 8-3.194 3.59-4.712 7.932-5.594 16-.36 3.3-1.114 7.8-1.675 10-.561 2.2-.964 7.825-.896 12.5.068 4.675-.518 13.675-1.301 20-1.489 12.031-.962 24.043 1.148 26.153.767.767 8.643 1.307 23.698 1.624l22.549.475.125-5.376c.719-30.833.308-49.261-1.335-59.876-.979-6.325-1.835-14.2-1.903-17.5-.068-3.3-.415-7.35-.772-9l-.648-3-3.809 6.255c-4.331 7.112-6.652 8.854-9.658 7.245-2.34-1.252-2.521-2.794-.649-5.527.743-1.085 1.651-3.21 2.019-4.722.426-1.753 2.201-3.709 4.899-5.396 5.669-3.545 6.017-4.356 6.12-14.284.098-9.327-1.383-13.487-7.587-21.321-3.297-4.163-4.416-4.595-5.187-2m210.606 50.75c-.138 1.1-.947 4.003-1.8 6.451-.852 2.447-1.338 5.26-1.079 6.25.259.989.112 1.799-.327 1.799s-1.066 1.065-1.392 2.367c-1.692 6.739-12.903 11.827-14.065 6.383l-.903-4.25c-.311-1.47-.454-1.287-.539.691-.17 3.933-1.803 4.315-3.599.842-.863-1.668-2.062-3.033-2.665-3.033-.779 0-.789.372-.032 1.284.676.813.726 1.82.138 2.75-.63.996-.932 1.065-.943.216-.008-.687-.889-1.25-1.958-1.25-1.303 0-1.839.576-1.628 1.75.173.963.633 3.943 1.022 6.624 1.467 10.093 8.408 27.158 11.69 28.742 1.822.879 18.09 3.986 18.536 3.54.194-.193.226-14.483.073-31.754-.154-17.271-.392-30.502-.529-29.402" fill="#d3d3d3" fill-rule="evenodd"/></svg>