<svg xmlns="http://www.w3.org/2000/svg" width="500" height="215"><path d="M69.5 1.96c-18.762 3.288-31.396 9.871-45.086 23.494C8.913 40.879 1.5 57.942.289 80.981-.428 94.64 3.838 112.186 10.75 124c3.618 6.184 3.985 6.498 7.527 6.45 2.048-.027 11.935-.142 21.973-.255l18.25-.205-3.7-2.245c-5.476-3.322-12.687-10.536-16.523-16.529-9.789-15.294-10.089-38.77-.695-54.32 27.785-45.992 97.84-26.943 97.837 26.604-.002 18.429-8.415 34.153-23.365 43.67l-4.446 2.83h44.367l2.573-4.077c14.085-22.31 15.016-56.961 2.176-80.923-9.027-16.845-26.843-32.728-43.853-39.094-5.644-2.113-26.099-5.98-30.687-5.802C80.708.161 75 .996 69.5 1.96m109.315-.71c-.22.688-.223 29.938-.009 65l.391 63.75H209l.004-43.25c.004-48.881-.349-46.59 8.113-52.72 6.841-4.956 18.481-3.689 24.012 2.614C245.998 42.19 246 42.213 246 87.45V130h29.902l.299-43.415.299-43.416 3-4.231c7.723-10.892 23.956-10.759 31.249.257l2.751 4.155.5 43.075.5 43.075 14.75.277 14.75.276V86.421c0-48.561-.274-51.139-6.54-61.475C328.564 10.27 311.367.084 295.377.017c-9.864-.041-24.877 5.537-31.537 11.716l-2.659 2.468-5.341-3.977C243.785 1.245 237.597 0 205.026 0c-19.77 0-25.905.293-26.211 1.25M357 65v65h29.949l.276-15.75.275-15.75 11.955-.284 11.956-.283 16.076 16.054 16.077 16.055 20.968-.271 20.968-.271-15.423-15.715c-9.996-10.184-14.923-15.874-14-16.168.783-.249 3.334-.671 5.67-.939 16.17-1.853 34.086-19.786 37.403-37.438 4.923-26.192-9.828-49.939-35.838-57.693C458.929.24 450.282 0 407.562 0H357v65m34.728-34.296l-4.773.407.273 18.195.272 18.194 31.5.308c20.242.198 33.322-.084 36.599-.788 16.914-3.635 19.449-26.288 3.901-34.865-2.938-1.621-53.187-2.697-67.772-1.451M13.445 166.284c-.271.706-.37 9.368-.219 19.25L13.5 203.5l3.75.31 3.75.311V165h-3.531c-1.952 0-3.752.574-4.024 1.284m90.01 1.171c-1.683 1.683-2.455 3.569-2.455 6 0 2.484-.449 3.545-1.5 3.545-.933 0-1.5.944-1.5 2.5s.567 2.5 1.5 2.5c1.242 0 1.5 1.889 1.5 11v11h6.932l.284-10.707c.278-10.498.333-10.718 2.784-11.295 3.231-.76 3.454-4.362.297-4.811-3.951-.563-4.229-6.187-.305-6.187 1.956 0 3.591-3.247 2.514-4.991-1.241-2.007-7.498-1.107-10.051 1.446M60.5 175.984c-1.1.437-4.151.555-6.779.262l-4.779-.531.279 13.892.279 13.893 3.25.313 3.25.314v-9.492C56 184.382 57.013 182 61.371 182c3.94 0 4.629 1.817 4.629 12.2v9.8h7v-10.435c0-11.168-.844-14.899-3.702-16.366-3.009-1.544-6.69-2.052-8.798-1.215m83.594.362c-5.466 1.851-7.594 5.641-7.594 13.521 0 7.96 1.881 11.559 7.205 13.783 9.208 3.847 17.295-2.58 17.295-13.747 0-10.522-7.681-16.681-16.906-13.557m48.201-.228c-4.978 1.423-6.295 4.181-6.295 13.181 0 7.348.189 8.043 2.923 10.778 3.099 3.099 7.49 3.843 11.143 1.888 1.712-.917 1.934-.692 1.934 1.965 0 3.914-2.845 5.47-8.46 4.628-3.215-.482-4.549-.253-5.55.954-2.441 2.942 1.098 4.988 8.628 4.988 6.129 0 6.732-.208 9.464-3.266l2.918-3.266v-14.402c0-7.921.284-15.143.632-16.049.545-1.42-.107-1.611-4.75-1.391-2.96.14-6.282-.01-7.382-.335-1.1-.324-3.442-.178-5.205.327m52.15-.01c-9.916 2.753-11.886 22.107-2.748 26.997 4.991 2.672 17.303.932 17.303-2.445 0-2.866-3.088-4.496-5.819-3.071-4.639 2.42-10.181.457-10.181-3.607 0-1.705.914-1.934 8.75-2.193l8.75-.289-.219-3.739c-.537-9.182-7.166-14.06-15.836-11.653m55.191-.411c-.363.363-3.355.586-6.648.495l-5.988-.165V204h7v-9.878c0-11.044.873-12.797 5.876-11.797 3.166.633 8.402-3.523 6.561-5.209-1.339-1.225-6.018-2.202-6.801-1.419m35.485.305c-7.89 1.863-5.273 6.498 3.668 6.498 5.161 0 5.742.217 6.031 2.25.293 2.066-.075 2.25-4.5 2.254-7.591.006-11.32 2.8-11.32 8.481 0 7.421 7.593 11.978 13.504 8.104 1.373-.899 2.496-1.175 2.496-.612 0 .563 1.575 1.023 3.5 1.023h3.5v-11.389c0-13.127-.892-15.105-7.5-16.636-4.559-1.057-4.789-1.056-9.379.027m55.879-.017c-1.375.405-4.637.511-7.25.236l-4.75-.5V204h7v-8.777c0-9.688 1.432-13.223 5.357-13.223 3.955 0 4.643 1.808 4.643 12.2v9.8h7v-11.444c0-10.474-.191-11.653-2.25-13.901-2.549-2.784-6.08-3.75-9.75-2.67m47.209.039c-6.575 1.479-9.815 7.321-8.965 16.167 1.028 10.698 12.152 16.365 20.187 10.285 1.892-1.432 1.883-1.513-.437-3.982-1.599-1.702-2.696-2.192-3.381-1.507-3.658 3.658-9.613-.67-9.613-6.987 0-5.854 2.42-8.314 7.438-7.562 5.368.805 8.874-1.989 5.82-4.638-2.27-1.969-6.889-2.712-11.049-1.776m43.826.271c-5.735 1.994-8.282 6.858-7.838 14.969.508 9.287 4.013 13.102 12.113 13.182 8.579.086 12.889-3.152 8.94-6.715-1.526-1.376-1.999-1.396-3.691-.155-3.807 2.792-10.559.469-10.559-3.633 0-1.78.754-1.943 9-1.943h9v-3.032c0-9.628-8.17-15.73-16.965-12.673M145.2 183.2c-.66.66-1.2 3.72-1.2 6.8 0 7.864 4.72 11.093 8.443 5.777 4.646-6.632-1.871-17.949-7.243-12.577m49 0c-1.305 1.305-1.624 9.637-.435 11.373 1.237 1.806 4.277 2.475 6.307 1.388 1.529-.818 1.928-2.121 1.928-6.296 0-5.661-1.176-7.665-4.5-7.665-1.155 0-2.64.54-3.3 1.2" fill="#d3d3d3" fill-rule="evenodd"/></svg>