<svg xmlns="http://www.w3.org/2000/svg" width="500" height="500"><path d="M0 250v250h239.917c190.955 0 240.035-.255 240.5-1.25.466-1 .7-1 1.166 0 .748 1.602 3.848 1.602 6.561 0 1.694-1 2.208-1 2.57 0 .249.687 2.038 1.25 3.976 1.25 2.803 0 3.4-.324 2.917-1.582-.334-.87-.607-1.77-.607-2 0-.23-.675-.418-1.5-.418s-1.507-.337-1.515-.75c-.059-2.86-1.845-3.446-4.95-1.624-3.175 1.863-3.204 1.861-5.025-.376-1.007-1.238-2.273-2.25-2.813-2.25-1.4 0-2.154-2.447-1.512-4.904.788-3.012 2.693-2.581 4.01.906.802 2.125 1.596 2.824 2.719 2.393 2.318-.89 2.016-5.049-.414-5.685-1.1-.287-2-1.24-2-2.116 0-.877-.659-1.594-1.465-1.594-2.138 0-3.606-3.394-2.93-6.774.438-2.192.162-3.101-1.088-3.581-1.433-.55-1.574-.173-.971 2.606.695 3.207.677 3.225-1.322 1.434-2.246-2.013-2.672-1.66-3.683 3.054-.852 3.972-2.182 4.969-3.036 2.276-.352-1.108-1.059-2.015-1.572-2.015-.513 0-.933-.9-.933-2s.45-2 1-2 1 .675 1 1.5.45 1.5 1 1.5 1-.664 1-1.476c0-2.93 3.553-7.571 4.824-6.3.901.901 1.159.837 1.103-.274-.141-2.786-3.596-7.453-5.753-7.77-1.385-.203-2.174-1.031-2.174-2.281 0-2.6 2.969-3.705 4.173-1.553 1.165 2.08 3.827 2.166 3.827.123 0-1.663-.698-2.002-6-2.918-2.154-.372-5.422-2.321-8.5-5.068-2.75-2.456-5.368-4.469-5.817-4.474-.45-.005-.514-.965-.143-2.134.423-1.333.168-2.445-.683-2.985-.937-.593-.428-.874 1.643-.906 3.305-.052 6.5-2.002 6.5-3.967 0-.991-.312-1.003-1.456-.053-.801.664-1.946.906-2.544.536-.598-.37-1.659-.198-2.358.382-.699.58-3.846 1.139-6.994 1.242-4.034.132-5.998.657-6.655 1.782-.739 1.264-.938 1.024-.963-1.156-.024-2.24.412-2.75 2.355-2.75 3.981 0 7.745-8.565 4.615-10.5-.55-.34-1 .361-1 1.558 0 1.768-.421 2.062-2.25 1.572-1.238-.331-2.548-.609-2.912-.616-.364-.008-.962-1.788-1.328-3.956-.367-2.169-1.3-4.469-2.074-5.111-1.394-1.157-1.36 2.755.083 9.641.608 2.898-2.088 6.655-3.03 4.225-.362-.933-1.288-1.444-2.072-1.143-1.566.601-2.016-2.182-.504-3.116 1.872-1.157 2.284-8.273.66-11.414-2.099-4.058-1.982-5.875.427-6.64 2.302-.731 2.594-3.305.674-5.931-2.741-3.749-5.148-1.229-5.423 5.676-.289 7.244-2.069 14.755-3.497 14.755-.596 0-.808-2.672-.535-6.75.502-7.481-.95-14.188-2.316-10.699-.419 1.072-.794 3.498-.833 5.39-.065 3.183-.174 3.299-1.456 1.546-1.003-1.371-1.112-2.494-.397-4.064 1.037-2.277-.394-6.423-2.217-6.423-1.65 0-3.067-3.884-2.395-6.562.482-1.92 1.144-2.475 2.524-2.114 1.029.269 1.871.081 1.871-.418 0-.498-.605-.906-1.345-.906-3.829 0-6.189-7.482-3.155-10 1.865-1.547 1.919-4.044.142-6.474-1.252-1.713-1.411-1.573-2.045 1.808-.399 2.126-1.27 3.666-2.073 3.666-1.103 0-1.179-.661-.373-3.25.556-1.788 1.242-4.001 1.525-4.918.283-.918.081-2.445-.45-3.393-1.11-1.983-.435-5.686.888-4.869.487.302.886 1.421.886 2.489 0 3.621 1.999 1.965 2.183-1.809.315-6.442-.06-8.602-1.647-9.49-.845-.473-1.536-1.364-1.536-1.981s-.749-1.949-1.664-2.96c-1.439-1.59-1.482-2.177-.32-4.349 1.032-1.929 1.07-2.784.164-3.69-1.962-1.962-1.462-5.78.756-5.78 1.733 0 1.655-.288-.75-2.75-1.975-2.022-2.898-2.419-3.486-1.5-.44.688-1.227 1.25-1.75 1.25-1.473 0-1.121-2.972.55-4.643 2.102-2.102 1.867-5.09-.5-6.357-3.021-1.617-2.841-8.752.25-9.901 1.238-.46 2.813-.622 3.5-.361.692.264 1.25-.273 1.25-1.202 0-.924.71-2.389 1.578-3.257.867-.867 1.359-2.41 1.093-3.428-.43-1.647.167-1.851 5.423-1.851 4.682 0 5.906.323 5.906 1.559 0 .857.476 1.265 1.059.905 1.106-.684.352-6.298-1.046-7.796-.428-.458-1.73-.237-2.895.49-1.74 1.087-2.489 1.091-4.196.025-1.561-.975-2.419-1.015-3.445-.164-2.593 2.152-5.977.787-5.977-2.41 0-4.079 2.738-5.609 5.523-3.088 2.006 1.815 2.202 1.828 3.109.208 1.116-1.995 3.931-2.266 5.651-.546 1.743 1.743 2.839.043 1.429-2.215C424.75 287.627 424.6 282 426 282c.55 0 1-.9 1-2s-.45-2-1-2-1 .575-1 1.278c0 2.226-4.118 5.149-5.074 3.601-.45-.726-1.098-1.04-1.441-.697-.343.343-.057 1.531.636 2.639 1.021 1.636 1.004 2.323-.089 3.64-2.127 2.564-3.404.241-3.242-5.9.147-5.611-1.139-8.187-2.285-4.576-.352 1.108-.371 2.862-.043 3.897.367 1.155.043 2.094-.84 2.433-2.636 1.011-2.892-4.055-.453-8.939 1.767-3.537 2.004-4.869 1.121-6.283-.895-1.433-.735-2.124.795-3.434 1.099-.941 1.915-2.921 1.915-4.649 0-1.954.506-3.01 1.441-3.01 2.062 0 2.618 1.32 2.722 6.462.05 2.496.513 4.538 1.03 4.538s.797 1.238.623 2.75c-.454 3.949-2.159 3.071-3.258-1.679-1.034-4.468-2.076-5.165-3.065-2.049-.937 2.952.429 8.222 1.977 7.628.705-.271 1.798.644 2.431 2.032l1.15 2.523 1.974-2.51c1.086-1.381 1.975-3.452 1.975-4.603 0-2.281 1.551-2.849 2.3-.842.322.864 1.198.538 2.833-1.053 2.189-2.13 2.235-2.379.617-3.3-2.64-1.503-2.447-8.902.25-9.607 2.434-.637 2.941-7.992.612-8.885-.763-.293-1.649-1.84-1.969-3.438-.319-1.597-1.495-3.819-2.612-4.936-2.193-2.193-2.631-4.542-1.031-5.531.55-.34 1-1.068 1-1.618s-.419-.741-.931-.425c-.512.317-1.213.118-1.559-.441-.345-.559.261-1.016 1.348-1.016 3.857 0 3.451-10.552-.464-12.04-1.614-.614-2.394-1.698-2.394-3.328 0-2.58 2.041-3.937 4.5-2.994 2.439.936 2.038-7.014-.441-8.766-3.003-2.122-3.221-8.278-.309-8.692 1.969-.279 2.25.122 2.25 3.215 0 4.8 3.439 6.978 4.478 2.836.645-2.57.764-2.621 2.039-.876.874 1.194 1.068 2.614.548 3.998-1.061 2.821-.144 9.38 1.048 7.498.471-.743.863-3.263.872-5.601.013-3.578.331-4.25 2.015-4.25 1.562 0 2-.667 2-3.044 0-1.904-.468-2.949-1.25-2.79-2.184.443-5.75-2.163-5.75-4.201 0-1.081-.401-1.965-.891-1.965-1.494 0-1.847-6.972-.413-8.163.717-.595 1.304-1.647 1.304-2.337 0-.69.63-1.778 1.399-2.416.852-.707 1.676-4.281 2.104-9.123.515-5.809 1.082-7.961 2.101-7.961 1.581 0 1.887 3.109.447 4.55-.522.523-1.207 4.325-1.522 8.45-.374 4.9-1.085 7.885-2.051 8.61-1.869 1.404-1.931 7.029-.089 8.09.763.44 1.559 1.7 1.767 2.8.215 1.13 1.242 2.062 2.362 2.144 1.09.079 2.319.247 2.732.375 1.202.37 2.682.721 3.613.856.475.069 1.422 2.937 2.103 6.375 1.757 8.856 2.047 9.75 3.16 9.75.546 0 .702-.47.347-1.044-.355-.574-.156-1.632.441-2.352s1.375-4.075 1.728-7.456l.643-6.148h-2.976c-3.467 0-4.38-.653-3.633-2.598.661-1.723 2.718-1.797 5.292-.19 2.459 1.536 3.446.574 2.653-2.586-.76-3.029-6.316-4.726-8.048-2.458-1.365 1.787-4.652 1.201-3.923-.699.297-.773-.241-3.451-1.196-5.951-2.175-5.695-1.436-16.287 1.277-18.295 2.057-1.523.882-4.142-2.563-5.71-2.715-1.236-2.798-3.115-.168-3.803 2.785-.728 2.499-3.525-.5-4.892-3.008-1.371-3.249-3.446-.5-4.318 1.1-.349 2-1.054 2-1.567 0-.513.651-.933 1.448-.933 1.041 0 1.532 1.473 1.75 5.25.222 3.866.698 5.25 1.802 5.25 1.963 0 2.611-7.99.907-11.174-.903-1.687-.942-2.892-.15-4.56 1.046-2.198 1.099-2.168 1.793 1.02.393 1.807 1.555 3.735 2.582 4.285 2.675 1.431 2.818 14.18.154 13.723-.986-.169-1.866.449-2.073 1.456-.251 1.22.269 1.75 1.714 1.75 1.219 0 2.073-.648 2.073-1.573 0-3.213 3.489-1.027 3.818 2.392.195 2.025.775 3.134 1.5 2.867.65-.24 1.111-.83 1.024-1.311-.087-.481-.504-2.45-.926-4.375-1.539-7.019-1.462-28.2.114-31.36.808-1.621 1.47-4.003 1.47-5.294 0-1.29.563-2.361 1.25-2.379.688-.018 3.05-1.844 5.25-4.057 4.269-4.294 4.275-4.244-1.003-7.418-1.476-.887-1.679-3.331-1.692-20.376-.009-11.223.387-19.631.94-19.992 1.562-1.02 3.255-4.826 3.255-7.318 0-1.279.9-2.887 2-3.574 2.561-1.599 2.677-7.175.212-10.218-1.185-1.464-1.654-3.356-1.39-5.611.582-4.988 2.992-4.382 3.371.847.389 5.378 2.204 5.551 2.624.25.174-2.2.737-4.427 1.25-4.95.513-.522.933-3.11.933-5.75s.45-4.8 1-4.8 1-1.575 1-3.5c0-2.833.381-3.5 2-3.5 2.722 0 2.722 5.037 0 7.5-2.78 2.516-2.756 9.409.043 11.804 1.123.962 1.759 2.207 1.413 2.766-.345.56-.101 1.653.544 2.43.645.777.901 1.851.57 2.387-.332.536-.141 1.26.422 1.608 1.075.664 3.095-3.448 2.332-4.745-.243-.412.035-.75.617-.75S491 39.848 491 38.441c0-1.407-.403-2.31-.895-2.006-1.344.831-2.334-2.606-1.105-3.835.754-.754 1.236-.413 1.649 1.167.322 1.228 1.221 2.233 1.999 2.233 2.443 0 2.641-2.845.456-6.549-1.168-1.979-2.104-5.298-2.104-7.458 0-2.584-.557-4.205-1.655-4.82-1.541-.862-1.541-1.278 0-5.988.91-2.783 1.655-6.439 1.655-8.123V0H0v250m396.884-117.907c-.761.482-3.971.883-7.134.892-3.334.009-5.75.456-5.75 1.063 0 1.166-.318 1.821-11.843 24.393-4.476 8.767-8.592 16.394-9.148 16.95-.555.555-1.009 1.781-1.009 2.726 0 .944-.337 1.866-.75 2.05-.413.183-3.723 6.183-7.357 13.333-8.869 17.449-18.479 35.741-20.878 39.738-1.077 1.794-3.353 6.187-5.057 9.762-3.216 6.745-4.35 8.987-21.733 43C291.258 315.285 290 317.848 290 319.05c0 1.509 4.911 12.134 6.448 13.95 1.158 1.369 3.154 4.906 11.849 21 1.635 3.025 3.282 5.848 3.661 6.274 1.135 1.274 3.595-2.243 8.587-12.274 2.6-5.225 5.518-10.626 6.483-12.002 2.937-4.187 10.972-20.533 10.972-22.32 0-.923.337-1.681.75-1.684 1.006-.009 4.25-5.791 4.25-7.575 0-.78.344-1.419.764-1.419.42 0 1.587-1.913 2.592-4.25 1.005-2.337 2.499-5.002 3.319-5.921 1.888-2.114 4.77-7.051 7.49-12.829 1.166-2.475 2.402-4.725 2.747-5 1.113-.885 3.088-6.033 3.088-8.047 0-1.074.45-1.953 1-1.953s1-.863 1-1.917.337-2.066.75-2.25c.413-.183 2.084-2.92 3.715-6.083 2.944-5.71 4.535-7.18 4.535-4.191 0 .857.433 1.292.962.965.616-.381.616-1.505 0-3.125-1.376-3.619-1.231-4.067 1.288-3.978 1.929.068 2.208-.366 1.954-3.039-.208-2.183.467-4.026 2.25-6.145 1.4-1.664 2.546-3.523 2.546-4.131 0-.608.45-1.106 1-1.106s1-.986 1-2.191c0-2.103.055-2.116 1.373-.313 1.325 1.812 1.398 1.8 2.075-.332.385-1.215.407-3.549.047-5.186-.41-1.869-.252-2.978.426-2.978.593 0 1.079-.415 1.079-.922 0-2.354 4.626-11.046 5.667-10.649 1.378.525 2.623-2.151 1.697-3.649-.362-.585-.035-.84.747-.583.764.252 1.531 1.66 1.705 3.13.448 3.784 1.652 3.315 3.151-1.227 1.113-3.371 1.067-4.214-.34-6.222-1.967-2.808-2.295-5.946-.427-4.078 1.851 1.851 3.006 1.423 2.285-.847-.443-1.397.202-3.164 2.027-5.557 1.472-1.931 2.803-4.66 2.957-6.067.155-1.406.675-2.843 1.156-3.193.481-.35.92-1.198.975-1.886.321-4.015.467-4.517 1.12-3.863.396.396.733 1.59.75 2.653.016 1.064.48 1.828 1.03 1.697.55-.13.981-1.264.958-2.52-.053-2.869 2.912-2.602 3.33.3.195 1.357-1.061 3.033-3.92 5.231l-4.208 3.234 3.17.634c3.279.656 4.317 3.088 1.67 3.915-5.107 1.596-5.132 1.619-2.951 2.638 1.127.526 2.645 1.913 3.375 3.08 1.66 2.66 2.734 21.235 1.329 22.993-.554.692-1.325 3.889-1.714 7.104-.629 5.203-.464 6.105 1.504 8.199 1.262 1.345 1.955 3.018 1.615 3.904-.967 2.519-2.075 1.807-3.959-2.541-1.44-3.324-2.036-3.873-3.176-2.927-1.643 1.364-1.001 3.541 1.901 6.443l2.076 2.076-2.25.32c-1.343.19-2.25 1.016-2.25 2.05 0 .951-.54 2.27-1.2 2.93-.933.933-.933 1.467 0 2.4.933.933 1.207.878 1.232-.25.049-2.282 4.485-6.745 7.071-7.115 3.045-.435 5.376-4.737 3.399-6.272-1.844-1.432-2.205-19.064-.555-27.037 1.049-5.066 1.653-8.613 1.984-11.659.038-.349.969-.869 2.069-1.157 3.936-1.029 2.238-3.004-2-2.326-3.113.498-4 .32-4-.803 0-.793 1.008-1.586 2.24-1.761 3.535-.505 3.399-3.442-.193-4.161-3.456-.691-4.19-3.547-1.117-4.351 1.062-.278 1.88-1.248 1.818-2.156-.063-.909.175-2.781.528-4.16.78-3.054-.811-6.212-2.114-4.195-.674 1.043-1.08 1.007-2.07-.186-1.412-1.701.099-5.588 2.193-5.643 3.134-.081 6.616-4.701 5.741-7.619-.622-2.075-.877-2.303-.94-.84-.104 2.427-4.086 5.408-4.086 3.058 0-.797.45-1.727 1-2.067.55-.34 1-1.491 1-2.559s.417-1.941.928-1.941c.51 0 1.732-1.824 2.716-4.054 1.502-3.405 2.151-3.963 4.05-3.487 1.823.458 2.388.063 2.916-2.041 1.175-4.681 2.358-.429 2.375 8.532.02 11.406 1.784 9.278 2.197-2.651.28-8.091.106-9.257-1.437-9.658-1.125-.292-1.663-1.258-1.5-2.691.316-2.769-.418-2.891-18.028-3.015-7.305-.051-14.558-.459-16.116-.906-1.558-.447-3.456-.418-4.217.064m-242.384 2.02c-3.85.493-9.475 1.601-12.5 2.462-3.025.86-7.3 2.041-9.5 2.624-25.893 6.861-53.007 30.572-66.944 58.54-12.032 24.147-14.018 68.182-4.047 89.761 1.27 2.75 3.106 7.025 4.079 9.5 4.602 11.706 26.232 36.853 34.846 40.513 1.312.557 3.213 1.749 4.225 2.648 1.013.899 4.541 3.004 7.841 4.676 14.773 7.488 23.124 10.175 44 14.156 8.443 1.61 33.039.762 43-1.483 21.097-4.754 43.108-19.749 60.679-41.339 12.673-15.571 13.662-19.026 6.054-21.14-2.053-.57-6.208-2.43-9.233-4.132-14.637-8.237-19.928-8.594-24.424-1.649-15.788 24.388-45.077 36.275-76.076 30.873-11.687-2.036-13.034-2.461-21.745-6.854-9.94-5.013-23.455-16.904-29.182-25.676-6.883-10.543-11.59-26.803-11.552-39.908.018-6.38.564-9.717 3.871-23.685 3.26-13.768 18.664-33.332 31.608-40.143 2.2-1.158 5.125-2.875 6.5-3.816 10.516-7.196 42.099-9.213 59.183-3.779 4.775 1.518 11.626 4.082 15.224 5.696 3.597 1.614 6.773 2.56 7.056 2.102.283-.458-3.756-9.305-8.974-19.661-5.219-10.356-9.489-19.421-9.489-20.145 0-.724-.675-1.576-1.5-1.892-.825-.317-1.5-1.373-1.5-2.347 0-5.747-20.244-8.626-41.5-5.902" fill="#d3d3d3" fill-rule="evenodd"/></svg>