<svg xmlns="http://www.w3.org/2000/svg" width="500" height="508"><path d="M.15 10.25c.082 5.638.338 9.005.568 7.483.23-1.522.783-2.542 1.228-2.266.446.275 1.072-.806 1.391-2.404.438-2.186 1.456-3.22 4.122-4.184C9.727 8.059 11 6.951 11 5.799 11 4.81 11.45 4 12 4s1 .408 1 .906c0 .507 1.577.423 3.573-.19 2.893-.888 3.747-.822 4.485.344.692 1.093.919.837.942-1.06.021-1.707.293-2.087.857-1.197.906 1.429 3.213 1.27 4.393-.303.485-.647 1.023-.579 1.525.194C29.712 4.14 38 6.144 38 4.925c0-.474.672-.604 1.494-.289.822.316 1.246.976.941 1.469-.304.492-.076.895.506.895S42 7.633 42 8.406c0 .948.703 1.223 2.156.843 1.478-.387 1.932-.2 1.441.593-.396.642-.132 1.209.594 1.273l2.793.25c.816.074 1.627 1.035 1.803 2.135.264 1.649.138 1.737-.718.5-.901-1.302-1.04-1.277-1.054.183-.008.925.885 1.968 1.985 2.317 1.1.349 2 1.504 2 2.567C53 20.13 53.661 21 54.469 21c.894 0 1.243.586.893 1.5-.317.825-.078 1.5.531 1.5S57 24.689 57 25.531c0 .843.713 1.805 1.584 2.14 1.275.489 1.324.772.25 1.453-1.048.664-1.059.849-.049.861.975.011 1.027.498.215 2.015-.884 1.652-.76 2.003.715 2.015 1.389.012 1.483.207.422.879-1.151.729-1.151.961 0 1.485.941.429 1.012.79.229 1.166-1.264.607-.009 7.976 1.712 10.049.652.786.545 1.337-.325 1.671-.842.323-1.181 1.858-.964 4.366.771 8.929.672 9.843-1.289 11.91-1.1 1.16-2.78 2.395-3.733 2.746-1.074.395-1.503 1.238-1.127 2.216.378.987.124 1.47-.679 1.288-.706-.16-1.616.834-2.023 2.209-.406 1.375-.783 1.886-.838 1.135-.055-.751-2.148 1.122-4.65 4.162-4.569 5.55-6.85 7.192-8.54 6.147-.501-.309-.91.125-.91.966 0 .898-.577 1.306-1.399.99-.769-.295-1.684-.075-2.032.488-.348.564-1.248.789-2 .5-.752-.288-1.668-.036-2.037.56a1.288 1.288 0 0 1-1.771.404c-.708-.438-.873-.087-.462.984.701 1.828-.062 2.1-2.163.769-.803-.508-3.35-.34-6.19.409-2.654.7-5.091 1.008-5.415.684-.588-.588-2.468-1.052-5.781-1.426C6.787 90.663 6 90.05 6 89.41c0-.641-.67-1.721-1.489-2.401-.819-.68-1.274-1.583-1.011-2.009.263-.425-.417-1.007-1.511-1.293C.008 83.189 0 84.08 0 295.594V508h10c6 0 10-.4 10-1 0-.55-.562-1.057-1.25-1.128l-3.67-.371c-1.33-.134-2.95-.97-3.598-1.857-.649-.887-1.436-1.356-1.75-1.043-.313.314-1.072-.368-1.686-1.515-.614-1.147-.843-2.086-.51-2.086.334 0-.088-.695-.938-1.545C3.681 494.538.446 473 2.925 473c.337 0 .605-1.799.594-3.999-.01-2.199-.383-3.999-.828-4-.445 0-.532-.449-.193-.997.719-1.165 1.332-3.978 2.048-9.398.282-2.141.826-4.391 1.208-5 .383-.608.848-2.22 1.035-3.581.187-1.361.757-2.978 1.267-3.592.51-.614.672-1.371.362-1.682-.311-.311.125-1.9.968-3.531.844-1.632 1.296-3.205 1.005-3.496-.291-.291-.081-1.361.467-2.377 1.609-2.984 2.473-5.752 2.239-7.171-.12-.728.178-1.853.662-2.5.484-.647 1.464-3.201 2.177-5.676.713-2.475 1.659-5.625 2.102-7 2.993-9.275 6.415-20.737 6.569-22 .101-.825.911-3.185 1.8-5.245s1.623-3.968 1.632-4.24c.009-.272.192-1.061.407-1.755.216-.693.673-2.61 1.018-4.26.344-1.65 1.068-4.8 1.61-7 .541-2.2 1.136-5.184 1.323-6.631.186-1.447.697-3.213 1.136-3.923.44-.711 1.146-2.902 1.571-4.869 1.181-5.472 4.445-15.957 6.873-22.077 1.2-3.025 2.617-6.962 3.149-8.75.533-1.787 1.397-3.25 1.921-3.25s.953-1.035.953-2.301c0-2.634 2.132-7.68 3.25-7.691.413-.004.757-.796.765-1.758.018-2.046 2.303-8.901 3.3-9.898.377-.377.685-1.459.685-2.404 0-.945 2.022-5.257 4.493-9.583 2.47-4.326 4.495-8.427 4.5-9.115.004-.687.402-1.25.886-1.25.483 0 1.431-1.333 2.105-2.962.675-1.63 2.53-4.325 4.122-5.991 1.592-1.666 2.894-3.722 2.894-4.569 0-.848.692-1.806 1.537-2.131.846-.324 2.137-2.023 2.869-3.776.732-1.752 2.784-4.51 4.56-6.129 1.776-1.618 4.41-4.18 5.854-5.692 1.444-1.513 3.2-2.75 3.903-2.75.702 0 1.277-.367 1.277-.814 0-2.15 21.936-11.171 27.185-11.181 1.477-.003 3.727-.395 5-.871 1.273-.476 4.699-.554 7.613-.173 2.914.381 5.532.313 5.819-.15a.984.984 0 0 1 1.346-.334c.453.28 2.735-.165 5.071-.989 4.344-1.533 9.966-1.688 9.966-.275 0 .433 1.8.787 4 .787h4v4.833c0 2.659-.312 5.145-.692 5.526-1.344 1.344-1.325 4.967.038 7.046 1.639 2.502.513 6.595-1.814 6.595-.842 0-1.532.702-1.532 1.559s.385 1.321.855 1.03c.471-.29.778 1.371.683 3.691-.095 2.321.228 5.724.717 7.561.665 2.498.522 3.761-.564 5-2.23 2.543-2.863 5.586-3.034 14.585-.094 4.97-.661 8.874-1.421 9.789-1.432 1.726-1.224 4.218.634 7.602 1.063 1.935 1.01 2.718-.322 4.75-.877 1.338-1.304 2.433-.949 2.433.355 0 .124.629-.515 1.398-1.219 1.469-1.18 8.424.051 9.185 1.037.641.108 6.649-1.149 7.425-.585.362-1.159 1.971-1.275 3.575-.116 1.604-.661 3.248-1.211 3.652-.629.462-.56.74.188.75 1.479.019 1.293 3.717-.35 6.943-.679 1.336-1.007 2.798-.728 3.25.28.452-.081.829-.801.837-.951.011-.899.281.191.985.825.533.991.976.368.985-.623.008-1.184 1.703-1.247 3.765-.063 2.063-.279 4.988-.48 6.5-.227 1.701.101 2.75.858 2.75.766 0 1.045.935.746 2.5-.291 1.52-.017 2.5.697 2.5.647 0 .906.437.576.971-.33.533.076 2.276.901 3.873.826 1.596 1.304 3.099 1.064 3.34-.944.943-1.183 5.403-.374 6.966.577 1.115.399 1.825-.55 2.189-1.903.73-.861 4.336 1.788 6.192 1.9 1.33 1.925 1.469.262 1.469-1.471 0-1.749.596-1.396 3 .242 1.65.108 3-.298 3-.406 0-.587.788-.403 1.75.184.962.369 2.057.411 2.433.043.375.977.968 2.077 1.317s2.016 1.392 2.035 2.317c.029 1.359.27 1.278 1.25-.42.668-1.157 1.747-1.917 2.397-1.69.72.252 1.307-.881 1.5-2.896.258-2.688.751-3.316 2.621-3.337 3.041-.035 4.281-2.196 2.943-5.132-1.226-2.691-2.746-3.098-2.746-.735 0 1.073-.54 1.4-1.627.983-.894-.344-2.244-.112-3 .515-2.231 1.852-1.71-1.407.719-4.495 1.151-1.463 2.208-3.211 2.349-3.885.648-3.089 1.928-4.725 3.697-4.725 2.304 0 3.149-1.824 2.624-5.666l-.386-2.834-1.125 2.5c-.987 2.195-1.815 1.38-1.345-1.324.079-.454-.266-.571-.768-.262-.501.31-1.147-.342-1.437-1.448-.632-2.42-.453-3.55.513-3.228.393.131.463-.544.156-1.5-.406-1.264-.304-1.384.374-.441.751 1.045 1.181.998 2.208-.239.701-.845 1.674-1.289 2.161-.988.488.301.938.184 1.001-.261.636-4.51.657-6.309.076-6.309-1.36-.001-.658-8.545.881-10.717 1.773-2.501 1.644-9.021-.27-13.717-.93-2.282-.929-3.023.008-3.336.662-.22.949-.812.638-1.315-.311-.503.163-.915 1.053-.915.89 0 1.379-.388 1.086-.861-.293-.474-.786-2.611-1.095-4.75l-.889-6.139c-.18-1.237.005-2.25.411-2.25 1.026 0 2.302-5.605 2.533-11.135.106-2.549.457-5.062.78-5.584.928-1.502 1.85-7.421 1.821-11.697-.015-2.323.958-5.678 2.394-8.25 1.33-2.384 2.27-4.334 2.089-4.334-.182 0 .031-2.137.474-4.75 1.813-10.698 2.642-13.21 5.014-15.194 1.091-.912 1.836-2.797 1.802-4.556-.192-9.731.293-22.027.887-22.476.381-.288.695-1.545.697-2.792.006-2.954 3.173-7.61 6.522-9.588 2.46-1.453 2.929-1.416 6.544.522 2.142 1.148 4.352 2.685 4.912 3.417.56.732 2.221 1.942 3.691 2.69 1.772.901 2.406 1.791 1.881 2.64-.935 1.512-10.042 2.043-10.087.587-.017-.55-.612-.235-1.322.7-2.208 2.905-.218 14.8 2.476 14.8.484 0 .879.858.879 1.906 0 1.468.518 1.785 2.25 1.375 2.228-.526 2.231-.515.25 1.152-1.942 1.634-1.903 1.671 1.324 1.287 2.828-.336 3.253-.121 2.844 1.442-.472 1.803.844 2.664 1.499.981.493-1.267 7.833-2.434 7.833-1.246 0 .544.939.807 2.086.586 1.16-.223 3.018.468 4.188 1.558 1.86 1.732 3.123 2.174 5.364 1.874.989-.133 2.33 2.385 2.347 4.406.021 2.588 2.497 4.733 5.738 4.973 1.527.113 3.08.627 3.451 1.142.398.553 1.318.401 2.25-.373 1.304-1.083 1.579-1.071 1.591.065.01.826.308.974.75.372.404-.55 1.298-1 1.985-1 .688 0 1.213-.394 1.167-.876-.045-.482 1.084-1.64 2.508-2.575 1.425-.935 2.25-2.075 1.833-2.535-.417-.459-.126-.468.647-.02.905.525 1.168.433.74-.259-.365-.591-.006-1.731.798-2.535s1.183-1.74.843-2.081c-.341-.34.131-.619 1.047-.619.917 0 1.667-.439 1.667-.975 0-.55 1.308-.713 3-.375 1.911.382 3 .192 3-.525 0-1.591 3.978-1.385 7.364.381 3.862 2.014 4.292 1.924 6.029-1.256 4.84-8.858 6.731-13.744 8.613-22.25 2.627-11.87 3.721-14.673 5.167-13.227.654.654.822 2.774.428 5.402-.357 2.379-.651 4.657-.655 5.062-.003.406-.852 2.712-1.887 5.125-1.546 3.607-1.65 4.633-.584 5.763 1.011 1.072 1.073 2.807.282 7.875-1.069 6.858-1.194 10.158-.81 21.5.331 9.784-.779 31.271-1.721 33.307-.823 1.781-.768 4.758.223 12.193.858 6.429 1.167 23.001.43 23-.663 0-2.344 9.84-1.959 11.473.901 3.826.883 7.531-.039 8.101-.753.465-.671.944.262 1.536 1.076.681 1.016.863-.29.875-1.74.016-1.993 5.082-.483 9.681.413 1.258.25 2.451-.389 2.846-.731.452-.515 1.108.643 1.955.959.701 1.839 2.65 1.955 4.33.116 1.68.496 3.516.844 4.079.348.563-.292 1.519-1.423 2.124-1.131.605-1.761 1.578-1.4 2.162.361.584.137 1.383-.498 1.775-.847.523-.642 2.362.767 6.888 1.056 3.396 1.549 6.175 1.093 6.175-.456 0-.79 1.335-.744 2.966.046 1.631.466 2.729.933 2.441 1.357-.839.97 2.838-.619 5.884-.801 1.535-1.556 4.685-1.678 7-.222 4.215-1.479 7.566-3.354 8.944-.667.489-.667.739 0 .75.55.008 1.082 1.477 1.182 3.265.459 8.183.89 10.749 1.818 10.817.55.041.1.46-1 .933-1.71.735-1.746.87-.25.93.962.038 1.743.407 1.735.82-.025 1.195-1.626 3.405-2.597 3.585-.488.091-.781.953-.65 1.915.169 1.238-.45 1.75-2.114 1.75-2.851 0-5.233 5.495-6.069 14-.562 5.712-1.148 11.137-2.079 19.255-.359 3.12-.114 5.216.709 6.098 1.517 1.624 4.815.96 4.815-.97 0-.76.439-1.383.975-1.383.55 0 .713-1.308.375-3-.628-3.14.957-4.248 2.04-1.426.547 1.427.751 1.428 2.164.015 1.075-1.075 2.631-1.39 5.003-1.013 2.106.335 3.443.135 3.443-.514 0-.584.916-1.062 2.035-1.062 1.69 0 1.863.323 1.018 1.9-.782 1.461-.649 2.041.577 2.511 1.172.45 1.427.18.966-1.02-.483-1.259-.165-1.512 1.391-1.105 1.268.332 1.773.134 1.36-.534-.364-.589-.186-.771.4-.408.611.377 1.837-1.245 2.905-3.842 1.016-2.472 2.467-4.496 3.223-4.498.996-.003 1.209-.836.772-3.02-.556-2.781-.41-2.98 1.875-2.566 1.363.247 2.478.029 2.478-.484 0-.514-.675-.934-1.5-.934s-1.507-.562-1.515-1.25c-.012-.915-.247-.885-.879.113-.725 1.144-.937 1.145-1.315.009-.495-1.485 1.439-3.872 3.138-3.872.589 0 1.071.955 1.071 2.122 0 1.708.274 1.895 1.403.959.771-.641 1.559-.755 1.75-.255.483 1.265 4.847 2.518 4.847 1.391 0-1.196 8.096-.382 9.736.979.695.577 1.302.881 1.347.676.489-2.182.555-5.559.125-6.295-.826-1.412-.805-6.577.026-6.577.589 0 .527-4.263-.135-9.25-.204-1.542-1.988-.676-2.604 1.265-.351 1.108-1.043 1.764-1.537 1.459-.493-.305-1.577 1.071-2.407 3.057-.83 1.987-2.868 4.805-4.53 6.263-1.662 1.458-3.021 3.226-3.021 3.929 0 .702-.477 1.277-1.059 1.277s-.738-.52-.346-1.155c.473-.763.271-.88-.595-.345-.835.516-1.067.417-.64-.273.369-.598-.257-1.377-1.398-1.739-1.617-.513-1.82-.954-.931-2.025 1.973-2.377.735-8.627-2.285-11.535-4.009-3.861-5.08-7.669-3.506-12.475 1.44-4.398 1.499-5.891.368-9.252-.514-1.528-.243-3.109.809-4.714.87-1.329 1.853-4.12 2.183-6.202.717-4.519 2.068-7.285 3.558-7.285.689 0 .608-.577-.221-1.576-1.083-1.305-1.066-1.726.098-2.446.774-.478 1.111-1.165.75-1.526-.362-.362-.247-1.736.254-3.055.687-1.805.574-2.397-.457-2.397-1.961 0-2.612-2.409-1.602-5.929.52-1.815.499-3.275-.054-3.617-1.35-.834-1.134-2.497.287-2.204.668.138 1.664-.738 2.214-1.945.55-1.208 2.029-2.746 3.287-3.419 1.257-.673 2.286-2.111 2.286-3.195 0-1.084.788-2.568 1.75-3.299 1.009-.766 1.235-1.342.535-1.36-.668-.018-1.696-.932-2.285-2.032-.94-1.756-.76-2 1.465-2 2.231 0 2.535.42 2.535 3.5 0 1.925.398 3.5.883 3.5 1.263 0 1.997 4.72.904 5.813-.554.554-.397 1.462.399 2.301 1.297 1.368 1.93 4.277 1.872 8.599-.021 1.553.414 2.043 1.456 1.643.935-.358 1.486.026 1.486 1.037 0 .884-.649 1.607-1.443 1.607-.899 0-1.299.745-1.061 1.979.21 1.088-.022 2.228-.514 2.532-.492.304-.613 1.287-.268 2.185.397 1.035.228 1.386-.463.959-1.307-.808-3.695 5.746-2.874 7.886.308.803.147 1.459-.357 1.459-.876 0 .93 5.541 3.014 9.25.651 1.16.643 1.75-.026 1.75-.554 0-.976 1.012-.938 2.25.068 2.163.107 2.172 1.016.25.792-1.678.861-1.567.426.689-.573 2.965.474 4.137 2.872 3.217 1.416-.543 1.414-.751-.021-2.185-1.423-1.424-1.428-1.701-.047-2.71 1.778-1.3 1.56-22.035-.251-23.846-.661-.661-.419-1.433.72-2.298 1.407-1.07 1.446-1.312.215-1.351-1.245-.039-1.265-.195-.118-.922 1.559-.987.745-8.094-.927-8.094a.965.965 0 0 1-.955-.969c0-.532.563-.753 1.25-.49.897.343 1.328-1.218 1.525-5.532.223-4.875-.018-6.009-1.273-6.009-1.357 0-1.338-.321.157-2.602 1.775-2.71 2.239-7.136.964-9.199-.408-.66-.321-1.199.193-1.199 1.071 0 .905-25.323-.189-28.666-.401-1.226-.25-2.449.349-2.819.581-.359.817-1.041.524-1.515-.293-.474-.074-1.145.486-1.492.681-.42.639-1.34-.127-2.771-.853-1.594-.856-2.238-.01-2.52.804-.268.836-.937.108-2.298-.705-1.318-.703-1.919.008-1.919 1.329 0 1.356-4.683.032-5.502-.665-.411-.65-1.278.047-2.579.576-1.078.776-2.401.443-2.94-.333-.538-.181-.979.337-.979.519 0 1.178-.9 1.466-2 .287-1.1.129-2-.352-2-1.633 0 .265-3 1.919-3.033 1.264-.026 1.066-.518-.857-2.132-1.375-1.155-2.345-2.602-2.155-3.217.973-3.155.893-4.59-.312-5.59-.729-.606-1.096-1.985-.813-3.065.36-1.377.01-1.963-1.171-1.963-1.262 0-1.515-.533-1.009-2.125.454-1.43.312-1.902-.433-1.441-.669.413-1.107-.111-1.107-1.325 0-1.105-.736-2.422-1.637-2.926-2.974-1.664-2.814-8.533.337-14.436 2.899-5.433 3.299-7.365 1.965-9.497-.44-.702-.324-1.25.264-1.25.576 0 .94-.787.809-1.75-.25-1.84.264-2.25 2.821-2.25.857 0 1.313.398 1.013.884-.301.486.791 1.438 2.426 2.115 2.272.941 2.766 1.6 2.096 2.797-1.133 2.026 1.355 4.629 3.602 3.767.904-.347 1.959-.122 2.343.5.385.622 2.896 1.321 5.58 1.553 11.037.953 18.048 1.373 20.881 1.25 14.725-.641 31.642.095 30.872 1.341-.27.436.207.793 1.059.793 3.088 0 11.638 4.379 11.13 5.701-.274.714.127 1.299.891 1.299 1.625 0 3.159 5.789 1.874 7.074-1.129 1.129-8.473-1.05-9.923-2.944-.863-1.126-1.264-1.163-1.875-.175-.624 1.01-.933 1.007-1.562-.011-.432-.697-2.963-1.376-5.625-1.508-2.663-.132-4.841-.315-4.841-.406 0-.903-10.136-.627-10.72.291-.575.905-.753.904-.765-.001-.01-.808-.882-.936-2.765-.404-1.512.427-3.312.583-4 .347-.687-.236-1.264.17-1.28.904-.02.855-.397.705-1.05-.417-1.258-2.159-3.078-2.326-2.266-.208.471 1.227.018 1.438-2.218 1.032-1.545-.28-3.394-.023-4.11.57-.715.594-2.01.808-2.877.475-.866-.333-2.897.079-4.512.914-1.616.835-2.944 1.169-2.952.743-.009-.427-.346-.326-.75.224-1.282 1.745-5.277 3.592-6.343 2.933-.565-.349-1.274.311-1.576 1.466-.302 1.156-1.172 2.101-1.933 2.101-1.662 0-1.851 1.677-.249 2.211.772.258.671.842-.318 1.834-1.587 1.591-1.964 13.453-.499 15.718.469.724.182 2.535-.673 4.25-.82 1.643-1.166 2.987-.769 2.987.398 0 .772 1.688.833 3.75.061 2.063.311 6.563.555 10 .294 4.147.072 6.261-.66 6.282-.607.017-.347.607.577 1.309 1.887 1.435 1.456 9.534-.58 10.894-.761.508-.715.739.15.75.688.008 1.25.69 1.25 1.515s-.466 1.5-1.035 1.5c-.699 0-.683.658.046 2.021.595 1.111.828 2.43.519 2.931-.309.5-.075 1.211.522 1.58.596.369.863 1.248.592 1.954-.271.707.173 2.236.988 3.399.853 1.218 1.033 2.115.425 2.115-1.353 0-1.388 5.677-.041 6.51.559.346.715 1.117.346 1.714-.401.647-.206.797.483.371.758-.468 1.155.166 1.155 1.846 0 1.407.379 2.559.841 2.559.463 0 .514 2.138.112 4.75-.683 4.446-.324 16.208.58 19 .222.688-.058 1.25-.623 1.25-.572 0-.682.555-.249 1.25.429.688.826 2.375.883 3.75.259 6.292 1.73 14.949 2.464 14.495 1.555-.961 3.869.661 3.335 2.338-.421 1.318-.326 1.378.453.285.789-1.107 1.124-.944 1.684.819.665 2.097.764 2.115 2.077.382 1.23-1.622 1.383-1.639 1.411-.151.048 2.495-1.066 4.89-2.004 4.31-.454-.281-1.11-.05-1.458.513-.348.563.071 1.293.931 1.623.859.33 1.563 1.227 1.563 1.993s.45 1.393 1 1.393 1-.45 1-1 .477-1 1.059-1 .813.399.511.886c-.301.488.347 1.121 1.441 1.407 3.013.787 2.388 2.42-1.406 3.672-3.448 1.138-4.237 5.035-1.02 5.035.744 0 1.115.617.826 1.371-.289.754.248 2.145 1.194 3.091 1.448 1.448 1.497 1.86.307 2.613-1.105.7-.977.901.588.925 1.627.025 1.725.205.526.963-.942.596-1.708.552-2.125-.123-.447-.724-.87-.699-1.351.079-.428.692.479 1.544 2.332 2.19 2.606.908 2.872 1.312 1.896 2.876-.89 1.424-.772 2.375.543 4.382 1.902 2.902 2.148 4.041.679 3.133-.55-.34-1-.141-1 .441s.482 1.059 1.071 1.059c1.433 0 3.929 2.564 3.929 4.036 0 .658.691.913 1.565.577 1.228-.471 1.419-.138.885 1.545-.517 1.628-.33 2.01.775 1.586.801-.308 2.091-.157 2.866.333 1.083.686 1.106.896.1.908-.72.008-1.012.496-.649 1.083.363.588 1.253.841 1.976.563.724-.277 1.565.142 1.868.932.303.79.003 1.469-.667 1.507-.671.039-.319.498.781 1.021 1.863.885 1.846.921-.251.523-1.416-.269-2.008-.033-1.596.634.416.673.171.761-.668.242-.962-.594-1.15-.362-.686.846.379.989.144 1.67-.58 1.679-.851.011-.807.277.144.879 1.129.716 1.134.94.026 1.31-.803.267-.417.686.966 1.048 1.783.466 2.172.26 1.721-.915-.812-2.117.444-3.913 1.534-2.194.669 1.057.863.97.875-.393.008-.962.513-1.75 1.122-1.75.609 0 .869.62.578 1.378-.291.758-.024 1.883.593 2.5.829.829.809 1.122-.078 1.122-2.109 0-1.285 2.739 1.05 3.492 1.238.398 2.587.676 3 .616.413-.059.75.369.75.951s.359.837.798.566c.439-.271 1.451-.08 2.25.426 1.134.717.959.922-.798.934-1.238.008-2.25.387-2.25.842 0 .455-1.462.673-3.25.485-2.867-.302-2.985-.226-1 .641 1.238.54 2.25 1.447 2.25 2.015 0 .567.788 1.025 1.75 1.017 1.115-.01 1.337-.282.611-.75-.853-.55-.853-.987 0-1.735 1.84-1.615 4.639-1.716 4.639-.166 0 1.84-2.443 3.867-3.502 2.907-.45-.407-.495-.178-.099.509.501.872-.131 1.26-2.09 1.282-1.545.017-3.683.692-4.75 1.5-1.068.807-1.575 1.468-1.128 1.468.448 0 .254.675-.431 1.5-1.057 1.274-.812 1.502 1.628 1.515 1.991.011 2.456.279 1.515.875-.946.6-1.021 1.067-.25 1.544.609.376 1.107.117 1.107-.575 0-.93.293-.966 1.122-.137.617.617 1.742.884 2.5.593.805-.309 1.378.115 1.378 1.019 0 .851.498 1.856 1.107 2.232.745.461.887-.011.433-1.441-.499-1.572-.252-2.125.952-2.125.938 0 1.335.47.939 1.112-.378.611-.12 1.462.573 1.89.902.558.655.972-.872 1.456-1.173.372-2.132 1.348-2.132 2.168 0 .821-.422 1.231-.939.912-.516-.319-1.402.217-1.969 1.191-.938 1.611-1.034 1.576-1.062-.385-.023-1.666-.49-2.037-2.051-1.628-1.588.415-1.776.824-.878 1.906.892 1.074.786 1.378-.479 1.378-.892 0-1.622.45-1.622 1 0 1.443 2.75 1.233 3.28-.25.245-.687.745-.975 1.111-.639.366.337.222 1.776-.319 3.199l-.983 2.587 55.205-.199 55.206-.198.046-253.75L500.592 0H0l.15 10.25m232.92 12c-.062 1.553-2.424 2.36-5.394 1.844-.454-.079-.54.318-.191.881.348.564-.095 1.025-.985 1.025s-1.367.406-1.06.903c.652 1.055-4.681 3.097-8.089 3.097-1.293 0-3.251.9-4.351 2s-2.45 2-3 2c-.55 0-1 .9-1 2s-.477 2-1.059 2-.781.45-.441 1c.361.583-.656 1-2.441 1-1.682 0-3.006.337-2.941.75.315 1.993-.219 3.306-1.118 2.75-.55-.34-1 .084-1 .941S199.188 46 198.196 46c-1.421 0-1.822.843-1.891 3.968-.094 4.261 1.677 6.637 4.22 5.661.888-.341 1.793.036 2.118.882.315.821 1.076 1.152 1.712.746 1.959-1.252 8.644-1.194 8.66.075.012.869.21.862.775-.026.557-.877 1.657-.625 4.142.948 1.86 1.178 2.843 2.321 2.183 2.541-.901.3-.916.74-.059 1.772 1.277 1.539 1.975 7.57.79 6.838-.417-.258-.586.895-.375 2.563.211 1.668-.034 3.032-.544 3.032s-.927.445-.927.989c0 1.545-3.299 5.011-4.77 5.011-.729 0-2.361 1.118-3.627 2.484-1.266 1.366-2.632 2.153-3.036 1.75-.403-.404-.584-.086-.4.707.187.809-.543 1.601-1.667 1.808-1.1.203-2.675.64-3.5.973-.825.333-1.725.651-2 .707-.275.056-1.062.459-1.75.895-.687.437-1.724.501-2.303.143-1.863-1.151-10.976-1.323-10.278-.194.352.57.203.766-.331.436-.964-.596-4.472 4.417-5.102 7.291-.639 2.913-1.349 7.541-1.687 11-.188 1.925-.584 4.737-.88 6.25-.313 1.603-.096 2.75.52 2.75.694 0 .66.477-.1 1.392-.682.823-.901 2.768-.535 4.75.341 1.847.732 4.262.869 5.367.58 4.682 3.6 7.881 5.119 5.423.363-.588 1.29-.827 2.059-.532.77.296 1.399.053 1.399-.538 0-.592.675-.817 1.5-.5.825.316 1.5.091 1.5-.5 0-.592.646-.828 1.436-.525.79.303 2.53-.309 3.866-1.36 1.337-1.051 2.715-1.626 3.064-1.278.349.349.634.154.634-.433 0-.694 2.236-.901 6.396-.594 3.984.294 6.647.067 7.061-.602.47-.76 1.244-.765 2.641-.017 1.088.582 2.861.778 3.94.435 1.157-.367 1.962-.16 1.962.504 0 .619.399.879.887.578.487-.301 1.464.148 2.17.999 1.441 1.735 7.328 4.413 9.815 4.464 2.25.046 6.128 3.449 6.128 5.377 0 .875.675 1.59 1.5 1.59.833 0 1.5.889 1.5 2 0 1.208.693 2.031 1.75 2.079 1.13.051 1.289.264.447.601-.975.391-.849.866.5 1.889 1.076.816 1.299 1.38.553 1.399-.828.021-.659.654.5 1.874 1.034 1.088 2.364 1.563 3.25 1.16.825-.376 3.188-.567 5.25-.424 2.063.142 3.75-.058 3.75-.445 0-.388.9-.704 2-.704s2 .353 2 .785c0 1.542 1.775.754 2.231-.99.505-1.93 4.347-2.717 5.349-1.095.375.607 1.367.324 2.519-.719 1.046-.946 1.901-1.409 1.901-1.03 0 .38.864.228 1.919-.337 1.396-.747 2.057-.688 2.421.215.296.732.534.524.581-.508.043-.963.556-1.75 1.138-1.75.582 0 .781-.45.441-1s-.093-1 .548-1 .907.675.59 1.5c-.316.825-.17 1.5.326 1.5s1.21-1.012 1.587-2.25 1.375-3.035 2.218-3.995c1.019-1.161 1.607-4.177 1.756-9 .123-3.99.333-7.48.468-7.755.134-.275.183-.862.108-1.304-.075-.442.546-1.486 1.381-2.321.835-.835 1.518-2.502 1.518-3.706 0-1.203.944-2.777 2.097-3.498 1.154-.72 1.833-1.574 1.509-1.898-.324-.324-.111-1.164.472-1.867.689-.83.73-1.914.118-3.092-1.025-1.973-.994-5.214.067-6.93.367-.595-.329-2.151-1.548-3.459-1.218-1.308-2.215-2.704-2.215-3.102 0-1.091-2.312-3.179-3.74-3.379-2.676-.373-15.412-1.743-18.374-1.976-1.713-.135-4.813-1.051-6.889-2.036-5.336-2.532-8.493-2.519-8.512.035-.009 1.201-.316 1.583-.75.933-1.457-2.182-4.851-3.384-6.082-2.153-.634.634-1.153.725-1.153.203 0-.523-1.012-.986-2.25-1.029-3.675-.129-5.135-.808-6.282-2.921-.597-1.1-1.846-1.937-2.776-1.861-.931.076-1.692-.464-1.692-1.2 0-.737-.621-1.699-1.379-2.139-1.85-1.072-5.777-8.56-4.853-9.252.403-.301 1.424-1.898 2.27-3.548.846-1.65 2.084-3.056 2.75-3.125.667-.069 1.325-.239 1.462-.378.638-.645 4.75-.64 4.75.005 0 .401 1.81.399 4.022-.006 2.259-.413 4.271-.331 4.591.187.314.507 1.092.732 1.729.5 3.545-1.295 14.251 6.593 11.554 8.512-1.095.779-1.019.872.354.431 1.149-.37 1.75-.038 1.75.964 0 .841.412 1.274.915.963.503-.311 1.104-.225 1.336.191.232.416.284.194.116-.494-.167-.687.357-1.25 1.164-1.25.808 0 1.469.661 1.469 1.469 0 .894.586 1.243 1.5.893.825-.317 1.5-.078 1.5.531S271.689 73 272.531 73c.843 0 1.774.631 2.07 1.401.295.771 1.186 1.307 1.978 1.19 1.783-.261 4.274-2.591 2.771-2.591-.643 0-.876-1.74-.6-4.5.299-3.002.063-4.5-.71-4.5-.637 0-.909-.403-.605-.895.305-.493-.119-1.153-.941-1.469-.822-.315-1.494-1.487-1.494-2.605 0-1.117-.343-2.031-.763-2.031-.419 0-1.223-1.013-1.786-2.25-.564-1.237-1.604-2.126-2.312-1.975-.764.163-.991-.205-.559-.905.488-.789.296-.911-.58-.37-.866.535-1.068.418-.595-.345.427-.691.063-1.155-.905-1.155s-1.332-.464-.905-1.155c.417-.674.277-.884-.336-.505-1.188.734-2.564-2.037-1.703-3.43.309-.501.115-.91-.432-.91s-2.261-1.79-3.809-3.979c-1.548-2.188-3.404-3.988-4.124-4-.72-.011-1.031-.471-.691-1.021.34-.55-.35-1-1.533-1-1.183 0-3.296-.9-4.694-2-1.399-1.1-2.005-2-1.349-2 .657 0 .886-.498.51-1.107-.477-.771-.944-.696-1.544.25-.688 1.086-.862 1.038-.875-.238-.02-2.082-4.008-5.852-4.03-3.81-.013 1.2-.145 1.201-.899.009-.486-.767-1.605-1.119-2.485-.781-1.02.391-1.601.081-1.601-.854 0-1.781-1.971-1.989-2.07-.219-.039.688-.457.35-.93-.75-.735-1.71-.87-1.746-.93-.25M.491 295.5c0 117.15.116 164.927.259 106.17.142-58.756.142-154.606 0-213C.607 130.277.491 178.35.491 295.5M203.09 108.092l-1.991 3.275 3.674 4.066c2.02 2.237 4.039 4.067 4.487 4.067.447 0 1.134.499 1.526 1.108.393.61 1.614.912 2.714.671 1.1-.24 2.9-.517 4-.615 1.1-.097 2.522-.513 3.16-.924.638-.411 1.864-.476 2.724-.146 3.666 1.407 6.12-4.283 3.536-8.201-1.049-1.591-1.91-2.544-1.913-2.117-.004.426-1.329.092-2.946-.744-1.616-.836-5.328-1.703-8.25-1.928-2.921-.224-6.08-.718-7.02-1.097-1.252-.505-2.243.187-3.701 2.585m19.868 34.459c-.769.926-.551 1.631.806 2.609 2.773 1.999 4.007 4.35 1.848 3.521-1.146-.439-1.481-.278-1.009.485.435.704.263.869-.448.429-.66-.407-1.155-.122-1.155.663 0 1.034-1.309 1.299-5.25 1.066-8.62-.511-10.214-.775-10.985-1.824-.448-.611-.74-.49-.75.309-.008.72-.38 1.084-.825.808-.446-.275-2.732-.013-5.08.583-2.606.662-3.797 1.375-3.057 1.833.831.513.542.961-.921 1.425-3.717 1.18-2.808 5.193 1.354 5.973 1.925.362 3.38 1.195 3.25 1.862-.145.744.828 1.134 2.537 1.016 1.791-.124 2.533.196 2.095.904-.391.633-.219.813.408.425.597-.369 1.368-.213 1.714.346.345.559 2.176 1.016 4.069 1.016 1.893 0 3.441.375 3.441.833 0 .459.675.834 1.5.834s1.5-.274 1.5-.608c0-.334 2.02-.596 4.489-.583 2.469.013 4.68-.475 4.914-1.084.234-.609 1.814-1.385 3.511-1.725 1.697-.339 3.086-1.234 3.086-1.989 0-.755.9-2.41 2-3.678 1.765-2.035 2.424-4.576 2.269-8.75-.026-.687.578-1.25 1.342-1.25.764 0 1.389-.45 1.389-1s-.45-1-1-1c-1.682 0-1.111-1.82.75-2.388.963-.294.063-.306-2-.028-2.062.279-3.75.111-3.75-.372s-.562-.929-1.25-.99c-.687-.062-3.16-.298-5.494-.526-2.67-.261-4.635.056-5.298.855m76.529 6.707c-3.408 1.714-5.947 5.966-5.847 9.792.269 10.257 11.153 15.681 18.426 9.182 3.443-3.076 5.658-13.534 3.489-16.475-2.638-3.577-11.259-4.918-16.068-2.499m-124.708 5.268c-2.294 2.626-4.189 9.474-2.622 9.474.464 0 .857.563.874 1.25.055 2.171 5.2 5.14 8.732 5.04 4.378-.124 4.842-.705 3.225-4.036-.735-1.515-1.258-3.092-1.163-3.504.096-.412-.494-.75-1.311-.75-.927 0-1.913-1.698-2.623-4.517-1.438-5.711-2.28-6.198-5.112-2.957M136.25 424.662c-.687.278-1.25 1.105-1.25 1.838 0 .733-.338 1.483-.75 1.667-.412.183-1.833 2.358-3.157 4.833s-3.237 5.305-4.25 6.289c-1.014.984-1.843 2.734-1.843 3.89 0 1.155-.73 2.634-1.623 3.287-1.952 1.427-1.025 5.534 1.249 5.534.821 0 1.211.454.868 1.009-.967 1.565.472 4.991 2.096 4.991 1.226 0 1.197.395-.182 2.5-.901 1.375-2.261 2.5-3.023 2.5s-1.385.477-1.385 1.059-.473.766-1.052.409c-.639-.395-.971.269-.845 1.691.403 4.535-.048 6.076-1.603 5.479-.825-.316-1.569-.027-1.652.643-.084.671-.203 1.721-.265 2.333-.062.613-.724 1.851-1.471 2.75-.887 1.07-.969 1.636-.234 1.636.617 0 1.122.869 1.122 1.932 0 1.062 1.463 2.96 3.25 4.217 1.787 1.257 3.845 2.862 4.571 3.568.727.706 1.866 1.283 2.531 1.283s1.738 1.399 2.383 3.109c1.214 3.216 3.291 3.518 10.765 1.566 1.1-.287 2.323-.556 2.719-.598.395-.043.481-.694.192-1.448s.081-1.992.824-2.75c.742-.758 1.907-2.744 2.588-4.411 1.435-3.512 5.463-8.468 6.883-8.468.535 0 1.4-1.012 1.922-2.25 1.065-2.522.682-6.75-.61-6.75-.464 0-.637-1.314-.383-2.919.253-1.605-.202-4.502-1.011-6.437-.808-1.935-1.227-4.447-.93-5.581.297-1.135.127-2.063-.376-2.063-.717 0-3.01-4.753-3.86-8-.495-1.892-3.455-9.053-4.752-11.5-.583-1.1-1.588-3.006-2.232-4.235-.644-1.229-1.464-1.942-1.822-1.583-.359.358-.652.126-.652-.515 0-1.223-.667-1.345-2.75-.505m161.5 69.096c-2.136.475-2.334 2.242-.25 2.242.825 0 1.5.498 1.5 1.107s-.666.851-1.481.539c-.846-.325-2.87.7-4.723 2.393-1.783 1.628-3.539 2.961-3.902 2.961-.364 0-.876 1.125-1.139 2.5-.476 2.493-.455 2.5 7.269 2.5 7.182 0 7.867-.184 9.403-2.528 1.726-2.635 1.386-4.595-.709-4.092-.67.161-.928.119-.574-.092.354-.211.415-1.257.136-2.325-.279-1.067-.954-1.664-1.501-1.327-.601.372-.742-.177-.356-1.392.689-2.171-.739-3.138-3.673-2.486" fill="#d3d3d3" fill-rule="evenodd"/></svg>