<svg xmlns="http://www.w3.org/2000/svg" width="500" height="515"><path d="M.018 135.639l.048 135.65 2.467 2.932C3.89 275.834 5 277.513 5 277.952c0 .439 1.202.798 2.672.798 1.486 0 3.246.832 3.966 1.875.712 1.031 1.846 2.511 2.521 3.289 1.351 1.558 1.549 13.364.276 16.504-.495 1.22-.17 2.979.893 4.831.92 1.602 1.672 3.526 1.672 4.275 0 4.213 9.277 5.824 14.655 2.545 3.723-2.27 6.168-10.285 4.147-13.591-.62-1.014 1.395-13.707 2.643-16.651.39-.92 1.35-1.918 2.132-2.218.783-.301 1.423-1.278 1.423-2.173s.931-2.934 2.068-4.532c1.138-1.597 1.787-2.904 1.443-2.904-.343 0 .076-1 .932-2.223.856-1.222 1.557-3.036 1.557-4.031 0-.995.686-2.072 1.526-2.394 1.033-.397 1.213-.962.557-1.752-1.212-1.461.293-4.103 1.805-3.169.612.378 1.112.162 1.112-.479s.626-.926 1.39-.632c.765.293 2.321-.334 3.458-1.393 1.138-1.06 2.762-1.927 3.61-1.927.848 0 1.542-.578 1.542-1.284 0-.707 1.35-2.082 3-3.057 1.65-.975 3-2.485 3-3.355 0-.871.666-2.083 1.48-2.694.813-.61 1.758-2.91 2.1-5.11.341-2.2 1.138-4.331 1.77-4.735.837-.534.81-.739-.1-.75-.687-.008-1.25-1.14-1.25-2.515 0-1.375.45-2.5 1-2.5s1-2.025 1-4.5c0-4.606.773-5.221 5.75-4.575 1.127.147 1.688-1.153 1.368-3.175-.065-.412.327-.75.871-.75 2.085 0 5.011-3.561 5.011-6.1 0-1.46.681-3.22 1.513-3.911 1.82-1.51 1.557-4.199-.513-5.253-.934-.476-.463-.622 1.25-.389 2.33.318 2.75.015 2.75-1.986 0-1.298-.112-2.517-.25-2.707-.138-.191.32-1.034 1.017-1.874.698-.84.958-2.332.58-3.317-.472-1.23-.32-1.564.483-1.068.982.607 1.784-1.721.92-2.67-.604-.663 2.842-3.459 3.655-2.966.497.303.581.027.186-.612-.395-.638-.071-1.409.72-1.713.79-.303 2.271-2.1 3.291-3.993 1.019-1.892 2.2-3.441 2.625-3.441.425 0 .773-.569.773-1.265 0-.695.814-2.833 1.809-4.75.994-1.917 2.388-5.51 3.097-7.985.709-2.475 1.695-5.281 2.191-6.236.497-.955.903-2.495.903-3.422 0-.926.707-2.466 1.571-3.42.864-.955 1.68-3.162 1.813-4.904.132-1.743.816-3.524 1.518-3.958.703-.434 1.189-2.087 1.082-3.674-.327-4.826-.033-6.534 1.016-5.886.55.34 1 .168 1-.382s-.41-1.253-.912-1.563c-1.523-.942 1.157-6.555 3.131-6.555.98 0 1.781-.45 1.781-1s-.436-1-.969-1c-.532 0-.709-.675-.393-1.5.348-.905.005-1.5-.864-1.5-.9 0-1.346-.843-1.19-2.25.137-1.237.287-2.614.333-3.059.046-.445.551-.52 1.123-.166.666.411.823-.224.436-1.765-.668-2.66 2.441-6.472 3.27-4.01.834 2.478 2.151 1.183 1.779-1.75-.209-1.65.064-3 .607-3 .542 0 .708-.45.368-1-.34-.55.357-1 1.548-1 1.458 0 1.988-.463 1.622-1.417a1.534 1.534 0 0 1 .893-1.969c.79-.303 1.437-.115 1.437.417 0 .533.661.969 1.469.969.946 0 1.268-.622.905-1.75-.476-1.482-.395-1.52.532-.25.824 1.13 1.287 1.202 1.877.293.445-.687 2.479-1.099 4.718-.955 3.562.227 3.998.559 4.599 3.498.365 1.785 1.392 4.05 2.282 5.034.89.983 1.618 2.341 1.618 3.018 0 .701.538.921 1.25.511.688-.396.911-.346.496.111-.414.457-.128 1.784.636 2.95 2.228 3.4 3.823 13.127 3.254 19.839-2.916 34.411-1.313 55.613 5.166 68.312 2.56 5.019 7.198 19.178 7.198 21.976 0 1.179-.848 3.221-1.884 4.539-1.037 1.317-6.198 10.866-11.471 21.219-9.509 18.672-10.724 20.49-21.543 32.239-7.033 7.638-20.274 23.14-21.604 25.294-2.948 4.771-9.619 14.079-10.466 14.602-.538.333-1.725 2.178-2.637 4.1-.912 1.923-5.653 7.866-10.534 13.208-6.326 6.923-10.109 12.153-13.171 18.212-2.363 4.675-6.373 12.1-8.911 16.5-2.539 4.4-5.408 10.475-6.376 13.5-.969 3.025-2.508 6.85-3.421 8.5-2.404 4.344-4.723 12.226-5.329 18.114-.29 2.813-1.69 7.977-3.111 11.475-1.421 3.498-2.752 7.271-2.956 8.385-.449 2.443-3.333 11.867-4.905 16.026-.624 1.65-1.205 3.45-1.292 4-.087.55-.621 2.8-1.188 5-.566 2.2-1.767 10.525-2.668 18.5-2.603 23.033-3.63 29.188-5.982 35.855-.885 2.509-1.062 4.145-.448 4.145.558 0 .735.453.392 1.008-.667 1.08.853 2.8 4.087 4.622 1.345.757 11.706 1.182 31.462 1.29 27.659.151 29.709.038 33.6-1.852 5.009-2.432 13.147-4.362 15.152-3.593.802.308 2.002.108 2.667-.444s6.12-1.038 12.123-1.08c15.644-.109 20.649-1.978 21.824-8.149.261-1.372 2.505-6.612 5.7-13.311 1.051-2.204 2.121-5.096 2.378-6.426.256-1.33 1.034-2.77 1.73-3.2.695-.43 1.268-1.588 1.273-2.573.005-.986.567-1.681 1.249-1.545.681.135 2.429-1.665 3.884-4 1.454-2.336 5.313-6.698 8.575-9.694 9.738-8.944 13.659-21.703 8.405-27.355-3.068-3.3-2.941-2.493-1.18-7.482.783-2.219 1.177-4.281.876-4.582-.301-.301-.197-1.355.23-2.341.428-.986.672-2.625.544-3.643-.129-1.017.64-2.462 1.708-3.21 1.068-.748 2.509-2.728 3.202-4.4.692-1.672 1.654-3.04 2.137-3.04.484 0 .879-.48.879-1.067 0-1.437 6.964-7.933 8.505-7.933.674 0 2.324-.864 3.667-1.921 1.517-1.193 4.678-2.114 8.349-2.432 3.73-.323 6.329-1.089 7.053-2.079 1.352-1.849 3.101-2.044 3.647-.405.464 1.393 3.779 2.05 3.779.749 0-.502.62-.912 1.378-.912 1.837 0 3.698-2.352 3.891-4.92.086-1.144.704-2.08 1.374-2.08.897 0 .973.852.287 3.243-.511 1.784-.93 3.542-.93 3.905 0 .653 5.394.354 10.748-.597 3.204-.568 9.791-7.57 10.752-11.428.36-1.442 1.286-3.973 2.058-5.623.771-1.65 1.569-3.9 1.772-5 .203-1.1.711-2.79 1.129-3.755.417-.965.544-3.44.282-5.5-.387-3.045.299-5.147 3.674-11.245 2.283-4.125 4.959-9.633 5.946-12.24.988-2.606 2.211-4.996 2.718-5.309.506-.313.921-1.667.921-3.01 0-1.343.45-2.441 1-2.441s1-1.049 1-2.331c0-1.281 1.134-4.544 2.52-7.25 1.519-2.963 2.306-5.816 1.98-7.176-.298-1.241-.195-2.164.229-2.05.424.114 2.682-.742 5.019-1.901 2.336-1.16 4.5-1.7 4.809-1.2.308.499 1.362.908 2.342.908 2.753 0 4.246 4.643 3.998 12.431-.222 6.935-.18 7.064 2.189 6.8 1.814-.202 3.842 1.199 8.163 5.641 3.161 3.251 6.963 6.215 8.447 6.588 1.731.434 2.27.943 1.501 1.418-1.409.871-1.471 4.189-.745 40.122.573 28.341 1.027 31.014 5.134 30.228 1.328-.253 2.414-.949 2.414-1.545 0-.735.372-.711 1.158.075.822.822.85 1.531.096 2.45-.95 1.156-1.53 26.792-.606 26.792.318 0 1.534-1.048 6.436-5.546 3.197-2.934 8.208-1.257 7.963 2.665-.082 1.31-.354 7.757-.606 14.327-.251 6.57-.877 12.205-1.39 12.523-.514.317-1.6 1.86-2.413 3.428-1.386 2.671-1.329 3.003.896 5.228 1.306 1.306 3.494 2.375 4.862 2.375 1.367 0 2.777.471 3.133 1.046.355.576 1.844.824 3.309.552 1.464-.271 4.462-.785 6.662-1.141s5.418-1.28 7.151-2.052c1.733-.773 4.217-1.405 5.52-1.405s5.693-.921 9.756-2.047c4.062-1.126 8.008-1.808 8.767-1.517.76.292 1.637-.135 1.949-.947.311-.813 1.003-1.208 1.536-.878 1.215.751 5.821-3.477 5.821-5.344 0-.762.45-1.107 1-.767 1.055.652 1.132.47 1.478-3.5.25-2.872 1.537-8.044 2.356-9.471 1.157-2.016.813-10.119-.521-12.302-.765-1.251-1.294-2.826-1.176-3.5.236-1.358-1.633-8.699-3.305-12.978-.792-2.026-.764-3.126.107-4.176.651-.783 1.043-2.083.872-2.888-.171-.806 1.039-2.976 2.689-4.825 4.389-4.916 8.39-14.408 5.75-13.642-.413.119-2.663-.642-5-1.693-7.183-3.228-5.622-9.129 2.711-10.247 3.396-.455 4.039-.909 4.039-2.851 0-1.27-.457-2.592-1.016-2.937-.559-.346-.758-1.047-.441-1.559.316-.512-.089-.931-.901-.931-.811 0-1.625.449-1.809.998-.472 1.414-6.678 3.062-7.362 1.956-.305-.495-2.338-1.38-4.516-1.966-5.454-1.469-9.321-8.161-6.94-12.012 1.178-1.906-5.537-7.778-10.258-8.97-7.241-1.828-12.671-4.994-14.478-8.442-.748-1.428-2.215-2.564-3.311-2.564-2.16 0-2.718 2.558-.718 3.292 1 .366 1 .723 0 1.783-.688.729-1.25 2.36-1.25 3.625 0 1.265-.45 2.3-1 2.3s-1-.477-1-1.059-.526-.734-1.17-.336c-.772.477-.965.19-.569-.844.331-.862-.092-3.748-.94-6.414-2.35-7.386-1.633-15.347 1.382-15.347 3.896 0 5.935-4.397 7.247-15.629.698-5.979 1.895-14.471 2.658-18.871.764-4.4 1.39-11.719 1.391-16.264.001-8.874.615-10.605 5.742-16.2 3.352-3.656 4.353-8.036 1.837-8.036-.783 0-1.94-1.568-2.573-3.484-.632-1.917-2.878-5.122-4.99-7.123-2.54-2.408-4.26-5.204-5.081-8.266-.684-2.545-1.423-5.302-1.643-6.127-.721-2.699-1.475-28.878-1.792-62.194-.36-37.864-.912-48.208-2.979-55.806-.823-3.025-1.502-7.04-1.508-8.922-.028-8.018-4.22-26.078-6.054-26.078-.439 0-1.096-1.35-1.458-3-.362-1.65-1.017-3-1.454-3-.438 0-1.044-1.238-1.347-2.75-.56-2.795-11.786-15.25-13.745-15.25-.59 0-.846-.366-.57-.812.276-.447-.597-2.092-1.941-3.656S321 35.084 321 34.344c0-.739-.348-1.232-.774-1.094-.425.137-2.766-1.663-5.201-4-2.435-2.338-4.982-4.25-5.659-4.25-.677 0-1.517-.9-1.866-2-.349-1.1-1.279-2-2.067-2-1.897 0-1.845-2.628.067-3.362.825-.316 1.5-1.254 1.5-2.084 0-1.982 4.568-4.934 6.492-4.195.973.373 1.533-.032 1.578-1.14.063-1.525.153-1.51.797.126.651 1.655.847 1.578 1.908-.75.65-1.427 1.642-2.595 2.204-2.595.561 0 1.021-.675 1.021-1.5s-.337-1.407-.75-1.293c-2.088.577-9.105-1.388-9.605-2.689C310.14.202 291.612.022 155.021.006L-.03-.012l.048 135.651M374.221.798c-3.648.174-6.033.698-5.691 1.25.323.524.138.952-.412.952s-1.278-.45-1.618-1c-.34-.55-1.829-.964-3.309-.921-1.48.043-2.126.307-1.435.585 1.771.714.511 2.336-1.815 2.336C358.873 4 358 3.325 358 2.5c0-.833-.889-1.5-2-1.5-1.1 0-2 .498-2 1.107s.669.85 1.486.537c2.024-.777 1.649 4.364-.452 6.188-1.359 1.179-1.334 1.269.216.781.997-.313 1.779-.026 1.818.668.037.671.525.276 1.083-.876 1.57-3.237 8.849-1.112 8.849 2.583 0 .621.406.879.903.572.969-.599 3.278 4.925 2.418 5.786-.284.284-1.035.396-1.669.249-.633-.147-.843-.088-.464.131.378.22-.072 1.225-1 2.235C361.542 27.104 358 32.117 358 33.964c0 1.466 7.919 9.45 8.649 8.72.736-.736 6.381 2.065 6.225 3.088-.293 1.924.256 2.365 1.578 1.268.799-.663 2.28-.942 3.292-.621 2.155.684 5.476 7.327 4.091 8.183-.565.349-.572 1.033-.017 1.737.503.639.791 2.286.64 3.661-.361 3.281-1.442 9.173-1.974 10.75-.232.688.015 1.25.547 1.25.533 0 .969.649.969 1.443 0 1.691 3.942 4.711 5.163 3.956.46-.284.837-.07.837.476s1.096.794 2.436.551c1.34-.243 2.716.012 3.059.566.343.554 1.92 1.008 3.505 1.008s3.16.45 3.5 1c.843 1.364 4.244 1.267 4.711-.134.245-.734.976-.536 2.076.564.934.934 2.151 1.417 2.705 1.075.555-.343 1.015-.034 1.023.686.013 1.069.166 1.071.839.012.657-1.037 1.081-.986 2.107.25.706.851 1.904 1.547 2.661 1.547.758 0 1.378.477 1.378 1.059s.446.783.992.446c.545-.337 2.14.537 3.545 1.941 1.405 1.405 3.235 2.554 4.067 2.554.833 0 1.255.419.939.931-.317.512-.07 1.243.547 1.625.818.505.823.88.017 1.378-.768.474-.622 1.279.475 2.625 1.35 1.657 1.501 1.685 1.031.191-.411-1.309.009-1.746 1.668-1.735 1.615.011 1.852.248.871.87-1.066.676-.868 1.302.951 2.996 2.399 2.235 3.724 7.119 1.931 7.119-.569 0-1.034.702-1.034 1.559s.419 1.3.931.984c.512-.317 1.218-.111 1.569.457.351.568 1.057.774 1.569.457.512-.316.931.614.931 2.067 0 1.662.461 2.489 1.243 2.228 1.61-.536 6.987 6.207 6.325 7.932-.278.724-.083 1.316.432 1.316s.8.562.633 1.25c-.168.688-.125.938.096.556.549-.951 3.271.181 3.271 1.36 0 .524-.45.674-1 .334s-1 .11-1 1 .45 1.34 1 1c.55-.34 1 .256 1 1.324 0 1.133.876 2.172 2.101 2.492 1.156.303 1.804 1.029 1.441 1.617-.363.587-.16 1.067.451 1.067.695 0 1.086 2.158 1.044 5.75-.037 3.162.078 6.875.256 8.25.177 1.375-.05 3.008-.507 3.628-.456.621-.369 2.338.193 3.815 1.307 3.439 1.328 3.33-.729 3.868-1.565.409-1.572.469-.067.573 1.658.114 3.515 3.752 2.456 4.81-.299.299.11 1.198.909 1.996.798.799 1.452 2.347 1.452 3.44 0 1.094.45 1.71 1 1.37.55-.34 1-.141 1 .441s-.562 1.091-1.25 1.129c-.687.039-.35.457.75.93 1.1.473 1.51.891.911.93-1.883.121-.845 5.816 1.783 9.787 1.386 2.095 2.837 4.805 3.223 6.022.386 1.217 2.25 3.806 4.143 5.755 1.892 1.948 3.44 4.257 3.44 5.131 0 1.002.555 1.376 1.5 1.013 1.342-.515 1.956.476 1.618 2.612-.065.412.485.75 1.221.75 1.91 0 3.888 4.772 2.791 6.733-.568 1.014-.384 2.809.506 4.938.769 1.84 1.12 4.454.78 5.808-.393 1.564-.069 3.011.887 3.967.992.992 1.452 3.217 1.351 6.53-.118 3.864.193 5.029 1.346 5.04 1.333.013 1.333.122 0 .984-1.302.842-1.284.971.142.985.91.008 1.921 1.129 2.269 2.515.345 1.375 1.054 2.5 1.577 2.5.522 0 .812.563.645 1.25-.168.688-.116.91.116.494.794-1.424 2.165.317 1.537 1.952-.418 1.091-.238 1.392.544.909.644-.398 1.17-.215 1.17.406 0 .62 1.012.984 2.25.809l2.25-.32.254-126.026.254-126.025-34.254-.264C446.914 1.04 420.025.826 406 .711c-14.025-.116-28.326-.077-31.779.087M190.402 23.725c-.749 1.187-2.149 1.643-4.495 1.463-7.275-.559-12.139 3.438-10.232 8.407.627 1.635.734 1.623 1.52-.168.741-1.687.793-1.647.419.323-.235 1.237-.019 2.25.48 2.25.498 0 .922-1.013.941-2.25.035-2.222.054-2.218 1.465.25.915 1.6 1.442 1.939 1.465.942.019-.856 1.867-2.365 4.105-3.353 2.239-.988 4.461-2.762 4.937-3.942.691-1.714.879-1.794.93-.397.034.962.502 1.75 1.038 1.75.627 0 .636-.893.025-2.5-.634-1.668-.606-2.5.084-2.5.569 0 .756-.45.416-1-.9-1.456-1.865-1.231-3.098.725M227 85.893c-9.543 1.588-19.529 8.559-16.864 11.771.73.88.754 1.336.07 1.336-.572 0-1.24-.562-1.486-1.25-.245-.687-.762-.958-1.149-.601-1.073.991 4.531 5.749 6.075 5.157.745-.286 1.354-.134 1.355.337 0 .471 2.588.804 5.75.74 10.435-.214 28.711 4.994 28.764 8.196.009.507.274 1.371.591 1.921.316.55.482 2.35.368 4-.114 1.65.238 3.563.782 4.25.668.845.625 1.25-.134 1.25-.617 0-1.122 1.145-1.122 2.544 0 1.502-.512 2.441-1.25 2.292-1.899-.381-7.061 1.158-8.75 2.609-2.96 2.544-9.711 2.806-11.366.442-2.8-3.997-7.182-5.941-10.66-4.728-3.832 1.336-9.597.492-12.098-1.771-1.954-1.768-2.62-3.966-.876-2.888.55.34 1 .141 1-.441S204.875 120 203.5 120c-1.833 0-2.5.533-2.5 2 0 1.1-.378 2-.84 2-.462 0-1.406 1.912-2.097 4.25a202.024 202.024 0 0 1-2.52 7.847c-.694 1.979-1.157 6.479-1.027 10 .298 8.153.295 8.138 1.484 7.403.55-.34 1 .208 1 1.218 0 1.011.701 2.838 1.558 4.061.857 1.224 1.339 2.578 1.072 3.011-.267.432.866 1.384 2.519 2.116 1.652.731 3.271 2.064 3.598 2.962.327.897 1.642 2.706 2.923 4.018 1.282 1.313 2.33 3.027 2.33 3.809 0 .821.488 1.121 1.155.71.682-.422.884-.277.493.355-.363.588-.099 1.256.587 1.485 1.479.493-.921 3.19-2.985 3.355-3.474.278-3.735.44-2.25 1.4 1.085.701.185.974-3.25.985-4.47.014-6.28 1.231-3.5 2.353 1 .403 1 .52 0 .583-1.559.099-1.608 3.108-.109 6.782 3.113 7.635 4.091 9.351 5.875 10.306 1.634.874 2.033.645 2.566-1.48.347-1.383.921-2.338 1.275-2.121.354.217 2.323.66 4.376.985 3.328.527 3.798.333 4.33-1.787.431-1.717 1.118-2.241 2.475-1.886 1.038.272 3.075-.45 4.555-1.614 1.472-1.158 3.719-2.106 4.993-2.106 1.274 0 4.926-.71 8.115-1.579 3.19-.868 7.374-1.793 9.299-2.055 5.97-.815 5.829-.554 5.258-9.713-.471-7.554-.3-8.784 1.549-11.135 2.656-3.376 4.561-9.117 3.737-11.264-.351-.914-1.052-11.069-1.558-22.566-.573-13.026-1.355-21.428-2.075-22.295-.927-1.117-.729-1.393.998-1.393 1.185 0 2.406-.658 2.715-1.462.308-.804 1.511-1.763 2.672-2.132 2.492-.791 4.704-2.829 4.704-4.335 0-.589.466-1.071 1.035-1.071.57 0 2.226-.78 3.681-1.733 1.455-.954 3.126-1.785 3.715-1.848.588-.063 1.632-.183 2.319-.267 1.753-.213 1.563-3.095-.25-3.79-.825-.317-1.5-1.231-1.5-2.032 0-.862-.753-1.328-1.846-1.143-1.016.172-2.478-.174-3.25-.769-1.305-1.006-8.386-2.812-15.404-3.928-5.967-.949-24.103-1.329-28.5-.597m53.015 52.69c-.008 1.696.322 3.425.735 3.842.413.417.803 5.105.868 10.417.186 15.31.195 15.393 1.611 14.505.699-.438 2.059-.668 3.021-.509.962.158 1.75-.205 1.75-.807 0-.601.788-1.393 1.75-1.759.962-.366 2.574-1.706 3.58-2.978 1.007-1.272 2.244-2.057 2.75-1.745.506.313.92.177.92-.301 0-.479.802-1.743 1.782-2.809 2.727-2.967 5.889-8.762 5.695-10.439-.095-.825-.241-2.051-.325-2.724-.278-2.241-5.558-4.008-14.149-4.736-4.673-.396-8.829-1.242-9.234-1.88-.41-.644-.745.212-.754 1.923m-28.609 75.462c-1.048.388-4.512.705-7.698.705-3.185 0-6.067.275-6.404.612-.336.337-2.3.343-4.362.013-3.143-.503-3.935-.257-4.882 1.512-.622 1.162-.769 2.113-.327 2.113s1.47 1.077 2.285 2.393c.815 1.316 3.484 4.055 5.93 6.086l4.448 3.694 8.052-.702c10.976-.958 11.304-1.044 15.159-3.985 3.387-2.583 4.57-7.137 2.628-10.11-1.33-2.036-11.363-3.612-14.829-2.331M329 301.843c0 1.261-1.026 2.319-2.873 2.963-2.674.932-2.844 1.303-2.451 5.348 1.365 14.063 1.339 16.626-.171 17.206-.922.353-1.499 1.849-1.49 3.859.01 2.078.314 2.81.83 1.997.45-.709 1.564-.996 2.487-.642 1.083.416 2.365-.189 3.637-1.716 2.128-2.554 2.526-1.828 2.083 3.796-.302 3.835 1.754 3.476 2.293-.4 1.289-9.279.531-23.291-1.355-25.051-1.185-1.104-1.746-2.865-1.597-5.011.126-1.819-.135-3.533-.582-3.809-.446-.275-.811.382-.811 1.46m165.296 25.907c-2.054 3.227-3.394 4.307-4.498 3.625-.439-.271-.798.099-.798.822 0 1.708-5.586 4.176-7.655 3.382-1.841-.707-4.604 1.193-3.748 2.578.316.512.031 1.586-.633 2.387-.665.801-.816 1.456-.336 1.456.479 0 .859 1.688.844 3.75-.015 2.063.582 5.546 1.328 7.741.746 2.195 1.334 6.47 1.307 9.5-.027 3.03-.06 6.999-.074 8.821-.013 1.821-.44 3.055-.947 2.741-.508-.314-1.221.787-1.586 2.447-.366 1.669-1.116 2.737-1.677 2.391-.557-.345-2.047-.074-3.31.602-3.273 1.752-13.882-4.014-22.993-12.495-9.049-8.425-14.507-8.689-14.031-.678.107 1.792-.142 3.465-.552 3.719-1.009.623.117 8.801 1.32 9.586.584.382.526.891-.15 1.309-1.694 1.047-1.316 2.583.468 1.899 1.008-.387 1.491-.106 1.342.781-.338 2.012 1.049 4.914 4.205 8.8 1.903 2.343 2.518 3.912 1.961 5-.447.872-.632 2.087-.41 2.699.221.612-.965 1.679-2.635 2.371-1.671.692-3.038 1.692-3.038 2.221 0 .529-.562.758-1.25.509-2.511-.91-4.625 2.253-4.09 6.122.374 2.71.236 3.278-.53 2.181-.732-1.048-.905 1.472-.589 8.603.4 9.018.237 10.33-1.547 12.386-1.097 1.265-2.001 2.794-2.009 3.397-.009.603-.452.422-.985-.403-.734-1.136-1.001-.651-1.101 2-.072 1.925-.337 2.712-.588 1.75-.252-.962-1.115-1.75-1.92-1.75-1.648 0-.847 1.839 2.503 5.751 1.556 1.817 2.379 2.07 4.267 1.313 1.286-.515 1.851-.966 1.256-1.001-.596-.034-1.084-.757-1.084-1.606 0-1.029.528-1.315 1.584-.859 3.766 1.629 7.215 1.592 9.08-.096 1.289-1.166 4.203-1.891 8.879-2.209 8.189-.558 9.961.992 10.783 9.429.574 5.902-1.57 24.273-3.055 26.174-.988 1.264-1.261 15.151-.378 19.213.384 1.766 3.791 5.518 4.703 5.178.314-.117 1.664.737 2.999 1.898 1.479 1.287 4.166 2.242 6.875 2.444 2.446.184 4.953.73 5.572 1.216.619.485 1.8.901 2.625.923 3.782.104 12.339 2.364 15.983 4.223l4.017 2.05V419.52c0-93.486-.022-94.52-1.977-94.52-1.087 0-2.764 1.238-3.727 2.75M227 343.294c0 1.286-1.346 3.621-3 5.206-2.645 2.534-3 3.548-3 8.562 0 5.52.089 5.706 3 6.288 2.305.461 3 1.141 3 2.934 0 2.179 2.899 7.331 2.968 5.275.018-.518.744-.068 1.614 1 1.35 1.657 1.501 1.685 1.031.191-.505-1.605 2.015-2.44 5.637-1.868.412.065.75-.332.75-.882s.627-1 1.393-1 1.666-.712 2.001-1.583c.992-2.586 3.04-1.019 3.215 2.46.203 4.039.722 4.565 3.044 3.079 1.975-1.264 6.347-7.481 6.347-9.025 0-.512.406-.931.902-.931 1.476 0 3.232-5.977 1.796-6.114-7.791-.742-8.293-.993-7.173-3.593.425-.986.67-2.829.545-4.096s.28-2.914.9-3.661c.776-.935.8-1.56.079-2.006-.577-.356-1.056-.284-1.064.161-.009.445-.379.237-.822-.462-1.235-1.946-11.464 3.81-12.183 6.855l-.553 2.343-2.306-2.306c-1.328-1.328-2.107-3.068-1.836-4.103.64-2.445-.281-3.587-3.535-4.383-2.406-.589-2.75-.382-2.75 1.659" fill="#d3d3d3" fill-rule="evenodd"/></svg>