<svg xmlns="http://www.w3.org/2000/svg" width="500" height="375"><path d="M352.667 72.667c-.367.366-.667 2.158-.667 3.981s-.544 6.487-1.209 10.363l-1.208 7.049-4.542-.665c-2.497-.366-4.906-1.289-5.352-2.051-.447-.763-1.212-1.139-1.702-.836-.503.311-.654-1.854-.347-4.979.359-3.659.174-5.529-.549-5.529-.6 0-1.136 1.688-1.191 3.75-.205 7.72-1.152 8.642-6.4 6.226-4.247-1.955-4.228-1.903-1.485-4.137 1.566-1.277 1.848-1.821.761-1.474-1.025.328-2.107-.135-2.671-1.142-.819-1.463-1.039-1.335-1.61.941-.751 2.991-6.692 4.509-8.608 2.199-.568-.684-1.592-1.03-2.276-.767-.683.262-2.563-.212-4.177-1.054-1.614-.841-3.799-1.532-4.855-1.536-1.057-.003-2.744-.751-3.75-1.661-1.728-1.564-1.829-1.509-1.829 1 0 1.46-.413 2.655-.918 2.655-.505 0-1.63.273-2.5.607-1.188.456-1.582-.028-1.582-1.941 0-3.298 1.604-4.288 2.347-1.448.315 1.207.858 1.911 1.205 1.564.969-.97-.533-4.782-1.884-4.782-.659 0-2.877.9-4.929 2-2.053 1.1-4.414 2-5.249 2-.834 0-2.299.409-3.254.91-.955.5-4.211 1.89-7.236 3.088a775.63 775.63 0 00-6.643 2.656c-1.086.454-.954-12.059.163-15.404.229-.687-.244-1.25-1.051-1.25-1.067 0-1.469 1.193-1.469 4.36 0 11.005-.874 13.36-5.817 15.684-2.507 1.178-6.025 2.381-7.817 2.671-2.296.373-3.382 1.158-3.676 2.657-.23 1.17-.479-2.26-.554-7.622-.075-5.362-.543-9.75-1.041-9.75-.498 0-.667 1.773-.376 3.94.86 6.414-.298 9.383-3.36 8.614-1.842-.462-2.435-.281-2.125.648.236.709 1.286 1.291 2.332 1.294 1.048.002 2.061.83 2.258 1.845.261 1.343-.14 1.739-1.483 1.463-1.013-.207-2.291.203-2.841.911-1.041 1.341-10.975 5.285-13.312 5.285-1.036 0-1.266-1.817-1.014-8.002.241-5.91-.001-8.002-.924-8-.892.001-1.25 2.21-1.25 7.702 0 5.533-.305 7.395-1.084 6.616-.597-.597-1.957-.856-3.024-.578-1.724.451-1.764.635-.361 1.661 2.493 1.823.807 4.115-4.831 6.568-2.86 1.243-5.981 2.66-6.936 3.147-4.287 2.187-4.764 1.367-4.764-8.184 0-8.74-.079-9.057-2.172-8.75-1.194.176-2.357.883-2.583 1.571-.261.792.167 1.028 1.167.644 1.372-.526 1.503.228.999 5.75-.775 8.488-.907 8.788-3.6 8.163l-2.311-.536 2.259 1.677c1.805 1.34 2.006 1.921 1 2.896-1.257 1.218-16.858 7.655-18.553 7.655-.493 0-.825-4.497-.738-9.993.087-5.497-.145-10.485-.516-11.085-1.202-1.945-2.069 3.324-1.947 11.828.134 9.333.361 9.142-7.922 6.682-7.217-2.143-7.591-1.101-.458 1.276 3.162 1.054 5.896 2.355 6.074 2.889.331.994-13.519 7.403-15.997 7.403-.753 0-1.682.313-2.064.696-1.081 1.08-3.638 1.232-3.638.216 0-.502.398-.912.883-.912 1.2 0 2.138-3.869 1.095-4.514-.459-.284-1.031.504-1.27 1.749-.24 1.246-.497-.997-.572-4.985-.199-10.611-2.136-9.115-2.136 1.65v8.9l-7.75-2.773c-13.633-4.878-14.247-5.221-14.282-7.996-.029-2.318-.144-2.383-1.36-.781-.731.963-2.066 1.75-2.968 1.75-1.55 0-2.146 1.256-1.66 3.5.119.55.369 10.45.556 22 .187 11.55.612 25.275.945 30.5.942 14.785 1.366 22.421 2.053 37 .35 7.425.809 16.65 1.019 20.5.211 3.85.697 13.075 1.082 20.499.529 10.213.922 12.83 1.615 10.75.504-1.512 1.442-2.751 2.083-2.754 1.87-.008 7.43-4.917 5.617-4.959-.853-.02-2.083.497-2.733 1.147-1.816 1.816-1.957 1.145-2.35-11.183-.329-10.318-.195-11.472 1.308-11.223.921.152 1.96-.186 2.309-.75.947-1.534 2.516-1.239 2.516.473 0 .933.944 1.5 2.5 1.5 2.202 0 2.514.448 2.616 3.75.064 2.063.326 2.939.584 1.947.42-1.622.723-1.547 3.02.75 1.404 1.404 3.166 2.553 3.916 2.553 2.546 0 1.34 1.491-3.636 4.5-2.729 1.65-4.971 3.337-4.981 3.75-.029 1.142 1.271.845 3.422-.782 1.068-.807 2.98-1.468 4.25-1.468s2.354-.562 2.409-1.25c.055-.687.46-.125.9 1.25 1.318 4.115 1.164 22.436-.2 23.8-.933.933-.84 1.2.42 1.2 1.621 0 2.11 2.668 3.115 17 .174 2.475.394-.553.49-6.729l.175-11.228 2.572 1.172c2.082.948 2.743.897 3.473-.272.628-1.004.432-1.546-.647-1.781-2.084-.454 1.133-4.201 3.507-4.083 1.034.051 1.155.256.345.583-1.353.546-1.748 3.338-.472 3.338 1.666 0 4.035-3.787 3.01-4.812-1.431-1.431 4.189-4.184 7.974-3.906 2.961.216 2.989.276 3.611 7.619.973 11.484.858 13.125-.873 12.461-.825-.317-1.5-.078-1.5.531s.675 1.107 1.5 1.107c2.351 0 1.756 1.952-.903 2.963-1.321.503-2.698 1.391-3.059 1.975-.891 1.443-.505 1.36 4.033-.86 4.598-2.249 4.014-3.802 5.053 13.422.817 13.538.996 13.375 1.915-1.75.588-9.673.844-10.75 2.557-10.75 1.047 0 1.904.483 1.904 1.073 0 .591.782.923 1.739.739 2.545-.49 4.861 2.327 5.574 6.782.361 2.253 1.568 4.676 2.853 5.725 2.128 1.739 1.405 3.608-1.416 3.666a.78.78 0 00-.75.782c0 .422 1.791.814 3.979.871 2.466.065 3.741-.282 3.351-.913-.402-.651.34-.774 2.063-.341 1.82.456 3.186.18 4.22-.854 1.794-1.794 3.387-1.993 3.387-.423 0 .609.661.853 1.468.544.807-.31 1.734-.133 2.059.393 1.167 1.888 3.73 1.048 3.183-1.044-.564-2.157.824-2.815 1.582-.75.363.99.742.982 1.825-.042 1.153-1.09 1.134-1.438-.125-2.234-1.253-.792-1.2-.946.329-.959 1.002-.008 2.532-.725 3.4-1.593.923-.924 2.448-1.347 3.678-1.022 1.435.38 2.648-.15 3.829-1.672 1.698-2.19 1.728-2.134 1.758 3.272.04 7.045 1.111 16 1.913 16 .341 0 .638-1.237.659-2.75.253-18.199.403-19.48 2.192-18.738.963.399 2.313.748 3 .774.688.026 1.25.647 1.25 1.381 0 .733.477 1.333 1.059 1.333s.781-.45.441-1-.086-1 .563-1c.881 0 .865-.382-.063-1.5-1.681-2.025-.971-1.911 6.192 1 8.298 3.372 8.808 3.285 8.808-1.5 0-3.098.383-4 1.7-4 1.322 0 1.433-.267.5-1.2-1.655-1.655-1.502-2.8.375-2.8 1.177 0 1.493-.82 1.25-3.235-.259-2.583.078-3.311 1.675-3.615 1.1-.21 2.372-.892 2.826-1.516.605-.831.962-.8 1.333.116.279.688 1.708 1.253 3.174 1.256 1.467.004 3.981.692 5.588 1.529 3.492 1.822 4.696.946 5.082-3.698.153-1.835.327-3.644.387-4.02.061-.375 1.094-.995 2.297-1.376 2.001-.635 2.043-.799.5-1.928-2.48-1.813-2.057-2.644.962-1.886 1.777.446 2.43.31 1.984-.412a1.274 1.274 0 01.419-1.747c.596-.369.843-1.3.548-2.069-.735-1.913 2.796-1.832 4.4.101.685.825 2.288 1.5 3.563 1.5 1.276 0 2.602.457 2.947 1.016 1.269 2.053 2.224-.119 2.884-6.557.815-7.958 2.272-10.936 4.339-8.869 1.175 1.175 1.747 1.142 3.831-.224 2.014-1.319 3.201-1.415 6.661-.537 5.096 1.294 4.521 1.909 5.48-5.865.682-5.527 1.086-6.461 2.796-6.463 1.294-.001 1.904-.579 1.731-1.639-.241-1.472.115-1.502 3.5-.294 7.388 2.636 9.083 1.624 9.325-5.568.074-2.205.173-2.271.845-.554.732 1.871.784 1.863 1.324-.202.309-1.181.169-2.282-.312-2.446-.48-.164-.593-2.02-.25-4.125.342-2.105.896-3.4 1.229-2.877.57.892 9.618 3.204 12.54 3.204.908 0 1.563-2.135 2.049-6.68.64-5.971 2.292-12.524 2.455-9.737.034.596.626 1.117 1.313 1.159.688.041 3.323.393 5.856.783l4.606.707.831-5.366c.457-2.951.862-6.041.9-6.866.049-1.051.966-1.416 3.063-1.219l2.994.281-2.25-1.941c-2.248-1.939-3.157-7.121-1.25-7.121.55 0 1 .436 1 .969 0 .532.675.709 1.5.393 1.097-.421 1.5.125 1.5 2.031 0 1.434.423 2.607.941 2.607 1.854 0 1.845-1.574-.033-5.434-2.289-4.706-2.261-4.216-.281-4.976.894-.344 2.32-.054 3.168.643 1.35 1.109 1.462.863.899-1.983-.374-1.885-.234-3.25.331-3.25.536 0 .975 1.827.975 4.059 0 2.82-.353 3.841-1.158 3.344-.811-.502-.965.003-.513 1.691.354 1.323.696 4.431.76 6.906l.116 4.5 1.435-6c.789-3.3 1.653-8.475 1.919-11.5.266-3.025.696-6.091.956-6.814.259-.723.754-5.785 1.099-11.25l.627-9.936-2.871.022-2.87.022 2.182 1.728c1.635 1.295 2.044 2.422 1.631 4.493-.552 2.764-2.313 4.846-2.313 2.735 0-.615-.45-.84-1-.5-.55.34-1 1.754-1 3.142 0 3.384-2.401 2.544-2.818-.986-.175-1.479-.689-2.46-1.143-2.18-2.213 1.367-2.232-9.523-.046-25.976.858-6.452 1.455-12.409 2.481-24.718.216-2.594 1.138-9.474 2.05-15.288 1.299-8.285 1.397-10.884.453-12.021-2.479-2.988-3.512 1.016-1.495 5.795.41.972.263 2.997-.328 4.5-.59 1.503-1.065 3.857-1.055 5.232.025 3.432-1.776 15.861-2.029 14-.112-.825-.859.525-1.66 3-.801 2.475-1.235 5.72-.966 7.211.288 1.589-.088 3.29-.908 4.11-.769.769-1.579 3.149-1.799 5.289-.304 2.945-.445 2.433-.584-2.11-.129-4.2-.466-5.553-1.127-4.508-.518.82-.688 2.508-.376 3.75.312 1.242.108 2.258-.454 2.258-1.483 0-2.732-8.321-1.319-8.792.618-.206 1.123-.998 1.123-1.76s-.616-1.149-1.369-.86c-2.055.789-2.404-2.192-1.298-11.088.547-4.4 1.034-12.46 1.081-17.912.06-6.936.459-10.038 1.327-10.331.924-.311.848-.811-.298-1.956-1.879-1.88-2.923-1-3.005 2.536-.218 9.279-.169 9.165-3.688 8.479-1.788-.348-3.4-1.012-3.583-1.475-.184-.462-1.196-.841-2.25-.841-1.07 0-1.917-.689-1.917-1.559 0-.857.45-1.281 1-.941 1.368.845 1.266-.834-.136-2.236-.847-.847-.72-1.55.5-2.771 1.957-1.957 2.082-3.176.386-3.747-.975-.328-.948-.787.122-2.083.893-1.081.98-1.663.25-1.663-.617 0-1.122-1.35-1.122-3 0-4.255-1.816-3.734-2.19.628-.278 3.256-.863 3.923-5.698 6.5-2.964 1.58-5.616 2.872-5.893 2.872-.278 0-.195-4.5.184-10 .676-9.812.607-10.677-.736-9.333M189.25 123.655c-6.456 2.641-8.329 4.825-3.5 4.079 1.512-.233 2.075-.208 1.25.055-1.543.493 8.175 4.132 11.168 4.183 1.356.023 1.599-.766 1.3-4.222-.202-2.338-.39-4.812-.418-5.5-.074-1.849-2.806-1.457-9.8 1.405m-64.123 14.296c.234 9.131.884 11.04 3.167 9.304.663-.504 4.581-2.138 8.706-3.63 13.655-4.938 13.598-4.775 3.111-8.973-11.477-4.593-11.079-4.65-11.279 1.598l-.168 5.25-.582-5.922c-.348-3.544-1.106-6.095-1.886-6.351-1.019-.336-1.253 1.569-1.069 8.724m41.123-4.681c-5.381 2.069-8.25 3.707-8.25 4.71 0 1.973 13.195 6.934 13.78 5.181.213-.639 1.474-1.161 2.803-1.161 2.287 0 2.417-.322 2.417-6 0-7.075.33-6.992-10.75-2.73M147 141.021c-1.595.961-17.155 8.226-18 8.404-1.953.412-3.085 2.104-2.633 3.934.291 1.178.782 9.566 1.091 18.641.663 19.46 1.528 30.348 2.345 29.53 1.077-1.076 1.086-3.844.042-12.383-.58-4.735-.695-10.928-.263-14.056l.774-5.591.748 4.5c.411 2.475.781 7.918.822 12.096.147 15.059 1.287 25.904 2.724 25.904.742 0 1.35.736 1.35 1.635 0 1.21.519.975 2-.908 1.1-1.398 2-3.394 2-4.435 0-1.04.54-2.432 1.2-3.092.933-.933.933-1.2 0-1.2-.66 0-1.2-.436-1.2-.969 0-.532.683-.706 1.519-.385 1.274.488 1.351.142.478-2.153-.743-1.956-.717-3.126.093-4.102.698-.84.839-2.427.368-4.128-1.655-5.97 3.406-19.263 7.334-19.263.691 0 .97-2.579.784-7.25-.159-3.988-.353-11.412-.432-16.5-.145-9.287-.377-9.896-3.144-8.229m8 1.549c0 .786.454 1.43 1.008 1.43.598 0 .5.814-.24 2-.995 1.593-.997 2.404-.009 3.986 1.705 2.73 1.564 6.014-.259 6.014-.825 0-1.5.73-1.5 1.622 0 1.313.28 1.39 1.466.406.807-.669 2.044-1.023 2.75-.785 2.919.983 5.401-7.424 2.534-8.581-.78-.314-.623-.534.417-.583.916-.043 1.873.484 2.125 1.171.366 1 .723 1 1.783 0 1.09-1.028 1.012-1.25-.442-1.25-1.276 0-1.601-.524-1.171-1.882.615-1.935-.129-2.475-5.712-4.152-2.103-.632-2.75-.49-2.75.604m3 128.871c0 4.157.395 7.559.878 7.559 1.351 0 2.893-2.254 3.276-4.79.19-1.259.796-2.172 1.346-2.029.55.143.868.836.706 1.539-.461 2.007 1.064 1.535 6.373-1.97 4.716-3.115 4.809-3.263 2.226-3.561-1.82-.21-2.522-.763-2.162-1.702.42-1.095-.281-1.266-3.305-.808-3.825.579-7.08 2.321-4.338 2.321 1.028 0 1.104.296.287 1.113-1.453 1.453-3.287.275-3.287-2.113 0-1.035-.45-2.16-1-2.5-.633-.391-1 2.156-1 6.941m30.18 10.332l-.18 10.273 2.75-1.749c1.512-.962 3.11-2.322 3.55-3.023.44-.701 1.34-1.281 2-1.29 1.674-.022 7.791-5.56 7.008-6.343-1.197-1.196-3.308-.648-3.308.859 0 2.1-1.289 1.867-2.768-.5-1.248-1.999-4.232-2.786-4.232-1.117 0 .486-.877 1.113-1.95 1.394-1.691.442-1.998-.104-2.319-4.134-.204-2.554-.452-.02-.551 5.63" fill="#d3d3d3" fill-rule="evenodd"/></svg>