<svg xmlns="http://www.w3.org/2000/svg" width="500" height="801"><path d="M222.081.95c-1.811 1.119 1.796 3.129 4.507 2.512 3.941-.898 14.364-1.109 15.614-.316.985.625.902.827-.345.839-.904.008-1.902.69-2.219 1.515-.749 1.953-.336 1.896 3.588-.496 1.801-1.098 4.061-1.998 5.024-2 .963-.002 1.75-.356 1.75-.786 0-.43 1.15-.877 2.555-.993 1.481-.123 2.297.206 1.941.782-.338.546-1.6 1-2.805 1.008-1.656.012-1.851.231-.796.899 1.194.756 1.194.95 0 1.341-.767.252-.608.34.355.195.963-.144 1.75.06 1.75.454 0 1.053 16.441.085 16.833-.99.184-.503.801-.914 1.373-.914.587 0 .445.716-.326 1.644-1.218 1.468-1.11 1.564 1.003.893 1.629-.517 2.154-.406 1.683.356-.376.609-.245 1.107.292 1.107.536 0 1.202-.562 1.48-1.25.277-.687.54-.337.583.779.043 1.116-.797 2.661-1.867 3.432-1.977 1.425-1.821 3.631.17 2.401.647-.401.797-.206.371.483-.392.635-.21 1.155.405 1.155s.797.52.405 1.155c-.473.763-.271.88.595.345.873-.539 1.068-.419.585.362-.398.644-1.051.968-1.452.72-.401-.247-1.382-.037-2.181.469-1.166.737-1.058.924.548.949 1.565.024 1.693.225.588.925-1.184.749-1.122 1.183.384 2.69 1.061 1.061 1.355 1.943.718 2.155-.593.198-.952.893-.798 1.545.154.652.091.848-.139.435-.231-.412-.859-.75-1.395-.75-.537 0-.698.45-.358 1 .34.55.141 1-.441 1S271 27.59 271 27.088c0-1.068-1.909-.901-3.9.342-.77.48-3.426 1.03-5.903 1.222l-4.504.349 2.189-1.899c1.274-1.105 3.427-1.812 5.153-1.693 1.631.113 2.965-.116 2.965-.508 0-.393 1.012-.522 2.25-.287 1.867.354 1.936.288.403-.391-1.672-.74-1.696-.942-.261-2.133.872-.724 1.31-1.764.972-2.31-.386-.625-.884-.556-1.344.187-.536.868-1.146.764-2.303-.393-1.694-1.694-5.224-2.204-4.241-.612.367.592-3.734.977-10.691 1.004-6.207.023-12.997.448-15.089.945-3.376.801-8.691 5.287-8.695 7.339 0 .413-.499.75-1.108.75-.609 0-.848-.675-.531-1.5.316-.825.192-1.5-.277-1.5-.468 0-1.092.92-1.387 2.045-.574 2.196-7.156 2.652-10.948.758-1.048-.523-1.75-.495-1.75.071 0 .532-2.64.768-6.055.541-3.828-.255-5.831-.04-5.445.584.768 1.244-4.537.987-6.25-.303-.849-.639-1.255-.501-1.265.432-.013 1.148-.156 1.151-.873.019-.617-.974-1.384-1.079-2.735-.376-1.032.538-2.777.65-3.877.249-1.214-.443-2.886-.15-4.255.744-1.809 1.181-2.55 1.227-3.75.232-1.259-1.045-1.515-.827-1.62 1.382-.069 1.442-.192 3.185-.274 3.872-.205 1.726 1.584 3.417 3.617 3.417.932 0 1.527-.271 1.322-.602-.204-.331 1.39-.434 3.544-.228 2.54.242 3.916-.039 3.916-.799 0-.762.788-.922 2.25-.456 2.937.937 8.944.7 9.676-.381 1.15-1.697 3.956-2.048 5.123-.642 1.631 1.965 3.034 1.82 2.246-.233-.492-1.282-.239-1.518 1.083-1.011 1.016.39 1.477.26 1.122-.315-.35-.567.09-.711 1.049-.343.936.36 2.036.029 2.537-.761.707-1.117.886-1.047.899.354.008.962.69 1.75 1.515 1.75s1.5.505 1.5 1.122c0 .801.368.817 1.284.058.813-.676 1.82-.726 2.75-.138 1.137.719.905.949-1.034 1.022-2.411.091-2.394.132.474 1.173 2.689.976 2.785 1.153 1 1.851-1.606.628-1.659.785-.283.842.93.038 1.966-.375 2.302-.919.377-.609 1.512-.398 2.959.55 1.292.846 2.544 1.178 2.784.739.24-.44.285-.201.1.532-.185.732-.336 1.993-.336 2.801 0 .964-.866.535-2.514-1.243l-2.514-2.712-2.3 2.161c-2.272 2.133-4.275 2.946-3.275 1.328.283-.459-.12-.834-.897-.834s-1.18.375-.897.834c.283.458-.213.833-1.103.833s-1.369-.403-1.065-.895c.305-.493-.104-1.148-.909-1.457-.804-.308-1.712-.156-2.018.339-.306.496-2.341.801-4.523.679-2.181-.122-4.089.146-4.239.596-.384 1.151-14.87 2.336-18.614 1.522-.347-.075-2.432.302-4.632.84-2.2.537-8.725.911-14.5.831-9.775-.136-16.843 1.401-12.82 2.786.726.25-.355.657-2.401.903-2.489.299-3.888.013-4.225-.863-.355-.926.22-1.18 1.955-.865 1.352.245 2.709.04 3.016-.456.764-1.237-4.58-2.475-5.382-1.247-.746 1.142-4.143 1.313-4.143.209 0-.41-.787-.594-1.75-.41s-3.47.369-5.571.411c-3.522.071-3.695.204-2.203 1.696.891.891 1.882 1.356 2.203 1.035.321-.321 1.425-.134 2.452.416 1.266.678 1.869.666 1.869-.035 0-.569.477-1.035 1.059-1.035s.841.354.573.786c-.267.432.349.785 1.368.785 1.019 0 1.635-.353 1.368-.785-.804-1.301.676-.885 2.17.609 1.193 1.193.891 1.489-2.089 2.049-1.915.359-3.995.337-4.621-.05-.698-.432-.862-.258-.423.451.729 1.182.166 1.351-4.655 1.398-1.512.015-2.75.341-2.75.724 0 .384-1.601 1.189-3.558 1.789-2.689.826-3.463.806-3.168-.082.215-.646 1.704-1.458 3.308-1.806 2.71-.586 2.633-.648-1.082-.866-2.2-.129-3.207-.441-2.238-.694.969-.253 1.505-.875 1.191-1.384-.314-.508-.132-.924.405-.924.536 0 1.182.562 1.434 1.25.366 1 .723 1 1.783 0 1.091-1.029 1.025-1.25-.375-1.25-.935 0-1.7-.477-1.7-1.059s.45-.781 1-.441 1 .192 1-.33c0-2.033-12.404-2.822-27-1.717-4.675.354-10.662.797-13.305.984-2.643.187-5.028.563-5.301.835-.272.272-2.024.15-3.894-.272-1.87-.422-3.647-.519-3.95-.217-.302.303-.55.094-.55-.463 0-.629-3.639-.927-9.612-.786-8.342.197-9.825-.021-11.222-1.653-1.645-1.922-4.78-2.683-3.673-.892.351.568-.054.733-.952.388-1.104-.423-1.393-.156-.984.911.502 1.307-1.14 1.471-12.239 1.216-7.05-.162-13.718-.509-14.818-.771-1.1-.262-2.543-.045-3.206.482-.664.526-1.645.686-2.181.355-.536-.332-1.276-.115-1.645.482-.369.596-1.323.834-2.121.528-.81-.311-1.181-.121-.84.431.902 1.46-.438 1.201-2.031-.392-.759-.759-1.102-1.659-.762-2 .341-.34.094-.619-.547-.619C6.525 48 6 47.523 6 46.941c0-.597.546-.718 1.25-.279 3.048 1.902 4.593 1.405 3.412-1.099-.621-1.316-1.443-2.198-1.827-1.961-.383.237-.98-.028-1.327-.588-.426-.691-1.255-.684-2.569.018-1.335.715-1.939.716-1.939.003 0-.569.788-1.042 1.75-1.05 1.496-.013 1.532-.157.25-.985-1.244-.804-1.159-.975.5-1 1.659-.025 1.744-.196.5-1-.825-.533-1.05-1.021-.5-1.084.55-.064-.125-.45-1.5-.858-1.375-.409-2.806-.582-3.18-.385-.374.197-.658 18.239-.631 40.093C.222 103.839.551 115.703 1.22 114c.757-1.929 1.631-11.87 1.77-20.125.005-.344 1.212-.625 2.682-.625s3.207-.731 3.86-1.625c1.776-2.428 6.723-1.998 10.062.874 1.599 1.374 3.243 2.499 3.656 2.5 1.715.003.702 6.921-1.21 8.26-3.387 2.373-4.445 30.124-1.374 36.062 1.121 2.168 1.35 4.393.859 8.329-.668 5.339-.654 5.374 2.263 5.958 2.122.424 3.409 1.597 4.649 4.239 2.786 5.938 5.952 10.139 7.646 10.146.871.004 1.87.293 2.219.642.349.35 2.112.795 3.917.991 7.303.79 10.506 2.431 11.357 5.82.524 2.087.936 2.276 3.262 1.493 2.862-.962 4.924-.844 6.912.398.688.43 1.25.359 1.25-.157 0-1.306 5.646-3.517 6.94-2.717.638.394 1.135-.463 1.248-2.154.103-1.545.333-4.384.512-6.309.178-1.925.455-17 .615-33.5.292-30.154 1.02-37.24 4.313-41.973.754-1.084 1.372-2.997 1.372-4.25 0-1.653.617-2.316 2.25-2.418 4.547-.285 8.259.22 8.583 1.168.184.535 1.118.973 2.076.973 3.517 0 8.082 6.861 8.106 12.184.012 2.604.241 2.994 1.066 1.816.822-1.174.913-1.011.417.75-.348 1.237-.233 2.25.256 2.25s1.896 2.226 3.125 4.947c1.486 3.287 2.698 4.769 3.615 4.417.759-.291 1.164-1.092.9-1.78-.264-.688.195-1.251 1.019-1.251.824 0 1.267.375.984.834-.283.458.133.833.926.833 1.028 0 1.443-1.22 1.449-4.25.004-2.338-.205-3.687-.465-3-.756 1.995-3.329 1.515-2.681-.5.387-1.204.283-1.363-.334-.51-.638.881-1.231.302-2.051-2-1.253-3.519-1.452-11.74-.284-11.74.397 0 1.277-1.219 1.956-2.709 1.062-2.33.987-2.891-.535-4.004-1.9-1.389-1.338-2.478 2.406-4.653 1.073-.624 3.148-1.981 4.609-3.016 2.523-1.786 2.755-1.794 4.57-.152 1.051.952 2.445 1.4 3.099.996.653-.404 8.149-.865 16.657-1.026 8.509-.161 17.115-.559 19.126-.885 2.01-.326 11.53-1.015 21.155-1.531 9.625-.516 18.471-1.224 19.659-1.572 1.586-.465 2.285-.144 2.634 1.209.426 1.653.487 1.663.591.093.064-.963.552-1.75 1.085-1.75.532 0 .715.787.405 1.75-.339 1.053-.227 1.323.282.677C207.9 70.846 211 69.898 211 71.099c0 .57.862.762 1.916.428 1.054-.335 2.206-.139 2.561.435.447.724 1.242.724 2.599-.002 1.498-.802 2.085-.703 2.518.424.31.809 1.429 1.304 2.485 1.101 1.057-.204 1.921-.021 1.921.406 0 .948.183.974 12.127 1.675 6.801.399 11.854.106 17.208-1 9.243-1.909 14.659-2.026 14.68-.316.012.972.197.965.831-.035.546-.86 3.762-1.356 9.735-1.5 4.905-.118 9.25-.665 9.654-1.215.406-.553.773-.106.82 1 .081 1.891.126 1.898.821.127.692-1.759.838-1.77 2.43-.178 1.263 1.263 1.694 1.348 1.694.335 0-.747 1.007-1.434 2.237-1.527 1.759-.132 1.919.033.75.772-1.18.746-1.01.944.822.956 1.342.009 2.041-.419 1.668-1.022-.69-1.117 2.379-1.181 13.773-.289 3.712.291 6.75.965 6.75 1.499 0 2.922 3.057 3.827 12.929 3.827 6.047 0 10.071-.4 10.071-1 0-1.08-.06-1.092-7.5-1.551-2.75-.17-5.45-.347-6-.394-3.216-.275 2.328-1.682 5.794-1.47 2.313.142 6.301.293 8.862.336 4.053.069 4.593.324 4.163 1.966-.629 2.407.167 2.858 5.683 3.217 2.474.162 5.974 1.104 7.778 2.095 1.805.99 3.947 1.801 4.76 1.801.814 0 2.25.9 3.192 2 1.697 1.982 5.939 2.895 4.786 1.029-1.081-1.749 3.938-2.162 7.499-.618 1.915.831 2.808 1.535 1.983 1.565-1.224.045-1.251.213-.143.914 2.191 1.389-.371 2.245-3.338 1.117-1.457-.554-3.182-.993-3.834-.975-1.593.043 2.344 2.968 3.995 2.968.713 0 2.09.646 3.059 1.435.968.79 3.758 2.929 6.199 4.754 2.441 1.825 4.392 3.767 4.335 4.315-.057.548.364 1.559.934 2.246.758.913.6 1.25-.585 1.25-.892 0-1.622-.47-1.622-1.044 0-.574-.562-.971-1.25-.881-2.635.342-3.636-.142-4.242-2.049-.853-2.688-6.275-6.395-9.699-6.632-1.542-.107-2.579.169-2.305.613.717 1.159-3.321.086-8.188-2.176-2.301-1.07-5.226-1.999-6.5-2.065-1.274-.066-2.898-.561-3.608-1.101-.847-.642-1.637-.636-2.292.019-3.017 3.017 27.67 26.316 34.662 26.316.917 0 1.42.562 1.145 1.278-.279.728 2.034 3.187 5.368 5.707 4.152 3.139 5.501 4.687 4.633 5.316-.829.601-.659.706.526.325.962-.31 1.75-.127 1.75.405 0 .533.337.876.75.763 1.607-.44 7.289 3.334 6.628 4.403-.416.674-.232.831.467.398.674-.416 1.207-.064 1.28.846.228 2.842.369 3.386 1.056 4.073.375.375.416 1.425.091 2.334-.325.908-.231 1.326.209.928.895-.81 4.519 5.381 4.519 7.72 0 1.675-.58 1.759-3.5.504-1.1-.473-1.411-.891-.691-.93.72-.038 1.026-.527.681-1.086-.346-.559-1.117-.715-1.714-.346-.693.429-.793.198-.276-.638.5-.809.416-1.066-.22-.673-1.873 1.157-6.335-4.016-6.102-7.075.264-3.467-1.063-6.057-2.178-4.252-.536.867-.945.898-1.434.107-.376-.609-.152-1.107.497-1.107.881 0 .865-.382-.063-1.5-1.853-2.233-2.784-1.819-2.245 1 .263 1.375.902 2.5 1.421 2.5.518 0 .676.43.351.956-.91 1.473-3.301.134-3.156-1.766.071-.93-.391-1.592-1.026-1.472-.635.12-1.428-.492-1.761-1.361-.431-1.121-.168-1.411.905-1 3.118 1.197 1.4-2.182-1.909-3.752-1.88-.892-3.568-1.956-3.75-2.364-.763-1.712-10.157-7.472-12.396-7.601-1.338-.077-2.433-.478-2.433-.89-.001-.412-1.606-.75-3.568-.75-2.929 0-3.475.313-3.048 1.75 1.358 4.568 1.586 35.796.278 38.094-.961 1.688-1.11 3.763-.535 7.404.44 2.783.58 5.416.311 5.851-.269.436-.532 7.324-.583 15.307-.064 9.826-.444 14.447-1.176 14.304-.658-.128-.974 1.25-.807 3.515.152 2.049-.051 4.253-.45 4.899-.399.646-.822 4.37-.94 8.275-.119 3.906-.59 10.701-1.047 15.101-.458 4.4-.811 8.675-.786 9.5.424 13.907.372 13.555 1.743 11.749.731-.963 1.114-2.876.852-4.25-.263-1.375-.06-2.499.452-2.499.511 0 1.031-1.965 1.155-4.367.125-2.401.664-6.789 1.199-9.75.535-2.96 1.41-10.558 1.946-16.883 1.828-21.585 5.108-44.127 7.315-50.262 4.517-12.561 6.258-7.165 5.41 16.763-.322 9.076-.174 16.752.338 17.561.686 1.085.913 1.116.925.129.008-.72.472-1.026 1.031-.681 1.462.904.049 2.729-1.617 2.09-.77-.296-1.428-.439-1.463-.319-.036.121-.281 3.144-.545 6.719s-.877 7.625-1.363 9c-1.535 4.345-2.302 12.288-1.117 11.555.654-.404.836-.058.471.893-.328.854-.146 1.552.404 1.552 1.514 0 2.272-2.801.908-3.356-.908-.37-.902-.505.025-.565.716-.046.955-.764.58-1.743-.43-1.119-.256-1.427.531-.941.644.398 1.17.246 1.17-.336 0-.582-.45-1.059-1-1.059s-1-.661-1-1.469c0-.894.586-1.243 1.5-.893.825.317 1.5.051 1.5-.59s-.35-.949-.779-.685c-.428.265-.766-1.396-.75-3.691.016-2.294.366-4.285.779-4.422 2.458-.819 2.892.082 2.524 5.25-.246 3.445.004 5.506.667 5.515.582.009.431.413-.337.899-.792.502-1.121 1.6-.76 2.54.584 1.521.836 1.509 3.114-.149 2.724-1.983 3.396-5.305 1.073-5.305-.929 0-1.245-.582-.86-1.584.489-1.275.772-1.324 1.453-.25 1.14 1.799 1.036-2.966-.124-5.666-.71-1.653-.884-1.393-1 1.5-.113 2.807-.297 3.104-.932 1.5-.914-2.311-.278-4.662 1.565-5.776.706-.427 1.001-1.514.656-2.414-.455-1.184-.262-1.411.696-.82.851.527 1.084.431.653-.266-.369-.597-.195-1.38.386-1.739.582-.359.796-1.478.476-2.485-.32-1.007-.113-2.121.459-2.475.618-.381 1.096.5 1.177 2.166.126 2.593.171 2.624.591.397.362-1.919.657-2.123 1.445-1 .704 1.004.813.545.379-1.588-.451-2.211-.345-2.605.403-1.5.751 1.109 1.019.163 1.031-3.628.01-3.322.543-5.565 1.515-6.372 1.534-1.273 2.028.772 1.57 6.5-.122 1.528.06 1.677.768.63.76-1.121 1.108-1.048 1.918.399.849 1.516 1.171 1.223 2.247-2.038 1.256-3.807 1.257-3.808 2.539-1.412.705 1.318 1.027 2.809.716 3.313-.312.504-.053.599.576.211.767-.475.93-.115.495 1.095-.356.991-.279 1.467.172 1.058 1.241-1.126 3.729 3.031 4.571 7.64.506 2.762.372 4.337-.411 4.835-.734.467-.769.744-.094.754.712.01.957 3.726.737 11.149-.293 9.85-.156 10.988 1.182 9.877.833-.691 1.543-.863 1.577-.383.035.479.463-.12.952-1.333.488-1.213.708-3.138.488-4.277-.219-1.139-.014-1.834.456-1.543.47.29.64-.485.379-1.724-.376-1.78-.266-1.929.525-.712.55.847.919 3.638.82 6.202-.111 2.874.348 5.16 1.197 5.96 1.157 1.091 1.275.863.737-1.424-.455-1.931-.274-2.634.621-2.414.694.17.925.12.512-.11-.413-.231-.75-1.759-.75-3.395 0-1.637.41-2.723.911-2.413.502.31 1.216-1.238 1.588-3.441.418-2.474 1.219-4.004 2.096-4.004 1.076 0 1.35-1.213 1.132-5-.159-2.75.063-5 .492-5 .43 0 .788.787.796 1.75.013 1.496.157 1.532.985.25.646-1 .974-1.083.985-.25.008.688.465 1.25 1.015 1.25.55 0 .888-.506.75-1.125-.137-.619.237-1.306.833-1.528.596-.221 1.157.172 1.247.875.091.703.397 3.28.681 5.728.284 2.447 1.073 4.802 1.753 5.234.785.499.832.791.129.801-.699.009-1.063 2.257-.989 6.104.064 3.349-.127 6.24-.426 6.425-.683.421-.268 8.529.474 9.271.301.302.548-1.525.548-4.059 0-2.535.52-4.929 1.156-5.322 1.383-.855.401 9.686-1.177 12.635-.538 1.006-1.031 4.672-1.095 8.145-.064 3.474-.322 5.528-.573 4.566-.252-.963-.875-1.75-1.384-1.75-1.305 0-1.151 1.369.323 2.884 1.004 1.03.954 1.219-.25.956-.825-.179-1.613.008-1.75.417-.645 1.918-.074 2.51 1.919 1.989 1.832-.48 2.042-.271 1.353 1.343-1.15 2.697-1.545 13.279-.519 13.913.469.29 1.14-.378 1.492-1.485.351-1.107 1.647-2.266 2.88-2.575 1.624-.407 2.564-1.764 3.407-4.916.961-3.594 1.507-4.263 3.129-3.839 1.08.282 2.993-.206 4.249-1.087 4.004-2.804 5.442-2.114 5.011 2.406-.21 2.204-.785 4.255-1.277 4.559-.492.304-.894 1.551-.894 2.772 0 1.22-1.842 5.806-4.093 10.191-2.251 4.384-5.021 10.447-6.155 13.472-1.133 3.025-2.75 6.561-3.591 7.857-1.39 2.14-1.376 2.443.154 3.299 2.656 1.487 1.998 4.511-2.205 10.137-2.139 2.864-5.093 7.611-6.564 10.55-2.555 5.105-2.593 5.404-.86 6.718 2.643 2.004 2.93 1.858 5.536-2.811 1.487-2.664 2.975-4.148 3.988-3.976 1.175.199 1.471-.277 1.088-1.744-.321-1.224 1.044-5.065 3.472-9.773 2.199-4.267 4.341-8.878 4.758-10.248.742-2.432 2.866-7.218 10.434-23.509 2.21-4.757 5.03-13.676 6.955-22 1.781-7.7 4.18-17.6 5.332-22 2.986-11.409 3.289-17.768 1.178-24.742-1.938-6.401-.826-26.792 1.503-27.568 1.399-.466 1.413-14.447.016-15.844-.601-.601-1.201-7.024-1.397-14.95-.364-14.744-.869-18.895-3.276-26.896-2.26-7.517-10.593-24.429-12.054-24.467-.705-.018-1.54-.705-1.855-1.527-.316-.822-.976-1.246-1.469-.941-.492.304-.895-.682-.895-2.192 0-1.509-.947-3.752-2.105-4.985-2.328-2.478-1.821-4.388 1.164-4.388 2.176 0 2.608-1.517.691-2.426-.687-.326.859-.376 3.436-.111 3.386.348 5.986-.094 9.372-1.592 2.98-1.318 5.733-1.863 7.564-1.497 1.596.32 2.878.142 2.878-.399 0-.536.477-.975 1.059-.975s.738.52.346 1.155c-.44.711-.275.883.429.448.74-.458.933-.159.548.845-.328.854-.098 1.552.511 1.552 1.355 0 1.443 3.986.162 7.354-2.058 5.413-1.368 11.91 2.297 21.629 3.85 10.21 6.637 23.983 6.666 32.943.011 3.066.65 9.174 1.421 13.574 2.213 12.619 4.042 34.165 3.735 44-.255 8.216-1.24 15.199-4.298 30.5-.622 3.112-.865 9.842-.561 15.5.354 6.589.04 12.866-.92 18.402-.802 4.621-1.467 10.021-1.477 12-.035 6.652-.754 12.557-2.326 19.098-.859 3.575-1.569 8.387-1.577 10.693-.01 2.914-.575 4.592-1.85 5.5-3.185 2.269-6.914 8.955-11.173 20.037-5.936 15.443-14.559 26.546-31.964 41.158C431.531 387.2 421.056 395 419.72 395c-.554 0-4.655 2.159-9.114 4.798-11.402 6.748-22.606 10.749-22.606 8.073 0-.479.873-.871 1.941-.871 2.448 0 2.809-.614 3.404-5.793.419-3.646.228-4.207-1.431-4.207-1.053 0-1.914-.369-1.914-.82 0-1.685-5.553-6.872-6.866-6.413-.751.262-1.714-.087-2.14-.776-.889-1.439-11.399 1.394-20.337 5.482-8.405 3.844-22.727 10.024-29.088 12.55-3.262 1.296-5.387 2.538-4.721 2.76 1.654.551 11.023-1.766 11.724-2.9.624-1.009 2.428-.237 2.428 1.04 0 1.117-8.742 4.355-9.872 3.656-.505-.312-1.16.062-1.455.831-.556 1.448-7.203 3.403-14.173 4.168-2.2.241-4.562 1.196-5.25 2.122-.687.925-1.25 1.316-1.25.869 0-.448-.562-.352-1.25.212-.687.564-7.55 3.114-15.25 5.666-15.03 4.982-27.26 10.526-30.07 13.63-.957 1.058-2.345 1.923-3.085 1.923-.74 0-1.345.373-1.345.829 0 .746-4.493 2.96-12.297 6.06-1.538.611-3.662 1.111-4.719 1.111-2.8 0-1.446-2.472 1.446-2.639 4.002-.231 14.518-5.635 11.872-6.1-1.21-.213-3.154.125-4.322.749-2.64 1.413-12.384 3.99-15.088 3.99-1.28 0-1.747.425-1.287 1.17.475.769.193.966-.826.575-.852-.327-2.522.087-3.711.92-1.188.832-2.855 1.247-3.705.921-.849-.326-2.065-.266-2.703.133-.638.398-1.61.798-2.16.887-4.724.767-27.555 8.118-28.664 9.229-1.301 1.304-1.371 5.672-.086 5.415 3.43-.686.401 2.064-6.928 6.292-6.816 3.932-8.485 4.525-10.023 3.565-1.44-.9-1.958-.855-2.365.204-.286.745-1.063 1.387-1.727 1.425-.664.039-2.91.32-4.99.626-2.314.339-3.552.18-3.187-.411.844-1.366 6.467-4.163 6.485-3.227.009.427.391.184.85-.54.46-.725 1.465-1.412 2.235-1.529.77-.116 1.963-.563 2.65-.992.687-.43 1.25-.46 1.25-.067s.788.038 1.75-.788c.963-.826 3.003-1.414 4.535-1.307 1.532.107 3.026-.195 3.319-.67.294-.475.953-.605 1.465-.288.512.316.982.211 1.045-.234.829-5.883.739-6.309-1.336-6.309-3.357 0-12.741 3.251-12.149 4.208.296.48-.512.616-1.795.302-2.723-.665-13.09 2.758-13.676 4.516-.311.933-.565.933-1.141.001-.546-.883-2.692-.405-8.129 1.81C140.429 474.69 116.09 483 114.262 483c-.969 0-1.19-.651-.722-2.125.371-1.169.289-1.89-.183-1.603-.471.287-.928-1.292-1.015-3.509-.087-2.217-.586-4.309-1.108-4.647-1.941-1.259-4.928-9.64-4.147-11.638 1.194-3.058 1.043-3.831-.498-2.552-1.069.887-1.585.89-2.128.011-.395-.638-.283-1.448.249-1.799 1.762-1.164 2.238-5.221.683-5.818-.855-.328-1.222-1.284-.892-2.323.944-2.976-1.045-9.402-3.845-12.424-1.461-1.576-2.708-3.587-2.771-4.469-.145-2.008-.326-2.972-1.147-6.104-.361-1.375-.878-4.3-1.148-6.5-.528-4.295-3.516-13.511-6.483-20-1.006-2.2-2.36-5.913-3.008-8.25-.649-2.337-1.56-4.25-2.026-4.25-.465 0-1.201-2.137-1.635-4.75-.433-2.613-.829-4.975-.879-5.25-.049-.275-.447-1.062-.883-1.75-.437-.688-.601-1.25-.364-1.25.671 0-1.026-8.162-2.391-11.5-.675-1.65-1.387-3.9-1.583-5-.195-1.1-.801-3.125-1.345-4.5-.544-1.375-1.102-4.144-1.241-6.153-.139-2.008-.59-3.444-1.002-3.191-.412.254-.75-.063-.75-.704s.675-.907 1.5-.59c1.13.433 1.5-.172 1.5-2.452 0-1.666-.359-2.806-.798-2.535-.439.271-1.451.08-2.25-.426-1.134-.717-.959-.922.798-.934 1.237-.008 2.25-.428 2.25-.933 0-.505.301-1.704.67-2.664.457-1.191.298-1.516-.5-1.023-.739.457-1.216-.036-1.295-1.336-.28-4.612-.494-5.646-1.572-7.577-.619-1.111-1.441-3.811-1.826-6-.386-2.19-1.31-4.954-2.053-6.142-.744-1.188-1.555-3.28-1.803-4.648-1.093-6.024-2.278-17.683-2.528-24.871-.051-1.473-.764-3.349-1.584-4.169-.906-.906-1.078-1.629-.438-1.842.726-.242.739-1.18.041-3.014-.71-1.869-.686-2.771.083-3.028 1.802-.6-.954-16.013-4.777-26.708-1.88-5.258-3.418-10.296-3.418-11.196 0-.899-.672-2.924-1.494-4.5-.821-1.575-1.499-5.339-1.506-8.364-.007-3.025-.677-6.773-1.488-8.33-.812-1.556-1.478-3.806-1.479-5-.007-5.836-.852-16.822-1.33-17.301-.298-.297-2.126.212-4.063 1.132-4.628 2.196-6.647 1.409-10.635-4.143-3.25-4.527-3.336-4.571-4.907-2.55-.879 1.131-2.948 2.199-4.598 2.374-3.266.346-3.198-.021-2.161 11.595.209 2.353.035 4.492-.388 4.754-1.004.62-.872 9.469.141 9.469.426 0 .755 1.238.731 2.75-.024 1.513.468 4.048 1.093 5.634.625 1.586 1.397 5.186 1.716 8 .319 2.814.692 6.016.831 7.116.138 1.1.971 3.696 1.85 5.768.88 2.073 1.591 3.873 1.579 4-.045.499 1.393 4.392 2.774 7.507.798 1.801 1.324 4.051 1.168 5-.156.949.069 2.288.5 2.975.431.688.555 1.25.276 1.25s.144 1.561.941 3.468c1.884 4.51 1.868 6.63-.045 5.896-.822-.316-1.249-.971-.948-1.458.3-.486-.084-2.351-.854-4.145-.77-1.794-2.209-5.736-3.198-8.761-2.618-8.012-7.382-18-8.585-18-.571 0-.795-.395-.497-.878.299-.483-1.043-2.954-2.981-5.492s-5.08-7.55-6.983-11.137L6 210.971l-.027-17.735c-.038-24.84-2.731-48.806-5.069-45.116C-.416 150.203-.258 796 1.063 796c.58 0 .777.45.437 1s-.141 1 .441 1 .947.563.809 1.25c-.188.939 3.042 1.315 13 1.511 12.641.249 15.543-.378 11.702-2.528-.852-.477-1.623-1.849-1.713-3.05-.091-1.201-.486-2.183-.878-2.183-2.434 0-.439-7.041 2.616-9.235.651-.467.568-.74-.227-.75-.687-.008-1.243-.803-1.235-1.765.013-1.493.156-1.53.973-.25.72 1.128.92.757.807-1.5-.29-5.766 1.519-16.195 5.362-30.914.754-2.891 1.256-3.545 1.917-2.5.702 1.108.902.982.926-.586.025-1.659.196-1.744 1-.5.72 1.115.973.528.985-2.281.01-2.457.55-3.987 1.541-4.367.977-.375 1.202-.993.624-1.719-.708-.891-.842-6.133-.157-6.133.221 0 1-3.509 1.414-6.364.189-1.3.737-2.65 1.218-3 .481-.35.92-1.198.975-1.886.396-4.952.587-5.672 1.129-4.25.314.825.948 1.748 1.408 2.051.461.303.406 2.055-.121 3.892-.527 1.838-.677 3.797-.333 4.354.357.576.129.705-.528.298-.636-.392-1.223-.125-1.307.596-.084.72-.257 1.759-.385 2.309l-.466 2c-.129.55-.293 2.382-.365 4.071-.073 1.689-.92 3.859-1.882 4.822-2.15 2.15-2.279 3.747-.239 2.964 1.08-.414 1.336-.121.896 1.026-.339.883-1.031 1.35-1.537 1.037-.506-.313-.855-.198-.776.256.472 2.721-.257 7.324-1.161 7.324-.613 0-.797-.853-.433-2 .364-1.147.18-2-.433-2-.587 0-1.067 1.377-1.067 3.059 0 1.682-.421 2.799-.936 2.481-1.095-.677-2.19 6.407-1.772 11.46.164 1.982-.337 4.259-1.156 5.25-.851 1.03-1.001 1.75-.364 1.75.595 0 1.287.787 1.539 1.75.344 1.317.486 1.193.573-.5.064-1.237.004-2.406-.134-2.596-.138-.191.352-1.072 1.087-1.958 1.883-2.269 4.394-.032 2.971 2.647-1.427 2.688-.192 6.742 1.819 5.97 1.32-.507 1.422-.274.574 1.311-.715 1.336-.702 2.517.044 3.849.773 1.381.765 2.024-.029 2.288-.607.203-.858 1.008-.558 1.79.347.904-.441 1.796-2.165 2.452-2.25.855-2.501 1.282-1.479 2.514.677.815.861 1.483.408 1.483-.452 0-.263.559.42 1.242.988.988 1.456.938 2.294-.25.889-1.26.968-1.228.509.207-.368 1.151-.105 1.531.816 1.178 1.494-.574 3.063 2.967 2.045 4.614-.343.555.064 1.009.906 1.009 1.21 0 1.413-.832.972-3.985-.522-3.731 1.386-7.912 2.913-6.384.295.294.531-1.415.526-3.798-.018-7.869.147-8.97 1.244-8.292.633.391.938-.051.75-1.087-.174-.961.305-1.963 1.065-2.228 1.041-.362 1.269.291.923 2.647-.252 1.72-.087 3.127.368 3.127.455 0 .827-.675.827-1.5s.675-1.5 1.5-1.5c.994 0 1.466.928 1.4 2.75-.177 4.886-1.421 7.77-3.216 7.456-2.087-.364-2.238 1.644-.184 2.432.825.317 1.5 1.454 1.5 2.528 0 2.687 1.426 1.563 3.464-2.731 1.795-3.784 2.699-3.834 3.257-.181.185 1.212.773 2.64 1.308 3.175.534.534.964 1.443.956 2.021-.009.577-.452.375-.985-.45-.788-1.219-.972-1.09-.985.691-.008 1.205.323 2.395.735 2.645 1.018.616 3.299-1.954 2.47-2.782-.362-.363.189-.334 1.225.063 1.256.482 1.656.356 1.203-.378-.374-.605-.223-1.383.336-1.729.559-.345 1.023.186 1.031 1.181.013 1.534.163 1.581.985.309.755-1.169.973-.893.985 1.25.008 1.513-.547 2.782-1.235 2.82-.687.039-.35.457.75.93 3.634 1.561 4.37 1.149 4.015-2.25-.187-1.788-.121-2.701.146-2.03.314.788 1.336.255 2.881-1.5l2.395-2.72.031 3.405c.031 3.304.089 3.353 1.969 1.652 2.447-2.214 4.062-1.281 3.466 2.002-.451 2.49-.377 2.522 5.088 2.133 4.733-.337 9.232-1.692 5.617-1.692-.674 0-.965-.422-.647-.937.327-.529-.519-.739-1.941-.481-2.44.443-2.52.285-2.52-4.976v-5.432l3 1.132c1.866.705 3.058 1.9 3.152 3.163.084 1.117.257 2.481.385 3.031.128.55.284 1.589.348 2.309.221 2.51 2.115.051 2.115-2.746 0-3.453 2.101-5.562 3.824-3.839.901.901 1.176.896 1.176-.024 0-.66-.436-1.2-.969-1.2-.532 0-.72-.647-.417-1.437.308-.802 1.287-1.202 2.219-.906 1.43.456 1.453.378.167-.547-.903-.65-1.032-1.085-.323-1.095.647-.008 1.382-.802 1.634-1.765.251-.962.509.319.573 2.848.111 4.388.252 4.602 3.093 4.682 1.638.047 2.876-.222 2.75-.598-.125-.375.223-.682.773-.682s.887.337.75.75c-.138.412.2.75.75.75s1.007.788 1.015 1.75c.012 1.363.206 1.45.875.393.642-1.012 1.045-1.057 1.589-.176 1.407 2.275 3.911-2.815 2.697-5.481-.827-1.815-.732-2.609.427-3.572 1.096-.909 1.18-1.43.316-1.964-1.497-.925-.292-2.95 1.757-2.95 1.025 0 1.391-.635 1.071-1.858-.267-1.022-.069-2.601.439-3.51 1.201-2.146-1.592-3.37-3.699-1.621-1.033.857-1.487.891-1.487.111 0-.617-.702-1.122-1.559-1.122s-1.281.45-.941 1c.34.55.029 1.007-.691 1.015-1.067.013-1.064.171.015.855 1.072.68 1.018 1.146-.286 2.449-.885.885-1.56 1.952-1.499 2.37.061.419-.298.897-.799 1.064-.509.17-.705-2.158-.445-5.298.533-6.418-1.075-10.659-3.671-9.688-1.408.527-1.442.384-.254-1.076.753-.927 1.49-4.273 1.637-7.438.147-3.164.371-6.203.498-6.753.681-2.941-.28-3.596-1.469-1-1.187 2.593-1.385 2.705-1.455.821-.044-1.198.642-2.901 1.526-3.785.888-.888 1.378-2.487 1.094-3.572-.283-1.08-.168-1.964.255-1.964.423 0 .645-1.127.494-2.505-.151-1.378.136-2.251.638-1.941.501.31.912-.129.912-.976s-1.125-1.822-2.5-2.167c-2.914-.732-3.122-2.308-.877-6.649.893-1.726 1.586-4.97 1.541-7.208-.098-4.886.846-6.784 2.779-5.589 1.453.898 2.234 13.035.838 13.035-.395 0-.457.68-.138 1.511.431 1.124.124 1.337-1.196.83-1.216-.466-1.547-.312-1.052.489.398.644 1.334 1.17 2.081 1.17.746 0 1.584.562 1.862 1.25.582 1.443.657.649 1.173-12.5.24-6.123.008-9.75-.623-9.75-.553 0-.728.45-.388 1 .34.55.029 1.007-.691 1.015-.964.012-.914.3.191 1.095 1.248.897 1.192.979-.332.484-1.007-.327-1.978-.594-2.156-.594-.179 0-.088-.907.202-2.015.405-1.549.153-1.871-1.093-1.393-1.708.655-2.446-2.964-.811-3.975.446-.275.903-2.664 1.017-5.309.113-2.644.727-6.918 1.363-9.497.917-3.717.888-5.012-.139-6.25-.713-.858-.853-1.561-.312-1.561.541 0 .786-1.237.544-2.75-.36-2.249-.226-2.477.733-1.25.998 1.277 1.085 1.229.582-.322-.325-1.003-.141-2.663.408-3.69.667-1.245.665-2.073-.003-2.486-.552-.341-1.003-1.52-1.003-2.62s.45-1.722 1-1.382c.55.34 1 .141 1-.441s-.436-1.059-.969-1.059c-.532 0-.704-.688-.381-1.53.37-.965 1.281-1.309 2.468-.932 1.435.455 1.882.098 1.882-1.502 0-1.154.647-2.347 1.437-2.65.802-.308 1.202-1.287.906-2.219-.456-1.43-.378-1.453.547-.167.995 1.383 1.57.72 1.188-1.373-.088-.48.587-.586 1.5-.235 1.336.512 1.568.151 1.186-1.847-.261-1.367-.09-2.247.38-1.956.471.291.856.067.856-.499 0-.565.749-.74 1.664-.389 1.119.43 1.427.256.941-.531-.427-.691-.119-1.17.753-1.17.811 0 1.702-.563 1.98-1.25.341-.847.518-.766.548.25.024.825-.6 2.625-1.386 4-.786 1.375-1.445 1.938-1.465 1.25-.019-.687-.54-1.25-1.157-1.25-.73 0-.642.579.25 1.654 1.358 1.637 2.098 18.346.812 18.346-.32 0-.646 2.362-.723 5.25-.102 3.817.103 4.704.751 3.25.49-1.1.923-3.237.962-4.75.038-1.513.408-2.75.82-2.75.991 0 .805 38.276-.235 48.5-1.165 11.443-1.153 12.028.235 11.75 1.987-.397 1.448 3.574-.636 4.689-1.037.555-2.778 2.521-3.868 4.369-1.922 3.257-1.929 3.499-.228 7.98 1.239 3.265 1.421 4.758.618 5.088-.625.256-.404.502.492.545 1.953.095 4.799 3.079 2.935 3.079-.649 0-.903.45-.563 1 .34.55 1.524 1 2.63 1 1.107 0 2.688.675 3.513 1.5 1.913 1.913 7.772 1.942 9.665.049.798-.798 1.77-3.152 2.16-5.232.973-5.184 2.269-7.317 4.445-7.317 1.013 0 2.38-.649 3.038-1.441.912-1.099 4.095-1.469 13.373-1.555 6.697-.062 16.001-.299 20.676-.526 4.675-.228 23.916-.637 42.758-.909 36.151-.524 35.813-.484 50.387-5.912 8.928-3.325 10.002-3.956 17.401-10.233 3.516-2.983 6.674-5.424 7.016-5.424 1.208 0 5.777-4.071 8.093-7.21 1.29-1.748 2.345-2.641 2.345-1.984 0 1.583 2.694 1.538 3.338-.056.277-.687.54-.094.583 1.318.186 6.065 4.918 18.731 8.287 22.182 1.969 2.017 5.792 2.347 5.793.5 0-.687.923.613 2.05 2.891 2.234 4.513 5.578 8.064 6.616 7.026.36-.36-.135-1.527-1.1-2.593-.964-1.065-1.932-3.431-2.151-5.256-.786-6.558-5.312-26.394-6.862-30.068-.869-2.062-1.237-3.764-.817-3.78.419-.017-.025-.489-.987-1.05-1.305-.76-1.75-2.317-1.75-6.125 0-4.824-.098-5.017-1.773-3.501-2.416 2.187-3.727.94-3.727-3.545 0-3.31 1.802-4.934 2.125-1.916.069.642.188 1.73.265 2.417.098.871.426.798 1.084-.242.593-.938.587-1.847-.016-2.45-.527-.527-.951-1.43-.943-2.008.009-.577.452-.375.985.45 1.641 2.539 1.624-5.004-.033-14.5l-2.183-12.5c-.625-3.575-1.048-7.765-.94-9.312.109-1.547-.119-3.324-.506-3.95-.749-1.212-1.318-4.804-1.344-8.488-.009-1.277-.635-2.25-1.446-2.25-2.334 0-2.99-2.203-1.074-3.605 1.7-1.243 1.702-1.496.036-5.598-2.6-6.402-3.462-9.712-4.115-15.797-.324-3.025-.883-5.95-1.242-6.5-.359-.55-.679-2.152-.71-3.56-.052-2.365-1.667-7.083-6.545-19.125-1.044-2.577-1.898-5.36-1.898-6.183 0-1.657-3.407-3.116-4.991-2.138-.555.343-1.063 1.835-1.129 3.315-.113 2.54-.659.652-2.475-8.559-.549-2.785-2.767-2.888-5.405-.25-2.057 2.057-2.784 4.603-1 3.5 3.56-2.2-1.989 7.996-6.318 11.612-2.647 2.21-4.406 2.465-2.682.388.685-.825.852-1.507.372-1.515-.479-.008.253-.585 1.628-1.282 1.375-.698 2.512-1.929 2.526-2.736.015-.807.355-1.991.757-2.632.988-1.577-1.346-2.29-3.635-1.11-1.019.525-2.784.711-3.924.413-2.005-.524-20.724 10.689-20.724 12.414 0 .585-2.02 1.39-5 1.993-.275.055-1.85.908-3.5 1.894-1.65.986-6.15 3.495-10 5.575-3.85 2.08-8.379 4.83-10.065 6.112-1.686 1.281-5.961 3.85-9.5 5.707-6.703 3.519-15.175 8.209-18.185 10.068-.963.594-1.75 1.673-1.75 2.399 0 .725-.422 1.057-.939.738-.516-.319-1.402.217-1.969 1.191-.567.974-1.045 1.403-1.062.953-.074-2.013-5.831 3.575-6.349 6.164-.579 2.892-4.086 4.925-5.25 3.043-.314-.509-1.709-.029-3.1 1.065-2.166 1.704-2.731 1.789-3.926.593-1.408-1.407-3.825-6.527-3.614-7.654.062-.333-.99-1.197-2.339-1.919-2.418-1.294-2.895-2.546-2.462-6.474l.22-2-2.262 2-2.262 2 .563-2.25c.729-2.91-.625-2.91-2.029 0-.823 1.708-1.101 1.843-1.152.559-.038-.93.389-1.974.948-2.319.559-.346.746-1.067.414-1.603-.331-.536-.062-1.625.598-2.421.976-1.176.759-1.612-1.164-2.333-1.744-.654-2.449-.522-2.69.502-.179.764-.752 1.126-1.274.803-.522-.323-.885-.216-.806.238.392 2.256-.281 3.324-2.094 3.324-1.145 0-2 .667-2 1.559 0 .857-.45 1.281-1 .941-.55-.34-1-1.299-1-2.13 0-1.818 2.508-4.529 3.381-3.656 1.204 1.204.598-.817-.956-3.189-.918-1.401-2.175-2.174-3.012-1.853-1.002.384-1.249.065-.82-1.055.339-.883 1.019-1.357 1.512-1.052.492.304.895.099.895-.456s-.736-1.422-1.636-1.925c-1.317-.737-1.479-1.675-.828-4.8.445-2.136.844-4.314.886-4.839.043-.525 1.203-1.268 2.578-1.65 1.375-.383 2.162-.797 1.75-.92-1.051-.315-2.623-.702-3.45-.85-.385-.069-.212-.613.384-1.209 1.226-1.226.581-4.916-.86-4.916-.518 0-.659-.457-.314-1.016.346-.559 1.117-.715 1.714-.346.647.401.797.206.371-.483-.434-.703-.037-1.155 1.013-1.155.949 0 1.466-.259 1.15-.575-.316-.317-.211-1.846.235-3.399.445-1.553.446-3.207.002-3.675-.444-.468-.451-2.651-.016-4.851s.843-2.987.906-1.75c.126 2.467 2.115 3.173 2.115.75 0-.825.702-1.5 1.559-1.5s1.307-.408.999-.907c-.309-.498.41-.653 1.597-.342 1.479.386 1.933.2 1.442-.593-.425-.688-.082-1.158.844-1.158.857 0 1.566-.788 1.574-1.75.013-1.496.157-1.532.985-.25.835 1.292.971 1.266.985-.193.01-1.131.656-1.569 1.949-1.32 1.182.228 3.323-.936 5.5-2.99 1.961-1.849 4.472-3.65 5.58-4.001 1.108-.352 1.757-1.058 1.442-1.568-.316-.51.395-.928 1.579-.928 1.286 0 2.356-.777 2.657-1.931.3-1.148 1.073-1.713 1.907-1.393.77.296 1.401.04 1.401-.569s.64-1.107 1.423-1.107 2.696-1.049 4.25-2.332c1.555-1.282 4.702-3.369 6.993-4.637 2.291-1.268 4.053-2.806 3.914-3.418-.139-.612-.072-.801.149-.419.22.381 1.159.422 2.086.09 1.956-.701 5.643-4.265 4.474-4.324-.434-.022.449-.711 1.961-1.532 1.512-.821 2.75-1.898 2.75-2.394 0-.496 1.161-.691 2.58-.434 1.836.333 2.366.121 1.836-.736-.51-.825-.221-1.003.92-.565 1.083.415 1.664.129 1.664-.819 0-1.911 3.089-5.48 4.744-5.48.714 0 1.817-1.138 2.451-2.528.864-1.898 1.382-2.21 2.073-1.25.657.911.759.776.358-.472-.31-.962-.101-1.75.464-1.75.566 0 .75-.45.41-1s-.029-1.007.691-1.015c.951-.011.899-.281-.191-.985-1.207-.78-1.049-.972.809-.985 1.352-.009 2.042.418 1.664 1.029-.355.574-.101 1.699.563 2.5.699.842.785 1.456.203 1.456-.553 0-1.241.9-1.529 2-.407 1.557-.045 1.983 1.634 1.921 1.186-.043 1.594-.306.906-.583-.687-.278-1.25-.903-1.25-1.39 0-.487.634-.642 1.41-.344.847.325 1.672-.286 2.067-1.532.362-1.139 1.063-2.072 1.559-2.072s.642.675.326 1.5c-.37.963.02 1.5 1.09 1.5.916 0 1.388-.45 1.048-1-.34-.55.068-1 .906-1 .838 0 2.005-.9 2.594-2 .907-1.695.76-2-.965-2-1.119 0-2.035.477-2.035 1.059s-.52.738-1.155.346c-.74-.458-.881-.273-.395.514.552.894.175.868-1.385-.095-2.066-1.276-2.072-1.335-.177-1.634 1.082-.171 2.505-.958 3.162-1.75s2.066-1.44 3.131-1.44c1.284 0 1.684-.422 1.186-1.25-.51-.849-.209-.81.941.122 2.588 2.1 2.012.539-.862-2.335-1.404-1.405-2.278-3-1.941-3.545.337-.546-.115-.992-1.005-.992-.89 0-1.34-.45-1-1 .34-.55.168-1-.382-1s-1.278.45-1.618 1c-1.354 2.19-2.335.824-1.378-1.92.872-2.503 3.133-4.533 4.235-3.803.184.123 1.08-.395 1.989-1.149.91-.755 1.668-.98 1.684-.5.017.479.539-.004 1.16-1.075.844-1.454.838-2.044-.022-2.33-.853-.285-.865-.922-.046-2.452 1.035-1.933.901-2.026-2.071-1.431-2.801.56-3.106.409-2.574-1.268.332-1.047.136-2.193-.436-2.547-.573-.354-1.094-1.854-1.159-3.334l-.119-2.691-.763 3-.763 3-.119-2.905c-.112-2.749-.216-2.816-1.947-1.25-1.006.91-2.307 1.655-2.893 1.655-.585 0-1.361.775-1.725 1.722-.494 1.287-.856 1.405-1.437.466-.427-.691-1.493-.981-2.369-.645-2.324.893-3.104 3.723-1.373 4.988 1.771 1.295.469 4.108-1.374 2.969-.686-.424-1.607-.151-2.096.622-1.202 1.897-1.131 5.136.096 4.378 1.879-1.161 1.002.219-2.5 3.931-1.925 2.041-3.519 4.242-3.542 4.89-.023.649-1.587 2.93-3.477 5.07-3.741 4.235-4.178 3.975-4.851-2.891-.81-8.262-1.696-10.535-3.689-9.469-1.193.639-2.033.629-2.439-.028-.341-.552.082-1.003.939-1.003s1.559-.666 1.559-1.48c0-2.305-3.114-9.52-4.109-9.52-.49 0-.891-.675-.891-1.5s.338-1.447.75-1.382c.412.066 1.2.024 1.75-.091.55-.116 2.35-.282 4-.369 1.65-.087 2.906-.666 2.79-1.287-.115-.62 1.676-1.43 3.981-1.798 3.133-.501 3.816-.906 2.709-1.606-1.214-.768-1.12-.955.52-1.038 6.83-.345 8.663-.767 10.476-2.407 1.139-1.031 2.024-1.327 2.024-.677 0 1.721 2.693 1.396 3.386-.408.33-.86 1.022-1.303 1.538-.984a1.106 1.106 0 0 0 1.518-.359c1.319-2.135 21.066-7.008 25.285-6.24 2.724.496 17.304-8.168 19.369-11.51 2.408-3.895 5.449-4.662 4.338-1.094-.662 2.127-.597 2.161 1.183.617 6.269-5.439 41.483-18.074 38.95-13.976-.388.628-1.194.84-1.791.471-.66-.409-.796-.204-.347.524.532.86-.055 1.041-2.095.648-1.559-.3-2.271-.281-1.584.043 1.79.844 1.55 2.475-.261 1.78-1.082-.415-1.336-.121-.893 1.032.35.914.113 1.611-.548 1.611-.641 0-.86.495-.486 1.1.477.773.049.762-1.441-.035-2.369-1.268-2.699-.408-.8 2.087 1.163 1.529 5.93 2.163 14.484 1.925 1.284-.035 2.033.376 1.691.93-.338.546.313.993 1.445.993 1.489 0 2.04-.622 1.989-2.25-.055-1.765-.217-1.895-.75-.604-.579 1.402-.871 1.439-1.969.25-1.061-1.148-1.021-1.396.225-1.396 1.227 0 1.322-.505.502-2.663-1.145-3.012-.213-4.519 3.109-5.026 1.367-.209 1.831.078 1.359.84-.411.665-.28.889.307.526.563-.347 1.02.146 1.018 1.096-.012 4.017.202 4.333 2.208 3.259 1.29-.69 2.147-.702 2.559-.035.341.552-.082 1.003-.939 1.003s-1.559.436-1.559.969c0 .532.675.709 1.5.393.825-.317 1.5-.15 1.5.37 0 1.196 4.468 3.268 7.047 3.268 1.074 0 1.953-.54 1.953-1.2 0-.896.288-.912 1.136-.064.847.847 1.543.728 2.741-.47 1.18-1.18 1.277-1.715.364-2.019-.683-.228-1.189-1.389-1.125-2.58.083-1.553.241-1.696.556-.505.336 1.267 1.377 1.587 4.385 1.345 2.169-.174 3.763-.022 3.542.338-.222.36.903.703 2.499.761 1.596.059 2.902-.327 2.902-.857 0-.529.675-.704 1.5-.387.825.316 1.5.139 1.5-.393 0-.533.505-.969 1.122-.969.732 0 .644.588-.25 1.687-1.208 1.485-1.153 1.605.46 1 1.007-.378 2.006-.687 2.218-.687.213 0 .128-.675-.188-1.5-.515-1.341.619-1.977 2.888-1.618.413.065.75-.332.75-.882s.886-1 1.969-1c1.339 0 1.784.48 1.393 1.5-.334.87-.017 1.5.753 1.5 2.239 0-2.773 4.309-5.221 4.489-1.232.091-2.335.911-2.471 1.838-.287 1.954.037 2.032 2.643.638 1.333-.714 1.934-.714 1.934 0 0 .569-.562 1.042-1.25 1.05-.893.011-.85.269.147.9 2.512 1.591 8.096 1.068 8.166-.765.046-1.185.31-1.039.939.52.796 1.976 9.992 4.393 13.322 3.501.454-.121.564.201.246.716-.643 1.039 6.525 2.666 10.43 2.367 2.225-.171 2.28-.099.5.657-1.688.717-1.377.969 2 1.611 2.2.419 4.888 1.373 5.973 2.12 1.084.747 3.297 1.358 4.916 1.358 1.619 0 2.63.314 2.246.698-.903.903 13.202 6.521 14.444 5.753.517-.32 2.128.83 3.579 2.554 1.993 2.369 2.842 2.812 3.474 1.815.59-.93.842-.638.853.989.008 1.27.418 2.06.91 1.756.493-.305 1.192.219 1.554 1.163.568 1.481.801 1.514 1.699.244.85-1.203.934-1.142.458.33-.321.991-.189 1.559.292 1.261.481-.297 1.109.356 1.396 1.452.371 1.422 1.027 1.799 2.287 1.316 1.349-.518 1.619-.295 1.144.944-.414 1.078.036 1.832 1.341 2.246 1.079.343 1.703 1.044 1.385 1.558-.318.514.238 1.244 1.236 1.622 2.71 1.027 4.028 2.635 3.744 4.57-.182 1.237.443 1.729 2.193 1.729 2.146 0 2.313.248 1.363 2.024-.831 1.552-.739 2.366.392 3.498 1.119 1.119 1.576 1.173 1.893.226.23-.686.215.046-.034 1.627-.335 2.133-.126 2.674.81 2.096.819-.507 1.011-.376.547.374-.392.635-.206 1.155.413 1.155.694 0 .868.817.452 2.125-.431 1.358-.299 1.894.364 1.484 1.847-1.141 2.676 1.732 2.687 9.311.007 4.813.427 7.559 1.194 7.815.65.217.933 1.046.627 1.842-.306.797-.144 2.005.358 2.686.503.68 1.046 2.812 1.207 4.737.162 1.925.672 3.961 1.134 4.525.462.564 1.057 2.364 1.322 4 .266 1.636.573 3.2.683 3.475.111.275.125.905.033 1.399-.093.495.137 1.62.51 2.5 1.453 3.428 1.666 7.991 2.342 50.101.385 23.925.715-100.725.734-277 .02-176.275-.168-321.063-.417-321.75C499.88.259 475.407.016 382.143.079c-64.704.043-117.08.306-116.393.583.688.278 1.25.928 1.25 1.444 0 .517-1.068.24-2.374-.616-2.513-1.646-34.178-2.192-33.176-.571.254.411-.193.748-.994.748-.801 0-1.457-.263-1.458-.584-.003-.94-5.441-1.045-6.917-.133M8 2.212c0 .667-1.166 2.143-2.592 3.28-1.471 1.172-2.66 3.202-2.75 4.691-.087 1.444-.456 2.441-.82 2.216-.75-.462-.563 1.07.524 4.3.518 1.537 1.252 2.008 2.439 1.563 1.419-.532 1.495-.385.458.893-.683.841-.946 1.825-.584 2.187.362.362.133.658-.508.658C3.525 22 3 21.55 3 21s-.45-1-1-1-1 1.774-1 3.943c0 3.404.273 3.89 2 3.557 1.1-.212 2-.023 2 .419s1.125.589 2.5.326c1.375-.263 2.5-.902 2.5-1.421 0-.518-.45-.664-1-.324s-1-.132-1-1.048c0-1.07-.537-1.46-1.5-1.09-.882.338-1.5.013-1.5-.791 0-.925 1.128-1.313 3.5-1.201 1.925.091 3.5-.112 3.5-.45 0-.339 1.412-.656 3.137-.705 1.725-.049 3.615-.567 4.2-1.152S21.435 19 22.7 19c1.265 0 2.3-.436 2.3-.969 0-.532-.788-.723-1.75-.424-1.635.508-1.634.47.021-.593.974-.625 1.48-1.607 1.125-2.182-.42-.681-.946-.572-1.506.311-.632.999-.863 1.027-.875.107-.008-.687-.807-1.25-1.774-1.25-1.996 0-4.674-3.614-3.306-4.46.492-.304 1.052-.08 1.244.497.195.585 1.294.171 2.479-.933 1.171-1.091 2.474-1.673 2.896-1.294.422.38.443.128.047-.56C23.122 6.417 23.589 6 25 6c1.428 0 1.873.407 1.367 1.25-.573.954-.375.946.836-.035.872-.707 1.971-1.157 2.442-1 .9.3 1.355-.479 1.355-2.322 0-.609-.642-.861-1.427-.559-.785.301-1.991-.133-2.682-.965C25.596.809 14.787.778 12.28 2.327c-.628.388-1.424.248-1.77-.311C9.642.611 8 .74 8 2.212m83.711 2.41c-.358.358-2.127.779-3.931.934-8.184.704-15.036 2.943-13.165 4.301 1.255.911 1.568 3.143.442 3.143-.519 0-1.532-.827-2.25-1.838-1.681-2.364-9.024-1.89-8.098.523.464 1.209.725 1.237 1.415.149.546-.862.851-.923.861-.172.008.638.802 1.034 1.765.879 2.585-.417 3.504.448 2.176 2.048-.928 1.118-.826 1.411.491 1.411 1.366 0 1.433.245.378 1.375-.707.756-1.962 1.134-2.79.84-.828-.293-1.183-.178-.79.257s.265 1.632-.285 2.659c-1.054 1.969.404 2.755 1.58.853.346-.559 1.047-.758 1.559-.441 1.696 1.048 3.13-.598 1.857-2.132-.842-1.014-.855-1.411-.048-1.411.617 0 1.122.45 1.122 1 0 1.515 2.592 1.196 3.992-.49.706-.85 2.154-1.274 3.372-.985 1.213.287 4.298-.604 7.136-2.06 4.541-2.33 4.709-2.532 1.826-2.2-2.529.292-3.147.011-3.042-1.38.072-.961.557-1.483 1.078-1.161.521.322.644.095.275-.503-.433-.7.421-1.057 2.392-1.001 1.685.048 3.583-.432 4.217-1.066.872-.872.799-1.158-.296-1.169-1.195-.013-1.211-.167-.093-.875.946-.6 1.021-1.067.25-1.544-.609-.376-1.114-.095-1.122.625-.013 1.042-.179 1.051-.819.044-.441-.696-1.096-.972-1.455-.613m111.635 4.92a1.425 1.425 0 0 1-1.828.827c-.723-.278-1.613-.025-1.976.563-.404.653.43 1.109 2.149 1.174 1.545.059 3.484.207 4.309.329.825.123 2.764.3 4.309.394 1.842.112 2.563.569 2.096 1.326-.443.715-.275.883.44.44.647-.399 1.162-.137 1.17.596.011.951.281.899.985-.191.646-1 .974-1.083.985-.25.008.688.492 1.25 1.074 1.25.582 0 .738-.52.346-1.155-.473-.763-.271-.88.595-.345s1.068.418.595-.345c-1.134-1.837.898-1.342 3.77.918 1.554 1.222 2.635 1.582 2.635.877 0-.9.339-.913 1.373-.055.756.627 2.218.864 3.25.528 1.549-.505 1.615-.423.377.467-1.313.945-1.297 1.081.128 1.095.895.008 2.205-.681 2.911-1.532.848-1.022 1.509-1.184 1.946-.477.424.687 1.294.373 2.422-.873 2.638-2.915-.778-4.295-11.448-4.625-4.785-.148-9.546-.701-10.58-1.228-2.901-1.481-11.433-1.274-12.033.292M55 15.265c0 .734.563 1.902 1.25 2.594 1.003 1.01.854 1.13-.75.606-1.619-.529-1.714-.448-.5.425 1.461 1.051 1.36 1.175-1.25 1.53-.687.094-1.138.713-1 1.375.144.692-.843 1.205-2.317 1.205-2.17 0-2.477.348-1.98 2.25.497 1.907.409 2.006-.583.651-1.186-1.621-5.891-.295-7.354 2.074-.289.466-1.648.725-3.02.574-1.373-.151-2.496.162-2.496.696 0 .533-.661.715-1.468.406-.807-.31-1.758-.094-2.113.48s-1.494.821-2.532.55c-1.038-.272-1.887-.086-1.887.413 0 .498.9.906 2 .906s2 .424 2 .943c0 .518.893.77 1.984.56 1.128-.217 2.409.347 2.97 1.307.542.93.999 1.209 1.016.622.017-.604 1.564-.947 3.565-.789 2.069.163 3.288-.12 2.941-.682-.327-.529-.166-.961.358-.961s1.215.685 1.536 1.523c.472 1.228.949 1.294 2.475.342 1.131-.706 2.646-.855 3.773-.369 1.035.446 2.652.717 3.593.601.941-.115 2.601.267 3.689.85 1.238.662 2.2.701 2.57.102.325-.526 3.191-.897 6.369-.825 6.542.148 8.161-.504 8.161-3.283 0-1.068.477-1.941 1.059-1.941s.805-.412.494-.915c-.311-.503 0-1.142.691-1.421.691-.278-.319-.51-2.244-.515-2.833-.007-3.119.155-1.5.851 1.863.801.656 1.524-1.824 1.094-.454-.079-.554.294-.224.829.343.555-.323.794-1.553.558-1.184-.229-2.927-.001-3.872.504-2.54 1.36-7.027 2.012-7.027 1.022 0-.473-.788-1.066-1.75-1.318-1.351-.353-1.251-.483.441-.573 2.426-.128 4.077-1.981 2.654-2.978-1.337-.936-1.049-3.618.405-3.763.688-.069 1.475-.238 1.75-.375.275-.137.95-.306 1.5-.375 2.882-.36.434-2.095-3-2.126-4.409-.04-5.513-1.879-1.321-2.201 3.301-.253 5.016-1.817 2.888-2.634-.862-.331-1.567-.205-1.567.279 0 1.116-1.863.811-4.75-.776-1.828-1.005-2.25-.987-2.25.098m70.712 14.357c-.185.184-7.617.541-16.517.794-8.901.252-16.748.817-17.439 1.256-.691.438-1.594.861-2.006.938l-1.5.28c-.412.077.375.732 1.75 1.456 1.375.725 2.388 1.843 2.25 2.486-.137.642.088 1.214.5 1.269.413.056 2.476.258 4.586.449 2.109.191 4.516.912 5.347 1.602 2.124 1.763 5.644 2.211 4.718.601-.397-.689-.367-.933.065-.543.433.391 1.968.113 3.411-.618s3.413-1.202 4.378-1.048c1.034.165 1.484-.157 1.095-.786-.391-.633-.185-.774.504-.348.7.432 1.493-.174 1.992-1.522l.829-2.241.619 2.371c.609 2.329.656 2.337 2.687.499 1.584-1.433 2.341-1.595 3.243-.693.901.901.896 1.176-.024 1.176-1.848 0-1.421 1.796.55 2.311 1.101.287.752.5-.941.573-4.439.191-4.372 2.116.073 2.116 4.273 0 6.108-1.347 3.684-2.703-1.023-.573-1.188-1.281-.536-2.311.773-1.223.96-1.132 1.054.514.096 1.667.249 1.584.916-.5.784-2.449.803-2.453.9-.206.055 1.261.663 2.221 1.35 2.131 2.906-.377 5.829.138 5.333.94-.294.476-1.67.741-3.059.588-1.388-.152-2.524.088-2.524.534 0 .447 2.025.973 4.5 1.17 2.475.196 4.5.017 4.5-.4 0-.416-.787-.793-1.75-.836-1.045-.047-1.247-.282-.5-.583.688-.278 1.25-.944 1.25-1.48 0-.537-.562-.638-1.25-.225-.849.51-.81.209.122-.941.813-1.002.939-1.692.309-1.692-.584 0-1.341.45-1.681 1-.992 1.605-2.315 1.159-3.005-1.015-.357-1.125-1.123-1.715-1.737-1.335-.719.444-.863.065-.417-1.097.581-1.514.286-1.676-2.004-1.101-2.264.568-2.498.447-1.489-.768.98-1.181.744-1.529-1.302-1.92-1.375-.263-2.65-.327-2.834-.142M57.675 56.658c-.362.362-.19 1.222.382 1.911.721.868.718 1.452-.008 1.901-.577.356-1.049-.054-1.049-.911S56.55 58 56 58s-1 .675-1 1.5-.45 1.5-1 1.5-1-.354-1-.787c0-.433-.934-.858-2.076-.944-1.761-.132-1.881.077-.796 1.386 1.463 1.762 28.956 1.408 32.498-.418 1.031-.532 2.437-.765 3.124-.519.688.247 1.25.024 1.25-.496s1.192-.717 2.649-.438c1.871.357 2.434.159 1.919-.675-.402-.649-2.403-1.082-4.447-.961-2.045.121-4.335-.162-5.089-.628-1.013-.627-1.206-.416-.738.804.694 1.809-.801 1.793-5.294-.058-1.375-.566-3.199-.664-4.054-.218-.855.447-2.205.401-3-.102-1.662-1.052-10.287-1.272-11.271-.288m246.634 63.592c-.445.688-1.295 2.15-1.89 3.25-.596 1.1-1.565 1.902-2.155 1.782-.59-.12-1.62.443-2.291 1.25-.876 1.056-.897 1.468-.076 1.468.643 0 .957.983.719 2.25-.972 5.179-1.888 7.75-2.76 7.75-.531 0-.485.825.109 1.934 1.427 2.667 1.295 6.883-.391 12.486-1.234 4.101-1.234 4.664 0 4.19 2.003-.768 1.825 2.375-.306 5.417-.952 1.36-1.602 2.595-1.443 2.744.671.627-2.261 7.078-3.007 6.617-.45-.278-.864-.142-.919.303-.664 5.291-.623 8.361.116 8.818.494.305.645 1.213.337 2.017-.309.805-.968 1.212-1.464.905-.496-.307-1.19.191-1.541 1.107-.351.915-.084 2.006.593 2.425 1.596.986 1.56 2.082-.105 3.251-1.043.734-1.062 1.049-.085 1.445.688.279 1.236 1.483 1.218 2.674-.031 2.121-.063 2.125-1.5.226-1.403-1.856-1.468-1.818-1.468.857 0 2.162-.366 2.657-1.611 2.18-1.143-.439-1.446-.188-1.043.864.313.815-.087 2.138-.888 2.94-.802.801-1.458 1.939-1.458 2.529 0 1.483 1.73 1.348 2.3-.179.308-.825.727-.617 1.233.611.479 1.164.148 2.91-.883 4.655-.908 1.536-1.65 3.537-1.65 4.447 0 .996-.459 1.371-1.155.942-.715-.443-.883-.275-.44.44.392.635.309 1.155-.185 1.155-1.585 0-3.435 5.185-2.268 6.352.731.731 1.048.685 1.048-.152 0-.66.41-1.2.912-1.2 1.226 0 .758 2.73-.722 4.21-.655.655-1.19 1.793-1.19 2.53 0 .738-1.012 2.785-2.25 4.55-4.143 5.911-5.988 6.012-2.85.157 1.111-2.072 1.701-4.258 1.311-4.857-.415-.638-.839-.176-1.023 1.113-.173 1.211-1.163 2.472-2.2 2.801-1.123.356-1.662 1.181-1.333 2.039.309.806-.179 1.721-1.109 2.078-.913.35-1.46 1.16-1.215 1.8.493 1.285-2.003 5.191-3.124 4.888-.389-.106-.629.551-.533 1.458.265 2.524-1.724 5.77-2.634 4.298-.493-.798-1.327-.084-2.466 2.114a215.559 215.559 0 0 1-3.137 5.821c-.779 1.375-1.201 3.086-.938 3.802.263.716.097 1.066-.37.778-.466-.288-.725.59-.576 1.953.17 1.551-.127 2.23-.795 1.817-.679-.419-.769-.177-.248.665.599.97.358 1.149-.898.666-1.042-.4-1.47-.26-1.09.355.345.558.031.89-.698.739-.728-.151-1.212.288-1.074.975.137.688-.227 1.25-.809 1.25-.582 0-.738.52-.346 1.155.473.763.271.88-.595.345-.883-.546-1.068-.419-.568.389.407.66-.023 2.364-.955 3.787-1.335 2.037-1.883 2.294-2.573 1.206-.689-1.086-1.407-.739-3.354 1.618-2.785 3.371-3.191 4.683-1.217 3.926.756-.291 1.334.156 1.334 1.031 0 1.743-1.234 2.052-2.167.543-.992-1.605-2.315-1.159-3.005 1.015-.351 1.108-1.126 1.713-1.722 1.345-.69-.427-.789-.195-.273.64.537.869.419 1.068-.353.591-.649-.401-1.425-.031-1.759.84-.329.857-1.07 1.266-1.647.909-.583-.361-.756-.174-.389.42.363.588.313 1.22-.112 1.405-.424.184-2.227 2.336-4.006 4.782-1.961 2.697-3.234 3.779-3.234 2.75 0-.933-.4-1.697-.889-1.697s-.826.763-.75 1.696c.077.933-1.306 2.62-3.072 3.75-1.767 1.13-3.229 2.692-3.25 3.471-.022.779-.327 1.128-.68.775-.352-.352-1.92.811-3.484 2.584-1.564 1.773-2.85 2.688-2.859 2.033-.009-.655.434-1.469.984-1.809.55-.34 1-1.679 1-2.976 0-1.296.563-2.584 1.25-2.862.688-.277.362-.54-.723-.583-1.88-.075-1.871-.15.209-1.606 1.366-.957 1.974-2.171 1.628-3.25-.424-1.32-.326-1.406.417-.366.677.948 1.175 1.024 1.653.25.376-.609.32-1.107-.125-1.108-.445 0-.874-1.122-.953-2.493-.079-1.371.226-2.264.678-1.985.452.279 1.12-.431 1.484-1.579.424-1.334 1.207-1.878 2.173-1.507.901.346 2.276-.394 3.409-1.834 1.132-1.44 2.605-2.233 3.649-1.965 1.038.267 2.264-.382 3.009-1.593.732-1.187.84-2.043.26-2.043-.549 0-.324-.788.5-1.75.824-.962 1.382-1.986 1.24-2.274-.142-.288.955-1.833 2.438-3.432 1.484-1.6 2.47-3.276 2.191-3.726-.278-.45.197-.818 1.054-.818s1.559-.675 1.559-1.5.367-1.5.816-1.5c.449 0 1.827-1.8 3.064-4 1.236-2.2 2.653-4 3.149-4 .495 0 1.382-.9 1.971-2 2.103-3.93-.834-1.871-9.368 6.568-4.83 4.776-8.368 9.05-7.994 9.655.429.694.199.794-.638.277-.921-.569-1.069-.421-.5.5.504.816.416 1.066-.233.665-.574-.355-2.698 1.376-4.722 3.845-2.023 2.47-3.424 4.49-3.112 4.49.312 0-.221.841-1.183 1.87-6.481 6.924-7.225 8.033-6.565 9.793.607 1.618.488 1.673-.998.465-.928-.755-1.687-.915-1.687-.355 0 .559-2.025 3.161-4.5 5.781-2.475 2.62-4.5 5.619-4.5 6.664 0 1.182-.437 1.63-1.155 1.187-.763-.473-.88-.271-.345.595s.418 1.068-.345.595c-1.401-.865-1.479.356-.155 2.405.646 1 .974 1.083.985.25.022-1.799 1.69-1.54 2.425.377.344.894.054 2.314-.643 3.153-.697.84-1.121 1.784-.942 2.099.179.314-.159.732-.75.929-.591.197-1.075-.215-1.075-.916 0-.73-.627-.445-1.468.667-1.759 2.326-1.971 3.83-.402 2.861.692-.428.934-.16.625.691-.278.764-1.045 1.265-1.704 1.114-.694-.159-.892.223-.471.905.458.74.298.913-.427.464-.704-.435-1.538.288-2.13 1.846-.535 1.408-1.772 2.567-2.748 2.575-1.512.013-1.553.159-.275.985.825.533 1.014.976.419.985-.595.008-1.675 1.125-2.401 2.481-1.476 2.759-3.018 2.46-3.018-.584 0-1.257.429-1.735 1.155-1.287.682.422.884.277.493-.355-.363-.588-.095-1.298.596-1.578 1-.406.995-.694-.028-1.416-.766-.541-1.004-1.68-.591-2.826.511-1.415-.13-1.131-2.438 1.08-1.722 1.65-3.144 3.51-3.159 4.133-.015.624-.984 1.384-2.152 1.689-1.728.452-2 1.047-1.461 3.197.576 2.293.406 2.559-1.291 2.02-1.333-.423-2.423.05-3.43 1.488-.812 1.159-2.978 2.913-4.813 3.897-4.14 2.22-6.734 6.485-6.738 11.076-.002 2.719.172 3.054.779 1.5.763-1.95.799-1.946 1.478.19 1.781 5.602 13.847 2.928 21.834-4.838 3.243-3.154 7.442-6.967 9.331-8.473 1.889-1.506 3.435-3.302 3.435-3.991 0-.689.9-1.539 2-1.888s2-1.054 2-1.567c0-.513.675-.933 1.5-.933s1.5-.363 1.5-.807c0-.445 2.136-2.357 4.746-4.25 10.491-7.609 15.3-10.943 15.786-10.943.765 0 11.468-10.511 11.468-11.262 0-1.536 4.824-7.587 5.537-6.945.431.389.469.159.085-.51-.403-.702.165-1.757 1.339-2.491 1.122-.7 2.039-1.84 2.039-2.533 0-.692.623-1.259 1.383-1.259.761 0 1.619-.9 1.907-2 .287-1.1 1.24-2 2.116-2 .877 0 1.594-.675 1.594-1.5s.787-1.507 1.75-1.515c1.135-.01 1.343-.275.591-.753-1.305-.83 1.672-5.232 3.538-5.232.582 0 .799-.675.483-1.5-.347-.903-.006-1.5.857-1.5 1.397 0 6.528-4.747 6.031-5.581-.854-1.432-.009-4.419 1.25-4.419.825 0 1.5-.675 1.5-1.5s.723-1.5 1.607-1.5c1.005 0 1.395-.552 1.042-1.474-.311-.81.015-1.823.725-2.25.71-.427 2.544-3.364 4.076-6.526 1.532-3.162 3.14-5.75 3.574-5.75.434 0 .553-.9.266-2-.293-1.118-.031-2 .593-2 .615 0 1.117-1.152 1.117-2.559 0-1.407.357-2.339.792-2.069.436.269.858-.379.938-1.441.08-1.061 1.749-5.218 3.708-9.237S288 219.85 288 219.193c0-.656.406-1.193.902-1.193s1.373-1.35 1.948-3 1.519-3 2.098-3 1.052-.675 1.052-1.5.426-1.5.947-1.5c.521 0 2.078-2.25 3.459-5 1.381-2.75 2.311-5 2.067-5-.925 0 3.818-11.552 5.193-12.649 1.144-.913 1.172-1.243.137-1.608-1.02-.359-.929-1.109.421-3.46.948-1.651 1.465-3.261 1.15-3.576-.316-.316-.206-1.166.245-1.89.451-.725.692-2.305.536-3.512-.156-1.208.228-3.152.854-4.322 1.87-3.495 3.986-12.758 4.061-17.782.039-2.585.435-5.601.881-6.701.549-1.356.285-2.611-.82-3.896-1.043-1.213-1.236-2.035-.535-2.282 1.674-.589-.197-10.557-2.266-12.07-1.369-1.001-1.871-1.002-2.506-.002-.473.746-.8-.262-.809-2.5-.015-3.757-1.19-4.843-2.706-2.5M.492 396.5c0 136.4.116 192.051.258 123.67.142-68.382.142-179.982 0-248C.608 204.151.492 260.1.492 396.5m113.011-238.509c-.348 1.095-.309 2.515.087 3.155.447.724.283.894-.435.449-.691-.427-1.155-.063-1.155.905 0 .89.419 1.359.931 1.043.512-.317 1.213-.118 1.559.441.345.559-.082 1.016-.95 1.016-1.118 0-1.432.655-1.077 2.25 2.117 9.495 3.712 21.268 3.947 29.121.31 10.388.819 11.871 3.936 11.469 1.184-.153 2.717.072 3.404.5.688.428 1.257.414 1.265-.031.009-.445.452-.134.985.691.755 1.169.973.893.985-1.25.008-1.512-.376-2.75-.853-2.75-.478 0-.948-3.71-1.044-8.243-.203-9.514-.901-14.888-2.094-16.129-.461-.479-.722-1.379-.58-2 .142-.62.069-.79-.161-.378-.923 1.65-2.29.686-1.418-1 .498-.963.712-2.65.477-3.75-.646-3.011-.619-3.835.192-5.791.519-1.253.329-1.703-.631-1.5-.804.171-1.311-.462-1.223-1.528.1-1.209-.336-1.632-1.302-1.261-.918.352-1.192.137-.745-.586.41-.663.266-.871-.344-.494-1.224.756-2.664-2.055-2.35-4.59.294-2.375-.626-2.217-1.406.241M119 213.966c0 1.015 1.136 7.625 2.525 14.69 3.626 18.448 3.693 18.936 3.927 28.844.259 10.938 3.549 34.617 4.71 33.9.461-.285.864.296.897 1.291.347 10.714.978 17.731 1.638 18.217.442.326.952 3.067 1.135 6.092.182 3.025.77 7.517 1.306 9.981.67 3.082.644 4.592-.082 4.834-1.195.398-1.46 10.448-.306 11.601 1.058 1.058 1.439 12.38 1.003 29.817-.109 4.385 2.628 8.011 5.692 7.537 1.13-.174 1.942-.869 1.805-1.544-.141-.689.772-1.226 2.083-1.226 3.41 0 3.6-.585 2.045-6.31-.917-3.379-1.193-7.324-.791-11.305.863-8.555-2.337-23.276-4.738-21.792-.467.289-.849-.162-.849-1.003 0-.947.57-1.308 1.5-.952 1.766.678 1.987-2.218.582-7.638-.499-1.925-1.175-6.875-1.502-11-.327-4.125-.845-8.625-1.151-10-.306-1.375-.818-5.425-1.137-9-.318-3.575-1.077-6.831-1.686-7.235-.762-.506-.706-.739.179-.75.96-.011 1.024-.504.25-1.949-.569-1.064-1.048-4.327-1.064-7.25-.017-2.924-1.133-11.391-2.481-18.816-1.349-7.425-2.673-15.3-2.943-17.5-.874-7.106-1.764-11.976-2.375-12.999-.706-1.18-.777-1.934-1.001-10.657l-.171-6.656-4.5-1.533c-4.261-1.452-4.5-1.436-4.5.311m316.374 28.254c.185 1.496-.019 2.499-.454 2.23-.436-.269-1.081 1.658-1.434 4.281-.787 5.832-1.302 7.5-1.407 4.55-.058-1.642-.51-2.053-1.738-1.582-1.459.56-1.585.012-1.047-4.531.359-3.037.219-5.168-.341-5.168-.524 0-.9.338-.835.75.295 1.867-.206 3.25-1.177 3.25-.582 0-.781-.45-.441-1s.141-1-.441-1-1.066.787-1.074 1.75c-.013 1.496-.157 1.532-.985.25-.838-1.297-.971-1.275-.985.167-.008.916.548 1.893 1.235 2.171.818.33.854.531.105.583-.788.054-.899 1.169-.354 3.584.435 1.928.419 3.735-.035 4.016-.454.281-.664 1.741-.465 3.245s.399 3.184.445 3.734c.047.55.521.325 1.054-.5 1.171-1.813 1.277-1.199 1.116 6.5-.122 5.81-.083 5.905 1.223 3 .958-2.132 1.032-3.213.255-3.735-1.015-.681.578-1.211 2.656-.883.413.065.817-2.245.9-5.132.082-2.887.337-4.012.566-2.5.229 1.512.834 2.75 1.344 2.75.99 0 .751-3.522-.311-4.584-.349-.35.239-2.267 1.308-4.261 1.069-1.994 1.943-4.918 1.943-6.497 0-1.893.428-2.708 1.255-2.39 2.345.9 3.442-1.631 1.524-3.518-1.697-1.669-1.784-1.646-1.879.5-.096 2.173-.13 2.164-.981-.25l-.882-2.5.337 2.72m-110.896 2.53c-.752 4.606-2.834 10.193-6.209 16.658-1.668 3.195-2.62 6.731-2.729 10.134-.106 3.309-.764 5.825-1.794 6.855-.895.894-1.452 2.533-1.239 3.641.247 1.281-.013 1.767-.714 1.334-.71-.439-.815-.216-.293.628.572.926.422 1.07-.515.49-.934-.576-1.154-.374-.747.687.317.827.192 2.127-.278 2.887-.525.85-.393 1.677.343 2.144.822.523.671.766-.48.777-1.976.018-5.256 5.982-3.987 7.251.783.783 3.724-2.551 3.988-4.522.057-.432.796-1.476 1.64-2.321.845-.845 1.536-2.523 1.536-3.729 0-1.207.827-3.762 1.837-5.679 1.01-1.917 2.681-5.866 3.712-8.777 1.728-4.873 1.953-5.11 2.851-3 .949 2.228.987 2.209 1.378-.705.221-1.648.924-3.335 1.562-3.75.856-.556.811-.978-.174-1.614-1.075-.694-1.027-.978.25-1.468 1.182-.454 1.599-2.076 1.644-6.39.032-3.179.411-7.918.841-10.531.597-3.626.475-4.75-.514-4.75-.722 0-1.567 1.66-1.909 3.75m44.149 25.75c-.744 4.326-1.608 9.809-2.048 13-.152 1.1.218 2.331.823 2.735.663.443.356.74-.774.75-1.542.012-1.655.277-.641 1.499.994 1.198.818 2.278-.915 5.603-1.508 2.893-1.843 4.484-1.126 5.348.713.859.549 1.806-.545 3.147-1.415 1.735-1.51 1.746-.994.116.333-1.053.159-1.548-.418-1.191-.544.336-1.003.022-1.019-.698-.062-2.647-2.056 2.214-2.329 5.675-.271 3.445.698 4.74 1.697 2.266.296-.735.537-.516.583.531.043.98-.596 2.041-1.421 2.357-.825.317-1.493 1.315-1.485 2.219.014 1.436.152 1.454 1.095.143.91-1.266.991-1.227.516.25-.333 1.036-.051 1.75.691 1.75.69 0 1.3-.788 1.356-1.75.341-5.837.848-7.25 2.604-7.25 1.013 0 1.566-.445 1.23-.989-.358-.579.134-.747 1.191-.405 1.507.487 1.556.406.302-.496-1.02-.734-1.1-1.084-.25-1.095.688-.008 1.25-.69 1.25-1.515s.675-1.5 1.5-1.5 1.5-.498 1.5-1.107-.704-.837-1.565-.506c-1.202.461-1.419.137-.933-1.393.362-1.142.177-1.994-.435-1.994-.587 0-1.067-.45-1.067-1s.482-1 1.071-1c2.113 0 3.432-2.576 3.585-7 .281-8.116.243-7.976 2.005-7.3 1.317.506 1.543.189 1.093-1.531-.312-1.193-.127-2.169.411-2.169s.303-.675-.522-1.5-1.969-1.5-2.543-1.5c-.574 0-1.435-1.462-1.914-3.25l-.87-3.25-.689 4m59.463 21.309c-.049.72-.54 1.031-1.09.691-.55-.34-1-.171-1 .376s-.518 2.261-1.151 3.809c-.634 1.548-1.051 3.827-.929 5.065.123 1.238-.21 2.25-.74 2.25s-1.246 1.125-1.591 2.5-.991 2.5-1.435 2.5c-.444 0-.606 1.377-.359 3.059l.449 3.06 2.358-2.215c2.936-2.758 6.375-9.236 6.468-12.185.065-2.046.13-2.068.825-.292.725 1.851.783 1.854 1.464.08.39-1.016.285-2.109-.232-2.429-.518-.319-1.392-2.155-1.944-4.08-.551-1.924-1.043-2.909-1.093-2.189M297 312.834c0 1.074-.788 2.257-1.75 2.63-1.631.633-1.618.776.191 2.107 1.068.786 1.379 1.429.691 1.429-.687 0-.98.437-.649.972.33.534-.116 2.064-.991 3.4-1.259 1.921-1.32 2.537-.292 2.949.738.296.418.555-.737.6-1.358.053-2.088-.595-2.19-1.943-.083-1.112.24-1.779.718-1.483.479.296 1.124.127 1.434-.374.31-.501-.057-1.15-.816-1.441-.832-.319-2.584 1.127-4.418 3.646-8.133 11.169-18.834 20.43-25.661 22.208-6.754 1.76-21.046 7.419-33.645 13.323-4.738 2.22-9.707 4.311-11.043 4.646-1.335.336-5.302 2.834-8.815 5.553S201.622 376 200.379 376c-2.703 0-3.967 1.56-1.905 2.352.804.308 1.716.15 2.026-.352.31-.502 1.282-.637 2.159-.301 1.282.492 1.079.882-1.032 1.989-1.445.757-2.627 1.838-2.627 2.403s-.52.706-1.155.314c-.75-.464-.881-.272-.374.548.58.939.172 1.089-1.596.589-1.414-.401-1.883-.327-1.158.181.771.541-.238.913-2.75 1.013-3.915.156-5.382-1.256-2.467-2.374 1.849-.71 1.991-2.257.183-1.992-2.092.307-12.678 6.051-12.681 6.88-.001.413-.697.75-1.546.75-.881 0-1.417.7-1.25 1.631.209 1.157-1.304 2.254-5.206 3.776-9.218 3.596-15.857 7.737-25.388 15.833-5.012 4.258-9.644 7.745-10.295 7.75-.65.006-1.468.91-1.817 2.01-.349 1.1-1.074 2-1.611 2-.537 0-3.689 2.257-7.003 5.015-3.315 2.759-6.515 4.714-7.111 4.346-.608-.376-.799-.209-.435.38.534.863-1.271 2.259-2.922 2.259-1.141 0-.22-2.862 1.082-3.362.825-.316 1.5-1.05 1.5-1.63 0-.581-1.235-.287-2.75.654-3.675 2.281-7.25 5.493-7.25 6.512 0 1.449 3.04.885 3.638-.674.64-1.667 3.362-2.072 3.362-.5 0 .55-.391 1-.868 1-1.053 0-.928 6.017.161 7.712.812 1.265 1.589 1.063 9.946-2.581 2.056-.897 3.743-1.995 3.75-2.44.006-.445.404-.566.885-.269.481.297 2.079-.576 3.552-1.941 1.472-1.364 2.898-2.481 3.169-2.481.563 0 6.396-5.21 13.995-12.5 7.398-7.098 14.75-13.047 15.726-12.725.458.151.608-.089.334-.533-.275-.444 1.154-1.913 3.175-3.265s4.04-3.035 4.486-3.739c.447-.704 1.304-.976 1.905-.605.655.405.807.214.379-.478-.425-.688-.07-1.155.877-1.155.875 0 1.839-.647 2.142-1.437a1.534 1.534 0 0 1 1.969-.893c.779.299 1.417.019 1.417-.622s.45-.888 1-.548c.55.34 1 .197 1-.318s2.363-1.948 5.25-3.184c2.887-1.237 5.588-2.755 6-3.374.527-.79 1.042-.679 1.735.376.625.952.99 1.055 1 .281.008-.695.69-.959 1.587-.615.87.334 2.898-.377 4.54-1.591 3.599-2.66 32.153-10.849 61.388-17.604 4.4-1.017 8.428-2.214 8.95-2.66.523-.446 2.548-.817 4.5-.824 1.953-.007 6.391-.903 9.863-1.992 3.472-1.088 7.297-2.166 8.5-2.395 4.266-.812 7.398-2.465 10.446-5.513 1.698-1.698 3.497-3.087 3.998-3.087.502 0 2.996-2.137 5.544-4.75 2.548-2.613 5.21-5.26 5.916-5.884 5.64-4.986 9.456-10.199 8.593-11.741-.513-.917-1.324-1.425-1.802-1.13-.479.296-1.153.079-1.5-.481-.413-.669-1.25-.687-2.437-.052-2.542 1.361-3.234.216-1.483-2.456 1.294-1.975 1.298-2.336.029-2.823-1.361-.522-6.032 2.548-5.2 3.419.21.219-.248.978-1.018 1.687-.9.83-1.399.898-1.399.191 0-.604-.498-.79-1.107-.414-.774.479-.707.931.224 1.506 1.587.981-2.15 5.486-5.408 6.521-1.087.344-4.728 2.373-8.092 4.507-7.544 4.787-9.305 4.962-9.024.9.139-2.004-.257-3-1.193-3-1.658 0-1.746-.96-.409-4.475.819-2.156 1.314-2.432 2.868-1.6 2.232 1.194 3.198.507 2.49-1.773-.406-1.308-.189-1.256 1.042.251 1.501 1.839 1.578 1.841 2.261.06.412-1.072.238-2-.416-2.218-.618-.206-.871-1.033-.562-1.839.473-1.232.762-1.192 1.818.252 1.159 1.585 1.308 1.549 1.949-.471.381-1.203 1.083-2.187 1.559-2.187 1.019 0 2.498-3.95 2.152-5.75-.132-.687.343-1.254 1.054-1.258.712-.004 1.81-1.12 2.441-2.48 1.056-2.277.957-2.457-1.25-2.274-1.319.109-2.404.663-2.412 1.23-.009.568-.452.357-.985-.468-.798-1.235-.972-1.25-.985-.083-.008.779-.311 1.12-.673.758-.362-.362-1.346-.099-2.187.584-1.28 1.038-1.424.96-.886-.477.354-.945.213-1.984-.313-2.309-.526-.325-.956.287-.956 1.361m118.69-1.084c-.445.688-.545 1.25-.223 1.25.321 0-.114 1.35-.967 3s-1.104 3-.557 3 .735.675.419 1.5c-.317.825-1.203 1.5-1.969 1.5s-1.4.788-1.408 1.75c-.012 1.367-.204 1.452-.878.389-.474-.748-.621-2.281-.327-3.406.395-1.51.191-1.833-.78-1.233-.981.606-1.172.265-.751-1.344.31-1.186.156-2.156-.343-2.156-.498 0-.906.9-.906 2s-.398 2-.883 2c-.486 0-1.161 1.012-1.5 2.25-.473 1.725-.821 1.933-1.492.893-.645-1.001-1.064-1.05-1.596-.19-.509.823-1.125.634-2.093-.643-.904-1.193-1.383-1.359-1.404-.489-.024.979-.452.902-1.651-.297-1.759-1.759-1.264-2.314-5.988 6.716-.789 1.506-1.384 3.041-1.324 3.41.061.368-.605 1.071-1.479 1.56-.875.489-1.59 1.569-1.59 2.399 0 .897-.474 1.216-1.17.786-.794-.491-.958-.171-.511.993.439 1.146.278 1.481-.485 1.009-.671-.415-.87-.265-.482.363.363.588.095 1.298-.596 1.578-.905.367-.944.741-.141 1.336 1.253.928 2.845 5.326 1.928 5.326-.326 0-1.085-1.238-1.687-2.75-.615-1.546-1.298-2.203-1.559-1.5-.255.688-1.27 1.25-2.255 1.25-.985 0-3.905 2.025-6.488 4.5-2.583 2.475-5.141 4.5-5.684 4.5-.544 0-.76.37-.48.822.279.452-.398 1.597-1.506 2.545-2.514 2.153-2.075 5.031.831 5.447 2.326.332 5.324-1.526 14.259-8.836 9.525-7.794 10.195-8.429 11.057-10.478.782-1.858.847-1.867.906-.128.052 1.544.325 1.656 1.552.637.819-.68 1.242-1.635.941-2.122-.301-.488.168-.887 1.042-.887.875 0 1.843-.658 2.152-1.462.308-.804 1.443-1.742 2.521-2.084 1.562-.496 1.721-.91.785-2.038-.74-.892-.791-1.416-.136-1.416.572 0 1.202.487 1.4 1.081.436 1.309 9.086-6.792 14.147-13.249 4.059-5.178 4.308-5.832 2.229-5.832-.787 0-1.575-1.012-1.752-2.25-.222-1.561-.568-1.867-1.128-1m-77.504 30.967c-2.587 3.216-2.698 3.978-.666 4.608 1.042.323.964.413-.25.285-.974-.103-2.782 1.156-4.02 2.796-2.689 3.564-2.64 3.058-.5 5.217 1.667 1.681 1.667 1.734 0 1.102-.962-.364-1.75-.212-1.75.339 0 .55 1.012 1.375 2.25 1.833 1.238.458 2.114 1.231 1.947 1.718-.166.487.396 1.03 1.25 1.208.854.178 1.553-.245 1.553-.941 0-.705.636-.406 1.438.677 1.422 1.919 1.455 1.918 2.911-.048.811-1.094 1.262-2.331 1.003-2.75-.258-.419.119-.768.839-.776.978-.012.942-.248-.143-.934-.799-.506-1.811-.697-2.25-.426-.439.271-.798.054-.798-.483 0-.536.478-1.135 1.062-1.329.737-.246.751-1.175.045-3.031-.866-2.279-.728-2.768.938-3.296 1.075-.342 1.955-1.265 1.955-2.053 0-1.922-.978-1.806-2.692.317-1.293 1.603-1.356 1.55-.753-.625.448-1.613.304-2.156-.448-1.691-.609.376-1.107.234-1.107-.316s.45-1.278 1-1.618c.55-.34 1-1.041 1-1.559 0-1.72-1.601-.974-3.814 1.776M319.5 367.455c-3.3.642-7.267 1.702-8.815 2.356-1.548.654-3.536 1.189-4.417 1.189-.881 0-1.294.307-.918.683 1.002 1.002-4.409 3.041-14.217 5.358-4.748 1.122-9.308 2.315-10.133 2.65-1.43.583-3.129 1.076-5.649 1.64-.632.141-1.799.796-2.592 1.454-.794.659-1.703.938-2.021.62-.318-.318-5.191 1.273-10.829 3.535-5.638 2.262-10.737 3.943-11.33 3.736-.593-.208-2.152.455-3.464 1.473-1.312 1.018-3.197 1.851-4.191 1.851-.993 0-2.029.36-2.301.801-.272.44-2.436.91-4.809 1.044-2.373.135-6.188 1.146-8.478 2.247-2.29 1.102-8.59 3.736-14 5.853-25.066 9.812-43.61 18.455-48.086 22.414-1.238 1.094-2.25 1.709-2.25 1.366 0-.343-2.675.704-5.944 2.326s-6.419 2.949-7 2.949c-.581 0-1.056.343-1.056.763 0 .852.331.664-14.36 8.184-7.685 3.935-10.64 5.958-10.64 7.285 0 1.487-.358 1.647-1.872.836-1.177-.63-3.041-.667-5.019-.099-3.659 1.049-3.445 1.012-6.359 1.094l-2.25.064 2.25.904c1.238.498 2.25 1.369 2.25 1.937 0 1.47 3.732 1.282 4.338-.218.335-.831.531-.73.583.3.043.852-.461 2.09-1.121 2.75-1.415 1.415-.611 1.525 9.45 1.303 5.444-.12 6.75.145 6.75 1.374 0 .838.45 1.523 1 1.523s1-.682 1-1.515c0-.833 1.462-2.381 3.25-3.44 1.787-1.06 3.914-2.516 4.725-3.236.812-.72 1.712-1.25 2-1.179.289.072 1.65-.338 3.025-.911s2.838-.969 3.25-.88c.412.088.75-.289.75-.839s.868-1 1.929-1c1.06 0 2.603-.675 3.428-1.5.825-.825 2.207-1.5 3.072-1.5.864 0 1.459-.562 1.321-1.25-.142-.708.968-1.39 2.559-1.572 1.545-.177 3.056-.965 3.357-1.75.301-.785.993-1.428 1.537-1.428.543 0 2.295-.931 3.893-2.068 1.597-1.138 2.904-1.728 2.904-1.312 0 .417.918-.228 2.039-1.431 1.121-1.204 2.471-2.245 3-2.314 1.734-.225 2.397-.481 8.461-3.256 7.909-3.619 10.91-4.949 17.5-7.756 3.025-1.288 5.725-2.635 6-2.994.87-1.133 10.793-3.74 11.573-3.039.411.368.469.18.128-.419-.395-.693.728-1.141 3.082-1.229 2.037-.077 3.848-.574 4.025-1.105.176-.53.967-.717 1.757-.414.789.303 1.435.053 1.435-.556 0-.609.863-1.107 1.918-1.107s2.71-.304 3.677-.675c1.632-.626 1.62-.729-.168-1.43-1.519-.595-1.256-.769 1.241-.825 4.013-.089 6.481-1.02 5.767-2.175-.304-.492.297-.895 1.336-.895 1.04 0 7.029-2.062 13.309-4.583 13.85-5.558 30.075-10.838 39.466-12.843 7.569-1.616 21.377-6.18 28.338-9.367 3.83-1.753 10.107-7.545 10.114-9.332.007-1.975-9.409-2.189-18.498-.42M67.701 409.632c-.385.386-.694 1.639-.686 2.785.013 1.674.198 1.794.946.612 1.588-2.511 2.163-.492 1.31 4.598-.45 2.68-1.332 4.873-1.961 4.873s-1.518.404-1.977.898c-.483.52.112.665 1.418.343 1.444-.356 2.017-.174 1.596.507-.386.624-.181.767.498.347.641-.396 1.192-.131 1.238.596.046.72.197 2.341.336 3.601.139 1.261-.104 2.513-.539 2.782-.957.592.054 3.638 1.547 4.661.721.494.663.739-.177.75-.719.008-1.25 1.29-1.25 3.015 0 1.65.459 3 1.019 3 .603 0 .748-1.082.354-2.649-.432-1.722-.301-2.425.373-2.008.57.352 1.359 5.145 1.753 10.649.394 5.504 1.118 10.008 1.609 10.008.491 0 .892.477.892 1.059s-.493.754-1.096.382c-.681-.421-.96.03-.736 1.191.197 1.027 1.028 1.868 1.846 1.868.817 0 1.761.375 2.097.834.336.458.884.121 1.218-.75.335-.871.124-1.584-.467-1.584-.592 0-.828-.646-.525-1.435.303-.79.013-1.654-.643-1.921-.908-.37-.902-.505.025-.565.67-.043 1.02-.641.778-1.329-.652-1.85 2.141-5.092 3.606-4.186.862.533 1.043.26.598-.9-.351-.915-.244-1.664.237-1.664s.639-.9.352-2c-.288-1.1-1.146-2-1.907-2-.76 0-1.383-.675-1.383-1.5 0-2.489-.128-2.95-1.171-4.206-.551-.664-.695-1.702-.321-2.307.883-1.429-.315-6.225-1.389-5.561-1.125.696-2.989-5.891-3.763-13.299-.353-3.37-.977-6.127-1.387-6.127-.411 0-.684-.77-.608-1.712.143-1.757-2.406-2.91-3.66-1.656m429.009 1.049c-.409.65-.794 3.468-.857 6.264-.091 4.008-.385 4.858-1.395 4.02-.848-.703-1.49-.723-1.901-.057-.342.552-1.282.751-2.089.441-.834-.32-1.498.023-1.538.794-.039.746-.457.457-.93-.643-.815-1.896-.863-1.901-.93-.097-.067 1.816-.152 1.809-1.858-.158-1.46-1.684-2.147-1.856-3.75-.939-1.079.617-3.087 1.28-4.462 1.473-1.375.193-3.454 1.245-4.62 2.338l-2.12 1.987-.598-2.287c-.561-2.148-.678-2.178-1.907-.497-1.516 2.074-8.333 3.898-11.255 3.012-2.755-.836-6.571-3.928-5.799-4.699 1.273-1.273-4.556-.589-7.337.861-1.575.821-2.44 1.496-1.923 1.5 1.715.011-2.907 2.942-4.691 2.974-.962.018-1.75.482-1.75 1.032s-1.827 1-4.059 1-3.85.337-3.595.75c.487.789 19.101.788 33.833 0 6.257-.335 9.139-.925 10.328-2.114.964-.965 2.206-1.335 2.992-.892.739.416 6.779.617 13.422.447l12.079-.309v-6.941c0-3.817-.417-6.941-.927-6.941-.509 0-1.082-.788-1.273-1.75-.238-1.202-.58-1.38-1.09-.569M425 415c-.825.533-1.012.976-.417.985.596.008 1.084.69 1.084 1.515 0 1.819-1.306 1.982-2.005.25-.372-.923-.525-.891-.583.122-.061 1.055-.4 1.107-1.462.225-1.07-.888-1.522-.788-1.993.441-.336.874-1.063 1.309-1.617.966-.554-.342-1.007-.144-1.007.44s-1.238.997-2.75.918c-4.949-.26-5.984.017-4.25 1.138 1.297.838 1.275.971-.167.985-.916.008-1.879-.547-2.139-1.235-.26-.687-.455.184-.433 1.936.037 2.973.364 3.264 4.867 4.345 4.123.989 5.059.925 6.421-.437 1.784-1.785 2.896-2.123 1.951-.594-.34.55-.093 1 .549 1 .756 0 .939-.911.519-2.584-.416-1.659-.28-2.356.38-1.948.627.388.779-.015.389-1.031-.497-1.297-.215-1.533 1.269-1.062 2.332.74 7.935-3.691 6.861-5.428-.526-.851-.946-.799-1.577.196-.669 1.057-.863.97-.875-.393-.017-1.969-.82-2.169-3.015-.75m-277.425 60.568c-.862.862-2.695 1.688-4.073 1.835-1.378.147-2.804.566-3.17.932-.366.366-1.603.681-2.749.7-1.937.033-1.908.143.417 1.563 2.37 1.448 2.383 1.503.25 1.058-2.409-.502-3.257 1.771-1 2.682 1 .403 1 .52 0 .583-.687.043-1.25.712-1.25 1.485 0 .916-.785 1.261-2.25.989-1.238-.229-1.687-.15-1 .177 3.385 1.61-.879 2.979-5.749 1.846-2.419-.563-2.437-.626-.559-1.999 1.868-1.366 1.848-1.419-.528-1.419-1.358 0-3.49.715-4.738 1.589-1.248.874-2.894 1.35-3.658 1.056-.868-.333-1.759.478-2.374 2.161-.543 1.482-1.022 2.174-1.065 1.538-.134-1.96-4.079-.245-4.079 1.773 0 1.035.45 1.883 1 1.883s1-.501 1-1.114c0-.755 1.468-.893 4.562-.429 2.888.433 5.059.272 5.916-.438.744-.618 3.528-1.033 6.187-.922 2.659.11 5.735.102 6.835-.019l2-.219-2-.848c-1.543-.654-1.123-.829 1.839-.764 3.895.085 6.065-1.589 5.182-3.997-.252-.687-.022-1.25.51-1.25.533 0 .969.675.969 1.5 0 1.707 1.568 2.009 2.51.484.346-.559 1.047-.758 1.559-.441.512.316.931.098.931-.484s.533-1.059 1.186-1.059c.652 0 2.227-.978 3.5-2.174 1.467-1.379 2.314-1.696 2.314-.865 0 .721 1.322-.204 2.938-2.055 3.478-3.983 2.523-5.152-3.438-4.211-3.647.577-3.879.486-2.628-1.031 1.889-2.289-3.015-2.378-5.297-.096m171.138 4.831c-5.531 1.514-4.719 1.324-9.354 2.193-2.934.551-3.305.859-1.948 1.618 1.08.605 1.459 1.623 1.065 2.864-.414 1.307-.137 1.926.863 1.926.937 0 1.299-.668.994-1.833-.31-1.189.06-1.834 1.053-1.834.952 0 1.452.788 1.323 2.084-.267 2.662-1.514 3.549-5.018 3.568-1.615.008-2.546.44-2.191 1.015.777 1.257 7.185 1.319 7.952.077.314-.508 2.028-1.259 3.809-1.67 3.188-.734 3.2-.757.739-1.477-2.302-.673-2.223-.752 1-1.001 1.925-.149 4.4-.355 5.5-.458 1.1-.104 3.039-.252 4.309-.329 1.488-.092 2.052-.558 1.586-1.312-.493-.798-.167-.957 1.025-.499 1.164.446 1.605.253 1.321-.58-.235-.688-1.447-1.102-2.693-.92-1.45.212-2.022-.064-1.588-.766a1.287 1.287 0 0 1 1.764-.427c.693.429.793.198.276-.638-.564-.913-.421-1.069.475-.515.856.528 1.132.329.827-.596-.618-1.875-7.137-2.12-13.089-.49m29.909-.596c-.346.559-.354 1.732-.018 2.607.499 1.301-.182 1.596-3.747 1.62-6.06.043-3.006 1.535 4.893 2.391 4.805.522 6.254.378 6.265-.621.013-1.066.164-1.066.84 0 .507.798 2.42 1.206 4.958 1.056 2.273-.134 4.445.068 4.826.45.382.382-.393.726-1.722.764-2.244.066-2.274.132-.417.93 2.634 1.132 3.737 1.192 3.105.171-.955-1.547 8.436.441 9.467 2.004.315.477 3.69 1.119 7.5 1.428 8.478.687 12.428 2.076 12.428 4.372 0 2.141 9.609 8.394 15.632 10.172 2.403.709 4.368 1.696 4.368 2.194 0 .497.627.383 1.394-.253 1.488-1.235 4.606.897 4.606 3.15 0 .602.284.811.631.464.943-.943 4.519 1.246 3.838 2.348-.323.523.591.95 2.031.95 1.44 0 2.374.395 2.075.878-.298.483 1.363 2.126 3.691 3.652 2.329 1.526 4.594 3.38 5.034 4.122 1.075 1.812 4.346 1.714 5.062-.152.745-1.944 2.638-1.944 2.638 0 0 .825.337 1.447.75 1.382 2.201-.348 3.297.232 2.587 1.368-1.668 2.671-.352 8.75 1.895 8.75 1.412 0 3.754 2.68 3.001 3.434-.37.369.061.39.957.047 1.47-.564 3.073 1.799 3.261 4.805.027.433.724 1.214 1.549 1.735.944.597 1.048.954.281.964-.674.008-.959.69-.638 1.528.32.832.025 2.182-.654 3-.924 1.114-.937 1.487-.052 1.487.649 0 .86.52.468 1.155-.398.643-.279.885.27.546.547-.338.905.37.806 1.595-.098 1.212.316 2.541.921 2.954.769.526.699 1.008-.236 1.611-1.067.689-1.004.987.319 1.495 1.128.433 1.448 1.278 1.009 2.662-.937 2.953.415 7.982 2.145 7.982 1.084 0 1.354.805 1.008 3-.26 1.65-.103 3 .35 3 .452 0 .673 3.82.491 8.49-.182 4.669.049 8.724.514 9.011.464.287.65 2.092.412 4.011-.238 1.918-.061 3.488.395 3.488.455 0 .827 1.35.827 3s-.274 3-.61 3c-1.043 0-.649 6.459.441 7.235.653.464.548.74-.284.75-.886.01-1.11.753-.685 2.265.431 1.531.338 1.825-.291.921-.603-.869-.901.974-.859 5.313.036 3.707-.409 6.946-1.008 7.329-.616.395-.996 3.455-.892 7.187.099 3.575-.237 7.057-.746 7.737-.509.681-.677 1.885-.373 2.677.303.792-.287 3.735-1.312 6.541-1.026 2.805-1.861 5.32-1.855 5.587.059 3.061-1.829 9.82-3.688 13.208-2.153 3.922-1.996 4.806.776 4.368 1.125-.177.939.587-1.234 5.084-1.09 2.258-2.264 5.724-2.608 7.702-.757 4.359-5.112 11.096-7.173 11.096-1.295 0-3.029 1.293-11.235 8.38-.825.712-2.288 1.579-3.25 1.926-.962.347-1.75 1.094-1.75 1.66 0 .566-2.137 2.07-4.75 3.343-2.613 1.272-5.762 2.848-7 3.502-4.72 2.494-5.815 2.866-7.954 2.701-1.224-.095-1.933.266-1.595.813.334.541.12.682-.477.313-.597-.369-1.356-.233-1.687.302-.331.535-1.374.725-2.319.422-1.295-.415-1.389-.315-.383.405 1.038.744.854 1.081-.829 1.521-1.53.4-2.016.18-1.658-.751.278-.725-.379-2.267-1.46-3.427-1.081-1.161-1.541-2.11-1.021-2.11 1.394 0 .084-4.082-1.506-4.692-.748-.287-1.361-.95-1.361-1.474s.402-.704.893-.4c.865.535 2.639-4.058 2.236-5.789-.11-.471.322-1.483.958-2.25.925-1.114.755-1.395-.842-1.395-1.78 0-1.951-.522-1.563-4.75.721-7.86 1.252-9.489 2.89-8.861.972.373 1.905-.376 2.688-2.159.66-1.501 1.572-2.997 2.027-3.324.455-.327 1.928-6.551 3.273-13.83 2.195-11.88 4.364-21.092 8.966-38.076.819-3.025 2.572-7.75 3.895-10.5s3.232-7.136 4.242-9.746c1.01-2.611 2.16-4.748 2.556-4.75.395-.002.465-.792.155-1.754-.455-1.414-.367-1.474.457-.311.716 1.01 1.034-2.42 1.066-11.5.04-11.185-.14-12.694-1.33-11.129-.886 1.166-1.612 1.427-2.04.734-.842-1.363-2.527-.378-2.527 1.477 0 .771-1.6 4.773-3.555 8.892s-3.784 9.199-4.064 11.288c-.279 2.09-1.571 6.724-2.871 10.299-1.299 3.575-3.275 10.1-4.392 14.5-1.116 4.4-2.725 10.73-3.574 14.066-.849 3.336-1.544 7.236-1.544 8.666 0 1.431-.495 2.766-1.1 2.968-.604.201-1.208 2.38-1.34 4.842-.133 2.461-.735 5.371-1.339 6.466-.603 1.096-2.099 6.267-3.324 11.492-1.225 5.225-2.81 10.905-3.522 12.623-.713 1.718-1.043 3.376-.733 3.685.309.31-.159 1.592-1.04 2.85S392 705.267 392 706.272s-.763 3.267-1.695 5.028c-.933 1.76-1.802 3.65-1.932 4.2-.13.55-1.23 3.475-2.445 6.5-1.215 3.025-2.297 6.716-2.406 8.202-.108 1.486-.777 3.401-1.487 4.256-.71.855-1.581 3.014-1.936 4.798-1.004 5.042-13.59 10.866-24.331 11.259-5.863.215-9.487 1.01-15 3.292-3.997 1.655-10.868 3.531-15.268 4.169-10.257 1.488-13.258 1.951-17.25 2.665-2.647.474-3.25.258-3.25-1.164 0-4.696-2.294-9.3-4.881-9.797-3.544-.681-3.555-.605-.658 4.842 1.396 2.627 2.539 5.857 2.539 7.179 0 1.771.789 2.678 3 3.449 2.942 1.025 3.562 2.344 2.987 6.35-.536 3.734.076 17.921.797 18.462.394.296.748 1.551.787 2.788.04 1.237.152 3.6.25 5.25l.179 3h14.441c9.089 0 14.684-.393 15.096-1.059.833-1.348 14.11-7.838 17.169-8.393 1.269-.23 3.011-1.122 3.872-1.983 1.358-1.358 4.196-2.074 6.672-1.683.413.065.75-.632.75-1.549 0-.916.301-1.365.669-.997.368.367 1.45-.039 2.405-.903.955-.865 3.917-1.904 6.581-2.31 3.113-.474 4.747-1.191 4.57-2.006-.181-.835.387-1.058 1.665-.652 1.34.425 2.43-.084 3.525-1.647 1.446-2.064 1.585-2.094 1.585-.341 0 1.496.267 1.656 1.2.723 1.451-1.451 3.165-1.6 2.3-.2-.34.55-.19 1 .334 1s1.222-.704 1.552-1.563c.33-.86 1.053-1.284 1.607-.941.554.342 1.007.115 1.007-.505 0-.621 1.297-.204 2.891.931l2.89 2.058.682-3.636c.473-2.517.284-3.882-.611-4.436-1.753-1.083-.679-1.952 3.16-2.557 2.368-.373 3.003-.184 2.44.727-.471.762-.348.976.324.56.597-.369 1.368-.213 1.714.346.345.559-.186 1.023-1.181 1.031-1.555.013-1.598.167-.309 1.095 1.219.877 1.131.958-.47.431-1.083-.355-1.652-.33-1.265.057s-.077 1.318-1.031 2.068c-1.54 1.212-1.399 1.293 1.266.72 1.65-.354 3.428-1.036 3.95-1.515.523-.479 1.76-.871 2.75-.871s1.8-.45 1.8-1-.337-.929-.75-.841c-.413.087-1.535-.185-2.494-.605-2.151-.941-1.306-2.702.891-1.859 2.038.782.838-3.62-1.44-5.286-1.277-.933-1.165-1.187.746-1.686 1.253-.328 1.956-1.061 1.589-1.656-.363-.587-.183-1.067.399-1.067 1.483 0 1.327 2.725-.191 3.338-.759.306-.575.535.469.583 1.18.054 1.518.6 1.08 1.743-.405 1.055-.244 1.42.441.997 2.082-1.287 4.26.506 4.26 3.505 0 1.624.43 2.686.956 2.361.526-.325.701-1.257.389-2.07-.388-1.01-.097-1.299.915-.911.844.324 1.749-.128 2.104-1.052.342-.891 1.075-1.341 1.629-.998.554.342 1.007.115 1.007-.504 0-.62.788-.877 1.75-.572.962.305 3.034-.113 4.604-.928 1.57-.815 3.257-1.232 3.75-.928.493.305.896.051.896-.564s.52-.797 1.155-.405c.748.463.881.272.379-.54-.575-.93-.291-1.034 1.095-.401 1.651.754 3.369.863 6.871.437.55-.067.348-.534-.448-1.038-1.13-.715-.835-1.069 1.345-1.617 2.128-.534 2.473-.93 1.448-1.663-1.015-.726-.916-.824.405-.399.962.31 1.75.131 1.75-.397s1.542-2.98 3.426-5.448c1.885-2.469 3.701-5.353 4.036-6.409.383-1.208 2.322-2.421 5.229-3.27 2.68-.783 4.805-2.055 5.062-3.031.244-.924 1.075-1.923 1.846-2.218 2.395-.92 1.5-3.027-2.03-4.782-4.949-2.459-7.229-1.388-10.274 4.831-1.806 3.689-2.969 5.076-3.67 4.375-.7-.7-.645-1.405.175-2.225 1.361-1.361 1.638-3.189.364-2.401-.46.284-2.485.627-4.501.763-2.245.151-4.775 1.233-6.53 2.792-6.115 5.433-14.133 9.725-14.133 7.566 0-.836.9-2.42 2-3.52s2-2.225 2-2.5c0-3.945.025-4.009.961-2.529.512.809 1.292 1.085 1.735.613.442-.472.245-1.058-.438-1.302-.923-.33-.968-.956-.173-2.44.605-1.131 1.686-1.76 2.492-1.451.783.3 1.423-.004 1.423-.676s1.384-2.528 3.076-4.125c1.908-1.801 2.899-3.577 2.611-4.681-.292-1.114 1.08-3.509 3.674-6.413 4.582-5.131 9.621-13.621 15.726-26.496 2.217-4.675 5.179-10.75 6.582-13.5 3.477-6.817 6.241-17.112 7.358-27.408.512-4.726 1.364-10.842 1.893-13.592.528-2.75.988-7.839 1.02-11.309.043-4.551.386-6.108 1.23-5.586.762.471.969.198.593-.78-.317-.827-.194-5.064.275-9.414 4.633-43.033.403-64.034-16.962-84.228-4.278-4.973-4.61-5.167-5.149-3-.978 3.934-4.93-3.392-4.213-7.81.425-2.616.2-3.373-1.003-3.373-.853 0-4.4-2.422-7.881-5.382-17.704-15.052-49.83-29.315-49.83-22.123 0 .703-1.35 1.476-3 1.718s-3 .031-3-.47c0-.5-.562-.708-1.25-.461-.687.246-2.114.002-3.171-.544-1.476-.761-2.229-.57-3.25.827-.731.999-1.329 1.394-1.33.876 0-.517-2.902-.979-6.449-1.027-3.665-.048-7.118-.641-7.999-1.372-1.001-.83-1.551-.9-1.551-.196 0 .6-.661.838-1.468.528-.808-.31-1.37-.859-1.25-1.219.12-.36-.232-.768-.782-.905s-1 .162-1 .667c0 .504-.337 1.254-.75 1.666-.413.413-.75.053-.75-.8 0-1.082-.904-1.512-3-1.427-1.65.068-3 .52-3 1.006s-.748.265-1.663-.49c-1.178-.973-1.774-1.039-2.048-.228-.211.629-1.258.915-2.326.636-1.067-.279-1.75-.815-1.518-1.191.233-.377.059-1.274-.386-1.994-.511-.827-1.04-.935-1.437-.292m-149.478 6.982c-.629.21-1.144 1.019-1.144 1.798 0 .78-.787 1.41-1.75 1.402-1.363-.012-1.45-.206-.393-.875.946-.6 1.021-1.067.25-1.544-.609-.376-1.114-.095-1.122.625-.011.953-.283.901-1-.191-.687-1.047-1.212-1.163-1.735-.385-.412.614-1.687 1.408-2.833 1.765-1.146.357-2.084 1.317-2.084 2.134 0 1.918 1.287 1.92 2.022.003.344-.896 1.222-1.233 2.217-.851 1.479.568 1.457.736-.213 1.648-1.022.558-2.084 1.301-2.359 1.65-.72.913-11.901 5.036-13.659 5.036-.814 0-3.496 1.387-5.96 3.082-4.471 3.076-4.478 3.089-3.804 7.75.371 2.567 1.098 5.199 1.614 5.849.516.649.894 2.449.839 4-.365 10.329-.034 27.319.532 27.319.268 0 .96-1.237 1.537-2.75.999-2.615 1.118-2.658 2.428-.875.931 1.269 1.959 1.639 3.175 1.143 1.692-.689 1.683-.775-.148-1.457-1.802-.671-1.767-.772.464-1.355 2.371-.62 4.366.863 3.357 2.496-.271.439-.048.798.496.798.545 0 1.134-1.013 1.309-2.25.176-1.237.77-2.267 1.32-2.288.55-.021 2.277-.377 3.838-.791 2.477-.658 2.668-.96 1.5-2.373-1.188-1.439-1.03-1.562 1.412-1.098 2.202.419 2.75.152 2.75-1.339 0-1.023.338-1.861.75-1.861 1.126 0 .903-7.382-.25-8.269-.632-.486-.434-1.222.539-2 1.104-.883 1.478-2.785 1.327-6.731-.374-9.708 4.736-14.138 7.498-6.5 1.172 3.241 3.136 4.807 3.136 2.5 0-.55.563-.887 1.25-.75.844.169 1.274-1.213 1.324-4.25.089-5.44 1.164-8.991 3.329-11 1.209-1.121 1.461-2.51.999-5.5l-.618-4-.157 4c-.087 2.209-.493 3.473-.907 2.822-.412-.648-1.632-1.098-2.71-1-1.079.098-1.995-.272-2.035-.822-.327-4.466-2.414-6.02-6.331-4.715m-44.634 7.199c-.345.559-.315 1.016.066 1.016.382 0-.819 1.322-2.67 2.938-1.85 1.615-3.064 3.238-2.697 3.605 1.02 1.019-4.18 5.405-5.712 4.818-1.313-.504-4.156 3.325-3.685 4.963.131.454-.192.559-.716.235-.552-.341-.795.67-.576 2.398.208 1.644-.049 3.252-.571 3.575-.522.322-.949.019-.949-.673 0-.905-.305-.954-1.085-.174-1.254 1.254-.859 5.457.495 5.265.501-.071 1.316.596 1.812 1.481.495.886 1.323 1.35 1.839 1.031.517-.319.939-.103.939.479s.466 1.059 1.035 1.059c.702 0 .691-.644-.035-2-.589-1.1-.714-2-.279-2 1.085 0 3.645-5.967 2.886-6.726-.699-.699 2.269-4.274 3.548-4.274.465 0 .733.337.595.75a.794.794 0 0 0 .5 1c.412.138.782-.087.821-.5.039-.413.743-1.492 1.564-2.399.821-.908 1.535-3.158 1.586-5 .051-1.843.751-3.834 1.554-4.424.804-.59 1.593-2.276 1.755-3.746.306-2.791-.936-4.451-2.02-2.697m-7.906 32.606c-.336.875-.377 1.969-.091 2.431.286.463.082 1.111-.453 1.442-.535.331-.725 1.374-.422 2.319.419 1.307.32 1.396-.412.372-.734-1.026-1.275-.55-2.271 2-2.276 5.821-2.812 7.876-1.91 7.318.481-.297.399.824-.182 2.493-.582 1.668-1.409 2.815-1.839 2.55-.594-.367-2.188 4.372-1.93 5.74.026.135-.428 1.494-1.009 3.021-1.554 4.089-2.072 7.724-1.101 7.724.469 0 1.47.237 2.226.527.966.371 1.361-.296 1.332-2.25-.028-1.848.419-2.679 1.336-2.484.941.199 1.208-.356.843-1.75-.293-1.124-.126-2.043.373-2.043.498 0 .906-1.35.906-3 0-1.838.475-2.903 1.226-2.75.675.138 1.369-.875 1.544-2.25.25-1.972.1-2.183-.711-1-1.288 1.879-1.381.572-.125-1.764.513-.955 1.506-4.548 2.206-7.986.7-3.437 1.568-6.25 1.93-6.25.361 0 .593-1.013.514-2.25-.078-1.237.321-2.581.887-2.985.607-.433.355-.741-.614-.75-.904-.008-1.918.701-2.253 1.575m-21.502 54.91c-.201 2.484-.372 2.669-.997 1.073-.676-1.724-.823-1.75-1.399-.25-.384 1.002-.152 1.683.575 1.692.761.01.843.292.219.75-1.258.925-1.724 2.686-2.047 7.735-.14 2.2-.3 4.589-.354 5.309-.055.72-.458 1.087-.897.816-2.299-1.421-3.326 1.142-1.861 4.648.819 1.96 1.356 3.713 1.195 3.895-.162.183-.562 3.707-.888 7.832-.416 5.257-.305 6.808.371 5.186.53-1.273 1.307-2.102 1.727-1.843.42.259.84-1.793.935-4.562.094-2.769.655-5.517 1.245-6.107 1.356-1.356 1.42-5.006.074-4.174-.55.34-1 .141-1-.441s.42-1.059.933-1.059c.513 0 1.237-.959 1.609-2.132.497-1.565.889-1.789 1.475-.841.439.71.584 1.849.322 2.531-.261.682.005 1.537.593 1.9.69.426 1.068-.766 1.068-3.368 0-3.419-.264-3.928-1.75-3.371-1.494.559-1.561.423-.458-.935 1.055-1.299 1.055-1.684 0-2.108-.711-.285-.339-.554.826-.597 2.339-.087 4.184-7.654 2.324-9.529-.591-.597-.942.024-.942 1.668 0 6.212-1.52 6.052-2.077-.218-.318-3.575-.687-5.15-.821-3.5m-63.973 24.142c-3.505 5.285-7.217 9.83-8.25 10.1-1.326.347-1.879 1.399-1.879 3.575 0 2.398.267 2.816 1.2 1.883.66-.66 2.202-1.2 3.427-1.2 2.168 0 6.332-4.145 6.414-6.385.022-.613 1.372-2.673 3-4.577 1.943-2.274 2.959-4.563 2.959-6.667 0-1.762.53-3.381 1.177-3.597 1.177-.392.319-2.789-.986-2.757-.38.009-3.558 4.341-7.062 9.625M83 619.5c0 .825-.445 1.5-.989 1.5s-.941 1.013-.883 2.25c.058 1.237-1.062 5.122-2.489 8.632-1.427 3.51-2.305 6.849-1.952 7.42.387.626.014.797-.94.431-1.597-.613-3.212 1.705-2.261 3.244.27.438-.178 1.352-.997 2.032-1.646 1.366-2.081 4.475-.489 3.491.55-.34 1-.093 1 .548s-.64.92-1.422.62c-1.026-.393-1.609.554-2.088 3.393-.366 2.167-1.103 3.939-1.637 3.939s-.739.376-.455.835c.742 1.2-1.551 8.165-2.688 8.165-.525 0-.341.74.41 1.644 1.222 1.473 1.105 1.562-1.12.856-2.219-.704-2.339-.614-1.129.845.746.898 1.826 1.343 2.4.988.682-.422.798.188.334 1.761-.39 1.323-.97 4.094-1.289 6.156-.613 3.971-1.895 4.581-5.533 2.634-1.834-.982-1.994-.891-1.321.75 1.445 3.525 1.833 6.04.679 4.394-.91-1.296-1.09-1.296-1.506 0-1.201 3.74-1.249 6.906-.11 7.343.74.284 1.025 1.533.717 3.142-.359 1.881-.75 2.282-1.322 1.357-1.059-1.713-1.566-.176-2.299 6.972-.453 4.406-.312 5.147.798 4.225 1.031-.855 1.518-.701 2.072.657 1.077 2.641 2.437-1.25 1.827-5.224-.423-2.75-.34-2.852.992-1.221 1.341 1.642 1.503 1.65 2.095.107.353-.92.893-1.421 1.2-1.115.306.307.133 1.384-.386 2.393-2.204 4.292-2.326 7.177-.282 6.642 1.529-.4 1.82-.093 1.408 1.482-.286 1.093.041 2.332.725 2.756.897.554 1.088.166.681-1.388-.436-1.668-.119-2.156 1.402-2.156 1.081 0 1.689-.446 1.352-.992-.337-.546-.153-1.783.41-2.75.879-1.508 1.029-1.367 1.055.992.016 1.513.431 2.75.922 2.75 1.394 0 2.342-5.166 1.163-6.345-.74-.74-1.055-.66-1.055.267 0 1.071-.29 1.082-1.523.059-.938-.779-1.277-2.034-.884-3.273.497-1.568.282-1.874-.978-1.391-.94.361-1.621.111-1.63-.598-.011-.849-.278-.804-.881.146-.552.873-.818-.264-.734-3.146.071-2.482.468-4.307.88-4.056.413.25.75-.048.75-.663s.408-.866.907-.558c.498.309.788-.227.643-1.191-.145-.963-.082-1.251.14-.64.222.611 1.52 1.619 2.885 2.241 2.487 1.133 4-.623 4.834-5.612.224-1.338 2.591-4.083 2.591-3.005 0 .349-.503 1.902-1.118 3.45-1.669 4.202-2.764 9.315-1.995 9.315.372 0 1.28-2.045 2.018-4.543.738-2.499 1.565-4.321 1.837-4.048.979.979 3.239-2.294 2.648-3.835-.332-.866-.12-1.574.472-1.574.591 0 .809-.693.484-1.541-.366-.954-.098-1.43.705-1.25.84.189 1.373-.939 1.515-3.209.12-1.925.267-4.219.326-5.097.059-.878 1.008-2.635 2.108-3.903 2.225-2.566 2.429-3.789 1-6-.804-1.244-.975-1.159-1.002.5-.018 1.1-1.15 3.06-2.515 4.355-1.366 1.295-2.483 2.002-2.483 1.571 0-1.165 2.11-7.66 3.157-9.717.501-.985.685-2.156.409-2.602-.276-.447.144-1.666.934-2.71.79-1.043 1.451-3.685 1.468-5.869.032-3.955.023-3.964-1.942-1.998-1.086 1.086-2.201 3.74-2.477 5.899-.277 2.159-.963 4.385-1.526 4.948-.563.563-1.026 1.721-1.029 2.573-.004.853-.679 2.839-1.5 4.414-.822 1.576-1.494 3.687-1.494 4.691 0 2.067-1.983 3.78-2.03 1.754-.018-.771-.468-.557-1.096.523-.585 1.007-.846 2.665-.58 3.685.271 1.036-.128 2.089-.905 2.387-.764.293-1.434.21-1.488-.185-.642-4.652-.462-6.264.652-5.837.688.264 1.513-.502 1.835-1.701.862-3.216.805-3.423-1.553-5.62-2.001-1.864-2.07-2.334-.911-6.203.959-3.2 1.485-3.853 2.231-2.772.712 1.031.805.804.343-.837-.576-2.048-.412-2.167 1.83-1.314 2.344.891 2.463.757 2.446-2.749-.024-4.878 1.136-9.283 3.012-11.436.838-.962 1.219-1.75.846-1.75-.373 0 .035-1.089.907-2.42.872-1.33 1.499-3.018 1.393-3.75-.253-1.752 2.29-7.83 3.277-7.83.424 0 .001-.9-.941-2-2.036-2.378-3.268-2.566-3.268-.5m41.592 14.792c-.823 4.115-.745 4.921.408 4.208.55-.34 1 .084 1 .941s-.45 1.559-1 1.559-1.007-.562-1.015-1.25c-.011-.846-.317-.774-.947.222-.984 1.557-1.091 1.421-2.271-2.909-.304-1.116-.891-.939-2.616.786-1.223 1.223-1.956 2.658-1.628 3.187 1.024 1.659 2.32 1.057 2.771-1.286.314-1.627.471-1.35.57 1 .075 1.788-.341 3.25-.923 3.25-.582 0-.781.45-.441 1s-.196 1.036-1.191 1.079c-1.137.05-1.325.273-.506.601.999.4.921.801-.333 1.718-1.905 1.393-3.206 8.602-1.552 8.602.595 0 1.082.73 1.082 1.622 0 1.392.233 1.429 1.644.258 1.462-1.213 1.565-1.115.933.878-.434 1.367-.295 2.242.356 2.242 1.161 0 1.352-1.628 1.175-10-.114-5.345 1.613-14.241 1.806-9.309.1 2.549 1.683 3.898 2.422 2.065.3-.746.538-.533.585.525.043.98-.596 2.041-1.421 2.357-.825.317-1.5 1.155-1.5 1.862 0 .707.675 1.545 1.5 1.862.972.373 1.505-.029 1.515-1.143.012-1.346.202-1.425.875-.362.529.834 1.098.971 1.479.355.341-.552-.104-1.28-.987-1.619-1.262-.484-1.355-.921-.434-2.031.646-.777 1.093-2.01.994-2.738-.463-3.421.18-5.824 1.558-5.824.833 0 1.5-.889 1.5-2 0-1.1-.45-2-1-2s-1-.6-1-1.333c0-2.624-2.828-1.275-3.408 1.625m374.044 31.935c-.475 3.7-.603 7.77-.283 9.044.394 1.568-.845 5.273-3.837 11.477-2.43 5.038-4.918 11.768-5.528 14.956-3.571 18.658-6.025 29.929-8.448 38.796-1.503 5.5-3.33 12.7-4.06 16-2.372 10.719-4.343 17.151-6.313 20.609-1.063 1.865-2.244 4.729-2.625 6.364-.69 2.965-.687 2.968 1.407 1.073 1.597-1.445 1.794-2.092.825-2.707-.929-.589-.8-.813.476-.824.962-.008 1.75-.456 1.75-.996 0-.539 1.125-1.263 2.5-1.608 2.052-.515 2.5-1.236 2.5-4.019 0-1.866.436-3.392.969-3.392.532 0 .681-.749.33-1.664-.43-1.119-.256-1.427.531-.941.799.494 1.17-.28 1.17-2.443 0-2.403.361-3.027 1.5-2.59.825.316 1.5.098 1.5-.486 0-.583.913-2.222 2.03-3.641 1.574-2.001 1.742-2.763.75-3.392-.938-.595-.812-.816.47-.828.962-.008 1.75-.717 1.75-1.574 0-.857.45-1.281 1-.941.55.34 1 1.968 1 3.618 0 1.745-.418 2.742-1 2.382-.55-.34-1-.093-1 .548 0 .664.697.898 1.621.544 1.237-.475 1.498-.156 1.106 1.345-.283 1.082 0 2.178.629 2.436.848.348.843.49-.015.548-.856.058-.802 1.436.204 5.249.75 2.843 1.13 5.547.845 6.008-.285.461.523 1.257 1.796 1.767 1.273.511 1.752.957 1.064.992-.687.034-1.25.54-1.25 1.122 0 .582.45.781 1 .441s1 .057 1 .882.508 1.814 1.13 2.198c.686.424.946.153.662-.691-.257-.764.139-1.839.881-2.389 1.11-.823 1.302-11.516 1.088-60.5-.172-39.121-.557-57.196-1.125-52.773m-399.405 5.678c-.457 1.234-1.145 2.21-1.531 2.169-1.89-.2-1.941.029-.28 1.244 1.628 1.19 1.652 1.467.25 2.869-.884.884-1.357 2.575-1.1 3.932.249 1.31.184 1.816-.144 1.125-.868-1.827-2.247-.609-3.964 3.501-1.578 3.778-.005 6.977 1.823 3.71 1.344-2.402 2.701-1.644 2.317 1.295-.61 4.684-1.851 8.646-3.507 11.202-1.481 2.284-1.47 2.406.158 1.781 2.239-.859 2.198.062-.162 3.643-1.664 2.524-1.955 2.646-2.377 1-.447-1.739-.492-1.73-.613.124-.112 1.696-.294 1.772-1.203.5-.861-1.205-.975-1.058-.578.75.271 1.237.058 2.25-.473 2.25s-.747.354-.479.786c.267.432-.382.785-1.442.785s-2.171-.768-2.469-1.708c-.633-1.994 1.441-14.862 2.396-14.865.356-.001.74-1.329.853-2.952.289-4.145-2.253-2.951-3.815 1.792-.663 2.014-1.923 4.21-2.798 4.88-1.417 1.084-1.372 1.224.407 1.266 1.533.036 1.678.251.62.921-.877.555-1.213 2.006-.923 3.984.251 1.711.197 3.111-.12 3.112-.317 0-.577 2.743-.577 6.095s-.296 6.573-.657 7.159c-.935 1.512.117 3.745 1.764 3.745.766 0 1.34-.337 1.275-.75-.331-2.097.242-3.292 1.273-2.655.634.393.907.307.604-.19-.302-.498.079-1.485.846-2.194.767-.71 1.428-1.16 1.469-1 .875 3.405.716 4.789-.549 4.789-.89 0-1.237.588-.886 1.502.317.826-.136 3.282-1.006 5.457-.976 2.44-1.209 4.185-.608 4.557 1.44.89 2.975-.376 2.975-2.453 0-1 .759-2.436 1.687-3.191 1.465-1.191 1.607-1.157 1.078.256-.335.896-.081 2.199.563 2.897.921.997.797 1.137-.578.654-1.283-.452-1.75-.09-1.75 1.352 0 1.083.445 1.969.989 1.969s.895 1.135.78 2.523c-.138 1.669-.67 2.345-1.571 2-.749-.288-1.761-.523-2.248-.523-.488 0-.646-.629-.35-1.399.295-.769.056-1.696-.532-2.059-.587-.363-1.068.042-1.068.899 0 1.863-1.624 2.078-2.338.309-.321-.796-.533-.659-.583.378-.043.895.591 2.183 1.41 2.863 1.816 1.507 1.038 3.149-1.103 2.327-1.32-.507-1.447.094-.854 4.044.494 3.299.353 4.638-.49 4.638-2.037 0-.749 5.433 1.458 6.15 1.894.616 1.884.656-.191.75-1.205.055-2.445.511-2.755 1.013-.749 1.211-1.432 15.24-.82 16.835.586 1.529 4.266-2.826 4.266-5.049 0-.817.675-1.744 1.5-2.061.864-.331 1.5-1.825 1.5-3.523 0-1.622.563-3.175 1.25-3.453.949-.382.956-.523.031-.583-1.547-.1-.545-3.142 1.604-4.868.988-.794 1.223-1.563.61-2-1.192-.851-1.193-4.958-.002-7.638.846-1.902.867-1.902 1.65 0 .587 1.426.755 1.016.646-1.573-.295-6.959.143-9.638 1.307-8 .843 1.187.971.978.609-1-.251-1.375-.123-3.625.284-5l.74-2.5 1.072 2.5 1.072 2.5.064-2.75c.034-1.513.513-2.75 1.063-2.75.55 0 1-1.35 1-3s.45-3 1-3 .968-1.013.93-2.25c-.065-2.086-.126-2.108-.835-.297-.648 1.657-.864 1.452-1.425-1.353-.364-1.818-.444-3.657-.179-4.086.266-.429.757-2.521 1.091-4.647.651-4.134 1.418-5.776 1.418-3.034 0 .917.45 1.667 1 1.667s.916-.337.814-.75c-.102-.413.522-2.37 1.387-4.35.894-2.048 1.366-5.066 1.095-7-.875-6.246-.95-11.385-.189-12.954.414-.855.348-2.205-.147-3-.68-1.093-1.059-.656-1.552 1.788-.358 1.778-1.03 3-1.492 2.714-.462-.285-.467-1.515-.012-2.733.454-1.218.511-3.097.124-4.175-.388-1.086-.031-3.668.8-5.785 1.121-2.853 1.214-4.113.368-4.959-.847-.847-1.346-.565-1.965 1.109m-32.658 49.196c.154 2.159-.105 3.688-.575 3.398-.47-.29-1.205.491-1.635 1.736-.709 2.06-.829 1.955-1.322-1.156-.774-4.892-2.894-5.167-2.631-.341.116 2.111.59 4.453 1.054 5.204.57.923.47 1.135-.309.653-.779-.481-1.155.303-1.155 2.405 0 2.126-.372 2.888-1.17 2.395-.827-.511-.936-.162-.371 1.191 1.497 3.589 1.787 6.414.658 6.414-.615 0-1.064.337-.999.75.066.413.025.975-.09 1.25-.115.275-.317 2.413-.448 4.75-.199 3.539.067 4.25 1.59 4.25 1.122 0 1.878-.774 1.955-2 .069-1.1.242-2.337.385-2.75.142-.413.585-1.748.982-2.967.398-1.219 1.594-2.493 2.658-2.831 1.933-.613 1.833-3.405-.215-5.986-.451-.568-.403-1.693.107-2.5.719-1.137.949-.905 1.022 1.034.053 1.424.309 1.855.594 1 .275-.825.767-2.175 1.093-3 .326-.825.658-2.4.738-3.5.08-1.1.469-3.8.865-6 .528-2.934.438-3.6-.338-2.5-.829 1.174-.963.919-.618-1.174.264-1.598-.07-2.87-.832-3.162-.924-.355-1.196.588-.993 3.437m33.79 18.596c.151 1.759-.124 2.951-.611 2.65-.487-.301-.782.06-.656.803.126.742-.153 2.7-.621 4.35l-.851 3-.635-2.5c-.599-2.361-.664-2.314-1.152.839-.331 2.143-.011 3.844.895 4.75 1.215 1.215 1.211 1.411-.023 1.411-.936 0-1.339.868-1.16 2.5.151 1.375-.121 2.5-.606 2.5-.484 0-.614.694-.288 1.542.754 1.966 2.936 1.269 2.568-.82-.152-.864.186-1.857.75-2.206.6-.37 1.027.43 1.027 1.925 0 2.692 1.91 3.643 2.125 1.059.238-2.851.378-3.337 1.208-4.167.459-.458 1.321-.833 1.917-.833.596 0 1.292-.625 1.546-1.389.281-.843.019-1.115-.666-.691-.652.402-1.13.051-1.13-.83 0-.912.575-1.307 1.427-.98 1.021.392 1.282-.006.917-1.401-.28-1.073-.039-3.653.536-5.735 1.403-5.082-.188-8.376-1.92-3.974-1.084 2.755-1.247 2.837-2 1-.451-1.1-.904-1.55-1.008-1-.104.55-.566-.35-1.026-2l-.838-3 .275 3.197" fill="#d3d3d3" fill-rule="evenodd"/></svg>