<svg xmlns="http://www.w3.org/2000/svg" width="500" height="655"><path d="M225 269.889c-8.083 2.2-12.252 4.338-14.251 7.31-.851 1.265-5.103 5.982-9.448 10.481-8.34 8.636-14.943 19.754-20.835 35.082l-2.792 7.263 2.223 2.365c2.957 3.148 3.619 10.861 1.794 20.9l-1.416 7.789 2.792 3.854c3.447 4.76 6.022 6.604 11.985 8.584 4.519 1.501 4.679 1.696 5.974 7.263 1.404 6.028 1.536 23.301.376 48.97l-.644 14.25 2.371.07c37.704 1.112 66.556 1.501 67.214.906.989-.894-.71-9.95-3.465-18.476-4.204-13.007-7.934-34.694-7.74-45 .131-6.987 4.095-15.412 10.58-22.49 1.255-1.369 2.282-3.38 2.282-4.469 0-2.704-11.316-37.753-16.11-49.897-2.139-5.421-3.89-10.199-3.89-10.619 0-.419 4.163-.834 9.25-.923 9.102-.158 15.75-.902 15.75-1.763 0-4.987-15.277-18.726-23.723-21.335-8.091-2.499-19.347-2.545-28.277-.115m58.25 156.847c-.687.237-1.25 1.293-1.25 2.347 0 2.71-1.979 2.396-2.1-.333-.095-2.159-.132-2.148-.9.25-.48 1.499-.841 1.834-.9.838-.06-.986-.811-1.556-1.85-1.404-2.435.359-2.712 14.432-.32 16.227.851.639 1.973.899 2.493.578.519-.321.074-.925-.989-1.341-1.534-.601-1.594-.772-.291-.828 1.715-.073 3.226-2.664 2.366-4.056-.274-.443.119-1.996.874-3.451 1.51-2.911 3.149-1.114 1.916 2.101-.463 1.207-.276 1.44.683.847.841-.52 1.811-.147 2.67 1.027 1.291 1.766 1.348 1.756 1.348-.222 0-3.519-1.208-8.316-2.094-8.316-.464 0-.556.749-.205 1.664.43 1.119.256 1.427-.531.941-.644-.398-1.163-1.934-1.155-3.414.012-2.05.237-2.341.946-1.22 1.166 1.843 2.002 1.075 1.163-1.068-.343-.879-1.186-1.404-1.874-1.167" fill="#d3d3d3" fill-rule="evenodd"/></svg>