<svg xmlns="http://www.w3.org/2000/svg" width="500" height="458"><path d="M162.959 90.354c-.298.309-8.398.656-18 .771-27.689.331-91.042 3.69-93.054 4.934-2.661 1.644-.078 3.989 3.82 3.468 4.627-.618 28.283-2.127 58.275-3.715 43.122-2.285 124.385-1.346 156.75 1.811 5.341.521 6.25.375 6.25-1.007 0-.889-.562-1.62-1.25-1.626-.687-.005-7.1-.643-14.25-1.418-7.15-.775-20.65-1.667-30-1.984-34.924-1.181-68.018-1.777-68.541-1.234m115.28 19.378c-4.763 1.669-2.275 10.709 2.729 9.92 3.272-.515 9.813-3.489 10.648-4.84.957-1.549-2.907-3.866-5.842-3.503-1.499.186-2.873-.106-3.054-.648-.374-1.122-2.61-1.585-4.481-.929m-25.704 22.618c-1.354.991-1.875 2.735-1.954 6.545-.112 5.418-1.396 7.228-4.543 6.405-4.617-1.208-6.281 4.91-3.001 11.031 1.85 3.451 1.929 4.353.859 9.793-.688 3.497-.808 6.338-.288 6.82 1.063.987 23.395 3.387 24.182 2.599.301-.3.046-1.558-.565-2.795-1.597-3.229-2.6-10.748-1.434-10.748 1.838 0 3.422-5.778 2.721-9.927-.62-3.671-1.047-4.14-4.649-5.11-4.693-1.264-5.672-3.079-3.473-6.436 3.879-5.92-2.235-12.286-7.855-8.177m24.035 14.989c-2.336 2.336-2.967 8.592-1.161 11.513.39.632.345 1.148-.1 1.148-.445.001-.928 2.813-1.074 6.25-.146 3.438-.507 7.013-.801 7.945-.617 1.96 3.857 3.182 9.633 2.632 2.792-.266 3.498-.794 3.779-2.827.19-1.375.782-3.031 1.314-3.68.671-.817.313-1.532-1.16-2.32-1.707-.914-2.001-1.719-1.485-4.07.459-2.09.263-2.934-.686-2.945-.859-.01-.956-.275-.273-.75.582-.404 1.123-3.567 1.204-7.027.138-5.866-.023-6.358-2.371-7.25-3.584-1.363-4.2-1.238-6.819 1.381M111.5 242.085c-18.625.806-56.996 3.697-59.325 4.47-1.309.434-1.48 66.485-.175 67.775.275.272 5.225-.111 11-.851 41.499-5.316 125.563-6.913 165.752-3.147 40.673 3.811 71.42 8.225 102.348 14.692 10.231 2.139 20.131 4.072 22 4.296 1.87.224 4.676.922 6.236 1.551 3.163 1.277 8.664 1.956 8.36 1.033-.576-1.75 2.532-3.524 5.427-3.099 2.901.426 3.123.263 2.696-1.974-.257-1.34.11-2.976.815-3.634 1.427-1.333 6.366-1.646 6.366-.403 0 .436 2.813 1.409 6.25 2.161 3.438.752 6.581 1.857 6.985 2.456.504.748.739.702.75-.146.01-.831 1.08-.586 3.265.746 1.788 1.09 4.274 1.983 5.525 1.985 1.555.003 2.603.867 3.312 2.734.571 1.501 1.391 2.963 1.822 3.25.43.286 1.083 1.746 1.449 3.243.566 2.312.4 2.627-1.096 2.081-1.595-.582-1.581-.437.143 1.526 1.048 1.194 1.578 2.17 1.179 2.17-3.677 0 16.77 8.947 27.44 12.007 2.395.687 2.998.499 3.502-1.089.335-1.055 1.103-1.918 1.708-1.918s.806-.293.448-.651c-.358-.358-.009-1.146.776-1.75 1.402-1.079 1.957-17.95 1.639-49.761l-.097-9.663-13.75-4.486c-57.051-18.615-86.456-25.966-140.658-35.16-20.317-3.447-20.592-3.432-20.592 1.07 0 4.676-2.59 10.061-5.163 10.733-2.539.664-4.837-.168-4.837-1.751 0-2.059-3.99-9.581-5.082-9.581-.57 0-.758-.45-.418-1s1.979-1 3.642-1c1.9 0 2.877-.444 2.627-1.194-.501-1.503-12.365-3.575-24.769-4.326-5.225-.316-10.762-.772-12.305-1.013-2.292-.359-3.114.105-4.5 2.541-.932 1.639-2.392 2.982-3.245 2.986-.852.003-2.09.546-2.75 1.206-.768.768-1.2.815-1.2.133 0-.635-1.62-.93-4-.728-2.2.186-4 0-4-.415 0-.414-2.137-1.358-4.75-2.096-11.36-3.212-15.798-4.947-13.25-5.18 16.1-1.473-47.017-2.148-77.5-.829m20.25 125.66c-4.812.183-8.753.653-8.756 1.044-.004.391-5.083.797-11.288.903-6.204.106-15.539.647-20.743 1.203-13.568 1.45-33.991 4.028-37.239 4.7l-2.775.575.275 14.972.276 14.973 175.25.325c96.387.179 175.25-.017 175.25-.436 0-2.368-53.373-17.992-80.5-23.565-25.864-5.313-66.605-11.363-87.5-12.992-7.773-.607-8.329-.532-6.5.873 1.811 1.392 1.84 1.599.313 2.191-.928.36-1.495 1.18-1.26 1.822.917 2.512-1.24 3.948-4.898 3.262-2.761-.518-3.422-1.038-2.936-2.305.453-1.18.205-1.475-.886-1.056-.833.319-2.089.226-2.792-.208-1.644-1.016 2.132-5.033 4.709-5.011 1.496.013 1.532.157.25.985-1.242.803-1.156.969.5.969 3.207 0 5.052-1.543 2.853-2.387-4.333-1.663-39.122-1.956-40.735-.343-1.395 1.395-1.354 1.597.418 2.06 1.281.335 1.937 1.328 1.885 2.857-.043 1.289-.306 1.782-.583 1.094-.921-2.283-2.338-1.293-2.338 1.633 0 2.728-1.259 3.765-5.5 4.528-.55.099-.83.834-.623 1.634.208.8.395 2.018.417 2.705.022.688.414 1.25.873 1.25.458 0 .833.505.833 1.122 0 .798-.415.778-1.436-.069-1.096-.91-1.95-.917-3.605-.031-1.201.642-3.798.906-5.814.589-3.189-.5-3.363-.43-1.395.561 2.472 1.245 2.953 2.468 1 2.542-.687.026-2.037.375-3 .774-1.05.436-1.75.283-1.75-.381 0-.609-.675-1.107-1.5-1.107s-1.5.353-1.5.784c0 .717-1.732.801-7.656.372-1.586-.115-2.027-.653-1.666-2.033.4-1.53.047-1.793-1.904-1.42-3.218.615-5.008-1.77-4.826-6.426.278-7.092.045-8.627-1.587-10.431-1.335-1.475-1.38-1.885-.247-2.246 3.927-1.251 4.187-1.432 1.886-1.315-1.375.069-6.437.276-11.25.46M116 371.037c0 .648-.675.918-1.5.601-.825-.316-1.5-.139-1.5.393 0 .533-.9.969-2 .969s-2-.45-2-1c0-2.184-1.509-.839-1.642 1.464-.148 2.571-2.444 5.536-4.287 5.536-.589 0-1.071.45-1.071 1s-.744 1-1.653 1c-1.32 0-1.188.403.653 2 2.659 2.306 6.817 2.641 7.595.612.293-.763 1.818-1.645 3.389-1.959 1.613-.322 3.123-1.415 3.471-2.513.339-1.067 1.754-2.227 3.144-2.575 3.397-.853 3.121-5.892-.349-6.385-1.239-.176-2.25.209-2.25.857" fill="#d3d3d3" fill-rule="evenodd"/></svg>