<svg xmlns="http://www.w3.org/2000/svg" width="500" height="500"><path d="M450.157 22.844c.359 3.774.186 4.156-1.881 4.156-1.356 0-2.276-.606-2.276-1.5 0-1.774-4.636-2.091-5.215-.356-.209.629-1.581 1.271-3.047 1.428-1.467.156-3.669 1.217-4.893 2.357-1.224 1.141-2.488 1.648-2.81 1.128-.635-1.028-3.552-.873-4.673.247C424.251 31.415 407 31.13 407 30c0-.55-.702-1-1.559-1s-1.281.45-.941 1c.34.55-.136 1-1.058 1-1.183 0-1.522-.588-1.152-2 .609-2.329 1.707-2.203-17.54-2.006-9.163.093-13.75-.216-13.75-.927 0-.654 2.707-1.067 7-1.067 4.12 0 7-.422 7-1.026 0-.686-11.797-.979-35.5-.882-19.716.08-35.5.537-35.5 1.026 0 .485 1.012.922 2.25.971 1.238.048 6.647.208 12.022.355 5.374.146 10.062.557 10.416.911.355.355-14.253.645-32.462.645-19.985 0-33.342-.379-33.699-.956-.325-.526-1.252-.703-2.059-.393-.915.351-1.468-.042-1.468-1.044 0-1.232-1.024-1.607-4.389-1.607-3.46 0-4.359.348-4.25 1.642.077.904-.423 1.841-1.111 2.084-.73.257-1.25-.391-1.25-1.56 0-2.138.89-2.087-36-2.057-3.575.003-6.95.46-7.5 1.016-.671.679-.178.937 1.5.787 5.315-.475 13 .132 13 1.026 0 1.426-39.245 1.363-42.384-.067-1.404-.64-2.346-1.5-2.092-1.911.984-1.59-5.619-1.827-53.774-1.929-39.939-.084-49.753.149-49.765 1.182-.011.921-.225.961-.75.142-.694-1.08-14.845-1.916-23.235-1.372l-3.5.227 4 1.318 4 1.318-3.191.077c-1.755.042-3.421.449-3.702.904-.748 1.21-15.917 1.386-18.985.219-1.689-.642-2.622-.649-2.622-.021 0 .536-1.575.975-3.5.975H26l-.158 34.25c-.088 18.838-.093 35.037-.012 36 .08.962-.353 1.75-.964 1.75-.699 0-.779.463-.216 1.25.492.688.769 2.825.615 4.75-.153 1.925-.398 5.975-.544 9-.146 3.025-.619 6.063-1.052 6.75-.433.688-.348 1.25.189 1.25.536 0 1.202-.562 1.48-1.25.301-.747.536-.545.583.5.043.963-.596 1.75-1.421 1.75-.825 0-1.5.477-1.5 1.059s.45.781 1 .441c1.066-.659 1.089-.546 1.37 6.75.141 3.661-.167 4.757-1.344 4.78-1.238.025-1.199.221.208 1.041 2.587 1.508 2.554 26.567-.036 27.25-1.534.404-1.526.458.075.563 1.622.106 1.762 1.436 1.643 15.616l-.13 15.5h-2.331c-1.784 0-2.304.527-2.216 2.25.26 5.104 3.454 6.298 4.013 1.5.208-1.787.46 8.976.56 23.918.139 20.891-.108 27.284-1.066 27.671-.992.401-.991.519.004.582 1.57.099 1.65 4.714.098 5.673-.633.391-1.758-.118-2.5-1.132-1.232-1.686-1.348-1.564-1.348 1.418 0 1.795.675 3.938 1.5 4.763 1.65 1.65 2.044 5.357.57 5.357-.512 0-1.113-1.012-1.336-2.25-.223-1.238-.436.214-.472 3.226-.055 4.546.341 5.854 2.336 7.702 2.97 2.753 3.677 16.619.902 17.684-1.952.749-1.948 6.255.006 10.002 2.014 3.862 1.905 4.492-1.006 5.818-3.122 1.423-3.122 2.105 0 5.227 2.345 2.346 2.5 3.142 2.5 12.879 0 5.708-.284 10.663-.631 11.01-.933.932-1.189 7.702-.292 7.702 1.537 0 1.095 33.766-.482 36.816-1.402 2.711-1.616 5.549-1.688 22.303-.026 6.007.298 7.746 1.53 8.219 1.984.761 2.009 3.511.052 5.675-2.606 2.878-3.099 25.1-.522 23.507 2.04-1.26 2.958 12.501 1.033 15.48-.862 1.333-.978 1.333-1.048 0-.043-.825-.516-.404-1.051.935-.535 1.339-.721 3.091-.413 3.894.308.803-.195 2.295-1.119 3.316-1.628 1.798-1.268 1.854 11.726 1.825 10.79-.025 13.015-.262 11.405-1.214-1.1-.651-4.25-1.117-7-1.035-2.75.081-4.435-.087-3.744-.372.691-.286 1.072-.819.847-1.184-.225-.366 4.947-.682 11.494-.703 11.318-.036 15.144.829 9.153 2.069-9.49 1.965-5.773 2.26 27.75 2.204 31.153-.052 33.777-.161 17.91-.74-10.224-.374-18.999-.928-19.5-1.231-.5-.304-5.109-.252-10.241.115-8.876.634-12.086-.063-9.047-1.966 1.358-.85 76.713-1.123 78.084-.282.389.238.47 1.051.18 1.806-.609 1.587-9.985 2.021-10.922.506-.779-1.261-5.464-1.212-5.464.057 0 .55-.75 1-1.667 1-.916 0-1.366.301-.998.668 1.106 1.107 42.521 1.374 43.198.279.333-.539 1.086-.682 1.674-.319.587.363 8.862.71 18.388.772l17.32.111-.566-2.255c-.525-2.094-.254-2.248 3.793-2.14 2.397.064 3.49.337 2.429.608-1.895.483-4.571 2.625-4.571 3.659 0 .289 4.275.526 9.5.526 8.93 0 9.5-.124 9.5-2.063 0-1.695-.441-1.952-2.473-1.442-1.88.472-2.343.28-1.929-.798.426-1.111 2.099-1.307 7.723-.907 8.306.592 8.263.574 6.227 2.611-2.505 2.504-1.988 2.69 7.466 2.69h9.015l-.529-3c-.392-2.227-.145-3 .961-3 1.121 0 1.341.741.889 3-.578 2.892-.469 3 3.025 3 3.96 0 5-2.131 1.889-3.872-3.235-1.811 2.872-2.338 19.416-1.678 8.701.348 16.27.558 16.82.468.55-.091 35.313-.353 77.25-.582 68.706-.376 76.25-.263 76.25 1.148 0 .861-1.081 1.977-2.403 2.479-4.417 1.679-4.144 3.187.516 2.849 3.615-.262 4.399-.702 4.875-2.738.784-3.354 5.172-4.73 9.067-2.844 3.078 1.49 6.2 1.486 14.203-.02 3.533-.665 5.029-.569 5.811.373.578.697 2.262 1.107 3.741.911 1.48-.196 3.054-.387 3.499-.425.445-.038.553-.483.241-.988-.313-.506.162-1.651 1.055-2.544 1.347-1.346 1.519-3.028 1.009-9.83-.338-4.514-.831-32.282-1.095-61.707-1.176-130.899-2.674-249.182-4.053-320-.209-10.725-.382-26.587-.384-35.25-.003-14.459-.15-15.751-1.793-15.764-.984-.008-7.805-.303-15.159-.656l-13.37-.642.397 4.156M216.823 87.345C214.015 88.383 212.2 92 214.487 92c.714 0 1.558.675 1.875 1.5.691 1.801-.496 1.966-2.162.3-.933-.933-1.2-.841-1.2.417 0 .889.563 1.843 1.25 2.121.77.31.6.534-.441.583-.93.043-1.976-.383-2.325-.948-.349-.564-1.388-.902-2.309-.75-.921.153-1.562-.285-1.425-.973.29-1.452-1.36-1.69-2.207-.319-.317.512-.096 1.227.489 1.589 1.564.966-.815 3.501-2.631 2.804-1.021-.392-1.15-.921-.435-1.783.559-.674.721-1.521.359-1.883-.362-.362-.133-.658.508-.658.642 0 1.167-.505 1.167-1.122 0-.776-.464-.738-1.5.122-.825.685-1.5.933-1.5.551s-.694 0-1.542.849c-.849.848-1.411 2.793-1.25 4.321.229 2.184-.136 2.801-1.708 2.88-1.1.055-3.286.454-4.857.885-1.99.546-3.105.385-3.67-.53-.951-1.539-3.973-2.199-3.973-.868 0 .502.627.912 1.393.912s1.652.675 1.969 1.5c.746 1.946-.344 1.901-3.248-.133-1.799-1.26-2.507-1.35-3.098-.393-.428.693-1.617.97-2.694.628-1.06-.336-2.768.003-3.795.755-1.957 1.431-5.527 1.087-5.527-.533 0-.518.45-.664 1-.324s.993.254.985-.191c-.022-1.123-1.951-4.011-1.97-2.948-.008.473-.876-.202-1.928-1.5-1.241-1.531-1.586-2.756-.983-3.485.621-.749.093-1.672-1.587-2.773-2.498-1.637-2.517-1.626-2.517 1.374 0 2.53-.394 3.023-2.417 3.023-1.329 0-2.643-.562-2.921-1.25-.403-1-.52-1-.583 0-.043.688-.716 1.25-1.496 1.25-.779 0-1.679-.562-2-1.25-.466-1-.7-1-1.166 0-.321.688-1.334 1.286-2.25 1.329-1.04.049-1.197.269-.417.583.688.278 1.25.969 1.25 1.536 0 .568-1.167.267-2.594-.668-2.499-1.637-2.572-1.628-1.975.251.524 1.653.233 1.877-1.906 1.469-2.677-.512-3.072 1.157-2.72 11.5.061 1.787-.336 3.25-.883 3.25-.627 0-.595.743.089 2.021.595 1.111.828 2.43.519 2.931-.309.5.007 1.272.704 1.714 1.271.807 1.82.978 3.88 1.209.75.084.889 1.619.427 4.703-.378 2.517-.607 9.605-.508 15.75.337 21.116-.878 30.672-3.901 30.672-2.14 0-2.847-10.352-3.107-45.5-.021-2.75-.072-6.8-.115-9l-.124-6.5c-.026-1.375.24-3.709.591-5.186.351-1.477.2-2.957-.336-3.289-.537-.331-.709-1.935-.383-3.564.375-1.878.18-2.961-.533-2.961-.619 0-1.125-.702-1.125-1.559 0-.863-.483-1.261-1.081-.891-.595.368-.811 1.745-.481 3.06.556 2.213.338 2.373-2.917 2.141-1.934-.138-3.532-.701-3.549-1.251-.018-.55-.483-.228-1.033.716-.55.943-1.209 8.143-1.464 16-.584 18.008-1.741 86.44-1.518 89.784 1.366 20.409-2.742 48.188-8.081 54.645-1.164 1.408-.807 3.345.965 5.243 1.063 1.139 1.503 1.174 2.125.167.559-.904.982-.948 1.473-.154.477.772 1.18.623 2.285-.483 1.463-1.462 1.723-1.389 3.094.87.823 1.357 2.783 3.227 4.357 4.156 1.573.93 2.601 2.11 2.284 2.623-.318.513.136.933 1.007.933 2.81 0 3.319-4.111 4.033-32.549.386-15.373 1.041-29.824 1.456-32.114.415-2.29.441-6.227.058-8.75-.383-2.523-.35-4.587.073-4.587s.522-2.401.219-5.336c-.561-5.437.902-10.272 2.761-9.123.532.328.685 1.053.341 1.609-1.014 1.642-1.561 18.528-.55 16.993.623-.946 1.1-1.022 1.577-.25.376.609.207 1.107-.375 1.107S143 202.125 143 203.5s.338 2.4.75 2.277c2.187-.651 7.241 2.907 7.811 5.499.34 1.548 1.619 3.895 2.844 5.216 2.026 2.186 2.201 3.258 1.951 11.921-.154 5.322.148 9.781.685 10.112 1.34.828 1.199 4.835-.221 6.255-.886.886-.899 1.745-.051 3.45.62 1.248 1.273 7.389 1.45 13.645l.321 11.374-7.653-.638c-7.76-.647-11.326-.131-10.322 1.494.304.492.028.895-.614.895-.746 0-.941.903-.54 2.5.361 1.442.196 2.5-.392 2.5-.56 0-1.019-.675-1.019-1.5s-.675-1.5-1.5-1.5-1.5-.45-1.5-1-.9-1-2-1-2 .45-2 1 .623 1 1.383 1c1.587 0 2.945 5.322 1.493 5.847-.574.208-.599.81-.062 1.5 2.034 2.614 2.032 5.807-.006 7.845-1.644 1.644-1.778 2.209-.684 2.884 1.061.657 1.095 1.105.152 2.048-.942.942-.831 1.492.509 2.509 1.552 1.18 1.473 1.306-.835 1.335-1.402.018-2.977.439-3.5.937-.854.815-25.183 4.37-27.142 3.967-1.723-.354-9.383 1.44-9.93 2.326-.851 1.377.147 2.01 3.832 2.431 3.094.353 6.422 3.072 5.225 4.269-.299.299-.945-.105-1.435-.898-.49-.793-1.136-1.197-1.435-.898-1.887 1.886 2.438 3.992 8.991 4.378 3.869.227 8.289.891 9.823 1.474 1.534.583 3.201.806 3.705.494.504-.311.916-.059.916.56 0 .672.808.87 2 .492 1.121-.356 2-.18 2 .401 0 .57.617.799 1.371.51.754-.289 2.011.062 2.792.781.782.72 2.302 1.818 3.379 2.441 1.077.623 1.815 1.905 1.641 2.85-.174.945.116 1.45.645 1.123.529-.327 1.207.042 1.505.82 1.251 3.259 5.623.448 5.809-3.735.133-2.993.18-2.948.75.731.77 4.964 3.241 6.221 2.772 1.409-.488-4.988.731-6.513 5.812-7.275 4.106-.616 4.477-.896 3.953-2.982-.442-1.76-.089-2.43 1.497-2.844 1.492-.391 2.074-.071 2.074 1.141 0 2.808 2.965 6.129 5.473 6.129 1.298 0 2.51.442 2.694.981.183.54 2.358 1.162 4.833 1.383 3.129.279 4.599.894 4.823 2.019.399 1.992 3.177 2.162 3.177.195 0-2.304 6.631-3.902 13.297-3.205 3.859.404 6.48.227 7.35-.495 1-.83 1.353-.83 1.353 0 0 .617 1.266 1.122 2.813 1.122 2.287 0 3.071-.655 4.187-3.5 1.686-4.298 2.638-4.425 3.507-.466.904 4.115 3.666 5.643 12.341 6.827 8.664 1.182 8.936 1.355 6.289 4.002-2.288 2.288-4.552 6.414-5.562 10.137-.743 2.739-.866 2.845 4.425-3.829 1.823-2.299 3.329-3.155 5.559-3.162 6.358-.019 7.848 3.382 5.746 13.11-1.136 5.258.484 9.87 3.477 9.896 1.335.012 1.418.206.372.869-.988.626-.523 1.14 1.75 1.933 1.703.593 3.096 1.552 3.096 2.131 0 1.786 4.506 1.161 6.759-.938 1.246-1.161 2.39-1.577 2.747-1 1.606 2.599 5.073.929 6.984-3.363 1.999-4.489 4.051-5.366 6.19-2.647 1.025 1.303 1.469 1.191 3.388-.856 1.724-1.84 1.919-2.534.89-3.17-2.081-1.286-13.289-1.029-14.275.327-.566.779-.666.563-.284-.616.49-1.513.214-1.692-1.655-1.074-2.494.826-12.485.667-13.921-.22-.854-.528-.367-6.702.661-8.365.252-.407 3.171-1.316 6.487-2.02 3.91-.83 6.029-1.774 6.029-2.686 0-.774-.562-1.335-1.25-1.245-4.139.537-5.75-.154-5.75-2.468 0-2.834 1.624-3.607 7.582-3.607 2.851 0 4.429-.443 4.448-1.25.017-.694.484-.471 1.05.5.561.962 2.122 1.75 3.47 1.75 1.347 0 2.45.45 2.45 1 0 1.178 3.661 1.358 4.368.214.405-.656 2.658-.753 6.882-.295.413.044.75.756.75 1.581s.702 1.5 1.559 1.5c.981 0 1.276.457.797 1.232-1.075 1.74-1.183 4.757-.192 5.369.764.473 1.3-1.858.914-3.974-.088-.48.646-.534 1.631-.121.985.413 2.852.98 4.15 1.26 2.142.462 2.253.313 1.215-1.629-.63-1.175-2.014-2.137-3.078-2.137-1.135 0-1.736-.516-1.455-1.25.34-.887 2.945-1.192 8.969-1.051l8.49.198.118-3.198c.066-1.76.066-3.536 0-3.949-.065-.413.332-.75.882-.75s1-.689 1-1.531c0-.843.672-1.79 1.493-2.105 1.013-.388 1.299-1.346.889-2.98-.474-1.887-.273-2.28.929-1.818.843.323 2.536.051 3.762-.605 1.908-1.021 2.142-.964 1.622.391-.334.871-.148 1.868.414 2.215.561.347.896 1.824.743 3.283-.153 1.458.092 3.25.544 3.982.536.868-.095 2.288-1.815 4.084l-2.638 2.753 6.779 1.145c3.728.63 11.503 1.388 17.278 1.685 5.775.297 12.3.716 14.5.932 16.587 1.63 29.5 1.67 29.5.093 0-.891-1.152-2.611-2.56-3.822-1.72-1.48-2.59-3.28-2.653-5.488-.053-1.867-.783-3.695-1.69-4.232-1.083-.641-1.246-1.193-.506-1.714.71-.499.844-2.519.384-5.768-.389-2.75-.768-4.427-.841-3.727-.202 1.918-4.614-1.269-7.074-5.11-1.114-1.739-2.034-2.6-2.043-1.913-.009.688-.692 1.25-1.517 1.25s-1.5-.45-1.5-1 .627-1 1.393-1c1.696 0 2.894-2.704 1.563-3.527-.526-.325-.956.054-.956.843 0 1.75-5.964 3.12-7.388 1.696-.683-.683-.425-1.012.795-1.012 1.237 0 1.615-.499 1.2-1.582-.334-.87-.607-1.825-.607-2.122 0-.298-.675.019-1.5.704-.825.685-1.5 1.868-1.5 2.63 0 .896-1.761.147-4.99-2.123-2.744-1.929-5.444-3.507-6-3.507-.555 0-1.01-.948-1.01-2.107 0-1.442.464-1.929 1.468-1.544.807.31 1.734.132 2.06-.395 1.462-2.365-10.134-3.973-28.907-4.01-9.109-.017-12.953.676-9.865 1.778.691.247.989.882.661 1.412-.366.593-1.138.513-2.006-.208-1.082-.898-1.761-.881-2.911.074-.825.685-1.493.852-1.485.372.029-1.611 1.469-3.136 3.485-3.69 1.1-.302.242-.471-1.906-.377l-3.906.172.152-87.262.153-87.261-2.576-1.174c-1.804-.822-2.464-1.788-2.204-3.227.204-1.129-.436-2.841-1.421-3.803-.986-.963-1.807-1.413-1.825-1-.019.412-.875-.259-1.904-1.492-1.028-1.232-2.701-2.37-3.716-2.528-2.722-.424-4.463-1.733-3.779-2.84.33-.534 1.462-.698 2.516-.363 1.466.465 1.916.122 1.916-1.46 0-1.137-.45-2.067-1-2.067s-1 .48-1 1.067c0 .638-.867.793-2.151.385-1.711-.543-2.025-.352-1.532.933.556 1.447-.349 2.071-2.532 1.745-.394-.059-1.969.41-3.5 1.042-3.192 1.317-5.461 1.135-6.52-.522-.466-.729-.74-.483-.75.673-.01 1.204-.61 1.701-1.765 1.462-.962-.199-1.687-1.132-1.611-2.073.209-2.579-2.117-2.055-3.658.823-.8 1.495-1.928 2.315-2.75 2-.767-.294-1.808-.535-2.313-.535-.505 0-.805-.562-.668-1.25.171-.855-1.25-1.263-4.5-1.291-2.613-.022-4.75.342-4.75.809 0 .468-.52.529-1.155.137-.768-.475-.88-.271-.335.61.594.962.362 1.15-.846.686-1.672-.641-2.123.553-1.716 4.549.098.963-.311 1.75-.908 1.75-.671 0-.528.86.373 2.25 1.621 2.501-.203 6.616-2.346 5.291-.587-.362-1.067-.156-1.067.459s-.508.804-1.13.42c-.688-.426-.941-.156-.646.691.266.764 1.224 1.257 2.13 1.095.944-.168 1.646.365 1.646 1.25 0 .849-.45 1.544-1 1.544s-1 1.125-1 2.5-.45 2.5-1 2.5c-1.474 0-1.248 11.551.25 12.784.688.565 4.85 1.408 9.25 1.872l8 .844.015 6c.008 3.3-.217 12.3-.5 20l-.515 14-9 .5-9 .5-.264 30.727-.265 30.728 2.265.468c8.822 1.826 15.805 2.85 19.013 2.791 4.785-.09 4.788-.074 4.488 20.786l-.237 16.5-10.5-.286c-11.187-.305-31.419-1.952-34.136-2.778-1.471-.448-1.691-4.985-2.185-45.217-.524-42.548-.553-64.873-.096-73.719.113-2.2.254-5.877.312-8.171.093-3.711.411-4.237 2.884-4.78 4.962-1.09 5.721-4.233 5.721-23.705 0-6.41.338-11.446.75-11.191.412.256.75-.263.75-1.153 0-.981-.461-1.333-1.17-.895-.783.484-.962.181-.541-.915.379-.989-.021-2-1.011-2.554-1.503-.841-1.506-1.051-.039-2.518.88-.88 1.749-1.188 1.931-.684.181.504.999 1.062 1.817 1.241 1.145.25 1.505-.767 1.565-4.425.075-4.547-.801-6.154-1.906-3.5-.707 1.698-3.869-2.227-3.199-3.971.269-.704-.201-1.279-1.046-1.279-1.081 0-1.348.593-.901 2 1.006 3.168-.94 2.322-2.173-.945-1.004-2.661-.905-2.974 1.031-3.259 1.563-.229 1.737-.466.642-.878-.825-.31-2.705-.118-4.177.427m197.994 7.392c-.926.211-1.68 1.144-1.675 2.073.012 2.446-.872 9.283-1.576 12.19-.927 3.83-2.469 25.348-1.884 26.294.954 1.543 4.272-2.533 4.934-6.06.404-2.152 1.344-3.672 2.45-3.962 1.042-.272 1.57-1.058 1.258-1.871-.296-.77-.077-1.401.486-1.401s1.199.526 1.413 1.168c.214.643 1.087-.369 1.939-2.25 2.05-4.521 1.641-19.934-.614-23.153-.851-1.215-1.548-1.815-1.548-1.333 0 .483-.788.213-1.75-.601-.962-.813-2.507-1.305-3.433-1.094m-69.575 6.716c-2.862 3.196-2.917 3.314-3.117 6.606-.069 1.132-.555 1.793-1.081 1.468-.526-.325-.703-1.252-.393-2.059.351-.915-.042-1.468-1.044-1.468-1.926 0-2.061-1.111-.357-2.947 1.023-1.102.917-1.23-.582-.7-1.007.356-2.02.647-2.25.647-.23 0-.418.623-.418 1.383 0 .761-.939 1.629-2.087 1.929-2.942.77-2.157 4.3.862 3.875 1.752-.246 2.222.179 2.21 2-.013 1.86-.205 2.019-.985.813-.542-.839-.976-.99-.985-.344-.008.662-.87.933-2.015.634-1.118-.293-2-.031-2 .593 0 .615.723 1.117 1.607 1.117 1.018 0 1.396.55 1.031 1.5-.338.881-.013 1.5.786 1.5 2.898 0 2.41 2.665-.519 2.833-1.598.092-3.467.221-4.155.286-.687.066-2.056-.215-3.041-.623-.985-.408-1.701-.349-1.591.131.11.48-.162 1.706-.605 2.724-.531 1.222-.33 2.151.591 2.735.998.631 1.039.888.146.899-1.384.017-1.802 12.624-.485 14.639 1.135 1.738 6.592 2.571 9.526 1.456 1.68-.639 2.854-.654 3.233-.042.327.529 1.467.962 2.535.962 1.561 0 1.958.734 2.028 3.75.196 8.493-.255 37.713-.592 38.257-.199.323-4.036.16-8.525-.363-6.035-.703-8.35-.646-8.884.217-.631 1.021-.743 24.3-.247 51.462l.161 8.822 5.75-.226c3.163-.124 6.307-.657 6.988-1.185.848-.657 1.427-.466 1.839.606.669 1.744 6.344 1.861 7.749.16.535-.648 1.005-.56 1.333.25.279.687 1.172 1.25 1.983 1.25.812 0 1.222.412.911.915-.311.503 0 1.104.691 1.337.987.332.966.774-.099 2.064-1.983 2.403-2.951 26.568-1.109 27.706 1.102.681 1.106 1.102.027 2.402-1.833 2.209.184 4.443 3.449 3.818 1.375-.262 3.059-.045 3.744.483.684.529 3.147.761 5.474.515 3.735-.394 4.115-.66 3.25-2.277-1.41-2.635-1.208-3.397.52-1.963 1.178.978 1.5.981 1.5.015 0-.682.668-.973 1.5-.653.825.316 1.5.139 1.5-.393 0-.533-.788-.976-1.75-.984-1.51-.014-1.545-.161-.25-1.079 1.724-1.221-2.015-.783-5.414.635-1.353.565-1.702.456-1.191-.371.469-.759-.058-1.17-1.503-1.17-1.224 0-1.894-.332-1.488-.737.792-.793 1.244-.87 6.596-1.126 3.986-.191 6.007-1.211 6.415-3.237.156-.77.643-2.238 1.084-3.261.506-1.178.233-2.832-.744-4.5-.849-1.452-2.502-5.87-3.671-9.82-1.413-4.769-2.708-7.333-3.856-7.634-1.623-.425-1.624-.46-.009-.569 1.096-.074 1.51-.659 1.143-1.616-.317-.825-.19-1.501.281-1.502 1.783-.004 1.213-24.067-1.103-46.498-.672-6.511-1.752-23.367-2.082-32.5-.169-4.675-.379-8.5-.466-8.5-.357 0-.863-5.344-.993-10.5-.077-3.025-.526-7.975-.999-11-.473-3.025-1.117-8.425-1.431-12-1.501-17.072-1.807-18.877-3.291-19.447-1.223-.469-1.269-.859-.248-2.089 3.537-4.262-6.974-4.273-10.788-.011m36.631-2.577c-3.988 1.329-4.066 2.134-2.451 25.365.851 12.243 1.839 26.984 2.196 32.759.757 12.249 1.302 13.937 3.722 11.518 1.108-1.109 1.712-3.548 1.816-7.339.229-8.329.392-10.273 1.213-14.483.408-2.092.926-9.292 1.151-16 .464-13.837 1.312-26.126 2.031-29.446.354-1.636.005-2.293-1.282-2.406-4.415-.39-7.162-.38-8.396.032m-281.206 32.791c-.913.912-.845 4.333.085 4.333.414 0 .77 1.318.791 2.93.022 1.628-.388 2.666-.922 2.336-.535-.331-.698.09-.369.948.325.848.22 1.935-.233 2.414-.454.48-.481 3.071-.06 5.759.722 4.607.593 5.041-2.24 7.573-2.228 1.99-3.067 3.691-3.242 6.572-.129 2.138-.649 4.025-1.154 4.194-1.146.382-.439 7.334.918 9.024.686.854.648 1.25-.119 1.25-.617 0-1.122.477-1.122 1.059s.45.781 1 .441 1-.141 1 .441-.398 1.059-.883 1.059c-1.29 0-2.1 3.892-.958 4.598.587.363.429 1.253-.401 2.251-1.621 1.949-1.553 11.489.096 13.475.804.969.77 1.658-.128 2.571-.971.988-.709 1.669 1.262 3.279l2.489 2.032-2.489-.353c-2.176-.309-2.488.023-2.488 2.647 0 2.289.455 3.001 1.917 3.004 1.282.003 1.974.764 2.087 2.294.108 1.479-.279 2.118-1.095 1.806-2.957-1.135-4.605 7.484-2.059 10.772 1.32 1.705 4.531 2.572 4.495 1.214-.013-.501.691-1.311 1.565-1.8.875-.489 1.59-1.505 1.59-2.256 0-.752.563-1.569 1.25-1.816.85-.305.539-1.081-.973-2.427l-2.222-1.978 2.472-2.15c2.412-2.097 2.475-2.512 2.569-16.906.053-8.117.304-21.057.557-28.757.541-16.43.543-14.871-.027-25-.248-4.4-.49-10.137-.538-12.75-.082-4.431-.823-5.681-2.421-4.083m14.76 65.084c-1.425.995-1.801 9.9-.452 10.733.582.36.734 1.178.339 1.818-.906 1.464-1.182 4.735-.358 4.225.654-.404.906.853 1.299 6.473.164 2.345.87 3.755 2.14 4.271 2.473 1.007 2.843.521 1.814-2.382-1.096-3.09-.447-5.889 1.364-5.889 2.05 0 1.757-1.313-.624-2.8-2.38-1.486-2.32-6.711.095-8.264 1.058-.68 1.139-1.142.296-1.689-.638-.415-1.313-2.098-1.5-3.742-.338-2.968-2.327-4.21-4.413-2.754m81.659 20.944c-2.751 10.976-3.359 12.837-4.407 13.494-.761.477-.632 1.245.421 2.5.836.996 1.43 2.936 1.32 4.311-.111 1.375.146 3.136.571 3.913.424.777.201 2.802-.495 4.5s-1.308 5.396-1.36 8.217c-.052 2.822-.489 6.197-.972 7.5-.482 1.304-.674 2.947-.427 3.651.248.705-.144 1.155-.87 1-2.141-.456-2.119 3.623.033 6.104 1.171 1.35 3.548 2.5 5.793 2.801l3.807.51v-30.548c0-31.639-.816-38.318-3.414-27.953M465 234.176c0 1.014-.877 2.594-1.949 3.512-1.072.918-1.68 2.104-1.351 2.635.353.572-.484.76-2.051.461-3.279-.627-3.359.238-.269 2.924 1.308 1.138 2.559 2.609 2.779 3.269.22.66 1.962 1.272 3.87 1.361 1.909.089 3.843.612 4.297 1.162.535.648 1.005.56 1.333-.25.279-.687 1.545-1.25 2.814-1.25 6.944 0 8.954-9.909 2.468-12.17-1.618-.564-2.941-1.458-2.941-1.987 0-.528-.412-.707-.915-.396-.503.311-1.126 0-1.386-.691-.277-.74-.871-.235-1.443 1.228-.933 2.381-1 2.398-1.629.416-.813-2.563-3.627-2.736-3.627-.224m-50.624 27.362c.823 2.144-1.483 2.769-4.954 1.342-7.867-3.236-12.176-1.149-12.637 6.12l-.285 4.5 6.091.294c4.541.218 6.418-.1 7.373-1.25 1.781-2.146 5.036-1.981 5.036.255 0 1.465.646 1.724 3.475 1.394 3.019-.353 3.555-.837 4.091-3.694.753-4.011-.937-7.499-3.633-7.499-1.097 0-2.255-.675-2.571-1.5-.317-.825-1.026-1.5-1.576-1.5s-.734.692-.41 1.538M296 289.032c0 1.158.968 2.443 2.25 2.988 1.734.736 1.045.884-3 .645-3.623-.213-5.25.067-5.25.906 0 1.57-3.351 2.876-3.814 1.486-.194-.581-1.103-1.05-2.019-1.042-1.442.014-1.464.147-.167.985 1.293.835 1.266.971-.191.985-.93.008-1.969-.435-2.309-.985-.34-.55-1.068-1-1.618-1s-.781.354-.513.788c.614.994-8.942.972-9.937-.022-.404-.404-1.238-.046-1.853.795-1.184 1.619-16.144 2.444-18.452 1.017-.62-.383-1.134-.107-1.142.613-.01.866-.264.946-.75.236-.999-1.459-4.235-2.581-4.235-1.469 0 .492.787 1.101 1.75 1.353 1.317.344 1.193.486-.5.573-1.489.077-2.301.793-2.4 2.116-.083 1.1-.195 2.563-.25 3.25-.055.688.8 1.278 1.9 1.312 1.1.034 2.675.376 3.5.76.825.384 2.963.528 4.75.319 1.787-.208 3.25.039 3.25.549 0 .511.45.65 1 .31s1-.184 1 .347c0 .531.898.731 1.996.444 2.055-.538 5.904 2.975 5.971 5.449.037 1.392 15.547 1.328 17.783-.074.688-.431 1.257-.42 1.265.025.009.445.452.134.985-.691.533-.825.976-1.007.985-.404.009.646 2.372 1.161 5.765 1.255 3.163.088 6.988.418 8.5.734 1.512.315 2.75.178 2.75-.305 0-1.806 12.383-3.62 13.426-1.967.792 1.256 1.238 1.112 2.83-.911 1.782-2.266 5.556-3.525 4.255-1.419-.335.541-.321 2.512.029 4.38.579 3.084 1.017 3.448 4.754 3.95 2.264.303 4.586.258 5.161-.102.575-.359 1.925-.79 3.002-.957 1.076-.168 2.259-.794 2.629-1.392.47-.761.791-.731 1.069.102.255.766 1.065.451 2.276-.887 1.376-1.521 1.51-2.077.501-2.077-.808 0-.458-.643.845-1.557 1.781-1.247 2.223-2.527 2.223-6.441 0-5.355-1.051-6.808-3.3-4.559-.804.804-1.765 1.159-2.135.788-.371-.37-1.02-.112-1.444.573-1.374 2.223-6.95 2.309-7.646.118-.82-2.585-3.106-2.439-3.808.242-.445 1.705-.858 1.923-1.94 1.024-1.544-1.281-3.727.19-3.727 2.512 0 .715-.388 1.3-.861 1.3-.474 0-.644-1.14-.377-2.534.483-2.528-2.324-11.466-3.601-11.466-.371 0-2.134.419-3.918.93-2.32.666-3.243.602-3.243-.222 0-.634-.718-.128-1.596 1.126-1.185 1.692-2.388 2.2-4.673 1.972-3.503-.348-4.468-1.926-2.426-3.968 1.17-1.17 1.177-1.598.045-2.656-.743-.693-1.35-.928-1.35-.521 0 .406-.54.199-1.2-.461-1.77-1.77-2.8-1.464-2.8.832m150.622 6.771c-.284.46-.278 8.005.014 16.767.292 8.761.47 19.227.395 23.256-.132 7.108-.067 7.317 2.167 7 2.28-.323 2.305-.478 2.568-16.307.207-12.435-.07-16.822-1.25-19.77-.834-2.084-1.516-5.329-1.516-7.21 0-3.326-1.335-5.423-2.378-3.736m-127.774 44.449c-1.118.414-2.359.55-2.758.304-.399-.247-1.357.427-2.129 1.498-.771 1.07-1.808 1.946-2.304 1.946-.496 0-.342-.675.343-1.5 1.015-1.223.96-1.5-.294-1.5-.847 0-1.802.563-2.123 1.25-.466 1-.7 1-1.166 0-.321-.687-1.334-1.236-2.25-1.218-1.437.027-1.399.235.274 1.5 1.7 1.286 1.49 1.884-.573 1.626-.347-.044-.577 1.253-.51 2.881.066 1.629.49 2.961.94 2.961.451 0 .572.402.268.893-.304.492.659 1.198 2.139 1.569 2.111.53 2.379.873 1.243 1.591-.997.631-1.058.921-.198.932.688.008 1.25.676 1.25 1.484 0 .966.598 1.258 1.75.852 1.429-.502 1.52-.368.5.732-1.523 1.642-1.651 4.947-.191 4.947.582 0 .781-.45.441-1s-.141-1.056.441-1.125c1.437-.17 3.005-.575 3.309-.856.137-.127 2.498-.402 5.245-.61 2.747-.208 5.131-.788 5.298-1.288.167-.5 1.181-.679 2.255-.398 1.16.303 1.952.008 1.952-.729 0-.968.317-.976 1.447-.038 1.939 1.609 9.354 2.086 12.511.804 1.398-.568 3.868-.957 5.49-.865 1.621.092 2.596-.185 2.166-.614-.429-.43-1.081-.797-1.447-.816-.367-.02-1.715-.617-2.995-1.327-1.281-.711-3.002-1.034-3.824-.718-.823.316-2.212-.141-3.086-1.015-1.453-1.453-1.296-1.564 1.824-1.291 1.878.164 4.302.88 5.387 1.592 1.084.712 2.804 1.294 3.821 1.294 1.017 0 2.574.725 3.46 1.611 1.38 1.38 1.763 1.407 2.678.188 2.128-2.836 4.579-2.897 6.922-.174 2.46 2.86 8.208 4.282 7.254 1.795-.357-.93.133-1.42 1.423-1.42 1.083 0 1.857.337 1.719.75-.137.413.189.896.725 1.075 2.659.886 1.155-1.959-2.365-4.474-2.195-1.568-4.2-3.639-4.456-4.601-.293-1.097-1.435-1.75-3.06-1.75-1.427 0-2.594-.457-2.594-1.015 0-1.889-6.42-4.954-10.078-4.811-1.981.078-4.237-.256-5.012-.741-1.72-1.077-28.223-1.231-31.062-.181m-145.699 22.445c-.545.975-.591 2.64-.109 3.909.84 2.209 2.332 14.338 2.17 17.644-.091 1.858.653 2.124 3.202 1.145.867-.332 1.328-1.007 1.023-1.5-.304-.492-.076-.895.506-.895s1.059.825 1.059 1.833c0 2.518 1.062 3.36 2.614 2.072 2.038-1.691 3.363-.13 2.871 3.384-.443 3.168-.433 3.162.783-.426 1.03-3.041 1.443-3.409 2.521-2.25.71.763.852 1.387.318 1.387-1.801 0-2.385 4.151-.806 5.73 1.753 1.752 4.098.752 3.273-1.397-.418-1.089-.053-1.302 1.426-.833 1.524.484 1.847.266 1.387-.935-.331-.861-1.115-1.579-1.744-1.597-.629-.017-.402-.595.504-1.284 3.18-2.421-.606-17.03-5.966-23.017-3.796-4.24-13.273-6.113-15.032-2.97m67.648 6.434c1.813.523 3.543 1.72 3.844 2.66 2.016 6.304 2.716 7.349 4.591 6.859 1.426-.373 1.773-.105 1.336 1.034-.424 1.104-.141 1.366 1.002.927.877-.336 2.055-.611 2.619-.611.564 0 .766-.675.449-1.5-.316-.825-.139-1.5.393-1.5.533 0 .969-.675.969-1.5s-.477-1.5-1.059-1.5-.734-.526-.336-1.17c.486-.787.178-.961-.941-.531-1.094.42-1.664.127-1.664-.855 0-2.037-4.172-3.462-9.815-3.354-4.65.09-4.66.097-1.388 1.041m105.124 3.619c-.047 1.045-.282 1.247-.583.5-.797-1.975-5.326-1.556-5.408.5-.064 1.589-.137 1.58-.797-.097-.61-1.548-.914-1.622-1.883-.454-3.123 3.762 1.358 9.151 5.684 6.836.992-.53 2.087-.68 2.435-.333.347.347.631.202.631-.323 0-.524 1.415-1.061 3.145-1.193 2.739-.209 2.978-.04 1.857 1.311-2.005 2.417-.365 2.974 2.717.923 2.539-1.69 2.607-1.885.781-2.247-1.1-.218-2.36-1.021-2.8-1.784-.44-.764-1.452-1.389-2.25-1.389-.797 0-1.397-.337-1.332-.75.29-1.833-.198-3.25-1.118-3.25-.55 0-1.036.788-1.079 1.75M395 374.5c0 1.44-.422 2.357-.939 2.038-.516-.319-1.303.026-1.75.766-.446.741-1.711 1.703-2.811 2.138-1.262.499-1.542.962-.758 1.255.909.34.964.984.204 2.404-1.253 2.342-.432 4.023 1.586 3.248.807-.309 1.468-.065 1.468.544s-.477 1.107-1.059 1.107-.735.563-.34 1.25c.396.688.375.94-.047.56-.422-.379-1.337-.157-2.033.493-1.015.948-.908 1.494.535 2.746 1.946 1.687 1.475 3.216-1.306 4.243-.962.355-1.75 1.334-1.75 2.177 0 .842-.45 1.531-1 1.531s-1.046 1.012-1.102 2.25c-.07 1.537-.362 1.15-.919-1.22-.721-3.065-.477-3.793 2.093-6.25 1.601-1.529 2.689-2.836 2.419-2.905a45.25 45.25 0 0 0-1.241-.288c-6.68-1.454-7.633-2.635-4.412-5.47 1.569-1.381 1.666-2.032.662-4.458-1.093-2.644-1.29-2.726-2.83-1.186-.91.91-2.061 1.403-2.558 1.097-.496-.307-1.157.106-1.469.918-.399 1.04-1.43 1.305-3.484.894-2.906-.581-5.122.905-3.159 2.118.568.351.774 1.057.457 1.569-.316.512.239.963 1.234 1.001 1.604.063 1.583.16-.191.862-1.49.589-2.183.316-2.718-1.071-.784-2.034-2.31-2.434-3.282-.861-.34.55.11 1 1 1s1.34.45 1 1c-.34.55-.141 1 .441 1s1.059.671 1.059 1.492c0 1.468 5.185 1.657 6.602.24.97-.97 3.398.37 3.398 1.875 0 .766.563 1.4 1.25 1.408.984.012.988.182.018.798-.677.43-1.04 1.773-.807 2.985.233 1.211.108 2.202-.278 2.202-1.748 0-3.394 4.249-2.025 5.228 1.01.723.91.822-.408.398-.962-.31-1.75-.127-1.75.405 0 .533.563 1.026 1.25 1.097.688.07 2.262.295 3.5.5l4.5.744c1.238.205 4.148.43 6.469.5 3.129.095 4.082.482 3.692 1.499-.289.754.175 2.072 1.031 2.929.857.856 1.558 2.039 1.558 2.629 0 .589.337 1.105.75 1.148.413.042 1.511.223 2.442.402 2.466.476 4.265-7.875 2.527-11.729-.993-2.201 2.42-2.468 4.534-.354 2.02 2.02 4.086-1.385 2.793-4.605-.505-1.26-.948-1.654-.983-.874-.131 2.94-1.337-.018-1.683-4.13-.199-2.37-1.059-4.801-1.923-5.436-1.086-.798-1.198-1.271-.367-1.548.923-.307.927-.903.018-2.601-.648-1.211-.781-2.202-.295-2.202 1.887 0 1.09-5.896-.881-6.522-1.063-.337-1.932-1.059-1.932-1.604 0-.546-.419-.733-.931-.417-.512.317-1.243.07-1.625-.547-.493-.798-.97-.73-1.647.233-.672.956-.822.537-.509-1.417.244-1.525.054-3.015-.422-3.309-.476-.294-.866.643-.866 2.083m29.25 8.128c-2.598 2.213-4.25 4.471-4.25 5.806 0 1.201-.661 3.057-1.468 4.125-1.891 2.5-1.916 5.551-.064 8 1.329 1.756 1.471 1.774 1.5.191.036-1.969.838-2.168 3.032-.75 1.333.862 1.333.979 0 1.055-.997.057-.829.361.5.905 1.837.753 1.755.916-1 2-1.65.649-3.175 1.111-3.388 1.025-.214-.086-.819.445-1.345 1.18-.728 1.016-.828.935-.421-.342.636-1.993-1.815-4.492-2.816-2.872-.356.577-.156 1.049.446 1.049.771 0 .789.57.063 1.928-1.291 2.412-.46 4.729 1.919 5.351 2.248.588 5.214-1.159 3.292-1.938-1.795-.729-1.549-2.67.25-1.979.911.349 1.5.002 1.5-.884 0-1.199.352-1.157 1.979.236 1.469 1.258 1.662 1.899.75 2.49-1.997 1.294 1.296 2.937 4.854 2.422 1.917-.277 3.099-.007 3.125.714.022.638.39 2.471.816 4.074.656 2.466.521 2.817-.874 2.282-.981-.377-1.65-.135-1.65.595 0 .675-.874 1.774-1.942 2.44-1.65 1.031-2.035.917-2.567-.759-.815-2.57-2.41-2.55-2.216.028.083 1.1.531 2 .997 2 .465 0 .568.45.228 1-.34.55-.156 1 .41 1 .565 0 .761.693.436 1.541-.325.847-.131 1.41.431 1.25.563-.16.955-.019.873.313-.42 1.694 6.444 6.063 7.781 4.953 2.448-2.031 2.627.564.232 3.352-1.637 1.904-2.824 2.466-4.143 1.96-1.28-.491-1.626-.349-1.125.461.452.732.032 1.17-1.123 1.17-1.773 0-2.27 1.57-2.611 8.25-.05.98-.875 1.75-1.875 1.75-.982 0-1.786.47-1.786 1.044 0 .574.576.911 1.28.75.703-.162 1.419.156 1.591.706.171.55-1.417 1.363-3.53 1.807-2.112.443-4.907 1.028-6.209 1.298-1.302.271-2.097.763-1.766 1.094.805.806 22.376 1.748 26.384 1.153 1.758-.261 1.555-1.521-.363-2.257-1.267-.486-1.361-.922-.437-2.035.911-1.098.826-2.093-.381-4.427-1.841-3.56-1.746-8.415.151-7.687.704.27 1.28.055 1.28-.477 0-.533-.788-.976-1.75-.984-1.47-.013-1.514-.165-.276-.948.972-.614 1.728-.524 2.222.266.427.682.809-.307.888-2.303.27-6.805.299-16.532.056-19-.135-1.375.062-6.212.439-10.75.506-6.098.374-8.25-.506-8.25-.655 0-.894-.48-.532-1.067.363-.586-.173-1.697-1.191-2.468-1.017-.771-1.385-1.416-.816-1.433 2.043-.063 4.744-5.992 3.444-7.558-1.013-1.221-1.466-1.103-3.051.796-1.023 1.226-1.875 1.668-1.894.98-.018-.687-.623-1.25-1.344-1.25-2.259 0-6.235-4.27-4.593-4.933 2.579-1.041 2.019-3.067-.846-3.063-1.708.002-4.361 1.376-7 3.624m-62.863 9.778c.378 1.506.136 2.62-.639 2.932-.95.384-.932.523.073.583 1.628.097-1.036 3.079-2.75 3.079-.589 0-1.071.45-1.071 1s-.675 1-1.5 1-1.5.45-1.5 1-.477 1-1.059 1-.781-.45-.441-1-.309-1-1.441-1c-2.326 0-2.786 1.784-.67 2.596.853.327 1.187 1.378.864 2.719-.43 1.789-.283 1.959.811.935 1.547-1.448 4.936-1.68 4.936-.338 0 .502 1.012.739 2.25.527 7.012-1.198 8.272-1.216 8.965-.126.554.871.758.88.77.031.008-.657.987-.972 2.265-.73 2.097.398 2.114.362.25-.523-1.116-.53-1.4-.982-.643-1.021.773-.04 1.114-.704.792-1.544-.311-.81.203-1.963 1.143-2.563 1.399-.892 1.214-.985-1.023-.512-2.603.55-2.683.453-1.722-2.075.555-1.46.884-2.777.731-2.929-.564-.558-4.281 3.095-4.378 4.303-.297 3.718-.506 3.963-3.13 3.675-1.501-.164-3.003.144-3.338.685-.36.582-1.134.352-1.893-.563-1.115-1.344-.841-1.549 2.089-1.562 2.545-.012 3.004-.253 1.872-.985-1-.646-1.083-.974-.25-.985.688-.008 1.257-.803 1.265-1.765.012-1.363.206-1.45.875-.393.6.946 1.067 1.021 1.544.25.376-.609.181-1.107-.434-1.107s-.84-.45-.5-1c.34-.55.111-1-.508-1-.648 0-.873-.8-.53-1.882.388-1.221.022-2.102-1.043-2.511-1.329-.51-1.525-.167-1.032 1.799m-85.89 75.598c-1.783 1.969-1.741 1.996 3.098 2.002 2.698.003 14.694.077 26.657.164 11.964.087 22.003-.092 22.309-.398.861-.861-12.192-1.735-20.561-1.377-5.221.223-8.204-.113-9.817-1.104-1.753-1.078-2.651-1.148-3.69-.285-1.87 1.552-12.931 1.705-14.74.204-1.16-.963-1.81-.804-3.256.794" fill="#d3d3d3" fill-rule="evenodd"/></svg>