<svg xmlns="http://www.w3.org/2000/svg" width="500" height="584"><path d="M17 70.083c0 3.951.332 4.917 1.691 4.917 1.515 0 1.5.14-.148 1.345-1.745 1.276-1.717 1.383.559 2.108 1.319.42 2.735.715 3.148.655.413-.059.75.358.75.927 0 .655.643.712 1.75.155 3.467-1.745 22.456 1.124 25.599 3.867C51.617 85.164 50.09 89 48.383 89c-1.085 0-1.234.443-.558 1.652.709 1.267 2.338 1.637 6.97 1.583 4.747-.055 6.417.342 7.78 1.847.954 1.055 2.678 1.926 3.83 1.935 1.152.01 3.155 1.135 4.45 2.5C72.15 99.883 73.54 101 73.944 101c1.122 0 3.162 5.019 2.486 6.114-1.267 2.05 6.329 7.482 10.801 7.724 5.683.308 7.943 1.071 7.119 2.404-.442.715-.07.864 1.068.428.96-.369 3.846-.677 6.414-.685 3.493-.012 4.291-.273 3.168-1.037-1.08-.736-.381-.848 2.5-.398 5.831.911 7.5 1.471 7.5 2.517 0 .513.756.933 1.679.933 2.097 0 7.565 1.768 12.887 4.167 2.236 1.008 4.997 1.833 6.135 1.833 2.016 0 5.999 4.633 4.915 5.718-.299.299-2.339.088-4.532-.469-2.193-.556-4.274-.728-4.624-.38-1.631 1.618-23.935.647-25.706-1.119-.965-.963-2.852-1.75-4.195-1.75-1.343 0-2.719-.45-3.059-1-.34-.55-1.491-1-2.559-1S94 124.325 94 123.5c0-1.783-5.083-2.061-8.106-.443-1.554.832-2.764.568-5.684-1.236-2.041-1.261-3.822-2.187-3.96-2.057-1.03.972-2.25-.169-2.25-2.103 0-2.316-3.295-4.661-6.547-4.661A1.463 1.463 0 0 1 66 111.535c0-1.684-3.002-3.535-5.735-3.535-4.316 0-7.187-2.353-7.06-5.787.148-4.004-.921-5.185-5.321-5.878-1.861-.293-3.658-.975-3.994-1.516-.341-.551-1.87.185-3.475 1.672-1.906 1.767-3.635 2.509-5.164 2.217-1.264-.242-2.54-.05-2.834.426-1.038 1.68-2.341.828-3.962-2.588-2.374-5.002-3.704-5.845-6.915-4.382-2.151.98-2.842.965-3.485-.076-1.328-2.147-2.286 24.279-1.521 41.93.798 18.403.801 17.035-.058 22.482-.963 6.104 1.771 11.906 5.204 11.044 1.881-.472 2.441-.296 2.081.655-.383 1.013 2.045 1.353 10.957 1.535 6.297.129 13.25.719 15.449 1.311 4.023 1.083 9.833.488 9.833-1.007 0-.442-3.386-1.12-7.524-1.508l-7.523-.705 2.58-2.03c1.818-1.43 3.819-1.962 6.774-1.803 5.504.297 7.41.249 18.712-.474 7.426-.475 10.34-.266 13.25.95 4.777 1.996 4.767 2.007-1.868 2.165-5.788.138-9.308 2.09-7.894 4.378.564.913.945.876 1.585-.154.637-1.027 3.2-1.284 10.538-1.058 8.66.266 9.558.133 8.41-1.25-2.396-2.888 3.623-1.787 10.666 1.951 3.627 1.925 7.573 3.5 8.767 3.5 1.195 0 4.767 1.406 7.94 3.124 5.322 2.883 5.893 2.999 7.392 1.5 1.38-1.381 1.4-1.624.132-1.624-1.291 0-4.937-3.271-4.937-4.428 0-.223 1.625-.277 3.61-.12 3.72.296 5.348 1.749 5.375 4.798.008.963.449 1.75.98 1.75.53 0 1.474.952 2.097 2.115.976 1.824.697 2.512-2.027 5-1.737 1.587-3.636 2.885-4.219 2.885-.678 0-.623.528.153 1.463 1.484 1.788-3.219 6.762-5.548 5.868-1.86-.713-1.819-.879.829-3.365l2.25-2.112-2.748.681c-1.511.374-3.536.345-4.5-.066-2.106-.898-3.597-1.262-8.426-2.062-3.263-.54-4.016-.233-6.721 2.742-5.592 6.151-3.517 10.895 2.663 6.087 6.545-5.093 7.881-4.914 7.291.977-.109 1.082 1.062 2.228 3.18 3.114 1.844.77 4.156 2.626 5.137 4.125 1.4 2.136 2.308 2.593 4.205 2.117 3.343-.839 3.049.036-1.563 4.648-3.288 3.288-3.804 4.313-2.965 5.883 1.225 2.288 5.477 2.513 7.59.4 2.81-2.81 3.527-1.511 1.241 2.25-2.463 4.054-3.877 5.372-5.01 4.672-.836-.516-4.874 4.854-4.874 6.482 0 .603-.477 1.096-1.059 1.096s-.8.419-.484.931c.317.512.118 1.213-.441 1.559-.559.345-1.016 1.501-1.016 2.569 0 1.274-.687 1.941-2 1.941-1.529 0-2 .667-2 2.833 0 3.763-2.71 3.763-3.537 0-.647-2.947-1.852-3.631-3.032-1.721-.442.715-2.384.887-5.438.481-4.348-.576-4.802-.438-5.358 1.639-1.067 3.983-.767 4.333 3.378 3.938 2.601-.248 4.9.198 6.532 1.268 2.41 1.579 2.509 4.08.13 3.287-.628-.209-1.733.761-2.457 2.156-1.903 3.667 1.494 6.132 8.087 5.87 2.833-.112 5.107.298 5.541 1 .762 1.234 6.154-2.893 6.154-4.71 0-.482.273-1.589.607-2.459.921-2.401-1.637-1.925-4.552.847-3.32 3.155-7.319 4.163-8.91 2.245-1.385-1.668.82-6.187 6.481-13.284 1.803-2.26 4.036-6.003 4.962-8.318 1.332-3.33 2.817-4.848 7.118-7.275 2.988-1.687 6.363-4.324 7.499-5.861 1.513-2.045 2.88-2.771 5.1-2.708 4.032.114 7.276-3.992 8.862-11.218 1.67-7.613 1.689-7.256-.515-9.749-2.265-2.561-1.133-8.134 2.743-13.512 1.939-2.691 1.942-2.782.096-4.132-1.804-1.319-1.713-1.607 2.047-6.539 2.291-3.004 4.984-5.389 6.448-5.711 5.305-1.167 6.201-1.58 5.324-2.457-.521-.521-2.323-.48-4.344.1-5.185 1.487-5.967 1.269-5.73-1.595.241-2.909 3.012-4.845 5.866-4.099 2.619.685 2.404-1.021-.234-1.858-1.639-.52-1.818-.871-.777-1.515.776-.479 1.619-.412 1.971.157.715 1.157 2.614-.805 3.001-3.1.589-3.5-1.05-4.803-5.464-4.343-4.854.506-7.181-1.248-6.114-4.609.678-2.135 3.515-2.883 3.515-.926 0 .78.454.746 1.487-.111.871-.723 2.218-.917 3.25-.469.97.421 2.55.668 3.513.549 1.171-.145 1.75.466 1.75 1.846 0 1.135-.436 2.063-.969 2.063-.532 0-.709.675-.393 1.5.317.825 1.605 1.5 2.862 1.5 2.472 0 4.147 2.562 2.194 3.356-.657.268-.407.522.556.565.963.043 1.75.529 1.75 1.079 0 .55.675 1 1.5 1s1.5.45 1.5 1-1.318 1-2.929 1c-3.361 0-6.071 2.264-6.071 5.071 0 2.61 1.482 2.426 5.567-.69 2.752-2.099 3.433-2.297 3.433-1 0 2.169 1.735 2.07 2.311-.131.385-1.474.475-1.435.573.25.098 1.689.856 2.014 4.866 2.093 2.613.051 4.188-.099 3.5-.333-2.085-.711-1.402-1.751 1.251-1.904 2.901-.168 3.27 1.095.749 2.564-1.563.91-1.509 1.022.5 1.05 1.5.02 2.25-.562 2.25-1.747 0-1.469.735-1.726 4.25-1.485l6.25.429c4.001.275 9.704-.879 10.47-2.118.431-.698 2.527-1.414 4.657-1.59 2.13-.177 5.798-1.269 8.152-2.427 2.353-1.159 4.828-2.019 5.5-1.912 1.938.31 4.989-1.306 7.421-3.93 1.691-1.825 2.866-2.265 4.772-1.786 1.39.349 2.528.212 2.528-.303 0-.516 1.516-1.875 3.368-3.019 3.671-2.269 5.096-2.642 4.132-1.082-1.253 2.028.609 3.037 2.788 1.511 1.186-.831 3.186-1.511 4.444-1.511s3.071-.934 4.028-2.075c3.384-4.035 14.065-8.107 25.74-9.813 2.75-.402 6.847-1.692 9.104-2.867 3.04-1.583 4.396-1.845 5.229-1.012 1.54 1.54 15.009 1.621 15.595.095.247-.645 1.454-1.32 2.683-1.5 3.079-.452 3.677-2.819.722-2.863-1.283-.02-3.458-.662-4.833-1.428-2.972-1.655-1.861-2.304 5-2.918 2.475-.221 6.173-1.126 8.218-2.011 2.045-.884 5.171-1.608 6.946-1.608 1.854 0 4.837-1.115 7.005-2.617 3.671-2.544 7.756-2.688 6.23-.22-.514.832-.167.948 1.187.393 3.878-1.587 5.414-1.761 5.414-.614 0 .658-.551.859-1.25.457-.691-.398-.894-.329-.453.154.438.481-1.103 1.341-3.426 1.911-2.322.57-4.427 1.662-4.677 2.427-.347 1.062.192 1.229 2.282.704 1.899-.476 3.087-.227 3.88.816.987 1.295 1.584 1.104 4.338-1.39 1.756-1.591 2.695-3.058 2.086-3.261-1.055-.352 5.511-4.76 7.089-4.76.416 0 2.527-.847 4.693-1.883 2.166-1.035 5.369-2.189 7.119-2.564 1.749-.375 3.717-1.328 4.372-2.117.656-.79 1.984-1.436 2.953-1.436.968 0 1.984-.852 2.256-1.894.308-1.18 1.767-2.151 3.867-2.577 11.979-2.428 17.502-4.844 13.121-5.74-1.402-.287-1.154-.734 1.25-2.254 1.65-1.042 3.512-2.506 4.138-3.253 1.655-1.975 6.224-2.909 11.286-2.308l4.425.526-2.675 1.419C429.008 89.334 428.102 91 430 91c1.988 0 .924 1.674-2.886 4.54-3.709 2.789-3.802 2.996-2.052 4.514 1.76 1.526 1.714 1.697-1.14 4.201-3.044 2.671-7.627 2.896-12.125.596-1.254-.642-2.609-.077-5.132 2.139-1.886 1.655-3.907 3.01-4.49 3.01-.584 0-1.771 1.012-2.638 2.25-.866 1.237-1.886 2.025-2.266 1.75-.38-.275-1.609.908-2.731 2.629-4.203 6.448-4.69 7.053-4.119 5.121.284-.963.08-1.75-.452-1.75-.533 0-.969.355-.969.788 0 1.508-9.668 10.728-13.768 13.13-2.271 1.33-5.839 4.206-7.93 6.39-8.816 9.209-10.632 10.779-11.905 10.291-1.797-.69-7.697 1.387-8.697 3.062-.44.736-1.65 1.339-2.691 1.339-2.282 0-3.71 1.949-2.14 2.919 2.06 1.273 12.963-.704 15.501-2.811.723-.6 1.588-.816 1.923-.481.335.335.895-.527 1.243-1.915.348-1.387 1.495-2.748 2.549-3.024 2.29-.599 2.587.84.351 1.698-.86.33-1.459 1.391-1.331 2.357.377 2.851-2.283 7.298-5.3 8.858-1.64.848-2.805 1.025-2.805.425 0-.564-.563-.913-1.25-.776-.687.138-1.138-.312-1-1 .354-1.768-1.418-1.559-2.112.25-.316.825-1.714 1.5-3.107 1.5-1.392 0-2.531.36-2.531.799 0 2.126-9.789 4.012-11.571 2.23-.628-.628-2.677-.458-5.8.482-4.378 1.318-4.772 1.305-4.218-.14.442-1.152.178-1.427-.952-.994-1.014.389-1.315.198-.856-.543.435-.704.263-.869-.448-.429-.635.392-1.155.291-1.155-.225 0-1.189 5.787-3.622 8.187-3.441.997.075 1.813-.34 1.813-.924 0-.665.559-.596 1.5.185.825.685 1.5 1.92 1.5 2.745 0 1.131.325 1.23 1.324.401.966-.802 1.641-.781 2.5.078.901.901 1.176.592 1.176-1.324 0-1.375.54-3.04 1.2-3.7.898-.898.905-1.2.031-1.2-.665 0-.901-.696-.548-1.615.472-1.232.168-1.481-1.282-1.048-8.044 2.403-11.142 2.601-15.29.976-3.083-1.207-3.867-1.101-8.688 1.18-2.914 1.379-6.247 2.507-7.407 2.507-2.251 0-6.177 3.372-7.284 6.255-.728 1.899-9.328 7.745-11.393 7.745-1.664 0-2.996 2.6-3.742 7.306-.332 2.094-1.289 5.132-2.126 6.75-.837 1.619-1.226 2.944-.865 2.944 1.497 0 8.052-4.453 10.135-6.884 2.185-2.551 2.503-2.61 12.836-2.36 10.397.251 13.841-.261 11.496-1.711-1.37-.847 10.408-.57 17.427.409 2.75.383 6.575.824 8.5.979 3.686.297 6.508 1.116 9 2.612 6.699 4.02 8.095 4.334 12.36 2.778 2.277-.83 4.089-1.917 4.026-2.416-.063-.499 1.512-2.007 3.5-3.351 1.988-1.345 4.219-3.043 4.959-3.774.739-.731 2.652-2.005 4.25-2.831 1.598-.826 2.905-1.888 2.905-2.36s.945-1.105 2.101-1.407c1.155-.302 1.839-.972 1.52-1.488-.319-.516.338-1.995 1.459-3.288 1.227-1.415 1.827-3.154 1.509-4.372-.837-3.2 6.888-10.536 11.094-10.536 3.073 0 3.233-.172 2.686-2.907-.571-2.854-.474-2.928 5.275-4.059 3.221-.634 6.531-1.422 7.356-1.752.825-.33 1.843-.526 2.263-.436.42.089 2.548-.964 4.73-2.342 2.182-1.377 4.233-2.504 4.559-2.504.325 0 1.218-.562 1.985-1.25 5.132-4.603 8.112-6.055 10.958-5.34 3.401.853 8.752-.402 7.625-1.788-3.31-4.071-2.615-11.717.758-8.344 1.469 1.469 1.526-2.085.094-5.852-.565-1.487-.876-2.856-.689-3.042.365-.365 4.43-1.189 6.467-1.31 1.945-.115 1.47-4.148-.712-6.041-2.643-2.293-4.189-6.482-2.876-7.795.559-.559 1.166-2.627 1.349-4.596.454-4.887.902-5.361 4.695-4.963 3.666.385 3.279.141-5.456-3.444-2.063-.846-3.75-1.92-3.75-2.387 0-1.186 1.097-1.007 4 .652 3.008 1.719 8.108 1.875 13.389.409 4.7-1.305 11.463-.361 9.741 1.361-1.784 1.784-1.32 3.73.889 3.73 1.63 0 1.903.461 1.419 2.39-.493 1.967-.098 2.572 2.231 3.421 1.557.567 2.099 1.067 1.203 1.11-2.086.101-4.312 2.689-3.006 3.496.53.328 1.191.03 1.47-.661.305-.758.537-.562.585.494.043.962-.835 2.664-1.951 3.78-1.781 1.781-1.9 2.514-.973 5.958 1.226 4.553 2.875 5.993 4.184 3.652.505-.902 2.021-1.64 3.369-1.64H485V95.8c0-8.66-.31-11.89-1.069-11.131-.927.927-1.58 2.894-1.854 5.581-.043.412-.782.75-1.644.75-1.143 0-1.385-.575-.893-2.125.423-1.333.168-2.445-.683-2.985-1.023-.648-.865-.871.643-.906 2.126-.051 5.5-2.185 5.5-3.48 0-.427-2.138-.502-4.75-.167-4.496.576-4.616.531-2.25-.829 1.375-.79 3.512-1.453 4.75-1.473 2.116-.033 2.25-.453 2.25-7.035v-7h-5.453C474.067 65 469 66.547 469 68.22c0 .494-.342.686-.761.428-.419-.259-1.57.121-2.558.843-1.704 1.246-1.681 1.396.451 2.889 3.397 2.379 1.796 2.84-5.472 1.575-4.423-.771-7.422-1.932-9.168-3.55-1.427-1.323-3.209-2.405-3.96-2.405-.751 0-1.515-.417-1.699-.926-1.065-2.96-17.833-.583-17.833 2.527 0 2.191-2.219 2.81-9.234 2.577-5.086-.169-7.909.293-11.33 1.851-2.507 1.142-5.317 1.981-6.247 1.865-3.643-.457-12.624 2.593-11.759 3.993.491.794-5.772 3.931-10.999 5.509-1.139.343-3.065 1.97-4.28 3.614-3.199 4.327-7.41 4.211-5.082-.14.779-1.454.746-2.388-.122-3.434-.656-.79-.912-1.492-.569-1.561a30.824 30.824 0 0 1 1.539-.25c2.237-.305 2.169-1.625-.084-1.625-1.375 0-2.803.303-3.174.674-1.829 1.829-12.131 1.809-14.754-.028l-2.1-1.471 2.203-1.179c1.272-.681 3.642-.909 5.61-.54 2.519.473 3.556.254 3.975-.838.715-1.864 6.138-3.862 6.944-2.558.32.517 1.031.94 1.581.94s.703-.48.341-1.067c-.363-.587-.052-.983.691-.881 3.253.446 5.928-.117 5.308-1.119-.363-.588.285-1.314 1.441-1.617 2.413-.631 2.616-1.392.851-3.187-1.008-1.025-.67-1.13 1.75-.545 1.65.399 3.15 1.106 3.333 1.571.471 1.194 2.167 1.053 2.167-.18 0-1.227-4.17-2.988-9-3.801-3.561-.599-14.942-.726-36.5-.406-6.6.097-14.15.016-16.777-.18-3.808-.285-4.56-.097-3.709.929.804.969.327 1.816-1.927 3.421-2.033 1.447-2.794 2.661-2.368 3.772.468 1.221.211 1.477-1.013 1.007-.903-.346-1.908-.199-2.233.327-1.239 2.004-6.473 1.093-6.473-1.127 0-1.233-.51-1.905-1.25-1.647-.687.241-1.135 1.101-.996 1.912.271 1.567-3.625 4.162-5.451 3.633-1.186-.344-5.612 4.21-4.841 4.981.262.261 1.615-.271 3.007-1.184 2.069-1.355 2.531-1.4 2.531-.242 0 .779-.704 1.686-1.563 2.016-.86.33-1.294 1.036-.965 1.569.594.96 1.687.647 9.359-2.681 4.097-1.777 5.416-.848 2.129 1.499-4.252 3.035-12.96 4.457-12.96 2.116 0-2.285-7.416.095-10.166 3.262-1.466 1.689-3.133 2.782-3.706 2.428-.572-.353-1.784.493-2.693 1.881-.91 1.387-2.023 2.294-2.475 2.015-.452-.279-1.104-.05-1.45.509-.345.559-1.753 1.016-3.128 1.016-1.375 0-2.254-.399-1.953-.886 1.202-1.943-4.921-1.983-6.901-.045-1.768 1.73-1.794 1.931-.25 1.931 1.124 0 1.717.782 1.707 2.25-.012 1.651-.245 1.887-.879.887-.729-1.151-.942-1.151-1.366 0-.319.867-.909.338-1.622-1.454-1.199-3.018-3.796-3.041-7.197-.065-.868.76-1.881 1.382-2.25 1.382-1.25 0-.68-2.747.829-4 1.962-1.628 1.904-2.667-.15-2.667-.907 0-2.101 1.196-2.652 2.657-.552 1.461-2.172 3.145-3.601 3.743-3.097 1.294-14.205 2.251-13.534 1.165.258-.417-1.112-.677-3.043-.578-3.19.164-3.513.455-3.531 3.18-.011 1.65-.502 3.675-1.091 4.5-.853 1.194-.966 1.021-.553-.846.627-2.838-.142-5.154-1.711-5.154-.634 0-1.715-.9-2.402-2-1.233-1.975-5.232-2.828-5.232-1.117 0 .486-.9 1.119-2 1.407-2.438.637-2.646-.829-.303-2.14 1.297-.726.767-.95-2.25-.952-2.171-.001-4.396.275-4.946.613-.549.338-1.889.631-2.977.652-1.41.026-1.985.733-2.001 2.461-.03 3.158-3.694 4.245-13.023 3.863-5.683-.233-7-.005-7 1.213 0 .986 1.198 1.61 3.5 1.821 4.77.438 5.869 1.829 2.099 2.657-1.705.375-3.099 1.095-3.099 1.601 0 .507-.702.921-1.559.921s-1.301.418-.985.928c.315.51-.333 1.216-1.441 1.567-1.108.352-2.015 1.059-2.015 1.572 0 1.301.435 1.209 5.466-1.156 6.632-3.117 13.4-1.004 13.502 4.216.026 1.332-.829 1.557-4.718 1.238-3.504-.288-4.225-.143-2.75.552 1.1.518 2.963.974 4.139 1.013 1.177.038 3.202 1 4.5 2.137l2.361 2.067-2.862-.45c-1.574-.247-4.049.17-5.5.927-3.234 1.688-6.225 1.798-5.888.217.138-.645-.917-1.207-2.347-1.25-1.428-.043-3.228-.577-4-1.187-2.462-1.946-7.656-2.478-8.281-.848-.326.85-1.874 1.457-3.713 1.457-2.69 0-2.971-.221-1.909-1.5.685-.825.959-1.5.609-1.5-.911 0-5.003 2.357-5.682 3.273-1.778 2.397-8.214 1.124-10.227-2.023-1.424-2.226-6.593-4.315-9.112-3.683-1.671.42-3.391-.101-5.509-1.667-4.294-3.175-3.862-3.898 1.921-3.214 3.421.406 5 .233 5-.547 0-.676 1.728-1.133 4.25-1.124 3.112.012 3.849.275 2.75.985-2.237 1.446 2.239 1.23 9.25-.445 3.162-.756 5.75-1.135 5.75-.842 0 .292.563.085 1.25-.46.688-.546 3.05-1.334 5.25-1.751l4-.758-2.863-.993c-3.215-1.115-1.949-2.708 2.172-2.736 1.27-.008 2.068-.406 1.773-.883-.47-.759-17.159-2.254-24.832-2.223-2.978.011-3.876-1.822-1-2.044.963-.074 2.875-.214 4.25-.312 8.146-.579 9.385-.758 8.306-1.197-.656-.267-.916-1.209-.576-2.094.484-1.262.202-1.449-1.306-.866-3.262 1.259-11.465 2.601-16.31 2.667-3.777.052-4.206.228-2.364.968 3.543 1.424 2.633 2.969-1.75 2.969-2.889 0-4-.417-4-1.5 0-.825.675-1.5 1.5-1.5 3.453 0 1.123-1.915-3.549-2.917-6.435-1.38-15.284-1.431-14.451-.083.34.55 1.69 1 3 1s2.648.43 2.973.956c.325.526 1.224.714 1.998.417s2.169-.114 3.101.407c1.382.774 1.028 1.073-1.926 1.627-2.223.417-4.491.207-5.882-.544-1.245-.672-3.727-1.127-5.514-1.011-2.947.191-3.706-.467-3.416-2.959.039-.333-1.033-1.197-2.382-1.919-2.582-1.382-3.326-3.175-1.202-2.899 3.216.417 4.711-.335 7.232-3.641 3.35-4.392 3.067-4.708-3.443-3.845-4.193.556-5.366 1.141-6.085 3.031-1.23 3.236-4.171 2.064-3.758-1.498.167-1.442.754-2.57 1.304-2.506.55.063 1.608-.753 2.351-1.814.743-1.06 2.467-2.353 3.831-2.871 4.497-1.71 2.081-3.423-5.01-3.552-3.66-.066-7.221-.52-7.914-1.01C94.059 73.753 89.868 72 87.315 72c-2.252 0-3.113-.626-3.965-2.884-1.363-3.61-5.364-3.992-41.6-3.967L17 65.166v4.917m292.7 19.065c-.944.528-2.129.705-2.633.393-1.031-.637-5.307 1.024-9.067 3.523-1.375.914-4.975 2.241-8 2.949-10.178 2.381-15.96 4.113-16.465 4.931-.567.916 4.433 2.301 8.965 2.482 1.65.066 3.571.479 4.27.918.698.439 2.77.303 4.606-.303 2.27-.749 4.17-.784 5.945-.109 2.589.984 4.104.103 4.177-2.432.016-.55 1.26-.982 2.765-.961 1.506.022 2.737-.352 2.737-.831s1.539.08 3.421 1.243c2.159 1.335 3.656 1.734 4.059 1.082.351-.568.092-1.033-.576-1.033-.741 0-.487-.803.652-2.062 1.095-1.21 2.632-1.861 3.723-1.575 2.378.622 7.895-1.272 7.162-2.459-.307-.496.481-.789 1.751-.653 1.961.212 2.333-.24 2.471-3.001.188-3.744-1.068-4.231-2.759-1.07-1.071 2-1.269 2.041-2.396.5-1.411-1.93-5.669-2.199-8.745-.553-1.671.894-2.336.81-3.226-.407-.807-1.104-1.601-1.264-2.837-.572m-101.36 26.409c-.306.796-.274 2.571.071 3.945.457 1.819.214 2.532-.892 2.623-.835.069-1.969.237-2.519.375s-1.675.306-2.5.375c-1.979.165-1.849 1.126.539 3.993 1.62 1.945 2.239 2.146 3.467 1.127.904-.751 1.494-.83 1.494-.201 0 .572-.562 1.24-1.25 1.486-.687.245-.933.788-.545 1.205 1.165 1.254 6.795-5.14 6.795-7.717 0-3.059 2.409-6.534 3.408-4.917.487.789 1.286.848 2.521.187.995-.532 2.073-.703 2.396-.379.324.323 1.396.24 2.382-.186.986-.425 2.666-.941 3.732-1.146 3.133-.601 3.122-1.318-.022-1.438-5.088-.193-7.894.281-8.667 1.463-.539.825-.961.839-1.5.053-1.273-1.859-8.267-2.525-8.91-.848m173.172 23.426c-3.779.673-4.454 5.311-.849 5.825 1.913.273 2.062.665 1.284 3.378-.885 3.086.215 6.814 2.012 6.814.488 0 3.158-2.109 5.931-4.688 5.339-4.962 5.496-7.312.488-7.312-1.308 0-2.378-.45-2.378-1s-.642-1-1.427-1c-.784 0-1.572-.574-1.75-1.275-.211-.834-1.355-1.09-3.311-.742M480.5 161c-.34.55-.214 1 .279 1s.959 1.654 1.035 3.676c.076 2.022.665 4.002 1.308 4.399 1.64 1.014.266 4.011-2.127 4.637-2.248.588-2.583 2.3-.798 4.085.672.672 1.3 4.538 1.43 8.797.128 4.179.514 7.88.857 8.223 1.746 1.747 2.487-3.899 2.501-19.067.014-15.919-.081-16.75-1.926-16.75-1.068 0-2.219.45-2.559 1m-293.832 11.666c-1.514.793-3.532 1.195-4.485.892-1.284-.407-2.573.811-4.97 4.696l-3.238 5.246 2.763 1.166c2.381 1.006 3.072.879 5.012-.924 1.238-1.15 2.257-1.675 2.265-1.166.009.508.452.249.985-.576.828-1.282.972-1.246.985.25.01 1.148.789 1.745 2.265 1.736 3.818-.023 6.75-1.154 6.75-2.603 0-.76.477-1.383 1.059-1.383s.762-.48.4-1.067c-.363-.586.173-1.697 1.191-2.468 1.75-1.325 1.714-1.412-.65-1.591-1.375-.104-3.062-.168-3.75-.143-.687.026-1.25-.53-1.25-1.235 0-2.032-2.342-2.397-5.332-.83m194.561 60.991c.89.89 3.887 2.418 6.661 3.394 5.873 2.069 12.501 6.482 19.8 13.184 2.855 2.621 5.715 4.765 6.356 4.765 2.202 0 8.785 6.036 11.342 10.399 1.407 2.402 3.245 4.63 4.083 4.951.838.322 2.514 2.625 3.725 5.118 1.212 2.492 2.774 4.532 3.472 4.532s1.032.619.742 1.375c-.551 1.435 4.197 2.07 5.058.677.417-.675-1.803-14.35-3.033-18.678-.332-1.169-1.603-2.661-2.824-3.315-1.222-.654-2.706-2.473-3.299-4.044-.664-1.758-2.634-3.649-5.127-4.921-2.227-1.136-4.331-2.522-4.676-3.08-.345-.558-1.426-1.014-2.402-1.014-.977 0-4.345-1.8-7.486-4-3.14-2.2-6.217-4-6.837-4-.619 0-1.837-.613-2.705-1.363-2.652-2.289-10.213-4.467-17.524-5.047-6.399-.508-6.817-.424-5.326 1.067m101.467 2.48c-.992 1.084-1.667 2.959-1.5 4.167.186 1.342-.182 2.099-.946 1.946-1.453-.291-1.582.678-.349 2.623.499.789.465 2.84-.082 4.819-.673 2.44-.604 3.862.238 4.876.937 1.129.885 1.432-.243 1.432-.788 0-2.305.712-3.373 1.582-1.753 1.428-1.765 1.526-.126 1.006 1.473-.467 1.691-.183 1.155 1.505-.45 1.419-.017 2.68 1.359 3.962 2.547 2.373 3.348 8.493 3.531 26.99l.14 14.126-2.75 2.202c-2.885 2.31-3.624 4.605-1.5 4.659.763.019.569.549-.5 1.36-.962.731-1.75 2.044-1.75 2.919 0 1.321-1.101 1.54-6.5 1.295l-6.5-.296v2.774c0 1.525-.72 3.493-1.599 4.372-2.371 2.371-.05 4.846 3.758 4.009 3.648-.801 3.577-.134-.409 3.85-5.481 5.478-12.563 9.879-14.769 9.179-1.13-.359-1.981-.17-1.981.439 0 .587-.75 1.067-1.667 1.067-4.739 0 .106 1.356 6.917 1.936 2.319.198.252 2.064-2.285 2.064-3.556 0-8.239 2.748-7.292 4.279.41.664.029.821-1.018.419-.92-.353-2.763-.227-4.097.28-1.703.647-2.545.565-2.829-.278-.303-.899-.817-.859-2.054.162-1.004.829-2.339 1.058-3.412.586-2.292-1.008-5.962-1.32-15.763-1.342-9.409-.021-12.5.598-12.5 2.502 0 .766-.45 1.392-1 1.392s-1-.399-1-.887c0-.487-1.35-1.084-3-1.326s-3 .006-3 .553c0 .546-.304.689-.676.318-.372-.372-1.646.236-2.833 1.35-2.261 2.125-14.646 5.254-17.086 4.317-.773-.296-1.405-.083-1.405.474 0 .646-.904.594-2.492-.143-1.371-.636-2.496-1.62-2.5-2.188-.014-1.819 8.75-3.758 13.899-3.075 3.752.498 5.114.287 6.143-.953 2.328-2.805-1.258-3.982-10.658-3.496-2.555.132-5.524-.547-7.853-1.795-3.637-1.95-6.539-1.936-6.539.031 0 .532-.788.812-1.75.622-1.316-.259-1.75-1.331-1.75-4.323 0-4.258-2.034-5.503-3.641-2.229-.472.962-1.233 2.538-1.691 3.5-.457.962-1.807 2.194-3 2.737-1.294.59-2.168 1.899-2.168 3.25 0 2.828-2.359 2.918-10 .38-5.211-1.731-5.71-1.737-9.5-.129-5.902 2.503-9.259 3.152-11.238 2.169-3.752-1.863-12.347-4.223-13.28-3.646-.54.334-.982 1.25-.982 2.037 0 .786-.775 2.334-1.722 3.441-1.774 2.071-4.278 2.714-4.278 1.098 0-.502-1.36-.4-3.021.227-2.312.873-3.484.852-4.99-.089-1.66-1.036-2.156-.931-3.157.673-.654 1.046-1.671 1.735-2.26 1.53-1.441-.5-4.024 1.616-4.938 4.044-.611 1.624-.899 1.718-1.633.529-.491-.794-1.195-1.14-1.566-.77-.37.371.055 1.402.946 2.293 1.815 1.815 2.165 4.476.588 4.476-.568 0-1.324-.788-1.681-1.75-.841-2.267-4.217-5.25-5.941-5.25-1.574 0-1.796 1.604-.347 2.5 1.603.991 1.152 2.772-.538 2.124-.875-.336-1.783.049-2.107.893-.313.816-1.158 1.483-1.879 1.483-.72 0-1.459.409-1.643.908-.183.5-1.233 1.063-2.333 1.25-1.1.188-2.613 1.568-3.363 3.067-1.149 2.298-1.671 2.559-3.333 1.67-1.502-.804-2.385-.679-3.716.525-.96.869-2.61 1.587-3.667 1.595-2.449.02-4.17 1.116-4.591 2.924-1.245 5.351-5.513 6.269-11.978 2.573-4.975-2.844-7.81-3.371-5.926-1.101 1.985 2.392-.455 2.702-5.054.643-4.289-1.92-4.348-1.92-6.149.013-1.316 1.412-2.29 1.7-3.524 1.04-3.017-1.615-8.457-1.735-8.986-.198-.335.972.022 1.215 1.151.782 1.062-.408 1.636-.107 1.636.856 0 .954-.983 1.483-2.75 1.48-4.862-.009-7.25.382-7.25 1.187 0 .432-1.35.786-3 .786-1.716 0-3.014.535-3.033 1.25-.048 1.806-3.554 5.747-5.127 5.765-1.029.012-.998.232.131.946.809.512 1.211 1.19.893 1.508-.93.931-3.864-.564-3.864-1.969 0-2.111-2.817-2.54-4.654-.708-.941.94-2.192 1.739-2.779 1.777-4.259.275-9.788 1.844-10.191 2.893-.322.839-1.82 1.109-4.461.804-2.324-.269-4.587.047-5.446.76-1.149.953-1.786.956-2.925.01-.801-.664-1.974-.888-2.607-.497-.853.527-.832.908.084 1.474 1.942 1.2.067 3.143-2.355 2.441-1.191-.345-2.953-1.539-3.916-2.652-.962-1.113-1.75-1.524-1.75-.913s-.338 1.058-.75.993c-1.746-.276-3.25.178-3.25.979 0 .474 1.131.645 2.514.381 2.003-.383 2.389-.152 1.896 1.133-.341.887-.992 1.384-1.446 1.103-.455-.282-1.42.325-2.146 1.347-1.211 1.707-4.907 4.175-6.252 4.175-.311 0-.566-.69-.566-1.533 0-.844-1.174-3.851-2.61-6.683-2.58-5.092-2.82-8.884-1.042-16.47.299-1.273-.117-2.707-.996-3.437-1.321-1.096-1.233-1.458.708-2.922 3.289-2.481 2.086-8.897-1.538-8.204l-2.44.466.589-7.858c.659-8.801 1.173-9.49 6.798-9.12 4.276.281 7.778-2.683 13.568-11.482 1.422-2.162 3.275-3.746 4.384-3.75 1.057-.004 2.744-.752 3.75-1.662 1.704-1.542 1.961-1.535 3.762.094 2.001 1.811 1.823 3.819-.588 6.643-.742.87-1.54 4.02-1.772 7-.232 2.98-.711 6.159-1.064 7.064-.417 1.066.131 2.189 1.553 3.185 2.125 1.488 2.573 1.147 13.817-10.518 11.624-12.058 34.646-32.633 43.121-38.538C218.184 308.18 231.523 301 234.521 301c1.694 0 3.637-.558 4.319-1.24.681-.681 3.584-1.828 6.45-2.547 2.865-.72 6.785-1.72 8.71-2.224 11.322-2.962 19.856-4.148 31-4.309l12.5-.18 4.209 4.209c4.925 4.925 9.17 5.146 14.902.774 1.79-1.365 3.714-2.483 4.275-2.483 2.096 0 6.114 2.367 6.114 3.601 0 2.04 1.481 2.421 4.694 1.208 2.713-1.024 3.53-.77 8.897 2.762 3.25 2.139 6.059 4.236 6.242 4.659.184.424 1.188.77 2.231.77 2.295 0 2.649-1.483 3.321-13.933.385-7.143.973-10.059 2.42-12.017 1.426-1.929 1.688-3.187 1.034-4.957-.483-1.304-.58-3.956-.217-5.893.575-3.061.435-3.436-1.062-2.861-.948.363-2.642.661-3.764.661-1.7 0-1.833.25-.797 1.499 1.076 1.296.788 1.423-2.127.934-2.76-.463-3.051-.361-1.601.562 2.5 1.592 1.206 3.005-2.753 3.005-2.064 0-4.457-.909-6.191-2.351-1.555-1.294-3.878-2.905-5.163-3.581-1.284-.677-2.115-1.45-1.847-1.719.269-.269 2.315.443 4.546 1.581 2.232 1.139 5.538 2.052 7.347 2.029 3.124-.038 2.987-.188-2.71-2.959-3.3-1.605-5.55-2.967-5-3.025 3.158-.338-10.957-3.854-15.691-3.909-3.13-.036-5.98-.534-6.334-1.107-.354-.572-1.505-.767-2.559-.432-1.071.34-1.916.137-1.916-.46 0-1.349-22.631-1.474-23.462-.129-.319.516 1.117 1.116 3.191 1.332 2.074.217-1.291.469-7.479.562-6.721.1-11.25.571-11.25 1.168 0 .55 1.012 1.033 2.25 1.074 1.238.04-.9.89-4.75 1.888-3.85.998-10.363 2.74-14.473 3.871-6.756 1.858-10.895 2.205-6.586.551 1.212-.465 1.374-.88.544-1.393-.698-.432.292-1.008 2.416-1.406 1.979-.372 3.599-1.043 3.599-1.493 0-.449 1.16-.69 2.578-.534 1.418.156 4.231-.324 6.25-1.067 3.166-1.164 3.328-1.362 1.172-1.436-2.025-.069-2.215-.28-1-1.109 1.089-.743.071-.931-3.715-.686-2.869.186-5.5.622-5.848.97-.348.348-1.337.362-2.199.031-1.033-.396-1.32-.203-.843.569.45.729.041 1.169-1.086 1.167-3.092-.006-16.718 4.254-18.525 5.791-.943.803-3.753 1.517-6.244 1.586-2.49.069-4.531.49-4.534.935-.003.445-.456.531-1.006.191s-1-.248-1 .205c0 .453-1.822 1.612-4.048 2.577-2.548 1.104-3.784 2.18-3.336 2.906.453.733.183.949-.744.593-.801-.307-2.31.066-3.355.83S201.454 278 200.032 278c-1.438 0-3.952 1.248-5.663 2.81-1.692 1.546-4.38 3.781-5.973 4.968-2.109 1.572-2.437 2.167-1.205 2.19.93.018 1.969-.418 2.309-.968.34-.55 1.24-1 2-1 .968 0 .587 1.215-1.269 4.049-2.582 3.945-2.675 3.99-3.597 1.75-.521-1.264-.876-2.636-.79-3.049.242-1.162-1.273-.888-3.304.597-1.277.934-1.489 1.566-.691 2.059 1.41.872 1.542 6.594.151 6.594-.55 0-1-.675-1-1.5s-.445-1.5-.988-1.5c-.544 0-.881.982-.75 2.183.205 1.885-.289 2.205-3.613 2.343l-3.851.159 3.351-3.161c1.843-1.739 3.641-3.021 3.996-2.848.355.172.903-.36 1.219-1.182.581-1.514-1.891-2.212-2.531-.714-.394.923-14.862 11.713-15.734 11.735-.33.009-1.13.354-1.78.767-.649.413-1.44.332-1.756-.18-.317-.512-.01-1.121.681-1.354.987-.332.966-.774-.099-2.064-1.026-1.243-1.816-1.396-3.25-.628-1.659.888-1.895.651-1.895-1.904 0-3.126-2.59-4.66-5.139-3.045-3.256 2.063-4.481 1.02-4.53-3.857-.027-2.613-.418-5.623-.87-6.69-.53-1.254-.403-2.079.359-2.333.649-.217 1.18-1.031 1.18-1.81 0-.78.506-1.417 1.125-1.417.711 0 .909-1.08.538-2.935-.323-1.615.015-5.327.751-8.25s1.341-5.99 1.343-6.815c.003-.825.332-2.288.731-3.25.515-1.242.259-1.75-.881-1.75-1.119 0-1.607.911-1.607 3 0 1.65-.511 3-1.136 3-.777 0-.937-1.502-.507-4.75.431-3.254.322-4.278-.348-3.25-.538.825-.985 2.538-.994 3.806-.008 1.27-1.356 3.532-3 5.033-2.18 1.991-3.262 4.199-4.017 8.193-.567 3.008-1.3 6.368-1.627 7.468-.485 1.627-.351 1.767.717.75 1.789-1.704 2.974-1.574 2.274.25-.317.826-.03 1.5.639 1.5 1.8 0 .427 4.642-3.05 10.316-1.633 2.666-2.954 6.239-2.957 8-.004 1.751-.679 4.473-1.5 6.048-.822 1.576-1.494 3.376-1.494 4 .001 1.217-12.846 1.468-14.753.289-1.811-1.119-2.397 2.639-.905 5.802 4.758 10.087 4.727 9.789 1.571 14.86-3.385 5.437-5.192 12.296-3.884 14.74.495.925.592 1.99.216 2.367-.377.376-.734 1.448-.794 2.381-.06.933-.186 3.127-.28 4.876-.094 1.748-.842 3.849-1.662 4.669-1.679 1.679-1.465 9.387.458 16.53.618 2.293.843 4.62.501 5.173-.341.553.122 3.968 1.03 7.589 1.342 5.349 1.426 7.129.449 9.489-.662 1.597-.947 4.482-.634 6.41.789 4.863-1.879 9.446-5.504 9.455-1.48.003-2.984-.468-3.342-1.047-.357-.579-1.172-.868-1.809-.643-.637.225-2.171.035-3.408-.423-1.907-.705-2.252-.492-2.265 1.394-.028 4.085-1.502 5.111-3.331 2.32-2.144-3.272-2.094-3.58.596-3.674 1.237-.043 1.685-.307.994-.585-.691-.279-1.002-.918-.691-1.421 1.268-2.052-1.413-.718-4.136 2.057-1.604 1.635-3.427 2.985-4.05 3-.624.015-1.381.973-1.683 2.129-.302 1.155-.956 1.849-1.452 1.542C80.047 417.911 77 424.36 77 427.6c0 4.384-1.759 6.473-5.3 6.295-1.76-.088-4.55.381-6.2 1.043-1.65.661-3.225 1.071-3.5.91-.275-.16-1.073.905-1.774 2.367l-1.274 2.658-4.051-2.162c-2.227-1.189-3.454-2.321-2.725-2.515 4.052-1.084 4.102-1.431.39-2.72-2.164-.752-4.331-1.121-4.817-.821-.486.301-1.123-.368-1.415-1.485-.322-1.234-1.287-1.974-2.457-1.886-1.313.099-1.727.634-1.299 1.681.344.844 1.103 2.885 1.685 4.535.582 1.65 1.671 3.365 2.419 3.811.748.447 1.131 1.182.851 1.635-.716 1.159-6.415.572-7.79-.803-.629-.629-1.535-1.143-2.014-1.143-.48 0-1.565-.694-2.413-1.541-1.388-1.388-1.788-1.38-4.023.085-2.342 1.534-2.449 1.522-1.91-.209.865-2.778-.868-5.079-2.128-2.826-.539.962-1.6 1.543-2.358 1.29-.759-.253-1.978.139-2.71.871-.731.731-2.198 1.33-3.258 1.33-1.356 0-1.929.696-1.929 2.339 0 2.56 3.375 4.661 7.488 4.661 2.651 0 4.241-1.584 2.268-2.259-.691-.236 1.288-.387 4.397-.335 3.11.052 5.475.384 5.256.739-.907 1.472 3.762 1.855 22.601 1.855 20.793 0 19.868.176 23.841-4.531 1.643-1.947 2.077-1.605 2.364 1.862.207 2.498.534 2.669 5.112 2.669 4.591 0 4.855-.139 4.318-2.28-.315-1.254-.305-3.303.021-4.552l.594-2.272 2.37 2.226c2.324 2.184 3.104 3.994 1.62 3.76-1.956-.309-2.387.248-1.25 1.618 1.035 1.247 4.731 1.495 21.872 1.47 14.503-.022 20.108-.333 18.878-1.05-3.132-1.825-2.189-4.258 1.375-3.545 1.719.344 3.744.625 4.5.625.756 0 1.375.499 1.375 1.108 0 .662-.94.873-2.333.523-1.665-.418-2.334-.157-2.334.909 0 1.317 9.798 1.444 82.584 1.071 45.42-.233 83.708-.46 85.083-.504 1.375-.045 19.972.173 41.328.483 40.996.597 43.874.351 48.349-4.124.806-.806 2.109-1.466 2.894-1.466.786 0 1.429-.436 1.429-.969 0-.532.675-.709 1.5-.393 1.995.766 1.896 2.339-.25 3.979-1.508 1.152-1.058 1.253 3.25.73 4.461-.541 8.847-2.347 5.7-2.347-1.608 0-1.512-1.208.281-3.559 1.29-1.691 1.623-1.748 2.587-.441.894 1.213 1.007 1.054.592-.829-.367-1.662-.133-2.183.816-1.819.731.281 2.161-.119 3.177-.889s2.859-1.414 4.097-1.431c1.238-.018 2.25-.543 2.25-1.168 0-.791 1.44-.913 4.75-.401 6.148.95 12.659.695 13.083-.513.184-.523 2.307-.95 4.719-.95 3.319 0 4.256.336 3.855 1.381-.341.888.589 1.77 2.607 2.474 1.725.601 2.851 1.555 2.502 2.119-.354.572.261 1.026 1.39 1.026 1.113 0 3.952.653 6.309 1.45 5.676 1.922 11.727 2.495 14.674 1.39 2.878-1.079 4.307-.089 1.853 1.285-.958.536-1.742 1.879-1.742 2.984 0 1.219.437 1.739 1.112 1.322.611-.378 1.504-.067 1.984.691.501.79.88-43.746.889-104.372.008-58.163-.098-105.713-.235-105.667-.137.046-1.062.97-2.054 2.054m-304.057-.443c-.351.352-.639 1.539-.639 2.639 0 1.1.298 1.703.661 1.339.364-.364 1.73.911 3.036 2.833 1.306 1.922 3.023 3.495 3.814 3.495 1.066 0 1.283.779.839 3-.51 2.55-.294 3 1.442 3 1.123 0 2.2.476 2.394 1.057.532 1.598 3.809-.033 3.846-1.914.017-.904.658-2.469 1.423-3.478 1.199-1.583 1.152-2.398-.341-5.914-1.82-4.284-3.031-4.936-9.619-5.181-2.202-.082-4.502-.456-5.11-.832-.608-.376-1.394-.396-1.746-.044m-8.389 65.968c-.687.278-1.25 1.359-1.25 2.402 0 1.19-.932 2.132-2.5 2.525-2.904.729-3.012 1.042-1.042 3.011.801.802 1.203 2.12.893 2.929-.311.809-.115 1.471.436 1.471.662 0 .672 1.292.032 3.816-.885 3.484-1.222 3.778-3.882 3.388-3.342-.49-4.952 1.868-2.935 4.299 1.009 1.216.808 1.645-1.138 2.424-1.3.52-1.971.975-1.492 1.01.48.034.429.626-.113 1.313-.542.688-1.293 3.261-1.669 5.718l-.683 4.468 2.546-2.392c1.401-1.316 2.554-1.977 2.562-1.468.009.508.452.249.985-.576.854-1.322.971-1.316.985.05.008.852-.525 2.09-1.185 2.75-.933.933-.857 1.2.345 1.2.85 0 2.36-.9 3.355-2 1.217-1.345 1.392-2 .533-2-1.023 0-1.029-.3-.033-1.5 1.476-1.778-.065-2.035-1.8-.3-.66.66-1.198.773-1.196.25.008-2.107 4.036-7.349 8.384-10.912l4.609-3.777-3.045-2.658c-4.08-3.563-3.96-9.249.258-12.252 4.163-2.965 2.836-5.124-1.96-3.189m302.555 56.122c-.932.188-1.477.906-1.212 1.597.772 2.012-3.49 6.594-7.701 8.279-3.342 1.337-3.794 1.882-3.276 3.946.469 1.869.194 2.409-1.258 2.464-1.71.065-1.698.136.142.893 2.707 1.113 1.854 1.397-14.604 4.872-9.96 2.103-14.179 3.448-15.75 5.019-2.6 2.6-2.76 3.534-.396 2.311.962-.498 6.25-1.445 11.75-2.105 12.133-1.457 17.339-2.814 20.064-5.23 2.225-1.972 3.942-2.458 2.936-.83-.564.913 1.027 1.388 4.25 1.269.688-.026 1.25.353 1.25.842s.675.889 1.5.889 1.5-.505 1.5-1.122c0-.806.399-.792 1.414.05.947.786 2.493.894 4.682.327 3.485-.903 5.205-3.255 2.38-3.255-1.147 0-1.49-.52-1.069-1.619.541-1.409-.101-1.551-4.928-1.093-3.053.29-6.138 1.014-6.857 1.611-.718.596-1.6.789-1.96.429-.36-.36.694-1.474 2.342-2.476 1.648-1.003 2.996-2.23 2.996-2.729 0-1.22-4.451-2.271-6.421-1.515-.868.333-1.579.108-1.579-.501s.788-1.159 1.75-1.222c10.592-.695 12.219-.644 11.595.365-.436.706-.058.854 1.073.42.96-.369 2.159-.67 2.664-.67.505 0 .918-.436.918-.969 0-.532-.675-.709-1.5-.393-1.799.691-2.045-1.25-.25-1.979.941-.381.879-.769-.25-1.568-1.294-.915-1.26-1.062.25-1.076.962-.008 1.75-.482 1.75-1.053s-1.208-.908-2.683-.75c-1.986.213-2.831-.24-3.25-1.741-.345-1.235-1.23-1.895-2.262-1.687m-31.398 2.318c-1.046 1.157-3.218 2.783-4.826 3.615-3.436 1.777-2.448 2.668 4.169 3.758 2.825.466 4.25.336 4.25-.387 0-.598 1.094-1.088 2.431-1.088 2.206 0 9.436-3.797 9.519-5 .081-1.179-4.85-2.7-5.771-1.779-.619.619-1.695.573-3.006-.128-2.984-1.597-4.629-1.352-6.766 1.009m21.564 23.983c-.809 1.146-2.786 2.772-4.392 3.614-2.742 1.435-2.803 1.596-1 2.608 2.325 1.305 8.398 1.312 9.283.011 1.338-1.966 9.573-1.543 12.067.62 3.243 2.813 4.82 2.588 4.827-.688.008-3.176-1.616-4.611-3.472-3.07-1.217 1.01-1.789.019-1.402-2.43.065-.413-.557-.75-1.382-.75-.825 0-1.5.45-1.5 1 0 1.606-4.005 1.15-4.65-.53-.358-.934-1.287-1.307-2.384-.959-.989.314-2.087.102-2.441-.47-.961-1.555-1.92-1.273-3.554 1.044M133.58 489.912c-4.376 4.835 1.558 12.193 6.973 8.645 4.508-2.954 2.184-10.557-3.227-10.557-1.109 0-2.794.86-3.746 1.912" fill="#d3d3d3" fill-rule="evenodd"/></svg>