<svg xmlns="http://www.w3.org/2000/svg" width="500" height="387"><path d="M0 193.508v193.508l250.25-.258 250.25-.258.253-193.25L501.005 0H0v193.508m.49.492c0 106.425.117 149.963.26 96.75.143-53.212.143-140.287 0-193.5C.607 44.038.49 87.575.49 194M22.75 7.784L12 8.068l.015 177.216c.009 97.469.346 177.699.75 178.289.404.59 1.635 1.428 2.735 1.862 1.1.434 106.259.931 233.688 1.105 210.22.286 231.809.169 233-1.266 1.53-1.842 2.43-105.376 2.276-261.651-.088-89.643-.157-92.925-1.969-94.25-1.575-1.152-31.445-1.377-185.436-1.4C196.101 7.959 95.5 7.846 73.5 7.723c-22-.122-44.837-.095-50.75.061m161.683 27.531c-.32.834-1.838 1.21-4.15 1.028-2.005-.158-4.234.201-4.952.798-.974.807-1.465.672-1.926-.528-.848-2.21-2.405-2.034-2.405.27 0 2.156 2.607 3.143 5.516 2.088 1.091-.396 2.735-.33 3.653.147 1.078.559 1.808.452 2.059-.303.215-.643.906-.85 1.537-.46.631.39.895 1.367.587 2.171-.309.805-.933 1.233-1.388.952-.454-.281-1.108-.053-1.454.506-.76 1.23-1.273 1.185 15.83 1.377 7.613.086 14.022-.138 14.245-.498.616-.996-1.837-1.67-4.87-1.337-1.493.164-2.715-.073-2.715-.527s-1.264-.348-2.809.235c-3.297 1.245-10.184.213-10.206-1.529-.011-.841-.271-.802-.861.129-.673 1.062-.978.99-1.492-.351-.559-1.456-.033-1.637 3.861-1.327 5.295.421 5.726-.401 1.353-2.583-3.616-1.804-5.239-2.018-4.346-.573.34.55.141 1-.441 1S188 35.55 188 35c0-1.478-2.98-1.215-3.567.315m31.817.419c-1.328.891-2.25 1.071-2.25.438 0-1.202-10.819-1.02-12.819.216-1.54.952-.411 2.914 1.298 2.258.703-.269 1.782.015 2.399.632.829.829 1.122.792 1.122-.143 0-.888 1.335-1.154 4.476-.891 5.752.483 6.589 1.412 3.509 3.901l-2.485 2.008 2.75-.438c1.512-.241 2.75-.112 2.75.285 0 .397 1.125.508 2.5.245 1.643-.314 2.5-.027 2.5.838 0 1.01.275 1.042 1.176.141.859-.859 1.534-.88 2.5-.078.965.801 1.324.794 1.324-.024 0-1.331 3.638-1.517 4.435-.227 1.402 2.268-14.189 3.985-15.67 1.726-.51-.778-.739-.721-.75.188-.008.72-.465 1.031-1.015.691-.55-.34-1-.141-1 .441 0 .617 2.296 1.059 5.5 1.059 3.125 0 5.5.447 5.5 1.035 0 .713.601.714 1.928.004 3.026-1.62 5.748-.201 3.131 1.632-1.117.783-2.6 1.349-3.295 1.258-2.611-.342-3.86.106-3.214 1.152.368.595 1.693.824 2.945.51 1.468-.369 2.76.024 3.641 1.106 1.186 1.459 1.144 1.595-.322 1.046-.928-.347-3.403.226-5.5 1.273-2.098 1.047-3.139 1.97-2.314 2.05.825.081 2.361.211 3.412.29 1.052.079 2.102.707 2.334 1.394.412 1.223-1.414 1.728-5.08 1.405-1.072-.094-1.661.36-1.416 1.092.251.752 1.684 1.123 3.584.928 1.794-.185 3.166.14 3.166.75 0 .591.702 1.075 1.559 1.075.87 0 1.262.481.885 1.09-.411.666-2.031.835-4.164.435-2.647-.497-3.383-.337-3.049.66.243.723 1.077 1.356 1.855 1.406.778.051 2.719.454 4.315.897 1.741.483 3.57.387 4.574-.24 1.016-.635 8.221-.987 18.349-.897 10.163.091 16.553-.222 16.359-.801-.174-.523-4.674-.932-10-.909-5.326.023-9.683-.337-9.683-.799 0-.463-.927-.842-2.059-.842-1.132 0-1.781.45-1.441 1 .373.603-.97 1-3.382 1-2.2 0-4.308-.498-4.684-1.107-.496-.803-.878-.793-1.389.034-.864 1.397-3.712.452-3.712-1.232 0-.889 3.65-1.273 13.46-1.416 7.402-.109 13.727-.466 14.054-.793.885-.885-2.087-2.456-3.267-1.726-1.897 1.172-8.547.769-9.052-.548-.272-.708.132-1.528.898-1.822 1.035-.397 1.176-1.29.549-3.475l-.843-2.941 6.935.263c4.299.163 6.802-.117 6.585-.737-.193-.55-2.709-.864-5.593-.697-3.717.215-5.039-.027-4.542-.831.438-.709.004-1.061-1.158-.938-2.94.311-4.359.032-4.359-.855 0-.452 2.137-.849 4.75-.882 7.46-.094 8.634-.247 7.862-1.019-.397-.397-1.935-.747-3.417-.779-1.482-.032-3.308-.44-4.057-.907-.784-.488-1.632-.433-2 .13-.802 1.23-11.138 1.392-11.138.175 0-.493-.338-.844-.75-.779-2.711.428-3.549-.179-1.907-1.38.949-.694 3.96-1.218 6.691-1.165 2.732.054 4.966-.278 4.966-.738 0-.459-1.537-.835-3.417-.835-1.879 0-3.645-.562-3.924-1.25-.401-.991-.695-.984-1.413.034-.498.706-1.623 1.009-2.499.673-1.814-.697-3.185-3.457-1.716-3.457.533 0 .969.439.969.975 0 .634.898.634 2.565 0 1.411-.536 4.223-.993 6.25-1.015l3.685-.04-2.833-1.535c-1.558-.845-3.47-1.291-4.25-.992-.779.299-1.417.17-1.417-.288 0-.953-2.739-.81-5.101.265-.88.401-2.005.618-2.5.482-.494-.137-1.933.103-3.197.532-1.42.483-2.848.325-3.737-.413-.792-.657-2.091-.945-2.888-.639-.796.306-1.589.181-1.762-.276-.173-.458-1.327-.153-2.565.678m73.251 56.265c-.828.915-1.207 1.962-.843 2.326.365.365-.154 1.565-1.152 2.669-1.867 2.062-.781 2.881 1.198.902.791-.791 1.626-.799 2.95-.03 1.746 1.015 1.734 1.075-.217 1.104-1.135.016-3.356 1.38-4.937 3.03-1.581 1.65-2.34 3-1.687 3 .653 0 1.074.563.937 1.25-.148.74.974 1.346 2.75 1.484 2.822.221 2.862.176.666-.748-3.626-1.528-2.02-3.453 3.162-3.791 2.57-.167 4.729-.617 4.8-1 .724-3.948.354-5.91-1.406-7.436-1.115-.967-1.622-1.793-1.125-1.836 4.537-.384 7.01-1.879 3.32-2.006a74.692 74.692 0 0 1-4.663-.333c-1.236-.137-2.925.499-3.753 1.415m-73.595 60.465c-10.398 3.828-16.249 10.5-15.707 17.912l.301 4.124 5 .108c4.488.096 4.565.065.75-.308-3.957-.386-4.25-.62-4.25-3.397 0-2.745 3.393-10.903 4.534-10.903.272 0 1.825 1.463 3.451 3.25 2.824 3.104 2.958 3.146 2.986.941.016-1.27-.39-2.05-.903-1.733-.512.316-1.651-.445-2.53-1.691-1.5-2.126-1.463-2.379.596-4.061 1.208-.986 2.767-1.574 3.466-1.306.699.268 1.432.003 1.63-.589.798-2.395 4.682.408 6.212 4.485 1.407 3.748 1.525 3.852 1.093.954-.527-3.532.716-4.29 2.459-1.5.861 1.379.952 1.008.428-1.75-.366-1.925-1.063-3.651-1.55-3.835-.486-.185-.63-.747-.319-1.25.808-1.308-3.43-1.003-7.647.549m50.107 19.568c-3.018 2.183-6.393 3.961-7.5 3.953-1.666-.013-1.754-.183-.513-.985 6.306-4.075-16.22 4.309-24.008 8.936-6.988 4.151-18.958 15.524-18.98 18.032-.019 2.331 5.021 6.032 8.215 6.032 2.592 0 2.749.167 1.416 1.5-.825.825-1.982 1.5-2.572 1.5-.589 0-1.071.477-1.071 1.059s.338.899.75.703a345.15 345.15 0 0 0 3.49-1.723c2.394-1.194 2.973-1.156 4.579.297 2.823 2.555 3.571 1.975 1.254-.971-3.729-4.739-2.739-6.87 4.3-9.266 3.065-1.042 4.034-1.059 4.639-.08.42.68 1.265.928 1.876.55.612-.378 1.112-.24 1.112.306 0 .545-1.238 1.18-2.75 1.409-1.512.229.625.482 4.75.562 11.945.232 18.452-5.221 13.242-11.096-.854-.963-2.356-1.75-3.338-1.75-.982 0-2.018-.375-2.301-.833-.283-.459-1.997-.657-3.809-.442-3.91.464-4.29.852 9.232-9.427 12.288-9.341 15.702-12.225 14.474-12.23-.55-.002-3.469 1.782-6.487 3.964m26.147 9.199c-.15 5.387-.325 5.767-2.91 6.333-5.505 1.207-5.819 1.467-3.293 2.737 8.065 4.054 1.595 19.929-10.426 25.579-6.718 3.158-23.531 3.161-23.531.003 0-1.723-.468-2.027-2.524-1.634-1.388.266-2.765.093-3.059-.383-.294-.476-1.711-.866-3.147-.866-1.437 0-3.506-.787-4.598-1.75-1.917-1.689-1.966-1.672-1.424.495.498 1.989.26 2.184-2.093 1.703-2.181-.446-1.978-.169 1.137 1.55 2.086 1.151 4.296 3.198 4.911 4.548.937 2.057 1.821 2.454 5.458 2.454 4.217 0 4.341.091 4.397 3.25.031 1.787.464 5.05.962 7.25.715 3.165.795 2.487.381-3.25-.486-6.747-.384-7.25 1.469-7.25 1.27 0 2.148.815 2.424 2.25.426 2.211.436 2.208.57-.136.128-2.251.399-2.35 4.776-1.75 2.551.35 5.251.636 6 .636.748 0 1.36.8 1.36 1.777 0 .978.701 2.779 1.558 4.002.857 1.224 1.28 2.674.941 3.223-.746 1.207 6.277 1.239 12.001.055 3.3-.682 3.508-.847 1.184-.942-1.548-.063-3.686-.581-4.75-1.15-1.522-.815-1.934-.708-1.934.5 0 .971-.919 1.535-2.5 1.535-1.375 0-2.503-.562-2.506-1.25-.004-.687-.687-2.554-1.518-4.149-1.738-3.332-1.84-3.112 1.858-4 1.67-.402 2.597-.299 2.258.25-.552.893 3.471 1.896 9.961 2.484 1.68.152 4.142 1.039 5.473 1.971 1.33.931 3.106 1.762 3.947 1.844.84.083-.498.465-2.973.85-4.058.631-3.766.714 2.973.85 7.245.145 7.4.099 5.09-1.519l-2.383-1.669 2.316-.856c2.188-.81 2.217-.93.509-2.179-1.375-1.005-1.506-1.509-.545-2.102.732-.452 1.615-.213 2.097.568.459.742 1.087 1.096 1.396.788.927-.927-5.293-8.813-8.48-10.751-1.631-.992-2.63-2.158-2.219-2.591.41-.433-.266-.476-1.504-.096-1.831.563-2.25.307-2.25-1.376 0-1.137.45-2.067 1-2.067s1 .436 1 .969c0 .532.675.709 1.5.393.825-.317 1.5-.051 1.5.59s.403.917.895.613c.493-.305 1.153.119 1.469.941.645 1.68 2.636 2.042 2.636.479 0-.558-1.264-1.795-2.808-2.75-2.306-1.425-2.682-2.182-2.1-4.235.417-1.471.75-1.804.808-.809.055.93.626 2.016 1.27 2.414.791.489.953.185.5-.941l-1.293-3.205c-.342-.847-.23-1.469.25-1.381 3.049.556 3.288.081 6.063-12.078.314-1.375 1.217-3.243 2.006-4.151.991-1.141 1.097-1.859.343-2.325-.601-.371-1.027-1.203-.947-1.849.335-2.712-.248-3.342-3.092-3.342-2.886 0-3.518.888-3.092 4.342.08.646-.317 1.46-.881 1.809-.565.349-1.027.131-1.027-.484s-.421-.858-.935-.54c-.515.318-1.118-.893-1.34-2.691-.253-2.038-.465-1.111-.565 2.462m-44.921-1.329c-8.954 3.117-14.122 6.152-22.181 13.028-4.858 4.144-8.816 9.646-7.725 10.737.614.613 5.896-2.112 10.703-5.522a342.43 342.43 0 0 1 5.968-4.145c1.233-.825 2.861-2.095 3.619-2.821.757-.727 1.377-1.027 1.377-.667 0 .677 15.369-9.71 17.964-12.141 2.314-2.167-.27-1.76-9.725 1.531m-24.358 39.55c-.249.249-2.461.636-4.917.86-7.093.647-12.852 2.76-13.554 4.973-.443 1.396-.852 1.618-1.387.753-.986-1.596-6.232.995-8.462 4.179-1.989 2.839-1.961 3.34.189 3.419.963.035 2.875.291 4.25.568 1.375.277 1.852.295 1.059.04-1.53-.493 4.029-3.244 6.556-3.244 2.244 0 1.583 1.832-.787 2.18-1.194.176-2.366.91-2.603 1.63-.342 1.038 1.763 1.246 10.116 1 10.807-.318 12.71-1.566 3.996-2.622-4.557-.552-4.664-.629-1.837-1.343 1.997-.504 1.376-.579-1.857-.224-3.281.36-4.644.19-4.202-.525.388-.628 3.715-.964 8.187-.827 6.377.196 7.743-.057 8.905-1.645.937-1.282 2.177-1.721 3.919-1.388 1.401.267 2.548.099 2.548-.375 0-.473.338-.808.75-.743 1.833.29 3.25-.198 3.25-1.118 0-.55-.787-1.032-1.75-1.07-1.496-.06-1.46-.195.25-.93 1.751-.752 1.778-.868.219-.93-.98-.038-2.041-.745-2.357-1.57-.539-1.404-9.254-2.275-10.481-1.048" fill="#d3d3d3" fill-rule="evenodd"/></svg>