<svg xmlns="http://www.w3.org/2000/svg" width="500" height="667"><path d="M367.594 100.75c-.335 3.713-1.511 22.725-2.613 42.25-1.103 19.525-2.286 36.85-2.63 38.5-.344 1.65-.727 4.736-.853 6.857-.125 2.122-.796 4.209-1.491 4.639-.695.429-.952 1.284-.572 1.899.381.616-.009 1.388-.866 1.717-.857.329-1.338.953-1.069 1.388.269.435-.198 1.054-1.038 1.376-1.011.388-1.844-.251-2.469-1.895-.952-2.502-2.993-3.433-2.993-1.364 0 .615-.877.887-1.952.606-1.074-.281-2.091-.093-2.262.418-.17.51-1.204.265-2.298-.545-1.694-1.256-1.804-1.776-.741-3.517 1.12-1.834.967-2.109-1.5-2.699-1.511-.36-3.281-1.075-3.934-1.588-.653-.513-3.065-1.066-5.359-1.23-2.295-.163-4.461-.694-4.813-1.179-.353-.486-3.685-.883-7.406-.883h-6.766l.669-15.75.669-15.75-3.404.012c-1.871.007-18.253.905-36.403 1.996-18.15 1.09-34.633 1.985-36.628 1.987l-3.629.005-.737 17.75c-.405 9.762-.928 20.675-1.162 24.25-.235 3.575-.417 7.468-.405 8.65.025 2.472-1.815 3.476-7.366 4.017-4.259.415-6.573 1.799-6.573 3.931 0 1.014-.6 1.124-2.397.441-1.319-.501-2.686-.622-3.04-.269-.353.354-.902-.35-1.219-1.564-.804-3.072-4.771-2.87-8.051.41l-2.616 2.616-1.294-2.471c-1.046-1.996-2.458-2.658-7.339-3.444-3.324-.536-6.044-.689-6.044-.341 0 .348-1.895.745-4.211.881-2.317.137-4.826.759-5.577 1.382-1.035.859-1.584.786-2.273-.303-.5-.79-.915-.933-.924-.318-.022 1.595-7.795 2.429-10.902 1.17-3.594-1.456-10.472-1.826-11.227-.604-.393.636-1.746.422-3.69-.583-3.007-1.554-6.196-1.284-6.196.526 0 .501-1.012.722-2.25.489-5.131-.963-7.75-1.884-7.75-2.724 0-.491-.663-.892-1.474-.892-.811 0-4.914-1.367-9.119-3.037-6.838-2.716-7.873-2.888-9.802-1.624-1.197.784-6.372 1.74-11.631 2.148-7.474.58-9.865 1.148-11.325 2.69-1.017 1.076-2.129 1.676-2.471 1.335-.341-.342-.033-.984.685-1.427 1.018-.629.939-.947-.361-1.446-2.295-.881-2.722-.804-2.002.361.34.55.141 1-.441 1S83 210.235 83 209.3c0-1.322-.267-1.433-1.2-.5-1.311 1.311-3.201 1.658-2.455.45.255-.412-1.043-.835-2.886-.939-2.702-.152-3.23.121-2.734 1.414.446 1.164.245 1.374-.734.769-1.279-.79-3.942-.838-13.74-.249-4.425.266-5.419 1.093-2.608 2.172.904.346 1.396.878 1.093 1.18-.303.303-1.902-.149-3.555-1.003-2.937-1.519-14.264-1.453-18.181.106-.825.329-2.481.502-3.679.386-1.867-.18-2.278.444-2.864 4.351-.783 5.225 3.042 58.462 4.291 59.711.453.453 4.858.174 9.788-.62C52.502 275.084 166.947 259 168.257 259c.381 0 .228 1.225-.341 2.721-.714 1.878-.703 12.65.034 34.75 1.006 30.152 3.034 85.377 3.582 97.529.136 3.025.563 15.175.949 27l.701 21.5-5.341-5.132c-6.786-6.52-7.841-6.146-7.841 2.781 0 8.435.092 8.618 11.019 21.823 7.669 9.269 28.284 34.654 74.981 92.331 17.891 22.097 19.783 22.169 20.041.762.121-9.999 1.362-17.065 2.998-17.065.528 0 .961-.983.961-2.186 0-1.202 1.012-3.299 2.25-4.66 1.793-1.972 1.895-2.347.5-1.846-.962.346-1.75.193-1.75-.339 0-.533.45-.969 1-.969s1-.477 1-1.059-.45-.781-1-.441-1 .25-1-.2c0-.451.9-1.381 2-2.068s2-2.131 2-3.209c0-1.338.48-1.776 1.511-1.38 1.082.415 1.336.121.893-1.032-.417-1.086-.073-1.611 1.056-1.611 1.236 0 1.528-.59 1.117-2.25-.307-1.237-.309-1.715-.005-1.061.384.823 1.293.546 2.957-.901 1.321-1.149 2.167-2.472 1.878-2.939-.289-.467.387-.849 1.503-.849 1.283 0 1.839.492 1.513 1.34-.904 2.356 1.987 3.834 3.321 1.698.923-1.478.863-1.975-.291-2.418-2.247-.862-1.716-2.618.797-2.635 1.819-.013 1.963-.201.75-.985-1.295-.837-1.271-.971.177-.985.922-.008 1.87.547 2.106 1.235.237.688.318.487.182-.445-.154-1.047.57-1.854 1.893-2.113 1.597-.313 1.398-.454-.782-.556l-2.925-.136 2.349-2.5c2.516-2.678 4.981-3.291 5.03-1.25.017.688.519.409 1.117-.619.823-1.417.755-2.079-.281-2.735-1.005-.637-.771-.869.884-.881 1.286-.008 2.25-.633 2.25-1.458 0-.966 1.326-1.544 4.018-1.75 2.209-.169 4.09-.757 4.178-1.307.189-1.171 2.379-3.5 3.292-3.5.346 0 .384.399.082.886-.301.488.332 1.117 1.406 1.398 1.821.476 2.833-.766 3.083-3.784.148-1.778 2.412-2.379 9.783-2.594 3.976-.116 7.454-.575 7.729-1.02.275-.445 1.647-.374 3.048.159 1.402.533 2.91.746 3.352.473.441-.273 1.351.165 2.021.972.862 1.04 1.733 1.193 2.982.524.969-.519 2.047-.659 2.395-.312.347.347.631.056.631-.646 0-.703.885-.215 1.967 1.083 1.081 1.299 1.981 1.873 2 1.278.041-1.33 3.033-1.462 3.033-.134 0 .523 1.16.728 2.579.457 1.661-.317 2.771.009 3.121.919.458 1.196.909 1.172 2.931-.153 1.855-1.215 2.852-1.318 4.458-.458 1.137.608 4.395 1.792 7.24 2.629 4.917 1.449 15.088 6.442 17.121 8.405 1.376 1.329 6.303 1.127 7.182-.295.675-1.092 3.174-39.502 3.312-50.911l.056-4.624-12.25-7.831c-6.738-4.308-25.75-16.594-42.25-27.302-16.5-10.709-32.402-20.939-35.338-22.733l-5.338-3.262 3.838-1.011c2.111-.556 14.413-3.52 27.338-6.586 12.925-3.067 27.484-6.529 32.353-7.694 6.255-1.496 9.053-1.794 9.536-1.013.375.607.084 9.713-.648 20.236-1.681 24.197-1.691 24.18 12.144 19.907 5.152-1.592 6.697-2.522 7.058-4.25.533-2.552 1.59-16.091 9.113-116.688 3.022-40.411 5.82-73.758 6.219-74.103.399-.346 8.15-1.388 17.225-2.316 22.17-2.266 22-2.226 22-5.302 0-2.495-.105-2.53-6.431-2.127-3.537.225-6.211.052-5.941-.384.269-.436.051-.793-.486-.793-.536 0-1.125.401-1.309.892-.183.49-3.708 1.182-7.833 1.536-4.125.355-8.354.905-9.398 1.223-1.657.504-1.82.189-1.284-2.492.476-2.381.3-2.95-.784-2.534-.875.336-2.035-.692-3.096-2.745-2-3.868-1.889-6.443 2.618-60.88 1.616-19.525 2.94-36.287 2.941-37.25.003-1.627-2.063-1.75-29.396-1.75h-29.398l-.609 6.75m18.816 134.015c-1.171.79-1.946 10.689-5.918 75.587-1.375 22.469-2.733 41.228-3.017 41.689-.285.46-3.071 2.297-6.191 4.083-3.121 1.785-5.248 3.388-4.727 3.562 2.022.674 17.838-3.378 18.538-4.749.403-.79 2.163-25.287 3.912-54.437 1.748-29.15 3.427-56.037 3.731-59.75l.552-6.75-2.895.015c-1.592.009-3.385.346-3.985.75m-85.912 156.583c-6.249 1.799-6.498 2.156-6.498 9.328 0 6.336.076 6.534 2.25 5.872 1.238-.376 4.5-1.225 7.25-1.886l5-1.202.296-6.73c.334-7.602.051-7.785-8.298-5.382" fill="#d3d3d3" fill-rule="evenodd"/></svg>