<svg xmlns="http://www.w3.org/2000/svg" width="500" height="782"><path d="M168.073 209.635c-1.14 1.449-2.073 3.281-2.073 4.071 0 .79-.675 2.112-1.5 2.937-.825.825-1.5 1.109-1.5.632s-1.238-.822-2.75-.765c-1.512.056-3.312-.315-4-.826-.964-.716-1.22.302-1.118 4.444.121 4.941.19 5.091.868 1.872l.737-3.5.131 3.643c.079 2.177.72 3.869 1.595 4.204 1.541.592-1.974 9.643-3.748 9.65-.432.002-.291-.921.313-2.049.604-1.129.897-2.817.651-3.75-.292-1.108-.498-.829-.593.802-.125 2.122-.294 2.247-1.122.829-.536-.919-.909-3.169-.829-5 .309-7.047-2.747-16.829-5.257-16.829-1.13 0-1.069 11.631.13 24.943.851 9.443.739 11.069-1.172 17A21196.49 21196.49 0 00141.989 267c-1.504 4.675-3.74 12.325-4.97 17-1.229 4.675-3.129 11.492-4.22 15.149-2.162 7.242-2.112 9.917.201 10.681 1.179.389 1.256.193.358-.917-.876-1.083-.525-3.564 1.5-10.617 3.014-10.5 4.373-12.601 6.085-9.403.62 1.159.895 2.107.611 2.107-.284 0 1.05 2.85 2.965 6.333 1.915 3.483 3.481 7.083 3.481 8 0 .917.375 1.667.833 1.667.459 0 2.363 3.375 4.233 7.5 1.87 4.125 3.745 7.5 4.167 7.5.422 0 .767.45.767 1 0 1.393-3.347 1.253-4.8-.2-.66-.66-1.2-.838-1.2-.396 0 .442 2.665 3.412 5.922 6.599 6.541 6.4 7.411 7.834 13.244 21.83 6.582 15.79 7.139 18.053 5.183 21.038-1.67 2.549-3.245 11.285-1.779 9.866.434-.419 2.171-3.56 3.859-6.979 2.124-4.299 3.996-6.659 6.071-7.65a957.59 957.59 0 004.791-2.304c.985-.479 2.242-.593 2.793-.252.552.341 1.547.169 2.212-.383 1.766-1.465 10.503-1.227 12.06.33.732.732 2.776 1.559 4.54 1.837 1.765.278 3.789.988 4.498 1.576.71.589 1.579.782 1.932.428.354-.353-.138-1.235-1.092-1.959-1.417-1.077-1.46-1.329-.234-1.381 2.503-.106-2.022-3-4.691-3-1.27 0-2.309-.45-2.309-1s-.675-1-1.5-1-1.5-.45-1.5-1c0-1.562-3.997-1.172-4.62.451-.366.956-1.715 1.359-3.951 1.183-4.311-.339-5.242-1.242-2.254-2.187 1.279-.404 3.675-1.757 5.325-3.007 2.99-2.266 8.173-2.404 9.58-.257.691 1.054 3.92-.009 3.92-1.29 0-.491.498-.893 1.106-.893.608 0 1.991-1.125 3.073-2.5 1.132-1.44 2.995-2.5 4.394-2.5 1.388 0 2.427-.586 2.427-1.37 0-.845 1.054-1.344 2.75-1.301 6.17.156 10.25-1.412 10.25-3.94 0-1.457.585-2.389 1.5-2.389.825 0 1.5-.477 1.5-1.059s.478-.763 1.063-.402c1.243.768 4.937-2.284 4.937-4.079 0-.676 1.192-2.011 2.648-2.965 2.59-1.697 2.636-1.689 2.094.385-.305 1.166-.147 2.12.352 2.12.912 0 1.283-1.428.978-3.763-.091-.695.53-1.531 1.381-1.857.851-.327 1.547-1.194 1.547-1.928 0-1.543-4.72.477-6.016 2.574-.394.637-2.391 1.383-4.439 1.659l-3.723.502 3.238-3.093c1.78-1.702 3.957-3.101 4.838-3.109 1.391-.014 1.406-.14.112-.958-1.006-.636-2.234-.455-3.779.557-1.258.825-2.725 1.229-3.259.899-.535-.331-.972.101-.972.958 0 .892-.855 1.559-2 1.559-1.1 0-2 .477-2 1.059s-.478.763-1.063.402-1.822-.016-2.75.768c-.928.784-4.574 2.872-8.103 4.639-6.955 3.483-8.039 3.199-8.069-2.118-.01-1.917-.545-2.773-1.765-2.827-.963-.042-2.65-.269-3.75-.506-3.96-.851-13.272-1.528-28.317-2.059-12.659-.446-15.017-.759-13.592-1.801 1.608-1.176 1.516-1.762-1.358-8.646-3.114-7.458-2.956-9.128.794-8.406 7.38 1.421 17.499-.205 12.723-2.045-.963-.371-2.381-.432-3.151-.136-1.505.577-2.998-2.959-1.612-3.816.44-.272 2.607.143 4.816.923 2.209.779 4.243 1.189 4.521.912.278-.278 1.407-.022 2.51.568 1.492.799 2.133.755 2.506-.169.398-.984.519-.982.581.008.043.688.754 1.25 1.579 1.25 3.979 0 .883 2.015-3.25 2.115-2.613.064-5.2.22-5.75.348-.55.128-1.45.334-2 .459s3.05 1.119 8 2.209c10.064 2.217 21.215 3.139 22.029 1.822.294-.476 1.308-.569 2.253-.205 1.423.546 1.288.769-.782 1.292-3.451.873 6.959 3.101 15.198 3.252 3.943.073 5.369.384 4.153.907-1.118.481-.514.557 1.524.192 2.338-.419 3.165-.265 2.691.502-.451.73.528 1.107 2.875 1.107 1.957 0 3.559-.419 3.559-.93 0-.512 1.012-1.075 2.25-1.25 2.617-.372 3.101-3.387.511-3.183-.974.077-1.456-.321-1.096-.904.36-.582.164-.746-.441-.371-1.789 1.105-2.222-.743-2.321-9.901-.068-6.305.279-8.961 1.251-9.577.999-.633 1.023-.857.096-.869-.687-.008-1.25-.807-1.25-1.774 0-.968-.862-2.298-1.915-2.956-1.793-1.12-1.825-1.5-.492-5.927 1.116-3.709 1.158-4.894.193-5.49-.901-.557-.771-.936.486-1.419.944-.362 1.468-1.061 1.163-1.554-.304-.492.149-.895 1.006-.895s1.559-.477 1.559-1.059-.45-.781-1-.441c-1.725 1.066-1.105-.488 1.992-4.989 2.037-2.96 2.596-4.483 1.75-4.768-.962-.324-.933-.792.13-2.08 1.164-1.41 1.164-1.681 0-1.778-.754-.064-1.822-.22-2.372-.348-.55-.128-1.45-.308-2-.4-3.345-.561-3.776-1.941-1.574-5.034 3.114-4.372.759-3.858-4.026.879-2.212 2.19-5.612 4.736-7.554 5.658-3.074 1.459-3.461 2.035-2.981 4.436.375 1.873-.077 3.56-1.406 5.25-1.078 1.369-1.959 2.887-1.959 3.374 0 .486-1.942 2.79-4.316 5.12l-4.316 4.236-1.286-2.403c-.963-1.799-1.009-2.921-.184-4.462 1.87-3.495 1.212-3.841-1.313-.691-1.323 1.65-2.754 2.655-3.179 2.233-.425-.421-.24-1.299.411-1.95.65-.65 1.183-1.633 1.183-2.183 0-.556-.533-.467-1.2.2-2.297 2.297-4.085 1.443-3.243-1.55 2.061-7.325.896-11.303-2.357-8.05-1.702 1.702-1.487 2.847.399 2.124 1.4-.538 1.432-.347.259 1.531-1.612 2.582-3.04 2.841-2.179.395.502-1.429.368-1.52-.732-.5-3.578 3.32-3.857.484-.447-4.535 1.375-2.024 2.5-4.25 2.5-4.947 0-1.594-3.633-1.671-4.605-.098-.486.787-.178.961.941.531 2.382-.914 2.108 1.588-.426 3.881-2.003 1.812-2.146 1.816-3.399.102-.994-1.359-1.454-1.476-1.912-.487-.331.717-.343-.497-.026-2.697 1.292-8.971 9.084-18.5 15.128-18.5 2.119 0 4.742-.591 5.826-1.314 1.085-.723 3.548-1.404 5.473-1.513 6.073-.347 12.909-3.365 15.595-6.886 1.379-1.808 1.981-3.287 1.339-3.287-.675 0-.947-.843-.644-2 .388-1.483.03-2-1.384-2-2.566 0-3.455.352-3.156 1.25.138.412-.452.75-1.309.75s-1.281-.45-.941-1c.34-.55.214-1-.28-1-1.352 0-3.249 4.761-2.586 6.488.369.963-.004 1.512-1.027 1.512-.913 0-1.607-.822-1.607-1.902 0-3.126-6.038-4.746-8.126-2.18-.894 1.098-1.979 1.679-2.41 1.289-.432-.389-.459-.141-.061.55.829 1.441-1.68 2.64-6.622 3.166-.395.043-.483.689-.196 1.438.399 1.04 4.915 1.676 4.915.692 0-.111 1.125-.394 2.5-.63 1.91-.328 2.146-.196 1 .559-1.259.829-1.192.99.417 1.003 3.352.026 1.244.838-3.685 1.418-4.863.572-10.732 3.007-10.732 4.454 0 .443-1.089 1.388-2.42 2.1-1.39.744-2.196 1.88-1.893 2.669.29.756.004 1.374-.636 1.374-1.025 0-3.403 4.554-5.47 10.472-.536 1.534-.874 1.672-1.523.622-.48-.778-1.368-1.021-2.091-.573-.927.573-1.124.082-.751-1.872.279-1.457.119-2.649-.355-2.649-1.361 0-1.009-2.879.837-6.849 2.088-4.491 3.302-5.387 5.206-3.844 1.223.993 1.349.87.749-.727-.442-1.177-.224-2.235.563-2.735 1-.634 1.007-.818.034-.83-2.132-.026-1.377-3.797 1.295-6.47 1.496-1.495 2-2.545 1.223-2.545-.728 0-2.094-.9-3.036-2-2.997-3.501-3.739-2.383-3.253 4.903.34 5.1.099 7.202-.92 8.048-1.886 1.566-2.61.125-2.722-5.413-.079-3.951-1.682-6.685-1.927-3.288-.05.688-.529-.274-1.064-2.136-.727-2.528-1.262-3.098-2.11-2.25-1.284 1.284-2.838 1.521-2.538.386.526-1.991-1.483-5.355-2.879-4.819-.825.316-2.021.253-2.659-.141-.637-.394-2.397-.586-3.909-.428-3.034.318-3.284-.375-1.644-4.547 3.291-8.37 2.876-10.651-1.034-5.68M308 208.607c0 1.156-.491 1.392-1.75.839-4.667-2.046-13.103-.452-12.507 2.364.133.63-1.17 1.876-2.896 2.769-5.764 2.981 1.73 4.494 12.153 2.453 2.475-.485 4.872-.52 5.327-.08 1.34 1.299-1.526 9.287-3.518 9.808-.983.257-1.497.936-1.143 1.508.354.573.192.762-.36.421-.913-.564-5.306 2.675-5.306 3.913 0 .288.88.383 1.955.211 1.641-.263 2.363.267 1.959 1.437-.048.137-.219 2.275-.381 4.75s-1.473 7.143-2.913 10.374c-1.441 3.231-2.62 6.719-2.62 7.75 0 1.032-.45 1.876-1 1.876s-1 .873-1 1.941-.487 2.242-1.081 2.609c-.673.416-.956-.112-.75-1.395.38-2.37-.082-2.553-4.186-1.651-3.593.789-4.046 2.422-.483 1.741 1.833-.351 2.5-.047 2.5 1.138 0 .89.552 1.505 1.226 1.367.675-.137 1.369.875 1.544 2.25.221 1.744.043 2.097-.588 1.165-.706-1.041-1.016-.907-1.413.609-.279 1.068-1.916 2.566-3.638 3.328-1.722.763-3.131 1.687-3.131 2.054 0 .367-1.125.544-2.5.393-1.375-.15-2.5.163-2.5.698 0 .574 1.533.7 3.75.308 2.063-.365 5.008-.752 6.545-.86 2.477-.173 2.976-.818 4.39-5.683.877-3.018 1.946-6.168 2.375-7 .429-.832 1.8-4.212 3.046-7.512 1.246-3.3 2.838-6.349 3.538-6.776.7-.427 1.018-1.44.707-2.25-.311-.811-.067-1.474.542-1.474s1.107-1.364 1.107-3.031c0-1.767.623-3.271 1.494-3.605.822-.316 1.214-1.027.872-1.581-.342-.553-.14-1.305.449-1.669 1.048-.647 1.54-2.42 4.584-16.499 1.461-6.755 1.447-6.92-.705-8.717-2.73-2.279-3.694-2.355-3.694-.291M167.987 280.34c-.818.638-1.535 1.835-1.593 2.66-.059.825-.444 3.019-.857 4.875-.582 2.616-.464 3.198.526 2.586.893-.552 1.095-.316.673.785-.376.98.291 2.245 1.77 3.356 1.306.98 2.107 2.216 1.78 2.745-.351.568-.059.631.714.153.866-.535 1.068-.418.595.345-.422.685-.078 1.155.846 1.155.857 0 1.559-.505 1.559-1.122 0-.776.464-.738 1.5.122 2.261 1.876 1.802-.417-.5-2.5-2.149-1.944-2.642-4.985-.976-6.015 1.495-.924.558-5.985-1.108-5.985-.779 0-1.872-.972-2.429-2.16-.812-1.73-1.309-1.929-2.5-1m145.527 20.56c-.371 2.695-.383 7.195-.027 10 .461 3.626.306 5.1-.536 5.1-.682 0-.968.828-.674 1.952.281 1.074.154 2.086-.282 2.25-1.684.633-2.301 38.127-.663 40.298 2.106 2.79 31.928 2.859 47.168.109 5.5-.992 11.568-2.003 13.484-2.245 6.015-.761 8.345-2.96 7.642-7.212-.332-2.009-.609-4.89-.615-6.402-.006-1.512-.399-2.75-.872-2.75-.474 0-.657 1.072-.406 2.383.25 1.31-.059 2.7-.687 3.089-.854.527-.847 1.063.028 2.117.918 1.106.853 1.411-.302 1.411-.81 0-2.5-1.34-3.755-2.977-1.255-1.638-2.581-2.793-2.947-2.566-1.205.745-3.167-1.1-3.32-3.122-.082-1.091-.744-2.54-1.471-3.219-1.087-1.015-1.206-.514-.672 2.825.454 2.843.291 4.059-.547 4.059-.755 0-.952-.765-.534-2.082.554-1.746.29-2.028-1.642-1.75-1.469.212-2.508 1.21-2.871 2.758-.805 3.435-3.013 3.874-3.013.598 0-1.453-.401-2.394-.891-2.092-.489.303-1.625-.57-2.523-1.941-1.901-2.902-1.1-3.241 1.755-.741 1.864 1.632 1.956 1.635 1.372.032-.344-.945-.235-1.959.242-2.254.477-.295.716-1.322.532-2.282-.183-.96-.368-2.083-.41-2.496-.043-.413-.714-.75-1.494-.75-.779 0-1.643-.562-1.921-1.25-.403-1-.52-1-.583 0-.043.688-.781 1.25-1.638 1.25-.857 0-1.281.45-.941 1 .34.55.218 1-.272 1-1.986 0-3.608-4.838-2.193-6.542 1.051-1.267 1.072-1.774.098-2.376-.681-.421-1.102-1.174-.936-1.674.335-1.005-.436-1.408-2.697-1.408-.825 0-1.541.788-1.59 1.75-.05.962-.51.298-1.023-1.477-.795-2.753-4.262-5.964-5.887-5.454-.275.086-1.288-.093-2.25-.398-1.843-.585-2.465-3.421-.75-3.421.55 0 .887-.562.75-1.25-.141-.707.613-1.173 1.735-1.072 1.092.098 2.316-.352 2.72-1 .559-.898 1.214-.88 2.751.072 3.749 2.324 5.291 1.632 4.457-2-.41-1.788-.696-4.15-.635-5.25.06-1.1-1.027-3.35-2.416-5-2.185-2.594-2.439-2.695-1.877-.75.4 1.386.217 2.25-.477 2.25-.619 0-.848-.45-.508-1 .995-1.61-.365-1.16-3.501 1.159-1.606 1.187-2.641 2.65-2.299 3.25.341.6.251.756-.2.347-.451-.409-1.469.182-2.261 1.313-.793 1.132-2.52 2.468-3.84 2.969-1.319.502-2.399 1.362-2.399 1.912 0 .661.872.669 2.565.025 3.504-1.332 3.894-1.233 2.372.601-1.068 1.287-1.071 1.723-.016 2.375.901.557.96 1.004.196 1.477-1.216.752 1.296 3.893 3.883 4.856.981.365.71.585-.781.637-1.255.043-2.551-.622-2.879-1.478-.329-.857-1.201-1.327-1.937-1.044-.736.282-1.593.103-1.903-.399-.802-1.298-3.5-.059-3.5 1.607 0 .766-.477 1.393-1.059 1.393s-.738-.52-.346-1.155c.422-.681.277-.884-.353-.495-1.101.681-1.118-1.807-.019-2.906.337-.338.417-1.701.176-3.029-.274-1.511.037-2.421.831-2.43.888-.011.819-.34-.23-1.095-1.247-.897-1.191-.978.334-.484 2.13.692 2.176.832-2.18-6.656-4.079-7.011-4.778-7.117-5.64-.85m44.438 3.742c-3.899 3.647-4.72 4.932-3.835 6 .621.747.735 1.372.255 1.388-.479.017-.067.499.916 1.071.984.573 3.234.79 5 .483l3.212-.559-3 1.442c-1.827.879-2.339 1.46-1.309 1.488.93.025 1.992.532 2.359 1.126.402.65-.073.986-1.191.841-3.681-.475-7.523 1.176-6.263 2.693.632.762.806 1.385.387 1.385-.42 0-1.36-.788-2.091-1.75-1.18-1.555-1.332-1.332-1.36 2-.02 2.299-.516 3.762-1.282 3.782-.826.021-.711.445.338 1.25.873.67 1.362 1.893 1.087 2.718-.445 1.333-.294 1.333 1.354 0 1.451-1.173 1.671-1.194 1.008-.095-.527.875-.468 1.171.157.784 1.044-.645 5.306 2.756 5.306 4.233 0 .949 3.832 2.376 5.75 2.143.688-.084 1.25.344 1.25.95 0 .607.45.825 1 .485 1.237-.764 1.331-4.5.113-4.5-.487 0-1.12-1.238-1.406-2.75-.286-1.512-.868-3.871-1.293-5.241-.759-2.446-.729-2.462 1.656-.878 1.337.887 2.43 2.196 2.43 2.908 0 .712.537 1.473 1.193 1.692.656.219 1.179-.419 1.162-1.417-.017-.998.242-3.052.577-4.564.344-1.559.178-2.75-.384-2.75-.546 0-.84-1.788-.655-3.976.214-2.522-.035-3.745-.682-3.345-.561.346-.752.196-.424-.335.595-.962-4.82-13.344-5.836-13.344-.295 0-2.77 2.089-5.499 4.642M223.605 365.17c.486.787.178.961-.941.531-1.205-.462-1.664-.095-1.664 1.33 0 1.083.505 1.969 1.122 1.969.78 0 .746.455-.112 1.488-1.01 1.216-.895 1.613.627 2.169 2.258.825 9.483 8.343 8.018 8.343-.57 0-.164.661.904 1.468 1.067.808 1.418 1.483.779 1.5-.663.018-1.035 1.189-.866 2.725.208 1.9-.571 3.56-2.644 5.633-2.971 2.971-3.2 6.138-.366 5.05.971-.372 1.584.002 1.663 1.017.069.884.191 2.17.271 2.857.08.688-.538 1.556-1.375 1.93-1.246.557-1.197.692.273.75.986.038 3.007 1.195 4.489 2.57 2.42 2.243 4.222 2.973 6.467 2.618 1.968-.31.429 2.705-2 3.917-5.168 2.581-7.137 5.102-8.278 10.599-1.121 5.403-2.197 6.56-3.672 3.953-.44-.778-2.15-1.565-3.8-1.75-2.222-.25-3.083-.921-3.32-2.587-.175-1.238-.963-2.306-1.75-2.375-3.158-.276-3.535-.426-4.341-1.732-.622-1.006-1.027-1.053-1.564-.183-.402.65.046 1.737 1.007 2.44 1.534 1.121 1.373 1.267-1.4 1.267-1.825 0-3.132-.518-3.132-1.24 0-.777-.804-1.029-2.156-.676-1.294.338-1.912.168-1.544-.427.336-.545.069-1.038-.594-1.096-2.961-.258-9.048-2.17-10.028-3.15-1.872-1.872-2.533-1.171-1.334 1.414.636 1.371 1.494 2.496 1.906 2.5.412.004-.037.837-1 1.849-.963 1.013-2.002 1.714-2.311 1.558-.308-.155-2.911-.39-5.784-.521-6.198-.283-8.766-1.831-9.64-5.81-.717-3.263-2.906-5.563-4.411-4.632-1.438.888-.906-3.7.61-5.257 1.809-1.859 1.613-2.837-.923-4.613-1.694-1.186-1.935-1.822-1.033-2.724.902-.902 1.326-.787 1.816.491.881 2.295 2.703 2.115 1.97-.195-.325-1.024.303-3.949 1.397-6.5 1.643-3.834 1.734-4.638.523-4.638-.805 0-1.464-.395-1.464-.878 0-1.311 2.585-3.204 3.342-2.447.362.362.658-.269.658-1.403 0-4.057-4.874-2.35-7.788 2.728-1.421 2.475-3.807 6.319-5.303 8.543-2.826 4.2-3.79 9.511-2.351 12.957.851 2.039 9.395 10.5 10.602 10.5.365 0 .984 1.891 1.374 4.202.76 4.498 4.001 12.798 4.998 12.798.331 0 .288-1.012-.098-2.25-.698-2.245-.695-2.246 1.481-.302 2.725 2.435 5.043 2.826 5.754.973.641-1.671 3.331-1.925 3.331-.314 0 .609.698.839 1.552.511 1.045-.401 1.319-.191.84.643-.392.682-.368.929.054.549.422-.379 1.704.183 2.849 1.25 1.145 1.067 3.085 1.94 4.312 1.94 1.226 0 3.015.301 3.975.67 1.191.457 1.516.298 1.023-.5-.709-1.148 3.424-1.681 9.257-1.194 1.584.132 2.124-.19 1.638-.976-.491-.795.036-1.074 1.638-.867 1.299.168 2.812.061 3.362-.237 1.2-.65 7.906-2.57 11.791-3.376 1.535-.318 2.545-.977 2.244-1.464-.301-.487.018-1.075.709-1.308 1.005-.338 1.006-.726.007-1.936-.686-.833-1.176-3.35-1.088-5.595.137-3.497.53-4.174 2.748-4.727 1.424-.355 3.376-1.356 4.339-2.223 1.429-1.288 1.764-1.319 1.824-.172.041.773.26 2.395.486 3.605.227 1.209-.032 2.473-.574 2.809-.542.335-.986 1.414-.986 2.397 0 .984-1.012 2.277-2.25 2.874-1.238.596-1.702 1.115-1.031 1.152.718.04.956.752.58 1.732-.427 1.111-.254 1.426.52.948.78-.482.943-.156.5 1-.457 1.191-.288 1.487.552.968.691-.427.95-1.678.604-2.914-.458-1.639-.363-1.813.391-.718.789 1.146 1.125.833 1.611-1.5a157.221 157.221 0 011.568-6.564c.525-1.989.882-7.164.792-11.5-.157-7.586-.186-7.676-.767-2.384-.561 5.105-.661 5.276-1.389 2.378-.903-3.596.026-8.378 1.627-8.378.773 0 .766-.326-.026-1.118-.646-.646-.882-2.65-.558-4.75.307-1.998.196-3.295-.248-2.883-1.71 1.586-6.166-8.532-5.968-13.551.172-4.355-.076-4.94-2.659-6.276-1.567-.81-2.849-1.912-2.849-2.448s-.675-.974-1.5-.974-1.5-.353-1.5-.784c0-.792-5.25-4.216-6.463-4.216-.36 0-.33.526.068 1.17M334.5 368c-2.75 1.015-7.385 1.88-10.3 1.922-9.154.134-15.163 5.284-22.155 18.989-3.381 6.628-1.334 13.978 2.755 9.889.933-.933 1.197-.878 1.185.25-.021 1.947-1.079 3.391-3.485 4.755-1.957 1.11-1.953 1.135.191 1.165 2.807.039 3.83 1.697 2.233 3.621-.98 1.182-1.415 1.232-2.031.235-.431-.697-1.146-.905-1.589-.462-.442.443.439 1.876 1.958 3.184 1.52 1.308 2.704 2.732 2.632 3.165-.489 2.942.258 7.311 1.156 6.756.7-.433.925 1.132.676 4.691-.206 2.937.222 7.327.951 9.755.73 2.428 1.105 4.637.833 4.908-.271.271-.026 1.055.543 1.741.78.94-.274 1.886-4.258 3.825-8.257 4.018-21.122 11.54-22.942 13.415-3.728 3.84-12.696 40.049-11.998 48.446.286 3.443 3.139 1.916 3.27-1.75.069-1.925.208-3.837.31-4.25.101-.413.737-3.45 1.412-6.75 2.057-10.058 8.608-30.949 10.431-33.268.549-.698 2.623-2.032 4.61-2.964 1.986-.933 7.202-3.866 11.59-6.52 9.637-5.828 12.172-6.609 13.878-4.276.69.944 2.462 1.786 3.937 1.872 1.476.086 2.924.783 3.219 1.549.723 1.883-.418 2.878-1.427 1.244-.625-1.011-.956-.916-1.469.422-.965 2.513-.468 2.697 8.429 3.109 6.327.294 8.547.806 10.21 2.355 1.33 1.239 2.366 1.59 2.77.937 1.002-1.622 8.975 7.612 8.975 10.395 0 1.32.661 2.948 1.468 3.618.807.671 1.372 1.513 1.255 1.873-.259.794 10.413 11.236 15.277 14.948 6.734 5.139 9 8.081 9 11.681 0 1.874-.45 3.685-1 4.025-2.349 1.452-.482 11.045 4.158 21.369 2.325 5.172 1.879 6.913-2.16 8.438-1.649.622-2.998 1.509-2.998 1.971 0 .462-.562.516-1.25.121-.687-.396-.909-.344-.493.115.71.781-1.868 2.629-10.257 7.353-4.097 2.307-7.305 5.826-6.03 6.615.491.303 2.013-.488 3.383-1.758 2.998-2.779 12.384-7.321 13.278-6.426 1.324 1.324 1.442 7.702.143 7.717-.901.011-.847.286.186.939 1.277.808 1.271 1.152-.043 2.735-.827.996-2.127 3.057-2.889 4.58-.85 1.697-1.653 2.338-2.075 1.655-.407-.658-.941-.106-1.307 1.349-.34 1.355-2.669 4.144-5.176 6.198-5.232 4.287-9.171 4.322-14.191.126-4.18-3.495-6.579-3.957-21.279-4.103-16.543-.163-27.028-1.053-42.121-3.572l-6.62-1.105-.161-8.159c-.089-4.487-.566-9.958-1.06-12.158-.771-3.427-.895-2.782-.864 4.5.067 15.846.083 15.74-2.424 15.613-1.239-.062-2.25-.76-2.25-1.553 0-.828-2.443-2.386-5.75-3.667-3.163-1.225-5.75-2.054-5.75-1.842 0 .211-3.78-1.626-8.401-4.083-7.45-3.963-12.176-5.712-10.262-3.798.368.369-.048 1.767-.926 3.107-1.615 2.464-1.719 5.47-.928 26.723.164 4.4.245 9.8.18 12-.528 17.805.271 31.291 1.952 32.973 1.382 1.381 5.757.939 4.872-.493-.269-.437.523-.598 1.762-.359l2.251.435-2.25-.996c-1.238-.547-2.25-1.263-2.25-1.591 0-.902 4.406-.099 5.158.941 1.301 1.799 6.696-1.468 7.351-4.452.47-2.137 1.511-3.139 4.175-4.019 4.139-1.366 4.52-1.33 37.816 3.546 1.1.162 4.025.842 6.5 1.513 4.061 1.1 20.47 2.137 33.5 2.116 5.993-.01 14.34-.756 20.5-1.834 2.475-.433 7.581-.56 11.346-.283 6.303.463 9.438-.169 6.41-1.292-.709-.264-.048-.947 1.521-1.571 4.25-1.691 5.289-6.726 3.278-15.882-.561-2.557-.327-3.19 1.385-3.733 1.639-.52 2.06-1.492 2.06-4.753 0-4.423-1.183-4.408-1.766.022-.733 5.56-1.849 4.012-1.459-2.023.496-7.685 2.887-19.923 4.044-20.696 1.052-.703 3.38-8.847 3.307-11.569-.03-1.1-.037-4.7-.017-8 .055-9.043.041-15.805-.038-17.68-.059-1.405-.588-1.532-3.229-.775-4.018 1.153-5.135-.242-7.248-9.045-2.709-11.284-3.215-18.452-1.251-17.699 1.724.662 2.338-.762.751-1.743-.498-.308-.671-1.46-.383-2.559.581-2.225 3.245-2.643 5.089-.799.667.667 1.2.756 1.2.2 0-.55-.47-1.47-1.044-2.044-.574-.574-1.256-5.277-1.514-10.45-.705-14.098-1.324-19.487-2.595-22.595-.632-1.546-1.33-6.636-1.55-11.311-.221-4.675-.805-10.825-1.3-13.667-.76-4.374-.513-6.37 1.61-13 2.28-7.118 2.447-8.792 1.831-18.333-.373-5.775-1.143-11.388-1.713-12.474-4.089-7.797-25.939-24.526-32.034-24.526-4.663 0-2.949 1.114 7.698 5.001 1.588.58 2.62 1.323 2.292 1.652-.961.96-13.681-3.903-13.681-5.231 0-2.797-3.663-2.945-10.5-.422m-134.25 3.119c-1.787.516-3.25 1.375-3.25 1.91 0 .534-.648.971-1.441.971s-1.766.526-2.164 1.17c-.467.755-.203.97.743.607 2.264-.868 7.85 1.888 7.954 3.925.05.989.188 2.923.305 4.298.117 1.375.301 4.488.408 6.917.229 5.188.786 5.101 1.489-.233.595-4.509 1.21-5.334 2.932-3.93 1.824 1.486 8.774 3.249 8.774 2.224 0-.473-.45-1.138-1-1.478-1.904-1.177-1.21-5.8.75-4.994 3.435 1.414 5.249 1.714 5.207.861-.085-1.689-4.582-8.742-5.842-9.162-.704-.235-.112 1.423 1.315 3.684 2.735 4.332 1.95 5.491-1.43 2.111-1.1-1.1-2-1.592-2-1.094 0 1.153-3.821.192-4.665-1.173-.407-.659.312-.787 2.016-.36 1.995.501 2.649.29 2.649-.854 0-1.56-.906-1.866-4.654-1.571-2.709.214-3.896-1.581-2.31-3.492 1.44-1.735-.546-1.85-5.786-.337m135.428 2.758c.397 1.519.044 1.793-1.843 1.436-1.284-.243-3.46.031-4.835.611-2.314.974-2.221 1.037 1.248.84 2.897-.165 4.106.296 5.319 2.028.863 1.233 1.97 1.994 2.458 1.693.488-.302.713.832.499 2.521-.344 2.724-.054 3.138 2.565 3.662 1.624.325 3.195.982 3.491 1.461 1.134 1.835 2.48.851 1.455-1.063-1.306-2.441-1.319-3.359-.035-2.566 1.849 1.143 1.021-.747-1.153-2.633-2.283-1.98-2.082-2.13 2.653-1.99 2.575.076 2.717-.041 1-.824-1.1-.502-2.812-.944-3.804-.983-.993-.038-3.243-1.418-5-3.065-3.702-3.47-4.704-3.751-4.018-1.128m14.287 12.057c.569 1.064 1.035 3.384 1.035 5.155 0 3.006-.117 3.115-1.752 1.636-2.236-2.025-7.248-3.953-7.248-2.789 0 .487 1.462 2.117 3.25 3.621 2.105 1.771 3.261 3.652 3.281 5.339.024 2.084.576 2.667 2.766 2.922 1.545.18 2.463.762 2.108 1.336-1.062 1.718-1.221 10.846-.189 10.846.534 0 1.207-.9 1.494-2 1.054-4.03 2.49-1.939 2.06 3-.528 6.071.794 6.725 1.518.75 1.136-9.383-.822-19.873-4.195-22.481-1.003-.775-1.223-1.516-.593-2 1.523-1.171 1.197-3.572-.75-5.519-2.422-2.422-4.12-2.31-2.785.184m-165.563 8.558c.479 4.489 5.657 8.152 14.454 10.226 2.727.643 4.149-1.019 4.038-4.718-.065-2.198-.188-2.108-1.013.75-1.094 3.788-.683 3.648-5.19 1.765-4.997-2.088-5.727-3.733-1.553-3.5 6.176.345 6.498.176 4.149-2.172-1.585-1.585-3.464-2.185-7.08-2.26-2.707-.056-5.634-.693-6.504-1.415-1.381-1.146-1.546-.978-1.301 1.324m130.441 5.458c-3.098 1.382-3.5 1.911-2.633 3.46 2.1 3.753 3.84 13.628 2.757 15.651-.628 1.174-.66 1.939-.083 1.939.526 0 1.686 2.201 2.58 4.892 1.985 5.976 6.461 8.112 6.05 2.888-.125-1.591-.742-3.408-1.371-4.037-1.548-1.548-1.437-2.532.331-2.92 2.121-.465.33-2.887-2.281-3.083-1.44-.109-2.263-.981-2.55-2.7-.725-4.348-.658-8.592.117-7.44 1.254 1.864 5.063 3.496 5.711 2.446.326-.527 1.219-.718 1.984-.425.799.307 1.301-.031 1.179-.794-.341-2.136-2.017-4.489-3.634-5.101-1.194-.452-1.143-.584.25-.647 1.351-.061 2.822-4.079 1.493-4.079-.141 0-1.603-.379-3.25-.841-2.126-.598-4.052-.369-6.65.791m32.575 31.733c-.89.651-1.322 1.664-.959 2.25.362.587.182 1.067-.4 1.067-.582 0-1.059.765-1.059 1.7 0 1.25-.295 1.405-1.115.585-1.436-1.436-12.165 5.544-11.437 7.441.269.701.095 1.274-.386 1.274s-.622.966-.313 2.147c.495 1.893.253 2.07-2.033 1.497-1.426-.358-2.804-.31-3.062.107-.778 1.258 2.704 4.82 4.846 4.96 1.1.071 3.905.41 6.234.753s5.053.185 6.054-.351c1.017-.544 2.419-.603 3.178-.134 1.006.622.733.957-1.054 1.294-4.464.841 3.132.683 8.338-.174 2.613-.43 4.75-.403 4.75.06 0 .462-.525.841-1.167.841-.641 0-.882.285-.534.633.348.348-.477 1.505-1.833 2.572-2.527 1.988-3.262 5.185-1.45 6.305.559.346.761 1.041.449 1.546-.67 1.085 2.131 4.203 5.219 5.808 2.695 1.401 3.626 1.446 2.816.136-.34-.55-.168-1 .382-1 1.475 0 2.296 1.747 1.099 2.34-.567.28-.457.38.244.222.701-.158 2.455.308 3.898 1.035 1.443.728 2.83 1.117 3.082.865.252-.253 1.069.681 1.815 2.074.745 1.394 1.932 2.313 2.636 2.043.704-.271 1.546-.061 1.871.465 1.951 3.156 2.628.264 2.06-8.794-.336-5.363-.756-12.9-.933-16.75-.365-7.946-.731-9.683-2.483-11.794-.683-.822-1.113-2.105-.956-2.851.17-.809-.42-1.237-1.465-1.061-.962.161-1.75-.231-1.75-.873 0-.807-.52-.743-1.687.207-1.478 1.201-1.606 1.154-1.032-.378.446-1.189.167-1.75-.871-1.75-.841 0-1.25-.45-.91-1 .34-.55.141-1-.441-1-.971 0-1.472 1.383-1.177 3.25.065.413-.556.75-1.379.75-.824 0-2.137 1.462-2.919 3.25-1.248 2.855-1.431 2.968-1.502.929-.045-1.277-.742-2.982-1.549-3.789-.984-.984-1.264-2.485-.85-4.555.925-4.623-5.865-7.369-10.265-4.152m-111.028 1.744c-.294.766-1.74 1.685-3.212 2.041-5.07 1.229-11.082 4.619-10.568 5.959 1.003 2.612-15.673 6.884-24.804 6.356-5.872-.34-7.498-.186-6.145.584 6.385 3.631 30.556-2.14 42.015-10.033 6.393-4.402 6.83-4.926 4.78-5.712-.844-.325-1.771.037-2.066.805m-72.89 25.797c-11.883 1.357-11.728 1.14-10.232 14.276 2.217 19.469 3.273 25.278 6.043 33.25 2.547 7.333 2.244 7.216 7.119 2.75 2.102-1.925 4.371-3.5 5.042-3.5.672 0 2.843 1.575 4.825 3.5 1.982 1.925 4.199 3.5 4.926 3.5.728 0 3.714-1.575 6.637-3.5 6.68-4.4 6.32-4.453 10.14 1.5 3.609 5.623 3.804 5.711 7.115 3.17 4.071-3.123 5.643-3.244 8.701-.671C217.323 516.45 219 515.318 219 510c0-1.98.54-4.14 1.2-4.8.933-.933.92-1.2-.059-1.2-.692 0-.945-.508-.561-1.13.425-.687.155-.943-.691-.654-.897.308-1.369 1.935-1.333 4.598.062 4.544-1.884 6.311-3.541 3.215-1.385-2.59-1.399-6.17-.015-4.029.836 1.293.971 1.267.985-.188.009-1.076-.71-1.633-1.985-1.537-1.1.083-2 .459-2 .837 0 1.341-8.229 4.95-10.003 4.387-1.717-.545-3.989-4.394-5.445-9.223-.515-1.709-1.298-2.15-3.385-1.907-1.493.174-3.604.003-4.691-.379-1.89-.664-1.878-.725.274-1.409 1.238-.394 2.25-1.121 2.25-1.617s-.683-.639-1.519-.318c-1.267.486-1.35.141-.503-2.089.752-1.976.716-2.486-.136-1.96-.765.473-.876.268-.332-.612.602-.975.356-1.148-.928-.655-.96.369-1.92.67-2.132.67-.213 0-.165.58.107 1.288.272.709-.867 2.593-2.531 4.187-1.664 1.595-3.026 3.462-3.026 4.15 0 .688-.9 1.183-2 1.1-1.1-.083-2-.531-2-.997 0-.465-.338-.642-.75-.392s-1.33-.174-2.039-.941c-1.274-1.378-1.206-1.525.825-1.77.571-.069 1.471-.8 2-1.625.802-1.247 1.067-1.123 1.578.739.337 1.231 1.02 1.987 1.516 1.681.496-.307.673-.93.392-1.384-.281-.455.19-1.095 1.047-1.424.857-.329 1.301-1.013.988-1.52-.313-.506-.004-1.149.687-1.428.691-.278.292-.542-.887-.585-1.179-.043-2.411.619-2.738 1.472-.491 1.279-.841 1.323-2.002.25-.774-.716-1.232-1.591-1.018-1.946.214-.355-.242-.888-1.013-1.184-.913-.35-1.639.399-2.08 2.146l-.678 2.683-1.481-2.817c-1.155-2.197-1.219-3.132-.292-4.25.975-1.174.761-1.446-1.183-1.503-2.218-.066-2.242-.126-.372-.93 1.908-.82 1.897-.863-.25-.93-2.586-.08-3.013-1.84-.666-2.741 1.275-.489 1.324-.772.25-1.453-.999-.633-1.02-.849-.084-.861.688-.008 1.25-.915 1.25-2.015s.648-2 1.441-2 1.749-.498 2.125-1.107c.46-.745-.01-.887-1.434-.435-1.656.526-1.988.331-1.519-.893.769-2.002 2.81-2 4.816.006.908.909 1.571 1.095 1.571.441 0-.621.457-.847 1.016-.502.559.346.715 1.117.346 1.714-.377.609-.21.8.379.436.577-.357 1.296-.005 1.598.781.302.786.011 1.648-.645 1.915-.741.302-.624.503.306.532 2.278.069 9.443-5.235 9.837-7.283.294-1.525-.117-1.702-2.649-1.146-3.406.748-4.652-.336-2.583-2.248 1.139-1.053 1.398-1.053 1.41 0 .01.791.3.902.75.289.819-1.114 2.515-1.674 6.235-2.057 1.375-.142 3.361-.601 4.414-1.02 1.335-.532 1.698-.412 1.198.396-.478.773-.163.946.948.52 3.413-1.31 7.952-.826 9.66 1.029.95 1.033 2.405 1.606 3.25 1.282.945-.363 1.53-.026 1.53.881 0 .808.45 1.469 1 1.469s1-.675 1-1.5c0-1.331 3.333-2.056 5.75-1.25.733.244.665 3.685-.252 12.75-.401 3.957-.291 4.285.908 2.717 1.431-1.873 3.202-17.924 2.163-19.606-1.998-3.232-41.843-5.854-59.069-3.887m156.076 3.653c-.298.482-3.137 1.909-6.309 3.171-3.172 1.261-6.943 3.103-8.38 4.093-1.437.99-2.937 1.476-3.333 1.079-.396-.396-.571-.06-.387.747.193.85-1.063 2.178-2.986 3.157-3.799 1.935-7.414 4.976-6.73 5.661.255.255-.529 1.269-1.744 2.253-1.214.984-1.942 2.056-1.619 2.381.324.325 1.899-.552 3.5-1.95 4.88-4.259 12.826-9.257 17.49-11.001 2.432-.91 5.322-2.021 6.422-2.47a62.641 62.641 0 013.75-1.376c1.159-.37 1.75-1.583 1.75-3.591 0-3.074-.442-3.743-1.424-2.154M389 499.625c0 .394.745 1.54 1.655 2.546 1.54 1.702 1.54 1.829 0 1.829-.91 0-1.655.482-1.655 1.071 0 .59-.729.343-1.619-.547-.891-.891-1.899-1.339-2.242-.997-.342.343.181 1.073 1.163 1.622 1.176.658 1.577 1.657 1.174 2.925-.652 2.056 1.852 2.822 3.024.926 1.087-1.76 3.5-1.07 3.5 1 0 1.1-.505 2-1.122 2-.73 0-.642.579.25 1.653 1.61 1.94 2.276 33.696.765 36.536-.536 1.009-.528 1.918.02 2.257.835.516 3.087-7.506 3.087-10.995 0-.798.45-1.451 1-1.451s1 2.052 1 4.559c0 2.515-.412 4.305-.919 3.991-.505-.312-1.249.899-1.653 2.691-1.032 4.579-1.116 58.954-.088 57.117.461-.826.831-13.4.821-27.944-.011-16.351.343-26.221.927-25.86.519.321.686 1.003.369 1.515-.316.512-.246 1.464.156 2.115 2.477 4.007 2.431-13.58-.077-29.684-.771-4.95-1.674-11.475-2.007-14.5-.843-7.672-2.189-11.208-5.059-13.297-1.359-.988-2.47-1.473-2.47-1.078" fill="#d3d3d3" fill-rule="evenodd"/></svg>