<svg xmlns="http://www.w3.org/2000/svg" width="500" height="698"><path d="M0 34.956v34.956l7.237.294 7.238.294-5.199 3.33c-3.343 2.14-5.88 3.113-7.105 2.724-1.756-.557-1.919.016-2.074 7.247-.092 4.319.122 8.605.475 9.525C1.58 95.954 3 95.286 3 92.184 3 89.527 8.501 85 11.729 85c.98 0 4.88-3.162 13.366-10.835 3.596-3.251 5.308-4.172 6.85-3.683 1.13.359 2.055.285 2.055-.165.001-.449 4.156-.817 9.234-.817 7.772 0 9.283.26 9.552 1.645.371 1.907-7.219 2.979-11.051 1.561-1.273-.471-2.332-.414-2.515.134-.174.521-1.194.718-2.268.437-1.44-.376-1.952-.002-1.952 1.427 0 1.689.791 1.96 6.159 2.108 3.387.093 6.762-.331 7.5-.944.986-.818 1.341-.816 1.341.01 0 1.427 5.662 1.478 6.539.059.361-.585-.142-1.945-1.117-3.024-2.485-2.745-.631-4.362 4.003-3.493 3.761.706 4.308 1.447 2.442 3.313-1.41 1.41-.314 4.586 1.384 4.009.687-.234 1.249-1.734 1.249-3.334V70.5l12.75-.273c8.969-.191 12.75.063 12.75.857 0 .622-.675.871-1.5.554-.825-.316-1.5-.153-1.5.362s-.715.663-1.588.328c-1.227-.471-1.506-.066-1.226 1.781.227 1.5.912 2.259 1.838 2.036.812-.196 2.497-.364 3.744-.375 2.841-.025 3.77-1.417 2.204-3.304-.975-1.174-.773-1.604 1.073-2.287 3.062-1.133 7.467-.291 6.025 1.151-1.548 1.548-1.313 5.223.425 6.666 3.337 2.769 8.424-3.677 5.337-6.764-.89-.89 1.782-1.166 11.25-1.159 39.65.027 42.782-.167 41.753-2.585-.184-.434.677-.943 1.915-1.132 1.442-.22 2.25.169 2.25 1.083 0 .784.787 1.633 1.75 1.885 1.4.367 70.715.162 74.868-.221 2.212-.204 1.467-10.93-.873-12.569-1.793-1.256-1.864-1.551-.499-2.075 1.557-.598 1.696-9.146.307-18.9-.23-1.618-.014-3.699.482-4.624.943-1.763-2.04-5.597-3.342-4.295-1.998 1.998-7.09-6.937-9.198-16.14-1.373-5.991-4.894-8.086-3.902-2.321l.572 3.321-2.061-2.5c-1.133-1.375-2.345-3.963-2.694-5.75L216.777 0h-40.888c-37.934 0-43.376.345-39.848 2.525.572.354.746 1.571.386 2.706-.549 1.728-.313 1.972 1.459 1.509 1.412-.369 2.114-.086 2.114.854 0 .773.9 2.306 2 3.406s2 2.645 2 3.433c0 .788.933 1.728 2.072 2.09 1.297.412 1.861 1.21 1.507 2.133-.423 1.102-.063 1.315 1.427.842 2.302-.731 2.851 2.245.794 4.302-.933.933-.933 1.467 0 2.4 1.179 1.179 1.324 1.046 1.575-1.436.299-2.955 3.347-1.672 5.195 2.186 1.062 2.215 2.225 4.032 2.586 4.039.361.006.975 2.374 1.365 5.261.39 2.888 1.139 6.067 1.664 7.065 1.391 2.644 1.943 10.488.788 11.201-.593.367-.36 1.24.584 2.183 1.111 1.112 1.26 1.884.507 2.637-.585.585-1.1 1.987-1.143 3.114-.043 1.128-.306 1.488-.583.8-.278-.688-1.566-1.25-2.862-1.25-2.758 0-4.461-1.97-1.785-2.063 1.417-.05 1.306-.266-.517-.996-1.761-.706-2.262-1.602-2.063-3.687.308-3.214-2.746-9.597-4.17-8.718-.535.331-.716 1.019-.401 1.529 1.07 1.731 1.341 4.891.467 5.431-.479.296-.245 1.744.52 3.218.884 1.704 1.05 3.091.455 3.807-.591.713-.511 1.55.218 2.279.87.87.72 1.63-.611 3.102-1.762 1.947-5.041 2.046-6.878.209-1.339-1.339-2.92-10.541-1.872-10.891 1.179-.393.187-5.22-1.072-5.22-.55 0-.765.9-.477 2 .287 1.1.111 2-.393 2-.503 0-.799 2.545-.656 5.655.246 5.379.128 5.692-2.429 6.397-4.2 1.159-5.467-1.052-8.334-14.538-1.042-4.903-2.644-.521-2.284 6.246l.306 5.74-3.184.308c-3.642.353-4.703-1.021-5.642-7.308-1.025-6.868-1.204-7.332-4.335-11.228-1.68-2.091-3.344-4.807-3.697-6.036-.353-1.23-.897-3.136-1.209-4.236-.415-1.462-.079-2.018 1.25-2.068 1.469-.054 1.364-.285-.548-1.204-2.137-1.027-2.31-1.599-1.797-5.932.318-2.69.16-4.796-.36-4.796-.51 0-.652-1.38-.315-3.067.457-2.285.038-3.846-1.643-6.12-4.62-6.249-4.362-8.1 1.387-9.965C112.275.269 110.013.192 56.25.098L0 0v34.956m495.003 29.536C493.772 67.73 493.659 92 494.875 92c.481 0 1.145-1.35 1.475-3 .352-1.76 1.231-3 2.125-3 1.789 0 1.974-1.151.432-2.693-.79-.79-.772-1.692.066-3.257 1.897-3.544.945-17.442-1.223-17.86-1.137-.219-2.094.583-2.747 2.302M44.533 84.947c-.237.384-2.479.577-4.982.429L35 85.108v3.946c0 3.086.382 3.949 1.75 3.961 1.497.013 1.533.157.25.994-1.103.72-1.863.451-2.872-1.015-1.51-2.194-4.606-2.648-5.723-.84-1.446 2.339-1.266 5.846.3 5.846 1.036 0 1.36-.644 1.006-1.999-.62-2.37.995-3.695 2.576-2.114.817.817.794 1.113-.087 1.113-.66 0-1.2.686-1.2 1.525 0 1.195.989 1.452 4.554 1.183 2.505-.188 4.785.031 5.067.487.94 1.522 3.829-.994 3.854-3.355.018-1.651.606-2.331 2.022-2.335 1.099-.003 2.06-.455 2.135-1.005.394-2.877 1.708-5.408 2.54-4.894 1.051.65.121 6.359-1.277 7.844-1.589 1.687-.952 3.55 1.213 3.55 1.75 0 2.002-.425 1.481-2.5-.565-2.253-.329-2.5 2.392-2.5 2.514 0 3.019.399 3.019 2.382 0 2.103.468 2.389 4 2.437 2.924.041 4-.35 4-1.453 0-1.058-.823-1.413-2.75-1.188-2.352.275-2.796-.076-3.066-2.428-.249-2.16-.839-2.75-2.75-2.75C55.476 90 55 89.489 55 87.383c0-2.123-.376-2.518-1.999-2.094-1.099.288-2.216.172-2.482-.258-.599-.969-5.398-1.036-5.986-.084M110 86.521c0 .837-1.111 2.028-2.469 2.647-1.357.618-2.231 1.509-1.941 1.978.291.47.051.854-.531.854-.582 0-1.059-.45-1.059-1 0-1.34-4.707-1.283-5.542.067-.362.587.235 1.301 1.327 1.587 1.093.286 2.458 1.493 3.033 2.683.576 1.19 1.077 1.629 1.114.976.046-.799 1.244-.996 3.668-.603 2.474.401 3.863.159 4.439-.773.684-1.108 1.203-1.028 2.817.432 2.172 1.966 6.144.835 6.144-1.749 0-2.799-3.451-4.747-5.57-3.144-3.006 2.274-3.738 1.811-3.124-1.976.429-2.64.215-3.5-.869-3.5-.79 0-1.437.685-1.437 1.521M69.733 90.25l.543 4.25-2.388-2.076c-1.313-1.142-3.175-1.896-4.138-1.677-2.478.566-2.172 2.054.5 2.433 1.721.245 2.369 1.143 2.756 3.82.327 2.254.793 3.055 1.309 2.25.442-.687 1.645-1.25 2.674-1.25 1.146 0 2.04-.873 2.305-2.25.398-2.063.445-2.078.57-.181.12 1.832.828 2.084 6.205 2.205 6.223.141 7.398-.97 3.387-3.203-2.766-1.539-4.97-4.788-4.626-6.821.476-2.816-3.67-2.196-5.012.75-.626 1.375-1.525 2.5-1.998 2.5-.472 0-.576-1.125-.231-2.5.463-1.842.229-2.5-.885-2.5-1.199 0-1.401.883-.971 4.25M250 98.5V110l-6.75.118c-3.713.066-7.063.074-7.446.018-.383-.055-35.483-.321-78-.591-42.517-.27-91.382-.784-108.588-1.142-29.101-.605-31.422-.527-33.247 1.125-1.08.977-3.427 1.758-5.216 1.735-1.789-.023-2.716.162-2.059.412.656.25.968 1.043.692 1.762-.347.903.212 1.185 1.806.912 4.848-.832 4.657-3.637 5.743 84.182.565 45.633 1.252 91.744 1.528 102.469.276 10.725.51 28.335.52 39.133L19 359.766l3.75-1.292c6.248-2.152 9.743-.748 15.107 6.071 2.688 3.418 3.41 2.873 2.126-1.605-.541-1.885-.983-5.062-.983-7.061 0-2.53-.615-4.052-2.023-5.007-2.139-1.45-2.32-2.039-3.421-11.106-.383-3.154-1.133-6.004-1.667-6.334-.534-.33-.706-1.434-.382-2.454.323-1.019.004-2.84-.709-4.046-1.031-1.741-1.04-2.287-.048-2.646 1.48-.536 1.699-4.286.25-4.286-.55 0-1-.45-1-1s1.688-1.014 3.75-1.03c3.113-.026 3.442-.21 1.939-1.084-.996-.579-2.425-.817-3.177-.529-2.371.91-4.259-2.337-2.224-3.825 2.189-1.601 2.176-3.429-.038-5.253-1.549-1.277-1.559-1.383-.083-.924.917.285 1.892-.065 2.166-.779s1.463-1.551 2.644-1.86c1.846-.482 2.102-.187 1.834 2.112-.272 2.341-.001 2.628 2.189 2.319 1.375-.194 2.831-.869 3.235-1.5.509-.796.739-.717.75.256.01.91.718.593 2.015-.903 1.1-1.268 2-2.687 2-3.153 0-.466.605-.847 1.345-.847s2.108-.843 3.04-1.873c1.602-1.77 1.583-1.902-.349-2.407-1.241-.325-1.832-1.087-1.505-1.941.735-1.915-2.836-4.983-4.886-4.196-.905.347-1.645 1.314-1.645 2.149 0 1.153-.721 1.374-3 .918-1.692-.338-3-.175-3 .375 0 .536 1.013.991 2.25 1.01l2.25.036-2.281 1.266c-1.255.697-1.968 1.581-1.584 1.965.384.384-1.004.698-3.085.698-3.302 0-3.716-.257-3.256-2.018.291-1.109-.148-2.693-.973-3.518-1.84-1.84-2.36-5.843-1.257-9.687.891-3.106-1.492-5.32-3.037-2.821-.486.787-.955.012-1.271-2.105-.276-1.843-.049-3.639.503-3.991 1.262-.805.001-8.038-1.601-9.184-.872-.624-.864-.949.036-1.317.656-.268.946-1.134.643-1.924-.774-2.017.372-1.784 2.926.596 3.165 2.948 5.23 2.147 5.27-2.045.019-1.917-.376-3.773-.878-4.124-1.323-.926.168-2.862 2.204-2.862.958 0 2.281.54 2.941 1.2.933.933 1.226.656 1.315-1.25.11-2.337.243-3.189.848-5.45.467-1.745.728-2.966.885-4.143.083-.629.746-1.371 1.473-1.65 1.307-.502 1.544.957 1.636 10.11.045 4.434 2.223 6.726 3.876 4.079.651-1.043 1.747-1.896 2.435-1.896 1.812 0 3.695-3.443 2.733-4.999-.449-.726-.594-1.899-.322-2.607.903-2.353-2.948-6.328-6.179-6.378-3.485-.054-5-.943-5-2.933 0-.779-.562-1.604-1.25-1.833-.687-.229-1.25.071-1.25.667 0 .595-.659 1.083-1.465 1.083-1.609 0-3.828 3.374-2.857 4.344.334.334.04 1.291-.653 2.126-.694.836-1.236 3.322-1.206 5.525.031 2.203-.366 4.005-.882 4.005-.515 0-.951-1.012-.969-2.25-.029-2.036-.153-2.09-1.307-.572-.784 1.03-1.776 1.369-2.572.877-.998-.617-.761-1.417 1.03-3.477 1.401-1.611 2.4-4.147 2.513-6.376.168-3.301.073-3.458-.875-1.452-.584 1.238-1.669 2.25-2.41 2.25-1.879 0-1.682-2.973.347-5.214 1.603-1.772 1.577-1.902-.5-2.446-2.704-.707-2.705-.829-.042-3.492 2.052-2.052 2.069-2.214.353-3.468-.99-.724-2.26-1.032-2.822-.684-.63.389-.765-.039-.353-1.114.369-.96.67-1.934.67-2.164 0-.23.75-.418 1.667-.418.916 0 1.37-.296 1.008-.658-.362-.362-.19-1.222.382-1.911.721-.868.717-1.452-.011-1.903-.734-.453-.735-1.241-.002-2.609.576-1.078.776-2.401.443-2.94-.333-.538.059-.979.871-.979.811 0 1.682.562 1.934 1.25.328.895.784.945 1.605.178.857-.801.605-2.299-.994-5.914-2.036-4.603-2.059-4.98-.464-7.68.922-1.561 1.862-3.798 2.087-4.972.568-2.946.996-3.188 3.378-1.914 1.731.927 2.035 1.934 1.835 6.074-.131 2.73-.605 4.967-1.052 4.971-.448.004-.673 1.47-.5 3.257.396 4.115 4.501 5.136 6.654 1.655 1.177-1.904 1.065-2.541-.923-5.229-1.394-1.887-1.834-3.204-1.146-3.433.613-.205.868-1.018.565-1.808-.352-.917.119-1.463 1.306-1.514 1.409-.06 1.495-.213.357-.634-2.671-.989-3.893-2.401-3.336-3.854.3-.782.948-1.173 1.441-.868.492.304.895.043.895-.581 0-.676-1.281-1.003-3.166-.809-1.897.195-3.333-.176-3.583-.926-.275-.823.209-1.047 1.415-.655 1.414.458 1.514.367.438-.399-1.71-1.217-.741-4.195 1.365-4.195.842 0 1.531-.815 1.531-1.81 0-1.844 5.516-8.19 7.119-8.19 1.213 0 1.115 3.738-.119 4.5-.55.34-1 1.045-1 1.567 0 .523.848.421 1.884-.226 2.291-1.431 5.421-6.507 4.372-7.092-.416-.232-.223-.295.429-.141s1.378-.258 1.613-.914c.598-1.669 1.496-.615 1.98 2.324.687 4.166 2.661 8.138 3.72 7.483.551-.34 1.002-1.064 1.002-1.608s1.198-2.019 2.662-3.279l2.662-2.29-2.213-2.213c-1.327-1.327-1.991-2.915-1.657-3.965.305-.963-.009-2.521-.699-3.461-1.159-1.58-1.474-1.507-4.111.94-4.128 3.833-5.493 1.171-1.554-3.031 2.216-2.364 2.902-4.054 2.905-7.165l.005-4.071 6.136-.169c3.374-.093 6.747-.677 7.495-1.297 1.027-.853 1.962-.733 3.829.49 1.358.89 2.658 1.618 2.888 1.618 1.026 0 1.244-5.008.262-5.99-.791-.791-.685-1.346.384-2.006 1.723-1.065 3.542 1.32 2.407 3.156-.897 1.452 7.373.272 9.299-1.326 1.798-1.492 1.776 1.643-.024 3.324-.728.68-1.123 2.283-.879 3.562.398 2.081.827 2.256 4.074 1.67 4.485-.81 8.119-4.136 6.017-5.506-.764-.497-2.411-.663-3.662-.369-2.068.487-2.159.351-1.01-1.49.696-1.114 1.795-2.025 2.443-2.025 2.24 0 4.327 1.213 3.735 2.171-.836 1.353 2.773 3.848 4.72 3.264 1.228-.368 1.587.176 1.5 2.276-.083 2.018.424 2.862 1.886 3.14 1.1.209 2.28.825 2.623 1.368.959 1.52 5.051-1.076 4.686-2.973-.172-.891-1.661-1.974-3.311-2.406-3.57-.937-7.89-4.764-10.015-8.872-1.567-3.031-3.471-3.966-3.498-1.718-.011.833-.339.75-.985-.25-1.849-2.861-1.14-3.999 2.25-3.61 2.159.248 3.165.859 2.996 1.82-.518 2.941 7.899 4.743 11.504 2.463.804-.509 1.25-.234 1.25.768 0 .857-.45 1.559-1 1.559-1.619 0-1.143 2.731.593 3.397 1.06.407 1.766-.054 2.113-1.382.294-1.124 1-1.697 1.62-1.314 1.705 1.054 8.021.347 8.903-.997.435-.662.543-2.254.241-3.538-.361-1.529-.177-2.103.534-1.664.596.369 1.682.174 2.413-.433 1.761-1.462 4.989 3.272 4.224 6.195-.749 2.865.709 5.155 4.833 7.588 1.939 1.144 3.526 2.819 3.526 3.721 0 1.171.502 1.434 1.75.921 3.999-1.647 4.884-1.546 6.085.692.683 1.273 2.31 2.816 3.616 3.429 2.309 1.084 2.384.979 2.712-3.762.243-3.522 0-4.747-.878-4.409-.729.28-1.627-1.016-2.245-3.239-1.457-5.245-1.308-6.205.96-6.205 2.216 0 2.705 1.537.75 2.359-.902.379-.774.827.458 1.609 1.039.66 1.461 1.731 1.077 2.732-.467 1.216-.215 1.487.959 1.037 1.9-.729 3.24 1.975 1.824 3.681-.658.793-.372 1.535.894 2.326 2.163 1.351 3.81-1.109 2.112-3.154-1.205-1.453.309-4.089 1.814-3.159.612.378 1.112 1.56 1.112 2.628 0 1.246.686 1.941 1.917 1.941 1.054 0 2.066.38 2.25.845.183.465 1.55 1.144 3.037 1.508 5.467 1.339 8.657-6.635 4.369-10.923-.865-.865-1.573-1.186-1.573-.714s-1.751.929-3.892 1.014l-3.892.155-.678-5.427c-.373-2.984-1.096-5.685-1.608-6.001-.511-.316-.92-1.561-.908-2.766l.022-2.191 1.728 2.064c3.799 4.539 6.627 5.488 8.787 2.948 1.303-1.534 2.324-1.975 3.107-1.345.798.642 1.378.269 1.839-1.183.642-2.022.736-2.036 2.002-.306.855 1.17.991 2.222.383 2.955-.68.819-.026 1.064 2.332.871l3.278-.268-.332-5.008c-.225-3.393.097-5.274 1-5.832 1.838-1.136 26.184-.378 27.415.854 1.05 1.049 5.801.935 8.818-.212 1.891-.719 2.901-.593 3.994.5 1.792 1.792 3.289 1.874 3.891.212.36-.995.896-.988 2.624.034 1.194.706 2.539 1.057 2.988.779.45-.278 2.197-.109 3.884.375 1.687.483 3.278.669 3.535.412.918-.918 15.206-1.012 16.385-.107 1.651 1.267 6.227 1.68 6.881.622.918-1.485 9.07-.988 10.417.635.685.825 1.626 1.5 2.091 1.5.465 0 .587-.675.271-1.5-.851-2.217 6.773-2.463 9.376-.302.845.701 1.675.717 2.512.047.688-.551 4.702-1.007 8.921-1.015 4.219-.008 8.066-.258 8.548-.556.482-.298 1.525-.141 2.317.348 1.025.634 1.794.254 2.667-1.316 1.086-1.953 1.23-1.556 1.262 3.461.022 3.594.492 5.834 1.285 6.125 3.621 1.327-1.941 2.653-12.596 3.003-8.755.287-12.076.755-12.747 1.796-.613.953-1.15 1.063-1.657.34-.413-.588-3.219-1.19-6.236-1.337-3.017-.147-5.851-.493-6.298-.77-1.672-1.033 1.327-2.936 4.303-2.73 2.408.167 3.016-.151 2.75-1.44-.239-1.161-1.178-1.564-3.155-1.35-1.706.184-3.272-.322-3.976-1.285-1.061-1.45-1.334-1.45-3.15-.002-1.954 1.559-1.95 1.576.262.967 2.274-.626 3.146.844 1.209 2.041-.572.354-.77 1.495-.44 2.535.571 1.8-.247 1.906-16.709 2.166-15.777.25-17.298.429-17.171 2.024.174 2.192-.479 2.205-2.851.058-1.739-1.574-11.019-2.411-12.318-1.111-.901.901 1.752 7.301 3.753 9.053 2.596 2.274 7.777 2.359 7.777.128 0-1.279.297-1.376 1.403-.459 1.077.894 1.523.865 1.921-.127.421-1.049.718 1.597.667 5.947-.004.407-.74.745-1.636.75-2.027.014-2.667 4.623-1.32 9.511 1.539 5.586 2.474 6.474 7.285 6.923.45.043.675 1.089.5 2.327-.392 2.76-4.002 3.51-7.128 1.482-2.813-1.826-7.692-2.752-7.692-1.461 0 .547-.969 1.835-2.153 2.862-1.184 1.027-1.859 1.923-1.5 1.992.359.069 1.209.181 1.889.25.68.069 1.391.924 1.579 1.901.188.977-.031 1.693-.487 1.591-.455-.101-1.615.112-2.578.474-.963.363-2.425.87-3.25 1.128-.825.257-1.5.958-1.5 1.557 0 1.267 14.242 7.974 16.933 7.974 1.002 0 2.382.675 3.067 1.5 1.651 1.989 3.097 1.917 2.317-.115-.487-1.27-.178-1.476 1.448-.96 2.654.843 3.648-.784 2.168-3.551-1.064-1.987-.965-2.114 1.204-1.534 1.299.348 2.7.639 3.113.646.413.008.75 1.575.75 3.483 0 2.88-.297 3.36-1.75 2.83-1.571-.573-1.555-.416.155 1.531 1.714 1.953 1.52 2.632-.655 2.288-.413-.065-.764.67-.78 1.632-.027 1.556-.156 1.534-1.16-.197-.846-1.457-.838-2.044.03-2.333 2.166-.722 1.172-2.199-1.34-1.991-2.784.231-3.072.799-1.3 2.571.66.66.772 1.2.25 1.201-1.277.001-1.503 5.032-.324 7.235.615 1.148.559 2.484-.16 3.828-.825 1.541-.794 2.438.122 3.542.93 1.12.946 1.76.07 2.636-1.485 1.485-1.512 6.758-.036 6.758.791 0 .765.431-.086 1.456-1.874 2.259-.317 3.545 4.273 3.53 8.341-.027 11.495-2.98 8.882-8.313-2.187-4.461-2.314-6.409-.471-7.205 3.539-1.528 5.28-1.477 5.28.155 0 1.118.611 1.45 1.999 1.088 2.543-.665 3.817 1.253 1.641 2.47-.902.505-1.64 1.571-1.64 2.369 0 .797-.804 1.45-1.787 1.45-1.271 0-1.854.872-2.018 3.018-.296 3.892 2.527 5.073 10.229 4.278 5.977-.617 6.677-2.125 2.958-6.375-.76-.868-1.382-2.293-1.382-3.166 0-.874-.562-1.815-1.25-2.093-.687-.277-.125-.525 1.25-.55 2.905-.053 5.922 2.267 7.874 6.054 1.42 2.755 4.276 4.097 6.722 3.159 1.648-.633 1.859-2.926.355-3.855-.716-.443-.678-1.094.123-2.059.698-.841.764-1.411.162-1.411-.873 0-4.236-5.83-4.236-7.344 0-.298.9-.368 2-.156 2.446.471 2.572-.361.307-2.018-2.07-1.513-4.647.468-3.727 2.866.316.824-.36 2.432-1.503 3.575-2.579 2.579-3.077 2.597-3.077.112 0-2.219-2.614-3.968-5.541-3.709-1.368.122-2.06-.547-2.297-2.217-.281-1.987-.028-2.259 1.5-1.61 4.538 1.927 13.181.674 11.714-1.699-.272-.44-.07-.8.448-.8.519 0 1.178-.9 1.466-2 .737-2.82 2.234-2.487 2.485.553.491 5.932 3.647 7.955 7.666 4.915 2.707-2.047 8.175-1.91 8.995.226.542 1.412.891 1.229 2.102-1.104.798-1.539 1.221-3.17.94-3.625-.281-.455-.076-1.095.455-1.424.531-.328 1.283 1.092 1.67 3.156.786 4.189 2.108 5.908 4.968 6.459 2.626.506 2.449 3.27-.235 3.652-1.474.21-2.374-.352-2.822-1.764-.362-1.14-1.076-1.815-1.586-1.5-.51.316-.928.097-.928-.485s-.45-1.059-1-1.059c-1.358 0-1.263 4.328.162 7.457 1.356 2.976.525 4.358-1.574 2.616-1.127-.935-1.962-.943-3.661-.034-1.211.648-3.715.933-5.564.632-3.625-.588-4.383.671-2.113 3.51 2.193 2.744 5.74 2.92 8.249.411 1.68-1.68 3.085-2.16 5.353-1.827 2.851.418 2.955.571 1.433 2.093-1.523 1.523-1.52 1.666.036 1.965 2.262.436 2.132 2.246-.205 2.857-1.276.334-1.722 1.11-1.383 2.406.535 2.045 1.786 2.501 2.719.991.314-.508 1.92-1.219 3.568-1.581 1.648-.362 3.459-1.522 4.024-2.577.564-1.056 1.873-1.919 2.908-1.919s2.11-.563 2.389-1.25c.402-.991.688-.994 1.384-.013 1.539 2.171 12.275-1.914 12.275-4.67 0-1.202.974-1.612 3.829-1.612 4.256 0 9.162-2.703 9.878-5.443 1.011-3.867 13.836-3.558 14.602.352.363 1.853.432 1.805.523-.364.21-5.029-3.299-7.082-9.58-5.605-2.857.671-3.56.392-5.839-2.316-2.74-3.257-4.739-4.093-3.775-1.579.317.825.112 1.5-.454 1.5-1.599 0-7.268-6.055-6.632-7.084.835-1.351 2.1-1.121 3.936.715 1.508 1.508 1.674 1.467 2.199-.541.693-2.651 2.403-2.247 4.009.947 2.008 3.995 14.15 7.268 14.994 4.042 1.382-5.287 12.411-4.563 15.716 1.031 2.156 3.65 3.835 3.722 3.416.146-.243-2.073.108-2.745 1.439-2.75.969-.003 2.431-1.295 3.25-2.87 1.837-3.534 1.841-3.444-.153-3.275-.904.076-1.841-.423-2.084-1.111-.299-.848.701-1.25 3.111-1.25 2.737 0 3.421.342 2.98 1.491-.434 1.13.722.909 4.782-.915 7.612-3.42 36.006-16.949 38.144-18.175 1.565-.897 1.835-2.853 2.133-15.464.721-30.561 1.846-51.488 2.833-52.711.565-.701.776-1.527.467-1.835-.308-.308-37.385-.518-82.392-.466-45.008.052-89.107-.201-97.998-.562l-16.167-.657-.56-3.103c-.308-1.707-.63-6.816-.716-11.353-.237-12.642-1.891-9.801-1.891 3.25m156.807 22.25c-3.136 3.652-3.264 7.25-.259 7.25 1.906 0 2.804-1.871 1.595-3.327-1.619-1.951.277-3.867 3.466-3.503 4.582.523 4.759 6.186.268 8.59-5.678 3.039-8.035 5.93-7.689 9.43.316 3.192 2.812 5.317 2.812 2.393 0-2.025 1.477-2.005 4.984.067 3.417 2.018 5.747 1.27 6.598-2.12.831-3.313-1.22-6.075-3.257-4.385-.978.812-1.091 1.489-.367 2.213.573.573 1.042 1.402 1.042 1.842 0 1.331-2.674.897-3.95-.64-.657-.792-2.175-1.603-3.373-1.802-1.976-.329-1.868-.542 1.171-2.31 8.497-4.943 9.935-7.798 6.537-12.983-1.963-2.996-7.279-3.392-9.578-.715m18.416-.193c-2.579 1.805-3.171 7.443-.782 7.443 2.043 0 2.929-1.85 1.633-3.411-1.604-1.933 1.235-3.979 4.413-3.182 4.543 1.14 3.551 6.821-1.596 9.142-4.864 2.194-7.158 5.289-6.714 9.059.344 2.914 2.823 4.648 2.823 1.975 0-1.983 2.021-2.034 4.559-.115 2.734 2.068 5.187 1.876 6.461-.506 1.27-2.373.415-5.962-1.421-5.962-2.255 0-2.642 1.295-.946 3.169 1.545 1.708 1.541 1.831-.069 1.831-.95 0-2.402-.675-3.227-1.5-.825-.825-2.394-1.5-3.487-1.5-2.911 0-1.344-1.767 3.647-4.113 4.665-2.193 6.329-5.611 4.923-10.115-1.269-4.063-6.088-5.108-10.217-2.215m69.556 7.692c-.933 2.678-.796 9.622.202 10.239.578.358.721 1.182.317 1.831-1.718 2.76-.227 15.1 2.113 17.494l2.26 2.313.134-3.563c.096-2.548-.29-3.563-1.355-3.563-1.702 0-.966-4.879.954-6.326.777-.586.732-.974-.154-1.333-.687-.279-1.25-1.333-1.25-2.341 0-1.008.563-2.062 1.25-2.341.941-.381.879-.769-.25-1.568-1.017-.719-1.097-1.065-.25-1.076 2.253-.027 1.421-6.32-1.16-8.766-1.64-1.556-2.51-1.865-2.811-1M148.5 135.661c-1.384 1.086-1.615 1.713-.75 2.037.688.258 1.25 1.092 1.25 1.854 0 .89-.626 1.163-1.75.762-1.21-.43-.902.29 1 2.336 1.53 1.646 2.75 4.108 2.75 5.548 0 2.452 2.113 4.356 3.402 3.066 1.194-1.194.56-5.341-.902-5.902-.825-.317-1.5-1.251-1.5-2.076 0-.945.574-1.28 1.552-.904.854.327 2.747-.187 4.206-1.143 1.46-.957 2.888-1.593 3.173-1.414 1.231.771.872-1.494-.527-3.325-1.351-1.769-1.665-1.823-2.716-.464-1.339 1.733-4.618 1.41-6.163-.607-.847-1.105-1.372-1.064-3.025.232m45.5 8.153c-2.179.706-3.083 2.513-1.697 3.394.81.516.632.766-.553.777-2.29.02-2.22 1.545.181 3.946 2.095 2.095 9.193 2.197 9.878.141.199-.596.85-.783 1.446-.414.698.431.849.055.423-1.055-.487-1.269-.201-1.656 1.08-1.46.958.147 2.764-.296 4.013-.984 4.39-2.419 5.482.197 1.759 4.214-2.16 2.331-2.322 2.989-1.294 5.245 1.088 2.389 1.547 2.542 6.219 2.083 6.161-.606 7.886-.99 8.579-1.911.294-.391 1.086.172 1.759 1.25 1.02 1.634.963 1.96-.344 1.96-.862 0-1.318.403-1.014.895.695 1.124-1.985 2.215-3.763 1.533-1.681-.645-6.672 1.208-6.672 2.477 0 .585 1.158.623 2.987.099 1.699-.487 3.221-.476 3.532.026.3.485 1.278.601 2.174.258 1.281-.492 1.508-.163 1.062 1.542-.312 1.193-.132 2.437.401 2.766.532.329 1.365 1.645 1.852 2.925 1.248 3.283 9.992 3.644 9.992.412 0-.41.9-.51 2-.223 3.243.848 2.288-1.24-1.5-3.28-1.925-1.037-3.5-2.472-3.5-3.189 0-.717-.675-1.563-1.5-1.879-2.176-.835-1.84-2.911.5-3.087 1.1-.083 2 .271 2 .787s.723.938 1.607.938c1.018 0 1.396.55 1.031 1.5-.35.914-.001 1.5.893 1.5.808 0 1.469.675 1.469 1.5s.367 1.5.815 1.5c1.069 0 .676-7.91-.448-9.029-.477-.475-2.667-1.454-4.867-2.177-2.859-.939-4.011-1.881-4.037-3.304-.02-1.094-.402-4.366-.848-7.271l-.811-5.28-10.902.135c-6.763.084-10.902.528-10.902 1.17 0 2.885-3.286 3.446-7.396 1.263-2.257-1.198-4.779-1.96-5.604-1.693m113.655 3.686c.51 3.72.339 4.5-.988 4.5-1.085 0-1.398.538-.966 1.664.43 1.119.256 1.427-.531.941-.644-.398-1.17-.246-1.17.336 0 .582.45 1.059 1 1.059s1 .42 1 .933c0 .514 2.285 3.28 5.078 6.147 3.415 3.507 4.922 5.811 4.602 7.037-.424 1.62.072 1.776 4.473 1.406 3.683-.309 5.093-.046 5.506 1.03.305.796 1.166 1.447 1.913 1.447.747 0 1.825.873 2.396 1.94.707 1.321 1.914 1.859 3.785 1.687 2.649-.245 8.449 1.805 10.962 3.873a415.3 415.3 0 012.75 2.289c1.274 1.07 1.535 1.028 1.535-.25 0-1.056 1.02-1.56 3.25-1.607 3.933-.082 2.057-1.017-5.75-2.865-2.75-.651-5.45-1.674-6-2.273-.701-.763-.477-.904.75-.473 1.258.443 1.75.096 1.75-1.236 0-1.181-.905-2.025-2.5-2.33-2.726-.521-3.169.176-1.3 2.045.933.933.933 1.2 0 1.2-.66 0-1.2-.45-1.2-1s-1.334-1-2.965-1c-3.481 0-5.522-2.925-4.601-6.593.653-2.602-.316-3.125-2.234-1.207-.829.829-1.2.856-1.2.087 0-.807-.868-.793-3.156.05-2.475.912-3.249.892-3.586-.093-.236-.691-.786-1.036-1.223-.766-1.027.635-6.035-4.36-6.035-6.021 0-.736-.766-1.07-1.82-.794-1.001.262-2.406-.23-3.122-1.093-1.114-1.343-.995-1.57.82-1.57 2.44 0 2.809-1.516.661-2.718-1.161-.65-.853-1.226 1.497-2.8 1.627-1.09 2.96-2.512 2.961-3.159.002-.931-5.201-4.323-6.632-4.323-.179 0-.049 2.025.29 4.5m-43.18-.421c-.382 1.202-.982 1.773-1.334 1.27-.353-.504-2.328-.901-4.391-.882-3.431.03-3.75.271-3.75 2.827 0 2.106.431 2.721 1.75 2.5 1.185-.199 1.857.462 2.082 2.049.279 1.974.003 2.239-1.75 1.683-1.671-.53-2.082-.234-2.082 1.502 0 2.261 2.787 7.962 4.486 9.177 2.234 1.597 3.143-5.76 1.117-9.039-.325-.526.138-1.236 1.029-1.578 1.834-.704 4.637 1.168 3.794 2.532-.304.492.11 1.148.92 1.459 1.075.413 1.268 1.289.715 3.243-1.919 6.785-.855 10.529 3.636 12.798 7.582 3.828 12.303 4.931 12.303 2.874 0-.822.45-1.494 1-1.494s1-.49 1-1.088c0-.712-1.357-.858-3.925-.425-6.689 1.13-11.152-3.013-11.613-10.782-.337-5.668.804-6.839 5.905-6.061 5.224.797 7.633 2.025 7.633 3.891 0 1.465 1.932 2.131 2.077.715.042-.412.229-1.552.416-2.532.423-2.22-3.574-4.981-6.576-4.542-1.492.219-2.295-.244-2.475-1.426-.303-2.001 1.137-2.381 1.896-.5.31.77.534.6.583-.441.103-2.205-1.79-3.34-3.208-1.922-2.837 2.837-9.368-.275-8.394-3.999.736-2.815-1.977-4.54-2.844-1.809m143.286-.695c-.957.727-2.42 2.948-3.25 4.936-5.07 12.134 4.695 24.994 11.773 15.504 6.664-8.935-.631-26.432-8.523-20.44M423 150c0 2.2.45 4 1 4s1-1.125 1-2.5.337-2.557.75-2.628c6.272-1.067 6.989-.262 3.717 4.173-3.167 4.293-3.105 4.955.466 4.955 4.733 0 5.635 8.05 1.065 9.501-3.956 1.255-6.248-.355-5.579-3.919.671-3.581.087-4.713-2.017-3.906-2.146.824-1.74 6.708.611 8.836 5.017 4.54 11.987.977 11.987-6.128 0-3.131-.592-4.858-2.17-6.328-1.98-1.844-2.034-2.178-.619-3.789.854-.972 1.861-2.779 2.238-4.017.663-2.175.466-2.25-5.882-2.25H423v4m-15.551 1.468c-2.9 6.939-1.103 15.716 3.347 16.354 1.761.253 2.565-.442 3.725-3.218 2.82-6.749.73-16.604-3.521-16.604-1.453 0-2.549 1.07-3.551 3.468m-222.997 9.282c.585 1.926.313 2.25-1.885 2.25-1.412 0-2.567-.45-2.567-1 0-2.845-3.051-.524-4.015 3.054-.767 2.852-1.594 4.004-2.788 3.885-.933-.093-1.922-.071-2.197.05-3.53 1.55-11.727-.003-10.5-1.989.263-.425-.276-1.387-1.198-2.137-1.469-1.195-1.593-1.14-.999.443.455 1.213-.124 2.606-1.768 4.25-2.1 2.1-2.193 2.444-.659 2.444.983 0 2.388 1.125 3.124 2.5 2.111 3.945 11.501 3.124 14.3-1.25 1.117-1.746 3.036-1.568 2.351.218-.31.807-.094 1.758.48 2.113s.812 1.527.53 2.606c-.925 3.537 2.771 6.064 7.114 4.865 4.568-1.262 14.786 1.272 16.555 4.105 1.502 2.405 2.67 2.346 2.67-.136 0-1.718.312-1.836 2.369-.899 1.828.833 3.026.724 5.25-.481 2.543-1.378 2.63-1.566.738-1.601-1.179-.022-2.427-.779-2.774-1.683-.748-1.951-.705-2.006 2.447-3.172 2.313-.856 2.237-.935-1.286-1.346-3.477-.406-3.744-.252-3.744 2.162 0 1.429.54 3.139 1.2 3.799.933.933.877 1.2-.253 1.2-.8 0-2.671-1.29-4.159-2.866-2.422-2.567-2.556-3.062-1.278-4.75 2.179-2.878 1.779-4.794-1.51-7.226-1.65-1.22-3-2.624-3-3.121 0-2.672 9.403-1.659 9.594 1.034.295 4.161.341 4.228 1.954 2.889 3.104-2.576-1.078-8.916-6.256-9.485-.986-.109-2.496-.501-3.357-.872-.861-.371-2.661-.254-4 .261-2.122.815-2.21 1.027-.685 1.643.963.389 1.75 1.383 1.75 2.208 0 2.364-4.944.672-8.865-3.034-2.986-2.822-3.288-2.927-2.683-.931m-3.785 3.917c-1.209 1.208-.695 5.162.875 6.732 1.389 1.389 1.286 1.606-1.044 2.191-3.286.825-2.708 2.808.943 3.237 1.734.204 2.977 1.054 3.289 2.25.537 2.05 2.743 2.586 3.774.916.343-.554-.092-1.281-.966-1.617-1.223-.469-1.326-.926-.45-1.982 1.518-1.83 2.912-.831 2.912 2.087 0 2.943 6.62 5.752 8.061 3.421.575-.93-.045-1.696-2.057-2.542-2.082-.876-3.217-2.339-4.1-5.285-1.052-3.513-1.609-4.075-4.037-4.075-2.117 0-3.2-.744-4.367-3-1.667-3.224-1.818-3.349-2.833-2.333m110.805 8.067c-.394 1.778-1.111 2.989-1.594 2.691-.483-.299-.878-.066-.878.516 0 .582.914 1.059 2.031 1.059 2.701 0 3.767 2.944 1.631 4.505-1.907 1.394-2.159 2.495-.572 2.495.599 0 1.934-1.012 2.966-2.25 1.506-1.805 1.884-1.925 1.911-.607.041 2.015 3.107 3.356 4.078 1.784.524-.848.891-.839 1.431.034.4.647 1.271.966 1.937.711 2.561-.983 6.02 2.97 5.775 6.601-.214 3.178-.016 3.438 2.54 3.337 1.525-.061 3.075-.531 3.446-1.046.4-.556 1.289-.425 2.19.323.834.693 2.374 1.114 3.423.936 1.048-.178 2.693.331 3.656 1.13 1.544 1.281 1.863 1.252 2.703-.25.525-.937 1.831-1.703 2.904-1.703 2.381 0 2.614-2.725.271-3.177-1.562-.301-1.559-.442.036-2.037.943-.943 1.586-2.062 1.429-2.487-.533-1.44 3.575-1.525 4.648-.096.586.782 1.854 1.716 2.816 2.078 2.599.975 2.118 2.719-.75 2.719-2.827 0-3.207 1.683-1.032 4.559 1.213 1.603 1.474 1.662 1.5.338.025-1.273 1.096-1.582 5.211-1.5 2.849.057 5.69-.408 6.314-1.032.846-.847 1.742-.809 3.528.146 1.655.886 3.155.992 4.859.344 2.792-1.061 5.562-.38 4.624 1.138-.342.554-1.495 1.007-2.563 1.007s-1.941.45-1.941 1c0 1.345 3.326 1.274 4.699-.099 1.378-1.378 5.301-.223 5.301 1.559 0 2.087 2.744 2.626 3.263.642 1.03-3.939-4.728-8.179-11.952-8.802-3.196-.275-6.599-1.2-7.561-2.055-1.606-1.427-1.75-1.378-1.75.6 0 2.721-2.648 2.838-3.5.155-.349-1.1-.947-2-1.328-2-.381 0-1.823-1.048-3.205-2.329-4.317-4.004-13.967-2.339-13.967 2.41 0 .551-.9 1.969-2 3.149l-2 2.147v-2.213c0-1.499-.888-2.545-2.75-3.24-1.512-.565-3.476-1.968-4.363-3.119-2.053-2.664-3.728-1.673-3.248 1.921.203 1.526.072 2.099-.292 1.274-1.149-2.6-4.704-4.473-8.847-4.66-5.593-.252-5.5-.23-5.5-1.34 0-.55.337-.947.75-.882 1.867.295 3.25-.206 3.25-1.177 0-.582-.45-.781-1-.441s-1 .181-1-.352c0-1.053-1.841-1.004-3.597.095-1.135.709-5.748-3.599-6.685-6.243-.33-.932-.802-.276-1.246 1.734m-202.919 9.494c-.988 1.41-1.186 2.394-.527 2.614.663.221.712.782.131 1.505-.603.752-.091 2.458 1.473 4.903 3.902 6.099 6.941 4.766 10.187-4.469l1.921-5.467-3.325-.125c-2.745-.103-3.216.175-2.7 1.593.578 1.586.479 1.595-1.293.12-3.457-2.877-4.26-2.969-5.867-.674m55.447.161c0 .918-.82 1.611-1.906 1.611-1.414 0-1.772.517-1.384 1.998.596 2.281 6.745 8.009 8.575 7.988 3.255-.036 5.715-1.372 5.715-3.103 0-1.035.477-1.883 1.059-1.883s.805-.412.494-.915c-.311-.503 0-1.116.691-1.363.691-.246.894-.834.452-1.306-.443-.472-1.168-.271-1.611.447-.61.987-1.289.694-2.78-1.202-2.445-3.109-9.305-4.784-9.305-2.272m94.651-.634c-.59.955 2.828 5.245 4.18 5.245.555 0 1.317 1.396 1.691 3.102.591 2.691 4.256 7.785 4.603 6.398l.375-1.5c.137-.55.335-1.562.438-2.25.104-.687.675-.125 1.268 1.25 1.044 2.417 1.111 2.355 2.018-1.86 1.011-4.703.377-9.14-1.306-9.14-.574 0-.964.787-.866 1.75.601 5.908-3.004 7.599-3.783 1.775-.219-1.636-.874-3.549-1.456-4.25-1.142-1.376-6.397-1.757-7.162-.52M434 188.645c-5.225 2.518-12.762 6.077-16.75 7.909-3.988 1.833-7.25 3.834-7.25 4.448 0 .614-.419.857-.931.54-1.093-.675-8.069 2.458-8.069 3.624 0 .438 1.238 1.099 2.75 1.469 1.512.37 2.975.941 3.251 1.269.945 1.126 7.162 4.096 8.572 4.096.775 0 1.934-.839 2.575-1.865 1.458-2.334 4.514-1.699 7.602 1.579 2.752 2.922 2.833 3.606.333 2.812-1.553-.493-1.816-.221-1.383 1.433.771 2.949-4.051 2.806-6.143-.182-1.503-2.145-1.557-2.059-1.557 2.5 0 3.532.378 4.723 1.5 4.723.825 0 1.5-.675 1.5-1.5 0-1.893 1.085-1.903 3.559-.032 3.7 2.799 9.192 1.683 6.241-1.268-.836-.836-.861-1.2-.082-1.2 2.146 0 4.282 1.223 4.282 2.452 0 .802 1.904.278 5.394-1.482 7.478-3.772 7.586-3.857 6.967-5.471-.451-1.175-1.443-.984-5.456 1.049L436 218.034v-5.967c0-4.629-.393-6.196-1.75-6.987-3.325-1.937 2.17-1.242 6.89.871 2.397 1.073 4.724 1.585 5.171 1.138 1.238-1.238-.377-23.096-1.703-23.055-.61.018-5.383 2.093-10.608 4.611m-316.543-2.714a1.104 1.104 0 01-.367 1.513c-.533.33-.607 1.772-.17 3.319.425 1.506.6 3.237.389 3.848-.528 1.531 4.242 4.499 6.09 3.789.827-.317 2.011-2.112 2.63-3.988.619-1.877 1.793-3.412 2.608-3.412.814 0 1.227-.412.916-.915-.311-.503 0-1.142.691-1.421.691-.278.244-.542-.994-.585-1.298-.046-2.25-.714-2.25-1.579 0-.848-.895-1.5-2.059-1.5-1.132 0-1.81.403-1.506.895.305.493-.156 1.168-1.023 1.5-2.496.958-3.412.718-3.412-.895 0-.825-.477-1.5-1.059-1.5s-.8.419-.484.931M169.5 186c-.34.55-1.407 1-2.37 1-3.189 0-6.225 3.773-5.468 6.796.929 3.712 3.856 8.352 4.723 7.486.686-.686 3.946-1.252 8.115-1.41 1.1-.042 1.442-.291.759-.554-.939-.362-.878-.842.25-1.97 1.948-1.948 2.083-5.084.149-3.479-.738.612-1.638.818-2 .456-1.16-1.16-.705-4.041.842-5.325.825-.685 1.5-1.73 1.5-2.322 0-.702-.418-.66-1.2.122-1.724 1.724-4.134 1.514-3.438-.3.639-1.666-.888-2.076-1.862-.5m16 1c-.34.55-.297 1 .096 1s-.143.947-1.191 2.105c-2.871 3.171-2.668 7.178.325 6.427 3.579-.899 13.27-5.671 13.27-6.535 0-2.458-11.177-5.138-12.5-2.997m94.616 1.191c-.064 1.48-.566 2.969-1.116 3.309-1.764 1.09-1.07 3.248 1.25 3.883 3.058.838.542 2.491-2.815 1.849-1.774-.339-2.435-.023-2.435 1.164 0 1.356.842 1.546 5 1.132 3.797-.377 5-.169 5 .865 0 .749.67 1.918 1.488 2.597 2.182 1.811 3.202-1.443 1.109-3.536-1.45-1.45-2.158-3.454-1.219-3.454 1.709 0 7.582 3.256 7.146 3.961a1.069 1.069 0 00.355 1.464c1.05.649 2.383-2.192 1.612-3.439-.283-.458-2.695-1.557-5.359-2.442-5.093-1.692-8.605-4.692-9.416-8.044-.374-1.545-.51-1.387-.6.691m-69.366-.029c-5.281 1.929-3.345 14.838 2.225 14.838 3.706 0 3.977 1.544.428 2.435-2.858.717-2.787 4.517.139 7.505 2.092 2.137 2.589.866.92-2.35-2.3-4.433-1.138-4.92 3.634-1.522 1.597 1.138 2.955 1.925 3.018 1.75.063-.175.266-1.628.453-3.23.186-1.601.922-3.275 1.636-3.719 1.048-.653 1.055-1.198.039-2.838-.693-1.117-.843-2.031-.334-2.031.509 0 1.152.563 1.43 1.25.277.688.54-.213.583-2 .043-1.787-.398-3.25-.98-3.25s-.781.45-.441 1-.098 1-.972 1c-.875 0-1.891-.787-2.259-1.75-.367-.963-1.478-2.622-2.469-3.689-.99-1.066-1.8-2.528-1.8-3.25 0-1.518-1.393-1.557-5.25-.149m-13.75 6.02a803.442 803.442 0 01-8.783 3.942c-3.794 1.667-4.162 2.111-3.215 3.879 1.289 2.409 6.154 2.698 8.355.497.825-.825 1.757-1.5 2.072-1.5 1.119 0 .546 2.168-.977 3.69-2.012 2.013-1.569 2.34 3.678 2.723 2.404.175 5.083.623 5.954.996 1.302.557 1.594-.089 1.636-3.616.028-2.361-.161-3.481-.419-2.488-.74 2.849-2.801 1.333-2.801-2.061 0-1.689-.338-3.41-.75-3.824-1.109-1.114-.911-2.637.25-1.92.55.34 1-.084 1-.941 0-1.956-.468-1.907-6 .623m76.525-1.222c-.372.601-1.204 1.028-1.85.948-6.128-.756-8.638 1.502-8.083 7.27.325 3.365 2.408 8.173 2.408 5.556 0-.367 1.35.653 3 2.266s3 3.398 3 3.966c0 1.488 1.657 1.279 1.714-.216.026-.687.375-2.037.774-3 .436-1.05.283-1.75-.381-1.75-.609 0-1.107-.637-1.107-1.416 0-.779-1.35-2.014-3-2.744-3.557-1.575-3.881-2.578-.75-2.321 3.009.246 4.873-.511 4.148-1.684-.325-.526-.037-2.293.64-3.927 1.205-2.909.822-5.109-.513-2.948m-182.54 9.79c-.049 2.397-1.764 3.405-3.719 2.184-2.438-1.523-5.696-.498-4.912 1.545.308.805-.148 2.173-1.016 3.04-.867.867-1.301 1.851-.966 2.187.336.335.109 1.214-.503 1.952-1.419 1.71.081 3.664 4.085 5.323 3.993 1.654 9.485-2.095 8.547-5.834-.486-1.934-.285-2.278 1.032-1.773 1.092.419 1.441.212 1.051-.623-.32-.688-.86-2.038-1.2-3.001-.339-.963-.973-1.75-1.407-1.75-.434 0-.554-.9-.267-2 .288-1.1.246-2-.093-2-.34 0-.624.338-.632.75M106 204.044c0 .574-.562.971-1.25.881-2.976-.386-3.444.237-3.246 4.325.271 5.611.387 6.192 1.092 5.488.327-.328 2.176.291 4.108 1.376 3.365 1.89 3.567 1.898 4.837.18 1.132-1.533 1.08-1.845-.358-2.141-2.464-.508-4.157-2.403-1.775-1.987 1.381.242 2.123-.452 2.69-2.517.688-2.506.548-2.79-1.157-2.344-2.265.592-2.653-1.095-.447-1.941.822-.316 1.246-.976.941-1.469-.773-1.251-5.435-1.124-5.435.149m63.831 2.492c-3.054 1.651-5.33 7.34-4.407 11.017.351 1.397.177 2.447-.405 2.447-.56 0-.119.9.981 2 2.334 2.334 11.507 2.975 10.73.75-.24-.687.473-1.756 1.584-2.375 2.01-1.119 2.01-1.131-.146-2.285-1.192-.638-2.168-1.835-2.168-2.66 0-1.173.422-1.275 1.934-.465 3.399 1.819 3.382 1.13-.068-2.794-1.851-2.106-3.816-4.56-4.366-5.454-.889-1.444-1.296-1.465-3.669-.181m58.135-.509c-1.208.752-1.245 1.269-.208 2.942.693 1.117.858 2.031.367 2.031-.49 0-1.107 1.125-1.37 2.5-.344 1.803-.043 2.5 1.084 2.5 1.214 0 1.294.267.361 1.2-.66.66-1.2 1.56-1.2 2 0 1.194 3.434.966 4.713-.313.611-.611 1.677-.924 2.368-.693.691.23-.395 1.202-2.413 2.159-4.537 2.153-4.707 3.642-.418 3.662 2.202.011 2.813.293 1.893.875-.946.6-1.021 1.067-.25 1.544 1.478.913 3.361-.33 2.783-1.837-.254-.661.624-2.246 1.951-3.523 1.742-1.677 2.126-2.667 1.38-3.565-.73-.881-.59-1.61.481-2.499 3.52-2.921 1.387-3.515-5.145-1.431-1.618.517-1.589.362.234-1.265 2.825-2.522 2.086-4.517-1.209-3.264-3.557 1.353-5.057 1.175-2.969-.353 2.269-1.659-.02-4.171-2.433-2.67m-174.362 4.599c-2.176 2.617-2.611 3.767-1.75 4.628.63.63 1.146 1.94 1.146 2.911 0 2.581 3.488 4.179 6.086 2.789 1.147-.614 1.826-1.376 1.508-1.693-.317-.317-.038-1.226.621-2.02 1.363-1.643 1.94-4.241.941-4.241-.367 0-1.265-1.35-1.996-3-1.69-3.818-2.961-3.696-6.556.626M120 207.95c0 .523.787 1.409 1.75 1.97 1.563.91 1.509 1.022-.5 1.05-1.237.016-2.25.48-2.25 1.03s.986 1 2.191 1c2.141 0 2.147.033.25 1.468-1.892 1.432-1.885 1.469.309 1.5 1.237.018 2.25.514 2.25 1.103 0 1.366 2.536 3.929 3.887 3.929 4.199 0 10.07-5.642 8.506-8.174-.965-1.561-2.33-.825-1.714.924.502 1.429.368 1.52-.732.5-1.943-1.803-4.732-1.536-5.219.5-.389 1.625-.475 1.618-1.219-.101-.527-1.219-.324-2.152.595-2.735 1.454-.92.162-1.376-2.823-.996-.67.085-1.791-.761-2.49-1.881-1.334-2.137-2.791-2.704-2.791-1.087m258.009 2.539c-1.788 2.154-.393 8.218 2.288 9.947 2.526 1.63 14.703 2.852 14.703 1.476 0-.502-.644-.912-1.43-.912-1.991 0-2.408-4.215-.578-5.832 1.325-1.17 1.296-1.264-.242-.781-2.251.708-4.75-.253-4.75-1.827 0-.713-1.338-1.227-3.194-1.227-1.757 0-3.37-.525-3.584-1.166-.529-1.587-1.729-1.466-3.213.322M43 222.883c0 .486-.827 1.1-1.838 1.364-3.74.978-.209 13.753 3.802 13.753.758 0 3.577-5.614 4.896-9.75.818-2.566.754-3.25-.305-3.25-.738 0-1.6-.675-1.917-1.5-.608-1.587-4.638-2.122-4.638-.617m374 6.617c0 2.501.471 4.5 1.059 4.5.582 0 .81.403.506.895-.305.493.183 1.178 1.084 1.524 2.467.946 2.967-.247.778-1.858-1.826-1.344-1.833-1.455-.134-2.113.986-.382 1.886-.527 2-.322.114.206 1.332 1.667 2.707 3.248l2.5 2.874-2.401-.739c-1.958-.603-2.287-.442-1.782.876.946 2.465 1.155 2.539-11.953-4.244-7.674-3.972-9.79-2.309-3.614 2.84l3.75 3.126-2.393 1.972c-2.068 1.706-2.61 1.784-4 .577-1.799-1.562-4.107-1.142-4.107.747 0 1.166 13.226 7.605 15.611 7.599.623-.001.917 1.015.67 2.309-.486 2.541 2.074 5.542 3.189 3.738.356-.577.141-1.049-.478-1.049-1.202 0-.678-2.849 1.24-6.75 1.404-2.856 3.78-3.011 3.044-.198-.457 1.749-.184 1.963 1.854 1.452 1.638-.412 3.081.044 4.588 1.448 1.209 1.126 2.83 2.048 3.603 2.048 1.416 0 1.553 3.777.214 5.943-.868 1.405.765 1.357 2.187-.065.617-.617.884-1.742.593-2.5-.291-.758-.004-1.378.637-1.378s.888.45.548 1c-1.056 1.708 2.837 1.092 6.25-.989 1.788-1.09 3.25-2.483 3.25-3.095 0-.633-1.534-.208-3.557.985-3.911 2.307-6.984 2.825-4.193.707 2.071-1.572 2.311-2.76.41-2.031-2.168.832-4.178-2.248-2.66-4.077 1.693-2.04 2.461-1.904 5.574.981 1.473 1.365 3.027 2.266 3.453 2.002 1.018-.629.381-18.488-.696-19.507-2.091-1.981-8.63-4.976-10.861-4.976-2.431 0-3.317 1.358-1.585 2.429 1.53.946 1.862 6.536.457 7.702-2.09 1.735-4.157.35-3.625-2.43.328-1.716-.16-2.898-1.617-3.919-1.148-.804-1.777-1.772-1.398-2.151 2.468-2.468.934-3.631-4.79-3.631H417v4.5m-67.301-.475c-2.09.372-4.284 1.16-4.875 1.751-1.585 1.585-.109 8.224 1.828 8.224.978 0 1.347-.561.986-1.5-.316-.825-.027-1.57.643-1.657 5.113-.656 6.952-.398 7.507 1.055 1.272 3.334 2.611 4.005 4.544 2.279 1.699-1.517 1.902-1.51 2.8.094 1.19 2.126 2.868 2.261 2.868.229 0-.825-.525-1.5-1.167-1.5-.641 0-.894-.273-.56-.606 1.339-1.339-4.327-5.53-7.046-5.213-2.091.245-2.662-.072-2.45-1.356.372-2.257-.591-2.598-5.078-1.8m40.297 2.749c-3.889 1.578-7.013 4.463-6.964 6.434.043 1.746 2.434 4.792 3.761 4.792.59 0 1.358.9 1.707 2s1.279 2 2.067 2c1.881 0 1.81-.926-.243-3.195-1.286-1.42-1.402-2.127-.5-3.029.901-.901 1.176-.863 1.176.164 0 2.139 2.96 3.719 6.103 3.258 3.277-.481 4.066-3.983 1.397-6.198-.825-.685-1.5-1.681-1.5-2.215 0-.533-.789-1.973-1.754-3.199-1.649-2.096-1.962-2.145-5.25-.812M84.631 252.305c-.794 3.035.154 4.224 5.608 7.034l5.146 2.651 1.28-3.045c1.138-2.706 1.518-2.917 3.42-1.9 1.176.63 3.22.939 4.542.686 1.885-.36 2.531.05 2.996 1.905.327 1.3 1.258 2.364 2.069 2.364.824 0 1.218-.552.892-1.25-.321-.687-.86-2.038-1.2-3-.339-.962-1.015-1.75-1.501-1.75-.485 0-.883-.477-.883-1.059s.45-.781 1-.441 1-.282 1-1.382c0-2.716-1.519-3.456-3.345-1.63-.829.828-2.22 1.232-3.092.898-1.158-.445-1.419-.174-.967 1.003.487 1.268-.043 1.611-2.489 1.611-2.532 0-3.122-.416-3.186-2.25-.043-1.238-.312-1.669-.597-.958-.333.829-.931.961-1.671.368-2.458-1.968-8.495-1.872-9.022.145m-25.253 3.679c-1.166.471-2.413 2.017-2.769 3.436-.356 1.419-1.089 2.58-1.628 2.58-.54 0-.981.675-.981 1.5s-.436 1.5-.969 1.5c-1.175 0-.14 2.997 1.668 4.826 2.185 2.211 8.194-.348 9.823-4.185.735-1.73.952-3.533.484-4.013-.467-.479-.61-1.498-.316-2.263.52-1.356-1.31-4.428-2.562-4.302-.346.035-1.583.449-2.75.921M264 260.245c-1.375.611-4.93 2.22-7.9 3.576-2.971 1.357-6.121 2.518-7 2.581-.88.064-2.725.863-4.1 1.776-1.375.913-5.875 3.09-10 4.838-4.125 1.748-9.59 4.089-12.144 5.202l-4.643 2.024-4.537-3.121c-2.495-1.716-5.13-3.114-5.856-3.106-2.426.026-9.572 2.877-13.02 5.194-1.875 1.26-6.165 3.596-9.534 5.191-7.324 3.468-6.62 1.089-8.879 30.021l-1.79 22.921-4.726 1.997c-5.778 2.441-5.745 2.333-6.536 21.243l-.632 15.082 3.899 1.643c2.144.904 11.098 4.962 19.898 9.018l16 7.376-.294 9.899c-.162 5.445-.642 12.172-1.067 14.949-1.213 7.923-1.89 7.323 16.783 14.876l11.314 4.576 5.132-1.438A5830.64 5830.64 0 01249 432.497a2632.632 2632.632 0 0020-5.644c5.775-1.658 13.087-3.709 16.25-4.557 5.795-1.554 7.009-2.599 4.25-3.658-.825-.316-1.5-1.209-1.5-1.984 0-.775-.675-1.969-1.5-2.654-1.036-.86-1.5-.898-1.5-.122 0 1.977-2.698 1.219-10.188-2.864-4.021-2.192-8.016-3.992-8.876-4-2.063-.018-1.5-33.593.598-35.691 1.352-1.352 2.587-.471 3.753 2.677.316.855.589.317.634-1.25.043-1.512.529-2.75 1.079-2.75.55 0 1-.45 1-1s-.765-1-1.7-1c-1.322 0-1.433-.267-.5-1.2 1.456-1.456 1.582-5.446.2-6.3-.55-.34-1.007.196-1.015 1.191-.013 1.547-.166 1.592-1.051.309-.77-1.115-.921-.525-.588 2.299.303 2.574.078 3.676-.699 3.417-.735-.245-1.207-3.69-1.313-9.59-.162-9.015-.121-9.193 2-8.538 7.422 2.292 24.013 13.065 23.237 15.088-.314.818-.571 1.676-.571 1.906 0 .23-.761.418-1.691.418-1.475 0-1.443.188.25 1.468 1.067.808 1.468 1.483.891 1.5-.578.018-1.59-.508-2.25-1.168-.933-.933-1.232-.767-1.342.75-.387 5.292-.155 6.851 1.079 7.262 1.001.334 1.176-.225.685-2.182-.496-1.975-.282-2.63.859-2.63.835 0 1.519.499 1.519 1.109 0 1.501 5.175.652 11.885-1.948 3.844-1.49 5.899-1.812 7.184-1.124 2.414 1.292 3.181 1.213 2.684-.278-.711-2.132 1.551-3.435 13.579-7.826 11.278-4.117 14.029-6.217 9.918-7.573-4.749-1.565-14.598-6.93-17.64-9.61-1.093-.962-2.625-1.75-3.406-1.75-.839 0-1.187-.602-.852-1.475.311-.811.627-8.236.701-16.5.078-8.628.536-15.025 1.076-15.025.545 0 .491-.842-.129-2-.589-1.1-1.514-2-2.057-2-1.655 0-19.459-12.13-21.07-14.355-.346-.477-.412-1.692-.148-2.701.357-1.365-.042-1.796-1.553-1.682-1.119.084-1.813.51-1.544.946.27.435.013.792-.569.792s-1.059-.723-1.059-1.607c0-.935.562-1.391 1.344-1.091.964.37 1.213-.169.881-1.908-.359-1.875-.114-2.289 1.083-1.829 1.175.45 1.415.094 1.002-1.486-.779-2.981-2.09-2.568-3.726 1.171-1.517 3.469-1.607 3.221-1.897-5.213l-.187-5.462-9.35-6.288c-5.142-3.458-9.642-6.257-10-6.219-.357.037-1.775.567-3.15 1.177m-127.122 3.505c-3.746 2.74-6.717 4.25-8.364 4.25-.833 0-1.514.45-1.514 1s-.675 1-1.5 1c-1.815 0-1.964 2.136-.267 3.833.977.977.769 1.354-1 1.816-2.478.648-2.661 1.153-1.218 3.351.686 1.045 1.212 1.162 1.735.386.421-.624 1.604-.808 2.696-.418 1.85.661 1.838.725-.25 1.27-1.208.316-2.196 1.117-2.196 1.78 0 1.177 4.789.768 8.735-.747 1.057-.405 1.35-.217.87.559-.48.777.137 1.17 1.836 1.17 1.407 0 2.559-.45 2.559-1s-1.012-1.016-2.25-1.035l-2.25-.036 2.184-1.214c1.202-.668 2.138-1.44 2.081-1.715-.057-.275.439-1.512 1.101-2.75 1.354-2.529.046-3.054-1.866-.75-.685.825-1.88 1.5-2.656 1.5-.807 0 .144-1.554 2.22-3.631 2.847-2.846 3.34-3.835 2.283-4.576-1.05-.737-1.071-1.057-.097-1.452 1.4-.569 1.735-4.341.385-4.341-.476 0-1.942.788-3.257 1.75m255.007 6.101c-1.312 1.018-3.06 2.107-3.885 2.421-1.002.381-.753.596.75.649 1.238.043 2.25.479 2.25.968s-.562.868-1.25.842c-4.25-.157-4.591.208-4.218 4.519.202 2.337.39 4.614.418 5.059.027.445.518.52 1.091.166.572-.354.767-1.505.432-2.559-.474-1.495-.099-1.941 1.71-2.032 1.781-.089 1.899-.224.512-.584-2.64-.684-1.491-2.715 1.887-3.337 4.106-.755 7.418.013 7.418 1.721 0 .922-.637 1.252-1.75.906-.962-.299-2.372-.154-3.132.324-1.999 1.255 2.2 2.451 5.132 1.462 1.238-.418 3.038-.645 4-.505 1.029.15 1.75-.389 1.75-1.308 0-2.024 2.415-1.993 5.566.072 2.851 1.868 2.92 1.834 3.814-1.891.594-2.476.277-2.922-3.109-4.377-2.074-.892-4.981-2.248-6.46-3.014-2.377-1.233-2.797-1.201-3.622.273-.867 1.55-1.098 1.551-3.283.021-2.938-2.058-3.114-2.052-6.021.204m-177.806 14.007c-.054.932-.845 1.167-2.518.747-3.219-.808-3.518-.137-4.396 9.87-.586 6.684-.468 8.525.544 8.525.71 0 1.291.45 1.291 1s.649 1 1.443 1 2.032.812 2.75 1.805c.719.994 2.207 1.828 3.307 1.856 1.1.027 2.787.388 3.75.801 1.252.538 1.75.295 1.75-.855 0-.884.505-1.607 1.122-1.607.811 0 .799-.39-.041-1.403-.894-1.077-.865-1.523.127-1.921.989-.396.999-.537.042-.597-.687-.043-1.25-.768-1.25-1.61 0-.843-.672-1.79-1.494-2.105-.822-.316-1.203-1.046-.846-1.623.379-.613.169-.753-.505-.336-.635.392-1.155.236-1.155-.346 0-1.287 1.021-1.331 2.922-.128 1.002.634 1.964.212 3.25-1.423 2.342-2.977 2.3-3.444-.247-2.778-1.616.422-2.003.13-1.75-1.321.179-1.025-.125-1.896-.675-1.936-3.007-.215-5.477-1.875-6.353-4.269-.544-1.487-1.025-2.093-1.068-1.346M55.017 301.696c-1.478 1.699-1.914 2.838-1.18 3.083 1.423.474 1.541 3.869.163 4.721-.55.34-1 1.111-1 1.714s.859.318 1.909-.632c1.817-1.644 1.941-1.631 2.548.282.351 1.106 1.94 2.587 3.532 3.291 1.942.86 2.591 1.646 1.972 2.392-.507.61-1.056 1.975-1.22 3.031-.164 1.057-.621 2.437-1.014 3.067-.402.644.012 1.425.946 1.783 1.35.518 1.419.866.369 1.855-1.016.957-1.39.95-1.75-.033-.252-.687-.887-1.25-1.411-1.25-.572 0-.538.772.087 1.939 1.425 2.664-.541 3.757-2.907 1.616-1.616-1.462-1.879-1.473-2.406-.098-.326.849-1.281 1.543-2.124 1.543-1.945 0-1.965 1.395-.042 2.991 1.643 1.364 1.019 3.441-.713 2.371-.616-.381-.8-.21-.424.398.363.588.095 1.259-.596 1.492-.984.331-.959.783.116 2.085 1.361 1.648 5.237 2.355 5.01.913-.423-2.677.27-3.429 2.618-2.839 2.673.671 3.508-.81 1-1.773-.825-.316-1.5-1.264-1.5-2.107 0-1.804.106-1.822 3.417-.563 2.101.799 2.731.624 3.6-1 .579-1.082 1.911-1.968 2.959-1.968s2.184-.45 2.524-1c.34-.55.141-1-.441-1-1.717 0-1.213-2.551.878-4.443 2.465-2.231 4.491-1.226 3.031 1.504-.571 1.066-.756 1.939-.411 1.939 1.44 0 5.998-4.32 6.677-6.329.424-1.253.525-.375.238 2.079-.39 3.345-.174 4.25 1.016 4.25.845 0 1.512.882 1.512 2 0 1.9.961 2.435 3.734 2.078.714-.092.99.478.654 1.353-.506 1.318-.17 1.307 2.621-.086 2.253-1.123 2.824-1.83 1.925-2.385-1.023-.633-.995-1.252.145-3.125 1.577-2.592 1.396-9.835-.246-9.835-.576 0-.815.603-.533 1.341.946 2.464-.823 3.993-2.583 2.233-1.99-1.99-2.717-1.99-2.717-.001 0 3.924-3.25.762-3.635-3.536-.278-3.109-1.21-5.31-3.069-7.25-2.846-2.97-4.455-3.581-4.046-1.537.162.809-.719 1.149-2.5.962-2.596-.272-3.376.826-2.868 4.038.065.413-.782.75-1.882.75-1.333 0-2-.667-2-2 0-1.111.667-2 1.5-2 .825 0 1.5-.45 1.5-1s-1.155-1-2.567-1c-2.113 0-2.455-.355-1.933-2 .349-1.1.227-2-.272-2s-1.42-1.125-2.046-2.5c-1.467-3.22-3.245-3.163-6.165.196M299.5 302c-.34.55-.405 1.345-.144 1.766.26.422-.576 1.262-1.859 1.868-1.991.939-2.409.812-2.848-.867-.71-2.715-2.58-1.305-1.968 1.484.396 1.807.282 1.954-.579.749-.788-1.104-1.075-1.154-1.087-.191-.008.733-.523.995-1.17.596-.715-.443-.883-.275-.44.44.392.635.299 1.155-.207 1.155-1.43 0-.155 5.35 1.609 6.75 1.427 1.132 1.42 1.25-.066 1.25-.903 0-2.087-.788-2.63-1.75-.783-1.385-.953-1.02-.814 1.75.096 1.925-.139 4.635-.523 6.022-.622 2.249-.188 2.791 4.005 5 2.587 1.363 8.203 4.841 12.48 7.728 4.277 2.887 8.286 5.25 8.909 5.25.823 0 .966-4.561.523-16.674-.63-17.199-1.131-19.127-5.124-19.713-.95-.14-2.134-.897-2.632-1.683-.761-1.203-.907-1.178-.92.153a1.602 1.602 0 01-1.588 1.584c-1.033 0-1.409-.63-1.094-1.834.507-1.938-.786-2.527-1.833-.833m197.921 6.48c-1.398 2.134-1.644 6.568-1.76 31.75l-.134 29.27 2.236.32 2.237.319V338.07c0-17.639-.215-32.07-.477-32.07s-1.208 1.116-2.102 2.48m-290.963-.412c-.79 1.277.363 2.932 2.042 2.932.76 0 1.671.468 2.025 1.04.413.669-.241.818-1.836.418-2.33-.585-2.515-.331-3.081 4.21-.648 5.194-1.846 22.343-2.009 28.746l-.099 3.914 19.011 9.669c20.045 10.196 22.321 10.95 22.882 7.586.892-5.342.52-8.487-.937-7.928-2.052.788-1.808-.9.487-3.363 2.261-2.428 1.831-3.003-5.779-7.731-2.997-1.863-4.941-4.063-6.297-7.128-1.078-2.438-2.626-4.433-3.439-4.433-1.706 0-3.614-4.147-3.91-8.5-.112-1.65-.275-3.518-.361-4.151-.086-.633-1.789-2.114-3.783-3.291-3.802-2.243-4.134-4.07-.374-2.058 1.194.639 2.426.907 2.737.596.834-.834-4.488-5.868-5.526-5.227-.486.301-3.2-.978-6.031-2.843-2.831-1.864-5.406-2.97-5.722-2.458M75.139 335.033c-1.798 1.498-1.977 1.967-.75 1.967 1.815 0 2.225 3.503.532 4.549-.876.541-4.723.933-13.967 1.422-.3.016-.648 1.553-.773 3.415-.196 2.91.143 3.478 2.413 4.048 2.632.661 3.794.224 4.031-1.517.069-.504.237-1.142.375-1.417.138-.275.306-1.048.375-1.718.069-.67 2.132-1.616 4.585-2.101 3.976-.786 4.653-.642 6.25 1.329 1.523 1.882 1.79 1.952 1.79.468 0-.959.907-2.53 2.015-3.491 2.13-1.847 1.844-4.443-.592-5.378-.783-.301-1.423-1.235-1.423-2.078 0-2.08-2.011-1.872-4.861.502M23.837 364.25c-2.723 2.204-4.837 6.116-4.837 8.953 0 2.699.099 2.745 4.549 2.135 5.884-.806 8.222.492 13.786 7.658 4.849 6.244 7.441 7.549 10.6 5.337 2.426-1.699 2.673-4.582.574-6.681-1.125-1.125-1.186-1.602-.25-1.944.683-.248-.559-.789-2.759-1.202-3.206-.601-5.419-2.216-11.143-8.128-7.548-7.797-8.076-8.105-10.52-6.128m472.069 7.5c-.33 2.647.345 40.847.733 41.474.263.427 1.127.776 1.92.776 2.271 0 2.133-41.521-.141-42.393-2.046-.785-2.398-.765-2.512.143M20.557 383.223c-.856 1.222-1.557 3.922-1.557 6V393h4.566c6.017 0 7.47.899 12.939 8.007 3.736 4.855 5.156 5.993 7.476 5.993C47.701 407 54 399.971 54 395.82c0-3.314.067-3.297-4.431-1.151-2.934 1.399-4.134 1.478-7.425.492-3.631-1.088-5.501-2.772-12.818-11.552-2.708-3.249-6.643-3.422-8.769-.386M292.96 395.22c-.936 6.63-.766 17.767.269 17.711 3.969-.215 20.271-6.596 20.271-7.934 0-.823-.607-1.37-1.349-1.214-.742.156-5.355-1.77-10.25-4.28-4.896-2.51-8.919-4.437-8.941-4.283m-273 5.855c-.648 1.211-.835 3.708-.447 6 .651 3.857.738 3.925 4.972 3.925 4.08 0 4.641.374 10.561 7.052 7.885 8.894 9.397 8.936 16.175.448 4.61-5.773 6.148-6.8 11.919-7.955 1.734-.347 2.592-1.132 2.5-2.287-.089-1.114.563-1.76 1.778-1.762 1.506-.004 3.771-2.38 2.415-2.534-4.903-.555-8.566-1.359-9.443-2.072-.736-.598-2.058.466-3.925 3.161-7.739 11.167-16.928 11.006-25.388-.447-4.635-6.274-8.92-7.635-11.117-3.529m1.29 15.587c-.784.317-1.25 2.524-1.25 5.921V428l3.25.007c4.144.008 7.871 2.479 11.689 7.75 6.14 8.476 10.068 8.982 14.953 1.926 4.826-6.971 7.285-8.739 12.293-8.84 5.892-.118 7.998 1.136 12.784 7.615 2.192 2.968 4.406 5.656 4.919 5.973 1.414.874 4.112-.463 4.112-2.038 0-.766.563-1.393 1.25-1.393.688 0 1.25-1.125 1.25-2.5 0-2.129-.446-2.488-3-2.421-1.65.043-2.435.307-1.744.585.691.279 1.002.918.691 1.421-.311.503-.033.915.616.915.881 0 .865.382-.063 1.5-.685.825-1.607 1.5-2.049 1.5-1.338 0-4.159-6.431-2.992-6.82 1.72-.573 1.177-2.002-1.026-2.701-1.138-.361-4.105-3.429-6.595-6.818-2.49-3.388-5.128-6.503-5.862-6.921-2.248-1.28-5.807 1.139-9.391 6.383-3.911 5.721-7.392 7.877-12.718 7.877-3.34 0-4.483-.787-10.899-7.5-7.059-7.388-7.735-7.84-10.218-6.838m436.86 6.734c-2.86 1.585-7.098 8.265-7.105 11.199-.003 1.152.865 2.882 1.928 3.844 1.062.962 1.679 2.408 1.37 3.215-.358.933.211 1.668 1.567 2.022 1.172.307 2.13 1.18 2.13 1.941 0 .76.45 1.383 1 1.383s1 .625 1 1.389.832 2.417 1.848 3.672l1.849 2.283.723-2.883c.553-2.2.293-3.199-1.098-4.218-1.002-.735-1.865-1.877-1.919-2.539-.122-1.52-1.254-4.657-2.544-7.05-1.201-2.226 1.404-5.654 4.296-5.654 1.16 0 1.845-.721 1.845-1.941 0-2.276-1.783-3.627-4.25-3.221-.962.158-1.75-.191-1.75-.775 0-.585 1.575-1.063 3.5-1.063 2.444 0 3.5-.452 3.5-1.5 0-1.889-4.562-1.949-7.89-.104M20.667 434.667c-.367.366-.667 3.291-.667 6.5V447l3.25.032c3.864.038 4.781.718 11.077 8.218 6.474 7.711 7.824 7.603 15.673-1.25 6.122-6.905 6.274-7 11.203-7 5.331 0 6.573.915 14.145 10.423 3.587 4.504 6.815 4.684 10.635.596 2.509-2.686 4.411-8.437 3.376-10.209-.222-.38-1.785-.209-3.474.38-5.501 1.918-10.192-.351-15.995-7.736-6.563-8.351-8.341-8.465-13.935-.892-9.113 12.334-15.545 12.455-25.915.484-4.788-5.526-7.608-7.145-9.373-5.379m426.626 18.242c-1.215 1.014-2.047 2.011-1.851 2.217.456.479-1.046 9.744-2.006 12.374-.6 1.644-.49 1.777.617.75 2.106-1.955 6.947-1.602 6.947.506 0 1.579 5.531 5.047 6.501 4.076 1.266-1.266 3.31-6.33 2.853-7.069-.3-.484-1.852-.593-3.45-.242-2.141.47-3.065.222-3.512-.941-.333-.869-1.206-1.58-1.94-1.58-2.49 0-2.67-2.139-.386-4.57 2.04-2.172 2.137-2.682.936-4.926-1.585-2.962-1.835-2.994-4.709-.595m-390.629 2.605C46.616 466.673 46.179 467 41.326 467c-4.741 0-7.616-2.147-15.069-11.258-3.988-4.874-6.257-3.739-6.257 3.13v5.872l3.991.639c3.408.544 4.726 1.572 9.011 7.024 7.466 9.501 9.856 9.531 16.498.21 7.726-10.842 16.005-10.118 24.409 2.135 4.756 6.935 9.167 6.294 14.546-2.113 4.847-7.578 10.756-9.456 18.709-5.947 2.481 1.095 3.836 2.355 3.836 3.566 0 3.57 1.909 5.976 3.488 4.396 1.433-1.433.982-5.654-.605-5.654-.485 0-.883-.464-.883-1.03 0-1.263-10.742-14.123-12.835-15.366-2.425-1.44-5.653 3.051-3.641 5.063C99.25 460.392 100.25 463 98.57 463c-.825 0-2.026-1.012-2.67-2.25-.644-1.238-1.257-2.36-1.363-2.494-.105-.134-2.302 1.778-4.882 4.25-4.109 3.937-5.237 4.494-9.101 4.494-4.713 0-6.433-1.273-14.632-10.83-4.351-5.071-5.226-5.133-9.258-.656m39.525 16.525c-1.204 1.121-2.189 2.47-2.189 2.997 0 2.016-7.288 8.904-10.566 9.986-5.498 1.814-9.73-.159-14.713-6.861-6.994-9.405-8.743-9.577-14.913-1.46-9.639 12.681-15.399 12.259-27.418-2.009-4.816-5.717-6.39-5.025-6.39 2.808 0 6.064.151 6.502 2.25 6.535 3.545.056 6.587 2.215 10.598 7.522 6.757 8.94 9.464 8.925 16.336-.085 4.214-5.527 7.048-7.388 11.316-7.433 3.193-.034 9.5 3.25 9.5 4.946 0 .558 1.096 1.015 2.435 1.015 4.215 0 7.208 1.725 8.53 4.916 1.663 4.016 1.907 3.937 6.035-1.96 8.145-11.632 16.55-11.927 24.075-.845 2.2 3.239 4.396 5.889 4.88 5.889.485 0 1.56.26 2.39.579 1.633.626 5.64-2.922 9.492-8.406 2.247-3.199 2.266-3.379.5-4.718-2.23-1.689-3.401-1.761-6.916-.425-4.651 1.768-8.937-.457-14.491-7.524-4.088-5.203-6.643-7.506-8.323-7.506-.127 0-1.215.918-2.418 2.039m344.196 5.726c-3.011 1.984-2.568 5.194 1.006 7.303l3.522 2.078-.515 6.677c-.284 3.672-.654 8.379-.822 10.459-.168 2.08-.592 4.067-.941 4.416-1.226 1.226-.616 2.302 1.306 2.302 1.068 0 2.224.457 2.569 1.016.924 1.496 2.282.312 4.398-3.835 1.382-2.711 3.559-4.577 8.236-7.062 7.758-4.123 9.002-5.074 8.245-6.299-.324-.524-.84-.702-1.147-.395-.307.307-1.162.056-1.9-.556-.993-.824-1.732-.79-2.842.131-.946.785-1.5.852-1.5.181 0-.584.484-1.362 1.075-1.727 1.264-.782-2.735-5.454-4.668-5.454-.685 0-2.519-.62-4.076-1.378a955.798 955.798 0 00-6.596-3.165c-2.871-1.363-3.626-2.224-3.182-3.622.605-1.908-.253-2.332-2.168-1.07m-40.79 7.848c-.341.89.379 3.227 1.607 5.214 1.224 1.981 2.284 4.742 2.356 6.137.436 8.523.488 8.72 1.662 6.286 1.541-3.194 3.129-2.802 6.081 1.5 3.147 4.587 3.552 6.343 4.098 17.75.552 11.54 1.303 14.5 3.678 14.5 1.243 0 1.669-.498 1.285-1.5-.317-.825-1.025-1.5-1.574-1.5-.602 0-.759-1.687-.396-4.25.331-2.337.88-7.867 1.219-12.287.614-7.987.601-8.045-2.05-9.253-1.467-.669-3.137-2.564-3.712-4.213-.574-1.648-1.451-2.997-1.947-2.997-2.164 0-.578-3.379 3.24-6.905 4.719-4.357 4.45-6.085-.951-6.117-2.03-.012-5.653-.912-8.05-2-5.276-2.394-5.757-2.421-6.546-.365m-303.89 5.771c-1.213 1.311-3.381 4.156-4.818 6.321C83.931 508.185 66 507.461 66 496.7c0-7.406-6.207-8.814-11.194-2.54-8.022 10.094-12.711 12.492-18.536 9.48-2.714-1.404-4.23-2.914-11.013-10.975C21.397 488.08 20 489.099 20 496.5c0 6.394.044 6.5 2.699 6.5 1.946 0 4.008 1.394 7.393 5 4.626 4.927 4.783 5 10.717 5 5.827 0 6.125-.129 9.175-3.98 6.057-7.648 14.802-7.647 20.458.002 2.888 3.905 3.057 3.978 9.241 3.978 6.068 0 6.381-.125 8.542-3.423 5.432-8.287 16.009-8.789 20.83-.989 2.075 3.359 2.218 3.412 9.133 3.412 6.306 0 7.226-.256 8.996-2.506 2.825-3.592 5.567-4.86 11.816-5.463l5.5-.531v-4.47c0-3.572-.431-4.686-2.143-5.54-1.179-.587-2.843-1.649-3.698-2.358-2.072-1.719-3.575-.727-8.643 5.709-7.629 9.687-14.317 10.271-21.329 1.863-9.066-10.872-9.481-11.106-12.982-7.32m301.233 1.366c-.034.962-.01 6.046.053 11.297.1 8.29-.142 9.779-1.839 11.315-1.075.973-2.242 3.303-2.594 5.179-1.018 5.43-3.457 10.459-5.071 10.459-2.353 0-1.74 1.419 1.417 3.284 4.976 2.94 9.36 1.798 7.292-1.899-1.299-2.32.938-9.176 4.013-12.305 3.2-3.256 4.138-8.717 1.784-10.389-1.789-1.27-3.161-7.478-3.191-14.441-.018-3.99-1.73-6.287-1.864-2.5" fill="#d3d3d3" fill-rule="evenodd"/></svg>