<svg xmlns="http://www.w3.org/2000/svg" width="500" height="500"><path d="M172.119 129.357c-.627.755-.86 2.686-.526 4.356.442 2.211.18 3.16-.997 3.612-1.947.747-2.117 2.675-.236 2.675.748 0 2.205 1.125 3.237 2.5 1.033 1.375 2.253 2.5 2.711 2.5.458 0 3.054 1.873 5.768 4.161 2.714 2.289 5.162 3.934 5.44 3.656C189.153 151.18 177.022 128 174.527 128c-.705 0-1.789.611-2.408 1.357m-17.506 33.393c-.341 3.713-.647 7.529-.68 8.48-.085 2.445-2.026 3.356-3.091 1.452-1.199-2.142-3.583-1.083-5.379 2.39-1.715 3.316-1.846 4.283-.463 3.428.55-.34 1-.141 1 .441s.503.946 1.117.809c2.152-.482 2.374 5.951 1.362 39.5-.611 20.244-1.133 22.879-3.711 18.75-2.404-3.85-3.768-2.357-3.768 4.122 0 5.363.189 5.966 1.519 4.862 1.243-1.031 1.878-.934 3.5.533 1.13 1.022 1.981 1.297 1.981.638 0-1.978 1.738-1.265 2.317.95 1.141 4.363 3.179 1.32 3.458-5.161.412-9.567 3.012-10.818 5.116-2.461.71 2.819 1.696 4.517 2.623 4.517.817 0 1.486.398 1.486.883 0 .486.933 1.128 2.074 1.426 1.141.298 2.319 1.476 2.617 2.617.298 1.141.948 2.074 1.445 2.074 1.35 0-.175-5.03-2.249-7.415-.997-1.147-1.791-2.485-1.765-2.973.027-.489-.379-1.164-.902-1.5-.523-.337-1.93-2.412-3.126-4.612s-3.281-5.529-4.634-7.398c-2.392-3.304-2.738-5.236-2.704-15.102.036-10.262.485-14.098 1.803-15.416.765-.765 2.924-4.434 4.797-8.153l3.405-6.761 2.619 2.62c1.441 1.44 2.602 3.427 2.58 4.415-.03 1.326-.43 1.077-1.532-.955-1.785-3.29-2.974-3.467-4.474-.664-1.312 2.452-.319 4.031 1.187 1.885.787-1.122.896-.877.459 1.029-.315 1.375-.579 2.838-.586 3.25-.008.412-.914.75-2.014.75-1.352 0-2 .667-2 2.059 0 1.132.45 1.781 1 1.441.55-.34 1 .309 1 1.441 0 2.346 3.099 2.85 4.815.782 2.441-2.941 6.054-1.912 7.168 2.041 1.232 4.377 5.078 9.388 5.745 7.486 1.023-2.917 3.772-1.256 3.972 2.399.275 5.01.927 6.351 3.088 6.351 2.018 0 8.219-12.594 8.214-16.684-.002-1.819.442-2.103 2.659-1.701 1.568.284 2.999-.051 3.485-.816 1.093-1.724 1.075-3.054-.032-2.369-.488.301-1.121-.347-1.407-1.441-.288-1.104-1.364-1.989-2.417-1.989-3.669 0-12.267-5.059-12.902-7.591-.333-1.325-.913-2.409-1.289-2.409-.376 0-5.146-4.95-10.599-11s-10.504-11-11.223-11c-.72 0-2.06-1.575-2.978-3.5-2.365-4.959-2.982-4.414-3.686 3.25m39.582 60.13c-.696.43-1.495 2.044-1.775 3.586-.805 4.444-3.307 8.525-5.968 9.738-1.349.614-2.452 1.495-2.452 1.957 0 .461-.727.839-1.617.839-1.251 0-1.472.622-.98 2.75 1.617 6.987 1.776 10.405.612 13.214-.796 1.922-.97 4.358-.481 6.769.718 3.549.806 3.622 1.514 1.267.744-2.473.754-2.468.852.405.098 2.84.144 2.865 2.1 1.095 2.305-2.086 2.5-4.257.607-6.751-1.415-1.864-.985-7.101.507-6.178 1.166.72 1.122-.261-.114-2.571-1.281-2.393.035-5.944 3.478-9.387 3.095-3.095 3.241-3.128 3.833-.863.392 1.502.473 1.517.573.107.149-2.108 2.764-3.116 4.992-1.924 3.402 1.821 5.789-6.306 2.624-8.933-1.135-.942-1.837-.965-2.883-.097-1.109.921-1.657.46-2.77-2.329-.948-2.377-1.787-3.229-2.652-2.694m30.094 9.241c.639 4.763 1.63 6.035 4.986 6.404 1.329.146 3.352.85 4.496 1.564 1.921 1.2 1.952 1.399.405 2.606-1.562 1.218-1.556 1.379.095 2.367.974.584 1.512 1.48 1.196 1.992-.316.511-.115 1.721.448 2.688.773 1.326 1.032.091 1.055-5.023.021-4.884-.358-6.931-1.358-7.314-.763-.293-1.677-1.967-2.03-3.719-.505-2.507-.845-2.866-1.597-1.686-.848 1.333-.958 1.333-.985 0-.027-1.333-.151-1.333-1.11 0-.891 1.239-.973 1.175-.469-.371.488-1.499.209-1.766-1.406-1.343-1.108.29-2.015.152-2.015-.306 0-.458.787-1.039 1.75-1.291 1.025-.268.557-.505-1.132-.573-2.812-.113-2.868-.016-2.329 4.005m-104.788 1.878c-.341.55-.341 1.451-.001 2.001.34.55.204 1-.302 1-.507 0-.706 1.125-.443 2.5.667 3.488-2.493 2.981-7.843-1.258-2.049-1.624-4.545.906-5.187 5.258-.413 2.797-.494 2.848-1.198.761-.876-2.599-2.527-2.057-2.527.83 0 1.112.982 2.368 2.25 2.878 1.237.497 1.909.933 1.492.968-.991.083 4.339 6.063 5.404 6.063.449 0 1.095-1.112 1.436-2.47.973-3.877 3.309-.714 3.99 5.402.606 5.444.135 6.018-2.779 3.381-1.754-1.588-1.982-1.569-3.88.329-1.647 1.648-2.365 4.927-3.928 17.937-1.052 8.757-1.929 16.034-1.949 16.171-.02.137-.823.257-1.786.265-1.391.012-1.466.196-.364.893 1.111.704 1.253 3.023.714 11.735-.369 5.971-.712 21.799-.763 35.172l-.091 24.316-2.819-2.701-2.819-2.701-2.962 2.795c-1.712 1.616-2.725 3.409-2.402 4.251.438 1.141.039 1.289-1.843.683-2.861-.921-3.249-.897-8.401.515-6.282 1.722-8.941 1.905-9.735.67-.531-.826-.739-.797-.75.107-.008.688-.69 1.25-1.515 1.25-3.929 0-.888 1.849 3.541 2.153 4.52.311 11.044-.77 6.959-1.153-1.045-.098-.893-.401.5-1 3.058-1.314 3.871-1.152 2.5.5-1.06 1.277-.794 1.5 1.789 1.5 2.115 0 3.767.872 5.458 2.882 2.752 3.27 5.694 2.674 5.832-1.182.043-1.21.3-1.655.57-.989.289.712 1.596 1.01 3.171.724 4.516-.82 7.402 1.55 10.277 8.439 3.681 8.822 9.903 15.493 9.903 10.618 0-1.259.332-1.302 2-.26 1.198.748 2 2.332 2 3.95 0 1.485.457 2.983 1.016 3.328.559.346.739 1.077.4 1.626-.34.549.297 1.238 1.414 1.53 2.558.669 3.524 2.984 1.56 3.738-.816.313-1.35 1.363-1.187 2.333.163.969-.252 1.655-.923 1.523-.671-.132-1.72.693-2.33 1.833-1.058 1.977-1.198 1.992-3.03.335-1.056-.956-1.92-1.273-1.92-.705 0 .567.675 1.592 1.5 2.277s1.5 2.315 1.5 3.622c0 3.343 4.179 3.281 5.982-.088.726-1.356 1.679-2.244 2.118-1.972.44.271 1.097-1.094 1.461-3.034.716-3.819 1.876-4.565 2.763-1.778.306.962 1.707 4.9 3.112 8.75 1.405 3.85 2.557 7.788 2.56 8.75.002.962.791 1.795 1.754 1.85 1.167.066.917.366-.75.9-1.375.44-1.99.845-1.367.9 1.109.098 2.73 3.742 2.434 5.473-.082.48.507.621 1.309.313 1.53-.587 3.113 1.894 1.747 2.738-.998.617-.193 6.415.992 7.147.487.301.885-.181.885-1.071 0-.89.417-1.36.926-1.046.569.352.568 1.824-.001 3.809-.603 2.101-.577 3.353.073 3.57.551.183 1.002.778 1.002 1.322 0 .543.674 1.661 1.497 2.485 1.729 1.729 5.955.9 4.815-.944-.395-.639-.789-1.844-.878-2.678-.308-2.916-.947-4.454-2.649-6.38-.944-1.068-1.499-2.292-1.234-2.72.265-.429.024-1.062-.535-1.408-1.31-.81-1.323-3.51-.016-3.51.55 0 1 .6 1 1.333 0 2.602 2.924 1.287 3.558-1.599.816-3.711 2.448-2.318 3.119 2.662.404 2.996.177 3.609-1.345 3.636-1.727.03-1.733.107-.098 1.349.954.724 1.404 1.682 1 2.128-.403.446-.171.488.516.092.687-.395 1.25-.219 1.25.393s1.025 2.62 2.277 4.463c5.031 7.404 8.741-1.641 4.555-11.104-1.477-3.339-1.669-4.79-.838-6.341.786-1.47.769-2.012-.066-2.012-.633 0-.87-.709-.531-1.591.66-1.722-2.278-8.861-3.248-7.891-.589.589-.658 1.103-.978 7.291-.24 4.65-2.171 2.989-2.171-1.868 0-3.086-.379-3.941-1.75-3.942-1.16 0-1.798-.841-1.894-2.493-.079-1.371.226-2.264.678-1.985 1.559.964 2.286-3.813.753-4.945-1.665-1.228-3.22-11.576-1.74-11.576.524 0 .953.627.953 1.393s.675 1.652 1.5 1.969c.825.316 1.5 1.307 1.5 2.202 0 2.34 3.255 7.518 4.471 7.112.566-.188 1.029-.904 1.029-1.59s.772-1.812 1.715-2.501c1.942-1.42.511-3.801-1.76-2.929-.949.364-1.224-.477-1.015-3.108.341-4.297 1.56-6.027 1.56-2.215 0 3.132 1.042 3.383 3.369.812 1.036-1.145 1.413-2.549.985-3.664-.478-1.246-.329-1.584.476-1.086.644.398 1.17 1.271 1.17 1.942 0 2.817 2.911 5.403 5.522 4.903 1.754-.335 2.414-.965 2.037-1.947-.307-.799-.26-3.312.104-5.586l.661-4.134 1.349 3.897c.742 2.144.992 4.153.555 4.464-1.22.869-.88 3.349.523 3.816.821.274 1.027-.166.598-1.283-.835-2.177 1.863-.857 5.901 2.888 1.512 1.402 2.766 2.008 2.785 1.347.02-.661.657-.08 1.416 1.291 1.032 1.865 1.086 2.68.214 3.235-.778.495-.619.746.478.757.904.008 1.902-.66 2.219-1.485.915-2.386 2.355-1.752 3.504 1.544 1.282 3.678 4.922 8.956 6.177 8.956 1.174 0 .092-5.889-1.577-8.581-.71-1.144-1.191-3.507-1.071-5.25.157-2.269-.223-3.191-1.338-3.248-.943-.048-1.087-.27-.363-.565.656-.267.946-1.131.643-1.921-.31-.807.043-1.448.806-1.465.858-.02.679-.425-.487-1.103-1.014-.589-2.523-2.698-3.354-4.687-1.358-3.249-1.638-3.441-2.77-1.893-1.098 1.502-1.338 1.147-1.876-2.779-.769-5.609.897-10.097 2.977-8.018.752.752 1.367 1.876 1.367 2.498 0 .621.45.852 1 .512.55-.34 1-2.647 1-5.126 0-3.997.219-4.439 1.927-3.897 1.743.553 1.815.371.75-1.914-.76-1.63-1.748-2.347-2.786-2.022-2.182.684-4.891-.46-4.891-2.065 0-.72-.563-1.513-1.25-1.762-.993-.359-.997-.882-.02-2.537.774-1.313.867-2.308.25-2.69-.539-.333-1 .209-1.025 1.204-.03 1.189-.496.78-1.361-1.191-1.529-3.486-.871-5.599.963-3.092.734 1.005 1.506 1.299 1.868.713.339-.549-.18-1.475-1.154-2.059-1.561-.935-1.594-1.211-.271-2.331 2.964-2.511 3.966-5.327 2.617-7.357-.685-1.031-1.309-2.992-1.387-4.359-.077-1.367-.611-2.642-1.186-2.834-.574-.191-1.06-1.323-1.079-2.514-.02-1.192-.679-3.292-1.465-4.667l-1.429-2.5-.051 2.5c-.04 1.986-.25 2.192-1.02 1-1.218-1.885-1.295-4.301-.114-3.57.488.301 1.13-.383 1.427-1.52.41-1.565.167-1.924-.997-1.478-1.251.48-1.402.074-.809-2.171.824-3.122.87-3.656.651-7.57-.087-1.545-.577-2.55-1.089-2.234-.512.317-1.214.117-1.561-.443-1.219-1.974-4.299.92-7.974 7.492-2.193 3.922-4.094 6.266-4.752 5.859-1.193-.737-.968.262 1.7 7.539.888 2.422 1.396 4.972 1.129 5.667-.267.695.134 1.501.89 1.791.852.327 1.536-.306 1.801-1.667.404-2.084.433-2.09.562-.119.075 1.141 1.261 3.132 2.636 4.424 1.699 1.596 2.463 3.334 2.384 5.424-.064 1.692-.322 2.288-.573 1.326-.252-.962-1.225-1.75-2.164-1.75-.938 0-2.325-.859-3.081-1.909-.789-1.094-2.025-1.66-2.895-1.326-1.105.424-1.344.127-.876-1.091.428-1.115.132-1.674-.885-1.674-.841 0-1.25.45-.91 1 .359.58-.621 1-2.334 1-1.794 0-3.195-.633-3.571-1.613-.393-1.024-1.346-1.424-2.607-1.094-1.093.286-1.988.112-1.988-.387 0-.498-.45-.906-1-.906s-1 1.125-1 2.5.45 2.5 1 2.5 1 .477 1 1.059-.526.734-1.17.336c-.794-.491-.958-.171-.511.993.391 1.019.257 1.468-.33 1.105-.544-.336-.989.053-.989.865 0 .811-.55 1.659-1.222 1.883-.942.314-.963 1.249-.093 4.083.624 2.034.723 3.676.221 3.676-.498 0-.853.337-.788.75.33 2.087-.228 4.25-1.095 4.25-.58 0-.765-2.231-.455-5.5.331-3.491.14-5.5-.523-5.5-.575 0-1.045.927-1.045 2.059 0 1.132-.45 1.781-1 1.441-1.519-.939-1.21-2.29 1.036-4.536 2.64-2.64 1.973-3.546-2.458-3.338-1.973.093-3.797-.172-4.055-.589-.478-.773-11.579-.315-12.406.512-.508.509-4.118-2.522-4.115-3.454.001-.327 1.4-.693 3.109-.813s3.803-.795 4.652-1.5c1.95-1.619 5.22-1.097 7.206 1.149 2.77 3.131 14.517-.718 12.441-4.076-.29-.47-.051-.855.531-.855 1.811 0 1.162-3.597-1.003-5.556-1.167-1.056-1.858-2.641-1.593-3.655.257-.984-.057-1.789-.698-1.789-1.843 0-3.921-3.964-2.794-5.328 1.199-1.451 1.863-16.708.803-18.422-.468-.755-.256-1.263.535-1.282.869-.021.721-.478-.441-1.36-.963-.731-1.75-2.066-1.75-2.968 0-.902-.655-1.64-1.455-1.64-.87 0-1.718-1.405-2.111-3.5-.361-1.925-1.169-3.507-1.795-3.515-.627-.009-.47-.438.347-.955 1.03-.652 1.738-.487 2.311.536 1.012 1.808 2.711.936 2.681-1.375-.013-.93-1.353-4.391-2.978-7.691-1.625-3.3-2.965-6.751-2.978-7.669-.012-.918-.774-2.98-1.694-4.582-1.81-3.153-1.132-8.135.71-5.221.512.81.938 2.532.947 3.827l.015 2.355 2.463-2.355c2.027-1.938 2.178-2.417.855-2.706-1.343-.293-1.378-.513-.213-1.326 1.074-.751 1.108-1.092.145-1.482-1.723-.7-1.572-3.28.232-3.973 1.16-.445 1.4-2.014 1.103-7.218-.209-3.658-.426-7.914-.482-9.459-.13-3.547-2.075-2.548-2.179 1.118-.042 1.48-.663 4.266-1.38 6.191l-1.303 3.5-.714-3c-1.493-6.283-1.811-7.059-3.758-9.188-1.12-1.225-2.226-4.186-2.513-6.73-.53-4.705-2.256-5.406-2.256-.916 0 1.854-.409 2.391-1.5 1.972-1.945-.746-4.657.298-3.911 1.506.953 1.541.652 10.015-.393 11.06-1.869 1.869-3.326-5.9-3.517-18.753-.048-3.22-3.992-7.372-5.178-5.452m79.499 7.06c0 .582-.382.823-.849.535-.466-.289-1.768.333-2.893 1.38-1.125 1.048-2.356 1.595-2.735 1.216-.379-.38-.599-.24-.488.31.515 2.551-.202 3.937-1.035 2-.751-1.748-.884-1.78-1.055-.25-.462 4.146-.392 4.753.555 4.811 3.181.192 5.418 4.256 4.806 8.727-.506 3.688-.282 4.756 1.229 5.861 2.38 1.741 3.544 1.721 2.865-.048-.536-1.398.995-2.877 3.347-3.234.825-.125 1.051.59.669 2.113-.693 2.759 1.072 4.25 2.087 1.764.653-1.599.784-1.578 1.587.256.778 1.776.847 1.72.619-.5-.141-1.375-.766-2.402-1.388-2.282-1.467.284-2.532-2.469-1.259-3.256.565-.35.099-1.831-1.111-3.53-1.146-1.611-2.081-4.392-2.076-6.18.014-5.291-.983-10.752-1.963-10.752-.502 0-.912.477-.912 1.059M10.21 243.62C8.704 245.232 7 245.434 7 244c0-.55-1.575-1-3.5-1-3.178 0-3.5.261-3.5 2.839 0 3.24 4.591 6.39 5.575 3.825.748-1.949 4.864-1.315 5.276.814.288 1.483.529 1.559 1.326.417.622-.889 1.138-1.006 1.424-.322 1.141 2.734 9.399-1.338 9.399-4.635 0-.964-5.051-3.025-5.991-2.444-.463.286-1.891.121-3.175-.367-1.645-.625-2.715-.48-3.624.493M212 252.139c0 1.159-.714 1.861-1.893 1.861-2.024 0-3.521 2.521-2.489 4.191.344.556 1.888.758 3.432.449 3.002-.6 3.95 1.27 4.491 8.86.713 10.001 3.459 18.052 3.459 10.141 0-2.251.401-3.511 1-3.141.55.34 1 .179 1-.358 0-.536-.426-1.125-.947-1.309-.521-.183-1.237-1.908-1.592-3.833-.355-1.925-.794-4.175-.976-5-.183-.825-.366-3.595-.408-6.156-.069-4.148-.296-4.6-2.077-4.134-1.1.288-2 .052-2-.524 0-.576 1.012-1.204 2.25-1.396 2.054-.319 2.011-.4-.5-.931-2.223-.47-2.75-.225-2.75 1.28m96.542-.208c-.327.53-.787 3.125-1.021 5.767-.235 2.641-.501 5.027-.592 5.302-.091.275-.105.862-.03 1.304.075.442-.506 1.446-1.292 2.232-.82.82-1.187 2.355-.86 3.603.359 1.374.183 1.936-.477 1.528-.613-.379-1.23.61-1.491 2.387-.245 1.669-.071 3.266.388 3.549.458.283.826 1.051.818 1.706-.01.716-.403.592-.985-.309-.711-1.1-.973-1.149-.985-.184-.025 2.159 2.013 5.285 3.035 4.653.523-.323.95.13.95 1.007 0 1.254-.404 1.378-1.893.581-1.664-.89-1.972-.561-2.546 2.715-.36 2.05-1.779 8.166-3.153 13.59-1.375 5.424-2.29 10.374-2.033 11 .257.626.503.35.546-.612.043-.962.754-1.75 1.579-1.75 1.828 0 1.901.72.25 2.461-3.555 3.747-5.181 6.995-4.89 9.768.201 1.916-.067 2.761-.743 2.343-1.624-1.004-2.152 2.926-1.938 14.428.216 11.615-1.675 34.626-2.989 36.38-.462.616-.714 2.448-.559 4.071.154 1.623-.205 3.536-.798 4.25-.778.938-.756 1.299.079 1.299 1.23 0 .545 8.616-.993 12.5-.64 1.616-.804 1.365-.856-1.309-.034-1.82-.478-3.053-.984-2.74-.507.313-.771 2.028-.587 3.809.184 1.782.374 3.626.421 4.097.048.471.718.615 1.49.318 1.137-.436 1.539 1.867 2.119 12.144.394 6.974 1.094 13.404 1.556 14.288.932 1.784-.583 8.469-2.137 9.429-.627.388-.769-1.411-.392-4.952.67-6.285-.197-10.75-1.643-8.466-.652 1.029-.879.807-.891-.868-.008-1.238.548-2.264 1.235-2.282.763-.019.569-.549-.5-1.36-1.787-1.356-2.494-3.186-.835-2.161 1.13.699 1.906-1.381 1.336-3.581-.284-1.097-1.104-1.456-2.494-1.092-1.406.367-1.84.17-1.354-.616.393-.637.238-1.158-.344-1.158-1.343 0-1.388 2.678-.059 3.5 1.268.783 1.316 4.5.059 4.5-.518 0-1.219-.45-1.559-1-.34-.55-1.482-1-2.538-1-1.678 0-1.778.311-.794 2.469.618 1.357 1.417 2.288 1.774 2.067 1.081-.668.535 15.547-.549 16.281-.554.376-1.623 2.207-2.377 4.069-1.226 3.028-1.45 3.172-2.117 1.369-.625-1.689-1.686-14.836-1.853-22.974-.028-1.352-.534-2.031-1.296-1.739-1.271.488-1.697 5.135-.639 6.958.32.55.488 4.825.374 9.5-.284 11.662.221 14.552 2.575 14.73 2.135.16 4.94-3.219 4.94-5.953 0-.977.45-1.777 1-1.777s1-.906 1-2.014c0-1.107.417-2.795.927-3.75.51-.955 1.215-2.636 1.567-3.736 1.447-4.52 2.889 5.778 1.592 11.372-.047.205-.761-.187-1.586-.872-1.232-1.023-1.5-.945-1.5.437 0 .924.388 1.441.863 1.148.474-.293.738 4.067.586 9.691-.152 5.623.145 12.474.66 15.224s1.108 5.977 1.317 7.172c1.568 8.951 3.701 11.865 2.984 4.078-.215-2.337-.794-8.525-1.287-13.75-.493-5.225-.703-11.075-.466-13 .945-7.685 1.47-10 2.267-10 1.046 0 4.076 11.869 4.076 15.969 0 1.682.436 3.84.969 4.795 1.315 2.355 3.941 19.005 3.436 21.787-.489 2.695 1.934 3.951 3.644 1.89.932-1.123.922-1.441-.043-1.441-.783 0-1.063-.921-.761-2.5.263-1.375.188-2.5-.166-2.5-.353 0-.736-1.123-.849-2.496-.116-1.403.281-2.389.907-2.25.612.135 1.324-.331 1.582-1.035.258-.705.089-1.214-.375-1.132-2.06.366-3.251-.184-2.896-1.337.212-.687.661-2.506.998-4.041.337-1.535 1.015-2.542 1.508-2.238.492.305 1.124-.24 1.405-1.209.281-.969.432-.187.335 1.738-.142 2.839.171 3.471 1.657 3.346 1.339-.113 1.698.358 1.334 1.75-.274 1.047-.126 1.904.329 1.904s1.117-1.319 1.471-2.931c.654-2.976 2.606-5.297 4.16-4.945.47.106 1.673-.163 2.672-.598 4.244-1.849 5.642 6.455 1.784 10.596-1.156 1.24-2.101 3.145-2.101 4.233 0 1.088-.272 1.706-.605 1.373-.333-.332-1.683.558-3 1.98-1.578 1.703-2.395 2.088-2.395 1.129 0-.8-.654-2.328-1.454-3.396-1.328-1.774-1.447-1.468-1.382 3.559.122 9.409-1.021 10.79-8.414 10.17-.962-.08-1.75.298-1.75.842 0 .543 1.35.988 3 .988s3 .45 3 1 1.094 1 2.432 1c2.767 0 6.568-4.574 6.568-7.904 0-1.232.643-2.096 1.559-2.096.857 0 1.39-.337 1.183-.75-.207-.413.667-1.834 1.941-3.158 1.705-1.773 2.317-2.003 2.317-.873 0 .845-.67 2.092-1.489 2.772-1.466 1.216-1.198 3.009.45 3.009.463 0 1.723-1.391 2.799-3.09 1.547-2.444 2.084-2.758 2.567-1.5.68 1.772 1.548 1.956 3.47.737 1.033-.656.932-1.467-.5-4.004-1.578-2.793-1.614-3.299-.297-4.147.825-.531 1.107-.972.628-.981-.48-.008-.317-.685.363-1.504.68-.819 1.665-1.224 2.189-.9.524.324 1.568-.243 2.319-1.261 1.095-1.483 1.618-1.602 2.634-.6 2.043 2.016 2.954 1.447 2.24-1.399-.508-2.027-.359-2.46.636-1.846.828.512 1.056.41.629-.281-.369-.597-.213-1.368.346-1.714.559-.345 1.016-1.303 1.016-2.128 0-.825-.45-1.222-1-.882-.55.34-.986.254-.968-.191.054-1.371 2.377-3.899 4.218-4.59.962-.361 1.75-1.515 1.75-2.565s.655-2.453 1.455-3.117c1.165-.966 1.217-1.59.26-3.122-1.638-2.622-5.176-2.437-6.414.335l-1.006 2.25-.78-2.456c-.503-1.584-.376-2.59.359-2.835.626-.209.811-.904.41-1.544-1.031-1.65-1.408-3.467-1.896-9.135-.236-2.734-.869-5.411-1.408-5.95-.539-.539-.98-2.052-.98-3.363 0-3.625 2.323-2.117 2.77 1.799.473 4.143 2.993 9.248 4.198 8.504.485-.3.785-3.24.666-6.533s.139-5.987.575-5.987c.435 0 .797 1.012.805 2.25.007 1.238.286 3.269.62 4.514l.607 2.264 1.879-2.167c2.206-2.543 2.127-2.081.905-5.296-.537-1.411-1.662-2.565-2.5-2.565-.839 0-1.525-.705-1.525-1.567 0-1.113-.581-1.383-2-.933-1.645.522-2 .18-2-1.933 0-1.412.337-2.514.75-2.449 2.24.354 3.25-.342 3.25-2.24 0-1.856.206-1.952 1.644-.758 1.465 1.216 1.565 1.112.911-.948-.586-1.845-.309-2.424 1.371-2.863 1.159-.303 2.046-1.059 1.972-1.68-.274-2.299.129-3.629 1.102-3.629.55 0 1 .675 1 1.5 0 2.278 1.363 1.78 2.635-.963.846-1.825.846-2.566 0-2.916-.836-.345-.826-.689.036-1.305.644-.46 1.479-2.066 1.856-3.569.378-1.503 1.031-2.52 1.452-2.26.421.26 2.169-.868 3.884-2.507 4.287-4.096 5.835-3.837 5.189.87-.102.743.294 1.054.881.691.587-.362 1.067-1.307 1.067-2.1 0-.793.373-1.441.829-1.441.457 0 .794-1.005.75-2.233-.043-1.228.371-2.247.921-2.265 1.497-.049 3.5-1.496 3.5-2.53 0-.5-.619-.672-1.377-.381-1.924.738-2.827-3.574-2.021-9.65.576-4.34.452-4.899-.965-4.355-.894.343-1.396.995-1.115 1.45.281.454.015 1.132-.59 1.506-.71.439-.982-.158-.766-1.681.184-1.299.971-2.361 1.751-2.361.779 0 1.604-.563 1.833-1.25.53-1.589-.981-1.619-2.55-.05-.933.933-1.203.878-1.215-.25-.013-1.233-.161-1.226-.985.05-2.028 3.138-.92-1.02 1.25-4.693l2.25-3.807.514 3.5c.397 2.704.679 3.088 1.243 1.687.401-.998 1.204-1.52 1.784-1.161.729.45.696 1.086-.105 2.051-.906 1.091-.806 1.536.451 2.018.887.341 1.631 1.358 1.653 2.262.026 1.062.568.671 1.532-1.107.821-1.512 2.04-2.757 2.71-2.765.76-.01.842-.292.218-.75-1.451-1.067-1.693-3.235-.36-3.235.782 0 .964-1.707.578-5.443-.381-3.691-.185-5.596.61-5.921.645-.263.384-.514-.578-.557-2.146-.097-2.254-1.416-.25-3.079 1.619-1.344 2.044-4 .639-4-.474 0-.697-1.238-.496-2.75.202-1.512.102-2.187-.222-1.5-.323.688-1.211 1.25-1.973 1.25-.82 0-1.151.612-.81 1.5.336.874.009 1.513-.781 1.532-.956.022-.84.424.393 1.36 1.77 1.344 2.501 3.19.862 2.177-.488-.302-1.1.684-1.359 2.191-.258 1.507-.843 3.64-1.299 4.74-.761 1.837-.679 1.878 1.003.508 1.685-1.373 1.777-1.322 1.157.631-.459 1.447-.186 2.311.856 2.711.842.323 1.53 1.106 1.53 1.741 0 .833-.415.809-1.495-.087-.822-.682-2.388-1.006-3.479-.721-1.786.467-1.975.039-1.878-4.27.06-2.634-.244-5.359-.674-6.056-.51-.824-.38-1.017.371-.552.766.473 1.155-.213 1.155-2.037 0-2.629-.064-2.664-1.451-.809-.982 1.314-1.258 3.189-.854 5.804.573 3.707.51 3.817-1.549 2.715-1.761-.943-2.146-.873-2.146.387 0 .844-.45 1.535-1 1.535s-1.014.788-1.032 1.75c-.029 1.583-.171 1.565-1.5-.191-1.42-1.878-1.469-1.862-1.5.5-.03 2.337-.093 2.36-1.468.544-1.581-2.09-1.045-4.027.819-2.959.65.372.863.324.474-.108-.39-.431.285-1.613 1.5-2.627 1.812-1.513 1.909-1.848.54-1.876-.916-.018-1.867.53-2.113 1.217-1.355 3.794-1.608-.888-.288-5.333.862-2.904 1.568-5.648 1.568-6.099 0-1.649-1.884-.759-2.5 1.182-.391 1.231-1.474 1.973-2.817 1.93-1.805-.058-1.886-.188-.47-.751 1.21-.479 1.446-1.112.804-2.151-.778-1.259-1.005-1.223-1.57.25-.364.947-1.513 1.722-2.554 1.722-1.078 0-1.959.753-2.045 1.75a273 273 0 0 0-.255 3.168c-.056.78-.6 1.584-1.21 1.788-1.816.605-2.428-6.393-.827-9.461 1.537-2.947 1.919-6.32.694-6.127-1.991.315-3.306-.218-2.752-1.114 1.214-1.965 1.424-5.074.295-4.376-.626.387-.821.226-.451-.372.358-.58-.179-2.906-1.193-5.171l-1.843-4.118-2.473 2.473c-2.801 2.801-7.833 5.072-7.833 3.535 0-.536.477-.975 1.059-.975s.812-.399.511-.887c-.301-.487.152-1.467 1.007-2.177 1.89-1.568 4.423-6.305 4.423-8.27 0-2.157-3.815-2.777-5.06-.823-.763 1.197-1.201 1.312-1.578.416-.392-.93-.919-.845-2.103.339-2.343 2.343-3.949-.788-2.282-4.447 1.16-2.545 1.245-2.568 2.611-.7 1.402 1.918 1.783 1.521 1.489-1.554-.084-.882.267-3.472.78-5.756.865-3.849-.546-7.574-1.633-4.312-.217.651-.805.93-1.306.62-.516-.318-.489.548.06 1.994.631 1.659.63 2.557-.003 2.557-.899 0-1.381-1.431-1.093-3.25.21-1.331-1.125-.798-2.503 1-1.757 2.292-3.341.2-3.364-4.441-.017-3.515-1.684-5.336-2.629-2.872-.33.859-.986 1.563-1.457 1.563-.472 0 .068-2.137 1.2-4.75 2.084-4.811 3.347-19.25 1.684-19.25-.447 0-.813-.822-.813-1.826 0-2.002-3.928-6.174-5.814-6.174-.737 0-1.186-1.684-1.186-4.441 0-4.292-1.232-6.611-2.458-4.628m-106.446 19.286c-.64 1.026-.908 2.278-.596 2.783.312.505.035 1.771-.615 2.813-.914 1.462-.904 2.667.04 5.29.672 1.869 1.449 6.772 1.726 10.897.277 4.125.829 9.075 1.227 11 .98 4.748.353 7-1.951 7-1.06 0-1.927.45-1.927 1s.482 1 1.071 1c.59 0 1.747.675 2.572 1.5 2.304 2.304 4.191 1.789 4.541-1.241.191-1.656 1.01-2.874 2.069-3.074 1.506-.286 1.612.04.75 2.306-1.276 3.356-1.277 4.796-.003 4.009.55-.34 1-.141 1 .441s-.502 1.059-1.115 1.059c-.677 0-.465.993.542 2.528.911 1.391 1.405 2.935 1.098 3.431-.307.497-.1 1.185.459 1.531.559.345 1.016 1.303 1.016 2.128 0 .825-.419 1.241-.932.924-.513-.317-1.075.571-1.25 1.972-.463 3.711-2.266 3.53-2.631-.264-.173-1.788-.721-3.25-1.219-3.25-.498 0-.618.749-.267 1.664.43 1.119.256 1.427-.531.941-1.55-.958-1.425.324.33 3.395 1.69 2.957 1.891 4.359.5 3.5-.55-.34-1 .084-1 .941s.421 1.559.937 1.559c.515 0 1.077 1.428 1.25 3.173.172 1.745.839 3.345 1.481 3.556.728.239 1.063-.574.889-2.157-.242-2.204.028-2.463 2.039-1.959 2.832.711 3.949-2.488 3.117-8.934-.296-2.298-.199-6.318.216-8.932.515-3.243.366-5.308-.469-6.5-1.418-2.025-1.455-2.188-1.475-6.497-.024-5.114-1.322-6.413-3.867-3.868-3.113 3.113-4.773 2.679-4.922-1.287-.116-3.092.246-3.555 3.948-5.036 3.7-1.48 4.014-1.881 3.409-4.345-.973-3.965-2.549-13.158-2.976-17.362-.799-7.864-5.625-12.208-8.481-7.635m19.635 10.385c-.402.402-.783 1.894-.847 3.315-.076 1.694-.273 1.981-.573.833-.723-2.766-2.23-2.035-1.711.83.29 1.597.08 2.34-.551 1.95-.982-.606-.587 3.937.649 7.47.288.825.613 3.641.722 6.258.108 2.617.65 5.212 1.203 5.765.937.937.952-3.881.048-14.773-.148-1.788.09-3.25.53-3.25.439 0 .813.788.831 1.75.039 2.163 2.43 5.455 3.317 4.568.358-.358.651-.126.651.515 0 .642.409 1.167.91 1.167.5 0 .311-2.576-.421-5.724s-1.115-6.073-.851-6.5c.264-.427.072-.776-.426-.776-.499 0-1.321-.929-1.828-2.065-.506-1.135-1.25-1.735-1.653-1.333m247.831 29.979c-.869.869-1.325 1.994-1.012 2.5.312.505.164.919-.33.919s-.819 1.33-.723 2.955c.097 1.626-.193 3.538-.645 4.25-.634 1-.825 1.01-.837.045-.008-.687-.717-1.25-1.574-1.25-.857 0-1.3.419-.984.931.317.512.096 1.227-.489 1.589-.747.461-.732 1.059.05 2.002.849 1.023.627 1.833-.93 3.39-1.574 1.574-1.903 2.801-1.424 5.317.864 4.535 1.002 4.482 1.777-.683.85-5.668 2.504-6.013 2.088-.435-.199 2.673-1.094 4.859-2.557 6.25-1.845 1.754-2.141 1.824-1.642.389.66-1.902-.074-2.199-2.162-.875-.839.532-1.152 1.989-.846 3.933.285 1.805.007 3.318-.667 3.64-.855.409-.84.7.059 1.123.834.393.914 1.097.256 2.25-.527.924-2.088 6.717-3.468 12.875-1.381 6.158-2.976 12.42-3.545 13.917-.773 2.033-.716 2.918.228 3.501 1.59.983 2.541-.531 3.354-5.344.967-5.722 3.461-4.273 3.461 2.012 0 1.939.292 2.326 1.125 1.493 1.82-1.82 1.292-6.238-1-8.373-2.68-2.497-2.747-4.234-.131-3.404 1.53.486 1.854.269 1.393-.933-.331-.861-1.003-1.565-1.494-1.565-.491 0-.893-.955-.893-2.122 0-1.689.281-1.889 1.376-.981 1.311 1.088 2.237-2.409 4.009-15.14.134-.959 1.227-2.875 2.429-4.258 1.202-1.383 2.186-3.636 2.186-5.007 0-1.37.477-2.492 1.059-2.492s.8-.419.484-.931c-.317-.512-.17-1.181.325-1.487.496-.307 1.469-3.6 2.163-7.32.694-3.719 2.071-7.803 3.059-9.076 3.096-3.984.007-7.14-3.528-3.605M266.142 328c-.04.825.636 4.425 1.502 8 .865 3.575 1.543 9.2 1.506 12.5-.037 3.3.176 5.438.474 4.75.754-1.738 2.376-1.567 2.376.25 0 .825-.54 1.387-1.201 1.25-.807-.168-1.121 1.064-.959 3.75.191 3.145.003 3.679-.877 2.5-.874-1.171-.97-.841-.44 1.5.374 1.65.901 5.363 1.171 8.25.433 4.628 2.306 7.674 2.306 3.75 0-.825.405-1.5.9-1.5.496 0 .75 1.62.566 3.601-.389 4.189-1.459 5.861-1.481 2.316-.013-1.928-.212-2.113-.985-.917-1.72 2.661-1.206 4.867 1 4.29 1.1-.288 2-1.007 2-1.598 0-.591.661-.201 1.468.867.808 1.067 1.483 1.453 1.5.858.018-.596-.291-1.407-.686-1.801-.395-.395-.828-2.485-.962-4.644-.135-2.159-.914-5.219-1.731-6.8-1.025-1.983-1.165-3.196-.451-3.91.715-.715.699-1.245-.051-1.708-.598-.37-1.087-1.122-1.087-1.672 0-.55.337-.791.75-.536.893.552 1.026-17.622.134-18.346-2.188-1.777-4.968-9.332-3.724-10.12.737-.467.864-.856.283-.865-.581-.008-1.546-1.253-2.144-2.765-.597-1.512-1.118-2.075-1.157-1.25M230 380.5c0 .825.563 1.507 1.25 1.515.847.011.775.316-.221.946-.809.512-1.175 1.226-.814 1.587.362.362.247 1.736-.254 3.055-.543 1.427-.545 2.397-.006 2.397.535 0 .525 1.325-.025 3.243-1.204 4.2-1.18 6.029.07 5.257.55-.34 1 .282 1 1.382 0 1.1-.45 2.278-1 2.618-.55.34-1 .194-1-.324 0-.519-.9-1.178-2-1.466-1.1-.287-2-.115-2 .384 0 .498.464.906 1.031.906.568 0 1.33.788 1.694 1.75.831 2.195 2.824 4.25 4.12 4.25.544 0 1.217.563 1.496 1.25.385.95.749.901 1.517-.202.555-.799.726-1.912.379-2.474-.347-.562-.555-3.415-.463-6.34.118-3.724-.245-5.478-1.212-5.849-1.028-.394-1.162-1.291-.525-3.515.471-1.641.592-3.673.269-4.515-.323-.842-.692-2.504-.819-3.693-.375-3.501-.441-3.662-1.487-3.662-.55 0-1 .675-1 1.5m-15.042 19.578c-.612 1.143-.781 2.831-.377 3.75.404.92.648 2.215.543 2.879-.106.664 1.173 1.913 2.842 2.775 1.669.863 3.034 2.259 3.034 3.103 0 .843-.45 1.255-1 .915-.55-.34-1-.141-1 .441s.675 1.059 1.5 1.059h2c.275 0 .464-.249.42-.553-.045-.304.625-1.63 1.488-2.947 1.748-2.667 1.088-5.904-1.037-5.089-.874.336-1.371-.185-1.371-1.435 0-1.976-3.688-6.976-5.145-6.976-.432 0-1.285.935-1.897 2.078M400 403.535c0 .845-.727 2.645-1.616 4.002-.906 1.382-1.404 3.58-1.132 5 .339 1.774-.066 2.828-1.35 3.515-1.98 1.06-4.374 8.275-3.501 10.552.295.766.176 2.366-.264 3.555-.706 1.908-.878 1.959-1.461.438-.364-.948-1.115-1.444-1.669-1.101-1.561.964-1.188 2.504.606 2.504 1.697 0 1.696.024-.456 9.96-.807 3.729-.694 4.666.689 5.718 1.665 1.266.796 1.793-2.384 1.445-.57-.062-1.105.794-1.189 1.904-.084 1.109.271 1.755.788 1.436.516-.32.939-.157.939.361 0 .519-1.012 1.26-2.25 1.648l-2.25.706 2.309.661c1.27.364 2.282.998 2.25 1.411-.164 2.087.01 2.75.722 2.75 1.232 0 2.996-5.527 2.68-8.401-.168-1.534.123-2.356.708-1.995.547.338.905-.222.797-1.245-.108-1.022-.107-2.084.002-2.359.766-1.929.572-5.619-.326-6.196-.596-.382-.735-1.044-.309-1.471.427-.426 1.145-.178 1.596.553.532.859 1.047.962 1.462.29a1.216 1.216 0 0 0-.382-1.671c-.649-.4-.471-1.186.483-2.14 1.662-1.662 1.989-3.365.647-3.365-.474 0-.647-1.125-.384-2.5s.803-2.5 1.201-2.5c1.784 0 3.28-6.283 3.631-15.25.209-5.363.163-9.75-.103-9.75s-.484.691-.484 1.535m-39 2.11c0 .538-.813 1.85-1.806 2.916-.993 1.067-1.899 2.389-2.012 2.939-.585 2.843-1.414 4.5-2.249 4.5-.513 0-.933.723-.933 1.607 0 1.071-.541 1.399-1.621.985-1.246-.478-1.498-.156-1.093 1.395.291 1.11-.003 2.354-.653 2.765-2.088 1.322-4.739 6.267-4.001 7.462.394.637.75 2.754.792 4.704.096 4.458 3.576 5.979 3.576 1.563 0-2.69 3.661-8.407 4.791-7.481.336.275.702-2.25.815-5.61.141-4.236 1.031-7.861 2.901-11.814 1.484-3.137 2.427-5.975 2.096-6.307-.332-.331-.603-.162-.603.376m9 18.296c0 2.26-1.537 2.793-2.338.809-.277-.687-.54-.004-.583 1.519-.07 2.442-.374 2.695-2.579 2.142-2.273-.571-2.517-.322-2.688 2.731-.568 10.153-.516 12.793.243 12.324.462-.286.667.383.454 1.486-.212 1.103.036 2.267.552 2.586.517.319.939-.04.939-.799 0-.758 1.078-2.316 2.396-3.462 3.351-2.914 6.902-19.357 4.5-20.841-.493-.305-.896.373-.896 1.505" fill="#d3d3d3" fill-rule="evenodd"/></svg>