<svg xmlns="http://www.w3.org/2000/svg" width="500" height="736"><path d="M0 367.502v367.502l250.25-.252 250.25-.252.251-367.25L501.003 0H0v367.502m.495.498c0 202.125.115 284.812.255 183.75.14-101.063.14-266.438 0-367.5C.61 83.187.495 165.875.495 368M79 51.478c-13.474 4.359-19.647 17.626-15.565 33.456.79 3.061 2.174 9.616 3.076 14.566 3.714 20.368 13.044 41.491 28.166 63.761 16.109 23.723 19.729 33.482 19.747 53.239.018 19.111-4.186 28.506-12.751 28.496-17.987-.021-31.693-44.249-38.732-124.987-1.126-12.915-1.934-16.615-1.95-8.926-.005 2.43-.249 34.268-.543 70.753-.319 39.483-.169 66.109.37 65.776.498-.307 3.33-9.12 6.294-19.583C71.835 211.352 74 205.79 74 210.327c0 2.819 6.38 20.495 9.693 26.852 11.163 21.424 26.069 21.855 35.513 1.028 9.129-20.135 12.428-48.907 12.981-113.228l.271-31.521-2.733-4.664c-4.326-7.382-12.198-11.865-33.068-18.832-14.786-4.935-19.022-7.368-19.467-11.182-.402-3.433 2.856-5.643 9.474-6.427 12.975-1.536 25.051 4.841 33.576 17.731 2.88 4.354 5.579 7.916 5.998 7.916.419 0 .742-6.187.717-13.75l-.046-13.75-4.88 5.357-4.88 5.357-3.824-3.061C104.34 50.961 89.513 48.078 79 51.478m151.564 40.729c-11.421 27.468-12.581 31.117-13.598 42.793-2.442 28.048-3.191 35.869-5.555 58-4.595 43.012-8.176 63.939-11.918 69.65-.821 1.254-1.493 3.87-1.493 5.815V272h22v-3.883c0-3.051-.432-3.997-2.013-4.41-5.974-1.562-7.589-25.277-4.425-64.957l1.815-22.75h17.5l.529 4.25c.291 2.338 1.005 11 1.586 19.25 1.191 16.915 3.701 48.815 4.583 58.25l.584 6.25H232v8h46v-4c0-3.613-.245-4-2.531-4-3.356 0-3.124 1.231-5.482-29-1.137-14.575-3.383-41.8-4.991-60.5-1.608-18.7-3.197-37.6-3.531-42-.334-4.4-1.189-9.35-1.898-11-.71-1.65-2.963-7.5-5.006-13s-4.5-12.025-5.459-14.5l-1.745-4.5-7.711-.293-7.712-.292-1.37 3.292M357 107c0 9.9.337 17.998.75 17.996.413-.003 2.429-3.265 4.481-7.25C368.983 104.634 378.148 92 380.907 92c.799 0 1.034 22.736.849 82.25l-.256 82.25-4 .049-4 .049v9.902h51l.305-4.75c.325-5.068.431-4.974-5.805-5.171-3.535-.112-3.645-2.71-3.418-80.71.245-83.774.246-83.869 1.282-83.869 2.615 0 12.902 14.166 19.369 26.675 1.797 3.475 3.604 6.319 4.017 6.321.413.002.75-8.096.75-17.996V89h-84v18m-134.322 10.26c-1.724 4.013-5.579 35.733-5.65 46.49L217 168h7.333c4.034 0 7.526-.193 7.762-.428 1.397-1.397-2.589-42.136-4.826-49.322-1.972-6.335-2.267-6.398-4.591-.99M292 119.936c0 .585 1.35 1.064 3 1.064h3l.16 24.25c.402 60.783.398 78.143-.018 90.5-.442 13.111-.471 13.25-2.794 13.25-1.921 0-2.348.524-2.348 2.883 0 3.616.731 3.799 14 3.5 5.775-.129 12.413-.269 14.75-.309 4.039-.07 4.25-.223 4.25-3.074 0-2.533-.389-3-2.5-3-2.913 0-2.742 3.075-2.742-49.5 0-56.648-.088-54.687 2.425-54.32 3.531.517 3.886 3.987 4.798 46.82 1.05 49.306 2.704 60.865 9.383 65.542 10.168 7.122 18.172-7.353 18.706-33.831.253-12.513-.597-13.458-1.518-1.689-.488 6.246-1.077 8.97-1.882 8.704-.824-.274-1.349-7.162-1.777-23.307-.885-33.445-3.167-47.51-9.383-57.832-2.555-4.243-2.993-5.587-1.823-5.587.847 0 3.298-.987 5.445-2.194 7.95-4.468 7.591-15.936-.632-20.221-3.675-1.916-5.968-2.111-28.25-2.399-16.675-.217-24.25.018-24.25.75m28.307 11.814l.193 10.75 2.624.304c4.513.524 5.876-1.983 5.876-10.804 0-8.826-1.189-11-6.014-11h-2.872l.193 10.75M148 140.559c0 10.815.489 11.057 5.052 2.494 1.724-3.233 4.217-6.897 5.541-8.14l2.407-2.262.051 16.425c.028 9.033.13 28.349.227 42.924.343 51.423.017 60-2.278 60-1.467 0-2 .667-2 2.5v2.5h27v-2.5c0-1.99-.503-2.5-2.462-2.5h-2.461l-.029-59.5c-.023-48.409.216-59.5 1.282-59.5.721 0 3.304 3.164 5.74 7.03 7.361 11.682 6.863 11.63 6.898.72L193 131h-45v9.559m214.707 86.147c-.91 21.145-3.866 30.133-13.276 40.369-8.415 9.154-8.055 11.164 4.069 22.719 10.316 9.833 11.344 12.125 7.186 16.032-3.837 3.604-7.462 2.092-9.172-3.826-.397-1.375-1.85-4.466-3.23-6.87l-2.508-4.369-8.138.484c-4.476.266-10.328 1.255-13.004 2.198-4.605 1.623-5.249 1.622-11.97-.025-10.081-2.471-28.111-2.496-36.796-.052-5.3 1.492-7.309 1.65-10 .785-10.404-3.34-27.436-3.84-38.719-1.135-7.729 1.853-8.728 1.89-13.431.493-3.802-1.129-10.197-1.509-25.4-1.509H168v-9.958l-11.25 8.06c-6.187 4.432-11.822 8.611-12.522 9.286-1.017.982 1.186 3.052 10.992 10.329 6.745 5.006 12.605 8.891 13.022 8.634.417-.258.758-2.242.758-4.41V310h17.107c15.889 0 17.058.125 16.415 1.75-.381.962-.883 3.325-1.116 5.25-.421 3.473-.412 3.467 1.172-.761 2.075-5.54 4.236-6.593 12.335-6.012 12.03.864 19.131 6.263 19.864 15.102 1.626 19.608-25.396 25.026-32.873 6.591-1.726-4.256-1.794-4.306-1.848-1.348-.228 12.553 11.173 23.328 21.688 20.497 17.598-4.739 20.46-32.959 5.039-49.689-4.809-5.217-4.495-5.828 3.011-5.858 6.24-.024 5.937-.331 10.594 10.728 1.559 3.702 1.652 3.75 7.203 3.75 4.733 0 5.526.252 5.012 1.593-.336.876-.856 2.788-1.154 4.25-.452 2.21-.197 2.029 1.52-1.078 3.198-5.789 12.941-6.521 22.575-1.696 6.839 3.426 8.956 6.714 8.956 13.912 0 21.11-30.454 22.028-33.826 1.019-.25-1.553-.453-.957-.538 1.572-.76 22.734 27.372 30.492 34.176 9.424 4.431-13.72.757-31.672-7.951-38.85-3.441-2.837-3.503-3-1.539-4.051 6.009-3.216 11.616-.727 13.629 6.051 2.132 7.181 2.927 7.854 9.278 7.854 4.815 0 5.402.214 4.808 1.75-.372.962-.88 3.1-1.128 4.75-.396 2.633-.21 2.484 1.515-1.217 2.304-4.942 4.523-5.792 13.094-5.015 17.491 1.586 24.971 16.408 14.138 28.019-8.753 9.381-24.707 5.254-28.658-7.414l-1.364-4.373-.067 3.572c-.247 13.172 10.873 23.906 21.736 20.981 10.344-2.785 14.808-11.588 13.973-27.555-.559-10.671-2.456-15.514-8.776-22.395-4.67-5.086-4.624-5.243 1.728-5.844 5.852-.553 8.348 1.654 10.449 9.241l1.386 5 9.468.267c10.88.306 15.793-1.378 17.382-5.961.827-2.387.114-3.935-6.24-13.544-7.828-11.839-8.124-12.783-5.182-16.524 6.053-7.695 10.152-25.973 10.363-46.213.126-12.086-.07-14.019-1.454-14.295-1.382-.275-1.68 1.557-2.193 13.476M252 367.904c0 .603 1.575 1.096 3.5 1.096h3.5v146.873l-3.25.314c-2.967.286-3.277.639-3.56 4.063l-.311 3.75H292v-4c0-3.905-.083-4-3.5-4H285V409.354l7.75.023c11.723.035 17.31-3.443 22.64-14.094 5.105-10.204 2.504-21.574-5.899-25.781-3.631-1.818-6.406-2.03-30.741-2.346-18.939-.246-26.75-.028-26.75.748M176 370c0 .55 1.575 1 3.5 1h3.5l.014 41.25c.024 70.987 2.351 91.896 11.9 106.954 9.166 14.452 24.707 12.115 30.984-4.66 6.316-16.881 8.131-37.039 8.457-93.908.273-47.814.32-48.221 5.699-49.297 5.805-1.161 2.786-2.339-5.995-2.339-8.966 0-12.643 1.233-7.026 2.357 4.393.878 4.624 2.316 5.252 32.643.85 41.113-.915 78.659-4.443 94.5-3.046 13.679-10.266 18.571-14.259 9.663-3.29-7.342-3.717-14.938-4.263-75.913l-.549-61.25h3.614c1.988 0 3.615-.45 3.615-1 0-.633-7.333-1-20-1s-20 .367-20 1m109 15.07c0 15.874.026 16.065 2.15 15.75 4.776-.711 6.35-4.982 6.35-17.24 0-12.511-.798-14.58-5.622-14.58H285v16.07m58.552 4.18c-.212.688-.623 4.531-.914 8.54-.671 9.257-4.038 16.887-9.186 20.817-3.732 2.848-4.036 2.901-19.711 3.393-20.729.651-20.021-.023-19.565 18.639.32 13.092.356 13.269 3.261 16.298l2.937 3.063H340v3.941c0 2.168.346 4.155.77 4.417.78.482 22.468-15.907 23.042-17.412.275-.722-20.444-15.925-22.867-16.779-.52-.184-.945 1.504-.945 3.75V442h-26.975l-2.334 3.75c-1.283 2.063-3.036 5.55-3.895 7.75-1.849 4.739-4.28 5.48-8.105 2.472-4.975-3.913-3.452-7.245 6.976-15.267 8.024-6.173 9.496-11.706 3.833-14.406-5.664-2.702-4.177-3.298 8.25-3.31 15.841-.014 24.629-2.82 33.259-10.616 5.157-4.659 9.991-14.352 9.991-20.033V388h-8.531c-5.953 0-8.648.378-8.917 1.25m-34.791 96.337c2.914 1.356 3.292 4.205 1.246 9.396-2.346 5.95-2.41 6.384-.795 5.386.667-.412 2.69-.65 4.496-.528 2.75.185 3.609-.312 5.284-3.06 4.132-6.777 1.957-10.864-6.074-11.412-2.98-.203-4.85-.105-4.157.218m21.014.972c-3.857 2.093-4.775 4.385-4.775 11.92 0 12.023 4.776 25.469 9.36 26.352 4.995.962 9.649-9.736 10.389-23.881.543-10.386-.905-13.825-6.499-15.437l-2.25-.648v19.068c0 12.045-.368 19.067-1 19.067s-1-7-1-19c0-10.45-.337-18.982-.75-18.96-.413.022-1.976.706-3.475 1.519m24.975-.891c-1.584.433-1.75 2.181-1.75 18.405 0 15.268-.222 17.927-1.5 17.927-.825 0-1.5.45-1.5 1 0 .571 3 1 7 1s7-.429 7-1c0-.55-.44-1-.977-1-.591 0-1.086-7.217-1.25-18.25l-.273-18.25-2.5-.155c-1.375-.085-3.288.06-4.25.323m17.121 2.082c-2.167 2.381-2.53 3.789-2.707 10.5-.218 8.258-.162 8.39 2.766 6.562 1.472-.92 3.408-.911 8.557.038 5.602 1.032 7.118.994 9.584-.235 2.094-1.045 2.952-1.127 3.01-.288.045.645.7-.177 1.455-1.827 1.714-3.743 1.954-19.297.244-15.75-1.385 2.87-5.541 2.976-10.006.254-4.795-2.924-9.827-2.633-12.903.746m-51.682 12.345c-.399 3.368-3.388 4.705-8.878 3.972-4.976-.664-5.215-.588-5.851 1.87-1.356 5.245-2.109 13.162-1.298 13.663.461.285.838-.184.838-1.041 0-2.641 1.741-1.742 4.685 2.42 1.548 2.188 3.592 3.988 4.542 4 3.881.048 7.154-10.299 6.516-20.594-.201-3.237-.45-5.167-.554-4.29m64.311 9.37c-9.444 4.763-11.574 7.527-9.557 12.398 1.13 2.729 1.789 3.137 5.056 3.137 4.945 0 6.234-1.69 5.377-7.052-.661-4.134-.539-4.398 3.719-8.029 5.991-5.109 4.857-5.221-4.595-.454m-282.111 51.963c-.273.713-.36 3.946-.193 7.184.3 5.816.343 5.892 3.495 6.197 6.214.602 10.063-8.007 5.447-12.184-2.395-2.168-8.078-2.946-8.749-1.197m52.628-.142c-5.6 2.833-4.772 11.021 1.332 13.168 7.759 2.729 12.622-9.868 5.128-13.283-3.169-1.443-3.388-1.439-6.46.115m-88.878 30.801c-.514 1.327-1.897 4.834-3.074 7.793-1.176 2.959-1.835 5.659-1.465 6 .371.341.875.058 1.12-.63.264-.739 2.218-1.25 4.78-1.25 2.562 0 4.516.511 4.78 1.25.245.688.776.944 1.18.57.738-.685-3.921-13.533-5.525-15.233-.502-.533-1.25.092-1.796 1.5M114 598c0 4.667.417 8 1 8 .55 0 1-.675 1-1.5s.62-1.5 1.378-1.5c.757 0 1.937.675 2.622 1.5 1.981 2.387 4.322 1.988 2.784-.475-.974-1.559-.976-2.233-.009-3.2 1.733-1.733 1.521-7.386-.346-9.254-.865-.864-3.115-1.571-5-1.571H114v8m81.594-4.904a1262.24 1262.24 0 0 1-3.477 8.154c-1.683 3.906-1.786 4.75-.581 4.75.805 0 1.464-.45 1.464-1 0-1.405 7.348-1.252 8.783.183 2.423 2.423 2.147-.077-.795-7.212-3.749-9.092-3.655-9.007-5.394-4.875m28.545-1.009c-.514 1.327-1.897 4.834-3.074 7.793-1.176 2.959-1.835 5.659-1.465 6 .371.341.875.058 1.12-.63.568-1.59 7.489-1.641 9.063-.067 2.501 2.501 2.362-.38-.334-6.895-3.503-8.466-4.142-9.213-5.31-6.201" fill="#d3d3d3" fill-rule="evenodd"/></svg>