<svg xmlns="http://www.w3.org/2000/svg" width="500" height="649"><path d="M6 4.969c0 .532.787.715 1.75.405 1.324-.426 1.422-.328.402.401-1.034.74 1.122 3.423 9.25 11.511C23.231 23.087 28 28.306 28 28.884c0 .73 65.677 1.149 215.25 1.373 118.387.178 216.262.695 217.5 1.15 3.64 1.337 2.592 2.426-2.333 2.426-5.504 0-5.16-.395-4.647 5.335.352 3.923.843 4.843 3.083 5.771 2.702 1.119 8.482 1.606 11.058.931.838-.22 1.671.647 2.049 2.13.759 2.982.371 58.002-.415 58.788-.956.956-.584 2.354.455 1.712 1.533-.947 1.336 32.764-.2 34.3-.66.66-.773 1.2-.25 1.201.522 0 1.083 2.065 1.246 4.587.17 2.635-.098 4.343-.631 4.014-.777-.48-.917 5.802-.164 7.398.13.275.113.95-.038 1.5s-.395 13.978-.543 29.841c-.147 15.862-.486 29.059-.753 29.325-.266.267-.108 1.795.351 3.396.511 1.783.449 3.149-.16 3.526-.547.338-.753 1.244-.458 2.013.296.77-.011 1.406-.681 1.414-.761.01-.843.292-.219.75 1.092.803 1.712 2.866 1.57 5.226-.259 4.28-.287 6.262-.217 15.009.287 35.823.015 47.001-1.145 47.015-.82.011-.864.252-.137.75 1.196.821 1.342 7.654.188 8.809-.408.408-.24 1.346.372 2.084.81.976.814 1.703.015 2.666-.804.969-.77 1.672.128 2.625.97 1.029.956 1.4-.066 1.773-1.032.378-1.042.773-.049 1.97 1.024 1.233.811 1.839-1.208 3.44-2.186 1.733-2.235 1.912-.451 1.656 1.903-.274 2.006.32 2.132 12.207.073 6.872-.253 13.509-.725 14.75-.545 1.434-.483 2.255.171 2.255.625 0 .948 2.74.823 7-.146 5.02-.577 7-1.521 7-.758 0-1.074.635-.744 1.494.316.822.956 1.258 1.424.969.467-.289.682 1.176.477 3.256-.205 2.079-.86 3.669-1.455 3.531-1.465-.338-1.377 3.055.118 4.55.933.933.878 1.203-.25 1.215-1.233.013-1.226.161.05.985.825.533 1.107.976.628.985-.48.008-.356.637.275 1.398.888 1.07.786 1.522-.452 1.997-1.455.559-1.458.756-.025 2.189 2.447 2.447 2.289 17.598-.176 16.805-1.34-.431-1.43-.334-.387.411 1.151.821 1.151 1.057 0 1.515-1.067.424-1.078.559-.054.621.72.043 1.031.529.691 1.079-.34.55-.141 1 .441 1 1.268 0 .968 2.199-.441 3.235-.619.455-.524.74.25.75 1.495.018 1.681 3.63.234 4.525-.559.346-.777 1.016-.484 1.49.293.474.075 1.144-.484 1.49-.559.345-1.002 1.164-.984 1.819.017.655.664.357 1.436-.663 1.301-1.717 1.398-1.627 1.317 1.216-.051 1.781-.509 2.809-1.091 2.449-.61-.377-.686-.107-.194.689.539.873.419 1.068-.362.585-.644-.398-.912-1.142-.595-1.654.316-.512.098-.931-.484-.931s-1.059.675-1.059 1.5.466 1.5 1.035 1.5c.714 0 .714.601 0 1.934-1.401 2.618-1.305 3.107.476 2.423 1.052-.403 1.335-.12.932.931-.319.83-.051 1.836.596 2.236.872.539.825.947-.182 1.586-.999.632-1.027.863-.107.875.688.008 1.25.745 1.25 1.637 0 1.341-.265 1.403-1.524.358-.838-.696-1.838-.951-2.221-.568s-.1 1.066.631 1.517c.892.552.977 1.038.259 1.481-.701.434-.755 1.486-.157 3.059.637 1.675.55 2.519-.288 2.802-.886.298-.825.858.236 2.143.954 1.156 1.084 1.964.386 2.412-.62.399-.725 1.491-.256 2.674.729 1.837.799 1.803.864-.417.085-2.916.562-2.53 1.45 1.174.456 1.898.287 2.677-.54 2.5-.697-.149-1.331 1.108-1.509 2.993-.226 2.398.099 3.25 1.24 3.25.851 0 1.264.457.919 1.016-.346.559-1.025.771-1.511.471-.485-.3-.792 1.492-.681 3.982.198 4.431 1.033 5.775 2.04 3.281.394-.977.521-.969.583.035.043.707-.648 2.395-1.536 3.75-1.132 1.728-1.249 2.465-.393 2.465.672 0 .968.661.659 1.468-.31.807-.085 1.764.499 2.125.715.441.639.919-.229 1.456-1.017.628-1.034 1.11-.081 2.258.971 1.17.886 1.584-.427 2.088-1.237.475-1.368.955-.534 1.959.607.731.77 1.698.362 2.148-.407.45-.253.541.342.202.688-.391 1.084.646 1.084 2.84 0 1.901-.402 3.456-.893 3.456-.49 0-.638.412-.327.915.311.503.225 1.104-.191 1.336-.416.232-.193.284.494.116 1.587-.386 1.656 2.331.073 2.859-.761.253-.859.902-.278 1.833 1.113 1.784 1.514 4.095.614 3.539-.366-.226-.683.865-.704 2.425-.02 1.56.235 2.669.567 2.463 1.179-.728.79 22.984-.389 23.749-.829.537-.816.738.05.75.856.011 1.184 4.089 1.188 14.765.023 62.233.187 68.032 1.94 68.49 1.582.413 1.702-17.032 1.893-275.649.112-151.85.466-286.666.787-299.591l.584-23.5-59.288-.154c-32.608-.084-85.612-.262-117.787-.395-32.175-.134-88.875-.162-126-.064-136.799.362-142.586.269-141.677-2.279.218-.609 1.584-1.023 3.036-.92 1.453.104 2.641-.121 2.641-.5 0-.378 3.541-.737 7.869-.797C52.437 21.259 56 20.454 56 18.422c0-.847-.45-1.262-1-.922-1.266.782-1.266-.542 0-2.5.828-1.282.972-1.246.985.25.008.962.492 1.75 1.074 1.75.582 0 .781-.45.441-1s-.141-1 .441-1S59 15.75 59 16.667c0 .916.297 1.369.66 1.006.363-.363 1.289.237 2.057 1.333 1.538 2.197 5.283 2.724 5.282.744 0-.884 1.506-1.146 5.148-.894 4.4.305 5.059.123 4.532-1.25-.4-1.043-.081-1.606.911-1.606.841 0 1.279-.403.975-.895-.305-.493.119-1.153.941-1.469.822-.315 1.501-.025 1.509.645.011.887.216.909.75.08.537-.833 1.064-.785 1.956.176.961 1.036.961 1.421 0 1.81-.714.289-.514.528.479.574.935.043 2.159.867 2.72 1.829.561.962 1.033 1.202 1.05.531.016-.67.63-.988 1.363-.707.734.282 1.334-.141 1.334-.939 0-.8-1.296-1.711-2.887-2.029-3.943-.789-1.677-3.313 2.646-2.949 1.691.143 2.287.021 1.324-.272-2.923-.888-1.958-2.077 1.5-1.847 1.787.118 3.777-.205 4.422-.719 1.261-1.005 5.328.955 5.328 2.568 0 .498 1.125-.309 2.5-1.792 1.601-1.728 2.5-2.179 2.5-1.254 0 .795.675 1.704 1.5 2.021.825.316 1.5 1.334 1.5 2.262 0 1.57.126 1.572 1.829.031 1.086-.983 3.522-1.655 6-1.655 2.511 0 4.171-.464 4.171-1.167 0-1.296 1.428-.198 1.625 1.25.069.505.181 1.367.25 1.917.234 1.871 2.125 1.009 2.125-.969 0-1.339.48-1.784 1.5-1.393.826.317 1.5.03 1.5-.638s.674-.955 1.5-.638c.825.316 1.5.053 1.5-.585 0-.637.61-.325 1.355.694.83 1.135 1.993 1.609 3 1.223 1.113-.427 1.645-.103 1.645 1.004 0 .899.296 1.339.658.977.362-.362 1.231-.182 1.931.399 1.881 1.561 7.466 1.45 8.491-.169.696-1.1.893-.982.905.545.011 1.441.308 1.657 1.137.828.617-.617 1.854-.889 2.75-.606 1.407.447 1.425.37.128-.562-1.958-1.409-.449-1.421 2.173-.017 1.477.79 2.344.79 3.134 0 .791-.791.631-1.093-.576-1.093-1.099 0-1.464-.531-1.071-1.557.329-.857 1.215-1.321 1.969-1.032.793.304 1.371-.118 1.371-1.001 0-.841.457-1.245 1.016-.9.559.346.758 1.047.441 1.559-.316.512-.098.931.484.931s1.059-.354 1.059-.787c0-.84 2.216-1.253 8.249-1.537 2.062-.097 3.75-.495 3.75-.884.001-.8 7.546-.191 9.035.729.531.328.966.17.966-.351s.787-.885 1.75-.809c.963.077 1.643-.407 1.512-1.075-.148-.756.418-.979 1.5-.591.996.358 1.389.242.92-.271-.73-.797-92.862-.711-103.182.097-14.159 1.108-76.717.746-77.455-.448-.651-1.054-.905-1.042-1.345.064-.385.968-.565 1.001-.621.113C9.987 3.797 6 3.522 6 4.969m187.741 1.147c.325 1.243.805 1.619 1.217.953C196.044 5.31 208 5.092 208 6.83c0 .97.394 1.117 1.25.469 1.766-1.335 6.061-1.414 6.857-.125.399.645 1.219.738 2.031.229C220.184 6.122 224 5.797 224 6.904c0 .534.9.904 2 .821 1.1-.083 2-.56 2-1.06 0-.501.631-.386 1.403.254 1.057.877 1.497.88 1.787.011.212-.635 2.055-1.199 4.097-1.253 2.042-.055 3.713-.45 3.713-.879s-10.304-.77-22.898-.757c-22.597.022-22.891.049-22.361 2.075M135.75 158.784c-.963.199-1.746.892-1.741 1.539.005.647-1.371 2.311-3.057 3.698-3.84 3.157-3.235 5.066 2.338 7.369 5.712 2.36 9.814 4.568 12.21 6.57 1.1.919 3.28 2.467 4.844 3.44 1.963 1.221 2.692 2.353 2.353 3.65-.326 1.246.149 2.084 1.406 2.483 1.043.331 1.897.959 1.897 1.396 0 .436 1.158.572 2.574.302 2.76-.528 10.426 5.75 10.426 8.538 0 2.587 2.144 5.616 2.998 4.234.568-.919 1.257-.544 2.508 1.365.948 1.448 2.365 2.632 3.148 2.632 1.168 0 1.193.251.135 1.395-.709.767-1.627 1.191-2.039.941-.412-.25-.75.011-.75.58 0 .633-1.259.782-3.246.385-3.11-.622-3.171-.575-1.466 1.129 1.705 1.705 1.671 1.879-.806 4.175-1.422 1.317-3.184 2.395-3.917 2.395-.732 0-1.554.849-1.825 1.887-.371 1.417.035 1.878 1.633 1.854 1.17-.017 4.152.277 6.627.655 6.301.96 12.97.851 16.5-.271 1.65-.524 2.213-.992 1.25-1.039-.963-.047-1.75-.33-1.75-.628 0-2.644 5.058-4.424 10.133-3.565 1.026.173 1.766 4.107.773 4.107-.498 0-.906-.45-.906-1s-.505-1-1.122-1c-.826 0-.828.355-.009 1.342.612.738.854 1.602.536 1.92-.855.855 4.344 4.011 5.466 3.318.527-.326 1.109-.163 1.294.362.265.757 9.197 1.787 17.546 2.024.666.019 2.089.977 3.163 2.129 1.346 1.445 2.6 1.889 4.039 1.433 1.798-.571 2.087-.249 2.087 2.321 0 1.642.563 3.211 1.25 3.489.747.301.545.536-.5.583-2.52.114-2.156 1.857.5 2.398 1.238.251-5.85.324-15.75.161-11.064-.182-15.688-.011-12 .444l6 .74-8.75.168c-6.838.131-8.75.48-8.75 1.597 0 .785-.618 2.047-1.374 2.803-.756.755-1.319 2.7-1.25 4.321.105 2.509-.285 2.994-2.626 3.263-1.512.174-2.75-.163-2.75-.75 0-.586-.477-1.066-1.059-1.066s-.807.408-.498.908c.308.499.158 1.961-.333 3.25l-.895 2.342-.716-2.75c-.799-3.07-1.949-3.443-4.07-1.321-1.669 1.669-1.879 3.571-.394 3.571.714 0 .714.601 0 1.934-1.762 3.294-1.25 5.066 1.465 5.066 2.111 0 2.5-.467 2.5-3 0-1.65.45-3 1-3s1 1.275 1 2.833c0 1.559.269 3.103.598 3.431 1.044 1.045 3.297-.375 2.771-1.746-.278-.723-.025-1.613.563-1.976.63-.389 1.122.288 1.2 1.649.092 1.612.354 1.253.868-1.191.405-1.925.796-2.712.868-1.75.073.962.53 1.75 1.015 1.75.486 0 1.162.788 1.501 1.75.34.962.879 2.313 1.2 3 .336.722-.093 1.25-1.015 1.25-.879 0-2.49 1.462-3.58 3.25-1.76 2.887-1.982 2.998-1.985 1-.005-2.656-.777-2.798-3.783-.692-2.695 1.888-5.191.872-2.569-1.046 3.125-2.285.027-4.512-6.274-4.512-3.119 0-5.378-.445-5.378-1.059 0-.582.45-.781 1-.441 1.489.92 1.209-.434-.429-2.071-2.019-2.02-2.571-1.79-2.571 1.071 0 1.375-.48 2.5-1.067 2.5-.613 0-.797-.853-.433-2 .883-2.783-1.34-2.558-2.469.25l-.904 2.25-.064-2.367c-.049-1.85-.493-2.254-2.033-1.851-1.72.45-1.942.052-1.75-3.134.198-3.287-.028-3.646-2.28-3.633-2.39.015-2.485.245-2.158 5.25.217 3.326-.056 5.235-.75 5.235-.642 0-1.092-2.036-1.092-4.941 0-5.033-1.508-7.425-3.112-4.937-.741 1.15-1.032 1.155-1.756.033-1.369-2.123-2.334 3.29-1.55 8.7.823 5.676 2.021 8.145 3.953 8.145.989 0 1.465 1.066 1.465 3.278 0 3.067 2.658 6.722 4.889 6.722.476 0 1.386.626 2.021 1.391 1.454 1.753 7.05 2.652 9.273 1.49 1.261-.659 1.842-.378 2.317 1.12.349 1.099 1.36 1.999 2.246 1.999.887 0 3.148.555 5.025 1.234 3.371 1.219 4.96.425 6.443-3.221.79-1.942 5.571-1.945 6.078-.003.287 1.094.113 1.99-.386 1.99-2.055 0-.717 2.803 1.545 3.235 3.724.712 8.613-2.143 10.209-5.963.77-1.844 1.792-3.111 2.27-2.815 1.275.788 3.375 10.305 2.676 12.127-.329.859-.081 2.529.552 3.711.633 1.183 1.25 3.901 1.37 6.041.317 5.613 5.476 7.529 11.416 4.24 2.216-1.228 2.618-1.132 4.322 1.035 2.148 2.73 5.002 3.02 9.035.916 1.54-.804 4.303-1.876 6.14-2.383l3.339-.922-.519 3.868c-.993 7.405 3.401 10.733 9.528 7.216 2.787-1.599 2.982-2.136 3.495-9.613.298-4.356 1.084-8.431 1.746-9.056.934-.882 1.051-.069.524 3.62-.546 3.825-.371 4.876.889 5.36.869.333 1.844 2.328 2.187 4.473.835 5.219 2.509 6.509 6.369 4.91 3.454-1.43 3.964-4.629 1.495-9.364-1.804-3.459-1.835-5.393-.137-8.454 2.326-4.193 3.936-.43 3.111 7.272-.569 5.31-.434 6.546.716 6.546 2.441 0 3.812-2.252 3.925-6.45.103-3.811.176-3.702 1.25 1.847 1.303 6.735 3.134 8.534 7.192 7.065 3.088-1.118 7.121-12.071 7.572-20.565.31-5.855.107-6.11-3.939-4.95-3.438.986-4.325-.175-1.434-1.879 1.438-.847 1.504-1.193.372-1.938-1.067-.702-1.219-2.403-.671-7.518.46-4.293.35-6.612-.312-6.612-1.482 0-2.344 1.765-1.07 2.19 1.215.405-.991 8.81-2.312 8.81a.629.629 0 0 1-.639-.75c.521-3.298-.376-5.102-2.868-5.769l-2.75-.735 3.5-1.476c1.925-.811 3.725-1.812 4-2.223.275-.411 1.439-1.241 2.587-1.845 2.551-1.342 2.473-4.039-.217-7.459-1.385-1.76-2.46-2.306-3.4-1.725-2.052 1.269-3.117.125-1.938-2.079.715-1.335.716-1.939.003-1.939-.569 0-1.035-.45-1.035-1s.9-1 2-1 2.007.563 2.015 1.25c.012.92.243.892.875-.107.61-.961.86-.613.86 1.197 0 1.404.731 3.284 1.625 4.178.894.894 1.626 2.155 1.627 2.803.001 1.148 2.747-3.401 4.957-8.21.603-1.313 1.356-2.129 1.673-1.812.317.317-.1 1.932-.926 3.589-1.082 2.168-1.181 3.145-.355 3.484.662.27.508.504-.36.549-.831.043-2.094 1.014-2.808 2.158-1.137 1.82-1.054 2.142.667 2.592 1.081.283 2.232 1.26 2.558 2.171.326.912.847 2.333 1.157 3.158.31.825-.377.424-1.526-.892-2.758-3.157-3.207-2.46-3.172 4.922.036 7.484.681 8.606 1.65 2.869l.716-4.236 1.678 4.859c1.309 3.788 2.281 5.019 4.41 5.588 1.858.497 2.684.357 2.586-.44-.333-2.708.196-3.456 2.093-2.96 1.535.402 2 .031 2-1.593 0-1.165.484-2.117 1.076-2.117.731 0 .971-4.476.75-14.001-.179-7.701-.101-13.994.174-13.985 1.243.041 3.429 1.956 2.25 1.971-.913.011-1.233 2.506-1.187 9.265.064 9.28 1.842 9.682 2.211.5.166-4.128 1.726-5.258 1.726-1.25 0 1.532.569 2.5 1.469 2.5.832 0 1.241-.593.943-1.369-.312-.812.311-1.587 1.531-1.906 1.132-.296 2.057-1.287 2.057-2.203 0-1.403.214-1.451 1.358-.307.747.747 1.257 2.692 1.132 4.322-.124 1.63-.029 2.175.212 1.213.24-.962 1.332-1.75 2.427-1.75 1.094 0 1.706-.457 1.361-1.016-.346-.559-.996-.789-1.445-.512-1.041.644-2.082-3.211-1.37-5.068.297-.772 1.391-1.404 2.432-1.404s1.893-.45 1.893-1-.402-1-.893-1c-1.534 0-2.241-3.298-.891-4.155.784-.497.851-.82.173-.83-1.725-.023-.4-4.85 1.467-5.346 1.347-.358 1.306-.458-.223-.553-1.354-.084-1.723-.665-1.343-2.116.287-1.1.163-2-.277-2-1.19 0-1.823 2.226-1.491 5.247.21 1.916-.249 2.849-1.614 3.282-1.05.333-1.908 1.195-1.908 1.916 0 .967-1.217 1.172-4.65.785-3.071-.346-4.432-.172-4.01.512.432.699-2.169.86-8.002.496-5.943-.371-8.438-.209-7.989.518.414.669-.173.876-1.598.564-1.548-.339-1.849-.206-.962.426 1.869 1.334-.078 5.835-2.835 6.556-2.068.541-2.171.313-1.709-3.781.399-3.546.217-4.252-.978-3.793-.808.31-1.761.151-2.118-.353-.388-.548-2.455-.473-5.144.188-4.262 1.046-4.379 1.166-2.25 2.306 1.235.661 2.245 1.96 2.245 2.887 0 1.197-1.077.577-3.714-2.138-3.365-3.464-3.715-4.338-3.715-9.28 0-5.507 1.436-7.864 4.179-6.859.688.252 1.25.135 1.25-.26 0-.396 1.575-.719 3.5-.719 2.963 0 3.5.345 3.5 2.25 0 2.413-.027 2.404 7.5 2.612 3.411.094 4.921.535 4.75 1.388-.138.688.677 1.25 1.809 1.25 1.14 0 1.779.454 1.431 1.016-.346.559-1.047.758-1.559.441-.512-.316-.931-.098-.931.484 0 1.616 2.709 1.261 3.362-.441.361-.941 1.89-1.5 4.107-1.5 4.119 0 4.861-1.966.781-2.07-2.401-.062-2.496-.173-.75-.875 1.1-.443 2.376-.585 2.836-.318.46.268.748-.575.64-1.875-.355-4.255-.061-5.544.914-4.005.72 1.136.996 1.137 1.692.01.617-.999.979-.727 1.398 1.049.535 2.265.659 2.302 2.285.676.946-.946 2.173-1.439 2.727-1.097.555.343 1.008.146 1.008-.436s.675-1.059 1.5-1.059c2.11 0 1.88-1.547-.25-1.683-.962-.061-8.275-.113-16.25-.116-7.975-.002-18.02-.084-22.323-.182-7.158-.163-7.869-.002-8.366 1.901-.316 1.206-1.36 2.08-2.487 2.08-1.068 0-1.704.386-1.412.857.291.472-1.032 3.451-2.941 6.621-1.909 3.171-3.471 6.16-3.471 6.643 0 .484-.45.879-1 .879s-1 .675-1 1.5-.643 1.5-1.429 1.5c-.785 0-2.135.707-3 1.571-.864.865-1.571 1.09-1.571.5 0-1.16-4.248-1.489-5.325-.413-.362.362-.267 1.149.21 1.75s.548 1.971.157 3.045c-.598 1.644-.812 1.447-1.351-1.25-.511-2.555-1.135-3.203-3.083-3.203-1.343 0-2.668-.562-2.946-1.25-.403-1-.52-1-.583 0-.093 1.473-3.079 1.716-3.079.25 0-1.952-10.991-1.208-11.079.75-.063 1.394-.195 1.445-.65.25-.314-.825-1.066-1.831-1.671-2.235-.605-.404.7-.773 2.9-.82 3.157-.068 3.579-.267 2-.945-1.579-.678-1.157-.877 2-.945 4.946-.106 6.195-.865 6.673-4.055.212-1.417.946-2.378 1.694-2.219.99.211 1.168-.664.716-3.5-.779-4.878.579-7.306 2.539-4.542 1.731 2.442 5.606 4.547 6.899 3.748.538-.333.979-.042.979.645 0 .688.661.377 1.468-.691 2.023-2.674 1.895-3.191-.79-3.191-2.604 0-10.678-4.735-10.678-6.263 0-.543.45-.987 1-.987s1-.413 1-.918c0-.506 1.649-2.756 3.664-5 3.079-3.43 4.277-4.082 7.5-4.082 2.394 0 3.842.47 3.851 1.25.012.92.243.892.875-.107.628-.99 1.053-1.045 1.574-.201.413.668 1.203.803 1.875.319 2.122-1.529 6.386-1.393 8.035.255 1.501 1.502 1.626 1.502 1.626-.004 0-.896.474-1.337 1.052-.98.579.358 11.379.323 24-.077l22.948-.727v-2.555c0-2.452-.057-2.477-1.422-.614-1.741 2.376-12.234 2.611-13.665.307-.491-.79-.44-1.507.119-1.699.532-.184.968-1.121.968-2.084 0-.962.675-1.75 1.5-1.75.98 0 1.5.982 1.5 2.834s.52 2.833 1.5 2.833c.825 0 1.447-.338 1.382-.75-.561-3.548.288-5.25 2.618-5.25 1.556 0 2.5-.567 2.5-1.5 0-2.787-9.633-1.999-12.427 1.016-2.242 2.419-2.352 2.438-2.859.5-.29-1.109-.119-2.016.38-2.016.498 0 .906-.45.906-1 0-1.642-2.362-.651-3.575 1.5-.88 1.559-.814 2.257.301 3.167 1.231 1.005 1.194 1.525-.264 3.75-1.502 2.293-2.353 2.583-7.577 2.583-5.888 0-8.419-2.075-4.135-3.391.962-.295.526-.393-.97-.218-1.496.176-2.482-.065-2.191-.535.291-.471-.126-.856-.927-.856-1.847 0-1.637-7.12.278-9.428 1.653-1.991 6.06-2.085 6.06-.129 0 .794 1 2.144 2.223 3l2.222 1.557h-2.782c-1.529 0-2.532.403-2.228.895.305.493-.231 1.216-1.191 1.608-1.597.652-1.576.781.256 1.534 4.047 1.664 6.66 1.14 6.423-1.287-.121-1.238.111-3.016.517-3.952.889-2.053-.029-3.798-1.999-3.798-1.932 0-1.881-4.617.059-5.362 3.198-1.227 1.579-3.285-2.412-3.067-3.101.169-4.014-.179-4.406-1.679-.422-1.612.07-1.892 3.33-1.892 5.678 0 7.078.792 6.372 3.604-.495 1.976-.221 2.396 1.567 2.396 1.192 0 1.929-.385 1.638-.856-.291-.47.583-.643 1.941-.383 1.494.286 2.47.007 2.47-.703 0-.647-.441-.904-.979-.571-1.369.846-5.021-1.273-5.021-2.914 0-1.666 3.7-2.692 7.03-1.95 1.521.339 2.01.219 1.273-.313-.659-.474-.884-1.334-.5-1.909 1.014-1.523 4.197-2.516 4.197-1.311 0 .566.476.734 1.057.375 1.901-1.175 5.943.472 5.943 2.422 0 2.115-7.945 3.821-9.098 1.954-.351-.567-.936.157-1.3 1.61-.989 3.938-.404 4.221 8.351 4.041 4.426-.092 8.047.21 8.047.671 0 .46-.542.725-1.205.587-.662-.137-1.225.349-1.25 1.081-.025.731-.833 1.906-1.795 2.61s-1.743 2.13-1.735 3.169c.013 1.586.171 1.649.985.39.646-1 .974-1.083.985-.25.009.724 1.302 1.25 3.074 1.25 1.692 0 2.795.427 2.468.956-.325.526-1.139.748-1.809.493-.827-.315-1.234.821-1.267 3.544-.027 2.204.343 4.007.822 4.007.478 0 1.594.724 2.479 1.609 1.479 1.479 1.473 1.685-.071 2.55-2.086 1.167-2.193 2.841-.181 2.841.825 0 1.5-.388 1.5-.861 0-.474 1.125-.647 2.5-.384 1.657.317 2.5 1.141 2.5 2.445 0 2.569 2.071 1.841 3.163-1.112.694-1.875.561-2.196-.706-1.71-.859.33-1.318.205-1.02-.276.297-.481-.388-1.117-1.522-1.414-1.579-.413-1.986-1.199-1.739-3.359.478-4.163 5.439-4.969 8.571-1.394 2.04 2.329 2.341 2.408 3.276.857.567-.94 1.693-1.454 2.503-1.143 1.96.751 1.893 3.351-.085 3.351-.924 0-1.268.47-.846 1.155.443.715.275.883-.44.44-.635-.392-1.155-.236-1.155.346s1.012 1.066 2.25 1.074c1.46.01 1.819.289 1.024.794-.674.428-1.349 2.894-1.5 5.48-.229 3.929-.603 4.707-2.274 4.736-1.854.033-1.871.111-.229 1.067.974.567 1.529 1.422 1.234 1.9-.296.479-.08 1.152.479 1.498.559.345 1.016-.074 1.016-.931 0-.857.45-1.559 1-1.559s1-.675 1-1.5c0-1.862 5.598-2.083 6.338-.25.277.688.54.035.583-1.45.046-1.582-.646-3.123-1.671-3.72-.963-.561-1.38-1.033-.929-1.05.452-.016.115-.737-.75-1.601-2.368-2.369-1.888-3.53.929-2.247 1.375.626 2.5 1.709 2.5 2.405 0 .697.738 1.412 1.64 1.59 1.979.39 2.816 5.914 1.065 7.026-.867.552-.785.775.295.797 1.333.027 1.333.138 0 1-1.232.796-1.128.972.583.985 2.809.02 3.646-1.004 2.223-2.719-.799-.962-.843-1.635-.137-2.092.572-.371 1.763-2.024 2.646-3.674l1.605-3 .04 3.22c.022 1.77.911 4.771 1.977 6.667 1.617 2.879 1.699 3.539.5 3.999-1.025.393-1.437-.204-1.437-2.084 0-3.667-1.108-2.214-1.216 1.595-.049 1.707-.587 3.103-1.196 3.103-.61 0-2.302 1.106-3.76 2.459-4.032 3.738-13.694 5.443-14.647 2.584-.262-.786.017-1.039.689-.623.746.46 1.091-.258 1.014-2.111-.064-1.545-.314-2.06-.557-1.144-.242.916-1.12 1.925-1.949 2.244-1.139.437-1.354.09-.876-1.415.348-1.097.184-1.994-.365-1.994-.549 0-1.142 1.012-1.317 2.25-.227 1.592-1.101 2.34-2.992 2.559-2.22.257-2.585-.02-2.163-1.637.28-1.071.02-2.249-.578-2.618-.598-.37-1.087-.169-1.087.446s-.449.84-.999.501c-.576-.356-.893.359-.75 1.691.201 1.862-.177 2.249-1.954 2.003-1.836-.254-2.118.079-1.691 2 1.275 5.74 1.481 10.805.439 10.805-.643 0-.421 1.023.542 2.492.898 1.371 1.387 3.134 1.086 3.918-.301.783.1 1.673.89 1.976.79.303 1.437 1.09 1.437 1.749s-.307.891-.683.515c-.376-.376-1.287.753-2.026 2.508-1.704 4.054-.453 5.169 2.423 2.159 1.218-1.274 1.691-2.317 1.05-2.317-.844 0-.823-.341.078-1.242.988-.988 1.436-.938 2.2.25 1.501 2.337 2.916 8.288 2.494 10.492-.211 1.1-.417 2.393-.459 2.872-.043.48-.752.313-1.577-.372-1.949-1.617-1.978-.08-.085 4.451.778 1.862 1.172 3.628.876 3.924-.296.296-.243 1.308.118 2.249 1.072 2.792 2.706.138 2.77-4.499.031-2.284.342-4.329.689-4.543.856-.529.546-22.103-.338-23.533-.386-.625-.268-1.679.262-2.343.531-.663.78-2.918.553-5.009l-.412-3.804 4.284.431c4.76.479 9.239-.777 8.284-2.322-.707-1.144.565-1.298 3.001-.363 1.162.446 1.312.858.498 1.361-.823.509-.701.901.416 1.329.871.335 1.584.146 1.584-.419 0-.566.408-.776.906-.468.498.308.669 1.466.38 2.574-.411 1.572-.159 1.872 1.151 1.37.923-.354 1.441-1.261 1.152-2.015-.289-.754-.09-1.371.442-1.371.533 0 .969.675.969 1.5s.563 1.507 1.25 1.515c.911.011.938.215.099.75-.633.404-1.151 2.452-1.15 4.552.001 2.099-.269 4.086-.599 4.416-.33.33-.6-.825-.6-2.566 0-1.742-.505-3.167-1.122-3.167-.776 0-.738-.464.122-1.5.897-1.081.922-1.5.091-1.5-1.944 0-2.382 2.838-1.121 7.273.661 2.325 1.276 5.127 1.366 6.227.09 1.1 1.24 3.509 2.556 5.353 2.428 3.405 1.881 5.089-1.667 5.132-.701.008-1.76 1.253-2.353 2.765-.996 2.541-1.134 2.598-1.811.75-1.262-3.448-.069-10.49 1.794-10.579 1.038-.05 1.184-.265.395-.583-.687-.278-1.25-1.169-1.25-1.98 0-.915.475-1.19 1.25-.725.885.532.858.268-.091-.904-.738-.91-1.585-4.334-1.882-7.61-.73-8.055-2.71-7.075-3.026 1.499-.203 5.503.004 6.498 1.253 6.019.823-.316 1.496-.138 1.496.394 0 .533-.675.969-1.5.969-1.048 0-1.5 1.056-1.5 3.5 0 1.925-.45 3.5-1 3.5-.606 0-1-4.353-1-11.059 0-7.236-.351-10.842-1.016-10.431-.559.346-.715 1.117-.346 1.714.39.63.208.799-.435.401-.751-.464-1.22 1.334-1.462 5.596-.351 6.191-.358 6.169-.548-1.53-.134-5.428-.531-7.6-1.303-7.123-.611.377-.905 2.092-.654 3.809.252 1.718.121 4.248-.29 5.623-.566 1.896-.771 1.231-.846-2.75-.055-2.887-.517-5.25-1.027-5.25-.509 0-1.132-.787-1.384-1.75-.251-.963-.509-.119-.573 1.875-.064 1.994-.397 5.031-.741 6.75-.472 2.361-.267 3.125.838 3.125 1.047 0 1.526 1.35 1.687 4.75.23 4.88.78 11.09 1.53 17.25.234 1.925.458 5.225.498 7.333.108 5.732 2.487 4.116 2.816-1.912.507-9.28 1.397-15.39 2.326-15.964.511-.316.93-.098.93.484s.563.947 1.25.809c.929-.186 1.263 2.254 1.3 9.5.034 6.744.458 10.135 1.375 11 1.06 1 1.417 1 1.783 0 .784-2.137 3.294-1.374 4.315 1.31.535 1.408 1.408 2.292 1.939 1.964.531-.328 1.91.348 3.064 1.502 3.678 3.678 4.461 2.123 4.636-9.211.089-5.784.606-12.128 1.15-14.098 1.131-4.094.846-4.702-1.87-3.992-1.297.339-1.947 1.383-1.957 3.142-.01 1.734-.292 2.197-.827 1.355-.71-1.119-.751-6.376-.262-33.472.182-10.1 2.024-6.227 2.32 4.881.267 9.979.432 10.728 2.7 12.232l2.416 1.601-.633-16.063c-.649-16.494-1.169-19.847-2.911-18.77-.625.386-.79-.462-.438-2.256 1.898-9.688.653-20.19-2.842-23.961-3.229-3.485-4.973-3.084-5.194 1.193-.24 4.64-.627 4.939-4.759 3.671-4.119-1.264-4.555-.94-4.555 3.389 0 1.833-.498 3.333-1.107 3.333s-.848-.675-.531-1.5c.316-.825.139-1.5-.393-1.5-.533 0-.969.477-.969 1.059s-.481.762-1.068.399c-.588-.363-.818-1.313-.512-2.111.319-.83.123-1.183-.456-.825-.558.345-.949.256-.87-.198.518-2.981-.279-3.882-3.344-3.78-10.549.351-10.75.397-10.75 2.456 0 1.354-.667 2-2.063 2-1.726 0-2.012-.532-1.75-3.25.2-2.083.852-3.25 1.813-3.25.971 0 1.613-1.182 1.821-3.353.177-1.844-.048-3.153-.5-2.909-.452.245-1.559-.334-2.461-1.286-1.528-1.614-1.469-1.809.87-2.875 2.095-.954 2.417-.901 1.947.323-.396 1.033.381 1.669 2.63 2.151 1.756.376 3.596.923 4.089 1.216.492.292 2.517.661 4.5.819 1.982.158 6.417.531 9.854.829 3.779.328 6.25.156 6.25-.436 0-.539-.477-.979-1.059-.979s-.801-.418-.485-.928c.315-.51-.446-1.246-1.691-1.635-1.246-.389-2.55-1.15-2.898-1.691-.639-.995-8.177-1.29-9.651-.379-.438.271-2.266-.219-4.061-1.089-2.545-1.233-3.998-1.355-6.604-.555-1.911.586-3.92.658-4.696.166-.998-.632-1.026-.862-.105-.874 2.628-.032 1.087-1.912-2.5-3.049-2.062-.654-4.668-1.762-5.79-2.463-5.89-3.678-23.467-4.728-25.449-1.52-.675 1.092-1.139 1.032-2.492-.321-.914-.914-2.552-1.662-3.64-1.662s-3.193-.611-4.679-1.357c-3.598-1.809-7.539-1.352-14.357 1.663l-5.652 2.499-3.345-2.862c-4.24-3.627-8.342-3.745-17.294-.498l-6.742 2.446-2.155-2.496c-4.848-5.615-18.316-4.016-27.323 3.245-5.237 4.221-5.54 4.206-12.448-.64-3.136-2.2-6.105-4-6.599-4-.493 0-2.36-1.08-4.149-2.4-1.789-1.319-4.88-2.705-6.87-3.078-1.99-.373-7.574-2.666-12.409-5.094-4.836-2.429-10.719-5.11-13.075-5.96-9.391-3.386-15.367-5.03-17.032-4.684m135.101 94.467c1.69 1.69 1.399 4.824-.601 6.463-1.623 1.33-1.586 1.399.5.954 2.111-.451 2.246-.162 2.182 4.676-.057 4.367-.229 4.821-1.126 2.964-1.119-2.314-3.806-3.922-3.806-2.277 0 .533.45.969 1 .969s1 .702 1 1.559-.434 1.291-.964.963c-.57-.352-.927 1.269-.873 3.961.05 2.506.512 4.816 1.026 5.134.514.317 1.412 1.771 1.996 3.23l1.061 2.653 1.312-3.083c.967-2.274 1.16-6.484.735-16.048-.537-12.054-.718-12.975-2.584-13.116-1.512-.114-1.724.132-.858.998M256 264.151c0 9.566 1.378 13.876 4.338 13.572 1.189-.123 2.493-.673 2.897-1.223.455-.619.74-.524.75.25.008.688.581 1.25 1.272 1.25.937 0 1.164-2.07.889-8.122-.245-5.39.016-8.36.776-8.83 1.399-.864.336-4.048-1.35-4.048-.876 0-1.104 2-.818 7.185.348 6.311.213 7.033-1.109 5.935-1.04-.863-1.384-2.544-1.113-5.437.216-2.303-.034-4.861-.554-5.685-.696-1.1-.983-.436-1.081 2.502-.131 3.911-1.438 10.492-1.887 9.5-.124-.275-.316-3.091-.426-6.258-.322-9.278-2.584-9.795-2.584-.591m-102.251 85.362c-4.174 4.073-6.468 7.055-6.122 7.959.367.954-.317 1.663-2.016 2.089-2.018.507-2.379 1.003-1.681 2.309.576 1.075.405 2.54-.484 4.146-.756 1.366-1.391 3.67-1.411 5.12-.033 2.464-1.423 4.906-11.589 20.364-2.17 3.3-4.129 6.45-4.352 7-.223.55-1.51 2.458-2.86 4.239-2.912 3.843-1.601 4.992 3.894 3.411 3.223-.927 3.251-.974.622-1.06-3.424-.112-3.417-.26.25-5.59 1.65-2.398 3-4.748 3-5.222 0-.474 1.591-2.548 3.535-4.609 1.944-2.061 3.255-4.199 2.914-4.751-.693-1.122 4.116-7.918 5.602-7.918.522 0 .949 1.35.949 3 0 2.061-.492 3-1.571 3-1.397 0-1.405.167-.073 1.499 1.066 1.065 1.403 3.091 1.167 7-.182 3.026.075 5.753.573 6.06.497.308.904 2.107.904 4 0 5.559 1.711 3.943 2.444-2.309.371-3.163.903-6.538 1.183-7.5.649-2.238 2.373-2.281 2.373-.059 0 1.475.188 1.443 1.468-.25 2.418-3.197 1.99 2.348-.468 6.059-4.034 6.091-2.098 10.656 5.295 12.49 5.306 1.317 13.558 4.507 20.886 8.074 9.406 4.579 28.624 6.773 33.319 3.804.55-.348 2.522-.96 4.383-1.359 2.464-.529 3.007-.965 2-1.602-.947-.6-.202-.921 2.367-1.017 5.399-.202 5.747-.279 6.536-1.442.393-.579 4.989-1.622 10.214-2.317 16.325-2.174 15.645-3.291-4-6.573-14.959-2.499-15.171-2.642-14.903-10.041.124-3.403-.034-6.607-.351-7.119-.316-.512-.131-3.173.411-5.914 1.968-9.942 1.988-10.614.391-13.052-.877-1.337-1.164-2.432-.638-2.432 3.084 0 .85-11.734-2.312-12.142-.604-.077-2.223-.19-3.598-.25-1.972-.085-2.436-.57-2.198-2.295.432-3.125-2.466-4.286-9.919-3.975-4.445.185-7.901-.32-11.383-1.665-2.932-1.132-8.102-2.043-12.5-2.203-4.125-.15-9.173-.992-11.218-1.871S160.92 343 160.744 343c-.176 0-3.324 2.931-6.995 6.513m142.324 15.899c-.581.7-.722 1.64-.314 2.089.407.45.008.556-.887.236-.896-.319-2.133-.076-2.75.541-.829.829-1.122.809-1.122-.078 0-.66-1.012-1.171-2.25-1.137-2.242.064-2.241.067.145 1.022 3.2 1.28 1.938 2.362-1.598 1.372-1.539-.43-3.448-.669-4.243-.531-1.21.211-1.231-.008-.128-1.337 1.116-1.345 1.06-1.589-.363-1.589-.932 0-1.388.473-1.024 1.063.444.719-.658.867-3.406.457-7.697-1.148-16.108 5.243-8.716 6.622 1.055.197 2.105.921 2.334 1.609.233.7-.17 1.051-.917.798-5.456-1.851-8.441-1.422-11.77 1.689-1.886 1.762-2.867 3.328-2.221 3.543 1.837.612 1.35 2.959-1.093 5.265-1.532 1.446-1.771 2.06-.75 1.921 3.092-.42 3.859.115 4.527 3.158.454 2.064.265 3.385-.555 3.892-.896.554-.641 1.09.914 1.922 1.185.634 2.529.923 2.985.641.456-.282.699 1.835.54 4.704-.159 2.869-.078 4.091.18 2.716 1.109-5.91 1.508-7 2.564-7 .75 0 .912 1.494.493 4.552-.397 2.894-.264 4.329.364 3.941.543-.336.995-1.597 1.003-2.802.025-3.6 1.581-5.009 5.981-5.419l4.168-.389-.332 6.809-.332 6.808-6-.228c-5.063-.193-5.61-.059-3.5.855 1.375.596 3.85 1.054 5.5 1.018 1.65-.037 8.175.632 14.5 1.484 6.325.853 18.025 1.929 26 2.39 7.975.462 18.325 1.145 23 1.518 8.062.644 8.385.593 6.265-.975-1.345-.996-5.323-1.934-10-2.358-7.527-.682-7.775-.788-8.081-3.454-.319-2.769 1.947-3.965 3.316-1.75 1.332 2.156 2.406.819 2.208-2.75-.164-2.956-.614-3.751-2.126-3.754-1.055-.003-2.087-.511-2.294-1.131-.455-1.367 3.072-2.324 7.377-2 2.787.209 3.236-.118 3.761-2.747.329-1.642.255-3.24-.164-3.552-.419-.311-.851-2.983-.959-5.936-.144-3.905-.894-6.375-2.75-9.054-1.404-2.026-2.553-4.23-2.553-4.899 0-.78-.851-1.002-2.378-.618-2.166.543-2.346.323-2.019-2.481.289-2.488-.008-3.078-1.551-3.078-1.05 0-2.55-.641-3.334-1.425-.986-.986-2.699-1.253-5.571-.868-2.281.306-4.147.157-4.147-.331s-2.475-1.023-5.5-1.189c-3.024-.166-6.37-.469-7.435-.674-1.065-.206-2.411.199-2.992.899m-90.22 19.318c-3.145.455-4.158 4.124-3.786 13.707.148 3.814 3.127 5.563 9.473 5.563h3.241l.045-6.25c.081-11.263-1.841-14.051-8.973-13.02m92.627 18.599c1.4 2.137 1.405 2.522.043 3.652-.838.695-1.523 2.559-1.523 4.141 0 2.609.319 2.878 3.418 2.878 1.88 0 4.13.273 5 .607 1.259.483 1.562-.078 1.482-2.75-.095-3.208-1.593-9.377-1.8-7.416-.055.518-.662.234-1.35-.63-.687-.864-2.507-1.863-4.043-2.221-2.746-.639-2.766-.61-1.227 1.739m28.335 49.996c-1.782 1.78-5.305 2.608-6.899 1.623-.829-.512-1.988-.018-3.179 1.355l-1.875 2.162-3.879-2.232c-4.526-2.605-7.186-2.801-10.301-.761-2.35 1.54-9.682 1.083-9.682-.603 0-1.002-3.099-1.152-5.418-.262-.87.334-1.582 1.404-1.582 2.378 0 2.42-2.222 4.114-3.974 3.031-.873-.54-2.474-.318-4.217.583-3.058 1.581-3.77 5.744-1.847 10.8.645 1.697.614 2.745-.092 3.181-.924.572-.712 7.688.406 13.577.343 1.81 6.724 8.21 6.724 6.744 0-.495.45-.901 1-.901s1 1.125 1 2.5c0 2.615-1.47 3.401-2.338 1.25-.335-.831-.531-.73-.583.3-.043.853.427 2.056 1.046 2.675.753.753.894 3.271.427 7.636-.816 7.617.11 7.166-16.846 8.216-5.937.367-10.656.806-10.488.975 1.468 1.468 62.948 1.806 76.282.419 4.95-.515 12.851-.944 17.559-.954 9.109-.018 13.06-1.451 11.344-4.115-3.516-5.459-4.467-15.296-1.29-13.332.488.301.887-.123.887-.944 0-.82 1.012-1.8 2.25-2.177s3.085-1.42 4.105-2.317c1.02-.898 2.033-1.519 2.25-1.382 1.193.755 3.395.067 3.395-1.061 0-.722.876-2.252 1.947-3.401 1.628-1.749 1.789-2.66.983-5.58-.633-2.291-.615-4.408.053-6.164 1.987-5.226 1.286-9.912-1.69-11.294-1.481-.687-3.277-1.25-3.992-1.25-.716 0-1.301-.459-1.301-1.02 0-.56-1.099-.82-2.442-.576-1.343.243-2.659-.085-2.924-.731-.337-.821-.8-.723-1.543.327-.583.825-1.067 1.012-1.076.417-.008-.596-.577-1.088-1.265-1.093-.687-.005-2.262-.336-3.5-.734-1.45-.467-2.25-.315-2.25.426 0 .633-.562.961-1.25.73-.687-.232-1.849.293-2.582 1.166-1.201 1.433-1.278 1.419-.787-.147.346-1.101-.195-2.131-1.483-2.819-1.531-.82-1.76-1.407-.937-2.399 1.204-1.45-.537-2.547-4.043-2.547-1.055 0-1.918-.616-1.918-1.368 0-1.868-10.36-2.128-12.185-.307m-196.451 13.039c-2.406 2.069-2.743 3.016-2.497 7.016.203 3.301-.128 4.783-1.155 5.177-1.747.671-1.985 8.313-.311 9.987.624.624 1.258 5.203 1.418 10.237l.29 9.108-3.305.549c-1.817.302-5.104.664-7.304.805-6.234.4-5.432 3.192 1 3.484 2.75.125 7.925.672 11.5 1.215 21.536 3.27 40.317 3.318 46.461.12 2.179-1.134 5.047-2.062 6.373-2.062 1.864 0 2.166-.295 1.332-1.3-3.538-4.263-1.444-16.694 2.988-17.732 2.012-.47 2.391-1.253 2.66-5.489.173-2.717.83-5.259 1.46-5.649 1.236-.763-1.741-4.83-3.535-4.83-.523 0-1.839-1.129-2.925-2.51-1.086-1.38-2.356-2.273-2.822-1.985-.466.288-1.101-.274-1.411-1.25-1.247-3.929-9.218-6.142-20.081-5.575-12.916.675-24.329.162-26.518-1.191-.461-.285-2.089.559-3.618 1.875M6.35 481.236c-.639 4.535-.669 7.499-.08 7.889.563.373.491.905-.18 1.319-.617.382-.821 1.183-.452 1.78.371.6.211.801-.357.45-.978-.605-1.296 1.306-2.885 17.326-.3 3.025-.754 6.625-1.009 8-1.182 6.375-1.593 17.456-.612 16.5.564-.55 1.266-3.025 1.558-5.5.293-2.475.819-6.075 1.169-8 .35-1.925.619-4.962.597-6.75-.021-1.788.321-3.25.76-3.25s.898-2.457 1.02-5.46c.121-3.004.459-6.491.75-7.75.716-3.099 1.253-6.426 1.903-11.79 1.38-11.39-.63-15.78-2.182-4.764m154.149 14.457c-.313 1.544-1.003 4.189-1.534 5.878-1.881 5.985-1.366 7.457 2.514 7.178 3.364-.241 3.516-.43 4.608-5.749 1.32-6.424 3.292-10.512 2.341-4.851-.477 2.843-.231 3.862 1.115 4.615 1.6.895 1.57 1.123-.408 3.101C167.961 507.039 167 508.45 167 509c0 1.775 4.634 1.062 6.5-1 .995-1.1 1.403-1.999.905-1.998-.498.001-.756-2.627-.574-5.841l.331-5.842-4.505-.068c-2.478-.037-5.424-.36-6.548-.716-1.659-.527-2.149-.122-2.61 2.158m-15.656.557c-2.025 3.71-2.721 11.583-1.08 12.213 4.776 1.832 7.195-1.92 7.226-11.213.014-4.058-4.111-4.729-6.146-1m139.716 4.427c-.339 3.752-.834 8.511-1.099 10.573-.478 3.703-.44 3.75 2.969 3.75 4.519 0 4.84-.705 5.082-11.152.183-7.887.013-8.848-1.571-8.848-.977 0-2.449-.258-3.271-.573-1.203-.462-1.614.757-2.11 6.25m39.696-3.848c-1.468.923-2.799 11.868-1.885 15.508.51 2.031 1.225 2.512 3.636 2.444 3.782-.108 4.497-1.03 5.877-7.58 1.456-6.91 1.409-8.201-.3-8.201-.779 0-1.566-.391-1.75-.868-.509-1.327-4.178-2.184-5.578-1.303M21.729 634.132c-.951.532-1.729.692-1.729.356 0-.337-2.04.853-4.533 2.643-2.607 1.872-4.32 3.81-4.031 4.562.277.723-.179 1.307-1.022 1.307-.837 0-2.961 1.386-4.718 3.08L2.5 649.161l16.756-.525c9.215-.289 17.172-.782 17.68-1.097.509-.314 1.198-.131 1.53.406.393.636 1.523.63 3.229-.019 1.443-.549 3.34-.93 4.214-.847.875.083 4.066.046 7.091-.082 13.583-.577-1.834-1.564-21.75-1.393-11.941.102-21.25-.209-21.25-.711 0-.491 1.152-.893 2.559-.893 1.699 0 2.316-.393 1.836-1.17-.491-.794-.171-.958.993-.511 1.042.4 1.47.26 1.09-.355-.345-.558-.175-.89.377-.739.552.151 1.696-.625 2.543-1.725 1.374-1.786 1.542-1.813 1.57-.25.018.962.509 1.75 1.091 1.75s.758-.487.391-1.081c-.399-.646.081-1.003 1.191-.885 3.766.398 5.019.036 3.407-.983-.799-.506-1.881-.654-2.405-.331-.524.324-.631.069-.238-.565.456-.738-.12-1.191-1.596-1.255-2.268-.098-2.265-.112.181-.792 1.369-.382 2.035-.975 1.479-1.318-.557-.344-1.79-.19-2.74.342m104.224 12.897c-2.448 1.513 6.334 1.802 56.047 1.843 35.037.029 50.722-.275 49.065-.951-1.339-.546-3.026-.766-3.75-.488-.723.277-1.315-.022-1.315-.664 0-.874-.302-.867-1.2.031-1.55 1.55-8.186 1.634-7.232.091.479-.776-.48-.927-3.191-.503-6.62 1.035-67.063 1.616-64.877.624 1.654-.751 1.437-.88-1.25-.747-1.787.088-3.25.541-3.25 1.007 0 .465-.562.495-1.25.065-1.893-1.183-3.675-1.268-4.33-.207-.324.523-1.481.668-2.572.322-3.017-.958-9.616-1.214-10.895-.423" fill="#d3d3d3" fill-rule="evenodd"/></svg>