<svg xmlns="http://www.w3.org/2000/svg" width="500" height="500"><path d="M295.216 63.55c.331.33 1.429.757 2.442.949 1.013.191 2.01.382 2.214.424.205.043-.142.698-.772 1.456-1.737 2.094.128 2.214 35.9 2.308 35.66.094 49.036-.416 46.872-1.787-.971-.615-.569-.874 1.378-.885 2.921-.016 3.713-1.432 1.316-2.351-1.963-.753-90.101-.866-89.35-.114m-279.311 4.2c-.349 2.738.274 121.762.639 122.127.251.251.456-25.457.456-57.129 0-56.208.186-61.369 2.172-60.142.529.328 1.21-.35 1.512-1.505.519-1.984 1.25-2.109 13.183-2.248 10.683-.124 11.707-.262 6.633-.891-8.085-1.004-24.477-1.145-24.595-.212M186.2 118.607c-.63 1.125-1.145 1.291-1.621.521-.383-.62-2.245-1.128-4.138-1.128-3.14 0-3.441.257-3.441 2.935 0 1.614.46 4.144 1.021 5.622.562 1.477.654 3.194.204 3.815-.45.62-.895 4.953-.989 9.628-.093 4.675.098 7.825.424 7 .327-.825 1.386-2.4 2.352-3.5 2.681-3.05 3.337-6.152 1.454-6.875-.876-.336-1.312-1.066-.968-1.622.711-1.15 5.674-.196 6.638 1.276.35.534 1.804.971 3.232.971 3.674 0 4.316 1.275 4.905 9.75.73 10.482 3.753 19.396 6.729 19.838 1.817.269 2.162-.034 1.707-1.5-5.266-16.979-8.283-28.483-7.584-28.915.982-.607.949-.66 1.293 2.077.421 3.352 3.711 13.927 4.712 15.145.517.629.855 1.529.751 2-.105.47.583 2.595 1.527 4.722.944 2.126 1.478 4.489 1.186 5.25-.358.931.222 1.383 1.773 1.383 3.703 0 3.436-6.623-.597-14.815-2.454-4.986-3.32-8.228-3.621-13.56-.343-6.067-.572-6.767-1.704-5.219-.719.984-1.076 2.392-.793 3.13.284.739.034 2.157-.555 3.153-.817 1.382-.98.331-.686-4.443.211-3.44-.02-6.504-.514-6.809-.493-.305-.897-.084-.897.493 0 1.5-5.138.873-5.742-.701-.4-1.042-.866-.989-2.242.256-2.454 2.221-7.022.453-7.001-2.71.013-1.827.203-1.98.97-.775.803 1.262 1.289 1.292 3.063.193 1.629-1.01 2.432-1.039 3.53-.128.782.649 1.422.81 1.422.357 0-.452.54-.282 1.2.378 2.711 2.711 3.665.929 1.229-2.295-1.294-1.712-1.642-1.783-2.453-.5-.797 1.26-.948 1.211-.961-.314-.008-.995-.465-1.531-1.015-1.191-1.696 1.048-3.245-.5-2-2 .706-.851.745-1.539.11-1.932-.543-.336-1.402.132-1.91 1.039m63.623.68c-.664 1.217-1.183 4.688-1.153 7.713.179 18.278.257 32.895.191 35.5-.042 1.65.006 3.45.107 4 .101.55.158 12.419.126 26.376-.031 13.956.228 25.836.575 26.398 1.119 1.81.306 79.123-.839 79.831-.718.444-.707.853.036 1.312 1.152.712 1.65 79.679.53 84.14-.328 1.307-1.758 2.769-3.241 3.313l-2.655.972 2.75.079c1.512.043 2.75.529 2.75 1.079 0 .58 2.624.921 6.25.811l6.25-.189-5.816-.363c-3.954-.247-5.687-.746-5.413-1.561.485-1.437-2.648-1.317 39.906-1.527 32.101-.158 34.71-.301 35.134-1.921.435-1.667.463-1.667.573 0 .169 2.552 31.493 2.685 32.917.141.821-1.466.956-1.468 1.511-.02.543 1.416 4.283 1.565 34.172 1.359l33.563-.23.044-12.5c.025-6.875-.08-14.975-.232-18-.152-3.025-.241-7.75-.196-10.5.327-20.421.185-26.052-.677-26.914-1.209-1.209-1.311-2.905-.131-2.176.47.291.888-.695.928-2.191.36-13.419.257-22.346-.27-23.197-.347-.562-.252-1.022.211-1.022.639 0 .913-31.605.447-51.5-.375-15.993 1.163-44.5 2.401-44.5.786 0 1.428-.45 1.428-1 0-1.439-2.739-1.234-3.338.25-.277.688-.54-.625-.583-2.917-.047-2.504.42-4.334 1.171-4.587.971-.327.939-.798-.143-2.108-.765-.927-1.119-1.96-.785-2.294.334-.334.158-1.448-.392-2.475-.598-1.117-.623-1.869-.064-1.869.528 0 .778-3.074.573-7.046-.336-6.506-.194-7.115 1.849-7.937 1.795-.723 1.873-.902.411-.954-1.486-.052-1.819-.983-1.898-5.313a4737.17 4737.17 0 00-.364-16.75c-.147-6.325-.306-13.636-.352-16.248l-.085-4.747-31.5.053c-30.516.051-31.5.113-31.5 1.997 0 1.07-.562 1.979-1.25 2.022-.687.042-2.038.227-3 .411-2.188.419-2.215-.317-.095-2.659 1.592-1.759 1.301-1.829-7.671-1.829-7.452 0-9.712.349-11.246 1.737-1.771 1.603-2.011 1.61-3.116.098-2.282-3.12-11.767-2.829-13.51.415-1.619 3.014-5.006 8.509-8.362 13.566-2.654 4-3.717 7.899-1.835 6.737.503-.311 1.143 0 1.423.691.386.951.761.894 1.544-.236.66-.951.688-1.838.076-2.45-1.768-1.768-1.097-3.737 1.042-3.058 1.147.364 2 .18 2-.433 0-.587.675-1.067 1.5-1.067s1.5-.482 1.5-1.071c0-.59.665-1.737 1.478-2.55.812-.812 2.152-2.441 2.977-3.618.824-1.177 1.817-1.822 2.205-1.434.389.388.174 1.239-.477 1.89-.65.65-1.183 2.023-1.183 3.05 0 1.026-1.172 3.403-2.605 5.281-1.432 1.878-2.67 4.505-2.75 5.838-.08 1.332-.552 2.171-1.05 1.864-.497-.308-.637-.126-.31.402.327.529-.477 2.849-1.787 5.155S318.615 153 319.225 153c1.153 0 .114 1.488-1.058 1.515-.367.009-1.229.373-1.917.809-.731.464-1.25.325-1.25-.336 0-.677-.603-.528-1.5.369-.825.825-1.5 2.207-1.5 3.072 0 .864-.378 1.571-.839 1.571-.462 0-1.379 1.183-2.038 2.629-.659 1.446-1.486 2.341-1.838 1.989-.656-.656 3.397-8.665 4.899-9.682 1.547-1.048 3.534-10.689 2.561-12.428-.776-1.386-1.226-1.081-2.834 1.919-1.051 1.961-1.911 4.242-1.911 5.069 0 2.182-2.307 1.843-3.807-.559-1.482-2.373-.617-6.314 1.231-5.605.82.315 1.243-.541 1.243-2.515 0-1.646.51-3.308 1.134-3.694.623-.385 1.036-2.013.916-3.618-.171-2.3.365-3.203 2.533-4.266 1.512-.741 2.75-1.774 2.75-2.294s.605-.945 1.345-.945c2.408 0 5.232-3.841 3.354-4.562-.865-.332-1.328-1.241-1.029-2.021.426-1.109-.571-1.417-4.594-1.417-3.973 0-5.29.397-5.807 1.75-.792 2.076-1.227 2.672-5.28 7.25l-3.098 3.5.682-3.5c.375-1.925 1.3-4.388 2.055-5.473 2.242-3.222 1.717-3.527-6.069-3.527-7.255 0-9.887 1.072-7.788 3.171 1.145 1.145.448 4.829-.912 4.829-1.723 0-3.002-5.123-1.677-6.719 1.012-1.22.886-1.439-.729-1.263-1.074.117-2.178.128-2.453.026-.476-.178-25.546-.291-27.372-.124-.48.044-.323.742.349 1.552.975 1.175.912 1.782-.309 3.003-1.375 1.375-1.61 1.301-2.298-.722-.421-1.239-.691-2.548-.6-2.908.477-1.875-2.888-1.498-3.947.442m-178.757.292c.936 1.129.845 1.421-.444 1.421-1.113 0-1.609.864-1.582 2.75l.04 2.75 1.492-2.75c1.875-3.457 3.805-3.672 2.246-.25-.626 1.375-1.503 2.5-1.947 2.5-.445 0-.56.647-.257 1.437a1.534 1.534 0 001.969.893c.779-.299 1.417.009 1.417.685 0 .97.315.969 1.489-.006.819-.68 1.242-1.635.941-2.122-.301-.488-.184-.924.261-.968 4.462-.448 6.309-.361 6.309.298 0 .431-.745.783-1.655.783-1.51 0-1.517.153-.078 1.75 1.566 1.739 1.64 5.471.198 10.048-.591 1.878.08 3.064 3.681 6.5 3.871 3.693 13.828 8.591 16.104 7.922.412-.121.75.932.75 2.339 0 1.451.433 2.292 1 1.941.55-.34 1.056.084 1.125.941.069.857.237 2.009.375 2.559.138.55.306 2.136.375 3.524l.125 2.524 16.737-.274c18.679-.306 20.71-1.168 13.813-5.866-1.945-1.324-3.533-3.083-3.528-3.908.005-.881.312-1.087.743-.5.404.55 1.703 1.538 2.885 2.196 2.095 1.165 2.15 1.041 2.15-4.84 0-5.505-.173-5.992-1.961-5.524-1.114.291-2.181-.059-2.469-.811-.28-.728-1.49-1.65-2.689-2.049l-2.181-.726 2.203-.436c2.302-.456 3.896-3.532 2.773-5.35-.452-.729-1.091-.694-2.065.114-.776.644-1.411.836-1.411.426s-.562-.284-1.25.28c-.904.741-1.727.387-2.974-1.281-1.429-1.912-1.483-2.398-.314-2.846.775-.297 1.576-.04 1.78.573.252.755 1.45.575 3.718-.556 4.004-1.998 4.623-2.077 3.249-.42-.975 1.177 1.571 5.75 3.201 5.75 1.38 0 .44-3.988-1.16-4.92-1.667-.971-1.667-1.021 0-1.05 1.271-.022 1.75-.851 1.75-3.03 0-3.761-1.958-3.992-2.116-.25-.079 1.871-.268 2.159-.592.901-.345-1.338-1.142-1.722-2.884-1.389-1.325.254-2.408.073-2.408-.401 0-.473.45-.861 1-.861s1-.45 1-1c0-1.234-1.048-1.255-2.936-.061-1.247.79-1.247 1.14 0 2.672 1.28 1.572 1.246 1.692-.314 1.108-.963-.361-1.75-.22-1.75.312 0 1.625-3.744 1.078-4.404-.642-.439-1.144-.188-1.446.865-1.042 1.63.625 4.559-2.832 4.507-5.32-.024-1.171-.384-1.061-1.544.473-.831 1.1-2.73 2.05-4.218 2.111-4.848.2-5.206.364-5.206 2.389 0 2.419-1.295 2.562-3.472.385-1.449-1.449-1.792-1.458-3.322-.094-1.464 1.306-1.889 1.322-2.995.116-1.524-1.662-3.211-1.845-3.211-.348 0 .582-.481.762-1.069.398-.588-.363-.997-2.527-.908-4.809.371-9.496 2.061-8.598-16.08-8.541-13.759.044-15.888.254-14.877 1.472m68.684-.915c-.963.266-1.75 1.173-1.75 2.016 0 .953.568 1.316 1.5.958 1.307-.501 1.5 2.388 1.5 22.393V167h34v-8.941c0-5.158-.444-9.215-1.049-9.589-.6-.371-.687-1.144-.204-1.809.465-.639.744-2.961.621-5.161-.123-2.2-.256-5.463-.296-7.25-.039-1.787-.522-3.25-1.072-3.25s-.947.338-.882.75c.357 2.26-.377 3.045-2.618 2.799-2.039-.223-2.5.162-2.5 2.089 0 1.644-.571 2.362-1.878 2.362-1.681 0-1.843-.686-1.536-6.537.188-3.595.589-6.938.892-7.428.303-.49-.401-1.193-1.564-1.562-1.539-.489-1.816-.971-1.015-1.772 2.755-2.755 1.008-3.379-9.649-3.449-5.912-.038-11.537.147-12.5.412m74.561 1.296c-.065.847-.44 3.73-.833 6.408-.535 3.641-.371 5.089.653 5.75.895.577 1.013 1.142.34 1.632-1.106.806-1.169 4.312-.108 6.029.357.577.137 1.221-.489 1.43-.702.234-.864 1.247-.423 2.638.588 1.851.982 2.039 2.183 1.042 1.176-.976 1.803-.864 3.166.567 1.254 1.315 1.372 1.905.45 2.247-.687.255-1.25 1.156-1.25 2.003 0 1.265-.271 1.314-1.524.274-.838-.696-1.805-.985-2.147-.642-.962.962-1.043 12.721-.091 13.309.464.287.568 1.389.232 2.448-.589 1.854.022 1.923 15.959 1.798l16.571-.131v-20.181c0-14.363-.346-20.527-1.2-21.381-.933-.933-.933-1.2 0-1.2 1.521 0 1.565-3.235.065-4.735-.846-.846-1.733-.742-3.49.409-2.134 1.398-2.413 1.392-2.972-.066-.339-.884-1.27-1.608-2.069-1.608-.845 0-1.153.484-.737 1.158.515.832.041.924-1.691.326-4.67-1.612-20.463-1.247-20.595.476M377.275 129c.083 1.1.505 2 .938 2 1.354 0 .872 2.659-1.575 8.684-1.299 3.199-2.926 7.616-3.616 9.816-.69 2.2-2.601 6.925-4.247 10.5s-3.572 8.075-4.279 10c-.707 1.925-2.867 6.875-4.799 11-6.914 14.758-7.773 19.506-7.822 43.244-.023 11.691.448 24.331 1.049 28.089.6 3.758.807 7.294.459 7.856-.348.563-.593 2.966-.546 5.34.098 4.87-2.874 11.239-8.381 17.959-3.402 4.153-4.418 6.225-2.456 5.012.55-.34 1-.116 1 .498 0 1.305 10.951-10.25 12.662-13.361.64-1.161.871-2.568.514-3.124-.848-1.325-1.044-5.661-1.751-38.713-.548-25.632-.442-28.283 1.418-35.5 2.496-9.679 8.945-24.767 13.557-31.715 4.244-6.395 6.867-12.74 7-16.939.09-2.836.387-3.125 3.01-2.936 2.208.16 2.63-.07 1.75-.95-1.634-1.634-1.442-3.76.34-3.76.825 0 1.5-.45 1.5-1s-.718-1-1.597-1c-1.295 0-1.531-.943-1.25-5.001.191-2.75.01-5-.403-5-.413.001-.75-.674-.75-1.499 0-.825-.422-1.5-.938-1.5s-.87.9-.787 2m-18.384 4.848C351.63 141.228 342.783 149 341.644 149c-.706 0-2.291 1.158-3.522 2.574-1.739 2-2.542 2.322-3.602 1.443-1.32-1.096-5.52.472-5.52 2.061 0 .328-1.809 2.498-4.02 4.822-2.211 2.325-3.773 4.625-3.472 5.113.301.488-.334 1.359-1.412 1.936-3.614 1.934-3.855 8.625-.263 7.318 1.768-.643-.276 2.354-3.91 5.733-2.043 1.899-5.72 11.261-6.481 16.5-.32 2.2-1.434 5.8-2.476 8-5.169 10.913-6.439 27.166-3.319 42.464 1.413 6.929 2.194 28.485 1.408 38.85-.43 5.659 1.247 7.395 2.889 2.992.678-1.818 2.148-5.397 3.267-7.953 1.119-2.556 1.734-5.133 1.367-5.726-.366-.593-.835-3.677-1.04-6.853-.206-3.176-1.054-9.824-1.885-14.774-3.434-20.461-3.29-41.704.329-48.466.493-.922 1.874-4.569 3.067-8.105 3.094-9.166 6.973-16.929 8.46-16.929.701 0 1.57-1.179 1.932-2.621.362-1.441 1.326-3.289 2.142-4.105.841-.841 1.224-2.306.884-3.379-.689-2.171 1.418-2.61 3.333-.695.933.933 1.2.822 1.2-.5 0-.935-.675-1.7-1.5-1.7s-1.499-.338-1.499-.75c.003-1.59 5.255-6.735 6.591-6.456.775.161 1.423-.289 1.441-1 .052-2.005 3.788-6.023 4.939-5.311.565.349 1.028.158 1.028-.424s.627-1.059 1.393-1.059 1.652-.675 1.969-1.5c.316-.825 1.377-1.513 2.357-1.529 2.845-.047 16.281-14.334 16.281-17.312 0-1.449-2.644-.316-5.109 2.189M222 132.8c0 .44.563 1.396 1.25 2.125 1 1.06 1 1.417 0 1.783-.687.252-1.25 1.096-1.25 1.875 0 2.217-1.529 1.665-3-1.083-1.493-2.789-3-3.291-3-1 0 .825.498 1.5 1.107 1.5s.829.725.489 1.611c-.443 1.153-.189 1.447.893 1.032.831-.319 1.511-.175 1.511.321s.802 1.156 1.783 1.467c1.749.555 2.357 4.762.9 6.22-.366.366-.164 1.269.448 2.007.613.738.721 1.349.241 1.357-.479.009-.237.418.54.91 2.075 1.313 4.689-1.496 3.135-3.369-1.189-1.431 2.353-3.489 3.695-2.147.325.325.011.591-.698.591-.977 0-1.014.331-.154 1.367.863 1.04.773 1.668-.378 2.623-1.546 1.283-2.116 5.022-.762 4.995 1.591-.033 3.478-1.807 2.906-2.733-.671-1.086 1.441-6.232 2.563-6.244.395-.004.477.621.181 1.391-.295.769-.056 1.696.532 2.059.587.363 1.068.114 1.068-.554 0-.752.763-.523 2.006.602 2.222 2.01 3.369 1.634 2.435-.8-.334-.869-1.244-1.335-2.024-1.036-.873.335-1.417-.095-1.417-1.122 0-.916-.422-1.405-.939-1.086-.516.319-1.402-.217-1.969-1.191-.958-1.645-1.04-1.629-1.152.229-.077 1.279-.467.797-1.081-1.337-.651-2.259-1.419-3.162-2.378-2.794-.779.299-1.683.113-2.008-.413-.325-.526-.002-.97.718-.988.791-.019.518-.631-.691-1.546-1.1-.833-2.043-2.056-2.097-2.718-.249-3.109-3.403-6.726-3.403-3.904m64.108 3.95c.353 2.446-1.437 4.977-3.194 4.517-2.141-.56-2.524.723-.747 2.5.889.889.787 2.067-.428 4.95-.877 2.081-1.86 5.021-2.186 6.533-.325 1.512-1.215 2.75-1.978 2.75-.933 0-1.21-.737-.845-2.25.353-1.464.204-1.901-.426-1.25-1.241 1.28-3.529 11.608-2.746 12.391.326.326.991-.12 1.478-.991s2.405-3.841 4.262-6.6c5.981-8.888 10.745-23.3 7.702-23.3-.55 0-.951.338-.892.75m-103.133 5.5c-1.097 1.787-2.531 4.713-3.186 6.5-.655 1.787-1.55 3.25-1.99 3.25-.439 0-.799 3.375-.799 7.5v7.5h20.262l-.616-3.25c-2.086-11.001-3.413-16.85-3.943-17.38-1.189-1.19-1.952 4.906-1.465 11.71.272 3.806.133 6.92-.31 6.92-1.354 0-2.228-8.867-1.616-16.385.518-6.359.426-6.909-.866-5.174-.795 1.068-1.446 2.557-1.446 3.309 0 .752-.451 1.089-1.002.749-.577-.357-.735-2.292-.372-4.559.766-4.791-.009-4.993-2.651-.69m201.358.944c0 1.757-.525 3.37-1.166 3.584-.642.214-1.167 1.679-1.167 3.256 0 1.576-.644 3.227-1.43 3.667-.787.44-1.35 1.689-1.25 2.776.099 1.086-.382 2.042-1.07 2.124-2.561.305-2.719.449-1.409 1.28 1.082.685.866 1.889-1.118 6.234-4.613 10.101-9.478 24.375-10.158 29.808-.374 2.983-1.143 6.288-1.708 7.345-.566 1.057-1.201 9.974-1.413 19.816-.292 13.643-.736 18.433-1.87 20.162-.817 1.248-1.501 3.166-1.518 4.262-.018 1.095-.277 3.792-.576 5.992l-.545 4 2.152-4c1.183-2.2 2.747-4.683 3.476-5.517.976-1.117 1.373-6.131 1.508-19 .282-27.112 2.84-41.989 9.581-55.733 2.495-5.088 4.894-9.25 5.331-9.25.779 0 7.15-12.692 8.489-16.91.476-1.501.283-2.058-.647-1.865-.879.182-1.262-.651-1.137-2.475.114-1.657-.317-2.75-1.083-2.75-.763 0-1.272 1.277-1.272 3.194m-308.257 3.472C75.413 148.5 74.45 150 73.935 150c-1.242 0-1.197-1.72.065-2.5 2.086-1.289.923-3.198-2-3.281l-3-.085v6.933c0 5.785.274 6.933 1.655 6.933 1.54 0 1.54.127 0 1.829-1.677 1.853-2.281 6.062-.905 6.302.412.072 7.411.231 15.551.355 13.248.2 14.732.055 14.137-1.381a38.137 38.137 0 01-1.168-3.355c-.277-.963-.901-1.75-1.387-1.75-.485 0-.883-.647-.883-1.438 0-1.624-4.094-1.752-5.181-.162-.375.548-1.235-.218-1.911-1.702-.676-1.484-1.607-2.698-2.069-2.698-.461 0-.839-.605-.839-1.345s-.855-2.119-1.901-3.065c-3.015-2.729-3.575-.016-.648 3.14 1.405 1.515 2.403 3.208 2.218 3.762-.533 1.602-5.549 1.264-6.194-.418-.51-1.329-.7-1.335-1.529-.046-.797 1.241-1.086 1.255-1.837.09-.701-1.089-1.035-.926-1.572.764-.937 2.955-2.385 1.774-1.77-1.444.452-2.364.818-2.551 3.866-1.979 3.748.703 4.152.183 1.733-2.236-1.071-1.071-1.243-1.764-.5-2.012.624-.208 1.134-1.226 1.134-2.263 0-1.265.494-1.696 1.5-1.31.825.317 1.5.13 1.5-.414 0-.545-1.062-1.194-2.359-1.442-1.939-.371-2.573.142-3.565 2.884M362 149c-1.268 1.1-1.778 2-1.132 2 .646 0 1.671 1.089 2.278 2.421 2.044 4.486-6.211 10.371-9.68 6.902-1.142-1.142-1.62-.801-3.021 2.152-.915 1.929-2.034 3.279-2.486 3-.451-.279-1.086-.078-1.411.447-.325.525.144 1.366 1.04 1.868 1.433.801 1.445.983.104 1.498-.907.348-1.79-.099-2.176-1.101-.604-1.567-.72-1.563-1.633.063-.54.963-1.582 1.75-2.316 1.75-2.389 0-15.327 13.986-17.884 19.331-5.715 11.949-7.85 21.273-8.157 35.624-.298 13.943.49 18.045 3.468 18.045 2.578 0 2.804-.702 1.855-5.776-.575-3.079-.528-4.831.135-5.052 1.649-.55 1.234-7.875-.484-8.534-.825-.316-1.486-1.377-1.468-2.357.03-1.703.091-1.703 1.391.011 1.233 1.627 1.403 1.442 1.834-2 .745-5.957 4.797-20.416 6.865-24.502 1.033-2.041 1.878-4.296 1.878-5.013 0-.716 1.125-2.147 2.5-3.18 1.375-1.032 2.5-2.617 2.5-3.521 0-.905 1.391-2.466 3.09-3.47 1.7-1.004 4.625-3.173 6.5-4.82 2.957-2.595 3.426-2.747 3.528-1.14.219 3.417-.272 4.839-2.541 7.354-7.019 7.783-10.785 17.637-12.609 33-.49 4.125-1.103 9.272-1.362 11.439-.258 2.166-1.012 4.951-1.675 6.19-1.175 2.196-.994 4.603 1.608 21.371.978 6.302 2.801 11.467 4.714 13.351 2.673 2.632 3.043 1.591 1.28-3.602-1.434-4.225-3.871-24.92-3.856-32.749.006-3.264 4.156-24.821 6.398-33.237 1.102-4.137 7.076-14.872 10.442-18.763 1.19-1.375 3.178-4.525 4.418-7 1.241-2.475 4.013-6.792 6.16-9.592 3.854-5.027 4.972-8.408 2.78-8.408-.717 0-.907-1.089-.525-3 .711-3.553.632-3.586-2.35-1m-65.831 6.236c-1.283 3.445-2.576 7.537-2.875 9.093-.3 1.557-1.154 3.064-1.9 3.35-2.68 1.028-3.581 7.493-1.372 9.844 1.976 2.104 1.976 2.105-1.023 4.978-1.649 1.58-3.006 3.576-3.014 4.436-.013 1.334-.15 1.351-.932.115-.716-1.132-1.066-.849-1.606 1.301-.519 2.069-.227 3.09 1.182 4.128 1.708 1.26 2.065 1 4.105-2.982 1.229-2.399 2.692-4.644 3.25-4.989.559-.346 1.015-2.289 1.013-4.319-.001-2.03.856-5.491 1.905-7.691 5.735-12.024 7.199-18.615 4.848-21.823-1.092-1.49-1.544-.914-3.581 4.559m94.407.514c-.932 2.613-2.118 5.531-2.636 6.486-.517.955-.94 2.338-.94 3.073 0 .735-1.951 5.353-4.336 10.264-5.629 11.587-6.162 13.82-3.927 16.443 1.739 2.039 1.787 1.995 3.499-3.224l1.737-5.292-.581 8c-.319 4.4-.578 9.124-.576 10.497.002 1.373-.367 2.725-.819 3.005-.452.279-.38 6.108.159 12.953.651 8.26.643 14.979-.025 19.975-.553 4.141-.839 7.695-.636 7.898.814.814 3.564-10.691 4.017-16.808.584-7.888 1.555-25.913 1.712-31.77.062-2.338.488-4.25.945-4.25.457 0 .831-.968.831-2.15 0-1.183.708-5.647 1.574-9.92 1.382-6.818 1.397-8.107.127-10.531-1.218-2.325-1.239-3.261-.131-5.913 1.384-3.313 3.04-13.486 2.195-13.486-.271 0-1.256 2.137-2.189 4.75M70.577 172.242c.65 2.049.56 2.116-1.049.782-1.671-1.387-1.725-.755-1.066 12.507.47 9.444 1.162 14.698 2.139 16.219 1.278 1.99 1.264 2.25-.118 2.25-1.708 0-1.944 13.597-.254 14.642 1.145.707 20.995 1.338 22.027.7.463-.286.377-1.079-.19-1.763-.721-.868-.632-1.791.296-3.06 1.224-1.674 1.378-1.569 1.958 1.332.347 1.732 1.107 3.149 1.69 3.149.743 0 .747-.586.012-1.959-.577-1.078-.99-2.316-.917-2.75.335-2.01-.196-3.353-1.105-2.791-.55.34-1.007.029-1.015-.691-.013-1.05-.184-1.043-.869.037-.623.983-1.16.466-1.989-1.912-1.321-3.788-.633-5.383.788-1.829.748 1.869.972 1.992 1.022.562.077-2.238 2.031-1.747 3.492.877 1.245 2.237 4.73 5.05 5.821 4.698.413-.133.75 1.156.75 2.865 0 2.321.371 2.964 1.468 2.544.807-.31 1.734-.133 2.059.393.807 1.306 31.084 1.234 33.539-.079 1.333-.714 1.934-.714 1.934 0 0 .673 5.948 1.035 17 1.035 16.292 0 17.005-.083 17.125-2 .069-1.1.238-2.45.375-3 .137-.55.342-1.787.454-2.75.127-1.094.393-1.282.708-.5.278.688 1.094 1.25 1.814 1.25 1.693 0 2.534 2.244 1.839 4.904-.428 1.636-.088 2.096 1.549 2.096 2.784 0 3.43-2.891 2.989-13.396-.366-8.734 1.181-10.568 2.588-3.068.357 1.905 1.196 3.464 1.864 3.464 1.509 0 4.206 4.048 3.853 5.784-.144.706 1.094 1.756 2.749 2.334 1.656.577 3.278 1.891 3.605 2.92.557 1.755 2.037 1.874 24.041 1.923l23.447.053v-4.807c0-2.644-.562-5.403-1.25-6.132-.994-1.053-.995-1.418-.008-1.781.915-.335.965-.972.192-2.418-.578-1.079-.912-3.405-.742-5.169.271-2.826-.01-3.244-2.369-3.516-3.448-.399-6.077-3.191-3.004-3.191 1.134 0 2.341.45 2.681 1 1.42 2.297 4.5 1.05 4.5-1.822 0-6.301-2.973-12.124-7.324-14.343-2.263-1.155-5.574-3.265-7.36-4.689-2.849-2.274-4.229-2.604-11.281-2.7l-8.035-.11v17.332c0 10.888-.372 17.332-1 17.332-.55 0-1-.689-1-1.531 0-.843-.675-1.791-1.5-2.107-.825-.317-1.5-1.189-1.5-1.938 0-.836.616-1.125 1.596-.749 1.39.534 1.556-.346 1.285-6.781-.325-7.718-1.69-13.13-3.093-12.263-.451.279-.562.926-.245 1.438 1.27 2.056-1.219.751-3.815-1.999-3.088-3.271-2.046-5.106 1.493-2.628 2.972 2.082 3.698 1.963 3.054-.499-.326-1.246-1.09-1.844-1.938-1.519-.845.324-1.746-.368-2.269-1.744-.842-2.216-1.236-2.281-13.718-2.231l-12.85.051-.582 6c-.32 3.3-.718 5.325-.884 4.5-.465-2.316-1.848 7.806-1.946 14.25-.068 4.406-.439 5.75-1.588 5.75-1.053 0-1.524 1.118-1.579 3.75-.043 2.063-.306 3.188-.583 2.5-.278-.687-1.353-1.25-2.39-1.25-1.257 0-1.695-.495-1.315-1.485.313-.817-.6-2.876-2.032-4.577-1.43-1.7-2.601-3.478-2.601-3.95s-.461-2.071-1.025-3.555c-.975-2.562-1.12-2.612-2.897-1.004-1.457 1.319-1.986 1.404-2.395.382-.335-.837-.554-.66-.604.489-.043.989.664 3.236 1.573 4.993 1.494 2.89 1.718 3.004 2.352 1.2.674-1.919.726-1.91 1.413.248.986 3.102.024 4.209-3.448 3.966-2.624-.183-2.965-.574-2.967-3.398-.002-3.423-1.737-5.356-2.989-3.33-.543.878-.96.915-1.447.128-.919-1.487.188-3.107 2.124-3.107 1.26 0 1.449-.744.952-3.75-.341-2.062-.632-4.425-.646-5.25-.023-1.313-.143-1.316-.957-.029-1.401 2.216-2.283.614-2.219-4.03.053-3.829-.058-4.01-1.413-2.298-1.354 1.708-1.449 1.545-1.189-2.049.166-2.293-.195-4.069-.873-4.301-1.332-.457-3.799 6.163-2.862 7.68.344.556.165 1.802-.398 2.769-.897 1.54-1.03 1.447-1.068-.742-.063-3.584-1.105-7-2.134-7-.485 0-.883.675-.883 1.5 0 2.306-4.735 1.911-5.487-.458-.591-1.863-.784-1.88-3.98-.356-3.671 1.75-3.839 4.463-.218 3.53 1.942-.5 2.032-.377.813 1.111-.755.92-1.205 1.71-1 1.756 1.821.408 4.806.94 6.872 1.226 3.2.442 4.134 5.389 1.395 7.392-1.623 1.186-1.63 1.299-.086 1.299.93 0 1.691.585 1.691 1.3 0 1.921-2.043 3.621-3.622 3.015-.758-.291-1.378.022-1.378.695 0 .731-.805 1.013-2 .7-1.1-.287-2-.115-2 .384 0 .498-.513.906-1.14.906-.627 0-1.764.787-2.527 1.75-1.245 1.57-1.342 1.415-.948-1.5.551-4.066-.483-4.186-2.221-.258-1.038 2.346-1.686 2.799-2.994 2.099-1.702-.911-2.392-1.091-4.178-1.091-.609 0-.53-.767.2-1.935.664-1.065 1.638-1.67 2.163-1.346.525.325.645.09.267-.521-.455-.737.249-1.001 2.096-.784 2.087.245 3.363-.391 5.108-2.544 1.847-2.279 2.004-2.87.761-2.87-.86 0-2.53-.787-3.709-1.75-6.487-5.291-7.313-6.145-6.618-6.842.419-.419 1.417.105 2.219 1.165.801 1.06 1.472 1.407 1.489.771.018-.66.891-.932 2.032-.634 1.162.304 2 .031 2-.652 0-.647-.403-.927-.895-.623-.493.305-1.139-.082-1.437-.858-.298-.776.174-1.686 1.049-2.022 1.395-.535 1.358-.78-.302-1.994-1.041-.761-2.312-1.125-2.824-.808-.512.316-.686-.064-.386-.844.299-.781-.074-1.997-.83-2.704-1.144-1.068-1.375-.826-1.375 1.447 0 2.421-.141 2.539-1.25 1.035-.687-.932-2.721-2.114-4.519-2.626-2.903-.828-3.452-.653-4.904 1.563-1.236 1.886-1.838 2.175-2.466 1.186-.54-.852-.836-.173-.846 1.94-.008 1.787-.456 3.25-.996 3.25-1.524 0-2.436-5.103-1.251-7 .973-1.558.138-1.707-10.075-1.8-7.671-.07-11.374.273-11.899 1.1-.585.919-.767.907-.779-.05-.008-.687-.72-1.25-1.582-1.25-1.113 0-1.383.581-.933 2 .364 1.147.18 2-.433 2-.587 0-1.067-.9-1.067-2 0-1.149-.667-2-1.567-2-1.169 0-1.387.57-.856 2.242M377 195.083c0 .413.563 1.018 1.25 1.345.688.327.295.421-.873.21-2.529-.458-3.546 7.803-3.311 26.895.074 6.032-.406 13.714-1.067 17.071-1.732 8.797-.77 11.14 1.395 3.396 1.89-6.763 3.522-20.763 4.022-34.5.16-4.4.629-9.613 1.041-11.583.615-2.934.46-3.584-.853-3.584-.882 0-1.604.338-1.604.75m-91.328 28.667c-.245.412-1.217 4.125-2.16 8.25-.944 4.125-2.307 9.525-3.03 12-2.054 7.025-2.387 10.275-2.995 29.221l-.569 17.72 2.541.638c1.398.351 2.541 1.284 2.541 2.075 0 1.104.869 1.293 3.75.816 2.063-.341 3.3-.248 2.75.205-.55.454-1.079 1.275-1.176 1.825-.097.55-.482 1.788-.857 2.75-.476 1.223-.197 1.75.926 1.75 1.573 0 2.04-1.101 1.649-3.89-.146-1.049.592-1.233 3.004-.751 2.777.556 3.032.44 1.942-.874-.827-.996-1.046-3.042-.642-5.99.579-4.227.489-4.453-1.616-4.06-1.227.229-2.567.45-2.98.491-1.352.134-.787 2.118 1.215 4.267 1.907 2.047 1.896 3.807-.024 3.807-.518 0-.829-.546-.691-1.213.137-.668-.762-1.674-2-2.238-1.238-.563-2.25-1.846-2.25-2.852 0-3.413-1.967-5.969-3.57-4.639-1.785 1.482-1.793 1.008-.042-2.654.912-1.907 1.317-5.822 1.181-11.404-.114-4.675.024-8.937.307-9.47.626-1.181.993-5.988 1.083-14.189.037-3.388.526-8.338 1.086-11 2.148-10.211 2.341-13.475.627-10.591m129.544 9.003a9493.48 9493.48 0 01-5.688 12.677c-2.651 5.898-3.249 8.124-2.334 8.69.899.555.399 1.924-1.848 5.07-6.838 9.574-9.931 18.409-3.567 10.191 5.671-7.323 12.994-24.339 15.183-35.277 1.383-6.913.907-7.282-1.746-1.351m-280.483 1.535c-.582 1.731.33 4.712 1.443 4.712.518 0 .664-.45.324-1s-.025-1 .7-1c.726 0 1.881.9 2.568 2s.845 2 .352 2c-.494 0-1.214 1.686-1.6 3.746l-.703 3.746-1.819-2.246c-2.244-2.771-2.998-2.833-2.998-.246 0 1.212.689 2.027 1.75 2.068 1.393.054 1.291.289-.5 1.152-1.238.597-2.25 1.467-2.25 1.933 0 .466-.45.847-1 .847s-1-1.094-1-2.43c0-1.721-.628-2.524-2.148-2.75-1.765-.263-3.041-1.577-4.505-4.639-.483-1.012-4.347 2.596-4.347 4.06 0 .967-.42 1.759-.934 1.759-.513 0-.73 1.125-.48 2.5.554 3.055.075 3.126-2.491.372-1.386-1.489-2.526-1.893-3.789-1.346-1.696.736-1.699.809-.056 1.202 2.137.511 2.331 2.272.25 2.272-.825 0-1.5.45-1.5 1s-.605 1-1.345 1-2.132.87-3.094 1.933c-.995 1.099-2.419 1.675-3.303 1.336-1.231-.473-1.448-.043-1.045 2.067.281 1.465.122 2.664-.352 2.664-.473 0-.861-.873-.861-1.941s-.45-2.219-1-2.559c-.55-.34-1-.156-1 .41 0 .565-.595.799-1.322.52-.744-.285-1.8.542-2.415 1.893-1.086 2.383-5.263 4.38-5.263 2.516 0-.538-.951-.672-2.125-.299-2.267.719-2.025-.341.842-3.691 1.117-1.304 1.149-1.813.157-2.427-.712-.44-1.426-.267-1.648.401-.216.647-.86 1.177-1.432 1.177-.587 0-.442-.734.334-1.687 1.201-1.478 1.154-1.606-.378-1.032-.963.361-1.75.22-1.75-.312 0-.533.45-.969 1-.969 2.639 0 .537-2.048-3.112-3.03-3.573-.962-4.331-.869-5.785.711-2.305 2.504-2.807 13.319-.618 13.319.833 0 1.515.675 1.515 1.5s.477 1.5 1.059 1.5.781-.45.441-1c-.351-.567.49-1 1.941-1 3.213 0 3.218.701.022 3.447-2.051 1.763-2.37 2.631-1.664 4.537.569 1.54 1.123 1.952 1.595 1.187 1.042-1.685 8.472-1.448 10.247.327.824.824 1.355 2.512 1.179 3.75-.282 1.981-.801 2.208-4.32 1.889-2.2-.2-6.226-.425-8.946-.5l-4.945-.137-.215 4.763c-.235 5.22 1.786 7.449 5.644 6.225 2.344-.744 2.722 1.637.546 3.443-1.125.933-1.513.803-1.884-.628-.377-1.454-.49-1.377-.584.394-.064 1.208.938 4.18 2.227 6.604 2.956 5.559 1.708 8.308-3.273 7.214-2.981-.654-3.07-.57-3.07 2.906 0 3.907.203 4.076 3.066 2.544 1.333-.714 1.934-.714 1.934 0 0 .569.916 1.035 2.035 1.035 1.814 0 1.9.244.786 2.25-.688 1.238-1.266 2.55-1.286 2.917-.082 1.547-1.535 2.02-1.535.5 0-.917-.45-1.667-1-1.667s-1 .423-1 .941.45 1.219 1 1.559c.55.34.964 1.154.921 1.809-.053.799-.252.76-.604-.12-.407-1.019-.947-.929-2.421.405-2.23 2.018-2.594 4.231-.396 2.406 1.036-.86 1.5-.898 1.5-.122 0 .617.675 1.122 1.5 1.122.84 0 1.5-.892 1.5-2.026C78 323.307 86.361 315 89.045 315c2.51 0 4.778-2.03 4.202-3.76-.275-.824.176-1.015 1.343-.567 1.379.529 1.612.296 1.084-1.081-.371-.966-.674-2.195-.674-2.733 0-.537-.403-.728-.896-.423-1.761 1.088-5.129-2.808-4.482-5.186.63-2.32 2.787-3.015 3.878-1.25.34.55 1.495 1 2.567 1 1.665 0 1.777-.277.763-1.9-.652-1.045-1.781-1.672-2.508-1.393-.727.279-1.322.009-1.322-.6 0-1.017.705-1.23 5-1.509.825-.054 1.644-1.11 1.82-2.348.227-1.6.994-2.25 2.656-2.25 1.917 0 2.239-.404 1.794-2.25-.418-1.736-.264-1.991.677-1.117.671.624 1.22 3.322 1.22 5.997 0 4.389.135 4.678 1.385 2.968 1.566-2.142 4.448-.722 4.448 2.191 0 .849-.297 1.247-.66.884-.363-.363-1.292.241-2.063 1.342-1.219 1.74-1.191 2.214.208 3.613 1.465 1.465 1.468 1.766.037 3.347-1.419 1.569-1.421 1.864-.023 3.024 2.438 2.023.961 2.348-1.964.432-3.508-2.298-4.997-.671-2.351 2.569 1.123 1.375 2.216 2.387 2.429 2.25 1.413-.912 3.521-.041 3.025 1.25-.404 1.053.087 1.507 1.643 1.522 2.198.022 2.195.041-.281 1.978-3.203 2.505-3.887 2.481-4.868-.171-.532-1.438-1.047-1.776-1.526-1-.398.644-1.624 1.171-2.724 1.171s-1.764.382-1.475.849c.768 1.243-3.998 3.522-5.466 2.614-.804-.496-.998-.364-.544.371.413.668.166 1.008-.595.818-.716-.178-.962-.135-.546.097.416.232.502.833.191 1.336-.311.503-.019.915.649.915.811 0 .688.581-.37 1.75-.871.962-1.728 2.2-1.905 2.75-.176.55-.615.902-.975.782s-1.198.437-1.863 1.238c-1.634 1.969 1.071 3.057 3.873 1.557 2.445-1.309 3.144-1.351 3.144-.191 0 .487-1.602 1.646-3.56 2.575-2.878 1.366-3.336 1.959-2.394 3.094.98 1.182 1.464 1.05 3.04-.825 1.496-1.78 2.054-1.956 2.769-.873.624.947 1.102 1.022 1.579.25.376-.609 1.421-1.107 2.321-1.107 1.201 0 .786.878-1.559 3.298-1.758 1.813-3.196 3.823-3.196 4.466 0 .643-1.618 2.787-3.595 4.764-4.463 4.464-5.272 8.472-1.708 8.472 1.331 0 2.169.408 1.861.907-.309.498.34.671 1.441.383 2.433-.636 2.562.433.346 2.881-1.079 1.192-1.232 1.829-.441 1.829.668 0 .936.45.596 1-.34.55-.115 1 .5 1s.821.481.458 1.068c-.363.588-1.29.827-2.059.532-.781-.3-1.399.071-1.399.838 0 1.676 3.412.975 5.09-1.046.635-.766 1.64-1.392 2.232-1.392.702 0 .66.418-.122 1.2-1.591 1.591-1.553 5.085.05 4.546.688-.232 1.785.293 2.438 1.166 1.068 1.428 1.343 1.386 2.718-.412 2.163-2.827 1.954-3.628-.77-2.945-1.649.414-2.554.102-2.989-1.033-.41-1.068-.232-1.384.519-.919.75.463.867.259.339-.594-.882-1.428 2.506-.924 7.761 1.153 2.191.867 2.529 1.379 1.628 2.466-.866 1.043-.828 1.372.158 1.372.821 0 .522.826-.815 2.25l-2.112 2.25 4.937.151c3.979.122 4.941-.17 4.953-1.5.012-1.25.216-1.336.839-.354.654 1.032 1.093.972 2.146-.297 1.031-1.243 1.496-1.315 2.107-.326.431.697 1.146.882 1.589.41.442-.472.239-1.06-.452-1.306-.691-.247-1.002-.86-.691-1.363.311-.503.088-.915-.494-.915s-1.059-.45-1.059-1c0-1.112 3.294-1.373 4.325-.342.362.362.156 1.262-.456 2-.857 1.032-.726 1.342.568 1.342.933 0 1.389-.473 1.024-1.064-.45-.727.559-.83 3.191-.323 2.116.407 4.635.688 5.598.625.963-.062 1.757.421 1.765 1.074.011.862.217.879.75.061.802-1.23 7.229-1.34 7.233-.123.004 1.406 4.063.756 4.638-.743.387-1.011 1.346-1.299 2.968-.891 1.961.492 2.396.218 2.396-1.508 0-1.159.436-2.108.969-2.108.532 0 .831.563.664 1.25-.168.688-.132.96.079.606.211-.354 1.217-.426 2.236-.159 2.061.539 3.379 5.972 1.625 6.7-.59.245.578.481 2.595.524 2.018.043 4.38.352 5.25.686.87.334 1.582.109 1.582-.5s-.675-1.107-1.5-1.107c-1.804 0-2.032-1.945-.25-2.128.688-.071 4.512-.183 8.5-.25 6.619-.111 7.251.052 7.265 1.878.012 1.527.222 1.674.889.622.48-.758 1.322-1.101 1.871-.761.549.339 1.554-.053 2.234-.872 1.721-2.074 2.991-1.857 2.991.511 0 2.14 1.952 2.847 2.07.75.039-.687.428-.35.864.75.482 1.217.357 2.288-.32 2.735-.695.458-.456.74.636.75 1.336.011 1.75-.812 1.75-3.485 0-1.925.45-3.5 1-3.5s.887.536.75 1.191c-.138.654.509 1.357 1.436 1.561 1.543.339 1.523-.075-.229-4.869-1.053-2.881-2.425-5.554-3.049-5.94-.82-.506-.786-.817.122-1.12.955-.318.991-.916.149-2.489-.61-1.139-.817-2.363-.46-2.719.356-.357 1.205.676 1.885 2.295 1.017 2.417 1.655 2.83 3.567 2.307 1.85-.505 1.97-.711.583-.999-1.393-.29-1.538-.753-.715-2.291 1.487-2.779 4.993-2.545 4.845.323-.087 1.693-.229 1.817-.573.5-.541-2.071-2.311-2.356-2.311-.372 0 2.47 2.634 3.888 4.936 2.656 1.135-.607 2.078-.976 2.095-.819.869 7.958.908 14.021.083 12.814-1.347-1.971-2.173-.971-1.458 1.765.808 3.089 2.617 2.746 4.184-.794 1.641-3.707 4.087-4.067 3.405-.5-.41 2.145-.111 2.5 2.107 2.5 1.897 0 2.431-.403 2.005-1.513-.32-.832-.025-2.182.654-3 1.353-1.631 3.469-2.072 2.512-.523-.565.912 2.785 5.036 4.09 5.036.338 0 .416-1.35.174-3-.515-3.509-.143-3.625 3.213-1 1.375 1.076 2.87 1.966 3.321 1.978 1.486.04 3.349-2.468 2.88-3.876-.307-.919-.031-1.115.825-.586.994.614 1.152-.032.696-2.842-.632-3.893.444-5.344 3.581-4.827 1.579.26 1.644.042.525-1.75-1.093-1.751-1.005-2.247.613-3.43 1.662-1.216 1.703-1.49.336-2.275-.855-.49-1.723-1.792-1.929-2.892-.255-1.36-1.167-2-2.848-2-3.064 0-3.587-2.114-2.041-8.25.8-3.18.828-4.863.093-5.598-.579-.579-1.052-1.862-1.052-2.852 0-1.099-.737-1.8-1.893-1.8-2.146 0-3.107-1.861-3.107-6.017 0-1.569-.46-4.062-1.022-5.54-1.667-4.386-1.51-20.977.224-23.655 2.42-3.737 2.843-7.147 1.264-10.191-.806-1.554-1.466-3.799-1.466-4.989s-.682-3.137-1.516-4.327c-1.366-1.951-1.352-2.255.141-3.091.911-.51 1.335-1.446.943-2.08-.484-.783-1.304-.424-2.554 1.119-1.013 1.249-2.101 2.013-2.417 1.698-.317-.315.299-1.512 1.369-2.66 1.607-1.725 1.692-2.184.489-2.646-.8-.307-1.455-1.43-1.455-2.496 0-1.507-.5-1.815-2.25-1.384-1.238.305-1.94.215-1.56-.2.379-.415-.183-1.691-1.25-2.836-1.067-1.145-1.94-2.621-1.94-3.279 0-.659-.672-2.486-1.494-4.062-1.211-2.322-1.496-2.485-1.506-.864-.011 1.704-.29 1.58-1.889-.845-1.159-1.758-2.136-2.424-2.557-1.742-1.132 1.831-3.491-1.357-2.984-4.032.33-1.74.044-1.506-1.062.869-1.534 3.293-2.89 4.059-4.002 2.26-.629-1.018-2.143-.099-5.255 3.189-.884.934-2.028 1.439-2.541 1.122-.514-.318-1.326.043-1.806.801-.714 1.126-.876 1.093-.889-.183-.022-2.31 3.763-5.961 5.492-5.298 1.118.429 1.473-.144 1.414-2.284-.043-1.571-.307-2.292-.585-1.601-.279.691-.938.99-1.465.664-.527-.326-1.654-.015-2.504.69-1.274 1.058-1.508 1.029-1.337-.164.648-4.521-3.2-5.564-6.464-1.752l-1.879 2.194-2.726-3.265c-1.499-1.796-3.341-3.389-4.093-3.541-5.343-1.074-8.877-3.973-7.059-5.791 1.139-1.139.499-3.791-.916-3.791-.491 0-.893.802-.893 1.783 0 2.702-4.76 2.1-6.818-.862-2.388-3.436-8.855-3.839-7.563-.471.285.741.05 1.637-.522 1.99-.573.354-1.324-.498-1.676-1.899-.894-3.561-2.082-3.162-2.855.959-.645 3.44-2.566 4.937-2.566 2 0-.825-.675-1.5-1.5-1.5s-1.5-.477-1.5-1.059.45-.781 1-.441 1 .029.999-.691c-.001-1.776-12.676-2.274-13.266-.521m158.952 19.462c-.238.412-.746 5.025-1.129 10.25s-.938 10.512-1.234 11.75c-.312 1.304-.073 2.25.57 2.25.609 0 1.108-.647 1.108-1.438 0-.94.928-1.373 2.675-1.25 2.489.175 2.699-.125 3.004-4.312.192-2.636-.537-7.296-1.759-11.25-2.091-6.765-2.43-7.394-3.235-6m82.137 14.33c-1.07.599-1.448 1.695-1.093 3.168.423 1.754.27 1.998-.693 1.102-.942-.876-1.688-.698-3.136.75-2.03 2.03-2.551 3.421-.9 2.4.55-.34 1 .219 1 1.241s.533 2.392 1.185 3.044c.913.913.67 2.215-1.059 5.677-2.55 5.107-4.514 6.935-3.621 3.372.327-1.308-.023-3.164-.797-4.221-1.405-1.919-2.998.201-10.503 13.972-1.868 3.426.188 7.591 2.343 4.748 1.304-1.722 1.392-1.682 1.451.667.056 2.248.169 2.316 1.122.677.836-1.437 1.834-1.699 4.719-1.237l3.66.584 3.25-6.781c1.788-3.73 3.25-7.362 3.25-8.071 0-.71.45-1.012 1-.672 1.155.714 1.101.974 1.539-7.433.184-3.539-.102-7.251-.637-8.25-.649-1.212-.628-1.817.063-1.817 1.199 0 1.407-2.652.264-3.359-.425-.262-1.508-.065-2.407.439m17.78 1.078c-1.042 1.487-1.602 1.772-1.602.815 0-1.242-5.408-1.945-8.449-1.098-.247.069.16 1.587.904 3.375 2.203 5.29 1.692 10.433-1.508 15.173-1.569 2.325-4.074 7.118-5.568 10.652-1.494 3.534-3.09 6.853-3.548 7.375-.457.522-.779 2.322-.715 4 .064 1.683.321 2.266.573 1.3.252-.962.875-1.75 1.384-1.75.51 0 .927-.642.927-1.427 0-.786 1.163-2.342 2.584-3.46 1.421-1.118 2.294-2.501 1.941-3.073-.354-.572.018-1.04.827-1.04.808 0 2.334-1.913 3.39-4.25l3.73-8.25c2.655-5.873 7.549-19.812 7.11-20.251-.208-.208-1.099.651-1.98 1.909m-186.284 37.493c.358.358.013 1.146-.767 1.75-2.431 1.885-3.175 17.161-.874 17.964 1.003.35 2.386.898 3.073 1.219.953.444 1.25-1.674 1.25-8.919 0-9.91-.495-12.665-2.274-12.665-.582 0-.766.293-.408.651m-77.286 2.599c-.018 1.512-.482 2.75-1.032 2.75-2.292 0-1.043 5.772 1.381 6.381 3.243.814 4.077 4.427 1.503 6.512-1.567 1.269-1.809 2.137-1.115 4.012.85 2.298 1.072 2.15 5.617-3.757 2.602-3.382 4.454-6.599 4.114-7.148-.34-.55.087-1 .949-1 1.314 0 1.367-.322.327-1.987-1.222-1.956-1.256-1.952-2.161.25-.809 1.968-.972 2.02-1.351.434-.341-1.425-.726-1.559-1.837-.637-1.497 1.243-.928 3.368.642 2.397.512-.316.931-.147.931.377s-.712 1.225-1.582 1.559c-2.235.858-2.418.79-2.418-.893 0-.825-.45-1.5-1-1.5-1.789 0-1.053-1.999.75-2.035 1.336-.027 1.158-.374-.75-1.465-1.375-.786-1.937-1.445-1.25-1.465 1.65-.046 1.579-1.217-.218-3.594-1.406-1.859-1.47-1.825-1.5.809m57.324 1.213c-1.369.959-1.953 2.251-1.695 3.75.217 1.258.662 4.024.989 6.148.414 2.687.857 3.447 1.457 2.5.677-1.069.866-.992.878.358.009 1.022.558 1.51 1.355 1.204.737-.283 1.917.181 2.622 1.031 1.772 2.135 2.534 1.947 3.856-.954.68-1.492.749-2.5.172-2.5-.56 0-.75-2.003-.453-4.75.487-4.494.347-4.844-2.592-6.5-3.763-2.12-3.96-2.128-6.589-.287M97 310.895c0 .492-1.117 1.955-2.483 3.25-1.365 1.295-2.504 3.03-2.53 3.855-.038 1.187-.26 1.136-1.063-.243-.948-1.626-1.183-1.633-3.52-.102-1.388.909-2.272 2.247-1.982 3.002.287.748.081 2.52-.458 3.938-.746 1.962-.68 2.467.278 2.116.692-.254 1.145-.967 1.008-1.586-.138-.619.2-1.125.75-1.125s1 .955 1 2.122c0 1.774.247 1.918 1.5.878.825-.685 1.5-1.81 1.5-2.5s.675-1.815 1.5-2.5 1.536-2.202 1.579-3.372c.044-1.186.311-1.548.604-.817.406 1.014.963.914 2.464-.444 1.86-1.683 1.962-1.665 2.513.439.315 1.207.997 2.194 1.516 2.194.518 0 .621-.52.229-1.155-.4-.645-.279-.885.274-.543.543.335.988-.045.988-.846 0-.801-.402-1.456-.893-1.456-.49 0-.612-.453-.27-1.007.343-.554-.092-1.281-.966-1.617-1.229-.471-1.329-.923-.441-1.993.916-1.104.719-1.383-.975-1.383-1.167 0-2.122.403-2.122.895m28.278 25.227c-.617.617-.901 1.696-.632 2.399.541 1.409-1.314 2.911-3.646 2.953-.998.017-1.389.815-1.169 2.385.195 1.389-.08 2.105-.67 1.741-.55-.341-1.964.605-3.141 2.102-1.761 2.238-2.305 2.462-3.065 1.259-.69-1.09-.928-1.128-.94-.148-.009.784-.92 1.187-2.265 1-1.672-.233-2.25.189-2.25 1.639 0 1.484 1.076 2.214 4.48 3.043 5.687 1.385 8.137-.231 7.451-4.916-.248-1.694-.184-2.516.143-1.829.822 1.733 2.426 1.568 2.426-.25 0-.825.661-1.5 1.469-1.5.971 0 1.256-.593.84-1.75-.345-.962-.263-1.419.183-1.016.446.404 1.417-.046 2.159-1 1.277-1.641 1.425-1.637 2.76.085 1.35 1.742 1.435 1.731 2-.25l1.2-4.205c.54-1.891.31-2.061-2-1.481-1.535.385-2.611.235-2.611-.364 0-1.346-1.323-1.296-2.722.103" fill="#d3d3d3" fill-rule="evenodd"/></svg>