<svg xmlns="http://www.w3.org/2000/svg" width="500" height="500"><path d="M227.25 53.203c4.637 1.231 5.052 3.255.5 2.433-1.787-.322-4.94-.194-7.005.285-2.187.507-3.987.496-4.309-.025-.305-.493.148-.896 1.005-.896 2.592 0 1.745-1.489-.935-1.644-1.371-.079-2.273.211-2.005.645.268.434-.285 1.086-1.229 1.448-1.471.565-1.506.792-.244 1.591C214.919 58.238 482 58.31 482 57.112c0-.477-7.987-.797-17.75-.711-9.762.086-18.956-.016-20.429-.226-4.217-.6-2.333-2.841 2.315-2.752 2.23.042 4.264-.261 4.519-.673.254-.413-50.751-.703-113.346-.647-77.595.071-112.616.421-110.059 1.1M8.336 143.244c.352 47.991.754 90.856.894 95.256.14 4.4.483-32.95.762-83l.508-91 2.195-.964c1.208-.53 2.746-1.992 3.419-3.25L17.338 58h71.998c39.598 0 71.714-.283 71.369-.629-.346-.346-34.915-.798-76.819-1.006l-76.19-.377.64 87.256M65 133v14h20.5c13 0 20.5-.366 20.5-1 0-.55.873-1 1.941-1s2.219.45 2.559 1c.379.614 8.491 1 21 1s20.621-.386 21-1c.34-.55 1.491-1 2.559-1s1.941.45 1.941 1c0 .635 7.667 1 21 1h21l.079-3.25c.043-1.787.307-2.685.585-1.994 1.38 3.423 2.336-.959 2.336-10.707v-10.832l-2.652-.666c-1.458-.366-12.708-.551-25-.41l-22.348.255v2.861c0 2.043-.357 2.635-1.25 2.072-.687-.434-3.5-.891-6.25-1.015-2.75-.124-7.658-1.145-10.907-2.27-5.46-1.89-8.272-2.044-37.25-2.044H65v14m0 31.959v13.935l20.5.062c13.159.039 20.5-.3 20.5-.947 0-1.457 3.755-1.244 4.25.241.314.941 3.726 1.161 13.82.891 12.475-.334 13.55-.518 15.541-2.666 2.116-2.284 2.118-2.313.131-2.832-1.447-.379-1.856-1.099-1.468-2.584.456-1.743.054-2.077-2.618-2.174-1.736-.064-3.606-.22-4.156-.348-.55-.128-1.45-.308-2-.4-.55-.092-.325-.653.5-1.247 1.266-.91 1.227-.991-.25-.516-2.018.649-2.489-1.908-.5-2.715 2.17-.88-1.074-2.415-3.945-1.866-1.885.36-2.443.121-2.102-.901.255-.766.989-1.448 1.63-1.517.642-.069 1.505-.233 1.917-.365.412-.132 1.629-.145 2.703-.028 1.582.172 1.729-.058.774-1.209-.904-1.089-.905-1.695-.003-2.597.901-.901.74-1.176-.691-1.176-3.128 0-1.3-.705 3.717-1.433 4.582-.665 4.75-.601 4.75 1.807 0 1.373.439 3.65.975 5.061.657 1.729.638 2.565-.059 2.565-.569 0-.756.45-.416 1 .793 1.283 4.5 1.309 4.5.031 0-.532-.787-.673-1.75-.312-1.467.55-1.55.409-.509-.874.683-.841.946-1.825.584-2.187-.362-.362-.203-.658.353-.658.557 0 1.827.9 2.822 2 .995 1.1 2.415 2 3.155 2 .74 0 1.345.417 1.345.927 0 .509.787 1.132 1.75 1.384 1.258.328 1.088.49-.607.573-1.706.084-2.191.549-1.756 1.681.478 1.247.144 1.416-1.643.829-1.234-.405-3.031-.688-3.994-.628-.999.063-1.75-.593-1.75-1.528 0-1.021-.348-1.28-.923-.688-1.704 1.753-.109 6.271 2.017 5.715 1.048-.274 1.906-.01 1.906.587s.675.826 1.5.51c.825-.317 1.5-.078 1.5.531s-.75 1.107-1.667 1.107c-.916 0-1.329.338-.916.75.412.412 1.237.75 1.833.75.596 0 1.288.615 1.539 1.367.349 1.047-.508 1.274-3.667.973-2.267-.216-4.122-.043-4.122.384 0 1.152 11.78.942 12.5-.224.967-1.564 4.5-1.172 4.5.5 0 1.286 3 1.5 21 1.5h21l.079-4.75c.043-2.613.306-4.187.583-3.5 1.437 3.562 2.338.191 2.338-8.75 0-10.659-.27-11.149-4.365-7.927-2.844 2.237-3.243 1.932-1.568-1.199 1.036-1.934.776-1.988-8.708-1.797-6.695.135-10.206.627-11.139 1.56-2.036 2.036-6.823 1.852-6.603-.253.181-1.74-16.715-2.376-62.867-2.368l-41.75.007v13.936m222.914 8.108c-.778.488-2.203.642-3.168.341-1.388-.431-1.673-.061-1.363 1.773.215 1.276.864 2.216 1.443 2.089.579-.126 1.335.661 1.68 1.75.346 1.089 1.161 2.044 1.811 2.122.651.077 2.083.225 3.183.329l3.809.358c.995.094 1.55.59 1.234 1.102-.317.512-.174 1.179.316 1.482.49.303 1.178-1.241 1.528-3.431.451-2.823 1.143-4.005 2.375-4.061 1.383-.063 1.432-.192.238-.63-.825-.304-2.175-1.107-3-1.786-2.002-1.648-8.318-2.548-10.086-1.438m-37.164 6.341c-1.512.538-2.75 1.368-2.75 1.844s.45.588 1 .248c1.441-.891 1.171 1.69-.392 3.75-1.644 2.166-2.608 2.237-2.608.191 0-.904.475-1.266 1.13-.861.648.401.957.181.725-.516-.714-2.142-2.344-1.212-2.684 1.531-.18 1.462-.759 3.163-1.285 3.781-.526.618-2.12 2.699-3.543 4.624l-2.585 3.5.588-3.211c.324-1.766.202-3.45-.27-3.742-.473-.292-1.043 1.04-1.267 2.961-.225 1.931.039 3.492.592 3.492.549 0 .403.563-.326 1.25-1.06 1-1.417 1-1.783 0-.274-.746-2.14-1.218-4.625-1.171-2.292.043-3.492.309-2.667.59 6.3 2.145 8.13 3.56 7.961 6.16-.315 4.86-.023 5.882 1.119 3.921.561-.963 1.647-1.75 2.413-1.75.766 0 1.982-.808 2.7-1.795.809-1.111 2.355-1.705 4.057-1.56 1.512.13 2.75-.09 2.75-.488s1.194-.671 2.654-.607c3.075.135 7.396-1.66 6.702-2.784-.643-1.039.819-.941 2.58.173 1.137.72 1.184 1.212.225 2.367-.666.802-1.106 2.835-.978 4.518.477 6.251-5.792 8.87-13.683 5.717-1.554-.621-1.387-.205.75 1.87 1.512 1.469 2.75 3.089 2.75 3.601s1.44 1.304 3.2 1.76l3.199.829-2.163 2.163c-2.789 2.789-1.32 3.641 3.691 2.14 4.713-1.412 5.974-3.605 2.806-4.879l-2.233-.898 2.177-.064c2.268-.066 5.961 5.425 4.327 6.434-.458.284-1.061-.05-1.34-.741-.316-.785-.536-.626-.585.424-.044.927-1.053 1.824-2.251 2-4.159.612-2.998 2.547 1.882 3.137 7.967.964 8.759 1.144 9.585 2.183.443.557.664.072.5-1.097-.162-1.153.155-2.197.705-2.321.55-.123 1.384-.91 1.853-1.748.692-1.237 1.21-.937 2.75 1.595 2.321 3.816 2.346 4.181.233 3.37-1.18-.453-1.435-.269-.879.632.497.803 1.863 1.055 3.714.685 1.622-.325 2.682-.187 2.375.309-.766 1.24.439 4.075 1.732 4.075.586 0 1.878.736 2.872 1.636 1.676 1.516 1.856 1.513 2.453-.043.354-.924.388-1.935.076-2.247-1.028-1.028 5.052-5.342 8.471-6.012 3.92-.768 9.85-4.958 9.85-6.961 0-1.124.37-1.159 1.935-.181 1.845 1.152 1.798 1.292-1 2.993-1.719 1.046-2.935 2.639-2.935 3.846 0 1.812-.42 1.981-3.5 1.403-2.245-.421-3.5-.269-3.5.423 0 .594-.675.821-1.5.505-1.763-.677-1.888.045-.465 2.704.757 1.413.712 1.934-.166 1.934-.662 0-.918.284-.571.631.962.963-1.182 4.369-2.75 4.369-.76 0-1.588-.562-1.84-1.25-.324-.883-.79-.94-1.589-.194-.831.776-.615 1.607.815 3.143 1.07 1.148 1.673 2.361 1.339 2.695-1.026 1.025-2.273.673-2.275-.644-.006-3.542-17.559.358-20.499 4.554-.824 1.178-1.531 1.703-1.569 1.169-.039-.535-.495-.073-1.014 1.027-.809 1.714-.89 1.606-.569-.75.251-1.837-.076-2.75-.986-2.75-1.287 0-1.859 2.336-1.531 6.25.08.962-.298 1.75-.842 1.75-.543 0-.988.688-.988 1.53 0 1.703 3.863-.61 9.5-5.689 1.65-1.486 4.35-2.968 6-3.293 2.804-.551 2.851-.512.728.594-1.249.651-2.524 2.347-2.832 3.771a73.188 73.188 0 01-1.403 5.269c-1.219 3.884-.251 6.698 2.093 6.085 1.053-.275 1.914-.973 1.914-1.55 0-2.867 1.278.735 1.59 4.482.389 4.672-1.158 9.796-2.961 9.809-2.057.014-3.681 4.936-2.339 7.086 1.582 2.531 2.71 2.413 2.71-.285 0-2.141.033-2.147 1.468-.25.808 1.067 1.483 1.434 1.5.813.018-.62-.649-1.692-1.48-2.382-1.861-1.545-.247-3.99 2.634-3.99 1.033 0 1.878-.689 1.878-1.531 0-.843.688-1.796 1.53-2.119.932-.358 1.307-1.287.96-2.38-.442-1.394.147-1.951 2.638-2.498 2.672-.587 2.926-.862 1.519-1.65-.929-.52-1.398-1.415-1.043-1.99.436-.706.88-.666 1.367.121.397.642.762-.279.813-2.045.05-1.767.502-3.482 1.004-3.81 1.492-.977 3.349-5.068 2.744-6.047-.309-.499.342-1.194 1.445-1.544 9.621-3.053 14.012-.28 8.609 5.438-1.327 1.405-2.565 3.905-2.75 5.555-.398 3.552-1.829 5.44-3.606 4.758-.974-.374-1.006-.823-.133-1.875.631-.761.852-1.383.49-1.383-.361 0-.223-.812.308-1.804 1.121-2.094-.149-4.775-1.783-3.765-.612.378-1.112 1.5-1.112 2.493 0 .994-.9 2.95-2 4.349-2.101 2.671-2.704 6.727-1 6.727.55 0 1-.477 1-1.059 0-1.949 1.77.008 2.447 2.705.436 1.735.213 2.954-.639 3.494-.982.622-.871.833.442.845 2.369.02 2.204 1.25-.384 2.867-2.421 1.511-3.823.301-3.851-3.325-.014-1.841-.121-1.821-1.604.297-1.882 2.686-1.265 4.925 1.655 6.005 1.896.701 1.949.914.522 2.098-1.176.976-1.935 1.03-2.925.208-1.021-.847-1.864-.55-3.56 1.255l-2.222 2.366 3.021.443c2.062.303 3.203-.029 3.592-1.045.436-1.134.849-1.211 1.739-.321 1.554 1.554 3.082 1.495 2.134-.083-.51-.849-.209-.81.941.122 1.463 1.187 1.692 1.145 1.692-.309 0-.924-.419-1.422-.931-1.106-.512.317-1.24.075-1.618-.537-.434-.702.001-.972 1.181-.733 1.214.247 2.476-.595 3.603-2.404.955-1.53 2.143-2.783 2.64-2.783.498 0 .693-1.575.434-3.5-.536-3.975 1.858-4.945 4.318-1.75 1.236 1.605 1.327 1.553 1.11-.64-.13-1.314.326-2.589 1.013-2.833.746-.265 1.25.41 1.25 1.675 0 1.784.305 1.955 1.934 1.083 4.256-2.277 7.826-.741 4.566 1.965-2.112 1.753-1.864 4.092.5 4.71 2.16.565 2.603 1.8 1 2.79-.55.34-1 1.443-1 2.452 0 2.166-2.113 3.214-4.057 2.013-1.734-1.072-3.943.664-3.943 3.098 0 2.401.924 2.865 4.386 2.203 1.655-.316 3.082-1.338 3.361-2.408.836-3.197 2.458-2.067 1.738 1.211-.57 2.593-.341 3.156 1.472 3.63 2.113.553 2.117.595.257 2.681-1.988 2.23-4.857 8.591-4.452 9.87.131.413-1.139.75-2.821.75-2.058 0-2.825-.378-2.346-1.155.443-.715.275-.883-.44-.44-.681.42-1.155.085-1.155-.815 0-.869.58-1.305 1.346-1.011.938.36 1.373-.409 1.434-2.531.104-3.661-2.403-4.208-3.656-.798-1.827 4.974-2.061 8.67-.639 10.092.781.781 1.141 1.698.801 2.039-.341.34-.094.619.547.619.642 0 1.167-.675 1.167-1.5s.45-1.5 1-1.5 1 1.01 1 2.243c0 1.916.655 1.514 4.484-2.75 2.467-2.746 4.492-4.404 4.5-3.684.009.743.522.997 1.186.586.782-.483.962-.182.544.909-.345.898-.196 1.898.33 2.223.526.325.956.096.956-.51 0-2.362 3.763-5.249 5.543-4.253 1.164.651 1.351 1.184.583 1.658-.81.5-.832 1.259-.079 2.667.58 1.082 1.434 1.732 1.898 1.445.465-.287 1.103.15 1.419.972.315.822.137 1.494-.395 1.494-.533 0-.969.675-.969 1.5s-.62 1.5-1.378 1.5c-.758 0-2.065 1.012-2.905 2.25-1.229 1.811-1.779 2.006-2.822 1-1.271-1.227-3.822-1.844-2.609-.631 1.041 1.042-1.888 3.263-3.897 2.955-2.322-.357-3.354 1.072-3.374 4.676-.018 3.338 2.853 3.792 4.753.75 1.468-2.351 4.77-2.646 5.594-.5.856 2.232-.334 4.5-2.362 4.5-.982 0-2.045.675-2.362 1.5-.678 1.768-4.209 2.003-5.232.349-.493-.798-1.125-.586-2.059.691-1.537 2.102-1.791 3.853-.437 3.016 3.69-2.281 5.105 6.56 1.659 10.367-2.223 2.457-2.598 2.507-5.09.685-1.63-1.192-1.709-1.626-.549-3.024.745-.898 1.054-1.933.687-2.3-.785-.785-10.617 9.258-10.617 10.845 0 .595 1.124 2.418 2.498 4.051l2.499 2.97-2.499 4.263c-2.731 4.66-3.194 7.521-1.248 7.705 2.869.272 4.359-.361 6.283-2.669 1.827-2.19 2.344-2.322 5.074-1.291 3.334 1.258 8.745.398 8.179-1.3-.196-.587-2.061-1.654-4.145-2.371-4.929-1.694-5.571-2.474-3.171-3.854 1.083-.623 3.176-2.371 4.651-3.883 1.475-1.512 3.235-2.75 3.911-2.75.823 0 1.065-1.076.733-3.25-.274-1.788-.295-3.812-.048-4.5.537-1.494 5.662-1.653 8.271-.257 1.566.838 1.953.55 2.479-1.842.342-1.56 2.362-4.701 4.488-6.98 2.574-2.761 3.699-4.78 3.368-6.045-.274-1.045.019-2.219.65-2.609.795-.491.591-1.13-.663-2.081-1.695-1.285-1.699-1.374-.06-1.404.962-.018 1.75.404 1.75.937 0 .532.681.707 1.513.388.832-.32 2.111-.084 2.842.522.731.607 1.625.808 1.987.446.362-.362.688.429.726 1.758l.067 2.417 1.085-2.25c1.157-2.398 3.77-3.087 3.795-1 .012.935.229.913.862-.085.466-.735 1.145-1.264 1.51-1.175.365.088 1.214-.037 1.888-.278 2.382-.852-.011-1.714-5.857-2.11-5.107-.346-9.023-1.709-14.148-4.923-.972-.611-.972-1.232 0-2.975.677-1.212 1.321-2.37 1.432-2.573.112-.203.931.359 1.822 1.25.89.89 1.276 1.619.856 1.619-.419 0 .106.635 1.168 1.411 1.061.777 2.292 1.188 2.735.914.442-.273 1.376-.023 2.074.556 2.184 1.813 8.396.148 10.285-2.757 2.445-3.757 4.539-5.084 7.055-4.47 2.941.718 8.126-1.153 11.803-4.259 2.418-2.042 2.612-2.466 1-2.188-2.077.359-5.081-4.458-3.936-6.31.305-.493.059-.897-.545-.897-.652 0-1.006 1.596-.869 3.918.387 6.561-3.408 9.452-5.031 3.832-.516-1.788-.979-2.632-1.029-1.878-.117 1.785-3.09-.485-3.09-2.36 0-.683-.9-2.386-2-3.785-2.129-2.706-2.656-5.727-1-5.727 2.89 0-2.277-7.843-5.25-7.968-1.394-.059-.762 2.75.75 3.33 2.461.944 1.699 2.399-.988 1.885-1.369-.262-2.242-.874-1.941-1.361 1.1-1.781-.689-2.911-2.206-1.394-.829.83-2.241 1.508-3.136 1.508-1.267 0-1.362-.267-.429-1.2 1.669-1.669 1.5-3.8-.3-3.8-.825 0-1.387.506-1.25 1.125.138.619-.375 1.352-1.139 1.63-.846.307-1.118.066-.696-.617.381-.617.292-1.84-.199-2.717-.759-1.355-1.293-1.118-3.561 1.577-1.468 1.744-2.374 3.647-2.015 4.229.36.582.733 2.956.83 5.275.151 3.64-.076 4.152-1.658 3.739-1.009-.264-2.098-1.533-2.421-2.819-.323-1.287-1.209-2.856-1.968-3.486-.991-.822-1.104-1.664-.399-2.98.651-1.216.638-2.047-.038-2.464-.56-.347-.746-1.071-.413-1.61.381-.616 1.128-.545 2.016.192 1.079.896 1.411.893 1.411-.011 0-.649.45-.903 1-.563.55.34 1-.259 1-1.33 0-1.071.563-1.885 1.25-1.809.688.077 1.25-.311 1.25-.861s-.562-.937-1.25-.861c-.687.076-1.257-.374-1.265-1-.009-.627-.452-.464-.985.361-1.366 2.113-1.362-.917.005-4.514.591-1.555.646-3.288.132-4.205-.545-.975-.379-2.514.444-4.099 1.462-2.818 1.068-4.182-1.207-4.182-1.099 0-1.324-.611-.829-2.25 1.487-4.923 3.882-4.176 6.471 2.018 1.156 2.764 4.737 4.246 9.378 3.88 2.587-.203 3.585.164 3.92 1.444.622 2.381-5.642 3.143-7.859.956-1.416-1.398-1.665-1.378-2.561.202-1.181 2.08-4.076 2.389-3.294.351.749-1.953-1.133-2.868-2.504-1.217-1.249 1.505-.474 4.616 1.151 4.616.568 0 1.636.788 2.374 1.75.91 1.188 1.588 1.398 2.11.654.423-.603 1.984-1.393 3.469-1.757 2.648-.647 2.68-.6 1.615 2.454-.646 1.852-.715 3.374-.171 3.756.503.354.85 1.655.772 2.893-.16 2.518 1.238 2.821 5.037 1.089 3.064-1.396 3.242-2.484.547-3.339-2.7-.857-2.522-3.112.397-5.024 2.423-1.588 15.439-2.314 17.595-.981.564.349 2 .325 3.19-.053 2.163-.686 2.163-.687-.259-2.029l-2.423-1.342 2.39-.036c1.314-.019 2.889.605 3.5 1.387.61.783 3.135 1.518 5.61 1.635 7.748.365 8.77-.062 4-1.668-2.475-.834-5.575-2.711-6.89-4.171-2.923-3.247-7.103-4.129-7.125-1.502-.012 1.405-.201 1.491-.89.404-.649-1.025-2.06-1.202-5.484-.689-4.242.636-6.582 2.569-3.111 2.569 2.566 0 1.641 1.492-1.021 1.645-1.569.091-2.417-.334-2.249-1.129.149-.701-.817-2.158-2.145-3.238l-2.416-1.964 3.268-.093c4.486-.128 5.252-1.221.855-1.221-4.095 0-11.831-2.489-13.292-4.276-.55-.673-1.866-1.899-2.923-2.724-1.789-1.395-1.883-1.342-1.344.75.697 2.706-.62 2.878-3.67.478-1.772-1.394-2.027-2.131-1.193-3.452.582-.924.676-2.039.208-2.478-.469-.439-1.074-.172-1.346.594-.317.894-.94.329-1.743-1.581-.688-1.634-2.413-4.815-3.835-7.067l-2.585-4.095-7.785.507c-4.281.278-9.022.896-10.534 1.373-1.676.528-2.75.497-2.75-.081 0-.521-.506-.835-1.125-.698-.619.138-1.196-.988-1.283-2.5-.141-2.446.177-2.741 2.875-2.671 1.668.043 2.471.306 1.783.583-1.734.7-1.562 2.004.361 2.742 1.107.425 1.445.185 1.079-.768-.553-1.442 3.798-4.071 5.251-3.173.435.269 4.308.557 8.608.64 4.299.084 9.313.777 11.142 1.541 1.829.765 4.447 1.108 5.817.765 2.066-.519 2.492-.265 2.492 1.483 0 1.159.47 2.108 1.044 2.108.574 0 .911.741.75 1.646-.487 2.727 2.092 2.699 3.338-.036 1.395-3.062 2.592-2.516 4.5 2.052 1.428 3.418 3.354 3.719 3.383.529.012-1.338.196-1.406.88-.326 1.929 3.045 14.103.917 18.092-3.163 3.347-3.423 3.911-5.261 1.308-4.262-.937.36-3.183-.142-4.989-1.115-3.158-1.7-3.407-1.696-6.451.101-2.798 1.653-3.294 1.694-4.273.356-.609-.833-3.342-1.789-6.073-2.123-4.14-.507-5.505-1.237-8.2-4.384-1.779-2.076-3.251-4.106-3.271-4.512-.07-1.361-7.195-3.742-10.884-3.637-2.01.057-4.91-.394-6.446-1.002-2.161-.856-2.727-.826-2.507.135.157.682-.162 1.345-.708 1.472-.546.126-.993-.675-.993-1.781 0-1.107-.675-2.441-1.5-2.966-1.19-.756-.983-.974 1-1.055 4.853-.196-3.051-1.892-8.271-1.774-2.64.059-5.084-.176-5.431-.524-.347-.347.119-.631 1.035-.631.917 0 1.667-.45 1.667-1s1.012-1.037 2.25-1.081c2.141-.078 2.123-.138-.378-1.25-2.176-.968-.501-1.162 9.763-1.131 7.592.023 12.265-.338 12.066-.934-.615-1.845-7.674-4.779-14.177-5.893-3.588-.614-6.524-1.492-6.524-1.949 0-.458-.9-.351-2 .238s-2.007.717-2.015.285c-.009-.432-.452-.11-.985.715-.826 1.278-.972 1.237-.985-.275-.019-2.249-3.561-3.61-7.765-2.983-2.011.3-3.25.061-3.25-.629 0-.612.675-1.113 1.5-1.113 2.116 0 1.878-1.983-.25-2.079-1.045-.047-1.247-.282-.5-.583.688-.278 1.25-1.1 1.25-1.828 0-1.359-2.563-1.161-6.5.502-1.1.464-3.681 1.121-5.736 1.459-2.054.338-3.629 1.123-3.5 1.746.156.749-1.453 1.042-4.764.869-6.083-.32-6.183-.403-3.615-2.971 1.905-1.905 1.929-2.123.333-3.053-1.08-.629-1.232-1.012-.409-1.032.72-.016 1.019-.5.664-1.074-.355-.574-.101-1.699.563-2.5.665-.801.816-1.463.336-1.471-.479-.009-.197-.467.628-1.019 1.311-.878 1.28-1.173-.25-2.345-.962-.738-1.75-1.79-1.75-2.338s-3.193-1.293-7.095-1.655c-3.903-.363-8.017-1.153-9.143-1.755-2.714-1.453-8.596-1.681-12.012-.465m-182.5 4.315l-3.25.404V211h21c13.333 0 21-.365 21-1 0-1.402 3.749-1.254 4.222.166.214.642 2.304 1.318 4.644 1.503 3.064.243 4.053.009 3.531-.836-.493-.797-.175-.962.991-.514 1.146.439 1.481.278 1.009-.485-.415-.671-.265-.87.363-.482.588.363 1.281.095 1.541-.596.28-.747.856-.275 1.42 1.165.522 1.332 1.224 1.978 1.558 1.436.364-.589 5.856-.872 13.665-.704 7.933.171 13.056-.099 13.056-.686 0-.532.9-.967 2-.967 1.111 0 2 .667 2 1.5 0 1.286 3 1.5 21 1.5h21v-28.069l-19.75-.079c-10.863-.043-26.725-.281-35.25-.528-8.525-.247-19.075.031-23.445.618-5.323.715-8.277.736-8.95.063-.963-.963-36.033-1.19-43.355-.282M278 211.964l-2.5.765 2.5 1.033 2.5 1.032-3 1.213c-2.758 1.116-2.839 1.279-1 2.033 1.754.718 1.661.828-.75.89-4.26.109-3.244 1.729 1.5 2.391 4.478.625 12.174 3.938 13.271 5.712.356.577 1.509.775 2.563.44 1.212-.384 1.916-.134 1.916.682 0 .71.675.326 1.5-.851.825-1.178 1.227-2.853.893-3.723-.334-.869-.135-1.581.441-1.581 1.767 0 2.315 1.853 1.177 3.979-1.243 2.324.154 2.732 1.949.569 1.667-2.009.438-5.21-3.31-8.622-3.534-3.217-5.811-3.641-7.65-1.426-1.82 2.193-3.525 1.839-4.818-1-.878-1.927-.857-2.516.089-2.57 1.422-.082-2.27-1.804-3.771-1.76-.55.016-2.125.374-3.5.794m-209.25 3.793l-3.75.364V243h2.8c1.54 0 3.34-.54 4-1.2.933-.933 1.2-.933 1.2 0 0 .66.949 1.2 2.108 1.2 1.75 0 2.002-.425 1.481-2.5-.463-1.845-.229-2.5.892-2.5.835 0 1.519.659 1.519 1.465 0 .805.787 1.88 1.75 2.389 2.532 1.337 25.25 1.516 25.25.199 0-.579 1.125-1.053 2.5-1.053 1.556 0 2.5.567 2.5 1.5 0 1.284 2.933 1.5 20.393 1.5 17.205 0 20.483-.235 20.969-1.5.78-2.034 4.638-1.945 4.638.107 0 1.055.544 1.398 1.582 1 .87-.334 4.374-.607 7.787-.607 5.489 0 6.223-.231 6.356-2 .083-1.1-.271-2-.787-2s-.927-.787-.913-1.75c.033-2.344 6.31-5.515 7.857-3.968 1.568 1.568 1.422 6.718-.191 6.718-.72 0-2.121.594-3.115 1.321-1.539 1.125-.063 1.352 9.978 1.535 8.701.158 11.998-.122 12.6-1.071.448-.707.822-6.997.831-13.978l.015-12.692-63.25.139c-34.788.076-64.937.302-67 .503M262 230.969c0 .532-.675.709-1.5.393-.974-.374-1.5.025-1.5 1.138 0 1.048-.537 1.508-1.382 1.184-1.014-.389-1.88 1.47-3.25 6.973-1.818 7.304-3.54 9.517-4.188 5.383-.521-3.328-1.936-2.325-2.413 1.71-.244 2.063-.807 4.65-1.252 5.75-.666 1.646-.571 1.779.538.75 2.396-2.223 4.542-1.565 2.447.75-1.984 2.192-2.016 2.176 4.75 2.384 2.062.064 3.744-.109 3.737-.384-.018-.768-6.817-5-8.032-5-.59 0-.832-.39-.538-.866.294-.476 1.719-.64 3.166-.363 3.306.632 4.346-.926 4.52-6.771.123-4.125.197-4.25.897-1.5.738 2.902.768 2.869.897-1 .099-2.977.381-3.616 1.103-2.5.835 1.293.971 1.266.985-.191.008-.93-.415-1.957-.941-2.282-1.16-.717-.23-3.527 1.168-3.527.558 0 .833 1.728.625 3.916-.206 2.154-.028 3.702.395 3.441.422-.261.768.452.768 1.584 0 1.132-.45 2.059-1 2.059s-1 .339-1 .754c0 1.107 15.631.514 17.857-.677 2.665-1.427 3.277-5.646 1.105-7.612-2.212-2.001-13.962-5.622-13.962-4.302 0 .539-.707.273-1.571-.592-1.813-1.812-2.429-1.965-2.429-.602M81.416 246.621c-.504.127-4.403.528-8.666.89l-7.75.66v27.611l20.578-.011c16.561-.01 20.681-.281 21.107-1.392.715-1.863 4.315-1.762 4.315.121 0 1.285 2.948 1.5 20.531 1.5 17.328 0 20.622-.234 21.107-1.5.317-.825 1.428-1.5 2.469-1.5s1.893.675 1.893 1.5c0 1.286 3 1.5 21 1.5h21l.061-6.25c.16-16.321.037-20.985-.57-21.593-.604-.605-15.146-.908-60.091-1.252-9.405-.072-18.951.181-21.214.563-2.262.383-4.692.321-5.399-.136-1.114-.72-27.859-1.346-30.371-.711m235.365 12.938c1.834 1.284 2.036 1.915 1.146 3.578-.595 1.111-.834 2.662-.533 3.447.427 1.113-.217 1.333-2.923.997-4.655-.577-4.861 2.579-.317 4.846 4.279 2.135 7.035 1.977 9.756-.557 2.123-1.979 1.257-4.709-1.043-3.288-.401.248-1 .012-1.332-.525-.846-1.368 1.508-4.835 3.665-5.399 4.798-1.255-.308-4.658-6.988-4.658-3.597 0-3.621.025-1.431 1.559M71.5 279c-.34.55-1.941 1-3.559 1H65v27h12v-3c0-1.65.45-3 1-3 .956 0 1.184.651 1.402 4 .056.861 1.27 1.635 2.848 1.816 2.641.304 2.75.137 2.75-4.2 0-3.262.486-4.789 1.75-5.496 1.539-.861 1.388-1.123-1.25-2.169-1.65-.654-2.441-1.397-1.758-1.651.919-.341.966-.976.183-2.439-.582-1.088-.776-3.414-.431-5.17.468-2.381.362-2.81-.418-1.691-.923 1.324-1.047 1.318-1.061-.05-.026-2.614 2.195-3.953 6.435-3.882 3.647.061 3.826.175 1.8 1.152-1.237.597-2.25 1.453-2.25 1.901 0 .449-.562.679-1.25.512-.687-.168-.951-.129-.586.086.366.215.262 1.796-.231 3.514-.814 2.84-.561 3.421 2.787 6.399 3.122 2.778 3.42 3.377 1.956 3.939-1.304.5-1.458.987-.628 1.986.604.728 1.74 1.078 2.525.777 1.609-.618 1.97 1.212.427 2.166-.55.34-1 1.52-1 2.622 0 3.392 6.037 2.163 7.969-1.622.842-1.65 1.952-3.303 2.467-3.674.514-.37.819-3.183.677-6.25-.188-4.074.098-5.586 1.064-5.611.728-.02.198-.679-1.177-1.465-1.908-1.091-2.086-1.438-.75-1.465.963-.019 1.75-.533 1.75-1.142 0-.623-.73-.827-1.67-.466-1.526.585-3.277-.829-3.315-2.677-.008-.413 1.811-.75 4.044-.75h4.058l-.122 9.25c-.21 15.83-.22 15.75 2.005 15.75 1.161 0 2 .667 2 1.589 0 1.356 1.064 1.51 7.25 1.047 3.987-.298 13.438-.563 21-.589 11.806-.04 13.75-.269 13.75-1.617 0-1.062.727-1.458 2.25-1.226 1.238.189 2.128.924 1.979 1.632-.216 1.028 3.932 1.226 20.411.977l20.682-.313 1.199-3.5c.989-2.89 1.29-3.151 1.723-1.5.288 1.1.576-3.446.64-10.102l.116-12.102-8.25-.642c-12.807-.997-30.75-.795-30.75.346 0 .55-1.35 1-3 1s-3-.45-3-1c0-1.399-30.671-1.29-38.872.138-4.886.851-6.632.851-6.915 0-.493-1.479-38.802-1.612-39.713-.138m279.795 20.817c-.39 1.476-.598 3.238-.462 3.917.149.741-.373.996-1.306.638-.854-.328-2.124-.121-2.823.459-.804.667-1.81.714-2.738.127-2.008-1.27-3.228-1.192-2.397.154.378.611.153 1.441-.499 1.845-1.5.927-.291 6.282 1.299 5.758.622-.205 1.649-1.403 2.282-2.663l1.152-2.289 1.248 2.368c1.5 2.846 3.044 3.996 4.6 3.428 1.509-.551 2.485 3.202.993 3.814-.753.309-.697.496.165.548.737.045.993.59.586 1.249-.493.798-.168.957 1.023.5.96-.369 2.561-.67 3.557-.67 2.953 0 3.228-2.837.503-5.206-2.65-2.304-3.223-5.649-1.298-7.574.906-.906.871-1.756-.151-3.666-1.008-1.883-1.052-2.821-.184-3.868.931-1.122.584-1.398-1.847-1.467-2.437-.069-3.125.413-3.703 2.598M122 309.75c-1.925.171-4.54.838-5.812 1.483-1.775.899-2.758.892-4.236-.031-2.436-1.521-39.522-1.706-40.452-.202-.34.55-1.941 1-3.559 1H65v12.893c0 10.834.253 12.99 1.582 13.5 2.892 1.11 4.418.629 4.418-1.393 0-1.1.45-2 1-2s1 .689 1 1.531c0 .843.639 1.777 1.419 2.076 1.796.689 6.581-2.381 6.581-4.222 0-.834 1.061-1.385 2.667-1.385 3.103 0 2.381-1.257-.86-1.496-1.206-.089-2.362-.669-2.568-1.288-.402-1.205 2.864-.904 5.015.462 1.89 1.201 3.08 1.088 4.939-.468 2.355-1.971.218-4.317-2.865-3.144-1.498.569-2.546.376-3.373-.62-.973-1.172-.845-1.46.673-1.523 1.029-.042 2.772-.264 3.872-.494 3.828-.8 12.345.725 12.958 2.321.883 2.303-.438 2.997-1.9.998-1.574-2.152-5.558-2.33-5.558-.248 0 .825.675 1.5 1.5 1.5s1.5.695 1.5 1.545c0 1.236-.729 1.409-3.637.863l-3.637-.682 2.137 2.137c2.291 2.291 5.137 2.853 5.137 1.015 0-.748.532-.682 1.59.197 1.447 1.2 1.431 1.437-.177 2.612-1.99 1.455-1.291 2.864.988 1.989.818-.313 2.029-2.379 2.691-4.59 1.336-4.458 3.384-4.531 2.408-.086-.347 1.581-.154 3.096.441 3.464.583.36 1.059.177 1.059-.405 0-.582 1.125-1.059 2.5-1.059 1.44 0 2.5.576 2.5 1.359 0 1.099 4.021 1.38 21 1.468 20.256.105 21 .039 21-1.859 0-2.656 3.598-2.612 4.295.053.512 1.956 1.184 2.012 20.784 1.75 16.221-.217 20.348-.548 20.718-1.66.304-.914.032-1.123-.797-.611-.829.512-1.101.303-.796-.611.254-.764 1.325-1.389 2.379-1.389 2.868 0 2.942-.366 2.607-12.843l-.309-11.549-4.805.569c-3.06.363-5.058.161-5.5-.554-.9-1.457-28.576-1.576-28.576-.123 0 .55-1.35 1-3 1s-3-.337-3-.75c0-.728-27.956-1.128-35-.5m276.5.031c-4.479.753-4.663 1.08-2.362 4.191 2.836 3.836 2.147 4.467-2.365 2.167-3.949-2.013-15.696-.871-16.522 1.607-.534 1.603 5.34 3.89 10.483 4.081 5.748.214 13.29 1.973 15.981 3.728 3.202 2.089 4.59 1.884 3.32-.489-.569-1.064-1.035-3.389-1.035-5.167s-.297-2.935-.66-2.572c-.793.792-3.295-2.592-4.195-5.674-.441-1.509-1.278-2.102-2.645-1.872M388.662 333c-3.374 3.575-3.631 3.609-6.573.868l-2.289-2.132-3.65 1.957c-2.008 1.077-4.55 2.438-5.65 3.025-1.1.587-3.238 1.556-4.75 2.153-1.715.677-2.75 1.835-2.75 3.076 0 1.972.432 2.008 4.75.402 3.401-1.265 4.615-1.206 6.671.325 1.995 1.485 1.946 1.524-1.201.956-2.809-.507-3.442-.236-4.411 1.889-1.194 2.62-2.295 3.122-3.296 1.501-.393-.634-1.205-.62-2.309.042-2.563 1.537-10.451-1.057-11.691-3.843-1.42-3.191-2.321-2.732-2.027 1.031.162 2.066.848 3.368 1.884 3.573.897.178 1.63.948 1.63 1.712 0 4.185 20.227 4.774 21.329.62.281-1.059.51-.755.636.845.196 2.476.211 2.471 1.571-.5 1.824-3.982 1.809-7.154-.036-7.862-.825-.316-1.5-1.216-1.5-1.998 0-1.962 4.557-2.934 6.899-1.471 2.229 1.392 10.101-.434 10.101-2.344 0-.602.936.095 2.08 1.55 1.144 1.454 2.403 2.444 2.798 2.201.395-.244 1.358-.048 2.141.436.985.609 2.205.097 3.967-1.664 2.342-2.342 3.411-2.581 13.51-3.011 10.615-.453 12.45-1.04 12.489-3.993.009-.694-.848-.931-2.141-.593-1.478.387-1.932.2-1.441-.593.393-.637.276-1.158-.261-1.158-.536 0-1.127.455-1.312 1.011-.543 1.629-17.64 1.926-18.258.317-.706-1.84-4.094-1.663-6.074.317-1.203 1.203-1.328 1.842-.465 2.375.688.426.787.973.237 1.313-1.45.896-5.474-2.358-4.869-3.937.98-2.551-2.819-1.49-5.739 1.604M72 341.979c0 .561-1.575 1.021-3.5 1.021H65v28.127l12-.224c7.491-.14 12-.615 12-1.264 0-.629.473-.566 1.2.161 1.888 1.888 16.8 1.622 16.8-.3 0-.933.944-1.5 2.5-1.5s2.5.567 2.5 1.5c0 1.285 2.944 1.5 20.5 1.5 19.833 0 20.5-.065 20.5-2 0-1.467.667-2 2.5-2 1.854 0 2.5.53 2.5 2.05 0 1.822.473 1.996 4.25 1.562 2.338-.268 7.625-.522 11.75-.565 4.125-.043 6.955-.424 6.29-.847-.865-.549-.61-1.144.895-2.083 1.847-1.154 2.027-1.112 1.471.336-.371.968-.224 1.398.355 1.04.544-.336.989-.134.989.448 0 .651 2.888 1.059 7.5 1.059 6.196 0 7.5-.277 7.5-1.594 0-.876.9-1.829 2-2.116 1.861-.487 2-1.364 2-12.658v-12.134l-19.5-.317c-13.358-.217-19.5.02-19.5.751 0 .587-1.35 1.068-3 1.068s-3-.427-3-.949c0-1.705-38.269-1.314-40.554.414-2.472 1.869-5.078 1.937-5.764.149-.663-1.729-39.682-2.353-39.682-.635M9.152 346c-1.171 15.177-1.145 89 .031 89.001 1.07 0 1.269-6.796 1.059-36.25-.281-39.492-.668-58.223-1.09-52.751" fill="#d3d3d3" fill-rule="evenodd"/></svg>