<svg xmlns="http://www.w3.org/2000/svg" width="500" height="500"><path d="M295.886 55.637c-1.638 1.973-.867 2.408 5.254 2.961 10.7.966 69.201 1.364 70.272.478.598-.495 3.676-.828 6.839-.738 3.163.089 5.751-.175 5.75-.588 0-.413.674-.75 1.499-.75.825 0 1.5.54 1.5 1.2 0 .897.315.88 1.25-.067 1.002-1.016.885-1.537-.587-2.624-2.772-2.047-90.072-1.925-91.777.128M9.297 119.863c.214 34.186.685 62.452 1.046 62.813.361.362.657-26.162.657-58.942 0-58.721.029-59.609 2-60.234 1.1-.349 2-1.279 2-2.067C15 60.268 17.273 60 27.167 60c16.369 0 14.546-.846-3.543-1.644l-14.715-.648.388 62.155m352.426-11.195c-.292 1.531-.287 5.157.012 8.058l.545 5.274h21.606l-.23-3.607c-.198-3.088-.775-3.872-4.007-5.445-2.077-1.01-4.34-1.62-5.028-1.356-.688.264-2.483-.661-3.988-2.056S367.282 107 366.53 107c-.751 0-2.021-.251-2.821-.558-.999-.383-1.62.313-1.986 2.226m53.148 1.293c-1.204 1.628-2.567 2.727-3.03 2.441-.463-.286-.841 1.757-.841 4.539V122h21.5l-.132-3.25c-.222-5.463-.333-5.889-1.368-5.25-.55.34-1 .09-1-.554 0-.738-1.129-1.007-3.044-.726-1.674.245-3.28.064-3.569-.403-.289-.467-.896-.62-1.349-.34-.454.28-1.106-.613-1.45-1.984-.836-3.329-3.044-3.148-5.717.468m-26.667-1.249c-2.139.409-2.275.86-2 6.614l.296 6.174 10.642.283 10.642.282.408-4.278c.325-3.413-.036-4.722-1.786-6.472-1.207-1.207-1.942-2.446-1.633-2.754 1.37-1.371-1.149-.349-4.762 1.932-3.936 2.485-3.952 2.486-5.049.435-.936-1.749-1.344-1.86-2.719-.743-1.391 1.131-1.526 1.07-.962-.435.361-.963.333-1.689-.062-1.614l-3.015.576M386 132.883c0 9.309-.327 9.082 13.141 9.103l8.64.014.417-3.569c.515-4.411-2.086-7.955-5.233-7.132-1.393.364-2.287-.01-2.686-1.127-1.289-3.597-4.101-5.172-9.237-5.172H386v7.883m-21.792-6.156l-3.293.406.293 7.184.292 7.183h22l-.357-5.5c-.393-6.044-1.709-7.703-4.271-5.384-1.212 1.096-1.87 1.196-2.386.362-.391-.634-1.561-.93-2.599-.659-1.038.272-1.887.118-1.887-.341 0-1.086-2.942-4.025-3.821-3.818-.374.088-2.161.343-3.971.567m67.495 4.3c-.51 1.951-.677 1.967-4.502.437-3.058-1.224-5.322-1.402-9.837-.775l-5.864.814-.303 4.693-.302 4.693 6.075.687c3.341.378 6.316 1.078 6.611 1.556.296.477 2.535.868 4.978.868H433v-7.5c0-7.634-.348-9.102-1.297-5.473m-45.281 13.317c-.284.739-.382 4.676-.219 8.75l.297 7.406 10.443.746c7.92.566 10.633.445 11.227-.5.645-1.028.094-15.671-.621-16.497-.12-.138-2.322 1.388-4.894 3.392-4.217 3.285-4.993 3.547-7.915 2.668-1.782-.536-3.127-1.5-2.99-2.142.137-.642-.2-1.167-.75-1.167s-1-.9-1-2c0-2.247-2.773-2.756-3.578-.656M411 152.3v8.3l5.81 1.2c3.196.66 7.444 1.2 9.441 1.2 1.997 0 3.909.45 4.249 1 .34.55.113 1-.504 1s-1.042.787-.944 1.75c.357 3.507-.054 4.384-1.802 3.84-.962-.299-2.384-.146-3.16.341-1.75 1.098-8.09-1.735-8.09-3.616 0-1.738-.575-1.659-2.989.407-1.543 1.322-2.011 2.95-2.011 7 0 5.164.063 5.278 2.917 5.278 1.604 0 3.068.456 3.254 1.012.185.557 3.991 1.294 8.456 1.639l8.12.626-.213-14.389c-.297-20.108-.212-19.459-2.534-19.459-1.1 0-2 .388-2 .862 0 1.158-8.049.587-10.25-.727-1.881-1.123-2.395-3.564-.75-3.564.55 0 1-.466 1-1.035 0-.713-.604-.712-1.939.003-1.29.69-2.147.702-2.559.035-.341-.552-1.268-1.003-2.061-1.003-1.139 0-1.441 1.74-1.441 8.3m-42.452-6.377c-.314.508-1.916 1.219-3.559 1.58-2.811.617-2.989.941-2.989 5.446v4.791l4.25 1.085c2.337.597 7.288 1.366 11 1.71l6.75.624v-6.52c0-3.587-.457-6.804-1.016-7.149-.559-.346-.71-1.124-.336-1.729.46-.745.062-.846-1.234-.313-1.053.434-3.424.976-5.27 1.205-1.845.23-3.87.514-4.5.632-.629.118-1.031-.347-.894-1.035.289-1.447-1.359-1.692-2.202-.327m.202 18.789c-.962 1.07-1.75 2.461-1.75 3.092 0 .81-.734.867-2.5.196-2.49-.947-2.5-.927-2.5 4.894v5.844l3.75.62c2.063.341 7.012.625 11 .631L384 180v-6.691c0-5.57-.209-6.414-1.25-5.034-1.372 1.82-2.441 1.785-7.955-.266-2.265-.843-3.819-2.129-4-3.311-.291-1.906-.319-1.906-2.045.014m17.46 6.538l.29 8.25 3 .239c6.894.548 16.5 2.508 16.5 3.367 0 .508-1.462 1.79-3.25 2.849-1.788 1.06-3.841 2.448-4.564 3.085-1.213 1.069-5.463.8-10.436-.661-1.512-.444-1.75.211-1.75 4.826v5.339l6.474 1.228c3.56.675 8.139 1.228 10.174 1.228h3.701l-2.232 2.375c-2.156 2.295-7.062 3.261-8.12 1.598-.837-1.317-5.907.098-5.37 1.499.268.696-.439 1.507-1.57 1.803-1.726.451-2.057 1.333-2.057 5.487v4.949l6.25.606c3.438.334 8.365.907 10.95 1.274l4.7.667-.025-28.629c-.024-27.583-.095-28.629-1.95-28.629-1.059 0-1.925.439-1.925.975 0 .55-1.308.713-3 .375-2.273-.455-3-.234-3 .908 0 .83-1.125 1.724-2.5 1.987-2.761.528-3.147-.148-1.25-2.192 1.022-1.101.923-1.232-.538-.717-1.113.392-2.003.07-2.357-.853-.324-.844-1.832-1.483-3.502-1.483h-2.934l.291 8.25m-182.019.688c-7.049 3.796-8.895 5.595-9.422 9.181-.674 4.593 3.005 6.902 4.926 3.091 1.661-3.298 5.185-6.402 6.409-5.646.493.305.896-.162.896-1.037 0-2.417 4.199-3.621 5.709-1.638 1.494 1.961 1.66 3.457.291 2.611-1.909-1.18-.986 1.223 1.5 3.905 1.375 1.484 2.5 3.211 2.5 3.838 0 .626.603.315 1.339-.692 1.21-1.655 1.4-1.673 1.969-.191.346.902.167 1.64-.398 1.64-.566 0-.72.498-.344 1.107.477.771.944.696 1.544-.25.623-.985.864-.721.875.959.008 1.273.481 3.186 1.05 4.25.815 1.522.708 1.934-.5 1.934-.844 0-1.549.563-1.567 1.25-.018.704-.673.402-1.5-.691-1.214-1.605-1.468-1.662-1.468-.33 0 1.004-1.226 1.884-3.25 2.333-2.758.612-2.95.827-1.272 1.422 1.872.665 1.846.772-.5 2.028-1.363.729-2.641 1.226-2.841 1.105-.713-.435-4.839 9.48-5.572 13.389-.411 2.188-1.02 4.421-1.354 4.961-.334.541-.66 1.894-.724 3.008-.443 7.643-.452 7.671-2.32 7.078-1.109-.352-1.852-.082-1.881.683-.026.695-.369 2.164-.761 3.264-.573 1.606-.501 1.704.365.5.594-.825 1.086-1 1.095-.389.009.645 1.066.911 2.515.634 1.375-.263 2.5-.876 2.5-1.362 0-.485 1.125-.883 2.5-.883 1.556 0 2.5-.567 2.5-1.5 0-.825.436-1.5.969-1.5.532 0 .681-.749.33-1.664-.43-1.119-.256-1.427.531-.941.644.398 1.17.246 1.17-.336 0-.582-.9-1.059-1.999-1.059-1.666 0-1.958-.584-1.75-3.498.137-1.924.737-3.499 1.332-3.5 1.419-.003 1.431-3.29.016-4.237-.713-.476-.572-.745.401-.765 1.333-.027 1.333-.138 0-1-1.282-.828-1.246-.972.25-.985.963-.008 1.697-.353 1.632-.765-.3-1.895.228-2.624 1.008-1.393.6.946 1.067 1.021 1.544.25.376-.609.207-1.107-.375-1.107s-1.059-.388-1.059-.861c0-.474 1.125-.647 2.5-.384 1.941.371 2.503.061 2.515-1.388.013-1.572.169-1.63.985-.367.862 1.333.973 1.333 1 0 .025-1.229.187-1.254.894-.137.729 1.151.961 1.151 1.485 0 .481-1.055.753-1.081 1.204-.113.321.688 1.291 1.25 2.155 1.25 1.35 0 1.316-.283-.238-2-3.913-4.324 2.597-2.183 7.603 2.5 2.646 2.475 5.241 4.5 5.766 4.5 1.285 0 .852-2.426-.785-4.399-2.364-2.848.452-1.695 3.416 1.399 1.581 1.65 3.352 3 3.937 2.999.585-.001-2.671-3.713-7.234-8.25-4.563-4.537-9.288-9.907-10.5-11.934-3.32-5.553-12.414-19.078-14.163-21.065-2.041-2.319-3.082-2.187-9.349 1.188M182 182.071c0 1.374 2.597 3.998 3.281 3.315.285-.286.815-.039 1.178.547.373.604-.126 1.074-1.15 1.082-1.045.009-1.372.326-.775.75.569.404 2.032 2.033 3.25 3.62 1.219 1.587 2.216 2.299 2.216 1.583s.263-1.039.584-.717c.728.728-3.339 12.124-5.888 16.499-1.495 2.567-2.556 3.255-5.045 3.272l-3.151.022 2.399 1.845c1.646 1.265 1.987 1.982 1.088 2.282-.722.241-1.425 1.203-1.562 2.138-.138.944.204 1.42.77 1.071.616-.381.798.112.46 1.245-2.144 7.182-1.608 7.546 2.022 1.375 8.321-14.148 10.555-16.848 14.495-17.522 3.833-.655 5.741-2.914 3.265-3.864-.79-.303-1.437-.115-1.437.417 0 .533-.927.969-2.059.969-1.132 0-1.781-.45-1.441-1 .34-.55.115-1-.5-1s-.859-.419-.543-.931c.317-.512.089-1.232-.506-1.599-.745-.461-.652-1.182.298-2.319 1.256-1.503 1.376-2.274.903-5.78-.083-.62-1.615-1.731-3.402-2.467-1.787-.736-4.283-2.366-5.545-3.621-2.557-2.543-3.205-2.788-3.205-1.212m180 7.884v7.954l3.25.502c1.788.277 6.738.679 11 .896l7.75.393v-6.457c0-5.329-.262-6.356-1.5-5.881-.825.316-1.5.177-1.5-.31s.563-1.086 1.25-1.332c.688-.245.977-.743.643-1.107-1.26-1.371-4.055.66-3.552 2.582.311 1.19.056 1.769-.67 1.524-.644-.218-1.195-1.481-1.224-2.807-.075-3.428-1.383-3.831-2.956-.912-1.205 2.238-1.42 2.311-2.045.698-.527-1.356-1.37-1.654-3.413-1.205-1.814.398-3.14.083-3.996-.949-2.401-2.893-3.037-1.55-3.037 6.411m50.2-4.755c-.679.679-1.2 3.933-1.2 7.5 0 6.053.098 6.3 2.5 6.3 1.375 0 2.5.398 2.5.883 0 .486 1.012 1.204 2.25 1.596 2.207.699 2.197.734-.555 1.829-2.257.899-2.692 1.568-2.226 3.426.414 1.65.073 2.497-1.194 2.965-3.655 1.349-4.89 8.301-1.475 8.301 1.919 0 4.2 1.801 4.2 3.317 0 .504-1.125.701-2.5.438-2.495-.477-2.5-.463-2.5 7.384V237h3.5c1.925 0 3.5.43 3.5.956s3.227 1.089 7.17 1.25c4.625.19 7.317.738 7.583 1.544.261.79-.563 1.25-2.237 1.25-2.165 0-2.538.354-2.037 1.933.715 2.254-3.454 3.09-9.414 1.888-4.988-1.007-8.904 1.915-8.278 6.178.361 2.46 1.048 3.218 3.334 3.675 1.583.317 2.879.97 2.879 1.451 0 .481 3.423.875 7.607.875 5.949 0 7.495.292 7.093 1.341-.283.737-.173 1.894.245 2.57 1.19 1.926 2.066-8.385 1.022-12.027-.581-2.025-.568-3.66.035-4.386.753-.908.747-32.998-.007-32.998-.092 0-.242-4.961-.332-11.024-.147-9.925-.387-11.264-2.413-13.438-1.747-1.876-2.25-2.053-2.25-.795 0 1.891-2.977 1.773-7.322-.29-2.309-1.096-2.967-1.103-3.625-.039-.565.914-1.006.971-1.487.193-.376-.609-.32-1.114.125-1.122.866-.017-1.817-1.944-2.741-1.97-.303-.008-1.09.525-1.75 1.185M148.429 196c0 1.1.339 2 .754 2s.475.727.134 1.616c-.538 1.403-.315 1.453 1.683.384s2.221-1.019 1.683.384c-.398 1.036-.093 1.616.848 1.616.808 0 1.469.675 1.469 1.5s.691 1.5 1.535 1.5c1.26 0 1.33.384.387 2.146-1.051 1.964-.948 2.093 1.215 1.514 1.299-.348 3.177-.639 4.172-.646.995-.008 1.531-.464 1.191-1.014-.34-.55.068-1 .906-1 1.852 0 3.786-3.386 4.11-7.194.201-2.355-.143-2.806-2.138-2.806-1.353 0-2.378.594-2.378 1.378 0 4.2-12.176 2.794-13.56-1.566-.769-2.423-2.011-2.307-2.011.188m215.321 10.47c-1.043 1.434-1.75 4.201-1.75 6.849v4.442l9.25.467c5.087.257 9.925.648 10.75.87 1.2.322 1.5-.697 1.5-5.098 0-5.403-.048-5.495-2.75-5.212-1.512.158-2.75-.151-2.75-.688 0-.537-.9-1.004-2-1.038-1.1-.034-2.864-.093-3.919-.13-1.056-.038-2.167-.713-2.469-1.5-.841-2.191-3.909-1.648-5.862 1.038M362 229.034v8.034l10.75-.284 10.75-.284.314-3.256c.329-3.417-3.184-9.752-4.84-8.728-.481.297-1.382-.41-2.003-1.571-1.085-2.027-1.185-2.038-2.519-.278-.763 1.008-1.403 1.361-1.42.784-.019-.607-1.507-.877-3.532-.641-2.142.25-3.5-.022-3.5-.701 0-.61-.9-1.109-2-1.109-1.834 0-2 .667-2 8.034m41.638-3.534c-.316.825-1.624 1.5-2.907 1.5-1.282 0-2.86.529-3.507 1.176-.902.902-1.591.822-2.95-.344-3.582-3.07-6.735-.923-7.071 4.815l-.298 5.067 6.127.555c6.721.61 7.922 1.177 6.179 2.92-1.599 1.599-6.329 1.666-6.931.099-.272-.708-1.796-1.288-3.387-1.288H386v7.941c0 9.186-.178 8.993 8.998 9.762 5.612.471 7.002.916 7.002 2.242 0 .91.54 2.195 1.2 2.855.66.66.772 1.238.25 1.283-.522.046-2.075.325-3.45.62s-5.088.595-8.25.667l-5.751.13.001 4.592c0 4.464.108 4.624 3.866 5.75 4.277 1.281 18.124 1.592 18.152.408.01-.413.185-12.337.39-26.5l.371-25.75h-2.282c-1.256 0-2.542.675-2.859 1.5m-118.623.156c-.008.662-.87.933-2.015.634-1.391-.364-2-.031-2 1.093 0 .89-.477 1.617-1.059 1.617s-.781-.45-.441-1c1.02-1.651-2.15-1.126-3.576.592-1 1.204-2.488 1.466-6.116 1.076-3.795-.408-4.998-.166-5.771 1.158-.537.921-.99 1.284-1.007.808-.016-.477-1.831.761-4.033 2.75-4.16 3.758-6.47 4.503-7.338 2.366-.381-.941-.769-.879-1.568.25-.719 1.017-1.065 1.097-1.076.25-.019-1.615-1.461-1.58-5.364.133-1.733.76-4.571 1.922-6.306 2.582-1.735.659-3.423 1.949-3.75 2.867a45.785 45.785 0 01-1.207 3.001c-.464 1.014.112.96 2.411-.229 1.661-.859 3.194-2.082 3.405-2.717.256-.767.956-.584 2.083.543 2.027 2.027 3.669 1.282 3.829-1.739.09-1.692.22-1.792.573-.441.252.963.827 1.75 1.277 1.75 1.109 0 2.178-2.958 1.478-4.09-.309-.501-.085-.91.497-.91s1.059 1.125 1.059 2.5.429 2.5.953 2.5c.525 0 .187 1.347-.75 2.994-.936 1.646-2.404 2.996-3.262 3-.857.003-2.413.63-3.456 1.394-1.628 1.19-2.225 1.173-4.192-.115-1.454-.954-2.293-1.095-2.293-.388 0 .613-.675 1.115-1.5 1.115s-1.5.679-1.5 1.508c0 1.248-.339 1.298-1.96.285-1.337-.835-1.594-1.451-.807-1.937 2.225-1.375-.91-6.191-3.511-5.393-1.222.375-2.897.678-3.722.673-5.256-.03-5.917.667-5.313 5.602.501 4.09.38 4.562-.896 3.503-.811-.673-1.707-.992-1.991-.708-.283.283-1.084-.171-1.78-1.009-1.045-1.259-.983-1.524.358-1.524.946 0 1.622-.819 1.622-1.965 0-1.753-.546-1.917-5.052-1.519-4.631.408-4.919.312-3.452-1.154.879-.88 1.382-1.817 1.117-2.082-.508-.508-2.67 1.074-5.375 3.934-1.201 1.27-1.959 1.432-2.929.627-1.011-.839-1.309-.586-1.309 1.111 0 2.005.437 2.173 5.008 1.93 3.203-.17 5.456.217 6.25 1.073 1.012 1.091.908 1.221-.56.704-1.071-.378-1.554-.235-1.191.352.336.544.161.989-.389.989s-1.271-.439-1.602-.975c-.705-1.14-9.432-.207-11.222 1.199-.664.522-1.704.641-2.311.265-.608-.375-2.541-.909-4.294-1.184-1.754-.276-3.414-.84-3.689-1.254-.275-.413-1.175-1.049-2-1.412-.846-.373-.519-.479.75-.244 1.913.355 2.25-.018 2.25-2.489 0-5.608-4.405-3.271-5.36 2.844l-.664 4.25h5.453c5.724 0 7.003.684 5.581 2.983-.63 1.021-1.209 1.101-2.184.303-.972-.796-1.67-.712-2.615.314-1.053 1.143-1.053 1.403 0 1.415.91.011.848.297-.211.973-1.169.745-1.639.356-2.132-1.766-.615-2.653-.634-2.64-.75.528-.094 2.578.278 3.25 1.8 3.25 1.055 0 2.63.273 3.5.607 1.047.402 1.582.051 1.582-1.034 0-1.234.683-1.529 2.75-1.189 1.512.248 4.198.489 5.969.534 2.456.063 3.08.443 2.633 1.608-.431 1.123-.927 1.242-1.88.451-2.107-1.749-2.864.776-1.058 3.532 2.057 3.14 2.005 3.491-.521 3.491-1.462 0-1.931-.459-1.531-1.5.405-1.058-.079-1.495-1.643-1.485-1.323.009-1.756.312-1.072.75 1.434.919 1.793 4.014.819 7.07-.559 1.754-.954 2.002-1.589 1-.662-1.043-.85-.978-.862.3-.008.899-1.14 2.372-2.515 3.273-1.375.901-2.5 1.23-2.5.732 0-.499-.941-1.153-2.091-1.454-1.841-.481-2.011-.227-1.421 2.124.762 3.036 2.058 4.114 4.396 3.658.889-.173 2.17-.349 2.847-.391.677-.043 1.513-1.202 1.858-2.577.345-1.375 1.173-2.5 1.839-2.5 1.612 0 5.572-4.624 5.572-6.508 0-.82.477-1.492 1.059-1.492s.781-.45.441-1c-.358-.58.615-1 2.316-1 2.486 0 3.029-.477 3.559-3.125.974-4.872.794-5.215-1.84-3.49-3.784 2.479-4.344 1.92-1.094-1.093 1.861-1.725 3.066-2.27 3.323-1.5.801 2.403 4.236 1.356 4.236-1.292 0-1.375-.477-2.5-1.059-2.5s-.813.398-.513.884c.301.487-1.247.851-3.44.811-2.194-.041-3.988-.494-3.988-1.007 0-.513-.604-.432-1.342.181-.738.612-1.596.86-1.906.549-.311-.31-2.182-.117-4.158.428-1.977.546-3.587.692-3.579.323.035-1.532 1.64-2.68 3.985-2.851 8.506-.62 16.044-.388 17.645.543 1.02.593 1.293 1.092.605 1.109-.687.016-1.25.968-1.25 2.113 0 1.223.517 1.911 1.25 1.667.688-.229 1.25-1.054 1.25-1.833 0-3.811 7.585-5.781 9.735-2.529.514.779.739.737.75-.138.008-.687.738-1.25 1.622-1.25 1.055 0 1.398-.544 1-1.582-.334-.87-.607-1.995-.607-2.5 0-.505-1.575-.918-3.5-.918-3.185 0-3.488-.248-3.364-2.75.113-2.271.21-2.368.562-.557.332 1.71 1.24 2.261 4.114 2.5 3.189.266 3.731.679 4.004 3.057.333 2.891 3.532 3.952 4.522 1.5.289-.717.538-.468.583.583.11 2.554 2.391 1.535 3.149-1.407l.625-2.426.516 2.5c.512 2.479.518 2.477.653-.25.075-1.512-.314-2.75-.864-2.75s-1-.436-1-.969c0-.532.675-.709 1.5-.393.926.356 1.5 1.875 1.5 3.969 0 1.866.498 3.393 1.107 3.393s.848.675.531 1.5c-.704 1.835.096 1.942 1.683.226 1.559-1.685 1.931-3.726.679-3.726-.55 0-1-.9-1-2 0-2.343 1.53-2.667 2.362-.5.316.825 1.025 1.5 1.575 1.5s.743-.671.428-1.492c-.322-.838.103-1.75.968-2.082.847-.325 1.327-1.147 1.067-1.827-.784-2.042 3.394-6.524 5.674-6.085 1.14.22 2.268-.242 2.581-1.056.305-.796.957-1.198 1.45-.893.492.304.895.091.895-.475 0-.565.71-.755 1.577-.422 1.178.452 1.465 1.584 1.132 4.469-.415 3.591.082 4.37 2.541 3.981.413-.065.75.332.75.882s.788.964 1.75.921c1.056-.048 1.252-.28.494-.585-.691-.279-1.022-.886-.736-1.349.287-.464-.498-1.167-1.743-1.563-2.189-.696-2.198-.746-.265-1.502 1.693-.661 1.731-.792.25-.852-1.192-.048-1.75-.885-1.75-2.629 0-1.407.419-2.3.931-1.984.512.317 1.213.118 1.559-.441.345-.559 1.078-1.016 1.628-1.016.55 0 .711.468.357 1.04-.415.672.253.815 1.887.405 1.598-.401 3.368-.047 4.806.96 3.021 2.116 3.306 2.037 3.48-.974.108-1.866-.247-2.415-1.301-2.01-.917.351-1.191.135-.744-.587.418-.677.265-.87-.376-.474-.596.368-1.373-.244-1.727-1.36-.354-1.116-1.112-1.74-1.684-1.386-.572.353-1.432.022-1.912-.736-.691-1.09-.877-1.012-.889.372-.008.963-.492 1.75-1.074 1.75-.582 0-.781-.45-.441-1 .933-1.51-.619-1.199-1.89.379-.61.758-2.857 1.639-4.991 1.958-3.768.563-3.826.527-2-1.233 1.034-.997 2.106-1.54 2.381-1.208 1.04 1.257 3.077 1.066 3.616-.338.309-.804 2.087-1.965 3.953-2.581 3.446-1.137 5.928-.59 4.895 1.081-.312.505.136.649.995.319 1.136-.435 1.394-.158.945 1.012-.404 1.054-.083 1.611.932 1.611 1.468 0 1.607-2.665.252-4.858-.289-.467.607-1.365 1.99-1.996 3.056-1.392 4.484-1.478 2.422-.146-1.228.794-1.117.972.615.985 1.163.008 3.392-.989 4.952-2.217 1.561-1.227 2.488-1.666 2.061-.975-.427.691-.406 1.192.048 1.113 1.911-.332 3.405.154 2.914.949-.609.985 4.233 5.841 5.241 5.257.368-.214 1.344.911 2.169 2.5 1.447 2.786 4 4.36 4 2.465 0-1.259-13.601-15.077-14.841-15.077-.546 0-1.221.563-1.5 1.25-.381.941-.769.879-1.568-.25-.611-.864-1.067-1.01-1.076-.344M130.51 240.984c-.345.559-.039 1.03.681 1.046.798.019.619.433-.461 1.061-.974.567-2.624.76-3.667.429-1.508-.479-1.793-.204-1.389 1.341.424 1.622 1.326 1.917 5.464 1.791 4.67-.143 4.923-.022 4.39 2.098-.311 1.238-.108 2.25.453 2.25.56 0 1.055-.787 1.098-1.75.047-1.045.282-1.247.583-.5.278.688.965 1.25 1.528 1.25.563 0 .765-.675.448-1.5-.632-1.649 1.087-1.905 6.08-.906 2.488.497 2.894.983 2.509 3-.483 2.524-.43 2.544 7.773 2.877 1.375.056 2.387.423 2.25.815-.137.393-.25 1.192-.25 1.777 0 .584-.787.983-1.75.885-4.809-.489-5.673-.073-3.905 1.881 3.43 3.79 1.233 5.158-4.428 2.757-2.638-1.119-1.854 2.122.806 3.334 1.435.654 2.102 1.554 1.669 2.254-.483.782-.172.956.944.527.915-.351 1.664-.277 1.664.164 0 .441.675.802 1.5.802 2.186 0 1.835-1.187-.75-2.533-2.191-1.141-2.178-1.162.465-.798 1.493.205 2.844-.014 3.002-.488.158-.474 2.022.068 4.142 1.205 4.438 2.378 5.803 1.888 3.091-1.108-1.579-1.745-1.647-2.205-.437-2.953.897-.555 1.695-.464 2.131.24.985 1.595 4.157 1.882 5.1.463.583-.877 1.151-.729 2.135.555 1.99 2.597 2.349 2.248 3.578-3.484.989-4.613.917-5.385-.608-6.5-1.647-1.204-.811-1.813 1.901-1.384.412.065.75-.734.75-1.775 0-2.121-2.225-3.342-4.5-2.469-.832.32-1.5.029-1.5-.653 0-.958-.338-.95-1.524.035-.838.696-1.838.951-2.221.568s-.11-1.06.608-1.504c.972-.6.787-.942-.721-1.337-1.114-.291-2.268-.288-2.564.008-.932.933-6.577 1.053-6.005.128.3-.486-.157-.883-1.014-.883s-1.559.462-1.559 1.026c0 .588-1.259.374-2.951-.501-1.8-.931-4.413-1.338-6.703-1.045-2.064.264-4.03.031-4.37-.519-.34-.55-3.023-1.236-5.963-1.524-2.94-.288-5.689-.737-6.11-.997-.421-.26-1.047-.015-1.393.544m174.359 4.358c.612.738.818 1.638.456 2-.362.362-.133.658.508.658.642 0 1.167.675 1.167 1.5s.394 1.5.875 1.5c.783 0 2.547 5.509 2.291 7.154-.056.36.559 1.202 1.366 1.873 1.639 1.36 2.033 3.44.468 2.473-.55-.34-1-.19-1 .334s.704 1.222 1.563 1.552c.86.33 1.289 1.044.954 1.586-.335.543-.102 1.935.518 3.093s.875 2.358.568 2.666c-.308.308-.991-.518-1.518-1.836-.85-2.124-.957-1.942-.951 1.605.004 2.431.273 3.328.687 2.287.453-1.142 1.135-1.432 2.046-.869 1.656 1.023.332 3.582-1.853 3.582-.818 0-1.597.9-1.733 2-.135 1.1.009 1.438.32.75.915-2.021 3.211-1.434 3.911 1 1.902 6.618 1.893 6.331.153 4.887-1.467-1.218-1.576-.891-1.141 3.409.264 2.615.926 5.291 1.47 5.946 1.207 1.455.299 2.508-2.161 2.508-1.008 0-1.833-.675-1.833-1.5s-.422-1.5-.938-1.5-.87.9-.787 2c.083 1.1.756 2 1.497 2 .74 0 1.037.5.659 1.112-.378.611-.067 1.511.691 2 1.156.745 1.137 1.052-.122 1.907-1.3.883-1.241 1.217.441 2.5 1.602 1.222 1.66 1.481.333 1.481-.884 0-1.834-.562-2.112-1.25-.314-.78-.534-.623-.583.417-.043.916-.641 1.867-1.329 2.113-.727.259-.879.817-.363 1.333s1.083.335 1.357-.433c.329-.925.943-.644 2.051.937 1.137 1.624 1.247 2.369.393 2.654-.653.217-1.188.794-1.188 1.281 0 2.101 2.99-.509 3.884-3.39 1.5-4.839 1.092-8.566-1.107-10.105-1.954-1.369-1.952-1.393.125-2.505 1.82-.974 2.098-.845 2.098.972 0 1.328.422 1.833 1.155 1.381.686-.425.884-.277.487.365-.925 1.497 2.381 2.057 5.134.868 2.389-1.032 2.521-2.706.272-3.455-.791-.264-1.044.014-.628.687.882 1.427.314 1.421-2.873-.031-2.683-1.222-3.413-2.828-1.297-2.854.889-.011.924-.228.123-.75-.816-.533-.85-2.526-.125-7.235.551-3.575 1.047-8.075 1.103-10 .122-4.211-2.314-10.678-3.375-8.961-.523.846-.917.865-1.41.068-.376-.609-.207-1.107.375-1.107s1.052-.788 1.044-1.75c-.011-1.169-.266-1.357-.769-.565-.416.654-.8-.615-.859-2.834-.062-2.392-.966-5.183-2.231-6.894-1.169-1.582-2.126-3.128-2.126-3.436 0-1.383-5.14-8.521-6.135-8.521-.811 0-.81.361.004 1.342m60.881 2.861c-2.594.689-3.75 1.556-3.75 2.815 0 1-.247 2.462-.549 3.25-.441 1.148 1.571 1.645 10.198 2.518 12.418 1.256 12.353 1.274 12.343-3.595-.008-4.041-3.689-7.094-5.893-4.89-.726.726-1.829.687-3.619-.128-2.941-1.34-3.581-1.338-8.73.03m-244.505 3.014c.394 2.681-.921 3.509-4.568 2.877-.452-.078-.677.881-.5 2.132.23 1.62 1.042 2.318 2.823 2.425 1.375.084 3.032.196 3.683.25.65.055 1.478 1.032 1.84 2.171.395 1.246 1.22 1.857 2.067 1.532.776-.298 1.41-.079 1.41.486 0 .566.45.75 1 .41s1 .11 1 1 .45 1.34 1 1c.55-.34 1-.127 1 .473s1.012 1.498 2.25 1.996c2.101.844 2.051.909-.75.983-2.316.061-2.658.3-1.5 1.048 1.282.828 1.246.972-.25.985-.963.008-1.75-.66-1.75-1.485 0-.825-.477-1.5-1.059-1.5s-.784.445-.448.989c.35.566-.051.734-.941.393-.854-.328-1.552-.112-1.552.48 0 .591-.629.834-1.399.538-.769-.295-1.743.021-2.164.702-.538.871-.257 1.043.951.579 1.019-.391 1.468-.257 1.105.33-.336.544-1.372.996-2.302 1.004-1.276.012-1.372.218-.388.842 1.429.907 1.269 3.223-.303 4.378-.611.448-.49.74.309.75.72.008 1.05.434.734.946-1.283 2.075 1.765 2.128 3.957.069 1.294-1.215 2.835-1.911 3.426-1.546.633.391 1.074-.182 1.074-1.395 0-1.132.436-2.059.969-2.059.532 0 .709.675.393 1.5-.418 1.087.072 1.468 1.781 1.384 1.654-.081 1.842-.251.632-.569-1.603-.42-1.592-.595.155-2.47 1.517-1.629 2.27-1.808 3.909-.931 1.116.597 2.622 1.054 3.345 1.016.724-.039.416-.459-.684-.935-1.68-.726-1.52-.846 1-.751 3.888.146 5.051.792 3.357 1.866-1.047.663-.944.863.452.875.995.008 1.531.465 1.191 1.015-.34.55.11 1 1 1 .968 0 1.332.464.905 1.155-.473.763-.271.88.595.345.814-.503 1.066-.416.667.229-.671 1.086 4.994 3.944 5.94 2.997.299-.299-.397-.842-1.546-1.207-1.15-.365-1.863-1.03-1.587-1.478.277-.448-.166-1.37-.985-2.05-.819-.68-1.489-1.775-1.489-2.433 0-1.694-4.807-5.668-7.061-5.838-1.038-.078-2.12-.75-2.406-1.494-.285-.744-.972-1.073-1.526-.73-.916.566-1.449-.776-1.109-2.794.119-.708-7.32-4.406-12.217-6.073-1.449-.493-1.695-4.652-.307-5.177.069-.026 1.397-.594 2.951-1.262 1.554-.669 3.241-.958 3.75-.644.509.315.925-.077.925-.87 0-1.831-3.482-2.794-4.916-1.36-.596.596-1.084.656-1.085.134 0-.522-1.612-.965-3.581-.983-3.354-.03-3.555.144-3.173 2.75m103.507 9.72c-1.512.86-2.749 1.927-2.75 2.372-.001.445.448.531.998.191s1-.184 1 .347c0 .531.9.73 2 .443 1.366-.358 2-.031 2 1.031 0 1.245-1.044 1.496-5.25 1.262-2.887-.161-5.694-.041-6.236.267-.542.308-2.49.43-4.33.271-2.997-.258-3.311-.045-3.015 2.045.241 1.7 1.079 2.42 3.081 2.65 1.515.175 2.75.935 2.75 1.693 0 .858-.788 1.224-2.092.973-1.513-.291-1.936.002-1.531 1.058.308.803.11 1.46-.44 1.46s-1.259-.675-1.575-1.5c-.317-.825-1.503-1.5-2.636-1.5-1.132 0-1.763.296-1.401.658.362.362.156 1.262-.456 2-.887 1.069-.539 1.342 1.709 1.342 2.227 0 2.564.258 1.597 1.225-.967.967-1.639.967-3.186 0-2.62-1.636-2.989-1.555-2.989.653 0 3.846 2.705 4.664 7.585 2.293 2.458-1.194 6.031-2.171 7.942-2.171 3.137 0 3.473-.271 3.473-2.8 0-1.54-.536-3.336-1.191-3.991-.921-.921-.412-1.164 2.25-1.072 5.369.185 5.941-.009 5.941-2.02 0-2.795 3.677-3.418 4.43-.751.565 2 .687 2.024 1.947.384 1.862-2.425 3.327-2.188 3.092.5-.108 1.238.173 2.722.623 3.299.972 1.245-3.039 10.343-5.433 12.323-1.888 1.563-2.125.867-.645-1.898.832-1.555.553-2.137-1.548-3.238l-2.563-1.343 2.048-2.604c2.165-2.752 2.652-4.789 1.144-4.789-1.105 0-6.644 9.153-6.276 10.373.144.48-.426.608-1.268.285-1.234-.474-6.551 3.384-6.551 4.753 0 .26 6.996-.128 9.788-.542 3.655-.543 4.492.153 2.383 1.983-2.353 2.04-1.938 3.111 1.246 3.218 1.56.053 1.707.241.583.75-.825.374-1.625 1.58-1.778 2.68-.252 1.819-.089 1.781 1.794-.415 1.139-1.328 1.841-3.015 1.559-3.75-.284-.74.142-1.335.956-1.335.891 0 1.469-.961 1.469-2.441 0-2.603 1.574-4.336 2.209-2.431.246.738.993.527 2.12-.6 1.341-1.341 1.477-2.057.593-3.122-.889-1.071-.778-1.524.491-2.011 1.163-.446 1.343-.984.621-1.854-.559-.674-.684-1.558-.277-1.965.407-.407-.159-1.414-1.259-2.238-1.984-1.488-1.984-1.496.099-1.168 1.153.181 2.165-.007 2.25-.42.418-2.046-.019-2.518-1.883-2.03-1.884.492-1.944.33-.796-2.189 1.102-2.42 1.32-2.517 1.97-.876.556 1.404.694 1.188.578-.905-.106-1.914-.694-2.75-1.934-2.75-1.025 0-1.789-.744-1.797-1.75-.013-1.496-.157-1.532-.985-.25-.533.825-.976 1.076-.985.559-.008-.518-.62-.114-1.36.898-1.28 1.75-1.373 1.729-1.941-.441-.441-1.687-1.119-2.143-2.607-1.754-1.106.289-2.145.208-2.309-.181-.164-.389-1.535-.004-3.046.856m153.203 1.618c-3.014 3.631-9.62 4.343-8.297.894.343-.895-.059-1.449-1.051-1.449-.884 0-1.607.355-1.607.789 0 .435-1.238.772-2.75.75-2.405-.034-2.791.386-3.074 3.349-.594 6.217.435 8.112 4.402 8.112 2.105 0 3.29.405 2.922 1-.34.55.046 1 .858 1 .811 0 1.738-.562 2.059-1.25.466-1 .7-1 1.166 0 .362.774 2.645 1.25 6 1.25H384v-8c0-7.757-.072-8-2.378-8-1.307 0-2.958.7-3.667 1.555m37.045.582c0 .474-.924.863-2.052.863-1.845 0-2.022.524-1.75 5.183.353 6.05.899 6.339 14.086 7.453 8.569.723 9.672 2.151 2.962 3.834-2.259.567-4.438 1.367-4.843 1.78-1.107 1.127-4.615.902-3.903-.25.34-.55-.014-1-.786-1s-2.219-.9-3.214-2c-3.273-3.617-4.5-2.547-4.5 3.927 0 4.753.332 5.99 1.679 6.25 1.571.302 1.571.43 0 2.002-2.277 2.276-2.118 2.821.821 2.821 1.375 0 2.5.45 2.5 1 0 .588 3.5 1 8.5 1 8.112 0 11.486 1.407 6.5 2.71-1.1.288-2 1.134-2 1.881 0 2.527-5.916 4.773-8.889 3.375-1.532-.721-2.094-1.415-1.361-1.68 2.282-.826 1.293-2.287-1.5-2.216-2.437.063-2.522.168-.75.93 1.637.703 1.319.899-1.75 1.08a366.03 366.03 0 00-5 .32c-.687.055-1.131-.483-.985-1.195.146-.712.233-4.087.193-7.5-.039-3.413-.039-8.157.001-10.544.052-3.094-.29-4.208-1.193-3.885-.696.25-2.035.059-2.974-.424-1.244-.639-1.982-.366-2.715 1.005-1.303 2.433-7.061 5.147-11.829 5.575-2.062.185-3.703.839-3.648 1.452.055.614.167 2.691.25 4.616.118 2.746.568 3.5 2.091 3.5 3.1 0 3.373 1.832.326 2.182-2.738.315-2.77.402-3.052 8.318l-.285 8 4.019 1.25c2.211.688 7.431 1.25 11.601 1.25h7.582l-.406-6c-.309-4.551-.083-6 .934-6 .909 0 1.343 1.368 1.348 4.25.008 4.32 2.267 6.549 6.941 6.85 1.559.1.702.532-4.699 2.368-3.162 1.075-3.5 14.532-.364 14.532 1.037 0 3.174.672 4.75 1.494 1.634.852 5.519 1.496 9.044 1.5 5.599.005 6.226.218 6.66 2.256.263 1.238.441-2.025.396-7.25-.046-5.225.002-12.875.107-17s.044-12.675-.136-19c-.18-6.325-.016-14.2.364-17.5.38-3.3.294-6.428-.19-6.95-.485-.523-.881-2.21-.881-3.75 0-2.778-.054-2.801-6.75-2.928-3.712-.07-7.762-.233-9-.363-1.238-.13-2.25.153-2.25.628m-32.971 18.328c-.691.832-1.655 1.266-2.142.965-.488-.301-.887-.18-.887.27 0 2.182-4.125 3.412-7.071 2.108-1.611-.713-2.929-1.561-2.929-1.885 0-1.142-4.117-.268-5.891 1.251-1.61 1.379-1.956 4.578-1.188 10.982.044.361.979.421 2.079.134 1.118-.293 2-.031 2 .593 0 .686 2.101 1.117 5.441 1.117 5.329 0 5.416.046 4.247 2.25-2.999 5.652-5.689 7.614-9.034 6.587-3.696-1.134-5.769-1.649-7.154-1.776-.55-.05-.338-.51.471-1.022.809-.512 1.157-1.244.774-1.627s-1.402-.112-2.263.603c-1.087.902-1.248 1.619-.524 2.343.573.573 1.042 1.852 1.042 2.842s.675 1.8 1.5 1.8c.933 0 1.5.944 1.5 2.5 0 2.503.121 2.561 6.197 2.951.933.06 2.02.433 2.416.829.396.396 2.22.72 4.054.72 4.119 0 4.206.913.333 3.5-1.647 1.1-2.996 2.337-2.997 2.75-.005 1.26-2.432.838-4.828-.84-1.801-1.261-2.028-1.882-1.1-3 .955-1.151.699-1.41-1.391-1.41-2.254 0-2.639.52-3.21 4.326-.577 3.843-.167 10.347.704 11.166 1.271 1.195 12.152 3.508 16.504 3.508 5.242 0 5.318.043 5.318 3 0 1.65.45 3 1 3s.964.788.921 1.75c-.043.962-.279 1.267-.524.677-.245-.59-1.74-.883-3.322-.651-2.855.419-6.265-1.846-7.256-4.819-.35-1.05-1.299-1.036-5.061.075-2.546.752-4.363 1.798-4.037 2.325.343.555-.315.721-1.565.394-2.008-.525-2.156-.2-2.156 4.752v5.316l6.75 1.076c3.712.592 8.55 1.195 10.75 1.341 3.245.214 4 .641 4 2.264 0 1.291-.62 1.951-1.75 1.861-.962-.076-1.75.541-1.75 1.373 0 1.081-.356 1.223-1.25.5-.687-.556-2.6-.995-4.25-.977-2.848.032-4.151-.291-9.15-2.271-3.049-1.208-3.35-.531-3.35 7.54v7.192l8.25.645c4.538.355 9.682.915 11.433 1.245l3.183.599-.104-10.132c-.107-10.44.917-13.796 3.438-11.275.66.66 4.148 1.261 7.75 1.336 3.603.075 5.538.331 4.3.57-2.182.42-2.688 1.331-2.301 4.147.444 3.229-.775 4.303-3.181 2.801-1.247-.779-3.506-1.703-5.018-2.054l-2.75-.638V372h2.941c1.618 0 3.187.398 3.487.884.301.486 3.119.741 6.262.567 7.302-.406 7.997.1 4.351 3.168-2.873 2.417-3.163 2.458-9.151 1.28-6.878-1.354-9.475.092-8.599 4.786.224 1.202.032 2.777-.427 3.5-.843 1.33-1.272-2.712-.895-8.435.162-2.451-.158-2.75-2.935-2.75-1.756 0-4.074.891-5.308 2.041-2.751 2.563-6.577 2.208-9.229-.854-3.747-4.329-5.497-2.126-5.497 6.92V391h3.559c2.246 0 3.318.39 2.906 1.057-.359.581-.385 2.124-.058 3.429.69 2.75 9.429 5.156 14.963 4.12 1.722-.323 4.118-.751 5.325-.953 1.208-.201 5.933-.029 10.5.384 6.513.588 8.647.448 9.888-.647 1.472-1.3 11.553-.896 15.917.637 1.483.521 7.676-.358 8.749-1.242.953-.785 1.103-4.959.632-17.656-.339-9.146-.559-18.429-.489-20.629.079-2.503-.191-3.515-.721-2.703-.686 1.05-1.073 1.026-2.027-.123-.878-1.059-3.535-1.39-10.412-1.298l-9.232.124-.296 7.342c-.4 9.945-.15 10.158 11.918 10.158 9.393 0 9.878.104 9.878 2.117 0 1.624-.465 1.995-2 1.593-1.483-.388-2-.03-2 1.384 0 2.565-.907 2.411-5.553-.943-2.875-2.076-5.033-2.823-7.947-2.75l-4 .099-.3 5.75c-.165 3.163-.74 5.75-1.278 5.75-1.019 0-1.197-18.374-.267-27.5l.51-5 11.918.334 11.917.333-.07-4.333c-.084-5.136-1.252-8.74-2.29-7.061-.387.627-1.37.884-2.185.571-.814-.312-2.197.027-3.073.754-1.367 1.135-1.965.865-4.237-1.908-2.697-3.293-7.265-6.19-9.759-6.19-1.011 0-1.386 1.471-1.386 5.441 0 2.993-.45 5.719-1 6.059-.596.368-1-.831-1-2.966 0-2.927-.47-3.762-2.565-4.559-3.443-1.309-3.752-1.244-3.031.636.474 1.234.206 1.444-1.143.898a161.098 161.098 0 00-4.511-1.709c-1.512-.548-2.75-1.428-2.75-1.957 0-.528.45-.683 1-.343s1 .141 1-.441c0-.604-2.148-1.059-5-1.059-4.98 0-6.563-1.186-3.269-2.45.952-.366 1.889-.189 2.083.393.213.637 3.892 1.057 9.269 1.057 9.177 0 9.822-.325 8.943-4.5-.115-.55-.214-3.587-.218-6.75-.009-6.418-1.442-7.347-6.363-4.122-1.745 1.144-3.817 1.477-6.965 1.123-2.946-.332-4.491-.119-4.512.622-.017.62-.662.294-1.433-.723-.771-1.018-1.849-1.574-2.396-1.236-1.77 1.094-2.307-3.209-2.631-21.047-.334-18.415-.467-19.326-2.479-16.902M274.5 283c-.34.55-.029 1.007.691 1.015.799.01.92.302.309.75-1.434 1.054-1.699 3.235-.393 3.235.609 0 .848.675.531 1.5-.316.825-.084 1.5.516 1.5.782 0 .785.368.012 1.3-.849 1.023-.357 1.3 2.313 1.3 1.865 0 3.169-.36 2.897-.8-.272-.44.523-.8 1.765-.8 1.757 0 1.992.267 1.059 1.2-1.666 1.666-1.501 2.853.3 2.162.825-.317 1.5-.115 1.5.448 0 .563-.562 1.25-1.25 1.528-.709.286-.446.538.607.583 1.238.053 1.662.587 1.273 1.602-.322.838.304 2.411 1.393 3.5 1.087 1.087 1.64 2.022 1.227 2.077-.413.055.375.46 1.75.9 2.332.747 2.273.807-.872.9-2.776.082-3.167.348-2.209 1.503.894 1.077.865 1.516-.127 1.892-.895.339-.464 1.288 1.405 3.088 2.451 2.362 4.829 2.087 3.303-.383-.34-.55.084-1 .941-1s1.559-.381 1.559-.847c0-.466 1.012-1.336 2.25-1.933 2.101-1.013 2.118-1.091.25-1.184-1.974-.098-1.974-.119-.059-1.568 1.897-1.435 1.891-1.468-.25-1.468-1.205 0-2.191-.45-2.191-1s.45-1 1-1 1-.477 1-1.059-.419-.8-.931-.484c-.512.317-1.213.118-1.559-.441-.365-.591.548-1.049 2.181-1.095 1.545-.043 2.272-.297 1.615-.565-.656-.267-.951-1.244-.655-2.171.459-1.438.381-1.465-.532-.185-1.32 1.852-6.039-2.559-5.37-5.02.325-1.193.22-1.219-.541-.135-.723 1.031-1.088.768-1.565-1.13-.701-2.793-4.22-4.26-5.047-2.104-.293.764-.922 1.389-1.398 1.389-1.189 0-1.123-3.351.081-4.138.538-.351.62-1.216.184-1.921-.571-.925-1.057-.608-1.742 1.138-.564 1.44-1.14 1.912-1.42 1.165-.26-.691-.883-1.002-1.386-.691-.828.511-1.338-.873-1.033-2.803.176-1.117-2.667-.907-3.382.25m-111.054 1.866c2.347.962-3.512 2.657-13.024 3.768-3.257.38-7.385 1.511-9.172 2.512-1.787 1.001-3.25 1.351-3.25.778s-.45-.764-1-.424-1 1.041-1 1.559c0 1.346 3.378 1.163 4.8-.259.66-.66 1.2-.822 1.2-.36 0 .462-.787 1.459-1.75 2.215-2.471 1.942 2.681.861 8.61-1.807 5.096-2.293 6.815-1.766 2.135.655-3.015 1.559-3.155 1.879-2.55 5.823.352 2.296 1.031 9.349 1.508 15.674.477 6.325.908 11.613.957 11.75.385 1.075 3.23-.143 4.09-1.75.589-1.1 1.595-2 2.235-2 .867 0 .858.307-.035 1.2-1.67 1.67-1.499 2.852.311 2.157 1.085-.416 1.336-.122.889 1.043-.461 1.2-.2 1.461 1.001.999 1.647-.631 4.599 1.117 4.599 2.723 0 .483-.579.878-1.286.878-.707 0-1.285.849-1.285 1.886 0 1.237.499 1.695 1.449 1.33 1.007-.386 1.201-.153.635.763-.655 1.06.243 1.18 4.586.609 2.971-.391 5.554-1.141 5.74-1.667.187-.526 1.087-1.704 2-2.617 1.548-1.548 1.683-1.547 1.984.017.457 2.371 3.177 2.096 3.177-.321 0-1.1.477-2 1.059-2s.839.357.569.792c-.269.436.425.862 1.544.946 1.551.117 1.912-.308 1.524-1.792-.583-2.232-.301-2.34 2.37-.911 1.266.678 1.934.69 1.934.035 0-2.104-3.588-2.996-6.33-1.574-2.812 1.459-3.361.664-1.694-2.451.772-1.443.564-1.932-.997-2.34-1.086-.284-2.396-1.571-2.913-2.861-.517-1.289-.968-1.722-1.003-.961-.102 2.223-4.268 5.403-5.169 3.945-.58-.938-1.335-.948-3.322-.043-2.071.944-2.572.909-2.572-.178 0-.742-1.572-2.42-3.493-3.728-2.933-1.997-5.13-4.863-2.757-3.597.412.221 1.537-.428 2.5-1.441.963-1.012 1.273-1.841.691-1.841s-.734-.526-.336-1.17c.49-.792.173-.959-.981-.516-1.243.477-1.626.19-1.414-1.058.269-1.589-2.054-2.523-3.21-1.289-1.972 2.103-5.077 2.997-5.607 1.614-1.22-3.18.057-5.081 3.413-5.081 1.809 0 3.685-.668 4.212-1.5.523-.825.958-1.107.967-.628.008.48.69.313 1.515-.372s1.5-.819 1.5-.298c0 1.281 4.983.946 7.681-.516 1.833-.994 2.047-1.649 1.341-4.109-.462-1.609-.602-3.163-.313-3.453.29-.29-.764-.806-2.341-1.147-4.057-.877-7.253-2.32-5.368-2.425 1.333-.073 1.333-.202 0-1.154-1.205-.861-1.057-.974.751-.578 1.239.271 2 .085 1.691-.413-.308-.499.168-.907 1.058-.907s1.41.337 1.155.75c-.255.413.59.813 1.876.89 2.009.121 4.236-2.206 3.151-3.291-.201-.201-3.024-.571-6.273-.823-3.444-.266-5.097-.124-3.963.34M219 295.02c0 .56-1.099.82-2.442.576-3.614-.655-3.54 1.144.211 5.12 1.831 1.942 3.186 4.263 3.011 5.158-.176.894.59 2.526 1.7 3.626 1.111 1.1 2.131 3.125 2.266 4.5.567 5.75.998 8.077 1.608 8.687 1.031 1.032.746 2.493-.354 1.813-.55-.34-1-.334-1 .012 0 .88 3.232 4.024 3.929 3.821.314-.091.759.021.988.25.229.23-.334.417-1.25.417-4.313 0-1.006 1.532 3.815 1.767 4.534.221 5.369.008 4.888-1.244-.319-.832-.942-1.288-1.385-1.014-1.589.982-4.292-.688-2.819-1.742 1-.717.898-.816-.406-.397-1.251.403-1.913-.13-2.356-1.898-.34-1.352-1.019-2.21-1.511-1.906-.491.304-.893-.112-.893-.924 0-.811.51-1.645 1.134-1.853.743-.248.571-.941-.5-2.012-1.807-1.807-2.204-3.247-.626-2.272.554.342 1.642-.013 2.419-.789 1.215-1.215 1.069-1.78-1.048-4.064-1.353-1.458-1.965-2.652-1.36-2.652.604 0 .821-.45.481-1-.34-.55-1.491-1-2.559-1-1.937 0-2.643-1.448-1.155-2.368 2.796-1.728-1.18-8.599-4.025-6.955-.406.235-.47-.271-.143-1.125.328-.854.323-1.552-.011-1.552s-.607.459-.607 1.02m40.515 6.911c-.521 2.374-1.018 2.966-1.816 2.168-1.662-1.662-3.125-1.317-1.699.401.897 1.081.922 1.5.091 1.5-.635 0-1.413-.675-1.729-1.5-.317-.825-.978-1.5-1.469-1.5-1.136 0-.711 2.266.607 3.235.565.415.238.741-.75.75-.963.008-1.75.492-1.75 1.074 0 .582.427.795.95.472 2.538-1.569 2.924 3.239.447 5.566l-2.526 2.373-3.884-2.235c-4.03-2.319-8.987-2.99-8.987-1.216 0 .575-1.199.786-2.75.485-2.276-.443-2.405-.372-.75.41 1.1.52 1.55.977 1 1.016-.55.039-1.066 1.213-1.146 2.607-.12 2.064.113 2.32 1.25 1.377.768-.637 1.396-.824 1.396-.414s.675.185 1.5-.5c1.278-1.06 1.5-.791 1.5 1.819 0 1.684.486 3.364 1.081 3.731.595.368.81 1.747.479 3.066-.331 1.319-.255 2.341.169 2.273.424-.069.996-.015 1.271.122.275.136 1.625.347 3 .47 1.375.122 3.175.401 4 .621.916.243 1.405-.201 1.255-1.14-.151-.946.583-1.6 1.91-1.699 1.185-.09 2.462-.659 2.837-1.266.375-.606 1.09-1.026 1.59-.931.499.094 1.808.089 2.908-.011 1.839-.167 1.814-.256-.302-1.105-1.92-.771-2.086-1.158-1-2.341.716-.78 1.527-1.407 1.802-1.395 2.455.112 3.021-.353 2.206-1.81-.491-.878-.683-4.869-.427-8.869.525-8.174-1.008-13.322-2.264-7.604M9.977 374.75c-.012 13.063-.292 32.637-.62 43.5C8.925 432.52 9.07 438 9.88 438S11 425.948 11 394.5c0-23.925-.225-43.5-.5-43.5s-.51 10.688-.523 23.75" fill="#d3d3d3" fill-rule="evenodd"/></svg>