<svg xmlns="http://www.w3.org/2000/svg" width="500" height="500"><path d="M69.399 82.612c.284 37.338.642 85.438.797 106.888.154 21.45.511-7.575.793-64.5.281-56.925.736-104.175 1.011-105 .926-2.777 2.438-2.969 23.417-2.985 11.504-.008 20.724-.207 20.49-.441-.235-.235-10.911-.747-23.725-1.139l-23.298-.712.515 67.889M149.78 52.25c-1.104 2.142-1.546 4.875-1.298 8.016.208 2.621-.009 4.527-.48 4.235-.472-.292-1.175.469-1.563 1.69-.428 1.35-.26 2.369.428 2.598.623.208 1.101 1.353 1.063 2.544-.066 2.027-.12 2.042-.828.233-.837-2.137-1.499-1.432-2.469 2.631-.632 2.646-.707 2.67-4.042 1.277-3.597-1.503-6.319.46-3.12 2.25.763.427 1.448 1.226 1.524 1.776.075.55.812.861 1.637.691 1.22-.251 1.295.077.4 1.75-.826 1.543-.804 2.059.088 2.059.713 0 .465.801-.62 2-2.843 3.142.618 2.61 3.814-.586 2.053-2.053 2.854-2.336 3.886-1.373 1.053.983.696 1.852-1.883 4.586-3.191 3.382-5.662 4.242-6.817 2.373-.34-.55-1.716-1-3.059-1-2.608 0-3.518 3.216-1.298 4.588.727.45.15 1.227-1.589 2.138-2.89 1.514-2.876 2.257.05 2.686 2.721.4 2.915 2.588.229 2.587-2.617-.001-9.833-6.805-9.833-9.272 0-1.091-.656-1.382-2.25-.997-1.844.444-2.025.301-1-.794.688-.735 1.234-2.033 1.214-2.886-.024-1.027-.866-.537-2.495 1.45-1.869 2.28-2.46 2.58-2.464 1.25-.003-.963-.676-1.75-1.497-1.75-.82 0-2.053-.9-2.74-2-.687-1.1-1.766-2-2.397-2-.632 0-1.086-.758-1.01-1.685.134-1.627-6.121-3.886-7.354-2.657-.279.278-.644 13.969-.812 30.424L100.89 141l13.805.068c15.813.078 27.583-.101 34.856-.532 7.63-.453 8.325.472 8.662 11.536.259 8.501.479 9.439 2.287 9.763 3.645.654 4.285 2.437.699 1.947-3.167-.432-3.289-.326-3 2.634.271 2.773.654 3.096 3.801 3.206 5.616.196 5.731.417 1.25 2.408-4.191 1.862-5.208 3.26-3.25 4.47.55.34 1 1.524 1 2.63 0 1.107.701 2.714 1.558 3.57.856.857 1.32 2.175 1.031 2.929-.289.754-.076 1.371.474 1.371 1.659 0 2.328-3.141.862-4.047-.752-.464-1.053-1.158-.67-1.541.383-.383 1.326-.174 2.096.465 1.104.915 2.061.581 4.524-1.581 3.397-2.98 4.071-4.596 1.509-3.613-1.359.522-1.441.293-.515-1.438 1.499-2.8 11.045-3.551 14.059-1.105 1.951 1.582 1.956 1.657.131 2.134-1.04.272-2.378.007-2.975-.59-.779-.779-1.084-.605-1.084.616 0 .935.47 1.7 1.045 1.7s2.107 1.061 3.404 2.358c2.366 2.366 6.551 4.1 6.551 2.715 0-.911 2.608-1.09 6.218-.427 2.159.396 2.851 1.207 3.364 3.938.354 1.891 1.092 3.714 1.638 4.052.604.373.464.941-.355 1.447-1.074.664-1.095 1.087-.107 2.075.966.966 1.509.975 2.442.042 1.21-1.21 4.8-1.684 4.8-.634 0 .311-.466 1.436-1.035 2.5-.866 1.618-.702 1.934 1 1.934 2.366 0 2.397.112.918 3.357-1.056 2.317-2.039 2.732-9.648 4.072-1.247.219-3.009-.346-3.92-1.256-1.206-1.207-1.766-1.319-2.068-.414-.238.714-2.123 1.241-4.437 1.241-3.166 0-3.901-.32-3.448-1.5.35-.914.001-1.5-.893-1.5-.808 0-1.505.787-1.548 1.75-.047 1.045-.282 1.247-.583.5-.278-.687-1.105-1.25-1.838-1.25-.733 0-1.596-.562-1.917-1.25-.466-1-.7-1-1.166 0-.321.687-1.671 1.25-3 1.25s-2.417.45-2.417 1-.338.947-.75.882c-4.783-.756-13.392.305-12.899 1.589.31.809-.124 2.159-.965 3-1.694 1.694-.712 2.04 4.673 1.641 1.408-.104 3.658.25 5 .786 2.073.828 1.658.985-2.75 1.039-2.855.034-5.499.561-5.875 1.17-.477.771-.944.696-1.544-.25-.632-.999-.863-.782-.875.822-.008 1.198-.69 2.853-1.515 3.678-1.004 1.004-1.5 3.508-1.5 7.572V232h5.531c3.861 0 5.697-.43 6.078-1.423.757-1.972 3.391-2.842 3.391-1.119 0 .767-.787 1.6-1.75 1.849-.963.25 1.175.44 4.75.424 3.575-.017 7.688-.624 9.139-1.349 1.456-.727 4.297-1.107 6.335-.846 4.902.628 4.275-1.622-.854-3.06-3.681-1.033-3.964-2.476-.485-2.476 1.259 0 1.636-.527 1.252-1.75-.524-1.667-.482-1.667.892 0 .793.963 2.404 1.75 3.581 1.75s2.14.45 2.14 1-.422 1-.938 1-.869.911-.785 2.025c.09 1.202.674 1.824 1.438 1.531.722-.277 1.331.259 1.39 1.225.058.946.62.082 1.25-1.918 1.324-4.204 3.645-3.23 3.645 1.53 0 1.086 2.004 1.403 9.082 1.434 6.96.031 8.967-.257 8.592-1.234-.82-2.138.904-3.862 3.15-3.149 1.428.454 1.879 1.187 1.448 2.357-1.037 2.813-2.377 3.168-12.022 3.184-6.717.011-9.254.357-9.265 1.265-.011.863-.243.91-.75.152-.404-.604-3.21-1.141-6.235-1.194-3.934-.069-4.93.153-3.5.778 2.587 1.13 1.812 1.26-9.171 1.534-6.381.16-9.092-.112-8.914-.895.142-.619.051-.737-.2-.262s-.812.289-1.245-.412c-.614-.993-1.17-.894-2.512.448-.948.948-2.901 1.649-4.341 1.556-1.439-.092-4.08-.119-5.867-.061L157 236v20.969c0 18.228.196 20.893 1.5 20.393.825-.317 1.5-1.373 1.5-2.347 0-.973.675-2.33 1.5-3.015s1.484-1.977 1.465-2.872c-.025-1.12-.482-.848-1.465.872l-1.429 2.5-.036-2.679c-.019-1.473.672-3.385 1.536-4.25.865-.864 1.26-1.571.878-1.571s-.134-.675.551-1.5 2.145-1.5 3.245-1.5c1.625 0 1.776.269.808 1.436-.89 1.072-.909 1.964-.076 3.521.613 1.146.867 2.487.563 2.978-.304.492.013 1.163.704 1.491.691.328.244.408-.994.179-1.238-.23-2.25.043-2.25.605 0 .607 1.12.759 2.75.375 5.24-1.235 5.762-1.156 5.422.816-.193 1.116.782 2.855 2.361 4.212l2.69 2.311-3.861-.374c-2.35-.227-4.803.228-6.267 1.162-2.148 1.373-2.342 1.374-1.819.01.323-.839.285-1.827-.082-2.195-.368-.367-.674-1.385-.681-2.261-.007-.877-.639-1.804-1.405-2.06-1.023-.343-1.261.214-.9 2.104.403 2.104-.026 2.786-2.358 3.752-2.203.913-2.888 1.89-3.017 4.309-.569 10.616-.484 13.727.388 14.266.539.333 12.284.8 26.1 1.038s25.321.633 25.566.879c.246.245-6.802.446-15.66.446h-16.106l-.393 3.75-.392 3.75-.168-3.75L177 300h-21v2.714c0 4.04-2.846.86-3.341-3.733-.497-4.604-4.664-5.265-10.392-1.65l-3.877 2.448-1.215-2.746c-.668-1.51-2.176-3.174-3.349-3.698-1.897-.846-1.229-1.423 6.009-5.188 8.208-4.27 10.653-6.711 9.566-9.545-.413-1.076.496-2.062 3.003-3.258 5.906-2.816 3.939-4.45-2.97-2.468-5.245 1.504-9.915-5.342-5.731-8.401.986-.721 1.501-1.604 1.143-1.963-.676-.675-4.042.939-7.12 3.414-1.359 1.094-2.048 1.152-2.95.25-2.171-2.171-8.456-1.405-11.231 1.369-1.4 1.4-2.545 2.769-2.545 3.041 0 .813-4.434 6.885-5.306 7.266-.443.194-1.592 1.196-2.553 2.227-.961 1.031-2.848 1.998-4.194 2.148-2.32.259-2.434.026-2.205-4.477.187-3.653-.102-4.75-1.25-4.75-.925 0-1.492-.95-1.492-2.5 0-1.556.567-2.5 1.5-2.5.825 0 1.5-.45 1.5-1s-.484-1-1.075-1c-.592 0-.994-1.238-.894-2.75.341-5.183.002-6.25-1.988-6.25-1.904 0-1.958.951-2.017 35.577l-.062 35.577 3.268-.27c1.797-.149 3.631-.451 4.074-.671.444-.221 15.964-.471 34.49-.557l33.684-.156.642-3 .641-3 .119 3.304.118 3.304 10.75-.112c19.034-.2 23.25-.018 23.25 1.004 0 .642-9.647 1-26.941 1-14.818 0-27.146.337-27.396.75s-.164 7.725.191 16.25.421 22.25.146 30.5c-.315 9.436-.129 15.273.5 15.735.57.418.273.741-.69.75-1.5.013-1.696 1.535-1.744 13.515l-.055 13.5h24.027l-.596-2.375c-.516-2.055-.184-2.436 2.458-2.824 1.679-.246 3.626-.084 4.327.36.7.445 2.961.815 5.023.824 6.117.025 4.262 2.004-2 2.133-3.162.066-6.312.046-7-.043-.687-.09-1.25.289-1.25.841 0 1.217 11.423 1.691 30.857 1.281 13.837-.291 14.298-.369 12.703-2.131-1.494-1.65-1.504-1.979-.107-3.376.851-.851 1.547-2.254 1.547-3.119 0-2.209.907-1.963 3.64.985 1.303 1.406 2.779 2.303 3.281 1.993.501-.31 2.017-.143 3.368.371 1.57.597 2.816.575 3.451-.06.659-.659 1.182-.505 1.551.457.63 1.641-5.26 3.027-8.861 2.085-1.239-.324-2.608.107-3.411 1.076-1.233 1.484.528 1.551 21.569.821 22.057-.765 34.525-.834 65.131-.362 7.82.121 14.57.016 15-.233.429-.249 3.144-.14 6.031.242 4.229.56 5.25.415 5.25-.748 0-1.066.338-1.163 1.292-.371 1.186.985 12.697 1.37 36.516 1.224l8.308-.051-.576-29.57c-.388-19.948-.245-29.365.442-28.941.636.393.981-.99.918-3.68-.085-3.668-.221-3.937-.916-1.809-.526 1.609-.804-1.241-.782-8 .02-5.775-.018-10.787-.083-11.137-.066-.351-6.306.689-13.869 2.311-7.562 1.621-17.389 3.524-21.836 4.227-4.448.703-8.592 1.591-9.21 1.973-.617.381-1.928.25-2.913-.292-6.733-3.705-19.32-5.462-20.893-2.916-.312.503-1.428.642-2.482.307-1.071-.34-1.916-.137-1.916.46 0 1.524-1.892 1.317-3.605-.395-1.282-1.282-1.886-1.251-4.92.25l-3.459 1.712.074 14.478c.041 7.963.361 14.938.713 15.5 1.111 1.776 1.206 4.398.183 5.031-1.988 1.228-1.173 11.893 1.014 13.259 1.186.74 2 .838 2 .24 0-1.31 8.691-1.318 9.5-.008.34.55-.196 1.036-1.191 1.079-1.049.046-1.284.291-.559.583 2.039.823 1.424 2.003-1 1.917-1.238-.043-2.556-.754-2.93-1.579-.466-1.029-.699-.714-.743 1-.035 1.375.83 3.85 1.923 5.5 2.626 3.965 2.516 5.5-.393 5.5-1.316 0-2.663.704-2.993 1.563-1.014 2.643-2.274.745-2.448-3.686-.206-5.253-1.166-6.524-1.166-1.544 0 2.017-.421 3.667-.937 3.667-.515 0-1.118 1.462-1.34 3.25-.221 1.787-.475-6.748-.563-18.969-.178-24.78-.033-24.393-6.797-18.049-3.619 3.393-5.871 2.029-2.568-1.556 1.103-1.197 2.189-3.076 2.415-4.176.225-1.1.991-1.872 1.703-1.715 1.87.411 5.087-.761 5.087-1.852 0-.513-.761-.933-1.691-.933-1.513 0-1.497-.142.153-1.348 1.769-1.294 1.435-3.652-.518-3.652-1.509 0-8.944 7.107-8.944 8.548 0 .724-1.349 2.276-2.998 3.45-3.743 2.666-4.415 5.386-2.593 10.502.821 2.307 1.025 4.145.483 4.342-.518.188-1.583 1.875-2.366 3.75-2.213 5.298-3.871 4.354-3.233-1.842.297-2.887.855-6.262 1.24-7.5 1.115-3.585-2.977-3.007-4.484.633-.657 1.585-2.527 4.159-4.155 5.719-2.691 2.578-3.164 2.71-5.178 1.447-4.406-2.762-13.639-7.049-15.183-7.049-1.419 0-1.411.256.076 2.526 1.211 1.848 2.222 2.367 3.773 1.934 1.757-.49 1.862-.393.618.569-1.291.998-1.261 1.083.218.609.945-.303 1.95-.175 2.234.284.284.459 2.098 1.586 4.032 2.503 4.074 1.934 4.578 3.575 1.098 3.575-3.452 0-5.582.995-5.582 2.607 0 2.02-.728 1.749-4.304-1.602-1.758-1.648-3.71-2.998-4.339-3-.629-.003-1.402-.68-1.719-1.505-.846-2.206-2.638-1.826-2.638.559 0 1.132-.45 1.781-1 1.441-.55-.34-1-2.841-1-5.559 0-3.278-.421-4.946-1.25-4.956-.905-.011-.87-.256.128-.889.758-.48 1.072-1.368.697-1.974-.66-1.068-3.609.647-3.229 1.878.085.275-.218.583-.672.684-.454.102-1.64 1.123-2.635 2.271-1.899 2.19-3.169 1.131-3.442-2.869-.151-2.208-2.597-2.513-2.597-.324 0 1.06-.9 2.743-2 3.738-1.1.995-2 1.46-2 1.033 0-.428-.675-.218-1.5.467-1.224 1.016-1.5.959-1.5-.31 0-.855.899-1.841 1.998-2.189 1.098-.349 2.272-1.729 2.608-3.068.336-1.338 1.237-2.433 2.002-2.433.766 0 1.279-.536 1.142-1.191-.138-.654.65-1.354 1.75-1.553 1.644-.299 1.733-.179.5.675-1.292.894-1.257 1.041.25 1.054.963.008 1.75.404 1.75.878 0 1.802 3.905.531 5.808-1.889 2.091-2.662 2.838-12.02.796-9.978-.552.552-1.364 1.004-1.804 1.004-1.467 0-.824-1.999 1.2-3.732 1.834-1.57 2.001-2.961 2.015-16.74.009-8.829.372-14.466.879-13.665.536.846 1.005.957 1.235.294.204-.588 2.09-1.183 4.191-1.322s3.99-.528 4.197-.863c.208-.335 2.753-.718 5.657-.851 2.903-.132 5.419-.38 5.59-.552.824-.823-2.261-5.497-4.374-6.628-3.015-1.613-3.015-3.005-.001-5.837 4.438-4.169 3.876-10.704-1.263-14.691-2.469-1.916-.93-3.524 1.874-1.957 3.15 1.761 7.693 3.935 11.25 5.382 1.537.626 2.753 1.9 2.758 2.891.007 1.697 4.014 4.271 6.649 4.271.851 0 1.219 1.536 1.136 4.75-.131 5.105 3.222 12.25 5.749 12.25 2.032 0 4.458-4.062 4.462-7.473.002-1.665.902-4.5 2-6.301 1.098-1.801 1.996-3.938 1.996-4.75 0-.908.963-1.476 2.5-1.476 2.471 0 2.5-.1 2.5-8.5 0-6.889-.284-8.5-1.5-8.5-.825 0-1.5.477-1.5 1.059s.45.781 1 .441c1.457-.9 1.225 1.13-.306 2.679-.718.726-1.608 2.119-1.977 3.094-.37.975-1.469 2.066-2.444 2.424-.975.359-2.133 1.249-2.573 1.978-1.161 1.925-6.577 4.519-7.825 3.747-.611-.377-.812-1.997-.471-3.79.936-4.91 1.048-9.011.302-10.957-.807-2.103 1.573-8.279 4.316-11.198 2.9-3.087 3.019-6.893.228-7.293-1.366-.196-2.211-.983-2.15-2.004.138-2.323 1.678-6.968 1.8-5.43.055.688.536 1.25 1.069 1.25.532 0 .731-.619.44-1.377-.335-.873.408-1.611 2.031-2.019 1.408-.353 2.56-1.098 2.56-1.654 0-1.63-2.676-2.194-4.861-1.024-1.334.714-2.228.74-2.637.077-1.128-1.825-2.244-1.044-2.852 1.997-.33 1.65-1.061 3-1.625 3-.564 0-1.025-1.35-1.025-3s.45-3 1-3 1-.708 1-1.573c0-2.277-3.229-1.353-4.552 1.302-1.607 3.224-5.882 6.271-8.797 6.271-1.393 0-2.811.45-3.151 1-1.092 1.767-2.069 1.08-3.299-2.321-1.609-4.449-1.577-4.585 1.299-5.679 1.39-.529 2.5-1.75 2.5-2.753 0-.991.747-2.868 1.66-4.171 1.559-2.227 1.548-2.451-.192-3.723-2.652-1.939-3.022-1.79-6.588 2.647-2.737 3.405-3.782 4-7.028 4-4.256 0-6.257 3.521-4.029 7.089 1.959 3.137-1.147 10.24-4.908 11.223-1.982.518-2.017.142-1.851-19.518l.17-20.047-10.367-.056c-8.77-.046-9.173-.11-2.617-.413 6.908-.32 7.75-.572 7.75-2.318 0-1.078.498-1.96 1.107-1.96s.869-.62.578-1.378c-.291-.758-.075-1.832.48-2.387.679-.679.653-1.229-.078-1.681-1.646-1.018-1.327-3.583.366-2.934.968.372 1.572 2.447 1.811 6.219l.358 5.661.189-6.167c.104-3.391-.26-6.316-.809-6.5-.548-.183-1.074-2.289-1.167-4.679-.094-2.391-.824-5-1.622-5.798-.798-.798-1.148-1.754-.778-2.125.371-.37 1.092-.011 1.604.798.694 1.097.931.709.932-1.529.003-5.106-1.021-7.704-2.538-6.444-2.165 1.796-5.99.769-5.594-1.502.291-1.674.117-1.762-1.25-.628-.874.725-1.589.984-1.589.574 0-.41-.724-.144-1.608.59-1.362 1.13-1.806 1.064-2.899-.431-.846-1.156-1.427-1.356-1.686-.58-.449 1.346-5.6-.92-7.618-3.351-.925-1.115-.704-1.625 1.073-2.48 3.133-1.508 10.954-3.233 11.928-2.631.445.276.81-.163.81-.975 0-.811-.53-1.652-1.177-1.868-1.523-.507-.136-2.774 1.699-2.774.772 0 3.21 1.879 5.417 4.177l4.013 4.176-.138-3.676c-.076-2.023-.628-3.691-1.226-3.707-.598-.017-.301-.489.662-1.05 3.217-1.874 1.879-8.349-1.736-8.405-.543-.008-1.149-.915-1.347-2.015-.549-3.04-2.088-4.241-3.193-2.492-.725 1.147-.947.855-.959-1.258-.015-2.737-1.337-3.656-2.515-1.75-.34.55-.141 1 .441 1s1.059.6 1.059 1.333c0 1.362-1.738 1.403-5.771.136-1.698-.533-2.005-1.034-1.215-1.986.581-.7.928-1.845.771-2.545-.157-.7 1.178-1.713 2.965-2.25 3.609-1.085 3.97-1.846 1.75-3.688-1.225-1.016-1.5-.958-1.5.319 0 .859-.521 1.885-1.158 2.278-.793.491-.98.037-.593-1.441.31-1.186.268-2.189-.093-2.23-.361-.041-1.749-.276-3.084-.521-1.336-.246-2.721.028-3.08.608-.886 1.433-3.992.127-3.992-1.679 0-.799-.45-1.174-1-.834-.55.34-1.007.029-1.015-.691-.011-.904-.243-.964-.75-.194-1.071 1.626-4.964 2.632-5.683 1.469-.339-.548-1.277-.743-2.084-.433-2.023.776-1.845-.884.291-2.713.968-.828 2.705-2.804 3.86-4.39 2.202-3.023 8.4-3.929 10.757-1.572.563.563 1.834 1.024 2.824 1.024.99 0 1.8.502 1.8 1.117 0 .624-.882.886-2 .593-1.1-.287-2-.115-2 .384 0 .498 1.125.906 2.5.906 1.598 0 2.5-.563 2.5-1.559 0-.857.45-1.281 1-.941.55.34 1.014.029 1.032-.691.02-.842.526-.657 1.418.52 1.111 1.467 1.788 1.614 3.415.743 1.627-.871 2.23-.738 3.051.671.563.967 1.037 1.245 1.054.618.016-.626.817-1.076 1.78-1 1.36.108 1.75-.641 1.75-3.361 0-3.42-.095-3.502-4.136-3.599-2.275-.055-4.862-.378-5.75-.719-.888-.341-1.614-.188-1.614.338 0 .527-1.125.864-2.5.751-1.375-.114-2.507-.672-2.515-1.239-.01-.661-.28-.641-.75.055-.404.598-2.198 1.119-3.985 1.159-1.787.04-3.363.154-3.5.255-1.253.914-6.75.888-6.75-.033 0-.776-1.258-.931-3.913-.483-3.273.553-3.989.364-4.384-1.162-.428-1.656-.482-1.663-.587-.073-.135 2.039-10.711 2.572-14.182.715-1.115-.597-1.934-.642-1.934-.106 0 .511-1.13.865-2.51.785-1.559-.089-2.329-.618-2.032-1.394.264-.687.043-1.25-.489-1.25-.533 0-.969.6-.969 1.333 0 .734-.694 1.334-1.543 1.334s-1.325-.568-1.059-1.262c.571-1.489-15.738-2.489-18.648-1.144-1.258.582-1.75.378-1.75-.726 0-.844.338-1.482.75-1.417.412.066 4.912.066 10 0 9.145-.117 9.25-.146 9.25-2.595 0-2.416-.14-2.462-5.75-1.891-10.509 1.07-10.725 1.045-11.058-1.296-.443-3.106 7.643-4.41 11.719-1.891.607.375 1.377-.033 1.713-.907.471-1.229.923-1.329 1.993-.441.881.731 1.383.772 1.383.113 0-.589 1.294-.832 3-.563 1.727.272 3 .028 3-.576 0-.577 1.012-.993 2.25-.924 1.238.068 2.971-.185 3.852-.562 1.087-.465 2.139.134 3.273 1.865.919 1.402 2.561 2.55 3.648 2.55 1.128 0 1.977.673 1.977 1.567 0 1.177-.56 1.384-2.25.831-1.238-.405-5.175-.773-8.75-.817-3.575-.045-7.094-.465-7.821-.934-1.02-.658-1.248-.088-1 2.5l.321 3.353 10.25.121 10.25.121.16-13.621c.088-7.492.345-12.046.571-10.121.227 1.925.83 3.927 1.34 4.45 1.235 1.263 1.188 5.272-.071 6.05-1.841 1.138-1.132 4.386.923 4.231 1.761-.133 3.807-4.731 2.105-4.731-.381 0-.581-1.012-.444-2.25.137-1.237.287-4.162.333-6.5.082-4.175.145-4.25 3.583-4.25 1.925 0 3.5.374 3.5.831 0 .457 1.125 1.433 2.5 2.169s2.464 2.049 2.421 2.919c-.052 1.033-.254 1.147-.583.331-.278-.687-1.169-1.25-1.98-1.25-.812 0-1.198.45-.858 1 .34.55-.087 1-.949 1-1.307 0-1.364.326-.344 1.96 1.132 1.813 1.358 1.839 3.009.345 1.67-1.511 1.784-1.445 1.784 1.04 0 2.804-3.406 3.938-4.247 1.414-.308-.925-.775-.855-1.833.274-1.766 1.884-2.249 3.967-.92 3.967.55 0 1.007-.787 1.015-1.75.013-1.432.18-1.49.92-.32.498.786 1.675 1.542 2.616 1.68.941.138 2.14.681 2.664 1.205 1.321 1.321 4.785.261 4.785-1.463 0-.778-.675-1.674-1.5-1.99-.983-.378-1.5-1.938-1.5-4.528 0-4.112 1.863-4.564 2.163-.525.09 1.205.466-.284.837-3.309l.674-5.5.226 7c.124 3.85.31 9.922.413 13.493l.187 6.492 10.226.304 10.225.304-.225-35.263-.226-35.263-4.793.295c-4.414.271-5.062.001-8.176-3.397-2.042-2.23-3.149-4.297-2.795-5.219.508-1.325.753-1.298 1.851.204.983 1.344 1.674 1.494 3.09.671 1.69-.983 1.696-1.062.073-1.091-.963-.016-1.75-.532-1.75-1.147 0-.705 1.012-.882 2.75-.48 1.512.35 4.438.912 6.5 1.249l3.75.611v-4.026c0-4.006-.022-4.029-4.25-4.442-2.338-.228-5.999-.1-8.137.286-2.138.385-5.288.292-7-.208-1.712-.5-17.169-.842-34.349-.76l-31.236.15-.279 31.118-.279 31.119-.235-31.75L157 49h-2.773c-2.117 0-3.168.768-4.447 3.25m200.901 1.885c-4.301.349-16.658.931-27.46 1.293-10.801.361-19.787.805-19.968.985-.284.285-.387 25.634-.282 69.337L303 138l2.75.09 2.75.09-3 .872-3 .871.07 9.789.069 9.788-.357-8.75-.357-8.75h-27.028c-16.719 0-27.766-.395-28.963-1.035-1.536-.822-1.934-.707-1.934.559 0 .877.393 1.351.873 1.054.48-.296.883 3.84.896 9.191.016 6.827-.205 8.686-.742 6.231-.7-3.209-.773-3.042-.88 2-.082 3.883.169 5.059.853 4 .645-.997.907 3.693.782 14l-.187 15.5L245 181c-.49-10.311-.597-8.647-.608 9.5-.009 14.616.195 18.979.608 13 .513-7.416.667-8.032.879-3.5.21 4.507.444 5.139 1.294 3.5.571-1.1 4.693-3.808 9.161-6.017 4.468-2.209 8.589-4.909 9.157-6 4.524-8.683 7.781-10.748 11.176-7.086 1.328 1.432 3.071 2.603 3.873 2.603.803 0 1.46.627 1.46 1.393 0 1.795 2.733 2.869 3.31 1.301.282-.768 1.252-.346 2.717 1.179l2.279 2.372 1.92-2.372 1.919-2.373-.595 3.628c-.504 3.072-.285 3.708 1.429 4.156 2.312.605 2.352 5.408.068 8.159-.711.857-.922 1.557-.469 1.557.452 0 .282.54-.378 1.2-1.883 1.883-1.422 4.643 1.394 8.334 3.309 4.339 2.769 5.817-2.155 5.9-3.09.052-4.152.551-4.926 2.316-1.728 3.938-3.131 3.004-1.587-1.055.776-2.041.546-2.64-1.416-3.689-2.456-1.315-3.474-3.7-3.496-8.199-.021-4.072-3.635-6.286-6.836-4.188-1.957 1.282-2.85 1.359-4.638.402-4.241-2.269-7.976-.966-8.54 2.979-.381 2.667-.976 3.5-2.5 3.5-3.537 0-4.535 1.393-4.163 5.814.394 4.679 1.455 7.686 2.713 7.686.459 0 .653-.948.429-2.107-.341-1.772-.054-2 1.808-1.435 1.921.584 4.621.991 9.463 1.429 1.681.152 1.528 3.161-.282 5.554-.807 1.068-1.468 2.193-1.467 2.5 0 .308 6.75.529 15 .493 8.249-.036 14.999.243 14.999.62s1.012.632 2.25.566c1.93-.103 2.224.342 2.07 3.13-.116 2.088.283 3.25 1.115 3.25.975 0 1.109 1.027.539 4.144-.417 2.28-.829 17.697-.916 34.262-.086 16.564-.346 31.462-.576 33.105-.231 1.644-.61 5.914-.842 9.489l-.422 6.5 43.641.241 43.641.241.5-3.241c.275-1.782.242-9.316-.074-16.741-.498-11.705-.217-68.89.366-74.5.183-1.762-.475-2.036-5.542-2.3-5.258-.274-5.75-.498-5.75-2.615 0-5.283 6.601-9.584 9.8-6.385 1.281 1.281 1.449.001 1.696-12.919.114-5.998.016-6.256-2.764-7.225-1.699-.592-2.602-1.457-2.201-2.107.375-.606-.266-1.985-1.425-3.065-1.158-1.079-2.106-2.421-2.106-2.982 0-.561-.45-.742-1-.402-.55.34-1-.114-1-1.008 0-1.816-3.887-1.153-5.235.893-.406.617-.741-.114-.75-1.635-.03-5.409-8.075-2.921-20.015 6.189-5.779 4.41-7.031 4.95-11.286 4.879-4.386-.074-4.661-.219-3.29-1.734 1.339-1.479 1.28-1.787-.556-2.934-2.23-1.393-5.272 1.036-4.403 3.517.666 1.902-8.186 1.466-10.171-.5-1.57-1.556-1.638-1.551-1.019.083.737 1.947-.858 2.312-3.275.75-1.282-.828-1.246-.972.25-.985.962-.008 1.75-.517 1.75-1.132 0-.624.882-.886 2-.593 1.1.287 2 .115 2-.384 0-.498.477-.906 1.059-.906s.781.45.441 1 .132 1 1.048 1c1.002 0 1.456-.548 1.139-1.374-.532-1.386 1.736-2.915 6.188-4.17 1.485-.419 2.143-.295 1.756.332-.587.95 1.279 2.188 4.196 2.786.73.149 2.193-.594 3.25-1.651 1.058-1.058 1.446-1.923.864-1.923s-.781-.45-.441-1c.349-.565-.47-1-1.882-1-1.375 0-2.778.45-3.118 1-.34.55-1.068 1-1.618 1s-.722-.45-.382-1c.34-.55.172-1-.374-1-.545 0-1.27-.877-1.61-1.949-.417-1.315-1.171-1.748-2.317-1.33-1.564.569-1.56.46.051-1.38.962-1.099 1.757-2.638 1.765-3.42.013-1.161.171-1.177.862-.086.466.735 1.134 1.297 1.485 1.25 1.834-.245 1.96.079.388.995-2.371 1.381-2.2 2.394.619 3.678 1.932.88 2.978.679 5.669-1.089 1.816-1.193 4.096-2.646 5.068-3.229.971-.584 2.719-2.159 3.883-3.5l2.117-2.44-.685 2.5c-.377 1.375-1.093 2.656-1.59 2.846-2.466.942-6.409 5.206-6.551 7.083l-.159 2.121 2.778-1.978c1.528-1.088 3.356-2.675 4.062-3.525.706-.851 1.717-1.547 2.246-1.547 1.049 0-6.984 9.49-8.053 9.515-1.202.028-3.154 1.592-3.154 2.527 0 .508 1.462.094 3.25-.92 9.479-5.377 14.387-8.728 14.092-9.622-.188-.57 2.121-1.109 5.367-1.253 6.914-.307 7.92-1.129 5.981-4.882-3.039-5.879-2.645-7.865 1.56-7.865 2.062 0 3.75.338 3.75.75s-.9.75-2 .75c-2.333 0-2.655 2.488-.589 4.554.776.776 1.212 2.206.969 3.178-.565 2.26 5.58 6.557 8.719 6.097 2.678-.393 3.823-2.829 1.329-2.829-1.62 0-1.626-.124-.083-1.829 2.266-2.503 2.491-26.171.249-26.171-.914 0-1.224-.7-.884-2 .288-1.1.921-2 1.407-2 .485 0 .883-1.575.883-3.5s-.466-3.5-1.035-3.5c-.689 0-.663-.695.077-2.078.612-1.143.866-2.718.566-3.5-.3-.782-.109-1.422.423-1.422.533 0 .969-.702.969-1.559s-.45-1.281-1-.941c-.55.34-1 .141-1-.441s.461-1.059 1.023-1.059c.894 0 .598-42.036-.397-56.5-.151-2.2-.354-9.503-.451-16.229L387 53.041l-14.25.23c-7.837.126-17.769.515-22.069.864M332.88 206.504c-4.1 2.228-3.187 11.496 1.132 11.496 3.372 0 6.984-2.242 7.103-4.411.438-7.953-2.301-10.31-8.235-7.085M100.924 236.25c-.211 3.473.281 15.289.652 15.659.235.235 2.901.632 5.925.883 4.505.373 5.499.174 5.499-1.101 0-.856.933-1.852 2.072-2.214 1.447-.459 1.866-1.159 1.389-2.317-1.188-2.887-1.009-4.67.438-4.36.77.165 2.12-.022 3-.414 2.41-1.074 3.479-1.099 4.803-.115 1.716 1.276 5.09-.039 5.794-2.259.329-1.037 1.555-2.026 2.723-2.199 1.168-.172 2.31-.875 2.536-1.563.319-.968-3.552-1.25-17.172-1.25-13.359 0-17.601.3-17.659 1.25m141.997 16c-.043 9.488-.297 16.713-.565 16.056-.634-1.558-3.356-.503-3.356 1.301 0 .988-.581.812-2-.607-1.1-1.1-3.012-2.006-4.25-2.014-1.238-.007-3.323-.3-4.634-.651-1.783-.478-2.261-.285-1.896.763.268.771 1.232 1.269 2.141 1.106.91-.162 2.438.162 3.396.72 1.462.852 1.259 1.023-1.257 1.061-2.195.033-2.615.289-1.564.954 1.229.778 1.235 1.15.044 2.586-1.801 2.169-2.12 4.448-.642 4.575.639.055.042.411-1.328.792-2.974.828-7.203-.88-6.542-2.642.258-.687-.192-1.25-.999-1.25-.808 0-1.469.403-1.469.895 0 .879-3.142.318-9.75-1.742-1.787-.557-3.25-.734-3.25-.392 0 .342-.579-.171-1.287-1.138-1.179-1.613-1.64-1.638-5.5-.309-2.317.799-4.213 1.055-4.213.569s-.675-.883-1.5-.883-1.5.45-1.5 1 .787 1.007 1.75 1.015c1.496.013 1.532.157.25.985-.825.533-1.05 1.005-.5 1.048.55.043-.125.552-1.5 1.129-1.477.621-1.988 1.243-1.25 1.52.688.258 1.25.886 1.25 1.395s-.863.386-1.919-.273c-1.509-.943-2.254-.921-3.489.104-1.915 1.59-1.149 3.228 1.104 2.363 1.147-.44 1.4-.25.851.638-.43.695-1.831 1.064-3.114.818-1.917-.366-3.433.798-3.433 2.636 0 .69 4.907-.204 7.14-1.301 3.041-1.495 5.448-5.714 3.609-6.327-.65-.217-.389-.674.603-1.055 1.132-.434 1.515-.288 1.082.413-.414.668.046.942 1.198.713 1.321-.262 1.769-1.063 1.531-2.736-.278-1.959-.021-2.233 1.5-1.595 1.011.424 3.258.7 4.995.615 2.339-.115 3.7.534 5.25 2.505 1.15 1.463 2.092 2.177 2.092 1.587 0-.59.869-1.007 1.931-.927 1.062.08 1.71.502 1.441.938-.27.435.013.792.628.792s.84.45.5 1c-.878 1.421.859 1.241 2.342-.242.988-.988 1.413-.964 2.083.12.678 1.098 1.034 1.017 1.837-.418.937-1.674 1.061-1.659 2.082.249.597 1.115.801 2.312.454 2.66-.347.347-.106.687.535.756.642.069 1.633.181 2.203.25.571.069 1.414.736 1.875 1.482.706 1.142.973 1.142 1.686 0 1.143-1.831 1.395-3.857.481-3.857-.409 0-.745-.578-.745-1.284 0-.876 1.393-1.228 4.391-1.109 4.843.193 6.452 1.005 3.919 1.976-.904.347-1.643 1.019-1.643 1.493 0 .473.676.602 1.502.285 1.576-.605 5.682 3.533 4.847 4.884-.257.415-1.565.755-2.908.755-2.94 0-3.24 1.558-.441 2.29 1.1.287 2 .115 2-.384 0-.498.45-.906 1-.906s1 1.8 1 4 .45 4 1 4 .964.788.921 1.75c-.047 1.045-.282 1.247-.583.5-.278-.687-1.169-1.25-1.98-1.25-.933 0-1.187.46-.691 1.25.431.688.843 3.725.915 6.75.071 3.025.195 8.555.274 12.289.122 5.766.355 6.595 1.545 5.5.771-.709.996-1.439.5-1.622-.495-.184-.865-1.759-.822-3.5.043-1.742.306-2.604.583-1.917 1.395 3.456 4.098 1.115 5.772-5 3.183-11.631 3.127-12.767-.861-17.409-3.342-3.89-3.584-4.633-3.741-11.5l-.168-7.341-.664 6-.664 6-.168-5.2c-.122-3.782-.643-5.466-1.91-6.175-.958-.536-1.383-1.333-.945-1.771.438-.438 1.214-.134 1.726.675.591.934.936-6.28.946-19.779.008-11.687-.21-21.25-.485-21.25s-.536 7.762-.579 17.25m31.351 20.031c-1.225.553-2.477 1.791-2.782 2.752-.655 2.062-4.604 3.042-6.955 1.726-2.116-1.183-4.535-.272-4.535 1.71 0 .842.337 1.478.75 1.413 2.63-.416 3.654.235 1.939 1.232-.996.579-2.458.805-3.25.501-.791-.304-1.439-.171-1.439.294 0 1.891 2.826 2.973 6.813 2.608 2.396-.219 3.98.009 3.659.528-.831 1.345 1.299 4.824 2.767 4.519.693-.144 2.049-.555 3.011-.913a61.52 61.52 0 013.033-1.036c.741-.223 1.354-2.161 1.45-4.588.093-2.312.695-4.838 1.34-5.615.842-1.015.856-1.412.049-1.412-.617 0-1.122-.852-1.122-1.893 0-2.397-1.865-3.118-4.728-1.826M70.172 397c-.16 27.225-.489 57.038-.73 66.25-.34 12.959-.157 16.75.809 16.75 1.228.001 1.364-31.035.478-109-.147-12.925-.398-1.225-.557 26m31.812-44.785c-.008.707-.243 15.058-.52 31.893-.278 16.834-.136 31.603.314 32.821.783 2.115 1.35 2.214 12.77 2.22l11.952.005.314-3.63c.217-2.517-.473-4.974-2.25-8.006-1.41-2.406-2.564-5.152-2.564-6.102 0-.95-1.19-3.287-2.644-5.194-4.082-5.352-7.358-12.052-6.714-13.731.32-.834.055-2.152-.59-2.928-1.278-1.54-.506-8.162 1.203-10.315 1.638-2.064-.04-7.28-3.829-11.903-3.989-4.869-7.416-7.231-7.442-5.13m92.958.215c.95 1.145.769 1.654-.905 2.55-1.151.616-1.885 1.458-1.63 1.87.255.412-.407 1.294-1.472 1.958-1.283.802-1.935.849-1.935.141 0-.587-.457-.784-1.016-.439-.559.346-.758 1.047-.441 1.559.316.512-.303.931-1.377.931-2.028 0-3.166 1.814-3.166 5.047 0 1.035-.9 2.364-2 2.953s-1.993 2.067-1.985 3.285c.012 1.624.245 1.853.875.858.6-.946 1.067-1.021 1.544-.25 1.229 1.988 2.3 1.164 1.811-1.393-.356-1.862-.051-2.5 1.197-2.5.922 0 1.398.45 1.058 1-.34.55-.13 1 .466 1 .596 0 1.511-1.125 2.034-2.5.523-1.375 1.432-2.5 2.021-2.5 1.373 0 6.559-5.172 6.229-6.212-.137-.433.102-.788.532-.788.43 0 .88-1.191 1.001-2.646.225-2.724-1.262-5.354-3.028-5.354-.579 0-.501.601.187 1.43M196 394c0 2.463 1.685 2.646 2.311.25.251-.962.509 1.512.573 5.5.065 4.089.552 7.25 1.116 7.25.55 0 1.007-.788 1.015-1.75.014-1.513.162-1.547 1.095-.25.916 1.274.996 1.241.528-.218-.803-2.504.777-3.017 5.435-1.762 2.847.766 5.016.796 7.023.096 1.784-.622 2.904-.647 2.904-.064 0 1.805 1.769.939 2.31-1.131.362-1.382.135-1.922-.675-1.611-.67.257-2.031-.127-3.024-.853-.993-.726-2.51-1.049-3.372-.718-1.029.395-1.321.202-.849-.561 1.159-1.876-.664-4.251-2.404-3.133-1.314.844-1.313 1.066.006 1.913 2.395 1.539-.438 3.54-4.515 3.188-2.002-.172-3.477.158-3.477.777 0 .593-.45 1.077-1 1.077s-1-1.996-1-4.437c0-4.256.132-4.453 3.25-4.84 2.228-.276 1.598-.453-2-.563-4.637-.141-5.25.074-5.25 1.84" fill="#d3d3d3" fill-rule="evenodd"/></svg>