<svg xmlns="http://www.w3.org/2000/svg" width="500" height="889"><path d="M471.447.915c.311.503 0 1.121-.691 1.375-1.005.368-1.006.725-.006 1.785.831.881 1.25.942 1.25.182 0-.628.9-.969 2-.757 1.254.241 2-.153 2-1.057 0-.794.788-1.407 1.75-1.364 1.045.047 1.247.282.5.583-.687.278-1.25 1.142-1.25 1.921 0 1.617 2.569 1.923 3.5.417.34-.55 1.097-1 1.681-1 .671 0 .604.554-.181 1.5-.785.946-.852 1.5-.181 1.5.584 0 1.315-.408 1.623-.906.667-1.079 4.558-.233 4.558.991 0 .469-.675.593-1.5.277-.825-.317-1.5-.153-1.5.364 0 1.781 1.319 2.254 2.831 1.015 1.28-1.047 1.434-.925.994.789-.287 1.116.037 2.551.72 3.189 1.494 1.396 2.527.632 1.779-1.317-.296-.771-.04-1.402.569-1.402S493 9.675 493 10.5c0 .855.968 1.55 2.25 1.616 1.693.087 1.817.229.5.573-.962.252-1.75.875-1.75 1.384 0 1.172 1.084 1.159 2.974-.036.971-.614 1.732-.524 2.234.266.479.753.767.362.777-1.053.008-1.238-.395-2.25-.897-2.25-1.016 0-.864-2.557.216-3.638 1.144-1.143.788-4.158-.554-4.7-1-.403-1-.52 0-.583.688-.043 1.25-.503 1.25-1.021 0-1.491-24.233-1.291-25.185.207-.62.976-.788.973-.8-.015-.008-.687-.717-1.25-1.574-1.25-.857 0-1.305.412-.994.915M322.079 347.359c-.082 1.931-.795 1.939-9.586.111-2.235-.465-3.622-.093-5.401 1.45-1.844 1.6-2.707 1.814-3.765.937-3.123-2.592-8.462-1.881-12.847 1.713-2.302 1.886-4.651 3.43-5.219 3.43-.568 0-2.321.672-3.897 1.494-3.677 1.918-6.757 1.973-6.042.109 1.07-2.787-7.238-2.267-14.736.923-1.356.577-1.703.473-1.191-.356.398-.644.284-1.17-.253-1.17-.536 0-1.133.474-1.327 1.054-.193.579-2.996 1.268-6.229 1.531-6.457.525-8.464 1.254-6.608 2.401.797.493.502.917-.893 1.282-1.147.299-2.085.137-2.085-.362 0-.498-1.8-.906-4-.906-3.88 0-4.975 1.416-2.5 3.235.61.448.488.74-.313.75-1.985.023-14.343-6.141-16.363-8.161-2.499-2.499-6.172-3.202-12.158-2.328-2.841.415-7.191.829-9.666.92-5.44.2-9.236 1.392-8.456 2.656.323.522-1.569.928-4.33.928-3.483 0-5.384.53-6.561 1.831-1.884 2.082-1.273 3.176 1.764 3.154 1.711-.013 1.815-.189.583-.985-2.482-1.604.45-1.121 4.027.663 1.833.915 4.715 1.994 6.403 2.398 2.851.682 2.759.742-1.302.837-3.973.093-4.247.256-3 1.789 1.187 1.46 1.158 1.607-.219 1.093-2.173-.813-3.044-.009-5.662 5.22-3.382 6.756-3.054 7.29 3.003 4.892 9.781-3.874 20.5-1.42 20.5 4.692 0 3.542.192 3.598 8.097 2.372 5.364-.832 8.541-.808 12.886.097 8.297 1.729 27.443.493 32.882-2.122 11.053-5.315 22.737-5.333 42.866-.066 6.59 1.724 12.778 3.135 13.75 3.135 2.314 0 2.362-4.165.09-7.633-1.404-2.142-1.47-2.899-.401-4.61 1.101-1.763 1.059-1.963-.306-1.439-.972.373-1.968-.11-2.578-1.25-1.556-2.908.561-4.087 18.714-10.423 3.894-1.359 4.132-2.386.75-3.234-5.263-1.321-1.531-3.469 4.812-2.77 1.953.215 3.833-.066 4.178-.625.372-.602-.595-1.016-2.372-1.016-1.65 0-3.278-.45-3.618-1-.34-.55-1.941-1-3.559-1-2.77 0-3.401-.784-3.016-3.75.09-.687-.72-1.25-1.798-1.25s-2.187-.562-2.465-1.25c-.285-.708-.538-.443-.583.609m15.332 62.891c.488 4.21.332 4.75-1.371 4.75-1.057 0-2.2-.45-2.54-1-1.019-1.649-4.069-1.134-6.014 1.015-1.003 1.108-3.179 2.367-4.837 2.796-3.294.854-4.844 3.189-2.116 3.189 1.198 0 1.548.581 1.186 1.965-.701 2.683 2.396 3.544 6.016 1.672 1.559-.806 4.475-1.773 6.48-2.15 4.047-.759 4.445-1.373 5.324-8.225.463-3.616.214-5.243-1.034-6.762-1.565-1.903-1.619-1.77-1.094 2.75m23.714 20.625c-1.031 1.031-2.494 2.121-3.25 2.421-.964.383-1.002.57-.125.625 1.746.11 1.573 2.079-.183 2.079-.788 0-1.731.941-2.096 2.091-.505 1.592-1.178 1.933-2.817 1.428-1.185-.365-2.697-.706-3.361-.758-.664-.052-1.434-.687-1.712-1.411s-1.152-1.068-1.942-.765c-.79.303-1.734.071-2.097-.517-.363-.587-1.421-1.061-2.351-1.053-1.336.012-1.405.197-.328.879 1.151.729 1.151.945 0 1.384-.837.319-.138.972 1.813 1.693 2.66.982 3.381 1.974 4.439 6.101.706 2.756 1.841 4.928 2.574 4.928.721 0 1.311.675 1.311 1.5 0 1.167.444 1.056 2-.5 2.212-2.212 3.565-2.513 4.5-1 1.021 1.652-.486 3.257-1.931 2.057-1.832-1.52-2.557-.249-1.857 3.253l.615 3.074-2.903-2.692c-1.597-1.481-3.44-2.692-4.096-2.692-.656 0-1.479-.9-1.828-2s-1.286-2-2.081-2c-.795 0-2.228-.402-3.183-.893-5.057-2.602-19.236-3.99-19.236-1.883 0 1.304-8.833.116-11.336-1.525-1.429-.936-2.844-1.178-3.793-.647-1.728.967-6.345-1.11-9.143-4.114-.993-1.066-2.415-1.938-3.16-1.938-.745 0-1.613-.675-1.93-1.5-.747-1.947-3.258-1.933-4.008.023-.517 1.346-.986 1.355-4.048.076-3.033-1.268-3.615-1.265-4.684.024-.988 1.19-1.4 1.223-2.154.174-.678-.943-.78-.822-.374.443.72 2.24-3.231 3.353-7.108 2.001-1.525-.531-4.269-.747-6.099-.478-1.829.268-4.442-.109-5.806-.84-1.954-1.045-2.889-1.072-4.405-.125-2.29 1.43-6.323 1.611-5.479.246.325-.526 1.252-.703 2.059-.393.807.309 1.468.065 1.468-.544S249.875 436 248.5 436c-1.478 0-2.5.573-2.5 1.402 0 1.198-.693 1.192-4.75-.038-4.781-1.45-15.929-2.39-16.575-1.397-.191.293-.21-.029-.042-.717.431-1.772-4.161-1.579-5.992.252-1.141 1.141-2.121 1.266-4.086.519-2.459-.935-2.55-.851-1.901 1.738.674 2.683.656 2.694-1.235.802-1.892-1.893-1.926-1.88-2.419.9-.383 2.162-1.122 2.885-3.168 3.102-3.261.346-8.02 3.324-7.264 4.546.302.49-.827.958-2.509 1.041-5.161.253-5.54.324-6.152 1.154-.845 1.148-13.907 1.728-13.907.618 0-.507-.927-.922-2.059-.922-1.132 0-1.81.403-1.506.895.435.704-2.064 2.419-3.178 2.183-.133-.029-1.834.842-3.78 1.935-1.946 1.093-4.408 1.987-5.472 1.987s-2.416.9-3.005 2-1.537 2-2.107 2c-.57 0-1.752.717-2.628 1.592-1.144 1.144-2.462 1.394-4.679.89-1.697-.387-4.238-.653-5.646-.591-1.408.061-4.893-1.014-7.745-2.39-5.704-2.751-6.616-2.992-5.695-1.501.34.55-.098 1-.972 1-.875 0-1.85.675-2.166 1.5-.317.825-.978 1.5-1.469 1.5-.491 0-.893-.675-.893-1.5s-.477-1.5-1.059-1.5-.781.45-.441 1c.352.569-.509 1-2 1-1.744 0-2.377-.39-1.895-1.17.493-.798.168-.957-1.023-.5-.96.369-1.92.67-2.132.67-.213 0-.146.629.15 1.399.628 1.638-1.524 3.304-2.462 1.906-1.119-1.668-3.853-2.188-5.141-.977-.955.898-1.355.878-1.707-.084-.254-.691-.872-1.002-1.375-.691-1.441.89-1.068 2.447.585 2.447.825 0 1.5.466 1.5 1.035 0 .711-.601.713-1.919.008-1.361-.728-2.03-.696-2.298.109-.208.624-1.482 1.286-2.831 1.47a65.996 65.996 0 0 0-4.452.78c-1.1.245-2.295.479-2.656.521-.361.043-.433.934-.159 1.981.311 1.188-.007 1.881-.843 1.843-3.83-.176-5.463.463-6.391 2.503-.564 1.238-1.627 2.119-2.363 1.958-.736-.16-2.142.436-3.125 1.326-1.653 1.495-1.824 1.479-2.277-.209-.277-1.033-.479-.523-.466 1.175.013 1.65-.307 8.288-.711 14.75-.462 7.388-.377 11.75.23 11.75.54 0 .829 2.433.657 5.531-.17 3.072.091 5.286.586 4.98.491-.304.907 1.145.923 3.219.036 4.448.37 6.32 1.432 8.02.43.688.443 1.25.031 1.25-.413 0 .031.571.986 1.269.954.698 1.819 2.377 1.921 3.73.102 1.354.998 3.274 1.992 4.268.993.993 1.567 2.192 1.275 2.665-.292.472.142 1.116.964 1.432.822.315 1.509 1.375 1.527 2.355.039 2.084 3.298 6.281 4.877 6.281.6 0 1.09.398 1.09.883 0 .486.945 1.131 2.101 1.433 1.155.302 1.823.997 1.485 1.545-.338.547.387 1.313 1.611 1.702 1.225.388 3.064 1.771 4.088 3.072 1.023 1.301 2.727 2.365 3.788 2.365 1.06 0 1.927.45 1.927 1s.675 1 1.5 1 1.5.45 1.5 1 .659 1 1.465 1c.805 0 1.946.9 2.535 2 .589 1.1 1.793 2 2.676 2 2.256 0 10.502 4.139 12.441 6.244.89.966 2.352 1.756 3.25 1.756.898 0 1.633.45 1.633 1s.59 1 1.312 1c.722 0 3.175.9 5.452 2s4.724 2.003 5.438 2.007c.714.003 2.62.878 4.236 1.943 1.615 1.065 3.323 1.698 3.794 1.407.471-.291 1.961.195 3.312 1.08 1.351.885 2.456 1.304 2.456.931s.872.111 1.937 1.075 2.358 1.493 2.872 1.175c.515-.318 2.339.763 4.054 2.402 3.219 3.076 5.695 3.807 6.34 1.87.232-.694.87-.507 1.706.5 1.138 1.372 1.086 1.61-.358 1.61-2.296 0 .426 2.854 3.122 3.273 1.005.157 2.39.636 3.077 1.065.7.437 1.25.321 1.25-.264 0-.574 2.228.643 4.951 2.704 2.967 2.246 7.875 4.624 12.25 5.935 10.863 3.257 12.871 3.695 17.799 3.888 2.475.097 5.767.676 7.315 1.287 1.548.612 3.648 1.112 4.667 1.112 1.018 0 2.01.475 2.203 1.054.193.58 1.018 1.156 1.833 1.279s2.045.575 2.732 1.004c.688.43 1.25.514 1.25.187s.855-.137 1.9.423c2.302 1.232 3.617-.974 1.772-2.972-.923-1-.783-1.132.66-.622 1.007.356 2.02.647 2.25.647.23 0 .418.675.418 1.5 0 1.637 1.554 2.031 2.429.616.3-.487 2.577-.817 5.059-.733 2.484.084 4.519-.305 4.527-.866.01-.674.263-.68.75-.017.404.55 2.757 1.155 5.228 1.345 2.47.189 5.283.768 6.25 1.285 1.117.598 1.757.586 1.757-.034 0-1.611 8.416-.782 9.18.904.565 1.247.691 1.214.75-.198.058-1.42.528-1.538 2.862-.725 1.536.536 3.899.794 5.25.574 1.352-.22 3.055.077 3.784.66.964.771 1.569.668 2.214-.375.488-.79 1.241-1.463 1.674-1.496 2.226-.169 12.922-2.866 13.786-3.477.55-.388 1.788-.579 2.75-.423.962.156 1.75-.127 1.75-.628 0-.502.952-.912 2.117-.912 1.687 0 2-.445 1.541-2.198-.316-1.209-.186-2.671.288-3.25.474-.579 1.029-2.177 1.232-3.552.203-1.375.921-2.387 1.596-2.25.674.138 1.226-.211 1.226-.775 0-.563 1.125-1.452 2.5-1.975 1.375-.523 2.504-1.524 2.508-2.225.01-1.642 4.605-3.775 8.132-3.775 1.508 0 2.977-.381 3.265-.847.288-.466 1.777-.91 3.309-.988 3.784-.192 6.112-.658 6.817-1.363.324-.324 2.768-.014 5.431.688 3.927 1.036 5.097 1.036 6.19.001 2.703-2.56 5.459-2.667 6.62-.258.601 1.247 1.123 1.719 1.16 1.048.038-.686.752-.956 1.635-.617 1.476.567 3.167.008 9.626-3.177 2.015-.994 2.819-1.034 3.192-.158.331.777.868.588 1.597-.562.889-1.403 1.452-1.513 2.954-.575 1.484.927 2.194.821 3.541-.526.926-.926 2.047-1.46 2.49-1.186.444.274 1.362-.172 2.042-.991 1.5-1.808 6.634-1.975 7.314-.239.27.688.816-.228 1.215-2.035.399-1.806.964-3.047 1.254-2.756.829.828 2.882-2.636 3.647-6.151.382-1.756 2-4.994 3.595-7.197 1.596-2.202 3.192-5.165 3.549-6.584.517-2.061.926-2.349 2.032-1.431.887.736 1.385.776 1.385.11 0-.572-.412-1.189-.916-1.373-1.315-.478 1.494-8.017 3.381-9.073.867-.486 1.316-1.305.997-1.821-.319-.517-.103-.939.479-.939s1.059-.59 1.059-1.311c0-.722.873-2.249 1.94-3.394s1.633-2.389 1.258-2.764c-.375-.374.112-1.125 1.081-1.667.97-.543 1.498-1.417 1.173-1.942-.325-.525-1.009-.696-1.521-.379-1.407.869-1.123-.321.763-3.199.932-1.423 1.771-3.319 1.863-4.215.271-2.613.892-4.59 1.615-5.14.37-.281.951-2.756 1.291-5.5.34-2.744 1.107-8.589 1.705-12.989 1.166-8.577 1.754-25.379.945-26.961-.271-.529-.551-4.952-.624-9.831-.073-4.878-.576-9.171-1.118-9.539-1.046-.711-3.84-6.986-3.859-8.669-.007-.55-1.064-1.149-2.35-1.331-1.925-.273-2.231-.759-1.731-2.75.443-1.763.195-2.419-.912-2.419-.835 0-1.519-.45-1.519-1 0-1.464-2.98-1.224-3.111.25-.061.688-.027 2.274.075 3.525s-.186 2.21-.639 2.132c-2.178-.379-3.179.326-4.297 3.026-.83 2.004-1.739 2.778-2.871 2.444-1.065-.315-.867.101.553 1.162l2.209 1.651-2.088 2.824c-1.319 1.785-2.653 2.608-3.623 2.235-.936-.359-1.279-.174-.879.474.372.602-.425 1.335-1.836 1.689-1.371.345-2.496 1.18-2.499 1.857-.007 1.359-5.366 4.731-7.518 4.731-.75 0-2.015-.932-2.813-2.07-1.056-1.508-1.593-1.712-1.977-.75-.392.98-.548.998-.607.07-.043-.687-1.319-1.25-2.836-1.25-1.516 0-4.216-.419-6-.93-2-.574-3.243-.574-3.243 0 0 .511-1.238.878-2.75.814-1.525-.064-2.008-.312-1.085-.557.916-.242 1.939-1.155 2.274-2.029.766-1.997-2.153-5.345-4.033-4.624-1.743.669-1.832-.822-.156-2.599 1-1.06 1-1.417 0-1.783-.687-.252-1.25-1.573-1.25-2.934 0-1.407-.435-2.207-1.007-1.854-1.89 1.168-6.993-3.449-6.988-6.322.007-3.913-3.185-12.182-4.703-12.182-.716 0-2.146.844-3.177 1.875" fill="#d3d3d3" fill-rule="evenodd"/></svg>