<svg xmlns="http://www.w3.org/2000/svg" width="500" height="377"><path d="M234.75 3.662c3.393.485 3.863 1.324 2.338 4.174-1.53 2.858-4.119 16.92-3.441 18.688.479 1.247 1.594 1.568 4.487 1.292 2.117-.202 4.042.094 4.279.658.236.564.465.464.508-.224.044-.691 1.362-1.25 2.949-1.25 2.557 0 3.01-.501 4.155-4.591.707-2.525 1.902-4.828 2.656-5.117.981-.376 1.073-.884.323-1.787-1.299-1.565 2.93-2.971 4.429-1.472.623.623.519.967-.292.967-.692 0-.951.498-.575 1.107.479.774.93.708 1.505-.222.667-1.079.91-1.052 1.292.143 1.3 4.069 1.544 6.912.641 7.47-.552.341-1.034-.194-1.071-1.189-.038-.995-.624.252-1.303 2.77-1.95 7.233-4.457 9.353-8.61 7.281-2.67-1.332-3.694-1.42-5.245-.451-2.913 1.819-11.476 2.584-13.172 1.176-3.005-2.493-28.462-4.176-39.853-2.633-4.178.566-5.75.457-5.75-.396 0-.646-.45-.896-1-.556-.55.34-1-.084-1-.941S183.499 27 184.108 27c.999 0 .461-4.764-.665-5.89-.828-.828-3.443 2.221-3.443 4.012 0 1.033-.645 1.878-1.434 1.878-.82 0-1.568 1.176-1.75 2.75-.188 1.638-.85 2.639-1.637 2.476-1.221-.253-5.07 3.434-5.146 4.93-.018.361.937.403 2.123.093 1.493-.39 1.933-.203 1.431.61-.399.645-1.144.915-1.656.598-.512-.316-.931-.135-.931.402 0 .538-.267 1.802-.593 2.809-.424 1.308-.001 1.117 1.478-.668 2.836-3.425 2.64-1.092-.389 4.604-1.377 2.59-2.98 7.676-3.562 11.302-.581 3.627-1.44 7.944-1.909 9.594-.688 2.425-.729 9-.055 9 .092 0 .338 1.304.546 2.898.209 1.593.853 3.371 1.432 3.95 1.402 1.402 1.349 5.652-.07 5.652-.78 0-.746.454.111 1.487.717.864.917 2.226.477 3.25-.416.97-.681 3.113-.588 4.763.094 1.65.401 9.474.684 17.387.282 7.912.961 15.221 1.507 16.241 1.759 3.287 2.468 18.024.85 17.673-1.331-.289-3.458-6.212-6.368-17.729-1.676-6.633-1.487-25.26.261-25.843.846-.282.791-.769-.196-1.756-.978-.978-1.158-2.509-.632-5.384.483-2.645.355-4.173-.375-4.477-.721-.299-.585-.83.391-1.521 1.29-.912 1.251-1.063-.282-1.076-1.71-.014-3.926 3.73-3.071 5.187.894 1.524-1.681 13.178-3.309 14.977-1.552 1.715-1.606 2.635-.523 8.945.663 3.868.981 7.396.707 7.84-.274.443 1.232 4.169 3.346 8.279 4.839 9.407 5.457 11.848 3.656 14.42-2.054 2.931-1.485 6.081 1.699 9.413 1.533 1.604 2.716 3.03 2.631 3.17-.086.14.132 2.279.484 4.754 1.195 8.408 1.781 29 .825 29-2.115 0-1.814 3.897.493 6.385 2.881 3.107 3.189 14.693.449 16.915-1.222.991-1.364.893-.818-.565.543-1.449.218-1.684-1.813-1.316-1.826.331-2.478.008-2.489-1.235-.014-1.453-.149-1.478-.985-.184-.862 1.333-.973 1.333-1 0-.026-1.267-.17-1.281-.923-.09-1.526 2.41-7.435-.574-6.56-3.313.368-1.153.908-3.362 1.199-4.907.372-1.977.973-2.64 2.026-2.236 1.158.445 1.384-.012 1.001-2.016-.335-1.753.135-3.178 1.454-4.407 1.915-1.784 1.916-1.839.041-3.173-2.756-1.961-3.684-7.708-1.614-9.995 1.521-1.681 1.514-2.003-.093-4.457-.953-1.454-1.861-3.811-2.018-5.237-.156-1.426-.782-2.759-1.391-2.962-.806-.268-.808-.926-.004-2.427 2.291-4.281 2.853-7.854 1.327-8.439-.795-.305-1.445-1.208-1.445-2.007 0-.843-.484-1.153-1.155-.739-.715.443-.883.275-.44-.44.392-.635.236-1.155-.346-1.155s-1.059-.675-1.059-1.5-.702-1.5-1.559-1.5-1.281-.45-.941-1c.34-.55.079-1-.58-1-.85 0-1.027 1.448-.61 4.972.327 2.757.166 5.234-.36 5.559-.547.338-.95-1.349-.95-3.972 0-2.507-.466-4.559-1.035-4.559-.688 0-.662-.698.079-2.082.875-1.635.792-2.333-.385-3.25-1.525-1.188-2.256-4.551-3.267-15.031-.432-4.481-.277-5.684.66-5.105 1.717 1.061.423-5.404-2.543-12.701-2.745-6.756-4.121-13.831-2.691-13.831.547 0 .773-.849.501-1.887-.271-1.038-.004-2.19.594-2.559.61-.377 1.087.03 1.087.926 0 1.313.246 1.369 1.375.315.756-.707 1.158-1.849.893-2.54-.265-.69.078-1.255.763-1.255.905 0 1.093 1.431.688 5.25-.711 6.718.635 11.084 1.606 5.207.359-2.176.67-6.432.69-9.457l.037-5.5 1.783 3.969c2.676 5.958 3.219 2.743 2.172-12.859-.697-10.396-1.604-15.718-3.982-23.374-2.361-7.599-2.855-10.476-2.116-12.325.853-2.134.979-2.181 1.091-.411.118 1.854.193 1.836 1.029-.244.533-1.326 3.269-3.371 6.687-5 3.181-1.516 5.935-3.096 6.119-3.512.185-.416.817-.459 1.405-.096.677.419.772.181.26-.648-.546-.883-.419-1.068.389-.568 1.353.836 4.358-1.224 3.592-2.463-.508-.822-7.177.646-8.981 1.977-2.843 2.097-9.377 3.933-9.85 2.767-.276-.681-.527-.446-.571.537-.043.962-.529 1.75-1.079 1.75-.55 0-1.008-.788-1.018-1.75-.039-3.776-12.831-19.182-15.982-19.249-1.275-.027-1.287-.166-.079-.931s1.164-1.291-.294-3.517c-.943-1.439-2.107-2.375-2.586-2.079-.478.296-1.024.076-1.212-.488-.537-1.611-5.812 1.25-5.821 3.157-.004.904-.683 1.902-1.508 2.219-.825.316-1.5.113-1.5-.452 0-.566-.457-.745-1.016-.4-.559.346-.837.935-.618 1.309.219.375-1.123 1.412-2.984 2.305-1.931.927-3.382 1.182-3.382.595 0-.566-.823-.284-1.829.626-1.006.91-2.307 1.655-2.893 1.655-.585 0-1.323.675-1.64 1.5-.348.907-1.873 1.506-3.857 1.515-1.804.009-3.956.452-4.781.985-1.287.832-1.256.972.219.985 6.039.053 11.934 5.983 13.326 13.405.681 3.628.614 3.765-1.333 2.724-1.127-.604-2.354-2.483-2.726-4.176-.496-2.26-1.095-2.918-2.251-2.475-.866.333-3.892-.609-6.725-2.092l-5.15-2.697-3.057 2.26c-4.197 3.103-7.79 2.553-4.542-.695C81.993 35.007 83 33.334 83 32.519c0-.814 1.012-1.697 2.25-1.961 1.237-.264 3.15-.67 4.25-.903 1.1-.233-.138-.475-2.75-.539-3.14-.077-4.75.298-4.75 1.107 0 .672-.721.193-1.601-1.064-1.433-2.046-1.774-2.13-3.25-.796-2.036 1.839-13.246 3.362-18.649 2.534-3.766-.577-3.81-.622-.75-.755 3.214-.14 4.418-1.583 2-2.395-5.003-1.681 17.325-5.023 33.72-5.047 12.273-.018 12.757-.093 9.001-1.394-14.646-5.07-59.176-4.165-63.16 1.284-.743 1.015-2.015 1.459-3.253 1.135-1.218-.318-3.142.324-4.796 1.6C27.825 27.979 25.701 30 26.352 30c.272 0-.821 1.315-2.429 2.923C20.979 35.867 20.164 38 21.984 38c.541 0 .038 1.815-1.118 4.033-1.422 2.727-1.91 4.995-1.509 7 .333 1.666.166 2.967-.382 2.967-.536 0-.975.9-.975 2s-.661 2-1.469 2c-.894 0-1.243-.586-.893-1.5.692-1.802.063-1.876-2.902-.345-1.23.636-2.911 1.469-3.736 1.851-.825.383-1.642 1.888-1.816 3.345C7.01 60.808 6.495 62 6.041 62c-1.484 0-2.143 3.318-.825 4.155 2.937 1.863 6.513.914 7.743-2.056.661-1.596 2.277-3.911 3.591-5.146l2.389-2.244 1.063 2.796c.886 2.33.735 3.147-.903 4.896-1.081 1.154-2.53 3.449-3.219 5.099-1.512 3.619-1.824 20.49-.38 20.514.578.01.535.327-.102.751-.606.404-.999 2.085-.874 3.735.27 3.548-1.49 10.5-2.658 10.5-.449 0-.378 1.154.159 2.565.536 1.411.975 3.834.975 5.385 0 1.551.699 4.335 1.553 6.185l1.553 3.365-.642-3.5c-1.056-5.755-1.022-6.512.286-6.25.697.139 1.263-.745 1.28-2 .029-2.125.092-2.144 1.135-.349.741 1.276.884 5.552.435 13-1.422 23.589-1.436 32.75-.05 32.218 1.567-.601 4.45 3.51 4.45 6.346 0 1.119.45 2.035 1 2.035s1 1.098 1 2.441c0 1.343.43 2.707.956 3.032 1.059.654.277 3.397-1.475 5.173-.847.859-1.426.671-2.314-.75-2.062-3.302-3.152-2.123-2.639 2.854l.489 4.75-1.488-3.193c-1.69-3.627-1.965-6.747-1.194-13.557.407-3.6.209-4.75-.821-4.75-.747 0-1.879-1.575-2.514-3.5-.635-1.925-1.57-3.5-2.078-3.5-.507 0-.954-.787-.992-1.75-.039-.963-.722.027-1.517 2.2-.796 2.172-1.278 4.422-1.072 5 .205.577-.455 2.235-1.468 3.683-1.457 2.082-1.739 3.858-1.348 8.5.807 9.579 1.631 14.345 2.581 14.932.492.304.894 1.003.894 1.553s-.45.722-1 .382c-.624-.386-1 1.646-1 5.41 0 5.018.258 5.928 1.541 5.436.981-.376 1.435-.092 1.25.781-.16.755.272 1.26.959 1.123.744-.149 1.25.805 1.25 2.357 0 1.906-.403 2.452-1.5 2.031-.825-.316-1.5-.139-1.5.393 0 .533.633.969 1.406.969.948 0 1.223.703.843 2.156-.387 1.478-.2 1.932.593 1.441 1.752-1.082 1.291 2.434-.774 5.903-1.693 2.846-1.697 3.129-.061 5.5 1.493 2.166 1.791 6.108 2.226 29.5.276 14.85.19 26.133-.191 25.073-.642-1.786-.742-1.798-1.367-.168-1.047 2.728-.808 3.583.825 2.957 2.869-1.101 1.384 6.549-2.783 14.332-1.309 2.445-1.477 3.808-.714 5.815.549 1.442.997 5.967.997 10.056 0 5.415.34 7.367 1.25 7.185 2.076-.415 1.977 4.599-.2 10.122-1.127 2.861-2.05 5.533-2.05 5.937 0 1.223 12.62 3.217 16.035 2.534 3.09-.618 3.17-.548 2.575 2.26-.337 1.593-.153 5.372.41 8.397.562 3.025 1.297 7.525 1.632 10 .335 2.475 1.113 5.147 1.729 5.937.893 1.147.785 1.312-.532.819-1.134-.424-1.873.067-2.356 1.563-.606 1.873-.771 1.934-1.172.431-.257-.962-.911-1.75-1.453-1.75s-.665.52-.272 1.156c.515.832-.219.969-2.618.49-4.153-.831-3.878-.487-4.594-5.736-.923-6.761-2.036-7.93-2.867-3.012-.69 4.084-.782 4.172-2.616 2.512-1.841-1.666-1.901-1.581-1.886 2.685.018 5.221.381 5.84 5.103 8.708 3.904 2.371 11.673 3.006 13.569 1.11.783-.783 1.275-.783 1.759 0 .774 1.251 18.912 1.474 31.153.382l7.901-.704-5-1.2c-3.093-.742-4.047-1.241-2.5-1.31 6.438-.287-1.085-1.901-9.035-1.939-10.239-.048-13.187-.66-18.131-3.761-4.7-2.948-5.55-4.385-3.487-5.893.909-.665 1.653-1.721 1.653-2.348 0-1.625.781-1.432 4.279 1.059 2.882 2.052 3.031 2.068 2.235.25-2.308-5.28.33-13.214 3.934-11.83.732.281 1.611-.833 2.156-2.732l.919-3.207 2.43 3.546c1.947 2.841 3.435 3.768 7.488 4.664 8.581 1.895 15.872 2.927 17.167 2.43.68-.261 2.171.026 3.314.638 4.191 2.243 2.016-.91-2.422-3.511C70.804 341.695 69.567 339 73 339c1.1 0 1.986-.562 1.968-1.25-.05-1.988-2.35-4.465-3.718-4.004-.687.231-1.25-.067-1.25-.663 0-.595.511-1.083 1.136-1.083.804 0 .991-2.782.64-9.499-.346-6.611-.126-10.008.725-11.172.672-.919 1.05-2.382.84-3.25-.211-.868.338-5.179 1.219-9.579s2.128-11.6 2.771-16c.643-4.4 1.509-8.524 1.925-9.165.416-.64.27-1.326-.325-1.525-2.464-.821.705-6.452 7.292-12.962 7.475-7.387 9.328-8.158 10.731-4.469.821 2.159 1.279 2.31 4.975 1.634 5.234-.957 5.67 2.418.571 4.417l-2 .785 2 .822c2.161.889 1.298 1.288-2.187 1.01-2.338-.186-7.434 4.079-5.602 4.69.635.212.929 2.103.707 4.562-.358 3.972-.331 4.021.486.9 1.096-4.187 1.475-4.531 4.079-3.704 2.013.638 2.044.815.553 3.091-1.373 2.095-1.385 2.414-.094 2.414.818 0 1.985-.929 2.593-2.065.883-1.651 1.391-1.827 2.535-.877 1.927 1.599 1.818 3.305-.163 2.545-1.077-.414-1.771.072-2.144 1.5-.457 1.746-1.105 2.022-3.741 1.594-3.591-.582-4.304 1.233-1.875 4.776.744 1.084 1.353 2.772 1.353 3.75 0 1.248.819 1.807 2.75 1.877 2.585.093 2.611.138.441.75-1.27.357-2.282.988-2.25 1.4.032.413.059 1.37.059 2.127 0 1.04 1.098 1.254 4.482.872 5.459-.615 6.639 1.177 4.176 6.342-2.308 4.841-6.651 4.944-6.673.159-.012-2.466-.249-2.888-.985-1.75-2.977 4.607-.342 11 4.535 11 1.906 0 3.465.45 3.465 1 0 1.457-6.742 1.227-7.338-.25-.277-.687-.54-.238-.583 1-.059 1.673.498 2.266 2.171 2.313 2.187.062 2.18.093-.25 1.098l-2.5 1.035 2.333.9c1.283.495 3.455.619 4.828.274 2.275-.571 2.467-.371 2.168 2.252-.367 3.213-3.808 4.47-6.384 2.332-1.215-1.008-1.445-.622-1.445 2.424 0 1.992.455 3.622 1.012 3.622.62 0 .764 1.547.372 4-.649 4.06-.154 4.616 3.028 3.395.867-.332 1.328-1.007 1.023-1.5-.739-1.195-.041-1.128 3.085.296 1.953.89 2.474 1.711 2.06 3.25-.304 1.132-.559 2.877-.566 3.876-.01 1.334-.524 1.656-1.929 1.21-2.379-.755-7.085.35-7.085 1.664 0 .581 1.862.721 4.624.346 3.956-.536 4.537-.398 4.017.956-.343.893-.009 1.812.765 2.109.818.314 1.158 1.351.84 2.565-.302 1.155.058 2.403.832 2.881.75.464 1.093 1.114.762 1.445-.331.331-1.302-.098-2.157-.953-.856-.855-1.804-1.153-2.108-.661-.304.492-2.214 1.206-4.245 1.587-2.531.475-3.27.953-2.351 1.521.737.455 1.946.595 2.688.311 2.035-.781 8.474.665 7.802 1.753-.323.522.804.949 2.503.949 1.7 0 3.319.595 3.598 1.321.324.846 1.607 1.16 3.568.872 2.849-.418 3.014-.666 2.384-3.571-1.618-7.465-1.839-10.936-.648-10.2.649.401 1.107 1.257 1.019 1.903-.299 2.198 1.347 7.645 2.159 7.143.444-.275 1.15-3.08 1.569-6.234.418-3.154.933-4.946 1.143-3.984.413 1.89 1.119 2.136 2.823.985 3.165-2.14 3.067-25.34-.139-33.014-1.442-3.451-3.448-3.58-3.448-.221 0 2.279-1.63 3.505-2.336 1.756-.581-1.443-.984 1.569-.685 5.13.11 1.312-.387 2.748-1.104 3.192-1.381.853-1.475 4.9-.362 15.672.435 4.206.293 6.25-.433 6.25-.594 0-1.08-.761-1.08-1.691 0-1.475-.188-1.443-1.468.25-1.432 1.892-1.469 1.885-1.5-.309-.018-1.279.508-2.142 1.218-2 1.323.265 1.366-2.958.174-13.068-.469-3.987-.976-5.184-2.025-4.782-1.097.421-1.373-.59-1.281-4.681.098-4.317.239-4.7.816-2.219.642 2.757.761 2.576 1.476-2.25.428-2.887 1.298-5.257 1.934-5.265.744-.01.683-.315-.171-.857-.73-.462-1.217-1.468-1.083-2.234.134-.767-.066-2.969-.446-4.894-.379-1.925-.317-8.225.138-14 .895-11.358.527-17.049-.871-13.472-.424 1.085-.802 3.885-.841 6.222-.038 2.337-.408 4.249-.82 4.248-1.265-.003-.723-19.925.577-21.225 1.82-1.82 1.385-4.484-.827-5.063-2.9-.758-2.714-5.281.25-6.093 1.297-.356 1.826-.935 1.25-1.367-3.354-2.515-4.631-9.602-1.918-10.643 2.294-.88 2.418-.809 2.418 1.393 0 2.899 1.81 2.459 2.184-.531.174-1.392.764-2.63 1.312-2.75 1.962-.432 2.799 8.184 1.801 18.534-1.11 11.505-.374 13.929 3.586 11.809 1.165-.623 2.117-1.597 2.117-2.165 0-.567.787-.787 1.75-.487 3.223 1.003 4.614-.847 3.803-5.06-.407-2.117-.811-4.825-.897-6.017-.086-1.192-.494-2.504-.906-2.917-.985-.984-.942-13.565.051-15.128.996-1.567 5.199-.493 5.199 1.329 0 .76.374 1.383.831 1.383.825 0 1.397-1.045 4.514-8.25 2.195-5.072 3.229-4.728 5.096 1.695 1.501 5.164 1.474 5.848-.531 13.25-2.48 9.159-2.919 9.77-6.393 8.899-2.486-.624-2.598-.917-2.058-5.377.441-3.635.344-4.194-.423-2.436-.547 1.254-1.294 5.979-1.66 10.5-.879 10.846-.773 10.288-2.292 12.118-.731.881-.936 1.608-.456 1.616.479.009.226.424-.564.924-1.178.745-1.205 1.186-.151 2.457 1.379 1.661-.546 5.762-5.598 11.931-1.907 2.329-2.293 3.913-2.19 9 .114 5.628.186 5.82.808 2.173.709-4.158 3.983-11.13 3.992-8.5.002.825-.639 2.625-1.425 4-1.634 2.858-2.004 11-.5 11 .55 0 1-1.333 1-2.963 0-4.421 5.3-17.07 6.606-15.765.176.177-.338 2.509-1.143 5.184-1.922 6.387-1.907 10.544.037 10.544 1.138 0 1.509-1.266 1.535-5.25.037-5.355 2.118-10.93 3.342-8.949.364.589.214 3.012-.333 5.385-1.429 6.195-1.293 8.814.456 8.814 1.083 0 1.5-1.111 1.5-4 0-2.866.42-4 1.481-4 1.466 0 1.852-1.055 2.988-8.15.615-3.842 3.531-7.567 3.531-4.509 0 3.266-5.816 29.31-7.376 33.031-2.246 5.356-2.077 9.197.484 10.991 1.16.813 1.841 1.911 1.514 2.44-.328.53-.853 2.704-1.167 4.83-.314 2.127-.794 4.635-1.067 5.573-.846 2.917.756 9.671 1.726 7.277.497-1.226.824 1.453.856 7.017.028 4.95.416 11.025.863 13.5l.811 4.5.778-5.629c.51-3.686.392-6.349-.34-7.717-1.149-2.147-1.153-35.16-.005-36.154.318-.275 1.051-2.525 1.63-5 1.016-4.343 1.057-4.198 1.173 4.161.116 8.4.214 8.74 3.227 11.275 5.48 4.612 14.894.665 14.892-6.242 0-1.482 1.436-12.778 3.192-25.102 2.914-20.451 3.294-22.11 4.359-19 .933 2.726.872 4.309-.305 7.908-.809 2.475-1.411 6.525-1.338 9 .118 3.975-1.622 19.036-3.693 31.96l-.714 4.46-5.75 1.151c-3.162.633-5.75.803-5.75.378 0-.424-.787-.621-1.75-.437s-2.818.369-4.122.411c-4.236.137-.418 3.077 3.994 3.077 2.133 0 3.878.45 3.878 1 0 1.094-1.077 1.306-5.25 1.031-1.844-.122-2.75.306-2.75 1.3 0 .989.665 1.308 2 .959 1.195-.313 2-.031 2 .7 0 .677-.67.967-1.5.648-.825-.316-1.5-.177-1.5.31s.563 1.077 1.25 1.312c.97.332.996 1.117.118 3.502-.812 2.205-.826 3.38-.05 4.156.595.595.654 1.089.132 1.097-.523.009-.275.452.55.985 1.282.828 1.246.972-.25.985-2.07.018-1.898 2.221.25 3.195 1.164.527 1.052.718-.5.849-1.699.145-1.624.291.5.971 2.466.79 2.469.802.191.9-1.27.055-2.031.55-1.691 1.1.34.55-.159 1-1.108 1-3.035 0-.501 1.347 3.877 2.06l4.231.69-3.809.125c-6.195.203-3.203 2.125 3.309 2.125 5.461 0 9.942-1.922 4.809-2.063l-2.309-.064 2.362-.945c1.709-.685 4.225-.391 9.107 1.063 3.711 1.105 7.091 2.009 7.511 2.009 1.627 0-1.69-2.836-3.992-3.414-1.337-.335-2.909-1.504-3.494-2.598-1.247-2.33-.444-2.46 3.006-.488 3.221 1.841 4 1.841 4 0 0-.825-.814-1.5-1.809-1.5s-2.682-.712-3.75-1.582c-1.913-1.559-1.913-1.571.059-.871 4.061 1.442 6.5 1.663 6.5.589 0-.604-1.125-1.38-2.5-1.725-1.375-.345-2.5-1.015-2.5-1.488 0-.473.675-.601 1.5-.285.95.365 1.5-.013 1.5-1.031 0-.884-.405-1.607-.9-1.607-.496 0-.805-1.387-.687-3.083.254-3.673-4.75-6.576-12.413-7.201-2.475-.201-.225-.392 5-.423 8.656-.051 18.634 1.175 13.5 1.659l-2 .189 2 .859c1.1.473 3.238.891 4.75.93 3.712.095 3.53 2.07-.191 2.07-1.618 0-3.219.45-3.559 1-.354.573.547 1 2.112 1 4.267 0 6.338 2.497 5.67 6.836-.311 2.015-.243 3.368.151 3.006.395-.362.836-1.487.981-2.5.182-1.262 1.26-1.941 3.425-2.155 1.739-.173 3.161-.882 3.161-1.577 0-.835-1.017-1.114-3-.823-2.526.37-3 .106-3-1.674 0-2.678 4.062-2.908 6.597-.373 1.654 1.654 1.705 1.599 1.029-1.096-.43-1.712-.254-3.387.444-4.229.729-.878.898-2.774.457-5.125-.576-3.07-.871-3.427-1.663-2.011-1.073 1.917-3.585 2.211-5.864.687-1.299-.87-1.242-1.201.427-2.475 1.06-.809 1.633-1.764 1.274-2.123-.359-.359-1.238-.167-1.953.426-1.47 1.22-16.004-.183-18.984-1.833-2.232-1.235-3.043-1.221-2.264.039.754 1.22-.511 1.279-2.357.11-1.039-.659-1.073-1.035-.143-1.61.693-.428.816-1.018.287-1.375-.51-.344-.603-1.75-.206-3.125.465-1.616.755-1.878.819-.742.084 1.485.401 1.571 2.035.55 1.065-.664 1.708-1.577 1.429-2.028-.278-.45-.05-2.273.507-4.05 1.674-5.334 2.242-17.622 1.005-21.751-.905-3.018-.817-5.192.43-10.636.862-3.764 1.562-7.518 1.556-8.343-.041-5.105 1.782-13.004 3.694-16 1.863-2.919 2.309-5.325 2.691-14.5.415-9.958.344-10.574-.756-6.5-.668 2.475-.989 6.637-.714 9.25.512 4.851.219 5.193-3.277 3.829-1.895-.74-1.984-1.556-1.687-15.582.207-9.82-.05-15.026-.765-15.467-.593-.367-1.735-4.408-2.539-8.981-1.447-8.226-1.184-11.576.697-8.906 1.398 1.985-.006-3.962-1.789-7.578-.817-1.656-1.07-3.312-.581-3.801.477-.477.654-1.98.394-3.341-.424-2.219-.599-2.301-1.696-.801-1.058 1.447-1.378 1.055-2.378-2.918-1.901-7.549-1.598-9.477 1.439-9.144 2.489.273 2.58.105 2.242-4.138-.244-3.071.033-4.422.906-4.422.691 0 1.257-.488 1.257-1.083 0-.596.484-.922 1.075-.725.591.197.929.797.75 1.333-.179.536-.696.851-1.15.7-1.175-.392.367 4.125 1.71 5.01.682.449.388.74-.757.75-2.726.022-.095 2.989 2.744 3.094 1.833.068 1.753.216-.572 1.067-2.398.877-2.59 1.275-1.722 3.559.538 1.415.744 2.806.459 3.092-.286.285-.042 1.094.541 1.797.749.903.737 1.884-.044 3.342-.808 1.51-.806 2.064.007 2.064.668 0 1.003 1.509.839 3.778-.15 2.078.122 4.416.604 5.197.483.78.763 3.58.623 6.222-.155 2.915.167 4.803.819 4.803.591 0 1.092-1.012 1.114-2.25.038-2.111.133-2.078 1.548.53 1.774 3.272 3.036 2.848 3.835-1.291 1.941-10.052 1.721-9.513 3.108-7.616.708.968 1.648 1.697 2.089 1.62.966-.17 2.308 3.199 1.696 4.257-.239.412-1.532.75-2.875.75s-2.441.45-2.441 1 .889 1 1.975 1c1.707 0 1.843.348 1 2.565-.536 1.411-.975 2.703-.975 2.872 0 .357 6.998 1.617 11.819 2.128l3.318.352-.506-7.709c-.61-9.28-.587-9.177-1.509-6.831-.465 1.183-.737-.019-.737-3.25 0-3.784.375-5.127 1.432-5.127 1.037 0 1.278-.776.871-2.811-.309-1.546-.21-4.374.22-6.283.808-3.578.137-4.917-3.075-6.143-1.001-.382-1.888-.063-2.219.8-.303.79-1.578 1.437-2.833 1.438-2.788.001-11.352 3.17-12.989 4.807-1.148 1.148.476 1.627 4.958 1.461a1.206 1.206 0 011.25 1.22c0 1.768-2.674 3.848-3.412 2.653-.324-.525-1.492-.718-2.594-.43-2.883.754-5.012-1.466-4.878-5.084.076-2.054.286-2.462.61-1.187.417 1.639.699 1.453 1.816-1.202 1.34-3.187 10.142-7.068 14.708-6.486 3.579.457 1.592-1.38-2.75-2.542-2.475-.662-4.5-1.62-4.5-2.13 0-.509-1.687-1.484-3.75-2.167-2.062-.682-3.185-1.431-2.494-1.663.691-.232 1.002-.833.691-1.336-1.164-1.885 7.252-.803 12.4 1.594 2.941 1.369 5.702 2.269 6.136 2.001.434-.268 1.024.407 1.31 1.501.549 2.101-.257 2.583-1.843 1.101-1.612-1.506-5.45-2.337-5.45-1.179 0 .587.878 1.067 1.95 1.067 1.073 0 2.31.563 2.75 1.25 1.811 2.831 4.358 1.683 4.12-1.857-.154-2.279-.736-3.403-1.774-3.423-1.291-.026-1.264-.195.162-1.027.943-.549 1.455-1.657 1.143-2.469-.641-1.672.845-1.914 3.413-.555.955.505 5.561 1.924 10.236 3.154 4.675 1.229 8.95 2.666 9.5 3.193.643.617.196.716-1.253.278-1.501-.453-2.814-.12-3.932.999-1.573 1.572-1.76 1.568-2.949-.058-.866-1.184-1.841-1.487-3.068-.953-.989.431-2.473.7-3.298.598-.962-.119-.653.542.861 1.842 1.298 1.116 1.83 2.028 1.182 2.028-.68 0-.936.762-.605 1.805.329 1.037-.196 2.634-1.233 3.75-2.383 2.566-3.35 5.238-2.161 5.972 1.351.835 1.186 3.802-.382 6.822-1.262 2.433-.744 12.902.71 14.356.908.908 8.128-1.232 8.128-2.409 0-.621.338-1.467.75-1.879.412-.413.75.423.75 1.857 0 2.829 1.464 4.402 2.515 2.702.359-.582 1.508-.786 2.552-.455 1.515.481 2.228-.218 3.522-3.452 1.691-4.227 3.855-4.687 2.83-.602-.671 2.673 2.91 4.604 4.882 2.632 1.642-1.642 2.699-1.332 2.699.794 0 2.722 2.519 3.296 4.561 1.04.962-1.063 2.804-1.933 4.094-1.933 3.142 0 3.023-2.613-.155-3.411-2.707-.679-3.445-2.589-1-2.589 2.717 0 1.565-1.575-2.129-2.91-2.683-.971-3.269-1.54-2.25-2.186.759-.48.929-.887.379-.904-.55-.017-.325-.467.5-1 1.213-.784 1.069-.972-.75-.985-1.238-.008-2.25-.367-2.25-.797 0-.806-3.731-1.495-7.84-1.446-1.813.021-2.229-.401-1.844-1.872.664-2.54-1.007-2.448-1.816.1-.349 1.1-1.462 2-2.474 2-2.71 0-1.411-3.971 1.341-4.1 2.03-.095 2.022-.131-.176-.75-1.27-.357-2.249-1.089-2.175-1.625.074-.536-.413-1.157-1.082-1.38-.848-.283-1.02.376-.568 2.179.482 1.917.092 3.103-1.51 4.595-2.044 1.905-4.511 1.95-3.344.062.299-.484-.471-1.424-1.712-2.088-2.185-1.17-2.194-1.231-.278-1.98 1.769-.691 1.787-.78.169-.843-3.385-.131-.59-2.07 2.985-2.07 3.098 0 3.488-.266 3.019-2.057-.345-1.32-.118-1.902.634-1.625.644.238 1.021 1.051.838 1.807-.184.756-.003 1.044.401.641.404-.404 1.378.046 2.165 1 1.356 1.643 1.402 1.643.88-.016-.303-.963-.227-1.756.168-1.764.396-.007 1.634-.259 2.752-.559 1.536-.413 2.07-.043 2.188 1.513.174 2.322-.745 2.636-2.521.86-.893-.893-1.2-.902-1.2-.035 0 .64 1.012 1.702 2.25 2.359 1.238.656 2.838 2.022 3.557 3.035 1.89 2.663 4.9 2.401 4.693-.409-.091-1.237-.915-2.395-1.832-2.573-.918-.178-1.668-.992-1.668-1.809s.45-1.208 1-.868c.55.34 1 .179 1-.358 0-.536-.562-1.176-1.25-1.422-3.123-1.115.728-1.947 4.751-1.027 3.703.847 4.499.778 4.499-.391 0-.781-.427-1.156-.949-.834-1.274.788-10.051-1.472-10.051-2.587 0-.484.563-.913 1.25-.951.688-.039.35-.457-.75-.93-1.498-.644-1.598-.877-.399-.93 2.4-.105 8.164 2.01 10.147 3.724 1.76 1.522 10.752 2.437 10.752 1.094 0-.397-.562-.915-1.25-1.153-.687-.237.425-.633 2.471-.879 4.738-.57 6.255 1.899 1.724 2.805-4.661.932-2.697 1.574 2.453.802 2.52-.378 4.361-1.045 4.09-1.482-.27-.437.522-.606 1.761-.377 1.238.23 1.689.151 1.001-.176-2.193-1.043-1.348-4.325 1.5-5.824 1.512-.795 3.55-2.402 4.528-3.569 1.602-1.913 1.929-1.97 3.321-.579 1.918 1.919 2.044 1.916 2.805-.067.429-1.118.185-1.445-.795-1.069-1.929.74-2.823-.357-1.545-1.897.575-.693 1.098-3.561 1.162-6.373.072-3.17.439-4.626.964-3.832.655.993 1.082.882 1.89-.489 1.61-2.735 2.777-1.145 2.215 3.019a442.936 442.936 0 00-1.008 8.252c-.276 2.475-.958 5.063-1.517 5.75-1.284 1.582-4.478 1.627-4.997.07-.596-1.79-3.265-.342-5.717 3.101-1.802 2.531-1.913 3.079-.624 3.079 2.338 0 1.894 1.934-.682 2.969-2.058.827-1.978.91.927.968 2.219.044 3.314-.464 3.634-1.687.409-1.567.469-1.554.573.122.1 1.622.336 1.69 1.76.508 1.462-1.213 1.565-1.115.933.878-.54 1.702-.316 2.242.931 2.242 1.169 0 1.59-.792 1.461-2.75-.361-5.479-.003-7.2 1.388-6.666 1.624.623 3.591 6.779 4.231 13.24 1.64 16.558 1.434 15.687 2.998 12.673 1.757-3.386 1.754-3.497-.086-3.497-.833 0-1.5-.889-1.5-2 0-1.1.375-2 .833-2 .459 0 .838-2.588.843-5.75.012-7.31.948-10.171 3.662-11.197 2.899-1.097 3.89-.347 2.636 1.996-.619 1.157-.765 4.532-.365 8.439.471 4.592.332 6.512-.471 6.512-.626 0-1.138 1.35-1.138 3 0 2.05.493 3 1.559 3 .857 0 1.276.457.931 1.016-.346.559-1.015.778-1.487.486-1.082-.669-2.35 3.127-1.503 4.498.786 1.272-.333 5-1.501 5-.477 0-.663-1.125-.413-2.5.319-1.76.008-2.5-1.052-2.5-1.232 0-1.412 1.113-.991 6.142.571 6.827 1.083 8.207 2.678 7.222 1.619-1.001 8.111-1.078 9.44-.111 1.383 1.006 1.748.491 3.734-5.272 1.031-2.994 1.182-4.624.469-5.065-1.312-.811-.103-13.816 1.466-15.77 1.532-1.907 2.672-14.264 1.516-16.429-.912-1.708-.474-3.875 2.415-11.967.54-1.512 1.377-2.75 1.86-2.75 1.931 0 .725-3.108-1.54-3.969-2.261-.86-2.425-1.43-2.513-8.725-.122-10.173-1.05-17.65-2.286-18.429-.641-.404-.6-1.348.115-2.684 1.515-2.831 1.383-5.193-.29-5.193-3.076 0-3.69-7.904-.676-8.692 1.148-.3 1.713-1.073 1.393-1.907-1.336-3.48 4.721.061 7.524 4.399 2.299 3.559 2.351 4.166 2.463 29.167.063 14.043-.252 28.512-.701 32.154l-.815 6.62 3.102 1.374c3.036 1.344 4.281 3.885 1.903 3.885-.933 0-.933.267 0 1.2.66.66 1.2 2.01 1.2 3 0 .99.486 1.8 1.079 1.8.674 0 .838-1.103.435-2.935-.354-1.614-.211-4.503.318-6.42.709-2.566.605-4.177-.394-6.102-1.014-1.955-1.352-7.725-1.336-22.83.024-23.588-.412-33.464-1.597-36.137-.698-1.575-.537-1.802.887-1.256 1.392.534 1.613.27 1.106-1.326-.362-1.142-.177-1.994.435-1.994.587 0 1.067.477 1.067 1.059s.45.781 1 .441 1.032.196 1.07 1.191c.063 1.615.163 1.594.93-.191.767-1.786.867-1.712.93.691.038 1.48.52 2.969 1.07 3.309 1.02.63 1.371-.62 1.052-3.75-.098-.962.211-1.75.685-1.75 1.458 0 3.263 2.304 3.263 4.165 0 .97.801 2.194 1.781 2.718 1.858.994 2.79 5.117 1.157 5.117-.516 0-.938-.648-.938-1.441s-.498-1.749-1.107-2.125c-.737-.455-.893-.008-.466 1.335.398 1.257.02 2.641-1.001 3.662-1.305 1.305-1.488 2.61-.892 6.356.743 4.673.756 4.687 1.593 1.63.47-1.716 1.516-3.084 2.358-3.084 1.795 0 1.911 1.058.421 3.842-1.064 1.989-.926 2.024 5.25 1.314 3.489-.401 6.675-1.238 7.079-1.859.531-.817.739-.821.75-.016.016 1.222 8.642 2.735 10.178 1.785.526-.325.142-1.191-.853-1.924-2.898-2.133.721-2.963 6.458-1.48 5.889 1.521 16.232 2.835 16.232 2.062 0-1.173-3.969-3.006-5.356-2.474-.789.303-3.394-.002-5.789-.678l-4.355-1.228 3.708-1.097c2.606-.771 3.474-1.476 2.92-2.372-.433-.702-1.494-1.005-2.357-.674-.863.331-1.919.036-2.347-.657-.442-.716-.27-1.428.399-1.651.647-.216 1.177-1.03 1.177-1.809 0-.779.45-1.417 1-1.417s1-.45 1-1-1.323-1-2.941-1c-1.618 0-3.238-.481-3.601-1.068-.363-.588-1.29-.827-2.059-.532-1.068.41-1.425-.578-1.51-4.181-.174-7.428.156-9.641 1.606-10.773 1.129-.881 1.118-1.209-.069-2-.886-.591-1.189-1.787-.807-3.189.638-2.344 1.097-2.373 11.631-.735 4.134.643 3.911-3.34-.234-4.169-1.748-.349-2.712-1.036-2.328-1.657.992-1.605 1.107-6.696.151-6.696-.461 0-.839.45-.839 1s-.477 1-1.059 1-.781-.45-.441-1 .109-1-.512-1c-2.73 0-4.319-2.976-2.603-4.873.888-.981 1.647-3.324 1.685-5.206.058-2.821.221-3.07.93-1.421.82 1.908.863 1.897.93-.25.063-2.033-.93-2.747-3.254-2.344-.454.079-.569-.27-.256-.776.313-.506-.123-1.186-.968-1.51-1.27-.488-1.424.015-.883 2.895.44 2.348.276 3.485-.503 3.485-.754 0-.96 1.13-.59 3.25.685 3.931-.624 6.291-2.988 5.384-1.4-.538-1.486-.932-.466-2.16 1.238-1.492 1.002-1.525-3.894-.548-.205.041.184.744.864 1.564 1.022 1.232.826 1.663-1.128 2.49-1.836.777-1.135.895 3.136.53 3.751-.32 5.023-.163 4 .495-1.089.7-1.142.969-.191.98 3.219.037-.222 1.786-4.53 2.301-2.628.315-5.679.905-6.779 1.313-1.973.73-1.974.711-.095-1.429 2.467-2.81 2.056-2.758-7.555.948-5.663 2.184-7.676 3.378-6.718 3.985.972.615.599.871-1.288.882-2.08.012-2.553-.38-2.181-1.805.262-1.001-.203-2.384-1.034-3.073-.831-.689-1.235-1.969-.9-2.844.378-.983.204-1.34-.454-.933-.586.362-1.323-.014-1.639-.836-.409-1.065.104-1.494 1.788-1.494 3.074 0 3.721-1.927 2.605-7.752-1.2-6.256.384-11.525 4.568-15.199 1.92-1.686 3.385-4.021 3.577-5.702.372-3.245 4.339-4.062 6.544-1.347 1.066 1.312 1.222 1.28 1.25-.25.018-.962-.481-1.75-1.108-1.75-.626 0 .519-1.125 2.545-2.5 4.968-3.372 7.342-3.291 7.357.25.006 1.513-.38 3.493-.857 4.4-1.267 2.407 1.969 3.386 3.69 1.117.813-1.071 1.354-1.274 1.373-.517.059 2.313.294 2.745 2.228 4.1 1.06.742 3.423 1.35 5.25 1.35 3.679 0 5.575 2.404 5.363 6.8-.206 4.305 1.411 18.428 2.291 20 .488.872.924-4.775 1.042-13.5.157-11.601.352-13.527.858-8.5l.655 6.5.172-6.691c.194-7.512 2.089-10.474 2.315-3.618l.142 4.309.678-4 .678-4 .43 3.944.43 3.944 2.623-2.444c1.683-1.569 2.807-3.877 3.136-6.444.283-2.2.861-5.084 1.285-6.408.701-2.187.551-2.345-1.636-1.726-8.202 2.323-8.264 2.307-7.659-1.96.305-2.149.849-4.634 1.209-5.523 1.385-3.422-18.087-4.509-21.633-1.208-2.108 1.962-2.823 2.073-7.651 1.186-3.89-.715-5.71-.661-6.75.202-1.145.95-1.43.815-1.454-.691-.029-1.764-.09-1.77-1.061-.102-.567.974-.768 2.598-.447 3.609.333 1.051-.069 2.38-.939 3.102-.838.695-1.523 1.805-1.523 2.467 0 .662-1.113 2.249-2.474 3.527-4.317 4.056-4.496-.159-.209-4.904 2.415-2.673 3.37-4.552 3.012-5.922-.579-2.214 2.554-8.339 3.854-7.536.45.278.817-1.348.817-3.613 0-2.278-.415-3.862-.928-3.544-1.128.697-2.451-3.033-1.578-4.447.343-.555-.078-1.009-.935-1.009-1.594 0-2.042 1.618-1.646 5.945l.224 2.446-2.035-2.446c-1.99-2.39-2.036-2.397-2.069-.302-.018 1.179-.708 2.402-1.533 2.719-.825.316-1.5.107-1.5-.465 0-.572-.688-.352-1.529.489-1.779 1.779-4.164 1.172-4.798-1.221-.243-.916-.493.724-.557 3.644-.076 3.487-.483 5.082-1.184 4.649-.588-.363-.827-1.29-.532-2.059.296-.77.101-1.399-.431-1.399-.554 0-.98 3.967-.994 9.25-.038 13.954-.755 22.93-1.925 24.1-.733.733-1.05.688-1.05-.15 0-.66-.957-2.157-2.126-3.326-1.766-1.766-2.103-3.218-1.987-8.57.09-4.148-.441-7.67-1.491-9.883-1.335-2.812-1.417-3.957-.45-6.291 1.611-3.888 1.003-11.529-.946-11.893-1.277-.239-1.538 2.206-1.755 16.413-.14 9.181-.465 16.904-.723 17.161-.818.818-7.522-4.851-7.522-6.362 0-.797-.352-1.449-.783-1.449-.431 0-.724-1.238-.652-2.75.073-1.513-.212-3.875-.633-5.25-.421-1.375-1.012-4.91-1.314-7.855l-.549-5.355 3.466.651c4.681.878 4.875-2.02.215-3.223l-3.25-.839-.632-10.939c-.348-6.017-.929-11.65-1.291-12.518-.362-.867-.201-2.78.357-4.25L308.95 4l-9.725-.028c-5.349-.016-22.775-.196-38.725-.401-15.95-.205-27.537-.164-25.75.091m127.094 1.377c1.29.531 5.115.957 8.5.946 9.032-.03 9.656.043 9.656 1.136 0 .548.342.785.761.527 1.585-.98 3.947 1.833 3.237 3.853-.67 1.909-.735 1.894-1.44-.323-.502-1.579-1.244-2.129-2.318-1.716-.869.333-1.94.028-2.38-.678-.537-.862-1.015-.22-1.452 1.95-.358 1.778-1.052 2.986-1.541 2.683-.49-.302-1.168.84-1.508 2.538-.929 4.645-2.359 4.708-2.359.104 0-5.376-1.78-5.226-2.268.191-.366 4.063-.39 4.019-.557-1-.198-5.949-2.144-7.257-2.233-1.5-.031 2.063-.401 5.55-.82 7.75-.704 3.689-.825 3.354-1.551-4.297-.521-5.486-1.174-8.17-1.929-7.922-1.255.413-2.605 13.721-1.392 13.72.413-.001.75 3.776.75 8.392 0 6.538.332 8.52 1.5 8.969.871.334 1.5.016 1.5-.757 0-.767.955-1.258 2.25-1.157 1.238.097 2.635-.02 3.105-.26.47-.239 3.17-.611 6-.826 3.294-.25 5.595-.994 6.395-2.067 1.076-1.444 1.25-1.155 1.25 2.073 0 2.405.383 3.513 1.068 3.09.588-.363.827-1.29.532-2.059-.296-.77-.101-1.399.431-1.399.533 0 .969.52.969 1.155 0 1.785 3.996-2.24 4.03-4.06.026-1.364.179-1.341 1.05.155 1.698 2.915 4.06 2.249 2.895-.815-.536-1.411-.922-3.998-.857-5.75.102-2.755.25-2.556 1.091 1.472 1.053 5.039 2.832 6.319 8.198 5.9 2.899-.226 7.434 1.542 8.828 3.441.651.888 1.23-1.644.868-3.795-.074-.439.435-.723 1.131-.632 3.215.422 4.679-.135 4.128-1.571-.317-.825-1.203-1.5-1.969-1.5s-1.386-.788-1.378-1.75c.01-1.074.3-1.327.75-.656.526.782 1.589.736 3.735-.161l3-1.254-2.659-.675c-2.479-.629-2.739-1.24-3.842-9.011-.651-4.585-.887-9.272-.524-10.415.544-1.715.235-2.078-1.769-2.078-1.918 0-2.382.473-2.205 2.25.18 1.812.129 1.861-.263.25l-.487-2-.805 2c-.764 1.898-.809 1.885-.876-.25-.038-1.238-.632-2.283-1.32-2.323-12.491-.728-46.735-.643-44.906.112M12.873 31.75c-1.318.962-3.291 2.246-4.384 2.852-1.094.606-2.104 1.956-2.245 3-.869 6.448 9.292 4.712 13.185-2.253 1.964-3.514 2.111-4.312.882-4.783-2.589-.994-4.976-.614-7.438 1.184m444.297 5.192c-.789 2.265-1.954 3.192-5.056 4.027-4.352 1.172-5.341 2.145-5.507 5.414-.093 1.829-.626 2.066-3.993 1.775-2.189-.188-4.195.164-4.592.807-.47.76-2.127-.046-4.958-2.412-2.339-1.954-4.773-3.592-5.409-3.64-.635-.047-2.617-.237-4.405-.422-6.236-.643-3.048 2.445 4.118 3.988 3.684.794 2.919 1.534-1.769 1.71-2.026.076-3.946.563-4.266 1.081-.337.545-.9.431-1.333-.27-.429-.695-1.612-.941-2.765-.575-2.45.778-4.99 9.22-3.287 10.923 1.618 1.618 1.249 2.659-.698 1.973-1.429-.502-1.52-.368-.5.732 1.571 1.692 1.612 3.025.084 2.697-1.768-.379-2.82 5.977-2.192 13.25.309 3.575.742 8.525.963 11 .221 2.475.428 5.287.46 6.25.083 2.443 1.935 2.204 1.935-.25 0-1.1.436-2 .969-2 .532 0 .737.603.454 1.34-.283.737.157 1.897.977 2.577 1.142.948 1.26 1.847.505 3.833-.543 1.427-.757 3.192-.477 3.922.28.731.186 1.328-.209 1.328-.396 0-.797 1.237-.892 2.75-.095 1.513-.472 4.836-.838 7.386-.718 5.001.501 6.947 3.034 4.845 1.073-.891 1.174-1.68.398-3.129-.724-1.353-.682-4.262.141-9.645 1.593-10.424 1.795-11.047 2.976-9.179.512.81.945 1.022.962.472.048-1.583 1.969 1.831 1.969 3.5 0 1.333-.107 1.333-.969 0-.665-1.028-.974 1.408-.985 7.75-.008 5.097.406 9.25.922 9.25s.691-1.518.39-3.373c-.321-1.975-.087-3.657.563-4.059.61-.377 1.11-.209 1.11.373s.45 1.059 1 1.059 1-1.125 1-2.5.436-2.5.969-2.5c1.171 0 .109-3.21-1.396-4.219-.758-.509-.736-1.265.075-2.574.935-1.509.801-2.07-.72-3.02-1.301-.812-1.828-2.233-1.736-4.677.151-4.015.899-4.454 2.321-1.363.543 1.18 2.983 2.915 5.423 3.854 2.44.94 3.812 1.916 3.049 2.171-4.197 1.399 1.392 1.231 5.921-.178l5.405-1.682-3.405-.738c-3.676-.798-3.38-1.11 3.344-3.533 2.614-.942 3.997-3.318 1.625-2.791-.619.137-1.355-.384-1.636-1.159-.362-.997-.009-1.217 1.204-.751 1.464.562 1.618.216 1.053-2.357-.645-2.938-.596-2.986 1.902-1.848 1.41.643 2.863 2.111 3.228 3.263.906 2.853 3.487 4.638 5.729 3.961 1.666-.503 1.794-.117 1.259 3.79l-.595 4.351 1.309-3.44c.721-1.891 1.809-3.606 2.419-3.809 1.698-.566 1.998 4.89.447 8.127-.758 1.583-1.153 4.054-.879 5.49.275 1.436.075 3.403-.443 4.371-.618 1.154-.586 1.761.093 1.761.569 0 1.035-.45 1.035-1s.45-1 1-1c1.275 0 1.315 2.723.047 3.167-.524.183-1.219 2.358-1.544 4.833l-.59 4.5 1.462-3c1.207-2.476 1.477-2.64 1.544-.939.044 1.134-.76 2.965-1.789 4.069-1.557 1.672-1.658 2.296-.601 3.741.965 1.319 1.405 1.423 1.837.432.313-.717.322.497.021 2.697l-.549 4 1.581-2.864c.87-1.576 1.581-3.676 1.581-4.667 0-.991.563-2.006 1.25-2.255.999-.362.997-.881-.008-2.583-1.038-1.757-1.014-2.131.133-2.131.765 0 1.717-1.013 2.114-2.25.631-1.963.784-2.02 1.201-.445.263.993 1.003 1.629 1.644 1.413.641-.217 1.76.321 2.486 1.194 1.129 1.358 1.247 1.044.813-2.162-.457-3.376-.282-3.75 1.751-3.75 2.205 0 2.247.204 1.82 8.75-.701 14.008-1.262 16.158-3.954 15.154-1.74-.649-2.287-1.697-2.413-4.622-.137-3.173-.271-2.897-.837 1.718l-.674 5.5-.163-6.191c-.208-7.885-2.163-9.574-2.163-1.868 0 6.246-2.383 7.706-5.443 3.336-1.074-1.533-1.583-1.765-1.639-.75-.045.81-.286 2.711-.534 4.223-.362 2.199-.069 2.75 1.459 2.75 3.314 0 3.967 2.02 3.049 9.433-.877 7.078-.511 9.16 1.147 6.538.758-1.199.946-1.101 1.016.529l.086 2 .859-2c.473-1.1.859-2.9.859-4 0-1.942-.022-1.944-.757-.066-.416 1.063-1.015 1.513-1.331 1-.89-1.446-.674-8.434.259-8.434.457 0 .975-1.008 1.15-2.24.176-1.232 1.108-2.39 2.07-2.573 2.232-.425 2.328 5.279.313 18.515-.77 5.061-1.182 10.037-.916 11.058.267 1.021-.219 4.895-1.081 8.61-.861 3.715-1.559 8.189-1.551 9.942.018 3.757-6.912 17.87-8.341 16.987-.548-.339-.667-.097-.269.546.392.635.309 1.155-.185 1.155-1.315 0-3.306 4.829-2.258 5.477.488.301 1.093-.246 1.346-1.215.253-.969.512-.074.576 1.988.064 2.063-.334 3.75-.884 3.75s-1.046-1.012-1.102-2.25c-.081-1.783-.254-1.627-.833.75-.402 1.65-1.481 4.44-2.398 6.2-1.829 3.512-2.089 4.679-.875 3.928.436-.269.857.358.935 1.395.082 1.085-.703 2.152-1.851 2.516-2.182.693-2.296 4.501-.156 5.206 2.495.821 5.323-5.869 4.648-10.995-1.123-8.523 3.754-4.696 5.257 4.126.129.756-.296 2.244-.945 3.305-.971 1.588-.866 2.108.591 2.936 1.962 1.115 1.422 3.086-.631 2.299-1.705-.655-6.906 1.345-6.251 2.404.771 1.248-3.378 4.398-4.983 3.782-.773-.296-1.438-1.341-1.476-2.321-.062-1.559-.178-1.532-.93.219-1.296 3.017-1.157 4.498.368 3.912.869-.333 2.098.953 3.374 3.532 1.104 2.231 1.614 4.056 1.133 4.056-.481 0-.875 1.111-.875 2.469 0 1.783.416 2.308 1.5 1.893.825-.317 1.5-.051 1.5.59s-.432.899-.96.573c-.554-.343-.497.735.135 2.548 1.272 3.649-.321 5.455-3.371 3.822-.992-.531-1.804-.655-1.804-.275 0 .379-.9-.125-2-1.12-1.941-1.757-2-1.747-2 .345 0 3.017-1.198 2.673-3.25-.932-2.171-3.815-2.285-5.602-.25-3.913.837.694 1.5.803 1.5.245 0-3.061-2.887-3.246-4.629-.296-.991 1.678-2.177 3.051-2.635 3.051-.457 0 .652 2.131 2.466 4.735 4.741 6.807 6.723 11.27 6.779 15.265.036 2.549.301 3.102.977 2.034.875-1.384 3.042 2.143 3.042 4.952 0 .471 1.594 4.604 3.543 9.185s4.181 11.01 4.96 14.287c1.391 5.851 1.371 6.018-1.094 9.25-2.977 3.903-2.283 4.196 2.071.875 1.978-1.509 3.661-2.114 4.477-1.61.934.578.343 1.276-2.075 2.451-3.938 1.912-9.348 6.443-8.594 7.197.776.777 8.352-3.318 10.597-5.728 2.038-2.187 4.644-1.714 3.727.676-.289.752-.051 1.659.527 2.017 2.766 1.709-13.945 13.71-25.128 18.046l-3.511 1.361 4.5-.621c2.475-.342 7.988-2.341 12.25-4.442s7.738-3.508 7.723-3.125c-.047 1.214-5.918 7.743-5.946 6.612-.046-1.868-3.443-.941-9.593 2.618-18.836 10.9-21.84 12.254-25.426 11.467-3.822-.84-2.952-3.034 1.83-4.617 2.014-.666 3.141-1.387 2.505-1.601-.636-.214-2.799.298-4.807 1.137-4.806 2.008-7.115.611-7.985-4.83-.462-2.887-.9-3.644-1.524-2.635-.69 1.116-1.37 1.18-3.201.298-1.279-.615-1.763-1.149-1.076-1.186.836-.046.671-.674-.5-1.897-3.139-3.28-6.405-7.352-6.074-7.572.178-.118 3.695-2.214 7.814-4.657 4.12-2.443 8.845-5.604 10.5-7.023 4.958-4.252 7.285-4.455 6.597-.575-.082.464.427.647 1.132.407.704-.24 1.136-1.434.958-2.654-.178-1.219.199-2.845.836-3.613 1.27-1.53.412-3.864-1.082-2.941-.55.34-.931-3.362-.931-9.043 0-6.286-.354-9.4-1.021-8.987-.629.389-.791 3.192-.423 7.309l.596 6.678-3.059-5c-1.682-2.75-3.067-5.513-3.076-6.141-.056-3.781-5.632-12.202-8.162-12.327-1.693-.084 4.029 15.395 5.955 16.107 1.538.569 7.349 11.004 6.851 12.302-.247.643-2.409 1.793-4.805 2.557-6.265 1.995-14.754 7.603-15.842 10.464-.867 2.28-1.288 2.411-5.973 1.856-4.247-.503-5.041-.339-5.041 1.043 0 .972.813 1.639 2 1.639 2.582 0 2.788 4.484.25 5.458-2.53.97-2.684.896-3.4-1.649-.605-2.149-.658-2.163-.75-.213-.241 5.058 7.137 15.282 9.57 13.263 1.279-1.061 1.945 1.731 1.405 5.891-.09.688.757 1.25 1.881 1.25 1.35 0 2.044.653 2.044 1.922 0 1.336 1.145 2.3 3.75 3.158 2.063.679 4.298 1.952 4.968 2.827 1.104 1.443 1.221 1.431 1.25-.122.034-1.843 2.876-3.785 5.54-3.785 1.04 0 1.499.639 1.256 1.75-.211.962-.974 1.619-1.696 1.459-.791-.175-1.091.289-.754 1.167.705 1.837-1.691 2.847-3.192 1.346-.829-.829-1.122-.678-1.122.578 0 1.271.869 1.7 3.441 1.7 4.21 0 5.166-1.144 5.434-6.5.095-1.899.666-2.492 2.375-2.468 2.084.029 2.121.13.5 1.36-2.423 1.84-2.346 3.997.097 2.69 1.174-.628 2.195-.64 2.802-.033.608.608 2.186.049 4.332-1.535 1.857-1.37 3.606-2.26 3.887-1.979.281.281-.455 1.188-1.636 2.015-1.237.867-1.909 2.129-1.583 2.977.311.81.067 1.473-.542 1.473s-1.107.425-1.107.944c0 1.15 58.556.834 59.711-.322.67-.672.761-44.746.329-159.872-.053-14.086-.458-22.75-1.063-22.75-.537 0-1.03-1.238-1.095-2.75l-.119-2.75-.763 3-.763 3-.132-3c-.437-9.929-3.296-9.512-3.801.554-.289 5.758-.796 7.786-2.236 8.946-1.297 1.044-2.056 3.411-2.498 7.784-.349 3.456-1.07 8.58-1.602 11.386-.533 2.807-.968 5.267-.968 5.466 0 .2-.427.364-.949.364-.554 0-.811-3.944-.617-9.5.194-5.564-.062-9.5-.619-9.5-1.15 0-.891-13.814.304-16.15.569-1.112.382-1.828-.575-2.195-.814-.312-1.609.178-1.865 1.15-.854 3.241-.633-5.346.304-11.805.623-4.291.603-6.618-.059-6.846-.605-.21-.769-2.582-.414-6 .324-3.11.711-8.129.86-11.154.24-4.852.539-5.539 2.536-5.831 3.012-.44 5.094-5.584 5.094-12.588 0-9.353 1.762-15.406 4.966-17.063 1.535-.794 3.104-2.248 3.486-3.231.801-2.063.751-55.595-.054-57.693-.742-1.932-4.323-2.704-6.685-1.441-1.436.769-2.64.689-4.483-.297-2.32-1.242-2.678-1.136-4.524 1.336l-2.005 2.685-5.902-7.688c-8.51-11.085-9.973-11.997-11.629-7.247M235 35.817c0 .41-1.35 1.254-3 1.877-1.831.691-3.001 1.848-3.004 2.969-.002 1.01-.902 3.31-2 5.111-2.077 3.408-2.599 8.725-1.09 11.108.615.971 1.36-.369 2.504-4.5.896-3.235 2.07-6.663 2.61-7.618.539-.955.98-2.595.98-3.643 0-2.503 2.408-3.348 5.512-1.934 2.973 1.355 3.031 2.433.751 13.908-1.733 8.722-1.744 8.742-5.03 9.126-2.763.323-3.387.014-3.872-1.918-.787-3.138-2.715-2.937-2.112.221.266 1.388.206 2.694-.133 2.901-.339.208-.465 3.615-.28 7.571.304 6.507.518 7.145 2.245 6.693 2.449-.64 1.656 3.708-1.264 6.931-1.901 2.098-1.898 2.125.305 2.702 3.005.785 4.15-.103 3.495-2.713-.374-1.487.08-2.563 1.436-3.41 1.804-1.127 1.968-.99 1.831 1.532-.083 1.523.212 3.635.656 4.693.622 1.481.464 1.791-.688 1.349-2.401-.921-3.577 2.231-2.605 6.977.479 2.337 1.268 4.25 1.753 4.25.485 0 1.311-1.912 1.834-4.25l.952-4.25.175 5.5c.15 4.734.326 5.187 1.259 3.25 1.333-2.762 2.393-2.843 3.98-.301.833 1.334 1.586 1.643 2.385.98 1.691-1.403 4.288 4.606 4.795 11.09.545 6.974-1.042 8.466-14.294 13.44-4.267 1.601-4.484 1.588-6.473-.401-1.165-1.166-1.527-2.058-.835-2.058.672 0 1.222-.527 1.222-1.171s.652-1.892 1.449-2.773c.873-.965 1.123-2.131.628-2.932-1.101-1.781-5.077.264-5.077 2.611 0 1.08-.342 1.323-.974.691-1.082-1.082-.208-8.426 1.003-8.426.421 0 .62-1.687.442-3.75-.178-2.062-.357-4.523-.398-5.469-.043-1.005-.626-1.506-1.406-1.207-.756.291-1.334-.156-1.334-1.031 0-.849.6-1.543 1.334-1.543 1.559 0 1.769-2.164.348-3.585-.542-.542-1.186-2.544-1.432-4.45a433.146 433.146 0 00-.516-3.906c-.037-.243-.728.432-1.535 1.5-.808 1.067-1.483 1.396-1.5.73-.018-.666-.98-2.094-2.138-3.173-1.159-1.08-1.864-2.356-1.566-2.837.297-.481.165-1.481-.293-2.222-.62-1.004-1.242-.558-2.434 1.748-1.996 3.86-2.022 5.195-.101 5.195.825 0 1.5-.436 1.5-.969 0-.532.688-.704 1.529-.381 1.322.507 1.288.77-.25 1.936-.978.743-1.468 1.365-1.089 1.382C216.839 89.044 205.114 99 203.376 99c-2.072 0-3.505-1.42-10.096-10-2.323-3.025-4.732-6.092-5.353-6.816-1.331-1.551-1.463-1.391 3.408-4.107 5.431-3.028 11.374-3.643 16.105-1.666 5.522 2.307 9.286.654 6.795-2.984-1.121-1.636-4.06-2.452-4.464-1.239-.234.702-1.459.508-3.515-.556-3.292-1.702-9.256-2.229-9.256-.817 0 1.433-6.821 4.221-7.242 2.96-.207-.621-.912-.798-1.567-.393-1.842 1.138-1.406 2.634.559 1.916 1.162-.424.826.305-1 2.168-1.512 1.544-2.75 3.195-2.75 3.67 0 .475-.578.864-1.284.864-2.478 0-5.06 5.799-3.346 7.512 1.405 1.406 2.643.001 3.096-3.512.173-1.344 1.764-2.976 2.474-2.537.659.407 1.967 4.558 2.45 7.772.06.404 2.042 2.728 4.403 5.164 5.68 5.861 3.627 6.973-2.531 1.372-8.081-7.351-8.262-7.444-8.262-4.24 0 1.982 1.216 3.902 4.25 6.712 4.478 4.148 8.542 6.847 7.312 4.857-.374-.605-.23-1.1.32-1.1 1.58 0 2.265 1.782.874 2.274-.691.245.656 1.029 2.994 1.744 5.193 1.587 5.195 1.627.283 7.207-4.021 4.569-4.559 7.274-.738 3.715 1.145-1.067 2.56-1.946 3.144-1.952.938-.011 5.561-6.198 5.561-7.443 0-.265-.787-.187-1.75.174-1.583.593 1.189-2.296 9.512-9.915 2.214-2.028 3.23-2.412 4.092-1.55.861.861 1.146.476 1.146-1.554 0-3.381 1.575-3.53 2.404-.228 1.086 4.329-.466 13.718-2.161 13.068-1.196-.459-1.344.108-.793 3.046.448 2.388.327 3.394-.357 2.972-.569-.352-1.321.5-1.67 1.894-.35 1.394-1.006 2.306-1.458 2.027-.451-.28-1.097.36-1.433 1.421-.692 2.178.296 7.1 1.424 7.1.407 0 .778 1.35.825 3 .047 1.65-.335 3-.848 3-.513 0-.933 3.198-.933 7.107 0 5.906.253 7.01 1.5 6.531.825-.316 1.514-.027 1.532.643.017.671.702.332 1.522-.752.82-1.085 1.221-2.66.892-3.5-.329-.841-.816-3.304-1.083-5.474-.267-2.169-.69-4.275-.941-4.68-.25-.405.025-1.033.61-1.395.656-.405.716-1.104.156-1.819-1.314-1.677-.234-8.661 1.338-8.661.719 0 1.508-.562 1.754-1.25.245-.687.808-.912 1.251-.498.443.413.179 1.921-.586 3.35-1.232 2.303-1.192 2.744.35 3.872 1.615 1.18 1.633 1.734.257 7.633-1.665 7.136-1.077 8.545 2.824 6.767 1.475-.671 2.229-1.5 1.676-1.842-.666-.412-.629-1.951.113-4.576.614-2.176 1.311-3.41 1.547-2.742.325.915.874.937 2.23.09 1.446-.903 2.464-.651 5.179 1.284 1.858 1.325 3.679 2.41 4.046 2.41.366.001 1.004.34 1.416.752.413.412.225.75-.416.75-.642 0-1.167.904-1.167 2.009 0 1.856-.435 1.958-5.75 1.337-5.275-.617-5.637-.536-4.384.984 3.559 4.312 13.657 4.418 14.727.155.697-2.777.847-2.851 3.223-1.593.926.491 3.259 1.114 5.184 1.385 1.925.272 4.031.658 4.679.858.649.201 1.917-.535 2.818-1.635 1.564-1.91 1.616-1.811 1.171 2.211-.445 4.01 1.079 7.209 2.674 5.614.362-.362.658-.329.658.074 0 1.412-2.327 5.059-5.146 8.066-3.398 3.626-3.827 1.913-1.321-5.281 2.159-6.202-.1-9.057-2.528-3.195-1.588 3.832-.495 14.011 1.504 14.011 1.011 0 1.212.942.776 3.634-.462 2.846-.286 3.533.812 3.167.772-.257 1.459-.993 1.528-1.634.069-.642.181-1.606.25-2.142.08-.621 1.122-.597 2.864.066 3.562 1.354 10.142 1.428 11.442.128.692-.692.265-1.773-1.331-3.369-1.292-1.292-2.238-2.687-2.1-3.1.422-1.266-.807-.836-2.527.884-1.329 1.33-1.717 1.376-2.078.25-.245-.761-.845-1.646-1.334-1.967-1.327-.87.895-5.917 2.605-5.917.806 0 1.708.392 2.004.871.296.479 1.884 1.14 3.528 1.469 3.36.672 7.052 3.893 7.052 6.152 0 1.676-5.766 7.145-7.124 6.758-.482-.137-.876.316-.876 1.007 0 .882-1.383 1.147-4.628.889-5.532-.44-5.25 1.271.462 2.809 6.722 1.81 11.176-.094 14.232-6.085 3.848-7.543 2.328-12.425-4.796-15.402-2.282-.953-3.27-2.028-3.27-3.556 0-2.043-.34-2.15-5.032-1.595-3.072.364-4.804.227-4.446-.352.322-.522.144-1.74-.397-2.706-.711-1.271-.553-2.233.572-3.477 1.442-1.593 1.337-1.691-1.442-1.34l-2.997.38-.68-6.636c-.648-6.328-.561-6.723 1.871-8.495 2.192-1.596 2.551-2.62 2.551-7.274 0-2.98.45-5.417 1-5.417s1 .639 1 1.421c0 1.509 4.532 2.956 9.5 3.033 2.289.035 2.93.461 2.706 1.796-.232 1.385.425 1.75 3.15 1.75 3.319 0 3.489.187 4.676 5.135.817 3.402.97 7.366.456 11.75-.427 3.638-.715 8.391-.64 10.561.074 2.171-.349 4.245-.94 4.611-.686.424-.502.885.508 1.272.871.335 1.584.172 1.584-.36 0-.533.788-1.005 1.75-1.048 1.045-.047 1.247-.282.5-.583-.687-.278-1.25-1.128-1.25-1.89 0-.82.612-1.151 1.5-.81.825.317 1.5.051 1.5-.59s-.39-.925-.867-.63c-.477.295-1.155-1.563-1.507-4.128-.351-2.565-.239-4.917.251-5.227 1.199-.759 3.421-11.772 2.632-13.049-.345-.558-.124-1.014.491-1.014s.863-.412.552-.916c-.312-.504-.1-2.144.471-3.644.687-1.808.71-3.775.067-5.834-1.225-3.924-1.974-20.652-.895-19.985.735.454 1.261-1.9.888-3.976-.084-.471.309-1.412.873-2.092.565-.68.716-1.548.336-1.928-.38-.379-.567-2.7-.416-5.158.174-2.826-.142-4.467-.859-4.467-.624 0-.93-.338-.68-.75.251-.412.749-3.842 1.107-7.621l.652-6.87-2.548.64c-1.948.489-2.548.256-2.548-.987 0-.894-.562-1.412-1.25-1.15-1.838.699-5.982-1.078-5.255-2.254.372-.602-.754-1.008-2.801-1.008-1.893 0-4.545-.881-5.93-1.971-2.41-1.896-2.569-1.902-4.135-.171-1.883 2.08-2.164 3.591-.474 2.547.715-.443.883-.275.44.44-.462.749.117 1.155 1.646 1.155 1.297 0 2.918.559 3.601 1.242.988.988 1.44.938 2.219-.25.85-1.299 1.151-1.265 2.318.258.738.962 2.192 1.787 3.231 1.832 1.317.056.928.503-1.283 1.471-1.746.765-3.46 1.853-3.809 2.419-.35.565-1.558 1.028-2.684 1.028-1.472 0-1.874.453-1.43 1.611.474 1.236.208 1.443-1.143.89-.968-.397-3.786-.915-6.261-1.15l-4.5-.429 3.5 1.342c7.235 2.773 7.838 3.416 4.478 4.778-6.646 2.693-7.62 3.55-10.967 9.64-3.442 6.26-4.364 11.859-1.791 10.872.704-.27 1.287.057 1.295.727.012.91.203.924.757.054 1.011-1.59 3.627.471 4.018 3.165.514 3.545 2.525 6.593 3.981 6.034.825-.316 1.228-.023.984.715-.832 2.527-4.474 2.006-5.163-.738-.764-3.045-3.039-4.215-5.012-2.578-1.084.9-1.171 1.963-.395 4.776.55 1.99.74 4.917.422 6.505-.317 1.587-.181 2.641.303 2.341 1.482-.915 2.153 2.458.941 4.724-2.179 4.071-6.079-10.708-6.093-23.087-.01-8.206-.286-10.204-1.353-9.794-.738.283-1.607.084-1.932-.442-1.201-1.943-2.146-.831-3.49 4.107-1.638 6.016-2.17 6.493-4.437 3.987-2.335-2.579-3.414-13.887-1.444-15.134 1.882-1.192 3.159-1.147 2.398.084-.34.55-.19 1 .334 1 .969 0 2.166-2.321 2.166-4.198 0-.569-1.125-.82-2.5-.557-2.26.432-2.5.159-2.5-2.836 0-3.1.194-3.289 3-2.934 2.427.307 3 .011 3-1.548 0-1.414-.7-1.927-2.629-1.927h-2.628l.658-8.358c.361-4.597 1.025-9.66 1.474-11.25.45-1.591.624-3.454.388-4.142-.509-1.48 2.341-1.7 3.237-.25.34.55 1.491 1 2.559 1s1.941.345 1.941.766c0 1.269 10.927 7.397 12.002 6.732 2.412-1.49-1.257-4.438-14.032-11.276-5.229-2.799-14.97-4.364-14.97-2.405M79.5 49.269c-1.1.665-6.14 1.453-11.199 1.752-10.761.637-14.448 2.432-6.729 3.277 3.042.333 3.428.694 3.428 3.202 0 .933-.944 1.5-2.5 1.5-2.683 0-3.166.934-1.399 2.701 1.175 1.175.4 1.546-5.851 2.804-1.788.36-3.25 1.117-3.25 1.683 0 .606 1.058.763 2.575.383C57.352 65.873 64 67.815 64 69.323c0 .507.748.304 1.663-.451 1.401-1.156 1.734-1.158 2.121-.009.372 1.107.61 1.118 1.262.062.455-.735 3.083-1.417 6.042-1.567 2.88-.147 5.502-.624 5.825-1.062 1.473-1.996 5.435-3.325 8.382-2.81 1.763.308 4.555.138 6.205-.377 1.65-.515 2.325-.983 1.5-1.038-3.425-.232 1.585-2.041 5.691-2.056 5.994-.022 6.576 1.957.618 2.101-2.645.064-3.998.326-3.006.584 1.431.371 1.561.759.628 1.884-.821.988-.862 1.794-.137 2.667 1.201 1.447 2.079 17.755.956 17.751-.412-.001-.75 6.284-.75 13.967 0 12.301.188 13.896 1.575 13.364 1.001-.384 1.504-.099 1.382.781-.416 2.974.099 4.886 1.314 4.886 1.209 0 3.549 8.637 4.199 15.5.795 8.396 2.404 7.884 2.467-.785.072-10.074 1.436-13.137 6.855-15.401 3.577-1.495 6.208-.541 6.208 2.249 0 .726.468 1.608 1.04 1.962.675.417.812-.266.392-1.941-.358-1.425-.221-2.584.305-2.584 2.318 0 4.289 4.135 5.267 11.052.58 4.096 1.491 7.598 2.025 7.781.534.184 1 1.534 1.034 3l.064 2.667 1.027-2.5c1.402-3.41 1.375-14.324-.036-14.794-.615-.205-1.124-1.798-1.132-3.539-.024-5.56-1.014-7.667-3.603-7.667-2.084 0-2.385-.47-2.398-3.75-.012-2.789-.264-3.366-.985-2.25-.872 1.349-1.43.725-1.118-1.25.065-.412-.384-.75-.999-.75-.634 0-.884.888-.578 2.057.342 1.309.111 1.915-.634 1.667-1.163-.388-1.306-.83-1.546-4.783-.069-1.132-.484-1.837-.923-1.566-.439.271-1.451.08-2.25-.426-1.11-.702-.863-.925 1.048-.947 1.375-.016 3.482-.293 4.682-.615 1.812-.485 2.093-.243 1.656 1.429-.373 1.425.251 2.524 2.132 3.757 2.574 1.686 2.73 1.671 4.845-.476l2.185-2.219-2.25-1.849c-1.61-1.324-2.25-2.924-2.25-5.628v-3.778l-2.028 2.176c-2.973 3.192-5.999 3.57-13.115 1.641-7.05-1.911-8.857-3.468-8.857-7.631 0-1.545-.394-2.809-.875-2.809-1.717 0-2.211-6.247-.633-7.992 2.423-2.677 1.89-4.656-.649-2.413-2.148 1.897-2.154 1.895-1.514-.595.354-1.375.65-4.412.657-6.75.015-4.712.907-5.141 6.488-3.123 3.415 1.235 8.235 8.431 6.167 9.207-.627.235-.016.878 1.359 1.429 4.079 1.635 9.75 7.464 11.925 12.259l2.031 4.478.121-4.5.121-4.5L134.6 87c.772 2.475 2.102 5.018 2.956 5.65.854.633 1.624 2.095 1.711 3.25.374 4.953 1.485 1.392 2.388-7.65.984-9.841.676-13.564-1.155-13.974-.55-.123-2.799-.869-4.999-1.657-2.988-1.07-4.202-1.14-4.805-.276-.745 1.069-.423-5.084.431-8.213.415-1.524-5.054-3.932-9.21-4.054-1.421-.042-2.872-.364-3.224-.716-.352-.352-2.789-.825-5.416-1.051-2.628-.225-5.205-.837-5.727-1.359-1.26-1.26-2.836-1.221-2.05.05 1.03 1.666-.739 1.122-2.936-.904-1.135-1.047-3.777-2.368-5.87-2.935-4.095-1.109-3.959-1.222-5.19 4.329-1.218 5.496-5.693 6.452-4.813 1.028.43-2.65.176-3.632-1.063-4.107-2.26-.867-2.038-3.07.372-3.701 1.1-.287 2-1.015 2-1.616 0-1.464-5.991-1.341-8.5.175m141.078-.519c-.415.413-1.376 2.235-2.136 4.051-1.162 2.773-1.679 3.142-3.237 2.309-6.289-3.366-18.774-.506-22.179 5.08-4.273 7.007.167 9.529 4.789 2.72 3.051-4.493 14.522-8.174 18.266-5.86 1.601.989 3.382-.829 5.294-5.404 1.402-3.358 1.03-4.711-.797-2.896m234.614 11.11c-.877.557-1.075 1.758-.6 3.649.588 2.345.434 2.715-.915 2.197-1.245-.477-1.872.306-2.696 3.366-.591 2.194-1.503 3.723-2.028 3.399-.524-.324-.953.139-.953 1.029 0 .89.47 1.328 1.044.973.574-.355 1.668-.127 2.43.505 1.588 1.318 3.399-1.277 4.52-6.478l.647-3 2.61 5c1.436 2.75 3.831 6.287 5.323 7.861l2.713 2.861-3.144-.691c-1.811-.397-3.143-.285-3.143.265 0 .524 1.462 1.249 3.25 1.609 1.857.374 2.772.964 2.135 1.375-.614.396-1.424 1.845-1.802 3.22-.659 2.401-.625 2.423.865.559 1.536-1.922 1.553-1.922 1.615 0 .055 1.661.2 1.601 1.006-.412.609-1.519.547-4.71-.173-9-1.574-9.378-1.779-9.946-2.934-8.119-.776 1.226-.934 1.172-.947-.328-.02-2.363-2.899-7.877-4.919-9.418-1.912-1.46-2.216-1.492-3.904-.422m-168.9 5.512l-3.679 3.371-1.773-2.121c-1.579-1.889-1.777-1.926-1.807-.341-.018.98.614 2.03 1.404 2.333 2.47.948.518 3.386-2.711 3.386-5.89 0-2.231 1.281 5.531 1.936.416.035 1.734 1.189 2.93 2.564 3.743 4.305 4.655 3.281 4.452-5-.102-4.125.163-7.5.588-7.5.425 0 .773-.45.773-1 0-1.854-2.008-1.019-5.708 2.372m25.625 2.878c-.128 3.451-.586 6.076-1.395 8-.516 1.226-.277 1.75.799 1.75 1.245 0 1.444.989 1.056 5.25-.71 7.794 2.546 10.887 3.969 3.771.658-3.29 3.217-4.108 3.975-1.271.394 1.476.581 1.394 1.195-.521.575-1.792 1.019-2.03 2.106-1.128 1.057.877 1.382.824 1.393-.229.01-.826.308-.974.75-.372 3.113 4.237 4.842-2.632 2.06-8.186-1.301-2.598-3.361-1.207-4.12 2.783-.251 1.322-.343.491-.204-1.847.263-4.407-.256-5.095-2.301-3.05-.933.933-1.2.726-1.2-.932 0-2.066-4.629-6.268-6.904-6.268-.603 0-1.134 1.013-1.179 2.25m117.898 2.582c-5.172 5.426-6.755 8.676-7.755 15.918-.712 5.152.19 7.188 1.44 3.25.349-1.1 1.04-2 1.536-2s.648-.787.338-1.75c-.483-1.503-.397-1.539.613-.25.956 1.22 1.066.998.589-1.193-.679-3.125.968-7.255 4.174-10.464 1.238-1.239 2.25-2.723 2.25-3.298 0-2.09 3.012-.967 6.344 2.366 3.512 3.512 9.465 7.113 10.33 6.248.715-.715-1.578-4.659-2.709-4.659-1.689 0-2.316-.424-6.067-4.1-5.414-5.307-6.087-5.311-11.083-.068m-377.452 4.46c-2.125 2.777-4.595 7.335-5.491 10.129-1.594 4.975-1.584 5.102.5 6.216C52.233 94.234 65 93.656 65 90.839c0-.461.338-.73.75-.597s1.774-.48 3.026-1.362c2.516-1.774 2.866-7.697.508-8.601-.7-.269-1.027-.886-.726-1.372.3-.486-.265-.604-1.256-.261-1.541.533-1.512.391.198-.98 1.724-1.381 1.768-1.607.317-1.634-.925-.018-1.97-.939-2.322-2.047-.351-1.108-1.126-1.713-1.722-1.345-.69.427-.789.195-.273-.64.535-.866.418-1.068-.345-.595-.635.392-1.155.344-1.155-.107 0-.45-1.299-.872-2.887-.937-2.354-.096-3.601.814-6.75 4.931m26.387 1.397c-.963.252-1.75 1.351-1.75 2.443s.45 1.708 1 1.368c.554-.342 1 .39 1 1.641 0 1.67-.293 1.966-1.122 1.137-1.463-1.463-3.851-.516-3.978 1.579-.058.96-.432.604-.9-.857-.614-1.916-.824-1.173-.9 3.179-.107 6.053-2.325 9.996-4.436 7.885-.585-.585-1.762-1.061-2.614-1.057-.928.004-.373.782 1.383 1.94 2.742 1.807 3.022 1.823 4.273.243 1.158-1.461 1.25-1.162.678 2.205-.506 2.981-.368 3.713.589 3.121 1.779-1.099 2.991 1.298 3.027 5.984.02 2.608.328 3.531.885 2.651 1.443-2.277 2.39 5.467.989 8.085-.667 1.245-1.136 2.376-1.043 2.514.538.796.037 3.25-.663 3.25-.458 0-.711-2.588-.562-5.75.268-5.697.264-5.707-.459-1.042-.881 5.686-1.735 6.738-3.505 4.318-1.848-2.528-2.685-.652-1.686 3.779.48 2.128.454 3.695-.061 3.695-.492 0-.948-.562-1.013-1.25-.065-.687-.422.1-.793 1.75-.451 2.001-.245 3.266.618 3.8 1.803 1.115 1.615 5.686-.322 7.827-1.528 1.688-1.42 1.753 2 1.198 3.845-.624 4.193-.273 2.628 2.651-.645 1.204-1.685 1.661-3 1.317-1.803-.471-2.013-.044-2.013 4.09 0 2.54.038 4.904.085 5.255.047.351-.453.971-1.111 1.378-.695.429.343.919 2.476 1.168 2.019.236 3.896.066 4.17-.378.274-.443.073-.806-.447-.806-1.687 0-1.98-6.366-.404-8.77 2.617-3.995 8.548-.686 9.691 5.406.361 1.928.904 4.149 1.206 4.935.404 1.053-.285 1.429-2.618 1.429-1.741 0-2.931.38-2.645.844.287.464-1.13 1.351-3.15 1.97-2.745.843-3.85.838-4.38-.019-.872-1.411-4.584-2.071-5.283-.94-.281.455.806 1.801 2.416 2.991 1.61 1.191 2.698 2.762 2.417 3.493-.395 1.032 1.12.915 6.778-.522 4.007-1.018 8.977-1.917 11.043-1.998 2.132-.083 3.756-.656 3.756-1.325 0-.647 1.897-1.746 4.217-2.441 4.007-1.2 4.118-1.336 2.25-2.729-1.194-.891-3.206-1.273-5.121-.974-2.61.408-3.254.118-3.736-1.678-.956-3.565-.691-6.473.64-7.01.762-.307.581-.535-.461-.583-1.13-.052-2.124-1.524-2.923-4.329-.746-2.62-1.364-3.579-1.612-2.5-.476 2.08-1.602 2.241-3.095.441-1.463-1.762 1.429-4.191 4.99-4.191 2.748 0 7.853 4.999 5.803 5.683-1.762.587.547 5.26 2.654 5.373 6.581.354 7.455.537 6.894 1.444-.371.601.903.994 3.191.985 2.465-.01 3.338-.314 2.475-.861-1.074-.681-1.025-.964.25-1.453.871-.335 1.584-.172 1.584.36 0 .533.45.969 1 .969s1-.702 1-1.559-.45-1.281-1-.941c-.55.34-1-.069-1-.91 0-.84-.562-1.39-1.25-1.223-.687.168-.96.132-.606-.079 1.111-.663-.364-4.67-2.803-7.615-1.287-1.554-2.341-3.503-2.341-4.329 0-1.135-.704-1.348-2.871-.872-2.645.581-2.833.432-2.391-1.883.292-1.525-.152-3.146-1.129-4.123-.885-.885-1.623-3.039-1.641-4.787-.03-3.065-.087-3.108-1.579-1.179-1.113 1.44-1.437 3.61-1.154 7.75.216 3.162.26 5.75.098 5.75s-1.448-2.137-2.858-4.75c-2.383-4.414-2.607-3.772-.869 2.488.662 2.387.777 2.315-6.308 3.974-6.251 1.464-8.554-1.337-6.603-8.03 1.558-5.341 2.868-6.312 1.931-1.432-.375 1.956-.281 2.719.236 1.916.693-1.075.977-1.027 1.467.25.335.871 1.267 1.584 2.072 1.584 2.237 0 2.972-3.781 1.247-6.414-1.068-1.63-1.204-2.63-.459-3.375.691-.691.744-2.043.154-3.885-1.172-3.658-.49-26.169.734-24.235.721 1.138.895 1.072.908-.341.026-2.99-2.641-1.92-3.738 1.5-1.009 3.143-1.046 3.162-1.145.571-.056-1.473.573-3.353 1.398-4.178 2.05-2.05 1.89-2.44-.79-1.928-1.94.371-2.231.944-1.905 3.743.213 1.818-.05 3.575-.583 3.905-1.989 1.229-2.499-9.439-.52-10.9 1.561-1.153 1.84-1.073 2.118.605C78.241 88.617 80 88.563 80 86c0-1.1.466-2 1.035-2 .696 0 .677-.669-.055-2.038-.6-1.121-.811-2.921-.468-4 .343-1.079.48-1.91.305-1.846-.174.064-1.104.322-2.067.573m196.936 4.768c-1.149 1.149-1.649 1.219-2.027.284-.305-.755-.532-.58-.58.447-.044.94-.854 1.656-1.829 1.616-.962-.039-2.589.282-3.615.714-1.597.672-1.762.457-1.143-1.492.493-1.554.371-2.059-.385-1.592C264.204 82.61 265.188 94 267.192 94c.519 0 .657-.9.308-2-.364-1.147-.18-2 .433-2 .587 0 1.067.942 1.067 2.092 0 1.151.894 3.229 1.986 4.618 1.093 1.389 1.786 2.849 1.542 3.245-.564.913 9.338 3.246 10.562 2.489 1.519-.938 1.019-2.439-.84-2.523-.962-.043-1.213-.297-.556-.565.656-.267.947-1.127.646-1.912-.301-.785.174-1.704 1.056-2.043 1.762-.676 2.196-4.917.604-5.901-1.708-1.056-1.165-3.501.624-2.814 1.409.541 1.382.253-.204-2.168-1.006-1.535-1.999-2.28-2.208-1.655-.208.626-1.579 1.105-3.045 1.067-2.166-.057-2.32-.207-.82-.797 1.615-.636 1.659-.883.356-1.965-1.199-.995-1.79-.938-3.017.289m22.338 9.528c-1.223.756-1.264 1.464-.245 4.281 1.565 4.328 1.533 6.613-.138 9.815-1.789 3.428-1.274 7.286 1.319 9.879 1.162 1.162 1.839 2.556 1.504 3.098-1.267 2.05-1.615 16.011-.525 21.093.625 2.914 1.365 7.768 1.644 10.786.598 6.466 1.093 7.227 2.999 4.62 1.663-2.275 2.06-26.515.459-28.116-.527-.527-1.429-5.904-2.005-11.95-1.625-17.046-3.236-24.603-5.012-23.506m154.615.709c-.351.352-.639 2.107-.639 3.9 0 5.781-3.805 7.719-13.49 6.869-7.962-.698-7.999-.69-6.214 1.297 1.252 1.393 3.479 2.14 7.342 2.46 3.051.253 5.898 1.03 6.329 1.727.59.954.962.977 1.509.092.4-.647 1.364-.931 2.143-.632 1.795.689 5.506-2.406 4.598-3.835-1.032-1.627-1.101-6.525-.101-7.144 1.133-.7 1.15-4.146.023-4.842-.473-.292-1.148-.244-1.5.108M45.107 107.799C43.727 110.378 43.658 115 45 115c.55 0 1-.75 1-1.667 0-1.518 1.434-1.055 1.549.5.289 3.917 2.716 6.372 3.874 3.917.324-.687.353-.013.064 1.5s-.12 2.75.374 2.75c.495 0 .781 2.695.635 5.988-.146 3.293.133 5.742.619 5.441.487-.301.885-1.42.885-2.488 0-1.091.682-1.941 1.559-1.941.857 0 1.305-.412.994-.915-.311-.503-.121-1.065.423-1.25.626-.212.66-1.434.092-3.335l-.896-3-.086 3.25c-.047 1.787-.545 3.25-1.105 3.25-.632 0-.727-1.046-.25-2.75 1.425-5.097.947-14.75-.731-14.75-.951 0-1.685 1.281-2.006 3.5-.346 2.386-.775 3.081-1.35 2.185-.463-.723-.559-2.823-.214-4.666.533-2.837.356-3.309-1.15-3.076-.979.15-2.069-.173-2.423-.72-.358-.554-1.132-.079-1.75 1.076M347.5 149.765c-.55.404-1.144 1.635-1.319 2.735-.176 1.1-.856 2.45-1.512 3-3.084 2.584-4.662 9.5-2.169 9.5.943 0 1.5-.951 1.5-2.559 0-1.451.433-2.292 1-1.941.55.34 1 1.422 1 2.404s.889 2.591 1.976 3.575c2.272 2.055 1.71 3.873-.938 3.033-1.348-.428-1.918.079-2.292 2.038-.35 1.831-.015 2.765 1.128 3.135.894.291 4.016 1.474 6.938 2.631 4.473 1.771 5.449 1.88 6.184.691 1.046-1.693.397-3.007-1.485-3.007-.755 0-1.516-1.012-1.691-2.25-.256-1.798-.872-2.192-3.07-1.962-1.512.158-2.75-.179-2.75-.75s1.019-1.038 2.265-1.038c2.177 0 2.264-.331 2.25-8.499-.015-8.387-.048-8.5-2.515-8.532-2.414-.031-2.433-.083-.559-1.501 1.877-1.42 1.861-1.467-.5-1.453-1.342.009-2.891.346-3.441.75m42.873 1.706c-.664 1.73 2.996 6.791 4.155 5.745.436-.394.488-.185.116.465-.372.649-.171 1.493.446 1.875.804.497.756.921-.169 1.493-1.047.647-1.051 1.09-.021 2.331.7.843 1.011 1.955.692 2.471-.878 1.42 2.122 2.208 3.197.84.514-.655 1.243-2.477 1.619-4.049.565-2.361 1.104-2.777 3.103-2.395 1.331.254 2.624-.035 2.875-.642.251-.608.492-.35.535.572.043.923-.975 2.507-2.262 3.519-2.599 2.045-5.12 6.177-4.28 7.017.847.847-2.236 7.505-4.416 9.536-1.079 1.006-1.949 2.374-1.931 3.04.017.666.692.337 1.5-.73.807-1.068 1.468-1.405 1.468-.75s.788 1.207 1.75 1.226c1.326.027 1.145.372-.75 1.425l-2.5 1.389 2.815 1.076c3.541 1.352 5.76 1.349 3.435-.005-2.034-1.185-2.323-2.92-.487-2.92.695 0 1.779-2.137 2.409-4.75.63-2.613 2.176-7 3.435-9.75s2.317-5.551 2.352-6.225c.035-.674.846-2.008 1.802-2.965 1.652-1.652 1.739-1.608 1.739.869 0 2.869 2.509 4.542 3.386 2.258.303-.79 1.273-1.437 2.156-1.437 2.837 0 1.185-3.472-1.817-3.818-2.501-.288-2.722-.637-2.379-3.75.446-4.049-.481-4.417-2.346-.932-1.785 3.335-3.208 3.184-2.353-.25.596-2.393.485-2.586-.854-1.483-1.541 1.269-4.734.709-5.909-1.036-.339-.504-1.6.465-2.801 2.153-2.369 3.326-5.406 2.814-6.425-1.084-.568-2.172-2.504-2.366-3.285-.329m-356.257 8.401c-.097 1.992-.357 2.173-1.616 1.128-1.262-1.047-1.5-.868-1.5 1.128 0 1.515 1.272 3.387 3.522 5.182 4.019 3.207 3.766 4.655-.831 4.769-1.755.043-2.56.329-1.79.634 1.033.409.77.931-1 1.983-2.264 1.348-2.276 1.404-.216.977 1.289-.266 2.405.118 2.719.938.713 1.857-3.287 1.793-5.776-.092-1.619-1.226-2.069-1.221-3.331.041-.802.802-1.872 1.203-2.378.89-.505-.312-.919.584-.919 1.991 0 3.074-2.572 3.484-3.5.559-.883-2.781-2.25-2.503-2.25.458 0 1.352.48 2.365 1.066 2.25.586-.114 1.229.692 1.428 1.792.234 1.285.067 1.572-.467.803-1.842-2.657-2.777.693-2.777 9.947 0 7.133.335 9.75 1.25 9.75.771 0 1.264 1.436 1.286 3.75.02 2.063.232 6.45.472 9.75.283 3.881.151 5.117-.372 3.5-1.362-4.214-1.86 15.418-.924 36.5.293 6.6.597 15.825.676 20.5.078 4.675.489 7.955.912 7.29.552-.869 1.128-.635 2.042.828 1.116 1.788 1.013 2.107-.841 2.592-1.331.348-1.908 1.09-1.558 2.003.307.798.557 2.764.557 4.369 0 4.024 1.449 3.654 3.145-.804l1.417-3.722 1.848 3.895 1.848 3.895 1.252-2.923c1.012-2.363 1.002-3.326-.054-5.024-1.498-2.409-2.435-20.405-1.061-20.401.517.001.554-2.844.088-6.748-1.19-9.957-.752-15.699 1.574-20.649 1.142-2.428 2.228-6.046 2.413-8.039.185-1.994.787-4.173 1.338-4.843.55-.67 1.156-2.311 1.346-3.646.305-2.137.901-2.45 4.978-2.618 5.087-.21 7.781-1.273 6.004-2.371-1.906-1.178.845-8.225 2.951-7.556 1.103.35 2.312-.259 3.293-1.66 1.335-1.906 1.637-1.988 2.174-.589.343.894.352 2.065.02 2.602-.332.537.416 1.172 1.661 1.411 2.037.392 1.999.449-.378.572-3.057.157-4.896 3.136-1.936 3.136 1.949 0 7.37-3.909 5.501-3.967-.603-.018-1.044-1.837-1-4.129.043-2.252-.259-4.304-.672-4.559-.413-.254-.743-1.224-.735-2.154.014-1.457.15-1.484.985-.191.788 1.219.972 1.09.985-.691.012-1.766.841-2.367 4.265-3.094 4.848-1.03 7.775 1.364 8.75 7.155.629 3.738 2.73 4.534 3.866 1.464.475-1.284 1.262-2.334 1.749-2.334.487 0 .831-.225.766-.5-1.497-6.273-1.407-6.488 2.847-6.785 5.701-.399 7.99-1.809 3.909-2.408-1.725-.253-3.137-.089-3.137.366 0 .455-.54.827-1.2.827-.913 0-.922-.278-.035-1.165s.756-1.477-.55-2.468c-1.489-1.132-1.11-1.308 2.88-1.335 3.297-.023 5.106-.597 6.405-2.032.995-1.1 2.47-2 3.277-2 1.082 0 1.188-.338.402-1.284-1.156-1.393-.302-6.749 1.661-10.417.634-1.185.853-2.936.486-3.891-.489-1.275-.314-1.519.659-.918.937.58 1.087.436.515-.49-.569-.921-.421-1.069.5-.5.854.528 1.067.418.614-.316-1.856-3.003 6.974-2.515 13.272.733 3.538 1.825 4.549 2.003 5.234.923 1.293-2.041 1.062-4.063-.37-3.239-.687.396-.934.369-.548-.06 1.538-1.706-8.139-6.316-10.367-4.939-.459.284-.835.039-.835-.543 0-2.742-4.989-.894-7.676 2.844-3.491 4.857-12.261 7.904-17.03 5.917-1.537-.64-4.594-1.199-6.794-1.242-3.239-.063-3.944-.412-3.704-1.835.189-1.128-.641-2.114-2.316-2.75-3.462-1.317-3.616-1.281-3.274.757.211 1.258-.48 1.839-2.456 2.066-1.513.174-2.75-.085-2.75-.576 0-.492-1.35-.695-3-.453-2.236.328-3 .044-3-1.114 0-.855-.521-1.877-1.158-2.27-.793-.491-.98-.037-.593 1.441.394 1.507.108 2.156-.95 2.156-.972 0-1.295-.568-.903-1.59 1.008-2.628-.496-3.712-2.057-1.483-1.708 2.438-5.897 2.923-4.946.573l1.219-3.013c.427-1.057-.308-1.834-2.442-2.577-1.679-.586-3.252-1.818-3.496-2.737-.291-1.102-.482-.863-.558.699M462 162.81c0 1.137.866 2.183 2.069 2.498 1.66.434 2.006 1.198 1.75 3.866-.438 4.57-3.12 4.451-3.937-.174-.618-3.493-.619-3.491-.907 1-.158 2.475-.444 5.625-.635 7-1.248 8.966-1.346 12.267-.553 18.5l.89 7 1.722-3.862c.946-2.123 1.92-5.498 2.162-7.5.243-2.001.66-4.988.928-6.638l.486-3-1.359 2.925c-1.351 2.908-1.365 2.912-2.534.729-.646-1.207-.898-2.643-.559-3.191.338-.548.837-2.216 1.107-3.707.598-3.295.624-3.324 3.257-3.522 2.488-.188 2.763-4.011.698-9.734-1.402-3.887-4.585-5.407-4.585-2.19m-33.285 1.808c-.34.34-.344 1.985-.01 3.656.408 2.039.254 2.819-.468 2.373-1.114-.689-1.654 1.157-2.815 9.616-.588 4.292-.477 4.695 1.127 4.08 1.316-.505 1.566-.338.959.645-.629 1.016-.257 1.176 1.586.683 1.323-.354 3.145-.65 4.049-.657.904-.008 1.924-.747 2.268-1.643.519-1.353.115-1.526-2.393-1.025-3.68.736-4.298-2.065-.921-4.174 1.951-1.219 1.978-1.397.381-2.564-1.451-1.061-1.518-1.571-.439-3.299.785-1.256.962-2.769.461-3.927-.448-1.035-.725-2.444-.614-3.132.207-1.284-2.066-1.737-3.171-.632m-44.369 4.632c.139 2.063-.107 3.75-.547 3.75-.439 0-.799-.937-.799-2.083 0-3.62-2.229-1.516-3.848 3.631-.857 2.724-1.917 5.102-2.355 5.285-1.36.569-.875 2.167.658 2.167.873 0 1.719-1.411 2.117-3.53.519-2.771 1.039-3.411 2.413-2.975.963.306 3.344.616 5.291.689 2.412.091 3.384.537 3.053 1.402-.327.851.164 1.098 1.496.75 2.152-.563 3.464-7.066 2.172-10.767-.549-1.57-.811-1.289-1.404 1.5l-.729 3.431-1.554-2.25c-1.845-2.671-3.31-2.915-3.31-.55 0 2.098-1.579.624-2.356-2.2-.303-1.1-.437-.312-.298 1.75m67.583 3.405c-.935.252-2.082 2.531-2.835 5.634-2.378 9.8-2.15 9.355-3.71 7.221-2.169-2.966-2.968-.768-.957 2.635 1.973 3.341.723 5.514-2.427 4.216-.825-.34-2.625-.807-4-1.037-2.118-.355-1.965-.113 1 1.586l3.5 2.006-2.75.042c-1.512.023-2.75-.337-2.75-.8s-1.913-1.426-4.25-2.14c-2.524-.772-3.648-1.51-2.768-1.819 2.016-.708 4.384-3.167 3.704-3.847-.304-.304-1.145-.182-1.869.27-.725.452-1.767.905-2.317 1.006-.55.102-2.831.611-5.07 1.132-2.238.52-5.507.736-7.264.478-1.757-.258-4.425-.003-5.93.566-1.505.57-5.314 1.806-8.465 2.746-7.315 2.184-6.505 3.45 2.207 3.45 4.598 0 7.958.577 10.191 1.75 1.832.963 3.429 1.773 3.549 1.801.119.028-.294 1.715-.918 3.75-1.015 3.307-1.492 3.699-4.499 3.699-3.324 0-4.352-1.044-4.762-4.838-.267-2.466-1.633-5.162-2.615-5.162-.473 0-.615.64-.315 1.423.435 1.135-.329 1.331-3.782.966-5.622-.594-7.094-1.148-6.331-2.382.342-.554-.08-1.007-.937-1.007-.857 0-1.559-.498-1.559-1.107s.675-.848 1.5-.531c.825.316 1.5.187 1.5-.286 0-.474-.675-1.121-1.5-1.438-.825-.316-1.5-.163-1.5.341 0 .554-1.09.55-2.75-.009-1.512-.51-4.452-1.101-6.532-1.314-5.572-.571-5.785-1.656-.326-1.656 3.354 0 4.516-.34 4.003-1.17-.486-.787-.178-.961.941-.531 1.087.417 1.664.129 1.664-.83 0-1.926-2.897-1.901-3.638.031-.317.825-1.765 1.493-3.219 1.485-1.829-.011-2.232-.276-1.309-.861 1.775-1.125-.741-2.124-5.351-2.124-1.844 0-4.507-.439-5.918-.975-1.411-.537-2.565-.585-2.565-.107 0 .477.6 1.098 1.332 1.379.806.309 1.368 2.23 1.423 4.857.049 2.39-.133 3.671-.406 2.846-1.161-3.516-2.711-5.894-3.516-5.397-.476.294-.628.92-.337 1.391.623 1.008-1.503 6.18-2.976 7.241-1.769 1.274-4.52.827-4.52-.735 0-.825.73-1.5 1.622-1.5 1.301 0 1.385-.286.424-1.444-.962-1.16-.79-1.699.878-2.741 2.822-1.762 2.642-4.474-.334-5.043-2.164-.413-2.385-.145-2.162 2.634.292 3.65-2.5 6.649-5.468 5.873-1.084-.283-2.603.01-3.376.652-2.097 1.739-2.683-.186-1.028-3.375 2.788-5.375.135-15.337-3.489-13.098-.511.316-1.211.117-1.557-.442-.793-1.283-6.195-1.335-6.979-.067-.323.523.997 1.247 2.932 1.61 1.936.363 3.275 1.056 2.976 1.539-.298.484.268.617 1.259.296 1.264-.409 1.422-.309.529.335-1.02.735-.968 1.647.264 4.594.845 2.022 1.192 3.684.772 3.692-.419.009-.088.459.737 1 1.333.876 1.333 1.096 0 1.984-2.768 1.843-4.417.603-5.325-4.007-.487-2.471-1.327-4.767-1.866-5.104-.539-.336-.941-.899-.894-1.25.267-1.996-.028-2.686-.915-2.138-.55.34-1 1.491-1 2.559s-.48 1.941-1.068 1.941c-1.262 0-.571 10.202.95 14.015.545 1.367 1.02 1.971 1.055 1.342.149-2.688 3.063-2.282 3.048.424-.01 1.798-.293 2.282-.834 1.43-.46-.726-.781 2.185-.734 6.653.045 4.369.42 7.424.833 6.79.962-1.481 2.719 1.004 2.719 3.846 0 2.702-1.934 5.461-2.628 3.75-.279-.687-1.177-1.25-1.996-1.25-1.282 0-1.27.218.084 1.571.864.865 1.578 2.327 1.586 3.25.013 1.374.178 1.423.91.267.752-1.19 1.165-1.141 2.615.309 1.628 1.628 1.586 1.866-.788 4.412-1.381 1.48-2.793 4.291-3.14 6.247-.346 1.956-1.475 5.214-2.508 7.239-1.032 2.026-2.231 5.376-2.663 7.444-.432 2.069-.877 4.098-.988 4.511a15.447 15.447 0 00-.328 1.82c-.069.588-1.137.925-2.375.75-2.11-.3-2.236-.747-2.023-7.184l.228-6.864-3.478 4.554c-1.912 2.505-3.477 4.806-3.477 5.114 0 .308-.945 1.505-2.1 2.66l-2.101 2.101-5.649-2.206c-12.62-4.927-22.14-7.82-22.709-6.9-1.523 2.465-1.719 11.905-.246 11.905 2.739 0 23.707 7.032 24.423 8.191.476.77.144.932-1.006.49-1.146-.439-1.481-.278-1.009.485.464.752.258.866-.603.334-.921-.569-1.069-.421-.5.5s.421 1.069-.5.5c-.866-.535-1.068-.418-.595.345 1.223 1.979-1.144 1.323-15.238-4.227-17.839-7.025-17.167-6.826-17.167-5.087 0 .816-.915 1.469-2.059 1.469-1.132 0-1.781-.449-1.442-.998.339-.549.006-1.871-.74-2.936-1.334-1.904-1.379-1.905-2.549-.03-1.253 2.006-3.702 1.73-4.563-.515-.28-.728.173-3.934 1.006-7.124.833-3.19 1.33-7.06 1.104-8.6-.271-1.843.214-3.365 1.416-4.454 1.731-1.566 1.827-1.495 1.827 1.335 0 3.396 2.073 4.004 4.501 1.32 1.232-1.361 1.3-2.27.369-4.94-.647-1.857-.758-3.551-.255-3.915 2.995-2.175.872-3.643-5.268-3.643-6.156 0-7.927.68-4.848 1.861 1.513.581 1.593 3.098.171 5.376-.425.681-.46 3.994-.079 7.363.667 5.897.615 6.1-1.397 5.462-2.562-.814-5.186 3.538-5.209 8.638-.024 5.082-1.56 6.828-3.077 3.498-.799-1.754-2.008-2.698-3.455-2.698-3.723 0-5.978-6.002-5.822-15.5.142-8.703 1.488-13.5 3.785-13.5 2.371 0 2.653 1.452 1.655 8.501-1.645 11.618 1.374 13.192 5.276 2.749 2.131-5.704 2.446-7.912 2.032-14.25-.615-9.391-1.192-12.234-2.339-11.525-.496.307-1.185.099-1.532-.461-.426-.691-1.255-.684-2.569.018-1.066.571-1.946.685-1.954.253-.009-.432-.452-.11-.985.715-.862 1.333-.98 1.333-1.066 0-.053-.825-.715-.15-1.47 1.5l-1.374 3-.045-3.25c-.046-3.317-1.648-4.247-3.729-2.166-.779.779-1.531.447-2.671-1.181-1.522-2.172-1.667-2.193-3.528-.509-1.854 1.678-1.963 1.675-2.413-.069-.402-1.553-.489-1.511-.588.286-.094 1.706-.606 2.018-2.667 1.624-1.715-.328-3.286.202-4.793 1.619-1.233 1.158-3.685 2.609-5.449 3.224-3.682 1.283-4.294 2.789-.957 2.354 6.044-.789 13.192-2.554 14.401-3.557 1.003-.832 1.349-.817 1.349.062 0 .649.45.903 1 .563.55-.34 1 .049 1 .863 0 1.475-3.334 2.87-10 4.184-5.472 1.078-7.349 2.328-5.978 3.979.632.762.918 1.762.635 2.22-.283.459-.14 3.857.318 7.552 1.006 8.109.474 11.053-1.769 9.798-2.028-1.135-3.758.589-4.645 4.627-1.71 7.787-5.908 1.336-5.026-7.723l.439-4.5-1.244 5c-.973 3.911-1.678 5-3.237 5-1.13 0-2.248.866-2.582 2-.323 1.1-1.103 1.89-1.732 1.756-1.5-.32-2.052 2.436-2.555 12.744-.228 4.675-.635 10.975-.904 14-.269 3.025-.107 6.85.361 8.5.467 1.65 1.091 4.205 1.385 5.678.483 2.415 1.094 2.748 6.218 3.388 3.532.442 7.344 1.764 10.075 3.496 4.174 2.647 4.288 2.842 2.292 3.91-1.155.619-4.646 2.908-7.758 5.088-5.092 3.567-5.364 3.931-2.725 3.64 1.612-.178 4.247-1.544 5.854-3.036 3.466-3.217 7.769-4.59 8.406-2.68.238.714 1.986 3.018 3.883 5.118 2.677 2.964 3.619 5.058 4.2 9.343.413 3.037 1.448 6.318 2.301 7.289 2.672 3.042 3.215 6.266 1.055 6.266-1.027 0-2.35-.483-2.94-1.073-.59-.59-2.592-.927-4.45-.75-3.15.301-3.366.552-3.212 3.73.091 1.889-.501 4.072-1.328 4.899-.988.988-1.232 2.202-.722 3.593.424 1.156.804 5.134.846 8.841.12 10.755.36 10.877 22.528 11.429 22.592.563 22.281.716 21.513-10.582-.575-8.459-1.362-13.091-2.48-14.587-.751-1.005-1.698-6.873-2.904-18-.358-3.3-.988-6.532-1.401-7.182-.413-.65-.452-3.72-.088-6.822.431-3.667.962-5.178 1.517-4.318 1.309 2.026 2.677-.68 2.019-3.993l-.534-2.685-.678 2.5c-.598 2.205-.768 2.286-1.447.686-.541-1.277-.174-2.23 1.24-3.221 2.152-1.507 3.552-6.163 2.12-7.048-.476-.294-.895.054-.929.774-.035.72-.438.384-.896-.747-.498-1.228-2.586-2.609-5.187-3.43-5.559-1.755-7.396-3.061-5.742-4.083.664-.41 1.81-.514 2.547-.231.848.325 1.341-.227 1.341-1.499 0-1.581.472-1.89 2.196-1.439 2.081.544 2.094.61.257 1.254-1.719.604-1.571.872 1.304 2.358 1.967 1.017 3.243 1.25 3.243.593 0-.597.45-.807 1-.467.616.38 1-1.296 1-4.359 0-2.738.291-5.802.647-6.809.449-1.27.322-1.525-.415-.832-.585.55-1.213 2.001-1.397 3.224-.248 1.645-.707 1.992-1.762 1.332-1.198-.749-1.04-1.706.986-5.974 2.598-5.472 2.688-5.546 4.941-4.067 1.214.797 1.249 1.147.185 1.834-1.355.875 8.084 2.315 16.815 2.565 2.475.071 5.764.681 7.309 1.355 1.544.674 4.574 1.508 6.731 1.853s4.414 1.22 5.014 1.943c.601.724 1.634 1.108 2.296.854.663-.254 3.892.637 7.177 1.98l5.973 2.442 2.25-2.095c2.797-2.604 2.834-3.518.158-3.926-2.807-.429-5.709-6.82-3.097-6.82.943 0 2.159-.961 2.702-2.137.882-1.909 3.354-2.463 2.737-.613-.137.413.425.75 1.25.75s1.5.723 1.5 1.607c0 1.018.55 1.396 1.5 1.031 1.846-.708 4.5.222 4.5 1.577 0 .559-1.064.735-2.404.398-2.297-.576-2.381-.425-1.869 3.392.423 3.147.213 3.995-.988 3.995-2.893 0-2.963 3.244-.123 5.684 2.646 2.274 3.712 2.698 6.059 2.408 1.615-.199 2.598 1.621 1.306 2.42-.579.357-3.55-.386-6.604-1.651-5.097-2.113-5.628-2.164-6.486-.63-.514.918-1.488 2.255-2.163 2.97-.675.714-3.155 3.886-5.51 7.049-3.745 5.027-6.218 7.077-6.218 5.152 0-.329 2.461-4.577 5.469-9.44l5.47-8.841-5.566-2.082c-3.06-1.146-6.309-1.96-7.219-1.811-1.89.311-8.56 9.703-13.267 18.681-1.756 3.35-3.622 6.091-4.147 6.091-.525 0-.725.596-.446 1.324.28.728-1.275 4.666-3.455 8.75-5.342 10.009-7.913 16.569-7.211 18.399.32.833.984 1.267 1.477.962.785-.485 1.051.2.829 2.141-.036.316.884 1.398 2.043 2.404 1.563 1.356 1.942 2.495 1.464 4.399-.511 2.037.011 3.227 2.514 5.73 3.306 3.306 4.253 3.276 9.209-.292 1.326-.955 2.477-.832 5.667.607 3.88 1.749 8.783 1.755 14.806.018 3.004-.866 4.045 1.392 1.471 3.195-3.045 2.132-2.624 3.128 1.892 4.481 3.564 1.068 4 1.541 4 4.34 0 3.293 1.501 5.542 3.7 5.542.81 0 1.3-1.274 1.3-3.382v-3.382l10.078 3.078c10.249 3.13 13.422 3.03 13.422-.423 0-.765.563-1.346 1.25-1.291.688.055 2.141.167 3.231.25 1.214.092 2.225 1.121 2.611 2.659 1.17 4.664 10.012 4.839 12.205.241.722-1.512 1.625-2.752 2.008-2.755 1.855-.013 1.159-8.907-.805-10.283-1.577-1.104-1.875-2.086-1.383-4.548.429-2.145.087-3.966-1.078-5.744-1.439-2.197-1.514-3.065-.482-5.557.942-2.275.954-3.543.052-5.523-.644-1.413-.891-3.451-.549-4.529.819-2.58-1.313-7.598-3.527-8.3-2.797-.888-5.033.503-5.033 3.131 0 2.091-.269 2.285-1.934 1.393-2.936-1.571-5.458-1.25-7.875 1.002-1.712 1.595-2.605 1.812-4.123 1-1.065-.571-5.708-1.037-10.319-1.037-7.522 0-19.054-1.455-20.988-2.648-1.252-.773 11.757-19.035 19.947-28.004l3.792-4.153 6.949 2.87c7.891 3.259 8.963 3.148 5.006-.52-4.636-4.296-2.05-3.936 5.7.794 6.379 3.892 8.237 4.405 7.92 2.186-.041-.289.713-1.333 1.675-2.321 1.649-1.692 1.822-1.697 3.001-.079.688.944 2.645 2.023 4.348 2.397l3.097.68-3.098 3.197c-1.704 1.758-3.098 3.941-3.098 4.852 0 .91-.537 2.833-1.193 4.274-1.491 3.272-1.016 3.617 9.693 7.038 8.33 2.66 13.5 6.378 13.5 9.707 0 2.577 2.417 1.635 2.82-1.098.233-1.59 1.015-2.172 2.916-2.172 1.429 0 2.313-.284 1.966-.631-.954-.954 1.253-4.515 2.369-3.825 1.366.844 3.941-5.781 3.26-8.386-.402-1.539-.11-2.158 1.017-2.158 2.828 0 5.559-8.567 4.148-13.012-.652-2.055-7.496-3.038-7.496-1.077 0 1.209-12.794-3.436-16.087-5.841-1.536-1.121-3.109-1.567-3.87-1.096-1.388.857-31.043-12.676-31.043-14.167 0-.47 6.513-7.51 14.473-15.644 17.993-18.388 24.578-26.823 29.013-37.163 4.61-10.748 7.415-12.72 10.279-7.226 3.8 7.29 9.59 15.66 9.995 14.447.225-.677-1.879-4.588-4.675-8.691-6.956-10.207-6.921-10.458 1.076-7.666 10.272 3.588 11.824 3.969 12.394 3.048.31-.502-.165-.912-1.055-.912-.89 0-1.352-.43-1.027-.956.325-.526 1.252-.703 2.059-.393.968.371 1.463-.069 1.453-1.294-.017-2.03-1.34-4.562-2.336-4.47-3.48.322-4.866-3.366-1.649-4.387 1.1-.349 2-1.103 2-1.674 0-.572.646-.792 1.435-.489.79.303 1.614.015 1.833-.64.274-.822 3.927-1.211 11.814-1.259 15.096-.091 15.918-.189 15.918-1.913 0-1.11-.805-1.34-3.25-.928-2.935.494-3.081.408-1.5-.885.962-.788 1.75-2.358 1.75-3.489 0-1.131.474-2.214 1.053-2.407 2.032-.678 4.177-16.006 2.197-15.7-.413.064-1.457.306-2.321.539m-326.579 5.439c1.636 5.915 1.877 7.356 1.115 6.647-.449-.418-1.815.179-3.035 1.325-1.436 1.349-2.454 1.704-2.885 1.007-.468-.758-1.248-.767-2.622-.032-2.153 1.152-4.206-2.107-3.122-4.955.372-.976.129-1.161-.786-.596-.801.496-1.083.429-.713-.169.335-.543-.045-.988-.846-.988-1.982 0-1.829 1.335.536 4.656l1.993 2.798-2.493.626c-3.282.823-3.166 2.201.258 3.06l2.75.691-3.298 2.947c-1.814 1.621-3.747 2.67-4.294 2.332-1.282-.792-4.067 1.49-3.311 2.714.753 1.219-1.558 3.985-2.727 3.263-.496-.307-.632-.997-.3-1.533.331-.536.049-1.641-.626-2.455-.676-.814-.947-1.762-.602-2.107.602-.602-2.169-3.228-3.475-3.293-.975-.049-1.763 3.832-.848 4.17.444.164.959 2.323 1.144 4.798l.337 4.5-4 .127c-3.833.121-9.112 1.148-10.799 2.101-.44.248.373 1.538 1.806 2.866s2.397 2.752 2.143 3.164c-.255.411 1.626.829 4.178.928 2.553.099 6.063.446 7.8.772 2.464.462 3.818.038 6.16-1.933 1.65-1.389 3.962-2.525 5.138-2.525 1.175 0 2.395-.672 2.71-1.494.316-.822.956-1.258 1.423-.97 1.48.915 5.941-.695 5.941-2.144 0-1.876.721-1.756 3.747.623 2.301 1.81 2.732 1.861 4.236.5 2.016-1.824 4.19-1.942 5.817-.315 1.856 1.856 1.478 2.574-2.3 4.367-2.441 1.158-3.481 2.307-3.436 3.797.133 4.407 2.613 14.028 3.711 14.394 2.08.694 4.224-6.703 4.24-14.63.011-5.294.312-7.169.985-6.128.533.825.976 3.398.985 5.719.013 3.594.274 4.123 1.765 3.573 2.643-.976 3.218-2.334 3.235-7.649.012-4.025.287-4.752 1.605-4.247 1.412.542 1.508-.371.856-8.143-.403-4.814-.781-9.653-.84-10.753-.159-2.993-3.849-2.601-4.711.5-.559 2.01-.715 1.666-.795-1.75-.055-2.338-.57-4.25-1.145-4.25-.654 0-.799 1.315-.387 3.511.415 2.209.207 4.055-.56 4.979-.925 1.115-.949 2.239-.1 4.676 1.27 3.643-.205 6.56-1.934 3.826-.801-1.266-.946-1.227-.959.258-.008.963-.577 1.751-1.265 1.752-.923.002-1.165-2.093-.923-8.016.336-8.264-1.125-13.986-3.571-13.986-.691 0-1.256-.873-1.256-1.941s-.521-2.263-1.158-2.656c-.813-.503-.96-.001-.492 1.691m158.094 15.407c-.907 3.781-2.364 5.667-3.727 4.824-.65-.402-.82-.037-.442.949.433 1.129-.033 1.694-1.58 1.914-1.692.24-2.204.999-2.233 3.312-.036 2.887-.215 3.004-4.75 3.113-2.591.063-4.712-.275-4.712-.75s-.788-.891-1.75-.925c-.962-.034.376-.77 2.974-1.637 2.598-.867 4.465-1.995 4.149-2.507-.316-.512-1.176-.7-1.91-.418-.733.281-1.484.061-1.667-.489-.444-1.332-3.796-.001-3.796 1.507 0 .649-.967 1.253-2.149 1.342-3.394.256-4.78 2.264-1.563 2.264 1.95 0 2.648.481 2.542 1.75-.081.963-.076 6.284.012 11.825L263 229.65l3.75.151c2.063.082 4.926.229 6.362.325 5.127.343 10.028-5.845 12.773-16.126.875-3.276.94-3.322 1.025-.715.135 4.173 2.841 7.713 5.715 7.475 1.585-.131 2.24-.67 1.898-1.562-.288-.749-.555-2.112-.593-3.03-.056-1.333-.243-1.266-.93.332-1.057 2.46-1.262.957-1.432-10.5-.107-7.159-1.699-12-3.948-12-.495 0-1.475-.787-2.178-1.749-1.162-1.588-1.345-1.473-1.998 1.25M34.5 192.719c-1.65.252-3.562.923-4.25 1.492-1.735 1.435-1.568 5.73.25 6.427.825.317 1.5 1.428 1.5 2.469S32.498 205 33.107 205s.841-.693.516-1.54c-.596-1.553 1.03-5.338 2.877-6.695 1.66-1.219 6.499-.859 6.515.485.012.935.229.914.862-.085.636-1.004.989-.786 1.425.881.535 2.049.702 2.093 2.21.585.998-.998 3.286-1.631 5.893-1.631 2.344 0 4.593-.332 4.999-.737.767-.767 1.148-.839 6.096-1.142 2.782-.171 2.867-.285 1.169-1.572-2.238-1.696-13.807-1.945-14.812-.318-.977 1.581-3.857 1.849-3.857.359 0-1.281-6.735-1.75-12.5-.871m331.265 5.505c-1.869 3.564-3.931 11.113-3.886 14.23.015 1.075-.338 2.425-.784 3-1.846 2.38-4.095 11.253-4.095 16.159 0 2.891-.427 6.381-.95 7.755-.675 1.777-.603 2.626.25 2.94.916.337.898.762-.075 1.792-.988 1.047-1.69 1.091-3.122.196-2.461-1.537-4.13 1.981-4.033 8.501.113 7.558.98 8.843 3.881 5.755 1.314-1.399 2.101-2.833 1.747-3.187-.353-.353.47-1.965 1.83-3.581 1.519-1.805 2.472-4.19 2.472-6.186 0-2.173.828-4.027 2.5-5.598 1.375-1.292 2.5-2.854 2.5-3.471 0-.618 1.8-2.881 4-5.029 4.023-3.928 4.718-5.818 3.086-8.396-.682-1.077-1.25-.687-2.49 1.709-.883 1.708-2.783 4.283-4.222 5.722l-2.617 2.617.587-6.326c.73-7.876 1.091-10.097 1.845-11.344.326-.54.486-2.685.354-4.767-.131-2.082.081-3.982.472-4.224.983-.608 3.286-9.088 2.835-10.441-.202-.606-1.14.372-2.085 2.174m62.113 14.416c-3.483 3.996-3.94 5.967-2.297 9.899l1.554 3.72-2.542-.486c-1.719-.329-3.118.155-4.318 1.493-1.746 1.946-1.708 1.967 2.366 1.287l4.141-.692 1.729 4.529c.952 2.491 2.094 4.435 2.539 4.32.445-.116 1.479.689 2.298 1.788 1.925 2.585 3.073 1.363 2.945-3.138-.077-2.711-1.035-4.554-3.947-7.595-2.42-2.526-3.388-4.183-2.611-4.468.943-.347.869-1.161-.313-3.447-1.178-2.279-1.274-3.323-.402-4.374.63-.759.995-2.126.813-3.038-.299-1.491-.497-1.471-1.955.202m22.933 4.173l-2.437 2.897-2.937-2.35c-3.24-2.592-5.957-3.032-6.854-1.11-.466 1-.7 1-1.166 0-.789-1.689-5.417-1.607-5.417.097 0 2.48 3.528 5.589 5.699 5.022 1.606-.421 2.279.128 3.122 2.548 1.195 3.428 2.72 4.261 1.874 1.023-.483-1.844-.157-2.022 3.122-1.703 3.454.337 3.788.105 5.921-4.108 2.722-5.376 2.376-6.242-.927-2.316M119 216.931c-2.475.925-6.277 2.487-8.45 3.472-2.461 1.116-6.422 1.806-10.513 1.832l-6.564.041.371 3.881c.487 5.11-.862 6.5-7.671 7.9-6.705 1.378-14.043 4.038-17.157 6.219l-2.23 1.562 3.141 1.624c2.09 1.081 3.337 2.607 3.728 4.565.324 1.617.995 2.689 1.492 2.382.496-.307.82-.187.719.267-.101.453.186 1.677.638 2.719.59 1.36.291 2.282-1.059 3.269-1.035.756-1.926 2.401-1.981 3.656-.054 1.255-.433 2.821-.841 3.48-.502.813.077 1.2 1.792 1.2 1.746 0 2.984-.855 3.983-2.75 3.352-6.358 11.784-13.622 21.789-18.771 4.195-2.159 5.422-3.246 4.677-4.143-.556-.669-.865-2.202-.687-3.406.213-1.446-.577-2.866-2.327-4.18-2.989-2.246-4.85-1.666-4.85 1.509 0 1.493-.317 1.824-1.048 1.093-.73-.73-.682-1.851.161-3.7 1.483-3.255 1.712-3.26 6.292-.152 4.521 3.068 4.216 3.081 6.023-.25 1.406-2.592 1.494-2.621 1.532-.5.031 1.723.626 2.25 2.54 2.25 1.375 0 2.5.402 2.5.893 0 1.219 2.695 2.161 4.357 1.523 1.727-.662 3.848-7.617 3.07-10.061-.565-1.775-.524-1.774.953.033 1.1 1.347 1.267 2.403.581 3.684-1.564 2.924-1.13 4.928 1.067 4.928 1.909 0 1.985-.394 1.293-6.75-.404-3.713-.754-7.762-.778-9-.049-2.583-.433-2.602-6.543-.319m75 5.76c0 .655.443 1.465.984 1.799.541.335 1.376 2.049 1.856 3.809.479 1.761 1.4 3.084 2.046 2.941.646-.143 2.444.396 3.995 1.199 3.055 1.579 5.414.492 4.439-2.047-.315-.822.479-1.745 1.999-2.323 1.787-.68 2.38-1.505 2.033-2.83-.597-2.284-17.353-4.745-17.352-2.548m223.032 9.388c-.018.868 1.373 3.7 3.091 6.293 1.718 2.593 2.955 4.832 2.75 4.974-.205.143-1.65 1.059-3.21 2.037-1.56.977-2.631 1.983-2.379 2.234.734.735 5.716-1.838 5.716-2.952 0-.557 1.125.043 2.5 1.335s2.5 2.92 2.5 3.619c0 .698 1.111 2.532 2.468 4.075l2.469 2.806.031-2.691c.018-1.48-.446-2.986-1.03-3.347-2.45-1.514-4.669-9.957-2.387-9.081.706.271 1.546-.191 1.866-1.026.931-2.424.747-2.491-2.385-.872-3.115 1.611-4.81.469-10.554-7.116-1.172-1.547-1.42-1.597-1.446-.288M35.105 237.25c-5.891 14.356-6.178 15.759-6.58 32.25-.315 12.883-.16 15.493.792 13.396.651-1.433 1.714-3.241 2.363-4.018 1.434-1.718 1.979-11.133.909-15.697-.673-2.868-.495-3.393 1.31-3.865 1.945-.508 2.054-1.064 1.579-8.053-.281-4.128-.755-7.901-1.053-8.385-.299-.483.661-.878 2.133-.878 2.286 0 2.588-.327 2.072-2.25-.331-1.238-.609-3.037-.616-4-.022-2.779-1.457-2.038-2.909 1.5m308.357 1.038c-1.629 1.902-5.462 14.421-5.462 17.839 0 1.862-1.029 4.308-2.597 6.171-2.451 2.912-2.497 3.16-.812 4.392 1.516 1.109 2.105 1.005 3.911-.692 1.17-1.099 2.602-1.998 3.183-1.998.596 0 1.36-3.479 1.752-7.971.458-5.248 1.292-8.707 2.441-10.126 1.44-1.779 1.56-2.744.689-5.529-1.147-3.664-1.532-3.923-3.105-2.086M54 246c-.825.533-2.543.976-3.817.985-1.949.013-2.203.373-1.594 2.265.399 1.238.775 5.063.836 8.5.104 5.822-.041 6.25-2.107 6.25-1.22 0-2.677-.788-3.238-1.75-.971-1.667-1.021-1.667-1.05 0-.016.962-.654 1.75-1.416 1.75-.89 0-1.636 1.701-2.081 4.75-.908 6.21-3.571 14.404-5.223 16.071-2.48 2.503-.243 18.58 3.043 21.865.647.647 1.13-4.431.777-8.165-.12-1.261.154-1.624.755-1 1.474 1.531 1.614 4.663.379 8.479-.623 1.925-1.639 6.2-2.259 9.5-.619 3.3-1.77 7.688-2.558 9.75-.899 2.358-1.043 3.75-.387 3.75.574 0 1.514-1.349 2.089-2.999 1.183-3.393 2.919-3.194 2.183.25-.428 1.999-.281 1.944 1.325-.501 2.096-3.191 3.012-3.441 3.664-1 .401 1.503.566 1.442 1.172-.431.426-1.321 1.257-1.969 2.106-1.643.77.296 1.401.01 1.401-.636 0-.695.769-.931 1.882-.577 1.607.51 1.986-.102 2.594-4.183.391-2.629 1.174-5.342 1.74-6.03.748-.909.586-1.25-.594-1.25-.892 0-1.622-.45-1.622-1s.34-1 .757-1c.416 0 1.332-1.845 2.036-4.101 1.174-3.762 1.111-4.247-.757-5.867-2.593-2.25-2.559-2.886.214-4.001 2.145-.862 2.118-.907-.566-.968-3.666-.082-6.684-1.737-6.684-3.666 0-1.101-.59-1.344-2.099-.866-1.838.584-2.007.375-1.365-1.682.786-2.518 2.205-3.809 4.214-3.834.688-.008 1.25-.915 1.25-2.015s-.562-2.015-1.25-2.033c-.687-.019-.235-.88 1.006-1.915 1.24-1.035 1.857-2.032 1.371-2.217-.491-.186-.428-1.445.143-2.835.565-1.375 1.16-3.163 1.323-3.973.162-.81 1.001-1.988 1.864-2.619 1.387-1.015 1.307-1.342-.694-2.834-1.703-1.269-1.813-1.55-.448-1.137 1.449.439 1.688.148 1.183-1.443-.645-2.033.101-2.425 3.861-2.028 1.035.11 1.582-.252 1.234-.816-.344-.556-.146-1.308.439-1.67 1.339-.827-.661-3.48-2.623-3.48-.817 0-1.108-.622-.738-1.584.446-1.162.807-1.261 1.356-.372.412.667 1.279.885 1.926.485.866-.535.763-1.185-.39-2.459-.862-.953-1.266-2.033-.899-2.401 1.033-1.033-1.975-.761-3.664.331m337.5 17c-2.517.332-3.902 1.001-3.736 1.804.144.702-.152 2.053-.659 3.001-1.087 2.03 1.149 5.774 2.828 4.736.587-.362 1.067-.182 1.067.4 0 .582.675 1.059 1.5 1.059s1.5.41 1.5.912 1.125.788 2.5.637c2.847-.312 2.912-.187 1.384 2.668-.921 1.72-.854 1.986.378 1.513.822-.316 1.948-.12 2.503.435.679.679 1.229.653 1.681-.078 1.036-1.675 2.554-1.287 2.554.653 0 2.106 4.976-2.782 5.035-4.946.02-.712.712-.169 1.538 1.206 1.488 2.477 1.496 2.467.8-1-.386-1.925-.648-4.85-.583-6.5.11-2.74.041-2.807-.797-.767-.965 2.353-3.993 2.176-3.993-.233 0-1.833-3.182-2.817-4.155-1.284-.448.706-.821 2.072-.83 3.034-.008.962-.681 1.75-1.496 1.75-1.173 0-1.356-.907-.883-4.361.682-4.974-.496-5.646-8.136-4.639m-44.463 15.931c-1.194 2.231 20.101 12.651 22.784 11.149.913-.511 2.575-.5 3.96.027 5.038 1.915 4.205-.501-.9-2.611-2.96-1.223-9.776-4.042-15.147-6.264-8.943-3.7-9.845-3.894-10.697-2.301M30.475 304.316c-.356 2.374-.539 4.962-.407 5.75.132.789-.112 3.797-.543 6.684-.706 4.735-1.413 5.741-3.775 5.368-.413-.065-.75.432-.75 1.105 0 .672-.633.319-1.406-.785-1.47-2.1-2.335-5.705-3.286-13.709-.893-7.515-2.308-6.588-2.308 1.512 0 4.047-.382 7.787-.85 8.309-.467.522-1.641 2.975-2.609 5.45s-1.984 5.063-2.258 5.75c-.638 1.604 13.898 1.759 16.848.18 5.161-2.762 7.695-20.781 3.916-27.843-1.56-2.914-1.836-2.675-2.572 2.229m137.797 33.723c-.145 1.926.355 2.03 8.995 1.872 6.036-.11 9.276.217 9.524.961.207.621 1.49 1.128 2.851 1.128 1.636 0 2.231.397 1.753 1.17-.5.808-.156.952 1.111.466 1.097-.421 2.161-.188 2.649.58.494.779.82-.388.83-2.966.014-4.043-1.11-5.474-2.515-3.201-.45.727-1.044.719-1.944-.027-2.093-1.737-14.213-2.526-16.002-1.042-1.042.865-1.524.91-1.524.142 0-2.186-5.561-1.296-5.728.917m-69.524 5.421c.398 2.083.098 2.54-1.667 2.54-1.841 0-1.997-.288-1.081-2 .688-1.286.714-2 .07-2-.55 0-1.395.788-1.878 1.75-1.077 2.147.019 7.336 1.16 5.49.421-.682 1.302-1.226 1.957-1.208.762.02.651.47-.309 1.25-1.291 1.048-1.707 2.925-1.046 4.718.751 2.038.736 6-.022 6-.513 0-.932.45-.932 1s1.338 1 2.974 1h2.973l-.223-10.168c-.142-6.425-.636-10.305-1.343-10.539-.707-.235-.94.563-.633 2.167m132.779 13.534c.367 1.378.735 3.631.82 5.006l.153 2.5 13-.018c13.275-.018 15.5-.463 15.5-3.1 0-.825-.45-1.222-1-.882-.55.34-1.016.029-1.035-.691-.02-.72-.582-.362-1.25.794-.668 1.157-1.777 1.907-2.465 1.667-.687-.24-1.25.051-1.25.647 0 .595-.787 1.083-1.75 1.083-1.888 0-7.249-6.06-7.251-8.197-.001-.947-1.931-1.305-7.07-1.309-7.056-.006-7.068-.002-6.402 2.5m-102.92 17.732c-.124.124-18.838.296-41.586.382-22.748.085-42.521.505-43.94.931-3.076.925 426.974 1.238 435.781.318 3.346-.35 5.892-.945 5.659-1.323-.234-.378-2.584-.428-5.223-.111-4.752.571-236.84.488-311.631-.112-21.359-.171-38.935-.209-39.06-.085" fill="#d3d3d3" fill-rule="evenodd"/></svg>