<svg xmlns="http://www.w3.org/2000/svg" width="500" height="326"><path d="M17.25 11.662c-.687.278-1.25 2.056-1.25 3.953 0 2.142-.568 3.666-1.5 4.023-2.01.772-2.039 12.583-.044 18.236L15.911 42l-4.205.16c-3.686.14-3.804.21-.956.563 2.454.305 3.25.896 3.25 2.412 0 5.09 2.842-1.196 3.265-7.221.247-3.528 1.002-9.472 1.678-13.209 1.075-5.953 1.026-7.104-.4-9.28-1.603-2.446-1.589-2.475.914-1.846 1.934.485 2.543.253 2.543-.971 0-1.558-2.164-1.989-4.75-.946m198 1.036c2.5.395 4.282 4.302 1.963 4.302-.433 0-.861.788-.951 1.75-.09.962-.592 3.965-1.116 6.671-1.328 6.868-.752 7.847 4.241 7.207 2.262-.289 4.866-.549 5.785-.577 1.023-.031 2.15-1.498 2.901-3.773.676-2.048 1.729-4.223 2.34-4.834 1.375-1.375 4.728-1.481 3.889-.123-.342.553-.102.674.543.274.674-.416 1.155-.098 1.155.764 0 .813.309 2.302.687 3.309.605 1.613.485 1.668-1 .46-1.513-1.231-1.687-1.062-1.687 1.639 0 5.062-2.977 7.785-6.983 6.389-2.014-.702-3.745-.799-4.415-.247-1.288 1.062-8.711 1.74-10.13.926-.535-.307-2.118-.831-3.518-1.164-1.497-.357-3.032-1.753-3.728-3.389l-1.182-2.782.497 2.75c.408 2.256.135 2.75-1.522 2.75-1.11 0-2.019-.369-2.019-.821 0-.451-2.206-.537-4.902-.192-2.697.346-5.821.29-6.943-.125-1.122-.416-3.526-.329-5.341.191-6.267 1.798-12.732.465-10.171-2.096 1.374-1.374.542-5.183-1.02-4.67-.618.204-1.267 1.347-1.443 2.541-.175 1.195-.963 2.172-1.75 2.172-.786 0-1.43.873-1.43 1.941 0 2.163-1.961 3.934-2.068 1.868-.037-.72-.556-.296-1.152.941-.597 1.237-1.467 2.25-1.933 2.25-.466 0-.847.436-.847.969 0 .532.563.831 1.25.664.688-.168.912-.116.5.114-.412.231-.743 1.17-.735 2.086.014 1.442.147 1.464.985.167 1.78-2.755 1.103.877-.893 4.79-4.171 8.176-5.55 23.648-2.653 29.754.967 2.038 1.373 3.988.902 4.331-.471.344-.817 1.975-.769 3.625.047 1.65-.269 3.719-.704 4.597-.443.896-.326 2.06.267 2.653.581.581.897 3.35.703 6.154-.194 2.803.024 5.097.485 5.097.461-.001.538 1.775.171 3.946-.418 2.474-.048 6.495.992 10.774.913 3.755 1.511 8.358 1.329 10.23-.369 3.804-.179 4.039-4.16-5.17-2.366-5.471-3.354-16.734-1.568-17.865.997-.632 1.04-.89.148-.901-1.524-.018-1.666-5.369-.215-8.081.719-1.343.714-1.934-.018-1.934-1.419 0-1.03-9.981.392-10.063.6-.035.079-.471-1.159-.968-1.299-.522-2.25-1.764-2.25-2.937 0-1.274-.652-2.026-1.75-2.017-1.469.013-1.513.165-.278.947 1.256.794 1.212 1.03-.295 1.608-1.639.629-1.619.782.271 2.106 2.439 1.708 2.02 12.032-.658 16.224-1.146 1.795-1.357 3.687-.836 7.5.383 2.805.703 5.775.711 6.6.008.825 1.605 4.849 3.549 8.942 3.523 7.42 3.528 7.453 1.766 10.725-1.886 3.501-1.755 3.902 2.77 8.54 1.034 1.059 1.752 3.327 1.755 5.543.003 2.063.29 8.044.637 13.291.527 7.955.369 9.805-.952 11.126-1.445 1.445-1.369 1.786.872 3.892 1.953 1.834 2.367 3.039 2.019 5.874-.241 1.962-.506 4.692-.589 6.067-.082 1.375-.361 1.985-.619 1.356s-1.347-.914-2.421-.633c-1.124.294-1.952.008-1.952-.674 0-.729-.769-.94-2-.549-5.963 1.892-7.967-4.763-2.604-8.649.492-.357.612-1.387.267-2.288-.379-.985-.038-1.866.854-2.208 1.833-.703 1.884-1.81.164-3.534-2.082-2.084-2.593-5.565-1.107-7.525 1.708-2.252 1.731-2.831.176-4.475-2.487-2.628-3.437-7.151-2.065-9.821 1.541-2.997 1.699-6 .315-6-.55 0-1-.675-1-1.5s-.675-1.5-1.5-1.5-1.5-.627-1.5-1.393-.709-1.665-1.576-1.998c-1.279-.491-1.544.103-1.403 3.143.261 5.646-.244 6.33-.921 1.248-.33-2.475-.229-4.772.224-5.105.453-.332.154-1.275-.665-2.094-2.304-2.303-4.618-16.801-2.682-16.801 1.463 0 .301-6.324-2.02-11-2.212-4.454-3.25-10-1.873-10 .569 0 .787-.399.486-.887-.301-.487.122-1.442.941-2.122.819-.68 1.489-1.856 1.489-2.613 0-.758.482-1.378 1.072-1.378.719 0 .84 1.856.367 5.641-.467 3.736-.361 5.429.311 5.013.559-.345 1.37-3.221 1.802-6.391.432-3.17.968-4.976 1.19-4.013.223.963.89 1.75 1.484 1.75 2.009 0 .062-22.022-2.716-30.72-2.836-8.882-3.139-12.28-1.093-12.28.779 0 1.566-.359 1.75-.797.36-.862 9.261-5.203 10.667-5.203.471 0 1.713-.956 2.761-2.125l1.905-2.125-3.5.745c-1.925.41-4.625 1.31-6 1.999-4.993 2.502-6.808 2.7-7.303.798-.34-1.313-.496-1.148-.581.615-.101 2.105-.399 1.892-2.366-1.691C138.224 35.615 130.513 27 128.92 27c-.571 0-.766-.441-.433-.979C129.489 24.4 127.072 21 124.919 21c-1.105 0-3.114 1.105-4.464 2.455-1.35 1.35-2.462 2.137-2.47 1.75-.009-.388-.346-.217-.75.38-1.933 2.856-4.515 3.144-11.62 1.294-10.26-2.671-26.915-3.255-40.084-1.406C59.547 26.313 54.519 27 54.357 27c-.162 0-.048.642.253 1.427.404 1.052-.017 1.279-1.602.865-1.343-.351-3.236.24-5.039 1.573-1.588 1.174-3.919 2.155-5.179 2.179-3.159.06-10.191 2.658-10.611 3.92-.19.57-1.208 1.036-2.262 1.036-1.463 0-1.917.71-1.917 3 0 1.853.517 3 1.351 3 3.478 0 7.781-2.478 9.704-5.588C40.214 36.535 41.628 35 42.197 35c.568 0 .311 1.101-.571 2.448-.882 1.346-1.349 3.109-1.039 3.919.311.809-.169 2.591-1.065 3.96-1.096 1.672-1.28 2.705-.56 3.149.718.444.505 1.618-.65 3.572-.945 1.601-1.965 2.541-2.266 2.089-1.232-1.855-7.035 1.901-8.554 5.537-2.554 6.112 2.86 7.729 6.447 1.925 1.156-1.87 2.739-3.645 3.519-3.944 2.121-.814 2.425 2.468.496 5.345-2.808 4.187-3.727 9.084-3.459 18.43.154 5.34-.231 10.092-.957 11.818-1.31 3.116-.353 12.686 1.567 15.66.792 1.226.916.903.539-1.408-.277-1.702.149-4.081.986-5.5 1.334-2.262 1.415-1.308.854 10-1.104 22.224-.557 28.5 2.483 28.5 1.7 0 4.518 8.794 3.591 11.209-.53 1.382-.829 1.356-2.579-.228-1.939-1.755-1.98-1.713-2.042 2.114-.059 3.632-.134 3.73-1.072 1.405-.554-1.375-.807-5.061-.562-8.191.327-4.191.087-5.829-.912-6.213-.81-.31-1.094-1.206-.704-2.222.409-1.066.259-1.459-.401-1.051-.587.363-1.635-.752-2.366-2.517l-1.313-3.169-.871 2.932c-.479 1.612-.978 3.606-1.109 4.431-.131.825-.862 2.77-1.626 4.322-1.138 2.315-1.184 4.47-.256 12 .622 5.048.895 10.344.606 11.77-.324 1.602.064 3.18 1.015 4.131.846.846 1.26 1.817.92 2.158-.341.34.063.619.897.619 1.864 0 1.95 11.267.1 13.117-.87.87-.744 1.776.514 3.696C33.745 193.786 34.856 235 32.988 235c-.543 0-.988.702-.988 1.559s.45 1.281 1 .941c1.668-1.031 1.091 4.702-.919 9.129-1.958 4.311-1.91 21.371.06 21.371 1.305 0 1 5.014-.578 9.5-1.823 5.18-1.123 5.736 7.391 5.88 7.02.119 7.088.146 6.559 2.62-.294 1.375.132 6.258.947 10.85 1.354 7.63 1.34 8.493-.158 9.991-1.519 1.519-1.589 1.438-.952-1.101.725-2.889.12-3.336-2.35-1.74-.949.613-1.052.975-.281.985.67.008.978.64.685 1.404-.562 1.465-4.309 1.046-4.529-.506-.952-6.725-3.875-10.365-3.875-4.824 0 1.068-.477 1.941-1.059 1.941s-.8-.419-.484-.931c.317-.512.118-1.213-.441-1.559-.637-.394-1.016 1.251-1.016 4.406 0 4.957.065 5.063 4.25 6.938 3.261 1.461 6.227 1.858 12.75 1.706l20.5-.478c11.462-.266 11.798-.333 7.5-1.495-2.821-.763-3.94-1.443-3-1.823.825-.333-1.978-.642-6.23-.685-12.436-.127-20.116-3.83-17.924-8.641 1.154-2.531 1.299-2.573 3.643-1.037 3.202 2.098 3.805 2.017 2.543-.341-1.736-3.244.678-9.975 3.052-8.508.472.291 1.144-.614 1.495-2.011.792-3.156 1.722-3.216 3.328-.214 1.753 3.276 11.554 6.22 19.502 5.86 1.051-.048 2.738.357 3.75.898 3.384 1.811 1.848-.55-2.24-3.442-3.688-2.611-4.259-3.938-1.836-4.268a19.991 19.991 0 001.452-.25c1.231-.288-1.739-4.125-3.193-4.125-1.303 0-1.363-.27-.331-1.513.862-1.039 1.099-3.711.754-8.523-.276-3.855-.111-7.25.367-7.546.477-.295.873-2.197.88-4.227.006-2.03.676-6.166 1.487-9.191.811-3.025 1.77-8.336 2.131-11.802.492-4.719.998-6.171 2.013-5.781.747.286 1.357.132 1.357-.341 0-.474-.675-1.121-1.5-1.438-2.086-.8-1.902-1.741 1.25-6.409C92.372 222.346 99.391 216 101.064 216c.434 0 .943.788 1.131 1.75.233 1.196 1.278 1.75 3.301 1.75 3.736 0 5.021 3.459 1.327 3.57-2.103.064-2.14.142-.389.828 2.239.877 1.031 1.803-2.033 1.558-1.155-.093-2.621.667-3.259 1.688-.637 1.021-.747 1.856-.244 1.856s.676 1.012.383 2.25c-.51 2.161-.472 2.174.942.347 1.921-2.48 4.203-1.262 2.745 1.464-1.226 2.29.234 2.605 2.032.439 1.612-1.943 3-1.916 3 .059 0 .857-.45 1.281-1 .941-.55-.34-1 .084-1 .941 0 1.066-.95 1.559-3 1.559-3.445 0-3.558.42-1.467 5.425.843 2.018 1.406 4.435 1.25 5.372-.224 1.35.621 1.768 4.079 2.016 4.317.31 4.356.346 3.732 3.469-.347 1.735-1.028 3.552-1.512 4.036-1.012 1.012-5.34-.091-4.663-1.188.247-.399.034-1.379-.474-2.178-.606-.952-.841.871-.684 5.296.211 5.956.474 6.762 2.239 6.866 1.685.099 1.725.19.25.575-3.042.795-1.894 2.311 1.75 2.311 2.833 0 3.5.381 3.5 2 0 1.631-.667 2-3.617 2-3.3 0-3.552.196-2.884 2.25.403 1.238.792 3.45.866 4.917.174 3.432 1.056 4.256 3.245 3.032 2.699-1.511 5.093.467 4.603 3.804-.292 1.987-.872 2.637-2.073 2.323-.918-.24-2.787.01-4.154.556-2.25.897-2.086.997 1.733 1.055 3.324.05 4.096.381 3.643 1.563-.317.825-.051 1.5.59 1.5s.876.47.521 1.044c-.355.574-.175 1.61.4 2.303.803.967.266 1.281-2.321 1.354-1.852.053-4.196.611-5.209 1.241-1.539.956-1.31 1.043 1.385.527 3.684-.706 7.581.223 6.728 1.603-.316.51.803.928 2.485.928s3.059.45 3.059 1 1.176 1 2.613 1c2.344 0 2.568-.315 2.167-3.044-.245-1.674-.072-3.276.387-3.559.458-.283.865.524.903 1.794.114 3.742 1.769-.839 1.875-5.191.063-2.566.334-3.107 1.016-2.029 1.877 2.969 5.349-5.365 4.57-10.971-.268-1.925-.747-6.184-1.064-9.464-.556-5.738-1.732-8.536-3.589-8.536-.483 0-.885 1.238-.893 2.75-.012 2.143-.23 2.419-.985 1.25-1.004-1.553-1.467-.458-1.106 2.612.072.612-.514 2.355-1.303 3.875-.788 1.519-1.279 3.268-1.09 3.887 1.082 3.558 1.516 13.754.56 13.163-.584-.36-1.093-2.541-1.131-4.846-.102-6.049-1.729-9.51-1.972-4.191l-.182 4-.932-4.873c-.966-5.051-.42-7.152 1.195-4.598.735 1.162.934.998.946-.779.009-1.34-.592-2.25-1.485-2.25-.973 0-1.495-.965-1.485-2.75.011-1.883.282-2.33.86-1.419 1.536 2.424 2.97-8.406 1.711-12.922-.398-1.426-.343-6.635.122-11.577.943-10.016.147-16.96-1.127-9.832-.393 2.2-.837 4.675-.987 5.5-.15.825-.457-2.07-.683-6.433-.285-5.496-.027-8.315.839-9.178 1.723-1.717 1.571-4.389-.25-4.389-2.062 0-1.946-4.615.136-5.414 1.515-.581 1.515-.762 0-2.436-2.093-2.312-2.185-7.15-.136-7.15.825 0 1.545.787 1.6 1.75.065 1.146.333.913.777-.676 2.342-8.378 4.793 1.208 3.391 13.257-.664 5.702-.588 7.989.289 8.717 1.291 1.071 4.443.274 4.443-1.124 0-.473.563-.655 1.25-.403 3.201 1.173 4.034-1.071 2.873-7.738-1.368-7.854-1.459-16.457-.183-17.246.518-.32 1.802.343 2.854 1.472 1.911 2.052 1.915 2.049 4.004-2.978 2.543-6.119 3.777-6.324 5.245-.871 1.192 4.426-.989 16.57-3.224 17.952-2.74 1.693-4.874-.291-4.284-3.984.403-2.523.286-3.171-.383-2.128-.53.825-1.217 5.05-1.529 9.389-.381 5.323-1.108 8.489-2.232 9.732-1.329 1.468-1.421 2.138-.453 3.304.987 1.189.453 2.581-2.862 7.464-3.986 5.868-5.08 9.111-3.076 9.111.55 0 1 1.827 1 4.059 0 2.451.396 3.814 1 3.441.55-.34 1-1.746 1-3.124 0-3.046 3.889-12.376 5.158-12.376.507 0 .452.861-.124 1.936-1.357 2.536-1.805 10.564-.589 10.564.519 0 1.084-1.575 1.255-3.5.504-5.682 1.336-8.365 2.294-7.395.51.518.444 2.938-.158 5.743-.73 3.402-.722 5.166.024 5.912.753.753 1.258-.144 1.724-3.057.362-2.267 1.141-4.028 1.73-3.913.589.116 1.403-1.971 1.81-4.638.765-5.024 1.426-6.435 2.508-5.353.746.746-4.186 24.999-5.635 27.707-1.458 2.724-1.217 7.77.416 8.694 1.144.648 1.224 1.835.421 6.233-.882 4.836.464 15.102 1.805 13.762.199-.2.606-5.5.905-11.779.662-13.964 2.191-21.978 2.354-12.34.149 8.846 4.252 12.219 11.509 9.459 2.971-1.129 2.684.042 6.23-25.469 2.335-16.804 2.911-19.395 3.668-16.5.599 2.288.505 4.529-.279 6.715-.648 1.804-1.366 7.261-1.595 12.125-.404 8.569-2.816 23.812-3.947 24.943-.306.306-4.027.805-8.27 1.11-6.798.487-7.455.701-5.53 1.797 1.202.684 3.141 1.244 4.309 1.244 1.169 0 1.884.39 1.59.866-.294.476-1.671.649-3.059.383-2.676-.511-3.795 2.847-1.434 4.307.656.405.837 2.019.454 4.059-.413 2.205-.245 3.385.482 3.385.629 0 .43.687-.455 1.572-1.007 1.007-1.354 2.446-.963 4 .42 1.675.188 2.433-.75 2.443-1.107.013-1.098.18.051.908.775.49 2.125.672 3 .403 1.144-.352 1.046-.045-.35 1.092-1.822 1.485-1.591 1.582 3.75 1.582 5.642 0 8.223-1.875 2.941-2.136-2.415-.12-2.471-.19-.461-.575 2.197-.421 9.816.855 13.463 2.254.962.369 1.748.217 1.748-.338s-1.35-1.48-3-2.055c-1.65-.575-3-1.519-3-2.098 0-1.336 1.685-1.371 2.5-.052.34.55 1.266 1 2.059 1 2.063 0 1.818-4.681-.309-5.92-1.095-.637-1.257-1.031-.433-1.05.916-.021 1.093-.716.579-2.28-.406-1.238-.696-2.952-.644-3.81.052-.857-1.333-2.173-3.078-2.924l-3.174-1.364 3.186-.385c1.753-.211 4.543.317 6.201 1.174 1.657.858 4.161 1.559 5.563 1.559 1.403 0 2.55.45 2.55 1s-1.35 1-3 1-3 .477-3 1.059.409.806.91.497c1.135-.702 4.09.37 4.09 1.485 0 .454-1.238.994-2.75 1.198l-2.75.372 2.857.83c2.057.597 3.131.441 3.831-.556.683-.971.788-.537.353 1.449-.404 1.843-.258 2.609.419 2.191.572-.354 1.04-1.291 1.04-2.084 0-.87.99-1.441 2.5-1.441 1.375 0 2.5-.373 2.5-.829 0-.457-.967-.794-2.149-.75-1.182.043-2.332-.446-2.555-1.087-.644-1.848 3.013-2.141 5.087-.408 1.764 1.475 1.839 1.434 1.195-.638-.379-1.217-.237-3.057.315-4.089 1.424-2.659.298-6.602-1.467-5.137-.738.612-2.316.79-3.544.4l-2.215-.702 2.417-1.858c1.713-1.317 1.965-1.864.866-1.88-.852-.012-1.977.376-2.5.863-1.174 1.093-13.616-.368-16.562-1.945-1.49-.797-1.925-.809-1.45-.04.374.605.272 1.1-.227 1.1s-.945-1.358-.992-3.018c-.048-1.66.243-2.815.645-2.566 3.104 1.918 6.412-15.214 4.3-22.265-.784-2.613-.814-4.836-.101-7.417.56-2.027 1.167-5.159 1.35-6.96.731-7.207 2.011-12.421 3.751-15.274 1.369-2.246 1.808-4.885 1.746-10.5-.068-6.249-.24-7-1.032-4.5-.523 1.65-.738 4.463-.477 6.25.472 3.239.003 3.726-2.621 2.719-1.104-.424-1.305-3.043-.999-13 .277-8.981.061-12.469-.77-12.469-.799 0-.997-1.774-.642-5.75.303-3.403.23-4.322-.18-2.25-.663 3.357-.735 3.244-1.742-2.75-.939-5.585-.296-8.936.864-4.5.384 1.472.474 1.432.567-.25.06-1.1-.51-3.187-1.267-4.638-.757-1.451-1.15-3.82-.874-5.265.388-2.031.165-2.496-.986-2.055-.977.375-1.7-.221-2.106-1.735-.951-3.552-.758-7.807.355-7.807 1.439 0 1.234-2.737-.25-3.349-.759-.314-.37-.784.989-1.197 1.231-.375 1.992-1.08 1.691-1.568-.302-.487.055-.886.793-.886.743 0 1.439 1.227 1.561 2.75.121 1.512.964 3.3 1.872 3.972 1.456 1.079 1.47 1.292.117 1.812-1.222.469-1.362 1.34-.685 4.277.468 2.029.609 4.476.314 5.439-.295.963-.036 1.75.576 1.75.723 0 .89 1.186.478 3.385-.356 1.898-.198 3.656.36 4.001.548.339.763 1.508.478 2.599-.88 3.364.549 7.391 2.15 6.062 1.025-.851 1.468-.812 1.791.159.27.809.919.374 1.744-1.167 1.188-2.22 1.484-3.462 1.893-7.935.082-.89 1.089-.359 2.78 1.466l2.653 2.862-2.903 1.239c-1.819.776-2.249 1.256-1.152 1.284 2.013.052 2.123.479.772 3.004-.846 1.581-.477 1.913 2.75 2.468 2.05.353 4.975.889 6.499 1.191 2.76.548 2.771.528 2.589-4.625-.125-3.524.267-5.465 1.228-6.084 1.114-.717.92-1.044-.919-1.547-1.656-.453-2.189-1.176-1.843-2.5.268-1.024-.034-1.876-.67-1.894-.636-.017-.396-.61.534-1.316 1.123-.854 1.671-2.657 1.633-5.375-.031-2.25.207-4.517.529-5.038.322-.52-.51-1.445-1.848-2.055-1.338-.61-2.664-.734-2.947-.275-.284.458-1.976 1.125-3.762 1.482s-5.194 1.592-7.573 2.744c-5.395 2.611-6.113 2.03-2.401-1.943 2.222-2.379 4.072-3.242 8.092-3.775 5.445-.722 5.68-2.079.522-3.015-1.591-.288-3.127-.886-3.414-1.328-.286-.443-1.533-1.12-2.771-1.507-1.238-.386-2.25-1.346-2.25-2.134 0-2.041 4.68-1.761 9.5.567 2.2 1.063 4.563 1.947 5.25 1.966.688.019 1.25.473 1.25 1.009 0 .627-.893.636-2.5.025-1.586-.603-2.5-.601-2.5.006 0 .526 1.125 1.238 2.5 1.583s2.5 1.056 2.5 1.578c0 .523.459.667 1.02.321.561-.347.869-2.648.683-5.114-.321-4.268.513-6.451 1.719-4.5.308.498 3.753 1.689 7.655 2.645 6.284 1.54 6.924 1.909 5.605 3.228-.938.937-1.989 1.172-2.836.632-.74-.472-3.222-.917-5.516-.989-4.062-.128-4.141-.07-3.067 2.288.931 2.043 1.24 2.175 1.981.85.979-1.749 2.702-1.218 2.356.726-.535 3.004-1.808 5.746-2.667 5.746-1.253 0-1.195 3.72.07 4.502.655.405.598 1.376-.167 2.804-1.394 2.605-2.134 14.777-.767 12.617.743-1.175.903-1.132.916.246.013 1.437.522 1.53 3.653.665 2.799-.773 3.855-.696 4.576.331.663.943 1.077.999 1.41.191.26-.629 1.281-.932 2.271-.673 1.288.337 2.161-.403 3.073-2.606 1.497-3.614 3.338-4.143 2.477-.713-.694 2.764 1.963 4.372 4.182 2.531 1.061-.881 1.373-.796 1.373.376 0 2.186 3.19 3.142 4.237 1.27.474-.848 1.665-1.541 2.646-1.541 2.962 0 3.34-1.321.912-3.189l-2.295-1.767 3.281-.022c4.192-.028 4.703 1.693 5.14 17.295.062 2.208.458 2.7 1.829 2.273.963-.299 2.425-.112 3.25.418 1.126.722.651.965-1.905.977-3.161.014-3.295.141-1.869 1.765 1.026 1.17 1.267 2.413.725 3.75-.446 1.1-.549 4.212-.23 6.915.514 4.348.384 4.839-1.126 4.26-1.847-.709-5.172 5.379-4.25 7.782 1.056 2.752-1.214 4.149-2.885 1.776-.878-1.246-1.996-2.02-2.484-1.718-1.093.676-3.752-3.247-4.89-7.214-.87-3.035.491-14.106 1.924-15.65.434-.467 1.793-.531 3.021-.141s1.778.997 1.221 1.349c-1.854 1.174-2.694 13.141-.922 13.141 3.441 0 5.715-10.045 4.926-21.76-.398-5.907-.869-9.551-1.046-8.098-.251 2.063-.749 2.53-2.271 2.132-1.072-.281-2.622.048-3.444.73-1.203.999-1.498.973-1.51-.132-.012-1.078-.224-1.05-.985.128-.756 1.17-.973 1.2-.985.133-.009-.873-.739-1.177-2.022-.841-1.286.336-2.494-.169-3.36-1.405-1.216-1.737-1.483-1.773-2.654-.361-1.038 1.25-1.469 1.306-2.125.271-.613-.965-.827-.849-.839.453-.011 1.253-.823 1.75-2.86 1.75-1.575 0-3.653.893-4.655 2-.995 1.1-2.865 2-4.155 2s-2.345.45-2.345 1c0 1.66 9.97.223 14.204-2.046 1.764-.946 3.37.309 2.401 1.877-.52.841-11.473 3.701-12.855 3.356-.412-.103-.75.236-.75.754s.338 1.15.75 1.405c.412.256.901 4.22 1.085 8.809l.335 8.345-2.585-2.424-2.585-2.425v3.74c0 2.057-.499 4.672-1.108 5.811-1.043 1.949-1.214 1.842-2.919-1.816-.996-2.137-1.848-3.271-1.892-2.519-.05.848-.818 1.174-2.026.858-1.415-.37-2.048.074-2.326 1.633-.368 2.063-.423 2.05-1.492-.358-.721-1.624-1.132-1.925-1.174-.858-.034.902-1.206 1.928-2.604 2.279-1.397.351-2.26 1.093-1.916 1.649.344.556 1.559.715 2.7.353 2.049-.65 2.066-.507 1.321 11.209-1.114 17.505-.437 22.779 2.953 22.994 6.268.397 13.322 3.216 13.45 5.374.016.275-2.249 2.053-5.034 3.951-6.177 4.21-6.94 5.271-3.32 4.614 1.525-.276 3.158-1.192 3.629-2.034.472-.842 2.096-2.171 3.609-2.954 2.682-1.387 2.846-1.307 6.45 3.138 2.415 2.977 3.699 5.594 3.699 7.537 0 1.637.98 4.719 2.178 6.851 2.483 4.418 1.946 5.73-1.67 4.083-4.033-1.838-7.754.037-6.519 3.284.561 1.476.583 2.53.054 2.53-1.556 0-2.27 4.021-.988 5.566.79.952 1.016 3.187.641 6.35-.906 7.654-.057 8.038 18.723 8.476l15.734.367 1.078-2.367c1.072-2.352.38-9.116-2.241-21.892-1.429-6.963-3.037-17.608-3.021-20 .007-1.1.023-2.996.036-4.213.015-1.442.494-2.033 1.373-1.695 1.511.579 2.632-3.494 2.607-9.467-.012-2.709-.261-3.246-.985-2.125-.701 1.085-.974 1.139-.985.195-.008-.718-2.276-2.245-5.039-3.394-2.763-1.148-4.778-2.332-4.479-2.631.93-.931 4.922-.959 6.681-.047 2.121 1.1 5.616-.014 3.72-1.186-1.011-.625-1.017-1.088-.031-2.277 1.022-1.231.866-1.61-.89-2.167-1.17-.372-2.39-.413-2.71-.093-.721.721-3.267-1.298-3.267-2.59 0-.52.901-.659 2.003-.309 2.181.692 4.997-1.428 4.997-3.763 0-.773.269-1.674.598-2.002.869-.87 3.485.321 2.875 1.308-.284.459.281.794 1.255.744.975-.05 3.668.44 5.985 1.089 2.316.649 5.36.892 6.763.54 1.402-.352 3.107-.199 3.787.34.68.54 3.6 1.535 6.487 2.212 2.887.677 5.25 1.523 5.251 1.881 0 .357 1.061.711 2.357.785 1.296.075 4.009.92 6.029 1.878 3.518 1.67 3.758 1.666 5.709-.1 1.925-1.742 1.941-1.913.279-3.128-1.628-1.19-1.596-1.285.434-1.285 1.205 0 2.138-.338 2.073-.75-.309-1.956.248-2.387 1.618-1.25 2.112 1.752 1.864 4.244-.634 6.383l-2.135 1.828 2.885 2.444c2.987 2.531 2.491 2.647-3.116.728-.55-.188-2.575 1.984-4.5 4.827-3.689 5.449-7.063 9.061-7.786 8.337-.238-.238.458-1.695 1.546-3.239 2.331-3.307 6.52-11.408 6.06-11.716-1.704-1.141-9.212-3.377-10.133-3.018-1.188.462-6.779 8.84-10.296 15.426-1.028 1.925-2.506 4.287-3.285 5.25-.779.962-1.12 1.75-.759 1.75.362 0-1.593 4.455-4.345 9.899C248.609 284.572 248.196 286 250.5 286c.825 0 1.5.62 1.5 1.378 0 .757.685 1.946 1.523 2.641.873.724 1.272 2.05.936 3.109-.384 1.211.398 2.898 2.278 4.909l2.864 3.065 2.764-2.174c2.662-2.095 2.897-2.114 6.449-.524 2.957 1.323 4.675 1.461 8.686.694 4.919-.94 8.671.132 5.167 1.476-2.618 1.005-1.956 3.13 1.333 4.276 2.223.775 3 1.675 3 3.476 0 2.603 2.325 5.209 3.822 4.284.5-.309.699-1.663.442-3.009l-.468-2.447 7.852 2.423c9.424 2.908 11.388 3.002 12.022.576.635-2.425 4.953-1.702 5.646.946.868 3.32 8.986 2.676 10.702-.849 2.116-4.344 2.384-9.158.55-9.862-1.032-.396-1.568-1.864-1.568-4.295 0-2.031-.528-4.221-1.173-4.866-.843-.843-.881-1.814-.135-3.45.642-1.41.7-3.189.151-4.672-.487-1.317-.614-3.252-.281-4.299.781-2.463-2.069-6.806-4.468-6.806-1.032 0-2.098.909-2.394 2.04-.42 1.604-1.065 1.907-3.023 1.415-1.563-.392-3.437-.003-5.039 1.046-1.402.919-3.032 1.373-3.621 1.009-.589-.364-4.997-.794-9.794-.955-9.749-.328-16.223-1.364-16.223-2.595 0-1.23 14.318-20.099 17.387-22.914 2.928-2.685 1.756-2.821 13.113 1.511 1.775.677 1.727.464-.424-1.897-1.334-1.463-2.103-2.66-1.71-2.66.939 0 7.529 3.569 10.384 5.625 2.085 1.5 2.25 1.495 2.25-.074 0-2.554 2.634-4.948 3.36-3.055.305.794 1.699 1.732 3.097 2.083 3.013.756 3.22 1.828.7 3.614-1.615 1.145-2.686 3.859-3.438 8.717-.145.93 2.35 2.292 7.323 4 7.872 2.703 11.432 5.211 12.193 8.59.4 1.779.575 1.696 1.583-.75.623-1.512 1.819-2.75 2.657-2.75.839 0 1.525-.675 1.525-1.5s.62-1.5 1.379-1.5c1.659 0 4.07-5.387 3.304-7.384-.319-.83.194-1.612 1.235-1.884 1.755-.459 3.082-4.488 3.082-9.357 0-2.195-.361-2.36-4.75-2.177-3.486.145-6.347-.573-10.75-2.701-3.3-1.594-6.755-2.82-7.677-2.723-2.04.215-24.823-10.362-24.823-11.523 0-.454 5.295-6.208 11.766-12.788 14.094-14.33 18.723-20.292 24.236-31.213 3.583-7.098 6.998-10.624 6.998-7.225 0 1.691 8.097 13.975 9.212 13.975.662 0 .695-.449.092-1.25-3.456-4.589-8.406-12.982-7.935-13.453.312-.311 1.819-.098 3.349.475 6.145 2.299 6.82 2.539 7.782 2.774.55.134 1.45.404 2 .599.55.195 1.096.001 1.214-.431.118-.432.931-1.502 1.806-2.377 1.455-1.455 1.33-1.75-1.464-3.449-3.999-2.432-4.013-4.257-.027-3.382 1.665.366 2.962.289 2.881-.17-.461-2.619.375-3.336 3.89-3.336 2.09 0 4.359.559 5.042 1.242.988.988 1.433.938 2.184-.25.835-1.32.947-1.319.974.008.024 1.176.209 1.219.857.197.454-.716 1.235-1.188 1.735-1.047 3.751 1.054 10.444-2.431 7.119-3.707-.709-.273-1.357-1.393-1.44-2.491-.082-1.097.212-1.771.655-1.497 1.102.681 3.033-11.613 2.095-13.34-1.089-2.006-5.021 2.147-5.021 5.303 0 1.33-.273 3.13-.607 4-.89 2.32-2.639 1.934-1.893-.418.349-1.1.207-2-.316-2-1.722 0-2.092 4.211-.574 6.527 1.744 2.663.171 3.863-2.953 2.253-1.014-.523-2.886-.688-4.161-.368-2.511.63-2.599.026-.674-4.662.62-1.512 1.616-2.75 2.212-2.75.596 0 .816-.433.489-.962-.373-.604-1.515-.543-3.063.162-3.183 1.45-4.265.347-2.055-2.095 1.133-1.252 1.359-2.133.656-2.567-.587-.363-.817-1.663-.509-2.888.307-1.226.052-3.561-.567-5.189-1.45-3.814-2.58-2.058-4.395 6.826-1.597 7.819-1.113 10.046 2.05 9.441 1.298-.248 2.36-.063 2.36.411 0 .835-2.195 1.267-4.75.936-.687-.09-1.25.242-1.25.737s-3.262 1.179-7.25 1.521c-7.618.653-9.291.942-11.766 2.033-.834.368-3.084.466-5 .219-1.916-.248-4.032-.48-4.703-.518-1.401-.077-.55-3.067.874-3.067.517 0 2.013-1.238 3.323-2.75 1.912-2.207 2.634-2.503 3.652-1.5 1.023 1.007.916 1.25-.552 1.25-1.507 0-1.607.26-.578 1.5.685.825 1.92 1.5 2.745 1.5 1.164 0 1.242-.31.352-1.383-.885-1.067-.799-1.517.377-1.969.84-.322 1.546-1.612 1.571-2.867.025-1.254.663-3.631 1.419-5.281 1.226-2.677 1.382-2.758 1.455-.75.088 2.445 4.709 3.41 4.789 1 .022-.687.392-2.57.821-4.184.697-2.621.614-2.781-.779-1.5-.857.789-1.489 1.828-1.404 2.309.085.481-.408 1.081-1.095 1.333-2.135.783-2.56-2.587-.687-5.445 1.061-1.62 1.95-2.222 2.195-1.486.226.679.823.981 1.326.67.503-.311.915-.105.915.458 0 .563 1.037.027 2.304-1.191 2.605-2.504 2.413-4.714-.411-4.714-1.468 0-1.894-.73-1.898-3.25l-.005-3.25-2.459 3c-1.352 1.65-2.475 2.528-2.495 1.95-.02-.578.527-1.656 1.214-2.397 1.02-1.1.929-1.234-.5-.732-2.67.94-4.477-.177-4.239-2.621.123-1.268.03-1.452-.22-.435-.239.97-.852 1.506-1.362 1.191-.511-.316-.929-.183-.929.294s-.574 1.653-1.276 2.613c-1.438 1.966-4.724 1.291-4.724-.97 0-1.434-2.153-1.907-3.329-.731-.364.364.46 2.132 1.83 3.928 1.424 1.867 2.233 3.94 1.888 4.838-.364.948-.064 1.585.754 1.604.956.022.84.424-.393 1.36-.962.731-1.75 2.066-1.75 2.968 0 2.108-1.6 2.126-2.405.027-.501-1.306-.902-1.377-2.107-.377-1.225 1.017-1.509.904-1.606-.638-.069-1.09-.437-.62-.882 1.128-.42 1.65-.817 2.213-.882 1.25-.213-3.154-1.656-1.836-3.01 2.75-.731 2.475-1.756 4.5-2.277 4.5-.522 0-.671.45-.331 1 1.12 1.812 2.331 1.045 2.974-1.883.592-2.694.856-2.832 4.03-2.116 1.868.421 3.643.518 3.946.216.302-.303.55-.218.55.188s-.642 1.38-1.427 2.165c-1.236 1.236-1.488 1.193-1.884-.322-.412-1.575-.468-1.565-.573.109-.075 1.2-.636 1.658-1.584 1.294-.807-.31-1.734-.133-2.059.393-.489.792 4.03 1.508 6.777 1.074.413-.065.638.428.5 1.096-.377 1.834-4.832 3.956-6.135 2.923-1.749-1.387-11.688-2.061-10.859-.737 1.077 1.722 1.158 3.6.156 3.6-.502 0-.912-.477-.912-1.059s-.48-.762-1.067-.4c-.586.363-.829.896-.539 1.186 1.234 1.235-2.529 6.272-4.67 6.251l-2.224-.022 2.327-1.791c1.784-1.372 2.251-2.576 2-5.151-.475-4.88-2.646-5.001-3.415-.19-.572 3.575-.901 3.945-3.274 3.676-1.451-.164-3.2.161-3.888.723-.926.757-1.25.487-1.25-1.042 0-1.134.438-2.334.974-2.665.536-.331.873-2.376.75-4.544-.209-3.684-.505-4.039-4.514-5.411-5.167-1.767-6.663-1.34-6.854 1.955-.08 1.37-.482 3.277-.894 4.238-.927 2.162-.598 6.778.726 10.18.55 1.411 1.198 4.366 1.44 6.566s.63 4.548.862 5.218c.233.67-.008 1.484-.534 1.809-.526.325-.956 1.07-.956 1.654 0 .717.446.694 1.367-.071 2.065-1.713 3.651.733 2.481 3.826-.909 2.403-.945 2.41-2.78.5-2.279-2.374-3.627-6.436-2.135-6.436 1.457 0 1.354-5.313-.133-6.8-1.736-1.736-2.8-1.476-2.8.683 0 1.919-2.52 3.078-6.75 3.103-1.238.008-2.25.525-2.25 1.15 0 .771 1.446.938 4.5.519 3.986-.546 4.5-.397 4.5 1.305 0 1.057.45 2.2 1 2.54.55.34 1 1.266 1 2.059 0 1.729 3.895 5.808 5.816 6.09 2.448.36 2.563 1.319.429 3.605-1.153 1.235-2.415 3.596-2.804 5.246-.388 1.65-1.504 4.8-2.479 7-.975 2.2-2.008 5.505-2.295 7.344-.637 4.079-.909 4.384-3.144 3.527-1.509-.58-1.668-1.482-1.105-6.274l.657-5.597-4.544 6.243-4.544 6.244-5.244-2.049c-9.561-3.735-17.692-6.323-18.216-5.798-.285.285-.791 2.509-1.125 4.942l-.606 4.425 9.602 2.884c9.305 2.796 10.489 3.663 8.748 6.407-.822 1.295-4.512.165-21.804-6.679-4.382-1.734-5.242-1.821-5.719-.58-.308.804-1.072 1.461-1.699 1.461-.626 0-.9-.62-.609-1.378.822-2.143-1.411-3.865-2.73-2.106-.719.958-1.567 1.143-2.511.548-1.31-.826-.494-9.987 1.498-16.814.722-2.474 2.139-1.188 1.629 1.478-.508 2.656-.46 2.688 1.802 1.186 2.532-1.681 3.898-11.907 1.593-11.921-.603-.003.162-.836 1.7-1.849 2.987-1.97 6.702-8 6.708-10.89.002-1.171.662-.674 1.985 1.496 2.084 3.417 6.83 4.827 5.618 1.668-.334-.87-.614-2.557-.622-3.75-.013-1.772-.195-1.894-.998-.668-.685 1.046-.944-.733-.856-5.876.121-6.999-.028-7.522-2.909-10.214-2.881-2.693-3.532-2.601-4.166.59-.453 2.283-3.567 4.508-6.461 4.616-1.702.064-2.364.311-1.47.549.948.253 1.625 1.469 1.625 2.917 0 2.258-.354 2.463-3.875 2.256-4.545-.269-4.909-1.232-1.199-3.176 2.621-1.374 2.634-1.426.607-2.51-1.679-.899-2.58-.706-4.777 1.022-3.525 2.773-9.819 1.638-10.317-1.861-.186-1.302-1.4-2.585-3-3.171-1.837-.672-2.116-1.009-.88-1.063 1.079-.047 1.527-.535 1.111-1.209-.384-.621-.298-.929.191-.685.489.245 2.352 1.022 4.139 1.728 3.731 1.472 4.5 4.14 1 3.467l-2.25-.432 2.226 1.168c3.31 1.737 5.577-.357 4.04-3.731-.665-1.459-1.684-2.247-2.502-1.933-.759.291-3.266-.455-5.572-1.658-3.327-1.735-3.791-2.272-2.248-2.601 1.793-.382 1.754-.528-.5-1.863-2.314-1.371-2.188-1.419 2.358-.901 3.039.346 4.577.184 4.191-.441-.336-.543.117-.988 1.007-.988.89 0 1.36.418 1.044.928-.785 1.27 2.756 2.278 4.992 1.42 1.727-.663 1.722-.735-.109-1.453-1.869-.732-1.866-.757.073-.84 1.664-.071 1.748-.249.5-1.055-1.242-.803-1.156-.969.5-.969 2.591 0 5.791 1.878 3.5 2.053-.825.064-.375.449 1 .857s3.063.308 3.75-.222c.871-.672 1.25-.515 1.25.515 0 1.704 6.016 1.925 7.235.266.415-.565.741-.238.75.75.008.963.465 1.75 1.015 1.75.55 0 1-1.575 1-3.5 0-2.353.464-3.5 1.417-3.5 1.588 0 3.522 7.507 3.683 14.299.055 2.311.392 5.202.75 6.425.65 2.223.65 2.223 1.833-.307.963-2.061.916-2.633-.25-3.081-1.653-.634-1.955-3.336-.374-3.336.582 0 .79-.435.461-.967-1.286-2.082.715-11.088 2.699-12.15 2.582-1.382 3.102-.681 1.729 2.333-.793 1.739-.829 3.556-.121 6.121.605 2.191.641 3.874.09 4.214-1.242.768-1.171 5.449.083 5.449.55 0 1 .477 1 1.059s-.48.762-1.067.399c-.588-.363-1.314.285-1.617 1.441-.302 1.156-1.195 2.101-1.985 2.101-1.103 0-1.366 1.214-1.133 5.25l.302 5.25 5.727.085c6.73.1 7.73-1.521 7.289-11.818-.135-3.154.295-6.776.956-8.051 1.657-3.193 2.688-12.818 1.523-14.221-1.002-1.208.066-5.629 2.616-10.826 1.812-3.693 1.755-4.34-.437-4.913-1.549-.405-1.802-1.445-1.669-6.867.086-3.514-.164-6.839-.556-7.389-1.147-1.611-1.721-8.818-.884-11.098.552-1.505.228-2.563-1.147-3.741-2.249-1.925-2.605-6.661-.501-6.661.779 0 1.566-.439 1.75-.974.433-1.267 4.833-.118 4.833 1.262 0 .58.674 1.799 1.497 2.709 1.589 1.756 1.804 9.097 1.179 40.253-.163 8.112-.045 14.764.264 14.782.308.017 1.458.71 2.555 1.539 1.712 1.294 1.783 1.642.5 2.453-.996.63-1.077.95-.245.961.688.008 1.25.915 1.25 2.015s.337 1.999.75 1.998c.965-.003.946-12.635-.02-13.601-.402-.402-.671-3.468-.598-6.814.114-5.278.229-5.62.868-2.583.895 4.251 1.032 3.964 1.316-2.75.221-5.235-.835-7.27-1.558-3-.209 1.238-.405-4.725-.436-13.25-.03-8.604.286-14.388.712-13 .678 2.212.778 2.072.866-1.219.079-2.918-.223-3.594-1.4-3.143-.963.37-1.5-.02-1.5-1.09 0-.964.467-1.378 1.107-.982.752.465.895-.078.447-1.691l-.66-2.375 1.929 2.207c1.061 1.215 2.21 1.927 2.553 1.584.343-.343.671.688.729 2.292.1 2.773.163 2.728 1.297-.93.986-3.18 1.399-3.597 2.387-2.408.656.792.935 1.698.619 2.014-.316.316.379 1.528 1.545 2.694s1.801 2.636 1.411 3.267c-.47.76-.964.495-1.466-.786-.696-1.777-.763-1.751-.828.316-.038 1.237-.52 2.25-1.07 2.25-1.1 0-1.296 3.294-.396 6.649.553 2.063 1.017 2.134 11.618 1.785 6.073-.201 11.283-.605 11.577-.899.294-.294.009-.535-.632-.535-.642 0-1.167-.45-1.167-1 0-1.248 5.544-1.314 7.826-.093S342 127.004 342 126.008c0-1.148-2.684-2.006-6.332-2.023-4.524-.022-6.603-1.533-3.263-2.372 1.427-.358 2.595-1.141 2.595-1.739 0-.598-.661-.834-1.468-.525-2.215.85-2.943-1.237-1.13-3.241 2.266-2.503 2.078-2.776-2.402-3.492-2.2-.352-4.047-1.197-4.104-1.878-.544-6.472-.097-10.999 1.165-11.797.997-.63 1.055-.915.189-.926-.687-.008-1.25-.969-1.25-2.135 0-1.973.417-2.09 6-1.686 5.288.382 6 .218 6-1.38 0-1.275-.753-1.814-2.535-1.814-2.134 0-2.382-.286-1.57-1.804.59-1.102.61-2.366.051-3.25-.504-.795-.922-1.111-.931-.703-.008.409-1.133-.228-2.499-1.416-2.037-1.771-2.262-2.428-1.25-3.647.679-.818 1.085-2.367.903-3.443-.205-1.205.084-1.699.75-1.287 2.375 1.468.903-2.336-1.518-3.923l-2.598-1.702.678 3.087c.412 1.879.278 3.088-.344 3.088-.562 0-.845.92-.628 2.045.461 2.398-.356 4.955-1.585 4.955-.473 0-.639-.578-.368-1.285.297-.774-.347-1.349-1.617-1.445-1.538-.116-1.947.267-1.507 1.413.347.905-.146 2.132-1.165 2.895-1.594 1.195-1.484 1.305 1.124 1.123 1.59-.11 3.065.286 3.278.882.212.596-.196 1.084-.909 1.084-.713 0-2.604.328-4.203.729-2.669.67-2.79.589-1.482-.999 1.31-1.589 1.183-1.67-1.575-1-1.65.401-5.28 1.763-8.067 3.027l-5.068 2.298-1.305-2.948c-1.056-2.387-1.064-3.398-.04-5.312.805-1.504 1.039-4.017.642-6.909-.68-4.967.787-9.553 3.058-9.553.769 0 1.157-.39.863-.866-.295-.477.313-1.635 1.351-2.574 1.037-.939 2.17-2.839 2.517-4.222.619-2.464.683-2.48 3.238-.806 2.531 1.658 2.591 1.648 2.069-.35-.418-1.596.201-2.409 2.753-3.62 4.426-2.1 4.38-2.129 4.048 2.529-.272 3.823-.136 4.061 2.075 3.639 1.471-.282 2.366.022 2.366.802 0 1.466 2.216 2.468 5.459 2.468 2.863 0 4.578 1.977 4.428 5.104-.23 4.809 1.425 16.896 2.314 16.896.503 0 .868-2.588.811-5.75-.249-13.839-.075-16.593 1.091-17.314 1.85-1.143 3.897.041 3.897 2.254 0 5.222 4.227-.62 5.446-7.527.624-3.538.517-3.791-1.384-3.25L345 55.567c-2.287.649-2.68-1.649-1.025-6.002.809-2.127.681-2.585-.75-2.68-.949-.064-2.175-.197-2.725-.297-10.391-1.889-10.611-1.882-13.776.458-1.71 1.264-3.247 1.884-3.416 1.376-.169-.507-2.334-.837-4.81-.734-4.168.175-4.425.045-3.465-1.75.745-1.392.715-1.938-.106-1.938-.697 0-.916-.906-.562-2.316.339-1.352-.07-3.245-.981-4.547-.859-1.226-1.311-2.884-1.005-3.683.307-.8.138-1.454-.375-1.454-1.315 0-3.22 3.841-2.491 5.021.333.538.128.979-.454.979-.582 0-1.066-.788-1.074-1.75-.013-1.452-.172-1.502-.934-.298-.506.799-.697 1.811-.426 2.25.271.439.043.798-.507.798s-1.326-.527-1.724-1.171c-.48-.777-.992-.446-1.52.983-.515 1.393-1.341 1.946-2.336 1.564-.983-.377-1.538-.022-1.538.986 0 .964-.562 1.36-1.448 1.02-1.124-.432-1.539.636-1.86 4.781-.24 3.095-.325 2.291-.203-1.913.116-3.987-.172-7.25-.639-7.25-.468 0-.85 2.502-.85 5.559 0 3.451-.379 5.325-1 4.941-.624-.386-.985 1.564-.96 5.191.039 5.72.063 5.767 1.532 3.059 1.921-3.542 2.515-3.475 2.231.25-.157 2.062-.758 3-1.922 3-1.217 0-1.542.579-1.156 2.057.319 1.22 1.094 1.843 1.906 1.531.753-.289 1.369-.089 1.369.443 0 .533-.372.969-.827.969-.455 0-.645 1.463-.423 3.25l.404 3.25-1.572-2.854c-.864-1.57-1.279-3.327-.922-3.905.379-.613.169-.753-.505-.336-.824.508-1.155-.991-1.155-5.224 0-4.173-.466-6.323-1.57-7.239-1-.83-1.331-2.053-.912-3.372 1.365-4.304 1.372-10.417.013-11.545-1.752-1.453-2.898.243-2.024 2.997.35 1.102.318 7.16-.07 13.463l-.705 11.46-2.79-1.986c-1.551-1.104-3.126-3.423-3.547-5.223-.417-1.78-.956-3.911-1.197-4.736-.24-.825-.654-3.924-.918-6.886-.479-5.365-.471-5.384 2.143-4.884 3.979.761 4.177-1.081.291-2.705l-3.43-1.433-.337-8.296c-.186-4.563-.34-9.983-.343-12.046l-.007-3.75-16.548-.075c-9.102-.041-23.299-.207-31.549-.369-8.25-.161-13.762-.098-12.25.142m104.25 1.219c1.1.472 4.363.719 7.25.55 4.93-.288 5.25-.164 5.25 2.042 0 1.291-.675 3.023-1.5 3.848-.825.825-1.5 2.432-1.5 3.572 0 3.743-1.997 2.161-2.118-1.679-.118-3.732-.122-3.736-.882-.75l-.763 3-.119-3.25c-.165-4.543-2.115-4.086-2.133.5-.009 2.063-.452 4.425-.985 5.25-.695 1.075-.974.029-.985-3.691-.02-6.919-1.738-7.727-2.172-1.021-.789 12.186.155 20.712 2.295 20.712 1.165 0 1.705-.445 1.312-1.081-.404-.654.067-.973 1.191-.808 3.126.46 11.814-1.236 12.594-2.459.415-.651.741.044.75 1.598.008 1.513.465 2.75 1.015 2.75.55 0 1-.525 1-1.167 0-.641.293-.873.651-.515.358.358 1.146.015 1.75-.763 1.886-2.427 15.596-2.415 18.028.016 1.241 1.242 1.571 1.283 1.571.193 0-.758 1.221-1.807 2.714-2.332l2.714-.955-2.464-2.386c-1.355-1.312-1.789-2.157-.964-1.877s2.4.148 3.5-.294c1.968-.791 1.966-.814-.121-1.444-2.148-.65-3.347-5.698-3.37-14.186-.008-2.832-.333-3.21-2.759-3.212-1.512-.002-11.75-.232-22.75-.511-11.496-.291-19.15-.142-18 .35M88.712 28.621c-.341.341-3.089.792-6.106 1.002-6.446.447-10.981 1.962-10.107 3.375.34.551-.158 1.002-1.107 1.002s-1.441.285-1.093.632c1.168 1.168 11.959.386 14.896-1.079 2.461-1.228 2.989-1.238 3.439-.065.292.762 1.057 1.227 1.699 1.032 4.175-1.263 6.772-1.499 6.192-.56-.354.572-1.741 1.04-3.084 1.04S91 35.533 91 36.186c0 .652-.978 2.227-2.174 3.5L86.651 42h2.175c1.196 0 3.079-.905 4.185-2.011l2.011-2.011 4.913 2.489c3.524 1.786 5.043 2.142 5.372 1.261.28-.747.73-.444 1.149.772 2.213 6.428 5.013 7.575 3.218 1.319-.982-3.426-2.237-4.991-6.069-7.569L98.774 33h3.113c3.674 0 7.948-3.466 5.454-4.423-2.024-.776-17.845-.739-18.629.044m309.282 11.391c-.592 1.106-2.746 2.798-4.785 3.761-2.332 1.1-3.711 2.445-3.714 3.624-.01 3.456-8.158 2.792-13.005-1.059-2.823-2.242-4.465-2.931-5.546-2.327-.874.49-2.161.464-2.99-.06-1.085-.687-1.121-.924-.145-.936.72-.008 1.013-.494.651-1.08-.431-.697-1.315-.471-2.559.655-1.046.946-1.915 1.313-1.933.815-.036-1.02-2.968 2.597-2.968 3.661 0 .376 1.117.684 2.482.684 1.365 0 2.238-.394 1.941-.875-1.125-1.82.746-3.031 2.426-1.571.908.789 3.001 1.908 4.651 2.487l3 1.051-3.5.185c-1.925.102-4.384.25-5.465.329-2.549.187-4.724 4.389-4.086 7.894.307 1.687.06 2.75-.641 2.75-.628 0-.845.296-.483.658.362.362.17 1.246-.427 1.965-.958 1.155-1.17 11.425-.405 19.627.142 1.513.313 3.619.382 4.68.077 1.183.996 2.064 2.375 2.274 1.42.217 2.095.888 1.831 1.82-.231.812-.625 3.276-.875 5.476s-1.074 4.888-1.831 5.973c-1.682 2.413-1.787 3.9-.205 2.922.762-.471.968-.198.592.782-.98 2.555.78 4.448 2.674 2.876 1.127-.935 1.289-1.679.558-2.56-.711-.856-.651-3.455.191-8.368 1.743-10.161 3.572-9.326 3.01 1.375-.313 5.975-.106 8.5.699 8.5.714 0 .914-.918.531-2.443-.337-1.344-.236-3.031.224-3.75.573-.893 1.036-.198 1.463 2.193l.625 3.5.131-3.75c.096-2.738.57-3.75 1.754-3.75 1.353 0 1.409.258.336 1.55-1.056 1.273-1.024 1.813.179 3.016 1.288 1.287 1.478 1.038 1.565-2.05.055-1.934-.294-3.516-.775-3.516-.482 0-1.574-1.35-2.427-3-1.084-2.097-1.196-3-.371-3 .735 0 .556-.691-.474-1.829-.91-1.006-1.655-3.091-1.655-4.635V83.73l2.073 2.635c1.139 1.449 2.692 2.635 3.45 2.635s1.796.748 2.308 1.663c.827 1.478 1.444 1.52 5.532.375 2.53-.708 4.369-1.662 4.087-2.119-.283-.457-1.175-.578-1.982-.268-.807.309-1.468.065-1.468-.544s.413-1.107.918-1.107c.505 0 1.708-.303 2.674-.674 1.33-.51 1.606-.286 1.141.927-.343.894.085 2.181.971 2.916 1.371 1.138 1.505 1.047.995-.677-.906-3.066-1.171-9.962-.393-10.242 2.497-.899 4.578 2.519 3.039 4.991-.431.692-.656 2.243-.501 3.446.155 1.202-.646 3.115-1.781 4.25-2.105 2.105-4.682 2.874-3.563 1.063.34-.55.168-1-.382-1s-1.291.472-1.648 1.048c-.398.644-2.347.793-5.059.386-2.844-.426-4.411-.287-4.411.393 0 1.663 2.12 2.56 6.992 2.96 2.479.203 4.636.719 4.793 1.146.157.427 1.461.551 2.899.277 1.8-.344 2.393-.144 1.906.645-.39.63-2.331 1.145-4.316 1.145-4.29 0-3.609 1.033 1.719 2.606 2.749.812 4.17.831 4.934.067 1.273-1.273 1.445-5.673.222-5.673-.75 0-.819-2.528-.294-10.785.122-1.931.443-2.126 2.064-1.258 1.394.746 2.079.687 2.502-.215.32-.683.328.49.017 2.606-.38 2.589-.217 3.634.498 3.191.585-.361 1.064-1.504 1.064-2.539 0-1.035.52-2.203 1.156-2.596.849-.525.995.848.548 5.175-.334 3.239-1.098 6.052-1.698 6.252-.774.258-.78.736-.022 1.649.79.952.613 1.461-.68 1.957-1.447.555-1.504.821-.334 1.545.934.577 1.807.337 2.57-.706.82-1.121 1.361-1.245 1.866-.427.392.633.235 1.151-.347 1.151s-1.059.873-1.059 1.941-.45 2.219-1 2.559c-.554.342-1-.39-1-1.641 0-1.711-.281-1.978-1.158-1.101-.872.872-.874 1.498-.008 2.542.632.761.853 1.68.491 2.042-.362.362.092.658 1.008.658 1.961 0 2.147 1.12.467 2.8-.933.933-.902 1.2.142 1.2 1.041 0 1.205 1.323.727 5.89-.566 5.417-.445 5.935 1.499 6.444 1.954.511 2.075 1.053 1.589 7.109-.648 8.07.734 8.75 1.642.807.785-6.872 1.966-9.285 3.696-7.555.905.905.866 3.458-.167 10.992-.741 5.397-1.263 11.141-1.162 12.763.102 1.623-.479 5.513-1.291 8.645-.811 3.131-1.475 7.057-1.475 8.723 0 1.904-1.262 4.682-3.398 7.48-4.304 5.639-5.279 7.482-5.925 11.202-.286 1.65-1.671 5.872-3.076 9.382-1.406 3.51-2.314 6.773-2.019 7.25 2.107 3.41 6.456-3.523 5.65-9.009-.629-4.281 1.759-3.926 2.977.442 1.385 4.968.003 10.344-2.844 11.058-1.352.34-2.216.859-1.92 1.155.839.84-1.519 3.222-3.19 3.222-1.22 0-1.267-.28-.255-1.5.86-1.036.898-1.5.122-1.5-.617 0-1.129.563-1.137 1.25-.012.935-.229.914-.862-.085-.631-.996-1.004-.743-1.471 1-.929 3.471-.832 3.695 1.348 3.125 1.778-.465 2-.031 2 3.902 0 2.434.661 5.299 1.468 6.367 2.567 3.393 1.944 5.504-1.544 5.238-1.692-.129-3.344-.668-3.673-1.199-.328-.531-.881-.153-1.229.84-.555 1.582-.862 1.454-2.496-1.038-1.85-2.824-1.844-2.875.865-7.729 4.075-7.297 2.481-6.705-2.247.835l-4.122 6.574 3.456 5.024c1.9 2.763 3.745 6.57 4.1 8.46.354 1.89 1.023 3.436 1.486 3.436.463 0 1.259 1.463 1.769 3.25.509 1.787 2.269 6.625 3.911 10.75 4.334 10.888 4.743 14.112 2.2 17.345-2.494 3.17-1.782 3.388 2.081.637 1.582-1.126 3.093-1.6 3.419-1.072.322.52-.209 1.22-1.179 1.554-2.472.851-8.958 6.536-7.457 6.536 1.486 0 8.76-4.491 9.677-5.976 1.02-1.65 2.515-.161 2.515 2.504 0 1.842-.412 2.277-1.75 1.846-1.235-.397-1.377-.294-.483.351 1.594 1.15-4.351 6.111-12.391 10.34-7.277 3.828-3.727 3.809 4.374-.023 6.753-3.195 7.036-3.172 4.704.388-1.026 1.565-2.19 2.19-3.462 1.858-1.776-.465-3.634.395-14.492 6.702-2.2 1.278-5.125 2.925-6.5 3.661-2.922 1.562-9 1.8-9 .352 0-.549 1.462-1.676 3.25-2.505l3.25-1.509-3 .647c-6.424 1.384-6.886 1.164-8.663-4.136-1.177-3.509-1.701-4.265-1.757-2.536-.075 2.305-.336 2.176-4.052-2-2.184-2.455-3.984-4.763-4-5.128-.015-.365 2.791-2.24 6.237-4.167 3.446-1.927 7.542-4.688 9.104-6.135 2.767-2.565 5.383-2.918 4.881-.659-.138.619.2 1.125.75 1.125s1-1.035 1-2.3.525-2.825 1.167-3.467c.89-.89.771-1.32-.5-1.807-1.33-.511-1.705-2.185-1.856-8.283-.184-7.426-.2-7.472-.576-1.643l-.386 6-3.396-7c-1.868-3.85-3.409-7.511-3.425-8.135-.015-.624-1.195-1.9-2.622-2.835-2.56-1.677-2.586-1.668-1.919.635 1.583 5.474 3.841 10.835 4.563 10.835.983 0 5.95 8.807 5.95 10.548 0 .713-1.687 1.842-3.75 2.509-6.012 1.944-12.333 6.031-13.312 8.607-.754 1.981-1.372 2.272-3.672 1.731-4.246-1-4.484-.983-4.974.355-.252.688.254 1.25 1.125 1.25.882 0 1.583.831 1.583 1.878 0 2.086-2.315 4.474-3.342 3.447-1.025-1.026-.775.58.467 2.991 2.187 4.245 5.098 6.744 6.502 5.579 1.033-.858 1.218-.421.896 2.121-.313 2.479.012 3.311 1.444 3.686 1.016.265 2.06 1.294 2.319 2.284.264 1.007 1.803 2.094 3.491 2.465 1.79.393 3.226 1.453 3.526 2.601.279 1.066 1.254 2.224 2.166 2.574 2.327.894 6.617-1.239 5.956-2.961-.407-1.061.315-1.328 3.012-1.114 1.952.155 3.803-.131 4.115-.635 1.265-2.046 2.35-.789 1.423 1.649-.536 1.411-.975 2.69-.975 2.843 0 .704 47.978-.053 48.691-.768 1.226-1.229.556-149.058-.678-149.469-.557-.186-1.027-1.313-1.045-2.504-.031-2.148-2.098-5.667-3.328-5.667-.352 0-.645 1.463-.651 3.25-.019 5.478-1.2 11.027-2.053 9.646-.496-.803-.974-.016-1.321 2.173-.299 1.887-1.106 6.806-1.793 10.931l-1.249 7.5-.804-4.5c-.442-2.475-.569-5.487-.282-6.693.287-1.206.022-3.291-.59-4.634-.82-1.8-.811-3.847.035-7.791.962-4.484.91-5.524-.318-6.423-1.172-.856-1.408-3.369-1.175-12.515.529-20.786.405-19.76 2.453-20.41 2.54-.806 3.843-4.619 4.455-13.034.604-8.316 1.239-10.234 3.638-10.995 3.579-1.136 4.107-5.151 3.623-27.548-.254-11.802-.495-22.069-.535-22.816-.053-.977-1.13-1.234-3.823-.912-2.062.246-4.557-.042-5.544-.641-1.456-.883-2.141-.633-3.63 1.328l-1.835 2.416-4.721-6.416c-6.31-8.574-7.652-9.406-9.526-5.904m-181.334.545c.329.857 1.215 1.321 1.969 1.032 1.865-.716 1.787 2.202-.308 11.582-1.476 6.604-2.039 7.733-4.053 8.118-1.527.292-2.796-.205-3.656-1.432-1.134-1.619-1.302-.804-1.214 5.882.074 5.633.445 7.692 1.352 7.511.688-.137 1.25.68 1.25 1.817 0 1.611.441 1.928 1.994 1.435 2.399-.762 2.544 3.995.195 6.412-.885.91-1.156 2.501-.763 4.468.91 4.547 2.574 5.684 2.574 1.759 0-1.918.411-3.005 1-2.641.55.34 1.007 1.829 1.015 3.309.012 2.132.224 2.38 1.019 1.191.888-1.327 1.146-1.32 2.235.062.677.859 1.995 1.848 2.929 2.198 2.098.787 4.179 8.105 3.405 11.974-.352 1.76-.193 2.63.412 2.257 1.675-1.035 1.084 1.184-.702 2.637-1.478 1.201-1.606 1.154-1.032-.378.361-.963.275-1.75-.19-1.75-1.42 0-3.304 2.846-2.618 3.956.381.617-.301 1.012-1.664.965-1.27-.043-1.746-.306-1.059-.583 3.502-1.413.624-1.865-3.176-.499-2.434.876-4.208 1.945-3.941 2.376.815 1.319-1.316.872-2.469-.517-1.207-1.455-.424-5.814 1.24-6.906.748-.491.676-1.106-.233-2-1.076-1.059-1.662-.865-3.242 1.069L207 108.222v-3.611c0-1.986.427-3.611.948-3.611 1.303 0 .492-7.353-.86-7.804C205.722 92.741 205.647 90 207 90c.55 0 1-.675 1-1.5s-.45-1.5-1-1.5-1-.738-1-1.64c0-1.779-2.741-4.277-4.75-4.328-.687-.018-1.25.402-1.25.932 0 1.468-8.3 8.983-9.952 9.011-.799.014-2.937-1.413-4.75-3.171-1.814-1.758-3.298-2.632-3.298-1.941 0 .69-.45.977-1 .637-.55-.34-1-1.068-1-1.618s.45-.722 1-.382c1.634 1.01 1.153-.38-1.463-4.231-1.795-2.642-2.617-3.223-3.031-2.144C174.981 82.097 183.179 93 187.69 93c1.27 0 2.31.45 2.31 1s-.675 1-1.5 1-1.507.563-1.515 1.25c-.012.963-.205.952-.839-.047-.664-1.049-1.05-1.024-2.005.128-.955 1.15-.745 1.542 1.088 2.033 3.924 1.052 4.614.755 9.991-4.293 2.925-2.747 5.527-4.481 5.876-3.916.345.558.872.076 1.172-1.07.722-2.762 2.248-2.662 2.535.165.391 3.848-.884 10.818-1.867 10.21-.515-.318-.936.097-.936.922 0 .825.431 1.766.957 2.091.526.326-.374 1.863-2 3.418-2.714 2.594-4.319 8.069-1.932 6.594.563-.349.96-.263.881.191-.078.453-.076 1.724.006 2.824.129 1.735.273 1.787 1.088.392.517-.884.754-2.571.527-3.75-.267-1.39.094-2.142 1.03-2.142.794 0 1.443-.45 1.443-1s.45-1 1-1 1 .927 1 2.059c0 1.132-.45 1.781-1 1.441-.55-.34-1 .084-1 .941s.45 1.559 1 1.559c1.255 0 1.292 4.494.074 8.743-.587 2.046-.571 3.45.043 3.83 1.408.87 3.857-1.477 3.234-3.1-1.193-3.11 5.402-7.299 7.119-4.521.357.576 1.495 1.048 2.53 1.048 2.407 0 3.052 1.086 2.315 3.902-.542 2.075-.98 2.199-5.701 1.605l-5.114-.643 3 2.061c4.983 3.424 13.336 1.855 10.922-2.051-.543-.879-.223-.99 1.164-.402 1.053.447 3.039.979 4.414 1.183 6.393.948 7.441.827 7.792-.905.233-1.149-.272-1.761-1.469-1.782-1.003-.017-2.654-.661-3.67-1.431s-2.487-1.154-3.269-.854c-1.15.441-1.231.046-.427-2.069.641-1.686.647-2.614.018-2.614-.536 0-.975-.675-.975-1.5 0-.833.889-1.5 2-1.5 1.333 0 2 .667 2 2 0 1.1.408 2 .906 2 .499 0 .671-.9.384-2-.304-1.162-.031-2 .652-2 .647 0 .917.419.601.931-.317.512-.118 1.213.441 1.559.559.345 1.016 1.951 1.016 3.569 0 1.618.501 2.941 1.114 2.941.756 0 .892-1.475.423-4.602-.596-3.974-.407-4.801 1.386-6.057 1.623-1.137 2.077-2.528 2.077-6.366 0-3.947.294-4.8 1.494-4.339.822.316 1.254.963.959 1.439-.585.948 3.595 2.256 7.542 2.36 1.521.039 2.498.651 2.5 1.565.003.877 1.105 1.627 2.653 1.807 3.95.457 5.002 6.466 3.231 18.443-.456 3.08-.251 3.75 1.144 3.75 1.408 0 1.584-.614 1.029-3.576-.383-2.042-.227-4.11.364-4.823.569-.685 1.117-3.559 1.217-6.386.1-2.826.503-4.94.897-4.697 1.168.722 1.922-6.336.992-9.289C262.58 96.651 261.826 85 262.972 85c.565 0 1.028-.81 1.028-1.8s.54-2.34 1.2-3c.665-.665.755-1.2.201-1.2-.553 0-.817-1.563-.591-3.5.263-2.249-.012-3.5-.768-3.5-.661 0-.938-.766-.632-1.75 1.573-5.059 1.644-11.25.127-11.25-1.689 0-1.92 1.278-1.99 11-.046 6.334-.117 6.508-2.797 6.816-1.617.187-2.75-.166-2.75-.857 0-.661.693-.907 1.59-.563.875.336 2.012.35 2.528.031.925-.572-5.502-5.509-6.898-5.299-1.855.28-3.22-.224-3.22-1.187 0-.582.399-.812.887-.511.487.301 1.442-.122 2.122-.941.858-1.034.893-1.489.113-1.489-.617 0-1.122-.73-1.122-1.622 0-1.378.243-1.421 1.608-.288 1.367 1.134 1.818 1.048 3-.569.766-1.047 1.392-1.537 1.392-1.09 0 .448.675.254 1.5-.431 2.306-1.914 1.911-4.341-.599-3.684-1.154.301-1.832.282-1.506-.044.724-.724-3.597-3.108-4.635-2.558-.407.215-.182.996.5 1.734.682.738 1.546 1.157 1.921.931.374-.227.925-.017 1.223.465.298.482-1.447 1.697-3.877 2.699-2.431 1.003-4.161 2.24-3.845 2.751.344.557-1.581.675-4.804.295l-5.378-.635 3.824 1.431c5.396 2.018 5.421 2.255.469 4.582-6.614 3.109-13.407 16.614-7.814 15.537 1.088-.21 2.24.041 2.559.557.319.517 1.286.939 2.15.939 1.302 0 1.458-.839.916-4.926-.446-3.367-.275-5.159.541-5.664.819-.506.99-.205.544.958-.831 2.165 3.971 1.782 5.37-.428.783-1.238.917-1.23.956.06.036 1.183.261 1.13 1.065-.25 1.073-1.842 3.92-2.423 3.92-.8 0 .523-.787 1.409-1.75 1.97-1.577.918-1.536 1.022.417 1.05 1.191.016 2.328-.455 2.525-1.047.198-.592 1.248-.066 2.334 1.17 1.729 1.967 1.757 2.167.224 1.608-1.162-.424-1.75-.145-1.75.83 0 .808.45 1.469 1 1.469 1.31 0 1.296 3.699-.016 4.51-.559.346-.777 1.016-.484 1.49.293.474.027 1.174-.59 1.556-.796.492-.728.949.233 1.569 1.942 1.253-.735 2.861-4.643 2.789-2.576-.047-2.717-.176-1-.914 1.662-.714 1.71-.871.286-.93-.943-.038-2.783-1.643-4.089-3.565-2.3-3.385-4.162-3.879-2.976-.791.487 1.27.23 1.33-1.569.367-1.184-.633-2.152-.932-2.152-.663 0 1.303 2.423 5.582 3.161 5.582.461 0 .839.45.839 1s-.9 1-2 1c-1.313 0-2-.667-2-1.941 0-2.313-1.268-3.277-3.291-2.501-1.142.438-1.288 1.376-.651 4.198.45 1.999.601 3.987.334 4.418-.266.432-.016 1.66.557 2.731.63 1.177.704 2.858.188 4.254l-.854 2.308-.684-2.154c-.375-1.184-.849-2.977-1.052-3.983-.203-1.007-.897-3.18-1.541-4.83-.644-1.65-1.272-5.998-1.394-9.663-.266-7.951-2.18-11.395-4.255-7.655-.707 1.275-1.302 3.105-1.322 4.068-.06 2.976-2.933 1.929-4.411-1.607-2.133-5.106-3.059-10.03-1.731-9.209.629.388 1.107.01 1.107-.875 0-1.856 2.616-2.098 3.338-.309.301.747.536.545.583-.5.051-1.128-.656-1.75-1.987-1.75-1.665 0-2.005-.535-1.75-2.75.221-1.922.82-2.667 1.991-2.473 2.472.408 3.188-1.527.84-2.272-1.108-.352-2.016-1.397-2.016-2.322-.002-2.022 2.207-18.556 2.535-18.982.292-.379 6.716 3.218 11.246 6.295 4.468 3.037 7.818 2.19 3.851-.973-8.081-6.444-23.667-11.385-21.971-6.966M87 50.563c-1.925.728-6.286 1.35-9.691 1.381-3.405.031-6.469.506-6.809 1.056-.369.597.859 1 3.048 1 2.932 0 3.544.317 3.059 1.582-.334.87-.607 1.953-.607 2.406 0 .454-.9.589-2 .302-1.118-.293-2-.031-2 .593 0 .615.45 1.117 1 1.117 2.824 0 .438 1.846-3.25 2.515l-4.25.77 3.698.691c2.033.381 4.356 1.239 5.161 1.907.994.825 1.671.878 2.111.166.356-.577 3.321-1.049 6.589-1.049 3.268 0 5.941-.374 5.941-.831 0-.457 1.035-1.385 2.3-2.062 2.977-1.593 3.647-7.511.974-8.591-1.592-.643-1.543-.805.476-1.584 1.237-.477 2.25-1.332 2.25-1.9 0-1.36-3.641-1.118-8 .531m11.487 3.416c.668 1.08-1.183 5.129-2.835 6.202-.576.375.153.983 1.621 1.351 1.826.459 3.173.165 4.269-.931 1.785-1.786 9.458-2.231 9.458-.549 0 .579 1.314 1.51 2.92 2.07 1.606.56 3.167 1.661 3.468 2.448.302.786 1.351 1.437 2.331 1.445 1.38.012 1.476.209.424.875-1.039.659-1.073 1.035-.143 1.61.93.575.896.951-.143 1.61-1.057.67-.971.863.392.875 1.787.015 8.297 5.957 10.442 9.53 1.121 1.867 1.195 1.825 1.25-.706.033-1.48-.391-2.969-.941-3.309-1.182-.73-1.339-4.172-.222-4.863 1.7-1.051 5.187 2.828 4.586 5.102-.325 1.231-1.056 1.951-1.624 1.601-.677-.419-.783.357-.306 2.261.399 1.594 1.364 3.259 2.146 3.699.781.44 1.472 1.565 1.535 2.5.134 1.974 1.612-4.594 2.248-9.987.511-4.334-1.466-6.664-6.572-7.746-3.337-.707-3.715-1.608-2.402-5.727.805-2.525-2.159-3.809-11.389-4.936-3.025-.37-6.219-1.041-7.097-1.491-.951-.488-2.063-.353-2.75.334-.871.871-1.153.866-1.153-.021 0-.646-1.328-1.861-2.95-2.7-3.299-1.706-7.495-2.056-6.563-.547m8.263 8.101c-1.583.922-1.611 1.288-.29 3.843.803 1.553 1.192 3.092.864 3.419-.327.328-.785 7.923-1.017 16.877-.297 11.47-.113 15.838.621 14.781.818-1.179 1.045-.814 1.057 1.7.008 1.76.606 3.56 1.329 4 1.383.842 4.167 11.712 3.342 13.047-.264.428.162 1.897.947 3.266 1.32 2.299 1.402 1.95 1.096-4.624-.44-9.435 1.737-12.608 8.815-12.847 5.397-.182 6.837 1.749 7.998 10.727.339 2.623 1.005 4.529 1.481 4.236.475-.294 1.06.485 1.299 1.73.24 1.246.468-.21.508-3.235.111-8.544-1.906-16.611-4.05-16.194-1.297.252-1.75-.317-1.75-2.199 0-2.431-.216-2.525-5.03-2.181-4.675.333-5.134.158-6.5-2.484-2.054-3.972-2.133-3.905 4.523-3.812 3.593.051 5.753.473 5.393 1.054-1.04 1.683 3.059 4.706 4.947 3.65 2.122-1.188 2.143-3.468.042-4.644-.894-.5-1.625-2.049-1.625-3.442v-2.533l-3.143 1.854c-2.853 1.684-3.511 1.724-7.125.437-2.19-.78-4.754-1.438-5.697-1.462-1.806-.046-4.145-3.35-3.107-4.388.334-.334.145-1.181-.42-1.882-1.629-2.021-2.505-7.503-1.317-8.238.583-.36 1.059-1.133 1.059-1.717 0-.731-.416-.718-1.331.041-1.088.903-1.248.105-.876-4.378.25-3.015.286-5.468.081-5.452-.206.017-1.161.489-2.124 1.05m172.87 3.17c-.174.688-.806 2.738-1.403 4.557-.869 2.644-.807 3.413.305 3.84.945.363 1.207 1.456.817 3.407-.705 3.528.368 8.245 1.69 7.428.534-.33.971-1.447.971-2.482 0-2.424 1.976-3.656 3.058-1.906.671 1.085.96 1.024 1.473-.314.445-1.161 1.519-1.552 3.554-1.295 2.496.316 2.915.033 2.915-1.976 0-5.561-3.516-7.825-4.284-2.759-.338 2.232-.445 2.049-.566-.969-.122-3.027-.459-3.6-1.814-3.08-1.137.437-1.429.259-.924-.559.435-.704-.219-1.997-1.586-3.137-2.736-2.28-3.772-2.466-4.206-.755m-194.172 19c.212.688.681 2.588 1.043 4.223.656 2.957.648 2.963-1.422 1.089-3.084-2.79-3.131-1.855-.343 6.784 2.303 7.135 2.414 8.224 1.224 12l-1.309 4.154-.702-3c-.556-2.377-.727-2.533-.821-.75-.141 2.687-1.613 2.927-3.067.5-.784-1.309-.884-.641-.397 2.653.474 3.208.337 4.209-.505 3.689-.783-.484-1.017.03-.726 1.597.235 1.271.462 3.328.503 4.571.041 1.243.958 3.016 2.038 3.941 1.535 1.315 1.711 1.986.804 3.079-.906 1.091-.843 1.352.286 1.19 4.704-.674 7.166 1.574 8.246 7.53.519 2.862.306 3.08-4.628 4.739-3.109 1.046-5.305 1.345-5.505.75-.388-1.15-4.167-1.358-4.167-.23 0 .418.9 1.322 2 2.009 1.1.687 2 1.936 2 2.776 0 1.137.447 1.292 1.75.609.963-.505 5.013-1.462 9-2.126 3.987-.664 7.25-1.581 7.25-2.038 0-.457 1.437-1.146 3.193-1.531 3.042-.669 3.102-.769 1.25-2.125-1.068-.782-2.909-1.18-4.089-.885-3.068.769-5.043-5.6-2.104-6.786.758-.305.572-.535-.471-.583-1.051-.048-2.088-1.346-2.66-3.329-.516-1.787-.979-2.672-1.029-1.965-.068.968-.578 1.024-2.067.227-3.058-1.637.523-4.879 4.711-4.264 5.681.834 9.879-4.658 6.343-8.298-.508-.522-1.09-2.3-1.294-3.95-.359-2.909-.408-2.87-1.628 1.299-.692 2.365-.98 5.177-.639 6.25.993 3.129-.373 2.248-2.014-1.299l-1.503-3.25.546 3.75c.511 3.515.382 3.75-2.065 3.75-1.437 0-3.515.484-4.62 1.075-1.675.896-2.098.733-2.548-.989-.297-1.135-.986-1.787-1.533-1.45-.634.392-.731-.606-.268-2.761 1.036-4.828 1.567-5.348 2.853-2.792.625 1.242 1.643 2.426 2.263 2.63 1.573.518 2.628-2.701 1.378-4.206-.566-.682-.952-2.088-.858-3.124.578-6.4-.388-23.669-1.225-21.883-.763 1.627-.875 1.395-.603-1.25.223-2.166-.097-3.25-.961-3.25-.712 0-1.122.563-.91 1.25m182.354-.123c-.354.895-.399 3.461-.098 5.702.301 2.242.197 4.885-.23 5.873-1.427 3.305-1.384 4.781.21 7.216.87 1.33 1.604 4.03 1.631 6 .026 1.97.529 3.913 1.117 4.317.659.453.456.74-.529.75-1.77.017-1.918 5.078-.366 12.515.847 4.06.987 5.08 1.292 9.45.136 1.951.424 2.197 1.413 1.208 2.106-2.106 2.035-26.037-.073-24.775-.368.22-.806-3.489-.974-8.242-.358-10.134-2.44-22.418-3.393-20.014m146.998 20.96c.43 2.932.345 3.021-1.674 1.76-1.169-.731-2.126-1.67-2.126-2.088 0-.417-.828.028-1.839.991-1.181 1.123-1.519 2.17-.943 2.922.532.695.514 1.915-.044 3-2.717 5.28-3.384 7.339-2.838 8.761 1.275 3.322 3.385 1.553 4.392-3.683l1.009-5.25.274 6.5c.253 6.036.324 6.215.989 2.5.558-3.118.747-3.393.858-1.25.224 4.338 4.14 3.866 4.149-.5.004-1.787.294-6.287.645-10 .592-6.266.496-6.75-1.334-6.75-1.634 0-1.894.528-1.518 3.087M104.41 119.75c-.354 1.237-1.096 2.25-1.649 2.25-.553 0-.388.746.367 1.657 1.25 1.509 1.03 1.593-2.476.936-3.058-.572-3.674-.45-3 .593.466.723.848 2.388.848 3.701 0 1.992.801 2.622 4.835 3.805 2.659.78 5.327 1.254 5.928 1.054 1.608-.536 1.831-6.975.302-8.733-.723-.832-2.034-2.863-2.914-4.513-1.555-2.917-1.616-2.938-2.241-.75M238 125.418c0 1.33-.283 3.157-.63 4.06-.433 1.129.018 1.811 1.445 2.184 2.337.611 1.702 2.376-2.565 7.126l-2.25 2.504v-2.712c0-1.491.485-3.617 1.077-4.724 1.72-3.214.259-5.781-1.7-2.984-1.665 2.378-1.089 12.128.717 12.128.498 0 .906.955.906 2.122 0 1.615.307 1.868 1.284 1.057.826-.686 2.618-.765 5.024-.222 3.7.834 7.723.402 7.659-.824-.106-2.02-4.161-5.437-4.946-4.167-.702 1.135-1.076 1.121-2.283-.085-2.04-2.041-.423-6.366 2.018-5.399.959.379 2.481.841 3.381 1.025 2.423.495 5.751 2.757 6.349 4.316 1.074 2.8-5.888 8.177-10.586 8.177-5.587 0-4.009 1.749 2.365 2.623 10.845 1.486 16.034-13.87 5.985-17.713-1.238-.473-2.25-1.671-2.25-2.662 0-1.482-.672-1.737-3.8-1.438-4.541.433-7.533-3.403-4.347-5.571 1.448-.986 1.376-1.128-.603-1.18-1.729-.045-2.25.501-2.25 2.359m70.186 6.691c-1.394.526-2.029 1.336-1.597 2.034.394.638.08 1.655-.698 2.259-1.446 1.121-3.891 5.927-3.891 7.645 0 1.999 2.879.845 3.235-1.297.333-2.005.541-1.869 1.907 1.25 1.165 2.66 1.238 3.573.302 3.803-.677.166-1.422 1.299-1.654 2.518-.371 1.936.37 2.485 5.893 4.369 6.962 2.374 7.954 1.66 4.244-3.055-1.535-1.952-1.707-2.635-.664-2.635.954 0 1.46-1.309 1.568-4.056.097-2.471-.23-3.816-.836-3.441-.547.338-1.024 1.601-1.058 2.806-.061 2.082-.113 2.068-1.051-.282-.542-1.36-.699-4.173-.348-6.25.523-3.099.342-3.777-1.009-3.777-.906 0-1.388-.419-1.072-.931.896-1.449-.721-1.923-3.271-.96m-260.153 9.559c-.059 2.083 1.152 4.332 2.333 4.332.634 0 1.725.916 2.424 2.035 1.148 1.838.96 2.166-1.928 3.381-3.08 1.295-2.848 1.37 6.22 2.017 12.304.877 15.61 1.515 13.801 2.66-1.793 1.136-6.215 1.154-7.433.031-1.521-1.402-11.45-2.371-11.45-1.117 0 .698-2.057.912-5.858.611l-5.858-.464.326 7.173c.18 3.945.593 8.748.919 10.673.584 3.454.573 3.468-.871 1.03-1.412-2.382-1.461-2.286-1.397 2.695.037 2.841.331 5.137.653 5.102 1.843-.2 2.051.351.657 1.744-1.684 1.685-2.153 5.429-.68 5.429 1.123 0 4.401 8.042 3.603 8.839-1.375 1.375-4.032-1.837-4.501-5.441-.476-3.658-.62-3.388-2.34 4.38-1.299 5.868-1.621 9.799-1.105 13.5.668 4.8.936 10.421 1.313 27.531.076 3.47.542 6.06 1.034 5.756 1.661-1.027 2.178 2.661.541 3.858-1.26.921-1.412 1.889-.719 4.566l.881 3.397 1.329-3.209c1.479-3.571 4.002-2.845 4.152 1.195.065 1.766.256 1.643 1.116-.721.753-2.066.705-3.469-.173-5.11-.782-1.461-1.128-6.116-.978-13.151.128-5.99.144-13.219.036-16.066-.135-3.563.446-6.434 1.862-9.211 1.132-2.218 2.058-5.182 2.058-6.587 0-1.404.417-3.335.927-4.29.51-.955 1.183-2.555 1.495-3.555.408-1.306 1.147-1.635 2.621-1.167 2.932.93 4.616-.906 6.084-6.634 1.103-4.301 1.397-4.695 2.097-2.804.786 2.126.88 2.14 2.795.407 1.089-.986 2.018-1.611 2.064-1.388.635 3.085.357 4.905-.75 4.905-.733 0-1.333.45-1.333 1 0 1.31 1.63 1.268 4.201-.107 1.66-.889 1.795-1.282.684-1.985-.783-.496-.898-.884-.264-.893.79-.01.866-1.376.259-4.626-1.063-5.693-.847-6.05 4.192-6.901 4.238-.716 6.8.956 6.912 4.512.025.825.455 2.146.955 2.936 1.615 2.551 4.228-.687 3.922-4.86-.174-2.364.144-3.491.938-3.326 1.617.336 1.513-.58-.265-2.359-.807-.806-2.719-1.527-4.25-1.601-3.182-.154-17.109 1.822-19.615 2.783-.971.373-1.669.153-1.669-.525 0-.641-.45-.888-1-.548-.55.34-1 .141-1-.441 0-1.804-3.893-1.166-6.051.992-1.324 1.324-1.832 2.742-1.433 4 .855 2.693-.928 2.458-2.284-.301-2.752-5.598-2.568-6.563 1.47-7.684 5.231-1.453 12.035-1.353 12.552.184.329.979.776.957 2.058-.101 1.645-1.358 9.954-1.221 22.188.367 4.383.569 5.425.33 8.444-1.933 1.895-1.421 2.951-2.583 2.348-2.583-.743 0-.622-1.532.373-4.75.809-2.613 1.639-5.539 1.846-6.504.948-4.427 5.962-5.131 12.076-1.697 3.884 2.182 5.494 1.958 3.469-.481-.675-.814-.988-1.868-.695-2.343.652-1.056-5.979-3.579-7.286-2.771-.515.318-1.219.121-1.565-.438-1.141-1.845-2.981-1.037-5.11 2.246-2.794 4.307-9.804 6.533-15.347 4.872-2.082-.624-4.82-1.134-6.086-1.134-1.265 0-2.004-.296-1.642-.658.892-.893-1.244-3.342-2.916-3.342-.843 0-1.108.62-.71 1.658.549 1.431.099 1.569-3.281 1.011-2.155-.356-5.155-.652-6.668-.658-2.145-.009-2.75-.485-2.75-2.164v-2.153l-1.867 2.153c-2.652 3.058-4.513 2.804-3.683-.502.433-1.726.208-2.946-.642-3.485-1.976-1.253-2.808-1.031-2.808.751 0 1.227-.469 1.048-1.967-.75-1.081-1.299-1.981-1.835-2-1.193M402 143c0 1.111.667 2 1.5 2 1 0 1.5 1 1.5 3s-.5 3-1.5 3c-1.018 0-1.5-1.019-1.5-3.167 0-11.027-2.097 7.057-2.353 20.289-.225 11.684 3.453 8.11 4.758-4.622.282-2.75.273-4.213-.02-3.25-.605 1.991-2.03 2.316-2.604.594-.768-2.306 1.677-7.844 3.464-7.844 2.201 0 2.333-3.68.306-8.532-1.59-3.807-3.551-4.617-3.551-1.468m70.797 9.74c-.937.214-1.977 1.25-2.311 2.304-.334 1.053-.918 1.853-1.297 1.777-.379-.076-1.364.121-2.189.438-4.997 1.92-9.912 1.524-11.518-.928-1.274-1.943-1.91-2.221-3.003-1.314-1.032.857-3.177.874-8.374.067-9.415-1.461-9.105-1.543-9.105 2.416v3.5l10.25.002c5.637.002 20.038.298 32 .66 21.41.646 21.75.625 21.75-1.375 0-1.72-.612-2.015-4-1.926-2.2.058-4 .45-4 .872s-.675.767-1.5.767-1.5-.342-1.5-.759c0-1.961-4.333-3.506-5.47-1.951-2.143 2.93-4.792 2.471-5.712-.991-.951-3.581-1.56-4.12-4.021-3.559m-345.681 6.475c-.153 2.266-3.7 4.1-8.481 4.385-4.948.295-6.916 2.04-3.32 2.943l2.605.654-2.94 2.473c-1.616 1.36-3.41 2.182-3.985 1.827-.585-.361-1.52.711-2.119 2.428-1.36 3.903-2.459 3.909-3.238.017-.336-1.682-1.346-3.793-2.245-4.692-1.512-1.512-1.582-1.182-.932 4.41l.701 6.043-5.686.587c-6.905.713-7.159.926-4.824 4.036 2.725 3.632 12.189 4.636 16.275 1.726 1.585-1.129 3.573-2.052 4.418-2.052.845 0 1.82-.457 2.165-1.016.346-.559 1.006-.783 1.469-.497 1.34.828 4.021-.568 4.021-2.094 0-1.815.935-1.762 3.075.175 2.008 1.817 5.861.175 6.004-2.559.07-1.335.142-1.336.63-.009.304.825 1.23 2.278 2.058 3.229 1.354 1.555 1.315 1.801-.381 2.444-2.608.989-4.386 2.897-4.386 4.706 0 3.067 2.189 11.621 2.974 11.621 1.429 0 4.021-7.892 4.194-12.77.155-4.353.199-4.431.56-.98.697 6.662 4.707 4.484 4.437-2.41-.086-2.18.317-3.84.931-3.84 1.596 0 .771-16.211-.851-16.752-.686-.228-1.668.635-2.183 1.918-.872 2.177-.939 2.116-.999-.916-.127-6.507-1.563-3.051-1.563 3.761 0 5.198-.323 6.887-1.25 6.531-.687-.263-1.25-.043-1.25.489 0 .533-.562.97-1.25.97-.892.001-1.151-1.591-.904-5.551.386-6.212-.444-10.816-1.8-9.979-.492.305-1.101-.24-1.354-1.209-.421-1.612-.47-1.616-.576-.047m196.109 12.797c-1.05 1.681-2.785 7.463-3.597 11.988-.263 1.463-.836 3.112-2.709 7.797-.506 1.263-.926 4.638-.934 7.5-.009 2.862-.435 5.866-.948 6.677-.613.97-.526 1.724.257 2.208.918.567.915 1.009-.01 1.934-.906.906-1.538.918-2.585.049-1.099-.912-1.632-.607-2.583 1.479-1.441 3.163-.491 11.437 1.237 10.773 1.31-.503 6.706-11.228 6.67-13.259-.027-1.597 3.4-6.33 7.227-9.981 2.756-2.628 3.561-5.558 1.822-6.633-.51-.315-1.193.262-1.517 1.283-.324 1.021-1.726 2.924-3.114 4.229l-2.525 2.372.25-6.784c.138-3.731.607-7.004 1.042-7.273.436-.269.792-1.732.792-3.252 0-1.519.726-4.892 1.612-7.495 1.732-5.083 1.556-6.724-.387-3.612M378 174.767c0 1.163-.464 2.402-1.03 2.752-.567.35-2.332 3.369-3.923 6.708-2.5 5.249-2.699 6.264-1.469 7.494 2.183 2.183 1.717 3.57-.974 2.895-1.674-.421-2.581-.118-3.013 1.007-.501 1.306-.058 1.526 2.359 1.171 2.668-.392 3.134-.041 4.505 3.385.841 2.101 2.095 3.839 2.787 3.861.692.022-.074.761-1.702 1.642-2.954 1.599-2.969 1.593-6.75-2.669-4.228-4.763-5.184-3.291-1.29 1.987 3.023 4.097 3.113 5 .5 5-1.1 0-2 .45-2 1 0 1.157.722 1.17 3.5.062 1.651-.658 2.48-.036 4.752 3.57 1.513 2.403 3.201 4.368 3.75 4.368 1.604 0 1.168-1.66-1.448-5.515-2.25-3.316-2.546-7.216-.449-5.92.492.304.895.024.895-.623 0-.683.838-.956 2-.652 3.273.856 2.712-5.401-.853-9.505-1.569-1.807-2.665-3.823-2.435-4.48.23-.657-.063-2.092-.65-3.189-1.265-2.364.627-4.239 2.011-1.994 2.322 3.764 3.327 4.586 5.056 4.134 1.532-.401 1.871.075 1.871 2.627 0 3.495 1.528 4.178 2.5 1.117.691-2.178 3.493-2.776 3.512-.75.007.688 1.132-.708 2.5-3.102 3.004-5.255 3.031-5.523.488-4.858-2.847.744-2.587-2.041.411-4.399 2.523-1.984 2.706-3.175.961-6.23-.978-1.71-1.167-1.723-2.704-.186-.909.909-2.106 1.372-2.66 1.03-.555-.343-1.008-.208-1.008.298 0 1.68-5.168.388-7.604-1.901L378 172.651v2.116m-259 13.357c-7.67 2.767-11.977 3.824-15.69 3.852-2.941.022-3.213.308-3.5 3.673-.344 4.043-1.072 4.594-8.31 6.282-7.992 1.864-13.809 4.992-12.412 6.675.636.767 1.709 1.394 2.383 1.394 2.183 0 4.751 8.085 3.154 9.931-2.542 2.94-2.933 7.069-.67 7.069 1.144 0 2.634-1.172 3.496-2.75 3.055-5.592 8.862-10.566 17.752-15.204 3.556-1.854 4.448-2.762 3.656-3.716-.577-.695-.857-1.836-.624-2.536.683-2.049-4.208-5.447-5.318-3.694-.488.77-.893 1.812-.902 2.317-.008.504-.281.65-.606.325-.326-.325-.295-1.525.067-2.667.769-2.422 3.735-2.731 5.524-.575 1.659 1.999 3.67 1.896 4.92-.25.955-1.64 1.021-1.633 1.05.107.019 1.191.541 1.661 1.457 1.309.785-.301 1.965.101 2.622.893 1.469 1.77 4.934 1.902 4.996.191.025-.687.685-2.6 1.466-4.25l1.421-3-.601 3.878c-.472 3.04-.302 3.779.784 3.417.762-.254 1.353-1.437 1.314-2.628-.339-10.268-.523-12.158-1.179-12.097-.412.039-3.225.963-6.25 2.054m63 2.901c0 .536-.693.975-1.539.975-1.267 0-1.311.247-.25 1.395.709.767 1.627 1.191 2.039.941 1.31-.793.808.748-.75 2.307-1.257 1.257-1.5 1.27-1.5.081 0-.78-.9-2.456-2-3.724l-2-2.306.011 2.403c.02 4.376 1.236 9.903 2.179 9.903.51 0 .687-.39.393-.866-1.147-1.856 3.391-4.631 5.459-3.34 1.062.663 2.837 1.206 3.944 1.206 1.108 0 1.961.338 1.896.75-.34 2.148.317 2.38 2.118.75 1.1-.995 2-2.363 2-3.038 0-2.337 3.853-2.429 4.308-.104.334 1.706.447 1.582.556-.608.091-1.838-.361-2.75-1.364-2.75-.825 0-1.5-.675-1.5-1.5 0-1.108-1.159-1.5-4.435-1.5-2.439 0-5.589-.439-7-.975-1.667-.634-2.565-.634-2.565 0m-171 29.85c0 15.881-.295 30.351-.656 32.155-.471 2.357-.331 3.08.5 2.566.796-.492 1.162-5.75 1.174-16.905.01-8.905.452-20.241.983-25.191 1.003-9.35.359-21.5-1.139-21.5-.474 0-.862 12.994-.862 28.875m39.952-15.267c-1.154 2.691-2.354 6.166-2.667 7.723-.312 1.557-.861 2.355-1.22 1.774s-.724 5.51-.81 13.536l-.158 14.592 2.004-3.867c1.519-2.932 1.932-5.386 1.706-10.155-.199-4.207.113-6.544.942-7.056.835-.516 1.149-2.95.961-7.461-.242-5.827-.05-6.694 1.481-6.694 1.445 0 1.648-.581 1.14-3.25-.88-4.625-1.045-4.583-3.379.858m252.278 3.142c-1.109 2.613-2.347 6.775-2.751 9.25-.404 2.475-1.59 5.59-2.636 6.923-1.484 1.889-1.621 2.601-.623 3.234 3.413 2.166 6.891-1.976 7.473-8.902.266-3.165 1.128-6.766 1.916-8.001 1.407-2.206.993-7.254-.594-7.254-.423 0-1.676 2.137-2.785 4.75m-237.946 2.951c-2.067.4-2.197.894-1.938 7.364.267 6.661.187 6.935-2.034 6.935-1.272 0-2.312-.482-2.312-1.071 0-2.784-3.144 2.512-4.016 6.765-1.439 7.016-2.762 11.953-2.897 10.806-.065-.55-.554-.325-1.087.5-1.528 2.364-1.124 7.983 1.039 14.448 2.053 6.137 1.775 11.7-.939 18.802-.643 1.683-.68 2.75-.094 2.75.526 0 1.237-1.122 1.582-2.493.344-1.371 1.035-2.24 1.535-1.931.5.309.651.981.334 1.493-1.032 1.671.787.978 2.151-.819 1.265-1.667 1.33-1.667 1.36 0 .029 1.565.251 1.531 2.109-.327 1.143-1.143 2.674-1.849 3.402-1.57 1.385.532 2.483-2.141 2.507-6.103.008-1.238.577-2.257 1.264-2.265.943-.012.925-.222-.074-.855-1.086-.689-1.04-1.519.253-4.615 1.497-3.583 1.475-3.863-.426-5.512-2.457-2.131-2.502-2.726-.253-3.314 1.317-.344 1.193-.486-.5-.573-1.237-.064-3.15-1.016-4.25-2.116s-2.225-2-2.5-2a.501.501 0 01-.5-.5v-1.933c0-.788.9-1.718 2-2.067 1.1-.349 2-1.002 2-1.451 0-.449-.9-1.051-2-1.339-1.1-.287-2-1.07-2-1.739 0-.861.366-.912 1.253-.176.884.734 1.823.623 3.191-.378 1.066-.779 1.426-1.417.799-1.417-1.497 0 .423-6.025 2.438-7.649.827-.667.994-1.296.398-1.5-1.808-.618.022-4.851 2.097-4.851 1.068 0 1.664-.45 1.324-1-.34-.55-.156-1 .41-1 .565 0 .768-.675.452-1.5-.317-.825-1.203-1.5-1.969-1.5S68 215.52 68 214.933c0-.613.853-.797 2-.433 1.1.349 2 .347 2-.004 0-.992-2.76-3.512-3.679-3.36-.451.075-1.818.329-3.037.565m275.436 15.986c-.738 3.859-.21 4.6 4.734 6.637 2.767 1.141 4.24 2.31 3.93 3.119-.636 1.656 3.095 2.678 4.532 1.241.779-.779 1.084-.552 1.084.805 0 1.765.13 1.748 2-.259 1.1-1.18 2-2.642 2-3.247 0-.606.45-.823 1-.483.614.379.955-1.047.884-3.691-.064-2.37-.322-3.522-.573-2.559-.558 2.134-3.311 2.342-3.311.25 0-.833-.889-1.5-2-1.5-1.333 0-2 .667-2 2 0 1.1-.509 2-1.131 2-.734 0-.931-1.229-.563-3.5l.568-3.5h-5.32c-4.98 0-5.354.172-5.834 2.687m-323.123 8.157c-.287.464-.776 10.026-1.086 21.25-.31 11.223-.799 23.316-1.087 26.873-.598 7.385.098 7.334 2.669-.197 1.525-4.468 1.724-7.554 1.301-20.27-.274-8.25-.451-18.037-.393-21.75.099-6.416-.231-7.805-1.404-5.906m427.153 19.845c-1.958.512-2.423 3.311-.55 3.311.896 0 .912.288.064 1.136-.847.847-1.55.72-2.771-.5-3.121-3.121-5.493-2.101-5.493 2.364v4h5.427c4.327 0 5.519.355 5.884 1.75.435 1.667.463 1.667.573 0 .065-.988.987-1.815 2.116-1.9 1.1-.083 2.563-.195 3.25-.25.688-.055 1.615-.672 2.061-1.371.447-.699 1.233-1.011 1.747-.693 2.058 1.272 4.813 1.242 5.312-.057.614-1.602-2.162-2.708-6.139-2.446-1.502.098-3.068.075-3.481-.052-.413-.127-1.275-.287-1.917-.356-1.618-.173-2.296-2.625-.725-2.625.73 0 .445-.627-.667-1.468-1.067-.808-2.166-1.431-2.441-1.384-.275.046-1.288.29-2.25.541m-395.973.864c-.331.534-.849 4.244-1.15 8.242C47.003 273.049 46.629 274 44 274c-2.531 0-3.002-.974-4.519-9.331-1.202-6.626-1.309-6.828-1.412-2.669-.061 2.475-1.225 7.65-2.586 11.5-1.361 3.85-2.476 7.113-2.479 7.25-.012.7 11.205.121 13.333-.688 3.027-1.151 4.641-5.625 4.718-13.075.06-5.869-1.287-12.039-2.278-10.434M9.778 277c-.387 3.025-.976 15.288-1.308 27.25C7.926 323.837 8.026 326 9.478 326c1.444 0 1.553-1.877 1.045-18-.334-10.609-.192-18 .347-18 1.332 0 2.424-5.2 1.245-5.929-.551-.341-1.143-3.308-1.317-6.595l-.314-5.976-.706 5.5M212 301.441c0 .793.45 1.719 1 2.059.55.34 1 1.491 1 2.559 0 1.703.727 1.941 5.918 1.941 3.255 0 6.743.312 7.75.694 1.449.549 1.258-.064-.918-2.933-1.512-1.995-2.75-4.108-2.75-4.694 0-.637-2.416-1.067-6-1.067-4.557 0-6 .346-6 1.441M86 317.017c-22.825.284-38.269.621-34.32.75 6.564.213 7.218.426 7.614 2.483l.434 2.25.136-2.25C60.12 316.013 63 317.62 63 322c0 3.333.333 4 2 4 1.656 0 2-.667 2-3.879v-3.88l19.75.369c10.863.202 36.175.566 56.25.807 30.289.365 61.175 1.19 66.75 1.783 1.245.133 1.633 1.173 1.325 3.55-.09.688.757 1.25 1.881 1.25 1.524 0 2.044-.648 2.044-2.547v-2.548l20.25.523c36.767.95 68.971 1.082 89 .366 14.599-.522 19.75-.407 19.75.441 0 .631.562.415 1.25-.479 1.047-1.363 4.41-1.727 20.75-2.244 10.725-.34 20.561-.88 21.857-1.2 2.758-.682 4.105.93 4.128 4.938.01 1.833.542 2.75 1.594 2.75 1.215 0 1.436-.655.956-2.841-.397-1.807-.144-3.238.695-3.935 1.524-1.264 10.014-.429 9.19.905-.296.479-.099.871.438.871.536 0 1.134-.476 1.328-1.057.194-.582 3.037-1.288 6.319-1.569 16.005-1.373 5.897-1.607-52.005-1.204-28.089.195-70.47.086-200-.517-18.15-.084-51.675.08-74.5.364" fill="#d3d3d3" fill-rule="evenodd"/></svg>