<svg xmlns="http://www.w3.org/2000/svg" width="500" height="749"><path d="M.003 319.076c.006 297.017.122 319.192 1.68 320.75 1.565 1.565 1.565 1.695-.004 1.997C.132 642.121 0 646.352 0 695.575v53.428l183-.014c144.766-.01 183.003-.272 183.015-1.251.012-.977.181-.978.796-.009.608.956 15.556 1.179 67.235 1l66.454-.229.007-107c.004-58.85-.113-85.513-.259-59.25-.147 26.263-.511 47.75-.809 47.75-.685 0-16.58-6.76-26.439-11.245a1087.55 1087.55 0 00-15.259-6.768c-5.78-2.5-7.632-3.755-7.264-4.922 1.737-5.489 25.831-90.82 27.65-97.922l2.234-8.721-4.26-6.273c-2.343-3.45-4.786-6.46-5.43-6.689-.644-.229-14.221-1.992-30.171-3.919-15.95-1.926-30.427-3.75-32.171-4.052-2.91-.505-4.702-2.967-21.75-29.878C376.361 433.481 368 419.462 368 418.458c0-1.005 3.86-19.213 8.577-40.463l8.578-38.636-13.578-20.686C364.11 307.295 358 297.172 358 296.177c0-.996 3.345-17.305 7.433-36.244l7.433-34.433-4.522-6.872-4.522-6.872-8.661.605c-4.764.333-21.598.902-37.411 1.266-15.812.363-28.75.772-28.75.91 0 .137-.712 3.69-1.581 7.896l-1.582 7.648 22.255 33.709c12.24 18.541 22.437 34.634 22.66 35.763.223 1.13-3.05 19.413-7.273 40.631l-7.679 38.577 13.1 20.582c7.205 11.32 13.1 21.265 13.1 22.099 0 2.706-26.666 126.558-27.409 127.3-.242.242-4.748-1.45-10.015-3.76-9.295-4.076-9.576-4.296-9.576-7.472 0-1.8 2.238-23.688 4.973-48.641 7.224-65.903 8.998-83.231 8.567-83.662-.211-.211-19.158-3.709-42.105-7.772-22.947-4.063-41.833-7.511-41.97-7.662-.137-.15 8.444-10.659 19.069-23.354l19.318-23.081 2.113-24.419a9841.304 9841.304 0 014.05-45.419c1.066-11.55 3.739-42.6 5.942-69 2.202-26.4 4.282-50.588 4.622-53.75l.617-5.75h-3.014c-1.659 0-3.171.467-3.361 1.038-.531 1.593-17.515-.589-19.422-2.496-1.689-1.689-5.895-2.154-4.899-.542.36.582-.637 1-2.382 1-3.171 0-4.996-1.482-2.874-2.333.691-.277-.544-.505-2.744-.506-8.685-.003-22.231-1.092-26.5-2.13-2.475-.602-6.525-1.276-9-1.5-14.061-1.268-21-1.518-21-.756 0 .473-2.588 1.675-5.75 2.671-3.162.996-6.386 2.055-7.164 2.353-.9.344-1.151.116-.691-.629.398-.644.246-1.17-.336-1.17-.582 0-1.059.358-1.059.796 0 .437-1.625.905-3.61 1.038-1.986.134-4.241.874-5.012 1.645-.771.771-3.534 1.672-6.14 2.003-2.606.33-6.385 1.091-8.399 1.69-2.014.599-4.826.797-6.25.44-1.934-.486-2.589-.266-2.589.869 0 .835-.338 1.553-.75 1.596-.412.042-1.54.227-2.505.412-.965.184-1.501-.075-1.191-.577.86-1.391-1.421-1.085-8.546 1.149-3.571 1.119-7.526 1.775-8.79 1.458-1.323-.332-7.517.993-14.599 3.123l-12.301 3.699-.658 35.08c-.361 19.293-.658 84.916-.658 145.829-.001 60.913-.34 110.738-.752 110.723-.412-.014-10.875-4.409-23.25-9.766l-22.5-9.739.233-8.484c.128-4.666.673-12.984 1.21-18.484 1.927-19.708 3.154-33.366 5.121-57 1.968-23.648 3.245-37.485 6.365-69 2.384-24.07 6.547-67.085 8.13-84 .773-8.25 1.839-19.05 2.369-24 .531-4.95 1.222-12.15 1.535-16 .314-3.85.783-8.125 1.043-9.5.261-1.375.923-7.225 1.473-13 1.021-10.729 6.133-60.88 7.95-78 1.813-17.084 3.942-38.345 4.631-46.25L82.235 0H-.003l.006 319.076M242 1c.825.533 2.486.976 3.691.985 1.205.008 2.469.465 2.809 1.015.34.55 1.498 1 2.573 1s2.736.42 3.691.934c.955.514 10.511 3.722 21.236 7.131 10.725 3.408 32.325 10.425 48 15.594 15.675 5.168 37.725 12.339 49 15.935 11.275 3.595 21.4 6.923 22.5 7.394 1.1.471 3.35 1.151 5 1.511 1.65.361 4.35 1.251 6 1.979 1.65.728 3.9 1.545 5 1.816 1.887.465 9.413 2.849 35.75 11.327A2113.586 2113.586 0 00466 73.56c4.125 1.274 13.35 4.143 20.5 6.375 7.15 2.231 13.113 4.059 13.25 4.061.137.002.25-18.896.25-41.996V0L370.25.015C286.112.025 241.027.371 242 1m-59.5 158.425c-1.65.72-15.891 6.386-31.648 12.592L122.205 183.3l-.612 18.1c-.336 9.955-1.068 44.65-1.627 77.1-1.734 100.773-2.949 174.777-2.958 180.144l-.008 5.143 6.75 2.698c3.713 1.484 7.2 3.033 7.75 3.443.55.41 3.7 1.799 7 3.088 7.412 2.894 70.731 30.17 112.393 48.415 9.566 4.189 17.548 7.461 17.738 7.271.814-.814 9.313-96.152 8.627-96.781-.417-.383-12.008-2.807-25.758-5.386-53.818-10.097-70.896-13.531-71.804-14.439-.566-.566-.653-4.846-.216-10.671l.729-9.725 17.642-18.6c9.702-10.23 23.124-24.247 29.826-31.149 6.701-6.902 12.412-13.652 12.69-15 .279-1.348 1.681-18.651 3.117-38.451 2.629-36.263 4.119-55.763 7.487-98 1.009-12.65 1.541-23.278 1.182-23.618-.647-.611-21.544-3.466-46.653-6.373-7.15-.828-14.575-1.705-16.5-1.949-1.925-.243-4.85.146-6.5.865m143.728 83.455l-4.271.62 7.702 11.77c4.236 6.473 8.005 11.423 8.376 11 1.422-1.623 4.969-22.65 3.929-23.292-1.346-.832-10.3-.888-15.736-.098M350.599 331c-.803 2.217-9.599 44.11-9.599 45.719 0 2.216 7.065 12.626 7.914 11.661.426-.484 2.907-11.125 5.515-23.647l4.742-22.766-2.51-4.234c-4.222-7.122-5.433-8.467-6.062-6.733m9.095 122.75c-.305 1.512-5.537 25.081-11.625 52.375S337 556.506 337 557.43c0 1.063 1.93 2.543 5.25 4.025 2.887 1.29 19.875 8.735 37.75 16.545 17.875 7.81 34.917 15.28 37.871 16.6 2.954 1.32 5.935 2.4 6.624 2.4 1.298 0 2.823-5.079 16.093-53.608 7.594-27.774 8.308-31.392 6.195-31.392-4.858 0-50.513-7.398-51.389-8.327-.609-.645-8.425-12.76-17.369-26.923-8.945-14.163-16.603-25.75-17.019-25.75-.416 0-1.006 1.238-1.312 2.75M.465 587.5c0 28.6.128 40.156.284 25.68.157-14.476.157-37.876 0-52-.156-14.124-.284-2.28-.284 26.32M0 695.5c0 29.608.223 53.61.496 53.337.666-.666.691-105.983.026-106.648C.235 641.902 0 665.892 0 695.5" fill="#d3d3d3" fill-rule="evenodd"/></svg>