<svg xmlns="http://www.w3.org/2000/svg" width="500" height="597"><path d="M0 298.502v298.502l250.25-.252 250.25-.252.252-298.25L501.003 0H0v298.502m.232.752c.128 164.035.36 286.883.517 272.995l.285-25.252 158.233.513c127.188.413 339.381 1.323 340.465 1.46.127.017.361 10.717.519 23.78.158 13.063.391-110.35.518-274.25L501 .5 250.5.754 0 1.008l.232 298.246M.493 299c0 164.175.116 231.337.257 149.25.141-82.088.141-216.413 0-298.5C.609 67.662.493 134.825.493 299M202.397 80.408c-.297.775-1.876 1.962-3.507 2.638-3.268 1.353-4.89 3.673-4.89 6.995 0 1.441-.467 1.994-1.385 1.641-.762-.292-2.337.135-3.5.95-1.218.853-2.115 1.033-2.115.425 0-.581-.462-1.057-1.026-1.057-.594 0-.4 1.209.46 2.873 1.725 3.336 1.111 4.489-1.614 3.03-4.091-2.189-13.394 3.742-11.267 7.183.456.738.209.992-.664.685-.864-.304-1.295-1.663-1.139-3.598.193-2.411-.088-2.98-1.25-2.534-1.542.591-1.864 1.555-1.549 4.632.142 1.384-.473 1.721-2.813 1.543-4.422-.337-8.31 1.996-7.099 4.26.525.979.68 2.494.346 3.366-.335.872-.103 2.195.515 2.94.85 1.024.755 1.661-.388 2.61-.831.69-1.512 2.089-1.512 3.109s-1.125 2.592-2.5 3.493c-1.375.901-2.5 2.153-2.5 2.782 0 1.478 3.804 3.865 4.991 3.132.5-.309 1.428.408 2.062 1.593 1.118 2.089.082 3.837-2.303 3.886-.412.008-.75 1.113-.75 2.456s-.43 2.707-.956 3.032c-.526.325-.703 1.252-.393 2.059.309.807.117 1.468-.427 1.468-.545 0-1.255.787-1.578 1.75-.324.963-.999 2.425-1.501 3.25-.502.825-1.514 2.779-2.248 4.343-.734 1.564-1.499 2.352-1.699 1.75-.201-.601-.777-1.093-1.281-1.093-1.327 0-1.127 3.39.283 4.8.66.66.772 1.252.25 1.315-.523.064-1.623.176-2.445.25-.822.074-2.397 1.821-3.5 3.882-2.753 5.146-4.938 5.018-4.232-.247.555-4.134-.284-4.911-3.268-3.024-1.289.815-1.233 1.136.401 2.332 1.434 1.048 1.588 1.577.634 2.167-.734.454-1.629.204-2.136-.597-.481-.758-.949-.928-1.041-.378-.092.55-.232 1.45-.312 2-.079.55-.655 1.926-1.28 3.058-1.483 2.687-2.363 10.442-1.185 10.442.503 0 .914-.482.914-1.071 0-2.292 3.07-4.076 6.503-3.78 2.657.228 3.855-.215 5.002-1.853 1.285-1.834 1.977-2.018 4.684-1.242 5.087 1.459 5.604 2.862.818 2.22-4.103-.55-4.212-.493-3.489 1.829.771 2.479 7.394 9.561 8.587 9.184.372-.118.888.895 1.147 2.25.466 2.437-.583 3.354-1.725 1.507-.64-1.036-3.527-.297-3.527.902 0 .648 4.37 3.054 5.547 3.054.249 0 .453-.482.453-1.071 0-2.12 2.736-4.06 3.375-2.394.313.816.919 1.426 1.347 1.356 2.168-.356 3.278.283 3.278 1.887 0 1.838 2.307 4.245 5.921 6.18 2.437 1.304 2.776 4.751.514 5.219-1.319.272-1.241.669.5 2.531 2.474 2.646 2.716 7.918.508 11.069-2.009 2.87-4.992 3.117-3.478.289 1.501-2.805 1.298-5.104-.392-4.456-.992.381-1.293-.01-.987-1.281.545-2.267-1.272-5.247-2.336-3.829-.412.55-1.375 1-2.139 1-1.375 0-4.319 8.958-3.285 9.993.281.281 1.336-.234 2.343-1.146 1.63-1.475 1.831-1.484 1.831-.084 0 2.83-1.138 4.621-2.583 4.067-.86-.33-1.417.087-1.417 1.063 0 .884.45 1.607 1 1.607s1.015.563 1.033 1.25c.052 1.945 4.024 6.258 4.786 5.197.99-1.377 7.337-1.718 10.388-.559 4.236 1.611 5.452-4.669 1.734-8.956-1.177-1.358-1.845-3.191-1.559-4.283.274-1.05.002-4.381-.605-7.403-.825-4.109-.81-5.964.06-7.357 1.541-2.467 1.467-2.943-.348-2.246-1.049.402-1.335.12-.935-.922.387-1.009 2.697-1.729 7.042-2.194 5.312-.569 6.749-1.125 8.05-3.11 2.055-3.136 3.132-3.048 7.576.614 3.219 2.654 3.635 3.494 3.341 6.75-.256 2.833-.778 3.719-2.19 3.721-1.272.001-2.024.943-2.396 3-.477 2.643-.664 2.784-1.58 1.193-.991-1.723-1.15-1.712-3.468.229-1.966 1.647-2.163 2.211-1.033 2.955.908.598 1.122 1.566.612 2.77-.713 1.685-.839 1.642-1.402-.485l-.619-2.335-2.743 2.158c-2.251 1.771-2.744 2.95-2.744 6.571 0 6.739-2.132 13.542-4.53 14.453-3.697 1.406-12.213 1.846-13.368.691-.771-.771-1.418-.786-2.153-.051-.735.735-.269 1.564 1.549 2.756 1.815 1.189 2.423 2.267 2.011 3.566-.474 1.492-.187 1.755 1.45 1.327 1.2-.313 2.041-.049 2.041.642 0 .647.412.921.916.61 1.142-.706 7.084 5.117 7.084 6.942 0 .736.478 1.499 1.062 1.693.739.247.751 1.175.039 3.048-.71 1.866-.7 2.895.032 3.347 1.704 1.054-7.045 4.478-9.723 3.806-1.318-.331-2.148-1.003-1.844-1.495.304-.491.128-.893-.39-.893-1.258 0-2.153 3.61-1.157 4.666.433.459.985 1.734 1.227 2.834.396 1.802.547 1.739 1.528-.635 1.012-2.448 1.431-2.599 5.907-2.128 6.059.637 6.243.824 6.985 7.09.5 4.226.335 5.173-.904 5.173-2.422 0-4.355 2.835-2.436 3.572.854.327 1.832 1.87 2.174 3.428.342 1.558 1.241 3.07 1.997 3.361.757.29 1.517 2.24 1.689 4.333.293 3.555.527 3.806 3.532 3.806 2.004 0 4.07.85 5.473 2.25 1.239 1.238 1.703 2.25 1.031 2.25-.672 0-1.222.45-1.222 1s.75 1 1.667 1c.916 0 1.386.281 1.043.623-.343.343.535 2.143 1.952 4 1.416 1.858 2.072 3.377 1.457 3.377-2.381 0-5.119 4.036-5.119 7.545 0 3.473.068 3.533 3.314 2.924 5.856-1.099 6.208.215 6.019 22.435-.092 10.778.237 21.752.732 24.388.994 5.3-.088 8.219-3.366 9.076-1.045.274-1.641.918-1.323 1.431.317.514-.358 1.78-1.501 2.814-4.033 3.65-.913 17.179 4.824 20.913 1.54 1.003 3.251 2.399 3.801 3.101 1.633 2.087 10.35 4.565 13.571 3.857 2.726-.598 2.93-.967 2.944-5.313.009-2.569.418-5.306.91-6.083.585-.924.38-1.926-.593-2.899-.914-.914-1.235-2.297-.831-3.588.361-1.156.747-3.512.86-5.236.273-4.196 2.259-6.365 5.828-6.365 4.574 0 9.935-4.571 9.221-7.862-.403-1.858-.287-2.233.392-1.268.787 1.118 1.157 1.026 2.011-.5.575-1.029 1.399-1.697 1.83-1.485.432.211 1.251-.364 1.821-1.279 1.322-2.121-1.215-4.057-3.18-2.426-.984.816-1.28.511-1.269-1.308.013-1.898.209-2.072.985-.872.843 1.305.971 1.289.985-.128.008-.895.63-2.137 1.381-2.761 1.151-.955 1.154-2.038.022-6.872-.739-3.157-1.044-6.639-.677-7.739.367-1.1.766-2.554.886-3.23.121-.677.936-1.946 1.812-2.821 1.455-1.456 1.591-1.415 1.591.48 0 1.139.439 2.071.975 2.071.55 0 .713-1.308.375-3-.624-3.12.387-3.863 2.45-1.8 1.566 1.566 3.105.057 3.789-3.717.283-1.563.743-3.212 1.022-3.663.279-.451-.195-.82-1.052-.82s-1.559.509-1.559 1.131c0 .739-1.243.929-3.591.548-4.475-.726-8.409-4.787-8.409-8.681 0-1.628-.708-3.295-1.614-3.802-1.192-.667-1.402-1.53-.804-3.299.446-1.319.702-2.959.57-3.647-.132-.687.188-1.25.711-1.25.522 0 .708-.925.412-2.057s-1.109-1.837-1.809-1.568c-.699.268-2.103-.142-3.119-.912s-1.397-1.482-.847-1.584c2.605-.479 3.115-.622 4.75-1.333 2.617-1.137 2.119-4.023-1.281-7.423-3.539-3.539-3.294-7.209.654-9.795 1.307-.857 2.377-2.133 2.377-2.836 0-.703.675-1.537 1.5-1.854.825-.316 1.5-.184 1.5.293 0 .478 1.606.869 3.569.869 2.741 0 3.436-.343 3-1.482-.313-.815-.569-1.592-.569-1.727 0-.134-1.277-.057-2.839.172-2.749.403-6.161-1.72-6.161-3.834 0-1.608 2.856-1.008 3.875.813.536.958 1.33 1.386 1.765.952 1.035-1.036-.932-4.111-2.876-4.494-.837-.165-2.331.51-3.321 1.5-.99.99-2.057 1.67-2.372 1.51-.314-.159-.715.629-.891 1.75-.305 1.949-3.18 2.994-3.18 1.157 0-.486-.933-1.128-2.074-1.426-3.726-.974-2.241-6.182 1.775-6.225 4.818-.052 4.993-1.178.396-2.555-2.253-.675-4.097-1.762-4.097-2.414 0-4.041-7.092-6.28-11.023-3.481-2.382 1.697-3.836 2.015-6.867 1.503-3.029-.512-3.978-.305-4.469.973-.468 1.221-1.679 1.547-4.882 1.316-3.839-.278-4.353-.628-5.215-3.556-.526-1.787-1.764-3.504-2.75-3.817-2.277-.723-2.326-4.325-.082-5.967 1.443-1.054 1.504-1.503.387-2.849-.729-.878-1.677-1.38-2.108-1.114-.43.266-1.05-.217-1.379-1.074-.77-2.007-2.612-.887-2.612 1.588 0 1.491-.645 1.855-2.998 1.691-3.379-.237-3.503-.38-1.752-2.031 2.243-2.115 6.534-3.93 7.655-3.238.684.423 1.095-.282 1.095-1.882 0-3.283 1.977-3.277 5.071.017 1.972 2.098 2.977 2.449 5.425 1.889 1.652-.377 4.264-.628 5.803-.556 2.676.124 2.77-.025 2.139-3.389-.548-2.921-.272-3.834 1.625-5.37l2.286-1.851-2.243-3.15c-1.233-1.732-1.926-3.149-1.539-3.149 1.381 0 5.183 4.867 5.836 7.471l.665 2.65 3.466-2.142c1.906-1.178 3.466-1.881 3.466-1.561 0 .319 2.535-1.894 5.633-4.919 6.226-6.079 7.217-6.427 9.888-3.475 1.249 1.38 2.157 1.698 2.855 1 1.771-1.771 5.182-1.118 7.383 1.414l2.121 2.439 4.06-1.962c2.233-1.079 4.06-2.353 4.06-2.831 0-1.693 3.362-2.188 4.237-.625 1.313 2.346 4.663 1.855 5.902-.865.603-1.323 2.056-2.637 3.229-2.919a80.083 80.083 0 004.244-1.175c1.436-.45 2.303-.164 2.708.891.738 1.924-1.207 7.797-2.348 7.092-.459-.284-1.05-.166-1.314.262-.616.997 1.431 3.795 3.206 4.381 1.011.333.686 1.255-1.255 3.562-1.441 1.712-2.898 4.508-3.239 6.212-.689 3.445-2.37 4.225-2.37 1.1 0-1.972-2.847-2.82-4.366-1.301-.384.385-2.709.576-5.167.425-3.515-.217-4.467.061-4.467 1.3 0 .867.528 1.576 1.174 1.576.646 0 .118 1.125-1.174 2.5-1.292 1.375-2.932 2.5-3.644 2.5-.713 0-2.294 1.35-3.514 3-1.576 2.132-3.104 3.028-5.28 3.098-2.775.089-2.64.221 1.438 1.402 2.475.717 3.825 1.355 3 1.417-1.333.101-1.333.233 0 1.185 1.234.881 1.14.994-.53.636-1.116-.239-2.596.171-3.289.913-.693.742-2.397 1.349-3.786 1.349-3.184 0-6.638 1.797-5.864 3.05.802 1.298 5.195 1.203 6.019-.131.368-.595 1.713-.819 2.991-.498 1.733.435 2.48.088 2.942-1.368.393-1.238 1.179-1.736 2.152-1.363 1.25.48 1.287.761.199 1.525-.992.697-1.028 1.062-.14 1.426.656.268.946 1.134.643 1.924-.837 2.182 4.602 1.831 7.099-.458 1.533-1.406 2.643-1.671 4.314-1.032 2.377.909 2.919 2.394 1.25 3.425-1.483.916-1.212 4.5.339 4.5 1.832 0 7.897-6.809 7.147-8.023-.855-1.382.875-1.216 2.314.223 2.905 2.905-.458 6.49-11.019 11.75-6.105 3.041-8.794 9.05-4.05 9.05 1.55 0 1.809.986 1.906 7.25.271 17.516 4.953 22.697 12.53 13.866 3.462-4.035 9.659-6.711 8.491-3.667-.327.853-.13 1.551.439 1.551 1.935 0 4.903-2.066 4.903-3.413 0-.738.563-1.809 1.25-2.379 1.582-1.312 9.753-2.576 9.742-1.506-.011 1.155-5.001 3.298-7.68 3.298-1.777 0-2.235.503-2.05 2.25.148 1.395-.252 2.15-1.053 1.986-.709-.144-2.284.284-3.5.952-3.054 1.681-4.706 1.846-4.724.474-.029-2.178-1.954 1.819-1.97 4.088-.008 1.238-.423 2.25-.921 2.25-.499 0-.671.9-.384 2 .364 1.391.031 2-1.093 2-.89 0-1.617-.408-1.617-.906 0-.499-.84-.687-1.867-.418-1.59.415-1.701.846-.75 2.898.614 1.326 1.454 2.414 1.867 2.418.413.004.75.892.75 1.973 0 2.445 3.892 4.828 4.988 3.054.527-.852.905-.74 1.341.397.547 1.423-.398 2.047-2.579 1.702-.413-.065-.757.444-.765 1.132-.011.833-.339.75-.985-.25-.784-1.213-.972-1.069-.985.75-.008 1.238.435 2.25.985 2.25s1 .9 1 2-.466 2-1.035 2c-.712 0-.714.601-.004 1.927.888 1.659.453 2.251-3.124 4.25-4.944 2.764-6.982 5.477-5.029 6.696.876.547 1.075 1.744.604 3.621-.525 2.093-.391 2.611.528 2.043.958-.592 1.158 1.943.896 11.352-.255 9.204-.036 12.113.914 12.112.688 0 1.25.449 1.25.999s-.45 1-1 1c-1.676 0-1.121 7.007 1.155 14.584 2.958 9.848 4.318 11.414 10.386 11.961 8.513.766 8.923 1.003 10.238 5.92 1.558 5.824 4.03 5.534 7.739-.908.563-.978 2.35-1.85 4-1.951 1.64-.101 3.922-.705 5.071-1.344 2.105-1.169 13.406-1.292 13.409-.146.003.89 7.988-.702 9.1-1.814 2.298-2.298 2.811-7.196.82-7.828-2.477-.786-2.423-1.926.207-4.376 1.963-1.828 2.307-1.861 4.5-.424 2.726 1.786 3.027 3.139.88 3.962-1.676.644.885 6.248 2.961 6.479 2.141.239 5.065-.318 5.906-1.123.479-.46 1.492-.598 2.25-.307 1.985.762 2.275-7.504.306-8.727-.48-.298-.128-2.184.782-4.192 1.485-3.276 1.786-3.477 2.94-1.958 1.203 1.583 1.288 1.579 1.318-.058.018-.962-.339-1.75-.792-1.75-.809 0-.903-1.389-1.195-17.5-.096-5.289-.667-8.815-1.687-10.405-1.394-2.173-1.392-2.347.018-1.806.858.33 2.602-.213 3.874-1.206 1.574-1.228 2.953-1.552 4.314-1.014 1.906.753 1.91.794.083.861-3.072.112-1.005 1.283 2.586 1.463 3.643.184 6.748-2.09 5.999-4.393-.642-1.973-3.806-5.028-4.495-4.34-.297.297-1.088.202-1.758-.213-.894-.552-.732-1.108.611-2.089 2.353-1.721 1.594-2.398-3.443-3.074-3.403-.456-4.083-.922-4.083-2.793 0-1.235-.675-2.806-1.5-3.491-1.197-.993-1.5-.993-1.5 0s-.303.993-1.5 0c-2.193-1.82-1.84-2.75 1.042-2.75 1.398 0 2.76-.219 3.028-.486.858-.858-1.34-5.413-3.995-8.277-1.416-1.529-2.607-3.951-2.645-5.383-.088-3.254-1.75-7.591-1.86-4.854-.038.962-.552 1.75-1.141 1.75-.59 0-1.751.679-2.581 1.509-1.693 1.693-3.348 1.14-3.348-1.119 0-1.973 6.653-4.694 9.642-3.944 1.657.416 2.358.165 2.358-.844 0-.789.557-1.621 1.238-1.848.98-.327.974-.994-.031-3.198-.698-1.532-.982-3.69-.631-4.796.464-1.462.294-1.798-.623-1.231-.82.507-1.012.376-.548-.374.392-.635.204-1.155-.417-1.155-3.217 0-4.13-2.889-1.877-5.937 1.214-1.641 2.58-2.754 3.037-2.472.456.282.683-.073.504-.789-.178-.716-.135-.965.095-.552.231.413 1.084.75 1.895.75.812 0 1.176-.486.809-1.08-.367-.594.731-2.447 2.441-4.118 3.439-3.363 3.818-4.592 1.671-5.416-.827-.318-1.179-1.223-.83-2.133.402-1.046.211-1.337-.563-.858-1.739 1.075-1.425-.339 1.308-5.895 1.353-2.75 2.474-5.761 2.491-6.691.017-.93.481-1.969 1.031-2.309 2.406-1.487.916-6.525-3.552-12.01-4.774-5.862-5.156-8.505-1.512-10.456 1.252-.67 1.653-1.735 1.316-3.499-.352-1.839-.041-2.569 1.131-2.66 3.741-.289 4.102-.507 3.792-2.283-.232-1.332.115-1.695 1.218-1.271.849.325 1.809.161 2.134-.365.976-1.579 4.473-1.092 4.473.623 0 1.24.655 1.436 3.041.912 1.88-.413 3.609-.196 4.53.568 2.655 2.203 6.201-.251 5.663-3.919-.406-2.763-.718-2.993-3.341-2.469-1.887.378-2.893.168-2.893-.605 0-.651-.498-.876-1.107-.5-.755.467-.888-.071-.418-1.691.641-2.207.519-2.169-1.726.535-1.733 2.088-3.01 2.755-4.518 2.361-1.287-.337-2.308-.011-2.635.84-.766 1.997-3.593 1.715-3.611-.361-.013-1.496-.157-1.532-.985-.25-.808 1.25-.972 1.175-.985-.45-.011-1.468-.299-1.666-1.164-.801-2.061 2.061-6.692-1.13-6.104-4.207.286-1.495.026-2.542-.63-2.542-.615 0-1.117-.702-1.117-1.559s-.394-1.316-.875-1.018c-.481.297-.875-.576-.875-1.941 0-1.365.394-2.482.875-2.482 2.231 0 .562-2.59-1.794-2.785-3.3-.273-3.499-.47-3.683-3.649-.081-1.411-.373-2.57-.648-2.577-.275-.006-1.36-1.807-2.411-4-1.051-2.194-2.315-3.989-2.809-3.989-.494 0-.62-.45-.28-1 .34-.55.179-1-.358-1-.536 0-1.176.563-1.422 1.25-.245.688-.808.912-1.251.498-1.236-1.153 1.579-5.667 3.157-5.061.756.29 1.374 1.18 1.374 1.979 0 .799.375 1.22.833.937 1.561-.964-.01-6.837-1.965-7.348-1.028-.268-1.864-.773-1.86-1.122.016-1.337 5.323-3.017 7.901-2.501 1.774.355 3.153-.002 4.011-1.036 1.382-1.664 5.352-1.291 7.928.745 3.417 2.702 5.199 1.847 4.685-2.247-.351-2.792-.087-4.051.933-4.442.782-.301 1.968-2.37 2.636-4.599 1.42-4.738 1.646-4.811 4.749-1.539 2.559 2.697 4.578 2.413 3.649-.514-.32-1.007-.113-2.121.459-2.475.573-.354 1.041-.155 1.041.441s1.143 1.518 2.54 2.049c2.083.792 2.362 1.3 1.547 2.822-.686 1.282-.636 2.214.16 3.01 1.587 1.587 2.803 1.448 2.153-.246-.295-.769-.056-1.696.532-2.059.587-.363 1.068-.183 1.068.399 0 .582.388 1.059.861 1.059.474 0 .639-1.163.367-2.585-.629-3.292 2.945-3.114 6.762.335 3.187 2.88 6.022 3.014 5.3.25-.288-1.1-1.309-2-2.269-2-1.244 0-1.649-.646-1.407-2.25.969-6.439.771-9.106-.614-8.25-.55.34-1 1.407-1 2.371 0 3.088-5.219 6.174-7.551 4.464-1.072-.787-2.744-1.224-3.717-.972-.972.252-2.401-.175-3.175-.949-.775-.775-2.12-1.135-2.99-.801-1.78.683-5.897-1.693-9.414-5.431-2.069-2.199-2.157-2.6-.743-3.391 1.259-.705 1.373-1.328.53-2.903-.634-1.185-.762-3.31-.313-5.197.996-4.183.861-3.757 2.28-7.191.717-1.735.988-4.686.643-7-.329-2.2-.631-4.45-.672-5-.19-2.539-2.214-4.463-6.36-6.046l-4.504-1.72-3.44 3.755c-2.06 2.248-3.693 5.257-4.072 7.499-.429 2.54-1.41 4.16-3.051 5.038-1.33.712-2.664 2.07-2.965 3.018-.842 2.652-6.44 8.102-7.592 7.39-.642-.396-.404-1.318.639-2.47.915-1.011 1.367-2.316 1.006-2.901s.056-1.063.927-1.063c1.943 0 3.586-4.035 3.384-8.315-.142-3.024-.171-3.046-.566-.435-.229 1.513-1.4 3.266-2.6 3.896-1.201.63-2.544 1.755-2.984 2.5-.457.773-2.485 1.354-4.731 1.354-4.093 0-6.05-2.741-4.619-6.47.311-.81.091-2.836-.49-4.502-.96-2.752-1.456-3.028-5.458-3.028-4.624 0-5.115-.778-4.572-7.25.326-3.888-10.823.334-13.584 5.144-2.316 4.036-7.557 5.102-10.675 2.173-1.21-1.137-2.745-2.067-3.41-2.067-1.44 0-3.161 4.136-3.161 7.596 0 2.948-2.401 4.146-4.619 2.305-1.169-.97-1.465-2.464-1.111-5.606.448-3.974.248-4.43-2.761-6.29-8.674-5.36-14.692 2.494-10.453 13.642 1.181 3.108-.381 7.353-2.706 7.353-1.307 0-1.689-1.112-2.843-8.278-.67-4.163-2.507-4.144-2.507.026 0 2.606-.016 2.612-1.849.645-1.016-1.091-2.089-2.639-2.383-3.439-.412-1.119-.711-.993-1.298.546-.42 1.1-1.883 3.213-3.252 4.696-1.938 2.1-2.356 3.364-1.886 5.712.331 1.658.166 3.284-.367 3.614-1.804 1.115.952 4.639 3.096 3.959 3.58-1.137 1.983 1.303-2.618 3.999-3.31 1.94-4.903 2.383-5.823 1.619-.85-.705-1.599-.72-2.273-.046-1.332 1.332-5.847-1.025-5.847-3.053 0-.983-.956-1.486-2.772-1.459-2.365.035-2.943-.527-3.929-3.818-.636-2.122-2.201-4.681-3.478-5.685-2.748-2.162-2.95-3.583-.633-4.472 1.028-.394 2.028-.037 2.561.914 1.162 2.077 2.751.977 2.751-1.903 0-1.982-.646-2.394-4.603-2.936-4.796-.657-6.836-.16-5.854 1.428.316.512.098.931-.484.931s-1.059.702-1.059 1.559-.399 1.313-.886 1.011c-.488-.301-1.145.44-1.461 1.648-.315 1.207-.869 1.9-1.229 1.539-.36-.36-.194-1.978.37-3.596.716-2.054.7-3.267-.051-4.018-.77-.77-.673-1.186.34-1.459.779-.209 2.9-.868 4.712-1.463 2.554-.838 4.072-.757 6.75.362 1.9.794 3.455 1.207 3.455.917 0-.857-2.39-4.804-3.889-6.422-.764-.824-1.994-2.867-2.733-4.538-2.464-5.57-3.739-6.584-7.081-5.625-4.996 1.433-7.297 3.047-7.297 5.12 0 1.081-.391 1.965-.868 1.965-.478 0-.891-2.458-.918-5.462-.064-7.14-.61-7.901-4.3-5.993-1.635.845-3.4 1.273-3.923.95-1.34-.829-4.991 1.306-4.991 2.918 0 2.179-2.793 3.856-5.351 3.214-1.913-.48-2.282-1.095-1.89-3.147.307-1.605-.173-3.281-1.296-4.521-2.148-2.373-1.37-3.378 2.779-3.586 2.298-.116 4.31-1.418 7.751-5.015 6.339-6.625 8.153-10.367 10.477-21.608.593-2.87-.137-3.782-1.073-1.342M276 100.288c0 .705 1.462 2.128 3.25 3.164s4.547 2.954 6.131 4.262c2.264 1.868 3.98 2.354 8 2.267 8.349-.181 24.905 1.978 27.913 3.64 4.664 2.577 9.002 3.517 9.856 2.136.493-.798 1.256-.021 2.212 2.253.803 1.908 1.262 3.79 1.021 4.18-.242.39.495 1.21 1.637 1.821s2.534 2.316 3.094 3.788l1.018 2.678 1.797-2.382c1.004-1.332 2.298-2.073 2.934-1.68 1.819 1.124 1.311-.561-.613-2.036-1.192-.913-1.399-1.586-.65-2.11.605-.423 1.666-1.842 2.358-3.154.913-1.733 1.472-2.038 2.042-1.115.577.934 1.097.687 1.962-.929 1.208-2.256 5.815-2.223 8.661.062 1.749 1.404 4.14-.015 5.214-3.095.909-2.607.757-2.864-2.18-3.692-2.112-.596-3.719-2.009-4.855-4.269l-1.697-3.379-1.661 4.151c-1.525 3.812-5.444 6.08-5.444 3.151 0-.55-.479-1-1.064-1-.598 0-.926 1.423-.75 3.25.312 3.228.284 3.25-4.186 3.277-7.689.046-9.415-1.463-3.75-3.28 1.788-.574 2.462-1.089 1.5-1.145-.962-.056-1.75-.519-1.75-1.029 0-.509.788-1.132 1.75-1.384 1.265-.33 1.101-.489-.594-.573-1.59-.079-2.518.553-2.887 1.965-.419 1.599-1.033 1.92-2.657 1.386-1.161-.382-3.912-.888-6.112-1.124-7.588-.817-8.747-1.29-8.208-3.351.441-1.687.029-1.878-3.417-1.586-2.155.183-4.143-.03-4.417-.474-.274-.443-4.747-.635-9.941-.428-9.695.388-11.249.125-20.267-3.428-3.856-1.519-5.25-1.728-5.25-.788m-113.35 14.396c-.338.337-.348 1.671-.023 2.964.346 1.38.144 2.352-.488 2.352-.593 0-1.02 1.546-.949 3.435l.129 3.435 2.774-2.969c1.525-1.634 2.976-3.742 3.224-4.685.345-1.313.478-1.213.567.426.233 4.305 9.803 3.223 11.54-1.304.833-2.171-6.196-3.533-8.943-1.734-1.523.998-2.514 1.152-2.944.456-.941-1.523-4.171-3.093-4.887-2.376m97.842 55.328c-.383.62-2.254 4.241-4.158 8.047-3.241 6.479-3.362 7.063-1.898 9.153.86 1.228 1.564 3.006 1.564 3.951 0 2.998 2.225 3.285 4.414.57 6.805-8.442 9.331-15.317 7.249-19.733-1.263-2.681-5.941-3.978-7.171-1.988M304 173.879c0 .483-1.286 1.411-2.858 2.062-4.249 1.76-9.656 8.003-10.978 12.675-1.678 5.932-1.507 6.754 1.927 9.293l3.09 2.285 2.835-2.899c1.559-1.595 4.463-3.776 6.453-4.847 4.373-2.355 5.364-5.477 3.188-10.04-.995-2.089-1.382-4.534-1.01-6.395.473-2.362.252-3.013-1.022-3.013-.894 0-1.625.395-1.625.879M123.638 185.5c-.316.825-1.602 1.529-2.857 1.563l-2.281.064 2.25.904c1.237.498 2.25 1.594 2.25 2.437 0 1.724-1.558 2.056-2.5.532-.34-.55-1.338-1-2.217-1-1.229 0-1.041.527.809 2.269 1.324 1.249 2.7 1.858 3.057 1.355.803-1.132 3.851-.067 3.851 1.345 0 .567-.562 1.05-1.25 1.073-1.239.041 5.059 3.836 6.5 3.916.412.023.743-1.196.735-2.708-.042-7.671-6.45-16.692-8.347-11.75m98.37 11.148c-4.225 6.663-4.804 10.289-2.002 12.558 2.114 1.712 2.208 2.304 1.553 9.808-.583 6.683-.456 7.986.777 7.986 1.125 0 1.355-.887.974-3.75-.658-4.934 2.497-9.25 6.763-9.25 1.61 0 2.927.405 2.927.901s1.575.856 3.5.802c3.325-.094 4.469-.986 2.68-2.091-.45-.279-1.626-4.018-2.612-8.309-2.514-10.939-3.639-12.757-8.05-13.013-3.287-.191-3.874.201-6.51 4.358M337 209.566c0 3.611-.475 7.453-1.055 8.538-1.673 3.126-.206 5.59 4.482 7.529 3.121 1.291 4.184 2.23 3.772 3.332-.494 1.322-.34 1.345 1.114.163.928-.755 1.687-2.26 1.687-3.344 0-1.13.853-2.194 2-2.494 2.812-.736 2.494-2.29-.469-2.29-1.691 0-2.301-.436-1.937-1.383.601-1.567-2.98-13.172-4.707-15.253-.622-.75-1.977-1.364-3.009-1.364-1.647 0-1.878.809-1.878 6.566m67.021 7.934c-.139.55-.312 1.675-.386 2.5-.169 1.88-5.25 2.565-7.175.966-1.412-1.171-6.801 2.15-7.157 4.41-.076.482-1.413 1.716-2.97 2.743-1.558 1.027-2.313 1.871-1.677 1.874.652.004.935.855.649 1.95-.496 1.897.209 2.035 5.695 1.111.275-.047-.111-.472-.857-.944-.937-.594-1.145-1.826-.67-3.985.738-3.364 1.546-3.721 4.657-2.056 1.454.779 2.388.746 3.434-.122 2.036-1.69 1.855 1.14-.515 8.053-1.811 5.281-6.133 9.684-8.231 8.387-.45-.278-.818.422-.818 1.554 0 1.132-.407 2.059-.905 2.059-1.171 0-.216 7.558 1.485 11.752 1.232 3.035 1.491 3.173 3.908 2.071 1.424-.648 2.374-1.741 2.11-2.428-.263-.687.209-1.82 1.05-2.518 1.292-1.072 1.477-.967 1.191.677-.211 1.214.225 1.946 1.161 1.946.912 0 1.469-.881 1.421-2.25-.115-3.258 1.395-2.769 1.766.572.295 2.661.499 2.773 3.573 1.969l3.259-.853-1.561-3.02c-1.234-2.386-2.003-2.88-3.661-2.353-1.658.526-1.969.326-1.48-.95.391-1.019.097-1.615-.797-1.615-1.218 0-1.213-.49.031-3.468.797-1.907 1.449-4.795 1.449-6.417 0-1.621.563-3.138 1.25-3.369.971-.327.94-.796-.14-2.105-2.44-2.955-2.463-8.535-.043-10.494 1.461-1.183 1.983-2.494 1.667-4.185-.254-1.354-.575-2.012-.713-1.462m-270.854 28.441c-3.443 4.285-3.956 6.059-1.75 6.059 2.05 0 2.43 2.069.914 4.974-.725 1.389-1.321 3.287-1.325 4.217-.008 2.127 1.653 3.243 2.33 1.565.325-.808.534-.849.585-.115.043.627-.776 3.051-1.822 5.386-1.922 4.293-1.319 9.973 1.058 9.973.528 0 .669.472.313 1.049-.451.729-1.039.723-1.932-.018-2.466-2.046-4.278-.089-4.783 5.165-.314 3.269-1.069 5.4-2.121 5.989-2.254 1.261-2.062 3.086.248 2.353 1.187-.377 2.098-.033 2.468.932 1.36 3.544 6.275 1.791 10.165-3.624 3.56-4.955 3.655-5.301 2.457-8.931-.808-2.448-1.006-5.897-.564-9.807.873-7.714-1.565-13.9-4.157-10.548-1.431 1.849-1.466 1.823-.762-.56.406-1.375.959-4.187 1.23-6.25.27-2.062.876-3.75 1.347-3.75s1.77-.981 2.887-2.18c1.894-2.032 1.92-2.303.384-4-2.396-2.648-3.631-2.282-7.17 2.121M233.333 250c-.478.478-.932.593-3.45.875-.614.069-.881 1.025-.593 2.125.596 2.281-.276 2.575-2.226.75-1.095-1.025-1.238-.844-.794 1 .75 3.11-1.767 2.948-3.862-.25-2.215-3.38-3.535-3.163-2.301.377 1.946 5.582 4.685 7.1 10.658 5.905 4.22-.844 5.38-1.511 5.844-3.36.33-1.313 1.469-2.44 2.645-2.615 2.285-.34 3.228-3.379 1.407-4.538-1.315-.836-6.567-1.029-7.328-.269m41.871 2.022c-1.762 1.072-3.204 1.505-3.204.963 0-2.811-1.916-.377-2.956 3.756-.987 3.917-1.366 4.435-2.181 2.979-.542-.969-1.408-1.501-1.924-1.182-.517.319-.995.103-1.064-.479-.069-.582-.181-1.579-.25-2.214-.187-1.725-3.401-1.87-4.049-.183-.309.806-.983 1.205-1.497.887-.514-.318-1.223.328-1.574 1.436-.352 1.108-.984 2.015-1.406 2.015-.421 0-.805.563-.852 1.25-.048.688-.318 2.241-.6 3.453-.46 1.97-.179 2.161 2.67 1.809 8.733-1.078 16.683-4.773 16.683-7.753 0-.967.365-1.759.812-1.759.971 0 5.531-5.99 4.98-6.542-.212-.211-1.826.493-3.588 1.564m50.365 11.304c-1.05.767-1.557 1.885-1.152 2.54.398.643.932 3.47 1.187 6.282.256 2.812.899 5.924 1.43 6.916.532.993.966 2.869.966 4.17 0 3.082 1.767 4.766 5 4.766 5.094 0 6.592-5.034 3.25-10.919-1.669-2.938-1.668-3.226.029-6.212 2.179-3.836.298-7.932-3.544-7.721-1.229.067-2.923-.173-3.764-.535-.84-.361-2.372-.04-3.402.713m-31.141 2.813c-1.231 2.381-1.457 4.473-.934 8.657.92 7.367 1.389 8.376 3.569 7.684 1.237-.393 2.337.202 3.412 1.842 1.501 2.29 1.788 2.351 5.306 1.124l3.719-1.296-.161-7.975c-.218-10.759-1.763-13.175-8.428-13.175-4.436 0-5.001.274-6.483 3.139M96.441 285.468c-1.274.964-1.475 1.479-.585 1.5 1.515.036 5.926 5.187 5.144 6.008-.275.288-2.482.524-4.904.524-2.883 0-4.57.484-4.884 1.402-.346 1.011.114 1.246 1.654.843 1.174-.307 2.134-.187 2.134.267 0 .453.236 1.44.525 2.192.334.87-.252 1.425-1.613 1.528-3.275.246-3.634 1.26-1.16 3.266 1.374 1.114 2.017 2.441 1.648 3.403-.333.866-.035 3.943.661 6.837.696 2.894 1.267 5.818 1.269 6.498.005 2.014 3.156 2.413 6.268.793 2.585-1.344 2.902-2.029 2.902-6.269 0-2.618-.39-5.044-.866-5.391-.477-.347.086-3.176 1.25-6.287 1.164-3.112 2.116-6.378 2.116-7.259 0-.882.787-2.207 1.75-2.946 1.634-1.255 1.601-1.386-.5-1.977-1.237-.348-2.25-1.002-2.25-1.453 0-.451-1.428-.961-3.173-1.134-3.536-.349-4.932-2.387-2.132-3.113 1.263-.327 1.036-.503-.754-.584-1.407-.064-3.432.545-4.5 1.352m296.852.404c-1.215 1.034-2.032 2.055-1.817 2.27.214.215-1.155 2.179-3.043 4.364-3.039 3.516-3.433 3.715-3.433 1.733 0-1.231-.45-2.239-1-2.239-1.109 0-1.285.98-1.027 5.72.21 3.854-2.951 9.887-4.196 8.01-.615-.928-1.14-.806-2.138.495-1.028 1.34-1.976 1.539-4.241.889-1.604-.46-3.966-.448-5.25.027-1.283.474-2.741.61-3.24.302-.5-.309-.908-.136-.908.383 0 1.78 4.95 4.186 8.933 4.343 2.191.085 3.751.533 3.467.993-.285.461.08.838.812.838.731 0 2.418 1.991 3.747 4.425 1.33 2.434 3.52 4.928 4.866 5.541 3.332 1.518 18.74.263 20.333-1.656 1.482-1.786 1.54-7.577.081-8.064-2.125-.708.627-6.094 2.821-5.52 1.329.348 1.94-.002 1.94-1.109 0-.89-.477-1.617-1.059-1.617s-.722-.545-.311-1.211c.412-.666.839-4.996.949-9.623.124-5.245.649-8.689 1.395-9.15 1.703-1.052-1.175-1.646-8.974-1.852-5.084-.135-6.981.238-8.707 1.708M95.75 337.689c-.963.252-1.75 1.351-1.75 2.443s-.45 1.708-1 1.368c-.972-.601-1.405.707-1.075 3.25.09.688-.757 1.25-1.881 1.25S88 346.45 88 347s1.367 1 3.038 1c2.691 0 3.005.302 2.75 2.645-.403 3.7 1.815 4.089 2.544.446.485-2.426 1.232-3.106 3.978-3.621 3.014-.566 3.327-.924 2.884-3.302-.394-2.118-4.633-7.556-5.496-7.052-.109.064-.985.322-1.948.573m60.378 11.047c.754.955 2.261 2.482 3.348 3.393 1.778 1.489 1.837 1.918.588 4.251-1.09 2.036-1.683 2.351-2.756 1.461-1.053-.874-1.891-.642-3.652 1.012-1.257 1.181-2.626 2.147-3.042 2.147-.416 0-1.388.631-2.16 1.403-1.204 1.204-1.158 1.497.322 2.064.948.364 1.84.521 1.983.348.324-.394 4.241 5.988 4.241 6.909 0 .372-.54.136-1.2-.524-1.64-1.64-3.8-1.511-3.8.227 0 .784-.787 1.632-1.75 1.884-1.612.421-1.607.466.066.573.998.064 2.667-.34 3.708-.897 1.504-.805 2.116-.594 2.984 1.028.601 1.123 1.481 1.801 1.957 1.507.475-.294 1.042-.002 1.259.649.594 1.784 2.635.086 4.192-3.489.762-1.75 2.509-4.349 3.881-5.776 4.159-4.325 2.485-12.686-3.111-15.541-2.011-1.026-4.257-2.427-4.992-3.115-2.033-1.901-3.652-1.52-2.066.486m247.622 3.157c-.962.976-1.75 2.525-1.75 3.441 0 .916-.42 1.666-.933 1.666-.513 0-1.202.851-1.533 1.892-.33 1.041-1.598 2.173-2.817 2.516-1.979.557-2.036.731-.534 1.62 2.015 1.193 2.095 6.051.175 10.654-1.856 4.447-3.122 4.888-5.471 1.902-1.118-1.421-2.449-2.584-2.96-2.584-1.521 0-1.051 4.206.684 6.123 1.49 1.646 1.441 2.057-.644 5.431-2.295 3.713-1.746 5.387 1.783 5.431.688.008 2.182.947 3.32 2.085l2.07 2.07 2.382-2.57c1.311-1.413 2.854-2.57 3.43-2.57.577 0 1.048-.69 1.048-1.532 0-.843 1.012-1.939 2.25-2.437 1.238-.497 1.668-.933.956-.968-.711-.034-1.225-.625-1.141-1.313.286-2.353-1.297-5.75-2.682-5.75-1.99 0-1.72-7.711.409-11.7.939-1.761 1.933-3.17 2.208-3.132 1.571.214 8.123-3.325 8.638-4.666.962-2.509-.116-2.7-2.897-.513-2.803 2.205-5.741 1.767-5.741-.855 0-.909.9-2.215 2-2.902 1.1-.687 2-1.695 2-2.24 0-1.548-2.319-1.056-4.25.901m-75.25 5.793c-3.132 1.876-4.922 2.282-8.25 1.874-5.044-.619-5.348.346-2.123 6.73 3.031 5.999 11.268 12.51 9.284 7.338-.696-1.812 2.253-4.028 5.438-4.086 2.557-.047 2.65-.252 2.626-5.784-.034-7.907-1.613-9.282-6.975-6.072m-216.5-.823c0 .522-.951.701-2.114.397-1.789-.468-2.01-.226-1.438 1.577.489 1.54-.033 2.839-1.886 4.692-2.894 2.894-3.108 3.471-1.285 3.471.703 0 2.755 1.35 4.562 3 3.366 3.074 5.161 3.77 5.161 2 0-.55 1.389-1 3.086-1h3.087l-.383 6c-.408 6.388.114 7.096 3.059 4.151 1.713-1.713 1.738-2.129.343-5.627-1.458-3.654-1.428-3.837.9-5.603 1.325-1.004 3.488-1.959 4.807-2.123 2.548-.316 5.025-3.207 3.799-4.433-.402-.403-1.216-.247-1.807.344-1.338 1.338-6.078-.891-6.904-3.247-.485-1.383-.906-1.313-3.262.54-2.689 2.115-5.278 1.882-4.404-.395.251-.655-.056-1.847-.682-2.649-1.329-1.701-4.639-2.483-4.639-1.095M406.532 366c-.152.275-.578 2.579-.946 5.121l-.67 4.62 4.457 1.123c5.194 1.308 10.313 5.253 10.926 8.42.263 1.361.481.796.565-1.463.075-2.023-.426-4.285-1.114-5.027-2.236-2.412-5.75-7.69-5.75-8.637 0-.508.9-1.159 2-1.447 1.1-.287 2-1.295 2-2.239 0-1.389-.277-1.486-1.456-.507-.838.695-2.006.859-2.75.387-1.412-.895-6.816-1.157-7.262-.351m-244.436 13.864c-1.171 1.646-3.697 3.509-5.613 4.142-2.902.957-3.483 1.628-3.483 4.022 0 1.612-.713 3.272-1.626 3.782-1.37.767-1.225 1.011.921 1.549 2.334.586 4.187 4.28 3.634 7.247-.397 2.134.224 2.34 2.522.834 2.539-1.663 6.391-1.199 7.757.936 1.488 2.325 3.057-1.365 3.849-9.052.928-9.013.268-15.324-1.603-15.324-.71 0-1.951-.254-2.759-.564-.903-.346-2.288.589-3.599 2.428m154.404 44.2c-1.1.437-1.651.827-1.224.866.426.038.077 1.42-.776 3.07-1.477 2.857-1.455 3 .474 3 1.114 0 2.06.337 2.103.75.042.413.242 1.639.444 2.725.203 1.087-.116 2.275-.709 2.641-.634.392-.198.944 1.059 1.343 2.689.853 5.579-1.609 3.881-3.307-1.754-1.754-.023-2.597 2.744-1.336 1.522.694 2.504.757 2.504.163 0-.539 1.105-.979 2.455-.979 2.013 0 2.572-.629 3.111-3.5.361-1.925 1.083-3.5 1.604-3.5.522 0 .67-.45.33-1-.742-1.2-6.474-1.303-8.292-.149-.711.451-1.644 2.131-2.072 3.734-.865 3.232-4.377 4.117-4.931 1.243-.248-1.291.203-1.542 1.987-1.105l2.308.567-2.093-1.895c-1.152-1.042-2.277-2.397-2.5-3.011-.253-.694-1.163-.815-2.407-.32M188.926 462.41c.93 1.121.544 2.124-1.878 4.882-1.676 1.91-3.048 3.975-3.048 4.59 0 .615-.928 1.118-2.063 1.118-1.366 0-2.003.591-1.885 1.75.45 4.424-.148 6.462-2.041 6.957-1.094.286-1.719.956-1.391 1.488.329.532 1.674.697 2.989.367 3.313-.831 3.045 1.239-.325 2.52-2.141.814-2.411 1.222-1.274 1.924 1.151.712.943 1.09-1.034 1.879-2.415.964-2.421.99-.226 1.052 2.267.063 6.25-3.082 6.25-4.937 0-.55.9-1 2-1s2-.45 2-1-.562-1.007-1.25-1.015c-.895-.011-.854-.266.143-.898.767-.485 1.172-1.729.902-2.764-.271-1.035.126-2.46.882-3.166 1.727-1.613 6.917-1.122 6.564.621-.356 1.754 2.777 2.811 3.735 1.261.844-1.365 5.024-.535 5.024.997 0 .496.675.642 1.5.326.825-.317 1.5-.078 1.5.531 0 1.519 2.714 1.402 3.338-.143.403-1 .52-1 .583 0 .043.688.866 1.235 1.829 1.217 1.489-.029 1.41-.317-.529-1.934-2.009-1.675-2.088-2.008-.668-2.802 1.338-.749 1.056-1.17-1.664-2.488-2.85-1.38-3.538-1.402-5.305-.165-5.109 3.579-10.584-.047-10.584-7.01 0-3.048-.475-4.536-1.582-4.961-2.731-1.048-3.755-.718-2.492.803m-65.681 9.57c-.68 1.089-2.334 2.255-3.674 2.592-1.559.391-2.243 1.119-1.897 2.02.297.774.015 1.408-.626 1.408s-.916.404-.611.898c.305.493-1.266 1.798-3.491 2.899s-3.974 2.365-3.885 2.808c.187.942-5.938 4.395-7.795 4.395-2.897 0-.938 1.682 3.484 2.992l4.75 1.406-5.5.638c-4.6.534-4.875.665-1.683.801 3.111.133 3.73.487 3.343 1.913-1.848 6.816-1.798 7.25.821 7.25 1.385 0 2.519.418 2.519.929 0 1.202-2.869 4.071-4.071 4.071-1.126 0-1.113 11.694.016 14.5 1.1 2.738-.542 5.5-3.272 5.5-1.354 0-4.024 1.801-6.673 4.5-2.429 2.475-3.841 4.5-3.137 4.5.704 0 1.979-.699 2.833-1.553 3.568-3.568 9.263.73 5.897 4.451-1.623 1.793-1.989 1.849-3.327.511-.827-.828-1.729-1.279-2.004-1.004-.796.796 2.626 3.783 3.626 3.165.496-.307 1.176.156 1.511 1.029.533 1.387 2.868 1.54 18.547 1.219 18.869-.388 20.991-.848 17.172-3.729-3.644-2.749-2.137-6.234 2.45-5.666 1.887.235 3.432.039 3.432-.435 0-1.274 9.838 3.286 10.468 4.852.854 2.124-.336 3.152-3.777 3.262l-3.191.103 3.5.872c4.207 1.049 52.608.792 54.307-.288.656-.417-2.069-.765-6.057-.774-5.506-.011-7.25-.349-7.25-1.401 0-1.499-5.737-4.614-8.497-4.614-.932 0-2.953-.897-4.492-1.992l-2.798-1.993-.598 2.382c-.861 3.43-3.496 4.064-6.226 1.499-1.265-1.189-2.267-2.439-2.226-2.779.46-3.827-.323-5.117-3.104-5.117-1.618 0-3.237-.479-3.599-1.065-.438-.708-1.231-.547-2.364.478-1.956 1.77-7.248-.414-12.151-5.015-1.405-1.319-3.217-2.398-4.027-2.398-2.03 0-5.185 3.743-3.605 4.275 2.192.738-1.38 3.725-4.454 3.725-2.521 0-2.822.298-2.321 2.294.394 1.569-.074 2.881-1.481 4.155-2.016 1.823-2.057 1.817-2.057-.298 0-1.818-.509-2.119-3.224-1.905-2.873.226-3.357-.127-4.444-3.246-.67-1.925-1.262-3.05-1.315-2.5-.052.55-.761-.533-1.574-2.407-.813-1.873-1.213-4.243-.889-5.264.693-2.183 2.627-1.406 2.223.893-.153.864.348 1.788 1.112 2.054.777.271 1.11.032.756-.541-.348-.564.031-1.281.844-1.592.836-.321 1.222-1.232.889-2.099-.323-.843-.943-1.313-1.378-1.044-.435.269-1.062-.22-1.394-1.085-.503-1.311-.061-1.457 2.645-.877 4.461.957 4.921 1.344 4.222 3.546-.641 2.021.943 2.67 2.069.848.363-.588 1.313-.818 2.111-.512.953.366 1.207.132.739-.681-.392-.682-.356-.917.079-.524.436.393 1.675.242 2.755-.336 1.718-.919 1.881-.79 1.301 1.035-.776 2.447.318 2.67 3.032.618 2.557-1.935 7.441-1.994 7.441-.091 0 1.882 2.036 3.118 2.882 1.75 2.953-4.778 13.943-3.562 12.031 1.331-.425 1.088-.804 2.324-.843 2.747-.092 1.012 5.331-.328 5.763-1.424.605-1.533 2.021-.88 2.695 1.242.657 2.071.675 2.072 2.49.124 1.21-1.299 2.672-1.802 4.323-1.486 2.027.387 2.556.037 2.826-1.874.287-2.025.818-2.311 3.833-2.061 7.045.583 8.921 1.252 8.269 2.951-.495 1.291-.238 1.43 1.307.709 3.375-1.574 15.493-1.076 16.784.69 1.301 1.778 1.548 1.86 5.64 1.86 1.65 0 3 .45 3 1s-.9 1-2 1c-3.122 0-2.376 3.032 1.066 4.331 2.738 1.033 3.003 1.49 2.48 4.274-.321 1.714-.238 4.045.185 5.179 1.284 3.443 4.721.227 3.939-3.686-.466-2.326-.199-3.113 1.208-3.559.993-.315 2.818-1.651 4.055-2.967 2.15-2.289 2.405-2.329 5.81-.906 1.958.818 4.436 1.259 5.505.979 4.019-1.051 6.791 2.951 3.502 5.055-.687.44-1.805 1.794-2.482 3.008-1.147 2.055-.996 2.252 2.185 2.849 3.88.728 5.93-.117 5.159-2.126-.812-2.117.664-2.503 9.855-2.579 6.552-.055 8.533-.392 8.533-1.45 0-.86.942-1.302 2.5-1.173 2.677.222 2.778.423 2.912 5.771l.088 3.5 8.866.291 8.867.29-3.117-4.237c-1.714-2.331-3.116-5.301-3.116-6.6 0-1.32-.441-2.089-1-1.744-.55.34-1 .141-1-.441s-.675-1.059-1.5-1.059c-2.745 0-1.548-1.829 1.952-2.984 1.899-.627 3.716-1.97 4.038-2.985.772-2.431 3.686-3.491 4.984-1.812.655.848 3.195 1.32 7.026 1.305 5.3-.021 6 .205 6 1.935 0 1.418-.923 2.148-3.343 2.643-4.512.922-5.954 2.482-2.98 3.223 1.278.319 3.223.41 4.323.204 1.1-.207 2.788-.41 3.75-.452.962-.043 1.75-.697 1.75-1.455 0-.757.675-1.937 1.5-2.622.865-.718 1.5-.815 1.5-.229 0 1.669 2.945 2.28 4.951 1.028 1.429-.893 2.805-.889 5.826.016 2.175.652 5.114 1.185 6.53 1.185 1.416 0 2.853.45 3.193 1 .34.55 1.481 1 2.536 1s2.692 1.237 3.638 2.75c.947 1.513 1.846 2.927 1.999 3.143.153.215.999-.206 1.88-.937 1.339-1.111 2.118-1.069 4.774.261 5.755 2.883 6.602 2.912 7.271.25.91-3.629-.033-5.104-3.738-5.845-1.822-.364-5.295-1.622-7.719-2.796-2.423-1.173-5.72-2.401-7.325-2.73-2.76-.564-3.717-2.751-1.075-2.459.805.089 1.042-.654.675-2.114-.694-2.768 1.481-3.821 6.104-2.953 1.92.36 3.527.164 3.924-.48.371-.6 1.153-1.09 1.737-1.09.686 0 .634.517-.144 1.455-1.036 1.248-.358 1.431 4.766 1.289 4.417-.122 5.844-.501 5.478-1.455-.51-1.328 1.302-1.773 5.622-1.383 1.321.12 2.75-.344 3.174-1.03 1.187-1.921 4.123.917 3.378 3.265-.434 1.367-.087 1.859 1.311 1.859 2.625 0 3.433-1.056 2.068-2.7-.785-.945-.824-1.71-.125-2.409 1.235-1.235 13.977-3.539 14.834-2.682 1.22 1.22-2.633 6.775-5.134 7.403-1.622.407-2.207.99-1.601 1.596.605.605 2.377.228 4.849-1.033 2.602-1.327 5.546-1.919 8.869-1.784 2.736.112 6.144-.357 7.575-1.042 2.16-1.035 2.975-.984 4.811.302 2.014 1.411 2.382 1.392 4.149-.206 1.753-1.587 2.9-.74 1.243.917-1.618 1.619-.968 3.815 1.397 4.714 2.196.835 2.456 1.39 1.916 4.088-.348 1.743-.144 3.7.462 4.431.597.72.895 2.118.661 3.107-.352 1.486-.613 1.345-1.506-.816-.594-1.437-1.76-2.874-2.59-3.192-.83-.319-1.672-2.068-1.873-3.887l-.364-3.307-1.179 2.75c-1.243 2.901-3.114 3.417-6.269 1.728-2.383-1.275-2.913.715-2.645 9.934l.186 6.411 10.367.089 10.368.088.303-6.75c.167-3.712-.111-6.75-.617-6.75-.507 0-.95-2.138-.985-4.75-.085-6.238-2.344-16.826-3.515-16.469-.507.155-1.002-.97-1.1-2.5-.102-1.584.044-1.988.341-.939.488 1.73.61 1.714 1.993-.26.86-1.228 1.199-2.966.815-4.178-.658-2.07-.664-2.071-2.815-.094-4.942 4.543-33.352 9.872-56.155 10.534-4.95.144-9.675.541-10.5.883-3.521 1.46-12.008 1.455-14.097-.008-1.702-1.192-2.278-1.231-2.916-.198-1.716 2.776-27.852 3.893-28.738 1.229-.581-1.749-8.881-1.653-9.557.11-.903 2.354-14.692 2.918-14.692.601 0-.443 1.642-1.348 3.649-2.01 2.914-.962 3.328-1.384 2.056-2.096-1.891-1.059-9.721-.239-11.123 1.163-2.513 2.513-3.548-2.771-1.158-5.912.863-1.135.621-1.255-1.307-.643-1.543.49-2.639.31-3.149-.516-.977-1.579-6.968.582-6.968 2.514 0 .67-1.146 1.74-2.547 2.378-3.258 1.485-3.453 1.465-3.453-.347 0-1.259-.332-1.302-2-.26-1.1.687-2 1.868-2 2.625 0 .932-.814 1.22-2.524.894-1.388-.266-2.752-.113-3.032.339-.279.453-1.147.577-1.928.278-.781-.3-1.939-.225-2.573.167-3.03 1.873-10.848 1.483-12.825-.639-1.081-1.16-2.48-1.791-3.109-1.402-.678.42-1.361-.125-1.678-1.338-.402-1.534-.947-1.828-2.183-1.174-.906.48-2.548 1.175-3.648 1.545-1.912.644-1.898.713.334 1.572 2.782 1.071 2.391 3.271-.662 3.721-1.195.175-2.172.862-2.172 1.526 0 .815-1.707 1.144-5.25 1.011-18.874-.709-29.201-1.453-29.688-2.14-.309-.435-2.137-.72-4.062-.632-1.925.087-4.076-.3-4.78-.86-.872-.694-2.03-.677-3.637.055-2.222 1.012-9.972.716-11.865-.454-.477-.295-4.096-.709-8.042-.919-3.947-.211-7.851-.553-8.676-.759-3.95-.989-8-2.947-8-3.868 0-.661-.472-.633-1.328.077-1.383 1.148-4.744.509-9.867-1.874-3.145-1.463-4.423-3.983-2.594-5.114 1.241-.766-1.452-3.752-3.461-3.837-1.537-.065-.676-1.591 1.436-2.545 1.202-.543 3.036-2.562 4.076-4.487 1.04-1.925 2.583-4.037 3.429-4.694.846-.657 2.149-2.371 2.895-3.808 1.261-2.431 1.218-2.571-.615-1.989-1.389.441-1.971.163-1.971-.942 0-.862.399-1.567.886-1.567s1.624-1.556 2.527-3.458c.902-1.901 2.078-3.728 2.614-4.059 1.151-.711 1.303-2.483.214-2.483-.418 0-1.316.891-1.996 1.98m201.803 35.969c-.799.506-1.802.703-2.23.439-1.078-.667-8.992 1.684-10.819 3.214-1.061.888-2.028.961-3.303.248-1.329-.744-2.488-.561-4.404.694-3.42 2.241-.857 3.978 4.576 3.102a360.71 360.71 0 015.632-.866c1.1-.154 2.302-.699 2.671-1.211.369-.512 2.53-1.021 4.803-1.131 3.774-.183 6.892-2.273 6.994-4.688.044-1.028-2.157-.916-3.92.199" fill="#d3d3d3" fill-rule="evenodd"/></svg>