<svg xmlns="http://www.w3.org/2000/svg" width="500" height="603"><path d="M276.229 26.749c-2.855.957-4.759 2.375-5.743 4.278-1.901 3.675-.964 6.37 1.902 5.473 5.641-1.766 6.269-1.629 11.523 2.524 6.058 4.788 8.794 9.968 9.712 18.385.459 4.209.291 5.591-.678 5.591-.708 0-2.097.732-3.086 1.628-2.848 2.577-7.787 2.812-7.141.341.586-2.239 0-2.423-2.851-.898-2.309 1.236-6.867-1.102-6.867-3.523 0-.773-.562-2-1.25-2.727-1.458-1.54-2.13-6.005-2.126-14.107.003-4.63-.284-5.675-1.439-5.232-1.466.563-1.419-.305.401-7.482.581-2.29.373-2.206-2.474 1-1.709 1.925-3.108 4.336-3.11 5.357-.001 1.221-.504 1.664-1.47 1.294-.807-.31-1.707-.176-2 .297-.293.474-2.242.632-4.331.352-5.158-.692-9.745 3.044-10.704 8.717-.693 4.102-1.413 4.62-4.313 3.101-4.443-2.326-19.39-2.252-16.029.08.913.633.542.73-1.155.302-2.004-.506-2.203-.407-1 .5 1.217.918 1.075 1.011-.755.497-1.638-.461-2.444-.138-2.948 1.184-.382 1-1.73 2.939-2.996 4.309-1.265 1.369-2.315 3.169-2.333 4-.026 1.22-.291 1.168-1.382-.269-1.202-1.586-1.416-1.606-1.961-.187-.336.876-1.044 1.325-1.574.998-.53-.328-2.605.09-4.611.929-3.075 1.284-3.562 1.3-3.103.102 1.122-2.922-18.996-9.128-22.523-6.948-.448.277-.814.047-.814-.511 0-.557-1.58-1.31-3.511-1.672-1.931-.362-3.758-1.058-4.059-1.545-.786-1.271-4.823-1.094-6.188.271-.857.857-1.508.866-2.509.035-.744-.617-2.609-1.025-4.145-.907-2.214.17-3.151-.443-4.522-2.956l-1.729-3.17-1.675 2.835c-.921 1.56-1.961 5.574-2.311 8.92-.522 4.993-.964 6.085-2.462 6.085-1.212 0-1.633.504-1.251 1.5.317.825.078 1.5-.531 1.5s-1.11.787-1.113 1.75c-.004.963-.693 3.067-1.533 4.678-.84 1.61-1.46 3.635-1.379 4.5.275 2.913-.107 3.58-1.184 2.072-.875-1.224-.988-1.114-.618.599.249 1.154-.537 3.74-1.748 5.746-1.954 3.238-2.106 4.346-1.354 9.851.467 3.411 1.189 6.45 1.606 6.753.416.303.793 2.779.837 5.501.045 2.773.586 5.119 1.23 5.334 1.36.453 1.56 3.216.232 3.216-.504 0-1.143-.562-1.421-1.25-.277-.687-.54 0-.583 1.528-.043 1.529-1.654 6.098-3.579 10.154-4.011 8.453-4.037 8.568-1.933 8.568 1.93 0 1.041 3.862-1.316 5.719-1.273 1.002-1.32 1.493-.265 2.764 1.242 1.497.964 7.878-.512 11.725-.408 1.061.006 1.779 1.203 2.089 1.078.278.559.518-1.272.587-5.539.208-7.839 4.844-5.053 10.184 2.521 4.831.813 10.877-2.874 10.173-2.971-.568-3.346 1.866-.984 6.395 1.735 3.326 1.927 5.364.506 5.364-.55 0-1 .612-1 1.36 0 .749-1.059 2.921-2.352 4.827-1.626 2.396-2.214 4.411-1.904 6.525.247 1.682-.058 4.006-.678 5.164-.882 1.649-.774 2.787.498 5.248 1.235 2.387 1.335 3.321.417 3.888-.914.565-.877.877.156 1.288.968.385 1.001.565.113.621-1.466.093-1.698 4.684-.281 5.56.576.356-.079 3.321-1.615 7.309-4.373 11.355-4.287 13.341.69 15.997 3.231 1.725 4.529 1.983 5.583 1.108 1.9-1.577 1.721-.498-.705 4.258-2.25 4.411-2.123 9.212.512 19.347 1.417 5.451 1.612 7.39 1.521 15.159-.033 2.837.414 5.451.993 5.809.578.357 1.052 1.498 1.052 2.534 0 1.037 1.013 2.594 2.25 3.461 2.04 1.429 2.228 2.286 2.013 9.194-.19 6.119.165 8.333 1.806 11.253 1.81 3.219 1.91 4.147.878 8.112-2.063 7.92-2.234 12.558-.579 15.614 1.307 2.412 1.57 2.548 1.668.864.08-1.37.523-.897 1.407 1.5 1.365 3.702 1.083 5.445-.482 2.971-.777-1.228-.933-1.177-.946.31-.008.98.715 2.062 1.607 2.404 1.361.522 1.518 1.647.972 6.969-.644 6.293-.628 6.346 1.878 6.346 1.603 0 2.528.56 2.528 1.531 0 .843.718 1.807 1.596 2.144 1.153.443 1.438 1.404 1.027 3.459-.468 2.34-.04 3.237 2.404 5.044 1.635 1.209 2.973 2.806 2.973 3.55 0 2.083 3.76 8.97 6.075 11.127 1.752 1.632 2.002 2.8 1.618 7.555-.361 4.463-.067 6.116 1.426 8.014 2.111 2.684 2.453 4.048.751 2.996-.691-.428-.935-.16-.627.691.276.764-.415 2.397-1.535 3.629-1.732 1.904-1.863 2.624-.873 4.797.641 1.406 1.175 4.898 1.187 7.76.016 3.619.618 5.964 1.978 7.703 1.076 1.375 1.966 2.984 1.978 3.576.012.591 1.147 2.132 2.522 3.424 1.375 1.292 2.5 2.945 2.5 3.674 0 .729.465 1.326 1.034 1.326 1.405 0 .109 10.189-1.462 11.5-1.497 1.25-3.965 5.981-5.348 10.255l-1.054 3.255 97.665-.255 97.665-.255.321-3.356c.239-2.497-.209-3.727-1.75-4.807-1.139-.798-2.071-2.1-2.071-2.894s-.474-1.443-1.053-1.443c-.65 0-.973-2.472-.843-6.462.122-3.78.603-6.219 1.159-5.875.575.355.683-.634.273-2.501-.599-2.728-.382-3.163 1.861-3.726 2.497-.626 2.532-.766 2.074-8.286-.284-4.665-.119-7.11.424-6.265 1.713 2.666 3.368-2.625 2.641-8.444-.515-4.117-.287-5.892 1.01-7.871.921-1.405 1.416-3.226 1.101-4.047-.334-.871.212-1.912 1.31-2.5 3.525-1.887 5.075-14.012 5.117-40.023.005-3.306.225-3.969.827-2.5.667 1.627.963 1.168 1.583-2.459.518-3.029.402-4.579-.361-4.833-1.995-.665-1.19-2.038.877-1.498 1.987.52 2.845-1.531 1.291-3.086-.39-.39-.58-2.505-.421-4.7.188-2.608-.397-5.152-1.688-7.34-1.983-3.361-3.862-15.584-2.396-15.584 1.503 0 4.207-5.825 5.172-11.142l.973-5.358-.405 5.862-.405 5.862 2.44-3.306 2.479-3.362c.104-.146 3.005-15.212 3.139-16.306.085-.687.546-1.25 1.026-1.25.978 0 .661-5.221-.364-6.003-.363-.277.214-1.581 1.281-2.899 1.772-2.189 2.045-2.251 3.162-.724 1.14 1.559 1.563 1.56 6.22.024 5.768-1.903 9.687-5.035 7.78-6.219-.938-.583-.881-1.402.25-3.581 1.986-3.828 1.853-4.493-.784-3.936-1.989.42-2.046.345-.492-.647.967-.618 2.147-.883 2.622-.589 1.33.822 2.214-6.608.965-8.113-.599-.722-1.484-1.313-1.965-1.313-.482 0-2.545-1.575-4.586-3.5-2.305-2.174-4.708-3.5-6.344-3.5-2.564 0-2.615-.121-1.934-4.603.384-2.531 1.162-4.894 1.729-5.25 3.519-2.21 4.023-7.562 1.343-14.252-1.457-3.639-3.133-6.38-3.771-6.167-.631.21-1.441-.543-1.8-1.673-.358-1.13-1.296-2.055-2.084-2.055s-1.433-.9-1.433-2c0-1.943.063-1.938 2.188.188 3.037 3.037 3.709.517.882-3.307-1.255-1.698-1.838-3.439-1.391-4.152.424-.676.646-1.992.492-2.925-.153-.933.358-2.958 1.135-4.5.777-1.542 1.726-4.104 2.108-5.694.677-2.817.61-2.876-2.655-2.346-3.344.543-3.351.536-4.621-4.927-1.256-5.405-.563-8.337 1.973-8.337 1.368 0 4.889-3.323 4.889-4.614 0-.643-1.122-1.451-2.494-1.795-1.372-.344-2.384-1.181-2.25-1.859.142-.717-.591-1.11-1.756-.94-1.498.218-1.658.06-.637-.629 1.104-.745 1.114-1.004.056-1.357-.736-.245-1.903-3.684-2.671-7.871-1.681-9.161-1.659-8.791-.755-12.435.721-2.906.692-2.938-.926-1-1.652 1.978-1.664 1.975-1.051-.25.34-1.238.191-2.25-.332-2.25-1.422 0-2.278-4.324-1.011-5.107 1.314-.812.383-5.194-1.505-7.082-.731-.731-1.138-1.902-.904-2.604.234-.701-.034-1.828-.596-2.504-.561-.677-1.213-3.024-1.447-5.217-.235-2.192-1.425-7.291-2.645-11.331-2.554-8.461-2.23-10.662 1.433-9.742 1.671.419 2.496.208 2.506-.644.011-.876.325-.804 1.015.231.7 1.052.804.215.349-2.799-.545-3.605-.305-4.621 1.485-6.289 1.175-1.095 2.136-2.422 2.136-2.951 0-.529.675-.961 1.5-.961 2.155 0 1.848-3.375-.5-5.5-1.799-1.628-2-1.643-2-.155 0 2.676-1.544 1.893-1.775-.9-.123-1.481.206-2.297.782-1.941.565.35 1.007-.596 1.025-2.195.042-3.769 2.29-6.516 5.138-6.28 3.92.324 4.83.032 4.83-1.548 0-1.118-.726-1.38-2.75-.994-1.512.289-2.185.259-1.494-.066 1.544-.727.646-2.421-1.284-2.421-.902 0-1.18.597-.772 1.661.501 1.306.189 1.543-1.467 1.11-1.157-.302-3.033.101-4.168.896-2.222 1.556-2.84.508-.865-1.467.933-.933.922-1.2-.049-1.2-.687 0-2.022 1.728-2.968 3.839-2.595 5.798-4.521 7.363-7.613 6.187-1.414-.537-2.57-.673-2.57-.301 0 .371-.54.135-1.2-.525-.66-.66-2.042-1.2-3.071-1.2-1.783 0-1.789-.083-.122-1.75 1.619-1.619 1.625-1.774.072-2.073-.924-.178-1.679-.741-1.679-1.25 0-1.528-3.536-4.582-4.812-4.156-.654.218-1.191-.204-1.195-.938-.004-.733-1.569-2.397-3.478-3.697-4.096-2.789-8.515-2.339-8.515.868 0 1.953-.035 1.953-5.037-.019-2.77-1.092-6.093-1.985-7.383-1.985-2.304 0-2.321-.072-.952-4.046 1.484-4.307.376-8.693-1.848-7.318-.735.454-.895.107-.467-1.01 1.147-2.989-2.272-3.182-4.774-.269-2.839 3.304-3.836 3.39-2.386.206 2.524-5.54-7.783-16.503-19.153-20.374-4.974-1.693-5.908-1.735-9.771-.44m-25.147 17.158c-3.6 2.332-2.792 15.94 1.119 18.865.935.7 2.366 1.938 3.178 2.75 2.451 2.45 5.252 1.784 6.645-1.581 1.838-4.436-.407-13.71-3.422-14.141-1.602-.229-2.102-1.013-2.102-3.3 0-3.203-2.575-4.435-5.418-2.593M224 55.964c-.825.504-2.731 1.176-4.235 1.492-2.985.627-4.406 3.878-3.408 7.794.517 2.032 1.615 3.353 7.437 8.956.975.939 4.44 2.401 7.7 3.25C238.48 79.276 239 79.314 239 78c0-.55-1.575-1-3.5-1s-3.5-.373-3.5-.829c0-1.937 6.173-9.929 8.483-10.981 3.175-1.447 3.215-4.186.103-7.109-2.639-2.48-13.687-3.89-16.586-2.117m25.866 14.216c-.074.726-.058 3.345.035 5.82.168 4.433.144 4.469-1.635 2.423-1.942-2.233-4.266-2.146-4.266.16 0 .78-.338 1.346-.75 1.258-1.46-.309-4.231 1.381-3.692 2.252.3.486-.04.669-.756.406-1.928-.708-3.955.938-3.29 2.671.319.831 2.021 2.205 3.784 3.053l3.204 1.543-2.719 1.263c-1.495.695-2.481 1.648-2.191 2.117 1.031 1.668 4.97.818 7.627-1.646 1.482-1.375 3.11-2.5 3.617-2.5.507 0 1.481-.675 2.166-1.5 1.467-1.768-.06-2.04-1.783-.317-.651.651-1.484.883-1.852.515-.868-.868 3.129-4.717 7.885-7.594 2.063-1.247 3.75-2.68 3.75-3.186 0-.505.702-.918 1.559-.918s1.276-.457.931-1.016c-.346-.559-.996-.789-1.446-.511-.449.278-1.373-.165-2.053-.984-.68-.819-1.856-1.489-2.613-1.489-.758 0-1.265-.552-1.128-1.226.137-.675-.762-1.381-2-1.57-1.328-.202-2.305.198-2.384.976M183 74.584c-2.821.68-4.621 1.706-4.823 2.75-.178.916-.741 1.666-1.25 1.666-.51 0-.927 1.098-.927 2.441 0 1.343-.45 2.719-1 3.059-.55.34-1 1.068-1 1.618s.422.739.939.42c.516-.319 1.337.133 1.824 1.004.488.871 1.729 1.707 2.758 1.858 1.407.207 3.979 2.938 3.979 4.226 0 .069.953.418 2.118.775 1.907.585 2.183.16 2.77-4.266.631-4.759 3.694-10.135 5.774-10.135 1.044 0 4.745-3.976 4.805-5.161.059-1.185-11.351-1.367-15.967-.255m23.722 8.551C203.125 85.819 201 90.009 201 94.419c0 2.76.332 3.391 1.543 2.926.849-.326 1.296-.839.994-1.142-.646-.645 6.292-7.203 7.621-7.203.498 0 2.496-.664 4.439-1.476l3.533-1.476-1.815-2.493c-2.276-3.125-6.729-3.302-10.593-.42m56.778.595c-3.459.861-9.827 5.003-14.771 9.608l-4.764 4.436 2.715.682c2.193.55 2.437.879 1.268 1.707-1.165.825-1.095.912.354.443 1.045-.338 1.548-.172 1.198.394-.35.566.153.732 1.198.394 1.534-.496 1.579-.41.302.577-1.241.96-1.13 1.057.645.561 1.275-.357 2.746.002 3.631.886 1.659 1.66 2.724 1.101 2.724-1.432 0-1.716 3.166-5.986 4.439-5.986.966 0 2.853-1.979 4.96-5.199.97-1.485 3.303-3.208 5.183-3.828 7.769-2.564-.274-5.436-9.082-3.243m49.111 11.892c.396 3.307.219 5.365-.499 5.809-.612.378-1.112 1.646-1.112 2.819 0 2.09-.029 2.093-1.468.191-.808-1.067-1.483-1.411-1.5-.762-.018.648.643 1.853 1.468 2.678s1.5 2.207 1.5 3.072c0 .864.456 1.571 1.014 1.571.578 0 .787-1.291.486-3-.408-2.318-.16-3 1.094-3 1.195 0 1.47.608 1.045 2.304-.577 2.296 1.364 4.858 4.47 5.904 2.018.678 3.811-2.228 2.877-4.662-.432-1.125-1.274-3.876-1.871-6.112s-2.667-5.836-4.601-8l-3.515-3.934.612 5.122m-62.083 15.128c1.725 4.068 1.077 5.615-2.739 6.535-8.137 1.963-4.862 8.706 3.8 7.826 1.425-.145 3.812-5.126 3.52-7.343-.126-.953.21-2.516.746-3.474 1.414-2.527-.414-5.294-3.497-5.294-2.066 0-2.426.345-1.83 1.75m-35.553 9c-.537 1.513-1.336 3.425-1.777 4.25-1.536 2.876-.253 5.231 2.476 4.546 1.606-.403 2.265-.256 1.851.414-.354.572.085 1.04.975 1.04s1.34.45 1 1c-.34.55-.164 1 .391 1s1.426-.745 1.936-1.654c1.079-1.93 11.862-.378 15.608 2.246 1.106.774 2.922 1.372 4.038 1.329 1.457-.057 1.605-.24.527-.652-.825-.315-4.2-3.258-7.5-6.54-9.413-9.362-17.637-12.302-19.525-6.979M356 127.09c0 .566-.385.79-.856.499-.47-.291-.703.695-.518 2.191l.337 2.72-.882-2.5c-.485-1.375-.926-1.974-.981-1.332-.055.643-.401 1.954-.77 2.914-.464 1.209-.301 1.518.527 1.006 1.064-.657 1.129 4.99.202 17.721-.033.445-.621.458-1.309.028-1.87-1.168-3.672-1.272-4.305-.248-.31.501-.034.911.613.911.683 0 .956.838.652 2-.568 2.175.014 2.46 2.199 1.077.775-.49 2.093-.63 2.927-.31 1.244.478 1.171.719-.409 1.338-1.577.617-1.623.767-.255.825 1.012.042 2.172 1.552 2.936 3.82l1.263 3.75.702-3.32c.787-3.715.155-7.299-1.485-8.43-.715-.493-.745-1.007-.088-1.5.55-.412 1-3.626 1-7.141 0-6.384.118-6.623 4.341-8.784.188-.096.009-1.221-.398-2.5-.709-2.232-.77-2.245-1.521-.325-.642 1.643-.794 1.438-.852-1.143-.062-2.778-3.07-5.979-3.07-3.267m-72.483.883c-.331.536-2.124 1.696-3.984 2.578-3.103 1.473-3.335 1.892-2.817 5.084.485 2.991.253 3.56-1.653 4.059-3.305.864-6.079 11.306-3.004 11.306.582 0 .8-.419.484-.931-.317-.512-.118-1.213.441-1.559.559-.345 1.016-.125 1.016.49s.39.877.866.583c.477-.295 1.672.354 2.655 1.441.984 1.087 2.415 1.976 3.18 1.976.978 0 1.376 1.263 1.342 4.25-.085 7.271-.003 7.415 4.874 8.547 2.521.584 5.301 1.341 6.179 1.681 2.118.82 5.758-8.024 4.019-9.763-.613-.613-1.118-2.038-1.121-3.165-.004-1.128-.706-3.392-1.562-5.033-.932-1.789-1.465-4.993-1.33-8 .376-8.376-6.646-18.299-9.585-13.544m-114.729 11.799c-3.925 4.209-5.052 7.121-5 12.914.044 4.89.405 5.705 4.365 9.861 5.057 5.306 8.564 5.806 8.018 1.144-.181-1.545.443-4.956 1.386-7.58 1.684-4.682 1.491-13.89-.349-16.716-1.691-2.596-5.82-2.411-8.42.377m135.714 23.211c-.474 3.447-.308 5.546.518 6.541.668.805.998 2.601.733 3.99-.462 2.415-.325 2.496 3.132 1.849 3.206-.6 3.468-.499 2.316.891-.872 1.054-.954 1.781-.25 2.216.577.356 1.049-.054 1.049-.911 0-2.238 2.18-1.926 6.36.911 2.633 1.786 3.64 2.079 3.64 1.059 0-.776-.45-1.689-1-2.029-.55-.34-1.03-1.379-1.066-2.309-.097-2.456-5.779-9.899-10.584-13.862l-4.149-3.422-.699 5.076M77.25 474.756L0 475.012v86.992l250.25-.252 250.25-.252.261-43.804.26-43.804-173.26.304c-95.294.167-208.023.419-250.511.56" fill="#d3d3d3" fill-rule="evenodd"/></svg>