<svg xmlns="http://www.w3.org/2000/svg" width="500" height="357"><path d="M.016 117.982c.029 75.96.391 117.884 1.015 117.499.533-.329.969-1.472.969-2.54 0-1.274.687-1.941 2-1.941 1.1 0 2-.41 2-.912s-1.125-.788-2.5-.637c-1.578.173-2.5-.229-2.5-1.089 0-.863 1.189-1.374 3.25-1.394 3.386-.033 7.25-2.251 7.25-4.161 0-.609 1.102-1.276 2.448-1.481 2.607-.398 6.339-3.705 5.325-4.72-.333-.333.144-.606 1.06-.606.991 0 1.667-.798 1.667-1.969 0-1.339-.48-1.784-1.5-1.393-1.041.4-1.5-.069-1.5-1.531 0-1.206.641-2.107 1.5-2.107.825 0 1.5.429 1.5.954 0 1.334 7.242.272 8.149-1.195 1.104-1.787.301-2.057-1.948-.653-2.166 1.353-5.185-.547-5.216-3.285-.012-.991-.248-.953-.946.15-.512.809-1.067 1.259-1.235 1-2.453-3.796-2.974-5.414-1.863-5.785.667-.222 2.498-1.66 4.069-3.196 1.57-1.535 3.1-2.546 3.399-2.247.299.299.828-.196 1.174-1.1.347-.904 1.059-1.643 1.583-1.643s.627.526.229 1.17c-.486.787-.178.961.941.531 1.251-.48 1.664-.074 1.664 1.635 0 1.95.575 2.307 4.043 2.512 2.424.143 4.827 1.022 6 2.195 2.317 2.317 4.411 2.583 3.595.457-.316-.825-.477-1.517-.357-1.538 5.412-.935 7.719-.948 7.719-.044 0 .595.948 1.082 2.107 1.082 1.462 0 1.931.459 1.531 1.5-.316.825-.252 1.493.143 1.485 1.342-.029 3.391-1.705 3.054-2.497-.184-.434.661-.941 1.879-1.127 1.559-.238 2.057.073 1.681 1.051-.308.803.054 1.325.859 1.238 1.417-.153 10.426 7.493 25.743 21.85 4.694 4.4 13.478 12.5 19.519 18 6.041 5.5 13.241 12.25 15.999 15 2.758 2.75 11.308 10.9 19 18.11 7.692 7.211 16.91 15.865 20.485 19.232l6.5 6.122 9 .038c4.95.021 11.925.446 15.5.944 3.575.499 17.525 1.026 31 1.172l24.5.264 12.97-7.155c8.611-4.75 13.666-6.98 15.044-6.634 1.884.473 5.986-2.575 5.986-4.448 0-.355.9-.531 2-.392 1.669.211 1.752.076.5-.815-1.167-.831-.944-.929 1-.438 1.732.437 2.079.34 1.13-.317-1.034-.717-.482-1.242 2.259-2.147 1.996-.658 4.188-1.738 4.87-2.399 2.819-2.732 8.007-5.872 11.125-6.733 1.829-.505 4.36-1.815 5.624-2.911 1.264-1.096 2.981-1.993 3.816-1.993s2.293-.7 3.239-1.557c.946-.856 2.911-1.683 4.367-1.839 1.456-.155 3.17-.804 3.809-1.443.639-.639 1.859-1.193 2.711-1.231 1.099-.05.968-.321-.45-.93-1.908-.82-1.897-.863.25-.93 1.238-.038 2.25-.703 2.25-1.476 0-.914.7-1.224 2-.884 1.391.364 2 .031 2-1.093 0-1.476 1.18-2.083 3.324-1.711.454.079.54-.318.191-.881-.348-.564.031-1.025.843-1.025.811 0 1.625-.351 1.809-.781.567-1.328 20.873-12.512 21.528-11.857.34.34-.567 1.717-2.015 3.059-2.278 2.111-2.401 2.502-.907 2.894 1.507.395 1.517.468.084.569-.904.064-1.904.797-2.223 1.628-.709 1.847 2.5 1.224 7.914-1.537 4.681-2.386 6.552-4.004 5.882-5.088-.301-.488.401-.887 1.561-.887 2.871 0 7.63-2.57 8.381-4.526.338-.881 1.068-1.32 1.623-.977.555.343 1.465-.578 2.023-2.046.812-2.133 1.295-2.436 2.41-1.511.955.793 1.598.827 2.042.109.956-1.547-.308-3.049-2.564-3.049-1.666 0-1.809-.314-.906-2 1.237-2.312 3.498-2.74 2.638-.5-.776 2.022 1.768 1.935 4.983-.171 2.173-1.424 2.683-1.461 3.449-.25.739 1.167.902 1.119.915-.27.022-2.462-1.343-2.929-4.921-1.681-4.252 1.482-4.969.47-1.052-1.484 1.795-.895 4.317-1.328 5.898-1.012 1.833.367 3.321-.006 4.423-1.108 1.03-1.03 2.422-1.419 3.664-1.025 1.15.365 2.003.181 2.003-.432 0-.587.9-1.067 2-1.067 1.79 0 2.468-1.039 2.118-3.25-.065-.412.557-.75 1.382-.75.825 0 1.5.45 1.5 1s.408 1 .906 1c.499 0 .685-1.012.414-2.25-.354-1.616-.225-1.872.459-.908.675.95 1.503 1.064 2.837.388a810.758 810.758 0 017.836-3.842c3.273-1.588 7.654-4.5 9.736-6.47l3.784-3.582-.397-10.144c-.257-6.539.084-12.017.958-15.418 1.914-7.442 2.322-13.251 1.053-14.987-1.33-1.819-2.66-2.241-3.474-1.102-.985 1.377-6.004 3.315-8.588 3.315-1.309 0-3.015.634-3.79 1.409-.775.775-1.959 1.07-2.631.654-1.224-.756 2.657-4.063 4.768-4.063 3.78 0-4.348-8.603-13.148-13.916-2.077-1.254-4.327-2.799-5-3.434-2.498-2.356-9.731-6.65-11.202-6.65-2.504 0-1.719-1.912 1.074-2.613 1.917-.481 2.244-.874 1.25-1.504-.922-.584-.43-.857 1.56-.868 2.806-.014 2.846-.08 1.158-1.945-1.219-1.348-3.606-2.1-7.905-2.49-11.04-1.004-22.054-1.837-27.265-2.064-2.809-.122-5.633-.546-6.275-.943-.642-.397-2.626-.596-4.407-.443-1.782.154-3.683.016-4.225-.305-.542-.321-2.681-.473-4.754-.337-2.072.136-5.897-.196-8.5-.738-2.602-.543-7.657-1.099-11.232-1.236-16.341-.63-24.14-1.385-25.44-2.464-.868-.721-2.876-.926-5.234-.535-2.944.488-3.48.377-2.326-.482 1.333-.992 1.333-1.094 0-.912-.825.113-2.625-.081-4-.43-4.894-1.242-8.999-1.502-9.554-.603-.31.502-.087.912.495.912s1.059.358 1.059.796c0 .712-1.34.774-7.219.333-2.204-.165-1.214-3.104 1.076-3.192 1.131-.044.943-.345-.607-.968-1.237-.498-2.25-1.324-2.25-1.837 0-.514-1.642-1.322-3.65-1.796-4.922-1.165-6.198-3.335-3.816-6.493 1.663-2.205 2.409-2.402 7.657-2.023 6.163.446 8.618-.598 8.418-3.579-.134-1.996-5.408-7.867-6.729-7.491-2.015.573-.672-2.736 1.87-4.608 3.3-2.43 2.469-4.765-2.544-7.142-1.74-.825-3.172-2.078-3.184-2.785-.017-.962.465-1.025 1.912-.25 5.446 2.914 5.245-1.918-.249-5.988-4.167-3.087-5.66-3.278-11.423-1.457-1.646.52-2.417.239-2.917-1.062-.807-2.104 2.809-5.458 5.884-5.458 1.896 0 1.863-.19-.587-3.402-2.876-3.771-2.258-4.598 3.44-4.598 2.241 0 2.918-.459 2.918-1.98 0-2.677-7.294-6.411-11.055-5.659-3.319.664-7.473-2.936-8.433-7.308-.945-4.3-10.197-11.44-16.443-12.689l-3.381-.676.668 3.34c1.066 5.33 4.066 7.698 11.935 9.42 4.026.881 2.552 2.174-3.263 2.862-4.639.55-10.058-.995-12.027-3.429-.78-.964-10.808-5.881-11.993-5.881-.621 0-.372 1.33.601 3.211 1.425 2.756 1.488 3.885.445 7.957-1.723 6.722.43 12.335 3.692 9.628 1.93-1.602 6.254.62 6.254 3.214 0 2.201-.552 2.512-6.08 3.426-2.003.33-6.37 2.663-9.911 5.295l-6.329 4.704 3.78 1.667c2.079.918 4.063 2.125 4.41 2.683.412.665 2.158.499 5.051-.48 5.581-1.888 10.428-.786 10.899 2.478.251 1.743-.177 2.218-2 2.221-2.673.004-8.82 3.476-8.82 4.981 0 .558.648 1.015 1.441 1.015 2.608 0 2.729 1.985.18 2.954-4.08 1.551-5.066 4.525-2.137 6.444 1.345.881 3.163 1.602 4.04 1.602.95 0 1.306.466.881 1.155-.443.715-.275.883.44.44.635-.392 1.155-.188 1.155.453 0 .643.696.899 1.552.57.88-.337 1.29-.172.948.382-.332.537-.017.752.7.477.717-.276 1.896.448 2.62 1.607 1.512 2.42-.6 5.762-3.662 5.797-4.352.049-11.06 1.469-10.584 2.239.294.475.119 1.607-.389 2.514-1.255 2.242-.27 5.613 1.446 4.954.753-.289 1.369-.041 1.369.55 0 .592.675.817 1.5.5 2.249-.863 1.807 1.127-.528 2.377-1.115.597-1.793 1.466-1.506 1.93.287.465-.203 1.124-1.089 1.464-1.337.513-1.143.988 1.14 2.783 2.566 2.019 2.622 2.213.818 2.88-3.789 1.402-19.048 2.201-19.768 1.036-.377-.609-.208-1.108.374-1.108s1.059-.459 1.059-1.019c0-.571-1.036-.759-2.356-.428-2.505.629-6.13-1.957-5.094-3.634.312-.505.076-.919-.526-.919-.784 0-.791-.566-.024-2 1.265-2.363.566-3.936-4.377-9.853-3.051-3.651-5.515-9.589-4.43-10.673.211-.211 2.166.251 4.345 1.027 6.356 2.264 6.659 1.8 2.449-3.751l-3.983-5.25 2.748-.506c4.016-.741 4.118-4.085.223-7.361-1.72-1.448-4.008-2.633-5.083-2.633-2.579 0-3.559-2.762-1.655-4.665 1.52-1.521 5.763-.118 5.763 1.906 0 1.545 4.066 4.759 6.021 4.759 1.158 0 2.484-1.015 3.104-2.375.962-2.111.59-2.888-3.35-7-2.834-2.957-5.305-4.636-6.854-4.657-1.331-.017-3.216-.635-4.187-1.372-1.617-1.227-1.51-1.391 1.275-1.948 1.754-.351 3.354-1.454 3.78-2.607.676-1.826.971-1.878 3.431-.602 3.746 1.944 7.043.976 6.173-1.813-.839-2.691-1.884-3.386-7.16-4.761-2.347-.611-4.511-1.506-4.809-1.988-.298-.482-1.64-.877-2.983-.877-1.343 0-2.441-.36-2.441-.8 0-1.661 2.501-3.2 5.2-3.2 2.757 0 3.248-.919 3.069-5.75-.026-.687.755-1.25 1.735-1.25 2.309 0 3.269-2.529 1.513-3.986-.75-.622-3.456-1.667-6.014-2.323-5.313-1.361-5.92-2.628-2.151-4.491 3.14-1.553 3.767-9.226.736-9.001-3.655.271-4.967-.319-5.268-2.371-.455-3.092-2.632-3.425-3.363-.513-.436 1.738-1.139 2.319-2.404 1.988-2.826-.738-3.288 4.142-.665 7.022 1.31 1.439 2.162 3.795 2.245 6.208.073 2.139.635 4.056 1.25 4.261.614.205 1.117.791 1.117 1.303 0 .511-1.636.246-3.636-.589-3.581-1.497-3.68-1.474-6.509 1.486-1.58 1.653-2.386 3.006-1.792 3.006.594 0 1.736.656 2.537 1.458.802.801 2.062 1.225 2.8.942.738-.283 1.611.186 1.94 1.043.328.856 1.297 1.557 2.153 1.557 2.287 0 3.949 4.928 2.149 6.374-2.437 1.958-2.975 6.656-.938 8.201 1.668 1.264 1.673 1.364.069 1.393-.95.018-2.494 1.269-3.432 2.782-.938 1.513-2.682 3.875-3.877 5.25-3.064 3.529-3.501 5.374-1.971 8.324 1.126 2.171 1.114 2.757-.079 3.747-1.937 1.608-1.776 3.199.634 6.263l2.048 2.604-2.706.679c-2.481.623-2.56.786-.951 1.962 1.651 1.208 1.631 1.36-.342 2.593-2.383 1.488-2.841 3.051-.647 2.209.981-.377 1.955.652 3.012 3.182 1.479 3.541 1.438 4.046-.787 9.584-1.292 3.215-2.648 5.547-3.012 5.183-.365-.365-.663-.175-.663.422 0 .596-.258 1.756-.572 2.576-.347.905.144 1.723 1.25 2.08 2.981.963 4.745 5.769 2.576 7.018-1.523.877-1.37 1.08 1.164 1.542 5.283.963 3.912 2.679-3.136 3.922L155 135.588c-4.675.825-11.2 1.946-14.5 2.49-3.3.545-8.475 2.156-11.5 3.581-3.025 1.425-6.625 2.953-8 3.397-1.375.443-6.075 2.175-10.445 3.847-4.37 1.672-8.151 2.834-8.403 2.582-.253-.252 1.298-1.156 3.444-2.007 2.147-.852 5.753-2.433 8.014-3.513 2.26-1.081 4.631-1.965 5.269-1.965.639 0 2.902-1.099 5.031-2.443 2.129-1.344 4.217-2.131 4.64-1.75.424.381.45.136.058-.546-.495-.861-.19-1.038 1.004-.58.95.365 1.462.248 1.148-.261-.313-.506.401-.974 1.585-1.04 1.185-.065 5.103-1.021 8.706-2.122 3.603-1.102 8.778-2.291 11.5-2.642 6.064-.783 12.405-2.238 13.195-3.029.896-.896-1.46-.712-10.746.84-4.675.781-11.266 1.624-14.646 1.873-6.912.51-8.735 1.266-7.954 3.301.296.77.139 1.399-.348 1.399s-1.068-.547-1.291-1.216c-.287-.862-2.133-.445-6.333 1.431-3.26 1.456-7.728 3.292-9.928 4.08-11.346 4.064-18.625 6.889-21.169 8.216-1.557.812-3.528 1.479-4.381 1.483-.852.003-1.977.406-2.5.895-.522.489-5.891 2.545-11.93 4.569s-11.625 4.211-12.413 4.861c-1.107.913-1.528.898-1.853-.069-.231-.688-1.171-1.243-2.087-1.235-1.45.014-1.472.152-.167 1.061 1.105.77.579.87-2 .379-1.925-.366-3.888-1.029-4.363-1.473-1.095-1.025.185-3.21 1.431-2.44.511.316.817-.464.681-1.734-.176-1.628.219-2.232 1.338-2.052.875.142 2.088-.845 2.706-2.202 1.312-2.879 5.186-5.086 10.742-6.121 2.181-.406 5.644-1.795 7.695-3.086 2.052-1.291 4.639-2.347 5.75-2.347 1.111 0 2.02-.477 2.02-1.059s-.399-.813-.886-.512c-.487.301-1.093-.54-1.348-1.87-.372-1.948.044-2.548 2.136-3.084 2.534-.649 2.494-.715-1.645-2.678-2.333-1.106-3.991-2.419-3.683-2.916.307-.498-.821-1.18-2.508-1.518-1.686-.337-3.073-1.119-3.081-1.738-.01-.681-.347-.602-.855.199-.693 1.092-1.083 1.083-2.235-.056-.767-.759-2.282-1.716-3.367-2.128-1.621-.614-1.716-.906-.534-1.637.792-.489 1.904-.525 2.472-.08 1.572 1.229 6.515 1.917 7.09.987.279-.453 1.169-.569 1.976-.259 1.097.42 1.468-.223 1.468-2.544 0-1.709-.45-3.107-1-3.107s-1-.408-1-.906c0-.499 1.013-.719 2.25-.489 1.237.229 1.688.15 1-.177-.687-.327-1.25-1.682-1.25-3.011 0-1.33-.505-2.417-1.122-2.417-.807 0-.794-.397.048-1.411.745-.897.812-1.633.184-2.021-.543-.336-.824-1.457-.625-2.492.233-1.208-.327-2.063-1.561-2.386-1.862-.487-2.437.682-1.999 4.06.09.688-.342 1.25-.958 1.25-.681 0-.996-1.439-.804-3.67.196-2.276-.155-3.827-.923-4.083-.682-.228-1.24.129-1.24.792 0 .94-.321.94-1.455-.002-1.8-1.494.148-5.369 2.287-4.548.766.294 1.16-.02.923-.738-.226-.688-1.501-1.402-2.833-1.586-1.332-.184-2.849-.746-3.372-1.25-1.586-1.528-2.3-1.06-3.565 2.335l-1.21 3.25-.903-3.201c-.497-1.76-1.423-3.522-2.058-3.914-.768-.475-.941-.157-.515.951.795 2.072-.631 2.174-2.299.164-.685-.825-2.315-1.5-3.622-1.5C50.07 89 49 88.495 49 87.878c0-.819-.359-.825-1.324-.024-.728.604-2.416.862-3.75.573-1.334-.289-6.476-.761-11.426-1.048-4.95-.287-9.675-.775-10.5-1.085-.825-.31-3.075-.677-5-.817-1.925-.14-4.149-.304-4.941-.365-1.065-.083-.934-.495.5-1.58 1.067-.808 1.417-1.483.777-1.5-.788-.022-1.142-2.545-1.099-7.817.035-4.338-.476-8.794-1.156-10.063-.67-1.253-1.442-5.287-1.715-8.965-.273-3.678-.678-7.249-.9-7.937-.222-.687.258-1.25 1.065-1.25 1.318 0 1.969 2.367 1.561 5.675-.08.646.317 1.46.881 1.809.565.349 1.027.157 1.027-.425S14.152 52 15.56 52c3.623 0 3.319-7.304-.325-7.821-1.245-.177-2.006-.74-1.691-1.25 1.032-1.669-.789-.974-2.152.821-1.162 1.531-1.334 1.124-1.376-3.25-.036-3.845-.296-4.654-1.126-3.5-.91 1.266-.991 1.227-.516-.25.407-1.265.017-1.75-1.405-1.75-2.529 0-2.483-.824.205-3.686C8.42 29.988 8.822 29 8.115 29c-.678 0-.925-.498-.549-1.107.465-.752-.027-.881-1.533-.404-1.805.573-2.147.361-1.839-1.142.208-1.016 1.037-1.741 1.842-1.611 1.099.178 1.464-.858 1.464-4.154 0-2.415-.275-3.946-.611-3.402-.336.544-.857.051-1.156-1.094-.597-2.281.785-3.869 1.603-1.842.316.786.536.628.585-.423.043-.923.786-2.385 1.65-3.25.865-.864 1.104-1.571.532-1.571-.572 0-.781-.675-.465-1.5.317-.825.173-1.5-.32-1.5s-.879-1.238-.857-2.75C8.497.721 8.158.475 4.235.192L-.03-.116l.046 118.098M239.25 42.496c-.687.781-1.25 1.777-1.25 2.214 0 1.022 7.668 5.009 11.276 5.863 2.889.684 5.26 3.751 4.211 5.448-.951 1.539.153 1.163 3.734-1.271 3.171-2.156 3.888-4.863 1.859-7.023-.688-.733-16.997-6.769-18.072-6.689-.279.021-1.07.677-1.758 1.458M251 90.917c0 .504.563 1.143 1.25 1.421.721.291.479.538-.571.583-1.002.043-2.478.735-3.279 1.537-.802.801-2.198 1.173-3.103.826-1.237-.475-1.485-.217-1.002 1.042.748 1.95-.367 2.202-2.095.474-1.673-1.673-3.465.296-3.035 3.335.415 2.93 2.228 3.112 2.635.263.404-2.826 4.725-2.053 6.876 1.23 1.725 2.633 3.947 2.975 6.539 1.005 1.306-.991 1.437-1.581.55-2.468S254.887 99 255.8 99c.691 0 1.2-1.4 1.2-3.3 0-1.815-.54-3.84-1.2-4.5-1.41-1.41-4.8-1.61-4.8-.283M116.032 185.89c-.018.764.755 1.987 1.718 2.718 1.58 1.2 1.459 1.333-1.25 1.376-7.109.111-6.564 2.016 1.695 5.921 3.015 1.426 4.509 2.702 4.177 3.567-.307.801.424 1.645 1.806 2.081 1.277.404 2.91 1.569 3.629 2.59.718 1.022 1.956 1.857 2.75 1.857s1.443.45 1.443 1 .69 1 1.533 1c.844 0 3.069 1.536 4.946 3.412 1.877 1.877 3.558 2.977 3.736 2.443.178-.533 1.114-.666 2.08-.295 1.202.461 1.451 1.041.788 1.84-.533.642-.601 1.763-.151 2.49.573.927 1.023.992 1.502.217 1.186-1.919 2.566-1.203 2.566 1.331 0 2.034.452 2.407 2.724 2.25 1.793-.124 2.766.324 2.848 1.312.249 3.021.458 3.22 2.025 1.92 1.351-1.122 1.753-1.045 2.617.497.759 1.357 1.217 1.504 1.791.575.424-.687 1.279-.934 1.9-.551.62.383.888 1.085.595 1.559-.648 1.049 3.778 6 5.365 6 1.561 0 1.429-1.726-.208-2.7-2.795-1.665-5.122-6.395-3.607-7.331 1.617-1 1.565-1.065-3.05-3.85-3.586-2.163-2.222-2.914 2.223-1.224 2.1.798 2.468.528 3.416-2.5.584-1.867.68-3.395.212-3.395-.468 0-.851.536-.851 1.191s-.61.357-1.355-.662c-.826-1.129-1.995-1.609-2.99-1.227-1.173.45-1.811-.077-2.261-1.869-.589-2.348-.713-2.39-2.073-.715-1.048 1.291-1.59 1.437-1.967.532-.847-2.034-2.345-1.427-2.47 1-.087 1.693-.229 1.817-.573.5-.252-.963-1.1-1.75-1.884-1.75-.785 0-1.427-.89-1.427-1.977 0-1.087-1.238-2.743-2.75-3.68-1.512-.937-3.312-2.383-4-3.214-1.103-1.333-1.25-1.312-1.25.18 0 1.29-.889 1.687-3.75 1.676-2.564-.011-3.308-.295-2.353-.9 1.128-.714.983-1.143-.75-2.225-2.567-1.603-2.828-3.86-.447-3.86 1.354 0 1.447-.253.458-1.242-.988-.988-1.407-.974-2.054.073-.57.923-1.911 1.108-4.498.623-2.027-.38-3.555-.301-3.396.177.16.478-.149.869-.687.869-.537 0-1.108-.9-1.268-2-.161-1.1-1.029-2.551-1.93-3.224-1.47-1.1-1.391-1.323.769-2.187 1.739-.695 1.921-.98.656-1.026-.963-.034-1.75-.513-1.75-1.063 0-.55-.45-1-1-1s-.947.338-.882.75c.341 2.155-.276 2.423-1.586.691-1.003-1.325-1.478-1.5-1.5-.551m367.363 5.94c.398.644.274 1.17-.274 1.17s-.973.787-.944 1.75c.174 5.706-1.318 13.878-2.72 14.904-1.019.745-1.201 1.386-.517 1.809 2.151 1.33.977 2.456-1.421 1.364-1.94-.884-2.352-1.643-1.892-3.479.364-1.446.147-2.348-.562-2.348-.634 0-1.08-.562-.99-1.25.419-3.232-.025-3.798-2.011-2.558-3.082 1.925-4.772 9.337-3.174 13.921.873 2.504.71 3.287-1.047 5.044-1.181 1.181-1.66 2.352-1.11 2.711 1.611 1.05 2.116 5.976.67 6.531-1.753.673-6.56-1.824-8.374-4.351-1.575-2.193-4.029-2.766-4.029-.94 0 .663-.941.873-2.338.522-2.913-.731-5.699 1.205-5.918 4.113-.091 1.213-.746 2.427-1.455 2.7-.709.272-1.289.985-1.289 1.585 0 .599.45.812 1 .472.55-.34 1 .035 1 .834 0 .799.563 1.659 1.25 1.912 1.656.609 3.75-.167 3.75-1.388 0-.537-.45-.698-1-.358-.55.34-1-.015-1-.789 0-.877 1.129-1.439 3-1.492 1.922-.055 3 .41 3 1.291 0 .757.922 2.023 2.05 2.812 2.028 1.421 2.023 1.443-.455 2.065-1.825.458-2.788 1.646-3.545 4.371-1.445 5.205-1.332 6.018.941 6.739 2.286.726 4.316-.192 3.466-1.566-.316-.512-.151-.931.367-.931.519 0 1.179.902 1.467 2.004.332 1.272 1.069 1.795 2.015 1.432.821-.315 1.805-.065 2.189.556.477.772 1.093.586 1.953-.59 1.141-1.561 1.316-1.478 1.914.905.483 1.922 1.102 2.452 2.322 1.984 1.238-.475 1.505-.227 1.046.971-.34.885-.08 1.788.576 2.007 1.315.438 1.768 5.731.49 5.731-.438 0-.796-.45-.796-1s-.499-1-1.108-1c-.703 0-.863.98-.438 2.675.589 2.343.478 2.514-.891 1.377-.916-.76-1.563-.867-1.563-.258 0 .572.563 1.24 1.25 1.486.688.245.888.832.446 1.304-.443.472-1.223.196-1.735-.613-.63-.996-.935-1.068-.946-.221-.008.688-.78 1.25-1.715 1.25-1.322 0-1.433.267-.5 1.2 1.672 1.672 1.496 3.472-.411 4.204-1.153.443-1.447.189-1.032-.893.359-.935.007-1.511-.924-1.511-1.222 0-1.291.397-.368 2.121.863 1.612.853 1.946-.042 1.393-.82-.507-1.078.138-.85 2.13.258 2.257.893 2.921 3.022 3.167 1.866.216 2.526.754 2.143 1.75-.487 1.271.144 1.642 2.3 1.354 1.371-.184 2.332 2.794 2.347 7.268.012 3.614.424 4.812 1.806 5.251 1.274.404 1.779 1.555 1.749 3.985-.048 3.903-1.507 6.175-1.603 2.498l-.064-2.417-.905 2.253c-1.907 4.743-1.163 13.247 1.158 13.247.546 0 .714.45.374 1-.34.55-.141 1 .441 1 1.482 0 1.328-2.744-.182-3.247-.892-.297-.752-.903.5-2.155 1.655-1.655 1.741-1.644 1.741.222 0 1.26.895 2.188 2.5 2.591 1.614.405 2.5 1.329 2.5 2.608 0 1.09.45 1.981 1 1.981s1 .85 1 1.889c0 4.002 3.112 5.923 10.75 6.636l7.25.678.075-30.852c.042-16.968.046-38.051.01-46.851-.036-8.8-.07-25.113-.075-36.25L500 195h-2.607c-1.839 0-2.447.418-2.063 1.417a1.534 1.534 0 01-.893 1.969c-.79.303-1.437.107-1.437-.437 0-.543-1.125-.784-2.5-.535-2.202.399-2.5.103-2.5-2.48 0-1.614-.413-2.934-.918-2.934-.505 0-1.704-.301-2.664-.67-1.191-.457-1.516-.298-1.023.5M339 195c0 .55-.562 1.003-1.25 1.006-.687.004-2.515.666-4.062 1.473-1.547.807-4.472 1.558-6.5 1.67-2.028.112-4.493 1.024-5.477 2.027-.984 1.003-2.671 1.824-3.75 1.824-1.079 0-1.961.415-1.961.922 0 .508-1.687 1.474-3.75 2.148-2.062.674-4.805 2.354-6.095 3.732-1.602 1.712-2.573 2.139-3.063 1.347-.526-.852-1.829-.693-4.894.595-4.592 1.93-5.406 3.256-1.998 3.256 1.711 0 1.933.267 1 1.2-.933.933-1.467.933-2.4 0-1.54-1.54-3.142-1.562-2.195-.03.487.788.177.96-.95.528-2.249-.863-6.655.905-6.655 2.67 0 1.846-1.964 2.553-5.313 1.912-1.956-.373-2.687-.103-2.687.996 0 1.634-2.033 2.724-5.082 2.724-1.055 0-2.893.975-4.086 2.168-1.402 1.402-3.608 2.242-6.25 2.381-2.245.117-4.307.336-4.582.485-.275.149-1.175.315-2 .37-.825.054-1.5.635-1.5 1.29s-1.012 2.135-2.25 3.288c-2.645 2.464-2.893 3.479-.639 2.614 1.153-.443 1.447-.189 1.032.893-.72 1.875 1.244 1.964 3.884.174 1.085-.735 4.448-2.128 7.473-3.096 3.025-.968 13.825-5.501 24-10.072 23.82-10.702 24.904-11.182 35-15.509 4.675-2.003 8.387-4.17 8.25-4.814-.137-.645.65-1.172 1.75-1.172s2-.477 2-1.059-.409-.806-.91-.497c-1.083.67-4.09-.348-4.09-1.384 0-.4.67-.727 1.488-.727 2.482 0 9.488-3.748 9.501-5.083.006-.687-.214-1.25-.489-1.25s-.5.45-.5 1m149.875 4.5l-.375 1.5c-.137.55-.306 2.167-.375 3.594-.08 1.655-.823 2.776-2.056 3.098-2.054.537-3.711 3.308-1.979 3.308.566 0 .75.45.41 1s.309 1 1.441 1c1.524 0 2.059.643 2.059 2.475 0 2.219.256 2.378 2.469 1.537 2.029-.772 2.754-.545 4.07 1.275l1.601 2.213-.181-2.5c-.099-1.375-.096-2.725.007-3 .103-.275.344-1.329.535-2.342.192-1.013.586-2.079.876-2.369.976-.976-2.213-3.289-4.556-3.304-1.71-.012-1.959-.245-.943-.889.758-.48 1.067-1.376.687-1.991-.381-.616 0-1.385.846-1.709 1.319-.507 1.339-.789.135-1.993-1.348-1.348-4.412-1.94-4.671-.903M171.75 217.342c-1.834 1.445-2.463 3.217-.771 2.171.539-.333 1.889-.119 3 .476 1.112.595 2.021.674 2.021.177 0-.498 2.25-.955 5-1.017 3.348-.076 5.005.294 5.015 1.119.01.797.358.703.985-.268.862-1.333.973-1.333 1 0 .027 1.333.14 1.333 1.015 0 .692-1.053 1.208-1.166 1.735-.377 1.171 1.752 10.811 3.486 13.463 2.422l2.287-.918-2.5-.195c-2.058-.161-1.881-.326 1-.932l3.5-.737-3.75-.131c-2.279-.08-3.75.329-3.75 1.042 0 .646-1.012.26-2.25-.858-1.722-1.557-3.774-2.071-8.75-2.195-3.575-.089-8.75-.386-11.5-.66-3.391-.338-5.563-.054-6.75.881m252.75 14.72c-1.65 1.054-3.675 2.178-4.5 2.499-.825.321-2.175.997-3 1.502-.825.506-3.672 2.073-6.326 3.484-3.916 2.08-4.607 2.828-3.664 3.965.639.77.825 1.947.412 2.614-.517.836-.233 1.015.914.575.915-.351 1.664-.28 1.664.157 0 1.463 5.815-.037 7.987-2.06 1.18-1.1 2.446-1.698 2.814-1.33.368.368-.449 1.574-1.816 2.679l-2.485 2.011 2.833-.619c2.263-.494 2.936-.228 3.341 1.322.482 1.843.653 1.858 3.352.309 1.912-1.097 2.456-1.879 1.659-2.386-1.834-1.166-2.685-.927-2.685.755 0 1.262-.248 1.308-1.374.256-1.156-1.079-1.037-1.51.75-2.708a825.017 825.017 0 002.398-1.612c.752-.519-1.156-3.475-2.242-3.475-2.12 0-.506-5.301 2.349-7.714 3.202-2.706 1.724-2.845-2.381-.224m-251.065.833c.305.493-.111 1.151-.924 1.462-.812.312-1.237 1.194-.943 1.961.385 1.003 2.69 1.438 8.233 1.553 6.663.139 33.42 1.858 56.949 3.658 4.361.333 7.25.171 7.25-.408 0-1.711-5.271-2.384-28-3.579-4.125-.217-9.3-.795-11.5-1.285-2.2-.489-5.125-.585-6.5-.213-2.961.802-11.464.168-15-1.118-1.375-.499-3.501-1.051-4.724-1.225-1.224-.174-2.536-.628-2.917-1.009-1.012-1.011-2.573-.847-1.924.203m225.286 13.855c-4.579 4.92-5.314 5.97-4.95 7.063.224.673-.543 1.187-1.771 1.187-1.281 0-1.997.508-1.753 1.241.228.683-.206 1.861-.964 2.619-1.672 1.672-1.161 2.414 1.074 1.557.904-.347 1.643-1.258 1.643-2.024s.9-1.393 2-1.393 1.887.506 1.75 1.125.313 1.331 1 1.583c.772.283 1.256-.434 1.265-1.875.009-1.283.495-3.008 1.081-3.833.821-1.155.928-.868.466 1.25-.365 1.67-.177 2.75.478 2.75.593 0 .8.45.46 1s-.254.996.191.992c1.469-.014 3.218-4.845 1.944-5.368-.692-.284-.593-.497.255-.545.764-.043 1.987.708 2.718 1.671 1.265 1.667 1.33 1.667 1.36 0 .018-.963-.418-1.75-.968-1.75s-1-.45-1-1 .675-1 1.5-1 1.5-.498 1.5-1.107.675-.848 1.5-.531c.825.316 1.5.139 1.5-.393 0-.533-.9-.969-2-.969s-2-.436-2-.969c0-.532-.617-.731-1.371-.442s-1.64-.175-1.969-1.032c-.789-2.058-2.921-1.975-4.939.193m80.139 23.562c-.076.103-.247 3.728-.379 8.054-.15 4.925-.701 8.152-1.474 8.629-.799.494-.859.894-.17 1.134.584.204 1.162 2.396 1.284 4.871.304 6.171.627 6.771 3.361 6.248 1.981-.379 2.238-.815 1.531-2.601a297.17 297.17 0 01-1.6-4.147c-.412-1.1-.786-5.001-.831-8.669-.071-5.763.156-6.651 1.668-6.537 1.819.137 2.509 1.706.75 1.706-1.609 0-1.149 1.729.643 2.417 2.018.774 1.961.839 2.852-3.313.652-3.042.525-3.342-1.227-2.884-1.232.322-2.386-.179-3.12-1.355-.719-1.15-.779-1.865-.156-1.865 1.91 0 1.005-1.575-.992-1.725-1.1-.083-2.063-.066-2.14.037" fill="#d3d3d3" fill-rule="evenodd"/></svg>