<svg xmlns="http://www.w3.org/2000/svg" width="500" height="715"><path d="M98.048 37.75c-3.96 2.063-10.653 6.366-14.874 9.563-15.237 11.54-34.691 19.592-54.413 22.518-13.378 1.986-12.462.437-12.643 21.37l-.118 13.7 16.779 16.498c9.228 9.074 18.79 17.939 21.25 19.701 2.459 1.762 8.296 6.6 12.971 10.752 7.956 7.065 32.386 25.708 45.313 34.578 4.254 2.919 6.017 3.64 6.856 2.801 1.704-1.704 2.331-42.094.929-59.856-1.96-24.841-8.694-75.552-10.739-80.883-.735-1.915 1.984-1.989 3.554-.097 1.082 1.304 2.143 6.77 7.201 37.105 2.941 17.639 4.069 36.161 4.368 71.733l.267 31.734 2.717 5.553c3.317 6.78 12.57 19.407 21.6 29.48 17.028 18.992 32.784 38.889 38.645 48.803 4.535 7.671 17.232 26.257 20.287 29.697.977 1.1 2.739 3.8 3.916 6 1.176 2.2 5.165 7.889 8.863 12.642 10.9 14.011 21.271 32.538 30.71 54.858 20.88 49.381 25.994 58.546 62.422 111.88 4.275 6.259 10.621 16.609 14.102 23 11.347 20.83 28.035 45.92 36.995 55.62 2.032 2.2 7.087 8.275 11.234 13.5 4.146 5.225 11.091 13.236 15.434 17.801C403.392 610.123 403 610.851 403 576.759c0-15.415-.413-29.654-.917-31.643-.505-1.989-1.685-7.891-2.623-13.116-2.798-15.579-7.131-32.962-11.534-46.269-4.762-14.394-14.708-38.304-22.143-53.231-3.835-7.7-8.556-18.05-10.49-23-3.759-9.619-11.539-25.409-17.073-34.653-3.283-5.483-3.941-9.789-1.614-10.554 1.239-.407 12.482 21.145 20.192 38.707a6800.973 6800.973 0 0 0 13.666 30.791c9.084 20.338 11.994 27.752 18.082 46.079 4.882 14.698 5.804 15.645 10.241 10.519 6.169-7.126 38.725-53.723 56.864-81.389 9.61-14.657 14.774-21.911 15.63-21.958 3.654-.197-1.175 10.039-11.3 23.958-2.601 3.575-5.474 7.966-6.384 9.757-.911 1.791-5.612 8.541-10.449 15-19.047 25.437-40.952 56.973-42.558 61.271-1.636 4.379-1.606 5.026.91 19.5 7.265 41.798 6.918 36.428 6.226 96.472-.141 12.216-.039 12.847 4.517 27.775 2.563 8.401 5.623 20.776 6.799 27.5 1.176 6.724 2.344 13.291 2.597 14.595.412 2.127.839 2.307 4.16 1.759 13.523-2.233 16.185-4.519 16.252-13.952.029-3.947.445-10.327.926-14.177 3.108-24.897 3.449-34.949 1.616-47.625-2.749-19.008-2.885-20.504-2.195-24.181.787-4.196 11.444-21.203 19.419-30.99 8.054-9.884 10.3-13.699 14.549-24.704 2.018-5.225 4.073-10.222 4.569-11.105.561-1 .322-5.142-.635-11-1.924-11.766-2.732-87.845-1.135-106.884l1.047-12.489-3.796-3.281c-12.304-10.636-23.853-14.145-50.416-15.319-27.571-1.219-30.879-1.97-50.74-11.519-14.816-7.124-17.657-7.944-31.043-8.961-10.159-.772-9.028-.206-22.883-11.442-12.09-9.804-17.242-15.601-21.161-23.808L296.5 305.5l-.15-14.5c-.198-19.078-1.857-26.067-8.5-35.815-5.837-8.566-18.127-20.599-24.727-24.211-23.476-12.847-31.072-25.207-31.107-50.617-.039-27.379-8.228-41.735-28.016-49.113-10.003-3.729-25.594-14.055-34.166-22.628-6.357-6.357-13.342-18.863-16.821-30.116-1.19-3.85-3.255-9.531-4.589-12.625-1.333-3.094-2.424-6.294-2.424-7.111 0-2.909-7.212-12.317-11.9-15.523C128.122 39.153 114.179 34 109.096 34c-2.499 0-6.371 1.314-11.048 3.75M52.949 86.84c-3.075 2.49-3.294 16.581-.396 25.555 3.805 11.782 22.304 24.097 37.947 25.263 8.615.641 9.002.167 8.988-11.018-.011-9.142-.143-9.686-4.395-18.071-7.483-14.757-19.904-23.567-33.232-23.568-4.958-.001-7.215.465-8.912 1.839m-36.66 33.41c.295 2.888 1.088 8.175 1.762 11.75 2.066 10.956 1.55 38.389-1.024 54.483-1.484 9.278-2.014 15.671-1.575 19 .364 2.759.985 7.546 1.38 10.638 1.669 13.083 15.199 24.789 35.225 30.475 15.39 4.371 20.416 7.816 24.524 16.813C79.025 268.762 82 279.122 82 282.282c0 1.024 1.425 6.16 3.167 11.414 5.311 16.016 13.725 23.312 34.354 29.788 8.109 2.546 11.373 4.151 15.476 7.61 9.647 8.135 11.585 13.611 12.885 36.406.611 10.711 1.444 16.713 2.913 20.991 1.131 3.294 1.879 6.169 1.661 6.387-.871.87-13.671-8.367-16.293-11.758-3.259-4.214-6.116-10.701-9.68-21.984-4.13-13.075-20.591-35.217-30.934-41.612-10.867-6.718-29.963-.911-49.049 14.917-18.354 15.221-21.241 17.414-26.233 19.934-6.464 3.263-6.203 2.143-6.646 28.458-.423 25.093-2.574 20.87 17.879 35.091 37.97 26.401 62.564 41.685 68 42.259l3 .317-.176-7.627c-.096-4.195-.883-11.732-1.749-16.748-.866-5.017-2.021-15.368-2.566-23.001-.546-7.633-2.096-19.222-3.446-25.752-7.985-38.629-10.512-50.475-11.863-55.622-1.635-6.227-.933-7.755 1.149-2.5 9.012 22.75 12.282 37.004 15.2 66.25.604 6.05 1.494 12.575 1.978 14.5 1.101 4.375 2.683 16.5 4.437 34 1.5 14.971 4.854 26.228 8.741 29.335 4.619 3.693 47.714 26.123 62.166 32.357 28.701 12.379 72.713 37.609 100.609 57.674 14.578 10.486 16.33 11.303 29.02 13.531 6.325 1.11 16.9 3.115 23.5 4.454 6.6 1.34 14.925 2.971 18.5 3.626 3.575.654 11.268 2.727 17.095 4.606 5.827 1.879 10.89 3.417 11.25 3.417 2.095 0-.107-4.496-5.402-11.028-9.277-11.444-13.759-17.533-21.326-28.972-3.821-5.775-9.521-14.1-12.668-18.5-3.147-4.4-7.412-11.15-9.478-15-6.466-12.048-19.531-31.36-28.427-42.018-9.734-11.663-25.45-39.307-32.68-57.482-2.298-5.775-6.733-16.125-9.856-23-3.124-6.875-7.601-17-9.95-22.5-8.755-20.5-14.355-29.95-30.493-51.461-16.907-22.536-18.33-24.615-23.626-34.539-2.642-4.95-6.634-11.669-8.871-14.931-12.486-18.203-11.852-17.384-35.698-46.069-15.834-19.047-19.487-22.652-33.37-32.93a11184.9 11184.9 0 0 1-23-17.081c-6.05-4.508-13.25-9.69-16-11.516-7.55-5.013-15.515-11.963-31.5-27.485C27.739 122.696 18.898 115 17.018 115c-.928 0-1.123 1.399-.729 5.25m138.699 33c-2.982 4.889-3.416 9.165-2.089 20.579 2.038 17.533 6.883 25.961 20.44 35.558 13.049 9.238 17.426 9.491 23.843 1.378 3.267-4.132 3.317-4.35 3.277-14.231-.052-12.559-2.563-18.422-12.337-28.797-15.44-16.39-28.492-22.097-33.134-14.487M34 171.144c-7.736 2.268-10.432 9.663-7.488 20.538 2.012 7.435 2.529 8.02 15.821 17.901 10.881 8.09 16.803 10.224 24.975 8.998 9.52-1.428 11.971-7.545 8.161-20.375-4.334-14.592-29.03-30.708-41.469-27.062m87.718 81.897c-15.594 3.88-16.084 14.56-1.33 28.981 14.795 14.462 33.425 24.064 39.217 20.213 1.861-1.237 3.715-8.413 3.807-14.735.279-19.039-23.775-38.918-41.694-34.459m106.675.116c-2.844 1.378-5.47 7.187-6.127 13.554-2.007 19.451 20.554 47.123 35.707 43.795 8.321-1.828 13.033-10.341 11.04-19.944-2.711-13.057-10.935-25.633-20.968-32.062-9.715-6.225-14.916-7.639-19.652-5.343m-38.349 101.548c-4.717 2.45-5.553 6.219-4.054 18.295 2.346 18.911 6.867 26.512 19.618 32.988 16.434 8.346 28.81-5.519 22.253-24.932-2.961-8.769-12.853-21.73-18.861-24.713-6.463-3.209-14.58-3.91-18.956-1.638m86.258-.693c-6.258 2.52-7.373 22.057-1.891 33.153 6.614 13.388 13.547 21.937 20.246 24.967 5.597 2.531 15.285 3.47 17.589 1.705 4.069-3.117 4.814-23.606 1.194-32.837-3.868-9.865-13.779-21.972-21.869-26.715-2.392-1.402-12.036-1.575-15.269-.273M35.295 367.118c-12.189 3.485-5.678 30.029 9.94 40.528 5.537 3.722 19.442 9.211 25.406 10.028 6.706.92 9.232-.179 11.402-4.959 4.377-9.642.433-19.428-13.44-33.35-9.947-9.983-13.723-12.134-21.298-12.134-2.751 0-5.858-.232-6.904-.515-1.045-.283-3.343-.103-5.106.402m361.434 16.286c-13.447 9.062-15.417 34.966-3.719 48.9 6.923 8.246 12.662 8.47 20.084.783 11.579-11.991 10.295-34.133-2.666-45.979-6.384-5.834-9.349-6.636-13.699-3.704M11 409.373c0 .755.929 3.474 2.065 6.042 2.262 5.112 3.584 25.836 2 31.357-.833 2.905 2.13 9.106 12.156 25.445 2.256 3.675 4.833 10.448 7.218 18.968 9.25 33.046 16.14 38.421 53.061 41.392 26.74 2.152 29.984 2.783 45.253 8.797 16.794 6.615 29.831 15.873 39.446 28.009 4.282 5.404 4.305 7.384.041 3.434-11.525-10.672-34.801-21.44-52.577-24.323-20.293-3.291-27.23-1.511-44.582 11.443-7.888 5.889-14.568 8.037-28.546 9.18-25 2.044-29.817 6.491-35.073 32.383-2.165 10.665-2.546 44.448-.598 52.958 2.297 10.032 11.38 22.428 20.215 27.588 16.872 9.854 21.427 10.355 35.96 3.957 18.214-8.02 19.698-8.438 29.961-8.45 9.171-.011 9.945.17 22.332 5.229 15.156 6.189 26.864 8.356 45.168 8.357 23.454.001 35.574-4.37 51.686-18.638 16.589-14.692 21.318-16.031 42.314-11.978 4.95.955 13.288 1.767 18.53 1.803 11.738.081 14.5-1.099 28.204-12.048 16.682-13.329 23.848-17.13 32.478-17.222 13.89-.149 31.038 11.498 47.777 32.451 13.556 16.968 16.907 19.474 26.297 19.662 8.066.162 8.064.32.392-29.669-1.126-4.4-3.275-13.329-4.776-19.841-5.488-23.82-11.618-31.336-29.122-35.708-5.929-1.481-13.705-3.822-17.28-5.202-11.455-4.421-31.036-9.643-47.996-12.798-16.1-2.996-16.652-3.032-23-1.507-3.577.859-9.429 2.243-13.004 3.075-3.575.833-13.25 3.483-21.5 5.891-8.25 2.407-23.1 6.485-33 9.061-45.66 11.884-120.247 40.917-166.318 64.739-19.458 10.062-21.572 10.934-23.916 9.865-3.163-1.441-4.303-.571 17.234-13.157 17.771-10.386 25.757-14.048 48.5-22.241 8.525-3.071 20.379-7.629 26.343-10.13 5.964-2.501 11.675-4.547 12.691-4.547 2.208 0 3.555-1.811 2.289-3.077-1.61-1.61-54.508-14.988-65.323-16.521-5.775-.818-17.25-3.015-25.5-4.881s-17.925-3.932-21.5-4.592c-7.876-1.453-8.433-1.884-6.869-5.317.99-2.174 1.722-2.592 3.798-2.17 1.414.287 5.721.998 9.571 1.58 13.823 2.088 61.22 11.971 72 15.013 18.158 5.124 40.303 9.965 45.588 9.965 3.048 0 9.681-1.523 17.188-3.946 22.683-7.323 35.142-10.933 55.224-16.001 11-2.776 22.7-6.149 26-7.495 3.3-1.345 10.305-3.766 15.566-5.379 17.934-5.498 17.992-6.352 1.184-17.332-7.012-4.581-16.8-11.119-21.75-14.53-17.875-12.318-26.986-17.583-46.326-26.77A62917.87 62917.87 0 0 0 154 500.592c-25.772-12.214-30.376-14.936-42.199-24.948-7.19-6.09-18.769-13.699-38.171-25.087-5.429-3.186-13.313-8.572-17.52-11.969-9.423-7.607-15.253-11.633-21.11-14.576-2.475-1.243-6.75-4.168-9.5-6.498-9.624-8.157-14.5-10.894-14.5-8.141m320.496 18.377c.245 1.512.949 6.125 1.565 10.25 1.28 8.569 5.255 18.401 7.174 17.742 2.848-.977 1.384-10.769-3.139-20.992-4.25-9.607-6.473-12.385-5.6-7M152.5 437.525c-.55.202-2.892.853-5.205 1.448-5.669 1.456-7.297 3.322-7.285 8.348.028 12.224 12.476 25.034 28.49 29.318 5.093 1.362 19.066 1.848 21.898.762 4.746-1.822 8.792-16.617 6.224-22.762-2.105-5.038-8.398-10.871-15.626-14.483-5.94-2.969-6.944-3.151-16.906-3.077-5.824.043-11.04.244-11.59.446m73.5 13.637c0 5.023 19.836 25.5 28.578 29.502 5.809 2.66 16.768 4.202 17.816 2.508 1.024-1.658-2.117-8.278-5.695-12.002-6.072-6.321-14.64-11.312-30.174-17.576-9.822-3.96-10.525-4.123-10.525-2.432m114.503 26.088c-7.392 6.377-4.996 17.495 7.564 35.103 11.215 15.724 20.399 20.335 27.118 13.616 2.916-2.916 3.016-3.309 2.658-10.398-1.1-21.799-26.397-47.761-37.34-38.321m-282.597.159C49.415 480.665 48 481.83 48 485.566c0 7.583 11.381 21.494 21.756 26.592 10.004 4.917 26.707 3.53 34.283-2.845 8.302-6.985-1.2-24.358-16.59-30.328-7.408-2.874-23.867-3.752-29.543-1.576m378.457 1.513c-4.742 2.154-6.149 5.315-8.939 20.078-4.958 26.234 4.513 37.246 21.469 24.963 7.182-5.203 10.338-12.048 9.664-20.963-1.571-20.776-9.801-29.705-22.194-24.078m-168.569 26.13c-2.796 2.797-2.999 3.445-2.421 7.75 2.483 18.497 28.151 43.189 42.241 40.635 9.278-1.682 11-4.199 10.146-14.834-1.241-15.461-12.913-27.947-32.391-34.648-8.61-2.962-13.842-2.636-17.575 1.097m-92.408 30.81c-11.337 5.287-5.603 20.984 10.65 29.156 20.609 10.362 37.689 4.535 33.027-11.268-4.099-13.893-29.732-24.391-43.677-17.888m-65.899 29.937c-12.588 4.353-18.255 9.854-15.105 14.662 7.918 12.084 38.854 14.121 50.356 3.316 3.321-3.121 2.835-6.027-1.693-10.117-9.376-8.471-22.741-11.602-33.558-7.861m154.98 38.532c-16.859 4.782-25.02 8.872-27.534 13.8-7.508 14.717 13.327 17.235 44.567 5.386 13.841-5.25 18.307-14.804 9.199-19.678-4.11-2.199-17.64-1.946-26.232.492M43 612.539c-15.649 4.304-25.51 13.047-22.534 19.981 3.921 9.137 14.892 12.513 28.89 8.889 13.938-3.608 27.155-13.103 26.471-19.017-.85-7.352-20.488-13.246-32.827-9.853m118 24.285c-9.857 2.203-21.304 8.314-24.126 12.879-2.136 3.456-2.136 3.469-.171 6.102 6.784 9.085 30.438 12.477 38.954 5.585 12.745-10.316 13.834-21.415 2.386-24.325-7.25-1.843-9.721-1.878-17.043-.241" fill="#d3d3d3" fill-rule="evenodd"/></svg>