<svg xmlns="http://www.w3.org/2000/svg" width="500" height="700"><path d="M55.604 3.59c-.336.875-.386 1.954-.111 2.399 1.256 2.032.711 58.711-.584 60.785-1.095 1.754-1.072 2.552.139 4.812 1.456 2.717 1.893 15.471 1.043 30.414-.204 3.575-.383 21.8-.4 40.5-.027 30.992-.292 65.279-.578 74.75-.073 2.433-.589 3.75-1.468 3.75-2.215 0-2.629-9.998-2.653-64-.013-27.775-.408-51.108-.878-51.85-.485-.764-.422-3.153.144-5.5 1.776-7.367 1.162-65.835-.702-66.879C47.569 31.659 47.529 29 49.5 29c1.162 0 1.525-1.41 1.61-6.25.061-3.437.203-8.862.316-12.055.247-7.008.671-6.711-10.406-7.294-10.826-.57-10.201-1.706-9.7 17.644.193 7.449.04 14.424-.34 15.5-.379 1.075-.279 3.305.223 4.955.501 1.65.88 11.325.842 21.5-.1 26.393.942 46 2.443 46 2.544 0 4.699 7.222 3.59 12.033-.566 2.457-1.04 6.128-1.054 8.158-.027 4.172-1.425 5.702-2.862 3.134-1.38-2.467-2.059 6.605-2.544 34.018-.245 13.836-.812 23.251-1.438 23.877-.676.676-.708 1.892-.092 3.512 1.083 2.848 1.372 22.905.368 25.522-.799 2.083-19.523 2.584-23.799.636-2.029-.925-2.771-.776-4.434.887-2.139 2.139-2.121 1.138-.741 42.723.183 5.5.374 15.707.425 22.683.086 11.761.238 12.728 2.093 13.317 1.26.4 2 1.513 2 3.008 0 1.306.45 2.652 1 2.992.55.34 1 1.65 1 2.911 0 1.261 1.341 3.696 2.98 5.411 2.989 3.127 3.151 5.53.443 6.569-.783.301-1.423 1.685-1.423 3.078 0 1.645-.556 2.531-1.587 2.531-.873 0-2.085 1.321-2.695 2.935-.609 1.615-2.125 3.48-3.368 4.145l-2.26 1.21-.066 182.857-.067 182.857 250.272-.252L500.5 699.5l.008-175c.007-154.728-.052-161.62-.507-59.5-.282 63.525-.661 115.05-.841 114.5-.18-.55-.514-7.478-.742-15.395-.242-8.422-.873-14.948-1.52-15.728-.724-.873-.872-3.666-.428-8.104 1.004-10.041-.033-11.95-6.965-12.816-7.246-.905-8.871-2.519-8.233-8.181.408-3.619.214-4.328-1.14-4.165-.898.108-2.433-.151-3.413-.576-.979-.425-3.051-.519-4.604-.208-4.079.816-5.119-.88-5.082-8.277.046-9.04 2.342-12.049 7.37-9.663 1.87.887 4.093 1.613 4.941 1.613.849 0 2.208.95 3.021 2.111 1.389 1.983 1.619 2.014 3.78.5 1.265-.886 3.748-1.611 5.518-1.611 3.752 0 4.237-.575 4.809-5.692 1.856-16.608 2.257-24.643 1.836-36.808-.561-16.159-.527-9.575-.462-91.821.028-35.101-.308-64.801-.746-66-.439-1.198-.634-10.279-.435-20.179.84-41.727.799-48.436-.307-49.542-1.283-1.283-4.007-1.736-14.341-2.386-4.116-.259-7.641-.943-7.833-1.521-.193-.578-1.833-1.051-3.645-1.051s-3.808-.62-4.437-1.377c-1.344-1.62-1.558-107.974-.238-118.505.689-5.494-.214-26.801-1.176-27.764-1.657-1.656-3.945 3.155-4.808 10.11-1.078 8.679-1.509 9.892-3.273 9.215-.655-.251-2.014.145-3.02.881-2.732 1.998-1.383 6.44 1.957 6.44 4.144 0 4.612 3.243 4.612 32 0 49.843-1.234 86.816-2.918 87.462-.82.315-2.125.047-2.899-.595-1.08-.897-1.995-.854-3.938.186-2.777 1.486-5.805.395-5.994-2.159-.056-.767-.185-20.294-.286-43.394-.157-35.782-.387-41.733-1.553-40.195-1.101 1.452-1.397 9.822-1.512 42.783-.079 22.538-.38 41.594-.669 42.346-1.27 3.31-12.03 2.644-13.372-.827-1.079-2.792-.22-98.802.894-99.916.487-.487 1.159-.39 1.537.222 1.245 2.015 3.554 1.16 3.554-1.315 0-1.77-.789-2.678-3-3.448l-3-1.046-.025-10.302c-.014-5.666-.018-30.889-.01-56.052.009-28.057-.35-45.75-.93-45.75-.519 0-1.188 1.462-1.486 3.25-.424 2.541-.097 58.944.367 63.25.059.55-.121 9.775-.401 20.5-.497 19.086-1.324 85.949-1.451 117.296L423 223.092l-4.25-.113c-2.337-.063-24.95-.075-50.25-.028-29.592.055-48.112-.307-51.921-1.015-4.501-.837-6.979-.804-10.339.137-3.273.916-9.383 1.039-23.579.475-10.539-.418-31.536-.695-46.661-.615-15.125.079-28.287.127-29.25.106-.963-.021-2.537-.053-3.5-.071-.963-.017-4.562.169-8 .414-3.438.245-6.307.147-6.378-.218l-.609-3.164c-.533-2.765-.529-9.069.055-81.5.506-62.802.315-58.145 2.423-58.954 1.15-.441 2.339.069 3.5 1.504.968 1.194 1.796 2.009 1.841 1.811.045-.199.286-1.711.534-3.361.68-4.52 2.847-5.912 14.143-9.09.796-.224 1.2-1.931 1.097-4.636-.089-2.362.591-5.738 1.517-7.528 1.418-2.743 1.453-3.246.22-3.246-.802 0-1.756-.938-2.12-2.086l-.662-2.085-2.355 2.212c-1.314 1.235-3.025 1.954-3.873 1.629-.835-.32-1.777-.165-2.092.345-.316.511-2.536 1.796-4.933 2.856-2.469 1.093-4.649 2.84-5.026 4.029-.367 1.155-1.245 2.1-1.952 2.1-1.694 0-2.377-10.554-2.406-37.223-.012-11.397-.313-21.192-.667-21.766-1.95-3.154-2.434 2.896-2.431 30.352.002 16.659-.296 32.161-.662 34.448-.475 2.973-.226 4.826.874 6.505 1.029 1.571 1.228 2.817.601 3.766-.567.856-.848 29.066-.71 71.233.189 58.028-.003 69.958-1.135 70.658-1.684 1.041-4.14.2-3.906-1.337.095-.625-.287-2.261-.848-3.636-1.015-2.486-1.024-2.481-1.781 1-.901 4.149-1.925 4.964-6.259 4.985-3.156.015-3.251-.108-3.272-4.235-.181-34.46-2.006-53.75-5.085-53.75-1.381 0-1.055-3.812.357-4.177.782-.202.22-1.329-1.5-3.009l-2.75-2.686v3.352c0 1.845.563 3.58 1.25 3.858 1 .403 1 .52 0 .583-.97.061-1.25 6.676-1.25 29.52 0 18.333-.373 29.672-.989 30.052-1.754 1.084-17.152.766-18.296-.378-.741-.741-1.058-9.035-.98-25.631.115-24.527.114-24.537-2.175-26.037-1.767-1.157-2.918-1.261-5.04-.455l-2.75 1.046.699-3.769c.384-2.073 1.618-5.264 2.742-7.092 1.515-2.465 1.752-3.614.916-4.45-1.808-1.808-1.484-4.268.36-2.738.818.679 2.197.963 3.064.63.866-.333 2.89.075 4.497.906 2.392 1.237 3.287 1.283 4.937.252 3.076-1.921 2.423-3.778-1.933-5.489-2.641-1.037-4.232-2.417-4.806-4.169-1.262-3.848-.339-13.169 1.355-13.689.77-.237 2.066-.638 2.882-.892 1.993-.621.793-3.538-1.455-3.538-.967 0-2.902.9-4.301 2-2.931 2.306-4.801 2.519-6.594.75-1.016-1.002-1.525-.902-2.561.5-.75 1.016-2.6 1.75-4.409 1.75-3.905 0-5.808 2.7-6.7 9.508-.624 4.762-.481 5.194 2.94 8.821 4.219 4.473 4.587 7.772 1.24 11.118-1.331 1.332-2.648 4.185-3.028 6.56-.37 2.312-1.286 5.393-2.037 6.848-.751 1.455-1.63 7.007-1.954 12.337-.324 5.331-1.058 11.785-1.631 14.341-.573 2.556-.919 7.944-.768 11.971.324 8.621.574 8.247-6.312 9.449-8.443 1.473-17.332.119-17.733-2.703-.375-2.644-2.166-3.049-2.21-.5-.028 1.583-.136 1.569-1.131-.145-1.507-2.595-.615-37.229 1-38.844 1.591-1.591 1.398-7.722-.339-10.761-1.651-2.888-1.971-6.409-.5-5.5.55.34 1 1.518 1 2.618 0 1.1.403 1.751.895 1.447 1.463-.904.841-17.112-.645-16.815-1.552.31-1.668-1.444-.13-1.957 1.535-.511 1.595-9.257.066-9.418-2.42-.255-2.561-.4-1.463-1.498.683-.683.809-1.956.323-3.25-1.664-4.429-2.993-11.602-2.424-13.085.326-.848.13-1.542-.435-1.542s-1.284 2.812-1.598 6.25A558.057 558.057 0 0179.373 138c-1.137 9.691-.365 18.397 2.166 24.424.653 1.555.482 1.798-.897 1.269-1.225-.47-1.972.045-2.649 1.826-2.229 5.863-4.565-.581-3.054-8.424.53-2.748.457-5.53-.194-7.396-.751-2.156-.719-3.51.115-4.846.636-1.019.751-1.853.255-1.853-2.129 0-2.063-3.201.077-3.761 1.948-.509 1.996-.647.416-1.201-1.495-.524-1.86-2.161-2.249-10.082-.681-13.847-.32-33.299.639-34.454.787-.948.961-1.496 1.032-3.252.017-.412.489.037 1.05 1S77.796 93 78.648 93c1.31 0 1.479 1.282 1.095 8.337-.329 6.039-.081 8.849.901 10.191.746 1.02 1.356 3.193 1.356 4.83 0 1.636.338 2.638.75 2.226.412-.413.827-9.15.922-19.417.272-29.44.134-27.455 1.857-26.794 1.103.423 1.698-.256 2.133-2.432.718-3.589 2.156-3.382 4.369.628 2.103 3.812 7.432 4.643 9.632 1.502.798-1.139 2.27-2.071 3.271-2.071 2.67 0 4.784-2.787 2.717-3.581-.866-.332-1.819-1.372-2.117-2.312-.731-2.304-7.338-4.703-8.833-3.208-1.436 1.436-4.023 1.43-3.135-.006.458-.742-.003-.889-1.395-.447-5.642 1.79-9.868-7.684-7.348-16.47.935-3.26 1.002-3.305 1.087-.726.049 1.513.588 2.75 1.197 2.75.611 0 .828-.728.483-1.627-.344-.894-.111-2.246.517-3.002.647-.779.879-2.691.536-4.408-.734-3.668.987-12.565 3.063-15.84 1.412-2.228 1.341-2.512-1.128-4.5-2.296-1.851-2.599-2.756-2.356-7.061.27-4.801.187-4.965-2.993-5.901-2.228-.655-4.051-.607-5.715.151-1.693.771-2.642.79-3.091.063-.405-.655-3.617-.875-8.553-.585-4.347.255-8.148.069-8.446-.413-.882-1.427-3.162-1.001-3.82.713m210.592 4.673c-2.452 2.956-3.548 10.69-1.79 12.633 1.566 1.731 1.496 1.902-1.243 3.037-6.071 2.514-5.943 7.421.39 14.947 2.723 3.237 6.123 4.324 5.088 1.627-.519-1.352 2.791-5.507 4.387-5.507.358 0 1.175-1.151 1.816-2.557 1.384-3.038.178-5.984-2.843-6.943-2.728-.866-2.528-1.819 1.151-5.499l3.153-3.152 2.388 2.576c3.877 4.181 8.567 3.578 13.939-1.793 4.967-4.967 5.635-7.632 1.915-7.632-1.349 0-3.586-.516-4.971-1.147-2.015-.918-3.419-.803-7.038.579-4.405 1.683-4.588 1.674-7.164-.353-2.958-2.326-7.583-2.737-9.178-.816M60.93 36.75c-.191 2.062-.94 44.92-.92 52.668.022 8.545 1.096 12.253 3.176 10.967.597-.369.762-11.434.438-29.239-.287-15.755-.544-30.108-.573-31.896-.042-2.703-1.899-4.891-2.121-2.5m116.778 5.875c-.343.344-.363 6.658-.043 14.032.489 11.251.305 14.132-1.14 17.916-1.138 2.981-1.463 5.426-.957 7.218.42 1.49.869 6.6.998 11.355.294 10.869 1.061 13.851 2.88 11.191.69-1.01 1.556-3.074 1.924-4.587.367-1.513 1.11-2.75 1.649-2.75 1.444 0 1.135-3.213-.52-5.399-1.043-1.378-1.277-3.436-.851-7.503.425-4.072.126-6.697-1.094-9.601-1.347-3.208-1.629-6.708-1.427-17.724.24-13.086-.008-15.558-1.419-14.148m-61.485 10.932c-1.223.856-2.223 2.341-2.223 3.3 0 .959-.529 2.272-1.176 2.919-.902.902-.816 1.591.369 2.95.85.976 1.342 2.336 1.094 3.023-.249.687.932 2.037 2.624 3 3.121 1.777 4.119 4.918 1.839 5.794-.7.268-1.379 2.617-1.543 5.338-.272 4.517.011 5.185 4.02 9.489 2.371 2.547 4.908 4.63 5.638 4.63 2.439 0 6.857-3.912 8.158-7.224 2.549-6.488 5.088-9.929 6.475-8.778.942.782 1.724.637 2.896-.535 3.706-3.706.728-8.463-5.299-8.463-4.399 0-5.525-.776-3.924-2.706 1.365-1.645 1.263-8.614-.165-11.283-2.898-5.415-9.006-2.985-9.006 3.583 0 2.488-.39 4.283-.866 3.989-.476-.294-.649-1.67-.384-3.057 1.07-5.594-3.999-9.141-8.527-5.969m200.232 25.898c-4.662 4.661-1.371 10.044 5.724 9.364 3.038-.292 3.347-.634 3.628-4.012.564-6.783-4.833-9.872-9.352-5.352m-37.294 5.997c-2.891 4.899-2.734 6.229 1.001 8.5 5.299 3.223 13.838.725 13.838-4.047 0-2.244-5.746-7.013-9.089-7.545-3.314-.526-3.756-.289-5.75 3.092M66.881 89.55c-.677 5.401.325 62.056 1.111 62.842.677.677 1.056-5.539 1.154-18.942.269-36.63.129-42.575-1.028-43.732-.615-.615-1.172-.691-1.237-.168m374.484 9.2c-.577 4.338-.665 8.769-.198 10.065.458 1.273.833 4.311.833 6.75s.45 4.435 1 4.435 1-1.93 1-4.289c0-2.358.9-6.053 2-8.211 2.397-4.701 2.432-5.211.5-7.143-.825-.825-1.5-2.556-1.5-3.847 0-2.795-.941-5.51-1.909-5.51-.382 0-1.159 3.487-1.726 7.75m-89.98-5.338c-6.048 2.676-5.159 12.845 1.227 14.043 7.059 1.324 10.348-.767 10.373-6.594.028-6.64-5.462-10.166-11.6-7.449m-80.641 17.729c-1.784 1.528-4.001 2.796-4.927 2.818-.925.023-1.972.953-2.325 2.068-.354 1.114-1.735 2.741-3.068 3.615-3.372 2.209-3.025 3.33.838 2.703 4.336-.704 7.593 2.488 6.029 5.909-1.27 2.779-8.505 6.746-12.304 6.746-4.575 0-5.987.974-5.987 4.132 0 5.563 8.769 6.845 11.07 1.618 1.046-2.378 2.182-3.336 4.232-3.571 1.937-.223 3.107-1.125 3.792-2.926.863-2.271 2.573-4.543 9.404-12.503.826-.963 2.825-1.75 4.443-1.75 3.395 0 4.63-1.472 4.177-4.977-.759-5.863-10.258-8.261-15.374-3.882m-210.315 1.388c-.84 4.474-.113 36.12.851 37.084 1.388 1.389 1.562-.275 2.128-20.365.485-17.242.355-20.248-.874-20.248-.86 0-1.711 1.426-2.105 3.529M178.02 146c-.218 4.675-.604 10.75-.859 13.5-1.062 11.454-.479 38.186.851 39.007 1.094.677 2.075-6.824 1.359-10.402-.387-1.933-.126-3.695.692-4.681 1.749-2.108 1.927-23.526.212-25.592-.678-.818-1.338-5.523-1.527-10.886l-.333-9.446-.395 8.5m55.931 2.552c-1.702 1.812-3.059 2.392-4.674 2-1.253-.303-3.402-.826-4.777-1.16-2.032-.495-2.5-.237-2.5 1.378 0 2.676 5.22 4.886 8.287 3.509 1.468-.66 2.955-.659 4.418.003 2.918 1.321 8.295-.833 8.295-3.322 0-5.52-4.9-6.824-9.049-2.408m89.799 110.246c-.962.192-1.75 1.168-1.75 2.168 0 2.425-2.447 3.243-5.516 1.845-3.069-1.399-3.232-1.24-4.06 3.942l-.668 4.177 6.372-.568c6.996-.624 12.302-4.513 9.327-6.836-.722-.564-1.458-1.937-1.634-3.051-.209-1.317-.933-1.904-2.071-1.677m152.927 3.075c.392 1.497-.229 2.008-3.094 2.545l-3.583.673v5.548c0 4.717-.301 5.627-2.011 6.074-1.106.289-2.28 1.599-2.609 2.909-.748 2.979-.091 17.001.84 17.931 1.574 1.574 23.985 1.015 25.036-.624 1.236-1.926-1.772-8.929-3.835-8.929-2.092 0-3.667-3.671-2.506-5.841.986-1.843-.487-8.623-2.822-12.985-.805-1.504-.596-2.441.936-4.207 2.477-2.856 2.471-3.261-.034-2.465-1.332.422-2.207.11-2.607-.933-.894-2.331-4.326-2.05-3.711.304M.489 525.5c0 96.25.117 135.477.261 87.171.144-48.306.143-127.056 0-175C.606 389.727.489 429.25.489 525.5m128.397-74.603c-.887 2.545-5.641 5.154-10.354 5.683-.568.063-1.805.184-2.751.268-1.08.095-1.507.703-1.15 1.634.45 1.171 1.003 1.249 2.64.373 1.63-.872 2.309-.783 3.188.42.713.975 2.068 1.347 3.74 1.027 1.443-.275 3.397-.068 4.344.462 1.435.803 5.874.032 8.326-1.446.203-.123-.359-.951-1.25-1.842-.89-.89-1.612-2.374-1.604-3.297.013-1.424.157-1.455.946-.208 1.189 1.88 1.805 1.233 2.213-2.326.302-2.63.044-2.866-3.491-3.2-3.425-.324-3.917-.073-4.797 2.452m-4.122 37.745c-.268.472-.79 2.124-1.161 3.672-.622 2.6-.991 2.789-4.861 2.5-3.946-.296-4.222-.142-4.787 2.686-1.192 5.958 1.851 8.288 5.224 4 1.081-1.375 2.608-2.5 3.394-2.5.855 0 1.427-1.001 1.427-2.5 0-2.828 1.162-3.215 3-1 1.668 2.009 3.008 1.896 2.964-.25-.044-2.128-4.516-7.812-5.2-6.608m5.867 18.06c-.347.347-.631 1.851-.631 3.342 0 3.265-2.085 5.244-4.534 4.305-1.448-.556-1.683-.287-1.237 1.418.605 2.313-.798 3.233-4.927 3.233-2.139 0-2.442.352-1.941 2.25.422 1.596-.03 2.725-1.557 3.885-3.327 2.529-5.005 10.373-2.67 12.486 1 .906 1.607 1.989 1.348 2.408-.856 1.386 2.625 1.984 4.793.824 1.595-.854 2.225-.853 2.511.004.209.628 1.479 1.143 2.822 1.143 1.679 0 2.736.775 3.385 2.481.79 2.079 1.412 2.388 3.833 1.904 2.418-.484 2.989-.202 3.492 1.725 1.205 4.604 1.97.706 1.804-9.185-.125-7.406-.565-10.511-1.646-11.592-.812-.812-1.476-2.071-1.476-2.797 0-1.643-2.205-2.531-6.332-2.551-2.02-.01-2.703-.311-1.884-.83.708-.449.996-1.564.643-2.485-.353-.918-.18-1.67.383-1.67s1.214.563 1.447 1.25c.233.688 1.329-.508 2.435-2.657l2.012-3.907.704 2.802c.485 1.935 1.024 2.48 1.74 1.764s.675-1.713-.132-3.223c-.644-1.202-.927-2.818-.63-3.592.566-1.475-2.663-3.827-3.755-2.735M487 593.514c0 .805 2.369 4.767 3.75 6.269.688.748 1.25 2.495 1.25 3.882 0 1.627.667 2.697 1.88 3.014 1.318.345 2.042 1.701 2.423 4.544.299 2.229 1.253 4.762 2.12 5.629 1.436 1.435 1.577.657 1.577-8.697 0-6.984-.339-10.063-1.06-9.618-1.454.899-7.148-1.534-8.747-3.737-1.211-1.669-3.193-2.467-3.193-1.286m-12.164 56.65c-1.441 1.441-1.867 3.033-1.641 6.141.294 4.05.418 4.19 3.594 4.043 6.733-.31 18.859-8.348 12.594-8.348-1.117 0-1.457-.61-1.1-1.976.757-2.894-10.53-2.777-13.447.14" fill="#d3d3d3" fill-rule="evenodd"/></svg>