<svg xmlns="http://www.w3.org/2000/svg" width="1920" height="1280"><path d="M950.948 464.5c-.282 8.915-.29 8.943-.948 3-.652-5.897-1.48 43.153-1.026 60.75.158 6.098-.125 8.75-.933 8.75-.637 0-.881-.45-.541-1 .34-.55.141-1-.441-1s-1.059.675-1.059 1.5.675 1.5 1.5 1.5c1.286 0 1.5 3 1.5 21s-.214 21-1.5 21c-.825 0-1.5.436-1.5.969 0 .532.639.723 1.42.423 1.183-.454 1.392 1.393 1.25 11.032l-.17 11.577 13-.001h13l-.031-15.25c-.017-8.388.26-16.937.616-19 .355-2.062.353-3.75-.006-3.75s-.8-17.437-.979-38.75c-.179-21.312-.459-41-.623-43.75-.163-2.75-.338-9.418-.387-14.817l-.09-9.817-6.75.143c-12.723.269-14.073.106-14.561-1.759-.251-.962-.585 2.3-.741 7.25m25.027 19.657c-.36 23.306.022 44.773.731 41.093.238-1.237.907-2.25 1.486-2.25.652 0 .579-.571-.192-1.5-.685-.825-.831-1.5-.326-1.5 1.694 0 1.669-44.673-.027-47.093-1.322-1.888-1.486-.79-1.672 11.25m-48.896 127.449c-.043.609-1.316 1.094-2.829 1.078-1.513-.015-5.225.119-8.25.298-3.025.18-6.51.003-7.744-.393-1.717-.551-2.114-.382-1.692.718.421 1.096-.082 1.317-2.112.929-1.658-.317-2.997.014-3.543.877-.632.998-.883 1.036-.894.137-.01-.867-1.932-1.245-6.265-1.235-3.796.01-5.726.348-4.916.861 1.064.675.997.975-.332 1.485-2.353.903-2.721.803-1.904-.519.529-.856-.695-.963-4.691-.411-2.974.41-6.677.697-8.229.636-1.552-.06-2.598.253-2.324.697.275.444-1.936.807-4.913.807-2.977 0-5.959.547-6.627 1.215-1.46 1.46-6.814 1.628-6.814.214 0-.55-.498-1-1.107-1s-.848.675-.531 1.5c.442 1.152-.171 1.477-2.643 1.4-3.113-.096-3.136-.129-.719-.986 2.102-.745 1.943-.81-1-.408-7.423 1.014-12.452 2.35-12.802 3.4-.201.602-1.915 1.094-3.81 1.094s-7.595 1.384-12.667 3.076c-5.072 1.692-10.346 3.292-11.721 3.554-8.604 1.644-23.414 11.37-17.313 11.37 1.345 0 1.142.569-1 2.805-3.222 3.363-3.422 6.832-.687 11.934 1.1 2.052 2 5.036 2 6.631v2.9l2.073-2.635c2.731-3.473 3.682-3.328 3.124.476-.251 1.711.042 3.419.652 3.796.734.453.431 1.265-.897 2.402-1.485 1.271-2.107 1.389-2.399.454-1.19-3.809-1.392-3.998-1.356-1.263.047 3.56 1.514 9.811 1.685 7.179.136-2.095 2.913-5.218 3.826-4.304.337.337-.247 1.575-1.297 2.752-1.896 2.122-1.893 2.133.339 1.439 1.365-.425 2.25-.281 2.25.367 0 .587-1.125 1.067-2.5 1.067s-2.5.436-2.5.969c0 .532.788.715 1.75.405 1.175-.378 1.351-.273.534.32-4.535 3.29 14.073 18.782 25.028 20.837 4.309.808 4.372 1.197 1.774 10.969-1.024 3.85-1.462 7.15-.974 7.333.489.184.888.773.888 1.309 0 .537-.498.668-1.107.292-.753-.466-.892.075-.435 1.691.544 1.92.454 2.088-.473.875-.912-1.193-1.022-.886-.536 1.5.451 2.211.345 2.605-.403 1.5-.85-1.255-1.019-1.173-1.038.5-.013 1.1-.845 4.7-1.848 8l-1.826 6 18.321-.163c12.024-.107 19.958.27 23.087 1.095 2.622.692 5.44 1.159 6.262 1.038 5.343-.784 21.912-1.428 35.996-1.399 20.756.043 32.919-.135 45-.657 11.228-.485 10.001-.489 17.458.053 3.434.25 6.504-.021 7.25-.639.876-.728 1.292-.738 1.292-.031 0 .669 3.935.981 11.011.872 8.928-.137 10.913.089 10.489 1.192-.365.952-.006 1.163 1.193.703.944-.362 3.639-.922 5.989-1.244 2.349-.322 4.031-.976 3.736-1.453-.59-.954-.214-1.088 3.832-1.374 1.513-.107 2.75.076 2.75.406 0 .809 6.822.949 37.5.77 14.3-.083 33.987-.08 43.75.007 16.782.15 17.75.056 17.75-1.727 0-1.182-.509-1.691-1.364-1.363-.885.34-1.579-.461-1.976-2.281-1.791-8.211-1.782-8.01-.216-4.805 1.119 2.291 1.46 2.527 1.441 1-.036-2.82-1.288-5.671-2.424-5.521-.529.07-1.098-.685-1.265-1.676-.256-1.524-.143-1.571.735-.303 1.709 2.469 1.314-.33-1.509-10.691-2.977-10.928-2.836-11.821 2.002-12.729 5.663-1.062 15.156-6.363 16.439-9.179.683-1.498 1.61-2.227 2.296-1.803.759.47.875.266.341-.598-.46-.744-.414-1.065.107-.743 2.646 1.635 10.616-12.078 8.501-14.627-.928-1.119-.906-1.551.1-1.957 1.045-.421 1.036-.7-.042-1.458-1.073-.754-1.004-1.063.356-1.585 1.227-.471 1.519-1.331 1.065-3.139-.36-1.434-.193-2.491.394-2.491.56 0 1.019-1.167 1.019-2.592 0-1.426.9-3.737 2-5.135 3.135-3.986 2.527-6.798-2.57-11.896-4.276-4.276-5.631-7.678-1.607-4.038 2.285 2.069 3.858 2.187 2.18.164-1.604-1.932-14.204-8.636-14.908-7.931-.512.512 1.271 1.965 3.405 2.775.55.208.652.752.226 1.207-.425.455-1.515.086-2.421-.82-1.53-1.53-1.74-1.526-2.944.059-1.163 1.531-1.301 1.423-1.329-1.043-.018-1.528.524-2.769 1.218-2.794.688-.024-1-.811-3.75-1.75-4.262-1.454-5.085-1.495-5.575-.279-.458 1.135-.715 1.063-1.259-.354-.423-1.105-1.279-1.552-2.254-1.178-.864.332-2.756.306-4.205-.058-2.432-.61-2.483-.727-.671-1.52 1.758-.768 1.728-.813-.287-.431-1.239.235-2 .019-1.691-.479.308-.499-.329-.907-1.416-.907-1.086 0-2.125.39-2.309.866-.183.476-1.233.508-2.333.07-1.826-.726-1.782-.809.5-.952 2.39-.149 2.368-.197-.5-1.098-4.624-1.451-12.028-2.805-18.806-3.438-6.131-.573-9.034-1.448-4.802-1.448 1.233 0 1.95-.447 1.606-1.003-.414-.67-1.241-.67-2.493 0-1.03.552-2.691.971-3.689.933-1.629-.063-1.61-.159.184-.93 1.98-.851 1.98-.86-.05-.93-1.127-.038-2.52.4-3.094.974-.726.726-3.152.679-7.95-.151-7.568-1.31-13.963-1.933-25.406-2.474-4.125-.196-11.212-.553-15.75-.794-6.781-.36-8.25-.177-8.25 1.027 0 .806-.457 1.183-1.016.838-.559-.346-.758-1.047-.441-1.559.588-.953-5.039-1.301-14.043-.869-2.75.132-5.675.226-6.5.21-9.484-.189-40.826-.198-45.251-.013-3.163.133-5.94-.209-6.171-.759-.248-.591-.452-.547-.499.106M1116 641.671c0 1.469-.615 3.382-1.366 4.25-2.234 2.583-2.805 6.692-1.124 8.087 1.034.858 1.49.893 1.49.114 0-.617.45-1.122 1-1.122s1 .927 1 2.059c0 1.132-.368 1.832-.818 1.554-1.173-.725-6.369 4.341-5.875 5.727.227.638 1.376 1.053 2.553.922 1.177-.131 2.14.233 2.14.809 0 .576.43.781.956.456s.675-1.325.33-2.223c-.418-1.091-.238-1.392.544-.909 1.14.704 1.597-.494 1.228-3.219-.099-.728.313-1.919.916-2.645 1.688-2.034 1.628-14.536-.075-15.614-2.279-1.444-2.899-1.069-2.899 1.754m-79.805 116.42c.257.775 2.681 1.928 5.386 2.563 2.705.635 4.132 1.197 3.169 1.25-1.935.106-2.466 3.096-.55 3.096.867 0 .832.347-.125 1.25-1.053.993-1.419.995-1.78.009-.334-.909-.903-.794-2.125.429-1.56 1.559-1.694 1.545-2.034-.221-.2-1.04.137-2.058.75-2.262.613-.205 1.114-.811 1.114-1.347 0-.537-.422-.715-.939-.396-.516.319-1.402-.217-1.969-1.191-.861-1.479-1.036-1.233-1.062 1.493-.043 4.634-1.924 7.363-4.227 6.131-1.609-.861-1.803-.498-1.803 3.37 0 2.384.462 4.797 1.027 5.362.564.564 1.303 3.367 1.642 6.229.65 5.483 1.927 7.318 3.497 5.022.713-1.044.862-.894.613.622-.234 1.425-.968 1.91-2.554 1.687-1.484-.209-2.225.207-2.225 1.25 0 .86.45 1.563 1 1.563s1.007 1.688 1.015 3.75c.012 2.768.266 3.357.972 2.25.656-1.029.767-.323.354 2.25-.452 2.81-.257 3.754.778 3.765.854.01.99.296.355.75-.702.503-.702 2.58 0 6.568.565 3.208 1.382 5.478 1.816 5.044.434-.435 1.039.165 1.344 1.332.493 1.886.888 2.005 3.557 1.075 2.296-.801 2.685-1.273 1.655-2.01-1.074-.768-1.04-.867.173-.488.836.261 3.311.13 5.5-.291 2.19-.421 2.968-.817 1.731-.88-1.237-.063-2.25-.592-2.25-1.174s.498-.751 1.107-.375c.738.456.891.004.459-1.357-.841-2.649 1.204-3.906 2.801-1.722 1.125 1.539 1.526 1.415 4.539-1.399 1.818-1.699 2.916-3.088 2.44-3.088s-1.427-.9-2.114-2c-1.042-1.668-.999-2 .26-2 .829 0 1.508.648 1.508 1.441s.526 1.766 1.17 2.164c.787.486.961.178.531-.941-.351-.915-.202-1.664.33-1.664 2.08 0 .836-2.004-1.281-2.063l-2.25-.064 2.302-.923c1.908-.766 2.08-1.161 1.007-2.31-1.098-1.174-1.548-1.094-2.955.528-1.213 1.398-1.787 1.566-2.132.623-.378-1.034-.736-1.042-1.797-.041-1.028.97-1.043 1.25-.066 1.25.692 0 .976.457.631 1.016-.346.559-1.047.758-1.559.441-.512-.316-.931-.008-.931.684 0 .954-.281.978-1.158.101-1.45-1.45.249-3.72 4.387-5.86 3.253-1.683 5.146-5.422 3.395-6.708-.831-.611-.828-.949.011-1.295.84-.347.845-1.083.018-2.835-.9-1.907-1.476-2.174-2.971-1.374-2.323 1.244-2.755.825-2.026-1.964.659-2.52 2.849-2.937 3.706-.706.316.825 1.025 1.5 1.575 1.5s.741-.675.425-1.5c-.365-.95.013-1.5 1.031-1.5 3.137 0 1.553-2.001-1.643-2.076l-3.25-.076 3.465-1.251c3.287-1.188 3.343-1.283 1.085-1.874-1.883-.492-2.141-.908-1.238-1.996.856-1.032.847-1.668-.036-2.551-.901-.901-.721-1.192.774-1.246 1.899-.069 1.898-.093-.05-.93-1.931-.83-1.924-.862.184-.93 1.637-.052 2.287.618 2.6 2.68l.416 2.75.15-2.645c.132-2.323.636-2.691 4.141-3.026 2.196-.209 4.185.081 4.422.645.236.564.465.013.508-1.224.057-1.63-.488-2.25-1.98-2.25-1.178 0-1.782.447-1.413 1.046.433.7-1.774.948-6.691.75-6.742-.272-7.363-.478-7.657-2.546-.219-1.543.193-2.25 1.309-2.25.979 0 1.344.462.914 1.158-.502.811.003.965 1.691.513 1.323-.354 3.058-.65 3.856-.657 3.29-.031-.756-1.89-5.45-2.503-3.641-.476-4.592-.367-3.5.402 1.269.894 1.2 1.059-.45 1.072-1.517.012-1.683.282-.75 1.215.66.66 1.2 1.65 1.2 2.2 0 .578-.487.513-1.153-.153-.729-.729-1.761-.828-2.804-.27-.966.517-2.251.504-3.097-.031-1.195-.757-1.142-.918.304-.931.963-.008 1.75-.69 1.75-1.515s.675-1.5 1.5-1.5c4.216 0 .64-1.845-5.25-2.709-3.713-.544-7.599-1.354-8.636-1.8-1.402-.602-1.767-.448-1.419.6m-183.648 3.833c-.314.509.222 1.131 1.191 1.384.969.253-.6.512-3.488.576-4.283.095-5.253.438-5.265 1.866-.013 1.409-.189 1.476-.905.345-1.814-2.865-9.633-.888-15.948 4.033-1.302 1.015-2.764 1.599-3.25 1.299-.485-.3-.882-.024-.882.613 0 1.436-5.73 6.897-6.465 6.162-.294-.295-.535.241-.535 1.19s-.359 1.504-.798 1.233c-1.484-.917-3.875 1.263-2.418 2.205.767.496 1 1.568.58 2.664-.527 1.374-.368 1.627.636 1.006.93-.575 1.177-.396.808.586-.703 1.87.592 5.381 2.043 5.539.632.069 2.035.181 3.118.25 2.955.188 1.426 2.79-1.768 3.009-1.486.101-3.601.249-4.701.329-5.846.42-7.5-.178-7.5-2.713 0-2-.5-2.5-2.5-2.5-1.375 0-2.5.436-2.5.969 0 .532.68.707 1.511.388 1.059-.406 1.335-.12.923.954-.331.863.321 2.444 1.489 3.612 1.142 1.142 1.618 2.077 1.058 2.077-.578 0-.757 1.045-.412 2.418.87 3.466-1.832 4.605-8.599 3.624-3.009-.436-4.833-.849-4.053-.917.779-.069 1.124-.418.766-.776-1.158-1.158-13.145-1.162-13.879-.005-.382.604-1.029.764-1.437.356-.408-.408 1.236-2.757 3.654-5.221 3.116-3.175 3.898-4.479 2.687-4.479-.939 0-1.708-.675-1.708-1.5 0-.924.938-1.5 2.441-1.5 3.217 0 4.135-1.616 1.334-2.349-1.212-.317-2.494-.105-2.85.47-.394.638-.891.411-1.271-.58-.457-1.191-1.098-1.383-2.389-.716-.971.502-3.345 1.196-5.276 1.544-1.931.347-4.743 1.775-6.25 3.172-2.484 2.303-3.196 2.355-2.857.209.065-.413-.557-.75-1.382-.75-.825 0-1.5-.848-1.5-1.883 0-1.172-.87-2.05-2.303-2.324-2.398-.458-5.384 1.664-3.756 2.67.506.313 1.203.112 1.549-.447.825-1.335 2.51-1.306 2.51.043 0 .582-.445.784-.989.448-.553-.342-.741.032-.427.851.342.893-.203 1.704-1.401 2.084-1.079.342-2.179 1.621-2.444 2.84-.265 1.22-.813 3.006-1.217 3.968-.444 1.056-.297 1.75.371 1.75.609 0 1.107-.627 1.107-1.393 0-1.503 2.692-2.976 3.313-1.813.207.388.334 2.281.282 4.206-.085 3.128 1.272 6 2.834 6 .314 0 .571-.9.571-2 0-2.206 1.574-2.723 2.282-.75 1.268 3.538-2.454 6.749-7.234 6.242a380.232 380.232 0 0 0-4.236-.434c-1.066-.09-.511-4.058.567-4.058.525 0 .669-.285.32-.634-1.106-1.107-5.665-1.23-6.32-.171-.426.689-.832.69-1.257.002-1.053-1.703-9.374-1.612-13.494.148-2.13.91-3.98 1.655-4.111 1.655-.132 0-.025-1.125.238-2.5s.902-2.5 1.421-2.5c.518 0 .664-.45.324-1s.084-1 .941-1 1.559-.477 1.559-1.059.419-.8.931-.484a1.1 1.1 0 0 0 1.509-.36c.83-1.343-2.24-4.111-3.868-3.486-.753.289-1.641.087-1.972-.449-.659-1.067-4.6-.377-4.6.805 0 .404-1.54.252-3.423-.337-1.882-.589-3.163-1.491-2.845-2.005.317-.514.105-.642-.473-.285-.577.357-1.288.026-1.581-.735-.357-.932.479-1.586 2.555-2.002 1.698-.339 2.835-.868 2.528-1.176-.928-.927-8.3 1.439-10.542 3.383-1.386 1.202-2.064 2.929-2.003 5.099.052 1.805-.477 3.634-1.174 4.065-.698.431-.88.99-.405 1.241.475.251.301.32-.387.152-.687-.167-1.286.469-1.329 1.414-.044.959-.295 1.188-.567.519-.335-.824-1.218-.922-2.82-.313-1.929.733-2.429.523-2.882-1.212-.599-2.287.841-5.775 2.383-5.775 1.755 0 1.001-1.998-.785-2.079-1.045-.047-1.247-.282-.5-.583 2.566-1.036 1.124-2.108-2.377-1.769-1.995.194-3.349.074-3.009-.267.727-.727-1.212-3.302-2.486-3.302-.483 0-.871 1.237-.863 2.75.012 2.088.24 2.395.947 1.278.793-1.254 1.031-1.209 1.613.307.376.979 1.3 1.543 2.054 1.254 1.591-.611 1.616-.35.452 4.661-.508 2.188-.498 3.75.024 3.75 1.538 0 .977 1.754-.775 2.427-.921.353-2.036.065-2.485-.643-.651-1.027-.817-1.013-.83.067-.011.985-1.231 1.254-4.515.992-3.137-.249-4.5.023-4.5.9 0 .691.873 1.257 1.941 1.257s2.219.45 2.559 1c.34.55 3.377 1 6.75 1 5.218 0 5.872.19 4.387 1.276-1 .731-1.49 1.944-1.146 2.839.946 2.466 15.509 2.145 15.509-.342 0-2.228.904-2.234 4.027-.023l2.473 1.75-3.5.666c-3.288.625-3.227.659 1 .567 2.652-.057 5.644-.882 7.285-2.009 3.293-2.258 5.783-1.699 5.042 1.132-.848 3.246 7.345 1.688 10.434-1.983 1.751-2.082 2.803-2.59 4.052-1.959 7.704 3.893 16.466 5.32 21.674 3.529 8.265-2.841 9.684-2.688 14.308 1.548 6.303 5.775 14.554 6.867 25.193 3.332 5.902-1.96 7.653-4.65 4.521-6.94-.94-.688-1.413-1.73-1.05-2.316.991-1.604 4.645-1.283 6.712.588 1.649 1.492 2.002 1.503 3.579.118.962-.845 2.871-1.88 4.242-2.299 2.205-.675 2.339-.578 1.164.838-.73.88-1.038 2.07-.683 2.644.356.576-.165 1.054-1.164 1.066-1.516.019-1.404.339.691 1.978 1.375 1.076 1.911 1.966 1.191 1.978-.72.012-1.058.429-.75.926.308.5 2.691.094 5.323-.907 2.621-.995 6.559-1.896 8.751-2 7.822-.374 12.6.008 12.012.959-.325.526-1.268.697-2.096.379-.828-.318-2.31.151-3.294 1.041-1.029.931-4.515 1.896-8.213 2.274-3.533.36-6.649.992-6.924 1.403-.275.411-1.4.905-2.5 1.097-1.1.193-2.337.8-2.75 1.35-.497.663-1.003.65-1.5-.036-.58-.802-22.073-1.241-25.25-.517-.275.063-12.425.145-27 .183-25.746.067-29.335.872-10.5 2.355 4.4.346 11.375 1.349 15.5 2.228 9.483 2.022 17.905 2.123 30.231.362 8.757-1.252 10.245-1.225 14.865.267 2.824.912 7.894 1.643 11.269 1.625 7.538-.041 29.659-4.388 30.673-6.028.406-.657 1.197-.912 1.758-.565.561.346 2.073.199 3.362-.327 1.642-.671-1.938-.943-11.983-.91-7.879.025-14.592-.22-14.917-.546-.325-.325.357-.591 1.516-.591 1.16 0 2.365-.415 2.678-.923.314-.508 1.913-1.218 3.554-1.578 1.64-.361 3.322-1.227 3.738-1.926 1.202-2.021 5.71-2.693 7.802-1.163 1.029.752 2.497 1.127 3.263.833.766-.294 1.791.094 2.277.861.628.993.897.53.929-1.604.038-2.478.219-2.703 1.042-1.292 1.068 1.833 3.566 1.492 3.676-.501.037-.664.838-7.732 1.781-15.707.943-7.975 1.775-16.525 1.85-19 .11-3.636.568-4.69 2.386-5.487 1.237-.543 2.25-1.331 2.25-1.75 0-1.265-2.795-.857-3.338.487-.277.688-.54.013-.583-1.5-.043-1.513-.556-2.75-1.138-2.75-.582 0-.855.337-.605.75s-.164 1.321-.919 2.019c-1.156 1.068-1.295.338-.883-4.618.374-4.482.13-6.185-1.022-7.141-1.295-1.074-1.512-.806-1.512 1.868 0 2.027-.497 3.122-1.417 3.122-.779 0-1.643.563-1.921 1.25-.296.735-.537.516-.583-.531-.043-.98.596-2.041 1.421-2.357.825-.317 1.5-1.203 1.5-1.969 0-1.869-2.913-1.783-3.638.107-.401 1.043-1.382 1.319-3.219.905a190.523 190.523 0 0 0-5.405-1.115c-1.519-.287-3.009-.919-3.309-1.405-.712-1.151-2.159-1.131-2.882.039m230.589 12.326c-.075.962-.586 1.75-1.136 1.75-.55 0-1 .45-1 1s.675 1 1.5 1 1.5.45 1.5 1-.45 1-1 1c-2.94 0-.394 2.91 3.5 4 2.673.748 4.5 1.846 4.5 2.703 0 2.336 3.466 1.012 3.819-1.458.24-1.684-.068-2.087-1.25-1.633-1.128.433-1.569-.007-1.569-1.564 0-1.191.45-1.888 1-1.548.55.34 1-.041 1-.847 0-.973.672-1.29 2-.943 1.118.293 2 .031 2-.593 0-.615.45-1.117 1-1.117s1 .669 1 1.487c0 1.605 6.67 4.853 8.429 4.104.589-.251.058-.764-1.179-1.14-1.237-.376-2.25-1.108-2.25-1.627 0-.518-.419-.683-.932-.366-.512.316-1.587-.361-2.388-1.505-.912-1.301-2.623-2.114-4.569-2.169-1.899-.054-3.111-.614-3.111-1.436 0-.741-.916-1.348-2.035-1.348-1.702 0-1.866.316-1 1.934 1.78 3.327 1.231 3.841-2.921 2.732-2.714-.724-4.084-1.701-4.364-3.111-.311-1.569-.44-1.641-.544-.305m-234.613 1.416c-.469 1.138-.926 1.381-1.204.64-.247-.656-1.074-.954-1.838-.66-1.041.399-.737 1.139 1.21 2.944 2.508 2.323 2.524 2.41.455 2.41-1.18 0-2.146-.477-2.146-1.059 0-.597-.545-.718-1.25-.278-.687.429-1.804.865-2.48.967-1.679.255-4.713 3.37-3.282 3.37.621 0 .822.498.446 1.107-.473.765-.885.781-1.335.053-.417-.675-1.183-.719-2.125-.123-1.2.759-1.102.941.526.979 1.973.047 1.974.067.059 1.516-1.14.862-1.409 1.468-.652 1.468 1.194 0-1.053 3.286-6.407 9.367-1.179 1.339-2.03 3.782-2.074 5.952-.083 4.131 1.049 4.911 1.945 1.34.511-2.039 1.246-2.364 5.701-2.521 2.961-.105 5.737-.804 6.593-1.66 1.91-1.91 3.434-1.901 2.699.016-.316.822-.976 1.246-1.469.941-.492-.304-.895.149-.895 1.006 0 1.958.472 1.951 3.535-.056 2.378-1.558 2.467-1.532 2.535.75.064 2.136.144 2.177.832.419.727-1.858.788-1.847 1.336.25.647 2.472 2.762 3.005 2.762.696 0-.825-.461-1.5-1.025-1.5-1.297 0-3.188-4.846-2.393-6.132.367-.594 1.144-.51 2.021.218 1.166.967 1.367.798 1.104-.926-.177-1.16-.63-2.416-1.006-2.792-.921-.922 1.201-3.368 2.921-3.368.758 0 1.378.45 1.378 1s.675 1 1.5 1 1.5-.45 1.5-1-.675-1-1.5-1-1.5-.45-1.5-1-.932-1-2.071-1c-2.248 0-4.929-2.172-4.929-3.991 0-.624-.971-.994-2.157-.822-1.186.172-2.364-.296-2.618-1.04-.378-1.113 1.923-1.25 12.907-.773 18.832.818 17.205.263 16.369 5.59-.391 2.495-.692 5.324-.668 6.286.023.962-.379 1.75-.895 1.75s-.938.73-.938 1.622c0 1.329.271 1.398 1.5.378.825-.685 1.5-2.09 1.5-3.122 0-1.033.429-1.878.953-1.878.551 0 .727-2.216.418-5.25-.419-4.11-.283-4.924.628-3.75.929 1.198 1.03.897.501-1.498-.852-3.855-1.099-4.046-2.905-2.24-.825.825-1.26 1.74-.967 2.033 1.174 1.174-8.237-1.675-9.707-2.938-1.783-1.533-3.324-1.819-2.486-.462.762 1.233-2.308 2.28-4.576 1.56-2.616-.83-2.31-2.125.682-2.876 1.397-.351 2.257-1.096 1.911-1.657-.418-.676-1.033-.685-1.825-.027-1.529 1.269-4.558.834-5.568-.799-.581-.941-.973-.796-1.536.57m307.149 3.225c-.37 1.847-.672 4.995-.672 6.993 0 2.606-.593 4.005-2.094 4.943-2.027 1.265-2.036 1.372-.286 3.305 1.718 1.899 1.844 1.908 2.524.183.562-1.426.73-1.226.786.935.038 1.513-.38 2.75-.93 2.75s-1.014-.562-1.03-1.25c-.017-.687-.52-.409-1.117.62-.856 1.473-1.262 1.587-1.911.537-.674-1.091-1.471-1.025-4.383.363-1.957.934-3.559 1.313-3.559.844 0-.47-2.081-1.088-4.624-1.375-2.543-.287-5.011-1.133-5.484-1.88-.63-.994-.865-.755-.877.891-.008 1.237-.492 2.25-1.074 2.25-.599 0-.718.543-.275 1.25.431.688.655 2.038.496 3-.158.962.139 1.75.662 1.75 2.08 0 1.919 6.067-.192 7.197-1.12.599-2.169.688-2.332.196-.162-.491-3.334-.835-7.048-.763-3.713.071-5.064-.068-3.002-.31 4.72-.555 4.862-1.971.25-2.51-2.648-.309-3.519-.031-3.579 1.141-.057 1.117-.225 1.183-.604.238-.41-1.024-.929-.945-2.373.362-1.75 1.583-1.885 1.532-2.507-.945-1.077-4.293.318-9.617 2.35-8.966 1.322.423 1.402.326.35-.425-.75-.535-.975-1.179-.5-1.43.475-.251.301-.32-.387-.152-.687.167-1.25-.132-1.25-.664 0-.533-.477-.969-1.059-.969s-.781.45-.441 1 .179 1-.358 1c-.536 0-1.146-.511-1.354-1.136-.269-.807-1.026-.735-2.614.25-1.583.982-2.445 1.065-2.955.286-1.046-1.6-8.992-2.461-9.677-1.048-.306.631-.338-.668-.072-2.888.423-3.517.231-4.035-1.492-4.035-1.28 0-1.978.673-1.978 1.908 0 1.582-.256 1.696-1.5.663-1.95-1.618-2.185 5.133-.25 7.179.688.726 1.392 2.638 1.566 4.248.275 2.557.117 2.762-1.25 1.627-1.053-.873-1.566-.931-1.566-.176 0 .617.45 1.122 1 1.122s1 .462 1 1.026c0 .576-1.36.322-3.104-.58-2.263-1.17-4.498-1.437-8.25-.984-4.389.53-4.852.435-3.146-.642 1.1-.694 4.25-1.55 7-1.901l5-.637-4.8-.141c-5.294-.156-8.985 1.369-12.546 5.18-1.684 1.804-3.069 2.381-4.913 2.046-2.164-.392-2.376-.235-1.352 1 .992 1.194.837 1.585-.836 2.116-1.138.361-2.053 1.514-2.053 2.584 0 1.063-.562 1.947-1.25 1.965-1.532.039 2.171 2.968 3.753 2.968.616 0 2.136-.947 3.379-2.105 2.534-2.361 8.847-3.494 11.089-1.99 1.988 1.333 1.33 1.791-5.025 3.499-2.995.806-4.546 1.516-3.446 1.579 11.153.64 12.278.602 11.894-.401-.37-.967 1.062-1.356 6.856-1.859.969-.084 1.75-.963 1.75-1.97 0-.999 1.013-2.224 2.25-2.722 1.724-.693 1.841-.919.5-.968-1.861-.067-2.36-1.568-.835-2.51.503-.311 1.143 0 1.423.691.393.968.735.933 1.495-.156.783-1.122 1.079-.916 1.44 1 .416 2.209.466 2.174.591-.421.137-2.853 2.084-3.324 2.953-.715.264.791-.014 1.044-.687.628-1.407-.869-1.439-.026-.095 2.486.57 1.064 1.547 1.934 2.171 1.934.625 0 2 .782 3.056 1.737 1.822 1.649 1.983 1.649 3.189 0 .698-.955 1.809-1.737 2.468-1.737.66 0 .878-.52.486-1.155-.405-.655-.278-.885.293-.532.554.343 1.861-.023 2.905-.813 3.632-2.75 14.397-.823 14.397 2.576 0 1.079-9.393 3.892-13.432 4.024-5.577.181 1.149 1.703 7.432 1.682 9.911-.034 11.357-.698 12.584-5.785.654-2.711 1.317-3.899 1.671-2.995.431 1.099.612.965.681-.502.077-1.616.272-1.72 1.015-.545.591.934 3.492 1.692 8.091 2.113 4.411.404 7.508 1.191 8.049 2.045.564.89.884.964.894.205.026-2.054 5.698-5.327 9.938-5.735 4.413-.425 7.442 2.038 8.707 7.079.323 1.286 1.101 2.331 1.728 2.323 2.019-.027 3.919-1.727 3.211-2.873-1.278-2.069 1.324-1.128 3.84 1.388 1.375 1.375 2.965 2.5 3.534 2.5 1.558 0 5.057-3.267 5.057-4.722 0-.703.45-1.278 1-1.278s.947-.337.882-.75c-.329-2.083.273-3.25 1.677-3.25.857 0 1.281.45.941 1-.34.55-.127 1 .472 1 .6 0 1.35-.675 1.666-1.5.356-.926 1.875-1.5 3.969-1.5 2.649 0 3.393-.41 3.393-1.872 0-2.428-7.395-3.871-9.774-1.908-1.233 1.017-1.638 1.023-1.972.03-.231-.687-1.144-1.25-2.028-1.25-1.363 0-1.328.205.231 1.345 1.764 1.29 1.754 1.367-.245 1.889-1.305.342-2.294-.004-2.647-.926-1.052-2.74-.573-3.983 1.982-5.147 3.128-1.426 6.453-1.508 6.453-.161 0 .55.9 1 2 1 2.109 0 2.691-1.455 1-2.5-.55-.34-1.007-.029-1.015.691-.012.972-.21 1.003-.771.122-1.055-1.661-6.265-3.507-8.007-2.839-1.462.561-1.388-.657.287-4.724 1.064-2.585-1.005-2.129-2.274.5-1.208 2.505-1.729.239-.613-2.668.719-1.874 3.379-2.131 3.425-.332.018.704.673.402 1.5-.691 2.148-2.84 1.803-3.637-1.097-2.534-3.477 1.322-3.661 1.263-2.961-.942.499-1.572.225-1.817-1.517-1.361-1.406.367-1.725.803-.943 1.287 2.007 1.24.658 4.464-2.024 4.837l-2.49.345 2.271-1.98c1.953-1.705 2.045-2.068.659-2.599-.886-.34-2.089-.322-2.675.039-.657.407-.768.179-.289-.596.608-.985.319-1.01-1.345-.12-1.167.625-2.121 1.596-2.121 2.159 0 .563-.515.706-1.145.316-.79-.488-.988.113-.639 1.941.347 1.816.079 2.649-.855 2.649-.748 0-1.361.45-1.361 1s-.502 1-1.115 1c-.69 0-.509-.925.474-2.425 1.111-1.695 1.242-2.541.435-2.81-.635-.212-.865-1.138-.512-2.058.407-1.059 1.249-1.44 2.296-1.039 1.305.501 1.517.207 1.008-1.398-.443-1.395-.121-2.235 1.027-2.675.92-.353 1.4-.916 1.065-1.25-.334-.334-.182-1.404.339-2.377.668-1.248.558-1.917-.376-2.276-2.082-.798-3.679.634-2.604 2.334 1.445 2.284 1.149 2.835-1.193 2.223-1.246-.326-1.907-.161-1.566.391.324.526.177 1.609-.329 2.408-.692 1.095-.922.796-.934-1.215-.008-1.466.398-2.816.903-3 .504-.183.683-1.539.397-3.012-.359-1.846-.98-2.503-1.999-2.112-.812.312-1.284 1.306-1.048 2.208.236.903-.177 2.209-.919 2.902-1.409 1.316-1.398 1.333-1.798-2.819-.079-.825-.686-1.388-1.348-1.25-.662.138-1.203-.269-1.203-.903s-.9-.115-2 1.153c-1.657 1.91-2 2.012-2 .594 0-.942-.412-1.458-.915-1.147-.503.311-1.1.007-1.328-.675-.227-.682-.716.271-1.085 2.119m4.74 17.967c.244.395-.97 1.343-2.698 2.108-1.728.765-2.6 1.572-1.936 1.793.836.279.913.95.249 2.19-.526.984-.672 2.072-.325 2.42.347.347.106.631-.535.631-.642 0-1.167.675-1.167 1.5s.45 1.5 1 1.5 1-.358 1-.796c0-.439 1.237-.722 2.75-.629 1.513.092 4.014.225 5.559.296 1.589.073 2.541.562 2.192 1.127-.373.605.59.866 2.445.663 2.912-.319 5.585-1.661 3.309-1.661-.594 0-.953-1.15-.798-2.557.2-1.822-.113-2.405-1.088-2.031-.873.335-1.369-.188-1.369-1.443 0-1.083-.45-1.969-1-1.969s-1.002-.788-1.004-1.75c-.004-1.299-.909-1.796-3.516-1.93-1.931-.099-3.312.143-3.068.538M1035 825c-15.675.275-27.15.814-25.5 1.199 13.286 3.095 18.264 3.904 27 4.387 7.673.424 11.02.187 14.383-1.019 3.283-1.178 5.291-1.334 8-.625 1.989.522 12.617 1.451 23.617 2.065 13.726.766 22.51 1.76 28 3.168 9.036 2.318 22.984 2.665 36.077.898 9.248-1.247 20.756-1.603 22.238-.687.569.351 1.24-.155 1.493-1.124.348-1.333.488-1.386.576-.216.087 1.166 3.132 2.117 12.366 3.866 17.789 3.368 18.89 3.475 19.864 1.937.633-.998.859-1.024.871-.099.009.754 1.377 1.25 3.45 1.25 1.889 0 4.644.46 6.122 1.022 2.496.949 2.644.859 2.079-1.25-.335-1.25-.615-5.271-.622-8.935l-.014-6.664-20.19-.088c-15.147-.066-20.392.225-21 1.164-.645.996-.981.987-1.646-.042-.858-1.328-67.543-1.428-137.164-.207m283.671 17.5c.317 4.4.72 8.788.895 9.75.187 1.025-.297 1.75-1.167 1.75-.818 0-1.414-.562-1.324-1.25.336-2.593-.116-3.671-1.343-3.201-.893.343-1.219-.553-1.103-3.031.19-4.036-1.287-4.729-2.213-1.038-.536 2.132-.906 2.328-2.647 1.397-1.5-.803-2.218-.769-2.775.133-.427.691-.912.794-1.123.239-.219-.577-2.215-.703-4.871-.308l-4.5.669 3.586 1.945c7.492 4.063 12.506 6.352 15.094 6.89 1.474.307 3.325 1.203 4.114 1.991 1.275 1.276 18.968.734 20.19-.617.159-.176.002-3.244-.348-6.819-.597-6.097-.791-6.5-3.136-6.5-1.375 0-2.806-.675-3.18-1.5-.447-.987-.703-.56-.75 1.25-.077 3.012-2.24 3.385-3.07.53-.368-1.265-.897-1.463-2-.75-1.24.802-1.266 1.121-.149 1.842.965.622.452 1.003-1.794 1.333-3.699.543-4.014.147-5.687-7.147l-1.275-5.558.576 8m-733.178-.511c.35.566-.051.734-.941.393-2.585-.992-1.739.453 1.198 2.046 1.961 1.064 2.248 1.503 1 1.532-.962.022-1.75.517-1.75 1.099s-.457.776-1.016.431c-.559-.346-.789-.996-.511-1.446.278-.449-.165-1.373-.984-2.053-.846-.702-1.489-.802-1.489-.23 0 1.359-4.445 2.129-6.3 1.091-1.193-.668-1.569-.022-1.879 3.227l-.387 4.062 3.533-.633c1.943-.349 4.033-1.281 4.643-2.071 1.433-1.855 2.39-1.83 2.39.063 0 .825.505 1.5 1.122 1.5.768 0 .723.482-.142 1.524-.696.838-.975 1.814-.621 2.168 1.345 1.346 11.94 1.529 15.747.273 3.565-1.177 4.076-1.119 5.494.619 1.449 1.776 1.521 1.782.982.084-.32-1.007-.582-2.02-.582-2.25 0-.23-2.925-.418-6.5-.418-6.233 0-6.505-.103-6.625-2.5-.21-4.203-.325-4.541-1.875-5.521-1.279-.808-1.242-.951.25-.964.962-.008 1.75-.451 1.75-.984 0-.532-.749-.681-1.664-.33-1.119.43-1.427.256-.941-.531.482-.78-.151-1.17-1.895-1.17-1.47 0-2.35.433-2.007.989" fill="#d3d3d3" fill-rule="evenodd"/></svg>